<svg viewBox="0 0 27.890625 27.890625" xmlns="http://www.w3.org/2000/svg"><path d="M13.9427 27.8864C21.6427 27.8864 27.8927 21.6464 27.8927 13.9464C27.8927 6.2464 21.6427 -0.0036 13.9427 -0.0036C6.2527 -0.0036 0.0027 6.2464 0.0027 13.9464C0.0027 21.6464 6.2527 27.8864 13.9427 27.8864ZM13.9427 25.5664C7.5227 25.5664 2.3227 20.3664 2.3227 13.9464C2.3227 7.5164 7.5227 2.3264 13.9427 2.3264C20.3727 2.3264 25.5627 7.5164 25.5627 13.9464C25.5627 20.3664 20.3727 25.5664 13.9427 25.5664ZM13.9327 20.4564C16.8327 20.4564 18.7727 17.8464 18.7727 13.9464C18.7727 10.0464 16.8327 7.4364 13.9327 7.4364C11.0427 7.4364 9.1027 10.0464 9.1027 13.9464C9.1027 17.8464 11.0427 20.4564 13.9327 20.4564ZM13.9327 18.7064C12.2927 18.7064 11.1927 16.8064 11.1927 13.9464C11.1927 11.0864 12.2927 9.1864 13.9327 9.1864C15.5727 9.1864 16.6627 11.0864 16.6627 13.9464C16.6627 16.8064 15.5727 18.7064 13.9327 18.7064Z" /></svg>