
<svg
    viewBox={0 0 27.890625 27.890625}
    xmlns="http://www.w3.org/2000/svg"
>
    <path
        fill="inherit"
        d="M13.9427 27.8864C21.6427 27.8864 27.8927 21.6264 27.8927 13.9464C27.8927 6.2464 21.6427 -0.0036 13.9427 -0.0036C6.2627 -0.0036 0.0027 6.2464 0.0027 13.9464C0.0027 21.6264 6.2627 27.8864 13.9427 27.8864ZM13.9427 20.6564C10.9627 20.6564 8.9727 17.9664 8.9727 13.9464C8.9727 9.9264 10.9627 7.2364 13.9427 7.2364C16.9427 7.2364 18.9327 9.9264 18.9327 13.9464C18.9327 17.9664 16.9427 20.6564 13.9427 20.6564ZM13.9427 18.8364C15.6227 18.8364 16.7627 16.8864 16.7627 13.9464C16.7627 11.0064 15.6227 9.0464 13.9427 9.0464C12.2627 9.0464 11.1327 11.0064 11.1327 13.9464C11.1327 16.8864 12.2627 18.8364 13.9427 18.8364Z"
        fillRule="evenodd"
        clipRule="evenodd"
    />
</svg>
        