
<svg
    viewBox={0 0 25.169921875 25.169921875}
    xmlns="http://www.w3.org/2000/svg"
>
    <path
        fill="inherit"
        d="M4.2937 25.1692H20.8737C23.7437 25.1692 25.1737 23.7592 25.1737 20.9492V4.2392C25.1737 1.4192 23.7437 -0.0008 20.8737 -0.0008H4.2937C1.4337 -0.0008 0.0037 1.4192 0.0037 4.2392V20.9492C0.0037 23.7592 1.4337 25.1692 4.2937 25.1692ZM4.3237 22.9692C2.9537 22.9692 2.2037 22.2392 2.2037 20.8192V4.3592C2.2037 2.9392 2.9537 2.1992 4.3237 2.1992H20.8537C22.2037 2.1992 22.9737 2.9392 22.9737 4.3592V20.8192C22.9737 22.2392 22.2037 22.9692 20.8537 22.9692ZM12.5937 19.0892C15.4937 19.0892 17.4337 16.4792 17.4337 12.5792C17.4337 8.6792 15.4937 6.0692 12.5937 6.0692C9.7037 6.0692 7.7637 8.6792 7.7637 12.5792C7.7637 16.4792 9.7037 19.0892 12.5937 19.0892ZM12.5937 17.3392C10.9637 17.3392 9.8537 15.4392 9.8537 12.5792C9.8537 9.7192 10.9637 7.8192 12.5937 7.8192C14.2337 7.8192 15.3237 9.7192 15.3237 12.5792C15.3237 15.4392 14.2337 17.3392 12.5937 17.3392Z"
        fillRule="evenodd"
        clipRule="evenodd"
    />
</svg>
        