
<svg
    viewBox="0 0 25.169921875 25.169921875"
    xmlns="http://www.w3.org/2000/svg"
>
    <path
        fill="inherit"
        d="M4.2937 25.1692H20.8737C23.7437 25.1692 25.1737 23.7592 25.1737 20.9492V4.2392C25.1737 1.4192 23.7437 -0.0008 20.8737 -0.0008H4.2937C1.4337 -0.0008 0.0037 1.4192 0.0037 4.2392V20.9492C0.0037 23.7592 1.4337 25.1692 4.2937 25.1692ZM12.5937 19.2892C9.6137 19.2892 7.6137 16.5992 7.6137 12.5792C7.6137 8.5592 9.6137 5.8692 12.5937 5.8692C15.5837 5.8692 17.5837 8.5592 17.5837 12.5792C17.5837 16.5992 15.5837 19.2892 12.5937 19.2892ZM12.5937 17.4692C14.2737 17.4692 15.4037 15.5192 15.4037 12.5792C15.4037 9.6392 14.2737 7.6792 12.5937 7.6792C10.9237 7.6792 9.7737 9.6392 9.7737 12.5792C9.7737 15.5192 10.9237 17.4692 12.5937 17.4692Z"
        fillRule="evenodd"
        clipRule="evenodd"
    />
</svg>
        