
<svg
    viewBox="0 0 27.890625 27.890625"
    xmlns="http://www.w3.org/2000/svg"
>
    <path
        fill="inherit"
        d="M13.9427 27.8864C21.6427 27.8864 27.8927 21.6264 27.8927 13.9464C27.8927 6.2464 21.6427 -0.0036 13.9427 -0.0036C6.2627 -0.0036 0.0027 6.2464 0.0027 13.9464C0.0027 21.6264 6.2627 27.8864 13.9427 27.8864ZM9.4727 19.9364C6.6627 19.9364 5.8127 16.7864 5.8127 13.9464C5.8127 11.1064 6.6627 7.9564 9.4727 7.9564C12.2727 7.9564 13.1227 11.1064 13.1227 13.9464C13.1227 16.7864 12.2727 19.9364 9.4727 19.9364ZM18.4127 19.9364C15.6127 19.9364 14.7627 16.7864 14.7627 13.9464C14.7627 11.1064 15.6127 7.9564 18.4127 7.9564C21.2327 7.9564 22.0827 11.1064 22.0827 13.9464C22.0827 16.7864 21.2327 19.9364 18.4127 19.9364ZM9.4727 18.2564C10.6227 18.2564 11.0627 16.3964 11.0627 13.9464C11.0627 11.4864 10.6227 9.6364 9.4727 9.6364C8.3227 9.6364 7.8927 11.4864 7.8927 13.9464C7.8927 16.3964 8.3227 18.2564 9.4727 18.2564ZM18.4127 18.2564C19.5627 18.2564 20.0027 16.3964 20.0027 13.9464C20.0027 11.4864 19.5627 9.6364 18.4127 9.6364C17.2627 9.6364 16.8327 11.4864 16.8327 13.9464C16.8327 16.3964 17.2627 18.2564 18.4127 18.2564Z"
        fillRule="evenodd"
        clipRule="evenodd"
    />
</svg>
        