<svg viewBox="0 0 27.890625 27.890625" xmlns="http://www.w3.org/2000/svg"><path d="M13.9427 27.8864C21.6427 27.8864 27.8927 21.6464 27.8927 13.9464C27.8927 6.2464 21.6427 -0.0036 13.9427 -0.0036C6.2527 -0.0036 0.0027 6.2464 0.0027 13.9464C0.0027 21.6464 6.2527 27.8864 13.9427 27.8864ZM13.9427 25.5664C7.5227 25.5664 2.3227 20.3664 2.3227 13.9464C2.3227 7.5164 7.5227 2.3264 13.9427 2.3264C20.3727 2.3264 25.5627 7.5164 25.5627 13.9464C25.5627 20.3664 20.3727 25.5664 13.9427 25.5664ZM9.5927 19.7564C12.3227 19.7564 13.1427 16.6964 13.1427 13.9464C13.1427 11.1964 12.3227 8.1364 9.5927 8.1364C6.8727 8.1364 6.0527 11.1964 6.0527 13.9464C6.0527 16.6964 6.8727 19.7564 9.5927 19.7564ZM18.2627 19.7564C20.9827 19.7564 21.8027 16.6964 21.8027 13.9464C21.8027 11.1964 20.9827 8.1364 18.2627 8.1364C15.5427 8.1364 14.7227 11.1964 14.7227 13.9464C14.7227 16.6964 15.5427 19.7564 18.2627 19.7564ZM9.5927 18.1264C8.4727 18.1264 8.0527 16.3064 8.0527 13.9464C8.0527 11.5664 8.4727 9.7464 9.5927 9.7464C10.7227 9.7464 11.1427 11.5664 11.1427 13.9464C11.1427 16.3064 10.7227 18.1264 9.5927 18.1264ZM18.2627 18.1264C17.1427 18.1264 16.7227 16.3064 16.7227 13.9464C16.7227 11.5664 17.1427 9.7464 18.2627 9.7464C19.3827 9.7464 19.8127 11.5664 19.8127 13.9464C19.8127 16.3064 19.3827 18.1264 18.2627 18.1264Z" /></svg>