
<svg
    viewBox={0 0 25.169921875 25.169921875}
    xmlns="http://www.w3.org/2000/svg"
>
    <path
        fill="inherit"
        d="M4.2937 25.1692H20.8737C23.7437 25.1692 25.1737 23.7592 25.1737 20.9492V4.2392C25.1737 1.4192 23.7437 -0.0008 20.8737 -0.0008H4.2937C1.4337 -0.0008 0.0037 1.4192 0.0037 4.2392V20.9492C0.0037 23.7592 1.4337 25.1692 4.2937 25.1692ZM4.3237 22.9692C2.9537 22.9692 2.2037 22.2392 2.2037 20.8192V4.3592C2.2037 2.9392 2.9537 2.1992 4.3237 2.1992H20.8537C22.2037 2.1992 22.9737 2.9392 22.9737 4.3592V20.8192C22.9737 22.2392 22.2037 22.9692 20.8537 22.9692ZM8.2537 18.3892C10.9737 18.3892 11.8037 15.3292 11.8037 12.5792C11.8037 9.8292 10.9737 6.7692 8.2537 6.7692C5.5337 6.7692 4.7137 9.8292 4.7137 12.5792C4.7137 15.3292 5.5337 18.3892 8.2537 18.3892ZM16.9237 18.3892C19.6637 18.3892 20.4637 15.3292 20.4637 12.5792C20.4637 9.8292 19.6637 6.7692 16.9237 6.7692C14.2037 6.7692 13.3837 9.8292 13.3837 12.5792C13.3837 15.3292 14.2037 18.3892 16.9237 18.3892ZM8.2537 16.7592C7.1337 16.7592 6.7137 14.9392 6.7137 12.5792C6.7137 10.1992 7.1337 8.3792 8.2537 8.3792C9.3837 8.3792 9.8037 10.1992 9.8037 12.5792C9.8037 14.9392 9.3837 16.7592 8.2537 16.7592ZM16.9237 16.7592C15.8037 16.7592 15.3837 14.9392 15.3837 12.5792C15.3837 10.1992 15.8037 8.3792 16.9237 8.3792C18.0437 8.3792 18.4737 10.1992 18.4737 12.5792C18.4737 14.9392 18.0437 16.7592 16.9237 16.7592Z"
        fillRule="evenodd"
        clipRule="evenodd"
    />
</svg>
        