
<svg
    viewBox={0 0 27.890625 27.890625}
    xmlns="http://www.w3.org/2000/svg"
>
    <path
        fill="inherit"
        d="M13.9427 27.8864C21.6427 27.8864 27.8927 21.6264 27.8927 13.9464C27.8927 6.2464 21.6427 -0.0036 13.9427 -0.0036C6.2627 -0.0036 0.0027 6.2464 0.0027 13.9464C0.0027 21.6264 6.2627 27.8864 13.9427 27.8864ZM10.4827 19.9364C7.6827 19.9364 6.8327 16.7864 6.8327 13.9464C6.8327 11.1064 7.6827 7.9564 10.4827 7.9564C13.3027 7.9564 14.1527 11.1064 14.1527 13.9464C14.1527 16.7864 13.3027 19.9364 10.4827 19.9364ZM18.9727 19.7964C18.3927 19.7964 17.9227 19.3364 17.9227 18.7564V10.2164L16.6227 11.2564C16.4927 11.3564 16.3527 11.4264 16.1327 11.4264C15.6927 11.4264 15.3927 11.1164 15.3927 10.6764C15.3927 10.3064 15.6027 10.0364 15.8427 9.8464L17.4027 8.6364C17.7227 8.3964 18.2127 8.0664 18.8027 8.0664C19.5327 8.0664 19.9927 8.4864 19.9927 9.2164V18.7564C19.9927 19.3364 19.5227 19.7964 18.9727 19.7964ZM10.4827 18.2564C11.6327 18.2564 12.0727 16.3964 12.0727 13.9464C12.0727 11.4864 11.6327 9.6364 10.4827 9.6364C9.3427 9.6364 8.9027 11.4864 8.9027 13.9464C8.9027 16.3964 9.3427 18.2564 10.4827 18.2564Z"
        fillRule="evenodd"
        clipRule="evenodd"
    />
</svg>
        