
<svg
    viewBox={0 0 27.890625 27.890625}
    xmlns="http://www.w3.org/2000/svg"
>
    <path
        fill="inherit"
        d="M13.9427 27.8864C21.6427 27.8864 27.8927 21.6464 27.8927 13.9464C27.8927 6.2464 21.6427 -0.0036 13.9427 -0.0036C6.2527 -0.0036 0.0027 6.2464 0.0027 13.9464C0.0027 21.6464 6.2527 27.8864 13.9427 27.8864ZM13.9427 25.5664C7.5227 25.5664 2.3227 20.3664 2.3227 13.9464C2.3227 7.5164 7.5227 2.3264 13.9427 2.3264C20.3727 2.3264 25.5627 7.5164 25.5627 13.9464C25.5627 20.3664 20.3727 25.5664 13.9427 25.5664ZM10.5727 19.7564C13.2927 19.7564 14.1127 16.6964 14.1127 13.9464C14.1127 11.1964 13.2927 8.1364 10.5727 8.1364C7.8427 8.1364 7.0227 11.1964 7.0227 13.9464C7.0227 16.6964 7.8427 19.7564 10.5727 19.7564ZM18.7827 19.6164C19.3227 19.6164 19.7727 19.1664 19.7727 18.6164V9.3564C19.7727 8.6564 19.3327 8.2464 18.6227 8.2464C18.0427 8.2464 17.5827 8.5564 17.2627 8.8064L15.7627 9.9664C15.5127 10.1564 15.3227 10.4164 15.3227 10.7764C15.3227 11.1964 15.6127 11.4964 16.0327 11.4964C16.2427 11.4964 16.3827 11.4264 16.5127 11.3364L17.7727 10.3264V18.6164C17.7727 19.1664 18.2227 19.6164 18.7827 19.6164ZM10.5727 18.1264C9.4427 18.1264 9.0227 16.3064 9.0227 13.9464C9.0227 11.5664 9.4427 9.7464 10.5727 9.7464C11.6927 9.7464 12.1127 11.5664 12.1127 13.9464C12.1127 16.3064 11.6927 18.1264 10.5727 18.1264Z"
        fillRule="evenodd"
        clipRule="evenodd"
    />
</svg>
        