
<svg
    viewBox={0 0 25.169921875 25.169921875}
    xmlns="http://www.w3.org/2000/svg"
>
    <path
        fill="inherit"
        d="M4.2937 25.1692H20.8737C23.7437 25.1692 25.1737 23.7592 25.1737 20.9492V4.2392C25.1737 1.4192 23.7437 -0.0008 20.8737 -0.0008H4.2937C1.4337 -0.0008 0.0037 1.4192 0.0037 4.2392V20.9492C0.0037 23.7592 1.4337 25.1692 4.2937 25.1692ZM9.1337 18.5692C6.3337 18.5692 5.4837 15.4192 5.4837 12.5792C5.4837 9.7392 6.3337 6.5892 9.1337 6.5892C11.9537 6.5892 12.7937 9.7392 12.7937 12.5792C12.7937 15.4192 11.9537 18.5692 9.1337 18.5692ZM17.6237 18.4292C17.0337 18.4292 16.5737 17.9692 16.5737 17.3892V8.8492L15.2737 9.8892C15.1337 9.9892 14.9937 10.0592 14.7837 10.0592C14.3437 10.0592 14.0437 9.7492 14.0437 9.3092C14.0437 8.9392 14.2437 8.6692 14.4937 8.4792L16.0537 7.2692C16.3637 7.0292 16.8537 6.6992 17.4437 6.6992C18.1837 6.6992 18.6337 7.1192 18.6337 7.8492V17.3892C18.6337 17.9692 18.1737 18.4292 17.6237 18.4292ZM9.1337 16.8892C10.2837 16.8892 10.7237 15.0292 10.7237 12.5792C10.7237 10.1192 10.2837 8.2692 9.1337 8.2692C7.9837 8.2692 7.5437 10.1192 7.5437 12.5792C7.5437 15.0292 7.9837 16.8892 9.1337 16.8892Z"
        fillRule="evenodd"
        clipRule="evenodd"
    />
</svg>
        