
<svg
    viewBox={0 0 25.169921875 25.169921875}
    xmlns="http://www.w3.org/2000/svg"
>
    <path
        fill="inherit"
        d="M4.2937 25.1692H20.8737C23.7437 25.1692 25.1737 23.7592 25.1737 20.9492V4.2392C25.1737 1.4192 23.7437 -0.0008 20.8737 -0.0008H4.2937C1.4337 -0.0008 0.0037 1.4192 0.0037 4.2392V20.9492C0.0037 23.7592 1.4337 25.1692 4.2937 25.1692ZM8.3137 18.5692C5.4937 18.5692 4.6637 15.4192 4.6637 12.5792C4.6637 9.7392 5.4937 6.5892 8.3137 6.5892C11.1337 6.5892 11.9637 9.7392 11.9637 12.5792C11.9637 15.4192 11.1337 18.5692 8.3137 18.5692ZM14.4537 18.2792C13.7937 18.2792 13.4837 17.9392 13.4837 17.4592C13.4837 17.0092 13.7537 16.6492 14.0137 16.3192L16.4637 13.1892C17.2037 12.2492 17.9937 11.0992 17.9937 9.9692C17.9937 8.9692 17.5137 8.2292 16.6837 8.2292C15.8637 8.2292 15.5337 8.8192 15.2537 9.7592C15.1237 10.2292 14.8237 10.4292 14.3537 10.4292C13.8037 10.4292 13.4937 10.0792 13.4937 9.5392C13.4937 8.0792 14.8937 6.5892 16.6837 6.5892C18.6237 6.5892 19.9237 7.9692 19.9237 9.8692C19.9237 11.1192 19.4437 12.1592 18.0437 13.9092L15.9937 16.4992V16.6092H19.3437C19.8237 16.6092 20.1437 16.9092 20.1437 17.4592C20.1437 17.9492 19.8337 18.2792 19.3437 18.2792ZM8.3137 16.8892C9.4637 16.8892 9.8937 15.0292 9.8937 12.5792C9.8937 10.1192 9.4637 8.2692 8.3137 8.2692C7.1737 8.2692 6.7437 10.1192 6.7437 12.5792C6.7437 15.0292 7.1737 16.8892 8.3137 16.8892Z"
        fillRule="evenodd"
        clipRule="evenodd"
    />
</svg>
        