
<svg
    viewBox={0 0 25.169921875 25.169921875}
    xmlns="http://www.w3.org/2000/svg"
>
    <path
        fill="inherit"
        d="M4.2937 25.1692H20.8737C23.7437 25.1692 25.1737 23.7592 25.1737 20.9492V4.2392C25.1737 1.4192 23.7437 -0.0008 20.8737 -0.0008H4.2937C1.4337 -0.0008 0.0037 1.4192 0.0037 4.2392V20.9492C0.0037 23.7592 1.4337 25.1692 4.2937 25.1692ZM4.3237 22.9692C2.9537 22.9692 2.2037 22.2392 2.2037 20.8192V4.3592C2.2037 2.9392 2.9537 2.1992 4.3237 2.1992H20.8537C22.2037 2.1992 22.9737 2.9392 22.9737 4.3592V20.8192C22.9737 22.2392 22.2037 22.9692 20.8537 22.9692ZM8.4337 18.3892C11.1737 18.3892 11.9737 15.3292 11.9737 12.5792C11.9737 9.8292 11.1737 6.7692 8.4337 6.7692C5.7137 6.7692 4.9037 9.8292 4.9037 12.5792C4.9037 15.3292 5.7137 18.3892 8.4337 18.3892ZM14.3837 18.0992H19.1237C19.6037 18.0992 19.8937 17.7892 19.8937 17.3092C19.8937 16.7892 19.5937 16.4992 19.1237 16.4992H15.8737V16.3892L17.8737 13.8592C19.2337 12.1692 19.6837 11.1592 19.6837 9.9492C19.6837 8.1092 18.4337 6.7692 16.5437 6.7692C14.8037 6.7692 13.4637 8.2192 13.4637 9.6392C13.4637 10.1492 13.7637 10.4992 14.2837 10.4992C14.7337 10.4992 15.0237 10.2992 15.1637 9.8392C15.4237 8.9292 15.7537 8.3492 16.5437 8.3492C17.3637 8.3492 17.8237 9.0792 17.8237 10.0492C17.8237 11.1392 17.0637 12.2492 16.3337 13.1792L13.9637 16.2192C13.7137 16.5392 13.4537 16.8892 13.4537 17.3092C13.4537 17.7692 13.7537 18.0992 14.3837 18.0992ZM8.4337 16.7592C7.3237 16.7592 6.9037 14.9392 6.9037 12.5792C6.9037 10.1992 7.3237 8.3792 8.4337 8.3792C9.5537 8.3792 9.9837 10.1992 9.9837 12.5792C9.9837 14.9392 9.5537 16.7592 8.4337 16.7592Z"
        fillRule="evenodd"
        clipRule="evenodd"
    />
</svg>
        