
<svg
    viewBox={0 0 27.890625 27.890625}
    xmlns="http://www.w3.org/2000/svg"
>
    <path
        fill="inherit"
        d="M13.9427 27.8864C21.6427 27.8864 27.8927 21.6464 27.8927 13.9464C27.8927 6.2464 21.6427 -0.0036 13.9427 -0.0036C6.2527 -0.0036 0.0027 6.2464 0.0027 13.9464C0.0027 21.6464 6.2527 27.8864 13.9427 27.8864ZM13.9427 25.5664C7.5227 25.5664 2.3227 20.3664 2.3227 13.9464C2.3227 7.5164 7.5227 2.3264 13.9427 2.3264C20.3727 2.3264 25.5627 7.5164 25.5627 13.9464C25.5627 20.3664 20.3727 25.5664 13.9427 25.5664ZM9.5827 19.7564C12.3027 19.7564 13.1127 16.6964 13.1127 13.9464C13.1127 11.1964 12.3027 8.1364 9.5827 8.1364C6.8527 8.1364 6.0427 11.1964 6.0427 13.9464C6.0427 16.6964 6.8527 19.7564 9.5827 19.7564ZM18.0227 19.7164C19.9727 19.7164 21.4827 18.4864 21.4827 16.4364C21.4827 14.7364 20.4627 13.9064 19.3227 13.7764V13.7364C20.5527 13.4164 21.1627 12.3064 21.1627 11.1564C21.1627 9.2664 19.7427 8.1864 17.9627 8.1864C16.5527 8.1864 15.3227 8.9864 14.9327 10.1964C14.8627 10.4564 14.8327 10.7064 14.8327 10.9364C14.8327 11.3864 15.1327 11.7464 15.6727 11.7464C16.1327 11.7464 16.4027 11.5664 16.5427 11.0864C16.7627 10.2764 17.2027 9.7764 17.9627 9.7764C18.8627 9.7764 19.2927 10.4764 19.2927 11.3764C19.2927 12.3764 18.7427 13.0964 17.7227 13.0964H17.3927C16.9227 13.0964 16.6427 13.3864 16.6427 13.8364C16.6427 14.2864 16.9427 14.5464 17.3927 14.5464H17.7327C18.8927 14.5464 19.5327 15.1864 19.5327 16.3764C19.5327 17.3264 19.0327 18.1264 18.0227 18.1264C17.0227 18.1264 16.5827 17.4564 16.4027 16.8264C16.2827 16.3964 15.9827 16.1564 15.5427 16.1564C15.0127 16.1564 14.6527 16.4864 14.6527 17.0264C14.6527 17.2664 14.6927 17.5164 14.7627 17.7364C15.1527 19.0064 16.5427 19.7164 18.0227 19.7164ZM9.5827 18.1264C8.4627 18.1264 8.0427 16.3064 8.0427 13.9464C8.0427 11.5664 8.4627 9.7464 9.5827 9.7464C10.6927 9.7464 11.1127 11.5664 11.1127 13.9464C11.1127 16.3064 10.6927 18.1264 9.5827 18.1264Z"
        fillRule="evenodd"
        clipRule="evenodd"
    />
</svg>
        