
<svg
    viewBox={0 0 25.169921875 25.169921875}
    xmlns="http://www.w3.org/2000/svg"
>
    <path
        fill="inherit"
        d="M4.2937 25.1692H20.8737C23.7437 25.1692 25.1737 23.7592 25.1737 20.9492V4.2392C25.1737 1.4192 23.7437 -0.0008 20.8737 -0.0008H4.2937C1.4337 -0.0008 0.0037 1.4192 0.0037 4.2392V20.9492C0.0037 23.7592 1.4337 25.1692 4.2937 25.1692ZM4.3237 22.9692C2.9537 22.9692 2.2037 22.2392 2.2037 20.8192V4.3592C2.2037 2.9392 2.9537 2.1992 4.3237 2.1992H20.8537C22.2037 2.1992 22.9737 2.9392 22.9737 4.3592V20.8192C22.9737 22.2392 22.2037 22.9692 20.8537 22.9692ZM8.2437 18.3892C10.9637 18.3892 11.7837 15.3292 11.7837 12.5792C11.7837 9.8292 10.9637 6.7692 8.2437 6.7692C5.5137 6.7692 4.7037 9.8292 4.7037 12.5792C4.7037 15.3292 5.5137 18.3892 8.2437 18.3892ZM16.6837 18.3492C18.6337 18.3492 20.1537 17.1192 20.1537 15.0692C20.1537 13.3692 19.1237 12.5392 17.9737 12.4092V12.3692C19.2237 12.0492 19.8237 10.9392 19.8237 9.7892C19.8237 7.8992 18.4037 6.8192 16.6237 6.8192C15.2137 6.8192 13.9837 7.6192 13.6037 8.8292C13.5237 9.0892 13.4937 9.3392 13.4937 9.5692C13.4937 10.0192 13.7937 10.3792 14.3237 10.3792C14.8037 10.3792 15.0637 10.1992 15.2037 9.7192C15.4237 8.9092 15.8637 8.4092 16.6237 8.4092C17.5237 8.4092 17.9637 9.1092 17.9637 10.0092C17.9637 11.0092 17.4037 11.7292 16.3837 11.7292H16.0537C15.5837 11.7292 15.3037 12.0192 15.3037 12.4692C15.3037 12.9192 15.6037 13.1792 16.0537 13.1792H16.3937C17.5537 13.1792 18.1937 13.8192 18.1937 15.0092C18.1937 15.9592 17.6937 16.7592 16.6837 16.7592C15.6837 16.7592 15.2437 16.0892 15.0637 15.4592C14.9437 15.0292 14.6537 14.7892 14.2037 14.7892C13.6737 14.7892 13.3137 15.1192 13.3137 15.6592C13.3137 15.8992 13.3537 16.1492 13.4237 16.3692C13.8237 17.6392 15.2037 18.3492 16.6837 18.3492ZM8.2437 16.7592C7.1237 16.7592 6.7037 14.9392 6.7037 12.5792C6.7037 10.1992 7.1237 8.3792 8.2437 8.3792C9.3637 8.3792 9.7937 10.1992 9.7937 12.5792C9.7937 14.9392 9.3637 16.7592 8.2437 16.7592Z"
        fillRule="evenodd"
        clipRule="evenodd"
    />
</svg>
        