
<svg
    viewBox="0 0 25.169921875 25.169921875"
    xmlns="http://www.w3.org/2000/svg"
>
    <path
        fill="inherit"
        d="M4.2937 25.1692H20.8737C23.7437 25.1692 25.1737 23.7592 25.1737 20.9492V4.2392C25.1737 1.4192 23.7437 -0.0008 20.8737 -0.0008H4.2937C1.4337 -0.0008 0.0037 1.4192 0.0037 4.2392V20.9492C0.0037 23.7592 1.4337 25.1692 4.2937 25.1692ZM8.1037 18.5692C5.2937 18.5692 4.4537 15.4192 4.4537 12.5792C4.4537 9.7392 5.2937 6.5892 8.1037 6.5892C10.9237 6.5892 11.7737 9.7392 11.7737 12.5792C11.7737 15.4192 10.9237 18.5692 8.1037 18.5692ZM16.8137 18.5292C15.3037 18.5292 13.8637 17.7992 13.4537 16.4892C13.3837 16.2592 13.3437 16.0092 13.3437 15.7492C13.3437 15.1992 13.7137 14.8592 14.2637 14.8592C14.7337 14.8592 15.0237 15.0892 15.1637 15.5592C15.3437 16.1992 15.7937 16.8892 16.8137 16.8892C17.8537 16.8892 18.3737 16.0492 18.3737 15.0892C18.3737 13.8592 17.7237 13.2092 16.5137 13.2092H16.1737C15.7137 13.2092 15.3937 12.9292 15.3937 12.4692C15.3937 11.9992 15.6937 11.6992 16.1737 11.6992H16.5037C17.5537 11.6992 18.1437 10.9492 18.1437 9.9292C18.1437 8.9992 17.6937 8.2892 16.7637 8.2892C15.9737 8.2892 15.5137 8.8092 15.3037 9.6392C15.1637 10.1292 14.8937 10.3092 14.3937 10.3092C13.8337 10.3092 13.5237 9.9392 13.5237 9.4792C13.5237 9.2392 13.5537 8.9792 13.6437 8.7092C14.0437 7.4692 15.3137 6.6492 16.7637 6.6492C18.5937 6.6492 20.0737 7.7492 20.0737 9.7092C20.0737 10.8792 19.4437 12.0292 18.1537 12.3692V12.4092C19.3437 12.5392 20.3937 13.3992 20.3937 15.1492C20.3937 17.2492 18.8437 18.5292 16.8137 18.5292ZM8.1037 16.8892C9.2537 16.8892 9.6937 15.0292 9.6937 12.5792C9.6937 10.1192 9.2537 8.2692 8.1037 8.2692C6.9637 8.2692 6.5237 10.1192 6.5237 12.5792C6.5237 15.0292 6.9637 16.8892 8.1037 16.8892Z"
        fillRule="evenodd"
        clipRule="evenodd"
    />
</svg>
        