<svg viewBox="0 0 27.890625 27.890625" xmlns="http://www.w3.org/2000/svg"><path d="M13.9427 27.8864C21.6427 27.8864 27.8927 21.6264 27.8927 13.9464C27.8927 6.2464 21.6427 -0.0036 13.9427 -0.0036C6.2627 -0.0036 0.0027 6.2464 0.0027 13.9464C0.0027 21.6264 6.2627 27.8864 13.9427 27.8864ZM9.4427 19.9364C6.6127 19.9364 5.7827 16.7864 5.7827 13.9464C5.7827 11.1064 6.6127 7.9564 9.4427 7.9564C12.2527 7.9564 13.0827 11.1064 13.0827 13.9464C13.0827 16.7864 12.2527 19.9364 9.4427 19.9364ZM19.9027 19.8264C19.4527 19.8264 18.9327 19.5664 18.9327 18.8264V17.4164H15.7727C15.0927 17.4164 14.6127 16.9564 14.6127 16.2664C14.6127 15.8364 14.7127 15.4664 14.9327 14.9164L17.4427 9.4464C17.8427 8.5764 18.3027 8.0664 19.3227 8.0664C20.2327 8.0664 20.8727 8.6164 20.8727 9.5964V15.7764H21.3827C21.9427 15.7764 22.1927 16.1364 22.1927 16.5864C22.1927 17.0664 21.9127 17.4164 21.3827 17.4164H20.8727V18.8264C20.8727 19.4964 20.4427 19.8264 19.9027 19.8264ZM9.4427 18.2564C10.5827 18.2564 11.0227 16.3964 11.0227 13.9464C11.0227 11.4864 10.5827 9.6364 9.4427 9.6364C8.3027 9.6364 7.8627 11.4864 7.8627 13.9464C7.8627 16.3964 8.3027 18.2564 9.4427 18.2564ZM18.9727 15.8164V9.8464H18.9227L16.3627 15.7264V15.8164Z" /></svg>