
<svg
    viewBox="0 0 27.890625 27.890625"
    xmlns="http://www.w3.org/2000/svg"
>
    <path
        fill="inherit"
        d="M13.9427 27.8864C21.6427 27.8864 27.8927 21.6464 27.8927 13.9464C27.8927 6.2464 21.6427 -0.0036 13.9427 -0.0036C6.2527 -0.0036 0.0027 6.2464 0.0027 13.9464C0.0027 21.6464 6.2527 27.8864 13.9427 27.8864ZM13.9427 25.5664C7.5227 25.5664 2.3227 20.3664 2.3227 13.9464C2.3227 7.5164 7.5227 2.3264 13.9427 2.3264C20.3727 2.3264 25.5627 7.5164 25.5627 13.9464C25.5627 20.3664 20.3727 25.5664 13.9427 25.5664ZM9.5727 19.7564C12.2927 19.7564 13.0927 16.6964 13.0927 13.9464C13.0927 11.1964 12.2927 8.1364 9.5727 8.1364C6.8327 8.1364 6.0327 11.1964 6.0327 13.9464C6.0327 16.6964 6.8327 19.7564 9.5727 19.7564ZM19.7127 19.6464C20.2227 19.6464 20.6427 19.3364 20.6427 18.6764V17.3064H21.1327C21.6527 17.3064 21.9127 16.9664 21.9127 16.5064C21.9127 16.0664 21.6827 15.7264 21.1327 15.7264H20.6427V9.7164C20.6427 8.7764 20.0327 8.2464 19.1427 8.2464C18.1727 8.2464 17.7227 8.7364 17.3327 9.5864L14.8927 14.8864C14.6727 15.4264 14.5927 15.7764 14.5927 16.1964C14.5927 16.8564 15.0427 17.3064 15.7127 17.3064H18.7727V18.6764C18.7727 19.3964 19.2727 19.6464 19.7127 19.6464ZM9.5727 18.1264C8.4527 18.1264 8.0227 16.3064 8.0227 13.9464C8.0227 11.5664 8.4527 9.7464 9.5727 9.7464C10.6827 9.7464 11.1027 11.5664 11.1027 13.9464C11.1027 16.3064 10.6827 18.1264 9.5727 18.1264ZM18.8127 15.7664H16.2727V15.6664L18.7627 9.9664H18.8127Z"
        fillRule="evenodd"
        clipRule="evenodd"
    />
</svg>
        