
<svg
    viewBox="0 0 25.169921875 25.169921875"
    xmlns="http://www.w3.org/2000/svg"
>
    <path
        fill="inherit"
        d="M4.2937 25.1692H20.8737C23.7437 25.1692 25.1737 23.7592 25.1737 20.9492V4.2392C25.1737 1.4192 23.7437 -0.0008 20.8737 -0.0008H4.2937C1.4337 -0.0008 0.0037 1.4192 0.0037 4.2392V20.9492C0.0037 23.7592 1.4337 25.1692 4.2937 25.1692ZM4.3237 22.9692C2.9537 22.9692 2.2037 22.2392 2.2037 20.8192V4.3592C2.2037 2.9392 2.9537 2.1992 4.3237 2.1992H20.8537C22.2037 2.1992 22.9737 2.9392 22.9737 4.3592V20.8192C22.9737 22.2392 22.2037 22.9692 20.8537 22.9692ZM8.2337 18.3892C10.9537 18.3892 11.7537 15.3292 11.7537 12.5792C11.7537 9.8292 10.9537 6.7692 8.2337 6.7692C5.4937 6.7692 4.6937 9.8292 4.6937 12.5792C4.6937 15.3292 5.4937 18.3892 8.2337 18.3892ZM18.3737 18.2792C18.8937 18.2792 19.3037 17.9692 19.3037 17.3092V15.9392H19.7937C20.3337 15.9392 20.5737 15.5992 20.5737 15.1392C20.5737 14.6992 20.3437 14.3592 19.7937 14.3592H19.3037V8.3492C19.3037 7.4092 18.6937 6.8792 17.8037 6.8792C16.8337 6.8792 16.3837 7.3692 15.9937 8.2192L13.5537 13.5192C13.3337 14.0592 13.2437 14.4092 13.2437 14.8292C13.2437 15.4892 13.7037 15.9392 14.3737 15.9392H17.4337V17.3092C17.4337 18.0292 17.9337 18.2792 18.3737 18.2792ZM8.2337 16.7592C7.1137 16.7592 6.6837 14.9392 6.6837 12.5792C6.6837 10.1992 7.1137 8.3792 8.2337 8.3792C9.3537 8.3792 9.7737 10.1992 9.7737 12.5792C9.7737 14.9392 9.3537 16.7592 8.2337 16.7592ZM17.4737 14.3992H14.9337V14.2992L17.4137 8.5992H17.4737Z"
        fillRule="evenodd"
        clipRule="evenodd"
    />
</svg>
        