<svg viewBox="0 0 27.890625 27.890625" xmlns="http://www.w3.org/2000/svg"><path d="M13.9427 27.8864C21.6427 27.8864 27.8927 21.6264 27.8927 13.9464C27.8927 6.2464 21.6427 -0.0036 13.9427 -0.0036C6.2627 -0.0036 0.0027 6.2464 0.0027 13.9464C0.0027 21.6264 6.2627 27.8864 13.9427 27.8864ZM9.5327 19.9364C6.7227 19.9364 5.8827 16.7864 5.8827 13.9464C5.8827 11.1064 6.7227 7.9564 9.5327 7.9564C12.3427 7.9564 13.1927 11.1064 13.1927 13.9464C13.1927 16.7864 12.3427 19.9364 9.5327 19.9364ZM18.2527 19.9364C16.9827 19.9364 15.7327 19.1964 15.2327 18.0464C15.1027 17.7764 15.0227 17.4564 15.0227 17.1264C15.0227 16.6064 15.3627 16.2864 15.8727 16.2864C16.2527 16.2864 16.5727 16.5064 16.7327 16.9564C16.9927 17.7164 17.4427 18.2764 18.2227 18.2764C19.2627 18.2764 19.6727 17.0864 19.6727 15.9164C19.6727 14.8764 19.2727 13.6264 18.2527 13.6264C17.6827 13.6264 17.3227 13.9564 17.0127 14.4264C16.7027 14.8064 16.4927 14.9564 16.1027 14.9564C15.4527 14.9564 15.1727 14.4764 15.1727 13.9464C15.1727 13.7564 15.1727 13.5364 15.1927 13.3164L15.4327 9.4564C15.4727 8.7364 15.8227 8.2464 16.5427 8.2464H20.4227C20.8927 8.2464 21.2227 8.6164 21.2227 9.0764C21.2227 9.5864 20.9027 9.9264 20.4227 9.9264H17.1127L16.9027 13.3464H16.9527C17.3127 12.5264 18.0727 12.1364 18.9127 12.1364C20.7227 12.1364 21.6527 13.9164 21.6527 15.8564C21.6527 18.0864 20.4527 19.9364 18.2527 19.9364ZM9.5327 18.2564C10.6827 18.2564 11.1127 16.3964 11.1127 13.9464C11.1127 11.4864 10.6827 9.6364 9.5327 9.6364C8.3827 9.6364 7.9427 11.4864 7.9427 13.9464C7.9427 16.3964 8.3827 18.2564 9.5327 18.2564Z" /></svg>