<svg viewBox="0 0 25.169921875 25.169921875" xmlns="http://www.w3.org/2000/svg"><path d="M4.2937 25.1692H20.8737C23.7437 25.1692 25.1737 23.7592 25.1737 20.9492V4.2392C25.1737 1.4192 23.7437 -0.0008 20.8737 -0.0008H4.2937C1.4337 -0.0008 0.0037 1.4192 0.0037 4.2392V20.9492C0.0037 23.7592 1.4337 25.1692 4.2937 25.1692ZM8.1737 18.5692C5.3737 18.5692 4.5237 15.4192 4.5237 12.5792C4.5237 9.7392 5.3737 6.5892 8.1737 6.5892C10.9937 6.5892 11.8437 9.7392 11.8437 12.5792C11.8437 15.4192 10.9937 18.5692 8.1737 18.5692ZM16.8937 18.5692C15.6237 18.5692 14.3837 17.8292 13.8737 16.6792C13.7537 16.4092 13.6737 16.0892 13.6737 15.7592C13.6737 15.2392 14.0137 14.9192 14.5237 14.9192C14.9037 14.9192 15.2137 15.1392 15.3837 15.5892C15.6437 16.3492 16.0937 16.9092 16.8737 16.9092C17.9137 16.9092 18.3237 15.7192 18.3237 14.5492C18.3237 13.5092 17.9237 12.2592 16.8937 12.2592C16.3237 12.2592 15.9737 12.5892 15.6537 13.0592C15.3537 13.4392 15.1337 13.5892 14.7637 13.5892C14.0937 13.5892 13.8237 13.1092 13.8237 12.5792C13.8237 12.3892 13.8237 12.1692 13.8537 11.9492L14.0837 8.0892C14.1237 7.3692 14.4637 6.8792 15.1937 6.8792H19.0737C19.5337 6.8792 19.8637 7.2492 19.8637 7.7092C19.8637 8.2192 19.5537 8.5592 19.0737 8.5592H15.7637L15.5437 11.9792H15.6037C15.9537 11.1592 16.7337 10.7692 17.5537 10.7692C19.3737 10.7692 20.3037 12.5492 20.3037 14.4892C20.3037 16.7192 19.1037 18.5692 16.8937 18.5692ZM8.1737 16.8892C9.3237 16.8892 9.7637 15.0292 9.7637 12.5792C9.7637 10.1192 9.3237 8.2692 8.1737 8.2692C7.0237 8.2692 6.5937 10.1192 6.5937 12.5792C6.5937 15.0292 7.0237 16.8892 8.1737 16.8892Z" /></svg>