
<svg
    viewBox={0 0 27.890625 27.890625}
    xmlns="http://www.w3.org/2000/svg"
>
    <path
        fill="inherit"
        d="M13.9427 27.8864C21.6427 27.8864 27.8927 21.6464 27.8927 13.9464C27.8927 6.2464 21.6427 -0.0036 13.9427 -0.0036C6.2527 -0.0036 0.0027 6.2464 0.0027 13.9464C0.0027 21.6464 6.2527 27.8864 13.9427 27.8864ZM13.9427 25.5664C7.5227 25.5664 2.3227 20.3664 2.3227 13.9464C2.3227 7.5164 7.5227 2.3264 13.9427 2.3264C20.3727 2.3264 25.5627 7.5164 25.5627 13.9464C25.5627 20.3664 20.3727 25.5664 13.9427 25.5664ZM9.4327 19.7564C12.1527 19.7564 12.9727 16.6964 12.9727 13.9464C12.9727 11.1964 12.1527 8.1364 9.4327 8.1364C6.7027 8.1364 5.8927 11.1964 5.8927 13.9464C5.8927 16.6964 6.7027 19.7564 9.4327 19.7564ZM18.1527 19.7564C20.2527 19.7564 21.4527 18.0064 21.4527 15.8564C21.4527 14.0164 20.5527 12.2664 18.7427 12.2664C17.6327 12.2664 16.7927 13.0064 16.4927 14.1764H16.4327V14.0264C16.4327 12.5064 16.6127 9.7664 18.1427 9.7664C18.7627 9.7664 19.1727 10.1964 19.4127 10.7764C19.6027 11.1964 19.8627 11.3864 20.3027 11.3864C20.8527 11.3864 21.0927 11.0164 21.0927 10.5664C21.0927 10.4164 21.0727 10.2564 21.0227 10.0764C20.7427 8.8964 19.5527 8.1664 18.1827 8.1664C15.3827 8.1664 14.5627 11.3064 14.5627 14.0864C14.5627 16.6664 15.3927 19.7564 18.1527 19.7564ZM9.4327 18.1264C8.3127 18.1264 7.8927 16.3064 7.8927 13.9464C7.8927 11.5664 8.3127 9.7464 9.4327 9.7464C10.5527 9.7464 10.9827 11.5664 10.9827 13.9464C10.9827 16.3064 10.5527 18.1264 9.4327 18.1264ZM18.1327 18.1564C17.1027 18.1564 16.6927 16.8664 16.6927 15.8864C16.6927 14.8864 17.1427 13.7564 18.1327 13.7564C19.1427 13.7564 19.5627 14.9264 19.5327 15.9364C19.5327 16.9364 19.0827 18.1564 18.1327 18.1564Z"
        fillRule="evenodd"
        clipRule="evenodd"
    />
</svg>
        