
<svg
    viewBox="0 0 27.890625 27.890625"
    xmlns="http://www.w3.org/2000/svg"
>
    <path
        fill="inherit"
        d="M13.9427 27.8864C21.6427 27.8864 27.8927 21.6264 27.8927 13.9464C27.8927 6.2464 21.6427 -0.0036 13.9427 -0.0036C6.2627 -0.0036 0.0027 6.2464 0.0027 13.9464C0.0027 21.6264 6.2627 27.8864 13.9427 27.8864ZM9.3127 19.9364C6.4927 19.9364 5.6627 16.7864 5.6627 13.9464C5.6627 11.1064 6.4927 7.9564 9.3127 7.9564C12.1127 7.9564 12.9627 11.1064 12.9627 13.9464C12.9627 16.7864 12.1127 19.9364 9.3127 19.9364ZM18.3227 19.9364C15.4627 19.9364 14.6027 16.7464 14.6027 14.0864C14.6027 11.2264 15.4527 7.9864 18.3427 7.9864C19.7527 7.9864 20.9827 8.7364 21.2727 9.9564C21.3327 10.1264 21.3527 10.3064 21.3527 10.4564C21.3527 10.9264 21.0927 11.3064 20.5227 11.3064C20.0727 11.3064 19.8127 11.1164 19.6027 10.6764C19.3627 10.0864 18.9327 9.6364 18.3027 9.6364C16.7227 9.6364 16.5427 12.4664 16.5427 14.0264V14.1764H16.5927C16.9127 12.9764 17.7827 12.2064 18.9227 12.2064C20.7827 12.2064 21.7127 14.0164 21.7127 15.9164C21.7127 18.1264 20.4827 19.9364 18.3227 19.9364ZM9.3127 18.2564C10.4627 18.2564 10.8927 16.3964 10.8927 13.9464C10.8927 11.4864 10.4627 9.6364 9.3127 9.6364C8.1627 9.6364 7.7227 11.4864 7.7227 13.9464C7.7227 16.3964 8.1627 18.2564 9.3127 18.2564ZM18.2927 18.2764C19.2627 18.2764 19.7327 17.0364 19.7327 16.0064C19.7527 14.9664 19.3327 13.7564 18.2927 13.7564C17.2827 13.7564 16.8127 14.9164 16.8127 15.9564C16.8127 16.9564 17.2227 18.2764 18.2927 18.2764Z"
        fillRule="evenodd"
        clipRule="evenodd"
    />
</svg>
        