<svg viewBox="0 0 25.169921875 25.169921875" xmlns="http://www.w3.org/2000/svg"><path d="M4.2937 25.1692H20.8737C23.7437 25.1692 25.1737 23.7592 25.1737 20.9492V4.2392C25.1737 1.4192 23.7437 -0.0008 20.8737 -0.0008H4.2937C1.4337 -0.0008 0.0037 1.4192 0.0037 4.2392V20.9492C0.0037 23.7592 1.4337 25.1692 4.2937 25.1692ZM7.9537 18.5692C5.1537 18.5692 4.3037 15.4192 4.3037 12.5792C4.3037 9.7392 5.1537 6.5892 7.9537 6.5892C10.7637 6.5892 11.6037 9.7392 11.6037 12.5792C11.6037 15.4192 10.7637 18.5692 7.9537 18.5692ZM16.9837 18.5692C14.1137 18.5692 13.2437 15.3792 13.2437 12.7192C13.2437 9.8592 14.0937 6.6192 16.9937 6.6192C18.4037 6.6192 19.6337 7.3692 19.9237 8.5892C19.9737 8.7592 20.0037 8.9392 20.0037 9.0892C20.0037 9.5592 19.7537 9.9392 19.1637 9.9392C18.7137 9.9392 18.4537 9.7492 18.2537 9.3092C18.0237 8.7192 17.5837 8.2692 16.9537 8.2692C15.3837 8.2692 15.1937 11.0992 15.1937 12.6592V12.8092H15.2437C15.5737 11.6092 16.4337 10.8392 17.5637 10.8392C19.4437 10.8392 20.3537 12.6492 20.3537 14.5492C20.3537 16.7592 19.1237 18.5692 16.9837 18.5692ZM7.9537 16.8892C9.1037 16.8892 9.5437 15.0292 9.5437 12.5792C9.5437 10.1192 9.1037 8.2692 7.9537 8.2692C6.8037 8.2692 6.3737 10.1192 6.3737 12.5792C6.3737 15.0292 6.8037 16.8892 7.9537 16.8892ZM16.9537 16.9092C17.9137 16.9092 18.3737 15.6692 18.3737 14.6392C18.4037 13.5992 17.9737 12.3892 16.9437 12.3892C15.9237 12.3892 15.4637 13.5492 15.4637 14.5892C15.4637 15.5892 15.8737 16.9092 16.9537 16.9092Z" /></svg>