
<svg
    viewBox={0 0 25.169921875 25.169921875}
    xmlns="http://www.w3.org/2000/svg"
>
    <path
        fill="inherit"
        d="M4.2937 25.1692H20.8737C23.7437 25.1692 25.1737 23.7592 25.1737 20.9492V4.2392C25.1737 1.4192 23.7437 -0.0008 20.8737 -0.0008H4.2937C1.4337 -0.0008 0.0037 1.4192 0.0037 4.2392V20.9492C0.0037 23.7592 1.4337 25.1692 4.2937 25.1692ZM4.3237 22.9692C2.9537 22.9692 2.2037 22.2392 2.2037 20.8192V4.3592C2.2037 2.9392 2.9537 2.1992 4.3237 2.1992H20.8537C22.2037 2.1992 22.9737 2.9392 22.9737 4.3592V20.8192C22.9737 22.2392 22.2037 22.9692 20.8537 22.9692ZM8.0937 18.3892C10.8137 18.3892 11.6337 15.3292 11.6337 12.5792C11.6337 9.8292 10.8137 6.7692 8.0937 6.7692C5.3737 6.7692 4.5537 9.8292 4.5537 12.5792C4.5537 15.3292 5.3737 18.3892 8.0937 18.3892ZM16.8337 18.3892C18.9037 18.3892 20.1137 16.6392 20.1137 14.4892C20.1137 12.6492 19.2237 10.8992 17.4037 10.8992C16.2937 10.8992 15.4637 11.6392 15.1437 12.8092H15.0937V12.6592C15.0937 11.1392 15.2837 8.3992 16.8037 8.3992C17.4137 8.3992 17.8437 8.8292 18.0737 9.4092C18.2637 9.8292 18.5237 10.0192 18.9637 10.0192C19.5237 10.0192 19.7537 9.6492 19.7537 9.1992C19.7537 9.0492 19.7237 8.8892 19.6837 8.7092C19.4037 7.5292 18.2137 6.7992 16.8437 6.7992C14.0437 6.7992 13.2237 9.9392 13.2237 12.7192C13.2237 15.2992 14.0537 18.3892 16.8337 18.3892ZM8.0937 16.7592C6.9737 16.7592 6.5537 14.9392 6.5537 12.5792C6.5537 10.1992 6.9737 8.3792 8.0937 8.3792C9.2137 8.3792 9.6437 10.1992 9.6437 12.5792C9.6437 14.9392 9.2137 16.7592 8.0937 16.7592ZM16.8037 16.7892C15.7637 16.7892 15.3537 15.4992 15.3537 14.5192C15.3537 13.5192 15.8037 12.3892 16.7937 12.3892C17.8037 12.3892 18.2237 13.5592 18.1937 14.5692C18.1937 15.5692 17.7437 16.7892 16.8037 16.7892Z"
        fillRule="evenodd"
        clipRule="evenodd"
    />
</svg>
        