
<svg
    viewBox="0 0 27.890625 27.890625"
    xmlns="http://www.w3.org/2000/svg"
>
    <path
        fill="inherit"
        d="M13.9427 27.8864C21.6427 27.8864 27.8927 21.6464 27.8927 13.9464C27.8927 6.2464 21.6427 -0.0036 13.9427 -0.0036C6.2527 -0.0036 0.0027 6.2464 0.0027 13.9464C0.0027 21.6464 6.2527 27.8864 13.9427 27.8864ZM13.9427 25.5664C7.5227 25.5664 2.3227 20.3664 2.3227 13.9464C2.3227 7.5164 7.5227 2.3264 13.9427 2.3264C20.3727 2.3264 25.5627 7.5164 25.5627 13.9464C25.5627 20.3664 20.3727 25.5664 13.9427 25.5664ZM10.1327 19.7564C12.8527 19.7564 13.6727 16.6964 13.6727 13.9464C13.6727 11.1964 12.8527 8.1364 10.1327 8.1364C7.3927 8.1364 6.5927 11.1964 6.5927 13.9464C6.5927 16.6964 7.3927 19.7564 10.1327 19.7564ZM16.7927 19.6564C17.2827 19.6564 17.5127 19.4564 17.6927 18.9664L20.8227 10.6264C20.9727 10.1964 21.0727 9.8664 21.0727 9.4764C21.0727 8.8464 20.5927 8.4264 19.9927 8.4264H15.5627C15.0927 8.4264 14.7827 8.7664 14.7827 9.2264C14.7827 9.6964 15.0927 10.0364 15.5627 10.0364H19.0727V10.1564L16.0527 18.0064C15.9327 18.3064 15.8827 18.4864 15.8827 18.8164C15.8827 19.2064 16.1327 19.6564 16.7927 19.6564ZM10.1327 18.1264C9.0127 18.1264 8.5827 16.3064 8.5827 13.9464C8.5827 11.5664 9.0127 9.7464 10.1327 9.7464C11.2527 9.7464 11.6727 11.5664 11.6727 13.9464C11.6727 16.3064 11.2527 18.1264 10.1327 18.1264Z"
        fillRule="evenodd"
        clipRule="evenodd"
    />
</svg>
        