
<svg
    viewBox={0 0 27.890625 27.890625}
    xmlns="http://www.w3.org/2000/svg"
>
    <path
        fill="inherit"
        d="M13.9427 27.8864C21.6427 27.8864 27.8927 21.6264 27.8927 13.9464C27.8927 6.2464 21.6427 -0.0036 13.9427 -0.0036C6.2627 -0.0036 0.0027 6.2464 0.0027 13.9464C0.0027 21.6264 6.2627 27.8864 13.9427 27.8864ZM10.0227 19.9364C7.2027 19.9364 6.3727 16.7864 6.3727 13.9464C6.3727 11.1064 7.2027 7.9564 10.0227 7.9564C12.8427 7.9564 13.6827 11.1064 13.6827 13.9464C13.6827 16.7864 12.8427 19.9364 10.0227 19.9364ZM16.9027 19.8364C16.2127 19.8364 15.9727 19.3764 15.9727 18.9664C15.9727 18.6164 16.0127 18.4464 16.1327 18.1264L19.2527 10.0464V9.9264H15.6227C15.1527 9.9264 14.8227 9.5664 14.8227 9.0764C14.8227 8.5964 15.1527 8.2464 15.6227 8.2464H20.1927C20.8227 8.2464 21.3127 8.6864 21.3127 9.3364C21.3127 9.7464 21.2227 10.0864 21.0527 10.5264L17.8427 19.1164C17.6527 19.6364 17.4227 19.8364 16.9027 19.8364ZM10.0227 18.2564C11.1727 18.2564 11.6027 16.3964 11.6027 13.9464C11.6027 11.4864 11.1727 9.6364 10.0227 9.6364C8.8727 9.6364 8.4327 11.4864 8.4327 13.9464C8.4327 16.3964 8.8727 18.2564 10.0227 18.2564Z"
        fillRule="evenodd"
        clipRule="evenodd"
    />
</svg>
        