<svg viewBox="0 0 25.169921875 25.169921875" xmlns="http://www.w3.org/2000/svg"><path d="M4.2937 25.1692H20.8737C23.7437 25.1692 25.1737 23.7592 25.1737 20.9492V4.2392C25.1737 1.4192 23.7437 -0.0008 20.8737 -0.0008H4.2937C1.4337 -0.0008 0.0037 1.4192 0.0037 4.2392V20.9492C0.0037 23.7592 1.4337 25.1692 4.2937 25.1692ZM4.3237 22.9692C2.9537 22.9692 2.2037 22.2392 2.2037 20.8192V4.3592C2.2037 2.9392 2.9537 2.1992 4.3237 2.1992H20.8537C22.2037 2.1992 22.9737 2.9392 22.9737 4.3592V20.8192C22.9737 22.2392 22.2037 22.9692 20.8537 22.9692ZM8.7937 18.3892C11.5137 18.3892 12.3337 15.3292 12.3337 12.5792C12.3337 9.8292 11.5137 6.7692 8.7937 6.7692C6.0737 6.7692 5.2537 9.8292 5.2537 12.5792C5.2537 15.3292 6.0737 18.3892 8.7937 18.3892ZM15.4537 18.2892C15.9437 18.2892 16.1737 18.0892 16.3537 17.5992L19.4837 9.2592C19.6337 8.8292 19.7237 8.4992 19.7237 8.1092C19.7237 7.4792 19.2537 7.0592 18.6437 7.0592H14.2337C13.7537 7.0592 13.4437 7.3992 13.4437 7.8592C13.4437 8.3292 13.7537 8.6692 14.2337 8.6692H17.7437V8.7892L14.7137 16.6392C14.5837 16.9392 14.5437 17.1192 14.5437 17.4492C14.5437 17.8392 14.7937 18.2892 15.4537 18.2892ZM8.7937 16.7592C7.6737 16.7592 7.2437 14.9392 7.2437 12.5792C7.2437 10.1992 7.6737 8.3792 8.7937 8.3792C9.9137 8.3792 10.3337 10.1992 10.3337 12.5792C10.3337 14.9392 9.9137 16.7592 8.7937 16.7592Z" /></svg>