
<svg
    viewBox="0 0 25.169921875 25.169921875"
    xmlns="http://www.w3.org/2000/svg"
>
    <path
        fill="inherit"
        d="M4.2937 25.1692H20.8737C23.7437 25.1692 25.1737 23.7592 25.1737 20.9492V4.2392C25.1737 1.4192 23.7437 -0.0008 20.8737 -0.0008H4.2937C1.4337 -0.0008 0.0037 1.4192 0.0037 4.2392V20.9492C0.0037 23.7592 1.4337 25.1692 4.2937 25.1692ZM8.6637 18.5692C5.8637 18.5692 5.0137 15.4192 5.0137 12.5792C5.0137 9.7392 5.8637 6.5892 8.6637 6.5892C11.4837 6.5892 12.3337 9.7392 12.3337 12.5792C12.3337 15.4192 11.4837 18.5692 8.6637 18.5692ZM15.5437 18.4692C14.8637 18.4692 14.6137 18.0092 14.6137 17.5992C14.6137 17.2492 14.6537 17.0792 14.7837 16.7592L17.9137 8.6792V8.5592H14.2837C13.7937 8.5592 13.4637 8.1992 13.4637 7.7092C13.4637 7.2292 13.7937 6.8792 14.2837 6.8792H18.8437C19.4737 6.8792 19.9637 7.3192 19.9637 7.9692C19.9637 8.3792 19.8637 8.7192 19.7037 9.1592L16.4837 17.7492C16.2937 18.2692 16.0637 18.4692 15.5437 18.4692ZM8.6637 16.8892C9.8137 16.8892 10.2537 15.0292 10.2537 12.5792C10.2537 10.1192 9.8137 8.2692 8.6637 8.2692C7.5237 8.2692 7.0837 10.1192 7.0837 12.5792C7.0837 15.0292 7.5237 16.8892 8.6637 16.8892Z"
        fillRule="evenodd"
        clipRule="evenodd"
    />
</svg>
        