
<svg
    viewBox="0 0 27.890625 27.890625"
    xmlns="http://www.w3.org/2000/svg"
>
    <path
        fill="inherit"
        d="M13.9427 27.8864C21.6427 27.8864 27.8927 21.6264 27.8927 13.9464C27.8927 6.2464 21.6427 -0.0036 13.9427 -0.0036C6.2627 -0.0036 0.0027 6.2464 0.0027 13.9464C0.0027 21.6264 6.2627 27.8864 13.9427 27.8864ZM9.4727 19.9364C6.6627 19.9364 5.8127 16.7864 5.8127 13.9464C5.8127 11.1064 6.6627 7.9564 9.4727 7.9564C12.2727 7.9564 13.1227 11.1064 13.1227 13.9464C13.1227 16.7864 12.2727 19.9364 9.4727 19.9364ZM18.3927 19.8964C16.3427 19.8964 14.7527 18.6664 14.7527 16.5664C14.7527 15.0364 15.6727 13.9364 16.8827 13.6564V13.6164C15.9727 13.3464 15.0627 12.4964 15.0627 11.0564C15.0627 9.0764 16.6527 8.0164 18.3927 8.0164C20.4027 8.0164 21.7527 9.2464 21.7527 11.0764C21.7527 12.4164 20.9027 13.3264 19.9627 13.6164V13.6564C21.0827 13.9164 22.0627 15.0264 22.0627 16.5664C22.0627 18.4964 20.6327 19.8964 18.3927 19.8964ZM18.4027 12.9764C19.2927 12.9764 19.7527 12.1964 19.7527 11.2664C19.7527 10.3664 19.3227 9.5264 18.4027 9.5264C17.5227 9.5264 17.0527 10.3664 17.0527 11.2664C17.0527 12.0964 17.5027 12.9764 18.4027 12.9764ZM9.4727 18.2564C10.6227 18.2564 11.0627 16.3964 11.0627 13.9464C11.0627 11.4864 10.6227 9.6364 9.4727 9.6364C8.3227 9.6364 7.8927 11.4864 7.8927 13.9464C7.8927 16.3964 8.3227 18.2564 9.4727 18.2564ZM18.4027 18.3564C19.4327 18.3564 19.9327 17.4564 19.9327 16.4064C19.9327 15.3364 19.4027 14.5064 18.4027 14.5064C17.3727 14.5064 16.8727 15.3964 16.8727 16.4064C16.8727 17.4564 17.3727 18.3564 18.4027 18.3564Z"
        fillRule="evenodd"
        clipRule="evenodd"
    />
</svg>
        