
<svg
    viewBox="0 0 27.890625 27.890625"
    xmlns="http://www.w3.org/2000/svg"
>
    <path
        fill="inherit"
        d="M13.9427 27.8864C21.6427 27.8864 27.8927 21.6464 27.8927 13.9464C27.8927 6.2464 21.6427 -0.0036 13.9427 -0.0036C6.2527 -0.0036 0.0027 6.2464 0.0027 13.9464C0.0027 21.6464 6.2527 27.8864 13.9427 27.8864ZM13.9427 25.5664C7.5227 25.5664 2.3227 20.3664 2.3227 13.9464C2.3227 7.5164 7.5227 2.3264 13.9427 2.3264C20.3727 2.3264 25.5627 7.5164 25.5627 13.9464C25.5627 20.3664 20.3727 25.5664 13.9427 25.5664ZM9.5927 19.7564C12.3227 19.7564 13.1427 16.6964 13.1427 13.9464C13.1427 11.1964 12.3227 8.1364 9.5927 8.1364C6.8727 8.1364 6.0527 11.1964 6.0527 13.9464C6.0527 16.6964 6.8727 19.7564 9.5927 19.7564ZM18.2427 19.7164C20.4127 19.7164 21.7927 18.3564 21.7927 16.4864C21.7927 14.9964 20.8527 13.9164 19.7527 13.6764V13.6264C20.6727 13.3464 21.4927 12.4564 21.4927 11.1564C21.4927 9.3964 20.1827 8.1864 18.2427 8.1864C16.5527 8.1864 15.0227 9.2264 15.0227 11.1464C15.0227 12.5364 15.8827 13.3564 16.7727 13.6264V13.6764C15.6027 13.9364 14.7127 15.0164 14.7127 16.4864C14.7127 18.5164 16.2427 19.7164 18.2427 19.7164ZM18.2527 13.0064C17.3727 13.0064 16.9227 12.1564 16.9227 11.3464C16.9227 10.4764 17.4027 9.6564 18.2527 9.6564C19.1427 9.6564 19.5627 10.4764 19.5627 11.3464C19.5627 12.2464 19.1127 13.0064 18.2527 13.0064ZM9.5927 18.1264C8.4727 18.1264 8.0527 16.3064 8.0527 13.9464C8.0527 11.5664 8.4727 9.7464 9.5927 9.7464C10.7227 9.7464 11.1427 11.5664 11.1427 13.9464C11.1427 16.3064 10.7227 18.1264 9.5927 18.1264ZM18.2527 18.2364C17.2527 18.2364 16.7627 17.3464 16.7627 16.3364C16.7627 15.3564 17.2527 14.4764 18.2527 14.4764C19.2227 14.4764 19.7427 15.2964 19.7427 16.3364C19.7427 17.3464 19.2527 18.2364 18.2527 18.2364Z"
        fillRule="evenodd"
        clipRule="evenodd"
    />
</svg>
        