
<svg
    viewBox="0 0 25.169921875 25.169921875"
    xmlns="http://www.w3.org/2000/svg"
>
    <path
        fill="inherit"
        d="M4.2937 25.1692H20.8737C23.7437 25.1692 25.1737 23.7592 25.1737 20.9492V4.2392C25.1737 1.4192 23.7437 -0.0008 20.8737 -0.0008H4.2937C1.4337 -0.0008 0.0037 1.4192 0.0037 4.2392V20.9492C0.0037 23.7592 1.4337 25.1692 4.2937 25.1692ZM4.3237 22.9692C2.9537 22.9692 2.2037 22.2392 2.2037 20.8192V4.3592C2.2037 2.9392 2.9537 2.1992 4.3237 2.1992H20.8537C22.2037 2.1992 22.9737 2.9392 22.9737 4.3592V20.8192C22.9737 22.2392 22.2037 22.9692 20.8537 22.9692ZM8.2537 18.3892C10.9737 18.3892 11.8037 15.3292 11.8037 12.5792C11.8037 9.8292 10.9737 6.7692 8.2537 6.7692C5.5337 6.7692 4.7137 9.8292 4.7137 12.5792C4.7137 15.3292 5.5337 18.3892 8.2537 18.3892ZM16.9137 18.3492C19.0737 18.3492 20.4537 16.9892 20.4537 15.1192C20.4537 13.6292 19.5137 12.5492 18.4137 12.3092V12.2592C19.3337 11.9792 20.1537 11.0892 20.1537 9.7892C20.1537 8.0292 18.8437 6.8192 16.9137 6.8192C15.2137 6.8192 13.6837 7.8592 13.6837 9.7792C13.6837 11.1692 14.5637 11.9892 15.4337 12.2592V12.3092C14.2637 12.5692 13.3737 13.6492 13.3737 15.1192C13.3737 17.1492 14.9037 18.3492 16.9137 18.3492ZM16.9137 11.6392C16.0337 11.6392 15.5837 10.7892 15.5837 9.9792C15.5837 9.1092 16.0637 8.2892 16.9137 8.2892C17.8037 8.2892 18.2237 9.1092 18.2237 9.9792C18.2237 10.8792 17.7737 11.6392 16.9137 11.6392ZM8.2537 16.7592C7.1337 16.7592 6.7137 14.9392 6.7137 12.5792C6.7137 10.1992 7.1337 8.3792 8.2537 8.3792C9.3837 8.3792 9.8037 10.1992 9.8037 12.5792C9.8037 14.9392 9.3837 16.7592 8.2537 16.7592ZM16.9137 16.8692C15.9137 16.8692 15.4237 15.9792 15.4237 14.9692C15.4237 13.9892 15.9237 13.1092 16.9137 13.1092C17.8837 13.1092 18.4037 13.9292 18.4037 14.9692C18.4037 15.9792 17.9137 16.8692 16.9137 16.8692Z"
        fillRule="evenodd"
        clipRule="evenodd"
    />
</svg>
        