<svg viewBox="0 0 25.169921875 25.169921875" xmlns="http://www.w3.org/2000/svg"><path d="M4.2937 25.1692H20.8737C23.7437 25.1692 25.1737 23.7592 25.1737 20.9492V4.2392C25.1737 1.4192 23.7437 -0.0008 20.8737 -0.0008H4.2937C1.4337 -0.0008 0.0037 1.4192 0.0037 4.2392V20.9492C0.0037 23.7592 1.4337 25.1692 4.2937 25.1692ZM8.1237 18.5692C5.3037 18.5692 4.4537 15.4192 4.4537 12.5792C4.4537 9.7392 5.3037 6.5892 8.1237 6.5892C10.9237 6.5892 11.7737 9.7392 11.7737 12.5792C11.7737 15.4192 10.9237 18.5692 8.1237 18.5692ZM17.0537 18.5292C14.9837 18.5292 13.3937 17.2992 13.3937 15.1992C13.3937 13.6692 14.3137 12.5692 15.5337 12.2892V12.2492C14.6337 11.9792 13.7137 11.1292 13.7137 9.6892C13.7137 7.7092 15.3037 6.6492 17.0537 6.6492C19.0437 6.6492 20.3937 7.8792 20.3937 9.7092C20.3937 11.0492 19.5537 11.9592 18.6037 12.2492V12.2892C19.7237 12.5492 20.7137 13.6592 20.7137 15.1992C20.7137 17.1292 19.2737 18.5292 17.0537 18.5292ZM17.0537 11.6092C17.9337 11.6092 18.4037 10.8292 18.4037 9.8992C18.4037 8.9992 17.9637 8.1592 17.0537 8.1592C16.1737 8.1592 15.6937 8.9992 15.6937 9.8992C15.6937 10.7292 16.1437 11.6092 17.0537 11.6092ZM8.1237 16.8892C9.2737 16.8892 9.7037 15.0292 9.7037 12.5792C9.7037 10.1192 9.2737 8.2692 8.1237 8.2692C6.9737 8.2692 6.5337 10.1192 6.5337 12.5792C6.5337 15.0292 6.9737 16.8892 8.1237 16.8892ZM17.0537 16.9892C18.0737 16.9892 18.5837 16.0892 18.5837 15.0392C18.5837 13.9692 18.0437 13.1392 17.0537 13.1392C16.0337 13.1392 15.5137 14.0292 15.5137 15.0392C15.5137 16.0892 16.0237 16.9892 17.0537 16.9892Z" /></svg>