
<svg
    viewBox="0 0 27.890625 27.890625"
    xmlns="http://www.w3.org/2000/svg"
>
    <path
        fill="inherit"
        d="M13.9427 27.8864C21.6427 27.8864 27.8927 21.6464 27.8927 13.9464C27.8927 6.2464 21.6427 -0.0036 13.9427 -0.0036C6.2527 -0.0036 0.0027 6.2464 0.0027 13.9464C0.0027 21.6464 6.2527 27.8864 13.9427 27.8864ZM13.9427 25.5664C7.5227 25.5664 2.3227 20.3664 2.3227 13.9464C2.3227 7.5164 7.5227 2.3264 13.9427 2.3264C20.3727 2.3264 25.5627 7.5164 25.5627 13.9464C25.5627 20.3664 20.3727 25.5664 13.9427 25.5664ZM9.6827 19.7564C12.4027 19.7564 13.2227 16.6964 13.2227 13.9464C13.2227 11.1964 12.4027 8.1364 9.6827 8.1364C6.9627 8.1364 6.1427 11.1964 6.1427 13.9464C6.1427 16.6964 6.9627 19.7564 9.6827 19.7564ZM17.4427 15.6564C18.5527 15.6564 19.4027 14.9164 19.7127 13.7364H19.7527V13.8864C19.7527 15.4064 19.5827 18.1464 18.0427 18.1464C17.4327 18.1464 17.0227 17.7164 16.7727 17.1264C16.5727 16.6764 16.2927 16.5064 15.9027 16.5064C15.3227 16.5064 15.0827 16.8864 15.0827 17.3364C15.0827 17.4964 15.1027 17.6664 15.1627 17.8264C15.4527 19.0164 16.6427 19.7464 18.0027 19.7464C20.8127 19.7464 21.6327 16.6364 21.6327 13.8364C21.6327 11.2564 20.7927 8.1664 18.0327 8.1664C15.9527 8.1664 14.7527 9.9164 14.7527 12.0564C14.7527 13.9064 15.6427 15.6564 17.4427 15.6564ZM9.6827 18.1264C8.5627 18.1264 8.1327 16.3064 8.1327 13.9464C8.1327 11.5664 8.5627 9.7464 9.6827 9.7464C10.8027 9.7464 11.2227 11.5664 11.2227 13.9464C11.2227 16.3064 10.8027 18.1264 9.6827 18.1264ZM18.0627 14.1464C17.0527 14.1464 16.6427 12.9864 16.6427 11.9764C16.6427 10.9464 17.1027 9.7464 18.0627 9.7464C19.0827 9.7464 19.4927 10.9464 19.4927 11.9764C19.4927 13.0264 19.0427 14.1464 18.0627 14.1464Z"
        fillRule="evenodd"
        clipRule="evenodd"
    />
</svg>
        