
<svg
    viewBox="0 0 27.890625 27.890625"
    xmlns="http://www.w3.org/2000/svg"
>
    <path
        fill="inherit"
        d="M13.9427 27.8864C21.6427 27.8864 27.8927 21.6264 27.8927 13.9464C27.8927 6.2464 21.6427 -0.0036 13.9427 -0.0036C6.2627 -0.0036 0.0027 6.2464 0.0027 13.9464C0.0027 21.6264 6.2627 27.8864 13.9427 27.8864ZM9.5527 19.9364C6.7527 19.9364 5.9027 16.7864 5.9027 13.9464C5.9027 11.1064 6.7527 7.9564 9.5527 7.9564C12.3727 7.9564 13.2227 11.1064 13.2227 13.9464C13.2227 16.7864 12.3727 19.9364 9.5527 19.9364ZM17.5727 15.7064C15.7127 15.7064 14.7927 13.9064 14.7927 12.0064C14.7927 9.7864 16.0327 7.9864 18.1827 7.9864C21.0227 7.9864 21.8927 11.1664 21.8927 13.8364C21.8927 16.7164 21.0427 19.9164 18.1527 19.9164C16.7527 19.9164 15.5127 19.1864 15.2127 17.9464C15.1627 17.7864 15.1327 17.6064 15.1327 17.4464C15.1327 16.9764 15.3827 16.5864 15.9827 16.5864C16.3927 16.5864 16.6827 16.7664 16.8827 17.2264C17.1427 17.8264 17.5727 18.2664 18.1927 18.2664C19.7727 18.2664 19.9427 15.4464 19.9427 13.8864V13.7364H19.9027C19.5927 14.9464 18.7127 15.7064 17.5727 15.7064ZM9.5527 18.2564C10.7027 18.2564 11.1427 16.3964 11.1427 13.9464C11.1427 11.4864 10.7027 9.6364 9.5527 9.6364C8.4127 9.6364 7.9727 11.4864 7.9727 13.9464C7.9727 16.3964 8.4127 18.2564 9.5527 18.2564ZM18.2127 14.1464C19.2227 14.1464 19.6827 13.0064 19.6827 11.9064C19.6827 10.8564 19.2627 9.6364 18.2127 9.6364C17.2227 9.6364 16.7527 10.8564 16.7527 11.9064C16.7527 12.9564 17.1727 14.1464 18.2127 14.1464Z"
        fillRule="evenodd"
        clipRule="evenodd"
    />
</svg>
        