<svg viewBox="0 0 25.169921875 25.169921875" xmlns="http://www.w3.org/2000/svg"><path d="M4.2937 25.1692H20.8737C23.7437 25.1692 25.1737 23.7592 25.1737 20.9492V4.2392C25.1737 1.4192 23.7437 -0.0008 20.8737 -0.0008H4.2937C1.4337 -0.0008 0.0037 1.4192 0.0037 4.2392V20.9492C0.0037 23.7592 1.4337 25.1692 4.2937 25.1692ZM4.3237 22.9692C2.9537 22.9692 2.2037 22.2392 2.2037 20.8192V4.3592C2.2037 2.9392 2.9537 2.1992 4.3237 2.1992H20.8537C22.2037 2.1992 22.9737 2.9392 22.9737 4.3592V20.8192C22.9737 22.2392 22.2037 22.9692 20.8537 22.9692ZM8.3437 18.3892C11.0637 18.3892 11.8837 15.3292 11.8837 12.5792C11.8837 9.8292 11.0637 6.7692 8.3437 6.7692C5.6237 6.7692 4.8037 9.8292 4.8037 12.5792C4.8037 15.3292 5.6237 18.3892 8.3437 18.3892ZM16.1037 14.2892C17.2237 14.2892 18.0637 13.5492 18.3737 12.3692H18.4337V12.5192C18.4337 14.0392 18.2337 16.7792 16.7037 16.7792C16.0937 16.7792 15.6837 16.3492 15.4337 15.7592C15.2337 15.3092 14.9737 15.1392 14.5637 15.1392C13.9837 15.1392 13.7437 15.5192 13.7437 15.9692C13.7437 16.1292 13.7837 16.2992 13.8237 16.4592C14.1137 17.6492 15.3037 18.3792 16.6637 18.3792C19.4737 18.3792 20.2937 15.2692 20.2937 12.4692C20.2937 9.8892 19.4737 6.7992 16.6937 6.7992C14.6137 6.7992 13.4137 8.5492 13.4137 10.6892C13.4137 12.5392 14.3037 14.2892 16.1037 14.2892ZM8.3437 16.7592C7.2237 16.7592 6.7937 14.9392 6.7937 12.5792C6.7937 10.1992 7.2237 8.3792 8.3437 8.3792C9.4637 8.3792 9.8837 10.1992 9.8837 12.5792C9.8837 14.9392 9.4637 16.7592 8.3437 16.7592ZM16.7237 12.7792C15.7137 12.7792 15.3037 11.6192 15.3037 10.6092C15.3037 9.5792 15.7637 8.3792 16.7237 8.3792C17.7437 8.3792 18.1737 9.5792 18.1737 10.6092C18.1737 11.6592 17.7037 12.7792 16.7237 12.7792Z" /></svg>