
<svg
    viewBox="0 0 27.890625 27.890625"
    xmlns="http://www.w3.org/2000/svg"
>
    <path
        fill="inherit"
        d="M13.9427 27.8864C21.6427 27.8864 27.8927 21.6264 27.8927 13.9464C27.8927 6.2464 21.6427 -0.0036 13.9427 -0.0036C6.2627 -0.0036 0.0027 6.2464 0.0027 13.9464C0.0027 21.6264 6.2627 27.8864 13.9427 27.8864ZM14.7127 20.6564C14.0027 20.6564 13.5927 20.1764 13.5927 19.3864V9.6964H13.4927L11.6727 10.8964C11.3427 11.1164 11.1927 11.1464 10.9827 11.1464C10.5227 11.1464 10.1727 10.7364 10.1727 10.2964C10.1727 9.9364 10.3127 9.7364 10.6127 9.5064L13.1527 7.7764C13.7527 7.3664 14.1227 7.2364 14.6527 7.2364C15.4127 7.2364 15.8427 7.6864 15.8427 8.5064V19.3864C15.8427 20.1764 15.4327 20.6564 14.7127 20.6564Z"
        fillRule="evenodd"
        clipRule="evenodd"
    />
</svg>
        