
<svg
    viewBox={0 0 27.890625 27.890625}
    xmlns="http://www.w3.org/2000/svg"
>
    <path
        fill="inherit"
        d="M13.9427 27.8864C21.6427 27.8864 27.8927 21.6464 27.8927 13.9464C27.8927 6.2464 21.6427 -0.0036 13.9427 -0.0036C6.2527 -0.0036 0.0027 6.2464 0.0027 13.9464C0.0027 21.6464 6.2527 27.8864 13.9427 27.8864ZM13.9427 25.5664C7.5227 25.5664 2.3227 20.3664 2.3227 13.9464C2.3227 7.5164 7.5227 2.3264 13.9427 2.3264C20.3727 2.3264 25.5627 7.5164 25.5627 13.9464C25.5627 20.3664 20.3727 25.5664 13.9427 25.5664ZM14.6427 20.4564C15.3427 20.4564 15.7327 19.9864 15.7327 19.2264V8.6664C15.7327 7.8764 15.3127 7.4364 14.5927 7.4364C14.0827 7.4364 13.7227 7.5764 13.1427 7.9664L10.6827 9.6364C10.3727 9.8464 10.2527 10.0664 10.2527 10.4064C10.2527 10.8264 10.5927 11.2264 11.0327 11.2264C11.2427 11.2264 11.3927 11.1864 11.7027 10.9764L13.4627 9.8164H13.5627V19.2264C13.5627 19.9864 13.9627 20.4564 14.6427 20.4564Z"
        fillRule="evenodd"
        clipRule="evenodd"
    />
</svg>
        