
<svg
    viewBox={0 0 25.169921875 20.603515625}
    xmlns="http://www.w3.org/2000/svg"
>
    <path
        fill="inherit"
        d="M0.0037 19.4923C0.0037 20.1023 0.4937 20.6023 1.0937 20.6023C1.7137 20.6023 2.2037 20.1023 2.2037 19.4923V1.0923C2.2037 0.4923 1.7137 0.0023 1.0937 0.0023C0.4937 0.0023 0.0037 0.4923 0.0037 1.0923ZM22.9737 19.4923C22.9737 20.1023 23.4737 20.6023 24.0737 20.6023C24.6737 20.6023 25.1737 20.1023 25.1737 19.4923V1.0923C25.1737 0.4923 24.6737 0.0023 24.0737 0.0023C23.4737 0.0023 22.9737 0.4923 22.9737 1.0923ZM13.2637 16.6823C13.9337 16.6823 14.3437 16.2023 14.3437 15.5323V5.7023C14.3437 4.9223 13.8637 4.4823 13.0937 4.4823C12.4837 4.4823 12.0337 4.7423 11.5437 5.1223L9.7737 6.4223C9.4737 6.6623 9.2837 6.9223 9.2837 7.3023C9.2837 7.7423 9.6137 8.0923 10.0637 8.0923C10.2837 8.0923 10.4337 8.0223 10.6137 7.8923L12.1537 6.7223H12.1837V15.5323C12.1837 16.2123 12.5937 16.6823 13.2637 16.6823Z"
        fillRule="evenodd"
        clipRule="evenodd"
    />
</svg>
        