
<svg
    viewBox="0 0 26.71484375 26.974609375"
    xmlns="http://www.w3.org/2000/svg"
>
    <path
        fill="inherit"
        d="M-0.0045 10.9116C-0.0045 16.9216 4.8955 21.8216 10.9055 21.8216C13.2855 21.8216 15.4655 21.0516 17.2555 19.7716L23.9855 26.5116C24.2955 26.8216 24.7055 26.9716 25.1455 26.9716C26.0755 26.9716 26.7155 26.2816 26.7155 25.3616C26.7155 24.9216 26.5555 24.5316 26.2655 24.2416L19.5755 17.5116C20.9855 15.6816 21.8155 13.4016 21.8155 10.9116C21.8155 4.8916 16.9255 0.0016 10.9055 0.0016C4.8955 0.0016 -0.0045 4.8916 -0.0045 10.9116ZM2.3355 10.9116C2.3355 6.1816 6.1755 2.3416 10.9055 2.3416C15.6455 2.3416 19.4855 6.1816 19.4855 10.9116C19.4855 15.6416 15.6455 19.4816 10.9055 19.4816C6.1755 19.4816 2.3355 15.6416 2.3355 10.9116ZM11.4955 15.9916C12.0555 15.9916 12.4555 15.7516 12.4555 15.1516V6.7516C12.4555 6.1116 12.0355 5.6716 11.3655 5.6716C10.8855 5.6716 10.6055 5.7816 10.0755 6.1516L8.2455 7.4416C7.8755 7.6816 7.7655 7.9016 7.7655 8.2416C7.7655 8.6516 8.1255 8.9816 8.4855 8.9816C8.7455 8.9816 8.8755 8.9016 9.1055 8.7316L10.4555 7.7816H10.5555V15.0116C10.5555 15.6316 10.9355 15.9916 11.4955 15.9916Z"
        fillRule="evenodd"
        clipRule="evenodd"
    />
</svg>
        