
<svg
    viewBox={0 0 25.169921875 25.169921875}
    xmlns="http://www.w3.org/2000/svg"
>
    <path
        fill="inherit"
        d="M4.2937 25.1692H20.8737C23.7437 25.1692 25.1737 23.7592 25.1737 20.9492V4.2392C25.1737 1.4192 23.7437 -0.0008 20.8737 -0.0008H4.2937C1.4337 -0.0008 0.0037 1.4192 0.0037 4.2392V20.9492C0.0037 23.7592 1.4337 25.1692 4.2937 25.1692ZM4.3237 22.9692C2.9537 22.9692 2.2037 22.2392 2.2037 20.8192V4.3592C2.2037 2.9392 2.9537 2.1992 4.3237 2.1992H20.8537C22.2037 2.1992 22.9737 2.9392 22.9737 4.3592V20.8192C22.9737 22.2392 22.2037 22.9692 20.8537 22.9692ZM13.3037 19.0892C14.0037 19.0892 14.4137 18.6192 14.4137 17.8592V7.2992C14.4137 6.5092 13.9837 6.0692 13.2437 6.0692C12.7437 6.0692 12.3837 6.2092 11.8037 6.5992L9.3337 8.2692C9.0337 8.4792 8.9137 8.6992 8.9137 9.0392C8.9137 9.4592 9.2537 9.8592 9.6937 9.8592C9.8937 9.8592 10.0537 9.8192 10.3637 9.6092L12.1237 8.4492H12.2237V17.8592C12.2237 18.6192 12.6237 19.0892 13.3037 19.0892Z"
        fillRule="evenodd"
        clipRule="evenodd"
    />
</svg>
        