
<svg
    viewBox="0 0 25.169921875 25.169921875"
    xmlns="http://www.w3.org/2000/svg"
>
    <path
        fill="inherit"
        d="M4.2937 25.1692H20.8737C23.7437 25.1692 25.1737 23.7592 25.1737 20.9492V4.2392C25.1737 1.4192 23.7437 -0.0008 20.8737 -0.0008H4.2937C1.4337 -0.0008 0.0037 1.4192 0.0037 4.2392V20.9492C0.0037 23.7592 1.4337 25.1692 4.2937 25.1692ZM13.3537 19.2892C12.6437 19.2892 12.2337 18.8092 12.2337 18.0192V8.3292H12.1437L10.3237 9.5292C9.9937 9.7492 9.8437 9.7792 9.6237 9.7792C9.1737 9.7792 8.8137 9.3692 8.8137 8.9292C8.8137 8.5692 8.9537 8.3692 9.2537 8.1392L11.8037 6.4092C12.4037 5.9992 12.7737 5.8692 13.3037 5.8692C14.0637 5.8692 14.5037 6.3192 14.5037 7.1392V18.0192C14.5037 18.8092 14.0837 19.2892 13.3537 19.2892Z"
        fillRule="evenodd"
        clipRule="evenodd"
    />
</svg>
        