
<svg
    viewBox="0 0 27.890625 27.890625"
    xmlns="http://www.w3.org/2000/svg"
>
    <path
        fill="inherit"
        d="M13.9427 27.8864C21.6427 27.8864 27.8927 21.6464 27.8927 13.9464C27.8927 6.2464 21.6427 -0.0036 13.9427 -0.0036C6.2527 -0.0036 0.0027 6.2464 0.0027 13.9464C0.0027 21.6464 6.2527 27.8864 13.9427 27.8864ZM13.9427 25.5664C7.5227 25.5664 2.3227 20.3664 2.3227 13.9464C2.3227 7.5164 7.5227 2.3264 13.9427 2.3264C20.3727 2.3264 25.5627 7.5164 25.5627 13.9464C25.5627 20.3664 20.3727 25.5664 13.9427 25.5664ZM17.0227 19.7564C19.7427 19.7564 20.5627 16.6964 20.5627 13.9464C20.5627 11.1964 19.7427 8.1364 17.0227 8.1364C14.3027 8.1364 13.4827 11.1964 13.4827 13.9464C13.4827 16.6964 14.3027 19.7564 17.0227 19.7564ZM10.3227 19.6164C10.8527 19.6164 11.3027 19.1664 11.3027 18.6164V9.3564C11.3027 8.6564 10.8727 8.2464 10.1727 8.2464C9.5927 8.2464 9.1327 8.5564 8.8027 8.8064L7.3027 9.9664C7.0727 10.1564 6.8727 10.4164 6.8727 10.7764C6.8727 11.1964 7.1627 11.4964 7.5727 11.4964C7.7927 11.4964 7.9327 11.4264 8.0627 11.3364L9.3227 10.3264V18.6164C9.3227 19.1664 9.7727 19.6164 10.3227 19.6164ZM17.0227 18.1264C15.9027 18.1264 15.4727 16.3064 15.4727 13.9464C15.4727 11.5664 15.9027 9.7464 17.0227 9.7464C18.1427 9.7464 18.5627 11.5664 18.5627 13.9464C18.5627 16.3064 18.1427 18.1264 17.0227 18.1264Z"
        fillRule="evenodd"
        clipRule="evenodd"
    />
</svg>
        