<svg viewBox="0 0 25.169921875 20.603515625" xmlns="http://www.w3.org/2000/svg"><path d="M0.0037 19.4923C0.0037 20.1023 0.4937 20.6023 1.0937 20.6023C1.7137 20.6023 2.2037 20.1023 2.2037 19.4923V1.0923C2.2037 0.4923 1.7137 0.0023 1.0937 0.0023C0.4937 0.0023 0.0037 0.4923 0.0037 1.0923ZM22.9737 19.4923C22.9737 20.1023 23.4737 20.6023 24.0737 20.6023C24.6737 20.6023 25.1737 20.1023 25.1737 19.4923V1.0923C25.1737 0.4923 24.6737 0.0023 24.0737 0.0023C23.4737 0.0023 22.9737 0.4923 22.9737 1.0923ZM16.0537 16.3423C18.9037 16.3423 19.9237 13.4023 19.9237 10.5223C19.9237 7.6823 18.9037 4.7723 16.0537 4.7723C13.1937 4.7723 12.1937 7.6923 12.1937 10.5423C12.1937 13.4123 13.2037 16.3423 16.0537 16.3423ZM8.7337 16.2323C9.3637 16.2323 9.7437 15.7923 9.7437 15.1623V6.0023C9.7437 5.2923 9.2937 4.8623 8.5737 4.8623C7.9937 4.8623 7.5837 5.1223 7.1237 5.4723L5.4837 6.6823C5.2137 6.9023 5.0337 7.1323 5.0337 7.4923C5.0337 7.9123 5.3337 8.2323 5.7437 8.2323C5.9437 8.2323 6.0937 8.1723 6.2637 8.0523L7.6937 6.9723H7.7237V15.1623C7.7237 15.7923 8.1037 16.2323 8.7337 16.2323ZM16.0537 14.6923C14.8437 14.6923 14.2337 12.9023 14.2337 10.5423C14.2337 8.1923 14.8437 6.4123 16.0537 6.4123C17.2637 6.4123 17.8737 8.2023 17.8737 10.5423C17.8737 12.9023 17.2637 14.6923 16.0537 14.6923Z" /></svg>