<svg viewBox="0 0 25.169921875 25.169921875" xmlns="http://www.w3.org/2000/svg"><path d="M4.2937 25.1692H20.8737C23.7437 25.1692 25.1737 23.7592 25.1737 20.9492V4.2392C25.1737 1.4192 23.7437 -0.0008 20.8737 -0.0008H4.2937C1.4337 -0.0008 0.0037 1.4192 0.0037 4.2392V20.9492C0.0037 23.7592 1.4337 25.1692 4.2937 25.1692ZM4.3237 22.9692C2.9537 22.9692 2.2037 22.2392 2.2037 20.8192V4.3592C2.2037 2.9392 2.9537 2.1992 4.3237 2.1992H20.8537C22.2037 2.1992 22.9737 2.9392 22.9737 4.3592V20.8192C22.9737 22.2392 22.2037 22.9692 20.8537 22.9692ZM15.6837 18.3892C18.4037 18.3892 19.2237 15.3292 19.2237 12.5792C19.2237 9.8292 18.4037 6.7692 15.6837 6.7692C12.9637 6.7692 12.1437 9.8292 12.1437 12.5792C12.1437 15.3292 12.9637 18.3892 15.6837 18.3892ZM8.9837 18.2492C9.5337 18.2492 9.9837 17.7992 9.9837 17.2492V7.9892C9.9837 7.2892 9.5437 6.8792 8.8337 6.8792C8.2537 6.8792 7.7937 7.1892 7.4637 7.4392L5.9637 8.5992C5.7237 8.7892 5.5337 9.0492 5.5337 9.4092C5.5337 9.8292 5.8237 10.1292 6.2337 10.1292C6.4537 10.1292 6.5937 10.0592 6.7237 9.9692L7.9837 8.9592V17.2492C7.9837 17.7992 8.4337 18.2492 8.9837 18.2492ZM15.6837 16.7592C14.5637 16.7592 14.1337 14.9392 14.1337 12.5792C14.1337 10.1992 14.5637 8.3792 15.6837 8.3792C16.8037 8.3792 17.2237 10.1992 17.2237 12.5792C17.2237 14.9392 16.8037 16.7592 15.6837 16.7592Z" /></svg>