
<svg
    viewBox="0 0 25.169921875 25.169921875"
    xmlns="http://www.w3.org/2000/svg"
>
    <path
        fill="inherit"
        d="M4.2937 25.1692H20.8737C23.7437 25.1692 25.1737 23.7592 25.1737 20.9492V4.2392C25.1737 1.4192 23.7437 -0.0008 20.8737 -0.0008H4.2937C1.4337 -0.0008 0.0037 1.4192 0.0037 4.2392V20.9492C0.0037 23.7592 1.4337 25.1692 4.2937 25.1692ZM15.7937 18.5692C12.9837 18.5692 12.1437 15.4192 12.1437 12.5792C12.1437 9.7392 12.9837 6.5892 15.7937 6.5892C18.5937 6.5892 19.4437 9.7392 19.4437 12.5792C19.4437 15.4192 18.5937 18.5692 15.7937 18.5692ZM8.8737 18.4292C8.3037 18.4292 7.8337 17.9692 7.8337 17.3892V8.8492L6.5537 9.8892C6.3937 9.9892 6.2637 10.0592 6.0337 10.0592C5.6037 10.0592 5.3137 9.7492 5.3137 9.3092C5.3137 8.9392 5.5137 8.6692 5.7537 8.4792L7.3037 7.2692C7.6437 7.0292 8.1237 6.6992 8.7237 6.6992C9.4437 6.6992 9.9137 7.1192 9.9137 7.8492V17.3892C9.9137 17.9692 9.4337 18.4292 8.8737 18.4292ZM15.7937 16.8892C16.9437 16.8892 17.3737 15.0292 17.3737 12.5792C17.3737 10.1192 16.9437 8.2692 15.7937 8.2692C14.6437 8.2692 14.2037 10.1192 14.2037 12.5792C14.2037 15.0292 14.6437 16.8892 15.7937 16.8892Z"
        fillRule="evenodd"
        clipRule="evenodd"
    />
</svg>
        