
<svg
    viewBox="0 0 27.890625 27.890625"
    xmlns="http://www.w3.org/2000/svg"
>
    <path
        fill="inherit"
        d="M13.9427 27.8864C21.6427 27.8864 27.8927 21.6264 27.8927 13.9464C27.8927 6.2464 21.6427 -0.0036 13.9427 -0.0036C6.2627 -0.0036 0.0027 6.2464 0.0027 13.9464C0.0027 21.6264 6.2627 27.8864 13.9427 27.8864ZM11.1527 19.7964C10.5827 19.7964 10.1127 19.3364 10.1127 18.7564V10.2164L8.8227 11.2564C8.6827 11.3564 8.5327 11.4264 8.3227 11.4264C7.8927 11.4264 7.5927 11.1164 7.5927 10.6764C7.5927 10.3064 7.7827 10.0364 8.0427 9.8464L9.5827 8.6364C9.9127 8.3964 10.3927 8.0664 10.9927 8.0664C11.7327 8.0664 12.1827 8.4864 12.1827 9.2164V18.7564C12.1827 19.3364 11.7127 19.7964 11.1527 19.7964ZM17.6627 19.7964C17.0927 19.7964 16.6227 19.3364 16.6227 18.7564V10.2164L15.3227 11.2564C15.1927 11.3564 15.0427 11.4264 14.8227 11.4264C14.3927 11.4264 14.0927 11.1164 14.0927 10.6764C14.0927 10.3064 14.3027 10.0364 14.5427 9.8464L16.0927 8.6364C16.4227 8.3964 16.9027 8.0664 17.5027 8.0664C18.2427 8.0664 18.6927 8.4864 18.6927 9.2164V18.7564C18.6927 19.3364 18.2227 19.7964 17.6627 19.7964Z"
        fillRule="evenodd"
        clipRule="evenodd"
    />
</svg>
        