<svg viewBox="0 0 27.890625 27.890625" xmlns="http://www.w3.org/2000/svg"><path d="M13.9427 27.8864C21.6427 27.8864 27.8927 21.6464 27.8927 13.9464C27.8927 6.2464 21.6427 -0.0036 13.9427 -0.0036C6.2527 -0.0036 0.0027 6.2464 0.0027 13.9464C0.0027 21.6464 6.2527 27.8864 13.9427 27.8864ZM13.9427 25.5664C7.5227 25.5664 2.3227 20.3664 2.3227 13.9464C2.3227 7.5164 7.5227 2.3264 13.9427 2.3264C20.3727 2.3264 25.5627 7.5164 25.5627 13.9464C25.5627 20.3664 20.3727 25.5664 13.9427 25.5664ZM11.2127 19.6164C11.7427 19.6164 12.1927 19.1664 12.1927 18.6164V9.3564C12.1927 8.6564 11.7627 8.2464 11.0427 8.2464C10.4727 8.2464 10.0127 8.5564 9.6927 8.8064L8.1927 9.9664C7.9427 10.1564 7.7527 10.4164 7.7527 10.7764C7.7527 11.1964 8.0427 11.4964 8.4627 11.4964C8.6727 11.4964 8.8027 11.4264 8.9427 11.3364L10.2027 10.3264V18.6164C10.2027 19.1664 10.6527 19.6164 11.2127 19.6164ZM17.5127 19.6164C18.0427 19.6164 18.5027 19.1664 18.5027 18.6164V9.3564C18.5027 8.6564 18.0627 8.2464 17.3527 8.2464C16.7727 8.2464 16.3127 8.5564 15.9927 8.8064L14.4927 9.9664C14.2427 10.1564 14.0527 10.4164 14.0527 10.7764C14.0527 11.1964 14.3427 11.4964 14.7527 11.4964C14.9727 11.4964 15.1027 11.4264 15.2427 11.3364L16.5027 10.3264V18.6164C16.5027 19.1664 16.9527 19.6164 17.5127 19.6164Z" /></svg>