<svg viewBox="0 0 25.169921875 20.603515625" xmlns="http://www.w3.org/2000/svg"><path d="M0.0037 19.4923C0.0037 20.1023 0.4937 20.6023 1.0937 20.6023C1.7137 20.6023 2.2037 20.1023 2.2037 19.4923V1.0923C2.2037 0.4923 1.7137 0.0023 1.0937 0.0023C0.4937 0.0023 0.0037 0.4923 0.0037 1.0923ZM22.9737 19.4923C22.9737 20.1023 23.4737 20.6023 24.0737 20.6023C24.6737 20.6023 25.1737 20.1023 25.1737 19.4923V1.0923C25.1737 0.4923 24.6737 0.0023 24.0737 0.0023C23.4737 0.0023 22.9737 0.4923 22.9737 1.0923ZM10.0037 16.2323C10.6237 16.2323 11.0237 15.7923 11.0237 15.1623V6.0023C11.0237 5.2923 10.5637 4.8623 9.8437 4.8623C9.2737 4.8623 8.8637 5.1223 8.3937 5.4723L6.7537 6.6823C6.4837 6.9023 6.3037 7.1323 6.3037 7.4923C6.3037 7.9123 6.6037 8.2323 7.0137 8.2323C7.2237 8.2323 7.3737 8.1723 7.5337 8.0523L8.9737 6.9723H8.9937V15.1623C8.9937 15.7923 9.3837 16.2323 10.0037 16.2323ZM16.8937 16.2323C17.5137 16.2323 17.8937 15.7923 17.8937 15.1623V6.0023C17.8937 5.2923 17.4637 4.8623 16.7337 4.8623C16.1637 4.8623 15.7537 5.1223 15.2837 5.4723L13.6437 6.6823C13.3737 6.9023 13.1937 7.1323 13.1937 7.4923C13.1937 7.9123 13.4937 8.2323 13.9037 8.2323C14.1137 8.2323 14.2637 8.1723 14.4237 8.0523L15.8637 6.9723H15.8837V15.1623C15.8837 15.7923 16.2737 16.2323 16.8937 16.2323Z" /></svg>