
<svg
    viewBox={0 0 25.169921875 25.169921875}
    xmlns="http://www.w3.org/2000/svg"
>
    <path
        fill="inherit"
        d="M4.2937 25.1692H20.8737C23.7437 25.1692 25.1737 23.7592 25.1737 20.9492V4.2392C25.1737 1.4192 23.7437 -0.0008 20.8737 -0.0008H4.2937C1.4337 -0.0008 0.0037 1.4192 0.0037 4.2392V20.9492C0.0037 23.7592 1.4337 25.1692 4.2937 25.1692ZM4.3237 22.9692C2.9537 22.9692 2.2037 22.2392 2.2037 20.8192V4.3592C2.2037 2.9392 2.9537 2.1992 4.3237 2.1992H20.8537C22.2037 2.1992 22.9737 2.9392 22.9737 4.3592V20.8192C22.9737 22.2392 22.2037 22.9692 20.8537 22.9692ZM9.8737 18.2492C10.4037 18.2492 10.8537 17.7992 10.8537 17.2492V7.9892C10.8537 7.2892 10.4137 6.8792 9.7037 6.8792C9.1437 6.8792 8.6637 7.1892 8.3537 7.4392L6.8537 8.5992C6.6037 8.7892 6.4237 9.0492 6.4237 9.4092C6.4237 9.8292 6.7037 10.1292 7.1237 10.1292C7.3237 10.1292 7.4637 10.0592 7.6037 9.9692L8.8637 8.9592V17.2492C8.8637 17.7992 9.3137 18.2492 9.8737 18.2492ZM16.1737 18.2492C16.7037 18.2492 17.1537 17.7992 17.1537 17.2492V7.9892C17.1537 7.2892 16.7237 6.8792 16.0137 6.8792C15.4337 6.8792 14.9737 7.1892 14.6537 7.4392L13.1537 8.5992C12.9037 8.7892 12.7137 9.0492 12.7137 9.4092C12.7137 9.8292 13.0037 10.1292 13.4237 10.1292C13.6337 10.1292 13.7637 10.0592 13.9037 9.9692L15.1637 8.9592V17.2492C15.1637 17.7992 15.6137 18.2492 16.1737 18.2492Z"
        fillRule="evenodd"
        clipRule="evenodd"
    />
</svg>
        