
<svg
    viewBox={0 0 27.890625 27.890625}
    xmlns="http://www.w3.org/2000/svg"
>
    <path
        fill="inherit"
        d="M13.9427 27.8864C21.6427 27.8864 27.8927 21.6464 27.8927 13.9464C27.8927 6.2464 21.6427 -0.0036 13.9427 -0.0036C6.2527 -0.0036 0.0027 6.2464 0.0027 13.9464C0.0027 21.6464 6.2527 27.8864 13.9427 27.8864ZM13.9427 25.5664C7.5227 25.5664 2.3227 20.3664 2.3227 13.9464C2.3227 7.5164 7.5227 2.3264 13.9427 2.3264C20.3727 2.3264 25.5627 7.5164 25.5627 13.9464C25.5627 20.3664 20.3727 25.5664 13.9427 25.5664ZM14.3527 19.4664H19.1027C19.5927 19.4664 19.8827 19.1564 19.8827 18.6764C19.8827 18.1564 19.5827 17.8664 19.1027 17.8664H15.8627V17.7564L17.8527 15.2264C19.2227 13.5364 19.6727 12.5264 19.6727 11.3164C19.6727 9.4764 18.4127 8.1364 16.5327 8.1364C14.7827 8.1364 13.4527 9.5864 13.4527 11.0064C13.4527 11.5164 13.7527 11.8664 14.2727 11.8664C14.7227 11.8664 15.0027 11.6664 15.1527 11.2064C15.3927 10.2964 15.7327 9.7164 16.5327 9.7164C17.3527 9.7164 17.8127 10.4464 17.8127 11.4164C17.8127 12.5064 17.0527 13.6164 16.3227 14.5464L13.9427 17.5864C13.7027 17.9064 13.4427 18.2564 13.4427 18.6764C13.4427 19.1364 13.7427 19.4664 14.3527 19.4664ZM10.3627 19.6164C10.9127 19.6164 11.3627 19.1664 11.3627 18.6164V9.3564C11.3627 8.6564 10.9227 8.2464 10.2127 8.2464C9.6427 8.2464 9.1727 8.5564 8.8427 8.8064L7.3427 9.9664C7.1127 10.1564 6.9227 10.4164 6.9227 10.7764C6.9227 11.1964 7.2027 11.4964 7.6127 11.4964C7.8327 11.4964 7.9727 11.4264 8.1027 11.3364L9.3627 10.3264V18.6164C9.3627 19.1664 9.8127 19.6164 10.3627 19.6164Z"
        fillRule="evenodd"
        clipRule="evenodd"
    />
</svg>
        