
<svg
    viewBox={0 0 25.169921875 20.603515625}
    xmlns="http://www.w3.org/2000/svg"
>
    <path
        fill="inherit"
        d="M0.0037 19.4923C0.0037 20.1023 0.4937 20.6023 1.0937 20.6023C1.7137 20.6023 2.2037 20.1023 2.2037 19.4923V1.0923C2.2037 0.4923 1.7137 0.0023 1.0937 0.0023C0.4937 0.0023 0.0037 0.4923 0.0037 1.0923ZM22.9737 19.4923C22.9737 20.1023 23.4737 20.6023 24.0737 20.6023C24.6737 20.6023 25.1737 20.1023 25.1737 19.4923V1.0923C25.1737 0.4923 24.6737 0.0023 24.0737 0.0023C23.4737 0.0023 22.9737 0.4923 22.9737 1.0923ZM9.1237 16.2323C9.7437 16.2323 10.1337 15.7923 10.1337 15.1623V6.0023C10.1337 5.2923 9.6937 4.8623 8.9737 4.8623C8.3937 4.8623 7.9837 5.1223 7.5237 5.4723L5.8837 6.6823C5.5937 6.9023 5.4237 7.1323 5.4237 7.4923C5.4237 7.9123 5.7137 8.2323 6.1437 8.2323C6.3437 8.2323 6.4837 8.1723 6.6437 8.0523L8.0937 6.9723H8.1037V15.1623C8.1037 15.7923 8.4937 16.2323 9.1237 16.2323ZM13.4937 16.2023H18.8137C19.3137 16.2023 19.6337 15.8823 19.6337 15.3823C19.6337 14.8723 19.3137 14.5723 18.8137 14.5723H15.0937V14.4623L17.2537 12.0623C17.7637 11.4823 18.1837 10.9823 18.4937 10.5523C19.0437 9.7723 19.3737 9.0323 19.3737 8.0923C19.3737 6.1023 17.8837 4.8923 15.9437 4.8923C14.2637 4.8923 12.8637 6.0523 12.6037 7.3523C12.5737 7.5023 12.5637 7.6423 12.5637 7.7623C12.5637 8.3023 12.8937 8.6223 13.4137 8.6223C13.8637 8.6223 14.1337 8.3923 14.3037 7.9723C14.5437 7.0823 15.0637 6.4923 15.9237 6.4923C16.8837 6.4923 17.4137 7.2323 17.4137 8.1723C17.4137 8.8723 17.1837 9.3923 16.7937 9.9623C16.5437 10.3123 16.2037 10.7423 15.7637 11.2523L13.0837 14.2723C12.7837 14.5923 12.5337 14.9023 12.5337 15.3623C12.5337 15.7623 12.7537 16.2023 13.4937 16.2023Z"
        fillRule="evenodd"
        clipRule="evenodd"
    />
</svg>
        