
<svg
    viewBox="0 0 25.169921875 25.169921875"
    xmlns="http://www.w3.org/2000/svg"
>
    <path
        fill="inherit"
        d="M4.2937 25.1692H20.8737C23.7437 25.1692 25.1737 23.7592 25.1737 20.9492V4.2392C25.1737 1.4192 23.7437 -0.0008 20.8737 -0.0008H4.2937C1.4337 -0.0008 0.0037 1.4192 0.0037 4.2392V20.9492C0.0037 23.7592 1.4337 25.1692 4.2937 25.1692ZM4.3237 22.9692C2.9537 22.9692 2.2037 22.2392 2.2037 20.8192V4.3592C2.2037 2.9392 2.9537 2.1992 4.3237 2.1992H20.8537C22.2037 2.1992 22.9737 2.9392 22.9737 4.3592V20.8192C22.9737 22.2392 22.2037 22.9692 20.8537 22.9692ZM13.0337 18.0992H17.7737C18.2537 18.0992 18.5437 17.7892 18.5437 17.3092C18.5437 16.7892 18.2337 16.4992 17.7737 16.4992H14.5237V16.3892L16.5137 13.8592C17.8837 12.1692 18.3337 11.1592 18.3337 9.9492C18.3337 8.1092 17.0737 6.7692 15.1937 6.7692C13.4537 6.7692 12.1137 8.2192 12.1137 9.6392C12.1137 10.1492 12.4137 10.4992 12.9337 10.4992C13.3837 10.4992 13.6737 10.2992 13.8037 9.8392C14.0637 8.9292 14.3937 8.3492 15.1937 8.3492C16.0137 8.3492 16.4737 9.0792 16.4737 10.0492C16.4737 11.1392 15.7137 12.2492 14.9837 13.1792L12.6037 16.2192C12.3637 16.5392 12.1037 16.8892 12.1037 17.3092C12.1037 17.7692 12.4037 18.0992 13.0337 18.0992ZM9.0237 18.2492C9.5737 18.2492 10.0237 17.7992 10.0237 17.2492V7.9892C10.0237 7.2892 9.5837 6.8792 8.8737 6.8792C8.3037 6.8792 7.8337 7.1892 7.5237 7.4392L6.0137 8.5992C5.7737 8.7892 5.5737 9.0492 5.5737 9.4092C5.5737 9.8292 5.8637 10.1292 6.2737 10.1292C6.4937 10.1292 6.6337 10.0592 6.7637 9.9692L8.0237 8.9592V17.2492C8.0237 17.7992 8.4737 18.2492 9.0237 18.2492Z"
        fillRule="evenodd"
        clipRule="evenodd"
    />
</svg>
        