
<svg
    viewBox={0 0 25.169921875 25.169921875}
    xmlns="http://www.w3.org/2000/svg"
>
    <path
        fill="inherit"
        d="M4.2937 25.1692H20.8737C23.7437 25.1692 25.1737 23.7592 25.1737 20.9492V4.2392C25.1737 1.4192 23.7437 -0.0008 20.8737 -0.0008H4.2937C1.4337 -0.0008 0.0037 1.4192 0.0037 4.2392V20.9492C0.0037 23.7592 1.4337 25.1692 4.2937 25.1692ZM13.0737 18.2792C12.4137 18.2792 12.1037 17.9392 12.1037 17.4592C12.1037 17.0192 12.3737 16.6692 12.6337 16.3192L15.0837 13.2092C15.8137 12.2492 16.6137 11.0992 16.6137 9.9692C16.6137 8.9692 16.1337 8.2292 15.3037 8.2292C14.4737 8.2292 14.1337 8.8192 13.8737 9.7592C13.7237 10.2292 13.4437 10.4492 12.9637 10.4492C12.4237 10.4492 12.1137 10.0792 12.1137 9.5392C12.1137 8.0792 13.4937 6.5892 15.3037 6.5892C17.2437 6.5892 18.5437 7.9692 18.5437 9.8692C18.5437 11.1192 18.0737 12.1592 16.6637 13.9092L14.6137 16.4992V16.6292H17.9637C18.4437 16.6292 18.7537 16.9092 18.7537 17.4592C18.7537 17.9492 18.4537 18.2792 17.9637 18.2792ZM8.9237 18.4292C8.3537 18.4292 7.8937 17.9692 7.8937 17.4092V8.8492L6.6037 9.8992C6.4537 9.9892 6.3137 10.0592 6.0837 10.0592C5.6637 10.0592 5.3637 9.7492 5.3637 9.3092C5.3637 8.9392 5.5637 8.6692 5.8237 8.4792L7.3737 7.2892C7.6937 7.0292 8.1737 6.6992 8.7637 6.6992C9.5037 6.6992 9.9537 7.1192 9.9537 7.8492V17.4092C9.9537 17.9692 9.4837 18.4292 8.9237 18.4292Z"
        fillRule="evenodd"
        clipRule="evenodd"
    />
</svg>
        