
<svg
    viewBox="0 0 25.169921875 25.169921875"
    xmlns="http://www.w3.org/2000/svg"
>
    <path
        fill="inherit"
        d="M4.2937 25.1692H20.8737C23.7437 25.1692 25.1737 23.7592 25.1737 20.9492V4.2392C25.1737 1.4192 23.7437 -0.0008 20.8737 -0.0008H4.2937C1.4337 -0.0008 0.0037 1.4192 0.0037 4.2392V20.9492C0.0037 23.7592 1.4337 25.1692 4.2937 25.1692ZM15.5337 18.5292C14.0137 18.5292 12.5737 17.7992 12.1637 16.4892C12.1037 16.2592 12.0537 16.0092 12.0537 15.7492C12.0537 15.1992 12.4237 14.8592 12.9837 14.8592C13.4437 14.8592 13.7437 15.0892 13.8737 15.5592C14.0537 16.1992 14.5237 16.8892 15.5337 16.8892C16.5837 16.8892 17.0937 16.0492 17.0937 15.0792C17.0937 13.8592 16.4337 13.2092 15.2337 13.2092H14.8937C14.4137 13.2092 14.1137 12.9292 14.1137 12.4692C14.1137 11.9992 14.3937 11.6992 14.8937 11.6992H15.2137C16.2737 11.6992 16.8437 10.9492 16.8437 9.9292C16.8437 8.9992 16.4037 8.2892 15.4737 8.2892C14.6837 8.2892 14.2337 8.8092 14.0137 9.6392C13.8737 10.1292 13.6037 10.3092 13.1137 10.3092C12.5537 10.3092 12.2337 9.9392 12.2337 9.4792C12.2337 9.2292 12.2637 8.9792 12.3437 8.7092C12.7537 7.4692 14.0137 6.6492 15.4737 6.6492C17.3237 6.6492 18.7737 7.7492 18.7737 9.7092C18.7737 10.8792 18.1537 12.0292 16.8737 12.3692V12.4092C18.0737 12.5392 19.1137 13.3992 19.1137 15.1492C19.1137 17.2492 17.5437 18.5292 15.5337 18.5292ZM8.8037 18.4292C8.2337 18.4292 7.7637 17.9692 7.7637 17.3892V8.8492L6.4637 9.8892C6.3337 9.9892 6.1837 10.0592 5.9737 10.0592C5.5537 10.0592 5.2537 9.7492 5.2537 9.3092C5.2537 8.9392 5.4237 8.6692 5.6837 8.4792L7.2337 7.2692C7.5737 7.0292 8.0537 6.6992 8.6437 6.6992C9.3837 6.6992 9.8337 7.1192 9.8337 7.8492V17.3892C9.8337 17.9692 9.3637 18.4292 8.8037 18.4292Z"
        fillRule="evenodd"
        clipRule="evenodd"
    />
</svg>
        