<svg viewBox="0 0 25.169921875 25.169921875" xmlns="http://www.w3.org/2000/svg"><path d="M4.2937 25.1692H20.8737C23.7437 25.1692 25.1737 23.7592 25.1737 20.9492V4.2392C25.1737 1.4192 23.7437 -0.0008 20.8737 -0.0008H4.2937C1.4337 -0.0008 0.0037 1.4192 0.0037 4.2392V20.9492C0.0037 23.7592 1.4337 25.1692 4.2937 25.1692ZM4.3237 22.9692C2.9537 22.9692 2.2037 22.2392 2.2037 20.8192V4.3592C2.2037 2.9392 2.9537 2.1992 4.3237 2.1992H20.8537C22.2037 2.1992 22.9737 2.9392 22.9737 4.3592V20.8192C22.9737 22.2392 22.2037 22.9692 20.8537 22.9692ZM15.4237 18.3492C17.3737 18.3492 18.8937 17.1192 18.8937 15.0692C18.8937 13.3692 17.8837 12.5392 16.7237 12.4092V12.3692C17.9637 12.0492 18.5637 10.9392 18.5637 9.7892C18.5637 7.8992 17.1537 6.8192 15.3637 6.8192C13.9637 6.8192 12.7437 7.6192 12.3437 8.8292C12.2637 9.0892 12.2337 9.3392 12.2337 9.5692C12.2337 10.0192 12.5337 10.3792 13.0837 10.3792C13.5537 10.3792 13.8237 10.1992 13.9437 9.7192C14.1637 8.9092 14.6037 8.4092 15.3637 8.4092C16.2737 8.4092 16.7037 9.1092 16.7037 10.0092C16.7037 11.0092 16.1437 11.7292 15.1237 11.7292H14.7937C14.3237 11.7292 14.0437 12.0192 14.0437 12.4692C14.0437 12.9192 14.3437 13.1792 14.7937 13.1792H15.1337C16.2937 13.1792 16.9437 13.8192 16.9437 15.0092C16.9437 15.9592 16.4437 16.7592 15.4237 16.7592C14.4337 16.7592 13.9837 16.0892 13.8237 15.4592C13.6837 15.0292 13.3937 14.7892 12.9637 14.7892C12.4137 14.7892 12.0537 15.1192 12.0537 15.6592C12.0537 15.8992 12.1037 16.1492 12.1637 16.3692C12.5637 17.6392 13.9637 18.3492 15.4237 18.3492ZM8.9137 18.2492C9.4437 18.2492 9.8937 17.7992 9.8937 17.2492V7.9892C9.8937 7.2892 9.4637 6.8792 8.7537 6.8792C8.1937 6.8792 7.7237 7.1892 7.3937 7.4392L5.8937 8.5992C5.6437 8.7892 5.4737 9.0492 5.4737 9.4092C5.4737 9.8292 5.7537 10.1292 6.1637 10.1292C6.3737 10.1292 6.5037 10.0592 6.6437 9.9692L7.9037 8.9592V17.2492C7.9037 17.7992 8.3537 18.2492 8.9137 18.2492Z" /></svg>