<svg viewBox="0 0 27.890625 27.890625" xmlns="http://www.w3.org/2000/svg"><path d="M13.9427 27.8864C21.6427 27.8864 27.8927 21.6264 27.8927 13.9464C27.8927 6.2464 21.6427 -0.0036 13.9427 -0.0036C6.2627 -0.0036 0.0027 6.2464 0.0027 13.9464C0.0027 21.6264 6.2627 27.8864 13.9427 27.8864ZM9.8327 19.7964C9.2527 19.7964 8.7927 19.3364 8.7927 18.7564V10.2164L7.5027 11.2564C7.3527 11.3564 7.2227 11.4264 6.9827 11.4264C6.5627 11.4264 6.2627 11.1164 6.2627 10.6764C6.2627 10.3064 6.4627 10.0364 6.7227 9.8464L8.2627 8.6364C8.6027 8.3964 9.0827 8.0664 9.6627 8.0664C10.4027 8.0664 10.8527 8.4864 10.8527 9.2164V18.7564C10.8527 19.3364 10.3927 19.7964 9.8327 19.7964ZM18.2527 19.8264C17.8127 19.8264 17.2827 19.5664 17.2827 18.8264V17.4164H14.1227C13.4427 17.4164 12.9627 16.9564 12.9627 16.2664C12.9627 15.8364 13.0427 15.4664 13.2927 14.9164L15.7927 9.4464C16.2027 8.5764 16.6627 8.0664 17.6627 8.0664C18.5827 8.0664 19.2227 8.6164 19.2227 9.5964V15.7764H19.7327C20.2927 15.7764 20.5327 16.1364 20.5327 16.5864C20.5327 17.0664 20.2727 17.4164 19.7327 17.4164H19.2227V18.8264C19.2227 19.4964 18.8027 19.8264 18.2527 19.8264ZM17.3227 15.8164V9.8464H17.2627L14.7127 15.7264V15.8164Z" /></svg>