
<svg
    viewBox="0 0 27.890625 27.890625"
    xmlns="http://www.w3.org/2000/svg"
>
    <path
        fill="inherit"
        d="M13.9427 27.8864C21.6427 27.8864 27.8927 21.6464 27.8927 13.9464C27.8927 6.2464 21.6427 -0.0036 13.9427 -0.0036C6.2527 -0.0036 0.0027 6.2464 0.0027 13.9464C0.0027 21.6464 6.2527 27.8864 13.9427 27.8864ZM13.9427 25.5664C7.5227 25.5664 2.3227 20.3664 2.3227 13.9464C2.3227 7.5164 7.5227 2.3264 13.9427 2.3264C20.3727 2.3264 25.5627 7.5164 25.5627 13.9464C25.5627 20.3664 20.3727 25.5664 13.9427 25.5664ZM9.9227 19.6164C10.4727 19.6164 10.9227 19.1664 10.9227 18.6164V9.3564C10.9227 8.6564 10.4827 8.2464 9.7727 8.2464C9.2027 8.2464 8.7327 8.5564 8.4127 8.8064L6.9027 9.9664C6.6727 10.1564 6.4827 10.4164 6.4827 10.7764C6.4827 11.1964 6.7627 11.4964 7.1827 11.4964C7.3927 11.4964 7.5327 11.4264 7.6727 11.3364L8.9327 10.3264V18.6164C8.9327 19.1664 9.3827 19.6164 9.9227 19.6164ZM18.0927 19.6464C18.6027 19.6464 19.0327 19.3364 19.0327 18.6764V17.3064H19.5127C20.0427 17.3064 20.2927 16.9664 20.2927 16.5064C20.2927 16.0664 20.0527 15.7264 19.5127 15.7264H19.0327V9.7164C19.0327 8.7764 18.4027 8.2464 17.5127 8.2464C16.5527 8.2464 16.1027 8.7364 15.7127 9.5864L13.2727 14.8864C13.0427 15.4264 12.9627 15.7764 12.9627 16.1964C12.9627 16.8564 13.4227 17.3064 14.0827 17.3064H17.1427V18.6764C17.1427 19.3964 17.6627 19.6464 18.0927 19.6464ZM17.1827 15.7664H14.6427V15.6664L17.1327 9.9664H17.1827Z"
        fillRule="evenodd"
        clipRule="evenodd"
    />
</svg>
        