
<svg
    viewBox={0 0 27.890625 30.544813437289534}
    xmlns="http://www.w3.org/2000/svg"
>
    <path
        fill="inherit"
        d="M13.9427 30.5406C21.6427 30.5406 27.8927 24.3006 27.8927 16.6006C27.8927 11.9106 25.6027 7.8506 22.0827 5.3106C21.4827 4.8406 20.7027 5.0106 20.3527 5.5506C20.0127 6.1306 20.1927 6.7706 20.7527 7.1906C23.6527 9.2706 25.5627 12.7006 25.5627 16.6006C25.5627 23.0206 20.3727 28.2206 13.9427 28.2206C7.5227 28.2206 2.3227 23.0206 2.3227 16.6006C2.3227 11.0506 6.1627 6.4706 11.3027 5.2806V7.2506C11.3027 8.2206 11.9727 8.4606 12.7327 7.9406L17.0927 4.8806C17.7027 4.4406 17.7227 3.7906 17.0927 3.3406L12.7427 0.2706C11.9727 -0.2594 11.3027 -0.0094 11.3027 0.9706V2.9106C4.9127 4.1206 0.0027 9.7806 0.0027 16.6006C0.0027 24.3006 6.2527 30.5406 13.9427 30.5406ZM10.2927 22.2206C10.8927 22.2206 11.2527 21.7906 11.2527 21.2106V12.5706C11.2527 11.9006 10.8327 11.5006 10.1627 11.5006C9.6127 11.5006 9.2127 11.7506 8.7927 12.0706L7.2427 13.2206C6.9727 13.4106 6.8127 13.6506 6.8127 13.9706C6.8127 14.3706 7.0927 14.6706 7.4827 14.6706C7.6827 14.6706 7.8227 14.6206 7.9727 14.4906L9.3227 13.4806H9.3527V21.2106C9.3527 21.7906 9.7027 22.2206 10.2927 22.2206ZM17.0227 22.3006C19.1527 22.3006 20.4827 20.7306 20.4827 18.5906C20.4827 16.7606 19.4527 15.1906 17.6327 15.1906C16.7327 15.1906 15.9727 15.6106 15.6027 16.3106H15.5427L15.7927 13.1906H19.2627C19.7127 13.1906 20.0127 12.8906 20.0127 12.4306C20.0127 11.9606 19.7327 11.6606 19.2627 11.6606H15.3027C14.5927 11.6606 14.2627 12.0306 14.2227 12.7606L13.9227 16.7406C13.8727 17.3506 14.1927 17.8006 14.7927 17.8006C15.2327 17.8006 15.4227 17.6206 15.6927 17.3006C16.0227 16.8606 16.4927 16.5906 17.0327 16.5906C18.1127 16.5906 18.6527 17.5606 18.6527 18.6506C18.6527 19.8106 18.0627 20.7806 17.0227 20.7806C16.2027 20.7806 15.6527 20.2506 15.3827 19.5406C15.2027 19.1606 14.9327 18.9506 14.5627 18.9506C14.0827 18.9506 13.7827 19.2606 13.7827 19.7406C13.7827 19.9106 13.8127 20.0706 13.8527 20.2206C14.1927 21.5306 15.6927 22.3006 17.0227 22.3006Z"
        fillRule="evenodd"
        clipRule="evenodd"
    />
</svg>
        