
<svg
    viewBox="0 0 27.890625 27.890625"
    xmlns="http://www.w3.org/2000/svg"
>
    <path
        fill="inherit"
        d="M13.9427 27.8864C21.6427 27.8864 27.8927 21.6464 27.8927 13.9464C27.8927 6.2464 21.6427 -0.0036 13.9427 -0.0036C6.2527 -0.0036 0.0027 6.2464 0.0027 13.9464C0.0027 21.6464 6.2527 27.8864 13.9427 27.8864ZM13.9427 25.5664C7.5227 25.5664 2.3227 20.3664 2.3227 13.9464C2.3227 7.5164 7.5227 2.3264 13.9427 2.3264C20.3727 2.3264 25.5627 7.5164 25.5627 13.9464C25.5627 20.3664 20.3727 25.5664 13.9427 25.5664ZM10.2127 19.6164C10.7427 19.6164 11.1927 19.1664 11.1927 18.6164V9.3564C11.1927 8.6564 10.7627 8.2464 10.0627 8.2464C9.4927 8.2464 9.0227 8.5564 8.6927 8.8064L7.1927 9.9664C6.9627 10.1564 6.7627 10.4164 6.7627 10.7764C6.7627 11.1964 7.0527 11.4964 7.4627 11.4964C7.6827 11.4964 7.8027 11.4264 7.9527 11.3364L9.2127 10.3264V18.6164C9.2127 19.1664 9.6627 19.6164 10.2127 19.6164ZM16.7227 19.7564C18.8427 19.7564 20.0127 17.9664 20.0127 15.8064C20.0127 13.9164 19.1127 12.1964 17.3527 12.1964C16.5427 12.1964 15.8027 12.5664 15.4527 13.3564H15.3827L15.6127 10.0364H18.8227C19.2927 10.0364 19.5827 9.7064 19.5827 9.2264C19.5827 8.7764 19.2727 8.4264 18.8227 8.4264H15.0627C14.3427 8.4264 14.0227 8.8864 13.9727 9.5964L13.7527 13.3464C13.7427 13.5464 13.7427 13.7664 13.7427 13.9464C13.7427 14.4664 14.0027 14.9264 14.6327 14.9264C15.0027 14.9264 15.2127 14.7764 15.5027 14.4064C15.8227 13.9564 16.1627 13.6264 16.7027 13.6264C17.7227 13.6264 18.1027 14.8464 18.1027 15.8564C18.1027 16.9964 17.7027 18.1564 16.6927 18.1564C15.9327 18.1564 15.4927 17.6064 15.2427 16.8564C15.0827 16.4164 14.7827 16.2164 14.4127 16.2164C13.9027 16.2164 13.5927 16.5264 13.5927 17.0364C13.5927 17.3464 13.6727 17.6464 13.7927 17.9264C14.2627 19.0264 15.4727 19.7564 16.7227 19.7564Z"
        fillRule="evenodd"
        clipRule="evenodd"
    />
</svg>
        