
<svg
    viewBox={0 0 27.890625 27.890625}
    xmlns="http://www.w3.org/2000/svg"
>
    <path
        fill="inherit"
        d="M13.9427 27.8864C21.6427 27.8864 27.8927 21.6264 27.8927 13.9464C27.8927 6.2464 21.6427 -0.0036 13.9427 -0.0036C6.2627 -0.0036 0.0027 6.2464 0.0027 13.9464C0.0027 21.6264 6.2627 27.8864 13.9427 27.8864ZM10.1127 19.7964C9.5527 19.7964 9.0927 19.3364 9.0927 18.7564V10.2164L7.7927 11.2564C7.6527 11.3564 7.5227 11.4264 7.2827 11.4264C6.8627 11.4264 6.5627 11.1164 6.5627 10.6764C6.5627 10.3064 6.7627 10.0364 7.0027 9.8464L8.5427 8.6364C8.8827 8.3964 9.3827 8.0664 9.9627 8.0664C10.6927 8.0664 11.1427 8.4864 11.1427 9.2164V18.7564C11.1427 19.3364 10.6827 19.7964 10.1127 19.7964ZM16.8427 19.9364C15.5627 19.9364 14.3027 19.1964 13.8227 18.0464C13.7027 17.7764 13.6127 17.4564 13.6127 17.1264C13.6127 16.6064 13.9427 16.2864 14.4627 16.2864C14.8427 16.2864 15.1627 16.4864 15.3227 16.9364C15.5827 17.7164 16.0227 18.2764 16.8127 18.2764C17.8527 18.2764 18.2627 17.0864 18.2627 15.9164C18.2627 14.8764 17.8727 13.6264 16.8327 13.6264C16.2727 13.6264 15.9127 13.9564 15.6027 14.4264C15.3027 14.8064 15.0627 14.9564 14.6827 14.9564C14.0427 14.9564 13.7627 14.4764 13.7627 13.9464C13.7627 13.7564 13.7627 13.5364 13.7827 13.3164L14.0027 9.4564C14.0727 8.7264 14.3827 8.2464 15.1327 8.2464H19.0127C19.4827 8.2464 19.7927 8.6164 19.7927 9.0764C19.7927 9.5864 19.4927 9.9164 19.0127 9.9164H15.7127L15.4627 13.3264H15.5427C15.9027 12.5264 16.6627 12.1364 17.5027 12.1364C19.3227 12.1364 20.2527 13.9164 20.2527 15.8564C20.2527 18.0864 19.0327 19.9364 16.8427 19.9364Z"
        fillRule="evenodd"
        clipRule="evenodd"
    />
</svg>
        