
<svg
    viewBox="0 0 25.169921875 25.169921875"
    xmlns="http://www.w3.org/2000/svg"
>
    <path
        fill="inherit"
        d="M4.2937 25.1692H20.8737C23.7437 25.1692 25.1737 23.7592 25.1737 20.9492V4.2392C25.1737 1.4192 23.7437 -0.0008 20.8737 -0.0008H4.2937C1.4337 -0.0008 0.0037 1.4192 0.0037 4.2392V20.9492C0.0037 23.7592 1.4337 25.1692 4.2937 25.1692ZM4.3237 22.9692C2.9537 22.9692 2.2037 22.2392 2.2037 20.8192V4.3592C2.2037 2.9392 2.9537 2.1992 4.3237 2.1992H20.8537C22.2037 2.1992 22.9737 2.9392 22.9737 4.3592V20.8192C22.9737 22.2392 22.2037 22.9692 20.8537 22.9692ZM8.8737 18.2492C9.4237 18.2492 9.8737 17.7992 9.8737 17.2492V7.9892C9.8737 7.2892 9.4337 6.8792 8.7237 6.8792C8.1437 6.8792 7.6837 7.1892 7.3537 7.4392L5.8537 8.5992C5.6237 8.7892 5.4237 9.0492 5.4237 9.4092C5.4237 9.8292 5.7137 10.1292 6.1237 10.1292C6.3437 10.1292 6.4837 10.0592 6.6137 9.9692L7.8737 8.9592V17.2492C7.8737 17.7992 8.3237 18.2492 8.8737 18.2492ZM15.3837 18.3892C17.5037 18.3892 18.6737 16.5992 18.6737 14.4392C18.6737 12.5492 17.7737 10.8292 16.0137 10.8292C15.2037 10.8292 14.4637 11.1992 14.1137 11.9892H14.0537L14.2737 8.6692H17.4837C17.9537 8.6692 18.2337 8.3392 18.2337 7.8592C18.2337 7.4092 17.9337 7.0592 17.4837 7.0592H13.7237C13.0137 7.0592 12.6837 7.5192 12.6437 8.2292L12.4137 11.9792C12.4037 12.1792 12.4037 12.3992 12.4037 12.5792C12.4037 13.0992 12.6637 13.5592 13.2937 13.5592C13.6737 13.5592 13.8737 13.4092 14.1637 13.0392C14.4737 12.5892 14.8237 12.2592 15.3637 12.2592C16.3837 12.2592 16.7637 13.4792 16.7637 14.4892C16.7637 15.6292 16.3637 16.7892 15.3537 16.7892C14.5837 16.7892 14.1537 16.2392 13.9037 15.4892C13.7437 15.0492 13.4437 14.8492 13.0737 14.8492C12.5637 14.8492 12.2537 15.1592 12.2537 15.6692C12.2537 15.9792 12.3337 16.2792 12.4537 16.5592C12.9337 17.6592 14.1337 18.3892 15.3837 18.3892Z"
        fillRule="evenodd"
        clipRule="evenodd"
    />
</svg>
        