
<svg
    viewBox={0 0 25.169921875 25.169921875}
    xmlns="http://www.w3.org/2000/svg"
>
    <path
        fill="inherit"
        d="M4.2937 25.1692H20.8737C23.7437 25.1692 25.1737 23.7592 25.1737 20.9492V4.2392C25.1737 1.4192 23.7437 -0.0008 20.8737 -0.0008H4.2937C1.4337 -0.0008 0.0037 1.4192 0.0037 4.2392V20.9492C0.0037 23.7592 1.4337 25.1692 4.2937 25.1692ZM8.7637 18.4292C8.2037 18.4292 7.7337 17.9692 7.7337 17.3892V8.8492L6.4437 9.8892C6.3037 9.9892 6.1637 10.0592 5.9337 10.0592C5.5137 10.0592 5.2137 9.7492 5.2137 9.3092C5.2137 8.9392 5.4137 8.6692 5.6437 8.4792L7.1937 7.2692C7.5337 7.0292 8.0237 6.6992 8.6137 6.6992C9.3537 6.6992 9.8037 7.1192 9.8037 7.8492V17.3892C9.8037 17.9692 9.3337 18.4292 8.7637 18.4292ZM15.4937 18.5692C14.2037 18.5692 12.9637 17.8292 12.4737 16.6792C12.3437 16.4092 12.2637 16.0892 12.2637 15.7592C12.2637 15.2392 12.5937 14.9192 13.1137 14.9192C13.4937 14.9192 13.8037 15.1192 13.9737 15.5692C14.2337 16.3492 14.6737 16.9092 15.4637 16.9092C16.5037 16.9092 16.9137 15.7192 16.9137 14.5492C16.9137 13.5092 16.5137 12.2592 15.4737 12.2592C14.9137 12.2592 14.5637 12.5892 14.2437 13.0592C13.9437 13.4392 13.7237 13.5892 13.3337 13.5892C12.6837 13.5892 12.4137 13.1092 12.4137 12.5792C12.4137 12.3892 12.4137 12.1692 12.4237 11.9492L12.6637 8.0892C12.7137 7.3592 13.0437 6.8792 13.7837 6.8792H17.6637C18.1337 6.8792 18.4437 7.2492 18.4437 7.7092C18.4437 8.2192 18.1437 8.5492 17.6637 8.5492H14.3537L14.1237 11.9592H14.1937C14.5437 11.1592 15.3137 10.7692 16.1437 10.7692C17.9637 10.7692 18.8937 12.5492 18.8937 14.4892C18.8937 16.7192 17.6737 18.5692 15.4937 18.5692Z"
        fillRule="evenodd"
        clipRule="evenodd"
    />
</svg>
        