
<svg
    viewBox="0 0 27.890625 27.890625"
    xmlns="http://www.w3.org/2000/svg"
>
    <path
        fill="inherit"
        d="M13.9427 27.8864C21.6427 27.8864 27.8927 21.6264 27.8927 13.9464C27.8927 6.2464 21.6427 -0.0036 13.9427 -0.0036C6.2627 -0.0036 0.0027 6.2464 0.0027 13.9464C0.0027 21.6264 6.2627 27.8864 13.9427 27.8864ZM16.9527 19.9364C14.0927 19.9364 13.2527 16.7464 13.2527 14.0864C13.2527 11.2264 14.0827 7.9864 16.9627 7.9864C18.3927 7.9864 19.6227 8.7364 19.9027 9.9564C19.9427 10.1264 19.9727 10.3064 19.9727 10.4564C19.9727 10.9264 19.7427 11.3064 19.1527 11.3064C18.7027 11.3064 18.4327 11.1164 18.2427 10.6764C17.9927 10.0864 17.5827 9.6364 16.9227 9.6364C15.3627 9.6364 15.1727 12.4664 15.1727 14.0264V14.1764H15.2327C15.5627 12.9764 16.4227 12.2064 17.5527 12.2064C19.4327 12.2064 20.3427 14.0164 20.3427 15.9164C20.3427 18.1264 19.1027 19.9364 16.9527 19.9364ZM9.9427 19.7964C9.3827 19.7964 8.9027 19.3364 8.9027 18.7564V10.2164L7.6127 11.2564C7.4827 11.3564 7.3327 11.4264 7.1127 11.4264C6.6827 11.4264 6.3827 11.1164 6.3827 10.6764C6.3827 10.3064 6.5727 10.0364 6.8327 9.8464L8.3827 8.6364C8.7127 8.3964 9.1827 8.0664 9.7927 8.0664C10.5227 8.0664 10.9827 8.4864 10.9827 9.2164V18.7564C10.9827 19.3364 10.5127 19.7964 9.9427 19.7964ZM16.9227 18.2764C17.9127 18.2764 18.3627 17.0364 18.3627 16.0064C18.3927 14.9664 17.9627 13.7564 16.9127 13.7564C15.9027 13.7564 15.4327 14.9164 15.4327 15.9364C15.4327 16.9564 15.8627 18.2764 16.9227 18.2764Z"
        fillRule="evenodd"
        clipRule="evenodd"
    />
</svg>
        