
<svg
    viewBox="0 0 25.169921875 25.169921875"
    xmlns="http://www.w3.org/2000/svg"
>
    <path
        fill="inherit"
        d="M4.2937 25.1692H20.8737C23.7437 25.1692 25.1737 23.7592 25.1737 20.9492V4.2392C25.1737 1.4192 23.7437 -0.0008 20.8737 -0.0008H4.2937C1.4337 -0.0008 0.0037 1.4192 0.0037 4.2392V20.9492C0.0037 23.7592 1.4337 25.1692 4.2937 25.1692ZM4.3237 22.9692C2.9537 22.9692 2.2037 22.2392 2.2037 20.8192V4.3592C2.2037 2.9392 2.9537 2.1992 4.3237 2.1992H20.8537C22.2037 2.1992 22.9737 2.9392 22.9737 4.3592V20.8192C22.9737 22.2392 22.2037 22.9692 20.8537 22.9692ZM15.4937 18.3892C17.5637 18.3892 18.7737 16.6392 18.7737 14.4892C18.7737 12.6492 17.8837 10.8992 16.0637 10.8992C14.9537 10.8992 14.1237 11.6392 13.8037 12.8092H13.7537V12.6592C13.7537 11.1392 13.9437 8.3992 15.4637 8.3992C16.0937 8.3992 16.5037 8.8292 16.7337 9.4092C16.9237 9.8292 17.1837 10.0192 17.6337 10.0192C18.1837 10.0192 18.4137 9.6492 18.4137 9.1992C18.4137 9.0492 18.4037 8.8892 18.3437 8.7092C18.0637 7.5292 16.8837 6.7992 15.5037 6.7992C12.7037 6.7992 11.8937 9.9392 11.8937 12.7192C11.8937 15.2992 12.7137 18.3892 15.4937 18.3892ZM8.7137 18.2492C9.2437 18.2492 9.6937 17.7992 9.6937 17.2492V7.9892C9.6937 7.2892 9.2537 6.8792 8.5437 6.8792C7.9737 6.8792 7.5037 7.1892 7.1937 7.4392L5.6837 8.5992C5.4437 8.7892 5.2537 9.0492 5.2537 9.4092C5.2537 9.8292 5.5337 10.1292 5.9437 10.1292C6.1637 10.1292 6.3037 10.0592 6.4437 9.9692L7.6937 8.9592V17.2492C7.6937 17.7992 8.1437 18.2492 8.7137 18.2492ZM15.4637 16.7892C14.4337 16.7892 14.0137 15.4992 14.0137 14.5192C14.0137 13.5192 14.4737 12.3892 15.4637 12.3892C16.4737 12.3892 16.8937 13.5592 16.8737 14.5692C16.8737 15.5692 16.4237 16.7892 15.4637 16.7892Z"
        fillRule="evenodd"
        clipRule="evenodd"
    />
</svg>
        