
<svg
    viewBox={0 0 25.169921875 25.169921875}
    xmlns="http://www.w3.org/2000/svg"
>
    <path
        fill="inherit"
        d="M4.2937 25.1692H20.8737C23.7437 25.1692 25.1737 23.7592 25.1737 20.9492V4.2392C25.1737 1.4192 23.7437 -0.0008 20.8737 -0.0008H4.2937C1.4337 -0.0008 0.0037 1.4192 0.0037 4.2392V20.9492C0.0037 23.7592 1.4337 25.1692 4.2937 25.1692ZM15.6037 18.5692C12.7437 18.5692 11.8937 15.3792 11.8937 12.7192C11.8937 9.8592 12.7237 6.6192 15.6137 6.6192C17.0537 6.6192 18.2637 7.3692 18.5537 8.5892C18.6037 8.7592 18.6237 8.9392 18.6237 9.0892C18.6237 9.5592 18.3937 9.9392 17.8137 9.9392C17.3537 9.9392 17.0737 9.7492 16.8837 9.3092C16.6437 8.7192 16.2237 8.2692 15.5737 8.2692C14.0137 8.2692 13.8237 11.0992 13.8237 12.6592V12.8092H13.8737C14.2037 11.6092 15.0637 10.8392 16.2037 10.8392C18.0737 10.8392 18.9937 12.6492 18.9937 14.5492C18.9937 16.7592 17.7437 18.5692 15.6037 18.5692ZM8.6037 18.4292C8.0237 18.4292 7.5437 17.9692 7.5437 17.3892V8.8492L6.2637 9.8892C6.1237 9.9892 5.9737 10.0592 5.7537 10.0592C5.3337 10.0592 5.0337 9.7492 5.0337 9.3092C5.0337 8.9392 5.2237 8.6692 5.4837 8.4792L7.0237 7.2692C7.3537 7.0292 7.8337 6.6992 8.4337 6.6992C9.1737 6.6992 9.6237 7.1192 9.6237 7.8492V17.3892C9.6237 17.9692 9.1637 18.4292 8.6037 18.4292ZM15.5737 16.9092C16.5537 16.9092 17.0237 15.6692 17.0237 14.6392C17.0537 13.5992 16.6137 12.3892 15.5737 12.3892C14.5637 12.3892 14.0837 13.5492 14.0837 14.5692C14.0837 15.5892 14.5237 16.9092 15.5737 16.9092Z"
        fillRule="evenodd"
        clipRule="evenodd"
    />
</svg>
        