
<svg
    viewBox={0 0 27.890625 27.890625}
    xmlns="http://www.w3.org/2000/svg"
>
    <path
        fill="inherit"
        d="M13.9427 27.8864C21.6427 27.8864 27.8927 21.6464 27.8927 13.9464C27.8927 6.2464 21.6427 -0.0036 13.9427 -0.0036C6.2527 -0.0036 0.0027 6.2464 0.0027 13.9464C0.0027 21.6464 6.2527 27.8864 13.9427 27.8864ZM13.9427 25.5664C7.5227 25.5664 2.3227 20.3664 2.3227 13.9464C2.3227 7.5164 7.5227 2.3264 13.9427 2.3264C20.3727 2.3264 25.5627 7.5164 25.5627 13.9464C25.5627 20.3664 20.3727 25.5664 13.9427 25.5664ZM10.8727 19.6164C11.4027 19.6164 11.8527 19.1664 11.8527 18.6164V9.3564C11.8527 8.6564 11.4127 8.2464 10.7027 8.2464C10.1427 8.2464 9.6827 8.5564 9.3527 8.8064L7.8427 9.9664C7.6027 10.1564 7.4227 10.4164 7.4227 10.7764C7.4227 11.1964 7.7127 11.4964 8.1227 11.4964C8.3227 11.4964 8.4627 11.4264 8.6027 11.3364L9.8527 10.3264V18.6164C9.8527 19.1664 10.3127 19.6164 10.8727 19.6164ZM15.8227 19.6564C16.3127 19.6564 16.5427 19.4564 16.7227 18.9664L19.8527 10.6264C20.0027 10.1964 20.1127 9.8664 20.1127 9.4764C20.1127 8.8464 19.6227 8.4264 19.0127 8.4264H14.6027C14.1227 8.4264 13.8127 8.7664 13.8127 9.2264C13.8127 9.6964 14.1227 10.0364 14.6027 10.0364H18.1127V10.1564L15.0827 18.0064C14.9527 18.3064 14.9127 18.4864 14.9127 18.8164C14.9127 19.2064 15.1627 19.6564 15.8227 19.6564Z"
        fillRule="evenodd"
        clipRule="evenodd"
    />
</svg>
        