<svg viewBox="0 0 27.890625 27.890625" xmlns="http://www.w3.org/2000/svg"><path d="M13.9427 27.8864C21.6427 27.8864 27.8927 21.6264 27.8927 13.9464C27.8927 6.2464 21.6427 -0.0036 13.9427 -0.0036C6.2627 -0.0036 0.0027 6.2464 0.0027 13.9464C0.0027 21.6264 6.2627 27.8864 13.9427 27.8864ZM10.7827 19.7964C10.2127 19.7964 9.7527 19.3364 9.7527 18.7564V10.2164L8.4527 11.2564C8.3127 11.3564 8.1627 11.4264 7.9527 11.4264C7.5327 11.4264 7.2327 11.1164 7.2327 10.6764C7.2327 10.3064 7.4127 10.0364 7.6727 9.8464L9.2127 8.6364C9.5527 8.3964 10.0327 8.0664 10.6227 8.0664C11.3627 8.0664 11.8127 8.4864 11.8127 9.2164V18.7564C11.8127 19.3364 11.3427 19.7964 10.7827 19.7964ZM15.9027 19.8364C15.2327 19.8364 14.9727 19.3764 14.9727 18.9664C14.9727 18.6164 15.0127 18.4464 15.1327 18.1264L18.2627 10.0464V9.9264H14.6427C14.1527 9.9264 13.8227 9.5664 13.8227 9.0764C13.8227 8.5964 14.1527 8.2464 14.6427 8.2464H19.1927C19.8227 8.2464 20.3327 8.6864 20.3327 9.3364C20.3327 9.7464 20.2227 10.0864 20.0727 10.5264L16.8427 19.1164C16.6527 19.6364 16.4227 19.8364 15.9027 19.8364Z" /></svg>