
<svg
    viewBox={0 0 25.169921875 25.169921875}
    xmlns="http://www.w3.org/2000/svg"
>
    <path
        fill="inherit"
        d="M4.2937 25.1692H20.8737C23.7437 25.1692 25.1737 23.7592 25.1737 20.9492V4.2392C25.1737 1.4192 23.7437 -0.0008 20.8737 -0.0008H4.2937C1.4337 -0.0008 0.0037 1.4192 0.0037 4.2392V20.9492C0.0037 23.7592 1.4337 25.1692 4.2937 25.1692ZM4.3237 22.9692C2.9537 22.9692 2.2037 22.2392 2.2037 20.8192V4.3592C2.2037 2.9392 2.9537 2.1992 4.3237 2.1992H20.8537C22.2037 2.1992 22.9737 2.9392 22.9737 4.3592V20.8192C22.9737 22.2392 22.2037 22.9692 20.8537 22.9692ZM9.5337 18.2492C10.0637 18.2492 10.5137 17.7992 10.5137 17.2492V7.9892C10.5137 7.2892 10.0737 6.8792 9.3837 6.8792C8.8037 6.8792 8.3437 7.1892 8.0137 7.4392L6.5037 8.5992C6.2737 8.7892 6.0837 9.0492 6.0837 9.4092C6.0837 9.8292 6.3737 10.1292 6.7837 10.1292C7.0037 10.1292 7.1237 10.0592 7.2737 9.9692L8.5137 8.9592V17.2492C8.5137 17.7992 8.9737 18.2492 9.5337 18.2492ZM14.4737 18.2892C14.9837 18.2892 15.2037 18.0892 15.3937 17.5992L18.5137 9.2592C18.6637 8.8292 18.7737 8.4992 18.7737 8.1092C18.7737 7.4792 18.2837 7.0592 17.6737 7.0592H13.2637C12.7937 7.0592 12.4737 7.3992 12.4737 7.8592C12.4737 8.3292 12.7937 8.6692 13.2637 8.6692H16.7737V8.7892L13.7437 16.6392C13.6137 16.9392 13.5737 17.1192 13.5737 17.4492C13.5737 17.8392 13.8237 18.2892 14.4737 18.2892Z"
        fillRule="evenodd"
        clipRule="evenodd"
    />
</svg>
        