
<svg
    viewBox={0 0 25.169921875 25.169921875}
    xmlns="http://www.w3.org/2000/svg"
>
    <path
        fill="inherit"
        d="M4.2937 25.1692H20.8737C23.7437 25.1692 25.1737 23.7592 25.1737 20.9492V4.2392C25.1737 1.4192 23.7437 -0.0008 20.8737 -0.0008H4.2937C1.4337 -0.0008 0.0037 1.4192 0.0037 4.2392V20.9492C0.0037 23.7592 1.4337 25.1692 4.2937 25.1692ZM9.4337 18.4292C8.8637 18.4292 8.3937 17.9692 8.3937 17.3892V8.8492L7.1137 9.8892C6.9637 9.9892 6.8237 10.0592 6.6037 10.0592C6.1837 10.0592 5.8837 9.7492 5.8837 9.3092C5.8837 8.9392 6.0737 8.6692 6.3137 8.4792L7.8637 7.2692C8.2037 7.0292 8.6837 6.6992 9.2837 6.6992C10.0037 6.6992 10.4637 7.1192 10.4637 7.8492V17.3892C10.4637 17.9692 9.9937 18.4292 9.4337 18.4292ZM14.5437 18.4692C13.8737 18.4692 13.6137 18.0092 13.6137 17.5992C13.6137 17.2492 13.6537 17.0792 13.7837 16.7592L16.9137 8.6792V8.5592H13.2937C12.8137 8.5592 12.4737 8.1992 12.4737 7.7092C12.4737 7.2292 12.8137 6.8792 13.2937 6.8792H17.8437C18.4737 6.8792 18.9737 7.3192 18.9737 7.9692C18.9737 8.3792 18.8637 8.7192 18.7137 9.1592L15.5037 17.7492C15.3037 18.2692 15.0837 18.4692 14.5437 18.4692Z"
        fillRule="evenodd"
        clipRule="evenodd"
    />
</svg>
        