
<svg
    viewBox={0 0 27.890625 27.890625}
    xmlns="http://www.w3.org/2000/svg"
>
    <path
        fill="inherit"
        d="M13.9427 27.8864C21.6427 27.8864 27.8927 21.6264 27.8927 13.9464C27.8927 6.2464 21.6427 -0.0036 13.9427 -0.0036C6.2627 -0.0036 0.0027 6.2464 0.0027 13.9464C0.0027 21.6264 6.2627 27.8864 13.9427 27.8864ZM17.0127 19.8964C14.9427 19.8964 13.3527 18.6664 13.3527 16.5664C13.3527 15.0364 14.2827 13.9364 15.4927 13.6564V13.6164C14.5727 13.3464 13.6827 12.4964 13.6827 11.0564C13.6827 9.0764 15.2727 8.0164 17.0127 8.0164C19.0027 8.0164 20.3727 9.2464 20.3727 11.0764C20.3727 12.4164 19.5227 13.3264 18.5827 13.6164V13.6564C19.7027 13.9164 20.6727 15.0264 20.6727 16.5664C20.6727 18.4964 19.2527 19.8964 17.0127 19.8964ZM10.1327 19.7964C9.5427 19.7964 9.0827 19.3364 9.0827 18.7564V10.2164L7.7927 11.2564C7.6427 11.3564 7.5227 11.4264 7.2827 11.4264C6.8627 11.4264 6.5727 11.1164 6.5727 10.6764C6.5727 10.3064 6.7627 10.0364 7.0127 9.8464L8.5627 8.6364C8.9027 8.3964 9.3827 8.0664 9.9627 8.0664C10.6927 8.0664 11.1527 8.4864 11.1527 9.2164V18.7564C11.1527 19.3364 10.6827 19.7964 10.1327 19.7964ZM17.0227 12.9764C17.9127 12.9764 18.3727 12.1964 18.3727 11.2664C18.3727 10.3664 17.9327 9.5264 17.0227 9.5264C16.1427 9.5264 15.6527 10.3664 15.6527 11.2664C15.6527 12.0964 16.1227 12.9764 17.0227 12.9764ZM17.0227 18.3564C18.0427 18.3564 18.5527 17.4464 18.5527 16.4064C18.5527 15.3364 18.0227 14.4964 17.0227 14.4964C15.9927 14.4964 15.4927 15.3964 15.4927 16.4064C15.4927 17.4464 15.9927 18.3564 17.0227 18.3564Z"
        fillRule="evenodd"
        clipRule="evenodd"
    />
</svg>
        