
<svg
    viewBox="0 0 27.890625 27.890625"
    xmlns="http://www.w3.org/2000/svg"
>
    <path
        fill="inherit"
        d="M13.9427 27.8864C21.6427 27.8864 27.8927 21.6464 27.8927 13.9464C27.8927 6.2464 21.6427 -0.0036 13.9427 -0.0036C6.2527 -0.0036 0.0027 6.2464 0.0027 13.9464C0.0027 21.6464 6.2527 27.8864 13.9427 27.8864ZM13.9427 25.5664C7.5227 25.5664 2.3227 20.3664 2.3227 13.9464C2.3227 7.5164 7.5227 2.3264 13.9427 2.3264C20.3727 2.3264 25.5627 7.5164 25.5627 13.9464C25.5627 20.3664 20.3727 25.5664 13.9427 25.5664ZM16.8827 19.7164C19.0627 19.7164 20.4427 18.3564 20.4427 16.4864C20.4427 14.9964 19.4927 13.9164 18.4027 13.6764V13.6264C19.3227 13.3464 20.1427 12.4564 20.1427 11.1564C20.1427 9.3964 18.8227 8.1864 16.8827 8.1864C15.2027 8.1864 13.6727 9.2264 13.6727 11.1464C13.6727 12.5364 14.5327 13.3564 15.4227 13.6264V13.6764C14.2427 13.9364 13.3527 15.0164 13.3527 16.4864C13.3527 18.5164 14.8927 19.7164 16.8827 19.7164ZM10.2227 19.6164C10.7627 19.6164 11.2127 19.1664 11.2127 18.6164V9.3564C11.2127 8.6564 10.7727 8.2464 10.0627 8.2464C9.5027 8.2464 9.0327 8.5564 8.7127 8.8064L7.2027 9.9664C6.9627 10.1564 6.7827 10.4164 6.7827 10.7764C6.7827 11.1964 7.0727 11.4964 7.4827 11.4964C7.6927 11.4964 7.8227 11.4264 7.9527 11.3364L9.2127 10.3264V18.6164C9.2127 19.1664 9.6627 19.6164 10.2227 19.6164ZM16.9027 13.0064C16.0227 13.0064 15.5727 12.1564 15.5727 11.3464C15.5727 10.4764 16.0527 9.6564 16.9027 9.6564C17.7827 9.6564 18.2127 10.4764 18.2127 11.3464C18.2127 12.2464 17.7627 13.0064 16.9027 13.0064ZM16.9027 18.2364C15.9027 18.2364 15.4127 17.3464 15.4127 16.3364C15.4127 15.3564 15.9027 14.4764 16.9027 14.4764C17.8727 14.4764 18.3927 15.2964 18.3927 16.3364C18.3927 17.3464 17.8927 18.2364 16.9027 18.2364Z"
        fillRule="evenodd"
        clipRule="evenodd"
    />
</svg>
        