
<svg
    viewBox="0 0 25.169921875 25.169921875"
    xmlns="http://www.w3.org/2000/svg"
>
    <path
        fill="inherit"
        d="M4.2937 25.1692H20.8737C23.7437 25.1692 25.1737 23.7592 25.1737 20.9492V4.2392C25.1737 1.4192 23.7437 -0.0008 20.8737 -0.0008H4.2937C1.4337 -0.0008 0.0037 1.4192 0.0037 4.2392V20.9492C0.0037 23.7592 1.4337 25.1692 4.2937 25.1692ZM15.6637 18.5292C13.5937 18.5292 12.0037 17.2992 12.0037 15.1992C12.0037 13.6692 12.9337 12.5692 14.1337 12.2892V12.2492C13.2337 11.9792 12.3337 11.1292 12.3337 9.6892C12.3337 7.7092 13.9137 6.6492 15.6637 6.6492C17.6537 6.6492 19.0137 7.8792 19.0137 9.7092C19.0137 11.0492 18.1737 11.9592 17.2237 12.2492V12.2892C18.3437 12.5492 19.3137 13.6592 19.3137 15.1992C19.3137 17.1292 17.8937 18.5292 15.6637 18.5292ZM8.7737 18.4292C8.2037 18.4292 7.7337 17.9692 7.7337 17.3892V8.8492L6.4537 9.8892C6.3037 9.9892 6.1637 10.0592 5.9337 10.0592C5.5137 10.0592 5.2237 9.7492 5.2237 9.3092C5.2237 8.9392 5.4137 8.6692 5.6637 8.4792L7.2037 7.2692C7.5437 7.0292 8.0237 6.6992 8.6237 6.6992C9.3337 6.6992 9.8137 7.1192 9.8137 7.8492V17.3892C9.8137 17.9692 9.3237 18.4292 8.7737 18.4292ZM15.6637 11.6092C16.5537 11.6092 17.0237 10.8292 17.0237 9.8992C17.0237 8.9992 16.5837 8.1592 15.6637 8.1592C14.7937 8.1592 14.3037 8.9992 14.3037 9.8992C14.3037 10.7292 14.7637 11.6092 15.6637 11.6092ZM15.6637 16.9892C16.6937 16.9892 17.2037 16.0792 17.2037 15.0392C17.2037 13.9692 16.6637 13.1292 15.6637 13.1292C14.6537 13.1292 14.1337 14.0292 14.1337 15.0392C14.1337 16.0792 14.6437 16.9892 15.6637 16.9892Z"
        fillRule="evenodd"
        clipRule="evenodd"
    />
</svg>
        