
<svg
    viewBox={0 0 25.169921875 25.169921875}
    xmlns="http://www.w3.org/2000/svg"
>
    <path
        fill="inherit"
        d="M4.2937 25.1692H20.8737C23.7437 25.1692 25.1737 23.7592 25.1737 20.9492V4.2392C25.1737 1.4192 23.7437 -0.0008 20.8737 -0.0008H4.2937C1.4337 -0.0008 0.0037 1.4192 0.0037 4.2392V20.9492C0.0037 23.7592 1.4337 25.1692 4.2937 25.1692ZM4.3237 22.9692C2.9537 22.9692 2.2037 22.2392 2.2037 20.8192V4.3592C2.2037 2.9392 2.9537 2.1992 4.3237 2.1992H20.8537C22.2037 2.1992 22.9737 2.9392 22.9737 4.3592V20.8192C22.9737 22.2392 22.2037 22.9692 20.8537 22.9692ZM15.5537 18.3492C17.7237 18.3492 19.1037 16.9892 19.1037 15.1192C19.1037 13.6292 18.1537 12.5492 17.0637 12.3092V12.2592C17.9737 11.9792 18.8037 11.0892 18.8037 9.7892C18.8037 8.0292 17.4837 6.8192 15.5537 6.8192C13.8637 6.8192 12.3337 7.8592 12.3337 9.7792C12.3337 11.1692 13.2037 11.9892 14.0837 12.2592V12.3092C12.9037 12.5692 12.0137 13.6492 12.0137 15.1192C12.0137 17.1492 13.5537 18.3492 15.5537 18.3492ZM8.8837 18.2492C9.4237 18.2492 9.8837 17.7992 9.8837 17.2492V7.9892C9.8837 7.2892 9.4337 6.8792 8.7337 6.8792C8.1637 6.8792 7.6937 7.1892 7.3737 7.4392L5.8637 8.5992C5.6337 8.7892 5.4437 9.0492 5.4437 9.4092C5.4437 9.8292 5.7237 10.1292 6.1437 10.1292C6.3537 10.1292 6.4937 10.0592 6.6337 9.9692L7.8937 8.9592V17.2492C7.8937 17.7992 8.3437 18.2492 8.8837 18.2492ZM15.5537 11.6392C14.6837 11.6392 14.2337 10.7892 14.2337 9.9792C14.2337 9.1092 14.7137 8.2892 15.5537 8.2892C16.4437 8.2892 16.8737 9.1092 16.8737 9.9792C16.8737 10.8792 16.4237 11.6392 15.5537 11.6392ZM15.5537 16.8692C14.5637 16.8692 14.0637 15.9792 14.0637 14.9692C14.0637 13.9892 14.5737 13.1092 15.5537 13.1092C16.5337 13.1092 17.0537 13.9292 17.0537 14.9692C17.0537 15.9792 16.5537 16.8692 15.5537 16.8692Z"
        fillRule="evenodd"
        clipRule="evenodd"
    />
</svg>
        