<svg viewBox="0 0 27.890625 27.890625" xmlns="http://www.w3.org/2000/svg"><path d="M13.9427 27.8864C21.6427 27.8864 27.8927 21.6264 27.8927 13.9464C27.8927 6.2464 21.6427 -0.0036 13.9427 -0.0036C6.2627 -0.0036 0.0027 6.2464 0.0027 13.9464C0.0027 21.6264 6.2627 27.8864 13.9427 27.8864ZM16.1227 15.7064C14.2427 15.7064 13.3327 13.9064 13.3327 12.0064C13.3327 9.7864 14.5727 7.9864 16.7227 7.9864C19.5827 7.9864 20.4227 11.1664 20.4227 13.8364C20.4227 16.7164 19.5927 19.9164 16.6927 19.9164C15.2827 19.9164 14.0527 19.1864 13.7527 17.9464C13.7127 17.7864 13.6827 17.6064 13.6827 17.4464C13.6827 16.9764 13.9227 16.5864 14.5227 16.5864C14.9427 16.5864 15.2327 16.7664 15.4327 17.2264C15.6827 17.8264 16.1027 18.2664 16.7327 18.2664C18.3027 18.2664 18.5027 15.4464 18.5027 13.8864V13.7364H18.4427C18.1127 14.9464 17.2527 15.7064 16.1227 15.7064ZM10.1327 19.7964C9.5727 19.7964 9.1027 19.3364 9.1027 18.7564V10.2164L7.8027 11.2564C7.6727 11.3564 7.5227 11.4264 7.3027 11.4264C6.8727 11.4264 6.5727 11.1164 6.5727 10.6764C6.5727 10.3064 6.7627 10.0364 7.0227 9.8464L8.5727 8.6364C8.9027 8.3964 9.3827 8.0664 9.9827 8.0664C10.7227 8.0664 11.1727 8.4864 11.1727 9.2164V18.7564C11.1727 19.3364 10.7027 19.7964 10.1327 19.7964ZM16.7527 14.1464C17.7727 14.1464 18.2227 13.0064 18.2227 11.9064C18.2227 10.8564 17.8127 9.6364 16.7527 9.6364C15.7627 9.6364 15.3027 10.8564 15.3027 11.9064C15.3027 12.9464 15.7127 14.1464 16.7527 14.1464Z" /></svg>