
<svg
    viewBox={0 0 25.169921875 25.169921875}
    xmlns="http://www.w3.org/2000/svg"
>
    <path
        fill="inherit"
        d="M4.2937 25.1692H20.8737C23.7437 25.1692 25.1737 23.7592 25.1737 20.9492V4.2392C25.1737 1.4192 23.7437 -0.0008 20.8737 -0.0008H4.2937C1.4337 -0.0008 0.0037 1.4192 0.0037 4.2392V20.9492C0.0037 23.7592 1.4337 25.1692 4.2937 25.1692ZM14.7637 14.3392C12.8937 14.3392 11.9737 12.5392 11.9737 10.6392C11.9737 8.4192 13.2237 6.6192 15.3637 6.6192C18.2237 6.6192 19.0837 9.7992 19.0837 12.4692C19.0837 15.3492 18.2337 18.5492 15.3437 18.5492C13.9337 18.5492 12.7037 17.8192 12.4037 16.5792C12.3637 16.4192 12.3337 16.2392 12.3337 16.0792C12.3337 15.6092 12.5737 15.2192 13.1637 15.2192C13.5937 15.2192 13.8737 15.3992 14.0837 15.8592C14.3437 16.4592 14.7537 16.8992 15.3937 16.8992C16.9637 16.8992 17.1437 14.0792 17.1437 12.5192V12.3692H17.0937C16.7737 13.5792 15.9037 14.3392 14.7637 14.3392ZM8.7937 18.4292C8.2137 18.4292 7.7537 17.9692 7.7537 17.3892V8.8492L6.4537 9.8892C6.3137 9.9892 6.1637 10.0592 5.9437 10.0592C5.5237 10.0592 5.2237 9.7492 5.2237 9.3092C5.2237 8.9392 5.4137 8.6692 5.6737 8.4792L7.2237 7.2692C7.5437 7.0292 8.0237 6.6992 8.6237 6.6992C9.3637 6.6992 9.8137 7.1192 9.8137 7.8492V17.3892C9.8137 17.9692 9.3537 18.4292 8.7937 18.4292ZM15.3937 12.7792C16.4237 12.7792 16.8737 11.6392 16.8737 10.5392C16.8737 9.4892 16.4637 8.2692 15.3937 8.2692C14.4237 8.2692 13.9437 9.4892 13.9437 10.5392C13.9437 11.5792 14.3737 12.7792 15.3937 12.7792Z"
        fillRule="evenodd"
        clipRule="evenodd"
    />
</svg>
        