
<svg
    viewBox="0 0 27.890625 27.890625"
    xmlns="http://www.w3.org/2000/svg"
>
    <path
        fill="inherit"
        d="M13.9427 27.8864C21.6427 27.8864 27.8927 21.6464 27.8927 13.9464C27.8927 6.2464 21.6427 -0.0036 13.9427 -0.0036C6.2527 -0.0036 0.0027 6.2464 0.0027 13.9464C0.0027 21.6464 6.2527 27.8864 13.9427 27.8864ZM13.9427 25.5664C7.5227 25.5664 2.3227 20.3664 2.3227 13.9464C2.3227 7.5164 7.5227 2.3264 13.9427 2.3264C20.3727 2.3264 25.5627 7.5164 25.5627 13.9464C25.5627 20.3664 20.3727 25.5664 13.9427 25.5664ZM10.8327 20.1364H17.8527C18.3927 20.1364 18.7727 19.7964 18.7727 19.2464C18.7727 18.6764 18.3927 18.3464 17.8527 18.3464H12.8627V18.2564L16.1227 14.7964C17.3227 13.4964 18.1727 12.4164 18.1727 10.8964C18.1727 8.8164 16.5027 7.4364 13.9727 7.4364C12.0327 7.4364 10.3227 8.6164 9.8727 10.1464C9.8127 10.3464 9.8027 10.5164 9.8027 10.6864C9.8027 11.2264 10.1627 11.5664 10.6927 11.5664C11.1727 11.5664 11.4127 11.2664 11.6627 10.8864C12.0127 10.0464 12.7427 9.1764 14.0727 9.1764C15.3627 9.1764 16.2327 9.9264 16.2327 11.0564C16.2327 12.0564 15.3927 12.8964 14.5927 13.7364L10.2127 18.4264C9.9827 18.6864 9.8527 18.9664 9.8527 19.2464C9.8527 19.7964 10.2227 20.1364 10.8327 20.1364Z"
        fillRule="evenodd"
        clipRule="evenodd"
    />
</svg>
        