
<svg
    viewBox={0 0 27.890625 27.890625}
    xmlns="http://www.w3.org/2000/svg"
>
    <path
        fill="inherit"
        d="M13.9427 27.8864C21.6427 27.8864 27.8927 21.6264 27.8927 13.9464C27.8927 6.2464 21.6427 -0.0036 13.9427 -0.0036C6.2627 -0.0036 0.0027 6.2464 0.0027 13.9464C0.0027 21.6264 6.2627 27.8864 13.9427 27.8864ZM10.7427 20.3464C10.1127 20.3464 9.7327 19.9864 9.7327 19.4164C9.7327 19.1264 9.8727 18.8364 10.1027 18.5664L14.6127 13.7364C15.4527 12.8664 16.3127 12.0064 16.3127 10.9764C16.3127 9.8164 15.4227 9.0364 14.0827 9.0364C12.7327 9.0364 11.9727 9.9364 11.6027 10.7864C11.3627 11.1864 11.1027 11.4964 10.6127 11.4964C10.0527 11.4964 9.6827 11.1464 9.6827 10.5964C9.6827 10.4064 9.6927 10.2364 9.7627 10.0264C10.2227 8.4464 11.9927 7.2364 13.9827 7.2364C16.5927 7.2364 18.3227 8.6664 18.3227 10.7964C18.3227 12.3764 17.4427 13.4964 16.2027 14.8164L12.8627 18.3864V18.4864H17.9927C18.5527 18.4864 18.9527 18.8264 18.9527 19.4164C18.9527 19.9864 18.5527 20.3464 17.9927 20.3464Z"
        fillRule="evenodd"
        clipRule="evenodd"
    />
</svg>
        