
<svg
    viewBox={0 0 25.169921875 20.603515625}
    xmlns="http://www.w3.org/2000/svg"
>
    <path
        fill="inherit"
        d="M0.0037 19.4923C0.0037 20.1023 0.4937 20.6023 1.0937 20.6023C1.7137 20.6023 2.2037 20.1023 2.2037 19.4923V1.0923C2.2037 0.4923 1.7137 0.0023 1.0937 0.0023C0.4937 0.0023 0.0037 0.4923 0.0037 1.0923ZM22.9737 19.4923C22.9737 20.1023 23.4737 20.6023 24.0737 20.6023C24.6737 20.6023 25.1737 20.1023 25.1737 19.4923V1.0923C25.1737 0.4923 24.6737 0.0023 24.0737 0.0023C23.4737 0.0023 22.9737 0.4923 22.9737 1.0923ZM9.8437 16.6423H15.5537C16.1037 16.6423 16.4437 16.2923 16.4437 15.7523C16.4437 15.2123 16.1037 14.8923 15.5537 14.8923H11.5637V14.7623L13.8737 12.1923C14.4337 11.5623 14.8737 11.0223 15.2137 10.5723C15.8137 9.7323 16.1637 8.9423 16.1637 7.9323C16.1637 5.7823 14.5637 4.5023 12.4737 4.5023C10.7237 4.5023 9.2837 5.6623 8.9237 7.0023C8.8837 7.2023 8.8437 7.3923 8.8437 7.5923C8.8437 8.1523 9.2037 8.5023 9.7637 8.5023C10.2437 8.5023 10.5437 8.2623 10.7237 7.8023C10.9737 6.8323 11.5437 6.2023 12.4737 6.2023C13.4937 6.2023 14.0637 7.0023 14.0637 8.0123C14.0637 8.7623 13.8037 9.3223 13.3837 9.9423C13.1237 10.3123 12.7537 10.7723 12.2937 11.3223L9.4037 14.5723C9.0937 14.9023 8.8137 15.2423 8.8137 15.7323C8.8137 16.1723 9.0637 16.6423 9.8437 16.6423Z"
        fillRule="evenodd"
        clipRule="evenodd"
    />
</svg>
        