
<svg
    viewBox={0 0 25.169921875 25.169921875}
    xmlns="http://www.w3.org/2000/svg"
>
    <path
        fill="inherit"
        d="M4.2937 25.1692H20.8737C23.7437 25.1692 25.1737 23.7592 25.1737 20.9492V4.2392C25.1737 1.4192 23.7437 -0.0008 20.8737 -0.0008H4.2937C1.4337 -0.0008 0.0037 1.4192 0.0037 4.2392V20.9492C0.0037 23.7592 1.4337 25.1692 4.2937 25.1692ZM9.3937 18.9792C8.7637 18.9792 8.3837 18.6192 8.3837 18.0492C8.3837 17.7592 8.5137 17.4692 8.7637 17.1992L13.2637 12.3692C14.0937 11.4992 14.9737 10.6392 14.9737 9.6092C14.9737 8.4492 14.0637 7.6692 12.7237 7.6692C11.3737 7.6692 10.6237 8.5692 10.2537 9.4192C10.0037 9.8192 9.7637 10.1292 9.2537 10.1292C8.6937 10.1292 8.3237 9.7792 8.3237 9.2292C8.3237 9.0392 8.3437 8.8692 8.4037 8.6592C8.8737 7.0792 10.6337 5.8692 12.6337 5.8692C15.2437 5.8692 16.9637 7.2992 16.9637 9.4292C16.9637 11.0092 16.0937 12.1292 14.8437 13.4492L11.5137 17.0192V17.1192H16.6437C17.2037 17.1192 17.5937 17.4592 17.5937 18.0492C17.5937 18.6192 17.2037 18.9792 16.6437 18.9792Z"
        fillRule="evenodd"
        clipRule="evenodd"
    />
</svg>
        