
<svg
    viewBox={0 0 25.169921875 25.169921875}
    xmlns="http://www.w3.org/2000/svg"
>
    <path
        fill="inherit"
        d="M4.2937 25.1692H20.8737C23.7437 25.1692 25.1737 23.7592 25.1737 20.9492V4.2392C25.1737 1.4192 23.7437 -0.0008 20.8737 -0.0008H4.2937C1.4337 -0.0008 0.0037 1.4192 0.0037 4.2392V20.9492C0.0037 23.7592 1.4337 25.1692 4.2937 25.1692ZM4.3237 22.9692C2.9537 22.9692 2.2037 22.2392 2.2037 20.8192V4.3592C2.2037 2.9392 2.9537 2.1992 4.3237 2.1992H20.8537C22.2037 2.1992 22.9737 2.9392 22.9737 4.3592V20.8192C22.9737 22.2392 22.2037 22.9692 20.8537 22.9692ZM9.4837 18.7692H16.5137C17.0537 18.7692 17.4337 18.4292 17.4337 17.8792C17.4337 17.3092 17.0537 16.9792 16.5137 16.9792H11.5237V16.8892L14.7837 13.4292C15.9837 12.1292 16.8337 11.0492 16.8337 9.5292C16.8337 7.4492 15.1637 6.0692 12.6337 6.0692C10.6937 6.0692 8.9837 7.2492 8.5337 8.7792C8.4737 8.9792 8.4637 9.1492 8.4637 9.3192C8.4637 9.8592 8.8137 10.1992 9.3537 10.1992C9.8437 10.1992 10.0737 9.8992 10.3237 9.5192C10.6737 8.6792 11.4037 7.8092 12.7237 7.8092C14.0237 7.8092 14.9037 8.5592 14.9037 9.6892C14.9037 10.6892 14.0537 11.5292 13.2437 12.3692L8.8837 17.0592C8.6437 17.3192 8.5137 17.5992 8.5137 17.8792C8.5137 18.4292 8.8837 18.7692 9.4837 18.7692Z"
        fillRule="evenodd"
        clipRule="evenodd"
    />
</svg>
        