
<svg
    viewBox="0 0 25.169921875 25.169921875"
    xmlns="http://www.w3.org/2000/svg"
>
    <path
        fill="inherit"
        d="M4.2937 25.1692H20.8737C23.7437 25.1692 25.1737 23.7592 25.1737 20.9492V4.2392C25.1737 1.4192 23.7437 -0.0008 20.8737 -0.0008H4.2937C1.4337 -0.0008 0.0037 1.4192 0.0037 4.2392V20.9492C0.0037 23.7592 1.4337 25.1692 4.2937 25.1692ZM4.3237 22.9692C2.9537 22.9692 2.2037 22.2392 2.2037 20.8192V4.3592C2.2037 2.9392 2.9537 2.1992 4.3237 2.1992H20.8537C22.2037 2.1992 22.9737 2.9392 22.9737 4.3592V20.8192C22.9737 22.2392 22.2037 22.9692 20.8537 22.9692ZM6.1937 18.0992H10.9337C11.4337 18.0992 11.7137 17.7892 11.7137 17.3092C11.7137 16.7892 11.4137 16.4992 10.9337 16.4992H7.6937V16.3892L9.6937 13.8592C11.0637 12.1692 11.5137 11.1592 11.5137 9.9492C11.5137 8.1092 10.2537 6.7692 8.3637 6.7692C6.6137 6.7692 5.2937 8.2192 5.2937 9.6392C5.2937 10.1492 5.5937 10.4992 6.1137 10.4992C6.5637 10.4992 6.8337 10.2992 6.9837 9.8392C7.2337 8.9292 7.5737 8.3492 8.3537 8.3492C9.1837 8.3492 9.6437 9.0792 9.6437 10.0492C9.6437 11.1392 8.8837 12.2492 8.1637 13.1792L5.7837 16.2192C5.5237 16.5392 5.2737 16.8892 5.2737 17.3092C5.2737 17.7692 5.5737 18.0992 6.1937 18.0992ZM16.6937 18.3892C19.4137 18.3892 20.2237 15.3292 20.2237 12.5792C20.2237 9.8292 19.4137 6.7692 16.6937 6.7692C13.9637 6.7692 13.1537 9.8292 13.1537 12.5792C13.1537 15.3292 13.9637 18.3892 16.6937 18.3892ZM16.6937 16.7592C15.5737 16.7592 15.1437 14.9392 15.1437 12.5792C15.1437 10.1992 15.5737 8.3792 16.6937 8.3792C17.8137 8.3792 18.2237 10.1992 18.2237 12.5792C18.2237 14.9392 17.8137 16.7592 16.6937 16.7592Z"
        fillRule="evenodd"
        clipRule="evenodd"
    />
</svg>
        