
<svg
    viewBox={0 0 27.890625 27.890625}
    xmlns="http://www.w3.org/2000/svg"
>
    <path
        fill="inherit"
        d="M13.9427 27.8864C21.6427 27.8864 27.8927 21.6464 27.8927 13.9464C27.8927 6.2464 21.6427 -0.0036 13.9427 -0.0036C6.2527 -0.0036 0.0027 6.2464 0.0027 13.9464C0.0027 21.6464 6.2527 27.8864 13.9427 27.8864ZM13.9427 25.5664C7.5227 25.5664 2.3227 20.3664 2.3227 13.9464C2.3227 7.5164 7.5227 2.3264 13.9427 2.3264C20.3727 2.3264 25.5627 7.5164 25.5627 13.9464C25.5627 20.3664 20.3727 25.5664 13.9427 25.5664ZM8.5327 19.4664H13.2727C13.7527 19.4664 14.0527 19.1564 14.0527 18.6764C14.0527 18.1564 13.7427 17.8664 13.2727 17.8664H10.0327V17.7564L12.0327 15.2264C13.4027 13.5364 13.8527 12.5264 13.8527 11.3164C13.8527 9.4764 12.5927 8.1364 10.7027 8.1364C8.9527 8.1364 7.6327 9.5864 7.6327 11.0064C7.6327 11.5164 7.9327 11.8664 8.4527 11.8664C8.9027 11.8664 9.1727 11.6664 9.3127 11.2064C9.5727 10.2964 9.9127 9.7164 10.6927 9.7164C11.5227 9.7164 11.9727 10.4464 11.9727 11.4164C11.9727 12.5064 11.2227 13.6164 10.5027 14.5464L8.1227 17.5864C7.8627 17.9064 7.6127 18.2564 7.6127 18.6764C7.6127 19.1364 7.9127 19.4664 8.5327 19.4664ZM18.6227 19.6164C19.1727 19.6164 19.6227 19.1664 19.6227 18.6164V9.3564C19.6227 8.6564 19.1827 8.2464 18.4727 8.2464C17.8927 8.2464 17.4327 8.5564 17.1027 8.8064L15.6027 9.9664C15.3627 10.1564 15.1727 10.4164 15.1727 10.7764C15.1727 11.1964 15.4627 11.4964 15.8727 11.4964C16.0927 11.4964 16.2327 11.4264 16.3627 11.3364L17.6227 10.3264V18.6164C17.6227 19.1664 18.0727 19.6164 18.6227 19.6164Z"
        fillRule="evenodd"
        clipRule="evenodd"
    />
</svg>
        