
<svg
    viewBox="0 0 27.890625 27.890625"
    xmlns="http://www.w3.org/2000/svg"
>
    <path
        fill="inherit"
        d="M13.9427 27.8864C21.6427 27.8864 27.8927 21.6264 27.8927 13.9464C27.8927 6.2464 21.6427 -0.0036 13.9427 -0.0036C6.2627 -0.0036 0.0027 6.2464 0.0027 13.9464C0.0027 21.6264 6.2627 27.8864 13.9427 27.8864ZM8.3827 19.6464C7.7427 19.6464 7.4327 19.3064 7.4327 18.8264C7.4327 18.3864 7.6827 18.0364 7.9527 17.6864L10.4027 14.5764C11.1527 13.6164 11.9327 12.4664 11.9327 11.3364C11.9327 10.3364 11.4727 9.5964 10.6127 9.5964C9.8027 9.5964 9.4627 10.1864 9.1827 11.1264C9.0527 11.5964 8.7627 11.8164 8.3027 11.8164C7.7527 11.8164 7.4527 11.4464 7.4527 10.9064C7.4527 9.4464 8.8227 7.9564 10.6227 7.9564C12.5627 7.9564 13.8727 9.3364 13.8727 11.2364C13.8727 12.4864 13.4127 13.5264 11.9927 15.2764L9.9427 17.8664V17.9964H13.2727C13.7527 17.9964 14.0827 18.2764 14.0827 18.8264C14.0827 19.3164 13.7627 19.6464 13.2727 19.6464ZM18.8027 19.7964C18.2227 19.7964 17.7627 19.3364 17.7627 18.7764V10.2164L16.4727 11.2664C16.3227 11.3564 16.1827 11.4264 15.9527 11.4264C15.5327 11.4264 15.2327 11.1164 15.2327 10.6764C15.2327 10.3064 15.4327 10.0364 15.6827 9.8464L17.2227 8.6564C17.5727 8.3964 18.0427 8.0664 18.6327 8.0664C19.3727 8.0664 19.8227 8.4864 19.8227 9.2164V18.7764C19.8227 19.3364 19.3627 19.7964 18.8027 19.7964Z"
        fillRule="evenodd"
        clipRule="evenodd"
    />
</svg>
        