
<svg
    viewBox="0 0 25.169921875 25.169921875"
    xmlns="http://www.w3.org/2000/svg"
>
    <path
        fill="inherit"
        d="M4.2937 25.1692H20.8737C23.7437 25.1692 25.1737 23.7592 25.1737 20.9492V4.2392C25.1737 1.4192 23.7437 -0.0008 20.8737 -0.0008H4.2937C1.4337 -0.0008 0.0037 1.4192 0.0037 4.2392V20.9492C0.0037 23.7592 1.4337 25.1692 4.2937 25.1692ZM4.3237 22.9692C2.9537 22.9692 2.2037 22.2392 2.2037 20.8192V4.3592C2.2037 2.9392 2.9537 2.1992 4.3237 2.1992H20.8537C22.2037 2.1992 22.9737 2.9392 22.9737 4.3592V20.8192C22.9737 22.2392 22.2037 22.9692 20.8537 22.9692ZM7.1937 18.0992H11.9337C12.4237 18.0992 12.7137 17.7892 12.7137 17.3092C12.7137 16.7892 12.4137 16.4992 11.9337 16.4992H8.6937V16.3892L10.6937 13.8592C12.0537 12.1692 12.5137 11.1592 12.5137 9.9492C12.5137 8.1092 11.2537 6.7692 9.3637 6.7692C7.6137 6.7692 6.2937 8.2192 6.2937 9.6392C6.2937 10.1492 6.5937 10.4992 7.1137 10.4992C7.5637 10.4992 7.8337 10.2992 7.9737 9.8392C8.2337 8.9292 8.5737 8.3492 9.3537 8.3492C10.1837 8.3492 10.6337 9.0792 10.6337 10.0492C10.6337 11.1392 9.8837 12.2492 9.1637 13.1792L6.7837 16.2192C6.5237 16.5392 6.2737 16.8892 6.2737 17.3092C6.2737 17.7692 6.5737 18.0992 7.1937 18.0992ZM17.2837 18.2492C17.8237 18.2492 18.2837 17.7992 18.2837 17.2492V7.9892C18.2837 7.2892 17.8437 6.8792 17.1337 6.8792C16.5537 6.8792 16.0937 7.1892 15.7737 7.4392L14.2737 8.5992C14.0237 8.7892 13.8337 9.0492 13.8337 9.4092C13.8337 9.8292 14.1237 10.1292 14.5337 10.1292C14.7537 10.1292 14.8937 10.0592 15.0237 9.9692L16.2837 8.9592V17.2492C16.2837 17.7992 16.7337 18.2492 17.2837 18.2492Z"
        fillRule="evenodd"
        clipRule="evenodd"
    />
</svg>
        