
<svg
    viewBox="0 0 27.890625 27.890625"
    xmlns="http://www.w3.org/2000/svg"
>
    <path
        fill="inherit"
        d="M13.9427 27.8864C21.6427 27.8864 27.8927 21.6464 27.8927 13.9464C27.8927 6.2464 21.6427 -0.0036 13.9427 -0.0036C6.2527 -0.0036 0.0027 6.2464 0.0027 13.9464C0.0027 21.6464 6.2527 27.8864 13.9427 27.8864ZM13.9427 25.5664C7.5227 25.5664 2.3227 20.3664 2.3227 13.9464C2.3227 7.5164 7.5227 2.3264 13.9427 2.3264C20.3727 2.3264 25.5627 7.5164 25.5627 13.9464C25.5627 20.3664 20.3727 25.5664 13.9427 25.5664ZM7.7927 19.4664H12.5327C13.0327 19.4664 13.3127 19.1564 13.3127 18.6764C13.3127 18.1564 13.0127 17.8664 12.5327 17.8664H9.2927V17.7564L11.2927 15.2264C12.6627 13.5364 13.1127 12.5264 13.1127 11.3164C13.1127 9.4764 11.8527 8.1364 9.9627 8.1364C8.2127 8.1364 6.8927 9.5864 6.8927 11.0064C6.8927 11.5164 7.1927 11.8664 7.7127 11.8664C8.1627 11.8664 8.4327 11.6664 8.5827 11.2064C8.8327 10.2964 9.1727 9.7164 9.9627 9.7164C10.7827 9.7164 11.2527 10.4464 11.2527 11.4164C11.2527 12.5064 10.4827 13.6164 9.7627 14.5464L7.3827 17.5864C7.1327 17.9064 6.8727 18.2564 6.8727 18.6764C6.8727 19.1364 7.1827 19.4664 7.7927 19.4664ZM15.6427 19.4664H20.3827C20.8627 19.4664 21.1527 19.1564 21.1527 18.6764C21.1527 18.1564 20.8527 17.8664 20.3827 17.8664H17.1327V17.7564L19.1227 15.2264C20.4927 13.5364 20.9427 12.5264 20.9427 11.3164C20.9427 9.4764 19.6827 8.1364 17.8027 8.1364C16.0627 8.1364 14.7427 9.5864 14.7427 11.0064C14.7427 11.5164 15.0227 11.8664 15.5427 11.8664C15.9927 11.8664 16.2827 11.6664 16.4227 11.2064C16.6827 10.2964 17.0127 9.7164 17.8027 9.7164C18.6227 9.7164 19.0827 10.4464 19.0827 11.4164C19.0827 12.5064 18.3227 13.6164 17.5927 14.5464L15.2127 17.5864C14.9727 17.9064 14.7127 18.2564 14.7127 18.6764C14.7127 19.1364 15.0127 19.4664 15.6427 19.4664Z"
        fillRule="evenodd"
        clipRule="evenodd"
    />
</svg>
        