
<svg
    viewBox={0 0 27.890625 27.890625}
    xmlns="http://www.w3.org/2000/svg"
>
    <path
        fill="inherit"
        d="M13.9427 27.8864C21.6427 27.8864 27.8927 21.6264 27.8927 13.9464C27.8927 6.2464 21.6427 -0.0036 13.9427 -0.0036C6.2627 -0.0036 0.0027 6.2464 0.0027 13.9464C0.0027 21.6264 6.2627 27.8864 13.9427 27.8864ZM7.6127 19.6464C6.9727 19.6464 6.6627 19.3064 6.6627 18.8264C6.6627 18.3864 6.9327 18.0364 7.1827 17.6864L9.6227 14.5764C10.3727 13.6164 11.1727 12.4664 11.1727 11.3464C11.1727 10.3364 10.6927 9.5964 9.8427 9.5964C9.0327 9.5964 8.6827 10.1864 8.4327 11.1264C8.2727 11.5964 7.9827 11.8164 7.5227 11.8164C6.9827 11.8164 6.6727 11.4464 6.6727 10.9264C6.6727 9.4464 8.0427 7.9564 9.8427 7.9564C11.8027 7.9564 13.0927 9.3364 13.0927 11.2364C13.0927 12.4864 12.6327 13.5264 11.2227 15.2864L9.1627 17.8664V17.9964H12.4927C13.0027 17.9964 13.3027 18.2964 13.3027 18.8264C13.3027 19.3164 13.0127 19.6464 12.4927 19.6464ZM15.7127 19.6464C15.0527 19.6464 14.7527 19.3064 14.7527 18.8264C14.7527 18.3864 15.0127 18.0364 15.2727 17.6864L17.7227 14.5764C18.4527 13.6164 19.2527 12.4664 19.2527 11.3464C19.2527 10.3364 18.7727 9.5964 17.9327 9.5964C17.1127 9.5964 16.7927 10.1864 16.5127 11.1264C16.3827 11.5964 16.0827 11.8164 15.6127 11.8164C15.0627 11.8164 14.7827 11.4464 14.7827 10.9264C14.7827 9.4464 16.1427 7.9564 17.9327 7.9564C19.8827 7.9564 21.1827 9.3364 21.1827 11.2364C21.1827 12.4864 20.7127 13.5264 19.3027 15.2864L17.2527 17.8664V17.9964H20.6027C21.0827 17.9964 21.3927 18.2964 21.3927 18.8264C21.3927 19.3164 21.0927 19.6464 20.6027 19.6464Z"
        fillRule="evenodd"
        clipRule="evenodd"
    />
</svg>
        