
<svg
    viewBox={0 0 25.169921875 25.169921875}
    xmlns="http://www.w3.org/2000/svg"
>
    <path
        fill="inherit"
        d="M4.2937 25.1692H20.8737C23.7437 25.1692 25.1737 23.7592 25.1737 20.9492V4.2392C25.1737 1.4192 23.7437 -0.0008 20.8737 -0.0008H4.2937C1.4337 -0.0008 0.0037 1.4192 0.0037 4.2392V20.9492C0.0037 23.7592 1.4337 25.1692 4.2937 25.1692ZM6.2737 18.2792C5.6237 18.2792 5.3037 17.9392 5.3037 17.4592C5.3037 17.0192 5.5737 16.6692 5.8237 16.3192L8.2737 13.2092C9.0237 12.2492 9.8137 11.0992 9.8137 9.9792C9.8137 8.9692 9.3337 8.2292 8.4937 8.2292C7.6837 8.2292 7.3437 8.8192 7.0837 9.7592C6.9337 10.2292 6.6337 10.4492 6.1637 10.4492C5.6337 10.4492 5.3137 10.0792 5.3137 9.5592C5.3137 8.0792 6.7037 6.5892 8.4937 6.5892C10.4437 6.5892 11.7437 7.9692 11.7437 9.8692C11.7437 11.1192 11.2837 12.1592 9.8737 13.9192L7.8037 16.4992V16.6292H11.1537C11.6437 16.6292 11.9537 16.9292 11.9537 17.4592C11.9537 17.9492 11.6637 18.2792 11.1537 18.2792ZM14.3537 18.2792C13.7037 18.2792 13.3937 17.9392 13.3937 17.4592C13.3937 17.0192 13.6537 16.6692 13.9337 16.3192L16.3637 13.2092C17.1037 12.2492 17.8937 11.0992 17.8937 9.9792C17.8937 8.9692 17.4137 8.2292 16.5837 8.2292C15.7737 8.2292 15.4337 8.8192 15.1637 9.7592C15.0237 10.2292 14.7237 10.4492 14.2637 10.4492C13.7137 10.4492 13.4237 10.0792 13.4237 9.5592C13.4237 8.0792 14.7937 6.5892 16.5937 6.5892C18.5437 6.5892 19.8237 7.9692 19.8237 9.8692C19.8237 11.1192 19.3737 12.1592 17.9537 13.9192L15.9037 16.4992V16.6292H19.2537C19.7237 16.6292 20.0537 16.9292 20.0537 17.4592C20.0537 17.9492 19.7437 18.2792 19.2537 18.2792Z"
        fillRule="evenodd"
        clipRule="evenodd"
    />
</svg>
        