
<svg
    viewBox="0 0 27.890625 27.890625"
    xmlns="http://www.w3.org/2000/svg"
>
    <path
        fill="inherit"
        d="M13.9427 27.8864C21.6427 27.8864 27.8927 21.6464 27.8927 13.9464C27.8927 6.2464 21.6427 -0.0036 13.9427 -0.0036C6.2527 -0.0036 0.0027 6.2464 0.0027 13.9464C0.0027 21.6464 6.2527 27.8864 13.9427 27.8864ZM13.9427 25.5664C7.5227 25.5664 2.3227 20.3664 2.3227 13.9464C2.3227 7.5164 7.5227 2.3264 13.9427 2.3264C20.3727 2.3264 25.5627 7.5164 25.5627 13.9464C25.5627 20.3664 20.3727 25.5664 13.9427 25.5664ZM7.5427 19.4664H12.2927C12.7827 19.4664 13.0727 19.1564 13.0727 18.6764C13.0727 18.1564 12.7727 17.8664 12.2927 17.8664H9.0527V17.7564L11.0427 15.2264C12.4127 13.5364 12.8627 12.5264 12.8627 11.3164C12.8627 9.4764 11.6027 8.1364 9.7227 8.1364C7.9727 8.1364 6.6427 9.5864 6.6427 11.0064C6.6427 11.5164 6.9427 11.8664 7.4627 11.8664C7.9127 11.8664 8.1927 11.6664 8.3427 11.2064C8.5827 10.2964 8.9327 9.7164 9.7027 9.7164C10.5427 9.7164 11.0027 10.4464 11.0027 11.4164C11.0027 12.5064 10.2427 13.6164 9.5127 14.5464L7.1327 17.5864C6.8927 17.9064 6.6327 18.2564 6.6327 18.6764C6.6327 19.1364 6.9327 19.4664 7.5427 19.4664ZM17.8727 19.7164C19.8427 19.7164 21.3427 18.4864 21.3427 16.4364C21.3427 14.7364 20.3327 13.9064 19.1727 13.7764V13.7364C20.4127 13.4164 21.0127 12.3064 21.0127 11.1564C21.0127 9.2664 19.6027 8.1864 17.8327 8.1864C16.4027 8.1864 15.1927 8.9864 14.7927 10.1964C14.7227 10.4564 14.6927 10.7064 14.6927 10.9364C14.6927 11.3864 14.9827 11.7464 15.5327 11.7464C15.9927 11.7464 16.2727 11.5664 16.4027 11.0864C16.6227 10.2764 17.0527 9.7764 17.8327 9.7764C18.7327 9.7764 19.1527 10.4764 19.1527 11.3764C19.1527 12.3764 18.5927 13.0964 17.5727 13.0964H17.2527C16.7927 13.0964 16.4927 13.3864 16.4927 13.8364C16.4927 14.2864 16.7927 14.5464 17.2527 14.5464H17.5927C18.7627 14.5464 19.4027 15.1864 19.4027 16.3764C19.4027 17.3264 18.8927 18.1264 17.8827 18.1264C16.8827 18.1264 16.4327 17.4564 16.2727 16.8264C16.1327 16.3964 15.8427 16.1564 15.4127 16.1564C14.8727 16.1564 14.5027 16.4864 14.5027 17.0264C14.5027 17.2664 14.5427 17.5164 14.6127 17.7364C15.0127 19.0064 16.4027 19.7164 17.8727 19.7164Z"
        fillRule="evenodd"
        clipRule="evenodd"
    />
</svg>
        