
<svg
    viewBox="0 0 25.169921875 25.169921875"
    xmlns="http://www.w3.org/2000/svg"
>
    <path
        fill="inherit"
        d="M4.2937 25.1692H20.8737C23.7437 25.1692 25.1737 23.7592 25.1737 20.9492V4.2392C25.1737 1.4192 23.7437 -0.0008 20.8737 -0.0008H4.2937C1.4337 -0.0008 0.0037 1.4192 0.0037 4.2392V20.9492C0.0037 23.7592 1.4337 25.1692 4.2937 25.1692ZM4.3237 22.9692C2.9537 22.9692 2.2037 22.2392 2.2037 20.8192V4.3592C2.2037 2.9392 2.9537 2.1992 4.3237 2.1992H20.8537C22.2037 2.1992 22.9737 2.9392 22.9737 4.3592V20.8192C22.9737 22.2392 22.2037 22.9692 20.8537 22.9692ZM6.2037 18.0992H10.9637C11.4437 18.0992 11.7337 17.7892 11.7337 17.3092C11.7337 16.7892 11.4337 16.4992 10.9637 16.4992H7.7137V16.3892L9.7037 13.8592C11.0737 12.1692 11.5237 11.1592 11.5237 9.9492C11.5237 8.1092 10.2637 6.7692 8.3837 6.7692C6.6337 6.7692 5.3037 8.2192 5.3037 9.6392C5.3037 10.1492 5.6037 10.4992 6.1237 10.4992C6.5737 10.4992 6.8537 10.2992 7.0037 9.8392C7.2437 8.9292 7.5837 8.3492 8.3837 8.3492C9.2037 8.3492 9.6637 9.0792 9.6637 10.0492C9.6637 11.1392 8.9037 12.2492 8.1737 13.1792L5.7937 16.2192C5.5537 16.5392 5.2937 16.8892 5.2937 17.3092C5.2937 17.7692 5.5937 18.0992 6.2037 18.0992ZM16.5337 18.3492C18.4937 18.3492 20.0037 17.1192 20.0037 15.0692C20.0037 13.3692 18.9937 12.5392 17.8437 12.4092V12.3692C19.0737 12.0492 19.6737 10.9392 19.6737 9.7892C19.6737 7.8992 18.2637 6.8192 16.4837 6.8192C15.0637 6.8192 13.8537 7.6192 13.4537 8.8292C13.3837 9.0892 13.3537 9.3392 13.3537 9.5692C13.3537 10.0192 13.6537 10.3792 14.1937 10.3792C14.6537 10.3792 14.9337 10.1992 15.0637 9.7192C15.2837 8.9092 15.7137 8.4092 16.4837 8.4092C17.3937 8.4092 17.8137 9.1092 17.8137 10.0092C17.8137 11.0092 17.2637 11.7292 16.2437 11.7292H15.9137C15.4537 11.7292 15.1437 12.0192 15.1437 12.4692C15.1437 12.9192 15.4637 13.1792 15.9137 13.1792H16.2537C17.4137 13.1792 18.0637 13.8192 18.0637 15.0092C18.0637 15.9592 17.5537 16.7592 16.5437 16.7592C15.5437 16.7592 15.0937 16.0892 14.9337 15.4592C14.8037 15.0292 14.5037 14.7892 14.0637 14.7892C13.5337 14.7892 13.1837 15.1192 13.1837 15.6592C13.1837 15.8992 13.2037 16.1492 13.2937 16.3692C13.6737 17.6392 15.0637 18.3492 16.5337 18.3492Z"
        fillRule="evenodd"
        clipRule="evenodd"
    />
</svg>
        