
<svg
    viewBox="0 0 25.169921875 25.169921875"
    xmlns="http://www.w3.org/2000/svg"
>
    <path
        fill="inherit"
        d="M4.2937 25.1692H20.8737C23.7437 25.1692 25.1737 23.7592 25.1737 20.9492V4.2392C25.1737 1.4192 23.7437 -0.0008 20.8737 -0.0008H4.2937C1.4337 -0.0008 0.0037 1.4192 0.0037 4.2392V20.9492C0.0037 23.7592 1.4337 25.1692 4.2937 25.1692ZM6.0037 18.2792C5.3637 18.2792 5.0537 17.9392 5.0537 17.4592C5.0537 17.0092 5.3137 16.6692 5.5737 16.3192L8.0237 13.1892C8.7737 12.2492 9.5737 11.0992 9.5737 9.9692C9.5737 8.9692 9.0937 8.2292 8.2437 8.2292C7.4237 8.2292 7.0837 8.8192 6.8237 9.7592C6.6737 10.2292 6.3837 10.4492 5.9237 10.4492C5.3737 10.4492 5.0737 10.0792 5.0737 9.5392C5.0737 8.0792 6.4437 6.5892 8.2437 6.5892C10.1837 6.5892 11.4937 7.9692 11.4937 9.8692C11.4937 11.1192 11.0237 12.1592 9.6137 13.9092L7.5637 16.4992V16.6092H10.9137C11.3937 16.6092 11.7037 16.9092 11.7037 17.4592C11.7037 17.9492 11.4037 18.2792 10.9137 18.2792ZM16.6537 18.5292C15.1437 18.5292 13.7037 17.7992 13.3037 16.4892C13.2237 16.2592 13.1937 16.0092 13.1937 15.7492C13.1937 15.1992 13.5637 14.8592 14.1237 14.8592C14.5737 14.8592 14.8737 15.0892 15.0137 15.5592C15.1737 16.1992 15.6437 16.8892 16.6637 16.8892C17.7037 16.8892 18.2237 16.0692 18.2237 15.0892C18.2237 13.8592 17.5637 13.2092 16.3637 13.2092H16.0237C15.5537 13.2092 15.2337 12.9292 15.2337 12.4692C15.2337 11.9992 15.5437 11.6992 16.0237 11.6992H16.3537C17.4137 11.6992 17.9737 10.9492 17.9737 9.9292C17.9737 8.9992 17.5437 8.2892 16.6137 8.2892C15.8037 8.2892 15.3837 8.8092 15.1437 9.6392C15.0137 10.1292 14.7237 10.3092 14.2437 10.3092C13.6837 10.3092 13.3837 9.9392 13.3837 9.4792C13.3837 9.2392 13.4137 8.9792 13.4837 8.7092C13.8937 7.4692 15.1437 6.6492 16.6137 6.6492C18.4437 6.6492 19.9037 7.7492 19.9037 9.7092C19.9037 10.8792 19.2737 12.0292 18.0037 12.3692V12.4092C19.1937 12.5392 20.2337 13.3992 20.2337 15.1492C20.2337 17.2692 18.6937 18.5292 16.6537 18.5292Z"
        fillRule="evenodd"
        clipRule="evenodd"
    />
</svg>
        