
<svg
    viewBox={0 0 27.890625 27.890625}
    xmlns="http://www.w3.org/2000/svg"
>
    <path
        fill="inherit"
        d="M13.9427 27.8864C21.6427 27.8864 27.8927 21.6464 27.8927 13.9464C27.8927 6.2464 21.6427 -0.0036 13.9427 -0.0036C6.2527 -0.0036 0.0027 6.2464 0.0027 13.9464C0.0027 21.6464 6.2527 27.8864 13.9427 27.8864ZM13.9427 25.5664C7.5227 25.5664 2.3227 20.3664 2.3227 13.9464C2.3227 7.5164 7.5227 2.3264 13.9427 2.3264C20.3727 2.3264 25.5627 7.5164 25.5627 13.9464C25.5627 20.3664 20.3727 25.5664 13.9427 25.5664ZM7.5227 19.4664H12.2627C12.7527 19.4664 13.0427 19.1564 13.0427 18.6764C13.0427 18.1564 12.7427 17.8664 12.2627 17.8664H9.0227V17.7564L11.0227 15.2264C12.3827 13.5364 12.8427 12.5264 12.8427 11.3164C12.8427 9.4764 11.5827 8.1364 9.6927 8.1364C7.9427 8.1364 6.6127 9.5864 6.6127 11.0064C6.6127 11.5164 6.9227 11.8664 7.4327 11.8664C7.8927 11.8664 8.1627 11.6664 8.3127 11.2064C8.5627 10.2964 8.9027 9.7164 9.6927 9.7164C10.5127 9.7164 10.9827 10.4464 10.9827 11.4164C10.9827 12.5064 10.2127 13.6164 9.4927 14.5464L7.1127 17.5864C6.8627 17.9064 6.6027 18.2564 6.6027 18.6764C6.6027 19.1364 6.9027 19.4664 7.5227 19.4664ZM19.3627 19.6464C19.8627 19.6464 20.2927 19.3364 20.2927 18.6764V17.3064H20.7627C21.3027 17.3064 21.5427 16.9664 21.5427 16.5064C21.5427 16.0664 21.3127 15.7264 20.7627 15.7264H20.2927V9.7164C20.2927 8.7764 19.6627 8.2464 18.7727 8.2464C17.8127 8.2464 17.3627 8.7364 16.9827 9.5864L14.5327 14.8864C14.3027 15.4264 14.2227 15.7764 14.2227 16.1964C14.2227 16.8564 14.6827 17.3064 15.3427 17.3064H18.4027V18.6764C18.4027 19.3964 18.9227 19.6464 19.3627 19.6464ZM18.4427 15.7664H15.9027V15.6664L18.3927 9.9664H18.4427Z"
        fillRule="evenodd"
        clipRule="evenodd"
    />
</svg>
        