
<svg
    viewBox="0 0 27.890625 27.890625"
    xmlns="http://www.w3.org/2000/svg"
>
    <path
        fill="inherit"
        d="M13.9427 27.8864C21.6427 27.8864 27.8927 21.6264 27.8927 13.9464C27.8927 6.2464 21.6427 -0.0036 13.9427 -0.0036C6.2627 -0.0036 0.0027 6.2464 0.0027 13.9464C0.0027 21.6264 6.2627 27.8864 13.9427 27.8864ZM7.3327 19.6464C6.6827 19.6464 6.3727 19.3064 6.3727 18.8264C6.3727 18.3864 6.6427 18.0364 6.9027 17.6864L9.3527 14.5764C10.0927 13.6164 10.8827 12.4664 10.8827 11.3364C10.8827 10.3364 10.4027 9.5964 9.5727 9.5964C8.7527 9.5964 8.3927 10.1864 8.1527 11.1264C7.9827 11.5964 7.7127 11.8164 7.2327 11.8164C6.7027 11.8164 6.3827 11.4464 6.3827 10.9064C6.3827 9.4464 7.7627 7.9564 9.5727 7.9564C11.5127 7.9564 12.8127 9.3364 12.8127 11.2364C12.8127 12.4864 12.3427 13.5264 10.9327 15.2764L8.8827 17.8664V17.9964H12.2227C12.7127 17.9964 13.0327 18.2764 13.0327 18.8264C13.0327 19.3164 12.7327 19.6464 12.2227 19.6464ZM19.5327 19.8264C19.0827 19.8264 18.5527 19.5764 18.5527 18.8264V17.4164H15.3927C14.7227 17.4164 14.2327 16.9564 14.2327 16.2664C14.2327 15.8364 14.3327 15.4664 14.5627 14.9164L17.0727 9.4564C17.4727 8.5764 17.9327 8.0664 18.9327 8.0664C19.8527 8.0664 20.5127 8.6264 20.5127 9.5964V15.7764H21.0027C21.5627 15.7764 21.8027 16.1364 21.8027 16.5864C21.8027 17.0664 21.5427 17.4164 21.0027 17.4164H20.5127V18.8264C20.5127 19.4964 20.0727 19.8264 19.5327 19.8264ZM18.5927 15.8164V9.8464H18.5427L15.9827 15.7264V15.8164Z"
        fillRule="evenodd"
        clipRule="evenodd"
    />
</svg>
        