
<svg
    viewBox={0 0 25.169921875 25.169921875}
    xmlns="http://www.w3.org/2000/svg"
>
    <path
        fill="inherit"
        d="M4.2937 25.1692H20.8737C23.7437 25.1692 25.1737 23.7592 25.1737 20.9492V4.2392C25.1737 1.4192 23.7437 -0.0008 20.8737 -0.0008H4.2937C1.4337 -0.0008 0.0037 1.4192 0.0037 4.2392V20.9492C0.0037 23.7592 1.4337 25.1692 4.2937 25.1692ZM4.3237 22.9692C2.9537 22.9692 2.2037 22.2392 2.2037 20.8192V4.3592C2.2037 2.9392 2.9537 2.1992 4.3237 2.1992H20.8537C22.2037 2.1992 22.9737 2.9392 22.9737 4.3592V20.8192C22.9737 22.2392 22.2037 22.9692 20.8537 22.9692ZM6.1937 18.0992H10.9337C11.4137 18.0992 11.7037 17.7892 11.7037 17.3092C11.7037 16.7892 11.4037 16.4992 10.9337 16.4992H7.6837V16.3892L9.6837 13.8592C11.0437 12.1692 11.4937 11.1592 11.4937 9.9492C11.4937 8.1092 10.2437 6.7692 8.3537 6.7692C6.6137 6.7692 5.2737 8.2192 5.2737 9.6392C5.2737 10.1492 5.5737 10.4992 6.0937 10.4992C6.5537 10.4992 6.8337 10.2992 6.9737 9.8392C7.2337 8.9292 7.5637 8.3492 8.3537 8.3492C9.1737 8.3492 9.6437 9.0792 9.6437 10.0492C9.6437 11.1392 8.8737 12.2492 8.1437 13.1792L5.7737 16.2192C5.5237 16.5392 5.2637 16.8892 5.2637 17.3092C5.2637 17.7692 5.5637 18.0992 6.1937 18.0992ZM18.0237 18.2792C18.5237 18.2792 18.9537 17.9692 18.9537 17.3092V15.9392H19.4237C19.9637 15.9392 20.2037 15.5992 20.2037 15.1392C20.2037 14.6992 19.9737 14.3592 19.4237 14.3592H18.9537V8.3492C18.9537 7.4092 18.3337 6.8792 17.4337 6.8792C16.4737 6.8792 16.0237 7.3692 15.6437 8.2192L13.1937 13.5192C12.9637 14.0592 12.8837 14.4092 12.8837 14.8292C12.8837 15.4892 13.3437 15.9392 14.0137 15.9392H17.0637V17.3092C17.0637 18.0292 17.5837 18.2792 18.0237 18.2792ZM17.1037 14.3992H14.5737V14.2992L17.0637 8.5992H17.1037Z"
        fillRule="evenodd"
        clipRule="evenodd"
    />
</svg>
        