
<svg
    viewBox={0 0 27.890625 27.890625}
    xmlns="http://www.w3.org/2000/svg"
>
    <path
        fill="inherit"
        d="M13.9427 27.8864C21.6427 27.8864 27.8927 21.6264 27.8927 13.9464C27.8927 6.2464 21.6427 -0.0036 13.9427 -0.0036C6.2627 -0.0036 0.0027 6.2464 0.0027 13.9464C0.0027 21.6264 6.2627 27.8864 13.9427 27.8864ZM7.2827 19.6464C6.6627 19.6464 6.3427 19.3064 6.3427 18.8264C6.3427 18.3764 6.5927 18.0164 6.8627 17.6864L9.3127 14.5564C10.0627 13.6164 10.8427 12.4664 10.8427 11.3364C10.8427 10.3364 10.3727 9.5964 9.5127 9.5964C8.7227 9.5964 8.3627 10.1864 8.0927 11.1264C7.9527 11.5964 7.6727 11.7964 7.2027 11.7964C6.6727 11.7964 6.3527 11.4464 6.3527 10.9064C6.3527 9.4464 7.7227 7.9564 9.5327 7.9564C11.4827 7.9564 12.7827 9.3364 12.7827 11.2364C12.7827 12.4864 12.3227 13.5264 10.8927 15.2764L8.8427 17.8664V17.9764H12.1827C12.6727 17.9764 12.9927 18.2764 12.9927 18.8264C12.9927 19.3164 12.6827 19.6464 12.1827 19.6464ZM17.9527 19.9364C16.6827 19.9364 15.4327 19.1964 14.9427 18.0464C14.8027 17.7764 14.7227 17.4564 14.7227 17.1264C14.7227 16.6064 15.0627 16.2864 15.5727 16.2864C15.9527 16.2864 16.2727 16.5064 16.4327 16.9564C16.6927 17.7164 17.1427 18.2764 17.9227 18.2764C18.9627 18.2764 19.3727 17.0864 19.3727 15.9164C19.3727 14.8764 18.9727 13.6264 17.9527 13.6264C17.3727 13.6264 17.0327 13.9564 16.7027 14.4264C16.4027 14.8064 16.2027 14.9564 15.8027 14.9564C15.1527 14.9564 14.8727 14.4764 14.8727 13.9464C14.8727 13.7564 14.8727 13.5364 14.8927 13.3164L15.1327 9.4564C15.1727 8.7364 15.5127 8.2464 16.2527 8.2464H20.1227C20.6027 8.2464 20.9227 8.6164 20.9227 9.0764C20.9227 9.5864 20.6127 9.9264 20.1227 9.9264H16.8127L16.5927 13.3464H16.6527C17.0227 12.5264 17.7727 12.1364 18.6027 12.1364C20.4227 12.1364 21.3527 13.9164 21.3527 15.8564C21.3527 18.0864 20.1527 19.9364 17.9527 19.9364Z"
        fillRule="evenodd"
        clipRule="evenodd"
    />
</svg>
        