
<svg
    viewBox={0 0 27.890625 27.890625}
    xmlns="http://www.w3.org/2000/svg"
>
    <path
        fill="inherit"
        d="M13.9427 27.8864C21.6427 27.8864 27.8927 21.6464 27.8927 13.9464C27.8927 6.2464 21.6427 -0.0036 13.9427 -0.0036C6.2527 -0.0036 0.0027 6.2464 0.0027 13.9464C0.0027 21.6464 6.2527 27.8864 13.9427 27.8864ZM13.9427 25.5664C7.5227 25.5664 2.3227 20.3664 2.3227 13.9464C2.3227 7.5164 7.5227 2.3264 13.9427 2.3264C20.3727 2.3264 25.5627 7.5164 25.5627 13.9464C25.5627 20.3664 20.3727 25.5664 13.9427 25.5664ZM7.4827 19.4664H12.2227C12.7127 19.4664 13.0027 19.1564 13.0027 18.6764C13.0027 18.1564 12.7027 17.8664 12.2227 17.8664H8.9827V17.7564L10.9827 15.2264C12.3427 13.5364 12.7927 12.5264 12.7927 11.3164C12.7927 9.4764 11.5427 8.1364 9.6527 8.1364C7.9027 8.1364 6.5727 9.5864 6.5727 11.0064C6.5727 11.5164 6.8727 11.8664 7.3927 11.8664C7.8427 11.8664 8.1227 11.6664 8.2627 11.2064C8.5127 10.2964 8.8627 9.7164 9.6427 9.7164C10.4727 9.7164 10.9227 10.4464 10.9227 11.4164C10.9227 12.5064 10.1727 13.6164 9.4427 14.5464L7.0727 17.5864C6.8127 17.9064 6.5627 18.2564 6.5627 18.6764C6.5627 19.1364 6.8627 19.4664 7.4827 19.4664ZM17.8127 19.7564C19.9427 19.7564 21.1127 17.9664 21.1127 15.8064C21.1127 13.9164 20.2027 12.1964 18.4427 12.1964C17.6327 12.1964 16.9027 12.5664 16.5427 13.3564H16.4927L16.7027 10.0364H19.9227C20.3827 10.0364 20.6827 9.7064 20.6827 9.2264C20.6827 8.7764 20.3727 8.4264 19.9227 8.4264H16.1627C15.4527 8.4264 15.1227 8.8864 15.0827 9.5964L14.8427 13.3464C14.8327 13.5464 14.8327 13.7664 14.8327 13.9464C14.8327 14.4664 15.0927 14.9264 15.7227 14.9264C16.1027 14.9264 16.3127 14.7764 16.5927 14.4064C16.9127 13.9564 17.2527 13.6264 17.8127 13.6264C18.8127 13.6264 19.1927 14.8464 19.1927 15.8564C19.1927 16.9964 18.8027 18.1564 17.7827 18.1564C17.0227 18.1564 16.5827 17.6064 16.3427 16.8564C16.1727 16.4164 15.8727 16.2164 15.5027 16.2164C15.0127 16.2164 14.6827 16.5264 14.6827 17.0364C14.6827 17.3464 14.7627 17.6464 14.8927 17.9264C15.3627 19.0264 16.5727 19.7564 17.8127 19.7564Z"
        fillRule="evenodd"
        clipRule="evenodd"
    />
</svg>
        