<svg viewBox="0 0 25.169921875 25.169921875" xmlns="http://www.w3.org/2000/svg"><path d="M4.2937 25.1692H20.8737C23.7437 25.1692 25.1737 23.7592 25.1737 20.9492V4.2392C25.1737 1.4192 23.7437 -0.0008 20.8737 -0.0008H4.2937C1.4337 -0.0008 0.0037 1.4192 0.0037 4.2392V20.9492C0.0037 23.7592 1.4337 25.1692 4.2937 25.1692ZM4.3237 22.9692C2.9537 22.9692 2.2037 22.2392 2.2037 20.8192V4.3592C2.2037 2.9392 2.9537 2.1992 4.3237 2.1992H20.8537C22.2037 2.1992 22.9737 2.9392 22.9737 4.3592V20.8192C22.9737 22.2392 22.2037 22.9692 20.8537 22.9692ZM6.1437 18.0992H10.8837C11.3737 18.0992 11.6637 17.7892 11.6637 17.3092C11.6637 16.7892 11.3637 16.4992 10.8837 16.4992H7.6437V16.3892L9.6437 13.8592C11.0037 12.1692 11.4537 11.1592 11.4537 9.9492C11.4537 8.1092 10.2037 6.7692 8.3137 6.7692C6.5637 6.7692 5.2337 8.2192 5.2337 9.6392C5.2337 10.1492 5.5337 10.4992 6.0537 10.4992C6.5037 10.4992 6.7837 10.2992 6.9337 9.8392C7.1737 8.9292 7.5237 8.3492 8.3037 8.3492C9.1337 8.3492 9.5937 9.0792 9.5937 10.0492C9.5937 11.1392 8.8337 12.2492 8.1037 13.1792L5.7237 16.2192C5.4837 16.5392 5.2237 16.8892 5.2237 17.3092C5.2237 17.7692 5.5237 18.0992 6.1437 18.0992ZM16.4737 18.3892C18.6037 18.3892 19.7737 16.5992 19.7737 14.4392C19.7737 12.5492 18.8637 10.8292 17.1037 10.8292C16.3137 10.8292 15.5537 11.1992 15.2037 11.9892H15.1437L15.3637 8.6692H18.5837C19.0537 8.6692 19.3437 8.3392 19.3437 7.8592C19.3437 7.4092 19.0337 7.0592 18.5837 7.0592H14.8237C14.1137 7.0592 13.7837 7.5192 13.7437 8.2292L13.5237 11.9792C13.4937 12.1792 13.4937 12.3992 13.4937 12.5792C13.4937 13.0992 13.7537 13.5592 14.3937 13.5592C14.7637 13.5592 14.9737 13.4092 15.2537 13.0392C15.5737 12.5892 15.9137 12.2592 16.4737 12.2592C17.4737 12.2592 17.8737 13.4792 17.8737 14.4892C17.8737 15.6292 17.4637 16.7892 16.4437 16.7892C15.6837 16.7892 15.2437 16.2392 14.9937 15.4892C14.8337 15.0492 14.5337 14.8492 14.1637 14.8492C13.6737 14.8492 13.3537 15.1592 13.3537 15.6692C13.3537 15.9792 13.4237 16.2792 13.5537 16.5592C14.0237 17.6592 15.2337 18.3892 16.4737 18.3892Z" /></svg>