
<svg
    viewBox={0 0 25.169921875 25.169921875}
    xmlns="http://www.w3.org/2000/svg"
>
    <path
        fill="inherit"
        d="M4.2937 25.1692H20.8737C23.7437 25.1692 25.1737 23.7592 25.1737 20.9492V4.2392C25.1737 1.4192 23.7437 -0.0008 20.8737 -0.0008H4.2937C1.4337 -0.0008 0.0037 1.4192 0.0037 4.2392V20.9492C0.0037 23.7592 1.4337 25.1692 4.2937 25.1692ZM5.9337 18.2792C5.3037 18.2792 4.9937 17.9392 4.9937 17.4592C4.9937 17.0092 5.2537 16.6492 5.5137 16.3192L7.9537 13.1892C8.7137 12.2492 9.5037 11.0992 9.5037 9.9692C9.5037 8.9692 9.0237 8.2292 8.1737 8.2292C7.3737 8.2292 7.0137 8.8192 6.7537 9.7592C6.6037 10.2292 6.3137 10.4292 5.8537 10.4292C5.3137 10.4292 5.0037 10.0792 5.0037 9.5392C5.0037 8.0792 6.3737 6.5892 8.1737 6.5892C10.1337 6.5892 11.4337 7.9692 11.4337 9.8692C11.4337 11.1192 10.9637 12.1592 9.5437 13.9092L7.4937 16.4992V16.6092H10.8237C11.3237 16.6092 11.6337 16.9092 11.6337 17.4592C11.6337 17.9492 11.3337 18.2792 10.8237 18.2792ZM16.5937 18.5692C15.3237 18.5692 14.0837 17.8292 13.5937 16.6792C13.4537 16.4092 13.3837 16.0892 13.3837 15.7592C13.3837 15.2392 13.7137 14.9192 14.2237 14.9192C14.6037 14.9192 14.9137 15.1392 15.0837 15.5892C15.3437 16.3492 15.7937 16.9092 16.5737 16.9092C17.6137 16.9092 18.0337 15.7192 18.0337 14.5492C18.0337 13.5092 17.6237 12.2592 16.5937 12.2592C16.0237 12.2592 15.6837 12.5892 15.3537 13.0592C15.0537 13.4392 14.8437 13.5892 14.4637 13.5892C13.7937 13.5892 13.5237 13.1092 13.5237 12.5792C13.5237 12.3892 13.5237 12.1692 13.5537 11.9492L13.7837 8.0892C13.8237 7.3692 14.1637 6.8792 14.9037 6.8792H18.7737C19.2537 6.8792 19.5637 7.2492 19.5637 7.7092C19.5637 8.2192 19.2737 8.5592 18.7737 8.5592H15.4637L15.2437 11.9792H15.3037C15.6637 11.1592 16.4337 10.7692 17.2537 10.7692C19.0737 10.7692 20.0037 12.5492 20.0037 14.4892C20.0037 16.7192 18.8037 18.5692 16.5937 18.5692Z"
        fillRule="evenodd"
        clipRule="evenodd"
    />
</svg>
        