
<svg
    viewBox={0 0 27.890625 27.890625}
    xmlns="http://www.w3.org/2000/svg"
>
    <path
        fill="inherit"
        d="M13.9427 27.8864C21.6427 27.8864 27.8927 21.6264 27.8927 13.9464C27.8927 6.2464 21.6427 -0.0036 13.9427 -0.0036C6.2627 -0.0036 0.0027 6.2464 0.0027 13.9464C0.0027 21.6264 6.2627 27.8864 13.9427 27.8864ZM7.2627 19.6464C6.6027 19.6464 6.3027 19.3064 6.3027 18.8264C6.3027 18.3764 6.5627 18.0164 6.8227 17.6864L9.2727 14.5564C10.0127 13.6164 10.8027 12.4664 10.8027 11.3364C10.8027 10.3364 10.3227 9.5964 9.4927 9.5964C8.6727 9.5964 8.3427 10.1864 8.0627 11.1264C7.9327 11.5964 7.6327 11.7964 7.1627 11.7964C6.6127 11.7964 6.3127 11.4464 6.3127 10.9064C6.3127 9.4464 7.6927 7.9564 9.4927 7.9564C11.4327 7.9564 12.7327 9.3364 12.7327 11.2364C12.7327 12.4864 12.2627 13.5264 10.8527 15.2764L8.8027 17.8664V17.9764H12.1527C12.6327 17.9764 12.9427 18.2764 12.9427 18.8264C12.9427 19.3164 12.6427 19.6464 12.1527 19.6464ZM18.1527 19.9364C15.2827 19.9364 14.4327 16.7464 14.4327 14.0864C14.4327 11.2264 15.2727 7.9864 18.1827 7.9864C19.5927 7.9864 20.8127 8.7364 21.1127 9.9564C21.1627 10.1264 21.1827 10.3064 21.1827 10.4564C21.1827 10.9264 20.9327 11.3064 20.3727 11.3064C19.9027 11.3064 19.6327 11.1164 19.4327 10.6764C19.1927 10.0864 18.7727 9.6364 18.1327 9.6364C16.5527 9.6364 16.3627 12.4664 16.3627 14.0264V14.1764H16.4227C16.7527 12.9764 17.6127 12.2064 18.7427 12.2064C20.6127 12.2064 21.5327 14.0164 21.5327 15.9164C21.5327 18.1264 20.3127 19.9364 18.1527 19.9364ZM18.1327 18.2764C19.1127 18.2764 19.5627 17.0364 19.5627 16.0064C19.5927 14.9664 19.1727 13.7564 18.1327 13.7564C17.1127 13.7564 16.6427 14.9164 16.6427 15.9564C16.6427 16.9564 17.0627 18.2764 18.1327 18.2764Z"
        fillRule="evenodd"
        clipRule="evenodd"
    />
</svg>
        