
<svg
    viewBox={0 0 27.890625 27.890625}
    xmlns="http://www.w3.org/2000/svg"
>
    <path
        fill="inherit"
        d="M13.9427 27.8864C21.6427 27.8864 27.8927 21.6464 27.8927 13.9464C27.8927 6.2464 21.6427 -0.0036 13.9427 -0.0036C6.2527 -0.0036 0.0027 6.2464 0.0027 13.9464C0.0027 21.6464 6.2527 27.8864 13.9427 27.8864ZM13.9427 25.5664C7.5227 25.5664 2.3227 20.3664 2.3227 13.9464C2.3227 7.5164 7.5227 2.3264 13.9427 2.3264C20.3727 2.3264 25.5627 7.5164 25.5627 13.9464C25.5627 20.3664 20.3727 25.5664 13.9427 25.5664ZM7.4527 19.4664H12.1927C12.6727 19.4664 12.9627 19.1564 12.9627 18.6764C12.9627 18.1564 12.6627 17.8664 12.1927 17.8664H8.9427V17.7564L10.9327 15.2264C12.3027 13.5364 12.7527 12.5264 12.7527 11.3164C12.7527 9.4764 11.5027 8.1364 9.6127 8.1364C7.8627 8.1364 6.5327 9.5864 6.5327 11.0064C6.5327 11.5164 6.8327 11.8664 7.3527 11.8664C7.8027 11.8664 8.0827 11.6664 8.2327 11.2064C8.4927 10.2964 8.8227 9.7164 9.6127 9.7164C10.4327 9.7164 10.8927 10.4464 10.8927 11.4164C10.8927 12.5064 10.1327 13.6164 9.4027 14.5464L7.0227 17.5864C6.7827 17.9064 6.5227 18.2564 6.5227 18.6764C6.5227 19.1364 6.8227 19.4664 7.4527 19.4664ZM18.0027 19.7564C20.0927 19.7564 21.2827 18.0064 21.2827 15.8564C21.2827 14.0164 20.4027 12.2664 18.5827 12.2664C17.4727 12.2664 16.6427 13.0064 16.3227 14.1764H16.2727V14.0264C16.2727 12.5064 16.4627 9.7664 17.9827 9.7664C18.6027 9.7664 19.0127 10.1964 19.2527 10.7764C19.4427 11.1964 19.7127 11.3864 20.1527 11.3864C20.7027 11.3864 20.9327 11.0164 20.9327 10.5664C20.9327 10.4164 20.9227 10.2564 20.8727 10.0764C20.5727 8.8964 19.4027 8.1664 18.0327 8.1664C15.2127 8.1664 14.4127 11.3064 14.4127 14.0864C14.4127 16.6664 15.2327 19.7564 18.0027 19.7564ZM17.9827 18.1564C16.9527 18.1564 16.5327 16.8664 16.5327 15.8864C16.5327 14.8864 16.9927 13.7564 17.9827 13.7564C18.9927 13.7564 19.4127 14.9264 19.3827 15.9364C19.3827 16.9364 18.9327 18.1564 17.9827 18.1564Z"
        fillRule="evenodd"
        clipRule="evenodd"
    />
</svg>
        