
<svg
    viewBox="0 0 25.169921875 25.169921875"
    xmlns="http://www.w3.org/2000/svg"
>
    <path
        fill="inherit"
        d="M4.2937 25.1692H20.8737C23.7437 25.1692 25.1737 23.7592 25.1737 20.9492V4.2392C25.1737 1.4192 23.7437 -0.0008 20.8737 -0.0008H4.2937C1.4337 -0.0008 0.0037 1.4192 0.0037 4.2392V20.9492C0.0037 23.7592 1.4337 25.1692 4.2937 25.1692ZM4.3237 22.9692C2.9537 22.9692 2.2037 22.2392 2.2037 20.8192V4.3592C2.2037 2.9392 2.9537 2.1992 4.3237 2.1992H20.8537C22.2037 2.1992 22.9737 2.9392 22.9737 4.3592V20.8192C22.9737 22.2392 22.2037 22.9692 20.8537 22.9692ZM6.1137 18.0992H10.8537C11.3337 18.0992 11.6337 17.7892 11.6337 17.3092C11.6337 16.7892 11.3237 16.4992 10.8537 16.4992H7.6037V16.3892L9.5937 13.8592C10.9737 12.1692 11.4137 11.1592 11.4137 9.9492C11.4137 8.1092 10.1737 6.7692 8.2737 6.7692C6.5337 6.7692 5.2137 8.2192 5.2137 9.6392C5.2137 10.1492 5.4937 10.4992 6.0137 10.4992C6.4637 10.4992 6.7537 10.2992 6.8937 9.8392C7.1537 8.9292 7.4937 8.3492 8.2737 8.3492C9.0937 8.3492 9.5537 9.0792 9.5537 10.0492C9.5537 11.1392 8.7937 12.2492 8.0637 13.1792L5.7037 16.2192C5.4437 16.5392 5.1837 16.8892 5.1837 17.3092C5.1837 17.7692 5.4837 18.0992 6.1137 18.0992ZM16.6637 18.3892C18.7537 18.3892 19.9437 16.6392 19.9437 14.4892C19.9437 12.6492 19.0537 10.8992 17.2437 10.8992C16.1337 10.8992 15.3037 11.6392 14.9837 12.8092H14.9337V12.6592C14.9337 11.1392 15.1237 8.3992 16.6437 8.3992C17.2637 8.3992 17.6737 8.8292 17.9137 9.4092C18.1137 9.8292 18.3737 10.0192 18.8137 10.0192C19.3637 10.0192 19.5937 9.6492 19.5937 9.1992C19.5937 9.0492 19.5737 8.8892 19.5337 8.7092C19.2337 7.5292 18.0637 6.7992 16.6937 6.7992C13.8937 6.7992 13.0737 9.9392 13.0737 12.7192C13.0737 15.2992 13.8937 18.3892 16.6637 18.3892ZM16.6437 16.7892C15.6137 16.7892 15.1937 15.4992 15.1937 14.5192C15.1937 13.5192 15.6537 12.3892 16.6437 12.3892C17.6537 12.3892 18.0737 13.5592 18.0437 14.5692C18.0437 15.5692 17.5937 16.7892 16.6437 16.7892Z"
        fillRule="evenodd"
        clipRule="evenodd"
    />
</svg>
        