<svg viewBox="0 0 25.169921875 25.169921875" xmlns="http://www.w3.org/2000/svg"><path d="M4.2937 25.1692H20.8737C23.7437 25.1692 25.1737 23.7592 25.1737 20.9492V4.2392C25.1737 1.4192 23.7437 -0.0008 20.8737 -0.0008H4.2937C1.4337 -0.0008 0.0037 1.4192 0.0037 4.2392V20.9492C0.0037 23.7592 1.4337 25.1692 4.2937 25.1692ZM5.9037 18.2792C5.2537 18.2792 4.9537 17.9392 4.9537 17.4592C4.9537 17.0092 5.2137 16.6492 5.4837 16.3192L7.9137 13.1892C8.6537 12.2492 9.4437 11.0992 9.4437 9.9692C9.4437 8.9692 8.9737 8.2292 8.1337 8.2292C7.3237 8.2292 6.9837 8.8192 6.7137 9.7592C6.5737 10.2292 6.2737 10.4292 5.8137 10.4292C5.2637 10.4292 4.9737 10.0792 4.9737 9.5392C4.9737 8.0792 6.3437 6.5892 8.1437 6.5892C10.0937 6.5892 11.3737 7.9692 11.3737 9.8692C11.3737 11.1192 10.9237 12.1592 9.5037 13.9092L7.4537 16.4992V16.6092H10.8037C11.2837 16.6092 11.6037 16.9092 11.6037 17.4592C11.6037 17.9492 11.2937 18.2792 10.8037 18.2792ZM16.8037 18.5692C13.9337 18.5692 13.0837 15.3792 13.0837 12.7192C13.0837 9.8592 13.9337 6.6192 16.8337 6.6192C18.2337 6.6192 19.4537 7.3692 19.7537 8.5892C19.8137 8.7592 19.8237 8.9392 19.8237 9.0892C19.8237 9.5592 19.5737 9.9392 19.0137 9.9392C18.5537 9.9392 18.2937 9.7492 18.0737 9.3092C17.8437 8.7192 17.4137 8.2692 16.7737 8.2692C15.2037 8.2692 15.0137 11.0992 15.0137 12.6592V12.8092H15.0637C15.3937 11.6092 16.2537 10.8392 17.3937 10.8392C19.2637 10.8392 20.1837 12.6492 20.1837 14.5492C20.1837 16.7592 18.9637 18.5692 16.8037 18.5692ZM16.7737 16.9092C17.7637 16.9092 18.2137 15.6692 18.2137 14.6392C18.2337 13.5992 17.8137 12.3892 16.7737 12.3892C15.7637 12.3892 15.2837 13.5492 15.2837 14.5892C15.2837 15.5892 15.7137 16.9092 16.7737 16.9092Z" /></svg>