<svg viewBox="0 0 27.890625 27.890625" xmlns="http://www.w3.org/2000/svg"><path d="M13.9427 27.8864C21.6427 27.8864 27.8927 21.6264 27.8927 13.9464C27.8927 6.2464 21.6427 -0.0036 13.9427 -0.0036C6.2627 -0.0036 0.0027 6.2464 0.0027 13.9464C0.0027 21.6264 6.2627 27.8864 13.9427 27.8864ZM7.9527 19.6464C7.3127 19.6464 7.0127 19.3064 7.0127 18.8264C7.0127 18.3864 7.2727 18.0364 7.5327 17.6864L9.9827 14.5764C10.7227 13.6164 11.5127 12.4664 11.5127 11.3364C11.5127 10.3364 11.0327 9.5964 10.1827 9.5964C9.3827 9.5964 9.0327 10.1864 8.7727 11.1264C8.6227 11.5964 8.3427 11.8164 7.8727 11.8164C7.3327 11.8164 7.0227 11.4464 7.0227 10.9064C7.0227 9.4464 8.3927 7.9564 10.2027 7.9564C12.1427 7.9564 13.4427 9.3364 13.4427 11.2364C13.4427 12.4864 12.9727 13.5264 11.5627 15.2764L9.5127 17.8664V17.9964H12.8527C13.3427 17.9964 13.6627 18.2764 13.6627 18.8264C13.6627 19.3164 13.3527 19.6464 12.8527 19.6464ZM16.9527 19.8364C16.2827 19.8364 16.0127 19.3764 16.0127 18.9664C16.0127 18.6164 16.0627 18.4464 16.2027 18.1264L19.3027 10.0464V9.9264H15.6927C15.2027 9.9264 14.8727 9.5664 14.8727 9.0964C14.8727 8.5964 15.2027 8.2464 15.6927 8.2464H20.2527C20.8727 8.2464 21.3727 8.6964 21.3727 9.3364C21.3727 9.7464 21.2627 10.0864 21.1127 10.5264L17.8927 19.1164C17.6927 19.6364 17.4727 19.8364 16.9527 19.8364Z" /></svg>