
<svg
    viewBox="0 0 27.890625 27.890625"
    xmlns="http://www.w3.org/2000/svg"
>
    <path
        fill="inherit"
        d="M13.9427 27.8864C21.6427 27.8864 27.8927 21.6464 27.8927 13.9464C27.8927 6.2464 21.6427 -0.0036 13.9427 -0.0036C6.2527 -0.0036 0.0027 6.2464 0.0027 13.9464C0.0027 21.6464 6.2527 27.8864 13.9427 27.8864ZM13.9427 25.5664C7.5227 25.5664 2.3227 20.3664 2.3227 13.9464C2.3227 7.5164 7.5227 2.3264 13.9427 2.3264C20.3727 2.3264 25.5627 7.5164 25.5627 13.9464C25.5627 20.3664 20.3727 25.5664 13.9427 25.5664ZM8.1327 19.4664H12.8827C13.3727 19.4664 13.6627 19.1564 13.6627 18.6764C13.6627 18.1564 13.3527 17.8664 12.8827 17.8664H9.6427V17.7564L11.6327 15.2264C13.0027 13.5364 13.4527 12.5264 13.4527 11.3164C13.4527 9.4764 12.1927 8.1364 10.3127 8.1364C8.5627 8.1364 7.2327 9.5864 7.2327 11.0064C7.2327 11.5164 7.5327 11.8664 8.0527 11.8664C8.5027 11.8664 8.7727 11.6664 8.9327 11.2064C9.1727 10.2964 9.5127 9.7164 10.2927 9.7164C11.1327 9.7164 11.5927 10.4464 11.5927 11.4164C11.5927 12.5064 10.8327 13.6164 10.1027 14.5464L7.7227 17.5864C7.4827 17.9064 7.2227 18.2564 7.2227 18.6764C7.2227 19.1364 7.5227 19.4664 8.1327 19.4664ZM16.8427 19.6564C17.3527 19.6564 17.5727 19.4564 17.7627 18.9664L20.8727 10.6264C21.0227 10.1964 21.1327 9.8664 21.1327 9.4764C21.1327 8.8464 20.6627 8.4264 20.0427 8.4264H15.6227C15.1627 8.4264 14.8327 8.7664 14.8327 9.2264C14.8327 9.6964 15.1627 10.0364 15.6227 10.0364H19.1427V10.1564L16.1227 18.0064C15.9927 18.3064 15.9427 18.4864 15.9427 18.8164C15.9427 19.2064 16.2027 19.6564 16.8427 19.6564Z"
        fillRule="evenodd"
        clipRule="evenodd"
    />
</svg>
        