
<svg
    viewBox={0 0 25.169921875 25.169921875}
    xmlns="http://www.w3.org/2000/svg"
>
    <path
        fill="inherit"
        d="M4.2937 25.1692H20.8737C23.7437 25.1692 25.1737 23.7592 25.1737 20.9492V4.2392C25.1737 1.4192 23.7437 -0.0008 20.8737 -0.0008H4.2937C1.4337 -0.0008 0.0037 1.4192 0.0037 4.2392V20.9492C0.0037 23.7592 1.4337 25.1692 4.2937 25.1692ZM6.6137 18.2792C5.9637 18.2792 5.6637 17.9392 5.6637 17.4592C5.6637 17.0192 5.9237 16.6692 6.1837 16.3192L8.6237 13.2092C9.3637 12.2492 10.1537 11.0992 10.1537 9.9692C10.1537 8.9692 9.6837 8.2292 8.8437 8.2292C8.0237 8.2292 7.6937 8.8192 7.4237 9.7592C7.2737 10.2292 6.9837 10.4492 6.5237 10.4492C5.9737 10.4492 5.6737 10.0792 5.6737 9.5392C5.6737 8.0792 7.0437 6.5892 8.8437 6.5892C10.7837 6.5892 12.0837 7.9692 12.0837 9.8692C12.0837 11.1192 11.6237 12.1592 10.2137 13.9092L8.1637 16.4992V16.6292H11.5137C11.9937 16.6292 12.3037 16.9092 12.3037 17.4592C12.3037 17.9492 12.0037 18.2792 11.5137 18.2792ZM15.6037 18.4692C14.9337 18.4692 14.6537 18.0092 14.6537 17.5992C14.6537 17.2492 14.7137 17.0792 14.8437 16.7592L17.9537 8.6792V8.5592H14.3437C13.8537 8.5592 13.5237 8.1992 13.5237 7.7292C13.5237 7.2292 13.8537 6.8792 14.3437 6.8792H18.8937C19.5237 6.8792 20.0137 7.3292 20.0137 7.9692C20.0137 8.3792 19.9037 8.7192 19.7537 9.1592L16.5437 17.7492C16.3537 18.2692 16.1237 18.4692 15.6037 18.4692Z"
        fillRule="evenodd"
        clipRule="evenodd"
    />
</svg>
        