<svg viewBox="0 0 27.890625 27.890625" xmlns="http://www.w3.org/2000/svg"><path d="M13.9427 27.8864C21.6427 27.8864 27.8927 21.6264 27.8927 13.9464C27.8927 6.2464 21.6427 -0.0036 13.9427 -0.0036C6.2627 -0.0036 0.0027 6.2464 0.0027 13.9464C0.0027 21.6264 6.2627 27.8864 13.9427 27.8864ZM7.2327 19.6464C6.5727 19.6464 6.2627 19.3064 6.2627 18.8264C6.2627 18.3764 6.5327 18.0364 6.8127 17.6864L9.2427 14.5564C9.9827 13.6164 10.7727 12.4664 10.7727 11.3364C10.7727 10.3364 10.2927 9.5964 9.4627 9.5964C8.6527 9.5964 8.3027 10.1864 8.0427 11.1264C7.8927 11.5964 7.6127 11.8164 7.1327 11.8164C6.5927 11.8164 6.2927 11.4464 6.2927 10.9064C6.2927 9.4464 7.6727 7.9564 9.4727 7.9564C11.4127 7.9564 12.7027 9.3364 12.7027 11.2364C12.7027 12.4864 12.2527 13.5264 10.8327 15.2764L8.7927 17.8664V17.9764H12.1227C12.6027 17.9764 12.9327 18.2764 12.9327 18.8264C12.9327 19.3164 12.6227 19.6464 12.1227 19.6464ZM18.0327 19.8964C15.9827 19.8964 14.3927 18.6664 14.3927 16.5664C14.3927 15.0364 15.3127 13.9364 16.5127 13.6564V13.6164C15.6127 13.3464 14.7227 12.4964 14.7227 11.0564C14.7227 9.0764 16.2827 8.0164 18.0327 8.0164C20.0327 8.0164 21.3827 9.2564 21.3827 11.0764C21.3827 12.4164 20.5527 13.3264 19.6027 13.6164V13.6564C20.7127 13.9164 21.7127 15.0264 21.7127 16.5664C21.7127 18.4964 20.2727 19.8964 18.0327 19.8964ZM18.0327 12.9764C18.9327 12.9764 19.4027 12.1964 19.4027 11.2664C19.4027 10.3664 18.9527 9.5264 18.0327 9.5264C17.1627 9.5264 16.6927 10.3664 16.6927 11.2664C16.6927 12.0964 17.1427 12.9764 18.0327 12.9764ZM18.0327 18.3564C19.0727 18.3564 19.5827 17.4564 19.5827 16.4064C19.5827 15.3364 19.0327 14.5064 18.0327 14.5064C17.0227 14.5064 16.5127 15.3964 16.5127 16.4064C16.5127 17.4564 17.0227 18.3564 18.0327 18.3564Z" /></svg>