
<svg
    viewBox="0 0 27.890625 27.890625"
    xmlns="http://www.w3.org/2000/svg"
>
    <path
        fill="inherit"
        d="M13.9427 27.8864C21.6427 27.8864 27.8927 21.6264 27.8927 13.9464C27.8927 6.2464 21.6427 -0.0036 13.9427 -0.0036C6.2627 -0.0036 0.0027 6.2464 0.0027 13.9464C0.0027 21.6264 6.2627 27.8864 13.9427 27.8864ZM7.3527 19.6464C6.7027 19.6464 6.4027 19.3064 6.4027 18.8264C6.4027 18.3764 6.6627 18.0164 6.9327 17.6864L9.3627 14.5564C10.1127 13.6164 10.9127 12.4664 10.9127 11.3364C10.9127 10.3364 10.4327 9.5964 9.5827 9.5964C8.7627 9.5964 8.4327 10.1864 8.1627 11.1264C8.0227 11.5964 7.7227 11.7964 7.2627 11.7964C6.7127 11.7964 6.4227 11.4464 6.4227 10.9064C6.4227 9.4464 7.7927 7.9564 9.5827 7.9564C11.5427 7.9564 12.8427 9.3364 12.8427 11.2364C12.8427 12.4864 12.3727 13.5264 10.9527 15.2764L8.9027 17.8664V17.9764H12.2527C12.7327 17.9764 13.0527 18.2764 13.0527 18.8264C13.0527 19.3164 12.7427 19.6464 12.2527 19.6464ZM17.2627 15.7064C15.4127 15.7064 14.4927 13.9064 14.4927 12.0064C14.4927 9.7864 15.7327 7.9864 17.8827 7.9864C20.7427 7.9864 21.5927 11.1664 21.5927 13.8364C21.5927 16.7164 20.7427 19.9164 17.8527 19.9164C16.4427 19.9164 15.2127 19.1864 14.9127 17.9464C14.8727 17.7864 14.8327 17.6064 14.8327 17.4464C14.8327 16.9764 15.0927 16.5864 15.6827 16.5864C16.1027 16.5864 16.3927 16.7664 16.5827 17.2264C16.8427 17.8264 17.2627 18.2664 17.8927 18.2664C19.4727 18.2664 19.6627 15.4464 19.6627 13.8864V13.7364H19.6027C19.2927 14.9464 18.4327 15.7064 17.2627 15.7064ZM17.9127 14.1464C18.9227 14.1464 19.4027 13.0064 19.4027 11.9064C19.4027 10.8564 18.9627 9.6364 17.9127 9.6364C16.9227 9.6364 16.4427 10.8564 16.4427 11.9064C16.4427 12.9564 16.8727 14.1464 17.9127 14.1464Z"
        fillRule="evenodd"
        clipRule="evenodd"
    />
</svg>
        