
<svg
    viewBox="0 0 25.169921875 25.169921875"
    xmlns="http://www.w3.org/2000/svg"
>
    <path
        fill="inherit"
        d="M4.2937 25.1692H20.8737C23.7437 25.1692 25.1737 23.7592 25.1737 20.9492V4.2392C25.1737 1.4192 23.7437 -0.0008 20.8737 -0.0008H4.2937C1.4337 -0.0008 0.0037 1.4192 0.0037 4.2392V20.9492C0.0037 23.7592 1.4337 25.1692 4.2937 25.1692ZM4.3237 22.9692C2.9537 22.9692 2.2037 22.2392 2.2037 20.8192V4.3592C2.2037 2.9392 2.9537 2.1992 4.3237 2.1992H20.8537C22.2037 2.1992 22.9737 2.9392 22.9737 4.3592V20.8192C22.9737 22.2392 22.2037 22.9692 20.8537 22.9692ZM6.2037 18.0992H10.9537C11.4337 18.0992 11.7337 17.7892 11.7337 17.3092C11.7337 16.7892 11.4137 16.4992 10.9537 16.4992H7.7137V16.3892L9.6937 13.8592C11.0737 12.1692 11.5137 11.1592 11.5137 9.9492C11.5137 8.1092 10.2637 6.7692 8.3837 6.7692C6.6337 6.7692 5.3037 8.2192 5.3037 9.6392C5.3037 10.1492 5.5937 10.4992 6.1137 10.4992C6.5737 10.4992 6.8537 10.2992 6.9837 9.8392C7.2437 8.9292 7.5837 8.3492 8.3637 8.3492C9.1837 8.3492 9.6537 9.0792 9.6537 10.0492C9.6537 11.1392 8.8837 12.2492 8.1637 13.1792L5.7937 16.2192C5.5337 16.5392 5.2737 16.8892 5.2737 17.3092C5.2737 17.7692 5.5737 18.0992 6.2037 18.0992ZM15.8337 14.2892C16.9437 14.2892 17.7737 13.5492 18.0837 12.3692H18.1437V12.5192C18.1437 14.0392 17.9537 16.7792 16.4237 16.7792C15.8037 16.7792 15.3937 16.3492 15.1437 15.7592C14.9537 15.3092 14.6837 15.1392 14.2737 15.1392C13.7037 15.1392 13.4537 15.5192 13.4537 15.9692C13.4537 16.1292 13.4937 16.2992 13.5337 16.4592C13.8237 17.6492 15.0137 18.3792 16.3837 18.3792C19.1937 18.3792 20.0037 15.2692 20.0037 12.4692C20.0037 9.8892 19.1837 6.7992 16.4037 6.7992C14.3237 6.7992 13.1237 8.5492 13.1237 10.6892C13.1237 12.5392 14.0137 14.2892 15.8337 14.2892ZM16.4337 12.7792C15.4237 12.7792 15.0137 11.6192 15.0137 10.6092C15.0137 9.5792 15.4737 8.3792 16.4337 8.3792C17.4637 8.3792 17.8837 9.5792 17.8837 10.6092C17.8837 11.6592 17.4137 12.7792 16.4337 12.7792Z"
        fillRule="evenodd"
        clipRule="evenodd"
    />
</svg>
        