
<svg
    viewBox="0 0 25.169921875 25.169921875"
    xmlns="http://www.w3.org/2000/svg"
>
    <path
        fill="inherit"
        d="M4.2937 25.1692H20.8737C23.7437 25.1692 25.1737 23.7592 25.1737 20.9492V4.2392C25.1737 1.4192 23.7437 -0.0008 20.8737 -0.0008H4.2937C1.4337 -0.0008 0.0037 1.4192 0.0037 4.2392V20.9492C0.0037 23.7592 1.4337 25.1692 4.2937 25.1692ZM6.0037 18.2792C5.3437 18.2792 5.0437 17.9392 5.0437 17.4592C5.0437 17.0092 5.3037 16.6492 5.5737 16.3192L8.0137 13.1892C8.7637 12.2492 9.5537 11.0992 9.5537 9.9692C9.5537 8.9692 9.0737 8.2292 8.2337 8.2292C7.4237 8.2292 7.0837 8.8192 6.8037 9.7592C6.6737 10.2292 6.3837 10.4292 5.9237 10.4292C5.3637 10.4292 5.0737 10.0792 5.0737 9.5392C5.0737 8.0792 6.4437 6.5892 8.2437 6.5892C10.1837 6.5892 11.4837 7.9692 11.4837 9.8692C11.4837 11.1192 11.0237 12.1592 9.5937 13.9092L7.5637 16.4992V16.6092H10.8937C11.3737 16.6092 11.7037 16.9092 11.7037 17.4592C11.7037 17.9492 11.3937 18.2792 10.8937 18.2792ZM15.9237 14.3392C14.0537 14.3392 13.1437 12.5392 13.1437 10.6392C13.1437 8.4192 14.3837 6.6192 16.5337 6.6192C19.3837 6.6192 20.2337 9.7992 20.2337 12.4692C20.2337 15.3492 19.3837 18.5492 16.5037 18.5492C15.0937 18.5492 13.8637 17.8192 13.5637 16.5792C13.5237 16.4192 13.4837 16.2392 13.4837 16.0792C13.4837 15.6092 13.7437 15.2192 14.3237 15.2192C14.7537 15.2192 15.0437 15.3992 15.2337 15.8592C15.4937 16.4592 15.9137 16.8992 16.5437 16.8992C18.1137 16.8992 18.3037 14.0792 18.3037 12.5192V12.3692H18.2537C17.9337 13.5792 17.0737 14.3392 15.9237 14.3392ZM16.5537 12.7792C17.5637 12.7792 18.0437 11.6392 18.0437 10.5392C18.0437 9.4892 17.6137 8.2692 16.5537 8.2692C15.5737 8.2692 15.0937 9.4892 15.0937 10.5392C15.0937 11.5892 15.5137 12.7792 16.5537 12.7792Z"
        fillRule="evenodd"
        clipRule="evenodd"
    />
</svg>
        