
<svg
    viewBox="0 0 27.890625 27.890625"
    xmlns="http://www.w3.org/2000/svg"
>
    <path
        fill="inherit"
        d="M13.9427 27.8864C21.6427 27.8864 27.8927 21.6264 27.8927 13.9464C27.8927 6.2464 21.6427 -0.0036 13.9427 -0.0036C6.2627 -0.0036 0.0027 6.2464 0.0027 13.9464C0.0027 21.6264 6.2627 27.8864 13.9427 27.8864ZM6.7127 19.6464C6.0727 19.6464 5.7727 19.3064 5.7727 18.8264C5.7727 18.3864 6.0127 18.0364 6.2927 17.6864L8.7327 14.5764C9.4927 13.6164 10.2627 12.4664 10.2627 11.3364C10.2627 10.3364 9.8027 9.5964 8.9427 9.5964C8.1327 9.5964 7.7927 10.1864 7.5227 11.1264C7.3827 11.5964 7.0927 11.8164 6.6327 11.8164C6.0827 11.8164 5.7827 11.4464 5.7827 10.9064C5.7827 9.4464 7.1527 7.9564 8.9527 7.9564C10.8927 7.9564 12.2127 9.3364 12.2127 11.2364C12.2127 12.4864 11.7427 13.5264 10.3227 15.2764L8.2727 17.8664V17.9964H11.6027C12.1027 17.9964 12.4127 18.2764 12.4127 18.8264C12.4127 19.3164 12.1127 19.6464 11.6027 19.6464ZM15.2027 19.8264C14.6427 19.8264 14.1827 19.3564 14.1827 18.7864V9.0964C14.1827 8.5164 14.6427 8.0564 15.2027 8.0564C15.7627 8.0564 16.2427 8.5164 16.2427 9.0964V12.9864H19.7127V9.0964C19.7127 8.5164 20.1827 8.0564 20.7527 8.0564C21.3027 8.0564 21.7627 8.5164 21.7627 9.0964V18.7864C21.7627 19.3564 21.3027 19.8264 20.7527 19.8264C20.1827 19.8264 19.7127 19.3564 19.7127 18.7864V14.7064H16.2427V18.7864C16.2427 19.3564 15.7627 19.8264 15.2027 19.8264Z"
        fillRule="evenodd"
        clipRule="evenodd"
    />
</svg>
        