
<svg
    viewBox={0 0 27.890625 27.890625}
    xmlns="http://www.w3.org/2000/svg"
>
    <path
        fill="inherit"
        d="M13.9427 27.8864C21.6427 27.8864 27.8927 21.6464 27.8927 13.9464C27.8927 6.2464 21.6427 -0.0036 13.9427 -0.0036C6.2527 -0.0036 0.0027 6.2464 0.0027 13.9464C0.0027 21.6464 6.2527 27.8864 13.9427 27.8864ZM13.9427 25.5664C7.5227 25.5664 2.3227 20.3664 2.3227 13.9464C2.3227 7.5164 7.5227 2.3264 13.9427 2.3264C20.3727 2.3264 25.5627 7.5164 25.5627 13.9464C25.5627 20.3664 20.3727 25.5664 13.9427 25.5664ZM6.9227 19.4664H11.6627C12.1527 19.4664 12.4427 19.1564 12.4427 18.6764C12.4427 18.1564 12.1427 17.8664 11.6627 17.8664H8.4227V17.7564L10.4227 15.2264C11.7827 13.5364 12.2327 12.5264 12.2327 11.3164C12.2327 9.4764 10.9827 8.1364 9.0927 8.1364C7.3427 8.1364 6.0127 9.5864 6.0127 11.0064C6.0127 11.5164 6.3127 11.8664 6.8327 11.8664C7.2827 11.8664 7.5627 11.6664 7.6927 11.2064C7.9527 10.2964 8.3027 9.7164 9.0827 9.7164C9.9127 9.7164 10.3627 10.4464 10.3627 11.4164C10.3627 12.5064 9.6127 13.6164 8.8827 14.5464L6.5127 17.5864C6.2527 17.9064 6.0027 18.2564 6.0027 18.6764C6.0027 19.1364 6.3027 19.4664 6.9227 19.4664ZM15.1527 19.6464C15.6827 19.6464 16.1427 19.1964 16.1427 18.6364V14.6864H19.5227V18.6364C19.5227 19.1964 19.9727 19.6464 20.5227 19.6464C21.0527 19.6464 21.5027 19.1964 21.5027 18.6364V9.2264C21.5027 8.6864 21.0527 8.2264 20.5227 8.2264C19.9727 8.2264 19.5227 8.6864 19.5227 9.2264V13.0164H16.1427V9.2264C16.1427 8.6864 15.6827 8.2264 15.1527 8.2264C14.6027 8.2264 14.1527 8.6864 14.1527 9.2264V18.6364C14.1527 19.1964 14.6027 19.6464 15.1527 19.6464Z"
        fillRule="evenodd"
        clipRule="evenodd"
    />
</svg>
        