<svg viewBox="0 0 33.11328125 20.193359375" xmlns="http://www.w3.org/2000/svg"><path d="M18.6337 20.1946C19.3137 20.1946 19.8537 19.6446 19.8537 18.9746V10.9246H30.6837V18.9746C30.6837 19.6446 31.2237 20.1946 31.8937 20.1946C32.5637 20.1946 33.1137 19.6446 33.1137 18.9746V1.2146C33.1137 0.5346 32.5637 0.0046 31.8937 0.0046C31.2237 0.0046 30.6837 0.5346 30.6837 1.2146V8.8046H19.8537V1.2146C19.8537 0.5346 19.3137 0.0046 18.6337 0.0046C17.9637 0.0046 17.4137 0.5346 17.4137 1.2146V18.9746C17.4137 19.6446 17.9637 20.1946 18.6337 20.1946ZM1.2037 19.9046H12.5637C13.2437 19.9046 13.6837 19.4646 13.6837 18.7946C13.6837 18.1446 13.2437 17.7046 12.5637 17.7046H3.4637V17.6346L8.7937 12.4446C12.0437 9.2846 13.0137 7.6446 13.0137 5.5346C13.0137 2.4046 10.2237 0.0146 6.5237 0.0146C3.6237 0.0146 1.1237 1.5846 0.3037 3.9946C0.1337 4.4546 0.0637 4.8446 0.0637 5.1846C0.0637 5.8646 0.4637 6.3146 1.1337 6.3146C1.7737 6.3146 2.0537 6.0146 2.2537 5.3346C2.3637 4.9046 2.5137 4.5246 2.7337 4.1746C3.4737 2.9546 4.8137 2.1746 6.5237 2.1746C8.7337 2.1746 10.5037 3.7346 10.5037 5.6746C10.5037 7.2446 9.8737 8.3146 7.1637 10.9746L0.7637 17.3346C0.1937 17.9146 0.0037 18.2546 0.0037 18.7546C0.0037 19.4646 0.4737 19.9046 1.2037 19.9046Z" /></svg>