
<svg
    viewBox={0 0 27.890625 27.890625}
    xmlns="http://www.w3.org/2000/svg"
>
    <path
        fill="inherit"
        d="M13.9427 27.8864C21.6427 27.8864 27.8927 21.6464 27.8927 13.9464C27.8927 6.2464 21.6427 -0.0036 13.9427 -0.0036C6.2527 -0.0036 0.0027 6.2464 0.0027 13.9464C0.0027 21.6464 6.2527 27.8864 13.9427 27.8864ZM13.9427 25.5664C7.5227 25.5664 2.3227 20.3664 2.3227 13.9464C2.3227 7.5164 7.5227 2.3264 13.9427 2.3264C20.3727 2.3264 25.5627 7.5164 25.5627 13.9464C25.5627 20.3664 20.3727 25.5664 13.9427 25.5664ZM13.9727 20.4564C16.9127 20.4564 18.7327 18.9064 18.7327 16.7664C18.7327 15.1464 17.5127 13.8664 15.8627 13.7164V13.6064C17.2227 13.3964 18.2927 12.1364 18.2927 10.7064C18.2927 8.8064 16.5427 7.4364 14.0927 7.4364C11.8627 7.4364 10.1827 8.4764 9.8127 10.0864C9.7727 10.2764 9.7627 10.4364 9.7627 10.6364C9.7627 11.1664 10.1427 11.5364 10.6927 11.5364C11.1827 11.5364 11.4727 11.3064 11.6227 10.8264C11.9327 9.8064 12.7827 9.1564 14.0527 9.1564C15.4227 9.1564 16.2727 9.8464 16.2727 10.9464C16.2727 12.0764 15.3127 12.9064 14.0127 12.9064H13.1527C12.6427 12.9064 12.2927 13.2464 12.2927 13.7564C12.2927 14.2364 12.6427 14.5864 13.1527 14.5864H14.0827C15.6227 14.5864 16.6827 15.4364 16.6827 16.6764C16.6827 17.9064 15.6127 18.7164 14.0127 18.7164C12.5327 18.7164 11.7027 17.9964 11.3727 17.0464C11.1827 16.5664 10.9127 16.3564 10.4327 16.3564C9.8827 16.3564 9.4927 16.7364 9.4927 17.2764C9.4927 17.4864 9.5127 17.6064 9.5527 17.7964C9.9627 19.3764 11.7427 20.4564 13.9727 20.4564Z"
        fillRule="evenodd"
        clipRule="evenodd"
    />
</svg>
        