
<svg
    viewBox={0 0 27.890625 27.890625}
    xmlns="http://www.w3.org/2000/svg"
>
    <path
        fill="inherit"
        d="M13.9427 27.8864C21.6427 27.8864 27.8927 21.6264 27.8927 13.9464C27.8927 6.2464 21.6427 -0.0036 13.9427 -0.0036C6.2627 -0.0036 0.0027 6.2464 0.0027 13.9464C0.0027 21.6264 6.2627 27.8864 13.9427 27.8864ZM13.9827 20.6564C11.6727 20.6564 9.8427 19.5464 9.4227 17.9264C9.3827 17.7164 9.3527 17.5964 9.3527 17.3864C9.3527 16.8164 9.7627 16.4164 10.3327 16.4164C10.8327 16.4164 11.1127 16.6564 11.3027 17.1464C11.6527 18.1164 12.4927 18.8564 14.0227 18.8564C15.6727 18.8564 16.7727 18.0364 16.7727 16.7664C16.7727 15.4864 15.6827 14.6164 14.0927 14.6164H13.1427C12.6227 14.6164 12.2527 14.2464 12.2527 13.7564C12.2527 13.2164 12.6227 12.8664 13.1427 12.8664H14.0227C15.3627 12.8664 16.3527 12.0164 16.3527 10.8564C16.3527 9.7164 15.4727 9.0264 14.0727 9.0264C12.7527 9.0264 11.8827 9.6764 11.5627 10.7364C11.4027 11.2264 11.1027 11.4664 10.5927 11.4664C10.0327 11.4664 9.6427 11.0864 9.6427 10.5264C9.6427 10.3264 9.6527 10.1764 9.6927 9.9664C10.0727 8.2964 11.8127 7.2364 14.1127 7.2364C16.6427 7.2364 18.4427 8.6364 18.4427 10.6064C18.4427 12.0864 17.3527 13.3864 15.9327 13.5864V13.6964C17.6327 13.8664 18.8927 15.1864 18.8927 16.8464C18.8927 19.0764 17.0227 20.6564 13.9827 20.6564Z"
        fillRule="evenodd"
        clipRule="evenodd"
    />
</svg>
        