
<svg
    viewBox="0 0 25.169921875 20.603515625"
    xmlns="http://www.w3.org/2000/svg"
>
    <path
        fill="inherit"
        d="M0.0037 19.4923C0.0037 20.1023 0.4937 20.6023 1.0937 20.6023C1.7137 20.6023 2.2037 20.1023 2.2037 19.4923V1.0923C2.2037 0.4923 1.7137 0.0023 1.0937 0.0023C0.4937 0.0023 0.0037 0.4923 0.0037 1.0923ZM22.9737 19.4923C22.9737 20.1023 23.4737 20.6023 24.0737 20.6023C24.6737 20.6023 25.1737 20.1023 25.1737 19.4923V1.0923C25.1737 0.4923 24.6737 0.0023 24.0737 0.0023C23.4737 0.0023 22.9737 0.4923 22.9737 1.0923ZM12.5337 16.7623C14.8237 16.7623 16.6537 15.4323 16.6537 13.2323C16.6537 11.4523 15.4637 10.5123 14.0437 10.3723V10.3523C15.4237 10.0323 16.2437 8.9123 16.2437 7.5723C16.2437 5.5523 14.5737 4.4123 12.4837 4.4123C10.7437 4.4123 9.2437 5.3823 8.9037 6.7823C8.8637 6.9623 8.8337 7.1523 8.8337 7.3423C8.8337 7.8223 9.0737 8.2323 9.7337 8.2323C10.2537 8.2323 10.5437 8.0123 10.7237 7.5323C11.0037 6.5923 11.6037 6.1223 12.4937 6.1223C13.5337 6.1223 14.1937 6.7923 14.1937 7.8323C14.1937 8.9723 13.3937 9.6423 12.2637 9.6423H11.8037C11.2837 9.6423 10.9537 9.9423 10.9537 10.4323C10.9537 10.9423 11.2937 11.2223 11.8037 11.2223H12.2737C13.5537 11.2223 14.4637 11.7723 14.4637 13.1523C14.4637 14.2623 13.6837 15.0123 12.5537 15.0123C11.4537 15.0123 10.8137 14.4523 10.5437 13.6023C10.3537 13.1623 9.9937 12.9023 9.5737 12.9023C8.9837 12.9023 8.6137 13.2623 8.6137 13.8523C8.6137 14.0423 8.6437 14.2223 8.6837 14.3923C9.0737 15.9823 10.8737 16.7623 12.5337 16.7623Z"
        fillRule="evenodd"
        clipRule="evenodd"
    />
</svg>
        