
<svg
    viewBox="0 0 25.169921875 25.169921875"
    xmlns="http://www.w3.org/2000/svg"
>
    <path
        fill="inherit"
        d="M4.2937 25.1692H20.8737C23.7437 25.1692 25.1737 23.7592 25.1737 20.9492V4.2392C25.1737 1.4192 23.7437 -0.0008 20.8737 -0.0008H4.2937C1.4337 -0.0008 0.0037 1.4192 0.0037 4.2392V20.9492C0.0037 23.7592 1.4337 25.1692 4.2937 25.1692ZM12.6437 19.2892C10.3237 19.2892 8.4937 18.1792 8.0637 16.5592C8.0237 16.3492 8.0137 16.2292 8.0137 16.0192C8.0137 15.4492 8.4037 15.0492 8.9837 15.0492C9.4737 15.0492 9.7737 15.2892 9.9537 15.7792C10.3037 16.7492 11.1437 17.4892 12.6837 17.4892C14.3237 17.4892 15.4337 16.6692 15.4337 15.3992C15.4337 14.1192 14.3237 13.2492 12.7437 13.2492H11.7837C11.2837 13.2492 10.8937 12.8792 10.8937 12.3892C10.8937 11.8492 11.2837 11.4992 11.7837 11.4992H12.6737C14.0137 11.4992 14.9937 10.6492 14.9937 9.4892C14.9937 8.3492 14.1237 7.6592 12.7137 7.6592C11.4137 7.6592 10.5237 8.3092 10.2237 9.3692C10.0537 9.8592 9.7437 10.0992 9.2437 10.0992C8.6837 10.0992 8.2837 9.7192 8.2837 9.1592C8.2837 8.9592 8.3037 8.8092 8.3537 8.5992C8.7237 6.9292 10.4637 5.8692 12.7537 5.8692C15.2837 5.8692 17.0937 7.2692 17.0937 9.2392C17.0937 10.7192 15.9937 12.0192 14.5737 12.2192V12.3292C16.2837 12.4992 17.5437 13.8192 17.5437 15.4792C17.5437 17.7092 15.6637 19.2892 12.6437 19.2892Z"
        fillRule="evenodd"
        clipRule="evenodd"
    />
</svg>
        