<svg viewBox="0 0 25.169921875 25.169921875" xmlns="http://www.w3.org/2000/svg"><path d="M4.2937 25.1692H20.8737C23.7437 25.1692 25.1737 23.7592 25.1737 20.9492V4.2392C25.1737 1.4192 23.7437 -0.0008 20.8737 -0.0008H4.2937C1.4337 -0.0008 0.0037 1.4192 0.0037 4.2392V20.9492C0.0037 23.7592 1.4337 25.1692 4.2937 25.1692ZM4.3237 22.9692C2.9537 22.9692 2.2037 22.2392 2.2037 20.8192V4.3592C2.2037 2.9392 2.9537 2.1992 4.3237 2.1992H20.8537C22.2037 2.1992 22.9737 2.9392 22.9737 4.3592V20.8192C22.9737 22.2392 22.2037 22.9692 20.8537 22.9692ZM12.6437 19.0892C15.5737 19.0892 17.3937 17.5392 17.3937 15.3992C17.3937 13.7792 16.1737 12.4992 14.5237 12.3492V12.2392C15.8837 12.0292 16.9537 10.7692 16.9537 9.3392C16.9537 7.4392 15.2037 6.0692 12.7537 6.0692C10.5237 6.0692 8.8437 7.1092 8.4937 8.7192C8.4337 8.9092 8.4237 9.0692 8.4237 9.2692C8.4237 9.7992 8.8037 10.1692 9.3537 10.1692C9.8437 10.1692 10.1337 9.9392 10.2937 9.4592C10.5937 8.4392 11.4537 7.7892 12.7137 7.7892C14.0837 7.7892 14.9337 8.4792 14.9337 9.5792C14.9337 10.7092 13.9737 11.5392 12.6737 11.5392H11.8137C11.3237 11.5392 10.9537 11.8792 10.9537 12.3892C10.9537 12.8692 11.3237 13.2192 11.8137 13.2192H12.7437C14.2837 13.2192 15.3537 14.0692 15.3537 15.3092C15.3537 16.5392 14.2837 17.3492 12.6837 17.3492C11.1937 17.3492 10.3737 16.6292 10.0337 15.6792C9.8537 15.1992 9.5737 14.9892 9.0937 14.9892C8.5437 14.9892 8.1637 15.3692 8.1637 15.9092C8.1637 16.1192 8.1737 16.2392 8.2137 16.4292C8.6237 18.0092 10.4037 19.0892 12.6437 19.0892Z" /></svg>