
<svg
    viewBox={0 0 27.890625 30.544813437289537}
    xmlns="http://www.w3.org/2000/svg"
>
    <path
        fill="inherit"
        d="M13.9427 30.5406C21.6427 30.5406 27.8927 24.3006 27.8927 16.6006C27.8927 9.7806 22.9827 4.1206 16.5827 2.9106V0.9706C16.5827 -0.0094 15.9127 -0.2594 15.1527 0.2706L10.8027 3.3406C10.1727 3.7906 10.1827 4.4406 10.8027 4.8806L15.1627 7.9406C15.9127 8.4606 16.5827 8.2206 16.5827 7.2506V5.2806C21.7227 6.4706 25.5627 11.0506 25.5627 16.6006C25.5627 23.0206 20.3727 28.2206 13.9427 28.2206C7.5227 28.2206 2.3227 23.0206 2.3227 16.6006C2.3227 12.7006 4.2427 9.2706 7.1327 7.1906C7.6927 6.7706 7.8727 6.1306 7.5327 5.5506C7.1927 5.0106 6.4127 4.8406 5.8127 5.3106C2.2827 7.8506 0.0027 11.9106 0.0027 16.6006C0.0027 24.3006 6.2527 30.5406 13.9427 30.5406ZM18.3327 22.3006C21.0127 22.3006 21.9727 19.5506 21.9727 16.8406C21.9727 14.1506 21.0127 11.4006 18.3327 11.4006C15.6227 11.4006 14.6827 14.1706 14.6827 16.8406C14.6827 19.5706 15.6427 22.3006 18.3327 22.3006ZM9.5727 22.3006C11.5827 22.3006 13.1827 21.1406 13.1827 19.2006C13.1827 17.6206 12.1427 16.8006 10.8827 16.6806V16.6506C12.1027 16.3806 12.8227 15.4106 12.8227 14.2206C12.8227 12.4406 11.3627 11.4406 9.5327 11.4406C8.0027 11.4406 6.6827 12.3106 6.3827 13.5406C6.3427 13.6906 6.3127 13.8606 6.3127 14.0306C6.3127 14.4506 6.5527 14.8106 7.1127 14.8106C7.5727 14.8106 7.8227 14.6206 7.9727 14.1806C8.2327 13.3606 8.7627 12.9506 9.5427 12.9506C10.4627 12.9506 11.0227 13.5406 11.0227 14.4506C11.0227 15.4506 10.3327 16.0406 9.3227 16.0406H8.9327C8.4627 16.0406 8.1927 16.3106 8.1927 16.7406C8.1927 17.1906 8.4727 17.4306 8.9327 17.4306H9.3527C10.4627 17.4306 11.2627 17.9106 11.2627 19.1106C11.2627 20.0906 10.5827 20.7606 9.5827 20.7606C8.6227 20.7606 8.0627 20.2606 7.8227 19.5106C7.6427 19.1406 7.3427 18.9106 6.9727 18.9106C6.4527 18.9106 6.1227 19.2206 6.1227 19.7306C6.1227 19.8906 6.1527 20.0606 6.1927 20.2206C6.5327 21.6006 8.1227 22.3006 9.5727 22.3006ZM18.3327 20.7606C17.1827 20.7606 16.6127 19.0706 16.6127 16.8406C16.6127 14.6306 17.1827 12.9606 18.3327 12.9606C19.4727 12.9606 20.0427 14.6306 20.0427 16.8406C20.0427 19.0706 19.4727 20.7606 18.3327 20.7606Z"
        fillRule="evenodd"
        clipRule="evenodd"
    />
</svg>
        