
<svg
    viewBox={0 0 27.890625 27.890625}
    xmlns="http://www.w3.org/2000/svg"
>
    <path
        fill="inherit"
        d="M13.9427 27.8864C21.6427 27.8864 27.8927 21.6264 27.8927 13.9464C27.8927 6.2464 21.6427 -0.0036 13.9427 -0.0036C6.2627 -0.0036 0.0027 6.2464 0.0027 13.9464C0.0027 21.6264 6.2627 27.8864 13.9427 27.8864ZM18.2827 19.9164C15.4627 19.9164 14.6327 16.7764 14.6327 13.9364C14.6327 11.0864 15.4627 7.9464 18.2827 7.9464C21.0927 7.9464 21.9327 11.0864 21.9327 13.9364C21.9327 16.7764 21.0927 19.9164 18.2827 19.9164ZM9.5727 19.8764C8.0427 19.8764 6.6127 19.1564 6.2027 17.8464C6.1427 17.6064 6.0927 17.3664 6.0927 17.1064C6.0927 16.5464 6.4627 16.2164 7.0227 16.2164C7.4827 16.2164 7.7827 16.4464 7.9327 16.9164C8.0927 17.5364 8.5427 18.2264 9.5727 18.2264C10.6227 18.2264 11.1327 17.4064 11.1327 16.4464C11.1327 15.2064 10.4727 14.5564 9.2727 14.5564H8.9327C8.4527 14.5564 8.1527 14.2764 8.1527 13.8064C8.1527 13.3564 8.4327 13.0564 8.9327 13.0564H9.2527C10.3127 13.0564 10.8827 12.3064 10.8827 11.2764C10.8827 10.3464 10.4427 9.6364 9.5127 9.6364C8.7227 9.6364 8.2727 10.1564 8.0527 10.9964C7.9127 11.4664 7.6427 11.6664 7.1527 11.6664C6.5927 11.6664 6.2727 11.2764 6.2727 10.8264C6.2727 10.5964 6.3027 10.3364 6.3827 10.0664C6.7927 8.8164 8.0527 7.9964 9.5127 7.9964C11.3427 7.9964 12.8127 9.1064 12.8127 11.0564C12.8127 12.2364 12.1927 13.3664 10.9127 13.7164V13.7664C12.1027 13.8864 13.1527 14.7564 13.1527 16.5064C13.1527 18.6064 11.5927 19.8764 9.5727 19.8764ZM18.2827 18.2364C19.4327 18.2364 19.8627 16.3764 19.8627 13.9364C19.8627 11.4664 19.4327 9.6064 18.2827 9.6064C17.1427 9.6064 16.7027 11.4664 16.7027 13.9364C16.7027 16.3764 17.1427 18.2364 18.2827 18.2364Z"
        fillRule="evenodd"
        clipRule="evenodd"
    />
</svg>
        