
<svg
    viewBox={0 0 25.169921875 25.169921875}
    xmlns="http://www.w3.org/2000/svg"
>
    <path
        fill="inherit"
        d="M4.2937 25.1692H20.8737C23.7437 25.1692 25.1737 23.7592 25.1737 20.9492V4.2392C25.1737 1.4192 23.7437 -0.0008 20.8737 -0.0008H4.2937C1.4337 -0.0008 0.0037 1.4192 0.0037 4.2392V20.9492C0.0037 23.7592 1.4337 25.1692 4.2937 25.1692ZM4.3237 22.9692C2.9537 22.9692 2.2037 22.2392 2.2037 20.8192V4.3592C2.2037 2.9392 2.9537 2.1992 4.3237 2.1992H20.8537C22.2037 2.1992 22.9737 2.9392 22.9737 4.3592V20.8192C22.9737 22.2392 22.2037 22.9692 20.8537 22.9692ZM16.8037 18.3792C19.5237 18.3792 20.3337 15.3092 20.3337 12.5692C20.3337 9.8192 19.5237 6.7492 16.8037 6.7492C14.0637 6.7492 13.2637 9.8192 13.2637 12.5692C13.2637 15.3092 14.0637 18.3792 16.8037 18.3792ZM8.3537 18.3292C10.3237 18.3292 11.8237 17.0992 11.8237 15.0492C11.8237 13.3592 10.8137 12.5192 9.6537 12.3992V12.3492C10.8937 12.0192 11.4937 10.9192 11.4937 9.7792C11.4937 7.8892 10.0937 6.8092 8.3037 6.8092C6.8937 6.8092 5.6737 7.5992 5.2737 8.8192C5.1937 9.0792 5.1637 9.3192 5.1637 9.5592C5.1637 9.9892 5.4737 10.3592 6.0137 10.3592C6.4837 10.3592 6.7537 10.1692 6.8737 9.7092C7.0937 8.8992 7.5337 8.3792 8.3037 8.3792C9.2037 8.3792 9.6437 9.0892 9.6437 9.9892C9.6437 10.9892 9.0737 11.7192 8.0537 11.7192H7.7237C7.2637 11.7192 6.9737 11.9992 6.9737 12.4392C6.9737 12.8892 7.2737 13.1692 7.7237 13.1692H8.0637C9.2237 13.1692 9.8737 13.7992 9.8737 14.9992C9.8737 15.9392 9.3837 16.7392 8.3537 16.7392C7.3737 16.7392 6.9137 16.0692 6.7537 15.4492C6.6137 15.0092 6.3337 14.7792 5.8937 14.7792C5.3437 14.7792 4.9937 15.0892 4.9937 15.6392C4.9937 15.8892 5.0337 16.1292 5.1037 16.3492C5.4937 17.6192 6.8937 18.3292 8.3537 18.3292ZM16.8037 16.7492C15.6837 16.7492 15.2537 14.9292 15.2537 12.5692C15.2537 10.1892 15.6837 8.3692 16.8037 8.3692C17.9237 8.3692 18.3337 10.1892 18.3337 12.5692C18.3337 14.9292 17.9237 16.7492 16.8037 16.7492Z"
        fillRule="evenodd"
        clipRule="evenodd"
    />
</svg>
        