
<svg
    viewBox="0 0 27.890625 27.890625"
    xmlns="http://www.w3.org/2000/svg"
>
    <path
        fill="inherit"
        d="M13.9427 27.8864C21.6427 27.8864 27.8927 21.6264 27.8927 13.9464C27.8927 6.2464 21.6427 -0.0036 13.9427 -0.0036C6.2627 -0.0036 0.0027 6.2464 0.0027 13.9464C0.0027 21.6264 6.2627 27.8864 13.9427 27.8864ZM10.6327 19.8964C9.1227 19.8964 7.6827 19.1664 7.2727 17.8564C7.2027 17.6264 7.1627 17.3764 7.1627 17.1164C7.1627 16.5664 7.5327 16.2264 8.0927 16.2264C8.5427 16.2264 8.8427 16.4564 8.9827 16.9264C9.1627 17.5664 9.6127 18.2564 10.6327 18.2564C11.6727 18.2564 12.1927 17.4164 12.1927 16.4464C12.1927 15.2264 11.5427 14.5764 10.3327 14.5764H9.9927C9.5327 14.5764 9.2127 14.2964 9.2127 13.8364C9.2127 13.3664 9.5127 13.0664 9.9927 13.0664H10.3227C11.3927 13.0664 11.9527 12.3164 11.9527 11.2964C11.9527 10.3664 11.5127 9.6564 10.5827 9.6564C9.7927 9.6564 9.3527 10.1764 9.1227 11.0064C8.9827 11.4964 8.6927 11.6764 8.2127 11.6764C7.6527 11.6764 7.3527 11.3064 7.3527 10.8464C7.3527 10.5964 7.3827 10.3464 7.4627 10.0764C7.8627 8.8364 9.1327 8.0164 10.5827 8.0164C12.4127 8.0164 13.8927 9.1164 13.8927 11.0764C13.8927 12.2464 13.2527 13.3964 11.9727 13.7364V13.7764C13.1627 13.9064 14.2227 14.7664 14.2227 16.5164C14.2227 18.6164 12.6627 19.8964 10.6327 19.8964ZM18.9627 19.7964C18.3927 19.7964 17.9227 19.3364 17.9227 18.7564V10.2164L16.6227 11.2564C16.4927 11.3564 16.3427 11.4264 16.1227 11.4264C15.6927 11.4264 15.3927 11.1164 15.3927 10.6764C15.3927 10.3064 15.5827 10.0364 15.8427 9.8464L17.3927 8.6364C17.7227 8.3964 18.1927 8.0664 18.8027 8.0664C19.5327 8.0664 19.9927 8.4864 19.9927 9.2164V18.7564C19.9927 19.3364 19.5227 19.7964 18.9627 19.7964Z"
        fillRule="evenodd"
        clipRule="evenodd"
    />
</svg>
        