
<svg
    viewBox="0 0 27.890625 27.890625"
    xmlns="http://www.w3.org/2000/svg"
>
    <path
        fill="inherit"
        d="M13.9427 27.8864C21.6427 27.8864 27.8927 21.6464 27.8927 13.9464C27.8927 6.2464 21.6427 -0.0036 13.9427 -0.0036C6.2527 -0.0036 0.0027 6.2464 0.0027 13.9464C0.0027 21.6464 6.2527 27.8864 13.9427 27.8864ZM13.9427 25.5664C7.5227 25.5664 2.3227 20.3664 2.3227 13.9464C2.3227 7.5164 7.5227 2.3264 13.9427 2.3264C20.3727 2.3264 25.5627 7.5164 25.5627 13.9464C25.5627 20.3664 20.3727 25.5664 13.9427 25.5664ZM10.7227 19.7164C12.6727 19.7164 14.1927 18.4864 14.1927 16.4364C14.1927 14.7364 13.1627 13.9064 12.0127 13.7764V13.7364C13.2527 13.4164 13.8627 12.3064 13.8627 11.1564C13.8627 9.2664 12.4427 8.1864 10.6627 8.1864C9.2527 8.1864 8.0227 8.9864 7.6427 10.1964C7.5627 10.4564 7.5327 10.7064 7.5327 10.9364C7.5327 11.3864 7.8327 11.7464 8.3627 11.7464C8.8327 11.7464 9.1027 11.5664 9.2427 11.0864C9.4627 10.2764 9.9027 9.7764 10.6627 9.7764C11.5627 9.7764 11.9927 10.4764 11.9927 11.3764C11.9927 12.3764 11.4427 13.0964 10.4227 13.0964H10.0927C9.6227 13.0964 9.3427 13.3864 9.3427 13.8364C9.3427 14.2864 9.6427 14.5464 10.0927 14.5464H10.4327C11.5927 14.5464 12.2327 15.1864 12.2327 16.3764C12.2327 17.3264 11.7327 18.1264 10.7227 18.1264C9.7227 18.1264 9.2827 17.4564 9.1027 16.8264C8.9827 16.3964 8.6827 16.1564 8.2427 16.1564C7.7127 16.1564 7.3527 16.4864 7.3527 17.0264C7.3527 17.2664 7.3927 17.5164 7.4627 17.7364C7.8627 19.0064 9.2427 19.7164 10.7227 19.7164ZM18.7827 19.6164C19.3227 19.6164 19.7727 19.1664 19.7727 18.6164V9.3564C19.7727 8.6564 19.3327 8.2464 18.6227 8.2464C18.0427 8.2464 17.5827 8.5564 17.2627 8.8064L15.7627 9.9664C15.5127 10.1564 15.3227 10.4164 15.3227 10.7764C15.3227 11.1964 15.6127 11.4964 16.0227 11.4964C16.2427 11.4964 16.3827 11.4264 16.5127 11.3364L17.7727 10.3264V18.6164C17.7727 19.1664 18.2227 19.6164 18.7827 19.6164Z"
        fillRule="evenodd"
        clipRule="evenodd"
    />
</svg>
        