
<svg
    viewBox={0 0 25.169921875 25.169921875}
    xmlns="http://www.w3.org/2000/svg"
>
    <path
        fill="inherit"
        d="M4.2937 25.1692H20.8737C23.7437 25.1692 25.1737 23.7592 25.1737 20.9492V4.2392C25.1737 1.4192 23.7437 -0.0008 20.8737 -0.0008H4.2937C1.4337 -0.0008 0.0037 1.4192 0.0037 4.2392V20.9492C0.0037 23.7592 1.4337 25.1692 4.2937 25.1692ZM9.2837 18.5292C7.7637 18.5292 6.3337 17.7992 5.9237 16.4892C5.8537 16.2592 5.8137 16.0092 5.8137 15.7492C5.8137 15.1992 6.1837 14.8592 6.7437 14.8592C7.2037 14.8592 7.4937 15.0892 7.6437 15.5592C7.8037 16.1992 8.2537 16.8892 9.2837 16.8892C10.3237 16.8892 10.8437 16.0492 10.8437 15.0792C10.8437 13.8592 10.1837 13.2092 8.9837 13.2092H8.6437C8.1737 13.2092 7.8637 12.9292 7.8637 12.4692C7.8637 11.9992 8.1637 11.6992 8.6437 11.6992H8.9737C10.0337 11.6992 10.6137 10.9492 10.6137 9.9292C10.6137 8.9992 10.1537 8.2892 9.2237 8.2892C8.4337 8.2892 7.9937 8.8092 7.7637 9.6392C7.6337 10.1292 7.3537 10.3092 6.8637 10.3092C6.3037 10.3092 6.0037 9.9392 6.0037 9.4792C6.0037 9.2292 6.0337 8.9792 6.1137 8.7092C6.5037 7.4692 7.7837 6.6492 9.2237 6.6492C11.0637 6.6492 12.5337 7.7492 12.5337 9.7092C12.5337 10.8792 11.9037 12.0292 10.6237 12.3692V12.4092C11.8137 12.5392 12.8637 13.3992 12.8637 15.1492C12.8637 17.2492 11.3037 18.5292 9.2837 18.5292ZM17.6137 18.4292C17.0337 18.4292 16.5737 17.9692 16.5737 17.3892V8.8492L15.2737 9.8892C15.1337 9.9892 14.9837 10.0592 14.7837 10.0592C14.3437 10.0592 14.0437 9.7492 14.0437 9.3092C14.0437 8.9392 14.2337 8.6692 14.4937 8.4792L16.0337 7.2692C16.3637 7.0292 16.8437 6.6992 17.4437 6.6992C18.1837 6.6992 18.6337 7.1192 18.6337 7.8492V17.3892C18.6337 17.9692 18.1737 18.4292 17.6137 18.4292Z"
        fillRule="evenodd"
        clipRule="evenodd"
    />
</svg>
        