
<svg
    viewBox="0 0 25.169921875 25.169921875"
    xmlns="http://www.w3.org/2000/svg"
>
    <path
        fill="inherit"
        d="M4.2937 25.1692H20.8737C23.7437 25.1692 25.1737 23.7592 25.1737 20.9492V4.2392C25.1737 1.4192 23.7437 -0.0008 20.8737 -0.0008H4.2937C1.4337 -0.0008 0.0037 1.4192 0.0037 4.2392V20.9492C0.0037 23.7592 1.4337 25.1692 4.2937 25.1692ZM4.3237 22.9692C2.9537 22.9692 2.2037 22.2392 2.2037 20.8192V4.3592C2.2037 2.9392 2.9537 2.1992 4.3237 2.1992H20.8537C22.2037 2.1992 22.9737 2.9392 22.9737 4.3592V20.8192C22.9737 22.2392 22.2037 22.9692 20.8537 22.9692ZM9.3837 18.3492C11.3337 18.3492 12.8537 17.1192 12.8537 15.0692C12.8537 13.3692 11.8237 12.5392 10.6737 12.4092V12.3692C11.9237 12.0492 12.5237 10.9392 12.5237 9.7892C12.5237 7.8992 11.1037 6.8192 9.3237 6.8192C7.9137 6.8192 6.6837 7.6192 6.3037 8.8292C6.2237 9.0892 6.1937 9.3392 6.1937 9.5692C6.1937 10.0192 6.4937 10.3792 7.0237 10.3792C7.5037 10.3792 7.7637 10.1992 7.9037 9.7192C8.1237 8.9092 8.5537 8.4092 9.3237 8.4092C10.2237 8.4092 10.6637 9.1092 10.6637 10.0092C10.6637 11.0092 10.1037 11.7292 9.0737 11.7292H8.7537C8.2837 11.7292 7.9937 12.0192 7.9937 12.4692C7.9937 12.9192 8.3037 13.1792 8.7537 13.1792H9.0937C10.2537 13.1792 10.8937 13.8192 10.8937 15.0092C10.8937 15.9592 10.3937 16.7592 9.3837 16.7592C8.3837 16.7592 7.9437 16.0892 7.7837 15.4592C7.6437 15.0292 7.3537 14.7892 6.9037 14.7892C6.3737 14.7892 6.0137 15.1192 6.0137 15.6592C6.0137 15.8992 6.0537 16.1492 6.1237 16.3692C6.5237 17.6392 7.9037 18.3492 9.3837 18.3492ZM17.4437 18.2492C17.9737 18.2492 18.4337 17.7992 18.4337 17.2492V7.9892C18.4337 7.2892 17.9937 6.8792 17.2837 6.8792C16.7037 6.8792 16.2437 7.1892 15.9237 7.4392L14.4237 8.5992C14.1737 8.7892 13.9837 9.0492 13.9837 9.4092C13.9837 9.8292 14.2737 10.1292 14.6937 10.1292C14.9037 10.1292 15.0437 10.0592 15.1737 9.9692L16.4337 8.9592V17.2492C16.4337 17.7992 16.8837 18.2492 17.4437 18.2492Z"
        fillRule="evenodd"
        clipRule="evenodd"
    />
</svg>
        