
<svg
    viewBox={0 0 27.890625 27.890625}
    xmlns="http://www.w3.org/2000/svg"
>
    <path
        fill="inherit"
        d="M13.9427 27.8864C21.6427 27.8864 27.8927 21.6264 27.8927 13.9464C27.8927 6.2464 21.6427 -0.0036 13.9427 -0.0036C6.2627 -0.0036 0.0027 6.2464 0.0027 13.9464C0.0027 21.6264 6.2627 27.8864 13.9427 27.8864ZM15.7227 19.6464C15.0927 19.6464 14.7827 19.3064 14.7827 18.8264C14.7827 18.3764 15.0527 18.0364 15.3027 17.6864L17.7427 14.5564C18.5027 13.6164 19.2927 12.4664 19.2927 11.3364C19.2927 10.3364 18.8127 9.5964 17.9527 9.5964C17.1627 9.5964 16.8027 10.1864 16.5527 11.1264C16.3927 11.5964 16.1027 11.8164 15.6427 11.8164C15.1027 11.8164 14.7927 11.4464 14.7927 10.9064C14.7927 9.4464 16.1627 7.9564 17.9627 7.9564C19.9227 7.9564 21.2227 9.3364 21.2227 11.2364C21.2227 12.4864 20.7527 13.5264 19.3427 15.2764L17.2827 17.8664V17.9764H20.6127C21.1227 17.9764 21.4227 18.2764 21.4227 18.8264C21.4227 19.3164 21.1327 19.6464 20.6127 19.6464ZM9.7527 19.8964C8.2127 19.8964 6.7927 19.1664 6.3827 17.8564C6.3127 17.6264 6.2727 17.3764 6.2727 17.1164C6.2727 16.5664 6.6427 16.2264 7.1927 16.2264C7.6427 16.2264 7.9527 16.4564 8.0827 16.9264C8.2727 17.5664 8.7227 18.2564 9.7527 18.2564C10.7827 18.2564 11.3027 17.4364 11.3027 16.4564C11.3027 15.2264 10.6327 14.5764 9.4427 14.5764H9.0927C8.6227 14.5764 8.3127 14.2964 8.3127 13.8364C8.3127 13.3664 8.6127 13.0664 9.0927 13.0664H9.4327C10.4827 13.0664 11.0427 12.3164 11.0427 11.2964C11.0427 10.3664 10.6127 9.6564 9.6827 9.6564C8.9027 9.6564 8.4527 10.1764 8.2327 11.0064C8.0827 11.4964 7.7927 11.6764 7.3127 11.6764C6.7627 11.6764 6.4527 11.3064 6.4527 10.8464C6.4527 10.6064 6.4827 10.3464 6.5527 10.0764C6.9627 8.8364 8.2327 8.0164 9.6827 8.0164C11.5227 8.0164 12.9927 9.1164 12.9927 11.0764C12.9927 12.2464 12.3627 13.3964 11.0927 13.7364V13.7764C12.2627 13.9064 13.3127 14.7664 13.3127 16.5164C13.3127 18.6364 11.7627 19.8964 9.7527 19.8964Z"
        fillRule="evenodd"
        clipRule="evenodd"
    />
</svg>
        