
<svg
    viewBox="0 0 25.169921875 25.169921875"
    xmlns="http://www.w3.org/2000/svg"
>
    <path
        fill="inherit"
        d="M4.2937 25.1692H20.8737C23.7437 25.1692 25.1737 23.7592 25.1737 20.9492V4.2392C25.1737 1.4192 23.7437 -0.0008 20.8737 -0.0008H4.2937C1.4337 -0.0008 0.0037 1.4192 0.0037 4.2392V20.9492C0.0037 23.7592 1.4337 25.1692 4.2937 25.1692ZM14.3737 18.2792C13.7437 18.2792 13.4237 17.9392 13.4237 17.4592C13.4237 17.0092 13.7037 16.6692 13.9437 16.3192L16.3937 13.1892C17.1437 12.2492 17.9337 11.0992 17.9337 9.9692C17.9337 8.9692 17.4637 8.2292 16.6137 8.2292C15.8037 8.2292 15.4537 8.8192 15.2037 9.7592C15.0437 10.2292 14.7537 10.4492 14.2837 10.4492C13.7537 10.4492 13.4437 10.0792 13.4437 9.5392C13.4437 8.0792 14.8037 6.5892 16.6137 6.5892C18.5637 6.5892 19.8637 7.9692 19.8637 9.8692C19.8637 11.1192 19.4037 12.1592 17.9937 13.9092L15.9237 16.4992V16.6092H19.2737C19.7737 16.6092 20.0737 16.9092 20.0737 17.4592C20.0737 17.9492 19.7837 18.2792 19.2737 18.2792ZM8.3937 18.5292C6.8637 18.5292 5.4437 17.7992 5.0337 16.4892C4.9637 16.2592 4.9237 16.0092 4.9237 15.7492C4.9237 15.1992 5.2937 14.8592 5.8337 14.8592C6.3037 14.8592 6.6037 15.0892 6.7237 15.5592C6.9137 16.1992 7.3737 16.8892 8.3937 16.8892C9.4337 16.8892 9.9537 16.0692 9.9537 15.0892C9.9537 13.8592 9.2837 13.2092 8.0937 13.2092H7.7337C7.2737 13.2092 6.9637 12.9292 6.9637 12.4692C6.9637 11.9992 7.2637 11.6992 7.7337 11.6992H8.0837C9.1337 11.6992 9.7037 10.9492 9.7037 9.9292C9.7037 8.9992 9.2537 8.2892 8.3237 8.2892C7.5437 8.2892 7.0937 8.8092 6.8737 9.6392C6.7237 10.1292 6.4537 10.3092 5.9637 10.3092C5.4137 10.3092 5.1037 9.9392 5.1037 9.4792C5.1037 9.2392 5.1237 8.9792 5.2137 8.7092C5.6037 7.4692 6.8737 6.6492 8.3237 6.6492C10.1737 6.6492 11.6337 7.7492 11.6337 9.7092C11.6337 10.8792 11.0237 12.0292 9.7337 12.3692V12.4092C10.9137 12.5392 11.9737 13.3992 11.9737 15.1492C11.9737 17.2692 10.4037 18.5292 8.3937 18.5292Z"
        fillRule="evenodd"
        clipRule="evenodd"
    />
</svg>
        