
<svg
    viewBox={0 0 25.169921875 25.169921875}
    xmlns="http://www.w3.org/2000/svg"
>
    <path
        fill="inherit"
        d="M4.2937 25.1692H20.8737C23.7437 25.1692 25.1737 23.7592 25.1737 20.9492V4.2392C25.1737 1.4192 23.7437 -0.0008 20.8737 -0.0008H4.2937C1.4337 -0.0008 0.0037 1.4192 0.0037 4.2392V20.9492C0.0037 23.7592 1.4337 25.1692 4.2937 25.1692ZM4.3237 22.9692C2.9537 22.9692 2.2037 22.2392 2.2037 20.8192V4.3592C2.2037 2.9392 2.9537 2.1992 4.3237 2.1992H20.8537C22.2037 2.1992 22.9737 2.9392 22.9737 4.3592V20.8192C22.9737 22.2392 22.2037 22.9692 20.8537 22.9692ZM14.3137 18.0992H19.0737C19.5537 18.0992 19.8337 17.7892 19.8337 17.3092C19.8337 16.7892 19.5337 16.4992 19.0737 16.4992H15.8137V16.3892L17.8137 13.8592C19.1837 12.1692 19.6337 11.1592 19.6337 9.9492C19.6337 8.1092 18.3737 6.7692 16.4837 6.7692C14.7337 6.7692 13.4137 8.2192 13.4137 9.6392C13.4137 10.1492 13.7137 10.4992 14.2337 10.4992C14.6837 10.4992 14.9537 10.2992 15.1037 9.8392C15.3537 8.9292 15.6937 8.3492 16.4837 8.3492C17.3037 8.3492 17.7737 9.0792 17.7737 10.0492C17.7737 11.1392 17.0037 12.2492 16.2837 13.1792L13.9037 16.2192C13.6537 16.5392 13.3937 16.8892 13.3937 17.3092C13.3937 17.7692 13.7037 18.0992 14.3137 18.0992ZM8.5137 18.3492C10.4737 18.3492 11.9937 17.1192 11.9937 15.0692C11.9937 13.3692 10.9637 12.5392 9.8137 12.4092V12.3692C11.0637 12.0492 11.6637 10.9392 11.6637 9.7892C11.6637 7.8992 10.2437 6.8192 8.4637 6.8192C7.0537 6.8192 5.8237 7.6192 5.4437 8.8292C5.3637 9.0892 5.3337 9.3392 5.3337 9.5692C5.3337 10.0192 5.6337 10.3792 6.1637 10.3792C6.6437 10.3792 6.9037 10.1992 7.0437 9.7192C7.2637 8.9092 7.6937 8.4092 8.4637 8.4092C9.3637 8.4092 9.8037 9.1092 9.8037 10.0092C9.8037 11.0092 9.2437 11.7292 8.2137 11.7292H7.8937C7.4237 11.7292 7.1337 12.0192 7.1337 12.4692C7.1337 12.9192 7.4337 13.1792 7.8937 13.1792H8.2337C9.3937 13.1792 10.0337 13.8192 10.0337 15.0092C10.0337 15.9592 9.5337 16.7592 8.5137 16.7592C7.5237 16.7592 7.0837 16.0892 6.9037 15.4592C6.7837 15.0292 6.4937 14.7892 6.0437 14.7892C5.5137 14.7892 5.1537 15.1192 5.1537 15.6592C5.1537 15.8992 5.1937 16.1492 5.2637 16.3692C5.6637 17.6392 7.0437 18.3492 8.5137 18.3492Z"
        fillRule="evenodd"
        clipRule="evenodd"
    />
</svg>
        