
<svg
    viewBox={0 0 27.890625 27.890625}
    xmlns="http://www.w3.org/2000/svg"
>
    <path
        fill="inherit"
        d="M13.9427 27.8864C21.6427 27.8864 27.8927 21.6264 27.8927 13.9464C27.8927 6.2464 21.6427 -0.0036 13.9427 -0.0036C6.2627 -0.0036 0.0027 6.2464 0.0027 13.9464C0.0027 21.6264 6.2627 27.8864 13.9427 27.8864ZM9.6927 19.8964C8.1727 19.8964 6.7427 19.1664 6.3327 17.8564C6.2627 17.6264 6.2227 17.3764 6.2227 17.1164C6.2227 16.5664 6.5927 16.2264 7.1527 16.2264C7.6027 16.2264 7.9027 16.4564 8.0427 16.9264C8.2127 17.5664 8.6727 18.2564 9.6927 18.2564C10.7327 18.2564 11.2527 17.4164 11.2527 16.4464C11.2527 15.2264 10.5927 14.5764 9.3927 14.5764H9.0527C8.5827 14.5764 8.2727 14.2964 8.2727 13.8364C8.2727 13.3664 8.5727 13.0664 9.0527 13.0664H9.3827C10.4427 13.0664 11.0027 12.3164 11.0027 11.2964C11.0027 10.3664 10.5727 9.6564 9.6427 9.6564C8.8427 9.6564 8.4127 10.1764 8.1727 11.0064C8.0427 11.4964 7.7627 11.6764 7.2727 11.6764C6.7127 11.6764 6.4127 11.3064 6.4127 10.8464C6.4127 10.5964 6.4427 10.3464 6.5227 10.0764C6.9227 8.8364 8.1927 8.0164 9.6427 8.0164C11.4727 8.0164 12.9427 9.1164 12.9427 11.0764C12.9427 12.2464 12.3027 13.3964 11.0327 13.7364V13.7764C12.2227 13.9064 13.2727 14.7664 13.2727 16.5164C13.2727 18.6164 11.7127 19.8964 9.6927 19.8964ZM18.2427 19.8964C16.7227 19.8964 15.2827 19.1664 14.8727 17.8564C14.8027 17.6264 14.7627 17.3764 14.7627 17.1164C14.7627 16.5664 15.1527 16.2264 15.6927 16.2264C16.1427 16.2264 16.4427 16.4564 16.5827 16.9264C16.7627 17.5664 17.2227 18.2564 18.2427 18.2564C19.2927 18.2564 19.7927 17.4164 19.7927 16.4464C19.7927 15.2264 19.1427 14.5764 17.9527 14.5764H17.5827C17.1127 14.5764 16.8027 14.2964 16.8027 13.8364C16.8027 13.3664 17.1127 13.0664 17.5827 13.0664H17.9227C18.9727 13.0664 19.5527 12.3164 19.5527 11.2964C19.5527 10.3664 19.1027 9.6564 18.1727 9.6564C17.3927 9.6564 16.9427 10.1764 16.7327 11.0064C16.5827 11.4964 16.2927 11.6764 15.8227 11.6764C15.2627 11.6764 14.9427 11.3064 14.9427 10.8464C14.9427 10.5964 14.9827 10.3464 15.0527 10.0764C15.4627 8.8364 16.7227 8.0164 18.1727 8.0164C20.0327 8.0164 21.4827 9.1164 21.4827 11.0764C21.4827 12.2464 20.8627 13.3964 19.5827 13.7364V13.7764C20.7627 13.9064 21.8227 14.7664 21.8227 16.5164C21.8227 18.6164 20.2627 19.8964 18.2427 19.8964Z"
        fillRule="evenodd"
        clipRule="evenodd"
    />
</svg>
        