
<svg
    viewBox={0 0 27.890625 27.890625}
    xmlns="http://www.w3.org/2000/svg"
>
    <path
        fill="inherit"
        d="M13.9427 27.8864C21.6427 27.8864 27.8927 21.6464 27.8927 13.9464C27.8927 6.2464 21.6427 -0.0036 13.9427 -0.0036C6.2527 -0.0036 0.0027 6.2464 0.0027 13.9464C0.0027 21.6464 6.2527 27.8864 13.9427 27.8864ZM13.9427 25.5664C7.5227 25.5664 2.3227 20.3664 2.3227 13.9464C2.3227 7.5164 7.5227 2.3264 13.9427 2.3264C20.3727 2.3264 25.5627 7.5164 25.5627 13.9464C25.5627 20.3664 20.3727 25.5664 13.9427 25.5664ZM9.8127 19.7164C11.7727 19.7164 13.2927 18.4864 13.2927 16.4364C13.2927 14.7364 12.2627 13.9064 11.1127 13.7764V13.7364C12.3427 13.4164 12.9627 12.3064 12.9627 11.1564C12.9627 9.2664 11.5427 8.1864 9.7627 8.1864C8.3527 8.1864 7.1227 8.9864 6.7427 10.1964C6.6627 10.4564 6.6327 10.7064 6.6327 10.9364C6.6327 11.3864 6.9327 11.7464 7.4627 11.7464C7.9427 11.7464 8.2027 11.5664 8.3427 11.0864C8.5627 10.2764 8.9927 9.7764 9.7627 9.7764C10.6627 9.7764 11.0927 10.4764 11.0927 11.3764C11.0927 12.3764 10.5427 13.0964 9.5127 13.0964H9.1827C8.7227 13.0964 8.4327 13.3864 8.4327 13.8364C8.4327 14.2864 8.7327 14.5464 9.1827 14.5464H9.5327C10.6927 14.5464 11.3327 15.1864 11.3327 16.3764C11.3327 17.3264 10.8327 18.1264 9.8127 18.1264C8.8227 18.1264 8.3827 17.4564 8.2027 16.8264C8.0827 16.3964 7.7827 16.1564 7.3427 16.1564C6.8127 16.1564 6.4527 16.4864 6.4527 17.0264C6.4527 17.2664 6.4927 17.5164 6.5627 17.7364C6.9627 19.0064 8.3427 19.7164 9.8127 19.7164ZM18.0927 19.7164C20.0527 19.7164 21.5627 18.4864 21.5627 16.4364C21.5627 14.7364 20.5527 13.9064 19.3827 13.7764V13.7364C20.6327 13.4164 21.2327 12.3064 21.2327 11.1564C21.2327 9.2664 19.8227 8.1864 18.0327 8.1864C16.6227 8.1864 15.4127 8.9864 15.0127 10.1964C14.9427 10.4564 14.9027 10.7064 14.9027 10.9364C14.9027 11.3864 15.2027 11.7464 15.7527 11.7464C16.2127 11.7464 16.4927 11.5664 16.6227 11.0864C16.8327 10.2764 17.2627 9.7764 18.0327 9.7764C18.9327 9.7764 19.3727 10.4764 19.3727 11.3764C19.3727 12.3764 18.8127 13.0964 17.7827 13.0964H17.4627C17.0127 13.0964 16.7027 13.3864 16.7027 13.8364C16.7027 14.2864 17.0127 14.5464 17.4627 14.5464H17.8127C18.9727 14.5464 19.6027 15.1864 19.6027 16.3764C19.6027 17.3264 19.1127 18.1264 18.0927 18.1264C17.1027 18.1264 16.6527 17.4564 16.4927 16.8264C16.3527 16.3964 16.0627 16.1564 15.6227 16.1564C15.0927 16.1564 14.7227 16.4864 14.7227 17.0264C14.7227 17.2664 14.7627 17.5164 14.8327 17.7364C15.2327 19.0064 16.6227 19.7164 18.0927 19.7164Z"
        fillRule="evenodd"
        clipRule="evenodd"
    />
</svg>
        