
<svg
    viewBox={0 0 27.890625 27.890625}
    xmlns="http://www.w3.org/2000/svg"
>
    <path
        fill="inherit"
        d="M13.9427 27.8864C21.6427 27.8864 27.8927 21.6264 27.8927 13.9464C27.8927 6.2464 21.6427 -0.0036 13.9427 -0.0036C6.2627 -0.0036 0.0027 6.2464 0.0027 13.9464C0.0027 21.6264 6.2627 27.8864 13.9427 27.8864ZM9.3827 19.8964C7.8627 19.8964 6.4227 19.1664 6.0127 17.8564C5.9427 17.6264 5.9027 17.3764 5.9027 17.1164C5.9027 16.5664 6.2727 16.2264 6.8327 16.2264C7.2827 16.2264 7.5927 16.4564 7.7227 16.9264C7.9027 17.5664 8.3627 18.2564 9.3827 18.2564C10.4327 18.2564 10.9327 17.4164 10.9327 16.4464C10.9327 15.2264 10.2627 14.5764 9.0927 14.5764H8.7227C8.2627 14.5764 7.9427 14.2964 7.9427 13.8364C7.9427 13.3664 8.2427 13.0664 8.7227 13.0664H9.0627C10.1127 13.0664 10.6927 12.3164 10.6927 11.2964C10.6927 10.3664 10.2427 9.6564 9.3227 9.6564C8.5327 9.6564 8.0827 10.1764 7.8727 11.0064C7.7227 11.4964 7.4327 11.6764 6.9627 11.6764C6.4027 11.6764 6.0827 11.3064 6.0827 10.8464C6.0827 10.5964 6.1227 10.3464 6.1927 10.0764C6.6027 8.8364 7.8627 8.0164 9.3227 8.0164C11.1727 8.0164 12.6227 9.1164 12.6227 11.0764C12.6227 12.2464 12.0027 13.3964 10.7227 13.7364V13.7764C11.9127 13.9064 12.9627 14.7664 12.9627 16.5164C12.9627 18.6164 11.4027 19.8964 9.3827 19.8964ZM19.6727 19.8264C19.2227 19.8264 18.7027 19.5664 18.7027 18.8164V17.4164H15.5427C14.8427 17.4164 14.3827 16.9564 14.3827 16.2664C14.3827 15.8364 14.4527 15.4664 14.6927 14.9164L17.2127 9.4464C17.6127 8.5764 18.0727 8.0664 19.0627 8.0664C20.0027 8.0664 20.6427 8.6164 20.6427 9.5964V15.7764H21.1327C21.7127 15.7764 21.9327 16.1364 21.9327 16.5864C21.9327 17.0664 21.6827 17.4164 21.1327 17.4164H20.6427V18.8164C20.6427 19.4964 20.1927 19.8264 19.6727 19.8264ZM18.7427 15.8164V9.8464H18.6927L16.1227 15.7264V15.8164Z"
        fillRule="evenodd"
        clipRule="evenodd"
    />
</svg>
        