
<svg
    viewBox={0 0 25.169921875 25.169921875}
    xmlns="http://www.w3.org/2000/svg"
>
    <path
        fill="inherit"
        d="M4.2937 25.1692H20.8737C23.7437 25.1692 25.1737 23.7592 25.1737 20.9492V4.2392C25.1737 1.4192 23.7437 -0.0008 20.8737 -0.0008H4.2937C1.4337 -0.0008 0.0037 1.4192 0.0037 4.2392V20.9492C0.0037 23.7592 1.4337 25.1692 4.2937 25.1692ZM8.0237 18.5292C6.5037 18.5292 5.0737 17.7992 4.6637 16.4892C4.5937 16.2592 4.5537 16.0092 4.5537 15.7492C4.5537 15.1992 4.9337 14.8592 5.4837 14.8592C5.9337 14.8592 6.2337 15.0892 6.3737 15.5592C6.5537 16.1992 7.0137 16.8892 8.0437 16.8892C9.0737 16.8892 9.5837 16.0492 9.5837 15.0792C9.5837 13.8592 8.9237 13.2092 7.7337 13.2092H7.3737C6.9037 13.2092 6.5937 12.9292 6.5937 12.4692C6.5937 11.9992 6.9037 11.6992 7.3737 11.6992H7.7137C8.7637 11.6992 9.3337 10.9492 9.3337 9.9292C9.3337 8.9992 8.8837 8.2892 7.9737 8.2892C7.1737 8.2892 6.7237 8.8092 6.5237 9.6392C6.3737 10.1292 6.0837 10.3092 5.6037 10.3092C5.0437 10.3092 4.7337 9.9392 4.7337 9.4792C4.7337 9.2292 4.7737 8.9792 4.8437 8.7092C5.2537 7.4692 6.5037 6.6492 7.9737 6.6492C9.8137 6.6492 11.2637 7.7492 11.2637 9.7092C11.2637 10.8792 10.6537 12.0292 9.3637 12.3692V12.4092C10.5537 12.5392 11.6037 13.3992 11.6037 15.1492C11.6037 17.2492 10.0537 18.5292 8.0237 18.5292ZM18.3237 18.4592C17.8737 18.4592 17.3537 18.1992 17.3537 17.4492V16.0492H14.1937C13.4937 16.0492 13.0337 15.5892 13.0337 14.8992C13.0337 14.4692 13.1137 14.0992 13.3437 13.5492L15.8637 8.0792C16.2537 7.2092 16.7237 6.6992 17.7037 6.6992C18.6437 6.6992 19.2937 7.2492 19.2937 8.2292V14.4092H19.7837C20.3537 14.4092 20.5937 14.7692 20.5937 15.2192C20.5937 15.6992 20.3337 16.0492 19.7837 16.0492H19.2937V17.4492C19.2937 18.1292 18.8437 18.4592 18.3237 18.4592ZM17.3937 14.4492V8.4792H17.3337L14.7637 14.3592V14.4492Z"
        fillRule="evenodd"
        clipRule="evenodd"
    />
</svg>
        