
<svg
    viewBox={0 0 25.169921875 25.169921875}
    xmlns="http://www.w3.org/2000/svg"
>
    <path
        fill="inherit"
        d="M4.2937 25.1692H20.8737C23.7437 25.1692 25.1737 23.7592 25.1737 20.9492V4.2392C25.1737 1.4192 23.7437 -0.0008 20.8737 -0.0008H4.2937C1.4337 -0.0008 0.0037 1.4192 0.0037 4.2392V20.9492C0.0037 23.7592 1.4337 25.1692 4.2937 25.1692ZM4.3237 22.9692C2.9537 22.9692 2.2037 22.2392 2.2037 20.8192V4.3592C2.2037 2.9392 2.9537 2.1992 4.3237 2.1992H20.8537C22.2037 2.1992 22.9737 2.9392 22.9737 4.3592V20.8192C22.9737 22.2392 22.2037 22.9692 20.8537 22.9692ZM8.1637 18.3492C10.1337 18.3492 11.6337 17.1192 11.6337 15.0692C11.6337 13.3692 10.6237 12.5392 9.4637 12.4092V12.3692C10.7037 12.0492 11.3037 10.9392 11.3037 9.7892C11.3037 7.8992 9.8937 6.8192 8.1037 6.8192C6.7037 6.8192 5.4837 7.6192 5.0837 8.8292C5.0137 9.0892 4.9737 9.3392 4.9737 9.5692C4.9737 10.0192 5.2737 10.3792 5.8237 10.3792C6.2937 10.3792 6.5637 10.1992 6.7037 9.7192C6.9037 8.9092 7.3437 8.4092 8.1037 8.4092C9.0137 8.4092 9.4437 9.1092 9.4437 10.0092C9.4437 11.0092 8.8837 11.7292 7.8637 11.7292H7.5337C7.0837 11.7292 6.7837 12.0192 6.7837 12.4692C6.7837 12.9192 7.0837 13.1792 7.5337 13.1792H7.8937C9.0537 13.1792 9.6837 13.8192 9.6837 15.0092C9.6837 15.9592 9.1837 16.7592 8.1737 16.7592C7.1737 16.7592 6.7237 16.0892 6.5637 15.4592C6.4237 15.0292 6.1437 14.7892 5.7037 14.7892C5.1637 14.7892 4.8037 15.1192 4.8037 15.6592C4.8037 15.8992 4.8437 16.1492 4.9037 16.3692C5.3037 17.6392 6.7037 18.3492 8.1637 18.3492ZM18.1437 18.2792C18.6437 18.2792 19.0737 17.9692 19.0737 17.3092V15.9392H19.5637C20.0837 15.9392 20.3437 15.5992 20.3437 15.1392C20.3437 14.6992 20.1137 14.3592 19.5637 14.3592H19.0737V8.3492C19.0737 7.4092 18.4537 6.8792 17.5537 6.8792C16.5937 6.8792 16.1437 7.3692 15.7637 8.2192L13.3137 13.5192C13.0937 14.0592 13.0137 14.4092 13.0137 14.8292C13.0137 15.4892 13.4637 15.9392 14.1337 15.9392H17.2037V17.3092C17.2037 18.0292 17.7037 18.2792 18.1437 18.2792ZM17.2437 14.3992H14.6937V14.2992L17.1837 8.5992H17.2437Z"
        fillRule="evenodd"
        clipRule="evenodd"
    />
</svg>
        