
<svg
    viewBox={0 0 27.890625 27.890625}
    xmlns="http://www.w3.org/2000/svg"
>
    <path
        fill="inherit"
        d="M13.9427 27.8864C21.6427 27.8864 27.8927 21.6264 27.8927 13.9464C27.8927 6.2464 21.6427 -0.0036 13.9427 -0.0036C6.2627 -0.0036 0.0027 6.2464 0.0027 13.9464C0.0027 21.6264 6.2627 27.8864 13.9427 27.8864ZM9.6527 19.8964C8.1527 19.8964 6.7027 19.1664 6.3027 17.8564C6.2227 17.6264 6.1827 17.3764 6.1827 17.1164C6.1827 16.5664 6.5527 16.2264 7.1227 16.2264C7.5727 16.2264 7.8727 16.4564 8.0127 16.9164C8.1727 17.5664 8.6427 18.2564 9.6527 18.2564C10.7027 18.2564 11.2127 17.4164 11.2127 16.4464C11.2127 15.2264 10.5527 14.5764 9.3827 14.5764H9.0127C8.5427 14.5764 8.2327 14.2964 8.2327 13.8364C8.2327 13.3664 8.5327 13.0664 9.0127 13.0664H9.3527C10.4027 13.0664 10.9827 12.3164 10.9827 11.2964C10.9827 10.3664 10.5227 9.6564 9.5927 9.6564C8.8227 9.6564 8.3627 10.1764 8.1527 11.0064C8.0127 11.4964 7.7227 11.6764 7.2427 11.6764C6.6727 11.6764 6.3727 11.3064 6.3727 10.8464C6.3727 10.5964 6.4127 10.3464 6.4827 10.0764C6.8927 8.8364 8.1527 8.0164 9.5927 8.0164C11.4427 8.0164 12.9027 9.1164 12.9027 11.0764C12.9027 12.2464 12.2727 13.3964 11.0027 13.7264V13.7764C12.1927 13.9064 13.2527 14.7664 13.2527 16.5164C13.2527 18.6164 11.6927 19.8964 9.6527 19.8964ZM18.2227 19.9364C16.9527 19.9364 15.6927 19.1964 15.2027 18.0464C15.0927 17.7764 15.0027 17.4564 15.0027 17.1264C15.0027 16.6064 15.3227 16.2864 15.8627 16.2864C16.2327 16.2864 16.5427 16.4864 16.7027 16.9564C16.9627 17.7164 17.4027 18.2764 18.1927 18.2764C19.2327 18.2764 19.6627 17.0864 19.6627 15.9164C19.6627 14.8764 19.2627 13.6264 18.2227 13.6264C17.6627 13.6264 17.3127 13.9564 16.9827 14.4264C16.6927 14.8064 16.4627 14.9564 16.0827 14.9564C15.4227 14.9564 15.1527 14.4764 15.1527 13.9464C15.1527 13.7564 15.1627 13.5364 15.1727 13.3164L15.3927 9.4564C15.4527 8.7264 15.7727 8.2464 16.5327 8.2464H20.4027C20.8727 8.2464 21.1927 8.6164 21.1927 9.0764C21.1927 9.5864 20.8927 9.9264 20.4027 9.9264H17.0927L16.8527 13.3264H16.9227C17.2827 12.5264 18.0627 12.1364 18.8927 12.1364C20.7027 12.1364 21.6427 13.9164 21.6427 15.8564C21.6427 18.0864 20.4227 19.9364 18.2227 19.9364Z"
        fillRule="evenodd"
        clipRule="evenodd"
    />
</svg>
        