
<svg
    viewBox={0 0 27.890625 27.890625}
    xmlns="http://www.w3.org/2000/svg"
>
    <path
        fill="inherit"
        d="M13.9427 27.8864C21.6427 27.8864 27.8927 21.6464 27.8927 13.9464C27.8927 6.2464 21.6427 -0.0036 13.9427 -0.0036C6.2527 -0.0036 0.0027 6.2464 0.0027 13.9464C0.0027 21.6464 6.2527 27.8864 13.9427 27.8864ZM13.9427 25.5664C7.5227 25.5664 2.3227 20.3664 2.3227 13.9464C2.3227 7.5164 7.5227 2.3264 13.9427 2.3264C20.3727 2.3264 25.5627 7.5164 25.5627 13.9464C25.5627 20.3664 20.3727 25.5664 13.9427 25.5664ZM9.7727 19.7164C11.7427 19.7164 13.2527 18.4864 13.2527 16.4364C13.2527 14.7364 12.2327 13.9064 11.0727 13.7764V13.7364C12.3227 13.4164 12.9227 12.3064 12.9227 11.1564C12.9227 9.2664 11.5127 8.1864 9.7227 8.1864C8.3127 8.1864 7.0927 8.9864 6.7027 10.1964C6.6327 10.4564 6.5927 10.7064 6.5927 10.9364C6.5927 11.3864 6.8927 11.7464 7.4327 11.7464C7.9027 11.7464 8.1727 11.5664 8.3127 11.0864C8.5127 10.2764 8.9527 9.7764 9.7227 9.7764C10.6227 9.7764 11.0627 10.4764 11.0627 11.3764C11.0627 12.3764 10.5027 13.0964 9.4727 13.0964H9.1427C8.6827 13.0964 8.3927 13.3864 8.3927 13.8364C8.3927 14.2864 8.6927 14.5464 9.1427 14.5464H9.5027C10.6527 14.5464 11.2927 15.1864 11.2927 16.3764C11.2927 17.3264 10.8027 18.1264 9.7727 18.1264C8.7927 18.1264 8.3427 17.4564 8.1727 16.8264C8.0427 16.3964 7.7527 16.1564 7.3127 16.1564C6.7627 16.1564 6.4127 16.4864 6.4127 17.0264C6.4127 17.2664 6.4527 17.5164 6.5227 17.7364C6.9227 19.0064 8.3127 19.7164 9.7727 19.7164ZM18.0727 19.7564C20.2027 19.7564 21.3827 17.9664 21.3827 15.8064C21.3827 13.9164 20.4627 12.1964 18.7127 12.1964C17.9127 12.1964 17.1627 12.5664 16.8127 13.3564H16.7527L16.9627 10.0364H20.1827C20.6627 10.0364 20.9427 9.7064 20.9427 9.2264C20.9427 8.7764 20.6427 8.4264 20.1827 8.4264H16.4327C15.7127 8.4264 15.3927 8.8864 15.3427 9.5964L15.1227 13.3464C15.1027 13.5464 15.0927 13.7664 15.0927 13.9464C15.0927 14.4664 15.3627 14.9264 15.9927 14.9264C16.3627 14.9264 16.5827 14.7764 16.8727 14.4064C17.1827 13.9564 17.5227 13.6264 18.0727 13.6264C19.0827 13.6264 19.4727 14.8464 19.4727 15.8564C19.4727 16.9964 19.0627 18.1564 18.0427 18.1564C17.2827 18.1564 16.8527 17.6064 16.5927 16.8564C16.4427 16.4164 16.1327 16.2164 15.7727 16.2164C15.2727 16.2164 14.9527 16.5264 14.9527 17.0364C14.9527 17.3464 15.0427 17.6464 15.1527 17.9264C15.6227 19.0264 16.8427 19.7564 18.0727 19.7564Z"
        fillRule="evenodd"
        clipRule="evenodd"
    />
</svg>
        