
<svg
    viewBox="0 0 25.169921875 25.169921875"
    xmlns="http://www.w3.org/2000/svg"
>
    <path
        fill="inherit"
        d="M4.2937 25.1692H20.8737C23.7437 25.1692 25.1737 23.7592 25.1737 20.9492V4.2392C25.1737 1.4192 23.7437 -0.0008 20.8737 -0.0008H4.2937C1.4337 -0.0008 0.0037 1.4192 0.0037 4.2392V20.9492C0.0037 23.7592 1.4337 25.1692 4.2937 25.1692ZM8.3037 18.5292C6.7937 18.5292 5.3437 17.7992 4.9537 16.4892C4.8637 16.2592 4.8237 16.0092 4.8237 15.7492C4.8237 15.1992 5.2137 14.8592 5.7737 14.8592C6.2237 14.8592 6.5237 15.0892 6.6537 15.5492C6.8237 16.1992 7.2837 16.8892 8.3137 16.8892C9.3537 16.8892 9.8537 16.0492 9.8537 15.0792C9.8537 13.8592 9.2137 13.2092 8.0237 13.2092H7.6537C7.1937 13.2092 6.8737 12.9292 6.8737 12.4692C6.8737 11.9992 7.1937 11.6992 7.6537 11.6992H7.9937C9.0537 11.6992 9.6237 10.9492 9.6237 9.9292C9.6237 8.9992 9.1837 8.2892 8.2437 8.2892C7.4637 8.2892 7.0137 8.8092 6.7937 9.6392C6.6537 10.1292 6.3737 10.3092 5.8937 10.3092C5.3137 10.3092 5.0137 9.9392 5.0137 9.4792C5.0137 9.2292 5.0537 8.9792 5.1237 8.7092C5.5337 7.4692 6.7937 6.6492 8.2437 6.6492C10.0937 6.6492 11.5537 7.7492 11.5537 9.7092C11.5537 10.8792 10.9237 12.0292 9.6537 12.3592V12.4092C10.8437 12.5392 11.8937 13.3992 11.8937 15.1492C11.8937 17.2492 10.3337 18.5292 8.3037 18.5292ZM16.8737 18.5692C15.6037 18.5692 14.3437 17.8292 13.8537 16.6792C13.7437 16.4092 13.6437 16.0892 13.6437 15.7592C13.6437 15.2392 13.9737 14.9192 14.5037 14.9192C14.8937 14.9192 15.1937 15.1192 15.3637 15.5892C15.6137 16.3492 16.0637 16.9092 16.8437 16.9092C17.8937 16.9092 18.3037 15.7192 18.3037 14.5492C18.3037 13.5092 17.9137 12.2592 16.8737 12.2592C16.3137 12.2592 15.9537 12.5892 15.6237 13.0592C15.3437 13.4392 15.1037 13.5892 14.7237 13.5892C14.0637 13.5892 13.8037 13.1092 13.8037 12.5792C13.8037 12.3892 13.8037 12.1692 13.8237 11.9492L14.0437 8.0892C14.0937 7.3592 14.4237 6.8792 15.1737 6.8792H19.0437C19.5237 6.8792 19.8337 7.2492 19.8337 7.7092C19.8337 8.2192 19.5337 8.5592 19.0437 8.5592H15.7537L15.5037 11.9592H15.5737C15.9437 11.1592 16.7037 10.7692 17.5437 10.7692C19.3637 10.7692 20.2937 12.5492 20.2937 14.4892C20.2937 16.7192 19.0737 18.5692 16.8737 18.5692Z"
        fillRule="evenodd"
        clipRule="evenodd"
    />
</svg>
        