<svg viewBox="0 0 25.169921875 25.169921875" xmlns="http://www.w3.org/2000/svg"><path d="M4.2937 25.1692H20.8737C23.7437 25.1692 25.1737 23.7592 25.1737 20.9492V4.2392C25.1737 1.4192 23.7437 -0.0008 20.8737 -0.0008H4.2937C1.4337 -0.0008 0.0037 1.4192 0.0037 4.2392V20.9492C0.0037 23.7592 1.4337 25.1692 4.2937 25.1692ZM4.3237 22.9692C2.9537 22.9692 2.2037 22.2392 2.2037 20.8192V4.3592C2.2037 2.9392 2.9537 2.1992 4.3237 2.1992H20.8537C22.2037 2.1992 22.9737 2.9392 22.9737 4.3592V20.8192C22.9737 22.2392 22.2037 22.9692 20.8537 22.9692ZM8.4337 18.3492C10.4037 18.3492 11.9037 17.1192 11.9037 15.0692C11.9037 13.3692 10.8937 12.5392 9.7337 12.4092V12.3692C10.9737 12.0492 11.5837 10.9392 11.5837 9.7892C11.5837 7.8992 10.1737 6.8192 8.3837 6.8192C6.9737 6.8192 5.7537 7.6192 5.3637 8.8292C5.2937 9.0892 5.2537 9.3392 5.2537 9.5692C5.2537 10.0192 5.5537 10.3792 6.0937 10.3792C6.5637 10.3792 6.8337 10.1992 6.9737 9.7192C7.1737 8.9092 7.6137 8.4092 8.3837 8.4092C9.2937 8.4092 9.7237 9.1092 9.7237 10.0092C9.7237 11.0092 9.1637 11.7292 8.1337 11.7292H7.8037C7.3537 11.7292 7.0537 12.0192 7.0537 12.4692C7.0537 12.9192 7.3537 13.1792 7.8037 13.1792H8.1637C9.3237 13.1792 9.9537 13.8192 9.9537 15.0092C9.9537 15.9592 9.4637 16.7592 8.4537 16.7592C7.4537 16.7592 7.0037 16.0892 6.8337 15.4592C6.7037 15.0292 6.4137 14.7892 5.9737 14.7892C5.4437 14.7892 5.0737 15.1192 5.0737 15.6592C5.0737 15.8992 5.1137 16.1492 5.1837 16.3692C5.5737 17.6392 6.9737 18.3492 8.4337 18.3492ZM16.7337 18.3892C18.8637 18.3892 20.0437 16.5992 20.0437 14.4392C20.0437 12.5492 19.1437 10.8292 17.3737 10.8292C16.5737 10.8292 15.8337 11.1992 15.4737 11.9892H15.4037L15.6437 8.6692H18.8437C19.3137 8.6692 19.6037 8.3392 19.6037 7.8592C19.6037 7.4092 19.3037 7.0592 18.8437 7.0592H15.0937C14.3737 7.0592 14.0537 7.5192 14.0037 8.2292L13.7837 11.9792C13.7637 12.1792 13.7637 12.3992 13.7637 12.5792C13.7637 13.0992 14.0237 13.5592 14.6537 13.5592C15.0237 13.5592 15.2437 13.4092 15.5337 13.0392C15.8437 12.5892 16.1837 12.2592 16.7337 12.2592C17.7437 12.2592 18.1337 13.4792 18.1337 14.4892C18.1337 15.6292 17.7337 16.7892 16.7037 16.7892C15.9537 16.7892 15.5137 16.2392 15.2737 15.4892C15.1037 15.0492 14.8037 14.8492 14.4337 14.8492C13.9337 14.8492 13.6137 15.1592 13.6137 15.6692C13.6137 15.9792 13.7037 16.2792 13.8037 16.5592C14.2837 17.6592 15.5037 18.3892 16.7337 18.3892Z" /></svg>