<svg viewBox="0 0 27.890625 27.890625" xmlns="http://www.w3.org/2000/svg"><path d="M13.9427 27.8864C21.6427 27.8864 27.8927 21.6464 27.8927 13.9464C27.8927 6.2464 21.6427 -0.0036 13.9427 -0.0036C6.2527 -0.0036 0.0027 6.2464 0.0027 13.9464C0.0027 21.6464 6.2527 27.8864 13.9427 27.8864ZM13.9427 25.5664C7.5227 25.5664 2.3227 20.3664 2.3227 13.9464C2.3227 7.5164 7.5227 2.3264 13.9427 2.3264C20.3727 2.3264 25.5627 7.5164 25.5627 13.9464C25.5627 20.3664 20.3727 25.5664 13.9427 25.5664ZM18.1727 19.7564C20.2627 19.7564 21.4527 18.0064 21.4527 15.8564C21.4527 14.0164 20.5627 12.2664 18.7627 12.2664C17.6527 12.2664 16.8027 13.0064 16.4927 14.1764H16.4427V14.0264C16.4427 12.5064 16.6227 9.7664 18.1527 9.7664C18.7727 9.7664 19.1827 10.1964 19.4327 10.7764C19.6227 11.1964 19.8827 11.3864 20.3127 11.3864C20.8627 11.3864 21.1127 11.0164 21.1127 10.5664C21.1127 10.4164 21.0827 10.2564 21.0427 10.0764C20.7527 8.8964 19.5627 8.1664 18.1927 8.1664C15.3927 8.1664 14.5727 11.3064 14.5727 14.0864C14.5727 16.6664 15.4127 19.7564 18.1727 19.7564ZM9.6427 19.7164C11.6027 19.7164 13.1127 18.4864 13.1127 16.4364C13.1127 14.7364 12.1027 13.9064 10.9527 13.7764V13.7364C12.1827 13.4164 12.7827 12.3064 12.7827 11.1564C12.7827 9.2664 11.3727 8.1864 9.5927 8.1864C8.1727 8.1864 6.9627 8.9864 6.5627 10.1964C6.4927 10.4564 6.4627 10.7064 6.4627 10.9364C6.4627 11.3864 6.7527 11.7464 7.3027 11.7464C7.7627 11.7464 8.0427 11.5664 8.1727 11.0864C8.3927 10.2764 8.8227 9.7764 9.5927 9.7764C10.5027 9.7764 10.9227 10.4764 10.9227 11.3764C10.9227 12.3764 10.3627 13.0964 9.3427 13.0964H9.0227C8.5627 13.0964 8.2627 13.3864 8.2627 13.8364C8.2627 14.2864 8.5727 14.5464 9.0227 14.5464H9.3627C10.5227 14.5464 11.1727 15.1864 11.1727 16.3764C11.1727 17.3264 10.6627 18.1264 9.6527 18.1264C8.6527 18.1264 8.2027 17.4564 8.0427 16.8264C7.9127 16.3964 7.6127 16.1564 7.1827 16.1564C6.6427 16.1564 6.2927 16.4864 6.2927 17.0264C6.2927 17.2664 6.3127 17.5164 6.3827 17.7364C6.7827 19.0064 8.1727 19.7164 9.6427 19.7164ZM18.1427 18.1564C17.1127 18.1564 16.7027 16.8664 16.7027 15.8864C16.7027 14.8864 17.1627 13.7564 18.1427 13.7564C19.1527 13.7564 19.5827 14.9264 19.5527 15.9364C19.5527 16.9364 19.1027 18.1564 18.1427 18.1564Z" /></svg>