<svg viewBox="0 0 27.890625 27.890625" xmlns="http://www.w3.org/2000/svg"><path d="M13.9427 27.8864C21.6427 27.8864 27.8927 21.6264 27.8927 13.9464C27.8927 6.2464 21.6427 -0.0036 13.9427 -0.0036C6.2627 -0.0036 0.0027 6.2464 0.0027 13.9464C0.0027 21.6264 6.2627 27.8864 13.9427 27.8864ZM18.3227 19.9364C15.4727 19.9364 14.6127 16.7464 14.6127 14.0864C14.6127 11.2264 15.4627 7.9864 18.3427 7.9864C19.7527 7.9864 20.9827 8.7364 21.2827 9.9564C21.3327 10.1264 21.3527 10.3064 21.3527 10.4564C21.3527 10.9264 21.0927 11.3064 20.5327 11.3064C20.0827 11.3064 19.8127 11.1164 19.6227 10.6764C19.3627 10.0864 18.9327 9.6364 18.3027 9.6364C16.7327 9.6364 16.5527 12.4664 16.5527 14.0264V14.1764H16.5927C16.9127 12.9764 17.7827 12.2064 18.9327 12.2064C20.7927 12.2064 21.7127 14.0164 21.7127 15.9164C21.7127 18.1264 20.4827 19.9364 18.3227 19.9364ZM9.5127 19.8964C8.0127 19.8964 6.5627 19.1664 6.1527 17.8564C6.0827 17.6264 6.0527 17.3764 6.0527 17.1164C6.0527 16.5664 6.4227 16.2264 6.9727 16.2264C7.4327 16.2264 7.7427 16.4564 7.8727 16.9264C8.0427 17.5664 8.5027 18.2564 9.5327 18.2564C10.5727 18.2564 11.0927 17.4164 11.0927 16.4464C11.0927 15.2264 10.4327 14.5764 9.2327 14.5764H8.8827C8.4227 14.5764 8.0927 14.2964 8.0927 13.8364C8.0927 13.3664 8.4127 13.0664 8.8827 13.0664H9.2127C10.2627 13.0664 10.8427 12.3164 10.8427 11.2964C10.8427 10.3664 10.4027 9.6564 9.4727 9.6564C8.6727 9.6564 8.2427 10.1764 8.0127 11.0064C7.8727 11.4964 7.5927 11.6764 7.1127 11.6764C6.5327 11.6764 6.2327 11.3064 6.2327 10.8464C6.2327 10.5964 6.2727 10.3464 6.3427 10.0764C6.7527 8.8364 8.0127 8.0164 9.4727 8.0164C11.3027 8.0164 12.7727 9.1164 12.7727 11.0764C12.7727 12.2464 12.1427 13.3964 10.8727 13.7364V13.7764C12.0627 13.9064 13.0927 14.7664 13.0927 16.5164C13.0927 18.6164 11.5527 19.8964 9.5127 19.8964ZM18.2927 18.2764C19.2727 18.2764 19.7427 17.0364 19.7427 16.0064C19.7727 14.9664 19.3327 13.7564 18.2927 13.7564C17.2827 13.7564 16.8127 14.9164 16.8127 15.9364C16.8127 16.9564 17.2427 18.2764 18.2927 18.2764Z" /></svg>