
<svg
    viewBox={0 0 25.169921875 25.169921875}
    xmlns="http://www.w3.org/2000/svg"
>
    <path
        fill="inherit"
        d="M4.2937 25.1692H20.8737C23.7437 25.1692 25.1737 23.7592 25.1737 20.9492V4.2392C25.1737 1.4192 23.7437 -0.0008 20.8737 -0.0008H4.2937C1.4337 -0.0008 0.0037 1.4192 0.0037 4.2392V20.9492C0.0037 23.7592 1.4337 25.1692 4.2937 25.1692ZM4.3237 22.9692C2.9537 22.9692 2.2037 22.2392 2.2037 20.8192V4.3592C2.2037 2.9392 2.9537 2.1992 4.3237 2.1992H20.8537C22.2037 2.1992 22.9737 2.9392 22.9737 4.3592V20.8192C22.9737 22.2392 22.2037 22.9692 20.8537 22.9692ZM16.8437 18.3892C18.9237 18.3892 20.1237 16.6392 20.1237 14.4892C20.1237 12.6492 19.2237 10.8992 17.4137 10.8992C16.3137 10.8992 15.4637 11.6392 15.1637 12.8092H15.1037V12.6592C15.1037 11.1392 15.2837 8.3992 16.8137 8.3992C17.4337 8.3992 17.8437 8.8292 18.0837 9.4092C18.2837 9.8292 18.5437 10.0192 18.9737 10.0192C19.5237 10.0192 19.7737 9.6492 19.7737 9.1992C19.7737 9.0492 19.7437 8.8892 19.7037 8.7092C19.4137 7.5292 18.2237 6.7992 16.8537 6.7992C14.0537 6.7992 13.2337 9.9392 13.2337 12.7192C13.2337 15.2992 14.0637 18.3892 16.8437 18.3892ZM8.3037 18.3492C10.2637 18.3492 11.7737 17.1192 11.7737 15.0692C11.7737 13.3692 10.7637 12.5392 9.6137 12.4092V12.3692C10.8437 12.0492 11.4437 10.9392 11.4437 9.7892C11.4437 7.8992 10.0337 6.8192 8.2537 6.8192C6.8337 6.8192 5.6237 7.6192 5.2237 8.8292C5.1537 9.0892 5.1237 9.3392 5.1237 9.5692C5.1237 10.0192 5.4237 10.3792 5.9637 10.3792C6.4237 10.3792 6.7037 10.1992 6.8337 9.7192C7.0537 8.9092 7.4737 8.4092 8.2537 8.4092C9.1637 8.4092 9.5837 9.1092 9.5837 10.0092C9.5837 11.0092 9.0337 11.7292 8.0137 11.7292H7.6837C7.2237 11.7292 6.9137 12.0192 6.9137 12.4692C6.9137 12.9192 7.2337 13.1792 7.6837 13.1792H8.0237C9.1837 13.1792 9.8337 13.8192 9.8337 15.0092C9.8337 15.9592 9.3237 16.7592 8.3137 16.7592C7.3137 16.7592 6.8637 16.0892 6.7037 15.4592C6.5737 15.0292 6.2737 14.7892 5.8337 14.7892C5.3037 14.7892 4.9537 15.1192 4.9537 15.6592C4.9537 15.8992 4.9737 16.1492 5.0537 16.3692C5.4437 17.6392 6.8337 18.3492 8.3037 18.3492ZM16.8137 16.7892C15.7737 16.7892 15.3637 15.4992 15.3637 14.5192C15.3637 13.5192 15.8137 12.3892 16.8037 12.3892C17.8137 12.3892 18.2337 13.5592 18.2137 14.5692C18.2137 15.5692 17.7637 16.7892 16.8137 16.7892Z"
        fillRule="evenodd"
        clipRule="evenodd"
    />
</svg>
        