
<svg
    viewBox="0 0 27.890625 27.890625"
    xmlns="http://www.w3.org/2000/svg"
>
    <path
        fill="inherit"
        d="M13.9427 27.8864C21.6427 27.8864 27.8927 21.6464 27.8927 13.9464C27.8927 6.2464 21.6427 -0.0036 13.9427 -0.0036C6.2527 -0.0036 0.0027 6.2464 0.0027 13.9464C0.0027 21.6464 6.2527 27.8864 13.9427 27.8864ZM13.9427 25.5664C7.5227 25.5664 2.3227 20.3664 2.3227 13.9464C2.3227 7.5164 7.5227 2.3264 13.9427 2.3264C20.3727 2.3264 25.5627 7.5164 25.5627 13.9464C25.5627 20.3664 20.3727 25.5664 13.9427 25.5664ZM10.2527 19.7164C12.2227 19.7164 13.7227 18.4864 13.7227 16.4364C13.7227 14.7364 12.7127 13.9064 11.5527 13.7764V13.7364C12.7927 13.4164 13.4027 12.3064 13.4027 11.1564C13.4027 9.2664 11.9927 8.1864 10.2027 8.1864C8.7927 8.1864 7.5727 8.9864 7.1827 10.1964C7.1127 10.4564 7.0727 10.7064 7.0727 10.9364C7.0727 11.3864 7.3727 11.7464 7.9127 11.7464C8.3827 11.7464 8.6527 11.5664 8.7927 11.0864C9.0127 10.2764 9.4327 9.7764 10.2027 9.7764C11.1127 9.7764 11.5427 10.4764 11.5427 11.3764C11.5427 12.3764 10.9827 13.0964 9.9527 13.0964H9.6227C9.1727 13.0964 8.8727 13.3864 8.8727 13.8364C8.8727 14.2864 9.1727 14.5464 9.6227 14.5464H9.9827C11.1427 14.5464 11.7827 15.1864 11.7827 16.3764C11.7827 17.3264 11.2827 18.1264 10.2627 18.1264C9.2727 18.1264 8.8227 17.4564 8.6527 16.8264C8.5127 16.3964 8.2327 16.1564 7.7927 16.1564C7.2627 16.1564 6.8927 16.4864 6.8927 17.0264C6.8927 17.2664 6.9327 17.5164 7.0027 17.7364C7.3927 19.0064 8.7927 19.7164 10.2527 19.7164ZM16.9427 19.6564C17.4327 19.6564 17.6627 19.4564 17.8427 18.9664L20.9727 10.6264C21.1227 10.1964 21.2327 9.8664 21.2327 9.4764C21.2327 8.8464 20.7427 8.4264 20.1427 8.4264H15.7227C15.2427 8.4264 14.9327 8.7664 14.9327 9.2264C14.9327 9.6964 15.2427 10.0364 15.7227 10.0364H19.2327V10.1564L16.2027 18.0064C16.0827 18.3064 16.0327 18.4864 16.0327 18.8164C16.0327 19.2064 16.2827 19.6564 16.9427 19.6564Z"
        fillRule="evenodd"
        clipRule="evenodd"
    />
</svg>
        