
<svg
    viewBox={0 0 27.890625 27.890625}
    xmlns="http://www.w3.org/2000/svg"
>
    <path
        fill="inherit"
        d="M13.9427 27.8864C21.6427 27.8864 27.8927 21.6264 27.8927 13.9464C27.8927 6.2464 21.6427 -0.0036 13.9427 -0.0036C6.2627 -0.0036 0.0027 6.2464 0.0027 13.9464C0.0027 21.6264 6.2627 27.8864 13.9427 27.8864ZM10.1427 19.8964C8.6427 19.8964 7.1927 19.1664 6.7827 17.8564C6.7127 17.6264 6.6727 17.3764 6.6727 17.1164C6.6727 16.5664 7.0527 16.2264 7.6027 16.2264C8.0627 16.2264 8.3527 16.4564 8.5027 16.9264C8.6727 17.5664 9.1327 18.2564 10.1627 18.2564C11.1927 18.2564 11.7127 17.4164 11.7127 16.4464C11.7127 15.2264 11.0627 14.5764 9.8527 14.5764H9.5027C9.0327 14.5764 8.7227 14.2964 8.7227 13.8364C8.7227 13.3664 9.0327 13.0664 9.5027 13.0664H9.8327C10.8927 13.0664 11.4727 12.3164 11.4727 11.2964C11.4727 10.3664 11.0327 9.6564 10.0927 9.6564C9.2927 9.6564 8.8727 10.1764 8.6427 11.0064C8.5027 11.4964 8.2127 11.6764 7.7427 11.6764C7.1627 11.6764 6.8627 11.3064 6.8627 10.8464C6.8627 10.5964 6.9027 10.3464 6.9727 10.0764C7.3827 8.8364 8.6427 8.0164 10.0927 8.0164C11.9327 8.0164 13.4027 9.1164 13.4027 11.0764C13.4027 12.2464 12.7727 13.3964 11.4827 13.7364V13.7764C12.6827 13.9064 13.7227 14.7664 13.7227 16.5164C13.7227 18.6164 12.1827 19.8964 10.1427 19.8964ZM17.0527 19.8364C16.3627 19.8364 16.1227 19.3764 16.1227 18.9664C16.1227 18.6164 16.1627 18.4464 16.2827 18.1264L19.4127 10.0464V9.9264H15.7927C15.3027 9.9264 14.9727 9.5664 14.9727 9.0764C14.9727 8.5964 15.3027 8.2464 15.7927 8.2464H20.3427C20.9727 8.2464 21.4827 8.6864 21.4827 9.3364C21.4827 9.7464 21.3727 10.0864 21.2027 10.5264L17.9827 19.1164C17.8027 19.6364 17.5527 19.8364 17.0527 19.8364Z"
        fillRule="evenodd"
        clipRule="evenodd"
    />
</svg>
        