
<svg
    viewBox={0 0 25.169921875 25.169921875}
    xmlns="http://www.w3.org/2000/svg"
>
    <path
        fill="inherit"
        d="M4.2937 25.1692H20.8737C23.7437 25.1692 25.1737 23.7592 25.1737 20.9492V4.2392C25.1737 1.4192 23.7437 -0.0008 20.8737 -0.0008H4.2937C1.4337 -0.0008 0.0037 1.4192 0.0037 4.2392V20.9492C0.0037 23.7592 1.4337 25.1692 4.2937 25.1692ZM4.3237 22.9692C2.9537 22.9692 2.2037 22.2392 2.2037 20.8192V4.3592C2.2037 2.9392 2.9537 2.1992 4.3237 2.1992H20.8537C22.2037 2.1992 22.9737 2.9392 22.9737 4.3592V20.8192C22.9737 22.2392 22.2037 22.9692 20.8537 22.9692ZM8.9137 18.3492C10.8837 18.3492 12.3837 17.1192 12.3837 15.0692C12.3837 13.3692 11.3737 12.5392 10.2237 12.4092V12.3692C11.4537 12.0492 12.0537 10.9392 12.0537 9.7892C12.0537 7.8992 10.6537 6.8192 8.8737 6.8192C7.4537 6.8192 6.2337 7.6192 5.8337 8.8292C5.7737 9.0892 5.7437 9.3392 5.7437 9.5692C5.7437 10.0192 6.0437 10.3792 6.5737 10.3792C7.0437 10.3792 7.3137 10.1992 7.4537 9.7192C7.6737 8.9092 8.0937 8.4092 8.8737 8.4092C9.7737 8.4092 10.2037 9.1092 10.2037 10.0092C10.2037 11.0092 9.6437 11.7292 8.6237 11.7292H8.3037C7.8337 11.7292 7.5337 12.0192 7.5337 12.4692C7.5337 12.9192 7.8437 13.1792 8.3037 13.1792H8.6437C9.8037 13.1792 10.4437 13.8192 10.4437 15.0092C10.4437 15.9592 9.9437 16.7592 8.9237 16.7592C7.9337 16.7592 7.4737 16.0892 7.3137 15.4592C7.1937 15.0292 6.8937 14.7892 6.4537 14.7892C5.9237 14.7892 5.5637 15.1192 5.5637 15.6592C5.5637 15.8992 5.5937 16.1492 5.6737 16.3692C6.0537 17.6392 7.4537 18.3492 8.9137 18.3492ZM15.6037 18.2892C16.1037 18.2892 16.3237 18.0892 16.5137 17.5992L19.6337 9.2592C19.7837 8.8292 19.8937 8.4992 19.8937 8.1092C19.8937 7.4792 19.4037 7.0592 18.8037 7.0592H14.3837C13.9137 7.0592 13.5937 7.3992 13.5937 7.8592C13.5937 8.3292 13.9137 8.6692 14.3837 8.6692H17.8937V8.7892L14.8637 16.6392C14.7537 16.9392 14.6937 17.1192 14.6937 17.4492C14.6937 17.8392 14.9437 18.2892 15.6037 18.2892Z"
        fillRule="evenodd"
        clipRule="evenodd"
    />
</svg>
        