<svg viewBox="0 0 27.890625 27.890625" xmlns="http://www.w3.org/2000/svg"><path d="M13.9427 27.8864C21.6427 27.8864 27.8927 21.6264 27.8927 13.9464C27.8927 6.2464 21.6427 -0.0036 13.9427 -0.0036C6.2627 -0.0036 0.0027 6.2464 0.0027 13.9464C0.0027 21.6264 6.2627 27.8864 13.9427 27.8864ZM18.2427 19.8964C16.1727 19.8964 14.5927 18.6664 14.5927 16.5664C14.5927 15.0364 15.5027 13.9364 16.7027 13.6564V13.6164C15.8027 13.3464 14.9127 12.4964 14.9127 11.0564C14.9127 9.0764 16.4927 8.0164 18.2427 8.0164C20.2227 8.0164 21.5727 9.2464 21.5727 11.0764C21.5727 12.4164 20.7427 13.3264 19.7927 13.6164V13.6564C20.9327 13.9164 21.9027 15.0264 21.9027 16.5664C21.9027 18.4964 20.4827 19.8964 18.2427 19.8964ZM9.5127 19.8964C8.0027 19.8964 6.5627 19.1664 6.1527 17.8564C6.0827 17.6264 6.0427 17.3764 6.0427 17.1164C6.0427 16.5664 6.4227 16.2264 6.9727 16.2264C7.4227 16.2264 7.7227 16.4564 7.8627 16.9264C8.0427 17.5664 8.5027 18.2564 9.5327 18.2564C10.5727 18.2564 11.0727 17.4164 11.0727 16.4464C11.0727 15.2264 10.4327 14.5764 9.2327 14.5764H8.8727C8.3927 14.5764 8.0927 14.2964 8.0927 13.8364C8.0927 13.3664 8.3927 13.0664 8.8727 13.0664H9.2027C10.2527 13.0664 10.8327 12.3164 10.8327 11.2964C10.8327 10.3664 10.4027 9.6564 9.4627 9.6564C8.6727 9.6564 8.2127 10.1764 8.0127 11.0064C7.8627 11.4964 7.5927 11.6764 7.0927 11.6764C6.5327 11.6764 6.2227 11.3064 6.2227 10.8464C6.2227 10.5964 6.2627 10.3464 6.3327 10.0764C6.7427 8.8364 8.0027 8.0164 9.4627 8.0164C11.3027 8.0164 12.7527 9.1164 12.7527 11.0764C12.7527 12.2464 12.1427 13.3964 10.8527 13.7364V13.7764C12.0627 13.9064 13.0927 14.7664 13.0927 16.5164C13.0927 18.6164 11.5427 19.8964 9.5127 19.8964ZM18.2427 12.9764C19.1427 12.9764 19.5927 12.1964 19.5927 11.2664C19.5927 10.3664 19.1527 9.5264 18.2427 9.5264C17.3627 9.5264 16.8827 10.3664 16.8827 11.2664C16.8827 12.0964 17.3527 12.9764 18.2427 12.9764ZM18.2427 18.3564C19.2727 18.3564 19.7827 17.4464 19.7827 16.4064C19.7827 15.3364 19.2527 14.4964 18.2427 14.4964C17.2227 14.4964 16.7227 15.3964 16.7227 16.4064C16.7227 17.4464 17.2227 18.3564 18.2427 18.3564Z" /></svg>