
<svg
    viewBox={0 0 27.890625 27.890625}
    xmlns="http://www.w3.org/2000/svg"
>
    <path
        fill="inherit"
        d="M13.9427 27.8864C21.6427 27.8864 27.8927 21.6464 27.8927 13.9464C27.8927 6.2464 21.6427 -0.0036 13.9427 -0.0036C6.2527 -0.0036 0.0027 6.2464 0.0027 13.9464C0.0027 21.6464 6.2527 27.8864 13.9427 27.8864ZM13.9427 25.5664C7.5227 25.5664 2.3227 20.3664 2.3227 13.9464C2.3227 7.5164 7.5227 2.3264 13.9427 2.3264C20.3727 2.3264 25.5627 7.5164 25.5627 13.9464C25.5627 20.3664 20.3727 25.5664 13.9427 25.5664ZM18.0927 19.7164C20.2627 19.7164 21.6427 18.3564 21.6427 16.4864C21.6427 14.9964 20.7027 13.9164 19.6027 13.6764V13.6264C20.5227 13.3464 21.3327 12.4564 21.3327 11.1564C21.3327 9.3964 20.0127 8.1864 18.0927 8.1864C16.3927 8.1864 14.8727 9.2264 14.8727 11.1464C14.8727 12.5364 15.7327 13.3564 16.6127 13.6264V13.6764C15.4527 13.9364 14.5627 15.0164 14.5627 16.4864C14.5627 18.5164 16.0927 19.7164 18.0927 19.7164ZM9.6427 19.7164C11.6027 19.7164 13.1127 18.4864 13.1127 16.4364C13.1127 14.7364 12.1027 13.9064 10.9327 13.7764V13.7364C12.1827 13.4164 12.7827 12.3064 12.7827 11.1564C12.7827 9.2664 11.3727 8.1864 9.5827 8.1864C8.1727 8.1864 6.9627 8.9864 6.5627 10.1964C6.4927 10.4564 6.4527 10.7064 6.4527 10.9364C6.4527 11.3864 6.7527 11.7464 7.3027 11.7464C7.7627 11.7464 8.0427 11.5664 8.1727 11.0864C8.3827 10.2764 8.8227 9.7764 9.5827 9.7764C10.5027 9.7764 10.9227 10.4764 10.9227 11.3764C10.9227 12.3764 10.3627 13.0964 9.3427 13.0964H9.0127C8.5627 13.0964 8.2627 13.3864 8.2627 13.8364C8.2627 14.2864 8.5627 14.5464 9.0127 14.5464H9.3627C10.5227 14.5464 11.1527 15.1864 11.1527 16.3764C11.1527 17.3264 10.6627 18.1264 9.6527 18.1264C8.6527 18.1264 8.2027 17.4564 8.0427 16.8264C7.9027 16.3964 7.6127 16.1564 7.1827 16.1564C6.6427 16.1564 6.2727 16.4864 6.2727 17.0264C6.2727 17.2664 6.3127 17.5164 6.3827 17.7364C6.7827 19.0064 8.1727 19.7164 9.6427 19.7164ZM18.0927 13.0064C17.2227 13.0064 16.7727 12.1564 16.7727 11.3464C16.7727 10.4764 17.2427 9.6564 18.0927 9.6564C18.9727 9.6564 19.4127 10.4764 19.4127 11.3464C19.4127 12.2464 18.9627 13.0064 18.0927 13.0064ZM18.0927 18.2364C17.1027 18.2364 16.6127 17.3464 16.6127 16.3364C16.6127 15.3564 17.1027 14.4764 18.0927 14.4764C19.0727 14.4764 19.5927 15.2964 19.5927 16.3364C19.5927 17.3464 19.1027 18.2364 18.0927 18.2364Z"
        fillRule="evenodd"
        clipRule="evenodd"
    />
</svg>
        