
<svg
    viewBox={0 0 25.169921875 25.169921875}
    xmlns="http://www.w3.org/2000/svg"
>
    <path
        fill="inherit"
        d="M4.2937 25.1692H20.8737C23.7437 25.1692 25.1737 23.7592 25.1737 20.9492V4.2392C25.1737 1.4192 23.7437 -0.0008 20.8737 -0.0008H4.2937C1.4337 -0.0008 0.0037 1.4192 0.0037 4.2392V20.9492C0.0037 23.7592 1.4337 25.1692 4.2937 25.1692ZM4.3237 22.9692C2.9537 22.9692 2.2037 22.2392 2.2037 20.8192V4.3592C2.2037 2.9392 2.9537 2.1992 4.3237 2.1992H20.8537C22.2037 2.1992 22.9737 2.9392 22.9737 4.3592V20.8192C22.9737 22.2392 22.2037 22.9692 20.8537 22.9692ZM16.7437 18.3492C18.9237 18.3492 20.3037 16.9892 20.3037 15.1192C20.3037 13.6292 19.3637 12.5492 18.2637 12.3092V12.2592C19.1837 11.9792 19.9837 11.0892 19.9837 9.7892C19.9837 8.0292 18.6737 6.8192 16.7437 6.8192C15.0637 6.8192 13.5337 7.8592 13.5337 9.7792C13.5337 11.1692 14.3937 11.9892 15.2737 12.2592V12.3092C14.1137 12.5692 13.2237 13.6492 13.2237 15.1192C13.2237 17.1492 14.7537 18.3492 16.7437 18.3492ZM8.3037 18.3492C10.2637 18.3492 11.7737 17.1192 11.7737 15.0692C11.7737 13.3692 10.7637 12.5392 9.6137 12.4092V12.3692C10.8437 12.0492 11.4437 10.9392 11.4437 9.7892C11.4437 7.8992 10.0337 6.8192 8.2537 6.8192C6.8337 6.8192 5.6237 7.6192 5.2237 8.8292C5.1537 9.0892 5.1237 9.3392 5.1237 9.5692C5.1237 10.0192 5.4137 10.3792 5.9637 10.3792C6.4237 10.3792 6.7037 10.1992 6.8337 9.7192C7.0537 8.9092 7.4737 8.4092 8.2537 8.4092C9.1637 8.4092 9.5837 9.1092 9.5837 10.0092C9.5837 11.0092 9.0237 11.7292 8.0137 11.7292H7.6837C7.2237 11.7292 6.9137 12.0192 6.9137 12.4692C6.9137 12.9192 7.2337 13.1792 7.6837 13.1792H8.0237C9.1837 13.1792 9.8337 13.8192 9.8337 15.0092C9.8337 15.9592 9.3237 16.7592 8.3137 16.7592C7.3137 16.7592 6.8637 16.0892 6.7037 15.4592C6.5737 15.0292 6.2737 14.7892 5.8337 14.7892C5.3037 14.7892 4.9537 15.1192 4.9537 15.6592C4.9537 15.8992 4.9737 16.1492 5.0437 16.3692C5.4437 17.6392 6.8337 18.3492 8.3037 18.3492ZM16.7637 11.6392C15.8837 11.6392 15.4337 10.7892 15.4337 9.9792C15.4337 9.1092 15.9137 8.2892 16.7637 8.2892C17.6537 8.2892 18.0737 9.1092 18.0737 9.9792C18.0737 10.8792 17.6237 11.6392 16.7637 11.6392ZM16.7637 16.8692C15.7637 16.8692 15.2737 15.9792 15.2737 14.9692C15.2737 13.9892 15.7637 13.1092 16.7637 13.1092C17.7337 13.1092 18.2537 13.9292 18.2537 14.9692C18.2537 15.9792 17.7637 16.8692 16.7637 16.8692Z"
        fillRule="evenodd"
        clipRule="evenodd"
    />
</svg>
        