
<svg
    viewBox="0 0 27.890625 27.890625"
    xmlns="http://www.w3.org/2000/svg"
>
    <path
        fill="inherit"
        d="M13.9427 27.8864C21.6427 27.8864 27.8927 21.6264 27.8927 13.9464C27.8927 6.2464 21.6427 -0.0036 13.9427 -0.0036C6.2627 -0.0036 0.0027 6.2464 0.0027 13.9464C0.0027 21.6264 6.2627 27.8864 13.9427 27.8864ZM17.3527 15.7064C15.4727 15.7064 14.5627 13.9064 14.5627 12.0064C14.5627 9.7864 15.7927 7.9864 17.9327 7.9864C20.8127 7.9864 21.6527 11.1664 21.6527 13.8364C21.6527 16.7164 20.8227 19.9164 17.9227 19.9164C16.5027 19.9164 15.2827 19.1864 14.9827 17.9464C14.9327 17.7864 14.8927 17.6064 14.8927 17.4464C14.8927 16.9764 15.1527 16.5864 15.7527 16.5864C16.1727 16.5864 16.4427 16.7664 16.6527 17.2264C16.9027 17.8264 17.3227 18.2664 17.9527 18.2664C19.5327 18.2664 19.7327 15.4464 19.7327 13.8864V13.7364H19.6727C19.3427 14.9464 18.4827 15.7064 17.3527 15.7064ZM9.5327 19.8964C8.0127 19.8964 6.5627 19.1664 6.1627 17.8564C6.0927 17.6264 6.0527 17.3764 6.0527 17.1164C6.0527 16.5664 6.4227 16.2264 6.9827 16.2264C7.4327 16.2264 7.7427 16.4564 7.8727 16.9264C8.0427 17.5664 8.5027 18.2564 9.5327 18.2564C10.5727 18.2564 11.0927 17.4164 11.0927 16.4464C11.0927 15.2264 10.4327 14.5764 9.2327 14.5764H8.8827C8.4227 14.5764 8.1027 14.2964 8.1027 13.8364C8.1027 13.3664 8.4127 13.0664 8.8827 13.0664H9.2127C10.2827 13.0664 10.8427 12.3164 10.8427 11.2964C10.8427 10.3664 10.4027 9.6564 9.4727 9.6564C8.6727 9.6564 8.2427 10.1764 8.0127 11.0064C7.8727 11.4964 7.5927 11.6764 7.1127 11.6764C6.5527 11.6764 6.2527 11.3064 6.2527 10.8464C6.2527 10.5964 6.2727 10.3464 6.3427 10.0764C6.7527 8.8364 8.0127 8.0164 9.4727 8.0164C11.3027 8.0164 12.7727 9.1164 12.7727 11.0764C12.7727 12.2464 12.1427 13.3964 10.8727 13.7364V13.7764C12.0627 13.9064 13.0927 14.7664 13.0927 16.5164C13.0927 18.6164 11.5527 19.8964 9.5327 19.8964ZM17.9627 14.1464C18.9727 14.1464 19.4527 13.0064 19.4527 11.9064C19.4527 10.8564 19.0327 9.6364 17.9627 9.6364C16.9927 9.6364 16.5127 10.8564 16.5127 11.9064C16.5127 12.9464 16.9227 14.1464 17.9627 14.1464Z"
        fillRule="evenodd"
        clipRule="evenodd"
    />
</svg>
        