
<svg
    viewBox="0 0 27.890625 27.890625"
    xmlns="http://www.w3.org/2000/svg"
>
    <path
        fill="inherit"
        d="M13.9427 27.8864C21.6427 27.8864 27.8927 21.6464 27.8927 13.9464C27.8927 6.2464 21.6427 -0.0036 13.9427 -0.0036C6.2527 -0.0036 0.0027 6.2464 0.0027 13.9464C0.0027 21.6464 6.2527 27.8864 13.9427 27.8864ZM13.9427 25.5664C7.5227 25.5664 2.3227 20.3664 2.3227 13.9464C2.3227 7.5164 7.5227 2.3264 13.9427 2.3264C20.3727 2.3264 25.5627 7.5164 25.5627 13.9464C25.5627 20.3664 20.3727 25.5664 13.9427 25.5664ZM17.2227 15.6564C18.3327 15.6564 19.1727 14.9164 19.4827 13.7364H19.5327V13.8864C19.5327 15.4064 19.3427 18.1464 17.8127 18.1464C17.2027 18.1464 16.7927 17.7164 16.5427 17.1264C16.3527 16.6764 16.0827 16.5064 15.6727 16.5064C15.0927 16.5064 14.8427 16.8864 14.8427 17.3364C14.8427 17.4964 14.8927 17.6664 14.9327 17.8264C15.2327 19.0164 16.4027 19.7464 17.7827 19.7464C20.5927 19.7464 21.3927 16.6364 21.3927 13.8364C21.3927 11.2564 20.5727 8.1664 17.8027 8.1664C15.7227 8.1664 14.5227 9.9164 14.5227 12.0564C14.5227 13.9064 15.4127 15.6564 17.2227 15.6564ZM9.6527 19.7164C11.6027 19.7164 13.1127 18.4864 13.1127 16.4364C13.1127 14.7364 12.1027 13.9064 10.9527 13.7764V13.7364C12.1827 13.4164 12.7827 12.3064 12.7827 11.1564C12.7827 9.2664 11.3727 8.1864 9.5927 8.1864C8.1727 8.1864 6.9627 8.9864 6.5627 10.1964C6.4927 10.4564 6.4627 10.7064 6.4627 10.9364C6.4627 11.3864 6.7627 11.7464 7.3027 11.7464C7.7627 11.7464 8.0427 11.5664 8.1727 11.0864C8.3927 10.2764 8.8227 9.7764 9.5927 9.7764C10.5027 9.7764 10.9227 10.4764 10.9227 11.3764C10.9227 12.3764 10.3727 13.0964 9.3527 13.0964H9.0227C8.5627 13.0964 8.2727 13.3864 8.2727 13.8364C8.2727 14.2864 8.5727 14.5464 9.0227 14.5464H9.3627C10.5227 14.5464 11.1727 15.1864 11.1727 16.3764C11.1727 17.3264 10.6627 18.1264 9.6527 18.1264C8.6527 18.1264 8.2027 17.4564 8.0427 16.8264C7.9127 16.3964 7.6127 16.1564 7.1827 16.1564C6.6427 16.1564 6.2927 16.4864 6.2927 17.0264C6.2927 17.2664 6.3327 17.5164 6.4027 17.7364C6.7827 19.0064 8.1727 19.7164 9.6527 19.7164ZM17.8327 14.1464C16.8127 14.1464 16.4027 12.9864 16.4027 11.9764C16.4027 10.9464 16.8727 9.7464 17.8327 9.7464C18.8527 9.7464 19.2727 10.9464 19.2727 11.9764C19.2727 13.0264 18.8127 14.1464 17.8327 14.1464Z"
        fillRule="evenodd"
        clipRule="evenodd"
    />
</svg>
        