
<svg
    viewBox={0 0 25.169921875 25.169921875}
    xmlns="http://www.w3.org/2000/svg"
>
    <path
        fill="inherit"
        d="M4.2937 25.1692H20.8737C23.7437 25.1692 25.1737 23.7592 25.1737 20.9492V4.2392C25.1737 1.4192 23.7437 -0.0008 20.8737 -0.0008H4.2937C1.4337 -0.0008 0.0037 1.4192 0.0037 4.2392V20.9492C0.0037 23.7592 1.4337 25.1692 4.2937 25.1692ZM4.3237 22.9692C2.9537 22.9692 2.2037 22.2392 2.2037 20.8192V4.3592C2.2037 2.9392 2.9537 2.1992 4.3237 2.1992H20.8537C22.2037 2.1992 22.9737 2.9392 22.9737 4.3592V20.8192C22.9737 22.2392 22.2037 22.9692 20.8537 22.9692ZM15.8837 14.2892C16.9937 14.2892 17.8237 13.5492 18.1437 12.3692H18.1937V12.5192C18.1937 14.0392 18.0037 16.7792 16.4737 16.7792C15.8637 16.7792 15.4537 16.3492 15.2137 15.7592C15.0137 15.3092 14.7337 15.1392 14.3237 15.1392C13.7537 15.1392 13.5037 15.5192 13.5037 15.9692C13.5037 16.1292 13.5537 16.2992 13.5937 16.4592C13.8937 17.6492 15.0837 18.3792 16.4437 18.3792C19.2537 18.3792 20.0537 15.2692 20.0537 12.4692C20.0537 9.8892 19.2337 6.7992 16.4637 6.7992C14.3837 6.7992 13.1837 8.5492 13.1837 10.6892C13.1837 12.5392 14.0637 14.2892 15.8837 14.2892ZM8.3137 18.3492C10.2637 18.3492 11.7837 17.1192 11.7837 15.0692C11.7837 13.3692 10.7637 12.5392 9.6137 12.4092V12.3692C10.8437 12.0492 11.4537 10.9392 11.4537 9.7892C11.4537 7.8992 10.0337 6.8192 8.2537 6.8192C6.8537 6.8192 5.6237 7.6192 5.2337 8.8292C5.1537 9.0892 5.1237 9.3392 5.1237 9.5692C5.1237 10.0192 5.4237 10.3792 5.9637 10.3792C6.4437 10.3792 6.7037 10.1992 6.8337 9.7192C7.0537 8.9092 7.4937 8.4092 8.2537 8.4092C9.1637 8.4092 9.5837 9.1092 9.5837 10.0092C9.5837 11.0092 9.0337 11.7292 8.0137 11.7292H7.6837C7.2237 11.7292 6.9337 12.0192 6.9337 12.4692C6.9337 12.9192 7.2337 13.1792 7.6837 13.1792H8.0237C9.1837 13.1792 9.8337 13.8192 9.8337 15.0092C9.8337 15.9592 9.3237 16.7592 8.3137 16.7592C7.3137 16.7592 6.8737 16.0892 6.7037 15.4592C6.5737 15.0292 6.2737 14.7892 5.8337 14.7892C5.3037 14.7892 4.9537 15.1192 4.9537 15.6592C4.9537 15.8992 4.9937 16.1492 5.0537 16.3692C5.4537 17.6392 6.8337 18.3492 8.3137 18.3492ZM16.4837 12.7792C15.4737 12.7792 15.0837 11.6192 15.0837 10.6092C15.0837 9.5792 15.5337 8.3792 16.4837 8.3792C17.5237 8.3792 17.9337 9.5792 17.9337 10.6092C17.9337 11.6592 17.4837 12.7792 16.4837 12.7792Z"
        fillRule="evenodd"
        clipRule="evenodd"
    />
</svg>
        