
<svg
    viewBox="0 0 25.169921875 25.169921875"
    xmlns="http://www.w3.org/2000/svg"
>
    <path
        fill="inherit"
        d="M4.2937 25.1692H20.8737C23.7437 25.1692 25.1737 23.7592 25.1737 20.9492V4.2392C25.1737 1.4192 23.7437 -0.0008 20.8737 -0.0008H4.2937C1.4337 -0.0008 0.0037 1.4192 0.0037 4.2392V20.9492C0.0037 23.7592 1.4337 25.1692 4.2937 25.1692ZM15.9937 14.3392C14.1237 14.3392 13.2037 12.5392 13.2037 10.6392C13.2037 8.4192 14.4337 6.6192 16.5837 6.6192C19.4537 6.6192 20.3037 9.7992 20.3037 12.4692C20.3037 15.3492 19.4737 18.5492 16.5737 18.5492C15.1637 18.5492 13.9337 17.8192 13.6337 16.5792C13.5737 16.4192 13.5337 16.2392 13.5337 16.0792C13.5337 15.6092 13.7937 15.2192 14.3937 15.2192C14.8237 15.2192 15.0937 15.3992 15.3137 15.8592C15.5437 16.4592 15.9737 16.8992 16.5937 16.8992C18.1837 16.8992 18.3737 14.0792 18.3737 12.5192V12.3692H18.3237C17.9937 13.5792 17.1337 14.3392 15.9937 14.3392ZM8.1737 18.5292C6.6537 18.5292 5.2237 17.7992 4.8137 16.4892C4.7437 16.2592 4.7037 16.0092 4.7037 15.7492C4.7037 15.1992 5.0737 14.8592 5.6337 14.8592C6.0937 14.8592 6.3837 15.0892 6.5237 15.5592C6.7037 16.1992 7.1537 16.8892 8.1737 16.8892C9.2137 16.8892 9.7337 16.0492 9.7337 15.0792C9.7337 13.8592 9.0737 13.2092 7.8737 13.2092H7.5337C7.0637 13.2092 6.7537 12.9292 6.7537 12.4692C6.7537 11.9992 7.0537 11.6992 7.5337 11.6992H7.8637C8.9237 11.6992 9.4837 10.9492 9.4837 9.9292C9.4837 8.9992 9.0537 8.2892 8.1237 8.2892C7.3237 8.2892 6.8937 8.8092 6.6537 9.6392C6.5237 10.1292 6.2437 10.3092 5.7537 10.3092C5.1937 10.3092 4.8937 9.9392 4.8937 9.4792C4.8937 9.2292 4.9237 8.9792 5.0037 8.7092C5.4037 7.4692 6.6737 6.6492 8.1237 6.6492C9.9537 6.6492 11.4337 7.7492 11.4337 9.7092C11.4337 10.8792 10.7837 12.0292 9.5137 12.3692V12.4092C10.7037 12.5392 11.7537 13.3992 11.7537 15.1492C11.7537 17.2492 10.2037 18.5292 8.1737 18.5292ZM16.6137 12.7792C17.6337 12.7792 18.1037 11.6392 18.1037 10.5392C18.1037 9.4892 17.6937 8.2692 16.6137 8.2692C15.6437 8.2692 15.1737 9.4892 15.1737 10.5392C15.1737 11.5792 15.5737 12.7792 16.6137 12.7792Z"
        fillRule="evenodd"
        clipRule="evenodd"
    />
</svg>
        