<svg viewBox="0 0 27.890625 27.890625" xmlns="http://www.w3.org/2000/svg"><path d="M13.9427 27.8864C21.6427 27.8864 27.8927 21.6464 27.8927 13.9464C27.8927 6.2464 21.6427 -0.0036 13.9427 -0.0036C6.2527 -0.0036 0.0027 6.2464 0.0027 13.9464C0.0027 21.6464 6.2527 27.8864 13.9427 27.8864ZM13.9427 25.5664C7.5227 25.5664 2.3227 20.3664 2.3227 13.9464C2.3227 7.5164 7.5227 2.3264 13.9427 2.3264C20.3727 2.3264 25.5627 7.5164 25.5627 13.9464C25.5627 20.3664 20.3727 25.5664 13.9427 25.5664ZM8.7227 16.4764C8.7227 17.1564 9.1827 17.6064 9.9227 17.6064H15.0627V19.3064C15.0627 20.0264 15.4327 20.4564 16.0627 20.4564C16.7027 20.4564 17.0727 20.0464 17.0727 19.3064V17.6064H17.9927C18.6027 17.6064 18.9727 17.2364 18.9727 16.6664C18.9727 16.1464 18.6027 15.8064 17.9927 15.8064H17.0727V12.8564C17.0727 12.1164 16.7027 11.7064 16.0627 11.7064C15.4327 11.7064 15.0627 12.1264 15.0627 12.8564V15.8064H11.2627C12.5127 13.5064 13.7027 11.4264 14.9727 9.0964C15.0927 8.8764 15.1627 8.6664 15.1627 8.4464C15.1627 7.9164 14.8227 7.4464 14.1927 7.4464C13.7827 7.4464 13.4627 7.6564 13.2227 8.1064C11.7727 10.6664 10.4227 13.0464 8.9527 15.6164C8.7927 15.8864 8.7227 16.1864 8.7227 16.4764Z" /></svg>