<svg viewBox="0 0 25.169921875 25.169921875" xmlns="http://www.w3.org/2000/svg"><path d="M4.2937 25.1692H20.8737C23.7437 25.1692 25.1737 23.7592 25.1737 20.9492V4.2392C25.1737 1.4192 23.7437 -0.0008 20.8737 -0.0008H4.2937C1.4337 -0.0008 0.0037 1.4192 0.0037 4.2392V20.9492C0.0037 23.7592 1.4337 25.1692 4.2937 25.1692ZM7.2237 15.1892C7.2237 14.8892 7.2837 14.5892 7.4537 14.2992C8.9737 11.6492 10.3337 9.2292 11.8437 6.5892C12.1037 6.1292 12.4137 5.9092 12.8537 5.9092C13.4937 5.9092 13.8537 6.3892 13.8537 6.9492C13.8537 7.1592 13.7837 7.3792 13.6537 7.6192C12.3437 10.0192 11.1437 12.1292 9.8537 14.4892H13.7637V11.4592C13.7637 10.7092 14.1537 10.2692 14.7937 10.2692C15.4637 10.2692 15.8637 10.6892 15.8637 11.4592V14.4892H16.7937C17.4137 14.4892 17.8037 14.8492 17.8037 15.3992C17.8037 15.9792 17.4137 16.3692 16.7937 16.3692H15.8637V17.8192C15.8637 18.5792 15.4637 18.9992 14.7937 18.9992C14.1537 18.9992 13.7637 18.5692 13.7637 17.8192V16.3692H8.4737C7.6937 16.3692 7.2237 15.8992 7.2237 15.1892Z" /></svg>