
<svg
    viewBox={0 0 25.169921875 25.169921875}
    xmlns="http://www.w3.org/2000/svg"
>
    <path
        fill="inherit"
        d="M4.2937 25.1692H20.8737C23.7437 25.1692 25.1737 23.7592 25.1737 20.9492V4.2392C25.1737 1.4192 23.7437 -0.0008 20.8737 -0.0008H4.2937C1.4337 -0.0008 0.0037 1.4192 0.0037 4.2392V20.9492C0.0037 23.7592 1.4337 25.1692 4.2937 25.1692ZM4.3237 22.9692C2.9537 22.9692 2.2037 22.2392 2.2037 20.8192V4.3592C2.2037 2.9392 2.9537 2.1992 4.3237 2.1992H20.8537C22.2037 2.1992 22.9737 2.9392 22.9737 4.3592V20.8192C22.9737 22.2392 22.2037 22.9692 20.8537 22.9692ZM7.3837 15.1092C7.3837 15.7892 7.8437 16.2392 8.6037 16.2392H13.7237V17.9392C13.7237 18.6592 14.0937 19.0892 14.7237 19.0892C15.3637 19.0892 15.7537 18.6792 15.7537 17.9392V16.2392H16.6537C17.2637 16.2392 17.6337 15.8692 17.6337 15.2992C17.6337 14.7792 17.2637 14.4392 16.6537 14.4392H15.7537V11.4892C15.7537 10.7492 15.3637 10.3392 14.7237 10.3392C14.0937 10.3392 13.7237 10.7592 13.7237 11.4892V14.4392H9.9237C11.1737 12.1392 12.3737 10.0592 13.6337 7.7292C13.7537 7.5092 13.8237 7.2992 13.8237 7.0792C13.8237 6.5492 13.4837 6.0792 12.8537 6.0792C12.4437 6.0792 12.1237 6.2892 11.8837 6.7392C10.4337 9.2992 9.0737 11.6792 7.6137 14.2492C7.4537 14.5192 7.3837 14.8192 7.3837 15.1092Z"
        fillRule="evenodd"
        clipRule="evenodd"
    />
</svg>
        