
<svg
    viewBox={0 0 27.890625 27.890625}
    xmlns="http://www.w3.org/2000/svg"
>
    <path
        fill="inherit"
        d="M13.9427 27.8864C21.6427 27.8864 27.8927 21.6264 27.8927 13.9464C27.8927 6.2464 21.6427 -0.0036 13.9427 -0.0036C6.2627 -0.0036 0.0027 6.2464 0.0027 13.9464C0.0027 21.6264 6.2627 27.8864 13.9427 27.8864ZM8.5727 16.5564C8.5727 16.2564 8.6427 15.9564 8.8027 15.6664C10.3227 13.0164 11.6927 10.5964 13.1927 7.9564C13.4527 7.4964 13.7627 7.2764 14.2027 7.2764C14.8427 7.2764 15.2027 7.7564 15.2027 8.3164C15.2027 8.5264 15.1327 8.7464 15.0127 8.9864C13.7027 11.3864 12.4927 13.4964 11.2127 15.8564H15.1227V12.8264C15.1227 12.0764 15.5027 11.6364 16.1427 11.6364C16.8127 11.6364 17.2027 12.0564 17.2027 12.8264V15.8564H18.1427C18.7727 15.8564 19.1527 16.2164 19.1527 16.7664C19.1527 17.3464 18.7727 17.7364 18.1427 17.7364H17.2027V19.1864C17.2027 19.9464 16.8127 20.3664 16.1427 20.3664C15.5027 20.3664 15.1227 19.9364 15.1227 19.1864V17.7364H9.8127C9.0527 17.7364 8.5727 17.2664 8.5727 16.5564Z"
        fillRule="evenodd"
        clipRule="evenodd"
    />
</svg>
        