
<svg
    viewBox={0 0 27.890625 27.890625}
    xmlns="http://www.w3.org/2000/svg"
>
    <path
        fill="inherit"
        d="M13.9427 27.8864C21.6427 27.8864 27.8927 21.6464 27.8927 13.9464C27.8927 6.2464 21.6427 -0.0036 13.9427 -0.0036C6.2527 -0.0036 0.0027 6.2464 0.0027 13.9464C0.0027 21.6464 6.2527 27.8864 13.9427 27.8864ZM13.9427 25.5664C7.5227 25.5664 2.3227 20.3664 2.3227 13.9464C2.3227 7.5164 7.5227 2.3264 13.9427 2.3264C20.3727 2.3264 25.5627 7.5164 25.5627 13.9464C25.5627 20.3664 20.3727 25.5664 13.9427 25.5664ZM15.7227 20.4564C16.3627 20.4564 16.7327 20.0264 16.7327 19.3064V17.6264H17.7827C18.3227 17.6264 18.6927 17.2664 18.6927 16.7364C18.6927 16.1964 18.3327 15.8364 17.7827 15.8364H16.7327V8.8764C16.7327 8.0164 16.0827 7.4364 15.1027 7.4364C14.1527 7.4364 13.5527 7.7764 13.0027 8.5964C11.5927 10.7364 9.9027 13.2464 8.7627 15.0964C8.4927 15.5464 8.3927 15.8764 8.3927 16.2864C8.3927 17.0864 8.9427 17.6264 9.8127 17.6264H14.7227V19.3064C14.7227 20.0164 15.0927 20.4564 15.7227 20.4564ZM14.7227 15.8364H10.4027V15.7464C11.4427 13.9564 13.1927 11.3564 14.6327 9.1964H14.7227Z"
        fillRule="evenodd"
        clipRule="evenodd"
    />
</svg>
        