
<svg
    viewBox="0 0 27.890625 27.890625"
    xmlns="http://www.w3.org/2000/svg"
>
    <path
        fill="inherit"
        d="M13.9427 27.8864C21.6427 27.8864 27.8927 21.6264 27.8927 13.9464C27.8927 6.2464 21.6427 -0.0036 13.9427 -0.0036C6.2627 -0.0036 0.0027 6.2464 0.0027 13.9464C0.0027 21.6264 6.2627 27.8864 13.9427 27.8864ZM15.7927 20.3664C15.1327 20.3664 14.7527 19.9164 14.7527 19.1864V17.7464H9.6927C8.7927 17.7464 8.2327 17.1964 8.2327 16.3664C8.2327 15.9364 8.3227 15.5964 8.6127 15.1164C9.7727 13.2164 11.5127 10.6464 12.9727 8.4364C13.5327 7.5864 14.1627 7.2364 15.1527 7.2364C16.1627 7.2364 16.8427 7.8364 16.8427 8.7264V15.8864H17.9227C18.4827 15.8864 18.8527 16.2664 18.8527 16.8264C18.8527 17.3764 18.4727 17.7464 17.9227 17.7464H16.8427V19.1864C16.8427 19.9364 16.4627 20.3664 15.7927 20.3664ZM14.7527 15.8864V9.0664H14.6527C13.1827 11.2964 11.3927 13.9564 10.3127 15.8064V15.8864Z"
        fillRule="evenodd"
        clipRule="evenodd"
    />
</svg>
        