
<svg
    viewBox="0 0 25.169921875 20.603515625"
    xmlns="http://www.w3.org/2000/svg"
>
    <path
        fill="inherit"
        d="M0.0037 19.4923C0.0037 20.1023 0.4937 20.6023 1.0937 20.6023C1.7137 20.6023 2.2037 20.1023 2.2037 19.4923V1.0923C2.2037 0.4923 1.7137 0.0023 1.0937 0.0023C0.4937 0.0023 0.0037 0.4923 0.0037 1.0923ZM22.9737 19.4923C22.9737 20.1023 23.4737 20.6023 24.0737 20.6023C24.6737 20.6023 25.1737 20.1023 25.1737 19.4923V1.0923C25.1737 0.4923 24.6737 0.0023 24.0737 0.0023C23.4737 0.0023 22.9737 0.4923 22.9737 1.0923ZM14.3437 16.6823C14.8937 16.6823 15.3637 16.3623 15.3637 15.6223V14.1923H15.9937C16.5937 14.1923 16.8537 13.7923 16.8537 13.3323C16.8537 12.8123 16.5737 12.4523 15.9937 12.4523H15.3637V6.0723C15.3637 5.0423 14.6837 4.5023 13.6737 4.5023C12.6437 4.5023 12.1537 5.0423 11.6737 5.9423C10.7637 7.5423 9.4037 10.0323 8.6837 11.5123C8.4737 12.0223 8.3037 12.4923 8.3037 13.0323C8.3037 13.7123 8.8037 14.1923 9.5337 14.1923H13.3137V15.6223C13.3137 16.3523 13.8037 16.6823 14.3437 16.6823ZM13.3737 12.5123H10.1437V12.4023C10.9937 10.5223 12.2737 8.1223 13.3037 6.3123H13.3737Z"
        fillRule="evenodd"
        clipRule="evenodd"
    />
</svg>
        