
<svg
    viewBox="0 0 25.169921875 25.169921875"
    xmlns="http://www.w3.org/2000/svg"
>
    <path
        fill="inherit"
        d="M4.2937 25.1692H20.8737C23.7437 25.1692 25.1737 23.7592 25.1737 20.9492V4.2392C25.1737 1.4192 23.7437 -0.0008 20.8737 -0.0008H4.2937C1.4337 -0.0008 0.0037 1.4192 0.0037 4.2392V20.9492C0.0037 23.7592 1.4337 25.1692 4.2937 25.1692ZM14.4337 18.9992C13.7937 18.9992 13.3937 18.5492 13.3937 17.8192V16.3792H8.3437C7.4537 16.3792 6.8737 15.8292 6.8737 14.9992C6.8737 14.5692 6.9737 14.2292 7.2637 13.7492C8.4237 11.8492 10.1537 9.2792 11.6337 7.0692C12.1837 6.2192 12.8137 5.8692 13.7937 5.8692C14.8037 5.8692 15.5037 6.4692 15.5037 7.3592V14.5192H16.5737C17.1337 14.5192 17.5037 14.8992 17.5037 15.4592C17.5037 16.0092 17.1137 16.3792 16.5737 16.3792H15.5037V17.8192C15.5037 18.5692 15.1037 18.9992 14.4337 18.9992ZM13.3937 14.5192V7.6992H13.3037C11.8237 9.9292 10.0337 12.5892 8.9537 14.4392V14.5192Z"
        fillRule="evenodd"
        clipRule="evenodd"
    />
</svg>
        