
<svg
    viewBox={0 0 25.169921875 25.169921875}
    xmlns="http://www.w3.org/2000/svg"
>
    <path
        fill="inherit"
        d="M4.2937 25.1692H20.8737C23.7437 25.1692 25.1737 23.7592 25.1737 20.9492V4.2392C25.1737 1.4192 23.7437 -0.0008 20.8737 -0.0008H4.2937C1.4337 -0.0008 0.0037 1.4192 0.0037 4.2392V20.9492C0.0037 23.7592 1.4337 25.1692 4.2937 25.1692ZM4.3237 22.9692C2.9537 22.9692 2.2037 22.2392 2.2037 20.8192V4.3592C2.2037 2.9392 2.9537 2.1992 4.3237 2.1992H20.8537C22.2037 2.1992 22.9737 2.9392 22.9737 4.3592V20.8192C22.9737 22.2392 22.2037 22.9692 20.8537 22.9692ZM14.3837 19.0892C15.0237 19.0892 15.4037 18.6592 15.4037 17.9392V16.2592H16.4437C16.9837 16.2592 17.3537 15.8992 17.3537 15.3692C17.3537 14.8292 16.9937 14.4692 16.4437 14.4692H15.4037V7.5092C15.4037 6.6492 14.7337 6.0692 13.7637 6.0692C12.8137 6.0692 12.2137 6.4092 11.6737 7.2292C10.2537 9.3692 8.5537 11.8792 7.4237 13.7292C7.1537 14.1792 7.0537 14.5092 7.0537 14.9192C7.0537 15.7192 7.6137 16.2592 8.4737 16.2592H13.3837V17.9392C13.3837 18.6492 13.7637 19.0892 14.3837 19.0892ZM13.3837 14.4692H9.0637V14.3792C10.1037 12.5892 11.8537 9.9892 13.2937 7.8292H13.3837Z"
        fillRule="evenodd"
        clipRule="evenodd"
    />
</svg>
        