<svg viewBox="0 0 27.890625 27.890625" xmlns="http://www.w3.org/2000/svg"><path d="M13.9427 27.8864C21.6427 27.8864 27.8927 21.6464 27.8927 13.9464C27.8927 6.2464 21.6427 -0.0036 13.9427 -0.0036C6.2527 -0.0036 0.0027 6.2464 0.0027 13.9464C0.0027 21.6464 6.2527 27.8864 13.9427 27.8864ZM13.9427 25.5664C7.5227 25.5664 2.3227 20.3664 2.3227 13.9464C2.3227 7.5164 7.5227 2.3264 13.9427 2.3264C20.3727 2.3264 25.5627 7.5164 25.5627 13.9464C25.5627 20.3664 20.3727 25.5664 13.9427 25.5664ZM17.9627 19.7564C20.6827 19.7564 21.5027 16.6964 21.5027 13.9464C21.5027 11.1964 20.6827 8.1364 17.9627 8.1364C15.2427 8.1364 14.4227 11.1964 14.4227 13.9464C14.4227 16.6964 15.2427 19.7564 17.9627 19.7564ZM10.8327 19.6464C11.3327 19.6464 11.7627 19.3364 11.7627 18.6764V17.3064H12.2527C12.7727 17.3064 13.0327 16.9664 13.0327 16.5064C13.0327 16.0664 12.7927 15.7264 12.2527 15.7264H11.7627V9.7164C11.7627 8.7764 11.1427 8.2464 10.2527 8.2464C9.2827 8.2464 8.8327 8.7364 8.4527 9.5864L6.0027 14.8864C5.7827 15.4264 5.7027 15.7764 5.7027 16.1964C5.7027 16.8564 6.1527 17.3064 6.8227 17.3064H9.8827V18.6764C9.8827 19.3964 10.3927 19.6464 10.8327 19.6464ZM17.9627 18.1264C16.8427 18.1264 16.4227 16.3064 16.4227 13.9464C16.4227 11.5664 16.8427 9.7464 17.9627 9.7464C19.0827 9.7464 19.5127 11.5664 19.5127 13.9464C19.5127 16.3064 19.0827 18.1264 17.9627 18.1264ZM9.9227 15.7664H7.3827V15.6664L9.8727 9.9664H9.9227Z" /></svg>