
<svg
    viewBox={0 0 25.169921875 25.169921875}
    xmlns="http://www.w3.org/2000/svg"
>
    <path
        fill="inherit"
        d="M4.2937 25.1692H20.8737C23.7437 25.1692 25.1737 23.7592 25.1737 20.9492V4.2392C25.1737 1.4192 23.7437 -0.0008 20.8737 -0.0008H4.2937C1.4337 -0.0008 0.0037 1.4192 0.0037 4.2392V20.9492C0.0037 23.7592 1.4337 25.1692 4.2937 25.1692ZM4.3237 22.9692C2.9537 22.9692 2.2037 22.2392 2.2037 20.8192V4.3592C2.2037 2.9392 2.9537 2.1992 4.3237 2.1992H20.8537C22.2037 2.1992 22.9737 2.9392 22.9737 4.3592V20.8192C22.9737 22.2392 22.2037 22.9692 20.8537 22.9692ZM16.6237 18.3892C19.3437 18.3892 20.1637 15.3292 20.1637 12.5792C20.1637 9.8292 19.3437 6.7692 16.6237 6.7692C13.9037 6.7692 13.0837 9.8292 13.0837 12.5792C13.0837 15.3292 13.9037 18.3892 16.6237 18.3892ZM9.4837 18.2792C10.0037 18.2792 10.4137 17.9692 10.4137 17.3092V15.9392H10.9137C11.4437 15.9392 11.6937 15.5992 11.6937 15.1392C11.6937 14.6992 11.4537 14.3592 10.9137 14.3592H10.4137V8.3492C10.4137 7.4092 9.8037 6.8792 8.9137 6.8792C7.9437 6.8792 7.4937 7.3692 7.1137 8.2192L4.6737 13.5192C4.4437 14.0592 4.3637 14.4092 4.3637 14.8292C4.3637 15.4892 4.8137 15.9392 5.4837 15.9392H8.5437V17.3092C8.5437 18.0292 9.0537 18.2792 9.4837 18.2792ZM16.6237 16.7592C15.5037 16.7592 15.0837 14.9392 15.0837 12.5792C15.0837 10.1992 15.5037 8.3792 16.6237 8.3792C17.7437 8.3792 18.1737 10.1992 18.1737 12.5792C18.1737 14.9392 17.7437 16.7592 16.6237 16.7592ZM8.5837 14.3992H6.0437V14.2992L8.5337 8.5992H8.5837Z"
        fillRule="evenodd"
        clipRule="evenodd"
    />
</svg>
        