
<svg
    viewBox={0 0 27.890625 27.890625}
    xmlns="http://www.w3.org/2000/svg"
>
    <path
        fill="inherit"
        d="M13.9427 27.8864C21.6427 27.8864 27.8927 21.6464 27.8927 13.9464C27.8927 6.2464 21.6427 -0.0036 13.9427 -0.0036C6.2527 -0.0036 0.0027 6.2464 0.0027 13.9464C0.0027 21.6464 6.2527 27.8864 13.9427 27.8864ZM13.9427 25.5664C7.5227 25.5664 2.3227 20.3664 2.3227 13.9464C2.3227 7.5164 7.5227 2.3264 13.9427 2.3264C20.3727 2.3264 25.5627 7.5164 25.5627 13.9464C25.5627 20.3664 20.3727 25.5664 13.9427 25.5664ZM18.4827 19.6164C19.0127 19.6164 19.4727 19.1664 19.4727 18.6164V9.3564C19.4727 8.6564 19.0327 8.2464 18.3227 8.2464C17.7427 8.2464 17.2827 8.5564 16.9627 8.8064L15.4627 9.9664C15.2127 10.1564 15.0227 10.4164 15.0227 10.7764C15.0227 11.1964 15.3127 11.4964 15.7327 11.4964C15.9427 11.4964 16.0827 11.4264 16.2127 11.3364L17.4727 10.3264V18.6164C17.4727 19.1664 17.9227 19.6164 18.4827 19.6164ZM11.8427 19.6464C12.3427 19.6464 12.7727 19.3364 12.7727 18.6764V17.3064H13.2527C13.7827 17.3064 14.0227 16.9664 14.0227 16.5064C14.0227 16.0664 13.7927 15.7264 13.2527 15.7264H12.7727V9.7164C12.7727 8.7764 12.1527 8.2464 11.2527 8.2464C10.2927 8.2464 9.8427 8.7364 9.4627 9.5864L7.0127 14.8864C6.7827 15.4264 6.7127 15.7764 6.7127 16.1964C6.7127 16.8564 7.1627 17.3064 7.8327 17.3064H10.8827V18.6764C10.8827 19.3964 11.4027 19.6464 11.8427 19.6464ZM10.9227 15.7664H8.3927V15.6664L10.8827 9.9664H10.9227Z"
        fillRule="evenodd"
        clipRule="evenodd"
    />
</svg>
        