
<svg
    viewBox="0 0 27.890625 27.890625"
    xmlns="http://www.w3.org/2000/svg"
>
    <path
        fill="inherit"
        d="M13.9427 27.8864C21.6427 27.8864 27.8927 21.6264 27.8927 13.9464C27.8927 6.2464 21.6427 -0.0036 13.9427 -0.0036C6.2627 -0.0036 0.0027 6.2464 0.0027 13.9464C0.0027 21.6264 6.2627 27.8864 13.9427 27.8864ZM18.6727 19.7964C18.0927 19.7964 17.6227 19.3364 17.6227 18.7564V10.2164L16.3227 11.2564C16.1827 11.3564 16.0527 11.4264 15.8327 11.4264C15.3927 11.4264 15.0927 11.1164 15.0927 10.6764C15.0927 10.3064 15.3027 10.0364 15.5427 9.8464L17.1027 8.6364C17.4227 8.3964 17.9127 8.0664 18.5027 8.0664C19.2327 8.0664 19.6827 8.4864 19.6827 9.2164V18.7564C19.6827 19.3364 19.2227 19.7964 18.6727 19.7964ZM11.8127 19.8264C11.3627 19.8264 10.8127 19.5664 10.8127 18.8264V17.4164H7.6827C6.9827 17.4164 6.5227 16.9564 6.5227 16.2664C6.5227 15.8364 6.5927 15.4664 6.8327 14.9164L9.3527 9.4464C9.7527 8.5764 10.2127 8.0664 11.1927 8.0664C12.1427 8.0664 12.7727 8.6164 12.7727 9.5964V15.7764H13.2627C13.8327 15.7764 14.0727 16.1364 14.0727 16.5864C14.0727 17.0664 13.8227 17.4164 13.2627 17.4164H12.7727V18.8264C12.7727 19.4964 12.3327 19.8264 11.8127 19.8264ZM10.8527 15.8164V9.8464H10.8127L8.2627 15.7264V15.8164Z"
        fillRule="evenodd"
        clipRule="evenodd"
    />
</svg>
        