
<svg
    viewBox="0 0 25.169921875 25.169921875"
    xmlns="http://www.w3.org/2000/svg"
>
    <path
        fill="inherit"
        d="M4.2937 25.1692H20.8737C23.7437 25.1692 25.1737 23.7592 25.1737 20.9492V4.2392C25.1737 1.4192 23.7437 -0.0008 20.8737 -0.0008H4.2937C1.4337 -0.0008 0.0037 1.4192 0.0037 4.2392V20.9492C0.0037 23.7592 1.4337 25.1692 4.2937 25.1692ZM4.3237 22.9692C2.9537 22.9692 2.2037 22.2392 2.2037 20.8192V4.3592C2.2037 2.9392 2.9537 2.1992 4.3237 2.1992H20.8537C22.2037 2.1992 22.9737 2.9392 22.9737 4.3592V20.8192C22.9737 22.2392 22.2037 22.9692 20.8537 22.9692ZM17.1437 18.2492C17.6737 18.2492 18.1337 17.7992 18.1337 17.2492V7.9892C18.1337 7.2892 17.6937 6.8792 16.9837 6.8792C16.4037 6.8792 15.9437 7.1892 15.6237 7.4392L14.1237 8.5992C13.8737 8.7892 13.6837 9.0492 13.6837 9.4092C13.6837 9.8292 13.9737 10.1292 14.3937 10.1292C14.6037 10.1292 14.7337 10.0592 14.8737 9.9692L16.1337 8.9592V17.2492C16.1337 17.7992 16.5837 18.2492 17.1437 18.2492ZM10.5037 18.2792C11.0037 18.2792 11.4337 17.9692 11.4337 17.3092V15.9392H11.9237C12.4437 15.9392 12.6837 15.5992 12.6837 15.1392C12.6837 14.6992 12.4737 14.3592 11.9237 14.3592H11.4337V8.3492C11.4337 7.4092 10.8137 6.8792 9.9137 6.8792C8.9537 6.8792 8.5037 7.3692 8.1237 8.2192L5.6737 13.5192C5.4437 14.0592 5.3737 14.4092 5.3737 14.8292C5.3737 15.4892 5.8237 15.9392 6.4937 15.9392H9.5537V17.3092C9.5537 18.0292 10.0637 18.2792 10.5037 18.2792ZM9.5937 14.3992H7.0537V14.2992L9.5437 8.5992H9.5937Z"
        fillRule="evenodd"
        clipRule="evenodd"
    />
</svg>
        