
<svg
    viewBox={0 0 27.890625 27.890625}
    xmlns="http://www.w3.org/2000/svg"
>
    <path
        fill="inherit"
        d="M13.9427 27.8864C21.6427 27.8864 27.8927 21.6264 27.8927 13.9464C27.8927 6.2464 21.6427 -0.0036 13.9427 -0.0036C6.2627 -0.0036 0.0027 6.2464 0.0027 13.9464C0.0027 21.6264 6.2627 27.8864 13.9427 27.8864ZM15.6227 19.6464C14.9727 19.6464 14.6727 19.3064 14.6727 18.8264C14.6727 18.3864 14.9327 18.0364 15.2027 17.6864L17.6327 14.5764C18.3727 13.6164 19.1727 12.4664 19.1727 11.3364C19.1727 10.3364 18.6927 9.5964 17.8527 9.5964C17.0527 9.5964 16.7027 10.1864 16.4327 11.1264C16.2927 11.5964 16.0127 11.8164 15.5427 11.8164C14.9827 11.8164 14.6927 11.4464 14.6927 10.9064C14.6927 9.4464 16.0627 7.9564 17.8727 7.9564C19.8127 7.9564 21.1127 9.3364 21.1127 11.2364C21.1127 12.4864 20.6427 13.5264 19.2227 15.2764L17.1827 17.8664V17.9964H20.5227C21.0027 17.9964 21.3327 18.2764 21.3327 18.8264C21.3327 19.3164 21.0127 19.6464 20.5227 19.6464ZM11.0027 19.8264C10.5727 19.8264 10.0327 19.5764 10.0327 18.8264V17.4164H6.8727C6.1827 17.4164 5.7127 16.9564 5.7127 16.2664C5.7127 15.8364 5.7927 15.4664 6.0427 14.9164L8.5427 9.4564C8.9427 8.5764 9.4027 8.0664 10.4227 8.0664C11.3327 8.0664 11.9727 8.6264 11.9727 9.5964V15.7764H12.4827C13.0427 15.7764 13.2927 16.1364 13.2927 16.5864C13.2927 17.0664 13.0327 17.4164 12.4827 17.4164H11.9727V18.8264C11.9727 19.4964 11.5527 19.8264 11.0027 19.8264ZM10.0727 15.8164V9.8464H10.0227L7.4627 15.7264V15.8164Z"
        fillRule="evenodd"
        clipRule="evenodd"
    />
</svg>
        