
<svg
    viewBox={0 0 27.890625 27.890625}
    xmlns="http://www.w3.org/2000/svg"
>
    <path
        fill="inherit"
        d="M13.9427 27.8864C21.6427 27.8864 27.8927 21.6464 27.8927 13.9464C27.8927 6.2464 21.6427 -0.0036 13.9427 -0.0036C6.2527 -0.0036 0.0027 6.2464 0.0027 13.9464C0.0027 21.6464 6.2527 27.8864 13.9427 27.8864ZM13.9427 25.5664C7.5227 25.5664 2.3227 20.3664 2.3227 13.9464C2.3227 7.5164 7.5227 2.3264 13.9427 2.3264C20.3727 2.3264 25.5627 7.5164 25.5627 13.9464C25.5627 20.3664 20.3727 25.5664 13.9427 25.5664ZM15.5427 19.4664H20.2927C20.7627 19.4664 21.0727 19.1564 21.0727 18.6764C21.0727 18.1564 20.7527 17.8664 20.2927 17.8664H17.0527V17.7564L19.0327 15.2264C20.4127 13.5364 20.8627 12.5264 20.8627 11.3164C20.8627 9.4764 19.6027 8.1364 17.7227 8.1364C15.9727 8.1364 14.6427 9.5864 14.6427 11.0064C14.6427 11.5164 14.9327 11.8664 15.4627 11.8664C15.9127 11.8664 16.1827 11.6664 16.3227 11.2064C16.5827 10.2964 16.9227 9.7164 17.7027 9.7164C18.5227 9.7164 18.9927 10.4464 18.9927 11.4164C18.9927 12.5064 18.2227 13.6164 17.5027 14.5464L15.1327 17.5864C14.8727 17.9064 14.6127 18.2564 14.6127 18.6764C14.6127 19.1364 14.9127 19.4664 15.5427 19.4664ZM11.0727 19.6464C11.5927 19.6464 12.0027 19.3364 12.0027 18.6764V17.3064H12.4927C13.0327 17.3064 13.2727 16.9664 13.2727 16.5064C13.2727 16.0664 13.0427 15.7264 12.4927 15.7264H12.0027V9.7164C12.0027 8.7764 11.3927 8.2464 10.5027 8.2464C9.5327 8.2464 9.0827 8.7364 8.6927 9.5864L6.2627 14.8864C6.0327 15.4264 5.9427 15.7764 5.9427 16.1964C5.9427 16.8564 6.4027 17.3064 7.0727 17.3064H10.1327V18.6764C10.1327 19.3964 10.6527 19.6464 11.0727 19.6464ZM10.1727 15.7664H7.6327V15.6664L10.1127 9.9664H10.1727Z"
        fillRule="evenodd"
        clipRule="evenodd"
    />
</svg>
        