
<svg
    viewBox={0 0 25.169921875 25.169921875}
    xmlns="http://www.w3.org/2000/svg"
>
    <path
        fill="inherit"
        d="M4.2937 25.1692H20.8737C23.7437 25.1692 25.1737 23.7592 25.1737 20.9492V4.2392C25.1737 1.4192 23.7437 -0.0008 20.8737 -0.0008H4.2937C1.4337 -0.0008 0.0037 1.4192 0.0037 4.2392V20.9492C0.0037 23.7592 1.4337 25.1692 4.2937 25.1692ZM4.3237 22.9692C2.9537 22.9692 2.2037 22.2392 2.2037 20.8192V4.3592C2.2037 2.9392 2.9537 2.1992 4.3237 2.1992H20.8537C22.2037 2.1992 22.9737 2.9392 22.9737 4.3592V20.8192C22.9737 22.2392 22.2037 22.9692 20.8537 22.9692ZM14.2037 18.0992H18.9537C19.4237 18.0992 19.7237 17.7892 19.7237 17.3092C19.7237 16.7892 19.4137 16.4992 18.9537 16.4992H15.7137V16.3892L17.7037 13.8592C19.0737 12.1692 19.5237 11.1592 19.5237 9.9492C19.5237 8.1092 18.2637 6.7692 16.3837 6.7692C14.6337 6.7692 13.3037 8.2192 13.3037 9.6392C13.3037 10.1492 13.6037 10.4992 14.1237 10.4992C14.5737 10.4992 14.8437 10.2992 14.9837 9.8392C15.2437 8.9292 15.5837 8.3492 16.3637 8.3492C17.2037 8.3492 17.6537 9.0792 17.6537 10.0492C17.6537 11.1392 16.8937 12.2492 16.1637 13.1792L13.7937 16.2192C13.5337 16.5392 13.2937 16.8892 13.2937 17.3092C13.2937 17.7692 13.5737 18.0992 14.2037 18.0992ZM9.7337 18.2792C10.2537 18.2792 10.6737 17.9692 10.6737 17.3092V15.9392H11.1537C11.6937 15.9392 11.9337 15.5992 11.9337 15.1392C11.9337 14.6992 11.7037 14.3592 11.1537 14.3592H10.6737V8.3492C10.6737 7.4092 10.0537 6.8792 9.1637 6.8792C8.2037 6.8792 7.7537 7.3692 7.3737 8.2192L4.9237 13.5192C4.6937 14.0592 4.6037 14.4092 4.6037 14.8292C4.6037 15.4892 5.0737 15.9392 5.7237 15.9392H8.7937V17.3092C8.7937 18.0292 9.3137 18.2792 9.7337 18.2792ZM8.8337 14.3992H6.2937V14.2992L8.7737 8.5992H8.8337Z"
        fillRule="evenodd"
        clipRule="evenodd"
    />
</svg>
        