
<svg
    viewBox="0 0 27.890625 27.890625"
    xmlns="http://www.w3.org/2000/svg"
>
    <path
        fill="inherit"
        d="M13.9427 27.8864C21.6427 27.8864 27.8927 21.6464 27.8927 13.9464C27.8927 6.2464 21.6427 -0.0036 13.9427 -0.0036C6.2527 -0.0036 0.0027 6.2464 0.0027 13.9464C0.0027 21.6464 6.2527 27.8864 13.9427 27.8864ZM13.9427 25.5664C7.5227 25.5664 2.3227 20.3664 2.3227 13.9464C2.3227 7.5164 7.5227 2.3264 13.9427 2.3264C20.3727 2.3264 25.5627 7.5164 25.5627 13.9464C25.5627 20.3664 20.3727 25.5664 13.9427 25.5664ZM17.9327 19.7164C19.9027 19.7164 21.4127 18.4864 21.4127 16.4364C21.4127 14.7364 20.4027 13.9064 19.2327 13.7764V13.7364C20.4827 13.4164 21.0827 12.3064 21.0827 11.1564C21.0827 9.2664 19.6727 8.1864 17.8927 8.1864C16.4727 8.1864 15.2627 8.9864 14.8627 10.1964C14.7927 10.4564 14.7627 10.7064 14.7627 10.9364C14.7627 11.3864 15.0527 11.7464 15.6027 11.7464C16.0627 11.7464 16.3427 11.5664 16.4727 11.0864C16.6927 10.2764 17.1127 9.7764 17.8927 9.7764C18.8027 9.7764 19.2227 10.4764 19.2227 11.3764C19.2227 12.3764 18.6627 13.0964 17.6327 13.0964H17.3227C16.8527 13.0964 16.5527 13.3864 16.5527 13.8364C16.5527 14.2864 16.8527 14.5464 17.3227 14.5464H17.6627C18.8227 14.5464 19.4727 15.1864 19.4727 16.3764C19.4727 17.3264 18.9627 18.1264 17.9527 18.1264C16.9527 18.1264 16.5027 17.4564 16.3427 16.8264C16.2127 16.3964 15.9127 16.1564 15.4727 16.1564C14.9427 16.1564 14.5727 16.4864 14.5727 17.0264C14.5727 17.2664 14.6127 17.5164 14.6827 17.7364C15.0827 19.0064 16.4727 19.7164 17.9327 19.7164ZM10.9927 19.6464C11.5027 19.6464 11.9227 19.3364 11.9227 18.6764V17.3064H12.4127C12.9327 17.3064 13.1827 16.9664 13.1827 16.5064C13.1827 16.0664 12.9627 15.7264 12.4127 15.7264H11.9227V9.7164C11.9227 8.7764 11.3027 8.2464 10.4027 8.2464C9.4427 8.2464 8.9927 8.7364 8.6127 9.5864L6.1627 14.8864C5.9427 15.4264 5.8627 15.7764 5.8627 16.1964C5.8627 16.8564 6.3127 17.3064 6.9827 17.3064H10.0527V18.6764C10.0527 19.3964 10.5527 19.6464 10.9927 19.6464ZM10.0927 15.7664H7.5427V15.6664L10.0327 9.9664H10.0927Z"
        fillRule="evenodd"
        clipRule="evenodd"
    />
</svg>
        