<svg viewBox="0 0 27.890625 27.890625" xmlns="http://www.w3.org/2000/svg"><path d="M13.9427 27.8864C21.6427 27.8864 27.8927 21.6264 27.8927 13.9464C27.8927 6.2464 21.6427 -0.0036 13.9427 -0.0036C6.2627 -0.0036 0.0027 6.2464 0.0027 13.9464C0.0027 21.6264 6.2627 27.8864 13.9427 27.8864ZM18.0927 19.8964C16.5827 19.8964 15.1327 19.1664 14.7227 17.8564C14.6527 17.6264 14.6127 17.3764 14.6127 17.1164C14.6127 16.5664 15.0027 16.2264 15.5427 16.2264C16.0127 16.2264 16.2927 16.4564 16.4427 16.9264C16.6127 17.5664 17.0727 18.2564 18.1027 18.2564C19.1427 18.2564 19.6627 17.4164 19.6627 16.4464C19.6627 15.2264 19.0027 14.5764 17.8027 14.5764H17.4627C16.9827 14.5764 16.6627 14.2964 16.6627 13.8364C16.6627 13.3664 16.9827 13.0664 17.4627 13.0664H17.7727C18.8427 13.0664 19.4127 12.3164 19.4127 11.2964C19.4127 10.3664 18.9727 9.6564 18.0427 9.6564C17.2427 9.6564 16.8127 10.1764 16.5827 11.0064C16.4427 11.4964 16.1627 11.6764 15.6827 11.6764C15.1027 11.6764 14.8027 11.3064 14.8027 10.8464C14.8027 10.5964 14.8427 10.3464 14.9127 10.0764C15.3227 8.8364 16.5827 8.0164 18.0427 8.0164C19.8827 8.0164 21.3427 9.1164 21.3427 11.0764C21.3427 12.2464 20.7127 13.3964 19.4327 13.7364V13.7764C20.6327 13.9064 21.6727 14.7664 21.6727 16.5164C21.6727 18.6164 20.1227 19.8964 18.0927 19.8964ZM10.9227 19.8264C10.4727 19.8264 9.9427 19.5664 9.9427 18.8164V17.4164H6.7927C6.0927 17.4164 5.6327 16.9564 5.6327 16.2664C5.6327 15.8364 5.7127 15.4664 5.9327 14.9164L8.4527 9.4464C8.8427 8.5764 9.3227 8.0664 10.3127 8.0664C11.2527 8.0664 11.8827 8.6164 11.8827 9.5964V15.7764H12.3827C12.9427 15.7764 13.1827 16.1364 13.1827 16.5864C13.1827 17.0664 12.9227 17.4164 12.3827 17.4164H11.8827V18.8164C11.8827 19.4964 11.4427 19.8264 10.9227 19.8264ZM9.9827 15.8164V9.8464H9.9227L7.3727 15.7264V15.8164Z" /></svg>