
<svg
    viewBox="0 0 25.169921875 25.169921875"
    xmlns="http://www.w3.org/2000/svg"
>
    <path
        fill="inherit"
        d="M4.2937 25.1692H20.8737C23.7437 25.1692 25.1737 23.7592 25.1737 20.9492V4.2392C25.1737 1.4192 23.7437 -0.0008 20.8737 -0.0008H4.2937C1.4337 -0.0008 0.0037 1.4192 0.0037 4.2392V20.9492C0.0037 23.7592 1.4337 25.1692 4.2937 25.1692ZM4.3237 22.9692C2.9537 22.9692 2.2037 22.2392 2.2037 20.8192V4.3592C2.2037 2.9392 2.9537 2.1992 4.3237 2.1992H20.8537C22.2037 2.1992 22.9737 2.9392 22.9737 4.3592V20.8192C22.9737 22.2392 22.2037 22.9692 20.8537 22.9692ZM16.5937 18.3492C18.5637 18.3492 20.0737 17.1192 20.0737 15.0692C20.0737 13.3692 19.0537 12.5392 17.9137 12.4092V12.3692C19.1437 12.0492 19.7437 10.9392 19.7437 9.7892C19.7437 7.8992 18.3337 6.8192 16.5537 6.8192C15.1337 6.8192 13.9137 7.6192 13.5237 8.8292C13.4537 9.0892 13.4237 9.3392 13.4237 9.5692C13.4237 10.0192 13.7237 10.3792 14.2637 10.3792C14.7237 10.3792 14.9937 10.1992 15.1337 9.7192C15.3537 8.9092 15.7737 8.4092 16.5537 8.4092C17.4637 8.4092 17.8837 9.1092 17.8837 10.0092C17.8837 11.0092 17.3337 11.7292 16.3137 11.7292H15.9837C15.5137 11.7292 15.2137 12.0192 15.2137 12.4692C15.2137 12.9192 15.5337 13.1792 15.9837 13.1792H16.3237C17.4837 13.1792 18.1337 13.8192 18.1337 15.0092C18.1337 15.9592 17.6237 16.7592 16.6137 16.7592C15.6137 16.7592 15.1637 16.0892 14.9937 15.4592C14.8737 15.0292 14.5737 14.7892 14.1337 14.7892C13.6037 14.7892 13.2437 15.1192 13.2437 15.6592C13.2437 15.8992 13.2737 16.1492 13.3537 16.3692C13.7437 17.6392 15.1337 18.3492 16.5937 18.3492ZM9.6537 18.2792C10.1537 18.2792 10.5837 17.9692 10.5837 17.3092V15.9392H11.0737C11.5937 15.9392 11.8537 15.5992 11.8537 15.1392C11.8537 14.6992 11.6237 14.3592 11.0737 14.3592H10.5837V8.3492C10.5837 7.4092 9.9637 6.8792 9.0737 6.8792C8.1037 6.8792 7.6537 7.3692 7.2737 8.2192L4.8237 13.5192C4.6037 14.0592 4.5237 14.4092 4.5237 14.8292C4.5237 15.4892 4.9737 15.9392 5.6437 15.9392H8.7137V17.3092C8.7137 18.0292 9.2137 18.2792 9.6537 18.2792ZM8.7537 14.3992H6.2037V14.2992L8.6937 8.5992H8.7537Z"
        fillRule="evenodd"
        clipRule="evenodd"
    />
</svg>
        