
<svg
    viewBox="0 0 25.169921875 25.169921875"
    xmlns="http://www.w3.org/2000/svg"
>
    <path
        fill="inherit"
        d="M4.2937 25.1692H20.8737C23.7437 25.1692 25.1737 23.7592 25.1737 20.9492V4.2392C25.1737 1.4192 23.7437 -0.0008 20.8737 -0.0008H4.2937C1.4337 -0.0008 0.0037 1.4192 0.0037 4.2392V20.9492C0.0037 23.7592 1.4337 25.1692 4.2937 25.1692ZM16.7337 18.5292C15.2337 18.5292 13.7837 17.7992 13.3837 16.4892C13.3037 16.2592 13.2737 16.0092 13.2737 15.7492C13.2737 15.1992 13.6437 14.8592 14.1937 14.8592C14.6537 14.8592 14.9537 15.0892 15.0937 15.5592C15.2537 16.1992 15.7237 16.8892 16.7437 16.8892C17.7837 16.8892 18.3037 16.0492 18.3037 15.0792C18.3037 13.8592 17.6537 13.2092 16.4437 13.2092H16.1037C15.6437 13.2092 15.3137 12.9292 15.3137 12.4692C15.3137 11.9992 15.6237 11.6992 16.1037 11.6992H16.4337C17.5037 11.6992 18.0637 10.9492 18.0637 9.9292C18.0637 8.9992 17.6237 8.2892 16.6937 8.2892C15.8837 8.2892 15.4637 8.8092 15.2337 9.6392C15.0937 10.1292 14.8037 10.3092 14.3237 10.3092C13.7637 10.3092 13.4537 9.9392 13.4537 9.4792C13.4537 9.2292 13.4937 8.9792 13.5637 8.7092C13.9737 7.4692 15.2337 6.6492 16.6937 6.6492C18.5237 6.6492 19.9837 7.7492 19.9837 9.7092C19.9837 10.8792 19.3637 12.0292 18.0837 12.3692V12.4092C19.2737 12.5392 20.3137 13.3992 20.3137 15.1492C20.3137 17.2492 18.7737 18.5292 16.7337 18.5292ZM9.5737 18.4592C9.1237 18.4592 8.5837 18.1992 8.5837 17.4492V16.0492H5.4437C4.7437 16.0492 4.2837 15.5892 4.2837 14.8992C4.2837 14.4692 4.3637 14.0992 4.5837 13.5492L7.0937 8.0792C7.4937 7.2092 7.9737 6.6992 8.9737 6.6992C9.8937 6.6992 10.5237 7.2492 10.5237 8.2292V14.4092H11.0337C11.5937 14.4092 11.8437 14.7692 11.8437 15.2192C11.8437 15.6992 11.5637 16.0492 11.0337 16.0492H10.5237V17.4492C10.5237 18.1292 10.0937 18.4592 9.5737 18.4592ZM8.6237 14.4492V8.4792H8.5737L6.0137 14.3592V14.4492Z"
        fillRule="evenodd"
        clipRule="evenodd"
    />
</svg>
        