
<svg
    viewBox={0 0 27.890625 27.890625}
    xmlns="http://www.w3.org/2000/svg"
>
    <path
        fill="inherit"
        d="M13.9427 27.8864C21.6427 27.8864 27.8927 21.6464 27.8927 13.9464C27.8927 6.2464 21.6427 -0.0036 13.9427 -0.0036C6.2527 -0.0036 0.0027 6.2464 0.0027 13.9464C0.0027 21.6464 6.2527 27.8864 13.9427 27.8864ZM13.9427 25.5664C7.5227 25.5664 2.3227 20.3664 2.3227 13.9464C2.3227 7.5164 7.5227 2.3264 13.9427 2.3264C20.3727 2.3264 25.5627 7.5164 25.5627 13.9464C25.5627 20.3664 20.3727 25.5664 13.9427 25.5664ZM10.8327 19.6464C11.3327 19.6464 11.7627 19.3364 11.7627 18.6764V17.3064H12.2327C12.7727 17.3064 13.0127 16.9664 13.0127 16.5064C13.0127 16.0664 12.7927 15.7264 12.2327 15.7264H11.7627V9.7164C11.7627 8.7764 11.1427 8.2464 10.2427 8.2464C9.2827 8.2464 8.8327 8.7364 8.4527 9.5864L6.0027 14.8864C5.7727 15.4264 5.7027 15.7764 5.7027 16.1964C5.7027 16.8564 6.1527 17.3064 6.8227 17.3064H9.8727V18.6764C9.8727 19.3964 10.3927 19.6464 10.8327 19.6464ZM19.4527 19.6464C19.9627 19.6464 20.3827 19.3364 20.3827 18.6764V17.3064H20.8727C21.3927 17.3064 21.6427 16.9664 21.6427 16.5064C21.6427 16.0664 21.4227 15.7264 20.8727 15.7264H20.3827V9.7164C20.3827 8.7764 19.7727 8.2464 18.8627 8.2464C17.9127 8.2464 17.4627 8.7364 17.0727 9.5864L14.6327 14.8864C14.3927 15.4264 14.3327 15.7764 14.3327 16.1964C14.3327 16.8564 14.7827 17.3064 15.4527 17.3064H18.5127V18.6764C18.5127 19.3964 19.0127 19.6464 19.4527 19.6464ZM9.9127 15.7664H7.3827V15.6664L9.8727 9.9664H9.9127ZM18.5527 15.7664H16.0127V15.6664L18.5027 9.9664H18.5527Z"
        fillRule="evenodd"
        clipRule="evenodd"
    />
</svg>
        