
<svg
    viewBox={0 0 27.890625 30.544813437289537}
    xmlns="http://www.w3.org/2000/svg"
>
    <path
        fill="inherit"
        d="M13.9427 30.5406C21.6427 30.5406 27.8927 24.3006 27.8927 16.6006C27.8927 9.7806 22.9827 4.1206 16.5827 2.9106V0.9706C16.5827 -0.0094 15.9127 -0.2594 15.1527 0.2706L10.8027 3.3406C10.1727 3.7906 10.1827 4.4406 10.8027 4.8806L15.1627 7.9406C15.9127 8.4606 16.5827 8.2206 16.5827 7.2506V5.2806C21.7227 6.4706 25.5627 11.0506 25.5627 16.6006C25.5627 23.0206 20.3727 28.2206 13.9427 28.2206C7.5227 28.2206 2.3227 23.0206 2.3227 16.6006C2.3227 12.7006 4.2427 9.2706 7.1327 7.1906C7.6927 6.7706 7.8727 6.1306 7.5327 5.5506C7.1927 5.0106 6.4127 4.8406 5.8127 5.3106C2.2827 7.8506 0.0027 11.9106 0.0027 16.6006C0.0027 24.3006 6.2527 30.5406 13.9427 30.5406ZM10.8027 22.2206C11.2827 22.2206 11.7027 21.9406 11.7027 21.2906V20.0306H12.2527C12.7827 20.0306 13.0127 19.6906 13.0127 19.2806C13.0127 18.8306 12.7527 18.5106 12.2527 18.5106H11.7027V12.9106C11.7027 12.0106 11.1027 11.5306 10.2127 11.5306C9.3227 11.5306 8.8727 12.0106 8.4627 12.8006C7.6527 14.2106 6.4627 16.3906 5.8427 17.6906C5.6627 18.1206 5.4927 18.5506 5.4927 19.0206C5.4927 19.6206 5.9327 20.0306 6.5727 20.0306H9.9127V21.2906C9.9127 21.9306 10.3327 22.2206 10.8027 22.2206ZM17.9527 22.3306C20.0827 22.3306 21.4127 20.7406 21.4127 18.6106C21.4127 16.7806 20.3727 15.2006 18.5627 15.2006C17.6527 15.2006 16.9027 15.6106 16.5127 16.3306H16.4627L16.7027 13.2106H20.1927C20.6427 13.2106 20.9427 12.9106 20.9427 12.4406C20.9427 11.9806 20.6427 11.6806 20.1927 11.6806H16.2127C15.5027 11.6806 15.1727 12.0506 15.1327 12.7706L14.8327 16.7506C14.7927 17.3506 15.1027 17.8006 15.7127 17.8006C16.1627 17.8006 16.3527 17.6406 16.6227 17.3106C16.9527 16.8706 17.4227 16.6006 17.9627 16.6006C19.0327 16.6006 19.5827 17.5706 19.5827 18.6506C19.5827 19.8306 18.9927 20.7806 17.9327 20.7806C17.1327 20.7806 16.5827 20.2606 16.3127 19.5506C16.1227 19.1706 15.8427 18.9806 15.4927 18.9806C15.0127 18.9806 14.7127 19.2806 14.7127 19.7706C14.7127 19.9206 14.7227 20.0906 14.7827 20.2506C15.1227 21.5506 16.6227 22.3306 17.9527 22.3306ZM9.9427 18.5706H7.1227V18.4706C7.8627 16.8206 8.9927 14.7106 9.8827 13.1306H9.9427Z"
        fillRule="evenodd"
        clipRule="evenodd"
    />
</svg>
        