
<svg
    viewBox={0 0 27.890625 27.890625}
    xmlns="http://www.w3.org/2000/svg"
>
    <path
        fill="inherit"
        d="M13.9427 27.8864C21.6427 27.8864 27.8927 21.6464 27.8927 13.9464C27.8927 6.2464 21.6427 -0.0036 13.9427 -0.0036C6.2527 -0.0036 0.0027 6.2464 0.0027 13.9464C0.0027 21.6464 6.2527 27.8864 13.9427 27.8864ZM13.9427 25.5664C7.5227 25.5664 2.3227 20.3664 2.3227 13.9464C2.3227 7.5164 7.5227 2.3264 13.9427 2.3264C20.3727 2.3264 25.5627 7.5164 25.5627 13.9464C25.5627 20.3664 20.3727 25.5664 13.9427 25.5664ZM11.0727 19.6464C11.5927 19.6464 12.0127 19.3364 12.0127 18.6764V17.3064H12.4927C13.0327 17.3064 13.2727 16.9664 13.2727 16.5064C13.2727 16.0664 13.0427 15.7264 12.4927 15.7264H12.0127V9.7164C12.0127 8.7764 11.3927 8.2464 10.5027 8.2464C9.5427 8.2464 9.0927 8.7364 8.7127 9.5864L6.2627 14.8864C6.0327 15.4264 5.9427 15.7764 5.9427 16.1964C5.9427 16.8564 6.4127 17.3064 7.0727 17.3064H10.1327V18.6764C10.1327 19.3964 10.6527 19.6464 11.0727 19.6464ZM18.0327 19.7564C20.1627 19.7564 21.3327 17.9664 21.3327 15.8064C21.3327 13.9164 20.4227 12.1964 18.6627 12.1964C17.8727 12.1964 17.1127 12.5664 16.7727 13.3564H16.7027L16.9227 10.0364H20.1427C20.6127 10.0364 20.9027 9.7064 20.9027 9.2264C20.9027 8.7764 20.6027 8.4264 20.1427 8.4264H16.3827C15.6727 8.4264 15.3527 8.8864 15.3027 9.5964L15.0827 13.3464C15.0627 13.5464 15.0527 13.7664 15.0527 13.9464C15.0527 14.4664 15.3227 14.9264 15.9527 14.9264C16.3227 14.9264 16.5427 14.7764 16.8327 14.4064C17.1327 13.9564 17.4827 13.6264 18.0327 13.6264C19.0427 13.6264 19.4327 14.8464 19.4327 15.8564C19.4327 16.9964 19.0127 18.1564 18.0027 18.1564C17.2427 18.1564 16.8027 17.6064 16.5527 16.8564C16.4027 16.4164 16.0927 16.2164 15.7327 16.2164C15.2327 16.2164 14.9127 16.5264 14.9127 17.0364C14.9127 17.3464 15.0027 17.6464 15.1027 17.9264C15.5827 19.0264 16.8027 19.7564 18.0327 19.7564ZM10.1727 15.7664H7.6327V15.6664L10.1127 9.9664H10.1727Z"
        fillRule="evenodd"
        clipRule="evenodd"
    />
</svg>
        