
<svg
    viewBox={0 0 27.890625 27.890625}
    xmlns="http://www.w3.org/2000/svg"
>
    <path
        fill="inherit"
        d="M13.9427 27.8864C21.6427 27.8864 27.8927 21.6264 27.8927 13.9464C27.8927 6.2464 21.6427 -0.0036 13.9427 -0.0036C6.2627 -0.0036 0.0027 6.2464 0.0027 13.9464C0.0027 21.6264 6.2627 27.8864 13.9427 27.8864ZM11.0027 19.8264C10.5727 19.8264 10.0227 19.5664 10.0227 18.8164V17.4164H6.8727C6.1927 17.4164 5.7127 16.9564 5.7127 16.2664C5.7127 15.8364 5.7927 15.4664 6.0427 14.9164L8.5627 9.4464C8.9527 8.5764 9.4227 8.0664 10.4027 8.0664C11.3327 8.0664 11.9727 8.6164 11.9727 9.5964V15.7764H12.4727C13.0427 15.7764 13.2727 16.1364 13.2727 16.5864C13.2727 17.0664 13.0327 17.4164 12.4727 17.4164H11.9727V18.8164C11.9727 19.4964 11.5427 19.8264 11.0027 19.8264ZM18.1827 19.9364C16.9227 19.9364 15.6727 19.1964 15.1627 18.0464C15.0527 17.7764 14.9727 17.4564 14.9727 17.1264C14.9727 16.6064 15.3027 16.2864 15.8227 16.2864C16.1827 16.2864 16.5127 16.4864 16.6627 16.9364C16.9227 17.7164 17.3727 18.2764 18.1527 18.2764C19.1927 18.2764 19.6227 17.0864 19.6227 15.9164C19.6227 14.8764 19.2227 13.6264 18.1827 13.6264C17.6227 13.6264 17.2627 13.9564 16.9527 14.4264C16.6527 14.8064 16.4327 14.9564 16.0527 14.9564C15.3927 14.9564 15.1027 14.4764 15.1027 13.9464C15.1027 13.7564 15.1227 13.5364 15.1327 13.3164L15.3627 9.4564C15.4227 8.7264 15.7527 8.2464 16.4927 8.2464H20.3527C20.8327 8.2464 21.1527 8.6164 21.1527 9.0764C21.1527 9.5864 20.8527 9.9164 20.3527 9.9164H17.0527L16.8327 13.3264H16.9027C17.2527 12.5264 18.0227 12.1364 18.8427 12.1364C20.6627 12.1364 21.5927 13.9164 21.5927 15.8564C21.5927 18.0864 20.3827 19.9364 18.1827 19.9364ZM10.0627 15.8164V9.8464H10.0127L7.4527 15.7264V15.8164Z"
        fillRule="evenodd"
        clipRule="evenodd"
    />
</svg>
        