
<svg
    viewBox="0 0 25.169921875 25.169921875"
    xmlns="http://www.w3.org/2000/svg"
>
    <path
        fill="inherit"
        d="M4.2937 25.1692H20.8737C23.7437 25.1692 25.1737 23.7592 25.1737 20.9492V4.2392C25.1737 1.4192 23.7437 -0.0008 20.8737 -0.0008H4.2937C1.4337 -0.0008 0.0037 1.4192 0.0037 4.2392V20.9492C0.0037 23.7592 1.4337 25.1692 4.2937 25.1692ZM9.6637 18.4592C9.2137 18.4592 8.6637 18.1992 8.6637 17.4492V16.0492H5.5237C4.8437 16.0492 4.3637 15.5892 4.3637 14.8992C4.3637 14.4692 4.4437 14.0992 4.6937 13.5492L7.2037 8.0792C7.6037 7.2092 8.0637 6.6992 9.0537 6.6992C9.9837 6.6992 10.6237 7.2492 10.6237 8.2292V14.4092H11.1137C11.6937 14.4092 11.9237 14.7692 11.9237 15.2192C11.9237 15.6992 11.6737 16.0492 11.1137 16.0492H10.6237V17.4492C10.6237 18.1292 10.1837 18.4592 9.6637 18.4592ZM16.8337 18.5692C15.5737 18.5692 14.3137 17.8292 13.8037 16.6792C13.7037 16.4092 13.6137 16.0892 13.6137 15.7592C13.6137 15.2392 13.9437 14.9192 14.4637 14.9192C14.8337 14.9192 15.1637 15.1192 15.3137 15.5692C15.5837 16.3492 16.0237 16.9092 16.8037 16.9092C17.8437 16.9092 18.2637 15.7192 18.2637 14.5492C18.2637 13.5092 17.8737 12.2592 16.8337 12.2592C16.2737 12.2592 15.9237 12.5892 15.6037 13.0592C15.3037 13.4392 15.0837 13.5892 14.6937 13.5892C14.0437 13.5892 13.7537 13.1092 13.7537 12.5792C13.7537 12.3892 13.7637 12.1692 13.7837 11.9492L14.0137 8.0892C14.0637 7.3592 14.3937 6.8792 15.1437 6.8792H19.0037C19.4837 6.8792 19.7937 7.2492 19.7937 7.7092C19.7937 8.2192 19.4937 8.5492 19.0037 8.5492H15.7137L15.4737 11.9592H15.5437C15.9037 11.1592 16.6637 10.7692 17.5037 10.7692C19.3137 10.7692 20.2437 12.5492 20.2437 14.4892C20.2437 16.7192 19.0337 18.5692 16.8337 18.5692ZM8.7137 14.4492V8.4792H8.6537L6.1137 14.3592V14.4492Z"
        fillRule="evenodd"
        clipRule="evenodd"
    />
</svg>
        