
<svg
    viewBox={0 0 27.890625 27.890625}
    xmlns="http://www.w3.org/2000/svg"
>
    <path
        fill="inherit"
        d="M13.9427 27.8864C21.6427 27.8864 27.8927 21.6464 27.8927 13.9464C27.8927 6.2464 21.6427 -0.0036 13.9427 -0.0036C6.2527 -0.0036 0.0027 6.2464 0.0027 13.9464C0.0027 21.6464 6.2527 27.8864 13.9427 27.8864ZM13.9427 25.5664C7.5227 25.5664 2.3227 20.3664 2.3227 13.9464C2.3227 7.5164 7.5227 2.3264 13.9427 2.3264C20.3727 2.3264 25.5627 7.5164 25.5627 13.9464C25.5627 20.3664 20.3727 25.5664 13.9427 25.5664ZM18.0327 19.7564C20.1127 19.7564 21.3127 18.0064 21.3127 15.8564C21.3127 14.0164 20.4227 12.2664 18.6027 12.2664C17.5027 12.2664 16.6627 13.0064 16.3527 14.1764H16.2927V14.0264C16.2927 12.5064 16.4927 9.7664 18.0027 9.7664C18.6327 9.7664 19.0427 10.1964 19.2727 10.7764C19.4727 11.1964 19.7327 11.3864 20.1827 11.3864C20.7227 11.3864 20.9627 11.0164 20.9627 10.5664C20.9627 10.4164 20.9427 10.2564 20.8927 10.0764C20.6027 8.8964 19.4327 8.1664 18.0427 8.1664C15.2427 8.1664 14.4327 11.3064 14.4327 14.0864C14.4327 16.6664 15.2627 19.7564 18.0327 19.7564ZM10.8127 19.6464C11.3327 19.6464 11.7627 19.3364 11.7627 18.6764V17.3064H12.2327C12.7727 17.3064 13.0127 16.9664 13.0127 16.5064C13.0127 16.0664 12.7827 15.7264 12.2327 15.7264H11.7627V9.7164C11.7627 8.7764 11.1327 8.2464 10.2427 8.2464C9.2827 8.2464 8.8327 8.7364 8.4527 9.5864L6.0027 14.8864C5.7727 15.4264 5.6827 15.7764 5.6827 16.1964C5.6827 16.8564 6.1527 17.3064 6.8127 17.3064H9.8727V18.6764C9.8727 19.3964 10.3927 19.6464 10.8127 19.6464ZM9.9127 15.7664H7.3727V15.6664L9.8527 9.9664H9.9127ZM18.0027 18.1564C16.9627 18.1564 16.5527 16.8664 16.5527 15.8864C16.5527 14.8864 17.0227 13.7564 18.0027 13.7564C19.0127 13.7564 19.4427 14.9264 19.4127 15.9364C19.4127 16.9364 18.9627 18.1564 18.0027 18.1564Z"
        fillRule="evenodd"
        clipRule="evenodd"
    />
</svg>
        