
<svg
    viewBox="0 0 27.890625 27.890625"
    xmlns="http://www.w3.org/2000/svg"
>
    <path
        fill="inherit"
        d="M13.9427 27.8864C21.6427 27.8864 27.8927 21.6264 27.8927 13.9464C27.8927 6.2464 21.6427 -0.0036 13.9427 -0.0036C6.2627 -0.0036 0.0027 6.2464 0.0027 13.9464C0.0027 21.6264 6.2627 27.8864 13.9427 27.8864ZM18.1927 19.9364C15.3227 19.9364 14.4827 16.7464 14.4827 14.0864C14.4827 11.2264 15.3127 7.9864 18.2127 7.9864C19.6327 7.9864 20.8527 8.7364 21.1327 9.9564C21.2027 10.1264 21.2227 10.3064 21.2227 10.4564C21.2227 10.9264 20.9727 11.3064 20.4127 11.3064C19.9327 11.3064 19.6727 11.1164 19.4727 10.6764C19.2327 10.0864 18.8127 9.6364 18.1727 9.6364C16.5927 9.6364 16.4027 12.4664 16.4027 14.0264V14.1764H16.4627C16.7927 12.9764 17.6527 12.2064 18.7827 12.2064C20.6627 12.2064 21.5727 14.0164 21.5727 15.9164C21.5727 18.1264 20.3427 19.9364 18.1927 19.9364ZM10.7427 19.8264C10.3127 19.8264 9.7627 19.5664 9.7627 18.8164V17.4164H6.6027C5.9327 17.4164 5.4527 16.9564 5.4527 16.2664C5.4527 15.8364 5.5327 15.4664 5.7727 14.9164L8.2827 9.4464C8.6827 8.5764 9.1627 8.0664 10.1427 8.0664C11.0727 8.0664 11.7127 8.6164 11.7127 9.5964V15.7764H12.2127C12.7727 15.7764 13.0127 16.1364 13.0127 16.5864C13.0127 17.0664 12.7527 17.4164 12.2127 17.4164H11.7127V18.8164C11.7127 19.4964 11.2827 19.8264 10.7427 19.8264ZM9.8027 15.8164V9.8464H9.7527L7.1927 15.7264V15.8164ZM18.1727 18.2764C19.1527 18.2764 19.6027 17.0364 19.6027 16.0064C19.6327 14.9664 19.2127 13.7564 18.1727 13.7564C17.1627 13.7564 16.6827 14.9164 16.6827 15.9364C16.6827 16.9564 17.0927 18.2764 18.1727 18.2764Z"
        fillRule="evenodd"
        clipRule="evenodd"
    />
</svg>
        