
<svg
    viewBox={0 0 25.169921875 25.169921875}
    xmlns="http://www.w3.org/2000/svg"
>
    <path
        fill="inherit"
        d="M4.2937 25.1692H20.8737C23.7437 25.1692 25.1737 23.7592 25.1737 20.9492V4.2392C25.1737 1.4192 23.7437 -0.0008 20.8737 -0.0008H4.2937C1.4337 -0.0008 0.0037 1.4192 0.0037 4.2392V20.9492C0.0037 23.7592 1.4337 25.1692 4.2937 25.1692ZM16.8437 18.5692C13.9737 18.5692 13.1237 15.3792 13.1237 12.7192C13.1237 9.8592 13.9737 6.6192 16.8737 6.6192C18.2837 6.6192 19.4937 7.3692 19.7937 8.5892C19.8537 8.7592 19.8637 8.9392 19.8637 9.0892C19.8637 9.5592 19.6237 9.9392 19.0537 9.9392C18.5937 9.9392 18.3237 9.7492 18.1137 9.3092C17.8837 8.7192 17.4637 8.2692 16.8137 8.2692C15.2437 8.2692 15.0537 11.0992 15.0537 12.6592V12.8092H15.1037C15.4337 11.6092 16.2937 10.8392 17.4337 10.8392C19.3037 10.8392 20.2237 12.6492 20.2237 14.5492C20.2237 16.7592 19.0037 18.5692 16.8437 18.5692ZM9.4037 18.4592C8.9537 18.4592 8.4037 18.1992 8.4037 17.4492V16.0492H5.2637C4.5837 16.0492 4.1037 15.5892 4.1037 14.8992C4.1037 14.4692 4.1837 14.0992 4.4137 13.5492L6.9337 8.0792C7.3237 7.2092 7.8037 6.6992 8.7937 6.6992C9.7237 6.6992 10.3637 7.2492 10.3637 8.2292V14.4092H10.8537C11.4137 14.4092 11.6637 14.7692 11.6637 15.2192C11.6637 15.6992 11.4037 16.0492 10.8537 16.0492H10.3637V17.4492C10.3637 18.1292 9.9237 18.4592 9.4037 18.4592ZM8.4537 14.4492V8.4792H8.3937L5.8537 14.3592V14.4492ZM16.8137 16.9092C17.8037 16.9092 18.2537 15.6692 18.2537 14.6392C18.2837 13.5992 17.8537 12.3892 16.8137 12.3892C15.8037 12.3892 15.3237 13.5492 15.3237 14.5692C15.3237 15.5892 15.7537 16.9092 16.8137 16.9092Z"
        fillRule="evenodd"
        clipRule="evenodd"
    />
</svg>
        