
<svg
    viewBox={0 0 25.169921875 25.169921875}
    xmlns="http://www.w3.org/2000/svg"
>
    <path
        fill="inherit"
        d="M4.2937 25.1692H20.8737C23.7437 25.1692 25.1737 23.7592 25.1737 20.9492V4.2392C25.1737 1.4192 23.7437 -0.0008 20.8737 -0.0008H4.2937C1.4337 -0.0008 0.0037 1.4192 0.0037 4.2392V20.9492C0.0037 23.7592 1.4337 25.1692 4.2937 25.1692ZM4.3237 22.9692C2.9537 22.9692 2.2037 22.2392 2.2037 20.8192V4.3592C2.2037 2.9392 2.9537 2.1992 4.3237 2.1992H20.8537C22.2037 2.1992 22.9737 2.9392 22.9737 4.3592V20.8192C22.9737 22.2392 22.2037 22.9692 20.8537 22.9692ZM16.6937 18.3892C18.7837 18.3892 19.9737 16.6392 19.9737 14.4892C19.9737 12.6492 19.0837 10.8992 17.2637 10.8992C16.1637 10.8992 15.3237 11.6392 15.0137 12.8092H14.9537V12.6592C14.9537 11.1392 15.1437 8.3992 16.6637 8.3992C17.2937 8.3992 17.7037 8.8292 17.9337 9.4092C18.1337 9.8292 18.4037 10.0192 18.8437 10.0192C19.3837 10.0192 19.6237 9.6492 19.6237 9.1992C19.6237 9.0492 19.6037 8.8892 19.5637 8.7092C19.2637 7.5292 18.0837 6.7992 16.7237 6.7992C13.9137 6.7992 13.0937 9.9392 13.0937 12.7192C13.0937 15.2992 13.9137 18.3892 16.6937 18.3892ZM9.4837 18.2792C9.9937 18.2792 10.4137 17.9692 10.4137 17.3092V15.9392H10.8937C11.4337 15.9392 11.6737 15.5992 11.6737 15.1392C11.6737 14.6992 11.4437 14.3592 10.8937 14.3592H10.4137V8.3492C10.4137 7.4092 9.7937 6.8792 8.9037 6.8792C7.9437 6.8792 7.4937 7.3692 7.1137 8.2192L4.6637 13.5192C4.4337 14.0592 4.3437 14.4092 4.3437 14.8292C4.3437 15.4892 4.8137 15.9392 5.4837 15.9392H8.5337V17.3092C8.5337 18.0292 9.0537 18.2792 9.4837 18.2792ZM8.5737 14.3992H6.0437V14.2992L8.5137 8.5992H8.5737ZM16.6637 16.7892C15.6437 16.7892 15.2137 15.4992 15.2137 14.5192C15.2137 13.5192 15.6837 12.3892 16.6637 12.3892C17.6737 12.3892 18.1037 13.5592 18.0737 14.5692C18.0737 15.5692 17.6237 16.7892 16.6637 16.7892Z"
        fillRule="evenodd"
        clipRule="evenodd"
    />
</svg>
        