
<svg
    viewBox={0 0 27.890625 27.890625}
    xmlns="http://www.w3.org/2000/svg"
>
    <path
        fill="inherit"
        d="M13.9427 27.8864C21.6427 27.8864 27.8927 21.6264 27.8927 13.9464C27.8927 6.2464 21.6427 -0.0036 13.9427 -0.0036C6.2627 -0.0036 0.0027 6.2464 0.0027 13.9464C0.0027 21.6264 6.2627 27.8864 13.9427 27.8864ZM11.4527 19.8264C11.0027 19.8264 10.4727 19.5664 10.4727 18.8164V17.4164H7.3327C6.6327 17.4164 6.1627 16.9564 6.1627 16.2664C6.1627 15.8364 6.2527 15.4664 6.4827 14.9164L8.9827 9.4464C9.3827 8.5764 9.8527 8.0664 10.8427 8.0664C11.7827 8.0664 12.4127 8.6164 12.4127 9.5964V15.7764H12.9227C13.4927 15.7764 13.7227 16.1364 13.7227 16.5864C13.7227 17.0664 13.4627 17.4164 12.9227 17.4164H12.4127V18.8164C12.4127 19.4964 11.9727 19.8264 11.4527 19.8264ZM16.8527 19.8364C16.1827 19.8364 15.9327 19.3764 15.9327 18.9664C15.9327 18.6164 15.9827 18.4464 16.0927 18.1264L19.2227 10.0464V9.9264H15.6027C15.1227 9.9264 14.7827 9.5664 14.7827 9.0764C14.7827 8.5964 15.1227 8.2464 15.6027 8.2464H20.1527C20.7827 8.2464 21.2827 8.6864 21.2827 9.3364C21.2827 9.7464 21.1827 10.0864 21.0227 10.5264L17.8127 19.1164C17.6127 19.6364 17.3927 19.8364 16.8527 19.8364ZM10.5127 15.8164V9.8464H10.4627L7.9027 15.7264V15.8164Z"
        fillRule="evenodd"
        clipRule="evenodd"
    />
</svg>
        