<svg viewBox="0 0 27.890625 27.890625" xmlns="http://www.w3.org/2000/svg"><path d="M13.9427 27.8864C21.6427 27.8864 27.8927 21.6464 27.8927 13.9464C27.8927 6.2464 21.6427 -0.0036 13.9427 -0.0036C6.2527 -0.0036 0.0027 6.2464 0.0027 13.9464C0.0027 21.6464 6.2527 27.8864 13.9427 27.8864ZM13.9427 25.5664C7.5227 25.5664 2.3227 20.3664 2.3227 13.9464C2.3227 7.5164 7.5227 2.3264 13.9427 2.3264C20.3727 2.3264 25.5627 7.5164 25.5627 13.9464C25.5627 20.3664 20.3727 25.5664 13.9427 25.5664ZM11.5127 19.6464C12.0127 19.6464 12.4427 19.3364 12.4427 18.6764V17.3064H12.9327C13.4527 17.3064 13.7127 16.9664 13.7127 16.5064C13.7127 16.0664 13.4827 15.7264 12.9327 15.7264H12.4427V9.7164C12.4427 8.7764 11.8227 8.2464 10.9227 8.2464C9.9627 8.2464 9.5127 8.7364 9.1327 9.5864L6.6827 14.8864C6.4627 15.4264 6.3827 15.7764 6.3827 16.1964C6.3827 16.8564 6.8327 17.3064 7.5027 17.3064H10.5727V18.6764C10.5727 19.3964 11.0727 19.6464 11.5127 19.6464ZM16.7527 19.6564C17.2527 19.6564 17.4727 19.4564 17.6627 18.9664L20.7827 10.6264C20.9327 10.1964 21.0427 9.8664 21.0427 9.4764C21.0427 8.8464 20.5527 8.4264 19.9427 8.4264H15.5327C15.0627 8.4264 14.7427 8.7664 14.7427 9.2264C14.7427 9.6964 15.0627 10.0364 15.5327 10.0364H19.0427V10.1564L16.0127 18.0064C15.9027 18.3064 15.8427 18.4864 15.8427 18.8164C15.8427 19.2064 16.0927 19.6564 16.7527 19.6564ZM10.6127 15.7664H8.0627V15.6664L10.5527 9.9664H10.6127Z" /></svg>