
<svg
    viewBox="0 0 25.169921875 25.169921875"
    xmlns="http://www.w3.org/2000/svg"
>
    <path
        fill="inherit"
        d="M4.2937 25.1692H20.8737C23.7437 25.1692 25.1737 23.7592 25.1737 20.9492V4.2392C25.1737 1.4192 23.7437 -0.0008 20.8737 -0.0008H4.2937C1.4337 -0.0008 0.0037 1.4192 0.0037 4.2392V20.9492C0.0037 23.7592 1.4337 25.1692 4.2937 25.1692ZM10.1037 18.4592C9.6537 18.4592 9.1237 18.1992 9.1237 17.4492V16.0492H5.9737C5.2737 16.0492 4.8137 15.5892 4.8137 14.8992C4.8137 14.4692 4.8937 14.0992 5.1237 13.5492L7.6337 8.0792C8.0237 7.2092 8.5037 6.6992 9.5037 6.6992C10.4337 6.6992 11.0637 7.2492 11.0637 8.2292V14.4092H11.5637C12.1437 14.4092 12.3737 14.7692 12.3737 15.2192C12.3737 15.6992 12.1137 16.0492 11.5637 16.0492H11.0637V17.4492C11.0637 18.1292 10.6237 18.4592 10.1037 18.4592ZM15.5037 18.4692C14.8437 18.4692 14.5737 18.0092 14.5737 17.5992C14.5737 17.2492 14.6337 17.0792 14.7337 16.7592L17.8737 8.6792V8.5592H14.2437C13.7637 8.5592 13.4237 8.1992 13.4237 7.7092C13.4237 7.2292 13.7637 6.8792 14.2437 6.8792H18.8037C19.4437 6.8792 19.9337 7.3192 19.9337 7.9692C19.9337 8.3792 19.8237 8.7192 19.6737 9.1592L16.4637 17.7492C16.2537 18.2692 16.0337 18.4692 15.5037 18.4692ZM9.1637 14.4492V8.4792H9.1037L6.5537 14.3592V14.4492Z"
        fillRule="evenodd"
        clipRule="evenodd"
    />
</svg>
        