
<svg
    viewBox={0 0 27.890625 27.890625}
    xmlns="http://www.w3.org/2000/svg"
>
    <path
        fill="inherit"
        d="M13.9427 27.8864C21.6427 27.8864 27.8927 21.6464 27.8927 13.9464C27.8927 6.2464 21.6427 -0.0036 13.9427 -0.0036C6.2527 -0.0036 0.0027 6.2464 0.0027 13.9464C0.0027 21.6464 6.2527 27.8864 13.9427 27.8864ZM13.9427 25.5664C7.5227 25.5664 2.3227 20.3664 2.3227 13.9464C2.3227 7.5164 7.5227 2.3264 13.9427 2.3264C20.3727 2.3264 25.5627 7.5164 25.5627 13.9464C25.5627 20.3664 20.3727 25.5664 13.9427 25.5664ZM17.9327 19.7164C20.0927 19.7164 21.4827 18.3564 21.4827 16.4864C21.4827 14.9964 20.5327 13.9164 19.4427 13.6764V13.6264C20.3527 13.3464 21.1827 12.4564 21.1827 11.1564C21.1827 9.3964 19.8627 8.1864 17.9327 8.1864C16.2427 8.1864 14.7127 9.2264 14.7127 11.1464C14.7127 12.5364 15.5827 13.3564 16.4627 13.6264V13.6764C15.2827 13.9364 14.3927 15.0164 14.3927 16.4864C14.3927 18.5164 15.9327 19.7164 17.9327 19.7164ZM10.8327 19.6464C11.3327 19.6464 11.7627 19.3364 11.7627 18.6764V17.3064H12.2527C12.7727 17.3064 13.0127 16.9664 13.0127 16.5064C13.0127 16.0664 12.7927 15.7264 12.2527 15.7264H11.7627V9.7164C11.7627 8.7764 11.1427 8.2464 10.2427 8.2464C9.2827 8.2464 8.8327 8.7364 8.4527 9.5864L6.0027 14.8864C5.7727 15.4264 5.7027 15.7764 5.7027 16.1964C5.7027 16.8564 6.1527 17.3064 6.8227 17.3064H9.8727V18.6764C9.8727 19.3964 10.3927 19.6464 10.8327 19.6464ZM17.9327 13.0064C17.0627 13.0064 16.6127 12.1564 16.6127 11.3464C16.6127 10.4764 17.0927 9.6564 17.9327 9.6564C18.8227 9.6564 19.2527 10.4764 19.2527 11.3464C19.2527 12.2464 18.8027 13.0064 17.9327 13.0064ZM9.9127 15.7664H7.3827V15.6664L9.8727 9.9664H9.9127ZM17.9327 18.2364C16.9427 18.2364 16.4427 17.3464 16.4427 16.3364C16.4427 15.3564 16.9527 14.4764 17.9327 14.4764C18.9127 14.4764 19.4327 15.2964 19.4327 16.3364C19.4327 17.3464 18.9327 18.2364 17.9327 18.2364Z"
        fillRule="evenodd"
        clipRule="evenodd"
    />
</svg>
        