
<svg
    viewBox="0 0 27.890625 27.890625"
    xmlns="http://www.w3.org/2000/svg"
>
    <path
        fill="inherit"
        d="M13.9427 27.8864C21.6427 27.8864 27.8927 21.6264 27.8927 13.9464C27.8927 6.2464 21.6427 -0.0036 13.9427 -0.0036C6.2627 -0.0036 0.0027 6.2464 0.0027 13.9464C0.0027 21.6264 6.2627 27.8864 13.9427 27.8864ZM18.0927 19.8964C16.0227 19.8964 14.4327 18.6664 14.4327 16.5664C14.4327 15.0364 15.3527 13.9364 16.5727 13.6564V13.6164C15.6727 13.3464 14.7527 12.4964 14.7527 11.0564C14.7527 9.0764 16.3427 8.0164 18.0927 8.0164C20.0827 8.0164 21.4327 9.2464 21.4327 11.0764C21.4327 12.4164 20.5927 13.3264 19.6427 13.6164V13.6564C20.7627 13.9164 21.7527 15.0264 21.7527 16.5664C21.7527 18.4964 20.3127 19.8964 18.0927 19.8964ZM10.7427 19.8264C10.2927 19.8264 9.7727 19.5664 9.7727 18.8164V17.4164H6.6127C5.9327 17.4164 5.4527 16.9564 5.4527 16.2664C5.4527 15.8364 5.5327 15.4664 5.7727 14.9164L8.2827 9.4464C8.6827 8.5764 9.1427 8.0664 10.1427 8.0664C11.0727 8.0664 11.7127 8.6164 11.7127 9.5964V15.7764H12.2227C12.7827 15.7764 13.0127 16.1364 13.0127 16.5864C13.0127 17.0664 12.7527 17.4164 12.2227 17.4164H11.7127V18.8164C11.7127 19.4964 11.2827 19.8264 10.7427 19.8264ZM18.0927 12.9764C18.9727 12.9764 19.4427 12.1964 19.4427 11.2664C19.4427 10.3664 19.0027 9.5264 18.0927 9.5264C17.2127 9.5264 16.7327 10.3664 16.7327 11.2664C16.7327 12.0964 17.1827 12.9764 18.0927 12.9764ZM9.8127 15.8164V9.8464H9.7627L7.2027 15.7264V15.8164ZM18.0927 18.3564C19.1127 18.3564 19.6227 17.4464 19.6227 16.4064C19.6227 15.3364 19.0827 14.4964 18.0927 14.4964C17.0727 14.4964 16.5527 15.3964 16.5527 16.4064C16.5527 17.4464 17.0627 18.3564 18.0927 18.3564Z"
        fillRule="evenodd"
        clipRule="evenodd"
    />
</svg>
        