<svg viewBox="0 0 25.169921875 25.169921875" xmlns="http://www.w3.org/2000/svg"><path d="M4.2937 25.1692H20.8737C23.7437 25.1692 25.1737 23.7592 25.1737 20.9492V4.2392C25.1737 1.4192 23.7437 -0.0008 20.8737 -0.0008H4.2937C1.4337 -0.0008 0.0037 1.4192 0.0037 4.2392V20.9492C0.0037 23.7592 1.4337 25.1692 4.2937 25.1692ZM16.7337 18.5292C14.6737 18.5292 13.0837 17.2992 13.0837 15.1992C13.0837 13.6692 14.0137 12.5692 15.2137 12.2892V12.2492C14.3137 11.9792 13.3937 11.1292 13.3937 9.6892C13.3937 7.7092 14.9837 6.6492 16.7337 6.6492C18.7337 6.6492 20.0837 7.8792 20.0837 9.7092C20.0837 11.0492 19.2337 11.9592 18.2937 12.2492V12.2892C19.4137 12.5492 20.3937 13.6592 20.3937 15.1992C20.3937 17.1292 18.9637 18.5292 16.7337 18.5292ZM9.3937 18.4592C8.9437 18.4592 8.4237 18.1992 8.4237 17.4492V16.0492H5.2637C4.5837 16.0492 4.1037 15.5892 4.1037 14.8992C4.1037 14.4692 4.1937 14.0992 4.4137 13.5492L6.9337 8.0792C7.3237 7.2092 7.7937 6.6992 8.7937 6.6992C9.7237 6.6992 10.3637 7.2492 10.3637 8.2292V14.4092H10.8737C11.4337 14.4092 11.6637 14.7692 11.6637 15.2192C11.6637 15.6992 11.4037 16.0492 10.8737 16.0492H10.3637V17.4492C10.3637 18.1292 9.9237 18.4592 9.3937 18.4592ZM16.7337 11.6092C17.6237 11.6092 18.0837 10.8292 18.0837 9.8992C18.0837 8.9992 17.6537 8.1592 16.7337 8.1592C15.8637 8.1592 15.3937 8.9992 15.3937 9.8992C15.3937 10.7292 15.8337 11.6092 16.7337 11.6092ZM8.4637 14.4492V8.4792H8.4037L5.8537 14.3592V14.4492ZM16.7337 16.9892C17.7737 16.9892 18.2837 16.0792 18.2837 15.0392C18.2837 13.9692 17.7337 13.1292 16.7337 13.1292C15.7237 13.1292 15.2037 14.0292 15.2037 15.0392C15.2037 16.0792 15.7137 16.9892 16.7337 16.9892Z" /></svg>