
<svg
    viewBox="0 0 25.169921875 25.169921875"
    xmlns="http://www.w3.org/2000/svg"
>
    <path
        fill="inherit"
        d="M4.2937 25.1692H20.8737C23.7437 25.1692 25.1737 23.7592 25.1737 20.9492V4.2392C25.1737 1.4192 23.7437 -0.0008 20.8737 -0.0008H4.2937C1.4337 -0.0008 0.0037 1.4192 0.0037 4.2392V20.9492C0.0037 23.7592 1.4337 25.1692 4.2937 25.1692ZM4.3237 22.9692C2.9537 22.9692 2.2037 22.2392 2.2037 20.8192V4.3592C2.2037 2.9392 2.9537 2.1992 4.3237 2.1992H20.8537C22.2037 2.1992 22.9737 2.9392 22.9737 4.3592V20.8192C22.9737 22.2392 22.2037 22.9692 20.8537 22.9692ZM16.5937 18.3492C18.7537 18.3492 20.1537 16.9892 20.1537 15.1192C20.1537 13.6292 19.1937 12.5492 18.1037 12.3092V12.2592C19.0137 11.9792 19.8337 11.0892 19.8337 9.7892C19.8337 8.0292 18.5237 6.8192 16.5937 6.8192C14.9037 6.8192 13.3737 7.8592 13.3737 9.7792C13.3737 11.1692 14.2437 11.9892 15.1237 12.2592V12.3092C13.9637 12.5692 13.0537 13.6492 13.0537 15.1192C13.0537 17.1492 14.5837 18.3492 16.5937 18.3492ZM9.4837 18.2792C9.9937 18.2792 10.4137 17.9692 10.4137 17.3092V15.9392H10.9137C11.4337 15.9392 11.6737 15.5992 11.6737 15.1392C11.6737 14.6992 11.4537 14.3592 10.9137 14.3592H10.4137V8.3492C10.4137 7.4092 9.8037 6.8792 8.9037 6.8792C7.9437 6.8792 7.4937 7.3692 7.1137 8.2192L4.6637 13.5192C4.4437 14.0592 4.3637 14.4092 4.3637 14.8292C4.3637 15.4892 4.8137 15.9392 5.4837 15.9392H8.5437V17.3092C8.5437 18.0292 9.0537 18.2792 9.4837 18.2792ZM16.5937 11.6392C15.7237 11.6392 15.2837 10.7892 15.2837 9.9792C15.2837 9.1092 15.7537 8.2892 16.5937 8.2892C17.4837 8.2892 17.9137 9.1092 17.9137 9.9792C17.9137 10.8792 17.4637 11.6392 16.5937 11.6392ZM8.5837 14.3992H6.0437V14.2992L8.5337 8.5992H8.5837ZM16.5937 16.8692C15.6037 16.8692 15.1037 15.9792 15.1037 14.9692C15.1037 13.9892 15.6137 13.1092 16.5937 13.1092C17.5637 13.1092 18.1037 13.9292 18.1037 14.9692C18.1037 15.9792 17.6137 16.8692 16.5937 16.8692Z"
        fillRule="evenodd"
        clipRule="evenodd"
    />
</svg>
        