<svg viewBox="0 0 27.890625 27.890625" xmlns="http://www.w3.org/2000/svg"><path d="M13.9427 27.8864C21.6427 27.8864 27.8927 21.6464 27.8927 13.9464C27.8927 6.2464 21.6427 -0.0036 13.9427 -0.0036C6.2527 -0.0036 0.0027 6.2464 0.0027 13.9464C0.0027 21.6464 6.2527 27.8864 13.9427 27.8864ZM13.9427 25.5664C7.5227 25.5664 2.3227 20.3664 2.3227 13.9464C2.3227 7.5164 7.5227 2.3264 13.9427 2.3264C20.3727 2.3264 25.5627 7.5164 25.5627 13.9464C25.5627 20.3664 20.3727 25.5664 13.9427 25.5664ZM17.2827 15.6564C18.4027 15.6564 19.2327 14.9164 19.5527 13.7364H19.6027V13.8864C19.6027 15.4064 19.4127 18.1464 17.8827 18.1464C17.2627 18.1464 16.8527 17.7164 16.6127 17.1264C16.4227 16.6764 16.1427 16.5064 15.7327 16.5064C15.1627 16.5064 14.9127 16.8864 14.9127 17.3364C14.9127 17.4964 14.9527 17.6664 15.0027 17.8264C15.2827 19.0164 16.4727 19.7464 17.8427 19.7464C20.6427 19.7464 21.4627 16.6364 21.4627 13.8364C21.4627 11.2564 20.6427 8.1664 17.8727 8.1664C15.7927 8.1664 14.5927 9.9164 14.5927 12.0564C14.5927 13.9064 15.4727 15.6564 17.2827 15.6564ZM11.0327 19.6464C11.5527 19.6464 11.9627 19.3364 11.9627 18.6764V17.3064H12.4527C12.9927 17.3064 13.2327 16.9664 13.2327 16.5064C13.2327 16.0664 13.0027 15.7264 12.4527 15.7264H11.9627V9.7164C11.9627 8.7764 11.3427 8.2464 10.4627 8.2464C9.4927 8.2464 9.0327 8.7364 8.6527 9.5864L6.2227 14.8864C5.9927 15.4264 5.9027 15.7764 5.9027 16.1964C5.9027 16.8564 6.3527 17.3064 7.0227 17.3064H10.0927V18.6764C10.0927 19.3964 10.6127 19.6464 11.0327 19.6464ZM17.8927 14.1464C16.8827 14.1464 16.4727 12.9864 16.4727 11.9764C16.4727 10.9464 16.9427 9.7464 17.8927 9.7464C18.9227 9.7464 19.3427 10.9464 19.3427 11.9764C19.3427 13.0264 18.8827 14.1464 17.8927 14.1464ZM10.1327 15.7664H7.5927V15.6664L10.0727 9.9664H10.1327Z" /></svg>