
<svg
    viewBox={0 0 25.169921875 25.169921875}
    xmlns="http://www.w3.org/2000/svg"
>
    <path
        fill="inherit"
        d="M4.2937 25.1692H20.8737C23.7437 25.1692 25.1737 23.7592 25.1737 20.9492V4.2392C25.1737 1.4192 23.7437 -0.0008 20.8737 -0.0008H4.2937C1.4337 -0.0008 0.0037 1.4192 0.0037 4.2392V20.9492C0.0037 23.7592 1.4337 25.1692 4.2937 25.1692ZM4.3237 22.9692C2.9537 22.9692 2.2037 22.2392 2.2037 20.8192V4.3592C2.2037 2.9392 2.9537 2.1992 4.3237 2.1992H20.8537C22.2037 2.1992 22.9737 2.9392 22.9737 4.3592V20.8192C22.9737 22.2392 22.2037 22.9692 20.8537 22.9692ZM15.9537 14.2892C17.0637 14.2892 17.8937 13.5492 18.2137 12.3692H18.2637V12.5192C18.2637 14.0392 18.0737 16.7792 16.5437 16.7792C15.9237 16.7792 15.5137 16.3492 15.2737 15.7592C15.0837 15.3092 14.8037 15.1392 14.3937 15.1392C13.8237 15.1392 13.5737 15.5192 13.5737 15.9692C13.5737 16.1292 13.6137 16.2992 13.6537 16.4592C13.9637 17.6492 15.1337 18.3792 16.5137 18.3792C19.3137 18.3792 20.1237 15.2692 20.1237 12.4692C20.1237 9.8892 19.3037 6.7992 16.5337 6.7992C14.4537 6.7992 13.2437 8.5492 13.2437 10.6892C13.2437 12.5392 14.1337 14.2892 15.9537 14.2892ZM9.6937 18.2792C10.2137 18.2792 10.6337 17.9692 10.6337 17.3092V15.9392H11.1137C11.6437 15.9392 11.8937 15.5992 11.8937 15.1392C11.8937 14.6992 11.6637 14.3592 11.1137 14.3592H10.6337V8.3492C10.6337 7.4092 10.0037 6.8792 9.1237 6.8792C8.1637 6.8792 7.7137 7.3692 7.3237 8.2192L4.8837 13.5192C4.6437 14.0592 4.5637 14.4092 4.5637 14.8292C4.5637 15.4892 5.0337 15.9392 5.6837 15.9392H8.7537V17.3092C8.7537 18.0292 9.2737 18.2792 9.6937 18.2792ZM16.5537 12.7792C15.5437 12.7792 15.1337 11.6192 15.1337 10.6092C15.1337 9.5792 15.6037 8.3792 16.5537 8.3792C17.5937 8.3792 18.0037 9.5792 18.0037 10.6092C18.0037 11.6592 17.5437 12.7792 16.5537 12.7792ZM8.7937 14.3992H6.2437V14.2992L8.7337 8.5992H8.7937Z"
        fillRule="evenodd"
        clipRule="evenodd"
    />
</svg>
        