<svg viewBox="0 0 27.890625 27.890625" xmlns="http://www.w3.org/2000/svg"><path d="M13.9427 27.8864C21.6427 27.8864 27.8927 21.6264 27.8927 13.9464C27.8927 6.2464 21.6427 -0.0036 13.9427 -0.0036C6.2627 -0.0036 0.0027 6.2464 0.0027 13.9464C0.0027 21.6264 6.2627 27.8864 13.9427 27.8864ZM10.3527 19.8264C9.9127 19.8264 9.3627 19.5664 9.3627 18.8164V17.4164H6.2227C5.5327 17.4164 5.0627 16.9564 5.0627 16.2664C5.0627 15.8364 5.1427 15.4664 5.3727 14.9164L7.8727 9.4464C8.2827 8.5764 8.7627 8.0664 9.7527 8.0664C10.6827 8.0664 11.3227 8.6164 11.3227 9.5964V15.7764H11.8127C12.3827 15.7764 12.6227 16.1364 12.6227 16.5864C12.6227 17.0664 12.3627 17.4164 11.8127 17.4164H11.3227V18.8164C11.3227 19.4964 10.8827 19.8264 10.3527 19.8264ZM14.8627 19.8364C14.2727 19.8364 13.8927 19.4364 13.8927 18.8664C13.8927 18.6864 13.9427 18.3864 13.9827 18.2264L16.3527 9.3564C16.5727 8.5164 17.0727 8.0764 17.9127 8.0764C18.7127 8.0764 19.2927 8.4664 19.5127 9.3564L21.8727 18.2064C21.9327 18.4264 21.9727 18.6064 21.9727 18.8664C21.9727 19.4164 21.5727 19.8364 21.0227 19.8364C20.5327 19.8364 20.1127 19.6464 19.9627 18.9264L19.4927 16.9764H16.3427L15.8827 18.9064C15.7727 19.5664 15.4127 19.8364 14.8627 19.8364ZM9.4027 15.8164V9.8464H9.3527L6.7927 15.7264V15.8164ZM16.7027 15.4264H19.1227L17.9527 10.4364H17.8427Z" /></svg>