
<svg
    viewBox={0 0 27.890625 27.890625}
    xmlns="http://www.w3.org/2000/svg"
>
    <path
        fill="inherit"
        d="M13.9427 27.8864C21.6427 27.8864 27.8927 21.6464 27.8927 13.9464C27.8927 6.2464 21.6427 -0.0036 13.9427 -0.0036C6.2527 -0.0036 0.0027 6.2464 0.0027 13.9464C0.0027 21.6464 6.2527 27.8864 13.9427 27.8864ZM13.9427 25.5664C7.5227 25.5664 2.3227 20.3664 2.3227 13.9464C2.3227 7.5164 7.5227 2.3264 13.9427 2.3264C20.3727 2.3264 25.5627 7.5164 25.5627 13.9464C25.5627 20.3664 20.3727 25.5664 13.9427 25.5664ZM10.4327 19.6464C10.9527 19.6464 11.3727 19.3364 11.3727 18.6764V17.3064H11.8527C12.3827 17.3064 12.6327 16.9664 12.6327 16.5064C12.6327 16.0664 12.4027 15.7264 11.8527 15.7264H11.3727V9.7164C11.3727 8.7764 10.7427 8.2464 9.8527 8.2464C8.9027 8.2464 8.4527 8.7364 8.0527 9.5864L5.6227 14.8864C5.3827 15.4264 5.3027 15.7764 5.3027 16.1964C5.3027 16.8564 5.7727 17.3064 6.4227 17.3064H9.4927V18.6764C9.4927 19.3964 10.0127 19.6464 10.4327 19.6464ZM14.8027 19.6564C15.3227 19.6564 15.6827 19.3964 15.7927 18.7564L16.2327 16.8864H19.3027L19.7527 18.7764C19.8927 19.4664 20.3027 19.6564 20.7827 19.6564C21.3127 19.6564 21.6927 19.2464 21.6927 18.7164C21.6927 18.4664 21.6527 18.3064 21.6027 18.0864L19.3027 9.4864C19.0827 8.6264 18.5427 8.2564 17.7627 8.2564C16.9527 8.2564 16.4627 8.6864 16.2527 9.4864L13.9627 18.1064C13.9227 18.2664 13.8627 18.5564 13.8627 18.7164C13.8627 19.2764 14.2327 19.6564 14.8027 19.6564ZM9.5327 15.7664H6.9827V15.6664L9.4727 9.9664H9.5327ZM16.5827 15.3764L17.6927 10.5264H17.8027L18.9527 15.3764Z"
        fillRule="evenodd"
        clipRule="evenodd"
    />
</svg>
        