
<svg
    viewBox={0 0 27.890625 27.890625}
    xmlns="http://www.w3.org/2000/svg"
>
    <path
        fill="inherit"
        d="M13.9427 27.8864C21.6427 27.8864 27.8927 21.6464 27.8927 13.9464C27.8927 6.2464 21.6427 -0.0036 13.9427 -0.0036C6.2527 -0.0036 0.0027 6.2464 0.0027 13.9464C0.0027 21.6464 6.2527 27.8864 13.9427 27.8864ZM13.9427 25.5664C7.5227 25.5664 2.3227 20.3664 2.3227 13.9464C2.3227 7.5164 7.5227 2.3264 13.9427 2.3264C20.3727 2.3264 25.5627 7.5164 25.5627 13.9464C25.5627 20.3664 20.3727 25.5664 13.9427 25.5664ZM15.1327 19.6464C15.6827 19.6464 16.1327 19.1964 16.1327 18.6364V14.6864H19.5127V18.6364C19.5127 19.1964 19.9627 19.6464 20.5127 19.6464C21.0427 19.6464 21.5027 19.1964 21.5027 18.6364V9.2264C21.5027 8.6864 21.0427 8.2264 20.5127 8.2264C19.9627 8.2264 19.5127 8.6864 19.5127 9.2264V13.0164H16.1327V9.2264C16.1327 8.6864 15.6827 8.2264 15.1327 8.2264C14.5927 8.2264 14.1327 8.6864 14.1327 9.2264V18.6364C14.1327 19.1964 14.5927 19.6464 15.1327 19.6464ZM10.2527 19.6464C10.7727 19.6464 11.1827 19.3364 11.1827 18.6764V17.3064H11.6727C12.2127 17.3064 12.4527 16.9664 12.4527 16.5064C12.4527 16.0664 12.2227 15.7264 11.6727 15.7264H11.1827V9.7164C11.1827 8.7764 10.5727 8.2464 9.6827 8.2464C8.7127 8.2464 8.2627 8.7364 7.8727 9.5864L5.4427 14.8864C5.2127 15.4264 5.1227 15.7764 5.1227 16.1964C5.1227 16.8564 5.5827 17.3064 6.2527 17.3064H9.3127V18.6764C9.3127 19.3964 9.8127 19.6464 10.2527 19.6464ZM9.3527 15.7664H6.8127V15.6664L9.2927 9.9664H9.3527Z"
        fillRule="evenodd"
        clipRule="evenodd"
    />
</svg>
        