<svg viewBox="0 0 34.712890625 20.193359375" xmlns="http://www.w3.org/2000/svg"><path d="M20.2337 20.1946C20.9037 20.1946 21.4537 19.6446 21.4537 18.9746V10.9246H32.2837V18.9746C32.2837 19.6446 32.8237 20.1946 33.4937 20.1946C34.1637 20.1946 34.7137 19.6446 34.7137 18.9746V1.2146C34.7137 0.5346 34.1637 0.0046 33.4937 0.0046C32.8237 0.0046 32.2837 0.5346 32.2837 1.2146V8.8046H21.4537V1.2146C21.4537 0.5346 20.9037 0.0046 20.2337 0.0046C19.5637 0.0046 19.0137 0.5346 19.0137 1.2146V18.9746C19.0137 19.6446 19.5637 20.1946 20.2337 20.1946ZM10.8737 20.1946C11.5437 20.1946 12.0337 19.6746 12.0337 18.9646V15.7046H13.8337C14.4737 15.7046 14.9137 15.3246 14.9137 14.6846C14.9137 14.0846 14.4637 13.6546 13.8337 13.6546H12.0337V1.9146C12.0337 0.8046 11.2137 0.0146 10.0637 0.0146C8.8337 0.0146 8.1237 0.9146 7.4737 1.9246L0.5037 12.6146C0.1737 13.1346 0.0037 13.6846 0.0037 14.1746C0.0037 15.0546 0.5737 15.7046 1.6637 15.7046H9.7037V18.9646C9.7037 19.8146 10.3037 20.1946 10.8737 20.1946ZM9.7237 13.6846H2.2837V13.5646L9.5937 2.4446H9.7237Z" /></svg>