<svg viewBox="0 0 34.1796875 27.34375" xmlns="http://www.w3.org/2000/svg"><path d="M3.5137 22.713H30.6637C32.8537 22.713 34.1837 21.373 34.1837 19.193V3.513C34.1837 1.343 32.8537 0.003 30.6637 0.003H3.5137C1.3437 0.003 0.0037 1.343 0.0037 3.513V19.193C0.0037 21.373 1.3437 22.713 3.5137 22.713ZM3.5537 20.503C2.7037 20.503 2.2037 20.003 2.2037 19.163V3.543C2.2037 2.703 2.7037 2.203 3.5537 2.203H30.6237C31.4737 2.203 31.9737 2.703 31.9737 3.543V19.163C31.9737 20.003 31.4737 20.503 30.6237 20.503ZM13.4137 17.073C13.9137 17.073 14.3437 16.753 14.3437 16.093V14.723H14.8337C15.3537 14.723 15.6137 14.383 15.6137 13.933C15.6137 13.483 15.3837 13.143 14.8337 13.143H14.3437V7.133C14.3437 6.193 13.7237 5.673 12.8337 5.673C11.8637 5.673 11.4137 6.163 11.0337 7.013L8.5837 12.323C8.3637 12.833 8.2837 13.193 8.2837 13.613C8.2837 14.273 8.7337 14.723 9.4037 14.723H12.4737V16.093C12.4737 16.813 12.9737 17.073 13.4137 17.073ZM18.2837 17.093C18.9737 17.093 19.2937 16.613 19.2937 16.053V13.603L20.1837 12.223L22.6037 16.333C22.8737 16.813 23.1337 17.063 23.6637 17.063C24.2137 17.063 24.5537 16.663 24.5537 16.133C24.5537 15.833 24.5037 15.653 24.3237 15.343L21.6437 10.873L23.9937 7.373C24.1537 7.153 24.2537 6.943 24.2537 6.613C24.2537 6.163 23.9237 5.713 23.3537 5.713C22.8337 5.713 22.6437 5.993 22.4637 6.273L19.3737 11.023H19.2737V6.723C19.2737 6.143 18.9337 5.683 18.2837 5.683C17.6337 5.683 17.2837 6.093 17.2837 6.723V16.053C17.2837 16.663 17.6537 17.093 18.2837 17.093ZM12.5137 13.183H9.9637V13.093L12.4537 7.393H12.5137ZM10.2137 27.343H23.9637C24.5637 27.343 25.0737 26.853 25.0737 26.233C25.0737 25.623 24.5637 25.133 23.9637 25.133H10.2137C9.6137 25.133 9.1037 25.623 9.1037 26.233C9.1037 26.853 9.6137 27.343 10.2137 27.343Z" /></svg>