
<svg
    viewBox="0 0 34.1796875 27.330078125"
    xmlns="http://www.w3.org/2000/svg"
>
    <path
        fill="inherit"
        d="M3.5137 22.693H30.6637C33.0037 22.693 34.1837 21.563 34.1837 19.183V3.513C34.1837 1.133 33.0037 0.003 30.6637 0.003H3.5137C1.1937 0.003 0.0037 1.133 0.0037 3.513V19.183C0.0037 21.563 1.1937 22.693 3.5137 22.693ZM13.3137 17.243C12.8637 17.243 12.3337 16.963 12.3337 16.213V14.823H9.1837C8.4937 14.823 8.0237 14.353 8.0237 13.673C8.0237 13.233 8.1037 12.863 8.3437 12.333L10.8537 6.863C11.2537 5.993 11.7137 5.483 12.7137 5.483C13.6437 5.483 14.2737 6.013 14.2737 7.003V13.183H14.7837C15.3537 13.183 15.5837 13.533 15.5837 14.003C15.5837 14.463 15.3237 14.823 14.7837 14.823H14.2737V16.213C14.2737 16.903 13.8337 17.243 13.3137 17.243ZM18.3337 17.253C17.6937 17.253 17.3037 16.813 17.3037 16.173V6.573C17.3037 5.923 17.6737 5.493 18.3337 5.493C19.0137 5.493 19.3737 5.963 19.3737 6.573V10.993H19.4737L22.6537 6.093C22.8337 5.813 23.0337 5.523 23.5737 5.523C24.1737 5.523 24.5137 5.993 24.5137 6.453C24.5137 6.793 24.4037 7.013 24.2437 7.233L21.8237 10.843L24.5837 15.433C24.7637 15.763 24.8137 15.953 24.8137 16.273C24.8137 16.813 24.4637 17.223 23.8937 17.223C23.3337 17.223 23.0737 16.963 22.7937 16.473L20.3037 12.233L19.3837 13.663V16.173C19.3837 16.763 19.0537 17.253 18.3337 17.253ZM12.3737 13.223V7.263H12.3137L9.7637 13.143V13.223ZM10.2137 27.333H23.9637C24.5637 27.333 25.0737 26.833 25.0737 26.223C25.0737 25.603 24.5637 25.113 23.9637 25.113H10.2137C9.6137 25.113 9.1037 25.603 9.1037 26.223C9.1037 26.833 9.6137 27.333 10.2137 27.333Z"
        fillRule="evenodd"
        clipRule="evenodd"
    />
</svg>
        