
<svg
    viewBox={0 0 27.890625 27.890625}
    xmlns="http://www.w3.org/2000/svg"
>
    <path
        fill="inherit"
        d="M13.9427 27.8864C21.6427 27.8864 27.8927 21.6264 27.8927 13.9464C27.8927 6.2464 21.6427 -0.0036 13.9427 -0.0036C6.2627 -0.0036 0.0027 6.2464 0.0027 13.9464C0.0027 21.6264 6.2627 27.8864 13.9427 27.8864ZM16.2327 19.6464C15.5827 19.6464 15.2327 19.2464 15.2327 18.5764V9.1764C15.2327 8.4864 15.5827 8.0664 16.2427 8.0664C16.9827 8.0664 17.2827 8.5464 17.2827 9.1764V17.9264H20.2327C20.7527 17.9264 21.1327 18.2264 21.1327 18.7764C21.1327 19.3464 20.7527 19.6464 20.2327 19.6464ZM11.2427 19.8264C10.7827 19.8264 10.2527 19.5664 10.2527 18.8164V17.4164H7.1127C6.4127 17.4164 5.9427 16.9564 5.9427 16.2664C5.9427 15.8364 6.0327 15.4664 6.2527 14.9164L8.7627 9.4464C9.1627 8.5764 9.6427 8.0664 10.6227 8.0664C11.5627 8.0664 12.1927 8.6164 12.1927 9.5964V15.7764H12.7027C13.2727 15.7764 13.5127 16.1364 13.5127 16.5864C13.5127 17.0664 13.2327 17.4164 12.7027 17.4164H12.1927V18.8164C12.1927 19.4964 11.7627 19.8264 11.2427 19.8264ZM10.2927 15.8164V9.8464H10.2427L7.6827 15.7264V15.8164Z"
        fillRule="evenodd"
        clipRule="evenodd"
    />
</svg>
        