<svg viewBox="0 0 27.890625 27.890625" xmlns="http://www.w3.org/2000/svg"><path d="M13.9427 27.8864C21.6427 27.8864 27.8927 21.6464 27.8927 13.9464C27.8927 6.2464 21.6427 -0.0036 13.9427 -0.0036C6.2527 -0.0036 0.0027 6.2464 0.0027 13.9464C0.0027 21.6464 6.2527 27.8864 13.9427 27.8864ZM13.9427 25.5664C7.5227 25.5664 2.3227 20.3664 2.3227 13.9464C2.3227 7.5164 7.5227 2.3264 13.9427 2.3264C20.3727 2.3264 25.5627 7.5164 25.5627 13.9464C25.5627 20.3664 20.3727 25.5664 13.9427 25.5664ZM16.1327 19.4664H20.0327C20.5227 19.4664 20.8927 19.1864 20.8927 18.6364C20.8927 18.1064 20.5227 17.8164 20.0327 17.8164H17.1427V9.3064C17.1427 8.7064 16.8527 8.2464 16.1427 8.2464C15.5027 8.2464 15.1627 8.6564 15.1627 9.3064V18.4464C15.1627 19.0864 15.5027 19.4664 16.1327 19.4664ZM11.2927 19.6464C11.8027 19.6464 12.2227 19.3364 12.2227 18.6764V17.3064H12.7127C13.2327 17.3064 13.4927 16.9664 13.4927 16.5064C13.4927 16.0664 13.2627 15.7264 12.7127 15.7264H12.2227V9.7164C12.2227 8.7764 11.6027 8.2464 10.7027 8.2464C9.7527 8.2464 9.2927 8.7364 8.9127 9.5864L6.4627 14.8864C6.2527 15.4264 6.1627 15.7764 6.1627 16.1964C6.1627 16.8564 6.6127 17.3064 7.2827 17.3064H10.3527V18.6764C10.3527 19.3964 10.8527 19.6464 11.2927 19.6464ZM10.3927 15.7664H7.8427V15.6664L10.3327 9.9664H10.3927Z" /></svg>