
<svg
    viewBox="0 0 31.2265625 20.193359375"
    xmlns="http://www.w3.org/2000/svg"
>
    <path
        fill="inherit"
        d="M20.2237 19.9046H30.0737C30.7437 19.9046 31.2237 19.4546 31.2237 18.8246C31.2237 18.2146 30.7437 17.7846 30.0737 17.7846H21.4537V1.2146C21.4537 0.5346 20.9037 0.0046 20.2337 0.0046C19.5637 0.0046 19.0137 0.5346 19.0137 1.2146V18.6346C19.0137 19.5546 19.6037 19.9046 20.2237 19.9046ZM10.8737 20.1946C11.5437 20.1946 12.0337 19.6746 12.0337 18.9646V15.7046H13.8337C14.4737 15.7046 14.9137 15.3246 14.9137 14.6846C14.9137 14.0846 14.4637 13.6546 13.8337 13.6546H12.0337V1.9146C12.0337 0.8046 11.2137 0.0146 10.0637 0.0146C8.8337 0.0146 8.1237 0.9146 7.4737 1.9246L0.5037 12.6146C0.1737 13.1346 0.0037 13.6846 0.0037 14.1746C0.0037 15.0546 0.5737 15.7046 1.6637 15.7046H9.7037V18.9646C9.7037 19.8146 10.3037 20.1946 10.8737 20.1946ZM9.7237 13.6846H2.2837V13.5646L9.5937 2.4446H9.7237Z"
        fillRule="evenodd"
        clipRule="evenodd"
    />
</svg>
        