
<svg
    viewBox="0 0 27.890625 30.544813437289537"
    xmlns="http://www.w3.org/2000/svg"
>
    <path
        fill="inherit"
        d="M13.9427 30.5406C21.6427 30.5406 27.8927 24.3006 27.8927 16.6006C27.8927 9.7806 22.9827 4.1206 16.5827 2.9106V0.9706C16.5827 -0.0094 15.9127 -0.2594 15.1527 0.2706L10.8027 3.3406C10.1727 3.7906 10.1827 4.4406 10.8027 4.8806L15.1627 7.9406C15.9127 8.4606 16.5827 8.2206 16.5827 7.2506V5.2806C21.7227 6.4706 25.5627 11.0506 25.5627 16.6006C25.5627 23.0206 20.3727 28.2206 13.9427 28.2206C7.5227 28.2206 2.3227 23.0206 2.3227 16.6006C2.3227 12.7006 4.2427 9.2706 7.1327 7.1906C7.6927 6.7706 7.8727 6.1306 7.5327 5.5506C7.1927 5.0106 6.4127 4.8406 5.8127 5.3106C2.2827 7.8506 0.0027 11.9106 0.0027 16.6006C0.0027 24.3006 6.2527 30.5406 13.9427 30.5406ZM13.9827 22.3306C16.1227 22.3306 17.4427 20.7406 17.4427 18.6106C17.4427 16.7806 16.4027 15.2006 14.6027 15.2006C13.7027 15.2006 12.9327 15.6306 12.5627 16.3306H12.5127L12.7427 13.2106H16.2327C16.6827 13.2106 16.9827 12.9106 16.9827 12.4406C16.9827 11.9806 16.6927 11.6806 16.2327 11.6806H12.2627C11.5527 11.6806 11.2227 12.0606 11.1727 12.7706L10.8827 16.7606C10.8427 17.3606 11.1527 17.8206 11.7627 17.8206C12.1927 17.8206 12.3827 17.6406 12.6627 17.3206C12.9927 16.8706 13.4527 16.6006 14.0027 16.6006C15.0827 16.6006 15.6127 17.5706 15.6127 18.6606C15.6127 19.8306 15.0227 20.8006 13.9727 20.8006C13.1627 20.8006 12.6027 20.2606 12.3427 19.5506C12.1727 19.1706 11.8927 18.9806 11.5227 18.9806C11.0427 18.9806 10.7427 19.2806 10.7427 19.7606C10.7427 19.9206 10.7727 20.0906 10.8127 20.2406C11.1527 21.5506 12.6627 22.3306 13.9827 22.3306Z"
        fillRule="evenodd"
        clipRule="evenodd"
    />
</svg>
        