
<svg
    viewBox={0 0 27.890625 27.890625}
    xmlns="http://www.w3.org/2000/svg"
>
    <path
        fill="inherit"
        d="M13.9427 27.8864C21.6427 27.8864 27.8927 21.6264 27.8927 13.9464C27.8927 6.2464 21.6427 -0.0036 13.9427 -0.0036C6.2627 -0.0036 0.0027 6.2464 0.0027 13.9464C0.0027 21.6264 6.2627 27.8864 13.9427 27.8864ZM13.8627 20.6564C11.6027 20.6564 9.9627 19.7564 9.4027 18.3164C9.3127 18.1064 9.2527 17.8864 9.2527 17.6364C9.2527 17.0864 9.6427 16.6964 10.2127 16.6964C10.6227 16.6964 10.9627 16.9264 11.2127 17.3764C11.6727 18.3064 12.6627 18.8764 13.8227 18.8764C15.3827 18.8764 16.5427 17.7364 16.5427 16.1864C16.5427 14.6264 15.5427 13.5864 14.0527 13.5864C13.3427 13.5864 12.8127 13.8064 12.1427 14.3864C11.5627 14.8064 11.2527 14.9164 10.7327 14.9164C9.9527 14.9164 9.4727 14.3864 9.5327 13.5664L9.9227 8.8864C9.9827 8.0664 10.5827 7.5464 11.5127 7.5464H17.3527C17.8427 7.5464 18.1827 7.9064 18.1827 8.4264C18.1827 8.9264 17.8327 9.2964 17.3527 9.2964H11.7127L11.3927 13.1064H11.4827C11.9927 12.4164 13.1627 11.9064 14.3127 11.9064C16.9027 11.9064 18.6927 13.6464 18.6927 16.1364C18.6927 18.8664 16.7227 20.6564 13.8627 20.6564Z"
        fillRule="evenodd"
        clipRule="evenodd"
    />
</svg>
        