
<svg
    viewBox="0 0 25.169921875 20.603515625"
    xmlns="http://www.w3.org/2000/svg"
>
    <path
        fill="inherit"
        d="M0.0037 19.4923C0.0037 20.1023 0.4937 20.6023 1.0937 20.6023C1.7137 20.6023 2.2037 20.1023 2.2037 19.4923V1.0923C2.2037 0.4923 1.7137 0.0023 1.0937 0.0023C0.4937 0.0023 0.0037 0.4923 0.0037 1.0923ZM22.9737 19.4923C22.9737 20.1023 23.4737 20.6023 24.0737 20.6023C24.6737 20.6023 25.1737 20.1023 25.1737 19.4923V1.0923C25.1737 0.4923 24.6737 0.0023 24.0737 0.0023C23.4737 0.0023 22.9737 0.4923 22.9737 1.0923ZM12.6437 16.8023C15.0637 16.8023 16.5837 15.0023 16.5837 12.5823C16.5837 10.4823 15.3937 8.6923 13.3337 8.6923C12.3037 8.6923 11.4437 9.1723 11.0037 9.9623H10.9537L11.2237 6.4123H15.1937C15.7137 6.4123 16.0537 6.0723 16.0537 5.5523C16.0537 5.0223 15.7237 4.6623 15.1937 4.6623H10.6737C9.8537 4.6623 9.4837 5.1023 9.4337 5.9223L9.1037 10.4623C9.0537 11.1423 9.4237 11.6623 10.0937 11.6623C10.5937 11.6623 10.8137 11.4723 11.1337 11.1023C11.4937 10.5923 12.0337 10.2823 12.6637 10.2823C13.8737 10.2823 14.4937 11.3923 14.4937 12.6323C14.4937 13.9423 13.8237 15.0523 12.6237 15.0523C11.7037 15.0523 11.0737 14.4523 10.7737 13.6423C10.5537 13.2023 10.2437 12.9923 9.8337 12.9923C9.2837 12.9923 8.9437 13.3323 8.9437 13.8723C8.9437 14.0523 8.9737 14.2423 9.0237 14.4223C9.4037 15.9123 11.1337 16.8023 12.6437 16.8023Z"
        fillRule="evenodd"
        clipRule="evenodd"
    />
</svg>
        