
<svg
    viewBox="0 0 25.169921875 25.169921875"
    xmlns="http://www.w3.org/2000/svg"
>
    <path
        fill="inherit"
        d="M4.2937 25.1692H20.8737C23.7437 25.1692 25.1737 23.7592 25.1737 20.9492V4.2392C25.1737 1.4192 23.7437 -0.0008 20.8737 -0.0008H4.2937C1.4337 -0.0008 0.0037 1.4192 0.0037 4.2392V20.9492C0.0037 23.7592 1.4337 25.1692 4.2937 25.1692ZM12.5137 19.2892C10.2537 19.2892 8.6137 18.3892 8.0637 16.9492C7.9537 16.7392 7.9037 16.5192 7.9037 16.2692C7.9037 15.7192 8.2837 15.3292 8.8637 15.3292C9.2737 15.3292 9.6137 15.5592 9.8537 16.0092C10.3237 16.9392 11.3037 17.5092 12.4737 17.5092C14.0237 17.5092 15.1937 16.3692 15.1937 14.8192C15.1937 13.2592 14.1937 12.2192 12.7037 12.2192C11.9937 12.2192 11.4537 12.4392 10.7837 13.0192C10.2237 13.4392 9.8937 13.5492 9.3837 13.5492C8.6037 13.5492 8.1237 13.0192 8.1937 12.1992L8.5737 7.5192C8.6237 6.6992 9.2237 6.1792 10.1537 6.1792H15.9937C16.4837 6.1792 16.8337 6.5392 16.8337 7.0592C16.8337 7.5592 16.4737 7.9292 15.9937 7.9292H10.3637L10.0337 11.7392H10.1337C10.6337 11.0492 11.8137 10.5392 12.9737 10.5392C15.5437 10.5392 17.3537 12.2792 17.3537 14.7692C17.3537 17.4992 15.3637 19.2892 12.5137 19.2892Z"
        fillRule="evenodd"
        clipRule="evenodd"
    />
</svg>
        