<svg viewBox="0 0 25.169921875 25.169921875" xmlns="http://www.w3.org/2000/svg"><path d="M4.2937 25.1692H20.8737C23.7437 25.1692 25.1737 23.7592 25.1737 20.9492V4.2392C25.1737 1.4192 23.7437 -0.0008 20.8737 -0.0008H4.2937C1.4337 -0.0008 0.0037 1.4192 0.0037 4.2392V20.9492C0.0037 23.7592 1.4337 25.1692 4.2937 25.1692ZM4.3237 22.9692C2.9537 22.9692 2.2037 22.2392 2.2037 20.8192V4.3592C2.2037 2.9392 2.9537 2.1992 4.3237 2.1992H20.8537C22.2037 2.1992 22.9737 2.9392 22.9737 4.3592V20.8192C22.9737 22.2392 22.2037 22.9692 20.8537 22.9692ZM12.5137 19.0892C15.2837 19.0892 17.2037 17.3492 17.2037 14.7092C17.2037 12.2892 15.4537 10.6092 12.9637 10.6092C11.8437 10.6092 10.6937 11.0992 10.2037 11.7892H10.1037L10.4337 8.0692H15.8837C16.3537 8.0692 16.6937 7.7092 16.6937 7.2192C16.6937 6.7292 16.3637 6.3892 15.8837 6.3892H10.2237C9.3337 6.3892 8.7537 6.8792 8.6937 7.6692L8.3237 12.2192C8.2537 12.9992 8.7237 13.5192 9.4737 13.5192C9.9837 13.5192 10.2937 13.4092 10.8237 12.9992C11.4837 12.4392 12.0037 12.2392 12.7037 12.2392C14.1537 12.2392 15.1237 13.2492 15.1237 14.7492C15.1237 16.2592 13.9837 17.3792 12.4737 17.3792C11.3437 17.3792 10.3937 16.8192 9.9437 15.9092C9.6937 15.4792 9.3637 15.2592 8.9737 15.2592C8.4237 15.2592 8.0537 15.6392 8.0537 16.1592C8.0537 16.3892 8.1037 16.6092 8.2037 16.8192C8.7337 18.2092 10.3237 19.0892 12.5137 19.0892Z" /></svg>