<svg viewBox="0 0 27.890625 27.890625" xmlns="http://www.w3.org/2000/svg"><path d="M13.9427 27.8864C21.6427 27.8864 27.8927 21.6464 27.8927 13.9464C27.8927 6.2464 21.6427 -0.0036 13.9427 -0.0036C6.2527 -0.0036 0.0027 6.2464 0.0027 13.9464C0.0027 21.6464 6.2527 27.8864 13.9427 27.8864ZM13.9427 25.5664C7.5227 25.5664 2.3227 20.3664 2.3227 13.9464C2.3227 7.5164 7.5227 2.3264 13.9427 2.3264C20.3727 2.3264 25.5627 7.5164 25.5627 13.9464C25.5627 20.3664 20.3727 25.5664 13.9427 25.5664ZM18.1727 19.7664C20.9027 19.7664 21.7127 16.7064 21.7127 13.9564C21.7127 11.2064 20.9027 8.1464 18.1727 8.1464C15.4527 8.1464 14.6427 11.2064 14.6427 13.9564C14.6427 16.7064 15.4527 19.7664 18.1727 19.7664ZM9.8027 19.7664C11.9327 19.7664 13.1127 17.9964 13.1127 15.8364C13.1127 13.9464 12.2127 12.2064 10.4427 12.2064C9.6427 12.2064 8.8827 12.5764 8.5427 13.3864H8.4727L8.7127 10.0464H11.9127C12.3827 10.0464 12.6727 9.7164 12.6727 9.2464C12.6727 8.7864 12.3727 8.4464 11.9127 8.4464H8.1627C7.4327 8.4464 7.1227 8.9164 7.0727 9.6064L6.8527 13.3564C6.8327 13.5664 6.8227 13.7764 6.8227 13.9564C6.8227 14.4964 7.0927 14.9464 7.7227 14.9464C8.0927 14.9464 8.3127 14.8064 8.6027 14.4264C8.9127 13.9764 9.2527 13.6464 9.8027 13.6464C10.8127 13.6464 11.1927 14.8564 11.1927 15.8764C11.1927 17.0064 10.7827 18.1664 9.7727 18.1664C9.0127 18.1664 8.5827 17.6264 8.3427 16.8664C8.1727 16.4364 7.8727 16.2264 7.5027 16.2264C7.0027 16.2264 6.6827 16.5464 6.6827 17.0464C6.6827 17.3664 6.7627 17.6664 6.8727 17.9364C7.3527 19.0464 8.5727 19.7664 9.8027 19.7664ZM18.1727 18.1564C17.0627 18.1564 16.6427 16.3364 16.6427 13.9564C16.6427 11.5964 17.0627 9.7764 18.1727 9.7764C19.2927 9.7764 19.7127 11.5964 19.7127 13.9564C19.7127 16.3364 19.2927 18.1564 18.1727 18.1564Z" /></svg>