
<svg
    viewBox="0 0 27.890625 27.890625"
    xmlns="http://www.w3.org/2000/svg"
>
    <path
        fill="inherit"
        d="M13.9427 27.8864C21.6427 27.8864 27.8927 21.6264 27.8927 13.9464C27.8927 6.2464 21.6427 -0.0036 13.9427 -0.0036C6.2627 -0.0036 0.0027 6.2464 0.0027 13.9464C0.0027 21.6264 6.2627 27.8864 13.9427 27.8864ZM18.3027 19.9464C15.5027 19.9464 14.6727 16.8064 14.6727 13.9564C14.6727 11.1164 15.5027 7.9664 18.3027 7.9664C21.1327 7.9664 21.9727 11.1164 21.9727 13.9564C21.9727 16.8064 21.1327 19.9464 18.3027 19.9464ZM9.6827 19.9464C8.4127 19.9464 7.1527 19.2064 6.6627 18.0564C6.5327 17.7864 6.4527 17.4764 6.4527 17.1464C6.4527 16.6264 6.7827 16.2964 7.3027 16.2964C7.6827 16.2964 8.0027 16.5164 8.1727 16.9664C8.4227 17.7364 8.8627 18.2964 9.6527 18.2964C10.6927 18.2964 11.1027 17.1064 11.1027 15.9264C11.1027 14.8864 10.7227 13.6464 9.6827 13.6464C9.1027 13.6464 8.7627 13.9764 8.4327 14.4364C8.1327 14.8364 7.9127 14.9664 7.5327 14.9664C6.8727 14.9664 6.6027 14.5064 6.6027 13.9564C6.6027 13.7664 6.6127 13.5464 6.6327 13.3264L6.8527 9.4764C6.9027 8.7664 7.2327 8.2764 7.9827 8.2764H11.8527C12.3327 8.2764 12.6427 8.6264 12.6427 9.0964C12.6427 9.5964 12.3427 9.9364 11.8527 9.9364H8.5427L8.3127 13.3664H8.3827C8.7327 12.5364 9.5027 12.1564 10.3327 12.1564C12.1527 12.1564 13.0827 13.9464 13.0827 15.8864C13.0827 18.1164 11.8827 19.9464 9.6827 19.9464ZM18.3027 18.2664C19.4527 18.2664 19.8927 16.4164 19.8927 13.9564C19.8927 11.5164 19.4527 9.6564 18.3027 9.6564C17.1727 9.6564 16.7327 11.5164 16.7327 13.9564C16.7327 16.4164 17.1727 18.2664 18.3027 18.2664Z"
        fillRule="evenodd"
        clipRule="evenodd"
    />
</svg>
        