
<svg
    viewBox="0 0 25.169921875 25.169921875"
    xmlns="http://www.w3.org/2000/svg"
>
    <path
        fill="inherit"
        d="M4.2937 25.1692H20.8737C23.7437 25.1692 25.1737 23.7592 25.1737 20.9492V4.2392C25.1737 1.4192 23.7437 -0.0008 20.8737 -0.0008H4.2937C1.4337 -0.0008 0.0037 1.4192 0.0037 4.2392V20.9492C0.0037 23.7592 1.4337 25.1692 4.2937 25.1692ZM16.9637 18.5792C14.1537 18.5792 13.3137 15.4392 13.3137 12.5892C13.3137 9.7492 14.1537 6.5992 16.9637 6.5992C19.7837 6.5992 20.6137 9.7492 20.6137 12.5892C20.6137 15.4392 19.7837 18.5792 16.9637 18.5792ZM8.3237 18.5792C7.0537 18.5792 5.7937 17.8392 5.3037 16.6892C5.1837 16.4192 5.1037 16.1092 5.1037 15.7792C5.1037 15.2592 5.4237 14.9292 5.9437 14.9292C6.3337 14.9292 6.6437 15.1492 6.8237 15.5992C7.0637 16.3692 7.5237 16.9292 8.3037 16.9292C9.3537 16.9292 9.7437 15.7392 9.7437 14.5592C9.7437 13.5192 9.3637 12.2792 8.3237 12.2792C7.7537 12.2792 7.4137 12.6092 7.0837 13.0692C6.7837 13.4692 6.5637 13.5992 6.1837 13.5992C5.5237 13.5992 5.2637 13.1392 5.2637 12.5892C5.2637 12.3992 5.2637 12.1792 5.2737 11.9592L5.4937 8.1092C5.5537 7.3992 5.8837 6.9092 6.6337 6.9092H10.5137C10.9737 6.9092 11.2937 7.2592 11.2937 7.7292C11.2937 8.2292 10.9937 8.5692 10.5137 8.5692H7.1937L6.9637 11.9992H7.0237C7.3937 11.1692 8.1437 10.7892 8.9837 10.7892C10.8037 10.7892 11.7337 12.5792 11.7337 14.5192C11.7337 16.7492 10.5237 18.5792 8.3237 18.5792ZM16.9637 16.8992C18.1037 16.8992 18.5437 15.0492 18.5437 12.5892C18.5437 10.1492 18.1037 8.2892 16.9637 8.2892C15.8137 8.2892 15.3837 10.1492 15.3837 12.5892C15.3837 15.0492 15.8137 16.8992 16.9637 16.8992Z"
        fillRule="evenodd"
        clipRule="evenodd"
    />
</svg>
        