
<svg
    viewBox="0 0 27.890625 27.890625"
    xmlns="http://www.w3.org/2000/svg"
>
    <path
        fill="inherit"
        d="M13.9427 27.8864C21.6427 27.8864 27.8927 21.6464 27.8927 13.9464C27.8927 6.2464 21.6427 -0.0036 13.9427 -0.0036C6.2527 -0.0036 0.0027 6.2464 0.0027 13.9464C0.0027 21.6464 6.2527 27.8864 13.9427 27.8864ZM13.9427 25.5664C7.5227 25.5664 2.3227 20.3664 2.3227 13.9464C2.3227 7.5164 7.5227 2.3264 13.9427 2.3264C20.3727 2.3264 25.5627 7.5164 25.5627 13.9464C25.5627 20.3664 20.3727 25.5664 13.9427 25.5664ZM13.9727 20.4564C16.7727 20.4564 18.7127 18.6464 18.7127 16.1064C18.7127 13.8464 17.0227 12.1664 14.6327 12.1664C13.7027 12.1664 12.7427 12.5264 12.2927 12.9864L12.1727 12.9464C12.2927 12.7164 12.4827 12.4664 12.9027 11.9264C13.5927 11.0164 14.5027 9.8964 15.1627 9.0364C15.3827 8.7664 15.4927 8.5464 15.4927 8.2864C15.4927 7.8764 15.2127 7.4464 14.5627 7.4464C14.1227 7.4464 13.8627 7.7364 13.6427 8.0164C12.7427 9.1864 11.9227 10.2364 11.2127 11.1864C9.8027 13.0464 9.2027 14.5464 9.2027 16.0264C9.2027 18.6464 11.1327 20.4564 13.9727 20.4564ZM13.9727 18.7264C12.3427 18.7264 11.1327 17.6364 11.1327 16.1864C11.1327 14.7664 12.3327 13.7164 13.9627 13.7164C15.6027 13.7164 16.8027 14.7664 16.8027 16.2164C16.8027 17.6364 15.6027 18.7264 13.9727 18.7264Z"
        fillRule="evenodd"
        clipRule="evenodd"
    />
</svg>
        