
<svg
    viewBox={0 0 25.169921875 25.169921875}
    xmlns="http://www.w3.org/2000/svg"
>
    <path
        fill="inherit"
        d="M4.2937 25.1692H20.8737C23.7437 25.1692 25.1737 23.7592 25.1737 20.9492V4.2392C25.1737 1.4192 23.7437 -0.0008 20.8737 -0.0008H4.2937C1.4337 -0.0008 0.0037 1.4192 0.0037 4.2392V20.9492C0.0037 23.7592 1.4337 25.1692 4.2937 25.1692ZM4.3237 22.9692C2.9537 22.9692 2.2037 22.2392 2.2037 20.8192V4.3592C2.2037 2.9392 2.9537 2.1992 4.3237 2.1992H20.8537C22.2037 2.1992 22.9737 2.9392 22.9737 4.3592V20.8192C22.9737 22.2392 22.2037 22.9692 20.8537 22.9692ZM12.6337 19.0892C15.4337 19.0892 17.3737 17.2792 17.3737 14.7392C17.3737 12.4792 15.6837 10.7992 13.2937 10.7992C12.3637 10.7992 11.4137 11.1592 10.9537 11.6192L10.8237 11.5792C10.9537 11.3492 11.1437 11.0992 11.5637 10.5592C12.2537 9.6492 13.1637 8.5292 13.8337 7.6692C14.0437 7.3992 14.1537 7.1792 14.1537 6.9192C14.1537 6.5092 13.8737 6.0792 13.2237 6.0792C12.7837 6.0792 12.5237 6.3692 12.3037 6.6492C11.4037 7.8192 10.5837 8.8692 9.8737 9.8192C8.4637 11.6792 7.8637 13.1792 7.8637 14.6592C7.8637 17.2792 9.7937 19.0892 12.6337 19.0892ZM12.6337 17.3592C11.0037 17.3592 9.7937 16.2692 9.7937 14.8192C9.7937 13.3992 10.9937 12.3492 12.6237 12.3492C14.2637 12.3492 15.4637 13.3992 15.4637 14.8492C15.4637 16.2692 14.2637 17.3592 12.6337 17.3592Z"
        fillRule="evenodd"
        clipRule="evenodd"
    />
</svg>
        