
<svg
    viewBox={0 0 27.890625 27.890625}
    xmlns="http://www.w3.org/2000/svg"
>
    <path
        fill="inherit"
        d="M13.9427 27.8864C21.6427 27.8864 27.8927 21.6264 27.8927 13.9464C27.8927 6.2464 21.6427 -0.0036 13.9427 -0.0036C6.2627 -0.0036 0.0027 6.2464 0.0027 13.9464C0.0027 21.6264 6.2627 27.8864 13.9427 27.8864ZM14.0527 20.6564C12.4027 20.6564 10.8527 20.0564 9.9527 18.5564C9.3527 17.6064 9.0127 16.1964 9.0127 14.2564C9.0127 9.5564 11.0727 7.2364 14.4127 7.2364C16.2327 7.2364 17.7727 8.1464 18.2127 9.1864C18.2927 9.3964 18.3327 9.5864 18.3327 9.8164C18.3327 10.3064 17.9627 10.6464 17.4827 10.6464C17.0127 10.6464 16.7227 10.4064 16.2727 9.9564C15.8727 9.4564 15.3127 9.0364 14.3427 9.0364C12.4027 9.0364 11.0927 10.8864 11.0927 13.7664V13.9164H11.1927C11.6527 12.8964 12.7527 11.9364 14.6427 11.9364C16.8727 11.9364 18.8927 13.4364 18.8927 16.1164C18.8927 19.0064 16.9027 20.6564 14.0527 20.6564ZM13.9627 18.9664C15.6127 18.9664 16.6827 17.8664 16.6827 16.2164C16.6827 14.6464 15.5727 13.5464 13.9727 13.5464C12.3827 13.5464 11.2627 14.6564 11.2627 16.1964C11.2627 17.7964 12.4027 18.9664 13.9627 18.9664Z"
        fillRule="evenodd"
        clipRule="evenodd"
    />
</svg>
        