
<svg
    viewBox={0 0 27.890625 27.890625}
    xmlns="http://www.w3.org/2000/svg"
>
    <path
        fill="inherit"
        d="M13.9427 27.8864C21.6427 27.8864 27.8927 21.6464 27.8927 13.9464C27.8927 6.2464 21.6427 -0.0036 13.9427 -0.0036C6.2527 -0.0036 0.0027 6.2464 0.0027 13.9464C0.0027 21.6464 6.2527 27.8864 13.9427 27.8864ZM13.9427 25.5664C7.5227 25.5664 2.3227 20.3664 2.3227 13.9464C2.3227 7.5164 7.5227 2.3264 13.9427 2.3264C20.3727 2.3264 25.5627 7.5164 25.5627 13.9464C25.5627 20.3664 20.3727 25.5664 13.9427 25.5664ZM14.0427 20.4564C16.7927 20.4564 18.7327 18.8564 18.7327 16.0464C18.7327 13.4564 16.7627 12.0064 14.6027 12.0064C12.7727 12.0064 11.7027 12.9364 11.2627 13.9164H11.1527V13.7764C11.1527 10.9764 12.4327 9.1764 14.3127 9.1764C15.2627 9.1764 15.8027 9.5964 16.1827 10.0764C16.6227 10.5164 16.9027 10.7464 17.3627 10.7464C17.8327 10.7464 18.1827 10.4164 18.1827 9.9364C18.1827 9.7164 18.1427 9.5264 18.0627 9.3364C17.6327 8.3264 16.1427 7.4364 14.3827 7.4364C11.1527 7.4364 9.1427 9.6964 9.1427 14.2464C9.1427 16.1364 9.4927 17.4964 10.0627 18.4164C10.9327 19.8664 12.4327 20.4564 14.0427 20.4564ZM13.9427 18.8164C12.4327 18.8164 11.3327 17.6864 11.3327 16.1364C11.3327 14.6264 12.4127 13.5664 13.9627 13.5664C15.5127 13.5664 16.5827 14.6164 16.5827 16.1464C16.5827 17.7564 15.5627 18.8164 13.9427 18.8164Z"
        fillRule="evenodd"
        clipRule="evenodd"
    />
</svg>
        