<svg viewBox="0 0 25.169921875 20.603515625" xmlns="http://www.w3.org/2000/svg"><path d="M0.0037 19.4923C0.0037 20.1023 0.4937 20.6023 1.0937 20.6023C1.7137 20.6023 2.2037 20.1023 2.2037 19.4923V1.0923C2.2037 0.4923 1.7137 0.0023 1.0937 0.0023C0.4937 0.0023 0.0037 0.4923 0.0037 1.0923ZM22.9737 19.4923C22.9737 20.1023 23.4737 20.6023 24.0737 20.6023C24.6737 20.6023 25.1737 20.1023 25.1737 19.4923V1.0923C25.1737 0.4923 24.6737 0.0023 24.0737 0.0023C23.4737 0.0023 22.9737 0.4923 22.9737 1.0923ZM12.7837 16.7923C15.0937 16.7923 16.6937 15.0623 16.6937 12.6023C16.6937 10.4223 15.4337 8.7523 13.4137 8.7523C12.0137 8.7523 11.0337 9.5823 10.6537 10.7823H10.5937C10.5937 9.7023 10.6637 8.9123 10.8237 8.2423C11.1037 7.1523 11.6637 6.1223 12.7837 6.1223C13.5537 6.1223 14.0637 6.5223 14.4137 7.2023C14.6437 7.6023 14.9437 7.8623 15.4037 7.8623C16.0537 7.8623 16.2937 7.4123 16.2937 6.9723C16.2937 6.6823 16.2237 6.4123 16.1037 6.1623C15.6137 5.0823 14.3137 4.3723 12.8137 4.3723C9.8537 4.3723 8.7637 7.1523 8.6437 9.9823C8.5137 11.2523 8.6437 12.6423 8.9837 13.7223C9.5837 15.5023 10.8437 16.7923 12.7837 16.7923ZM12.7537 15.0423C11.5637 15.0423 10.8937 13.8223 10.8937 12.6323C10.8937 11.4023 11.6237 10.3723 12.7737 10.3723C13.9637 10.3723 14.6037 11.4723 14.6037 12.6923C14.6037 13.8923 13.9137 15.0423 12.7537 15.0423Z" /></svg>