
<svg
    viewBox={0 0 25.169921875 25.169921875}
    xmlns="http://www.w3.org/2000/svg"
>
    <path
        fill="inherit"
        d="M4.2937 25.1692H20.8737C23.7437 25.1692 25.1737 23.7592 25.1737 20.9492V4.2392C25.1737 1.4192 23.7437 -0.0008 20.8737 -0.0008H4.2937C1.4337 -0.0008 0.0037 1.4192 0.0037 4.2392V20.9492C0.0037 23.7592 1.4337 25.1692 4.2937 25.1692ZM12.7037 19.2892C11.0437 19.2892 9.5037 18.6892 8.6037 17.1892C7.9937 16.2392 7.6537 14.8292 7.6537 12.8892C7.6537 8.1892 9.7237 5.8692 13.0537 5.8692C14.8937 5.8692 16.4237 6.7792 16.8537 7.8192C16.9437 8.0292 16.9937 8.2192 16.9937 8.4492C16.9937 8.9392 16.6137 9.2792 16.1337 9.2792C15.6537 9.2792 15.3637 9.0392 14.9337 8.5892C14.5237 8.0892 13.9637 7.6692 12.9837 7.6692C11.0637 7.6692 9.7337 9.5192 9.7337 12.3992V12.5492H9.8437C10.3037 11.5292 11.4037 10.5692 13.2937 10.5692C15.5137 10.5692 17.5437 12.0692 17.5437 14.7492C17.5437 17.6392 15.5437 19.2892 12.7037 19.2892ZM12.6237 17.5992C14.2637 17.5992 15.3237 16.4992 15.3237 14.8492C15.3237 13.2792 14.2237 12.1792 12.6237 12.1792C11.0337 12.1792 9.9137 13.2892 9.9137 14.8292C9.9137 16.4292 11.0437 17.5992 12.6237 17.5992Z"
        fillRule="evenodd"
        clipRule="evenodd"
    />
</svg>
        