
<svg
    viewBox="0 0 25.169921875 25.169921875"
    xmlns="http://www.w3.org/2000/svg"
>
    <path
        fill="inherit"
        d="M4.2937 25.1692H20.8737C23.7437 25.1692 25.1737 23.7592 25.1737 20.9492V4.2392C25.1737 1.4192 23.7437 -0.0008 20.8737 -0.0008H4.2937C1.4337 -0.0008 0.0037 1.4192 0.0037 4.2392V20.9492C0.0037 23.7592 1.4337 25.1692 4.2937 25.1692ZM4.3237 22.9692C2.9537 22.9692 2.2037 22.2392 2.2037 20.8192V4.3592C2.2037 2.9392 2.9537 2.1992 4.3237 2.1992H20.8537C22.2037 2.1992 22.9737 2.9392 22.9737 4.3592V20.8192C22.9737 22.2392 22.2037 22.9692 20.8537 22.9692ZM12.7037 19.0892C15.4537 19.0892 17.3937 17.4892 17.3937 14.6792C17.3937 12.0892 15.4237 10.6392 13.2637 10.6392C11.4337 10.6392 10.3737 11.5692 9.9237 12.5492H9.8137V12.4092C9.8137 9.6092 11.1037 7.8092 12.9737 7.8092C13.9137 7.8092 14.4637 8.2292 14.8637 8.7092C15.2837 9.1492 15.5537 9.3792 16.0237 9.3792C16.4837 9.3792 16.8537 9.0492 16.8537 8.5692C16.8537 8.3492 16.8037 8.1592 16.7237 7.9692C16.2937 6.9592 14.8237 6.0692 13.0437 6.0692C9.8137 6.0692 7.8037 8.3292 7.8037 12.8792C7.8037 14.7692 8.1437 16.1292 8.7237 17.0492C9.5937 18.4992 11.0837 19.0892 12.7037 19.0892ZM12.6237 17.4492C11.0837 17.4492 9.9937 16.3192 9.9937 14.7692C9.9937 13.2592 11.0737 12.1992 12.6237 12.1992C14.1737 12.1992 15.2437 13.2492 15.2437 14.7792C15.2437 16.3892 14.2237 17.4492 12.6237 17.4492Z"
        fillRule="evenodd"
        clipRule="evenodd"
    />
</svg>
        