
<svg
    viewBox="0 0 27.890625 30.544813437289537"
    xmlns="http://www.w3.org/2000/svg"
>
    <path
        fill="inherit"
        d="M13.9427 30.5406C21.6427 30.5406 27.8927 24.3006 27.8927 16.6006C27.8927 9.7806 22.9827 4.1206 16.5827 2.9106V0.9706C16.5827 -0.0094 15.9127 -0.2594 15.1527 0.2706L10.8027 3.3406C10.1727 3.7906 10.1827 4.4406 10.8027 4.8806L15.1627 7.9406C15.9127 8.4606 16.5827 8.2206 16.5827 7.2506V5.2806C21.7227 6.4706 25.5627 11.0506 25.5627 16.6006C25.5627 23.0206 20.3727 28.2206 13.9427 28.2206C7.5227 28.2206 2.3227 23.0206 2.3227 16.6006C2.3227 12.7006 4.2427 9.2706 7.1327 7.1906C7.6927 6.7706 7.8727 6.1306 7.5327 5.5506C7.1927 5.0106 6.4127 4.8406 5.8127 5.3106C2.2827 7.8506 0.0027 11.9106 0.0027 16.6006C0.0027 24.3006 6.2527 30.5406 13.9427 30.5406ZM18.4427 22.3006C21.1527 22.3006 22.0827 19.5406 22.0827 16.8406C22.0827 14.1506 21.1327 11.4006 18.4427 11.4006C15.7527 11.4006 14.8027 14.1706 14.8027 16.8406C14.8027 19.5706 15.7627 22.3006 18.4427 22.3006ZM9.8027 22.3106C11.8227 22.3106 13.2327 20.8006 13.2327 18.6406C13.2327 16.7406 12.1427 15.2606 10.3627 15.2606C9.1327 15.2606 8.2727 15.9806 7.9327 17.0506H7.8727C7.8727 16.1106 7.9427 15.4006 8.0927 14.8106C8.3227 13.8506 8.8227 12.9506 9.8027 12.9506C10.4827 12.9506 10.9327 13.3006 11.2427 13.9106C11.4427 14.2506 11.6927 14.4806 12.1027 14.4806C12.6727 14.4806 12.8927 14.0806 12.8927 13.7006C12.8927 13.4406 12.8427 13.2106 12.7327 12.9906C12.2927 12.0506 11.1527 11.4206 9.8327 11.4206C7.2327 11.4206 6.2727 13.8506 6.1627 16.3306C6.0527 17.4606 6.1627 18.6906 6.4827 19.6306C7.0027 21.1906 8.1027 22.3106 9.8027 22.3106ZM18.4427 20.7606C17.3127 20.7606 16.7327 19.0706 16.7327 16.8406C16.7327 14.6306 17.3127 12.9606 18.4427 12.9606C19.5927 12.9606 20.1627 14.6306 20.1627 16.8406C20.1627 19.0706 19.5927 20.7606 18.4427 20.7606ZM9.7727 20.7806C8.7327 20.7806 8.1527 19.7206 8.1527 18.6606C8.1527 17.5806 8.7727 16.6806 9.7927 16.6806C10.8427 16.6806 11.4027 17.6406 11.4027 18.7206C11.4027 19.7806 10.8127 20.7806 9.7727 20.7806Z"
        fillRule="evenodd"
        clipRule="evenodd"
    />
</svg>
        