
<svg
    viewBox={0 0 27.890625 27.890625}
    xmlns="http://www.w3.org/2000/svg"
>
    <path
        fill="inherit"
        d="M13.9427 27.8864C21.6427 27.8864 27.8927 21.6464 27.8927 13.9464C27.8927 6.2464 21.6427 -0.0036 13.9427 -0.0036C6.2527 -0.0036 0.0027 6.2464 0.0027 13.9464C0.0027 21.6464 6.2527 27.8864 13.9427 27.8864ZM13.9427 25.5664C7.5227 25.5664 2.3227 20.3664 2.3227 13.9464C2.3227 7.5164 7.5227 2.3264 13.9427 2.3264C20.3727 2.3264 25.5627 7.5164 25.5627 13.9464C25.5627 20.3664 20.3727 25.5664 13.9427 25.5664ZM12.1027 20.4364C12.5627 20.4364 12.8827 20.2164 13.1627 19.6864L18.2627 10.1264C18.5227 9.6364 18.5927 9.3564 18.5927 9.0664C18.5927 8.3164 17.9927 7.7564 17.1027 7.7564H10.4227C9.9427 7.7564 9.6127 8.0964 9.6127 8.5864C9.6127 9.0764 9.9527 9.4364 10.4227 9.4364H16.2327V9.5464L11.1927 18.7564C11.0627 18.9864 11.0027 19.1864 11.0027 19.4564C11.0027 20.0264 11.4827 20.4364 12.1027 20.4364Z"
        fillRule="evenodd"
        clipRule="evenodd"
    />
</svg>
        