<svg viewBox="0 0 27.890625 27.890625" xmlns="http://www.w3.org/2000/svg"><path d="M13.9427 27.8864C21.6427 27.8864 27.8927 21.6264 27.8927 13.9464C27.8927 6.2464 21.6427 -0.0036 13.9427 -0.0036C6.2627 -0.0036 0.0027 6.2464 0.0027 13.9464C0.0027 21.6264 6.2627 27.8864 13.9427 27.8864ZM12.0427 20.6464C11.4327 20.6464 10.9227 20.2164 10.9227 19.6164C10.9227 19.3364 10.9927 19.1364 11.1127 18.8964L16.2927 9.4064V9.2964H10.3127C9.8327 9.2964 9.4727 8.9264 9.4727 8.4264C9.4727 7.9064 9.8127 7.5464 10.3127 7.5464H17.2127C18.1327 7.5464 18.7627 8.1364 18.7627 8.9164C18.7627 9.2164 18.6927 9.5064 18.4127 10.0264L13.1527 19.8664C12.8827 20.4164 12.5327 20.6464 12.0427 20.6464Z" /></svg>