
<svg
    viewBox="0 0 25.169921875 20.603515625"
    xmlns="http://www.w3.org/2000/svg"
>
    <path
        fill="inherit"
        d="M0.0037 19.4923C0.0037 20.1023 0.4937 20.6023 1.0937 20.6023C1.7137 20.6023 2.2037 20.1023 2.2037 19.4923V1.0923C2.2037 0.4923 1.7137 0.0023 1.0937 0.0023C0.4937 0.0023 0.0037 0.4923 0.0037 1.0923ZM22.9737 19.4923C22.9737 20.1023 23.4737 20.6023 24.0737 20.6023C24.6737 20.6023 25.1737 20.1023 25.1737 19.4923V1.0923C25.1737 0.4923 24.6737 0.0023 24.0737 0.0023C23.4737 0.0023 22.9737 0.4923 22.9737 1.0923ZM11.1737 16.6823C11.6937 16.6823 11.9537 16.4623 12.1437 15.9823L15.9537 7.0723C16.1337 6.6623 16.2737 6.2623 16.2737 5.8123C16.2737 5.0623 15.7237 4.6723 15.0637 4.6723H9.7237C9.2037 4.6723 8.8637 5.0223 8.8637 5.5323C8.8637 6.0423 9.2037 6.4023 9.7237 6.4023H14.0937V6.5123L10.3537 14.9723C10.2437 15.2423 10.1537 15.4723 10.1537 15.7723C10.1537 16.3123 10.5837 16.6823 11.1737 16.6823Z"
        fillRule="evenodd"
        clipRule="evenodd"
    />
</svg>
        