<svg viewBox="0 0 25.169921875 25.169921875" xmlns="http://www.w3.org/2000/svg"><path d="M4.2937 25.1692H20.8737C23.7437 25.1692 25.1737 23.7592 25.1737 20.9492V4.2392C25.1737 1.4192 23.7437 -0.0008 20.8737 -0.0008H4.2937C1.4337 -0.0008 0.0037 1.4192 0.0037 4.2392V20.9492C0.0037 23.7592 1.4337 25.1692 4.2937 25.1692ZM4.3237 22.9692C2.9537 22.9692 2.2037 22.2392 2.2037 20.8192V4.3592C2.2037 2.9392 2.9537 2.1992 4.3237 2.1992H20.8537C22.2037 2.1992 22.9737 2.9392 22.9737 4.3592V20.8192C22.9737 22.2392 22.2037 22.9692 20.8537 22.9692ZM10.7637 19.0692C11.2237 19.0692 11.5537 18.8492 11.8237 18.3192L16.9237 8.7592C17.1837 8.2692 17.2537 7.9892 17.2537 7.6992C17.2537 6.9492 16.6637 6.3892 15.7637 6.3892H9.0937C8.6037 6.3892 8.2737 6.7292 8.2737 7.2192C8.2737 7.7092 8.6137 8.0692 9.0937 8.0692H14.8937V8.1792L9.8537 17.3892C9.7237 17.6192 9.6637 17.8192 9.6637 18.0892C9.6637 18.6592 10.1537 19.0692 10.7637 19.0692Z" /></svg>