
<svg
    viewBox="0 0 25.169921875 25.169921875"
    xmlns="http://www.w3.org/2000/svg"
>
    <path
        fill="inherit"
        d="M4.2937 25.1692H20.8737C23.7437 25.1692 25.1737 23.7592 25.1737 20.9492V4.2392C25.1737 1.4192 23.7437 -0.0008 20.8737 -0.0008H4.2937C1.4337 -0.0008 0.0037 1.4192 0.0037 4.2392V20.9492C0.0037 23.7592 1.4337 25.1692 4.2937 25.1692ZM10.6937 19.2792C10.0737 19.2792 9.5737 18.8492 9.5737 18.2492C9.5737 17.9692 9.6437 17.7692 9.7737 17.5292L14.9437 8.0392V7.9292H8.9737C8.4737 7.9292 8.1237 7.5592 8.1237 7.0592C8.1237 6.5392 8.4637 6.1792 8.9737 6.1792H15.8637C16.7937 6.1792 17.4037 6.7692 17.4037 7.5492C17.4037 7.8492 17.3337 8.1392 17.0637 8.6592L11.8137 18.4992C11.5237 19.0492 11.1837 19.2792 10.6937 19.2792Z"
        fillRule="evenodd"
        clipRule="evenodd"
    />
</svg>
        