<svg viewBox="0 0 27.890625 30.544813437289537" xmlns="http://www.w3.org/2000/svg"><path d="M13.9427 30.5406C21.6427 30.5406 27.8927 24.3006 27.8927 16.6006C27.8927 9.7806 22.9827 4.1206 16.5827 2.9106V0.9706C16.5827 -0.0094 15.9127 -0.2594 15.1527 0.2706L10.8027 3.3406C10.1727 3.7906 10.1827 4.4406 10.8027 4.8806L15.1627 7.9406C15.9127 8.4606 16.5827 8.2206 16.5827 7.2506V5.2806C21.7227 6.4706 25.5627 11.0506 25.5627 16.6006C25.5627 23.0206 20.3727 28.2206 13.9427 28.2206C7.5227 28.2206 2.3227 23.0206 2.3227 16.6006C2.3227 12.7006 4.2427 9.2706 7.1327 7.1906C7.6927 6.7706 7.8727 6.1306 7.5327 5.5506C7.1927 5.0106 6.4127 4.8406 5.8127 5.3106C2.2827 7.8506 0.0027 11.9106 0.0027 16.6006C0.0027 24.3006 6.2527 30.5406 13.9427 30.5406ZM8.2327 22.2206C8.6727 22.2206 8.9027 22.0106 9.0827 21.6006L12.4327 13.7806C12.5827 13.4306 12.7027 13.0706 12.7027 12.6906C12.7027 12.0106 12.2227 11.6806 11.6527 11.6806H6.9627C6.5127 11.6806 6.1927 11.9906 6.1927 12.4406C6.1927 12.8906 6.5127 13.1906 6.9627 13.1906H10.8127V13.2806L7.5027 20.7106C7.4127 20.9606 7.3427 21.1706 7.3427 21.4306C7.3427 21.9006 7.7127 22.2206 8.2327 22.2206ZM17.5727 22.3306C19.7027 22.3306 21.0227 20.7406 21.0227 18.6106C21.0227 16.7806 19.9927 15.2006 18.1927 15.2006C17.2627 15.2006 16.5127 15.6106 16.1327 16.3306H16.0827L16.3227 13.2106H19.8127C20.2627 13.2106 20.5627 12.9106 20.5627 12.4406C20.5627 11.9806 20.2727 11.6806 19.8127 11.6806H15.8427C15.1327 11.6806 14.8027 12.0506 14.7527 12.7706L14.4627 16.7506C14.4127 17.3506 14.7427 17.8006 15.3427 17.8006C15.7727 17.8006 15.9727 17.6406 16.2427 17.3106C16.5727 16.8706 17.0327 16.6006 17.5927 16.6006C18.6527 16.6006 19.2127 17.5706 19.2127 18.6506C19.2127 19.8306 18.6027 20.7806 17.5727 20.7806C16.7527 20.7806 16.2027 20.2606 15.9427 19.5506C15.7527 19.1706 15.4727 18.9806 15.1227 18.9806C14.6327 18.9806 14.3327 19.2806 14.3327 19.7706C14.3327 19.9206 14.3527 20.0906 14.3927 20.2506C14.7427 21.5506 16.2527 22.3306 17.5727 22.3306Z" /></svg>