
<svg
    viewBox={0 0 27.890625 27.890625}
    xmlns="http://www.w3.org/2000/svg"
>
    <path
        fill="inherit"
        d="M13.9427 27.8864C21.6427 27.8864 27.8927 21.6464 27.8927 13.9464C27.8927 6.2464 21.6427 -0.0036 13.9427 -0.0036C6.2527 -0.0036 0.0027 6.2464 0.0027 13.9464C0.0027 21.6464 6.2527 27.8864 13.9427 27.8864ZM13.9427 25.5664C7.5227 25.5664 2.3227 20.3664 2.3227 13.9464C2.3227 7.5164 7.5227 2.3264 13.9427 2.3264C20.3727 2.3264 25.5627 7.5164 25.5627 13.9464C25.5627 20.3664 20.3727 25.5664 13.9427 25.5664ZM13.9027 20.4564C16.8127 20.4564 18.8027 18.9464 18.8027 16.7464C18.8027 15.2264 17.6827 13.9764 16.0527 13.6464V13.5664C17.4027 13.1664 18.2627 12.0764 18.2627 10.7464C18.2627 8.7864 16.4727 7.4364 13.9327 7.4364C11.3927 7.4364 9.5927 8.7864 9.5927 10.7464C9.5927 12.0764 10.4327 13.1364 11.8127 13.5664V13.6464C10.1727 13.9764 9.0827 15.2464 9.0827 16.7664C9.0827 18.9764 11.0027 20.4564 13.9027 20.4564ZM13.9327 12.9464C12.5827 12.9464 11.6027 12.0964 11.6027 10.9264C11.6027 9.7764 12.5627 8.9364 13.9327 8.9364C15.3027 8.9364 16.2527 9.7764 16.2527 10.9264C16.2527 12.0964 15.2827 12.9464 13.9327 12.9464ZM13.9427 18.9464C12.3327 18.9464 11.1527 17.9964 11.1527 16.6564C11.1527 15.3564 12.3427 14.3864 13.9427 14.3864C15.5727 14.3864 16.7327 15.3364 16.7327 16.6564C16.7327 17.9964 15.5427 18.9464 13.9427 18.9464Z"
        fillRule="evenodd"
        clipRule="evenodd"
    />
</svg>
        