
<svg
    viewBox={0 0 27.890625 27.890625}
    xmlns="http://www.w3.org/2000/svg"
>
    <path
        fill="inherit"
        d="M13.9427 27.8864C21.6427 27.8864 27.8927 21.6264 27.8927 13.9464C27.8927 6.2464 21.6427 -0.0036 13.9427 -0.0036C6.2627 -0.0036 0.0027 6.2464 0.0027 13.9464C0.0027 21.6264 6.2627 27.8864 13.9427 27.8864ZM13.9227 20.6564C10.9227 20.6564 8.9327 19.1364 8.9327 16.8564C8.9327 15.2864 10.0627 13.9764 11.7627 13.6264V13.5464C10.3327 13.1064 9.4727 12.0164 9.4727 10.6664C9.4727 8.6264 11.3227 7.2364 13.9427 7.2364C16.5727 7.2364 18.4127 8.6264 18.4127 10.6664C18.4127 12.0164 17.5227 13.1364 16.1327 13.5464V13.6264C17.8127 13.9764 18.9727 15.2764 18.9727 16.8464C18.9727 19.1164 16.9227 20.6564 13.9227 20.6564ZM13.9427 12.9064C15.3427 12.9064 16.3427 12.0464 16.3427 10.8264C16.3427 9.6564 15.3527 8.8064 13.9427 8.8064C12.5327 8.8064 11.5527 9.6564 11.5527 10.8264C11.5527 12.0464 12.5527 12.9064 13.9427 12.9064ZM13.9627 19.0964C15.6027 19.0964 16.8327 18.1164 16.8327 16.7364C16.8327 15.3764 15.6427 14.3964 13.9627 14.3964C12.3227 14.3964 11.0927 15.3964 11.0927 16.7364C11.0927 18.1164 12.3027 19.0964 13.9627 19.0964Z"
        fillRule="evenodd"
        clipRule="evenodd"
    />
</svg>
        