
<svg
    viewBox="0 0 25.169921875 20.603515625"
    xmlns="http://www.w3.org/2000/svg"
>
    <path
        fill="inherit"
        d="M0.0037 19.4923C0.0037 20.1023 0.4937 20.6023 1.0937 20.6023C1.7137 20.6023 2.2037 20.1023 2.2037 19.4923V1.0923C2.2037 0.4923 1.7137 0.0023 1.0937 0.0023C0.4937 0.0023 0.0037 0.4923 0.0037 1.0923ZM22.9737 19.4923C22.9737 20.1023 23.4737 20.6023 24.0737 20.6023C24.6737 20.6023 25.1737 20.1023 25.1737 19.4923V1.0923C25.1737 0.4923 24.6737 0.0023 24.0737 0.0023C23.4737 0.0023 22.9737 0.4923 22.9737 1.0923ZM12.5737 16.7623C14.7937 16.7623 16.7637 15.5623 16.7637 13.3023C16.7637 11.7423 15.7537 10.5723 14.3437 10.2723V10.2423C15.5337 9.8823 16.3937 8.8823 16.3937 7.6023C16.3937 5.6223 14.7137 4.4123 12.5737 4.4123C10.5037 4.4123 8.7637 5.6223 8.7637 7.5923C8.7637 8.8823 9.6437 9.8823 10.8537 10.2423V10.2723C9.4637 10.5523 8.4037 11.7423 8.4037 13.2923C8.4037 15.5023 10.3037 16.7623 12.5737 16.7623ZM12.5737 9.5523C11.5637 9.5523 10.9137 8.8023 10.9137 7.8023C10.9137 6.7723 11.5537 6.0123 12.5937 6.0123C13.6837 6.0123 14.2737 6.8223 14.2737 7.8023C14.2737 8.8223 13.6037 9.5523 12.5737 9.5523ZM12.5737 15.1523C11.4137 15.1523 10.6637 14.2723 10.6637 13.1423C10.6637 12.0223 11.4137 11.1723 12.5737 11.1723C13.7637 11.1723 14.5037 11.9923 14.5037 13.1423C14.5037 14.3023 13.7537 15.1523 12.5737 15.1523Z"
        fillRule="evenodd"
        clipRule="evenodd"
    />
</svg>
        