
<svg
    viewBox="0 0 25.169921875 25.169921875"
    xmlns="http://www.w3.org/2000/svg"
>
    <path
        fill="inherit"
        d="M4.2937 25.1692H20.8737C23.7437 25.1692 25.1737 23.7592 25.1737 20.9492V4.2392C25.1737 1.4192 23.7437 -0.0008 20.8737 -0.0008H4.2937C1.4337 -0.0008 0.0037 1.4192 0.0037 4.2392V20.9492C0.0037 23.7592 1.4337 25.1692 4.2937 25.1692ZM4.3237 22.9692C2.9537 22.9692 2.2037 22.2392 2.2037 20.8192V4.3592C2.2037 2.9392 2.9537 2.1992 4.3237 2.1992H20.8537C22.2037 2.1992 22.9737 2.9392 22.9737 4.3592V20.8192C22.9737 22.2392 22.2037 22.9692 20.8537 22.9692ZM12.5637 19.0892C15.4737 19.0892 17.4637 17.5792 17.4637 15.3792C17.4637 13.8592 16.3337 12.6092 14.7137 12.2792V12.1992C16.0737 11.7992 16.9237 10.7092 16.9237 9.3792C16.9237 7.4192 15.1337 6.0692 12.5937 6.0692C10.0537 6.0692 8.2537 7.4192 8.2537 9.3792C8.2537 10.7092 9.0937 11.7692 10.4837 12.1992V12.2792C8.8337 12.6092 7.7337 13.8792 7.7337 15.3992C7.7337 17.6092 9.6637 19.0892 12.5637 19.0892ZM12.5937 11.5792C11.2337 11.5792 10.2637 10.7292 10.2637 9.5592C10.2637 8.4092 11.2237 7.5692 12.5937 7.5692C13.9637 7.5692 14.9337 8.4092 14.9337 9.5592C14.9337 10.7292 13.9637 11.5792 12.5937 11.5792ZM12.6037 17.5792C10.9937 17.5792 9.8137 16.6292 9.8137 15.2892C9.8137 13.9892 11.0037 13.0192 12.6037 13.0192C14.2437 13.0192 15.3937 13.9692 15.3937 15.2892C15.3937 16.6292 14.2237 17.5792 12.6037 17.5792Z"
        fillRule="evenodd"
        clipRule="evenodd"
    />
</svg>
        