<svg viewBox="0 0 25.169921875 25.169921875" xmlns="http://www.w3.org/2000/svg"><path d="M4.2937 25.1692H20.8737C23.7437 25.1692 25.1737 23.7592 25.1737 20.9492V4.2392C25.1737 1.4192 23.7437 -0.0008 20.8737 -0.0008H4.2937C1.4337 -0.0008 0.0037 1.4192 0.0037 4.2392V20.9492C0.0037 23.7592 1.4337 25.1692 4.2937 25.1692ZM12.5637 19.2892C9.5737 19.2892 7.5737 17.7692 7.5737 15.4892C7.5737 13.9192 8.7137 12.6092 10.4137 12.2592V12.1792C8.9837 11.7392 8.1237 10.6492 8.1237 9.2992C8.1237 7.2592 9.9637 5.8692 12.5937 5.8692C15.2137 5.8692 17.0637 7.2592 17.0637 9.2992C17.0637 10.6492 16.1837 11.7692 14.7837 12.1792V12.2592C16.4637 12.6092 17.6237 13.9092 17.6237 15.4792C17.6237 17.7492 15.5737 19.2892 12.5637 19.2892ZM12.5937 11.5392C14.0037 11.5392 14.9937 10.6792 14.9937 9.4592C14.9937 8.2892 14.0037 7.4392 12.5937 7.4392C11.1837 7.4392 10.2037 8.2892 10.2037 9.4592C10.2037 10.6792 11.1937 11.5392 12.5937 11.5392ZM12.6037 17.7292C14.2637 17.7292 15.4737 16.7492 15.4737 15.3692C15.4737 14.0092 14.3037 13.0292 12.6037 13.0292C10.9637 13.0292 9.7337 14.0292 9.7337 15.3692C9.7337 16.7492 10.9537 17.7292 12.6037 17.7292Z" /></svg>