
<svg
    viewBox={0 0 27.890625 27.890625}
    xmlns="http://www.w3.org/2000/svg"
>
    <path
        fill="inherit"
        d="M13.9427 27.8864C21.6427 27.8864 27.8927 21.6264 27.8927 13.9464C27.8927 6.2464 21.6427 -0.0036 13.9427 -0.0036C6.2627 -0.0036 0.0027 6.2464 0.0027 13.9464C0.0027 21.6264 6.2627 27.8864 13.9427 27.8864ZM9.0527 11.7164C9.0527 9.0764 11.0627 7.2364 13.9827 7.2364C16.9127 7.2364 18.9227 9.0964 18.9227 11.8264C18.9227 13.3564 18.3027 14.7964 17.0127 16.5264C16.2427 17.5264 15.1927 18.8964 14.4527 19.8064C14.0527 20.3164 13.8327 20.6464 13.2927 20.6464C12.7127 20.6464 12.3427 20.2364 12.3427 19.8064C12.3427 19.5364 12.4527 19.2764 12.6827 19.0064C13.5227 17.9764 14.4527 16.8564 15.2327 15.8564C15.5427 15.4864 15.7627 15.1864 15.8727 14.9864H15.6927C15.2127 15.4764 14.2227 15.8064 13.2927 15.8064C10.8427 15.8064 9.0527 14.0864 9.0527 11.7164ZM11.0427 11.6364C11.0427 13.1264 12.3227 14.2164 14.0027 14.2164C15.6527 14.2164 16.9127 13.1364 16.9127 11.6364C16.9127 10.1564 15.6427 9.0364 13.9827 9.0364C12.3227 9.0364 11.0427 10.1464 11.0427 11.6364Z"
        fillRule="evenodd"
        clipRule="evenodd"
    />
</svg>
        