
<svg
    viewBox="0 0 27.890625 27.890625"
    xmlns="http://www.w3.org/2000/svg"
>
    <path
        fill="inherit"
        d="M13.9427 27.8864C21.6427 27.8864 27.8927 21.6464 27.8927 13.9464C27.8927 6.2464 21.6427 -0.0036 13.9427 -0.0036C6.2527 -0.0036 0.0027 6.2464 0.0027 13.9464C0.0027 21.6464 6.2527 27.8864 13.9427 27.8864ZM13.9427 25.5664C7.5227 25.5664 2.3227 20.3664 2.3227 13.9464C2.3227 7.5164 7.5227 2.3264 13.9427 2.3264C20.3727 2.3264 25.5627 7.5164 25.5627 13.9464C25.5627 20.3664 20.3727 25.5664 13.9427 25.5664ZM9.1827 11.7864C9.1827 14.0864 10.9227 15.7464 13.3027 15.7464C14.2027 15.7464 15.1727 15.4264 15.6427 14.9464H15.8027C15.6927 15.1464 15.4927 15.4364 15.1927 15.8064C14.4327 16.7664 13.5327 17.8564 12.7127 18.8564C12.4927 19.1164 12.3827 19.3764 12.3827 19.6364C12.3827 20.0464 12.7427 20.4364 13.2927 20.4364C13.8227 20.4364 14.0227 20.1264 14.4127 19.6364C15.1327 18.7464 16.1627 17.4164 16.9027 16.4464C18.1527 14.7664 18.7627 13.3664 18.7627 11.8964C18.7627 9.2464 16.8027 7.4364 13.9727 7.4364C11.1427 7.4364 9.1827 9.2264 9.1827 11.7864ZM11.1127 11.7064C11.1127 10.2564 12.3427 9.1764 13.9727 9.1764C15.5827 9.1764 16.8127 10.2664 16.8127 11.7064C16.8127 13.1664 15.6027 14.2164 13.9827 14.2164C12.3427 14.2164 11.1127 13.1564 11.1127 11.7064Z"
        fillRule="evenodd"
        clipRule="evenodd"
    />
</svg>
        