
<svg
    viewBox={0 0 25.169921875 25.169921875}
    xmlns="http://www.w3.org/2000/svg"
>
    <path
        fill="inherit"
        d="M4.2937 25.1692H20.8737C23.7437 25.1692 25.1737 23.7592 25.1737 20.9492V4.2392C25.1737 1.4192 23.7437 -0.0008 20.8737 -0.0008H4.2937C1.4337 -0.0008 0.0037 1.4192 0.0037 4.2392V20.9492C0.0037 23.7592 1.4337 25.1692 4.2937 25.1692ZM7.6937 10.3492C7.6937 7.7092 9.7037 5.8692 12.6337 5.8692C15.5537 5.8692 17.5637 7.7292 17.5637 10.4592C17.5637 11.9892 16.9537 13.4292 15.6537 15.1592C14.9037 16.1592 13.8337 17.5292 13.1137 18.4392C12.7037 18.9492 12.4837 19.2792 11.9337 19.2792C11.3637 19.2792 10.9937 18.8692 10.9937 18.4392C10.9937 18.1692 11.1037 17.9092 11.3437 17.6392C12.1637 16.6092 13.0937 15.4892 13.8937 14.4892C14.1937 14.1192 14.4137 13.8192 14.5237 13.6192H14.3437C13.8637 14.1092 12.8637 14.4392 11.9337 14.4392C9.4837 14.4392 7.6937 12.7192 7.6937 10.3492ZM9.6937 10.2692C9.6937 11.7592 10.9637 12.8492 12.6437 12.8492C14.3037 12.8492 15.5537 11.7692 15.5537 10.2692C15.5537 8.7892 14.2837 7.6692 12.6337 7.6692C10.9637 7.6692 9.6937 8.7792 9.6937 10.2692Z"
        fillRule="evenodd"
        clipRule="evenodd"
    />
</svg>
        