
<svg
    viewBox={0 0 27.890625 27.890625}
    xmlns="http://www.w3.org/2000/svg"
>
    <path
        fill="inherit"
        d="M13.9427 27.8864C21.6427 27.8864 27.8927 21.6264 27.8927 13.9464C27.8927 6.2464 21.6427 -0.0036 13.9427 -0.0036C6.2627 -0.0036 0.0027 6.2464 0.0027 13.9464C0.0027 21.6264 6.2627 27.8864 13.9427 27.8864ZM13.5927 20.6564C11.2227 20.6564 9.9027 19.4864 9.5527 18.4964C9.5027 18.3364 9.4727 18.1664 9.4727 18.0164C9.4727 17.4764 9.8527 17.1064 10.4027 17.1064C10.8527 17.1064 11.1327 17.3364 11.3727 17.6664C11.9527 18.4564 12.6027 18.8564 13.5727 18.8564C15.5127 18.8564 16.8327 17.0064 16.8027 13.9164H16.7027C16.2527 14.9564 15.1327 15.8864 13.2627 15.8864C11.0627 15.8864 9.0527 14.3864 9.0527 11.7264C9.0527 8.9964 10.9327 7.2364 13.8527 7.2364C17.0227 7.2364 18.8527 9.4364 18.8527 13.4964C18.8527 18.2264 17.0127 20.6564 13.5927 20.6564ZM13.9327 14.2864C15.5027 14.2864 16.6427 13.1764 16.6427 11.6664C16.6427 10.0764 15.4727 8.9164 13.9427 8.9164C12.3227 8.9164 11.2427 9.9964 11.2427 11.6364C11.2427 13.1764 12.3427 14.2864 13.9327 14.2864Z"
        fillRule="evenodd"
        clipRule="evenodd"
    />
</svg>
        