
<svg
    viewBox="0 0 27.890625 27.890625"
    xmlns="http://www.w3.org/2000/svg"
>
    <path
        fill="inherit"
        d="M13.9427 27.8864C21.6427 27.8864 27.8927 21.6464 27.8927 13.9464C27.8927 6.2464 21.6427 -0.0036 13.9427 -0.0036C6.2527 -0.0036 0.0027 6.2464 0.0027 13.9464C0.0027 21.6464 6.2527 27.8864 13.9427 27.8864ZM13.9427 25.5664C7.5227 25.5664 2.3227 20.3664 2.3227 13.9464C2.3227 7.5164 7.5227 2.3264 13.9427 2.3264C20.3727 2.3264 25.5627 7.5164 25.5627 13.9464C25.5627 20.3664 20.3727 25.5664 13.9427 25.5664ZM13.5927 20.4564C16.9027 20.4564 18.6927 18.0864 18.6927 13.5064C18.6927 9.5664 16.9127 7.4364 13.8327 7.4364C11.0227 7.4364 9.1827 9.1464 9.1827 11.7964C9.1827 14.3664 11.1427 15.8364 13.2727 15.8364C15.0927 15.8364 16.1727 14.9264 16.6127 13.9164H16.7027C16.7327 16.9264 15.4627 18.7164 13.5727 18.7164C12.6327 18.7164 11.9927 18.3164 11.4327 17.5564C11.1927 17.2364 10.9327 17.0064 10.5027 17.0064C9.9627 17.0064 9.5927 17.3664 9.5927 17.8964C9.5927 18.0464 9.6227 18.1964 9.6827 18.3564C10.0127 19.3064 11.2927 20.4564 13.5927 20.4564ZM13.9227 14.2864C12.3727 14.2864 11.3027 13.2064 11.3027 11.7064C11.3027 10.1164 12.3427 9.0664 13.9327 9.0664C15.4227 9.0664 16.5427 10.1864 16.5427 11.7264C16.5427 13.2064 15.4527 14.2864 13.9227 14.2864Z"
        fillRule="evenodd"
        clipRule="evenodd"
    />
</svg>
        