<svg viewBox="0 0 25.169921875 20.603515625" xmlns="http://www.w3.org/2000/svg"><path d="M0.0037 19.4923C0.0037 20.1023 0.4937 20.6023 1.0937 20.6023C1.7137 20.6023 2.2037 20.1023 2.2037 19.4923V1.0923C2.2037 0.4923 1.7137 0.0023 1.0937 0.0023C0.4937 0.0023 0.0037 0.4923 0.0037 1.0923ZM22.9737 19.4923C22.9737 20.1023 23.4737 20.6023 24.0737 20.6023C24.6737 20.6023 25.1737 20.1023 25.1737 19.4923V1.0923C25.1737 0.4923 24.6737 0.0023 24.0737 0.0023C23.4737 0.0023 22.9737 0.4923 22.9737 1.0923ZM12.3437 16.7723C15.6237 16.7723 16.6637 13.6023 16.6637 10.4323C16.6637 7.3123 15.4537 4.3623 12.4137 4.3623C10.0937 4.3623 8.5037 6.1123 8.5037 8.5423C8.5037 10.6323 9.7637 12.4123 11.8137 12.4123C13.2437 12.4123 14.2237 11.5123 14.5737 10.3523H14.6037C14.6037 10.4023 14.6037 10.4423 14.6037 10.5023C14.6137 12.4123 14.2437 15.0223 12.4237 15.0223C11.6037 15.0223 11.1137 14.6023 10.7637 13.9323C10.5137 13.5123 10.2437 13.2923 9.7637 13.2923C9.1837 13.2923 8.8737 13.6823 8.8737 14.1923C8.8737 14.6423 9.1737 15.1923 9.5337 15.5623C10.1837 16.3223 11.1937 16.7723 12.3437 16.7723ZM12.4237 10.7723C11.2237 10.7723 10.5937 9.6423 10.5937 8.4623C10.5937 7.2623 11.2537 6.1123 12.4437 6.1123C13.6137 6.1123 14.3037 7.3023 14.3037 8.5023C14.3037 9.7023 13.5937 10.7723 12.4237 10.7723Z" /></svg>