
<svg
    viewBox={0 0 25.169921875 25.169921875}
    xmlns="http://www.w3.org/2000/svg"
>
    <path
        fill="inherit"
        d="M4.2937 25.1692H20.8737C23.7437 25.1692 25.1737 23.7592 25.1737 20.9492V4.2392C25.1737 1.4192 23.7437 -0.0008 20.8737 -0.0008H4.2937C1.4337 -0.0008 0.0037 1.4192 0.0037 4.2392V20.9492C0.0037 23.7592 1.4337 25.1692 4.2937 25.1692ZM12.2537 19.2892C9.8737 19.2892 8.5437 18.1192 8.2037 17.1292C8.1437 16.9692 8.1237 16.7992 8.1237 16.6492C8.1237 16.1092 8.5037 15.7392 9.0537 15.7392C9.5037 15.7392 9.7737 15.9692 10.0237 16.2992C10.6137 17.0892 11.2537 17.4892 12.2237 17.4892C14.1637 17.4892 15.4937 15.6392 15.4637 12.5492H15.3537C14.9037 13.5892 13.7837 14.5192 11.9037 14.5192C9.7037 14.5192 7.6937 13.0192 7.6937 10.3592C7.6937 7.6292 9.5837 5.8692 12.4937 5.8692C15.6637 5.8692 17.5137 8.0692 17.5137 12.1292C17.5137 16.8592 15.6537 19.2892 12.2537 19.2892ZM12.5737 12.9192C14.1537 12.9192 15.2837 11.8092 15.2837 10.2992C15.2837 8.7092 14.1237 7.5492 12.5937 7.5492C10.9637 7.5492 9.8837 8.6292 9.8837 10.2692C9.8837 11.8092 10.9937 12.9192 12.5737 12.9192Z"
        fillRule="evenodd"
        clipRule="evenodd"
    />
</svg>
        