<svg viewBox="0 0 25.169921875 25.169921875" xmlns="http://www.w3.org/2000/svg"><path d="M4.2937 25.1692H20.8737C23.7437 25.1692 25.1737 23.7592 25.1737 20.9492V4.2392C25.1737 1.4192 23.7437 -0.0008 20.8737 -0.0008H4.2937C1.4337 -0.0008 0.0037 1.4192 0.0037 4.2392V20.9492C0.0037 23.7592 1.4337 25.1692 4.2937 25.1692ZM4.3237 22.9692C2.9537 22.9692 2.2037 22.2392 2.2037 20.8192V4.3592C2.2037 2.9392 2.9537 2.1992 4.3237 2.1992H20.8537C22.2037 2.1992 22.9737 2.9392 22.9737 4.3592V20.8192C22.9737 22.2392 22.2037 22.9692 20.8537 22.9692ZM12.2637 19.0892C15.5537 19.0892 17.3637 16.7192 17.3637 12.1392C17.3637 8.1992 15.5737 6.0692 12.4937 6.0692C9.6837 6.0692 7.8437 7.7792 7.8437 10.4292C7.8437 12.9992 9.8037 14.4692 11.9337 14.4692C13.7537 14.4692 14.8337 13.5592 15.2737 12.5492H15.3837C15.4037 15.5592 14.1237 17.3492 12.2337 17.3492C11.2937 17.3492 10.6637 16.9492 10.0937 16.1892C9.8537 15.8692 9.5937 15.6392 9.1637 15.6392C8.6237 15.6392 8.2537 15.9992 8.2537 16.5292C8.2537 16.6792 8.2837 16.8292 8.3437 16.9892C8.6637 17.9392 9.9537 19.0892 12.2637 19.0892ZM12.5737 12.9192C11.0337 12.9192 9.9637 11.8392 9.9637 10.3392C9.9637 8.7492 11.0037 7.6992 12.5937 7.6992C14.0837 7.6992 15.2037 8.8192 15.2037 10.3592C15.2037 11.8392 14.1137 12.9192 12.5737 12.9192Z" /></svg>