
<svg
    viewBox={0 0 27.890625 30.544813437289537}
    xmlns="http://www.w3.org/2000/svg"
>
    <path
        fill="inherit"
        d="M13.9427 30.5406C21.6427 30.5406 27.8927 24.3006 27.8927 16.6006C27.8927 9.7806 22.9827 4.1206 16.5827 2.9106V0.9706C16.5827 -0.0094 15.9127 -0.2594 15.1527 0.2706L10.8027 3.3406C10.1727 3.7906 10.1827 4.4406 10.8027 4.8806L15.1627 7.9406C15.9127 8.4606 16.5827 8.2206 16.5827 7.2506V5.2806C21.7227 6.4706 25.5627 11.0506 25.5627 16.6006C25.5627 23.0206 20.3727 28.2206 13.9427 28.2206C7.5227 28.2206 2.3227 23.0206 2.3227 16.6006C2.3227 12.7006 4.2427 9.2706 7.1327 7.1906C7.6927 6.7706 7.8727 6.1306 7.5327 5.5506C7.1927 5.0106 6.4127 4.8406 5.8127 5.3106C2.2827 7.8506 0.0027 11.9106 0.0027 16.6006C0.0027 24.3006 6.2527 30.5406 13.9427 30.5406ZM18.5527 22.3006C21.2427 22.3006 22.1927 19.5406 22.1927 16.8406C22.1927 14.1506 21.2427 11.4006 18.5527 11.4006C15.8627 11.4006 14.9127 14.1706 14.9127 16.8406C14.9127 19.5706 15.8727 22.3006 18.5527 22.3006ZM9.4927 22.3006C12.3727 22.3006 13.2727 19.5106 13.2727 16.7406C13.2727 14.0006 12.2127 11.4006 9.5427 11.4006C7.5227 11.4006 6.1127 12.9506 6.1127 15.0706C6.1127 16.9106 7.2227 18.4706 9.0227 18.4706C10.2827 18.4706 11.1527 17.6906 11.4527 16.6706H11.4727C11.4727 16.6906 11.4727 16.7506 11.4727 16.7906C11.4827 18.4706 11.1527 20.7706 9.5527 20.7706C8.8427 20.7706 8.4227 20.4006 8.0927 19.8106C7.8927 19.4306 7.6527 19.2406 7.2327 19.2406C6.7127 19.2406 6.4427 19.5906 6.4427 20.0306C6.4427 20.4406 6.7027 20.9106 7.0227 21.2306C7.5927 21.9006 8.4927 22.3006 9.4927 22.3006ZM9.5527 17.0206C8.5127 17.0206 7.9527 16.0406 7.9527 15.0006C7.9527 13.9606 8.5327 12.9506 9.5827 12.9506C10.6127 12.9506 11.2227 13.9706 11.2227 15.0406C11.2227 16.1106 10.5827 17.0206 9.5527 17.0206ZM18.5527 20.7606C17.4227 20.7606 16.8327 19.0706 16.8327 16.8406C16.8327 14.6306 17.4227 12.9606 18.5527 12.9606C19.6827 12.9606 20.2727 14.6306 20.2727 16.8406C20.2727 19.0706 19.7027 20.7606 18.5527 20.7606Z"
        fillRule="evenodd"
        clipRule="evenodd"
    />
</svg>
        