
<svg
    viewBox="0 0 27.890625 27.890625"
    xmlns="http://www.w3.org/2000/svg"
>
    <path
        fill="inherit"
        d="M13.9427 27.8864C21.6427 27.8864 27.8927 21.6464 27.8927 13.9464C27.8927 6.2464 21.6427 -0.0036 13.9427 -0.0036C6.2527 -0.0036 0.0027 6.2464 0.0027 13.9464C0.0027 21.6464 6.2527 27.8864 13.9427 27.8864ZM13.9427 25.5664C7.5227 25.5664 2.3227 20.3664 2.3227 13.9464C2.3227 7.5164 7.5227 2.3264 13.9427 2.3264C20.3727 2.3264 25.5627 7.5164 25.5627 13.9464C25.5627 20.3664 20.3727 25.5664 13.9427 25.5664ZM9.4327 20.3864C9.9227 20.3864 10.2827 20.1564 10.4827 19.5064L11.4827 16.5964H16.3827L17.3727 19.5064C17.5827 20.1364 17.9227 20.3864 18.4327 20.3864C19.0327 20.3864 19.4427 19.9864 19.4427 19.4364C19.4427 19.2264 19.3827 19.0264 19.2927 18.7264L15.4527 8.4064C15.1927 7.6964 14.6727 7.3264 13.9227 7.3264C13.1827 7.3264 12.6727 7.6964 12.4027 8.4064L8.5727 18.7264C8.4627 19.0264 8.4227 19.2264 8.4227 19.4264C8.4227 20.0064 8.8227 20.3864 9.4327 20.3864ZM12.0327 14.9564L13.8527 9.6664H14.0027L15.8227 14.9564Z"
        fillRule="evenodd"
        clipRule="evenodd"
    />
</svg>
        