
<svg
    viewBox={0 0 25.169921875 25.169921875}
    xmlns="http://www.w3.org/2000/svg"
>
    <path
        fill="inherit"
        d="M4.2937 25.1692H20.8737C23.7437 25.1692 25.1737 23.7592 25.1737 20.9492V4.2392C25.1737 1.4192 23.7437 -0.0008 20.8737 -0.0008H4.2937C1.4337 -0.0008 0.0037 1.4192 0.0037 4.2392V20.9492C0.0037 23.7592 1.4337 25.1692 4.2937 25.1692ZM4.3237 22.9692C2.9537 22.9692 2.2037 22.2392 2.2037 20.8192V4.3592C2.2037 2.9392 2.9537 2.1992 4.3237 2.1992H20.8537C22.2037 2.1992 22.9737 2.9392 22.9737 4.3592V20.8192C22.9737 22.2392 22.2037 22.9692 20.8537 22.9692ZM8.0937 19.0192C8.5837 19.0192 8.9437 18.7892 9.1437 18.1392L10.1437 15.2292H15.0437L16.0337 18.1392C16.2437 18.7692 16.5937 19.0192 17.0937 19.0192C17.6937 19.0192 18.1037 18.6192 18.1037 18.0692C18.1037 17.8592 18.0437 17.6592 17.9537 17.3592L14.1237 7.0392C13.8537 6.3292 13.3337 5.9592 12.5737 5.9592C11.8437 5.9592 11.3337 6.3292 11.0637 7.0392L7.2337 17.3592C7.1337 17.6592 7.0837 17.8592 7.0837 18.0592C7.0837 18.6392 7.4937 19.0192 8.0937 19.0192ZM10.6937 13.5892L12.5237 8.2992H12.6637L14.4937 13.5892Z"
        fillRule="evenodd"
        clipRule="evenodd"
    />
</svg>
        