<svg viewBox="0 0 38.1171875 21" xmlns="http://www.w3.org/2000/svg"><path d="M32.9337 21.0038C36.3837 21.0038 38.1137 18.5538 38.1137 15.3038C38.1137 12.3038 36.7637 10.8738 34.0837 9.4738L33.0737 8.9438C31.4837 8.0938 30.4237 7.1638 30.4237 5.2937C30.4237 3.6137 31.2137 2.2138 32.8237 2.2138C34.3937 2.2138 35.2637 3.4838 35.5337 5.1638C35.6437 5.8538 36.1337 6.1337 36.6937 6.1337C37.3337 6.1337 37.7437 5.6337 37.7437 4.9938C37.7437 3.2237 36.2737 0.0038 32.8237 0.0038C29.8437 0.0038 27.9837 2.3837 27.9837 5.4537C27.9837 8.3538 29.4937 9.8837 31.9937 11.1838L33.0137 11.7137C34.7137 12.6038 35.6937 13.5738 35.6937 15.4738C35.6937 17.3238 34.7937 18.7838 32.9737 18.7838C31.2637 18.7838 30.3237 17.4038 30.0637 15.6538C29.9237 14.9438 29.3937 14.6738 28.9037 14.6738C28.2337 14.6738 27.8337 15.2338 27.8337 15.9238C27.8337 17.8438 29.3437 21.0038 32.9337 21.0038ZM1.1737 20.9038C1.8637 20.9038 2.2737 20.5338 2.4237 19.8538L3.4037 15.3538H8.6537L9.6637 19.8638C9.8037 20.5538 10.2437 20.9038 10.9137 20.9038C11.5837 20.9038 12.1137 20.4237 12.1137 19.7538C12.1137 19.6438 12.0837 19.4938 12.0537 19.3838L7.9337 1.7737C7.6837 0.7937 7.0837 0.1137 6.0337 0.1137C4.9537 0.1137 4.4037 0.7538 4.1737 1.7937L0.0937 19.1438C0.0537 19.3337 0.0037 19.5938 0.0037 19.7538C0.0037 20.4938 0.4937 20.9038 1.1737 20.9038ZM15.9937 20.6138H20.3037C23.5737 20.6138 25.3637 18.3438 25.3637 14.9838C25.3637 12.7038 24.2937 10.3338 22.0537 9.9637C23.7637 9.5438 24.7037 7.2638 24.7037 5.4438C24.7037 2.5538 23.0537 0.3837 20.2237 0.3837H15.9937C15.2137 0.3837 14.7937 0.9438 14.7937 1.6938V19.3138C14.7937 20.0338 15.1637 20.6138 15.9937 20.6138ZM17.2237 9.1638V2.5538H19.6237C21.4737 2.5538 22.2537 3.8538 22.2537 5.7238C22.2537 7.7638 21.3537 9.1638 19.3337 9.1638ZM3.8437 13.2438L6.0037 3.3038L8.2037 13.2438ZM17.2237 18.4538V11.2338H19.5937C21.8237 11.2338 22.8437 12.6337 22.8437 14.8438C22.8437 16.9838 21.9037 18.4538 19.7437 18.4538Z" /></svg>