
<svg
    viewBox="0 0 27.890625 27.890625"
    xmlns="http://www.w3.org/2000/svg"
>
    <path
        fill="inherit"
        d="M13.9427 27.8864C21.6427 27.8864 27.8927 21.6264 27.8927 13.9464C27.8927 6.2464 21.6427 -0.0036 13.9427 -0.0036C6.2627 -0.0036 0.0027 6.2464 0.0027 13.9464C0.0027 21.6264 6.2627 27.8864 13.9427 27.8864ZM20.4827 18.5964C19.2227 18.5964 18.3727 17.9264 18.0727 16.8264C18.0427 16.6764 18.0227 16.5264 18.0227 16.3764C18.0227 15.9564 18.2827 15.6564 18.7027 15.6564C19.1027 15.6564 19.3627 15.8464 19.4527 16.2264C19.6027 16.8264 19.8927 17.2764 20.4827 17.2764C21.0927 17.2764 21.4327 16.7864 21.4327 16.1364C21.4327 15.3364 21.0027 15.0164 20.2927 14.6464L19.7927 14.3964C18.8527 13.9064 18.0327 13.2364 18.0327 11.8164C18.0327 10.1564 19.1227 9.2564 20.4527 9.2564C21.5927 9.2564 22.3927 9.9364 22.7227 10.9264C22.7927 11.1264 22.8327 11.3164 22.8327 11.5164C22.8327 11.8964 22.5827 12.1664 22.1727 12.1664C21.7927 12.1664 21.5027 11.9764 21.4227 11.6464C21.2727 11.0764 21.0427 10.5964 20.4527 10.5964C19.8827 10.5964 19.6027 11.0864 19.6027 11.6764C19.6027 12.4364 20.0527 12.7964 20.7227 13.1364L21.2327 13.3864C22.2627 13.8864 23.0227 14.5364 23.0227 15.9664C23.0227 17.5364 22.1227 18.5964 20.4827 18.5964ZM5.5827 18.5364C5.1727 18.5364 4.8127 18.3064 4.8127 17.7764C4.8127 17.6064 4.8527 17.4364 4.9127 17.2564L6.4827 10.3664C6.6427 9.6664 7.0427 9.3364 7.6927 9.3364C8.3927 9.3364 8.8027 9.6764 8.9527 10.3664L10.5527 17.2564C10.5927 17.3764 10.6327 17.6864 10.6327 17.7764C10.6327 18.1964 10.3127 18.5364 9.8827 18.5364C9.4627 18.5364 9.1727 18.3464 9.0627 17.8164L8.7627 16.3964H6.6727L6.3727 17.7964C6.3027 18.2564 6.0427 18.5364 5.5827 18.5364ZM12.6027 18.4064C12.0827 18.4064 11.8127 18.0864 11.8127 17.5564V10.3264C11.8127 9.7364 12.1427 9.4764 12.6027 9.4764H14.6727C15.9927 9.4764 16.7327 10.3664 16.7327 11.6864C16.7327 12.4964 16.3227 13.4364 15.4227 13.6464V13.6964C16.3827 13.7764 16.9827 14.8564 16.9827 15.8764C16.9827 17.2564 16.2327 18.4064 14.7227 18.4064ZM13.4127 13.2464H14.0727C14.8627 13.2464 15.2027 12.7164 15.2027 11.9364C15.2027 11.1964 14.9327 10.7064 14.1927 10.7064H13.4127ZM6.8927 15.1664H8.5327L7.7227 11.2564H7.6727ZM13.4127 17.1764H14.2027C15.0227 17.1764 15.3627 16.5664 15.3627 15.7464C15.3627 14.9264 14.9827 14.3564 14.1827 14.3564H13.4127Z"
        fillRule="evenodd"
        clipRule="evenodd"
    />
</svg>
        