
<svg
    viewBox={0 0 27.890625 27.890625}
    xmlns="http://www.w3.org/2000/svg"
>
    <path
        fill="inherit"
        d="M13.9427 27.8864C21.6427 27.8864 27.8927 21.6464 27.8927 13.9464C27.8927 6.2464 21.6427 -0.0036 13.9427 -0.0036C6.2527 -0.0036 0.0027 6.2464 0.0027 13.9464C0.0027 21.6464 6.2527 27.8864 13.9427 27.8864ZM13.9427 25.5664C7.5227 25.5664 2.3227 20.3664 2.3227 13.9464C2.3227 7.5164 7.5227 2.3264 13.9427 2.3264C20.3727 2.3264 25.5627 7.5164 25.5627 13.9464C25.5627 20.3664 20.3727 25.5664 13.9427 25.5664ZM20.2627 18.4564C21.8427 18.4564 22.7227 17.4364 22.7227 15.9164C22.7227 14.5164 21.9827 13.8864 20.9827 13.3964L20.4927 13.1664C19.8527 12.8364 19.4127 12.4864 19.4127 11.7464C19.4127 11.1664 19.6727 10.6864 20.2327 10.6864C20.8127 10.6864 21.0427 11.1564 21.1827 11.7164C21.2627 12.0264 21.5327 12.2264 21.9027 12.2264C22.3027 12.2264 22.5427 11.9464 22.5427 11.5764C22.5427 11.4064 22.5027 11.2064 22.4327 11.0164C22.1227 10.0664 21.3427 9.3964 20.2327 9.3964C18.9527 9.3964 17.8927 10.2664 17.8927 11.8764C17.8927 13.2464 18.6927 13.9064 19.6027 14.3864L20.0827 14.6164C20.7627 14.9664 21.1927 15.2964 21.1927 16.0664C21.1927 16.7064 20.8627 17.1864 20.2627 17.1864C19.6827 17.1864 19.4127 16.7464 19.2627 16.1564C19.1727 15.7864 18.9327 15.5964 18.5427 15.5964C18.1327 15.5964 17.8827 15.8964 17.8827 16.3064C17.8827 16.4464 17.9127 16.5964 17.9327 16.7364C18.2227 17.7964 19.0427 18.4564 20.2627 18.4564ZM5.8227 18.4064C6.2727 18.4064 6.5227 18.1264 6.5927 17.6864L6.8727 16.3064H8.9127L9.2027 17.7064C9.3127 18.2064 9.5827 18.4064 9.9927 18.4064C10.4027 18.4064 10.7227 18.0764 10.7227 17.6664C10.7227 17.5864 10.6827 17.2764 10.6527 17.1564L9.0927 10.4764C8.9427 9.8064 8.5427 9.4764 7.8727 9.4764C7.2427 9.4764 6.8627 9.7864 6.7027 10.4764L5.1727 17.1564C5.1227 17.3364 5.0827 17.4964 5.0827 17.6664C5.0827 18.1664 5.4327 18.4064 5.8227 18.4064ZM12.6327 18.2664H14.6827C16.1427 18.2664 16.8727 17.1564 16.8727 15.8164C16.8727 14.8364 16.2827 13.7764 15.3527 13.7164V13.6564C16.2327 13.4564 16.6227 12.5364 16.6227 11.7564C16.6227 10.4764 15.9127 9.6064 14.6327 9.6064H12.6327C12.1827 9.6064 11.8627 9.8564 11.8627 10.4364V17.4464C11.8627 17.9664 12.1227 18.2664 12.6327 18.2664ZM13.4127 13.2764V10.7964H14.1627C14.8927 10.7964 15.1527 11.2764 15.1527 11.9864C15.1527 12.7564 14.8227 13.2764 14.0527 13.2764ZM7.0927 15.1164L7.8427 11.3164H7.9027L8.6827 15.1164ZM13.4127 17.0764V14.3464H14.1527C14.9427 14.3464 15.3127 14.9064 15.3127 15.6964C15.3127 16.4864 14.9827 17.0764 14.1827 17.0764Z"
        fillRule="evenodd"
        clipRule="evenodd"
    />
</svg>
        