
<svg
    viewBox="0 0 39.01953125 31.710226087405378"
    xmlns="http://www.w3.org/2000/svg"
>
    <path
        fill="inherit"
        d="M33.6427 31.3978C34.0527 31.8178 34.7427 31.8178 35.1327 31.3978C35.5427 30.9878 35.5427 30.3178 35.1327 29.9078L5.5327 0.3078C5.1227 -0.1022 4.4527 -0.1122 4.0327 0.3078C3.6327 0.7078 3.6327 1.3978 4.0327 1.8078ZM19.4927 4.7978C25.6027 4.7978 30.5327 9.6878 30.5327 15.8178C30.5327 17.7878 29.9927 19.6278 29.0927 21.2178L30.7527 22.8878C32.0727 20.8478 32.8527 18.3978 32.8527 15.8178C32.8527 8.5278 26.7927 2.4878 19.4927 2.4878C16.9127 2.4878 14.4827 3.2478 12.4427 4.5678L14.1127 6.2478C15.6927 5.3278 17.5227 4.7978 19.4927 4.7978ZM33.5327 4.0478C33.0327 4.4678 32.9927 5.1378 33.3727 5.6678C35.4627 8.5178 36.6827 12.0178 36.6827 15.8178C36.6827 19.4578 35.5427 22.8278 33.6227 25.6078L35.3027 27.2878C37.7027 23.9478 39.0227 20.0578 39.0227 15.8178C39.0227 11.4778 37.6227 7.4878 35.2327 4.2478C34.8127 3.6778 34.0827 3.5978 33.5327 4.0478ZM5.4827 27.5778C5.9727 27.1478 6.0427 26.4978 5.6427 25.9478C3.5727 23.1178 2.3427 19.6078 2.3427 15.8178C2.3427 12.1378 3.4827 8.7578 5.4427 5.9778L3.7627 4.2878C1.3527 7.5878 0.0027 11.5778 0.0027 15.8178C0.0027 20.1478 1.4127 24.1278 3.7827 27.3678C4.2127 27.9578 4.9327 28.0078 5.4827 27.5778ZM19.5127 29.1478C22.1227 29.1478 24.5727 28.3678 26.6327 27.0278L24.9627 25.3778C23.3627 26.2878 21.5027 26.8178 19.5127 26.8178C13.4127 26.8178 8.5127 21.9278 8.5127 15.8178C8.5127 13.8178 9.0327 11.9578 9.9627 10.3778L8.2827 8.6778C6.9627 10.7578 6.1827 13.2078 6.1827 15.8178C6.1827 23.1078 12.2227 29.1478 19.5127 29.1478ZM26.5327 18.4178L27.5627 19.4378C28.1927 19.0278 28.5727 18.3778 28.5727 17.4978C28.5727 16.0578 27.6627 15.5178 26.1927 14.9278C25.4027 14.6178 24.9527 14.3678 24.9527 13.6978C24.9527 13.1378 25.3227 12.7778 25.9227 12.7778C26.4927 12.7778 26.8227 13.0978 26.9227 13.6178C27.0127 13.9578 27.3127 14.1178 27.6327 14.1178C28.0127 14.1178 28.3927 13.8878 28.3927 13.4378C28.3927 13.3278 28.3827 13.2178 28.3527 13.1078C28.1227 12.1978 27.2927 11.4678 25.9127 11.4678C24.3627 11.4678 23.3427 12.4078 23.3427 13.7978C23.3427 15.1878 24.2527 15.7478 25.3427 16.1878C26.4127 16.5778 27.0027 16.9378 27.0027 17.6178C27.0027 17.9778 26.8227 18.2678 26.5327 18.4178ZM11.2827 19.8778C11.6027 19.8778 11.9527 19.6878 12.0327 19.3278L12.3627 17.8978H14.4327L14.7627 19.3278C14.8427 19.6878 15.2027 19.8678 15.5327 19.8678C16.0827 19.8678 16.4427 19.4378 16.2827 18.8078L15.5827 16.2378L13.6427 14.2978L14.2027 16.7178H12.6027L13.2527 13.8978L12.1427 12.7778L10.5127 18.8078C10.3627 19.3978 10.6627 19.8778 11.2827 19.8778Z"
        fillRule="evenodd"
        clipRule="evenodd"
    />
</svg>
        