
<svg
    viewBox="0 0 27.890625 27.890625"
    xmlns="http://www.w3.org/2000/svg"
>
    <path
        fill="inherit"
        d="M13.9427 27.8864C21.6427 27.8864 27.8927 21.6264 27.8927 13.9464C27.8927 6.2464 21.6427 -0.0036 13.9427 -0.0036C6.2627 -0.0036 0.0027 6.2464 0.0027 13.9464C0.0027 21.6264 6.2627 27.8864 13.9427 27.8864ZM13.9427 8.2564C12.9327 8.2564 12.1127 7.4264 12.1127 6.4264C12.1127 5.3964 12.9327 4.5764 13.9427 4.5764C14.9527 4.5764 15.7727 5.3964 15.7727 6.4264C15.7727 7.4264 14.9527 8.2564 13.9427 8.2564ZM13.9427 9.1864C15.9527 9.1864 18.8027 8.8464 20.1527 8.6264C20.2727 8.6164 20.4027 8.5764 20.5327 8.5764C20.8727 8.5764 21.2627 8.8764 21.2627 9.3764C21.2627 9.7664 21.0227 10.0864 20.6627 10.1864C20.2027 10.3264 16.9927 10.6864 16.5927 10.7564C16.1827 10.8464 15.9527 11.1864 15.9527 11.6664C15.9527 12.3964 15.9527 14.7364 16.1227 15.8064C16.2827 16.8664 17.5227 21.9564 17.5727 22.1764C17.7227 22.7264 17.4027 23.2164 16.8427 23.2164C16.4627 23.2164 16.1727 22.9964 16.0327 22.4664C15.7927 21.4364 14.8727 17.9064 14.6427 17.0664C14.4327 16.4464 14.2827 16.2264 13.9427 16.2264C13.5927 16.2264 13.4427 16.4464 13.2727 17.0664C12.9927 17.9064 12.1027 21.4364 11.8527 22.4664C11.7027 22.9964 11.4327 23.2164 11.0427 23.2164C10.4827 23.2164 10.1627 22.7264 10.3127 22.1764C10.3627 21.9564 11.5927 16.8664 11.7627 15.8064C11.9527 14.7364 11.9627 12.3964 11.9527 11.6664C11.9327 11.1864 11.6927 10.8464 11.2927 10.7564C10.8827 10.6864 7.6827 10.3264 7.2227 10.1864C6.8627 10.0864 6.6327 9.7664 6.6327 9.3764C6.6327 8.8764 7.0027 8.5764 7.3427 8.5764C7.4927 8.5764 7.6027 8.6164 7.7227 8.6264C9.0927 8.8464 11.9527 9.1864 13.9427 9.1864Z"
        fillRule="evenodd"
        clipRule="evenodd"
    />
</svg>
        