
<svg
    viewBox={0 0 27.890625 27.890625}
    xmlns="http://www.w3.org/2000/svg"
>
    <path
        fill="inherit"
        d="M13.9427 27.8864C21.6427 27.8864 27.8927 21.6464 27.8927 13.9464C27.8927 6.2464 21.6427 -0.0036 13.9427 -0.0036C6.2527 -0.0036 0.0027 6.2464 0.0027 13.9464C0.0027 21.6464 6.2527 27.8864 13.9427 27.8864ZM13.9427 25.5664C7.5227 25.5664 2.3227 20.3664 2.3227 13.9464C2.3227 7.5164 7.5227 2.3264 13.9427 2.3264C20.3727 2.3264 25.5627 7.5164 25.5627 13.9464C25.5627 20.3664 20.3727 25.5664 13.9427 25.5664ZM13.9327 8.4264C14.9127 8.4264 15.7127 7.6164 15.7127 6.6464C15.7127 5.6564 14.9127 4.8664 13.9327 4.8664C12.9427 4.8664 12.1527 5.6564 12.1527 6.6464C12.1527 7.6164 12.9427 8.4264 13.9327 8.4264ZM13.9327 9.3264C11.9927 9.3264 9.2327 8.9964 7.9027 8.7864C7.7827 8.7764 7.6727 8.7364 7.5327 8.7364C7.1927 8.7364 6.8327 9.0264 6.8327 9.5164C6.8327 9.8864 7.0727 10.1964 7.4127 10.2964C7.8627 10.4364 10.9627 10.7864 11.3627 10.8564C11.7427 10.9364 11.9727 11.2664 11.9927 11.7264C12.0027 12.4364 11.9927 14.7064 11.8127 15.7464C11.6527 16.7764 10.4627 21.7064 10.4027 21.9264C10.2527 22.4664 10.5827 22.9264 11.1127 22.9264C11.5027 22.9264 11.7627 22.7264 11.9127 22.2064C12.1427 21.2064 13.0027 17.7864 13.2727 16.9664C13.4427 16.3664 13.5927 16.1564 13.9327 16.1564C14.2627 16.1564 14.4127 16.3664 14.6027 16.9664C14.8327 17.7864 15.7227 21.2064 15.9527 22.2064C16.0927 22.7264 16.3627 22.9264 16.7527 22.9264C17.2827 22.9264 17.5927 22.4664 17.4427 21.9264C17.4027 21.7064 16.2027 16.7764 16.0327 15.7464C15.8827 14.7064 15.8827 12.4364 15.8827 11.7264C15.8827 11.2664 16.1027 10.9364 16.5027 10.8564C16.8827 10.7864 20.0027 10.4364 20.4427 10.2964C20.7927 10.1964 21.0227 9.8864 21.0227 9.5164C21.0227 9.0264 20.6627 8.7364 20.3127 8.7364C20.1927 8.7364 20.0727 8.7764 19.9427 8.7864C18.6327 8.9964 15.8827 9.3264 13.9327 9.3264Z"
        fillRule="evenodd"
        clipRule="evenodd"
    />
</svg>
        