
<svg
    viewBox={0 0 32.27654962024513 32.853515625}
    xmlns="http://www.w3.org/2000/svg"
>
    <path
        fill="inherit"
        d="M3.1037 32.851H11.5837C13.4637 32.851 14.6837 31.651 14.6837 29.801V3.051C14.6837 1.201 13.4637 0.001 11.5837 0.001H3.1037C1.2137 0.001 0.0037 1.201 0.0037 3.051V29.801C0.0037 31.651 1.2137 32.851 3.1037 32.851ZM10.9337 10.661C10.5237 10.661 10.2237 10.331 10.2237 9.941V4.371C10.2237 3.981 10.5237 3.651 10.9337 3.651C11.3337 3.651 11.6437 3.981 11.6437 4.371V9.941C11.6437 10.331 11.3337 10.661 10.9337 10.661ZM8.0437 10.661C7.6337 10.661 7.3037 10.331 7.3037 9.941V4.371C7.3037 3.981 7.6337 3.651 8.0437 3.651C8.4237 3.651 8.7337 3.981 8.7337 4.371V9.941C8.7337 10.331 8.4237 10.661 8.0437 10.661ZM20.7137 10.531C21.0137 10.531 21.2337 10.251 21.2037 9.951L21.1337 8.821L22.0837 9.461C22.3137 9.611 22.6637 9.561 22.8337 9.301C23.0137 9.041 22.8837 8.681 22.5837 8.561L21.5637 8.051L22.6137 7.531C22.8737 7.401 22.9937 7.071 22.8437 6.791C22.7137 6.551 22.3237 6.471 22.0637 6.641L21.1337 7.291L21.2237 6.151C21.2437 5.851 21.0237 5.581 20.7137 5.581C20.3837 5.581 20.1637 5.821 20.1937 6.141L20.2637 7.301L19.3037 6.641C19.0437 6.481 18.7137 6.521 18.5637 6.791C18.4037 7.071 18.5137 7.401 18.7837 7.531L19.8137 8.051L18.8037 8.541C18.5137 8.671 18.3937 9.011 18.5537 9.301C18.6937 9.561 19.0437 9.611 19.3037 9.461L20.2637 8.821L20.2037 9.951C20.1937 10.271 20.3937 10.531 20.7137 10.531ZM20.0837 14.781C23.7337 14.781 25.6237 11.811 28.8037 11.811C29.5437 11.811 30.1737 11.961 30.9537 12.401C31.4437 12.671 31.8837 12.481 32.1037 12.171C32.3737 11.771 32.3437 11.171 31.7437 10.831C30.8437 10.291 29.8637 10.031 28.8037 10.031C25.1037 10.031 23.2137 13.011 20.0837 13.011C19.3437 13.011 18.7137 12.851 17.9237 12.401C17.4637 12.141 17.0037 12.321 16.7737 12.671C16.5337 13.061 16.5537 13.661 17.1337 13.991C18.0337 14.551 19.0337 14.781 20.0837 14.781ZM10.9337 19.881C10.5237 19.881 10.2237 19.561 10.2237 19.151V13.591C10.2237 13.191 10.5237 12.881 10.9337 12.881C11.3337 12.881 11.6437 13.191 11.6437 13.591V19.151C11.6437 19.561 11.3337 19.881 10.9337 19.881ZM8.0437 19.881C7.6337 19.881 7.3037 19.561 7.3037 19.151V13.591C7.3037 13.191 7.6337 12.881 8.0437 12.881C8.4237 12.881 8.7337 13.191 8.7337 13.591V19.151C8.7337 19.561 8.4237 19.881 8.0437 19.881ZM20.0937 18.801C23.7337 18.801 25.6337 15.831 28.8037 15.831C29.5537 15.831 30.1837 15.981 30.9637 16.421C31.4437 16.691 31.8937 16.501 32.1137 16.191C32.3737 15.791 32.3637 15.191 31.7737 14.851C30.8537 14.311 29.8637 14.051 28.8037 14.051C25.1137 14.051 23.2237 17.031 20.0937 17.031C19.3437 17.031 18.7137 16.871 17.9337 16.431C17.4737 16.161 17.0037 16.341 16.7737 16.691C16.5337 17.081 16.5537 17.681 17.1437 18.001C18.0437 18.571 19.0437 18.801 20.0937 18.801ZM20.0837 22.821C23.7337 22.821 25.6237 19.851 28.8037 19.851C29.5437 19.851 30.1737 20.001 30.9537 20.451C31.4437 20.731 31.8837 20.521 32.1037 20.211C32.3737 19.811 32.3437 19.211 31.7437 18.871C30.8437 18.331 29.8637 18.071 28.8037 18.071C25.1037 18.071 23.2137 21.051 20.0837 21.051C19.3437 21.051 18.7137 20.891 17.9237 20.451C17.4637 20.181 17.0037 20.361 16.7737 20.711C16.5337 21.091 16.5537 21.711 17.1337 22.041C18.0337 22.581 19.0337 22.821 20.0837 22.821ZM10.9337 29.121C10.5237 29.121 10.2237 28.791 10.2237 28.411V22.841C10.2237 22.431 10.5237 22.111 10.9337 22.111C11.3337 22.111 11.6437 22.431 11.6437 22.841V28.411C11.6437 28.791 11.3337 29.121 10.9337 29.121ZM8.0437 29.121C7.6337 29.121 7.3037 28.791 7.3037 28.411V22.841C7.3037 22.431 7.6337 22.111 8.0437 22.111C8.4237 22.111 8.7337 22.431 8.7337 22.841V28.411C8.7337 28.791 8.4237 29.121 8.0437 29.121ZM28.1737 27.171C28.4937 27.171 28.7237 26.921 28.6937 26.601L28.6337 25.461L29.5837 26.111C29.8337 26.281 30.1737 26.221 30.3137 25.961C30.4737 25.671 30.3637 25.351 30.0937 25.221L29.0637 24.701L30.0737 24.181C30.3837 24.081 30.4837 23.731 30.3337 23.451C30.2037 23.191 29.8337 23.121 29.5837 23.281L28.6337 23.921L28.6837 22.791C28.6937 22.481 28.4737 22.231 28.1737 22.231C27.8737 22.231 27.6537 22.491 27.6837 22.791L27.7537 23.941L26.7937 23.301C26.5737 23.151 26.2237 23.201 26.0537 23.451C25.8837 23.711 26.0037 24.081 26.3037 24.201L27.3137 24.701L26.2737 25.221C26.0137 25.361 25.8937 25.671 26.0437 25.961C26.1837 26.211 26.5637 26.291 26.8137 26.111L27.7537 25.471L27.6737 26.591C27.6437 26.891 27.8637 27.171 28.1737 27.171Z"
        fillRule="evenodd"
        clipRule="evenodd"
    />
</svg>
        