
<svg
    viewBox={0 0 51.84375 21.73828125}
    xmlns="http://www.w3.org/2000/svg"
>
    <path
        fill="inherit"
        d="M3.4837 19.3763H5.1937C5.1037 18.9463 5.0337 18.5363 5.0337 18.0863C5.0337 15.1763 7.3837 12.8363 10.2837 12.8363C13.1937 12.8363 15.5337 15.1763 15.5337 18.0863C15.5337 18.5363 15.4737 18.9663 15.3837 19.3763H34.0537C33.9437 18.9463 33.8937 18.5363 33.8937 18.0863C33.8937 15.1863 36.2437 12.8363 39.1437 12.8363C42.0537 12.8363 44.3937 15.1763 44.3937 18.0863C44.3937 18.5363 44.3337 18.9463 44.2237 19.3763H48.3737C50.5437 19.3763 51.8437 18.0363 51.8437 15.8063V10.4363C51.8437 8.2063 50.5437 6.8663 48.3737 6.8663H37.2237L36.9037 4.0763C36.5837 1.3663 35.0637 -0.0037 32.3737 -0.0037H26.8537C22.4537 -0.0037 19.7437 0.6863 16.7037 2.5963L11.1137 6.0963L6.0137 6.8763C1.8737 7.5063 0.0037 9.2863 0.0037 12.4963V15.8063C0.0037 18.0363 1.3137 19.3763 3.4837 19.3763ZM18.6637 13.5263C18.2237 13.5263 17.8437 13.2663 17.8437 12.6763C17.8437 12.4863 17.8737 12.3063 17.9237 12.0863L19.2237 6.5063C19.3837 5.7663 19.8637 5.4163 20.5737 5.4163C21.3237 5.4163 21.8037 5.7563 21.9737 6.5063L23.2937 12.0863C23.3337 12.3063 23.3837 12.4663 23.3837 12.6763C23.3837 13.1563 23.0337 13.5263 22.5137 13.5263C22.0437 13.5263 21.7637 13.2463 21.6437 12.7163L21.4337 11.8263H19.7437L19.5537 12.6863C19.4537 13.2163 19.2137 13.5263 18.6637 13.5263ZM25.2837 13.5263C24.7337 13.5263 24.3737 13.1563 24.3737 12.5963V6.3463C24.3737 5.7863 24.7337 5.4163 25.2837 5.4163C25.8437 5.4163 26.1837 5.7863 26.1837 6.3463V12.5963C26.1837 13.1563 25.8437 13.5263 25.2837 13.5263ZM28.3537 13.5063C27.7937 13.5063 27.4537 13.1563 27.4537 12.5963V6.4763C27.4537 5.8763 27.7837 5.5363 28.3537 5.5363H29.8737C31.6237 5.5363 32.3937 6.5763 32.3937 8.0663C32.3937 8.8563 32.1337 9.7363 31.4637 10.1563L32.1937 12.1163C32.2637 12.3363 32.3337 12.5663 32.3337 12.7163C32.3337 13.1763 31.9737 13.5063 31.4637 13.5063C30.9937 13.5063 30.7237 13.2363 30.5737 12.7663L29.8037 10.5363H29.2437V12.5963C29.2437 13.1563 28.8937 13.5063 28.3537 13.5063ZM29.2437 9.2963H29.7237C30.2937 9.2963 30.5737 8.6963 30.5737 8.0963C30.5737 7.5063 30.2937 6.8863 29.7237 6.8863H29.2437ZM19.9437 10.5163H21.2237L20.6037 7.4363H20.5337ZM10.2837 21.7363C12.3337 21.7363 13.9437 20.1263 13.9437 18.0863C13.9437 16.0463 12.3137 14.4263 10.2837 14.4263C8.2537 14.4263 6.6337 16.0463 6.6337 18.0863C6.6337 20.1063 8.2537 21.7363 10.2837 21.7363ZM39.1437 21.7363C41.1837 21.7363 42.8037 20.1063 42.8037 18.0863C42.8037 16.0463 41.1837 14.4263 39.1437 14.4263C37.1237 14.4263 35.4737 16.0663 35.4737 18.0863C35.4737 20.1063 37.1037 21.7363 39.1437 21.7363Z"
        fillRule="evenodd"
        clipRule="evenodd"
    />
</svg>
        