<svg viewBox="0 0 26.760839968911167 32.142578125" xmlns="http://www.w3.org/2000/svg"><path d="M3.9637 32.1392C4.6237 32.1392 5.0537 31.6892 5.0537 31.0392V29.7392H15.7137V31.0392C15.7137 31.6892 16.1437 32.1392 16.8037 32.1392C17.4737 32.1392 17.9137 31.6892 17.9137 31.0392V29.5992C19.7937 29.1892 20.7637 27.8192 20.7637 25.5692V12.3892C21.5437 12.0292 22.3637 11.7892 23.2937 11.7892C24.0337 11.7892 24.6537 11.9392 25.4437 12.3692C25.9337 12.6492 26.3737 12.4592 26.5937 12.1392C26.8537 11.7392 26.8337 11.1392 26.2337 10.7992C25.3237 10.2692 24.3337 10.0092 23.2937 10.0092C22.3537 10.0092 21.5237 10.1992 20.7637 10.4892V12.3892C18.8537 13.2592 17.1537 14.7492 14.5637 14.7492C13.5237 14.7492 12.5237 14.5192 11.6237 13.9592C11.0437 13.6292 11.0237 13.0292 11.2637 12.6492C11.4837 12.2892 11.9537 12.1092 12.4137 12.3692C13.2037 12.8192 13.8237 12.9892 14.5637 12.9892C16.8937 12.9892 18.5437 11.3292 20.7637 10.4892V8.5892C21.5437 8.2292 22.3637 7.9692 23.2937 7.9692C24.0537 7.9692 24.6637 8.1192 25.4537 8.5692C25.9337 8.8492 26.3837 8.6592 26.6037 8.3292C26.8537 7.9392 26.8537 7.3292 26.2637 6.9892C25.3337 6.4492 24.3337 6.1892 23.2937 6.1892C22.3537 6.1892 21.5237 6.3892 20.7637 6.6892V8.5892C18.8637 9.4592 17.1537 10.9492 14.5737 10.9492C13.5337 10.9492 12.5337 10.7092 11.6337 10.1592C11.0437 9.8292 11.0237 9.2292 11.2637 8.8492C11.4837 8.4892 11.9637 8.2992 12.4237 8.5692C13.2037 9.0092 13.8237 9.1892 14.5737 9.1892C16.9137 9.1892 18.5537 7.5292 20.7637 6.6892V4.7692C21.5437 4.4192 22.3637 4.1692 23.2937 4.1692C24.0337 4.1692 24.6537 4.3192 25.4437 4.7592C25.9337 5.0292 26.3737 4.8392 26.5937 4.5292C26.8537 4.1292 26.8337 3.5292 26.2337 3.1892C25.3237 2.6492 24.3337 2.3892 23.2937 2.3892C22.3037 2.3892 21.4337 2.5992 20.6437 2.9092C20.7237 3.2992 20.7637 3.7092 20.7637 4.1592V4.7692C18.8537 5.6492 17.1537 7.1392 14.5637 7.1392C13.5237 7.1392 12.5237 6.9092 11.6237 6.3392C11.0437 6.0192 11.0237 5.4092 11.2637 5.0292C11.4837 4.6792 11.9537 4.4992 12.4137 4.7592C13.2037 5.2092 13.8237 5.3692 14.5637 5.3692C16.8537 5.3692 18.4837 3.7692 20.6437 2.9092C20.2637 0.9892 18.8637 -0.0008 16.5537 -0.0008H4.2237C1.4637 -0.0008 0.0037 1.3992 0.0037 4.1592V25.5692C0.0037 27.8192 0.9737 29.1892 2.8537 29.5992V31.0392C2.8537 31.6892 3.3037 32.1392 3.9637 32.1392ZM5.5337 7.5692C4.4437 7.5692 3.5537 6.6692 3.5537 5.5692C3.5537 4.4892 4.4437 3.5992 5.5337 3.5992C6.6337 3.5992 7.5337 4.4892 7.5337 5.5692C7.5337 6.6692 6.6337 7.5692 5.5337 7.5692ZM4.3637 19.0192C3.8737 19.0192 3.4737 18.6392 3.4737 18.1292C3.4737 17.6392 3.8737 17.2392 4.3637 17.2392H8.4637C8.9737 17.2392 9.3637 17.6392 9.3637 18.1292C9.3637 18.6392 8.9737 19.0192 8.4637 19.0192ZM12.3037 19.0192C11.8037 19.0192 11.4037 18.6392 11.4037 18.1292C11.4037 17.6392 11.8037 17.2392 12.3037 17.2392H16.4037C16.8937 17.2392 17.2937 17.6392 17.2937 18.1292C17.2937 18.6392 16.8937 19.0192 16.4037 19.0192ZM4.3637 22.5492C3.8737 22.5492 3.4737 22.1592 3.4737 21.6592C3.4737 21.1492 3.8737 20.7692 4.3637 20.7692H8.4637C8.9737 20.7692 9.3637 21.1492 9.3637 21.6592C9.3637 22.1592 8.9737 22.5492 8.4637 22.5492ZM12.3037 22.5492C11.8037 22.5492 11.4037 22.1592 11.4037 21.6592C11.4037 21.1492 11.8037 20.7692 12.3037 20.7692H16.4037C16.8937 20.7692 17.2937 21.1492 17.2937 21.6592C17.2937 22.1592 16.8937 22.5492 16.4037 22.5492ZM4.3637 26.0692C3.8737 26.0692 3.4737 25.6792 3.4737 25.1792C3.4737 24.6792 3.8737 24.2792 4.3637 24.2792H8.4637C8.9737 24.2792 9.3637 24.6792 9.3637 25.1792C9.3637 25.6792 8.9737 26.0692 8.4637 26.0692ZM12.3037 26.0692C11.8037 26.0692 11.4037 25.6792 11.4037 25.1792C11.4037 24.6792 11.8037 24.2792 12.3037 24.2792H16.4037C16.8937 24.2792 17.2937 24.6792 17.2937 25.1792C17.2937 25.6792 16.8937 26.0692 16.4037 26.0692Z" /></svg>