
<svg
    viewBox="0 0 48.494140625 22.216796875"
    xmlns="http://www.w3.org/2000/svg"
>
    <path
        fill="inherit"
        d="M3.4837 19.0963H6.4537C7.0837 20.9363 8.7937 22.2163 10.8737 22.2163C12.9437 22.2163 14.6737 20.9363 15.3037 19.0963H34.0737C34.7037 20.9363 36.4037 22.2163 38.4837 22.2163C40.5637 22.2163 42.2837 20.9363 42.9137 19.0963H45.0237C47.4137 19.0963 48.4937 17.8663 48.4937 15.1663V9.3263C48.4937 7.6163 47.8637 5.6563 46.7837 4.1063L46.1737 3.1963C44.5937 0.9163 42.6737 -0.0037 39.4937 -0.0037H28.8237C23.1837 -0.0037 20.9337 0.5463 17.5837 2.6363L12.0737 6.0963L6.9737 6.7263C2.3137 7.2963 0.0037 9.4363 0.0037 13.1763V15.5263C0.0037 17.7563 1.3137 19.0963 3.4837 19.0963ZM38.4837 12.8663C36.0837 12.8663 34.1637 14.5863 33.8537 16.8963H15.5037C15.2037 14.5863 13.2737 12.8663 10.8737 12.8663C8.4637 12.8663 6.5337 14.5863 6.2337 16.8963H3.6137C2.7237 16.8963 2.2037 16.2963 2.2037 15.2563V13.1763C2.2037 10.7363 3.8437 9.3563 7.2637 8.9163L12.8237 8.2163L18.7537 4.5263C21.7837 2.6363 23.5737 2.1963 28.8237 2.1963H39.4937C41.8637 2.1963 43.2337 2.8563 44.3537 4.4563L44.9637 5.3463C45.8037 6.5463 46.2937 8.0263 46.2937 9.3263V15.2963C46.2937 16.3963 45.8737 16.8963 44.8937 16.8963H43.1237C42.8237 14.5863 40.8937 12.8663 38.4837 12.8663ZM19.0037 13.9463C19.5237 13.9463 19.7537 13.6563 19.8537 13.1363L20.0437 12.2863H21.6937L21.9037 13.1663C22.0137 13.6863 22.2837 13.9463 22.7337 13.9463C23.2437 13.9463 23.5737 13.5863 23.5737 13.1263C23.5737 12.9363 23.5337 12.7663 23.4837 12.5663L22.2037 7.1363C22.0437 6.4163 21.5837 6.0863 20.8537 6.0863C20.1637 6.0863 19.7137 6.4263 19.5537 7.1363L18.2837 12.5663C18.2337 12.7663 18.2137 12.9363 18.2137 13.1263C18.2137 13.6963 18.5837 13.9463 19.0037 13.9463ZM25.4137 13.9463C25.9537 13.9463 26.2737 13.5863 26.2737 13.0463V6.9863C26.2737 6.4363 25.9537 6.0863 25.4137 6.0863C24.8837 6.0863 24.5437 6.4363 24.5437 6.9863V13.0463C24.5437 13.5863 24.8837 13.9463 25.4137 13.9463ZM28.3837 13.9363C28.9037 13.9363 29.2437 13.5863 29.2437 13.0463V11.0463H29.7937L30.5437 13.2163C30.6937 13.6763 30.9537 13.9363 31.4037 13.9363C31.8937 13.9363 32.2337 13.6163 32.2337 13.1663C32.2337 13.0063 32.1837 12.7963 32.1137 12.5963L31.3937 10.6763C32.0437 10.2663 32.2937 9.4163 32.2937 8.6563C32.2937 7.2063 31.5537 6.2063 29.8637 6.2063H28.3837C27.8337 6.2063 27.5237 6.5363 27.5237 7.1063V13.0463C27.5237 13.5863 27.8537 13.9363 28.3837 13.9363ZM29.2437 9.8463V7.5063H29.7137C30.2737 7.5063 30.5437 8.1063 30.5437 8.6863C30.5437 9.2663 30.2737 9.8463 29.7137 9.8463ZM20.2437 11.0363L20.8237 8.0363H20.8737L21.4737 11.0363ZM10.8737 20.0163C9.4737 20.0163 8.3937 18.9363 8.3937 17.5363C8.3937 16.1463 9.4737 15.0663 10.8737 15.0663C12.2637 15.0663 13.3437 16.1463 13.3437 17.5363C13.3437 18.9363 12.2637 20.0163 10.8737 20.0163ZM38.4837 20.0163C37.0937 20.0163 36.0137 18.9363 36.0137 17.5363C36.0137 16.1463 37.0937 15.0663 38.4837 15.0663C39.8837 15.0663 40.9637 16.1463 40.9637 17.5363C40.9637 18.9363 39.8837 20.0163 38.4837 20.0163Z"
        fillRule="evenodd"
        clipRule="evenodd"
    />
</svg>
        