
<svg
    viewBox={0 0 32.853515625 32.28345731921902}
    xmlns="http://www.w3.org/2000/svg"
>
    <path
        fill="inherit"
        d="M0.0037 3.1023V11.5823C0.0037 13.4623 1.2037 14.6823 3.0537 14.6823H29.8037C31.6537 14.6823 32.8537 13.4623 32.8537 11.5823V3.1023C32.8537 1.2123 31.6537 0.0023 29.8037 0.0023H3.0537C1.2037 0.0023 0.0037 1.2123 0.0037 3.1023ZM22.1937 8.0423C22.1937 7.6323 22.5137 7.3023 22.9137 7.3023H28.4737C28.8737 7.3023 29.2037 7.6323 29.2037 8.0423C29.2037 8.4223 28.8737 8.7323 28.4737 8.7323H22.9137C22.5137 8.7323 22.1937 8.4223 22.1937 8.0423ZM12.9737 8.0423C12.9737 7.6323 13.2937 7.3023 13.7037 7.3023H19.2637C19.6437 7.3023 19.9737 7.6323 19.9737 8.0423C19.9737 8.4223 19.6437 8.7323 19.2637 8.7323H13.7037C13.2937 8.7323 12.9737 8.4223 12.9737 8.0423ZM3.7337 8.0423C3.7337 7.6323 4.0637 7.3023 4.4437 7.3023H10.0037C10.4137 7.3023 10.7337 7.6323 10.7337 8.0423C10.7337 8.4223 10.4137 8.7323 10.0037 8.7323H4.4437C4.0637 8.7323 3.7337 8.4223 3.7337 8.0423ZM22.1937 10.9423C22.1937 10.5323 22.5137 10.2223 22.9137 10.2223H28.4737C28.8737 10.2223 29.2037 10.5323 29.2037 10.9423C29.2037 11.3323 28.8737 11.6523 28.4737 11.6523H22.9137C22.5137 11.6523 22.1937 11.3323 22.1937 10.9423ZM12.9737 10.9423C12.9737 10.5323 13.2937 10.2223 13.7037 10.2223H19.2637C19.6437 10.2223 19.9737 10.5323 19.9737 10.9423C19.9737 11.3323 19.6437 11.6523 19.2637 11.6523H13.7037C13.2937 11.6523 12.9737 11.3323 12.9737 10.9423ZM3.7337 10.9423C3.7337 10.5323 4.0637 10.2223 4.4437 10.2223H10.0037C10.4137 10.2223 10.7337 10.5323 10.7337 10.9423C10.7337 11.3323 10.4137 11.6523 10.0037 11.6523H4.4437C4.0637 11.6523 3.7337 11.3323 3.7337 10.9423ZM18.0737 20.0823C18.0737 23.7323 21.0437 25.6323 21.0437 28.8223C21.0437 29.5623 20.8937 30.1723 20.4537 30.9523C20.1837 31.4423 20.3737 31.8823 20.6837 32.1123C21.0837 32.3723 21.6837 32.3623 22.0237 31.7423C22.5537 30.8423 22.8137 29.8623 22.8137 28.8223C22.8137 25.1023 19.8337 23.2123 19.8337 20.0823C19.8337 19.3423 20.0037 18.7323 20.4537 17.9223C20.7137 17.4623 20.5337 17.0123 20.1837 16.7723C19.7937 16.5423 19.1937 16.5523 18.8637 17.1323C18.3037 18.0323 18.0737 19.0423 18.0737 20.0823ZM10.0337 20.0823C10.0337 23.7323 13.0037 25.6323 13.0037 28.8223C13.0037 29.5623 12.8537 30.1723 12.4037 30.9523C12.1237 31.4423 12.3337 31.8823 12.6437 32.1123C13.0437 32.3723 13.6437 32.3623 13.9837 31.7423C14.5237 30.8423 14.7837 29.8623 14.7837 28.8223C14.7837 25.1023 11.8037 23.2123 11.8037 20.0823C11.8037 19.3423 11.9637 18.7323 12.4037 17.9223C12.6737 17.4623 12.4837 17.0123 12.1437 16.7723C11.7537 16.5423 11.1437 16.5523 10.8137 17.1323C10.2637 18.0323 10.0337 19.0423 10.0337 20.0823ZM14.0537 20.1023C14.0537 23.7323 17.0237 25.6523 17.0237 28.8223C17.0237 29.5723 16.8737 30.1923 16.4237 30.9623C16.1637 31.4423 16.3537 31.8923 16.6637 32.1323C17.0637 32.3723 17.6637 32.3723 18.0037 31.7723C18.5437 30.8623 18.8037 29.8623 18.8037 28.8223C18.8037 25.1123 15.8137 23.2323 15.8137 20.1023C15.8137 19.3423 15.9837 18.7323 16.4237 17.9423C16.6937 17.4723 16.5137 17.0123 16.1637 16.7723C15.7737 16.5423 15.1637 16.5523 14.8437 17.1423C14.2837 18.0423 14.0537 19.0623 14.0537 20.1023ZM22.3237 20.7123C22.3237 21.0123 22.5837 21.2323 22.9037 21.2023L24.0337 21.1323L23.3937 22.0823C23.2437 22.3123 23.2937 22.6723 23.5537 22.8323C23.8137 23.0123 24.1737 22.8823 24.2937 22.5823L24.8037 21.5623L25.3237 22.6123C25.4537 22.8723 25.7837 22.9923 26.0537 22.8423C26.3037 22.7123 26.3837 22.3223 26.2137 22.0623L25.5637 21.1323L26.7037 21.2223C27.0037 21.2423 27.2737 21.0323 27.2737 20.7123C27.2737 20.3823 27.0337 20.1623 26.7137 20.1923L25.5537 20.2623L26.2137 19.3023C26.3737 19.0423 26.3337 18.7123 26.0537 18.5623C25.7837 18.4123 25.4537 18.5123 25.3237 18.7823L24.8037 19.8123L24.3037 18.8023C24.1837 18.5123 23.8437 18.3923 23.5537 18.5523C23.2937 18.6923 23.2237 19.0423 23.3937 19.3023L24.0337 20.2623L22.9037 20.2023C22.5737 20.1923 22.3237 20.4023 22.3237 20.7123ZM5.6837 28.1823C5.6837 28.4923 5.9337 28.7223 6.2437 28.7023L7.3937 28.6323L6.7437 29.5823C6.5737 29.8323 6.6337 30.1723 6.8937 30.3123C7.1737 30.4723 7.5037 30.3623 7.6337 30.0923L8.1437 29.0623L8.6637 30.0823C8.7737 30.3823 9.1237 30.4923 9.4037 30.3423C9.6637 30.2023 9.7337 29.8323 9.5737 29.5823L8.9237 28.6323L10.0637 28.6823C10.3737 28.7023 10.6237 28.4823 10.6237 28.1823C10.6237 27.8723 10.3637 27.6623 10.0637 27.6823L8.9137 27.7523L9.5537 26.8123C9.7037 26.5823 9.6537 26.2223 9.4037 26.0623C9.1437 25.8823 8.7737 26.0023 8.6537 26.3023L8.1437 27.3123L7.6337 26.2823C7.4937 26.0223 7.1737 25.8923 6.8937 26.0423C6.6437 26.1823 6.5637 26.5623 6.7437 26.8223L7.3837 27.7523L6.2637 27.6723C5.9637 27.6423 5.6837 27.8623 5.6837 28.1823Z"
        fillRule="evenodd"
        clipRule="evenodd"
    />
</svg>
        