
<svg
    viewBox={0 0 26.760839968911167 32.142578125}
    xmlns="http://www.w3.org/2000/svg"
>
    <path
        fill="inherit"
        d="M3.9637 32.1392C4.6237 32.1392 5.0537 31.6892 5.0537 31.0392V29.7392H15.7137V31.0392C15.7137 31.6892 16.1437 32.1392 16.8037 32.1392C17.4737 32.1392 17.9137 31.6892 17.9137 31.0392V29.5992C19.7937 29.1892 20.7637 27.8192 20.7637 25.5692V12.3592C21.5437 11.9992 22.3637 11.7592 23.2937 11.7592C24.0337 11.7592 24.6537 11.9092 25.4437 12.3492C25.9337 12.6192 26.3737 12.4292 26.5937 12.1092C26.8537 11.7192 26.8337 11.0992 26.2337 10.7692C25.3237 10.2392 24.3337 9.9692 23.2937 9.9692C22.3537 9.9692 21.5237 10.1692 20.7637 10.4592V8.5892C21.5437 8.2292 22.3637 7.9692 23.2937 7.9692C24.0537 7.9692 24.6637 8.1192 25.4537 8.5692C25.9337 8.8492 26.3837 8.6592 26.6037 8.3292C26.8537 7.9392 26.8537 7.3292 26.2637 6.9892C25.3337 6.4492 24.3337 6.1892 23.2937 6.1892C22.3537 6.1892 21.5237 6.3892 20.7637 6.6892V4.7992C21.5437 4.4392 22.3637 4.1992 23.2937 4.1992C24.0337 4.1992 24.6537 4.3492 25.4437 4.7992C25.9337 5.0592 26.3737 4.8692 26.5937 4.5492C26.8537 4.1592 26.8337 3.5592 26.2337 3.2092C25.3237 2.6792 24.3337 2.4192 23.2937 2.4192C22.3137 2.4192 21.4537 2.6292 20.6537 2.9392C20.2737 0.9892 18.8637 -0.0008 16.5537 -0.0008H4.2237C1.4637 -0.0008 0.0037 1.3992 0.0037 4.1592V25.5692C0.0037 27.8192 0.9737 29.1892 2.8537 29.5992V31.0392C2.8537 31.6892 3.3037 32.1392 3.9637 32.1392ZM2.2037 25.4592V4.2792C2.2037 2.9292 2.9637 2.1992 4.2537 2.1992H16.5137C17.7237 2.1992 18.4537 2.8292 18.5537 4.0092C17.2837 4.7192 16.0637 5.3992 14.5637 5.3992C13.8237 5.3992 13.2037 5.2392 12.4137 4.7992C11.9537 4.5292 11.4837 4.6992 11.2637 5.0592C11.0237 5.4392 11.0437 6.0592 11.6237 6.3692C12.5237 6.9292 13.5237 7.1592 14.5637 7.1592C16.1437 7.1592 17.3937 6.6192 18.5637 5.9792V7.7792C17.2937 8.4892 16.0737 9.1892 14.5737 9.1892C13.8237 9.1892 13.2037 9.0092 12.4237 8.5692C11.9637 8.2992 11.4837 8.4892 11.2637 8.8492C11.0237 9.2292 11.0437 9.8292 11.6337 10.1592C12.5337 10.7092 13.5337 10.9492 14.5737 10.9492C16.1437 10.9492 17.4037 10.3892 18.5637 9.7592V11.5492C17.2937 12.2592 16.0737 12.9592 14.5637 12.9592C13.8237 12.9592 13.2037 12.7992 12.4137 12.3492C11.9537 12.0892 11.4837 12.2592 11.2637 12.6192C11.0237 12.9992 11.0437 13.5992 11.6237 13.9292C12.5237 14.4792 13.5237 14.7292 14.5637 14.7292C16.1437 14.7292 17.3937 14.1592 18.5637 13.5392V25.4592C18.5637 26.7992 17.8037 27.5392 16.5137 27.5392H4.2537C2.9637 27.5392 2.2037 26.7992 2.2037 25.4592ZM5.8237 7.9292C6.8737 7.9292 7.7537 7.0592 7.7537 5.9892C7.7537 4.9392 6.8737 4.0692 5.8237 4.0692C4.7537 4.0692 3.8937 4.9392 3.8937 5.9892C3.8937 7.0592 4.7537 7.9292 5.8237 7.9292ZM4.6737 18.7592H8.6537C9.1437 18.7592 9.5337 18.3892 9.5337 17.8992C9.5337 17.4192 9.1437 17.0392 8.6537 17.0392H4.6737C4.1937 17.0392 3.8137 17.4192 3.8137 17.8992C3.8137 18.3892 4.1937 18.7592 4.6737 18.7592ZM12.1137 18.7592H16.0937C16.5737 18.7592 16.9537 18.3892 16.9537 17.8992C16.9537 17.4192 16.5737 17.0392 16.0937 17.0392H12.1137C11.6237 17.0392 11.2337 17.4192 11.2337 17.8992C11.2337 18.3892 11.6237 18.7592 12.1137 18.7592ZM4.6737 22.1792H8.6537C9.1437 22.1792 9.5337 21.8092 9.5337 21.3192C9.5337 20.8192 9.1437 20.4492 8.6537 20.4492H4.6737C4.1937 20.4492 3.8137 20.8192 3.8137 21.3192C3.8137 21.8092 4.1937 22.1792 4.6737 22.1792ZM12.1137 22.1792H16.0937C16.5737 22.1792 16.9537 21.8092 16.9537 21.3192C16.9537 20.8192 16.5737 20.4492 16.0937 20.4492H12.1137C11.6237 20.4492 11.2337 20.8192 11.2337 21.3192C11.2337 21.8092 11.6237 22.1792 12.1137 22.1792ZM4.6737 25.5892H8.6537C9.1437 25.5892 9.5337 25.2092 9.5337 24.7292C9.5337 24.2392 9.1437 23.8592 8.6537 23.8592H4.6737C4.1937 23.8592 3.8137 24.2392 3.8137 24.7292C3.8137 25.2092 4.1937 25.5892 4.6737 25.5892ZM12.1137 25.5892H16.0937C16.5737 25.5892 16.9537 25.2092 16.9537 24.7292C16.9537 24.2392 16.5737 23.8592 16.0937 23.8592H12.1137C11.6237 23.8592 11.2337 24.2392 11.2337 24.7292C11.2337 25.2092 11.6237 25.5892 12.1137 25.5892Z"
        fillRule="evenodd"
        clipRule="evenodd"
    />
</svg>
        