
<svg
    viewBox={0 0 48.494140625 21.73828125}
    xmlns="http://www.w3.org/2000/svg"
>
    <path
        fill="inherit"
        d="M46.7837 4.1063L46.1737 3.1963C44.5937 0.9163 42.6737 -0.0037 39.4937 -0.0037H28.8237C23.1837 -0.0037 20.9337 0.5463 17.5837 2.6363L12.0737 6.0963L6.9737 6.7263C2.3137 7.2963 0.0037 9.4363 0.0037 13.1763V15.5263C0.0037 17.7563 1.3137 19.0963 3.4837 19.0963H5.7137C5.6637 18.7763 5.6237 18.4463 5.6237 18.0863C5.6237 15.1763 7.9737 12.8363 10.8737 12.8363C13.7837 12.8363 16.1237 15.1763 16.1237 18.0863C16.1237 18.4463 16.0937 18.7763 16.0237 19.0963H33.2637C33.2137 18.7763 33.1637 18.4463 33.1637 18.0863C33.1637 15.1863 35.5337 12.8363 38.4137 12.8363C41.3337 12.8363 43.6637 15.1763 43.6637 18.0863C43.6637 18.4463 43.6437 18.7763 43.5737 19.0963H45.0237C47.4137 19.0963 48.4937 17.8663 48.4937 15.1663V9.3263C48.4937 7.6163 47.8637 5.6563 46.7837 4.1063ZM18.6637 13.5263C18.2237 13.5263 17.8437 13.2663 17.8437 12.6763C17.8437 12.4863 17.8737 12.3063 17.9237 12.0863L19.2237 6.5063C19.3837 5.7663 19.8637 5.4163 20.5737 5.4163C21.3237 5.4163 21.8037 5.7563 21.9737 6.5063L23.2937 12.0863C23.3337 12.3063 23.3837 12.4663 23.3837 12.6763C23.3837 13.1563 23.0337 13.5263 22.5137 13.5263C22.0437 13.5263 21.7637 13.2463 21.6437 12.7163L21.4337 11.8263H19.7437L19.5537 12.6863C19.4537 13.2163 19.2137 13.5263 18.6637 13.5263ZM25.2837 13.5263C24.7337 13.5263 24.3737 13.1563 24.3737 12.5963V6.3463C24.3737 5.7863 24.7337 5.4163 25.2837 5.4163C25.8437 5.4163 26.1837 5.7863 26.1837 6.3463V12.5963C26.1837 13.1563 25.8437 13.5263 25.2837 13.5263ZM28.3537 13.5063C27.7937 13.5063 27.4537 13.1563 27.4537 12.5963V6.4763C27.4537 5.8763 27.7837 5.5363 28.3537 5.5363H29.8737C31.6237 5.5363 32.3937 6.5763 32.3937 8.0663C32.3937 8.8563 32.1337 9.7363 31.4637 10.1563L32.1937 12.1163C32.2637 12.3363 32.3337 12.5663 32.3337 12.7163C32.3337 13.1763 31.9737 13.5063 31.4637 13.5063C30.9937 13.5063 30.7237 13.2363 30.5737 12.7663L29.8037 10.5363H29.2437V12.5963C29.2437 13.1563 28.8937 13.5063 28.3537 13.5063ZM29.2437 9.2963H29.7237C30.2937 9.2963 30.5737 8.6963 30.5737 8.0963C30.5737 7.5063 30.2937 6.8863 29.7237 6.8863H29.2437ZM19.9437 10.5163H21.2237L20.6037 7.4363H20.5337ZM10.8737 21.7363C12.9237 21.7363 14.5337 20.1263 14.5337 18.0863C14.5337 16.0463 12.9037 14.4263 10.8737 14.4263C8.8437 14.4263 7.2237 16.0463 7.2237 18.0863C7.2237 20.1063 8.8437 21.7363 10.8737 21.7363ZM38.4137 21.7363C40.4537 21.7363 42.0837 20.1063 42.0837 18.0863C42.0837 16.0463 40.4537 14.4263 38.4137 14.4263C36.4037 14.4263 34.7637 16.0663 34.7637 18.0863C34.7637 20.1063 36.3937 21.7363 38.4137 21.7363Z"
        fillRule="evenodd"
        clipRule="evenodd"
    />
</svg>
        