
<svg
    viewBox={0 0 50.39453125 22.19955604478853}
    xmlns="http://www.w3.org/2000/svg"
>
    <path
        fill="inherit"
        d="M2.9837 19.4556L5.8237 19.7756C6.6537 21.2456 8.2137 22.1956 10.0637 22.1956C12.1137 22.1956 13.8337 20.9856 14.5637 19.2156H35.8437C36.5537 20.9856 38.2837 22.1956 40.3437 22.1956C42.5637 22.1956 44.3937 20.7956 44.9937 18.7956L46.4837 18.6356C49.1237 18.3556 50.3937 16.8956 50.3937 14.1756V11.7956C50.3937 8.5556 49.1937 7.1856 46.1037 6.5956L38.1037 5.0556C37.3137 4.9056 36.5737 4.8456 35.8237 4.9056L20.3837 5.8356L26.0537 2.0156C27.3037 1.1856 26.0837 -0.6644 24.7437 0.2456L15.9837 6.0956L6.6737 7.8456C2.2237 8.6756 0.0037 10.7256 0.0037 14.3356V16.1556C0.0037 18.2056 0.9137 19.2356 2.9837 19.4556ZM3.5037 17.2956C2.6137 17.1956 2.2037 16.7856 2.2037 15.9956V14.3356C2.2037 11.9856 3.7837 10.5956 6.9637 9.9856L15.7737 8.3256H15.8337L36.3637 7.0656L45.7037 8.8656C47.5237 9.2156 48.1937 10.0056 48.1937 11.7956V14.1756C48.1937 15.5856 47.5537 16.3356 46.2137 16.4756L45.1437 16.5756C44.7937 14.2256 42.8037 12.4756 40.3437 12.4756C37.7237 12.4756 35.6537 14.4456 35.4937 17.0156H14.9037C14.7537 14.4456 12.6737 12.4756 10.0637 12.4756C7.3237 12.4756 5.1937 14.6156 5.1937 17.3456C5.1937 17.3856 5.1937 17.4456 5.1937 17.4856ZM19.8637 15.9056C20.3137 15.9056 20.5337 15.6756 20.6037 15.2256L20.7837 14.4356H22.2737L22.4637 15.2356C22.5537 15.6956 22.8037 15.9056 23.1837 15.9056C23.6437 15.9056 23.9237 15.5956 23.9237 15.1956C23.9237 15.0356 23.8837 14.8856 23.8437 14.7056L22.6837 9.8356C22.5437 9.2156 22.1437 8.9356 21.5037 8.9356C20.9137 8.9356 20.5237 9.2256 20.3837 9.8356L19.2337 14.7056C19.1937 14.8956 19.1837 15.0356 19.1837 15.1956C19.1837 15.6956 19.4937 15.9056 19.8637 15.9056ZM25.5537 15.9056C26.0137 15.9056 26.3137 15.6056 26.3137 15.1156V9.7356C26.3137 9.2356 26.0137 8.9356 25.5537 8.9356C25.0837 8.9356 24.8037 9.2356 24.8037 9.7356V15.1156C24.8037 15.6056 25.0837 15.9056 25.5537 15.9056ZM28.1637 15.9056C28.6337 15.9056 28.9137 15.6056 28.9137 15.1156V13.3256H29.4237L30.1037 15.2956C30.2537 15.6756 30.4637 15.9056 30.8537 15.9056C31.2837 15.9056 31.5837 15.6356 31.5837 15.2356C31.5837 15.1056 31.5437 14.9256 31.4737 14.7356L30.8137 13.0156C31.4037 12.6456 31.6337 11.8956 31.6337 11.2056C31.6337 9.9256 30.9637 9.0356 29.4737 9.0356H28.1637C27.6837 9.0356 27.4137 9.3356 27.4137 9.8256V15.1156C27.4137 15.6056 27.7037 15.9056 28.1637 15.9056ZM28.9137 12.2856V10.1856H29.3537C29.8637 10.1856 30.1237 10.7056 30.1237 11.2256C30.1237 11.7656 29.8737 12.2756 29.3537 12.2856ZM20.9637 13.3356L21.4937 10.6456H21.5337L22.0837 13.3356ZM10.0637 20.1356C8.4937 20.1356 7.2637 18.9056 7.2637 17.3456C7.2637 15.7756 8.4937 14.5456 10.0637 14.5456C11.6237 14.5456 12.8537 15.7756 12.8537 17.3456C12.8537 18.9056 11.6237 20.1356 10.0637 20.1356ZM40.3437 20.1356C38.7737 20.1356 37.5437 18.9056 37.5437 17.3456C37.5437 15.7756 38.7737 14.5456 40.3437 14.5456C41.9037 14.5456 43.1337 15.7756 43.1337 17.3456C43.1337 18.9056 41.9037 20.1356 40.3437 20.1356Z"
        fillRule="evenodd"
        clipRule="evenodd"
    />
</svg>
        