
<svg
    viewBox={0 0 11.92232831195016 26.6328125}
    xmlns="http://www.w3.org/2000/svg"
>
    <path
        fill="inherit"
        d="M5.9041 11.0912C8.8441 11.0512 10.6941 9.2712 11.5141 8.0012C11.7841 7.5612 11.9241 7.0812 11.9241 6.5512V4.5412C11.9241 4.0012 11.8041 3.5312 11.5141 3.0912C10.6641 1.8212 8.8441 0.0012 5.9041 0.0012C2.7041 0.0012 0.0441 2.4912 0.0041 5.5212C-0.0359 8.6012 2.7041 11.1112 5.9041 11.0912ZM9.4341 7.7112C9.0641 7.7112 8.7741 7.4212 8.7741 7.0512V4.0212C8.7741 3.6512 9.0641 3.3612 9.4341 3.3612C9.8041 3.3612 10.0741 3.6512 10.0741 4.0212V7.0512C10.0741 7.4212 9.8041 7.7112 9.4341 7.7112ZM5.2141 22.1212V12.3712C3.7741 12.2612 2.4341 11.7212 1.3541 10.8812V22.1212ZM3.8741 26.6312C4.6941 26.6312 5.2141 26.2212 5.2141 25.4112V23.4912H1.3541V25.4112C1.3541 26.2212 1.8741 26.6312 2.7041 26.6312Z"
        fillRule="evenodd"
        clipRule="evenodd"
    />
</svg>
        