<svg viewBox="0 0 37.529296875 24.186023629053313" xmlns="http://www.w3.org/2000/svg"><path d="M12.3637 -0.0025C10.0037 -0.0225 7.3937 1.1175 5.6637 3.5575C5.4037 3.8875 5.1637 4.2475 4.9237 4.7975C7.8937 5.3275 10.2937 7.9575 10.2937 10.8875C10.2937 11.7175 10.1337 12.4875 9.8437 13.1675C11.6437 12.9075 12.7737 12.4975 13.7937 11.9175C16.0537 10.6275 17.8237 8.5175 17.8237 5.4975C17.8237 2.0075 15.3637 0.0275 12.3637 -0.0025ZM25.1737 -0.0025C22.1637 0.0275 19.7037 2.0075 19.7037 5.4975C19.7037 8.5175 21.4737 10.6275 23.7237 11.9175C24.7637 12.4975 25.8837 12.9075 27.6837 13.1675C27.3837 12.4875 27.2337 11.7175 27.2337 10.8875C27.2337 7.9575 29.6437 5.3275 32.6037 4.7975C32.3637 4.2475 32.1337 3.8875 31.8737 3.5575C30.1237 1.1175 27.5237 -0.0225 25.1737 -0.0025ZM24.6537 5.8675L22.6237 4.1675C22.3437 3.9375 22.3237 3.5275 22.5537 3.2575C22.7737 2.9675 23.2037 2.9275 23.4737 3.1575L25.4837 4.8575C25.7737 5.0875 25.8137 5.4975 25.5637 5.7875C25.3437 6.0675 24.9237 6.0975 24.6537 5.8675ZM12.8837 5.8675C12.6037 6.0975 12.1837 6.0675 11.9637 5.7875C11.7137 5.4975 11.7537 5.0875 12.0437 4.8575L14.0537 3.1575C14.3237 2.9275 14.7337 2.9675 14.9737 3.2575C15.2037 3.5275 15.1937 3.9375 14.9037 4.1675ZM4.9737 14.8475C7.0937 14.8475 8.9837 13.5375 8.9837 10.8875C8.9837 8.5175 6.7537 6.0175 3.8537 6.0175C1.4037 6.0175 0.0037 7.9575 0.0037 9.9375C0.0037 12.9075 2.5337 14.8475 4.9737 14.8475ZM32.5537 14.8475C35.0037 14.8475 37.5337 12.9075 37.5337 9.9375C37.5337 7.9575 36.1237 6.0175 33.6737 6.0175C30.7737 6.0175 28.5437 8.5175 28.5437 10.8875C28.5437 13.5375 30.4337 14.8475 32.5537 14.8475ZM4.2937 12.7675C3.9137 13.1075 3.2537 12.7675 2.4437 11.7975C1.6537 10.8275 1.4537 10.1575 1.8337 9.8275C2.2237 9.4775 2.8737 9.8075 3.6937 10.7875C4.4737 11.7875 4.6737 12.4375 4.2937 12.7675ZM33.2337 12.7675C32.8537 12.4375 33.0537 11.7875 33.8337 10.7875C34.6537 9.8075 35.3037 9.4775 35.6937 9.8275C36.0837 10.1575 35.8737 10.8275 35.0837 11.7975C34.2737 12.7675 33.6237 13.1075 33.2337 12.7675ZM10.3937 24.1875H11.4537C12.3037 24.1875 12.8537 23.7475 12.8537 22.8975V13.8775C11.7137 14.2875 10.4337 14.5375 8.9737 14.5975V22.8975C8.9737 23.7475 9.5337 24.1875 10.3937 24.1875ZM27.1437 24.1875C28.0037 24.1875 28.5637 23.7475 28.5637 22.8975V14.6675C27.1437 14.5775 25.8437 14.3175 24.6737 13.8875V22.8975C24.6737 23.7475 25.2237 24.1875 26.0737 24.1875Z" /></svg>