
<svg
    viewBox="0 0 15.09375 23.953257884845577"
    xmlns="http://www.w3.org/2000/svg"
>
    <path
        fill="inherit"
        d="M5.8837 0.0031C2.7237 0.0231 0.0037 2.6231 0.0037 6.1631C0.0037 9.8331 5.2137 14.2231 8.9937 14.2331C11.7337 14.2431 15.0937 11.5931 15.0937 8.2331C15.0937 4.1731 10.0737 -0.0269 5.8837 0.0031ZM6.4937 6.2531C6.0737 6.8531 5.2537 6.9831 4.6237 6.5331L2.7237 5.1831C2.1037 4.7331 1.9837 3.9331 2.4437 3.3331C2.8537 2.7231 3.6737 2.5731 4.2837 3.0031L6.1837 4.3931C6.7837 4.8131 6.9137 5.6331 6.4937 6.2531ZM10.2937 12.3431C9.5537 12.3431 9.5137 11.3931 10.2537 10.2031C10.9737 8.9831 12.1637 8.0431 12.9237 8.0431C13.6737 8.0431 13.7137 8.9831 12.9737 10.2031C12.2537 11.3931 11.0637 12.3431 10.2937 12.3431ZM5.2237 23.9531C6.0737 23.9531 6.6337 23.5131 6.6337 22.6831V15.1331C5.0337 14.6331 3.4437 13.6731 2.1037 12.4731V22.6831C2.1037 23.5131 2.6537 23.9531 3.5037 23.9531Z"
        fillRule="evenodd"
        clipRule="evenodd"
    />
</svg>
        