
<svg
    viewBox={0 0 22.23046875 27.15234375}
    xmlns="http://www.w3.org/2000/svg"
>
    <path
        fill="inherit"
        d="M0.0037 7.7273H5.7937C6.0437 7.1673 6.6337 6.7773 7.3237 6.7773H14.9037C15.6237 6.7773 16.2037 7.1673 16.4437 7.7273H22.2337V6.8873C22.2337 2.2373 19.9837 -0.0027 15.3437 -0.0027H6.8937C2.2437 -0.0027 0.0037 2.2373 0.0037 6.8873ZM6.8937 27.1573H15.3437C19.9837 27.1573 22.2337 24.9073 22.2337 20.2573V9.1073H16.4437C16.2037 9.6573 15.6237 10.0373 14.9037 10.0373H7.3237C6.6337 10.0373 6.0437 9.6573 5.7937 9.1073H0.0037V20.2573C0.0037 24.9073 2.2437 27.1573 6.8937 27.1573ZM11.1137 15.6173C10.4337 15.6273 9.8537 15.0373 9.8537 14.3673C9.8537 13.6873 10.4337 13.1073 11.1137 13.1073C11.8037 13.1073 12.3737 13.6873 12.3737 14.3673C12.3737 15.0073 11.8037 15.5973 11.1137 15.6173Z"
        fillRule="evenodd"
        clipRule="evenodd"
    />
</svg>
        