
<svg
    viewBox="0 0 31.923828125 25.908203125"
    xmlns="http://www.w3.org/2000/svg"
>
    <path
        fill="inherit"
        d="M28.4137 0.002H3.5137C1.3437 0.002 0.0037 1.342 0.0037 3.512V17.292C0.0037 19.472 1.3437 20.812 3.5137 20.812H8.1637L10.1037 18.612H3.5537C2.7037 18.612 2.2037 18.102 2.2037 17.272V3.552C2.2037 2.702 2.7037 2.202 3.5537 2.202H28.3737C29.2137 2.202 29.7237 2.702 29.7237 3.552V17.272C29.7237 18.102 29.2137 18.612 28.3737 18.612H21.8337L23.7737 20.812H28.4137C30.5837 20.812 31.9237 19.472 31.9237 17.292V3.512C31.9237 1.342 30.5837 0.002 28.4137 0.002ZM24.3237 25.912C24.9637 25.912 25.2137 25.252 24.8037 24.792L16.5537 15.452C16.2437 15.092 15.6937 15.092 15.3837 15.452L7.1337 24.792C6.7237 25.252 6.9737 25.912 7.6137 25.912Z"
        fillRule="evenodd"
        clipRule="evenodd"
    />
</svg>
        