<svg viewBox="0 0 22.517578125 28.90234375" xmlns="http://www.w3.org/2000/svg"><path d="M4.2937 28.9049H18.2237C21.0837 28.9049 22.5137 27.4949 22.5137 24.6749V4.2349C22.5137 1.4249 21.0837 0.0049 18.2237 0.0049H4.2937C1.4337 0.0049 0.0037 1.4249 0.0037 4.2349V24.6749C0.0037 27.4949 1.4337 28.9049 4.2937 28.9049ZM4.3237 2.2049H6.7937V6.8449C6.7937 7.8349 6.2337 8.3949 5.2637 8.3949H2.2037V4.3649C2.2037 2.9349 2.9537 2.2049 4.3237 2.2049ZM4.3237 26.7049C2.9537 26.7049 2.2037 25.9749 2.2037 24.5549V10.0449H5.3037C7.4137 10.0449 8.4537 9.0249 8.4537 6.9549V2.2049H18.1937C19.5537 2.2049 20.3137 2.9349 20.3137 4.3649V24.5549C20.3137 25.9749 19.5537 26.7049 18.1937 26.7049Z" /></svg>