<svg viewBox="0 0 27.890625 27.890625" xmlns="http://www.w3.org/2000/svg"><path d="M13.9427 27.8927C21.6427 27.8927 27.8927 21.6427 27.8927 13.9427C27.8927 6.2627 21.6427 0.0027 13.9427 0.0027C6.2627 0.0027 0.0027 6.2627 0.0027 13.9427C0.0027 21.6427 6.2627 27.8927 13.9427 27.8927ZM19.9627 8.0127C21.1327 8.0127 21.9727 8.8327 21.9727 9.9827V16.6127C21.9727 17.7727 21.1327 18.5627 19.9627 18.5627H18.4827L17.2227 17.1327H19.8127C20.1927 17.1327 20.4627 16.8727 20.4627 16.4927V10.1127C20.4627 9.7227 20.1927 9.4327 19.8127 9.4327H8.0627C7.6927 9.4327 7.4227 9.7227 7.4227 10.1127V16.4927C7.4227 16.8727 7.6927 17.1327 8.0627 17.1327H10.6627L9.3827 18.5627H7.9027C6.7227 18.5627 5.9227 17.7727 5.9227 16.6127V9.9827C5.9227 8.8327 6.7227 8.0127 7.9027 8.0127ZM18.0427 21.0827H9.8127C9.3827 21.0827 9.1327 20.5727 9.4427 20.2227L13.5227 15.6227C13.7527 15.4127 14.1627 15.4127 14.3527 15.6227L18.4127 20.2227C18.7327 20.5727 18.5127 21.0827 18.0427 21.0827Z" /></svg>