
<svg
    viewBox={0 0 27.890625 27.890625}
    xmlns="http://www.w3.org/2000/svg"
>
    <path
        fill="inherit"
        d="M13.9427 27.8927C21.6427 27.8927 27.8927 21.6427 27.8927 13.9427C27.8927 6.2627 21.6427 0.0027 13.9427 0.0027C6.2627 0.0027 0.0027 6.2627 0.0027 13.9427C0.0027 21.6427 6.2627 27.8927 13.9427 27.8927ZM23.1027 13.9627C23.1027 14.9027 21.8627 15.6127 20.3327 15.6127H17.3127C16.9427 15.6127 16.8327 15.6727 16.5927 15.9127L11.5627 21.3927C11.3927 21.5927 11.1527 21.7127 10.9127 21.7127H10.0327C9.7327 21.7127 9.5727 21.4227 9.6927 21.1227L12.2127 15.5827L8.6927 15.1927L7.3827 17.5827C7.2627 17.8127 7.0527 17.9227 6.7527 17.9227H6.4227C6.1527 17.9227 5.9727 17.7327 5.9727 17.4627V10.4427C5.9727 10.1727 6.1527 9.9927 6.4227 9.9927H6.7527C7.0527 9.9927 7.2627 10.1027 7.3827 10.3327L8.6927 12.7327L12.2127 12.3327L9.6927 6.7927C9.5727 6.4927 9.7327 6.2027 10.0327 6.2027H10.9127C11.1527 6.2027 11.3927 6.3127 11.5627 6.5227L16.5927 12.0027C16.8327 12.2527 16.9427 12.3027 17.3127 12.3027H20.3327C21.8627 12.3027 23.1027 13.0127 23.1027 13.9627Z"
        fillRule="evenodd"
        clipRule="evenodd"
    />
</svg>
        