
<svg
    viewBox="0 0 15.09375 23.953125"
    xmlns="http://www.w3.org/2000/svg"
>
    <path
        fill="inherit"
        d="M9.2037 0.003C5.0137 0.003 0.0037 4.173 0.0037 8.233C0.0037 11.593 3.3637 14.243 6.0837 14.233C9.8737 14.223 15.0937 9.833 15.0937 6.163C15.0937 2.623 12.3637 0.003 9.2037 0.003ZM8.6037 6.253C8.1637 5.633 8.3137 4.813 8.9137 4.393L10.8137 3.003C11.4037 2.573 12.2337 2.723 12.6437 3.333C13.1137 3.933 12.9737 4.733 12.3737 5.183L10.4737 6.533C9.8437 6.983 9.0137 6.853 8.6037 6.253ZM4.7837 12.343C4.0237 12.343 2.8437 11.393 2.1037 10.203C1.3837 8.983 1.4037 8.043 2.1737 8.043C2.9237 8.043 4.1137 8.983 4.8437 10.203C5.5637 11.393 5.5337 12.343 4.7837 12.343ZM9.8737 23.953H11.5837C12.4237 23.953 12.9837 23.513 12.9837 22.683V12.473C11.6437 13.673 10.0637 14.633 8.4637 15.133V22.683C8.4637 23.513 9.0137 23.953 9.8737 23.953Z"
        fillRule="evenodd"
        clipRule="evenodd"
    />
</svg>
        