
<svg
    viewBox="0 0 30.953125 23.84375"
    xmlns="http://www.w3.org/2000/svg"
>
    <path
        fill="inherit"
        d="M0.0037 7.863H8.4537C8.6637 7.233 9.2737 6.853 9.9837 6.853H20.9437C21.6537 6.853 22.2437 7.233 22.4637 7.863H30.9137V7.423C30.9137 2.433 27.9637 0.003 22.6237 0.003H8.2837C2.9637 0.003 0.0037 2.433 0.0037 7.423ZM8.2837 23.843H22.6637C28.2637 23.843 30.9537 21.163 30.9537 15.603V9.103H22.4937C22.2537 9.723 21.6837 10.113 20.9637 10.113H10.0037C9.2937 10.113 8.6937 9.723 8.4737 9.103H0.0037V15.603C0.0037 21.163 2.7037 23.843 8.2837 23.843ZM15.4737 15.323C14.7937 15.343 14.2337 14.763 14.2337 14.093C14.2337 13.413 14.7937 12.833 15.4737 12.833C16.1637 12.833 16.7337 13.413 16.7337 14.093C16.7337 14.743 16.1637 15.313 15.4737 15.323Z"
        fillRule="evenodd"
        clipRule="evenodd"
    />
</svg>
        