
<svg
    viewBox={0 0 27.890625 27.890625}
    xmlns="http://www.w3.org/2000/svg"
>
    <path
        fill="inherit"
        d="M13.9427 27.8864C21.6427 27.8864 27.8927 21.6464 27.8927 13.9464C27.8927 6.2464 21.6427 -0.0036 13.9427 -0.0036C6.2527 -0.0036 0.0027 6.2464 0.0027 13.9464C0.0027 21.6464 6.2527 27.8864 13.9427 27.8864ZM13.9427 25.5664C7.5227 25.5664 2.3227 20.3664 2.3227 13.9464C2.3227 7.5164 7.5227 2.3264 13.9427 2.3264C20.3727 2.3264 25.5627 7.5164 25.5627 13.9464C25.5627 20.3664 20.3727 25.5664 13.9427 25.5664ZM22.8327 13.9564C22.8327 13.0464 21.6327 12.3464 20.1427 12.3464H17.2127C16.8527 12.3464 16.7527 12.3064 16.5127 12.0564L11.6527 6.7564C11.4727 6.5464 11.2527 6.4564 11.0027 6.4564H10.1627C9.8727 6.4564 9.7027 6.7164 9.8327 6.9964L12.2627 12.3764L8.8627 12.7664L7.5927 10.4464C7.4627 10.2264 7.2727 10.1164 6.9727 10.1164H6.6627C6.4027 10.1164 6.2227 10.2964 6.2227 10.5564V17.3464C6.2227 17.6064 6.4027 17.7864 6.6627 17.7864H6.9727C7.2727 17.7864 7.4627 17.6764 7.5927 17.4764L8.8627 15.1464L12.2627 15.5264L9.8327 20.9064C9.7027 21.1864 9.8727 21.4464 10.1627 21.4464H11.0027C11.2527 21.4464 11.4727 21.3564 11.6527 21.1664L16.5127 15.8564C16.7527 15.6164 16.8527 15.5564 17.2127 15.5564H20.1427C21.6327 15.5564 22.8327 14.8564 22.8327 13.9564Z"
        fillRule="evenodd"
        clipRule="evenodd"
    />
</svg>
        