
<svg
    viewBox={0 0 11.92232831195016 26.6328125}
    xmlns="http://www.w3.org/2000/svg"
>
    <path
        fill="inherit"
        d="M6.0137 11.0912C9.2137 11.1112 11.9637 8.6012 11.9237 5.5212C11.8837 2.4912 9.2137 0.0012 6.0137 0.0012C3.0737 0.0012 1.2737 1.8212 0.4137 3.0912C0.1237 3.5312 0.0037 4.0012 0.0037 4.5412V6.5512C0.0037 7.0812 0.1337 7.5612 0.4137 8.0012C1.2437 9.2712 3.0737 11.0512 6.0137 11.0912ZM2.4837 7.7112C2.1337 7.7112 1.8437 7.4212 1.8437 7.0512V4.0212C1.8437 3.6512 2.1337 3.3612 2.4837 3.3612C2.8737 3.3612 3.1437 3.6512 3.1437 4.0212V7.0512C3.1437 7.4212 2.8737 7.7112 2.4837 7.7112ZM6.7137 22.1212H10.5637V10.8812C9.4837 11.7212 8.1437 12.2612 6.7137 12.3712ZM8.0537 26.6312H9.2137C10.0537 26.6312 10.5637 26.2212 10.5637 25.4112V23.4912H6.7137V25.4112C6.7137 26.2212 7.2437 26.6312 8.0537 26.6312Z"
        fillRule="evenodd"
        clipRule="evenodd"
    />
</svg>
        