
<svg
    viewBox="0 0 35.15940992071023 24.314950012676075"
    xmlns="http://www.w3.org/2000/svg"
>
    <path
        fill="inherit"
        d="M7.6828 15.1597L31.1328 8.9097C33.7528 8.1997 35.7228 6.2697 35.0128 4.3097C34.3528 2.5397 31.7228 2.0997 29.3628 2.8897L21.1528 5.7097C20.5728 5.8997 20.1628 5.8897 19.5128 5.5697L8.0528 0.1597C7.6828 -0.0103 7.2728 -0.0503 6.9028 0.0597L5.9628 0.3497C5.6328 0.4597 5.5228 0.8397 5.8228 1.1597L12.7928 8.5497L8.2428 10.1097L1.6628 7.7897C1.3028 7.6597 0.9728 7.7197 0.6128 8.0497L0.2228 8.4097C-0.0572 8.6597 -0.0672 8.9897 0.1628 9.2397L4.9628 14.6197C5.5928 15.3297 6.5228 15.4697 7.6828 15.1597ZM2.6828 24.3197H32.1828C32.7828 24.3197 33.2928 23.8097 33.2928 23.2097C33.2928 22.6097 32.7828 22.1097 32.1828 22.1097H2.6828C2.0728 22.1097 1.5828 22.6097 1.5828 23.2097C1.5828 23.8097 2.0728 24.3197 2.6828 24.3197Z"
        fillRule="evenodd"
        clipRule="evenodd"
    />
</svg>
        