
<svg
    viewBox={0 0 22.23046875 27.15234375}
    xmlns="http://www.w3.org/2000/svg"
>
    <path
        fill="inherit"
        d="M6.8937 27.1573H15.3437C19.9837 27.1573 22.2337 24.9073 22.2337 20.2573V6.8873C22.2337 2.2373 19.9837 -0.0027 15.3437 -0.0027H6.8937C2.2437 -0.0027 0.0037 2.2373 0.0037 6.8873V20.2573C0.0037 24.9073 2.2437 27.1573 6.8937 27.1573ZM14.9037 6.7773H7.3237C6.6537 6.7773 6.0837 7.1373 5.8237 7.7273H2.2037V6.8873C2.2037 3.6273 3.6237 2.1973 6.8937 2.1973H15.3437C18.6037 2.1973 20.0337 3.6273 20.0337 6.8873V7.7273H16.4037C16.1637 7.1373 15.6037 6.7773 14.9037 6.7773ZM6.8937 24.9473C3.6237 24.9473 2.2037 23.5273 2.2037 20.2573V9.1073H5.8237C6.0837 9.6773 6.6537 10.0373 7.3237 10.0373H14.9037C15.6037 10.0373 16.1637 9.6773 16.4037 9.1073H20.0337V20.2573C20.0337 23.5273 18.6037 24.9473 15.3437 24.9473Z"
        fillRule="evenodd"
        clipRule="evenodd"
    />
</svg>
        