
<svg
    viewBox="0 0 28.861328125 23.84375"
    xmlns="http://www.w3.org/2000/svg"
>
    <path
        fill="inherit"
        d="M8.2837 23.843H20.5737C26.1537 23.843 28.8637 21.163 28.8637 15.603V8.243C28.8637 2.683 26.1537 0.003 20.5737 0.003H8.2837C2.7037 0.003 0.0037 2.683 0.0037 8.243V15.603C0.0037 21.163 2.7037 23.843 8.2837 23.843ZM19.9037 6.853H8.9537C8.2737 6.853 7.6937 7.223 7.4537 7.793H2.2137C2.3337 3.933 4.2337 2.203 8.2837 2.203H20.5737C24.6237 2.203 26.5237 3.933 26.6637 7.793H21.4237C21.1737 7.223 20.6137 6.853 19.9037 6.853ZM8.2837 21.643C4.0837 21.643 2.2037 19.773 2.2037 15.603V9.173H7.4537C7.6937 9.753 8.2737 10.113 8.9537 10.113H19.9037C20.6137 10.113 21.1737 9.753 21.4237 9.173H26.6637V15.603C26.6637 19.773 24.7737 21.643 20.5737 21.643ZM14.4337 14.783C15.1637 14.763 15.7537 14.163 15.7537 13.483C15.7537 12.753 15.1637 12.153 14.4337 12.153C13.7037 12.153 13.1137 12.753 13.1137 13.483C13.1137 14.193 13.7037 14.793 14.4337 14.783Z"
        fillRule="evenodd"
        clipRule="evenodd"
    />
</svg>
        