
<svg
    viewBox="0 0 28 27.53515625"
    xmlns="http://www.w3.org/2000/svg"
>
    <path
        fill="inherit"
        d="M0.0027 14.0011C0.0027 17.9511 1.6527 21.5211 4.2927 24.0511C4.4527 24.2111 4.6527 24.2111 4.8027 24.0311L5.4427 23.3211C5.5927 23.1511 5.5827 22.9811 5.4127 22.8211C3.1127 20.5911 1.6727 17.4411 1.6727 14.0011C1.6727 7.2711 7.2427 1.6811 14.0027 1.6811C20.7527 1.6811 26.3327 7.2711 26.3327 14.0011C26.3327 17.4411 24.8727 20.5911 22.5727 22.8211C22.4127 22.9811 22.3927 23.1511 22.5427 23.3411L23.1827 24.0511C23.3427 24.2311 23.5127 24.2311 23.6827 24.0611C26.3327 21.5311 28.0027 17.9511 28.0027 14.0011C28.0027 6.3311 21.7227 0.0011 14.0027 0.0011C6.2727 0.0011 0.0027 6.3311 0.0027 14.0011ZM3.9827 14.0011C3.9827 16.7611 5.1127 19.2411 6.9327 21.0511C7.0927 21.2311 7.3027 21.2211 7.4527 21.0511L8.0827 20.3611C8.2627 20.1811 8.2327 20.0011 8.0627 19.8211C6.5727 18.3311 5.6627 16.2711 5.6627 14.0011C5.6627 9.4311 9.4227 5.6611 14.0027 5.6611C18.5827 5.6611 22.3427 9.4311 22.3427 14.0011C22.3427 16.2711 21.4127 18.3511 19.9227 19.8211C19.7527 20.0011 19.7327 20.1811 19.9027 20.3611L20.5527 21.0711C20.7027 21.2311 20.8927 21.2411 21.0527 21.0711C22.8827 19.2511 24.0227 16.7611 24.0227 14.0011C24.0227 8.5011 19.5227 3.9811 14.0027 3.9811C8.4727 3.9811 3.9827 8.5011 3.9827 14.0011ZM7.9527 14.0011C7.9527 15.5611 8.5727 16.9811 9.5727 18.0511C9.7227 18.2111 9.9127 18.2111 10.0727 18.0311L10.7327 17.3511C10.8927 17.1811 10.8827 17.0111 10.7627 16.8311C10.0627 16.0911 9.6427 15.0811 9.6427 14.0011C9.6427 11.6211 11.6227 9.6411 14.0027 9.6411C16.3827 9.6411 18.3627 11.6211 18.3627 14.0011C18.3627 15.0911 17.9327 16.1011 17.2227 16.8411C17.0927 17.0211 17.0727 17.2011 17.2527 17.3611L17.9127 18.0511C18.0727 18.2211 18.2527 18.2211 18.4027 18.0511C19.4327 16.9911 20.0427 15.5711 20.0427 14.0011C20.0427 10.6911 17.3227 7.9611 14.0027 7.9611C10.6827 7.9611 7.9527 10.6911 7.9527 14.0011ZM5.6327 27.5311H22.3427C22.9827 27.5311 23.2327 26.8611 22.8327 26.4111L14.5727 17.0811C14.2627 16.7211 13.7127 16.7211 13.4027 17.0811L5.1527 26.4111C4.7427 26.8811 4.9927 27.5311 5.6327 27.5311Z"
        fillRule="evenodd"
        clipRule="evenodd"
    />
</svg>
        