<svg viewBox="0 0 32.69299184523935 28.095553151077844" xmlns="http://www.w3.org/2000/svg"><path d="M3.5852 13.7003L27.0052 20.0003C29.6252 20.7103 32.2952 20.0203 32.6652 17.9803C32.9652 16.1003 30.9152 14.4103 28.4652 13.9303L19.9452 12.2403C19.3652 12.1303 19.0152 11.8903 18.6052 11.3103L11.3752 0.9003C11.1452 0.5703 10.8252 0.3503 10.4452 0.2603L9.4752 0.0103C9.1352 -0.0697 8.8752 0.2303 8.9752 0.6603L11.2952 10.5303L6.5652 9.6103L2.0552 4.3203C1.7752 4.0103 1.4952 3.9103 0.9952 4.0203L0.4752 4.1303C0.1152 4.2003 -0.0548 4.4803 0.0152 4.8103L1.4652 11.8903C1.6552 12.8003 2.4052 13.3803 3.5852 13.7003ZM1.5852 28.1003H31.0952C31.6952 28.1003 32.1852 27.5903 32.1852 26.9903C32.1852 26.3903 31.6952 25.8903 31.0952 25.8903H1.5852C0.9852 25.8903 0.4952 26.3903 0.4952 26.9903C0.4952 27.5903 0.9852 28.1003 1.5852 28.1003Z" /></svg>