
<svg
    viewBox={0 0 30.81640625 27.8359375}
    xmlns="http://www.w3.org/2000/svg"
>
    <path
        fill="inherit"
        d="M30.8137 13.9191C30.8037 12.3191 28.6337 11.1591 26.0137 11.1591H20.5037C19.7437 11.1591 19.4537 11.0291 19.0037 10.5091L9.8137 0.4891C9.5337 0.1591 9.1737 -0.0009 8.7637 -0.0009H7.1737C6.8237 -0.0009 6.6137 0.3191 6.7937 0.6991L11.5237 11.1591L4.5837 11.9491L2.1037 7.4091C1.9237 7.0691 1.6237 6.9191 1.1737 6.9191H0.5837C0.2337 6.9191 0.0037 7.1491 0.0037 7.5091V20.3291C0.0037 20.6891 0.2337 20.9091 0.5837 20.9091H1.1737C1.6237 20.9091 1.9237 20.7491 2.1037 20.4291L4.5837 15.8891L11.5237 16.6791L6.7937 27.1391C6.6137 27.5091 6.8237 27.8391 7.1737 27.8391H8.7637C9.1737 27.8391 9.5337 27.6591 9.8137 27.3391L19.0037 17.3091C19.4537 16.7991 19.7437 16.6791 20.5037 16.6791H26.0137C28.6337 16.6791 30.8037 15.4991 30.8137 13.9191Z"
        fillRule="evenodd"
        clipRule="evenodd"
    />
</svg>
        