
<svg
    viewBox={0 0 33.373046875 23.95325788484558}
    xmlns="http://www.w3.org/2000/svg"
>
    <path
        fill="inherit"
        d="M9.2037 0.0031C5.0137 -0.0269 0.0037 4.1731 0.0037 8.2331C0.0037 11.5931 3.3637 14.2431 6.0837 14.2331C9.8737 14.2231 15.0937 9.8331 15.0937 6.1631C15.0937 2.6231 12.3637 0.0231 9.2037 0.0031ZM24.1737 0.0031C21.0137 0.0231 18.2837 2.6231 18.2837 6.1631C18.2837 9.8331 23.5037 14.2231 27.2937 14.2331C30.0137 14.2431 33.3737 11.5931 33.3737 8.2331C33.3737 4.1731 28.3537 -0.0269 24.1737 0.0031ZM8.6037 6.2531C8.1637 5.6331 8.3137 4.8131 8.9137 4.3931L10.8137 3.0031C11.4037 2.5731 12.2337 2.7231 12.6437 3.3331C13.1137 3.9331 12.9737 4.7331 12.3737 5.1831L10.4737 6.5331C9.8437 6.9831 9.0137 6.8531 8.6037 6.2531ZM24.7737 6.2531C24.3637 6.8531 23.5337 6.9831 22.9137 6.5331L21.0137 5.1831C20.3937 4.7331 20.2637 3.9331 20.7237 3.3331C21.1337 2.7231 21.9737 2.5731 22.5537 3.0031L24.4737 4.3931C25.0737 4.8131 25.2137 5.6331 24.7737 6.2531ZM4.7837 12.3431C4.0237 12.3431 2.8437 11.3931 2.1037 10.2031C1.3837 8.9831 1.4037 8.0431 2.1737 8.0431C2.9237 8.0431 4.1137 8.9831 4.8437 10.2031C5.5637 11.3931 5.5337 12.3431 4.7837 12.3431ZM28.5837 12.3431C27.8337 12.3431 27.8037 11.3931 28.5337 10.2031C29.2537 8.9831 30.4437 8.0431 31.2037 8.0431C31.9637 8.0431 31.9937 8.9831 31.2637 10.2031C30.5437 11.3931 29.3537 12.3431 28.5837 12.3431ZM9.8737 23.9531H11.5837C12.4237 23.9531 12.9837 23.5131 12.9837 22.6831V12.4731C11.6437 13.6731 10.0637 14.6331 8.4637 15.1331V22.6831C8.4637 23.5131 9.0137 23.9531 9.8737 23.9531ZM23.5037 23.9531C24.3637 23.9531 24.9137 23.5131 24.9137 22.6831V15.1331C23.3137 14.6331 21.7237 13.6731 20.3837 12.4731V22.6831C20.3837 23.5131 20.9437 23.9531 21.7937 23.9531Z"
        fillRule="evenodd"
        clipRule="evenodd"
    />
</svg>
        