
<svg
    viewBox="0 0 28.148689455117662 29.99609375"
    xmlns="http://www.w3.org/2000/svg"
>
    <path
        fill="inherit"
        d="M0.4118 14.1404C0.4118 14.5504 0.5918 14.8604 0.8718 15.0404V16.8704C0.2418 17.2404 -0.0682 17.9604 0.0118 18.8504C0.2818 20.4804 1.3818 23.0804 2.7018 25.2104C4.8018 28.7504 6.0118 30.0004 7.3418 30.0004C9.0518 30.0004 9.8418 28.4204 8.9118 26.7604L3.8018 17.7204C3.4018 17.0304 2.8318 16.6904 2.1218 16.6404V14.9704C2.3618 14.8104 2.4918 14.5104 2.4918 14.1404C2.5518 6.7704 6.9418 2.0904 14.0718 2.0904C21.2018 2.0904 25.5818 6.7704 25.6518 14.1404C25.6518 14.5104 25.7818 14.8104 26.0318 14.9704V16.6404C25.3018 16.6904 24.7418 17.0304 24.3518 17.7204L19.2318 26.7604C18.2918 28.4204 19.1018 30.0004 20.8118 30.0004C22.1318 30.0004 23.3518 28.7504 25.4418 25.2104C26.7518 23.0804 27.8618 20.4804 28.1318 18.8504C28.2218 17.9604 27.9018 17.2404 27.2718 16.8704V15.0404C27.5618 14.8604 27.7218 14.5504 27.7218 14.1404C27.7218 5.7604 22.5718 0.0004 14.0718 0.0004C5.5618 0.0004 0.4118 5.7604 0.4118 14.1404ZM6.0818 6.8504C8.3218 5.6304 10.9518 5.0304 14.0718 5.0304C17.2018 5.0304 19.8218 5.6304 22.0518 6.8504C20.2618 4.5504 17.7018 3.4004 14.0718 3.4004C10.4418 3.4004 7.8918 4.5504 6.0818 6.8504ZM11.4318 27.2904C12.3018 26.7804 12.5318 25.6504 11.9718 24.6804L7.3718 16.5404C6.8118 15.5704 5.7118 15.2204 4.8518 15.7204C4.3218 16.0104 4.1918 16.5204 4.4718 16.9904L10.1318 26.9504C10.4218 27.4404 10.9118 27.5804 11.4318 27.2904ZM16.7218 27.2904C17.2418 27.5804 17.7318 27.4404 18.0018 26.9504L23.6618 16.9904C23.9518 16.5204 23.8318 16.0104 23.2918 15.7204C22.4218 15.2204 21.3418 15.5704 20.7618 16.5404L16.1618 24.6804C15.6018 25.6504 15.8418 26.7804 16.7218 27.2904Z"
        fillRule="evenodd"
        clipRule="evenodd"
    />
</svg>
        