
<svg
    viewBox="0 0 27.890625 27.890625"
    xmlns="http://www.w3.org/2000/svg"
>
    <path
        fill="inherit"
        d="M13.9427 27.8927C21.6427 27.8927 27.8927 21.6427 27.8927 13.9427C27.8927 6.2627 21.6427 0.0027 13.9427 0.0027C6.2627 0.0027 0.0027 6.2627 0.0027 13.9427C0.0027 21.6427 6.2627 27.8927 13.9427 27.8927ZM13.9427 6.7427C17.9127 6.7427 21.1627 9.9927 21.1627 13.9427C21.1627 15.8627 20.4027 17.6727 19.0327 19.0127L18.2827 18.1727C19.3827 17.0327 20.0127 15.5027 20.0127 13.9427C20.0127 10.6327 17.2627 7.8927 13.9427 7.8927C10.6327 7.8927 7.9027 10.6327 7.9027 13.9427C7.9027 15.5027 8.5127 17.0327 9.6127 18.1727L8.8627 19.0127C7.4927 17.6727 6.7527 15.8627 6.7527 13.9427C6.7527 9.9927 9.9827 6.7427 13.9427 6.7427ZM13.9427 8.7327C16.8027 8.7327 19.1527 11.0927 19.1527 13.9427C19.1527 15.2827 18.6527 16.5427 17.7227 17.5227L16.9427 16.6527C17.6227 15.9127 17.9927 14.9427 17.9927 13.9427C17.9927 11.7127 16.1627 9.8827 13.9427 9.8827C11.7327 9.8827 9.9127 11.7127 9.9127 13.9427C9.9127 14.9427 10.2627 15.9027 10.9327 16.6627L10.1727 17.5227C9.2427 16.5527 8.7527 15.2827 8.7527 13.9427C8.7527 11.0927 11.0927 8.7327 13.9427 8.7327ZM13.9427 10.7327C15.6927 10.7327 17.1627 12.1927 17.1627 13.9427C17.1627 14.7227 16.8727 15.4327 16.3827 16.0127L15.5827 15.1027C15.8427 14.7827 15.9927 14.3527 15.9927 13.9427C15.9927 12.8227 15.0627 11.8927 13.9427 11.8927C12.8227 11.8927 11.9127 12.8227 11.9127 13.9427C11.9127 14.3527 12.0427 14.7827 12.3027 15.1227L11.5127 16.0227C11.0227 15.4327 10.7427 14.7427 10.7427 13.9427C10.7427 12.1927 12.1927 10.7327 13.9427 10.7327ZM9.8327 21.0427C9.3927 21.0427 9.1427 20.5227 9.4627 20.1827L13.5327 15.5827C13.7627 15.3527 14.1627 15.3527 14.3727 15.5827L18.4327 20.1827C18.7427 20.5227 18.5227 21.0427 18.0627 21.0427Z"
        fillRule="evenodd"
        clipRule="evenodd"
    />
</svg>
        