<svg viewBox="0 0 27.890625 27.890625" xmlns="http://www.w3.org/2000/svg"><path d="M13.9427 27.8864C21.6427 27.8864 27.8927 21.6464 27.8927 13.9464C27.8927 6.2464 21.6427 -0.0036 13.9427 -0.0036C6.2527 -0.0036 0.0027 6.2464 0.0027 13.9464C0.0027 21.6464 6.2527 27.8864 13.9427 27.8864ZM13.9627 25.3564C7.6427 25.3564 2.5427 20.2664 2.5427 13.9464C2.5427 7.6264 7.6427 2.5164 13.9627 2.5164C20.2727 2.5164 25.3927 7.6264 25.3927 13.9464C25.3927 20.2664 20.2727 25.3564 13.9627 25.3564ZM13.9427 24.0464C19.5227 24.0464 24.0527 19.5064 24.0527 13.9464C24.0527 8.3664 19.5227 3.8464 13.9427 3.8464C8.3627 3.8464 3.8427 8.3664 3.8427 13.9464C3.8427 19.5064 8.3627 24.0464 13.9427 24.0464ZM15.3827 9.5964C15.0427 10.0264 14.4627 10.3364 14.0027 10.3364C13.9327 10.3364 13.8927 10.3264 13.8527 10.3264C13.8527 10.2964 13.8327 10.2164 13.8327 10.1464C13.8327 9.5964 14.1227 9.0964 14.3927 8.7464C14.7827 8.3164 15.3827 7.9964 15.9027 7.9864C15.9127 8.0364 15.9127 8.1064 15.9127 8.1764C15.9127 8.7064 15.6927 9.2164 15.3827 9.5964ZM14.0727 17.7464C13.2927 17.7464 13.0127 18.1664 12.3827 18.1664C11.7327 18.1664 11.3027 17.5964 10.7827 16.8864C10.2127 16.0364 9.7227 14.7364 9.7227 13.4964C9.7227 11.5264 11.0227 10.4564 12.2927 10.4564C12.9627 10.4564 13.5227 10.9064 13.9327 10.9064C14.3427 10.9064 14.9727 10.4464 15.7327 10.4464C16.0327 10.4464 17.0727 10.4564 17.7627 11.4464C17.7027 11.5164 16.6627 12.0864 16.6627 13.3964C16.6627 14.9164 17.9927 15.4464 18.0327 15.4664C18.0327 15.4864 17.8327 16.1964 17.3327 16.9164C16.9027 17.5264 16.4227 18.1564 15.7327 18.1564C15.0427 18.1564 14.8727 17.7464 14.0727 17.7464Z" /></svg>