<svg viewBox="0 0 27.890625 27.890625" xmlns="http://www.w3.org/2000/svg"><path d="M13.9427 27.8864C21.6427 27.8864 27.8927 21.6464 27.8927 13.9464C27.8927 6.2464 21.6427 -0.0036 13.9427 -0.0036C6.2527 -0.0036 0.0027 6.2464 0.0027 13.9464C0.0027 21.6464 6.2527 27.8864 13.9427 27.8864ZM13.9627 25.4864C7.5727 25.4864 2.4227 20.3264 2.4227 13.9464C2.4227 7.5564 7.5727 2.3964 13.9627 2.3964C20.3427 2.3964 25.5127 7.5564 25.5127 13.9464C25.5127 20.3264 20.3427 25.4864 13.9627 25.4864ZM13.9427 24.1764C19.5927 24.1764 24.1727 19.5764 24.1727 13.9464C24.1727 8.2964 19.5927 3.7164 13.9427 3.7164C8.3027 3.7164 3.7227 8.2964 3.7227 13.9464C3.7227 19.5764 8.3027 24.1764 13.9427 24.1764ZM13.9427 22.9264C8.9927 22.9264 4.9627 18.8964 4.9627 13.9464C4.9627 8.9864 8.9927 4.9664 13.9427 4.9664C18.9127 4.9664 22.9327 8.9864 22.9327 13.9464C22.9327 18.8964 18.9127 22.9264 13.9427 22.9264ZM15.3427 9.7364C15.6427 9.3664 15.8627 8.8564 15.8627 8.3364C15.8627 8.2764 15.8627 8.2064 15.8427 8.1464C15.3427 8.1664 14.7427 8.4764 14.3827 8.8964C14.1127 9.2464 13.8327 9.7364 13.8327 10.2564C13.8327 10.3264 13.8527 10.4064 13.8527 10.4364C13.8927 10.4364 13.9327 10.4464 13.9827 10.4464C14.4327 10.4464 15.0027 10.1464 15.3427 9.7364ZM14.0527 17.6364C14.8327 17.6364 15.0027 18.0364 15.6827 18.0364C16.3527 18.0364 16.8027 17.4164 17.2227 16.8164C17.7027 16.1364 17.8927 15.4464 17.8927 15.4264C17.8527 15.4064 16.5827 14.8864 16.5827 13.4164C16.5827 12.1364 17.5827 11.5764 17.6327 11.5264C16.9827 10.5664 15.9727 10.5564 15.6827 10.5564C14.9327 10.5564 14.3327 11.0064 13.9327 11.0064C13.5227 11.0064 12.9927 10.5664 12.3327 10.5664C11.1027 10.5664 9.8427 11.5964 9.8427 13.5064C9.8427 14.7264 10.3227 15.9864 10.8827 16.7864C11.3727 17.4864 11.8027 18.0464 12.4327 18.0464C13.0327 18.0464 13.3027 17.6364 14.0527 17.6364Z" /></svg>