
<svg
    viewBox={0 0 26.140625 28.35546875}
    xmlns="http://www.w3.org/2000/svg"
>
    <path
        fill="inherit"
        d="M1.8427 5.7109C2.0527 5.7109 2.2027 5.6909 2.3927 5.5409L6.9727 2.0809C7.1927 1.9109 7.3127 1.6909 7.3127 1.4609C7.3127 1.1709 7.1827 0.9409 6.9427 0.7209C6.4227 0.2609 5.4927 0.0009 4.6727 0.0009C2.5427 0.0009 0.8327 1.7109 0.8327 3.8409C0.8327 4.3509 0.9127 4.8509 1.0627 5.1709C1.2127 5.5109 1.5027 5.7109 1.8427 5.7109ZM24.2927 5.7109C24.6327 5.7109 24.9227 5.5009 25.0927 5.1709C25.2227 4.8709 25.3027 4.3509 25.3027 3.8409C25.3027 1.7109 23.6127 0.0009 21.4627 0.0009C20.6427 0.0009 19.7127 0.2609 19.1927 0.7209C18.9627 0.9409 18.8227 1.1709 18.8227 1.4609C18.8227 1.6909 18.9527 1.9109 19.1827 2.0809L23.7527 5.5409C23.9527 5.6909 24.0927 5.7109 24.2927 5.7109ZM1.6427 27.9609C2.0527 28.3809 2.7227 28.3809 3.1427 27.9409L5.3027 25.8009C7.4827 27.4009 10.1627 28.3509 13.0727 28.3509C15.9827 28.3509 18.6627 27.4009 20.8327 25.8009L22.9927 27.9409C23.4227 28.3809 24.0927 28.3809 24.5027 27.9609C24.9127 27.5609 24.9127 26.8909 24.4827 26.4809L22.4127 24.4209C24.7227 22.0709 26.1427 18.8409 26.1427 15.2809C26.1427 8.0709 20.2927 2.2009 13.0727 2.2009C5.8527 2.2009 0.0027 8.0709 0.0027 15.2809C0.0027 18.8409 1.4227 22.0709 3.7327 24.4209L1.6527 26.4809C1.2327 26.8909 1.2427 27.5609 1.6427 27.9609ZM6.8527 16.7909C6.3127 16.7909 5.9027 16.3809 5.9027 15.8409C5.9027 15.3109 6.3127 14.8909 6.8527 14.8909H12.1127V7.5609C12.1127 7.0309 12.5227 6.6009 13.0527 6.6009C13.5927 6.6009 14.0127 7.0309 14.0127 7.5609V15.8409C14.0127 16.3809 13.5927 16.7909 13.0527 16.7909Z"
        fillRule="evenodd"
        clipRule="evenodd"
    />
</svg>
        