<svg viewBox="0 0 31.69140625 26.27734375" xmlns="http://www.w3.org/2000/svg"><path d="M0.9537 14.1388H3.6237V23.1188C3.6237 25.1588 4.7037 26.2788 6.7037 26.2788H11.4537C13.4537 26.2788 14.5337 25.1588 14.5337 23.1188V14.1388H17.1737V18.2788C17.1737 20.3188 18.2637 21.4088 20.2637 21.4088H25.0237C27.0037 21.4088 28.0937 20.3188 28.0937 18.2788V14.1388H30.7437C31.2837 14.1388 31.6937 13.6588 31.6937 13.1288C31.6937 12.5887 31.2837 12.1288 30.7437 12.1288H28.0937V7.9688C28.0937 5.9288 27.0037 4.8388 25.0237 4.8388H20.2637C18.2637 4.8388 17.1737 5.9288 17.1737 7.9688V12.1288H14.5337V3.1288C14.5337 1.0888 13.4537 -0.0012 11.4537 -0.0012H6.7037C4.7037 -0.0012 3.6237 1.0888 3.6237 3.1288V12.1288H0.9537C0.4137 12.1288 0.0037 12.5887 0.0037 13.1288C0.0037 13.6588 0.4137 14.1388 0.9537 14.1388Z" /></svg>