<svg viewBox="0 0 30.7890625 31.69140625" xmlns="http://www.w3.org/2000/svg"><path d="M0.9937 31.6905C1.5437 31.6905 2.0137 31.2805 2.0137 30.7505V0.9405C2.0137 0.4105 1.5437 0.0005 0.9937 0.0005C0.4637 0.0005 0.0037 0.4105 0.0037 0.9405V30.7505C0.0037 31.2805 0.4637 31.6905 0.9937 31.6905ZM7.6537 14.5305H17.9737C20.0137 14.5305 21.1137 13.4505 21.1137 11.4605V6.7005C21.1137 4.7005 20.0137 3.6205 17.9737 3.6205H7.6537C5.6337 3.6205 4.5237 4.7005 4.5237 6.7005V11.4605C4.5237 13.4505 5.6337 14.5305 7.6537 14.5305ZM7.6537 28.0805H27.6537C29.6937 28.0805 30.7937 27.0005 30.7937 25.0105V20.2505C30.7937 18.2705 29.6937 17.1705 27.6537 17.1705H7.6537C5.6337 17.1705 4.5237 18.2705 4.5237 20.2505V25.0105C4.5237 27.0005 5.6337 28.0805 7.6537 28.0805Z" /></svg>