<svg viewBox="0 0 26.263671875 31.69140625" xmlns="http://www.w3.org/2000/svg"><path d="M3.1337 28.0805H12.1237V30.7505C12.1237 31.2805 12.5937 31.6905 13.1237 31.6905C13.6537 31.6905 14.1337 31.2805 14.1337 30.7505V28.0805H23.1337C25.1537 28.0805 26.2637 27.0005 26.2637 25.0105V20.2505C26.2637 18.2705 25.1537 17.1705 23.1337 17.1705H14.1337V14.5305H18.2937C20.3137 14.5305 21.4237 13.4505 21.4237 11.4605V6.7005C21.4237 4.7005 20.3137 3.6205 18.2937 3.6205H14.1337V0.9405C14.1337 0.4105 13.6537 0.0005 13.1237 0.0005C12.5937 0.0005 12.1237 0.4105 12.1237 0.9405V3.6205H7.9737C5.9337 3.6205 4.8437 4.7005 4.8437 6.7005V11.4605C4.8437 13.4505 5.9337 14.5305 7.9737 14.5305H12.1237V17.1705H3.1337C1.0937 17.1705 0.0037 18.2705 0.0037 20.2505V25.0105C0.0037 27.0005 1.0937 28.0805 3.1337 28.0805Z" /></svg>