
<svg
    viewBox="0 0 30.7890625 31.69140625"
    xmlns="http://www.w3.org/2000/svg"
>
    <path
        fill="inherit"
        d="M0.9937 31.6905C1.5437 31.6905 2.0137 31.2805 2.0137 30.7505V0.9405C2.0137 0.4105 1.5437 0.0005 0.9937 0.0005C0.4637 0.0005 0.0037 0.4105 0.0037 0.9405V30.7505C0.0037 31.2805 0.4637 31.6905 0.9937 31.6905ZM7.6537 14.5305H17.9737C20.0137 14.5305 21.1137 13.4505 21.1137 11.4605V6.7005C21.1137 4.7005 20.0137 3.6205 17.9737 3.6205H7.6537C5.6337 3.6205 4.5237 4.7005 4.5237 6.7005V11.4605C4.5237 13.4505 5.6337 14.5305 7.6537 14.5305ZM7.6937 12.4705C6.9837 12.4705 6.5937 12.0705 6.5937 11.3305V6.8105C6.5937 6.0805 6.9837 5.6905 7.6937 5.6905H17.9337C18.6437 5.6905 19.0437 6.0805 19.0437 6.8105V11.3305C19.0437 12.0705 18.6437 12.4705 17.9337 12.4705ZM7.6537 28.0805H27.6537C29.6937 28.0805 30.7937 27.0005 30.7937 25.0105V20.2505C30.7937 18.2705 29.6937 17.1705 27.6537 17.1705H7.6537C5.6337 17.1705 4.5237 18.2705 4.5237 20.2505V25.0105C4.5237 27.0005 5.6337 28.0805 7.6537 28.0805ZM7.6937 26.0205C6.9837 26.0205 6.5937 25.6205 6.5937 24.9005V20.3705C6.5937 19.6305 6.9837 19.2405 7.6937 19.2405H27.6137C28.3237 19.2405 28.7237 19.6305 28.7237 20.3705V24.9005C28.7237 25.6205 28.3237 26.0205 27.6137 26.0205Z"
        fillRule="evenodd"
        clipRule="evenodd"
    />
</svg>
        