
<svg
    viewBox={0 0 33.33203125 33.46875}
    xmlns="http://www.w3.org/2000/svg"
>
    <path
        fill="inherit"
        d="M23.3391 2.8481C24.1191 2.8481 24.7591 2.2181 24.7591 1.4181C24.7591 0.6281 24.1191 -0.0019 23.3391 -0.0019C22.5491 -0.0019 21.9191 0.6281 21.9191 1.4181C21.9191 2.2181 22.5491 2.8481 23.3391 2.8481ZM15.6091 4.4581C16.4091 4.4581 17.0391 3.8281 17.0391 3.0481C17.0391 2.2581 16.4091 1.6281 15.6091 1.6281C14.8291 1.6281 14.2091 2.2581 14.2091 3.0481C14.2091 3.8281 14.8291 4.4581 15.6091 4.4581ZM30.2991 7.0581C31.0891 7.0581 31.7191 6.4281 31.7191 5.6281C31.7191 4.8581 31.0891 4.2281 30.2991 4.2281C29.4991 4.2281 28.8791 4.8581 28.8791 5.6281C28.8791 6.4281 29.4991 7.0581 30.2991 7.0581ZM21.6591 18.5281C25.4191 18.5281 28.4891 15.4381 28.4891 11.6581C28.4891 7.9181 25.4191 4.8581 21.6591 4.8581C17.9091 4.8581 14.8191 7.9181 14.8191 11.6581C14.8191 15.4381 17.9091 18.5281 21.6591 18.5281ZM11.6791 11.4181C12.4691 11.4181 13.0991 10.7881 13.0991 9.9981C13.0991 9.1981 12.4691 8.5681 11.6791 8.5681C10.8791 8.5681 10.2491 9.1981 10.2491 9.9981C10.2491 10.7881 10.8791 11.4181 11.6791 11.4181ZM31.9091 14.8081C32.6991 14.8081 33.3291 14.1781 33.3291 13.3981C33.3291 12.6081 32.6991 11.9781 31.9091 11.9781C31.1291 11.9781 30.4891 12.6081 30.4891 13.3981C30.4891 14.1781 31.1291 14.8081 31.9091 14.8081ZM5.5091 15.6781C6.2991 15.6781 6.9291 15.0481 6.9291 14.2581C6.9291 13.4681 6.2991 12.8381 5.5091 12.8381C4.7191 12.8381 4.0891 13.4681 4.0891 14.2581C4.0891 15.0481 4.7191 15.6781 5.5091 15.6781ZM11.0591 28.2781C14.3391 28.2781 16.9991 25.6081 16.9991 22.3081C16.9991 19.0581 14.3291 16.4081 11.0591 16.4081C7.7791 16.4081 5.1291 19.0581 5.1291 22.3081C5.1291 25.6081 7.7791 28.2781 11.0591 28.2781ZM27.6991 21.6881C28.4891 21.6881 29.1191 21.0581 29.1191 20.2781C29.1191 19.4781 28.4891 18.8581 27.6991 18.8581C26.9091 18.8581 26.2791 19.4781 26.2791 20.2781C26.2791 21.0581 26.9091 21.6881 27.6991 21.6881ZM1.4191 22.2181C2.2191 22.2181 2.8391 21.5881 2.8391 20.7981C2.8391 19.9981 2.2191 19.3681 1.4191 19.3681C0.6291 19.3681 -0.0009 19.9981 -0.0009 20.7981C-0.0009 21.5881 0.6291 22.2181 1.4191 22.2181ZM20.9991 25.1981C21.7891 25.1981 22.4191 24.5681 22.4191 23.7781C22.4191 22.9781 21.7891 22.3581 20.9991 22.3581C20.2091 22.3581 19.5791 22.9781 19.5791 23.7781C19.5791 24.5681 20.2091 25.1981 20.9991 25.1981ZM3.3491 29.5881C4.1391 29.5881 4.7691 28.9581 4.7691 28.1781C4.7691 27.3881 4.1391 26.7581 3.3491 26.7581C2.5591 26.7581 1.9291 27.3881 1.9291 28.1781C1.9291 28.9581 2.5591 29.5881 3.3491 29.5881ZM16.9391 31.4581C17.7291 31.4581 18.3591 30.8281 18.3591 30.0381C18.3591 29.2581 17.7291 28.6281 16.9391 28.6281C16.1591 28.6281 15.5291 29.2581 15.5291 30.0381C15.5291 30.8281 16.1591 31.4581 16.9391 31.4581ZM9.5791 33.4681C10.3791 33.4681 11.0091 32.8381 11.0091 32.0481C11.0091 31.2581 10.3791 30.6281 9.5791 30.6281C8.8091 30.6281 8.1791 31.2581 8.1791 32.0481C8.1791 32.8381 8.8091 33.4681 9.5791 33.4681Z"
        fillRule="evenodd"
        clipRule="evenodd"
    />
</svg>
        