
<svg
    viewBox="0 0 27.91796875 25.060546875"
    xmlns="http://www.w3.org/2000/svg"
>
    <path
        fill="inherit"
        d="M1.2837 25.0645H7.8737C9.0537 25.0645 10.0337 24.4145 10.5037 23.3545L19.4737 3.1345C19.6837 2.6845 20.0337 2.4745 20.5737 2.4745H26.6337C27.3437 2.4745 27.9137 1.9145 27.9137 1.2345C27.9137 0.5445 27.3437 0.0045 26.6337 0.0045H19.9637C18.7037 0.0045 17.8737 0.5345 17.3637 1.6845L8.3537 21.9145C8.1437 22.3645 7.7937 22.5845 7.3037 22.5845H1.2837C0.5637 22.5845 0.0037 23.1345 0.0037 23.8345C0.0037 24.5245 0.5637 25.0645 1.2837 25.0645ZM17.7837 25.0645H26.6337C27.3537 25.0645 27.9037 24.5445 27.9037 23.8445C27.9037 23.1445 27.3537 22.6145 26.6337 22.6145H17.7837C17.0637 22.6145 16.5037 23.1445 16.5037 23.8445C16.5037 24.5445 17.0637 25.0645 17.7837 25.0645Z"
        fillRule="evenodd"
        clipRule="evenodd"
    />
</svg>
        