<svg viewBox="0 0 27.890625 27.890625" xmlns="http://www.w3.org/2000/svg"><path d="M13.9427 27.8864C21.6427 27.8864 27.8927 21.6464 27.8927 13.9464C27.8927 6.2464 21.6427 -0.0036 13.9427 -0.0036C6.2527 -0.0036 0.0027 6.2464 0.0027 13.9464C0.0027 21.6464 6.2527 27.8864 13.9427 27.8864ZM13.9427 25.5664C7.5227 25.5664 2.3227 20.3664 2.3227 13.9464C2.3227 7.5164 7.5227 2.3264 13.9427 2.3264C20.3727 2.3264 25.5627 7.5164 25.5627 13.9464C25.5627 20.3664 20.3727 25.5664 13.9427 25.5664ZM9.9627 9.9764C7.5227 12.4264 6.2727 16.3364 7.1927 19.4264C7.4227 20.2164 7.6727 20.4364 8.4327 20.6764C11.5227 21.5864 15.4627 20.3664 17.9127 17.9064C20.3527 15.4664 21.5927 11.5364 20.6627 8.4464C20.4427 7.6664 20.2027 7.4364 19.4127 7.2064C16.3427 6.2864 12.4127 7.5364 9.9627 9.9764ZM15.3927 11.0364L16.8427 12.4664C16.9627 12.5964 16.9527 12.8064 16.8427 12.9564C16.7027 13.0664 16.4927 13.0664 16.3627 12.9464L15.8827 12.4664L15.3827 12.9564L15.8627 13.4564C15.9827 13.5764 15.9927 13.7664 15.8627 13.9164C15.7327 14.0364 15.5327 14.0164 15.4127 13.9064L14.9027 13.4264L14.4127 13.9164L14.9027 14.4064C15.0127 14.5464 15.0427 14.7664 14.9027 14.8764C14.7827 15.0264 14.5627 14.9964 14.4527 14.8764L13.9627 14.4064L13.4427 14.8864L13.9327 15.3664C14.0727 15.5064 14.0827 15.7064 13.9327 15.8464C13.8127 15.9664 13.6027 15.9664 13.4627 15.8364L12.9927 15.3664L12.4927 15.8464L12.9727 16.3364C13.0927 16.4764 13.0927 16.6764 12.9727 16.8164C12.8427 16.9364 12.6327 16.9364 12.5127 16.8064L11.0627 15.3664C10.9227 15.2564 10.9327 15.0364 11.0627 14.9064C11.1927 14.7764 11.4027 14.7764 11.5427 14.9064L12.0127 15.3764L12.5127 14.8864L12.0327 14.4064C11.8827 14.2864 11.8927 14.0664 12.0327 13.9364C12.1727 13.7964 12.3727 13.7964 12.5127 13.9164L12.9927 14.4264L13.4827 13.9164L13.0027 13.4264C12.8627 13.3064 12.8527 13.0964 13.0027 12.9764C13.1127 12.8364 13.3127 12.8564 13.4527 12.9764L13.9427 13.4664L14.4527 12.9564L13.9627 12.4664C13.8227 12.3564 13.8227 12.1364 13.9627 12.0064C14.1127 11.8764 14.2827 11.8764 14.4227 12.0064L14.9027 12.4864L15.4227 12.0064L14.9127 11.5164C14.7927 11.3864 14.8027 11.1664 14.9127 11.0364C15.0627 10.9264 15.2627 10.9064 15.3927 11.0364Z" /></svg>