
<svg
    viewBox={0 0 27.890625 27.890625}
    xmlns="http://www.w3.org/2000/svg"
>
    <path
        fill="inherit"
        d="M13.9427 27.8864C21.6427 27.8864 27.8927 21.6264 27.8927 13.9464C27.8927 6.2464 21.6427 -0.0036 13.9427 -0.0036C6.2627 -0.0036 0.0027 6.2464 0.0027 13.9464C0.0027 21.6264 6.2627 27.8864 13.9427 27.8864ZM9.8727 9.8564C12.3827 7.3264 16.4327 6.0464 19.6027 6.9864C20.4227 7.2364 20.6627 7.4764 20.8927 8.2864C21.8427 11.4564 20.5727 15.5164 18.0427 18.0364C15.5327 20.5764 11.4727 21.8364 8.3027 20.8764C7.4927 20.6464 7.2427 20.4164 7.0027 19.5964C6.0527 16.4164 7.3427 12.3764 9.8727 9.8564ZM15.4627 10.9464C15.3227 10.8164 15.1227 10.8264 14.9727 10.9464C14.8427 11.0864 14.8327 11.3064 14.9727 11.4464L15.4727 11.9464L14.9527 12.4364L14.4527 11.9464C14.3327 11.8164 14.1227 11.8164 13.9727 11.9464C13.8527 12.0864 13.8527 12.3164 13.9727 12.4264L14.4927 12.9364L13.9727 13.4564L13.4627 12.9464C13.3327 12.8264 13.1127 12.7964 13.0027 12.9464C12.8527 13.0664 12.8627 13.2864 13.0027 13.4164L13.4827 13.9164L12.9927 14.4364L12.4827 13.9164C12.3627 13.7964 12.1227 13.7964 11.9927 13.9364C11.8527 14.0664 11.8427 14.2964 11.9927 14.4264L12.4927 14.9164L11.9927 15.4264L11.4827 14.9264C11.3327 14.8064 11.1427 14.8064 10.9927 14.9264C10.8727 15.0664 10.8527 15.2964 10.9927 15.4064L12.4827 16.8864C12.6227 17.0364 12.8227 17.0364 12.9727 16.8964C13.0927 16.7664 13.0927 16.5564 12.9727 16.4064L12.4827 15.8964L12.9927 15.4064L13.4627 15.8864C13.6127 16.0364 13.8327 16.0364 13.9627 15.8964C14.1127 15.7664 14.0927 15.5464 13.9627 15.4064L13.4527 14.9164L13.9727 14.4264L14.4827 14.9064C14.6027 15.0264 14.8327 15.0564 14.9427 14.9064C15.1027 14.7964 15.0627 14.5564 14.9427 14.4264L14.4527 13.9164L14.9527 13.4164L15.4627 13.9064C15.6127 14.0164 15.8227 14.0364 15.9427 13.9164C16.0927 13.7664 16.0827 13.5664 15.9427 13.4364L15.4527 12.9364L15.9527 12.4264L16.4427 12.9164C16.5927 13.0464 16.8127 13.0464 16.9427 12.9364C17.0727 12.7664 17.0927 12.5464 16.9427 12.4264Z"
        fillRule="evenodd"
        clipRule="evenodd"
    />
</svg>
        