
<svg
    viewBox="0 0 27.7917258193935 27.785777042308496"
    xmlns="http://www.w3.org/2000/svg"
>
    <path
        fill="inherit"
        d="M21.7377 21.744C27.0277 16.424 28.8877 8.914 27.1677 3.124C26.6877 1.584 26.2077 1.094 24.6677 0.634C18.8877 -1.106 11.3677 0.754 6.0477 6.044C0.7577 11.364 -1.1023 18.884 0.6277 24.664C1.0977 26.194 1.5877 26.694 3.1177 27.154C8.9177 28.894 16.4177 27.034 21.7377 21.744ZM20.1277 20.124C15.5377 24.744 9.5077 26.484 3.8877 24.994C3.1477 24.804 2.9877 24.644 2.7777 23.864C1.3277 18.264 3.0377 12.254 7.6577 7.654C12.2677 3.034 18.2677 1.314 23.8577 2.764C24.6377 2.984 24.8077 3.144 24.9977 3.884C26.4977 9.494 24.7477 15.534 20.1277 20.124ZM8.0377 16.814L10.9777 19.744C11.2377 19.994 11.6377 19.994 11.9077 19.744C12.1577 19.484 12.1577 19.064 11.9077 18.804L10.9077 17.804L11.9477 16.764L12.9677 17.764C13.2077 18.024 13.6377 18.024 13.8777 17.764C14.1377 17.514 14.1377 17.074 13.8777 16.834L12.8777 15.834L13.9177 14.784L14.9277 15.794C15.1777 16.054 15.5977 16.054 15.8477 15.794C16.1077 15.534 16.1077 15.114 15.8477 14.874L14.8477 13.864L15.8877 12.824L16.8877 13.824C17.1477 14.074 17.5677 14.074 17.8177 13.824C18.0777 13.554 18.0777 13.154 17.8177 12.904L16.8177 11.894L17.8577 10.844L18.8577 11.844C19.1277 12.104 19.5377 12.104 19.7977 11.844C20.0577 11.584 20.0577 11.184 19.7977 10.914L16.8777 7.974C16.5977 7.744 16.2077 7.744 15.9477 7.974C15.6877 8.244 15.6877 8.654 15.9477 8.934L16.9377 9.924L15.8877 10.984L14.8877 9.974C14.6277 9.714 14.2377 9.714 13.9577 9.974C13.7177 10.214 13.7177 10.654 13.9577 10.894L14.9777 11.894L13.9177 12.954L12.9077 11.934C12.6777 11.674 12.2377 11.674 11.9877 11.934C11.7377 12.184 11.7377 12.604 11.9877 12.854L13.0077 13.864L11.9477 14.904L10.9577 13.904C10.7077 13.644 10.2677 13.644 10.0277 13.904C9.7677 14.154 9.7677 14.574 10.0277 14.824L11.0377 15.834L9.9877 16.874L8.9877 15.874C8.7277 15.634 8.2977 15.634 8.0377 15.874C7.7977 16.144 7.7977 16.544 8.0377 16.814Z"
        fillRule="evenodd"
        clipRule="evenodd"
    />
</svg>
        