
<svg
    viewBox="0 0 27.890625 27.890625"
    xmlns="http://www.w3.org/2000/svg"
>
    <path
        fill="inherit"
        d="M13.9427 27.8864C21.6427 27.8864 27.8927 21.6464 27.8927 13.9464C27.8927 6.2464 21.6427 -0.0036 13.9427 -0.0036C6.2527 -0.0036 0.0027 6.2464 0.0027 13.9464C0.0027 21.6464 6.2527 27.8864 13.9427 27.8864ZM13.9427 25.5664C7.5227 25.5664 2.3227 20.3664 2.3227 13.9464C2.3227 7.5164 7.5227 2.3264 13.9427 2.3264C20.3727 2.3264 25.5627 7.5164 25.5627 13.9464C25.5627 20.3664 20.3727 25.5664 13.9427 25.5664ZM20.6727 8.4464C20.4227 7.6864 20.1927 7.4464 19.4327 7.2064C18.1427 6.8264 16.7227 6.7964 15.2827 7.0864L20.7927 12.5964C21.0927 11.1564 21.0527 9.7364 20.6727 8.4464ZM17.9127 17.9064C19.0727 16.7664 19.8927 15.4364 20.4027 14.0264L13.8527 7.4964C12.4527 7.9864 11.1127 8.8164 9.9627 9.9764C8.8027 11.1264 7.9827 12.4664 7.4827 13.8664L14.0127 20.3964C15.4227 19.9064 16.7527 19.0764 17.9127 17.9064ZM12.9927 16.8164C12.8427 16.9364 12.6427 16.9264 12.4927 16.8064L11.0627 15.3764C10.9327 15.2564 10.9327 15.0564 11.0627 14.9064C11.2127 14.7764 11.4127 14.7764 11.5427 14.9064L12.0127 15.3764L12.5127 14.8864L12.0327 14.4264C11.8927 14.2964 11.8927 14.0664 12.0327 13.9464C12.1527 13.7964 12.3727 13.7964 12.5127 13.9364L12.9927 14.4264L13.4627 13.9164L13.0027 13.4364C12.8627 13.3164 12.8527 13.0964 13.0027 12.9864C13.1227 12.8364 13.3327 12.8364 13.4527 12.9764L13.9427 13.4664L14.4527 12.9564L13.9627 12.4864C13.8227 12.3564 13.8227 12.1364 13.9627 12.0064C14.1127 11.8764 14.3127 11.8764 14.4227 12.0064L14.9027 12.4864L15.4127 12.0064L14.9127 11.5264C14.8027 11.3864 14.7927 11.1664 14.9127 11.0364C15.0627 10.9264 15.2627 10.9064 15.3927 11.0364L16.8427 12.4664C16.9627 12.6064 16.9527 12.8264 16.8427 12.9564C16.7027 13.0864 16.5027 13.0864 16.3527 12.9464L15.8727 12.4664L15.3827 12.9564L15.8727 13.4564C15.9927 13.5664 15.9927 13.7764 15.8727 13.9164C15.7327 14.0564 15.5327 14.0364 15.3927 13.9064L14.9027 13.4264L14.4127 13.9164L14.9027 14.4064C15.0227 14.5364 15.0427 14.7664 14.9027 14.8764C14.7827 15.0264 14.5627 15.0164 14.4327 14.8764L13.9427 14.4064L13.4427 14.8864L13.9327 15.3664C14.0827 15.5064 14.0827 15.7264 13.9327 15.8464C13.8127 15.9864 13.6027 15.9964 13.4527 15.8464L12.9927 15.3664L12.4927 15.8464L12.9927 16.3564C13.0927 16.4764 13.0927 16.6764 12.9927 16.8164ZM8.4527 20.6864C9.7327 21.0664 11.1527 21.0964 12.5927 20.8064L7.0727 15.2964C6.7827 16.7164 6.8227 18.1564 7.2027 19.4364C7.4327 20.2064 7.6727 20.4364 8.4527 20.6864Z"
        fillRule="evenodd"
        clipRule="evenodd"
    />
</svg>
        