
<svg
    viewBox="0 0 27.890625 27.890625"
    xmlns="http://www.w3.org/2000/svg"
>
    <path
        fill="inherit"
        d="M13.9427 27.8864C21.6427 27.8864 27.8927 21.6264 27.8927 13.9464C27.8927 6.2464 21.6427 -0.0036 13.9427 -0.0036C6.2627 -0.0036 0.0027 6.2464 0.0027 13.9464C0.0027 21.6264 6.2627 27.8864 13.9427 27.8864ZM20.8927 8.2864C21.2727 9.5964 21.3127 11.0764 21.0127 12.5464L15.3227 6.8664C16.8027 6.5764 18.2827 6.6064 19.5927 6.9864C20.3827 7.2464 20.6327 7.4964 20.8927 8.2864ZM18.0327 18.0364C16.8427 19.2364 15.4727 20.0964 14.0227 20.6064L7.2727 13.8464C7.7927 12.4164 8.6427 11.0364 9.8427 9.8564C11.0227 8.6564 12.4027 7.7964 13.8327 7.2864L20.6027 14.0364C20.0827 15.4864 19.2327 16.8564 18.0327 18.0364ZM12.9627 16.8964C13.0727 16.7664 13.0727 16.5564 12.9627 16.4164L12.4527 15.8964L12.9627 15.4064L13.4427 15.8964C13.5927 16.0664 13.8127 16.0464 13.9327 15.8964C14.0827 15.7764 14.0827 15.5464 13.9327 15.4064L13.4227 14.9164L13.9427 14.4264L14.4527 14.9064C14.5727 15.0364 14.8027 15.0564 14.9327 14.9064C15.0827 14.7964 15.0527 14.5464 14.9327 14.4264L14.4227 13.9164L14.9327 13.4164L15.4327 13.9064C15.5827 14.0364 15.7927 14.0564 15.9327 13.9164C16.0627 13.7764 16.0627 13.5464 15.9327 13.4364L15.4227 12.9364L15.9327 12.4264L16.4227 12.9164C16.5827 13.0564 16.7927 13.0564 16.9227 12.9364C17.0527 12.7864 17.0627 12.5664 16.9227 12.4264L15.4327 10.9464C15.3027 10.8164 15.1027 10.8264 14.9427 10.9464C14.8227 11.0864 14.8327 11.3064 14.9427 11.4564L15.4527 11.9464L14.9327 12.4364L14.4327 11.9464C14.3327 11.8164 14.1127 11.8164 13.9627 11.9464C13.8227 12.0864 13.8227 12.3164 13.9627 12.4364L14.4627 12.9364L13.9427 13.4564L13.4427 12.9464C13.3127 12.7964 13.0927 12.7964 12.9727 12.9564C12.8227 13.0664 12.8427 13.3064 12.9727 13.4264L13.4527 13.9164L12.9627 14.4364L12.4727 13.9364C12.3327 13.7964 12.1027 13.7964 11.9727 13.9464C11.8227 14.0664 11.8227 14.3164 11.9727 14.4364L12.4727 14.9164L11.9627 15.4264L11.4727 14.9264C11.3327 14.8064 11.1327 14.8064 10.9827 14.9264C10.8427 15.0764 10.8427 15.2964 10.9827 15.4264L12.4527 16.8864C12.6027 17.0264 12.8127 17.0364 12.9627 16.8964ZM8.2827 20.9064C7.4827 20.6464 7.2327 20.3964 6.9827 19.6064C6.6027 18.2964 6.5627 16.8064 6.8527 15.3364L12.5527 21.0264C11.0727 21.3164 9.5927 21.2864 8.2827 20.9064Z"
        fillRule="evenodd"
        clipRule="evenodd"
    />
</svg>
        