
<svg
    viewBox={0 0 27.7917258193935 27.785777042308496}
    xmlns="http://www.w3.org/2000/svg"
>
    <path
        fill="inherit"
        d="M21.7377 21.744C27.0277 16.424 28.8877 8.914 27.1677 3.124C26.6877 1.584 26.2077 1.094 24.6677 0.634C18.8877 -1.106 11.3677 0.754 6.0477 6.044C0.7577 11.364 -1.1023 18.884 0.6277 24.664C1.0977 26.194 1.5877 26.694 3.1177 27.154C8.9177 28.894 16.4177 27.034 21.7377 21.744ZM23.8577 2.764C24.6377 2.984 24.8077 3.144 24.9977 3.884C25.5577 5.994 25.6677 8.154 25.3377 10.284L17.4977 2.464C19.6177 2.124 21.7677 2.234 23.8577 2.764ZM20.1277 20.124C18.0177 22.244 15.6177 23.764 13.0677 24.644L3.1477 14.724C4.0177 12.184 5.5377 9.774 7.6577 7.654C9.7777 5.524 12.1977 4.024 14.7277 3.144L24.6377 13.074C23.7677 15.604 22.2477 18.024 20.1277 20.124ZM8.4677 16.604L11.1977 19.324C11.4277 19.564 11.7977 19.564 12.0477 19.324C12.2777 19.084 12.2777 18.704 12.0477 18.464L11.1177 17.534L12.0877 16.544L13.0277 17.484C13.2677 17.724 13.6477 17.724 13.8777 17.484C14.1077 17.254 14.1077 16.864 13.8777 16.624L12.9477 15.694L13.9177 14.714L14.8677 15.654C15.0977 15.884 15.4777 15.884 15.7077 15.654C15.9477 15.414 15.9477 15.024 15.7077 14.804L14.7677 13.864L15.7477 12.894L16.6777 13.824C16.9277 14.054 17.3077 14.054 17.5477 13.824C17.7877 13.574 17.7877 13.214 17.5477 12.974L16.6177 12.034L17.5877 11.054L18.5177 11.974C18.7577 12.224 19.1477 12.224 19.3777 11.974C19.6177 11.744 19.6177 11.374 19.3777 11.134L16.6577 8.394C16.4077 8.164 16.0377 8.164 15.8077 8.394C15.5577 8.644 15.5577 9.024 15.8077 9.274L16.7377 10.204L15.7677 11.184L14.8177 10.244C14.5777 10.014 14.2077 10.014 13.9577 10.244C13.7277 10.474 13.7277 10.874 13.9577 11.104L14.9077 12.044L13.9177 13.014L12.9777 12.074C12.7577 11.844 12.3577 11.844 12.1277 12.074C11.8977 12.304 11.8977 12.694 12.1277 12.924L13.0677 13.864L12.0977 14.854L11.1577 13.904C10.9277 13.674 10.5277 13.674 10.2977 13.904C10.0677 14.134 10.0677 14.524 10.2977 14.754L11.2377 15.714L10.2677 16.684L9.3277 15.734C9.0977 15.504 8.6977 15.504 8.4677 15.734C8.2377 15.984 8.2377 16.354 8.4677 16.604ZM3.8877 24.994C3.1477 24.804 2.9877 24.644 2.7777 23.864C2.2277 21.764 2.1377 19.624 2.4677 17.504L10.2677 25.334C8.1477 25.664 5.9877 25.554 3.8877 24.994Z"
        fillRule="evenodd"
        clipRule="evenodd"
    />
</svg>
        