
<svg
    viewBox={0 0 27.7917258193935 27.785777042308496}
    xmlns="http://www.w3.org/2000/svg"
>
    <path
        fill="inherit"
        d="M21.7377 21.744C27.0277 16.424 28.8877 8.914 27.1677 3.124C26.6877 1.584 26.2077 1.094 24.6677 0.634C18.8877 -1.106 11.3677 0.754 6.0477 6.044C0.7577 11.364 -1.1023 18.884 0.6277 24.664C1.0977 26.194 1.5877 26.694 3.1177 27.154C8.9177 28.894 16.4177 27.034 21.7377 21.744ZM11.7577 19.924C11.4977 20.164 11.0777 20.164 10.8277 19.904L7.7977 16.884C7.5477 16.644 7.5477 16.214 7.7977 15.954C8.0677 15.674 8.4877 15.674 8.7677 15.944L9.7877 16.984L10.8677 15.884L9.8277 14.864C9.5677 14.604 9.5677 14.184 9.8277 13.904C10.0877 13.634 10.5277 13.634 10.8077 13.894L11.8177 14.944L12.8977 13.854L11.8577 12.824C11.6077 12.584 11.5977 12.144 11.8577 11.874C12.1277 11.614 12.5777 11.614 12.8177 11.854L13.8477 12.894L14.9477 11.814L13.8977 10.794C13.6477 10.544 13.6177 10.104 13.8977 9.844C14.1677 9.574 14.5877 9.574 14.8477 9.834L15.8877 10.874L16.9877 9.794L15.9477 8.754C15.6677 8.494 15.6577 8.084 15.9477 7.804C16.2077 7.564 16.6277 7.564 16.8777 7.794L19.9077 10.834C20.1577 11.094 20.1577 11.514 19.9077 11.774C19.6377 12.044 19.2077 12.034 18.9377 11.764L17.9077 10.734L16.8277 11.814L17.8677 12.854C18.1477 13.124 18.1477 13.534 17.8677 13.824C17.6077 14.084 17.1777 14.074 16.9277 13.814L15.8877 12.784L14.8077 13.854L15.8477 14.894C16.1077 15.134 16.1077 15.574 15.8477 15.864C15.5577 16.124 15.1477 16.104 14.8877 15.844L13.8477 14.824L12.7677 15.884L13.7977 16.924C14.0877 17.174 14.0877 17.624 13.7977 17.884C13.5277 18.144 13.1177 18.144 12.8577 17.874L11.8177 16.844L10.7477 17.924L11.7577 18.954C12.0377 19.214 12.0377 19.644 11.7577 19.924Z"
        fillRule="evenodd"
        clipRule="evenodd"
    />
</svg>
        