
<svg
    viewBox={0 0 22.791842698827445 32.662109375}
    xmlns="http://www.w3.org/2000/svg"
>
    <path
        fill="inherit"
        d="M2.2544 31.8288C2.8944 31.8288 3.3744 31.3588 3.2544 30.5888L2.2544 24.0388C2.1244 23.2188 2.4044 22.8488 3.3544 22.5888L4.4044 22.2987C4.2344 22.8088 4.1544 23.3788 4.1544 24.0388C4.1544 28.5088 7.5344 32.6588 11.3944 32.6588C15.2544 32.6588 18.6344 28.5088 18.6344 24.0388C18.6344 23.3788 18.5544 22.8088 18.3944 22.2987L19.4444 22.5888C20.3844 22.8488 20.6544 23.2188 20.5344 24.0388L19.5344 30.5888C19.4144 31.3588 19.8944 31.8288 20.5344 31.8288C21.2044 31.8288 21.5044 31.4188 21.6144 30.7388L22.7344 23.6388C22.9944 22.0388 22.3444 21.1788 20.5944 20.7588L14.5444 19.3188V19.1788C15.1344 18.8988 15.5444 18.3488 15.7644 17.7088L19.7744 17.1188C21.4744 16.8888 22.2444 15.9288 22.2444 14.2488V9.5188C22.2444 8.8487 21.8644 8.4587 21.2044 8.4587C20.5544 8.4587 20.1644 8.8588 20.1644 9.5188V13.8188C20.1644 14.7888 19.6444 15.0888 18.7544 15.2288L15.7644 15.6588C15.6144 15.2288 15.3444 14.8588 14.9744 14.5988V14.4688C17.3044 14.0588 18.4744 12.6288 18.4744 10.5588C18.4744 8.8088 17.8244 7.2087 16.7644 5.9587L16.8744 5.8788C18.1944 4.9187 18.4444 3.5087 17.5844 1.9988L16.7744 0.6687C16.5144 0.2087 16.2144 -0.0012 15.7944 -0.0012C15.2144 -0.0012 14.8044 0.4088 14.8044 0.9387C14.8044 1.1887 14.8444 1.3287 14.9944 1.5987L15.7144 2.6788C16.1844 3.4587 16.1344 4.1187 15.4544 4.6088L15.3444 4.6788C14.2044 3.9088 12.8544 3.4587 11.3944 3.4587C9.9544 3.4587 8.6044 3.8988 7.4744 4.6588L7.3944 4.6088C6.7144 4.1187 6.6544 3.4587 7.1344 2.6788L7.8444 1.5987C7.9944 1.3287 8.0444 1.1887 8.0444 0.9387C8.0444 0.4088 7.6144 -0.0012 7.0544 -0.0012C6.6344 -0.0012 6.3344 0.2087 6.0744 0.6687L5.2644 1.9988C4.4044 3.5087 4.6444 4.9187 5.9744 5.8788L6.0444 5.9288C4.9644 7.1788 4.3044 8.8088 4.3044 10.5588C4.3044 12.6288 5.4844 14.0588 7.8244 14.4688V14.5988C7.4344 14.8588 7.1744 15.2288 7.0244 15.6588L4.0344 15.2288C3.1344 15.0888 2.6244 14.7888 2.6244 13.8188V9.5188C2.6244 8.8588 2.2444 8.4587 1.5844 8.4587C0.9344 8.4587 0.5444 8.8487 0.5444 9.5188V14.2488C0.5444 15.9288 1.3144 16.8888 3.0244 17.1188L7.0244 17.7088C7.2344 18.3488 7.6444 18.8988 8.2444 19.1788V19.3188L2.2044 20.7588C0.4344 21.1788 -0.2056 22.0388 0.0544 23.6388L1.1744 30.7388C1.2744 31.4188 1.5844 31.8288 2.2544 31.8288ZM8.9244 12.4588C7.4244 12.4588 6.5644 11.7288 6.5644 10.4688C6.5644 7.9288 8.8144 5.7288 11.3944 5.7288C13.9644 5.7288 16.2244 7.9288 16.2244 10.4688C16.2244 11.7288 15.3544 12.4588 13.8644 12.4588ZM8.9144 16.5688C8.9144 15.3088 9.6844 14.5888 11.0044 14.5888H11.8044C13.1144 14.5888 13.8644 15.3088 13.8644 16.5688C13.8644 18.1188 12.8144 19.4288 11.5544 19.4288H11.2344C9.9844 19.4288 8.9144 18.1188 8.9144 16.5688ZM11.3944 30.3788C8.5744 30.3788 6.3844 27.0688 6.3844 24.3188C6.3844 22.4888 7.4544 21.3788 9.5044 21.3788H13.2944C15.3444 21.3788 16.3944 22.4888 16.3944 24.3188C16.3944 27.0688 14.2244 30.3788 11.3944 30.3788Z"
        fillRule="evenodd"
        clipRule="evenodd"
    />
</svg>
        