
<svg
    viewBox="0 0 27.890625 27.890625"
    xmlns="http://www.w3.org/2000/svg"
>
    <path
        fill="inherit"
        d="M13.9427 27.8927C21.6427 27.8927 27.8927 21.6427 27.8927 13.9427C27.8927 6.2627 21.6427 0.0027 13.9427 0.0027C6.2627 0.0027 0.0027 6.2627 0.0027 13.9427C0.0027 21.6427 6.2627 27.8927 13.9427 27.8927ZM7.5727 17.7227C7.4227 16.8127 7.7927 16.3127 8.7927 16.0627L12.1227 15.3027C11.8627 15.1627 11.5827 14.8627 11.4527 14.4227L9.2527 14.1127C8.2827 13.9727 7.8427 13.4427 7.8427 12.4827V9.8327C7.8427 9.4327 8.0827 9.2027 8.4727 9.2027C8.8427 9.2027 9.0827 9.4327 9.0827 9.8327V12.2327C9.0827 12.7527 9.3627 12.9227 9.8427 12.9927L11.4827 13.2227C11.5527 12.9627 11.7127 12.7427 11.8627 12.6027C10.6127 12.3627 9.9627 11.5827 9.9627 10.4027C9.9627 9.4627 10.3127 8.5627 10.8927 7.8627L10.8527 7.8227C10.1027 7.2827 9.9827 6.4827 10.4627 5.6027L10.8827 4.8827C11.0327 4.5927 11.2227 4.4827 11.4827 4.4827C11.8227 4.4827 12.0627 4.7327 12.0627 5.0427C12.0627 5.1827 12.0427 5.2927 11.9527 5.4227L11.5827 6.0327C11.3627 6.3827 11.2827 6.7027 11.5427 6.9227L11.7327 7.0727C12.3827 6.6427 13.2227 6.4027 13.9627 6.4027C14.6827 6.4027 15.5127 6.6427 16.1727 7.0727L16.3627 6.9227C16.6427 6.7027 16.5527 6.3827 16.3427 6.0327L15.9527 5.4227C15.8727 5.2927 15.8427 5.1827 15.8427 5.0427C15.8427 4.7127 16.0927 4.4827 16.4227 4.4827C16.6927 4.4827 16.8527 4.6027 17.0227 4.8827L17.4427 5.6027C17.9527 6.4627 17.8027 7.2827 17.0527 7.8227L17.0127 7.8627C17.5927 8.5627 17.9327 9.4627 17.9327 10.4027C17.9327 11.5827 17.3127 12.3727 16.0527 12.6027C16.2027 12.7427 16.3527 12.9727 16.4227 13.2227L18.0627 12.9927C18.5427 12.9027 18.8227 12.7527 18.8227 12.2327V9.8327C18.8227 9.4327 19.0627 9.2027 19.4327 9.2027C19.8427 9.2027 20.0727 9.4327 20.0727 9.8327V12.4827C20.0727 13.4427 19.6227 13.9727 18.6627 14.1127L16.4627 14.4227C16.3227 14.8627 16.0327 15.1727 15.7927 15.3027L19.1227 16.0627C20.1127 16.3227 20.4927 16.8127 20.3427 17.7227L19.7127 21.6927C19.6627 22.0927 19.4727 22.3527 19.0827 22.3527C18.6927 22.3527 18.4027 22.0527 18.4727 21.6027L19.0327 17.9527C19.1027 17.5127 18.9627 17.3127 18.4527 17.1727C18.2627 17.1127 18.0727 17.0727 17.8927 17.0227C17.9927 17.2827 18.0327 17.5927 18.0327 17.9527C18.0327 20.4527 16.1427 22.7927 13.9627 22.7927C11.7627 22.7927 9.8827 20.4527 9.8827 17.9527C9.8827 17.5927 9.9227 17.2827 10.0227 17.0227C9.8327 17.0727 9.6427 17.1127 9.4627 17.1727C8.9527 17.3127 8.8027 17.5127 8.8827 17.9527L9.4327 21.6027C9.5027 22.0527 9.2127 22.3527 8.8327 22.3527C8.4527 22.3527 8.2627 22.0927 8.1927 21.6927Z"
        fillRule="evenodd"
        clipRule="evenodd"
    />
</svg>
        