
<svg
    viewBox="0 0 27.890625 27.890625"
    xmlns="http://www.w3.org/2000/svg"
>
    <path
        fill="inherit"
        d="M13.9427 27.8864C21.6427 27.8864 27.8927 21.6464 27.8927 13.9464C27.8927 6.2464 21.6427 -0.0036 13.9427 -0.0036C6.2527 -0.0036 0.0027 6.2464 0.0027 13.9464C0.0027 21.6464 6.2527 27.8864 13.9427 27.8864ZM13.9427 25.5664C7.5227 25.5664 2.3227 20.3664 2.3227 13.9464C2.3227 7.5164 7.5227 2.3264 13.9427 2.3264C20.3727 2.3264 25.5627 7.5164 25.5627 13.9464C25.5627 20.3664 20.3727 25.5664 13.9427 25.5664ZM7.7627 17.6064L8.3527 21.4464C8.4227 21.8464 8.6127 22.0764 8.9827 22.0764C9.3527 22.0764 9.6227 21.8064 9.5527 21.3564L9.0227 17.8164C8.9527 17.3864 9.0927 17.2164 9.5827 17.0764C9.7627 17.0264 9.9427 16.9764 10.1327 16.9264C10.0327 17.1864 9.9927 17.4764 9.9927 17.8264C9.9927 20.2464 11.8227 22.5264 13.9427 22.5264C16.0627 22.5264 17.8927 20.2464 17.8927 17.8264C17.8927 17.4764 17.8527 17.1864 17.7627 16.9264C17.9327 16.9764 18.1127 17.0264 18.3027 17.0764C18.8027 17.2164 18.9227 17.3864 18.8627 17.8164L18.3227 21.3564C18.2527 21.8064 18.5227 22.0764 18.9127 22.0764C19.2727 22.0764 19.4727 21.8464 19.5227 21.4464L20.1227 17.6064C20.2727 16.7364 19.9027 16.2564 18.9527 16.0064L15.7227 15.2464C15.9527 15.1464 16.2427 14.8364 16.3627 14.4064L18.5027 14.1064C19.4327 13.9764 19.8627 13.4564 19.8627 12.5264V9.9564C19.8627 9.5864 19.6427 9.3564 19.2527 9.3564C18.8827 9.3564 18.6627 9.5864 18.6627 9.9564V12.2864C18.6627 12.7964 18.3927 12.9464 17.9227 13.0164L16.3427 13.2464C16.2727 13.0064 16.1227 12.7864 15.9727 12.6564C17.1827 12.4164 17.8027 11.6664 17.8027 10.5164C17.8027 9.5864 17.4727 8.7264 16.9027 8.0564L16.9427 8.0164C17.6627 7.4964 17.8127 6.6964 17.3227 5.8664L16.9027 5.1564C16.7527 4.8964 16.5827 4.7764 16.3227 4.7764C16.0127 4.7764 15.7627 5.0064 15.7627 5.3164C15.7627 5.4564 15.7927 5.5464 15.8727 5.6864L16.2527 6.2664C16.4627 6.6164 16.5427 6.9164 16.2727 7.1364L16.0927 7.2864C15.4527 6.8764 14.6427 6.6264 13.9427 6.6264C13.2327 6.6264 12.4327 6.8764 11.7827 7.2864L11.6027 7.1364C11.3427 6.9164 11.4327 6.6164 11.6327 6.2664L12.0027 5.6864C12.1027 5.5464 12.1127 5.4564 12.1127 5.3164C12.1127 5.0064 11.8827 4.7764 11.5527 4.7764C11.3027 4.7764 11.1127 4.8764 10.9827 5.1564L10.5527 5.8664C10.0927 6.7164 10.2127 7.4964 10.9527 8.0164L10.9827 8.0564C10.4027 8.7264 10.0727 9.5864 10.0727 10.5164C10.0727 11.6464 10.7027 12.4164 11.9227 12.6464C11.7727 12.7664 11.6027 13.0064 11.5527 13.2464L9.9527 13.0164C9.5027 12.9564 9.2127 12.7964 9.2127 12.2864V9.9564C9.2127 9.5864 9.0127 9.3564 8.6227 9.3564C8.2427 9.3564 8.0227 9.5864 8.0227 9.9564V12.5264C8.0227 13.4564 8.4527 13.9764 9.3927 14.1064L11.5227 14.4064C11.6327 14.8364 11.9227 15.1364 12.1727 15.2464L8.9427 16.0064C7.9827 16.2464 7.6127 16.7364 7.7627 17.6064Z"
        fillRule="evenodd"
        clipRule="evenodd"
    />
</svg>
        