
<svg
    viewBox="0 0 27.890625 27.890625"
    xmlns="http://www.w3.org/2000/svg"
>
    <path
        fill="inherit"
        d="M13.9427 27.8864C21.6427 27.8864 27.8927 21.6464 27.8927 13.9464C27.8927 6.2464 21.6427 -0.0036 13.9427 -0.0036C6.2527 -0.0036 0.0027 6.2464 0.0027 13.9464C0.0027 21.6464 6.2527 27.8864 13.9427 27.8864ZM13.9427 25.5664C7.5227 25.5664 2.3227 20.3664 2.3227 13.9464C2.3227 7.5164 7.5227 2.3264 13.9427 2.3264C20.3727 2.3264 25.5627 7.5164 25.5627 13.9464C25.5627 20.3664 20.3727 25.5664 13.9427 25.5664ZM20.9327 13.5364C20.9327 15.2064 20.3527 16.7364 19.2927 17.8864C18.9327 18.3064 18.8927 18.7564 19.1927 19.0864C19.5127 19.4564 20.0527 19.4264 20.4027 19.0464C21.7827 17.5564 22.5327 15.6164 22.5327 13.5364C22.5327 11.4564 21.7627 9.5164 20.4027 8.0264C20.0527 7.6264 19.5127 7.6164 19.1827 7.9864C18.8927 8.3164 18.9327 8.7764 19.2927 9.1864C20.3527 10.3464 20.9327 11.8664 20.9327 13.5364ZM5.3427 13.5364C5.3427 15.6164 6.0827 17.5564 7.4627 19.0464C7.8027 19.4264 8.3527 19.4564 8.6727 19.0864C8.9727 18.7564 8.9327 18.3064 8.5827 17.8864C7.5227 16.7364 6.9427 15.2064 6.9427 13.5364C6.9427 11.8664 7.5227 10.3464 8.5827 9.1864C8.9327 8.7764 8.9727 8.3164 8.6827 7.9864C8.3527 7.6164 7.8027 7.6264 7.4627 8.0264C6.0927 9.5164 5.3427 11.4564 5.3427 13.5364ZM8.6827 13.5364C8.6827 14.7064 9.0927 15.8464 9.8127 16.7464C10.1327 17.1764 10.7327 17.1964 11.0627 16.8164C11.3427 16.5064 11.3027 16.0964 10.9627 15.6264C10.5127 15.0664 10.2827 14.3564 10.2827 13.5364C10.2827 12.7564 10.5227 12.0264 10.9827 11.4264C11.3027 10.9764 11.3327 10.5664 11.0627 10.2564C10.7227 9.8664 10.1327 9.8964 9.8127 10.3264C9.0927 11.2264 8.6827 12.3564 8.6827 13.5364ZM17.5827 13.5364C17.5827 14.3564 17.3527 15.0664 16.9027 15.6264C16.5527 16.0964 16.5127 16.5064 16.8027 16.8164C17.1327 17.1964 17.7327 17.1764 18.0427 16.7464C18.7727 15.8464 19.1827 14.7064 19.1827 13.5364C19.1827 12.3564 18.7727 11.2264 18.0427 10.3264C17.7327 9.8964 17.1427 9.8664 16.8027 10.2564C16.5327 10.5664 16.5727 10.9764 16.9027 11.4264C17.3327 12.0264 17.5827 12.7564 17.5827 13.5364ZM12.3427 13.5364C12.3427 14.1364 12.6827 14.6464 13.1827 14.9064V22.0164C13.1827 22.4864 13.4927 22.8364 13.9327 22.8364C14.3827 22.8364 14.6927 22.5064 14.6927 22.0164V14.9064C15.1727 14.6464 15.5127 14.1264 15.5127 13.5364C15.5127 12.6464 14.8227 11.9464 13.9327 11.9464C13.0527 11.9464 12.3427 12.6464 12.3427 13.5364Z"
        fillRule="evenodd"
        clipRule="evenodd"
    />
</svg>
        