
<svg
    viewBox="0 0 27.890625 27.890625"
    xmlns="http://www.w3.org/2000/svg"
>
    <path
        fill="inherit"
        d="M13.9427 27.8864C21.6427 27.8864 27.8927 21.6464 27.8927 13.9464C27.8927 6.2464 21.6427 -0.0036 13.9427 -0.0036C6.2527 -0.0036 0.0027 6.2464 0.0027 13.9464C0.0027 21.6464 6.2527 27.8864 13.9427 27.8864ZM13.9427 25.5664C7.5227 25.5664 2.3227 20.3664 2.3227 13.9464C2.3227 7.5164 7.5227 2.3264 13.9427 2.3264C20.3727 2.3264 25.5627 7.5164 25.5627 13.9464C25.5627 20.3664 20.3727 25.5664 13.9427 25.5664ZM19.7927 20.6464C20.0327 20.8764 20.4427 20.8864 20.6727 20.6464C20.9227 20.3964 20.9227 20.0164 20.6727 19.7664L8.1527 7.2364C7.9027 6.9864 7.5027 6.9864 7.2627 7.2364C7.0127 7.4764 7.0227 7.8764 7.2627 8.1064ZM22.5327 13.5364C22.5327 11.4564 21.7627 9.5164 20.4027 8.0264C20.0527 7.6264 19.5127 7.6164 19.1827 7.9864C18.8927 8.3164 18.9327 8.7764 19.2927 9.1864C20.3527 10.3464 20.9327 11.8664 20.9327 13.5364C20.9327 14.9864 20.4927 16.3264 19.6727 17.4164L20.8227 18.5664C21.9327 17.1464 22.5327 15.3964 22.5327 13.5364ZM5.3427 13.5364C5.3427 15.6164 6.0827 17.5564 7.4627 19.0464C7.8027 19.4264 8.3527 19.4564 8.6727 19.0864C8.9727 18.7564 8.9327 18.3064 8.5827 17.8864C7.5227 16.7364 6.9427 15.2064 6.9427 13.5364C6.9427 12.2764 7.2627 11.1164 7.8727 10.1064L6.7227 8.9564C5.8227 10.2764 5.3427 11.8664 5.3427 13.5364ZM19.1827 13.5364C19.1827 12.3564 18.7727 11.2264 18.0427 10.3264C17.7327 9.8964 17.1427 9.8664 16.8027 10.2564C16.5327 10.5664 16.5727 10.9764 16.9027 11.4264C17.3327 12.0264 17.5827 12.7564 17.5827 13.5364C17.5827 14.0864 17.4727 14.5564 17.2427 14.9864L18.4327 16.1764C18.9227 15.3964 19.1827 14.4764 19.1827 13.5364ZM8.6827 13.5364C8.6827 14.7064 9.0927 15.8464 9.8127 16.7464C10.1327 17.1764 10.7327 17.1964 11.0627 16.8164C11.3427 16.5064 11.3027 16.0964 10.9627 15.6264C10.5127 15.0664 10.2827 14.3564 10.2827 13.5364C10.2827 13.2364 10.3327 12.9164 10.4227 12.6464L9.1627 11.3864C8.8627 12.0464 8.6827 12.7864 8.6827 13.5364ZM13.1827 15.3964V22.0164C13.1827 22.4864 13.4927 22.8364 13.9327 22.8364C14.3827 22.8364 14.6927 22.5064 14.6927 22.0164V16.9164Z"
        fillRule="evenodd"
        clipRule="evenodd"
    />
</svg>
        