
<svg
    viewBox="0 0 27.890625 27.890625"
    xmlns="http://www.w3.org/2000/svg"
>
    <path
        fill="inherit"
        d="M13.9427 27.8927C21.6427 27.8927 27.8927 21.6427 27.8927 13.9427C27.8927 6.2627 21.6427 0.0027 13.9427 0.0027C6.2627 0.0027 0.0027 6.2627 0.0027 13.9427C0.0027 21.6427 6.2627 27.8927 13.9427 27.8927ZM19.9927 20.8227L7.0727 7.9027C6.8227 7.6527 6.8127 7.2427 7.0727 7.0027C7.3327 6.7427 7.7427 6.7427 7.9827 7.0027L20.8927 19.9227C21.1527 20.1627 21.1527 20.5527 20.8927 20.8227C20.6627 21.0527 20.2327 21.0527 19.9927 20.8227ZM22.8227 13.4827C22.8227 15.4127 22.2027 17.2127 21.0527 18.6727L19.8627 17.4827C20.7127 16.3527 21.1627 14.9827 21.1627 13.4827C21.1627 11.7727 20.5627 10.2027 19.4727 9.0127C19.1027 8.5827 19.0627 8.1027 19.3627 7.7627C19.7027 7.3727 20.2627 7.3827 20.6127 7.8027C22.0227 9.3527 22.8227 11.3427 22.8227 13.4827ZM5.0827 13.4827C5.0827 11.7627 5.5827 10.1427 6.5127 8.7727L7.6927 9.9627C7.0727 10.9927 6.7427 12.1927 6.7427 13.4827C6.7427 15.2127 7.3427 16.7727 8.4327 17.9627C8.7927 18.4127 8.8327 18.8827 8.5127 19.2227C8.1927 19.6027 7.6327 19.5627 7.2727 19.1727C5.8527 17.6327 5.0827 15.6427 5.0827 13.4827ZM19.3627 13.4827C19.3627 14.4527 19.1027 15.4127 18.5927 16.2127L17.3627 14.9827C17.5927 14.5427 17.7027 14.0427 17.7027 13.4827C17.7027 12.6827 17.4427 11.9527 17.0127 11.3327C16.6627 10.8527 16.6227 10.4327 16.9027 10.1027C17.2527 9.7027 17.8727 9.7327 18.1927 10.1827C18.9327 11.1127 19.3627 12.2627 19.3627 13.4827ZM8.5327 13.4827C8.5327 12.7027 8.7127 11.9627 9.0227 11.2827L10.3227 12.5827C10.2427 12.8627 10.1827 13.1627 10.1827 13.4827C10.1827 14.3327 10.4327 15.0627 10.8827 15.6427C11.2427 16.1327 11.2827 16.5427 10.9927 16.8727C10.6527 17.2527 10.0227 17.2427 9.6927 16.8027C8.9527 15.8727 8.5327 14.7127 8.5327 13.4827ZM13.1627 15.3927L14.7427 16.9627V22.2127C14.7427 22.7327 14.4127 23.0827 13.9427 23.0827C13.4927 23.0827 13.1627 22.7227 13.1627 22.2127Z"
        fillRule="evenodd"
        clipRule="evenodd"
    />
</svg>
        