
<svg
    viewBox={0 0 29.025390625 25.404458618961613}
    xmlns="http://www.w3.org/2000/svg"
>
    <path
        fill="inherit"
        d="M23.7527 19.0701C24.1827 19.5801 24.9527 19.5801 25.4727 19.0101C27.7427 16.5401 29.0227 13.2601 29.0227 9.7201C29.0227 6.1801 27.7427 2.9001 25.4727 0.4401C24.9527 -0.1299 24.1827 -0.1299 23.7527 0.3701C23.3127 0.8601 23.4427 1.5101 23.9427 2.0701C25.7727 4.1001 26.7927 6.7801 26.7927 9.7201C26.7927 12.6601 25.7727 15.3401 23.9427 17.3801C23.4427 17.9401 23.3127 18.5801 23.7527 19.0701ZM0.0027 9.7201C0.0027 13.2601 1.2827 16.5401 3.5527 19.0101C4.0727 19.5801 4.8427 19.5801 5.2727 19.0701C5.7127 18.5801 5.5827 17.9401 5.0827 17.3801C3.2527 15.3401 2.2327 12.6601 2.2327 9.7201C2.2327 6.7801 3.2527 4.1001 5.0827 2.0701C5.5827 1.5101 5.7127 0.8601 5.2727 0.3701C4.8427 -0.1299 4.0727 -0.1299 3.5527 0.4401C1.2827 2.9001 0.0027 6.1801 0.0027 9.7201ZM5.7527 9.7201C5.7527 11.7301 6.4427 13.6101 7.6327 15.0801C8.1027 15.7101 8.9327 15.7001 9.3827 15.1801C9.8127 14.6901 9.6427 14.0701 9.2027 13.4801C8.3827 12.4701 7.9827 11.1401 7.9827 9.7201C7.9827 8.3001 8.4227 7.0201 9.2027 5.9601C9.6227 5.3601 9.8127 4.7601 9.3827 4.2701C8.9327 3.7501 8.1027 3.7301 7.6327 4.3601C6.4427 5.8401 5.7527 7.7101 5.7527 9.7201ZM19.6427 15.1801C20.0927 15.7001 20.9227 15.7101 21.3927 15.0801C22.5827 13.6101 23.2727 11.7301 23.2727 9.7201C23.2727 7.7101 22.5827 5.8401 21.3927 4.3601C20.9227 3.7301 20.0927 3.7501 19.6427 4.2701C19.2127 4.7601 19.4027 5.3601 19.8227 5.9601C20.6027 7.0201 21.0427 8.3001 21.0427 9.7201C21.0427 11.1401 20.6427 12.4701 19.8227 13.4801C19.3827 14.0701 19.2127 14.6901 19.6427 15.1801ZM12.0627 9.7201C12.0627 10.7101 12.6227 11.5501 13.4627 11.9401V24.2301C13.4627 24.9301 13.8927 25.4001 14.5227 25.4001C15.1627 25.4001 15.5627 24.9401 15.5627 24.2301V11.9401C16.3927 11.5501 16.9627 10.6901 16.9627 9.7201C16.9627 8.3601 15.8827 7.2501 14.5227 7.2501C13.1427 7.2501 12.0627 8.3601 12.0627 9.7201Z"
        fillRule="evenodd"
        clipRule="evenodd"
    />
</svg>
        