
<svg
    viewBox={0 0 27.890625 27.890625}
    xmlns="http://www.w3.org/2000/svg"
>
    <path
        fill="inherit"
        d="M13.9427 27.8927C21.6427 27.8927 27.8927 21.6427 27.8927 13.9427C27.8927 6.2627 21.6427 0.0027 13.9427 0.0027C6.2627 0.0027 0.0027 6.2627 0.0027 13.9427C0.0027 21.6427 6.2627 27.8927 13.9427 27.8927ZM5.0827 13.4827C5.0827 11.3627 5.8627 9.3527 7.2727 7.8227C7.6327 7.3927 8.1927 7.3827 8.5327 7.7827C8.8327 8.1027 8.7927 8.6027 8.4327 9.0227C7.3427 10.2027 6.7427 11.7827 6.7427 13.4827C6.7427 15.2127 7.3427 16.7727 8.4327 17.9827C8.7927 18.4127 8.8327 18.8827 8.5127 19.2227C8.1927 19.6027 7.6327 19.5827 7.2727 19.1827C5.8527 17.6327 5.0827 15.6427 5.0827 13.4827ZM21.1627 13.4827C21.1627 11.7827 20.5627 10.2027 19.4727 9.0227C19.1027 8.6027 19.0627 8.1027 19.3627 7.7827C19.7027 7.3827 20.2627 7.3927 20.6127 7.8227C22.0227 9.3527 22.8227 11.3627 22.8227 13.4827C22.8227 15.6427 22.0427 17.6327 20.6127 19.1827C20.2627 19.5827 19.7027 19.6027 19.3727 19.2227C19.0627 18.8827 19.1027 18.4127 19.4727 17.9827C20.5627 16.7727 21.1627 15.2127 21.1627 13.4827ZM8.5327 13.4827C8.5327 12.2727 8.9527 11.1127 9.6927 10.1827C10.0227 9.7527 10.6327 9.7227 10.9927 10.1127C11.2627 10.4427 11.2427 10.8727 10.8927 11.3327C10.4427 11.9527 10.1827 12.7027 10.1827 13.4827C10.1827 14.3327 10.4327 15.0627 10.8827 15.6527C11.2427 16.1327 11.2827 16.5427 10.9927 16.8827C10.6527 17.2627 10.0227 17.2527 9.6927 16.8127C8.9527 15.8827 8.5327 14.7127 8.5327 13.4827ZM17.7027 13.4827C17.7027 12.7027 17.4427 11.9527 17.0127 11.3327C16.6627 10.8727 16.6227 10.4427 16.9027 10.1127C17.2527 9.7227 17.8727 9.7527 18.1927 10.1827C18.9327 11.1127 19.3627 12.2727 19.3627 13.4827C19.3627 14.7127 18.9327 15.8827 18.1927 16.8127C17.8727 17.2527 17.2427 17.2627 16.9027 16.8827C16.6127 16.5427 16.6527 16.1327 17.0127 15.6527C17.4627 15.0627 17.7027 14.3327 17.7027 13.4827ZM12.3027 13.4827C12.3027 12.5827 13.0427 11.8527 13.9427 11.8527C14.8627 11.8527 15.5827 12.5827 15.5827 13.4827C15.5827 14.0927 15.2327 14.6327 14.7427 14.9027V22.2127C14.7427 22.7327 14.4127 23.0827 13.9427 23.0827C13.4927 23.0827 13.1627 22.7227 13.1627 22.2127V14.9127C12.6627 14.6427 12.3027 14.1127 12.3027 13.4827Z"
        fillRule="evenodd"
        clipRule="evenodd"
    />
</svg>
        