
<svg
    viewBox="0 0 25.2109375 25.2109375"
    xmlns="http://www.w3.org/2000/svg"
>
    <path
        fill="inherit"
        d="M23.6137 1.6166C22.2137 0.2166 20.2437 -0.0034 17.9137 -0.0034H7.2637C4.9637 -0.0034 2.9937 0.2166 1.6037 1.6166C0.2037 3.0066 0.0037 4.9666 0.0037 7.2566V17.9066C0.0037 20.2466 0.2037 22.2066 1.6037 23.5966C2.9937 24.9966 4.9637 25.2066 7.2837 25.2066H17.9137C20.2437 25.2066 22.2137 24.9966 23.6137 23.5966C25.0037 22.2066 25.2137 20.2466 25.2137 17.9066V7.2866C25.2137 4.9466 25.0037 3.0066 23.6137 1.6166ZM3.2037 3.2166C4.0337 2.3966 5.5237 2.1966 6.9637 2.1966H11.7737V7.7566C10.8737 5.9866 9.3237 4.9066 7.6137 4.9066C5.6437 4.9066 4.1837 6.3666 4.1837 8.3766C4.1837 10.1066 5.4037 11.5166 7.1237 12.2866H2.2037V6.9566C2.2037 5.5066 2.3837 4.0466 3.2037 3.2166ZM23.0137 6.9166V12.2866H18.0737C19.8137 11.5166 21.0137 10.1066 21.0137 8.3766C21.0137 6.3666 19.5537 4.9066 17.5837 4.9066C15.8737 4.9066 14.3237 5.9866 13.4237 7.7566V2.1966H18.2937C19.7037 2.1966 21.1737 2.3966 21.9937 3.2266C22.8337 4.0466 23.0137 5.5066 23.0137 6.9166ZM11.1137 12.0566C8.4237 12.0566 6.1137 10.2166 6.1137 8.4866C6.1137 7.4666 6.7437 6.8266 7.7237 6.8266C9.7437 6.8266 11.5237 9.0766 11.5237 11.6766V12.0566ZM14.0837 12.0566H13.6737V11.6766C13.6737 9.0766 15.4537 6.8266 17.4737 6.8266C18.4737 6.8266 19.0837 7.4666 19.0837 8.4866C19.0837 10.2166 16.7937 12.0566 14.0837 12.0566ZM18.2937 23.0066H13.4237V14.7566H13.5337C14.4337 17.5866 17.8137 20.0166 19.9237 20.3466C20.7037 20.4566 21.1737 19.8966 21.1737 19.3066C21.1737 18.6366 20.7837 18.1966 20.0737 18.1266C18.1837 17.9266 15.5437 15.4666 14.7537 13.8066H23.0137V18.2966C23.0137 19.6966 22.8337 21.1666 21.9937 21.9866C21.1737 22.8166 19.7037 23.0066 18.2937 23.0066ZM6.9137 23.0066C5.5137 23.0066 4.0337 22.8166 3.2037 21.9866C2.3837 21.1666 2.2037 19.6966 2.2037 18.2966V13.8066H10.4637C9.6537 15.4666 7.0237 17.9266 5.1237 18.1266C4.4337 18.1966 4.0337 18.6366 4.0337 19.3066C4.0337 19.8966 4.5137 20.4566 5.2737 20.3466C7.3937 20.0166 10.7637 17.5866 11.6737 14.7566H11.7737V23.0066Z"
        fillRule="evenodd"
        clipRule="evenodd"
    />
</svg>
        