
<svg
    viewBox={0 0 25.2109375 25.087890625}
    xmlns="http://www.w3.org/2000/svg"
>
    <path
        fill="inherit"
        d="M1.6037 1.6145C0.2637 2.9545 0.0037 4.8145 0.0037 7.0245V7.1645H2.2037V6.9445C2.2037 5.5145 2.3837 4.0345 3.2037 3.2145C4.0337 2.3745 5.5237 2.2045 6.9637 2.2045H7.2037V0.0045H7.0437C4.8237 0.0045 2.9537 0.2645 1.6037 1.6145ZM9.0737 2.2045H16.1337V0.0045H9.0737ZM23.6137 1.6145C22.2537 0.2645 20.3837 0.0045 18.1337 0.0045H17.9937V2.2045H18.2937C19.7037 2.2045 21.1737 2.3945 21.9937 3.2145C22.8337 4.0445 23.0137 5.4945 23.0137 6.9045V7.1645H25.2137V7.0645C25.2137 4.7945 24.9537 2.9345 23.6137 1.6145ZM23.0137 16.0545H25.2137V9.0345H23.0137ZM0.0037 16.0545H2.2037V9.0345H0.0037ZM23.6137 23.4745C24.9537 22.1345 25.2137 20.2845 25.2137 18.0145V17.9245H23.0137V18.1745C23.0137 19.5945 22.8337 21.0445 21.9937 21.8745C21.1737 22.6945 19.7037 22.8845 18.2937 22.8845H17.9937V25.0845H18.1337C20.3837 25.0845 22.2537 24.8245 23.6137 23.4745ZM1.6037 23.4745C2.9537 24.8245 4.8237 25.0845 7.0637 25.0845H7.2037V22.8845H6.9137C5.5137 22.8845 4.0337 22.6945 3.2037 21.8745C2.3837 21.0445 2.2037 19.5945 2.2037 18.1745V17.9245H0.0037V18.0145C0.0037 20.2845 0.2637 22.1345 1.6037 23.4745ZM9.0737 25.0845H16.1337V22.8845H9.0737Z"
        fillRule="evenodd"
        clipRule="evenodd"
    />
</svg>
        