
<svg
    viewBox="0 0 24.130859375 29.75"
    xmlns="http://www.w3.org/2000/svg"
>
    <path
        fill="inherit"
        d="M3.3537 9.4224C3.3537 12.1524 5.0437 14.0724 8.3037 14.9724L15.1737 16.9124C17.4337 17.5524 18.5937 18.7124 18.5937 20.3524V20.8324H17.8237C17.0037 20.8324 16.2937 20.9224 15.7937 21.4224C15.2837 21.9324 15.2137 22.6224 15.2137 23.4424V27.1424C15.2137 27.9724 15.2837 28.6824 15.7937 29.1724C16.2937 29.6824 17.0037 29.7524 17.8237 29.7524H21.5237C22.3537 29.7524 23.0637 29.6824 23.5737 29.1724C24.0637 28.6824 24.1337 27.9724 24.1337 27.1424V23.4424C24.1337 22.6224 24.0637 21.9324 23.5737 21.4224C23.0637 20.9224 22.3537 20.8324 21.5237 20.8324H20.7937V20.3524C20.7937 17.6324 19.1037 15.7224 15.8437 14.8224L8.9737 12.8824C6.7237 12.2524 5.5537 11.0624 5.5537 9.4224V8.9324H6.3037C7.1337 8.9324 7.8437 8.8424 8.3537 8.3424C8.8437 7.8524 8.9237 7.1324 8.9237 6.3024V2.6224C8.9237 1.7924 8.8437 1.0924 8.3537 0.5924C7.8437 0.0824 7.1337 0.0024 6.3037 0.0024H2.6137C1.7937 0.0024 1.0837 0.0824 0.5737 0.5924C0.0637 1.0924 0.0037 1.7924 0.0037 2.6124V6.3024C0.0037 7.1324 0.0637 7.8524 0.5737 8.3424C1.0837 8.8424 1.7937 8.9324 2.6237 8.9324H3.3537Z"
        fillRule="evenodd"
        clipRule="evenodd"
    />
</svg>
        