
<svg
    viewBox="0 0 25.2109375 25.2109375"
    xmlns="http://www.w3.org/2000/svg"
>
    <path
        fill="inherit"
        d="M23.6137 1.6166C25.0037 3.0066 25.2137 4.9466 25.2137 7.2866V12.1566H18.4837C20.3337 11.3366 21.6037 9.8166 21.6037 7.9666C21.6037 5.8366 20.0437 4.2666 17.9237 4.2666C16.1037 4.2666 14.4637 5.3966 13.5037 7.2866V-0.0034H17.9137C20.2437 -0.0034 22.2137 0.2166 23.6137 1.6166ZM11.0037 11.9466C8.1337 11.9466 5.6737 9.9766 5.6737 8.1366C5.6737 7.0566 6.3437 6.3566 7.3937 6.3566C9.5737 6.3566 11.4437 8.7666 11.4437 11.5266V11.9466ZM14.2037 11.9466H13.7637V11.5266C13.7637 8.7666 15.6537 6.3566 17.8137 6.3566C18.8637 6.3566 19.5337 7.0566 19.5337 8.1366C19.5337 9.9766 17.0937 11.9466 14.2037 11.9466ZM0.0037 12.1566V7.2566C0.0037 4.9666 0.2037 3.0066 1.6037 1.6166C2.9937 0.2166 4.9637 -0.0034 7.2637 -0.0034H11.7137V7.2866C10.7637 5.3966 9.1237 4.2666 7.2837 4.2666C5.1837 4.2666 3.6137 5.8366 3.6137 7.9666C3.6137 9.8166 4.8837 11.3366 6.7437 12.1566ZM20.5937 18.3866C18.5637 18.1666 15.7637 15.5466 14.9137 13.7966H25.2137V17.9066C25.2137 20.2466 25.0037 22.2066 23.6137 23.5966C22.2137 24.9966 20.2437 25.2066 17.9137 25.2066H13.5037V14.8066H13.6037C14.5637 17.7966 18.1737 20.4566 20.4237 20.7766C21.2637 20.8866 21.7837 20.2866 21.7837 19.6466C21.7837 18.9266 21.3537 18.4566 20.5937 18.3866ZM1.6037 23.5966C0.2037 22.2066 0.0037 20.2466 0.0037 17.9066V13.7966H10.2937C9.4437 15.5466 6.6437 18.1466 4.6237 18.3866C3.8737 18.4666 3.4437 18.9266 3.4437 19.6466C3.4437 20.2866 3.9637 20.8866 4.8037 20.7766C7.0437 20.4566 10.6537 17.7966 11.6037 14.8066H11.7137V25.2066H7.2837C4.9637 25.2066 2.9937 24.9966 1.6037 23.5966Z"
        fillRule="evenodd"
        clipRule="evenodd"
    />
</svg>
        