
<svg
    viewBox="0 0 24.486328125 24.486328125"
    xmlns="http://www.w3.org/2000/svg"
>
    <path
        fill="inherit"
        d="M15.7637 0.0011H8.7237C8.3137 0.0011 7.9737 0.3511 7.9737 0.7611C7.9737 1.1711 8.3137 1.5311 8.7237 1.5311H15.7637C16.1737 1.5311 16.5137 1.1711 16.5137 0.7611C16.5137 0.3511 16.1737 0.0011 15.7637 0.0011ZM1.9737 1.9711C0.9537 2.9811 0.2037 4.5411 0.1637 5.8111C0.1537 6.2711 0.4237 6.6011 0.8737 6.6011C1.2837 6.6011 1.5537 6.3711 1.6437 5.9611C1.8437 4.8011 2.2237 3.8411 3.0237 3.0211C3.9337 2.1511 4.8037 1.8711 6.0337 1.6111C6.4137 1.5211 6.6437 1.2611 6.6437 0.9011C6.6437 0.4611 6.3337 0.1611 5.8837 0.1611C4.6937 0.1811 3.0637 0.8711 1.9737 1.9711ZM22.5037 1.9711C21.4237 0.8711 19.7937 0.1811 18.6037 0.1611C18.1437 0.1611 17.8437 0.4611 17.8437 0.9011C17.8437 1.2611 18.0637 1.5211 18.4437 1.6111C19.6337 1.8611 20.5337 2.1311 21.4637 3.0211C22.2537 3.8411 22.6237 4.8011 22.8437 5.9611C22.9237 6.3711 23.1837 6.6011 23.6137 6.6011C24.0537 6.6011 24.3337 6.2711 24.3237 5.8111C24.2837 4.5411 23.5337 2.9811 22.5037 1.9711ZM8.4037 21.3811H16.0737C17.7737 21.3811 19.1937 21.2211 20.2037 20.2211C21.2337 19.1911 21.3737 17.7711 21.3737 16.0811V8.4111C21.3737 6.7111 21.2337 5.3011 20.2037 4.2911C19.1937 3.2811 17.7737 3.1211 16.0737 3.1211H8.3837C6.7137 3.1211 5.2937 3.2811 4.2837 4.2911C3.2637 5.3011 3.1137 6.7311 3.1137 8.3811V16.0811C3.1137 17.7711 3.2637 19.1911 4.2837 20.2211C5.2937 21.2211 6.7137 21.3811 8.4037 21.3811ZM24.4837 15.7911V8.7411C24.4837 8.3311 24.1337 7.9811 23.7237 7.9811C23.3137 7.9811 22.9737 8.3311 22.9737 8.7411V15.7911C22.9737 16.2011 23.3137 16.5611 23.7237 16.5611C24.1337 16.5611 24.4837 16.2011 24.4837 15.7911ZM0.0037 8.7411V15.7911C0.0037 16.2011 0.3437 16.5611 0.7637 16.5611C1.1737 16.5611 1.5137 16.2011 1.5137 15.7911V8.7411C1.5137 8.3311 1.1737 7.9811 0.7637 7.9811C0.3437 7.9811 0.0037 8.3311 0.0037 8.7411ZM22.5037 22.5311C23.5337 21.5211 24.2837 19.9611 24.3237 18.6911C24.3337 18.2111 24.0537 17.9011 23.6137 17.9011C23.1837 17.9011 22.9237 18.1111 22.8437 18.5411C22.6237 19.7011 22.2537 20.6411 21.4637 21.4811C20.5537 22.3411 19.6737 22.6311 18.4437 22.8711C18.0637 22.9711 17.8437 23.2411 17.8437 23.6011C17.8437 24.0311 18.1437 24.3211 18.6037 24.3211C19.7937 24.3211 21.4237 23.6211 22.5037 22.5311ZM1.9737 22.5311C3.0637 23.6211 4.6937 24.3211 5.8837 24.3211C6.3337 24.3211 6.6437 24.0311 6.6437 23.6011C6.6437 23.2411 6.4137 22.9711 6.0337 22.8711C4.8437 22.6411 3.9537 22.3511 3.0237 21.4811C2.2237 20.6411 1.8437 19.7011 1.6437 18.5411C1.5537 18.1111 1.2837 17.9011 0.8737 17.9011C0.4237 17.9011 0.1537 18.2111 0.1637 18.6911C0.2037 19.9611 0.9537 21.5211 1.9737 22.5311ZM8.7237 24.4911H15.7637C16.1737 24.4911 16.5137 24.1411 16.5137 23.7311C16.5137 23.3211 16.1737 22.9711 15.7637 22.9711H8.7237C8.3137 22.9711 7.9737 23.3211 7.9737 23.7311C7.9737 24.1411 8.3137 24.4911 8.7237 24.4911Z"
        fillRule="evenodd"
        clipRule="evenodd"
    />
</svg>
        