
<svg
    viewBox={0 0 22.99609375 29.3125}
    xmlns="http://www.w3.org/2000/svg"
>
    <path
        fill="inherit"
        d="M0.0037 25.0373C0.0037 27.8873 1.4037 29.3173 4.2337 29.3173H18.7537C21.5837 29.3173 22.9937 27.8873 22.9937 25.0373V4.2973C22.9937 1.4473 21.5837 -0.0027 18.7537 -0.0027H4.2337C1.4037 -0.0027 0.0037 1.4473 0.0037 4.2973ZM2.2037 24.9873V4.3373C2.2037 2.9673 2.9237 2.1973 4.3437 2.1973H18.6437C20.0737 2.1973 20.7937 2.9673 20.7937 4.3373V24.9873C20.7937 26.3573 20.0737 27.1073 18.6437 27.1073H4.3437C2.9237 27.1073 2.2037 26.3573 2.2037 24.9873ZM15.0837 13.8473C16.7337 13.8473 17.8937 12.6973 17.8937 11.0573C17.8937 9.4573 16.9137 8.3973 15.4637 8.3973C14.7237 8.3973 14.1337 8.6273 13.7137 9.1573H13.4237C13.5337 8.6673 13.8537 8.2073 14.2837 7.8073C14.7237 7.4073 15.2737 7.1773 15.8737 7.0373C16.3837 6.9173 16.5437 6.7673 16.5437 6.4673C16.5437 6.1773 16.3337 5.9573 15.9537 5.9573C15.0637 5.9573 13.9137 6.5373 13.1937 7.3273C12.4137 8.1573 12.0337 9.2273 12.0337 10.3873C12.0337 12.5773 13.3837 13.8473 15.0837 13.8473ZM8.1437 13.8673C9.8137 13.8673 10.9637 12.7173 10.9637 11.0773C10.9637 9.4773 9.9837 8.4073 8.5337 8.4073C7.8037 8.4073 7.2037 8.6373 6.7837 9.1773H6.5037C6.6137 8.6673 6.9337 8.1873 7.4137 7.7973C7.8337 7.4273 8.3537 7.1773 8.9537 7.0573C9.4637 6.9273 9.6137 6.7773 9.6137 6.4773C9.6137 6.1973 9.4037 5.9773 9.0237 5.9773C8.1337 5.9773 7.0237 6.5173 6.2637 7.3373C5.4937 8.1773 5.1137 9.2373 5.1137 10.4073C5.1137 12.5873 6.4637 13.8673 8.1437 13.8673ZM6.2937 19.0273H16.7337C17.2237 19.0273 17.5837 18.6473 17.5837 18.1673C17.5837 17.7073 17.2237 17.3473 16.7337 17.3473H6.2937C5.7937 17.3473 5.4237 17.7073 5.4237 18.1673C5.4237 18.6473 5.7937 19.0273 6.2937 19.0273ZM6.2937 23.1373H11.2237C11.7137 23.1373 12.0737 22.7773 12.0737 22.3173C12.0737 21.8373 11.7137 21.4473 11.2237 21.4473H6.2937C5.7937 21.4473 5.4237 21.8373 5.4237 22.3173C5.4237 22.7773 5.7937 23.1373 6.2937 23.1373Z"
        fillRule="evenodd"
        clipRule="evenodd"
    />
</svg>
        