
<svg
    viewBox="0 0 22.99609375 29.3125"
    xmlns="http://www.w3.org/2000/svg"
>
    <path
        fill="inherit"
        d="M0.0037 25.0373C0.0037 27.8873 1.4037 29.3173 4.2337 29.3173H18.7537C21.5837 29.3173 22.9937 27.8873 22.9937 25.0373V4.2973C22.9937 1.4473 21.5837 -0.0027 18.7537 -0.0027H4.2337C1.4037 -0.0027 0.0037 1.4473 0.0037 4.2973ZM15.1937 13.8173C13.4437 13.8173 12.0437 12.5073 12.0437 10.2573C12.0437 9.0673 12.4437 7.9573 13.2437 7.0973C13.9837 6.2873 15.1737 5.6873 16.0937 5.6873C16.4837 5.6873 16.7037 5.9173 16.7037 6.2173C16.7037 6.5173 16.5337 6.6873 16.0137 6.8073C15.3937 6.9473 14.8237 7.1873 14.3837 7.5973C13.9337 7.9973 13.6037 8.4773 13.4937 8.9873H13.7837C14.2237 8.4373 14.8337 8.2073 15.5837 8.2073C17.0737 8.2073 18.1037 9.2973 18.1037 10.9473C18.1037 12.6473 16.8937 13.8173 15.1937 13.8173ZM8.0437 13.8373C6.3137 13.8373 4.9237 12.5273 4.9237 10.2673C4.9237 9.0773 5.3037 7.9673 6.0937 7.1073C6.8937 6.2573 8.0237 5.6973 8.9437 5.6973C9.3337 5.6973 9.5537 5.9373 9.5537 6.2373C9.5537 6.5373 9.3937 6.6973 8.8737 6.8173C8.2537 6.9473 7.7237 7.2073 7.2837 7.5873C6.7937 7.9873 6.4637 8.4773 6.3537 8.9973H6.6437C7.0837 8.4473 7.6937 8.2173 8.4537 8.2173C9.9437 8.2173 10.9537 9.3073 10.9537 10.9673C10.9537 12.6573 9.7637 13.8373 8.0437 13.8373ZM6.1437 19.1673C5.6237 19.1673 5.2337 18.7673 5.2337 18.2773C5.2337 17.7973 5.6237 17.4273 6.1437 17.4273H16.8937C17.4037 17.4273 17.7737 17.7973 17.7737 18.2773C17.7737 18.7673 17.4037 19.1673 16.8937 19.1673ZM6.1437 23.4073C5.6237 23.4073 5.2337 23.0373 5.2337 22.5573C5.2337 22.0573 5.6237 21.6573 6.1437 21.6573H11.2137C11.7337 21.6573 12.1037 22.0573 12.1037 22.5573C12.1037 23.0373 11.7337 23.4073 11.2137 23.4073Z"
        fillRule="evenodd"
        clipRule="evenodd"
    />
</svg>
        