
<svg
    viewBox="0 0 26.60546875 28.7109375"
    xmlns="http://www.w3.org/2000/svg"
>
    <path
        fill="inherit"
        d="M13.5227 28.7066C20.7527 28.7066 26.6027 22.2866 26.6027 14.3566C26.6027 6.4266 20.7527 -0.0034 13.5227 -0.0034C9.6427 -0.0034 6.1127 1.8566 3.7027 4.8766C3.4627 5.1866 3.3627 5.4666 3.3627 5.7466C3.3627 6.3266 3.8927 6.7366 4.4727 6.7366C4.8027 6.7366 5.1427 6.6066 5.3827 6.2866C7.3827 3.7466 10.3327 2.1966 13.5227 2.1966C19.5227 2.1966 24.3927 7.6466 24.3927 14.3566C24.3927 21.0666 19.5227 26.5066 13.5227 26.5066C10.3327 26.5066 7.3827 24.9466 5.3827 22.4266C5.1427 22.1066 4.8027 21.9666 4.4727 21.9666C3.8927 21.9666 3.3627 22.3766 3.3627 22.9666C3.3627 23.2266 3.4627 23.5266 3.7027 23.8266C6.1127 26.8566 9.6427 28.7066 13.5227 28.7066ZM0.0027 21.3566C0.0027 23.0966 1.3827 24.4566 3.0227 24.5366C2.5827 23.9966 2.3627 23.4766 2.3627 22.9966C2.3627 21.8566 3.4227 20.9766 4.5127 20.9766C5.3727 20.9766 5.8127 21.4066 6.3827 22.1066C6.4427 21.8566 6.4627 21.6166 6.4627 21.3566V7.3466C6.4627 7.0866 6.4427 6.8466 6.3827 6.6066C5.8427 7.2566 5.4027 7.7266 4.5227 7.7266C3.4227 7.7266 2.3627 6.8466 2.3627 5.7166C2.3627 5.2366 2.5827 4.7266 3.0227 4.1666C1.3927 4.2566 0.0027 5.6066 0.0027 7.3466ZM3.2427 13.3966C2.0827 13.3966 1.1527 12.4566 1.1527 11.3066C1.1527 10.1566 2.0827 9.2266 3.2427 9.2266C4.3927 9.2266 5.3227 10.1566 5.3227 11.3066C5.3227 12.4566 4.3927 13.3966 3.2427 13.3966ZM3.2427 12.4366C3.8527 12.4366 4.3627 11.9266 4.3627 11.3066C4.3627 10.6866 3.8527 10.1866 3.2427 10.1866C2.6227 10.1866 2.1027 10.6866 2.1027 11.3066C2.1027 11.9266 2.6227 12.4366 3.2427 12.4366Z"
        fillRule="evenodd"
        clipRule="evenodd"
    />
</svg>
        