
<svg
    viewBox="0 0 43.72265625 29.271484375"
    xmlns="http://www.w3.org/2000/svg"
>
    <path
        fill="inherit"
        d="M12.2527 20.1663C12.2527 22.2863 13.0827 23.8463 14.6427 24.6963C15.3827 25.0863 15.8227 25.5963 16.1027 26.5063L16.5427 27.9763C16.7927 28.8463 17.4027 29.2763 18.3227 29.2763H24.6327C25.5927 29.2763 26.1527 28.8663 26.4327 27.9763L26.8627 26.5063C27.1527 25.5963 27.5727 25.0863 28.3327 24.6963C29.8727 23.8463 30.7027 22.2863 30.7027 20.1663V13.6763H30.9127C31.6127 13.6763 32.0727 13.1963 32.0727 12.4163V10.5663C32.0727 9.7863 31.6127 9.3063 30.9127 9.3063H30.7027V9.1063C30.7027 6.9863 29.8727 5.4463 28.3327 4.5763C27.5727 4.1863 27.1527 3.6763 26.8627 2.7763L26.4327 1.2963C26.1827 0.4363 25.5827 -0.0037 24.6327 -0.0037H18.3227C17.4027 -0.0037 16.7927 0.4263 16.5427 1.2963L16.1027 2.7763C15.8327 3.6663 15.3927 4.1963 14.6427 4.5763C13.0927 5.3963 12.2527 6.9563 12.2527 9.1063ZM38.4427 23.9663C38.8827 24.4763 39.6527 24.4763 40.1827 23.8963C42.4527 21.4263 43.7227 18.1563 43.7227 14.6163C43.7227 11.0763 42.4527 7.7963 40.1827 5.3363C39.6527 4.7563 38.8827 4.7463 38.4427 5.2663C38.0127 5.7563 38.1427 6.3963 38.6327 6.9563C40.4727 8.9963 41.4927 11.6763 41.4927 14.6163C41.4927 17.5563 40.4727 20.2363 38.6327 22.2763C38.1427 22.8363 38.0127 23.4763 38.4427 23.9663ZM5.2727 23.9663C5.7127 23.4763 5.5827 22.8363 5.0827 22.2763C3.2527 20.2363 2.2327 17.5563 2.2327 14.6163C2.2327 11.6763 3.2527 8.9963 5.0827 6.9563C5.5827 6.3963 5.7127 5.7563 5.2727 5.2663C4.8427 4.7463 4.0727 4.7563 3.5527 5.3363C1.2827 7.7963 0.0027 11.0763 0.0027 14.6163C0.0027 18.1563 1.2827 21.4263 3.5527 23.8963C4.0727 24.4763 4.8427 24.4763 5.2727 23.9663ZM14.2427 19.8763V9.4063C14.2427 7.3663 15.4327 6.1363 17.4327 6.1363H25.5427C27.5227 6.1363 28.7127 7.3663 28.7127 9.4063V19.8763C28.7127 21.9063 27.5227 23.1363 25.5427 23.1363H17.4327C15.4327 23.1363 14.2427 21.9063 14.2427 19.8763ZM9.1027 20.0663C9.5427 19.5763 9.3627 18.9663 8.9327 18.3763C8.1027 17.3463 7.7127 16.0363 7.7127 14.6163C7.7127 13.1963 8.1027 11.8663 8.9327 10.8563C9.3627 10.2663 9.5427 9.6563 9.1027 9.1563C8.6527 8.6363 7.8327 8.6363 7.3527 9.2563C6.1627 10.7363 5.4827 12.6063 5.4827 14.6163C5.4827 16.6263 6.1627 18.4963 7.3527 19.9763C7.8327 20.5863 8.6527 20.5763 9.1027 20.0663ZM34.6127 20.0663C35.0727 20.5763 35.8927 20.5863 36.3627 19.9763C37.5527 18.4963 38.2527 16.6263 38.2527 14.6163C38.2527 12.6063 37.5527 10.7363 36.3627 9.2563C35.8927 8.6363 35.0727 8.6363 34.6127 9.1563C34.1827 9.6563 34.3727 10.2663 34.7927 10.8563C35.6127 11.8663 36.0227 13.1963 36.0227 14.6163C36.0227 16.0363 35.6127 17.3463 34.7927 18.3763C34.3727 18.9663 34.1827 19.5763 34.6127 20.0663Z"
        fillRule="evenodd"
        clipRule="evenodd"
    />
</svg>
        