
<svg
    viewBox="0 0 35 26.263671875"
    xmlns="http://www.w3.org/2000/svg"
>
    <path
        fill="inherit"
        d="M13.5627 19.5952C14.1627 19.5952 15.0227 19.5552 15.6127 19.4652L17.0127 17.0352C16.6527 17.1952 16.2527 17.3652 15.8427 17.4752C18.1327 15.6952 19.5927 12.9152 19.5927 9.7852C19.5927 6.6552 18.1127 3.8852 15.8327 2.1152C18.9527 3.0252 21.2727 5.7952 21.5327 9.1152L21.7127 8.8052C22.0827 8.2552 22.5627 7.8452 23.1027 7.5452C22.6027 5.3552 21.3327 3.4552 19.6027 2.1352C22.0027 2.8252 23.9127 4.6252 24.7827 6.9352C24.9627 6.9052 25.1427 6.8752 25.3227 6.8752C25.8127 6.8752 26.2927 6.9752 26.7427 7.1552C25.6027 3.0252 21.8027 -0.0048 17.3227 -0.0048C16.6627 -0.0048 16.0527 0.0552 15.4327 0.1952C14.8327 0.0552 14.2227 -0.0048 13.5627 -0.0048C12.9227 -0.0048 12.2927 0.0552 11.6627 0.1952C11.0627 0.0552 10.4327 -0.0048 9.7927 -0.0048C4.3727 -0.0048 0.0027 4.3752 0.0027 9.7852C0.0027 15.2152 4.3727 19.5952 9.7927 19.5952C10.4327 19.5952 11.0627 19.5252 11.6727 19.4052C12.2927 19.5252 12.9227 19.5952 13.5627 19.5952ZM1.7727 9.7852C1.7727 6.1552 4.1927 3.0852 7.5227 2.1152C5.2327 3.8852 3.7627 6.6552 3.7627 9.7852C3.7627 12.9152 5.2227 15.6952 7.5027 17.4752C4.1927 16.4852 1.7727 13.4252 1.7727 9.7852ZM5.5627 9.7852C5.5627 6.1652 7.9527 3.1152 11.2527 2.1352C8.9827 3.8952 7.5027 6.6552 7.5027 9.7852C7.5027 12.9052 8.9827 15.6852 11.2527 17.4552C7.9427 16.4652 5.5627 13.4152 5.5627 9.7852ZM9.2927 9.7852C9.2927 6.7252 11.0227 4.0752 13.5527 2.7452C16.0827 4.0752 17.8027 6.7252 17.8027 9.7852C17.8027 12.8552 16.0827 15.5152 13.5527 16.8452C11.0227 15.5152 9.2927 12.8552 9.2927 9.7852ZM18.1727 26.2652H32.4527C34.0427 26.2652 35.0027 25.1552 35.0027 23.7652C35.0027 23.3252 34.8727 22.8752 34.6327 22.4452L27.4827 9.9952C27.0027 9.1452 26.1527 8.7252 25.3227 8.7252C24.4727 8.7252 23.6227 9.1452 23.1427 9.9952L16.0127 22.4452C15.7727 22.8852 15.6427 23.3252 15.6427 23.7652C15.6427 25.1552 16.5927 26.2652 18.1727 26.2652ZM25.3227 20.0752C24.8527 20.0752 24.5927 19.8252 24.5827 19.3352L24.4427 14.3052C24.4327 13.8052 24.8027 13.4652 25.3027 13.4652C25.8127 13.4652 26.1927 13.8252 26.1827 14.3152L26.0427 19.3352C26.0327 19.8252 25.7827 20.0752 25.3227 20.0752ZM25.3227 23.1752C24.7727 23.1752 24.3127 22.7352 24.3127 22.2052C24.3127 21.6552 24.7627 21.1952 25.3227 21.1952C25.8827 21.1952 26.3427 21.6552 26.3427 22.2052C26.3427 22.7452 25.8627 23.1752 25.3227 23.1752Z"
        fillRule="evenodd"
        clipRule="evenodd"
    />
</svg>
        