
<svg
    viewBox={0 0 22.14638920694884 21.60587580223188}
    xmlns="http://www.w3.org/2000/svg"
>
    <path
        fill="inherit"
        d="M2.166 17.8418L4.196 19.8918L5.006 19.4718L21.646 2.9118C22.316 2.2418 22.316 1.1618 21.646 0.5018C20.986 -0.1682 19.906 -0.1682 19.256 0.4918L2.596 17.0618ZM6.126 8.3118C7.456 6.9818 8.386 5.4118 8.856 3.6718C9.026 3.0718 8.656 2.5318 8.086 2.4318C7.506 2.3318 7.066 2.6818 6.906 3.2418C6.526 4.5918 5.796 5.8318 4.736 6.9018C3.606 8.0218 2.286 8.7618 0.886 9.1218C0.286 9.2518 -0.084 9.7218 0.016 10.2918C0.106 10.8718 0.626 11.2618 1.236 11.1018C3.046 10.6618 4.736 9.7218 6.126 8.3118ZM14.386 15.6418C13.076 16.9618 12.146 18.5418 11.666 20.2718C11.496 20.8718 11.866 21.4218 12.426 21.5218C13.006 21.6118 13.456 21.2718 13.616 20.7118C14.006 19.3618 14.726 18.1118 15.796 17.0518C16.916 15.9218 18.226 15.1918 19.636 14.8318C20.236 14.6918 20.596 14.2318 20.506 13.6518C20.416 13.0818 19.896 12.6818 19.296 12.8518C17.476 13.2918 15.796 14.2318 14.386 15.6418ZM0.426 20.9818C0.216 21.3818 0.646 21.7318 0.976 21.5618L3.026 20.4918L1.536 19.0018Z"
        fillRule="evenodd"
        clipRule="evenodd"
    />
</svg>
        