<svg viewBox="0 0 26.824644104329256 27.002882919007885" xmlns="http://www.w3.org/2000/svg"><path d="M12.4437 22.5488C13.0037 22.5488 13.4637 22.0788 13.4637 21.5188V15.1888C21.6537 14.7688 26.8837 9.2988 26.8237 1.0688C26.8237 0.3988 26.4437 -0.0012 25.7537 -0.0012C19.2337 -0.0712 14.3737 3.6388 12.3737 9.7788C10.4437 5.3988 6.2237 3.2088 1.7737 3.2288C1.2437 3.2288 1.0137 3.4888 1.0437 4.0488C1.3837 7.8188 3.2837 14.6588 11.4037 15.1888V21.5188C11.4037 22.0788 11.8837 22.5488 12.4437 22.5488ZM13.7137 13.0988C14.7937 6.6588 18.9937 2.4088 24.6937 2.1288C24.4637 8.2288 20.0737 12.5788 13.7137 13.0988ZM11.3337 13.0988C6.5537 12.6988 3.7837 9.3688 3.1837 5.4288C6.9037 5.8688 10.4437 8.3788 11.3337 13.0988ZM8.4637 23.1788C9.1037 23.1788 9.6437 22.6388 9.6437 21.9988C9.6437 21.3588 9.1037 20.8188 8.4637 20.8188C7.8237 20.8188 7.2837 21.3588 7.2837 21.9988C7.2837 22.6388 7.8237 23.1788 8.4637 23.1788ZM16.4037 23.1788C17.0537 23.1788 17.5837 22.6388 17.5837 21.9988C17.5837 21.3588 17.0537 20.8188 16.4037 20.8188C15.7637 20.8188 15.2337 21.3588 15.2337 21.9988C15.2337 22.6388 15.7637 23.1788 16.4037 23.1788ZM4.5837 24.5788C5.2237 24.5788 5.7537 24.0488 5.7537 23.3888C5.7537 22.7488 5.2237 22.2188 4.5837 22.2188C3.9337 22.2188 3.4037 22.7488 3.4037 23.3888C3.4037 24.0488 3.9337 24.5788 4.5837 24.5788ZM20.2937 24.5788C20.9337 24.5788 21.4637 24.0488 21.4637 23.3888C21.4637 22.7488 20.9337 22.2188 20.2937 22.2188C19.6437 22.2188 19.1137 22.7488 19.1137 23.3888C19.1137 24.0488 19.6437 24.5788 20.2937 24.5788ZM1.1737 26.9988C1.8137 26.9988 2.3537 26.4688 2.3537 25.8288C2.3537 25.1688 1.8137 24.6388 1.1737 24.6388C0.5337 24.6388 0.0037 25.1688 0.0037 25.8288C0.0037 26.4688 0.5337 26.9988 1.1737 26.9988ZM23.6937 26.9988C24.3337 26.9988 24.8737 26.4688 24.8737 25.8288C24.8737 25.1688 24.3337 24.6388 23.6937 24.6388C23.0537 24.6388 22.5137 25.1688 22.5137 25.8288C22.5137 26.4688 23.0537 26.9988 23.6937 26.9988Z" /></svg>