
<svg
    viewBox="0 0 23.336203361883236 29.271484375"
    xmlns="http://www.w3.org/2000/svg"
>
    <path
        fill="inherit"
        d="M8.4724 0C7.5524 0 6.9424 0.42 6.6824 1.3L6.2424 2.78C6.0224 3.5 5.6324 3.98 5.1624 4.35L7.1024 6.29C7.4724 6.19 7.8824 6.14 8.3224 6.14H15.6824C17.6724 6.14 18.8624 7.37 18.8624 9.41V17.36C18.8624 17.58 18.8624 17.8 18.8624 18.02L20.8324 20C20.8424 19.69 20.8624 19.37 20.8624 19.04V13.67H21.0524C21.7624 13.67 22.2224 13.19 22.2224 12.41V10.57C22.2224 9.79 21.7624 9.31 21.0524 9.31H20.8624V9.11C20.8624 6.99 20.0224 5.44 18.4824 4.58C17.7324 4.18 17.2824 3.68 17.0224 2.78L16.5624 1.3C16.3224 0.44 15.7224 0 14.7924 0ZM21.5424 25.99C21.9524 26.41 22.6224 26.41 23.0324 25.99C23.4324 25.58 23.4424 24.92 23.0324 24.5L1.8024 3.28C1.3924 2.87 0.7224 2.86 0.3024 3.28C-0.0976 3.68 -0.0976 4.37 0.3024 4.77ZM8.4724 29.27H14.7924C15.7324 29.27 16.3224 28.86 16.5624 27.97L17.0224 26.51C17.2124 25.84 17.4924 25.42 17.9624 25.06C18.0124 25.02 18.0724 24.98 18.1224 24.92L16.1724 22.98C15.7224 23.08 15.2124 23.13 14.6624 23.13H7.5824C5.5924 23.13 4.4024 21.9 4.4024 19.88V11.66C4.4024 11.51 4.4024 11.36 4.4124 11.22L2.4124 9.24C2.4124 9.39 2.4024 9.56 2.4024 9.72V20.17C2.4024 22.29 3.2324 23.84 4.7824 24.69C5.5324 25.09 5.9824 25.59 6.2424 26.51L6.6824 27.97C6.9424 28.85 7.5524 29.27 8.4724 29.27Z"
        fillRule="evenodd"
        clipRule="evenodd"
    />
</svg>
        