
<svg
    viewBox={0 0 13.5625 30.201171875}
    xmlns="http://www.w3.org/2000/svg"
>
    <path
        fill="inherit"
        d="M0.0037 27.2459C0.0037 29.0559 1.2037 30.2059 3.1137 30.2059H10.4437C12.3637 30.2059 13.5637 29.0559 13.5637 27.2459V2.9559C13.5637 1.1659 12.3637 -0.0041 10.4437 -0.0041H3.1137C1.2037 -0.0041 0.0037 1.1659 0.0037 2.9559ZM6.7937 13.4259C4.2337 13.4259 2.1437 11.3359 2.1437 8.7759C2.1437 6.2159 4.2337 4.1259 6.7937 4.1259C9.3537 4.1259 11.4337 6.2159 11.4337 8.7759C11.4337 11.3359 9.3537 13.4259 6.7937 13.4259ZM6.7937 10.6459C7.8337 10.6459 8.6637 9.8159 8.6637 8.7759C8.6637 7.7359 7.8337 6.8859 6.7937 6.8859C5.7537 6.8859 4.9037 7.7359 4.9037 8.7759C4.9037 9.8159 5.7537 10.6459 6.7937 10.6459ZM6.7937 18.8159C5.8137 18.8159 5.0337 18.0359 5.0337 17.0759C5.0337 16.0959 5.8137 15.3259 6.7937 15.3259C7.7537 15.3259 8.5337 16.0959 8.5337 17.0759C8.5337 18.0359 7.7537 18.8159 6.7937 18.8159Z"
        fillRule="evenodd"
        clipRule="evenodd"
    />
</svg>
        