
<svg
    viewBox={0 0 14.205078125 30.201171875}
    xmlns="http://www.w3.org/2000/svg"
>
    <path
        fill="inherit"
        d="M3.5637 30.2059H10.6537C12.8237 30.2059 14.2037 28.8659 14.2037 26.7959V3.4059C14.2037 1.3359 12.8237 -0.0041 10.6537 -0.0041H3.5637C1.3837 -0.0041 0.0037 1.3359 0.0037 3.4059V26.7959C0.0037 28.8659 1.3837 30.2059 3.5637 30.2059ZM3.8037 28.2059C2.7037 28.2059 2.0237 27.5459 2.0237 26.5059V3.7059C2.0237 2.6559 2.7037 1.9959 3.8037 1.9959H10.4037C11.4937 1.9959 12.1837 2.6559 12.1837 3.7059V26.5059C12.1837 27.5459 11.4937 28.2059 10.4037 28.2059ZM4.8937 12.3959C5.7837 12.3959 6.4937 11.6759 6.4937 10.7959C6.4937 9.9259 5.7837 9.2059 4.8937 9.2059C4.0237 9.2059 3.2937 9.9259 3.2937 10.7959C3.2937 11.6759 4.0237 12.3959 4.8937 12.3959ZM9.3337 12.3959C10.2137 12.3959 10.9337 11.6759 10.9337 10.7959C10.9337 9.9259 10.2137 9.2059 9.3337 9.2059C8.4537 9.2059 7.7337 9.9259 7.7337 10.7959C7.7337 11.6759 8.4537 12.3959 9.3337 12.3959ZM4.8937 16.7359C5.7837 16.7359 6.4937 16.0059 6.4937 15.1359C6.4937 14.2459 5.7837 13.5359 4.8937 13.5359C4.0237 13.5359 3.2937 14.2459 3.2937 15.1359C3.2937 16.0059 4.0237 16.7359 4.8937 16.7359ZM9.3237 21.0559C10.1737 21.0559 10.8737 20.3859 10.8737 19.5259V15.0559C10.8737 14.2059 10.1737 13.5359 9.3237 13.5359C8.4937 13.5359 7.8237 14.2059 7.8237 15.0559V19.5259C7.8237 20.3859 8.4937 21.0559 9.3237 21.0559ZM4.8937 21.0559C5.7837 21.0559 6.4937 20.3459 6.4937 19.4559C6.4937 18.5759 5.7837 17.8559 4.8937 17.8559C4.0237 17.8559 3.2937 18.5759 3.2937 19.4559C3.2937 20.3459 4.0237 21.0559 4.8937 21.0559Z"
        fillRule="evenodd"
        clipRule="evenodd"
    />
</svg>
        