
<svg
    viewBox="0 0 27.302734375 27.193359375"
    xmlns="http://www.w3.org/2000/svg"
>
    <path
        fill="inherit"
        d="M7.2837 27.1973H20.0037C22.3437 27.1973 24.3037 26.9773 25.7037 25.5773C27.0937 24.1873 27.3037 22.2273 27.3037 19.8973V7.2873C27.3037 4.9473 27.0937 3.0073 25.7037 1.6173C24.3037 0.2173 22.3437 -0.0027 20.0037 -0.0027H7.2637C4.9637 -0.0027 2.9937 0.2173 1.6037 1.6173C0.2037 3.0073 0.0037 4.9673 0.0037 7.2573V19.8973C0.0037 22.2273 0.2037 24.1873 1.6037 25.5773C2.9937 26.9773 4.9637 27.1973 7.2837 27.1973ZM6.9137 24.9873C5.5137 24.9873 4.0337 24.7973 3.2037 23.9673C2.3837 23.1473 2.2037 21.6873 2.2037 20.2773V6.9573C2.2037 5.5073 2.3837 4.0473 3.2037 3.2173C4.0337 2.3973 5.5237 2.1973 6.9637 2.1973H20.3837C21.7937 2.1973 23.2737 2.3973 24.0937 3.2273C24.9237 4.0473 25.1037 5.5073 25.1037 6.9173V20.2773C25.1037 21.6873 24.9237 23.1473 24.0937 23.9673C23.2737 24.7973 21.7937 24.9873 20.3837 24.9873ZM7.5037 10.5973C8.6137 10.7173 9.4737 9.4973 9.4037 8.5273C8.3037 8.5673 7.4737 9.5573 7.5037 10.5973ZM15.0237 9.1973H13.6037V10.8173H12.6237V11.9073H13.6037V15.8773C13.6037 17.2573 14.1537 17.7473 15.5437 17.7473C15.8437 17.7473 16.1837 17.7073 16.3137 17.6873V16.5273C16.2437 16.5673 15.9937 16.5673 15.8437 16.5673C15.2837 16.5673 15.0237 16.3373 15.0237 15.7073V11.9073H16.3337V10.8173H15.0237ZM11.2837 15.3273C10.7637 15.0973 10.4137 14.7473 10.2237 14.2573C10.0237 13.7273 10.0537 13.1773 10.2237 12.7173C10.3237 12.3973 10.5237 12.0173 11.0637 11.7073C10.6637 11.1173 10.0337 10.8173 9.2937 10.8173C8.4637 10.8173 7.9837 11.2473 7.5637 11.2473C7.2037 11.2473 6.8037 10.8273 6.1437 10.8273C5.4137 10.8273 4.8237 11.1273 4.4437 11.6173C3.9737 12.1973 3.7837 12.8973 3.7837 13.6173C3.7837 14.8073 4.3037 16.1973 5.0837 17.0773C5.5137 17.5273 5.8237 17.7573 6.1937 17.7573C6.7537 17.7573 7.0537 17.3473 7.7237 17.3473C8.0237 17.3473 8.2737 17.4773 8.4537 17.5273C8.7237 17.6273 8.9137 17.7473 9.2237 17.7473C9.5737 17.7473 9.8437 17.6073 10.0237 17.4473C10.6137 16.8573 11.0837 16.0273 11.2837 15.3273ZM20.9737 17.6873L23.4637 10.8173H21.9137L20.2437 16.3373L18.4737 10.8173H16.9637L19.4937 17.6873Z"
        fillRule="evenodd"
        clipRule="evenodd"
    />
</svg>
        