<svg viewBox="0 0 28.7109375 27.890625" xmlns="http://www.w3.org/2000/svg"><path d="M13.3427 27.8864C21.6727 27.8864 28.7127 21.2064 28.7127 12.3564C28.7127 5.3964 23.3427 -0.0036 16.2127 -0.0036C8.1027 -0.0036 0.0027 6.8264 0.0027 15.4064C0.0027 22.7264 5.5127 27.8864 13.3427 27.8864ZM13.3427 25.6864C6.7927 25.6864 2.2027 21.4264 2.2027 15.4064C2.2027 8.1464 9.2327 2.1964 16.2127 2.1964C22.1227 2.1964 26.5127 6.6464 26.5127 12.3564C26.5127 19.9864 20.4227 25.6864 13.3427 25.6864ZM10.2527 12.8064C10.4427 12.8064 10.5927 12.6964 10.6227 12.5064C10.8827 10.5164 11.1927 10.1864 13.1827 9.9264C13.3827 9.8964 13.5127 9.7464 13.5127 9.5564C13.5127 9.3664 13.3827 9.2264 13.1827 9.1964C11.1927 8.9364 10.8827 8.6164 10.6227 6.6264C10.5927 6.4264 10.4427 6.3064 10.2527 6.3064C10.0727 6.3064 9.9227 6.4264 9.9027 6.6264C9.6227 8.6164 9.3227 8.9364 7.3427 9.1964C7.1327 9.2264 7.0027 9.3664 7.0027 9.5564C7.0027 9.7464 7.1327 9.8964 7.3427 9.9264C9.3227 10.1864 9.6227 10.5164 9.9027 12.5064C9.9227 12.6964 10.0727 12.8064 10.2527 12.8064ZM16.2727 22.0264C16.5727 22.0264 16.7627 21.8464 16.8027 21.5464C17.3727 17.3664 18.0727 16.6564 22.2627 16.0964C22.5627 16.0364 22.7527 15.8464 22.7527 15.5464C22.7527 15.2464 22.5627 15.0564 22.2627 14.9964C18.0727 14.4364 17.3727 13.7364 16.8027 9.5464C16.7627 9.2564 16.5727 9.0664 16.2727 9.0664C15.9727 9.0664 15.7627 9.2564 15.7227 9.5464C15.1527 13.7364 14.4527 14.4364 10.2627 14.9964C9.9627 15.0564 9.7727 15.2464 9.7727 15.5464C9.7727 15.8464 9.9627 16.0364 10.2627 16.0964C14.4527 16.6564 15.1527 17.3664 15.7227 21.5464C15.7627 21.8464 15.9727 22.0264 16.2727 22.0264Z" /></svg>