
<svg
    viewBox={0 0 13.565753422576616 27.015625}
    xmlns="http://www.w3.org/2000/svg"
>
    <path
        fill="inherit"
        d="M2.7047 9.4089H10.8047L7.9447 0.8989C7.7547 0.3289 7.3747 -0.0011 6.7847 -0.0011C6.1647 -0.0011 5.7247 0.3289 5.5347 0.8989ZM1.1047 27.0189C1.7147 27.0189 2.1747 26.5889 2.2047 25.9089L2.5447 19.2589L3.9347 13.3389H9.6247L11.0347 19.2589L11.3647 25.9089C11.4047 26.5889 11.8547 27.0189 12.4747 27.0189C13.0747 27.0189 13.6047 26.5689 13.5647 25.8289L13.2447 19.1589C13.2347 18.9789 13.2247 18.8389 13.1647 18.6789L11.4147 11.8389C11.3347 11.4989 11.0447 11.2789 10.7047 11.2789H2.8547C2.5147 11.2789 2.2447 11.4989 2.1447 11.8389L0.3947 18.6789C0.3447 18.8389 0.3247 18.9789 0.3247 19.1589L0.0047 25.8289C-0.0253 26.5689 0.4947 27.0189 1.1047 27.0189Z"
        fillRule="evenodd"
        clipRule="evenodd"
    />
</svg>
        