
<svg
    viewBox={0 0 30.857421875 28.328125}
    xmlns="http://www.w3.org/2000/svg"
>
    <path
        fill="inherit"
        d="M9.7927 19.5917C10.4327 19.5917 11.0627 19.5217 11.6727 19.4117C12.2927 19.5217 12.9227 19.5917 13.5627 19.5917C14.2027 19.5917 14.8327 19.5217 15.4327 19.4117C16.0527 19.5217 16.6827 19.5917 17.3227 19.5917C17.4827 19.5917 17.6527 19.5817 17.8127 19.5617C18.2927 19.4417 18.7827 19.3017 19.9727 18.9717V17.3117C19.8827 17.3317 19.7927 17.3617 19.7127 17.3917C19.7927 17.3217 19.8827 17.2517 19.9727 17.1717V14.5917C18.9627 15.9317 17.5527 16.9517 15.9127 17.4417C18.1527 15.6517 19.5927 12.8917 19.5927 9.7917C19.5927 6.6817 18.1527 3.9217 15.9027 2.1317C18.3927 2.8817 20.3727 4.8217 21.1827 7.2917C21.6127 6.9617 22.1527 6.6717 22.8227 6.5617C22.2027 4.8017 21.1127 3.2817 19.6827 2.1317C21.7827 2.7717 23.5027 4.2617 24.4627 6.1917L26.2627 5.8017C24.7427 2.3817 21.3127 0.0017 17.3227 0.0017C16.6827 0.0017 16.0527 0.0517 15.4527 0.1817C14.8327 0.0517 14.2027 0.0017 13.5627 0.0017C12.9227 0.0017 12.2927 0.0517 11.6727 0.1817C11.0627 0.0517 10.4327 0.0017 9.7927 0.0017C4.3727 0.0017 0.0027 4.3717 0.0027 9.7917C0.0027 15.2217 4.3727 19.5917 9.7927 19.5917ZM1.7927 9.7917C1.7927 6.1817 4.1727 3.1317 7.4527 2.1317C5.2127 3.9217 3.7627 6.6817 3.7627 9.7917C3.7627 12.8917 5.1927 15.6517 7.4527 17.4417C4.1727 16.4517 1.7927 13.4017 1.7927 9.7917ZM5.5627 9.7917C5.5627 6.1917 7.9327 3.1617 11.1927 2.1417C8.9527 3.9417 7.5227 6.6817 7.5227 9.7917C7.5227 12.8917 8.9427 15.6417 11.1827 17.4417C7.9127 16.4317 5.5627 13.3817 5.5627 9.7917ZM9.3127 9.7917C9.3127 6.7217 11.0227 4.0617 13.5527 2.7217C16.0827 4.0617 17.8027 6.7217 17.8027 9.7917C17.8027 12.8517 16.0827 15.5217 13.5527 16.8717C11.0227 15.5217 9.3127 12.8517 9.3127 9.7917ZM19.0427 28.3317C20.9027 28.3317 23.6927 26.9317 23.6927 23.2517V15.8017C23.6927 15.1517 23.7927 15.0517 24.3727 14.9117L30.1427 13.6417C30.5827 13.5317 30.8527 13.2117 30.8527 12.7817V8.0417C30.8527 7.3717 30.2927 6.9017 29.6427 7.0417L23.1727 8.4617C22.3527 8.6417 21.9027 9.0917 21.9027 9.8117L21.9127 19.7517C21.9127 20.3617 21.6927 20.7217 21.1827 20.8317L19.1827 21.2717C16.6227 21.8217 15.4327 23.0917 15.4327 25.0217C15.4327 26.9517 16.9427 28.3317 19.0427 28.3317Z"
        fillRule="evenodd"
        clipRule="evenodd"
    />
</svg>
        