
<svg
    viewBox={0 0 14.73828125 30.201171875}
    xmlns="http://www.w3.org/2000/svg"
>
    <path
        fill="inherit"
        d="M0.0037 27.2459C0.0037 29.0559 1.2037 30.2059 3.1137 30.2059H11.6237C13.5337 30.2059 14.7337 29.0559 14.7337 27.2459V2.9559C14.7337 1.1659 13.5337 -0.0041 11.6237 -0.0041H3.1137C1.2037 -0.0041 0.0037 1.1659 0.0037 2.9559ZM2.0237 26.9659V3.2359C2.0237 2.4759 2.5337 1.9959 3.3537 1.9959H11.3937C12.2237 1.9959 12.7137 2.4759 12.7137 3.2359V26.9659C12.7137 27.7259 12.2237 28.2059 11.3937 28.2059H3.3537C2.5337 28.2059 2.0237 27.7259 2.0237 26.9659ZM7.3837 13.0859C9.7637 13.0859 11.6937 11.1459 11.6937 8.7759C11.6937 6.3959 9.7637 4.4559 7.3837 4.4559C5.0037 4.4559 3.0637 6.3959 3.0637 8.7759C3.0637 11.1459 5.0037 13.0859 7.3837 13.0859ZM7.3837 10.5159C6.4137 10.5159 5.6337 9.7359 5.6337 8.7759C5.6337 7.8059 6.4137 7.0259 7.3837 7.0259C8.3537 7.0259 9.1237 7.8059 9.1237 8.7759C9.1237 9.7359 8.3537 10.5159 7.3837 10.5159ZM7.3837 17.7459C8.2537 17.7459 8.9737 17.0359 8.9737 16.1559C8.9737 15.2759 8.2537 14.5559 7.3837 14.5559C6.4937 14.5559 5.7737 15.2759 5.7737 16.1559C5.7737 17.0359 6.4937 17.7459 7.3837 17.7459Z"
        fillRule="evenodd"
        clipRule="evenodd"
    />
</svg>
        