
<svg
    viewBox="0 0 23.98046875 31.732421875"
    xmlns="http://www.w3.org/2000/svg"
>
    <path
        fill="inherit"
        d="M5.3637 1.7668H18.6237C18.5437 0.5968 17.8737 -0.0032 16.6137 -0.0032H7.3537C6.0937 -0.0032 5.4437 0.5968 5.3637 1.7668ZM2.9837 5.5468H20.9837C20.7837 4.3068 20.1937 3.6268 18.8237 3.6268H5.1437C3.7737 3.6268 3.1837 4.3068 2.9837 5.5468ZM4.2937 31.7368H20.0937C22.5437 31.7368 23.9837 30.3068 23.9837 27.4968V11.9868C23.9837 9.1768 22.5337 7.7568 19.6837 7.7568H4.2937C1.4337 7.7568 0.0037 9.1568 0.0037 11.9868V27.4968C0.0037 30.3068 1.4337 31.7368 4.2937 31.7368ZM11.6937 24.6868C11.2837 24.6868 10.9137 24.3368 10.9137 23.9168V20.8468C6.6737 20.4568 5.5137 16.8068 5.4737 14.7968C5.4537 14.3868 5.6737 14.1268 6.0837 14.1268C8.3137 14.1268 10.5037 15.1468 11.6037 17.2268C12.7837 14.2068 15.3437 12.3968 18.6637 12.4368C19.1837 12.4368 19.4837 12.7568 19.4837 13.2168C19.5137 17.5668 16.7437 20.5468 12.4537 20.8468V23.9168C12.4537 24.3368 12.1037 24.6868 11.6937 24.6868ZM12.6337 19.3068C15.6537 18.9368 17.6737 16.9268 17.9137 14.0168C15.1737 14.2468 13.2237 16.2168 12.6337 19.3068ZM10.8037 19.2868C10.3537 17.1468 8.7237 16.0668 7.0937 15.7868C7.4637 17.4968 8.6537 19.0068 10.8037 19.2868ZM9.4637 24.9968C9.0537 24.9968 8.6937 24.6068 8.6937 24.2268C8.6937 23.8068 9.0537 23.4568 9.4637 23.4568C9.8537 23.4568 10.2137 23.8068 10.2137 24.2268C10.2137 24.6068 9.8737 24.9968 9.4637 24.9968ZM13.9137 24.9968C13.5037 24.9968 13.1537 24.6068 13.1537 24.2268C13.1537 23.8068 13.5037 23.4568 13.9137 23.4568C14.3237 23.4568 14.6937 23.8068 14.6937 24.2268C14.6937 24.6068 14.3237 24.9968 13.9137 24.9968ZM7.3137 25.7068C6.9037 25.7068 6.5637 25.3468 6.5637 24.9368C6.5637 24.5368 6.8937 24.1568 7.3137 24.1568C7.7237 24.1568 8.0937 24.5368 8.0937 24.9368C8.0937 25.3568 7.7237 25.7068 7.3137 25.7068ZM16.0637 25.7068C15.6637 25.7068 15.2837 25.3568 15.2837 24.9368C15.2837 24.5368 15.6637 24.1568 16.0637 24.1568C16.4637 24.1568 16.8337 24.5368 16.8337 24.9368C16.8337 25.3468 16.4637 25.7068 16.0637 25.7068ZM5.4237 26.9468C5.0137 26.9468 4.6737 26.5768 4.6737 26.1668C4.6737 25.7868 5.0137 25.4168 5.4237 25.4168C5.8237 25.4168 6.2037 25.7868 6.2037 26.1668C6.2037 26.5768 5.8237 26.9468 5.4237 26.9468ZM17.9537 26.9468C17.5437 26.9468 17.1837 26.5768 17.1837 26.1668C17.1837 25.7868 17.5437 25.4168 17.9537 25.4168C18.3437 25.4168 18.7137 25.7868 18.7137 26.1668C18.7137 26.5768 18.3437 26.9468 17.9537 26.9468Z"
        fillRule="evenodd"
        clipRule="evenodd"
    />
</svg>
        