<svg viewBox="0 0 27.890625 27.890625" xmlns="http://www.w3.org/2000/svg"><path d="M13.9427 27.8927C21.6427 27.8927 27.8927 21.6427 27.8927 13.9427C27.8927 6.2627 21.6427 0.0027 13.9427 0.0027C6.2627 0.0027 0.0027 6.2627 0.0027 13.9427C0.0027 21.6427 6.2627 27.8927 13.9427 27.8927ZM7.8427 20.4127C6.3827 20.4127 5.6427 19.7127 5.6427 18.2527V9.6627C5.6427 8.2027 6.3827 7.5027 7.8427 7.5027H20.0127C21.4927 7.5027 22.2127 8.2027 22.2127 9.6627V18.2527C22.2127 19.7127 21.4927 20.4127 20.0127 20.4127ZM8.5427 12.9027C7.9427 13.2927 8.4527 14.1927 9.1227 13.7827L11.1927 12.4727C11.6227 12.1927 11.6227 11.5627 11.1927 11.2927L9.1227 9.9927C8.4527 9.5827 7.9427 10.5027 8.5427 10.8827L10.2527 11.8927ZM11.5927 13.7527C11.5927 14.0127 11.8127 14.2627 12.0727 14.2627H14.8327C15.1327 14.2627 15.3527 14.0127 15.3527 13.7527C15.3527 13.4627 15.1327 13.2527 14.8327 13.2527H12.0727C11.8127 13.2527 11.5927 13.4627 11.5927 13.7527Z" /></svg>