
<svg
    viewBox="0 0 24.28125 29.271484375"
    xmlns="http://www.w3.org/2000/svg"
>
    <path
        fill="inherit"
        d="M10.5266 29.27H16.8466C17.7866 29.27 18.3766 28.86 18.6166 27.97L19.0766 26.51C19.3366 25.59 19.7866 25.09 20.5366 24.69C22.0766 23.84 22.9166 22.29 22.9166 20.17V13.67H23.1066C23.8166 13.67 24.2766 13.19 24.2766 12.41V10.57C24.2766 9.79 23.8166 9.31 23.1066 9.31H22.9166V9.11C22.9166 6.99 22.0766 5.44 20.5366 4.58C19.7866 4.18 19.3366 3.68 19.0766 2.78L18.6166 1.3C18.3766 0.44 17.7766 0 16.8466 0H10.5266C9.6066 0 8.9966 0.42 8.7366 1.3L8.2966 2.78C8.0366 3.66 7.6066 4.2 6.8366 4.58C5.3066 5.4 4.4566 6.96 4.4566 9.11V10.98H6.4566V9.41C6.4566 7.37 7.6466 6.14 9.6366 6.14H17.7366C19.7266 6.14 20.9166 7.37 20.9166 9.41V19.88C20.9166 21.9 19.7266 23.13 17.7366 23.13H9.6366C7.6466 23.13 6.4566 21.9 6.4566 19.88V18.28H4.4566V20.17C4.4566 22.29 5.2866 23.84 6.8366 24.69C7.5866 25.09 8.0366 25.59 8.2966 26.51L8.7366 27.97C8.9966 28.85 9.6066 29.27 10.5266 29.27ZM-0.0034 14.63C-0.0034 15.22 0.4766 15.71 1.0566 15.71H10.6366L12.6866 15.63L11.8766 16.41L9.6266 18.51C9.4066 18.7 9.2966 19 9.2966 19.26C9.2966 19.84 9.6966 20.25 10.2566 20.25C10.5566 20.25 10.7766 20.14 10.9766 19.93L15.3266 15.42C15.5966 15.15 15.6866 14.9 15.6866 14.63C15.6866 14.34 15.5966 14.11 15.3266 13.84L10.9766 9.32C10.7766 9.12 10.5566 9.01 10.2566 9.01C9.6966 9.01 9.2966 9.43 9.2966 10.01C9.2966 10.27 9.4066 10.55 9.6266 10.75L11.8766 12.85L12.6866 13.63L10.6366 13.54H1.0566C0.4766 13.54 -0.0034 14.04 -0.0034 14.63Z"
        fillRule="evenodd"
        clipRule="evenodd"
    />
</svg>
        