
<svg
    viewBox={0 0 14.57421875 28.642578125}
    xmlns="http://www.w3.org/2000/svg"
>
    <path
        fill="inherit"
        d="M3.4837 28.6429H11.1037C13.1437 28.6429 14.5737 27.2029 14.5737 25.1729V3.5529C14.5737 1.3829 13.1437 0.0029 10.8537 0.0029H3.7237C1.4337 0.0029 0.0037 1.3829 0.0037 3.5529V25.1729C0.0037 27.2029 1.4537 28.6429 3.4837 28.6429ZM2.2037 3.9129C2.2037 2.8329 2.8537 2.2029 4.0037 2.2029H10.5837C11.7137 2.2029 12.3737 2.8329 12.3737 3.9129V21.8929C11.9937 21.7529 11.5537 21.6829 11.1037 21.6829H3.4837C3.0237 21.6829 2.5937 21.7629 2.2037 21.9029ZM7.3037 6.8529C8.2037 6.8529 8.9537 6.1129 8.9537 5.2129C8.9537 4.2929 8.2037 3.5529 7.3037 3.5529C6.3837 3.5529 5.6437 4.2929 5.6437 5.2129C5.6437 6.1129 6.3837 6.8529 7.3037 6.8529ZM3.4837 26.5829C2.6537 26.5829 2.0637 25.9929 2.0637 25.1729C2.0637 24.3329 2.6537 23.7529 3.4837 23.7529H11.1037C11.9337 23.7529 12.5137 24.3329 12.5137 25.1729C12.5137 25.9929 11.9337 26.5829 11.1037 26.5829Z"
        fillRule="evenodd"
        clipRule="evenodd"
    />
</svg>
        