<svg viewBox="0 0 31.15042708916367 30.5703125" xmlns="http://www.w3.org/2000/svg"><path d="M22.493 30.0898C24.743 29.0398 25.293 26.8898 25.343 24.1198C25.343 23.9398 25.343 23.7598 25.343 23.5698C25.503 23.5398 25.653 23.4998 25.803 23.4598C28.503 22.7898 30.463 21.7798 31.023 19.3598C31.583 16.9498 30.253 15.1498 28.123 13.4098C28.003 13.2998 27.863 13.1898 27.723 13.0798C27.813 12.9098 27.903 12.7298 27.973 12.5498C29.123 10.0798 29.543 7.8898 28.013 5.9498C26.443 4.0098 24.223 3.9398 21.533 4.4998C21.353 4.5398 21.163 4.5798 20.983 4.6198C20.903 4.4598 20.823 4.2898 20.743 4.1298C19.483 1.6798 18.063 -0.0002 15.573 -0.0002C13.093 -0.0002 11.663 1.6798 10.423 4.1298C10.333 4.2898 10.253 4.4598 10.173 4.6198C9.993 4.5798 9.803 4.5398 9.623 4.4998C6.923 3.9198 4.693 4.0098 3.143 5.9498C1.603 7.8898 2.023 10.0798 3.173 12.5498C3.253 12.7298 3.333 12.9098 3.423 13.0998C3.293 13.1898 3.163 13.2998 3.033 13.4098C0.903 15.1498 -0.427 16.9498 0.123 19.3598C0.683 21.7798 2.643 22.7898 5.323 23.4598C5.483 23.4998 5.633 23.5398 5.793 23.5798C5.793 23.7598 5.793 23.9398 5.793 24.1198C5.853 26.8898 6.403 29.0398 8.653 30.0898C9.323 30.4198 9.983 30.5698 10.623 30.5698C12.113 30.5698 13.563 29.7798 15.083 28.5998C15.243 28.4798 15.393 28.3598 15.563 28.2298C15.723 28.3698 15.883 28.4898 16.053 28.6198C17.573 29.7798 19.013 30.5698 20.513 30.5698C21.163 30.5698 21.823 30.4198 22.493 30.0898ZM12.383 5.1098C13.143 3.6198 13.893 2.1998 15.573 2.1998C17.263 2.1998 18.003 3.6198 18.763 5.1098L18.773 5.1398C17.733 5.3598 16.653 5.5398 15.573 5.5398C14.493 5.5398 13.413 5.3598 12.373 5.1398C12.383 5.1098 12.383 5.1098 12.383 5.1098ZM23.583 9.3898C22.913 8.5598 22.413 7.6198 21.943 6.6598C22.023 6.6398 22.023 6.6398 22.023 6.6398C23.653 6.2998 25.223 6.0198 26.273 7.3298C27.333 8.6298 26.643 10.0998 25.993 11.5898C25.963 11.6798 25.953 11.6798 25.953 11.6898C25.103 10.9898 24.283 10.2498 23.583 9.3898ZM5.153 11.5898C4.503 10.0998 3.813 8.6298 4.853 7.3298C5.923 6.0198 7.493 6.3198 9.123 6.6398C9.183 6.6598 9.203 6.6598 9.203 6.6598C8.733 7.6198 8.213 8.5498 7.543 9.3898C6.863 10.2498 6.043 10.9898 5.193 11.6898C5.153 11.5898 5.153 11.5898 5.153 11.5898ZM12.083 23.1298C10.783 22.4998 9.363 22.1298 8.003 21.8198C8.003 20.4298 7.943 18.9798 7.643 17.5998C7.333 16.2698 6.763 14.9698 6.163 13.7098C7.273 12.8198 8.383 11.8698 9.253 10.7698C10.143 9.6798 10.783 8.4198 11.393 7.1598C12.743 7.4798 14.163 7.7398 15.573 7.7398C16.963 7.7398 18.393 7.4798 19.743 7.1598C20.343 8.4098 21.003 9.6798 21.873 10.7698C22.763 11.8798 23.873 12.8398 24.983 13.7098C24.373 14.9698 23.803 16.2798 23.513 17.6098C23.203 18.9898 23.163 20.4298 23.143 21.8198C21.793 22.1298 20.343 22.5198 19.063 23.1298C17.843 23.7198 16.663 24.5798 15.573 25.4298C14.463 24.5798 13.303 23.7198 12.083 23.1298ZM2.273 18.8698C1.903 17.2298 3.143 16.1898 4.403 15.1198C4.853 16.0798 5.263 17.0798 5.493 18.0998C5.733 19.1498 5.793 20.2498 5.793 21.3098C4.223 20.9198 2.653 20.5198 2.273 18.8698ZM25.653 18.0898C25.883 17.0798 26.293 16.0798 26.733 15.1198C28.013 16.1898 29.243 17.2298 28.873 18.8698C28.503 20.5098 26.943 20.9198 25.343 21.3098C25.343 20.2498 25.413 19.1498 25.653 18.0898ZM21.543 28.1398C20.013 28.8498 18.733 27.8598 17.423 26.8798C17.363 26.8398 17.353 26.8198 17.353 26.8198C18.193 26.1798 19.083 25.5698 20.033 25.0998C21.023 24.6198 22.093 24.3198 23.143 24.0598V24.0998C23.103 25.7598 23.063 27.3998 21.543 28.1398ZM9.593 28.1398C8.093 27.3998 8.043 25.7598 8.003 24.0998V24.0598C9.053 24.3198 10.113 24.6198 11.113 25.0998C12.063 25.5698 12.943 26.1798 13.793 26.8198C13.763 26.8498 13.743 26.8698 13.723 26.8898C12.413 27.8598 11.113 28.8498 9.593 28.1398Z" /></svg>