
<svg
    viewBox="0 0 14.57421875 28.669921875"
    xmlns="http://www.w3.org/2000/svg"
>
    <path
        fill="inherit"
        d="M2.5837 21.6402H11.9937C12.9437 21.6402 13.8537 21.9402 14.5737 22.4802V3.5502C14.5737 1.3802 13.1437 0.0002 10.8537 0.0002H3.7237C1.4337 0.0002 0.0037 1.3802 0.0037 3.5502V22.4802C0.7237 21.9402 1.6237 21.6402 2.5837 21.6402ZM7.3037 6.3002C6.3837 6.3002 5.6437 5.5602 5.6437 4.6602C5.6437 3.7502 6.3837 3.0102 7.3037 3.0102C8.2037 3.0102 8.9537 3.7502 8.9537 4.6602C8.9537 5.5602 8.2037 6.3002 7.3037 6.3002ZM2.5837 28.6702H11.9937C13.4137 28.6702 14.5737 27.5102 14.5737 26.0902C14.5737 24.6602 13.4137 23.5002 11.9937 23.5002H2.5837C1.1637 23.5002 0.0037 24.6602 0.0037 26.0902C0.0037 27.5102 1.1637 28.6702 2.5837 28.6702Z"
        fillRule="evenodd"
        clipRule="evenodd"
    />
</svg>
        