
<svg
    viewBox="0 0 13.20703125 30.201171875"
    xmlns="http://www.w3.org/2000/svg"
>
    <path
        fill="inherit"
        d="M0.0037 27.2459C0.0037 29.0559 1.2037 30.2059 3.1137 30.2059H10.0937C11.9937 30.2059 13.2037 29.0559 13.2037 27.2459V2.9559C13.2037 1.1659 11.9937 -0.0041 10.0937 -0.0041H3.1137C1.2037 -0.0041 0.0037 1.1659 0.0037 2.9559ZM6.6037 12.0459C4.1737 12.0459 2.1437 10.0459 2.1437 7.5859C2.1437 5.1259 4.1737 3.1259 6.6037 3.1259C9.0537 3.1259 11.0637 5.1259 11.0637 7.5859C11.0637 10.0459 9.0537 12.0459 6.6037 12.0459ZM6.6137 9.3759C7.6137 9.3759 8.4237 8.5859 8.4237 7.5859C8.4237 6.5859 7.6137 5.7859 6.6137 5.7859C5.6237 5.7859 4.8037 6.5859 4.8037 7.5859C4.8037 8.5859 5.6237 9.3759 6.6137 9.3759ZM4.1337 17.1859C3.1837 17.1859 2.4237 16.4159 2.4237 15.4859C2.4237 14.5459 3.1837 13.7959 4.1337 13.7959C5.0737 13.7959 5.8137 14.5459 5.8137 15.4859C5.8137 16.4159 5.0737 17.1859 4.1337 17.1859ZM9.1037 17.1859C8.1437 17.1859 7.3937 16.4159 7.3937 15.4859C7.3937 14.5459 8.1437 13.7959 9.1037 13.7959C10.0337 13.7959 10.7837 14.5459 10.7837 15.4859C10.7837 16.4159 10.0337 17.1859 9.1037 17.1859Z"
        fillRule="evenodd"
        clipRule="evenodd"
    />
</svg>
        