
<svg
    viewBox={0 0 13.26171875 30.201171875}
    xmlns="http://www.w3.org/2000/svg"
>
    <path
        fill="inherit"
        d="M3.2137 30.1985H10.0537C12.0737 30.1985 13.2637 29.0085 13.2637 26.9885V3.2085C13.2637 1.1885 12.0737 -0.0015 10.0537 -0.0015H3.2137C1.1937 -0.0015 0.0037 1.1885 0.0037 3.2085V26.9885C0.0037 29.0085 1.1937 30.1985 3.2137 30.1985ZM4.1937 11.8085C3.2137 11.8085 2.4437 11.0185 2.4437 10.0585C2.4437 9.0885 3.2137 8.3085 4.1937 8.3085C5.1537 8.3085 5.9337 9.0885 5.9337 10.0585C5.9337 11.0185 5.1537 11.8085 4.1937 11.8085ZM9.0337 11.8085C8.0637 11.8085 7.2837 11.0185 7.2837 10.0585C7.2837 9.0885 8.0637 8.3085 9.0337 8.3085C10.0037 8.3085 10.7837 9.0885 10.7837 10.0585C10.7837 11.0185 10.0037 11.8085 9.0337 11.8085ZM4.1937 16.8585C3.2137 16.8585 2.4437 16.0685 2.4437 15.1085C2.4437 14.1385 3.2137 13.3585 4.1937 13.3585C5.1537 13.3585 5.9337 14.1385 5.9337 15.1085C5.9337 16.0685 5.1537 16.8585 4.1937 16.8585ZM9.0237 21.8885C8.1037 21.8885 7.3837 21.1685 7.3837 20.2185V15.0285C7.3837 14.0985 8.1037 13.3585 9.0237 13.3585C9.9537 13.3585 10.7237 14.0985 10.7237 15.0285V20.2185C10.7237 21.1685 9.9537 21.8885 9.0237 21.8885ZM4.1937 21.8885C3.2137 21.8885 2.4437 21.1185 2.4437 20.1385C2.4437 19.1785 3.2137 18.3885 4.1937 18.3885C5.1537 18.3885 5.9337 19.1785 5.9337 20.1385C5.9337 21.1185 5.1537 21.8885 4.1937 21.8885Z"
        fillRule="evenodd"
        clipRule="evenodd"
    />
</svg>
        