<svg viewBox="0 0 28.7109375 27.890625" xmlns="http://www.w3.org/2000/svg"><path d="M13.3427 27.8864C21.6727 27.8864 28.7127 21.2064 28.7127 12.3564C28.7127 5.3964 23.3427 -0.0036 16.2127 -0.0036C8.1027 -0.0036 0.0027 6.8264 0.0027 15.4064C0.0027 22.7264 5.5127 27.8864 13.3427 27.8864ZM10.1127 12.7664C9.9127 12.7664 9.7727 12.6564 9.7327 12.4564C9.4627 10.4064 9.1327 10.0664 7.1127 9.7864C6.8727 9.7664 6.7527 9.6064 6.7527 9.4164C6.7527 9.2164 6.8727 9.0764 7.1127 9.0464C9.1327 8.7764 9.4627 8.4364 9.7327 6.3964C9.7727 6.1764 9.9127 6.0564 10.1127 6.0564C10.3127 6.0564 10.4627 6.1764 10.4827 6.3964C10.7627 8.4364 11.0927 8.7764 13.1127 9.0464C13.3427 9.0764 13.4627 9.2164 13.4627 9.4164C13.4627 9.6064 13.3427 9.7664 13.1127 9.7864C11.0927 10.0664 10.7627 10.4064 10.4827 12.4564C10.4627 12.6564 10.3127 12.7664 10.1127 12.7664ZM16.2927 22.2764C15.9827 22.2764 15.7927 22.0764 15.7327 21.7764C15.1527 17.4564 14.4327 16.7364 10.1127 16.1464C9.8127 16.0964 9.6127 15.8964 9.6127 15.5864C9.6127 15.2764 9.8127 15.0764 10.1127 15.0264C14.4327 14.4364 15.1527 13.7264 15.7327 9.4064C15.7927 9.1064 15.9827 8.8964 16.2927 8.8964C16.6127 8.8964 16.8027 9.1064 16.8727 9.4064C17.4427 13.7264 18.1727 14.4364 22.4927 15.0264C22.7927 15.0764 22.9927 15.2764 22.9927 15.5864C22.9927 15.8964 22.7927 16.0964 22.4927 16.1464C18.1727 16.7364 17.4427 17.4564 16.8727 21.7764C16.8027 22.0764 16.6127 22.2764 16.2927 22.2764Z" /></svg>