
<svg
    viewBox={0 0 27.0703125 25.991956851606076}
    xmlns="http://www.w3.org/2000/svg"
>
    <path
        fill="inherit"
        d="M7.4909 17.4291L9.5309 19.4691L10.3409 19.0491L26.5809 2.8991C27.2309 2.2291 27.2309 1.1491 26.5809 0.4891C25.9109 -0.1609 24.8309 -0.1609 24.1709 0.4791L7.9309 16.6491ZM5.7509 20.5791C5.5509 20.9791 5.9709 21.3291 6.3009 21.1491L8.3409 20.0891L6.8609 18.5991ZM3.9009 25.9891C6.0309 25.9891 7.7609 25.3191 7.7609 24.4791C7.7609 23.6391 6.0309 22.9691 3.9009 22.9691C1.7409 22.9691 0.0009 23.6391 0.0009 24.4791C0.0009 25.3191 1.7409 25.9891 3.9009 25.9891Z"
        fillRule="evenodd"
        clipRule="evenodd"
    />
</svg>
        