
<svg
    viewBox={0 0 27.890625 27.890625}
    xmlns="http://www.w3.org/2000/svg"
>
    <path
        fill="inherit"
        d="M13.9427 27.8864C21.6427 27.8864 27.8927 21.6464 27.8927 13.9464C27.8927 6.2464 21.6427 -0.0036 13.9427 -0.0036C6.2527 -0.0036 0.0027 6.2464 0.0027 13.9464C0.0027 21.6464 6.2527 27.8864 13.9427 27.8864ZM13.9427 25.5664C7.5227 25.5664 2.3227 20.3664 2.3227 13.9464C2.3227 7.5164 7.5227 2.3264 13.9427 2.3264C20.3727 2.3264 25.5627 7.5164 25.5627 13.9464C25.5627 20.3664 20.3727 25.5664 13.9427 25.5664ZM13.6427 18.6764C14.0427 18.6764 14.3827 18.3364 14.3827 17.9264V14.9464C18.5427 14.6564 21.2327 11.7764 21.1927 7.5464C21.1927 7.0964 20.9027 6.7964 20.4027 6.7964C17.1727 6.7564 14.6927 8.5064 13.5527 11.4464C12.4827 9.4164 10.3627 8.4264 8.2027 8.4264C7.8027 8.4264 7.5927 8.6864 7.5927 9.0764C7.6427 11.0164 8.7627 14.5564 12.8927 14.9464V17.9264C12.8927 18.3364 13.2527 18.6764 13.6427 18.6764ZM14.5427 13.4564C15.1227 10.4464 17.0227 8.5264 19.6727 8.3164C19.4527 11.1464 17.4827 13.0964 14.5427 13.4564ZM12.7827 13.4364C10.6927 13.1664 9.5327 11.6864 9.1727 10.0364C10.7627 10.2964 12.3327 11.3464 12.7827 13.4364ZM11.4727 18.9664C11.8827 18.9664 12.2127 18.5964 12.2127 18.2264C12.2127 17.8164 11.8627 17.4864 11.4727 17.4864C11.0727 17.4864 10.7327 17.8164 10.7327 18.2264C10.7327 18.5964 11.0727 18.9664 11.4727 18.9664ZM15.8027 18.9664C16.2027 18.9664 16.5427 18.5964 16.5427 18.2264C16.5427 17.8164 16.2027 17.4864 15.8027 17.4864C15.4127 17.4864 15.0627 17.8164 15.0627 18.2264C15.0627 18.5964 15.4127 18.9664 15.8027 18.9664ZM9.3927 19.6564C9.7927 19.6564 10.1427 19.3364 10.1427 18.9264C10.1427 18.5364 9.7927 18.1664 9.3927 18.1664C8.9827 18.1664 8.6527 18.5364 8.6527 18.9264C8.6527 19.3164 8.9927 19.6564 9.3927 19.6564ZM17.8727 19.6564C18.2627 19.6564 18.6227 19.3164 18.6227 18.9264C18.6227 18.5364 18.2627 18.1664 17.8727 18.1664C17.4827 18.1664 17.1327 18.5364 17.1327 18.9264C17.1327 19.3364 17.4827 19.6564 17.8727 19.6564ZM7.5727 20.8664C7.9527 20.8664 8.3227 20.5064 8.3227 20.1064C8.3227 19.7464 7.9527 19.3864 7.5727 19.3864C7.1627 19.3864 6.8227 19.7464 6.8227 20.1064C6.8227 20.5064 7.1627 20.8664 7.5727 20.8664ZM19.7127 20.8664C20.0927 20.8664 20.4427 20.5064 20.4427 20.1064C20.4427 19.7464 20.0927 19.3864 19.7127 19.3864C19.3227 19.3864 18.9727 19.7464 18.9727 20.1064C18.9727 20.5064 19.3227 20.8664 19.7127 20.8664Z"
        fillRule="evenodd"
        clipRule="evenodd"
    />
</svg>
        