<svg viewBox="0 0 34.47925197674338 24.38837806729198" xmlns="http://www.w3.org/2000/svg"><path d="M15.0231 17.3356L17.0631 19.3756L17.8731 18.9456L33.9731 2.8956C34.6431 2.2356 34.6431 1.1556 33.9731 0.5056C33.3031 -0.1644 32.2231 -0.1644 31.5731 0.4856L15.4631 16.5456ZM0.2331 17.6056C-0.7269 19.9456 1.4331 21.0556 3.2931 19.7156C4.3231 18.9656 5.3431 18.1956 6.3731 17.4456C5.6531 18.7256 5.3331 19.8756 5.3331 20.8356C5.3331 23.8956 8.4531 25.3356 11.6731 23.7156C12.5231 23.2956 12.2231 21.2556 10.6531 21.9556C8.6031 22.8556 7.2731 22.4056 7.2731 20.7356C7.2731 19.1756 8.4231 16.5456 11.0031 13.1256C11.8331 12.0456 10.5131 10.6456 9.3831 11.8556C7.4231 13.8156 4.8131 15.8056 2.4231 17.7556L8.1531 3.7856C8.5631 2.7756 6.7131 1.8256 6.1231 3.2356ZM13.2931 20.4656C13.0831 20.8656 13.5131 21.2156 13.8531 21.0356L15.8931 19.9756L14.4031 18.4856Z" /></svg>