
<svg
    viewBox={0 0 21.743442881125137 33.619140625}
    xmlns="http://www.w3.org/2000/svg"
>
    <path
        fill="inherit"
        d="M3.1837 10.1875C5.8237 10.1875 7.7237 12.0275 7.7237 14.4075C7.7237 14.4675 7.7237 14.5875 7.7137 14.6675C7.6937 15.1475 8.2037 15.2075 8.4037 14.9975L16.3137 7.0975C17.1137 6.2875 17.5537 5.2775 17.5637 4.1975C17.5637 1.6675 15.6237 -0.0025 13.5337 -0.0025C11.9037 -0.0025 10.7037 0.7475 9.4337 2.0275L0.5237 10.9275C1.3237 10.4575 2.2237 10.1875 3.1837 10.1875ZM20.1937 23.2975C22.3937 21.0775 22.2537 18.4875 19.7437 15.9775L14.8937 11.1175L7.8437 18.1875C6.9337 19.0875 5.5937 18.3375 5.9737 17.1075C6.1637 16.5675 6.1937 15.9975 6.1937 15.4075C6.1937 13.1975 4.7437 12.0575 3.1837 12.0575C1.0937 12.0475 0.0037 13.3875 0.0037 14.8975C0.0037 15.9775 0.5637 17.0075 1.3137 17.7475L10.2537 26.6875C11.3737 27.8075 12.1437 28.8475 12.1437 30.4375C12.1437 30.7875 12.1037 31.1475 11.9037 31.5375C12.3437 31.1675 12.7137 30.8175 13.0737 30.4575ZM7.2337 33.6175C8.9137 33.6175 10.2437 32.3075 10.2437 30.6675C10.2437 29.6375 9.7937 28.8375 8.7137 27.7375L6.9737 25.9875C5.3037 27.1475 4.0237 28.4375 4.0237 30.5275C4.0237 32.3375 5.3737 33.6175 7.2337 33.6175Z"
        fillRule="evenodd"
        clipRule="evenodd"
    />
</svg>
        