
<svg
    viewBox={0 0 32.23828125 25.169921875}
    xmlns="http://www.w3.org/2000/svg"
>
    <path
        fill="inherit"
        d="M4.2937 25.1692H27.9437C30.8137 25.1692 32.2337 23.7592 32.2337 20.9492V4.2392C32.2337 1.4192 30.8137 -0.0008 27.9437 -0.0008H4.2937C1.4337 -0.0008 0.0037 1.4192 0.0037 4.2392V20.9492C0.0037 23.7592 1.4337 25.1692 4.2937 25.1692ZM4.3237 22.9692C2.9537 22.9692 2.2037 22.2392 2.2037 20.8192V4.3592C2.2037 2.9392 2.9537 2.1992 4.3237 2.1992H27.9137C29.2737 2.1992 30.0337 2.9392 30.0337 4.3592V20.8192C30.0337 22.2392 29.2737 22.9692 27.9137 22.9692ZM5.8837 10.5692C4.8137 11.2092 5.7137 12.8392 6.8937 12.0992L10.8237 9.6392C11.6037 9.1492 11.5637 7.9892 10.8237 7.5192L6.8937 5.0592C5.7137 4.3192 4.8037 5.9292 5.8837 6.5892L9.1737 8.5692ZM11.6437 12.0892C11.6437 12.5692 12.0337 12.9592 12.5237 12.9592H17.7337C18.2237 12.9592 18.6037 12.5692 18.6037 12.0892C18.6037 11.5892 18.2237 11.1992 17.7337 11.1992H12.5237C12.0337 11.1992 11.6437 11.5892 11.6437 12.0892Z"
        fillRule="evenodd"
        clipRule="evenodd"
    />
</svg>
        