
<svg
    viewBox="0 0 32.03151514990538 30.513937024905378"
    xmlns="http://www.w3.org/2000/svg"
>
    <path
        fill="inherit"
        d="M30.2327 29.3375C30.6527 29.7475 31.3227 29.7475 31.7227 29.3375C32.1327 28.9275 32.1427 28.2575 31.7227 27.8475L4.1727 0.3175C3.7627 -0.0925 3.0727 -0.1125 2.6627 0.3175C2.2727 0.7075 2.2727 1.3975 2.6627 1.8075ZM13.5627 2.1875C12.9227 2.1875 12.2927 2.2375 11.6627 2.3775C11.0627 2.2375 10.4327 2.1875 9.7927 2.1875C9.2427 2.1875 8.7127 2.2575 8.2127 2.3775L9.0527 3.2075C9.1327 3.1975 9.2327 3.2075 9.3127 3.2075C9.2727 3.2475 9.2327 3.2975 9.1827 3.3475L11.9127 6.0575C12.3827 5.6075 12.9427 5.2175 13.5527 4.9375C16.1727 6.2375 17.7227 8.9975 17.6327 11.7975L19.4027 13.5375C19.5227 13.0375 19.5927 12.5075 19.5927 11.9775C19.5927 8.8475 18.1127 6.0675 15.8327 4.3075C18.3427 5.0275 20.3527 6.9875 21.1627 9.4775C21.6027 9.1475 22.1327 8.8575 22.8227 8.7475C22.1927 6.9675 21.0527 5.4375 19.6027 4.3175C21.7427 4.9375 23.4927 6.4375 24.4627 8.3775L26.2627 7.9875C24.7327 4.5675 21.3127 2.1875 17.3227 2.1875C16.6627 2.1875 16.0527 2.2375 15.4327 2.3775C14.8327 2.2375 14.2227 2.1875 13.5627 2.1875ZM13.5627 21.7775C14.2027 21.7775 14.8327 21.7075 15.4327 21.5875C16.0527 21.7075 16.6627 21.7775 17.3227 21.7775C18.0927 21.6675 18.8527 21.5075 19.6027 21.2575L17.3527 18.9975C16.8827 19.2775 16.3827 19.4975 15.8427 19.6575C16.2527 19.3575 16.6427 18.9975 16.9627 18.6375L15.7127 17.3575C15.1027 18.0475 14.3727 18.6175 13.5527 19.0275C10.6827 17.5675 9.0527 14.4675 9.4427 11.0975L7.8727 9.5275C7.6427 10.2975 7.5027 11.1175 7.5027 11.9775C7.5027 15.0875 8.9827 17.8675 11.2527 19.6475C7.9427 18.6475 5.5627 15.5975 5.5627 11.9775C5.5627 10.5975 5.9227 9.3075 6.5327 8.1875L5.2127 6.8775C4.2927 8.3375 3.7627 10.0875 3.7627 11.9775C3.7627 15.1075 5.2227 17.8775 7.5027 19.6575C4.1927 18.6775 1.7727 15.6075 1.7727 11.9775C1.7727 9.6275 2.7927 7.5175 4.3927 6.0575L3.1327 4.7975C1.1927 6.5775 0.0027 9.1275 0.0027 11.9775C0.0027 17.4075 4.3727 21.7775 9.7927 21.7775C10.4327 21.7775 11.0627 21.7075 11.6727 21.5875C12.2927 21.7075 12.9227 21.7775 13.5627 21.7775ZM21.9027 16.0475L23.7527 17.8775L23.7627 17.5575C23.8327 17.2975 23.9927 17.1875 24.3727 17.0975L30.1227 15.8475C30.5727 15.7375 30.8427 15.4075 30.8427 14.9875V10.2375C30.8427 9.5675 30.2827 9.1075 29.6227 9.2375L23.1727 10.6475C22.3527 10.8275 21.8927 11.2775 21.8927 11.9975ZM19.0427 30.5175C20.8227 30.5175 23.5027 29.2275 23.6627 25.8975L23.6827 25.3275L21.2627 22.9075C20.8127 23.0675 20.3327 23.2175 19.8427 23.3075L19.1727 23.4575C16.6227 24.0075 15.4327 25.2775 15.4327 27.2075C15.4327 29.1375 16.9427 30.5175 19.0427 30.5175Z"
        fillRule="evenodd"
        clipRule="evenodd"
    />
</svg>
        