
<svg
    viewBox="0 0 27.890625 27.890625"
    xmlns="http://www.w3.org/2000/svg"
>
    <path
        fill="inherit"
        d="M13.9427 27.8864C21.6427 27.8864 27.8927 21.6264 27.8927 13.9464C27.8927 6.2464 21.6427 -0.0036 13.9427 -0.0036C6.2627 -0.0036 0.0027 6.2464 0.0027 13.9464C0.0027 21.6264 6.2627 27.8864 13.9427 27.8864ZM13.6427 18.8264C13.2327 18.8264 12.8627 18.4664 12.8627 18.0464V14.9864C8.6127 14.5864 7.4627 10.9364 7.4127 8.9264C7.4127 8.5164 7.6327 8.2564 8.0427 8.2564C10.2627 8.2564 12.4527 9.2864 13.5527 11.3564C14.7427 8.3364 17.2827 6.5364 20.6027 6.5764C21.1327 6.5764 21.4227 6.8864 21.4227 7.3564C21.4627 11.7064 18.6927 14.6864 14.4127 14.9864V18.0464C14.4127 18.4664 14.0527 18.8264 13.6427 18.8264ZM14.5927 13.4364C17.6127 13.0664 19.6327 11.0564 19.8527 8.1464C17.1327 8.3764 15.1727 10.3464 14.5927 13.4364ZM12.7527 13.4264C12.2927 11.2764 10.6827 10.1964 9.0527 9.9264C9.4227 11.6364 10.6127 13.1364 12.7527 13.4264ZM11.4027 19.1264C10.9927 19.1264 10.6527 18.7464 10.6527 18.3564C10.6527 17.9364 10.9927 17.5964 11.4027 17.5964C11.8127 17.5964 12.1727 17.9364 12.1727 18.3564C12.1727 18.7464 11.8227 19.1264 11.4027 19.1264ZM15.8727 19.1264C15.4627 19.1264 15.1027 18.7464 15.1027 18.3564C15.1027 17.9364 15.4627 17.5964 15.8727 17.5964C16.2827 17.5964 16.6427 17.9364 16.6427 18.3564C16.6427 18.7464 16.2827 19.1264 15.8727 19.1264ZM9.2727 19.8364C8.8627 19.8364 8.5027 19.4864 8.5027 19.0764C8.5027 18.6764 8.8427 18.2964 9.2727 18.2964C9.6827 18.2964 10.0527 18.6764 10.0527 19.0764C10.0527 19.4964 9.6827 19.8364 9.2727 19.8364ZM18.0027 19.8364C17.6127 19.8364 17.2427 19.4964 17.2427 19.0764C17.2427 18.6764 17.6127 18.2964 18.0027 18.2964C18.4127 18.2964 18.7827 18.6764 18.7827 19.0764C18.7827 19.4864 18.4127 19.8364 18.0027 19.8364ZM7.3827 21.0864C6.9627 21.0864 6.6127 20.7164 6.6127 20.3064C6.6127 19.9164 6.9627 19.5464 7.3827 19.5464C7.7827 19.5464 8.1627 19.9164 8.1627 20.3064C8.1627 20.7164 7.7827 21.0864 7.3827 21.0864ZM19.9027 21.0864C19.4927 21.0864 19.1427 20.7164 19.1427 20.3064C19.1427 19.9164 19.4927 19.5464 19.9027 19.5464C20.3027 19.5464 20.6627 19.9164 20.6627 20.3064C20.6627 20.7164 20.3027 21.0864 19.9027 21.0864Z"
        fillRule="evenodd"
        clipRule="evenodd"
    />
</svg>
        