<svg viewBox="0 0 23.66517170928275 33.93462258448789" xmlns="http://www.w3.org/2000/svg"><path d="M0.0046 14.6316C-0.0254 16.0616 0.5646 17.3816 1.6846 18.5016L7.6046 24.4316C5.2646 25.9916 4.3046 27.4516 4.3046 29.3716C4.3046 32.1816 6.5646 33.8916 8.9446 33.9316C10.3046 33.9616 11.5546 33.4416 12.3846 32.5916L22.0846 22.8716C24.3346 20.6216 24.1746 17.9416 21.6546 15.4316L16.2046 9.9816L18.0746 8.0916C19.0046 7.1616 19.5546 5.9616 19.5346 4.7716C19.5746 2.0916 17.5146 0.0116 14.8046 0.0016C13.2946 0.0016 12.1146 0.5516 10.8146 1.8716L1.4046 11.2516C0.5046 12.1416 0.0146 13.3316 0.0046 14.6316ZM5.6446 10.1316L12.3646 3.4216C13.2646 2.5116 13.8746 2.2016 14.8046 2.2016C16.2946 2.2016 17.3646 3.2716 17.3646 4.7416C17.3646 5.3616 17.0546 6.0116 16.5346 6.5516L9.2746 13.7916C9.0346 11.8116 7.7146 10.4616 5.6446 10.1316ZM2.2846 14.8216C2.2846 13.2316 3.2546 12.1716 4.7046 12.1716C6.2046 12.1716 7.2446 13.2616 7.2446 14.9116C7.2446 15.1116 7.2446 15.6816 7.0046 16.3416C6.6146 17.4816 8.0146 18.1816 8.8446 17.3216L14.6446 11.5416L20.1146 16.9816C21.7846 18.6516 21.8946 19.9616 20.5346 21.3316L13.4946 28.3716C13.2946 27.2316 12.6246 26.3616 11.2346 24.9816L3.7346 17.4316C2.6246 16.3216 2.2846 15.6816 2.2846 14.8216ZM6.5046 29.4916C6.5046 28.1816 7.2746 27.2116 9.2046 26.0316L9.6946 26.5216C11.0746 27.9216 11.4546 28.5316 11.4746 29.4916C11.4746 30.7216 10.3546 31.7216 8.9446 31.7216C7.6746 31.7216 6.5046 30.8116 6.5046 29.4916Z" /></svg>