<svg viewBox="0 0 13.7265625 30.201171875" xmlns="http://www.w3.org/2000/svg"><path d="M0.0037 27.2459C0.0037 29.0559 1.2037 30.2059 3.1137 30.2059H10.6137C12.5137 30.2059 13.7237 29.0559 13.7237 27.2459V2.9559C13.7237 1.1659 12.5137 -0.0041 10.6137 -0.0041H3.1137C1.2037 -0.0041 0.0037 1.1659 0.0037 2.9559ZM2.0237 26.9659V3.2359C2.0237 2.4759 2.5337 1.9959 3.3537 1.9959H10.3737C11.1937 1.9959 11.7037 2.4759 11.7037 3.2359V26.9659C11.7037 27.7259 11.1937 28.2059 10.3737 28.2059H3.3537C2.5337 28.2059 2.0237 27.7259 2.0237 26.9659ZM6.8637 11.3059C8.9737 11.3059 10.6637 9.6159 10.6637 7.5059C10.6637 5.3959 8.9737 3.7059 6.8637 3.7059C4.7737 3.7059 3.0637 5.3959 3.0637 7.5059C3.0637 9.6159 4.7737 11.3059 6.8637 11.3059ZM6.8737 9.0359C6.0337 9.0359 5.3337 8.3559 5.3337 7.5059C5.3337 6.6559 6.0337 5.9759 6.8737 5.9759C7.7237 5.9759 8.4037 6.6559 8.4037 7.5059C8.4037 8.3559 7.7237 9.0359 6.8737 9.0359ZM4.6737 16.2159C5.5537 16.2159 6.2637 15.4859 6.2637 14.6159C6.2637 13.7359 5.5537 13.0159 4.6737 13.0159C3.7837 13.0159 3.0637 13.7359 3.0637 14.6159C3.0637 15.4859 3.7837 16.2159 4.6737 16.2159ZM9.0737 16.2159C9.9537 16.2159 10.6637 15.4859 10.6637 14.6159C10.6637 13.7359 9.9537 13.0159 9.0737 13.0159C8.1937 13.0159 7.4637 13.7359 7.4637 14.6159C7.4637 15.4859 8.1937 16.2159 9.0737 16.2159Z" /></svg>