
<svg
    viewBox="0 0 27.302734375 27.193359375"
    xmlns="http://www.w3.org/2000/svg"
>
    <path
        fill="inherit"
        d="M7.2837 27.1973H20.0037C22.3437 27.1973 24.3037 26.9773 25.7037 25.5773C27.0937 24.1873 27.3037 22.2273 27.3037 19.8973V7.2873C27.3037 4.9473 27.0937 3.0073 25.7037 1.6173C24.3037 0.2173 22.3437 -0.0027 20.0037 -0.0027H7.2637C4.9637 -0.0027 2.9937 0.2173 1.6037 1.6173C0.2037 3.0073 0.0037 4.9673 0.0037 7.2573V19.8973C0.0037 22.2273 0.2037 24.1873 1.6037 25.5773C2.9937 26.9773 4.9637 27.1973 7.2837 27.1973ZM7.3137 10.5173C7.2837 9.4473 8.1337 8.4373 9.2737 8.3773C9.3537 9.3973 8.4637 10.6373 7.3137 10.5173ZM15.0637 9.0773V10.7473H16.4237V11.8673H15.0637V15.7873C15.0637 16.4373 15.3437 16.6773 15.9137 16.6773C16.0637 16.6773 16.3237 16.6773 16.3937 16.6373V17.8273C16.2737 17.8373 15.9137 17.8873 15.6037 17.8873C14.1637 17.8873 13.6037 17.3773 13.6037 15.9573V11.8673H12.5937V10.7473H13.6037V9.0773ZM11.2137 15.3973C11.0037 16.1173 10.5137 16.9673 9.9137 17.5773C9.7237 17.7473 9.4437 17.8873 9.0937 17.8873C8.7637 17.8873 8.5737 17.7573 8.2837 17.6673C8.1037 17.6073 7.8437 17.4873 7.5437 17.4873C6.8537 17.4873 6.5337 17.9073 5.9637 17.9073C5.5737 17.9073 5.2637 17.6673 4.8237 17.1973C4.0237 16.2973 3.4837 14.8573 3.4837 13.6273C3.4837 12.8773 3.6737 12.1673 4.1537 11.5773C4.5537 11.0573 5.1537 10.7573 5.9037 10.7573C6.5937 10.7573 7.0037 11.1973 7.3737 11.1973C7.8037 11.1973 8.3037 10.7473 9.1637 10.7473C9.9237 10.7473 10.5637 11.0473 10.9737 11.6573C10.4337 11.9773 10.2237 12.3773 10.1137 12.6973C9.9437 13.1773 9.9137 13.7373 10.1137 14.2973C10.3237 14.8073 10.6637 15.1473 11.2137 15.3973ZM21.2037 17.8273H19.6737L17.0737 10.7473H18.6237L20.4537 16.4373L22.1737 10.7473H23.7637Z"
        fillRule="evenodd"
        clipRule="evenodd"
    />
</svg>
        