
<svg
    viewBox="0 0 11.388671875 30.201171875"
    xmlns="http://www.w3.org/2000/svg"
>
    <path
        fill="inherit"
        d="M3.2137 30.1985H8.1937C10.2137 30.1985 11.3937 29.0085 11.3937 26.9885V3.2085C11.3937 1.1885 10.2137 -0.0015 8.1937 -0.0015H3.2137C1.1737 -0.0015 0.0037 1.1885 0.0037 3.2085V26.9885C0.0037 29.0085 1.1737 30.1985 3.2137 30.1985ZM5.7037 11.4685C3.3337 11.4685 1.4337 9.5685 1.4337 7.2085C1.4337 4.8685 3.3337 2.9685 5.7037 2.9685C8.0537 2.9685 9.9637 4.8685 9.9637 7.2085C9.9637 9.5685 8.0537 11.4685 5.7037 11.4685ZM3.5937 15.6585C2.7437 15.6585 2.0637 14.9585 2.0637 14.0985C2.0637 13.2485 2.7337 12.5685 3.5937 12.5685C4.4537 12.5685 5.1437 13.2485 5.1437 14.0985C5.1437 14.9585 4.4437 15.6585 3.5937 15.6585ZM7.8237 15.6585C6.9637 15.6585 6.2637 14.9585 6.2637 14.0985C6.2637 13.2485 6.9637 12.5685 7.8237 12.5685C8.6637 12.5685 9.3337 13.2485 9.3337 14.0985C9.3337 14.9385 8.6537 15.6585 7.8237 15.6585ZM3.5937 19.7185C2.7437 19.7185 2.0637 19.0185 2.0637 18.1685C2.0637 17.3185 2.7437 16.6285 3.5937 16.6285C4.4537 16.6285 5.1437 17.3085 5.1437 18.1685C5.1437 19.0285 4.4537 19.7185 3.5937 19.7185ZM7.8037 23.7885C7.0137 23.7885 6.3537 23.1285 6.3537 22.3385V18.0885C6.3537 17.2785 7.0037 16.6285 7.8037 16.6285C8.6037 16.6285 9.2737 17.2985 9.2737 18.0885V22.3385C9.2737 23.1285 8.6037 23.7885 7.8037 23.7885ZM3.5937 23.7885C2.7437 23.7885 2.0637 23.0885 2.0637 22.2485C2.0637 21.3785 2.7437 20.6885 3.5937 20.6885C4.4437 20.6885 5.1437 21.3785 5.1437 22.2485C5.1437 23.1085 4.4537 23.7885 3.5937 23.7885Z"
        fillRule="evenodd"
        clipRule="evenodd"
    />
</svg>
        