<svg viewBox="0 0 29.544921875 26.11328125" xmlns="http://www.w3.org/2000/svg"><path d="M21.6037 0.0004H11.1837C9.1437 0.0004 7.5437 0.6404 6.5037 1.8504H13.0037C14.1137 1.7504 15.1737 1.8704 16.1437 2.2004H21.6937C24.1537 2.2004 25.6037 3.6904 25.6037 6.2104V19.9604C25.6037 22.4904 24.1537 23.9804 21.6937 23.9804H20.5737C20.2237 24.8104 19.7137 25.5404 19.0837 26.1104H21.6037C25.4437 26.1104 27.7437 23.7804 27.7437 19.8604V11.6204H28.1137C28.9837 11.6204 29.5437 11.0204 29.5437 10.0804V7.7904C29.5437 6.8204 28.9837 6.2204 28.1137 6.2204H27.7437C27.7437 2.3204 25.4437 0.0004 21.6037 0.0004ZM5.3337 26.1104H14.3737C17.6937 26.1104 19.7037 24.0804 19.7037 20.6704V13.7404H19.9237C20.7537 13.7404 21.2837 13.1704 21.2837 12.2804V10.1004C21.2837 9.1904 20.7537 8.6104 19.9237 8.6104H19.7037C19.6237 5.3704 17.6237 3.4404 14.3737 3.4404H5.3337C1.9937 3.4404 0.0037 5.4704 0.0037 8.8504V20.6704C0.0037 24.0804 1.9937 26.1104 5.3337 26.1104ZM5.2537 23.9804C3.2537 23.9804 2.1337 22.8304 2.1337 20.7504V8.8304C2.1337 6.7804 3.2537 5.6304 5.2537 5.6304H14.4537C16.4437 5.6304 17.5637 6.7804 17.5637 8.8304V20.7504C17.5637 22.8304 16.4437 23.9804 14.4537 23.9804Z" /></svg>