
<svg
    viewBox="0 0 28.95703125 17.595703125"
    xmlns="http://www.w3.org/2000/svg"
>
    <path
        fill="inherit"
        d="M3.5537 17.5958H25.3937C27.5237 17.5958 28.9537 16.0958 28.9537 13.8658V3.7158C28.9537 1.4858 27.5337 -0.0042 25.4037 -0.0042H3.5637C1.4337 -0.0042 0.0037 1.4858 0.0037 3.7158V13.8658C0.0037 16.0958 1.4237 17.5958 3.5537 17.5958ZM3.9137 15.3958C2.8137 15.3958 2.2037 14.7358 2.2037 13.5858V4.0058C2.2037 2.8558 2.8137 2.2058 3.9137 2.2058H25.0437C26.1437 2.2058 26.7537 2.8558 26.7537 4.0058V13.5858C26.7537 14.7358 26.1437 15.3958 25.0337 15.3958ZM4.6437 6.4958H5.9737C6.2637 6.4958 6.4637 6.2858 6.4637 5.9858V4.7058C6.4637 4.3858 6.2637 4.1658 5.9737 4.1658H4.6437C4.3637 4.1658 4.1537 4.3858 4.1537 4.7058V5.9858C4.1537 6.2858 4.3637 6.4958 4.6437 6.4958ZM8.3637 6.4958H9.6837C9.9637 6.4958 10.1837 6.2858 10.1837 5.9858V4.7058C10.1837 4.3858 9.9837 4.1658 9.6837 4.1658H8.3637C8.0637 4.1658 7.8637 4.3858 7.8637 4.7058V5.9858C7.8637 6.2858 8.0637 6.4958 8.3637 6.4958ZM12.0737 6.4958H13.3837C13.6837 6.4958 13.8937 6.2858 13.8937 5.9858V4.7058C13.8937 4.3858 13.6837 4.1658 13.3837 4.1658H12.0737C11.7737 4.1658 11.5637 4.3858 11.5637 4.7058V5.9858C11.5637 6.2858 11.7737 6.4958 12.0737 6.4958ZM15.7737 6.4958H17.1037C17.3937 6.4958 17.5937 6.2858 17.5937 5.9858V4.7058C17.5937 4.3858 17.3937 4.1658 17.1037 4.1658H15.7737C15.4937 4.1658 15.2837 4.3858 15.2837 4.7058V5.9858C15.2837 6.2858 15.4937 6.4958 15.7737 6.4958ZM23.0737 6.4958H24.3937C24.6937 6.4958 24.8937 6.2858 24.8937 5.9858V4.7058C24.8937 4.3858 24.6937 4.1658 24.4037 4.1658H23.0737C22.7937 4.1658 22.5837 4.3858 22.5837 4.7058V5.9858C22.5837 6.2858 22.7737 6.4958 23.0737 6.4958ZM4.6437 9.9658H5.9737C6.2637 9.9658 6.4637 9.7658 6.4637 9.4658V8.1758C6.4637 7.8658 6.2637 7.6458 5.9737 7.6458H4.6437C4.3637 7.6458 4.1537 7.8658 4.1537 8.1758V9.4658C4.1537 9.7658 4.3637 9.9658 4.6437 9.9658ZM8.3637 9.9658H9.6837C9.9637 9.9658 10.1837 9.7658 10.1837 9.4658V8.1758C10.1837 7.8658 9.9837 7.6458 9.6837 7.6458H8.3637C8.0637 7.6458 7.8637 7.8658 7.8637 8.1758V9.4658C7.8637 9.7658 8.0637 9.9658 8.3637 9.9658ZM12.0837 9.9658H13.3837C13.7037 9.9658 13.9037 9.7658 13.9037 9.4658V8.1758C13.9037 7.8658 13.7037 7.6458 13.3837 7.6458H12.0837C11.7737 7.6458 11.5637 7.8658 11.5637 8.1758V9.4658C11.5637 9.7658 11.7737 9.9658 12.0837 9.9658ZM23.0737 9.9658H24.4037C24.6937 9.9658 24.8937 9.7658 24.8937 9.4658V8.1758C24.8937 7.8658 24.6937 7.6458 24.4037 7.6458H23.0737C22.7937 7.6458 22.5837 7.8658 22.5837 8.1758V9.4658C22.5837 9.7658 22.7937 9.9658 23.0737 9.9658ZM23.0737 13.4258H24.3937C24.6937 13.4258 24.8937 13.2158 24.8937 12.9358V11.6458C24.8937 11.3358 24.6937 11.1158 24.4037 11.1158H23.0737C22.7937 11.1158 22.5837 11.3358 22.5837 11.6458V12.9358C22.5837 13.2158 22.7937 13.4258 23.0737 13.4258Z"
        fillRule="evenodd"
        clipRule="evenodd"
    />
</svg>
        