
<svg
    viewBox="0 0 17.568359375 28.943359375"
    xmlns="http://www.w3.org/2000/svg"
>
    <path
        fill="inherit"
        d="M0.0037 25.3896C0.0037 27.5196 1.4937 28.9396 3.7237 28.9396H13.8537C16.0737 28.9396 17.5637 27.5196 17.5637 25.3896V3.5596C17.5637 1.4196 16.0737 -0.0004 13.8537 -0.0004H3.7237C1.4937 -0.0004 0.0037 1.4196 0.0037 3.5596ZM2.2037 25.0296V3.9096C2.2037 2.8196 2.8437 2.1996 4.0037 2.1996H13.5737C14.7237 2.1996 15.3637 2.8196 15.3637 3.9096V25.0296C15.3637 26.1296 14.7237 26.7396 13.5737 26.7396H4.0037C2.8437 26.7396 2.2037 26.1296 2.2037 25.0296ZM4.6637 6.4696H5.9437C6.2437 6.4696 6.4837 6.2596 6.4837 5.9596V4.6496C6.4837 4.3496 6.2437 4.1396 5.9437 4.1396H4.6637C4.3637 4.1396 4.1537 4.3496 4.1537 4.6496V5.9596C4.1537 6.2596 4.3637 6.4696 4.6637 6.4696ZM8.1237 6.4696H9.4237C9.7237 6.4696 9.9537 6.2596 9.9537 5.9596V4.6496C9.9537 4.3496 9.7237 4.1396 9.4237 4.1396H8.1237C7.8337 4.1396 7.6337 4.3496 7.6337 4.6496V5.9596C7.6337 6.2596 7.8337 6.4696 8.1237 6.4696ZM11.5937 6.4696H12.8837C13.1937 6.4696 13.4137 6.2596 13.4137 5.9596V4.6496C13.4137 4.3496 13.1937 4.1396 12.8837 4.1396H11.5937C11.3037 4.1396 11.1037 4.3496 11.1037 4.6496V5.9596C11.1037 6.2596 11.3037 6.4696 11.5937 6.4696ZM4.6637 10.1696H5.9437C6.2437 10.1696 6.4837 9.9696 6.4837 9.6796V8.3496C6.4837 8.0496 6.2437 7.8496 5.9437 7.8496H4.6637C4.3637 7.8496 4.1537 8.0496 4.1537 8.3496V9.6796C4.1537 9.9696 4.3637 10.1696 4.6637 10.1696ZM8.1237 10.1696H9.4237C9.7237 10.1696 9.9537 9.9696 9.9537 9.6796V8.3496C9.9537 8.0496 9.7237 7.8496 9.4237 7.8496H8.1237C7.8337 7.8496 7.6337 8.0496 7.6337 8.3496V9.6796C7.6337 9.9696 7.8337 10.1696 8.1237 10.1696ZM11.5937 10.1696H12.8837C13.1937 10.1696 13.4137 9.9696 13.4137 9.6796V8.3496C13.4137 8.0496 13.1937 7.8496 12.8837 7.8496H11.5937C11.3037 7.8496 11.1037 8.0496 11.1037 8.3496V9.6796C11.1037 9.9696 11.3037 10.1696 11.5937 10.1696ZM4.6637 13.8896H5.9437C6.2437 13.8896 6.4837 13.6896 6.4837 13.3896V12.0696C6.4837 11.7696 6.2437 11.5696 5.9437 11.5696H4.6637C4.3637 11.5696 4.1537 11.7696 4.1537 12.0696V13.3896C4.1537 13.6896 4.3637 13.8896 4.6637 13.8896ZM8.1237 13.8896H9.4237C9.7237 13.8896 9.9537 13.6896 9.9537 13.3896V12.0696C9.9537 11.7696 9.7237 11.5696 9.4237 11.5696H8.1237C7.8337 11.5696 7.6337 11.7696 7.6337 12.0696V13.3896C7.6337 13.6896 7.8337 13.8896 8.1237 13.8896ZM4.6637 24.8796H5.9437C6.2437 24.8796 6.4837 24.6796 6.4837 24.3896V23.0596C6.4837 22.7796 6.2437 22.5696 5.9437 22.5696H4.6637C4.3637 22.5696 4.1537 22.7796 4.1537 23.0596V24.3896C4.1537 24.6796 4.3637 24.8796 4.6637 24.8796ZM8.1237 24.8796H9.4237C9.7237 24.8796 9.9537 24.6796 9.9537 24.3896V23.0596C9.9537 22.7796 9.7237 22.5696 9.4237 22.5696H8.1237C7.8337 22.5696 7.6337 22.7796 7.6337 23.0596V24.3896C7.6337 24.6796 7.8337 24.8796 8.1237 24.8796ZM11.5937 24.8796H12.8837C13.1937 24.8796 13.4137 24.6796 13.4137 24.3896V23.0596C13.4137 22.7796 13.1937 22.5696 12.8837 22.5696H11.5937C11.3037 22.5696 11.1037 22.7796 11.1037 23.0596V24.3896C11.1037 24.6796 11.3037 24.8796 11.5937 24.8796Z"
        fillRule="evenodd"
        clipRule="evenodd"
    />
</svg>
        