
<svg
    viewBox="0 0 22.845703125 30.802734375"
    xmlns="http://www.w3.org/2000/svg"
>
    <path
        fill="inherit"
        d="M0.0037 27.1893C0.0037 29.3493 1.5137 30.7993 3.7837 30.7993H19.0537C21.3237 30.7993 22.8437 29.3493 22.8437 27.1893V3.6193C22.8437 1.4593 21.3237 -0.0007 19.0537 -0.0007H3.7837C1.5137 -0.0007 0.0037 1.4593 0.0037 3.6193ZM2.2037 26.8193V3.9893C2.2037 2.8693 2.8837 2.1993 4.0637 2.1993H18.7837C19.9437 2.1993 20.6437 2.8693 20.6437 3.9893V26.8193C20.6437 27.9493 19.9437 28.5993 18.7837 28.5993H4.0637C2.8837 28.5993 2.2037 27.9493 2.2037 26.8193ZM5.1937 7.0993H6.3837C6.7437 7.0993 7.0237 6.8493 7.0237 6.5193V5.2793C7.0237 4.9393 6.7437 4.6893 6.3837 4.6893H5.1937C4.8637 4.6893 4.6237 4.9493 4.6237 5.2793V6.5193C4.6237 6.8393 4.8637 7.0993 5.1937 7.0993ZM8.9537 7.0993H10.1437C10.5037 7.0993 10.7637 6.8493 10.7637 6.5193V5.2793C10.7637 4.9393 10.5037 4.6893 10.1437 4.6893H8.9537C8.6237 4.6893 8.3637 4.9493 8.3637 5.2793V6.5193C8.3637 6.8393 8.6237 7.0993 8.9537 7.0993ZM12.6837 7.0993H13.8937C14.2437 7.0993 14.5237 6.8493 14.5237 6.5193V5.2793C14.5237 4.9393 14.2437 4.6893 13.8937 4.6893H12.6837C12.3637 4.6893 12.1137 4.9493 12.1137 5.2793V6.5193C12.1137 6.8393 12.3637 7.0993 12.6837 7.0993ZM16.4337 7.0993H17.6337C18.0037 7.0993 18.2537 6.8493 18.2537 6.5193V5.2793C18.2537 4.9393 18.0037 4.6893 17.6337 4.6893H16.4337C16.1037 4.6893 15.8637 4.9493 15.8637 5.2793V6.5193C15.8637 6.8393 16.1037 7.0993 16.4337 7.0993ZM5.1937 10.7893H6.3837C6.7437 10.7893 7.0237 10.5293 7.0237 10.1893V8.9593C7.0237 8.6093 6.7437 8.3793 6.3837 8.3793H5.1937C4.8637 8.3793 4.6237 8.6293 4.6237 8.9593V10.1893C4.6237 10.5293 4.8637 10.7893 5.1937 10.7893ZM8.9537 10.7893H10.1437C10.5037 10.7893 10.7637 10.5293 10.7637 10.1893V8.9593C10.7637 8.6093 10.5037 8.3793 10.1437 8.3793H8.9537C8.6237 8.3793 8.3537 8.6293 8.3537 8.9593V10.1893C8.3537 10.5293 8.6237 10.7893 8.9537 10.7893ZM12.6837 10.7893H13.8937C14.2437 10.7893 14.5237 10.5293 14.5237 10.1993V8.9593C14.5237 8.6093 14.2437 8.3793 13.8937 8.3793H12.6837C12.3637 8.3793 12.1137 8.6293 12.1137 8.9593V10.1993C12.1137 10.5293 12.3637 10.7893 12.6837 10.7893ZM16.4337 10.7893H17.6337C18.0037 10.7893 18.2537 10.5293 18.2537 10.1993V8.9593C18.2537 8.6093 18.0037 8.3793 17.6337 8.3793H16.4337C16.1037 8.3793 15.8637 8.6293 15.8637 8.9593V10.1993C15.8637 10.5293 16.1037 10.7893 16.4337 10.7893ZM5.1937 14.4693H6.3837C6.7437 14.4693 7.0237 14.2293 7.0237 13.8893V12.6593C7.0237 12.3193 6.7437 12.0593 6.3837 12.0593H5.1937C4.8637 12.0593 4.6237 12.3193 4.6237 12.6593V13.8893C4.6237 14.2193 4.8637 14.4693 5.1937 14.4693ZM8.9537 14.4693H10.1437C10.5037 14.4693 10.7637 14.2293 10.7637 13.8893V12.6593C10.7637 12.3193 10.5037 12.0593 10.1437 12.0593H8.9537C8.6237 12.0593 8.3537 12.3193 8.3537 12.6593V13.8893C8.3537 14.2193 8.6237 14.4693 8.9537 14.4693ZM5.1937 26.1093H6.3837C6.7437 26.1093 7.0237 25.8793 7.0237 25.5393V24.2993C7.0237 23.9493 6.7437 23.7193 6.3837 23.7193H5.1937C4.8637 23.7193 4.6237 23.9693 4.6237 24.2993V25.5393C4.6237 25.8693 4.8637 26.1093 5.1937 26.1093ZM8.9537 26.1093H10.1437C10.5037 26.1093 10.7637 25.8793 10.7637 25.5393V24.2993C10.7637 23.9493 10.5037 23.7193 10.1437 23.7193H8.9537C8.6237 23.7193 8.3537 23.9693 8.3537 24.2993V25.5393C8.3537 25.8693 8.6237 26.1093 8.9537 26.1093ZM12.6837 26.1093H13.9037C14.2437 26.1093 14.5237 25.8793 14.5237 25.5393V24.2993C14.5237 23.9493 14.2437 23.7193 13.9037 23.7193H12.6837C12.3637 23.7193 12.1137 23.9693 12.1137 24.2993V25.5393C12.1137 25.8693 12.3637 26.1093 12.6837 26.1093ZM16.4337 26.1093H17.6337C18.0037 26.1093 18.2537 25.8793 18.2537 25.5393V24.2993C18.2537 23.9493 18.0037 23.7193 17.6337 23.7193H16.4337C16.1037 23.7193 15.8737 23.9693 15.8737 24.2993V25.5393C15.8737 25.8693 16.1037 26.1093 16.4337 26.1093Z"
        fillRule="evenodd"
        clipRule="evenodd"
    />
</svg>
        