
<svg
    viewBox="0 0 32.23828125 25.169921875"
    xmlns="http://www.w3.org/2000/svg"
>
    <path
        fill="inherit"
        d="M4.2937 25.1655H27.9437C30.8137 25.1655 32.2337 23.7455 32.2337 20.9355V4.2355C32.2337 1.4255 30.8137 -0.0045 27.9437 -0.0045H4.2937C1.4337 -0.0045 0.0037 1.4055 0.0037 4.2355V20.9355C0.0037 23.7655 1.4337 25.1655 4.2937 25.1655ZM4.3237 22.9655C2.9537 22.9655 2.2037 22.2455 2.2037 20.8255V4.3455C2.2037 2.9255 2.9537 2.2055 4.3237 2.2055H27.9137C29.2737 2.2055 30.0337 2.9255 30.0337 4.3455V20.8255C30.0337 22.2455 29.2737 22.9655 27.9137 22.9655ZM5.5737 7.5055H6.9337C7.3237 7.5055 7.6437 7.2355 7.6437 6.8455V5.4555C7.6437 5.0555 7.3237 4.7955 6.9337 4.7955H5.5737C5.2137 4.7955 4.9237 5.0755 4.9237 5.4555V6.8455C4.9237 7.2155 5.2137 7.5055 5.5737 7.5055ZM10.5037 7.5055H11.8537C12.2637 7.5055 12.5637 7.2355 12.5637 6.8455V5.4555C12.5637 5.0555 12.2637 4.7955 11.8537 4.7955H10.5037C10.1337 4.7955 9.8437 5.0755 9.8437 5.4555V6.8455C9.8437 7.2155 10.1337 7.5055 10.5037 7.5055ZM15.4237 7.5055H16.7737C17.1737 7.5055 17.4737 7.2355 17.4737 6.8455V5.4555C17.4737 5.0555 17.1737 4.7955 16.7737 4.7955H15.4237C15.0437 4.7955 14.7637 5.0755 14.7637 5.4555V6.8455C14.7637 7.2155 15.0437 7.5055 15.4237 7.5055ZM20.3337 7.5055H21.6837C22.0937 7.5055 22.3937 7.2355 22.3937 6.8455V5.4555C22.3937 5.0555 22.0937 4.7955 21.6837 4.7955H20.3337C19.9637 4.7955 19.6737 5.0755 19.6737 5.4555V6.8455C19.6737 7.2155 19.9637 7.5055 20.3337 7.5055ZM25.2537 7.5055H26.6037C27.0037 7.5055 27.3037 7.2355 27.3037 6.8455V5.4555C27.3037 5.0555 27.0037 4.7955 26.6037 4.7955H25.2537C24.8737 4.7955 24.5937 5.0755 24.5937 5.4555V6.8455C24.5937 7.2155 24.8737 7.5055 25.2537 7.5055ZM5.5737 12.0155H6.9337C7.3237 12.0155 7.6437 11.7455 7.6437 11.3655V9.9655C7.6437 9.5655 7.3237 9.3055 6.9337 9.3055H5.5737C5.2137 9.3055 4.9237 9.5855 4.9237 9.9655V11.3655C4.9237 11.7255 5.2137 12.0155 5.5737 12.0155ZM10.5037 12.0155H11.8537C12.2637 12.0155 12.5637 11.7455 12.5637 11.3655V9.9655C12.5637 9.5655 12.2637 9.3055 11.8537 9.3055H10.5037C10.1337 9.3055 9.8437 9.5855 9.8437 9.9655V11.3655C9.8437 11.7255 10.1337 12.0155 10.5037 12.0155ZM15.4237 12.0155H16.7737C17.1737 12.0155 17.4737 11.7455 17.4737 11.3655V9.9655C17.4737 9.5655 17.1737 9.3055 16.7737 9.3055H15.4237C15.0437 9.3055 14.7637 9.5855 14.7637 9.9655V11.3655C14.7637 11.7255 15.0437 12.0155 15.4237 12.0155ZM20.3337 12.0155H21.6837C22.0937 12.0155 22.3937 11.7455 22.3937 11.3655V9.9655C22.3937 9.5655 22.0937 9.3055 21.6837 9.3055H20.3337C19.9637 9.3055 19.6737 9.5855 19.6737 9.9655V11.3655C19.6737 11.7255 19.9637 12.0155 20.3337 12.0155ZM5.5737 20.3755H6.9337C7.3237 20.3755 7.6437 20.0955 7.6437 19.7155V18.3155C7.6437 17.9255 7.3237 17.6455 6.9337 17.6455H5.5737C5.2137 17.6455 4.9237 17.9355 4.9237 18.3155V19.7155C4.9237 20.0855 5.2137 20.3755 5.5737 20.3755ZM10.5037 20.3755H11.8537C12.2637 20.3755 12.5637 20.0955 12.5637 19.7155V18.3155C12.5637 17.9255 12.2637 17.6455 11.8537 17.6455H10.5037C10.1337 17.6455 9.8437 17.9355 9.8437 18.3155V19.7155C9.8437 20.0855 10.1337 20.3755 10.5037 20.3755ZM15.4237 20.3755H16.7737C17.1737 20.3755 17.4737 20.0955 17.4737 19.7155V18.3155C17.4737 17.9255 17.1737 17.6455 16.7737 17.6455H15.4237C15.0437 17.6455 14.7637 17.9355 14.7637 18.3155V19.7155C14.7637 20.0855 15.0437 20.3755 15.4237 20.3755ZM20.3337 20.3755H21.6837C22.0937 20.3755 22.3937 20.0955 22.3937 19.7155V18.3155C22.3937 17.9255 22.0937 17.6455 21.6837 17.6455H20.3337C19.9637 17.6455 19.6737 17.9355 19.6737 18.3155V19.7155C19.6737 20.0855 19.9637 20.3755 20.3337 20.3755ZM25.2537 20.3755H26.6037C27.0037 20.3755 27.3037 20.0955 27.3037 19.7155V18.3155C27.3037 17.9255 27.0037 17.6455 26.6037 17.6455H25.2537C24.8737 17.6455 24.5937 17.9355 24.5937 18.3155V19.7155C24.5937 20.0855 24.8737 20.3755 25.2537 20.3755Z"
        fillRule="evenodd"
        clipRule="evenodd"
    />
</svg>
        