
<svg
    viewBox="0 0 32.23828125 25.169921875"
    xmlns="http://www.w3.org/2000/svg"
>
    <path
        fill="inherit"
        d="M4.2937 25.1692H27.9437C30.8137 25.1692 32.2337 23.7592 32.2337 20.9492V4.2392C32.2337 1.4192 30.8137 -0.0008 27.9437 -0.0008H4.2937C1.4337 -0.0008 0.0037 1.4192 0.0037 4.2392V20.9492C0.0037 23.7592 1.4337 25.1692 4.2937 25.1692ZM4.3237 22.9692C3.0537 22.9692 2.3137 22.3392 2.2137 21.1092H19.3437C20.1137 21.1092 20.5537 20.6592 20.5537 19.8792V5.3092C20.5537 4.5292 20.1137 4.0692 19.3437 4.0692H2.2137C2.3137 2.8392 3.0537 2.1992 4.3237 2.1992H27.9137C29.1737 2.1992 29.9237 2.8392 30.0237 4.0692H23.6137C22.8637 4.0692 22.4237 4.5292 22.4237 5.3092V19.8792C22.4237 20.6592 22.8637 21.1092 23.6137 21.1092H30.0237C29.9237 22.3392 29.1737 22.9692 27.9137 22.9692Z"
        fillRule="evenodd"
        clipRule="evenodd"
    />
</svg>
        