
<svg
    viewBox="0 0 28.95703125 33.22265625"
    xmlns="http://www.w3.org/2000/svg"
>
    <path
        fill="inherit"
        d="M14.5018 2.9024C15.3218 2.9024 15.9418 2.2724 15.9418 1.4524C15.9418 0.6424 15.3118 0.0024 14.5018 0.0024C13.7118 0.0024 13.0518 0.6524 13.0518 1.4524C13.0518 2.2524 13.7018 2.9024 14.5018 2.9024ZM7.9718 6.6624C8.7918 6.6624 9.4218 6.0324 9.4218 5.2124C9.4218 4.4024 8.7818 3.7624 7.9718 3.7624C7.1918 3.7624 6.5218 4.4124 6.5218 5.2124C6.5218 6.0124 7.1618 6.6624 7.9718 6.6624ZM21.0318 6.6624C21.8518 6.6624 22.4718 6.0324 22.4718 5.2124C22.4718 4.4024 21.8318 3.7624 21.0318 3.7624C20.2518 3.7624 19.5818 4.4124 19.5818 5.2124C19.5818 6.0124 20.2218 6.6624 21.0318 6.6624ZM14.5018 10.9824C15.5818 10.9824 16.4518 10.1124 16.4518 9.0224C16.4518 7.9524 15.5718 7.0824 14.5018 7.0824C13.4418 7.0824 12.5518 7.9724 12.5518 9.0224C12.5518 10.1024 13.4218 10.9824 14.5018 10.9824ZM1.4518 10.4724C2.2718 10.4724 2.8818 9.8424 2.8818 9.0224C2.8818 8.2324 2.2518 7.5924 1.4518 7.5924C0.6518 7.5924 0.0018 8.2424 0.0018 9.0224C0.0018 9.8324 0.6418 10.4724 1.4518 10.4724ZM27.5118 10.4724C28.3318 10.4724 28.9618 9.8424 28.9618 9.0224C28.9618 8.2124 28.3118 7.5924 27.5118 7.5924C26.7118 7.5924 26.0618 8.2424 26.0618 9.0224C26.0618 9.8324 26.7018 10.4724 27.5118 10.4724ZM7.9718 14.7624C9.0618 14.7624 9.9218 13.9024 9.9218 12.8124C9.9218 11.7324 9.0518 10.8524 7.9718 10.8524C6.9218 10.8524 6.0318 11.7624 6.0318 12.8124C6.0318 13.8924 6.9018 14.7624 7.9718 14.7624ZM21.0318 14.7624C22.1218 14.7624 22.9818 13.9024 22.9818 12.8124C22.9818 11.7324 22.1118 10.8524 21.0318 10.8524C19.9718 10.8524 19.0818 11.7624 19.0818 12.8124C19.0818 13.8924 19.9618 14.7624 21.0318 14.7624ZM14.5018 18.8924C15.7818 18.8924 16.7918 17.8824 16.7918 16.6124C16.7918 15.3524 15.7518 14.3324 14.5018 14.3324C13.2618 14.3324 12.2218 15.3624 12.2218 16.6124C12.2218 17.8524 13.2518 18.8924 14.5018 18.8924ZM1.4518 18.0624C2.2518 18.0624 2.8818 17.4224 2.8818 16.6124C2.8818 15.8024 2.2518 15.1624 1.4518 15.1624C0.6518 15.1624 0.0018 15.8224 0.0018 16.6124C0.0018 17.4224 0.6418 18.0624 1.4518 18.0624ZM27.5118 18.0624C28.3318 18.0624 28.9618 17.4324 28.9618 16.6124C28.9618 15.8024 28.3118 15.1624 27.5118 15.1624C26.7118 15.1624 26.0618 15.8224 26.0618 16.6124C26.0618 17.4224 26.7018 18.0624 27.5118 18.0624ZM7.9718 22.3624C9.0618 22.3624 9.9218 21.5024 9.9218 20.4124C9.9218 19.3324 9.0518 18.4524 7.9718 18.4524C6.9218 18.4524 6.0318 19.3424 6.0318 20.4124C6.0318 21.4824 6.9018 22.3624 7.9718 22.3624ZM21.0318 22.3624C22.1218 22.3624 22.9818 21.5024 22.9818 20.4124C22.9818 19.3324 22.1118 18.4524 21.0318 18.4524C19.9718 18.4524 19.0818 19.3424 19.0818 20.4124C19.0818 21.4824 19.9618 22.3624 21.0318 22.3624ZM14.5018 26.1424C15.5818 26.1424 16.4518 25.2824 16.4518 24.1824C16.4518 23.1224 15.5718 22.2424 14.5018 22.2424C13.4518 22.2424 12.5518 23.1324 12.5518 24.1824C12.5518 25.2624 13.4218 26.1424 14.5018 26.1424ZM1.4518 25.6324C2.2718 25.6324 2.8818 25.0024 2.8818 24.1824C2.8818 23.3924 2.2518 22.7524 1.4518 22.7524C0.6518 22.7524 0.0018 23.4024 0.0018 24.1824C0.0018 24.9924 0.6418 25.6324 1.4518 25.6324ZM27.5118 25.6324C28.3318 25.6324 28.9618 25.0224 28.9618 24.1824C28.9618 23.3924 28.3118 22.7524 27.5118 22.7524C26.7118 22.7524 26.0618 23.4024 26.0618 24.1824C26.0618 24.9924 26.7018 25.6324 27.5118 25.6324ZM7.9718 29.4524C8.7918 29.4524 9.4218 28.8324 9.4218 28.0124C9.4218 27.2024 8.7818 26.5624 7.9718 26.5624C7.1918 26.5624 6.5218 27.2224 6.5218 28.0124C6.5218 28.8224 7.1618 29.4524 7.9718 29.4524ZM21.0318 29.4524C21.8518 29.4524 22.4718 28.8324 22.4718 28.0124C22.4718 27.2024 21.8318 26.5624 21.0318 26.5624C20.2518 26.5624 19.5818 27.2224 19.5818 28.0124C19.5818 28.8224 20.2218 29.4524 21.0318 29.4524ZM14.5018 33.2224C15.3218 33.2224 15.9418 32.5924 15.9418 31.7724C15.9418 30.9624 15.3118 30.3224 14.5018 30.3224C13.7118 30.3224 13.0518 30.9824 13.0518 31.7724C13.0518 32.5824 13.7018 33.2224 14.5018 33.2224Z"
        fillRule="evenodd"
        clipRule="evenodd"
    />
</svg>
        