<svg viewBox="0 0 34.986328125 33.919921875" xmlns="http://www.w3.org/2000/svg"><path d="M14.8473 3.5979C15.8573 3.5979 16.6573 2.8179 16.6573 1.8079C16.6573 0.8079 15.8473 -0.0021 14.8473 -0.0021C13.8773 -0.0021 13.0573 0.8179 13.0573 1.8079C13.0573 2.7979 13.8473 3.5979 14.8473 3.5979ZM8.3273 7.3679C9.3373 7.3679 10.1173 6.5779 10.1173 5.5679C10.1173 4.5679 9.3273 3.7779 8.3273 3.7779C7.3373 3.7779 6.5173 4.5779 6.5173 5.5679C6.5173 6.5579 7.3273 7.3679 8.3273 7.3679ZM21.3873 7.3679C22.3973 7.3679 23.1773 6.5779 23.1773 5.5679C23.1773 4.5679 22.3773 3.7779 21.3873 3.7779C20.3973 3.7779 19.5773 4.5779 19.5773 5.5679C19.5773 6.5579 20.3873 7.3679 21.3873 7.3679ZM14.8473 11.6879C16.1373 11.6879 17.1473 10.6679 17.1473 9.3779C17.1473 8.1179 16.1173 7.0779 14.8473 7.0779C13.6073 7.0779 12.5473 8.1379 12.5473 9.3779C12.5473 10.6479 13.5873 11.6879 14.8473 11.6879ZM1.7873 11.1879C2.8073 11.1879 3.5973 10.3879 3.5973 9.3779C3.5973 8.3779 2.7873 7.5879 1.7873 7.5879C0.8073 7.5879 -0.0027 8.3979 -0.0027 9.3779C-0.0027 10.3779 0.7973 11.1879 1.7873 11.1879ZM27.8473 11.1879C28.8773 11.1879 29.6573 10.3879 29.6573 9.3779C29.6573 8.3779 28.8573 7.5879 27.8473 7.5879C26.8773 7.5879 26.0573 8.4079 26.0573 9.3779C26.0573 10.3779 26.8673 11.1879 27.8473 11.1879ZM8.3273 15.4579C9.6073 15.4579 10.6273 14.4479 10.6273 13.1679C10.6273 11.8979 9.5873 10.8679 8.3273 10.8679C7.0773 10.8679 6.0273 11.9179 6.0273 13.1679C6.0273 14.4379 7.0573 15.4579 8.3273 15.4579ZM21.3873 15.4579C22.6673 15.4579 23.6773 14.4479 23.6773 13.1679C23.6773 11.8979 22.6373 10.8679 21.3873 10.8679C20.1373 10.8679 19.0873 11.9179 19.0873 13.1679C19.0873 14.4379 20.1073 15.4579 21.3873 15.4579ZM14.8473 19.5879C16.3073 19.5879 17.4873 18.4279 17.4873 16.9679C17.4873 15.5179 16.2973 14.3379 14.8473 14.3379C13.4273 14.3379 12.2273 15.5279 12.2273 16.9679C12.2273 18.4179 13.4073 19.5879 14.8473 19.5879ZM1.7873 18.7579C2.8073 18.7579 3.5973 17.9779 3.5973 16.9679C3.5973 15.9679 2.7873 15.1779 1.7873 15.1779C0.8073 15.1779 -0.0027 15.9779 -0.0027 16.9679C-0.0027 17.9679 0.7973 18.7579 1.7873 18.7579ZM29.2473 18.1579C29.5273 17.8179 29.6973 17.4079 29.6973 16.9679C29.6973 15.9679 28.9073 15.1779 27.8873 15.1779C26.9173 15.1779 26.0973 15.9779 26.0973 16.9679C26.0973 17.1879 26.1573 17.5179 26.3073 17.7979C26.6973 17.6879 27.0473 17.6379 27.3873 17.6379C28.0773 17.6379 28.7473 17.8579 29.2473 18.1579ZM8.3273 23.0679C9.5973 23.0679 10.6273 22.0479 10.6273 20.7679C10.6273 19.4979 9.5873 18.4579 8.3273 18.4579C7.0673 18.4579 6.0273 19.5079 6.0273 20.7679C6.0273 22.0279 7.0573 23.0679 8.3273 23.0679ZM21.3873 23.0679C21.7473 23.0679 21.9573 22.9979 22.1073 22.9179L23.5873 20.2579V20.1979C23.4073 19.3479 22.5473 18.4579 21.3873 18.4579C20.1273 18.4579 19.0873 19.5079 19.0873 20.7679C19.0873 22.0279 20.1073 23.0679 21.3873 23.0679ZM21.6173 33.4179H33.1673C34.2773 33.4179 34.9873 32.6379 34.9873 31.6079C34.9873 31.3079 34.9073 31.0179 34.7273 30.7379L28.9473 20.3979C28.5973 19.7979 27.9973 19.4779 27.3973 19.4779C26.7973 19.4779 26.1673 19.7979 25.8373 20.3979L20.0673 30.7379C19.9073 31.0179 19.8273 31.3079 19.8273 31.6079C19.8273 32.6379 20.5073 33.4179 21.6173 33.4179ZM14.8473 26.8479C16.1373 26.8479 17.1473 25.8279 17.1473 24.5379C17.1473 23.2879 16.1173 22.2479 14.8473 22.2479C13.6073 22.2479 12.5473 23.2979 12.5473 24.5379C12.5473 25.8079 13.5873 26.8479 14.8473 26.8479ZM27.3973 28.1879C26.9373 28.1879 26.6073 27.8679 26.5873 27.4079L26.4873 23.6079C26.4673 23.0679 26.8473 22.6779 27.3973 22.6779C27.9573 22.6779 28.3273 23.0679 28.3173 23.6079L28.2073 27.4079C28.1873 27.8679 27.8673 28.1879 27.3973 28.1879ZM1.7873 26.3479C2.8073 26.3479 3.5973 25.5679 3.5973 24.5379C3.5973 23.5579 2.7873 22.7479 1.7873 22.7479C0.8173 22.7479 -0.0027 23.5679 -0.0027 24.5379C-0.0027 25.5479 0.7973 26.3479 1.7873 26.3479ZM8.3273 30.1579C9.3373 30.1579 10.1173 29.3779 10.1173 28.3679C10.1173 27.3679 9.3273 26.5679 8.3273 26.5679C7.3373 26.5679 6.5173 27.3879 6.5173 28.3679C6.5173 29.3679 7.3273 30.1579 8.3273 30.1579ZM27.3973 31.3779C26.7873 31.3779 26.2673 30.8679 26.2673 30.2579C26.2673 29.6379 26.7973 29.1179 27.3973 29.1179C28.0273 29.1179 28.5373 29.6379 28.5373 30.2579C28.5373 30.8679 28.0173 31.3779 27.3973 31.3779ZM14.8473 33.9179C15.8573 33.9179 16.6573 33.1379 16.6573 32.1279C16.6573 31.1279 15.8473 30.3379 14.8473 30.3379C13.8773 30.3379 13.0573 31.1479 13.0573 32.1279C13.0573 33.1279 13.8473 33.9179 14.8473 33.9179Z" /></svg>