
<svg
    viewBox={0 0 28.287109375 32.56640625}
    xmlns="http://www.w3.org/2000/svg"
>
    <path
        fill="inherit"
        d="M14.1737 2.2243C14.8037 2.2243 15.2837 1.7643 15.2837 1.1243C15.2837 0.4943 14.7937 0.0043 14.1737 0.0043C13.5637 0.0043 13.0537 0.5043 13.0537 1.1243C13.0537 1.7343 13.5537 2.2243 14.1737 2.2243ZM7.6437 6.0043C8.2837 6.0043 8.7637 5.5243 8.7637 4.8843C8.7637 4.2543 8.2737 3.7643 7.6437 3.7643C7.0437 3.7643 6.5237 4.2743 6.5237 4.8843C6.5237 5.5143 7.0137 6.0043 7.6437 6.0043ZM20.7037 6.0043C21.3437 6.0043 21.8237 5.5243 21.8237 4.8843C21.8237 4.2543 21.3237 3.7643 20.7037 3.7643C20.0937 3.7643 19.5737 4.2743 19.5737 4.8843C19.5737 5.5143 20.0737 6.0043 20.7037 6.0043ZM1.1237 9.8143C1.7537 9.8143 2.2237 9.3343 2.2237 8.6943C2.2237 8.0843 1.7337 7.5843 1.1237 7.5843C0.5037 7.5843 0.0037 8.0943 0.0037 8.6943C0.0037 9.3243 0.4937 9.8143 1.1237 9.8143ZM14.1737 9.8143C14.8037 9.8143 15.2837 9.3343 15.2837 8.6943C15.2837 8.0843 14.7937 7.5843 14.1737 7.5843C13.5637 7.5843 13.0537 8.0943 13.0537 8.6943C13.0537 9.3243 13.5537 9.8143 14.1737 9.8143ZM27.1837 9.8143C27.8237 9.8143 28.2837 9.3343 28.2837 8.6943C28.2837 8.0643 27.8037 7.5843 27.1837 7.5843C26.5637 7.5843 26.0537 8.0943 26.0537 8.6943C26.0537 9.3243 26.5537 9.8143 27.1837 9.8143ZM7.6437 13.6043C8.2837 13.6043 8.7637 13.1243 8.7637 12.4843C8.7637 11.8543 8.2737 11.3643 7.6437 11.3643C7.0437 11.3643 6.5237 11.8643 6.5237 12.4843C6.5237 13.1143 7.0137 13.6043 7.6437 13.6043ZM20.7037 13.6043C21.3437 13.6043 21.8237 13.1243 21.8237 12.4843C21.8237 11.8543 21.3237 11.3643 20.7037 11.3643C20.0937 11.3643 19.5737 11.8643 19.5737 12.4843C19.5737 13.1143 20.0737 13.6043 20.7037 13.6043ZM1.1237 17.3943C1.7537 17.3943 2.2237 16.9243 2.2237 16.2843C2.2237 15.6543 1.7337 15.1643 1.1237 15.1643C0.5037 15.1643 0.0037 15.6643 0.0037 16.2843C0.0037 16.8943 0.4937 17.3943 1.1237 17.3943ZM14.1737 17.3943C14.8037 17.3943 15.2837 16.9243 15.2837 16.2843C15.2837 15.6543 14.7937 15.1643 14.1737 15.1643C13.5637 15.1643 13.0537 15.6643 13.0537 16.2843C13.0537 16.8943 13.5537 17.3943 14.1737 17.3943ZM27.1837 17.3943C27.8237 17.3943 28.2837 16.9243 28.2837 16.2843C28.2837 15.6543 27.8037 15.1643 27.1837 15.1643C26.5637 15.1643 26.0537 15.6843 26.0537 16.2843C26.0537 16.8943 26.5537 17.3943 27.1837 17.3943ZM7.6437 21.1943C8.2837 21.1943 8.7637 20.7243 8.7637 20.0843C8.7637 19.4543 8.2737 18.9643 7.6437 18.9643C7.0437 18.9643 6.5237 19.4643 6.5237 20.0843C6.5237 20.7143 7.0137 21.1943 7.6437 21.1943ZM20.7037 21.1943C21.3437 21.1943 21.8237 20.7243 21.8237 20.0843C21.8237 19.4543 21.3237 18.9643 20.7037 18.9643C20.0937 18.9643 19.5737 19.4643 19.5737 20.0843C19.5737 20.7143 20.0737 21.1943 20.7037 21.1943ZM1.1237 24.9743C1.7537 24.9743 2.2237 24.5043 2.2237 23.8543C2.2237 23.2443 1.7337 22.7543 1.1237 22.7543C0.5037 22.7543 0.0037 23.2543 0.0037 23.8543C0.0037 24.4843 0.4937 24.9743 1.1237 24.9743ZM14.1737 24.9743C14.8037 24.9743 15.2837 24.5043 15.2837 23.8543C15.2837 23.2443 14.7937 22.7543 14.1737 22.7543C13.5637 22.7543 13.0537 23.2543 13.0537 23.8543C13.0537 24.4843 13.5537 24.9743 14.1737 24.9743ZM27.1837 24.9743C27.8237 24.9743 28.2837 24.5143 28.2837 23.8543C28.2837 23.2443 27.7937 22.7543 27.1837 22.7543C26.5637 22.7543 26.0537 23.2543 26.0537 23.8543C26.0537 24.4843 26.5537 24.9743 27.1837 24.9743ZM7.6437 28.7943C8.2837 28.7943 8.7637 28.3243 8.7637 27.6843C8.7637 27.0543 8.2737 26.5643 7.6437 26.5643C7.0437 26.5643 6.5237 27.0743 6.5237 27.6843C6.5237 28.3043 7.0137 28.7943 7.6437 28.7943ZM20.7037 28.7943C21.3437 28.7943 21.8237 28.3243 21.8237 27.6843C21.8237 27.0543 21.3237 26.5643 20.7037 26.5643C20.0937 26.5643 19.5737 27.0743 19.5737 27.6843C19.5737 28.3043 20.0737 28.7943 20.7037 28.7943ZM14.1737 32.5643C14.8037 32.5643 15.2837 32.0843 15.2837 31.4443C15.2837 30.8143 14.7937 30.3243 14.1737 30.3243C13.5637 30.3243 13.0537 30.8443 13.0537 31.4443C13.0537 32.0743 13.5537 32.5643 14.1737 32.5643Z"
        fillRule="evenodd"
        clipRule="evenodd"
    />
</svg>
        