
<svg
    viewBox="0 0 26.099609375 28.765625"
    xmlns="http://www.w3.org/2000/svg"
>
    <path
        fill="inherit"
        d="M18.1037 23.3639C18.9637 23.3639 19.6737 22.9539 19.6737 22.3839V11.5239C22.1437 10.8439 23.9537 8.5539 23.9537 5.8539C23.9537 2.6239 21.3237 0.0039 18.1037 0.0039C14.8637 0.0039 12.2237 2.6539 12.2237 5.8539C12.2237 8.5839 14.0537 10.8739 16.5537 11.5439V22.3839C16.5537 22.9539 17.2437 23.3639 18.1037 23.3639ZM10.7237 12.1239C10.7237 11.5439 10.2537 11.0739 9.6537 11.0739H5.8537V9.2539C5.8537 8.2839 4.9037 7.9939 4.1837 8.5439L0.3737 11.4339C-0.1263 11.7939 -0.1263 12.4939 0.3737 12.8739L4.1837 15.7539C4.9337 16.3239 5.8537 15.9839 5.8537 15.0439V13.2039H9.6537C10.2537 13.2039 10.7237 12.7239 10.7237 12.1239ZM18.1537 28.7639C22.6237 28.7639 26.1037 25.8239 26.1037 22.0539C26.1037 19.2139 24.1437 16.8439 21.2637 15.8639V18.2639C22.8737 19.0439 23.8937 20.4139 23.8937 22.0539C23.8937 24.5939 21.4137 26.5639 18.1537 26.5639C14.9037 26.5639 12.3837 24.5939 12.3837 22.0539C12.3837 20.4439 13.3937 19.0839 14.9537 18.3239V15.8839C12.1137 16.8939 10.1837 19.2239 10.1837 22.0539C10.1837 25.8239 13.6537 28.7639 18.1537 28.7639Z"
        fillRule="evenodd"
        clipRule="evenodd"
    />
</svg>
        