
<svg
    viewBox={0 0 38.724775548852264 24.595703125}
    xmlns="http://www.w3.org/2000/svg"
>
    <path
        fill="inherit"
        d="M5.6698 24.5921H33.0498C37.0698 24.5921 39.1698 22.0121 38.6498 17.7221L37.1698 5.4021C36.7598 1.9121 34.7498 0.0021 31.5598 0.0021H7.1598C3.9698 0.0021 1.9698 1.9121 1.5498 5.4021L0.0798 17.7221C-0.4402 22.0121 1.6498 24.5921 5.6698 24.5921ZM5.6698 22.3921C3.1998 22.3921 1.9198 20.6221 2.2898 17.5421L3.7298 5.6621C3.9998 3.4321 5.2098 2.2021 7.1598 2.2021H31.5598C33.5198 2.2021 34.7198 3.4321 34.9798 5.6621L36.4198 17.5421C36.7998 20.6321 35.5298 22.3921 33.0498 22.3921ZM10.3698 16.1621C10.8798 16.1621 11.2998 15.9121 11.2998 15.5721V11.7121C12.7398 11.3321 13.7998 9.9921 13.7998 8.4221C13.7998 6.5321 12.2598 4.9921 10.3698 4.9921C8.4698 4.9921 6.9398 6.5521 6.9398 8.4221C6.9398 10.0121 8.0098 11.3321 9.4598 11.7421V15.5721C9.4598 15.9121 9.8698 16.1621 10.3698 16.1621ZM18.3598 11.4321C19.4698 11.4321 20.3498 10.5421 20.3498 9.4521C20.3498 8.3421 19.4698 7.4521 18.3598 7.4521C17.2598 7.4521 16.3798 8.3421 16.3798 9.4521C16.3798 10.5421 17.2598 11.4321 18.3598 11.4321ZM24.1398 11.4321C25.2298 11.4321 26.1398 10.5421 26.1398 9.4521C26.1398 8.3421 25.2298 7.4521 24.1398 7.4521C23.0298 7.4521 22.1398 8.3421 22.1398 9.4521C22.1398 10.5421 23.0298 11.4321 24.1398 11.4321ZM29.8998 11.4321C30.9898 11.4321 31.8898 10.5421 31.8898 9.4521C31.8898 8.3421 30.9898 7.4521 29.8998 7.4521C28.7998 7.4521 27.8998 8.3421 27.8998 9.4521C27.8998 10.5421 28.7998 11.4321 29.8998 11.4321ZM10.3698 19.0621C13.1498 19.0621 15.0898 17.5721 15.0898 15.4621C15.0898 13.9821 14.1298 12.8221 12.6298 12.2521V14.0421C13.1398 14.3821 13.4398 14.8721 13.4398 15.4621C13.4398 16.7021 12.1798 17.5821 10.3698 17.5821C8.5698 17.5821 7.2998 16.7021 7.2998 15.4621C7.2998 14.8621 7.6098 14.3721 8.1298 14.0321V12.2521C6.5998 12.8121 5.6398 13.9821 5.6398 15.4621C5.6398 17.5721 7.5998 19.0621 10.3698 19.0621ZM20.2898 17.1821C21.3798 17.1821 22.2698 16.2921 22.2698 15.2021C22.2698 14.0921 21.3798 13.2021 20.2898 13.2021C19.1798 13.2021 18.2898 14.0921 18.2898 15.2021C18.2898 16.2921 19.1798 17.1821 20.2898 17.1821ZM26.0498 17.1821C27.1598 17.1821 28.0498 16.2921 28.0498 15.2021C28.0498 14.0921 27.1598 13.2021 26.0498 13.2021C24.9598 13.2021 24.0698 14.0921 24.0698 15.2021C24.0698 16.2921 24.9598 17.1821 26.0498 17.1821ZM31.8198 17.1821C32.9298 17.1821 33.8198 16.2921 33.8198 15.2021C33.8198 14.0921 32.9298 13.2021 31.8198 13.2021C30.7298 13.2021 29.8398 14.0921 29.8398 15.2021C29.8398 16.2921 30.7298 17.1821 31.8198 17.1821Z"
        fillRule="evenodd"
        clipRule="evenodd"
    />
</svg>
        