
<svg
    viewBox={0 0 26.74272899720363 28.765625}
    xmlns="http://www.w3.org/2000/svg"
>
    <path
        fill="inherit"
        d="M7.92 23.3639C8.78 23.3639 9.49 22.9539 9.49 22.3839V11.5239C11.96 10.8439 13.77 8.5539 13.77 5.8539C13.77 2.6239 11.13 0.0039 7.92 0.0039C4.68 0.0039 2.02 2.6539 2.02 5.8539C2.02 8.5839 3.87 10.8739 6.37 11.5439V22.3839C6.37 22.9539 7.05 23.3639 7.92 23.3639ZM22.87 12.2339C23.46 12.2339 23.94 11.7739 23.94 11.1739V7.3739H25.74C26.73 7.3739 27.02 6.4239 26.47 5.7039L23.58 1.8839C23.2 1.3939 22.52 1.3839 22.13 1.8839L19.26 5.7039C18.69 6.4539 19.03 7.3739 19.97 7.3739H21.81V11.1739C21.81 11.7739 22.27 12.2339 22.87 12.2339ZM7.97 28.7639C12.44 28.7639 15.91 25.8239 15.91 22.0539C15.91 19.2139 13.96 16.8439 11.07 15.8639V18.2639C12.69 19.0439 13.71 20.4139 13.71 22.0539C13.71 24.5939 11.22 26.5639 7.97 26.5639C4.72 26.5639 2.2 24.5939 2.2 22.0539C2.2 20.4439 3.21 19.0839 4.77 18.3239V15.8839C1.93 16.8939 0 19.2239 0 22.0539C0 25.8239 3.47 28.7639 7.97 28.7639ZM22.87 16.5339C22.27 16.5339 21.81 16.9939 21.81 17.5939V21.3939H19.97C19.03 21.3939 18.69 22.3139 19.26 23.0639L22.13 26.8839C22.52 27.3739 23.2 27.3739 23.58 26.8839L26.47 23.0639C27.02 22.3439 26.73 21.3939 25.74 21.3939H23.94V17.5939C23.94 16.9939 23.46 16.5339 22.87 16.5339Z"
        fillRule="evenodd"
        clipRule="evenodd"
    />
</svg>
        