
<svg
    viewBox={0 0 27.890625 27.890625}
    xmlns="http://www.w3.org/2000/svg"
>
    <path
        fill="inherit"
        d="M13.9427 27.8927C21.6427 27.8927 27.8927 21.6427 27.8927 13.9427C27.8927 6.2627 21.6427 0.0027 13.9427 0.0027C6.2627 0.0027 0.0027 6.2627 0.0027 13.9427C0.0027 21.6427 6.2627 27.8927 13.9427 27.8927ZM7.7127 10.6227C6.8627 10.6227 6.4427 10.1127 6.4427 9.2827V8.6027C6.4427 7.7527 6.9227 7.2627 7.7127 7.2627H20.1827C21.0427 7.2627 21.4627 7.7527 21.4627 8.6027V9.2827C21.4627 10.1127 21.0427 10.6227 20.1827 10.6227ZM9.8327 21.0827C8.3527 21.0827 7.5627 20.3327 7.5627 18.8227V11.7627H20.3327V18.8227C20.3327 20.3327 19.5327 21.0827 18.0627 21.0827ZM11.4727 14.4627H16.4227C16.7527 14.4627 16.9627 14.2627 16.9627 13.9327V13.6827C16.9627 13.3527 16.7527 13.1527 16.4227 13.1527H11.4727C11.1527 13.1527 10.9227 13.3527 10.9227 13.6827V13.9327C10.9227 14.2627 11.1527 14.4627 11.4727 14.4627Z"
        fillRule="evenodd"
        clipRule="evenodd"
    />
</svg>
        