
<svg
    viewBox={0 0 27.890625 27.890625}
    xmlns="http://www.w3.org/2000/svg"
>
    <path
        fill="inherit"
        d="M13.9427 27.8864C21.6427 27.8864 27.8927 21.6464 27.8927 13.9464C27.8927 6.2464 21.6427 -0.0036 13.9427 -0.0036C6.2527 -0.0036 0.0027 6.2464 0.0027 13.9464C0.0027 21.6464 6.2527 27.8864 13.9427 27.8864ZM13.9427 25.5664C7.5227 25.5664 2.3227 20.3664 2.3227 13.9464C2.3227 7.5164 7.5227 2.3264 13.9427 2.3264C20.3727 2.3264 25.5627 7.5164 25.5627 13.9464C25.5627 20.3664 20.3727 25.5664 13.9427 25.5664ZM7.8927 10.7164H19.9727C20.8127 10.7164 21.2227 10.2364 21.2227 9.4364V8.7664C21.2227 7.9464 20.8127 7.4464 19.9727 7.4464H7.8927C7.1227 7.4464 6.6627 7.9464 6.6627 8.7664V9.4364C6.6627 10.2364 7.0727 10.7164 7.8927 10.7164ZM9.9427 20.8664H17.9227C19.3627 20.8664 20.1227 20.1264 20.1227 18.6864V11.8264H7.7427V18.6864C7.7427 20.1364 8.5027 20.8664 9.9427 20.8664ZM11.5227 14.4464C11.2227 14.4464 11.0027 14.2464 11.0027 13.9364V13.6964C11.0027 13.3664 11.2227 13.1764 11.5227 13.1764H16.3427C16.6527 13.1764 16.8527 13.3664 16.8527 13.6964V13.9364C16.8527 14.2464 16.6527 14.4464 16.3427 14.4464Z"
        fillRule="evenodd"
        clipRule="evenodd"
    />
</svg>
        