
<svg
    viewBox="0 0 27.330078125 25.169921875"
    xmlns="http://www.w3.org/2000/svg"
>
    <path
        fill="inherit"
        d="M2.3237 6.1355H25.0037C26.5537 6.1355 27.3337 5.2255 27.3337 3.6955V2.4455C27.3337 0.9155 26.5537 -0.0045 25.0037 -0.0045H2.3237C0.8637 -0.0045 0.0037 0.9155 0.0037 2.4455V3.6955C0.0037 5.2255 0.7837 6.1355 2.3237 6.1355ZM6.1637 25.1655H21.1637C23.8537 25.1655 25.2937 23.7755 25.2937 21.0955V8.0155H2.0337V21.0955C2.0337 23.7855 3.4737 25.1655 6.1637 25.1655ZM9.1637 12.9455C8.5837 12.9455 8.1937 12.5555 8.1937 11.9455V11.5255C8.1937 10.9255 8.5837 10.5455 9.1637 10.5455H18.1837C18.7537 10.5455 19.1637 10.9255 19.1637 11.5255V11.9455C19.1637 12.5555 18.7537 12.9455 18.1837 12.9455Z"
        fillRule="evenodd"
        clipRule="evenodd"
    />
</svg>
        