
<svg
    viewBox={0 0 27.330078125 25.169921875}
    xmlns="http://www.w3.org/2000/svg"
>
    <path
        fill="inherit"
        d="M6.1637 25.1655H21.1637C23.8537 25.1655 25.2937 23.7755 25.2937 21.0955V7.4755C26.6237 7.2555 27.3337 6.2655 27.3337 4.7955V2.7255C27.3337 1.0555 26.4137 -0.0045 24.7337 -0.0045H2.5937C0.9937 -0.0045 0.0037 1.0555 0.0037 2.7255V4.7955C0.0037 6.2655 0.7137 7.2555 2.0337 7.4755V21.0955C2.0337 23.7855 3.4737 25.1655 6.1637 25.1655ZM3.1537 5.4555C2.4737 5.4555 2.2037 5.1655 2.2037 4.4855V3.0355C2.2037 2.3555 2.4737 2.0655 3.1537 2.0655H24.1837C24.8737 2.0655 25.1337 2.3555 25.1337 3.0355V4.4855C25.1337 5.1655 24.8737 5.4555 24.1837 5.4555ZM6.1437 23.1055C4.9037 23.1055 4.2337 22.4355 4.2337 21.2055V7.5155H23.0937V21.2055C23.0937 22.4355 22.4037 23.1055 21.1937 23.1055ZM9.1637 13.0255H18.1837C18.7537 13.0255 19.1637 12.6355 19.1637 12.0355V11.5955C19.1637 10.9955 18.7537 10.6055 18.1837 10.6055H9.1637C8.5837 10.6055 8.1937 10.9955 8.1937 11.5955V12.0355C8.1937 12.6355 8.5837 13.0255 9.1637 13.0255Z"
        fillRule="evenodd"
        clipRule="evenodd"
    />
</svg>
        