
<svg
    viewBox={0 0 27.740234375 30.31396484375}
    xmlns="http://www.w3.org/2000/svg"
>
    <path
        fill="inherit"
        d="M13.8737 6.7574C14.5337 6.7574 15.0137 6.2274 15.0137 5.4874V2.9474L16.9437 4.0574C17.5537 4.4074 18.3237 4.2774 18.6237 3.6974C18.9337 3.1274 18.7537 2.4574 18.1037 2.0674L15.1337 0.3874C14.2337 -0.1326 13.5037 -0.1326 12.6037 0.3874L9.6437 2.0674C8.9837 2.4574 8.8137 3.1274 9.1237 3.6974C9.4237 4.2774 10.1837 4.4074 10.8037 4.0574L12.7237 2.9474V5.4874C12.7237 6.2274 13.2037 6.7574 13.8737 6.7574ZM1.1037 14.0474C1.7637 14.0474 2.2137 13.4974 2.2137 12.7674V10.1674L4.7437 11.6174C5.3437 11.9574 6.0337 11.8074 6.4137 11.2474C6.7637 10.6974 6.5037 9.9574 5.8237 9.5874L3.4637 8.2374L5.7737 6.9274C6.4637 6.5274 6.6837 5.7774 6.3337 5.2174C5.9637 4.6674 5.2737 4.5574 4.7037 4.8874L1.7237 6.5874C0.6037 7.2274 0.0037 8.0874 0.0037 9.6074V12.7674C0.0037 13.4974 0.4737 14.0474 1.1037 14.0474ZM26.6337 14.0474C27.2737 14.0474 27.7437 13.4974 27.7437 12.7674V9.6074C27.7437 7.9474 27.3037 7.3074 26.0337 6.5874L23.0337 4.8874C22.4637 4.5574 21.7837 4.6674 21.4237 5.2174C21.0537 5.7774 21.2837 6.5274 21.9837 6.9274L24.2937 8.2374L21.9137 9.5874C21.2437 9.9574 20.9737 10.6974 21.3437 11.2474C21.7137 11.8074 22.4037 11.9574 22.9937 11.6174L25.5237 10.1674V12.7674C25.5237 13.4974 25.9937 14.0474 26.6337 14.0474ZM13.8737 20.4774C14.5337 20.4774 15.0137 19.9274 15.0137 19.1874V16.1674L17.8237 14.5574C18.4837 14.1874 18.7337 13.4474 18.3637 12.8974C18.0037 12.3374 17.3337 12.1774 16.7237 12.5174L13.8737 14.1274L11.0337 12.5174C10.4137 12.1774 9.7437 12.3374 9.3837 12.8974C9.0137 13.4474 9.2537 14.1874 9.9237 14.5574L12.7237 16.1674V19.1874C12.7237 19.9274 13.2037 20.4774 13.8737 20.4774ZM3.7337 24.8774C4.3937 25.2474 5.1137 25.1074 5.4237 24.5174C5.7237 23.9474 5.4937 23.2374 4.8937 22.8974L3.4137 22.0774L5.5237 20.8574C6.1937 20.4874 6.4437 19.7474 6.0837 19.1974C5.7137 18.6374 5.0437 18.4774 4.4137 18.8174L2.2137 20.0674V18.2874C2.2137 17.5474 1.7337 16.9974 1.1037 16.9974C0.4537 16.9974 0.0037 17.5474 0.0037 18.2874V20.4374C0.0037 22.4574 0.6737 23.1574 1.9537 23.8774ZM24.0037 24.8774L25.7837 23.8774C27.0737 23.1574 27.7437 22.4574 27.7437 20.4374V18.2874C27.7437 17.5474 27.2937 16.9974 26.6337 16.9974C26.0037 16.9974 25.5237 17.5474 25.5237 18.2874V20.0774L23.3237 18.8174C22.7137 18.4774 22.0237 18.6374 21.6737 19.1974C21.3037 19.7474 21.5637 20.4874 22.2137 20.8574L24.3037 22.0774L22.8437 22.8974C22.2537 23.2374 22.0137 23.9474 22.3237 24.5174C22.6237 25.1074 23.3637 25.2474 24.0037 24.8774ZM12.7037 29.9774C13.5237 30.4274 14.2337 30.4274 15.0537 29.9774L18.8437 27.8174C19.4937 27.4374 19.6637 26.7774 19.3437 26.1874C19.0437 25.6174 18.3037 25.4674 17.6637 25.8374L15.0137 27.3474V24.5774C15.0137 23.8374 14.5337 23.2874 13.8737 23.2874C13.2037 23.2874 12.7237 23.8374 12.7237 24.5774V27.3474L10.0737 25.8374C9.4437 25.4674 8.7137 25.6174 8.3937 26.1874C8.0837 26.7774 8.2437 27.4374 8.9137 27.8174Z"
        fillRule="evenodd"
        clipRule="evenodd"
    />
</svg>
        