
<svg
    viewBox={0 0 21.341796875 25.826171875}
    xmlns="http://www.w3.org/2000/svg"
>
    <path
        fill="inherit"
        d="M18.4437 25.8273C19.2337 25.8273 19.8937 25.8173 20.3137 25.7273C20.8537 25.6073 21.3437 25.2673 21.3437 24.5673C21.3437 23.8573 20.8237 23.4073 20.1237 23.4073C19.6437 23.4073 19.2137 23.4373 18.5637 23.4373C13.7137 23.4373 11.5537 21.7773 11.5637 16.8273L11.5837 7.4773L11.4737 3.7573L14.2037 6.7673L18.6937 11.2473C18.9037 11.4673 19.2237 11.5773 19.5537 11.5773C20.2337 11.5773 20.7237 11.0573 20.7237 10.3873C20.7237 10.0673 20.6137 9.7773 20.3537 9.4973L11.2837 0.4073C11.0237 0.1373 10.7037 -0.0027 10.3637 -0.0027C10.0237 -0.0027 9.7037 0.1373 9.4437 0.4073L0.3837 9.4973C0.1237 9.7773 0.0037 10.0673 0.0037 10.3873C0.0037 11.0573 0.4937 11.5773 1.1737 11.5773C1.5037 11.5773 1.8337 11.4673 2.0337 11.2473L6.5237 6.7673L9.2437 3.7773L9.1437 7.4773V16.9573C9.1437 23.3073 12.1237 25.8273 18.4437 25.8273Z"
        fillRule="evenodd"
        clipRule="evenodd"
    />
</svg>
        