
<svg
    viewBox={0 0 40.745656994615864 28.587890625}
    xmlns="http://www.w3.org/2000/svg"
>
    <path
        fill="inherit"
        d="M20.3682 28.5845C20.9082 28.5845 21.3782 28.1645 21.3782 27.6345V0.9445C21.3782 0.4145 20.9082 0.0045 20.3682 0.0045C19.8382 0.0045 19.3682 0.4145 19.3682 0.9445V27.6345C19.3682 28.1645 19.8382 28.5845 20.3682 28.5845ZM1.0282 15.9045L11.3782 22.2445C12.6782 23.0345 14.1382 22.4745 14.1382 20.8045V7.7645C14.1382 6.1345 12.6982 5.5345 11.3782 6.3445L1.0282 12.6845C-0.3518 13.5245 -0.3318 15.0645 1.0282 15.9045ZM29.3682 22.2445L39.7282 15.9045C41.0682 15.0645 41.0982 13.5245 39.7282 12.6845L29.3682 6.3445C28.0382 5.5345 26.6082 6.1345 26.6082 7.7645V20.8045C26.6082 22.4745 28.0682 23.0345 29.3682 22.2445ZM29.0782 20.2645C28.9182 20.3545 28.5982 20.3745 28.5982 20.0245V8.5545C28.5982 8.1845 28.9482 8.2345 29.0782 8.3245L38.2582 14.0045C38.5782 14.2145 38.4682 14.4545 38.2582 14.5745ZM2.4882 14.5745C2.2882 14.4345 2.1582 14.2145 2.4882 14.0045L11.6582 8.3245C11.7982 8.2345 12.1382 8.1845 12.1382 8.5545V20.0245C12.1382 20.3745 11.8282 20.3745 11.6582 20.2645Z"
        fillRule="evenodd"
        clipRule="evenodd"
    />
</svg>
        