
<svg
    viewBox="0 0 25.169921875 25.169921875"
    xmlns="http://www.w3.org/2000/svg"
>
    <path
        fill="inherit"
        d="M4.2937 25.1692H20.8737C23.7437 25.1692 25.1737 23.7592 25.1737 20.9492V4.2392C25.1737 1.4192 23.7437 -0.0008 20.8737 -0.0008H4.2937C1.4337 -0.0008 0.0037 1.4192 0.0037 4.2392V20.9492C0.0037 23.7592 1.4337 25.1692 4.2937 25.1692ZM8.1637 16.0792C7.5437 16.0792 7.1337 15.5992 7.1337 14.9392V8.2992C7.1337 7.4692 7.5837 7.1392 8.3137 7.1392H14.9837C15.6537 7.1392 16.0737 7.5492 16.0737 8.1792C16.0737 8.7892 15.6437 9.1992 14.9537 9.1992H12.4137L10.3237 8.9792L12.5237 11.0292L17.7037 16.1992C17.9137 16.4092 18.0437 16.6892 18.0437 16.9692C18.0437 17.6092 17.6237 18.0192 17.0037 18.0192C16.6637 18.0192 16.4037 17.8992 16.1837 17.6892L11.0337 12.5192L8.9937 10.3492L9.2037 12.5492V14.9692C9.2037 15.6392 8.7937 16.0792 8.1637 16.0792Z"
        fillRule="evenodd"
        clipRule="evenodd"
    />
</svg>
        