
<svg
    viewBox="0 0 27.890625 27.890625"
    xmlns="http://www.w3.org/2000/svg"
>
    <path
        fill="inherit"
        d="M13.9427 27.8864C21.6427 27.8864 27.8927 21.6464 27.8927 13.9464C27.8927 6.2464 21.6427 -0.0036 13.9427 -0.0036C6.2527 -0.0036 0.0027 6.2464 0.0027 13.9464C0.0027 21.6464 6.2527 27.8864 13.9427 27.8864ZM13.9427 25.5664C7.5227 25.5664 2.3227 20.3664 2.3227 13.9464C2.3227 7.5164 7.5227 2.3264 13.9427 2.3264C20.3727 2.3264 25.5627 7.5164 25.5627 13.9464C25.5627 20.3664 20.3727 25.5664 13.9427 25.5664ZM6.0427 15.1164C6.0427 15.6264 6.4927 16.0664 6.9827 16.0464L11.8027 15.9964C12.0427 15.9864 12.2727 15.8864 12.4327 15.7264C12.7927 15.3664 12.7927 14.8564 12.4427 14.5064C12.2627 14.3264 12.0427 14.2464 11.8127 14.2464L9.7927 14.2764L9.0127 14.2964L9.5027 13.8664L15.7627 7.5864C16.1227 7.2364 16.1327 6.6964 15.7627 6.3264C15.4127 5.9764 14.8727 5.9764 14.5027 6.3264L8.2427 12.6064L7.8027 13.0664L7.8327 12.3364L7.8627 10.2964C7.8727 10.0664 7.7827 9.8264 7.6127 9.6664C7.2427 9.2964 6.7227 9.2964 6.3727 9.6664C6.2227 9.8264 6.1127 10.0864 6.1127 10.3264ZM21.8227 12.7864C21.8227 12.2664 21.4127 11.8764 20.9027 11.8764L16.0927 11.9264C15.8727 11.9264 15.6127 12.0264 15.4627 12.1864C15.0827 12.5664 15.0827 13.0664 15.4527 13.4264C15.6227 13.5864 15.8327 13.6864 16.0627 13.6864L18.1127 13.6464L18.8827 13.6164L18.4027 14.0364L12.1127 20.3264C11.7627 20.6864 11.7627 21.2064 12.1227 21.5764C12.4827 21.9264 13.0127 21.9464 13.3727 21.5764L19.6427 15.3164L20.1127 14.8164L20.0527 15.5864L20.0327 17.6264C20.0327 17.8564 20.1127 18.0764 20.2727 18.2564C20.6327 18.6064 21.1527 18.6064 21.5227 18.2564C21.6727 18.1064 21.7527 17.8564 21.7627 17.6064Z"
        fillRule="evenodd"
        clipRule="evenodd"
    />
</svg>
        