
<svg
    viewBox={0 0 25.169921875 25.169921875}
    xmlns="http://www.w3.org/2000/svg"
>
    <path
        fill="inherit"
        d="M4.2937 25.1692H20.8737C23.7437 25.1692 25.1737 23.7592 25.1737 20.9492V4.2392C25.1737 1.4192 23.7437 -0.0008 20.8737 -0.0008H4.2937C1.4337 -0.0008 0.0037 1.4192 0.0037 4.2392V20.9492C0.0037 23.7592 1.4337 25.1692 4.2937 25.1692ZM6.3037 12.5792C5.7237 12.5792 5.2737 12.1292 5.2737 11.5492V6.4792C5.2737 5.6092 5.7137 5.2592 6.4837 5.2592H11.5437C12.1137 5.2592 12.5637 5.7292 12.5637 6.2992C12.5637 6.8792 12.1137 7.3292 11.5437 7.3292H10.8237L8.6137 7.1892L11.8637 10.2992C12.2937 10.7092 12.3037 11.4292 11.8837 11.8492C11.4537 12.2892 10.7437 12.3092 10.3237 11.8392L7.2037 8.5592L7.3437 10.8392V11.5492C7.3437 12.1292 6.8737 12.5792 6.3037 12.5792ZM13.6537 19.9192C13.0837 19.9192 12.6237 19.4592 12.6237 18.8792C12.6237 18.3092 13.0837 17.8592 13.6537 17.8592H14.3737L16.5837 17.9892L13.3137 14.8892C12.8937 14.4792 12.8837 13.7492 13.3037 13.3292C13.7437 12.8892 14.4337 12.8792 14.8737 13.3392L17.9937 16.6292L17.8537 14.3392V13.6292C17.8537 13.0592 18.3037 12.6092 18.8837 12.6092C19.4537 12.6092 19.9237 13.0592 19.9237 13.6292V18.6992C19.9237 19.5792 19.4737 19.9192 18.7037 19.9192Z"
        fillRule="evenodd"
        clipRule="evenodd"
    />
</svg>
        