
<svg
    viewBox={0 0 25.169921875 25.169921875}
    xmlns="http://www.w3.org/2000/svg"
>
    <path
        fill="inherit"
        d="M4.2937 25.1692H20.8737C23.7437 25.1692 25.1737 23.7592 25.1737 20.9492V4.2392C25.1737 1.4192 23.7437 -0.0008 20.8737 -0.0008H4.2937C1.4337 -0.0008 0.0037 1.4192 0.0037 4.2392V20.9492C0.0037 23.7592 1.4337 25.1692 4.2937 25.1692ZM4.3237 22.9692C2.9537 22.9692 2.2037 22.2392 2.2037 20.8192V4.3592C2.2037 2.9392 2.9537 2.1992 4.3237 2.1992H20.8537C22.2037 2.1992 22.9737 2.9392 22.9737 4.3592V20.8192C22.9737 22.2392 22.2037 22.9692 20.8537 22.9692ZM12.6037 19.4692C12.8937 19.4692 13.1237 19.3892 13.3937 19.1092L17.9137 14.7692C18.1137 14.5592 18.2237 14.3392 18.2237 14.0392C18.2237 13.4792 17.8037 13.0792 17.2237 13.0792C16.9637 13.0792 16.6837 13.1892 16.4837 13.4092L14.4137 15.6292L13.6037 16.4792L13.7037 14.4192V6.7392C13.7037 6.1692 13.1937 5.6892 12.6037 5.6892C12.0137 5.6892 11.5237 6.1692 11.5237 6.7392V14.4192L11.6037 16.4792L10.8037 15.6292L8.7237 13.4092C8.5337 13.1892 8.2337 13.0792 7.9737 13.0792C7.3937 13.0792 6.9837 13.4792 6.9837 14.0392C6.9837 14.3392 7.0937 14.5592 7.3137 14.7692L11.8137 19.1092C12.0837 19.3892 12.3337 19.4692 12.6037 19.4692Z"
        fillRule="evenodd"
        clipRule="evenodd"
    />
</svg>
        