<svg viewBox="0 0 29.764657892042084 32.01953125" xmlns="http://www.w3.org/2000/svg"><path d="M29.7647 2.0609C29.7647 0.6609 28.9047 0.0009 27.9147 0.0009C27.4447 0.0009 26.9447 0.1209 26.4947 0.4209L10.1547 11.6209C9.5147 12.0609 9.2147 12.6909 9.2147 13.3409C9.2147 14.3109 9.8547 15.2209 11.0647 15.2209H27.4147C29.0247 15.2209 29.7647 14.4809 29.7647 12.8509ZM6.0447 24.5509H4.2847V7.4609H6.0447C7.0147 7.4609 7.2447 6.7009 6.6847 5.9309L4.1747 2.4909C3.7447 1.9009 3.2647 1.9109 2.8447 2.4909L0.3047 5.9309C-0.2553 6.7009 -0.0353 7.4609 0.9747 7.4609H2.6947V24.5509H0.9747C-0.0253 24.5509 -0.2553 25.3209 0.3147 26.0709L2.8447 29.5309C3.2647 30.1009 3.7447 30.1209 4.1747 29.5309L6.7047 26.0709C7.2447 25.3209 7.0247 24.5509 6.0447 24.5509ZM29.7647 29.9509V19.1709C29.7647 17.5409 29.0247 16.8009 27.4147 16.8009H11.0647C9.8547 16.8009 9.2147 17.7009 9.2147 18.6609C9.2147 19.3309 9.5147 19.9609 10.1547 20.4009L26.4947 31.5909C26.9447 31.9009 27.4447 32.0209 27.9147 32.0209C28.9047 32.0209 29.7647 31.3609 29.7647 29.9509Z" /></svg>