
<svg
    viewBox="0 0 25.169921875 25.169921875"
    xmlns="http://www.w3.org/2000/svg"
>
    <path
        fill="inherit"
        d="M4.2937 25.1692H20.8737C23.7437 25.1692 25.1737 23.7592 25.1737 20.9492V4.2392C25.1737 1.4192 23.7437 -0.0008 20.8737 -0.0008H4.2937C1.4337 -0.0008 0.0037 1.4192 0.0037 4.2392V20.9492C0.0037 23.7592 1.4337 25.1692 4.2937 25.1692ZM5.4837 12.5692C5.4837 12.2592 5.5737 12.0292 5.8637 11.7392L10.3537 7.0992C10.5537 6.8792 10.7837 6.7692 11.0837 6.7692C11.6637 6.7692 12.0837 7.2092 12.0837 7.7892C12.0837 8.0692 11.9737 8.3692 11.7437 8.5592L9.4637 10.7092L8.6037 11.5292L10.7037 11.4292H18.6237C19.2237 11.4292 19.7137 11.9492 19.7137 12.5692C19.7137 13.1792 19.2237 13.6892 18.6237 13.6892H10.7037L8.5837 13.5992L9.4637 14.4192L11.7437 16.5692C11.9737 16.7592 12.0837 17.0792 12.0837 17.3492C12.0837 17.9392 11.6637 18.3592 11.0837 18.3592C10.7837 18.3592 10.5537 18.2492 10.3537 18.0292L5.8637 13.3892C5.5737 13.0992 5.4837 12.8492 5.4837 12.5692Z"
        fillRule="evenodd"
        clipRule="evenodd"
    />
</svg>
        