
<svg
    viewBox={0 0 32.01953125 29.75703745245656}
    xmlns="http://www.w3.org/2000/svg"
>
    <path
        fill="inherit"
        d="M7.4737 6.0331V4.2831H24.5537V6.0331C24.5537 7.0231 25.3237 7.2431 26.0837 6.6931L29.5337 4.1731C30.1237 3.7431 30.1037 3.2631 29.5337 2.8331L26.0837 0.3031C25.3237 -0.2669 24.5537 -0.0369 24.5537 0.9731V2.7031H7.4737V0.9731C7.4737 -0.0369 6.7037 -0.2669 5.9437 0.3031L2.4837 2.8331C1.9237 3.2631 1.9137 3.7531 2.4837 4.1731L5.9437 6.6931C6.7037 7.2531 7.4737 7.0231 7.4737 6.0331ZM2.0637 29.7531H12.8637C14.4737 29.7531 15.2137 29.0331 15.2137 27.4031V11.0631C15.2137 9.8631 14.3237 9.2231 13.3537 9.2231C12.7037 9.2231 12.0537 9.5231 11.6237 10.1531L0.4237 26.5031C0.1237 26.9431 0.0037 27.4431 0.0037 27.9131C0.0037 28.9131 0.6537 29.7531 2.0637 29.7531ZM29.9537 29.7531C31.3737 29.7531 32.0237 28.9131 32.0237 27.9131C32.0237 27.4431 31.8937 26.9431 31.5937 26.5031L20.4137 10.1531C19.9637 9.5231 19.3337 9.2231 18.6737 9.2231C17.7037 9.2231 16.8137 9.8631 16.8137 11.0631V27.4031C16.8137 29.0331 17.5437 29.7531 19.1637 29.7531Z"
        fillRule="evenodd"
        clipRule="evenodd"
    />
</svg>
        