
<svg
    viewBox="0 0 25.169921875 25.169921875"
    xmlns="http://www.w3.org/2000/svg"
>
    <path
        fill="inherit"
        d="M4.2937 25.1692H20.8737C23.7437 25.1692 25.1737 23.7592 25.1737 20.9492V4.2392C25.1737 1.4192 23.7437 -0.0008 20.8737 -0.0008H4.2937C1.4337 -0.0008 0.0037 1.4192 0.0037 4.2392V20.9492C0.0037 23.7592 1.4337 25.1692 4.2937 25.1692ZM4.3237 22.9692C2.9537 22.9692 2.2037 22.2392 2.2037 20.8192V4.3592C2.2037 2.9392 2.9537 2.1992 4.3237 2.1992H20.8537C22.2037 2.1992 22.9737 2.9392 22.9737 4.3592V20.8192C22.9737 22.2392 22.2037 22.9692 20.8537 22.9692ZM16.8737 15.9692C17.4737 15.9692 17.8837 15.4992 17.8837 14.8792V8.4192C17.8837 7.6192 17.4337 7.2992 16.7337 7.2992H10.2537C9.6137 7.2992 9.2037 7.6992 9.2037 8.2992C9.2037 8.8992 9.6237 9.2992 10.2837 9.2992H12.7737L14.7937 9.0792L12.6637 11.0592L7.6137 16.1092C7.4237 16.2992 7.3037 16.5692 7.3037 16.8392C7.3037 17.4592 7.6937 17.8592 8.3037 17.8592C8.6237 17.8592 8.8837 17.7292 9.0737 17.5392L14.1137 12.5092L16.0737 10.4092L15.8737 12.5392V14.8992C15.8737 15.5492 16.2737 15.9692 16.8737 15.9692Z"
        fillRule="evenodd"
        clipRule="evenodd"
    />
</svg>
        