
<svg
    viewBox={0 0 25.83984375 25.51171875}
    xmlns="http://www.w3.org/2000/svg"
>
    <path
        fill="inherit"
        d="M25.8437 16.7861C25.8437 11.5661 22.3037 7.9561 16.0637 7.9561H6.8737L3.6737 8.1061L6.2637 5.8961L10.2137 2.0361C10.4137 1.8161 10.5437 1.5561 10.5437 1.2061C10.5437 0.4961 10.0637 -0.0039 9.3237 -0.0039C9.0337 -0.0039 8.6837 0.1461 8.4537 0.3861L0.4137 8.2761C0.1337 8.5361 0.0037 8.8461 0.0037 9.1861C0.0037 9.5161 0.1337 9.8261 0.4137 10.0861L8.4537 17.9761C8.6837 18.2261 9.0337 18.3661 9.3237 18.3661C10.0637 18.3661 10.5437 17.8661 10.5437 17.1561C10.5437 16.8061 10.4137 16.5461 10.2137 16.3261L6.2637 12.4861L3.6737 10.2661L6.8737 10.4061H16.2737C20.9337 10.4061 23.3937 12.9761 23.3937 16.6561C23.3937 20.3461 20.9337 23.0761 16.2737 23.0761H13.1237C12.3737 23.0761 11.8837 23.6261 11.8837 24.2961C11.8837 24.9661 12.3737 25.5161 13.1237 25.5161H16.2837C22.3937 25.5161 25.8437 22.0261 25.8437 16.7861Z"
        fillRule="evenodd"
        clipRule="evenodd"
    />
</svg>
        