<svg viewBox="0 0 27.890625 27.890625" xmlns="http://www.w3.org/2000/svg"><path d="M13.9427 27.8864C21.6427 27.8864 27.8927 21.6464 27.8927 13.9464C27.8927 6.2464 21.6427 -0.0036 13.9427 -0.0036C6.2527 -0.0036 0.0027 6.2464 0.0027 13.9464C0.0027 21.6464 6.2527 27.8864 13.9427 27.8864ZM13.9427 25.5664C7.5227 25.5664 2.3227 20.3664 2.3227 13.9464C2.3227 7.5164 7.5227 2.3264 13.9427 2.3264C20.3727 2.3264 25.5627 7.5164 25.5627 13.9464C25.5627 20.3664 20.3727 25.5664 13.9427 25.5664ZM13.9427 7.0564C13.6727 7.0564 13.4227 7.1364 13.1527 7.4064L8.6427 11.7564C8.4327 11.9664 8.3227 12.1864 8.3227 12.4864C8.3227 13.0264 8.7327 13.4364 9.3127 13.4364C9.5727 13.4364 9.8727 13.3264 10.0627 13.1064L12.1427 10.8864L12.9427 10.0464L12.8627 12.0864V19.7864C12.8627 20.3564 13.3527 20.8364 13.9427 20.8364C14.5327 20.8364 15.0427 20.3564 15.0427 19.7864V12.0864L14.9427 10.0464L15.7527 10.8864L17.8327 13.1064C18.0227 13.3264 18.3027 13.4364 18.5627 13.4364C19.1427 13.4364 19.5627 13.0264 19.5627 12.4864C19.5627 12.1864 19.4527 11.9664 19.2327 11.7564L14.7427 7.4064C14.4627 7.1364 14.2227 7.0564 13.9427 7.0564Z" /></svg>