<svg viewBox="0 0 20.193359375 20.1796875" xmlns="http://www.w3.org/2000/svg"><path d="M0.0037 5.1136L0.0137 18.8636C0.0137 19.6436 0.5237 20.1836 1.3437 20.1836H15.0937C15.8637 20.1836 16.3837 19.6036 16.3837 18.9536C16.3837 18.2936 15.7937 17.7336 15.1437 17.7336H10.3937L3.7237 17.9536L6.2637 15.7136L19.8137 2.1436C20.0537 1.9036 20.1937 1.5736 20.1937 1.2836C20.1937 0.6336 19.5937 0.0036 18.9037 0.0036C18.6037 0.0036 18.3037 0.1236 18.0437 0.3736L4.4837 13.9436L2.2237 16.4836L2.4737 10.1036V5.0536C2.4737 4.4036 1.9137 3.8136 1.2437 3.8136C0.5737 3.8136 0.0037 4.3636 0.0037 5.1136Z" /></svg>