<svg viewBox="0 0 35.99605611689408 25.612566878986662" xmlns="http://www.w3.org/2000/svg"><path d="M4.4417 25.2365L7.1717 21.5865C7.7217 20.8465 7.4317 19.9165 6.4617 19.9165H4.5217V5.6965H6.4617C7.4117 5.6965 7.7517 4.7965 7.1717 4.0265L4.4417 0.3665C4.0717 -0.1235 3.3617 -0.1135 3.0017 0.3665L0.2717 4.0265C-0.2883 4.7965 0.0517 5.6965 0.9817 5.6965H2.9417V19.9165H0.9817C0.0517 19.9165 -0.2883 20.8165 0.2717 21.5865L3.0017 25.2365C3.3717 25.7365 4.0717 25.7365 4.4417 25.2365ZM13.0517 3.1665H34.8917C35.5017 3.1665 35.9917 2.6865 35.9917 2.0765C35.9917 1.4565 35.5017 0.9665 34.8917 0.9665H13.0517C12.4217 0.9665 11.9517 1.4565 11.9517 2.0765C11.9517 2.6865 12.4217 3.1665 13.0517 3.1665ZM13.0517 10.3265H34.8917C35.5017 10.3265 35.9917 9.8365 35.9917 9.2265C35.9917 8.6065 35.5017 8.1265 34.8917 8.1265H13.0517C12.4217 8.1265 11.9517 8.6065 11.9517 9.2265C11.9517 9.8365 12.4217 10.3265 13.0517 10.3265ZM13.0517 17.4765H34.8917C35.5017 17.4765 35.9917 17.0065 35.9917 16.3865C35.9917 15.7565 35.5017 15.2765 34.8917 15.2765H13.0517C12.4217 15.2765 11.9517 15.7565 11.9517 16.3865C11.9517 17.0065 12.4217 17.4765 13.0517 17.4765ZM13.0517 24.6365H24.8017C25.4117 24.6365 25.9017 24.1565 25.9017 23.5365C25.9017 22.9265 25.4117 22.4265 24.8017 22.4265H13.0517C12.4217 22.4265 11.9517 22.9265 11.9517 23.5365C11.9517 24.1565 12.4217 24.6365 13.0517 24.6365Z" /></svg>