
<svg
    viewBox={0 0 27.890625 27.890625}
    xmlns="http://www.w3.org/2000/svg"
>
    <path
        fill="inherit"
        d="M13.9427 27.8864C21.6427 27.8864 27.8927 21.6464 27.8927 13.9464C27.8927 6.2464 21.6427 -0.0036 13.9427 -0.0036C6.2527 -0.0036 0.0027 6.2464 0.0027 13.9464C0.0027 21.6464 6.2527 27.8864 13.9427 27.8864ZM13.9427 25.5664C7.5227 25.5664 2.3227 20.3664 2.3227 13.9464C2.3227 7.5164 7.5227 2.3264 13.9427 2.3264C20.3727 2.3264 25.5627 7.5164 25.5627 13.9464C25.5627 20.3664 20.3727 25.5664 13.9427 25.5664ZM12.6627 19.8264C13.1527 19.8264 13.5227 19.4564 13.5227 18.9664V16.1464H13.7427C16.5827 16.1464 18.3927 16.8664 19.6627 19.2764C19.9227 19.7464 20.2527 19.8264 20.5627 19.8264C20.9427 19.8264 21.3327 19.4864 21.3327 18.8364C21.3327 13.3964 19.0027 10.0364 13.7427 10.0364H13.5227V7.2464C13.5227 6.7564 13.1527 6.3464 12.6427 6.3464C12.2927 6.3464 12.0627 6.5064 11.6727 6.8664L5.8527 12.2864C5.5827 12.5464 5.4827 12.8364 5.4827 13.0864C5.4827 13.3264 5.5827 13.6164 5.8527 13.8764L11.6727 19.3464C12.0127 19.6564 12.3027 19.8264 12.6627 19.8264Z"
        fillRule="evenodd"
        clipRule="evenodd"
    />
</svg>
        