<svg viewBox="0 0 27.890625 27.890625" xmlns="http://www.w3.org/2000/svg"><path d="M13.9427 27.8864C21.6427 27.8864 27.8927 21.6464 27.8927 13.9464C27.8927 6.2464 21.6427 -0.0036 13.9427 -0.0036C6.2527 -0.0036 0.0027 6.2464 0.0027 13.9464C0.0027 21.6464 6.2527 27.8864 13.9427 27.8864ZM13.9427 25.5664C7.5227 25.5664 2.3227 20.3664 2.3227 13.9464C2.3227 7.5164 7.5227 2.3264 13.9427 2.3264C20.3727 2.3264 25.5627 7.5164 25.5627 13.9464C25.5627 20.3664 20.3727 25.5664 13.9427 25.5664ZM19.8127 19.9764C20.3527 19.9764 20.7427 19.6064 20.7427 19.0764V8.8064C20.7427 8.2764 20.3527 7.9064 19.8127 7.9064C19.2927 7.9064 18.9127 8.2764 18.9127 8.8064V19.0764C18.9127 19.6064 19.2927 19.9764 19.8127 19.9764ZM5.4827 13.9564C5.4827 14.5064 5.8627 14.8764 6.3827 14.8764H12.6627L15.1727 14.7264L12.4027 17.1864L11.5227 17.9964C11.3327 18.1564 11.2527 18.3764 11.2527 18.6464C11.2527 19.1864 11.6327 19.5364 12.1527 19.5364C12.3727 19.5364 12.6627 19.4164 12.8527 19.2364L17.5527 14.6464C17.7627 14.4464 17.8527 14.2064 17.8527 13.9564C17.8527 13.6964 17.7427 13.4664 17.5527 13.2664L12.8427 8.6264C12.6327 8.4264 12.4027 8.3364 12.1527 8.3364C11.6627 8.3364 11.2527 8.6964 11.2527 9.2164C11.2527 9.4564 11.3327 9.7064 11.5227 9.8864L12.3827 10.7364L15.1627 13.1964L12.6627 13.0464H6.3827C5.8627 13.0464 5.4827 13.4264 5.4827 13.9564Z" /></svg>