
<svg
    viewBox="0 0 25.169921875 25.169921875"
    xmlns="http://www.w3.org/2000/svg"
>
    <path
        fill="inherit"
        d="M4.2937 25.1692H20.8737C23.7437 25.1692 25.1737 23.7592 25.1737 20.9492V4.2392C25.1737 1.4192 23.7437 -0.0008 20.8737 -0.0008H4.2937C1.4337 -0.0008 0.0037 1.4192 0.0037 4.2392V20.9492C0.0037 23.7592 1.4337 25.1692 4.2937 25.1692ZM19.5637 14.1092C19.5637 17.3792 17.3537 19.5092 14.0537 19.5092H12.2137C11.5537 19.5092 11.1137 19.0992 11.1137 18.4892C11.1137 17.8792 11.5437 17.4692 12.1837 17.4692H14.0537C16.1237 17.4692 17.5237 16.1292 17.5237 14.1092C17.5237 12.2392 16.1437 10.9892 14.0637 10.9892H10.0737L8.6637 10.9392L9.3137 11.3892L10.9637 12.9892C11.1737 13.1892 11.2937 13.4392 11.2937 13.7392C11.2937 14.3292 10.8437 14.7892 10.2837 14.7892C9.9637 14.7892 9.7237 14.6792 9.5337 14.4892L5.9437 10.8292C5.6837 10.5692 5.5737 10.2692 5.5737 9.9692C5.5737 9.6492 5.7037 9.3492 5.9437 9.0892L9.5137 5.4692C9.7237 5.2592 9.9537 5.1692 10.2637 5.1692C10.8537 5.1692 11.2937 5.6192 11.2937 6.2192C11.2937 6.4892 11.1737 6.7692 10.9637 6.9492L9.5837 8.2892L8.6537 9.0192L10.0737 8.9592H14.0637C17.3637 8.9592 19.5637 11.0092 19.5637 14.1092Z"
        fillRule="evenodd"
        clipRule="evenodd"
    />
</svg>
        