<svg viewBox="0 0 27.890625 27.890625" xmlns="http://www.w3.org/2000/svg"><path d="M13.9427 27.8874C21.6427 27.8874 27.8927 21.6474 27.8927 13.9474C27.8927 6.2574 21.6427 -0.0026 13.9427 -0.0026C6.2627 -0.0026 0.0027 6.2574 0.0027 13.9474C0.0027 21.6474 6.2627 27.8874 13.9427 27.8874ZM12.5127 20.7774C9.2527 20.7774 7.1127 18.5674 7.1127 15.2574V13.4274C7.1127 12.7674 7.5227 12.3174 8.1327 12.3174C8.7327 12.3174 9.1427 12.7574 9.1427 13.3974V15.2574C9.1427 17.3174 10.5027 18.7274 12.5127 18.7274C14.3827 18.7274 15.6227 17.3474 15.6227 15.2674V11.2774L15.6927 9.8674L15.2327 10.5174L13.6327 12.1774C13.4427 12.3774 13.1827 12.4974 12.8827 12.4974C12.2927 12.4974 11.8427 12.0574 11.8427 11.4874C11.8427 11.1874 11.9327 10.9274 12.1227 10.7474L15.7927 7.1474C16.0527 6.9074 16.3527 6.7774 16.6627 6.7774C16.9627 6.7774 17.2627 6.9174 17.5227 7.1474L21.1527 10.7274C21.3527 10.9274 21.4527 11.1674 21.4527 11.4674C21.4527 12.0574 20.9827 12.4974 20.4127 12.4974C20.1227 12.4974 19.8527 12.3774 19.6727 12.1774L18.3327 10.7874L17.6127 9.8574L17.6627 11.2774V15.2674C17.6627 18.5774 15.6127 20.7774 12.5127 20.7774Z" /></svg>