
<svg
    viewBox="0 0 32.23828125 25.169921875"
    xmlns="http://www.w3.org/2000/svg"
>
    <path
        fill="inherit"
        d="M4.2937 25.1692H27.9437C30.8137 25.1692 32.2337 23.7592 32.2337 20.9492V4.2392C32.2337 1.4192 30.8137 -0.0008 27.9437 -0.0008H4.2937C1.4337 -0.0008 0.0037 1.4192 0.0037 4.2392V20.9492C0.0037 23.7592 1.4337 25.1692 4.2937 25.1692ZM4.3237 22.9692C2.9537 22.9692 2.2037 22.2392 2.2037 20.8192V4.3592C2.2037 2.9392 2.9537 2.1992 4.3237 2.1992H27.9137C29.2737 2.1992 30.0337 2.9392 30.0337 4.3592V20.8192C30.0337 22.2392 29.2737 22.9692 27.9137 22.9692ZM14.4337 4.6892C13.8637 4.6892 13.4837 5.1092 13.4837 5.7192V7.3692L13.6437 9.1592L11.9537 7.3692L9.1337 4.5392C8.9437 4.3492 8.6937 4.2392 8.3837 4.2392C7.8237 4.2392 7.4237 4.6392 7.4237 5.2192C7.4237 5.4792 7.5637 5.7392 7.7337 5.9192L10.5537 8.7592L12.3837 10.4492L10.6937 10.2792H8.9137C8.3037 10.2792 7.8937 10.6592 7.8937 11.2392C7.8937 11.8092 8.3037 12.2092 8.8837 12.2092H14.3237C14.9837 12.2092 15.4037 11.8792 15.4037 11.1292V5.7392C15.4037 5.1392 15.0137 4.6892 14.4337 4.6892ZM17.8037 20.4792C18.3737 20.4792 18.7537 20.0692 18.7537 19.4692V17.8192L18.5937 16.0092L20.2937 17.8192L23.1037 20.6292C23.2937 20.8192 23.5437 20.9292 23.8537 20.9292C24.4137 20.9292 24.8237 20.5492 24.8237 19.9592C24.8237 19.6992 24.6937 19.4292 24.5137 19.2492L21.6837 16.4192L19.8537 14.7392L21.5437 14.8992H23.3237C23.9437 14.8992 24.3637 14.5192 24.3637 13.9492C24.3637 13.3692 23.9437 12.9792 23.3537 12.9792H17.9237C17.2637 12.9792 16.8337 13.2892 16.8337 14.0592V19.4392C16.8337 20.0392 17.2237 20.4792 17.8037 20.4792Z"
        fillRule="evenodd"
        clipRule="evenodd"
    />
</svg>
        