
<svg
    viewBox="0 0 25.169921875 25.169921875"
    xmlns="http://www.w3.org/2000/svg"
>
    <path
        fill="inherit"
        d="M4.2937 25.1692H20.8737C23.7437 25.1692 25.1737 23.7592 25.1737 20.9492V4.2392C25.1737 1.4192 23.7437 -0.0008 20.8737 -0.0008H4.2937C1.4337 -0.0008 0.0037 1.4192 0.0037 4.2392V20.9492C0.0037 23.7592 1.4337 25.1692 4.2937 25.1692ZM4.3237 22.9692C2.9537 22.9692 2.2037 22.2392 2.2037 20.8192V4.3592C2.2037 2.9392 2.9537 2.1992 4.3237 2.1992H20.8537C22.2037 2.1992 22.9737 2.9392 22.9737 4.3592V20.8192C22.9737 22.2392 22.2037 22.9692 20.8537 22.9692ZM6.1937 7.8292C5.8237 8.1892 5.8337 8.8192 6.1937 9.1592L9.6237 12.5192C9.8037 12.6692 10.0637 12.7792 10.2637 12.7792C10.7837 12.7792 11.1437 12.4292 11.1437 11.9192C11.1437 11.6792 11.0437 11.4592 10.8837 11.2892L9.4337 9.8892L8.8637 9.3492L9.5037 9.3892H18.3937C18.8937 9.3892 19.2637 8.9992 19.2637 8.4892C19.2637 7.9892 18.8937 7.6192 18.3937 7.6192H9.5137L8.8737 7.6292L9.4337 7.1192L10.8837 5.7192C11.0437 5.5492 11.1437 5.3192 11.1437 5.0892C11.1437 4.5692 10.7837 4.2092 10.2637 4.2092C10.0537 4.2092 9.7937 4.3192 9.6237 4.4992ZM18.9937 17.3392C19.3637 16.9692 19.3437 16.4092 18.9937 16.0492L15.5437 12.6892C15.3937 12.5192 15.1337 12.4092 14.9037 12.4092C14.3837 12.4092 14.0237 12.7692 14.0237 13.2792C14.0237 13.5192 14.1237 13.7392 14.2837 13.9092L15.7637 15.3092L16.3237 15.8492L15.6637 15.8092H6.7937C6.3037 15.8092 5.9237 16.1692 5.9237 16.6892C5.9237 17.1992 6.2937 17.5792 6.7937 17.5792H15.6537L16.3237 17.5692L15.7637 18.0692L14.3037 19.4792C14.1337 19.6592 14.0237 19.8692 14.0237 20.1092C14.0237 20.6192 14.4137 20.9892 14.9037 20.9892C15.1037 20.9892 15.3637 20.8792 15.5437 20.7092Z"
        fillRule="evenodd"
        clipRule="evenodd"
    />
</svg>
        