<svg viewBox="0 0 25.169921875 25.169921875" xmlns="http://www.w3.org/2000/svg"><path d="M4.2937 25.1733H20.8737C23.7437 25.1733 25.1737 23.7433 25.1737 20.9333V4.2233C25.1737 1.4033 23.7437 0.0033 20.8737 0.0033H4.2937C1.4337 0.0033 0.0037 1.4033 0.0037 4.2233V20.9333C0.0037 23.7433 1.4337 25.1733 4.2937 25.1733ZM4.3237 22.9733C2.9537 22.9733 2.2037 22.2333 2.2037 20.8133V4.3433C2.2037 2.9233 2.9537 2.2033 4.3237 2.2033H20.8537C22.2037 2.2033 22.9737 2.9233 22.9737 4.3433V20.8133C22.9737 22.2333 22.2037 22.9733 20.8537 22.9733ZM5.5237 14.2333C5.5237 17.5233 7.9037 19.5633 11.0837 19.5633H12.9637C13.5737 19.5633 14.0237 19.2233 14.0237 18.5933C14.0237 17.9633 13.5737 17.6133 12.9837 17.6133H11.0837C9.0237 17.6133 7.5337 16.2833 7.5337 14.1233C7.5337 12.0133 9.0637 10.8733 11.0737 10.8733H15.1637L16.7737 10.8133L15.9837 11.4033L14.2737 13.0433C14.0637 13.2233 13.9737 13.4933 13.9737 13.7533C13.9737 14.3133 14.3937 14.7533 14.9437 14.7533C15.2337 14.7533 15.4537 14.6533 15.6437 14.4633L19.2937 10.7333C19.5237 10.5033 19.6637 10.2233 19.6637 9.9133C19.6637 9.5833 19.5237 9.2933 19.2937 9.0633L15.6537 5.3833C15.4637 5.1833 15.2437 5.0833 14.9537 5.0833C14.3937 5.0833 13.9737 5.5133 13.9737 6.0833C13.9737 6.3533 14.0937 6.6133 14.2837 6.7833L15.6937 8.1533L16.7737 9.0133L15.1637 8.9533H11.0737C7.8937 8.9533 5.5237 10.9533 5.5237 14.2333Z" /></svg>