
<svg
    viewBox={0 0 27.890625 27.890625}
    xmlns="http://www.w3.org/2000/svg"
>
    <path
        fill="inherit"
        d="M13.9427 27.8905C21.6427 27.8905 27.8927 21.6405 27.8927 13.9405C27.8927 6.2605 21.6427 0.0005 13.9427 0.0005C6.2627 0.0005 0.0027 6.2605 0.0027 13.9405C0.0027 21.6405 6.2627 27.8905 13.9427 27.8905ZM15.4227 6.7805C18.6927 6.7805 20.8227 9.0105 20.8227 12.3005V14.1405C20.8227 14.7905 20.4127 15.2405 19.7927 15.2405C19.1927 15.2405 18.7827 14.8105 18.7827 14.1605V12.3005C18.7827 10.2405 17.4427 8.8305 15.4227 8.8305C13.5527 8.8305 12.3027 10.2105 12.3027 12.2905V16.2805L12.2327 17.6905L12.7027 17.0505L14.3027 15.3805C14.4927 15.1905 14.7527 15.0705 15.0527 15.0705C15.6427 15.0705 16.1027 15.5005 16.1027 16.0805C16.1027 16.3805 15.9927 16.6405 15.8027 16.8205L12.1427 20.4105C11.8827 20.6705 11.5827 20.7805 11.2827 20.7805C10.9627 20.7805 10.6627 20.6605 10.4027 20.4105L6.7827 16.8305C6.5727 16.6405 6.4827 16.3905 6.4827 16.0905C6.4827 15.5005 6.9427 15.0705 7.5227 15.0705C7.8027 15.0705 8.0827 15.1905 8.2627 15.3805L9.5927 16.7705L10.3327 17.7005L10.2627 16.2805V12.2905C10.2627 9.0005 12.3227 6.7805 15.4227 6.7805Z"
        fillRule="evenodd"
        clipRule="evenodd"
    />
</svg>
        