<svg viewBox="0 0 27.890625 27.890625" xmlns="http://www.w3.org/2000/svg"><path d="M13.9427 27.8927C21.6427 27.8927 27.8927 21.6427 27.8927 13.9427C27.8927 6.2627 21.6427 0.0027 13.9427 0.0027C6.2627 0.0027 0.0027 6.2627 0.0027 13.9427C0.0027 21.6427 6.2627 27.8927 13.9427 27.8927ZM5.3327 13.9427C5.3327 13.6827 5.4327 13.4127 5.7327 13.1127L11.7827 7.4627C12.1927 7.0827 12.4327 6.9227 12.7927 6.9227C13.3427 6.9227 13.7227 7.3527 13.7227 7.8627V10.9227H20.0927C21.2227 10.9227 21.8627 11.5627 21.8627 12.6427V15.2627C21.8627 16.3427 21.2227 16.9827 20.0927 16.9827H13.7227V20.0827C13.7227 20.6127 13.3427 20.9727 12.8227 20.9727C12.4427 20.9727 12.1527 20.8127 11.7827 20.4827L5.7327 14.7627C5.4327 14.4927 5.3327 14.1927 5.3327 13.9427Z" /></svg>