
<svg
    viewBox="0 0 34.37109375 23.76171875"
    xmlns="http://www.w3.org/2000/svg"
>
    <path
        fill="inherit"
        d="M27.0127 23.7594C31.1427 23.7594 34.3727 20.7394 34.3727 16.9794C34.3727 14.1094 32.7127 11.6194 30.0527 10.4994C30.0827 4.3994 25.6927 -0.0006 20.0927 -0.0006C16.3927 -0.0006 13.7527 1.9794 12.1127 4.3794C8.7527 3.3894 5.0827 5.9494 5.0127 9.7794C1.9327 10.2694 0.0027 13.0294 0.0027 16.3694C0.0027 20.3894 3.5127 23.7594 8.1927 23.7594ZM13.8227 9.8894C13.4227 9.4594 13.5727 8.8894 14.0927 8.4594C15.0527 7.6594 16.4427 7.1594 17.8327 7.1594C20.9827 7.1594 23.4927 9.2994 24.0327 12.3694H25.1327C25.6527 12.3694 25.7727 12.8694 25.4827 13.2794L23.7027 15.7794C23.3927 16.2194 22.8627 16.1694 22.5627 15.7794L20.7627 13.2794C20.4527 12.8694 20.6027 12.3694 21.1227 12.3694H22.3427C21.8427 10.4194 20.0327 8.9394 17.8327 8.9394C16.7627 8.9394 15.9527 9.2594 15.1627 9.8994C14.7227 10.2294 14.2027 10.2794 13.8227 9.8894ZM10.1327 13.5094L11.9127 10.9894C12.2227 10.5594 12.7527 10.5994 13.0527 10.9894L14.8427 13.5094C15.1627 13.8994 15.0127 14.4094 14.4927 14.4094H13.3327C13.8327 16.3694 15.6727 17.8294 17.8427 17.8294C18.9227 17.8294 19.7127 17.4994 20.4927 16.8694C20.9727 16.5394 21.4627 16.4894 21.8627 16.8894C22.2627 17.3194 22.1227 17.8994 21.5927 18.3194C20.6127 19.1294 19.2327 19.6094 17.8427 19.6094C14.6927 19.6094 12.1927 17.4694 11.6527 14.4094H10.4827C9.9627 14.4094 9.8427 13.8994 10.1327 13.5094Z"
        fillRule="evenodd"
        clipRule="evenodd"
    />
</svg>
        