
<svg
    viewBox="0 0 33.359883753966216 27.890625"
    xmlns="http://www.w3.org/2000/svg"
>
    <path
        fill="inherit"
        d="M16.679 -0.0036C9.759 -0.0036 4.009 5.0564 2.939 11.6764H0.969C-0.011 11.6764 -0.261 12.3364 0.279 13.0964L3.339 17.4464C3.789 18.0864 4.449 18.0764 4.879 17.4464L7.949 13.0864C8.469 12.3364 8.219 11.6764 7.249 11.6764H5.319C6.349 6.3464 11.039 2.3264 16.679 2.3264C20.099 2.3264 23.179 3.7864 25.309 6.1564C25.879 6.7664 26.469 6.7364 26.909 6.4164C27.429 6.0564 27.619 5.2464 27.059 4.6364C24.499 1.7764 20.779 -0.0036 16.679 -0.0036ZM16.679 27.8864C23.599 27.8864 29.359 22.8364 30.419 16.2164H32.389C33.359 16.2164 33.619 15.5464 33.089 14.7964L30.029 10.4364C29.579 9.8064 28.919 9.8164 28.479 10.4364L25.419 14.8064C24.899 15.5464 25.149 16.2164 26.119 16.2164H28.039C27.019 21.5464 22.329 25.5664 16.679 25.5664C13.259 25.5664 10.189 24.0864 8.059 21.7264C7.479 21.1264 6.889 21.1464 6.459 21.4664C5.939 21.8364 5.749 22.6264 6.309 23.2564C8.859 26.1164 12.579 27.8864 16.679 27.8864Z"
        fillRule="evenodd"
        clipRule="evenodd"
    />
</svg>
        