<svg viewBox="0 0 27.890625 27.890625" xmlns="http://www.w3.org/2000/svg"><path d="M13.9427 27.8864C21.6427 27.8864 27.8927 21.6464 27.8927 13.9464C27.8927 6.2464 21.6427 -0.0036 13.9427 -0.0036C6.2527 -0.0036 0.0027 6.2464 0.0027 13.9464C0.0027 21.6464 6.2527 27.8864 13.9427 27.8864ZM13.9427 25.5664C7.5227 25.5664 2.3227 20.3664 2.3227 13.9464C2.3227 7.5164 7.5227 2.3264 13.9427 2.3264C20.3727 2.3264 25.5627 7.5164 25.5627 13.9464C25.5627 20.3664 20.3727 25.5664 13.9427 25.5664ZM18.8227 20.3564L22.1727 16.9264C22.3427 16.7464 22.4627 16.5064 22.4627 16.2864C22.4627 15.7664 22.0927 15.4064 21.5927 15.4064C21.3427 15.4064 21.1127 15.5064 20.9627 15.6664L19.5527 17.1164L19.0327 17.6764L19.0627 17.0364V8.1664C19.0627 7.6564 18.6727 7.2864 18.1727 7.2864C17.6627 7.2864 17.2827 7.6564 17.2827 8.1664V17.0464L17.3127 17.6864L16.7927 17.1164L15.3827 15.6664C15.2027 15.4864 15.0027 15.4064 14.7527 15.4064C14.2327 15.4064 13.8927 15.7664 13.8927 16.2864C13.8927 16.4864 13.9827 16.7364 14.1327 16.9264L17.5027 20.3564C17.8327 20.6864 18.4527 20.7364 18.8227 20.3564ZM9.0527 7.5564L5.6727 11.0064C5.5227 11.1864 5.4027 11.4464 5.4027 11.6364C5.4027 12.1364 5.7827 12.5264 6.2927 12.5264C6.5227 12.5264 6.7427 12.4164 6.9027 12.2464L8.3127 10.7864L8.8327 10.2264L8.8027 10.8964V19.7564C8.8027 20.2464 9.1827 20.6164 9.6927 20.6164C10.2127 20.6164 10.5827 20.2464 10.5827 19.7564V10.8864L10.5527 10.2264L11.0727 10.7864L12.4927 12.2664C12.6627 12.4264 12.8827 12.5264 13.1127 12.5264C13.6127 12.5264 13.9727 12.1564 13.9727 11.6364C13.9727 11.4164 13.8627 11.1564 13.7127 11.0064L10.3527 7.5564C10.0227 7.2164 9.4427 7.1664 9.0527 7.5564Z" /></svg>