
<svg
    viewBox="0 0 25.169921875 25.169921875"
    xmlns="http://www.w3.org/2000/svg"
>
    <path
        fill="inherit"
        d="M4.2937 25.1692H20.8737C23.7437 25.1692 25.1737 23.7592 25.1737 20.9492V4.2392C25.1737 1.4192 23.7437 -0.0008 20.8737 -0.0008H4.2937C1.4337 -0.0008 0.0037 1.4192 0.0037 4.2392V20.9492C0.0037 23.7592 1.4337 25.1692 4.2937 25.1692ZM18.8837 13.2192C18.8837 16.7492 16.0737 19.5892 12.5937 19.5892C9.1037 19.5892 6.3137 16.7492 6.3137 13.2792C6.3137 12.7392 6.7537 12.3192 7.2737 12.3192C7.8237 12.3192 8.2537 12.7392 8.2537 13.2792C8.2537 15.6992 10.1837 17.6392 12.5937 17.6392C15.0137 17.6392 16.9437 15.6992 16.9437 13.2792C16.9437 10.8692 15.0137 8.9392 12.5937 8.9392C12.4137 8.9392 12.2337 8.9392 12.1037 8.9692L13.4537 10.3192C13.6337 10.4892 13.7237 10.7192 13.7237 10.9692C13.7237 11.4692 13.3437 11.8692 12.8237 11.8692C12.6037 11.8692 12.3637 11.7392 12.2137 11.5892L9.4737 8.8592C9.1337 8.5292 9.1437 7.8992 9.4737 7.5592L12.1837 4.7992C12.3437 4.6192 12.5737 4.5092 12.8237 4.5092C13.3437 4.5092 13.7237 4.9192 13.7237 5.4092C13.7237 5.6692 13.6137 5.9092 13.4837 6.0692L12.4937 7.0792C12.5937 7.0692 12.7437 7.0592 12.8637 7.0592C16.0337 7.0592 18.8837 9.7792 18.8837 13.2192Z"
        fillRule="evenodd"
        clipRule="evenodd"
    />
</svg>
        