
<svg
    viewBox={0 0 27.890625 27.890625}
    xmlns="http://www.w3.org/2000/svg"
>
    <path
        fill="inherit"
        d="M13.9427 27.8864C21.6427 27.8864 27.8927 21.6464 27.8927 13.9464C27.8927 6.2464 21.6427 -0.0036 13.9427 -0.0036C6.2527 -0.0036 0.0027 6.2464 0.0027 13.9464C0.0027 21.6464 6.2527 27.8864 13.9427 27.8864ZM13.9427 25.5664C7.5227 25.5664 2.3227 20.3664 2.3227 13.9464C2.3227 7.5164 7.5227 2.3264 13.9427 2.3264C20.3727 2.3264 25.5627 7.5164 25.5627 13.9464C25.5627 20.3664 20.3727 25.5664 13.9427 25.5664ZM13.2027 19.0964C13.5327 19.6764 14.3327 19.6964 14.6827 19.0964L19.2627 11.3164C19.6427 10.6764 19.3627 9.9564 18.7027 9.9564H9.1727C8.5127 9.9564 8.2427 10.7364 8.6027 11.3164Z"
        fillRule="evenodd"
        clipRule="evenodd"
    />
</svg>
        