
<svg
    viewBox={0 0 25.169921875 25.169921875}
    xmlns="http://www.w3.org/2000/svg"
>
    <path
        fill="inherit"
        d="M4.2937 25.1692H20.8737C23.7437 25.1692 25.1737 23.7592 25.1737 20.9492V4.2392C25.1737 1.4192 23.7437 -0.0008 20.8737 -0.0008H4.2937C1.4337 -0.0008 0.0037 1.4192 0.0037 4.2392V20.9492C0.0037 23.7592 1.4337 25.1692 4.2937 25.1692ZM4.3237 22.9692C2.9537 22.9692 2.2037 22.2392 2.2037 20.8192V4.3592C2.2037 2.9392 2.9537 2.1992 4.3237 2.1992H20.8537C22.2037 2.1992 22.9737 2.9392 22.9737 4.3592V20.8192C22.9737 22.2392 22.2037 22.9692 20.8537 22.9692ZM8.3037 9.1892C7.6937 9.1892 7.3037 9.6392 7.3037 10.2792V16.7392C7.3037 17.5392 7.7337 17.8592 8.4337 17.8592H14.9137C15.5537 17.8592 15.9737 17.4592 15.9737 16.8592C15.9737 16.2592 15.5437 15.8592 14.8937 15.8592H12.4037L10.3737 16.0792L12.5137 14.0792L17.5537 9.0492C17.7437 8.8592 17.8837 8.5892 17.8837 8.3092C17.8837 7.6992 17.4737 7.2992 16.8737 7.2992C16.5437 7.2992 16.2937 7.4192 16.0937 7.6192L11.0637 12.6492L9.0937 14.7492L9.2937 12.6192V10.2492C9.2937 9.5992 8.9037 9.1892 8.3037 9.1892Z"
        fillRule="evenodd"
        clipRule="evenodd"
    />
</svg>
        