
<svg
    viewBox="0 0 25.169921875 25.169921875"
    xmlns="http://www.w3.org/2000/svg"
>
    <path
        fill="inherit"
        d="M4.2937 25.1692H20.8737C23.7437 25.1692 25.1737 23.7592 25.1737 20.9492V4.2392C25.1737 1.4192 23.7437 -0.0008 20.8737 -0.0008H4.2937C1.4337 -0.0008 0.0037 1.4192 0.0037 4.2392V20.9492C0.0037 23.7592 1.4337 25.1692 4.2937 25.1692ZM4.3237 22.9692C2.9537 22.9692 2.2037 22.2392 2.2037 20.8192V4.3592C2.2037 2.9392 2.9537 2.1992 4.3237 2.1992H20.8537C22.2037 2.1992 22.9737 2.9392 22.9737 4.3592V20.8192C22.9737 22.2392 22.2037 22.9692 20.8537 22.9692ZM4.7137 13.7492C4.7137 14.2592 5.1537 14.6992 5.6437 14.6792L10.4637 14.6292C10.7037 14.6192 10.9537 14.5192 11.0837 14.3592C11.4537 13.9992 11.4537 13.4892 11.1037 13.1392C10.9237 12.9592 10.7037 12.8792 10.4737 12.8792L8.4537 12.9092L7.6737 12.9292L8.1637 12.4992L14.4237 6.2192C14.7837 5.8692 14.7937 5.3292 14.4237 4.9592C14.0837 4.6092 13.5337 4.6092 13.1637 4.9592L6.9037 11.2392L6.4637 11.6992L6.5037 10.9692L6.5337 8.9292C6.5537 8.6992 6.4437 8.4592 6.2737 8.2992C5.9037 7.9292 5.3837 7.9292 5.0337 8.2992C4.8837 8.4592 4.7737 8.7192 4.7737 8.9592ZM20.4837 11.4192C20.4837 10.8992 20.0737 10.5092 19.5637 10.5092L14.7537 10.5592C14.5337 10.5592 14.2737 10.6592 14.1237 10.8192C13.7537 11.1992 13.7537 11.6992 14.1137 12.0592C14.2837 12.2192 14.5037 12.3192 14.7237 12.3192L16.7737 12.2792L17.5537 12.2492L17.0637 12.6692L10.7837 18.9592C10.4137 19.3192 10.4137 19.8392 10.7837 20.2092C11.1437 20.5592 11.6737 20.5792 12.0337 20.2092L18.3037 13.9492L18.7737 13.4492L18.7137 14.2192L18.6937 16.2592C18.6937 16.4892 18.7737 16.7092 18.9337 16.8892C19.2937 17.2392 19.8237 17.2392 20.1937 16.8892C20.3337 16.7392 20.4137 16.4892 20.4237 16.2392Z"
        fillRule="evenodd"
        clipRule="evenodd"
    />
</svg>
        