
<svg
    viewBox="0 0 27.166015625 25.1015625"
    xmlns="http://www.w3.org/2000/svg"
>
    <path
        fill="inherit"
        d="M0.0037 8.258C0.0037 14.078 4.8837 19.808 12.5937 24.728C12.8837 24.908 13.3037 25.098 13.5737 25.098C13.8637 25.098 14.2737 24.908 14.5737 24.728C22.2837 19.808 27.1637 14.078 27.1637 8.258C27.1637 3.418 23.8437 -0.002 19.4037 -0.002C16.8737 -0.002 14.8237 1.208 13.5737 3.048C12.3637 1.218 10.2937 -0.002 7.7537 -0.002C3.3237 -0.002 0.0037 3.418 0.0037 8.258ZM2.2037 8.258C2.2037 4.618 4.5537 2.198 7.7237 2.198C10.3037 2.198 11.7737 3.798 12.6637 5.168C13.0337 5.718 13.2637 5.868 13.5737 5.868C13.9037 5.868 14.1137 5.698 14.5037 5.168C15.4537 3.828 16.8737 2.198 19.4237 2.198C22.6137 2.198 24.9637 4.618 24.9637 8.258C24.9637 13.348 19.5937 18.828 13.8637 22.628C13.7237 22.718 13.6337 22.788 13.5737 22.788C13.5337 22.788 13.4437 22.718 13.3037 22.628C7.5737 18.828 2.2037 13.348 2.2037 8.258ZM14.5237 8.768C14.5237 8.208 14.0237 7.738 13.4637 7.738C12.9037 7.738 12.4237 8.208 12.4237 8.768V13.708L12.5137 15.938L11.3437 14.738L10.1437 13.518C9.9637 13.318 9.6837 13.208 9.4237 13.208C8.8637 13.208 8.4637 13.608 8.4637 14.148C8.4637 14.468 8.5837 14.698 8.8037 14.888L12.7037 18.468C12.9837 18.748 13.2037 18.828 13.4637 18.828C13.7237 18.828 13.9437 18.748 14.2337 18.468L18.1337 14.888C18.3437 14.698 18.4737 14.468 18.4737 14.148C18.4737 13.608 18.0637 13.208 17.5137 13.208C17.2437 13.208 16.9837 13.318 16.7937 13.518L15.5837 14.738L14.4237 15.938L14.5237 13.708Z"
        fillRule="evenodd"
        clipRule="evenodd"
    />
</svg>
        