
<svg
    viewBox="0 0 29.4765625 25.07421875"
    xmlns="http://www.w3.org/2000/svg"
>
    <path
        fill="inherit"
        d="M13.3539 25.0782C14.2839 25.0782 14.9539 24.3882 14.9539 23.4782V18.2482H15.3539C20.6539 18.2482 23.9939 19.5882 26.3839 24.0582C26.8639 24.9382 27.4939 25.0782 28.0639 25.0782C28.7939 25.0782 29.4739 24.4182 29.4739 23.2382C29.4739 13.1382 25.1939 6.8382 15.3539 6.8382H14.9539V1.6682C14.9539 0.7482 14.2839 -0.0018 13.3339 -0.0018C12.6639 -0.0018 12.2139 0.2882 11.4839 0.9682L0.6939 11.0582C0.1639 11.5682 0.0039 12.0682 0.0039 12.5382C0.0039 12.9882 0.1739 13.5082 0.6939 13.9982L11.4839 24.1882C12.1439 24.7982 12.6839 25.0782 13.3539 25.0782Z"
        fillRule="evenodd"
        clipRule="evenodd"
    />
</svg>
        