
<svg
    viewBox="0 0 27.890625 27.890625"
    xmlns="http://www.w3.org/2000/svg"
>
    <path
        fill="inherit"
        d="M13.9427 27.8864C21.6427 27.8864 27.8927 21.6464 27.8927 13.9464C27.8927 6.2464 21.6427 -0.0036 13.9427 -0.0036C6.2527 -0.0036 0.0027 6.2464 0.0027 13.9464C0.0027 21.6464 6.2527 27.8864 13.9427 27.8864ZM13.9427 25.5664C7.5227 25.5664 2.3227 20.3664 2.3227 13.9464C2.3227 7.5164 7.5227 2.3264 13.9427 2.3264C20.3727 2.3264 25.5627 7.5164 25.5627 13.9464C25.5627 20.3664 20.3727 25.5664 13.9427 25.5664ZM7.8927 13.7664H12.6327C13.3427 13.7664 13.7527 13.4564 13.7527 12.6364V7.8764C13.7527 7.3464 13.3327 6.9164 12.7927 6.9164C12.2627 6.9164 11.8227 7.3464 11.8227 7.8764V8.5464L11.9727 10.7064L8.4127 6.9964C8.0127 6.5764 7.3527 6.5764 6.9627 6.9864C6.5627 7.3864 6.5727 8.0364 6.9727 8.4364L10.6627 11.9764L8.5727 11.8364H7.8927C7.3527 11.8364 6.9327 12.2664 6.9327 12.7964C6.9327 13.3264 7.3527 13.7664 7.8927 13.7664ZM15.0627 20.9564C15.6027 20.9564 16.0227 20.5364 16.0227 20.0064V19.3364L15.8827 17.1764L19.4527 20.8764C19.8527 21.2964 20.5127 21.2964 20.9027 20.8864C21.3027 20.4964 21.2827 19.8264 20.8927 19.4364L17.2027 15.8964L19.2927 16.0364H19.9627C20.4927 16.0364 20.9327 15.6164 20.9327 15.0764C20.9327 14.5364 20.4927 14.1064 19.9627 14.1064H15.2327C14.5227 14.1064 14.0927 14.4264 14.0927 15.2264V20.0064C14.0927 20.5364 14.5327 20.9564 15.0627 20.9564Z"
        fillRule="evenodd"
        clipRule="evenodd"
    />
</svg>
        