
<svg
    viewBox="0 0 20.193359375 20.1796875"
    xmlns="http://www.w3.org/2000/svg"
>
    <path
        fill="inherit"
        d="M20.1937 15.0836L20.1837 1.3236C20.1837 0.5436 19.6737 0.0036 18.8537 0.0036H5.1037C4.3337 0.0036 3.8137 0.5836 3.8137 1.2436C3.8137 1.9036 4.4037 2.4636 5.0437 2.4636H9.8037L16.4737 2.2436L13.9337 4.4736L0.3837 18.0436C0.1337 18.2936 0.0037 18.6036 0.0037 18.9036C0.0037 19.5636 0.5837 20.1836 1.2737 20.1836C1.5837 20.1836 1.8837 20.0736 2.1337 19.8136L15.7137 6.2436L17.9637 3.6936L17.7237 10.0736V15.1336C17.7237 15.7736 18.2837 16.3836 18.9537 16.3836C19.6037 16.3836 20.1937 15.8136 20.1937 15.0836Z"
        fillRule="evenodd"
        clipRule="evenodd"
    />
</svg>
        