
<svg
    viewBox={0 0 21.751953125 22.3125}
    xmlns="http://www.w3.org/2000/svg"
>
    <path
        fill="inherit"
        d="M21.7509 20.6537C21.7509 20.1137 21.5009 19.6737 21.2209 19.1037L12.7009 1.5437C12.1309 0.3737 11.5909 0.0037 10.8709 0.0037C10.1409 0.0037 9.6209 0.3737 9.0509 1.5437L0.5209 19.1037C0.2509 19.6837 0.0009 20.1237 0.0009 20.6737C0.0009 21.6837 0.7609 22.3137 1.9509 22.3137L19.7809 22.3037C20.9709 22.3037 21.7509 21.6737 21.7509 20.6537ZM19.1409 19.9737C19.1409 20.0537 19.0909 20.1137 18.9809 20.1137H2.7609C2.6509 20.1137 2.6109 20.0537 2.6109 19.9737C2.6109 19.9237 2.6409 19.8637 2.6709 19.8137L10.7209 3.0637C10.7609 2.9937 10.8009 2.9437 10.8709 2.9437C10.9509 2.9437 10.9909 2.9937 11.0309 3.0637L19.0909 19.8137C19.1109 19.8637 19.1409 19.9237 19.1409 19.9737Z"
        fillRule="evenodd"
        clipRule="evenodd"
    />
</svg>
        