
<svg
    viewBox="0 0 25.169921875 25.169921875"
    xmlns="http://www.w3.org/2000/svg"
>
    <path
        fill="inherit"
        d="M4.2937 25.1692H20.8737C23.7437 25.1692 25.1737 23.7592 25.1737 20.9492V4.2392C25.1737 1.4192 23.7437 -0.0008 20.8737 -0.0008H4.2937C1.4337 -0.0008 0.0037 1.4192 0.0037 4.2392V20.9492C0.0037 23.7592 1.4337 25.1692 4.2937 25.1692ZM4.3237 22.9692C2.9537 22.9692 2.2037 22.2392 2.2037 20.8192V4.3592C2.2037 2.9392 2.9537 2.1992 4.3237 2.1992H20.8537C22.2037 2.1992 22.9737 2.9392 22.9737 4.3592V20.8192C22.9737 22.2392 22.2037 22.9692 20.8537 22.9692ZM12.6237 4.0692C12.3137 4.0692 12.0737 4.2092 11.8137 4.4692L7.8637 8.4092C7.6837 8.5892 7.5737 8.8292 7.5737 9.1192C7.5737 9.6792 8.0137 10.0992 8.5737 10.0992C8.8737 10.0992 9.1237 9.9892 9.3137 9.7992L10.3237 8.7592L11.7037 7.1092L11.5937 10.0092V15.1492L11.7037 18.0492L10.3237 16.3892L9.3137 15.3492C9.1237 15.1492 8.8737 15.0492 8.5737 15.0492C8.0137 15.0492 7.5737 15.4792 7.5737 16.0392C7.5737 16.3092 7.6837 16.5692 7.8637 16.7492L11.8137 20.6892C12.0737 20.9492 12.3137 21.0792 12.6237 21.0792C12.9037 21.0792 13.1437 20.9492 13.4137 20.6892L17.3737 16.7492C17.5537 16.5692 17.6537 16.3092 17.6537 16.0392C17.6537 15.4792 17.2237 15.0492 16.6637 15.0492C16.3637 15.0492 16.1237 15.1592 15.9437 15.3492L14.9137 16.3892L13.5337 18.0292L13.6437 15.1492V10.0092L13.5337 7.1192L14.9137 8.7592L15.9437 9.7992C16.1237 9.9792 16.3637 10.0992 16.6637 10.0992C17.2237 10.0992 17.6537 9.6792 17.6537 9.1192C17.6537 8.8292 17.5537 8.5892 17.3737 8.4092L13.4137 4.4692C13.1437 4.2092 12.9037 4.0692 12.6237 4.0692Z"
        fillRule="evenodd"
        clipRule="evenodd"
    />
</svg>
        