
<svg
    viewBox={0 0 25.169921875 25.169921875}
    xmlns="http://www.w3.org/2000/svg"
>
    <path
        fill="inherit"
        d="M4.2937 25.1692H20.8737C23.7437 25.1692 25.1737 23.7592 25.1737 20.9492V4.2392C25.1737 1.4192 23.7437 -0.0008 20.8737 -0.0008H4.2937C1.4337 -0.0008 0.0037 1.4192 0.0037 4.2392V20.9492C0.0037 23.7592 1.4337 25.1692 4.2937 25.1692ZM5.9837 7.6792L9.5337 4.2492C9.7037 4.0592 9.9637 3.9492 10.2037 3.9492C10.7237 3.9492 11.1037 4.3192 11.1037 4.8492C11.1037 5.0992 11.0037 5.3292 10.8237 5.5092L9.3537 6.9592L8.7737 7.4692L9.4337 7.4492H18.5537C19.0837 7.4492 19.4737 7.8292 19.4737 8.3692C19.4737 8.8892 19.0737 9.2992 18.5537 9.2992H9.4237L8.7637 9.2592L9.3537 9.7992L10.8237 11.2392C11.0037 11.4192 11.1037 11.6392 11.1037 11.8992C11.1037 12.4092 10.7237 12.7792 10.2037 12.7792C9.9637 12.7792 9.7237 12.6692 9.5337 12.5192L5.9837 9.0492C5.6237 8.6992 5.6237 8.0492 5.9837 7.6792ZM19.1637 17.4892L15.6437 20.9592C15.4537 21.1392 15.1937 21.2492 14.9737 21.2492C14.4637 21.2492 14.0637 20.8592 14.0637 20.3392C14.0637 20.0792 14.1737 19.8792 14.3537 19.6892L15.8337 18.2392L16.4237 17.7292L15.7337 17.7492H6.6137C6.0937 17.7492 5.7137 17.3492 5.7137 16.8192C5.7137 16.2792 6.1137 15.8992 6.6137 15.8992H15.7537L16.4237 15.9392L15.8337 15.3992L14.3237 13.9592C14.1637 13.7792 14.0637 13.5592 14.0637 13.2992C14.0637 12.7792 14.4337 12.4092 14.9737 12.4092C15.2137 12.4092 15.4737 12.5192 15.6437 12.6892L19.1637 16.1592C19.5337 16.5292 19.5637 17.0992 19.1637 17.4892Z"
        fillRule="evenodd"
        clipRule="evenodd"
    />
</svg>
        