
<svg
    viewBox={0 0 27.890625 27.890625}
    xmlns="http://www.w3.org/2000/svg"
>
    <path
        fill="inherit"
        d="M13.9427 27.8927C21.6427 27.8927 27.8927 21.6427 27.8927 13.9427C27.8927 6.2627 21.6427 0.0027 13.9427 0.0027C6.2627 0.0027 0.0027 6.2627 0.0027 13.9427C0.0027 21.6427 6.2627 27.8927 13.9427 27.8927ZM22.5027 13.9427C22.5027 14.1927 22.4127 14.5227 22.1227 14.7927L15.8627 20.6827C15.4927 21.0227 15.1627 21.1927 14.7627 21.1927C14.2427 21.1927 13.8527 20.8227 13.8527 20.2727V17.0727H7.2827C6.1427 17.0727 5.4727 16.4227 5.4727 15.3027V12.6027C5.4727 11.4827 6.1427 10.8327 7.2827 10.8327H13.8527V7.6727C13.8527 7.1327 14.2427 6.7027 14.8027 6.7027C15.1727 6.7027 15.4527 6.8627 15.8627 7.2627L22.1227 13.0827C22.4127 13.3827 22.5027 13.6827 22.5027 13.9427Z"
        fillRule="evenodd"
        clipRule="evenodd"
    />
</svg>
        