
<svg
    viewBox={0 0 25.169921875 25.169921875}
    xmlns="http://www.w3.org/2000/svg"
>
    <path
        fill="inherit"
        d="M4.2937 25.1692H20.8737C23.7437 25.1692 25.1737 23.7592 25.1737 20.9492V4.2392C25.1737 1.4192 23.7437 -0.0008 20.8737 -0.0008H4.2937C1.4337 -0.0008 0.0037 1.4192 0.0037 4.2392V20.9492C0.0037 23.7592 1.4337 25.1692 4.2937 25.1692ZM17.0037 16.0792C16.3837 16.0792 15.9737 15.6392 15.9737 14.9692V12.5492L16.1737 10.3492L14.1337 12.5192L8.9837 17.6892C8.7737 17.8992 8.5037 18.0192 8.1637 18.0192C7.5437 18.0192 7.1337 17.6092 7.1337 16.9692C7.1337 16.6892 7.2637 16.4092 7.4637 16.1992L12.6437 11.0292L14.8437 8.9792L12.7537 9.1992H10.2137C9.5337 9.1992 9.0937 8.7892 9.0937 8.1792C9.0937 7.5492 9.5137 7.1392 10.1837 7.1392H16.8537C17.5837 7.1392 18.0437 7.4692 18.0437 8.2992V14.9392C18.0437 15.5992 17.6237 16.0792 17.0037 16.0792Z"
        fillRule="evenodd"
        clipRule="evenodd"
    />
</svg>
        