<svg viewBox="0 0 27.958984375 34.3984375" xmlns="http://www.w3.org/2000/svg"><path d="M0.0037 30.104C0.0037 32.964 1.4037 34.394 4.2337 34.394H17.0937C19.9237 34.394 21.3237 32.954 21.3237 30.104V27.574H23.7237C26.5337 27.574 27.9637 26.124 27.9637 23.284V4.294C27.9637 1.454 26.5337 0.004 23.7237 0.004H10.8737C8.0537 0.004 6.6337 1.434 6.6337 4.294V6.824H4.2337C1.4037 6.824 0.0037 8.244 0.0037 11.114ZM13.0837 3.884V3.594C13.0837 3.174 13.3537 2.794 13.9637 2.794H20.6337C21.2237 2.794 21.5037 3.174 21.5037 3.594V3.884C21.5037 4.294 21.2237 4.694 20.6337 4.694H13.9637C13.3537 4.694 13.0837 4.294 13.0837 3.884ZM2.2037 30.064V11.144C2.2037 9.794 2.9237 9.024 4.3337 9.024H16.9837C18.3937 9.024 19.1237 9.794 19.1237 11.144V30.064C19.1237 31.434 18.3937 32.194 16.9837 32.194H4.3337C2.9237 32.194 2.2037 31.434 2.2037 30.064ZM16.2537 20.604C16.2537 20.374 16.1637 20.154 15.9237 19.894L12.3137 16.164C12.1437 15.984 11.9337 15.864 11.6737 15.864C11.1737 15.864 10.8037 16.254 10.8037 16.744C10.8037 16.994 10.8937 17.254 11.1037 17.444L12.9637 19.164L13.4837 19.684L12.0137 19.634H5.5937C5.0837 19.634 4.6437 20.084 4.6437 20.604C4.6437 21.124 5.0837 21.584 5.5937 21.584H12.0137L13.4837 21.534L12.9637 22.044L11.1037 23.774C10.8937 23.954 10.8037 24.214 10.8037 24.444C10.8037 24.934 11.1737 25.344 11.6737 25.344C11.9337 25.344 12.1437 25.234 12.3137 25.044L15.9237 21.314C16.1637 21.064 16.2537 20.834 16.2537 20.604Z" /></svg>