
<svg
    viewBox="0 0 32.23828125 25.169921875"
    xmlns="http://www.w3.org/2000/svg"
>
    <path
        fill="inherit"
        d="M4.2937 25.1692H27.9437C30.8137 25.1692 32.2337 23.7592 32.2337 20.9492V4.2392C32.2337 1.4192 30.8137 -0.0008 27.9437 -0.0008H4.2937C1.4337 -0.0008 0.0037 1.4192 0.0037 4.2392V20.9492C0.0037 23.7592 1.4337 25.1692 4.2937 25.1692ZM4.3237 22.9692C2.9537 22.9692 2.2037 22.2392 2.2037 20.8192V4.3592C2.2037 2.9392 2.9537 2.1992 4.3237 2.1992H27.9137C29.2737 2.1992 30.0337 2.9392 30.0337 4.3592V20.8192C30.0337 22.2392 29.2737 22.9692 27.9137 22.9692ZM19.2737 19.7192C19.8837 19.7192 20.2737 19.2892 20.2737 18.6492V16.4592L20.0737 14.3392L22.0437 16.4492L26.1637 20.5592C26.3637 20.7492 26.6037 20.8792 26.9437 20.8792C27.5537 20.8792 27.9437 20.4792 27.9437 19.8692C27.9437 19.5892 27.8037 19.3192 27.6137 19.1292L23.4837 14.9992L21.3537 13.0192L23.3837 13.2392H25.6937C26.3337 13.2392 26.7537 12.8392 26.7537 12.2392C26.7537 11.6392 26.3437 11.2392 25.7137 11.2392H19.4137C18.7137 11.2392 18.2837 11.5492 18.2837 12.3592V18.6192C18.2837 19.2492 18.6737 19.7192 19.2737 19.7192Z"
        fillRule="evenodd"
        clipRule="evenodd"
    />
</svg>
        