<svg viewBox="0 0 22.3125 21.73828125" xmlns="http://www.w3.org/2000/svg"><path d="M1.6537 21.7366C2.2037 21.7366 2.6437 21.5066 3.2137 21.2166L20.7837 12.6966C21.9437 12.1266 22.3137 11.5966 22.3137 10.8666C22.3137 10.1466 21.9437 9.6266 20.7837 9.0466L3.2137 0.5166C2.6237 0.2366 2.1837 -0.0034 1.6437 -0.0034C0.6337 -0.0034 0.0037 0.7666 0.0037 1.9566L0.0137 19.7866C0.0137 20.9766 0.6437 21.7366 1.6537 21.7366ZM2.3337 19.1366C2.2537 19.1366 2.2037 19.0866 2.2037 18.9766V2.7666C2.2037 2.6566 2.2537 2.5966 2.3337 2.5966C2.3937 2.5966 2.4437 2.6266 2.5037 2.6666L19.2537 10.7166C19.3137 10.7466 19.3737 10.7966 19.3737 10.8666C19.3737 10.9366 19.3137 10.9966 19.2537 11.0166L2.5037 19.0866C2.4437 19.1166 2.3937 19.1366 2.3337 19.1366Z" /></svg>