<svg viewBox="0 0 22.99609375 29.3125" xmlns="http://www.w3.org/2000/svg"><path d="M4.2337 29.3173H18.7537C21.5837 29.3173 22.9937 27.8773 22.9937 25.0373V12.6173C22.9937 10.8573 22.7937 10.0873 21.6937 8.9673L14.1637 1.2973C13.1237 0.2373 12.2637 -0.0027 10.7337 -0.0027H4.2337C1.4237 -0.0027 0.0037 1.4473 0.0037 4.2973V25.0373C0.0037 27.8873 1.4037 29.3173 4.2337 29.3173ZM4.3337 27.1073C2.9237 27.1073 2.2037 26.3573 2.2037 24.9873V4.3373C2.2037 2.9773 2.9237 2.1973 4.3437 2.1973H10.4337V10.1473C10.4337 11.8673 11.2937 12.7173 13.0037 12.7173H20.7937V24.9873C20.7937 26.3573 20.0737 27.1073 18.6437 27.1073ZM13.2437 10.6473C12.7037 10.6473 12.4937 10.4273 12.4937 9.8873V2.6273L20.3737 10.6473ZM12.5337 24.3673V19.3973L12.4537 17.1673L13.6137 18.3773L14.8437 19.6373C15.0437 19.8373 15.3137 19.9473 15.5837 19.9473C16.1337 19.9473 16.5437 19.5473 16.5437 19.0073C16.5437 18.6873 16.4237 18.4573 16.2037 18.2673L12.2637 14.6473C11.9737 14.3873 11.7537 14.2873 11.4937 14.2873C11.2337 14.2873 11.0237 14.3873 10.7337 14.6473L6.7937 18.2673C6.5737 18.4573 6.4537 18.6873 6.4537 19.0073C6.4537 19.5473 6.8537 19.9473 7.4137 19.9473C7.6737 19.9473 7.9537 19.8373 8.1437 19.6373L9.3837 18.3773L10.5437 17.1673L10.4637 19.3973V24.3673C10.4637 24.9273 10.9337 25.3773 11.4937 25.3773C12.0537 25.3773 12.5337 24.9273 12.5337 24.3673Z" /></svg>