
<svg
    viewBox="0 0 32.23828125 25.169921875"
    xmlns="http://www.w3.org/2000/svg"
>
    <path
        fill="inherit"
        d="M4.2937 25.1692H27.9437C30.8137 25.1692 32.2337 23.7592 32.2337 20.9492V4.2392C32.2337 1.4192 30.8137 -0.0008 27.9437 -0.0008H4.2937C1.4337 -0.0008 0.0037 1.4192 0.0037 4.2392V20.9492C0.0037 23.7592 1.4337 25.1692 4.2937 25.1692ZM4.3237 22.9692C2.9537 22.9692 2.2037 22.2392 2.2037 20.8192V4.3592C2.2037 2.9392 2.9537 2.1992 4.3237 2.1992H27.9137C29.2737 2.1992 30.0337 2.9392 30.0337 4.3592V20.8192C30.0337 22.2392 29.2737 22.9692 27.9137 22.9692ZM8.3837 11.7592C8.9537 11.7592 9.3537 11.3292 9.3537 10.7292V9.0792L9.1737 7.2892L10.8737 9.0792L13.7037 11.9092C13.8937 12.0992 14.1237 12.2092 14.4337 12.2092C15.0137 12.2092 15.4037 11.8092 15.4037 11.2292C15.4037 10.9692 15.2737 10.7092 15.0937 10.5292L12.2637 7.6792L10.4437 5.9992L12.1237 6.1692H13.9137C14.5337 6.1692 14.9437 5.7792 14.9437 5.2092C14.9437 4.6392 14.5337 4.2392 13.9437 4.2392H8.5037C7.8437 4.2392 7.4237 4.5692 7.4237 5.3192V10.7092C7.4237 11.3092 7.8037 11.7592 8.3837 11.7592ZM23.8537 13.4292C23.2837 13.4292 22.9037 13.8392 22.9037 14.4392V16.1092L23.0637 17.8992L21.3737 16.0892L18.5537 13.2792C18.3437 13.0792 18.1137 12.9792 17.8037 12.9792C17.2437 12.9792 16.8337 13.3592 16.8337 13.9592C16.8337 14.2192 16.9637 14.4792 17.1437 14.6592L19.9737 17.4992L21.8037 19.1792L20.1137 18.9992H18.3337C17.7237 18.9992 17.2937 19.3992 17.2937 19.9792C17.2937 20.5492 17.7237 20.9292 18.3037 20.9292H23.7337C24.3937 20.9292 24.8237 20.6192 24.8237 19.8692V14.4692C24.8237 13.8592 24.4337 13.4292 23.8537 13.4292Z"
        fillRule="evenodd"
        clipRule="evenodd"
    />
</svg>
        