<svg viewBox="0 0 31.0078125 28.642578125" xmlns="http://www.w3.org/2000/svg"><path d="M5.9327 28.6455C7.7827 28.6455 11.5527 26.7855 14.3327 24.8055C23.8527 25.0655 31.0127 19.5955 31.0127 12.4255C31.0127 5.5555 24.1127 -0.0045 15.5027 -0.0045C6.8927 -0.0045 0.0027 5.5555 0.0027 12.4255C0.0027 16.9155 2.8727 20.8955 7.1927 22.8855C6.5727 24.0755 5.4327 25.6855 4.8127 26.4955C4.0927 27.4555 4.5227 28.6455 5.9327 28.6455ZM7.3727 26.3755C7.2627 26.4155 7.2227 26.3355 7.2827 26.2355C8.0527 25.2955 9.1427 23.8755 9.6127 22.9955C9.9927 22.2855 9.9027 21.6555 9.0227 21.2455C4.7327 19.2455 2.2727 16.0655 2.2727 12.4255C2.2727 6.8255 8.1327 2.2555 15.5027 2.2555C22.8827 2.2555 28.7527 6.8255 28.7527 12.4255C28.7527 18.0155 22.8827 22.5855 15.5027 22.5855C15.2327 22.5855 14.8027 22.5755 14.2627 22.5555C13.6827 22.5555 13.2527 22.7355 12.7327 23.1455C11.0427 24.3655 8.6127 25.8655 7.3727 26.3755ZM15.5127 5.6555C15.2427 5.6555 15.0027 5.7555 14.7227 6.0255L10.2127 10.3755C10.0127 10.5855 9.9027 10.8055 9.9027 11.0855C9.9027 11.6455 10.3127 12.0455 10.8827 12.0455C11.1427 12.0455 11.4427 11.9455 11.6327 11.7255L13.7127 9.5055L14.5227 8.6555L14.4327 10.7055V18.3855C14.4327 18.9655 14.9327 19.4555 15.5127 19.4555C16.1027 19.4555 16.6127 18.9655 16.6127 18.3855V10.7055L16.5127 8.6655L17.3227 9.5055L19.4027 11.7255C19.5927 11.9455 19.8827 12.0455 20.1427 12.0455C20.7127 12.0455 21.1327 11.6455 21.1327 11.0855C21.1327 10.8055 21.0227 10.5855 20.8227 10.3755L16.3127 6.0255C16.0327 5.7555 15.8027 5.6555 15.5127 5.6555Z" /></svg>