
<svg
    viewBox={0 0 25.169921875 25.169921875}
    xmlns="http://www.w3.org/2000/svg"
>
    <path
        fill="inherit"
        d="M4.2937 25.1692H20.8737C23.7437 25.1692 25.1737 23.7592 25.1737 20.9492V4.2392C25.1737 1.4192 23.7437 -0.0008 20.8737 -0.0008H4.2937C1.4337 -0.0008 0.0037 1.4192 0.0037 4.2392V20.9492C0.0037 23.7592 1.4337 25.1692 4.2937 25.1692ZM4.3237 22.9692C2.9537 22.9692 2.2037 22.2392 2.2037 20.8192V4.3592C2.2037 2.9392 2.9537 2.1992 4.3237 2.1992H20.8537C22.2037 2.1992 22.9737 2.9392 22.9737 4.3592V20.8192C22.9737 22.2392 22.2037 22.9692 20.8537 22.9692ZM5.7037 12.5692C5.7037 12.8392 5.7937 13.0792 6.0737 13.3592L10.4137 17.8692C10.6237 18.0692 10.8437 18.1792 11.1337 18.1792C11.6937 18.1792 12.0837 17.7692 12.0837 17.1992C12.0837 16.9392 11.9737 16.6392 11.7537 16.4492L9.5437 14.3692L8.6937 13.5592L10.7437 13.6492H18.4337C19.0037 13.6492 19.4937 13.1492 19.4937 12.5692C19.4937 11.9792 19.0037 11.4692 18.4337 11.4692H10.7437L8.6937 11.5692L9.5437 10.7592L11.7537 8.6792C11.9737 8.4892 12.0837 8.1992 12.0837 7.9392C12.0837 7.3692 11.6937 6.9492 11.1337 6.9492C10.8437 6.9492 10.6237 7.0592 10.4137 7.2592L6.0737 11.7692C5.7937 12.0492 5.7037 12.2792 5.7037 12.5692Z"
        fillRule="evenodd"
        clipRule="evenodd"
    />
</svg>
        