
<svg
    viewBox="0 0 30.61316137467273 30.65065185394996"
    xmlns="http://www.w3.org/2000/svg"
>
    <path
        fill="inherit"
        d="M0.0009 18.089C-0.0291 18.839 0.5609 19.419 1.3009 19.389L11.1409 19.279C11.5009 19.279 11.8409 19.129 12.0709 18.919C12.5809 18.409 12.5609 17.709 12.0709 17.219C11.8309 16.959 11.5409 16.859 11.2109 16.859L7.1209 16.929L3.7709 17.159L6.1009 15.029L19.0009 2.109C19.5109 1.599 19.5209 0.879 19.0009 0.389C18.5109 -0.131 17.7709 -0.121 17.2709 0.389L4.3609 13.289L2.2309 15.619L2.4609 12.249L2.5309 8.159C2.5309 7.849 2.4209 7.559 2.1709 7.319C1.6809 6.819 0.9709 6.809 0.4609 7.319C0.2609 7.539 0.1009 7.889 0.1009 8.229ZM30.6109 12.569C30.6409 11.789 30.0509 11.239 29.3109 11.269L19.4609 11.359C19.1109 11.359 18.7709 11.509 18.5509 11.729C18.0309 12.239 18.0509 12.949 18.5509 13.439C18.8009 13.689 19.0709 13.799 19.3909 13.799L23.4909 13.729L26.8409 13.499L24.5109 15.629L11.6109 28.539C11.1009 29.039 11.0909 29.769 11.6109 30.269C12.1109 30.779 12.8209 30.779 13.3309 30.269L26.2509 17.369L28.3809 15.029L28.1509 18.379L28.0809 22.479C28.0809 22.809 28.1909 23.079 28.4409 23.329C28.9309 23.829 29.6309 23.849 30.1509 23.329C30.3509 23.109 30.5209 22.769 30.5209 22.409Z"
        fillRule="evenodd"
        clipRule="evenodd"
    />
</svg>
        