
<svg
    viewBox={0 0 27.890625 27.890625}
    xmlns="http://www.w3.org/2000/svg"
>
    <path
        fill="inherit"
        d="M13.9427 27.8927C21.6427 27.8927 27.8927 21.6427 27.8927 13.9427C27.8927 6.2627 21.6427 0.0027 13.9427 0.0027C6.2627 0.0027 0.0027 6.2627 0.0027 13.9427C0.0027 21.6427 6.2627 27.8927 13.9427 27.8927ZM13.9327 18.4827C13.6727 18.4827 13.4227 18.3927 13.2227 18.1527L8.4627 13.2927C8.2827 13.1127 8.1727 12.8227 8.1727 12.5927C8.1727 12.0427 8.5427 11.6627 9.0827 11.6627C9.3827 11.6627 9.5927 11.7427 9.7727 11.9527L10.5727 12.8227L13.1427 15.7127L12.9727 13.1127V6.6627C12.9727 6.1127 13.3527 5.7027 13.9327 5.7027C14.4627 5.7027 14.8727 6.1127 14.8727 6.6627V13.1127L14.7227 15.6927L17.2527 12.8427L18.1127 11.9527C18.3027 11.7427 18.5527 11.6627 18.8227 11.6627C19.3427 11.6627 19.7127 12.0727 19.7127 12.5827C19.7127 12.8527 19.6427 13.0927 19.4127 13.3127L14.6427 18.1527C14.4327 18.3627 14.1927 18.4827 13.9327 18.4827ZM8.6527 21.4627C8.1027 21.4627 7.7127 21.0527 7.7127 20.4927C7.7127 19.9627 8.1027 19.5627 8.6527 19.5627H19.2527C19.7927 19.5627 20.1827 19.9627 20.1827 20.4927C20.1827 21.0527 19.7927 21.4627 19.2527 21.4627Z"
        fillRule="evenodd"
        clipRule="evenodd"
    />
</svg>
        