
<svg
    viewBox={0 0 27.890625 27.890625}
    xmlns="http://www.w3.org/2000/svg"
>
    <path
        fill="inherit"
        d="M13.9427 27.8864C21.6427 27.8864 27.8927 21.6464 27.8927 13.9464C27.8927 6.2464 21.6427 -0.0036 13.9427 -0.0036C6.2527 -0.0036 0.0027 6.2464 0.0027 13.9464C0.0027 21.6464 6.2527 27.8864 13.9427 27.8864ZM13.9427 25.5664C7.5227 25.5664 2.3227 20.3664 2.3227 13.9464C2.3227 7.5164 7.5227 2.3264 13.9427 2.3264C20.3727 2.3264 25.5627 7.5164 25.5627 13.9464C25.5627 20.3664 20.3727 25.5664 13.9427 25.5664ZM13.9627 5.4364C13.6627 5.4364 13.4127 5.5764 13.1527 5.8364L9.2027 9.7764C9.0227 9.9564 8.9127 10.1964 8.9127 10.4864C8.9127 11.0464 9.3527 11.4664 9.9127 11.4664C10.2127 11.4664 10.4627 11.3564 10.6327 11.1664L11.6527 10.1264L13.0427 8.4764L12.9327 11.3764V16.5164L13.0427 19.4164L11.6527 17.7564L10.6327 16.7164C10.4627 16.5164 10.2127 16.4164 9.9127 16.4164C9.3527 16.4164 8.9127 16.8464 8.9127 17.4064C8.9127 17.6764 9.0227 17.9364 9.2027 18.1164L13.1527 22.0564C13.4127 22.3164 13.6627 22.4464 13.9627 22.4464C14.2427 22.4464 14.4827 22.3164 14.7527 22.0564L18.7127 18.1164C18.8927 17.9364 18.9927 17.6764 18.9927 17.4064C18.9927 16.8464 18.5627 16.4164 18.0027 16.4164C17.7027 16.4164 17.4627 16.5264 17.2827 16.7164L16.2527 17.7564L14.8727 19.3964L14.9827 16.5164V11.3764L14.8727 8.4864L16.2527 10.1264L17.2827 11.1664C17.4627 11.3464 17.7027 11.4664 18.0027 11.4664C18.5627 11.4664 18.9927 11.0464 18.9927 10.4864C18.9927 10.1964 18.8927 9.9564 18.7127 9.7764L14.7527 5.8364C14.4827 5.5764 14.2427 5.4364 13.9627 5.4364Z"
        fillRule="evenodd"
        clipRule="evenodd"
    />
</svg>
        