
<svg
    viewBox="0 0 27.890625 27.890625"
    xmlns="http://www.w3.org/2000/svg"
>
    <path
        fill="inherit"
        d="M13.9427 27.8864C21.6427 27.8864 27.8927 21.6264 27.8927 13.9464C27.8927 6.2464 21.6427 -0.0036 13.9427 -0.0036C6.2627 -0.0036 0.0027 6.2464 0.0027 13.9464C0.0027 21.6264 6.2627 27.8864 13.9427 27.8864ZM18.3627 17.4464C17.7327 17.4464 17.3227 17.0064 17.3227 16.3364V13.9164L17.5227 11.7164L15.4927 13.8864L10.3327 19.0564C10.1127 19.2664 9.8527 19.3864 9.5127 19.3864C8.9027 19.3864 8.4727 18.9764 8.4727 18.3364C8.4727 18.0564 8.6127 17.7764 8.8227 17.5664L14.0027 12.3964L16.2027 10.3464L14.1127 10.5664H11.5627C10.8827 10.5664 10.4427 10.1564 10.4427 9.5464C10.4427 8.9164 10.8727 8.5064 11.5427 8.5064H18.2127C18.9327 8.5064 19.4027 8.8364 19.4027 9.6664V16.3064C19.4027 16.9664 18.9727 17.4464 18.3627 17.4464Z"
        fillRule="evenodd"
        clipRule="evenodd"
    />
</svg>
        