
<svg
    viewBox={0 0 25.169921875 25.169921875}
    xmlns="http://www.w3.org/2000/svg"
>
    <path
        fill="inherit"
        d="M4.2937 25.1692H20.8737C23.7437 25.1692 25.1737 23.7592 25.1737 20.9492V4.2392C25.1737 1.4192 23.7437 -0.0008 20.8737 -0.0008H4.2937C1.4337 -0.0008 0.0037 1.4192 0.0037 4.2392V20.9492C0.0037 23.7592 1.4337 25.1692 4.2937 25.1692ZM18.9237 18.7992C18.3937 18.7992 17.9937 18.4192 17.9937 17.8692V7.2692C17.9937 6.7292 18.3937 6.3392 18.9237 6.3392C19.4937 6.3392 19.8937 6.7292 19.8937 7.2692V17.8692C19.8937 18.4192 19.4937 18.7992 18.9237 18.7992ZM4.1437 12.5892C4.1437 12.0492 4.5437 11.6492 5.0837 11.6492H11.5437L14.1237 11.7992L11.2537 9.2592L10.3737 8.3992C10.1737 8.2192 10.0937 7.9592 10.0937 7.6992C10.0937 7.1592 10.5137 6.7992 11.0337 6.7992C11.2837 6.7992 11.5237 6.8792 11.7337 7.0992L16.5937 11.8692C16.7937 12.0892 16.9237 12.3192 16.9237 12.5892C16.9237 12.8492 16.8137 13.0992 16.5937 13.2992L11.7437 18.0292C11.5537 18.2292 11.2537 18.3492 11.0337 18.3492C10.4837 18.3492 10.0937 17.9792 10.0937 17.4292C10.0937 17.1492 10.1737 16.9092 10.3737 16.7492L11.2637 15.9292L14.1337 13.3892L11.5437 13.5492H5.0837C4.5437 13.5492 4.1437 13.1692 4.1437 12.5892Z"
        fillRule="evenodd"
        clipRule="evenodd"
    />
</svg>
        