
<svg
    viewBox="0 0 29.4765625 25.07421875"
    xmlns="http://www.w3.org/2000/svg"
>
    <path
        fill="inherit"
        d="M0.0039 12.5382C0.0039 12.9882 0.1739 13.5082 0.6939 13.9982L11.4839 24.1882C12.1439 24.7982 12.6839 25.0782 13.3539 25.0782C14.2839 25.0782 14.9539 24.3882 14.9539 23.4782V18.2482H26.0539C28.2139 18.2482 29.4739 17.0182 29.4739 14.8982V10.1882C29.4739 8.0682 28.2139 6.8382 26.0539 6.8382H14.9539V1.6682C14.9539 0.7482 14.2839 -0.0018 13.3339 -0.0018C12.6639 -0.0018 12.2139 0.2882 11.4839 0.9682L0.6939 11.0582C0.1639 11.5682 0.0039 12.0682 0.0039 12.5382ZM2.4439 12.5382C2.4439 12.4582 2.4839 12.3682 2.5939 12.2782L12.3339 2.9382C12.4039 2.8882 12.4839 2.8282 12.5639 2.8282C12.6839 2.8282 12.7539 2.9082 12.7539 3.0182V8.4482C12.7539 8.7682 12.9039 8.8982 13.2239 8.8982H26.0339C26.9039 8.8982 27.4139 9.4082 27.4139 10.2982V14.7882C27.4139 15.6782 26.9039 16.1882 26.0339 16.1882H13.2239C12.9039 16.1882 12.7539 16.3282 12.7539 16.6382V21.9282C12.7539 22.0482 12.6839 22.1382 12.5739 22.1382C12.4939 22.1382 12.4139 22.0982 12.3439 22.0082L2.5939 12.7982C2.4839 12.6882 2.4439 12.6182 2.4439 12.5382Z"
        fillRule="evenodd"
        clipRule="evenodd"
    />
</svg>
        