
<svg
    viewBox={0 0 27.166015625 25.1015625}
    xmlns="http://www.w3.org/2000/svg"
>
    <path
        fill="inherit"
        d="M13.5737 25.098C13.8637 25.098 14.2737 24.908 14.5737 24.728C22.2837 19.808 27.1637 14.078 27.1637 8.258C27.1637 3.418 23.8437 -0.002 19.5337 -0.002C16.8737 -0.002 14.8237 1.478 13.5737 3.728C12.3637 1.488 10.2937 -0.002 7.6137 -0.002C3.3237 -0.002 0.0037 3.418 0.0037 8.258C0.0037 14.078 4.8837 19.808 12.5937 24.728C12.8837 24.908 13.3037 25.098 13.5737 25.098ZM14.5637 8.218V13.298L14.4637 15.598L15.6437 14.368L16.8837 13.108C17.0937 12.908 17.3537 12.788 17.6337 12.788C18.1937 12.788 18.6337 13.198 18.6337 13.768C18.6337 14.098 18.4937 14.328 18.2837 14.538L14.2637 18.208C13.9637 18.498 13.7437 18.578 13.4637 18.578C13.1937 18.578 12.9737 18.498 12.6737 18.208L8.6537 14.538C8.4337 14.328 8.3037 14.098 8.3037 13.768C8.3037 13.198 8.7137 12.788 9.2937 12.788C9.5737 12.788 9.8537 12.908 10.0537 13.108L11.2937 14.368L12.4737 15.598L12.3837 13.298V8.218C12.3837 7.638 12.8837 7.168 13.4637 7.168C14.0537 7.168 14.5637 7.638 14.5637 8.218Z"
        fillRule="evenodd"
        clipRule="evenodd"
    />
</svg>
        