
<svg
    viewBox="0 0 27.890625 27.890625"
    xmlns="http://www.w3.org/2000/svg"
>
    <path
        fill="inherit"
        d="M13.9427 27.8864C21.6427 27.8864 27.8927 21.6464 27.8927 13.9464C27.8927 6.2464 21.6427 -0.0036 13.9427 -0.0036C6.2527 -0.0036 0.0027 6.2464 0.0027 13.9464C0.0027 21.6464 6.2527 27.8864 13.9427 27.8864ZM13.9427 25.5664C7.5227 25.5664 2.3227 20.3664 2.3227 13.9464C2.3227 7.5164 7.5227 2.3264 13.9427 2.3264C20.3727 2.3264 25.5627 7.5164 25.5627 13.9464C25.5627 20.3664 20.3727 25.5664 13.9427 25.5664ZM5.5827 13.9464C5.5827 14.1764 5.6727 14.4664 5.9627 14.7364L11.8427 20.2864C12.1927 20.6064 12.4827 20.7564 12.8527 20.7564C13.3427 20.7564 13.7127 20.3964 13.7127 19.8964V16.8664H19.9027C20.9827 16.8664 21.6127 16.2664 21.6127 15.2164V12.6864C21.6127 11.6164 20.9827 11.0164 19.9027 11.0164H13.7127V8.0264C13.7127 7.5364 13.3427 7.1364 12.8227 7.1364C12.4727 7.1364 12.2327 7.2864 11.8427 7.6564L5.9627 13.1364C5.6727 13.4164 5.5827 13.6964 5.5827 13.9464Z"
        fillRule="evenodd"
        clipRule="evenodd"
    />
</svg>
        