
<svg
    viewBox={0 0 25.169921875 25.169921875}
    xmlns="http://www.w3.org/2000/svg"
>
    <path
        fill="inherit"
        d="M4.2937 25.1706H20.8737C23.7437 25.1706 25.1737 23.7606 25.1737 20.9406V4.2406C25.1737 1.4206 23.7437 0.0006 20.8737 0.0006H4.2937C1.4337 0.0006 0.0037 1.4206 0.0037 4.2406V20.9406C0.0037 23.7606 1.4337 25.1706 4.2937 25.1706ZM5.5737 14.1106C5.5737 11.0106 7.7837 8.9506 11.0837 8.9506H15.0837L16.4837 9.0206L15.5537 8.2806L14.1737 6.9406C13.9737 6.7706 13.8637 6.4906 13.8637 6.2206C13.8637 5.6206 14.2837 5.1706 14.8737 5.1706C15.1937 5.1706 15.4237 5.2606 15.6237 5.4706L19.1937 9.0906C19.4437 9.3506 19.5637 9.6506 19.5637 9.9706C19.5637 10.2706 19.4537 10.5706 19.1937 10.8306L15.6137 14.4906C15.4237 14.6806 15.1737 14.7906 14.8637 14.7906C14.3037 14.7906 13.8637 14.3306 13.8637 13.7406C13.8637 13.4406 13.9737 13.1906 14.1737 12.9906L15.8337 11.3906L16.4737 10.9406L15.0837 10.9906H11.0837C8.9937 10.9906 7.6137 12.2406 7.6137 14.1106C7.6137 16.1306 9.0237 17.4706 11.1037 17.4706H12.9637C13.6037 17.4706 14.0237 17.8806 14.0237 18.4806C14.0237 19.1006 13.5937 19.5106 12.9337 19.5106H11.1037C7.7937 19.5106 5.5737 17.3806 5.5737 14.1106Z"
        fillRule="evenodd"
        clipRule="evenodd"
    />
</svg>
        