
<svg
    viewBox="0 0 55.5625 22.599609375"
    xmlns="http://www.w3.org/2000/svg"
>
    <path
        fill="inherit"
        d="M0.0037 11.3077C0.0037 11.8077 0.2237 12.3077 0.6537 12.7177L10.2537 21.7677C10.8837 22.3577 11.4037 22.5977 12.0337 22.5977C12.9337 22.5977 13.6337 21.9277 13.6337 21.0277V16.5477H22.8737C24.8737 16.5477 26.0737 15.3377 26.0737 13.3977V9.2177C26.0737 7.2577 24.8837 6.0977 22.8737 6.0977H13.6337V1.6577C13.6337 0.7277 12.9237 -0.0023 12.0137 -0.0023C11.4137 -0.0023 11.0037 0.2177 10.2537 0.9177L0.6537 9.8877C0.1937 10.3177 0.0037 10.7977 0.0037 11.3077ZM55.5637 11.3077C55.5637 10.7977 55.3737 10.3177 54.9037 9.8877L45.3037 0.9177C44.5537 0.2177 44.1437 -0.0023 43.5437 -0.0023C42.6437 -0.0023 41.9337 0.7277 41.9337 1.6577V6.0977H32.6937C30.6837 6.0977 29.4937 7.2577 29.4937 9.2177V13.3977C29.4937 15.3377 30.6937 16.5477 32.6937 16.5477H41.9337V21.0277C41.9337 21.9277 42.6337 22.5977 43.5337 22.5977C44.1637 22.5977 44.6837 22.3577 45.3037 21.7677L54.9037 12.7177C55.3437 12.3077 55.5637 11.8077 55.5637 11.3077ZM2.7737 11.5977C2.5537 11.3777 2.5737 11.2277 2.7737 11.0177L11.2237 2.9777C11.3237 2.8977 11.4137 2.9377 11.4137 3.0377V7.7377C11.4137 8.1077 11.6237 8.2877 11.9737 8.2877H22.8037C23.4737 8.2877 23.8737 8.6777 23.8737 9.3777V13.2777C23.8737 13.9677 23.4737 14.3377 22.8037 14.3377H11.9737C11.6237 14.3377 11.4137 14.5177 11.4137 14.9177V19.4677C11.4137 19.5777 11.3237 19.6177 11.2237 19.5277ZM32.7537 14.3377C32.0837 14.3377 31.6937 13.9677 31.6937 13.2777V9.3777C31.6937 8.6777 32.0837 8.2877 32.7537 8.2877H43.5837C43.9437 8.2877 44.1437 8.1077 44.1437 7.7377V3.0377C44.1437 2.9377 44.2437 2.8977 44.3337 2.9777L52.7837 11.0177C52.9937 11.2277 53.0037 11.3777 52.7837 11.5977L44.3337 19.5277C44.2437 19.6177 44.1437 19.5777 44.1437 19.4677V14.9177C44.1437 14.5177 43.9437 14.3377 43.5837 14.3377Z"
        fillRule="evenodd"
        clipRule="evenodd"
    />
</svg>
        