
<svg
    viewBox={0 0 20.822265625 24.103515625}
    xmlns="http://www.w3.org/2000/svg"
>
    <path
        fill="inherit"
        d="M10.4137 24.106C11.1337 24.106 11.6337 23.596 11.6337 22.886V9.076L11.5437 6.156L15.6537 10.646L18.7137 13.676C18.9337 13.886 19.2637 14.016 19.5937 14.016C20.2737 14.016 20.7837 13.496 20.7837 12.806C20.7837 12.486 20.6437 12.186 20.3737 11.896L11.3337 2.846C11.1437 2.636 10.9237 2.516 10.6937 2.446H19.6237C20.3337 2.446 20.8237 1.946 20.8237 1.226C20.8237 0.516 20.3337 -0.004 19.6237 -0.004H1.1737C0.4737 -0.004 0.0037 0.516 0.0037 1.226C0.0037 1.946 0.4737 2.446 1.1737 2.446H10.1337C9.8937 2.516 9.6837 2.636 9.5037 2.846L0.4537 11.896C0.1937 12.186 0.0537 12.486 0.0537 12.806C0.0537 13.496 0.5437 14.016 1.2437 14.016C1.5737 14.016 1.8837 13.886 2.1237 13.676L5.1837 10.646L9.2937 6.136L9.1837 9.076V22.886C9.1837 23.596 9.6937 24.106 10.4137 24.106Z"
        fillRule="evenodd"
        clipRule="evenodd"
    />
</svg>
        