
<svg
    viewBox={0 0 40.704612134007846 28.587890625}
    xmlns="http://www.w3.org/2000/svg"
>
    <path
        fill="inherit"
        d="M20.3425 28.5845C20.8825 28.5845 21.3525 28.1645 21.3525 27.6345V0.9445C21.3525 0.4145 20.8825 0.0045 20.3425 0.0045C19.8125 0.0045 19.3425 0.4145 19.3425 0.9445V27.6345C19.3425 28.1645 19.8125 28.5845 20.3425 28.5845ZM0.5925 15.4345L12.1525 22.1345C13.0325 22.6445 14.1125 22.1345 14.1125 21.1945V7.4645C14.1125 6.5045 13.0125 5.9645 12.1525 6.4645L0.5925 13.2445C-0.1875 13.6945 -0.2075 14.9545 0.5925 15.4345ZM40.1125 15.4345C40.9125 14.9545 40.8925 13.6945 40.1125 13.2445L28.5525 6.4645C27.6825 5.9645 26.5925 6.5045 26.5925 7.4645V21.1945C26.5925 22.1345 27.6725 22.6445 28.5525 22.1345Z"
        fillRule="evenodd"
        clipRule="evenodd"
    />
</svg>
        