<svg viewBox="0 0 33.85216567095588 25.169921875" xmlns="http://www.w3.org/2000/svg"><path d="M11.964 1.0955C11.974 1.7955 12.404 2.2055 13.184 2.2055H24.284C25.644 2.2055 26.404 2.9255 26.404 4.3455V19.1955L24.364 17.0055L23.054 15.7255C22.584 15.2755 21.944 15.2155 21.464 15.6855C21.004 16.1455 21.024 16.8155 21.494 17.2855L26.104 21.8655C27.004 22.7455 27.984 22.7455 28.894 21.8655L33.484 17.2855C33.964 16.8155 33.974 16.1455 33.524 15.6855C33.054 15.2155 32.404 15.2555 31.934 15.7255L30.624 17.0055L28.604 19.1655V4.2355C28.604 1.4055 27.164 -0.0045 24.304 -0.0045H13.184C12.404 -0.0045 11.954 0.3955 11.964 1.0955ZM0.324 9.4755C0.804 9.9555 1.454 9.8955 1.914 9.4455L3.224 8.1455L5.254 6.0055V20.9355C5.254 23.7655 6.704 25.1655 9.544 25.1655H20.674C21.454 25.1655 21.904 24.7755 21.894 24.0755C21.874 23.3655 21.454 22.9655 20.674 22.9655H9.584C8.214 22.9655 7.454 22.2455 7.454 20.8255V5.9755L9.484 8.1455L10.804 9.4455C11.264 9.8955 11.924 9.9555 12.384 9.4755C12.854 9.0255 12.824 8.3555 12.364 7.8855L7.754 3.2955C6.864 2.4155 5.864 2.4155 4.974 3.2955L0.374 7.8855C-0.106 8.3555 -0.126 9.0255 0.324 9.4755Z" /></svg>