
<svg
    viewBox={0 0 26.38167208701158 32.29296875}
    xmlns="http://www.w3.org/2000/svg"
>
    <path
        fill="inherit"
        d="M0.4137 7.2739C-0.1463 7.8039 -0.1263 8.6039 0.4137 9.1039L7.4537 15.9939C7.6937 16.2439 8.0537 16.3939 8.3537 16.3939C9.0737 16.3939 9.5737 15.8839 9.5737 15.1739C9.5737 14.8339 9.4437 14.5639 9.2137 14.3239L6.2737 11.4839L3.7337 9.2839L6.8937 9.4239H25.1537C25.8637 9.4239 26.3737 8.9139 26.3737 8.1939C26.3737 7.4739 25.8637 6.9739 25.1537 6.9739H6.8937L3.7337 7.0939L6.2737 4.9039L9.2137 2.0539C9.4437 1.8139 9.5737 1.5539 9.5737 1.2039C9.5737 0.4939 9.0737 0.0039 8.3537 0.0039C8.0537 0.0039 7.6937 0.1339 7.4537 0.3839ZM25.9737 25.0239C26.5237 24.4839 26.5137 23.6939 25.9737 23.1739L18.9337 16.2839C18.6937 16.0539 18.3337 15.9039 18.0237 15.9039C17.2937 15.9039 16.8137 16.3939 16.8137 17.1039C16.8137 17.4639 16.9237 17.7339 17.1537 17.9539L20.1137 20.8039L22.6537 23.0139L19.4937 22.8739H1.2337C0.5237 22.8739 0.0037 23.3739 0.0037 24.0939C0.0037 24.8139 0.5237 25.3239 1.2337 25.3239H19.4937L22.6537 25.1839L20.1137 27.3839L17.1537 30.2239C16.9237 30.4639 16.8137 30.7339 16.8137 31.0939C16.8137 31.8039 17.2937 32.2939 18.0237 32.2939C18.3337 32.2939 18.6937 32.1439 18.9337 31.9139Z"
        fillRule="evenodd"
        clipRule="evenodd"
    />
</svg>
        