
<svg
    viewBox="0 0 27.890625 27.890625"
    xmlns="http://www.w3.org/2000/svg"
>
    <path
        fill="inherit"
        d="M13.9427 27.8864C21.6427 27.8864 27.8927 21.6264 27.8927 13.9464C27.8927 6.2464 21.6427 -0.0036 13.9427 -0.0036C6.2627 -0.0036 0.0027 6.2464 0.0027 13.9464C0.0027 21.6264 6.2627 27.8864 13.9427 27.8864ZM21.0727 13.9364C21.0727 14.2164 20.9727 14.4664 20.6827 14.7564L16.2027 19.3964C15.9927 19.6164 15.7627 19.7264 15.4627 19.7264C14.8927 19.7264 14.4827 19.3064 14.4827 18.7164C14.4827 18.4464 14.5727 18.1264 14.8227 17.9364L17.0927 15.7864L17.9627 14.9664L15.8427 15.0564H7.9427C7.3427 15.0564 6.8327 14.5464 6.8327 13.9364C6.8327 13.3164 7.3427 12.7964 7.9427 12.7964H15.8427L17.9627 12.8964L17.0927 12.0764L14.8227 9.9264C14.5727 9.7364 14.4827 9.4364 14.4827 9.1564C14.4827 8.5764 14.8927 8.1364 15.4627 8.1364C15.7627 8.1364 15.9927 8.2464 16.2027 8.4664L20.6827 13.1064C20.9727 13.3964 21.0727 13.6264 21.0727 13.9364Z"
        fillRule="evenodd"
        clipRule="evenodd"
    />
</svg>
        