
<svg
    viewBox="0 0 21.751953125 22.3125"
    xmlns="http://www.w3.org/2000/svg"
>
    <path
        fill="inherit"
        d="M21.7509 1.6537C21.7509 0.6437 20.9709 0.0137 19.7809 0.0137L1.9509 0.0037C0.7609 0.0037 0.0009 0.6337 0.0009 1.6437C0.0009 2.1837 0.2509 2.6337 0.5209 3.2137L9.0509 20.7837C9.6209 21.9437 10.1409 22.3137 10.8709 22.3137C11.5909 22.3137 12.1309 21.9437 12.7009 20.7837L21.2209 3.2137C21.5009 2.6537 21.7509 2.2037 21.7509 1.6537ZM19.1409 2.3537C19.1409 2.4037 19.1109 2.4637 19.0909 2.5337L11.0309 19.2537C10.9909 19.3137 10.9509 19.3737 10.8709 19.3737C10.8009 19.3737 10.7609 19.3137 10.7209 19.2537L2.6709 2.5137C2.6409 2.4437 2.6109 2.3937 2.6109 2.3337C2.6109 2.2537 2.6509 2.2037 2.7609 2.2037L18.9809 2.2137C19.0909 2.2137 19.1409 2.2737 19.1409 2.3537Z"
        fillRule="evenodd"
        clipRule="evenodd"
    />
</svg>
        