
<svg
    viewBox="0 0 27.890625 27.890625"
    xmlns="http://www.w3.org/2000/svg"
>
    <path
        fill="inherit"
        d="M13.9427 27.8864C21.6427 27.8864 27.8927 21.6464 27.8927 13.9464C27.8927 6.2464 21.6427 -0.0036 13.9427 -0.0036C6.2527 -0.0036 0.0027 6.2464 0.0027 13.9464C0.0027 21.6464 6.2527 27.8864 13.9427 27.8864ZM13.9427 25.5664C7.5227 25.5664 2.3227 20.3664 2.3227 13.9464C2.3227 7.5164 7.5227 2.3264 13.9427 2.3264C20.3727 2.3264 25.5627 7.5164 25.5627 13.9464C25.5627 20.3664 20.3727 25.5664 13.9427 25.5664ZM22.4227 13.9564C22.4227 13.6464 22.3027 13.4164 22.0427 13.1564L18.0927 9.1964C17.9127 9.0064 17.6627 8.9164 17.3727 8.9164C16.8127 8.9164 16.3927 9.3564 16.3927 9.9164C16.3927 10.1964 16.5027 10.4564 16.6927 10.6364L17.7327 11.6464L19.3827 13.0464L16.4927 12.9364H11.3427L8.4527 13.0464L10.1127 11.6464L11.1527 10.6364C11.3427 10.4564 11.4527 10.1964 11.4527 9.9164C11.4527 9.3564 11.0327 8.9164 10.4727 8.9164C10.1827 8.9164 9.9427 9.0064 9.7627 9.1964L5.8127 13.1564C5.5527 13.4164 5.4327 13.6464 5.4327 13.9564C5.4327 14.2464 5.5527 14.4664 5.8127 14.7364L9.7627 18.7164C9.9427 18.8964 10.1827 18.9864 10.4727 18.9864C11.0327 18.9864 11.4527 18.5564 11.4527 18.0064C11.4527 17.7064 11.3327 17.4564 11.1527 17.2664L10.1127 16.2464L8.4627 14.8764L11.3427 14.9664H16.4927L19.3727 14.8764L17.7327 16.2464L16.6927 17.2664C16.5127 17.4564 16.3927 17.7064 16.3927 18.0064C16.3927 18.5564 16.8127 18.9864 17.3727 18.9864C17.6627 18.9864 17.9127 18.8964 18.0927 18.7164L22.0427 14.7364C22.3027 14.4664 22.4227 14.2464 22.4227 13.9564Z"
        fillRule="evenodd"
        clipRule="evenodd"
    />
</svg>
        