
<svg
    viewBox={0 0 25.169921875 25.169921875}
    xmlns="http://www.w3.org/2000/svg"
>
    <path
        fill="inherit"
        d="M4.2937 25.1692H20.8737C23.7437 25.1692 25.1737 23.7592 25.1737 20.9492V4.2392C25.1737 1.4192 23.7437 -0.0008 20.8737 -0.0008H4.2937C1.4337 -0.0008 0.0037 1.4192 0.0037 4.2392V20.9492C0.0037 23.7592 1.4337 25.1692 4.2937 25.1692ZM8.1637 9.0792C8.7937 9.0792 9.2037 9.4992 9.2037 10.1892V12.6092L8.9937 14.8092L11.0337 12.6292L16.1837 7.4692C16.4037 7.2592 16.6637 7.1392 17.0037 7.1392C17.6237 7.1392 18.0437 7.5492 18.0437 8.1892C18.0437 8.4592 17.9137 8.7492 17.7037 8.9592L12.5237 14.1092L10.3237 16.1692L12.4137 15.9592H14.9537C15.6437 15.9592 16.0737 16.3692 16.0737 16.9792C16.0737 17.6092 15.6537 18.0192 14.9837 18.0192H8.3137C7.5837 18.0192 7.1337 17.6892 7.1337 16.8592V10.2092C7.1337 9.5392 7.5437 9.0792 8.1637 9.0792Z"
        fillRule="evenodd"
        clipRule="evenodd"
    />
</svg>
        