
<svg
    viewBox="0 0 24.14453125 29.435546875"
    xmlns="http://www.w3.org/2000/svg"
>
    <path
        fill="inherit"
        d="M24.1427 17.3627C24.1427 10.6927 18.7427 5.2927 12.0727 5.2927C11.2427 5.2927 10.4327 5.3827 9.7227 5.5227L13.3527 1.9027C13.5527 1.6827 13.6627 1.4127 13.6627 1.1227C13.6627 0.4927 13.1927 0.0027 12.5827 0.0027C12.2527 0.0027 11.9727 0.1127 11.7827 0.3327L6.1527 6.0427C5.9327 6.2627 5.8127 6.5627 5.8127 6.8627C5.8127 7.1827 5.9027 7.4527 6.1527 7.6827L11.7827 13.3427C11.9927 13.5327 12.2327 13.6627 12.5827 13.6627C13.1927 13.6627 13.6627 13.1927 13.6627 12.5627C13.6627 12.2727 13.5627 11.9927 13.3427 11.7827L9.2527 7.7427C10.0627 7.5427 11.0327 7.4827 12.0727 7.4827C17.5227 7.4827 21.9427 11.8927 21.9427 17.3527C21.9427 22.8027 17.5227 27.2227 12.0727 27.2227C6.6127 27.2227 2.2027 22.8027 2.2027 17.3527C2.2027 16.6927 1.7927 16.2127 1.1327 16.2127C0.4627 16.2127 0.0027 16.6927 0.0027 17.3627C0.0027 24.0327 5.4027 29.4327 12.0727 29.4327C18.7427 29.4327 24.1427 24.0327 24.1427 17.3627Z"
        fillRule="evenodd"
        clipRule="evenodd"
    />
</svg>
        