
<svg
    viewBox={0 0 26.71484375 26.974609375}
    xmlns="http://www.w3.org/2000/svg"
>
    <path
        fill="inherit"
        d="M-0.0045 10.9116C-0.0045 16.9216 4.8955 21.8216 10.9055 21.8216C13.2855 21.8216 15.4655 21.0516 17.2555 19.7716L23.9855 26.5116C24.2955 26.8216 24.7055 26.9716 25.1455 26.9716C26.0755 26.9716 26.7155 26.2816 26.7155 25.3616C26.7155 24.9216 26.5555 24.5316 26.2655 24.2416L19.5755 17.5116C20.9855 15.6816 21.8155 13.4016 21.8155 10.9116C21.8155 4.8916 16.9255 0.0016 10.9055 0.0016C4.8955 0.0016 -0.0045 4.8916 -0.0045 10.9116ZM2.3355 10.9116C2.3355 6.1816 6.1755 2.3416 10.9055 2.3416C15.6455 2.3416 19.4855 6.1816 19.4855 10.9116C19.4855 15.6416 15.6455 19.4816 10.9055 19.4816C6.1755 19.4816 2.3355 15.6416 2.3355 10.9116ZM6.0955 10.3516C6.0955 11.0916 6.8755 11.1816 7.2755 10.8016L8.4255 9.6616L12.0955 13.3416L10.9055 14.5016C10.4855 14.9116 10.6255 15.6816 11.3655 15.6816H14.9055C15.3955 15.6816 15.6655 15.3716 15.6655 14.8116V11.4416C15.6655 10.7016 14.8855 10.6116 14.4955 10.9916L13.3555 12.1116L9.6755 8.4316L10.8555 7.2916C11.2755 6.8816 11.1455 6.1116 10.4055 6.1116H6.8655C6.3755 6.1116 6.0955 6.4216 6.0955 6.9816Z"
        fillRule="evenodd"
        clipRule="evenodd"
    />
</svg>
        