<svg viewBox="0 0 27.890625 27.890625" xmlns="http://www.w3.org/2000/svg"><path d="M13.9427 27.8864C21.6427 27.8864 27.8927 21.6464 27.8927 13.9464C27.8927 6.2464 21.6427 -0.0036 13.9427 -0.0036C6.2527 -0.0036 0.0027 6.2464 0.0027 13.9464C0.0027 21.6464 6.2527 27.8864 13.9427 27.8864ZM13.9427 25.5664C7.5227 25.5664 2.3227 20.3664 2.3227 13.9464C2.3227 7.5164 7.5227 2.3264 13.9427 2.3264C20.3727 2.3264 25.5627 7.5164 25.5627 13.9464C25.5627 20.3664 20.3727 25.5664 13.9427 25.5664ZM19.9627 13.7664C20.4927 13.7664 20.9327 13.3264 20.9327 12.7964C20.9327 12.2664 20.4927 11.8364 19.9627 11.8364H19.2927L17.2027 11.9764L20.8927 8.4364C21.2827 8.0364 21.3027 7.3864 20.9027 6.9864C20.5127 6.5764 19.8527 6.5764 19.4527 6.9964L15.8827 10.7064L16.0227 8.5464V7.8764C16.0227 7.3464 15.6027 6.9164 15.0627 6.9164C14.5327 6.9164 14.0927 7.3464 14.0927 7.8764V12.6364C14.0927 13.4564 14.5227 13.7664 15.2327 13.7664ZM12.7927 20.9564C13.3327 20.9564 13.7527 20.5364 13.7527 20.0064V15.2264C13.7527 14.4264 13.3427 14.1064 12.6327 14.1064H7.8927C7.3527 14.1064 6.9327 14.5364 6.9327 15.0764C6.9327 15.6164 7.3527 16.0364 7.8927 16.0364H8.5727L10.6627 15.8964L6.9727 19.4364C6.5727 19.8264 6.5627 20.4964 6.9627 20.8864C7.3527 21.2964 8.0127 21.2964 8.4127 20.8764L11.9727 17.1764L11.8227 19.3364V20.0064C11.8227 20.5364 12.2627 20.9564 12.7927 20.9564Z" /></svg>