
<svg
    viewBox="0 0 25.169921875 25.169921875"
    xmlns="http://www.w3.org/2000/svg"
>
    <path
        fill="inherit"
        d="M4.2937 25.1692H20.8737C23.7437 25.1692 25.1737 23.7592 25.1737 20.9492V4.2392C25.1737 1.4192 23.7437 -0.0008 20.8737 -0.0008H4.2937C1.4337 -0.0008 0.0037 1.4192 0.0037 4.2392V20.9492C0.0037 23.7592 1.4337 25.1692 4.2937 25.1692ZM17.0037 9.0792C17.6237 9.0792 18.0437 9.5392 18.0437 10.2092V16.8592C18.0437 17.6892 17.5837 18.0192 16.8537 18.0192H10.1837C9.5137 18.0192 9.0937 17.6092 9.0937 16.9792C9.0937 16.3692 9.5337 15.9592 10.2137 15.9592H12.7537L14.8437 16.1692L12.6437 14.1092L7.4637 8.9592C7.2637 8.7492 7.1337 8.4592 7.1337 8.1892C7.1337 7.5492 7.5437 7.1392 8.1637 7.1392C8.5037 7.1392 8.7737 7.2592 8.9837 7.4692L14.1337 12.6292L16.1737 14.8092L15.9737 12.6092V10.1892C15.9737 9.4992 16.3837 9.0792 17.0037 9.0792Z"
        fillRule="evenodd"
        clipRule="evenodd"
    />
</svg>
        