
<svg
    viewBox="0 0 27.890625 27.890625"
    xmlns="http://www.w3.org/2000/svg"
>
    <path
        fill="inherit"
        d="M13.9427 27.8864C21.6427 27.8864 27.8927 21.6464 27.8927 13.9464C27.8927 6.2464 21.6427 -0.0036 13.9427 -0.0036C6.2527 -0.0036 0.0027 6.2464 0.0027 13.9464C0.0027 21.6464 6.2527 27.8864 13.9427 27.8864ZM13.9427 25.5664C7.5227 25.5664 2.3227 20.3664 2.3227 13.9464C2.3227 7.5164 7.5227 2.3264 13.9427 2.3264C20.3727 2.3264 25.5627 7.5164 25.5627 13.9464C25.5627 20.3664 20.3727 25.5664 13.9427 25.5664ZM8.4227 14.6864L16.2027 19.2864C16.8427 19.6764 17.5727 19.3564 17.5727 18.7064V9.1964C17.5727 8.5264 16.7927 8.2564 16.2027 8.6164L8.4227 13.2164C7.8427 13.5464 7.8327 14.3564 8.4227 14.6864Z"
        fillRule="evenodd"
        clipRule="evenodd"
    />
</svg>
        