
<svg
    viewBox="0 0 32.23828125 25.169921875"
    xmlns="http://www.w3.org/2000/svg"
>
    <path
        fill="inherit"
        d="M4.2937 25.1692H27.9437C30.8137 25.1692 32.2337 23.7592 32.2337 20.9492V4.2392C32.2337 1.4192 30.8137 -0.0008 27.9437 -0.0008H4.2937C1.4337 -0.0008 0.0037 1.4192 0.0037 4.2392V20.9492C0.0037 23.7592 1.4337 25.1692 4.2937 25.1692ZM4.3237 22.9692C2.9537 22.9692 2.2037 22.2392 2.2037 20.8192V4.3592C2.2037 2.9392 2.9537 2.1992 4.3237 2.1992H27.9137C29.2737 2.1992 30.0337 2.9392 30.0337 4.3592V20.8192C30.0337 22.2392 29.2737 22.9692 27.9137 22.9692ZM17.8037 4.6892C17.2237 4.6892 16.8337 5.1392 16.8337 5.7392V11.1292C16.8337 11.8792 17.2637 12.2092 17.9237 12.2092H23.3537C23.9437 12.2092 24.3637 11.8092 24.3637 11.2392C24.3637 10.6592 23.9437 10.2792 23.3237 10.2792H21.5437L19.8537 10.4492L21.6837 8.7592L24.5137 5.9192C24.6937 5.7392 24.8237 5.4792 24.8237 5.2192C24.8237 4.6392 24.4137 4.2392 23.8537 4.2392C23.5437 4.2392 23.2937 4.3492 23.1037 4.5392L20.2937 7.3692L18.5937 9.1592L18.7537 7.3692V5.7192C18.7537 5.1092 18.3737 4.6892 17.8037 4.6892ZM14.4337 20.4792C15.0137 20.4792 15.4037 20.0392 15.4037 19.4392V14.0592C15.4037 13.2892 14.9837 12.9792 14.3237 12.9792H8.8837C8.3037 12.9792 7.8937 13.3692 7.8937 13.9492C7.8937 14.5192 8.3037 14.8992 8.9137 14.8992H10.6937L12.3837 14.7392L10.5537 16.4192L7.7337 19.2492C7.5637 19.4292 7.4237 19.6992 7.4237 19.9592C7.4237 20.5492 7.8237 20.9292 8.3837 20.9292C8.6937 20.9292 8.9437 20.8192 9.1337 20.6292L11.9537 17.8192L13.6437 16.0092L13.4837 17.8192V19.4692C13.4837 20.0692 13.8637 20.4792 14.4337 20.4792Z"
        fillRule="evenodd"
        clipRule="evenodd"
    />
</svg>
        