<svg viewBox="0 0 41.6171875 25.990234375" xmlns="http://www.w3.org/2000/svg"><path d="M20.8037 25.9894C21.5237 25.9894 22.0237 25.4894 22.0237 24.7694V1.1894C22.0237 0.4894 21.5237 -0.0006 20.8037 -0.0006C20.0937 -0.0006 19.5737 0.4894 19.5737 1.1894V24.7694C19.5737 25.4894 20.0937 25.9894 20.8037 25.9894ZM17.1837 12.9894C17.1837 12.2794 16.6937 11.7694 15.9837 11.7694H6.6537L3.9337 11.8494L8.4537 7.4894C8.6837 7.2694 8.7937 6.9494 8.7937 6.6194C8.7937 5.9294 8.2737 5.4294 7.5837 5.4294C7.2637 5.4294 6.9437 5.5694 6.6737 5.8394L0.4237 12.0694C0.1637 12.3294 0.0037 12.6494 0.0037 12.9894C0.0037 13.3294 0.1637 13.6494 0.4237 13.8994L6.6737 20.1394C6.9437 20.4094 7.2637 20.5494 7.5837 20.5494C8.2737 20.5494 8.7937 20.0394 8.7937 19.3594C8.7937 19.0294 8.6837 18.6994 8.4537 18.4794L3.9337 14.1194L6.6537 14.2194H15.9837C16.6937 14.2194 17.1837 13.6994 17.1837 12.9894ZM24.4337 12.9894C24.4337 13.6994 24.9237 14.2194 25.6337 14.2194H34.9437L37.6837 14.1194L33.1637 18.4794C32.9337 18.6994 32.8237 19.0294 32.8237 19.3594C32.8237 20.0394 33.3437 20.5494 34.0137 20.5494C34.3537 20.5494 34.6737 20.4094 34.9437 20.1394L41.1937 13.8994C41.4537 13.6494 41.6137 13.3294 41.6137 12.9894C41.6137 12.6494 41.4537 12.3294 41.1937 12.0694L34.9437 5.8394C34.6737 5.5694 34.3537 5.4294 34.0137 5.4294C33.3437 5.4294 32.8237 5.9294 32.8237 6.6194C32.8237 6.9494 32.9337 7.2694 33.1637 7.4894L37.6837 11.8494L34.9437 11.7694H25.6337C24.9237 11.7694 24.4337 12.2794 24.4337 12.9894Z" /></svg>