
<svg
    viewBox={0 0 25.2109375 25.2109375}
    xmlns="http://www.w3.org/2000/svg"
>
    <path
        fill="inherit"
        d="M23.6137 1.6166C22.2137 0.2166 20.2437 -0.0034 17.9137 -0.0034H7.2637C4.9637 -0.0034 2.9937 0.2166 1.6037 1.6166C0.2037 3.0066 0.0037 4.9666 0.0037 7.2566V17.9066C0.0037 20.2466 0.2037 22.2066 1.6037 23.5966C2.9937 24.9966 4.9637 25.2066 7.2837 25.2066H17.9137C20.2437 25.2066 22.2137 24.9966 23.6137 23.5966C25.0037 22.2066 25.2137 20.2466 25.2137 17.9066V7.2866C25.2137 4.9466 25.0037 3.0066 23.6137 1.6166ZM23.0137 6.9166V18.2966C23.0137 19.6966 22.8337 21.1666 21.9937 21.9866C21.1737 22.8166 19.7037 23.0066 18.2937 23.0066H6.9137C5.5137 23.0066 4.0337 22.8166 3.2037 21.9866C2.3837 21.1666 2.2037 19.6966 2.2037 18.2966V6.9566C2.2037 5.5066 2.3837 4.0466 3.2037 3.2166C4.0337 2.3966 5.5237 2.1966 6.9637 2.1966H18.2937C19.7037 2.1966 21.1737 2.3966 21.9937 3.2266C22.8337 4.0466 23.0137 5.5066 23.0137 6.9166ZM16.8937 15.9966C17.5037 15.9966 17.8937 15.5266 17.8937 14.9066V8.4466C17.8937 7.6466 17.4637 7.3266 16.7637 7.3266H10.2637C9.6237 7.3266 9.2137 7.7266 9.2137 8.3266C9.2137 8.9266 9.6437 9.3266 10.2937 9.3266H12.7837L14.8037 9.1066L12.6737 11.0866L7.6437 16.1366C7.4537 16.3266 7.3137 16.5966 7.3137 16.8666C7.3137 17.4866 7.7137 17.8866 8.3137 17.8866C8.6437 17.8866 8.9037 17.7566 9.0937 17.5666L14.1237 12.5366L16.0937 10.4366L15.8837 12.5666V14.9266C15.8837 15.5766 16.2837 15.9966 16.8937 15.9966Z"
        fillRule="evenodd"
        clipRule="evenodd"
    />
</svg>
        