
<svg
    viewBox={0 0 27.890625 27.890625}
    xmlns="http://www.w3.org/2000/svg"
>
    <path
        fill="inherit"
        d="M13.9427 27.8864C21.6427 27.8864 27.8927 21.6264 27.8927 13.9464C27.8927 6.2464 21.6427 -0.0036 13.9427 -0.0036C6.2627 -0.0036 0.0027 6.2464 0.0027 13.9464C0.0027 21.6264 6.2627 27.8864 13.9427 27.8864ZM19.0027 20.5464C18.6327 20.9164 17.9927 20.9164 17.6227 20.5464L14.1627 17.0264C14.0027 16.8164 13.9027 16.5664 13.9027 16.3564C13.9027 15.8164 14.2627 15.4464 14.7927 15.4464C15.0527 15.4464 15.2727 15.5264 15.4527 15.7264L16.9027 17.1964L17.4227 17.7864L17.3927 17.1264V7.9864C17.3927 7.4664 17.7827 7.0864 18.3227 7.0864C18.8427 7.0864 19.2327 7.4664 19.2327 7.9864V17.1164L19.2127 17.7764L19.7427 17.1964L21.1927 15.7264C21.3527 15.5564 21.5927 15.4464 21.8327 15.4464C22.3627 15.4464 22.7527 15.8164 22.7527 16.3564C22.7527 16.5864 22.6127 16.8264 22.4527 17.0264ZM8.9027 7.3664C9.2927 6.9764 9.8827 6.9964 10.2527 7.3664L13.7127 10.9064C13.8727 11.0764 13.9827 11.3364 13.9827 11.5664C13.9827 12.0964 13.6127 12.4864 13.0927 12.4864C12.8527 12.4864 12.6227 12.3864 12.4527 12.2264L10.9927 10.7064L10.4727 10.1264L10.5027 10.7964V19.9364C10.5027 20.4364 10.1127 20.8264 9.5727 20.8264C9.0527 20.8264 8.6527 20.4364 8.6527 19.9364V10.8164L8.6827 10.1264L8.1527 10.7064L6.7027 12.1964C6.5327 12.3764 6.3027 12.4864 6.0727 12.4864C5.5327 12.4864 5.1427 12.0864 5.1427 11.5664C5.1427 11.3564 5.2727 11.1064 5.4327 10.9064Z"
        fillRule="evenodd"
        clipRule="evenodd"
    />
</svg>
        