
<svg
    viewBox={0 0 27.958984375 34.3984375}
    xmlns="http://www.w3.org/2000/svg"
>
    <path
        fill="inherit"
        d="M0.0037 30.104C0.0037 32.964 1.4037 34.394 4.2337 34.394H17.0937C19.9237 34.394 21.3237 32.954 21.3237 30.104V27.574H23.7237C26.5337 27.574 27.9637 26.124 27.9637 23.284V4.294C27.9637 1.454 26.5337 0.004 23.7237 0.004H10.8737C8.0537 0.004 6.6337 1.434 6.6337 4.294V6.824H4.2337C1.4037 6.824 0.0037 8.244 0.0037 11.114ZM13.0837 3.884V3.594C13.0837 3.174 13.3537 2.794 13.9637 2.794H20.6337C21.2237 2.794 21.5037 3.174 21.5037 3.594V3.884C21.5037 4.294 21.2237 4.694 20.6337 4.694H13.9637C13.3537 4.694 13.0837 4.294 13.0837 3.884ZM2.2037 30.064V11.144C2.2037 9.794 2.9237 9.024 4.3337 9.024H16.9837C18.3937 9.024 19.1237 9.794 19.1237 11.144V30.064C19.1237 31.434 18.3937 32.194 16.9837 32.194H4.3337C2.9237 32.194 2.2037 31.434 2.2037 30.064ZM10.6937 14.804C10.4437 14.804 10.2237 14.904 9.9837 15.124L6.2337 18.744C6.0537 18.904 5.9437 19.114 5.9437 19.384C5.9437 19.874 6.3337 20.264 6.8337 20.264C7.0637 20.264 7.3437 20.154 7.5237 19.964L9.2437 18.104L9.7637 17.564L9.7037 19.044V25.454C9.7037 25.964 10.1737 26.414 10.6937 26.414C11.2137 26.414 11.6637 25.964 11.6637 25.454V19.044L11.6037 17.584L12.1137 18.104L13.8537 19.964C14.0237 20.154 14.2837 20.264 14.5237 20.264C15.0237 20.264 15.4237 19.874 15.4237 19.384C15.4237 19.114 15.3137 18.904 15.1337 18.744L11.3937 15.124C11.1437 14.904 10.9237 14.804 10.6937 14.804Z"
        fillRule="evenodd"
        clipRule="evenodd"
    />
</svg>
        