
<svg
    viewBox={0 0 32.23828125 25.169921875}
    xmlns="http://www.w3.org/2000/svg"
>
    <path
        fill="inherit"
        d="M4.2937 25.1692H27.9437C30.8137 25.1692 32.2337 23.7592 32.2337 20.9492V4.2392C32.2337 1.4192 30.8137 -0.0008 27.9437 -0.0008H4.2937C1.4337 -0.0008 0.0037 1.4192 0.0037 4.2392V20.9492C0.0037 23.7592 1.4337 25.1692 4.2937 25.1692ZM4.3237 22.9692C2.9537 22.9692 2.2037 22.2392 2.2037 20.8192V4.3592C2.2037 2.9392 2.9537 2.1992 4.3237 2.1992H27.9137C29.2737 2.1992 30.0337 2.9392 30.0337 4.3592V20.8192C30.0337 22.2392 29.2737 22.9692 27.9137 22.9692ZM19.2737 5.4692C18.6737 5.4692 18.2837 5.9192 18.2837 6.5592V12.8092C18.2837 13.6292 18.7137 13.9492 19.4137 13.9492H25.7137C26.3437 13.9492 26.7537 13.5492 26.7537 12.9492C26.7537 12.3492 26.3337 11.9492 25.6937 11.9492H23.3837L21.3537 12.1692L23.4837 10.1692L27.6137 6.0392C27.8037 5.8492 27.9437 5.5892 27.9437 5.3192C27.9437 4.6992 27.5537 4.2892 26.9437 4.2892C26.6037 4.2892 26.3637 4.4192 26.1637 4.6092L22.0437 8.7392L20.0737 10.8392L20.2737 8.7092V6.5392C20.2737 5.8792 19.8837 5.4692 19.2737 5.4692Z"
        fillRule="evenodd"
        clipRule="evenodd"
    />
</svg>
        