
<svg
    viewBox={0 0 27.890625 27.890625}
    xmlns="http://www.w3.org/2000/svg"
>
    <path
        fill="inherit"
        d="M13.9427 27.8864C21.6427 27.8864 27.8927 21.6264 27.8927 13.9464C27.8927 6.2464 21.6427 -0.0036 13.9427 -0.0036C6.2627 -0.0036 0.0027 6.2464 0.0027 13.9464C0.0027 21.6264 6.2627 27.8864 13.9427 27.8864ZM7.8327 20.1664C7.2727 20.1664 6.8727 19.7864 6.8727 19.2364V8.6364C6.8727 8.0964 7.2727 7.7064 7.8327 7.7064C8.3827 7.7064 8.7727 8.0964 8.7727 8.6364V19.2364C8.7727 19.7864 8.3827 20.1664 7.8327 20.1664ZM22.6227 13.9564C22.6227 14.5364 22.2327 14.9164 21.6827 14.9164H15.2327L12.6327 14.7564L15.5027 17.2964L16.3927 18.1164C16.5927 18.2764 16.6627 18.5164 16.6627 18.7964C16.6627 19.3464 16.2827 19.7164 15.7327 19.7164C15.5027 19.7164 15.2127 19.5964 15.0227 19.3964L10.1727 14.6664C9.9527 14.4664 9.8427 14.2164 9.8427 13.9564C9.8427 13.6864 9.9827 13.4564 10.1727 13.2364L15.0427 8.4664C15.2427 8.2464 15.4927 8.1664 15.7327 8.1664C16.2527 8.1664 16.6627 8.5264 16.6627 9.0664C16.6627 9.3264 16.5927 9.5864 16.3927 9.7664L15.5127 10.6264L12.6427 13.1664L15.2327 13.0164H21.6827C22.2327 13.0164 22.6227 13.4164 22.6227 13.9564Z"
        fillRule="evenodd"
        clipRule="evenodd"
    />
</svg>
        