
<svg
    viewBox={0 0 27.890625 27.890625}
    xmlns="http://www.w3.org/2000/svg"
>
    <path
        fill="inherit"
        d="M13.9427 27.8864C21.6427 27.8864 27.8927 21.6464 27.8927 13.9464C27.8927 6.2464 21.6427 -0.0036 13.9427 -0.0036C6.2527 -0.0036 0.0027 6.2464 0.0027 13.9464C0.0027 21.6464 6.2527 27.8864 13.9427 27.8864ZM13.9427 25.5664C7.5227 25.5664 2.3227 20.3664 2.3227 13.9464C2.3227 7.5164 7.5227 2.3264 13.9427 2.3264C20.3727 2.3264 25.5627 7.5164 25.5627 13.9464C25.5627 20.3664 20.3727 25.5664 13.9427 25.5664ZM8.0227 13.9364C8.5627 13.9364 8.9927 13.5064 8.9927 12.9764V12.3064L8.8427 10.1464L11.8127 13.2464C12.2127 13.6864 12.8627 13.6764 13.2627 13.2664C13.6627 12.8664 13.6427 12.1964 13.2527 11.8164L10.1727 8.8764L12.2627 9.0064H12.9327C13.4627 9.0064 13.8927 8.5864 13.8927 8.0564C13.8927 7.5164 13.4627 7.0864 12.9327 7.0864H8.1927C7.4827 7.0864 7.0727 7.3964 7.0727 8.2164V12.9764C7.0727 13.5064 7.4927 13.9364 8.0227 13.9364ZM14.9427 20.8364H19.6727C20.3827 20.8364 20.8127 20.5264 20.8127 19.6964V14.9464C20.8127 14.4064 20.3727 13.9864 19.8427 13.9864C19.3027 13.9864 18.8827 14.4064 18.8827 14.9464V15.6164L19.0127 17.7764L16.0627 14.6664C15.6527 14.2364 15.0127 14.2464 14.6027 14.6564C14.2027 15.0564 14.2227 15.7264 14.6127 16.1064L17.7027 19.0464L15.6127 18.9064H14.9427C14.4127 18.9064 13.9727 19.3364 13.9727 19.8664C13.9727 20.3964 14.4127 20.8364 14.9427 20.8364Z"
        fillRule="evenodd"
        clipRule="evenodd"
    />
</svg>
        