
<svg
    viewBox="0 0 27.822265625 27.69921875"
    xmlns="http://www.w3.org/2000/svg"
>
    <path
        fill="inherit"
        d="M13.9227 2.3507C14.5627 2.3507 15.0927 1.8207 15.0927 1.1807C15.0927 0.5307 14.5627 0.0007 13.9227 0.0007C13.2727 0.0007 12.7427 0.5307 12.7427 1.1807C12.7427 1.8207 13.2727 2.3507 13.9227 2.3507ZM17.8327 2.9907C18.4727 2.9907 19.0027 2.4607 19.0027 1.8207C19.0027 1.1807 18.4727 0.6407 17.8327 0.6407C17.1827 0.6407 16.6527 1.1807 16.6527 1.8207C16.6527 2.4607 17.1827 2.9907 17.8327 2.9907ZM10.0127 2.9907C10.6527 2.9907 11.1827 2.4607 11.1827 1.8207C11.1827 1.1807 10.6527 0.6407 10.0127 0.6407C9.3527 0.6407 8.8327 1.1807 8.8327 1.8207C8.8327 2.4607 9.3527 2.9907 10.0127 2.9907ZM21.3827 4.7807C22.0227 4.7807 22.5627 4.2507 22.5627 3.6107C22.5627 2.9707 22.0227 2.4307 21.3827 2.4307C20.7427 2.4307 20.2027 2.9707 20.2027 3.6107C20.2027 4.2507 20.7427 4.7807 21.3827 4.7807ZM6.4527 4.7807C7.0927 4.7807 7.6327 4.2507 7.6327 3.6107C7.6327 2.9707 7.0927 2.4307 6.4527 2.4307C5.7927 2.4307 5.2727 2.9707 5.2727 3.6107C5.2727 4.2507 5.7927 4.7807 6.4527 4.7807ZM24.1827 7.6007C24.8327 7.6007 25.3627 7.0707 25.3627 6.4307C25.3627 5.7807 24.8327 5.2507 24.1827 5.2507C23.5427 5.2507 23.0127 5.7807 23.0127 6.4307C23.0127 7.0707 23.5427 7.6007 24.1827 7.6007ZM3.6327 7.6007C4.2827 7.6007 4.8127 7.0707 4.8127 6.4307C4.8127 5.7807 4.2827 5.2507 3.6327 5.2507C2.9927 5.2507 2.4627 5.7807 2.4627 6.4307C2.4627 7.0707 2.9927 7.6007 3.6327 7.6007ZM9.6127 17.2407C10.2227 17.2407 10.6227 16.8207 10.6227 16.1707V13.8107L10.4227 11.6807L12.3827 13.7807L17.4227 18.8107C17.6127 19.0007 17.8527 19.1307 18.1927 19.1307C18.8027 19.1307 19.1927 18.7307 19.1927 18.1107C19.1927 17.8407 19.0627 17.5707 18.8627 17.3807L13.8327 12.3307L11.7027 10.3507L13.7227 10.5707H16.2127C16.8727 10.5707 17.2927 10.1707 17.2927 9.5707C17.2927 8.9707 16.8827 8.5707 16.2427 8.5707H9.7527C9.0527 8.5707 8.6127 8.8907 8.6127 9.6907V16.1507C8.6127 16.7707 9.0127 17.2407 9.6127 17.2407ZM25.9727 11.1007C26.6227 11.1007 27.1527 10.5707 27.1527 9.9307C27.1527 9.2807 26.6227 8.7507 25.9727 8.7507C25.3327 8.7507 24.8027 9.2807 24.8027 9.9307C24.8027 10.5707 25.3327 11.1007 25.9727 11.1007ZM1.8427 11.1007C2.4927 11.1007 3.0227 10.5707 3.0227 9.9307C3.0227 9.2807 2.4927 8.7507 1.8427 8.7507C1.2027 8.7507 0.6727 9.2807 0.6727 9.9307C0.6727 10.5707 1.2027 11.1007 1.8427 11.1007ZM26.6427 15.0207C27.2927 15.0207 27.8227 14.4907 27.8227 13.8507C27.8227 13.2107 27.2927 12.6707 26.6427 12.6707C26.0027 12.6707 25.4727 13.2107 25.4727 13.8507C25.4727 14.4907 26.0027 15.0207 26.6427 15.0207ZM1.1727 15.0207C1.8227 15.0207 2.3527 14.4907 2.3527 13.8507C2.3527 13.2107 1.8227 12.6707 1.1727 12.6707C0.5327 12.6707 0.0027 13.2107 0.0027 13.8507C0.0027 14.4907 0.5327 15.0207 1.1727 15.0207ZM25.9727 18.9507C26.6227 18.9507 27.1527 18.4207 27.1527 17.7707C27.1527 17.1307 26.6227 16.6007 25.9727 16.6007C25.3327 16.6007 24.8027 17.1307 24.8027 17.7707C24.8027 18.4207 25.3327 18.9507 25.9727 18.9507ZM1.8427 18.9507C2.4927 18.9507 3.0227 18.4207 3.0227 17.7707C3.0227 17.1307 2.4927 16.6007 1.8427 16.6007C1.2027 16.6007 0.6727 17.1307 0.6727 17.7707C0.6727 18.4207 1.2027 18.9507 1.8427 18.9507ZM24.1827 22.4607C24.8327 22.4607 25.3627 21.9307 25.3627 21.2907C25.3627 20.6407 24.8327 20.1107 24.1827 20.1107C23.5427 20.1107 23.0127 20.6407 23.0127 21.2907C23.0127 21.9307 23.5427 22.4607 24.1827 22.4607ZM3.6327 22.4607C4.2827 22.4607 4.8127 21.9307 4.8127 21.2907C4.8127 20.6407 4.2827 20.1107 3.6327 20.1107C2.9927 20.1107 2.4627 20.6407 2.4627 21.2907C2.4627 21.9307 2.9927 22.4607 3.6327 22.4607ZM21.3827 25.2607C22.0227 25.2607 22.5627 24.7307 22.5627 24.0907C22.5627 23.4507 22.0227 22.9107 21.3827 22.9107C20.7427 22.9107 20.2027 23.4507 20.2027 24.0907C20.2027 24.7307 20.7427 25.2607 21.3827 25.2607ZM6.4527 25.2607C7.0927 25.2607 7.6327 24.7307 7.6327 24.0907C7.6327 23.4507 7.0927 22.9107 6.4527 22.9107C5.7927 22.9107 5.2727 23.4507 5.2727 24.0907C5.2727 24.7307 5.7927 25.2607 6.4527 25.2607ZM17.8327 27.0607C18.4727 27.0607 19.0027 26.5207 19.0027 25.8807C19.0027 25.2407 18.4727 24.7007 17.8327 24.7007C17.1827 24.7007 16.6527 25.2407 16.6527 25.8807C16.6527 26.5207 17.1827 27.0607 17.8327 27.0607ZM10.0127 27.0607C10.6527 27.0607 11.1827 26.5207 11.1827 25.8807C11.1827 25.2407 10.6527 24.7007 10.0127 24.7007C9.3527 24.7007 8.8327 25.2407 8.8327 25.8807C8.8327 26.5207 9.3527 27.0607 10.0127 27.0607ZM13.9227 27.7007C14.5627 27.7007 15.0927 27.1707 15.0927 26.5207C15.0927 25.8807 14.5627 25.3507 13.9227 25.3507C13.2727 25.3507 12.7427 25.8807 12.7427 26.5207C12.7427 27.1707 13.2727 27.7007 13.9227 27.7007Z"
        fillRule="evenodd"
        clipRule="evenodd"
    />
</svg>
        