
<svg
    viewBox={0 0 41.6171875 25.990234375}
    xmlns="http://www.w3.org/2000/svg"
>
    <path
        fill="inherit"
        d="M20.8037 25.9894C21.5237 25.9894 22.0237 25.4894 22.0237 24.7694V1.1894C22.0237 0.4894 21.5237 -0.0006 20.8037 -0.0006C20.0937 -0.0006 19.5737 0.4894 19.5737 1.1894V24.7694C19.5737 25.4894 20.0937 25.9894 20.8037 25.9894ZM0.0037 12.9894C0.0037 13.6994 0.4937 14.2194 1.2037 14.2194H10.5237L13.2437 14.1194L8.7337 18.4794C8.5037 18.6994 8.3937 19.0294 8.3937 19.3594C8.3937 20.0394 8.9137 20.5494 9.5937 20.5494C9.9437 20.5494 10.2437 20.4094 10.5137 20.1394L16.7637 13.8994C17.0237 13.6494 17.1837 13.3294 17.1837 12.9894C17.1837 12.6494 17.0237 12.3294 16.7637 12.0694L10.5137 5.8394C10.2437 5.5694 9.9437 5.4294 9.5937 5.4294C8.9137 5.4294 8.3937 5.9294 8.3937 6.6194C8.3937 6.9494 8.5037 7.2694 8.7337 7.4894L13.2437 11.8494L10.5237 11.7694H1.2037C0.4937 11.7694 0.0037 12.2794 0.0037 12.9894ZM41.6137 12.9894C41.6137 12.2794 41.1137 11.7694 40.4037 11.7694H31.0937L28.3537 11.8494L32.8637 7.4894C33.1037 7.2694 33.2137 6.9494 33.2137 6.6194C33.2137 5.9294 32.6937 5.4294 32.0237 5.4294C31.6737 5.4294 31.3637 5.5694 31.0937 5.8394L24.8437 12.0694C24.5837 12.3294 24.4337 12.6494 24.4337 12.9894C24.4337 13.3294 24.5837 13.6494 24.8437 13.8994L31.0937 20.1394C31.3637 20.4094 31.6737 20.5494 32.0237 20.5494C32.6937 20.5494 33.2137 20.0394 33.2137 19.3594C33.2137 19.0294 33.1037 18.6994 32.8637 18.4794L28.3537 14.1194L31.0937 14.2194H40.4037C41.1137 14.2194 41.6137 13.6994 41.6137 12.9894Z"
        fillRule="evenodd"
        clipRule="evenodd"
    />
</svg>
        