
<svg
    viewBox="0 0 27.890625 27.890625"
    xmlns="http://www.w3.org/2000/svg"
>
    <path
        fill="inherit"
        d="M13.9427 27.8864C21.6427 27.8864 27.8927 21.6464 27.8927 13.9464C27.8927 6.2464 21.6427 -0.0036 13.9427 -0.0036C6.2527 -0.0036 0.0027 6.2464 0.0027 13.9464C0.0027 21.6464 6.2527 27.8864 13.9427 27.8864ZM13.9427 25.5664C7.5227 25.5664 2.3227 20.3664 2.3227 13.9464C2.3227 7.5164 7.5227 2.3264 13.9427 2.3264C20.3727 2.3264 25.5627 7.5164 25.5627 13.9464C25.5627 20.3664 20.3727 25.5664 13.9427 25.5664ZM9.6427 10.5564C9.0327 10.5564 8.6227 11.0064 8.6227 11.6464V18.1064C8.6227 18.9064 9.0827 19.2264 9.7727 19.2264H16.2527C16.9027 19.2264 17.3127 18.8264 17.3127 18.2264C17.3127 17.6264 16.8827 17.2264 16.2327 17.2264H13.7427L11.7127 17.4464L13.8527 15.4464L18.8927 10.4164C19.0827 10.2264 19.2227 9.9564 19.2227 9.6764C19.2227 9.0664 18.8127 8.6664 18.2127 8.6664C17.8827 8.6664 17.6227 8.7864 17.4327 8.9864L12.4027 14.0164L10.4327 16.1164L10.6327 13.9864V11.6164C10.6327 10.9664 10.2427 10.5564 9.6427 10.5564Z"
        fillRule="evenodd"
        clipRule="evenodd"
    />
</svg>
        