
<svg
    viewBox="0 0 27.890625 27.890625"
    xmlns="http://www.w3.org/2000/svg"
>
    <path
        fill="inherit"
        d="M13.9427 27.8864C21.6427 27.8864 27.8927 21.6264 27.8927 13.9464C27.8927 6.2464 21.6427 -0.0036 13.9427 -0.0036C6.2627 -0.0036 0.0027 6.2464 0.0027 13.9464C0.0027 21.6264 6.2627 27.8864 13.9427 27.8864ZM9.5127 17.4464C8.9027 17.4464 8.4727 16.9664 8.4727 16.3064V9.6664C8.4727 8.8364 8.9427 8.5064 9.6627 8.5064H16.3427C17.0127 8.5064 17.4327 8.9164 17.4327 9.5464C17.4327 10.1564 16.9927 10.5664 16.3127 10.5664H13.7627L11.6727 10.3464L13.8727 12.3964L19.0627 17.5664C19.2627 17.7764 19.4027 18.0564 19.4027 18.3364C19.4027 18.9764 18.9727 19.3864 18.3627 19.3864C18.0227 19.3864 17.7427 19.2664 17.5427 19.0564L12.3827 13.8864L10.3527 11.7164L10.5527 13.9164V16.3364C10.5527 17.0064 10.1427 17.4464 9.5127 17.4464Z"
        fillRule="evenodd"
        clipRule="evenodd"
    />
</svg>
        