
<svg
    viewBox={0 0 27.890625 33.355463239707966}
    xmlns="http://www.w3.org/2000/svg"
>
    <path
        fill="inherit"
        d="M0.0027 16.6826C0.0027 20.7826 1.7727 24.5026 4.6327 27.0626C5.2527 27.6226 6.0527 27.4326 6.4227 26.9126C6.7427 26.4726 6.7627 25.8726 6.1627 25.3126C3.7827 23.1726 2.3227 20.0826 2.3227 16.6826C2.3227 11.0326 6.3427 6.3426 11.6727 5.3226V7.2526C11.6727 8.2026 12.3427 8.4626 13.0827 7.9426L17.4427 4.8826C18.0727 4.4426 18.0927 3.7926 17.4427 3.3426L13.0927 0.2726C12.3427 -0.2574 11.6727 -0.0074 11.6727 0.9726V2.9426C5.0627 4.0126 0.0027 9.7626 0.0027 16.6826ZM27.8927 16.6826C27.8927 12.5826 26.1127 8.8626 23.2527 6.3026C22.6427 5.7426 21.8327 5.9326 21.4627 6.4426C21.1527 6.8926 21.1227 7.4826 21.7427 8.0426C24.1027 10.1826 25.5627 13.2626 25.5627 16.6826C25.5627 22.3326 21.5427 27.0126 16.2127 28.0426V26.1126C16.2127 25.1426 15.5427 24.9026 14.8027 25.4226L10.4427 28.4826C9.8127 28.9226 9.8027 29.5726 10.4427 30.0226L14.7927 33.0726C15.5427 33.6226 16.2127 33.3626 16.2127 32.3726V30.4226C22.8327 29.3526 27.8927 23.6026 27.8927 16.6826Z"
        fillRule="evenodd"
        clipRule="evenodd"
    />
</svg>
        