
<svg
    viewBox={0 0 25.169921875 25.169921875}
    xmlns="http://www.w3.org/2000/svg"
>
    <path
        fill="inherit"
        d="M4.2937 25.1692H20.8737C23.7437 25.1692 25.1737 23.7592 25.1737 20.9492V4.2392C25.1737 1.4192 23.7437 -0.0008 20.8737 -0.0008H4.2937C1.4337 -0.0008 0.0037 1.4192 0.0037 4.2392V20.9492C0.0037 23.7592 1.4337 25.1692 4.2937 25.1692ZM12.6237 3.7992C12.9237 3.7992 13.1537 3.9392 13.4437 4.2092L17.5237 8.2692C17.7237 8.4492 17.8137 8.7092 17.8137 9.0092C17.8137 9.5792 17.3737 10.0192 16.7937 10.0192C16.4737 10.0192 16.2237 9.8992 16.0337 9.7192L14.9837 8.6592L13.5637 6.9592L13.6837 9.9392V15.2192L13.5637 18.1992L14.9837 16.4992L16.0337 15.4392C16.2237 15.2392 16.4737 15.1392 16.7937 15.1392C17.3737 15.1392 17.8137 15.5692 17.8137 16.1492C17.8137 16.4292 17.7237 16.7092 17.5237 16.8892L13.4437 20.9492C13.1537 21.2192 12.9237 21.3592 12.6237 21.3592C12.3037 21.3592 12.0537 21.2192 11.7837 20.9492L7.7137 16.8892C7.5237 16.7092 7.4137 16.4292 7.4137 16.1492C7.4137 15.5692 7.8637 15.1392 8.4537 15.1392C8.7637 15.1392 9.0137 15.2292 9.2137 15.4392L10.2537 16.4992L11.6737 18.2092L11.5537 15.2192V9.9392L11.6737 6.9492L10.2537 8.6592L9.2137 9.7192C9.0137 9.9092 8.7637 10.0192 8.4537 10.0192C7.8637 10.0192 7.4137 9.5792 7.4137 9.0092C7.4137 8.7092 7.5237 8.4492 7.7137 8.2692L11.7837 4.2092C12.0537 3.9392 12.3037 3.7992 12.6237 3.7992Z"
        fillRule="evenodd"
        clipRule="evenodd"
    />
</svg>
        