
<svg
    viewBox="0 0 25.169921875 25.169921875"
    xmlns="http://www.w3.org/2000/svg"
>
    <path
        fill="inherit"
        d="M4.2937 25.1692H20.8737C23.7437 25.1692 25.1737 23.7592 25.1737 20.9492V4.2392C25.1737 1.4192 23.7437 -0.0008 20.8737 -0.0008H4.2937C1.4337 -0.0008 0.0037 1.4192 0.0037 4.2392V20.9492C0.0037 23.7592 1.4337 25.1692 4.2937 25.1692ZM4.3237 22.9692C2.9537 22.9692 2.2037 22.2392 2.2037 20.8192V4.3592C2.2037 2.9392 2.9537 2.1992 4.3237 2.1992H20.8537C22.2037 2.1992 22.9737 2.9392 22.9737 4.3592V20.8192C22.9737 22.2392 22.2037 22.9692 20.8537 22.9692ZM18.4937 12.5692C19.0337 12.5692 19.4737 12.1392 19.4737 11.6092V6.8492C19.4737 6.0292 19.0437 5.7192 18.3337 5.7192H13.6037C13.0737 5.7192 12.6337 6.1492 12.6337 6.6892C12.6337 7.2192 13.0737 7.6392 13.6037 7.6392H14.2737L16.3637 7.5092L13.2737 10.4492C12.8837 10.8292 12.8637 11.4992 13.2637 11.8992C13.6737 12.3092 14.3137 12.3192 14.7237 11.8792L17.6737 8.7792L17.5437 10.9392V11.6092C17.5437 12.1392 17.9637 12.5692 18.4937 12.5692ZM11.5937 19.4692C12.1237 19.4692 12.5537 19.0292 12.5537 18.4992C12.5537 17.9692 12.1237 17.5392 11.5937 17.5392H10.9237L8.8337 17.6792L11.9037 14.7392C12.3037 14.3592 12.3137 13.6892 11.9237 13.2892C11.5237 12.8792 10.8737 12.8692 10.4737 13.2992L7.5237 16.4092L7.6537 14.2492V13.5792C7.6537 13.0392 7.2237 12.6192 6.6837 12.6192C6.1537 12.6192 5.7237 13.0392 5.7237 13.5792V18.3292C5.7237 19.1592 6.1437 19.4692 6.8537 19.4692Z"
        fillRule="evenodd"
        clipRule="evenodd"
    />
</svg>
        