
<svg
    viewBox={0 0 25.169921875 25.169921875}
    xmlns="http://www.w3.org/2000/svg"
>
    <path
        fill="inherit"
        d="M4.2937 25.1692H20.8737C23.7437 25.1692 25.1737 23.7592 25.1737 20.9492V4.2392C25.1737 1.4192 23.7437 -0.0008 20.8737 -0.0008H4.2937C1.4337 -0.0008 0.0037 1.4192 0.0037 4.2392V20.9492C0.0037 23.7592 1.4337 25.1692 4.2937 25.1692ZM4.3237 22.9692C2.9537 22.9692 2.2037 22.2392 2.2037 20.8192V4.3592C2.2037 2.9392 2.9537 2.1992 4.3237 2.1992H20.8537C22.2037 2.1992 22.9737 2.9392 22.9737 4.3592V20.8192C22.9737 22.2392 22.2037 22.9692 20.8537 22.9692ZM6.2637 18.6192C6.7837 18.6192 7.1637 18.2492 7.1637 17.7192V7.4492C7.1637 6.9192 6.7837 6.5392 6.2637 6.5392C5.7137 6.5392 5.3337 6.9192 5.3337 7.4492V17.7192C5.3337 18.2492 5.7137 18.6192 6.2637 18.6192ZM20.6037 12.5892C20.6037 12.0692 20.2037 11.6892 19.6837 11.6892H13.4137L10.9137 11.8292L13.6837 9.3692L14.5437 8.5292C14.7337 8.3392 14.8237 8.1092 14.8237 7.8592C14.8237 7.3392 14.4137 6.9892 13.9137 6.9892C13.6737 6.9892 13.4437 7.0592 13.2337 7.2592L8.5137 11.9092C8.3237 12.0992 8.2137 12.3492 8.2137 12.5892C8.2137 12.8492 8.3137 13.0792 8.5137 13.2792L13.2237 17.8792C13.4137 18.0592 13.7037 18.1792 13.9137 18.1792C14.4337 18.1792 14.8237 17.8192 14.8237 17.2992C14.8237 17.0192 14.7337 16.7992 14.5437 16.6392L13.6737 15.8292L10.8937 13.3592L13.4137 13.5192H19.6837C20.2037 13.5192 20.6037 13.1392 20.6037 12.5892Z"
        fillRule="evenodd"
        clipRule="evenodd"
    />
</svg>
        