<svg viewBox="0 0 25.83984375 25.51171875" xmlns="http://www.w3.org/2000/svg"><path d="M0.0037 16.7861C0.0037 22.0261 3.4337 25.5161 9.5537 25.5161H12.7137C13.4637 25.5161 13.9637 24.9661 13.9637 24.2961C13.9637 23.6261 13.4637 23.0761 12.7137 23.0761H9.5737C4.9037 23.0761 2.4337 20.3461 2.4337 16.6561C2.4337 12.9761 4.9037 10.4061 9.5737 10.4061H18.9537L22.1637 10.2661L19.5637 12.4861L15.6237 16.3261C15.4037 16.5461 15.3037 16.8061 15.3037 17.1561C15.3037 17.8661 15.7737 18.3661 16.5037 18.3661C16.8037 18.3661 17.1537 18.2261 17.3937 17.9761L25.4337 10.0861C25.7037 9.8261 25.8437 9.5161 25.8437 9.1861C25.8437 8.8461 25.7037 8.5361 25.4337 8.2761L17.3937 0.3861C17.1537 0.1461 16.8037 -0.0039 16.5037 -0.0039C15.7737 -0.0039 15.3037 0.4961 15.3037 1.2061C15.3037 1.5561 15.4037 1.8161 15.6237 2.0361L19.5637 5.8961L22.1637 8.1061L18.9537 7.9561H9.7737C3.5237 7.9561 0.0037 11.5661 0.0037 16.7861Z" /></svg>