
<svg
    viewBox="0 0 26.646484375 27.2890625"
    xmlns="http://www.w3.org/2000/svg"
>
    <path
        fill="inherit"
        d="M2.4637 12.2673H10.0537C11.4437 12.2673 12.2537 11.4473 12.2537 10.0473V2.4773C12.2537 1.7673 11.7137 1.2073 10.9937 1.2073C10.2637 1.2073 9.7437 1.7473 9.7437 2.4773V3.6273L10.0337 8.3973L6.4237 4.6073L2.2237 0.3673C1.9937 0.1273 1.6837 -0.0027 1.3537 -0.0027C0.5737 -0.0027 0.0037 0.5173 0.0037 1.2873C0.0037 1.6373 0.1337 1.9873 0.3837 2.2273L4.5937 6.4373L8.3837 10.0373L3.6137 9.7573H2.4637C1.7337 9.7573 1.1737 10.2673 1.1737 11.0073C1.1737 11.7273 1.7237 12.2673 2.4637 12.2673ZM15.5737 26.1373C16.2937 26.1373 16.8137 25.6073 16.8137 24.8673V23.5673L16.5337 18.8173L20.1437 22.5973L24.4337 26.9173C24.6637 27.1673 24.9637 27.2873 25.3037 27.2873C26.0737 27.2873 26.6437 26.7673 26.6437 26.0073C26.6437 25.6473 26.5237 25.3073 26.2737 25.0573L21.9737 20.7573L18.1737 17.1573L22.9537 17.4273H24.2537C24.9737 17.4273 25.5437 16.9273 25.5437 16.1973C25.5437 15.4673 24.9937 14.9473 24.2537 14.9473H16.5137C15.1237 14.9473 14.3137 15.7473 14.3137 17.1473V24.8673C14.3137 25.5973 14.8337 26.1373 15.5737 26.1373Z"
        fillRule="evenodd"
        clipRule="evenodd"
    />
</svg>
        