<svg viewBox="0 0 31.006281888857306 31.006281888857306" xmlns="http://www.w3.org/2000/svg"><path d="M1.5328 18.5268L12.4828 29.4768C14.5028 31.5068 16.5028 31.5168 18.5128 29.5168L29.5228 18.4968C31.5128 16.5068 31.5028 14.4968 29.4828 12.4668L18.5428 1.5368C16.5128 -0.4932 14.5228 -0.5132 12.5128 1.4968L1.4928 12.4968C-0.5172 14.5068 -0.4872 16.5068 1.5328 18.5268ZM3.1228 17.0068C2.1328 16.0268 2.1228 14.9968 3.1328 13.9868L13.9928 3.1368C15.0028 2.1168 16.0228 2.1368 17.0128 3.1168L27.8928 13.9968C28.8628 14.9768 28.8928 16.0068 27.8828 17.0268L17.0228 27.8768C16.0128 28.8868 14.9728 28.8668 14.0028 27.9068ZM9.5828 19.8168C9.5828 20.5868 9.9728 21.0568 10.6828 21.0468C11.3728 21.0268 11.7728 20.5868 11.7728 19.8168V16.0068C11.7728 14.7668 12.3628 14.1968 13.5328 14.1968H17.1028V16.3368C17.1028 17.2268 18.1028 17.6368 18.8528 16.9968L22.1228 14.1668C22.9428 13.4568 22.9428 12.7268 22.1228 12.0168L18.8528 9.2068C18.1028 8.5468 17.1028 8.9668 17.1028 9.8468V11.9968H13.5128C10.8428 11.9968 9.5828 13.2668 9.5828 15.9068Z" /></svg>