
<svg
    viewBox="0 0 36.189453125 25.087890625"
    xmlns="http://www.w3.org/2000/svg"
>
    <path
        fill="inherit"
        d="M20.0878 25.0719C20.9978 25.0719 21.6878 24.3919 21.6878 23.4719V18.2519H22.0778C27.3678 18.2519 30.7178 19.5919 33.0978 24.0619C33.5778 24.9419 34.2078 25.0719 34.7778 25.0719C35.5178 25.0719 36.1878 24.4219 36.1878 23.2419C36.1878 13.1419 31.9078 6.8319 22.0778 6.8319H21.6878V1.6719C21.6878 0.7519 20.9978 0.0019 20.0578 0.0019C19.3778 0.0019 18.9178 0.2919 18.1978 0.9719L7.4078 11.0619C6.9178 11.5219 6.7178 12.0419 6.7178 12.5419C6.7178 13.0019 6.9178 13.5319 7.4078 14.0019L18.1978 24.1819C18.8578 24.8019 19.3978 25.0719 20.0878 25.0719ZM13.3578 25.0919C14.2878 25.0919 14.9578 24.5319 14.9578 23.9019V23.4319L6.1778 15.3219C5.3478 14.5619 4.8578 13.5919 4.8578 12.5519C4.8578 11.5119 5.3178 10.5419 6.1778 9.7619L14.9578 1.7219V1.2619C14.9578 0.6019 14.2878 0.0119 13.3278 0.0119C12.6578 0.0119 12.2078 0.3019 11.4878 0.9819L0.6878 11.0719C0.1678 11.5819 -0.0022 12.0819 -0.0022 12.5519C-0.0022 13.0019 0.1678 13.5219 0.6878 14.0119L11.4878 24.2019C12.1278 24.8119 12.6878 25.0919 13.3578 25.0919Z"
        fillRule="evenodd"
        clipRule="evenodd"
    />
</svg>
        