<svg viewBox="0 0 34.37109375 23.76171875" xmlns="http://www.w3.org/2000/svg"><path d="M27.0127 23.7594C31.1427 23.7594 34.3727 20.7394 34.3727 16.9794C34.3727 14.1094 32.7127 11.6194 30.0527 10.4994C30.0827 4.3994 25.6927 -0.0006 20.0927 -0.0006C16.3927 -0.0006 13.7527 1.9794 12.1127 4.3794C8.7527 3.3894 5.0827 5.9494 5.0127 9.7794C1.9327 10.2694 0.0027 13.0294 0.0027 16.3694C0.0027 20.3894 3.5127 23.7594 8.1927 23.7594ZM17.8327 19.3294C14.6827 19.3294 12.1527 16.7894 12.1527 13.5894C12.1527 10.7594 14.2827 8.4794 16.8127 8.0794V6.6294C16.8127 6.0194 17.4727 5.7794 17.9527 6.1694L20.5627 8.3994C20.9727 8.7494 21.0027 9.3194 20.5627 9.7094L17.9527 11.9594C17.4727 12.3694 16.8127 12.1294 16.8127 11.5294V9.8594C15.1527 10.3094 13.9227 11.8094 13.9227 13.6294C13.9227 15.8194 15.6527 17.5794 17.8327 17.5794C20.0127 17.5794 21.7527 15.8194 21.7527 13.6294C21.7527 13.1694 22.1527 12.7694 22.6427 12.7694C23.1027 12.7694 23.5127 13.1694 23.5127 13.6294C23.5127 16.7894 20.9827 19.3294 17.8327 19.3294Z" /></svg>