
<svg
    viewBox={0 0 27.166015625 25.1015625}
    xmlns="http://www.w3.org/2000/svg"
>
    <path
        fill="inherit"
        d="M13.5737 25.098C13.8637 25.098 14.2737 24.908 14.5737 24.728C22.2837 19.808 27.1637 14.078 27.1637 8.258C27.1637 3.418 23.8437 -0.002 19.5337 -0.002C16.8737 -0.002 14.8237 1.478 13.5737 3.728C12.3637 1.488 10.2937 -0.002 7.6137 -0.002C3.3237 -0.002 0.0037 3.418 0.0037 8.258C0.0037 14.078 4.8837 19.808 12.5937 24.728C12.8837 24.908 13.3037 25.098 13.5737 25.098ZM14.5637 17.638C14.5637 18.208 14.0537 18.688 13.4637 18.688C12.8837 18.688 12.3837 18.208 12.3837 17.638V12.578L12.4737 10.298L11.2937 11.508L10.0537 12.788C9.8537 12.978 9.5737 13.098 9.2937 13.098C8.7137 13.098 8.3037 12.698 8.3037 12.118C8.3037 11.798 8.4337 11.568 8.6537 11.358L12.6737 7.668C12.9737 7.398 13.1937 7.298 13.4637 7.298C13.7437 7.298 13.9637 7.398 14.2637 7.668L18.2837 11.358C18.4937 11.568 18.6337 11.798 18.6337 12.118C18.6337 12.698 18.1937 13.098 17.6337 13.098C17.3537 13.098 17.0937 12.978 16.8837 12.788L15.6437 11.508L14.4637 10.298L14.5637 12.578Z"
        fillRule="evenodd"
        clipRule="evenodd"
    />
</svg>
        