<svg viewBox="0 0 32.23828125 25.169921875" xmlns="http://www.w3.org/2000/svg"><path d="M4.2937 25.1692H27.9437C30.8137 25.1692 32.2337 23.7592 32.2337 20.9492V4.2392C32.2337 1.4192 30.8137 -0.0008 27.9437 -0.0008H4.2937C1.4337 -0.0008 0.0037 1.4192 0.0037 4.2392V20.9492C0.0037 23.7592 1.4337 25.1692 4.2937 25.1692ZM17.8537 4.4392C18.4437 4.4392 18.8437 4.8792 18.8437 5.5092V7.2092L18.6737 9.0492L20.4237 7.1892L23.3137 4.2892C23.5137 4.0992 23.7637 3.9792 24.0937 3.9792C24.6737 3.9792 25.1037 4.3892 25.1037 4.9992C25.1037 5.2792 24.9537 5.5392 24.7737 5.7292L21.8737 8.6392L19.9737 10.3792L21.7237 10.1992H23.5437C24.1837 10.1992 24.6237 10.6092 24.6237 11.1992C24.6237 11.7992 24.1837 12.2092 23.5737 12.2092H17.9737C17.2937 12.2092 16.8437 11.8692 16.8437 11.0892V5.5392C16.8437 4.9092 17.2537 4.4392 17.8537 4.4392ZM14.3837 20.7292C13.7937 20.7292 13.3937 20.2992 13.3937 19.6692V17.9792L13.5637 16.1192L11.8137 17.9892L8.9237 20.8792C8.7237 21.0692 8.4737 21.1892 8.1437 21.1892C7.5637 21.1892 7.1537 20.7992 7.1537 20.1792C7.1537 19.9092 7.3037 19.6292 7.4737 19.4392L10.3637 16.5392L12.2637 14.8092L10.5137 14.9892H8.6937C8.0537 14.9892 7.6337 14.5692 7.6337 13.9892C7.6337 13.3892 8.0537 12.9792 8.6637 12.9792H14.2737C14.9537 12.9792 15.3937 13.2992 15.3937 14.0992V19.6492C15.3937 20.2792 14.9837 20.7292 14.3837 20.7292Z" /></svg>