
<svg
    viewBox={0 0 25.169921875 25.169921875}
    xmlns="http://www.w3.org/2000/svg"
>
    <path
        fill="inherit"
        d="M4.2937 25.1692H20.8737C23.7437 25.1692 25.1737 23.7592 25.1737 20.9492V4.2392C25.1737 1.4192 23.7437 -0.0008 20.8737 -0.0008H4.2937C1.4337 -0.0008 0.0037 1.4192 0.0037 4.2392V20.9492C0.0037 23.7592 1.4337 25.1692 4.2937 25.1692ZM18.8137 12.3992H13.9337C13.1937 12.3992 12.7737 12.0692 12.7737 11.2292V6.3192C12.7737 5.7592 13.2037 5.3192 13.7637 5.3192C14.3137 5.3192 14.7637 5.7592 14.7637 6.3192V6.9992L14.6137 9.2292L18.2937 5.4092C18.7037 4.9792 19.3737 4.9792 19.7837 5.3992C20.2037 5.8092 20.1837 6.4792 19.7737 6.9092L15.9737 10.5392L18.1337 10.4092H18.8137C19.3837 10.4092 19.8237 10.8392 19.8237 11.3892C19.8237 11.9492 19.3837 12.3992 18.8137 12.3992ZM11.4137 19.8192C10.8737 19.8192 10.4337 19.3892 10.4337 18.8292V18.1392L10.5637 15.9092L6.8937 19.7292C6.4837 20.1692 5.8137 20.1692 5.4037 19.7392C4.9737 19.3292 5.0037 18.6492 5.4137 18.2392L9.2137 14.5992L7.0537 14.7392H6.3737C5.8137 14.7392 5.3637 14.2992 5.3637 13.7492C5.3637 13.1792 5.8137 12.7392 6.3737 12.7392H11.2537C11.9937 12.7392 12.4237 13.0692 12.4237 13.9092V18.8292C12.4237 19.3892 11.9737 19.8192 11.4137 19.8192Z"
        fillRule="evenodd"
        clipRule="evenodd"
    />
</svg>
        