<svg viewBox="0 0 28.970703125 25.01953125" xmlns="http://www.w3.org/2000/svg"><path d="M4.2937 25.0172H24.6737C27.5737 25.0172 28.9737 23.6572 28.9737 20.7972V4.1272C28.9737 1.3972 27.5637 -0.0028 24.8037 -0.0028H18.1737C15.9437 -0.0028 14.5437 0.4772 12.7437 1.8272L2.1237 9.9072C0.5437 11.0972 0.0037 12.1572 0.0037 14.1072V20.7972C0.0037 23.6572 1.4037 25.0172 4.2937 25.0172ZM4.3737 12.4172C3.6537 12.4172 3.5037 11.6372 4.0637 11.2272L14.2437 3.4272C15.4037 2.4972 16.4237 2.1972 18.1737 2.1972H24.7637C26.0337 2.1972 26.7737 2.9072 26.7737 4.2372V10.3772C26.7737 11.6872 26.0137 12.4172 24.7637 12.4172ZM16.6637 10.3872H22.7537C23.4737 10.3872 23.8137 9.8072 23.4237 9.1572L20.4437 4.3072C20.0737 3.6872 19.3437 3.6772 18.9637 4.3072L16.0137 9.1572C15.6137 9.8072 15.9237 10.3872 16.6637 10.3872ZM16.6637 14.9572H22.7537C23.4737 14.9572 23.8137 15.5472 23.4237 16.1872L20.4437 21.0372C20.0737 21.6572 19.3437 21.6672 18.9637 21.0372L16.0137 16.1872C15.6137 15.5472 15.9237 14.9572 16.6637 14.9572Z" /></svg>