
<svg
    viewBox="0 0 27.890625 27.890625"
    xmlns="http://www.w3.org/2000/svg"
>
    <path
        fill="inherit"
        d="M13.9427 27.8864C21.6427 27.8864 27.8927 21.6264 27.8927 13.9464C27.8927 6.2464 21.6427 -0.0036 13.9427 -0.0036C6.2627 -0.0036 0.0027 6.2464 0.0027 13.9464C0.0027 21.6264 6.2627 27.8864 13.9427 27.8864ZM5.8127 15.1464L5.8827 10.2164C5.8827 9.9664 5.9927 9.6964 6.1527 9.5264C6.5227 9.1464 7.0527 9.1464 7.4327 9.5264C7.6127 9.7064 7.7127 9.9364 7.6927 10.1864L7.6727 12.2764L7.6427 13.0264L8.0827 12.5464L14.5327 6.0964C14.9127 5.7264 15.4627 5.7264 15.8327 6.0964C16.2127 6.4764 16.2027 7.0264 15.8327 7.3964L9.3927 13.8464L8.8827 14.2964L9.6827 14.2764L11.7627 14.2464C12.0027 14.2464 12.2227 14.3264 12.4127 14.5164C12.7827 14.8864 12.7827 15.4064 12.4027 15.7764C12.2327 15.9364 12.0027 16.0464 11.7427 16.0664L6.7827 16.1164C6.2727 16.1364 5.8127 15.6864 5.8127 15.1464ZM22.0827 12.7564L22.0227 17.7164C22.0127 17.9764 21.9327 18.2364 21.7627 18.3864C21.3827 18.7564 20.8527 18.7564 20.4827 18.3864C20.3027 18.1964 20.2227 17.9764 20.2227 17.7364L20.2527 15.6364L20.3027 14.8564L19.8427 15.3664L13.3727 21.8064C13.0027 22.1864 12.4527 22.1764 12.0827 21.8064C11.7027 21.4264 11.7027 20.8864 12.0727 20.5264L18.5427 14.0564L19.0327 13.6164L18.2527 13.6464L16.1427 13.6864C15.9027 13.6864 15.6927 13.5864 15.5027 13.4164C15.1227 13.0464 15.1227 12.5264 15.5127 12.1264C15.6827 11.9764 15.9527 11.8564 16.1727 11.8564L21.1327 11.8164C21.6527 11.8164 22.0827 12.2064 22.0827 12.7564Z"
        fillRule="evenodd"
        clipRule="evenodd"
    />
</svg>
        