<svg viewBox="0 0 27.890625 27.890625" xmlns="http://www.w3.org/2000/svg"><path d="M13.9427 27.8864C21.6427 27.8864 27.8927 21.6464 27.8927 13.9464C27.8927 6.2464 21.6427 -0.0036 13.9427 -0.0036C6.2527 -0.0036 0.0027 6.2464 0.0027 13.9464C0.0027 21.6464 6.2527 27.8864 13.9427 27.8864ZM13.9427 25.5664C7.5227 25.5664 2.3227 20.3664 2.3227 13.9464C2.3227 7.5164 7.5227 2.3264 13.9427 2.3264C20.3727 2.3264 25.5627 7.5164 25.5627 13.9464C25.5627 20.3664 20.3727 25.5664 13.9427 25.5664ZM12.0127 20.9864C15.3127 20.9864 17.3127 18.6164 17.3127 15.4264V11.3464L17.2527 9.7164L18.1027 10.8164L19.4727 12.2264C19.6427 12.3964 19.8927 12.5364 20.1827 12.5364C20.7427 12.5364 21.1827 12.0964 21.1827 11.5564C21.1827 11.2664 21.0827 11.0364 20.8727 10.8464L17.1827 7.2164C16.9627 6.9864 16.6627 6.8464 16.3527 6.8464C16.0327 6.8464 15.7527 6.9864 15.5327 7.2164L11.8027 10.8564C11.6027 11.0464 11.5127 11.2764 11.5127 11.5664C11.5127 12.0964 11.9527 12.5364 12.5127 12.5364C12.7727 12.5364 13.0327 12.4264 13.2227 12.2364L14.8627 10.5264L15.4527 9.7164L15.3927 11.3464V15.4264C15.3927 17.4364 14.2327 18.9764 12.1227 18.9764C9.9827 18.9764 8.6427 17.4764 8.6427 15.4064V13.5064C8.6427 12.9364 8.3027 12.4864 7.6727 12.4864C7.0427 12.4864 6.6827 12.9364 6.6827 13.5364V15.4064C6.6827 18.6064 8.7327 20.9864 12.0127 20.9864Z" /></svg>