
<svg
    viewBox="0 0 25.169921875 25.169921875"
    xmlns="http://www.w3.org/2000/svg"
>
    <path
        fill="inherit"
        d="M4.2937 25.1692H20.8737C23.7437 25.1692 25.1737 23.7592 25.1737 20.9492V4.2392C25.1737 1.4192 23.7437 -0.0008 20.8737 -0.0008H4.2937C1.4337 -0.0008 0.0037 1.4192 0.0037 4.2392V20.9492C0.0037 23.7592 1.4337 25.1692 4.2937 25.1692ZM4.3237 22.9692C2.9537 22.9692 2.2037 22.2392 2.2037 20.8192V4.3592C2.2037 2.9392 2.9537 2.1992 4.3237 2.1992H20.8537C22.2037 2.1992 22.9737 2.9392 22.9737 4.3592V20.8192C22.9737 22.2392 22.2037 22.9692 20.8537 22.9692ZM20.4837 13.7492L20.4237 8.9592C20.4237 8.7192 20.3137 8.4592 20.1637 8.2992C19.8137 7.9292 19.2937 7.9292 18.9237 8.2992C18.7537 8.4592 18.6437 8.6992 18.6637 8.9292L18.6937 10.9692L18.7337 11.6992L18.2937 11.2392L12.0337 4.9592C11.6637 4.6092 11.1137 4.6092 10.7737 4.9592C10.4037 5.3292 10.4137 5.8692 10.7737 6.2192L17.0337 12.4992L17.5237 12.9292L16.7437 12.9092L14.7237 12.8792C14.4937 12.8792 14.2737 12.9592 14.0937 13.1392C13.7437 13.4892 13.7437 13.9992 14.1137 14.3592C14.2437 14.5192 14.4937 14.6192 14.7337 14.6292L19.5537 14.6792C20.0437 14.6992 20.4837 14.2592 20.4837 13.7492ZM4.7137 11.4192L4.7737 16.2392C4.7837 16.4892 4.8637 16.7392 5.0037 16.8892C5.3737 17.2392 5.9037 17.2392 6.2637 16.8892C6.4237 16.7092 6.5037 16.4892 6.5037 16.2592L6.4837 14.2192L6.4237 13.4492L6.8937 13.9492L13.1637 20.2092C13.5237 20.5792 14.0537 20.5592 14.4137 20.2092C14.7837 19.8392 14.7837 19.3192 14.4137 18.9592L8.1337 12.6692L7.6437 12.2492L8.4237 12.2792L10.4737 12.3192C10.6937 12.3192 10.9137 12.2192 11.0837 12.0592C11.4437 11.6992 11.4437 11.1992 11.0737 10.8192C10.9237 10.6592 10.6637 10.5592 10.4437 10.5592L5.6337 10.5092C5.1237 10.5092 4.7137 10.8992 4.7137 11.4192Z"
        fillRule="evenodd"
        clipRule="evenodd"
    />
</svg>
        