
<svg
    viewBox="0 0 27.890625 27.890625"
    xmlns="http://www.w3.org/2000/svg"
>
    <path
        fill="inherit"
        d="M13.9427 27.8864C21.6427 27.8864 27.8927 21.6264 27.8927 13.9464C27.8927 6.2464 21.6427 -0.0036 13.9427 -0.0036C6.2627 -0.0036 0.0027 6.2464 0.0027 13.9464C0.0027 21.6264 6.2627 27.8864 13.9427 27.8864ZM13.9627 6.8364C14.2427 6.8364 14.4827 6.9164 14.7827 7.2064L19.4127 11.6864C19.6327 11.8964 19.7527 12.1264 19.7527 12.4364C19.7527 13.0064 19.3027 13.4264 18.7327 13.4264C18.4427 13.4264 18.1527 13.3164 17.9627 13.0864L15.8027 10.7964L15.0027 9.9364L15.0827 12.0464V19.9564C15.0827 20.5664 14.5727 21.0564 13.9627 21.0564C13.3427 21.0564 12.8227 20.5664 12.8227 19.9564V12.0464L12.9227 9.9364L12.1027 10.7964L9.9527 13.0864C9.7527 13.3164 9.4427 13.4264 9.1627 13.4264C8.5827 13.4264 8.1527 13.0064 8.1527 12.4364C8.1527 12.1264 8.2727 11.8964 8.4927 11.6864L13.1427 7.2064C13.4227 6.9164 13.6627 6.8364 13.9627 6.8364Z"
        fillRule="evenodd"
        clipRule="evenodd"
    />
</svg>
        