
<svg
    viewBox="0 0 32.23828125 25.169921875"
    xmlns="http://www.w3.org/2000/svg"
>
    <path
        fill="inherit"
        d="M4.2937 25.1692H27.9437C30.8137 25.1692 32.2337 23.7592 32.2337 20.9492V4.2392C32.2337 1.4192 30.8137 -0.0008 27.9437 -0.0008H4.2937C1.4337 -0.0008 0.0037 1.4192 0.0037 4.2392V20.9492C0.0037 23.7592 1.4337 25.1692 4.2937 25.1692ZM13.0837 5.3492C13.7037 5.3492 14.1237 5.8092 14.1237 6.4792V12.9192C14.1237 13.7692 13.6537 14.0992 12.9337 14.0992H6.4537C5.7837 14.0992 5.3637 13.6892 5.3637 13.0592C5.3637 12.4392 5.7937 12.0292 6.4837 12.0292H8.8337L10.9237 12.2492L8.7237 10.1892L4.4837 5.9492C4.2837 5.7592 4.1437 5.4792 4.1437 5.2092C4.1437 4.5692 4.5537 4.1392 5.1837 4.1392C5.5237 4.1392 5.7837 4.2692 5.9837 4.4692L10.2137 8.7092L12.2537 10.8792L12.0437 8.6792V6.4492C12.0437 5.7692 12.4537 5.3492 13.0837 5.3492Z"
        fillRule="evenodd"
        clipRule="evenodd"
    />
</svg>
        