
<svg
    viewBox={0 0 24.08984375 20.822265625}
    xmlns="http://www.w3.org/2000/svg"
>
    <path
        fill="inherit"
        d="M0.0037 10.4152C0.0037 11.1252 0.4937 11.6352 1.2037 11.6352H15.0237L17.9537 11.5352L13.4537 15.6452L10.4337 18.7052C10.2037 18.9352 10.0937 19.2652 10.0937 19.5952C10.0937 20.2752 10.6137 20.7652 11.2837 20.7652C11.6237 20.7652 11.9237 20.6452 12.1937 20.3752L21.2637 11.3352C21.4537 11.1452 21.5837 10.9252 21.6437 10.6952V19.6452C21.6437 20.3452 22.1437 20.8252 22.8737 20.8252C23.5837 20.8252 24.0937 20.3452 24.0937 19.6452V1.2052C24.0937 0.4952 23.5837 -0.0048 22.8737 -0.0048C22.1437 -0.0048 21.6437 0.4952 21.6437 1.2052V10.1352C21.5837 9.8952 21.4537 9.6752 21.2637 9.4852L12.1937 0.4552C11.9237 0.1752 11.6237 0.0452 11.2837 0.0452C10.6137 0.0452 10.0937 0.5452 10.0937 1.2352C10.0937 1.5552 10.2037 1.8852 10.4337 2.1052L13.4537 5.1852L17.9337 9.2952L15.0237 9.1852H1.2037C0.4937 9.1852 0.0037 9.6952 0.0037 10.4152Z"
        fillRule="evenodd"
        clipRule="evenodd"
    />
</svg>
        