<svg viewBox="0 0 27.890625 27.890625" xmlns="http://www.w3.org/2000/svg"><path d="M13.9427 27.8864C21.6427 27.8864 27.8927 21.6264 27.8927 13.9464C27.8927 6.2464 21.6427 -0.0036 13.9427 -0.0036C6.2627 -0.0036 0.0027 6.2464 0.0027 13.9464C0.0027 21.6264 6.2627 27.8864 13.9427 27.8864ZM7.6527 13.9464C7.0827 13.9464 6.6327 13.4964 6.6327 12.9164V7.8464C6.6327 6.9764 7.0727 6.6264 7.8327 6.6264H12.8927C13.4627 6.6264 13.9227 7.0964 13.9227 7.6664C13.9227 8.2464 13.4627 8.6964 12.8927 8.6964H12.1827L9.9627 8.5564L13.2227 11.6664C13.6427 12.0764 13.6627 12.7964 13.2327 13.2164C12.8127 13.6564 12.1027 13.6764 11.6727 13.2064L8.5427 9.9264L8.6927 12.2064V12.9164C8.6927 13.4964 8.2327 13.9464 7.6527 13.9464ZM15.0127 21.2864C14.4327 21.2864 13.9727 20.8264 13.9727 20.2464C13.9727 19.6764 14.4327 19.2264 15.0127 19.2264H15.7227L17.9327 19.3564L14.6727 16.2564C14.2427 15.8464 14.2327 15.1164 14.6527 14.6964C15.0927 14.2564 15.7927 14.2464 16.2327 14.7064L19.3427 17.9964L19.2127 15.7064V14.9964C19.2127 14.4264 19.6627 13.9764 20.2327 13.9764C20.8127 13.9764 21.2727 14.4264 21.2727 14.9964V20.0664C21.2727 20.9464 20.8227 21.2864 20.0527 21.2864Z" /></svg>