<svg viewBox="0 0 20.7265625 28.287109375" xmlns="http://www.w3.org/2000/svg"><path d="M20.7237 12.8405C20.7237 12.5105 20.6137 12.2205 20.3537 11.9505L11.2837 2.8605C11.0437 2.6205 10.7837 2.4905 10.5037 2.4505H19.5537C20.2437 2.4505 20.7237 1.9405 20.7237 1.2305C20.7237 0.5205 20.2437 0.0005 19.5537 0.0005H1.2037C0.4937 0.0005 0.0037 0.5205 0.0037 1.2305C0.0037 1.9405 0.4937 2.4505 1.2037 2.4505H10.2437C9.9537 2.4905 9.6837 2.6205 9.4437 2.8605L0.3837 11.9505C0.1237 12.2205 0.0037 12.5105 0.0037 12.8405C0.0037 13.5105 0.4937 14.0305 1.1737 14.0305C1.5037 14.0305 1.8337 13.9205 2.0337 13.7005L5.1537 10.6405L9.2437 6.1505L9.1437 9.0605V27.0805C9.1437 27.7905 9.6537 28.2905 10.3637 28.2905C11.0737 28.2905 11.5837 27.7905 11.5837 27.0805V9.0605L11.4837 6.1405L15.5737 10.6405L18.6937 13.7005C18.9037 13.9205 19.2237 14.0305 19.5537 14.0305C20.2337 14.0305 20.7237 13.5105 20.7237 12.8405Z" /></svg>