
<svg
    viewBox="0 0 32.23828125 25.169921875"
    xmlns="http://www.w3.org/2000/svg"
>
    <path
        fill="inherit"
        d="M4.2937 25.1692H27.9437C30.8137 25.1692 32.2337 23.7592 32.2337 20.9492V4.2392C32.2337 1.4192 30.8137 -0.0008 27.9437 -0.0008H4.2937C1.4337 -0.0008 0.0037 1.4192 0.0037 4.2392V20.9492C0.0037 23.7592 1.4337 25.1692 4.2937 25.1692ZM8.1437 11.7392C7.5437 11.7392 7.1537 11.2792 7.1537 10.6492V5.0992C7.1537 4.3192 7.6037 3.9792 8.2737 3.9792H13.8737C14.4937 3.9792 14.9137 4.3892 14.9137 4.9892C14.9137 5.5892 14.4937 5.9892 13.8537 5.9892H12.0137L10.2837 5.8092L12.1637 7.5492L15.0637 10.4592C15.2437 10.6492 15.3937 10.9092 15.3937 11.1792C15.3937 11.7992 14.9837 12.2092 14.3837 12.2092C14.0537 12.2092 13.8237 12.0892 13.6137 11.8992L10.7237 8.9992L8.9737 7.1492L9.1637 8.9792V10.6792C9.1637 11.3092 8.7537 11.7392 8.1437 11.7392ZM24.0937 13.4392C24.6937 13.4392 25.1037 13.8892 25.1037 14.5192V20.0792C25.1037 20.8592 24.6337 21.1892 23.9637 21.1892H18.3737C17.7637 21.1892 17.3237 20.7992 17.3237 20.1892C17.3237 19.5892 17.7637 19.1792 18.4037 19.1792H20.2237L21.9737 19.3692L20.0737 17.6392L17.1737 14.7292C16.9937 14.5292 16.8437 14.2692 16.8437 13.9992C16.8437 13.3692 17.2637 12.9792 17.8537 12.9792C18.1837 12.9792 18.4137 13.0992 18.6337 13.2892L21.5237 16.1692L23.2737 18.0292L23.0937 16.1992V14.4892C23.0937 13.8592 23.4837 13.4392 24.0937 13.4392Z"
        fillRule="evenodd"
        clipRule="evenodd"
    />
</svg>
        