
<svg
    viewBox={0 0 25.662109375 21.51953125}
    xmlns="http://www.w3.org/2000/svg"
>
    <path
        fill="inherit"
        d="M24.3737 21.5162C25.1037 21.5162 25.4337 21.0562 25.5537 20.4962C25.6337 20.0862 25.6637 19.3962 25.6637 18.6062C25.6637 11.9862 23.0237 9.1462 16.5337 9.1462H6.9737L3.6237 9.3362L8.2337 5.1262L11.2637 2.0362C11.4837 1.8162 11.5937 1.5062 11.5937 1.1762C11.5937 0.4962 11.0737 -0.0038 10.4037 -0.0038C10.0737 -0.0038 9.7737 0.1062 9.4737 0.4062L0.4237 9.4462C0.1537 9.7062 0.0037 10.0362 0.0037 10.3662C0.0037 10.7062 0.1537 11.0162 0.4237 11.2962L9.5037 20.3562C9.7937 20.6162 10.0737 20.7362 10.4037 20.7362C11.0737 20.7362 11.5937 20.2462 11.5937 19.5662C11.5937 19.2362 11.4837 18.9062 11.2637 18.6862L8.2337 15.5962L3.6137 11.3862L6.9737 11.5962H16.4037C21.4237 11.5962 23.1837 13.6562 23.1837 18.7262C23.1837 19.3762 23.1637 19.8262 23.1637 20.3062C23.1637 21.0262 23.6637 21.5162 24.3737 21.5162Z"
        fillRule="evenodd"
        clipRule="evenodd"
    />
</svg>
        