
<svg
    viewBox="0 0 25.169921875 25.169921875"
    xmlns="http://www.w3.org/2000/svg"
>
    <path
        fill="inherit"
        d="M4.2937 25.1692H20.8737C23.7437 25.1692 25.1737 23.7592 25.1737 20.9492V4.2392C25.1737 1.4192 23.7437 -0.0008 20.8737 -0.0008H4.2937C1.4337 -0.0008 0.0037 1.4192 0.0037 4.2392V20.9492C0.0037 23.7592 1.4337 25.1692 4.2937 25.1692ZM12.6037 19.6892C12.3137 19.6892 12.0737 19.6092 11.7837 19.3192L7.1537 14.8292C6.9137 14.6292 6.8037 14.3792 6.8037 14.0792C6.8037 13.5092 7.2337 13.0992 7.8237 13.0992C8.0937 13.0992 8.4037 13.2092 8.6037 13.4392L10.7437 15.7092L11.5637 16.5792L11.4837 14.4692V6.5592C11.4837 5.9592 11.9937 5.4692 12.6037 5.4692C13.2237 5.4692 13.7437 5.9592 13.7437 6.5592V14.4692L13.6437 16.5792L14.4637 15.7092L16.6137 13.4392C16.8037 13.2092 17.1037 13.0992 17.3737 13.0992C17.9637 13.0992 18.4037 13.5092 18.4037 14.0792C18.4037 14.3792 18.2937 14.6292 18.0737 14.8292L13.4237 19.3192C13.1437 19.6092 12.9037 19.6892 12.6037 19.6892Z"
        fillRule="evenodd"
        clipRule="evenodd"
    />
</svg>
        