
<svg
    viewBox="0 0 25.169921875 25.169921875"
    xmlns="http://www.w3.org/2000/svg"
>
    <path
        fill="inherit"
        d="M4.2937 25.1692H20.8737C23.7437 25.1692 25.1737 23.7592 25.1737 20.9492V4.2392C25.1737 1.4192 23.7437 -0.0008 20.8737 -0.0008H4.2937C1.4337 -0.0008 0.0037 1.4192 0.0037 4.2392V20.9492C0.0037 23.7592 1.4337 25.1692 4.2937 25.1692ZM20.7137 13.7792C20.7137 14.3192 20.2637 14.7692 19.7537 14.7492L14.7937 14.6992C14.5337 14.6792 14.2837 14.5692 14.1337 14.4092C13.7537 14.0392 13.7537 13.5192 14.1237 13.1492C14.3137 12.9592 14.5337 12.8792 14.7837 12.8792L16.8537 12.9092L17.6537 12.9292L17.1437 12.4792L10.7037 6.0292C10.3337 5.6592 10.3237 5.1092 10.7037 4.7292C11.0637 4.3592 11.6237 4.3592 12.0037 4.7292L18.4537 11.1792L18.8937 11.6592L18.8537 10.9092L18.8237 8.8192C18.8137 8.5692 18.9237 8.3392 19.1037 8.1592C19.4837 7.7792 20.0137 7.7792 20.3837 8.1592C20.5537 8.3292 20.6537 8.5992 20.6537 8.8492ZM4.4537 11.3892C4.4537 10.8392 4.8837 10.4492 5.4037 10.4492L10.3637 10.4892C10.5837 10.4892 10.8537 10.6092 11.0237 10.7592C11.4037 11.1592 11.4037 11.6792 11.0337 12.0492C10.8437 12.2192 10.6237 12.3192 10.3937 12.3192L8.2837 12.2792L7.4937 12.2492L7.9937 12.6892L14.4537 19.1592C14.8337 19.5192 14.8337 20.0592 14.4537 20.4392C14.0837 20.8092 13.5337 20.8192 13.1637 20.4392L6.7037 13.9992L6.2337 13.4892L6.2937 14.2692L6.3137 16.3692C6.3137 16.6092 6.2337 16.8292 6.0537 17.0192C5.6837 17.3892 5.1437 17.3892 4.7737 17.0192C4.6037 16.8692 4.5237 16.6092 4.5137 16.3492Z"
        fillRule="evenodd"
        clipRule="evenodd"
    />
</svg>
        