
<svg
    viewBox={0 0 37.091796875 28.943359375}
    xmlns="http://www.w3.org/2000/svg"
>
    <path
        fill="inherit"
        d="M19.5137 25.3896C19.5137 27.5196 21.0137 28.9396 23.2437 28.9396H33.3737C35.6037 28.9396 37.0937 27.5196 37.0937 25.3896V3.5596C37.0937 1.4196 35.6037 -0.0004 33.3737 -0.0004H23.2437C21.0137 -0.0004 19.5137 1.4196 19.5137 3.5596ZM21.7137 25.0296V3.9096C21.7137 2.8196 22.3637 2.1996 23.5137 2.1996H33.0837C34.2337 2.1996 34.8937 2.8196 34.8937 3.9096V25.0296C34.8937 26.1296 34.2337 26.7396 33.0837 26.7396H23.5137C22.3637 26.7396 21.7137 26.1296 21.7137 25.0296ZM1.2137 25.6896C1.9237 25.6896 2.4337 25.1996 2.4337 24.4896V22.4096C2.4337 17.3196 5.5337 15.6796 9.5137 15.6796H10.4137L13.3437 15.5896L10.4837 18.1796L8.9837 19.4696C8.6637 19.7296 8.5837 20.0696 8.5837 20.3996C8.5837 21.0696 9.1037 21.5696 9.7737 21.5696C10.1037 21.5696 10.3937 21.4496 10.6937 21.1596L16.4737 15.3896C16.7437 15.1396 16.8937 14.8196 16.8937 14.4796C16.8937 14.1396 16.7437 13.8196 16.4737 13.5596L10.6637 7.7696C10.3937 7.4896 10.1037 7.3796 9.7737 7.3796C9.1037 7.3796 8.5837 7.8796 8.5837 8.5596C8.5837 8.8896 8.6637 9.2296 8.9837 9.4896L10.4837 10.7696L13.3437 13.3696L10.4137 13.2796H9.5137C4.6637 13.2796 0.0037 15.4996 0.0037 22.4096V24.4896C0.0037 25.1996 0.5037 25.6896 1.2137 25.6896Z"
        fillRule="evenodd"
        clipRule="evenodd"
    />
</svg>
        