
<svg
    viewBox={0 0 27.890625 27.890625}
    xmlns="http://www.w3.org/2000/svg"
>
    <path
        fill="inherit"
        d="M13.9427 27.8927C21.6427 27.8927 27.8927 21.6427 27.8927 13.9427C27.8927 6.2627 21.6427 0.0027 13.9427 0.0027C6.2627 0.0027 0.0027 6.2627 0.0027 13.9427C0.0027 21.6427 6.2627 27.8927 13.9427 27.8927ZM8.6527 8.3927C8.1027 8.3927 7.7127 8.0027 7.7127 7.4627C7.7127 6.9027 8.1027 6.4927 8.6527 6.4927H19.2527C19.7927 6.4927 20.1827 6.9027 20.1827 7.4627C20.1827 8.0027 19.7927 8.3927 19.2527 8.3927ZM13.9327 22.2627C13.3527 22.2627 12.9727 21.8627 12.9727 21.3027V14.8427L13.1427 12.2627L10.5727 15.1327L9.7727 16.0127C9.5927 16.2127 9.3827 16.2927 9.0827 16.2927C8.5427 16.2927 8.1727 15.9127 8.1727 15.3527C8.1727 15.1527 8.2827 14.8427 8.4627 14.6727L13.2227 9.8027C13.4227 9.5727 13.6727 9.4727 13.9327 9.4727C14.1927 9.4727 14.4327 9.5927 14.6427 9.8027L19.4127 14.6527C19.6427 14.8627 19.7127 15.1027 19.7127 15.3627C19.7127 15.8827 19.3427 16.2927 18.8227 16.2927C18.5527 16.2927 18.3027 16.2127 18.1127 16.0127L17.2527 15.1327L14.7227 12.2727L14.8727 14.8427V21.3027C14.8727 21.8627 14.4627 22.2627 13.9327 22.2627Z"
        fillRule="evenodd"
        clipRule="evenodd"
    />
</svg>
        