
<svg
    viewBox={0 0 27.890625 27.890625}
    xmlns="http://www.w3.org/2000/svg"
>
    <path
        fill="inherit"
        d="M13.9427 27.8927C21.6427 27.8927 27.8927 21.6427 27.8927 13.9427C27.8927 6.2627 21.6427 0.0027 13.9427 0.0027C6.2627 0.0027 0.0027 6.2627 0.0027 13.9427C0.0027 21.6427 6.2627 27.8927 13.9427 27.8927ZM12.6427 20.0327C12.2727 20.0327 11.9927 19.8627 11.6327 19.5327L5.6327 13.9027C5.3427 13.6327 5.2527 13.3527 5.2527 13.0827C5.2527 12.8227 5.3427 12.5527 5.6327 12.2727L11.6327 6.6827C12.0327 6.3027 12.2627 6.1527 12.6327 6.1527C13.1627 6.1527 13.5527 6.5627 13.5527 7.0727V9.9427H13.7627C19.1927 9.9427 21.5927 13.4127 21.5927 19.0327C21.5927 19.6827 21.1927 20.0327 20.7927 20.0327C20.4627 20.0327 20.1227 19.9427 19.8627 19.4727C18.5527 16.9927 16.6927 16.2427 13.7627 16.2427H13.5527V19.1527C13.5527 19.6427 13.1627 20.0327 12.6427 20.0327Z"
        fillRule="evenodd"
        clipRule="evenodd"
    />
</svg>
        