
<svg
    viewBox={0 0 27.890625 27.890625}
    xmlns="http://www.w3.org/2000/svg"
>
    <path
        fill="inherit"
        d="M13.9427 27.8864C21.6427 27.8864 27.8927 21.6464 27.8927 13.9464C27.8927 6.2464 21.6427 -0.0036 13.9427 -0.0036C6.2527 -0.0036 0.0027 6.2464 0.0027 13.9464C0.0027 21.6464 6.2527 27.8864 13.9427 27.8864ZM13.9427 25.5664C7.5227 25.5664 2.3227 20.3664 2.3227 13.9464C2.3227 7.5164 7.5227 2.3264 13.9427 2.3264C20.3727 2.3264 25.5627 7.5164 25.5627 13.9464C25.5627 20.3664 20.3727 25.5664 13.9427 25.5664ZM22.0027 13.9464C22.0027 13.6964 21.9027 13.4164 21.6327 13.1364L15.7327 7.6564C15.3527 7.2864 15.1027 7.1364 14.7527 7.1364C14.2327 7.1364 13.8627 7.5364 13.8627 8.0264V11.0164H7.6827C6.6027 11.0164 5.9727 11.6164 5.9727 12.6864V15.2164C5.9727 16.2664 6.6027 16.8664 7.6827 16.8664H13.8627V19.8964C13.8627 20.3964 14.2327 20.7564 14.7227 20.7564C15.0927 20.7564 15.3927 20.6064 15.7327 20.2864L21.6327 14.7364C21.9027 14.4664 22.0027 14.1764 22.0027 13.9464Z"
        fillRule="evenodd"
        clipRule="evenodd"
    />
</svg>
        