
<svg
    viewBox={0 0 27.890625 27.890625}
    xmlns="http://www.w3.org/2000/svg"
>
    <path
        fill="inherit"
        d="M13.9427 27.8864C21.6427 27.8864 27.8927 21.6464 27.8927 13.9464C27.8927 6.2464 21.6427 -0.0036 13.9427 -0.0036C6.2527 -0.0036 0.0027 6.2464 0.0027 13.9464C0.0027 21.6464 6.2527 27.8864 13.9427 27.8864ZM13.9427 25.5664C7.5227 25.5664 2.3227 20.3664 2.3227 13.9464C2.3227 7.5164 7.5227 2.3264 13.9427 2.3264C20.3727 2.3264 25.5627 7.5164 25.5627 13.9464C25.5627 20.3664 20.3727 25.5664 13.9427 25.5664ZM8.0027 18.2564C8.0027 19.0264 8.3927 19.4964 9.0927 19.4864C9.7927 19.4664 10.1827 19.0264 10.1827 18.2564V14.4464C10.1827 13.2064 10.7827 12.6364 11.9627 12.6364H15.5327V14.7764C15.5327 15.6664 16.5327 16.0764 17.2827 15.4364L20.5327 12.6064C21.3527 11.8964 21.3527 11.1664 20.5327 10.4564L17.2827 7.6464C16.5327 6.9864 15.5327 7.4064 15.5327 8.2864V10.4364H11.9227C9.2727 10.4364 8.0027 11.7064 8.0027 14.3464Z"
        fillRule="evenodd"
        clipRule="evenodd"
    />
</svg>
        