
<svg
    viewBox="0 0 27.890625 27.890625"
    xmlns="http://www.w3.org/2000/svg"
>
    <path
        fill="inherit"
        d="M13.9427 27.8927C21.6427 27.8927 27.8927 21.6427 27.8927 13.9427C27.8927 6.2627 21.6427 0.0027 13.9427 0.0027C6.2627 0.0027 0.0027 6.2627 0.0027 13.9427C0.0027 21.6427 6.2627 27.8927 13.9427 27.8927ZM6.9327 20.0327C6.5327 20.0327 6.1527 19.6827 6.1527 19.0327C6.1527 13.4127 8.5427 9.9427 13.9727 9.9427H14.1927V7.0727C14.1927 6.5627 14.5627 6.1527 15.0927 6.1527C15.4727 6.1527 15.7127 6.3027 16.1027 6.6827L22.0927 12.2727C22.3927 12.5527 22.4927 12.8227 22.4927 13.0827C22.4927 13.3527 22.3927 13.6327 22.0927 13.9027L16.1027 19.5327C15.7527 19.8627 15.4627 20.0327 15.0827 20.0327C14.5627 20.0327 14.1927 19.6427 14.1927 19.1527V16.2427H13.9727C11.0327 16.2427 9.1827 16.9927 7.8627 19.4727C7.6127 19.9427 7.2627 20.0327 6.9327 20.0327Z"
        fillRule="evenodd"
        clipRule="evenodd"
    />
</svg>
        