<svg viewBox="0 0 27.890625 27.890625" xmlns="http://www.w3.org/2000/svg"><path d="M13.9427 27.8864C21.6427 27.8864 27.8927 21.6264 27.8927 13.9464C27.8927 6.2464 21.6427 -0.0036 13.9427 -0.0036C6.2627 -0.0036 0.0027 6.2464 0.0027 13.9464C0.0027 21.6264 6.2627 27.8864 13.9427 27.8864ZM9.5127 10.4464C10.1427 10.4464 10.5527 10.8664 10.5527 11.5564V13.9764L10.3527 16.1764L12.3827 13.9964L17.5427 8.8364C17.7427 8.6264 18.0227 8.5064 18.3627 8.5064C18.9727 8.5064 19.4027 8.9164 19.4027 9.5564C19.4027 9.8264 19.2627 10.1164 19.0627 10.3264L13.8727 15.4764L11.6727 17.5364L13.7627 17.3264H16.3127C16.9927 17.3264 17.4327 17.7364 17.4327 18.3464C17.4327 18.9764 17.0127 19.3864 16.3427 19.3864H9.6627C8.9427 19.3864 8.4727 19.0564 8.4727 18.2264V11.5764C8.4727 10.9064 8.9027 10.4464 9.5127 10.4464Z" /></svg>