
<svg
    viewBox="0 0 27.890625 27.890625"
    xmlns="http://www.w3.org/2000/svg"
>
    <path
        fill="inherit"
        d="M13.9427 27.8864C21.6427 27.8864 27.8927 21.6264 27.8927 13.9464C27.8927 6.2464 21.6427 -0.0036 13.9427 -0.0036C6.2627 -0.0036 0.0027 6.2464 0.0027 13.9464C0.0027 21.6264 6.2627 27.8864 13.9427 27.8864ZM7.7227 13.7664C7.1627 13.7664 6.7127 13.3164 6.7127 12.7564C6.7127 12.2064 7.1627 11.7764 7.7227 11.7764H8.4127L10.5727 11.9064L6.7627 8.2764C6.3527 7.8464 6.3327 7.1764 6.7527 6.7664C7.1627 6.3464 7.8327 6.3464 8.2427 6.7764L11.9227 10.5964L11.7827 8.3664V7.6864C11.7827 7.1264 12.2227 6.6864 12.7727 6.6864C13.3327 6.6864 13.7827 7.1264 13.7827 7.6864V12.5964C13.7827 13.4364 13.3427 13.7664 12.6027 13.7664ZM15.1227 21.1864C14.5627 21.1864 14.1127 20.7564 14.1127 20.1964V15.2764C14.1127 14.4364 14.5427 14.1064 15.2827 14.1064H20.1627C20.7227 14.1064 21.1827 14.5464 21.1827 15.1164C21.1827 15.6664 20.7227 16.1064 20.1627 16.1064H19.4827L17.3227 15.9664L21.1227 19.6064C21.5327 20.0164 21.5627 20.6964 21.1327 21.1064C20.7227 21.5364 20.0527 21.5364 19.6427 21.0964L15.9727 17.2764L16.1027 19.5064V20.1964C16.1027 20.7564 15.6727 21.1864 15.1227 21.1864Z"
        fillRule="evenodd"
        clipRule="evenodd"
    />
</svg>
        