
<svg
    viewBox="0 0 27.890625 27.890625"
    xmlns="http://www.w3.org/2000/svg"
>
    <path
        fill="inherit"
        d="M13.9427 27.8927C21.6427 27.8927 27.8927 21.6427 27.8927 13.9427C27.8927 6.2627 21.6427 0.0027 13.9427 0.0027C6.2627 0.0027 0.0027 6.2627 0.0027 13.9427C0.0027 21.6427 6.2627 27.8927 13.9427 27.8927ZM7.6527 14.5927C7.6527 11.1327 10.5027 8.4227 13.6727 8.4227C13.7927 8.4227 13.9427 8.4327 14.0527 8.4527L13.0727 7.4327C12.9227 7.2727 12.8127 7.0227 12.8127 6.7827C12.8127 6.2727 13.1927 5.8827 13.7127 5.8827C13.9627 5.8827 14.2027 5.9927 14.3527 6.1627L17.0627 8.9127C17.3927 9.2727 17.4227 9.8827 17.0627 10.2227L14.3327 12.9627C14.1827 13.1127 13.9427 13.2327 13.7127 13.2327C13.2027 13.2327 12.8127 12.8427 12.8127 12.3327C12.8127 12.0827 12.9227 11.8527 13.0827 11.6927L14.4527 10.3327C14.3127 10.3127 14.1227 10.2927 13.9427 10.2927C11.5427 10.2927 9.6127 12.2327 9.6127 14.6427C9.6127 17.0627 11.5427 19.0027 13.9427 19.0027C16.3527 19.0027 18.2827 17.0627 18.2827 14.6427C18.2827 14.1127 18.7327 13.6727 19.2627 13.6727C19.7827 13.6727 20.2327 14.1127 20.2327 14.6427C20.2327 18.1127 17.4327 20.9427 13.9427 20.9427C10.4627 20.9427 7.6527 18.1127 7.6527 14.5927Z"
        fillRule="evenodd"
        clipRule="evenodd"
    />
</svg>
        