
<svg
    viewBox={0 0 25.169921875 25.169921875}
    xmlns="http://www.w3.org/2000/svg"
>
    <path
        fill="inherit"
        d="M4.2937 25.1692H20.8737C23.7437 25.1692 25.1737 23.7592 25.1737 20.9492V4.2392C25.1737 1.4192 23.7437 -0.0008 20.8737 -0.0008H4.2937C1.4337 -0.0008 0.0037 1.4192 0.0037 4.2392V20.9492C0.0037 23.7592 1.4337 25.1692 4.2937 25.1692ZM12.6037 5.4692C12.8937 5.4692 13.1437 5.5492 13.4237 5.8392L18.0637 10.3192C18.2837 10.5292 18.4037 10.7592 18.4037 11.0692C18.4037 11.6392 17.9537 12.0592 17.3737 12.0592C17.1037 12.0592 16.8037 11.9492 16.6137 11.7192L14.4537 9.4292L13.6437 8.5692L13.7237 10.6792V18.5892C13.7237 19.1992 13.2237 19.6892 12.6037 19.6892C11.9937 19.6892 11.4737 19.1992 11.4737 18.5892V10.6792L11.5637 8.5692L10.7437 9.4292L8.6037 11.7192C8.4037 11.9492 8.0937 12.0592 7.8237 12.0592C7.2337 12.0592 6.8037 11.6392 6.8037 11.0692C6.8037 10.7592 6.9137 10.5292 7.1337 10.3192L11.7837 5.8392C12.0737 5.5492 12.3037 5.4692 12.6037 5.4692Z"
        fillRule="evenodd"
        clipRule="evenodd"
    />
</svg>
        