
<svg
    viewBox={0 0 16.228515625 22.054457443560732}
    xmlns="http://www.w3.org/2000/svg"
>
    <path
        fill="inherit"
        d="M1.1437 22.05C1.5037 22.05 1.8737 21.93 2.2037 21.71L2.9137 21.23C4.8137 19.95 7.6137 17.05 8.0937 15.6H8.1337C8.6037 17.04 11.4037 19.95 13.3137 21.23L14.0237 21.71C14.3537 21.93 14.7237 22.05 15.0637 22.05C15.7637 22.05 16.2237 21.58 16.2237 20.91C16.2237 20.5 16.0137 20.09 15.6437 19.85L14.5637 19.16C12.6637 17.9 9.3137 14.73 9.3137 11.38V6.25H11.2537C12.2137 6.25 12.4737 5.58 11.9337 4.83L8.8837 0.47C8.4537 -0.15 7.7937 -0.16 7.3437 0.47L4.2837 4.81C3.7437 5.58 3.9937 6.25 4.9737 6.25H6.9137V11.38C6.9137 14.73 3.5537 17.88 1.6637 19.16L0.5837 19.85C0.2037 20.09 0.0037 20.51 0.0037 20.92C0.0037 21.53 0.4537 22.05 1.1437 22.05Z"
        fillRule="evenodd"
        clipRule="evenodd"
    />
</svg>
        