<svg viewBox="0 0 49.150390625 32.07421875" xmlns="http://www.w3.org/2000/svg"><path d="M19.7137 14.9882H29.4237C30.9137 14.9882 32.0737 13.8382 32.0737 12.3282V2.6682C32.0737 1.1582 30.9137 -0.0018 29.4237 -0.0018H19.7137C18.2237 -0.0018 17.0937 1.1582 17.0937 2.6682V12.3282C17.0937 13.8382 18.2237 14.9882 19.7137 14.9882ZM19.7137 13.0582C19.3137 13.0582 19.0137 12.7382 19.0137 12.3282V2.6682C19.0137 2.2382 19.3137 1.9282 19.7137 1.9282H29.4237C29.8337 1.9282 30.1437 2.2382 30.1437 2.6682V12.3282C30.1437 12.7382 29.8337 13.0582 29.4237 13.0582ZM21.5037 10.8182H27.6537C28.2237 10.8182 28.5737 10.1482 28.2637 9.5982L25.2337 4.5082C24.9337 4.0082 24.1737 4.0182 23.8837 4.5282L20.9037 9.5982C20.5737 10.1482 20.9337 10.8182 21.5037 10.8182ZM2.6237 32.0782H12.3337C13.8237 32.0782 14.9837 30.9082 14.9837 29.4082V19.7582C14.9837 18.2482 13.8237 17.0782 12.3337 17.0782H2.6237C1.1337 17.0782 0.0037 18.2482 0.0037 19.7582V29.4082C0.0037 30.9082 1.1337 32.0782 2.6237 32.0782ZM19.7137 32.0782H29.4237C30.9137 32.0782 32.0737 30.9082 32.0737 29.4082V19.7582C32.0737 18.2482 30.9137 17.0782 29.4237 17.0782H19.7137C18.2237 17.0782 17.0937 18.2482 17.0937 19.7582V29.4082C17.0937 30.9082 18.2237 32.0782 19.7137 32.0782ZM36.8137 32.0782H46.5237C48.0137 32.0782 49.1537 30.9082 49.1537 29.4082V19.7582C49.1537 18.2482 48.0137 17.0782 46.5237 17.0782H36.8137C35.3237 17.0782 34.1637 18.2482 34.1637 19.7582V29.4082C34.1637 30.9082 35.3237 32.0782 36.8137 32.0782ZM2.6237 30.1482C2.2237 30.1482 1.9237 29.8282 1.9237 29.4082V19.7582C1.9237 19.3182 2.2237 19.0082 2.6237 19.0082H12.3337C12.7437 19.0082 13.0537 19.3182 13.0537 19.7582V29.4082C13.0537 29.8282 12.7437 30.1482 12.3337 30.1482ZM19.7137 30.1482C19.3137 30.1482 19.0137 29.8282 19.0137 29.4082V19.7582C19.0137 19.3182 19.3137 19.0082 19.7137 19.0082H29.4237C29.8337 19.0082 30.1437 19.3182 30.1437 19.7582V29.4082C30.1437 29.8282 29.8337 30.1482 29.4237 30.1482ZM36.8137 30.1482C36.4037 30.1482 36.0937 29.8282 36.0937 29.4082V19.7582C36.0937 19.3182 36.4037 19.0082 36.8137 19.0082H46.5237C46.9237 19.0082 47.2237 19.3182 47.2237 19.7582V29.4082C47.2237 29.8282 46.9237 30.1482 46.5237 30.1482ZM38.7237 27.6482C38.7237 28.2182 39.3937 28.5782 39.9337 28.2582L45.0037 25.2682C45.5137 24.9782 45.5237 24.2082 45.0237 23.9082L39.9337 20.8882C39.3737 20.5782 38.7237 20.9282 38.7237 21.4882ZM10.4437 27.6482V21.4882C10.4437 20.9282 9.7737 20.5782 9.2137 20.8882L4.1337 23.9082C3.6237 24.2082 3.6337 24.9782 4.1437 25.2682L9.2137 28.2582C9.7737 28.5782 10.4437 28.2182 10.4437 27.6482ZM23.8837 27.5482C24.1837 28.0582 24.9337 28.0682 25.2337 27.5582L28.2637 22.4782C28.5837 21.9282 28.2237 21.2582 27.6537 21.2582H21.5237C20.9337 21.2582 20.5937 21.9182 20.9037 22.4782Z" /></svg>