
<svg
    viewBox="0 0 25.388671875 20.7265625"
    xmlns="http://www.w3.org/2000/svg"
>
    <path
        fill="inherit"
        d="M25.3937 10.3644C25.3937 10.0244 25.2537 9.7044 24.9737 9.4444L15.9137 0.4144C15.6137 0.1044 15.3237 0.0044 14.9937 0.0044C14.3237 0.0044 13.8037 0.4944 13.8037 1.1744C13.8037 1.5044 13.9137 1.8144 14.1337 2.0344L17.2037 5.1544L21.7937 9.3544L18.4937 9.1444H1.2037C0.4937 9.1444 0.0037 9.6544 0.0037 10.3644C0.0037 11.0744 0.4937 11.5844 1.2037 11.5844H18.4937L21.8037 11.3744L17.2037 15.5744L14.1337 18.6944C13.9137 18.8944 13.8037 19.2244 13.8037 19.5544C13.8037 20.2344 14.3237 20.7244 14.9937 20.7244C15.3237 20.7244 15.6137 20.6044 15.8837 20.3444L24.9737 11.2744C25.2537 11.0244 25.3937 10.7044 25.3937 10.3644Z"
        fillRule="evenodd"
        clipRule="evenodd"
    />
</svg>
        