<svg viewBox="0 0 27.890625 27.890625" xmlns="http://www.w3.org/2000/svg"><path d="M13.9427 27.8864C21.6427 27.8864 27.8927 21.6464 27.8927 13.9464C27.8927 6.2464 21.6427 -0.0036 13.9427 -0.0036C6.2527 -0.0036 0.0027 6.2464 0.0027 13.9464C0.0027 21.6464 6.2527 27.8864 13.9427 27.8864ZM13.9427 25.5664C7.5227 25.5664 2.3227 20.3664 2.3227 13.9464C2.3227 7.5164 7.5227 2.3264 13.9427 2.3264C20.3727 2.3264 25.5627 7.5164 25.5627 13.9464C25.5627 20.3664 20.3727 25.5664 13.9427 25.5664ZM20.0327 14.5764C20.0327 11.2064 17.2627 8.5764 14.1927 8.5764C14.0727 8.5764 13.9227 8.5964 13.8227 8.5964L14.7927 7.6164C14.9327 7.4664 15.0227 7.2364 15.0227 6.9964C15.0227 6.5064 14.6527 6.1264 14.1627 6.1264C13.9227 6.1264 13.7027 6.2364 13.5327 6.3964L10.9127 9.0664C10.5927 9.3964 10.5827 10.0064 10.9127 10.3364L13.5627 12.9864C13.7127 13.1264 13.9427 13.2364 14.1627 13.2364C14.6527 13.2364 15.0227 12.8664 15.0227 12.3864C15.0227 12.1264 14.9327 11.9264 14.7627 11.7464L13.4427 10.4464C13.5727 10.4164 13.7527 10.4064 13.9327 10.4064C16.2827 10.4064 18.1427 12.2764 18.1427 14.6164C18.1427 16.9664 16.2827 18.8364 13.9327 18.8364C11.5927 18.8364 9.7227 16.9564 9.7227 14.6164C9.7227 14.1064 9.2927 13.6864 8.7727 13.6864C8.2727 13.6864 7.8327 14.1064 7.8327 14.6164C7.8327 17.9964 10.5527 20.7264 13.9327 20.7264C17.3127 20.7264 20.0327 17.9964 20.0327 14.5764Z" /></svg>