
<svg
    viewBox={0 0 28.970703125 25.01953125}
    xmlns="http://www.w3.org/2000/svg"
>
    <path
        fill="inherit"
        d="M24.6737 25.0172C27.5637 25.0172 28.9737 23.6572 28.9737 20.7972V14.1072C28.9737 12.1572 28.4237 11.0972 26.8537 9.9072L16.2237 1.8272C14.4237 0.4772 13.0337 -0.0028 10.8037 -0.0028H4.1737C1.4037 -0.0028 0.0037 1.3972 0.0037 4.1272V20.7972C0.0037 23.6572 1.3937 25.0172 4.2937 25.0172ZM24.5937 12.4172H4.2137C2.9537 12.4172 2.2037 11.6872 2.2037 10.3772V4.2372C2.2037 2.9072 2.9437 2.1972 4.2137 2.1972H10.8037C12.5537 2.1972 13.5637 2.4972 14.7237 3.4272L24.9137 11.2272C25.4737 11.6372 25.3237 12.4172 24.5937 12.4172ZM6.2237 10.3872H12.3037C13.0437 10.3872 13.3537 9.8072 12.9637 9.1572L10.0037 4.3072C9.6237 3.6772 8.9037 3.6872 8.5337 4.3072L5.5537 9.1572C5.1537 9.8072 5.4937 10.3872 6.2237 10.3872ZM6.2237 14.9572H12.3037C13.0437 14.9572 13.3537 15.5472 12.9637 16.1872L10.0037 21.0372C9.6237 21.6672 8.9037 21.6572 8.5337 21.0372L5.5537 16.1872C5.1537 15.5472 5.4937 14.9572 6.2237 14.9572Z"
        fillRule="evenodd"
        clipRule="evenodd"
    />
</svg>
        