<svg viewBox="0 0 31.0078125 28.642578125" xmlns="http://www.w3.org/2000/svg"><path d="M5.9327 28.6455C7.7827 28.6455 11.5527 26.7855 14.3327 24.8055C23.8527 25.0655 31.0127 19.5955 31.0127 12.4255C31.0127 5.5555 24.1127 -0.0045 15.5027 -0.0045C6.8927 -0.0045 0.0027 5.5555 0.0027 12.4255C0.0027 16.9155 2.8727 20.8955 7.1927 22.8855C6.5727 24.0755 5.4327 25.6855 4.8127 26.4955C4.0927 27.4555 4.5227 28.6455 5.9327 28.6455ZM7.3727 26.3755C7.2627 26.4155 7.2227 26.3355 7.2827 26.2355C8.0527 25.2955 9.1427 23.8755 9.6127 22.9955C9.9927 22.2855 9.9027 21.6555 9.0227 21.2455C4.7327 19.2455 2.2727 16.0655 2.2727 12.4255C2.2727 6.8255 8.1327 2.2555 15.5027 2.2555C22.8827 2.2555 28.7527 6.8255 28.7527 12.4255C28.7527 18.0155 22.8827 22.5855 15.5027 22.5855C15.2327 22.5855 14.8027 22.5755 14.2627 22.5555C13.6827 22.5555 13.2527 22.7355 12.7327 23.1455C11.0427 24.3655 8.6127 25.8655 7.3727 26.3755ZM15.5127 19.4555C15.8027 19.4555 16.0327 19.3555 16.3127 19.0855L20.8227 14.7355C21.0227 14.5355 21.1327 14.3155 21.1327 14.0255C21.1327 13.4655 20.7127 13.0655 20.1427 13.0655C19.8827 13.0655 19.5927 13.1655 19.4027 13.3955L17.3227 15.6155L16.5127 16.4655L16.6127 14.4055V6.7255C16.6127 6.1555 16.1027 5.6555 15.5127 5.6555C14.9327 5.6555 14.4327 6.1555 14.4327 6.7255V14.4055L14.5227 16.4655L13.7127 15.6155L11.6327 13.3955C11.4427 13.1655 11.1427 13.0655 10.8827 13.0655C10.3127 13.0655 9.9027 13.4655 9.9027 14.0255C9.9027 14.3155 10.0127 14.5355 10.2127 14.7355L14.7227 19.0855C15.0027 19.3555 15.2427 19.4555 15.5127 19.4555Z" /></svg>