
<svg
    viewBox={0 0 27.890625 27.890625}
    xmlns="http://www.w3.org/2000/svg"
>
    <path
        fill="inherit"
        d="M13.9427 27.8927C21.6427 27.8927 27.8927 21.6427 27.8927 13.9427C27.8927 6.2627 21.6427 0.0027 13.9427 0.0027C6.2627 0.0027 0.0027 6.2627 0.0027 13.9427C0.0027 21.6427 6.2627 27.8927 13.9427 27.8927ZM13.9427 5.3327C14.2027 5.3327 14.4927 5.4227 14.7827 5.7327L20.4227 11.7827C20.8127 12.1927 20.9727 12.4227 20.9727 12.7927C20.9727 13.3427 20.5527 13.7227 20.0427 13.7227H16.9627V20.0927C16.9627 21.2227 16.3227 21.8627 15.2427 21.8627H12.6327C11.5527 21.8627 10.9227 21.2227 10.9227 20.0927V13.7227H7.8227C7.2827 13.7227 6.9227 13.3427 6.9227 12.8227C6.9227 12.4427 7.0827 12.1527 7.4127 11.7827L13.1227 5.7327C13.4027 5.4227 13.7027 5.3327 13.9427 5.3327Z"
        fillRule="evenodd"
        clipRule="evenodd"
    />
</svg>
        