
<svg
    viewBox="0 0 25.662109375 21.51953125"
    xmlns="http://www.w3.org/2000/svg"
>
    <path
        fill="inherit"
        d="M1.2837 -0.0045C0.5637 -0.0045 0.2337 0.4655 0.1237 1.0155C0.0237 1.4355 0.0037 2.1055 0.0037 2.9155C0.0037 9.5255 2.6537 12.3755 9.1337 12.3755H18.6937L22.0437 12.1855L17.4337 16.3755L14.3937 19.4655C14.1737 19.7055 14.0637 20.0155 14.0637 20.3455C14.0637 21.0255 14.5837 21.5155 15.2737 21.5155C15.5837 21.5155 15.8837 21.3955 16.1837 21.1055L25.2337 12.0755C25.5237 11.7955 25.6637 11.4855 25.6637 11.1455C25.6637 10.8155 25.5237 10.4855 25.2337 10.2255L16.1637 1.1455C15.8837 0.8855 15.5837 0.7755 15.2737 0.7755C14.5837 0.7755 14.0637 1.2755 14.0637 1.9555C14.0637 2.2855 14.1937 2.5955 14.3937 2.8155L17.4337 5.9055L22.0537 10.1355L18.6937 9.9255H9.2537C4.2337 9.9255 2.4737 7.8655 2.4737 2.7855C2.4737 2.1355 2.5137 1.6955 2.5137 1.2055C2.5137 0.4955 1.9937 -0.0045 1.2837 -0.0045Z"
        fillRule="evenodd"
        clipRule="evenodd"
    />
</svg>
        