
<svg
    viewBox={0 0 31.503683068455715 31.578872427458364}
    xmlns="http://www.w3.org/2000/svg"
>
    <path
        fill="inherit"
        d="M0.4428 16.7742L4.8128 20.9142C5.7328 21.8042 6.9428 21.1042 6.9428 19.9142V17.0242H14.5328V24.6342H11.6228C10.4428 24.6342 9.7528 25.8342 10.6228 26.7542L14.7628 31.1342C15.3528 31.7442 16.1928 31.7142 16.7528 31.1142L20.8828 26.7542C21.7628 25.8342 21.0728 24.6342 19.8828 24.6342H16.9828V17.0242H24.5528V19.9142C24.5528 21.1042 25.7628 21.8042 26.6928 20.9142L31.0528 16.7842C31.6428 16.2142 31.6628 15.3942 31.0628 14.8042L26.6928 10.6642C25.7628 9.7842 24.5528 10.4842 24.5528 11.6642V14.5742H16.9828V6.9442H19.8828C21.0728 6.9442 21.7628 5.7442 20.8828 4.8242L16.7328 0.4542C16.1628 -0.1658 15.3328 -0.1358 14.7528 0.4642L10.6228 4.8242C9.7528 5.7442 10.4428 6.9442 11.6228 6.9442H14.5328V14.5742H6.9428V11.6642C6.9428 10.4842 5.7328 9.7842 4.8128 10.6642L0.4528 14.7942C-0.1372 15.3642 -0.1572 16.1842 0.4428 16.7742Z"
        fillRule="evenodd"
        clipRule="evenodd"
    />
</svg>
        