
<svg
    viewBox="0 0 25.662109375 21.51953125"
    xmlns="http://www.w3.org/2000/svg"
>
    <path
        fill="inherit"
        d="M1.2837 21.5162C1.9937 21.5162 2.5137 21.0262 2.5137 20.3062C2.5137 19.8262 2.4737 19.3762 2.4737 18.7262C2.4737 13.6562 4.2337 11.5962 9.2537 11.5962H18.6937L22.0537 11.3862L17.4337 15.5962L14.3937 18.6862C14.1937 18.9062 14.0637 19.2362 14.0637 19.5662C14.0637 20.2462 14.5837 20.7362 15.2737 20.7362C15.5837 20.7362 15.8837 20.6162 16.1637 20.3562L25.2337 11.2962C25.5237 11.0162 25.6637 10.7062 25.6637 10.3662C25.6637 10.0362 25.5237 9.7062 25.2337 9.4462L16.1837 0.4062C15.8837 0.1062 15.5837 -0.0038 15.2737 -0.0038C14.5837 -0.0038 14.0637 0.4962 14.0637 1.1762C14.0637 1.5062 14.1737 1.8162 14.3937 2.0362L17.4337 5.1262L22.0437 9.3362L18.6937 9.1462H9.1337C2.6537 9.1462 0.0037 11.9862 0.0037 18.6062C0.0037 19.3962 0.0237 20.0862 0.1237 20.4962C0.2337 21.0562 0.5637 21.5162 1.2837 21.5162Z"
        fillRule="evenodd"
        clipRule="evenodd"
    />
</svg>
        