
<svg
    viewBox="0 0 27.166015625 25.1015625"
    xmlns="http://www.w3.org/2000/svg"
>
    <path
        fill="inherit"
        d="M0.0037 8.258C0.0037 14.078 4.8837 19.808 12.5937 24.728C12.8837 24.908 13.3037 25.098 13.5737 25.098C13.8637 25.098 14.2737 24.908 14.5737 24.728C22.2837 19.808 27.1637 14.078 27.1637 8.258C27.1637 3.418 23.8437 -0.002 19.4037 -0.002C16.8737 -0.002 14.8237 1.208 13.5737 3.048C12.3637 1.218 10.2937 -0.002 7.7537 -0.002C3.3237 -0.002 0.0037 3.418 0.0037 8.258ZM2.2037 8.258C2.2037 4.618 4.5537 2.198 7.7237 2.198C10.3037 2.198 11.7737 3.798 12.6637 5.168C13.0337 5.718 13.2637 5.868 13.5737 5.868C13.9037 5.868 14.1137 5.698 14.5037 5.168C15.4537 3.828 16.8737 2.198 19.4237 2.198C22.6137 2.198 24.9637 4.618 24.9637 8.258C24.9637 13.348 19.5937 18.828 13.8637 22.628C13.7237 22.718 13.6337 22.788 13.5737 22.788C13.5337 22.788 13.4437 22.718 13.3037 22.628C7.5737 18.828 2.2037 13.348 2.2037 8.258ZM8.7537 13.608C8.7537 16.258 10.8437 18.378 13.4637 18.378C16.0937 18.378 18.1837 16.258 18.1837 13.628C18.1837 13.178 17.8037 12.798 17.3537 12.798C16.8837 12.798 16.5037 13.178 16.5037 13.628C16.5037 15.328 15.1437 16.678 13.4637 16.678C11.7837 16.678 10.4337 15.328 10.4337 13.628C10.4337 12.248 11.3637 11.098 12.6237 10.728V12.048C12.6237 12.548 13.1637 12.738 13.5537 12.418L15.7737 10.498C16.1437 10.168 16.1437 9.738 15.7737 9.418L13.5537 7.538C13.1637 7.208 12.6237 7.398 12.6237 7.898V9.028C10.4737 9.348 8.7537 11.318 8.7537 13.608Z"
        fillRule="evenodd"
        clipRule="evenodd"
    />
</svg>
        