<svg viewBox="0 0 25.169921875 25.169921875" xmlns="http://www.w3.org/2000/svg"><path d="M4.2937 25.1692H20.8737C23.7437 25.1692 25.1737 23.7592 25.1737 20.9492V4.2392C25.1737 1.4192 23.7437 -0.0008 20.8737 -0.0008H4.2937C1.4337 -0.0008 0.0037 1.4192 0.0037 4.2392V20.9492C0.0037 23.7592 1.4337 25.1692 4.2937 25.1692ZM4.3237 22.9692C2.9537 22.9692 2.2037 22.2392 2.2037 20.8192V4.3592C2.2037 2.9392 2.9537 2.1992 4.3237 2.1992H20.8537C22.2037 2.1992 22.9737 2.9392 22.9737 4.3592V20.8192C22.9737 22.2392 22.2037 22.9692 20.8537 22.9692ZM6.6837 12.5692C7.2237 12.5692 7.6537 12.1392 7.6537 11.6092V10.9392L7.5237 8.7792L10.4737 11.8792C10.8737 12.3192 11.5237 12.3092 11.9237 11.8992C12.3137 11.4992 12.3037 10.8292 11.9037 10.4492L8.8337 7.5092L10.9237 7.6392H11.5937C12.1237 7.6392 12.5537 7.2192 12.5537 6.6892C12.5537 6.1492 12.1237 5.7192 11.5937 5.7192H6.8537C6.1437 5.7192 5.7237 6.0292 5.7237 6.8492V11.6092C5.7237 12.1392 6.1537 12.5692 6.6837 12.5692ZM13.6037 19.4692H18.3337C19.0437 19.4692 19.4737 19.1592 19.4737 18.3292V13.5792C19.4737 13.0392 19.0337 12.6192 18.4937 12.6192C17.9637 12.6192 17.5437 13.0392 17.5437 13.5792V14.2492L17.6737 16.4092L14.7237 13.2992C14.3137 12.8692 13.6737 12.8792 13.2637 13.2892C12.8637 13.6892 12.8837 14.3592 13.2737 14.7392L16.3637 17.6792L14.2737 17.5392H13.6037C13.0737 17.5392 12.6337 17.9692 12.6337 18.4992C12.6337 19.0292 13.0737 19.4692 13.6037 19.4692Z" /></svg>