
<svg
    viewBox="0 0 25.169921875 25.169921875"
    xmlns="http://www.w3.org/2000/svg"
>
    <path
        fill="inherit"
        d="M4.2937 25.1666H20.8737C23.7437 25.1666 25.1737 23.7466 25.1737 20.9366V4.2266C25.1737 1.4066 23.7437 -0.0034 20.8737 -0.0034H4.2937C1.4337 -0.0034 0.0037 1.4066 0.0037 4.2266V20.9366C0.0037 23.7466 1.4337 25.1666 4.2937 25.1666ZM4.3237 22.9666C2.9537 22.9666 2.2037 22.2266 2.2037 20.8066V4.3466C2.2037 2.9266 2.9537 2.1866 4.3237 2.1866H20.8537C22.2037 2.1866 22.9737 2.9266 22.9737 4.3466V20.8066C22.9737 22.2266 22.2037 22.9666 20.8537 22.9666ZM19.6637 14.2366C19.6637 10.9466 17.2837 8.9566 14.0937 8.9566H10.0037L8.3937 9.0066L9.4737 8.1466L10.8837 6.7766C11.0737 6.6166 11.1937 6.3566 11.1937 6.0866C11.1937 5.5066 10.7737 5.0866 10.2137 5.0866C9.9237 5.0866 9.7037 5.1866 9.5137 5.3866L5.8837 9.0666C5.6637 9.2966 5.5237 9.5866 5.5237 9.9166C5.5237 10.2266 5.6637 10.4966 5.8837 10.7366L9.5337 14.4666C9.7237 14.6566 9.9437 14.7366 10.2237 14.7366C10.7737 14.7366 11.1937 14.3166 11.1937 13.7566C11.1937 13.4966 11.1037 13.2166 10.8937 13.0466L9.1837 11.4066L8.3937 10.8166L10.0037 10.8666H14.0937C16.1037 10.8666 17.6537 12.0166 17.6537 14.1266C17.6537 16.2866 16.1437 17.6066 14.0837 17.6066H12.1837C11.5937 17.6066 11.1437 17.9666 11.1437 18.5966C11.1437 19.2266 11.5937 19.5666 12.2137 19.5666H14.0837C17.2637 19.5666 19.6637 17.5266 19.6637 14.2366Z"
        fillRule="evenodd"
        clipRule="evenodd"
    />
</svg>
        