<svg viewBox="0 0 48.78125 22.06640625" xmlns="http://www.w3.org/2000/svg"><path d="M19.5237 1.9243H29.0637C29.6037 1.9243 30.0337 1.5043 30.0337 0.9743C30.0337 0.4343 29.6037 0.0043 29.0637 0.0043H19.5237C18.9937 0.0043 18.5637 0.4343 18.5637 0.9743C18.5637 1.5043 18.9937 1.9243 19.5237 1.9243ZM18.0037 11.0343C18.0037 10.7043 17.8737 10.3243 17.5037 9.9843L11.0837 3.9743C10.6537 3.5643 10.3037 3.3343 9.8337 3.3343C9.1237 3.3343 8.6237 3.9243 8.6237 4.5843V7.3943H2.2837C0.8437 7.3943 0.0037 8.2443 0.0037 9.6343V12.4243C0.0037 13.8343 0.8437 14.6743 2.2837 14.6743H8.6237V17.5443C8.6237 18.2143 9.1237 18.7343 9.8137 18.7343C10.2837 18.7343 10.6937 18.5243 11.0837 18.1443L17.5037 12.0843C17.8537 11.7443 18.0037 11.3643 18.0037 11.0343ZM48.7837 11.0343C48.7837 10.7043 48.6437 10.3243 48.2937 9.9843L41.8737 3.9743C41.4237 3.5643 41.0837 3.3343 40.6037 3.3343C39.9037 3.3343 39.4037 3.9243 39.4037 4.5843V7.3943H33.0537C31.6237 7.3943 30.7737 8.2443 30.7737 9.6343V12.4243C30.7737 13.8343 31.6237 14.6743 33.0537 14.6743H39.4037V17.5443C39.4037 18.2143 39.9037 18.7343 40.5937 18.7343C41.0537 18.7343 41.4637 18.5243 41.8737 18.1443L48.2937 12.0843C48.6337 11.7443 48.7837 11.3643 48.7837 11.0343ZM21.8937 6.0243C22.5137 6.0243 23.0237 5.5243 23.0237 4.8943C23.0237 4.2643 22.5137 3.7443 21.8937 3.7443C21.2637 3.7443 20.7537 4.2643 20.7537 4.8943C20.7537 5.5243 21.2637 6.0243 21.8937 6.0243ZM26.7837 6.0243C27.4237 6.0243 27.9337 5.5243 27.9337 4.8943C27.9337 4.2643 27.4237 3.7443 26.7837 3.7443C26.1537 3.7443 25.6437 4.2643 25.6437 4.8943C25.6437 5.5243 26.1537 6.0243 26.7837 6.0243ZM33.0737 12.9443C32.7137 12.9443 32.4937 12.7243 32.4937 12.3843V9.6943C32.4937 9.3343 32.7137 9.1143 33.0737 9.1143H40.6737C41.0037 9.1143 41.1937 8.9243 41.1937 8.6043V5.6743L46.5137 10.7443C46.6237 10.8443 46.6637 10.9243 46.6637 11.0343C46.6637 11.1243 46.6237 11.2243 46.5137 11.3343L41.1937 16.3343V13.4843C41.1937 13.1543 41.0037 12.9443 40.6737 12.9443ZM21.8937 10.1143C22.5137 10.1143 23.0237 9.6143 23.0237 8.9843C23.0237 8.3543 22.5137 7.8443 21.8937 7.8443C21.2637 7.8443 20.7537 8.3543 20.7537 8.9843C20.7537 9.6143 21.2637 10.1143 21.8937 10.1143ZM26.7837 10.1143C27.4237 10.1143 27.9337 9.6143 27.9337 8.9843C27.9337 8.3543 27.4237 7.8443 26.7837 7.8443C26.1537 7.8443 25.6437 8.3543 25.6437 8.9843C25.6437 9.6143 26.1537 10.1143 26.7837 10.1143ZM21.8937 14.2143C22.5137 14.2143 23.0237 13.7143 23.0237 13.0843C23.0237 12.4443 22.5137 11.9343 21.8937 11.9343C21.2637 11.9343 20.7537 12.4443 20.7537 13.0843C20.7537 13.7143 21.2637 14.2143 21.8937 14.2143ZM26.7837 14.2143C27.4237 14.2143 27.9337 13.7143 27.9337 13.0843C27.9337 12.4443 27.4237 11.9343 26.7837 11.9343C26.1537 11.9343 25.6437 12.4443 25.6437 13.0843C25.6437 13.7143 26.1537 14.2143 26.7837 14.2143ZM21.8937 18.3043C22.5137 18.3043 23.0237 17.8043 23.0237 17.1743C23.0237 16.5443 22.5137 16.0343 21.8937 16.0343C21.2637 16.0343 20.7537 16.5443 20.7537 17.1743C20.7537 17.8043 21.2637 18.3043 21.8937 18.3043ZM26.7837 18.3043C27.4237 18.3043 27.9337 17.8043 27.9337 17.1743C27.9337 16.5443 27.4237 16.0343 26.7837 16.0343C26.1537 16.0343 25.6437 16.5443 25.6437 17.1743C25.6437 17.8043 26.1537 18.3043 26.7837 18.3043ZM19.4937 22.0643H29.1237C29.6537 22.0643 30.0737 21.6243 30.0737 21.0943C30.0737 20.5643 29.6537 20.1343 29.1237 20.1343H19.4937C18.9637 20.1343 18.5237 20.5643 18.5237 21.0943C18.5237 21.6243 18.9637 22.0643 19.4937 22.0643Z" /></svg>