
<svg
    viewBox={0 0 33.46875 25.087890625}
    xmlns="http://www.w3.org/2000/svg"
>
    <path
        fill="inherit"
        d="M3.3737 25.0019H11.6237C13.9837 25.0019 14.9937 24.0219 14.9937 21.7019V18.5819H18.5137V23.4919C18.5137 24.4019 19.1837 25.0919 20.1137 25.0919C20.7837 25.0919 21.3237 24.8119 21.9837 24.2019L32.7737 14.0119C33.3037 13.5219 33.4737 13.0019 33.4737 12.5519C33.4737 12.0819 33.3037 11.5619 32.7737 11.0719L21.9837 0.9819C21.2637 0.3019 20.8037 0.0019 20.1437 0.0019C19.1837 0.0019 18.5137 0.7619 18.5137 1.6819V6.9819H9.6437C7.2737 6.9819 6.2637 7.9719 6.2637 10.2919V13.1519H3.3737C1.0137 13.1519 0.0037 14.1219 0.0037 16.4519V21.7019C0.0037 24.0219 1.0137 25.0019 3.3737 25.0019ZM20.9037 22.1519C20.7837 22.1519 20.7137 22.0619 20.7137 21.9419V16.6519C20.7137 16.3419 20.5637 16.2019 20.2437 16.2019H9.8037C8.9037 16.2019 8.4637 15.7119 8.4637 14.7119V10.4019C8.4637 9.3919 8.9037 8.9119 9.8037 8.9119H20.2437C20.5637 8.9119 20.7137 8.7819 20.7137 8.4619V3.0319C20.7137 2.9219 20.7837 2.8419 20.9037 2.8419C20.9837 2.8419 21.0637 2.9019 21.1337 2.9519L30.8737 12.2919C30.9837 12.3819 31.0237 12.4719 31.0237 12.5519C31.0237 12.6319 30.9837 12.7019 30.8737 12.8119L21.1337 22.0219C21.0537 22.1119 20.9737 22.1519 20.9037 22.1519ZM3.5437 22.8619C2.6437 22.8619 2.2037 22.3719 2.2037 21.3719V16.7719C2.2037 15.7819 2.6437 15.3019 3.5437 15.3019H6.2937V15.9519C6.2937 16.7919 6.5537 17.3919 7.3137 17.8719L12.7937 21.2219V21.3719C12.7937 22.3719 12.3637 22.8619 11.4537 22.8619Z"
        fillRule="evenodd"
        clipRule="evenodd"
    />
</svg>
        