
<svg
    viewBox={0 0 28.287109375 20.7265625}
    xmlns="http://www.w3.org/2000/svg"
>
    <path
        fill="inherit"
        d="M1.2137 20.7241C1.9437 20.7241 2.4437 20.2441 2.4437 19.5541V10.5041C2.4737 10.7841 2.6237 11.0641 2.8537 11.2841L11.9537 20.3541C12.2237 20.6141 12.5137 20.7241 12.8237 20.7241C13.5037 20.7241 14.0237 20.2341 14.0237 19.5541C14.0237 19.2341 13.9037 18.9041 13.7037 18.6941L10.6337 15.5741L6.1437 11.4841L9.0637 11.5941H27.0837C27.7837 11.5941 28.2837 11.0741 28.2837 10.3641C28.2837 9.6541 27.7837 9.1441 27.0837 9.1441H9.0637L6.1537 9.2541L10.6337 5.1541L13.7037 2.0541C13.9037 1.8341 14.0237 1.5041 14.0237 1.1741C14.0237 0.5041 13.5037 0.0041 12.8237 0.0041C12.5137 0.0041 12.2237 0.1241 11.9537 0.3841L2.8537 9.4441C2.6237 9.6841 2.4737 9.9541 2.4437 10.2441V1.2141C2.4437 0.5041 1.9437 0.0041 1.2137 0.0041C0.5037 0.0041 0.0037 0.5041 0.0037 1.2141V19.5541C0.0037 20.2441 0.5037 20.7241 1.2137 20.7241Z"
        fillRule="evenodd"
        clipRule="evenodd"
    />
</svg>
        