
<svg
    viewBox="0 0 32.23828125 25.169921875"
    xmlns="http://www.w3.org/2000/svg"
>
    <path
        fill="inherit"
        d="M4.2937 25.1692H27.9437C30.8137 25.1692 32.2337 23.7592 32.2337 20.9492V4.2392C32.2337 1.4192 30.8137 -0.0008 27.9437 -0.0008H4.2937C1.4337 -0.0008 0.0037 1.4192 0.0037 4.2392V20.9492C0.0037 23.7592 1.4337 25.1692 4.2937 25.1692ZM19.3037 14.0992C18.5837 14.0992 18.1337 13.7692 18.1337 12.9192V6.4792C18.1337 5.8092 18.5437 5.3492 19.1537 5.3492C19.7837 5.3492 20.1937 5.7692 20.1937 6.4492V8.6792L19.9837 10.8792L22.0237 8.7092L26.2537 4.4692C26.4537 4.2692 26.7137 4.1392 27.0737 4.1392C27.6837 4.1392 28.0937 4.5692 28.0937 5.2092C28.0937 5.4792 27.9637 5.7592 27.7537 5.9492L23.5137 10.1892L21.3137 12.2492L23.4037 12.0292H25.7737C26.4437 12.0292 26.8837 12.4392 26.8837 13.0592C26.8837 13.6892 26.4537 14.0992 25.8037 14.0992Z"
        fillRule="evenodd"
        clipRule="evenodd"
    />
</svg>
        