<svg viewBox="0 0 33.564453125 22.203125" xmlns="http://www.w3.org/2000/svg"><path d="M4.3907 22.2027H19.0707C21.8207 22.2027 23.4607 20.6127 23.4607 17.8727V4.3227C23.4607 1.5827 21.9607 0.0027 19.2107 0.0027H4.3907C1.7607 0.0027 0.0007 1.5827 0.0007 4.3227V17.8727C0.0007 20.6127 1.6407 22.2027 4.3907 22.2027ZM25.3207 15.1327L30.3007 19.4427C30.7607 19.8527 31.3107 20.1127 31.8007 20.1127C32.8707 20.1127 33.5607 19.3327 33.5607 18.2127V3.9927C33.5607 2.8727 32.8707 2.0927 31.8007 2.0927C31.3107 2.0927 30.7607 2.3527 30.3007 2.7627L25.3207 7.0527ZM16.4307 5.4127C17.0307 5.4127 17.4907 5.8427 17.4907 6.4027C17.4907 6.7027 17.3907 6.9427 17.1407 7.1827L11.3907 12.9627L9.0107 15.1227L13.0407 14.8927H14.9607C15.5007 14.8927 15.9807 15.2827 15.9807 15.8427C15.9807 16.4327 15.5307 16.9027 14.9607 16.9027H7.1107C6.3607 16.9027 5.9907 16.5327 5.9907 15.7727V7.9427C5.9907 7.3727 6.4707 6.9327 7.0407 6.9327C7.5907 6.9327 8.0007 7.3927 8.0007 7.9427V9.8327L7.7607 13.8627L9.9407 11.5027L15.6907 5.7327C15.9107 5.5127 16.1307 5.4127 16.4307 5.4127Z" /></svg>