
<svg
    viewBox="0 0 30.61316137467272 30.65065185394996"
    xmlns="http://www.w3.org/2000/svg"
>
    <path
        fill="inherit"
        d="M30.6109 18.089L30.5209 8.229C30.5209 7.889 30.3709 7.539 30.1509 7.319C29.6409 6.809 28.9309 6.819 28.4409 7.319C28.1909 7.559 28.0809 7.849 28.0809 8.159L28.1509 12.249L28.4009 15.619L26.2509 13.289L13.3409 0.389C12.8409 -0.121 12.1009 -0.131 11.6109 0.389C11.0909 0.879 11.1009 1.599 11.6109 2.109L24.5109 15.029L26.8409 17.159L23.4909 16.929L19.4009 16.859C19.0709 16.859 18.7909 16.959 18.5409 17.219C18.0509 17.709 18.0309 18.409 18.5409 18.919C18.7709 19.129 19.1109 19.279 19.4709 19.279L29.3109 19.389C30.0509 19.419 30.6409 18.839 30.6109 18.089ZM0.0009 12.569L0.1109 22.409C0.1109 22.769 0.2609 23.109 0.4609 23.329C0.9809 23.849 1.6809 23.829 2.1709 23.329C2.4209 23.079 2.5309 22.809 2.5309 22.479L2.4609 18.379L2.2309 15.029L4.3609 17.369L17.2809 30.269C17.7909 30.779 18.5009 30.779 19.0009 30.269C19.5209 29.769 19.5109 29.039 19.0009 28.539L6.1009 15.629L3.7709 13.499L7.1209 13.729L11.2209 13.799C11.5409 13.799 11.8109 13.689 12.0609 13.439C12.5609 12.949 12.5809 12.239 12.0609 11.729C11.8409 11.509 11.5009 11.359 11.1609 11.359L1.3009 11.269C0.5609 11.239 -0.0291 11.789 0.0009 12.569Z"
        fillRule="evenodd"
        clipRule="evenodd"
    />
</svg>
        