
<svg
    viewBox="0 0 27.890625 27.890625"
    xmlns="http://www.w3.org/2000/svg"
>
    <path
        fill="inherit"
        d="M13.9427 27.8864C21.6427 27.8864 27.8927 21.6264 27.8927 13.9464C27.8927 6.2464 21.6427 -0.0036 13.9427 -0.0036C6.2627 -0.0036 0.0027 6.2464 0.0027 13.9464C0.0027 21.6264 6.2627 27.8864 13.9427 27.8864ZM7.8227 17.9464V14.3564C7.8227 11.6164 9.1327 10.3064 11.8627 10.3064H15.7527V8.5064C15.7527 7.5864 16.7027 7.1864 17.4227 7.7564L20.7527 10.3364C21.6327 11.0364 21.6327 11.8664 20.7527 12.5664L17.4227 15.1664C16.7027 15.7264 15.7527 15.3264 15.7527 14.4064V12.5964H11.9127C10.7027 12.5964 10.0927 13.1964 10.0927 14.4664V17.9464C10.0927 18.7564 9.6627 19.2064 8.9527 19.2264C8.2327 19.2364 7.8227 18.7564 7.8227 17.9464Z"
        fillRule="evenodd"
        clipRule="evenodd"
    />
</svg>
        