
<svg
    viewBox={0 0 25.169921875 25.169921875}
    xmlns="http://www.w3.org/2000/svg"
>
    <path
        fill="inherit"
        d="M4.2937 25.1692H20.8737C23.7437 25.1692 25.1737 23.7592 25.1737 20.9492V4.2392C25.1737 1.4192 23.7437 -0.0008 20.8737 -0.0008H4.2937C1.4337 -0.0008 0.0037 1.4192 0.0037 4.2392V20.9492C0.0037 23.7592 1.4337 25.1692 4.2937 25.1692ZM4.3237 22.9692C2.9537 22.9692 2.2037 22.2392 2.2037 20.8192V4.3592C2.2037 2.9392 2.9537 2.1992 4.3237 2.1992H20.8537C22.2037 2.1992 22.9737 2.9392 22.9737 4.3592V20.8192C22.9737 22.2392 22.2037 22.9692 20.8537 22.9692ZM21.0837 12.5892C21.0837 12.2792 20.9637 12.0492 20.7037 11.7892L16.7437 7.8292C16.5737 7.6392 16.3237 7.5492 16.0337 7.5492C15.4737 7.5492 15.0537 7.9892 15.0537 8.5492C15.0537 8.8292 15.1637 9.0892 15.3537 9.2692L16.3937 10.2792L18.0637 11.6792L15.1637 11.5692H10.0237L7.1237 11.6792L8.7737 10.2792L9.8137 9.2692C10.0037 9.0892 10.1137 8.8292 10.1137 8.5492C10.1137 7.9892 9.6937 7.5492 9.1337 7.5492C8.8437 7.5492 8.6037 7.6392 8.4237 7.8292L4.4737 11.7892C4.2137 12.0492 4.0837 12.2792 4.0837 12.5892C4.0837 12.8792 4.2137 13.0992 4.4737 13.3692L8.4237 17.3492C8.6037 17.5292 8.8437 17.6192 9.1337 17.6192C9.6937 17.6192 10.1137 17.1892 10.1137 16.6392C10.1137 16.3392 9.9937 16.0892 9.8137 15.8992L8.7737 14.8792L7.1337 13.5092L10.0237 13.5992H15.1637L18.0437 13.5092L16.3937 14.8792L15.3537 15.8992C15.1737 16.0892 15.0537 16.3392 15.0537 16.6392C15.0537 17.1892 15.4737 17.6192 16.0337 17.6192C16.3237 17.6192 16.5737 17.5292 16.7437 17.3492L20.7037 13.3692C20.9637 13.0992 21.0837 12.8792 21.0837 12.5892Z"
        fillRule="evenodd"
        clipRule="evenodd"
    />
</svg>
        