<svg viewBox="0 0 27.890625 27.890625" xmlns="http://www.w3.org/2000/svg"><path d="M13.9427 27.8864C21.6427 27.8864 27.8927 21.6464 27.8927 13.9464C27.8927 6.2464 21.6427 -0.0036 13.9427 -0.0036C6.2527 -0.0036 0.0027 6.2464 0.0027 13.9464C0.0027 21.6464 6.2527 27.8864 13.9427 27.8864ZM13.9427 25.5664C7.5227 25.5664 2.3227 20.3664 2.3227 13.9464C2.3227 7.5164 7.5227 2.3264 13.9427 2.3264C20.3727 2.3264 25.5627 7.5164 25.5627 13.9464C25.5627 20.3664 20.3727 25.5664 13.9427 25.5664ZM21.0027 15.6164C21.0027 12.3364 18.6227 10.3364 15.4327 10.3364H11.3427L9.7327 10.3764L10.8127 9.5264L12.2227 8.1664C12.4127 7.9964 12.5327 7.7364 12.5327 7.4464C12.5327 6.8864 12.1127 6.4664 11.5527 6.4664C11.2627 6.4664 11.0427 6.5464 10.8527 6.7564L7.2227 10.4464C7.0027 10.6764 6.8527 10.9664 6.8527 11.2764C6.8527 11.6064 7.0027 11.8764 7.2227 12.1164L10.8727 15.8364C11.0627 16.0264 11.2827 16.1164 11.5627 16.1164C12.1127 16.1164 12.5327 15.6964 12.5327 15.1164C12.5327 14.8764 12.4427 14.6064 12.2327 14.4264L10.5227 12.7864L9.7327 12.1864L11.3427 12.2464H15.4327C17.4427 12.2464 18.9927 13.3964 18.9927 15.5064C18.9927 17.6664 17.4827 18.9864 15.4227 18.9864H13.5227C12.9327 18.9864 12.4827 19.3364 12.4827 19.9764C12.4827 20.6064 12.9327 20.9464 13.5527 20.9464H15.4227C18.6027 20.9464 21.0027 18.8964 21.0027 15.6164Z" /></svg>