
<svg
    viewBox="0 0 25.169921875 25.169921875"
    xmlns="http://www.w3.org/2000/svg"
>
    <path
        fill="inherit"
        d="M4.2937 25.1692H20.8737C23.7437 25.1692 25.1737 23.7592 25.1737 20.9492V4.2392C25.1737 1.4192 23.7437 -0.0008 20.8737 -0.0008H4.2937C1.4337 -0.0008 0.0037 1.4192 0.0037 4.2392V20.9492C0.0037 23.7592 1.4337 25.1692 4.2937 25.1692ZM4.3237 22.9692C2.9537 22.9692 2.2037 22.2392 2.2037 20.8192V4.3592C2.2037 2.9392 2.9537 2.1992 4.3237 2.1992H20.8537C22.2037 2.1992 22.9737 2.9392 22.9737 4.3592V20.8192C22.9737 22.2392 22.2037 22.9692 20.8537 22.9692ZM8.3037 15.9692C8.9037 15.9692 9.2937 15.5492 9.2937 14.8992V12.5392L9.0937 10.4092L11.0637 12.5092L16.0937 17.5392C16.2937 17.7292 16.5437 17.8592 16.8737 17.8592C17.4737 17.8592 17.8837 17.4592 17.8837 16.8392C17.8837 16.5692 17.7437 16.2992 17.5537 16.1092L12.5137 11.0592L10.3737 9.0792L12.4037 9.2992H14.8937C15.5437 9.2992 15.9737 8.8992 15.9737 8.2992C15.9737 7.6992 15.5537 7.2992 14.9137 7.2992H8.4337C7.7337 7.2992 7.3037 7.6192 7.3037 8.4192V14.8792C7.3037 15.4992 7.6937 15.9692 8.3037 15.9692Z"
        fillRule="evenodd"
        clipRule="evenodd"
    />
</svg>
        