
<svg
    viewBox="0 0 31.9921875 25.698078337011573"
    xmlns="http://www.w3.org/2000/svg"
>
    <path
        fill="inherit"
        d="M7.2837 0.409L0.3837 7.449C0.1537 7.699 0.0037 8.049 0.0037 8.349C0.0037 9.079 0.4937 9.569 1.2037 9.569C1.5537 9.569 1.8337 9.449 2.0637 9.219L4.9037 6.279L7.1137 3.729L6.9737 6.889V24.459C6.9737 25.179 7.4737 25.689 8.2037 25.689C8.9137 25.689 9.4237 25.179 9.4237 24.459V6.889L9.2937 3.729L11.4837 6.279L14.3437 9.219C14.5737 9.449 14.8337 9.569 15.1937 9.569C15.9037 9.569 16.3937 9.079 16.3937 8.349C16.3937 8.049 16.2537 7.699 16.0137 7.449L9.1237 0.409C8.6137 -0.121 7.8037 -0.151 7.2837 0.409ZM24.7237 25.289L31.6137 18.229C31.8537 17.989 31.9937 17.639 31.9937 17.319C31.9937 16.599 31.5037 16.119 30.7937 16.119C30.4337 16.119 30.1737 16.229 29.9437 16.459L27.0937 19.399L24.8937 21.959L25.0237 18.799V1.229C25.0237 0.519 24.5137 -0.001 23.8037 -0.001C23.0737 -0.001 22.5737 0.519 22.5737 1.229V18.799L22.7137 21.959L20.5037 19.399L17.6637 16.459C17.4337 16.229 17.1537 16.119 16.8137 16.119C16.1037 16.119 15.6037 16.599 15.6037 17.319C15.6037 17.639 15.7537 17.989 15.9937 18.229L22.8837 25.289C23.3937 25.829 24.1837 25.839 24.7237 25.289Z"
        fillRule="evenodd"
        clipRule="evenodd"
    />
</svg>
        