
<svg
    viewBox={0 0 25.169921875 25.169921875}
    xmlns="http://www.w3.org/2000/svg"
>
    <path
        fill="inherit"
        d="M4.2937 25.1692H20.8737C23.7437 25.1692 25.1737 23.7592 25.1737 20.9492V4.2392C25.1737 1.4192 23.7437 -0.0008 20.8737 -0.0008H4.2937C1.4337 -0.0008 0.0037 1.4192 0.0037 4.2392V20.9492C0.0037 23.7592 1.4337 25.1692 4.2937 25.1692ZM4.3237 22.9692C2.9537 22.9692 2.2037 22.2392 2.2037 20.8192V4.3592C2.2037 2.9392 2.9537 2.1992 4.3237 2.1992H20.8537C22.2037 2.1992 22.9737 2.9392 22.9737 4.3592V20.8192C22.9737 22.2392 22.2037 22.9692 20.8537 22.9692ZM6.4937 13.2092C6.4937 16.6292 9.2137 19.3592 12.5937 19.3592C15.9737 19.3592 18.6937 16.6292 18.6937 13.2492C18.6937 12.7392 18.2537 12.3192 17.7437 12.3192C17.2437 12.3192 16.8037 12.7392 16.8037 13.2492C16.8037 15.5892 14.9337 17.4692 12.5937 17.4692C10.2537 17.4692 8.3837 15.5992 8.3837 13.2492C8.3837 10.9092 10.2537 9.0392 12.5937 9.0392C12.7737 9.0392 12.9637 9.0492 13.0937 9.0792L11.7537 10.3792C11.5937 10.5592 11.4937 10.7592 11.4937 11.0192C11.4937 11.4992 11.8837 11.8692 12.3637 11.8692C12.5937 11.8692 12.8137 11.7592 12.9637 11.6192L15.6137 8.9692C15.9537 8.6392 15.9237 8.0292 15.6137 7.6992L12.9837 5.0292C12.8337 4.8692 12.6037 4.7592 12.3637 4.7592C11.8837 4.7592 11.4937 5.1392 11.4937 5.6292C11.4937 5.8692 11.5937 6.0992 11.7437 6.2492L12.7137 7.2292C12.6037 7.2292 12.4537 7.2092 12.3337 7.2092C9.2537 7.2092 6.4937 9.8392 6.4937 13.2092Z"
        fillRule="evenodd"
        clipRule="evenodd"
    />
</svg>
        