
<svg
    viewBox="0 0 27.890625 27.890625"
    xmlns="http://www.w3.org/2000/svg"
>
    <path
        fill="inherit"
        d="M13.9427 27.8864C21.6427 27.8864 27.8927 21.6264 27.8927 13.9464C27.8927 6.2464 21.6427 -0.0036 13.9427 -0.0036C6.2627 -0.0036 0.0027 6.2464 0.0027 13.9464C0.0027 21.6264 6.2627 27.8864 13.9427 27.8864ZM20.1627 13.7664H15.2827C14.5427 13.7664 14.1127 13.4364 14.1127 12.5964V7.6864C14.1127 7.1264 14.5627 6.6864 15.1227 6.6864C15.6727 6.6864 16.1027 7.1264 16.1027 7.6864V8.3664L15.9727 10.5964L19.6427 6.7764C20.0527 6.3464 20.7227 6.3464 21.1327 6.7664C21.5627 7.1764 21.5327 7.8464 21.1227 8.2764L17.3227 11.9064L19.4827 11.7764H20.1627C20.7227 11.7764 21.1827 12.2064 21.1827 12.7564C21.1827 13.3164 20.7227 13.7664 20.1627 13.7664ZM12.7727 21.1864C12.2227 21.1864 11.7827 20.7564 11.7827 20.1964V19.5064L11.9227 17.2764L8.2427 21.0964C7.8327 21.5364 7.1627 21.5364 6.7527 21.1064C6.3327 20.6964 6.3527 20.0164 6.7627 19.6064L10.5727 15.9664L8.4127 16.1064H7.7227C7.1627 16.1064 6.7127 15.6664 6.7127 15.1164C6.7127 14.5464 7.1627 14.1064 7.7227 14.1064H12.6027C13.3427 14.1064 13.7827 14.4364 13.7827 15.2764V20.1964C13.7827 20.7564 13.3327 21.1864 12.7727 21.1864Z"
        fillRule="evenodd"
        clipRule="evenodd"
    />
</svg>
        