
<svg
    viewBox="0 0 25.2109375 25.2109375"
    xmlns="http://www.w3.org/2000/svg"
>
    <path
        fill="inherit"
        d="M23.6137 1.6166C22.2137 0.2166 20.2437 -0.0034 17.9137 -0.0034H7.2637C4.9637 -0.0034 2.9937 0.2166 1.6037 1.6166C0.2037 3.0066 0.0037 4.9666 0.0037 7.2566V17.9066C0.0037 20.2466 0.2037 22.2066 1.6037 23.5966C2.9937 24.9966 4.9637 25.2066 7.2837 25.2066H17.9137C20.2437 25.2066 22.2137 24.9966 23.6137 23.5966C25.0037 22.2066 25.2137 20.2466 25.2137 17.9066V7.2866C25.2137 4.9466 25.0037 3.0066 23.6137 1.6166ZM12.5937 19.7166C12.3037 19.7166 12.0737 19.6366 11.7837 19.3466L7.1337 14.8566C6.9137 14.6566 6.7937 14.4066 6.7937 14.1066C6.7937 13.5366 7.2237 13.1266 7.8037 13.1266C8.0837 13.1266 8.3937 13.2366 8.5837 13.4666L10.7437 15.7366L11.5537 16.6066L11.4737 14.4966V6.5866C11.4737 5.9866 11.9737 5.4966 12.5937 5.4966C13.2037 5.4966 13.7237 5.9866 13.7237 6.5866V14.4966L13.6437 16.6066L14.4537 15.7366L16.5937 13.4666C16.7937 13.2366 17.0937 13.1266 17.3737 13.1266C17.9537 13.1266 18.3937 13.5366 18.3937 14.1066C18.3937 14.4066 18.2837 14.6566 18.0637 14.8566L13.4137 19.3466C13.1237 19.6366 12.8937 19.7166 12.5937 19.7166Z"
        fillRule="evenodd"
        clipRule="evenodd"
    />
</svg>
        