<svg viewBox="0 0 33.578125 26.072265625" xmlns="http://www.w3.org/2000/svg"><path d="M4.2937 26.0679H29.2837C32.1337 26.0679 33.5737 24.6479 33.5737 21.8379V7.5179C33.5737 4.7079 32.1337 3.2979 29.2837 3.2979H25.3737C24.2937 3.2979 23.9637 3.0779 23.3537 2.3879L22.2537 1.1579C21.5737 0.4079 20.8737 -0.0021 19.4737 -0.0021H14.0137C12.6037 -0.0021 11.9037 0.4079 11.2237 1.1579L10.1337 2.3879C9.5137 3.0579 9.1737 3.2979 8.1037 3.2979H4.2937C1.4337 3.2979 0.0037 4.7079 0.0037 7.5179V21.8379C0.0037 24.6479 1.4337 26.0679 4.2937 26.0679ZM4.3237 23.8679C2.9837 23.8679 2.2037 23.1479 2.2037 21.7279V7.6379C2.2037 6.2179 2.9837 5.4979 4.3237 5.4979H8.6537C9.8837 5.4979 10.5537 5.2679 11.2337 4.4979L12.3037 3.2979C13.0837 2.4179 13.4937 2.1979 14.6937 2.1979H18.7837C19.9837 2.1979 20.3937 2.4179 21.1737 3.2979L22.2437 4.4979C22.9237 5.2679 23.5937 5.4979 24.8237 5.4979H29.2437C30.5937 5.4979 31.3737 6.2179 31.3737 7.6379V21.7279C31.3737 23.1479 30.5937 23.8679 29.2437 23.8679ZM12.0037 9.6479C12.4537 10.1479 13.0537 10.0779 13.5737 9.6779C14.5337 8.9179 15.5037 8.5279 16.7937 8.5279C19.4237 8.5279 21.6137 10.3079 22.2137 12.6579H20.7237C20.1237 12.6579 19.9737 13.2479 20.3137 13.7079L22.4637 16.7079C22.8137 17.1979 23.4337 17.2379 23.8137 16.7079L25.9337 13.7079C26.2637 13.2379 26.1437 12.6579 25.5237 12.6579H24.2037C23.5437 8.9779 20.5637 6.4379 16.7937 6.4379C15.1337 6.4379 13.4637 7.0279 12.3137 7.9879C11.6937 8.4779 11.5237 9.1579 12.0037 9.6479ZM7.5837 14.0179C7.2637 14.4879 7.3837 15.0679 7.9937 15.0679H9.3937C10.0537 18.7479 13.0337 21.2879 16.8137 21.2879C18.4737 21.2879 20.1237 20.7079 21.2837 19.7579C21.9137 19.2679 22.0837 18.5679 21.6037 18.0779C21.1337 17.5779 20.5537 17.6679 20.0137 18.0479C19.0537 18.7979 18.1037 19.2079 16.8137 19.2079C14.1737 19.2079 11.9737 17.4279 11.3737 15.0679H12.7837C13.3937 15.0679 13.5537 14.4879 13.2037 14.0179L11.0437 11.0379C10.7037 10.5379 10.0937 10.4979 9.7037 11.0379Z" /></svg>