
<svg
    viewBox="0 0 20.822265625 24.103515625"
    xmlns="http://www.w3.org/2000/svg"
>
    <path
        fill="inherit"
        d="M1.1737 21.656C0.4737 21.656 0.0037 22.166 0.0037 22.876C0.0037 23.586 0.4737 24.106 1.1737 24.106H19.6237C20.3337 24.106 20.8237 23.586 20.8237 22.876C20.8237 22.166 20.3337 21.656 19.6237 21.656H10.6937C10.9237 21.586 11.1437 21.466 11.3337 21.256L20.3737 12.206C20.6437 11.926 20.7837 11.626 20.7837 11.296C20.7837 10.606 20.2737 10.086 19.5937 10.086C19.2637 10.086 18.9337 10.216 18.7137 10.436L15.6537 13.456L11.5437 17.956L11.6337 15.026V1.216C11.6337 0.506 11.1337 -0.004 10.4137 -0.004C9.6937 -0.004 9.1837 0.506 9.1837 1.216V15.026L9.2937 17.966L5.1837 13.456L2.1237 10.436C1.8837 10.216 1.5737 10.086 1.2437 10.086C0.5437 10.086 0.0537 10.606 0.0537 11.296C0.0537 11.626 0.1937 11.926 0.4537 12.206L9.5037 21.256C9.6837 21.466 9.8937 21.586 10.1337 21.656Z"
        fillRule="evenodd"
        clipRule="evenodd"
    />
</svg>
        