<svg viewBox="0 0 20.193359375 20.1796875" xmlns="http://www.w3.org/2000/svg"><path d="M20.1937 5.1136C20.1937 4.3636 19.6037 3.8136 18.9537 3.8136C18.2837 3.8136 17.7237 4.4036 17.7237 5.0536V10.1036L17.9637 16.4836L15.7137 13.9436L2.1337 0.3736C1.8837 0.1236 1.5837 0.0036 1.2737 0.0036C0.5837 0.0036 0.0037 0.6336 0.0037 1.2836C0.0037 1.5736 0.1337 1.9036 0.3837 2.1436L13.9337 15.7136L16.4737 17.9536L9.8037 17.7336H5.0437C4.4037 17.7336 3.8137 18.2936 3.8137 18.9536C3.8137 19.6036 4.3337 20.1836 5.1037 20.1836H18.8537C19.6737 20.1836 20.1837 19.6436 20.1837 18.8636Z" /></svg>