
<svg
    viewBox="0 0 27.890625 27.890625"
    xmlns="http://www.w3.org/2000/svg"
>
    <path
        fill="inherit"
        d="M13.9427 27.8927C21.6427 27.8927 27.8927 21.6427 27.8927 13.9427C27.8927 6.2627 21.6427 0.0027 13.9427 0.0027C6.2627 0.0027 0.0027 6.2627 0.0027 13.9427C0.0027 21.6427 6.2627 27.8927 13.9427 27.8927ZM20.2327 14.6027C20.2327 18.1327 17.4327 20.9627 13.9427 20.9627C10.4627 20.9627 7.6527 18.1327 7.6527 14.6527C7.6527 14.1227 8.1027 13.6827 8.6227 13.6827C9.1727 13.6827 9.6127 14.1227 9.6127 14.6527C9.6127 17.0627 11.5427 19.0027 13.9427 19.0027C16.3627 19.0027 18.2827 17.0627 18.2827 14.6527C18.2827 12.2327 16.3627 10.3127 13.9427 10.3127C13.7627 10.3127 13.5927 10.3227 13.4527 10.3527L14.8027 11.6927C14.9727 11.8627 15.0827 12.0827 15.0827 12.3327C15.0827 12.8427 14.6927 13.2327 14.1827 13.2327C13.9627 13.2327 13.7127 13.1127 13.5627 12.9627L10.8327 10.2427C10.4827 9.9027 10.5027 9.2727 10.8327 8.9227L13.5327 6.1827C13.7027 6.0027 13.9327 5.8827 14.1827 5.8827C14.6927 5.8827 15.0827 6.2927 15.0827 6.7927C15.0827 7.0427 14.9727 7.2827 14.8327 7.4327L13.8527 8.4527C13.9427 8.4327 14.0927 8.4227 14.2227 8.4227C17.3927 8.4227 20.2327 11.1427 20.2327 14.6027Z"
        fillRule="evenodd"
        clipRule="evenodd"
    />
</svg>
        