
<svg
    viewBox={0 0 22.99609375 29.3125}
    xmlns="http://www.w3.org/2000/svg"
>
    <path
        fill="inherit"
        d="M4.2337 29.3173H18.7537C21.5837 29.3173 22.9937 27.8773 22.9937 25.0373V12.6173C22.9937 10.8573 22.7937 10.0873 21.6937 8.9673L14.1637 1.2973C13.1237 0.2373 12.2637 -0.0027 10.7337 -0.0027H4.2337C1.4237 -0.0027 0.0037 1.4473 0.0037 4.2973V25.0373C0.0037 27.8873 1.4037 29.3173 4.2337 29.3173ZM4.3337 27.1073C2.9237 27.1073 2.2037 26.3573 2.2037 24.9873V4.3373C2.2037 2.9773 2.9237 2.1973 4.3437 2.1973H10.4337V10.1473C10.4337 11.8673 11.2937 12.7173 13.0037 12.7173H20.7937V24.9873C20.7937 26.3573 20.0737 27.1073 18.6437 27.1073ZM13.2437 10.6473C12.7037 10.6473 12.4937 10.4273 12.4937 9.8873V2.6273L20.3737 10.6473ZM12.5337 15.2973C12.5337 14.7373 12.0537 14.2873 11.4937 14.2873C10.9337 14.2873 10.4637 14.7373 10.4637 15.2973V20.2573L10.5437 22.4873L9.3837 21.2873L8.1437 20.0273C7.9537 19.8273 7.6737 19.7173 7.4137 19.7173C6.8537 19.7173 6.4537 20.1073 6.4537 20.6573C6.4537 20.9773 6.5737 21.2073 6.7937 21.3973L10.7337 25.0173C11.0237 25.2773 11.2337 25.3773 11.4937 25.3773C11.7537 25.3773 11.9737 25.2773 12.2637 25.0173L16.2037 21.3973C16.4237 21.2073 16.5437 20.9773 16.5437 20.6573C16.5437 20.1073 16.1337 19.7173 15.5837 19.7173C15.3137 19.7173 15.0437 19.8273 14.8437 20.0273L13.6137 21.2873L12.4537 22.4873L12.5337 20.2573Z"
        fillRule="evenodd"
        clipRule="evenodd"
    />
</svg>
        