
<svg
    viewBox={0 0 25.498046875 32.56640625}
    xmlns="http://www.w3.org/2000/svg"
>
    <path
        fill="inherit"
        d="M12.7537 13.6404C13.4637 13.6404 13.9737 13.1504 13.9737 12.4304V6.6604L13.8937 3.8304L17.5137 7.7004C17.7437 7.9604 18.0637 8.0404 18.3937 8.0404C19.0737 8.0404 19.5737 7.5204 19.5737 6.8504C19.5737 6.5104 19.4437 6.2204 19.1637 5.9304L13.6737 0.4104C13.4137 0.1404 13.0837 0.0004 12.7537 0.0004C12.4137 0.0004 12.1037 0.1404 11.8437 0.4104L6.3437 5.9304C6.0737 6.2204 5.9337 6.5104 5.9337 6.8504C5.9337 7.5204 6.4437 8.0404 7.1237 8.0404C7.4537 8.0404 7.7637 7.9604 7.9937 7.7004L11.6237 3.8304L11.5237 6.6604V12.4304C11.5237 13.1504 12.0437 13.6404 12.7537 13.6404ZM0.0037 16.2804C0.0037 16.9904 0.4937 17.5004 1.2037 17.5004H24.3037C25.0037 17.5004 25.4937 16.9904 25.4937 16.2804C25.4937 15.5704 25.0037 15.0504 24.3037 15.0504H1.2037C0.4937 15.0504 0.0037 15.5704 0.0037 16.2804ZM12.7537 18.9104C12.0437 18.9104 11.5237 19.4004 11.5237 20.1204V25.9104L11.6237 28.7204L7.9937 24.8604C7.7637 24.6104 7.4537 24.5104 7.1237 24.5104C6.4437 24.5104 5.9337 25.0304 5.9337 25.7004C5.9337 26.0404 6.0737 26.3504 6.3437 26.6304L11.8437 32.1404C12.1037 32.4204 12.4137 32.5704 12.7537 32.5704C13.0837 32.5704 13.4137 32.4204 13.6737 32.1404L19.1637 26.6304C19.4437 26.3504 19.5737 26.0404 19.5737 25.7004C19.5737 25.0304 19.0737 24.5104 18.3937 24.5104C18.0637 24.5104 17.7437 24.6104 17.5137 24.8604L13.8937 28.7204L13.9737 25.9104V20.1204C13.9737 19.4004 13.4637 18.9104 12.7537 18.9104Z"
        fillRule="evenodd"
        clipRule="evenodd"
    />
</svg>
        