
<svg
    viewBox="0 0 27.890625 27.890625"
    xmlns="http://www.w3.org/2000/svg"
>
    <path
        fill="inherit"
        d="M13.9427 27.8864C21.6427 27.8864 27.8927 21.6464 27.8927 13.9464C27.8927 6.2464 21.6427 -0.0036 13.9427 -0.0036C6.2527 -0.0036 0.0027 6.2464 0.0027 13.9464C0.0027 21.6464 6.2527 27.8864 13.9427 27.8864ZM13.9427 25.5664C7.5227 25.5664 2.3227 20.3664 2.3227 13.9464C2.3227 7.5164 7.5227 2.3264 13.9427 2.3264C20.3727 2.3264 25.5627 7.5164 25.5627 13.9464C25.5627 20.3664 20.3727 25.5664 13.9427 25.5664ZM19.8427 13.9364C20.3727 13.9364 20.8127 13.5064 20.8127 12.9764V8.2164C20.8127 7.3964 20.3827 7.0864 19.6727 7.0864H14.9427C14.4127 7.0864 13.9727 7.5164 13.9727 8.0564C13.9727 8.5864 14.4127 9.0064 14.9427 9.0064H15.6127L17.7027 8.8764L14.6127 11.8164C14.2227 12.1964 14.2027 12.8664 14.6027 13.2664C15.0127 13.6764 15.6527 13.6864 16.0627 13.2464L19.0127 10.1464L18.8827 12.3064V12.9764C18.8827 13.5064 19.3027 13.9364 19.8427 13.9364ZM12.9327 20.8364C13.4627 20.8364 13.8927 20.3964 13.8927 19.8664C13.8927 19.3364 13.4627 18.9064 12.9327 18.9064H12.2627L10.1727 19.0464L13.2527 16.1064C13.6427 15.7264 13.6627 15.0564 13.2627 14.6564C12.8627 14.2464 12.2127 14.2364 11.8127 14.6664L8.8427 17.7764L8.9927 15.6164V14.9464C8.9927 14.4064 8.5627 13.9864 8.0227 13.9864C7.4927 13.9864 7.0727 14.4064 7.0727 14.9464V19.6964C7.0727 20.5264 7.4827 20.8364 8.1927 20.8364Z"
        fillRule="evenodd"
        clipRule="evenodd"
    />
</svg>
        