
<svg
    viewBox={0 0 32.23828125 25.169921875}
    xmlns="http://www.w3.org/2000/svg"
>
    <path
        fill="inherit"
        d="M4.2937 25.1692H27.9437C30.8137 25.1692 32.2337 23.7592 32.2337 20.9492V4.2392C32.2337 1.4192 30.8137 -0.0008 27.9437 -0.0008H4.2937C1.4337 -0.0008 0.0037 1.4192 0.0037 4.2392V20.9492C0.0037 23.7592 1.4337 25.1692 4.2937 25.1692ZM4.3237 22.9692C2.9537 22.9692 2.2037 22.2392 2.2037 20.8192V4.3592C2.2037 2.9392 2.9537 2.1992 4.3237 2.1992H27.9137C29.2737 2.1992 30.0337 2.9392 30.0337 4.3592V20.8192C30.0337 22.2392 29.2737 22.9692 27.9137 22.9692ZM23.8537 11.7592C24.4337 11.7592 24.8237 11.3092 24.8237 10.7092V5.3192C24.8237 4.5692 24.3937 4.2392 23.7337 4.2392H18.3037C17.7237 4.2392 17.2937 4.6392 17.2937 5.2092C17.2937 5.7792 17.7237 6.1692 18.3337 6.1692H20.1137L21.8037 5.9992L19.9737 7.6792L17.1437 10.5292C16.9637 10.7092 16.8337 10.9692 16.8337 11.2292C16.8337 11.8092 17.2437 12.2092 17.8037 12.2092C18.1137 12.2092 18.3437 12.0992 18.5537 11.9092L21.3737 9.0792L23.0637 7.2892L22.9037 9.0792V10.7292C22.9037 11.3292 23.2837 11.7592 23.8537 11.7592ZM8.3837 13.4292C7.8037 13.4292 7.4237 13.8592 7.4237 14.4692V19.8692C7.4237 20.6192 7.8437 20.9292 8.5037 20.9292H13.9437C14.5337 20.9292 14.9437 20.5492 14.9437 19.9792C14.9437 19.3992 14.5337 18.9992 13.9137 18.9992H12.1237L10.4437 19.1792L12.2637 17.4992L15.0937 14.6592C15.2737 14.4792 15.4037 14.2192 15.4037 13.9592C15.4037 13.3592 15.0137 12.9792 14.4337 12.9792C14.1237 12.9792 13.8937 13.0792 13.7037 13.2792L10.8737 16.0892L9.1737 17.8992L9.3537 16.1092V14.4392C9.3537 13.8392 8.9537 13.4292 8.3837 13.4292Z"
        fillRule="evenodd"
        clipRule="evenodd"
    />
</svg>
        