<svg viewBox="0 0 27.890625 27.890625" xmlns="http://www.w3.org/2000/svg"><path d="M13.9427 27.8864C21.6427 27.8864 27.8927 21.6264 27.8927 13.9464C27.8927 6.2464 21.6427 -0.0036 13.9427 -0.0036C6.2627 -0.0036 0.0027 6.2464 0.0027 13.9464C0.0027 21.6264 6.2627 27.8864 13.9427 27.8864ZM6.8327 13.9364C6.8327 13.6264 6.9327 13.3964 7.2227 13.1064L11.7027 8.4664C11.9127 8.2464 12.1427 8.1364 12.4427 8.1364C13.0127 8.1364 13.4427 8.5764 13.4427 9.1564C13.4427 9.4364 13.3327 9.7364 13.0927 9.9264L10.8127 12.0764L9.9527 12.8964L12.0627 12.7964H19.9627C20.5627 12.7964 21.0727 13.3164 21.0727 13.9364C21.0727 14.5464 20.5627 15.0564 19.9627 15.0564H12.0627L9.9427 14.9664L10.8127 15.7864L13.0927 17.9364C13.3327 18.1264 13.4427 18.4464 13.4427 18.7164C13.4427 19.3064 13.0127 19.7264 12.4427 19.7264C12.1427 19.7264 11.9127 19.6164 11.7027 19.3964L7.2227 14.7564C6.9327 14.4664 6.8327 14.2164 6.8327 13.9364Z" /></svg>