<svg viewBox="0 0 32.23828125 25.169921875" xmlns="http://www.w3.org/2000/svg"><path d="M4.2937 25.1692H27.9437C30.8137 25.1692 32.2337 23.7592 32.2337 20.9492V4.2392C32.2337 1.4192 30.8137 -0.0008 27.9437 -0.0008H4.2937C1.4337 -0.0008 0.0037 1.4192 0.0037 4.2392V20.9492C0.0037 23.7592 1.4337 25.1692 4.2937 25.1692ZM4.3237 22.9692C2.9537 22.9692 2.2037 22.2392 2.2037 20.8192V4.3592C2.2037 2.9392 2.9537 2.1992 4.3237 2.1992H27.9137C29.2737 2.1992 30.0337 2.9392 30.0337 4.3592V20.8192C30.0337 22.2392 29.2737 22.9692 27.9137 22.9692ZM12.9637 5.4692C12.3637 5.4692 11.9637 5.8792 11.9637 6.5392V8.7092L12.1637 10.8392L10.2037 8.7392L6.0737 4.6092C5.8837 4.4192 5.6337 4.2892 5.3037 4.2892C4.6937 4.2892 4.2937 4.6992 4.2937 5.3192C4.2937 5.5892 4.4337 5.8492 4.6237 6.0392L8.7537 10.1692L10.8837 12.1692L8.8637 11.9492H6.5637C5.9037 11.9492 5.4837 12.3492 5.4837 12.9492C5.4837 13.5492 5.8937 13.9492 6.5337 13.9492H12.8237C13.5237 13.9492 13.9737 13.6292 13.9737 12.8092V6.5592C13.9737 5.9192 13.5637 5.4692 12.9637 5.4692Z" /></svg>