<svg viewBox="0 0 49.150390625 32.07421875" xmlns="http://www.w3.org/2000/svg"><path d="M19.7137 14.9882H29.4237C30.9137 14.9882 32.0737 13.8382 32.0737 12.3282V2.6682C32.0737 1.1582 30.9137 -0.0018 29.4237 -0.0018H19.7137C18.2237 -0.0018 17.0937 1.1582 17.0937 2.6682V12.3282C17.0937 13.8382 18.2237 14.9882 19.7137 14.9882ZM21.4137 10.9282C20.8237 10.9282 20.4537 10.2282 20.7937 9.6682L23.8537 4.4282C24.1537 3.9082 24.9637 3.8982 25.2637 4.4182L28.3737 9.6682C28.6937 10.2282 28.3237 10.9282 27.7537 10.9282ZM2.6237 32.0782H12.3337C13.8237 32.0782 14.9837 30.9082 14.9837 29.4082V19.7582C14.9837 18.2482 13.8237 17.0782 12.3337 17.0782H2.6237C1.1337 17.0782 0.0037 18.2482 0.0037 19.7582V29.4082C0.0037 30.9082 1.1337 32.0782 2.6237 32.0782ZM19.7137 32.0782H29.4237C30.9137 32.0782 32.0737 30.9082 32.0737 29.4082V19.7582C32.0737 18.2482 30.9137 17.0782 29.4237 17.0782H19.7137C18.2237 17.0782 17.0937 18.2482 17.0937 19.7582V29.4082C17.0937 30.9082 18.2237 32.0782 19.7137 32.0782ZM36.8137 32.0782H46.5237C48.0137 32.0782 49.1537 30.9082 49.1537 29.4082V19.7582C49.1537 18.2482 48.0137 17.0782 46.5237 17.0782H36.8137C35.3237 17.0782 34.1637 18.2482 34.1637 19.7582V29.4082C34.1637 30.9082 35.3237 32.0782 36.8137 32.0782ZM10.3737 27.7382C10.3737 28.3282 9.6837 28.6982 9.1237 28.3682L3.8837 25.2882C3.3537 24.9882 3.3337 24.1882 3.8737 23.8882L9.1237 20.7782C9.6837 20.4482 10.3737 20.8182 10.3737 21.3982ZM38.7737 27.7382V21.3982C38.7737 20.8182 39.4737 20.4482 40.0437 20.7782L45.2937 23.8882C45.8137 24.1882 45.8037 24.9882 45.2837 25.2882L40.0437 28.3682C39.4737 28.6982 38.7737 28.3282 38.7737 27.7382ZM23.8537 27.6482L20.7937 22.4082C20.4637 21.8382 20.8237 21.1482 21.4237 21.1482H27.7537C28.3237 21.1482 28.6937 21.8482 28.3737 22.4082L25.2637 27.6582C24.9637 28.1782 24.1537 28.1682 23.8537 27.6482Z" /></svg>