
<svg
    viewBox="0 0 21.341796875 25.826171875"
    xmlns="http://www.w3.org/2000/svg"
>
    <path
        fill="inherit"
        d="M2.8837 25.8273C9.2137 25.8273 12.1937 23.3073 12.1937 16.9573V7.4773L12.0837 3.7773L14.8037 6.7673L19.2937 11.2473C19.5137 11.4673 19.8337 11.5773 20.1537 11.5773C20.8337 11.5773 21.3437 11.0573 21.3437 10.3873C21.3437 10.0673 21.2237 9.7773 20.9637 9.4973L11.8837 0.4073C11.6237 0.1373 11.3037 -0.0027 10.9637 -0.0027C10.6337 -0.0027 10.3237 0.1373 10.0637 0.4073L0.9837 9.4973C0.7237 9.7773 0.6037 10.0673 0.6037 10.3873C0.6037 11.0573 1.1037 11.5773 1.7737 11.5773C2.1037 11.5773 2.4337 11.4673 2.6537 11.2473L7.1237 6.7673L9.8737 3.7573L9.7437 7.4773L9.7637 16.8273C9.7737 21.7773 7.6337 23.4373 2.7637 23.4373C2.1337 23.4373 1.6837 23.4073 1.2137 23.4073C0.5037 23.4073 0.0037 23.8573 0.0037 24.5673C0.0037 25.2673 0.4737 25.6073 1.0237 25.7273C1.4337 25.8173 2.1037 25.8273 2.8837 25.8273Z"
        fillRule="evenodd"
        clipRule="evenodd"
    />
</svg>
        