
<svg
    viewBox="0 0 32.798828125 25.169921875"
    xmlns="http://www.w3.org/2000/svg"
>
    <path
        fill="inherit"
        d="M9.2137 25.1655H23.5737C26.2637 25.1655 27.4537 23.9155 27.8637 21.2355L29.8837 7.5155H30.2037C31.8837 7.5155 32.8037 6.4655 32.8037 4.7955V2.7255C32.8037 1.0555 31.8837 -0.0045 30.2037 -0.0045H2.5937C0.9937 -0.0045 0.0037 1.0555 0.0037 2.7255V4.7955C0.0037 6.4655 0.9137 7.5155 2.5937 7.5155H2.8937L4.9337 21.2355C5.3337 23.9255 6.5337 25.1655 9.2137 25.1655ZM3.1537 5.4555C2.4737 5.4555 2.2037 5.1655 2.2037 4.4855V3.0355C2.2037 2.3555 2.4737 2.0655 3.1537 2.0655H29.6537C30.3337 2.0655 30.5937 2.3555 30.5937 3.0355V4.4855C30.5937 5.1655 30.3337 5.4555 29.6537 5.4555ZM9.2537 23.1055C8.0237 23.1055 7.3137 22.5555 7.1237 21.2055L5.0837 7.5155H27.7137L25.6737 21.2055C25.4737 22.5555 24.7437 23.1055 23.5437 23.1055ZM17.4837 19.6155V14.6955L17.3937 12.4855L18.5537 13.6755L19.7537 14.9055C19.9437 15.0955 20.2037 15.2055 20.4837 15.2055C21.0237 15.2055 21.4537 14.8155 21.4537 14.2755C21.4537 13.9555 21.3137 13.7255 21.0937 13.5355L17.2037 9.9355C16.9137 9.6755 16.7037 9.5855 16.4337 9.5855C16.1737 9.5855 15.9537 9.6755 15.6637 9.9355L11.7737 13.5355C11.5537 13.7255 11.4337 13.9555 11.4337 14.2755C11.4337 14.8155 11.8437 15.2055 12.4037 15.2055C12.6437 15.2055 12.9337 15.0955 13.1237 14.9055L14.3137 13.6755L15.4737 12.4855L15.3937 14.6955V19.6155C15.3937 20.1755 15.8737 20.6455 16.4337 20.6455C16.9937 20.6455 17.4837 20.1755 17.4837 19.6155Z"
        fillRule="evenodd"
        clipRule="evenodd"
    />
</svg>
        