
<svg
    viewBox="0 0 21.341796875 25.826171875"
    xmlns="http://www.w3.org/2000/svg"
>
    <path
        fill="inherit"
        d="M18.4437 -0.0027C12.1237 -0.0027 9.1437 2.5173 9.1437 8.8773V18.3473L9.2437 22.0573L6.5237 19.0573L2.0337 14.5773C1.8337 14.3573 1.5037 14.2473 1.1737 14.2473C0.4937 14.2473 0.0037 14.7673 0.0037 15.4373C0.0037 15.7673 0.1237 16.0473 0.3837 16.3273L9.4437 25.4173C9.7037 25.6873 10.0237 25.8273 10.3637 25.8273C10.7037 25.8273 11.0237 25.6873 11.2837 25.4173L20.3537 16.3273C20.6137 16.0473 20.7237 15.7673 20.7237 15.4373C20.7237 14.7673 20.2337 14.2473 19.5537 14.2473C19.2237 14.2473 18.9037 14.3573 18.6937 14.5773L14.2037 19.0573L11.4737 22.0673L11.5837 18.3473L11.5637 8.9973C11.5537 4.0473 13.7137 2.3973 18.5637 2.3973C19.2137 2.3973 19.6437 2.4173 20.1237 2.4173C20.8237 2.4173 21.3437 1.9673 21.3437 1.2573C21.3437 0.5573 20.8537 0.2073 20.3137 0.0973C19.8937 0.0273 19.2337 -0.0027 18.4437 -0.0027Z"
        fillRule="evenodd"
        clipRule="evenodd"
    />
</svg>
        