
<svg
    viewBox={0 0 32.23828125 28.185649802418432}
    xmlns="http://www.w3.org/2000/svg"
>
    <path
        fill="inherit"
        d="M0.0037 23.9513C0.0037 26.7813 1.4337 28.1813 4.2937 28.1813H27.9437C30.8137 28.1813 32.2337 26.7613 32.2337 23.9513V7.2513C32.2337 4.4413 30.8137 3.0113 27.9437 3.0113H18.3737C17.7737 3.0113 17.2637 3.5113 17.2637 4.1113C17.2637 4.7113 17.7737 5.2213 18.3737 5.2213H27.9137C29.2737 5.2213 30.0337 5.9413 30.0337 7.3613V23.8413C30.0337 25.2613 29.2737 25.9813 27.9137 25.9813H4.3237C2.9537 25.9813 2.2037 25.2613 2.2037 23.8413V7.3613C2.2037 5.9413 2.9537 5.2213 4.3237 5.2213H7.7937V7.2413C7.7937 8.2113 8.4637 8.4713 9.2137 7.9413L13.5737 4.8713C14.1937 4.4413 14.2037 3.7813 13.5737 3.3413L9.2237 0.2813C8.4637 -0.2687 7.7937 -0.0087 7.7937 0.9813V3.0113H4.2937C1.4337 3.0113 0.0037 4.4213 0.0037 7.2513Z"
        fillRule="evenodd"
        clipRule="evenodd"
    />
</svg>
        