
<svg
    viewBox="0 0 27.890625 27.890625"
    xmlns="http://www.w3.org/2000/svg"
>
    <path
        fill="inherit"
        d="M13.9427 27.8864C21.6427 27.8864 27.8927 21.6464 27.8927 13.9464C27.8927 6.2464 21.6427 -0.0036 13.9427 -0.0036C6.2527 -0.0036 0.0027 6.2464 0.0027 13.9464C0.0027 21.6464 6.2527 27.8864 13.9427 27.8864ZM13.9427 25.5664C7.5227 25.5664 2.3227 20.3664 2.3227 13.9464C2.3227 7.5164 7.5227 2.3264 13.9427 2.3264C20.3727 2.3264 25.5627 7.5164 25.5627 13.9464C25.5627 20.3664 20.3727 25.5664 13.9427 25.5664ZM7.8327 14.5764C7.8327 17.9964 10.5527 20.7264 13.9327 20.7264C17.3127 20.7264 20.0327 17.9964 20.0327 14.6164C20.0327 14.1064 19.5927 13.6864 19.0827 13.6864C18.5827 13.6864 18.1427 14.1064 18.1427 14.6164C18.1427 16.9564 16.2727 18.8364 13.9327 18.8364C11.5927 18.8364 9.7227 16.9664 9.7227 14.6164C9.7227 12.2764 11.5927 10.4064 13.9327 10.4064C14.1127 10.4064 14.3027 10.4164 14.4327 10.4464L13.0927 11.7464C12.9327 11.9264 12.8427 12.1264 12.8427 12.3864C12.8427 12.8664 13.2227 13.2364 13.7027 13.2364C13.9327 13.2364 14.1527 13.1264 14.3027 12.9864L16.9527 10.3364C17.2927 10.0064 17.2627 9.3964 16.9527 9.0664L14.3327 6.3964C14.1827 6.2364 13.9427 6.1264 13.7027 6.1264C13.2027 6.1264 12.8427 6.5064 12.8427 6.9964C12.8427 7.2364 12.9327 7.4664 13.0827 7.6164L14.0527 8.5964C13.9427 8.5964 13.7927 8.5764 13.6727 8.5764C10.5927 8.5764 7.8327 11.2064 7.8327 14.5764Z"
        fillRule="evenodd"
        clipRule="evenodd"
    />
</svg>
        