
<svg
    viewBox="0 0 25.169921875 25.169921875"
    xmlns="http://www.w3.org/2000/svg"
>
    <path
        fill="inherit"
        d="M4.2937 25.1666H20.8737C23.7437 25.1666 25.1737 23.7466 25.1737 20.9366V4.2266C25.1737 1.4066 23.7437 -0.0034 20.8737 -0.0034H4.2937C1.4337 -0.0034 0.0037 1.4066 0.0037 4.2266V20.9366C0.0037 23.7466 1.4337 25.1666 4.2937 25.1666ZM4.3237 22.9666C2.9537 22.9666 2.2037 22.2266 2.2037 20.8066V4.3466C2.2037 2.9266 2.9537 2.1866 4.3237 2.1866H20.8537C22.2037 2.1866 22.9737 2.9266 22.9737 4.3466V20.8066C22.9737 22.2266 22.2037 22.9666 20.8537 22.9666ZM10.6937 19.6066C13.9737 19.6066 15.9737 17.2366 15.9737 14.0566V9.9666L15.9137 8.3566L16.7637 9.4366L18.1437 10.8466C18.3037 11.0366 18.5537 11.1566 18.8437 11.1566C19.4137 11.1566 19.8337 10.7366 19.8337 10.1766C19.8337 9.8866 19.7437 9.6666 19.5337 9.4766L15.8437 5.8366C15.6237 5.6066 15.3437 5.4666 15.0137 5.4666C14.6937 5.4666 14.4137 5.6066 14.1937 5.8366L10.4637 9.4866C10.2637 9.6766 10.1737 9.8966 10.1737 10.1866C10.1737 10.7366 10.6137 11.1566 11.1737 11.1566C11.4337 11.1566 11.6937 11.0566 11.8837 10.8566L13.5237 9.1466L14.1137 8.3566L14.0537 9.9666V14.0566C14.0537 16.0666 12.8937 17.5966 10.8037 17.5966C8.6437 17.5966 7.3037 16.1066 7.3037 14.0366V12.1366C7.3037 11.5566 6.9637 11.0966 6.3337 11.0966C5.7037 11.0966 5.3437 11.5566 5.3437 12.1666V14.0366C5.3437 17.2266 7.3937 19.6066 10.6937 19.6066Z"
        fillRule="evenodd"
        clipRule="evenodd"
    />
</svg>
        