
<svg
    viewBox={0 0 31.006281888857306 31.006281888857306}
    xmlns="http://www.w3.org/2000/svg"
>
    <path
        fill="inherit"
        d="M1.5328 18.5268L12.4828 29.4768C14.5028 31.5068 16.5028 31.5168 18.5128 29.5168L29.5228 18.4968C31.5128 16.5068 31.5028 14.4968 29.4828 12.4668L18.5428 1.5368C16.5128 -0.4932 14.5228 -0.5132 12.5128 1.4968L1.4928 12.4968C-0.5172 14.5068 -0.4872 16.5068 1.5328 18.5268ZM9.3928 19.5068V15.9168C9.3928 13.1768 10.6928 11.8668 13.4428 11.8668H17.3228V10.0668C17.3228 9.1468 18.2628 8.7468 18.9928 9.3168L22.3328 11.8968C23.2028 12.5968 23.2028 13.4268 22.3328 14.1268L18.9928 16.7268C18.2628 17.2868 17.3228 16.8868 17.3228 15.9668V14.1568H13.4728C12.2628 14.1568 11.6628 14.7568 11.6628 16.0268V19.5068C11.6628 20.3168 11.2428 20.7668 10.5328 20.7868C9.7928 20.7968 9.3928 20.3168 9.3928 19.5068Z"
        fillRule="evenodd"
        clipRule="evenodd"
    />
</svg>
        