
<svg
    viewBox="0 0 21.341796875 25.826171875"
    xmlns="http://www.w3.org/2000/svg"
>
    <path
        fill="inherit"
        d="M2.8837 -0.0027C2.1037 -0.0027 1.4337 0.0273 1.0237 0.0973C0.4737 0.2073 0.0037 0.5573 0.0037 1.2573C0.0037 1.9673 0.5037 2.4173 1.2137 2.4173C1.6837 2.4173 2.1337 2.3973 2.7637 2.3973C7.6337 2.3973 9.7737 4.0473 9.7637 8.9973L9.7437 18.3473L9.8737 22.0673L7.1237 19.0573L2.6537 14.5773C2.4337 14.3573 2.1037 14.2473 1.7737 14.2473C1.1037 14.2473 0.6037 14.7673 0.6037 15.4373C0.6037 15.7673 0.7237 16.0473 0.9837 16.3273L10.0637 25.4173C10.3237 25.6873 10.6337 25.8273 10.9637 25.8273C11.3037 25.8273 11.6237 25.6873 11.8837 25.4173L20.9637 16.3273C21.2237 16.0473 21.3437 15.7673 21.3437 15.4373C21.3437 14.7673 20.8337 14.2473 20.1537 14.2473C19.8337 14.2473 19.5137 14.3573 19.2937 14.5773L14.8037 19.0573L12.0837 22.0573L12.1937 18.3473V8.8773C12.1937 2.5173 9.2137 -0.0027 2.8837 -0.0027Z"
        fillRule="evenodd"
        clipRule="evenodd"
    />
</svg>
        