
<svg
    viewBox={0 0 25.169921875 25.169921875}
    xmlns="http://www.w3.org/2000/svg"
>
    <path
        fill="inherit"
        d="M4.2937 25.1692H20.8737C23.7437 25.1692 25.1737 23.7592 25.1737 20.9492V4.2392C25.1737 1.4192 23.7437 -0.0008 20.8737 -0.0008H4.2937C1.4337 -0.0008 0.0037 1.4192 0.0037 4.2392V20.9492C0.0037 23.7592 1.4337 25.1692 4.2937 25.1692ZM7.3037 6.7492C6.7537 6.7492 6.3737 6.3592 6.3737 5.8192C6.3737 5.2492 6.7537 4.8492 7.3037 4.8492H17.8937C18.4437 4.8492 18.8237 5.2492 18.8237 5.8192C18.8237 6.3592 18.4437 6.7492 17.8937 6.7492ZM12.5737 20.6192C12.0037 20.6192 11.6237 20.2092 11.6237 19.6592V13.2092L11.7837 10.6092L9.2137 13.4892L8.4237 14.3692C8.2437 14.5692 8.0237 14.6592 7.7337 14.6592C7.1937 14.6592 6.8237 14.2592 6.8237 13.7092C6.8237 13.4892 6.9337 13.1892 7.1137 13.0192L11.8637 8.1592C12.0737 7.9292 12.3137 7.8292 12.5737 7.8292C12.8537 7.8292 13.0837 7.9592 13.2937 8.1592L18.0637 12.9992C18.2937 13.2192 18.3737 13.4692 18.3737 13.7092C18.3737 14.2292 17.9937 14.6592 17.4737 14.6592C17.2137 14.6592 16.9537 14.5692 16.7737 14.3692L15.9037 13.4792L13.3737 10.6192L13.5237 13.2092V19.6592C13.5237 20.2092 13.1237 20.6192 12.5737 20.6192Z"
        fillRule="evenodd"
        clipRule="evenodd"
    />
</svg>
        