
<svg
    viewBox={0 0 25.169921875 25.169921875}
    xmlns="http://www.w3.org/2000/svg"
>
    <path
        fill="inherit"
        d="M4.2937 25.1692H20.8737C23.7437 25.1692 25.1737 23.7592 25.1737 20.9492V4.2392C25.1737 1.4192 23.7437 -0.0008 20.8737 -0.0008H4.2937C1.4337 -0.0008 0.0037 1.4192 0.0037 4.2392V20.9492C0.0037 23.7592 1.4337 25.1692 4.2937 25.1692ZM4.3237 22.9692C2.9537 22.9692 2.2037 22.2392 2.2037 20.8192V4.3592C2.2037 2.9392 2.9537 2.1992 4.3237 2.1992H20.8537C22.2037 2.1992 22.9737 2.9392 22.9737 4.3592V20.8192C22.9737 22.2392 22.2037 22.9692 20.8537 22.9692ZM19.4937 12.5692C19.4937 12.2792 19.4037 12.0492 19.1237 11.7692L14.7937 7.2592C14.5737 7.0592 14.3537 6.9492 14.0637 6.9492C13.5037 6.9492 13.1137 7.3692 13.1137 7.9392C13.1137 8.1992 13.2237 8.4892 13.4437 8.6792L15.6537 10.7592L16.5037 11.5692L14.4537 11.4692H6.7637C6.1937 11.4692 5.7037 11.9792 5.7037 12.5692C5.7037 13.1492 6.1937 13.6492 6.7637 13.6492H14.4537L16.5037 13.5592L15.6537 14.3692L13.4437 16.4492C13.2237 16.6392 13.1137 16.9392 13.1137 17.1992C13.1137 17.7692 13.5037 18.1792 14.0637 18.1792C14.3537 18.1792 14.5737 18.0692 14.7937 17.8692L19.1237 13.3592C19.4037 13.0792 19.4937 12.8392 19.4937 12.5692Z"
        fillRule="evenodd"
        clipRule="evenodd"
    />
</svg>
        