
<svg
    viewBox="0 0 25.169921875 25.169921875"
    xmlns="http://www.w3.org/2000/svg"
>
    <path
        fill="inherit"
        d="M4.2937 25.1692H20.8737C23.7437 25.1692 25.1737 23.7592 25.1737 20.9492V4.2392C25.1737 1.4192 23.7437 -0.0008 20.8737 -0.0008H4.2937C1.4337 -0.0008 0.0037 1.4192 0.0037 4.2392V20.9492C0.0037 23.7592 1.4337 25.1692 4.2937 25.1692ZM4.3237 22.9692C2.9537 22.9692 2.2037 22.2392 2.2037 20.8192V4.3592C2.2037 2.9392 2.9537 2.1992 4.3237 2.1992H20.8537C22.2037 2.1992 22.9737 2.9392 22.9737 4.3592V20.8192C22.9737 22.2392 22.2037 22.9692 20.8537 22.9692ZM18.8837 18.6092C19.4237 18.6092 19.8137 18.2392 19.8137 17.7092V7.4392C19.8137 6.9092 19.4237 6.5392 18.8837 6.5392C18.3637 6.5392 17.9737 6.9092 17.9737 7.4392V17.7092C17.9737 18.2392 18.3637 18.6092 18.8837 18.6092ZM4.5537 12.5892C4.5537 13.1392 4.9337 13.5092 5.4537 13.5092H11.7337L14.2437 13.3592L11.4737 15.8192L10.5937 16.6292C10.4037 16.7892 10.3237 17.0092 10.3237 17.2792C10.3237 17.8192 10.7037 18.1692 11.2237 18.1692C11.4437 18.1692 11.7337 18.0492 11.9237 17.8692L16.6237 13.2792C16.8337 13.0792 16.9437 12.8392 16.9437 12.5892C16.9437 12.3292 16.8137 12.0992 16.6237 11.8992L11.9037 7.2592C11.7037 7.0592 11.4737 6.9692 11.2237 6.9692C10.7337 6.9692 10.3237 7.3292 10.3237 7.8492C10.3237 8.0892 10.4037 8.3392 10.5937 8.5192L11.4537 9.3692L14.2337 11.8292L11.7337 11.6792H5.4537C4.9337 11.6792 4.5537 12.0592 4.5537 12.5892Z"
        fillRule="evenodd"
        clipRule="evenodd"
    />
</svg>
        