<svg viewBox="0 0 27.890625 27.890625" xmlns="http://www.w3.org/2000/svg"><path d="M13.9427 27.8864C21.6427 27.8864 27.8927 21.6264 27.8927 13.9464C27.8927 6.2464 21.6427 -0.0036 13.9427 -0.0036C6.2627 -0.0036 0.0027 6.2464 0.0027 13.9464C0.0027 21.6264 6.2627 27.8864 13.9427 27.8864ZM7.3427 9.0464L10.8827 5.6164C11.0627 5.4264 11.3227 5.3164 11.5427 5.3164C12.0727 5.3164 12.4527 5.6864 12.4527 6.2164C12.4527 6.4664 12.3627 6.6964 12.1727 6.8764L10.6927 8.3264L10.1327 8.8364L10.7827 8.8164H19.9027C20.4427 8.8164 20.8227 9.1964 20.8227 9.7364C20.8227 10.2564 20.4227 10.6664 19.9027 10.6664H10.7727L10.1127 10.6264L10.6927 11.1664L12.1727 12.6064C12.3627 12.7864 12.4527 13.0064 12.4527 13.2664C12.4527 13.7764 12.0727 14.1464 11.5427 14.1464C11.3227 14.1464 11.0727 14.0364 10.8827 13.8864L7.3427 10.4164C6.9727 10.0664 6.9727 9.4164 7.3427 9.0464ZM20.5227 18.8564L16.9927 22.3264C16.7927 22.5064 16.5427 22.6164 16.3227 22.6164C15.8027 22.6164 15.4227 22.2264 15.4227 21.7064C15.4227 21.4464 15.5327 21.2464 15.7127 21.0564L17.1827 19.6064L17.7727 19.0964L17.0927 19.1164H7.9527C7.4527 19.1164 7.0727 18.7164 7.0727 18.1864C7.0727 17.6464 7.4527 17.2664 7.9527 17.2664H17.1027L17.7727 17.3064L17.1827 16.7664L15.6827 15.3264C15.5027 15.1464 15.4227 14.9264 15.4227 14.6664C15.4227 14.1464 15.7927 13.7764 16.3227 13.7764C16.5527 13.7764 16.8127 13.8864 16.9927 14.0564L20.5227 17.5264C20.8927 17.8964 20.9227 18.4664 20.5227 18.8564Z" /></svg>