<svg viewBox="0 0 25.169921875 25.169921875" xmlns="http://www.w3.org/2000/svg"><path d="M4.2937 25.1692H20.8737C23.7437 25.1692 25.1737 23.7592 25.1737 20.9492V4.2392C25.1737 1.4192 23.7437 -0.0008 20.8737 -0.0008H4.2937C1.4337 -0.0008 0.0037 1.4192 0.0037 4.2392V20.9492C0.0037 23.7592 1.4337 25.1692 4.2937 25.1692ZM4.3237 22.9692C2.9537 22.9692 2.2037 22.2392 2.2037 20.8192V4.3592C2.2037 2.9392 2.9537 2.1992 4.3237 2.1992H20.8537C22.2037 2.1992 22.9737 2.9392 22.9737 4.3592V20.8192C22.9737 22.2392 22.2037 22.9692 20.8537 22.9692ZM19.6637 14.2492C19.6637 10.9692 17.2837 8.9692 14.0937 8.9692H10.0037L8.3937 9.0092L9.4737 8.1592L10.8837 6.7992C11.0737 6.6292 11.1937 6.3692 11.1937 6.0792C11.1937 5.5192 10.7737 5.0992 10.2137 5.0992C9.9237 5.0992 9.7037 5.1792 9.5137 5.3892L5.8837 9.0792C5.6637 9.3092 5.5237 9.5992 5.5237 9.9092C5.5237 10.2392 5.6637 10.5092 5.8837 10.7492L9.5337 14.4692C9.7237 14.6592 9.9437 14.7492 10.2237 14.7492C10.7737 14.7492 11.1937 14.3292 11.1937 13.7492C11.1937 13.5092 11.1037 13.2392 10.8937 13.0592L9.1837 11.4192L8.3937 10.8192L10.0037 10.8792H14.0937C16.1037 10.8792 17.6537 12.0292 17.6537 14.1392C17.6537 16.2992 16.1437 17.6192 14.0837 17.6192H12.1837C11.5937 17.6192 11.1437 17.9692 11.1437 18.6092C11.1437 19.2392 11.5937 19.5792 12.2137 19.5792H14.0837C17.2637 19.5792 19.6637 17.5292 19.6637 14.2492Z" /></svg>