
<svg
    viewBox={0 0 27.890625 27.890625}
    xmlns="http://www.w3.org/2000/svg"
>
    <path
        fill="inherit"
        d="M13.9427 27.8927C21.6427 27.8927 27.8927 21.6427 27.8927 13.9427C27.8927 6.2627 21.6427 0.0027 13.9427 0.0027C6.2627 0.0027 0.0027 6.2627 0.0027 13.9427C0.0027 21.6427 6.2627 27.8927 13.9427 27.8927ZM13.9427 22.2127C13.7027 22.2127 13.4027 22.1227 13.1227 21.8327L7.4127 15.7727C7.0827 15.4127 6.9227 15.1027 6.9227 14.7427C6.9227 14.2027 7.2827 13.8327 7.8227 13.8327H10.9227V7.4627C10.9227 6.3427 11.5527 5.7027 12.6327 5.7027H15.2427C16.3227 5.7027 16.9627 6.3427 16.9627 7.4627V13.8327H20.0427C20.5527 13.8327 20.9727 14.2027 20.9727 14.7627C20.9727 15.1227 20.8127 15.3627 20.4227 15.7727L14.7827 21.8327C14.4927 22.1227 14.2027 22.2127 13.9427 22.2127Z"
        fillRule="evenodd"
        clipRule="evenodd"
    />
</svg>
        