
<svg
    viewBox="0 0 25.169921875 25.169921875"
    xmlns="http://www.w3.org/2000/svg"
>
    <path
        fill="inherit"
        d="M4.2937 25.1692H20.8737C23.7437 25.1692 25.1737 23.7592 25.1737 20.9492V4.2392C25.1737 1.4192 23.7437 -0.0008 20.8737 -0.0008H4.2937C1.4337 -0.0008 0.0037 1.4192 0.0037 4.2392V20.9492C0.0037 23.7592 1.4337 25.1692 4.2937 25.1692ZM12.5737 17.1192C12.3137 17.1192 12.0737 17.0092 11.8637 16.7892L7.1137 11.9192C6.9337 11.7392 6.8237 11.4392 6.8237 11.2092C6.8237 10.6792 7.1937 10.2992 7.7337 10.2992C8.0237 10.2992 8.2437 10.3792 8.4237 10.5692L9.2137 11.4392L11.7837 14.3292L11.6237 11.7392V5.2892C11.6237 4.7292 12.0037 4.3292 12.5737 4.3292C13.1237 4.3292 13.5237 4.7292 13.5237 5.2892V11.7392L13.3737 14.3192L15.9037 11.4592L16.7737 10.5692C16.9537 10.3792 17.2137 10.2992 17.4737 10.2992C17.9937 10.2992 18.3737 10.7092 18.3737 11.2092C18.3737 11.4892 18.2937 11.7292 18.0637 11.9392L13.2937 16.7892C13.0837 16.9792 12.8537 17.1192 12.5737 17.1192ZM7.3037 20.0792C6.7537 20.0792 6.3737 19.6892 6.3737 19.1292C6.3737 18.5892 6.7537 18.1992 7.3037 18.1992H17.8937C18.4437 18.1992 18.8237 18.5892 18.8237 19.1292C18.8237 19.6892 18.4437 20.0792 17.8937 20.0792Z"
        fillRule="evenodd"
        clipRule="evenodd"
    />
</svg>
        