<svg viewBox="0 0 25.169921875 25.169921875" xmlns="http://www.w3.org/2000/svg"><path d="M4.2937 25.1692H20.8737C23.7437 25.1692 25.1737 23.7592 25.1737 20.9492V4.2392C25.1737 1.4192 23.7437 -0.0008 20.8737 -0.0008H4.2937C1.4337 -0.0008 0.0037 1.4192 0.0037 4.2392V20.9492C0.0037 23.7592 1.4337 25.1692 4.2937 25.1692ZM4.3237 22.9692C2.9537 22.9692 2.2037 22.2392 2.2037 20.8192V4.3592C2.2037 2.9392 2.9537 2.1992 4.3237 2.1992H20.8537C22.2037 2.1992 22.9737 2.9392 22.9737 4.3592V20.8192C22.9737 22.2392 22.2037 22.9692 20.8537 22.9692ZM16.8737 9.1892C16.2737 9.1892 15.8737 9.5992 15.8737 10.2492V12.6192L16.0737 14.7492L14.1137 12.6492L9.0737 7.6192C8.8837 7.4192 8.6237 7.2992 8.3037 7.2992C7.6937 7.2992 7.3037 7.6992 7.3037 8.3092C7.3037 8.5892 7.4237 8.8592 7.6137 9.0492L12.6637 14.0792L14.7937 16.0792L12.7737 15.8592H10.2837C9.6237 15.8592 9.2037 16.2592 9.2037 16.8592C9.2037 17.4592 9.6137 17.8592 10.2537 17.8592H16.7337C17.4337 17.8592 17.8837 17.5392 17.8837 16.7392V10.2792C17.8837 9.6392 17.4737 9.1892 16.8737 9.1892Z" /></svg>