
<svg
    viewBox={0 0 27.890625 27.890625}
    xmlns="http://www.w3.org/2000/svg"
>
    <path
        fill="inherit"
        d="M13.9427 27.8864C21.6427 27.8864 27.8927 21.6464 27.8927 13.9464C27.8927 6.2464 21.6427 -0.0036 13.9427 -0.0036C6.2527 -0.0036 0.0027 6.2464 0.0027 13.9464C0.0027 21.6464 6.2527 27.8864 13.9427 27.8864ZM13.9427 25.5664C7.5227 25.5664 2.3227 20.3664 2.3227 13.9464C2.3227 7.5164 7.5227 2.3264 13.9427 2.3264C20.3727 2.3264 25.5627 7.5164 25.5627 13.9464C25.5627 20.3664 20.3727 25.5664 13.9427 25.5664ZM21.8227 15.1164L21.7627 10.3264C21.7627 10.0864 21.6527 9.8264 21.5027 9.6664C21.1527 9.2964 20.6327 9.2964 20.2627 9.6664C20.0927 9.8264 19.9927 10.0664 20.0027 10.2964L20.0327 12.3364L20.0727 13.0664L19.6327 12.6064L13.3527 6.3264C13.0027 5.9764 12.4527 5.9764 12.1027 6.3264C11.7427 6.6964 11.7427 7.2364 12.1027 7.5864L18.3727 13.8664L18.8627 14.2964L18.0927 14.2764L16.0627 14.2464C15.8227 14.2464 15.6027 14.3264 15.4327 14.5064C15.0827 14.8564 15.0827 15.3664 15.4527 15.7264C15.5827 15.8864 15.8327 15.9864 16.0827 15.9964L20.8927 16.0464C21.3827 16.0664 21.8227 15.6264 21.8227 15.1164ZM6.0427 12.7864L6.0927 17.6064C6.1127 17.8564 6.2027 18.1064 6.3427 18.2564C6.7127 18.6064 7.2427 18.6064 7.6027 18.2564C7.7627 18.0764 7.8327 17.8564 7.8427 17.6264L7.8027 15.5864L7.7627 14.8164L8.2327 15.3164L14.5027 21.5764C14.8627 21.9464 15.3827 21.9264 15.7527 21.5764C16.1227 21.2064 16.1227 20.6864 15.7527 20.3264L9.4727 14.0364L8.9827 13.6164L9.7627 13.6464L11.8027 13.6864C12.0327 13.6864 12.2527 13.5864 12.4327 13.4264C12.7827 13.0664 12.7827 12.5664 12.4127 12.1864C12.2627 12.0264 12.0027 11.9264 11.7827 11.9264L6.9727 11.8764C6.4627 11.8764 6.0427 12.2664 6.0427 12.7864Z"
        fillRule="evenodd"
        clipRule="evenodd"
    />
</svg>
        