
<svg
    viewBox={0 0 27.890625 27.890625}
    xmlns="http://www.w3.org/2000/svg"
>
    <path
        fill="inherit"
        d="M13.9427 27.8864C21.6427 27.8864 27.8927 21.6264 27.8927 13.9464C27.8927 6.2464 21.6427 -0.0036 13.9427 -0.0036C6.2627 -0.0036 0.0027 6.2464 0.0027 13.9464C0.0027 21.6264 6.2627 27.8864 13.9427 27.8864ZM20.2327 13.9464C19.6627 13.9464 19.2127 13.4964 19.2127 12.9164V12.2064L19.3427 9.9264L16.2327 13.2064C15.7927 13.6764 15.0927 13.6564 14.6527 13.2164C14.2327 12.7964 14.2427 12.0764 14.6727 11.6664L17.9327 8.5564L15.7227 8.6964H15.0127C14.4327 8.6964 13.9727 8.2464 13.9727 7.6664C13.9727 7.0964 14.4327 6.6264 15.0127 6.6264H20.0527C20.8227 6.6264 21.2727 6.9764 21.2727 7.8464V12.9164C21.2727 13.4964 20.8127 13.9464 20.2327 13.9464ZM12.8927 21.2864H7.8327C7.0727 21.2864 6.6327 20.9464 6.6327 20.0664V14.9964C6.6327 14.4264 7.0827 13.9764 7.6527 13.9764C8.2327 13.9764 8.6927 14.4264 8.6927 14.9964V15.7064L8.5427 17.9964L11.6727 14.7064C12.1027 14.2464 12.8127 14.2564 13.2327 14.6964C13.6627 15.1164 13.6427 15.8464 13.2227 16.2564L9.9627 19.3564L12.1827 19.2264H12.8927C13.4627 19.2264 13.9227 19.6764 13.9227 20.2464C13.9227 20.8264 13.4627 21.2864 12.8927 21.2864Z"
        fillRule="evenodd"
        clipRule="evenodd"
    />
</svg>
        