
<svg
    viewBox={0 0 25.169921875 25.169921875}
    xmlns="http://www.w3.org/2000/svg"
>
    <path
        fill="inherit"
        d="M4.2937 25.1692H20.8737C23.7437 25.1692 25.1737 23.7592 25.1737 20.9492V4.2392C25.1737 1.4192 23.7437 -0.0008 20.8737 -0.0008H4.2937C1.4337 -0.0008 0.0037 1.4192 0.0037 4.2392V20.9492C0.0037 23.7592 1.4337 25.1692 4.2937 25.1692ZM4.3237 22.9692C2.9537 22.9692 2.2037 22.2392 2.2037 20.8192V4.3592C2.2037 2.9392 2.9537 2.1992 4.3237 2.1992H20.8537C22.2037 2.1992 22.9737 2.9392 22.9737 4.3592V20.8192C22.9737 22.2392 22.2037 22.9692 20.8537 22.9692ZM18.6937 13.2092C18.6937 9.8392 15.9237 7.2092 12.8537 7.2092C12.7237 7.2092 12.5737 7.2292 12.4837 7.2292L13.4537 6.2492C13.5937 6.0992 13.6837 5.8692 13.6837 5.6292C13.6837 5.1392 13.3137 4.7592 12.8237 4.7592C12.5737 4.7592 12.3637 4.8692 12.1937 5.0292L9.5737 7.6992C9.2537 8.0292 9.2437 8.6392 9.5737 8.9692L12.2237 11.6192C12.3737 11.7592 12.6037 11.8692 12.8237 11.8692C13.3137 11.8692 13.6837 11.4992 13.6837 11.0192C13.6837 10.7592 13.6037 10.5592 13.4237 10.3792L12.1037 9.0792C12.2337 9.0492 12.4137 9.0392 12.5937 9.0392C14.9437 9.0392 16.8137 10.9092 16.8137 13.2492C16.8137 15.5992 14.9437 17.4692 12.5937 17.4692C10.2537 17.4692 8.3837 15.5892 8.3837 13.2492C8.3837 12.7392 7.9537 12.3192 7.4337 12.3192C6.9337 12.3192 6.5037 12.7392 6.5037 13.2492C6.5037 16.6292 9.2137 19.3592 12.5937 19.3592C15.9737 19.3592 18.6937 16.6292 18.6937 13.2092Z"
        fillRule="evenodd"
        clipRule="evenodd"
    />
</svg>
        