
<svg
    viewBox="0 0 25.169921875 25.169921875"
    xmlns="http://www.w3.org/2000/svg"
>
    <path
        fill="inherit"
        d="M4.2937 25.1702H20.8737C23.7437 25.1702 25.1737 23.7602 25.1737 20.9502V4.2402C25.1737 1.4202 23.7437 0.0002 20.8737 0.0002H4.2937C1.4337 0.0002 0.0037 1.4202 0.0037 4.2402V20.9502C0.0037 23.7602 1.4337 25.1702 4.2937 25.1702ZM11.1537 19.4002C7.9037 19.4002 5.7537 17.1902 5.7537 13.8802V12.0402C5.7537 11.3902 6.1637 10.9502 6.7837 10.9502C7.3837 10.9502 7.7937 11.3702 7.7937 12.0202V13.8802C7.7937 15.9502 9.1437 17.3602 11.1537 17.3602C13.0337 17.3602 14.2737 15.9802 14.2737 13.8902V9.9002L14.3437 8.5002L13.8737 9.1502L12.2737 10.8002C12.0837 11.0102 11.8237 11.1102 11.5237 11.1102C10.9337 11.1102 10.4837 10.6802 10.4837 10.1202C10.4837 9.8002 10.5837 9.5602 10.7837 9.3602L14.4337 5.7802C14.6937 5.5202 14.9937 5.4102 15.3137 5.4102C15.6137 5.4102 15.9137 5.5402 16.1737 5.7802L19.7937 9.3502C20.0037 9.5602 20.1137 9.7902 20.1137 10.1002C20.1137 10.6802 19.6437 11.1102 19.0537 11.1102C18.7737 11.1102 18.5137 11.0102 18.3237 10.8002L16.9837 9.4202L16.2537 8.4902L16.3137 9.9002V13.8902C16.3137 17.2002 14.2637 19.4002 11.1537 19.4002Z"
        fillRule="evenodd"
        clipRule="evenodd"
    />
</svg>
        