
<svg
    viewBox={0 0 27.890625 27.890625}
    xmlns="http://www.w3.org/2000/svg"
>
    <path
        fill="inherit"
        d="M13.9427 27.8864C21.6427 27.8864 27.8927 21.6464 27.8927 13.9464C27.8927 6.2464 21.6427 -0.0036 13.9427 -0.0036C6.2527 -0.0036 0.0027 6.2464 0.0027 13.9464C0.0027 21.6464 6.2527 27.8864 13.9427 27.8864ZM13.9427 25.5664C7.5227 25.5664 2.3227 20.3664 2.3227 13.9464C2.3227 7.5164 7.5227 2.3264 13.9427 2.3264C20.3727 2.3264 25.5627 7.5164 25.5627 13.9464C25.5627 20.3664 20.3727 25.5664 13.9427 25.5664ZM9.6427 17.3364C10.2427 17.3364 10.6327 16.9164 10.6327 16.2664V13.9064L10.4327 11.7764L12.4027 13.8764L17.4327 18.9064C17.6227 19.0964 17.8827 19.2264 18.2127 19.2264C18.8127 19.2264 19.2227 18.8264 19.2227 18.2064C19.2227 17.9364 19.0827 17.6664 18.8927 17.4764L13.8527 12.4264L11.7127 10.4464L13.7427 10.6664H16.2327C16.8827 10.6664 17.3127 10.2664 17.3127 9.6664C17.3127 9.0664 16.9027 8.6664 16.2527 8.6664H9.7727C9.0827 8.6664 8.6227 8.9864 8.6227 9.7864V16.2464C8.6227 16.8664 9.0327 17.3364 9.6427 17.3364Z"
        fillRule="evenodd"
        clipRule="evenodd"
    />
</svg>
        