
<svg
    viewBox="0 0 26.692644509536596 31.466075628675824"
    xmlns="http://www.w3.org/2000/svg"
>
    <path
        fill="inherit"
        d="M0.3737 4.4541L4.0337 7.1841C4.7737 7.7341 5.7037 7.4441 5.7037 6.4641V4.5341H21.0037V6.4641C21.0037 7.4141 21.9037 7.7541 22.6537 7.1841L26.3137 4.4541C26.8237 4.0641 26.8137 3.3541 26.3137 3.0041L22.6537 0.2841C21.9037 -0.2959 21.0037 0.0441 21.0037 0.9941V2.9441H5.7037V0.9941C5.7037 0.0441 4.8037 -0.2959 4.0337 0.2841L0.3737 3.0041C-0.1263 3.3741 -0.1263 4.0641 0.3737 4.4541ZM22.9837 11.9941V30.3441C22.9837 30.9741 23.4637 31.4641 24.0737 31.4641C24.6937 31.4641 25.1837 30.9741 25.1837 30.3441V11.9941C25.1837 11.3841 24.6937 10.9041 24.0737 10.9041C23.4637 10.9041 22.9837 11.3841 22.9837 11.9941ZM15.8137 11.9941V30.3441C15.8137 30.9741 16.3137 31.4641 16.9237 31.4641C17.5437 31.4641 18.0237 30.9741 18.0237 30.3441V11.9941C18.0237 11.3841 17.5437 10.9041 16.9237 10.9041C16.3137 10.9041 15.8137 11.3841 15.8137 11.9941ZM8.6637 11.9941V30.3441C8.6637 30.9741 9.1437 31.4641 9.7737 31.4641C10.3937 31.4641 10.8737 30.9741 10.8737 30.3441V11.9941C10.8737 11.3841 10.3937 10.9041 9.7737 10.9041C9.1437 10.9041 8.6637 11.3841 8.6637 11.9941ZM1.5137 11.9941V21.6241C1.5137 22.2341 1.9937 22.7441 2.6137 22.7441C3.2437 22.7441 3.7237 22.2341 3.7237 21.6241V11.9941C3.7237 11.3841 3.2437 10.9041 2.6137 10.9041C1.9937 10.9041 1.5137 11.3841 1.5137 11.9941Z"
        fillRule="evenodd"
        clipRule="evenodd"
    />
</svg>
        