
<svg
    viewBox="0 0 32.525390625 25.169921875"
    xmlns="http://www.w3.org/2000/svg"
>
    <path
        fill="inherit"
        d="M2.3237 6.2255H30.2037C31.7437 6.2255 32.5237 5.3055 32.5237 3.7755V2.4455C32.5237 0.9155 31.7437 -0.0045 30.2037 -0.0045H2.3237C0.8637 -0.0045 0.0037 0.9155 0.0037 2.4455V3.7755C0.0037 5.3055 0.7837 6.2255 2.3237 6.2255ZM9.0737 25.1655H23.4337C26.1237 25.1655 27.2037 23.7455 27.6037 21.0955L29.5437 8.0755H2.9637L4.9237 21.0955C5.3137 23.7655 6.3937 25.1655 9.0737 25.1655ZM17.3537 20.9855C17.3537 21.5555 16.8537 22.0355 16.2737 22.0355C15.6837 22.0355 15.1737 21.5555 15.1737 20.9855V15.9455L15.2737 13.6455L14.0937 14.8755L12.8537 16.1355C12.6437 16.3355 12.3737 16.4655 12.1037 16.4655C11.5137 16.4655 11.1037 16.0555 11.1037 15.4755C11.1037 15.1455 11.2337 14.9155 11.4537 14.7155L15.4737 11.0155C15.7737 10.7455 15.9937 10.6455 16.2737 10.6455C16.5437 10.6455 16.7637 10.7455 17.0637 11.0155L21.0837 14.7155C21.3037 14.9155 21.4337 15.1455 21.4337 15.4755C21.4337 16.0555 21.0037 16.4655 20.4437 16.4655C20.1537 16.4655 19.8837 16.3355 19.6837 16.1355L18.4437 14.8755L17.2637 13.6455L17.3537 15.9455Z"
        fillRule="evenodd"
        clipRule="evenodd"
    />
</svg>
        