
<svg
    viewBox="0 0 34.91950435164188 29.3125"
    xmlns="http://www.w3.org/2000/svg"
>
    <path
        fill="inherit"
        d="M11.9252 25.0373C11.9252 27.8873 13.3452 29.3173 16.1652 29.3173H30.6852C33.5152 29.3173 34.9152 27.8873 34.9152 25.0373V4.2973C34.9152 1.4473 33.5152 -0.0027 30.6852 -0.0027H16.1652C13.3452 -0.0027 11.9252 1.4473 11.9252 4.2973ZM14.1252 24.9873V4.3373C14.1252 2.9673 14.8652 2.1973 16.2852 2.1973H30.5752C31.9952 2.1973 32.7152 2.9673 32.7152 4.3373V24.9873C32.7152 26.3573 31.9952 27.1073 30.5752 27.1073H16.2852C14.8652 27.1073 14.1252 26.3573 14.1252 24.9873ZM30.0352 21.1773C30.5352 21.1773 30.8952 20.9073 30.8952 20.3673V7.8773C30.8952 7.3273 30.5352 7.0673 30.0352 7.0673C28.5352 7.0673 24.6552 9.3273 24.6552 14.1273C24.6552 18.9173 28.5352 21.1773 30.0352 21.1773ZM0.3252 12.3473C-0.3548 13.1073 0.0852 14.1473 1.1052 14.1473H3.4352V20.1373C3.4352 20.7373 3.8952 21.2073 4.5152 21.2073C5.1052 21.2073 5.5652 20.7373 5.5652 20.1373V14.1473H7.8652C8.9452 14.1473 9.3152 13.0673 8.6552 12.3473L5.2652 8.5173C4.8152 7.9973 4.1752 7.9973 3.7052 8.5173ZM19.7052 17.6273C21.8952 17.6273 23.5552 16.0673 23.5452 14.1273C23.5352 12.1673 21.8952 10.6073 19.7052 10.6073C17.6552 10.6073 15.9552 12.1673 15.9552 14.1273C15.9552 16.0673 17.6552 17.6273 19.7052 17.6273Z"
        fillRule="evenodd"
        clipRule="evenodd"
    />
</svg>
        