
<svg
    viewBox="0 0 25.662109375 21.51953125"
    xmlns="http://www.w3.org/2000/svg"
>
    <path
        fill="inherit"
        d="M24.3737 -0.0045C23.6637 -0.0045 23.1637 0.4955 23.1637 1.2055C23.1637 1.6955 23.1837 2.1355 23.1837 2.7855C23.1837 7.8655 21.4237 9.9255 16.4037 9.9255H6.9737L3.6137 10.1355L8.2337 5.9055L11.2637 2.8155C11.4837 2.5955 11.5937 2.2855 11.5937 1.9555C11.5937 1.2755 11.0737 0.7755 10.4037 0.7755C10.0737 0.7755 9.7937 0.8855 9.5037 1.1455L0.4237 10.2255C0.1537 10.4855 0.0037 10.8155 0.0037 11.1455C0.0037 11.4855 0.1537 11.7955 0.4237 12.0755L9.4737 21.1055C9.7737 21.3955 10.0737 21.5155 10.4037 21.5155C11.0737 21.5155 11.5937 21.0255 11.5937 20.3455C11.5937 20.0155 11.4837 19.7055 11.2637 19.4655L8.2337 16.3755L3.6237 12.1855L6.9737 12.3755H16.5337C23.0237 12.3755 25.6637 9.5255 25.6637 2.9155C25.6637 2.1055 25.6337 1.4355 25.5537 1.0155C25.4337 0.4655 25.1037 -0.0045 24.3737 -0.0045Z"
        fillRule="evenodd"
        clipRule="evenodd"
    />
</svg>
        