
<svg
    viewBox={0 0 32.23828125 25.169921875}
    xmlns="http://www.w3.org/2000/svg"
>
    <path
        fill="inherit"
        d="M4.2937 25.1692H27.9437C30.8137 25.1692 32.2337 23.7592 32.2337 20.9492V4.2392C32.2337 1.4192 30.8137 -0.0008 27.9437 -0.0008H4.2937C1.4337 -0.0008 0.0037 1.4192 0.0037 4.2392V20.9492C0.0037 23.7592 1.4337 25.1692 4.2937 25.1692ZM13.0837 19.8392C12.4537 19.8392 12.0437 19.3992 12.0437 18.7292V16.4892L12.2537 14.2992L10.2137 16.4792L5.9837 20.6992C5.7837 20.9092 5.5237 21.0292 5.1837 21.0292C4.5537 21.0292 4.1437 20.6192 4.1437 19.9792C4.1437 19.6992 4.2837 19.4092 4.4837 19.2092L8.7237 14.9892L10.9237 12.9292L8.8337 13.1492H6.4837C5.7937 13.1492 5.3637 12.7392 5.3637 12.1092C5.3637 11.4992 5.7837 11.0892 6.4537 11.0892H12.9337C13.6537 11.0892 14.1237 11.4192 14.1237 12.2492V18.6992C14.1237 19.3592 13.7037 19.8392 13.0837 19.8392Z"
        fillRule="evenodd"
        clipRule="evenodd"
    />
</svg>
        