
<svg
    viewBox="0 0 27.890625 27.890625"
    xmlns="http://www.w3.org/2000/svg"
>
    <path
        fill="inherit"
        d="M13.9427 27.8864C21.6427 27.8864 27.8927 21.6464 27.8927 13.9464C27.8927 6.2464 21.6427 -0.0036 13.9427 -0.0036C6.2527 -0.0036 0.0027 6.2464 0.0027 13.9464C0.0027 21.6464 6.2527 27.8864 13.9427 27.8864ZM13.9427 25.5664C7.5227 25.5664 2.3227 20.3664 2.3227 13.9464C2.3227 7.5164 7.5227 2.3264 13.9427 2.3264C20.3727 2.3264 25.5627 7.5164 25.5627 13.9464C25.5627 20.3664 20.3727 25.5664 13.9427 25.5664ZM9.1727 18.1564H18.7027C19.3627 18.1564 19.6427 17.4364 19.2627 16.7864L14.6827 8.9964C14.3327 8.4064 13.5327 8.4364 13.2027 8.9964L8.6027 16.7864C8.2427 17.3764 8.5127 18.1564 9.1727 18.1564Z"
        fillRule="evenodd"
        clipRule="evenodd"
    />
</svg>
        