
<svg
    viewBox="0 0 27.890625 27.890625"
    xmlns="http://www.w3.org/2000/svg"
>
    <path
        fill="inherit"
        d="M13.9427 27.8864C21.6427 27.8864 27.8927 21.6464 27.8927 13.9464C27.8927 6.2464 21.6427 -0.0036 13.9427 -0.0036C6.2527 -0.0036 0.0027 6.2464 0.0027 13.9464C0.0027 21.6464 6.2527 27.8864 13.9427 27.8864ZM13.9427 25.5664C7.5227 25.5664 2.3227 20.3664 2.3227 13.9464C2.3227 7.5164 7.5227 2.3264 13.9427 2.3264C20.3727 2.3264 25.5627 7.5164 25.5627 13.9464C25.5627 20.3664 20.3727 25.5664 13.9427 25.5664ZM10.8327 19.5664C11.3227 19.5664 11.6627 19.2464 11.6627 18.9464V18.5964L7.1627 14.4664C6.7227 14.0564 6.4927 13.5464 6.4927 13.0164C6.4927 12.4864 6.7127 11.9864 7.1627 11.5764L11.6627 7.4664V7.1264C11.6627 6.7764 11.3227 6.4764 10.8127 6.4764C10.4727 6.4764 10.2427 6.6164 9.8727 6.9764L4.2227 12.2664C3.9527 12.5264 3.8727 12.7664 3.8727 13.0164C3.8727 13.2664 3.9527 13.5264 4.2227 13.7764L9.8727 19.0864C10.2227 19.4164 10.4827 19.5664 10.8327 19.5664ZM14.4327 19.5664C14.9027 19.5664 15.2627 19.2064 15.2627 18.7164V15.9864H15.4727C18.2527 15.9864 20.0427 16.6964 21.2427 19.0264C21.4827 19.4664 21.8027 19.5664 22.1227 19.5664C22.5127 19.5664 22.8427 19.2264 22.8427 18.6164C22.8427 13.3164 20.5727 10.0764 15.4727 10.0764H15.2627V7.3564C15.2627 6.8764 14.9027 6.4764 14.4227 6.4764C14.0827 6.4764 13.8527 6.6264 13.4827 6.9764L7.8427 12.2664C7.5627 12.5364 7.4627 12.7664 7.4627 13.0164C7.4627 13.2664 7.5627 13.5064 7.8427 13.7764L13.4827 19.0864C13.8227 19.4164 14.1127 19.5664 14.4327 19.5664Z"
        fillRule="evenodd"
        clipRule="evenodd"
    />
</svg>
        