<svg viewBox="0 0 25.388671875 20.7265625" xmlns="http://www.w3.org/2000/svg"><path d="M0.0037 10.3644C0.0037 10.7044 0.1537 11.0244 0.4237 11.2744L9.5037 20.3444C9.7737 20.6044 10.0637 20.7244 10.3937 20.7244C11.0637 20.7244 11.5937 20.2344 11.5937 19.5544C11.5937 19.2244 11.4737 18.8944 11.2537 18.6944L8.1937 15.5744L3.5837 11.3744L6.8937 11.5844H24.1837C24.8937 11.5844 25.3937 11.0744 25.3937 10.3644C25.3937 9.6544 24.8937 9.1444 24.1837 9.1444H6.8937L3.5937 9.3544L8.1937 5.1544L11.2537 2.0344C11.4737 1.8144 11.5937 1.5044 11.5937 1.1744C11.5937 0.4944 11.0637 0.0044 10.3937 0.0044C10.0637 0.0044 9.7737 0.1044 9.4737 0.4144L0.4237 9.4444C0.1537 9.7044 0.0037 10.0244 0.0037 10.3644Z" /></svg>