
<svg
    viewBox={0 0 25.087890625 29.4765625}
    xmlns="http://www.w3.org/2000/svg"
>
    <path
        fill="inherit"
        d="M12.5337 -0.0043C12.0837 -0.0043 11.5637 0.1757 11.0737 0.6957L0.8937 11.4857C0.2737 12.1357 0.0037 12.6857 0.0037 13.3557C0.0037 14.2857 0.6837 14.9557 1.6037 14.9557H6.8237V26.0557C6.8237 28.2157 8.0537 29.4757 10.1737 29.4757H14.8937C17.0037 29.4757 18.2337 28.2157 18.2337 26.0557V14.9557H23.4037C24.3237 14.9557 25.0837 14.2857 25.0837 13.3257C25.0837 12.6557 24.7837 12.2057 24.1037 11.4857L14.0137 0.6957C13.5237 0.1657 13.0037 -0.0043 12.5337 -0.0043ZM12.5337 2.4457C12.6237 2.4457 12.7037 2.4857 12.7937 2.5957L22.1337 12.3357C22.2037 12.3957 22.2437 12.4857 22.2437 12.5657C22.2437 12.6857 22.1737 12.7557 22.0537 12.7557H16.6237C16.3137 12.7557 16.1737 12.9057 16.1737 13.2157V26.0357C16.1737 26.9057 15.6837 27.4157 14.7937 27.4157H10.2837C9.3937 27.4157 8.8837 26.9057 8.8837 26.0357V13.2157C8.8837 12.9057 8.7537 12.7557 8.4337 12.7557H3.1437C3.0237 12.7557 2.9437 12.6857 2.9437 12.5757C2.9437 12.4957 2.9837 12.4157 3.0637 12.3357L12.2737 2.5957C12.3837 2.4857 12.4537 2.4457 12.5337 2.4457Z"
        fillRule="evenodd"
        clipRule="evenodd"
    />
</svg>
        