<svg viewBox="0 0 30.537212302418432 27.890625" xmlns="http://www.w3.org/2000/svg"><path d="M13.9427 27.8864C18.5527 27.8864 22.6927 25.6064 25.2427 22.0664C25.7027 21.4664 25.5427 20.6964 24.9827 20.3564C24.4027 20.0164 23.7627 20.1964 23.3527 20.7564C21.2727 23.6564 17.8327 25.5664 13.9427 25.5664C7.5227 25.5664 2.3227 20.3664 2.3227 13.9464C2.3227 7.5164 7.5227 2.3264 13.9427 2.3264C19.4527 2.3264 24.0727 6.1564 25.2627 11.3064H23.2927C22.3227 11.3064 22.0627 11.9764 22.6027 12.7264L25.6627 17.0864C26.1027 17.7064 26.7527 17.7164 27.1927 17.0864L30.2527 12.7464C30.8027 11.9764 30.5427 11.3064 29.5627 11.3064H27.6427C26.4027 4.8664 20.7427 -0.0036 13.9427 -0.0036C6.2527 -0.0036 0.0027 6.2464 0.0027 13.9464C0.0027 21.6464 6.2527 27.8864 13.9427 27.8864Z" /></svg>