
<svg
    viewBox={0 0 32.23828125 25.169921875}
    xmlns="http://www.w3.org/2000/svg"
>
    <path
        fill="inherit"
        d="M4.2937 25.1692H27.9437C30.8137 25.1692 32.2337 23.7592 32.2337 20.9492V4.2392C32.2337 1.4192 30.8137 -0.0008 27.9437 -0.0008H4.2937C1.4337 -0.0008 0.0037 1.4192 0.0037 4.2392V20.9492C0.0037 23.7592 1.4337 25.1692 4.2937 25.1692ZM14.3837 4.4392C14.9837 4.4392 15.3937 4.9092 15.3937 5.5392V11.0892C15.3937 11.8692 14.9537 12.2092 14.2737 12.2092H8.6637C8.0537 12.2092 7.6337 11.7992 7.6337 11.1992C7.6337 10.6092 8.0537 10.1992 8.6937 10.1992H10.5137L12.2637 10.3792L10.3637 8.6392L7.4737 5.7292C7.3037 5.5392 7.1537 5.2792 7.1537 4.9992C7.1537 4.3892 7.5637 3.9792 8.1437 3.9792C8.4737 3.9792 8.7237 4.0992 8.9237 4.2892L11.8137 7.1892L13.5637 9.0492L13.3937 7.2092V5.5092C13.3937 4.8792 13.7937 4.4392 14.3837 4.4392ZM17.8537 20.7292C17.2537 20.7292 16.8437 20.2792 16.8437 19.6492V14.0992C16.8437 13.2992 17.2937 12.9792 17.9737 12.9792H23.5737C24.1837 12.9792 24.6237 13.3892 24.6237 13.9892C24.6237 14.5692 24.1837 14.9892 23.5437 14.9892H21.7237L19.9737 14.8092L21.8737 16.5392L24.7737 19.4392C24.9537 19.6292 25.1037 19.9092 25.1037 20.1792C25.1037 20.7992 24.6737 21.1892 24.0937 21.1892C23.7637 21.1892 23.5137 21.0692 23.3137 20.8792L20.4237 17.9892L18.6737 16.1192L18.8437 17.9792V19.6692C18.8437 20.2992 18.4437 20.7292 17.8537 20.7292Z"
        fillRule="evenodd"
        clipRule="evenodd"
    />
</svg>
        