
<svg
    viewBox="0 0 29.4765625 25.07421875"
    xmlns="http://www.w3.org/2000/svg"
>
    <path
        fill="inherit"
        d="M13.3539 25.0782C14.2839 25.0782 14.9539 24.3882 14.9539 23.4782V18.2482H15.3539C20.6539 18.2482 23.9939 19.5882 26.3839 24.0582C26.8639 24.9382 27.4939 25.0782 28.0639 25.0782C28.7939 25.0782 29.4739 24.4182 29.4739 23.2382C29.4739 13.1382 25.1939 6.8382 15.3539 6.8382H14.9539V1.6682C14.9539 0.7482 14.2839 -0.0018 13.3339 -0.0018C12.6639 -0.0018 12.2139 0.2882 11.4839 0.9682L0.6939 11.0582C0.1639 11.5682 0.0039 12.0682 0.0039 12.5382C0.0039 12.9882 0.1739 13.5082 0.6939 13.9982L11.4839 24.1882C12.1439 24.7982 12.6839 25.0782 13.3539 25.0782ZM12.5739 22.1382C12.4939 22.1382 12.4139 22.0982 12.3439 22.0082L2.5939 12.7982C2.4839 12.6882 2.4439 12.6182 2.4439 12.5382C2.4439 12.4582 2.4839 12.3682 2.5939 12.2782L12.3339 2.9382C12.4039 2.8882 12.4839 2.8282 12.5639 2.8282C12.6839 2.8282 12.7539 2.9082 12.7539 3.0182V8.4482C12.7539 8.7682 12.9039 8.8982 13.2239 8.8982H15.0539C24.4339 8.8982 27.2639 15.4082 27.5339 21.8582C27.5339 21.9682 27.4939 22.0082 27.4239 22.0082C27.3739 22.0082 27.3439 21.9682 27.3039 21.8782C25.6939 18.4482 21.5439 16.1882 15.0539 16.1882H13.2239C12.9039 16.1882 12.7539 16.3282 12.7539 16.6382V21.9282C12.7539 22.0482 12.6839 22.1382 12.5739 22.1382Z"
        fillRule="evenodd"
        clipRule="evenodd"
    />
</svg>
        