
<svg
    viewBox="0 0 19.82421875 29.271484375"
    xmlns="http://www.w3.org/2000/svg"
>
    <path
        fill="inherit"
        d="M-0.0005 20.17C-0.0005 22.29 0.8295 23.84 2.3795 24.69C3.1295 25.09 3.5695 25.59 3.8395 26.51L4.2795 27.97C4.5395 28.85 5.1495 29.27 6.0695 29.27H12.3895C13.3295 29.27 13.8995 28.86 14.1595 27.97L14.6195 26.51C14.8895 25.59 15.3295 25.09 16.0795 24.69C17.6195 23.84 18.4595 22.29 18.4595 20.17V13.67H18.6495C19.3595 13.67 19.8195 13.19 19.8195 12.41V10.57C19.8195 9.79 19.3595 9.31 18.6495 9.31H18.4595V9.11C18.4595 6.99 17.6195 5.44 16.0795 4.58C15.3295 4.18 14.8895 3.68 14.6195 2.78L14.1595 1.3C13.9295 0.44 13.3195 0 12.3895 0H6.0695C5.1495 0 4.5395 0.42 4.2795 1.3L3.8395 2.78C3.5795 3.66 3.1495 4.2 2.3795 4.58C0.8495 5.4 -0.0005 6.96 -0.0005 9.11ZM1.9995 19.88V9.41C1.9995 7.37 3.1895 6.14 5.1795 6.14H13.2795C15.2695 6.14 16.4595 7.37 16.4595 9.41V19.88C16.4595 21.9 15.2695 23.13 13.2795 23.13H5.1795C3.1895 23.13 1.9995 21.9 1.9995 19.88ZM9.2795 9.05C8.7895 9.05 8.4495 9.41 8.4495 9.9V15.3L8.5195 17.57L7.4695 16.3L6.1895 15C6.0395 14.86 5.8195 14.75 5.5895 14.75C5.1295 14.75 4.7695 15.11 4.7695 15.57C4.7695 15.79 4.8395 16.01 4.9895 16.16L8.6295 19.77C8.8495 19.99 9.0495 20.1 9.2795 20.1C9.5295 20.1 9.7295 19.99 9.9495 19.77L13.5595 16.16C13.7095 16.01 13.8095 15.79 13.8095 15.57C13.8095 15.11 13.4495 14.75 12.9895 14.75C12.7295 14.75 12.5195 14.85 12.3895 15L11.1195 16.3L10.0395 17.58L10.1195 15.3L10.1295 9.9C10.1295 9.41 9.7595 9.05 9.2795 9.05Z"
        fillRule="evenodd"
        clipRule="evenodd"
    />
</svg>
        