
<svg
    viewBox={0 0 34.91950435164188 29.3125}
    xmlns="http://www.w3.org/2000/svg"
>
    <path
        fill="inherit"
        d="M11.9252 25.0373C11.9252 27.8873 13.3452 29.3173 16.1652 29.3173H30.6852C33.5152 29.3173 34.9152 27.8873 34.9152 25.0373V4.2973C34.9152 1.4473 33.5152 -0.0027 30.6852 -0.0027H16.1652C13.3452 -0.0027 11.9252 1.4473 11.9252 4.2973ZM14.1252 24.9873V4.3373C14.1252 2.9673 14.8652 2.1973 16.2852 2.1973H30.5752C31.9952 2.1973 32.7152 2.9673 32.7152 4.3373V24.9873C32.7152 26.3573 31.9952 27.1073 30.5752 27.1073H16.2852C14.8652 27.1073 14.1252 26.3573 14.1252 24.9873ZM23.4252 14.2373C25.3752 14.2473 26.9352 12.5873 26.9352 10.4073C26.9352 8.3573 25.3752 6.6473 23.4252 6.6473C21.4752 6.6473 19.9252 8.3573 19.9252 10.4073C19.9252 12.5873 21.4752 14.2173 23.4252 14.2373ZM0.3252 12.3473C-0.3548 13.1073 0.0852 14.1473 1.1052 14.1473H3.4352V20.1373C3.4352 20.7373 3.8952 21.2073 4.5152 21.2073C5.1052 21.2073 5.5652 20.7373 5.5652 20.1373V14.1473H7.8652C8.9452 14.1473 9.3152 13.0673 8.6552 12.3473L5.2652 8.5173C4.8152 7.9973 4.1752 7.9973 3.7052 8.5173ZM17.1752 21.5873H29.6652C30.2152 21.5873 30.4752 21.2373 30.4752 20.7273C30.4752 19.2373 28.2252 15.3573 23.4252 15.3573C18.6252 15.3573 16.3652 19.2373 16.3652 20.7273C16.3652 21.2373 16.6452 21.5873 17.1752 21.5873Z"
        fillRule="evenodd"
        clipRule="evenodd"
    />
</svg>
        