
<svg
    viewBox={0 0 27.890625 27.890625}
    xmlns="http://www.w3.org/2000/svg"
>
    <path
        fill="inherit"
        d="M13.9427 27.8864C21.6427 27.8864 27.8927 21.6264 27.8927 13.9464C27.8927 6.2464 21.6427 -0.0036 13.9427 -0.0036C6.2627 -0.0036 0.0027 6.2464 0.0027 13.9464C0.0027 21.6264 6.2627 27.8864 13.9427 27.8864ZM6.9327 15.4764C6.9327 12.3764 9.1327 10.3264 12.4327 10.3264H16.4327L17.8427 10.3864L16.9127 9.6564L15.5327 8.3164C15.3227 8.1364 15.2027 7.8564 15.2027 7.5864C15.2027 6.9864 15.6427 6.5364 16.2327 6.5364C16.5427 6.5364 16.7727 6.6264 16.9827 6.8364L20.5527 10.4564C20.7927 10.7164 20.9227 11.0164 20.9227 11.3364C20.9227 11.6364 20.8127 11.9364 20.5527 12.1964L16.9627 15.8564C16.7727 16.0464 16.5327 16.1564 16.2127 16.1564C15.6527 16.1564 15.2027 15.6964 15.2027 15.1064C15.2027 14.8064 15.3227 14.5564 15.5327 14.3564L17.1827 12.7564L17.8327 12.3064L16.4327 12.3564H12.4327C10.3527 12.3564 8.9727 13.6064 8.9727 15.4764C8.9727 17.4964 10.3727 18.8364 12.4427 18.8364H14.3127C14.9527 18.8364 15.3827 19.2464 15.3827 19.8564C15.3827 20.4664 14.9427 20.8764 14.2827 20.8764H12.4427C9.1427 20.8764 6.9327 18.7464 6.9327 15.4764Z"
        fillRule="evenodd"
        clipRule="evenodd"
    />
</svg>
        