<svg viewBox="0 0 27.890625 27.890625" xmlns="http://www.w3.org/2000/svg"><path d="M13.9427 27.8927C21.6427 27.8927 27.8927 21.6427 27.8927 13.9427C27.8927 6.2627 21.6427 0.0027 13.9427 0.0027C6.2627 0.0027 0.0027 6.2627 0.0027 13.9427C0.0027 21.6427 6.2627 27.8927 13.9427 27.8927ZM10.7627 19.7727C10.4027 19.7727 10.1427 19.6027 9.7727 19.2727L3.9527 13.8127C3.6827 13.5327 3.5927 13.2727 3.5927 13.0327C3.5927 12.7527 3.6827 12.5127 3.9527 12.2327L9.7727 6.7927C10.1627 6.4427 10.3927 6.2727 10.7427 6.2727C11.2827 6.2727 11.6227 6.6027 11.6227 6.9427V7.2827L6.9827 11.5427C6.5227 11.9527 6.2927 12.4827 6.2927 13.0327C6.2927 13.5727 6.5327 14.0927 6.9827 14.5027L11.6227 18.7827V19.1227C11.6227 19.4527 11.2827 19.7727 10.7627 19.7727ZM14.4827 19.7727C14.1527 19.7727 13.8527 19.6027 13.4927 19.2727L7.6827 13.8127C7.3927 13.5227 7.3127 13.2727 7.3127 13.0327C7.3127 12.7527 7.3927 12.5227 7.6827 12.2327L13.4927 6.7927C13.8727 6.4427 14.1227 6.2727 14.4627 6.2727C14.9727 6.2727 15.3427 6.7027 15.3427 7.1727V9.9827H15.5627C20.8227 9.9827 23.1427 13.3327 23.1427 18.7827C23.1427 19.4127 22.8227 19.7727 22.4127 19.7727C22.0827 19.7727 21.7427 19.6727 21.4927 19.2227C20.2527 16.8127 18.4127 16.0927 15.5627 16.0927H15.3427V18.8927C15.3427 19.4127 14.9727 19.7727 14.4827 19.7727Z" /></svg>