
<svg
    viewBox={0 0 19.908094687289534 29.44921875}
    xmlns="http://www.w3.org/2000/svg"
>
    <path
        fill="inherit"
        d="M8.433 29.4494C13.493 29.4494 16.843 26.0994 16.843 21.0094V18.3094C16.843 17.6894 16.363 17.2094 15.753 17.2094C15.133 17.2094 14.643 17.6894 14.643 18.3094V21.0094C14.643 24.7494 12.143 27.2494 8.433 27.2494C4.703 27.2494 2.203 24.7494 2.203 21.0094V8.4194C2.203 4.7194 4.703 2.1994 8.433 2.1994C12.143 2.1994 14.643 4.7194 14.643 8.4194V8.4794H12.643C11.693 8.4794 11.433 9.1494 11.953 9.8994L15.013 14.2594C15.453 14.8794 16.103 14.8894 16.553 14.2594L19.633 9.9094C20.163 9.1494 19.923 8.4794 18.933 8.4794H16.843V8.4194C16.843 3.3494 13.493 -0.0006 8.433 -0.0006C3.353 -0.0006 0.003 3.3494 0.003 8.4194V21.0094C0.003 26.0994 3.353 29.4494 8.433 29.4494Z"
        fillRule="evenodd"
        clipRule="evenodd"
    />
</svg>
        