
<svg
    viewBox="0 0 34.37109375 23.76171875"
    xmlns="http://www.w3.org/2000/svg"
>
    <path
        fill="inherit"
        d="M27.0127 23.7594C31.1427 23.7594 34.3727 20.7394 34.3727 16.9794C34.3727 14.1094 32.7127 11.6194 30.0527 10.4994C30.0827 4.3994 25.6927 -0.0006 20.0927 -0.0006C16.3927 -0.0006 13.7527 1.9794 12.1127 4.3794C8.7527 3.3894 5.0827 5.9494 5.0127 9.7794C1.9327 10.2694 0.0027 13.0294 0.0027 16.3694C0.0027 20.3894 3.5127 23.7594 8.1927 23.7594ZM27.0127 21.5594H8.1927C4.7427 21.5594 2.2027 19.1494 2.2027 16.3694C2.2027 13.6294 3.8527 11.4594 6.7527 11.4594C6.9427 11.4594 7.0127 11.3594 7.0127 11.1794C7.0127 6.9694 10.0527 5.7294 12.8527 6.6494C13.0127 6.6994 13.1127 6.6594 13.1927 6.5094C14.5227 4.1394 16.5527 2.1994 20.0927 2.1994C24.5827 2.1994 27.6827 5.7594 27.9227 9.8194C27.9627 10.4494 27.9227 11.1794 27.8627 11.8294C27.8527 11.9994 27.9227 12.0994 28.0827 12.1394C30.5727 12.6894 32.1727 14.5094 32.1727 16.9794C32.1727 19.5194 29.9327 21.5594 27.0127 21.5594ZM17.4727 19.1294C20.5327 19.1294 22.9827 16.6694 22.9827 13.5594C22.9827 10.8194 20.9227 8.6094 18.4727 8.2194V6.8094C18.4727 6.2194 17.8127 5.9994 17.3727 6.3694L14.8327 8.5294C14.4227 8.8694 14.4127 9.4194 14.8327 9.7894L17.3727 11.9794C17.8127 12.3694 18.4727 12.1394 18.4727 11.5494V9.9394C20.0827 10.3794 21.2827 11.8394 21.2827 13.5994C21.2827 15.7194 19.5927 17.4294 17.4727 17.4294C15.3627 17.4294 13.6727 15.7194 13.6727 13.5994C13.6727 13.1494 13.2927 12.7694 12.8227 12.7694C12.3627 12.7694 11.9727 13.1494 11.9727 13.5994C11.9727 16.6694 14.4227 19.1294 17.4727 19.1294Z"
        fillRule="evenodd"
        clipRule="evenodd"
    />
</svg>
        