<svg viewBox="0 0 36.28515625 25.279296875" xmlns="http://www.w3.org/2000/svg"><path d="M12.0037 25.2819C12.6237 25.2819 12.9837 24.9819 13.1237 24.4319C14.6037 19.8619 16.9537 18.2519 20.8337 18.2519L21.3237 18.2619V23.4919C21.3237 24.4019 21.9937 25.0919 22.9237 25.0919C23.5937 25.0919 24.1437 24.8119 24.8037 24.2019L35.6037 14.0119C36.1237 13.5219 36.2837 13.0019 36.2837 12.5519C36.2837 12.0819 36.1237 11.5619 35.6037 11.0719L24.8037 0.9819C24.0737 0.3019 23.6237 0.0019 22.9537 0.0019C21.9937 0.0019 21.3237 0.7619 21.3237 1.6819V6.8519H20.9337C16.6437 6.8519 12.9037 9.3919 12.0537 14.5019H11.9037C10.9637 8.8419 7.0837 6.8519 3.4037 6.8519H2.6437C0.7537 6.8519 0.0037 7.5619 0.0037 9.6019V16.1319C0.0037 17.6819 0.7337 18.3319 2.5137 18.3319H3.7237C7.4537 18.3319 9.9137 20.8219 10.8937 24.4219C11.0237 24.9819 11.3737 25.2819 12.0037 25.2819ZM23.7237 22.1519C23.5937 22.1519 23.5337 22.0619 23.5337 21.9419V16.6519C23.5337 16.3419 23.3837 16.2019 23.0637 16.2019L20.7637 16.1919C16.7737 16.1919 14.1337 17.7919 12.7437 21.3519H12.5937C12.8137 12.9919 15.8637 8.9119 21.0037 8.9119H23.0637C23.3837 8.9119 23.5337 8.7819 23.5337 8.4619V3.0319C23.5337 2.9219 23.6137 2.8419 23.7237 2.8419C23.8137 2.8419 23.8837 2.9019 23.9537 2.9519L33.6837 12.2919C33.7937 12.3819 33.8337 12.4719 33.8337 12.5519C33.8337 12.6319 33.7937 12.7019 33.6837 12.8119L23.9537 22.0219C23.8737 22.1119 23.7937 22.1519 23.7237 22.1519ZM11.2837 21.3519C9.7437 17.4719 6.9737 16.2119 3.5537 16.1919H2.7337C2.3937 16.1919 2.2037 15.9819 2.2037 15.5819V9.6019C2.2037 9.2019 2.3937 8.9819 2.7637 8.9819H3.5237C7.6537 9.0419 11.1737 11.9519 11.4337 21.3519Z" /></svg>