<svg viewBox="0 0 25.169921875 25.169921875" xmlns="http://www.w3.org/2000/svg"><path d="M4.2937 25.1692H20.8737C23.7437 25.1692 25.1737 23.7592 25.1737 20.9492V4.2392C25.1737 1.4192 23.7437 -0.0008 20.8737 -0.0008H4.2937C1.4337 -0.0008 0.0037 1.4192 0.0037 4.2392V20.9492C0.0037 23.7592 1.4337 25.1692 4.2937 25.1692ZM6.3737 12.3992C5.8137 12.3992 5.3637 11.9492 5.3637 11.3892C5.3637 10.8392 5.8137 10.4092 6.3737 10.4092H7.0537L9.2137 10.5392L5.4137 6.9092C5.0037 6.4792 4.9737 5.8092 5.4037 5.3992C5.8137 4.9792 6.4837 4.9792 6.8937 5.4092L10.5637 9.2292L10.4337 6.9992V6.3192C10.4337 5.7592 10.8737 5.3192 11.4137 5.3192C11.9737 5.3192 12.4237 5.7592 12.4237 6.3192V11.2292C12.4237 12.0692 11.9937 12.3992 11.2537 12.3992ZM13.7637 19.8192C13.2037 19.8192 12.7737 19.3892 12.7737 18.8292V13.9092C12.7737 13.0692 13.1937 12.7392 13.9337 12.7392H18.8137C19.3837 12.7392 19.8237 13.1792 19.8237 13.7492C19.8237 14.2992 19.3837 14.7392 18.8137 14.7392H18.1337L15.9737 14.5992L19.7737 18.2392C20.1837 18.6492 20.2037 19.3292 19.7837 19.7392C19.3737 20.1692 18.7037 20.1692 18.2937 19.7292L14.6137 15.9092L14.7637 18.1392V18.8292C14.7637 19.3892 14.3137 19.8192 13.7637 19.8192Z" /></svg>