
<svg
    viewBox="0 0 25.169921875 25.169921875"
    xmlns="http://www.w3.org/2000/svg"
>
    <path
        fill="inherit"
        d="M4.2937 25.1692H20.8737C23.7437 25.1692 25.1737 23.7592 25.1737 20.9492V4.2392C25.1737 1.4192 23.7437 -0.0008 20.8737 -0.0008H4.2937C1.4337 -0.0008 0.0037 1.4192 0.0037 4.2392V20.9492C0.0037 23.7592 1.4337 25.1692 4.2937 25.1692ZM19.7137 12.5692C19.7137 12.8492 19.6237 13.0992 19.3337 13.3892L14.8637 18.0292C14.6437 18.2492 14.4137 18.3592 14.1137 18.3592C13.5337 18.3592 13.1237 17.9392 13.1237 17.3492C13.1237 17.0792 13.2337 16.7592 13.4637 16.5692L15.7337 14.4192L16.6137 13.5992L14.4937 13.6892H6.5937C5.9837 13.6892 5.4837 13.1792 5.4837 12.5692C5.4837 11.9492 5.9837 11.4292 6.5937 11.4292H14.4937L16.6137 11.5292L15.7337 10.7092L13.4637 8.5592C13.2337 8.3692 13.1237 8.0692 13.1237 7.7892C13.1237 7.2092 13.5337 6.7692 14.1137 6.7692C14.4137 6.7692 14.6437 6.8792 14.8637 7.0992L19.3337 11.7392C19.6237 12.0292 19.7137 12.2592 19.7137 12.5692Z"
        fillRule="evenodd"
        clipRule="evenodd"
    />
</svg>
        