
<svg
    viewBox={0 0 22.298828125 21.73828125}
    xmlns="http://www.w3.org/2000/svg"
>
    <path
        fill="inherit"
        d="M20.6609 -0.0034C20.1109 -0.0034 19.6709 0.2366 19.1009 0.5166L1.5309 9.0466C0.3709 9.6266 0.0009 10.1466 0.0009 10.8666C0.0009 11.5966 0.3709 12.1266 1.5309 12.6966L19.1009 21.2166C19.6909 21.5066 20.1209 21.7366 20.6709 21.7366C21.6809 21.7366 22.3009 20.9766 22.3009 19.7866V1.9566C22.3009 0.7666 21.6709 -0.0034 20.6609 -0.0034ZM19.9609 2.5966C20.0409 2.5966 20.1009 2.6666 20.1009 2.7666L20.1109 18.9766C20.1109 19.0866 20.0609 19.1366 19.9709 19.1366C19.9209 19.1366 19.8609 19.1166 19.8109 19.0866L3.0609 11.0166C2.9909 10.9966 2.9409 10.9366 2.9409 10.8666C2.9409 10.7966 2.9909 10.7466 3.0609 10.7166L19.8009 2.6666C19.8509 2.6266 19.9109 2.5966 19.9609 2.5966Z"
        fillRule="evenodd"
        clipRule="evenodd"
    />
</svg>
        