
<svg
    viewBox="0 0 27.890625 27.890625"
    xmlns="http://www.w3.org/2000/svg"
>
    <path
        fill="inherit"
        d="M13.9427 27.8864C21.6427 27.8864 27.8927 21.6464 27.8927 13.9464C27.8927 6.2464 21.6427 -0.0036 13.9427 -0.0036C6.2527 -0.0036 0.0027 6.2464 0.0027 13.9464C0.0027 21.6464 6.2527 27.8864 13.9427 27.8864ZM13.9427 25.5664C7.5227 25.5664 2.3227 20.3664 2.3227 13.9464C2.3227 7.5164 7.5227 2.3264 13.9427 2.3264C20.3727 2.3264 25.5627 7.5164 25.5627 13.9464C25.5627 20.3664 20.3727 25.5664 13.9427 25.5664ZM13.9227 18.3364C14.1627 18.3364 14.4127 18.2064 14.6027 18.0164L19.2327 13.3164C19.4527 13.1064 19.5227 12.8764 19.5227 12.6164C19.5227 12.1264 19.1727 11.7264 18.6627 11.7264C18.4127 11.7264 18.1727 11.8164 17.9827 11.9864L17.1327 12.8664L14.6827 15.6264L14.8327 13.1364V6.8664C14.8327 6.3264 14.4327 5.9464 13.9227 5.9464C13.3727 5.9464 13.0027 6.3264 13.0027 6.8664V13.1364L13.1527 15.6364L10.6627 12.8564L9.8827 11.9864C9.7027 11.8164 9.5027 11.7264 9.2127 11.7264C8.6927 11.7264 8.3427 12.0964 8.3427 12.6164C8.3427 12.8364 8.4527 13.1264 8.6127 13.3064L13.2327 18.0164C13.4227 18.2264 13.6727 18.3364 13.9227 18.3364ZM8.8027 21.2064H19.0727C19.6027 21.2064 19.9727 20.8264 19.9727 20.2864C19.9727 19.7664 19.6027 19.3864 19.0727 19.3864H8.8027C8.2727 19.3864 7.8927 19.7664 7.8927 20.2864C7.8927 20.8264 8.2727 21.2064 8.8027 21.2064Z"
        fillRule="evenodd"
        clipRule="evenodd"
    />
</svg>
        