
<svg
    viewBox={0 0 25.169921875 25.169921875}
    xmlns="http://www.w3.org/2000/svg"
>
    <path
        fill="inherit"
        d="M4.2937 25.1692H20.8737C23.7437 25.1692 25.1737 23.7592 25.1737 20.9492V4.2392C25.1737 1.4192 23.7437 -0.0008 20.8737 -0.0008H4.2937C1.4337 -0.0008 0.0037 1.4192 0.0037 4.2392V20.9492C0.0037 23.7592 1.4337 25.1692 4.2937 25.1692ZM4.3237 22.9692C2.9537 22.9692 2.2037 22.2392 2.2037 20.8192V4.3592C2.2037 2.9392 2.9537 2.1992 4.3237 2.1992H20.8537C22.2037 2.1992 22.9737 2.9392 22.9737 4.3592V20.8192C22.9737 22.2392 22.2037 22.9692 20.8537 22.9692ZM7.4637 7.2092H17.7337C18.2637 7.2092 18.6337 6.8192 18.6337 6.2992C18.6337 5.7592 18.2637 5.3692 17.7337 5.3692H7.4637C6.9337 5.3692 6.5637 5.7592 6.5637 6.2992C6.5637 6.8192 6.9337 7.2092 7.4637 7.2092ZM12.5737 20.6492C13.1137 20.6492 13.4937 20.2492 13.4937 19.7292V13.4492L13.3437 10.9492L15.7537 13.6892L16.6537 14.5892C16.8337 14.7792 17.0737 14.8592 17.3237 14.8592C17.8237 14.8592 18.1937 14.4492 18.1937 13.9592C18.1937 13.7092 18.1137 13.4792 17.8937 13.2592L13.2637 8.5692C13.0737 8.3692 12.8337 8.2592 12.5737 8.2592C12.3337 8.2592 12.0837 8.3492 11.8937 8.5692L7.2737 13.2792C7.1137 13.4692 7.0037 13.7392 7.0037 13.9592C7.0037 14.4792 7.3537 14.8592 7.8937 14.8592C8.1637 14.8592 8.3637 14.7792 8.5437 14.5892L9.3237 13.7292L11.8137 10.9392L11.6637 13.4492V19.7292C11.6637 20.2492 12.0337 20.6492 12.5737 20.6492Z"
        fillRule="evenodd"
        clipRule="evenodd"
    />
</svg>
        