<svg viewBox="0 0 33.564453125 22.203125" xmlns="http://www.w3.org/2000/svg"><path d="M4.3907 22.2027H19.0707C21.8207 22.2027 23.4607 20.6127 23.4607 17.8727V4.3227C23.4607 1.5827 21.9607 0.0027 19.2107 0.0027H4.3907C1.7607 0.0027 0.0007 1.5827 0.0007 4.3227V17.8727C0.0007 20.6127 1.6407 22.2027 4.3907 22.2027ZM25.3207 15.1327L30.3007 19.4427C30.7607 19.8527 31.3107 20.1127 31.8007 20.1127C32.8707 20.1127 33.5607 19.3327 33.5607 18.2127V3.9927C33.5607 2.8727 32.8707 2.0927 31.8007 2.0927C31.3107 2.0927 30.7607 2.3527 30.3007 2.7627L25.3207 7.0527ZM7.0407 16.9027C6.4407 16.9027 5.9907 16.4727 5.9907 15.9127C5.9907 15.6127 6.1007 15.3627 6.3307 15.1327L12.0907 9.3527L14.4807 7.1827L10.4307 7.4227H8.5207C7.9707 7.4227 7.5107 7.0127 7.5107 6.4627C7.5107 5.8827 7.9407 5.4127 8.5207 5.4127H16.3807C17.1307 5.4127 17.4907 5.7827 17.4907 6.5327V14.3727C17.4907 14.9427 17.0207 15.3827 16.4307 15.3827C15.8907 15.3827 15.4807 14.9127 15.4807 14.3727V12.4827L15.7207 8.4527L13.5507 10.8127L7.7907 16.5827C7.5707 16.8027 7.3507 16.9027 7.0407 16.9027Z" /></svg>