
<svg
    viewBox={0 0 25.169921875 25.169921875}
    xmlns="http://www.w3.org/2000/svg"
>
    <path
        fill="inherit"
        d="M4.2937 25.1692H20.8737C23.7437 25.1692 25.1737 23.7592 25.1737 20.9492V4.2392C25.1737 1.4192 23.7437 -0.0008 20.8737 -0.0008H4.2937C1.4337 -0.0008 0.0037 1.4192 0.0037 4.2392V20.9492C0.0037 23.7592 1.4337 25.1692 4.2937 25.1692ZM4.3237 22.9692C2.9537 22.9692 2.2037 22.2392 2.2037 20.8192V4.3592C2.2037 2.9392 2.9537 2.1992 4.3237 2.1992H20.8537C22.2037 2.1992 22.9737 2.9392 22.9737 4.3592V20.8192C22.9737 22.2392 22.2037 22.9692 20.8537 22.9692ZM12.5737 16.9692C12.8337 16.9692 13.0737 16.8392 13.2637 16.6492L17.8937 11.9492C18.1137 11.7392 18.1937 11.5092 18.1937 11.2492C18.1937 10.7592 17.8237 10.3592 17.3237 10.3592C17.0737 10.3592 16.8337 10.4492 16.6537 10.6192L15.7937 11.4992L13.3437 14.2592L13.4937 11.7692V5.4992C13.4937 4.9592 13.1137 4.5792 12.5737 4.5792C12.0337 4.5792 11.6637 4.9592 11.6637 5.4992V11.7692L11.8137 14.2692L9.3237 11.4892L8.5437 10.6192C8.3637 10.4492 8.1637 10.3592 7.8937 10.3592C7.3537 10.3592 7.0037 10.7292 7.0037 11.2492C7.0037 11.4692 7.1137 11.7592 7.2737 11.9392L11.8937 16.6492C12.0837 16.8592 12.3337 16.9692 12.5737 16.9692ZM7.4637 19.8392H17.7337C18.2637 19.8392 18.6337 19.4592 18.6337 18.9192C18.6337 18.3992 18.2637 18.0192 17.7337 18.0192H7.4637C6.9337 18.0192 6.5637 18.3992 6.5637 18.9192C6.5637 19.4592 6.9337 19.8392 7.4637 19.8392Z"
        fillRule="evenodd"
        clipRule="evenodd"
    />
</svg>
        