
<svg
    viewBox="0 0 27.890625 33.355463239707966"
    xmlns="http://www.w3.org/2000/svg"
>
    <path
        fill="inherit"
        d="M27.8927 16.6826C27.8927 9.7626 22.8327 4.0126 16.2127 2.9426V0.9726C16.2127 -0.0074 15.5427 -0.2574 14.7927 0.2726L10.4427 3.3426C9.8027 3.7926 9.8127 4.4426 10.4427 4.8826L14.8027 7.9426C15.5427 8.4626 16.2127 8.2026 16.2127 7.2526V5.3226C21.5427 6.3426 25.5627 11.0326 25.5627 16.6826C25.5627 20.0826 24.1027 23.1726 21.7427 25.3126C21.1227 25.8726 21.1527 26.4726 21.4627 26.9126C21.8327 27.4326 22.6427 27.6226 23.2527 27.0626C26.1127 24.5026 27.8927 20.7826 27.8927 16.6826ZM0.0027 16.6826C0.0027 23.6026 5.0627 29.3526 11.6727 30.4226V32.3726C11.6727 33.3626 12.3427 33.6226 13.0927 33.0726L17.4427 30.0226C18.0927 29.5726 18.0727 28.9226 17.4427 28.4826L13.0827 25.4226C12.3427 24.9026 11.6727 25.1426 11.6727 26.1126V28.0426C6.3427 27.0126 2.3227 22.3326 2.3227 16.6826C2.3227 13.2626 3.7827 10.1826 6.1627 8.0426C6.7627 7.4826 6.7427 6.8926 6.4227 6.4426C6.0527 5.9326 5.2527 5.7426 4.6327 6.3026C1.7727 8.8626 0.0027 12.5826 0.0027 16.6826Z"
        fillRule="evenodd"
        clipRule="evenodd"
    />
</svg>
        