
<svg
    viewBox={0 0 26.824727503966216 23.501980990521144}
    xmlns="http://www.w3.org/2000/svg"
>
    <path
        fill="inherit"
        d="M0.9755 17.2546C-0.0145 17.2546 -0.2545 17.9246 0.2755 18.6746L3.3355 23.0246C3.7855 23.6646 4.4455 23.6546 4.8855 23.0246L7.9455 18.6646C8.4655 17.9246 8.2155 17.2546 7.2455 17.2546H5.3355V6.9746C5.3355 4.6046 6.7655 3.1146 8.7355 3.1146C10.7255 3.1146 12.1955 4.5846 12.1955 6.9746V16.3346C12.1955 20.3046 14.6755 22.8246 18.0855 22.8246C21.4955 22.8246 23.9455 20.3046 23.9455 16.3346V6.2546H25.8555C26.8255 6.2546 27.0855 5.5846 26.5555 4.8246L23.5055 0.4646C23.0655 -0.1454 22.4055 -0.1654 21.9555 0.4646L18.8955 4.8146C18.3455 5.5846 18.6055 6.2546 19.5955 6.2546H21.4955V16.5346C21.4955 18.8846 20.0555 20.3746 18.0855 20.3746C16.1055 20.3746 14.6355 18.9146 14.6355 16.5346V7.1646C14.6355 3.2046 12.1555 0.6846 8.7355 0.6846C5.3355 0.6846 2.8855 3.2046 2.8855 7.1646V17.2546Z"
        fillRule="evenodd"
        clipRule="evenodd"
    />
</svg>
        