
<svg
    viewBox={0 0 20.193359375 20.1796875}
    xmlns="http://www.w3.org/2000/svg"
>
    <path
        fill="inherit"
        d="M0.0037 15.0836C0.0037 15.8136 0.5737 16.3836 1.2437 16.3836C1.9137 16.3836 2.4737 15.7736 2.4737 15.1336V10.0736L2.2237 3.6936L4.4837 6.2436L18.0437 19.8136C18.3037 20.0736 18.6037 20.1836 18.9037 20.1836C19.5937 20.1836 20.1937 19.5636 20.1937 18.9036C20.1937 18.6036 20.0537 18.2936 19.8137 18.0436L6.2637 4.4736L3.7237 2.2436L10.3937 2.4636H15.1437C15.7937 2.4636 16.3837 1.9036 16.3837 1.2436C16.3837 0.5836 15.8637 0.0036 15.0937 0.0036H1.3437C0.5237 0.0036 0.0137 0.5436 0.0137 1.3236Z"
        fillRule="evenodd"
        clipRule="evenodd"
    />
</svg>
        