
<svg
    viewBox="0 0 19.90049355241843 29.44921875"
    xmlns="http://www.w3.org/2000/svg"
>
    <path
        fill="inherit"
        d="M0.9761 20.9894H3.0561V21.0294C3.0561 26.0994 6.4061 29.4494 11.4661 29.4494C16.5461 29.4494 19.8961 26.0994 19.8961 21.0294V8.4394C19.8961 3.3494 16.5461 -0.0006 11.4661 -0.0006C6.4061 -0.0006 3.0561 3.3494 3.0561 8.4394V11.1394C3.0561 11.7594 3.5461 12.2494 4.1661 12.2494C4.7761 12.2494 5.2561 11.7594 5.2561 11.1394V8.4394C5.2561 4.7194 7.7561 2.1994 11.4661 2.1994C15.1961 2.1994 17.6961 4.7194 17.6961 8.4394V21.0294C17.6961 24.7494 15.1961 27.2494 11.4661 27.2494C7.7561 27.2494 5.2561 24.7494 5.2561 21.0294V20.9894H7.2561C8.2261 20.9894 8.4661 20.3194 7.9561 19.5694L4.8861 15.1994C4.4561 14.5694 3.7961 14.5594 3.3461 15.1994L0.2861 19.5494C-0.2639 20.3194 -0.0039 20.9894 0.9761 20.9894Z"
        fillRule="evenodd"
        clipRule="evenodd"
    />
</svg>
        