<svg viewBox="0 0 25.169921875 25.169921875" xmlns="http://www.w3.org/2000/svg"><path d="M4.2937 25.1692H20.8737C23.7437 25.1692 25.1737 23.7592 25.1737 20.9492V4.2392C25.1737 1.4192 23.7437 -0.0008 20.8737 -0.0008H4.2937C1.4337 -0.0008 0.0037 1.4192 0.0037 4.2392V20.9492C0.0037 23.7592 1.4337 25.1692 4.2937 25.1692ZM17.6537 19.1792C17.2837 19.5492 16.6437 19.5492 16.2837 19.1792L12.8237 15.6592C12.6437 15.4492 12.5537 15.1992 12.5537 14.9892C12.5537 14.4492 12.9037 14.0792 13.4437 14.0792C13.7037 14.0792 13.9137 14.1592 14.0937 14.3592L15.5437 15.8292L16.0637 16.4192L16.0337 15.7592V6.6192C16.0337 6.0992 16.4337 5.7192 16.9637 5.7192C17.4837 5.7192 17.8837 6.0992 17.8837 6.6192V15.7492L17.8537 16.4092L18.3937 15.8292L19.8337 14.3592C20.0037 14.1892 20.2337 14.0792 20.4837 14.0792C21.0237 14.0792 21.3937 14.4492 21.3937 14.9892C21.3937 15.2192 21.2637 15.4592 21.0937 15.6592ZM7.5437 5.9992C7.9437 5.6092 8.5337 5.6292 8.9037 5.9992L12.3637 9.5392C12.5237 9.7092 12.6437 9.9692 12.6437 10.1992C12.6437 10.7292 12.2637 11.1192 11.7437 11.1192C11.4937 11.1192 11.2637 11.0192 11.1037 10.8592L9.6537 9.3392L9.1237 8.7592L9.1637 9.4292V18.5692C9.1637 19.0692 8.7637 19.4592 8.2137 19.4592C7.6937 19.4592 7.3137 19.0692 7.3137 18.5692V9.4492L7.3237 8.7592L6.7937 9.3392L5.3437 10.8292C5.1837 11.0092 4.9537 11.1192 4.7137 11.1192C4.1837 11.1192 3.7837 10.7192 3.7837 10.1992C3.7837 9.9892 3.9237 9.7392 4.0737 9.5392Z" /></svg>