
<svg
    viewBox={0 0 25.169921875 25.169921875}
    xmlns="http://www.w3.org/2000/svg"
>
    <path
        fill="inherit"
        d="M4.2937 25.1692H20.8737C23.7437 25.1692 25.1737 23.7592 25.1737 20.9492V4.2392C25.1737 1.4192 23.7437 -0.0008 20.8737 -0.0008H4.2937C1.4337 -0.0008 0.0037 1.4192 0.0037 4.2392V20.9492C0.0037 23.7592 1.4337 25.1692 4.2937 25.1692ZM21.3537 12.5792C21.3537 12.8792 21.2337 13.1092 20.9637 13.3992L16.8837 17.4892C16.7037 17.6792 16.4437 17.7692 16.1437 17.7692C15.5737 17.7692 15.1337 17.3392 15.1337 16.7492C15.1337 16.4292 15.2537 16.1892 15.4337 15.9992L16.5037 14.9392L18.2137 13.5192L15.2337 13.6492H9.9537L6.9737 13.5192L8.6637 14.9392L9.7337 15.9992C9.9137 16.1892 10.0337 16.4292 10.0337 16.7492C10.0337 17.3392 9.5937 17.7692 9.0237 17.7692C8.7237 17.7692 8.4637 17.6792 8.2837 17.4892L4.2137 13.3992C3.9337 13.1092 3.8137 12.8792 3.8137 12.5792C3.8137 12.2592 3.9337 12.0292 4.2137 11.7392L8.2837 7.6692C8.4637 7.4792 8.7237 7.3692 9.0237 7.3692C9.5937 7.3692 10.0337 7.8292 10.0337 8.4092C10.0337 8.7192 9.9237 8.9692 9.7337 9.1692L8.6637 10.2092L6.9637 11.6392L9.9537 11.5292H15.2337L18.2237 11.6392L16.5037 10.2092L15.4337 9.1692C15.2437 8.9692 15.1337 8.7192 15.1337 8.4092C15.1337 7.8292 15.5737 7.3692 16.1437 7.3692C16.4437 7.3692 16.7037 7.4792 16.8837 7.6692L20.9637 11.7392C21.2337 12.0292 21.3537 12.2592 21.3537 12.5792Z"
        fillRule="evenodd"
        clipRule="evenodd"
    />
</svg>
        