
<svg
    viewBox="0 0 36.28515625 25.07421875"
    xmlns="http://www.w3.org/2000/svg"
>
    <path
        fill="inherit"
        d="M13.3578 25.0782C14.2878 25.0782 14.9578 24.3882 14.9578 23.4782V21.0382L18.2978 24.1882C18.9478 24.7982 19.4978 25.0782 20.1678 25.0782C21.0978 25.0782 21.7678 24.3882 21.7678 23.4782V18.2482H22.1578C27.4678 18.2482 30.7978 19.5882 33.1978 24.0582C33.6778 24.9382 34.2978 25.0782 34.8778 25.0782C35.5978 25.0782 36.2878 24.4182 36.2878 23.2382C36.2878 13.1382 31.9878 6.8382 22.1578 6.8382H21.7678V1.6682C21.7678 0.7482 21.0978 -0.0018 20.1378 -0.0018C19.4678 -0.0018 19.0178 0.2882 18.2978 0.9682L14.9578 4.0882V1.6682C14.9578 0.7482 14.2878 -0.0018 13.3278 -0.0018C12.6578 -0.0018 12.2078 0.2882 11.4878 0.9682L0.6878 11.0582C0.1478 11.5682 -0.0022 12.0682 -0.0022 12.5382C-0.0022 12.9882 0.1678 13.5082 0.6878 13.9982L11.4878 24.1882C12.1278 24.7982 12.6878 25.0782 13.3578 25.0782ZM19.3878 22.1382C19.3078 22.1382 19.2178 22.0982 19.1378 22.0082L9.4078 12.7982C9.2978 12.6882 9.2578 12.6182 9.2578 12.5382C9.2578 12.4582 9.2978 12.3682 9.4078 12.2782L19.1378 2.9382C19.2078 2.8882 19.2878 2.8282 19.3778 2.8282C19.4978 2.8282 19.5678 2.9082 19.5678 3.0182V8.4482C19.5678 8.7682 19.7178 8.8982 20.0278 8.8982H21.8578C31.2378 8.8982 34.0678 15.4082 34.3478 21.8582C34.3478 21.9682 34.2978 22.0082 34.2378 22.0082C34.1778 22.0082 34.1478 21.9682 34.1078 21.8782C32.4978 18.4482 28.3578 16.1882 21.8578 16.1882H20.0278C19.7178 16.1882 19.5678 16.3282 19.5678 16.6382V21.9282C19.5678 22.0482 19.4978 22.1382 19.3878 22.1382ZM12.3278 22.0082L2.5978 12.7982C2.4878 12.6882 2.4478 12.6182 2.4478 12.5382C2.4478 12.4582 2.4878 12.3682 2.5978 12.2782L12.3278 2.9382C12.3978 2.8882 12.4778 2.8282 12.5678 2.8282C12.6878 2.8282 12.7578 2.9082 12.7578 3.0182V6.1382L7.5078 11.0582C6.9678 11.5682 6.8078 12.0682 6.8078 12.5382C6.8078 12.9882 6.9878 13.5082 7.5078 13.9982L12.7578 18.9582V21.9282C12.7578 22.0482 12.6878 22.1382 12.5678 22.1382C12.4978 22.1382 12.4178 22.0982 12.3278 22.0082Z"
        fillRule="evenodd"
        clipRule="evenodd"
    />
</svg>
        