
<svg
    viewBox="0 0 24.14453125 29.435546875"
    xmlns="http://www.w3.org/2000/svg"
>
    <path
        fill="inherit"
        d="M0.0027 17.3627C0.0027 24.0327 5.4027 29.4327 12.0727 29.4327C18.7427 29.4327 24.1427 24.0327 24.1427 17.3627C24.1427 16.6927 23.6827 16.2127 23.0127 16.2127C22.3627 16.2127 21.9427 16.6927 21.9427 17.3527C21.9427 22.8027 17.5227 27.2227 12.0727 27.2227C6.6127 27.2227 2.2027 22.8027 2.2027 17.3527C2.2027 11.8927 6.6127 7.4827 12.0727 7.4827C13.1227 7.4827 14.0827 7.5427 14.8927 7.7427L10.8127 11.7827C10.5827 11.9927 10.5027 12.2727 10.5027 12.5627C10.5027 13.1927 10.9627 13.6627 11.5627 13.6627C11.9127 13.6627 12.1527 13.5327 12.3627 13.3427L17.9927 7.6827C18.2427 7.4527 18.3427 7.1827 18.3427 6.8627C18.3427 6.5627 18.2227 6.2627 17.9927 6.0427L12.3727 0.3327C12.1727 0.1127 11.9127 0.0027 11.5627 0.0027C10.9627 0.0027 10.5027 0.4927 10.5027 1.1227C10.5027 1.4127 10.5927 1.6827 10.8027 1.9027L14.4227 5.5227C13.7227 5.3827 12.9027 5.2927 12.0727 5.2927C5.4027 5.2927 0.0027 10.6927 0.0027 17.3627Z"
        fillRule="evenodd"
        clipRule="evenodd"
    />
</svg>
        