
<svg
    viewBox="0 0 25.169921875 25.169921875"
    xmlns="http://www.w3.org/2000/svg"
>
    <path
        fill="inherit"
        d="M4.2937 25.1666H20.8737C23.7437 25.1666 25.1737 23.7466 25.1737 20.9366V4.2266C25.1737 1.4066 23.7437 -0.0034 20.8737 -0.0034H4.2937C1.4337 -0.0034 0.0037 1.4066 0.0037 4.2266V20.9366C0.0037 23.7466 1.4337 25.1666 4.2937 25.1666ZM19.5637 14.0966C19.5637 17.3666 17.3537 19.4966 14.0537 19.4966H12.2137C11.5537 19.4966 11.1137 19.0866 11.1137 18.4866C11.1137 17.8666 11.5437 17.4566 12.1837 17.4566H14.0537C16.1237 17.4566 17.5237 16.1166 17.5237 14.0966C17.5237 12.2366 16.1437 10.9766 14.0637 10.9766H10.0737L8.6637 10.9266L9.3137 11.3766L10.9637 12.9766C11.1737 13.1766 11.2937 13.4266 11.2937 13.7266C11.2937 14.3166 10.8437 14.7766 10.2837 14.7766C9.9637 14.7766 9.7237 14.6666 9.5337 14.4766L5.9437 10.8166C5.6837 10.5566 5.5737 10.2566 5.5737 9.9566C5.5737 9.6566 5.7037 9.3366 5.9437 9.0966L9.5137 5.4666C9.7237 5.2666 9.9537 5.1566 10.2637 5.1566C10.8537 5.1566 11.2937 5.6166 11.2937 6.2066C11.2937 6.4766 11.1737 6.7566 10.9637 6.9366L9.5837 8.2666L8.6537 9.0066L10.0737 8.9366H14.0637C17.3637 8.9366 19.5637 11.0066 19.5637 14.0966Z"
        fillRule="evenodd"
        clipRule="evenodd"
    />
</svg>
        