
<svg
    viewBox={0 0 28.287109375 20.7265625}
    xmlns="http://www.w3.org/2000/svg"
>
    <path
        fill="inherit"
        d="M15.4537 20.7241C15.7737 20.7241 16.0637 20.6141 16.3337 20.3541L25.4337 11.2841C25.6637 11.0641 25.8037 10.7841 25.8437 10.5041V19.5541C25.8437 20.2441 26.3437 20.7241 27.0537 20.7241C27.7637 20.7241 28.2837 20.2441 28.2837 19.5541V1.2141C28.2837 0.5041 27.7637 0.0041 27.0537 0.0041C26.3437 0.0041 25.8437 0.5041 25.8437 1.2141V10.2441C25.8037 9.9541 25.6637 9.6841 25.4337 9.4441L16.3337 0.3841C16.0637 0.1241 15.7737 0.0041 15.4537 0.0041C14.7837 0.0041 14.2637 0.5041 14.2637 1.1741C14.2637 1.5041 14.3737 1.8341 14.5837 2.0541L17.6537 5.1541L22.1337 9.2541L19.2237 9.1441H1.2037C0.4937 9.1441 0.0037 9.6541 0.0037 10.3641C0.0037 11.0741 0.4937 11.5941 1.2037 11.5941H19.2237L22.1437 11.4841L17.6537 15.5741L14.5837 18.6941C14.3737 18.9041 14.2637 19.2341 14.2637 19.5541C14.2637 20.2341 14.7837 20.7241 15.4537 20.7241Z"
        fillRule="evenodd"
        clipRule="evenodd"
    />
</svg>
        