<svg viewBox="0 0 26.46875 30.447265625" xmlns="http://www.w3.org/2000/svg"><path d="M6.9682 30.4447H19.5082C21.4682 30.4447 22.7782 29.1747 22.8682 27.2247L23.8182 7.3447H25.4582C26.0182 7.3447 26.4682 6.8647 26.4682 6.3047C26.4682 5.7447 26.0182 5.2747 25.4582 5.2747H19.2082V3.1847C19.2082 1.2047 17.9282 0.0047 15.8182 0.0047H10.6182C8.5182 0.0047 7.2282 1.2047 7.2282 3.1847V5.2747H1.0282C0.4782 5.2747 -0.0018 5.7447 -0.0018 6.3047C-0.0018 6.8747 0.4782 7.3447 1.0282 7.3447H2.6482L3.6082 27.2347C3.7082 29.1847 4.9882 30.4447 6.9682 30.4447ZM9.4082 3.3247C9.4082 2.5447 9.9482 2.0347 10.7782 2.0347H15.6682C16.4882 2.0347 17.0382 2.5447 17.0382 3.3247V5.2747H9.4082ZM13.2382 11.8847C13.4782 11.8847 13.6982 11.9747 13.9582 12.2047L17.7982 15.9447C18.0082 16.1047 18.1182 16.3347 18.1182 16.5947C18.1182 17.1147 17.7082 17.5147 17.1882 17.5147C16.9382 17.5147 16.6682 17.3947 16.4882 17.1947L14.6982 15.2847L14.1782 14.7547L14.2482 16.2647V22.8547C14.2482 23.3747 13.7682 23.8447 13.2382 23.8447C12.6982 23.8447 12.2082 23.3747 12.2082 22.8547V16.2647L12.2782 14.7347L11.7482 15.2847L9.9682 17.1947C9.7882 17.3947 9.4982 17.5147 9.2582 17.5147C8.7382 17.5147 8.3382 17.1147 8.3382 16.5947C8.3382 16.3347 8.4482 16.1047 8.6382 15.9447L12.4982 12.2047C12.7582 11.9747 12.9782 11.8847 13.2382 11.8847Z" /></svg>