
<svg
    viewBox="0 0 25.169921875 25.169921875"
    xmlns="http://www.w3.org/2000/svg"
>
    <path
        fill="inherit"
        d="M4.2937 25.1692H20.8737C23.7437 25.1692 25.1737 23.7592 25.1737 20.9492V4.2392C25.1737 1.4192 23.7437 -0.0008 20.8737 -0.0008H4.2937C1.4337 -0.0008 0.0037 1.4192 0.0037 4.2392V20.9492C0.0037 23.7592 1.4337 25.1692 4.2937 25.1692ZM4.3237 22.9692C2.9537 22.9692 2.2037 22.2392 2.2037 20.8192V4.3592C2.2037 2.9392 2.9537 2.1992 4.3237 2.1992H20.8537C22.2037 2.1992 22.9737 2.9392 22.9737 4.3592V20.8192C22.9737 22.2392 22.2037 22.9692 20.8537 22.9692ZM12.6037 5.6892C12.3337 5.6892 12.0837 5.7692 11.8137 6.0392L7.3137 10.3892C7.0937 10.5992 6.9837 10.8192 6.9837 11.1192C6.9837 11.6592 7.3937 12.0692 7.9737 12.0692C8.2337 12.0692 8.5337 11.9592 8.7237 11.7392L10.8037 9.5192L11.6037 8.6792L11.5237 10.7192V18.4192C11.5237 18.9892 12.0137 19.4692 12.6037 19.4692C13.1937 19.4692 13.7037 18.9892 13.7037 18.4192V10.7192L13.6037 8.6792L14.4137 9.5192L16.4837 11.7392C16.6837 11.9592 16.9637 12.0692 17.2237 12.0692C17.8037 12.0692 18.2237 11.6592 18.2237 11.1192C18.2237 10.8192 18.1137 10.5992 17.9137 10.3892L13.3937 6.0392C13.1237 5.7692 12.8937 5.6892 12.6037 5.6892Z"
        fillRule="evenodd"
        clipRule="evenodd"
    />
</svg>
        