
<svg
    viewBox="0 0 27.958984375 34.3984375"
    xmlns="http://www.w3.org/2000/svg"
>
    <path
        fill="inherit"
        d="M0.0037 30.104C0.0037 32.964 1.4037 34.394 4.2337 34.394H17.0937C19.9237 34.394 21.3237 32.954 21.3237 30.104V27.574H23.7237C26.5337 27.574 27.9637 26.124 27.9637 23.284V4.294C27.9637 1.454 26.5337 0.004 23.7237 0.004H10.8737C8.0537 0.004 6.6337 1.434 6.6337 4.294V6.824H4.2337C1.4037 6.824 0.0037 8.244 0.0037 11.114ZM13.0837 3.884V3.594C13.0837 3.174 13.3537 2.794 13.9637 2.794H20.6337C21.2237 2.794 21.5037 3.174 21.5037 3.594V3.884C21.5037 4.294 21.2237 4.694 20.6337 4.694H13.9637C13.3537 4.694 13.0837 4.294 13.0837 3.884ZM2.2037 30.064V11.144C2.2037 9.794 2.9237 9.024 4.3337 9.024H16.9837C18.3937 9.024 19.1237 9.794 19.1237 11.144V30.064C19.1237 31.434 18.3937 32.194 16.9837 32.194H4.3337C2.9237 32.194 2.2037 31.434 2.2037 30.064ZM10.7037 14.584C9.2837 14.584 7.9737 15.094 7.0537 15.844C6.5237 16.244 6.5037 16.804 6.7637 17.144C7.0137 17.454 7.5037 17.584 8.0537 17.204C8.7637 16.634 9.6637 16.274 10.7037 16.274C12.7537 16.274 14.4737 17.714 14.9137 19.644H13.9637C13.4537 19.644 13.3437 20.124 13.6137 20.504L15.3637 22.924C15.6537 23.324 16.1437 23.354 16.4437 22.924L18.1737 20.504C18.4437 20.124 18.3237 19.644 17.8437 19.644H16.6437C16.1737 16.774 13.6837 14.584 10.7037 14.584ZM3.5537 21.564H4.7537C5.2237 24.434 7.7137 26.624 10.7037 26.624C12.1137 26.624 13.4237 26.114 14.3437 25.364C14.8737 24.964 14.8937 24.404 14.6337 24.064C14.3837 23.744 13.8937 23.624 13.3437 24.004C12.6337 24.564 11.7337 24.934 10.7037 24.934C8.6437 24.934 6.9137 23.484 6.4837 21.564H7.4337C7.9437 21.564 8.0537 21.084 7.7837 20.704L6.0337 18.284C5.7437 17.884 5.2537 17.854 4.9537 18.284L3.2237 20.704C2.9537 21.084 3.0737 21.564 3.5537 21.564Z"
        fillRule="evenodd"
        clipRule="evenodd"
    />
</svg>
        