
<svg
    viewBox="0 0 27.890625 30.544813437289534"
    xmlns="http://www.w3.org/2000/svg"
>
    <path
        fill="inherit"
        d="M13.9427 30.5406C21.6427 30.5406 27.8927 24.3006 27.8927 16.6006C27.8927 11.9106 25.6027 7.8506 22.0827 5.3106C21.4827 4.8406 20.7027 5.0106 20.3527 5.5506C20.0127 6.1306 20.1927 6.7706 20.7527 7.1906C23.6527 9.2706 25.5627 12.7006 25.5627 16.6006C25.5627 23.0206 20.3727 28.2206 13.9427 28.2206C7.5227 28.2206 2.3227 23.0206 2.3227 16.6006C2.3227 11.0506 6.1627 6.4706 11.3027 5.2806V7.2506C11.3027 8.2206 11.9727 8.4606 12.7327 7.9406L17.0927 4.8806C17.7027 4.4406 17.7227 3.7906 17.0927 3.3406L12.7427 0.2706C11.9727 -0.2594 11.3027 -0.0094 11.3027 0.9706V2.9106C4.9127 4.1206 0.0027 9.7806 0.0027 16.6006C0.0027 24.3006 6.2527 30.5406 13.9427 30.5406Z"
        fillRule="evenodd"
        clipRule="evenodd"
    />
</svg>
        