
<svg
    viewBox={0 0 29.4765625 25.07421875}
    xmlns="http://www.w3.org/2000/svg"
>
    <path
        fill="inherit"
        d="M29.4798 12.5382C29.4798 12.0682 29.3098 11.5682 28.7798 11.0582L17.9898 0.9682C17.2698 0.2882 16.8198 -0.0018 16.1498 -0.0018C15.1898 -0.0018 14.5098 0.7482 14.5098 1.6682V6.8382H3.4198C1.2598 6.8382 -0.0002 8.0682 -0.0002 10.1882V14.8982C-0.0002 17.0182 1.2598 18.2482 3.4198 18.2482H14.5098V23.4782C14.5098 24.3882 15.1898 25.0782 16.1198 25.0782C16.7898 25.0782 17.3398 24.7982 17.9898 24.1882L28.7798 13.9982C29.2998 13.5082 29.4798 12.9882 29.4798 12.5382ZM27.0198 12.5382C27.0198 12.6182 26.9898 12.6882 26.8798 12.7982L17.1298 22.0082C17.0598 22.0982 16.9798 22.1382 16.8998 22.1382C16.7898 22.1382 16.7098 22.0482 16.7098 21.9282V16.6382C16.7098 16.3282 16.5698 16.1882 16.2598 16.1882H3.4498C2.5698 16.1882 2.0598 15.6782 2.0598 14.7882V10.2982C2.0598 9.4082 2.5698 8.8982 3.4498 8.8982H16.2598C16.5698 8.8982 16.7098 8.7682 16.7098 8.4482V3.0182C16.7098 2.9082 16.7898 2.8282 16.9098 2.8282C16.9898 2.8282 17.0798 2.8882 17.1398 2.9382L26.8798 12.2782C26.9698 12.3682 27.0198 12.4582 27.0198 12.5382Z"
        fillRule="evenodd"
        clipRule="evenodd"
    />
</svg>
        