
<svg
    viewBox={0 0 27.890625 27.890625}
    xmlns="http://www.w3.org/2000/svg"
>
    <path
        fill="inherit"
        d="M13.9427 27.8864C21.6427 27.8864 27.8927 21.6464 27.8927 13.9464C27.8927 6.2464 21.6427 -0.0036 13.9427 -0.0036C6.2527 -0.0036 0.0027 6.2464 0.0027 13.9464C0.0027 21.6464 6.2527 27.8864 13.9427 27.8864ZM13.9427 25.5664C7.5227 25.5664 2.3227 20.3664 2.3227 13.9464C2.3227 7.5164 7.5227 2.3264 13.9427 2.3264C20.3727 2.3264 25.5627 7.5164 25.5627 13.9464C25.5627 20.3664 20.3727 25.5664 13.9427 25.5664ZM7.5227 9.1964C7.1627 9.5564 7.1827 10.1864 7.5227 10.5264L10.9627 13.8864C11.1427 14.0364 11.3927 14.1464 11.6027 14.1464C12.1127 14.1464 12.4827 13.7964 12.4827 13.2864C12.4827 13.0464 12.3827 12.8264 12.2227 12.6564L10.7727 11.2564L10.2027 10.7164L10.8427 10.7564H19.7127C20.2227 10.7564 20.6027 10.3664 20.6027 9.8564C20.6027 9.3564 20.2327 8.9864 19.7127 8.9864H10.8527L10.2127 8.9964L10.7727 8.4864L12.2227 7.0864C12.3827 6.9164 12.4827 6.6864 12.4827 6.4564C12.4827 5.9364 12.1127 5.5764 11.6027 5.5764C11.3927 5.5764 11.1327 5.6864 10.9627 5.8664ZM20.3327 18.7064C20.7027 18.3364 20.6727 17.7764 20.3327 17.4164L16.8827 14.0564C16.7327 13.8864 16.4727 13.7764 16.2427 13.7764C15.7227 13.7764 15.3627 14.1364 15.3627 14.6464C15.3627 14.8864 15.4627 15.1064 15.6227 15.2764L17.0927 16.6764L17.6627 17.2164L17.0127 17.1764H8.1327C7.6427 17.1764 7.2627 17.5364 7.2627 18.0564C7.2627 18.5664 7.6327 18.9464 8.1327 18.9464H16.9927L17.6627 18.9364L17.0927 19.4364L15.6427 20.8464C15.4727 21.0264 15.3627 21.2364 15.3627 21.4764C15.3627 21.9864 15.7527 22.3564 16.2427 22.3564C16.4427 22.3564 16.7027 22.2464 16.8827 22.0764Z"
        fillRule="evenodd"
        clipRule="evenodd"
    />
</svg>
        