
<svg
    viewBox={0 0 25.169921875 25.169921875}
    xmlns="http://www.w3.org/2000/svg"
>
    <path
        fill="inherit"
        d="M4.2937 25.1733H20.8737C23.7437 25.1733 25.1737 23.7433 25.1737 20.9333V4.2233C25.1737 1.4033 23.7437 0.0033 20.8737 0.0033H4.2937C1.4337 0.0033 0.0037 1.4033 0.0037 4.2233V20.9333C0.0037 23.7433 1.4337 25.1733 4.2937 25.1733ZM4.3237 22.9733C2.9537 22.9733 2.2037 22.2333 2.2037 20.8133V4.3433C2.2037 2.9233 2.9537 2.2033 4.3237 2.2033H20.8537C22.2037 2.2033 22.9737 2.9233 22.9737 4.3433V20.8133C22.9737 22.2333 22.2037 22.9733 20.8537 22.9733ZM13.8737 5.5333C10.5937 5.5333 8.6037 7.9033 8.6037 11.1033V15.1733L8.6437 16.8033L7.7937 15.7233L6.4237 14.3033C6.2637 14.1233 6.0037 14.0033 5.7137 14.0033C5.1537 14.0033 4.7137 14.4233 4.7137 14.9833C4.7137 15.2733 4.8137 15.4933 5.0137 15.6833L8.7137 19.3233C8.9437 19.5333 9.2237 19.6733 9.5437 19.6733C9.8737 19.6733 10.1437 19.5333 10.3737 19.3233L14.0937 15.6633C14.2837 15.4733 14.3837 15.2533 14.3837 14.9733C14.3837 14.4233 13.9637 14.0033 13.3837 14.0033C13.1237 14.0033 12.8637 14.0933 12.6837 14.2833L11.0437 16.0133L10.4437 16.8033L10.5137 15.1733V11.1033C10.5137 9.0933 11.6637 7.5433 13.7637 7.5433C15.9237 7.5433 17.2537 9.0533 17.2537 11.1133V13.0133C17.2537 13.5933 17.5937 14.0533 18.2337 14.0533C18.8637 14.0533 19.2137 13.5933 19.2137 12.9833V11.1133C19.2137 7.9133 17.1537 5.5333 13.8737 5.5333Z"
        fillRule="evenodd"
        clipRule="evenodd"
    />
</svg>
        