
<svg
    viewBox={0 0 27.890625 27.890625}
    xmlns="http://www.w3.org/2000/svg"
>
    <path
        fill="inherit"
        d="M13.9427 27.8864C21.6427 27.8864 27.8927 21.6464 27.8927 13.9464C27.8927 6.2464 21.6427 -0.0036 13.9427 -0.0036C6.2527 -0.0036 0.0027 6.2464 0.0027 13.9464C0.0027 21.6464 6.2527 27.8864 13.9427 27.8864ZM13.9427 25.5664C7.5227 25.5664 2.3227 20.3664 2.3227 13.9464C2.3227 7.5164 7.5227 2.3264 13.9427 2.3264C20.3727 2.3264 25.5627 7.5164 25.5627 13.9464C25.5627 20.3664 20.3727 25.5664 13.9427 25.5664ZM13.9427 20.8364C14.2227 20.8364 14.4627 20.7564 14.7427 20.4764L19.2327 16.1364C19.4527 15.9264 19.5627 15.7064 19.5627 15.4064C19.5627 14.8464 19.1427 14.4464 18.5627 14.4464C18.3027 14.4464 18.0227 14.5564 17.8327 14.7764L15.7527 16.9964L14.9427 17.8464L15.0427 15.7864V8.1064C15.0427 7.5364 14.5327 7.0564 13.9427 7.0564C13.3527 7.0564 12.8627 7.5364 12.8627 8.1064V15.7864L12.9427 17.8464L12.1427 16.9964L10.0627 14.7764C9.8727 14.5564 9.5727 14.4464 9.3127 14.4464C8.7327 14.4464 8.3227 14.8464 8.3227 15.4064C8.3227 15.7064 8.4327 15.9264 8.6427 16.1364L13.1527 20.4764C13.4227 20.7564 13.6727 20.8364 13.9427 20.8364Z"
        fillRule="evenodd"
        clipRule="evenodd"
    />
</svg>
        