
<svg
    viewBox={0 0 25.51171875 25.908203125}
    xmlns="http://www.w3.org/2000/svg"
>
    <path
        fill="inherit"
        d="M16.7937 -0.0006C11.5637 -0.0006 7.9537 3.5394 7.9537 9.7894V19.0294L8.1037 22.2294L5.8937 19.6494L2.0337 15.7094C1.8337 15.4894 1.5537 15.3694 1.2037 15.3694C0.4937 15.3694 0.0037 15.8594 0.0037 16.5794C0.0037 16.8894 0.1537 17.2394 0.3837 17.4694L8.2737 25.5094C8.5337 25.7894 8.8437 25.9094 9.1837 25.9094C9.5137 25.9094 9.8337 25.7894 10.0937 25.5094L17.9737 17.4694C18.2237 17.2394 18.3637 16.8894 18.3637 16.5794C18.3637 15.8594 17.8737 15.3694 17.1537 15.3694C16.8037 15.3694 16.5437 15.4894 16.3237 15.7094L12.4837 19.6494L10.2637 22.2294L10.4037 19.0294V9.5694C10.4037 4.9094 12.9737 2.4494 16.6537 2.4494C20.3437 2.4494 23.0737 4.9094 23.0737 9.5694V12.7194C23.0737 13.4694 23.6237 13.9594 24.2937 13.9594C24.9637 13.9594 25.5137 13.4694 25.5137 12.7194V9.5694C25.5137 3.4494 22.0237 -0.0006 16.7937 -0.0006Z"
        fillRule="evenodd"
        clipRule="evenodd"
    />
</svg>
        