
<svg
    viewBox={0 0 25.169921875 25.169921875}
    xmlns="http://www.w3.org/2000/svg"
>
    <path
        fill="inherit"
        d="M4.2937 25.1692H20.8737C23.7437 25.1692 25.1737 23.7592 25.1737 20.9492V4.2392C25.1737 1.4192 23.7437 -0.0008 20.8737 -0.0008H4.2937C1.4337 -0.0008 0.0037 1.4192 0.0037 4.2392V20.9492C0.0037 23.7592 1.4337 25.1692 4.2937 25.1692ZM18.8837 12.5792C18.3037 12.5792 17.8537 12.1292 17.8537 11.5492V10.8392L17.9937 8.5592L14.8737 11.8392C14.4337 12.3092 13.7437 12.2892 13.3037 11.8492C12.8837 11.4292 12.8937 10.7092 13.3137 10.2992L16.5837 7.1892L14.3737 7.3292H13.6537C13.0837 7.3292 12.6237 6.8792 12.6237 6.2992C12.6237 5.7292 13.0837 5.2592 13.6537 5.2592H18.7037C19.4737 5.2592 19.9237 5.6092 19.9237 6.4792V11.5492C19.9237 12.1292 19.4537 12.5792 18.8837 12.5792ZM11.5437 19.9192H6.4837C5.7137 19.9192 5.2737 19.5792 5.2737 18.6992V13.6292C5.2737 13.0592 5.7237 12.6092 6.3037 12.6092C6.8737 12.6092 7.3437 13.0592 7.3437 13.6292V14.3392L7.2037 16.6292L10.3237 13.3392C10.7437 12.8792 11.4537 12.8892 11.8837 13.3292C12.3037 13.7492 12.2937 14.4792 11.8637 14.8892L8.6137 17.9892L10.8237 17.8592H11.5437C12.1137 17.8592 12.5637 18.3092 12.5637 18.8792C12.5637 19.4592 12.1137 19.9192 11.5437 19.9192Z"
        fillRule="evenodd"
        clipRule="evenodd"
    />
</svg>
        