<svg viewBox="0 0 25.087890625 29.4765625" xmlns="http://www.w3.org/2000/svg"><path d="M12.5337 29.4757C13.0037 29.4757 13.5237 29.2957 14.0137 28.7757L24.1037 17.9957C24.7837 17.2657 25.0837 16.8157 25.0837 16.1457C25.0837 15.1857 24.3237 14.5057 23.4037 14.5057H18.2337V3.4157C18.2337 1.2457 17.0037 -0.0043 14.8937 -0.0043H10.1737C8.0537 -0.0043 6.8237 1.2457 6.8237 3.4157V14.5057H1.6037C0.6837 14.5057 0.0037 15.1857 0.0037 16.1157C0.0037 16.7857 0.2737 17.3357 0.8937 17.9957L11.0737 28.7757C11.5637 29.2957 12.0837 29.4757 12.5337 29.4757ZM12.5337 27.0157C12.4537 27.0157 12.3837 26.9857 12.2737 26.8757L3.0637 17.1357C2.9837 17.0457 2.9437 16.9757 2.9437 16.8957C2.9437 16.7857 3.0237 16.7057 3.1437 16.7057H8.4337C8.7537 16.7057 8.8837 16.5657 8.8837 16.2557V3.4457C8.8837 2.5657 9.3937 2.0657 10.2837 2.0657H14.7937C15.6837 2.0657 16.1737 2.5657 16.1737 3.4457V16.2557C16.1737 16.5657 16.3137 16.7057 16.6237 16.7057H22.0537C22.1737 16.7057 22.2437 16.7857 22.2437 16.8957C22.2437 16.9957 22.2037 17.0757 22.1337 17.1457L12.7937 26.8757C12.7037 26.9757 12.6237 27.0157 12.5337 27.0157Z" /></svg>