
<svg
    viewBox="0 0 27.890625 27.890625"
    xmlns="http://www.w3.org/2000/svg"
>
    <path
        fill="inherit"
        d="M13.9427 27.8864C21.6427 27.8864 27.8927 21.6264 27.8927 13.9464C27.8927 6.2464 21.6427 -0.0036 13.9427 -0.0036C6.2627 -0.0036 0.0027 6.2464 0.0027 13.9464C0.0027 21.6264 6.2627 27.8864 13.9427 27.8864ZM20.0027 20.1664C19.4727 20.1664 19.0727 19.7864 19.0727 19.2364V8.6364C19.0727 8.0964 19.4727 7.7064 20.0027 7.7064C20.5727 7.7064 20.9727 8.0964 20.9727 8.6364V19.2364C20.9727 19.7864 20.5727 20.1664 20.0027 20.1664ZM5.2227 13.9564C5.2227 13.4164 5.6227 13.0164 6.1627 13.0164H12.6227L15.2027 13.1664L12.3327 10.6264L11.4527 9.7664C11.2527 9.5864 11.1727 9.3264 11.1727 9.0664C11.1727 8.5264 11.5927 8.1664 12.1127 8.1664C12.3627 8.1664 12.6027 8.2464 12.8127 8.4664L17.6827 13.2364C17.8727 13.4564 17.9927 13.6864 17.9927 13.9564C17.9927 14.2164 17.8927 14.4664 17.6827 14.6664L12.8227 19.3964C12.6327 19.5964 12.3327 19.7164 12.1127 19.7164C11.5627 19.7164 11.1727 19.3464 11.1727 18.7964C11.1727 18.5164 11.2527 18.2764 11.4527 18.1164L12.3427 17.2964L15.2127 14.7564L12.6227 14.9164H6.1627C5.6227 14.9164 5.2227 14.5364 5.2227 13.9564Z"
        fillRule="evenodd"
        clipRule="evenodd"
    />
</svg>
        