
<svg
    viewBox="0 0 31.0078125 28.505859375"
    xmlns="http://www.w3.org/2000/svg"
>
    <path
        fill="inherit"
        d="M5.4127 28.5072C7.0527 28.5072 11.1427 26.7172 13.4627 25.0472C13.7027 24.8872 13.8927 24.8172 14.0827 24.8172C14.2627 24.8272 14.4327 24.8372 14.6127 24.8372C24.4727 24.8372 31.0127 19.2372 31.0127 12.4272C31.0127 5.5472 24.1127 -0.0028 15.5027 -0.0028C6.8927 -0.0028 0.0027 5.5472 0.0027 12.4272C0.0027 16.8072 2.6927 20.6472 7.0827 22.9972C7.2827 23.1072 7.3527 23.3072 7.2427 23.5172C6.4827 24.7772 5.1127 26.2772 4.5927 26.9572C4.0627 27.6472 4.3627 28.5072 5.4127 28.5072ZM15.5127 5.4372C15.8027 5.4372 16.0527 5.5372 16.3427 5.8272L20.9727 10.3072C21.1927 10.5172 21.3127 10.7472 21.3127 11.0472C21.3127 11.6172 20.8627 12.0272 20.2927 12.0272C20.0027 12.0272 19.7127 11.9372 19.5227 11.7072L17.3627 9.4172L16.5527 8.5572L16.6427 10.6672V18.5672C16.6427 19.1672 16.1327 19.6772 15.5127 19.6772C14.9027 19.6772 14.3827 19.1672 14.3827 18.5672V10.6672L14.4827 8.5472L13.6627 9.4172L11.5127 11.7072C11.3027 11.9372 11.0027 12.0272 10.7227 12.0272C10.1427 12.0272 9.7027 11.6172 9.7027 11.0472C9.7027 10.7472 9.8327 10.5172 10.0527 10.3072L14.6927 5.8272C14.9827 5.5372 15.2127 5.4372 15.5127 5.4372Z"
        fillRule="evenodd"
        clipRule="evenodd"
    />
</svg>
        