<svg viewBox="0 0 33.578125 26.072265625" xmlns="http://www.w3.org/2000/svg"><path d="M4.2937 26.0679H29.2837C32.1337 26.0679 33.5737 24.6479 33.5737 21.8379V7.5179C33.5737 4.7079 32.1337 3.2979 29.2837 3.2979H25.3737C24.2937 3.2979 23.9637 3.0779 23.3537 2.3879L22.2537 1.1579C21.5737 0.4079 20.8737 -0.0021 19.4737 -0.0021H14.0137C12.6037 -0.0021 11.9037 0.4079 11.2237 1.1579L10.1337 2.3879C9.5137 3.0579 9.1737 3.2979 8.1037 3.2979H4.2937C1.4337 3.2979 0.0037 4.7079 0.0037 7.5179V21.8379C0.0037 24.6479 1.4337 26.0679 4.2937 26.0679ZM11.8537 9.5179C11.3637 9.0079 11.5237 8.2979 12.1837 7.7979C13.3737 6.8079 15.0837 6.2079 16.7937 6.2079C20.6837 6.2079 23.7637 8.8179 24.4337 12.6179H25.8037C26.4437 12.6179 26.5637 13.2179 26.2237 13.7079L24.0337 16.7979C23.6437 17.3479 23.0137 17.3079 22.6437 16.7979L20.4237 13.7079C20.0737 13.2379 20.2237 12.6179 20.8537 12.6179H22.3837C21.7637 10.1979 19.5137 8.3679 16.7937 8.3679C15.4637 8.3679 14.4637 8.7679 13.4937 9.5579C12.9437 9.9679 12.3437 10.0379 11.8537 9.5179ZM7.3037 14.0179L9.4837 10.9379C9.8837 10.3879 10.5137 10.4279 10.8737 10.9379L13.0937 14.0179C13.4537 14.5079 13.3037 15.1079 12.6637 15.1079H11.2237C11.8437 17.5379 14.0937 19.3779 16.8137 19.3779C18.1437 19.3779 19.1237 18.9479 20.1137 18.1679C20.6537 17.7779 21.2737 17.6879 21.7537 18.2079C22.2437 18.7179 22.0837 19.4379 21.4237 19.9479C20.2337 20.9279 18.5237 21.5179 16.8137 21.5179C12.9237 21.5179 9.8437 18.9079 9.1737 15.1079H7.7237C7.0837 15.1079 6.9637 14.5079 7.3037 14.0179Z" /></svg>