
<svg
    viewBox={0 0 26.93359375 16.884765625}
    xmlns="http://www.w3.org/2000/svg"
>
    <path
        fill="inherit"
        d="M0.0037 8.4503C0.0037 8.7803 0.1337 9.0903 0.4137 9.3503L7.7137 16.5203C7.9437 16.7503 8.3037 16.8803 8.6037 16.8803C9.3237 16.8803 9.8037 16.3903 9.8037 15.6803C9.8037 15.3303 9.6937 15.0703 9.4737 14.8503L6.2637 11.7403L3.7037 9.5303L6.8737 9.6703H20.0437L23.2137 9.5303L20.6537 11.7403L17.4637 14.8503C17.2437 15.0703 17.1337 15.3303 17.1337 15.6803C17.1337 16.3903 17.6137 16.8803 18.3337 16.8803C18.6337 16.8803 18.9937 16.7503 19.2237 16.5203L26.5237 9.3503C26.7937 9.0903 26.9337 8.7803 26.9337 8.4503C26.9337 8.1103 26.7937 7.7903 26.5237 7.5303L19.2237 0.3703C18.9937 0.1403 18.6337 0.0003 18.3337 0.0003C17.6137 0.0003 17.1337 0.4903 17.1337 1.2003C17.1337 1.5603 17.2437 1.8203 17.4637 2.0403L20.6537 5.1503L23.2137 7.3603L20.0437 7.2203H6.8737L3.7037 7.3603L6.2637 5.1503L9.4737 2.0403C9.6937 1.8203 9.8037 1.5603 9.8037 1.2003C9.8037 0.4903 9.3237 0.0003 8.6037 0.0003C8.3037 0.0003 7.9437 0.1403 7.7137 0.3703L0.4137 7.5303C0.1337 7.7903 0.0037 8.1103 0.0037 8.4503Z"
        fillRule="evenodd"
        clipRule="evenodd"
    />
</svg>
        