
<svg
    viewBox={0 0 16.884765625 26.919921875}
    xmlns="http://www.w3.org/2000/svg"
>
    <path
        fill="inherit"
        d="M8.4537 26.9242C8.7737 26.9242 9.0937 26.7942 9.3637 26.5242L16.5137 19.2242C16.7437 18.9942 16.8837 18.6242 16.8837 18.3342C16.8837 17.5942 16.3937 17.1142 15.6837 17.1142C15.3437 17.1142 15.0637 17.2442 14.8437 17.4542L11.7437 20.6542L9.5337 23.2142L9.6637 20.0442V6.8742L9.5337 3.7042L11.7437 6.2642L14.8437 9.4642C15.0637 9.6842 15.3437 9.8042 15.6837 9.8042C16.3937 9.8042 16.8837 9.3242 16.8837 8.5842C16.8837 8.2942 16.7437 7.9342 16.5137 7.6942L9.3637 0.3942C9.0937 0.1242 8.7737 0.0042 8.4537 0.0042C8.1037 0.0042 7.7937 0.1242 7.5337 0.3942L0.3837 7.6942C0.1537 7.9342 0.0037 8.2942 0.0037 8.5842C0.0037 9.3242 0.4937 9.8042 1.2037 9.8042C1.5537 9.8042 1.8337 9.6842 2.0337 9.4642L5.1537 6.2642L7.3537 3.7042L7.2337 6.8742V20.0442L7.3537 23.2142L5.1537 20.6542L2.0337 17.4542C1.8337 17.2442 1.5537 17.1142 1.2037 17.1142C0.4937 17.1142 0.0037 17.5942 0.0037 18.3342C0.0037 18.6242 0.1537 18.9942 0.3837 19.2242L7.5337 26.5242C7.7937 26.7942 8.1037 26.9242 8.4537 26.9242Z"
        fillRule="evenodd"
        clipRule="evenodd"
    />
</svg>
        