
<svg
    viewBox="0 0 20.7265625 28.287109375"
    xmlns="http://www.w3.org/2000/svg"
>
    <path
        fill="inherit"
        d="M20.7237 27.0605C20.7237 26.3505 20.2437 25.8405 19.5537 25.8405H10.5037C10.7837 25.8105 11.0437 25.6605 11.2837 25.4305L20.3537 16.3405C20.6137 16.0605 20.7237 15.7805 20.7237 15.4505C20.7237 14.7805 20.2337 14.2605 19.5537 14.2605C19.2237 14.2605 18.9037 14.3705 18.6937 14.5905L15.5737 17.6505L11.4837 22.1505L11.5837 19.2205V1.2005C11.5837 0.5105 11.0737 0.0005 10.3637 0.0005C9.6537 0.0005 9.1437 0.5105 9.1437 1.2005V19.2205L9.2437 22.1305L5.1537 17.6505L2.0337 14.5905C1.8337 14.3705 1.5037 14.2605 1.1737 14.2605C0.4937 14.2605 0.0037 14.7805 0.0037 15.4505C0.0037 15.7805 0.1237 16.0605 0.3837 16.3405L9.4437 25.4305C9.6837 25.6605 9.9537 25.8105 10.2437 25.8405H1.2037C0.4937 25.8405 0.0037 26.3505 0.0037 27.0605C0.0037 27.7705 0.4937 28.2905 1.2037 28.2905H19.5537C20.2437 28.2905 20.7237 27.7705 20.7237 27.0605Z"
        fillRule="evenodd"
        clipRule="evenodd"
    />
</svg>
        