<svg viewBox="0 0 22.99609375 29.3125" xmlns="http://www.w3.org/2000/svg"><path d="M4.2337 29.3173H18.7537C21.5837 29.3173 22.9937 27.8773 22.9937 25.0373V12.6173H13.0937C11.3437 12.6173 10.5137 11.7873 10.5137 10.0373V-0.0027H4.2337C1.4237 -0.0027 0.0037 1.4473 0.0037 4.2973V25.0373C0.0037 27.8873 1.4037 29.3173 4.2337 29.3173ZM13.1437 10.7473H22.8337C22.7537 10.1873 22.3537 9.6373 21.6937 8.9673L14.1637 1.2973C13.5237 0.6473 12.9637 0.2473 12.3837 0.1473V10.0073C12.3837 10.4973 12.6337 10.7473 13.1437 10.7473ZM11.4937 15.1373C12.0437 15.1373 12.5137 15.5673 12.5137 16.1073V20.9473L12.4137 23.0873L13.5637 21.9273L14.7537 20.7173C14.9437 20.5173 15.2037 20.4073 15.4637 20.4073C15.9937 20.4073 16.3937 20.7973 16.3937 21.3173C16.3937 21.6173 16.2737 21.8473 16.0637 22.0273L12.2337 25.5573C11.9637 25.7973 11.7437 25.8973 11.4937 25.8973C11.2537 25.8973 11.0337 25.7973 10.7637 25.5573L6.9337 22.0273C6.7237 21.8473 6.6037 21.6173 6.6037 21.3173C6.6037 20.7973 6.9837 20.4073 7.5337 20.4073C7.7837 20.4073 8.0537 20.5173 8.2437 20.7173L9.4337 21.9273L10.5837 23.0873L10.5037 20.9473V16.1073C10.5037 15.5673 10.9537 15.1373 11.4937 15.1373Z" /></svg>