
<svg
    viewBox="0 0 26.05859375 26.0859375"
    xmlns="http://www.w3.org/2000/svg"
>
    <path
        fill="inherit"
        d="M24.7837 11.0641C25.5237 11.0641 26.0537 10.5041 26.0537 9.7841V2.2041C26.0537 0.8041 25.2337 0.0041 23.8437 0.0041H16.2537C15.5337 0.0041 14.9737 0.5241 14.9737 1.2541C14.9737 1.9941 15.5337 2.5041 16.2537 2.5041H17.4037L22.1937 2.2241L18.3937 5.8241L14.1737 10.0341C13.9337 10.2841 13.7937 10.6141 13.7937 10.9741C13.7937 11.7441 14.3837 12.2541 15.1437 12.2541C15.4737 12.2541 15.7937 12.1441 16.0237 11.8941L20.2237 7.6541L23.8337 3.8741L23.5437 8.6441V9.7841C23.5437 10.5141 24.0737 11.0641 24.7837 11.0641ZM9.7937 26.0841C10.5237 26.0841 11.0737 25.5641 11.0737 24.8241C11.0737 24.0941 10.5137 23.5841 9.7937 23.5841H8.6537L3.8737 23.8541L7.6537 20.2641L11.8837 16.0541C12.1237 15.8041 12.2537 15.4741 12.2537 15.1041C12.2537 14.3441 11.6737 13.8341 10.8937 13.8341C10.5637 13.8341 10.2637 13.9441 10.0337 14.1941L5.8237 18.4341L2.2237 22.2141L2.5037 17.4441V16.2941C2.5037 15.5741 1.9837 15.0241 1.2537 15.0241C0.5337 15.0241 0.0037 15.5841 0.0037 16.2941V23.8841C0.0037 25.2841 0.8037 26.0841 2.2037 26.0841Z"
        fillRule="evenodd"
        clipRule="evenodd"
    />
</svg>
        