
<svg
    viewBox={0 0 27.890625 27.890625}
    xmlns="http://www.w3.org/2000/svg"
>
    <path
        fill="inherit"
        d="M13.9427 27.8864C21.6427 27.8864 27.8927 21.6264 27.8927 13.9464C27.8927 6.2464 21.6427 -0.0036 13.9427 -0.0036C6.2627 -0.0036 0.0027 6.2464 0.0027 13.9464C0.0027 21.6264 6.2627 27.8864 13.9427 27.8864ZM13.9727 5.1664C14.2727 5.1664 14.5027 5.3064 14.7927 5.5764L18.8827 9.6364C19.0727 9.8164 19.1727 10.0764 19.1727 10.3764C19.1727 10.9464 18.7327 11.3864 18.1427 11.3864C17.8327 11.3864 17.5827 11.2664 17.3927 11.0864L16.3427 10.0264L14.9127 8.3264L15.0427 11.3064V16.5864L14.9127 19.5664L16.3427 17.8664L17.3927 16.8064C17.5827 16.6064 17.8327 16.5064 18.1427 16.5064C18.7327 16.5064 19.1727 16.9364 19.1727 17.5164C19.1727 17.7964 19.0727 18.0764 18.8827 18.2564L14.7927 22.3164C14.5027 22.5864 14.2727 22.7264 13.9727 22.7264C13.6627 22.7264 13.4127 22.5864 13.1427 22.3164L9.0627 18.2564C8.8727 18.0764 8.7627 17.7964 8.7627 17.5164C8.7627 16.9364 9.2127 16.5064 9.8027 16.5064C10.1127 16.5064 10.3627 16.5964 10.5527 16.8064L11.5927 17.8664L13.0327 19.5764L12.9027 16.5864V11.3064L13.0327 8.3164L11.5927 10.0264L10.5527 11.0864C10.3627 11.2764 10.1127 11.3864 9.8027 11.3864C9.2127 11.3864 8.7627 10.9464 8.7627 10.3764C8.7627 10.0764 8.8727 9.8164 9.0627 9.6364L13.1427 5.5764C13.4127 5.3064 13.6627 5.1664 13.9727 5.1664Z"
        fillRule="evenodd"
        clipRule="evenodd"
    />
</svg>
        