
<svg
    viewBox="0 0 25.169921875 25.169921875"
    xmlns="http://www.w3.org/2000/svg"
>
    <path
        fill="inherit"
        d="M4.2937 25.1692H20.8737C23.7437 25.1692 25.1737 23.7592 25.1737 20.9492V4.2392C25.1737 1.4192 23.7437 -0.0008 20.8737 -0.0008H4.2937C1.4337 -0.0008 0.0037 1.4192 0.0037 4.2392V20.9492C0.0037 23.7592 1.4337 25.1692 4.2937 25.1692ZM4.3237 22.9692C2.9537 22.9692 2.2037 22.2392 2.2037 20.8192V4.3592C2.2037 2.9392 2.9537 2.1992 4.3237 2.1992H20.8537C22.2037 2.1992 22.9737 2.9392 22.9737 4.3592V20.8192C22.9737 22.2392 22.2037 22.9692 20.8537 22.9692ZM18.6237 12.3992C19.1537 12.3992 19.5937 11.9592 19.5937 11.4292C19.5937 10.8992 19.1537 10.4692 18.6237 10.4692H17.9537L15.8637 10.6092L19.5537 7.0692C19.9437 6.6692 19.9637 6.0192 19.5637 5.6192C19.1637 5.2092 18.5137 5.2092 18.1137 5.6292L14.5437 9.3392L14.6837 7.1792V6.5092C14.6837 5.9792 14.2637 5.5492 13.7237 5.5492C13.1937 5.5492 12.7537 5.9792 12.7537 6.5092V11.2692C12.7537 12.0892 13.1837 12.3992 13.8937 12.3992ZM11.4537 19.5892C11.9937 19.5892 12.4237 19.1692 12.4237 18.6392V13.8592C12.4237 13.0592 12.0037 12.7392 11.2937 12.7392H6.5637C6.0337 12.7392 5.5937 13.1692 5.5937 13.7092C5.5937 14.2492 6.0337 14.6692 6.5637 14.6692H7.2337L9.3237 14.5292L5.6337 18.0692C5.2337 18.4592 5.2237 19.1292 5.6237 19.5192C6.0137 19.9292 6.6737 19.9292 7.0637 19.5092L10.6337 15.8092L10.5037 17.9692V18.6392C10.5037 19.1692 10.9237 19.5892 11.4537 19.5892Z"
        fillRule="evenodd"
        clipRule="evenodd"
    />
</svg>
        