
<svg
    viewBox={0 0 25.51171875 25.908203125}
    xmlns="http://www.w3.org/2000/svg"
>
    <path
        fill="inherit"
        d="M8.7237 25.9073C13.9637 25.9073 17.5537 22.3773 17.5537 16.1373V6.8773L17.4137 3.6773L19.6337 6.2573L23.4737 10.1973C23.6937 10.4173 23.9637 10.5373 24.3037 10.5373C25.0237 10.5373 25.5137 10.0473 25.5137 9.3273C25.5137 9.0273 25.3737 8.6673 25.1437 8.4373L17.2537 0.3973C16.9937 0.1273 16.6637 -0.0027 16.3337 -0.0027C15.9937 -0.0027 15.6837 0.1273 15.4237 0.3973L7.5337 8.4373C7.3037 8.6673 7.1537 9.0273 7.1537 9.3273C7.1537 10.0473 7.6537 10.5373 8.3537 10.5373C8.7137 10.5373 8.9837 10.4173 9.2037 10.1973L13.0437 6.2573L15.2537 3.6773L15.1237 6.8773V16.3373C15.1237 20.9973 12.5337 23.4773 8.8637 23.4773C5.1837 23.4773 2.4337 20.9973 2.4337 16.3373V13.1973C2.4337 12.4373 1.8837 11.9473 1.2137 11.9473C0.5437 11.9473 0.0037 12.4373 0.0037 13.1973V16.3473C0.0037 22.4773 3.4837 25.9073 8.7237 25.9073Z"
        fillRule="evenodd"
        clipRule="evenodd"
    />
</svg>
        