
<svg
    viewBox="0 0 32.23828125 25.169921875"
    xmlns="http://www.w3.org/2000/svg"
>
    <path
        fill="inherit"
        d="M4.2937 25.1692H27.9437C30.8137 25.1692 32.2337 23.7592 32.2337 20.9492V4.2392C32.2337 1.4192 30.8137 -0.0008 27.9437 -0.0008H4.2937C1.4337 -0.0008 0.0037 1.4192 0.0037 4.2392V20.9492C0.0037 23.7592 1.4337 25.1692 4.2937 25.1692ZM24.5837 11.0192C24.5837 8.8292 23.4037 7.6692 21.1737 7.6692H2.2037V4.3592C2.2037 2.9392 2.9537 2.1992 4.3237 2.1992H27.9137C29.2737 2.1992 30.0337 2.9392 30.0337 4.3592V20.8192C30.0337 22.2392 29.2737 22.9692 27.9137 22.9692H24.5837ZM4.3237 22.9692C2.9537 22.9692 2.2037 22.2392 2.2037 20.8192V9.6292H15.2037V22.9692ZM21.0437 9.6292C22.0437 9.6292 22.6237 10.2292 22.6237 11.2392V22.9692H17.1537V9.6292Z"
        fillRule="evenodd"
        clipRule="evenodd"
    />
</svg>
        