
<svg
    viewBox="0 0 27.890625 27.890625"
    xmlns="http://www.w3.org/2000/svg"
>
    <path
        fill="inherit"
        d="M13.9427 27.8864C21.6427 27.8864 27.8927 21.6264 27.8927 13.9464C27.8927 6.2464 21.6427 -0.0036 13.9427 -0.0036C6.2627 -0.0036 0.0027 6.2464 0.0027 13.9464C0.0027 21.6264 6.2627 27.8864 13.9427 27.8864ZM13.9727 21.2164C13.2227 21.2164 12.7727 20.7564 12.7827 20.0064L12.9027 15.7764L9.0927 18.2564C8.8827 18.3864 8.6427 18.4664 8.3527 18.4664C7.7827 18.4664 7.2327 18.0164 7.2327 17.2964C7.2327 16.8164 7.4527 16.5164 7.9127 16.2564L11.8927 14.0264L7.9127 11.8264C7.4527 11.5664 7.2327 11.2364 7.2327 10.7864C7.2327 10.0464 7.7827 9.6064 8.3527 9.6064C8.6427 9.6064 8.8827 9.6764 9.0927 9.8164L12.9027 12.2464L12.7827 7.8864C12.7727 7.1364 13.2227 6.6764 13.9727 6.6764C14.7127 6.6764 15.1227 7.1064 15.1027 7.8864L14.9827 12.2464L18.8027 9.8064C19.0027 9.6664 19.2527 9.5864 19.5327 9.5864C20.1127 9.5864 20.6627 10.0364 20.6627 10.7564C20.6627 11.2264 20.4427 11.5564 19.9727 11.8164L15.9727 14.0164L19.9727 16.2664C20.4427 16.5264 20.6627 16.8264 20.6627 17.3064C20.6627 18.0364 20.1127 18.4864 19.5327 18.4864C19.2527 18.4864 19.0027 18.4064 18.8027 18.2664L14.9827 15.7764L15.1027 20.0064C15.1227 20.7764 14.7127 21.2164 13.9727 21.2164Z"
        fillRule="evenodd"
        clipRule="evenodd"
    />
</svg>
        