
<svg
    viewBox={0 0 27.890625 27.890625}
    xmlns="http://www.w3.org/2000/svg"
>
    <path
        fill="inherit"
        d="M13.9427 27.8901C21.6427 27.8901 27.8927 21.6401 27.8927 13.9501C27.8927 6.2501 21.6427 0.0001 13.9427 0.0001C6.2527 0.0001 0.0027 6.2501 0.0027 13.9501C0.0027 21.6401 6.2527 27.8901 13.9427 27.8901ZM13.9427 25.5701C7.5227 25.5701 2.3227 20.3701 2.3227 13.9501C2.3227 7.5201 7.5227 2.3201 13.9427 2.3201C20.3727 2.3201 25.5627 7.5201 25.5627 13.9501C25.5627 20.3701 20.3727 25.5701 13.9427 25.5701ZM13.9627 20.9901C14.6727 20.9901 15.0627 20.5601 15.0527 19.8201L14.9327 15.7201L18.6327 18.1301C18.8427 18.2501 19.0727 18.3301 19.3427 18.3301C19.9027 18.3301 20.4227 17.9001 20.4227 17.2001C20.4227 16.7501 20.2227 16.4501 19.7727 16.2001L15.8827 14.0301L19.7727 11.8701C20.2227 11.6201 20.4227 11.3101 20.4227 10.8701C20.4227 10.1601 19.9027 9.7201 19.3427 9.7201C19.0727 9.7201 18.8427 9.8001 18.6327 9.9401L14.9327 12.3001L15.0527 8.0801C15.0627 7.3301 14.6727 6.9001 13.9627 6.9001C13.2327 6.9001 12.7927 7.3601 12.8127 8.0801L12.9327 12.3001L9.2327 9.9501C9.0227 9.8201 8.7927 9.7501 8.5127 9.7501C7.9527 9.7501 7.4327 10.1701 7.4327 10.8801C7.4327 11.3301 7.6427 11.6301 8.0927 11.8901L11.9527 14.0301L8.0927 16.1901C7.6427 16.4301 7.4327 16.7501 7.4327 17.1901C7.4327 17.8801 7.9527 18.3201 8.5127 18.3201C8.7927 18.3201 9.0227 18.2401 9.2327 18.1201L12.9327 15.7201L12.8127 19.8201C12.7927 20.5401 13.2327 20.9901 13.9627 20.9901Z"
        fillRule="evenodd"
        clipRule="evenodd"
    />
</svg>
        