
<svg
    viewBox="0 0 24.36328125 28.21875"
    xmlns="http://www.w3.org/2000/svg"
>
    <path
        fill="inherit"
        d="M12.1937 28.2168C13.0837 28.2168 13.6037 27.6768 13.6037 26.7468C13.6037 26.5768 13.5937 26.3868 13.5937 26.2268L13.3937 16.1968L21.9337 21.3268C22.2737 21.5368 22.5837 21.6168 22.9437 21.6168C23.7637 21.6168 24.3637 21.0168 24.3637 20.1668C24.3637 19.5268 24.1137 19.1668 23.4337 18.7968L14.5037 14.1068L23.4337 9.4068C24.1137 9.0468 24.3637 8.6768 24.3637 8.0568C24.3637 7.2168 23.7737 6.6068 22.9437 6.6068C22.5837 6.6068 22.2737 6.6868 21.9337 6.8868L13.3937 12.0168L13.5937 1.9968C13.5937 1.8168 13.6037 1.6368 13.6037 1.4668C13.6037 0.5368 13.0837 -0.0032 12.1937 -0.0032C11.3037 -0.0032 10.7737 0.5368 10.7737 1.4668C10.7737 1.6368 10.7837 1.8168 10.7837 1.9968L10.9737 12.0168L2.4337 6.8868C2.0937 6.6868 1.7737 6.6068 1.4037 6.6068C0.5837 6.6068 0.0037 7.2068 0.0037 8.0568C0.0037 8.6768 0.2437 9.0468 0.9437 9.4068L9.8737 14.1068L0.9437 18.7968C0.2437 19.1668 0.0037 19.5268 0.0037 20.1668C0.0037 21.0168 0.5837 21.6168 1.4037 21.6168C1.7737 21.6168 2.0937 21.5368 2.4337 21.3268L10.9737 16.1968L10.7837 26.2268C10.7837 26.3868 10.7737 26.5768 10.7737 26.7468C10.7737 27.6768 11.3037 28.2168 12.1937 28.2168Z"
        fillRule="evenodd"
        clipRule="evenodd"
    />
</svg>
        