<svg viewBox="0 0 27.890625 27.890625" xmlns="http://www.w3.org/2000/svg"><path d="M13.9427 27.8864C21.6427 27.8864 27.8927 21.6264 27.8927 13.9464C27.8927 6.2464 21.6427 -0.0036 13.9427 -0.0036C6.2627 -0.0036 0.0027 6.2464 0.0027 13.9464C0.0027 21.6264 6.2627 27.8864 13.9427 27.8864ZM14.1227 22.3964C9.0827 22.3964 5.7027 19.0164 5.7027 13.9764C5.7027 8.9264 9.1227 5.4564 14.0927 5.4564C18.9127 5.4564 22.2127 8.5764 22.2127 13.1064C22.2127 16.2964 20.7127 18.4664 18.4427 18.4664C17.3227 18.4664 16.4627 17.9464 16.0627 17.1164C15.5127 17.9764 14.6127 18.4664 13.5627 18.4664C11.3627 18.4664 9.8327 16.6064 9.8327 13.9864C9.8327 11.3864 11.3627 9.5464 13.5227 9.5464C14.4227 9.5464 15.2727 9.9764 15.8027 10.5864V10.3064C15.8027 9.9664 16.1627 9.5464 16.6827 9.5464C17.2527 9.5464 17.6227 9.9364 17.6227 10.5264V15.7264C17.6227 16.3964 17.9627 16.7464 18.6327 16.7464C19.6627 16.7464 20.3727 15.3564 20.3727 13.1664C20.3727 9.6364 17.8427 7.2864 14.0827 7.2864C10.2427 7.2864 7.6427 10.0064 7.6427 14.0164C7.6427 18.0464 10.2227 20.5464 14.3727 20.5464C15.4227 20.5464 16.1827 20.4164 17.1127 20.1964C17.2827 20.1564 17.4427 20.1064 17.5527 20.1064C18.0227 20.1064 18.3727 20.4664 18.3727 20.9364C18.3727 21.4064 18.0427 21.7764 17.4627 21.9664C16.6527 22.2264 15.4127 22.3964 14.1227 22.3964ZM13.8927 16.5664C15.0927 16.5664 15.8827 15.5464 15.8827 13.9064C15.8827 12.3064 15.1027 11.3164 13.9027 11.3164C12.7127 11.3164 11.9527 12.3364 11.9527 13.9464C11.9527 15.5764 12.7027 16.5664 13.8927 16.5664Z" /></svg>