
<svg
    viewBox="0 0 27.890625 27.890625"
    xmlns="http://www.w3.org/2000/svg"
>
    <path
        fill="inherit"
        d="M13.9427 27.8864C21.6427 27.8864 27.8927 21.6464 27.8927 13.9464C27.8927 6.2464 21.6427 -0.0036 13.9427 -0.0036C6.2527 -0.0036 0.0027 6.2464 0.0027 13.9464C0.0027 21.6464 6.2527 27.8864 13.9427 27.8864ZM13.9427 25.5664C7.5227 25.5664 2.3227 20.3664 2.3227 13.9464C2.3227 7.5164 7.5227 2.3264 13.9427 2.3264C20.3727 2.3264 25.5627 7.5164 25.5627 13.9464C25.5627 20.3664 20.3727 25.5664 13.9427 25.5664ZM14.1127 22.1364C15.3527 22.1364 16.5527 21.9864 17.3327 21.7264C17.9127 21.5464 18.2227 21.1864 18.2227 20.7264C18.2227 20.2764 17.8827 19.9364 17.4327 19.9364C17.3227 19.9364 17.1627 19.9764 17.0127 20.0164C16.1027 20.2164 15.3627 20.3564 14.3427 20.3564C10.3227 20.3564 7.8027 17.9264 7.8027 14.0164C7.8027 10.1164 10.3327 7.4764 14.0727 7.4764C17.7227 7.4764 20.1627 9.7664 20.1627 13.1964C20.1627 15.3164 19.4827 16.6664 18.4827 16.6664C17.8327 16.6664 17.5027 16.3264 17.5027 15.6664V10.6264C17.5027 10.0664 17.1427 9.6764 16.5827 9.6764C16.0827 9.6764 15.7327 10.0864 15.7327 10.4164V10.6864C15.2327 10.1064 14.3927 9.6764 13.5227 9.6764C11.4327 9.6764 9.9427 11.4664 9.9427 13.9864C9.9427 16.5264 11.4327 18.3364 13.5627 18.3364C14.5927 18.3364 15.4627 17.8564 15.9927 17.0264C16.3827 17.8264 17.2127 18.3364 18.2927 18.3364C20.4927 18.3364 21.9527 16.2264 21.9527 13.1364C21.9527 8.7364 18.7427 5.7164 14.0827 5.7164C9.2527 5.7164 5.9327 9.0764 5.9327 13.9764C5.9327 18.8664 9.2127 22.1364 14.1127 22.1364ZM13.8727 16.5064C12.7127 16.5064 11.9927 15.5264 11.9927 13.9464C11.9927 12.3764 12.7327 11.3864 13.8927 11.3864C15.0627 11.3864 15.8227 12.3464 15.8227 13.9064C15.8227 15.5064 15.0527 16.5064 13.8727 16.5064Z"
        fillRule="evenodd"
        clipRule="evenodd"
    />
</svg>
        