
<svg
    viewBox={0 0 29.53958588405452 32.962890625}
    xmlns="http://www.w3.org/2000/svg"
>
    <path
        fill="inherit"
        d="M0.484 24.852C1.734 27.012 4.924 27.442 9.244 26.232C10.364 30.472 12.294 32.962 14.764 32.962C17.244 32.962 19.184 30.472 20.294 26.232C24.624 27.442 27.794 27.012 29.054 24.852C30.284 22.692 29.064 19.752 25.884 16.642C29.084 13.512 30.314 10.552 29.054 8.382C27.794 6.222 24.654 5.792 20.354 6.982C19.254 2.582 17.294 0.002 14.764 0.002C12.254 0.002 10.284 2.582 9.174 6.982C4.894 5.792 1.734 6.222 0.484 8.382C-0.766 10.552 0.454 13.512 3.654 16.642C0.464 19.752 -0.746 22.692 0.484 24.852ZM14.764 2.012C16.384 2.012 17.654 4.062 18.414 7.602C17.254 8.022 16.034 8.532 14.764 9.142C13.494 8.532 12.274 8.022 11.134 7.602C11.894 4.072 13.164 2.012 14.764 2.012ZM2.244 9.402C3.034 8.022 5.384 7.932 8.754 8.982C8.544 10.202 8.384 11.502 8.284 12.902C7.134 13.682 6.094 14.482 5.184 15.262C2.554 12.862 1.454 10.762 2.244 9.402ZM27.294 9.402C28.094 10.762 26.994 12.862 24.364 15.262C23.434 14.482 22.394 13.682 21.264 12.902C21.154 11.502 21.004 10.202 20.784 8.982C24.144 7.932 26.514 8.022 27.294 9.402ZM18.044 10.892C17.744 10.722 17.464 10.552 17.174 10.392C17.724 10.142 18.264 9.912 18.784 9.702C18.854 10.252 18.924 10.842 18.994 11.442C18.674 11.262 18.364 11.072 18.044 10.892ZM11.484 10.892C11.174 11.072 10.854 11.262 10.554 11.442C10.614 10.842 10.684 10.252 10.764 9.702C11.284 9.912 11.814 10.142 12.374 10.392C12.074 10.552 11.784 10.722 11.484 10.892ZM12.534 20.422C11.784 20.002 11.074 19.562 10.394 19.142C10.364 18.282 10.334 17.392 10.334 16.462C10.334 15.652 10.354 14.862 10.374 14.112C11.074 13.672 11.814 13.222 12.584 12.782C13.334 12.342 14.054 11.952 14.764 11.562C15.474 11.952 16.214 12.342 16.964 12.782C17.734 13.222 18.454 13.672 19.154 14.112C19.184 14.862 19.214 15.652 19.214 16.462C19.214 17.392 19.184 18.282 19.144 19.142C18.474 19.562 17.764 20.002 17.014 20.422C16.244 20.862 15.494 21.272 14.764 21.652C14.044 21.272 13.294 20.862 12.534 20.422ZM14.784 19.382C16.384 19.382 17.684 18.092 17.684 16.472C17.684 14.872 16.384 13.572 14.784 13.572C13.164 13.572 11.864 14.872 11.864 16.472C11.864 18.092 13.164 19.382 14.784 19.382ZM8.164 16.462C8.164 16.862 8.174 17.272 8.174 17.652C7.694 17.312 7.234 16.962 6.794 16.622C7.234 16.282 7.684 15.942 8.174 15.602C8.174 15.872 8.164 16.162 8.164 16.462ZM21.374 16.462C21.374 16.172 21.374 15.872 21.374 15.602C21.844 15.942 22.314 16.282 22.734 16.622C22.304 16.962 21.844 17.312 21.354 17.652C21.374 17.252 21.374 16.862 21.374 16.462ZM27.294 23.842C26.494 25.222 24.134 25.302 20.744 24.222C20.964 23.042 21.124 21.752 21.234 20.362C22.394 19.582 23.434 18.782 24.374 18.002C26.994 20.402 28.084 22.472 27.294 23.842ZM2.244 23.842C1.454 22.472 2.554 20.402 5.174 18.002C6.094 18.782 7.154 19.582 8.314 20.372C8.424 21.752 8.584 23.042 8.804 24.222C5.414 25.302 3.034 25.222 2.244 23.842ZM18.074 22.322C18.374 22.162 18.664 21.982 18.954 21.802C18.894 22.412 18.824 22.972 18.744 23.502C18.244 23.312 17.724 23.082 17.174 22.832C17.474 22.672 17.774 22.502 18.074 22.322ZM11.454 22.322C11.764 22.502 12.064 22.672 12.364 22.832C11.824 23.082 11.304 23.312 10.804 23.502C10.724 22.972 10.654 22.412 10.584 21.822C10.874 21.982 11.154 22.162 11.454 22.322ZM14.764 30.952C13.204 30.952 11.954 29.002 11.184 25.612C12.324 25.202 13.524 24.692 14.764 24.072C16.024 24.692 17.214 25.202 18.364 25.612C17.584 29.002 16.344 30.952 14.764 30.952Z"
        fillRule="evenodd"
        clipRule="evenodd"
    />
</svg>
        