
<svg
    viewBox={0 0 32.935546875 27.26189615322232}
    xmlns="http://www.w3.org/2000/svg"
>
    <path
        fill="inherit"
        d="M32.9327 16.3992C32.9327 7.7792 26.3227 0.7192 17.8927 -0.0008C17.4627 -0.0408 17.1327 0.2792 17.1327 0.7192V5.1892C17.1327 5.5592 17.3927 5.8392 17.7627 5.8692C22.9927 6.5092 27.0727 10.9792 27.0727 16.3992C27.0727 18.8592 26.2227 21.1292 24.7327 23.0292C24.5427 23.2592 24.5527 23.5592 24.7627 23.7792L28.0227 27.0292C28.3327 27.3292 28.7927 27.3292 29.0627 27.0092C31.4827 24.1392 32.9327 20.4292 32.9327 16.3992ZM0.0027 16.3992C0.0027 20.4392 1.4527 24.1492 3.8727 27.0192C4.1427 27.3492 4.5927 27.3292 4.9127 27.0292L8.1727 23.7792C8.3827 23.5592 8.3927 23.2592 8.2027 23.0292C6.7027 21.1292 5.8627 18.8592 5.8627 16.3992C5.8627 10.9792 9.9427 6.5092 15.1727 5.8692C15.5427 5.8392 15.8027 5.5592 15.8027 5.1892V0.7192C15.8027 0.2792 15.4727 -0.0408 15.0427 -0.0008C6.6127 0.7192 0.0027 7.7792 0.0027 16.3992ZM11.1727 19.3492C11.1727 19.5992 11.3727 19.7992 11.6227 19.7992H12.4727L11.8027 21.8492C11.7427 21.9892 11.7127 22.1092 11.7127 22.2292C11.7127 22.6692 12.0727 22.9292 12.5227 22.9292C12.9327 22.9292 13.1627 22.7292 13.2727 22.3292L14.0527 19.7992H18.8427L19.6227 22.3392C19.7127 22.6992 19.9327 22.9292 20.3827 22.9292C20.8127 22.9292 21.1627 22.6892 21.1627 22.2292C21.1627 22.0792 21.1327 21.9292 21.0927 21.7992L20.4227 19.7992H21.2727C21.5327 19.7992 21.7227 19.5992 21.7227 19.3492C21.7227 19.0892 21.5327 18.8992 21.2727 18.8992H20.1427L19.6227 17.3292H21.2727C21.5327 17.3292 21.7227 17.1192 21.7227 16.8792C21.7227 16.6292 21.5327 16.4192 21.2727 16.4192H19.3227L17.5227 10.9992C17.3627 10.4592 17.0327 10.1792 16.4427 10.1792C15.8827 10.1792 15.5127 10.4792 15.3527 10.9992L13.5727 16.4192H11.6227C11.3727 16.4192 11.1727 16.6292 11.1727 16.8792C11.1727 17.1192 11.3727 17.3292 11.6227 17.3292H13.2727L12.7527 18.8992H11.6227C11.3727 18.8992 11.1727 19.0892 11.1727 19.3492ZM16.4227 12.1192H16.4727L17.8027 16.4192H15.0927ZM14.3427 18.8992L14.8227 17.3292H18.0727L18.5527 18.8992Z"
        fillRule="evenodd"
        clipRule="evenodd"
    />
</svg>
        