<svg viewBox="0 0 30.544813437289534 27.890625" xmlns="http://www.w3.org/2000/svg"><path d="M0.9769 11.3064C-0.0131 11.3064 -0.2531 11.9764 0.2769 12.7464L3.3369 17.0864C3.7869 17.7164 4.4469 17.7064 4.8869 17.0864L7.9269 12.7264C8.4669 11.9764 8.2069 11.3064 7.2469 11.3064H5.2769C6.4669 6.1564 11.0769 2.3264 16.5969 2.3264C23.0269 2.3264 28.2169 7.5164 28.2169 13.9464C28.2169 20.3664 23.0269 25.5664 16.5969 25.5664C12.7169 25.5664 9.2569 23.6564 7.1969 20.7564C6.7669 20.1964 6.1269 20.0164 5.5569 20.3564C5.0069 20.6964 4.8369 21.4664 5.3069 22.0664C7.8369 25.6064 11.9769 27.8864 16.5969 27.8864C24.2969 27.8864 30.5469 21.6464 30.5469 13.9464C30.5469 6.2464 24.2969 -0.0036 16.5969 -0.0036C9.8069 -0.0036 4.1269 4.8664 2.8969 11.3064ZM12.6669 20.3064C13.0869 20.3064 13.3069 20.0964 13.4269 19.6864L14.2069 17.1564H18.9769L19.7569 19.6964C19.8669 20.0664 20.0869 20.3064 20.5369 20.3064C20.9569 20.3064 21.3169 20.0564 21.3169 19.5964C21.3169 19.4564 21.2869 19.3064 21.2369 19.1664L20.5769 17.1564H21.4269C21.6669 17.1564 21.8769 16.9564 21.8769 16.7064C21.8769 16.4564 21.6669 16.2564 21.4269 16.2564H20.2769L19.7669 14.6964H21.4269C21.6669 14.6964 21.8769 14.4964 21.8769 14.2464C21.8769 13.9864 21.6669 13.7764 21.4269 13.7764H19.4669L17.6769 8.3564C17.4969 7.8164 17.1769 7.5464 16.5969 7.5464C16.0269 7.5464 15.6569 7.8464 15.4969 8.3564L13.7169 13.7764H11.7569C11.5169 13.7764 11.3069 13.9864 11.3069 14.2464C11.3069 14.4964 11.5169 14.6964 11.7569 14.6964H13.4269L12.9069 16.2564H11.7569C11.5169 16.2564 11.3069 16.4564 11.3069 16.7064C11.3069 16.9564 11.5169 17.1564 11.7569 17.1564H12.6069L11.9369 19.2064C11.8969 19.3564 11.8669 19.4864 11.8669 19.5964C11.8669 20.0464 12.2269 20.3064 12.6669 20.3064ZM16.5769 9.4764H16.6269L17.9369 13.7764H15.2469ZM14.4769 16.2564L14.9569 14.6964H18.2269L18.7069 16.2564Z" /></svg>