
<svg
    viewBox="0 0 32.935546875 27.33018496744969"
    xmlns="http://www.w3.org/2000/svg"
>
    <path
        fill="inherit"
        d="M16.4627 5.864C18.9327 5.864 21.2027 6.724 23.0227 8.134C23.2927 8.354 23.6527 8.324 23.9127 8.064L27.0827 4.894C27.4027 4.584 27.3827 4.124 27.0527 3.854C24.2027 1.454 20.4927 0.004 16.4627 0.004C12.4427 0.004 8.7327 1.454 5.8827 3.854C5.5527 4.124 5.5327 4.584 5.8527 4.894L9.0227 8.064C9.2827 8.324 9.6527 8.354 9.9527 8.124C11.7627 6.724 14.0127 5.864 16.4627 5.864ZM0.0027 16.464C0.0027 20.494 1.4527 24.204 3.8727 27.074C4.1427 27.414 4.6027 27.414 4.9127 27.094L8.1627 23.844C8.3627 23.624 8.3927 23.324 8.2027 23.094C6.7127 21.194 5.8627 18.924 5.8627 16.464C5.8627 14.014 6.7027 11.744 8.1227 9.944C8.3427 9.654 8.3427 9.284 8.0827 9.024L4.9127 5.854C4.5927 5.534 4.1427 5.534 3.8727 5.864C1.4527 8.734 0.0027 12.444 0.0027 16.464ZM32.9327 16.464C32.9327 12.444 31.4827 8.734 29.0627 5.864C28.7927 5.534 28.3327 5.534 28.0227 5.854L24.8527 9.024C24.5927 9.284 24.5827 9.654 24.8127 9.944C26.2227 11.744 27.0727 14.014 27.0727 16.464C27.0727 18.924 26.2227 21.194 24.7327 23.094C24.5427 23.324 24.5527 23.624 24.7627 23.844L28.0127 27.094C28.3327 27.414 28.7827 27.414 29.0627 27.074C31.4827 24.204 32.9327 20.494 32.9327 16.464ZM11.1727 19.414C11.1727 19.664 11.3727 19.864 11.6227 19.864H12.4727L11.8027 21.914C11.7427 22.054 11.7127 22.174 11.7127 22.294C11.7127 22.734 12.0727 22.994 12.5227 22.994C12.9327 22.994 13.1627 22.794 13.2727 22.394L14.0527 19.864H18.8427L19.6227 22.404C19.7127 22.764 19.9327 22.994 20.3827 22.994C20.8127 22.994 21.1627 22.754 21.1627 22.294C21.1627 22.144 21.1327 21.994 21.0927 21.864L20.4227 19.864H21.2727C21.5327 19.864 21.7227 19.664 21.7227 19.414C21.7227 19.154 21.5327 18.964 21.2727 18.964H20.1427L19.6227 17.394H21.2727C21.5327 17.394 21.7227 17.184 21.7227 16.944C21.7227 16.694 21.5327 16.484 21.2727 16.484H19.3227L17.5227 11.064C17.3627 10.524 17.0327 10.244 16.4427 10.244C15.8827 10.244 15.5127 10.544 15.3527 11.064L13.5727 16.484H11.6227C11.3727 16.484 11.1727 16.694 11.1727 16.944C11.1727 17.184 11.3727 17.394 11.6227 17.394H13.2727L12.7527 18.964H11.6227C11.3727 18.964 11.1727 19.154 11.1727 19.414ZM16.4227 12.184H16.4727L17.8027 16.484H15.0927ZM14.3427 18.964L14.8227 17.394H18.0727L18.5527 18.964Z"
        fillRule="evenodd"
        clipRule="evenodd"
    />
</svg>
        