<svg viewBox="0 0 30.529296875 29.17578125" xmlns="http://www.w3.org/2000/svg"><path d="M1.0937 29.179H29.4237C30.0237 29.179 30.5337 28.669 30.5337 28.069C30.5337 27.469 30.0237 26.979 29.4237 26.979H28.7137V25.979C28.7137 25.429 28.3937 25.099 27.8337 25.099H26.9637V9.379H28.1637C28.9137 9.379 29.3537 8.829 29.3537 8.269C29.3537 7.859 29.1237 7.509 28.6137 7.219L16.9437 0.479C16.3937 0.169 15.8137 -0.001 15.2537 -0.001C14.6937 -0.001 14.1137 0.169 13.5937 0.479L1.9137 7.219C1.3937 7.509 1.1737 7.859 1.1737 8.269C1.1737 8.829 1.6137 9.379 2.3637 9.379H3.5637V25.099H2.7037C2.1437 25.099 1.8137 25.429 1.8137 25.979V26.979H1.0937C0.4937 26.979 0.0037 27.469 0.0037 28.069C0.0037 28.669 0.4937 29.179 1.0937 29.179ZM11.2137 22.159C10.7637 22.159 10.3937 21.889 10.3937 21.439C10.3937 21.329 10.4137 21.189 10.4637 21.039L11.1537 18.939H10.2837C10.0237 18.939 9.8137 18.719 9.8137 18.469C9.8137 18.209 10.0237 17.989 10.2837 17.989H11.4737L11.9937 16.379H10.2837C10.0237 16.379 9.8137 16.169 9.8137 15.919C9.8137 15.659 10.0237 15.449 10.2837 15.449H12.2937L14.1237 9.839C14.3037 9.329 14.6837 8.999 15.2737 8.999C15.8737 8.999 16.2037 9.299 16.3937 9.839L18.2337 15.449H20.2437C20.5037 15.449 20.7237 15.659 20.7237 15.919C20.7237 16.169 20.5037 16.379 20.2437 16.379H18.5437L19.0737 17.989H20.2437C20.5037 17.989 20.7237 18.209 20.7237 18.469C20.7237 18.719 20.5037 18.939 20.2437 18.939H19.3837L20.0537 20.989C20.1137 21.139 20.1437 21.299 20.1437 21.439C20.1437 21.919 19.7737 22.159 19.3337 22.159C18.8637 22.159 18.6337 21.929 18.5237 21.549L17.7337 18.939H12.8137L12.0037 21.529C11.8837 21.959 11.6437 22.159 11.2137 22.159ZM13.8737 15.449H16.6537L15.3037 11.009H15.2337ZM13.0937 17.989H17.4337L16.9437 16.379H13.5937Z" /></svg>