
<svg
    viewBox={0 0 30.529296875 29.17578125}
    xmlns="http://www.w3.org/2000/svg"
>
    <path
        fill="inherit"
        d="M1.8137 25.919H28.7137V25.009C28.7137 24.459 28.3937 24.129 27.8337 24.129H26.9637V9.379H28.1637C28.9137 9.379 29.3537 8.829 29.3537 8.269C29.3537 7.859 29.1237 7.509 28.6137 7.219L16.9437 0.479C16.3937 0.169 15.8137 -0.001 15.2537 -0.001C14.6937 -0.001 14.1137 0.169 13.5937 0.479L1.9137 7.219C1.3937 7.509 1.1737 7.859 1.1737 8.269C1.1737 8.829 1.6137 9.379 2.3637 9.379H3.5637V24.129H2.7037C2.1437 24.129 1.8137 24.459 1.8137 25.009ZM5.6337 24.129V7.629L14.7237 2.529C14.8937 2.429 15.0837 2.379 15.2537 2.379C15.4337 2.379 15.6237 2.429 15.8037 2.529L24.8937 7.629V24.129ZM19.0737 20.499C19.2637 20.499 19.4137 20.329 19.4137 20.139V19.169C20.9437 19.059 22.0637 18.169 22.0637 16.579C22.0637 15.089 21.1937 14.519 19.8937 13.889L19.4137 13.669V10.559C20.0937 10.679 20.4237 11.199 20.6037 11.979C20.7037 12.289 20.9037 12.479 21.2337 12.479C21.6337 12.479 21.8937 12.249 21.8937 11.849C21.8937 11.719 21.8737 11.539 21.8237 11.359C21.5237 10.199 20.6437 9.519 19.4137 9.409V8.439C19.4137 8.249 19.2637 8.079 19.0737 8.079C18.8637 8.079 18.7137 8.249 18.7137 8.439V9.409C17.2537 9.529 16.1737 10.419 16.1737 11.909C16.1737 13.259 16.9537 13.969 18.2937 14.599L18.7137 14.789V18.009C17.8837 17.869 17.5237 17.299 17.3737 16.599C17.2637 16.189 17.0337 16.019 16.7237 16.019C16.3537 16.019 16.0637 16.259 16.0637 16.669C16.0637 16.799 16.0737 16.939 16.1037 17.079C16.3337 18.209 17.3637 19.029 18.7137 19.159V20.139C18.7137 20.329 18.8637 20.499 19.0737 20.499ZM8.7937 19.479C9.1437 19.479 9.3937 19.279 9.4837 18.879L10.0337 16.709H13.1937L13.7637 18.879C13.8737 19.279 14.0837 19.479 14.4937 19.479C14.8437 19.479 15.1637 19.259 15.1637 18.809C15.1637 18.689 15.1437 18.549 15.0937 18.379L12.6837 9.949C12.5237 9.379 12.2237 9.089 11.6237 9.089C11.0437 9.089 10.7237 9.409 10.5537 9.969L8.1637 18.379C8.1237 18.529 8.0937 18.679 8.0937 18.809C8.0937 19.259 8.4237 19.479 8.7937 19.479ZM17.5237 11.829C17.5237 11.089 18.0237 10.649 18.7137 10.559V13.329C18.0737 12.989 17.5237 12.549 17.5237 11.829ZM10.3337 15.569L11.5537 10.819H11.6437L12.8937 15.569ZM20.7137 16.709C20.7137 17.499 20.2237 17.919 19.4137 18.019V15.139C20.1437 15.489 20.7137 15.899 20.7137 16.709ZM1.0937 29.179H29.4237C30.0237 29.179 30.5337 28.669 30.5337 28.069C30.5337 27.469 30.0237 26.979 29.4237 26.979H1.0937C0.4937 26.979 0.0037 27.469 0.0037 28.069C0.0037 28.669 0.4937 29.179 1.0937 29.179Z"
        fillRule="evenodd"
        clipRule="evenodd"
    />
</svg>
        