
<svg
    viewBox="0 0 25.169921875 25.169921875"
    xmlns="http://www.w3.org/2000/svg"
>
    <path
        fill="inherit"
        d="M4.2937 25.1692H20.8737C23.7437 25.1692 25.1737 23.7592 25.1737 20.9492V4.2392C25.1737 1.4192 23.7437 -0.0008 20.8737 -0.0008H4.2937C1.4337 -0.0008 0.0037 1.4192 0.0037 4.2392V20.9492C0.0037 23.7592 1.4337 25.1692 4.2937 25.1692ZM8.5337 19.1392C8.0837 19.1392 7.7137 18.8492 7.7137 18.3992C7.7137 18.2892 7.7337 18.1692 7.7937 18.0092L8.4737 15.8992H7.6137C7.3437 15.8992 7.1337 15.6792 7.1337 15.4392C7.1337 15.1792 7.3437 14.9592 7.6137 14.9592H8.7937L9.3237 13.3592H7.6137C7.3437 13.3592 7.1337 13.1392 7.1337 12.8892C7.1337 12.6192 7.3437 12.4092 7.6137 12.4092H9.6237L11.4537 6.8092C11.6337 6.2892 12.0037 5.9792 12.5937 5.9792C13.1937 5.9792 13.5337 6.2792 13.7137 6.8092L15.5537 12.4092H17.5637C17.8237 12.4092 18.0437 12.6192 18.0437 12.8892C18.0437 13.1392 17.8237 13.3592 17.5637 13.3592H15.8637L16.3937 14.9592H17.5637C17.8237 14.9592 18.0437 15.1792 18.0437 15.4392C18.0437 15.6792 17.8237 15.8992 17.5637 15.8992H16.7037L17.3737 17.9692C17.4337 18.0992 17.4637 18.2692 17.4637 18.3992C17.4637 18.8792 17.0937 19.1392 16.6537 19.1392C16.1837 19.1392 15.9537 18.8992 15.8437 18.5092L15.0537 15.8992H10.1337L9.3237 18.4992C9.2037 18.9192 8.9737 19.1392 8.5337 19.1392ZM11.1937 12.4092H13.9737L12.6237 7.9692H12.5637ZM10.4137 14.9592H14.7637L14.2737 13.3592H10.9137Z"
        fillRule="evenodd"
        clipRule="evenodd"
    />
</svg>
        