
<svg
    viewBox={0 0 27.890625 27.890625}
    xmlns="http://www.w3.org/2000/svg"
>
    <path
        fill="inherit"
        d="M13.9427 27.8864C21.6427 27.8864 27.8927 21.6464 27.8927 13.9464C27.8927 6.2464 21.6427 -0.0036 13.9427 -0.0036C6.2527 -0.0036 0.0027 6.2464 0.0027 13.9464C0.0027 21.6464 6.2527 27.8864 13.9427 27.8864ZM13.9427 25.5664C7.5227 25.5664 2.3227 20.3664 2.3227 13.9464C2.3227 7.5164 7.5227 2.3264 13.9427 2.3264C20.3727 2.3264 25.5627 7.5164 25.5627 13.9464C25.5627 20.3664 20.3727 25.5664 13.9427 25.5664ZM9.9627 9.9664C7.8727 12.0564 6.6727 15.1764 6.9227 17.8964C7.0527 19.6364 8.2327 20.7964 9.9627 20.9464C12.6827 21.2064 15.8227 20.0064 17.9127 17.9064C20.0027 15.8164 21.2027 12.6864 20.9427 9.9664C20.7927 8.2264 19.6327 7.0564 17.8927 6.9164C15.1727 6.6764 12.0627 7.8764 9.9627 9.9664ZM15.3927 11.0164L16.8427 12.4564C16.9627 12.5964 16.9527 12.8064 16.8427 12.9464C16.7027 13.0664 16.5027 13.0664 16.3627 12.9364L15.8827 12.4564L15.3827 12.9464L15.8727 13.4564C15.9827 13.5664 15.9927 13.7664 15.8727 13.9064C15.7327 14.0364 15.5327 14.0264 15.4127 13.8864L14.9127 13.4164L14.4227 13.9064L14.9027 14.4064C15.0227 14.5164 15.0427 14.7564 14.9027 14.8564C14.7827 15.0164 14.5727 14.9664 14.4527 14.8564L13.9627 14.3964L13.4427 14.8764L13.9427 15.3664C14.0827 15.4864 14.0827 15.7064 13.9427 15.8364C13.8127 15.9664 13.6027 15.9664 13.4627 15.8164L13.0027 15.3564L12.4927 15.8464L12.9727 16.3364C13.1127 16.4564 13.0927 16.6664 12.9727 16.8164C12.8427 16.9264 12.6427 16.9264 12.5127 16.8064L11.0627 15.3664C10.9327 15.2464 10.9327 15.0364 11.0627 14.8864C11.2127 14.7664 11.4127 14.7664 11.5427 14.8864L12.0127 15.3764L12.5227 14.8764L12.0327 14.4064C11.8927 14.2564 11.8927 14.0564 12.0327 13.9364C12.1727 13.7764 12.3727 13.7764 12.5127 13.9164L12.9927 14.4064L13.4827 13.9064L13.0027 13.4264C12.8827 13.2764 12.8527 13.0864 13.0027 12.9764C13.1227 12.8264 13.3327 12.8264 13.4527 12.9564L13.9427 13.4564L14.4627 12.9464L13.9627 12.4664C13.8327 12.3364 13.8227 12.1264 13.9627 12.0064C14.1127 11.8664 14.2827 11.8664 14.4227 12.0064L14.9127 12.4664L15.4227 11.9864L14.9127 11.5164C14.8027 11.3764 14.8027 11.1564 14.9127 11.0164C15.0627 10.9064 15.2827 10.8964 15.3927 11.0164Z"
        fillRule="evenodd"
        clipRule="evenodd"
    />
</svg>
        