
<svg
    viewBox="0 0 27.890625 27.890625"
    xmlns="http://www.w3.org/2000/svg"
>
    <path
        fill="inherit"
        d="M13.9427 27.8864C21.6427 27.8864 27.8927 21.6264 27.8927 13.9464C27.8927 6.2464 21.6427 -0.0036 13.9427 -0.0036C6.2627 -0.0036 0.0027 6.2464 0.0027 13.9464C0.0027 21.6264 6.2627 27.8864 13.9427 27.8864ZM18.1927 20.7664C17.9827 20.7664 17.8027 20.5864 17.8027 20.3664V19.2864C16.2827 19.1364 15.1227 18.2264 14.8727 16.9664C14.8427 16.8064 14.8327 16.6564 14.8327 16.5064C14.8327 16.0364 15.1527 15.7664 15.5627 15.7664C15.9327 15.7664 16.1827 15.9664 16.3127 16.4164C16.4627 17.1964 16.8827 17.8464 17.8027 17.9964V14.4064L17.3227 14.1864C15.8227 13.4764 14.9727 12.6964 14.9727 11.1664C14.9727 9.5064 16.1727 8.5164 17.8027 8.3664V7.2964C17.8027 7.0864 17.9827 6.9064 18.1927 6.9064C18.4027 6.9064 18.5927 7.0864 18.5927 7.2964V8.3764C19.9627 8.4864 20.9327 9.2564 21.2727 10.5664C21.3327 10.7564 21.3527 10.9664 21.3527 11.1164C21.3527 11.5564 21.0527 11.8164 20.6127 11.8164C20.2527 11.8164 20.0127 11.6064 19.9027 11.2364C19.7127 10.3764 19.3627 9.8064 18.5927 9.6664V13.1564L19.1127 13.3964C20.5727 14.0864 21.5627 14.7364 21.5627 16.3964C21.5627 18.1664 20.3027 19.1664 18.5927 19.2864V20.3664C18.5927 20.5864 18.4027 20.7664 18.1927 20.7664ZM6.7027 19.6464C6.2727 19.6464 5.9027 19.3964 5.9027 18.8964C5.9027 18.7264 5.9627 18.5664 6.0027 18.4164L8.6727 9.0064C8.8427 8.3764 9.2127 8.0264 9.8527 8.0264C10.5227 8.0264 10.8827 8.3564 11.0627 8.9964L13.7527 18.4164C13.8127 18.5964 13.8227 18.7564 13.8227 18.8964C13.8227 19.3964 13.4627 19.6464 13.0727 19.6464C12.6027 19.6464 12.3827 19.4164 12.2527 18.9664L11.6227 16.5464H8.0927L7.4827 18.9664C7.3727 19.4164 7.0927 19.6464 6.7027 19.6464ZM16.4727 11.0864C16.4727 11.8964 17.0727 12.3864 17.8027 12.7564V9.6564C17.0327 9.7764 16.4727 10.2564 16.4727 11.0864ZM8.4227 15.2764H11.2827L9.9027 9.9564H9.7727ZM18.5927 18.0064C19.4827 17.9064 20.0427 17.4364 20.0427 16.5464C20.0427 15.6364 19.3827 15.1764 18.5927 14.7764Z"
        fillRule="evenodd"
        clipRule="evenodd"
    />
</svg>
        