
<svg
    viewBox="0 0 25.169921875 25.169921875"
    xmlns="http://www.w3.org/2000/svg"
>
    <path
        fill="inherit"
        d="M4.2937 25.1692H20.8737C23.7437 25.1692 25.1737 23.7592 25.1737 20.9492V4.2392C25.1737 1.4192 23.7437 -0.0008 20.8737 -0.0008H4.2937C1.4337 -0.0008 0.0037 1.4192 0.0037 4.2392V20.9492C0.0037 23.7592 1.4337 25.1692 4.2937 25.1692ZM4.3237 22.9692C2.9537 22.9692 2.2037 22.2392 2.2037 20.8192V4.3592C2.2037 2.9392 2.9537 2.1992 4.3237 2.1992H20.8537C22.2037 2.1992 22.9737 2.9392 22.9737 4.3592V20.8192C22.9737 22.2392 22.2037 22.9692 20.8537 22.9692ZM16.7037 19.1992C16.9137 19.1992 17.0937 19.0192 17.0937 18.8092V17.7592C18.7437 17.6392 19.9637 16.6792 19.9637 14.9592C19.9637 13.3392 19.0137 12.7192 17.5937 12.0492L17.0937 11.7992V8.4192C17.8237 8.5592 18.1737 9.1192 18.3737 9.9492C18.4837 10.3092 18.7037 10.4992 19.0537 10.4992C19.4837 10.4992 19.7737 10.2492 19.7737 9.8292C19.7737 9.6792 19.7437 9.4892 19.6837 9.2992C19.3737 8.0292 18.4337 7.2892 17.0937 7.1592V6.1292C17.0937 5.9192 16.9137 5.7392 16.7037 5.7392C16.5037 5.7392 16.3237 5.9192 16.3237 6.1292V7.1592C14.7337 7.2992 13.5737 8.2692 13.5737 9.8892C13.5737 11.3592 14.4137 12.1292 15.8637 12.8092L16.3237 13.0192V16.4992C15.4237 16.3492 15.0237 15.7392 14.8737 14.9692C14.7637 14.5292 14.5037 14.3392 14.1637 14.3392C13.7637 14.3392 13.4537 14.5992 13.4537 15.0492C13.4537 15.1992 13.4637 15.3392 13.4937 15.4992C13.7437 16.7192 14.8637 17.6092 16.3237 17.7492V18.8092C16.3237 19.0192 16.5037 19.1992 16.7037 19.1992ZM5.5637 18.0992C5.9437 18.0992 6.2037 17.8792 6.3137 17.4492L6.9137 15.0892H10.3337L10.9537 17.4492C11.0737 17.8792 11.2937 18.0992 11.7437 18.0992C12.1237 18.0992 12.4737 17.8692 12.4737 17.3792C12.4737 17.2392 12.4537 17.0892 12.4037 16.9092L9.7937 7.7692C9.6137 7.1492 9.2737 6.8392 8.6237 6.8392C7.9937 6.8392 7.6437 7.1792 7.4737 7.7792L4.8837 16.9092C4.8437 17.0592 4.8037 17.2292 4.8037 17.3792C4.8037 17.8692 5.1537 18.0992 5.5637 18.0992ZM15.0437 9.7992C15.0437 8.9992 15.5737 8.5292 16.3237 8.4092V11.4292C15.6437 11.0592 15.0437 10.5792 15.0437 9.7992ZM7.2337 13.8592L8.5437 8.6992H8.6637L10.0037 13.8592ZM18.4937 15.0892C18.4937 15.9592 17.9637 16.4192 17.0937 16.5192V13.3892C17.8737 13.7692 18.4937 14.2192 18.4937 15.0892Z"
        fillRule="evenodd"
        clipRule="evenodd"
    />
</svg>
        