
<svg
    viewBox="0 0 36.2578125 30.81640625"
    xmlns="http://www.w3.org/2000/svg"
>
    <path
        fill="inherit"
        d="M28.5837 30.8193C29.0837 30.8193 29.4737 30.4193 29.4737 29.9293V27.5193C33.3637 27.2593 36.2537 25.0493 36.2537 21.1193C36.2537 17.3493 33.6337 15.8493 30.4437 14.5593L29.4737 14.1593V5.5793C31.5437 5.8793 32.8537 7.2493 33.3037 9.4793C33.4437 10.0893 33.8237 10.5993 34.5937 10.5993C35.4237 10.5993 35.9037 10.0493 35.8937 9.2793C35.8937 9.0793 35.8637 8.7793 35.8237 8.5493C35.1237 5.2593 32.6237 3.4893 29.4737 3.2093V0.8893C29.4737 0.3993 29.0837 -0.0007 28.5837 -0.0007C28.0937 -0.0007 27.7037 0.3993 27.7037 0.8893V3.2293C24.1537 3.5593 21.3537 5.7693 21.3537 9.4193C21.3537 12.9293 23.8737 14.6693 26.9837 15.9093L27.7037 16.1993V25.1393C25.3637 24.8593 23.9537 23.5193 23.5137 21.1093C23.3637 20.4093 22.9137 19.9593 22.2037 19.9593C21.4537 19.9593 20.9437 20.4793 20.9437 21.2193C20.9437 21.4893 20.9837 21.7793 21.0237 21.9993C21.7137 25.4193 24.3937 27.2093 27.7037 27.5093V29.9293C27.7037 30.4193 28.0937 30.8193 28.5837 30.8193ZM1.3237 28.2693C2.0337 28.2693 2.4437 27.9293 2.6537 27.2193L4.6037 20.7693H13.5537L15.5037 27.2193C15.7137 27.9293 16.1237 28.2693 16.8537 28.2693C17.5837 28.2693 18.1737 27.8093 18.1737 27.0693C18.1737 26.8693 18.0837 26.5093 18.0237 26.2893L10.9737 4.0293C10.6937 3.0793 10.1137 2.4793 9.0937 2.4793C8.0637 2.4793 7.4937 3.0593 7.1937 4.0493L0.1637 26.2893C0.0937 26.5193 0.0037 26.8093 0.0037 27.0693C0.0037 27.8093 0.5737 28.2693 1.3237 28.2693ZM23.9837 9.2693C23.9837 7.1393 25.6337 5.8793 27.7037 5.5893V13.4493C25.7437 12.6293 23.9837 11.4593 23.9837 9.2693ZM5.2737 18.4693L9.0137 6.0193H9.1237L12.8837 18.4693ZM33.6437 21.3593C33.6437 23.7193 31.9137 24.9693 29.4737 25.1693V16.9093C31.7437 17.8193 33.6437 18.8793 33.6437 21.3593Z"
        fillRule="evenodd"
        clipRule="evenodd"
    />
</svg>
        