
<svg
    viewBox={0 0 25.169921875 25.169921875}
    xmlns="http://www.w3.org/2000/svg"
>
    <path
        fill="inherit"
        d="M4.2937 25.1692H20.8737C23.7437 25.1692 25.1737 23.7592 25.1737 20.9492V4.2392C25.1737 1.4192 23.7437 -0.0008 20.8737 -0.0008H4.2937C1.4337 -0.0008 0.0037 1.4192 0.0037 4.2392V20.9492C0.0037 23.7592 1.4337 25.1692 4.2937 25.1692ZM4.3237 22.9692C2.9537 22.9692 2.2037 22.2392 2.2037 20.8192V4.3592C2.2037 2.9392 2.9537 2.1992 4.3237 2.1992H20.8537C22.2037 2.1992 22.9737 2.9392 22.9737 4.3592V20.8192C22.9737 22.2392 22.2037 22.9692 20.8537 22.9692ZM8.6537 18.9392C9.0737 18.9392 9.2937 18.7292 9.4237 18.3192L10.2037 15.7892H14.9737L15.7537 18.3292C15.8637 18.6992 16.0737 18.9392 16.5337 18.9392C16.9537 18.9392 17.3037 18.6892 17.3037 18.2292C17.3037 18.0892 17.2837 17.9392 17.2237 17.7992L16.5737 15.7892H17.4137C17.6637 15.7892 17.8737 15.5892 17.8737 15.3392C17.8737 15.0892 17.6637 14.8892 17.4137 14.8892H16.2737L15.7637 13.3292H17.4137C17.6637 13.3292 17.8737 13.1292 17.8737 12.8792C17.8737 12.6192 17.6637 12.4092 17.4137 12.4092H15.4637L13.6737 6.9892C13.5037 6.4492 13.1637 6.1792 12.5937 6.1792C12.0137 6.1792 11.6637 6.4792 11.4937 6.9892L9.7037 12.4092H7.7637C7.5037 12.4092 7.3037 12.6192 7.3037 12.8792C7.3037 13.1292 7.5037 13.3292 7.7637 13.3292H9.4237L8.9037 14.8892H7.7637C7.5037 14.8892 7.3037 15.0892 7.3037 15.3392C7.3037 15.5892 7.5037 15.7892 7.7637 15.7892H8.6137L7.9437 17.8392C7.8937 17.9892 7.8637 18.1192 7.8637 18.2292C7.8637 18.6792 8.2137 18.9392 8.6537 18.9392ZM12.5637 8.1092H12.6237L13.9437 12.4092H11.2337ZM10.4737 14.8892L10.9537 13.3292H14.2237L14.6937 14.8892Z"
        fillRule="evenodd"
        clipRule="evenodd"
    />
</svg>
        