
<svg
    viewBox={0 0 30.544813437289534 27.890625}
    xmlns="http://www.w3.org/2000/svg"
>
    <path
        fill="inherit"
        d="M0.9769 11.3064C-0.0131 11.3064 -0.2531 11.9764 0.2769 12.7464L3.3369 17.0864C3.7869 17.7164 4.4469 17.7064 4.8869 17.0864L7.9269 12.7264C8.4669 11.9764 8.2069 11.3064 7.2469 11.3064H5.2769C6.4669 6.1564 11.0769 2.3264 16.5969 2.3264C23.0269 2.3264 28.2169 7.5164 28.2169 13.9464C28.2169 20.3664 23.0269 25.5664 16.5969 25.5664C12.7169 25.5664 9.2569 23.6564 7.1969 20.7564C6.7669 20.1964 6.1269 20.0164 5.5569 20.3564C5.0069 20.6964 4.8369 21.4664 5.3069 22.0664C7.8369 25.6064 11.9769 27.8864 16.5969 27.8864C24.2969 27.8864 30.5469 21.6464 30.5469 13.9464C30.5469 6.2464 24.2969 -0.0036 16.5969 -0.0036C9.8069 -0.0036 4.1269 4.8664 2.8969 11.3064ZM20.5669 20.3064C20.7569 20.3064 20.9369 20.1364 20.9369 19.9364V18.9264C22.5169 18.8164 23.6769 17.8864 23.6769 16.2264C23.6769 14.6664 22.7769 14.0864 21.4169 13.4264L20.9369 13.1964V9.9564C21.6269 10.0864 21.9769 10.6264 22.1669 11.4264C22.2569 11.7564 22.4769 11.9464 22.8169 11.9464C23.2269 11.9464 23.5069 11.7164 23.5069 11.3064C23.5069 11.1564 23.4769 10.9764 23.4169 10.7864C23.1169 9.5664 22.2069 8.8564 20.9369 8.7464V7.7364C20.9369 7.5464 20.7569 7.3664 20.5669 7.3664C20.3569 7.3664 20.1969 7.5464 20.1969 7.7364V8.7464C18.6769 8.8764 17.5569 9.8064 17.5569 11.3564C17.5569 12.7664 18.3669 13.5064 19.7569 14.1664L20.1969 14.3664V17.7164C19.3369 17.5864 18.9469 16.9764 18.7969 16.2564C18.6869 15.8164 18.4469 15.6364 18.1169 15.6364C17.7369 15.6364 17.4369 15.8864 17.4369 16.3264C17.4369 16.4564 17.4469 16.5964 17.4769 16.7464C17.7069 17.9264 18.7869 18.7864 20.1969 18.9264V19.9364C20.1969 20.1364 20.3569 20.3064 20.5669 20.3064ZM9.8569 19.2464C10.2269 19.2464 10.4769 19.0464 10.5669 18.6164L11.1469 16.3664H14.4369L15.0269 18.6164C15.1469 19.0464 15.3669 19.2464 15.7969 19.2464C16.1669 19.2464 16.4869 19.0264 16.4869 18.5664C16.4869 18.4264 16.4769 18.2764 16.4169 18.1064L13.9169 9.3264C13.7469 8.7264 13.4169 8.4264 12.7969 8.4264C12.1969 8.4264 11.8569 8.7464 11.6869 9.3264L9.2069 18.1064C9.1469 18.2564 9.1169 18.4164 9.1169 18.5664C9.1169 19.0264 9.4669 19.2464 9.8569 19.2464ZM18.9469 11.2764C18.9469 10.4964 19.4669 10.0464 20.1969 9.9364V12.8364C19.5369 12.4964 18.9469 12.0264 18.9469 11.2764ZM11.4569 15.1764L12.7169 10.2164H12.8369L14.1269 15.1764ZM22.2769 16.3564C22.2769 17.1964 21.7669 17.6364 20.9369 17.7164V14.7264C21.6669 15.0964 22.2769 15.5164 22.2769 16.3564Z"
        fillRule="evenodd"
        clipRule="evenodd"
    />
</svg>
        