<svg viewBox="0 0 27.890625 27.890625" xmlns="http://www.w3.org/2000/svg"><path d="M13.9427 27.8864C21.6427 27.8864 27.8927 21.6464 27.8927 13.9464C27.8927 6.2464 21.6427 -0.0036 13.9427 -0.0036C6.2527 -0.0036 0.0027 6.2464 0.0027 13.9464C0.0027 21.6464 6.2527 27.8864 13.9427 27.8864ZM13.9427 25.5664C7.5227 25.5664 2.3227 20.3664 2.3227 13.9464C2.3227 7.5164 7.5227 2.3264 13.9427 2.3264C20.3727 2.3264 25.5627 7.5164 25.5627 13.9464C25.5627 20.3664 20.3727 25.5664 13.9427 25.5664ZM9.9927 20.3064C10.4227 20.3064 10.6327 20.0964 10.7627 19.6864L11.5427 17.1564H16.3127L17.0927 19.6964C17.2027 20.0664 17.4227 20.3064 17.8727 20.3064C18.2927 20.3064 18.6527 20.0564 18.6527 19.5964C18.6527 19.4564 18.6227 19.3064 18.5627 19.1664L17.9127 17.1564H18.7627C19.0027 17.1564 19.2127 16.9564 19.2127 16.7064C19.2127 16.4564 19.0027 16.2564 18.7627 16.2564H17.6127L17.1027 14.6964H18.7627C19.0027 14.6964 19.2127 14.4964 19.2127 14.2464C19.2127 13.9864 19.0027 13.7764 18.7627 13.7764H16.8027L15.0127 8.3564C14.8327 7.8164 14.5027 7.5464 13.9327 7.5464C13.3527 7.5464 12.9927 7.8464 12.8227 8.3564L11.0427 13.7764H9.0927C8.8427 13.7764 8.6427 13.9864 8.6427 14.2464C8.6427 14.4964 8.8427 14.6964 9.0927 14.6964H10.7627L10.2427 16.2564H9.0927C8.8427 16.2564 8.6427 16.4564 8.6427 16.7064C8.6427 16.9564 8.8427 17.1564 9.0927 17.1564H9.9427L9.2727 19.2064C9.2327 19.3564 9.2027 19.4864 9.2027 19.5964C9.2027 20.0464 9.5527 20.3064 9.9927 20.3064ZM13.9027 9.4764H13.9627L15.2727 13.7764H12.5827ZM11.8127 16.2564L12.2927 14.6964H15.5627L16.0327 16.2564Z" /></svg>