
<svg
    viewBox="0 0 27.890625 27.890625"
    xmlns="http://www.w3.org/2000/svg"
>
    <path
        fill="inherit"
        d="M13.9427 27.8864C21.6427 27.8864 27.8927 21.6464 27.8927 13.9464C27.8927 6.2464 21.6427 -0.0036 13.9427 -0.0036C6.2527 -0.0036 0.0027 6.2464 0.0027 13.9464C0.0027 21.6464 6.2527 27.8864 13.9427 27.8864ZM13.9427 25.5664C7.5227 25.5664 2.3227 20.3664 2.3227 13.9464C2.3227 7.5164 7.5227 2.3264 13.9427 2.3264C20.3727 2.3264 25.5627 7.5164 25.5627 13.9464C25.5627 20.3664 20.3727 25.5664 13.9427 25.5664ZM18.0427 20.5664C18.2527 20.5664 18.4327 20.3864 18.4327 20.1764V19.1264C20.0827 19.0064 21.3027 18.0464 21.3027 16.3264C21.3027 14.7064 20.3527 14.0864 18.9327 13.4164L18.4327 13.1664V9.7864C19.1727 9.9264 19.5127 10.4864 19.7127 11.3164C19.8227 11.6764 20.0427 11.8664 20.4027 11.8664C20.8227 11.8664 21.1127 11.6164 21.1127 11.1964C21.1127 11.0464 21.0827 10.8564 21.0227 10.6664C20.7027 9.3964 19.7527 8.6564 18.4327 8.5264V7.4964C18.4327 7.2864 18.2527 7.1064 18.0427 7.1064C17.8427 7.1064 17.6627 7.2864 17.6627 7.4964V8.5264C16.0827 8.6664 14.9127 9.6364 14.9127 11.2564C14.9127 12.7264 15.7527 13.4964 17.2027 14.1764L17.6627 14.3864V17.8664C16.7627 17.7164 16.3627 17.1064 16.2127 16.3364C16.0927 15.8964 15.8427 15.7064 15.4927 15.7064C15.0927 15.7064 14.7927 15.9664 14.7927 16.4164C14.7927 16.5664 14.8027 16.7064 14.8327 16.8664C15.0827 18.0864 16.2027 18.9764 17.6627 19.1164V20.1764C17.6627 20.3864 17.8427 20.5664 18.0427 20.5664ZM6.9027 19.4664C7.2827 19.4664 7.5427 19.2464 7.6527 18.8164L8.2427 16.4564H11.6727L12.2927 18.8164C12.4127 19.2464 12.6327 19.4664 13.0827 19.4664C13.4627 19.4664 13.8127 19.2364 13.8127 18.7464C13.8127 18.6064 13.7927 18.4564 13.7427 18.2764L11.1327 9.1364C10.9527 8.5164 10.6127 8.2064 9.9627 8.2064C9.3427 8.2064 8.9827 8.5464 8.8227 9.1464L6.2227 18.2764C6.1827 18.4264 6.1427 18.5964 6.1427 18.7464C6.1427 19.2364 6.4927 19.4664 6.9027 19.4664ZM16.3827 11.1664C16.3827 10.3664 16.9127 9.8964 17.6627 9.7764V12.7964C16.9827 12.4264 16.3827 11.9464 16.3827 11.1664ZM8.5727 15.2264L9.8827 10.0664H10.0127L11.3427 15.2264ZM19.8427 16.4564C19.8427 17.3264 19.3027 17.7864 18.4327 17.8864V14.7564C19.2127 15.1364 19.8427 15.5864 19.8427 16.4564Z"
        fillRule="evenodd"
        clipRule="evenodd"
    />
</svg>
        