
<svg
    viewBox={0 0 25.169921875 25.169921875}
    xmlns="http://www.w3.org/2000/svg"
>
    <path
        fill="inherit"
        d="M4.2937 25.1692H20.8737C23.7437 25.1692 25.1737 23.7592 25.1737 20.9492V4.2392C25.1737 1.4192 23.7437 -0.0008 20.8737 -0.0008H4.2937C1.4337 -0.0008 0.0037 1.4192 0.0037 4.2392V20.9492C0.0037 23.7592 1.4337 25.1692 4.2937 25.1692ZM16.8437 19.3992C16.6237 19.3992 16.4437 19.2192 16.4437 18.9992V17.9192C14.9337 17.7692 13.7837 16.8592 13.5237 15.5992C13.4937 15.4392 13.4837 15.2892 13.4837 15.1392C13.4837 14.6692 13.8037 14.3992 14.2237 14.3992C14.5737 14.3992 14.8437 14.5992 14.9537 15.0492C15.1037 15.8292 15.5337 16.4792 16.4437 16.6292V13.0392L15.9737 12.8192C14.4637 12.1092 13.6137 11.3292 13.6137 9.7992C13.6137 8.1392 14.8237 7.1492 16.4437 6.9992V5.9292C16.4437 5.7192 16.6237 5.5392 16.8437 5.5392C17.0537 5.5392 17.2437 5.7192 17.2437 5.9292V7.0092C18.6037 7.1192 19.5937 7.8892 19.9237 9.1992C19.9737 9.3892 20.0037 9.5992 20.0037 9.7492C20.0037 10.1892 19.7037 10.4492 19.2637 10.4492C18.8937 10.4492 18.6737 10.2392 18.5537 9.8692C18.3637 9.0092 18.0037 8.4392 17.2437 8.2992V11.7892L17.7637 12.0292C19.2237 12.7192 20.2037 13.3692 20.2037 15.0292C20.2037 16.7992 18.9537 17.7992 17.2437 17.9192V18.9992C17.2437 19.2192 17.0537 19.3992 16.8437 19.3992ZM5.3437 18.2792C4.9237 18.2792 4.5537 18.0292 4.5537 17.5292C4.5537 17.3592 4.6037 17.1992 4.6437 17.0492L7.3137 7.6392C7.4937 7.0092 7.8637 6.6592 8.5037 6.6592C9.1737 6.6592 9.5337 6.9892 9.7037 7.6292L12.4037 17.0492C12.4537 17.2292 12.4737 17.3892 12.4737 17.5292C12.4737 18.0292 12.1137 18.2792 11.7137 18.2792C11.2537 18.2792 11.0337 18.0492 10.8937 17.5992L10.2637 15.1792H6.7537L6.1237 17.5992C6.0137 18.0492 5.7437 18.2792 5.3437 18.2792ZM15.1237 9.7192C15.1237 10.5292 15.7237 11.0192 16.4437 11.3892V8.2892C15.6837 8.4092 15.1237 8.8892 15.1237 9.7192ZM7.0637 13.9092H9.9237L8.5437 8.5892H8.4237ZM17.2437 16.6392C18.1337 16.5392 18.6937 16.0692 18.6937 15.1792C18.6937 14.2692 18.0437 13.8092 17.2437 13.4092Z"
        fillRule="evenodd"
        clipRule="evenodd"
    />
</svg>
        