
<svg
    viewBox={0 0 32.935546875 27.33018496744969}
    xmlns="http://www.w3.org/2000/svg"
>
    <path
        fill="inherit"
        d="M16.4627 5.864C18.9327 5.864 21.2027 6.724 23.0227 8.134C23.2927 8.354 23.6527 8.324 23.9127 8.064L27.0827 4.894C27.4027 4.584 27.3827 4.124 27.0527 3.854C24.2027 1.454 20.4927 0.004 16.4627 0.004C12.4427 0.004 8.7327 1.454 5.8827 3.854C5.5527 4.124 5.5327 4.584 5.8527 4.894L9.0227 8.064C9.2827 8.324 9.6527 8.354 9.9527 8.124C11.7627 6.724 14.0127 5.864 16.4627 5.864ZM0.0027 16.464C0.0027 20.494 1.4527 24.204 3.8727 27.074C4.1427 27.414 4.6027 27.414 4.9127 27.094L8.1627 23.844C8.3627 23.624 8.3927 23.324 8.2027 23.094C6.7127 21.194 5.8627 18.924 5.8627 16.464C5.8627 14.014 6.7027 11.744 8.1227 9.944C8.3427 9.654 8.3427 9.284 8.0827 9.024L4.9127 5.854C4.5927 5.534 4.1427 5.534 3.8727 5.864C1.4527 8.734 0.0027 12.444 0.0027 16.464ZM32.9327 16.464C32.9327 12.444 31.4827 8.734 29.0627 5.864C28.7927 5.534 28.3327 5.534 28.0227 5.854L24.8527 9.024C24.5927 9.284 24.5827 9.654 24.8127 9.944C26.2227 11.744 27.0727 14.014 27.0727 16.464C27.0727 18.924 26.2227 21.194 24.7327 23.094C24.5427 23.324 24.5527 23.624 24.7627 23.844L28.0127 27.094C28.3327 27.414 28.7827 27.414 29.0627 27.074C31.4827 24.204 32.9327 20.494 32.9327 16.464ZM20.3727 22.924C20.5627 22.924 20.7227 22.764 20.7227 22.574V21.564C22.3027 21.454 23.4627 20.534 23.4627 18.904C23.4627 17.364 22.5627 16.774 21.2227 16.134L20.7227 15.904V12.684C21.4227 12.824 21.7627 13.354 21.9527 14.154C22.0527 14.474 22.2627 14.684 22.6027 14.684C23.0127 14.684 23.2827 14.434 23.2827 14.024C23.2827 13.894 23.2527 13.714 23.2027 13.524C22.9027 12.314 22.0027 11.624 20.7227 11.514V10.514C20.7227 10.324 20.5627 10.144 20.3727 10.144C20.1627 10.144 20.0027 10.324 20.0027 10.514V11.514C18.5027 11.634 17.3927 12.554 17.3927 14.084C17.3927 15.494 18.1827 16.214 19.5627 16.854L20.0027 17.064V20.374C19.1527 20.234 18.7727 19.644 18.6227 18.924C18.5127 18.494 18.2827 18.324 17.9527 18.324C17.5727 18.324 17.2627 18.564 17.2627 18.994C17.2627 19.144 17.2827 19.274 17.3227 19.414C17.5527 20.574 18.6027 21.424 20.0027 21.564V22.574C20.0027 22.764 20.1627 22.924 20.3727 22.924ZM9.7727 21.884C10.1427 21.884 10.3927 21.684 10.4827 21.274L11.0627 19.044H14.3127L14.9027 21.274C15.0127 21.684 15.2327 21.884 15.6527 21.884C16.0127 21.884 16.3427 21.674 16.3427 21.204C16.3427 21.064 16.3227 20.934 16.2727 20.754L13.7927 12.074C13.6127 11.484 13.3027 11.184 12.7027 11.184C12.1027 11.184 11.7627 11.514 11.5927 12.084L9.1327 20.754C9.0927 20.904 9.0627 21.054 9.0627 21.204C9.0627 21.674 9.3927 21.884 9.7727 21.884ZM18.7827 14.004C18.7827 13.234 19.2927 12.794 20.0027 12.684V15.544C19.3427 15.204 18.7827 14.754 18.7827 14.004ZM11.3627 17.854L12.6227 12.964H12.7327L14.0127 17.854ZM22.0627 19.034C22.0627 19.854 21.5627 20.294 20.7227 20.384V17.414C21.4627 17.774 22.0627 18.194 22.0627 19.034Z"
        fillRule="evenodd"
        clipRule="evenodd"
    />
</svg>
        