
<svg
    viewBox="0 0 27.890625 27.890625"
    xmlns="http://www.w3.org/2000/svg"
>
    <path
        fill="inherit"
        d="M13.9427 27.8864C21.6427 27.8864 27.8927 21.6264 27.8927 13.9464C27.8927 6.2464 21.6427 -0.0036 13.9427 -0.0036C6.2627 -0.0036 0.0027 6.2464 0.0027 13.9464C0.0027 21.6264 6.2627 27.8864 13.9427 27.8864ZM9.8827 20.5064C9.4327 20.5064 9.0627 20.2164 9.0627 19.7664C9.0627 19.6564 9.0927 19.5364 9.1327 19.3764L9.8327 17.2664H8.9527C8.6927 17.2664 8.4927 17.0464 8.4927 16.8064C8.4927 16.5464 8.6927 16.3264 8.9527 16.3264H10.1427L10.6627 14.7264H8.9527C8.6927 14.7264 8.4927 14.5064 8.4927 14.2564C8.4927 13.9864 8.6927 13.7764 8.9527 13.7764H10.9827L12.7927 8.1764C12.9727 7.6564 13.3527 7.3464 13.9427 7.3464C14.5427 7.3464 14.8727 7.6464 15.0627 8.1764L16.9127 13.7764H18.9227C19.1827 13.7764 19.4027 13.9864 19.4027 14.2564C19.4027 14.5064 19.1827 14.7264 18.9227 14.7264H17.2127L17.7427 16.3264H18.9227C19.1827 16.3264 19.4027 16.5464 19.4027 16.8064C19.4027 17.0464 19.1827 17.2664 18.9227 17.2664H18.0627L18.7327 19.3364C18.7827 19.4664 18.8127 19.6364 18.8127 19.7664C18.8127 20.2464 18.4427 20.5064 18.0027 20.5064C17.5427 20.5064 17.3127 20.2664 17.2027 19.8764L16.4027 17.2664H11.4827L10.6827 19.8664C10.5527 20.2864 10.3227 20.5064 9.8827 20.5064ZM12.5527 13.7764H15.3227L13.9727 9.3364H13.9227ZM11.7727 16.3264H16.1227L15.6127 14.7264H12.2627Z"
        fillRule="evenodd"
        clipRule="evenodd"
    />
</svg>
        