
<svg
    viewBox="0 0 20.75390625 25.484375"
    xmlns="http://www.w3.org/2000/svg"
>
    <path
        fill="inherit"
        d="M0.0037 18.1933C0.0037 18.6933 0.3937 19.1033 0.8937 19.1033H2.6637L1.1737 23.5433C1.0937 23.8033 1.0537 24.0033 1.0537 24.2833C1.0537 25.0333 1.6537 25.4833 2.3937 25.4833C3.1037 25.4833 3.5037 25.1133 3.7037 24.4433L5.3837 19.1033H15.3637L17.0637 24.4633C17.2637 25.1533 17.6537 25.4833 18.3737 25.4833C19.1137 25.4833 19.7137 25.0333 19.7137 24.2833C19.7137 24.1033 19.6637 23.8033 19.5737 23.5333L18.0837 19.1033H19.8637C20.3437 19.1033 20.7537 18.6933 20.7537 18.1933C20.7537 17.7233 20.3437 17.3133 19.8637 17.3133H17.4837L16.4237 14.1333H19.8637C20.3437 14.1333 20.7537 13.7433 20.7537 13.2433C20.7537 12.7533 20.3437 12.3633 19.8637 12.3633H15.8337L12.1237 1.3133C11.8237 0.4333 11.2637 0.0033 10.3737 0.0033C9.4837 0.0033 8.9237 0.4333 8.6237 1.3133L4.9337 12.3633H0.8937C0.3937 12.3633 0.0037 12.7533 0.0037 13.2433C0.0037 13.7433 0.3937 14.1333 0.8937 14.1333H4.3337L3.2637 17.3133H0.8937C0.3937 17.3133 0.0037 17.7233 0.0037 18.1933ZM10.3037 3.4733H10.4337L13.2337 12.3633H7.5037ZM5.9437 17.3133L6.9437 14.1333H13.8037L14.8037 17.3133Z"
        fillRule="evenodd"
        clipRule="evenodd"
    />
</svg>
        