
<svg
    viewBox={0 0 30.5703125 30.5703125}
    xmlns="http://www.w3.org/2000/svg"
>
    <path
        fill="inherit"
        d="M15.2827 30.5663C23.6827 30.5663 30.5727 23.6763 30.5727 15.2863C30.5727 6.8863 23.6827 -0.0038 15.2827 -0.0038C6.8927 -0.0038 0.0027 6.8863 0.0027 15.2863C0.0027 23.6763 6.8927 30.5663 15.2827 30.5663ZM15.2827 25.4862C9.6527 25.4862 5.0827 20.9162 5.0827 15.2863C5.0827 9.6363 9.6527 5.0863 15.2827 5.0863C20.9327 5.0863 25.4827 9.6363 25.4827 15.2863C25.4827 20.9162 20.9327 25.4862 15.2827 25.4862ZM19.1927 21.5763C19.4027 21.5763 19.5627 21.4063 19.5627 21.2063V20.2063C21.1327 20.0963 22.2827 19.1863 22.2827 17.5363C22.2827 16.0063 21.3927 15.4263 20.0427 14.7763L19.5627 14.5463V11.3363C20.2627 11.4663 20.6027 12.0063 20.7927 12.7963C20.8927 13.1263 21.0927 13.3163 21.4327 13.3163C21.8427 13.3163 22.1227 13.0863 22.1227 12.6763C22.1227 12.5262 22.0927 12.3563 22.0427 12.1663C21.7227 10.9663 20.8327 10.2663 19.5627 10.1463V9.1563C19.5627 8.9563 19.4027 8.7862 19.1927 8.7862C19.0027 8.7862 18.8427 8.9563 18.8427 9.1563V10.1463C17.3327 10.2762 16.2327 11.1962 16.2327 12.7263C16.2327 14.1263 17.0227 14.8663 18.4027 15.5063L18.8427 15.7063V19.0063C17.9927 18.8763 17.6127 18.2763 17.4627 17.5663C17.3527 17.1263 17.1027 16.9663 16.7727 16.9663C16.4027 16.9663 16.1027 17.2163 16.1027 17.6363C16.1027 17.7763 16.1227 17.9063 16.1427 18.0563C16.3927 19.2263 17.4427 20.0663 18.8427 20.2063V21.2063C18.8427 21.4063 19.0027 21.5763 19.1927 21.5763ZM8.6127 20.5363C8.9827 20.5363 9.2327 20.3263 9.3227 19.9063L9.9027 17.6763H13.1527L13.7427 19.9063C13.8527 20.3263 14.0727 20.5363 14.4827 20.5363C14.8427 20.5363 15.1727 20.3163 15.1727 19.8563C15.1727 19.7163 15.1627 19.5663 15.1027 19.3963L12.6327 10.7163C12.4527 10.1263 12.1427 9.8263 11.5427 9.8263C10.9327 9.8263 10.5927 10.1463 10.4327 10.7163L7.9727 19.3963C7.9327 19.5463 7.8927 19.6963 7.8927 19.8563C7.8927 20.3163 8.2327 20.5363 8.6127 20.5363ZM17.6227 12.6463C17.6227 11.8763 18.1327 11.4462 18.8427 11.3363V14.1963C18.1827 13.8463 17.6227 13.3963 17.6227 12.6463ZM10.2027 16.5063L11.4527 11.5963H11.5627L12.8427 16.5063ZM20.9027 17.6763C20.9027 18.4963 20.4027 18.9363 19.5627 19.0163V16.0463C20.3027 16.4162 20.9027 16.8462 20.9027 17.6763Z"
        fillRule="evenodd"
        clipRule="evenodd"
    />
</svg>
        