
<svg
    viewBox="0 0 30.5703125 30.5703125"
    xmlns="http://www.w3.org/2000/svg"
>
    <path
        fill="inherit"
        d="M15.2827 30.5663C23.6827 30.5663 30.5727 23.6763 30.5727 15.2863C30.5727 6.8863 23.6827 -0.0038 15.2827 -0.0038C6.8927 -0.0038 0.0027 6.8863 0.0027 15.2863C0.0027 23.6763 6.8927 30.5663 15.2827 30.5663ZM15.2827 25.4862C9.6527 25.4862 5.0827 20.9162 5.0827 15.2863C5.0827 9.6363 9.6527 5.0863 15.2827 5.0863C20.9327 5.0863 25.4827 9.6363 25.4827 15.2863C25.4827 20.9162 20.9327 25.4862 15.2827 25.4862ZM11.3427 21.6463C11.7727 21.6463 11.9927 21.4363 12.1127 21.0263L12.8927 18.4963H17.6627L18.4427 21.0363C18.5527 21.4063 18.7727 21.6463 19.2227 21.6463C19.6427 21.6463 20.0027 21.3963 20.0027 20.9363C20.0027 20.7963 19.9727 20.6463 19.9227 20.5063L19.2627 18.4963H20.1127C20.3527 18.4963 20.5627 18.2963 20.5627 18.0463C20.5627 17.7963 20.3527 17.5963 20.1127 17.5963H18.9627L18.4527 16.0363H20.1127C20.3527 16.0363 20.5627 15.8363 20.5627 15.5863C20.5627 15.3263 20.3527 15.1163 20.1127 15.1163H18.1527L16.3627 9.6962C16.2027 9.1563 15.8627 8.8863 15.2827 8.8863C14.7127 8.8863 14.3527 9.1863 14.1827 9.6962L12.4027 15.1163H10.4627C10.2027 15.1163 9.9927 15.3263 9.9927 15.5863C9.9927 15.8363 10.2027 16.0363 10.4627 16.0363H12.1127L11.5927 17.5963H10.4627C10.2027 17.5963 9.9927 17.7963 9.9927 18.0463C9.9927 18.2963 10.2027 18.4963 10.4627 18.4963H11.3027L10.6327 20.5463C10.5827 20.6963 10.5527 20.8263 10.5527 20.9363C10.5527 21.3863 10.9127 21.6463 11.3427 21.6463ZM15.2627 10.8163H15.3127L16.6427 15.1163H13.9327ZM13.1627 17.5963L13.6427 16.0363H16.9127L17.3927 17.5963Z"
        fillRule="evenodd"
        clipRule="evenodd"
    />
</svg>
        