
<svg
    viewBox={0 0 27.890625 28.41235399963779}
    xmlns="http://www.w3.org/2000/svg"
>
    <path
        fill="inherit"
        d="M13.9427 2.3264C20.4027 2.3264 25.5927 7.4964 25.5627 13.9464C25.5527 16.1864 24.9227 18.2664 23.8127 20.0264L25.4727 21.6664C26.9727 19.4364 27.8927 16.8064 27.8927 13.9464C27.8927 6.3164 21.5727 -0.0036 13.9427 -0.0036C11.0927 -0.0036 8.4227 0.8864 6.1927 2.3964L7.8627 4.0564C9.6227 2.9664 11.7027 2.3264 13.9427 2.3264ZM25.7427 27.2464C26.1527 27.6564 26.8227 27.6464 27.2327 27.2364C27.6327 26.8264 27.6427 26.1564 27.2327 25.7464L2.1427 0.6664C1.7327 0.2564 1.0627 0.2464 0.6427 0.6664C0.2427 1.0664 0.2427 1.7464 0.6427 2.1564ZM0.0027 13.9464C0.0027 18.5564 2.3527 22.6264 5.8427 25.2264C6.4427 25.6864 7.1927 25.5364 7.5327 24.9764C7.8727 24.4164 7.6927 23.7664 7.1327 23.3564C4.2227 21.2564 2.3427 17.8464 2.3227 13.9464C2.3127 11.7064 2.9427 9.6264 4.0327 7.8564L2.3927 6.2064C0.8927 8.4364 0.0027 11.0864 0.0027 13.9464ZM12.1427 8.3364L13.5327 9.7364L13.8627 8.8364H14.0127L14.7827 10.9764L17.8927 14.0964L15.4627 7.5764C15.2027 6.8664 14.6827 6.4964 13.9327 6.4964C13.1927 6.4964 12.6827 6.8664 12.4127 7.5764ZM10.5027 18.6764L11.6227 15.4464L10.0727 13.9064L8.5827 17.8964C8.4727 18.1864 8.4327 18.4064 8.4327 18.6064C8.4327 19.1664 8.8427 19.5464 9.4427 19.5464C9.9427 19.5464 10.2927 19.3064 10.5027 18.6764ZM18.5827 22.4064L17.5727 27.2764C17.4227 28.0364 17.8727 28.5064 18.6627 28.3964L23.8127 27.6464Z"
        fillRule="evenodd"
        clipRule="evenodd"
    />
</svg>
        