
<svg
    viewBox={0 0 27.890625 28.41235399963779}
    xmlns="http://www.w3.org/2000/svg"
>
    <path
        fill="inherit"
        d="M0.0027 13.9464C0.0027 18.5564 2.2427 22.6664 5.8227 25.2364C6.4227 25.7064 7.1927 25.5364 7.5327 24.9764C7.8727 24.4164 7.6927 23.7664 7.1327 23.3564C4.2427 21.2764 2.3227 17.8464 2.3227 13.9464C2.3227 7.5164 7.5227 2.3264 13.9427 2.3264C20.3727 2.3264 25.5627 7.5164 25.5627 13.9464C25.5627 17.5664 23.9127 20.7764 21.3427 22.8964L20.1527 21.6564C19.4727 20.9464 18.8127 21.2464 18.6327 22.1364L17.5727 27.2764C17.4227 28.0364 17.8727 28.5064 18.6627 28.3964L23.9027 27.6564C24.8427 27.5264 25.1427 26.8964 24.4727 26.1664L22.9427 24.5664C25.9927 21.9964 27.8927 18.1564 27.8927 13.9464C27.8927 6.2464 21.6427 -0.0036 13.9427 -0.0036C6.2527 -0.0036 0.0027 6.2464 0.0027 13.9464ZM9.4427 19.5464C9.9427 19.5464 10.2927 19.3064 10.5027 18.6764L11.5027 15.7664H16.3927L17.3927 18.6764C17.5927 19.3064 17.9327 19.5464 18.4427 19.5464C19.0427 19.5464 19.4527 19.1564 19.4527 18.6064C19.4527 18.3864 19.4027 18.1964 19.3027 17.8964L15.4627 7.5764C15.2027 6.8664 14.6827 6.4964 13.9327 6.4964C13.1927 6.4964 12.6827 6.8664 12.4127 7.5764L8.5827 17.8964C8.4727 18.1964 8.4327 18.3864 8.4327 18.5964C8.4327 19.1664 8.8327 19.5464 9.4427 19.5464ZM12.0427 14.1264L13.8627 8.8364H14.0127L15.8327 14.1264Z"
        fillRule="evenodd"
        clipRule="evenodd"
    />
</svg>
        