
<svg
    viewBox={0 0 15.61328125 32.033203125}
    xmlns="http://www.w3.org/2000/svg"
>
    <path
        fill="inherit"
        d="M3.5637 32.0309H12.0437C14.2337 32.0309 15.6137 30.6909 15.6137 28.6309V3.3909C15.6137 1.3309 14.2337 0.0009 12.0437 0.0009H3.5637C1.3837 0.0009 0.0037 1.3309 0.0037 3.3909V28.6309C0.0037 30.6909 1.3837 32.0309 3.5637 32.0309ZM8.6637 4.9309C8.1737 4.9309 7.7837 4.5509 7.7837 4.0609C7.7837 3.5709 8.1737 3.1709 8.6637 3.1709H11.6737C12.1637 3.1709 12.5537 3.5709 12.5537 4.0609C12.5537 4.5509 12.1637 4.9309 11.6737 4.9309ZM4.3637 10.1809C3.6137 10.1809 2.9937 9.5809 2.9937 8.8009C2.9937 8.0709 3.6137 7.4409 4.3637 7.4409C5.1237 7.4409 5.7437 8.0709 5.7437 8.8009C5.7437 9.5809 5.1237 10.1809 4.3637 10.1809ZM7.8037 10.1809C7.0437 10.1809 6.4437 9.5809 6.4437 8.8009C6.4437 8.0709 7.0437 7.4409 7.8037 7.4409C8.5737 7.4409 9.1737 8.0709 9.1737 8.8009C9.1737 9.5809 8.5737 10.1809 7.8037 10.1809ZM11.2637 10.1809C10.5037 10.1809 9.8937 9.5809 9.8937 8.8009C9.8937 8.0709 10.5037 7.4409 11.2637 7.4409C12.0137 7.4409 12.6337 8.0709 12.6337 8.8009C12.6337 9.5809 12.0137 10.1809 11.2637 10.1809ZM4.3637 14.1209C3.6137 14.1209 2.9937 13.5209 2.9937 12.7509C2.9937 12.0209 3.6137 11.3909 4.3637 11.3909C5.1237 11.3909 5.7437 12.0209 5.7437 12.7509C5.7437 13.5209 5.1237 14.1209 4.3637 14.1209ZM7.8037 14.1209C7.0437 14.1209 6.4437 13.5209 6.4437 12.7509C6.4437 12.0209 7.0437 11.3909 7.8037 11.3909C8.5737 11.3909 9.1737 12.0209 9.1737 12.7509C9.1737 13.5209 8.5737 14.1209 7.8037 14.1209ZM11.2637 14.1209C10.5037 14.1209 9.8937 13.5209 9.8937 12.7509C9.8937 12.0209 10.5037 11.3909 11.2637 11.3909C12.0137 11.3909 12.6337 12.0209 12.6337 12.7509C12.6337 13.5209 12.0137 14.1209 11.2637 14.1209ZM4.3637 18.0609C3.6137 18.0609 2.9937 17.4709 2.9937 16.6909C2.9937 15.9409 3.6137 15.3309 4.3637 15.3309C5.1237 15.3309 5.7437 15.9409 5.7437 16.6909C5.7437 17.4709 5.1237 18.0609 4.3637 18.0609ZM7.8037 18.0609C7.0437 18.0609 6.4437 17.4409 6.4437 16.6909C6.4437 15.9309 7.0437 15.3309 7.8037 15.3309C8.5737 15.3309 9.1737 15.9309 9.1737 16.6909C9.1737 17.4409 8.5737 18.0609 7.8037 18.0609ZM11.2637 18.0609C10.5037 18.0609 9.8937 17.4409 9.8937 16.6909C9.8937 15.9309 10.5037 15.3309 11.2637 15.3309C12.0137 15.3309 12.6337 15.9309 12.6337 16.6909C12.6337 17.4409 12.0137 18.0609 11.2637 18.0609ZM4.0637 27.4209C3.4737 27.4209 2.9937 26.9509 2.9937 26.3609V21.3709C2.9937 20.7809 3.4737 20.3209 4.0637 20.3209C4.6437 20.3209 5.1137 20.7809 5.1137 21.3709V26.3609C5.1137 26.9509 4.6437 27.4209 4.0637 27.4209ZM11.5637 27.4209C10.9737 27.4209 10.5137 26.9509 10.5137 26.3609V21.3709C10.5137 20.7809 10.9737 20.3209 11.5637 20.3209C12.1537 20.3209 12.6337 20.7809 12.6337 21.3709V26.3609C12.6337 26.9509 12.1537 27.4209 11.5637 27.4209ZM7.1137 23.3409C6.6537 23.3409 6.3837 23.0509 6.3837 22.6009V21.6809C6.3837 21.2209 6.6537 20.9309 7.1137 20.9309H8.4937C8.9737 20.9309 9.2237 21.2209 9.2237 21.6809V22.6009C9.2237 23.0509 8.9737 23.3409 8.4937 23.3409ZM7.1137 26.7809C6.6537 26.7809 6.3837 26.5209 6.3837 26.0609V25.1409C6.3837 24.6809 6.6537 24.4009 7.1137 24.4009H8.4937C8.9737 24.4009 9.2237 24.6809 9.2237 25.1409V26.0609C9.2237 26.5209 8.9737 26.7809 8.4937 26.7809Z"
        fillRule="evenodd"
        clipRule="evenodd"
    />
</svg>
        