
<svg
    viewBox={0 0 24.82545497854324 29.380013769916918}
    xmlns="http://www.w3.org/2000/svg"
>
    <path
        fill="inherit"
        d="M2.8533 29.3812H3.9533C5.0833 29.3812 5.8533 28.5912 5.8533 27.4212V25.7112H9.0233C9.4733 27.1412 10.8133 28.1612 12.4133 28.1612C14.0033 28.1612 15.3233 27.1412 15.7733 25.7112H18.9733V27.4212C18.9733 28.5912 19.7433 29.3812 20.8633 29.3812H21.9533C23.0933 29.3812 23.8533 28.5912 23.8533 27.4212V21.8012C23.8533 20.6312 23.0933 19.8412 21.9533 19.8412H20.8633C19.7433 19.8412 18.9733 20.6312 18.9733 21.8012V23.5112H15.7733C15.4233 22.4312 14.5833 21.5912 13.5033 21.2412V8.1912C14.5833 7.8312 15.4233 6.9812 15.7733 5.9012H18.4133L18.1533 6.6212C17.7633 7.7112 18.2133 8.7212 19.2633 9.1012L20.3033 9.4712C21.3733 9.8712 22.3533 9.3812 22.7533 8.2812L24.6733 2.9912C25.0833 1.9012 24.6233 0.9012 23.5733 0.5012L22.5333 0.1312C21.4633 -0.2588 20.4933 0.2312 20.0833 1.3412L19.2233 3.7012H15.7733C15.3233 2.2812 14.0033 1.2612 12.4133 1.2612C10.8133 1.2612 9.4833 2.2812 9.0233 3.7012H6.4133L6.6733 2.9912C7.0633 1.9012 6.6133 0.9012 5.5533 0.5012L4.5233 0.1312C3.4633 -0.2588 2.4733 0.2312 2.0633 1.3412L0.1533 6.6212C-0.2567 7.7112 0.1933 8.7112 1.2533 9.1012L2.2833 9.4712C3.3533 9.8712 4.3433 9.3812 4.7433 8.2812L5.6033 5.9012H9.0333C9.3833 6.9812 10.2233 7.8312 11.3033 8.1912V21.2412C10.2233 21.5912 9.3833 22.4312 9.0333 23.5112H5.8533V21.8012C5.8533 20.6312 5.0833 19.8412 3.9533 19.8412H2.8533C1.7333 19.8412 0.9733 20.6312 0.9733 21.8012V27.4212C0.9733 28.5912 1.7333 29.3812 2.8533 29.3812ZM12.4133 6.5512C11.4333 6.5512 10.6533 5.7812 10.6533 4.8012C10.6533 3.8312 11.4333 3.0512 12.4133 3.0512C13.3833 3.0512 14.1533 3.8312 14.1533 4.8012C14.1533 5.7812 13.3833 6.5512 12.4133 6.5512ZM12.4133 26.3712C11.4333 26.3712 10.6533 25.5912 10.6533 24.6212C10.6533 23.6412 11.4333 22.8712 12.4133 22.8712C13.3833 22.8712 14.1533 23.6412 14.1533 24.6212C14.1533 25.5912 13.3833 26.3712 12.4133 26.3712Z"
        fillRule="evenodd"
        clipRule="evenodd"
    />
</svg>
        