
<svg
    viewBox="0 0 24.82545497854324 29.380013769916918"
    xmlns="http://www.w3.org/2000/svg"
>
    <path
        fill="inherit"
        d="M2.8533 29.3812H3.9533C5.0833 29.3812 5.8533 28.5912 5.8533 27.4212V25.7112H18.9733V27.4212C18.9733 28.5912 19.7433 29.3812 20.8633 29.3812H21.9533C23.0933 29.3812 23.8533 28.5912 23.8533 27.4212V21.8012C23.8533 20.6312 23.0933 19.8412 21.9533 19.8412H20.8633C19.7433 19.8412 18.9733 20.6312 18.9733 21.8012V23.5112H13.5033V5.9012H18.4133L18.1533 6.6212C17.7633 7.7112 18.2133 8.7212 19.2633 9.1012L20.3033 9.4712C21.3733 9.8712 22.3533 9.3812 22.7533 8.2812L24.6733 2.9912C25.0833 1.9012 24.6233 0.9012 23.5733 0.5012L22.5333 0.1312C21.4633 -0.2588 20.4933 0.2312 20.0833 1.3412L19.2233 3.7012H6.4133L6.6733 2.9912C7.0633 1.9012 6.6133 0.9012 5.5533 0.5012L4.5233 0.1312C3.4633 -0.2588 2.4733 0.2312 2.0633 1.3412L0.1533 6.6212C-0.2567 7.7112 0.1933 8.7112 1.2533 9.1012L2.2833 9.4712C3.3533 9.8712 4.3433 9.3812 4.7433 8.2812L5.6033 5.9012H11.3033V23.5112H5.8533V21.8012C5.8533 20.6312 5.0833 19.8412 3.9533 19.8412H2.8533C1.7333 19.8412 0.9733 20.6312 0.9733 21.8012V27.4212C0.9733 28.5912 1.7333 29.3812 2.8533 29.3812Z"
        fillRule="evenodd"
        clipRule="evenodd"
    />
</svg>
        