
<svg
    viewBox="0 0 24.82545497854324 29.380013769916918"
    xmlns="http://www.w3.org/2000/svg"
>
    <path
        fill="inherit"
        d="M1.2533 9.1012L2.2833 9.4712C3.3533 9.8712 4.3433 9.3812 4.7433 8.2812L5.6033 5.9012H11.2833V10.7212C11.4333 10.8112 11.5533 10.9112 11.6933 11.0312L12.3433 11.6712L13.1133 10.8912C13.2233 10.7712 13.3533 10.6812 13.4833 10.5912V5.9012H18.4133L18.1533 6.6212C17.7633 7.7112 18.2133 8.7212 19.2633 9.1012L20.3033 9.4712C21.3733 9.8712 22.3533 9.3812 22.7533 8.2812L24.6733 2.9912C25.0833 1.9012 24.6233 0.9012 23.5733 0.5012L22.5333 0.1312C21.4633 -0.2588 20.4933 0.2312 20.0833 1.3412L19.2233 3.7012H6.4133L6.6733 2.9912C7.0633 1.9012 6.6133 0.9012 5.5533 0.5012L4.5233 0.1312C3.4633 -0.2588 2.4733 0.2312 2.0633 1.3412L0.1533 6.6212C-0.2567 7.7112 0.1933 8.7112 1.2533 9.1012ZM9.4033 17.6912C9.7233 18.0012 10.2233 18.0712 10.5633 17.7312L12.4233 15.8812L14.1633 17.6112C14.4733 17.9112 14.9733 17.8912 15.2833 17.6112C15.5833 17.3212 15.5833 16.8012 15.2833 16.4912L13.5533 14.7512L15.4033 12.9012C15.7533 12.5612 15.6833 12.0612 15.3633 11.7312C15.0433 11.4012 14.5333 11.3512 14.1933 11.6912L12.3433 13.5312L10.5933 11.8112C10.2833 11.5112 9.7933 11.5112 9.4733 11.8112C9.1733 12.1012 9.1733 12.6012 9.4733 12.9212L11.2133 14.6712L9.3633 16.5112C9.0233 16.8612 9.0733 17.3612 9.4033 17.6912ZM2.8533 29.3812H3.9533C5.0833 29.3812 5.8533 28.5912 5.8533 27.4212V25.7112H18.9733V27.4212C18.9733 28.5912 19.7433 29.3812 20.8633 29.3812H21.9533C23.0933 29.3812 23.8533 28.5912 23.8533 27.4212V21.8012C23.8533 20.6312 23.0933 19.8412 21.9533 19.8412H20.8633C19.7433 19.8412 18.9733 20.6312 18.9733 21.8012V23.5112H13.4833V18.7012C13.3433 18.6112 13.2033 18.5012 13.0733 18.3912L12.4233 17.7412L11.6633 18.5212C11.5533 18.6312 11.4133 18.7412 11.2833 18.8212V23.5112H5.8533V21.8012C5.8533 20.6312 5.0833 19.8412 3.9533 19.8412H2.8533C1.7333 19.8412 0.9733 20.6312 0.9733 21.8012V27.4212C0.9733 28.5912 1.7333 29.3812 2.8533 29.3812Z"
        fillRule="evenodd"
        clipRule="evenodd"
    />
</svg>
        