
<svg
    viewBox="0 0 24.82545497854324 29.380013769916918"
    xmlns="http://www.w3.org/2000/svg"
>
    <path
        fill="inherit"
        d="M1.2533 9.1012L2.2833 9.4712C3.3533 9.8712 4.3433 9.3812 4.7433 8.2812L5.6033 5.9012H11.3033V20.6312C11.4433 20.7212 11.5633 20.8112 11.6933 20.9312L12.3433 21.5712L13.1133 20.7912C13.2333 20.6612 13.3733 20.5612 13.5033 20.4812V5.9012H18.4133L18.1533 6.6212C17.7633 7.7112 18.2133 8.7212 19.2633 9.1012L20.3033 9.4712C21.3733 9.8712 22.3533 9.3812 22.7533 8.2812L24.6733 2.9912C25.0833 1.9012 24.6233 0.9012 23.5733 0.5012L22.5333 0.1312C21.4633 -0.2588 20.4933 0.2312 20.0833 1.3412L19.2233 3.7012H6.4133L6.6733 2.9912C7.0633 1.9012 6.6133 0.9012 5.5533 0.5012L4.5233 0.1312C3.4633 -0.2588 2.4733 0.2312 2.0633 1.3412L0.1533 6.6212C-0.2567 7.7112 0.1933 8.7112 1.2533 9.1012ZM2.8533 29.3812H3.9533C5.0833 29.3812 5.8533 28.5912 5.8533 27.4212V25.7112H8.2733C8.3433 25.5812 8.4533 25.4612 8.5533 25.3512L9.3533 24.5712L8.6933 23.9112C8.5833 23.7912 8.4733 23.6512 8.3933 23.5112H5.8533V21.8012C5.8533 20.6312 5.0833 19.8412 3.9533 19.8412H2.8533C1.7333 19.8412 0.9733 20.6312 0.9733 21.8012V27.4212C0.9733 28.5912 1.7333 29.3812 2.8533 29.3812ZM20.8633 29.3812H21.9533C23.0933 29.3812 23.8533 28.5912 23.8533 27.4212V21.8012C23.8533 20.6312 23.0933 19.8412 21.9533 19.8412H20.8633C19.7433 19.8412 18.9733 20.6312 18.9733 21.8012V23.5112H16.4833C16.4233 23.6412 16.3133 23.7712 16.2033 23.8812L15.4233 24.6512L16.0633 25.3212C16.1733 25.4412 16.2833 25.5612 16.3633 25.7112H18.9733V27.4212C18.9733 28.5912 19.7433 29.3812 20.8633 29.3812ZM9.4033 27.5912C9.7233 27.9012 10.2233 27.9712 10.5633 27.6312L12.4233 25.7812L14.1633 27.5112C14.4733 27.8112 14.9733 27.7912 15.2833 27.5112C15.5833 27.2212 15.5833 26.7012 15.2833 26.4012L13.5533 24.6512L15.4033 22.8012C15.7533 22.4612 15.6833 21.9512 15.3633 21.6312C15.0433 21.3112 14.5333 21.2412 14.1933 21.5912L12.3433 23.4312L10.5933 21.7112C10.2833 21.4112 9.7933 21.4212 9.4733 21.7112C9.1733 22.0012 9.1733 22.5012 9.4733 22.8312L11.2133 24.5712L9.3633 26.4112C9.0233 26.7712 9.0733 27.2712 9.4033 27.5912Z"
        fillRule="evenodd"
        clipRule="evenodd"
    />
</svg>
        