
<svg
    viewBox={0 0 24.82545497854324 29.380013769916918}
    xmlns="http://www.w3.org/2000/svg"
>
    <path
        fill="inherit"
        d="M1.2533 9.1012L2.2833 9.4712C3.3533 9.8712 4.3433 9.3812 4.7433 8.2812L5.6033 5.9012H8.2733C8.3533 5.7812 8.4633 5.6412 8.5533 5.5412L9.3533 4.7712L8.6933 4.1012C8.5833 3.9912 8.4733 3.8412 8.4033 3.7012H6.4133L6.6733 2.9912C7.0633 1.9012 6.6133 0.9012 5.5533 0.5012L4.5233 0.1312C3.4633 -0.2588 2.4733 0.2312 2.0633 1.3412L0.1533 6.6212C-0.2567 7.7112 0.1933 8.7112 1.2533 9.1012ZM19.2633 9.1012L20.3033 9.4712C21.3733 9.8712 22.3533 9.3812 22.7533 8.2812L24.6733 2.9912C25.0833 1.9012 24.6233 0.9012 23.5733 0.5012L22.5333 0.1312C21.4633 -0.2588 20.4933 0.2312 20.0833 1.3412L19.2233 3.7012H16.5033C16.4233 3.8312 16.3133 3.9612 16.2033 4.0712L15.4233 4.8512L16.0633 5.5112C16.1833 5.6312 16.2933 5.7712 16.3633 5.9012H18.4133L18.1533 6.6212C17.7633 7.7112 18.2133 8.7212 19.2633 9.1012ZM9.3833 7.8012C9.7033 8.1212 10.2133 8.1912 10.5533 7.8512L12.4233 5.9712L14.1533 7.6812C14.4633 8.0012 14.9533 7.9812 15.2733 7.6812C15.5733 7.3912 15.5733 6.8712 15.2733 6.5612L13.5533 4.8512L15.4233 2.9812C15.7633 2.6412 15.6933 2.1312 15.3833 1.8012C15.0533 1.4912 14.5433 1.4212 14.2033 1.7612L12.3433 3.6312L10.6133 1.9312C10.2933 1.6212 9.8033 1.6212 9.5033 1.9312C9.1833 2.2112 9.2033 2.7212 9.5033 3.0312L11.2133 4.7712L9.3333 6.6312C8.9933 6.9712 9.0633 7.4812 9.3833 7.8012ZM2.8533 29.3812H3.9533C5.0833 29.3812 5.8533 28.5912 5.8533 27.4212V25.7112H18.9733V27.4212C18.9733 28.5912 19.7433 29.3812 20.8633 29.3812H21.9533C23.0933 29.3812 23.8533 28.5912 23.8533 27.4212V21.8012C23.8533 20.6312 23.0933 19.8412 21.9533 19.8412H20.8633C19.7433 19.8412 18.9733 20.6312 18.9733 21.8012V23.5112H13.5033V8.8012C13.3733 8.7212 13.2233 8.6212 13.0833 8.4912L12.4233 7.8512L11.6633 8.6212C11.5533 8.7512 11.4433 8.8312 11.3033 8.9012V23.5112H5.8533V21.8012C5.8533 20.6312 5.0833 19.8412 3.9533 19.8412H2.8533C1.7333 19.8412 0.9733 20.6312 0.9733 21.8012V27.4212C0.9733 28.5912 1.7333 29.3812 2.8533 29.3812Z"
        fillRule="evenodd"
        clipRule="evenodd"
    />
</svg>
        