<svg viewBox="0 0 27.890625 27.890625" xmlns="http://www.w3.org/2000/svg"><path d="M13.9427 27.8864C21.6427 27.8864 27.8927 21.6464 27.8927 13.9464C27.8927 6.2464 21.6427 -0.0036 13.9427 -0.0036C6.2527 -0.0036 0.0027 6.2464 0.0027 13.9464C0.0027 21.6464 6.2527 27.8864 13.9427 27.8864ZM13.9427 25.5664C7.5227 25.5664 2.3227 20.3664 2.3227 13.9464C2.3227 7.5164 7.5227 2.3264 13.9427 2.3264C20.3727 2.3264 25.5627 7.5164 25.5627 13.9464C25.5627 20.3664 20.3727 25.5664 13.9427 25.5664ZM10.6627 20.0664H14.6527C17.4827 20.0664 19.3027 18.7064 19.3027 16.5564C19.3027 14.8864 18.1827 13.7164 16.3627 13.4964V13.4164C17.7227 13.0864 18.5527 12.0164 18.5527 10.6464C18.5527 8.7764 17.0327 7.5564 14.6827 7.5564H10.6627C9.9027 7.5564 9.4427 8.0164 9.4427 8.7864V18.8564C9.4427 19.6064 9.9027 20.0664 10.6627 20.0664ZM11.5627 12.8764V9.1764H14.2427C15.6227 9.1764 16.4627 9.8664 16.4627 10.9964C16.4627 12.1964 15.4627 12.8764 13.6327 12.8764ZM11.5627 18.4564V14.3864H14.4827C16.1427 14.3864 17.1127 15.1464 17.1127 16.4564C17.1127 17.8264 16.0627 18.4564 13.7927 18.4564Z" /></svg>