
<svg
    viewBox="0 0 25.169921875 25.169921875"
    xmlns="http://www.w3.org/2000/svg"
>
    <path
        fill="inherit"
        d="M4.2937 25.1692H20.8737C23.7437 25.1692 25.1737 23.7592 25.1737 20.9492V4.2392C25.1737 1.4192 23.7437 -0.0008 20.8737 -0.0008H4.2937C1.4337 -0.0008 0.0037 1.4192 0.0037 4.2392V20.9492C0.0037 23.7592 1.4337 25.1692 4.2937 25.1692ZM4.3237 22.9692C2.9537 22.9692 2.2037 22.2392 2.2037 20.8192V4.3592C2.2037 2.9392 2.9537 2.1992 4.3237 2.1992H20.8537C22.2037 2.1992 22.9737 2.9392 22.9737 4.3592V20.8192C22.9737 22.2392 22.2037 22.9692 20.8537 22.9692ZM9.3237 18.6992H13.3137C16.1437 18.6992 17.9637 17.3392 17.9637 15.1892C17.9637 13.5192 16.8437 12.3492 15.0237 12.1292V12.0492C16.3837 11.7192 17.2137 10.6492 17.2137 9.2792C17.2137 7.4092 15.6937 6.1892 13.3437 6.1892H9.3237C8.5737 6.1892 8.1237 6.6492 8.1237 7.4192V17.4892C8.1237 18.2392 8.5737 18.6992 9.3237 18.6992ZM10.2237 11.5092V7.8092H12.9037C14.2837 7.8092 15.1237 8.4992 15.1237 9.6292C15.1237 10.8292 14.1237 11.5092 12.2937 11.5092ZM10.2237 17.0892V13.0192H13.1437C14.8037 13.0192 15.7737 13.7792 15.7737 15.0892C15.7737 16.4592 14.7237 17.0892 12.4537 17.0892Z"
        fillRule="evenodd"
        clipRule="evenodd"
    />
</svg>
        