
<svg
    viewBox={0 0 25.169921875 25.169921875}
    xmlns="http://www.w3.org/2000/svg"
>
    <path
        fill="inherit"
        d="M4.2937 25.1692H20.8737C23.7437 25.1692 25.1737 23.7592 25.1737 20.9492V4.2392C25.1737 1.4192 23.7437 -0.0008 20.8737 -0.0008H4.2937C1.4337 -0.0008 0.0037 1.4192 0.0037 4.2392V20.9492C0.0037 23.7592 1.4337 25.1692 4.2937 25.1692ZM9.2237 18.8992C8.4537 18.8992 7.9737 18.4192 7.9737 17.6392V7.2692C7.9737 6.4692 8.4537 5.9992 9.2237 5.9992H13.3737C15.7937 5.9992 17.3637 7.2492 17.3637 9.1892C17.3637 10.5992 16.5037 11.6892 15.1037 12.0292V12.1092C16.9837 12.3492 18.1437 13.5492 18.1437 15.2692C18.1437 17.4892 16.2537 18.8992 13.3437 18.8992ZM10.1537 11.4892H12.2737C14.1637 11.4892 15.1937 10.7692 15.1937 9.5392C15.1937 8.3792 14.3437 7.6692 12.9237 7.6692H10.1537ZM10.1537 17.2292H12.4437C14.7937 17.2292 15.8737 16.5792 15.8737 15.1792C15.8737 13.8192 14.8737 13.0392 13.1537 13.0392H10.1537Z"
        fillRule="evenodd"
        clipRule="evenodd"
    />
</svg>
        