
<svg
    viewBox="0 0 27.890625 27.890625"
    xmlns="http://www.w3.org/2000/svg"
>
    <path
        fill="inherit"
        d="M13.9427 27.8864C21.6427 27.8864 27.8927 21.6464 27.8927 13.9464C27.8927 6.2464 21.6427 -0.0036 13.9427 -0.0036C6.2527 -0.0036 0.0027 6.2464 0.0027 13.9464C0.0027 21.6464 6.2527 27.8864 13.9427 27.8864ZM13.9427 25.5664C7.5227 25.5664 2.3227 20.3664 2.3227 13.9464C2.3227 7.5164 7.5227 2.3264 13.9427 2.3264C20.3727 2.3264 25.5627 7.5164 25.5627 13.9464C25.5627 20.3664 20.3727 25.5664 13.9427 25.5664ZM8.8427 19.1564H10.3127C10.8527 19.1564 11.1527 18.8764 11.1527 18.3164V14.3664C11.2527 14.5764 11.4327 14.7564 11.7027 14.9164L18.2227 18.7464C18.4727 18.8964 18.7027 18.9764 18.9627 18.9764C19.4527 18.9764 19.8627 18.6064 19.8627 17.8964V10.0364C19.8627 9.3264 19.4527 8.9564 18.9627 8.9564C18.7027 8.9564 18.4727 9.0364 18.2227 9.1864L11.7027 13.0164C11.4327 13.1764 11.2527 13.3564 11.1527 13.5664V9.5864C11.1527 9.0064 10.8527 8.7364 10.3127 8.7364H8.8427C8.3027 8.7364 8.0027 9.0264 8.0027 9.5864V18.3164C8.0027 18.8764 8.3027 19.1564 8.8427 19.1564Z"
        fillRule="evenodd"
        clipRule="evenodd"
    />
</svg>
        