
<svg
    viewBox="0 0 22.491289045281246 34.2890625"
    xmlns="http://www.w3.org/2000/svg"
>
    <path
        fill="inherit"
        d="M7.0642 34.2929H15.4242C20.1842 34.2929 22.5342 31.8829 22.4942 27.0729C22.4342 21.5729 22.4042 17.5829 22.2742 14.5829C21.9542 7.6429 20.3442 4.5629 15.6842 3.5829C15.3942 1.4929 13.6342 0.0029 11.2542 0.0029C8.8642 0.0029 7.1142 1.4929 6.8242 3.5829C2.1442 4.5629 0.5342 7.6329 0.2242 14.5829C0.0842 17.5829 0.0542 21.5729 0.0042 27.0729C-0.0358 31.8829 2.3142 34.2929 7.0642 34.2929ZM11.2542 3.2029C10.4042 3.2029 9.6242 3.2229 8.8842 3.2829C9.2542 2.4629 10.1342 1.9229 11.2542 1.9229C12.3742 1.9229 13.2442 2.4629 13.6042 3.2829C12.8842 3.2229 12.0842 3.2029 11.2542 3.2029ZM7.0642 32.2829C3.4442 32.2829 1.9842 30.7929 2.0142 27.0929C2.0642 21.6029 2.1042 17.6329 2.2442 14.6829C2.5842 6.9429 4.2242 5.2229 11.2542 5.2229C18.2642 5.2229 19.9042 6.9429 20.2642 14.6829C20.3842 17.6329 20.4242 21.6029 20.4842 27.0929C20.5042 30.7929 19.0442 32.2829 15.4242 32.2829ZM6.7542 28.9029H15.7542C16.9842 28.9029 17.7842 28.0929 17.7842 26.8829V19.9429C17.7842 18.7129 16.9842 17.9129 15.7542 17.9129H6.7542C5.5242 17.9129 4.7042 18.7329 4.7042 19.9429V26.8829C4.7042 28.0829 5.5242 28.9029 6.7542 28.9029ZM6.6342 20.2729C6.6342 20.0029 6.8042 19.8229 7.0842 19.8229H15.4042C15.6842 19.8229 15.8642 20.0029 15.8642 20.2729V21.5729H6.6342ZM7.0842 26.9929C6.8042 26.9929 6.6342 26.8129 6.6342 26.5529V23.2929H15.8642V26.5529C15.8642 26.8129 15.6842 26.9929 15.4042 26.9929Z"
        fillRule="evenodd"
        clipRule="evenodd"
    />
</svg>
        