<svg viewBox="0 0 27.890625 27.890625" xmlns="http://www.w3.org/2000/svg"><path d="M13.9427 27.8864C21.6427 27.8864 27.8927 21.6464 27.8927 13.9464C27.8927 6.2464 21.6427 -0.0036 13.9427 -0.0036C6.2527 -0.0036 0.0027 6.2464 0.0027 13.9464C0.0027 21.6464 6.2527 27.8864 13.9427 27.8864ZM13.9427 25.5664C7.5227 25.5664 2.3227 20.3664 2.3227 13.9464C2.3227 7.5164 7.5227 2.3264 13.9427 2.3264C20.3727 2.3264 25.5627 7.5164 25.5627 13.9464C25.5627 20.3664 20.3727 25.5664 13.9427 25.5664ZM11.8027 22.2564H16.0627C18.4727 22.2564 19.6627 21.0364 19.6427 18.5964C19.6027 15.7864 19.5927 13.7564 19.5227 12.2464C19.3727 8.7064 18.5527 7.1464 16.1827 6.6564C16.0327 5.5764 15.1527 4.8164 13.9327 4.8164C12.7127 4.8164 11.8227 5.5764 11.6727 6.6564C9.3127 7.1464 8.5027 8.7064 8.3427 12.2464C8.2727 13.7564 8.2627 15.7864 8.2127 18.5964C8.2027 21.0364 9.3927 22.2564 11.8027 22.2564ZM13.9327 5.8364C14.4527 5.8364 14.8927 6.0964 15.0827 6.5064C14.7227 6.4764 14.3427 6.4664 13.9327 6.4664C13.5227 6.4664 13.1427 6.4764 12.7827 6.5064C12.9727 6.0964 13.4127 5.8364 13.9327 5.8364ZM10.6327 14.9464C10.6327 14.3564 11.0227 13.9564 11.6227 13.9564H16.2527C16.8527 13.9564 17.2227 14.3564 17.2227 14.9464V15.8364H10.6327ZM11.6227 19.4964C11.0227 19.4964 10.6327 19.1164 10.6327 18.5264V16.6964H17.2227V18.5264C17.2227 19.1164 16.8527 19.4964 16.2527 19.4964Z" /></svg>