<svg viewBox="0 0 27.890625 27.890625" xmlns="http://www.w3.org/2000/svg"><path d="M13.9427 27.8864C21.6427 27.8864 27.8927 21.6464 27.8927 13.9464C27.8927 6.2464 21.6427 -0.0036 13.9427 -0.0036C6.2527 -0.0036 0.0027 6.2464 0.0027 13.9464C0.0027 21.6464 6.2527 27.8864 13.9427 27.8864ZM13.9427 25.5664C7.5227 25.5664 2.3227 20.3664 2.3227 13.9464C2.3227 7.5164 7.5227 2.3264 13.9427 2.3264C20.3727 2.3264 25.5627 7.5164 25.5627 13.9464C25.5627 20.3664 20.3727 25.5664 13.9427 25.5664ZM12.0727 18.9764C12.5627 18.9764 12.9927 18.5964 12.9927 17.8964V14.2164C13.0527 14.4764 13.2527 14.7064 13.5927 14.9064L20.1127 18.7464C20.3527 18.8964 20.5927 18.9764 20.8527 18.9764C21.3427 18.9764 21.7527 18.5964 21.7527 17.8964V10.0264C21.7527 9.3264 21.3427 8.9364 20.8527 8.9364C20.5927 8.9364 20.3527 9.0264 20.1127 9.1764L13.5927 13.0164C13.2527 13.2064 13.0527 13.4364 12.9927 13.6964V10.0264C12.9927 9.3264 12.5627 8.9364 12.0727 8.9364C11.8127 8.9364 11.6027 9.0264 11.3327 9.1764L4.8127 13.0164C4.3727 13.2764 4.1827 13.6064 4.1827 13.9564C4.1827 14.3164 4.3727 14.6464 4.8127 14.9064L11.3327 18.7464C11.6027 18.8964 11.8127 18.9764 12.0727 18.9764Z" /></svg>