<svg viewBox="0 0 25.29296875 20.890625" xmlns="http://www.w3.org/2000/svg"><path d="M4.9337 20.8064C6.1237 20.8064 6.7537 20.1764 6.7537 18.9764V10.8964C6.9037 11.3464 7.3237 11.7164 8.1037 12.1864L22.4737 20.5464C22.8737 20.7664 23.2737 20.8864 23.6637 20.8864C24.5437 20.8864 25.2937 20.2764 25.2937 18.9864V1.8864C25.2937 0.6064 24.5437 -0.0036 23.6637 -0.0036C23.2737 -0.0036 22.8737 0.1064 22.4737 0.3464L8.1037 8.7064C7.3237 9.1564 6.9037 9.5264 6.7537 9.9964V1.8964C6.7537 0.6964 6.1237 0.0664 4.9337 0.0664H1.8137C0.6337 0.0664 0.0037 0.6464 0.0037 1.8964V18.9764C0.0037 20.1764 0.6337 20.8064 1.8137 20.8064Z" /></svg>