<svg viewBox="0 0 27.890625 27.890625" xmlns="http://www.w3.org/2000/svg"><path d="M13.9427 27.8864C21.6427 27.8864 27.8927 21.6264 27.8927 13.9464C27.8927 6.2464 21.6427 -0.0036 13.9427 -0.0036C6.2627 -0.0036 0.0027 6.2464 0.0027 13.9464C0.0027 21.6264 6.2627 27.8864 13.9427 27.8864ZM3.9127 13.9564C3.9127 13.5864 4.1127 13.2664 4.5827 12.9864L11.2927 9.0364C11.5627 8.8764 11.7727 8.8064 12.0427 8.8064C12.5627 8.8064 12.9927 9.1764 12.9927 9.9164V13.5364C13.0927 13.3264 13.2727 13.1564 13.5527 12.9864L20.2627 9.0364C20.5327 8.8764 20.7527 8.8064 21.0227 8.8064C21.5327 8.8064 21.9727 9.1764 21.9727 9.9164V18.0164C21.9727 18.7564 21.5327 19.1264 21.0227 19.1264C20.7527 19.1264 20.5327 19.0564 20.2627 18.8964L13.5527 14.9464C13.2727 14.7764 13.0927 14.6064 12.9927 14.3964V18.0164C12.9927 18.7564 12.5627 19.1264 12.0427 19.1264C11.7727 19.1264 11.5627 19.0564 11.2927 18.8964L4.5827 14.9464C4.1127 14.6664 3.9127 14.3464 3.9127 13.9564Z" /></svg>