<svg viewBox="0 0 27.890625 27.890625" xmlns="http://www.w3.org/2000/svg"><path d="M13.9427 27.8864C21.6427 27.8864 27.8927 21.6264 27.8927 13.9464C27.8927 6.2464 21.6427 -0.0036 13.9427 -0.0036C6.2627 -0.0036 0.0027 6.2464 0.0027 13.9464C0.0027 21.6264 6.2627 27.8864 13.9427 27.8864ZM7.8027 18.4464V9.4464C7.8027 8.8764 8.1227 8.5764 8.6827 8.5764H10.2027C10.7627 8.5764 11.0727 8.8564 11.0727 9.4464V13.5664C11.1727 13.3464 11.3427 13.1564 11.6327 12.9864L18.3627 9.0364C18.6027 8.8864 18.8527 8.8064 19.1127 8.8064C19.6327 8.8064 20.0527 9.1864 20.0527 9.9164V18.0164C20.0527 18.7564 19.6327 19.1264 19.1127 19.1264C18.8527 19.1264 18.6027 19.0464 18.3627 18.8964L11.6327 14.9464C11.3427 14.7764 11.1727 14.5864 11.0727 14.3664V18.4464C11.0727 19.0264 10.7627 19.3164 10.2027 19.3164H8.6827C8.1227 19.3164 7.8027 19.0264 7.8027 18.4464Z" /></svg>