
<svg
    viewBox="0 0 37.146484375 20.890625"
    xmlns="http://www.w3.org/2000/svg"
>
    <path
        fill="inherit"
        d="M18.6058 18.9864V10.8964C18.7558 11.3464 19.1858 11.7164 19.9658 12.1864L34.3258 20.5464C34.7258 20.7664 35.1258 20.8864 35.5158 20.8864C36.3958 20.8864 37.1458 20.2764 37.1458 18.9864V1.8864C37.1458 0.6064 36.3958 -0.0036 35.5158 -0.0036C35.1258 -0.0036 34.7258 0.1064 34.3258 0.3464L19.9658 8.7064C19.1858 9.1564 18.7558 9.5264 18.6058 9.9964V1.8864C18.6058 0.6064 17.8658 -0.0036 16.9758 -0.0036C16.5958 -0.0036 16.1858 0.1064 15.7958 0.3464L1.4358 8.7064C0.3958 9.3064 -0.0042 9.7664 -0.0042 10.4464C-0.0042 11.1264 0.3958 11.5764 1.4358 12.1864L15.7958 20.5464C16.1858 20.7664 16.5958 20.8864 16.9758 20.8864C17.8658 20.8864 18.6058 20.2764 18.6058 18.9864Z"
        fillRule="evenodd"
        clipRule="evenodd"
    />
</svg>
        