
<svg
    viewBox={0 0 39.40234375 20.890625}
    xmlns="http://www.w3.org/2000/svg"
>
    <path
        fill="inherit"
        d="M1.1637 20.8864C1.8337 20.8864 2.3337 20.3864 2.3337 19.7464V10.8964C2.4837 11.3464 2.9137 11.7164 3.6937 12.1864L18.0637 20.5464C18.4537 20.7664 18.8537 20.8864 19.2537 20.8864C20.1237 20.8864 20.8737 20.2764 20.8737 18.9864V10.8964C21.0237 11.3464 21.4337 11.7164 22.2337 12.1864L36.5837 20.5464C36.9837 20.7664 37.3937 20.8864 37.7737 20.8864C38.6637 20.8864 39.4037 20.2764 39.4037 18.9864V1.8864C39.4037 0.6064 38.6637 -0.0036 37.7737 -0.0036C37.3937 -0.0036 36.9837 0.1064 36.5837 0.3464L22.2337 8.7064C21.4337 9.1564 21.0237 9.5264 20.8737 9.9964V1.8864C20.8737 0.6064 20.1237 -0.0036 19.2537 -0.0036C18.8537 -0.0036 18.4537 0.1064 18.0637 0.3464L3.6937 8.7064C2.9137 9.1564 2.4837 9.5264 2.3337 9.9964V1.1464C2.3337 0.5064 1.8337 -0.0036 1.1637 -0.0036C0.5037 -0.0036 0.0037 0.5064 0.0037 1.1464V19.7464C0.0037 20.3864 0.5037 20.8864 1.1637 20.8864ZM37.2037 17.9064C37.2037 18.0564 37.1037 18.1864 36.9737 18.1864C36.9037 18.1864 36.8637 18.1564 36.8037 18.1264L24.0337 10.6464C23.9437 10.5964 23.8937 10.5164 23.8937 10.4464C23.8937 10.3664 23.9437 10.2964 24.0337 10.2364L36.8037 2.7664C36.8637 2.7164 36.9037 2.7064 36.9737 2.7064C37.1037 2.7064 37.2037 2.8164 37.2037 2.9764ZM18.6737 17.9064C18.6737 18.0564 18.5637 18.1864 18.4337 18.1864C18.3737 18.1864 18.3237 18.1564 18.2637 18.1264L5.5137 10.6464C5.4037 10.5964 5.3737 10.5164 5.3737 10.4464C5.3737 10.3664 5.4037 10.2964 5.5137 10.2364L18.2637 2.7664C18.3237 2.7164 18.3737 2.7064 18.4337 2.7064C18.5637 2.7064 18.6737 2.8164 18.6737 2.9764Z"
        fillRule="evenodd"
        clipRule="evenodd"
    />
</svg>
        