
<svg
    viewBox="0 0 25.224609375 20.890625"
    xmlns="http://www.w3.org/2000/svg"
>
    <path
        fill="inherit"
        d="M24.0645 20.8864C24.7145 20.8864 25.2245 20.3864 25.2245 19.7464V1.1464C25.2245 0.5064 24.7145 -0.0036 24.0645 -0.0036C23.4045 -0.0036 22.8845 0.5064 22.8845 1.1464V19.7464C22.8845 20.3864 23.4045 20.8864 24.0645 20.8864ZM18.5945 18.9864V1.8864C18.5945 0.6064 17.8545 -0.0036 16.9645 -0.0036C16.5845 -0.0036 16.1745 0.1064 15.7745 0.3464L1.4245 8.7064C0.3845 9.3064 0.0045 9.7664 0.0045 10.4464C0.0045 11.1264 0.3845 11.5764 1.4245 12.1864L15.7745 20.5464C16.1745 20.7664 16.5845 20.8864 16.9645 20.8864C17.8545 20.8864 18.5945 20.2764 18.5945 18.9864ZM16.3945 17.9064C16.3945 18.0564 16.2945 18.1864 16.1645 18.1864C16.0945 18.1864 16.0545 18.1564 15.9945 18.1264L3.2245 10.6464C3.1345 10.5964 3.0945 10.5164 3.0945 10.4464C3.0945 10.3664 3.1345 10.2964 3.2245 10.2364L15.9945 2.7664C16.0545 2.7164 16.0945 2.7064 16.1645 2.7064C16.2945 2.7064 16.3945 2.8164 16.3945 2.9764Z"
        fillRule="evenodd"
        clipRule="evenodd"
    />
</svg>
        