
<svg
    viewBox={0 0 43.818359375 20.890625}
    xmlns="http://www.w3.org/2000/svg"
>
    <path
        fill="inherit"
        d="M4.9337 20.8064C6.1237 20.8064 6.7537 20.1764 6.7537 18.9764V10.8964C6.9037 11.3464 7.3237 11.7164 8.1037 12.1864L22.4737 20.5464C22.8737 20.7664 23.2737 20.8864 23.6637 20.8864C24.5437 20.8864 25.2937 20.2764 25.2937 18.9864V10.8964C25.4437 11.3464 25.8537 11.7164 26.6437 12.1864L41.0037 20.5464C41.3937 20.7664 41.8037 20.8864 42.1937 20.8864C43.0837 20.8864 43.8137 20.2764 43.8137 18.9864V1.8864C43.8137 0.6064 43.0837 -0.0036 42.1937 -0.0036C41.8037 -0.0036 41.3937 0.1064 41.0037 0.3464L26.6437 8.7064C25.8537 9.1564 25.4437 9.5264 25.2937 9.9964V1.8864C25.2937 0.6064 24.5437 -0.0036 23.6637 -0.0036C23.2737 -0.0036 22.8737 0.1064 22.4737 0.3464L8.1037 8.7064C7.3237 9.1564 6.9037 9.5264 6.7537 9.9964V1.8964C6.7537 0.6964 6.1237 0.0664 4.9337 0.0664H1.8137C0.6337 0.0664 0.0037 0.6464 0.0037 1.8964V18.9764C0.0037 20.1764 0.6337 20.8064 1.8137 20.8064Z"
        fillRule="evenodd"
        clipRule="evenodd"
    />
</svg>
        