
<svg
    viewBox={0 0 24.267578125 27.5078125}
    xmlns="http://www.w3.org/2000/svg"
>
    <path
        fill="inherit"
        d="M4.2937 27.505H20.3837C22.8337 27.505 24.2637 26.085 24.2637 23.265V9.115C24.2637 6.305 22.8137 4.885 19.9737 4.885H17.5037C17.2437 2.115 15.0137 -0.005 12.1237 -0.005C9.2537 -0.005 7.0237 2.105 6.7637 4.885H4.2937C1.4337 4.885 0.0037 6.285 0.0037 9.115V23.265C0.0037 26.095 1.4337 27.505 4.2937 27.505ZM12.1237 2.075C13.8537 2.075 15.0637 3.215 15.2837 4.885H8.9837C9.2037 3.215 10.4137 2.075 12.1237 2.075ZM4.3237 25.305C2.9537 25.305 2.2037 24.585 2.2037 23.165V9.225C2.2037 7.805 2.9537 7.085 4.3237 7.085H19.9337C21.2837 7.085 22.0637 7.805 22.0637 9.225V23.165C22.0637 24.585 21.2837 25.305 20.3437 25.305Z"
        fillRule="evenodd"
        clipRule="evenodd"
    />
</svg>
        