
<svg
    viewBox="0 0 27.890625 27.890625"
    xmlns="http://www.w3.org/2000/svg"
>
    <path
        fill="inherit"
        d="M13.9427 27.8864C21.6427 27.8864 27.8927 21.6464 27.8927 13.9464C27.8927 6.2464 21.6427 -0.0036 13.9427 -0.0036C6.2527 -0.0036 0.0027 6.2464 0.0027 13.9464C0.0027 21.6464 6.2527 27.8864 13.9427 27.8864ZM13.9427 25.5664C7.5227 25.5664 2.3227 20.3664 2.3227 13.9464C2.3227 7.5164 7.5227 2.3264 13.9427 2.3264C20.3727 2.3264 25.5627 7.5164 25.5627 13.9464C25.5627 20.3664 20.3727 25.5664 13.9427 25.5664ZM9.8727 20.6464H18.2427C19.5227 20.6464 20.2627 19.9064 20.2627 18.4564V11.0764C20.2627 9.6064 19.5127 8.8864 18.0227 8.8864H16.8827C16.8527 7.3864 15.5627 6.1064 13.9427 6.1064C12.3327 6.1064 11.0327 7.3864 11.0027 8.8864H9.8727C8.3827 8.8864 7.6327 9.6064 7.6327 11.0764V18.4564C7.6327 19.9164 8.3827 20.6464 9.8727 20.6464ZM12.3227 8.8864C12.3627 7.9464 12.9727 7.3564 13.9427 7.3564C14.9127 7.3564 15.5327 7.9464 15.5727 8.8864Z"
        fillRule="evenodd"
        clipRule="evenodd"
    />
</svg>
        