
<svg
    viewBox="0 0 27.890625 27.890625"
    xmlns="http://www.w3.org/2000/svg"
>
    <path
        fill="inherit"
        d="M13.9427 27.8927C21.6427 27.8927 27.8927 21.6427 27.8927 13.9427C27.8927 6.2627 21.6427 0.0027 13.9427 0.0027C6.2627 0.0027 0.0027 6.2627 0.0027 13.9427C0.0027 21.6427 6.2627 27.8927 13.9427 27.8927ZM9.7527 20.8727C8.2027 20.8727 7.4227 20.1227 7.4227 18.6227V11.0027C7.4227 9.4927 8.2027 8.7527 9.7527 8.7527H10.9127C10.9327 7.1927 12.2727 5.8827 13.9427 5.8827C15.6127 5.8827 16.9527 7.1927 16.9827 8.7527H18.1427C19.6827 8.7527 20.4627 9.5027 20.4627 11.0027V18.6227C20.4627 20.1227 19.7027 20.8727 18.3727 20.8727ZM12.2727 8.7527H15.6127C15.5727 7.7927 14.9427 7.1727 13.9427 7.1727C12.9427 7.1727 12.3227 7.7927 12.2727 8.7527Z"
        fillRule="evenodd"
        clipRule="evenodd"
    />
</svg>
        