
<svg
    viewBox={0 0 27.890625 27.890625}
    xmlns="http://www.w3.org/2000/svg"
>
    <path
        fill="inherit"
        d="M13.9427 27.8864C21.6427 27.8864 27.8927 21.6464 27.8927 13.9464C27.8927 6.2464 21.6427 -0.0036 13.9427 -0.0036C6.2527 -0.0036 0.0027 6.2464 0.0027 13.9464C0.0027 21.6464 6.2527 27.8864 13.9427 27.8864ZM13.9427 25.5664C7.5227 25.5664 2.3227 20.3664 2.3227 13.9464C2.3227 7.5164 7.5227 2.3264 13.9427 2.3264C20.3727 2.3264 25.5627 7.5164 25.5627 13.9464C25.5627 20.3664 20.3727 25.5664 13.9427 25.5664ZM11.2127 19.9864H13.4627V21.0664C13.4627 21.3564 13.6627 21.5364 13.9327 21.5364C14.2227 21.5364 14.3827 21.3564 14.3827 21.0664V19.9864H14.6027C16.9227 19.9864 18.7627 18.9264 18.7627 16.5964C18.7627 14.9264 17.5927 13.8064 15.9427 13.6164V13.5364C17.2127 13.3264 18.1427 12.1364 18.1427 10.8664C18.1427 8.8164 16.4227 7.8464 14.5927 7.8464H14.3827V6.6264C14.3827 6.3564 14.2027 6.1664 13.9327 6.1664C13.6627 6.1664 13.4627 6.3564 13.4627 6.6264V7.8464H11.2127C10.5727 7.8464 10.2127 8.2764 10.2127 8.8564V18.9864C10.2127 19.5664 10.5827 19.9864 11.2127 19.9864ZM11.8127 13.0864V9.1864H13.4627V13.0864ZM16.5527 11.0564C16.5527 12.3464 15.6227 12.9364 14.3827 13.0564V9.1864C15.6227 9.2464 16.5527 9.7864 16.5527 11.0564ZM11.8127 18.6664V14.3864H13.4627V18.6664ZM17.1327 16.5164C17.1327 18.0564 15.9327 18.6364 14.3827 18.6664V14.3964C15.9027 14.4364 17.1327 14.9664 17.1327 16.5164Z"
        fillRule="evenodd"
        clipRule="evenodd"
    />
</svg>
        