
<svg
    viewBox="0 0 25.169921875 25.169921875"
    xmlns="http://www.w3.org/2000/svg"
>
    <path
        fill="inherit"
        d="M4.2937 25.1692H20.8737C23.7437 25.1692 25.1737 23.7592 25.1737 20.9492V4.2392C25.1737 1.4192 23.7437 -0.0008 20.8737 -0.0008H4.2937C1.4337 -0.0008 0.0037 1.4192 0.0037 4.2392V20.9492C0.0037 23.7592 1.4337 25.1692 4.2937 25.1692ZM9.7737 18.8092C9.1237 18.8092 8.7337 18.3792 8.7337 17.7892V7.3392C8.7337 6.7292 9.1037 6.2892 9.7737 6.2892H12.1037V5.0292C12.1037 4.7592 12.2937 4.5492 12.5737 4.5492C12.8637 4.5492 13.0437 4.7592 13.0437 5.0292V6.2892H13.2437C15.1437 6.2892 16.9237 7.2892 16.9237 9.4092C16.9237 10.7192 15.9737 11.9492 14.6537 12.1592V12.2392C16.3637 12.4392 17.5537 13.5992 17.5537 15.3092C17.5537 17.7192 15.6637 18.8092 13.2637 18.8092H13.0437V19.9292C13.0437 20.2192 12.8837 20.4092 12.5737 20.4092C12.2937 20.4092 12.1037 20.2192 12.1037 19.9292V18.8092ZM10.3937 11.6892H12.1037V7.6792H10.3937ZM13.0437 11.6492C14.3237 11.5392 15.2837 10.9192 15.2837 9.6092C15.2837 8.3292 14.3437 7.7492 13.0437 7.6792ZM10.3937 17.4492H12.1037V13.0292H10.3937ZM13.0437 17.4492H13.1637C14.6937 17.4492 15.8737 16.7892 15.8737 15.2292C15.8737 13.6692 14.6537 13.0392 13.1237 13.0392H13.0437Z"
        fillRule="evenodd"
        clipRule="evenodd"
    />
</svg>
        