
<svg
    viewBox={0 0 32.935546875 27.33018496744969}
    xmlns="http://www.w3.org/2000/svg"
>
    <path
        fill="inherit"
        d="M16.4627 5.864C18.9327 5.864 21.2027 6.724 23.0227 8.134C23.2927 8.354 23.6527 8.324 23.9127 8.064L27.0827 4.894C27.4027 4.584 27.3827 4.124 27.0527 3.854C24.2027 1.454 20.4927 0.004 16.4627 0.004C12.4427 0.004 8.7327 1.454 5.8827 3.854C5.5527 4.124 5.5327 4.584 5.8527 4.894L9.0227 8.064C9.2827 8.324 9.6527 8.354 9.9527 8.124C11.7627 6.724 14.0127 5.864 16.4627 5.864ZM0.0027 16.464C0.0027 20.494 1.4527 24.204 3.8727 27.074C4.1427 27.414 4.6027 27.414 4.9127 27.094L8.1627 23.844C8.3627 23.624 8.3927 23.324 8.2027 23.094C6.7127 21.194 5.8627 18.924 5.8627 16.464C5.8627 14.014 6.7027 11.744 8.1227 9.944C8.3427 9.654 8.3427 9.284 8.0827 9.024L4.9127 5.854C4.5927 5.534 4.1427 5.534 3.8727 5.864C1.4527 8.734 0.0027 12.444 0.0027 16.464ZM32.9327 16.464C32.9327 12.444 31.4827 8.734 29.0627 5.864C28.7927 5.534 28.3327 5.534 28.0227 5.854L24.8527 9.024C24.5927 9.284 24.5827 9.654 24.8127 9.944C26.2227 11.744 27.0727 14.014 27.0727 16.464C27.0727 18.924 26.2227 21.194 24.7327 23.094C24.5427 23.324 24.5527 23.624 24.7627 23.844L28.0127 27.094C28.3327 27.414 28.7827 27.414 29.0627 27.074C31.4827 24.204 32.9327 20.494 32.9327 16.464ZM13.7227 22.694H15.9827V23.764C15.9827 24.044 16.1727 24.244 16.4427 24.244C16.7327 24.244 16.9127 24.044 16.9127 23.764V22.694H17.1127C19.4427 22.694 21.2727 21.614 21.2727 19.304C21.2727 17.624 20.1127 16.504 18.4527 16.314V16.224C19.7327 16.034 20.6627 14.834 20.6627 13.564C20.6627 11.514 18.9527 10.544 17.1027 10.544H16.9127V9.334C16.9127 9.054 16.7227 8.864 16.4427 8.864C16.1727 8.864 15.9827 9.054 15.9827 9.334V10.544H13.7227C13.0827 10.544 12.7327 10.964 12.7327 11.554V21.694C12.7327 22.254 13.0927 22.694 13.7227 22.694ZM14.3327 15.774V11.884H15.9827V15.774ZM19.0727 13.754C19.0727 15.054 18.1427 15.624 16.9127 15.754V11.894C18.1427 11.934 19.0727 12.494 19.0727 13.754ZM14.3327 21.354V17.094H15.9827V21.354ZM19.6427 19.204C19.6427 20.754 18.4427 21.324 16.9127 21.354V17.094C18.4327 17.134 19.6427 17.674 19.6427 19.204Z"
        fillRule="evenodd"
        clipRule="evenodd"
    />
</svg>
        