
<svg
    viewBox={0 0 30.544813437289534 27.890625}
    xmlns="http://www.w3.org/2000/svg"
>
    <path
        fill="inherit"
        d="M0.9769 11.3064C-0.0131 11.3064 -0.2531 11.9764 0.2769 12.7464L3.3369 17.0864C3.7869 17.7164 4.4469 17.7064 4.8869 17.0864L7.9269 12.7264C8.4669 11.9764 8.2069 11.3064 7.2469 11.3064H5.2769C6.4669 6.1564 11.0769 2.3264 16.5969 2.3264C23.0269 2.3264 28.2169 7.5164 28.2169 13.9464C28.2169 20.3664 23.0269 25.5664 16.5969 25.5664C12.7169 25.5664 9.2569 23.6564 7.1969 20.7564C6.7669 20.1964 6.1269 20.0164 5.5569 20.3564C5.0069 20.6964 4.8369 21.4664 5.3069 22.0664C7.8369 25.6064 11.9769 27.8864 16.5969 27.8864C24.2969 27.8864 30.5469 21.6464 30.5469 13.9464C30.5469 6.2464 24.2969 -0.0036 16.5969 -0.0036C9.8069 -0.0036 4.1269 4.8664 2.8969 11.3064ZM13.8769 19.9864H16.1369V21.0664C16.1369 21.3564 16.3269 21.5364 16.5969 21.5364C16.8869 21.5364 17.0469 21.3564 17.0469 21.0664V19.9864H17.2669C19.5969 19.9864 21.4269 18.9264 21.4269 16.5964C21.4269 14.9264 20.2669 13.8064 18.6069 13.6164V13.5364C19.8769 13.3264 20.8069 12.1364 20.8069 10.8664C20.8069 8.8164 19.0869 7.8464 17.2569 7.8464H17.0469V6.6264C17.0469 6.3564 16.8769 6.1664 16.5969 6.1664C16.3269 6.1664 16.1369 6.3564 16.1369 6.6264V7.8464H13.8769C13.2369 7.8464 12.8769 8.2764 12.8769 8.8564V18.9864C12.8769 19.5664 13.2469 19.9864 13.8769 19.9864ZM14.4769 13.0864V9.1864H16.1369V13.0864ZM19.2269 11.0564C19.2269 12.3464 18.2969 12.9364 17.0469 13.0564V9.1864C18.2969 9.2464 19.2269 9.7864 19.2269 11.0564ZM14.4769 18.6664V14.3864H16.1369V18.6664ZM19.7969 16.5164C19.7969 18.0564 18.5969 18.6364 17.0469 18.6664V14.3964C18.5669 14.4364 19.7969 14.9664 19.7969 16.5164Z"
        fillRule="evenodd"
        clipRule="evenodd"
    />
</svg>
        