
<svg
    viewBox={0 0 27.890625 27.890625}
    xmlns="http://www.w3.org/2000/svg"
>
    <path
        fill="inherit"
        d="M13.9427 27.8864C21.6427 27.8864 27.8927 21.6264 27.8927 13.9464C27.8927 6.2464 21.6427 -0.0036 13.9427 -0.0036C6.2627 -0.0036 0.0027 6.2464 0.0027 13.9464C0.0027 21.6264 6.2627 27.8864 13.9427 27.8864ZM11.1327 20.1764C10.4727 20.1764 10.0927 19.7464 10.0927 19.1564V8.7064C10.0927 8.0964 10.4627 7.6564 11.1327 7.6564H13.4527V6.3964C13.4527 6.1264 13.6427 5.9164 13.9327 5.9164C14.2227 5.9164 14.3927 6.1264 14.3927 6.3964V7.6564H14.6027C16.5027 7.6564 18.2827 8.6564 18.2827 10.7764C18.2827 12.0864 17.3227 13.3164 16.0127 13.5264V13.6064C17.7227 13.8064 18.9127 14.9664 18.9127 16.6764C18.9127 19.0864 17.0227 20.1764 14.6127 20.1764H14.3927V21.2964C14.3927 21.5864 14.2327 21.7764 13.9327 21.7764C13.6427 21.7764 13.4527 21.5864 13.4527 21.2964V20.1764ZM11.7427 13.0564H13.4527V9.0464H11.7427ZM14.3927 13.0164C15.6827 12.9064 16.6427 12.2864 16.6427 10.9764C16.6427 9.6964 15.6927 9.1164 14.3927 9.0464ZM11.7427 18.8164H13.4527V14.3964H11.7427ZM14.3927 18.8164H14.5227C16.0527 18.8164 17.2227 18.1564 17.2227 16.5964C17.2227 15.0364 16.0127 14.4064 14.4627 14.4064H14.3927Z"
        fillRule="evenodd"
        clipRule="evenodd"
    />
</svg>
        