
<svg
    viewBox={0 0 30.529296875 29.17578125}
    xmlns="http://www.w3.org/2000/svg"
>
    <path
        fill="inherit"
        d="M1.0937 29.179H29.4237C30.0237 29.179 30.5337 28.669 30.5337 28.069C30.5337 27.469 30.0237 26.979 29.4237 26.979H28.7137V25.979C28.7137 25.429 28.3937 25.099 27.8337 25.099H26.9637V9.379H28.1637C28.9137 9.379 29.3537 8.829 29.3537 8.269C29.3537 7.859 29.1237 7.509 28.6137 7.219L16.9437 0.479C16.3937 0.169 15.8137 -0.001 15.2537 -0.001C14.6937 -0.001 14.1137 0.169 13.5937 0.479L1.9137 7.219C1.3937 7.509 1.1737 7.859 1.1737 8.269C1.1737 8.829 1.6137 9.379 2.3637 9.379H3.5637V25.099H2.7037C2.1437 25.099 1.8137 25.429 1.8137 25.979V26.979H1.0937C0.4937 26.979 0.0037 27.469 0.0037 28.069C0.0037 28.669 0.4937 29.179 1.0937 29.179ZM12.4537 21.849C11.8037 21.849 11.4137 21.409 11.4137 20.819V10.359C11.4137 9.749 11.7837 9.309 12.4537 9.309H14.7837V8.069C14.7837 7.779 14.9737 7.589 15.2537 7.589C15.5437 7.589 15.7237 7.779 15.7237 8.069V9.309H15.9237C17.8237 9.309 19.6037 10.319 19.6037 12.439C19.6037 13.739 18.6437 14.989 17.3337 15.189V15.269C19.0437 15.479 20.2337 16.639 20.2337 18.349C20.2337 20.739 18.3437 21.849 15.9437 21.849H15.7237V22.969C15.7237 23.239 15.5537 23.449 15.2537 23.449C14.9737 23.449 14.7837 23.239 14.7837 22.969V21.849ZM13.0737 14.729H14.7837V10.719H13.0737ZM15.7237 14.679C16.9937 14.559 17.9637 13.959 17.9637 12.649C17.9637 11.349 17.0237 10.789 15.7237 10.719ZM13.0737 20.469H14.7837V16.069H13.0737ZM15.7237 20.469H15.8437C17.3737 20.469 18.5537 19.829 18.5537 18.249C18.5537 16.709 17.3337 16.079 15.7937 16.079H15.7237Z"
        fillRule="evenodd"
        clipRule="evenodd"
    />
</svg>
        