
<svg
    viewBox={0 0 32.935546875 27.26189615322232}
    xmlns="http://www.w3.org/2000/svg"
>
    <path
        fill="inherit"
        d="M32.9327 16.3992C32.9327 7.7792 26.3227 0.7192 17.8927 -0.0008C17.4627 -0.0408 17.1327 0.2792 17.1327 0.7192V5.1892C17.1327 5.5592 17.3927 5.8392 17.7627 5.8692C22.9927 6.5092 27.0727 10.9792 27.0727 16.3992C27.0727 18.8592 26.2227 21.1292 24.7327 23.0292C24.5427 23.2592 24.5527 23.5592 24.7627 23.7792L28.0227 27.0292C28.3327 27.3292 28.7927 27.3292 29.0627 27.0092C31.4827 24.1392 32.9327 20.4292 32.9327 16.3992ZM0.0027 16.3992C0.0027 20.4392 1.4527 24.1492 3.8727 27.0192C4.1427 27.3492 4.5927 27.3292 4.9127 27.0292L8.1727 23.7792C8.3827 23.5592 8.3927 23.2592 8.2027 23.0292C6.7027 21.1292 5.8627 18.8592 5.8627 16.3992C5.8627 10.9792 9.9427 6.5092 15.1727 5.8692C15.5427 5.8392 15.8027 5.5592 15.8027 5.1892V0.7192C15.8027 0.2792 15.4727 -0.0408 15.0427 -0.0008C6.6127 0.7192 0.0027 7.7792 0.0027 16.3992ZM13.7227 22.6292H15.9827V23.6992C15.9827 23.9792 16.1727 24.1792 16.4427 24.1792C16.7327 24.1792 16.9127 23.9792 16.9127 23.6992V22.6292H17.1127C19.4427 22.6292 21.2727 21.5492 21.2727 19.2392C21.2727 17.5592 20.1127 16.4392 18.4527 16.2492V16.1592C19.7327 15.9692 20.6627 14.7692 20.6627 13.4992C20.6627 11.4492 18.9527 10.4792 17.1027 10.4792H16.9127V9.2692C16.9127 8.9892 16.7227 8.7992 16.4427 8.7992C16.1727 8.7992 15.9827 8.9892 15.9827 9.2692V10.4792H13.7227C13.0827 10.4792 12.7327 10.8992 12.7327 11.4892V21.6292C12.7327 22.1892 13.0927 22.6292 13.7227 22.6292ZM14.3327 15.7092V11.8192H15.9827V15.7092ZM19.0727 13.6892C19.0727 14.9892 18.1427 15.5592 16.9127 15.6892V11.8292C18.1427 11.8692 19.0727 12.4292 19.0727 13.6892ZM14.3327 21.2892V17.0292H15.9827V21.2892ZM19.6427 19.1392C19.6427 20.6892 18.4427 21.2592 16.9127 21.2892V17.0292C18.4327 17.0692 19.6427 17.6092 19.6427 19.1392Z"
        fillRule="evenodd"
        clipRule="evenodd"
    />
</svg>
        