
<svg
    viewBox="0 0 30.529296875 29.17578125"
    xmlns="http://www.w3.org/2000/svg"
>
    <path
        fill="inherit"
        d="M1.8137 25.919H28.7137V25.009C28.7137 24.459 28.3937 24.129 27.8337 24.129H26.9637V9.379H28.1637C28.9137 9.379 29.3537 8.829 29.3537 8.269C29.3537 7.859 29.1237 7.509 28.6137 7.219L16.9437 0.479C16.3937 0.169 15.8137 -0.001 15.2537 -0.001C14.6937 -0.001 14.1137 0.169 13.5937 0.479L1.9137 7.219C1.3937 7.509 1.1737 7.859 1.1737 8.269C1.1737 8.829 1.6137 9.379 2.3637 9.379H3.5637V24.129H2.7037C2.1437 24.129 1.8137 24.459 1.8137 25.009ZM5.6337 24.129V7.629L14.7237 2.529C14.8937 2.429 15.0837 2.379 15.2537 2.379C15.4337 2.379 15.6237 2.429 15.8037 2.529L24.8937 7.629V24.129ZM12.5537 20.439H14.8037V21.509C14.8037 21.789 14.9937 21.989 15.2737 21.989C15.5537 21.989 15.7237 21.789 15.7237 21.509V20.439H15.9437C18.2637 20.439 20.0937 19.359 20.0937 17.049C20.0937 15.369 18.9337 14.249 17.2837 14.059V13.969C18.5537 13.779 19.4837 12.579 19.4837 11.309C19.4837 9.259 17.7637 8.289 15.9237 8.289H15.7237V7.079C15.7237 6.799 15.5437 6.599 15.2737 6.599C14.9937 6.599 14.8037 6.799 14.8037 7.079V8.289H12.5537C11.9037 8.289 11.5537 8.709 11.5537 9.299V19.439C11.5537 19.999 11.9237 20.439 12.5537 20.439ZM13.1537 13.519V9.629H14.8037V13.519ZM17.8937 11.499C17.8937 12.799 16.9637 13.369 15.7237 13.499V9.639C16.9637 9.679 17.8937 10.239 17.8937 11.499ZM13.1537 19.099V14.829H14.8037V19.099ZM18.4737 16.949C18.4737 18.499 17.2637 19.069 15.7237 19.099V14.829C17.2437 14.879 18.4737 15.419 18.4737 16.949ZM1.0937 29.179H29.4237C30.0237 29.179 30.5337 28.669 30.5337 28.069C30.5337 27.469 30.0237 26.979 29.4237 26.979H1.0937C0.4937 26.979 0.0037 27.469 0.0037 28.069C0.0037 28.669 0.4937 29.179 1.0937 29.179Z"
        fillRule="evenodd"
        clipRule="evenodd"
    />
</svg>
        