
<svg
    viewBox={0 0 16.693359375 30.802734375}
    xmlns="http://www.w3.org/2000/svg"
>
    <path
        fill="inherit"
        d="M1.7237 27.6846H6.2337V29.9046C6.2337 30.4446 6.6037 30.8046 7.1537 30.8046C7.6837 30.8046 8.0237 30.4446 8.0237 29.9046V27.6846H8.4037C13.1837 27.6846 16.6937 25.4546 16.6937 20.9546C16.6937 17.8046 14.5837 15.3646 11.0337 14.9346V14.8046C13.6537 14.3446 15.4337 11.9246 15.4337 9.3946C15.4337 5.5246 12.3037 3.3646 8.3837 3.3646H8.0237V0.9146C8.0237 0.3646 7.6837 0.0046 7.1537 0.0046C6.6037 0.0046 6.2337 0.3646 6.2337 0.9146V3.3646H1.7237C0.7837 3.3646 0.0037 3.8946 0.0037 5.0946V25.9446C0.0037 27.0746 0.7237 27.6846 1.7237 27.6846ZM2.6837 5.7046H6.2337V13.9746H2.6837ZM12.7437 9.6846C12.7437 12.4146 10.7337 13.6846 8.0237 13.9346V5.7146C10.7437 5.7846 12.7437 7.0146 12.7437 9.6846ZM2.6837 25.3446V16.3146H6.2337V25.3446ZM13.9637 20.8246C13.9637 24.0046 11.4037 25.3346 8.0237 25.3446V16.3146C11.4037 16.4046 13.9637 17.6646 13.9637 20.8246Z"
        fillRule="evenodd"
        clipRule="evenodd"
    />
</svg>
        