
<svg
    viewBox={0 0 25.169921875 25.169921875}
    xmlns="http://www.w3.org/2000/svg"
>
    <path
        fill="inherit"
        d="M4.2937 25.1692H20.8737C23.7437 25.1692 25.1737 23.7592 25.1737 20.9492V4.2392C25.1737 1.4192 23.7437 -0.0008 20.8737 -0.0008H4.2937C1.4337 -0.0008 0.0037 1.4192 0.0037 4.2392V20.9492C0.0037 23.7592 1.4337 25.1692 4.2937 25.1692ZM4.3237 22.9692C2.9537 22.9692 2.2037 22.2392 2.2037 20.8192V4.3592C2.2037 2.9392 2.9537 2.1992 4.3237 2.1992H20.8537C22.2037 2.1992 22.9737 2.9392 22.9737 4.3592V20.8192C22.9737 22.2392 22.2037 22.9692 20.8537 22.9692ZM9.8737 18.6192H12.1237V19.6992C12.1237 19.9892 12.3137 20.1692 12.5937 20.1692C12.8837 20.1692 13.0437 19.9892 13.0437 19.6992V18.6192H13.2637C15.5837 18.6192 17.4137 17.5592 17.4137 15.2292C17.4137 13.5592 16.2537 12.4392 14.6037 12.2492V12.1692C15.8737 11.9592 16.8037 10.7692 16.8037 9.4992C16.8037 7.4492 15.0837 6.4792 13.2437 6.4792H13.0437V5.2592C13.0437 4.9892 12.8637 4.7992 12.5937 4.7992C12.3137 4.7992 12.1237 4.9892 12.1237 5.2592V6.4792H9.8737C9.2237 6.4792 8.8737 6.9092 8.8737 7.4892V17.6192C8.8737 18.1992 9.2437 18.6192 9.8737 18.6192ZM10.4737 11.7192V7.8192H12.1237V11.7192ZM15.2137 9.6892C15.2137 10.9792 14.2837 11.5692 13.0437 11.6892V7.8192C14.2837 7.8792 15.2137 8.4192 15.2137 9.6892ZM10.4737 17.2992V13.0192H12.1237V17.2992ZM15.7937 15.1492C15.7937 16.6892 14.5837 17.2692 13.0437 17.2992V13.0292C14.5637 13.0692 15.7937 13.5992 15.7937 15.1492Z"
        fillRule="evenodd"
        clipRule="evenodd"
    />
</svg>
        