
<svg
    viewBox={0 0 30.5703125 30.5703125}
    xmlns="http://www.w3.org/2000/svg"
>
    <path
        fill="inherit"
        d="M15.2827 30.5663C23.6827 30.5663 30.5727 23.6763 30.5727 15.2863C30.5727 6.8863 23.6827 -0.0038 15.2827 -0.0038C6.8927 -0.0038 0.0027 6.8863 0.0027 15.2863C0.0027 23.6763 6.8927 30.5663 15.2827 30.5663ZM15.2827 25.4862C9.6527 25.4862 5.0827 20.9162 5.0827 15.2863C5.0827 9.6363 9.6527 5.0863 15.2827 5.0863C20.9327 5.0863 25.4827 9.6363 25.4827 15.2863C25.4827 20.9162 20.9327 25.4862 15.2827 25.4862ZM12.5627 21.3263H14.8227V22.4063C14.8227 22.6963 15.0127 22.8763 15.2827 22.8763C15.5727 22.8763 15.7327 22.6963 15.7327 22.4063V21.3263H15.9527C18.2827 21.3263 20.1127 20.2663 20.1127 17.9363C20.1127 16.2663 18.9527 15.1463 17.2927 14.9563V14.8763C18.5627 14.6663 19.4927 13.4763 19.4927 12.2063C19.4927 10.1563 17.7727 9.1863 15.9427 9.1863H15.7327V7.9662C15.7327 7.6962 15.5627 7.5063 15.2827 7.5063C15.0127 7.5063 14.8227 7.6962 14.8227 7.9662V9.1863H12.5627C11.9227 9.1863 11.5627 9.6163 11.5627 10.1962V20.3263C11.5627 20.9063 11.9327 21.3263 12.5627 21.3263ZM13.1627 14.4263V10.5262H14.8227V14.4263ZM17.9127 12.3963C17.9127 13.6863 16.9827 14.2763 15.7327 14.3963V10.5262C16.9827 10.5863 17.9127 11.1263 17.9127 12.3963ZM13.1627 20.0063V15.7263H14.8227V20.0063ZM18.4827 17.8563C18.4827 19.3963 17.2827 19.9763 15.7327 20.0063V15.7363C17.2527 15.7763 18.4827 16.3063 18.4827 17.8563Z"
        fillRule="evenodd"
        clipRule="evenodd"
    />
</svg>
        