
<svg
    viewBox="0 0 26.3046875 37.392578125"
    xmlns="http://www.w3.org/2000/svg"
>
    <path
        fill="inherit"
        d="M6.9437 37.3905C7.4337 37.3905 7.8337 37.0005 7.8337 36.5305C7.8337 33.9205 10.1337 33.5605 10.1337 30.9705C10.1337 28.4405 8.2437 28.1205 7.9537 26.1905H8.6237C9.2737 26.1905 9.5337 25.6805 9.3937 25.1805L8.9937 23.6805C10.8437 23.1305 12.4137 21.6705 13.4237 19.6705C14.0437 20.0805 14.6937 20.4105 15.3837 20.6305L14.9037 22.4605C14.7337 23.0105 15.0537 23.6005 15.7537 23.6005H16.4637C16.6937 26.8405 19.0737 27.4705 19.0737 29.4905C19.0737 31.6605 16.3337 31.9905 16.3337 36.2205C16.3337 36.7505 16.7637 37.2005 17.2937 37.2005C17.8237 37.2005 18.2837 36.7505 18.2837 36.2205C18.2837 33.2205 21.0037 32.5205 21.0037 29.4905C21.0037 26.5905 18.7137 25.8805 18.4137 23.6005H19.1837C19.8837 23.6005 20.1837 23.0105 20.0337 22.4605L19.5337 20.6305C23.4637 19.4005 26.3037 14.7105 26.3037 9.0805C26.3037 3.9005 22.6837 0.0005 17.4637 0.0005C13.0937 0.0005 9.8737 2.7205 8.9237 6.6305C8.4337 6.5305 7.9037 6.4705 7.3437 6.4705C3.0037 6.4705 0.0037 9.8005 0.0037 14.1105C0.0037 18.5205 2.1337 22.2805 5.1937 23.5005L4.7537 25.1805C4.6037 25.6805 4.8937 26.1905 5.5237 26.1905H6.2237C6.4237 28.9805 8.4237 29.2305 8.4237 30.9705C8.4237 32.7805 6.1137 32.8105 6.1137 36.5305C6.1137 37.0005 6.4637 37.3905 6.9437 37.3905ZM17.4637 18.8905C13.6437 18.8905 10.7037 14.4405 10.7037 9.0805C10.7037 5.1705 13.4937 2.0605 17.4637 2.0605C21.4237 2.0605 24.2437 5.1705 24.2437 9.0805C24.2437 14.4405 21.2637 18.8905 17.4637 18.8905ZM2.0737 14.1105C2.0737 11.0205 4.2237 8.5305 7.3437 8.5305C7.8037 8.5305 8.2437 8.6005 8.6537 8.6905C8.6437 8.8205 8.6437 8.9505 8.6437 9.0805C8.6437 12.7805 9.8537 16.0605 11.8137 18.2405C10.8837 20.4105 9.2537 21.8305 7.3437 21.8305C4.3437 21.8305 2.0737 18.3705 2.0737 14.1105Z"
        fillRule="evenodd"
        clipRule="evenodd"
    />
</svg>
        