
<svg
    viewBox={0 0 28.384305514613413 28.385887374093894}
    xmlns="http://www.w3.org/2000/svg"
>
    <path
        fill="inherit"
        d="M2.1137 26.272C5.0137 29.152 9.1137 29.122 12.2937 25.972L16.4637 21.772L21.7737 16.462L25.9637 12.282C29.1337 9.122 29.1437 5.022 26.2637 2.122C23.3637 -0.758 19.2637 -0.748 16.1037 2.412L11.9237 6.612L6.6137 11.922L2.4137 16.092C-0.7363 19.272 -0.7663 23.372 2.1137 26.272ZM21.7937 11.682L16.6937 6.592C16.3937 6.292 16.0937 6.052 15.7937 5.852L17.6437 3.992C19.8337 1.792 22.7237 1.492 24.8137 3.562C26.9137 5.642 26.5937 8.552 24.3937 10.742L22.5337 12.592C22.3337 12.292 22.0937 11.992 21.7937 11.682ZM15.4337 8.252L20.1337 12.952C20.9137 13.732 20.8337 14.302 20.0137 15.112L15.1037 20.022C14.3037 20.842 13.7237 20.922 12.9437 20.142L8.2437 15.442C7.4637 14.662 7.5437 14.072 8.3637 13.262L13.2737 8.372C14.0837 7.552 14.6537 7.472 15.4337 8.252ZM14.1737 12.662C14.8437 12.662 15.3337 12.142 15.3337 11.512C15.3637 10.892 14.8337 10.352 14.1937 10.352C13.5437 10.352 13.0437 10.892 13.0437 11.542C13.0437 12.132 13.5737 12.662 14.1737 12.662ZM11.5537 15.342C12.1837 15.342 12.6837 14.802 12.6837 14.212C12.6837 13.552 12.1837 13.032 11.5337 13.032C10.8837 13.032 10.3737 13.552 10.3737 14.192C10.3737 14.822 10.8837 15.342 11.5537 15.342ZM16.8437 15.342C17.4837 15.342 18.0137 14.812 18.0037 14.182C18.0037 13.552 17.4937 13.032 16.8237 13.032C16.2237 13.032 15.6937 13.572 15.6937 14.152C15.6937 14.812 16.2137 15.342 16.8437 15.342ZM14.1937 18.012C14.8337 18.012 15.3337 17.492 15.3337 16.832C15.3337 16.242 14.8337 15.702 14.2037 15.702C13.5337 15.702 13.0237 16.222 13.0237 16.852C13.0237 17.492 13.5337 18.012 14.1937 18.012ZM3.5637 24.822C1.4637 22.742 1.7937 19.842 3.9937 17.642L5.8537 15.782C6.0437 16.092 6.2837 16.402 6.5837 16.702L11.6837 21.802C11.9837 22.102 12.2937 22.342 12.5937 22.532L10.7437 24.392C8.5437 26.582 5.6537 26.902 3.5637 24.822Z"
        fillRule="evenodd"
        clipRule="evenodd"
    />
</svg>
        