
<svg
    viewBox={0 0 28.08339361583138 28.097903367945136}
    xmlns="http://www.w3.org/2000/svg"
>
    <path
        fill="inherit"
        d="M23.5851 14.3776L25.7851 11.9776C28.7651 8.7376 28.8451 4.9176 26.0351 2.0676C23.2051 -0.7924 19.3351 -0.6624 16.1051 2.2976L13.7251 4.5076C14.9051 4.1576 16.1751 4.4376 17.5151 5.7776L22.4851 10.7476C23.8251 12.0776 23.9251 13.1876 23.5851 14.3776ZM11.8951 20.9676C13.2651 22.3276 14.5851 22.3776 15.9851 20.9676L20.9551 15.9776C22.3851 14.5676 22.3551 13.2676 20.9851 11.8976L16.1851 7.0976C14.8151 5.7376 13.5251 5.7076 12.1151 7.1276L7.1251 12.1076C5.7251 13.5176 5.7551 14.8276 7.1251 16.1976ZM13.1551 12.0776C12.6351 11.5576 12.6351 10.7476 13.1251 10.2476C13.6451 9.7276 14.4351 9.7276 14.9551 10.2476C15.4651 10.7476 15.4751 11.5476 14.9451 12.0776C14.4551 12.5576 13.6351 12.5576 13.1551 12.0776ZM10.2551 14.9576C9.7351 14.4476 9.7351 13.6476 10.2551 13.1276C10.7751 12.6076 11.5651 12.6276 12.0851 13.1476C12.5651 13.6376 12.5751 14.4476 12.0851 14.9376C11.5351 15.4776 10.7451 15.4576 10.2551 14.9576ZM17.8451 14.9576C17.3351 15.4576 16.5251 15.4576 16.0051 14.9376C15.5351 14.4576 15.5351 13.6376 16.0051 13.1476C16.5451 12.6076 17.3351 12.6276 17.8451 13.1276C18.3651 13.6476 18.3651 14.4476 17.8451 14.9576ZM2.0651 26.0276C4.8851 28.8776 8.7651 28.7676 11.9751 25.7876L14.3451 23.5776C13.1551 23.9176 11.9451 23.6876 10.6051 22.3576L5.6351 17.3676C4.2951 16.0376 4.1651 14.9376 4.5151 13.7476L2.2951 16.1076C-0.6949 19.3376 -0.7549 23.1776 2.0651 26.0276ZM13.1251 17.8376C12.6351 17.3376 12.6051 16.5476 13.1551 16.0176C13.6451 15.5076 14.4551 15.5276 14.9451 16.0176C15.4651 16.5176 15.4751 17.3376 14.9551 17.8376C14.4251 18.3576 13.6451 18.3576 13.1251 17.8376Z"
        fillRule="evenodd"
        clipRule="evenodd"
    />
</svg>
        