
<svg
    viewBox={0 0 36.09375 22.599609375}
    xmlns="http://www.w3.org/2000/svg"
>
    <path
        fill="inherit"
        d="M0.0037 21.5041C0.0037 22.1641 0.4337 22.6041 1.0937 22.6041H35.0137C35.6737 22.6041 36.0937 22.1641 36.0937 21.5041V1.0841C36.0937 0.4241 35.6737 0.0041 35.0137 0.0041H1.0937C0.4337 0.0041 0.0037 0.4241 0.0037 1.0841ZM2.2037 20.0041V2.5941C2.2037 2.2941 2.3137 2.2041 2.5937 2.2041H33.4937C33.7937 2.2041 33.8937 2.2941 33.8937 2.5941V20.0041C33.8937 20.2841 33.7937 20.3941 33.4937 20.3941H2.5937C2.3137 20.3941 2.2037 20.2841 2.2037 20.0041ZM3.6737 18.1141C3.6737 18.6341 3.9637 18.9241 4.4737 18.9241H31.6337C32.1337 18.9241 32.4337 18.6341 32.4337 18.1141V4.4741C32.4337 3.9641 32.1337 3.6641 31.6337 3.6641H4.4737C3.9637 3.6641 3.6737 3.9641 3.6737 4.4741ZM5.0537 17.2241V5.3641C5.0537 5.1541 5.1537 5.0441 5.3637 5.0441H14.8937C13.6337 6.3541 12.8137 8.5141 12.8137 11.2841C12.8137 14.0541 13.6337 16.2241 14.8937 17.5441H5.3637C5.1537 17.5441 5.0537 17.4341 5.0537 17.2241ZM23.2937 11.2841C23.2937 8.5141 22.4637 6.3541 21.1737 5.0441H30.7337C30.9437 5.0441 31.0537 5.1541 31.0537 5.3641V17.2241C31.0537 17.4341 30.9437 17.5441 30.7337 17.5441H21.1737C22.4637 16.2241 23.2937 14.0541 23.2937 11.2841ZM17.9937 17.3041C16.0537 17.3041 14.3937 14.9941 14.3937 11.2841C14.3937 7.5741 16.0537 5.2741 17.9937 5.2741C20.0137 5.2741 21.7237 7.5741 21.7237 11.2841C21.7237 14.9941 20.0137 17.3041 17.9937 17.3041Z"
        fillRule="evenodd"
        clipRule="evenodd"
    />
</svg>
        