
<svg
    viewBox="0 0 36.09375 22.599609375"
    xmlns="http://www.w3.org/2000/svg"
>
    <path
        fill="inherit"
        d="M0.0037 21.5041C0.0037 22.1641 0.4337 22.6041 1.0937 22.6041H35.0137C35.6737 22.6041 36.0937 22.1641 36.0937 21.5041V1.0841C36.0937 0.4241 35.6737 0.0041 35.0137 0.0041H1.0937C0.4337 0.0041 0.0037 0.4241 0.0037 1.0841ZM2.5037 19.2641V3.3341C2.5037 2.7841 2.8137 2.5041 3.3237 2.5041H32.7737C33.2937 2.5041 33.5937 2.7841 33.5937 3.3341V19.2641C33.5937 19.7941 33.2937 20.0941 32.7737 20.0941H3.3237C2.8137 20.0941 2.5037 19.7941 2.5037 19.2641ZM3.9237 18.3441C3.9237 18.5641 4.0437 18.6741 4.2537 18.6741H14.9437C13.4937 17.2041 12.6437 14.5841 12.6437 11.2841C12.6437 7.9841 13.4937 5.3841 14.9137 3.9241H4.2537C4.0437 3.9241 3.9237 4.0341 3.9237 4.2541ZM21.1237 18.6741H31.8437C32.0437 18.6741 32.1737 18.5641 32.1737 18.3441V4.2541C32.1737 4.0341 32.0437 3.9241 31.8437 3.9241H21.1337C22.6037 5.3841 23.4637 7.9841 23.4637 11.2841C23.4637 14.5841 22.5837 17.2041 21.1237 18.6741ZM14.2837 11.2841C14.2837 15.5441 15.7637 18.4041 17.9937 18.4041C20.2937 18.4041 21.8337 15.5441 21.8337 11.2841C21.8337 7.0141 20.2937 4.1741 17.9937 4.1741C15.7637 4.1741 14.2837 7.0141 14.2837 11.2841Z"
        fillRule="evenodd"
        clipRule="evenodd"
    />
</svg>
        