
<svg
    viewBox="0 0 27.890625 27.890625"
    xmlns="http://www.w3.org/2000/svg"
>
    <path
        fill="inherit"
        d="M13.9427 27.8864C21.6427 27.8864 27.8927 21.6464 27.8927 13.9464C27.8927 6.2464 21.6427 -0.0036 13.9427 -0.0036C6.2527 -0.0036 0.0027 6.2464 0.0027 13.9464C0.0027 21.6464 6.2527 27.8864 13.9427 27.8864ZM13.9427 25.5664C7.5227 25.5664 2.3227 20.3664 2.3227 13.9464C2.3227 7.5164 7.5227 2.3264 13.9427 2.3264C20.3727 2.3264 25.5627 7.5164 25.5627 13.9464C25.5627 20.3664 20.3727 25.5664 13.9427 25.5664ZM13.9427 16.9764C15.6127 16.9764 16.9827 15.6164 16.9827 13.9464C16.9827 13.5264 16.9027 13.1064 16.7327 12.7464L21.0227 8.4464C21.4627 8.0264 21.4627 7.3264 21.0227 6.8864C20.6027 6.4664 19.9027 6.4664 19.4827 6.8864L15.2027 11.1864C14.8227 11.0064 14.3927 10.9064 13.9427 10.9064C12.2727 10.9064 10.9127 12.2664 10.9127 13.9464C10.9127 14.3864 11.0027 14.8164 11.1827 15.1864L9.7627 16.6064C9.3427 17.0364 9.3427 17.7464 9.7627 18.1664C10.1827 18.5964 10.8827 18.5964 11.3227 18.1664L12.7527 16.7364C13.1127 16.8864 13.5227 16.9764 13.9427 16.9764ZM13.9427 15.2564C13.2227 15.2564 12.6327 14.6664 12.6327 13.9464C12.6327 13.2064 13.2227 12.6364 13.9427 12.6364C14.6727 12.6364 15.2627 13.2064 15.2627 13.9464C15.2627 14.6664 14.6727 15.2564 13.9427 15.2564Z"
        fillRule="evenodd"
        clipRule="evenodd"
    />
</svg>
        