
<svg
    viewBox={0 0 27.890625 27.890625}
    xmlns="http://www.w3.org/2000/svg"
>
    <path
        fill="inherit"
        d="M13.9427 27.8864C21.6427 27.8864 27.8927 21.6464 27.8927 13.9464C27.8927 6.2464 21.6427 -0.0036 13.9427 -0.0036C6.2527 -0.0036 0.0027 6.2464 0.0027 13.9464C0.0027 21.6464 6.2527 27.8864 13.9427 27.8864ZM13.9427 26.0264C13.4227 26.0264 12.9227 26.0064 12.4127 25.9364C12.6227 25.1564 12.7427 24.3464 12.8127 23.5464L13.4527 23.5564C13.8127 23.5664 14.0827 23.2864 14.0827 22.9364C14.0927 22.6164 13.8227 22.3264 13.4827 22.3164L12.8527 22.2964C12.8427 21.4464 12.7527 20.6064 12.5827 19.7664L13.1927 19.6164C13.5227 19.5264 13.7127 19.1864 13.6327 18.8564C13.5327 18.5164 13.2227 18.3064 12.8627 18.4064L12.2727 18.5564C12.0427 17.7364 11.7127 16.9264 11.3227 16.1464L11.9127 15.8164C12.2327 15.6364 12.3227 15.2564 12.1427 14.9664C11.9627 14.6664 11.5927 14.5464 11.2927 14.7264L10.6927 15.0664C10.1827 14.2864 9.6227 13.5864 9.0127 12.9464L9.5127 12.4264C9.7727 12.1664 9.7627 11.7864 9.5127 11.5664C9.2727 11.3064 8.8827 11.2764 8.6227 11.5364L8.0927 12.0764C7.4927 11.5564 6.8527 11.0864 6.1627 10.6764L6.4427 10.1764C6.6027 9.8664 6.5127 9.5064 6.2027 9.3564C5.8927 9.1764 5.5127 9.2564 5.3427 9.5664L5.0627 10.0864C4.3327 9.7364 3.5827 9.4464 2.8127 9.2164C4.6627 4.8964 8.9527 1.8564 13.9427 1.8564C14.4327 1.8564 14.9127 1.8864 15.3827 1.9364C15.1927 2.7364 15.0627 3.5264 15.0027 4.3464L14.3927 4.3164C14.0427 4.3364 13.7627 4.6064 13.7627 4.9664C13.7527 5.3064 14.0127 5.5764 14.3727 5.5764L14.9727 5.5964C14.9827 6.3964 15.0627 7.1864 15.2127 7.9864L14.4627 8.1764C14.1127 8.2764 13.9427 8.6164 14.0527 8.9364C14.1127 9.2864 14.4327 9.4764 14.7827 9.3764L15.5027 9.1964C15.7527 10.0464 16.0827 10.8964 16.5027 11.7064L15.9027 12.0464C15.6027 12.2064 15.5127 12.5964 15.6927 12.8964C15.8327 13.1764 16.2127 13.3164 16.5127 13.1264L17.1327 12.7864C17.6127 13.5364 18.1427 14.2164 18.7427 14.8464L18.3227 15.2764C18.0727 15.5064 18.0927 15.8964 18.3427 16.1364C18.5827 16.3664 18.9627 16.3764 19.2127 16.1364L19.6427 15.7064C20.2927 16.2664 20.9727 16.7664 21.6927 17.1864L21.4127 17.7164C21.2327 18.0164 21.3427 18.4064 21.6427 18.5664C21.9327 18.7264 22.3427 18.6364 22.4927 18.3164L22.7927 17.7764C23.5327 18.1264 24.2927 18.4164 25.0927 18.6464C23.2427 22.9864 18.9527 26.0264 13.9427 26.0264ZM18.8027 11.8264C19.1127 11.6464 19.1927 11.3064 19.0327 10.9764C18.8627 10.6864 18.5027 10.5564 18.1927 10.7464L17.7627 10.9964C17.3927 10.2964 17.1027 9.5664 16.8827 8.8464L17.3227 8.7364C17.6627 8.6364 17.8527 8.3164 17.7427 7.9864C17.6827 7.6464 17.3527 7.4364 17.0127 7.5364L16.5927 7.6264C16.4627 6.9764 16.3927 6.3064 16.3627 5.6364L16.9927 5.6464C17.3527 5.6564 17.6127 5.3964 17.6127 5.0464C17.6227 4.7064 17.3527 4.4164 17.0127 4.4064L16.3927 4.3864C16.4427 3.6364 16.5527 2.8964 16.7327 2.1864C22.0627 3.4464 26.0327 8.2264 26.0327 13.9464C26.0327 15.1164 25.8627 16.2664 25.5427 17.3464C24.8327 17.1464 24.1327 16.8864 23.4627 16.5564L23.7527 16.0364C23.9227 15.7264 23.8027 15.3664 23.5027 15.1764C23.2027 15.0264 22.8227 15.1164 22.6727 15.4264L22.3627 15.9664C21.7627 15.5964 21.1827 15.1764 20.6427 14.6964L21.0527 14.2864C21.3127 14.0164 21.3027 13.6264 21.0427 13.3864C20.8127 13.1564 20.4127 13.1364 20.1627 13.3964L19.7427 13.8264C19.2527 13.2864 18.7827 12.6964 18.3727 12.0764ZM10.8427 23.4864L11.4127 23.5064C11.3627 24.2364 11.2427 24.9664 11.0627 25.6864C5.7827 24.3864 1.8627 19.6164 1.8627 13.9464C1.8627 12.7564 2.0327 11.6064 2.3527 10.5164C3.0527 10.7164 3.7427 10.9764 4.4027 11.3064L4.1027 11.8664C3.9227 12.1864 4.0327 12.5664 4.3427 12.7164C4.6527 12.8964 5.0027 12.7964 5.1827 12.4864L5.4927 11.9064C6.0527 12.2664 6.5927 12.6564 7.0927 13.0964L6.7927 13.4164C6.5327 13.6564 6.5527 14.0664 6.8127 14.2864C7.0527 14.5364 7.4227 14.5464 7.6827 14.2964L8.0127 13.9564C8.5327 14.5064 8.9927 15.1164 9.4227 15.7664L9.0127 15.9964C8.6927 16.1764 8.6027 16.5664 8.7927 16.8564C8.9727 17.1564 9.3127 17.2664 9.6227 17.1064L10.0527 16.8564C10.4027 17.5264 10.6827 18.2064 10.8927 18.9064L10.3327 19.0564C9.9927 19.1364 9.8027 19.4864 9.8827 19.8064C9.9827 20.1564 10.3127 20.3564 10.6527 20.2764L11.2127 20.1264C11.3427 20.8364 11.4327 21.5464 11.4427 22.2564L10.8727 22.2464C10.5127 22.2264 10.2427 22.5164 10.2227 22.8564C10.2227 23.1964 10.5027 23.4764 10.8427 23.4864Z"
        fillRule="evenodd"
        clipRule="evenodd"
    />
</svg>
        