
<svg
    viewBox={0 0 38.94775390625 20.306828564458637}
    xmlns="http://www.w3.org/2000/svg"
>
    <path
        fill="inherit"
        d="M11.9703 7.1196L18.2803 11.4996C18.9903 11.9996 19.9803 11.9696 20.7603 11.4296L26.9703 7.1196C27.9103 6.4596 27.9103 5.4096 26.9703 4.7496L20.7003 0.3896C19.9703 -0.1304 18.9903 -0.1304 18.2803 0.3696L11.9703 4.7496C11.0403 5.4096 11.0403 6.4596 11.9703 7.1196ZM23.2703 15.5696L29.4903 19.8996C30.2503 20.4396 31.2503 20.4396 31.9703 19.9296L38.2503 15.5696C39.1803 14.9096 39.1803 13.8596 38.2503 13.1996L31.9703 8.8396C31.2503 8.3396 30.2703 8.3196 29.5503 8.8196L23.2703 13.1996C22.3203 13.8596 22.3203 14.9096 23.2703 15.5696ZM0.7103 15.5696L7.0003 19.9396C7.7103 20.4496 8.7103 20.4196 9.5003 19.8896L15.6903 15.5696C16.6403 14.9096 16.6403 13.8596 15.6903 13.1996L9.4303 8.8396C8.6903 8.3396 7.7103 8.3196 7.0003 8.8196L0.7103 13.1996C-0.2397 13.8596 -0.2397 14.9096 0.7103 15.5696Z"
        fillRule="evenodd"
        clipRule="evenodd"
    />
</svg>
        