
<svg
    viewBox="0 0 35.0546875 27.620683137973298"
    xmlns="http://www.w3.org/2000/svg"
>
    <path
        fill="inherit"
        d="M10.7703 6.4022L16.4403 10.3422C17.1003 10.7922 17.9703 10.7722 18.7003 10.2822L24.2603 6.4022C25.1103 5.8122 25.1103 4.8522 24.2603 4.2722L18.6303 0.3422C17.9703 -0.1078 17.1003 -0.1178 16.4403 0.3322L10.7703 4.2722C9.9403 4.8522 9.9403 5.8122 10.7703 6.4022ZM20.9403 14.0022L26.5303 17.9022C27.2303 18.3922 28.1203 18.3922 28.7803 17.9322L34.4103 14.0022C35.2703 13.4022 35.2703 12.4722 34.4103 11.8722L28.7803 7.9422C28.1203 7.4822 27.2403 7.4722 26.5903 7.9322L20.9403 11.8722C20.0803 12.4722 20.0803 13.4022 20.9403 14.0022ZM0.6303 14.0022L6.3003 17.9422C6.9303 18.3822 7.8303 18.3822 8.5303 17.8822L14.1203 14.0022C14.9703 13.4122 14.9703 12.4622 14.1203 11.8722L8.4703 7.9422C7.8203 7.4822 6.9303 7.4922 6.3003 7.9322L0.6303 11.8722C-0.2097 12.4622 -0.2097 13.4122 0.6303 14.0022ZM5.2503 27.6222C6.9803 27.6222 8.3903 26.2122 8.3903 24.4922C8.3903 22.7522 6.9803 21.3422 5.2503 21.3422C3.5203 21.3422 2.1203 22.7522 2.1203 24.4922C2.1203 26.2122 3.5203 27.6222 5.2503 27.6222ZM17.5403 27.6222C19.2603 27.6222 20.6703 26.2122 20.6703 24.4922C20.6703 22.7522 19.2603 21.3422 17.5403 21.3422C15.8003 21.3422 14.3903 22.7522 14.3903 24.4922C14.3903 26.2122 15.8003 27.6222 17.5403 27.6222ZM29.8003 27.6222C31.5403 27.6222 32.9503 26.2122 32.9503 24.4922C32.9503 22.7522 31.5403 21.3422 29.8003 21.3422C28.0803 21.3422 26.6703 22.7522 26.6703 24.4922C26.6703 26.2122 28.0803 27.6222 29.8003 27.6222Z"
        fillRule="evenodd"
        clipRule="evenodd"
    />
</svg>
        