
<svg
    viewBox={0 0 27.890625 27.890625}
    xmlns="http://www.w3.org/2000/svg"
>
    <path
        fill="inherit"
        d="M13.9427 27.8864C19.7527 27.8864 24.8327 24.2764 26.8827 19.1364C25.5527 18.8964 24.2627 18.4564 23.0627 17.8864L22.7527 18.4564C22.5727 18.7764 22.1727 18.8764 21.8727 18.7164C21.5727 18.5364 21.4527 18.1464 21.6427 17.8264L21.9427 17.2764C21.1927 16.8264 20.4827 16.3364 19.8127 15.7664L19.3727 16.1964C19.1227 16.4564 18.7327 16.4464 18.4827 16.1964C18.2127 15.9564 18.2127 15.5564 18.4527 15.3164L18.8927 14.8564C18.2827 14.2364 17.7327 13.5264 17.2227 12.7464L16.5927 13.0964C16.2827 13.2864 15.8827 13.1564 15.7527 12.8664C15.5727 12.5464 15.6727 12.1864 15.9727 11.9864L16.5827 11.6364C16.1427 10.7964 15.8027 9.9364 15.5627 9.0664L14.8027 9.2464C14.4527 9.3364 14.1127 9.1464 14.0527 8.7864C13.9427 8.4464 14.1127 8.0964 14.4827 7.9964L15.2627 7.8064C15.0927 6.9964 15.0127 6.1664 15.0027 5.3464L14.3827 5.3164C14.0127 5.3164 13.7427 5.0464 13.7627 4.6864C13.7627 4.3164 14.0427 4.0164 14.4127 4.0164L15.0227 4.0464C15.1527 2.7064 15.3927 1.3764 15.8727 0.1364C15.2327 0.0564 14.5927 -0.0036 13.9427 -0.0036C6.6127 -0.0036 2.2727 5.3164 1.0127 8.7364C2.3227 8.9864 3.5927 9.3664 4.7827 9.9664L5.0827 9.4364C5.2627 9.1164 5.6427 9.0264 5.9727 9.2164C6.2927 9.3664 6.3827 9.7464 6.2027 10.0664L5.9227 10.5864C6.6127 11.0064 7.2827 11.4664 7.9127 12.0164L8.4627 11.4564C8.7227 11.1964 9.1227 11.2264 9.3827 11.4964C9.6127 11.7464 9.6527 12.1164 9.3827 12.3864L8.8427 12.9164C9.4927 13.5864 10.0727 14.2964 10.5827 15.0964L11.2127 14.7564C11.5227 14.5764 11.9127 14.6964 12.0827 14.9964C12.2627 15.2964 12.1827 15.6864 11.8427 15.8764L11.2227 16.2164C11.6527 17.0264 11.9727 17.8564 12.2327 18.6864L12.8227 18.5364C13.1927 18.4464 13.5227 18.6464 13.6127 19.0064C13.7127 19.3464 13.5127 19.6964 13.1627 19.7964L12.5527 19.9564C12.7127 20.8264 12.7927 21.6864 12.8127 22.5464L13.4627 22.5764C13.8227 22.5864 14.1127 22.8764 14.0927 23.2164C14.0927 23.5664 13.8127 23.8664 13.4427 23.8564L12.7727 23.8264C12.6727 25.1664 12.4027 26.4864 11.9327 27.7364C12.5827 27.8364 13.2627 27.8864 13.9427 27.8864ZM27.8927 13.9464C27.8927 7.4464 23.3827 1.8564 17.2527 0.3964C16.8427 1.5764 16.5527 2.8264 16.4727 4.0764L17.1027 4.1064C17.4627 4.1164 17.7427 4.4164 17.7327 4.7764C17.7327 5.1364 17.4627 5.3964 17.0927 5.3864L16.4627 5.3564C16.4727 6.0464 16.5427 6.7364 16.6827 7.4264L17.1027 7.3264C17.4627 7.2364 17.7727 7.4364 17.8727 7.7964C17.9527 8.1364 17.7827 8.4764 17.4327 8.5764L16.9927 8.6664C17.2227 9.4164 17.5127 10.1564 17.8827 10.8864L18.3327 10.6364C18.6527 10.4464 19.0327 10.5864 19.1927 10.8864C19.3727 11.2264 19.2727 11.5764 18.9627 11.7564L18.5127 12.0064C18.9527 12.6564 19.4127 13.2664 19.9227 13.8064L20.3527 13.3664C20.6127 13.0964 21.0227 13.1264 21.2727 13.3564C21.5327 13.6064 21.5627 14.0264 21.2827 14.2964L20.8627 14.7264C21.4227 15.2164 22.0127 15.6564 22.6527 16.0264L22.9427 15.4664C23.1027 15.1664 23.4927 15.0364 23.8027 15.2064C24.1127 15.3964 24.2527 15.7764 24.0627 16.1064L23.7727 16.6564C24.8927 17.1964 26.1027 17.5664 27.3427 17.7564C27.7027 16.5464 27.8927 15.2764 27.8927 13.9464ZM0.0027 13.9464C0.0027 20.3964 4.3727 25.9064 10.5427 27.4564C10.9627 26.3064 11.2427 25.0564 11.3227 23.8164L10.7427 23.7864C10.3927 23.7764 10.1027 23.4864 10.1027 23.1364C10.1127 22.7764 10.4027 22.4864 10.7727 22.5064L11.3427 22.5264C11.3327 21.7964 11.2527 21.0664 11.1127 20.3264L10.5427 20.4764C10.1827 20.5664 9.8427 20.3464 9.7527 20.0064C9.6627 19.6564 9.8727 19.3064 10.2127 19.2264L10.7827 19.0764C10.5727 18.3564 10.2927 17.6464 9.9427 16.9664L9.4927 17.2164C9.1627 17.3764 8.8027 17.2664 8.6227 16.9564C8.4227 16.6564 8.5327 16.2464 8.8427 16.0664L9.2827 15.8364C8.8427 15.1664 8.3527 14.5364 7.8027 13.9764L7.4927 14.3164C7.2227 14.5764 6.8527 14.5564 6.5727 14.2964C6.3327 14.0664 6.2927 13.6564 6.5627 13.3964L6.8727 13.0664C6.3527 12.6064 5.7927 12.2264 5.2127 11.8564L4.9127 12.4364C4.7127 12.7664 4.3627 12.8664 4.0427 12.6864C3.7227 12.5264 3.6127 12.1264 3.7827 11.7964L4.0927 11.2264C2.9827 10.6764 1.7627 10.2964 0.5627 10.0864C0.1927 11.3164 0.0027 12.6064 0.0027 13.9464Z"
        fillRule="evenodd"
        clipRule="evenodd"
    />
</svg>
        