
<svg
    viewBox={0 0 27.890625 27.890625}
    xmlns="http://www.w3.org/2000/svg"
>
    <path
        fill="inherit"
        d="M13.9427 27.8864C21.6427 27.8864 27.8927 21.6464 27.8927 13.9464C27.8927 6.2464 21.6427 -0.0036 13.9427 -0.0036C6.2527 -0.0036 0.0027 6.2464 0.0027 13.9464C0.0027 21.6464 6.2527 27.8864 13.9427 27.8864ZM13.9427 25.5664C7.5227 25.5664 2.3227 20.3664 2.3227 13.9464C2.3227 7.5164 7.5227 2.3264 13.9427 2.3264C20.3727 2.3264 25.5627 7.5164 25.5627 13.9464C25.5627 20.3664 20.3727 25.5664 13.9427 25.5664ZM13.9427 21.2864C16.9527 21.2864 19.5927 19.3864 20.7127 16.7464C20.1227 16.6264 19.5627 16.4364 19.0327 16.1864L18.8827 16.4564C18.7627 16.6964 18.4727 16.7864 18.2427 16.6664C18.0227 16.5264 17.9327 16.2464 18.0627 16.0064L18.2127 15.7464C17.8727 15.5464 17.5427 15.2964 17.2227 15.0564L17.0127 15.2764C16.8327 15.4464 16.5427 15.4264 16.3527 15.2564C16.1727 15.0764 16.1427 14.7964 16.3227 14.6164L16.5427 14.3964C16.2527 14.0864 15.9927 13.7564 15.7627 13.3964L15.4627 13.5764C15.2327 13.7164 14.9527 13.6164 14.8327 13.3964C14.7227 13.1664 14.7827 12.8764 15.0027 12.7664L15.3027 12.5964C15.1027 12.1964 14.9427 11.7964 14.8227 11.3864L14.4527 11.4864C14.1927 11.5564 13.9627 11.4064 13.8927 11.1464C13.8227 10.9064 13.9427 10.6464 14.2227 10.5864L14.6027 10.4864C14.5327 10.1164 14.5027 9.7364 14.4927 9.3564H14.1827C13.9227 9.3364 13.7427 9.1164 13.7427 8.8564C13.7427 8.6164 13.9427 8.3964 14.2227 8.3964L14.5027 8.4064C14.5627 7.8164 14.6827 7.2464 14.8627 6.6764C14.5627 6.6264 14.2327 6.6064 13.9327 6.6064C10.9327 6.6064 8.3127 8.5064 7.2027 11.1164C7.7627 11.2364 8.3127 11.4264 8.8427 11.6764L8.9827 11.4264C9.1227 11.1864 9.3927 11.1264 9.6227 11.2364C9.8427 11.3464 9.9427 11.6464 9.8027 11.8764L9.6627 12.1264C9.9927 12.3164 10.2927 12.5464 10.5827 12.7864L10.8727 12.5064C11.0627 12.3364 11.3027 12.3464 11.5227 12.5264C11.7127 12.6964 11.7127 12.9864 11.5427 13.1664L11.2627 13.4364C11.5627 13.7564 11.8427 14.0864 12.0727 14.4464L12.4027 14.2764C12.6327 14.1364 12.8927 14.2364 13.0327 14.4664C13.1627 14.6664 13.0927 14.9864 12.8627 15.1064L12.5527 15.2864C12.7427 15.6564 12.8927 16.0364 13.0127 16.4364L13.3127 16.3564C13.5627 16.2864 13.8127 16.4364 13.8727 16.6764C13.9327 16.9364 13.7827 17.1964 13.5527 17.2664L13.2527 17.3464C13.3127 17.7364 13.3427 18.1464 13.3527 18.5364H13.6827C13.9427 18.5564 14.1327 18.7864 14.1327 19.0264C14.1327 19.2864 13.9327 19.4964 13.6727 19.4964L13.3327 19.4864C13.2627 20.0664 13.1527 20.6564 12.9627 21.2064C13.2927 21.2564 13.6127 21.2864 13.9427 21.2864ZM21.2827 13.9464C21.2827 10.5664 18.8827 7.6564 15.7227 6.8264C15.5427 7.3564 15.4327 7.8864 15.3827 8.4264L15.6927 8.4364C15.9427 8.4464 16.1427 8.6664 16.1327 8.9164C16.1327 9.1864 15.9427 9.3964 15.6727 9.3964L15.3627 9.3764C15.3827 9.6664 15.4127 9.9564 15.4627 10.2564L15.6427 10.2164C15.9027 10.1464 16.1427 10.2964 16.2127 10.5564C16.2827 10.7964 16.1327 11.0464 15.8827 11.1164L15.6927 11.1664C15.8027 11.4964 15.9327 11.8164 16.1027 12.1264L16.2827 12.0264C16.5127 11.8964 16.8027 11.9864 16.9227 12.2064C17.0527 12.4664 16.9827 12.7164 16.7527 12.8364L16.5527 12.9464C16.7527 13.2364 16.9527 13.4964 17.1727 13.7564L17.3727 13.5464C17.5827 13.3464 17.8427 13.3664 18.0427 13.5464C18.2127 13.7164 18.2527 14.0164 18.0427 14.2164L17.8527 14.4064C18.1027 14.6264 18.3627 14.8164 18.6327 14.9864L18.7727 14.7364C18.8927 14.5164 19.1927 14.4064 19.3827 14.5464C19.6327 14.6664 19.7127 14.9464 19.5827 15.1764L19.4427 15.4364C19.9427 15.6664 20.4627 15.8364 21.0027 15.9264C21.1927 15.2964 21.2827 14.6264 21.2827 13.9464ZM6.6127 13.9464C6.6127 17.3064 8.9827 20.2064 12.1227 21.0364C12.3027 20.5264 12.4027 20.0064 12.4727 19.4664L12.1827 19.4564C11.9227 19.4364 11.7327 19.2264 11.7327 18.9764C11.7427 18.7264 11.9327 18.4964 12.2127 18.4964L12.4827 18.5164C12.4727 18.1964 12.4327 17.8964 12.3827 17.5664L12.1027 17.6364C11.8527 17.7064 11.6027 17.5364 11.5527 17.3064C11.4827 17.0464 11.6327 16.7764 11.8627 16.7164L12.1427 16.6564C12.0327 16.3264 11.9127 16.0264 11.7427 15.7264L11.5527 15.8364C11.3327 15.9564 11.0627 15.8864 10.9227 15.6564C10.8027 15.4364 10.8727 15.1364 11.1027 15.0164L11.2927 14.9064C11.0927 14.6164 10.8827 14.3464 10.6327 14.0864L10.4827 14.2364C10.3127 14.4064 10.0227 14.3964 9.8327 14.2164C9.6527 14.0564 9.6427 13.7364 9.8127 13.5664L9.9527 13.4264C9.7327 13.2364 9.4927 13.0564 9.2427 12.9064L9.0927 13.1764C8.9727 13.4164 8.6827 13.4764 8.4727 13.3564C8.2327 13.2464 8.1527 12.9564 8.2827 12.7164L8.4227 12.4564C7.9327 12.2064 7.4227 12.0464 6.9027 11.9364C6.7227 12.5664 6.6127 13.2664 6.6127 13.9464Z"
        fillRule="evenodd"
        clipRule="evenodd"
    />
</svg>
        