<svg viewBox="0 0 27.890625 27.876953125" xmlns="http://www.w3.org/2000/svg"><path d="M8.6127 6.7827C9.2827 6.4627 9.9827 6.1927 10.6927 5.9627C10.6627 5.6727 10.6327 5.4027 10.6327 5.1127C10.6327 2.9227 11.8127 1.1027 13.6427 0.0027C13.5527 0.0027 13.4827 0.0027 13.3827 0.0027C11.8527 0.0527 10.3627 0.3727 8.9927 0.9027C8.6227 2.1227 8.3527 4.0627 8.6127 6.7827ZM12.2327 5.4927C13.9427 5.0627 15.7327 4.8227 17.5927 4.8227C20.3727 4.8227 23.1327 5.3727 25.6027 6.3827C23.6227 3.3327 20.4927 1.0927 16.8427 0.3027C13.9627 1.1327 12.1427 2.6827 12.2127 5.1127C12.2127 5.2327 12.2227 5.3727 12.2327 5.4927ZM5.8227 8.3127C6.2627 8.0227 6.7127 7.7527 7.1627 7.5027C6.8727 5.0327 6.9827 3.0227 7.4127 1.6427C5.8927 2.4627 4.5527 3.5427 3.4227 4.8227C4.7827 5.1927 5.5527 6.9427 5.8227 8.3127ZM0.0127 13.7627C1.2127 12.1127 2.7327 10.5827 4.3927 9.3227C4.3727 9.2727 4.3727 9.2027 4.3627 9.1327C4.3027 8.1327 3.6627 6.1927 2.5027 6.0327C1.0127 8.1627 0.0927 10.7227 0.0027 13.4627C0.0027 13.5727 0.0027 13.6727 0.0127 13.7627ZM26.4827 19.9727C27.3827 18.1327 27.8927 16.0927 27.8927 13.9327C27.8927 12.0727 27.5227 10.2827 26.8227 8.6727C23.9127 7.1527 20.9027 6.4027 17.5927 6.4027C15.8827 6.4027 14.2327 6.6027 12.6627 7.0027C14.8327 11.5027 24.4627 13.5227 26.4827 19.9727ZM11.1127 7.4527C10.3327 7.7227 9.5527 8.0427 8.8227 8.4127C9.6527 13.5627 12.2727 20.6827 17.8927 27.2927C20.8727 26.4027 23.4627 24.5127 25.2527 22.0127C25.0427 15.2827 13.6027 13.2727 11.1127 7.4527ZM5.9727 10.0927C6.0127 16.3427 3.2027 23.5027 9.2427 26.9727C10.6927 27.5527 12.2927 27.8727 13.9427 27.8727C14.7127 27.8727 15.4627 27.8227 16.1827 27.7027C10.9627 21.3327 8.3427 14.4627 7.4127 9.1627C6.9227 9.4427 6.4427 9.7527 5.9727 10.0927ZM4.3627 11.3627C2.7927 12.7527 1.3227 14.4227 0.1927 16.2427C0.7227 19.3627 2.3427 22.1627 4.6227 24.2427C2.9627 20.3527 4.1527 15.5127 4.3627 11.3627Z" /></svg>