
<svg
    viewBox="0 0 32.01953125 29.29939616769758"
    xmlns="http://www.w3.org/2000/svg"
>
    <path
        fill="inherit"
        d="M0.0037 13.5095C0.0037 14.7895 0.7937 15.5995 2.0937 15.5995H2.1037L4.1537 25.4695C4.5637 27.4495 5.5337 29.2995 8.6937 29.2995H23.3237C26.4837 29.2995 27.4537 27.4495 27.8637 25.4695L29.9137 15.5995C31.2137 15.5995 32.0237 14.7895 32.0237 13.5095V11.5295C32.0237 10.2395 31.2137 9.4195 29.9137 9.4195H27.2637L22.0237 0.5495C21.6737 -0.0505 21.0137 -0.0905 20.5037 0.1495C20.0137 0.4195 19.7037 0.9995 20.0737 1.6595L24.5237 9.4195H7.4937L11.9537 1.6595C12.3137 0.9995 12.0137 0.4195 11.5137 0.1495C11.0237 -0.1105 10.3637 -0.0705 9.9937 0.5495L4.7537 9.4195H2.0937C0.7937 9.4195 0.0037 10.2395 0.0037 11.5295ZM2.6237 11.5895H29.3837C29.6837 11.5895 29.8637 11.7695 29.8637 12.0695V12.9495C29.8637 13.2495 29.6837 13.4395 29.3837 13.4395H2.6237C2.3237 13.4395 2.1637 13.2495 2.1637 12.9495V12.0695C2.1637 11.7695 2.3237 11.5895 2.6237 11.5895ZM9.0737 27.1095C7.0837 27.1095 6.5337 26.3895 6.1637 24.6395L4.3037 15.5995H27.7137L25.8537 24.6395C25.4837 26.3895 24.9337 27.1095 22.9437 27.1095ZM17.9237 25.5395C18.4137 25.5795 18.7837 25.2795 18.8137 24.8195L19.2537 17.7495C19.2737 17.2795 18.9537 16.9495 18.4537 16.9095C17.9537 16.8695 17.6137 17.1895 17.5637 17.6495L17.1337 24.7295C17.1037 25.1795 17.4337 25.5095 17.9237 25.5395ZM14.1137 25.5395C14.6037 25.5095 14.9337 25.1795 14.9037 24.7295L14.4637 17.6495C14.4237 17.1895 14.0837 16.8695 13.5737 16.9095C13.0837 16.9495 12.7537 17.2795 12.7837 17.7495L13.2237 24.8195C13.2437 25.2795 13.6137 25.5795 14.1137 25.5395ZM21.8337 25.6195C22.3237 25.6995 22.7137 25.4395 22.7937 24.9895L23.9437 17.8395C24.0037 17.4095 23.7237 17.0495 23.2137 16.9495C22.7237 16.8895 22.3437 17.1295 22.2537 17.5795L21.1237 24.7295C21.0537 25.1695 21.3237 25.5395 21.8337 25.6195ZM10.1837 25.6195C10.6937 25.5395 10.9637 25.1695 10.8937 24.7295L9.7637 17.5795C9.6837 17.1295 9.2937 16.8895 8.8037 16.9495C8.3037 17.0495 8.0137 17.4095 8.0937 17.8395L9.2237 24.9895C9.3137 25.4395 9.6837 25.6995 10.1837 25.6195Z"
        fillRule="evenodd"
        clipRule="evenodd"
    />
</svg>
        