
<svg
    viewBox={0 0 32.01953125 29.29939616769758}
    xmlns="http://www.w3.org/2000/svg"
>
    <path
        fill="inherit"
        d="M0.0037 12.1995C0.0037 13.4995 0.7937 14.2895 2.0937 14.2895H29.9137C31.2137 14.2895 32.0237 13.4995 32.0237 12.1995V11.5295C32.0237 10.2395 31.2137 9.4195 29.9137 9.4195H27.2637L22.0237 0.5495C21.6737 -0.0505 21.0137 -0.0905 20.5037 0.1495C20.0137 0.4195 19.7037 0.9995 20.0737 1.6595L24.5437 9.4195H7.4737L11.9537 1.6595C12.3137 0.9995 12.0137 0.4195 11.5137 0.1495C11.0237 -0.1105 10.3637 -0.0705 9.9937 0.5495L4.7537 9.4195H2.0937C0.7937 9.4195 0.0037 10.2395 0.0037 11.5295ZM8.6937 29.2995H23.3237C26.4837 29.2995 27.4637 27.4495 27.8637 25.4695L29.7637 16.1595H2.2737L4.1537 25.4695C4.5537 27.4495 5.5337 29.2995 8.6937 29.2995ZM9.5837 26.9495C9.0637 27.0295 8.6837 26.7595 8.6037 26.2895L7.4237 19.4195C7.3437 18.9495 7.6437 18.5795 8.1637 18.4895C8.6837 18.4195 9.0737 18.6795 9.1637 19.1395L10.3237 26.0195C10.3937 26.4795 10.1137 26.8495 9.5837 26.9495ZM22.4337 26.9495C21.9037 26.8495 21.6337 26.4795 21.6937 26.0195L22.8637 19.1395C22.9437 18.6795 23.3337 18.4195 23.8537 18.4895C24.3737 18.5795 24.6737 18.9795 24.5937 19.4395L23.4237 26.2895C23.3337 26.7595 22.9437 27.0295 22.4337 26.9495ZM13.9137 26.9295C13.3937 26.9595 13.0137 26.6495 12.9837 26.1695L12.5337 19.3695C12.5137 18.8995 12.8537 18.5495 13.3537 18.5095C13.8937 18.4695 14.2437 18.7995 14.2837 19.2795L14.7337 26.0695C14.7637 26.5495 14.4237 26.9095 13.9137 26.9295ZM18.1337 26.9295C17.6137 26.9095 17.2637 26.5495 17.2937 26.0695L17.7437 19.2795C17.7837 18.7995 18.1437 18.4695 18.6737 18.5095C19.1837 18.5495 19.5237 18.8995 19.4937 19.3695L19.0437 26.1695C19.0137 26.6495 18.6337 26.9595 18.1337 26.9295Z"
        fillRule="evenodd"
        clipRule="evenodd"
    />
</svg>
        