<svg viewBox="0 0 27.890625 27.890625" xmlns="http://www.w3.org/2000/svg"><path d="M13.9427 27.8864C21.6427 27.8864 27.8927 21.6464 27.8927 13.9464C27.8927 6.2464 21.6427 -0.0036 13.9427 -0.0036C6.2527 -0.0036 0.0027 6.2464 0.0027 13.9464C0.0027 21.6464 6.2527 27.8864 13.9427 27.8864ZM13.9427 25.5664C7.5227 25.5664 2.3227 20.3664 2.3227 13.9464C2.3227 7.5164 7.5227 2.3264 13.9427 2.3264C20.3727 2.3264 25.5627 7.5164 25.5627 13.9464C25.5627 20.3664 20.3727 25.5664 13.9427 25.5664ZM11.1027 10.0764C11.4427 9.9164 11.8127 9.7764 12.1727 9.6364C12.1527 9.5164 12.1527 9.3664 12.1527 9.2164C12.1527 8.1464 12.6727 7.2364 13.5227 6.6264C12.9327 6.6464 11.9927 6.8364 11.2627 7.1264C11.1127 7.6964 10.9627 8.6864 11.1027 10.0764ZM13.0727 9.3964C13.9727 9.1464 14.9327 9.0364 15.9027 9.0364C17.2927 9.0364 18.6927 9.2864 19.9227 9.7664C18.8427 8.2264 17.1827 7.1064 15.2827 6.7364C13.8527 7.2364 12.9727 8.0764 13.0727 9.3964ZM9.6127 10.8864C9.8327 10.7464 10.0527 10.6064 10.2827 10.4864C10.1427 9.2664 10.1827 8.2764 10.3527 7.5764C9.6427 7.9864 8.9927 8.5064 8.4527 9.1164C9.0827 9.3564 9.4627 10.2164 9.6127 10.8864ZM6.6127 13.6164C7.2427 12.8064 7.9727 12.0964 8.7927 11.4664C8.7727 10.9464 8.4527 9.9564 7.9127 9.8064C7.1527 10.8964 6.6427 12.3864 6.6127 13.6164ZM13.2927 10.2364C14.4527 12.5764 19.3727 13.6564 20.6027 16.9664C21.0227 16.0364 21.2727 15.0264 21.2727 13.9464C21.2727 12.9364 21.0527 11.9664 20.6627 11.0764C19.1727 10.3064 17.6227 9.9264 15.9027 9.9264C15.0127 9.9264 14.1327 10.0364 13.2927 10.2364ZM11.2127 11.0064C11.6627 13.7264 13.0527 17.4764 15.9727 20.9864C17.5927 20.5064 18.9927 19.4864 19.9327 18.1164C19.6627 14.6664 13.7527 13.5764 12.4127 10.5164C12.0027 10.6364 11.6027 10.8164 11.2127 11.0064ZM9.6927 11.9064C9.7027 15.1464 8.2827 18.8164 11.2827 20.6564C12.0727 21.0364 12.9927 21.2764 13.9427 21.2764C14.3027 21.2764 14.6527 21.2564 15.0127 21.2064C12.2927 17.8264 10.9227 14.2464 10.4227 11.4464C10.1727 11.5764 9.9227 11.7464 9.6927 11.9064ZM6.7027 15.0564C6.9427 16.6264 7.7127 18.0464 8.8027 19.1264C8.1027 17.1464 8.6527 14.7264 8.7727 12.6364C7.9827 13.3464 7.2827 14.1364 6.7027 15.0564Z" /></svg>