
<svg
    viewBox="0 0 27.890625 27.890625"
    xmlns="http://www.w3.org/2000/svg"
>
    <path
        fill="inherit"
        d="M13.9427 27.8864C21.6427 27.8864 27.8927 21.6464 27.8927 13.9464C27.8927 6.2464 21.6427 -0.0036 13.9427 -0.0036C6.2527 -0.0036 0.0027 6.2464 0.0027 13.9464C0.0027 21.6464 6.2527 27.8864 13.9427 27.8864ZM17.4627 5.1164C15.6727 5.1164 13.9227 5.3364 12.2527 5.7664C12.2327 5.6464 12.2327 5.5064 12.2327 5.3864C12.2327 3.8664 12.9227 2.6964 14.1827 1.8564C17.6227 1.9264 20.7227 3.4464 22.9027 5.8264C21.1627 5.3564 19.3227 5.1164 17.4627 5.1164ZM10.7227 5.3864C10.7227 5.6564 10.7327 5.9364 10.7727 6.2064C10.0927 6.4364 9.4027 6.7164 8.7527 7.0164C8.5827 5.3364 8.6527 3.9364 8.8727 2.9664C9.8027 2.5464 10.7827 2.2264 11.8227 2.0364C11.1127 2.9964 10.7227 4.1264 10.7227 5.3864ZM4.9227 5.9064C5.6027 5.1364 6.3827 4.4564 7.2427 3.8864C7.1527 4.9664 7.1827 6.2664 7.3527 7.7064C6.9227 7.9564 6.4827 8.2164 6.0527 8.4864C5.8827 7.6264 5.4927 6.6164 4.9227 5.9064ZM17.4627 6.6264C19.9227 6.6264 22.2327 7.0564 24.4327 7.9264C25.4427 9.6964 26.0327 11.7564 26.0327 13.9464C26.0327 15.3964 25.7727 16.7864 25.3027 18.0764C22.3527 13.1264 14.5727 11.1464 12.6627 7.2164C14.1927 6.8264 15.8027 6.6264 17.4627 6.6264ZM4.6327 9.2864C4.6527 9.3564 4.6527 9.4064 4.6527 9.4764C3.7227 10.1864 2.8427 10.9764 2.0527 11.8264C2.3527 10.1064 3.0227 8.5064 3.9827 7.1264C4.3327 7.7064 4.5927 8.6664 4.6327 9.2864ZM8.9427 8.5764C9.6627 8.2164 10.4227 7.9164 11.1827 7.6564C13.3527 12.6964 22.4327 14.7764 24.5027 19.8364C22.8727 22.7364 20.0827 24.8964 16.7727 25.6864C11.9927 19.6364 9.6927 13.2664 8.9427 8.5764ZM13.9427 26.0264C11.0327 26.0264 8.3627 25.0064 6.2727 23.2864C4.7427 19.6464 6.2327 14.6864 6.1927 10.1964C6.6427 9.8864 7.1127 9.5864 7.5927 9.2964C8.4327 14.0664 10.6927 20.1764 15.0827 25.9764C14.7127 26.0164 14.3327 26.0264 13.9427 26.0264ZM1.8727 14.3564C2.7027 13.2864 3.6327 12.3064 4.6327 11.4264C4.4827 14.4764 3.8027 17.9064 4.1527 21.0264C2.7927 19.1364 1.9527 16.8464 1.8727 14.3564Z"
        fillRule="evenodd"
        clipRule="evenodd"
    />
</svg>
        