
<svg
    viewBox={0 0 36.203125 21.562204694506367}
    xmlns="http://www.w3.org/2000/svg"
>
    <path
        fill="inherit"
        d="M6.3937 21.4966C6.9637 21.7066 7.6037 21.3966 7.8037 20.8366L8.7137 18.3766C9.1737 18.4166 9.6837 18.4466 10.2137 18.4466H26.0037C26.5237 18.4466 27.0337 18.4166 27.4937 18.3766L28.3937 20.8366C28.6037 21.3966 29.2437 21.7066 29.8137 21.4966C30.3837 21.2966 30.6637 20.6466 30.4637 20.0866L29.6637 17.8866C32.4037 16.8866 33.8137 14.5866 33.8137 11.0366V5.5366C35.1937 5.3566 36.2037 4.2366 36.2037 2.7866C36.2037 1.1866 34.9837 -0.0034 33.4237 -0.0034H2.7737C1.2137 -0.0034 0.0037 1.1866 0.0037 2.7866C0.0037 4.2366 1.0237 5.3566 2.3937 5.5366V11.0366C2.3937 14.5866 3.8037 16.8866 6.5537 17.8866L5.7437 20.0866C5.5337 20.6466 5.8337 21.2966 6.3937 21.4966ZM2.1737 2.7866C2.1737 2.4066 2.4637 2.1366 2.8737 2.1366H33.3337C33.7437 2.1366 34.0337 2.4066 34.0337 2.7866C34.0337 3.1566 33.7437 3.4366 33.3337 3.4366H2.8737C2.4637 3.4366 2.1737 3.1566 2.1737 2.7866ZM10.2137 16.2466C6.5037 16.2466 4.5937 14.4666 4.5937 11.0366V5.5666H31.6137V11.0366C31.6137 14.4666 29.6937 16.2466 26.0037 16.2466Z"
        fillRule="evenodd"
        clipRule="evenodd"
    />
</svg>
        