
<svg
    viewBox={0 0 40.46875 18.510199652777775}
    xmlns="http://www.w3.org/2000/svg"
>
    <path
        fill="inherit"
        d="M12.3437 10.2894C12.3437 10.6294 12.6337 10.8794 12.9837 10.8794H17.6137L15.1437 17.5194C14.8237 18.3994 15.7637 18.8694 16.3237 18.1794L23.8137 8.7594C23.9537 8.5794 24.0537 8.3994 24.0537 8.2194C24.0537 7.8794 23.7637 7.6394 23.4237 7.6394H18.7837L21.2437 0.9894C21.5737 0.1194 20.6437 -0.3606 20.0837 0.3294L12.5737 9.7394C12.4437 9.9294 12.3437 10.1094 12.3437 10.2894ZM7.2837 18.4994H13.4437C13.1837 17.8094 13.2637 17.2494 13.6037 16.2994H6.9137C5.5137 16.2994 4.0337 16.1094 3.2037 15.2894C2.3837 14.4594 2.2037 12.9894 2.2037 11.5894V6.9494C2.2037 5.5194 2.3837 4.0494 3.2037 3.2194C4.0337 2.3894 5.5237 2.2094 6.9637 2.2094H16.2037L17.9637 0.0094H7.2637C4.9637 0.0094 2.9937 0.2294 1.6037 1.6194C0.2037 3.0094 0.0037 4.9694 0.0037 7.2494V11.2194C0.0037 13.5594 0.2037 15.4994 1.6037 16.8894C2.9937 18.2894 4.9637 18.4994 7.2837 18.4994ZM18.4537 18.4994H28.7837C31.1137 18.4994 33.0837 18.2894 34.4837 16.8894C35.8737 15.4994 36.0837 13.5594 36.0837 11.2194V7.2894C36.0837 4.9594 35.8737 3.0094 34.4837 1.6194C33.0837 0.2294 31.1137 0.0094 28.7837 0.0094H22.9837C23.2137 0.6594 23.1437 1.2194 22.8137 2.2094H29.1637C30.5737 2.2094 32.0437 2.3994 32.8637 3.2194C33.7037 4.0494 33.8837 5.4994 33.8837 6.9094V11.5894C33.8837 12.9894 33.7037 14.4594 32.8637 15.2894C32.0437 16.1094 30.5737 16.2994 29.1637 16.2994H20.2237ZM6.1937 14.7194H14.2037L14.9337 12.7494H13.0037C11.6237 12.7494 10.5037 11.6694 10.5037 10.2894C10.5037 9.6694 10.7337 9.0794 11.1137 8.6094L14.9437 3.7894H6.2337C5.2637 3.7894 4.7037 3.9294 4.3337 4.3094C3.9537 4.6994 3.8037 5.2594 3.8037 6.2094V12.3294C3.8037 13.2694 3.9537 13.8194 4.3337 14.1994C4.7137 14.5794 5.2637 14.7194 6.1937 14.7194ZM21.4737 14.7194H29.9037C30.8337 14.7194 31.3737 14.5794 31.7637 14.1994C32.1437 13.8194 32.2937 13.2694 32.2937 12.3294V6.1894C32.2937 5.2394 32.1437 4.6994 31.7637 4.3094C31.3737 3.9294 30.8337 3.7894 29.9037 3.7894H22.2137L21.4937 5.7594H23.4337C24.8037 5.7594 25.9237 6.8294 25.9237 8.2194C25.9237 8.8394 25.6937 9.4294 25.3037 9.9094ZM37.9437 12.7894C39.0237 12.7194 40.4737 11.3394 40.4737 9.2494C40.4737 7.1694 39.0237 5.7894 37.9437 5.7194Z"
        fillRule="evenodd"
        clipRule="evenodd"
    />
</svg>
        