
<svg
    viewBox={0 0 27.890625 27.890625}
    xmlns="http://www.w3.org/2000/svg"
>
    <path
        fill="inherit"
        d="M13.9427 27.8864C21.6427 27.8864 27.8927 21.6464 27.8927 13.9464C27.8927 6.2464 21.6427 -0.0036 13.9427 -0.0036C6.2527 -0.0036 0.0027 6.2464 0.0027 13.9464C0.0027 21.6464 6.2527 27.8864 13.9427 27.8864ZM13.9427 25.5664C7.5227 25.5664 2.3227 20.3664 2.3227 13.9464C2.3227 7.5164 7.5227 2.3264 13.9427 2.3264C20.3727 2.3264 25.5627 7.5164 25.5627 13.9464C25.5627 20.3664 20.3727 25.5664 13.9427 25.5664ZM8.9427 18.1964H18.1327C19.1527 18.1964 20.0927 18.1064 20.7527 17.4464C21.4227 16.7664 21.5327 15.8364 21.5327 14.8164V13.0664C21.5327 12.0564 21.4227 11.1164 20.7527 10.4464C20.0927 9.7864 19.1427 9.6764 18.1327 9.6764H8.9427C7.9327 9.6764 6.9727 9.7864 6.2927 10.4464C5.6327 11.1164 5.5327 12.0564 5.5327 13.0664V14.8164C5.5327 15.8364 5.6327 16.7664 6.2927 17.4464C6.9727 18.1064 7.9127 18.1964 8.9427 18.1964ZM8.7627 16.6764C8.0927 16.6764 7.6427 16.5564 7.4127 16.3264C7.1827 16.1064 7.0827 15.6564 7.0827 14.9864V12.8964C7.0827 12.2264 7.1827 11.7764 7.4127 11.5564C7.6427 11.3164 8.1027 11.1964 8.7627 11.1964H18.3027C18.9527 11.1964 19.4327 11.3164 19.6627 11.5664C19.8827 11.7864 20.0127 12.2464 20.0127 12.8964V14.9864C20.0127 15.6364 19.8827 16.1064 19.6627 16.3264C19.4327 16.5564 18.9627 16.6764 18.3027 16.6764ZM8.8327 15.8764H18.2527C18.6227 15.8764 18.8427 15.8364 18.9927 15.6864C19.1427 15.5264 19.2127 15.2964 19.2127 14.9464V12.9164C19.2127 12.5664 19.1427 12.3364 18.9927 12.1864C18.8427 12.0464 18.6227 11.9864 18.2527 11.9864H8.8327C8.4627 11.9864 8.2327 12.0464 8.0827 12.1864C7.9427 12.3364 7.8727 12.5464 7.8727 12.9164V14.9464C7.8727 15.3164 7.9427 15.5464 8.0827 15.6864C8.2327 15.8364 8.4627 15.8764 8.8327 15.8764ZM22.1327 15.5564C22.6127 15.5164 23.2827 14.8864 23.2827 13.9464C23.2827 13.0064 22.6127 12.3564 22.1327 12.3364Z"
        fillRule="evenodd"
        clipRule="evenodd"
    />
</svg>
        