
<svg
    viewBox="0 0 27.890625 27.890625"
    xmlns="http://www.w3.org/2000/svg"
>
    <path
        fill="inherit"
        d="M13.9427 27.8864C21.6427 27.8864 27.8927 21.6264 27.8927 13.9464C27.8927 6.2464 21.6427 -0.0036 13.9427 -0.0036C6.2627 -0.0036 0.0027 6.2464 0.0027 13.9464C0.0027 21.6264 6.2627 27.8864 13.9427 27.8864ZM8.7727 18.3364C7.7127 18.3364 6.7427 18.2364 6.0327 17.5564C5.3627 16.8564 5.2527 15.8864 5.2527 14.8464V13.0464C5.2527 12.0064 5.3627 11.0364 6.0327 10.3364C6.7427 9.6564 7.7227 9.5464 8.7727 9.5464H18.2527C19.2927 9.5464 20.2727 9.6564 20.9627 10.3364C21.6427 11.0364 21.7627 12.0064 21.7627 13.0464V14.8464C21.7627 15.8864 21.6427 16.8564 20.9627 17.5564C20.2727 18.2364 19.3027 18.3364 18.2527 18.3364ZM8.5827 16.7664H18.4327C19.1027 16.7664 19.5827 16.6364 19.8227 16.3964C20.0427 16.1764 20.1927 15.6964 20.1927 15.0164V12.8664C20.1927 12.1964 20.0427 11.7164 19.8227 11.4964C19.5827 11.2364 19.0827 11.1164 18.4327 11.1164H8.5827C7.9127 11.1164 7.4327 11.2364 7.1927 11.4864C6.9627 11.7064 6.8627 12.1664 6.8627 12.8664V15.0164C6.8627 15.7064 6.9627 16.1764 7.1927 16.3964C7.4327 16.6364 7.9027 16.7664 8.5827 16.7664ZM8.6527 15.9264C8.2827 15.9264 8.0427 15.8864 7.8927 15.7364C7.7527 15.5864 7.6827 15.3564 7.6827 14.9664V12.8964C7.6827 12.5064 7.7527 12.2864 7.8927 12.1264C8.0427 11.9864 8.2827 11.9364 8.6527 11.9364H18.3727C18.7627 11.9364 18.9727 11.9864 19.1227 12.1264C19.2927 12.2864 19.3627 12.5264 19.3627 12.8964V14.9664C19.3627 15.3364 19.2927 15.5764 19.1227 15.7364C18.9727 15.8864 18.7627 15.9264 18.3727 15.9264ZM22.3827 15.6164V12.2764C22.8727 12.3164 23.5727 12.9764 23.5727 13.9464C23.5727 14.9164 22.8727 15.5764 22.3827 15.6164Z"
        fillRule="evenodd"
        clipRule="evenodd"
    />
</svg>
        