
<svg
    viewBox="0 0 32.23828125 27.854757337405378"
    xmlns="http://www.w3.org/2000/svg"
>
    <path
        fill="inherit"
        d="M27.6137 27.5437C28.0237 27.9537 28.6937 27.9537 29.1037 27.5437C29.5037 27.1237 29.5137 26.4637 29.1037 26.0537L3.3537 0.3137C2.9437 -0.0963 2.2537 -0.1063 1.8437 0.3137C1.4337 0.7137 1.4337 1.3937 1.8437 1.8037ZM30.3337 25.0637C31.5937 24.4537 32.2337 23.2237 32.2337 21.3937V9.9337C32.2337 7.1237 30.8137 5.7037 27.9437 5.7037H26.4237V3.8837C26.4237 2.8237 25.8237 2.2137 24.7737 2.2137H22.0437C21.0037 2.2137 20.3937 2.8237 20.3937 3.8837V5.7037H11.8537V3.8837C11.8537 2.8237 11.2537 2.2137 10.2037 2.2137H7.5037L13.1937 7.9037H27.9137C29.2737 7.9037 30.0337 8.6237 30.0337 10.0437V21.2837C30.0337 22.3337 29.6237 23.0737 28.6137 23.2937ZM4.2937 25.6337H23.4437L21.2437 23.4337H4.3237C2.9537 23.4337 2.2037 22.7037 2.2037 21.2837V10.0437C2.2037 8.6237 2.9537 7.9037 4.3237 7.9037H5.6837L3.6137 5.8137H3.1037C1.0437 6.1637 0.0037 7.5337 0.0037 9.9337V21.3937C0.0037 24.2237 1.4337 25.6337 4.2937 25.6337Z"
        fillRule="evenodd"
        clipRule="evenodd"
    />
</svg>
        