
<svg
    viewBox={0 0 32.23828125 23.43359375}
    xmlns="http://www.w3.org/2000/svg"
>
    <path
        fill="inherit"
        d="M4.2937 23.4342H27.9437C30.8137 23.4342 32.2337 22.0142 32.2337 19.1942V7.7242C32.2337 4.9242 30.8137 3.5042 27.9437 3.5042H26.4237V1.6642C26.4237 0.6242 25.8237 0.0042 24.7737 0.0042H22.0437C21.0037 0.0042 20.3937 0.6242 20.3937 1.6642V3.5042H11.8537V1.6642C11.8537 0.6242 11.2537 0.0042 10.2037 0.0042H7.4637C6.4137 0.0042 5.8137 0.6242 5.8137 1.6642V3.5042H4.2937C1.4337 3.5042 0.0037 4.9042 0.0037 7.7242V19.1942C0.0037 22.0242 1.4337 23.4342 4.2937 23.4342Z"
        fillRule="evenodd"
        clipRule="evenodd"
    />
</svg>
        