
<svg
    viewBox="0 0 27.5961067630883 32.37706578595713"
    xmlns="http://www.w3.org/2000/svg"
>
    <path
        fill="inherit"
        d="M0.0955 11.0589C-0.1845 11.8289 0.1855 12.4789 0.7655 12.6789C1.1955 12.8489 1.6255 12.6389 1.9755 12.3489C3.2255 11.4389 4.4155 11.0289 5.8355 11.5489C7.2555 12.0489 7.8255 13.1089 8.0755 14.5689C8.1455 15.0489 8.3055 15.4289 8.7155 15.5789C9.1555 15.7489 9.5255 15.5489 9.8955 15.2389C10.7155 14.5389 11.8255 14.1889 12.8755 14.2389L6.8155 30.8389C6.5955 31.4289 6.9155 32.0989 7.5155 32.3189C8.0855 32.5189 8.7755 32.2089 8.9955 31.6189L15.0355 15.0189C15.8655 15.6589 16.4755 16.6489 16.6455 17.7089C16.7455 18.1589 16.8955 18.5589 17.3155 18.7089C17.7455 18.8589 18.1155 18.6589 18.4855 18.3589C19.6155 17.3989 20.7055 16.9589 22.1355 17.4689C23.5555 17.9989 24.2055 19.0689 24.5655 20.5989C24.6755 21.0389 24.8555 21.4589 25.2855 21.6089C25.8655 21.8189 26.5855 21.5689 26.8455 20.7889C28.7055 15.6889 27.4355 7.1889 19.2055 3.5489L19.9155 1.6189C20.1455 0.9389 19.8855 0.3189 19.2355 0.0789C18.6055 -0.1611 17.9855 0.1589 17.7455 0.8289L17.0455 2.7689C8.4055 0.2489 1.9555 5.9289 0.0955 11.0589ZM3.2955 9.4689C5.6155 5.8989 9.9955 3.6489 14.8855 4.4789C12.6855 5.9289 10.5655 8.4689 9.1855 11.7489C8.6355 10.6989 7.7455 9.9789 6.5755 9.5689C5.4655 9.1689 4.3855 9.1289 3.2955 9.4689ZM10.8355 12.4389C12.3955 8.7289 15.0255 6.0689 17.4055 5.1089C18.6355 7.3789 18.9355 11.0989 17.7455 14.9689C17.0855 13.8289 15.9755 12.9089 14.7355 12.4489C13.4955 11.9989 12.0555 11.9989 10.8355 12.4389ZM19.4355 15.4889C20.5055 12.0789 20.5155 8.7889 19.7655 6.2589C24.0355 8.7689 25.9355 13.3089 25.4155 17.5189C24.7955 16.5689 23.9355 15.8989 22.8555 15.4889C21.6755 15.0589 20.5355 15.0289 19.4355 15.4889Z"
        fillRule="evenodd"
        clipRule="evenodd"
    />
</svg>
        