
<svg
    viewBox="0 0 27.606806910760913 32.3772752062711"
    xmlns="http://www.w3.org/2000/svg"
>
    <path
        fill="inherit"
        d="M6.8376 30.8368C6.6176 31.4368 6.9176 32.0968 7.5176 32.3168C8.1076 32.5168 8.7976 32.1968 8.9976 31.6168L15.0376 15.0668C15.5076 15.4568 15.8976 16.0068 16.2476 16.6368C16.5176 17.1268 16.9676 17.1368 17.1976 16.7068C19.0776 12.9468 19.6376 8.2568 18.9876 4.1668L19.9176 1.6268C20.1676 0.9568 19.8976 0.3268 19.2476 0.0768C18.6076 -0.1532 18.0076 0.1468 17.7576 0.8268L16.8976 3.1968C13.6976 5.8968 11.0476 9.9068 10.0376 14.0868C9.9276 14.5568 10.2876 14.8668 10.8276 14.6668C11.5376 14.3768 12.2276 14.2168 12.8776 14.2268ZM15.7676 2.4568C7.7676 0.8168 1.8476 6.1868 0.0976 11.0568C-0.1924 11.8168 0.1976 12.4668 0.7576 12.6868C1.2076 12.8468 1.5976 12.6568 1.9576 12.3668C3.2276 11.4268 4.4176 11.0268 5.8276 11.5468C6.7676 11.8868 7.3176 12.5368 7.6476 13.1768C7.8476 13.5668 8.2476 13.5868 8.3576 13.1468C9.5176 8.5968 12.3076 4.7768 15.7676 2.4568ZM20.3776 4.1268C21.5176 8.1168 21.1976 12.8168 19.1876 17.0968C18.9876 17.4968 19.2776 17.7568 19.7076 17.5668C20.3876 17.2768 21.2076 17.1368 22.1376 17.4868C23.5576 17.9968 24.2176 19.0768 24.5876 20.5968C24.6676 21.0468 24.8676 21.4568 25.2976 21.6068C25.8676 21.8168 26.5776 21.5668 26.8576 20.7868C28.6276 15.9368 27.5676 8.0168 20.3776 4.1268Z"
        fillRule="evenodd"
        clipRule="evenodd"
    />
</svg>
        