<svg viewBox="0 0 18.716796875 26.427734375" xmlns="http://www.w3.org/2000/svg"><path d="M12.1937 0.0018C5.5137 0.0018 0.0037 7.6818 0.0037 17.1018C0.0037 21.5318 1.1937 26.4318 2.6237 26.4318C3.7337 26.4318 4.6437 24.9518 4.7537 23.4618C2.5537 22.8218 0.9337 20.7818 0.9337 18.3918C0.9337 16.9518 1.4937 15.6718 2.5137 14.6518C3.0037 8.1618 7.2037 2.4618 12.0437 2.4618C14.9437 2.4618 16.2737 4.6218 16.2737 8.6318L4.7137 14.6518C3.0337 15.5418 2.2537 16.9118 2.2537 18.3918C2.2537 20.5518 4.0337 22.3418 6.1937 22.3418C7.2637 22.3418 7.9537 22.0618 9.4637 21.2618L15.2737 18.0618C17.8137 16.6618 18.7137 14.9718 18.7137 11.3918V8.2018C18.7137 3.1718 16.5037 0.0018 12.1937 0.0018ZM6.0937 20.8618C4.7137 20.8618 3.6137 19.7418 3.6137 18.3718C3.6137 17.0118 4.7137 15.8818 6.0937 15.8818C7.4637 15.8818 8.5837 17.0118 8.5837 18.3718C8.5837 19.7418 7.4637 20.8618 6.0937 20.8618ZM6.0937 19.8918C6.9337 19.8918 7.6137 19.2118 7.6137 18.3718C7.6137 17.5518 6.9337 16.8618 6.0937 16.8618C5.2537 16.8618 4.5837 17.5518 4.5837 18.3718C4.5837 19.2118 5.2537 19.8918 6.0937 19.8918Z" /></svg>