<svg viewBox="0 0 27.302734375 27.15234375" xmlns="http://www.w3.org/2000/svg"><path d="M8.3837 27.1573H18.8837C24.4137 27.1573 27.3037 24.2773 27.3037 18.7673V8.3773C27.3037 2.8673 24.4137 -0.0027 18.8837 -0.0027H8.3837C2.8737 -0.0027 0.0037 2.8673 0.0037 8.3773V18.7673C0.0037 24.2773 2.8737 27.1573 8.3837 27.1573ZM13.6437 20.2473C9.9637 20.2473 6.9837 17.2773 6.9837 13.5773C6.9837 11.0973 8.3237 8.9173 10.4437 7.7273V13.5773C10.4437 15.3573 11.8537 16.7473 13.6437 16.7473C15.4037 16.7473 16.8537 15.3273 16.8537 13.5773C16.8537 11.8273 15.3837 10.3373 13.6437 10.3373C13.0337 10.3373 12.4037 10.5373 11.8837 10.9273V7.1473C12.4037 6.9873 13.0037 6.9273 13.6437 6.9273C17.2637 6.9273 20.3137 9.8973 20.3137 13.5773C20.3137 17.2173 17.3337 20.2473 13.6437 20.2473ZM13.6437 15.3373C12.7037 15.3373 11.9037 14.5473 11.9037 13.5773C11.9037 12.6373 12.7237 11.8373 13.6437 11.8373C14.5637 11.8373 15.3937 12.6773 15.3937 13.5773C15.3937 14.5073 14.5837 15.3373 13.6437 15.3373Z" /></svg>