
<svg
    viewBox={0 0 23.554768620727685 21.91815326718895}
    xmlns="http://www.w3.org/2000/svg"
>
    <path
        fill="inherit"
        d="M10.0537 13.5783C11.9637 14.3983 14.1737 13.4583 15.0137 11.5683L17.7737 5.2783C18.6037 3.3783 17.6937 1.1383 15.7737 0.2983C13.8537 -0.5217 11.6337 0.3883 10.7837 2.3283L8.0437 8.6183C7.1937 10.5283 8.1237 12.7483 10.0537 13.5783ZM23.2537 9.5583C22.5437 7.2083 20.7937 6.0883 19.3037 4.8283C19.2237 5.1683 19.1237 5.4883 18.9737 5.8083L16.2137 12.0983C15.0837 14.6883 12.1037 15.8783 9.5137 14.7983C6.9837 13.6883 5.7737 10.8483 6.7437 8.3283C5.4837 9.8283 5.1937 12.1283 6.1437 14.7283C7.8437 19.5283 12.2237 20.4283 16.5137 18.7483L19.1037 17.7183C22.6137 16.3383 24.2837 13.0883 23.2537 9.5583ZM11.4337 12.4583C10.1137 12.4583 9.0937 11.4183 9.0937 10.1083C9.0937 8.8083 10.1337 7.7583 11.4337 7.7583C12.7537 7.7583 13.7937 8.8083 13.7937 10.1083C13.7937 11.4183 12.7537 12.4583 11.4337 12.4583ZM11.4337 11.4883C12.2337 11.4883 12.8137 10.8683 12.8137 10.1083C12.8137 9.3583 12.2337 8.7283 11.4337 8.7283C10.6537 8.7283 10.0637 9.3583 10.0637 10.1083C10.0637 10.8683 10.6537 11.4883 11.4337 11.4883ZM4.8937 15.1783C4.2537 13.4283 4.1037 11.7083 4.4737 10.0083C1.9037 10.7083 0.0037 13.0583 0.0037 15.8583C0.0037 19.2083 2.7037 21.9183 6.0337 21.9183C7.5437 21.9183 8.9437 21.3683 9.9937 20.4283C7.6837 19.6783 5.8637 17.8883 4.8937 15.1783Z"
        fillRule="evenodd"
        clipRule="evenodd"
    />
</svg>
        