
<svg
    viewBox="0 0 42.560546875 19.017578125"
    xmlns="http://www.w3.org/2000/svg"
>
    <path
        fill="inherit"
        d="M19.2227 19.0167H23.3227C29.6127 19.0167 33.2527 18.9467 36.3627 17.9067C40.3327 16.5667 42.5627 13.5767 42.5627 9.5167C42.5627 5.4567 40.3327 2.4567 36.3627 1.1067C33.2527 0.0667 29.6127 -0.0033 23.3227 -0.0033H19.2227C12.9427 -0.0033 9.2927 0.0667 6.1827 1.1067C2.2127 2.4567 0.0027 5.4567 0.0027 9.5167C0.0027 13.5767 2.2127 16.5667 6.1827 17.9067C9.2927 18.9467 12.9427 19.0167 19.2227 19.0167ZM19.2227 16.8167C12.9727 16.8167 9.6627 16.7467 6.8927 15.8367C3.8927 14.8167 2.2027 12.5467 2.2027 9.5167C2.2027 6.4767 3.8927 4.2067 6.8927 3.1967C9.6627 2.2867 12.9727 2.1967 19.2227 2.1967H23.3227C29.5827 2.1967 32.8927 2.2867 35.6527 3.1967C38.6527 4.2267 40.3427 6.4967 40.3427 9.5167C40.3427 12.5367 38.6527 14.8067 35.6527 15.8367C32.8927 16.7467 29.5827 16.8167 23.3227 16.8167ZM21.2727 12.8367C22.8227 12.8367 24.0727 11.5967 24.0727 10.1067C24.0727 8.5267 22.8027 7.2567 21.2727 7.2567C20.7227 7.2567 20.2227 7.4067 19.7527 7.7567V5.5367L18.5027 6.0867V10.1067C18.5027 11.6167 19.7127 12.8367 21.2727 12.8367ZM21.2727 11.5967C20.4527 11.5967 19.7527 10.8967 19.7527 10.1067C19.7527 9.2567 20.4627 8.5767 21.2727 8.5767C22.1027 8.5767 22.8027 9.2667 22.8027 10.1067C22.8027 10.8967 22.1027 11.5967 21.2727 11.5967Z"
        fillRule="evenodd"
        clipRule="evenodd"
    />
</svg>
        