
<svg
    viewBox={0 0 35 25.169921875}
    xmlns="http://www.w3.org/2000/svg"
>
    <path
        fill="inherit"
        d="M1.7927 5.9292H33.2127C32.1027 4.0992 30.4627 2.5592 28.2727 1.5192C26.1127 0.4492 23.3427 -0.0008 19.4927 -0.0008H15.5027C11.6627 -0.0008 8.8827 0.4492 6.7227 1.5192C4.5427 2.5592 2.9027 4.0992 1.7927 5.9292ZM15.5027 25.1692H19.4927C23.3427 25.1692 26.1127 24.7092 28.2727 23.6492C32.8127 21.4692 35.0027 17.1892 35.0027 12.5792C35.0027 10.7292 34.6427 8.9392 33.9327 7.3192H1.0627C0.3527 8.9392 0.0027 10.7292 0.0027 12.5792C0.0027 17.1892 2.1827 21.4692 6.7227 23.6492C8.8827 24.7092 11.6627 25.1692 15.5027 25.1692ZM17.5127 17.5992C15.8827 17.5992 14.6527 16.3692 14.6527 14.7892V10.6592L15.9427 10.0992V12.3892C16.4327 12.0292 16.9427 11.8792 17.5127 11.8792C19.0627 11.8792 20.3827 13.1892 20.3827 14.7892C20.3827 16.3192 19.1027 17.5992 17.5127 17.5992ZM17.5127 16.3192C18.3627 16.3192 19.0627 15.6092 19.0627 14.7892C19.0627 13.9492 18.3627 13.2192 17.5127 13.2192C16.6627 13.2192 15.9427 13.9292 15.9427 14.7892C15.9427 15.6092 16.6527 16.3192 17.5127 16.3192Z"
        fillRule="evenodd"
        clipRule="evenodd"
    />
</svg>
        