
<svg
    viewBox="0 0 27.302734375 27.15234375"
    xmlns="http://www.w3.org/2000/svg"
>
    <path
        fill="inherit"
        d="M8.3837 27.1573H18.8837C24.4137 27.1573 27.3037 24.2773 27.3037 18.7673V8.3773C27.3037 2.8673 24.4137 -0.0027 18.8837 -0.0027H8.3837C2.8737 -0.0027 0.0037 2.8673 0.0037 8.3773V18.7673C0.0037 24.2773 2.8737 27.1573 8.3837 27.1573ZM8.0837 24.9473C4.2137 24.9473 2.2037 22.9273 2.2037 19.0673V8.0773C2.2037 4.2073 4.2137 2.1973 8.0837 2.1973H19.2637C23.0937 2.1973 25.1037 4.1973 25.1037 7.9973V19.1573C25.1037 22.9573 23.0937 24.9473 19.2637 24.9473ZM13.6437 20.0473C17.2237 20.0473 20.1137 17.1073 20.1137 13.5773C20.1137 10.0073 17.1537 7.1373 13.6437 7.1373C13.0137 7.1373 12.4437 7.1873 11.9337 7.3373V11.0073C12.4437 10.6373 13.0437 10.4273 13.6437 10.4273C15.3237 10.4273 16.7637 11.8773 16.7637 13.5773C16.7637 15.2673 15.3537 16.6573 13.6437 16.6573C11.9037 16.6573 10.5437 15.2973 10.5437 13.5773V7.9073C8.4937 9.0473 7.1937 11.1873 7.1937 13.5773C7.1937 17.1673 10.0737 20.0473 13.6437 20.0473ZM13.6437 15.2873C14.5637 15.2873 15.3437 14.4773 15.3437 13.5773C15.3437 12.6973 14.5337 11.8973 13.6437 11.8973C12.7537 11.8973 11.9637 12.6573 11.9637 13.5773C11.9637 14.5173 12.7237 15.2873 13.6437 15.2873Z"
        fillRule="evenodd"
        clipRule="evenodd"
    />
</svg>
        