
<svg
    viewBox="0 0 22.43846101839619 24.212890625"
    xmlns="http://www.w3.org/2000/svg"
>
    <path
        fill="inherit"
        d="M17.4437 17.6344C19.2337 17.6344 21.1737 16.5744 21.6037 14.2744L22.3237 10.3544C23.0737 6.2644 19.9837 3.2144 15.0137 1.4944C12.0537 0.4644 9.1737 0.0044 6.2637 0.0044C5.3837 0.0044 5.0837 0.3144 5.0837 0.8844C5.0837 2.2944 5.8237 3.3544 7.2337 3.5544C9.5437 3.9144 11.2937 4.3744 13.1437 5.2544C13.8737 5.5944 14.1637 6.0944 14.0237 6.8544L13.1437 12.2244C12.6337 15.2744 14.6837 17.6344 17.4437 17.6344ZM17.4437 18.9644C13.7837 18.9644 11.1937 15.7744 11.8437 12.0044L12.3737 8.7744C9.4437 9.5244 7.3237 10.7744 6.4437 12.6744C7.2237 16.1444 8.4737 19.3544 10.2437 22.4344C11.1037 22.8744 12.0037 23.0344 13.2237 23.0344C17.8937 23.0344 22.0137 20.7644 22.3037 16.2144C21.3437 17.8944 19.5337 18.9644 17.4437 18.9644ZM17.4437 15.5444C16.1737 15.5444 15.1637 14.5344 15.1637 13.2644C15.1637 11.9944 16.1737 10.9744 17.4437 10.9744C18.7137 10.9744 19.7237 11.9744 19.7237 13.2644C19.7237 14.5444 18.7137 15.5444 17.4437 15.5444ZM17.4437 14.5744C18.1837 14.5744 18.7537 14.0044 18.7537 13.2644C18.7537 12.5344 18.1837 11.9444 17.4437 11.9444C16.7037 11.9444 16.1337 12.5344 16.1337 13.2644C16.1337 14.0044 16.7037 14.5744 17.4437 14.5744ZM0.0037 18.3844C0.0037 21.8744 2.3137 24.2144 5.7837 24.2144C7.1637 24.2144 8.4237 23.7644 9.1737 23.2244C7.2837 19.9844 5.9437 16.5144 5.1037 12.8244C2.5137 13.0844 0.0037 15.2044 0.0037 18.3844Z"
        fillRule="evenodd"
        clipRule="evenodd"
    />
</svg>
        