
<svg
    viewBox={0 0 35 24.6640625}
    xmlns="http://www.w3.org/2000/svg"
>
    <path
        fill="inherit"
        d="M0.0027 12.0734C0.0027 16.6834 2.1827 20.9634 6.7227 23.1434C8.8827 24.2034 11.6627 24.6634 15.5027 24.6634H19.4927C23.3427 24.6634 26.1127 24.2034 28.2727 23.1434C32.8127 20.9634 35.0027 16.6834 35.0027 12.0734C35.0027 7.9534 32.7827 3.6934 28.2727 1.5134C26.1127 0.4634 23.3427 0.0034 19.4927 0.0034H15.5027C11.6627 0.0034 8.8827 0.4634 6.7227 1.5134C2.2027 3.6934 0.0027 7.9534 0.0027 12.0734ZM9.8827 2.7334C11.3727 2.3834 13.2027 2.2034 15.5027 2.2034H19.4927C23.0827 2.2034 25.5027 2.6134 27.3127 3.5034C28.4827 4.0634 29.4727 4.8134 30.2927 5.7034H4.6927C6.0027 4.2834 7.7827 3.2234 9.8827 2.7334ZM2.2027 12.0734C2.2027 10.2534 2.7027 8.5434 3.6327 7.0834H31.3627C32.2827 8.5434 32.8027 10.2634 32.8027 12.0734C32.8027 17.7434 29.0127 21.8034 22.8427 22.3034C21.8427 22.4034 20.7427 22.4634 19.4927 22.4634H15.5027C11.9227 22.4634 9.5027 22.0534 7.6827 21.1634C4.1927 19.4834 2.2027 16.1834 2.2027 12.0734ZM17.5127 16.8434C19.0427 16.8434 20.3027 15.6034 20.3027 14.1234C20.3027 12.5634 19.0127 11.2934 17.5127 11.2934C16.9527 11.2934 16.4627 11.4434 15.9927 11.7834V9.5734L14.7427 10.1134V14.1234C14.7427 15.6434 15.9427 16.8434 17.5127 16.8434ZM17.5127 15.6034C16.6827 15.6034 15.9927 14.9134 15.9927 14.1234C15.9927 13.2934 16.6927 12.5934 17.5127 12.5934C18.3327 12.5934 19.0127 13.3034 19.0127 14.1234C19.0127 14.9134 18.3327 15.6034 17.5127 15.6034Z"
        fillRule="evenodd"
        clipRule="evenodd"
    />
</svg>
        