
<svg
    viewBox="0 0 18.716796875 26.427734375"
    xmlns="http://www.w3.org/2000/svg"
>
    <path
        fill="inherit"
        d="M6.5237 0.0018C2.2137 0.0018 0.0037 3.1718 0.0037 8.2018V11.3918C0.0037 14.9718 0.9037 16.6618 3.4437 18.0618L9.2537 21.2618C10.7637 22.0618 11.4537 22.3418 12.5137 22.3418C14.6837 22.3418 16.4637 20.5518 16.4637 18.3918C16.4637 16.9118 15.6837 15.5418 14.0037 14.6518L2.4437 8.6318C2.4437 4.6218 3.7637 2.4618 6.6537 2.4618C11.5137 2.4618 15.7137 8.1618 16.2037 14.6518C17.2237 15.6718 17.7837 16.9518 17.7837 18.3918C17.7837 20.7818 16.1437 22.8218 13.9637 23.4618C14.0637 24.9518 14.9837 26.4318 16.0937 26.4318C17.5237 26.4318 18.7137 21.5318 18.7137 17.1018C18.7137 7.6818 13.2037 0.0018 6.5237 0.0018ZM12.6037 20.8618C11.2537 20.8618 10.1337 19.7418 10.1337 18.3718C10.1337 17.0118 11.2537 15.8818 12.6037 15.8818C13.9837 15.8818 15.1037 17.0118 15.1037 18.3718C15.1037 19.7418 13.9837 20.8618 12.6037 20.8618ZM12.6037 19.8918C13.4537 19.8918 14.1337 19.2118 14.1337 18.3718C14.1337 17.5518 13.4537 16.8618 12.6037 16.8618C11.7837 16.8618 11.1037 17.5518 11.1037 18.3718C11.1037 19.2118 11.7837 19.8918 12.6037 19.8918Z"
        fillRule="evenodd"
        clipRule="evenodd"
    />
</svg>
        