<svg viewBox="0 0 42.423828125 22.77734375" xmlns="http://www.w3.org/2000/svg"><path d="M0.0727 10.1898H10.2027C10.4427 9.6298 11.0027 9.2698 11.6727 9.2698H30.7527C31.4327 9.2698 31.9827 9.6298 32.2427 10.1898H42.3727C41.6827 3.4998 36.7927 -0.0002 28.0727 -0.0002H14.3527C5.6627 -0.0002 0.7527 3.4998 0.0727 10.1898ZM28.0727 22.7798C37.3127 22.7798 42.3127 18.8698 42.4227 11.5698H32.2427C31.9827 12.1298 31.4327 12.4798 30.7527 12.4798H11.6727C11.0027 12.4798 10.4427 12.1298 10.2027 11.5698H0.0027C0.0927 18.6098 5.4427 22.7798 14.3527 22.7798ZM21.2227 16.9698C20.4627 16.9798 19.8527 16.3498 19.8527 15.6098C19.8527 14.8598 20.4627 14.2498 21.2227 14.2498C21.9727 14.2498 22.5827 14.8598 22.5827 15.6098C22.5827 16.3198 21.9727 16.9498 21.2227 16.9698Z" /></svg>