
<svg
    viewBox={0 0 16.98046875 28.46484375}
    xmlns="http://www.w3.org/2000/svg"
>
    <path
        fill="inherit"
        d="M1.8137 28.4635H3.0737V23.7435C3.7437 23.3135 4.2337 22.3035 4.3237 21.2735C2.3237 20.6835 0.8437 18.8435 0.8437 16.6835C0.8437 15.3635 1.3537 14.2035 2.2737 13.2735C2.7237 7.3935 6.5337 2.2135 10.9237 2.2135C13.5537 2.2135 14.7537 4.1835 14.7537 7.8235L4.2837 13.2935C2.7437 14.0835 2.0537 15.3435 2.0537 16.6835C2.0537 18.6335 3.6637 20.2435 5.6237 20.2435C6.5737 20.2435 7.2237 20.0035 8.5737 19.2735L13.8637 16.3835C16.1637 15.1035 16.9837 13.5635 16.9837 10.3235V7.4335C16.9837 2.8835 14.9737 0.0035 11.0437 0.0035C4.9937 0.0035 0.0037 6.9635 0.0037 15.5035C0.0037 18.9235 0.7837 22.6635 1.8137 23.6935ZM5.5337 18.9235C4.2837 18.9235 3.2637 17.8935 3.2637 16.6635C3.2637 15.4235 4.2837 14.4135 5.5337 14.4135C6.7637 14.4135 7.7837 15.4235 7.7837 16.6635C7.7837 17.8935 6.7637 18.9235 5.5337 18.9235ZM5.5337 18.0435C6.2737 18.0435 6.9037 17.4135 6.9037 16.6635C6.9037 15.9135 6.2737 15.2835 5.5337 15.2835C4.7737 15.2835 4.1537 15.9135 4.1537 16.6635C4.1537 17.4135 4.7737 18.0435 5.5337 18.0435Z"
        fillRule="evenodd"
        clipRule="evenodd"
    />
</svg>
        