
<svg
    viewBox={0 0 43.134765625 22.203125}
    xmlns="http://www.w3.org/2000/svg"
>
    <path
        fill="inherit"
        d="M15.9973 16.1727C17.6373 16.1727 19.4173 15.1927 19.8073 13.0927L20.4673 9.4927C21.1673 5.7427 18.3373 2.9427 13.7573 1.3627C11.0573 0.4227 8.4073 0.0027 5.7373 0.0027C4.9373 0.0027 4.6573 0.2827 4.6573 0.8227C4.6573 2.1027 5.3273 3.0727 6.6273 3.2627C8.7473 3.5827 10.3473 4.0227 12.0473 4.8127C12.7273 5.1227 12.9773 5.5927 12.8673 6.2727L12.0473 11.2127C11.5773 14.0027 13.4673 16.1727 15.9973 16.1727ZM27.1373 16.1727C29.6673 16.1727 31.5373 14.0027 31.0873 11.2127L30.2673 6.2727C30.1473 5.5927 30.4073 5.1227 31.0773 4.8127C32.7873 4.0227 34.3873 3.5827 36.5073 3.2627C37.8073 3.0727 38.4573 2.1027 38.4573 0.8227C38.4573 0.2827 38.1973 0.0027 37.3973 0.0027C34.7273 0.0027 32.0773 0.4227 29.3673 1.3627C24.7973 2.9427 21.9673 5.7427 22.6673 9.4927L23.3273 13.0927C23.7073 15.1927 25.4973 16.1727 27.1373 16.1727ZM15.9973 17.3727C12.6373 17.3727 10.2673 14.4627 10.8573 11.0027L11.3473 8.0527C8.6673 8.7327 6.7273 9.8827 5.8973 11.6227C6.6173 14.8027 7.7673 17.7427 9.3773 20.5727C10.1673 20.9727 11.0073 21.1127 12.1273 21.1127C16.4073 21.1127 20.1773 19.0327 20.4373 14.8627C19.5673 16.4227 17.9073 17.3727 15.9973 17.3727ZM27.1373 17.3727C25.2073 17.3727 23.5573 16.4227 22.6973 14.8627C22.9573 19.0327 26.7273 21.1127 31.0073 21.1127C32.1273 21.1127 32.9673 20.9727 33.7373 20.5727C35.3673 17.7427 36.5073 14.8027 37.2273 11.6227C36.4073 9.8827 34.4673 8.7327 31.7873 8.0527L32.2773 11.0027C32.8673 14.4627 30.4873 17.3727 27.1373 17.3727ZM15.9973 14.2427C14.8173 14.2427 13.9073 13.3327 13.9073 12.1727C13.9073 10.9927 14.8173 10.0627 15.9973 10.0627C17.1573 10.0627 18.0873 10.9927 18.0873 12.1727C18.0873 13.3427 17.1573 14.2427 15.9973 14.2427ZM27.1373 14.2427C25.9673 14.2427 25.0473 13.3427 25.0473 12.1727C25.0473 10.9927 25.9673 10.0627 27.1373 10.0627C28.2973 10.0627 29.2273 10.9927 29.2273 12.1727C29.2273 13.3327 28.2973 14.2427 27.1373 14.2427ZM15.9973 13.3527C16.6773 13.3527 17.1973 12.8427 17.1973 12.1727C17.1973 11.4827 16.6773 10.9527 15.9973 10.9527C15.3173 10.9527 14.7973 11.4827 14.7973 12.1727C14.7973 12.8427 15.3173 13.3527 15.9973 13.3527ZM27.1373 13.3527C27.8173 13.3527 28.3373 12.8427 28.3373 12.1727C28.3373 11.4827 27.8173 10.9527 27.1373 10.9527C26.4573 10.9527 25.9373 11.4827 25.9373 12.1727C25.9373 12.8427 26.4573 13.3527 27.1373 13.3527ZM-0.0027 16.8727C-0.0027 20.0527 2.1173 22.2027 5.3073 22.2027C6.5773 22.2027 7.7073 21.7827 8.4073 21.2827C6.6673 18.3227 5.4373 15.1527 4.6773 11.7627C2.3073 11.9927 -0.0027 13.9327 -0.0027 16.8727ZM43.1373 16.8727C43.1373 13.9327 40.8273 11.9927 38.4573 11.7627C37.6773 15.1527 36.4673 18.3227 34.7173 21.2827C35.4073 21.7827 36.5573 22.2027 37.8273 22.2027C41.0173 22.2027 43.1373 20.0527 43.1373 16.8727Z"
        fillRule="evenodd"
        clipRule="evenodd"
    />
</svg>
        