
<svg
    viewBox="0 0 42.560546875 19.017578125"
    xmlns="http://www.w3.org/2000/svg"
>
    <path
        fill="inherit"
        d="M19.2227 19.0167H23.3227C29.6127 19.0167 33.2527 18.9467 36.3627 17.9067C40.3327 16.5667 42.5627 13.5767 42.5627 9.5167C42.5627 5.4567 40.3327 2.4567 36.3627 1.1067C33.2527 0.0667 29.6127 -0.0033 23.3227 -0.0033H19.2227C12.9427 -0.0033 9.2927 0.0667 6.1827 1.1067C2.2127 2.4567 0.0027 5.4567 0.0027 9.5167C0.0027 13.5767 2.2127 16.5667 6.1827 17.9067C9.2927 18.9467 12.9427 19.0167 19.2227 19.0167ZM21.2727 12.9467C19.6627 12.9467 18.4127 11.7067 18.4127 10.1267V5.9867L19.7027 5.4267V7.7067C20.1927 7.3567 20.7127 7.2067 21.2727 7.2067C22.8627 7.2067 24.1627 8.5067 24.1627 10.1267C24.1627 11.6767 22.8727 12.9467 21.2727 12.9467ZM21.2727 11.6767C22.1327 11.6767 22.8627 10.9467 22.8627 10.1267C22.8627 9.2667 22.1327 8.5567 21.2727 8.5567C20.4427 8.5567 19.7027 9.2567 19.7027 10.1267C19.7027 10.9467 20.4227 11.6767 21.2727 11.6767Z"
        fillRule="evenodd"
        clipRule="evenodd"
    />
</svg>
        