
<svg
    viewBox="0 0 18.803186276658007 27.7265625"
    xmlns="http://www.w3.org/2000/svg"
>
    <path
        fill="inherit"
        d="M4.398 27.7244L4.068 24.5044C4.308 24.3044 4.478 23.9944 4.438 23.5544L4.188 21.2644H12.278C14.178 21.2644 15.718 19.7244 15.718 17.8244C15.718 15.9144 14.178 14.3644 12.278 14.3644H3.478L2.838 8.1944C2.438 4.4844 3.888 2.2844 6.718 2.2844C11.308 2.2844 16.508 7.3244 16.508 13.6344C16.508 14.1344 16.468 14.7944 16.368 15.3944C16.798 16.1144 17.028 16.9444 17.028 17.8244C17.028 20.1544 15.358 22.0944 13.158 22.5044C13.048 23.2144 13.018 23.6544 13.018 24.1144C13.018 25.7344 13.538 26.4444 14.238 26.4444C17.078 26.4144 18.808 19.0744 18.808 13.7444C18.808 5.6744 12.908 0.0044 6.568 0.0044C2.288 0.0044 0.098 2.8944 0.618 8.0944L1.248 14.3644H1.128C0.418 14.3644 -0.052 14.8744 0.008 15.5844L0.458 20.3144C0.528 20.9044 0.958 21.2644 1.518 21.2644H1.948L2.188 23.7344C2.228 24.1344 2.468 24.4144 2.768 24.5644L3.098 27.7244ZM12.278 20.0844C11.008 20.0844 9.998 19.0844 9.998 17.8244C9.998 16.5744 11.008 15.5444 12.278 15.5444C13.538 15.5444 14.548 16.5744 14.548 17.8244C14.548 19.0844 13.538 20.0844 12.278 20.0844ZM12.278 19.1144C13.008 19.1144 13.578 18.5544 13.578 17.8244C13.578 17.1044 13.008 16.5144 12.278 16.5144C11.548 16.5144 10.968 17.1044 10.968 17.8244C10.968 18.5544 11.548 19.1144 12.278 19.1144Z"
        fillRule="evenodd"
        clipRule="evenodd"
    />
</svg>
        