
<svg
    viewBox="0 0 46.388671875 18.880859375"
    xmlns="http://www.w3.org/2000/svg"
>
    <path
        fill="inherit"
        d="M9.4327 0.0033C4.2127 0.0033 0.0027 4.2233 0.0027 9.4433C0.0027 14.6733 4.2127 18.8833 9.4327 18.8833H36.9527C42.1827 18.8833 46.3927 14.6733 46.3927 9.4433C46.3927 4.2233 42.1827 0.0033 36.9527 0.0033ZM23.2027 12.4933C21.5727 12.4933 20.3427 11.2633 20.3427 9.6933V5.5633L21.6327 5.0033V7.2833C22.1027 6.9333 22.6227 6.7833 23.2027 6.7833C24.7627 6.7833 26.0727 8.0833 26.0727 9.6933C26.0727 11.2233 24.7727 12.4933 23.2027 12.4933ZM23.2027 11.2233C24.0527 11.2233 24.7627 10.5133 24.7627 9.6933C24.7627 8.8433 24.0527 8.1233 23.2027 8.1233C22.3527 8.1233 21.6327 8.8333 21.6327 9.6933C21.6327 10.5133 22.3427 11.2233 23.2027 11.2233Z"
        fillRule="evenodd"
        clipRule="evenodd"
    />
</svg>
        