
<svg
    viewBox="0 0 42.451171875 22.77734375"
    xmlns="http://www.w3.org/2000/svg"
>
    <path
        fill="inherit"
        d="M0.0027 11.3898C0.0027 18.6598 5.1727 22.7798 14.3727 22.7798H28.0827C37.2727 22.7798 42.4527 18.6598 42.4527 11.3898C42.4527 4.1198 37.2727 -0.0002 28.0827 -0.0002H14.3727C5.1727 -0.0002 0.0027 4.1198 0.0027 11.3898ZM30.7627 9.0898H11.6927C11.0027 9.0898 10.4427 9.4498 10.2027 10.0098H2.2827C2.9227 4.9898 7.1927 2.1998 14.3727 2.1998H28.0827C35.2427 2.1998 39.5127 4.9898 40.1527 10.0098H32.2527C32.0027 9.4498 31.4627 9.0898 30.7627 9.0898ZM11.6927 12.3198H30.7627C31.4627 12.3198 32.0027 11.9598 32.2527 11.3898H40.2327C40.2327 17.2798 35.8927 20.5798 28.0827 20.5798H14.3727C6.5627 20.5798 2.2127 17.2798 2.2027 11.3898H10.2027C10.4427 11.9598 11.0027 12.3198 11.6927 12.3198ZM21.2227 16.3198C21.9827 16.3098 22.6027 15.6698 22.6027 14.9698C22.6027 14.2098 21.9827 13.5898 21.2227 13.5898C20.4627 13.5898 19.8527 14.2098 19.8527 14.9698C19.8527 15.7098 20.4627 16.3398 21.2227 16.3198Z"
        fillRule="evenodd"
        clipRule="evenodd"
    />
</svg>
        