
<svg
    viewBox="0 0 27.234375 28.916015625"
    xmlns="http://www.w3.org/2000/svg"
>
    <path
        fill="inherit"
        d="M0.0037 13.738C0.0037 16.118 0.6037 18.578 1.7237 20.878C1.3537 21.278 1.2737 22.028 1.6537 22.788L4.3037 28.178C4.5437 28.658 5.0837 28.918 5.6237 28.918C6.1937 28.918 6.7437 28.598 6.8237 27.888L3.8237 21.778C2.8837 19.868 2.0637 16.748 2.0637 13.758C2.0637 6.928 6.7237 2.328 13.6137 2.328C20.4937 2.328 25.1737 6.928 25.1737 13.758C25.1737 16.748 24.3537 19.868 23.4037 21.778L20.3937 27.888C20.4937 28.598 21.0437 28.918 21.6137 28.918C22.1337 28.918 22.6837 28.658 22.9237 28.178L25.5637 22.788C25.9537 22.028 25.8837 21.278 25.5137 20.878C26.6337 18.578 27.2337 16.118 27.2337 13.738C27.2337 6.088 21.9537 -0.002 13.6137 -0.002C5.2737 -0.002 0.0037 6.088 0.0037 13.738ZM7.0237 18.718C6.5337 17.708 5.6037 17.488 4.8937 17.778C4.0837 18.088 3.5237 19.048 4.1337 20.278L7.6137 27.368C8.1437 28.448 9.1037 28.838 10.0337 28.368C10.8437 27.988 11.1437 27.068 10.6737 26.098ZM20.1937 18.718L16.5537 26.098C16.0937 27.068 16.3937 27.988 17.1837 28.368C18.1137 28.838 19.0837 28.448 19.6237 27.368L23.1037 20.278C23.7037 19.048 23.1337 18.088 22.3437 17.778C21.6137 17.488 20.7037 17.708 20.1937 18.718Z"
        fillRule="evenodd"
        clipRule="evenodd"
    />
</svg>
        