
<svg
    viewBox="0 0 22.025390625 21.56414591624916"
    xmlns="http://www.w3.org/2000/svg"
>
    <path
        fill="inherit"
        d="M18.3937 7.6296C19.8137 5.1696 18.9637 2.1096 16.5037 0.6896C14.0637 -0.7204 10.9637 0.0996 9.5537 2.5596L7.1237 6.7896C5.7137 9.2296 6.5337 12.3196 8.9837 13.7296C11.4437 15.1496 14.5337 14.3296 15.9537 11.8696ZM13.2937 19.4596C18.0437 19.4596 22.0237 16.1896 22.0237 11.1896C22.0237 9.1096 21.4137 7.6896 20.3337 6.0196C20.2037 6.7896 19.9637 7.5496 19.5337 8.2796L17.1137 12.5296C15.3437 15.6196 11.4037 16.6596 8.3237 14.8696C6.0837 13.5796 4.9037 11.1496 5.1537 8.7296C4.7437 9.7396 4.5437 10.7596 4.5437 11.7896C4.5437 16.2896 8.5037 19.4596 13.2937 19.4596ZM11.2837 12.0896C9.8737 12.0896 8.7637 10.9796 8.7637 9.5596C8.7637 8.1696 9.8837 7.0296 11.2837 7.0296C12.7037 7.0296 13.8037 8.1696 13.8037 9.5596C13.8037 10.9796 12.7037 12.0896 11.2837 12.0896ZM11.2837 11.0396C12.1437 11.0396 12.7537 10.3896 12.7537 9.5596C12.7537 8.7496 12.1437 8.0796 11.2837 8.0796C10.4437 8.0796 9.8137 8.7496 9.8137 9.5596C9.8137 10.3896 10.4437 11.0396 11.2837 11.0396ZM3.2037 11.7796C3.2037 11.2696 3.2537 10.7596 3.3337 10.2696C1.3437 11.2396 0.0037 13.2796 0.0037 15.6196C0.0037 18.8596 2.6237 21.5596 5.9437 21.5596C7.3737 21.5596 8.6937 21.0596 9.7037 20.2196C5.9337 18.9896 3.2037 15.8196 3.2037 11.7796Z"
        fillRule="evenodd"
        clipRule="evenodd"
    />
</svg>
        