
<svg
    viewBox={0 0 18.8030782562747 27.7265625}
    xmlns="http://www.w3.org/2000/svg"
>
    <path
        fill="inherit"
        d="M6.5237 21.2644H14.6137L14.3737 23.5544C14.3237 23.9944 14.4937 24.3044 14.7337 24.5044L14.4137 27.7244H15.7137L16.0337 24.5644C16.3337 24.4144 16.5737 24.1344 16.6137 23.7344L16.8537 21.2644H17.2837C17.8437 21.2644 18.2837 20.9044 18.3437 20.3144L18.8037 15.5844C18.8537 14.8744 18.3737 14.3644 17.6737 14.3644H17.5537L18.1837 8.0944C18.7037 2.8944 16.5137 0.0044 12.2337 0.0044C5.8937 0.0044 0.0037 5.6744 0.0037 13.7444C0.0037 19.0744 1.7237 26.4144 4.5537 26.4444C5.2637 26.4444 5.7837 25.7344 5.7837 24.1144C5.7837 23.6544 5.7537 23.2144 5.6437 22.5044C3.4437 22.0944 1.7637 20.1544 1.7637 17.8244C1.7637 16.9444 2.0137 16.1144 2.4337 15.3944C2.3337 14.7944 2.2837 14.1344 2.2837 13.6344C2.2837 7.3244 7.4737 2.2844 12.0837 2.2844C14.9137 2.2844 16.3537 4.4844 15.9737 8.1944L15.3237 14.3644H6.5237C4.6237 14.3644 3.0937 15.9144 3.0937 17.8244C3.0937 19.7244 4.6237 21.2644 6.5237 21.2644ZM6.5237 20.0844C5.2637 20.0844 4.2537 19.0844 4.2537 17.8244C4.2537 16.5744 5.2637 15.5444 6.5237 15.5444C7.7937 15.5444 8.8037 16.5744 8.8037 17.8244C8.8037 19.0844 7.7937 20.0844 6.5237 20.0844ZM6.5237 19.1144C7.2437 19.1144 7.8337 18.5544 7.8337 17.8244C7.8337 17.1044 7.2437 16.5144 6.5237 16.5144C5.7937 16.5144 5.2237 17.1044 5.2237 17.8244C5.2237 18.5544 5.7937 19.1144 6.5237 19.1144Z"
        fillRule="evenodd"
        clipRule="evenodd"
    />
</svg>
        