
<svg
    viewBox={0 0 39.15625 27.7265625}
    xmlns="http://www.w3.org/2000/svg"
>
    <path
        fill="inherit"
        d="M6.5237 21.2644H14.6137L14.3737 23.5544C14.3237 23.9944 14.4937 24.3044 14.7337 24.5044L14.4137 27.7244H15.7137L16.0337 24.5644C16.3337 24.4144 16.5737 24.1344 16.6137 23.7344L16.8537 21.2644H17.2837C17.8437 21.2644 18.2837 20.9044 18.3437 20.3144L18.8037 15.5844C18.8537 14.8744 18.3737 14.3644 17.6737 14.3644H17.5537L18.1837 8.0944C18.7037 2.8944 16.5137 0.0044 12.2337 0.0044C5.8937 0.0044 0.0037 5.6744 0.0037 13.7444C0.0037 19.0744 1.7237 26.4144 4.5537 26.4444C5.2637 26.4444 5.7837 25.7344 5.7837 24.1144C5.7837 23.6544 5.7537 23.2144 5.6437 22.5044C3.4437 22.0944 1.7637 20.1544 1.7637 17.8244C1.7637 16.9444 2.0137 16.1144 2.4337 15.3944C2.3337 14.7944 2.2837 14.1344 2.2837 13.6344C2.2837 7.3244 7.4737 2.2844 12.0837 2.2844C14.9137 2.2844 16.3537 4.4844 15.9737 8.1944L15.3237 14.3644H6.5237C4.6237 14.3644 3.0937 15.9144 3.0937 17.8244C3.0937 19.7244 4.6237 21.2644 6.5237 21.2644ZM24.7437 27.7244L24.4037 24.5044C24.6637 24.3044 24.8237 23.9944 24.7737 23.5544L24.5437 21.2644H32.6237C34.5337 21.2644 36.0637 19.7244 36.0637 17.8244C36.0637 15.9144 34.5337 14.3644 32.6237 14.3644H23.8337L23.1837 8.1944C22.7937 4.4844 24.2437 2.2844 27.0737 2.2844C31.6637 2.2844 36.8637 7.3244 36.8637 13.6344C36.8637 14.1344 36.8037 14.7944 36.7237 15.3944C37.1337 16.1144 37.3837 16.9444 37.3837 17.8244C37.3837 20.1544 35.7137 22.0944 33.5137 22.5044C33.4037 23.2144 33.3637 23.6544 33.3637 24.1144C33.3637 25.7344 33.8837 26.4444 34.5937 26.4444C37.4337 26.4144 39.1537 19.0744 39.1537 13.7444C39.1537 5.6744 33.2537 0.0044 26.9237 0.0044C22.6237 0.0044 20.4437 2.8944 20.9737 8.0944L21.6037 14.3644H21.4737C20.7637 14.3644 20.2937 14.8744 20.3537 15.5844L20.8037 20.3144C20.8737 20.9044 21.3137 21.2644 21.8637 21.2644H22.2837L22.5437 23.7344C22.5837 24.1344 22.8137 24.4144 23.1237 24.5644L23.4437 27.7244ZM6.5237 20.0844C5.2637 20.0844 4.2537 19.0844 4.2537 17.8244C4.2537 16.5744 5.2637 15.5444 6.5237 15.5444C7.7937 15.5444 8.8037 16.5744 8.8037 17.8244C8.8037 19.0844 7.7937 20.0844 6.5237 20.0844ZM32.6237 20.0844C31.3637 20.0844 30.3337 19.0844 30.3337 17.8244C30.3337 16.5744 31.3637 15.5444 32.6237 15.5444C33.8937 15.5444 34.8937 16.5744 34.8937 17.8244C34.8937 19.0844 33.8937 20.0844 32.6237 20.0844ZM6.5237 19.1144C7.2437 19.1144 7.8337 18.5544 7.8337 17.8244C7.8337 17.1044 7.2437 16.5144 6.5237 16.5144C5.7937 16.5144 5.2237 17.1044 5.2237 17.8244C5.2237 18.5544 5.7937 19.1144 6.5237 19.1144ZM32.6237 19.1144C33.3637 19.1144 33.9237 18.5544 33.9237 17.8244C33.9237 17.1044 33.3637 16.5144 32.6237 16.5144C31.8937 16.5144 31.3237 17.1044 31.3237 17.8244C31.3237 18.5544 31.8937 19.1144 32.6237 19.1144Z"
        fillRule="evenodd"
        clipRule="evenodd"
    />
</svg>
        