
<svg
    viewBox="0 0 34.64453125 23.064453125"
    xmlns="http://www.w3.org/2000/svg"
>
    <path
        fill="inherit"
        d="M3.2837 7.7502H6.7537V5.7802C6.7537 4.5102 7.4637 3.8102 8.7637 3.8102H13.8637C15.1437 3.8102 15.8637 4.5102 15.8637 5.7802V7.7502H18.9637V5.7802C18.9637 4.5102 19.6737 3.8102 21.0437 3.8102H25.8237C27.1937 3.8102 27.9037 4.5102 27.9037 5.7802V7.7502H31.3937V3.8302C31.3937 1.3002 30.0237 0.0002 27.5637 0.0002H7.0937C4.6337 0.0002 3.2837 1.3002 3.2837 3.8302ZM0.0037 21.9002C0.0037 22.6102 0.4537 23.0602 1.1637 23.0602H1.9837C2.6837 23.0602 3.1437 22.6102 3.1437 21.9002V19.8802C3.2937 19.9202 3.7437 19.9502 4.0737 19.9502H30.5737C30.8937 19.9502 31.3537 19.9202 31.5037 19.8802V21.9002C31.5037 22.6102 31.9637 23.0602 32.6637 23.0602H33.4837C34.1937 23.0602 34.6437 22.6102 34.6437 21.9002V13.7502C34.6437 11.1402 33.1937 9.7102 30.5837 9.7102H4.0637C1.4537 9.7102 0.0037 11.1402 0.0037 13.7502Z"
        fillRule="evenodd"
        clipRule="evenodd"
    />
</svg>
        