<svg viewBox="0 0 34.64453125 23.064453125" xmlns="http://www.w3.org/2000/svg"><path d="M1.1637 23.0602H1.9837C2.6837 23.0602 3.1437 22.6102 3.1437 21.9002V19.8802C3.2937 19.9202 3.7437 19.9502 4.0737 19.9502H30.5737C30.8937 19.9502 31.3537 19.9202 31.5037 19.8802V21.9002C31.5037 22.6102 31.9637 23.0602 32.6637 23.0602H33.4837C34.1937 23.0602 34.6437 22.6102 34.6437 21.9002V12.5402C34.6437 10.0902 33.4037 8.7002 31.0937 8.5302V3.8302C31.0937 1.3002 29.7337 0.0002 27.2737 0.0002H7.3737C4.9237 0.0002 3.5537 1.3002 3.5537 3.8302V8.5302C1.2437 8.7002 0.0037 10.0902 0.0037 12.5402V21.9002C0.0037 22.6102 0.4537 23.0602 1.1637 23.0602ZM7.1537 5.9902C7.1537 4.7202 7.8637 4.0202 9.1637 4.0202H13.9637C15.2437 4.0202 15.9537 4.7202 15.9537 5.9902V8.5202H7.1537ZM18.6937 5.9902C18.6937 4.7202 19.4037 4.0202 20.6837 4.0202H25.4837C26.7837 4.0202 27.4937 4.7202 27.4937 5.9902V8.5202H18.6937ZM2.7337 17.9502C2.4437 17.9502 2.2737 17.7502 2.2737 17.4202V12.2202C2.2737 11.1802 2.9537 10.5102 4.0237 10.5102H30.6437C31.6937 10.5102 32.3737 11.1802 32.3737 12.2202V17.4202C32.3737 17.7502 32.1937 17.9502 31.9137 17.9502Z" /></svg>