
<svg
    viewBox="0 0 27.890625 27.890625"
    xmlns="http://www.w3.org/2000/svg"
>
    <path
        fill="inherit"
        d="M13.9427 27.8927C21.6427 27.8927 27.8927 21.6427 27.8927 13.9427C27.8927 6.2627 21.6427 0.0027 13.9427 0.0027C6.2627 0.0027 0.0027 6.2627 0.0027 13.9427C0.0027 21.6427 6.2627 27.8927 13.9427 27.8927ZM7.7627 19.0327C7.0227 19.0327 6.6027 18.6527 6.6027 18.1027C6.6027 17.3127 7.3927 16.6227 8.0627 15.9227C8.5827 15.3627 8.6927 14.2627 8.7627 13.3827C8.8227 10.3627 9.6227 8.3127 11.6927 7.5427C12.0127 6.5327 12.8127 5.7327 13.9627 5.7327C15.1027 5.7327 15.9127 6.5327 16.2327 7.5427C18.2927 8.3127 19.1027 10.3627 19.1727 13.3827C19.2227 14.2627 19.3227 15.3627 19.8527 15.9227C20.5527 16.6127 21.3127 17.3127 21.3127 18.1027C21.3127 18.6527 20.8927 19.0327 20.1627 19.0327ZM13.9627 22.3027C12.6327 22.3027 11.6727 21.3427 11.5827 20.2227H16.3427C16.2527 21.3427 15.2827 22.3027 13.9627 22.3027Z"
        fillRule="evenodd"
        clipRule="evenodd"
    />
</svg>
        