
<svg
    viewBox={0 0 25.169921875 25.169921875}
    xmlns="http://www.w3.org/2000/svg"
>
    <path
        fill="inherit"
        d="M4.2937 25.1692H20.8737C23.7437 25.1692 25.1737 23.7592 25.1737 20.9492V4.2392C25.1737 1.4192 23.7437 -0.0008 20.8737 -0.0008H4.2937C1.4337 -0.0008 0.0037 1.4192 0.0037 4.2392V20.9492C0.0037 23.7592 1.4337 25.1692 4.2937 25.1692ZM6.4137 17.6592C5.6737 17.6592 5.2537 17.2792 5.2537 16.7392C5.2537 15.9392 6.0437 15.2592 6.7137 14.5492C7.2337 13.9992 7.3537 12.8892 7.4137 12.0192C7.4637 8.9992 8.2737 6.9292 10.3337 6.1692C10.6637 5.1692 11.4537 4.3492 12.6037 4.3492C13.7537 4.3492 14.5637 5.1692 14.8737 6.1692C16.9437 6.9292 17.7637 8.9992 17.8137 12.0192C17.8737 12.8892 17.9637 13.9992 18.4937 14.5492C19.1937 15.2392 19.9637 15.9392 19.9637 16.7392C19.9637 17.2792 19.5337 17.6592 18.8137 17.6592ZM12.6037 20.9292C11.2837 20.9292 10.3237 19.9792 10.2237 18.8392H14.9937C14.9037 19.9792 13.9337 20.9292 12.6037 20.9292Z"
        fillRule="evenodd"
        clipRule="evenodd"
    />
</svg>
        