
<svg
    viewBox={0 0 48.767578125 28.24609375}
    xmlns="http://www.w3.org/2000/svg"
>
    <path
        fill="inherit"
        d="M11.4827 21.6441C11.4827 22.6441 12.2527 23.2941 13.5527 23.2941H19.3227C19.4327 25.9341 21.4927 28.2441 24.3727 28.2441C27.2727 28.2441 29.3427 25.9541 29.4527 23.2941H35.2227C36.5027 23.2941 37.2827 22.6441 37.2827 21.6441C37.2827 20.2741 35.8927 19.0441 34.7127 17.8241C33.8127 16.8841 33.5627 14.9441 33.4527 13.3741C33.3627 7.9841 31.9627 4.5141 28.3327 3.2041C27.8627 1.4041 26.4027 0.0041 24.3727 0.0041C22.3627 0.0041 20.8927 1.4041 20.4427 3.2041C16.8027 4.5141 15.4127 7.9841 15.3127 13.3741C15.2027 14.9441 14.9527 16.8841 14.0527 17.8241C12.8627 19.0441 11.4827 20.2741 11.4827 21.6441ZM14.1327 21.2341V21.0641C14.3827 20.6741 15.2027 19.8641 15.9127 19.0741C16.9027 17.9741 17.3627 16.2141 17.4827 13.5441C17.5927 7.5741 19.3727 5.6741 21.7127 5.0341C22.0527 4.9541 22.2427 4.7841 22.2627 4.4341C22.3027 3.0041 23.1227 2.0141 24.3727 2.0141C25.6527 2.0141 26.4527 3.0041 26.5127 4.4341C26.5227 4.7841 26.7027 4.9541 27.0527 5.0341C29.3927 5.6741 31.1727 7.5741 31.2827 13.5441C31.4027 16.2141 31.8727 17.9741 32.8427 19.0741C33.5627 19.8641 34.3727 20.6741 34.6127 21.0641V21.2341ZM43.4927 23.4741C43.9327 23.9841 44.6927 23.9841 45.2127 23.4041C47.4827 20.9341 48.7627 17.6641 48.7627 14.1241C48.7627 10.5841 47.4827 7.3041 45.2127 4.8441C44.6927 4.2641 43.9327 4.2541 43.4927 4.7741C43.0527 5.2641 43.1927 5.9041 43.6827 6.4641C45.5127 8.5041 46.5427 11.1841 46.5427 14.1241C46.5427 17.0641 45.5127 19.7441 43.6827 21.7841C43.1927 22.3441 43.0527 22.9841 43.4927 23.4741ZM5.2727 23.4741C5.7127 22.9841 5.5827 22.3441 5.0827 21.7841C3.2527 19.7441 2.2327 17.0641 2.2327 14.1241C2.2327 11.1841 3.2527 8.5041 5.0827 6.4641C5.5827 5.9041 5.7127 5.2641 5.2727 4.7741C4.8427 4.2541 4.0727 4.2641 3.5527 4.8441C1.2827 7.3041 0.0027 10.5841 0.0027 14.1241C0.0027 17.6641 1.2827 20.9341 3.5527 23.4041C4.0727 23.9841 4.8427 23.9841 5.2727 23.4741ZM9.1027 19.5741C9.5427 19.0841 9.3627 18.4741 8.9327 17.8841C8.1027 16.8541 7.7127 15.5441 7.7127 14.1241C7.7127 12.7041 8.1027 11.3741 8.9327 10.3641C9.3627 9.7741 9.5427 9.1641 9.1027 8.6641C8.6527 8.1441 7.8327 8.1441 7.3527 8.7641C6.1627 10.2441 5.4827 12.1141 5.4827 14.1241C5.4827 16.1341 6.1627 18.0041 7.3527 19.4841C7.8327 20.0941 8.6527 20.0841 9.1027 19.5741ZM39.6527 19.5741C40.1127 20.0841 40.9227 20.0941 41.4127 19.4841C42.6027 18.0041 43.2827 16.1341 43.2827 14.1241C43.2827 12.1141 42.6027 10.2441 41.4127 8.7641C40.9227 8.1441 40.1127 8.1441 39.6527 8.6641C39.2227 9.1641 39.4027 9.7741 39.8427 10.3641C40.6427 11.3741 41.0527 12.7041 41.0527 14.1241C41.0527 15.5441 40.6427 16.8541 39.8427 17.8841C39.4027 18.4741 39.2227 19.0841 39.6527 19.5741ZM21.4527 23.2941H27.3127C27.2227 25.1541 26.0327 26.3141 24.3727 26.3141C22.7327 26.3141 21.5427 25.1541 21.4527 23.2941Z"
        fillRule="evenodd"
        clipRule="evenodd"
    />
</svg>
        