
<svg
    viewBox={0 0 26.661886955633236 28.779296875}
    xmlns="http://www.w3.org/2000/svg"
>
    <path
        fill="inherit"
        d="M12.9089 0.0039C10.8789 0.0039 9.4789 1.4039 8.9589 3.2039C8.2289 3.4439 7.5989 3.7839 7.0689 4.2239L25.4589 22.6439C25.6889 22.3839 25.7989 22.0439 25.7989 21.6439C25.7989 20.2739 24.4189 19.0439 23.2289 17.8239C22.3289 16.8839 22.0789 14.9439 21.9889 13.3739C21.8789 8.1239 20.4989 4.5139 16.8589 3.2039C16.3389 1.4039 14.9189 0.0039 12.9089 0.0039ZM0.2989 2.7739L24.8689 27.3039C25.2789 27.7239 25.9489 27.7239 26.3589 27.3039C26.7589 26.8939 26.7689 26.2339 26.3589 25.8139L1.8089 1.2839C1.3989 0.8739 0.7289 0.8739 0.2989 1.2839C-0.0911 1.6839 -0.0911 2.3739 0.2989 2.7739ZM2.0689 23.2939H18.5689L4.3089 9.0239C4.0089 10.3239 3.8589 11.7539 3.8289 13.3739C3.7189 14.9439 3.4889 16.8839 2.5889 17.8239C1.3989 19.0439 -0.0011 20.2739 -0.0011 21.6439C-0.0011 22.6439 0.7789 23.2939 2.0689 23.2939ZM12.9089 28.7839C15.2189 28.7839 16.9089 27.0839 17.0989 25.1739H8.7089C8.8889 27.0839 10.5789 28.7839 12.9089 28.7839Z"
        fillRule="evenodd"
        clipRule="evenodd"
    />
</svg>
        