
<svg
    viewBox="0 0 48.767578125 28.779296875"
    xmlns="http://www.w3.org/2000/svg"
>
    <path
        fill="inherit"
        d="M13.5527 23.2939H35.2227C36.5027 23.2939 37.2827 22.6439 37.2827 21.6439C37.2827 20.2739 35.8927 19.0439 34.7127 17.8239C33.8127 16.8839 33.5627 14.9439 33.4527 13.3739C33.3627 8.1239 31.9627 4.5139 28.3327 3.2039C27.8127 1.4039 26.4027 0.0039 24.3727 0.0039C22.3627 0.0039 20.9427 1.4039 20.4427 3.2039C16.8027 4.5139 15.4127 8.1239 15.3127 13.3739C15.2027 14.9439 14.9527 16.8839 14.0527 17.8239C12.8627 19.0439 11.4827 20.2739 11.4827 21.6439C11.4827 22.6439 12.2527 23.2939 13.5527 23.2939ZM43.4927 23.7339C43.9327 24.2439 44.6927 24.2439 45.2127 23.6639C47.4827 21.1939 48.7627 17.9239 48.7627 14.3839C48.7627 10.8439 47.4827 7.5639 45.2127 5.1039C44.6927 4.5239 43.9327 4.5139 43.4927 5.0339C43.0527 5.5239 43.1927 6.1639 43.6827 6.7239C45.5127 8.7639 46.5427 11.4439 46.5427 14.3839C46.5427 17.3239 45.5127 20.0039 43.6827 22.0439C43.1927 22.6039 43.0527 23.2439 43.4927 23.7339ZM5.2727 23.7339C5.7127 23.2439 5.5827 22.6039 5.0827 22.0439C3.2527 20.0039 2.2327 17.3239 2.2327 14.3839C2.2327 11.4439 3.2527 8.7639 5.0827 6.7239C5.5827 6.1639 5.7127 5.5239 5.2727 5.0339C4.8427 4.5139 4.0727 4.5239 3.5527 5.1039C1.2827 7.5639 0.0027 10.8439 0.0027 14.3839C0.0027 17.9239 1.2827 21.1939 3.5527 23.6639C4.0727 24.2439 4.8427 24.2439 5.2727 23.7339ZM9.1027 19.8339C9.5427 19.3439 9.3627 18.7339 8.9327 18.1439C8.1027 17.1139 7.7127 15.8039 7.7127 14.3839C7.7127 12.9639 8.1027 11.6339 8.9327 10.6239C9.3627 10.0339 9.5427 9.4239 9.1027 8.9239C8.6527 8.4039 7.8327 8.4039 7.3527 9.0239C6.1627 10.5039 5.4827 12.3739 5.4827 14.3839C5.4827 16.3939 6.1627 18.2639 7.3527 19.7439C7.8327 20.3539 8.6527 20.3439 9.1027 19.8339ZM39.6527 19.8339C40.1127 20.3439 40.9227 20.3539 41.4127 19.7439C42.6027 18.2639 43.2827 16.3939 43.2827 14.3839C43.2827 12.3739 42.6027 10.5039 41.4127 9.0239C40.9227 8.4039 40.1127 8.4039 39.6527 8.9239C39.2227 9.4239 39.4027 10.0339 39.8427 10.6239C40.6427 11.6339 41.0527 12.9639 41.0527 14.3839C41.0527 15.8039 40.6427 17.1139 39.8427 18.1439C39.4027 18.7339 39.2227 19.3439 39.6527 19.8339ZM24.3727 28.7839C26.7027 28.7839 28.3927 27.0839 28.5727 25.1739H20.1927C20.3727 27.0839 22.0627 28.7839 24.3727 28.7839Z"
        fillRule="evenodd"
        clipRule="evenodd"
    />
</svg>
        