
<svg
    viewBox="0 0 26.658468986883236 28.24609375"
    xmlns="http://www.w3.org/2000/svg"
>
    <path
        fill="inherit"
        d="M7.0655 4.2341L8.6355 5.8141C9.1255 5.4441 9.6755 5.1941 10.2655 5.0341C10.6055 4.9541 10.7855 4.7841 10.7955 4.4341C10.8555 3.0041 11.6555 2.0141 12.9255 2.0141C14.1855 2.0141 15.0055 3.0041 15.0455 4.4341C15.0655 4.7841 15.2555 4.9541 15.5955 5.0341C17.9755 5.6841 19.7955 7.6541 19.8755 13.9041C19.9455 15.5741 20.0855 16.5941 20.5555 17.5141L25.4155 22.5141C25.6455 22.2541 25.7655 21.9041 25.7655 21.5241C25.7655 20.4241 24.6355 19.4041 23.6455 18.4041C22.5255 17.1441 22.1155 15.8041 22.0455 13.8541C21.9855 8.0341 20.5355 4.5241 16.8855 3.2041C16.4155 1.4041 14.9355 0.0041 12.9255 0.0041C10.9055 0.0041 9.4455 1.4041 8.9755 3.2041C8.2455 3.4441 7.6155 3.8041 7.0655 4.2341ZM0.2955 2.7741L24.8655 27.3041C25.2755 27.7241 25.9455 27.7241 26.3555 27.3041C26.7555 26.8941 26.7655 26.2341 26.3555 25.8141L1.8055 1.2841C1.3955 0.8741 0.7255 0.8741 0.2955 1.2841C-0.0945 1.6841 -0.0945 2.3741 0.2955 2.7741ZM12.9255 28.2441C15.7055 28.2441 17.7155 26.1241 17.9655 23.5941H18.8455L16.4855 21.2341H2.6855V21.0641C2.9355 20.6741 3.7455 19.8641 4.4655 19.0741C5.4355 17.9741 5.9155 16.2141 6.0255 13.5441C6.0555 12.5941 6.1255 11.7441 6.2355 10.9741L4.3155 9.0641C4.0155 10.3041 3.8755 11.7541 3.8555 13.3741C3.7455 14.9441 3.5055 16.8841 2.6055 17.8241C1.4155 19.0441 0.0255 20.2741 0.0255 21.6441C0.0255 22.6541 0.7855 23.2941 2.1055 23.2941H7.8555C7.9655 25.9341 10.0355 28.2441 12.9255 28.2441ZM12.9255 26.3141C11.2755 26.3141 10.0955 25.1541 9.9955 23.2941H15.8555C15.7555 25.1541 14.5755 26.3141 12.9255 26.3141Z"
        fillRule="evenodd"
        clipRule="evenodd"
    />
</svg>
        