
<svg
    viewBox={0 0 25.798828125 28.24609375}
    xmlns="http://www.w3.org/2000/svg"
>
    <path
        fill="inherit"
        d="M0.0016 21.6441C0.0016 22.6441 0.7616 23.2941 2.0616 23.2941H7.8316C7.9416 25.9341 10.0116 28.2441 12.8916 28.2441C15.7916 28.2441 17.8516 25.9541 17.9616 23.2941H23.7316C25.0216 23.2941 25.8016 22.6441 25.8016 21.6441C25.8016 20.2741 24.4016 19.0441 23.2316 17.8241C22.3216 16.8841 22.0816 14.9441 21.9716 13.3741C21.8716 7.9841 20.4816 4.5141 16.8416 3.2041C16.3816 1.4041 14.9116 0.0041 12.8916 0.0041C10.8816 0.0041 9.4016 1.4041 8.9516 3.2041C5.3216 4.5141 3.9216 7.9841 3.8316 13.3741C3.7216 14.9441 3.4716 16.8841 2.5716 17.8241C1.3816 19.0441 0.0016 20.2741 0.0016 21.6441ZM2.6516 21.2341V21.0641C2.9016 20.6741 3.7216 19.8641 4.4316 19.0741C5.4116 17.9741 5.8816 16.2141 6.0016 13.5441C6.1116 7.5741 7.8916 5.6741 10.2316 5.0341C10.5716 4.9541 10.7616 4.7841 10.7716 4.4341C10.8116 3.0041 11.6316 2.0141 12.8916 2.0141C14.1616 2.0141 14.9716 3.0041 15.0216 4.4341C15.0416 4.7841 15.2216 4.9541 15.5616 5.0341C17.9116 5.6741 19.6916 7.5741 19.8016 13.5441C19.9216 16.2141 20.3816 17.9741 21.3516 19.0741C22.0816 19.8641 22.8916 20.6741 23.1316 21.0641V21.2341ZM9.9716 23.2941H15.8316C15.7216 25.1541 14.5516 26.3141 12.8916 26.3141C11.2516 26.3141 10.0616 25.1541 9.9716 23.2941Z"
        fillRule="evenodd"
        clipRule="evenodd"
    />
</svg>
        