
<svg
    viewBox="0 0 27.890625 27.890625"
    xmlns="http://www.w3.org/2000/svg"
>
    <path
        fill="inherit"
        d="M13.9427 27.8927C21.6427 27.8927 27.8927 21.6427 27.8927 13.9427C27.8927 6.2627 21.6427 0.0027 13.9427 0.0027C6.2627 0.0027 0.0027 6.2627 0.0027 13.9427C0.0027 21.6427 6.2627 27.8927 13.9427 27.8927ZM10.6127 8.1527C10.8927 7.8927 11.2527 7.6927 11.6727 7.5427C11.9927 6.5327 12.7927 5.7327 13.9327 5.7327C15.0827 5.7327 15.8827 6.5327 16.2027 7.5427C18.2627 8.3127 19.0827 10.3627 19.1427 13.3827C19.1927 14.2627 19.2927 15.3627 19.8227 15.9227C20.5227 16.6127 21.2827 17.3127 21.2827 18.1027C21.2827 18.3027 21.2027 18.5027 21.0827 18.6227ZM20.5727 21.4927L6.3727 7.2827C6.1427 7.0527 6.1227 6.6427 6.3727 6.3827C6.6327 6.1227 7.0427 6.1227 7.3027 6.3827L21.4927 20.5927C21.7427 20.8527 21.7427 21.2327 21.4927 21.4927C21.2427 21.7427 20.8227 21.7427 20.5727 21.4927ZM16.5427 19.0327H7.7427C7.0127 19.0327 6.5727 18.6527 6.5727 18.1027C6.5727 17.3127 7.3727 16.6227 8.0527 15.9227C8.5627 15.3627 8.6827 14.2627 8.7327 13.3827C8.7527 12.6627 8.7927 11.9927 8.9027 11.3727ZM13.9327 22.3027C12.6027 22.3027 11.6527 21.3427 11.5527 20.2227H16.3227C16.2327 21.3427 15.2627 22.3027 13.9327 22.3027Z"
        fillRule="evenodd"
        clipRule="evenodd"
    />
</svg>
        