
<svg
    viewBox={0 0 31.7734375 31.732421875}
    xmlns="http://www.w3.org/2000/svg"
>
    <path
        fill="inherit"
        d="M1.8309 26.7395C2.8609 26.7395 3.6809 25.9195 3.6809 24.9095C3.6809 24.6795 3.6409 24.4595 3.5509 24.2495L10.1209 17.6895C8.5909 20.3595 7.6809 23.3795 7.5309 26.7395C6.6609 26.7395 6.1109 27.3195 6.1109 28.2095V30.2795C6.1109 31.1695 6.6609 31.7295 7.5309 31.7295H9.6809C10.5509 31.7295 11.1009 31.1695 11.1009 30.2795V28.2095C11.1009 27.3195 10.5509 26.7395 9.6809 26.7395H9.6709C9.8609 22.9995 11.0709 19.6895 13.1009 16.9095C13.3609 16.9795 13.6309 17.0095 13.9009 17.0095C15.8009 17.0095 17.3609 15.4595 17.3609 13.5595C17.3609 13.2895 17.3409 13.0395 17.2809 12.7995C19.9709 10.8795 23.1609 9.7595 26.8009 9.6095C26.7809 10.4195 27.3409 10.9795 28.2009 10.9795H30.3509C31.2309 10.9795 31.7709 10.4195 31.7709 9.5295V7.4395C31.7709 6.5595 31.2309 5.9895 30.3509 5.9895H28.2009C27.3409 5.9895 26.7809 6.5595 26.7809 7.4395V7.4695C23.4309 7.5895 20.4509 8.4795 17.8009 9.9895L24.1809 3.6195C24.3409 3.6595 24.5009 3.6795 24.6609 3.6795C25.6709 3.6795 26.5009 2.8595 26.5009 1.8495C26.5009 0.8295 25.6709 -0.0005 24.6609 -0.0005C23.6409 -0.0005 22.8209 0.8295 22.8209 1.8495C22.8209 2.0795 22.8609 2.2995 22.9409 2.4995L15.1209 10.3195C14.7409 10.1895 14.3309 10.0995 13.9009 10.0995C12.0009 10.0995 10.4609 11.6495 10.4609 13.5595C10.4609 13.9895 10.5309 14.3995 10.6809 14.7795L2.3109 23.1295C2.1609 23.0895 2.0009 23.0595 1.8309 23.0595C0.8209 23.0595 0.0009 23.8895 0.0009 24.9095C0.0009 25.9195 0.8209 26.7395 1.8309 26.7395ZM28.6309 9.4295C28.4409 9.4295 28.3309 9.3095 28.3309 9.1295V7.8595C28.3309 7.6595 28.4409 7.5295 28.6309 7.5295H29.9409C30.1309 7.5295 30.2309 7.6595 30.2309 7.8595V9.1295C30.2309 9.3095 30.1309 9.4295 29.9409 9.4295ZM13.9009 15.1895C13.0009 15.1895 12.2809 14.4695 12.2809 13.5595C12.2809 12.6495 13.0009 11.9195 13.9009 11.9195C14.8109 11.9195 15.5409 12.6495 15.5409 13.5595C15.5409 14.4695 14.8109 15.1895 13.9009 15.1895ZM7.9609 30.1895C7.7609 30.1895 7.6609 30.0695 7.6609 29.8895V28.6195C7.6609 28.4095 7.7609 28.2895 7.9609 28.2895H9.2709C9.4509 28.2895 9.5609 28.4095 9.5609 28.6195V29.8895C9.5609 30.0695 9.4509 30.1895 9.2709 30.1895Z"
        fillRule="evenodd"
        clipRule="evenodd"
    />
</svg>
        