
<svg
    viewBox={0 0 44.32421875 27.466796875}
    xmlns="http://www.w3.org/2000/svg"
>
    <path
        fill="inherit"
        d="M8.7137 27.4677C13.0837 27.4677 16.7037 24.2277 17.3237 20.0177H19.5237C19.9737 20.9977 20.9737 21.6877 22.1437 21.6877C23.7337 21.6877 25.0237 20.3977 25.0237 18.8277C25.0237 18.0577 24.7237 17.3677 24.2237 16.8477L30.9437 9.6477L31.5037 11.0977C28.7637 12.5777 26.9037 15.4477 26.9037 18.7677C26.9037 23.5877 30.8137 27.4677 35.6337 27.4677C40.4237 27.4677 44.3237 23.5677 44.3237 18.7677C44.3237 13.9577 40.4237 10.0777 35.6337 10.0777C34.8737 10.0777 34.1437 10.1677 33.4437 10.3477L29.7737 0.9177C29.5337 0.2577 29.0837 -0.0023 28.2837 -0.0023H24.3737C23.7937 -0.0023 23.3137 0.4777 23.3137 1.0677C23.3137 1.6577 23.7937 2.1177 24.3737 2.1177H27.9137C28.0237 2.1177 28.0537 2.1477 28.0937 2.2177L30.1737 7.6377L18.1537 9.4177L16.3837 6.0477H17.8037C18.3937 6.0477 18.8637 5.5777 18.8637 4.9877C18.8637 4.4177 18.3737 3.9277 17.8037 3.9277H12.4237C11.8537 3.9277 11.3637 4.4177 11.3637 4.9877C11.3637 5.5777 11.8437 6.0477 12.4237 6.0477H14.0937L15.9837 9.7077L13.9437 11.8077C12.4937 10.7177 10.6737 10.0777 8.7137 10.0777C3.8937 10.0777 0.0037 13.9577 0.0037 18.7677C0.0037 23.5877 3.8937 27.4677 8.7137 27.4677ZM22.1437 15.9677C21.9737 15.9677 21.8037 15.9777 21.6437 16.0077L19.1237 11.2377L28.1137 9.9277L22.3537 15.9677C22.2837 15.9677 22.2137 15.9677 22.1437 15.9677ZM17.3737 18.0477C17.2237 16.2177 16.5137 14.5477 15.4037 13.2077L16.9637 11.6077L19.8237 17.1277C19.6337 17.4077 19.4837 17.7177 19.3837 18.0477ZM8.7137 25.3177C5.0737 25.3177 2.1637 22.4077 2.1637 18.7677C2.1637 15.1477 5.0837 12.2177 8.7137 12.2177C10.1037 12.2177 11.3737 12.6477 12.4437 13.3877L8.9537 16.9977C8.8737 16.9977 8.7937 16.9777 8.7137 16.9777C7.7137 16.9777 6.9437 17.7577 6.9337 18.7677C6.9137 19.7577 7.6937 20.5477 8.7137 20.5477C9.2137 20.5477 9.6537 20.3477 9.9837 20.0177H15.1437C14.5637 23.0477 11.9037 25.3177 8.7137 25.3177ZM35.6337 25.3177C31.9937 25.3177 29.0637 22.4077 29.0637 18.7677C29.0637 16.3777 30.3537 14.2777 32.2837 13.1377L34.0937 17.8577C33.9337 18.1177 33.8337 18.4277 33.8337 18.7677C33.8237 19.7577 34.6137 20.5577 35.6337 20.5577C36.6237 20.5577 37.4037 19.7577 37.4037 18.7677C37.4037 17.9077 36.8337 17.1977 36.0237 17.0377L34.2237 12.3777C34.6737 12.2777 35.1537 12.2177 35.6337 12.2177C39.2337 12.2177 42.1737 15.1777 42.1737 18.7677C42.1737 22.3977 39.2337 25.3177 35.6337 25.3177ZM10.6637 18.0477L13.8937 14.7477C14.6137 15.6777 15.0937 16.8177 15.2337 18.0477ZM22.1637 19.8077C21.6037 19.8077 21.1637 19.3577 21.1637 18.8377C21.1637 18.2977 21.6037 17.8377 22.1637 17.8377C22.7137 17.8377 23.1337 18.2777 23.1337 18.8377C23.1337 19.3777 22.7137 19.8077 22.1637 19.8077Z"
        fillRule="evenodd"
        clipRule="evenodd"
    />
</svg>
        