
<svg
    viewBox={0 0 27.890625 27.890625}
    xmlns="http://www.w3.org/2000/svg"
>
    <path
        fill="inherit"
        d="M13.9427 27.8927C21.6427 27.8927 27.8927 21.6427 27.8927 13.9427C27.8927 6.2627 21.6427 0.0027 13.9427 0.0027C6.2627 0.0027 0.0027 6.2627 0.0027 13.9427C0.0027 21.6427 6.2627 27.8927 13.9427 27.8927ZM3.7227 15.6527C3.7227 13.4527 5.4927 11.7027 7.6827 11.7027C8.4927 11.7027 9.2327 11.9327 9.8527 12.3427L10.8727 11.1727L9.8827 9.3827H9.0827C8.7627 9.3827 8.5027 9.1327 8.5027 8.8327C8.5027 8.4927 8.7627 8.2427 9.0827 8.2427H11.7327C12.0627 8.2427 12.3327 8.5027 12.3327 8.8327C12.3327 9.1327 12.0427 9.3827 11.7327 9.3827H11.1727L12.0027 10.8827L17.3727 10.1827L16.5127 8.0527H14.9427C14.6027 8.0527 14.3527 7.7827 14.3527 7.4627C14.3527 7.1527 14.6127 6.9027 14.9427 6.9027H16.6827C17.0927 6.9027 17.2927 7.0227 17.4427 7.3727L19.2627 11.8227C19.5627 11.7327 19.9027 11.7027 20.2327 11.7027C22.4227 11.7027 24.2027 13.4527 24.2027 15.6527C24.2027 17.8427 22.4227 19.6227 20.2327 19.6227C18.0427 19.6227 16.2727 17.8427 16.2727 15.6527C16.2727 14.1927 17.0627 12.9327 18.2227 12.2527L17.8527 11.3627L14.2827 15.5327C13.9727 15.8727 13.6827 16.0127 13.1127 16.0127H11.6327C11.4427 18.0327 9.7527 19.6227 7.6827 19.6227C5.4927 19.6227 3.7227 17.8427 3.7227 15.6527ZM12.5927 11.9527L13.9027 14.2827L16.5027 11.2827ZM10.7427 13.1227C11.1527 13.6327 11.4527 14.2427 11.5827 14.9127H12.9727L11.5127 12.2727ZM4.8827 15.6227C4.8827 17.2127 6.1427 18.4427 7.6927 18.4427C9.2427 18.4427 10.5027 17.2127 10.5027 15.6227C10.5027 15.0127 10.2927 14.4327 9.9627 13.9727L8.6127 15.4727C8.6127 15.4927 8.6227 15.5727 8.6227 15.6427C8.6227 16.1827 8.2127 16.5927 7.6927 16.5927C7.1527 16.5927 6.7427 16.1827 6.7427 15.6427C6.7427 15.1227 7.1627 14.6727 7.7927 14.7127L9.0927 13.2027C8.6827 12.9727 8.2027 12.8227 7.6927 12.8227C6.1427 12.8227 4.8827 14.0827 4.8827 15.6227ZM17.4327 15.6227C17.4327 17.2127 18.6927 18.4427 20.2627 18.4427C21.8027 18.4427 23.0627 17.2127 23.0627 15.6227C23.0627 14.0827 21.8027 12.8227 20.2627 12.8227C20.0527 12.8227 19.8827 12.8527 19.7027 12.8927L20.4427 14.7127C20.8627 14.8027 21.1927 15.1727 21.1927 15.6427C21.1927 16.1827 20.7827 16.5927 20.2627 16.5927C19.7127 16.5927 19.3027 16.1827 19.3027 15.6427C19.3027 15.4927 19.3427 15.3427 19.4127 15.2127L18.6527 13.3327C17.9227 13.8327 17.4327 14.6727 17.4327 15.6227Z"
        fillRule="evenodd"
        clipRule="evenodd"
    />
</svg>
        