
<svg
    viewBox="0 0 27.890625 27.890625"
    xmlns="http://www.w3.org/2000/svg"
>
    <path
        fill="inherit"
        d="M13.9427 27.8864C21.6427 27.8864 27.8927 21.6464 27.8927 13.9464C27.8927 6.2464 21.6427 -0.0036 13.9427 -0.0036C6.2527 -0.0036 0.0027 6.2464 0.0027 13.9464C0.0027 21.6464 6.2527 27.8864 13.9427 27.8864ZM13.9427 25.5664C7.5227 25.5664 2.3227 20.3664 2.3227 13.9464C2.3227 7.5164 7.5227 2.3264 13.9427 2.3264C20.3727 2.3264 25.5627 7.5164 25.5627 13.9464C25.5627 20.3664 20.3727 25.5664 13.9427 25.5664ZM7.8627 19.4164C9.8527 19.4164 11.5127 17.8664 11.6927 15.9164H13.1227C13.6827 15.9164 13.9627 15.7764 14.2627 15.4464L17.7227 11.4064L18.0727 12.2664C16.9427 12.9364 16.1827 14.1664 16.1827 15.5764C16.1827 17.6864 17.9127 19.4164 20.0327 19.4164C22.1627 19.4164 23.8727 17.6864 23.8727 15.5764C23.8727 13.4564 22.1627 11.7264 20.0327 11.7264C19.7027 11.7264 19.3827 11.7764 19.0727 11.8564L17.3227 7.5464C17.1727 7.2064 16.9827 7.0864 16.5827 7.0864H14.9027C14.5927 7.0864 14.3327 7.3264 14.3327 7.6464C14.3327 7.9264 14.5727 8.1864 14.9027 8.1864H16.4227L17.2627 10.2664L12.0427 10.9364L11.2427 9.4864H11.7827C12.0827 9.4864 12.3627 9.2464 12.3627 8.9564C12.3627 8.6364 12.1027 8.3764 11.7827 8.3764H9.2127C8.9027 8.3764 8.6527 8.6364 8.6527 8.9564C8.6527 9.2464 8.9027 9.4864 9.2127 9.4864H9.9927L10.9527 11.2264L9.9627 12.3564C9.3627 11.9664 8.6427 11.7264 7.8627 11.7264C5.7427 11.7264 4.0227 13.4564 4.0227 15.5764C4.0227 17.6864 5.7427 19.4164 7.8627 19.4164ZM12.6227 11.9764L16.4227 11.3364L13.8927 14.2464ZM11.5627 12.2864L12.9927 14.8564H11.6327C11.5127 14.2064 11.2227 13.6164 10.8127 13.1064ZM7.8727 18.2964C6.3527 18.2964 5.1427 17.0764 5.1427 15.5464C5.1427 14.0364 6.3527 12.8364 7.8727 12.8364C8.3627 12.8364 8.8327 12.9564 9.2327 13.1964L7.9527 14.6564C7.9327 14.6564 7.9027 14.6564 7.8727 14.6564C7.3427 14.6564 6.9427 15.0564 6.9427 15.5564C6.9427 16.0764 7.3427 16.4864 7.8727 16.4864C8.3827 16.4864 8.7727 16.0764 8.7727 15.5564C8.7727 15.5064 8.7727 15.4464 8.7627 15.3964L10.0727 13.9464C10.4027 14.3964 10.5927 14.9464 10.5927 15.5464C10.5927 17.0764 9.3827 18.2964 7.8727 18.2964ZM20.0527 18.2964C18.5227 18.2964 17.3127 17.0764 17.3127 15.5464C17.3127 14.6164 17.7727 13.7964 18.5027 13.3064L19.2327 15.1364C19.1727 15.2564 19.1227 15.4064 19.1227 15.5564C19.1227 16.0764 19.5227 16.4864 20.0527 16.4864C20.5627 16.4864 20.9627 16.0764 20.9627 15.5564C20.9627 15.1064 20.6427 14.7564 20.2227 14.6664L19.4927 12.8964C19.6727 12.8564 19.8627 12.8364 20.0527 12.8364C21.5627 12.8364 22.7727 14.0364 22.7727 15.5464C22.7727 17.0764 21.5627 18.2964 20.0527 18.2964Z"
        fillRule="evenodd"
        clipRule="evenodd"
    />
</svg>
        