<svg viewBox="0 0 27.890625 27.890625" xmlns="http://www.w3.org/2000/svg"><path d="M13.9427 27.8864C21.6427 27.8864 27.8927 21.6464 27.8927 13.9464C27.8927 6.2464 21.6427 -0.0036 13.9427 -0.0036C6.2527 -0.0036 0.0027 6.2464 0.0027 13.9464C0.0027 21.6464 6.2527 27.8864 13.9427 27.8864ZM13.9427 25.5664C7.5227 25.5664 2.3227 20.3664 2.3227 13.9464C2.3227 7.5164 7.5227 2.3264 13.9427 2.3264C20.3727 2.3264 25.5627 7.5164 25.5627 13.9464C25.5627 20.3664 20.3727 25.5664 13.9427 25.5664ZM5.1427 16.9964C5.1427 18.9064 6.8327 20.3564 8.9527 20.3564C11.0627 20.3564 12.7827 18.9064 12.7827 16.9964V15.2064C13.1127 15.0764 13.5227 14.9964 13.9327 14.9964C14.3827 14.9964 14.7627 15.0564 15.0827 15.1664V16.9964C15.0827 18.9064 16.8027 20.3564 18.8927 20.3564C21.0127 20.3564 22.7227 18.9064 22.7227 16.9964C22.7227 16.4864 22.6727 16.0264 22.3927 15.3564L19.5227 8.6864C19.1427 7.7964 18.3027 7.2564 17.2627 7.2564C15.9427 7.2564 15.0827 8.1064 15.0827 9.3664V10.0464C14.7427 9.9364 14.3527 9.8864 13.9327 9.8864C13.5327 9.8864 13.1427 9.9564 12.7827 10.0764V9.3664C12.7827 8.1064 11.9227 7.2564 10.5927 7.2564C9.5527 7.2564 8.7227 7.7964 8.3527 8.6864L5.4727 15.3564C5.1927 16.0264 5.1427 16.4864 5.1427 16.9964ZM12.7827 13.1564V12.1364C13.1227 12.0264 13.5327 11.9664 13.9327 11.9664C14.3527 11.9664 14.7427 12.0164 15.0827 12.1164V13.0864C14.7627 12.9864 14.3827 12.9364 13.9327 12.9364C13.5227 12.9364 13.1127 13.0064 12.7827 13.1564ZM6.5527 16.9964C6.5527 15.8064 7.5227 14.9964 8.9527 14.9964C10.4227 14.9964 11.4027 15.8064 11.4027 16.9964C11.4027 18.1564 10.4227 18.9764 8.9527 18.9764C7.5227 18.9764 6.5527 18.1564 6.5527 16.9964ZM16.4427 16.9964C16.4427 15.8064 17.4427 14.9964 18.8927 14.9964C20.3327 14.9964 21.3127 15.8064 21.3127 16.9964C21.3127 18.1564 20.3327 18.9764 18.8927 18.9764C17.4427 18.9764 16.4427 18.1564 16.4427 16.9964Z" /></svg>