
<svg
    viewBox="0 0 27.890625 27.890625"
    xmlns="http://www.w3.org/2000/svg"
>
    <path
        fill="inherit"
        d="M13.9427 27.8864C21.6427 27.8864 27.8927 21.6264 27.8927 13.9464C27.8927 6.2464 21.6427 -0.0036 13.9427 -0.0036C6.2627 -0.0036 0.0027 6.2464 0.0027 13.9464C0.0027 21.6264 6.2627 27.8864 13.9427 27.8864ZM4.8627 17.0864C4.8627 16.5664 4.9227 16.0964 5.2127 15.3964L8.1727 8.5164C8.5727 7.6064 9.4227 7.0564 10.4827 7.0564C11.8627 7.0564 12.7527 7.9264 12.7527 9.2264V9.9564C13.1127 9.8264 13.5227 9.7764 13.9327 9.7764C14.3727 9.7764 14.7627 9.8164 15.1027 9.9264V9.2264C15.1027 7.9264 15.9927 7.0564 17.3727 7.0564C18.4427 7.0564 19.3027 7.6064 19.7027 8.5164L22.6527 15.3964C22.9327 16.0964 22.9927 16.5664 22.9927 17.0864C22.9927 19.0764 21.2327 20.5664 19.0427 20.5664C16.8827 20.5664 15.1027 19.0764 15.1027 17.0864V15.2064C14.7927 15.0964 14.3927 15.0364 13.9327 15.0364C13.5127 15.0364 13.0827 15.1164 12.7527 15.2564V17.0864C12.7527 19.0764 10.9827 20.5664 8.8027 20.5664C6.6127 20.5664 4.8627 19.0764 4.8627 17.0864ZM12.7527 13.1364C13.0827 12.9764 13.5127 12.9064 13.9327 12.9064C14.3927 12.9064 14.7927 12.9564 15.1027 13.0564V12.0564C14.7627 11.9664 14.3727 11.9064 13.9327 11.9064C13.5227 11.9064 13.0927 11.9764 12.7527 12.0864ZM6.3327 17.0864C6.3327 18.2964 7.3327 19.1264 8.8027 19.1264C10.3127 19.1264 11.3227 18.2964 11.3227 17.0864C11.3227 15.8764 10.3127 15.0364 8.8027 15.0364C7.3327 15.0364 6.3327 15.8764 6.3327 17.0864ZM16.5327 17.0864C16.5327 18.2964 17.5527 19.1264 19.0427 19.1264C20.5227 19.1264 21.5327 18.2964 21.5327 17.0864C21.5327 15.8764 20.5227 15.0364 19.0427 15.0364C17.5527 15.0364 16.5327 15.8764 16.5327 17.0864Z"
        fillRule="evenodd"
        clipRule="evenodd"
    />
</svg>
        