
<svg
    viewBox="0 0 34.904296875 25.94921875"
    xmlns="http://www.w3.org/2000/svg"
>
    <path
        fill="inherit"
        d="M0.0037 19.2815C0.0037 23.0915 3.4137 25.9515 7.6037 25.9515C11.7737 25.9515 15.1737 23.0915 15.1737 19.2815V15.7515C15.8437 15.5015 16.6437 15.3715 17.4637 15.3715C18.3937 15.3715 19.1137 15.4515 19.7237 15.6515V19.2815C19.7237 23.0915 23.1337 25.9515 27.3037 25.9515C31.4737 25.9515 34.9037 23.0915 34.9037 19.2815C34.9037 18.2815 34.7537 17.3515 34.1937 16.0515L28.5237 2.8115C27.7437 1.0415 26.1137 0.0015 24.0637 0.0015C21.4337 0.0015 19.7237 1.6715 19.7237 4.1715V5.4715C19.0437 5.3015 18.3037 5.2215 17.4637 5.2215C16.6637 5.2215 15.9037 5.3415 15.1737 5.5415V4.1715C15.1737 1.6715 13.4637 0.0015 10.8437 0.0015C8.7937 0.0015 7.1537 1.0415 6.3837 2.8115L0.6937 16.0515C0.1337 17.3515 0.0037 18.2815 0.0037 19.2815ZM4.0737 13.4215L8.2437 3.7315C8.7137 2.6415 9.6437 1.9915 10.7637 1.9915C12.2137 1.9915 13.1437 2.9515 13.1437 4.3915V14.7815C11.7737 13.4215 9.7437 12.6015 7.6037 12.6015C6.3837 12.6015 5.1437 12.9015 4.0737 13.4215ZM30.8337 13.4215C29.7637 12.9015 28.5237 12.6015 27.3037 12.6015C25.1537 12.6015 23.1237 13.4215 21.7537 14.7815V4.3915C21.7537 2.9515 22.6937 1.9915 24.1437 1.9915C25.2537 1.9915 26.1837 2.6415 26.6437 3.7315ZM17.4637 7.0115C18.3937 7.0115 19.1137 7.1115 19.7237 7.3015V9.6415C19.0437 9.4715 18.3037 9.4015 17.4637 9.4015C16.6637 9.4015 15.9037 9.5115 15.1737 9.7215V7.4115C15.8437 7.1615 16.6437 7.0115 17.4637 7.0115ZM17.4637 11.2015C18.3937 11.2015 19.1137 11.2815 19.7237 11.4815V13.8115C19.0437 13.6415 18.3037 13.5715 17.4637 13.5715C16.6637 13.5715 15.9037 13.6815 15.1737 13.8915V11.5815C15.8437 11.3315 16.6437 11.2015 17.4637 11.2015ZM2.1437 19.2815C2.1437 16.5315 4.5137 14.6515 7.6037 14.6515C10.6737 14.6515 13.1237 16.5315 13.1237 19.2815C13.1237 22.0215 10.6737 23.9015 7.6037 23.9015C4.5137 23.9015 2.1437 22.0215 2.1437 19.2815ZM32.7437 19.2815C32.7437 22.0215 30.3837 23.9015 27.3037 23.9015C24.2137 23.9015 21.7837 22.0215 21.7837 19.2815C21.7837 16.5315 24.2137 14.6515 27.3037 14.6515C30.3837 14.6515 32.7437 16.5315 32.7437 19.2815Z"
        fillRule="evenodd"
        clipRule="evenodd"
    />
</svg>
        