
<svg
    viewBox="0 0 32.119898667577964 35.85579720005233"
    xmlns="http://www.w3.org/2000/svg"
>
    <path
        fill="inherit"
        d="M22.8715 8.7747C22.5315 8.7747 22.2015 8.8147 21.8915 8.8647C20.0315 4.9447 17.5415 2.1647 14.2215 0.2647C13.1615 -0.3353 12.1015 0.1147 11.8115 1.2547C11.2315 3.3147 10.9515 5.2947 11.0615 7.3347C8.1415 5.8147 4.9015 4.7547 1.6815 4.5047C0.2815 4.4047 0.0515 5.4947 0.0215 6.2947C-0.4085 13.1447 4.9015 19.1047 11.7415 19.8847C9.9415 23.9047 7.5015 27.7347 4.1315 30.9347C3.5815 31.4347 3.7315 32.1547 4.0715 32.6547C5.6815 35.1447 10.7315 36.6247 14.1315 35.4447C14.9515 35.1547 15.0915 34.7047 15.0915 34.0747V29.0047C18.8215 28.8047 24.7315 26.3347 23.7615 18.7547L23.6215 17.7947C25.2115 17.3947 26.4915 16.6447 27.3315 15.7347L31.1715 16.2747C32.1015 16.4147 32.5415 15.0347 31.5915 14.6347L28.3115 13.2447C28.1915 11.0647 25.7715 8.7747 22.8715 8.7747ZM13.5015 2.6447C13.5515 2.4047 13.7915 2.3147 14.0015 2.4447C16.5915 4.1347 18.5515 6.4147 20.1215 9.7047C19.3615 10.3047 18.7015 11.2347 18.1515 12.5047C16.7315 11.0847 15.0415 9.7247 13.1515 8.5347C12.8815 6.4847 13.0315 4.6147 13.5015 2.6447ZM22.9915 10.7447C24.9515 10.7447 26.3615 12.1647 26.3615 13.4347C26.3615 14.4747 24.9715 15.6747 22.3215 16.0447C21.9115 16.0847 21.6115 16.3847 21.6515 16.7647L21.8315 18.8047C22.4215 25.8347 16.9815 26.8347 13.8015 26.9847C13.4115 26.9947 13.1115 27.2647 13.1115 27.6747V33.6647C13.1115 33.8047 13.0515 33.9147 12.9015 33.9247C10.2515 34.4047 7.3715 33.4447 6.0015 32.0447C5.9015 31.9447 5.8615 31.7947 5.9715 31.6947C9.6615 28.1547 12.1815 23.8647 14.0615 19.3547C14.3215 18.7247 14.0815 18.2147 13.4415 18.1947C6.9315 18.0247 2.0515 13.2447 1.9915 6.7747C1.9915 6.5747 2.0315 6.5147 2.2515 6.5447C8.0215 7.2547 13.4815 10.5247 16.6115 13.7647C17.1715 14.3247 17.5615 14.6047 18.1115 14.6047C19.0015 14.6047 19.4215 14.1747 19.8815 13.2547C20.6715 11.6147 21.3715 10.7447 22.9915 10.7447ZM23.8915 13.7847C24.3515 13.7847 24.7315 13.4147 24.7315 12.9547C24.7315 12.5047 24.3515 12.1047 23.8915 12.1047C23.4215 12.1047 23.0515 12.5047 23.0515 12.9547C23.0515 13.4147 23.4215 13.7847 23.8915 13.7847Z"
        fillRule="evenodd"
        clipRule="evenodd"
    />
</svg>
        