
<svg
    viewBox={0 0 27.890625 27.890625}
    xmlns="http://www.w3.org/2000/svg"
>
    <path
        fill="inherit"
        d="M13.9427 27.8864C21.6427 27.8864 27.8927 21.6464 27.8927 13.9464C27.8927 6.2464 21.6427 -0.0036 13.9427 -0.0036C6.2527 -0.0036 0.0027 6.2464 0.0027 13.9464C0.0027 21.6464 6.2527 27.8864 13.9427 27.8864ZM13.9427 25.5664C7.5227 25.5664 2.3227 20.3664 2.3227 13.9464C2.3227 7.5164 7.5227 2.3264 13.9427 2.3264C20.3727 2.3264 25.5627 7.5164 25.5627 13.9464C25.5627 20.3664 20.3727 25.5664 13.9427 25.5664ZM12.0127 7.7564C13.2327 8.3564 14.3427 9.0964 15.2827 9.8864C15.7527 9.2564 16.3127 8.8564 16.9427 8.6864C16.0827 7.1364 14.9727 5.9864 13.5627 5.1864C13.0427 4.8764 12.5227 5.1164 12.3827 5.6564C12.1927 6.3564 12.0627 7.0564 12.0127 7.7564ZM17.8127 9.4564C16.8127 9.4564 16.0527 10.0264 15.5127 11.3564C13.5927 9.3764 10.5027 7.6064 7.4127 7.3664C6.7627 7.3264 6.6827 7.7964 6.6727 8.1764C6.4427 11.5764 9.1327 14.5364 12.7027 14.7764C11.7427 17.0764 10.1827 18.8964 8.6527 20.3264C8.4127 20.5364 8.4727 20.8464 8.6227 21.0864C9.4227 22.2764 11.8527 22.9864 13.4927 22.4264C13.8527 22.2864 13.9227 22.1064 13.9227 21.8164V19.2764C15.7327 19.1864 18.5627 18.0364 18.1727 14.2864L18.1027 13.7664C18.9227 13.5664 19.5827 13.1764 19.9727 12.7264L21.9427 13.0164C22.3827 13.0664 22.6127 12.3864 22.1527 12.2064L20.4027 11.4664C20.2627 10.4564 19.1727 9.4564 17.8127 9.4564ZM18.0227 11.3764C18.0227 11.1164 18.2527 10.8964 18.5027 10.8964C18.7727 10.8964 18.9927 11.1164 18.9927 11.3764C18.9927 11.6464 18.7727 11.8564 18.5027 11.8564C18.2527 11.8564 18.0227 11.6464 18.0227 11.3764Z"
        fillRule="evenodd"
        clipRule="evenodd"
    />
</svg>
        