
<svg
    viewBox="0 0 27.890625 27.890625"
    xmlns="http://www.w3.org/2000/svg"
>
    <path
        fill="inherit"
        d="M13.9427 27.8927C21.6427 27.8927 27.8927 21.6427 27.8927 13.9427C27.8927 6.2627 21.6427 0.0027 13.9427 0.0027C6.2627 0.0027 0.0027 6.2627 0.0027 13.9427C0.0027 21.6427 6.2627 27.8927 13.9427 27.8927ZM11.9327 7.5627C11.9727 6.8527 12.1127 6.1227 12.3227 5.4127C12.4527 4.8427 13.0027 4.6027 13.5327 4.9127C14.9827 5.7427 16.1227 6.9327 17.0127 8.5127C16.3627 8.6927 15.7727 9.1027 15.3027 9.7727C14.3327 8.9427 13.1927 8.1727 11.9327 7.5627ZM17.9127 9.3427C19.3027 9.3427 20.4427 10.3527 20.5727 11.4027L22.3827 12.1527C22.8627 12.3627 22.6227 13.0527 22.1727 12.9927L20.1427 12.7027C19.7327 13.1827 19.0627 13.5727 18.2127 13.7627L18.2827 14.3127C18.6927 18.1827 15.7727 19.3427 13.9027 19.4427V22.0627C13.9027 22.3627 13.8327 22.5427 13.4627 22.6827C11.7727 23.2827 9.2527 22.5427 8.4327 21.3027C8.2827 21.0727 8.2127 20.7527 8.4727 20.5527C10.0527 19.0427 11.6527 17.2027 12.6327 14.8027C8.9727 14.5627 6.1927 11.5227 6.4227 8.0127C6.4427 7.6127 6.5227 7.1227 7.1927 7.1727C10.3727 7.4127 13.5627 9.2427 15.5327 11.2827C16.0927 9.9127 16.8727 9.3427 17.9127 9.3427ZM18.1327 11.3027C18.1327 11.5927 18.3627 11.8027 18.6227 11.8027C18.8927 11.8027 19.1227 11.5927 19.1227 11.3027C19.1227 11.0327 18.8927 10.8127 18.6227 10.8127C18.3627 10.8127 18.1327 11.0327 18.1327 11.3027Z"
        fillRule="evenodd"
        clipRule="evenodd"
    />
</svg>
        