<svg viewBox="0 0 31.486328125 30.969343783499934" xmlns="http://www.w3.org/2000/svg"><path d="M6.8237 15.6955H24.6737V14.7455C24.6737 12.0355 23.2837 10.6555 20.5337 10.6555H16.4837V4.9955C17.1137 4.6755 17.5437 3.9655 17.5437 3.1355C17.5437 1.9555 17.1737 1.1955 16.5137 0.4255C16.0737 -0.1245 15.4937 -0.1345 15.0437 0.3455C14.3837 1.1355 13.9637 1.9155 13.9637 3.1355C13.9637 3.9555 14.3737 4.6555 14.9737 4.9755V10.6555H10.9637C8.2337 10.6555 6.8237 12.0355 6.8237 14.7455ZM25.1937 17.5555H6.3037C3.5637 17.5555 2.1637 18.9355 2.1637 21.6455V24.0255H2.6837C4.6237 24.0255 5.5637 22.4355 7.4237 22.4355C9.2437 22.4355 9.9837 24.0255 11.4737 24.0255C13.2237 24.0255 13.8737 22.4355 15.7337 22.4355C17.5937 22.4355 18.2537 24.0255 20.0137 24.0255C21.5037 24.0255 22.2337 22.4355 24.0637 22.4355C25.8937 22.4355 26.8537 24.0255 28.7837 24.0255H29.3237V21.6455C29.3237 18.9355 27.9337 17.5555 25.1937 17.5555ZM1.0937 30.9655H30.3937C30.9937 30.9655 31.4837 30.4655 31.4837 29.8655C31.4837 29.2555 30.9937 28.7655 30.3937 28.7655H29.3237V25.8255H28.7837C26.2337 25.8255 25.3237 24.2455 24.0637 24.2455C22.7737 24.2455 21.8937 25.8255 20.0137 25.8255C18.0437 25.8255 17.0737 24.2455 15.7337 24.2455C14.3837 24.2455 13.4237 25.8255 11.4737 25.8255C9.5837 25.8255 8.6837 24.2455 7.4237 24.2455C6.1437 24.2455 5.2337 25.8255 2.6837 25.8255H2.1637V28.7655H1.0937C0.4937 28.7655 0.0037 29.2555 0.0037 29.8655C0.0037 30.4655 0.4937 30.9655 1.0937 30.9655Z" /></svg>