
<svg
    viewBox={0 0 31.486328125 30.969343783499934}
    xmlns="http://www.w3.org/2000/svg"
>
    <path
        fill="inherit"
        d="M1.0937 30.9655H30.3937C30.9937 30.9655 31.4837 30.4655 31.4837 29.8655C31.4837 29.2555 30.9937 28.7655 30.3937 28.7655H29.3237V21.6455C29.3237 18.9355 27.9337 17.5555 25.1937 17.5555H24.6737V14.7455C24.6737 12.0355 23.2837 10.6555 20.5337 10.6555H16.4837V4.9955C17.1137 4.6755 17.5437 3.9655 17.5437 3.1355C17.5437 1.9555 17.1737 1.1955 16.5137 0.4255C16.0737 -0.1245 15.4937 -0.1345 15.0437 0.3455C14.3837 1.1355 13.9637 1.9155 13.9637 3.1355C13.9637 3.9555 14.3737 4.6555 14.9737 4.9755V10.6555H10.9637C8.2337 10.6555 6.8237 12.0355 6.8237 14.7455V17.5555H6.3037C3.5637 17.5555 2.1637 18.9355 2.1637 21.6455V28.7655H1.0937C0.4937 28.7655 0.0037 29.2555 0.0037 29.8655C0.0037 30.4655 0.4937 30.9655 1.0937 30.9655ZM9.0237 14.8455C9.0237 13.5555 9.7437 12.8555 10.9937 12.8555H20.4937C21.7337 12.8555 22.4737 13.5555 22.4737 14.8455V17.5555H9.0237ZM15.7337 22.3055C13.7937 22.3055 13.1637 23.8355 11.5937 23.8355C10.2837 23.8355 9.5737 22.3055 7.6737 22.3055C6.1937 22.3055 5.3037 23.2455 4.3637 23.6555V21.7655C4.3637 20.4655 5.0837 19.7555 6.3337 19.7555H25.1537C26.4037 19.7555 27.1237 20.4655 27.1237 21.7655V23.6555C26.1837 23.2555 25.2937 22.3055 23.8037 22.3055C21.9037 22.3055 21.1937 23.8355 19.8837 23.8355C18.3037 23.8355 17.6637 22.3055 15.7337 22.3055ZM15.7337 24.4355C16.9237 24.4355 17.8737 25.9655 19.8837 25.9655C21.8237 25.9655 22.6837 24.4355 23.8037 24.4355C24.7737 24.4355 25.5537 25.5855 27.1237 25.8955V28.7655H4.3637V25.8855C5.9237 25.5655 6.7037 24.4355 7.6737 24.4355C8.7737 24.4355 9.6537 25.9655 11.5937 25.9655C13.6037 25.9655 14.5337 24.4355 15.7337 24.4355Z"
        fillRule="evenodd"
        clipRule="evenodd"
    />
</svg>
        