
<svg
    viewBox={0 0 30.544813437289534 27.890625}
    xmlns="http://www.w3.org/2000/svg"
>
    <path
        fill="inherit"
        d="M0.9769 11.3064C-0.0131 11.3064 -0.2531 11.9764 0.2769 12.7464L3.3369 17.0864C3.7869 17.7164 4.4469 17.7064 4.8869 17.0864L7.9269 12.7264C8.4669 11.9764 8.2069 11.3064 7.2469 11.3064H5.2769C6.4669 6.1564 11.0769 2.3264 16.5969 2.3264C23.0269 2.3264 28.2169 7.5164 28.2169 13.9464C28.2169 20.3664 23.0269 25.5664 16.5969 25.5664C12.7169 25.5664 9.2569 23.6564 7.1969 20.7564C6.7669 20.1964 6.1269 20.0164 5.5569 20.3564C5.0069 20.6964 4.8369 21.4664 5.3069 22.0664C7.8369 25.6064 11.9769 27.8864 16.5969 27.8864C24.2969 27.8864 30.5469 21.6464 30.5469 13.9464C30.5469 6.2464 24.2969 -0.0036 16.5969 -0.0036C9.8069 -0.0036 4.1269 4.8664 2.8969 11.3064ZM13.7569 19.9764H14.5069V21.3164C14.5069 21.5764 14.6969 21.7664 14.9769 21.7664C15.2369 21.7664 15.4269 21.5764 15.4269 21.3164V19.9764H16.7269V21.3164C16.7269 21.5764 16.9169 21.7664 17.1769 21.7664C17.4469 21.7664 17.6369 21.5764 17.6369 21.3164V19.9564C19.7869 19.8064 21.3169 18.7064 21.3169 16.6064C21.3169 15.0164 20.1969 13.8464 18.4869 13.6564V13.5764C19.8269 13.3564 20.6969 12.1564 20.6969 10.9464C20.6969 9.1864 19.3869 8.1664 17.6369 7.9864V6.6564C17.6369 6.3664 17.4469 6.1764 17.1769 6.1764C16.9169 6.1764 16.7269 6.3664 16.7269 6.6564V7.9564H15.4269V6.6564C15.4269 6.3664 15.2369 6.1764 14.9769 6.1764C14.6969 6.1764 14.5069 6.3664 14.5069 6.6564V7.9564H13.7569C13.1569 7.9564 12.7569 8.3664 12.7569 8.9564V18.9764C12.7569 19.5764 13.1569 19.9764 13.7569 19.9764ZM14.3669 13.1264V9.2964H16.7369C18.0469 9.2964 19.0869 9.8164 19.0869 11.1464C19.0869 12.6164 17.8269 13.1264 16.3569 13.1264ZM14.3669 18.6164V14.4364H16.7269C18.3269 14.4364 19.6869 14.9464 19.6869 16.5264C19.6869 18.0864 18.4169 18.6164 16.8569 18.6164Z"
        fillRule="evenodd"
        clipRule="evenodd"
    />
</svg>
        