
<svg
    viewBox="0 0 30.5703125 30.5703125"
    xmlns="http://www.w3.org/2000/svg"
>
    <path
        fill="inherit"
        d="M15.2827 30.5663C23.6827 30.5663 30.5727 23.6763 30.5727 15.2863C30.5727 6.8863 23.6827 -0.0038 15.2827 -0.0038C6.8927 -0.0038 0.0027 6.8863 0.0027 15.2863C0.0027 23.6763 6.8927 30.5663 15.2827 30.5663ZM15.2827 25.4862C9.6527 25.4862 5.0827 20.9162 5.0827 15.2863C5.0827 9.6363 9.6527 5.0863 15.2827 5.0863C20.9327 5.0863 25.4827 9.6363 25.4827 15.2863C25.4827 20.9162 20.9327 25.4862 15.2827 25.4862ZM12.4427 21.3163H13.1927V22.6563C13.1927 22.9162 13.3827 23.1063 13.6627 23.1063C13.9227 23.1063 14.1127 22.9162 14.1127 22.6563V21.3163H15.4127V22.6563C15.4127 22.9162 15.6027 23.1063 15.8627 23.1063C16.1427 23.1063 16.3227 22.9162 16.3227 22.6563V21.2963C18.4727 21.1463 20.0027 20.0463 20.0027 17.9463C20.0027 16.3563 18.8827 15.1863 17.1727 14.9963V14.9163C18.5127 14.6963 19.3827 13.4963 19.3827 12.2863C19.3827 10.5262 18.0727 9.5063 16.3227 9.3263V7.9963C16.3227 7.7063 16.1427 7.5163 15.8627 7.5163C15.6027 7.5163 15.4127 7.7063 15.4127 7.9963V9.2963H14.1127V7.9963C14.1127 7.7063 13.9227 7.5163 13.6627 7.5163C13.3827 7.5163 13.1927 7.7063 13.1927 7.9963V9.2963H12.4427C11.8527 9.2963 11.4427 9.7063 11.4427 10.2963V20.3163C11.4427 20.9162 11.8527 21.3163 12.4427 21.3163ZM13.0527 14.4663V10.6363H15.4227C16.7327 10.6363 17.7727 11.1563 17.7727 12.4863C17.7727 13.9563 16.5327 14.4663 15.0427 14.4663ZM13.0527 19.9563V15.7763H15.4127C17.0127 15.7763 18.3727 16.2863 18.3727 17.8663C18.3727 19.4263 17.1027 19.9563 15.5427 19.9563Z"
        fillRule="evenodd"
        clipRule="evenodd"
    />
</svg>
        