
<svg
    viewBox={0 0 25.169921875 25.169921875}
    xmlns="http://www.w3.org/2000/svg"
>
    <path
        fill="inherit"
        d="M4.2937 25.1692H20.8737C23.7437 25.1692 25.1737 23.7592 25.1737 20.9492V4.2392C25.1737 1.4192 23.7437 -0.0008 20.8737 -0.0008H4.2937C1.4337 -0.0008 0.0037 1.4192 0.0037 4.2392V20.9492C0.0037 23.7592 1.4337 25.1692 4.2937 25.1692ZM4.3237 22.9692C2.9537 22.9692 2.2037 22.2392 2.2037 20.8192V4.3592C2.2037 2.9392 2.9537 2.1992 4.3237 2.1992H20.8537C22.2037 2.1992 22.9737 2.9392 22.9737 4.3592V20.8192C22.9737 22.2392 22.2037 22.9692 20.8537 22.9692ZM9.7437 18.6092H10.5037V19.9492C10.5037 20.2092 10.6937 20.3992 10.9637 20.3992C11.2237 20.3992 11.4137 20.2092 11.4137 19.9492V18.6092H12.7137V19.9492C12.7137 20.2092 12.9037 20.3992 13.1637 20.3992C13.4537 20.3992 13.6337 20.2092 13.6337 19.9492V18.5892C15.7737 18.4392 17.3037 17.3392 17.3037 15.2392C17.3037 13.6492 16.1837 12.4792 14.4737 12.2892V12.2092C15.8137 11.9892 16.6937 10.7892 16.6937 9.5792C16.6937 7.8192 15.3837 6.7992 13.6337 6.6192V5.2892C13.6337 4.9992 13.4537 4.8092 13.1637 4.8092C12.9037 4.8092 12.7137 4.9992 12.7137 5.2892V6.5892H11.4137V5.2892C11.4137 4.9992 11.2237 4.8092 10.9637 4.8092C10.6937 4.8092 10.5037 4.9992 10.5037 5.2892V6.5892H9.7437C9.1637 6.5892 8.7537 6.9992 8.7537 7.5892V17.6092C8.7537 18.2092 9.1637 18.6092 9.7437 18.6092ZM10.3637 11.7592V7.9292H12.7237C14.0437 7.9292 15.0837 8.4492 15.0837 9.7792C15.0837 11.2492 13.8337 11.7592 12.3437 11.7592ZM10.3637 17.2492V13.0692H12.7137C14.3137 13.0692 15.6837 13.5792 15.6837 15.1592C15.6837 16.7192 14.4137 17.2492 12.8537 17.2492Z"
        fillRule="evenodd"
        clipRule="evenodd"
    />
</svg>
        