
<svg
    viewBox={0 0 32.935546875 27.26189615322232}
    xmlns="http://www.w3.org/2000/svg"
>
    <path
        fill="inherit"
        d="M32.9327 16.3992C32.9327 7.7792 26.3227 0.7192 17.8927 -0.0008C17.4627 -0.0408 17.1327 0.2792 17.1327 0.7192V5.1892C17.1327 5.5592 17.3927 5.8392 17.7627 5.8692C22.9927 6.5092 27.0727 10.9792 27.0727 16.3992C27.0727 18.8592 26.2227 21.1292 24.7327 23.0292C24.5427 23.2592 24.5527 23.5592 24.7627 23.7792L28.0227 27.0292C28.3327 27.3292 28.7927 27.3292 29.0627 27.0092C31.4827 24.1392 32.9327 20.4292 32.9327 16.3992ZM0.0027 16.3992C0.0027 20.4392 1.4527 24.1492 3.8727 27.0192C4.1427 27.3492 4.5927 27.3292 4.9127 27.0292L8.1727 23.7792C8.3827 23.5592 8.3927 23.2592 8.2027 23.0292C6.7027 21.1292 5.8627 18.8592 5.8627 16.3992C5.8627 10.9792 9.9427 6.5092 15.1727 5.8692C15.5427 5.8392 15.8027 5.5592 15.8027 5.1892V0.7192C15.8027 0.2792 15.4727 -0.0408 15.0427 -0.0008C6.6127 0.7192 0.0027 7.7792 0.0027 16.3992ZM13.6027 22.5992H14.3527V23.9392C14.3527 24.1992 14.5427 24.3992 14.8227 24.3992C15.0927 24.3992 15.2827 24.1992 15.2827 23.9392V22.5992H16.5727V23.9392C16.5727 24.1992 16.7627 24.3992 17.0327 24.3992C17.3127 24.3992 17.5027 24.1992 17.5027 23.9392V22.5892C19.6327 22.4392 21.1627 21.3292 21.1627 19.2492C21.1627 17.6392 20.0427 16.4892 18.3327 16.2892V16.2192C19.6727 15.9992 20.5527 14.7992 20.5527 13.5792C20.5527 11.8292 19.2327 10.7892 17.5027 10.6292V9.2892C17.5027 9.0092 17.3127 8.8192 17.0327 8.8192C16.7627 8.8192 16.5727 9.0092 16.5727 9.2892V10.5992H15.2827V9.2892C15.2827 9.0092 15.0927 8.8192 14.8227 8.8192C14.5427 8.8192 14.3527 9.0092 14.3527 9.2892V10.5992H13.6027C13.0127 10.5992 12.6027 10.9992 12.6027 11.5992V21.6092C12.6027 22.2092 13.0127 22.5992 13.6027 22.5992ZM14.2227 15.7692V11.9292H16.5827C17.8927 11.9292 18.9527 12.4592 18.9527 13.7692C18.9527 15.2492 17.6927 15.7692 16.2027 15.7692ZM14.2227 21.2592V17.0692H16.5727C18.1727 17.0692 19.5327 17.5892 19.5327 19.1592C19.5327 20.7192 18.2627 21.2592 16.7027 21.2592Z"
        fillRule="evenodd"
        clipRule="evenodd"
    />
</svg>
        