
<svg
    viewBox={0 0 30.529296875 29.17578125}
    xmlns="http://www.w3.org/2000/svg"
>
    <path
        fill="inherit"
        d="M1.0937 29.179H29.4237C30.0237 29.179 30.5337 28.669 30.5337 28.069C30.5337 27.469 30.0237 26.979 29.4237 26.979H28.7137V25.979C28.7137 25.429 28.3937 25.099 27.8337 25.099H26.9637V9.379H28.1637C28.9137 9.379 29.3537 8.829 29.3537 8.269C29.3537 7.859 29.1237 7.509 28.6137 7.219L16.9437 0.479C16.3937 0.169 15.8137 -0.001 15.2537 -0.001C14.6937 -0.001 14.1137 0.169 13.5937 0.479L1.9137 7.219C1.3937 7.509 1.1737 7.859 1.1737 8.269C1.1737 8.829 1.6137 9.379 2.3637 9.379H3.5637V25.099H2.7037C2.1437 25.099 1.8137 25.429 1.8137 25.979V26.979H1.0937C0.4937 26.979 0.0037 27.469 0.0037 28.069C0.0037 28.669 0.4937 29.179 1.0937 29.179ZM12.3337 21.829C11.7037 21.829 11.2937 21.409 11.2937 20.799V10.469C11.2937 9.839 11.7037 9.429 12.3337 9.429H13.0937V8.079C13.0937 7.789 13.2937 7.599 13.5737 7.599C13.8537 7.599 14.0437 7.789 14.0437 8.079V9.429H15.3837V8.079C15.3837 7.789 15.5837 7.599 15.8437 7.599C16.1337 7.599 16.3337 7.789 16.3337 8.079V9.459C18.1337 9.639 19.4937 10.719 19.4937 12.509C19.4937 13.769 18.5937 15.009 17.2137 15.229V15.309C18.9637 15.519 20.1237 16.709 20.1237 18.359C20.1237 20.509 18.5537 21.659 16.3337 21.819V23.219C16.3337 23.489 16.1337 23.679 15.8437 23.679C15.5837 23.679 15.3837 23.489 15.3837 23.219V21.829H14.0437V23.219C14.0437 23.489 13.8537 23.679 13.5737 23.679C13.2937 23.679 13.0937 23.489 13.0937 23.219V21.829ZM12.9637 14.769H14.9937C16.5337 14.769 17.8137 14.249 17.8137 12.719C17.8137 11.359 16.7437 10.799 15.3937 10.799H12.9637ZM12.9637 20.439H15.5337C17.1337 20.439 18.4437 19.879 18.4437 18.269C18.4437 16.639 17.0337 16.109 15.3637 16.109H12.9637Z"
        fillRule="evenodd"
        clipRule="evenodd"
    />
</svg>
        