<svg viewBox="0 0 27.890625 27.890625" xmlns="http://www.w3.org/2000/svg"><path d="M13.9427 27.8864C21.6427 27.8864 27.8927 21.6264 27.8927 13.9464C27.8927 6.2464 21.6427 -0.0036 13.9427 -0.0036C6.2627 -0.0036 0.0027 6.2464 0.0027 13.9464C0.0027 21.6264 6.2627 27.8864 13.9427 27.8864ZM11.0027 20.1664C10.3727 20.1664 9.9627 19.7564 9.9627 19.1264V8.8064C9.9627 8.1864 10.3727 7.7664 11.0027 7.7664H11.7727V6.4264C11.7727 6.1264 11.9627 5.9364 12.2527 5.9364C12.5227 5.9364 12.7127 6.1264 12.7127 6.4264V7.7664H14.0527V6.4264C14.0527 6.1264 14.2627 5.9364 14.5227 5.9364C14.8027 5.9364 15.0127 6.1264 15.0127 6.4264V7.8064C16.8027 7.9864 18.1727 9.0464 18.1727 10.8564C18.1727 12.0964 17.2627 13.3464 15.8827 13.5664V13.6464C17.6527 13.8464 18.8027 15.0364 18.8027 16.6964C18.8027 18.8564 17.2227 19.9864 15.0127 20.1564V21.5464C15.0127 21.8164 14.8027 22.0164 14.5227 22.0164C14.2627 22.0164 14.0527 21.8164 14.0527 21.5464V20.1664H12.7127V21.5464C12.7127 21.8164 12.5227 22.0164 12.2527 22.0164C11.9627 22.0164 11.7727 21.8164 11.7727 21.5464V20.1664ZM11.6327 13.0964H13.6727C15.2027 13.0964 16.4927 12.5764 16.4927 11.0564C16.4927 9.6964 15.4227 9.1464 14.0727 9.1464H11.6327ZM11.6327 18.7764H14.2027C15.8027 18.7764 17.1127 18.2064 17.1127 16.6064C17.1127 14.9664 15.7127 14.4464 14.0527 14.4464H11.6327Z" /></svg>