
<svg
    viewBox="0 0 32.935546875 27.33018496744969"
    xmlns="http://www.w3.org/2000/svg"
>
    <path
        fill="inherit"
        d="M16.4627 5.864C18.9327 5.864 21.2027 6.724 23.0227 8.134C23.2927 8.354 23.6527 8.324 23.9127 8.064L27.0827 4.894C27.4027 4.584 27.3827 4.124 27.0527 3.854C24.2027 1.454 20.4927 0.004 16.4627 0.004C12.4427 0.004 8.7327 1.454 5.8827 3.854C5.5527 4.124 5.5327 4.584 5.8527 4.894L9.0227 8.064C9.2827 8.324 9.6527 8.354 9.9527 8.124C11.7627 6.724 14.0127 5.864 16.4627 5.864ZM0.0027 16.464C0.0027 20.494 1.4527 24.204 3.8727 27.074C4.1427 27.414 4.6027 27.414 4.9127 27.094L8.1627 23.844C8.3627 23.624 8.3927 23.324 8.2027 23.094C6.7127 21.194 5.8627 18.924 5.8627 16.464C5.8627 14.014 6.7027 11.744 8.1227 9.944C8.3427 9.654 8.3427 9.284 8.0827 9.024L4.9127 5.854C4.5927 5.534 4.1427 5.534 3.8727 5.864C1.4527 8.734 0.0027 12.444 0.0027 16.464ZM32.9327 16.464C32.9327 12.444 31.4827 8.734 29.0627 5.864C28.7927 5.534 28.3327 5.534 28.0227 5.854L24.8527 9.024C24.5927 9.284 24.5827 9.654 24.8127 9.944C26.2227 11.744 27.0727 14.014 27.0727 16.464C27.0727 18.924 26.2227 21.194 24.7327 23.094C24.5427 23.324 24.5527 23.624 24.7627 23.844L28.0127 27.094C28.3327 27.414 28.7827 27.414 29.0627 27.074C31.4827 24.204 32.9327 20.494 32.9327 16.464ZM13.6027 22.664H14.3527V24.004C14.3527 24.264 14.5427 24.464 14.8227 24.464C15.0927 24.464 15.2827 24.264 15.2827 24.004V22.664H16.5727V24.004C16.5727 24.264 16.7627 24.464 17.0327 24.464C17.3127 24.464 17.5027 24.264 17.5027 24.004V22.654C19.6327 22.504 21.1627 21.394 21.1627 19.314C21.1627 17.704 20.0427 16.554 18.3327 16.354V16.284C19.6727 16.064 20.5527 14.864 20.5527 13.644C20.5527 11.894 19.2327 10.854 17.5027 10.694V9.354C17.5027 9.074 17.3127 8.884 17.0327 8.884C16.7627 8.884 16.5727 9.074 16.5727 9.354V10.664H15.2827V9.354C15.2827 9.074 15.0927 8.884 14.8227 8.884C14.5427 8.884 14.3527 9.074 14.3527 9.354V10.664H13.6027C13.0127 10.664 12.6027 11.064 12.6027 11.664V21.674C12.6027 22.274 13.0127 22.664 13.6027 22.664ZM14.2227 15.834V11.994H16.5827C17.8927 11.994 18.9527 12.524 18.9527 13.834C18.9527 15.314 17.6927 15.834 16.2027 15.834ZM14.2227 21.324V17.134H16.5727C18.1727 17.134 19.5327 17.654 19.5327 19.224C19.5327 20.784 18.2627 21.324 16.7027 21.324Z"
        fillRule="evenodd"
        clipRule="evenodd"
    />
</svg>
        