
<svg
    viewBox="0 0 27.890625 27.890625"
    xmlns="http://www.w3.org/2000/svg"
>
    <path
        fill="inherit"
        d="M13.9427 27.8864C21.6427 27.8864 27.8927 21.6464 27.8927 13.9464C27.8927 6.2464 21.6427 -0.0036 13.9427 -0.0036C6.2527 -0.0036 0.0027 6.2464 0.0027 13.9464C0.0027 21.6464 6.2527 27.8864 13.9427 27.8864ZM13.9427 25.5664C7.5227 25.5664 2.3227 20.3664 2.3227 13.9464C2.3227 7.5164 7.5227 2.3264 13.9427 2.3264C20.3727 2.3264 25.5627 7.5164 25.5627 13.9464C25.5627 20.3664 20.3727 25.5664 13.9427 25.5664ZM11.0927 19.9764H11.8427V21.3164C11.8427 21.5764 12.0327 21.7664 12.3027 21.7664C12.5627 21.7664 12.7527 21.5764 12.7527 21.3164V19.9764H14.0527V21.3164C14.0527 21.5764 14.2427 21.7664 14.5027 21.7664C14.7827 21.7664 14.9727 21.5764 14.9727 21.3164V19.9564C17.1127 19.8064 18.6527 18.7064 18.6527 16.6064C18.6527 15.0164 17.5227 13.8464 15.8227 13.6564V13.5764C17.1627 13.3564 18.0327 12.1564 18.0327 10.9464C18.0327 9.1864 16.7227 8.1664 14.9727 7.9864V6.6564C14.9727 6.3664 14.7827 6.1764 14.5027 6.1764C14.2427 6.1764 14.0527 6.3664 14.0527 6.6564V7.9564H12.7527V6.6564C12.7527 6.3664 12.5627 6.1764 12.3027 6.1764C12.0327 6.1764 11.8427 6.3664 11.8427 6.6564V7.9564H11.0927C10.4827 7.9564 10.0927 8.3664 10.0927 8.9564V18.9764C10.0927 19.5764 10.4827 19.9764 11.0927 19.9764ZM11.7027 13.1264V9.2964H14.0727C15.3827 9.2964 16.4227 9.8164 16.4227 11.1464C16.4227 12.6164 15.1627 13.1264 13.6827 13.1264ZM11.7027 18.6164V14.4364H14.0527C15.6527 14.4364 17.0227 14.9464 17.0227 16.5264C17.0227 18.0864 15.7527 18.6164 14.1927 18.6164Z"
        fillRule="evenodd"
        clipRule="evenodd"
    />
</svg>
        