
<svg
    viewBox="0 0 25.169921875 25.169921875"
    xmlns="http://www.w3.org/2000/svg"
>
    <path
        fill="inherit"
        d="M4.2937 25.1692H20.8737C23.7437 25.1692 25.1737 23.7592 25.1737 20.9492V4.2392C25.1737 1.4192 23.7437 -0.0008 20.8737 -0.0008H4.2937C1.4337 -0.0008 0.0037 1.4192 0.0037 4.2392V20.9492C0.0037 23.7592 1.4337 25.1692 4.2937 25.1692ZM9.6537 18.7992C9.0337 18.7992 8.6137 18.3892 8.6137 17.7592V7.4392C8.6137 6.8192 9.0337 6.3992 9.6537 6.3992H10.4137V5.0592C10.4137 4.7592 10.6137 4.5692 10.8937 4.5692C11.1737 4.5692 11.3637 4.7592 11.3637 5.0592V6.3992H12.7037V5.0592C12.7037 4.7592 12.9037 4.5692 13.1637 4.5692C13.4637 4.5692 13.6537 4.7592 13.6537 5.0592V6.4392C15.4537 6.6192 16.8137 7.6792 16.8137 9.4892C16.8137 10.7292 15.9137 11.9792 14.5337 12.1992V12.2792C16.2937 12.4792 17.4437 13.6692 17.4437 15.3292C17.4437 17.4892 15.8737 18.6192 13.6537 18.7892V20.1792C13.6537 20.4492 13.4637 20.6492 13.1637 20.6492C12.9037 20.6492 12.7037 20.4492 12.7037 20.1792V18.7992H11.3637V20.1792C11.3637 20.4492 11.1737 20.6492 10.8937 20.6492C10.6137 20.6492 10.4137 20.4492 10.4137 20.1792V18.7992ZM10.2837 11.7292H12.3137C13.8637 11.7292 15.1337 11.2092 15.1337 9.6892C15.1337 8.3292 14.0637 7.7792 12.7137 7.7792H10.2837ZM10.2837 17.4092H12.8537C14.4537 17.4092 15.7637 16.8392 15.7637 15.2392C15.7637 13.5992 14.3537 13.0792 12.7037 13.0792H10.2837Z"
        fillRule="evenodd"
        clipRule="evenodd"
    />
</svg>
        