
<svg
    viewBox={0 0 30.529296875 29.17578125}
    xmlns="http://www.w3.org/2000/svg"
>
    <path
        fill="inherit"
        d="M1.8137 25.919H28.7137V25.009C28.7137 24.459 28.3937 24.129 27.8337 24.129H26.9637V9.379H28.1637C28.9137 9.379 29.3537 8.829 29.3537 8.269C29.3537 7.859 29.1237 7.509 28.6137 7.219L16.9437 0.479C16.3937 0.169 15.8137 -0.001 15.2537 -0.001C14.6937 -0.001 14.1137 0.169 13.5937 0.479L1.9137 7.219C1.3937 7.509 1.1737 7.859 1.1737 8.269C1.1737 8.829 1.6137 9.379 2.3637 9.379H3.5637V24.129H2.7037C2.1437 24.129 1.8137 24.459 1.8137 25.009ZM5.6337 24.129V7.629L14.7237 2.529C14.8937 2.429 15.0837 2.379 15.2537 2.379C15.4337 2.379 15.6237 2.429 15.8037 2.529L24.8937 7.629V24.129ZM12.4237 20.409H13.1837V21.749C13.1837 22.009 13.3737 22.199 13.6437 22.199C13.9037 22.199 14.0937 22.009 14.0937 21.749V20.409H15.3937V21.749C15.3937 22.009 15.5837 22.199 15.8437 22.199C16.1237 22.199 16.3137 22.009 16.3137 21.749V20.399C18.4537 20.249 19.9837 19.139 19.9837 17.059C19.9837 15.449 18.8537 14.299 17.1537 14.099V14.029C18.4937 13.809 19.3737 12.609 19.3737 11.389C19.3737 9.639 18.0637 8.599 16.3137 8.439V7.099C16.3137 6.819 16.1237 6.629 15.8437 6.629C15.5837 6.629 15.3937 6.819 15.3937 7.099V8.409H14.0937V7.099C14.0937 6.819 13.9037 6.629 13.6437 6.629C13.3737 6.629 13.1837 6.819 13.1837 7.099V8.409H12.4237C11.8237 8.409 11.4337 8.809 11.4337 9.409V19.419C11.4337 20.019 11.8237 20.409 12.4237 20.409ZM13.0437 13.579V9.739H15.4037C16.7237 9.739 17.7637 10.269 17.7637 11.579C17.7637 13.059 16.5037 13.579 15.0237 13.579ZM13.0437 19.069V14.879H15.3837C16.9937 14.879 18.3637 15.399 18.3637 16.969C18.3637 18.529 17.0937 19.069 15.5337 19.069ZM1.0937 29.179H29.4237C30.0237 29.179 30.5337 28.669 30.5337 28.069C30.5337 27.469 30.0237 26.979 29.4237 26.979H1.0937C0.4937 26.979 0.0037 27.469 0.0037 28.069C0.0037 28.669 0.4937 29.179 1.0937 29.179Z"
        fillRule="evenodd"
        clipRule="evenodd"
    />
</svg>
        