
<svg
    viewBox={0 0 16.748046875 31.185546875}
    xmlns="http://www.w3.org/2000/svg"
>
    <path
        fill="inherit"
        d="M1.7537 27.5507H3.3337V30.2807C3.3337 30.8007 3.7037 31.1807 4.2337 31.1807C4.7737 31.1807 5.1437 30.8007 5.1437 30.2807V27.5507H7.7137V30.2807C7.7137 30.8007 8.0937 31.1807 8.6237 31.1807C9.1337 31.1807 9.5037 30.8007 9.5037 30.2807V27.5107C13.6037 27.2107 16.7437 25.1307 16.7437 20.8907C16.7437 17.6607 14.4737 15.3507 11.0837 14.9607V14.8107C13.6437 14.3507 15.5037 12.0607 15.5037 9.4707C15.5037 6.0407 12.9637 3.9507 9.5037 3.5807V0.8907C9.5037 0.3707 9.1337 0.0007 8.6237 0.0007C8.0937 0.0007 7.7137 0.3707 7.7137 0.8907V3.5307H5.1437V0.8907C5.1437 0.3707 4.7737 0.0007 4.2337 0.0007C3.7037 0.0007 3.3337 0.3707 3.3337 0.8907V3.5307H1.7537C0.6937 3.5307 0.0037 4.2407 0.0037 5.2807V25.8007C0.0037 26.7807 0.6337 27.5507 1.7537 27.5507ZM2.7037 13.9907V5.8907H7.7837C10.5637 5.8907 12.7737 7.0507 12.7737 9.7707C12.7737 12.8607 10.1037 13.9907 7.0137 13.9907ZM2.7037 25.1807V16.3407H7.6837C11.0637 16.3407 13.9837 17.4007 13.9837 20.7507C13.9837 24.0107 11.2937 25.1807 7.9937 25.1807Z"
        fillRule="evenodd"
        clipRule="evenodd"
    />
</svg>
        