<svg viewBox="0 0 29.025390625 27.91796875" xmlns="http://www.w3.org/2000/svg"><path d="M0.0027 1.0901C0.0027 1.7001 0.5027 2.2001 1.1027 2.2001H27.9227C28.5227 2.2001 29.0227 1.7001 29.0227 1.0901C29.0227 0.4901 28.5227 0.0001 27.9227 0.0001H1.1027C0.5027 0.0001 0.0027 0.4901 0.0027 1.0901ZM1.1027 5.3701C1.6127 5.3701 2.0327 4.9501 2.0327 4.4401C2.0327 3.9201 1.6127 3.5101 1.1027 3.5101C0.5927 3.5101 0.1627 3.9201 0.1627 4.4401C0.1627 4.9501 0.5927 5.3701 1.1027 5.3701ZM4.2927 6.4701H25.0727C25.7427 6.4701 26.1527 6.3201 26.5127 5.9701L27.6827 4.8101C28.0727 4.4401 27.9427 3.6801 27.2727 3.6801H6.4927C5.8227 3.6801 5.4127 3.8301 5.0627 4.1701L3.8827 5.3301C3.5027 5.7001 3.6227 6.4701 4.2927 6.4701ZM1.1027 8.5401C1.6127 8.5401 2.0327 8.1101 2.0327 7.6001C2.0327 7.1001 1.6127 6.6701 1.1027 6.6701C0.5927 6.6701 0.1627 7.1001 0.1627 7.6001C0.1627 8.1101 0.5927 8.5401 1.1027 8.5401ZM1.1027 11.7001C1.6127 11.7001 2.0327 11.2801 2.0327 10.7701C2.0327 10.2501 1.6127 9.8401 1.1027 9.8401C0.5927 9.8401 0.1627 10.2501 0.1627 10.7701C0.1627 11.2801 0.5927 11.7001 1.1027 11.7001ZM4.2927 13.5201H25.0727C25.7427 13.5201 26.1527 13.3801 26.5127 13.0401L27.6827 11.8701C28.0727 11.5101 27.9427 10.7501 27.2727 10.7501H6.4927C5.8227 10.7501 5.4127 10.9001 5.0627 11.2401L3.8827 12.4001C3.5027 12.7701 3.6227 13.5201 4.2927 13.5201ZM1.1027 14.8701C1.6127 14.8701 2.0327 14.4401 2.0327 13.9301C2.0327 13.4301 1.6127 13.0001 1.1027 13.0001C0.5927 13.0001 0.1627 13.4301 0.1627 13.9301C0.1627 14.4401 0.5927 14.8701 1.1027 14.8701ZM1.1027 18.0301C1.6127 18.0301 2.0327 17.6101 2.0327 17.1001C2.0327 16.5801 1.6127 16.1701 1.1027 16.1701C0.5927 16.1701 0.1627 16.5801 0.1627 17.1001C0.1627 17.6101 0.5927 18.0301 1.1027 18.0301ZM4.2927 20.5501H25.0727C25.7427 20.5501 26.1527 20.4001 26.5127 20.0401L27.6827 18.8801C28.0727 18.5301 27.9427 17.7701 27.2727 17.7701H6.4927C5.8227 17.7701 5.4127 17.9101 5.0627 18.2701L3.8827 19.4301C3.5027 19.8001 3.6227 20.5501 4.2927 20.5501ZM1.1027 21.2001C1.6127 21.2001 2.0327 20.7701 2.0327 20.2601C2.0327 19.7601 1.6127 19.3301 1.1027 19.3301C0.5927 19.3301 0.1627 19.7601 0.1627 20.2601C0.1627 20.7701 0.5927 21.2001 1.1027 21.2001ZM1.1027 27.9201C1.6927 27.9201 2.2027 27.4301 2.2027 26.8201V23.6001C2.2027 23.0001 1.7127 22.5001 1.1027 22.5001C0.5027 22.5001 0.0027 23.0001 0.0027 23.6001V26.8201C0.0027 27.4301 0.5027 27.9201 1.1027 27.9201ZM4.2927 27.6201H25.0727C25.7427 27.6201 26.1527 27.4501 26.5127 27.1001L27.6827 25.9401C28.0727 25.5801 27.9427 24.8101 27.2727 24.8101H6.4927C5.8227 24.8101 5.4127 24.9601 5.0627 25.3201L3.8827 26.4801C3.5027 26.8501 3.6227 27.6201 4.2927 27.6201Z" /></svg>