<svg viewBox="0 0 29.025390625 27.91796875" xmlns="http://www.w3.org/2000/svg"><path d="M0.0027 1.0901C0.0027 1.7001 0.5027 2.2001 1.1027 2.2001H27.9227C28.5227 2.2001 29.0227 1.7001 29.0227 1.0901C29.0227 0.4901 28.5227 0.0001 27.9227 0.0001H1.1027C0.5027 0.0001 0.0027 0.4901 0.0027 1.0901ZM5.4027 27.9201H8.3627C8.9527 27.9201 9.3427 27.5401 9.3427 26.9301V4.4201C9.3427 3.8101 8.9527 3.4301 8.3627 3.4301H5.4027C4.8227 3.4301 4.4427 3.8101 4.4427 4.4201V26.9301C4.4427 27.5401 4.8227 27.9201 5.4027 27.9201ZM11.5927 27.9201H14.5727C15.1327 27.9201 15.5127 27.5401 15.5127 26.9301V4.4201C15.5127 3.8101 15.1327 3.4301 14.5727 3.4301H11.5927C11.0027 3.4301 10.6227 3.8101 10.6227 4.4201V26.9301C10.6227 27.5401 11.0027 27.9201 11.5927 27.9201ZM17.7727 27.9201H20.7527C21.3427 27.9201 21.7227 27.5401 21.7227 26.9301V4.4201C21.7227 3.8101 21.3427 3.4301 20.7527 3.4301H17.7727C17.2127 3.4301 16.8327 3.8101 16.8327 4.4201V26.9301C16.8327 27.5401 17.2127 27.9201 17.7727 27.9201ZM23.9827 27.9201H26.9427C27.5227 27.9201 27.9027 27.5401 27.9027 26.9301V4.4201C27.9027 3.8101 27.5227 3.4301 26.9427 3.4301H23.9827C23.4027 3.4301 23.0127 3.8101 23.0127 4.4201V26.9301C23.0127 27.5401 23.4027 27.9201 23.9827 27.9201ZM1.1027 5.3701C1.6127 5.3701 2.0327 4.9501 2.0327 4.4401C2.0327 3.9201 1.6127 3.5101 1.1027 3.5101C0.5927 3.5101 0.1627 3.9201 0.1627 4.4401C0.1627 4.9501 0.5927 5.3701 1.1027 5.3701ZM1.1027 8.5401C1.6127 8.5401 2.0327 8.1101 2.0327 7.6001C2.0327 7.1001 1.6127 6.6701 1.1027 6.6701C0.5927 6.6701 0.1627 7.1001 0.1627 7.6001C0.1627 8.1101 0.5927 8.5401 1.1027 8.5401ZM1.1027 11.7001C1.6127 11.7001 2.0327 11.2801 2.0327 10.7701C2.0327 10.2501 1.6127 9.8401 1.1027 9.8401C0.5927 9.8401 0.1627 10.2501 0.1627 10.7701C0.1627 11.2801 0.5927 11.7001 1.1027 11.7001ZM1.1027 14.8701C1.6127 14.8701 2.0327 14.4401 2.0327 13.9301C2.0327 13.4301 1.6127 13.0001 1.1027 13.0001C0.5927 13.0001 0.1627 13.4301 0.1627 13.9301C0.1627 14.4401 0.5927 14.8701 1.1027 14.8701ZM1.1027 18.0301C1.6127 18.0301 2.0327 17.6101 2.0327 17.1001C2.0327 16.5801 1.6127 16.1701 1.1027 16.1701C0.5927 16.1701 0.1627 16.5801 0.1627 17.1001C0.1627 17.6101 0.5927 18.0301 1.1027 18.0301ZM1.1027 21.2001C1.6127 21.2001 2.0327 20.7701 2.0327 20.2601C2.0327 19.7601 1.6127 19.3301 1.1027 19.3301C0.5927 19.3301 0.1627 19.7601 0.1627 20.2601C0.1627 20.7701 0.5927 21.2001 1.1027 21.2001ZM1.1027 27.9201C1.6927 27.9201 2.2027 27.4301 2.2027 26.8201V23.6001C2.2027 23.0001 1.7127 22.5001 1.1027 22.5001C0.5027 22.5001 0.0027 23.0001 0.0027 23.6001V26.8201C0.0027 27.4301 0.5027 27.9201 1.1027 27.9201Z" /></svg>