
<svg
    viewBox={0 0 29.025390625 27.931406730848813}
    xmlns="http://www.w3.org/2000/svg"
>
    <path
        fill="inherit"
        d="M0.0027 1.0901C0.0027 1.7001 0.5027 2.2001 1.1027 2.2001H27.9227C28.5227 2.2001 29.0227 1.7001 29.0227 1.0901C29.0227 0.4901 28.5227 0.0001 27.9227 0.0001H1.1027C0.5027 0.0001 0.0027 0.4901 0.0027 1.0901ZM4.4427 25.1201C4.4427 25.7701 4.5927 26.2001 4.9327 26.5401L6.1027 27.7301C6.4627 28.1001 7.2327 27.9701 7.2327 27.3001V6.2601C7.2327 5.5901 7.0827 5.1801 6.7427 4.8301L5.5827 3.6501C5.2127 3.2701 4.4427 3.3901 4.4427 4.0601ZM11.3527 25.1201C11.3527 25.7701 11.4827 26.2001 11.8427 26.5401L13.0027 27.7301C13.3727 28.1001 14.1227 27.9701 14.1227 27.3001V6.2601C14.1227 5.5901 13.9827 5.1801 13.6327 4.8301L12.4727 3.6501C12.1027 3.2701 11.3527 3.3901 11.3527 4.0601ZM18.2427 25.1201C18.2427 25.7701 18.3927 26.2001 18.7327 26.5401L19.8927 27.7301C20.2627 28.1001 21.0227 27.9701 21.0227 27.3001V6.2601C21.0227 5.5901 20.8727 5.1801 20.5327 4.8301L19.3727 3.6501C19.0027 3.2701 18.2427 3.3901 18.2427 4.0601ZM25.1427 25.1201C25.1427 25.7701 25.2827 26.2001 25.6327 26.5401L26.7927 27.7301C27.1627 28.1001 27.9227 27.9701 27.9227 27.3001V6.2601C27.9227 5.5901 27.7827 5.1801 27.4227 4.8301L26.2627 3.6501C25.8927 3.2701 25.1427 3.3901 25.1427 4.0601ZM1.1027 5.3701C1.6127 5.3701 2.0327 4.9501 2.0327 4.4401C2.0327 3.9201 1.6127 3.5101 1.1027 3.5101C0.5927 3.5101 0.1627 3.9201 0.1627 4.4401C0.1627 4.9501 0.5927 5.3701 1.1027 5.3701ZM1.1027 8.5401C1.6127 8.5401 2.0327 8.1101 2.0327 7.6001C2.0327 7.1001 1.6127 6.6701 1.1027 6.6701C0.5927 6.6701 0.1627 7.1001 0.1627 7.6001C0.1627 8.1101 0.5927 8.5401 1.1027 8.5401ZM1.1027 11.7001C1.6127 11.7001 2.0327 11.2801 2.0327 10.7701C2.0327 10.2501 1.6127 9.8401 1.1027 9.8401C0.5927 9.8401 0.1627 10.2501 0.1627 10.7701C0.1627 11.2801 0.5927 11.7001 1.1027 11.7001ZM1.1027 14.8701C1.6127 14.8701 2.0327 14.4401 2.0327 13.9301C2.0327 13.4301 1.6127 13.0001 1.1027 13.0001C0.5927 13.0001 0.1627 13.4301 0.1627 13.9301C0.1627 14.4401 0.5927 14.8701 1.1027 14.8701ZM1.1027 18.0301C1.6127 18.0301 2.0327 17.6101 2.0327 17.1001C2.0327 16.5801 1.6127 16.1701 1.1027 16.1701C0.5927 16.1701 0.1627 16.5801 0.1627 17.1001C0.1627 17.6101 0.5927 18.0301 1.1027 18.0301ZM1.1027 21.2001C1.6127 21.2001 2.0327 20.7701 2.0327 20.2601C2.0327 19.7601 1.6127 19.3301 1.1027 19.3301C0.5927 19.3301 0.1627 19.7601 0.1627 20.2601C0.1627 20.7701 0.5927 21.2001 1.1027 21.2001ZM1.1027 27.9201C1.6927 27.9201 2.2027 27.4301 2.2027 26.8201V23.6001C2.2027 23.0001 1.7127 22.5001 1.1027 22.5001C0.5027 22.5001 0.0027 23.0001 0.0027 23.6001V26.8201C0.0027 27.4301 0.5027 27.9201 1.1027 27.9201Z"
        fillRule="evenodd"
        clipRule="evenodd"
    />
</svg>
        