
<svg
    viewBox="0 0 16.255859375 19.55078125"
    xmlns="http://www.w3.org/2000/svg"
>
    <path
        fill="inherit"
        d="M2.3137 19.5465H9.4337C13.6137 19.5465 16.2537 17.3465 16.2537 13.9765C16.2537 11.3065 14.3237 9.3765 11.5537 9.2265V9.1165C13.8237 8.8065 15.3637 7.0965 15.3637 4.9265C15.3637 1.8765 13.0337 -0.0035 9.2437 -0.0035H2.3137C0.8437 -0.0035 0.0037 0.8565 0.0037 2.3665V17.1965C0.0037 18.6865 0.8437 19.5465 2.3137 19.5465ZM4.5137 8.1165V3.2165H7.8737C9.7937 3.2165 10.9237 4.0865 10.9237 5.5965C10.9237 7.1765 9.6637 8.1165 7.5337 8.1165ZM4.5137 16.3965V10.9665H7.9437C10.3337 10.9665 11.6737 11.8965 11.6737 13.6465C11.6737 15.4365 10.3937 16.3965 8.0437 16.3965Z"
        fillRule="evenodd"
        clipRule="evenodd"
    />
</svg>
        