
<svg
    viewBox={0 0 36.572265625 24.41796875}
    xmlns="http://www.w3.org/2000/svg"
>
    <path
        fill="inherit"
        d="M28.6137 20.2209C33.5337 20.2209 36.5737 17.2709 36.5737 12.9709V1.2609C36.5737 0.4909 36.0637 0.0009 35.3037 0.0009C34.5337 0.0009 34.0437 0.4909 34.0437 1.2609V12.7709C34.0437 15.8209 32.0337 17.8809 28.6137 17.8809C25.1937 17.8809 23.1837 15.8209 23.1837 12.7709V1.2609C23.1837 0.4909 22.6637 0.0009 21.9037 0.0009C21.1337 0.0009 20.6537 0.4909 20.6537 1.2609V12.9709C20.6537 17.2709 23.6937 20.2209 28.6137 20.2209ZM2.3137 19.8609H9.4337C13.6137 19.8609 16.2537 17.6609 16.2537 14.2909C16.2537 11.6209 14.3237 9.6909 11.5537 9.5409V9.4309C13.8237 9.1209 15.3637 7.4109 15.3637 5.2409C15.3637 2.1909 13.0337 0.3109 9.2437 0.3109H2.3137C0.8437 0.3109 0.0037 1.1709 0.0037 2.6809V17.5109C0.0037 19.0009 0.8437 19.8609 2.3137 19.8609ZM4.5137 8.4309V3.5309H7.8737C9.7937 3.5309 10.9237 4.4009 10.9237 5.9109C10.9237 7.4909 9.6637 8.4309 7.5337 8.4309ZM4.5137 16.7109V11.2809H7.9437C10.3337 11.2809 11.6737 12.2109 11.6737 13.9609C11.6737 15.7509 10.3937 16.7109 8.0437 16.7109ZM21.4637 24.4209H35.7637C36.2037 24.4209 36.5737 24.0809 36.5737 23.6109C36.5737 23.1509 36.2037 22.7909 35.7637 22.7909H21.4637C21.0237 22.7909 20.6537 23.1509 20.6537 23.6109C20.6537 24.0809 21.0237 24.4209 21.4637 24.4209Z"
        fillRule="evenodd"
        clipRule="evenodd"
    />
</svg>
        