<svg viewBox="0 0 52.390625 24.41796875" xmlns="http://www.w3.org/2000/svg"><path d="M44.4237 20.2209C49.3537 20.2209 52.3937 17.2709 52.3937 12.9709V1.2609C52.3937 0.4909 51.8837 0.0009 51.1237 0.0009C50.3437 0.0009 49.8637 0.4909 49.8637 1.2609V12.7709C49.8637 15.8209 47.8537 17.8809 44.4237 17.8809C41.0137 17.8809 38.9937 15.8209 38.9937 12.7709V1.2609C38.9937 0.4909 38.4837 0.0009 37.7237 0.0009C36.9537 0.0009 36.4637 0.4909 36.4637 1.2609V12.9709C36.4637 17.2709 39.5137 20.2209 44.4237 20.2209ZM19.3737 19.8609H28.0137C28.6537 19.8609 29.1037 19.4709 29.1037 18.8309C29.1037 18.2109 28.6737 17.8109 28.0237 17.8109H24.9537L28.2737 2.3609H31.3337C31.9737 2.3609 32.4337 1.9709 32.4337 1.3309C32.4337 0.7109 31.9937 0.3109 31.3537 0.3109H22.6837C22.0437 0.3109 21.6037 0.7109 21.6037 1.3309C21.6037 1.9709 22.0537 2.3609 22.6937 2.3609H25.7437L22.4237 17.8109H19.3637C18.7137 17.8109 18.2637 18.2109 18.2637 18.8309C18.2637 19.4709 18.7337 19.8609 19.3737 19.8609ZM2.3137 19.8609H9.4337C13.6137 19.8609 16.2537 17.6609 16.2537 14.2909C16.2537 11.6209 14.3237 9.6909 11.5537 9.5409V9.4309C13.8237 9.1209 15.3637 7.4109 15.3637 5.2409C15.3637 2.1909 13.0337 0.3109 9.2437 0.3109H2.3137C0.8437 0.3109 0.0037 1.1709 0.0037 2.6809V17.5109C0.0037 19.0009 0.8437 19.8609 2.3137 19.8609ZM4.5137 8.4309V3.5309H7.8737C9.7937 3.5309 10.9237 4.4009 10.9237 5.9109C10.9237 7.4909 9.6637 8.4309 7.5337 8.4309ZM4.5137 16.7109V11.2809H7.9437C10.3337 11.2809 11.6737 12.2109 11.6737 13.9609C11.6737 15.7509 10.3937 16.7109 8.0437 16.7109ZM37.2737 24.4209H51.5737C52.0237 24.4209 52.3937 24.0809 52.3937 23.6109C52.3937 23.1509 52.0237 22.7909 51.5737 22.7909H37.2737C36.8437 22.7909 36.4637 23.1509 36.4637 23.6109C36.4637 24.0809 36.8437 24.4209 37.2737 24.4209Z" /></svg>