
<svg
    viewBox="0 0 27.890625 27.890625"
    xmlns="http://www.w3.org/2000/svg"
>
    <path
        fill="inherit"
        d="M13.9427 27.8864C21.6427 27.8864 27.8927 21.6464 27.8927 13.9464C27.8927 6.2464 21.6427 -0.0036 13.9427 -0.0036C6.2527 -0.0036 0.0027 6.2464 0.0027 13.9464C0.0027 21.6464 6.2527 27.8864 13.9427 27.8864ZM13.9427 25.5664C7.5227 25.5664 2.3227 20.3664 2.3227 13.9464C2.3227 7.5164 7.5227 2.3264 13.9427 2.3264C20.3727 2.3264 25.5627 7.5164 25.5627 13.9464C25.5627 20.3664 20.3727 25.5664 13.9427 25.5664ZM6.4427 18.4664C6.4427 18.9464 6.8127 19.3064 7.2827 19.3064H8.0427C8.5027 19.3064 8.8727 18.9464 8.8727 18.4664V17.4164C10.2827 17.4964 12.3227 17.5664 13.9427 17.5664C15.5727 17.5664 17.5927 17.4964 19.0027 17.4164V18.4664C19.0027 18.9464 19.3727 19.3064 19.8527 19.3064H20.6027C21.0727 19.3064 21.4327 18.9464 21.4327 18.4664V14.8164C21.4327 13.7664 21.2227 13.1664 20.6327 12.3964L20.0927 11.7164C19.8527 10.5664 19.4427 9.3664 19.2327 8.8964C18.8927 8.1864 18.2427 7.7764 17.3927 7.6564C16.9627 7.6064 15.5727 7.5764 13.9427 7.5764C12.3027 7.5764 10.9227 7.6064 10.4827 7.6564C9.6527 7.7664 8.9927 8.1864 8.6527 8.8964C8.4327 9.3664 8.0227 10.5664 7.7927 11.7164L7.2427 12.3964C6.6727 13.1664 6.4427 13.7664 6.4427 14.8164ZM11.6927 13.0664C11.6927 12.9864 11.7127 12.9064 11.7827 12.8264L14.5327 9.3064C14.7927 8.9664 15.2027 9.1864 15.0527 9.5864L14.2027 11.8664H15.9127C16.0827 11.8664 16.2027 11.9864 16.2027 12.1564C16.2027 12.2264 16.1427 12.3164 16.1027 12.3864L13.3827 15.8964C13.1227 16.2464 12.6827 16.0064 12.8427 15.6164L13.6827 13.3164H11.9727C11.8127 13.3164 11.6927 13.2064 11.6927 13.0664Z"
        fillRule="evenodd"
        clipRule="evenodd"
    />
</svg>
        