
<svg
    viewBox="0 0 32.34765625 25.361328125"
    xmlns="http://www.w3.org/2000/svg"
>
    <path
        fill="inherit"
        d="M1.8137 25.3623H3.4137C4.4437 25.3623 5.2337 24.5723 5.2337 23.5523V21.2723C8.2737 21.4623 12.6637 21.6023 16.1737 21.6023C19.6837 21.6023 24.0937 21.4623 27.1237 21.2723V23.5523C27.1237 24.5723 27.9037 25.3623 28.9337 25.3623H30.5437C31.5637 25.3623 32.3437 24.5723 32.3437 23.5523V15.6823C32.3437 13.3723 31.8837 12.0823 30.6237 10.4423L29.4637 8.9523C28.9737 6.4923 28.0537 3.9123 27.5937 2.9023C26.8537 1.3523 25.4437 0.4423 23.6237 0.1923C22.7137 0.0723 19.7137 0.0023 16.1737 0.0023C12.6437 0.0023 9.6537 0.0823 8.7337 0.1923C6.9137 0.4123 5.4937 1.3523 4.7737 2.9023C4.2937 3.9123 3.3937 6.4923 2.8837 8.9523L1.7337 10.4423C0.4637 12.0823 0.0037 13.3723 0.0037 15.6823V23.5523C0.0037 24.5723 0.7937 25.3623 1.8137 25.3623ZM11.7137 11.6723C11.7137 11.5223 11.7837 11.4023 11.8937 11.2623L17.5437 4.1723C17.9637 3.6323 18.6737 3.9923 18.4337 4.6623L16.5737 9.6523H20.0537C20.3137 9.6523 20.5537 9.8623 20.5537 10.1023C20.5537 10.2423 20.4837 10.3923 20.3437 10.5123L14.7237 17.6123C14.2837 18.1423 13.5637 17.7723 13.8237 17.1123L15.6937 12.1123H12.1937C11.9337 12.1123 11.7137 11.9223 11.7137 11.6723Z"
        fillRule="evenodd"
        clipRule="evenodd"
    />
</svg>
        