
<svg
    viewBox="0 0 25.169921875 25.169921875"
    xmlns="http://www.w3.org/2000/svg"
>
    <path
        fill="inherit"
        d="M4.2937 25.1692H20.8737C23.7437 25.1692 25.1737 23.7592 25.1737 20.9492V4.2392C25.1737 1.4192 23.7437 -0.0008 20.8737 -0.0008H4.2937C1.4337 -0.0008 0.0037 1.4192 0.0037 4.2392V20.9492C0.0037 23.7592 1.4337 25.1692 4.2937 25.1692ZM6.4237 13.5492C6.4237 13.3692 6.5037 13.1692 6.6537 12.9892L14.3837 3.2992C14.9737 2.5692 15.9537 3.0592 15.6037 3.9692L13.0537 10.8192H17.8237C18.1937 10.8192 18.4737 11.0692 18.4737 11.4292C18.4737 11.6092 18.3937 11.8092 18.2537 11.9792L10.5137 21.6692C9.9237 22.4092 8.9537 21.9192 9.2937 21.0092L11.8537 14.1592H7.0637C6.7137 14.1592 6.4237 13.9092 6.4237 13.5492Z"
        fillRule="evenodd"
        clipRule="evenodd"
    />
</svg>
        