
<svg
    viewBox="0 0 27.890625 27.890625"
    xmlns="http://www.w3.org/2000/svg"
>
    <path
        fill="inherit"
        d="M13.9427 27.8864C21.6427 27.8864 27.8927 21.6464 27.8927 13.9464C27.8927 6.2464 21.6427 -0.0036 13.9427 -0.0036C6.2527 -0.0036 0.0027 6.2464 0.0027 13.9464C0.0027 21.6464 6.2527 27.8864 13.9427 27.8864ZM13.9427 25.5664C7.5227 25.5664 2.3227 20.3664 2.3227 13.9464C2.3227 7.5164 7.5227 2.3264 13.9427 2.3264C20.3727 2.3264 25.5627 7.5164 25.5627 13.9464C25.5627 20.3664 20.3727 25.5664 13.9427 25.5664ZM7.9427 14.8864C7.9427 15.2264 8.2127 15.4764 8.5727 15.4764H13.2027L10.7327 22.1164C10.4027 22.9964 11.3327 23.4764 11.9127 22.7664L19.4027 13.3564C19.5527 13.1964 19.6327 13.0064 19.6327 12.8264C19.6327 12.4864 19.3627 12.2364 19.0027 12.2364H14.3727L16.8427 5.5964C17.1727 4.7164 16.2427 4.2364 15.6727 4.9364L8.1727 14.3464C8.0227 14.5164 7.9427 14.7064 7.9427 14.8864Z"
        fillRule="evenodd"
        clipRule="evenodd"
    />
</svg>
        