<svg viewBox="0 0 27.890625 27.890625" xmlns="http://www.w3.org/2000/svg"><path d="M13.9427 27.8927C21.6427 27.8927 27.8927 21.6427 27.8927 13.9427C27.8927 6.2627 21.6427 0.0027 13.9427 0.0027C6.2627 0.0027 0.0027 6.2627 0.0027 13.9427C0.0027 21.6427 6.2627 27.8927 13.9427 27.8927ZM7.7827 14.9127C7.7827 14.7427 7.8627 14.5327 8.0127 14.3727L15.7327 4.6627C16.3227 3.9327 17.2927 4.4327 16.9527 5.3327L14.3927 12.1827H19.1827C19.5527 12.1827 19.8227 12.4427 19.8227 12.7927C19.8227 12.9727 19.7427 13.1827 19.5927 13.3527L11.8627 23.0527C11.2827 23.7727 10.3127 23.2827 10.6527 22.3827L13.2027 15.5327H8.4227C8.0527 15.5327 7.7827 15.2727 7.7827 14.9127Z" /></svg>