
<svg
    viewBox="0 0 22.73974609375 30.543630418159694"
    xmlns="http://www.w3.org/2000/svg"
>
    <path
        fill="inherit"
        d="M17.8285 17.9819L20.6585 14.4519C20.8885 14.1619 21.0085 13.8919 21.0085 13.5719C21.0085 13.0519 20.6185 12.6619 20.0385 12.6419L12.5185 12.5419L16.3885 1.5719C16.8785 0.1519 15.4585 -0.5881 14.5285 0.5719L8.2585 8.4219ZM20.9385 26.3319C21.3485 26.7419 22.0385 26.7419 22.4285 26.3319C22.8385 25.9319 22.8385 25.2619 22.4285 24.8419L1.7985 4.2119C1.3885 3.8019 0.6985 3.8019 0.2985 4.2119C-0.1015 4.6119 -0.1015 5.3019 0.2985 5.7019ZM8.2385 29.9819L14.4885 22.1519L4.9185 12.5819L2.1185 16.0919C1.8785 16.3919 1.7485 16.6619 1.7485 16.9619C1.7485 17.5019 2.1585 17.8919 2.7285 17.8919L10.2385 18.0019L6.3785 28.9719C5.8885 30.3819 7.3085 31.1319 8.2385 29.9819Z"
        fillRule="evenodd"
        clipRule="evenodd"
    />
</svg>
        