
<svg
    viewBox={0 0 34.37109375 23.76171875}
    xmlns="http://www.w3.org/2000/svg"
>
    <path
        fill="inherit"
        d="M27.0127 23.7594C31.1427 23.7594 34.3727 20.7394 34.3727 16.9794C34.3727 14.1094 32.7127 11.6194 30.0527 10.4994C30.0827 4.3994 25.6927 -0.0006 20.0927 -0.0006C16.3927 -0.0006 13.7527 1.9794 12.1127 4.3794C8.7527 3.3894 5.0827 5.9494 5.0127 9.7794C1.9327 10.2694 0.0027 13.0294 0.0027 16.3694C0.0027 20.3894 3.5127 23.7594 8.1927 23.7594ZM8.0627 15.6494L12.8127 9.5194C13.1127 9.1494 13.4127 8.9794 13.7127 8.9794C13.9727 8.9794 14.2227 9.0894 14.4927 9.2294L20.6327 12.5194L25.3227 9.9894C26.1527 9.5394 26.9027 10.3494 26.3227 11.1294L21.5427 17.2994C21.2627 17.6494 20.9427 17.8194 20.6327 17.8194C20.4027 17.8194 20.1527 17.7194 19.8627 17.5694L13.7227 14.2894L9.0627 16.8194C8.2627 17.2394 7.4227 16.4894 8.0627 15.6494Z"
        fillRule="evenodd"
        clipRule="evenodd"
    />
</svg>
        