
<svg
    viewBox={0 0 22.72265625 27.6171875}
    xmlns="http://www.w3.org/2000/svg"
>
    <path
        fill="inherit"
        d="M11.3637 27.6205C11.5837 27.6205 11.9337 27.5305 12.2737 27.3405C20.0537 22.9805 22.7237 21.1405 22.7237 16.1505V5.6905C22.7237 4.2505 22.1037 3.8005 20.9437 3.3105C19.3337 2.6405 14.1237 0.7705 12.5137 0.2005C12.1437 0.0805 11.7437 0.0005 11.3637 0.0005C10.9737 0.0005 10.5837 0.1105 10.2237 0.2005C8.6137 0.6705 3.3937 2.6505 1.7737 3.3105C0.6337 3.7905 0.0037 4.2505 0.0037 5.6905V16.1505C0.0037 21.1405 2.6837 22.9705 10.4437 27.3405C10.8037 27.5305 11.1437 27.6205 11.3637 27.6205ZM11.3637 25.1405C11.1437 25.1405 10.9237 25.0605 10.5137 24.8105C4.1937 20.9905 2.1737 19.8605 2.1737 15.6405V6.1105C2.1737 5.6505 2.2537 5.4705 2.6437 5.3205C4.7137 4.5005 8.7537 3.1405 10.8137 2.3205C11.0337 2.2305 11.2137 2.2005 11.3637 2.2005C11.5137 2.2005 11.6937 2.2405 11.9037 2.3205C13.9737 3.1405 17.9737 4.5905 20.0937 5.3205C20.4637 5.4505 20.5537 5.6505 20.5537 6.1105V15.6405C20.5537 19.8605 18.5237 20.9705 12.2137 24.8105C11.8137 25.0605 11.5837 25.1405 11.3637 25.1405ZM5.6737 14.0405C5.6737 14.3705 5.9337 14.6005 6.2637 14.6005H10.6737L8.3237 20.9205C8.0137 21.7505 8.9037 22.2205 9.4437 21.5505L16.5837 12.5905C16.7237 12.4105 16.8037 12.2405 16.8037 12.0705C16.8037 11.7405 16.5337 11.5105 16.2037 11.5105H11.8037L14.1337 5.1805C14.4637 4.3505 13.5737 3.9005 13.0337 4.5705L5.8937 13.5205C5.7437 13.6805 5.6737 13.8805 5.6737 14.0405Z"
        fillRule="evenodd"
        clipRule="evenodd"
    />
</svg>
        