
<svg
    viewBox={0 0 25.169921875 25.169921875}
    xmlns="http://www.w3.org/2000/svg"
>
    <path
        fill="inherit"
        d="M4.2937 25.1692H20.8737C23.7437 25.1692 25.1737 23.7592 25.1737 20.9492V4.2392C25.1737 1.4192 23.7437 -0.0008 20.8737 -0.0008H4.2937C1.4337 -0.0008 0.0037 1.4192 0.0037 4.2392V20.9492C0.0037 23.7592 1.4337 25.1692 4.2937 25.1692ZM4.3237 22.9692C2.9537 22.9692 2.2037 22.2392 2.2037 20.8192V4.3592C2.2037 2.9392 2.9537 2.1992 4.3237 2.1992H20.8537C22.2037 2.1992 22.9737 2.9392 22.9737 4.3592V20.8192C22.9737 22.2392 22.2037 22.9692 20.8537 22.9692ZM6.6037 13.5192C6.6037 13.8592 6.8937 14.1092 7.2337 14.1092H11.8637L9.3937 20.7492C9.0637 21.6292 9.9937 22.1092 10.5637 21.3992L18.0737 11.9892C18.2137 11.8292 18.2937 11.6392 18.2937 11.4592C18.2937 11.1192 18.0237 10.8692 17.6637 10.8692H13.0437L15.5037 4.2292C15.8437 3.3492 14.9037 2.8692 14.3237 3.5692L6.8337 12.9792C6.6837 13.1492 6.6037 13.3392 6.6037 13.5192Z"
        fillRule="evenodd"
        clipRule="evenodd"
    />
</svg>
        