
<svg
    viewBox="0 0 32.23828125 23.43359375"
    xmlns="http://www.w3.org/2000/svg"
>
    <path
        fill="inherit"
        d="M4.2937 23.4342H27.9437C30.8137 23.4342 32.2337 22.0142 32.2337 19.1942V7.7242C32.2337 4.9242 30.8137 3.5042 27.9437 3.5042H26.4237V1.6642C26.4237 0.6242 25.8237 0.0042 24.7737 0.0042H22.0437C21.0037 0.0042 20.3937 0.6242 20.3937 1.6642V3.5042H11.8537V1.6642C11.8537 0.6242 11.2537 0.0042 10.2037 0.0042H7.4637C6.4137 0.0042 5.8137 0.6242 5.8137 1.6642V3.5042H4.2937C1.4337 3.5042 0.0037 4.9042 0.0037 7.7242V19.1942C0.0037 22.0242 1.4337 23.4342 4.2937 23.4342ZM2.2037 19.0842V7.8442C2.2037 6.4242 2.9537 5.7042 4.3237 5.7042H27.9137C29.2737 5.7042 30.0337 6.4242 30.0337 7.8442V19.0842C30.0337 20.4942 29.2737 21.2342 27.9137 21.2342H4.3237C2.9537 21.2342 2.2037 20.4942 2.2037 19.0842ZM11.7837 14.3242C11.7837 14.5842 11.9937 14.7642 12.2537 14.7642H15.6437L13.8237 19.6142C13.5937 20.2642 14.2837 20.6142 14.6937 20.0842L20.1637 13.2242C20.2737 13.0942 20.3437 12.9442 20.3437 12.8242C20.3437 12.5742 20.1237 12.3842 19.8637 12.3842H16.4837L18.2937 7.5442C18.5237 6.8942 17.8437 6.5342 17.4337 7.0642L11.9537 13.9442C11.8537 14.0842 11.7837 14.2042 11.7837 14.3242Z"
        fillRule="evenodd"
        clipRule="evenodd"
    />
</svg>
        