<svg viewBox="0 0 32.34765625 25.361328125" xmlns="http://www.w3.org/2000/svg"><path d="M2.5137 25.3623H4.1137C5.1437 25.3623 5.9337 24.5723 5.9337 23.5523V21.3123C8.9137 21.4823 12.9237 21.6023 16.1737 21.6023C19.4237 21.6023 23.4337 21.4823 26.4237 21.3123V23.5523C26.4237 24.5723 27.2037 25.3623 28.2337 25.3623H29.8437C30.8737 25.3623 31.6537 24.5723 31.6537 23.5523V20.1023C32.1137 19.6023 32.3437 18.9323 32.3437 18.0923V15.6823C32.3437 13.3723 31.8837 12.0823 30.6237 10.4423L29.4637 8.9523C28.9737 6.4923 28.0537 3.9123 27.5937 2.9023C26.8537 1.3523 25.4437 0.4423 23.6237 0.1923C22.7137 0.0723 19.7137 0.0023 16.1737 0.0023C12.6437 0.0023 9.6537 0.0823 8.7337 0.1923C6.9137 0.4123 5.4937 1.3523 4.7737 2.9023C4.2937 3.9123 3.3937 6.4923 2.8837 8.9523L1.7337 10.4423C0.4637 12.0823 0.0037 13.3723 0.0037 15.6823V18.0923C0.0037 18.9323 0.2437 19.6023 0.6937 20.1023V23.5523C0.6937 24.5723 1.4937 25.3623 2.5137 25.3623ZM16.1737 19.8123C11.5237 19.8123 5.5637 19.5923 3.3637 19.3223C2.2037 19.1823 1.7937 18.5823 1.7937 17.5423V15.6823C1.7937 13.8123 2.0937 12.9323 3.1537 11.5423L4.5537 9.7023C4.9237 7.7223 5.8137 4.9623 6.3937 3.7023C6.8337 2.7623 7.6937 2.1723 8.9437 2.0223C9.8137 1.9123 12.5937 1.7923 16.1737 1.7923C19.7737 1.7923 22.5837 1.9123 23.3837 2.0223C24.6637 2.1923 25.5137 2.7723 25.9637 3.7023C26.5537 4.9623 27.4437 7.7223 27.7937 9.7023L29.2037 11.5423C30.2537 12.9323 30.5537 13.8123 30.5537 15.6823V17.5423C30.5537 18.5823 30.1437 19.1823 28.9837 19.3223C26.7937 19.5923 20.8237 19.8123 16.1737 19.8123ZM11.8537 11.6223C11.8537 11.8623 12.0537 12.0423 12.3137 12.0423H15.7137L13.8937 16.9023C13.6437 17.5423 14.3437 17.8923 14.7637 17.3723L20.2237 10.5023C20.3437 10.3723 20.4137 10.2223 20.4137 10.1023C20.4137 9.8623 20.1937 9.6623 19.9337 9.6623H16.5537L18.3637 4.8223C18.5937 4.1723 17.9137 3.8323 17.5037 4.3523L12.0137 11.2223C11.9237 11.3623 11.8537 11.4823 11.8537 11.6223Z" /></svg>