
<svg
    viewBox={0 0 27.890625 27.890625}
    xmlns="http://www.w3.org/2000/svg"
>
    <path
        fill="inherit"
        d="M13.9427 27.8864C21.6427 27.8864 27.8927 21.6464 27.8927 13.9464C27.8927 6.2464 21.6427 -0.0036 13.9427 -0.0036C6.2527 -0.0036 0.0027 6.2464 0.0027 13.9464C0.0027 21.6464 6.2527 27.8864 13.9427 27.8864ZM13.9427 25.5664C7.5227 25.5664 2.3227 20.3664 2.3227 13.9464C2.3227 7.5164 7.5227 2.3264 13.9427 2.3264C20.3727 2.3264 25.5627 7.5164 25.5627 13.9464C25.5627 20.3664 20.3727 25.5664 13.9427 25.5664ZM16.8127 5.5964C17.1427 4.7164 16.2027 4.2364 15.6427 4.9464L11.9527 9.5964L14.4127 12.0564ZM20.3827 21.2764C20.6127 21.5064 21.0227 21.5064 21.2627 21.2764C21.5027 21.0164 21.5027 20.6464 21.2627 20.3964L7.4927 6.6164C7.2427 6.3664 6.8527 6.3664 6.6027 6.6164C6.3527 6.8464 6.3727 7.2564 6.6027 7.4964ZM12.9627 15.3164L9.8527 12.2064L8.2827 14.1764C8.1527 14.3664 8.0527 14.5464 8.0527 14.7064C8.0527 15.0664 8.3427 15.3164 8.6827 15.3164ZM14.6327 12.2764L17.7627 15.4064L19.3627 13.4164C19.4927 13.2164 19.5827 13.0464 19.5827 12.8664C19.5827 12.5264 19.3027 12.2764 18.9527 12.2764ZM15.6727 18.0364L13.1627 15.5164L10.7227 22.1164C10.3927 23.0064 11.3227 23.4764 11.8827 22.7764Z"
        fillRule="evenodd"
        clipRule="evenodd"
    />
</svg>
        