
<svg
    viewBox="0 0 32.23828125 23.43359375"
    xmlns="http://www.w3.org/2000/svg"
>
    <path
        fill="inherit"
        d="M4.2937 23.4342H27.9437C30.8137 23.4342 32.2337 22.0142 32.2337 19.1942V7.7242C32.2337 4.9242 30.8137 3.5042 27.9437 3.5042H26.4237V1.6642C26.4237 0.6242 25.8237 0.0042 24.7737 0.0042H22.0437C21.0037 0.0042 20.3937 0.6242 20.3937 1.6642V3.5042H11.8537V1.6642C11.8537 0.6242 11.2537 0.0042 10.2037 0.0042H7.4637C6.4137 0.0042 5.8137 0.6242 5.8137 1.6642V3.5042H4.2937C1.4337 3.5042 0.0037 4.9042 0.0037 7.7242V19.1942C0.0037 22.0242 1.4337 23.4342 4.2937 23.4342ZM11.6437 14.3542C11.6437 14.2142 11.7137 14.0942 11.8237 13.9542L17.4737 6.8642C17.8937 6.3142 18.6037 6.6842 18.3637 7.3542L16.5037 12.3442H19.9837C20.2437 12.3442 20.4837 12.5542 20.4837 12.7942C20.4837 12.9342 20.4137 13.0842 20.2937 13.2042L14.6537 20.2842C14.2337 20.8342 13.5037 20.4642 13.7537 19.8142L15.6237 14.8042H12.1237C11.8637 14.8042 11.6437 14.6142 11.6437 14.3542Z"
        fillRule="evenodd"
        clipRule="evenodd"
    />
</svg>
        