
<svg
    viewBox="0 0 27.890625 27.890625"
    xmlns="http://www.w3.org/2000/svg"
>
    <path
        fill="inherit"
        d="M13.9427 27.8927C21.6427 27.8927 27.8927 21.6427 27.8927 13.9427C27.8927 6.2627 21.6427 0.0027 13.9427 0.0027C6.2627 0.0027 0.0027 6.2627 0.0027 13.9427C0.0027 21.6427 6.2627 27.8927 13.9427 27.8927ZM16.9227 5.3327L14.4327 11.9927L11.9127 9.4427L15.7127 4.6627C16.2827 3.9327 17.2527 4.4327 16.9227 5.3327ZM20.5927 21.4927L6.3827 7.3027C6.1527 7.0427 6.1427 6.6327 6.3827 6.4027C6.6427 6.1227 7.0527 6.1227 7.3127 6.4027L21.5027 20.5927C21.7527 20.8327 21.7527 21.2327 21.5027 21.4927C21.2627 21.7427 20.8327 21.7227 20.5927 21.4927ZM12.9327 15.3527H8.5327C8.1727 15.3527 7.8727 15.1027 7.8727 14.7427C7.8727 14.5727 7.9827 14.3827 8.1227 14.1927L9.7327 12.1527ZM14.6727 12.2227H19.1227C19.4827 12.2227 19.7727 12.4827 19.7727 12.8427C19.7727 13.0127 19.6827 13.2027 19.5527 13.3827L17.8927 15.4527ZM15.7327 18.1727L11.8427 23.0527C11.2527 23.7727 10.2927 23.2827 10.6327 22.3827L13.1527 15.5627Z"
        fillRule="evenodd"
        clipRule="evenodd"
    />
</svg>
        