
<svg
    viewBox="0 0 27.890625 27.890625"
    xmlns="http://www.w3.org/2000/svg"
>
    <path
        fill="inherit"
        d="M13.9427 27.8927C21.6427 27.8927 27.8927 21.6427 27.8927 13.9427C27.8927 6.2627 21.6427 0.0027 13.9427 0.0027C6.2627 0.0027 0.0027 6.2627 0.0027 13.9427C0.0027 21.6427 6.2627 27.8927 13.9427 27.8927ZM6.2027 18.6227V14.8727C6.2027 13.7827 6.4427 13.1527 7.0427 12.3827L7.6027 11.6627C7.8427 10.4727 8.2627 9.2427 8.4927 8.7627C8.8427 8.0227 9.5127 7.5927 10.3727 7.4827C10.8327 7.4227 12.2527 7.3927 13.9427 7.3927C15.6227 7.3927 17.0627 7.4227 17.5027 7.4827C18.3727 7.6027 19.0427 8.0227 19.3827 8.7627C19.6227 9.2427 20.0327 10.4727 20.2927 11.6627L20.8327 12.3827C21.4527 13.1527 21.6727 13.7827 21.6727 14.8727V18.6227C21.6727 19.1127 21.2827 19.4927 20.8127 19.4927H20.0327C19.5327 19.4927 19.1527 19.1127 19.1527 18.6227V17.5427C17.7027 17.6327 15.6227 17.6927 13.9427 17.6927C12.2627 17.6927 10.1727 17.6327 8.7227 17.5427V18.6227C8.7227 19.1127 8.3427 19.4927 7.8627 19.4927H7.0827C6.5927 19.4927 6.2027 19.1127 6.2027 18.6227ZM11.6227 13.0527C11.6227 13.2027 11.7427 13.3327 11.9127 13.3327H13.6727L12.8127 15.6827C12.6427 16.1027 13.0927 16.3427 13.3727 15.9927L16.1727 12.3727C16.2127 12.2927 16.2727 12.1927 16.2727 12.1127C16.2727 11.9527 16.1427 11.8227 15.9827 11.8227L14.2227 11.8427L15.0927 9.4727C15.2427 9.0527 14.8227 8.8427 14.5427 9.1827L11.7127 12.8127C11.6527 12.8927 11.6227 12.9727 11.6227 13.0527Z"
        fillRule="evenodd"
        clipRule="evenodd"
    />
</svg>
        