
<svg
    viewBox={0 0 22.73974609375 30.552611188184663}
    xmlns="http://www.w3.org/2000/svg"
>
    <path
        fill="inherit"
        d="M8.3485 8.5048L9.8785 10.0348L12.9285 6.0048L10.7285 10.8948L14.0785 14.2448H17.5785L16.0785 16.2348L17.6785 17.8348L20.6585 14.0048C20.8885 13.7148 21.0085 13.4448 21.0085 13.1248C21.0085 12.6048 20.5985 12.2148 20.0285 12.2148H12.2985L16.3785 1.5748C16.9185 0.1648 15.4185 -0.5952 14.5285 0.5748ZM20.9385 26.3348C21.3485 26.7448 22.0385 26.7448 22.4285 26.3348C22.8385 25.9348 22.8385 25.2648 22.4285 24.8448L1.7985 4.2148C1.3885 3.8048 0.6985 3.8048 0.2985 4.2148C-0.1015 4.6148 -0.1015 5.3048 0.2985 5.7048ZM1.7485 17.4248C1.7485 17.9548 2.1585 18.3548 2.7285 18.3548H10.4585L6.3785 28.9748C5.8385 30.3848 7.3385 31.1448 8.2285 29.9848L14.3885 22.0548L12.8585 20.5248L9.8285 24.5448L12.0185 19.6648L8.6385 16.3148H5.1685L6.6685 14.3348L5.0685 12.7348L2.0985 16.5448C1.8685 16.8448 1.7485 17.1248 1.7485 17.4248Z"
        fillRule="evenodd"
        clipRule="evenodd"
    />
</svg>
        