
<svg
    viewBox={0 0 27.890625 27.890625}
    xmlns="http://www.w3.org/2000/svg"
>
    <path
        fill="inherit"
        d="M13.9427 27.8864C21.6427 27.8864 27.8927 21.6464 27.8927 13.9464C27.8927 6.2464 21.6427 -0.0036 13.9427 -0.0036C6.2527 -0.0036 0.0027 6.2464 0.0027 13.9464C0.0027 21.6464 6.2527 27.8864 13.9427 27.8864ZM13.9427 25.5664C7.5227 25.5664 2.3227 20.3664 2.3227 13.9464C2.3227 7.5164 7.5227 2.3264 13.9427 2.3264C20.3727 2.3264 25.5627 7.5164 25.5627 13.9464C25.5627 20.3664 20.3727 25.5664 13.9427 25.5664ZM5.1027 16.5464C4.4727 17.3464 5.2927 18.0764 6.0727 17.6664L10.5927 15.2164L16.5427 18.4064C16.8027 18.5564 17.0627 18.6364 17.2827 18.6364C17.5927 18.6364 17.8827 18.4664 18.1727 18.1264L22.7927 12.1564C23.3627 11.4064 22.6427 10.6264 21.8227 11.0564L17.2627 13.5064L11.3327 10.3064C11.0627 10.1764 10.8127 10.0764 10.5827 10.0764C10.2627 10.0764 9.9827 10.2364 9.7027 10.5964Z"
        fillRule="evenodd"
        clipRule="evenodd"
    />
</svg>
        