
<svg
    viewBox={0 0 27.166015625 25.1015625}
    xmlns="http://www.w3.org/2000/svg"
>
    <path
        fill="inherit"
        d="M13.5737 25.098C13.8637 25.098 14.2737 24.908 14.5737 24.728C22.2837 19.808 27.1637 14.078 27.1637 8.258C27.1637 3.418 23.8437 -0.002 19.5337 -0.002C16.8737 -0.002 14.8237 1.478 13.5737 3.728C12.3637 1.488 10.2937 -0.002 7.6137 -0.002C3.3237 -0.002 0.0037 3.418 0.0037 8.258C0.0037 14.078 4.8837 19.808 12.5937 24.728C12.8837 24.908 13.3037 25.098 13.5737 25.098ZM8.9937 13.948C8.9937 13.798 9.0637 13.668 9.1737 13.538L14.8237 6.438C15.2437 5.908 15.9537 6.258 15.7137 6.928L13.8537 11.918H17.3337C17.5937 11.918 17.8237 12.128 17.8237 12.368C17.8237 12.508 17.7637 12.658 17.6337 12.788L12.0037 19.878C11.5637 20.408 10.8537 20.038 11.1037 19.388L12.9737 14.378H9.4737C9.2137 14.378 8.9937 14.188 8.9937 13.948Z"
        fillRule="evenodd"
        clipRule="evenodd"
    />
</svg>
        