<svg viewBox="0 0 37.68232823855601 16.8984375" xmlns="http://www.w3.org/2000/svg"><path d="M0.4629 13.6688C-0.8271 15.3388 0.8329 16.6888 2.3429 15.8188L12.2529 10.1588L24.0129 16.4587C24.5529 16.7388 25.0229 16.8988 25.4729 16.8988C26.1029 16.8988 26.6729 16.6088 27.2229 15.9188L37.2829 3.1988C38.3829 1.8187 37.0429 0.1088 35.3829 1.0388L25.4729 6.7388L13.7029 0.4387C13.1729 0.1388 12.6729 -0.0012 12.2429 -0.0012C11.5929 -0.0012 11.0529 0.2888 10.5029 0.9887ZM3.5729 13.1388C3.4029 13.2188 3.3229 13.0888 3.4329 12.9588L12.0929 2.4787C12.2829 2.2287 12.4529 2.1988 12.7129 2.3387L24.9829 8.8888C25.5529 9.1888 25.7329 9.1088 26.1829 8.8188L34.1929 3.7188C34.3229 3.6388 34.4529 3.7688 34.3429 3.8988L25.6529 14.4288C25.4629 14.6588 25.2629 14.6988 25.0229 14.5588L12.7429 8.0087C12.1729 7.7088 11.9929 7.7788 11.5429 8.0688Z" /></svg>