
<svg
    viewBox="0 0 27.931640625 27.91796875"
    xmlns="http://www.w3.org/2000/svg"
>
    <path
        fill="inherit"
        d="M0.0027 13.9601C0.0027 21.6601 6.2627 27.9201 13.9627 27.9201C21.6527 27.9201 27.9327 21.6601 27.9327 13.9601C27.9327 6.9701 22.7627 1.1601 16.0527 0.1601C16.3227 0.5601 16.5027 1.0501 16.5027 1.5901C16.5027 2.2701 16.2327 2.8701 15.7927 3.3201C20.8627 4.2101 24.7427 8.6401 24.7427 13.9601C24.7427 19.9101 19.9227 24.7501 13.9627 24.7501C8.0127 24.7501 3.1727 19.9101 3.1727 13.9601C3.1727 8.0101 8.0127 3.1701 13.9627 3.1701C14.8327 3.1701 15.5427 2.4601 15.5427 1.5901C15.5427 0.7101 14.8327 0.0001 13.9627 0.0001C6.2627 0.0001 0.0027 6.2601 0.0027 13.9601ZM8.3427 14.8201C8.3427 15.1501 8.6027 15.3901 8.9327 15.3901H13.2327L10.9327 21.5601C10.6327 22.3801 11.5127 22.8501 12.0427 22.1801L19.0327 13.4101C19.1527 13.2501 19.2327 13.0701 19.2327 12.9201C19.2327 12.5901 18.9727 12.3501 18.6527 12.3501H14.3427L16.6427 6.1701C16.9427 5.3501 16.0627 4.8901 15.5327 5.5501L8.5427 14.3301C8.4227 14.4901 8.3427 14.6701 8.3427 14.8201Z"
        fillRule="evenodd"
        clipRule="evenodd"
    />
</svg>
        