
<svg
    viewBox="0 0 30.720703125 27.75390625"
    xmlns="http://www.w3.org/2000/svg"
>
    <path
        fill="inherit"
        d="M6.2227 5.3549C7.6927 5.3549 8.9027 4.1649 8.9027 2.6749C8.9027 1.2049 7.6927 0.0049 6.2227 0.0049C4.7327 0.0049 3.5227 1.2049 3.5227 2.6749C3.5227 4.1649 4.7327 5.3549 6.2227 5.3549ZM24.3227 11.8649C23.5127 12.6449 22.4327 13.3749 21.0827 13.9149C19.9727 11.4449 18.3327 8.9449 16.4027 6.8249C18.1827 5.3549 20.2027 4.4449 22.2127 4.4449C23.9127 4.4449 25.1027 5.0949 25.7127 6.0949C26.3827 5.6749 27.1827 5.4149 28.0427 5.4149C28.6827 5.4149 29.3027 5.5649 29.8427 5.8149C29.3227 3.4449 27.1627 1.4249 23.4727 1.4249C20.5927 1.4249 17.6127 3.0349 15.0027 5.4249C13.6027 4.1249 12.0627 3.0649 10.5027 2.3549C10.5027 2.4749 10.5127 2.5749 10.5127 2.6749C10.5127 3.4449 10.3127 4.1649 9.9627 4.7849C11.2427 5.1849 12.4727 5.8949 13.6027 6.8249C11.6627 8.9449 10.0127 11.4449 8.9327 13.9149C5.2727 12.4849 3.8027 9.8349 3.8027 7.9449C3.8027 7.3949 3.8927 6.8949 4.1127 6.4249C2.8427 5.7249 1.9827 4.4149 1.9327 2.8849C0.6527 3.9349 0.0027 5.5249 0.0027 7.4249C0.0027 10.7849 2.9827 14.2149 8.1727 15.8349C7.7227 17.2449 7.4627 18.5849 7.4627 19.8149C7.4627 20.7149 7.5927 21.5649 7.8027 22.3349C8.5427 21.4749 9.5827 20.8949 10.7727 20.7949C10.5227 20.1149 10.3727 19.3149 10.3727 18.4549C10.3727 17.7849 10.4627 17.1149 10.5827 16.4149C11.9527 16.6649 13.4227 16.8049 15.0127 16.8049C16.6127 16.8049 18.0627 16.6749 19.4027 16.4349C19.5327 17.1149 19.6027 17.8049 19.6027 18.4549C19.6027 21.5049 17.8427 23.7249 15.2427 23.8749C15.3527 24.2549 15.4227 24.6649 15.4227 25.0749C15.4227 26.0449 15.1027 26.9449 14.5727 27.6549L14.9827 27.6749C19.3827 27.6749 22.5127 24.3749 22.5127 19.8149C22.5127 18.5849 22.2727 17.2449 21.8027 15.8449C23.5827 15.2849 25.0627 14.5349 26.2527 13.6349C25.4427 13.2449 24.7727 12.6449 24.3227 11.8649ZM28.0427 12.4049C29.5327 12.4049 30.7227 11.1949 30.7227 9.7249C30.7227 8.2349 29.5327 7.0249 28.0427 7.0249C26.5627 7.0249 25.3627 8.2349 25.3627 9.7249C25.3627 11.1949 26.5627 12.4049 28.0427 12.4049ZM15.0127 14.9549C13.5327 14.9549 12.2327 14.8249 11.0727 14.5749C11.8627 12.2549 13.2627 9.9549 15.0027 8.1349C16.7327 9.9549 18.1127 12.2549 18.9127 14.5749C17.7627 14.8249 16.4427 14.9549 15.0127 14.9549ZM11.1327 27.7549C12.6227 27.7549 13.8127 26.5649 13.8127 25.0749C13.8127 23.5849 12.6027 22.3949 11.1327 22.3949C9.6427 22.3949 8.4527 23.5849 8.4527 25.0749C8.4527 26.5649 9.6427 27.7549 11.1327 27.7549Z"
        fillRule="evenodd"
        clipRule="evenodd"
    />
</svg>
        