<svg viewBox="0 0 27.890625 27.890625" xmlns="http://www.w3.org/2000/svg"><path d="M13.9427 27.8927C21.6427 27.8927 27.8927 21.6427 27.8927 13.9427C27.8927 6.2627 21.6427 0.0027 13.9427 0.0027C6.2627 0.0027 0.0027 6.2627 0.0027 13.9427C0.0027 21.6427 6.2627 27.8927 13.9427 27.8927ZM10.2427 21.3927C8.8227 21.3927 8.0927 20.6727 8.0927 19.2227V8.7227C8.0927 7.2327 8.8227 6.5127 10.2527 6.5127H17.6127C19.0627 6.5127 19.7827 7.2427 19.7827 8.7227V16.6527C19.7827 17.3227 19.4727 17.6927 19.1927 17.9627C18.3627 18.7827 18.5227 19.8927 19.3827 20.2527C19.6027 20.3127 19.7827 20.5627 19.7827 20.8127C19.7827 21.1327 19.5127 21.3927 19.1927 21.3927ZM10.0927 17.0627C10.3327 17.0627 10.5427 16.8827 10.5427 16.6427V8.1227C10.5427 7.8927 10.3327 7.6827 10.0927 7.6827C9.8527 7.6827 9.6827 7.8727 9.6827 8.1227V16.6427C9.6827 16.8827 9.8527 17.0627 10.0927 17.0627ZM10.3127 20.2227H17.7227C17.4027 19.6227 17.3627 18.9127 17.6327 18.2127C17.5827 18.2227 17.5227 18.2227 17.4627 18.2227H10.3627C9.7027 18.2227 9.2727 18.6227 9.2727 19.2127C9.2727 19.8527 9.6427 20.2227 10.3127 20.2227Z" /></svg>