
<svg
    viewBox={0 0 30.365234375 25.388671875}
    xmlns="http://www.w3.org/2000/svg"
>
    <path
        fill="inherit"
        d="M0.0037 23.1223C0.0037 24.2423 0.7337 24.6823 1.5437 24.6823C2.0137 24.6823 2.4037 24.4023 2.9237 24.0923C4.4337 23.0623 6.2937 22.4323 8.1937 22.4523C10.1537 22.4623 12.1137 23.1923 13.6437 24.6623C14.2437 25.2123 14.6837 25.3923 15.1937 25.3923C15.6837 25.3923 16.1337 25.2123 16.7237 24.6623C18.2537 23.2023 20.2037 22.4623 22.1937 22.4523C24.0937 22.4323 25.9337 23.0623 27.4437 24.0923C27.9637 24.4023 28.3537 24.6823 28.8337 24.6823C29.6237 24.6823 30.3637 24.2423 30.3637 23.1223V4.5623C30.3637 4.3323 30.3537 4.1423 30.2037 3.9123C28.9837 1.7923 25.8937 0.0023 22.1337 0.0023C19.1537 0.0023 16.5737 1.1923 15.1937 2.8723C13.8037 1.1923 11.2137 0.0023 8.2437 0.0023C4.4737 0.0023 1.3837 1.7923 0.1637 3.9123C0.0237 4.1423 0.0037 4.3323 0.0037 4.5623ZM2.2037 21.9523V4.8823C3.3037 3.2823 5.7137 2.2023 8.2437 2.2023C10.8437 2.2023 13.1137 3.2923 14.0837 4.9623V22.1923C12.6837 21.0823 10.5137 20.2523 8.2437 20.2523C5.8637 20.2523 3.6537 20.9223 2.2037 21.9523ZM16.2837 22.1923V4.9623C17.2537 3.2923 19.5337 2.2023 22.1337 2.2023C24.6537 2.2023 27.0537 3.2823 28.1637 4.8823V21.9523C26.7137 20.9223 24.5037 20.2523 22.1337 20.2523C19.8537 20.2523 17.6737 21.0823 16.2837 22.1923Z"
        fillRule="evenodd"
        clipRule="evenodd"
    />
</svg>
        