
<svg
    viewBox={0 0 22.99609375 29.298828125}
    xmlns="http://www.w3.org/2000/svg"
>
    <path
        fill="inherit"
        d="M4.1937 29.3037H21.9037C22.5037 29.3037 22.9937 28.8237 22.9937 28.2037C22.9937 27.7237 22.6637 27.3037 22.2337 27.1537C20.5037 26.4737 20.1537 24.2437 21.8437 22.5337C22.3637 22.0137 22.9937 21.3437 22.9937 19.9737V4.2937C22.9937 1.4537 21.5837 0.0037 18.7537 0.0037H4.2337C1.4037 0.0037 0.0037 1.4337 0.0037 4.2937V25.0737C0.0037 27.8937 1.4237 29.3037 4.1937 29.3037ZM3.9137 20.9637C3.4837 20.9637 3.1337 20.6037 3.1337 20.1637V2.8937C3.1337 2.4637 3.4837 2.1237 3.9137 2.1237C4.3337 2.1237 4.7037 2.4637 4.7037 2.8937V20.1637C4.7037 20.6037 4.3337 20.9637 3.9137 20.9637ZM4.3237 27.0937C2.9437 27.0937 2.2037 26.3637 2.2037 25.0637C2.2037 23.8337 3.0737 23.0337 4.4437 23.0337H18.4737C18.6437 23.0337 18.8137 23.0237 18.9537 22.9937C18.3037 24.4137 18.4137 25.9237 19.1437 27.0937Z"
        fillRule="evenodd"
        clipRule="evenodd"
    />
</svg>
        