
<svg
    viewBox={0 0 24.71875 30.910197045701253}
    xmlns="http://www.w3.org/2000/svg"
>
    <path
        fill="inherit"
        d="M0.0037 26.2033C0.0037 28.5833 1.4637 29.8133 4.0037 29.6633C8.5837 29.4233 12.6637 28.9933 17.8737 27.5633C19.8137 27.0133 20.5637 25.9933 20.5637 23.5933V3.5833C20.5637 0.8633 19.1137 -0.4667 16.4837 0.1533C12.6637 1.0133 8.5837 1.6933 3.6737 1.9833C1.4637 2.1133 0.0037 3.3733 0.0037 5.8533ZM10.9237 30.9133H20.4937C23.3137 30.9133 24.7237 29.4933 24.7237 26.6333V6.3033C24.7237 4.1833 23.9237 2.8733 22.3637 2.4133C22.4037 2.7733 22.4337 3.1733 22.4337 3.5833V23.5933C22.4337 26.7833 21.1537 28.5633 18.3937 29.3533C15.6937 30.0733 13.2237 30.5533 10.9237 30.9133ZM5.0437 8.8333C4.5637 8.8533 4.2337 8.5133 4.2337 8.0633C4.2337 7.6233 4.4837 7.2833 5.0437 7.2433C9.0537 6.9833 12.2537 6.4233 15.3837 5.7433C15.9937 5.6033 16.3337 5.9833 16.3337 6.4233C16.3337 6.8233 16.1737 7.1533 15.5337 7.2833C12.2537 8.0233 9.0537 8.5733 5.0437 8.8333ZM5.0437 13.3733C4.5637 13.3933 4.2337 13.0433 4.2337 12.5933C4.2337 12.1633 4.4837 11.8233 5.0437 11.7833C9.0537 11.5233 12.2537 10.9633 15.3837 10.2633C15.9937 10.1433 16.3337 10.5233 16.3337 10.9633C16.3337 11.3633 16.1737 11.6833 15.5337 11.8233C12.2537 12.5533 9.0537 13.1133 5.0437 13.3733ZM5.0437 17.9033C4.5637 17.9333 4.2337 17.5833 4.2337 17.1333C4.2337 16.7033 4.4837 16.3633 5.0437 16.3233C9.0537 16.0633 12.2537 15.5033 15.3837 14.8033C15.9937 14.6833 16.3337 15.0633 16.3337 15.5033C16.3337 15.9033 16.1737 16.2233 15.5337 16.3633C12.2537 17.0833 9.0537 17.6533 5.0437 17.9033ZM5.0437 22.4333C4.5637 22.4633 4.2337 22.1033 4.2337 21.6533C4.2337 21.2133 4.4837 20.8933 5.0437 20.8333C7.3137 20.7133 8.8137 20.5033 10.1737 20.2833C10.8037 20.1733 11.1437 20.5833 11.1437 21.0133C11.1437 21.3833 10.8937 21.7533 10.4337 21.8333C8.9037 22.0733 7.3537 22.2933 5.0437 22.4333Z"
        fillRule="evenodd"
        clipRule="evenodd"
    />
</svg>
        