
<svg
    viewBox="0 0 27.890625 27.890625"
    xmlns="http://www.w3.org/2000/svg"
>
    <path
        fill="inherit"
        d="M13.9427 27.8864C21.6427 27.8864 27.8927 21.6464 27.8927 13.9464C27.8927 6.2464 21.6427 -0.0036 13.9427 -0.0036C6.2527 -0.0036 0.0027 6.2464 0.0027 13.9464C0.0027 21.6464 6.2527 27.8864 13.9427 27.8864ZM13.9427 25.5664C7.5227 25.5664 2.3227 20.3664 2.3227 13.9464C2.3227 7.5164 7.5227 2.3264 13.9427 2.3264C20.3727 2.3264 25.5627 7.5164 25.5627 13.9464C25.5627 20.3664 20.3727 25.5664 13.9427 25.5664ZM15.6727 20.6264H17.2127C17.7227 20.6264 17.9927 20.3564 17.9927 19.8664V12.3864L19.5627 20.0264C19.6627 20.5064 19.9927 20.7364 20.4627 20.6264L21.4627 20.3864C21.9527 20.2864 22.1627 19.9564 22.0827 19.4664L19.9427 9.1564C19.8527 8.6564 19.5327 8.4064 19.0427 8.5264L18.0427 8.7764L17.9927 8.7864V7.4364C17.9927 6.9364 17.7227 6.6564 17.2127 6.6564H15.6727C15.1527 6.6564 14.8927 6.9364 14.8927 7.4364V19.8664C14.8927 20.3564 15.1527 20.6264 15.6727 20.6264ZM6.9727 20.6264H8.1527C8.6527 20.6264 8.9327 20.3564 8.9327 19.8664V9.1764C8.9327 8.6864 8.6527 8.4064 8.1527 8.4064H6.9727C6.4527 8.4064 6.1627 8.6864 6.1627 9.1764V19.8664C6.1627 20.3564 6.4527 20.6264 6.9727 20.6264ZM10.6227 20.6264H13.1827C13.7027 20.6264 13.9627 20.3564 13.9627 19.8664V11.3364C13.9627 10.8464 13.7027 10.5364 13.1827 10.5364H10.6227C10.1327 10.5364 9.8427 10.8464 9.8427 11.3364V19.8664C9.8427 20.3564 10.1327 20.6264 10.6227 20.6264ZM11.2227 12.8364C10.9827 12.8364 10.8327 12.6364 10.8327 12.4264C10.8327 12.1964 10.9927 12.0164 11.2227 12.0164H12.6027C12.8427 12.0164 13.0127 12.1964 13.0127 12.4264C13.0127 12.6364 12.8427 12.8364 12.6027 12.8364ZM11.2227 19.1964C10.9927 19.1964 10.8327 19.0164 10.8327 18.7764C10.8327 18.5364 10.9827 18.3564 11.2227 18.3564H12.6027C12.8427 18.3564 13.0127 18.5364 13.0127 18.7764C13.0127 19.0164 12.8427 19.1964 12.6027 19.1964Z"
        fillRule="evenodd"
        clipRule="evenodd"
    />
</svg>
        