<svg viewBox="0 0 25.169921875 25.169921875" xmlns="http://www.w3.org/2000/svg"><path d="M4.2937 25.1662H20.8737C23.7437 25.1662 25.1737 23.7662 25.1737 20.9462V4.2362C25.1737 1.4262 23.7437 -0.0038 20.8737 -0.0038H4.2937C1.4337 -0.0038 0.0037 1.4262 0.0037 4.2362V20.9462C0.0037 23.7662 1.4337 25.1662 4.2937 25.1662ZM4.3237 22.9662C2.9537 22.9662 2.2037 22.2462 2.2037 20.8262V4.3662C2.2037 2.9362 2.9537 2.1962 4.3237 2.1962H20.8537C22.2037 2.1962 22.9737 2.9362 22.9737 4.3662V20.8262C22.9737 22.2462 22.2037 22.9662 20.8537 22.9662ZM8.5437 19.8262C8.9037 19.8262 9.1037 19.6162 9.7337 19.0062L12.5237 16.2562C12.5637 16.2162 12.6237 16.2162 12.6637 16.2562L15.4637 19.0062C16.0737 19.6162 16.2837 19.8262 16.6437 19.8262C17.1037 19.8262 17.3937 19.4962 17.3937 18.9462V7.4362C17.3937 6.1162 16.7037 5.4162 15.3637 5.4162H9.8137C8.4937 5.4162 7.8037 6.1162 7.8037 7.4362V18.9462C7.8037 19.4962 8.0937 19.8262 8.5437 19.8262Z" /></svg>