
<svg
    viewBox={0 0 26.275656486883232 29.326171875}
    xmlns="http://www.w3.org/2000/svg"
>
    <path
        fill="inherit"
        d="M21.9963 19.3447V3.9247C21.9963 1.3247 20.6963 0.0047 18.1263 0.0047H7.4363C5.8663 0.0047 4.7863 0.5347 4.2063 1.5747ZM24.4863 26.9747C24.8963 27.3847 25.5663 27.3847 25.9763 26.9747C26.3663 26.5647 26.3863 25.8947 25.9763 25.4847L1.7963 1.2947C1.3863 0.8847 0.7063 0.8847 0.2963 1.2947C-0.1037 1.6947 -0.1037 2.3947 0.2963 2.7847ZM3.5663 8.3947V27.6547C3.5663 28.7247 4.0963 29.3247 5.0163 29.3247C5.6863 29.3247 6.0763 28.9447 7.3063 27.7547L12.6563 22.4947C12.7263 22.4247 12.8463 22.4247 12.9063 22.4947L18.2463 27.7547C19.4763 28.9447 19.8763 29.3247 20.5463 29.3247C21.4663 29.3247 21.9963 28.7247 21.9963 27.6547V26.8547Z"
        fillRule="evenodd"
        clipRule="evenodd"
    />
</svg>
        