
<svg
    viewBox={0 0 27.890625 27.890625}
    xmlns="http://www.w3.org/2000/svg"
>
    <path
        fill="inherit"
        d="M13.9427 27.8864C21.6427 27.8864 27.8927 21.6464 27.8927 13.9464C27.8927 6.2464 21.6427 -0.0036 13.9427 -0.0036C6.2527 -0.0036 0.0027 6.2464 0.0027 13.9464C0.0027 21.6464 6.2527 27.8864 13.9427 27.8864ZM13.9427 25.5664C7.5227 25.5664 2.3227 20.3664 2.3227 13.9464C2.3227 7.5164 7.5227 2.3264 13.9427 2.3264C20.3727 2.3264 25.5627 7.5164 25.5627 13.9464C25.5627 20.3664 20.3727 25.5664 13.9427 25.5664ZM10.3527 21.1764H19.0427C19.3427 21.1764 19.6027 20.9064 19.6027 20.6064C19.6027 20.3564 19.4427 20.1264 19.2227 20.0564C18.3927 19.7164 18.2227 18.6464 19.0327 17.8464C19.3027 17.5864 19.6027 17.2264 19.6027 16.5564V8.8564C19.6027 7.4464 18.9127 6.7264 17.5027 6.7264H10.3627C8.9727 6.7264 8.2727 7.4364 8.2727 8.8564V19.0764C8.2727 20.4664 8.9727 21.1764 10.3527 21.1764ZM10.2027 16.9664C9.9827 16.9664 9.8027 16.8064 9.8027 16.5564V8.2864C9.8027 8.0564 9.9827 7.8764 10.2027 7.8764C10.4427 7.8764 10.6327 8.0564 10.6327 8.2864V16.5564C10.6327 16.8064 10.4427 16.9664 10.2027 16.9664ZM10.4227 20.0464C9.7627 20.0464 9.4027 19.6764 9.4027 19.0564C9.4027 18.4864 9.8327 18.1064 10.4727 18.1064H17.3527C17.4227 18.1064 17.4727 18.0864 17.5227 18.0864C17.2627 18.7564 17.3127 19.4564 17.6127 20.0464Z"
        fillRule="evenodd"
        clipRule="evenodd"
    />
</svg>
        