
<svg
    viewBox={0 0 27.890625 27.890625}
    xmlns="http://www.w3.org/2000/svg"
>
    <path
        fill="inherit"
        d="M13.9427 27.8927C21.6427 27.8927 27.8927 21.6427 27.8927 13.9427C27.8927 6.2627 21.6427 0.0027 13.9427 0.0027C6.2627 0.0027 0.0027 6.2627 0.0027 13.9427C0.0027 21.6427 6.2627 27.8927 13.9427 27.8927ZM14.9127 20.0527V7.2427C14.9127 6.7227 15.1727 6.4427 15.7127 6.4427H17.3127C17.8327 6.4427 18.1127 6.7227 18.1127 7.2427V8.6427L19.1927 8.3627C19.7027 8.2427 20.0327 8.5027 20.1227 9.0127L22.3427 19.6427C22.4227 20.1527 22.2027 20.4927 21.6927 20.6027L20.6727 20.8527C20.1827 20.9727 19.8427 20.7227 19.7427 20.2327L18.1127 12.3627V20.0527C18.1127 20.5627 17.8327 20.8527 17.3127 20.8527H15.7127C15.1727 20.8527 14.9127 20.5627 14.9127 20.0527ZM5.9027 20.0527V9.0327C5.9027 8.5327 6.2027 8.2627 6.7427 8.2627H7.9527C8.4727 8.2627 8.7627 8.5327 8.7627 9.0327V20.0527C8.7627 20.5627 8.4727 20.8527 7.9527 20.8527H6.7427C6.2027 20.8527 5.9027 20.5627 5.9027 20.0527ZM9.7027 20.0527V11.2627C9.7027 10.7727 10.0127 10.4627 10.5127 10.4627H13.1527C13.6827 10.4627 13.9427 10.7727 13.9427 11.2627V20.0527C13.9427 20.5627 13.6827 20.8527 13.1527 20.8527H10.5127C10.0127 20.8527 9.7027 20.5627 9.7027 20.0527ZM10.7227 12.4027C10.7227 12.6227 10.8827 12.8227 11.1327 12.8227H12.5527C12.7927 12.8227 12.9727 12.6027 12.9727 12.4027C12.9727 12.1527 12.7927 11.9727 12.5527 11.9727H11.1327C10.8927 11.9727 10.7227 12.1527 10.7227 12.4027ZM10.7227 18.9327C10.7227 19.1827 10.8927 19.3727 11.1327 19.3727H12.5527C12.7927 19.3727 12.9727 19.1827 12.9727 18.9327C12.9727 18.7027 12.7927 18.5127 12.5527 18.5127H11.1327C10.8827 18.5127 10.7227 18.6927 10.7227 18.9327Z"
        fillRule="evenodd"
        clipRule="evenodd"
    />
</svg>
        