
<svg
    viewBox={0 0 33.7790673593817 30.305237147621444}
    xmlns="http://www.w3.org/2000/svg"
>
    <path
        fill="inherit"
        d="M0.0037 27.1107C0.0037 29.2207 1.0137 30.2607 3.1137 30.2607H21.7937C23.8837 30.2607 24.9137 29.2207 24.9137 27.1107V16.7907L26.1437 27.4907C26.4037 29.5707 27.5037 30.5407 29.6037 30.2607L31.0237 30.0607C33.1137 29.7807 33.9737 28.6707 33.7437 26.5907L31.3937 6.1507C31.1437 4.0707 30.0237 3.0907 27.9337 3.3907L26.5137 3.5807C25.8537 3.6607 25.3237 3.8407 24.9137 4.0907V3.1607C24.9137 1.0507 23.8837 0.0007 21.7937 0.0007H19.1137C17.0237 0.0007 15.9937 1.0507 15.9937 3.1607V8.5907C15.6937 8.5207 15.3437 8.4607 14.9537 8.4607H8.9937C8.6037 8.4607 8.2537 8.5207 7.9437 8.5907V6.9407C7.9437 4.8407 6.9337 3.7907 4.8437 3.7907H3.1137C1.0137 3.7907 0.0037 4.8407 0.0037 6.9407ZM18.0637 28.1907V3.3107C18.0637 2.5007 18.4837 2.0607 19.3337 2.0607H21.5737C22.4337 2.0607 22.8437 2.5007 22.8437 3.3107V26.9507C22.8437 27.7507 22.4337 28.1907 21.5737 28.1907ZM28.1637 27.0807L25.8537 6.9707C25.7537 6.1707 26.1237 5.7107 26.9737 5.5907L27.9637 5.4707C28.8037 5.3407 29.2737 5.7607 29.3637 6.5507L31.6737 26.6607C31.7737 27.4807 31.4037 27.9207 30.5737 28.0407L29.5537 28.1807C28.7237 28.3007 28.2637 27.9007 28.1637 27.0807ZM2.0637 26.9507V7.0907C2.0637 6.2907 2.4837 5.8507 3.3337 5.8507H4.6237C5.4737 5.8507 5.8837 6.2907 5.8837 7.0907V28.1907H3.3337C2.4837 28.1907 2.0637 27.7507 2.0637 26.9507ZM7.9437 28.1907V11.7707C7.9437 10.9607 8.3637 10.5307 9.2137 10.5307H14.7337C15.5837 10.5307 15.9937 10.9607 15.9937 11.7707V28.1907ZM9.1837 13.1807C9.1837 13.6607 9.5437 14.0307 10.0537 14.0307H13.9337C14.4137 14.0307 14.7837 13.6607 14.7837 13.1807C14.7837 12.7107 14.4137 12.3407 13.9337 12.3407H10.0537C9.5437 12.3407 9.1837 12.7107 9.1837 13.1807ZM9.1837 25.5407C9.1837 26.0207 9.5437 26.3907 10.0537 26.3907H13.9337C14.4137 26.3907 14.7837 26.0207 14.7837 25.5407C14.7837 25.0707 14.4137 24.7007 13.9337 24.7007H10.0537C9.5437 24.7007 9.1837 25.0707 9.1837 25.5407Z"
        fillRule="evenodd"
        clipRule="evenodd"
    />
</svg>
        