<svg viewBox="0 0 27.890625 27.890625" xmlns="http://www.w3.org/2000/svg"><path d="M13.9427 27.8864C21.6427 27.8864 27.8927 21.6464 27.8927 13.9464C27.8927 6.2464 21.6427 -0.0036 13.9427 -0.0036C6.2527 -0.0036 0.0027 6.2464 0.0027 13.9464C0.0027 21.6464 6.2527 27.8864 13.9427 27.8864ZM13.9427 25.5664C7.5227 25.5664 2.3227 20.3664 2.3227 13.9464C2.3227 7.5164 7.5227 2.3264 13.9427 2.3264C20.3727 2.3264 25.5627 7.5164 25.5627 13.9464C25.5627 20.3664 20.3727 25.5664 13.9427 25.5664ZM9.8827 21.1864C10.2427 21.1864 10.4427 20.9864 11.0727 20.3664L13.8627 17.6264C13.9027 17.5864 13.9627 17.5864 14.0027 17.6264L16.8027 20.3664C17.4227 20.9864 17.6227 21.1864 17.9827 21.1864C18.4327 21.1864 18.7127 20.8664 18.7127 20.3164V8.8064C18.7127 7.4764 18.0327 6.7764 16.7027 6.7764H11.1527C9.8327 6.7764 9.1427 7.4764 9.1427 8.8064V20.3164C9.1427 20.8664 9.4327 21.1864 9.8827 21.1864Z" /></svg>