<svg viewBox="0 0 27.890625 27.890625" xmlns="http://www.w3.org/2000/svg"><path d="M13.9427 27.8864C21.6427 27.8864 27.8927 21.6464 27.8927 13.9464C27.8927 6.2464 21.6427 -0.0036 13.9427 -0.0036C6.2527 -0.0036 0.0027 6.2464 0.0027 13.9464C0.0027 21.6464 6.2527 27.8864 13.9427 27.8864ZM13.9427 25.5664C7.5227 25.5664 2.3227 20.3664 2.3227 13.9464C2.3227 7.5164 7.5227 2.3264 13.9427 2.3264C20.3727 2.3264 25.5627 7.5164 25.5627 13.9464C25.5627 20.3664 20.3727 25.5664 13.9427 25.5664ZM10.1827 8.0764C8.7627 8.0764 7.2727 8.7364 6.6327 9.8564C6.5527 9.9964 6.5527 10.0764 6.5527 10.3064V19.3864C6.5527 19.6564 6.7427 19.8564 7.0427 19.8564C7.2027 19.8564 7.3527 19.7964 7.4827 19.6864C8.2627 19.0164 9.3127 18.6364 10.4227 18.6364C11.3627 18.6364 12.2627 18.9464 13.0127 19.5664C13.0927 19.6364 13.1527 19.6764 13.2327 19.6764C13.3727 19.6764 13.4927 19.5464 13.4927 19.3964V9.8864C13.4927 9.7364 13.4827 9.7064 13.3527 9.5164C12.7327 8.6264 11.5227 8.0764 10.1827 8.0764ZM17.6927 8.0764C16.3527 8.0764 15.1627 8.6264 14.5227 9.5164C14.3927 9.7064 14.3927 9.7364 14.3927 9.8864V19.3964C14.3927 19.5464 14.5027 19.6764 14.6427 19.6764C14.7227 19.6764 14.7927 19.6364 14.8627 19.5664C15.6127 18.9464 16.5327 18.6364 17.4627 18.6364C18.5827 18.6364 19.6327 19.0164 20.4127 19.6864C20.5327 19.7964 20.6727 19.8564 20.8327 19.8564C21.1327 19.8564 21.3427 19.6564 21.3427 19.3864V10.3064C21.3427 10.0764 21.3327 9.9764 21.2427 9.8564C20.6027 8.7364 19.1127 8.0764 17.6927 8.0764Z" /></svg>