
<svg
    viewBox="0 0 24.71875 30.910197045701253"
    xmlns="http://www.w3.org/2000/svg"
>
    <path
        fill="inherit"
        d="M0.0037 26.2033C0.0037 28.5833 1.4637 29.8133 4.0037 29.6633C8.5837 29.4233 12.6637 28.9933 17.8737 27.5633C19.8137 27.0133 20.5637 25.9933 20.5637 23.5933V3.5833C20.5637 0.8633 19.1137 -0.4667 16.4837 0.1533C12.6637 1.0133 8.5837 1.6933 3.6737 1.9833C1.4637 2.1133 0.0037 3.3733 0.0037 5.8533ZM2.2037 25.8133V5.7933C2.2037 4.6433 2.9137 4.1933 3.9237 4.1433C8.6437 3.8933 12.6237 3.2133 16.3637 2.3633C17.6237 2.0733 18.3637 2.7333 18.3637 3.9633V23.5133C18.3637 24.7733 17.9537 25.3333 16.8937 25.6033C12.6237 26.7933 8.6437 27.2333 4.1037 27.4633C2.9137 27.5233 2.2037 26.9133 2.2037 25.8133ZM10.9237 30.9133H20.4937C23.3137 30.9133 24.7237 29.4933 24.7237 26.6333V6.3033C24.7237 4.1833 23.9237 2.8733 22.3637 2.4133C22.4037 2.7733 22.4337 3.1733 22.4337 3.5833V23.5933C22.4337 26.7833 21.1537 28.5633 18.3937 29.3533C15.6937 30.0733 13.2237 30.5533 10.9237 30.9133ZM5.1937 8.9833C9.0737 8.7333 12.1937 8.2033 15.3837 7.4933C15.9937 7.3533 16.1637 7.0433 16.1637 6.6533C16.1637 6.2333 15.8137 5.8633 15.2337 5.9833C12.1937 6.6533 9.0737 7.2033 5.1937 7.4533C4.6637 7.4933 4.4037 7.8233 4.4037 8.2433C4.4037 8.6833 4.7437 9.0033 5.1937 8.9833ZM5.1937 13.3833C9.0737 13.1333 12.1937 12.5933 15.3837 11.8933C15.9937 11.7533 16.1637 11.4433 16.1637 11.0633C16.1637 10.6333 15.8137 10.2633 15.2337 10.3933C12.1937 11.0633 9.0737 11.6033 5.1937 11.8533C4.6637 11.8933 4.4037 12.2233 4.4037 12.6333C4.4037 13.0733 4.7437 13.4133 5.1937 13.3833ZM5.1937 17.7833C9.0737 17.5433 12.1937 16.9933 15.3837 16.2933C15.9937 16.1533 16.1637 15.8433 16.1637 15.4633C16.1637 15.0333 15.8137 14.6633 15.2337 14.7933C12.1937 15.4633 9.0737 16.0033 5.1937 16.2533C4.6637 16.2933 4.4037 16.6233 4.4037 17.0333C4.4037 17.4733 4.7437 17.8133 5.1937 17.7833ZM5.1937 22.1733C7.4337 22.0533 8.9437 21.8333 10.4137 21.6033C10.8737 21.5133 11.1137 21.1633 11.1137 20.8033C11.1137 20.3933 10.7837 20.0033 10.1737 20.1133C8.8637 20.3133 7.3937 20.5233 5.1937 20.6433C4.6637 20.6833 4.4037 21.0133 4.4037 21.4233C4.4037 21.8633 4.7437 22.2033 5.1937 22.1733Z"
        fillRule="evenodd"
        clipRule="evenodd"
    />
</svg>
        