
<svg
    viewBox="0 0 26.275656486883232 29.326171875"
    xmlns="http://www.w3.org/2000/svg"
>
    <path
        fill="inherit"
        d="M21.9963 19.3447V3.9247C21.9963 1.3247 20.6963 0.0047 18.1263 0.0047H7.4363C5.8663 0.0047 4.7863 0.5347 4.2163 1.5547L5.9063 3.2247C6.0963 2.5247 6.6363 2.1647 7.5463 2.1647H18.0263C19.2163 2.1647 19.8363 2.7747 19.8363 3.9547V17.1847ZM24.4863 26.9747C24.8963 27.3847 25.5663 27.3847 25.9763 26.9747C26.3663 26.5647 26.3863 25.8947 25.9763 25.4847L1.7963 1.2947C1.3863 0.8847 0.7063 0.8847 0.2963 1.2947C-0.1037 1.6947 -0.1037 2.3947 0.2963 2.7847ZM5.0163 29.3247C5.6863 29.3247 6.0763 28.9447 7.3063 27.7547L12.6563 22.4947C12.7263 22.4247 12.8463 22.4247 12.9063 22.4947L18.2463 27.7547C19.4763 28.9447 19.8763 29.3247 20.5463 29.3247C21.4663 29.3247 21.9963 28.7247 21.9663 27.9147V27.2047L19.5363 24.7747V25.6047C19.5163 25.6647 19.4763 25.6847 19.3963 25.6047L13.5063 19.8947C13.0663 19.4647 12.4963 19.4647 12.0563 19.8947L6.1363 25.6347C5.9463 25.8247 5.7263 25.7747 5.7263 25.4947V10.6747L3.5663 8.5147V27.6547C3.5663 28.7247 4.0963 29.3247 5.0163 29.3247Z"
        fillRule="evenodd"
        clipRule="evenodd"
    />
</svg>
        