
<svg
    viewBox="0 0 35.984375 30.2421875"
    xmlns="http://www.w3.org/2000/svg"
>
    <path
        fill="inherit"
        d="M0.0027 14.0822C0.0027 19.0722 3.4227 22.3822 8.5427 22.3822C9.3227 22.3822 10.0627 22.3122 10.7627 22.1722C12.2627 23.5322 14.5327 24.4022 17.1627 24.4022C18.1127 24.4022 19.1827 24.2822 20.2527 24.0222C21.2327 25.0922 22.7527 25.7022 24.4827 25.7022C24.8127 25.7022 25.1727 25.6722 25.5227 25.6622C25.8427 27.9822 27.3027 30.2422 29.6727 30.2422C33.0827 30.2422 34.7527 26.0822 34.7527 22.0422C34.7527 20.6022 34.6827 19.5522 34.6027 18.6122C35.4927 17.4622 35.9827 15.9722 35.9827 14.2022C35.9827 10.7422 33.6627 8.0822 30.1027 7.3722C29.3927 4.1122 26.6627 2.0322 23.5927 2.0322C23.3227 2.0322 22.9427 2.0922 22.5627 2.1722C21.4627 0.8222 19.7127 0.0022 17.8027 0.0022C15.7127 0.0022 13.9327 0.7922 12.7127 2.1322C11.7027 1.6722 10.6627 1.4622 9.6527 1.4622C6.3427 1.4622 3.6927 3.7222 3.6927 6.9622C3.6927 7.0022 3.6927 7.0522 3.6927 7.0922C1.3927 8.6422 0.0027 11.2822 0.0027 14.0822ZM10.9827 6.5922C10.9527 7.3022 11.4327 7.7822 12.0627 7.7822C12.6627 7.7822 13.1227 7.3822 13.1527 6.6822C13.2527 4.0922 15.1327 2.1922 17.7827 2.1922C19.3827 2.1922 20.7827 3.0322 21.3427 4.2922C21.4527 4.5022 21.6027 4.5122 21.8627 4.4322C22.3127 4.3022 22.8227 4.2422 23.3127 4.2422C25.7627 4.2622 28.0827 6.1122 28.0827 9.0522C28.0827 15.4722 19.0627 14.5922 19.0627 20.8522C19.0627 21.2622 19.1127 21.6522 19.1927 22.0122C18.6027 22.1522 17.9827 22.2022 17.3927 22.2022C15.9427 22.2022 14.4827 21.8522 13.3727 21.2422C15.6227 19.9922 16.9627 17.7622 16.9627 14.9422C16.9627 14.6522 16.9527 14.3722 16.9127 14.0922C19.9927 13.3022 21.3727 11.2122 21.3727 8.1722C21.3727 7.5722 20.8627 7.0822 20.2627 7.0822C19.6627 7.0822 19.1727 7.5722 19.1727 8.1722C19.1727 10.2222 18.3727 11.5122 16.2927 12.0022C16.0127 11.4722 15.6527 11.0022 15.2127 10.6322C14.7127 10.2222 14.4227 10.0722 13.9427 10.0722C13.3127 10.0722 12.8827 10.4622 12.8827 11.0222C12.8827 11.7022 13.2727 11.8822 13.9027 12.4522C14.4827 13.0122 14.8027 13.8622 14.8027 14.9022C14.8027 18.0722 12.3227 20.1922 8.5827 20.1922C4.7627 20.1922 2.2027 17.7422 2.2027 14.0722C2.2027 12.2922 2.9527 10.6122 4.2427 9.4522C5.0727 11.1322 6.8227 12.1822 9.1627 12.1822C9.7527 12.1822 10.2527 11.6922 10.2527 11.0922C10.2527 10.4822 9.7527 9.9822 9.1627 9.9822C7.1327 9.9822 5.8927 8.7122 5.8927 6.9622C5.8927 5.0222 7.4927 3.6622 9.6427 3.6622C10.2527 3.6622 10.8927 3.7722 11.5227 4.0222C11.2127 4.8022 11.0227 5.6622 10.9827 6.5922ZM27.0527 20.0022C27.0527 20.6122 27.5527 21.0522 28.1627 21.0922C29.8327 21.2022 31.2927 20.9322 32.5027 20.3122C32.5427 20.8522 32.5627 21.3922 32.5627 22.0122C32.5627 25.3322 31.3127 28.0422 29.6727 28.0422C27.9727 28.0422 27.2927 25.7822 27.2927 23.9922C27.2927 23.8422 27.2027 23.7522 27.0127 23.7622C26.6327 23.7622 26.1127 23.7722 25.7727 23.7722C23.0527 23.7722 21.2627 22.9322 21.2627 20.8122C21.2627 15.9322 29.8627 16.8822 30.2727 9.5822C32.4127 10.0322 33.7827 11.7822 33.7827 14.2022C33.7827 17.2822 31.5227 19.1722 28.1627 18.9122C27.5527 18.8522 27.0527 19.4022 27.0527 20.0022Z"
        fillRule="evenodd"
        clipRule="evenodd"
    />
</svg>
        