
<svg
    viewBox={0 0 27.26171875 32.56640625}
    xmlns="http://www.w3.org/2000/svg"
>
    <path
        fill="inherit"
        d="M15.7237 32.5653C20.7637 32.5653 23.8737 30.7753 23.8737 27.6853V21.0153C26.0137 19.1453 27.2637 16.1353 27.2637 12.8353C27.2637 5.1453 22.2337 -0.0047 14.7537 -0.0047C7.3037 -0.0047 2.3137 5.0153 2.3137 12.5553C2.3137 12.9753 2.3237 13.3253 2.3637 13.6853L0.6937 16.6953C0.2237 17.5153 0.0037 18.3153 0.0037 19.0553C0.0037 20.4653 0.8637 21.6253 2.3237 22.0153V24.6353C2.3237 27.0953 4.0737 28.3253 6.3037 28.0853L7.7137 27.9453C7.8737 30.8553 10.8837 32.5653 15.7237 32.5653ZM15.7237 30.3653C12.0337 30.3653 9.7937 29.1853 9.7937 27.3053V25.7453C9.7937 25.5553 9.6937 25.4853 9.5337 25.4953L6.0137 25.8953C5.0537 25.9853 4.5237 25.5653 4.5237 24.4753V20.3853C4.5237 20.2653 4.4437 20.1753 4.2637 20.1753H3.6337C2.7437 20.1753 2.2237 19.7253 2.2237 19.0353C2.2237 18.6653 2.3537 18.2253 2.5937 17.7853L4.6337 14.1253C4.5537 13.5853 4.5137 13.0553 4.5137 12.5053C4.5137 6.3253 8.6037 2.2053 14.7537 2.2053C20.9337 2.2053 25.0637 6.4353 25.0637 12.8353C25.0637 15.9053 23.7737 18.5753 21.6537 19.9353L21.6737 27.3053C21.6737 29.1853 19.4237 30.3653 15.7237 30.3653ZM6.5237 10.4553C6.5237 12.8353 8.1737 14.4353 10.6337 14.4353C10.9637 14.4353 11.2837 14.4053 11.5637 14.3653C12.3137 15.0253 13.4137 15.4253 14.6137 15.4253C15.0637 15.4253 15.5437 15.3653 16.0137 15.2553C16.4837 15.7253 17.2037 15.9953 18.0437 15.9953H18.4037C18.6037 17.2653 19.4237 18.1153 20.4437 18.1153C21.9137 18.1153 22.9437 16.4653 22.9437 14.1353C22.9437 13.5053 22.9137 13.0253 22.8737 12.6053C23.2937 12.0453 23.5337 11.3353 23.5337 10.5153C23.5337 8.8553 22.4337 7.5753 20.7837 7.2153C20.4137 5.7553 19.1637 4.7353 17.6537 4.7353C17.5037 4.7353 17.3537 4.7453 17.2037 4.7753C16.6437 4.1453 15.8137 3.7553 14.9337 3.7553C13.9637 3.7553 13.1237 4.1153 12.5337 4.7353C12.1037 4.5353 11.6237 4.4453 11.1437 4.4453C9.5037 4.4453 8.2737 5.5753 8.2437 7.1253C7.1937 7.8753 6.5237 9.1353 6.5237 10.4553ZM11.6237 6.9753C11.6037 7.3653 11.8637 7.6653 12.2537 7.6653C12.6337 7.6653 12.8937 7.3953 12.9037 7.0153C12.9637 5.8753 13.7837 5.0553 14.9337 5.0553C15.6037 5.0553 16.2037 5.4153 16.4437 5.9753C16.5437 6.1653 16.7337 6.1653 17.0337 6.0853C17.1737 6.0453 17.3337 6.0453 17.5237 6.0453C18.6737 6.0453 19.5637 6.9353 19.5637 8.1253C19.5637 11.0153 15.3437 10.5153 15.3437 13.6153C15.3437 13.7653 15.3537 13.9153 15.3837 14.0653C15.1637 14.1053 14.9337 14.1253 14.7137 14.1253C14.1237 14.1253 13.5637 13.9953 13.1137 13.7953C14.0937 13.1753 14.6837 12.1453 14.6837 10.8653C14.6837 10.7753 14.6737 10.6753 14.6737 10.5853C16.0137 10.1853 16.7237 9.2153 16.7237 7.7253C16.7237 7.3853 16.4237 7.0853 16.0637 7.0853C15.7137 7.0853 15.4237 7.3653 15.4237 7.7253C15.4237 8.6253 15.0837 9.1153 14.3037 9.3353C14.1737 9.1053 14.0137 8.9153 13.8037 8.7453C13.5637 8.5453 13.3837 8.4453 13.1537 8.4453C12.7837 8.4453 12.5237 8.7053 12.5237 9.0353C12.5237 9.4153 12.7537 9.5553 13.0037 9.8053C13.2637 10.0453 13.3937 10.4053 13.3937 10.8453C13.3937 12.2353 12.3137 13.1353 10.6537 13.1353C8.9537 13.1353 7.8237 12.0853 7.8237 10.4453C7.8237 9.7253 8.1037 9.0353 8.6037 8.5353C9.0537 9.2653 9.8737 9.7253 10.9137 9.7253C11.2637 9.7253 11.5637 9.4153 11.5637 9.0653C11.5637 8.7053 11.2637 8.4253 10.9137 8.4253C10.0937 8.4253 9.5437 7.9153 9.5437 7.1553C9.5437 6.3253 10.2137 5.7453 11.1437 5.7453C11.3737 5.7453 11.6037 5.7853 11.8237 5.8553C11.7037 6.1953 11.6337 6.5753 11.6237 6.9753ZM19.1137 13.1953C19.1137 13.5453 19.3737 13.8053 19.7437 13.8453C20.4537 13.8953 21.0837 13.7953 21.6337 13.5653C21.6437 13.7353 21.6437 13.9353 21.6437 14.1253C21.6437 15.6253 21.0937 16.8153 20.4437 16.8153C19.8837 16.8153 19.4837 16.1053 19.4837 15.0753C19.4837 14.9053 19.3637 14.8153 19.1937 14.8153C19.0037 14.8153 18.7737 14.8353 18.6037 14.8353C17.3037 14.8353 16.6437 14.4053 16.6437 13.6053C16.6437 11.4553 20.5637 11.9453 20.8637 8.5453C21.6937 8.7953 22.2337 9.5053 22.2337 10.5153C22.2337 11.8353 21.2637 12.6553 19.7737 12.5553C19.4137 12.5253 19.1137 12.8353 19.1137 13.1953Z"
        fillRule="evenodd"
        clipRule="evenodd"
    />
</svg>
        