
<svg
    viewBox="0 0 27.26171875 32.56640625"
    xmlns="http://www.w3.org/2000/svg"
>
    <path
        fill="inherit"
        d="M15.7237 32.5653C20.7637 32.5653 23.8737 30.7753 23.8737 27.6853V21.0153C26.0137 19.1453 27.2637 16.1353 27.2637 12.8353C27.2637 5.1453 22.2337 -0.0047 14.7537 -0.0047C7.3037 -0.0047 2.3137 5.0153 2.3137 12.5553C2.3137 12.9753 2.3237 13.3253 2.3637 13.6853L0.6937 16.6953C0.2237 17.5153 0.0037 18.3153 0.0037 19.0553C0.0037 20.4653 0.8637 21.6253 2.3237 22.0153V24.6353C2.3237 27.0953 4.0737 28.3253 6.3037 28.0853L7.7137 27.9453C7.8737 30.8553 10.8837 32.5653 15.7237 32.5653ZM15.7237 30.3653C12.0337 30.3653 9.7937 29.1853 9.7937 27.3053V25.7453C9.7937 25.5553 9.6937 25.4853 9.5337 25.4953L6.0137 25.8953C5.0537 25.9853 4.5237 25.5653 4.5237 24.4753V20.3853C4.5237 20.2653 4.4437 20.1753 4.2637 20.1753H3.6337C2.7437 20.1753 2.2237 19.7253 2.2237 19.0353C2.2237 18.6653 2.3537 18.2253 2.5937 17.7853L4.6337 14.1253C4.5537 13.5853 4.5137 13.0553 4.5137 12.5053C4.5137 6.3253 8.6037 2.2053 14.7537 2.2053C20.9337 2.2053 25.0637 6.4353 25.0637 12.8353C25.0637 15.9053 23.7737 18.5753 21.6537 19.9353L21.6737 27.3053C21.6737 29.1853 19.4237 30.3653 15.7237 30.3653ZM10.2037 14.4053C11.8137 14.4053 12.9437 13.3553 12.9437 11.8653C12.9437 11.3453 12.7837 10.9253 12.5137 10.6353C12.2737 10.4153 12.1937 10.1953 12.1937 10.0253C12.1937 9.6953 12.4837 9.4353 12.8337 9.4353C12.9737 9.4353 13.1837 9.4653 13.3137 9.6153C13.3937 9.6753 13.4837 9.8253 13.5037 9.9153C14.5737 9.7653 15.1037 9.1353 15.1037 8.1053C15.1037 7.7553 15.3937 7.4653 15.7337 7.4653C16.0737 7.4653 16.3837 7.7653 16.3837 8.1053C16.3937 9.6753 15.6037 10.6653 14.1137 11.0053C14.1937 11.2953 14.2237 11.5953 14.2237 11.8953C14.2237 13.2353 13.5537 14.3053 12.4537 14.9053C13.0737 15.2453 13.8037 15.4053 14.6037 15.4053C14.9537 15.4053 15.3237 15.3653 15.6937 15.2953C15.6237 15.1053 15.6037 14.9053 15.6037 14.6953C15.6037 11.2253 20.7437 10.6053 20.7437 7.4753C20.7437 5.9353 19.5337 4.7353 18.0337 4.7353C17.4837 4.7353 17.3337 4.7453 17.1837 4.7853C16.6237 4.1453 15.8037 3.7753 15.0537 3.7753C13.7237 3.7753 12.7837 4.5953 12.7737 5.8553C12.7737 6.2353 12.4937 6.4953 12.1237 6.4953C11.7437 6.4953 11.4737 6.1953 11.4937 5.8153C11.4937 5.2453 11.6637 4.8653 11.8137 4.5153C11.5837 4.4753 11.3637 4.4453 11.1437 4.4453C9.5037 4.4453 8.2437 5.4653 8.2437 6.7853C8.2437 7.6253 8.8337 8.2753 9.6137 8.2753C9.9837 8.2753 10.2837 8.5553 10.2837 8.9053C10.2837 9.2553 9.9637 9.5553 9.6137 9.5553C8.5037 9.5553 7.6337 9.0253 7.2337 8.1853C6.7837 8.8553 6.5337 9.6553 6.5337 10.4453C6.5337 12.6853 7.9837 14.4053 10.2037 14.4053ZM20.4237 18.1053C21.8737 18.1053 22.9137 16.4353 22.9137 14.1253C22.9137 13.9453 22.9137 13.7353 22.9037 13.5353C22.3637 13.7853 21.7237 13.8953 21.0037 13.8453C20.6437 13.8053 20.3837 13.5353 20.3837 13.1953C20.3837 12.8353 20.6837 12.5353 21.0237 12.5653C22.5137 12.6553 23.4837 11.8353 23.4837 10.5153C23.4837 9.2953 22.8837 8.2753 21.9037 7.7153C21.5337 11.4853 16.7237 11.9853 16.7237 14.6653C16.7237 15.4453 17.2537 15.9953 18.1537 15.9953H18.3737C18.6037 17.2353 19.4137 18.1053 20.4237 18.1053Z"
        fillRule="evenodd"
        clipRule="evenodd"
    />
</svg>
        