<svg viewBox="0 0 35.984375 30.2421875" xmlns="http://www.w3.org/2000/svg"><path d="M7.6327 22.2022C10.9527 22.2022 12.9927 19.9922 12.9927 17.1122C12.9927 16.2122 12.6027 15.1922 12.0727 14.6722C11.4527 14.0822 11.0627 13.9222 11.0627 13.2322C11.0627 12.6722 11.4827 12.2922 12.1227 12.2922C12.5927 12.2922 12.8927 12.4322 13.3827 12.8522C13.8127 13.2222 14.1827 13.6822 14.4327 14.2322C16.5427 13.7422 17.3327 12.4522 17.3327 10.3922C17.3327 9.7922 17.8427 9.2822 18.4427 9.2822C19.0427 9.2822 19.5327 9.7922 19.5327 10.3922C19.5527 13.4122 18.1527 15.5222 15.0927 16.2922C15.1227 16.5722 15.1527 16.8622 15.1527 17.1622C15.1527 19.7122 14.0427 21.7822 12.1127 23.0822C13.4827 23.9222 15.2327 24.4022 17.0227 24.4022C17.3627 24.4022 17.7427 24.3722 18.4727 24.3522C18.3227 23.6622 18.2427 23.0222 18.2427 22.4122C18.2427 14.2822 29.7527 15.1722 29.7527 7.4522C29.7527 4.2422 26.6327 2.0322 23.5927 2.0322C23.3227 2.0322 22.9427 2.0922 22.5627 2.1722C21.4627 0.8222 19.7127 0.0022 18.0727 0.0022C15.1727 0.0022 13.2527 1.8822 13.1527 4.5022C13.1227 5.1922 12.6627 5.5922 12.0627 5.5922C11.4327 5.5922 10.9527 5.1122 10.9827 4.4022C11.0227 3.4222 11.2227 2.5122 11.5827 1.7222C10.9327 1.5422 10.2927 1.4622 9.6527 1.4622C6.3427 1.4622 3.8727 3.5522 3.8727 6.1122C3.8727 7.8222 5.1427 9.2322 6.9827 9.2322C7.5927 9.2322 8.0827 9.7322 8.0827 10.3222C8.0827 10.9222 7.5927 11.4322 6.9827 11.4322C4.5927 11.4322 2.8427 10.3222 2.0327 8.5822C0.7527 10.0722 0.0027 12.0422 0.0027 14.0822C0.0027 18.7722 3.0227 22.2022 7.6327 22.2022ZM29.6727 30.2422C33.0827 30.2422 34.7527 26.0822 34.7527 22.0422C34.7527 21.4222 34.7227 20.8522 34.7127 20.3122C33.5127 20.9322 32.0427 21.2022 30.3627 21.0922C29.7527 21.0522 29.2627 20.6122 29.2627 20.0022C29.2627 19.4022 29.7527 18.8522 30.3627 18.9122C33.7327 19.1722 35.9827 17.2822 35.9827 14.2022C35.9827 11.4722 34.5127 9.2322 32.1327 8.0922C30.3927 17.0922 20.5627 15.8822 20.2627 22.0122C20.1627 24.0722 21.7427 25.7022 23.9827 25.7022C24.7727 25.7022 25.1727 25.6722 25.5227 25.6622C25.8427 27.9822 27.3027 30.2422 29.6727 30.2422Z" /></svg>