
<svg
    viewBox="0 0 27.26171875 32.56640625"
    xmlns="http://www.w3.org/2000/svg"
>
    <path
        fill="inherit"
        d="M15.7237 32.5653C20.7637 32.5653 23.8737 30.7753 23.8737 27.6853V21.0153C26.0137 19.1453 27.2637 16.1353 27.2637 12.8353C27.2637 5.1453 22.2337 -0.0047 14.7537 -0.0047C7.3037 -0.0047 2.3137 5.0153 2.3137 12.5553C2.3137 12.9753 2.3237 13.3253 2.3637 13.6853L0.6937 16.6953C0.2337 17.5153 0.0037 18.3153 0.0037 19.0553C0.0037 20.4653 0.8637 21.6253 2.3237 22.0153V24.6353C2.3237 27.0953 4.0737 28.3453 6.3037 28.0853L7.7237 27.9453L7.7137 28.0453C7.9137 30.9153 10.9337 32.5653 15.7237 32.5653ZM10.0637 14.5353C7.7637 14.5353 6.2737 12.7553 6.2737 10.4353C6.2737 9.6153 6.5337 8.7953 7.0037 8.1053C7.4137 8.9653 8.3037 9.5153 9.4437 9.5153C9.8137 9.5153 10.1437 9.2053 10.1437 8.8453C10.1437 8.4753 9.8337 8.1753 9.4437 8.1753C8.6537 8.1753 8.0437 7.5153 8.0437 6.6553C8.0437 5.2953 9.3337 4.2553 11.0237 4.2553C11.2637 4.2553 11.4837 4.2753 11.7337 4.3053C11.5637 4.6753 11.4037 5.0753 11.3937 5.6453C11.3637 6.0453 11.6437 6.3553 12.0537 6.3553C12.4437 6.3553 12.7137 6.0953 12.7137 5.6853C12.7237 4.4053 13.7037 3.5553 15.0537 3.5553C15.8437 3.5553 16.6937 3.9353 17.2637 4.5753C17.4137 4.5353 17.5837 4.5253 18.1437 4.5253C19.7037 4.5253 20.9437 5.7853 20.9437 7.3653C20.9437 10.6053 15.6237 11.2253 15.6237 14.8153C15.6237 15.0353 15.6637 15.2453 15.7337 15.4453C15.3537 15.5153 14.9537 15.5553 14.6037 15.5553C13.7837 15.5553 13.0337 15.3853 12.3837 15.0353C13.5337 14.4253 14.2037 13.3153 14.2037 11.9353C14.2037 11.6253 14.1737 11.3053 14.0937 11.0053C15.6237 10.6653 16.4437 9.6353 16.4337 8.0253C16.4337 7.6653 16.1337 7.3553 15.7737 7.3553C15.4237 7.3553 15.1237 7.6553 15.1237 8.0253C15.1237 9.0753 14.5737 9.7253 13.4637 9.8753C13.4437 9.7853 13.3537 9.6553 13.2737 9.5853C13.1237 9.4353 12.9337 9.3953 12.7737 9.3953C12.4137 9.3953 12.1237 9.6553 12.1237 9.9953C12.1237 10.1853 12.2137 10.4153 12.4437 10.6353C12.7237 10.9253 12.9037 11.3753 12.9037 11.9053C12.9037 13.4353 11.7337 14.5353 10.0637 14.5353ZM20.6037 18.3353C19.5637 18.3353 18.7337 17.4453 18.4937 16.1453H18.2637C17.3337 16.1453 16.7937 15.5853 16.7937 14.7953C16.7937 12.0453 21.7537 11.5153 22.1337 7.6153C23.1437 8.2053 23.7737 9.2453 23.7737 10.4953C23.7737 11.8853 22.7737 12.7253 21.2337 12.6153C20.8937 12.5953 20.5737 12.9053 20.5737 13.2753C20.5737 13.6153 20.8337 13.9053 21.2037 13.9453C21.9537 13.9853 22.6137 13.8753 23.1737 13.6353C23.1837 13.8353 23.1837 14.0553 23.1837 14.2453C23.1837 16.6253 22.1037 18.3353 20.6037 18.3353Z"
        fillRule="evenodd"
        clipRule="evenodd"
    />
</svg>
        