
<svg
    viewBox={0 0 39.01953125 26.66015625}
    xmlns="http://www.w3.org/2000/svg"
>
    <path
        fill="inherit"
        d="M19.5127 26.6612C26.8827 26.6612 32.8527 20.6812 32.8527 13.3312C32.8527 5.9612 26.8827 0.0012 19.5127 0.0012C12.1527 0.0012 6.1827 5.9612 6.1827 13.3312C6.1827 20.6812 12.1527 26.6612 19.5127 26.6612ZM36.9527 7.7512C37.6127 7.5312 37.9527 6.8912 37.6927 6.2112C37.0827 4.6212 36.2627 3.1212 35.2327 1.7612C34.8127 1.1912 34.0827 1.1212 33.5327 1.5612C33.0327 1.9812 32.9927 2.6512 33.3727 3.1712C34.2527 4.3512 34.9627 5.6512 35.5027 7.0112C35.7527 7.6412 36.3427 7.9312 36.9527 7.7512ZM2.0627 7.7512C2.6927 7.9312 3.2627 7.6412 3.5227 7.0112C4.0727 5.6512 4.7827 4.3512 5.6427 3.1712C6.0427 2.6512 5.9927 1.9812 5.4827 1.5612C4.9327 1.1212 4.2127 1.1912 3.7827 1.7612C2.7727 3.1212 1.9527 4.6212 1.3427 6.2112C1.0627 6.8912 1.4127 7.5312 2.0627 7.7512ZM19.5127 24.3312C13.4427 24.3312 8.5027 19.4012 8.5027 13.3312C8.5027 7.2412 13.4427 2.3112 19.5127 2.3112C25.5927 2.3112 30.5327 7.2412 30.5327 13.3312C30.5327 19.4012 25.5927 24.3312 19.5127 24.3312ZM37.4027 17.2112C38.0727 17.3612 38.7027 16.9712 38.8027 16.2512C38.9527 15.3012 39.0227 14.3312 39.0227 13.3312C39.0227 12.3412 38.9527 11.3712 38.8027 10.4012C38.7027 9.6812 38.0927 9.3012 37.4227 9.4312C36.7627 9.5812 36.4127 10.1312 36.4927 10.7912C36.6227 11.6212 36.6827 12.4512 36.6827 13.3312C36.6827 14.1812 36.6227 15.0412 36.4927 15.8412C36.4127 16.5112 36.7627 17.0712 37.4027 17.2112ZM1.6127 17.2112C2.2527 17.0712 2.6227 16.5112 2.5327 15.8412C2.3927 15.0412 2.3427 14.1812 2.3427 13.3312C2.3427 12.4512 2.3927 11.6212 2.5327 10.7912C2.6227 10.1312 2.2527 9.5812 1.6027 9.4312C0.9427 9.3012 0.3327 9.6812 0.2227 10.4012C0.0727 11.3712 0.0027 12.3412 0.0027 13.3312C0.0027 14.3312 0.0727 15.3012 0.2227 16.2512C0.3327 16.9712 0.9527 17.3612 1.6127 17.2112ZM33.5327 25.0912C34.0827 25.5212 34.8127 25.4612 35.2327 24.8712C36.2627 23.5112 37.0827 22.0112 37.6927 20.4212C37.9527 19.7412 37.6127 19.1112 36.9527 18.8912C36.3427 18.7012 35.7527 18.9912 35.5027 19.6212C34.9627 20.9912 34.2527 22.2812 33.3727 23.4612C32.9927 23.9912 33.0327 24.6512 33.5327 25.0912ZM5.4827 25.0912C5.9927 24.6512 6.0427 23.9912 5.6427 23.4612C4.7827 22.2812 4.0727 20.9912 3.5227 19.6212C3.2627 18.9912 2.6927 18.7012 2.0627 18.8912C1.4127 19.1112 1.0627 19.7412 1.3427 20.4212C1.9527 22.0112 2.7727 23.5112 3.7827 24.8712C4.2127 25.4612 4.9327 25.5212 5.4827 25.0912Z"
        fillRule="evenodd"
        clipRule="evenodd"
    />
</svg>
        