
<svg
    viewBox="0 0 27.890625 27.890625"
    xmlns="http://www.w3.org/2000/svg"
>
    <path
        fill="inherit"
        d="M13.9427 27.8864C21.6427 27.8864 27.8927 21.6464 27.8927 13.9464C27.8927 6.2464 21.6427 -0.0036 13.9427 -0.0036C6.2527 -0.0036 0.0027 6.2464 0.0027 13.9464C0.0027 21.6464 6.2527 27.8864 13.9427 27.8864ZM13.9427 25.5664C7.5227 25.5664 2.3227 20.3664 2.3227 13.9464C2.3227 7.5164 7.5227 2.3264 13.9427 2.3264C20.3727 2.3264 25.5627 7.5164 25.5627 13.9464C25.5627 20.3664 20.3727 25.5664 13.9427 25.5664ZM17.9927 20.4964C18.2127 20.4964 18.3627 20.3564 18.3627 20.1264V19.0764C20.1127 18.9464 21.2627 17.9264 21.2627 16.2664C21.2627 14.6464 20.2527 13.9864 18.8927 13.3464L18.3627 13.0964V9.7164C19.1827 9.8664 19.5227 10.5164 19.6627 11.2664C19.7327 11.5264 19.9627 11.8164 20.3727 11.8164C20.7927 11.8164 21.0727 11.5664 21.0727 11.1464C21.0727 11.0464 21.0427 10.8564 21.0127 10.7364C20.6827 9.2164 19.6227 8.5764 18.3627 8.4764V7.4364C18.3627 7.2064 18.2127 7.0664 17.9927 7.0664C17.7627 7.0664 17.6227 7.2064 17.6227 7.4364V8.4764C16.0127 8.6164 14.8627 9.5964 14.8627 11.1964C14.8627 12.6464 15.6827 13.4164 17.1627 14.1064L17.6227 14.3264V17.8164C16.7527 17.6864 16.3227 17.1464 16.1627 16.2164C16.0827 15.8464 15.7927 15.6564 15.4627 15.6564C15.0427 15.6564 14.7527 15.8964 14.7527 16.3264C14.7527 16.4464 14.7827 16.6064 14.8027 16.7364C15.1527 18.2964 16.2727 18.9664 17.6227 19.0764V20.1264C17.6227 20.3564 17.7627 20.4964 17.9927 20.4964ZM7.8627 19.3864C8.3527 19.3864 8.6427 19.0764 8.6427 18.5764V14.8764H10.3327L12.0027 18.8264C12.1827 19.2064 12.4027 19.3864 12.7927 19.3864C13.2527 19.3864 13.5527 19.0964 13.5527 18.6664C13.5527 18.4564 13.4627 18.2764 13.3827 18.1064L11.8427 14.5464C13.0427 14.0264 13.5727 12.8064 13.5727 11.5564C13.5727 9.4464 12.2527 8.2864 10.2427 8.2864H7.8427C7.3727 8.2864 7.0827 8.5964 7.0827 9.0764V18.5764C7.0827 19.0464 7.3127 19.3864 7.8627 19.3864ZM8.6427 13.6264V9.5864H10.0927C11.3327 9.5864 12.0127 10.3664 12.0127 11.5964C12.0127 12.7964 11.4127 13.6264 10.1127 13.6264ZM16.3227 11.1064C16.3227 10.2964 16.8527 9.8264 17.6227 9.7164V12.7264C16.8727 12.3464 16.3227 11.8764 16.3227 11.1064ZM19.7827 16.3964C19.7827 17.2764 19.2627 17.7364 18.3627 17.8264V14.6964C19.1427 15.0764 19.7827 15.5164 19.7827 16.3964Z"
        fillRule="evenodd"
        clipRule="evenodd"
    />
</svg>
        