
<svg
    viewBox="0 0 25.169921875 25.169921875"
    xmlns="http://www.w3.org/2000/svg"
>
    <path
        fill="inherit"
        d="M4.2937 25.1692H20.8737C23.7437 25.1692 25.1737 23.7592 25.1737 20.9492V4.2392C25.1737 1.4192 23.7437 -0.0008 20.8737 -0.0008H4.2937C1.4337 -0.0008 0.0037 1.4192 0.0037 4.2392V20.9492C0.0037 23.7592 1.4337 25.1692 4.2937 25.1692ZM4.3237 22.9692C2.9537 22.9692 2.2037 22.2392 2.2037 20.8192V4.3592C2.2037 2.9392 2.9537 2.1992 4.3237 2.1992H20.8537C22.2037 2.1992 22.9737 2.9392 22.9737 4.3592V20.8192C22.9737 22.2392 22.2037 22.9692 20.8537 22.9692ZM16.6537 19.1292C16.8737 19.1292 17.0237 18.9892 17.0237 18.7592V17.7092C18.7737 17.5792 19.9237 16.5592 19.9237 14.8992C19.9237 13.2792 18.9037 12.6192 17.5537 11.9792L17.0237 11.7292V8.3492C17.8437 8.4992 18.1837 9.1492 18.3237 9.8992C18.3937 10.1592 18.6237 10.4492 19.0437 10.4492C19.4537 10.4492 19.7237 10.1992 19.7237 9.7792C19.7237 9.6792 19.7037 9.4892 19.6737 9.3692C19.3437 7.8492 18.2937 7.2092 17.0237 7.1092V6.0692C17.0237 5.8392 16.8737 5.6992 16.6537 5.6992C16.4237 5.6992 16.2837 5.8392 16.2837 6.0692V7.1092C14.6737 7.2492 13.5237 8.2292 13.5237 9.8292C13.5237 11.2792 14.3437 12.0492 15.8137 12.7392L16.2837 12.9592V16.4492C15.4237 16.3192 14.9837 15.7792 14.8237 14.8492C14.7537 14.4792 14.4537 14.2892 14.1237 14.2892C13.7037 14.2892 13.4137 14.5292 13.4137 14.9592C13.4137 15.0792 13.4437 15.2392 13.4637 15.3692C13.8037 16.9292 14.9437 17.5992 16.2837 17.7092V18.7592C16.2837 18.9892 16.4237 19.1292 16.6537 19.1292ZM6.5237 18.0192C7.0137 18.0192 7.3037 17.7092 7.3037 17.2092V13.5092H8.9937L10.6637 17.4592C10.8437 17.8392 11.0637 18.0192 11.4737 18.0192C11.9037 18.0192 12.2137 17.7292 12.2137 17.2992C12.2137 17.0892 12.1237 16.9092 12.0437 16.7392L10.5037 13.1792C11.7037 12.6592 12.2337 11.4392 12.2337 10.1892C12.2337 8.0792 10.9237 6.9192 8.9137 6.9192H6.5037C6.0337 6.9192 5.7437 7.2292 5.7437 7.7092V17.2092C5.7437 17.6792 5.9837 18.0192 6.5237 18.0192ZM7.3037 12.2592V8.2192H8.7537C9.9937 8.2192 10.6737 8.9992 10.6737 10.2292C10.6737 11.4292 10.0737 12.2592 8.7737 12.2592ZM14.9837 9.7392C14.9837 8.9292 15.5137 8.4592 16.2837 8.3492V11.3592C15.5337 10.9792 14.9837 10.5092 14.9837 9.7392ZM18.4437 15.0292C18.4437 15.9092 17.9237 16.3692 17.0237 16.4592V13.3292C17.8037 13.7092 18.4437 14.1492 18.4437 15.0292Z"
        fillRule="evenodd"
        clipRule="evenodd"
    />
</svg>
        