
<svg
    viewBox={0 0 30.529296875 29.17578125}
    xmlns="http://www.w3.org/2000/svg"
>
    <path
        fill="inherit"
        d="M1.0937 29.179H29.4237C30.0237 29.179 30.5337 28.669 30.5337 28.069C30.5337 27.469 30.0237 26.979 29.4237 26.979H28.7137V25.979C28.7137 25.429 28.3937 25.099 27.8337 25.099H26.9637V9.379H28.1637C28.9137 9.379 29.3537 8.829 29.3537 8.269C29.3537 7.859 29.1237 7.509 28.6137 7.219L16.9437 0.479C16.3937 0.169 15.8137 -0.001 15.2537 -0.001C14.6937 -0.001 14.1137 0.169 13.5937 0.479L1.9137 7.219C1.3937 7.509 1.1737 7.859 1.1737 8.269C1.1737 8.829 1.6137 9.379 2.3637 9.379H3.5637V25.099H2.7037C2.1437 25.099 1.8137 25.429 1.8137 25.979V26.979H1.0937C0.4937 26.979 0.0037 27.469 0.0037 28.069C0.0037 28.669 0.4937 29.179 1.0937 29.179ZM19.0337 21.699C18.8237 21.699 18.6937 21.559 18.6937 21.359V20.369C17.4337 20.279 16.3937 19.649 16.0737 18.209C16.0337 18.099 16.0237 17.939 16.0237 17.829C16.0237 17.429 16.2937 17.199 16.6937 17.199C16.9937 17.199 17.2637 17.379 17.3337 17.729C17.4837 18.579 17.8937 19.089 18.6937 19.199V15.979L18.2637 15.779C16.8837 15.119 16.1237 14.419 16.1237 13.069C16.1237 11.579 17.1837 10.669 18.6937 10.539V9.579C18.6937 9.369 18.8237 9.229 19.0337 9.229C19.2337 9.229 19.3837 9.369 19.3837 9.579V10.539C20.5537 10.639 21.5337 11.229 21.8337 12.649C21.8637 12.739 21.8937 12.919 21.8937 13.019C21.8937 13.409 21.6337 13.649 21.2437 13.649C20.8537 13.649 20.6437 13.369 20.5737 13.129C20.4637 12.439 20.1437 11.849 19.3837 11.719V14.829L19.8837 15.069C21.1337 15.659 22.0837 16.259 22.0837 17.759C22.0837 19.309 21.0037 20.259 19.3837 20.369V21.359C19.3837 21.559 19.2337 21.699 19.0337 21.699ZM9.6437 20.669C9.1237 20.669 8.9037 20.359 8.9037 19.919V11.119C8.9037 10.649 9.1637 10.379 9.6137 10.379H11.8437C13.7137 10.379 14.9437 11.439 14.9437 13.399C14.9437 14.579 14.4537 15.699 13.3137 16.189L14.7537 19.459C14.8237 19.629 14.9137 19.799 14.9137 19.989C14.9137 20.399 14.6337 20.669 14.2237 20.669C13.8337 20.669 13.6337 20.499 13.4837 20.139L11.9237 16.489H10.3637V19.919C10.3637 20.369 10.0937 20.669 9.6437 20.669ZM10.3637 15.329H11.7337C12.9237 15.329 13.4837 14.559 13.4837 13.429C13.4837 12.309 12.8537 11.569 11.7037 11.569H10.3637ZM17.4837 12.989C17.4837 13.699 18.0037 14.119 18.6937 14.489V11.699C17.9937 11.799 17.4837 12.239 17.4837 12.989ZM19.3837 19.209C20.2037 19.139 20.7037 18.699 20.7037 17.899C20.7037 17.079 20.1137 16.679 19.3837 16.309Z"
        fillRule="evenodd"
        clipRule="evenodd"
    />
</svg>
        