
<svg
    viewBox="0 0 25.169921875 25.169921875"
    xmlns="http://www.w3.org/2000/svg"
>
    <path
        fill="inherit"
        d="M4.2937 25.1692H20.8737C23.7437 25.1692 25.1737 23.7592 25.1737 20.9492V4.2392C25.1737 1.4192 23.7437 -0.0008 20.8737 -0.0008H4.2937C1.4337 -0.0008 0.0037 1.4192 0.0037 4.2392V20.9492C0.0037 23.7592 1.4337 25.1692 4.2937 25.1692ZM16.7737 19.3292C16.5337 19.3292 16.3937 19.1992 16.3937 18.9492V17.8592C14.9937 17.7592 13.8337 17.0592 13.4837 15.4592C13.4537 15.3392 13.4237 15.1592 13.4237 15.0392C13.4237 14.5992 13.7237 14.3392 14.1637 14.3392C14.5037 14.3392 14.8237 14.5492 14.8937 14.9292C15.0537 15.8892 15.5037 16.4492 16.3937 16.5592V12.9892L15.9137 12.7592C14.3837 12.0292 13.5337 11.2492 13.5337 9.7492C13.5337 8.1092 14.7237 7.0792 16.3937 6.9492V5.8792C16.3937 5.6292 16.5337 5.4992 16.7737 5.4992C16.9937 5.4992 17.1537 5.6292 17.1537 5.8792V6.9492C18.4537 7.0592 19.5537 7.7092 19.8937 9.2792C19.9237 9.3892 19.9437 9.5992 19.9437 9.6892C19.9437 10.1292 19.6637 10.3892 19.2337 10.3892C18.8037 10.3892 18.5637 10.0892 18.4837 9.8192C18.3637 9.0492 18.0037 8.3992 17.1537 8.2392V11.6992L17.7037 11.9592C19.1037 12.6192 20.1537 13.2992 20.1537 14.9692C20.1537 16.6792 18.9637 17.7492 17.1537 17.8692V18.9492C17.1537 19.1992 16.9937 19.3292 16.7737 19.3292ZM6.3337 18.1992C5.7737 18.1992 5.5137 17.8392 5.5137 17.3592V7.5692C5.5137 7.0692 5.8137 6.7492 6.3037 6.7492H8.7937C10.8737 6.7492 12.2237 7.9392 12.2237 10.1192C12.2237 11.4192 11.6737 12.6692 10.4337 13.2092L12.0137 16.8592C12.1037 17.0492 12.1937 17.2292 12.1937 17.4492C12.1937 17.8992 11.8837 18.1992 11.4337 18.1992C11.0037 18.1992 10.7737 18.0092 10.5937 17.6092L8.8737 13.5492H7.1337V17.3592C7.1337 17.8692 6.8337 18.1992 6.3337 18.1992ZM7.1337 12.2592H8.6537C9.9837 12.2592 10.6137 11.3992 10.6137 10.1592C10.6137 8.8992 9.8937 8.0892 8.6237 8.0892H7.1337ZM15.0537 9.6492C15.0537 10.4492 15.6237 10.9192 16.3937 11.3292V8.2292C15.6137 8.3392 15.0537 8.8192 15.0537 9.6492ZM17.1537 16.5792C18.0737 16.4892 18.6237 16.0092 18.6237 15.1092C18.6237 14.2092 17.9737 13.7692 17.1537 13.3592Z"
        fillRule="evenodd"
        clipRule="evenodd"
    />
</svg>
        