
<svg
    viewBox="0 0 30.5703125 30.5703125"
    xmlns="http://www.w3.org/2000/svg"
>
    <path
        fill="inherit"
        d="M15.2827 30.5663C23.6827 30.5663 30.5727 23.6763 30.5727 15.2863C30.5727 6.8863 23.6827 -0.0038 15.2827 -0.0038C6.8927 -0.0038 0.0027 6.8863 0.0027 15.2863C0.0027 23.6763 6.8927 30.5663 15.2827 30.5663ZM15.2827 25.4862C9.6527 25.4862 5.0827 20.9162 5.0827 15.2863C5.0827 9.6363 9.6527 5.0863 15.2827 5.0863C20.9327 5.0863 25.4827 9.6363 25.4827 15.2863C25.4827 20.9162 20.9327 25.4862 15.2827 25.4862ZM19.3427 21.8363C19.5627 21.8363 19.7127 21.6963 19.7127 21.4663V20.4162C21.4627 20.2863 22.6127 19.2663 22.6127 17.6063C22.6127 15.9863 21.6027 15.3263 20.2527 14.6863L19.7127 14.4363V11.0563C20.5327 11.2063 20.8727 11.8563 21.0127 12.6063C21.0827 12.8663 21.3127 13.1563 21.7427 13.1563C22.1527 13.1563 22.4227 12.9063 22.4227 12.4863C22.4227 12.3863 22.3927 12.1962 22.3627 12.0763C22.0427 10.5563 20.9827 9.9163 19.7127 9.8163V8.7763C19.7127 8.5463 19.5627 8.4063 19.3427 8.4063C19.1127 8.4063 18.9727 8.5463 18.9727 8.7763V9.8163C17.3627 9.9563 16.2127 10.9363 16.2127 12.5363C16.2127 13.9863 17.0327 14.7563 18.5127 15.4463L18.9727 15.6663V19.1563C18.1027 19.0263 17.6827 18.4862 17.5127 17.5563C17.4427 17.1863 17.1427 16.9963 16.8127 16.9963C16.3927 16.9963 16.1027 17.2362 16.1027 17.6662C16.1027 17.7863 16.1327 17.9463 16.1627 18.0763C16.5027 19.6363 17.6327 20.3063 18.9727 20.4162V21.4663C18.9727 21.6963 19.1127 21.8363 19.3427 21.8363ZM9.2127 20.7263C9.7027 20.7263 9.9927 20.4162 9.9927 19.9162V16.2163H11.6927L13.3527 20.1662C13.5327 20.5463 13.7527 20.7263 14.1627 20.7263C14.6027 20.7263 14.9027 20.4363 14.9027 20.0063C14.9027 19.7963 14.8227 19.6163 14.7427 19.4463L13.1927 15.8863C14.3927 15.3663 14.9327 14.1463 14.9327 12.8963C14.9327 10.7863 13.6127 9.6263 11.6027 9.6263H9.2027C8.7227 9.6263 8.4327 9.9363 8.4327 10.4163V19.9162C8.4327 20.3863 8.6727 20.7263 9.2127 20.7263ZM9.9927 14.9663V10.9263H11.4427C12.6827 10.9263 13.3727 11.7063 13.3727 12.9363C13.3727 14.1363 12.7727 14.9663 11.4727 14.9663ZM17.6827 12.4462C17.6827 11.6363 18.2127 11.1663 18.9727 11.0563V14.0663C18.2227 13.6863 17.6827 13.2163 17.6827 12.4462ZM21.1327 17.7362C21.1327 18.6163 20.6127 19.0763 19.7127 19.1662V16.0363C20.4927 16.4162 21.1327 16.8563 21.1327 17.7362Z"
        fillRule="evenodd"
        clipRule="evenodd"
    />
</svg>
        