<svg viewBox="0 0 27.890625 27.890625" xmlns="http://www.w3.org/2000/svg"><path d="M13.9427 27.8864C21.6427 27.8864 27.8927 21.6264 27.8927 13.9464C27.8927 6.2464 21.6427 -0.0036 13.9427 -0.0036C6.2627 -0.0036 0.0027 6.2464 0.0027 13.9464C0.0027 21.6264 6.2627 27.8864 13.9427 27.8864ZM18.1327 20.6964C17.8827 20.6964 17.7427 20.5664 17.7427 20.3164V19.2264C16.3527 19.1264 15.1927 18.4264 14.8327 16.8264C14.8027 16.7064 14.7827 16.5264 14.7827 16.4064C14.7827 15.9664 15.0827 15.7064 15.5127 15.7064C15.8627 15.7064 16.1627 15.9164 16.2427 16.2964C16.4027 17.2564 16.8527 17.8164 17.7427 17.9264V14.3564L17.2627 14.1264C15.7327 13.3964 14.8927 12.6164 14.8927 11.1164C14.8927 9.4764 16.0827 8.4464 17.7427 8.3164V7.2464C17.7427 6.9964 17.8827 6.8664 18.1327 6.8664C18.3427 6.8664 18.5127 6.9964 18.5127 7.2464V8.3164C19.8127 8.4264 20.8927 9.0764 21.2427 10.6464C21.2727 10.7564 21.3027 10.9664 21.3027 11.0564C21.3027 11.4964 21.0127 11.7564 20.5727 11.7564C20.1527 11.7564 19.9027 11.4564 19.8427 11.1864C19.7127 10.4164 19.3627 9.7664 18.5127 9.6064V13.0664L19.0627 13.3264C20.4527 13.9864 21.5027 14.6664 21.5027 16.3364C21.5027 18.0464 20.3127 19.1164 18.5127 19.2364V20.3164C18.5127 20.5664 18.3427 20.6964 18.1327 20.6964ZM7.6827 19.5664C7.1127 19.5664 6.8627 19.2064 6.8627 18.7264V8.9364C6.8627 8.4364 7.1627 8.1164 7.6527 8.1164H10.1327C12.2127 8.1164 13.5727 9.3064 13.5727 11.4864C13.5727 12.7864 13.0327 14.0364 11.7827 14.5764L13.3727 18.2264C13.4527 18.4164 13.5527 18.5964 13.5527 18.8164C13.5527 19.2664 13.2327 19.5664 12.7827 19.5664C12.3627 19.5664 12.1227 19.3764 11.9527 18.9764L10.2227 14.9164H8.4927V18.7264C8.4927 19.2364 8.1927 19.5664 7.6827 19.5664ZM8.4927 13.6264H10.0127C11.3327 13.6264 11.9627 12.7664 11.9627 11.5264C11.9627 10.2664 11.2527 9.4564 9.9827 9.4564H8.4927ZM16.4027 11.0164C16.4027 11.8164 16.9827 12.2864 17.7427 12.6964V9.5964C16.9627 9.7064 16.4027 10.1864 16.4027 11.0164ZM18.5127 17.9464C19.4327 17.8564 19.9727 17.3764 19.9727 16.4764C19.9727 15.5764 19.3227 15.1364 18.5127 14.7264Z" /></svg>