
<svg
    viewBox={0 0 31.650390625 26.49609375}
    xmlns="http://www.w3.org/2000/svg"
>
    <path
        fill="inherit"
        d="M11.0037 3.6191V4.8491H20.6337V3.6191C20.6337 2.5791 20.0337 1.9991 18.9637 1.9991H12.6837C11.6237 1.9991 11.0037 2.5791 11.0037 3.6191ZM15.8137 12.9191C10.2437 12.9191 5.1137 12.1291 0.0037 9.8891V9.0191C0.0037 6.2191 1.4037 4.8491 4.2237 4.8491H8.8837V3.7691C8.8837 1.1991 10.3737 -0.0009 12.7137 -0.0009H18.9237C21.3937 -0.0009 22.7537 1.1991 22.7537 3.7691V4.8491H27.4237C30.2537 4.8491 31.6537 6.2191 31.6537 9.0191V9.8891C26.5337 12.1291 21.4137 12.9191 15.8137 12.9191ZM4.2237 26.4991C1.4037 26.4991 0.0037 25.1291 0.0037 22.3291V12.1391C4.1537 13.7091 8.1637 14.5291 12.1837 14.8091V15.9091C12.1837 16.8691 12.7437 17.4091 13.7037 17.4091H17.9537C18.9037 17.4091 19.4737 16.8691 19.4737 15.9091V14.8091C23.4837 14.5291 27.4937 13.7091 31.6537 12.1391V22.3291C31.6537 25.1291 30.2537 26.4991 27.4237 26.4991Z"
        fillRule="evenodd"
        clipRule="evenodd"
    />
</svg>
        