
<svg
    viewBox={0 0 27.890625 27.890625}
    xmlns="http://www.w3.org/2000/svg"
>
    <path
        fill="inherit"
        d="M13.9427 27.8864C21.6427 27.8864 27.8927 21.6464 27.8927 13.9464C27.8927 6.2464 21.6427 -0.0036 13.9427 -0.0036C6.2527 -0.0036 0.0027 6.2464 0.0027 13.9464C0.0027 21.6464 6.2527 27.8864 13.9427 27.8864ZM13.9427 25.5664C7.5227 25.5664 2.3227 20.3664 2.3227 13.9464C2.3227 7.5164 7.5227 2.3264 13.9427 2.3264C20.3727 2.3264 25.5627 7.5164 25.5627 13.9464C25.5627 20.3664 20.3727 25.5664 13.9427 25.5664ZM11.0927 8.3164C11.0927 7.9564 11.3227 7.7364 11.7027 7.7364H16.2127C16.5827 7.7364 16.8127 7.9564 16.8127 8.3164V8.9364H11.0927ZM13.9427 13.0464C16.6627 13.0464 19.1527 12.6864 21.7427 11.6164V11.0764C21.7427 9.6364 21.0127 8.9364 19.5827 8.9364H18.1127V8.2464C18.1127 7.1664 17.4027 6.5064 16.2827 6.5064H11.6027C10.4827 6.5064 9.7727 7.1664 9.7727 8.2464V8.9364H8.3127C6.8727 8.9364 6.1627 9.6364 6.1627 11.0764V11.6164C8.7327 12.6864 11.2227 13.0464 13.9427 13.0464ZM8.3127 20.0164H19.5827C21.0127 20.0164 21.7427 19.3164 21.7427 17.8964V12.8364C19.6827 13.5764 17.7627 13.9364 15.8027 14.0664V14.6264C15.8027 15.1364 15.5127 15.4064 15.0427 15.4064H12.8527C12.3727 15.4064 12.0827 15.1364 12.0827 14.6264V14.0664C10.1327 13.9364 8.2027 13.5764 6.1627 12.8364V17.8964C6.1627 19.3164 6.8727 20.0164 8.3127 20.0164Z"
        fillRule="evenodd"
        clipRule="evenodd"
    />
</svg>
        