
<svg
    viewBox={0 0 34.415600595905474 33.856221848893824}
    xmlns="http://www.w3.org/2000/svg"
>
    <path
        fill="inherit"
        d="M33.0337 3.3119L34.0437 2.2719C34.5337 1.7819 34.5337 1.1019 34.0737 0.6319L33.7437 0.3019C33.3037 -0.1281 32.6037 -0.0881 32.1537 0.3719L31.1137 1.3819ZM17.1837 17.6119L19.9737 16.3719L32.0037 4.3419L30.0937 2.4419L18.0737 14.4719L16.7437 17.1619C16.6437 17.3919 16.9237 17.7219 17.1837 17.6119ZM8.4037 33.8519C9.0937 33.8519 9.5537 33.5019 10.3737 32.7619L15.1037 28.5619H23.8737C27.9437 28.5619 30.1337 26.3119 30.1337 22.3019V9.1519L27.9337 11.3519V22.2919C27.9337 24.9519 26.6337 26.3619 23.8737 26.3619H15.0137C14.2637 26.3619 13.8637 26.4719 13.3437 27.0019L8.9737 31.3519V27.3919C8.9737 26.6519 8.6937 26.3619 7.9437 26.3619H6.2737C3.5037 26.3619 2.2037 24.9519 2.2037 22.2919V11.8319C2.2037 9.1619 3.5037 7.7719 6.2737 7.7719H21.7937L23.9937 5.5719H6.2637C2.2037 5.5719 0.0037 7.8119 0.0037 11.8319V22.3019C0.0037 26.3219 2.2037 28.5619 6.2637 28.5619H6.9137V32.1219C6.9137 33.1719 7.4637 33.8519 8.4037 33.8519Z"
        fillRule="evenodd"
        clipRule="evenodd"
    />
</svg>
        