<svg viewBox="0 0 30.1328125 28.423828125" xmlns="http://www.w3.org/2000/svg"><path d="M15.0437 28.4228C15.6537 28.4228 16.2237 28.1628 16.7737 27.2228L19.3037 22.9928H23.8737C27.9437 22.9928 30.1337 20.7428 30.1337 16.7328V6.2628C30.1337 2.2528 27.9437 0.0028 23.8737 0.0028H6.2637C2.1837 0.0028 0.0037 2.2428 0.0037 6.2628V16.7328C0.0037 20.7528 2.1837 22.9928 6.2637 22.9928H10.7737L13.3037 27.2228C13.8537 28.1628 14.4237 28.4228 15.0437 28.4228ZM15.0437 26.1828L12.7537 21.9028C12.3037 21.0128 11.9737 20.7928 11.0037 20.7928H6.2637C3.5037 20.7928 2.2037 19.3828 2.2037 16.7228V6.2628C2.2037 3.5928 3.5037 2.2028 6.2637 2.2028H23.8737C26.6237 2.2028 27.9337 3.5928 27.9337 6.2628V16.7228C27.9337 19.3828 26.6237 20.7928 23.8737 20.7928H19.0737C18.1037 20.7928 17.7737 21.0128 17.3237 21.9028Z" /></svg>