
<svg
    viewBox="0 0 27.890625 27.890625"
    xmlns="http://www.w3.org/2000/svg"
>
    <path
        fill="inherit"
        d="M13.9427 27.8927C21.6427 27.8927 27.8927 21.6427 27.8927 13.9427C27.8927 6.2627 21.6427 0.0027 13.9427 0.0027C6.2627 0.0027 0.0027 6.2627 0.0027 13.9427C0.0027 21.6427 6.2627 27.8927 13.9427 27.8927ZM17.4727 22.0627C17.2027 22.0627 17.0127 21.9427 16.6927 21.6327L14.1827 19.3427H9.4627C7.4227 19.3427 6.2927 18.1927 6.2927 16.1627V10.8427C6.2927 8.8327 7.4227 7.6827 9.4627 7.6827H18.4327C20.4627 7.6827 21.6027 8.8327 21.6027 10.8427V16.1627C21.6027 18.1927 20.4627 19.3427 18.4327 19.3427H18.0927V21.3527C18.0927 21.7827 17.8527 22.0627 17.4727 22.0627Z"
        fillRule="evenodd"
        clipRule="evenodd"
    />
</svg>
        