
<svg
    viewBox={0 0 27.890625 27.890625}
    xmlns="http://www.w3.org/2000/svg"
>
    <path
        fill="inherit"
        d="M13.9427 27.8864C21.6427 27.8864 27.8927 21.6464 27.8927 13.9464C27.8927 6.2464 21.6427 -0.0036 13.9427 -0.0036C6.2527 -0.0036 0.0027 6.2464 0.0027 13.9464C0.0027 21.6464 6.2527 27.8864 13.9427 27.8864ZM13.9427 25.5664C7.5227 25.5664 2.3227 20.3664 2.3227 13.9464C2.3227 7.5164 7.5227 2.3264 13.9427 2.3264C20.3727 2.3264 25.5627 7.5164 25.5627 13.9464C25.5627 20.3664 20.3727 25.5664 13.9427 25.5664ZM17.3727 21.8364C17.7427 21.8364 17.9627 21.5764 17.9627 21.1664V19.2064H18.2927C20.2727 19.2064 21.3727 18.1064 21.3727 16.1164V10.9664C21.3727 8.9964 20.2727 7.8864 18.2927 7.8864H9.5927C7.6127 7.8864 6.5227 9.0064 6.5227 10.9664V16.1164C6.5227 18.1064 7.6127 19.2064 9.5927 19.2064H14.1827L16.6227 21.4264C16.9227 21.7064 17.1027 21.8364 17.3727 21.8364Z"
        fillRule="evenodd"
        clipRule="evenodd"
    />
</svg>
        