<svg viewBox="0 0 28.861328125 27.890625" xmlns="http://www.w3.org/2000/svg"><path d="M8.9837 7.5064C9.2137 7.5064 9.4037 7.3564 9.4437 7.1064C9.9137 4.6164 9.8437 4.7064 12.3337 4.2064C12.5737 4.1664 12.7437 3.9764 12.7437 3.7464C12.7437 3.5164 12.5737 3.3364 12.3337 3.2964C9.8437 2.8064 9.9137 2.8864 9.4437 0.3964C9.4037 0.1464 9.2137 -0.0036 8.9837 -0.0036C8.7537 -0.0036 8.5537 0.1464 8.5137 0.3964C8.0537 2.8864 8.1237 2.8064 5.6337 3.2964C5.3837 3.3364 5.2237 3.5164 5.2237 3.7464C5.2237 3.9764 5.3837 4.1664 5.6337 4.2064C8.1237 4.7064 8.0537 4.6164 8.5137 7.1064C8.5537 7.3564 8.7537 7.5064 8.9837 7.5064ZM16.3537 18.6164C18.9037 18.6164 21.0237 16.8264 21.5437 14.4364C21.6437 14.4364 21.7337 14.4364 21.8337 14.4364C25.4137 14.4364 28.3137 11.5564 28.3137 7.9864C28.3137 4.4164 25.4137 1.5164 21.8337 1.5164C18.2837 1.5164 15.3837 4.4164 15.3837 7.9864C15.3837 8.0264 15.3837 8.0564 15.3837 8.0764C12.9037 8.5264 11.0337 10.7064 11.0337 13.3064C11.0337 16.2564 13.4137 18.6164 16.3537 18.6164ZM17.4437 7.9864C17.4437 5.5464 19.4037 3.5864 21.8337 3.5864C24.2937 3.5864 26.2537 5.5364 26.2537 7.9864C26.2537 10.4164 24.2637 12.3764 21.8337 12.3764C21.7537 12.3764 21.6737 12.3764 21.5837 12.3764C21.2037 10.2264 19.5537 8.5464 17.4437 8.1064C17.4437 8.0664 17.4437 8.0264 17.4437 7.9864ZM3.6237 15.0764C5.5937 15.0764 7.2337 13.4564 7.2337 11.4564C7.2337 9.4864 5.5937 7.8564 3.6237 7.8564C1.6237 7.8564 0.0037 9.4864 0.0037 11.4564C0.0037 13.4564 1.6237 15.0764 3.6237 15.0764ZM3.6237 13.0164C2.7637 13.0164 2.0637 12.3164 2.0637 11.4564C2.0637 10.6264 2.7637 9.9264 3.6237 9.9264C4.4737 9.9264 5.1637 10.6264 5.1637 11.4564C5.1637 12.3164 4.4737 13.0164 3.6237 13.0164ZM16.3537 16.5564C14.5437 16.5564 13.0937 15.1164 13.0937 13.3064C13.0937 11.4964 14.5437 10.0464 16.3537 10.0464C18.1537 10.0464 19.6037 11.4964 19.6037 13.3064C19.6037 15.1164 18.1537 16.5564 16.3537 16.5564ZM23.8337 27.8864C24.1137 27.8864 24.3637 27.6764 24.4037 27.3664C24.8437 24.0864 24.8537 24.1164 28.3437 23.4464C28.6437 23.3964 28.8637 23.1564 28.8637 22.8764C28.8637 22.5764 28.6437 22.3564 28.3237 22.2964C24.8937 21.8064 24.8237 21.7564 24.4037 18.3864C24.3737 18.0764 24.1337 17.8564 23.8337 17.8564C23.5137 17.8564 23.2837 18.0864 23.2537 18.4064C22.8437 21.6864 22.7737 21.6464 19.3037 22.2964C19.0037 22.3664 18.8037 22.5964 18.8037 22.8764C18.8037 23.1764 19.0137 23.3964 19.3637 23.4464C22.7737 24.0064 22.8437 24.0664 23.2537 27.3464C23.2837 27.6564 23.5137 27.8864 23.8337 27.8864ZM8.9537 27.4564C11.0737 27.4564 12.8237 25.7064 12.8237 23.5564C12.8237 21.4364 11.0737 19.6864 8.9537 19.6864C6.8037 19.6864 5.0537 21.4364 5.0537 23.5564C5.0537 25.7064 6.8037 27.4564 8.9537 27.4564ZM8.9537 25.3764C7.9437 25.3764 7.1237 24.5664 7.1237 23.5564C7.1237 22.5764 7.9537 21.7564 8.9537 21.7564C9.9437 21.7564 10.7637 22.5764 10.7637 23.5564C10.7637 24.5364 9.9437 25.3764 8.9537 25.3764Z" /></svg>