
<svg
    viewBox="0 0 28.861328125 27.890625"
    xmlns="http://www.w3.org/2000/svg"
>
    <path
        fill="inherit"
        d="M8.9837 7.5064C9.2137 7.5064 9.4037 7.3564 9.4437 7.1064C9.9137 4.6164 9.8437 4.7064 12.3337 4.2064C12.5737 4.1664 12.7437 3.9764 12.7437 3.7464C12.7437 3.5164 12.5737 3.3364 12.3337 3.2964C9.8437 2.8064 9.9137 2.8864 9.4437 0.3964C9.4037 0.1464 9.2137 -0.0036 8.9837 -0.0036C8.7537 -0.0036 8.5537 0.1464 8.5137 0.3964C8.0537 2.8864 8.1237 2.8064 5.6337 3.2964C5.3837 3.3364 5.2237 3.5164 5.2237 3.7464C5.2237 3.9764 5.3837 4.1664 5.6337 4.2064C8.1237 4.7064 8.0537 4.6164 8.5137 7.1064C8.5537 7.3564 8.7537 7.5064 8.9837 7.5064ZM28.3137 7.9864C28.3137 4.4164 25.4137 1.5164 21.8337 1.5164C18.7037 1.5164 16.0937 3.7564 15.5137 6.7264C15.7937 6.6864 16.0637 6.6764 16.3537 6.6764C20.0137 6.6764 22.9837 9.6364 22.9837 13.3064C22.9837 13.6764 22.9537 14.0164 22.9037 14.3464C25.9637 13.8464 28.3137 11.1964 28.3137 7.9864ZM3.6237 15.0764C5.5937 15.0764 7.2337 13.4564 7.2337 11.4564C7.2337 9.4864 5.5937 7.8564 3.6237 7.8564C1.6237 7.8564 0.0037 9.4864 0.0037 11.4564C0.0037 13.4564 1.6237 15.0764 3.6237 15.0764ZM16.3537 18.3464C19.1437 18.3464 21.3937 16.1064 21.3937 13.3064C21.3937 10.5164 19.1437 8.2564 16.3537 8.2564C13.5637 8.2564 11.3037 10.5164 11.3037 13.3064C11.3037 16.1064 13.5637 18.3464 16.3537 18.3464ZM23.8337 27.8864C24.1137 27.8864 24.3637 27.6764 24.4037 27.3664C24.8437 24.0864 24.8537 24.1164 28.3437 23.4464C28.6437 23.3964 28.8637 23.1564 28.8637 22.8764C28.8637 22.5764 28.6437 22.3564 28.3237 22.2964C24.8937 21.8064 24.8237 21.7564 24.4037 18.3864C24.3737 18.0764 24.1337 17.8564 23.8337 17.8564C23.5137 17.8564 23.2837 18.0864 23.2537 18.4064C22.8437 21.6864 22.7737 21.6464 19.3037 22.2964C19.0037 22.3664 18.8037 22.5964 18.8037 22.8764C18.8037 23.1764 19.0137 23.3964 19.3637 23.4464C22.7737 24.0064 22.8437 24.0664 23.2537 27.3464C23.2837 27.6564 23.5137 27.8864 23.8337 27.8864ZM8.9537 27.4564C11.0737 27.4564 12.8237 25.7064 12.8237 23.5564C12.8237 21.4364 11.0737 19.6864 8.9537 19.6864C6.8037 19.6864 5.0537 21.4364 5.0537 23.5564C5.0537 25.7064 6.8037 27.4564 8.9537 27.4564Z"
        fillRule="evenodd"
        clipRule="evenodd"
    />
</svg>
        