
<svg
    viewBox="0 0 39.265625 31.28125"
    xmlns="http://www.w3.org/2000/svg"
>
    <path
        fill="inherit"
        d="M20.5637 26.2944H24.9937L29.5537 30.2044C30.3937 30.9144 30.8437 31.2844 31.5037 31.2844C32.4437 31.2844 32.9737 30.6144 32.9737 29.5744V26.2944H33.2637C37.2037 26.2944 39.2637 24.1744 39.2637 20.3044V12.9044C39.2637 9.0244 37.2037 6.9044 33.2637 6.9044H30.1337V6.2644C30.1337 2.2544 27.9437 0.0044 23.8737 0.0044H6.2637C2.1837 0.0044 0.0037 2.2544 0.0037 6.2644V16.7444C0.0037 20.7544 2.1837 22.9944 6.2637 22.9944H6.9137V26.5644C6.9137 27.6144 7.4537 28.2844 8.4037 28.2844C9.0737 28.2844 9.5437 27.9344 10.3737 27.2044L15.0237 23.0744C15.8337 25.1744 17.7037 26.2944 20.5637 26.2944ZM8.9737 21.8344C8.9737 21.0844 8.6837 20.7944 7.9437 20.7944H6.2637C3.5037 20.7944 2.2037 19.4044 2.2037 16.7344V6.2744C2.2037 3.6044 3.5037 2.2044 6.2637 2.2044H23.8737C26.6237 2.2044 27.9337 3.6044 27.9337 6.2744V6.9044H20.5637C16.6237 6.9044 14.5637 9.0244 14.5637 12.9044V20.3044C14.5637 20.4844 14.5737 20.6544 14.5737 20.8244C14.0837 20.8644 13.7537 21.0244 13.3437 21.4544L8.9737 25.7844ZM20.6037 24.0944C17.9237 24.0944 16.7737 22.8344 16.7737 20.2744V12.9344C16.7737 10.3744 17.9237 9.1044 20.6037 9.1044H33.2337C35.9037 9.1044 37.0637 10.3744 37.0637 12.9344V20.2644C37.0637 22.8344 35.9037 24.0944 33.2337 24.0944H31.9737C31.3937 24.0944 30.9237 24.4444 30.9237 25.2144V28.7944L26.3037 24.6644C25.8537 24.2444 25.4737 24.0944 24.9137 24.0944ZM22.0137 15.1644H31.9137C32.4937 15.1644 32.9337 14.7244 32.9337 14.1544C32.9337 13.5644 32.4937 13.1244 31.9137 13.1244H22.0137C21.4137 13.1244 20.9837 13.5644 20.9837 14.1544C20.9837 14.7244 21.4137 15.1644 22.0137 15.1644ZM22.0137 20.2244H29.2537C29.8337 20.2244 30.2937 19.8144 30.2937 19.2244C30.2937 18.6444 29.8337 18.1844 29.2537 18.1844H22.0137C21.4137 18.1844 20.9837 18.6444 20.9837 19.2244C20.9837 19.8144 21.4137 20.2244 22.0137 20.2244Z"
        fillRule="evenodd"
        clipRule="evenodd"
    />
</svg>
        