<svg viewBox="0 0 30.1328125 28.287109375" xmlns="http://www.w3.org/2000/svg"><path d="M21.7237 28.2828C22.6837 28.2828 23.2137 27.6028 23.2137 26.5528V22.9928H23.8737C27.9437 22.9928 30.1337 20.7528 30.1337 16.7328V6.2628C30.1337 2.2428 27.9437 0.0028 23.8737 0.0028H6.2637C2.1837 0.0028 0.0037 2.2528 0.0037 6.2628V16.7328C0.0037 20.7428 2.1837 22.9928 6.2637 22.9928H15.0437L19.7537 27.1928C20.5937 27.9328 21.0537 28.2828 21.7237 28.2828ZM21.1637 25.7828L16.7937 21.4328C16.2737 20.9028 15.8837 20.7928 15.1237 20.7928H6.2637C3.5137 20.7928 2.2037 19.3828 2.2037 16.7228V6.2628C2.2037 3.5928 3.5137 2.2028 6.2637 2.2028H23.8737C26.6337 2.2028 27.9337 3.5928 27.9337 6.2628V16.7228C27.9337 19.3828 26.6337 20.7928 23.8737 20.7928H22.1937C21.4537 20.7928 21.1637 21.0828 21.1637 21.8228Z" /></svg>