
<svg
    viewBox={0 0 27.890625 27.890625}
    xmlns="http://www.w3.org/2000/svg"
>
    <path
        fill="inherit"
        d="M13.9427 27.8927C21.6427 27.8927 27.8927 21.6427 27.8927 13.9427C27.8927 6.2627 21.6427 0.0027 13.9427 0.0027C6.2627 0.0027 0.0027 6.2627 0.0027 13.9427C0.0027 21.6427 6.2627 27.8927 13.9427 27.8927ZM13.9427 25.5627C10.5027 25.5627 7.4327 24.1027 5.3227 21.7527V9.2827C5.3227 8.3427 5.8627 7.7227 6.7527 7.7227H15.9327C16.8327 7.7227 17.3627 8.3427 17.3627 9.2827V25.0627C16.2827 25.3927 15.1327 25.5627 13.9427 25.5627ZM8.5327 12.2927H10.0227C10.2027 12.2927 10.3527 12.1527 10.3527 11.9627V10.5127C10.3527 10.3227 10.2027 10.1827 10.0227 10.1827H8.5327C8.3427 10.1827 8.2127 10.3227 8.2127 10.5127V11.9627C8.2127 12.1527 8.3427 12.2927 8.5327 12.2927ZM12.6327 12.2927H14.1227C14.3127 12.2927 14.4527 12.1527 14.4527 11.9627V10.5127C14.4527 10.3227 14.3127 10.1827 14.1227 10.1827H12.6327C12.4427 10.1827 12.3227 10.3227 12.3227 10.5127V11.9627C12.3227 12.1527 12.4427 12.2927 12.6327 12.2927ZM18.4327 24.6827V11.2227H22.3927C23.2827 11.2227 23.8327 11.8127 23.8327 12.7527V20.0527C22.5727 22.1027 20.6827 23.7527 18.4327 24.6827ZM20.4827 15.2627H21.7627C21.9027 15.2627 22.0127 15.1527 22.0127 15.0027V13.7527C22.0127 13.6127 21.9027 13.4927 21.7627 13.4927H20.4827C20.3127 13.4927 20.2027 13.6127 20.2027 13.7527V15.0027C20.2027 15.1527 20.3127 15.2627 20.4827 15.2627ZM8.5327 15.7327H10.0227C10.2027 15.7327 10.3527 15.5827 10.3527 15.4127V13.9627C10.3527 13.7627 10.2027 13.6327 10.0227 13.6327H8.5327C8.3427 13.6327 8.2127 13.7627 8.2127 13.9627V15.4127C8.2127 15.5827 8.3427 15.7327 8.5327 15.7327ZM12.6327 15.7327H14.1227C14.3127 15.7327 14.4527 15.5827 14.4527 15.4127V13.9627C14.4527 13.7627 14.3127 13.6327 14.1227 13.6327H12.6327C12.4427 13.6327 12.3227 13.7627 12.3227 13.9627V15.4127C12.3227 15.5827 12.4427 15.7327 12.6327 15.7327ZM20.4827 18.3727H21.7627C21.9027 18.3727 22.0127 18.2627 22.0127 18.1127V16.8827C22.0127 16.7327 21.9027 16.6227 21.7627 16.6227H20.4827C20.3127 16.6227 20.2027 16.7327 20.2027 16.8827V18.1127C20.2027 18.2627 20.3127 18.3727 20.4827 18.3727ZM8.5327 19.1927H10.0227C10.2027 19.1927 10.3527 19.0627 10.3527 18.8627V17.4327C10.3527 17.2427 10.2027 17.1027 10.0227 17.1027H8.5327C8.3427 17.1027 8.2127 17.2427 8.2127 17.4327V18.8627C8.2127 19.0627 8.3427 19.1927 8.5327 19.1927ZM12.6327 19.1927H14.1227C14.3127 19.1927 14.4527 19.0627 14.4527 18.8627V17.4327C14.4527 17.2427 14.3127 17.1027 14.1227 17.1027H12.6327C12.4427 17.1027 12.3227 17.2427 12.3227 17.4327V18.8627C12.3227 19.0627 12.4427 19.1927 12.6327 19.1927ZM20.4827 21.5027H21.7627C21.9027 21.5027 22.0127 21.3827 22.0127 21.2427V20.0027C22.0127 19.8627 21.9027 19.7427 21.7627 19.7427H20.4827C20.3127 19.7427 20.2027 19.8627 20.2027 20.0027V21.2427C20.2027 21.3827 20.3127 21.5027 20.4827 21.5027ZM8.5327 22.6727H10.0227C10.2027 22.6727 10.3527 22.5427 10.3527 22.3427V20.8927C10.3527 20.7127 10.2027 20.5627 10.0227 20.5627H8.5327C8.3427 20.5627 8.2127 20.7127 8.2127 20.8927V22.3427C8.2127 22.5427 8.3427 22.6727 8.5327 22.6727ZM12.6327 22.6727H14.1227C14.3127 22.6727 14.4527 22.5427 14.4527 22.3427V20.8927C14.4527 20.7127 14.3127 20.5627 14.1227 20.5627H12.6327C12.4427 20.5627 12.3227 20.7127 12.3227 20.8927V22.3427C12.3227 22.5427 12.4427 22.6727 12.6327 22.6727Z"
        fillRule="evenodd"
        clipRule="evenodd"
    />
</svg>
        