
<svg
    viewBox={0 0 27.890625 27.890625}
    xmlns="http://www.w3.org/2000/svg"
>
    <path
        fill="inherit"
        d="M13.9427 27.8864C21.6427 27.8864 27.8927 21.6264 27.8927 13.9464C27.8927 6.2464 21.6427 -0.0036 13.9427 -0.0036C6.2627 -0.0036 0.0027 6.2464 0.0027 13.9464C0.0027 21.6264 6.2627 27.8864 13.9427 27.8864ZM7.5627 10.9064C7.1527 10.9064 6.9027 10.5964 6.9027 10.2664C6.9027 10.0664 7.0427 9.8264 7.3027 9.6964L13.0827 6.3664C13.3427 6.1764 13.6627 6.0964 13.9427 6.0964C14.2327 6.0964 14.5427 6.1764 14.8327 6.3664L20.5927 9.6964C20.8627 9.8264 20.9827 10.0664 20.9827 10.2664C20.9827 10.5964 20.7527 10.9064 20.3327 10.9064ZM7.4827 18.5664V18.4664C7.4827 18.1864 7.6427 17.9964 7.9427 17.9964H8.2427V12.3464H7.9427C7.6427 12.3464 7.4827 12.1864 7.4827 11.8664V11.7764C7.4827 11.4864 7.6427 11.3064 7.9427 11.3064H9.7527C10.0527 11.3064 10.2427 11.4864 10.2427 11.7764V11.8664C10.2427 12.1864 10.0527 12.3464 9.7527 12.3464H9.4427V17.9964H9.7527C10.0527 17.9964 10.2427 18.1864 10.2427 18.4664V18.5664C10.2427 18.8664 10.0527 19.0464 9.7527 19.0464H7.9427C7.6427 19.0464 7.4827 18.8664 7.4827 18.5664ZM10.8727 18.5664V18.4664C10.8727 18.1864 11.0627 17.9964 11.3427 17.9964H11.6627V12.3464H11.3427C11.0627 12.3464 10.8727 12.1864 10.8727 11.8664V11.7764C10.8727 11.4864 11.0627 11.3064 11.3427 11.3064H13.1427C13.4427 11.3064 13.6127 11.4864 13.6127 11.7764V11.8664C13.6127 12.1864 13.4427 12.3464 13.1427 12.3464H12.8427V17.9964H13.1427C13.4427 17.9964 13.6127 18.1864 13.6127 18.4664V18.5664C13.6127 18.8664 13.4427 19.0464 13.1427 19.0464H11.3427C11.0627 19.0464 10.8727 18.8664 10.8727 18.5664ZM14.2727 18.5664V18.4664C14.2727 18.1864 14.4527 17.9964 14.7527 17.9964H15.0527V12.3464H14.7527C14.4527 12.3464 14.2727 12.1864 14.2727 11.8664V11.7764C14.2727 11.4864 14.4527 11.3064 14.7527 11.3064H16.5527C16.8327 11.3064 17.0227 11.4864 17.0227 11.7764V11.8664C17.0227 12.1864 16.8327 12.3464 16.5527 12.3464H16.2327V17.9964H16.5527C16.8327 17.9964 17.0227 18.1864 17.0227 18.4664V18.5664C17.0227 18.8664 16.8327 19.0464 16.5527 19.0464H14.7527C14.4527 19.0464 14.2727 18.8664 14.2727 18.5664ZM17.6527 18.5664V18.4664C17.6527 18.1864 17.8527 17.9964 18.1427 17.9964H18.4527V12.3464H18.1427C17.8527 12.3464 17.6527 12.1864 17.6527 11.8664V11.7764C17.6527 11.4864 17.8527 11.3064 18.1427 11.3064H19.9427C20.2527 11.3064 20.4227 11.4864 20.4227 11.7764V11.8664C20.4227 12.1864 20.2527 12.3464 19.9427 12.3464H19.6627V17.9964H19.9427C20.2527 17.9964 20.4227 18.1864 20.4227 18.4664V18.5664C20.4227 18.8664 20.2527 19.0464 19.9427 19.0464H18.1427C17.8527 19.0464 17.6527 18.8664 17.6527 18.5664ZM6.3327 20.0564C6.3327 19.7264 6.6127 19.4364 6.9627 19.4364H20.9427C21.2827 19.4364 21.5627 19.7264 21.5627 20.0564C21.5627 20.3964 21.2827 20.6964 20.9427 20.6964H6.9627C6.6127 20.6964 6.3327 20.3964 6.3327 20.0564Z"
        fillRule="evenodd"
        clipRule="evenodd"
    />
</svg>
        