<svg viewBox="0 0 27.890625 27.890625" xmlns="http://www.w3.org/2000/svg"><path d="M13.9427 27.8864C21.6427 27.8864 27.8927 21.6464 27.8927 13.9464C27.8927 6.2464 21.6427 -0.0036 13.9427 -0.0036C6.2527 -0.0036 0.0027 6.2464 0.0027 13.9464C0.0027 21.6464 6.2527 27.8864 13.9427 27.8864ZM13.9427 25.5664C7.5227 25.5664 2.3227 20.3664 2.3227 13.9464C2.3227 7.5164 7.5227 2.3264 13.9427 2.3264C20.3727 2.3264 25.5627 7.5164 25.5627 13.9464C25.5627 20.3664 20.3727 25.5664 13.9427 25.5664ZM7.7427 10.9764H20.1227C20.5327 10.9764 20.7627 10.6764 20.7627 10.3664C20.7627 10.1564 20.6427 9.9364 20.3827 9.8064L14.7927 6.5764C14.5227 6.3964 14.2027 6.3164 13.9327 6.3164C13.6627 6.3164 13.3427 6.3964 13.0927 6.5764L7.4827 9.8064C7.2327 9.9364 7.0927 10.1564 7.0927 10.3664C7.0927 10.6764 7.3427 10.9764 7.7427 10.9764ZM7.6527 18.4164C7.6527 18.7064 7.8227 18.8764 8.1027 18.8764H9.8527C10.1427 18.8764 10.3327 18.7064 10.3327 18.4164V18.3164C10.3327 18.0464 10.1427 17.8664 9.8527 17.8664H9.5727V12.3764H9.8527C10.1427 12.3764 10.3327 12.2064 10.3327 11.9064V11.8164C10.3327 11.5364 10.1427 11.3564 9.8527 11.3564H8.1027C7.8227 11.3564 7.6527 11.5364 7.6527 11.8164V11.9064C7.6527 12.2064 7.8227 12.3764 8.1027 12.3764H8.4127V17.8664H8.1027C7.8227 17.8664 7.6527 18.0464 7.6527 18.3164ZM10.9527 18.4164C10.9527 18.7064 11.1327 18.8764 11.4127 18.8764H13.1527C13.4427 18.8764 13.6127 18.7064 13.6127 18.4164V18.3164C13.6127 18.0464 13.4427 17.8664 13.1527 17.8664H12.8527V12.3764H13.1527C13.4427 12.3764 13.6127 12.2064 13.6127 11.9064V11.8164C13.6127 11.5364 13.4427 11.3564 13.1527 11.3564H11.4127C11.1327 11.3564 10.9527 11.5364 10.9527 11.8164V11.9064C10.9527 12.2064 11.1327 12.3764 11.4127 12.3764H11.7127V17.8664H11.4127C11.1327 17.8664 10.9527 18.0464 10.9527 18.3164ZM14.2427 18.4164C14.2427 18.7064 14.4227 18.8764 14.7127 18.8764H16.4627C16.7327 18.8764 16.9127 18.7064 16.9127 18.4164V18.3164C16.9127 18.0464 16.7327 17.8664 16.4627 17.8664H16.1427V12.3764H16.4627C16.7327 12.3764 16.9127 12.2064 16.9127 11.9064V11.8164C16.9127 11.5364 16.7327 11.3564 16.4627 11.3564H14.7127C14.4227 11.3564 14.2427 11.5364 14.2427 11.8164V11.9064C14.2427 12.2064 14.4227 12.3764 14.7127 12.3764H15.0127V17.8664H14.7127C14.4227 17.8664 14.2427 18.0464 14.2427 18.3164ZM17.5227 18.4164C17.5227 18.7064 17.7327 18.8764 18.0027 18.8764H19.7527C20.0427 18.8764 20.2227 18.7064 20.2227 18.4164V18.3164C20.2227 18.0464 20.0427 17.8664 19.7527 17.8664H19.4727V12.3764H19.7527C20.0427 12.3764 20.2227 12.2064 20.2227 11.9064V11.8164C20.2227 11.5364 20.0427 11.3564 19.7527 11.3564H18.0027C17.7327 11.3564 17.5227 11.5364 17.5227 11.8164V11.9064C17.5227 12.2064 17.7327 12.3764 18.0027 12.3764H18.3027V17.8664H18.0027C17.7327 17.8664 17.5227 18.0464 17.5227 18.3164ZM6.5527 19.8664C6.5527 20.1964 6.8127 20.4764 7.1527 20.4764H20.7227C21.0527 20.4764 21.3127 20.1964 21.3127 19.8664C21.3127 19.5364 21.0527 19.2664 20.7227 19.2664H7.1527C6.8127 19.2664 6.5527 19.5364 6.5527 19.8664Z" /></svg>