
<svg
    viewBox={0 0 26.60546875 31.9921875}
    xmlns="http://www.w3.org/2000/svg"
>
    <path
        fill="inherit"
        d="M2.1437 31.9972H24.4637C25.7837 31.9972 26.6037 31.0672 26.6037 29.6372V8.9272C26.6037 7.4772 25.7837 6.5672 24.4637 6.5672H19.6737V2.3472C19.6737 0.9172 18.8537 -0.0028 17.5237 -0.0028H2.1437C0.8237 -0.0028 0.0037 0.9172 0.0037 2.3472V29.6372C0.0037 31.0672 0.8237 31.9972 2.1437 31.9972ZM2.8337 29.8972C2.3337 29.8972 2.0737 29.6672 2.0737 29.1572V2.8272C2.0737 2.3272 2.3337 2.0772 2.8337 2.0772H16.8437C17.3537 2.0772 17.5937 2.3272 17.5937 2.8272V29.1572C17.5937 29.6672 17.3537 29.8972 16.8437 29.8972H13.8637V26.0572C13.8637 24.9472 13.3837 24.4172 12.3037 24.4172H7.3837C6.3037 24.4172 5.8237 24.9472 5.8237 26.0572V29.8972ZM5.5737 9.6072H8.2337C8.5737 9.6072 8.7937 9.3972 8.7937 9.0472V6.4672C8.7937 6.1372 8.5737 5.9072 8.2337 5.9072H5.5737C5.2337 5.9072 5.0337 6.1372 5.0337 6.4672V9.0472C5.0337 9.3972 5.2337 9.6072 5.5737 9.6072ZM11.4337 9.6072H14.0837C14.4237 9.6072 14.6437 9.3972 14.6437 9.0472V6.4672C14.6437 6.1372 14.4237 5.9072 14.0837 5.9072H11.4337C11.1037 5.9072 10.8837 6.1372 10.8837 6.4672V9.0472C10.8837 9.3972 11.1037 9.6072 11.4337 9.6072ZM19.6737 29.6372V25.1172H21.6737C21.9437 25.1172 22.1237 24.9472 22.1237 24.6872V22.6572C22.1237 22.3772 21.9437 22.2172 21.6737 22.2172H19.6737V20.1672H21.6737C21.9437 20.1672 22.1237 19.9872 22.1237 19.7272V17.6872C22.1237 17.4272 21.9437 17.2572 21.6737 17.2572H19.6737V15.2072H21.6737C21.9437 15.2072 22.1237 15.0272 22.1237 14.7672V12.7272C22.1237 12.4672 21.9437 12.2872 21.6737 12.2872H19.6737V8.6372H23.7737C24.2837 8.6372 24.5237 8.8872 24.5237 9.3972V29.1572C24.5237 29.6672 24.2837 29.8972 23.7737 29.8972H19.6737C19.6737 29.8172 19.6737 29.7272 19.6737 29.6372ZM5.5737 15.0272H8.2337C8.5737 15.0272 8.7937 14.8072 8.7937 14.4672V11.8772C8.7937 11.5572 8.5737 11.3172 8.2337 11.3172H5.5737C5.2337 11.3172 5.0337 11.5572 5.0337 11.8772V14.4672C5.0337 14.8072 5.2337 15.0272 5.5737 15.0272ZM11.4337 15.0272H14.0837C14.4237 15.0272 14.6437 14.8072 14.6437 14.4672V11.8772C14.6437 11.5572 14.4237 11.3172 14.0837 11.3172H11.4337C11.1037 11.3172 10.8837 11.5572 10.8837 11.8772V14.4672C10.8837 14.8072 11.1037 15.0272 11.4337 15.0272ZM5.5737 20.4372H8.2337C8.5737 20.4372 8.7937 20.2072 8.7937 19.8772V17.2972C8.7937 16.9572 8.5737 16.7372 8.2337 16.7372H5.5737C5.2337 16.7372 5.0337 16.9572 5.0337 17.2972V19.8772C5.0337 20.2072 5.2337 20.4372 5.5737 20.4372ZM11.4337 20.4372H14.0837C14.4237 20.4372 14.6437 20.2072 14.6437 19.8772V17.2972C14.6437 16.9572 14.4237 16.7372 14.0837 16.7372H11.4337C11.1037 16.7372 10.8837 16.9572 10.8837 17.2972V19.8772C10.8837 20.2072 11.1037 20.4372 11.4337 20.4372ZM7.5237 26.5372C7.5237 26.2672 7.6437 26.1272 7.9437 26.1272H11.7437C12.0337 26.1272 12.1637 26.2672 12.1637 26.5372V29.8972H7.5237Z"
        fillRule="evenodd"
        clipRule="evenodd"
    />
</svg>
        