
<svg
    viewBox={0 0 26.60546875 31.9921875}
    xmlns="http://www.w3.org/2000/svg"
>
    <path
        fill="inherit"
        d="M2.1437 31.9972H16.4337C17.7637 31.9972 18.5837 31.0672 18.5837 29.6372V2.3472C18.5837 0.9172 17.7637 -0.0028 16.4337 -0.0028H2.1437C0.8237 -0.0028 0.0037 0.9172 0.0037 2.3472V29.6372C0.0037 31.0672 0.8237 31.9972 2.1437 31.9972ZM3.8837 8.6372V5.9172C3.8837 5.5672 4.1137 5.3072 4.4737 5.3072H7.2837C7.6437 5.3072 7.8937 5.5672 7.8937 5.9172V8.6372C7.8937 9.0072 7.6437 9.2572 7.2837 9.2572H4.4737C4.1137 9.2572 3.8837 9.0072 3.8837 8.6372ZM10.7037 8.6372V5.9172C10.7037 5.5672 10.9337 5.3072 11.2937 5.3072H14.1137C14.4637 5.3072 14.6937 5.5672 14.6937 5.9172V8.6372C14.6937 9.0072 14.4637 9.2572 14.1137 9.2572H11.2937C10.9337 9.2572 10.7037 9.0072 10.7037 8.6372ZM19.8337 31.9972H24.4637C25.7837 31.9972 26.6037 31.0672 26.6037 29.6372V8.9272C26.6037 7.4772 25.7837 6.5672 24.4637 6.5672H20.4537V12.0872H22.6637C22.9537 12.0872 23.1337 12.2772 23.1337 12.5372V14.6472C23.1337 14.9072 22.9537 15.0972 22.6637 15.0972H20.4537V17.2172H22.6637C22.9537 17.2172 23.1337 17.3872 23.1337 17.6672V19.7572C23.1337 20.0272 22.9537 20.2072 22.6637 20.2072H20.4537V22.3272H22.6637C22.9537 22.3272 23.1337 22.5072 23.1337 22.7772V24.8872C23.1337 25.1472 22.9537 25.3172 22.6637 25.3172H20.4537V29.6372C20.4537 30.5172 20.2237 31.3272 19.8337 31.9972ZM3.8837 14.3972V11.6572C3.8837 11.3072 4.1137 11.0572 4.4737 11.0572H7.2837C7.6437 11.0572 7.8937 11.3072 7.8937 11.6572V14.3972C7.8937 14.7672 7.6437 14.9972 7.2837 14.9972H4.4737C4.1137 14.9972 3.8837 14.7672 3.8837 14.3972ZM10.7037 14.3972V11.6572C10.7037 11.3072 10.9337 11.0572 11.2937 11.0572H14.1137C14.4637 11.0572 14.6937 11.3072 14.6937 11.6572V14.3972C14.6937 14.7672 14.4637 14.9972 14.1137 14.9972H11.2937C10.9337 14.9972 10.7037 14.7672 10.7037 14.3972ZM3.8837 20.1372V17.4172C3.8837 17.0472 4.1137 16.8072 4.4737 16.8072H7.2837C7.6437 16.8072 7.8937 17.0472 7.8937 17.4172V20.1372C7.8937 20.4972 7.6437 20.7572 7.2837 20.7572H4.4737C4.1137 20.7572 3.8837 20.4972 3.8837 20.1372ZM10.7037 20.1372V17.4172C10.7037 17.0472 10.9337 16.8072 11.2937 16.8072H14.1137C14.4637 16.8072 14.6937 17.0472 14.6937 17.4172V20.1372C14.6937 20.4972 14.4637 20.7572 14.1137 20.7572H11.2937C10.9337 20.7572 10.7037 20.4972 10.7037 20.1372ZM5.9837 29.8872V25.8172C5.9837 25.0972 6.4237 24.6772 7.1237 24.6772H11.4737C12.1937 24.6772 12.5937 25.0972 12.5937 25.8172V29.8872Z"
        fillRule="evenodd"
        clipRule="evenodd"
    />
</svg>
        