
<svg
    viewBox="0 0 34.37109375 32.470703125"
    xmlns="http://www.w3.org/2000/svg"
>
    <path
        fill="inherit"
        d="M33.1909 17.4543C33.9909 17.0743 34.3709 16.5243 34.3709 15.9843C34.3709 15.4343 33.9909 14.9343 33.1909 14.6543L26.7309 12.4243L29.5009 6.7543C29.6409 6.4643 29.6909 6.1643 29.6909 5.9043C29.6909 5.1443 29.1209 4.5843 28.3509 4.5843C28.0909 4.5843 27.8109 4.6243 27.5209 4.7743L21.6609 7.6443L18.5909 1.0943C18.2609 0.3643 17.7309 0.0043 17.1809 0.0043C16.6409 0.0043 16.1209 0.3643 15.7809 1.0943L12.7309 7.6443L6.8509 4.7743C6.5609 4.6243 6.2709 4.5843 6.0109 4.5843C5.2509 4.5843 4.6709 5.1443 4.6709 5.9043C4.6709 6.1643 4.7309 6.4643 4.8809 6.7543L7.6409 12.4243L1.1709 14.6543C0.4009 14.9143 0.0009 15.4443 0.0009 15.9943C0.0009 16.5243 0.4009 17.0743 1.1709 17.4543L7.3809 20.4243L4.0309 27.5243C3.8709 27.8343 3.8009 28.1343 3.8009 28.4243C3.8009 29.1043 4.2609 29.6043 4.9209 29.6043C5.1909 29.6043 5.5009 29.5043 5.8109 29.3143L13.7409 24.6243L15.9109 31.3543C16.1609 32.0843 16.6709 32.4743 17.1809 32.4743C17.7209 32.4743 18.2109 32.0843 18.4609 31.3543L20.6409 24.6243L28.5609 29.3143C28.8709 29.5043 29.1909 29.5843 29.4509 29.5843C30.0909 29.5843 30.5809 29.1243 30.5809 28.4343C30.5809 28.1543 30.5009 27.8343 30.3409 27.5243L26.9909 20.4243Z"
        fillRule="evenodd"
        clipRule="evenodd"
    />
</svg>
        