
<svg
    viewBox="0 0 35.4375 33.482421875"
    xmlns="http://www.w3.org/2000/svg"
>
    <path
        fill="inherit"
        d="M34.2209 18.0102C35.0409 17.6102 35.4409 17.0502 35.4409 16.4702C35.4409 15.9102 35.0409 15.3902 34.2209 15.1102L27.5609 12.8102L30.4209 6.9702C30.5609 6.6702 30.6209 6.3702 30.6209 6.1002C30.6209 5.3002 30.0209 4.7202 29.2309 4.7202C28.9609 4.7202 28.6709 4.7702 28.3709 4.9202L22.3309 7.8702L19.1809 1.1302C18.8409 0.3802 18.2809 0.0002 17.7209 0.0002C17.1609 0.0002 16.6109 0.3802 16.2509 1.1302L13.1209 7.8702L7.0709 4.9202C6.7709 4.7702 6.4809 4.7202 6.2109 4.7202C5.4109 4.7202 4.8109 5.3002 4.8109 6.1002C4.8109 6.3702 4.8809 6.6702 5.0309 6.9702L7.8709 12.8102L1.2209 15.1102C0.4109 15.3802 0.0009 15.9302 0.0009 16.4902C0.0009 17.0502 0.4109 17.6102 1.2209 18.0102L7.6009 21.0702L4.1609 28.3702C3.9909 28.7002 3.9209 29.0102 3.9209 29.3002C3.9209 30.0102 4.4009 30.5202 5.0709 30.5202C5.3609 30.5202 5.6709 30.4202 6.0009 30.2302L14.1609 25.4002L16.4109 32.3202C16.6509 33.0902 17.1809 33.4802 17.7209 33.4802C18.2609 33.4802 18.7809 33.0902 19.0309 32.3202L21.2909 25.4002L29.4309 30.2302C29.7609 30.4202 30.0809 30.5002 30.3609 30.5002C31.0209 30.5002 31.5309 30.0202 31.5309 29.3102C31.5309 29.0302 31.4409 28.7002 31.2809 28.3702L27.8409 21.0702ZM32.5109 16.5002V16.6002L25.5109 19.6602C25.2509 19.7702 25.1109 19.9502 25.1109 20.1702C25.1109 20.2502 25.1609 20.3602 25.2109 20.4502L28.8109 27.7102L28.7409 27.7902L20.6809 22.7102C20.5609 22.6402 20.4409 22.5902 20.3309 22.5902C20.1109 22.5902 19.9309 22.7502 19.8609 23.0202L17.7609 30.1102H17.6809L15.5909 23.0202C15.5009 22.7502 15.3309 22.5902 15.1109 22.5902C15.0009 22.5902 14.8709 22.6402 14.7509 22.7102L6.7109 27.7902L6.6309 27.7102L10.2309 20.4502C10.2909 20.3602 10.3209 20.2502 10.3209 20.1702C10.3209 19.9502 10.1809 19.7702 9.9409 19.6602L2.9209 16.6002V16.5002L10.2009 14.2602C10.4709 14.1802 10.6209 14.0002 10.6209 13.7802C10.6209 13.6702 10.5909 13.5602 10.5309 13.4502L7.2609 7.2202L7.3309 7.1502L13.6209 10.4602C13.7309 10.5302 13.8409 10.5502 13.9409 10.5502C14.1509 10.5502 14.3109 10.4302 14.4109 10.1902L17.6809 2.8702H17.7609L21.0309 10.1902C21.1209 10.4302 21.2909 10.5502 21.4909 10.5502C21.6009 10.5502 21.7109 10.5302 21.8309 10.4602L28.1109 7.1502L28.1809 7.2202L24.9109 13.4502C24.8409 13.5602 24.8109 13.6702 24.8109 13.7802C24.8109 14.0002 24.9609 14.1802 25.2409 14.2602Z"
        fillRule="evenodd"
        clipRule="evenodd"
    />
</svg>
        