
<svg
    viewBox="0 0 29.88671875 31.623046875"
    xmlns="http://www.w3.org/2000/svg"
>
    <path
        fill="inherit"
        d="M5.8837 18.5021C4.9737 18.3521 4.5237 17.8421 4.5237 16.8721V4.7321C4.5237 3.6321 5.0437 3.0521 6.0837 2.9421C11.7837 2.3421 18.1437 2.3421 23.8337 2.9421C24.8837 3.0521 25.3737 3.6321 25.3737 4.7321V16.8721C25.3737 17.8421 24.9337 18.3521 24.0237 18.5021C18.3437 19.3321 11.4937 19.3321 5.8837 18.5021ZM3.7237 31.6221H5.3337C6.3537 31.6221 7.1537 30.8321 7.1537 29.8221V27.5521C9.8537 27.7421 12.5337 27.8321 14.9437 27.8321C17.3537 27.8321 20.0337 27.7521 22.7537 27.5521V29.8221C22.7537 30.8321 23.5337 31.6221 24.5537 31.6221H26.1637C27.1937 31.6221 27.9837 30.8321 27.9837 29.8221V12.7921H28.5837C29.3537 12.7921 29.8837 12.3321 29.8837 11.6121V6.2621C29.8837 5.5321 29.3537 5.0621 28.5837 5.0621H27.9837V3.5121C27.9837 1.7521 26.9437 0.7421 25.1037 0.5221C22.1937 0.1821 18.4537 0.0021 14.9437 0.0021C11.4537 0.0021 7.7237 0.1821 4.8037 0.5221C2.9437 0.7421 1.9137 1.7521 1.9137 3.5121V5.0621H1.3037C0.5337 5.0621 0.0037 5.5321 0.0037 6.2621V11.6121C0.0037 12.3321 0.5337 12.7921 1.3037 12.7921H1.9137V29.8221C1.9137 30.8321 2.6937 31.6221 3.7237 31.6221ZM6.7237 24.5921C5.7137 24.5921 4.9637 23.8321 4.9637 22.8321C4.9637 21.8221 5.7137 21.0721 6.7237 21.0721C7.7337 21.0721 8.4937 21.8221 8.4937 22.8321C8.4937 23.8321 7.7337 24.5921 6.7237 24.5921ZM23.1637 24.5921C22.1637 24.5921 21.4137 23.8321 21.4137 22.8321C21.4137 21.8221 22.1637 21.0721 23.1637 21.0721C24.1737 21.0721 24.9337 21.8221 24.9337 22.8321C24.9337 23.8321 24.1737 24.5921 23.1637 24.5921ZM11.9637 23.9921C11.2537 23.9921 10.7637 23.5021 10.7637 22.8021C10.7637 22.0921 11.2537 21.6121 11.9637 21.6121H17.9137C18.6037 21.6121 19.1037 22.0921 19.1037 22.8021C19.1037 23.5021 18.6037 23.9921 17.9137 23.9921Z"
        fillRule="evenodd"
        clipRule="evenodd"
    />
</svg>
        