<svg viewBox="0 0 28.57421875 33.16796875" xmlns="http://www.w3.org/2000/svg"><path d="M1.9137 31.3675C1.9137 32.3775 2.6937 33.1675 3.7237 33.1675H5.3337C6.3537 33.1675 7.1537 32.3775 7.1537 31.3675V29.0975C9.8437 29.2675 12.0737 29.3775 14.2837 29.3775C16.5037 29.3775 18.7137 29.2875 21.4237 29.0975V31.3675C21.4237 32.3775 22.2037 33.1675 23.2237 33.1675H24.8437C25.8637 33.1675 26.6637 32.3775 26.6637 31.3675V16.1775H27.2737C28.0437 16.1775 28.5737 15.6975 28.5737 14.9875V10.3175C28.5737 9.5975 28.0437 9.1175 27.2737 9.1175H26.6637V3.4875C26.6637 1.7375 25.6237 0.7075 23.7637 0.5075C20.8737 0.1675 17.5637 -0.0025 14.2837 -0.0025C11.0237 -0.0025 7.7237 0.1675 4.8037 0.5075C2.9437 0.7075 1.9137 1.7375 1.9137 3.4875V9.1175H1.3037C0.5337 9.1175 0.0037 9.5975 0.0037 10.3175V14.9875C0.0037 15.6975 0.5337 16.1775 1.3037 16.1775H1.9137ZM4.4137 11.0075V4.5975C4.4137 3.6675 4.9237 3.0775 5.7737 2.9675C8.6137 2.6475 11.4437 2.4875 14.2837 2.4875C17.1137 2.4875 19.9737 2.6675 22.8037 2.9675C23.6537 3.0775 24.1537 3.6675 24.1537 4.5975V11.0075ZM4.4137 12.9975H24.1537V19.1275C24.1537 20.0575 23.6537 20.6475 22.8037 20.7375C20.0537 21.0575 17.1537 21.2175 14.2837 21.2175C11.4037 21.2175 8.5137 21.0675 5.7737 20.7375C4.9237 20.6475 4.4137 20.0575 4.4137 19.1275ZM6.9637 26.5375C6.0437 26.5375 5.3137 25.8075 5.3137 24.8975C5.3137 23.9675 6.0437 23.2575 6.9637 23.2575C7.8937 23.2575 8.6037 23.9675 8.6037 24.8975C8.6037 25.8075 7.8937 26.5375 6.9637 26.5375ZM21.6137 26.5375C20.6837 26.5375 19.9737 25.8075 19.9737 24.8975C19.9737 23.9675 20.6837 23.2575 21.6137 23.2575C22.5337 23.2575 23.2537 23.9675 23.2537 24.8975C23.2537 25.8075 22.5337 26.5375 21.6137 26.5375ZM11.9037 26.0275C11.2537 26.0275 10.7637 25.5375 10.7637 24.8875C10.7637 24.2175 11.2337 23.7375 11.9037 23.7375H16.6537C17.3337 23.7375 17.8137 24.2175 17.8137 24.8875C17.8137 25.5375 17.3237 26.0275 16.6537 26.0275Z" /></svg>