
<svg
    viewBox="0 0 25.169921875 25.169921875"
    xmlns="http://www.w3.org/2000/svg"
>
    <path
        fill="inherit"
        d="M4.2937 25.1692H20.8737C23.7437 25.1692 25.1737 23.7592 25.1737 20.9492V4.2392C25.1737 1.4192 23.7437 -0.0008 20.8737 -0.0008H4.2937C1.4337 -0.0008 0.0037 1.4192 0.0037 4.2392V20.9492C0.0037 23.7592 1.4337 25.1692 4.2937 25.1692ZM4.3237 22.9692C2.9537 22.9692 2.2037 22.2392 2.2037 20.8192V4.3592C2.2037 2.9392 2.9537 2.1992 4.3237 2.1992H20.8537C22.2037 2.1992 22.9737 2.9392 22.9737 4.3592V20.8192C22.9737 22.2392 22.2037 22.9692 20.8537 22.9692ZM12.5937 20.3892C16.8837 20.3892 20.3737 16.8992 20.3737 12.5892C20.3737 8.2992 16.8837 4.8092 12.5937 4.8092C8.2837 4.8092 4.8037 8.2992 4.8037 12.5892C4.8037 16.8992 8.2837 20.3892 12.5937 20.3892ZM12.5937 18.4692C9.3337 18.4692 6.7137 15.8492 6.7137 12.5892C6.7137 9.3492 9.3337 6.7292 12.5937 6.7292C15.8337 6.7292 18.4537 9.3492 18.4537 12.5892C18.4537 15.8492 15.8337 18.4692 12.5937 18.4692ZM12.5937 17.0492C15.0437 17.0492 17.0337 15.0492 17.0337 12.5892C17.0337 10.1492 15.0437 8.1492 12.5937 8.1492C10.1337 8.1492 8.1337 10.1492 8.1337 12.5892C8.1337 15.0492 10.1337 17.0492 12.5937 17.0492Z"
        fillRule="evenodd"
        clipRule="evenodd"
    />
</svg>
        