
<svg
    viewBox="0 0 25.169921875 25.169921875"
    xmlns="http://www.w3.org/2000/svg"
>
    <path
        fill="inherit"
        d="M4.2937 25.1692H20.8737C23.7437 25.1692 25.1737 23.7592 25.1737 20.9492V4.2392C25.1737 1.4192 23.7437 -0.0008 20.8737 -0.0008H4.2937C1.4337 -0.0008 0.0037 1.4192 0.0037 4.2392V20.9492C0.0037 23.7592 1.4337 25.1692 4.2937 25.1692ZM12.5937 20.6292C8.1437 20.6292 4.5537 17.0392 4.5537 12.5892C4.5537 8.1592 8.1437 4.5692 12.5937 4.5692C17.0237 4.5692 20.6137 8.1592 20.6137 12.5892C20.6137 17.0392 17.0237 20.6292 12.5937 20.6292ZM12.5937 18.6492C15.9237 18.6492 18.6337 15.9392 18.6337 12.5892C18.6337 9.2592 15.9237 6.5492 12.5937 6.5492C9.2437 6.5492 6.5337 9.2592 6.5337 12.5892C6.5337 15.9392 9.2437 18.6492 12.5937 18.6492ZM12.5937 17.1892C10.0637 17.1892 7.9937 15.1192 7.9937 12.5892C7.9937 10.0792 10.0637 8.0092 12.5937 8.0092C15.1037 8.0092 17.1737 10.0792 17.1737 12.5892C17.1737 15.1192 15.1037 17.1892 12.5937 17.1892Z"
        fillRule="evenodd"
        clipRule="evenodd"
    />
</svg>
        