
<svg
    viewBox={0 0 24.322265625 29.3671875}
    xmlns="http://www.w3.org/2000/svg"
>
    <path
        fill="inherit"
        d="M8.1337 29.3647H20.1537C22.7537 29.3647 24.3037 27.8347 24.3037 25.2647L24.3237 4.1447C24.3237 1.6647 22.6537 0.0047 20.1937 0.0047H15.9937C13.8537 0.0047 12.0537 0.5647 10.3737 2.1047L1.7337 10.0447C0.5737 11.1147 0.0037 12.6147 0.0037 14.4947V21.2347C0.0037 26.1847 3.1837 29.3647 8.1337 29.3647ZM8.1937 27.1647C4.3637 27.1647 2.2037 25.0147 2.2037 21.1947V14.5147C2.2037 13.1547 2.5137 12.3147 3.2637 11.6347L11.8937 3.7147C13.1137 2.6147 14.3537 2.2047 16.0537 2.2047H20.1537C21.3437 2.2047 22.1237 2.9947 22.1237 4.1747L22.1037 25.2247C22.1037 26.6747 21.5337 27.1647 20.1137 27.1647Z"
        fillRule="evenodd"
        clipRule="evenodd"
    />
</svg>
        