
<svg
    viewBox="0 0 29.9140625 33.373046875"
    xmlns="http://www.w3.org/2000/svg"
>
    <path
        fill="inherit"
        d="M4.7737 7.3281V26.0581C4.7737 30.3081 7.3537 33.3681 11.4137 33.3681C15.4737 33.3681 18.0637 30.3081 18.0637 26.0581V22.5481L14.0037 18.9181C12.6037 17.6781 12.6037 15.6681 14.0137 14.4481L18.0637 10.8381V7.3281C18.0637 3.0581 15.4737 -0.0019 11.4137 -0.0019C7.3537 -0.0019 4.7737 3.0581 4.7737 7.3281ZM0.0037 7.3281V26.0581C0.0037 30.1981 1.9137 32.9581 5.9837 33.3281C4.0337 31.6781 2.8937 29.0781 2.8937 26.0581V7.3281C2.8937 4.3081 4.0337 1.7081 5.9837 0.0581C1.9137 0.4281 0.0037 3.1881 0.0037 7.3281ZM15.2437 17.5281L19.3837 21.1881C20.1837 21.9181 21.3537 21.5081 21.3537 20.3481V17.8681H28.7337C29.3937 17.8681 29.9137 17.3481 29.9137 16.7081C29.9137 16.0381 29.3937 15.5281 28.7337 15.5281H21.3537V13.0281C21.3537 11.9081 20.2237 11.4281 19.3837 12.1681L15.2437 15.8481C14.6837 16.3381 14.6737 17.0181 15.2437 17.5281Z"
        fillRule="evenodd"
        clipRule="evenodd"
    />
</svg>
        