
<svg
    viewBox={0 0 33.373046875 29.9140625}
    xmlns="http://www.w3.org/2000/svg"
>
    <path
        fill="inherit"
        d="M17.5237 14.6745L21.1937 10.5245C21.9137 9.7345 21.5037 8.5545 20.3337 8.5545H17.8537V1.1745C17.8537 0.5045 17.3537 0.0045 16.6937 0.0045C16.0337 0.0045 15.5337 0.5045 15.5337 1.1745V8.5545H13.0337C11.9037 8.5545 11.4337 9.6945 12.1637 10.5245L15.8337 14.6745C16.3237 15.2345 17.0237 15.2445 17.5237 14.6745ZM7.3137 25.1445H26.0537C30.3137 25.1445 33.3737 22.5445 33.3737 18.4945C33.3737 14.4345 30.3137 11.8445 26.0537 11.8445H22.5337L18.9237 15.9145C17.6637 17.3045 15.6637 17.3045 14.4337 15.9045L10.8437 11.8445H7.3137C3.0637 11.8445 0.0037 14.4345 0.0037 18.4945C0.0037 22.5445 3.0637 25.1445 7.3137 25.1445ZM7.3137 29.9145H26.0537C30.1837 29.9145 32.9637 28.0045 33.3337 23.9245C31.6737 25.8645 29.0637 27.0145 26.0537 27.0145H7.3137C4.2937 27.0145 1.7137 25.8645 0.0537 23.9245C0.4237 28.0045 3.1737 29.9145 7.3137 29.9145Z"
        fillRule="evenodd"
        clipRule="evenodd"
    />
</svg>
        