
<svg
    viewBox="0 0 24.322265625 29.3671875"
    xmlns="http://www.w3.org/2000/svg"
>
    <path
        fill="inherit"
        d="M16.1737 29.3647C21.1237 29.3647 24.3237 26.1847 24.3237 21.2347V14.4947C24.3237 12.6147 23.7337 11.1147 22.5737 10.0447L13.9437 2.1047C12.2537 0.5647 10.4637 0.0047 8.3237 0.0047H4.1037C1.6437 0.0047 0.0037 1.6647 0.0037 4.1447V25.2647C0.0037 27.8347 1.5537 29.3647 4.1437 29.3647ZM16.1337 27.1647H4.1937C2.7637 27.1647 2.2037 26.6747 2.2037 25.2247V4.1747C2.2037 2.9947 2.9637 2.2047 4.1537 2.2047H8.2737C9.9637 2.2047 11.2137 2.6147 12.4237 3.7147L21.0437 11.6347C21.7937 12.3147 22.1237 13.1547 22.1237 14.5147V21.1947C22.1237 25.0147 19.9437 27.1647 16.1337 27.1647Z"
        fillRule="evenodd"
        clipRule="evenodd"
    />
</svg>
        