
<svg
    viewBox={0 0 33.373046875 29.9140625}
    xmlns="http://www.w3.org/2000/svg"
>
    <path
        fill="inherit"
        d="M17.5237 14.6745L21.1937 10.5245C21.9137 9.7345 21.5037 8.5545 20.3337 8.5545H17.8537V1.1745C17.8537 0.5045 17.3537 0.0045 16.6937 0.0045C16.0337 0.0045 15.5337 0.5045 15.5337 1.1745V8.5545H13.0337C11.9037 8.5545 11.4337 9.6945 12.1637 10.5245L15.8337 14.6745C16.3237 15.2345 17.0237 15.2445 17.5237 14.6745ZM7.3137 29.9145H26.0537C30.5137 29.9145 33.3737 26.9445 33.3737 22.3145V18.4945C33.3737 14.4345 30.3137 11.8445 26.0537 11.8445H22.5337L20.5937 14.0445H26.0537C28.9537 14.0445 31.1737 15.7945 31.1737 18.4945C31.1737 21.2045 28.9537 22.9445 26.0537 22.9445H7.3137C4.4037 22.9445 2.2037 21.2045 2.2037 18.4945C2.2037 15.7945 4.4037 14.0445 7.3137 14.0445H12.7837L10.8437 11.8445H7.3137C3.0637 11.8445 0.0037 14.4345 0.0037 18.4945V22.3145C0.0037 26.9445 2.8537 29.9145 7.3137 29.9145ZM7.3137 25.1445H26.0537C28.0537 25.1445 29.7937 24.5645 31.0637 23.5445C30.6237 26.1145 28.7637 27.7145 26.0537 27.7145H7.3137C4.6037 27.7145 2.7437 26.1145 2.2937 23.5445C3.5837 24.5645 5.3137 25.1445 7.3137 25.1445Z"
        fillRule="evenodd"
        clipRule="evenodd"
    />
</svg>
        