
<svg
    viewBox="0 0 29.9140625 33.373046875"
    xmlns="http://www.w3.org/2000/svg"
>
    <path
        fill="inherit"
        d="M0.0037 7.3281V26.0581C0.0037 30.5181 2.9637 33.3681 7.6037 33.3681H11.4137C15.4737 33.3681 18.0637 30.3081 18.0637 26.0581V22.5481L15.8737 20.6081V26.0581C15.8737 28.9681 14.1237 31.1681 11.4137 31.1681C8.7137 31.1681 6.9737 28.9681 6.9737 26.0581V7.3281C6.9737 4.4181 8.7137 2.1981 11.4137 2.1981C14.1237 2.1981 15.8737 4.4181 15.8737 7.3281V12.7881L18.0637 10.8381V7.3281C18.0637 3.0581 15.4737 -0.0019 11.4137 -0.0019H7.6037C2.9637 -0.0019 0.0037 2.8581 0.0037 7.3281ZM4.7737 7.3281V26.0581C4.7737 28.0581 5.3437 29.7881 6.3737 31.0781C3.8037 30.6381 2.2037 28.7681 2.2037 26.0581V7.3281C2.2037 4.6181 3.8037 2.7481 6.3737 2.3081C5.3437 3.5781 4.7737 5.3181 4.7737 7.3281ZM15.2437 17.5281L19.3837 21.1881C20.1837 21.9181 21.3537 21.5081 21.3537 20.3481V17.8681H28.7337C29.3937 17.8681 29.9137 17.3481 29.9137 16.7081C29.9137 16.0381 29.3937 15.5281 28.7337 15.5281H21.3537V13.0281C21.3537 11.9081 20.2237 11.4281 19.3837 12.1681L15.2437 15.8481C14.6837 16.3381 14.6737 17.0181 15.2437 17.5281Z"
        fillRule="evenodd"
        clipRule="evenodd"
    />
</svg>
        