
<svg
    viewBox={0 0 27.890625 27.890625}
    xmlns="http://www.w3.org/2000/svg"
>
    <path
        fill="inherit"
        d="M13.9427 27.8864C21.6427 27.8864 27.8927 21.6464 27.8927 13.9464C27.8927 6.2464 21.6427 -0.0036 13.9427 -0.0036C6.2527 -0.0036 0.0027 6.2464 0.0027 13.9464C0.0027 21.6464 6.2527 27.8864 13.9427 27.8864ZM13.9427 25.5664C7.5227 25.5664 2.3227 20.3664 2.3227 13.9464C2.3227 7.5164 7.5227 2.3264 13.9427 2.3264C20.3727 2.3264 25.5627 7.5164 25.5627 13.9464C25.5627 20.3664 20.3727 25.5664 13.9427 25.5664ZM13.9427 20.3564C16.3627 20.3564 18.2927 19.2064 18.9527 17.3664C19.0427 17.1164 19.0727 16.9364 19.0727 16.7364C19.0727 16.1564 18.7027 15.8064 18.1327 15.8064C17.7227 15.8064 17.4427 16.0064 17.2227 16.4764C16.6627 17.8164 15.5127 18.5564 13.9727 18.5564C11.8027 18.5564 10.3327 16.6564 10.3327 13.8264C10.3327 10.9964 11.8027 9.0764 13.9727 9.0764C15.5127 9.0764 16.6627 9.8164 17.2227 11.1664C17.4427 11.6364 17.7227 11.8264 18.1327 11.8264C18.7027 11.8264 19.0727 11.4664 19.0727 10.8964C19.0727 10.6764 19.0427 10.5164 18.9527 10.2664C18.2827 8.4364 16.3627 7.2764 13.9427 7.2764C10.4027 7.2764 8.1327 9.8264 8.1327 13.8264C8.1327 17.8164 10.3927 20.3564 13.9427 20.3564Z"
        fillRule="evenodd"
        clipRule="evenodd"
    />
</svg>
        