
<svg
    viewBox={0 0 27.890625 27.890625}
    xmlns="http://www.w3.org/2000/svg"
>
    <path
        fill="inherit"
        d="M13.9427 27.8864C21.6427 27.8864 27.8927 21.6264 27.8927 13.9464C27.8927 6.2464 21.6427 -0.0036 13.9427 -0.0036C6.2627 -0.0036 0.0027 6.2464 0.0027 13.9464C0.0027 21.6264 6.2627 27.8864 13.9427 27.8864ZM13.9727 20.5664C10.2927 20.5664 7.9727 17.9364 7.9727 13.8264C7.9727 9.7064 10.3127 7.0664 13.9727 7.0664C16.4627 7.0664 18.4427 8.2564 19.1427 10.1464C19.2327 10.4064 19.2627 10.5664 19.2627 10.7964C19.2627 11.4064 18.8827 11.7764 18.2827 11.7764C17.8527 11.7764 17.5827 11.5664 17.3527 11.0864C16.7627 9.6964 15.5827 8.9364 14.0027 8.9364C11.7627 8.9364 10.2527 10.9064 10.2527 13.8264C10.2527 16.7364 11.7627 18.6864 14.0027 18.6864C15.5827 18.6864 16.7627 17.9364 17.3527 16.5564C17.5827 16.0764 17.8527 15.8564 18.2827 15.8564C18.8827 15.8564 19.2627 16.2264 19.2627 16.8264C19.2627 17.0364 19.2327 17.2264 19.1427 17.4864C18.4527 19.3864 16.4627 20.5664 13.9727 20.5664Z"
        fillRule="evenodd"
        clipRule="evenodd"
    />
</svg>
        