<svg viewBox="0 0 25.169921875 25.169921875" xmlns="http://www.w3.org/2000/svg"><path d="M4.2937 25.1692H20.8737C23.7437 25.1692 25.1737 23.7592 25.1737 20.9492V4.2392C25.1737 1.4192 23.7437 -0.0008 20.8737 -0.0008H4.2937C1.4337 -0.0008 0.0037 1.4192 0.0037 4.2392V20.9492C0.0037 23.7592 1.4337 25.1692 4.2937 25.1692ZM4.3237 22.9692C2.9537 22.9692 2.2037 22.2392 2.2037 20.8192V4.3592C2.2037 2.9392 2.9537 2.1992 4.3237 2.1992H20.8537C22.2037 2.1992 22.9737 2.9392 22.9737 4.3592V20.8192C22.9737 22.2392 22.2037 22.9692 20.8537 22.9692ZM12.6037 18.9892C15.0437 18.9892 16.9537 17.8392 17.6137 15.9992C17.7037 15.7492 17.7337 15.5692 17.7337 15.3692C17.7337 14.7892 17.3637 14.4392 16.8037 14.4392C16.3837 14.4392 16.1037 14.6392 15.8837 15.1092C15.3237 16.4492 14.1737 17.1892 12.6337 17.1892C10.4637 17.1892 8.9937 15.2892 8.9937 12.4592C8.9937 9.6292 10.4637 7.7092 12.6337 7.7092C14.1737 7.7092 15.3237 8.4492 15.8837 9.7992C16.1037 10.2692 16.3837 10.4592 16.8037 10.4592C17.3637 10.4592 17.7337 10.0992 17.7337 9.5292C17.7337 9.3092 17.7037 9.1492 17.6137 8.8992C16.9537 7.0692 15.0237 5.9092 12.6037 5.9092C9.0637 5.9092 6.7937 8.4592 6.7937 12.4592C6.7937 16.4492 9.0537 18.9892 12.6037 18.9892Z" /></svg>