
<svg
    viewBox={0 0 22.216796875 31.8828125}
    xmlns="http://www.w3.org/2000/svg"
>
    <path
        fill="inherit"
        d="M4.0037 31.8825C4.6937 31.8825 5.1437 31.4225 5.1437 30.7325V29.3525H10.1737V0.0025H3.1537C1.2737 0.0025 0.0037 1.3025 0.0037 3.2725V26.0825C0.0037 27.9425 1.1337 29.2125 2.8737 29.3425V30.7325C2.8737 31.4225 3.3237 31.8825 4.0037 31.8825ZM18.2137 31.8825C18.8937 31.8825 19.3437 31.4225 19.3437 30.7325V29.3425C21.0837 29.2125 22.2137 27.9425 22.2137 26.0825V3.2725C22.2137 1.3025 20.9437 0.0025 19.0537 0.0025H12.0437V29.3525H17.0737V30.7325C17.0737 31.4225 17.5237 31.8825 18.2137 31.8825ZM6.8337 16.6225C6.0437 16.6225 5.3837 15.9825 5.3837 15.1925C5.3837 14.3825 6.0437 13.7425 6.8337 13.7425C7.6337 13.7425 8.2837 14.3825 8.2837 15.1925C8.2837 15.9825 7.6337 16.6225 6.8337 16.6225ZM15.3637 16.6225C14.5737 16.6225 13.9137 15.9825 13.9137 15.1925C13.9137 14.3825 14.5737 13.7425 15.3637 13.7425C16.1637 13.7425 16.8137 14.3825 16.8137 15.1925C16.8137 15.9825 16.1637 16.6225 15.3637 16.6225Z"
        fillRule="evenodd"
        clipRule="evenodd"
    />
</svg>
        