
<svg
    viewBox="0 0 22.216796875 31.3359375"
    xmlns="http://www.w3.org/2000/svg"
>
    <path
        fill="inherit"
        d="M4.0037 31.3391C4.6937 31.3391 5.1437 30.8691 5.1437 30.1891V28.8091H17.0737V30.1891C17.0737 30.8691 17.5237 31.3391 18.2137 31.3391C18.8937 31.3391 19.3437 30.8691 19.3437 30.1891V28.7891C21.0837 28.6691 22.2137 27.3991 22.2137 25.5391V3.2691C22.2137 1.2991 20.9437 -0.0009 19.0537 -0.0009H3.1537C1.2737 -0.0009 0.0037 1.2991 0.0037 3.2691V25.5391C0.0037 27.3991 1.1337 28.6691 2.8737 28.7891V30.1891C2.8737 30.8691 3.3237 31.3391 4.0037 31.3391ZM3.2637 26.6091C2.6237 26.6091 2.2037 26.1791 2.2037 25.5291V3.2791C2.2037 2.6291 2.6237 2.1991 3.2637 2.1991H10.2137V26.6091ZM18.9537 2.1991C19.5937 2.1991 20.0137 2.6291 20.0137 3.2791V25.5291C20.0137 26.1791 19.5937 26.6091 18.9537 26.6091H12.0037V2.1991ZM7.5637 16.3491C8.3537 16.3491 9.0137 15.7091 9.0137 14.9191C9.0137 14.1091 8.3537 13.4691 7.5637 13.4691C6.7637 13.4691 6.1137 14.1091 6.1137 14.9191C6.1137 15.7091 6.7637 16.3491 7.5637 16.3491ZM14.6437 16.3491C15.4337 16.3491 16.0937 15.7091 16.0937 14.9191C16.0937 14.1091 15.4337 13.4691 14.6437 13.4691C13.8537 13.4691 13.1937 14.1091 13.1937 14.9191C13.1937 15.7091 13.8537 16.3491 14.6437 16.3491Z"
        fillRule="evenodd"
        clipRule="evenodd"
    />
</svg>
        