
<svg
    viewBox="0 0 28.451171875 33.345703125"
    xmlns="http://www.w3.org/2000/svg"
>
    <path
        fill="inherit"
        d="M0.0037 26.9508C0.0037 27.5508 0.4937 28.0508 1.0937 28.0508H6.4937L3.9337 32.1608C3.5837 32.7308 3.9137 33.3408 4.5537 33.3408H5.3137C5.6837 33.3408 5.9037 33.2208 6.1137 32.8908L9.1037 28.0508H18.8537L21.8437 32.8908C22.0537 33.2208 22.2737 33.3408 22.6537 33.3408H23.4237C24.0537 33.3408 24.3737 32.7308 24.0237 32.1608L21.4637 28.0508H27.3537C27.9637 28.0508 28.4537 27.5508 28.4537 26.9508C28.4537 26.3408 27.9637 25.8508 27.3537 25.8508H26.8837V7.3008C26.8837 5.6308 25.9037 4.6508 24.0937 4.4308C23.3137 4.3308 22.4337 4.2508 21.4937 4.1808V2.6008C21.6337 2.6108 21.7537 2.6208 21.8937 2.6408C22.5137 2.7208 23.0337 2.1308 23.0337 1.5208C23.0337 0.9008 22.5437 0.4508 21.8937 0.3708C19.8237 0.1208 16.9837 0.0008 14.2237 0.0008C11.4737 0.0008 8.6237 0.1208 6.5537 0.3708C5.9037 0.4508 5.4037 0.9008 5.4037 1.5208C5.4037 2.1308 5.9237 2.7208 6.5637 2.6408C6.6837 2.6208 6.8237 2.6108 6.9637 2.6008V4.1708C6.0137 4.2508 5.1237 4.3308 4.3337 4.4308C2.5337 4.6508 1.5737 5.6308 1.5737 7.3008V25.8508H1.0937C0.4937 25.8508 0.0037 26.3408 0.0037 26.9508ZM14.2237 3.9208C12.3837 3.9208 10.5137 3.9808 8.7537 4.0608V2.4308C10.4137 2.3208 12.3137 2.2808 14.2237 2.2808C16.1237 2.2808 18.0337 2.3208 19.7037 2.4508V4.0608C17.9337 3.9808 16.0537 3.9208 14.2237 3.9208ZM11.2637 17.2508V10.0308C11.2637 8.2708 12.4437 7.0908 14.2237 7.0908C15.9937 7.0908 17.1737 8.2708 17.1737 10.0308V17.2508C17.1737 17.6808 16.8937 17.9608 16.4337 17.9608H11.9937C11.5437 17.9608 11.2637 17.6808 11.2637 17.2508ZM4.3637 17.2508V10.4308C4.3637 8.9708 5.5137 7.8108 7.0037 7.8108C8.4637 7.8108 9.6237 8.9708 9.6237 10.4308V17.2508C9.6237 17.6808 9.3337 17.9608 8.8837 17.9608H5.1037C4.6437 17.9608 4.3637 17.6808 4.3637 17.2508ZM18.8037 17.2508V10.4308C18.8037 8.9708 19.9637 7.8108 21.4537 7.8108C22.9137 7.8108 24.0737 8.9708 24.0737 10.4308V17.2508C24.0737 17.6808 23.7937 17.9608 23.3337 17.9608H19.5537C19.1037 17.9608 18.8037 17.6808 18.8037 17.2508ZM14.2237 24.4908C12.9437 24.4908 12.0137 23.5608 12.0137 22.3108C12.0137 21.0408 12.9437 20.0608 14.2237 20.0608C15.4637 20.0608 16.4437 21.0408 16.4437 22.3108C16.4437 23.5608 15.4637 24.4908 14.2237 24.4908Z"
        fillRule="evenodd"
        clipRule="evenodd"
    />
</svg>
        