
<svg
    viewBox="0 0 28.806640625 29.3671875"
    xmlns="http://www.w3.org/2000/svg"
>
    <path
        fill="inherit"
        d="M21.5737 7.9047H22.2737C22.7637 7.9047 23.0937 7.5747 23.0937 7.0847V0.8347C23.0937 0.3247 22.7637 0.0047 22.2737 0.0047H21.5737C21.0837 0.0047 20.7537 0.3247 20.7537 0.8347V7.0847C20.7537 7.5747 21.0837 7.9047 21.5737 7.9047ZM14.0837 7.1647H19.4437V0.7347H14.0837C12.9637 0.7347 12.5137 1.2047 12.5137 2.3247V5.5947C12.5137 6.7147 12.9637 7.1647 14.0837 7.1647ZM24.4037 5.0847H27.9737C28.4737 5.0847 28.8037 4.7547 28.8037 4.2747V3.6347C28.8037 3.1447 28.4737 2.8147 27.9737 2.8147H24.4037ZM0.0037 9.3147C0.0037 12.8747 2.9137 15.7747 6.4837 15.7747H22.3237C24.6937 15.7747 26.6037 17.6947 26.6037 20.0547C26.6037 22.4047 24.6737 24.3047 22.3237 24.3047H17.6237V26.5147H22.3237C25.8937 26.5147 28.8037 23.6247 28.8037 20.0547C28.8037 16.4847 25.8937 13.5747 22.3237 13.5747H6.4837C4.1137 13.5747 2.2037 11.6747 2.2037 9.3147C2.2037 6.9547 4.1337 5.0447 6.4837 5.0447H11.1837V2.8447H6.4837C2.9137 2.8447 0.0037 5.7447 0.0037 9.3147ZM7.2337 29.3647C7.7237 29.3647 8.0537 29.0347 8.0537 28.5347V22.2847C8.0537 21.7947 7.7237 21.4647 7.2337 21.4647H6.5337C6.0437 21.4647 5.7137 21.7947 5.7137 22.2847V28.5347C5.7137 29.0347 6.0437 29.3647 6.5337 29.3647ZM14.7237 28.6247C15.8437 28.6247 16.2937 28.1647 16.2937 27.0447V23.7747C16.2937 22.6547 15.8437 22.2047 14.7237 22.2047H9.3637V28.6247ZM4.4037 26.5347V24.2647H0.8337C0.3237 24.2647 0.0037 24.5947 0.0037 25.0847V25.7347C0.0037 26.2047 0.3237 26.5347 0.8337 26.5347Z"
        fillRule="evenodd"
        clipRule="evenodd"
    />
</svg>
        