<svg viewBox="0 0 28.451171875 33.345703125" xmlns="http://www.w3.org/2000/svg"><path d="M0.0037 26.9508C0.0037 27.5508 0.4937 28.0508 1.0937 28.0508H6.4937L3.9337 32.1608C3.5837 32.7308 3.9137 33.3408 4.5537 33.3408H5.3137C5.6837 33.3408 5.9037 33.2208 6.1137 32.8908L9.1037 28.0508H18.8537L21.8437 32.8908C22.0537 33.2208 22.2737 33.3408 22.6537 33.3408H23.4237C24.0537 33.3408 24.3737 32.7308 24.0237 32.1608L21.4637 28.0508H27.3537C27.9637 28.0508 28.4537 27.5508 28.4537 26.9508C28.4537 26.3408 27.9637 25.8508 27.3537 25.8508H26.8837V7.3008C26.8837 5.6308 25.9037 4.6508 24.0937 4.4308C23.3137 4.3308 22.4337 4.2508 21.4937 4.1808V2.6008C21.6337 2.6108 21.7537 2.6208 21.8937 2.6408C22.5137 2.7208 23.0337 2.1308 23.0337 1.5208C23.0337 0.9008 22.5437 0.4508 21.8937 0.3708C19.8237 0.1208 16.9837 0.0008 14.2237 0.0008C11.4737 0.0008 8.6237 0.1208 6.5537 0.3708C5.9037 0.4508 5.4037 0.9008 5.4037 1.5208C5.4037 2.1308 5.9237 2.7208 6.5637 2.6408C6.6837 2.6208 6.8237 2.6108 6.9637 2.6008V4.1708C6.0137 4.2508 5.1237 4.3308 4.3337 4.4308C2.5337 4.6508 1.5737 5.6308 1.5737 7.3008V25.8508H1.0937C0.4937 25.8508 0.0037 26.3408 0.0037 26.9508ZM14.2237 3.9208C12.3837 3.9208 10.5137 3.9808 8.7537 4.0608V2.4308C10.4137 2.3208 12.3137 2.2808 14.2237 2.2808C16.1237 2.2808 18.0337 2.3208 19.7037 2.4508V4.0608C17.9337 3.9808 16.0537 3.9208 14.2237 3.9208ZM3.3337 7.8308C3.3337 6.8508 3.8137 6.3008 4.8237 6.1708C7.0837 5.8508 10.5637 5.7108 14.2237 5.7108C17.8537 5.7108 21.3437 5.8508 23.6237 6.1708C24.6537 6.2908 25.1037 6.7708 25.1037 7.8308V25.8508H3.3337ZM11.3437 17.2108C11.3437 17.6208 11.6237 17.9008 12.0537 17.9008H16.3637C16.8137 17.9008 17.0937 17.6208 17.0937 17.2108V10.2108C17.0937 8.5008 15.9437 7.3508 14.2237 7.3508C12.4937 7.3508 11.3437 8.5008 11.3437 10.2108ZM4.8037 17.2108C4.8037 17.6208 5.0737 17.9008 5.5137 17.9008H9.1837C9.6237 17.9008 9.8937 17.6208 9.8937 17.2108V10.5308C9.8937 9.0908 8.7737 7.9808 7.3537 7.9808C5.9037 7.9808 4.8037 9.0908 4.8037 10.5308ZM18.5237 17.2108C18.5237 17.6208 18.8137 17.9008 19.2537 17.9008H22.9237C23.3637 17.9008 23.6437 17.6208 23.6437 17.2108V10.5308C23.6437 9.0908 22.5137 7.9808 21.0937 7.9808C19.6437 7.9808 18.5237 9.0908 18.5237 10.5308ZM14.2237 24.2908C15.4637 24.2908 16.4437 23.3608 16.4437 22.1208C16.4437 20.8508 15.4637 19.8608 14.2237 19.8608C12.9437 19.8608 12.0137 20.8508 12.0137 22.1208C12.0137 23.3608 12.9437 24.2908 14.2237 24.2908Z" /></svg>