
<svg
    viewBox="0 0 34.015625 25.169921875"
    xmlns="http://www.w3.org/2000/svg"
>
    <path
        fill="inherit"
        d="M5.7937 9.7455H7.9937V4.1155C7.9937 2.8455 8.6837 2.2055 9.8937 2.2055H28.9537C30.1737 2.2055 30.8437 2.8455 30.8437 4.1155V9.7455H33.0437V4.2355C33.0437 1.4055 31.6137 -0.0045 28.7537 -0.0045H10.0737C7.2237 -0.0045 5.7937 1.4255 5.7937 4.2355ZM1.8737 3.3655C2.7937 3.3655 3.5237 2.6255 3.5237 1.6955C3.5237 0.7755 2.7937 0.0455 1.8737 0.0455C0.9537 0.0455 0.2037 0.7755 0.2037 1.6955C0.2037 2.6255 0.9537 3.3655 1.8737 3.3655ZM1.8737 8.7955C2.7937 8.7955 3.5237 8.0355 3.5237 7.1255C3.5237 6.2055 2.7937 5.4655 1.8737 5.4655C0.9537 5.4655 0.2037 6.2055 0.2037 7.1255C0.2037 8.0355 0.9537 8.7955 1.8737 8.7955ZM34.0137 12.5755C34.0137 12.0455 33.5737 11.6255 33.0437 11.6255H3.4637C3.1437 11.0555 2.5337 10.7055 1.8737 10.7055C0.8437 10.7055 0.0037 11.5355 0.0037 12.5655C0.0037 13.5855 0.8437 14.4255 1.8737 14.4255C2.5337 14.4255 3.1137 14.0855 3.4337 13.5455H33.0437C33.5737 13.5455 34.0137 13.1155 34.0137 12.5755ZM7.9937 15.4055H5.7937V20.9355C5.7937 23.7455 7.2237 25.1655 10.0737 25.1655H28.7537C31.6137 25.1655 33.0437 23.7655 33.0437 20.9355V15.4055H30.8437V21.0555C30.8437 22.3255 30.1737 22.9655 28.9537 22.9655H9.8937C8.6837 22.9655 7.9937 22.3255 7.9937 21.0555ZM1.8737 19.6155C2.7937 19.6155 3.5237 18.8855 3.5237 17.9655C3.5237 17.0355 2.7937 16.2955 1.8737 16.2955C0.9537 16.2955 0.2037 17.0355 0.2037 17.9655C0.2037 18.8855 0.9537 19.6155 1.8737 19.6155ZM1.8737 25.0455C2.7937 25.0455 3.5237 24.2955 3.5237 23.3755C3.5237 22.4655 2.7937 21.7255 1.8737 21.7255C0.9537 21.7255 0.2037 22.4655 0.2037 23.3755C0.2037 24.2955 0.9537 25.0455 1.8737 25.0455Z"
        fillRule="evenodd"
        clipRule="evenodd"
    />
</svg>
        