<svg viewBox="0 0 27.248046875 25.169921875" xmlns="http://www.w3.org/2000/svg"><path d="M4.2937 25.1655H22.9737C25.8237 25.1655 27.2437 23.7455 27.2437 20.9355V4.2355C27.2437 1.4255 25.8237 -0.0045 22.9737 -0.0045H4.2937C1.4337 -0.0045 0.0037 1.4055 0.0037 4.2355V20.9355C0.0037 23.7655 1.4337 25.1655 4.2937 25.1655ZM4.0837 22.9655C2.8737 22.9655 2.2037 22.3255 2.2037 21.0555V8.1655C2.2037 6.9055 2.8737 6.2455 4.0837 6.2455H23.1437C24.3637 6.2455 25.0437 6.9055 25.0437 8.1655V21.0555C25.0437 22.3255 24.3637 22.9655 23.1437 22.9655ZM10.9637 11.1555H11.7737C12.2537 11.1555 12.4037 11.0155 12.4037 10.5455V9.7355C12.4037 9.2555 12.2537 9.1055 11.7737 9.1055H10.9637C10.4837 9.1055 10.3237 9.2555 10.3237 9.7355V10.5455C10.3237 11.0155 10.4837 11.1555 10.9637 11.1555ZM15.5037 11.1555H16.3137C16.7937 11.1555 16.9537 11.0155 16.9537 10.5455V9.7355C16.9537 9.2555 16.7937 9.1055 16.3137 9.1055H15.5037C15.0237 9.1055 14.8637 9.2555 14.8637 9.7355V10.5455C14.8637 11.0155 15.0237 11.1555 15.5037 11.1555ZM20.0437 11.1555H20.8537C21.3237 11.1555 21.4937 11.0155 21.4937 10.5455V9.7355C21.4937 9.2555 21.3237 9.1055 20.8537 9.1055H20.0437C19.5637 9.1055 19.4137 9.2555 19.4137 9.7355V10.5455C19.4137 11.0155 19.5637 11.1555 20.0437 11.1555ZM6.4237 15.6255H7.2237C7.7137 15.6255 7.8637 15.4855 7.8637 15.0155V14.2055C7.8637 13.7255 7.7137 13.5855 7.2237 13.5855H6.4237C5.9337 13.5855 5.7837 13.7255 5.7837 14.2055V15.0155C5.7837 15.4855 5.9337 15.6255 6.4237 15.6255ZM10.9637 15.6255H11.7737C12.2537 15.6255 12.4037 15.4855 12.4037 15.0155V14.2055C12.4037 13.7255 12.2537 13.5855 11.7737 13.5855H10.9637C10.4837 13.5855 10.3237 13.7255 10.3237 14.2055V15.0155C10.3237 15.4855 10.4837 15.6255 10.9637 15.6255ZM15.5037 15.6255H16.3137C16.7937 15.6255 16.9537 15.4855 16.9537 15.0155V14.2055C16.9537 13.7255 16.7937 13.5855 16.3137 13.5855H15.5037C15.0237 13.5855 14.8637 13.7255 14.8637 14.2055V15.0155C14.8637 15.4855 15.0237 15.6255 15.5037 15.6255ZM20.0437 15.6255H20.8537C21.3237 15.6255 21.4937 15.4855 21.4937 15.0155V14.2055C21.4937 13.7255 21.3237 13.5855 20.8537 13.5855H20.0437C19.5637 13.5855 19.4137 13.7255 19.4137 14.2055V15.0155C19.4137 15.4855 19.5637 15.6255 20.0437 15.6255ZM6.4237 20.1155H7.2237C7.7137 20.1155 7.8637 19.9655 7.8637 19.4855V18.6755C7.8637 18.1955 7.7137 18.0555 7.2237 18.0555H6.4237C5.9337 18.0555 5.7837 18.1955 5.7837 18.6755V19.4855C5.7837 19.9655 5.9337 20.1155 6.4237 20.1155ZM10.9637 20.1155H11.7737C12.2537 20.1155 12.4037 19.9655 12.4037 19.4855V18.6755C12.4037 18.1955 12.2537 18.0555 11.7737 18.0555H10.9637C10.4837 18.0555 10.3237 18.1955 10.3237 18.6755V19.4855C10.3237 19.9655 10.4837 20.1155 10.9637 20.1155ZM15.5037 20.1155H16.3137C16.7937 20.1155 16.9537 19.9655 16.9537 19.4855V18.6755C16.9537 18.1955 16.7937 18.0555 16.3137 18.0555H15.5037C15.0237 18.0555 14.8637 18.1955 14.8637 18.6755V19.4855C14.8637 19.9655 15.0237 20.1155 15.5037 20.1155Z" /></svg>