
<svg
    viewBox={0 0 27.890625 27.890625}
    xmlns="http://www.w3.org/2000/svg"
>
    <path
        fill="inherit"
        d="M13.9427 27.8927C21.6427 27.8927 27.8927 21.6427 27.8927 13.9427C27.8927 6.2627 21.6427 0.0027 13.9427 0.0027C6.2627 0.0027 0.0027 6.2627 0.0027 13.9427C0.0027 21.6427 6.2627 27.8927 13.9427 27.8927ZM8.7927 20.9227C7.2027 20.9227 6.4127 20.1427 6.4127 18.5627V9.3227C6.4127 7.7627 7.2027 6.9727 8.7927 6.9727H19.1027C20.6827 6.9727 21.4827 7.7627 21.4827 9.3227V18.5627C21.4827 20.1427 20.6827 20.9227 19.1027 20.9227ZM8.6827 19.6227H19.1927C19.8527 19.6227 20.1827 19.3027 20.1827 18.6327V11.5027C20.1827 10.8027 19.7927 10.4427 19.1427 10.4427H8.7527C8.0827 10.4427 7.7127 10.8027 7.7127 11.5027V18.6327C7.7127 19.3027 8.0527 19.6227 8.6827 19.6227ZM12.4327 13.2727C12.1027 13.2727 12.0027 13.1827 12.0027 12.8827V12.3327C12.0027 12.0127 12.1027 11.9127 12.4327 11.9127H12.9427C13.2727 11.9127 13.3827 12.0127 13.3827 12.3327V12.8827C13.3827 13.1827 13.2727 13.2727 12.9427 13.2727ZM14.9427 13.2727C14.6127 13.2727 14.5227 13.1827 14.5227 12.8827V12.3327C14.5227 12.0127 14.6127 11.9127 14.9427 11.9127H15.4627C15.7927 11.9127 15.8827 12.0127 15.8827 12.3327V12.8827C15.8827 13.1827 15.7927 13.2727 15.4627 13.2727ZM17.4627 13.2727C17.1127 13.2727 17.0227 13.1827 17.0227 12.8827V12.3327C17.0227 12.0127 17.1127 11.9127 17.4627 11.9127H17.9627C18.2927 11.9127 18.4027 12.0127 18.4027 12.3327V12.8827C18.4027 13.1827 18.2927 13.2727 17.9627 13.2727ZM9.9227 15.7327C9.5927 15.7327 9.4927 15.6527 9.4927 15.3427V14.8027C9.4927 14.4827 9.5927 14.3827 9.9227 14.3827H10.4427C10.7727 14.3827 10.8727 14.4827 10.8727 14.8027V15.3427C10.8727 15.6527 10.7727 15.7327 10.4427 15.7327ZM12.4327 15.7327C12.1027 15.7327 12.0027 15.6527 12.0027 15.3427V14.8027C12.0027 14.4827 12.1027 14.3827 12.4327 14.3827H12.9427C13.2727 14.3827 13.3827 14.4827 13.3827 14.8027V15.3427C13.3827 15.6527 13.2727 15.7327 12.9427 15.7327ZM14.9427 15.7327C14.6127 15.7327 14.5227 15.6527 14.5227 15.3427V14.8027C14.5227 14.4827 14.6127 14.3827 14.9427 14.3827H15.4627C15.7927 14.3827 15.8827 14.4827 15.8827 14.8027V15.3427C15.8827 15.6527 15.7927 15.7327 15.4627 15.7327ZM17.4627 15.7327C17.1127 15.7327 17.0227 15.6527 17.0227 15.3427V14.8027C17.0227 14.4827 17.1127 14.3827 17.4627 14.3827H17.9627C18.2927 14.3827 18.4027 14.4827 18.4027 14.8027V15.3427C18.4027 15.6527 18.2927 15.7327 17.9627 15.7327ZM9.9227 18.2127C9.5927 18.2127 9.4927 18.1127 9.4927 17.7827V17.2527C9.4927 16.9427 9.5927 16.8527 9.9227 16.8527H10.4427C10.7727 16.8527 10.8727 16.9427 10.8727 17.2527V17.7827C10.8727 18.1127 10.7727 18.2127 10.4427 18.2127ZM12.4327 18.2127C12.1027 18.2127 12.0027 18.1127 12.0027 17.7827V17.2527C12.0027 16.9427 12.1027 16.8527 12.4327 16.8527H12.9427C13.2727 16.8527 13.3827 16.9427 13.3827 17.2527V17.7827C13.3827 18.1127 13.2727 18.2127 12.9427 18.2127ZM14.9427 18.2127C14.6127 18.2127 14.5227 18.1127 14.5227 17.7827V17.2527C14.5227 16.9427 14.6127 16.8527 14.9427 16.8527H15.4627C15.7927 16.8527 15.8827 16.9427 15.8827 17.2527V17.7827C15.8827 18.1127 15.7927 18.2127 15.4627 18.2127Z"
        fillRule="evenodd"
        clipRule="evenodd"
    />
</svg>
        