<svg viewBox="0 0 27.890625 27.890625" xmlns="http://www.w3.org/2000/svg"><path d="M13.9427 27.8864C21.6427 27.8864 27.8927 21.6464 27.8927 13.9464C27.8927 6.2464 21.6427 -0.0036 13.9427 -0.0036C6.2527 -0.0036 0.0027 6.2464 0.0027 13.9464C0.0027 21.6464 6.2527 27.8864 13.9427 27.8864ZM13.9427 25.5664C7.5227 25.5664 2.3227 20.3664 2.3227 13.9464C2.3227 7.5164 7.5227 2.3264 13.9427 2.3264C20.3727 2.3264 25.5627 7.5164 25.5627 13.9464C25.5627 20.3664 20.3727 25.5664 13.9427 25.5664ZM8.9327 20.6964H18.9327C20.4627 20.6964 21.2327 19.9364 21.2327 18.4264V9.4564C21.2327 7.9564 20.4627 7.1864 18.9327 7.1864H8.9327C7.3927 7.1864 6.6327 7.9464 6.6327 9.4564V18.4264C6.6327 19.9364 7.3927 20.6964 8.9327 20.6964ZM8.8327 19.4364C8.2127 19.4364 7.8927 19.1364 7.8927 18.4864V11.5664C7.8927 10.8964 8.2427 10.5564 8.9027 10.5564H18.9627C19.6027 10.5564 19.9727 10.8964 19.9727 11.5664V18.4864C19.9727 19.1364 19.6627 19.4364 19.0127 19.4364ZM12.4527 13.2864H12.9627C13.2727 13.2864 13.3827 13.2064 13.3827 12.8964V12.3864C13.3827 12.0764 13.2727 11.9664 12.9627 11.9664H12.4527C12.1427 11.9664 12.0427 12.0764 12.0427 12.3864V12.8964C12.0427 13.2064 12.1427 13.2864 12.4527 13.2864ZM14.9027 13.2864H15.4127C15.7227 13.2864 15.8227 13.2064 15.8227 12.8964V12.3864C15.8227 12.0764 15.7227 11.9664 15.4127 11.9664H14.9027C14.5927 11.9664 14.4927 12.0764 14.4927 12.3864V12.8964C14.4927 13.2064 14.5927 13.2864 14.9027 13.2864ZM17.3327 13.2864H17.8327C18.1427 13.2864 18.2527 13.2064 18.2527 12.8964V12.3864C18.2527 12.0764 18.1427 11.9664 17.8327 11.9664H17.3327C17.0127 11.9664 16.9127 12.0764 16.9127 12.3864V12.8964C16.9127 13.2064 17.0127 13.2864 17.3327 13.2864ZM10.0327 15.6864H10.5427C10.8527 15.6864 10.9527 15.5964 10.9527 15.2864V14.7764C10.9527 14.4664 10.8527 14.3564 10.5427 14.3564H10.0327C9.7227 14.3564 9.6127 14.4664 9.6127 14.7764V15.2864C9.6127 15.5964 9.7227 15.6864 10.0327 15.6864ZM12.4527 15.6864H12.9627C13.2727 15.6864 13.3827 15.5964 13.3827 15.2864V14.7764C13.3827 14.4664 13.2727 14.3564 12.9627 14.3564H12.4527C12.1427 14.3564 12.0427 14.4664 12.0427 14.7764V15.2864C12.0427 15.5964 12.1427 15.6864 12.4527 15.6864ZM14.9027 15.6864H15.4127C15.7227 15.6864 15.8227 15.5964 15.8227 15.2864V14.7764C15.8227 14.4664 15.7227 14.3564 15.4127 14.3564H14.9027C14.5927 14.3564 14.4927 14.4664 14.4927 14.7764V15.2864C14.4927 15.5964 14.5927 15.6864 14.9027 15.6864ZM17.3327 15.6864H17.8327C18.1427 15.6864 18.2527 15.5964 18.2527 15.2864V14.7764C18.2527 14.4664 18.1427 14.3564 17.8327 14.3564H17.3327C17.0127 14.3564 16.9127 14.4664 16.9127 14.7764V15.2864C16.9127 15.5964 17.0127 15.6864 17.3327 15.6864ZM10.0327 18.0864H10.5427C10.8527 18.0864 10.9527 17.9964 10.9527 17.6764V17.1564C10.9527 16.8564 10.8527 16.7664 10.5427 16.7664H10.0327C9.7227 16.7664 9.6127 16.8564 9.6127 17.1564V17.6764C9.6127 17.9964 9.7227 18.0864 10.0327 18.0864ZM12.4527 18.0864H12.9627C13.2727 18.0864 13.3827 17.9964 13.3827 17.6764V17.1564C13.3827 16.8564 13.2727 16.7664 12.9627 16.7664H12.4527C12.1427 16.7664 12.0427 16.8564 12.0427 17.1564V17.6764C12.0427 17.9964 12.1427 18.0864 12.4527 18.0864ZM14.9027 18.0864H15.4127C15.7227 18.0864 15.8227 17.9964 15.8227 17.6764V17.1564C15.8227 16.8564 15.7227 16.7664 15.4127 16.7664H14.9027C14.5927 16.7664 14.4927 16.8564 14.4927 17.1564V17.6764C14.4927 17.9964 14.5927 18.0864 14.9027 18.0864Z" /></svg>