
<svg
    viewBox="0 0 34.001953125 25.169921875"
    xmlns="http://www.w3.org/2000/svg"
>
    <path
        fill="inherit"
        d="M28.2207 9.7455V4.2355C28.2207 1.4255 26.8007 -0.0045 23.9307 -0.0045H5.2507C2.4107 -0.0045 0.9607 1.4055 0.9607 4.2355V9.7455H3.1607V4.1155C3.1607 2.8455 3.8407 2.2055 5.0607 2.2055H24.1207C25.3207 2.2055 26.0207 2.8455 26.0207 4.1155V9.7455ZM32.1407 3.3655C33.0607 3.3655 33.8007 2.6255 33.8007 1.6955C33.8007 0.7755 33.0607 0.0455 32.1407 0.0455C31.2307 0.0455 30.4707 0.7755 30.4707 1.6955C30.4707 2.6255 31.2307 3.3655 32.1407 3.3655ZM32.1407 8.7955C33.0607 8.7955 33.8007 8.0355 33.8007 7.1255C33.8007 6.2055 33.0607 5.4655 32.1407 5.4655C31.2307 5.4655 30.4707 6.2055 30.4707 7.1255C30.4707 8.0355 31.2307 8.7955 32.1407 8.7955ZM0.0007 12.5755C0.0007 13.1155 0.4207 13.5455 0.9607 13.5455H30.5707C30.9007 14.0855 31.4707 14.4255 32.1407 14.4255C33.1707 14.4255 34.0007 13.5855 34.0007 12.5655C34.0007 11.5355 33.1707 10.7055 32.1407 10.7055C31.4707 10.7055 30.8707 11.0555 30.5407 11.6255H0.9607C0.4207 11.6255 0.0007 12.0455 0.0007 12.5755ZM26.0207 15.4055V21.0555C26.0207 22.3255 25.3207 22.9655 24.1207 22.9655H5.0607C3.8407 22.9655 3.1607 22.3255 3.1607 21.0555V15.4055H0.9607V20.9355C0.9607 23.7655 2.4107 25.1655 5.2507 25.1655H23.9307C26.8007 25.1655 28.2207 23.7455 28.2207 20.9355V15.4055ZM32.1407 19.6155C33.0607 19.6155 33.8007 18.8855 33.8007 17.9655C33.8007 17.0355 33.0607 16.2955 32.1407 16.2955C31.2307 16.2955 30.4707 17.0355 30.4707 17.9655C30.4707 18.8855 31.2307 19.6155 32.1407 19.6155ZM32.1407 25.0455C33.0607 25.0455 33.8007 24.2955 33.8007 23.3755C33.8007 22.4655 33.0607 21.7255 32.1407 21.7255C31.2307 21.7255 30.4707 22.4655 30.4707 23.3755C30.4707 24.2955 31.2307 25.0455 32.1407 25.0455Z"
        fillRule="evenodd"
        clipRule="evenodd"
    />
</svg>
        