
<svg
    viewBox={0 0 34.111328125 25.169921875}
    xmlns="http://www.w3.org/2000/svg"
>
    <path
        fill="inherit"
        d="M4.2937 25.1655H15.9937C15.6837 24.4355 15.6937 23.6755 15.8437 22.9655H4.1037C2.8837 22.9655 2.2037 22.3255 2.2037 21.0555V8.1655C2.2037 6.9055 2.8837 6.2455 4.1037 6.2455H22.8037C23.0237 6.2455 23.2137 6.2655 23.3937 6.3055C24.1337 5.8655 24.9737 5.6355 25.8537 5.6355C26.3437 5.6355 26.8137 5.7055 27.2637 5.8255V4.2355C27.2637 1.4255 25.8237 -0.0045 22.9737 -0.0045H4.2937C1.4537 -0.0045 0.0037 1.4055 0.0037 4.2355V20.9355C0.0037 23.7655 1.4537 25.1655 4.2937 25.1655ZM25.8537 16.0655C27.9437 16.0655 29.7737 14.1755 29.7737 11.7155C29.7737 9.2955 27.9437 7.5055 25.8537 7.5055C23.7437 7.5055 21.9137 9.3255 21.9137 11.7455C21.9137 14.1755 23.7437 16.0655 25.8537 16.0655ZM10.9537 11.1555H11.7537C12.2337 11.1555 12.4037 11.0155 12.4037 10.5455V9.7355C12.4037 9.2555 12.2337 9.1055 11.7537 9.1055H10.9537C10.4737 9.1055 10.3237 9.2555 10.3237 9.7355V10.5455C10.3237 11.0155 10.4737 11.1555 10.9537 11.1555ZM15.5037 11.1555H16.2937C16.7937 11.1555 16.9437 11.0155 16.9437 10.5455V9.7355C16.9437 9.2555 16.7937 9.1055 16.2937 9.1055H15.5037C15.0237 9.1055 14.8637 9.2555 14.8637 9.7355V10.5455C14.8637 11.0155 15.0237 11.1555 15.5037 11.1555ZM20.0437 11.1555H20.0837C20.1537 10.4155 20.3337 9.7355 20.6337 9.1055H20.0437C19.5637 9.1055 19.4037 9.2555 19.4037 9.7355V10.5455C19.4037 11.0155 19.5637 11.1555 20.0437 11.1555ZM6.4137 15.6255H7.2237C7.6937 15.6255 7.8637 15.4855 7.8637 15.0155V14.2055C7.8637 13.7255 7.6937 13.5855 7.2237 13.5855H6.4137C5.9337 13.5855 5.7737 13.7255 5.7737 14.2055V15.0155C5.7737 15.4855 5.9337 15.6255 6.4137 15.6255ZM10.9537 15.6255H11.7537C12.2337 15.6255 12.4037 15.4855 12.4037 15.0155V14.2055C12.4037 13.7255 12.2337 13.5855 11.7537 13.5855H10.9537C10.4737 13.5855 10.3237 13.7255 10.3237 14.2055V15.0155C10.3237 15.4855 10.4737 15.6255 10.9537 15.6255ZM15.5037 15.6255H16.2937C16.7937 15.6255 16.9437 15.4855 16.9437 15.0155V14.2055C16.9437 13.7255 16.7937 13.5855 16.2937 13.5855H15.5037C15.0237 13.5855 14.8637 13.7255 14.8637 14.2055V15.0155C14.8637 15.4855 15.0237 15.6255 15.5037 15.6255ZM20.0437 15.6255H20.8537C21.0437 15.6255 21.1537 15.6155 21.2237 15.5155C20.8337 14.9555 20.5337 14.3055 20.3537 13.5855H20.0437C19.5637 13.5855 19.4037 13.7255 19.4037 14.2055V15.0155C19.4037 15.4855 19.5637 15.6255 20.0437 15.6255ZM19.2537 25.1555H32.4437C33.4837 25.1555 34.1137 24.6755 34.1137 23.8555C34.1137 21.3155 30.9437 17.8155 25.8537 17.8155C20.7437 17.8155 17.5837 21.3155 17.5837 23.8555C17.5837 24.6755 18.2137 25.1555 19.2537 25.1555ZM6.4137 20.1155H7.2237C7.6937 20.1155 7.8637 19.9655 7.8637 19.4855V18.6755C7.8637 18.1955 7.6937 18.0555 7.2237 18.0555H6.4137C5.9337 18.0555 5.7737 18.1955 5.7737 18.6755V19.4855C5.7737 19.9655 5.9337 20.1155 6.4137 20.1155ZM10.9537 20.1155H11.7537C12.2337 20.1155 12.4037 19.9655 12.4037 19.4855V18.6755C12.4037 18.1955 12.2337 18.0555 11.7537 18.0555H10.9537C10.4737 18.0555 10.3237 18.1955 10.3237 18.6755V19.4855C10.3237 19.9655 10.4737 20.1155 10.9537 20.1155ZM15.5037 20.1155H16.2937C16.7937 20.1155 16.9437 19.9655 16.9437 19.4855V18.6755C16.9437 18.1955 16.7937 18.0555 16.2937 18.0555H15.5037C15.0237 18.0555 14.8637 18.1955 14.8637 18.6755V19.4855C14.8637 19.9655 15.0237 20.1155 15.5037 20.1155Z"
        fillRule="evenodd"
        clipRule="evenodd"
    />
</svg>
        