
<svg
    viewBox={0 0 30.146484375 28.642578125}
    xmlns="http://www.w3.org/2000/svg"
>
    <path
        fill="inherit"
        d="M9.6227 28.6445C11.6527 28.6445 13.5327 28.0145 15.0827 26.9445C16.6227 28.0145 18.5127 28.6445 20.5327 28.6445C25.8227 28.6445 30.1427 24.3245 30.1427 19.0045C30.1427 15.1845 27.9027 11.8845 24.6627 10.3345C24.6827 10.1045 24.6927 9.8545 24.6927 9.6245C24.6927 4.3245 20.3827 0.0045 15.0827 0.0045C9.7627 0.0045 5.4427 4.3245 5.4427 9.6245C5.4427 9.8545 5.4527 10.1045 5.4727 10.3345C2.2427 11.8945 0.0027 15.1845 0.0027 19.0045C0.0027 24.3245 4.3227 28.6445 9.6227 28.6445ZM9.6227 9.3945C8.9427 9.3945 8.2727 9.4645 7.6327 9.5945C7.6327 5.5245 10.9627 2.1845 15.0827 2.1845C19.1527 2.1845 22.4727 5.4945 22.5027 9.5945C21.8627 9.4645 21.2027 9.3945 20.5327 9.3945C18.5027 9.3945 16.6227 10.0245 15.0827 11.0845C13.5227 10.0245 11.6527 9.3945 9.6227 9.3945ZM9.6227 11.5845C10.9927 11.5845 12.2627 11.9445 13.3727 12.5945C12.4727 13.5945 11.7727 14.7645 11.3627 16.0745C9.7327 15.1345 8.4927 13.6045 7.9427 11.7745C8.4927 11.6445 9.0527 11.5845 9.6227 11.5845ZM20.5327 11.5845C21.0927 11.5845 21.6527 11.6445 22.1927 11.7745C21.6427 13.6045 20.4127 15.1345 18.7827 16.0745C18.3727 14.7645 17.6827 13.5945 16.7927 12.5945C17.8827 11.9445 19.1727 11.5845 20.5327 11.5845ZM20.5327 26.4545C19.1727 26.4545 17.8827 26.0845 16.7927 25.4445C18.3227 23.7345 19.2527 21.4745 19.2527 19.0045C19.2527 18.7745 19.2327 18.5345 19.2227 18.3045C21.5927 17.1745 23.4227 15.1045 24.2227 12.5645C26.4527 13.8545 27.9627 16.2545 27.9627 19.0045C27.9627 23.1145 24.6527 26.4545 20.5327 26.4545ZM9.6227 26.4545C5.5127 26.4545 2.1827 23.1345 2.1827 19.0045C2.1827 16.2645 3.6827 13.8645 5.9027 12.5745C6.7227 15.1045 8.5627 17.1845 10.9227 18.3245C10.9127 18.5345 10.8927 18.7745 10.8927 19.0045C10.8927 21.4745 11.8227 23.7345 13.3727 25.4445C12.2627 26.0845 10.9927 26.4545 9.6227 26.4545ZM15.0827 17.0645C14.4927 17.0645 13.9327 17.0045 13.4027 16.8745C13.7227 15.7745 14.3127 14.7745 15.0827 13.9545C15.8327 14.7745 16.4227 15.7745 16.7527 16.8745C16.2127 17.0045 15.6527 17.0645 15.0827 17.0645ZM15.0827 19.2545C15.7527 19.2545 16.4227 19.1845 17.0627 19.0445C17.0627 20.9745 16.3127 22.7545 15.0627 24.0745C13.8527 22.7645 13.0927 21.0045 13.0827 19.0445C13.7227 19.1845 14.3927 19.2545 15.0827 19.2545Z"
        fillRule="evenodd"
        clipRule="evenodd"
    />
</svg>
        