
<svg
    viewBox="0 0 33.578125 30.434378085835494"
    xmlns="http://www.w3.org/2000/svg"
>
    <path
        fill="inherit"
        d="M1.8337 1.94L5.6737 5.24C5.9237 5.44 6.1837 5.61 6.4637 5.61C6.7637 5.61 7.0237 5.44 7.2737 5.24L11.1137 1.94C12.2537 0.99 10.9137 -0.76 9.6537 0.37L6.4637 3.28L3.2937 0.37C2.0237 -0.76 0.6937 0.99 1.8337 1.94ZM4.2937 30.43H29.2837C32.1337 30.43 33.5737 29.01 33.5737 26.2V11.88C33.5737 9.07 32.1337 7.66 29.2837 7.66H25.3737C24.2937 7.66 23.9637 7.44 23.3537 6.75L22.2537 5.52C21.5737 4.77 20.8737 4.36 19.4737 4.36H14.0137C12.6037 4.36 11.9037 4.77 11.2237 5.52L10.1337 6.75C9.5137 7.42 9.1737 7.66 8.1037 7.66H4.2937C1.4337 7.66 0.0037 9.07 0.0037 11.88V26.2C0.0037 29.01 1.4337 30.43 4.2937 30.43ZM4.3237 28.23C2.9837 28.23 2.2037 27.51 2.2037 26.09V12C2.2037 10.58 2.9837 9.86 4.3237 9.86H8.6537C9.8837 9.86 10.5537 9.63 11.2337 8.86L12.3037 7.66C13.0837 6.78 13.4937 6.56 14.6937 6.56H18.7837C19.9837 6.56 20.3937 6.78 21.1737 7.66L22.2437 8.86C22.9237 9.63 23.5937 9.86 24.8237 9.86H29.2437C30.5937 9.86 31.3737 10.58 31.3737 12V26.09C31.3737 27.51 30.5937 28.23 29.2437 28.23ZM16.7937 26.26C20.9137 26.26 24.2437 22.96 24.2437 18.79C24.2437 14.63 20.9337 11.32 16.7937 11.32C12.6437 11.32 9.3237 14.63 9.3237 18.79C9.3237 22.96 12.6437 26.26 16.7937 26.26ZM27.1437 14.85C28.0637 14.85 28.8337 14.08 28.8337 13.15C28.8337 12.21 28.0637 11.46 27.1437 11.46C26.1937 11.46 25.4437 12.21 25.4437 13.15C25.4437 14.08 26.1937 14.85 27.1437 14.85ZM16.7937 24.19C13.8237 24.19 11.3937 21.79 11.3937 18.79C11.3937 15.79 13.8037 13.39 16.7937 13.39C19.7737 13.39 22.1737 15.79 22.1737 18.79C22.1737 21.79 19.7737 24.19 16.7937 24.19Z"
        fillRule="evenodd"
        clipRule="evenodd"
    />
</svg>
        