
<svg
    viewBox="0 0 27.890625 27.890625"
    xmlns="http://www.w3.org/2000/svg"
>
    <path
        fill="inherit"
        d="M13.9427 27.8864C21.6427 27.8864 27.8927 21.6264 27.8927 13.9464C27.8927 6.2464 21.6427 -0.0036 13.9427 -0.0036C6.2627 -0.0036 0.0027 6.2464 0.0027 13.9464C0.0027 21.6264 6.2627 27.8864 13.9427 27.8864ZM9.1027 9.8664C9.1027 9.0664 9.2927 8.2564 9.6627 7.4264C9.7927 7.0664 10.2227 7.0164 10.5127 7.3164L12.1227 8.9664L13.5227 7.1664C13.7527 6.8464 14.1527 6.8464 14.3727 7.1664L15.7527 8.9664L17.3527 7.3164C17.6327 7.0164 18.0727 7.0664 18.2427 7.4264C18.5927 8.2564 18.7627 9.0664 18.7627 9.8664C18.7627 12.3464 17.1327 14.3964 14.5427 14.6864V20.7364C15.7527 18.2364 18.3327 16.3264 21.7927 16.3264C22.2827 16.3264 22.4627 16.6364 22.3027 17.0864C21.1527 20.3664 17.6827 22.6864 13.9327 22.6864C13.6027 22.6864 13.3327 22.4464 13.3327 22.1064V14.6864C10.7427 14.4064 9.1027 12.3464 9.1027 9.8664ZM5.5627 17.0864C5.4027 16.6364 5.5627 16.3264 6.0727 16.3264C8.8827 16.3264 11.1127 17.6064 12.4727 19.4364V22.1064C12.4727 22.2564 12.4927 22.4264 12.5627 22.5464C9.3427 22.1064 6.5527 19.9764 5.5627 17.0864Z"
        fillRule="evenodd"
        clipRule="evenodd"
    />
</svg>
        