
<svg
    viewBox={0 0 31.6534266031654 29.50390625}
    xmlns="http://www.w3.org/2000/svg"
>
    <path
        fill="inherit"
        d="M14.7543 28.481C14.7543 29.091 15.2343 29.501 15.8443 29.501C22.9143 29.501 29.4143 25.141 31.5443 19.021C31.8443 18.181 31.5243 17.651 30.6443 17.651C24.0243 17.651 19.1543 21.331 16.9543 26.131V14.491C21.8043 13.991 24.8743 10.131 24.8743 5.481C24.8743 3.981 24.5543 2.431 23.9043 0.891C23.5943 0.231 22.8243 0.141 22.3043 0.671L19.2343 3.791L16.6243 0.411C16.2043 -0.139 15.4943 -0.139 15.0843 0.411L12.4743 3.791L9.3943 0.671C8.8743 0.141 8.0943 0.231 7.8043 0.891C7.1343 2.431 6.8243 3.981 6.8243 5.481C6.8243 10.131 9.8843 13.991 14.7543 14.491ZM12.8843 23.251C10.3143 19.921 6.1943 17.651 1.0143 17.651C0.1243 17.651 -0.1857 18.181 0.1143 19.021C1.9443 24.321 7.0243 28.311 12.9943 29.261C12.9243 29.021 12.8843 28.751 12.8843 28.481Z"
        fillRule="evenodd"
        clipRule="evenodd"
    />
</svg>
        