
<svg
    viewBox="0 0 33.578125 26.072265625"
    xmlns="http://www.w3.org/2000/svg"
>
    <path
        fill="inherit"
        d="M4.2937 26.0679H29.2837C32.1337 26.0679 33.5737 24.6479 33.5737 21.8379V7.5179C33.5737 4.7079 32.1337 3.2979 29.2837 3.2979H25.3737C24.2937 3.2979 23.9637 3.0779 23.3537 2.3879L22.2537 1.1579C21.5737 0.4079 20.8737 -0.0021 19.4737 -0.0021H14.0137C12.6037 -0.0021 11.9037 0.4079 11.2237 1.1579L10.1337 2.3879C9.5137 3.0579 9.1737 3.2979 8.1037 3.2979H4.2937C1.4337 3.2979 0.0037 4.7079 0.0037 7.5179V21.8379C0.0037 24.6479 1.4337 26.0679 4.2937 26.0679ZM4.3237 23.8679C2.9837 23.8679 2.2037 23.1479 2.2037 21.7279V7.6379C2.2037 6.2179 2.9837 5.4979 4.3237 5.4979H8.6537C9.8837 5.4979 10.5537 5.2679 11.2337 4.4979L12.3037 3.2979C13.0837 2.4179 13.4937 2.1979 14.6937 2.1979H18.7837C19.9837 2.1979 20.3937 2.4179 21.1737 3.2979L22.2437 4.4979C22.9237 5.2679 23.5937 5.4979 24.8237 5.4979H29.2437C30.5937 5.4979 31.3737 6.2179 31.3737 7.6379V21.7279C31.3737 23.1479 30.5937 23.8679 29.2437 23.8679ZM16.7937 21.8979C20.9137 21.8979 24.2437 18.5979 24.2437 14.4279C24.2437 10.2679 20.9337 6.9579 16.7937 6.9579C12.6437 6.9579 9.3237 10.2679 9.3237 14.4279C9.3237 18.5979 12.6437 21.8979 16.7937 21.8979ZM27.1437 10.4879C28.0637 10.4879 28.8337 9.7179 28.8337 8.7879C28.8337 7.8479 28.0637 7.0979 27.1437 7.0979C26.1937 7.0979 25.4437 7.8479 25.4437 8.7879C25.4437 9.7179 26.1937 10.4879 27.1437 10.4879ZM16.7937 19.8279C13.8237 19.8279 11.3937 17.4279 11.3937 14.4279C11.3937 11.4279 13.8037 9.0279 16.7937 9.0279C19.7737 9.0279 22.1737 11.4279 22.1737 14.4279C22.1737 17.4279 19.7737 19.8279 16.7937 19.8279Z"
        fillRule="evenodd"
        clipRule="evenodd"
    />
</svg>
        