
<svg
    viewBox={0 0 33.578125 26.072265625}
    xmlns="http://www.w3.org/2000/svg"
>
    <path
        fill="inherit"
        d="M4.2937 26.0679H29.2837C32.1337 26.0679 33.5737 24.6479 33.5737 21.8379V7.5179C33.5737 4.7079 32.1337 3.2979 29.2837 3.2979H25.3737C24.2937 3.2979 23.9637 3.0779 23.3537 2.3879L22.2537 1.1579C21.5737 0.4079 20.8737 -0.0021 19.4737 -0.0021H14.0137C12.6037 -0.0021 11.9037 0.4079 11.2237 1.1579L10.1337 2.3879C9.5137 3.0579 9.1737 3.2979 8.1037 3.2979H4.2937C1.4337 3.2979 0.0037 4.7079 0.0037 7.5179V21.8379C0.0037 24.6479 1.4337 26.0679 4.2937 26.0679ZM28.3237 10.4879C27.3937 10.4879 26.6337 9.7179 26.6337 8.7879C26.6337 7.8479 27.3937 7.0979 28.3237 7.0979C29.2737 7.0979 30.0337 7.8479 30.0337 8.7879C30.0337 9.7179 29.2737 10.4879 28.3237 10.4879ZM16.7937 22.0379C12.6437 22.0379 9.3237 18.7279 9.3237 14.5579C9.3237 10.4079 12.6437 7.0979 16.7937 7.0979C20.9337 7.0979 24.2437 10.4079 24.2437 14.5579C24.2437 18.7279 20.9137 22.0379 16.7937 22.0379ZM16.7937 19.9579C19.7737 19.9579 22.1737 17.5679 22.1737 14.5579C22.1737 11.5679 19.7737 9.1579 16.7937 9.1579C13.8037 9.1579 11.3937 11.5679 11.3937 14.5579C11.3937 17.5679 13.8237 19.9579 16.7937 19.9579Z"
        fillRule="evenodd"
        clipRule="evenodd"
    />
</svg>
        