<svg viewBox="0 0 32.23828125 25.169921875" xmlns="http://www.w3.org/2000/svg"><path d="M30.0337 11.6592H32.2337V4.2392C32.2337 1.4192 30.8137 -0.0008 27.9437 -0.0008H17.0737V2.1992H27.9137C29.2737 2.1992 30.0337 2.9392 30.0337 4.3592ZM0.0037 11.6592H2.2037V4.3592C2.2037 2.9392 2.9537 2.1992 4.3237 2.1992H15.2037V-0.0008H4.2937C1.4337 -0.0008 0.0037 1.4192 0.0037 4.2392ZM8.5137 12.5892C8.5137 13.4392 9.0737 14.0092 9.9237 14.0092H22.3537C23.2037 14.0092 23.7637 13.4392 23.7637 12.5892C23.7637 11.7592 23.2037 11.1792 22.3537 11.1792H9.9237C9.0737 11.1792 8.5137 11.7592 8.5137 12.5892ZM4.2937 25.1692H15.2037V22.9692H4.3237C2.9537 22.9692 2.2037 22.2392 2.2037 20.8192V13.5192H0.0037V20.9492C0.0037 23.7592 1.4337 25.1692 4.2937 25.1692ZM17.0737 25.1692H27.9437C30.8137 25.1692 32.2337 23.7592 32.2337 20.9492V13.5192H30.0337V20.8192C30.0337 22.2392 29.2737 22.9692 27.9137 22.9692H17.0737Z" /></svg>