
<svg
    viewBox="0 0 35.423828125 28.642578125"
    xmlns="http://www.w3.org/2000/svg"
>
    <path
        fill="inherit"
        d="M0.0037 18.0719C0.0037 20.8919 1.4237 22.3119 4.2937 22.3119H5.0337V12.8119C5.0337 8.9519 7.3037 6.7119 11.1937 6.7119H13.2237C13.5237 6.7119 13.5937 6.6819 13.8237 6.4419L14.7937 5.4519C15.8837 4.3219 17.0337 3.8119 18.5837 3.8119H23.7637C25.3337 3.8119 26.5237 4.3319 27.5937 5.4919L28.2037 6.1619C28.3137 6.2719 28.4337 6.4219 28.5237 6.4619V4.2419C28.5237 1.4219 27.0837 0.0019 24.2437 0.0019H4.2937C1.4237 0.0019 0.0037 1.4219 0.0037 4.2419ZM11.1937 28.6419H31.1437C34.0037 28.6419 35.4237 27.2219 35.4237 24.4019V12.8119C35.4237 9.9919 34.0037 8.5819 31.1437 8.5819H29.1037C28.0837 8.5819 27.7637 8.4619 27.1837 7.8219L26.1937 6.7519C25.4937 5.9919 24.8237 5.6919 23.7637 5.6919H18.5837C17.5037 5.6919 16.8737 6.0019 16.1337 6.7519L15.0937 7.8219C14.4937 8.4119 14.2437 8.5819 13.2237 8.5819H11.1937C8.3237 8.5819 6.9037 9.9919 6.9037 12.8119V24.4019C6.9037 27.2219 8.3237 28.6419 11.1937 28.6419ZM21.1737 24.5919C17.5137 24.5919 14.5637 21.6419 14.5637 17.9619C14.5637 14.3119 17.5137 11.3519 21.1737 11.3519C24.8237 11.3519 27.7937 14.3119 27.7937 17.9619C27.7937 21.6419 24.8237 24.5919 21.1737 24.5919ZM30.5837 14.8319C29.7237 14.8319 29.0137 14.1319 29.0137 13.2719C29.0137 12.4019 29.7237 11.6919 30.5837 11.6919C31.4637 11.6919 32.1737 12.4019 32.1737 13.2719C32.1737 14.1319 31.4637 14.8319 30.5837 14.8319ZM21.1737 22.5019C23.6637 22.5019 25.6937 20.4619 25.6937 17.9619C25.6937 15.4719 23.6637 13.4519 21.1737 13.4519C18.6937 13.4519 16.6537 15.4719 16.6537 17.9619C16.6537 20.4619 18.6937 22.5019 21.1737 22.5019Z"
        fillRule="evenodd"
        clipRule="evenodd"
    />
</svg>
        