
<svg
    viewBox="0 0 27.890625 27.890625"
    xmlns="http://www.w3.org/2000/svg"
>
    <path
        fill="inherit"
        d="M13.9427 27.8864C21.6427 27.8864 27.8927 21.6464 27.8927 13.9464C27.8927 6.2464 21.6427 -0.0036 13.9427 -0.0036C6.2527 -0.0036 0.0027 6.2464 0.0027 13.9464C0.0027 21.6464 6.2527 27.8864 13.9427 27.8864ZM13.9427 25.5664C7.5227 25.5664 2.3227 20.3664 2.3227 13.9464C2.3227 7.5164 7.5227 2.3264 13.9427 2.3264C20.3727 2.3264 25.5627 7.5164 25.5627 13.9464C25.5627 20.3664 20.3727 25.5664 13.9427 25.5664ZM7.8327 20.1264H20.0327C21.4627 20.1264 22.2027 19.4164 22.2027 17.9964V10.7564C22.2027 9.3264 21.4627 8.6164 20.0327 8.6164H18.2627C17.7327 8.6164 17.5527 8.5064 17.2427 8.1664L16.6927 7.5364C16.3527 7.1664 15.9927 6.9564 15.2827 6.9564H12.5227C11.8227 6.9564 11.4727 7.1664 11.1127 7.5364L10.5527 8.1664C10.2427 8.4864 10.0927 8.6164 9.5427 8.6164H7.8327C6.3827 8.6164 5.6627 9.3264 5.6627 10.7564V17.9964C5.6627 19.4164 6.3827 20.1264 7.8327 20.1264ZM13.9427 18.4064C11.6727 18.4064 9.8427 16.5864 9.8427 14.2964C9.8427 12.0264 11.6727 10.2164 13.9427 10.2164C16.2127 10.2164 18.0327 12.0264 18.0327 14.2964C18.0327 16.6264 16.2127 18.4064 13.9427 18.4064ZM19.6627 12.1364C19.1527 12.1364 18.7327 11.7164 18.7327 11.2064C18.7327 10.7064 19.1527 10.2764 19.6627 10.2764C20.1627 10.2764 20.5927 10.7064 20.5927 11.2064C20.5927 11.7164 20.1627 12.1364 19.6627 12.1364ZM13.9327 17.2264C15.5427 17.2264 16.8527 15.9264 16.8527 14.2964C16.8527 12.6864 15.5427 11.3864 13.9327 11.3864C12.3227 11.3864 11.0027 12.6864 11.0027 14.2964C11.0027 15.9264 12.3227 17.2264 13.9327 17.2264Z"
        fillRule="evenodd"
        clipRule="evenodd"
    />
</svg>
        