<svg viewBox="0 0 32.23828125 25.169921875" xmlns="http://www.w3.org/2000/svg"><path d="M30.0337 11.6592H32.2337V4.2392C32.2337 1.4192 30.8137 -0.0008 27.9437 -0.0008H17.0737V2.1992H27.9137C29.2737 2.1992 30.0337 2.9392 30.0337 4.3592ZM0.0037 11.6592H2.2037V4.3592C2.2037 2.9392 2.9537 2.1992 4.3237 2.1992H15.2037V-0.0008H4.2937C1.4337 -0.0008 0.0037 1.4192 0.0037 4.2392ZM15.8737 15.4092C16.5537 15.4092 16.9837 14.9692 16.9837 14.4392V14.2692C16.9837 13.5092 17.4137 13.0192 18.3737 12.3892C19.7037 11.5092 20.6437 10.7192 20.6437 9.0792C20.6437 6.8092 18.6237 5.5792 16.2937 5.5792C13.9437 5.5792 12.4037 6.6992 12.0337 7.9592C11.9637 8.1792 11.9237 8.3992 11.9237 8.6292C11.9237 9.2392 12.4037 9.5692 12.8537 9.5692C13.3137 9.5692 13.6137 9.3492 13.8637 9.0192L14.1137 8.6992C14.5837 7.8992 15.3037 7.4392 16.2137 7.4392C17.4637 7.4392 18.2637 8.1492 18.2637 9.1892C18.2637 10.1192 17.6937 10.5692 16.4837 11.3992C15.5137 12.0892 14.7837 12.8092 14.7837 14.1492V14.3292C14.7837 15.0392 15.1737 15.4092 15.8737 15.4092ZM4.2937 25.1692H15.2037V22.9692H4.3237C2.9537 22.9692 2.2037 22.2392 2.2037 20.8192V13.5192H0.0037V20.9492C0.0037 23.7592 1.4337 25.1692 4.2937 25.1692ZM17.0737 25.1692H27.9437C30.8137 25.1692 32.2337 23.7592 32.2337 20.9492V13.5192H30.0337V20.8192C30.0337 22.2392 29.2737 22.9692 27.9137 22.9692H17.0737ZM15.8437 19.4792C16.6437 19.4792 17.3237 18.8492 17.3237 18.0592C17.3237 17.2692 16.6537 16.6392 15.8437 16.6392C15.0437 16.6392 14.3737 17.2792 14.3737 18.0592C14.3737 18.8392 15.0537 19.4792 15.8437 19.4792Z" /></svg>