
<svg
    viewBox="0 0 27.890625 27.890625"
    xmlns="http://www.w3.org/2000/svg"
>
    <path
        fill="inherit"
        d="M13.9427 27.8864C21.6427 27.8864 27.8927 21.6464 27.8927 13.9464C27.8927 6.2464 21.6427 -0.0036 13.9427 -0.0036C6.2527 -0.0036 0.0027 6.2464 0.0027 13.9464C0.0027 21.6464 6.2527 27.8864 13.9427 27.8864ZM13.9427 2.3264C15.5827 2.3264 17.1627 2.6664 18.5827 3.2764L13.2927 6.3264C11.8027 7.1864 10.2827 8.1464 8.9027 9.1464V3.4764C10.4227 2.7364 12.1427 2.3264 13.9427 2.3264ZM20.1427 9.5264C18.7327 8.7264 17.3127 7.9564 15.8627 7.2764L15.5827 7.1664L20.4927 4.3364C23.2127 6.1964 25.1027 9.1764 25.5027 12.6164ZM7.0427 13.9464C7.0427 14.6264 7.1227 15.2964 7.2727 15.9264L2.3527 13.0864C2.6127 9.5964 4.3927 6.5464 7.0427 4.5964ZM13.9427 18.9864C11.1727 18.9864 8.9027 16.7164 8.9027 13.9464C8.9027 11.1564 11.1727 8.8964 13.9427 8.8964C16.7227 8.8964 18.9927 11.1564 18.9927 13.9464C18.9927 16.7164 16.7227 18.9864 13.9427 18.9864ZM20.8527 13.9464C20.8527 13.2664 20.7627 12.5764 20.6127 11.9664L25.5427 14.7964C25.2827 18.2764 23.5027 21.3464 20.8527 23.2964ZM7.7427 18.3464C9.0227 19.0864 10.3527 19.7964 11.6727 20.4164L12.3027 20.7264L7.3927 23.5564C4.6727 21.6964 2.7927 18.7164 2.3927 15.2764ZM13.9427 25.5664C12.3027 25.5664 10.7327 25.2264 9.3127 24.6064L14.5727 21.5764C16.1027 20.6764 17.5927 19.7464 19.0027 18.7264V24.4064C17.4727 25.1564 15.7627 25.5664 13.9427 25.5664Z"
        fillRule="evenodd"
        clipRule="evenodd"
    />
</svg>
        