<svg viewBox="0 0 32.23828125 25.169921875" xmlns="http://www.w3.org/2000/svg"><path d="M30.0337 11.6592H32.2337V4.2392C32.2337 1.4192 30.8137 -0.0008 27.9437 -0.0008H17.0737V2.1992H27.9137C29.2737 2.1992 30.0337 2.9392 30.0337 4.3592ZM0.0037 11.6592H2.2037V4.3592C2.2037 2.9392 2.9537 2.1992 4.3237 2.1992H15.2037V-0.0008H4.2937C1.4337 -0.0008 0.0037 1.4192 0.0037 4.2392ZM5.2637 4.0692C4.4137 4.0692 4.0737 4.4292 4.0737 5.3092V11.6592H10.3337C10.7337 9.1992 12.7137 7.2292 15.2037 6.8392V4.0692ZM26.9737 4.0692H17.0737V6.8392C19.5237 7.2292 21.5037 9.1992 21.9037 11.6592H28.1737V5.3092C28.1737 4.4292 27.8337 4.0692 26.9737 4.0692ZM16.1237 16.4592C18.2837 16.4592 20.0137 14.7292 20.0137 12.5792C20.0137 10.4192 18.2837 8.6792 16.1237 8.6792C13.9737 8.6792 12.2337 10.4192 12.2337 12.5792C12.2337 14.7292 13.9737 16.4592 16.1237 16.4592ZM5.2637 21.1092H15.2037V18.3492C12.7137 17.9492 10.7337 15.9692 10.3337 13.5192H4.0737V19.8792C4.0737 20.7492 4.4137 21.1092 5.2637 21.1092ZM26.9737 21.1092C27.8337 21.1092 28.1737 20.7492 28.1737 19.8792V13.5192H21.9037C21.5037 15.9692 19.5237 17.9492 17.0737 18.3492V21.1092ZM4.2937 25.1692H15.2037V22.9692H4.3237C2.9537 22.9692 2.2037 22.2392 2.2037 20.8192V13.5192H0.0037V20.9492C0.0037 23.7592 1.4337 25.1692 4.2937 25.1692ZM17.0737 25.1692H27.9437C30.8137 25.1692 32.2337 23.7592 32.2337 20.9492V13.5192H30.0337V20.8192C30.0337 22.2392 29.2737 22.9692 27.9137 22.9692H17.0737Z" /></svg>