<svg viewBox="0 0 27.890625 27.890625" xmlns="http://www.w3.org/2000/svg"><path d="M13.9427 27.8864C21.6427 27.8864 27.8927 21.6464 27.8927 13.9464C27.8927 6.2464 21.6427 -0.0036 13.9427 -0.0036C6.2527 -0.0036 0.0027 6.2464 0.0027 13.9464C0.0027 21.6464 6.2527 27.8864 13.9427 27.8864ZM13.9427 25.5664C7.5227 25.5664 2.3227 20.3664 2.3227 13.9464C2.3227 7.5164 7.5227 2.3264 13.9427 2.3264C20.3727 2.3264 25.5627 7.5164 25.5627 13.9464C25.5627 20.3664 20.3727 25.5664 13.9427 25.5664ZM20.1127 20.9964C20.3427 21.2364 20.7527 21.2364 20.9827 20.9964C21.2327 20.7364 21.2327 20.3664 20.9827 20.1264L7.7627 6.8864C7.5027 6.6464 7.1227 6.6464 6.8727 6.8864C6.6327 7.1264 6.6327 7.5364 6.8727 7.7664ZM16.3227 14.0964C17.7427 13.3064 18.5927 11.7864 18.5927 10.0264C18.5927 9.2464 18.4327 8.4464 18.0927 7.6464C17.9327 7.2964 17.5227 7.2464 17.2427 7.5364L15.6827 9.1464L14.3427 7.3964C14.1227 7.0964 13.7427 7.0964 13.5227 7.3964L12.1727 9.1464L10.5927 7.5364C10.3927 7.3164 10.1127 7.2964 9.9227 7.4464C9.8827 7.5164 9.8727 7.5764 9.8527 7.6464ZM13.9227 22.4464C15.6827 22.4464 17.3627 21.9164 18.7727 21.0164L16.1327 18.3564C15.5327 18.9064 14.9127 19.6864 14.5027 20.5664V16.7464L13.3327 15.5764V21.8864C13.3327 22.2164 13.6027 22.4464 13.9227 22.4464ZM12.5927 22.3164C12.5327 22.1864 12.5127 22.0364 12.5127 21.8864V19.3164C11.1927 17.5264 9.0227 16.2864 6.2927 16.2864C5.8127 16.2864 5.6427 16.5864 5.8127 17.0264C6.7627 19.8264 9.4627 21.8864 12.5927 22.3164ZM21.0827 18.8564C21.4627 18.2764 21.7927 17.6664 22.0227 17.0264C22.1927 16.5864 22.0127 16.2864 21.5427 16.2864C20.5927 16.2864 19.7327 16.4364 18.9227 16.6964Z" /></svg>