
<svg
    viewBox={0 0 32.23828125 25.169921875}
    xmlns="http://www.w3.org/2000/svg"
>
    <path
        fill="inherit"
        d="M30.0337 11.6592H32.2337V4.2392C32.2337 1.4192 30.8137 -0.0008 27.9437 -0.0008H17.0737V2.1992H27.9137C29.2737 2.1992 30.0337 2.9392 30.0337 4.3592ZM0.0037 11.6592H2.2037V4.3592C2.2037 2.9392 2.9537 2.1992 4.3237 2.1992H15.2037V-0.0008H4.2937C1.4337 -0.0008 0.0037 1.4192 0.0037 4.2392ZM16.1437 8.8492C17.2437 8.8492 18.1037 7.9692 18.1037 6.8892C18.1037 5.8092 17.2437 4.9492 16.1437 4.9492C15.0637 4.9492 14.2037 5.8092 14.2037 6.8892C14.2037 7.9692 15.0637 8.8492 16.1437 8.8492ZM10.4737 14.5192C11.5537 14.5192 12.4137 13.6592 12.4137 12.5792C12.4137 11.4992 11.5537 10.6192 10.4737 10.6192C9.3837 10.6192 8.5137 11.4992 8.5137 12.5792C8.5137 13.6592 9.3837 14.5192 10.4737 14.5192ZM16.1437 14.5192C17.2437 14.5192 18.1037 13.6592 18.1037 12.5792C18.1037 11.4992 17.2437 10.6192 16.1437 10.6192C15.0637 10.6192 14.2037 11.4992 14.2037 12.5792C14.2037 13.6592 15.0637 14.5192 16.1437 14.5192ZM21.8337 14.5192C22.9137 14.5192 23.7937 13.6592 23.7937 12.5792C23.7937 11.4992 22.9137 10.6192 21.8337 10.6192C20.7537 10.6192 19.8837 11.4992 19.8837 12.5792C19.8837 13.6592 20.7537 14.5192 21.8337 14.5192ZM4.2937 25.1692H15.2037V22.9692H4.3237C2.9537 22.9692 2.2037 22.2392 2.2037 20.8192V13.5192H0.0037V20.9492C0.0037 23.7592 1.4337 25.1692 4.2937 25.1692ZM17.0737 25.1692H27.9437C30.8137 25.1692 32.2337 23.7592 32.2337 20.9492V13.5192H30.0337V20.8192C30.0337 22.2392 29.2737 22.9692 27.9137 22.9692H17.0737ZM16.1437 20.2092C17.2437 20.2092 18.1037 19.3492 18.1037 18.2692C18.1037 17.1692 17.2437 16.3092 16.1437 16.3092C15.0637 16.3092 14.2037 17.1692 14.2037 18.2692C14.2037 19.3492 15.0637 20.2092 16.1437 20.2092Z"
        fillRule="evenodd"
        clipRule="evenodd"
    />
</svg>
        