
<svg
    viewBox={0 0 32.23828125 25.169921875}
    xmlns="http://www.w3.org/2000/svg"
>
    <path
        fill="inherit"
        d="M30.0337 11.6592H32.2337V4.2392C32.2337 1.4192 30.8137 -0.0008 27.9437 -0.0008H17.0737V2.1992H27.9137C29.2737 2.1992 30.0337 2.9392 30.0337 4.3592ZM0.0037 11.6592H2.2037V4.3592C2.2037 2.9392 2.9537 2.1992 4.3237 2.1992H15.2037V-0.0008H4.2937C1.4337 -0.0008 0.0037 1.4192 0.0037 4.2392ZM21.9137 11.6592H23.6937C23.2437 7.9292 19.9837 4.9892 16.1437 4.9892C12.2737 4.9892 9.0237 7.9292 8.5737 11.6592H10.3537C10.8037 8.8992 13.2437 6.7492 16.1437 6.7492C19.0337 6.7492 21.4737 8.8992 21.9137 11.6592ZM4.2937 25.1692H15.2037V22.9692H4.3237C2.9537 22.9692 2.2037 22.2392 2.2037 20.8192V13.5192H0.0037V20.9492C0.0037 23.7592 1.4337 25.1692 4.2937 25.1692ZM17.0737 25.1692H27.9437C30.8137 25.1692 32.2337 23.7592 32.2337 20.9492V13.5192H30.0337V20.8192C30.0337 22.2392 29.2737 22.9692 27.9137 22.9692H17.0737ZM23.6937 13.5392H21.9037C21.4337 16.3092 19.0337 18.4392 16.1437 18.4392C13.2437 18.4392 10.8137 16.3092 10.3637 13.5392H8.5737C9.0337 17.2992 12.2737 20.2092 16.1437 20.2092C19.9837 20.2092 23.2037 17.2792 23.6937 13.5392Z"
        fillRule="evenodd"
        clipRule="evenodd"
    />
</svg>
        