
<svg
    viewBox={0 0 33.578125 30.434378085835494}
    xmlns="http://www.w3.org/2000/svg"
>
    <path
        fill="inherit"
        d="M1.8337 1.94L5.6737 5.24C5.9237 5.44 6.1837 5.61 6.4637 5.61C6.7637 5.61 7.0237 5.44 7.2737 5.24L11.1137 1.94C12.2537 0.99 10.9137 -0.76 9.6537 0.37L6.4637 3.28L3.2937 0.37C2.0237 -0.76 0.6937 0.99 1.8337 1.94ZM4.2937 30.43H29.2837C32.1337 30.43 33.5737 29.01 33.5737 26.2V11.88C33.5737 9.07 32.1337 7.66 29.2837 7.66H25.3737C24.2937 7.66 23.9637 7.44 23.3537 6.75L22.2537 5.52C21.5737 4.77 20.8737 4.36 19.4737 4.36H14.0137C12.6037 4.36 11.9037 4.77 11.2237 5.52L10.1337 6.75C9.5137 7.42 9.1737 7.66 8.1037 7.66H4.2937C1.4337 7.66 0.0037 9.07 0.0037 11.88V26.2C0.0037 29.01 1.4337 30.43 4.2937 30.43ZM28.3237 14.85C27.3937 14.85 26.6337 14.08 26.6337 13.15C26.6337 12.21 27.3937 11.46 28.3237 11.46C29.2737 11.46 30.0337 12.21 30.0337 13.15C30.0337 14.08 29.2737 14.85 28.3237 14.85ZM16.7937 26.4C12.6437 26.4 9.3237 23.09 9.3237 18.92C9.3237 14.77 12.6437 11.46 16.7937 11.46C20.9337 11.46 24.2437 14.77 24.2437 18.92C24.2437 23.09 20.9137 26.4 16.7937 26.4ZM16.7937 24.32C19.7737 24.32 22.1737 21.93 22.1737 18.92C22.1737 15.93 19.7737 13.52 16.7937 13.52C13.8037 13.52 11.3937 15.93 11.3937 18.92C11.3937 21.93 13.8237 24.32 16.7937 24.32Z"
        fillRule="evenodd"
        clipRule="evenodd"
    />
</svg>
        