
<svg
    viewBox={0 0 26.76953125 26.755859375}
    xmlns="http://www.w3.org/2000/svg"
>
    <path
        fill="inherit"
        d="M1.0937 8.6985C1.8137 8.6985 2.2037 8.2885 2.2037 7.5785V4.3485C2.2037 2.9285 2.9537 2.1985 4.3237 2.1985H7.6337C8.3537 2.1985 8.7537 1.8085 8.7537 1.0985C8.7537 0.3785 8.3537 -0.0015 7.6337 -0.0015H4.2937C1.4337 -0.0015 0.0037 1.4085 0.0037 4.2285V7.5785C0.0037 8.2885 0.3937 8.6985 1.0937 8.6985ZM25.6637 8.6985C26.3837 8.6985 26.7737 8.2885 26.7737 7.5785V4.2285C26.7737 1.4085 25.3337 -0.0015 22.4737 -0.0015H19.1237C18.4137 -0.0015 18.0237 0.3785 18.0237 1.0985C18.0237 1.8085 18.4137 2.1985 19.1237 2.1985H22.4337C23.7937 2.1985 24.5637 2.9285 24.5637 4.3485V7.5785C24.5637 8.2885 24.9637 8.6985 25.6637 8.6985ZM7.2837 19.5485H19.4937C20.9337 19.5485 21.6737 18.8385 21.6737 17.4185V10.1985C21.6737 8.7485 20.9337 8.0385 19.4937 8.0385H17.7237C17.1837 8.0385 17.0237 7.9385 16.7037 7.5885L16.1437 6.9685C15.8037 6.5885 15.4537 6.3985 14.7537 6.3985H11.9937C11.2837 6.3985 10.9237 6.5885 10.5837 6.9685L10.0237 7.5885C9.7037 7.9285 9.5437 8.0385 9.0137 8.0385H7.2837C5.8337 8.0385 5.1137 8.7485 5.1137 10.1985V17.4185C5.1137 18.8385 5.8337 19.5485 7.2837 19.5485ZM13.4137 17.8385C11.1337 17.8385 9.2937 16.0185 9.2937 13.7285C9.2937 11.4585 11.1337 9.6385 13.4137 9.6385C15.6637 9.6385 17.4837 11.4585 17.4837 13.7285C17.4837 16.0685 15.6637 17.8385 13.4137 17.8385ZM19.1137 11.5685C18.6037 11.5685 18.1937 11.1385 18.1937 10.6385C18.1937 10.1285 18.6037 9.7185 19.1137 9.7185C19.6337 9.7185 20.0437 10.1285 20.0437 10.6385C20.0437 11.1385 19.6337 11.5685 19.1137 11.5685ZM13.3937 16.6485C14.9937 16.6485 16.3137 15.3685 16.3137 13.7285C16.3137 12.1085 14.9937 10.8185 13.3937 10.8185C11.7837 10.8185 10.4737 12.1085 10.4737 13.7285C10.4737 15.3685 11.7837 16.6485 13.3937 16.6485ZM4.2937 26.7585H7.6337C8.3537 26.7585 8.7537 26.3585 8.7537 25.6585C8.7537 24.9485 8.3537 24.5585 7.6337 24.5585H4.3237C2.9537 24.5585 2.2037 23.8285 2.2037 22.4085V19.1785C2.2037 18.4585 1.8037 18.0585 1.0937 18.0585C0.3837 18.0585 0.0037 18.4585 0.0037 19.1785V22.5185C0.0037 25.3485 1.4337 26.7585 4.2937 26.7585ZM19.1237 26.7585H22.4737C25.3337 26.7585 26.7737 25.3385 26.7737 22.5185V19.1785C26.7737 18.4585 26.3737 18.0585 25.6637 18.0585C24.9537 18.0585 24.5637 18.4585 24.5637 19.1785V22.4085C24.5637 23.8285 23.7937 24.5585 22.4337 24.5585H19.1237C18.4137 24.5585 18.0237 24.9485 18.0237 25.6585C18.0237 26.3585 18.4137 26.7585 19.1237 26.7585Z"
        fillRule="evenodd"
        clipRule="evenodd"
    />
</svg>
        