
<svg
    viewBox={0 0 27.890625 27.890625}
    xmlns="http://www.w3.org/2000/svg"
>
    <path
        fill="inherit"
        d="M13.9427 27.8864C21.6427 27.8864 27.8927 21.6264 27.8927 13.9464C27.8927 6.2464 21.6427 -0.0036 13.9427 -0.0036C6.2627 -0.0036 0.0027 6.2464 0.0027 13.9464C0.0027 21.6264 6.2627 27.8864 13.9427 27.8864ZM20.3327 21.2164L6.6827 7.5764C6.4427 7.3464 6.4427 6.9164 6.6827 6.6764C6.9427 6.4264 7.3427 6.4264 7.6027 6.6764L21.2327 20.3164C21.4827 20.5664 21.4827 20.9464 21.2327 21.2164C20.9827 21.4464 20.5627 21.4464 20.3327 21.2164ZM18.7627 9.8664C18.7627 11.6864 17.8927 13.2664 16.4227 14.0864L9.7527 7.4264C9.7627 7.3564 9.7927 7.2964 9.8127 7.2464C9.9427 7.0664 10.2927 7.0664 10.5127 7.3164L12.1227 8.9664L13.5227 7.1664C13.7527 6.8464 14.1327 6.8664 14.3727 7.1664L15.7527 8.9664L17.3527 7.3164C17.6327 7.0164 18.0927 7.0664 18.2427 7.4264C18.6027 8.2564 18.7627 9.0664 18.7627 9.8664ZM14.5427 20.7364C14.9527 19.9064 15.5127 19.1364 16.2027 18.4964L18.9227 21.2164C17.4727 22.1464 15.7527 22.6864 13.9327 22.6864C13.6027 22.6864 13.3327 22.4464 13.3327 22.1064V15.6364L14.5427 16.8564ZM5.5627 17.0864C5.4027 16.6364 5.5627 16.3264 6.0727 16.3264C8.8827 16.3264 11.1127 17.6064 12.4727 19.4364V22.1064C12.4727 22.2564 12.4927 22.4264 12.5627 22.5464C9.3427 22.1064 6.5527 19.9764 5.5627 17.0864ZM22.3027 17.0864C22.0527 17.7764 21.7227 18.4164 21.3127 18.9764L19.0827 16.7664C19.9227 16.4864 20.8127 16.3364 21.7927 16.3364C22.2827 16.3364 22.4627 16.6564 22.3027 17.0864Z"
        fillRule="evenodd"
        clipRule="evenodd"
    />
</svg>
        