
<svg
    viewBox={0 0 16.474609375 27.275390625}
    xmlns="http://www.w3.org/2000/svg"
>
    <path
        fill="inherit"
        d="M3.7237 27.272H12.7537C14.9837 27.272 16.4737 25.852 16.4737 23.722V3.552C16.4737 1.422 14.9837 0.002 12.7537 0.002H3.7237C1.4937 0.002 0.0037 1.422 0.0037 3.552V23.722C0.0037 25.852 1.4937 27.272 3.7237 27.272ZM4.0037 25.072C2.8437 25.072 2.2037 24.462 2.2037 23.362V3.912C2.2037 2.812 2.8437 2.202 4.0037 2.202H12.4737C13.6137 2.202 14.2737 2.812 14.2737 3.912V23.362C14.2737 24.462 13.6137 25.072 12.4737 25.072ZM4.6737 12.432H11.8037C12.5137 12.432 12.9337 12.042 12.9337 11.392V4.652C12.9337 3.992 12.5137 3.612 11.8037 3.612H4.6737C3.9637 3.612 3.5437 3.992 3.5437 4.652V11.392C3.5437 12.042 3.9637 12.432 4.6737 12.432ZM4.4337 16.432H5.6837C5.9837 16.432 6.2237 16.232 6.2237 15.942V14.642C6.2237 14.372 5.9837 14.162 5.6837 14.162H4.4337C4.1437 14.162 3.9337 14.372 3.9337 14.642V15.942C3.9337 16.232 4.1437 16.432 4.4337 16.432ZM7.5637 16.432H8.8137C9.1237 16.432 9.3337 16.232 9.3337 15.942V14.642C9.3337 14.372 9.1237 14.162 8.8137 14.162H7.5637C7.2737 14.162 7.0637 14.372 7.0637 14.642V15.942C7.0637 16.232 7.2737 16.432 7.5637 16.432ZM10.6937 16.432H11.9537C12.2637 16.432 12.4837 16.232 12.4837 15.942V14.642C12.4837 14.372 12.2637 14.162 11.9537 14.162H10.6937C10.4037 14.162 10.2037 14.372 10.2037 14.642V15.942C10.2037 16.232 10.4037 16.432 10.6937 16.432ZM4.4337 19.792H5.6837C5.9837 19.792 6.2237 19.592 6.2237 19.322V18.022C6.2237 17.732 5.9837 17.532 5.6837 17.532H4.4337C4.1437 17.532 3.9337 17.732 3.9337 18.022V19.322C3.9337 19.592 4.1437 19.792 4.4337 19.792ZM7.5637 19.792H8.8137C9.1237 19.792 9.3337 19.592 9.3337 19.322V18.022C9.3337 17.732 9.1237 17.532 8.8137 17.532H7.5637C7.2737 17.532 7.0637 17.732 7.0637 18.022V19.322C7.0637 19.592 7.2737 19.792 7.5637 19.792ZM10.6937 19.792H11.9537C12.2637 19.792 12.4837 19.592 12.4837 19.322V18.022C12.4837 17.732 12.2637 17.532 11.9537 17.532H10.6937C10.4037 17.532 10.2037 17.732 10.2037 18.022V19.322C10.2037 19.592 10.4037 19.792 10.6937 19.792ZM4.4337 23.172H5.6837C5.9837 23.172 6.2237 22.972 6.2237 22.682V21.382C6.2237 21.092 5.9837 20.892 5.6837 20.892H4.4337C4.1437 20.892 3.9337 21.092 3.9337 21.382V22.682C3.9337 22.972 4.1437 23.172 4.4337 23.172ZM7.5637 23.172H8.8137C9.1237 23.172 9.3337 22.972 9.3337 22.682V21.382C9.3337 21.092 9.1237 20.892 8.8137 20.892H7.5637C7.2737 20.892 7.0637 21.092 7.0637 21.382V22.682C7.0637 22.972 7.2737 23.172 7.5637 23.172ZM10.6937 23.172H11.9537C12.2637 23.172 12.4837 22.972 12.4837 22.682V21.382C12.4837 21.092 12.2637 20.892 11.9537 20.892H10.6937C10.4037 20.892 10.2037 21.092 10.2037 21.382V22.682C10.2037 22.972 10.4037 23.172 10.6937 23.172Z"
        fillRule="evenodd"
        clipRule="evenodd"
    />
</svg>
        