
<svg
    viewBox={0 0 35.3828125 27.80859375}
    xmlns="http://www.w3.org/2000/svg"
>
    <path
        fill="inherit"
        d="M0.0037 10.7491C0.0037 15.8991 2.8337 19.6491 7.3537 20.9591C8.7937 25.2091 12.6837 27.8091 17.9537 27.8091H24.1837C30.8937 27.8091 35.3837 23.5691 35.3837 17.0791C35.3837 11.9191 32.5437 8.1591 28.0037 6.8491C26.5737 2.6291 22.6837 -0.0009 17.4337 -0.0009H11.1937C4.4737 -0.0009 0.0037 4.2691 0.0037 10.7491ZM6.7537 17.0791C6.7537 17.5291 6.7637 17.9691 6.8237 18.3891C3.9337 17.0491 2.2037 14.3191 2.2037 10.7491C2.2037 5.6191 5.7937 2.1991 11.1937 2.1991H17.4337C21.0837 2.1991 23.9237 3.7691 25.3737 6.3891C24.9737 6.3391 24.5837 6.3291 24.1837 6.3291H17.9537C11.2237 6.3291 6.7537 10.5991 6.7537 17.0791ZM8.9537 17.0791C8.9537 11.9491 12.5537 8.5291 17.9537 8.5291H24.1837C29.5837 8.5291 33.1837 11.9491 33.1837 17.0791C33.1837 22.2191 29.5837 25.6091 24.1837 25.6091H17.9537C12.5537 25.6091 8.9537 22.2191 8.9537 17.0791Z"
        fillRule="evenodd"
        clipRule="evenodd"
    />
</svg>
        