
<svg
    viewBox={0 0 34.671875 27.740234375}
    xmlns="http://www.w3.org/2000/svg"
>
    <path
        fill="inherit"
        d="M4.2937 21.3707H6.8237C8.3837 25.3307 12.1837 27.7407 17.2437 27.7407H23.4737C30.1837 27.7407 34.6737 23.5007 34.6737 17.0107C34.6737 11.8407 31.8137 8.0807 27.2637 6.7707V4.2407C27.2637 1.4207 25.8237 0.0007 22.9737 0.0007H4.2937C1.4237 0.0007 0.0037 1.4207 0.0037 4.2407V17.1307C0.0037 19.9607 1.4237 21.3707 4.2937 21.3707ZM4.3237 19.1707C2.9837 19.1707 2.2037 18.4407 2.2037 17.0207V4.3607C2.2037 2.9407 2.9537 2.2007 4.3237 2.2007H22.9237C24.2837 2.2007 25.0637 2.9407 25.0637 4.3607V6.3407C24.5437 6.2907 24.0237 6.2607 23.4737 6.2607H17.2437C10.5137 6.2607 6.0437 10.5307 6.0437 17.0107C6.0437 17.7607 6.0937 18.4807 6.2237 19.1707ZM17.2437 25.5407C11.8237 25.5407 8.2437 22.1507 8.2437 17.0107C8.2437 11.8807 11.8237 8.4607 17.2437 8.4607H23.4737C28.8737 8.4607 32.4737 11.8807 32.4737 17.0107C32.4737 22.1507 28.8737 25.5407 23.4737 25.5407Z"
        fillRule="evenodd"
        clipRule="evenodd"
    />
</svg>
        