
<svg
    viewBox={0 0 28.73828125 28.615234375}
    xmlns="http://www.w3.org/2000/svg"
>
    <path
        fill="inherit"
        d="M10.1409 19.8405H18.5909C20.5109 19.8405 21.5209 18.7205 21.5209 16.9105V14.5705H26.7009C27.8409 14.5705 28.7409 13.9005 28.7409 12.8505C28.7409 12.2105 28.4109 11.7005 27.7909 11.1705L16.0609 0.8205C15.4909 0.3305 14.9809 0.0005 14.3709 0.0005C13.7509 0.0005 13.2509 0.3305 12.6709 0.8205L0.9409 11.1805C0.3009 11.7405 0.0009 12.2105 0.0009 12.8505C0.0009 13.9005 0.9009 14.5705 2.0409 14.5705H7.2209V16.9105C7.2209 18.7205 8.2309 19.8405 10.1409 19.8405ZM10.3609 17.7705C9.8609 17.7705 9.5009 17.4305 9.5009 16.9105V12.9705C9.5009 12.6505 9.3809 12.5105 9.0409 12.5105H3.0909C2.9909 12.5105 2.9409 12.4705 2.9409 12.4005C2.9409 12.3505 2.9709 12.2905 3.0209 12.2405L14.0809 2.6405C14.1909 2.5305 14.2709 2.4905 14.3709 2.4905C14.4609 2.4905 14.5509 2.5305 14.6609 2.6405L25.7209 12.2405C25.7709 12.2905 25.8009 12.3505 25.8009 12.4005C25.8009 12.4705 25.7409 12.5105 25.6509 12.5105H19.7009C19.3709 12.5105 19.2409 12.6505 19.2409 12.9705V16.9105C19.2409 17.4205 18.8709 17.7705 18.3709 17.7705ZM9.5609 28.6105H19.0609C20.6409 28.6105 21.5509 27.7405 21.5509 26.1505V24.2005C21.5509 22.6005 20.6409 21.7005 19.0609 21.7005H9.5609C7.9809 21.7005 7.0809 22.6105 7.0809 24.2005V26.1505C7.0809 27.7305 7.9809 28.6105 9.5609 28.6105ZM9.8709 26.6905C9.3909 26.6905 9.1509 26.4405 9.1509 25.9605V24.3905C9.1509 23.9105 9.3909 23.6205 9.8709 23.6205H18.7409C19.2209 23.6205 19.4809 23.9105 19.4809 24.3905V25.9605C19.4809 26.4405 19.2209 26.6905 18.7409 26.6905Z"
        fillRule="evenodd"
        clipRule="evenodd"
    />
</svg>
        