
<svg
    viewBox="0 0 28.73828125 28.615234375"
    xmlns="http://www.w3.org/2000/svg"
>
    <path
        fill="inherit"
        d="M9.5309 19.9205H19.2109C20.7809 19.9205 21.5209 19.1805 21.5209 17.6105V14.5705H26.7009C27.8409 14.5705 28.7409 13.9005 28.7409 12.8505C28.7409 12.2105 28.4109 11.7005 27.7909 11.1705L16.0609 0.8205C15.4909 0.3305 14.9809 0.0005 14.3709 0.0005C13.7509 0.0005 13.2509 0.3305 12.6709 0.8205L0.9409 11.1805C0.3009 11.7405 0.0009 12.2105 0.0009 12.8505C0.0009 13.9005 0.9009 14.5705 2.0409 14.5705H7.2209V17.6105C7.2209 19.1805 7.9609 19.9205 9.5309 19.9205ZM9.3909 28.6105H19.3409C20.7109 28.6105 21.5209 27.8105 21.5209 26.4505V24.3505C21.5209 23.0005 20.7109 22.1905 19.3409 22.1905H9.3909C8.0209 22.1905 7.2209 23.0005 7.2209 24.3505V26.4505C7.2209 27.8105 8.0209 28.6105 9.3909 28.6105Z"
        fillRule="evenodd"
        clipRule="evenodd"
    />
</svg>
        