
<svg
    viewBox="0 0 34.671875 27.740234375"
    xmlns="http://www.w3.org/2000/svg"
>
    <path
        fill="inherit"
        d="M0.0037 17.1307C0.0037 19.9607 1.4237 21.3707 4.2937 21.3707H4.8437C4.4037 20.0307 4.1737 18.5807 4.1737 17.0107C4.1737 9.4707 9.5137 4.4007 17.2437 4.4007H23.4737C24.8037 4.4007 26.0737 4.5407 27.2637 4.8407V4.2407C27.2637 1.4207 25.8237 0.0007 22.9737 0.0007H4.2937C1.4237 0.0007 0.0037 1.4207 0.0037 4.2407ZM17.2437 27.7407H23.4737C30.1837 27.7407 34.6737 23.5007 34.6737 17.0107C34.6737 10.5307 30.1837 6.2607 23.4737 6.2607H17.2437C10.5137 6.2607 6.0437 10.5307 6.0437 17.0107C6.0437 23.5007 10.5137 27.7407 17.2437 27.7407Z"
        fillRule="evenodd"
        clipRule="evenodd"
    />
</svg>
        