
<svg
    viewBox="0 0 30.1328125 28.287109375"
    xmlns="http://www.w3.org/2000/svg"
>
    <path
        fill="inherit"
        d="M8.4037 28.2828C9.0737 28.2828 9.5437 27.9328 10.3737 27.1928L15.0937 22.9928H23.8737C27.9437 22.9928 30.1337 20.7428 30.1337 16.7328V6.2628C30.1337 2.2528 27.9437 0.0028 23.8737 0.0028H6.2637C2.1837 0.0028 0.0037 2.2428 0.0037 6.2628V16.7328C0.0037 20.7528 2.1837 22.9928 6.2637 22.9928H6.9137V26.5528C6.9137 27.6028 7.4537 28.2828 8.4037 28.2828ZM8.9737 25.7828V21.8228C8.9737 21.0828 8.6837 20.7928 7.9437 20.7928H6.2637C3.5037 20.7928 2.2037 19.3828 2.2037 16.7228V6.2628C2.2037 3.5928 3.5037 2.2028 6.2637 2.2028H23.8737C26.6237 2.2028 27.9337 3.5928 27.9337 6.2628V16.7228C27.9337 19.3828 26.6237 20.7928 23.8737 20.7928H15.0137C14.2437 20.7928 13.8637 20.9028 13.3437 21.4328ZM6.4237 13.0828H12.0537C12.4937 13.0828 12.8537 12.7328 12.8537 12.2728C12.8537 11.8528 12.4937 11.5028 12.0537 11.5028H6.4237C5.9837 11.5028 5.6337 11.8528 5.6337 12.2728C5.6337 12.7328 5.9837 13.0828 6.4237 13.0828ZM14.8937 13.0828H23.7337C24.1737 13.0828 24.5137 12.7328 24.5137 12.2728C24.5137 11.8528 24.1737 11.5028 23.7337 11.5028H14.8937C14.4537 11.5028 14.0937 11.8528 14.0937 12.2728C14.0937 12.7328 14.4537 13.0828 14.8937 13.0828ZM6.4237 16.6528H8.7537C9.1837 16.6528 9.5337 16.3128 9.5337 15.8728C9.5337 15.4228 9.1837 15.0628 8.7537 15.0628H6.4237C5.9837 15.0628 5.6337 15.4228 5.6337 15.8728C5.6337 16.3128 5.9837 16.6528 6.4237 16.6528ZM11.5637 16.6528H18.4137C18.8537 16.6528 19.2137 16.3128 19.2137 15.8728C19.2137 15.4228 18.8537 15.0628 18.4137 15.0628H11.5637C11.1337 15.0628 10.7837 15.4228 10.7837 15.8728C10.7837 16.3128 11.1337 16.6528 11.5637 16.6528ZM21.2437 16.6528H23.7337C24.1737 16.6528 24.5137 16.3128 24.5137 15.8728C24.5137 15.4228 24.1737 15.0628 23.7337 15.0628H21.2437C20.8037 15.0628 20.4537 15.4228 20.4537 15.8728C20.4537 16.3128 20.8037 16.6528 21.2437 16.6528Z"
        fillRule="evenodd"
        clipRule="evenodd"
    />
</svg>
        