
<svg
    viewBox={0 0 30.1328125 28.369140625}
    xmlns="http://www.w3.org/2000/svg"
>
    <path
        fill="inherit"
        d="M8.1237 28.3728C8.6537 28.3728 9.0537 28.0928 9.6937 27.4928L14.6337 22.9828H23.8737C27.9437 22.9828 30.1337 20.7428 30.1337 16.7328V6.2628C30.1337 2.2528 27.9437 0.0028 23.8737 0.0028H6.2637C2.1837 0.0028 0.0037 2.2428 0.0037 6.2628V16.7328C0.0037 20.7528 2.1837 22.9828 6.2637 22.9828H6.9037V26.9628C6.9037 27.8128 7.3437 28.3728 8.1237 28.3728ZM6.1637 13.0428C5.7137 13.0428 5.3437 12.6728 5.3437 12.2128C5.3437 11.7728 5.7137 11.4028 6.1637 11.4028H11.9637C12.4137 11.4028 12.7837 11.7728 12.7837 12.2128C12.7837 12.6728 12.4137 13.0428 11.9637 13.0428ZM14.8737 13.0428C14.4237 13.0428 14.0537 12.6728 14.0537 12.2128C14.0537 11.7728 14.4237 11.4028 14.8737 11.4028H23.9937C24.4437 11.4028 24.8037 11.7728 24.8037 12.2128C24.8037 12.6728 24.4437 13.0428 23.9937 13.0428ZM6.1637 16.7228C5.7137 16.7228 5.3437 16.3628 5.3437 15.9128C5.3437 15.4528 5.7137 15.0828 6.1637 15.0828H8.5537C9.0137 15.0828 9.3637 15.4528 9.3637 15.9128C9.3637 16.3628 9.0137 16.7228 8.5537 16.7228ZM11.4537 16.7228C11.0037 16.7228 10.6537 16.3628 10.6537 15.9128C10.6537 15.4528 11.0037 15.0828 11.4537 15.0828H18.5237C18.9737 15.0828 19.3437 15.4528 19.3437 15.9128C19.3437 16.3628 18.9737 16.7228 18.5237 16.7228ZM21.4337 16.7228C20.9837 16.7228 20.6137 16.3628 20.6137 15.9128C20.6137 15.4528 20.9837 15.0828 21.4337 15.0828H23.9937C24.4437 15.0828 24.8037 15.4528 24.8037 15.9128C24.8037 16.3628 24.4437 16.7228 23.9937 16.7228Z"
        fillRule="evenodd"
        clipRule="evenodd"
    />
</svg>
        