
<svg
    viewBox="0 0 29.586253976022245 27.69921875"
    xmlns="http://www.w3.org/2000/svg"
>
    <path
        fill="inherit"
        d="M16.7303 24.818C20.9003 22.408 22.2303 20.368 20.8403 17.968L15.3403 8.418L15.8003 8.158C16.3203 7.858 16.5203 7.188 16.2103 6.688L15.9703 6.278C15.6703 5.758 15.0303 5.588 14.4903 5.908L14.0303 6.168L12.6603 3.798C11.2203 1.308 8.0903 1.188 4.3303 3.348C4.2403 3.408 4.1603 3.448 4.0703 3.498V0.808C4.0703 0.338 3.7303 -0.002 3.2703 -0.002H2.5403C2.0803 -0.002 1.7403 0.338 1.7403 0.808V5.278C-0.0297 7.038 -0.4897 8.998 0.5503 10.798L1.9103 13.168L1.4503 13.428C0.9003 13.738 0.7503 14.378 1.0403 14.898L1.2703 15.328C1.5603 15.828 2.2103 16.008 2.7503 15.698L3.2103 15.418L8.7103 24.968C10.1203 27.368 12.5503 27.218 16.7303 24.818ZM28.7803 7.408C29.2403 7.408 29.5903 7.068 29.5903 6.608V0.808C29.5903 0.338 29.2403 -0.002 28.7803 -0.002H28.0503C27.5903 -0.002 27.2503 0.338 27.2503 0.808V6.608C27.2503 7.068 27.5903 7.408 28.0503 7.408ZM15.7503 23.148C12.6303 24.948 11.1003 25.168 10.3903 23.928L2.2403 9.828C1.4103 8.378 2.4603 6.688 5.3203 5.028C8.1503 3.408 10.1303 3.348 10.9603 4.788L19.1103 18.878C19.8203 20.138 18.8803 21.338 15.7503 23.148ZM9.5403 12.368C10.3203 11.918 11.5703 11.318 11.9803 11.058C12.6503 10.688 12.7703 10.238 12.4403 9.528L11.7003 7.928C11.0703 6.608 9.9703 6.608 7.1503 8.228C4.3103 9.868 3.7703 10.828 4.5903 12.018L5.6103 13.468C6.0703 14.138 6.5403 14.218 7.1903 13.848C7.5903 13.608 8.8003 12.808 9.5403 12.368ZM28.7803 17.538C29.2403 17.538 29.5903 17.198 29.5903 16.738V10.948C29.5903 10.498 29.2403 10.158 28.7803 10.158H28.0503C27.5903 10.158 27.2503 10.498 27.2503 10.948V16.738C27.2503 17.198 27.5903 17.538 28.0503 17.538ZM14.6203 21.168C17.4203 19.538 18.0703 18.608 17.1303 17.418L16.6003 16.748C15.8503 15.788 14.8303 15.938 12.4103 17.348C9.9703 18.748 9.3403 19.538 9.7903 20.668L10.1003 21.478C10.6503 22.888 11.8003 22.788 14.6203 21.168ZM3.2703 27.688C3.7303 27.688 4.0703 27.348 4.0703 26.888V21.098C4.0703 20.628 3.7303 20.288 3.2703 20.288H2.5403C2.0803 20.288 1.7403 20.628 1.7403 21.098V26.888C1.7403 27.348 2.0803 27.688 2.5403 27.688ZM28.7803 27.698C29.2403 27.698 29.5903 27.358 29.5903 26.888V21.098C29.5903 20.628 29.2403 20.288 28.7803 20.288H28.0503C27.5903 20.288 27.2503 20.628 27.2503 21.098V26.888C27.2503 27.358 27.5903 27.698 28.0503 27.698Z"
        fillRule="evenodd"
        clipRule="evenodd"
    />
</svg>
        