
<svg
    viewBox={0 0 48.712890625 31.03515625}
    xmlns="http://www.w3.org/2000/svg"
>
    <path
        fill="inherit"
        d="M23.5037 13.8624H29.6937C30.8437 13.8624 31.4437 13.2524 31.4437 12.0024V7.2424C31.4437 6.1024 30.9437 5.4924 29.9437 5.4024V3.7724C29.9437 2.3624 30.7937 1.4724 32.1137 1.4724C33.4537 1.4724 34.2937 2.3624 34.2937 3.7724V5.3024C34.2937 5.7124 34.6337 6.0424 35.0437 6.0424C35.4537 6.0424 35.7837 5.7124 35.7837 5.3024V4.0024C35.7837 1.5424 34.3537 0.0024 32.1137 0.0024C29.8837 0.0024 28.4537 1.5424 28.4537 4.0024V5.4024H23.5037C22.3437 5.4024 21.7337 6.0124 21.7337 7.2424V12.0024C21.7337 13.2524 22.3437 13.8624 23.5037 13.8624ZM44.8837 14.8624L42.7137 14.1324C40.3637 12.1224 37.2837 9.8724 33.2537 9.2324V12.0024C33.2537 14.2724 31.8237 15.7224 29.6237 15.7224H23.4337C21.2337 15.7224 19.8137 14.2724 19.8137 12.0024V10.5124C19.0837 10.8424 18.4037 11.2224 17.6637 11.7024L12.1237 15.1724L6.0737 15.9124C2.2837 16.3824 0.0037 18.7324 0.0037 21.9524V23.7024C0.0037 26.8224 1.3837 28.2224 4.3437 28.2224H5.2137C5.1237 27.7924 5.0737 27.3724 5.0737 26.9324C5.0737 23.7524 7.5737 21.2424 10.7737 21.2424C13.9737 21.2424 16.4737 23.7524 16.4737 26.9324C16.4737 27.3724 16.4237 27.7924 16.3237 28.2224H32.3637C32.2837 27.7924 32.2237 27.3724 32.2237 26.9324C32.2237 23.7524 34.7437 21.2424 37.9237 21.2424C41.1237 21.2424 43.6437 23.7524 43.6437 26.9324C43.6437 27.3724 43.5837 27.7924 43.4937 28.2224H44.3637C47.3637 28.2224 48.7137 26.7924 48.7137 23.6224V19.8424C48.7137 17.2924 47.4837 15.7124 44.8837 14.8624ZM10.7737 31.0324C13.0837 31.0324 14.8937 29.2324 14.8937 26.9324C14.8937 24.6324 13.0837 22.8324 10.7737 22.8324C8.4737 22.8324 6.6737 24.6324 6.6737 26.9324C6.6737 29.2324 8.4737 31.0324 10.7737 31.0324ZM37.9237 31.0324C40.2337 31.0324 42.0437 29.2324 42.0437 26.9324C42.0437 24.6324 40.2337 22.8324 37.9237 22.8324C35.6337 22.8324 33.8237 24.6324 33.8237 26.9324C33.8237 29.2324 35.6337 31.0324 37.9237 31.0324Z"
        fillRule="evenodd"
        clipRule="evenodd"
    />
</svg>
        