<svg viewBox="0 0 30.419921875 34.86328125" xmlns="http://www.w3.org/2000/svg"><path d="M15.2137 7.7529C15.7537 7.7529 16.0537 7.4529 16.0637 6.8729L16.2237 1.0029C16.2437 0.4229 15.7937 0.0029 15.2037 0.0029C14.6037 0.0029 14.1737 0.4129 14.1937 0.9829L14.3237 6.8729C14.3437 7.4329 14.6537 7.7529 15.2137 7.7529ZM0.0037 20.8129V22.4229H2.8837C3.4137 23.7229 4.6937 24.6129 6.1937 24.6129C7.6937 24.6129 8.9537 23.7229 9.4837 22.4229H10.3937C12.6037 22.4229 13.5937 21.3829 13.5937 19.0429V16.2729C13.5937 14.3929 12.6837 13.2029 10.7737 12.6029L9.1737 12.0829C7.0937 10.2829 4.3637 8.3229 0.7637 8.3229H0.0037V9.9529H0.7637C3.3037 9.9529 5.3637 10.9629 7.9037 13.1929C8.3637 13.6029 8.6237 13.7129 9.2137 13.8929L10.2937 14.2429C11.4437 14.6129 11.9737 15.2129 11.9737 16.2729V19.0429C11.9737 20.2629 11.4737 20.8129 10.3937 20.8129H9.7437C9.6537 18.9129 8.1237 17.4629 6.1937 17.4629C4.2537 17.4629 2.7237 18.9129 2.6137 20.8129ZM15.2137 11.3729C15.8637 11.3729 16.4037 10.8729 16.4037 10.2129C16.4037 9.5729 15.8637 9.0629 15.2137 9.0629C14.5637 9.0629 14.0137 9.5829 14.0137 10.2129C14.0137 10.8529 14.5737 11.3729 15.2137 11.3729ZM23.3937 24.6129C24.8937 24.6129 26.1637 23.7229 26.7037 22.4229H30.4237V20.8129H26.9637C26.8537 18.9129 25.3237 17.4629 23.3937 17.4629C21.4537 17.4629 19.9337 18.9129 19.8237 20.8129H19.1937C18.1037 20.8129 17.6137 20.2629 17.6137 19.0429V17.8329C17.6137 16.3329 18.7137 15.2129 20.6537 14.9729L24.6737 14.4929C25.2937 14.4129 25.6937 14.2729 26.1137 14.0129L29.8437 11.6629C30.0337 11.5429 30.2237 11.4329 30.4237 11.3329V9.4629C29.9537 9.6929 29.4737 9.9529 28.9837 10.2829L24.9137 12.8329L20.4537 13.3829C17.6737 13.7229 15.9937 15.4529 15.9937 17.8329V19.1129C15.9937 21.3929 17.0037 22.4229 19.1937 22.4229H20.0937C20.6137 23.7229 21.8737 24.6129 23.3937 24.6129ZM23.3937 23.0929C22.2437 23.0929 21.3237 22.1929 21.3237 21.0229C21.3237 19.8829 22.2437 18.9729 23.3937 18.9729C24.5437 18.9729 25.4537 19.8829 25.4537 21.0229C25.4537 22.1929 24.5437 23.0929 23.3937 23.0929ZM6.1937 23.0929C5.0437 23.0929 4.1337 22.1929 4.1337 21.0229C4.1337 19.8829 5.0437 18.9729 6.1937 18.9729C7.3237 18.9729 8.2437 19.8829 8.2437 21.0229C8.2437 22.1929 7.3237 23.0929 6.1937 23.0929ZM9.1237 34.8629C11.4337 34.8629 12.5637 33.1729 12.5637 30.9229C12.5637 28.6329 11.4037 26.9429 9.1237 26.9429C6.8937 26.9429 5.6737 28.5929 5.6737 30.9229C5.6737 33.1229 6.7937 34.8629 9.1237 34.8629ZM14.6837 34.7829C15.3037 34.7829 15.5437 34.3729 15.5437 33.8929V31.7729H17.7237C18.1737 31.7729 18.4737 31.5229 18.4737 31.0929C18.4737 30.6529 18.1837 30.3929 17.7237 30.3929H15.5437V28.5929H17.9537C18.4537 28.5929 18.7337 28.3329 18.7337 27.8629C18.7337 27.4029 18.4537 27.1429 17.9537 27.1429H14.6737C14.1637 27.1429 13.8037 27.4629 13.8037 28.0429V33.8929C13.8037 34.3729 14.0637 34.7829 14.6837 34.7829ZM20.6837 34.7829C21.3137 34.7829 21.5637 34.3729 21.5637 33.8929V31.7729H23.7337C24.1837 31.7729 24.4737 31.5229 24.4737 31.0929C24.4737 30.6529 24.2037 30.3929 23.7337 30.3929H21.5637V28.5929H23.9637C24.4637 28.5929 24.7337 28.3329 24.7337 27.8629C24.7337 27.4029 24.4637 27.1429 23.9637 27.1429H20.6737C20.1637 27.1429 19.8137 27.4629 19.8137 28.0429V33.8929C19.8137 34.3729 20.0737 34.7829 20.6837 34.7829ZM9.1237 33.4129C7.8937 33.4129 7.4537 32.1129 7.4537 30.9229C7.4537 29.6229 7.9337 28.4129 9.1237 28.4129C10.3937 28.4129 10.8037 29.7229 10.8037 30.9229C10.8037 32.2229 10.3037 33.4129 9.1237 33.4129Z" /></svg>