
<svg
    viewBox={0 0 45.349609375 28.998046875}
    xmlns="http://www.w3.org/2000/svg"
>
    <path
        fill="inherit"
        d="M20.44 6.167H34.97C36.07 6.167 36.67 5.457 36.67 4.347V2.997C36.67 1.007 35.66 -0.003 33.35 -0.003H30.72C28.27 -0.003 26.3 0.647 23.15 1.937L20.07 3.237C19.21 3.597 18.92 4.197 18.92 4.787C18.92 5.677 19.39 6.167 20.44 6.167ZM4.05 26.247H5.18C5.87 27.877 7.45 28.997 9.37 28.997C11.28 28.997 12.87 27.877 13.55 26.247H31.8C32.48 27.877 34.07 28.997 35.98 28.997C37.9 28.997 39.48 27.877 40.17 26.247H41.3C44.09 26.247 45.35 24.927 45.35 21.967V18.447C45.35 16.077 44.2 14.597 41.79 13.807L39.77 13.137C37.2 10.907 33.66 8.397 28.88 8.397H26.95C21.75 8.397 19.56 8.917 16.45 10.867L11.29 14.097L5.65 14.797C2.12 15.227 0 17.407 0 20.427V22.037C0 24.947 1.29 26.247 4.05 26.247ZM35.98 19.947C33.54 19.947 31.61 21.797 31.47 24.197H13.88C13.74 21.797 11.81 19.947 9.37 19.947C6.92 19.947 4.99 21.797 4.85 24.197H4.05C2.67 24.197 2.05 23.497 2.05 21.967V20.427C2.05 18.527 3.45 17.107 5.91 16.817L10.99 16.187C11.77 16.087 12.28 15.917 12.81 15.587L17.54 12.617C20.34 10.867 22.13 10.447 26.95 10.447H28.88C32.21 10.447 34.86 11.677 38.14 14.557C38.75 15.067 39.07 15.207 39.83 15.447L41.17 15.887C42.63 16.347 43.3 17.107 43.3 18.447V21.967C43.3 23.497 42.67 24.197 41.3 24.197H40.5C40.36 21.797 38.43 19.947 35.98 19.947ZM9.37 27.087C7.9 27.087 6.75 25.937 6.75 24.477C6.75 23.027 7.9 21.877 9.37 21.877C10.81 21.877 11.96 23.027 11.96 24.477C11.96 25.937 10.81 27.087 9.37 27.087ZM35.98 27.087C34.54 27.087 33.39 25.937 33.39 24.477C33.39 23.027 34.54 21.877 35.98 21.877C37.43 21.877 38.58 23.027 38.58 24.477C38.58 25.937 37.43 27.087 35.98 27.087Z"
        fillRule="evenodd"
        clipRule="evenodd"
    />
</svg>
        