
<svg
    viewBox="0 0 31.69140625 36.1484375"
    xmlns="http://www.w3.org/2000/svg"
>
    <path
        fill="inherit"
        d="M7.2737 20.8616C11.3637 20.8616 13.1837 19.9316 13.1837 17.5816V8.3716H13.6137C14.1537 8.3716 14.5737 7.9616 14.5737 7.4516V7.0516C14.5737 6.5316 14.1537 6.1216 13.6137 6.1216H13.1837V3.8516C13.1837 1.4216 10.9537 0.0016 7.2737 0.0016C3.6137 0.0016 1.3837 1.4216 1.3837 3.8516V6.1216H0.9437C0.4137 6.1216 0.0037 6.5316 0.0037 7.0516V7.4516C0.0037 7.9616 0.4137 8.3716 0.9437 8.3716H1.3837V17.5816C1.3837 19.9316 3.2037 20.8616 7.2737 20.8616ZM7.2737 8.7216C6.4937 8.7216 5.3137 8.8016 4.8937 8.8016C4.2337 8.8016 3.9337 8.5216 3.8737 7.8216L3.7337 6.3016C3.6137 5.0316 4.4437 4.5416 7.2737 4.5416C10.1037 4.5416 10.9537 5.0316 10.8237 6.3016L10.7037 7.8216C10.6537 8.5216 10.3537 8.8016 9.6837 8.8016C9.2537 8.8016 8.0137 8.7216 7.2737 8.7216ZM7.2737 17.4816C4.4537 17.4816 3.5437 17.0716 3.7637 15.7616L3.8737 15.0116C4.0437 13.9616 4.8537 13.6316 7.2737 13.6316C9.7037 13.6316 10.5437 13.9616 10.6937 15.0116L10.8037 15.7616C10.9937 17.0716 10.1037 17.4816 7.2737 17.4816ZM15.4237 22.1616C16.3537 21.2316 16.9137 20.0816 17.0537 18.8016C17.1137 18.2116 16.7337 17.8316 16.2737 17.8416C15.7337 17.8416 15.4937 18.1016 15.3937 18.6916C15.2737 19.5916 14.9137 20.3616 14.2737 21.0316C13.6137 21.6716 12.8637 22.0416 12.0537 22.1316C11.3937 22.2216 11.0837 22.5616 11.0837 22.9916C11.0737 23.4616 11.4337 23.8016 11.9337 23.8016C12.8337 23.8016 14.3237 23.2516 15.4237 22.1616ZM18.0437 24.8016C19.6837 23.1616 20.5537 21.0916 20.6837 18.8516C20.7237 18.2516 20.3337 17.9516 19.9237 17.9516C19.3737 17.9516 19.1037 18.2216 19.0437 18.8916C18.9337 20.6416 18.2237 22.3216 16.9137 23.6516C15.5837 24.9516 13.9037 25.6716 12.1637 25.7716C11.5537 25.8216 11.1937 26.1316 11.1937 26.5916C11.1937 27.1016 11.5637 27.4516 12.1237 27.4516C14.3537 27.4516 16.4237 26.4316 18.0437 24.8016ZM18.4937 36.1516H30.2937V33.8516H30.7337C31.2537 33.8516 31.6937 33.4416 31.6937 32.9316V32.5416C31.6937 32.0216 31.2537 31.6116 30.7337 31.6116H30.2937V29.3416C30.2937 26.9016 28.0537 25.4816 24.4037 25.4816C20.7137 25.4816 18.4937 26.9016 18.4937 29.3416V31.6116H18.0637C17.5137 31.6116 17.1137 32.0216 17.1137 32.5416V32.9316C17.1137 33.4416 17.5137 33.8516 18.0637 33.8516H18.4937ZM24.4037 34.2216C23.5937 34.2216 22.4237 34.2716 21.9937 34.2716C21.3237 34.2716 21.0237 34.0016 20.9737 33.3016L20.8337 31.7916C20.7437 30.5116 21.5637 30.0216 24.4037 30.0216C27.2237 30.0216 28.0437 30.5116 27.9337 31.7916L27.8037 33.3016C27.7537 34.0016 27.4437 34.2716 26.7837 34.2716C26.3737 34.2716 25.1337 34.2216 24.4037 34.2216Z"
        fillRule="evenodd"
        clipRule="evenodd"
    />
</svg>
        