
<svg
    viewBox={0 0 43.55872490866249 33.9391420367173}
    xmlns="http://www.w3.org/2000/svg"
>
    <path
        fill="inherit"
        d="M6.2438 25.9371L7.1138 25.4371C8.3238 26.3771 10.0038 26.5271 11.4438 25.6971C12.8938 24.8571 13.6038 23.3271 13.3938 21.8171L27.1638 13.8571C28.3838 14.7971 30.0638 14.9471 31.5038 14.1171C32.9538 13.2771 33.6638 11.7471 33.4538 10.2271L34.3138 9.7271C36.4238 8.5071 36.7938 6.9671 35.5038 4.7471L33.9738 2.0871C32.9338 0.3071 31.4338 -0.3129 29.2738 0.1471L27.4538 0.5271C24.5538 -0.0329 20.7938 -0.3929 17.1838 1.6871L15.7338 2.5171C11.8238 4.7771 10.3938 6.1271 8.9038 8.9571L6.4238 13.6371L2.4638 16.6171C0.0038 18.4771 -0.6462 21.0371 0.6538 23.3071L1.3638 24.5371C2.6238 26.7171 4.1538 27.1471 6.2438 25.9371ZM2.8838 23.5771L2.2038 22.4171C1.3838 20.9871 1.8138 19.3071 3.5438 18.0271L7.1138 15.3271C7.6438 14.9371 7.9538 14.5671 8.2138 14.0871L10.4838 9.7971C11.8438 7.2471 13.0038 6.1571 16.6238 4.0671L18.0738 3.2271C20.5938 1.7671 23.1238 1.5471 26.8538 2.2871C27.5238 2.4271 27.8338 2.3871 28.5038 2.2371L29.7138 1.9771C31.0038 1.6971 31.8438 1.9771 32.4338 2.9871L33.9638 5.6371C34.6338 6.7871 34.4538 7.5971 33.4238 8.1771L32.8238 8.5371C31.6638 6.7871 29.4038 6.2371 27.5738 7.2971C25.7338 8.3571 25.0738 10.5871 26.0138 12.4571L12.7738 20.1171C11.6038 18.3671 9.3538 17.8171 7.5038 18.8771C5.6738 19.9371 5.0138 22.1671 5.9638 24.0371L5.3638 24.3971C4.3238 24.9871 3.5438 24.7371 2.8838 23.5771ZM30.6638 12.6671C29.5738 13.3071 28.2038 12.9371 27.5738 11.8471C26.9438 10.7371 27.3038 9.3871 28.4138 8.7371C29.5038 8.1171 30.8738 8.4771 31.5038 9.5771C32.1338 10.6671 31.7738 12.0371 30.6638 12.6671ZM4.2838 33.2571C4.5938 33.8071 5.2738 33.9671 5.7738 33.6971L41.2638 13.2171C41.7538 12.9071 41.9438 12.2371 41.6538 11.7371C41.3438 11.1871 40.6438 11.0071 40.1538 11.2971L4.6738 31.7771C4.1738 32.0671 3.9738 32.7471 4.2838 33.2571ZM10.6138 24.2471C9.5138 24.8871 8.1438 24.5171 7.5238 23.4271C6.8938 22.3171 7.2438 20.9671 8.3538 20.3171C9.4438 19.6971 10.8138 20.0671 11.4438 21.1571C12.0738 22.2471 11.7138 23.6171 10.6138 24.2471ZM41.1538 33.9371C42.0238 33.9371 42.6538 33.5271 43.0638 32.8871C43.3438 32.4771 43.5538 31.8471 43.5538 31.3871C43.5538 30.9471 43.2538 30.6671 42.8238 30.6671C42.4738 30.6671 42.2038 30.9171 42.1238 31.2971C41.9738 32.0971 41.7238 32.5671 41.1138 32.5671C40.3638 32.5671 39.9238 31.5071 39.9238 29.5371C39.9238 27.5371 40.4238 26.4771 41.1138 26.4771C41.6738 26.4771 42.0038 27.0371 42.0938 27.7471C42.1638 28.1671 42.4538 28.4171 42.8638 28.4171C43.2738 28.4171 43.5138 28.1271 43.5138 27.6871C43.5138 27.1671 43.2738 26.4171 42.8038 25.8971C42.3838 25.4071 41.7638 25.1171 41.0938 25.1171C39.9038 25.1171 39.1838 25.8871 38.8038 26.7771C38.4138 27.6271 38.3238 28.5771 38.3238 29.5371C38.3238 30.6271 38.4338 31.6971 38.9238 32.5971C39.4138 33.4871 40.1538 33.9371 41.1538 33.9371ZM26.6438 33.8671C27.1238 33.8671 27.4438 33.5671 27.4438 33.0771V30.1271H29.5438V33.0771C29.5438 33.5671 29.8438 33.8671 30.3338 33.8671C30.8138 33.8671 31.1338 33.5671 31.1338 33.0771V25.9771C31.1338 25.5071 30.8138 25.2071 30.3338 25.2071C29.8438 25.2071 29.5438 25.5071 29.5438 25.9771V28.8171H27.4438V25.9771C27.4438 25.5071 27.1238 25.2071 26.6438 25.2071C26.1838 25.2071 25.8838 25.5071 25.8838 25.9771V33.0771C25.8838 33.5671 26.1838 33.8671 26.6438 33.8671ZM33.0538 33.8671H34.5738C36.8038 33.8671 37.5538 31.7271 37.5538 29.5071C37.5538 27.0871 36.6938 25.2071 34.5738 25.2071H33.0538C32.5938 25.2071 32.2638 25.4671 32.2638 26.0271V33.0471C32.2638 33.6071 32.5938 33.8671 33.0538 33.8671ZM33.8138 32.5571V26.5171H34.3838C35.7138 26.5171 35.9538 28.1871 35.9538 29.5071C35.9538 30.8671 35.7538 32.5571 34.3838 32.5571Z"
        fillRule="evenodd"
        clipRule="evenodd"
    />
</svg>
        