
<svg
    viewBox={0 0 26.718812741671623 35.4375}
    xmlns="http://www.w3.org/2000/svg"
>
    <path
        fill="inherit"
        d="M17.3376 26.9198C22.5876 26.9198 24.9276 25.7298 24.9276 22.7098V10.7698H25.5176C26.1976 10.7698 26.7176 10.2498 26.7176 9.6098V9.0898C26.7176 8.4398 26.1976 7.9298 25.5176 7.9298H24.9276V4.9598C24.9276 1.8498 22.0576 -0.0002 17.3376 -0.0002C12.5976 -0.0002 9.7276 1.8498 9.7276 4.9598V7.9298H9.1376C8.4576 7.9298 7.9376 8.4398 7.9376 9.0898V9.6098C7.9376 10.2498 8.4576 10.7698 9.1376 10.7698H9.7276V22.7098C9.7276 25.7298 12.0776 26.9198 17.3376 26.9198ZM17.3376 24.7898C13.3976 24.7898 11.8676 24.1898 11.8676 22.6398V4.9598C11.8676 3.1698 13.7676 2.1598 17.3376 2.1598C20.8776 2.1598 22.7676 3.1698 22.7676 4.9598V22.6398C22.7676 24.1898 21.2476 24.7898 17.3376 24.7898ZM17.3276 11.3298C18.3076 11.3298 19.7976 11.4198 20.3176 11.4198C21.1376 11.4198 21.5276 11.0698 21.5876 10.2098L21.7576 8.2998C21.8976 6.7298 20.8576 6.1298 17.3276 6.1298C13.7976 6.1298 12.7576 6.7298 12.8976 8.2998L13.0576 10.2098C13.1276 11.0698 13.5076 11.4198 14.3276 11.4198C14.8376 11.4198 16.3976 11.3298 17.3276 11.3298ZM17.3276 22.3098C20.8576 22.3098 21.9776 21.7898 21.7176 20.1698L21.5776 19.2398C21.3776 17.9398 20.3576 17.5298 17.3276 17.5298C14.2876 17.5298 13.2776 17.9398 13.0776 19.2398L12.9276 20.1698C12.6776 21.7898 13.7976 22.3098 17.3276 22.3098ZM6.8076 28.5998C8.2176 30.0098 10.1376 30.7098 11.3076 30.7098C11.9576 30.7098 12.3876 30.2998 12.3876 29.7098C12.3876 29.1598 12.0076 28.7198 11.1576 28.5998C10.1076 28.4898 9.1276 27.9998 8.2576 27.1498C7.4376 26.3198 6.9676 25.3098 6.8076 24.1398C6.6876 23.3798 6.3876 23.0598 5.7176 23.0598C5.1176 23.0598 4.6376 23.5298 4.7376 24.2698C4.9076 25.9398 5.6276 27.4098 6.8076 28.5998ZM3.4176 32.0098C5.5176 34.1098 8.1776 35.4398 11.0776 35.4398C11.7776 35.4398 12.2576 34.9898 12.2576 34.3398C12.2576 33.7598 11.7876 33.3698 11.0076 33.3198C8.7676 33.1798 6.5776 32.2498 4.8676 30.5598C3.1776 28.8498 2.2476 26.6698 2.1076 24.4198C2.0376 23.5398 1.6876 23.1998 0.9976 23.1998C0.4676 23.1998 -0.0524 23.5798 0.0076 24.3398C0.1776 27.2298 1.3076 29.9098 3.4176 32.0098Z"
        fillRule="evenodd"
        clipRule="evenodd"
    />
</svg>
        