<svg viewBox="0 0 31.759765625 35.30078125" xmlns="http://www.w3.org/2000/svg"><path d="M19.4998 35.3015C26.3998 35.3015 29.3398 33.7815 29.3398 30.0615V13.7815H30.4598C31.1998 13.7815 31.7598 13.2215 31.7598 12.5115V11.8415C31.7598 11.1315 31.1998 10.5815 30.4598 10.5815H29.3398V6.3315C29.3398 2.3415 25.7198 0.0015 19.4998 0.0015C13.2898 0.0015 9.6498 2.3415 9.6498 6.3315V10.5815H8.5498C7.8098 10.5815 7.2498 11.1315 7.2498 11.8415V12.5115C7.2498 13.2215 7.8098 13.7815 8.5498 13.7815H9.6498V30.0615C9.6498 33.7815 12.6098 35.3015 19.4998 35.3015ZM-0.0002 10.7415C-0.0002 11.4815 0.5898 11.8015 1.2298 11.4015L6.0798 8.4515C6.7098 8.0615 6.6998 7.3415 6.0798 6.9715L1.2298 3.9915C0.5898 3.5915 -0.0002 3.9415 -0.0002 4.6615ZM19.4998 14.5615C18.1698 14.5615 16.1098 14.6515 15.3898 14.6515C14.3298 14.6515 13.8798 14.2415 13.7698 13.1515L13.5498 10.5015C13.3598 8.4615 14.7898 7.6415 19.4998 7.6415C24.2098 7.6415 25.6498 8.4615 25.4598 10.5015L25.2398 13.1515C25.1298 14.2415 24.6598 14.6515 23.6098 14.6515C22.8898 14.6515 20.7698 14.5615 19.4998 14.5615ZM19.4998 29.6115C14.7498 29.6115 13.2998 28.9015 13.5998 26.8215L13.7798 25.5415C14.0098 23.8615 15.4198 23.2815 19.4998 23.2815C23.5798 23.2815 24.9898 23.8615 25.2198 25.5415L25.3998 26.8215C25.6998 28.9015 24.2498 29.6115 19.4998 29.6115Z" /></svg>