
<svg
    viewBox="0 0 31.705078125 36.1484375"
    xmlns="http://www.w3.org/2000/svg"
>
    <path
        fill="inherit"
        d="M7.2737 20.8653C11.3637 20.8653 13.1837 19.9353 13.1837 17.5853V8.3653H13.6137C14.1537 8.3653 14.5737 7.9553 14.5737 7.4553V7.0553C14.5737 6.5353 14.1537 6.1253 13.6137 6.1253H13.1837V3.8553C13.1837 1.4253 10.9537 -0.0047 7.2737 -0.0047C3.6137 -0.0047 1.3837 1.4253 1.3837 3.8553V6.1253H0.9437C0.4137 6.1253 0.0037 6.5353 0.0037 7.0553V7.4553C0.0037 7.9553 0.4137 8.3653 0.9437 8.3653H1.3837V17.5853C1.3837 19.9353 3.2037 20.8653 7.2737 20.8653ZM7.2737 19.1653C4.2337 19.1653 3.0937 18.7153 3.0937 17.5253V3.8553C3.0937 2.4753 4.5237 1.7053 7.2737 1.7053C10.0237 1.7053 11.4837 2.4753 11.4837 3.8553V17.5253C11.4837 18.7153 10.3037 19.1653 7.2737 19.1653ZM7.2737 8.7953C7.9937 8.7953 9.2037 8.8753 9.5937 8.8753C10.2537 8.8753 10.5437 8.5953 10.5937 7.9153L10.7337 6.4353C10.8437 5.2053 10.0237 4.7353 7.2737 4.7353C4.5437 4.7353 3.7237 5.2053 3.8437 6.4353L3.9637 7.9153C4.0237 8.5953 4.3237 8.8753 4.9637 8.8753C5.3737 8.8753 6.5237 8.7953 7.2737 8.7953ZM7.2737 17.2953C10.0237 17.2953 10.8837 16.8853 10.6937 15.6253L10.5837 14.9053C10.4337 13.8753 9.6437 13.5653 7.2737 13.5653C4.9337 13.5653 4.1337 13.8753 3.9637 14.9053L3.8537 15.6253C3.6637 16.8853 4.5537 17.2953 7.2737 17.2953ZM15.4237 22.1653C16.3537 21.2353 16.9137 20.0853 17.0537 18.7953C17.1137 18.2153 16.7337 17.8253 16.2737 17.8453C15.7337 17.8453 15.4937 18.1053 15.3937 18.6853C15.2737 19.5953 14.9137 20.3553 14.2737 21.0253C13.6137 21.6653 12.8637 22.0353 12.0537 22.1353C11.3937 22.2153 11.0837 22.5553 11.0837 22.9953C11.0737 23.4653 11.4337 23.8053 11.9337 23.8053C12.8337 23.8053 14.3237 23.2553 15.4237 22.1653ZM18.0437 24.8053C19.6837 23.1553 20.5537 21.0953 20.6837 18.8553C20.7237 18.2553 20.3337 17.9553 19.9237 17.9553C19.3737 17.9553 19.1037 18.2253 19.0437 18.8953C18.9337 20.6453 18.2237 22.3253 16.9137 23.6553C15.5837 24.9553 13.9037 25.6753 12.1637 25.7753C11.5537 25.8253 11.1937 26.1253 11.1937 26.5953C11.1937 27.0953 11.5637 27.4553 12.1237 27.4553C14.3537 27.4553 16.4237 26.4253 18.0437 24.8053ZM18.5437 36.1453H20.2337V29.3253C20.2337 27.9453 21.6737 27.1753 24.4037 27.1753C27.1437 27.1753 28.6137 27.9453 28.6137 29.3253V36.1453H30.3237V33.8253H30.7437C31.2637 33.8253 31.7037 33.4253 31.7037 32.9253V32.5253C31.7037 31.9953 31.2637 31.5953 30.7437 31.5953H30.3237V29.3253C30.3237 26.9053 28.0637 25.4853 24.4037 25.4853C20.7437 25.4853 18.5437 26.9053 18.5437 29.3253V31.5953H18.1037C17.5537 31.5953 17.1537 31.9953 17.1537 32.5253V32.9253C17.1537 33.4253 17.5537 33.8253 18.1037 33.8253H18.5437ZM24.4037 34.2653C25.1337 34.2653 26.3337 34.3153 26.7137 34.3153C27.3737 34.3153 27.6737 34.0553 27.7237 33.3853L27.8537 31.8953C27.9637 30.6753 27.1537 30.2053 24.4037 30.2053C21.6737 30.2053 20.8937 30.6753 20.9737 31.8953L21.0937 33.3853C21.1537 34.0553 21.4537 34.3153 22.0937 34.3153C22.4937 34.3153 23.6437 34.2653 24.4037 34.2653Z"
        fillRule="evenodd"
        clipRule="evenodd"
    />
</svg>
        