<svg viewBox="0 0 30.36888878900792 32.142578125" xmlns="http://www.w3.org/2000/svg"><path d="M4.6955 18.5412H5.8655C6.6155 18.5412 7.1955 17.9613 7.1955 17.2313V15.5413C9.4055 15.6913 12.6255 15.7913 15.1955 15.7913C17.7455 15.7913 20.9655 15.6913 23.1855 15.5413V17.2313C23.1855 17.9613 23.7655 18.5412 24.5055 18.5412H25.6755C26.4255 18.5412 27.0055 17.9613 27.0055 17.2313V11.4613C27.0055 9.7712 26.6655 8.8313 25.7455 7.6413L24.8955 6.5512C24.5255 4.7413 23.8555 2.8612 23.5155 2.1213C22.9855 0.9812 21.9455 0.3313 20.6155 0.1513C19.9655 0.0512 17.7655 0.0012 15.1955 0.0012C12.6055 0.0012 10.4155 0.0712 9.7455 0.1513C8.4255 0.3012 7.3855 0.9812 6.8555 2.1213C6.5055 2.8612 5.8355 4.7413 5.4755 6.5512L4.6355 7.6413C3.7055 8.8313 3.3655 9.7712 3.3655 11.4613V17.2313C3.3655 17.9613 3.9355 18.5412 4.6955 18.5412ZM7.4755 5.7113C7.7255 4.6112 8.2055 3.1812 8.5355 2.6112C8.8055 2.1513 9.1055 1.9312 9.6455 1.8612C10.4055 1.7512 12.1055 1.6913 15.1955 1.6913C18.2655 1.6913 19.9755 1.7413 20.7255 1.8612C21.2755 1.9413 21.5655 2.1513 21.8355 2.6112C22.1755 3.1713 22.6255 4.6112 22.8855 5.7113C22.9855 6.0813 22.8155 6.2213 22.4355 6.2113C20.7855 6.1013 18.8055 5.9913 15.1955 5.9913C11.5655 5.9913 9.5955 6.1013 7.9355 6.2113C7.5455 6.2213 7.3955 6.0813 7.4755 5.7113ZM7.9755 13.0813C7.0655 13.0813 6.3755 12.4012 6.3755 11.4813C6.3755 10.5712 7.0655 9.8813 7.9755 9.8813C8.8855 9.8813 9.5755 10.5712 9.5755 11.4813C9.5755 12.4012 8.8855 13.0813 7.9755 13.0813ZM22.3955 13.0813C21.4755 13.0813 20.7955 12.4012 20.7955 11.4813C20.7955 10.5712 21.4755 9.8813 22.3955 9.8813C23.3155 9.8813 23.9955 10.5712 23.9955 11.4813C23.9955 12.4012 23.3155 13.0813 22.3955 13.0813ZM12.5355 12.7013C11.8655 12.7013 11.3955 12.2213 11.3955 11.5413C11.3955 10.8513 11.8655 10.3913 12.5355 10.3913H17.8255C18.5155 10.3913 18.9755 10.8513 18.9755 11.5413C18.9755 12.2213 18.5155 12.7013 17.8255 12.7013ZM0.6055 23.7313L3.5955 27.7113C3.7455 27.6213 3.9155 27.4913 4.0855 27.3713C5.6455 26.2413 6.9855 25.5813 8.6955 25.5813C10.4655 25.5813 11.7855 26.2813 13.3955 27.4513C14.3555 28.1913 14.6355 28.3513 15.1955 28.3513C15.7155 28.3513 15.9855 28.1913 16.8055 27.5913C18.4855 26.3013 19.8555 25.5813 21.6755 25.5813C23.3955 25.5813 24.7255 26.2413 26.2755 27.3713C26.4555 27.4913 26.6255 27.6213 26.7855 27.7113L29.7655 23.7313C31.0255 22.0913 30.2455 20.2113 28.0855 20.2113H2.2855C0.1255 20.2113 -0.6545 22.0913 0.6055 23.7313ZM1.7755 32.1413H1.8455C6.1155 32.1413 6.4655 29.3713 8.6955 29.3713C10.8555 29.3713 11.4555 32.1413 15.1955 32.1413C18.9055 32.1413 19.5155 29.3713 21.6755 29.3713C23.8955 29.3713 24.2555 32.1413 28.5255 32.1413H28.5855C29.1255 32.1413 29.5455 31.7213 29.5455 31.1813C29.5455 30.6513 29.1255 30.2113 28.5855 30.2113H28.5255C27.0455 30.2113 26.2255 29.6113 25.1855 28.8713C24.2955 28.2313 23.1855 27.4413 21.6755 27.4413C20.1155 27.4413 18.9955 28.2913 18.1055 28.9413C17.1555 29.6713 16.4055 30.2113 15.1955 30.2113C13.9655 30.2113 13.2255 29.6713 12.2755 28.9413C11.3955 28.2913 10.2555 27.4413 8.6955 27.4413C7.1755 27.4413 6.0755 28.2313 5.1855 28.8713C4.1455 29.6113 3.3255 30.2113 1.8455 30.2113H1.7755C1.2455 30.2113 0.8255 30.6513 0.8255 31.1813C0.8255 31.7213 1.2455 32.1413 1.7755 32.1413Z" /></svg>