
<svg
    viewBox="0 0 46.04060527636922 35.09623799405522"
    xmlns="http://www.w3.org/2000/svg"
>
    <path
        fill="inherit"
        d="M12.6744 25.9408L13.5344 25.4508C14.7544 26.3808 16.4344 26.5308 17.8744 25.7108C19.3144 24.8708 20.0344 23.3308 19.8244 21.8108L33.5944 13.8708C34.8044 14.8008 36.4944 14.9508 37.9444 14.1308C39.3744 13.2908 40.0844 11.7608 39.8844 10.2308L40.7444 9.7408C42.8444 8.5208 43.2144 6.9808 41.9344 4.7508L40.4044 2.0908C39.3644 0.3208 37.8544 -0.3092 35.6944 0.1408L33.8944 0.5208C30.9844 -0.0392 27.2244 -0.3892 23.6144 1.6808L22.1644 2.5308C18.2544 4.7908 16.8144 6.1308 15.3244 8.9608L12.8544 13.6308L8.9044 16.6108C6.4244 18.4708 5.7844 21.0408 7.0944 23.3108L7.7944 24.5308C9.0544 26.7208 10.5844 27.1408 12.6744 25.9408ZM9.3144 23.5908L8.6244 22.4308C7.8044 20.9908 8.2444 19.3208 9.9644 18.0208L13.5344 15.3408C14.0644 14.9308 14.3844 14.5808 14.6444 14.1008L16.9144 9.8108C18.2644 7.2608 19.4244 6.1708 23.0544 4.0608L24.5044 3.2308C27.0144 1.7808 29.5444 1.5608 33.2744 2.3008C33.9444 2.4208 34.2644 2.3808 34.9344 2.2508L36.1344 1.9908C37.4344 1.7008 38.2644 1.9908 38.8544 2.9808L40.3844 5.6408C41.0544 6.8008 40.8944 7.5908 39.8544 8.1908L39.2544 8.5308C38.0944 6.7808 35.8344 6.2408 34.0044 7.3008C32.1544 8.3708 31.5044 10.6008 32.4444 12.4708L19.1944 20.1108C18.0344 18.3608 15.7744 17.8208 13.9444 18.8808C12.1044 19.9508 11.4444 22.1808 12.3844 24.0508L11.7844 24.3908C10.7444 25.0008 9.9644 24.7408 9.3144 23.5908ZM37.0944 12.6808C35.9944 13.3108 34.6344 12.9408 34.0044 11.8408C33.3744 10.7508 33.7444 9.3808 34.8344 8.7508C35.9344 8.1208 37.2944 8.4808 37.9244 9.5708C38.5544 10.6808 38.2044 12.0308 37.0944 12.6808ZM8.5144 34.5408C8.8444 35.0908 9.5144 35.2408 10.0244 34.9608L45.5044 14.4808C46.0044 14.2108 46.1944 13.5208 45.8944 13.0108C45.5844 12.4608 44.8944 12.2908 44.3944 12.5808L8.9144 33.0608C8.4244 33.3408 8.2344 34.0208 8.5144 34.5408ZM17.0344 24.2608C15.9444 24.8908 14.5744 24.5208 13.9444 23.4208C13.3144 22.3308 13.6744 20.9608 14.7844 20.3308C15.8744 19.7008 17.2444 20.0608 17.8744 21.1508C18.4944 22.2608 18.1444 23.6108 17.0344 24.2608ZM6.1544 27.8408L3.2944 22.8508C2.8144 22.0108 1.8444 22.2308 1.5744 23.0408L0.0644 27.2508C-0.1356 27.8408 0.1244 28.3008 0.7344 28.4108L5.1244 29.2308C5.9844 29.4008 6.6444 28.6608 6.1544 27.8408Z"
        fillRule="evenodd"
        clipRule="evenodd"
    />
</svg>
        