
<svg
    viewBox="0 0 34.66614110834325 35.4375"
    xmlns="http://www.w3.org/2000/svg"
>
    <path
        fill="inherit"
        d="M17.3376 26.9198C22.5876 26.9198 24.9376 25.7298 24.9376 22.7098V10.7698H25.5276C26.2176 10.7698 26.7276 10.2498 26.7276 9.6098V9.0898C26.7276 8.4398 26.2176 7.9298 25.5276 7.9298H24.9376V4.9598C24.9376 1.8498 22.0676 -0.0002 17.3376 -0.0002C12.6076 -0.0002 9.7376 1.8498 9.7376 4.9598V7.9298H9.1476C8.4676 7.9298 7.9476 8.4398 7.9476 9.0898V9.6098C7.9476 10.2498 8.4676 10.7698 9.1476 10.7698H9.7376V22.7098C9.7376 25.7298 12.0776 26.9198 17.3376 26.9198ZM17.3276 11.2498C16.3876 11.2498 14.7876 11.3298 14.2476 11.3298C13.4176 11.3298 13.0176 10.9798 12.9476 10.0898L12.7776 8.1198C12.6376 6.4898 13.7076 5.8798 17.3276 5.8798C20.9776 5.8798 22.0476 6.4898 21.9076 8.1198L21.7376 10.0898C21.6576 10.9798 21.2776 11.3298 20.4276 11.3298C19.8876 11.3298 18.3476 11.2498 17.3276 11.2498ZM17.3276 22.5598C13.7076 22.5598 12.5576 22.0298 12.8176 20.3398L12.9676 19.3898C13.1676 18.0498 14.2076 17.6198 17.3276 17.6198C20.4676 17.6198 21.5076 18.0498 21.7276 19.3898L21.8676 20.3398C22.1376 22.0298 20.9776 22.5598 17.3276 22.5598ZM6.8076 28.5998C8.2176 30.0098 10.1376 30.7098 11.3076 30.7098C11.9576 30.7098 12.3876 30.2998 12.3876 29.7098C12.3876 29.1598 12.0076 28.7198 11.1576 28.5998C10.1076 28.4898 9.1276 27.9998 8.2576 27.1498C7.4376 26.3198 6.9676 25.3098 6.8076 24.1398C6.6876 23.3798 6.3876 23.0598 5.7176 23.0598C5.1176 23.0598 4.6376 23.5298 4.7376 24.2698C4.9076 25.9398 5.6276 27.4098 6.8076 28.5998ZM27.8576 28.5998C29.0576 27.4098 29.7576 25.9398 29.9276 24.2698C30.0276 23.5298 29.5476 23.0598 28.9476 23.0598C28.2776 23.0598 27.9876 23.3798 27.8676 24.1398C27.7076 25.3098 27.2276 26.3198 26.4076 27.1498C25.5476 27.9998 24.5576 28.4898 23.5076 28.5998C22.6576 28.7198 22.2876 29.1598 22.2876 29.7098C22.2776 30.2998 22.7276 30.7098 23.3576 30.7098C24.5276 30.7098 26.4476 30.0098 27.8576 28.5998ZM3.4176 32.0098C5.5176 34.1098 8.1776 35.4398 11.0776 35.4398C11.7776 35.4398 12.2576 34.9898 12.2576 34.3398C12.2576 33.7598 11.7876 33.3698 11.0076 33.3198C8.7676 33.1798 6.5776 32.2498 4.8676 30.5598C3.1776 28.8498 2.2476 26.6698 2.1076 24.4198C2.0376 23.5398 1.6876 23.1998 0.9976 23.1998C0.4676 23.1998 -0.0524 23.5798 0.0076 24.3398C0.1776 27.2298 1.3076 29.9098 3.4176 32.0098ZM31.2476 32.0098C33.3676 29.9098 34.4876 27.2298 34.6576 24.3398C34.7176 23.5798 34.1976 23.1998 33.6676 23.1998C32.9976 23.1998 32.6276 23.5398 32.5576 24.4198C32.4176 26.6698 31.5076 28.8498 29.7976 30.5598C28.0876 32.2498 25.9076 33.1798 23.6576 33.3198C22.8876 33.3698 22.4276 33.7598 22.4276 34.3398C22.4276 34.9898 22.8876 35.4398 23.5976 35.4398C26.4876 35.4398 29.1476 34.1098 31.2476 32.0098Z"
        fillRule="evenodd"
        clipRule="evenodd"
    />
</svg>
        