
<svg
    viewBox={0 0 48.712890625 28.109375}
    xmlns="http://www.w3.org/2000/svg"
>
    <path
        fill="inherit"
        d="M25.3737 12.2999C26.0437 12.2999 26.5137 11.8299 26.5337 11.1299L26.8237 1.4499C26.8537 0.5699 26.2637 -0.0001 25.3737 -0.0001C24.4737 -0.0001 23.8837 0.5699 23.9137 1.4499L24.2037 11.1299C24.2237 11.8299 24.7037 12.2999 25.3737 12.2999ZM4.3437 25.1599H5.5637C6.2937 26.9099 8.0137 28.1099 10.0637 28.1099C12.1137 28.1099 13.8237 26.9099 14.5437 25.1599H34.1637C34.8937 26.9099 36.6037 28.1099 38.6537 28.1099C40.7037 28.1099 42.4137 26.9099 43.1337 25.1599H44.3637C47.3637 25.1599 48.7137 23.7299 48.7137 20.5599V16.7799C48.7137 14.2299 47.4837 12.6499 44.8837 11.7999L42.7137 11.0699C39.9537 8.7199 36.1437 5.9699 31.0237 5.9699H28.5637L28.4937 8.1799H31.0237C34.6037 8.1799 37.4437 9.4999 40.9737 12.5899C41.6137 13.1499 41.9637 13.2999 42.7837 13.5599L44.2237 14.0299C45.7837 14.5299 46.5137 15.3399 46.5137 16.7799V20.5599C46.5137 22.1999 45.8437 22.9599 44.3637 22.9599H43.5037C43.3537 20.3699 41.2737 18.3899 38.6537 18.3899C36.0237 18.3899 33.9437 20.3699 33.7937 22.9599H14.9137C14.7637 20.3699 12.6837 18.3899 10.0637 18.3899C7.4237 18.3899 5.3637 20.3699 5.2137 22.9599H4.3437C2.8737 22.9599 2.2037 22.1999 2.2037 20.5599V18.8899C2.2037 16.8699 3.7037 15.3399 6.3437 15.0299L11.8137 14.3599C12.6337 14.2499 13.1937 14.0499 13.7637 13.7099L18.8437 10.5099C20.0437 9.7599 21.0837 9.2599 22.2737 8.9099L22.1937 6.6199C20.5937 7.0099 19.2237 7.6399 17.6637 8.6399L12.1237 12.1099L6.0737 12.8499C2.2837 13.3199 0.0037 15.6699 0.0037 18.8899V20.6399C0.0037 23.7599 1.3837 25.1599 4.3437 25.1599ZM25.3737 18.3799C26.3437 18.3799 27.1637 17.5699 27.1637 16.6399C27.1637 15.6999 26.3637 14.9199 25.3737 14.9199C24.3737 14.9199 23.5737 15.6999 23.5737 16.6399C23.5737 17.5699 24.3937 18.3799 25.3737 18.3799ZM10.0637 26.0399C8.4937 26.0399 7.2637 24.8099 7.2637 23.2599C7.2637 21.6799 8.4937 20.4499 10.0637 20.4499C11.6237 20.4499 12.8537 21.6799 12.8537 23.2599C12.8537 24.8099 11.6237 26.0399 10.0637 26.0399ZM38.6537 26.0399C37.0937 26.0399 35.8437 24.8099 35.8437 23.2599C35.8437 21.6799 37.0937 20.4499 38.6537 20.4499C40.2137 20.4499 41.4537 21.6799 41.4537 23.2599C41.4537 24.8099 40.2137 26.0399 38.6537 26.0399Z"
        fillRule="evenodd"
        clipRule="evenodd"
    />
</svg>
        