
<svg
    viewBox="0 0 25.67578125 35.30078125"
    xmlns="http://www.w3.org/2000/svg"
>
    <path
        fill="inherit"
        d="M15.8337 35.3015C22.7337 35.3015 25.6737 33.7815 25.6737 30.0615V6.3315C25.6737 2.3415 22.0537 0.0015 15.8337 0.0015C9.6237 0.0015 5.9837 2.3415 5.9837 6.3315V10.5415L0.3237 16.1715C-0.1063 16.6215 -0.1063 17.3515 0.3237 17.8015C0.7837 18.2415 1.5037 18.2515 1.9537 17.8015L5.9837 13.7715V20.8815L0.3237 26.5115C-0.1063 26.9515 -0.1063 27.6815 0.3237 28.1415C0.7837 28.5715 1.5037 28.5915 1.9537 28.1415L5.9837 24.1015V30.0615C5.9837 33.7815 8.9437 35.3015 15.8337 35.3015ZM15.8437 14.5615C14.5037 14.5615 12.4537 14.6515 11.7337 14.6515C10.6737 14.6515 10.2137 14.2415 10.1037 13.1515L9.8837 10.5015C9.6937 8.4615 11.1337 7.6415 15.8437 7.6415C20.5537 7.6415 21.9837 8.4615 21.7937 10.5015L21.5737 13.1515C21.4637 14.2415 21.0137 14.6515 19.9437 14.6515C19.2337 14.6515 17.1037 14.5615 15.8437 14.5615ZM15.8437 29.6115C11.0837 29.6115 9.6437 28.9015 9.9437 26.8215L10.1137 25.5415C10.3537 23.8615 11.7537 23.2815 15.8437 23.2815C19.9237 23.2815 21.3237 23.8615 21.5637 25.5415L21.7337 26.8215C22.0437 28.9015 20.5937 29.6115 15.8437 29.6115Z"
        fillRule="evenodd"
        clipRule="evenodd"
    />
</svg>
        