
<svg
    viewBox={0 0 27.59004871888104 39.31694479227596}
    xmlns="http://www.w3.org/2000/svg"
>
    <path
        fill="inherit"
        d="M18.1839 26.9173C23.4439 26.9173 25.8039 25.7273 25.8039 22.7073V10.7773H26.3839C27.0739 10.7773 27.5939 10.2573 27.5939 9.6073V9.0873C27.5939 8.4373 27.0739 7.9273 26.3839 7.9273H25.8039V4.9673C25.8039 1.8473 22.9239 -0.0027 18.1839 -0.0027C13.4639 -0.0027 10.5939 1.8473 10.5939 4.9673V7.9273H10.0039C9.3239 7.9273 8.8039 8.4373 8.8039 9.0873V9.6073C8.8039 10.2573 9.3239 10.7773 10.0039 10.7773H10.5939V22.7073C10.5939 25.7273 12.9339 26.9173 18.1839 26.9173ZM18.1939 11.2473C17.1839 11.2473 15.6539 11.3373 15.1039 11.3373C14.2739 11.3373 13.8739 10.9773 13.8039 10.0873L13.6339 8.1173C13.4939 6.4973 14.5639 5.8773 18.1939 5.8773C21.8339 5.8773 22.9039 6.4973 22.7639 8.1173L22.6039 10.0873C22.5139 10.9773 22.1439 11.3373 21.2839 11.3373C20.7539 11.3373 19.1539 11.2473 18.1939 11.2473ZM18.1939 22.5573C14.5639 22.5573 13.4139 22.0273 13.6739 20.3473L13.8239 19.3873C14.0239 18.0473 15.0639 17.6273 18.1939 17.6273C21.3239 17.6273 22.3639 18.0473 22.5839 19.3873L22.7339 20.3473C22.9939 22.0273 21.8339 22.5573 18.1939 22.5573ZM9.5739 31.6673L12.1139 31.4573C12.3339 31.4473 12.5339 31.3773 12.6739 31.2573C12.9439 30.9773 12.9239 30.5973 12.6339 30.3073L8.9939 26.6773C8.7139 26.3873 8.3439 26.3773 8.0639 26.6473C7.9339 26.7673 7.8639 26.9873 7.8439 27.1973L7.6439 29.7473ZM6.1939 38.7873L9.9239 35.0573C10.6239 34.3573 10.6339 33.5373 9.9439 32.8373L6.4839 29.3673C5.7739 28.6673 4.9939 28.6473 4.2939 29.3573L0.5239 33.1173C-0.1461 33.7873 -0.1961 34.6273 0.5039 35.3373L3.9639 38.7973C4.6639 39.4973 5.4939 39.4873 6.1939 38.7873Z"
        fillRule="evenodd"
        clipRule="evenodd"
    />
</svg>
        