
<svg
    viewBox="0 0 24.7734375 35.30078125"
    xmlns="http://www.w3.org/2000/svg"
>
    <path
        fill="inherit"
        d="M1.1437 28.7815C1.8637 28.7815 2.2937 28.3415 2.2937 27.6215V19.2215H5.0837V30.0615C5.0837 33.7815 8.0237 35.3015 14.9337 35.3015C21.8337 35.3015 24.7737 33.7815 24.7737 30.0615V6.3315C24.7737 2.3415 21.1537 0.0015 14.9337 0.0015C8.7137 0.0015 5.0837 2.3415 5.0837 6.3315V17.4315H2.2937V15.7915C2.2937 15.0615 1.8637 14.6315 1.1437 14.6315C0.4537 14.6315 0.0037 15.0615 0.0037 15.7815V27.6315C0.0037 28.3415 0.4537 28.7815 1.1437 28.7815ZM14.9337 33.0315C9.6537 33.0315 7.3737 32.1415 7.3737 29.9515V6.3315C7.3737 3.7715 10.1537 2.2815 14.9337 2.2815C19.7137 2.2815 22.4937 3.7715 22.4937 6.3315V29.9515C22.4937 32.1415 20.2237 33.0315 14.9337 33.0315ZM14.9337 14.6815C16.1637 14.6815 18.2237 14.7815 18.9237 14.7815C19.9437 14.7815 20.3937 14.3815 20.4837 13.3115L20.7137 10.7415C20.8937 8.7815 19.4937 7.9815 14.9337 7.9815C10.3637 7.9815 8.9837 8.7815 9.1437 10.7415L9.3837 13.3115C9.4737 14.3815 9.9137 14.7815 10.9537 14.7815C11.6337 14.7815 13.6337 14.6815 14.9337 14.6815ZM14.9337 29.2715C19.5337 29.2715 20.9337 28.5915 20.6537 26.5815L20.4837 25.3315C20.2637 23.6915 18.8937 23.1415 14.9337 23.1415C10.9737 23.1415 9.6137 23.6915 9.3937 25.3315L9.2137 26.5815C8.9237 28.5915 10.3337 29.2715 14.9337 29.2715Z"
        fillRule="evenodd"
        clipRule="evenodd"
    />
</svg>
        