
<svg
    viewBox={0 0 45.8876326999745 30.742802424290026}
    xmlns="http://www.w3.org/2000/svg"
>
    <path
        fill="inherit"
        d="M13.6033 11.0755C13.6033 11.5555 13.9733 11.9255 14.4533 11.9255H15.2033C15.6933 11.9255 16.0633 11.5555 16.0633 11.0755V10.1455H26.3433V11.0755C26.3433 11.5555 26.7133 11.9255 27.1933 11.9255H27.9633C28.4333 11.9255 28.8033 11.5555 28.8033 11.0755V6.7855C28.8033 5.7055 28.6533 5.0455 27.9833 4.3155L27.3433 3.6255L26.6733 1.6955C26.3033 0.6455 25.5933 0.1955 24.7033 0.0955C24.2633 0.0455 22.8633 -0.0045 21.2033 -0.0045C19.5333 -0.0045 18.1333 0.0455 17.7033 0.0955C16.8133 0.1955 16.1033 0.6455 15.7333 1.6955L15.0533 3.6255L14.4133 4.3155C13.7533 5.0455 13.6033 5.7055 13.6033 6.7855ZM16.8133 3.6655C16.5133 3.6655 16.4033 3.4355 16.5033 3.1455L16.8933 1.9555C17.0533 1.5055 17.2833 1.3655 17.6733 1.3155C18.1133 1.2455 19.3733 1.2055 21.2033 1.2055C23.0333 1.2055 24.2833 1.2455 24.7233 1.3155C25.1133 1.3655 25.3433 1.5055 25.4933 1.9555L25.9033 3.1455C26.0033 3.4355 25.8833 3.6655 25.5833 3.6655ZM15.9233 7.6655C15.5333 7.6655 15.2333 7.3855 15.2333 6.9955V5.9855C15.2333 5.5955 15.5333 5.3155 15.9233 5.3155C16.3233 5.3155 16.6133 5.5955 16.6133 5.9855V6.9955C16.6133 7.3955 16.3233 7.6655 15.9233 7.6655ZM26.5333 7.6655C26.1533 7.6655 25.8633 7.3855 25.8633 6.9955V5.9855C25.8633 5.6055 26.1533 5.3155 26.5333 5.3155C26.9433 5.3155 27.2333 5.5955 27.2333 5.9855V6.9955C27.2333 7.3955 26.9433 7.6655 26.5333 7.6655ZM19.7433 7.3655C19.4233 7.3655 19.2233 7.1655 19.2233 6.8255V6.1655C19.2233 5.8255 19.4233 5.6155 19.7433 5.6155H22.6433C22.9533 5.6155 23.1733 5.8255 23.1733 6.1655V6.8255C23.1733 7.1655 22.9533 7.3655 22.6433 7.3655ZM1.1033 28.6155H2.9533C3.7733 28.6155 4.1733 28.2355 4.4133 27.6355L11.3633 10.9355C11.5633 10.4555 11.3433 10.0855 10.8733 10.0855H9.4333C8.9733 10.0855 8.6633 10.2955 8.4533 10.7155L0.1533 27.0855C-0.2067 27.7955 0.0533 28.6155 1.1033 28.6155ZM32.0433 13.3255C33.1233 13.0555 34.0333 13.0155 35.1533 13.0555L33.9733 10.7355C33.7533 10.3055 33.4733 10.0855 33.0033 10.0855H31.5633C31.0933 10.0855 30.8733 10.4755 31.0633 10.9355ZM43.1933 12.9855C42.9033 12.6855 42.5033 12.8555 42.4333 13.2255L41.8033 16.3255C41.7233 16.7355 41.9833 16.9755 42.3833 16.8955L45.4833 16.2655C45.8733 16.1855 46.0333 15.8355 45.7333 15.5355ZM30.5933 13.7655L30.3333 13.1155H12.0533L11.2633 15.1255H28.1233C28.8933 14.5755 29.7233 14.1055 30.5933 13.7655ZM28.5333 23.2455H27.2633C27.4233 21.8655 27.9433 20.6055 28.7533 19.5755L29.7233 20.5455C30.0633 20.8955 30.6233 20.8955 30.9933 20.5455C31.3333 20.2055 31.3333 19.6355 30.9833 19.2955L30.0133 18.3155C31.0333 17.5155 32.2933 16.9755 33.6733 16.8155V18.1155C33.6733 18.5955 34.0833 19.0155 34.5633 19.0155C35.0433 19.0155 35.4533 18.5955 35.4533 18.1155V16.8155C38.8433 17.2155 41.4533 19.8355 41.8533 23.2455H40.5533C40.0733 23.2455 39.6633 23.6355 39.6633 24.1355C39.6633 24.6055 40.0733 25.0155 40.5533 25.0155H41.8533C41.7033 26.3955 41.1633 27.6455 40.3433 28.6655L39.5133 27.8455C39.1733 27.5055 38.6133 27.5055 38.2533 27.8455C37.9133 28.1955 37.8933 28.7655 38.2633 29.1255L39.4933 30.3355C40.1033 30.9355 40.9033 30.8155 41.3433 30.3255C42.8633 28.6855 43.7733 26.4955 43.7733 24.1355C43.7733 19.0855 39.5933 14.8855 34.5633 14.8855C29.5333 14.8855 25.3333 19.0855 25.3333 24.1355C25.3333 26.4955 26.2533 28.6855 27.7633 30.3255C28.2033 30.8155 29.0133 30.9255 29.6133 30.3355L30.8533 29.1255C31.2233 28.7655 31.2133 28.1955 30.8733 27.8455C30.5033 27.5055 29.9433 27.5055 29.6033 27.8455L28.7833 28.6655C27.9633 27.6455 27.4233 26.3955 27.2633 25.0155H28.5333C29.0133 25.0155 29.4333 24.6055 29.4333 24.1355C29.4333 23.6355 29.0133 23.2455 28.5333 23.2455ZM26.5633 16.4855H10.7033L9.9133 18.5155H25.0233C25.4533 17.7755 25.9733 17.1055 26.5633 16.4855ZM33.3833 25.3355C34.0033 25.9255 34.9033 25.9255 35.5233 25.3155C35.6333 25.1855 35.8033 24.9355 35.9033 24.8055L38.8733 20.5055C39.0433 20.2655 38.9933 20.0155 38.8433 19.8555C38.6933 19.7155 38.4433 19.6855 38.2033 19.8355L33.8933 22.8155C33.7433 22.9255 33.5133 23.0955 33.3833 23.2055C32.7833 23.8155 32.7833 24.7055 33.3833 25.3355Z"
        fillRule="evenodd"
        clipRule="evenodd"
    />
</svg>
        