<svg viewBox="0 0 35.4926959928473 25.607421875" xmlns="http://www.w3.org/2000/svg"><path d="M25.3639 -0.001H10.1439V9.799C10.1439 12.829 12.4839 14.009 17.7439 14.009C22.9939 14.009 25.3639 12.829 25.3639 9.799ZM17.7439 9.649C14.1139 9.649 12.9439 9.119 13.2239 7.439L13.3739 6.479C13.5939 5.139 14.6139 4.719 17.7439 4.719C20.8739 4.719 21.9339 5.139 22.1339 6.479L22.2839 7.439C22.5339 9.119 21.3839 9.649 17.7439 9.649ZM3.8739 16.449C2.7739 14.899 2.2439 13.139 2.1639 11.399C2.1239 10.639 1.6139 10.279 1.0839 10.299C0.5239 10.299 -0.0161 10.689 0.0039 11.359C0.0539 13.589 0.8639 15.719 2.1739 17.619C3.5039 19.519 5.2639 21.009 7.3039 21.809C7.8439 22.029 8.3239 21.779 8.5739 21.379C8.9039 20.879 8.8439 20.109 8.0139 19.769C6.4139 19.099 4.9339 17.989 3.8739 16.449ZM31.6239 16.449C30.5539 17.989 29.0839 19.099 27.4839 19.769C26.6439 20.109 26.5939 20.879 26.9239 21.379C27.1639 21.779 27.6439 22.029 28.1939 21.809C30.2239 21.009 31.9939 19.519 33.3139 17.619C34.6339 15.719 35.4339 13.589 35.4939 11.359C35.5039 10.689 34.9639 10.299 34.4139 10.299C33.8839 10.279 33.3739 10.639 33.3339 11.399C33.2539 13.139 32.7139 14.899 31.6239 16.449ZM7.8239 13.689C7.3039 12.979 7.0039 12.239 6.9039 11.379C6.7539 10.389 6.0339 10.149 5.4539 10.379C5.0539 10.539 4.7439 10.949 4.8239 11.489C4.9639 12.569 5.3739 13.809 6.0939 14.879C6.8639 15.939 7.8739 16.739 8.8339 17.229C9.4239 17.539 10.0039 17.269 10.2539 16.829C10.5239 16.369 10.4339 15.739 9.6639 15.329C8.9039 14.929 8.3039 14.399 7.8239 13.689ZM27.6739 13.689C27.1939 14.399 26.5939 14.929 25.8239 15.329C25.0639 15.739 24.9639 16.369 25.2339 16.829C25.4839 17.269 26.0739 17.539 26.6639 17.229C27.6139 16.739 28.6139 15.939 29.3939 14.879C30.1239 13.809 30.5339 12.569 30.6639 11.489C30.7439 10.949 30.4339 10.539 30.0339 10.379C29.4639 10.149 28.7339 10.389 28.5839 11.379C28.4939 12.239 28.1939 12.979 27.6739 13.689ZM17.7439 18.749C16.8839 18.749 16.0939 18.549 15.3439 18.139C14.5639 17.759 14.0039 18.049 13.7639 18.539C13.5339 18.989 13.6739 19.629 14.2439 19.919C15.2039 20.429 16.4439 20.799 17.7439 20.799C19.0439 20.799 20.2939 20.429 21.2439 19.919C21.8239 19.629 21.9539 18.989 21.7239 18.539C21.4939 18.049 20.9339 17.759 20.1539 18.139C19.4039 18.549 18.6039 18.749 17.7439 18.749ZM17.7439 23.539C15.8639 23.539 14.1139 22.999 12.6339 22.049C11.9339 21.629 11.3339 21.899 11.0439 22.399C10.8039 22.849 10.8539 23.459 11.3739 23.819C13.2039 25.019 15.4239 25.609 17.7439 25.609C20.0739 25.609 22.2839 25.019 24.1139 23.819C24.6339 23.459 24.6739 22.849 24.4439 22.399C24.1539 21.899 23.5539 21.629 22.8639 22.069C21.3839 22.999 19.6339 23.539 17.7439 23.539Z" /></svg>