
<svg
    viewBox="0 0 32.34765625 25.361328125"
    xmlns="http://www.w3.org/2000/svg"
>
    <path
        fill="inherit"
        d="M0.0037 23.5523C0.0037 24.5723 0.7937 25.3623 1.8137 25.3623H3.4137C4.4437 25.3623 5.2337 24.5723 5.2337 23.5523V21.5723H27.1237V23.5523C27.1237 24.5723 27.9037 25.3623 28.9337 25.3623H30.5437C31.5637 25.3623 32.3437 24.5723 32.3437 23.5523V14.4223C32.3437 12.1223 32.0337 10.7423 30.6237 9.2023L29.2437 7.7123L27.8037 3.5923C27.0337 1.3523 25.5137 0.4123 23.6237 0.1923C22.7137 0.0823 19.7137 0.0023 16.1737 0.0023C12.6437 0.0023 9.6537 0.0823 8.7337 0.1923C6.8337 0.4123 5.3137 1.3523 4.5437 3.5923L3.1037 7.7123L1.7337 9.2023C0.3137 10.7423 0.0037 12.1223 0.0037 14.4223ZM6.8637 7.7823C6.1937 7.7823 5.9737 7.3023 6.1837 6.7023L7.0237 4.1423C7.3437 3.2023 7.8437 2.9023 8.6637 2.7923C9.6237 2.6523 12.2737 2.5523 16.1737 2.5523C20.0837 2.5523 22.7237 2.6523 23.6637 2.7923C24.5037 2.9023 24.9937 3.2023 25.3037 4.1423L26.1637 6.7023C26.3737 7.3023 26.1437 7.7823 25.4837 7.7823ZM4.9537 16.3223C4.1037 16.3223 3.4837 15.7123 3.4837 14.8723V12.7423C3.4837 11.9123 4.1037 11.3023 4.9537 11.3023C5.7837 11.3023 6.3937 11.8923 6.3937 12.7423V14.8723C6.3937 15.7223 5.7837 16.3223 4.9537 16.3223ZM27.5337 16.3223C26.7137 16.3223 26.0837 15.7123 26.0837 14.8723V12.7423C26.0837 11.9123 26.7137 11.3023 27.5337 11.3023C28.3837 11.3023 28.9937 11.8923 28.9937 12.7423V14.8723C28.9937 15.7223 28.3837 16.3223 27.5337 16.3223ZM13.0737 15.6723C12.4037 15.6723 11.9537 15.2323 11.9537 14.4923V13.1123C11.9537 12.4023 12.4037 11.9623 13.0737 11.9623H19.2337C19.9237 11.9623 20.3737 12.4023 20.3737 13.1123V14.4923C20.3737 15.2323 19.9237 15.6723 19.2337 15.6723Z"
        fillRule="evenodd"
        clipRule="evenodd"
    />
</svg>
        