
<svg
    viewBox={0 0 18.78515625 37.43359375}
    xmlns="http://www.w3.org/2000/svg"
>
    <path
        fill="inherit"
        d="M9.3937 2.0479C11.8137 2.0479 14.0037 2.9379 15.6837 4.4479C16.2737 4.9479 16.8837 4.9879 17.2937 4.5979C17.7437 4.1379 17.7237 3.4879 17.2437 2.9779C15.2037 0.9479 12.3737 -0.0021 9.3937 -0.0021C6.4237 -0.0021 3.5937 0.9479 1.5537 2.9779C1.0637 3.4879 1.0437 4.1379 1.5037 4.5979C1.9037 4.9879 2.5137 4.9479 3.1037 4.4479C4.7837 2.9379 6.9837 2.0479 9.3937 2.0479ZM9.3937 6.8479C10.5937 6.8479 11.6437 7.2179 12.4537 7.8879C13.1537 8.3779 13.7237 8.3579 14.1137 7.9579C14.5337 7.5479 14.5037 6.9479 14.0637 6.4979C13.2337 5.6579 11.3937 4.7979 9.3937 4.7979C7.4137 4.7979 5.5637 5.6579 4.7137 6.4979C4.2837 6.9479 4.2537 7.5479 4.6737 7.9579C5.0537 8.3579 5.6337 8.3779 6.3337 7.8879C7.1537 7.2179 8.2037 6.8479 9.3937 6.8479ZM9.3937 37.4379C14.6437 37.4379 17.0037 36.2479 17.0037 33.2179V21.2879H17.5837C18.2637 21.2879 18.7837 20.7679 18.7837 20.1279V19.6079C18.7837 18.9479 18.2637 18.4479 17.5837 18.4479H17.0037V15.4779C17.0037 12.3579 14.1237 10.5179 9.3937 10.5179C4.6637 10.5179 1.7937 12.3579 1.7937 15.4779V18.4479H1.2037C0.5337 18.4479 0.0037 18.9479 0.0037 19.6079V20.1279C0.0037 20.7679 0.5337 21.2879 1.2037 21.2879H1.7937V33.2179C1.7937 36.2479 4.1437 37.4379 9.3937 37.4379ZM9.3937 21.7679C8.4337 21.7679 6.8537 21.8479 6.3037 21.8479C5.4737 21.8479 5.0837 21.4879 5.0037 20.6079L4.8237 18.6379C4.6937 17.0079 5.7537 16.3879 9.3937 16.3879C13.0337 16.3879 14.1137 17.0079 13.9737 18.6379L13.7937 20.6079C13.7137 21.4879 13.3437 21.8479 12.4837 21.8479C11.9537 21.8479 10.4137 21.7679 9.3937 21.7679ZM9.3937 33.0679C5.7537 33.0679 4.6237 32.5379 4.8637 30.8579L5.0137 29.8979C5.2237 28.5579 6.2637 28.1379 9.3937 28.1379C12.5337 28.1379 13.5637 28.5579 13.7837 29.8979L13.9337 30.8579C14.1937 32.5379 13.0337 33.0679 9.3937 33.0679Z"
        fillRule="evenodd"
        clipRule="evenodd"
    />
</svg>
        