
<svg
    viewBox={0 0 44.283203125 27.34375}
    xmlns="http://www.w3.org/2000/svg"
>
    <path
        fill="inherit"
        d="M9.1737 7.2893H9.8937C10.3637 7.2893 10.7037 6.9493 10.7037 6.4793V0.8093C10.7037 0.3393 10.3637 -0.0007 9.8937 -0.0007H9.1737C8.7137 -0.0007 8.3637 0.3393 8.3637 0.8093V6.4793C8.3637 6.9493 8.7137 7.2893 9.1737 7.2893ZM34.3737 7.2893H35.1137C35.5737 7.2893 35.9137 6.9493 35.9137 6.4793V0.8093C35.9137 0.3393 35.5737 -0.0007 35.1137 -0.0007H34.3737C33.9237 -0.0007 33.5737 0.3393 33.5737 0.8093V6.4793C33.5737 6.9493 33.9237 7.2893 34.3737 7.2893ZM22.1237 26.0593C26.9637 26.0593 29.1337 24.9693 29.1337 22.1793V11.1693H29.6837C30.2937 11.1693 30.7937 10.6893 30.7737 10.0993L30.7637 9.6293C30.7337 9.0193 30.2937 8.5593 29.6637 8.5593H29.1337V5.8193C29.1337 2.9493 26.4937 1.2593 22.1337 1.2693C17.8037 1.2693 15.1437 2.9393 15.1437 5.8193V8.5593H14.6137C13.9837 8.5593 13.5337 9.0193 13.5237 9.6093L13.5037 10.0993C13.4937 10.6893 13.9837 11.1693 14.6037 11.1693H15.1437V22.1793C15.1437 24.9693 17.3037 26.0593 22.1237 26.0593ZM22.1337 11.6093C21.2037 11.6193 19.7837 11.6993 19.2937 11.6893C18.4937 11.6993 18.1737 11.3893 18.0837 10.5593L17.9237 8.7493C17.7837 7.2593 18.7837 6.6693 22.1437 6.6693C25.5137 6.6993 26.4837 7.2593 26.3637 8.7393L26.2137 10.5693C26.1237 11.3893 25.7537 11.6993 24.9937 11.6993C24.5137 11.6893 23.0237 11.6193 22.1337 11.6093ZM0.0037 16.7093C0.0037 17.4493 0.6037 17.7593 1.2437 17.3593L6.0937 14.4093C6.7137 14.0293 6.7037 13.2993 6.0937 12.9193L1.2337 9.9393C0.5837 9.5393 0.0037 9.8893 0.0037 10.6093ZM44.2837 16.7093V10.6093C44.2837 9.8893 43.6937 9.5593 43.0437 9.9393L38.1837 12.9193C37.5837 13.3193 37.5737 14.0093 38.1837 14.4093L43.0437 17.3593C43.6937 17.7493 44.2837 17.4493 44.2837 16.7093ZM9.1737 17.3093H9.8937C10.3637 17.3093 10.7037 16.9693 10.7037 16.4993V10.8393C10.7037 10.3793 10.3637 10.0393 9.8937 10.0393H9.1737C8.7137 10.0393 8.3637 10.3793 8.3637 10.8393V16.4993C8.3637 16.9693 8.7137 17.3093 9.1737 17.3093ZM34.3737 17.3093H35.1137C35.5737 17.3093 35.9137 16.9693 35.9137 16.4993V10.8393C35.9137 10.3793 35.5737 10.0393 35.1137 10.0393H34.3737C33.9237 10.0393 33.5737 10.3793 33.5737 10.8393V16.4993C33.5737 16.9693 33.9237 17.3093 34.3737 17.3093ZM22.1337 22.0793C18.8037 22.0493 17.7237 21.5693 17.9637 20.0193L18.0837 19.1393C18.2837 17.9093 19.2537 17.5293 22.1437 17.5393C25.0337 17.5293 26.0037 17.8993 26.1937 19.1393L26.3137 20.0293C26.5537 21.5593 25.4837 22.0493 22.1337 22.0793ZM9.1737 27.3393H9.8937C10.3637 27.3393 10.7037 26.9993 10.7037 26.5493V20.8593C10.7037 20.3993 10.3637 20.0593 9.8937 20.0593H9.1737C8.7137 20.0593 8.3637 20.3993 8.3637 20.8593V26.5493C8.3637 26.9993 8.7137 27.3393 9.1737 27.3393ZM34.3737 27.3393H35.1137C35.5737 27.3393 35.9137 26.9993 35.9137 26.5493V20.8593C35.9137 20.3993 35.5737 20.0593 35.1137 20.0593H34.3737C33.9237 20.0593 33.5737 20.3993 33.5737 20.8593V26.5493C33.5737 26.9993 33.9237 27.3393 34.3737 27.3393Z"
        fillRule="evenodd"
        clipRule="evenodd"
    />
</svg>
        