
<svg
    viewBox="0 0 24.3359375 22.134765625"
    xmlns="http://www.w3.org/2000/svg"
>
    <path
        fill="inherit"
        d="M0.0037 16.9853V19.1853H9.7937C10.5237 20.9353 12.2337 22.1353 14.2837 22.1353C16.3337 22.1353 18.0437 20.9353 18.7737 19.1853H20.0037C22.9937 19.1853 24.3337 17.7553 24.3337 14.5853V10.8053C24.3337 8.2553 23.1237 6.6753 20.5237 5.8253L18.3437 5.0953C15.5837 2.7453 11.7837 -0.0047 6.6537 -0.0047H4.5837C2.7637 -0.0047 1.2837 0.0553 0.0037 0.2153V2.4353C1.2337 2.2553 2.6937 2.2053 4.5837 2.2053H6.6537C10.2437 2.2053 13.0837 3.5253 16.6137 6.6153C17.2437 7.1753 17.5937 7.3253 18.4137 7.5853L19.8537 8.0553C21.4237 8.5553 22.1337 9.3653 22.1337 10.8053V14.5853C22.1337 16.2253 21.4737 16.9853 20.0037 16.9853H19.1437C18.9937 14.3953 16.9137 12.4153 14.2837 12.4153C11.6637 12.4153 9.5837 14.3953 9.4337 16.9853ZM7.2237 8.5353C7.5337 8.8753 7.9337 8.8753 8.2437 8.5353L10.5037 5.9653C10.9637 5.4553 10.6637 4.7753 9.9937 4.7753H5.4837C4.7837 4.7753 4.5237 5.4953 4.9637 5.9653ZM5.4937 11.2253H14.2837C14.7137 11.2253 15.0437 10.8853 15.0437 10.4553C15.0437 10.0353 14.7137 9.7053 14.2837 9.7053H5.4937C5.0737 9.7053 4.7437 10.0353 4.7437 10.4553C4.7437 10.8853 5.0737 11.2253 5.4937 11.2253ZM14.2837 20.0653C12.7137 20.0653 11.4837 18.8353 11.4837 17.2853C11.4837 15.7053 12.7137 14.4753 14.2837 14.4753C15.8437 14.4753 17.0737 15.7053 17.0737 17.2853C17.0737 18.8353 15.8437 20.0653 14.2837 20.0653Z"
        fillRule="evenodd"
        clipRule="evenodd"
    />
</svg>
        