
<svg
    viewBox={0 0 27.59004871888104 39.31694479227596}
    xmlns="http://www.w3.org/2000/svg"
>
    <path
        fill="inherit"
        d="M18.1839 26.9173C23.4439 26.9173 25.8039 25.7273 25.8039 22.7073V10.7773H26.3839C27.0739 10.7773 27.5939 10.2573 27.5939 9.6073V9.0873C27.5939 8.4373 27.0739 7.9273 26.3839 7.9273H25.8039V4.9673C25.8039 1.8473 22.9239 -0.0027 18.1839 -0.0027C13.4639 -0.0027 10.5939 1.8473 10.5939 4.9673V7.9273H10.0039C9.3239 7.9273 8.8039 8.4373 8.8039 9.0873V9.6073C8.8039 10.2573 9.3239 10.7773 10.0039 10.7773H10.5939V22.7073C10.5939 25.7273 12.9339 26.9173 18.1839 26.9173ZM18.1839 24.7873C14.2739 24.7873 12.7539 24.1873 12.7539 22.6373V4.9673C12.7539 3.1873 14.6439 2.1573 18.1839 2.1573C21.7539 2.1573 23.6539 3.1873 23.6539 4.9673V22.6373C23.6539 24.1873 22.1239 24.7873 18.1839 24.7873ZM18.1939 11.3373C19.1239 11.3373 20.6839 11.4173 21.1939 11.4173C22.0239 11.4173 22.3939 11.0773 22.4639 10.2173L22.6239 8.2973C22.7639 6.7273 21.7239 6.1273 18.1939 6.1273C14.6739 6.1273 13.6339 6.7273 13.7639 8.2973L13.9339 10.2173C14.0039 11.0773 14.3839 11.4173 15.2039 11.4173C15.7239 11.4173 17.2139 11.3373 18.1939 11.3373ZM18.1939 22.3173C21.7239 22.3173 22.8439 21.7973 22.6039 20.1673L22.4539 19.2373C22.2439 17.9373 21.2339 17.5273 18.1939 17.5273C15.1639 17.5273 14.1539 17.9373 13.9439 19.2373L13.8039 20.1673C13.5539 21.7973 14.6739 22.3173 18.1939 22.3173ZM9.5739 31.6673L12.1139 31.4573C12.3339 31.4473 12.5339 31.3773 12.6739 31.2573C12.9439 30.9773 12.9239 30.5973 12.6339 30.3073L8.9939 26.6773C8.7139 26.3873 8.3439 26.3773 8.0639 26.6473C7.9339 26.7673 7.8639 26.9873 7.8439 27.1973L7.6439 29.7473ZM6.1939 38.7873L9.9239 35.0573C10.6239 34.3573 10.6339 33.5373 9.9439 32.8373L6.4839 29.3673C5.7739 28.6673 4.9939 28.6473 4.2939 29.3573L0.5239 33.1173C-0.1461 33.7873 -0.1961 34.6273 0.5039 35.3373L3.9639 38.7973C4.6639 39.4973 5.4939 39.4873 6.1939 38.7873Z"
        fillRule="evenodd"
        clipRule="evenodd"
    />
</svg>
        