<svg viewBox="0 0 25.67578125 35.30078125" xmlns="http://www.w3.org/2000/svg"><path d="M9.8454 35.3015C16.7454 35.3015 19.6854 33.7815 19.6854 30.0615V24.1015L23.7354 28.1415C24.1854 28.5915 24.8954 28.5715 25.3454 28.1415C25.7854 27.6815 25.7854 26.9515 25.3454 26.5115L19.6854 20.8915V6.3315C19.6854 2.3415 16.0654 0.0015 9.8454 0.0015C3.6354 0.0015 -0.0046 2.3415 -0.0046 6.3315V30.0615C-0.0046 33.7815 2.9554 35.3015 9.8454 35.3015ZM9.8554 14.5615C8.5154 14.5615 6.4654 14.6515 5.7454 14.6515C4.6854 14.6515 4.2254 14.2415 4.1154 13.1515L3.8954 10.5015C3.7054 8.4615 5.1454 7.6415 9.8554 7.6415C14.5654 7.6415 15.9954 8.4615 15.8054 10.5015L15.5854 13.1515C15.4754 14.2415 15.0254 14.6515 13.9554 14.6515C13.2454 14.6515 11.1154 14.5615 9.8554 14.5615ZM9.8554 29.6115C5.0954 29.6115 3.6554 28.9015 3.9554 26.8215L4.1254 25.5415C4.3654 23.8615 5.7654 23.2815 9.8554 23.2815C13.9354 23.2815 15.3354 23.8615 15.5754 25.5415L15.7454 26.8215C16.0554 28.9015 14.6054 29.6115 9.8554 29.6115Z" /></svg>