<svg viewBox="0 0 26.66015625 32.771484375" xmlns="http://www.w3.org/2000/svg"><path d="M13.2737 2.2327C16.2237 2.2327 18.8937 3.2527 20.9337 5.0827C21.5037 5.5827 22.1337 5.7127 22.6237 5.2727C23.1437 4.8427 23.1437 4.0727 22.5537 3.5427C20.0937 1.2727 16.8137 0.0027 13.2737 0.0027C9.7337 0.0027 6.4637 1.2727 3.9937 3.5427C3.4137 4.0727 3.4137 4.8427 3.9237 5.2727C4.4337 5.7127 5.0537 5.5827 5.6237 5.0827C7.6737 3.2527 10.3337 2.2327 13.2737 2.2327ZM13.3037 7.6927C14.7237 7.6927 16.0537 8.1027 17.0637 8.9327C17.6537 9.3627 18.2637 9.5427 18.7537 9.1027C19.2737 8.6527 19.2937 7.8327 18.6637 7.3527C17.1837 6.1627 15.3137 5.4727 13.3037 5.4727C11.2937 5.4727 9.4237 6.1627 7.9437 7.3527C7.3137 7.8327 7.3237 8.6527 7.8437 9.1027C8.3437 9.5427 8.9437 9.3527 9.5437 8.9327C10.5937 8.1327 11.8837 7.6927 13.3037 7.6927ZM13.3337 29.6227C16.1237 29.6227 19.6437 29.5327 22.1437 29.3827V31.3127C22.1437 32.1427 22.7937 32.7727 23.6237 32.7727H25.1737C26.0037 32.7727 26.6637 32.1427 26.6637 31.3127V24.7827C26.6637 22.9027 26.2737 21.8427 25.2337 20.5127L24.2937 19.2927C23.8837 17.2827 23.1437 15.1627 22.7637 14.3427C22.1437 13.0727 21.0037 12.3027 19.5137 12.1227C18.7737 12.0327 16.2237 11.9627 13.3337 11.9627C10.4337 11.9627 7.8937 12.0327 7.1537 12.1227C5.6637 12.3027 4.4937 13.0727 3.8937 14.3427C3.5137 15.1627 2.7737 17.2827 2.3637 19.2927L1.4237 20.5127C0.3837 21.8427 0.0037 22.9027 0.0037 24.7827V31.3127C0.0037 32.1427 0.6537 32.7727 1.4937 32.7727H3.0337C3.8737 32.7727 4.5137 32.1427 4.5137 31.3127V29.3827C7.0137 29.5327 10.5437 29.6227 13.3337 29.6227ZM4.7137 18.3627C4.9737 17.1327 5.5237 15.5427 5.8937 14.8927C6.1937 14.3527 6.5237 14.1327 7.1237 14.0427C7.9737 13.9427 9.8737 13.8627 13.3337 13.8627C16.7937 13.8627 18.6937 13.9227 19.5337 14.0427C20.1437 14.1327 20.4537 14.3527 20.7637 14.8927C21.1537 15.5327 21.6437 17.1327 21.9437 18.3627C22.0537 18.7727 21.8737 18.9327 21.4537 18.9127C19.5937 18.7727 17.3737 18.6627 13.3337 18.6627C9.2837 18.6627 7.0637 18.7727 5.2137 18.9127C4.7837 18.9327 4.6237 18.7727 4.7137 18.3627ZM5.2637 26.6227C4.2537 26.6227 3.4637 25.8427 3.4637 24.8127C3.4637 23.7927 4.2537 23.0227 5.2637 23.0227C6.2937 23.0227 7.0537 23.7927 7.0537 24.8127C7.0537 25.8427 6.2937 26.6227 5.2637 26.6227ZM21.3937 26.6227C20.3737 26.6227 19.6037 25.8427 19.6037 24.8127C19.6037 23.7927 20.3737 23.0227 21.3937 23.0227C22.4037 23.0227 23.1837 23.7927 23.1837 24.8127C23.1837 25.8427 22.4037 26.6227 21.3937 26.6227ZM10.3737 26.1727C9.6137 26.1727 9.0737 25.6527 9.0737 24.8827C9.0737 24.1027 9.6137 23.5827 10.3737 23.5827H16.2837C17.0537 23.5827 17.5837 24.1027 17.5837 24.8827C17.5837 25.6527 17.0537 26.1727 16.2837 26.1727Z" /></svg>