
<svg
    viewBox="0 0 26.646484375 32.78515625"
    xmlns="http://www.w3.org/2000/svg"
>
    <path
        fill="inherit"
        d="M13.2637 2.2263C16.2137 2.2263 18.8837 3.2563 20.9137 5.0863C21.4737 5.5963 22.1237 5.7163 22.6137 5.2863C23.1337 4.8363 23.1337 4.0863 22.5437 3.5563C20.0837 1.2863 16.8037 -0.0037 13.2637 -0.0037C9.7237 -0.0037 6.4437 1.2863 3.9737 3.5563C3.4037 4.0863 3.4037 4.8363 3.9137 5.2863C4.4137 5.7163 5.0437 5.5963 5.6037 5.0863C7.6437 3.2563 10.3237 2.2263 13.2637 2.2263ZM13.2937 7.7063C14.7137 7.7063 16.0237 8.1163 17.0537 8.9463C17.6337 9.3663 18.2537 9.5563 18.7437 9.1163C19.2537 8.6663 19.2637 7.8463 18.6437 7.3563C17.1737 6.1663 15.3037 5.4863 13.2937 5.4863C11.2837 5.4863 9.4037 6.1663 7.9337 7.3563C7.3037 7.8463 7.3137 8.6663 7.8337 9.1163C8.3237 9.5563 8.9237 9.3663 9.5337 8.9463C10.5837 8.1463 11.8637 7.7063 13.2937 7.7063ZM0.0037 27.2163C0.0037 28.0563 0.2637 28.7763 0.7637 29.2563V31.3263C0.7637 32.1463 1.4237 32.7863 2.2437 32.7863H3.5537C4.3937 32.7863 5.0337 32.1463 5.0337 31.3263V29.9263H21.6137V31.3263C21.6137 32.1463 22.2437 32.7863 23.0737 32.7863H24.4037C25.2237 32.7863 25.8637 32.1463 25.8637 31.3263V29.2763C26.3737 28.7763 26.6437 28.0563 26.6437 27.2163V23.9163C26.6437 22.0363 26.3837 20.8363 25.1837 19.5363L24.0937 18.3463L22.9537 15.0663C22.3037 13.1663 20.9737 12.3463 19.3737 12.1663C18.6237 12.0763 16.1737 12.0063 13.3137 12.0063C10.4437 12.0063 8.0237 12.0763 7.2637 12.1663C5.6637 12.3463 4.3437 13.1763 3.6937 15.0663L2.5337 18.3463L1.4637 19.5363C0.2637 20.8463 0.0037 22.0363 0.0037 23.9163ZM1.8837 26.7863V23.9163C1.8837 22.4263 2.0537 21.7363 2.9437 20.7163L4.2637 19.1963L5.4137 15.8763C5.8537 14.6063 6.5037 14.2063 7.4937 14.0863C8.1937 13.9963 10.4037 13.9063 13.3137 13.9063C16.2237 13.9063 18.4537 13.9963 19.1537 14.0863C20.1437 14.2063 20.7937 14.6063 21.2337 15.8763L22.3637 19.1963L23.7037 20.7163C24.5937 21.7363 24.7637 22.4263 24.7637 23.9163V26.7863C24.7637 27.6063 24.4837 28.0363 23.6637 28.0363H2.9837C2.1637 28.0363 1.8837 27.6063 1.8837 26.7863ZM6.2037 18.8963H20.4237C20.9437 18.8963 21.1137 18.5263 20.9437 18.0763L20.3037 16.1163C20.0537 15.4063 19.6637 15.1463 19.0137 15.0663C18.2937 14.9563 16.2937 14.8763 13.3137 14.8763C10.3337 14.8763 8.3437 14.9563 7.6137 15.0663C6.9837 15.1463 6.5937 15.4063 6.3437 16.1163L5.6837 18.0763C5.5237 18.5263 5.7037 18.8963 6.2037 18.8963ZM4.7737 25.3163C5.4137 25.3163 5.8937 24.8563 5.8937 24.1963V22.5763C5.8937 21.9163 5.4137 21.4663 4.7737 21.4663C4.1337 21.4663 3.6537 21.9263 3.6537 22.5763V24.1963C3.6537 24.8463 4.1337 25.3163 4.7737 25.3163ZM21.9737 25.3163C22.6237 25.3163 23.1037 24.8563 23.1037 24.1963V22.5763C23.1037 21.9163 22.6237 21.4663 21.9737 21.4663C21.3537 21.4663 20.8637 21.9463 20.8637 22.5763V24.1963C20.8637 24.8463 21.3537 25.3163 21.9737 25.3163ZM10.9537 24.8263H15.6537C16.1737 24.8263 16.5337 24.4863 16.5337 23.9163V22.8463C16.5337 22.2963 16.1737 21.9663 15.6537 21.9663H10.9537C10.4337 21.9663 10.0937 22.2963 10.0937 22.8463V23.9163C10.0937 24.4863 10.4337 24.8263 10.9537 24.8263Z"
        fillRule="evenodd"
        clipRule="evenodd"
    />
</svg>
        