
<svg
    viewBox="0 0 48.712890625 22.01171875"
    xmlns="http://www.w3.org/2000/svg"
>
    <path
        fill="inherit"
        d="M4.3437 19.199H5.2137C5.1237 18.769 5.0737 18.349 5.0737 17.909C5.0737 14.729 7.5737 12.219 10.7737 12.219C13.9737 12.219 16.4737 14.729 16.4737 17.909C16.4737 18.349 16.4237 18.769 16.3237 19.199H32.3637C32.2837 18.769 32.2237 18.349 32.2237 17.909C32.2237 14.729 34.7437 12.219 37.9237 12.219C41.1237 12.219 43.6437 14.729 43.6437 17.909C43.6437 18.349 43.5837 18.769 43.4937 19.199H44.3637C47.3637 19.199 48.7137 17.769 48.7137 14.599V10.819C48.7137 8.269 47.4837 6.689 44.8837 5.839L42.7137 5.109C39.9537 2.759 36.1437 0.009 31.0237 0.009H28.9437C23.3637 0.009 21.0137 0.579 17.6637 2.679L12.7937 5.729L8.2037 1.119C7.4137 0.329 6.3737 -0.001 5.1237 -0.001H1.0137C0.3837 -0.001 0.0037 0.379 0.0037 0.969C0.0037 1.559 0.3837 1.969 1.0137 1.969H5.3737C5.8837 1.969 6.2737 2.089 6.6037 2.419L10.5237 6.339L6.0737 6.889C2.2837 7.359 0.0037 9.709 0.0037 12.929V14.679C0.0037 17.799 1.3837 19.199 4.3437 19.199ZM10.7737 22.009C13.0837 22.009 14.8937 20.209 14.8937 17.909C14.8937 15.609 13.0837 13.809 10.7737 13.809C8.4737 13.809 6.6737 15.609 6.6737 17.909C6.6737 20.209 8.4737 22.009 10.7737 22.009ZM37.9237 22.009C40.2337 22.009 42.0437 20.209 42.0437 17.909C42.0437 15.609 40.2337 13.809 37.9237 13.809C35.6337 13.809 33.8237 15.609 33.8237 17.909C33.8237 20.209 35.6337 22.009 37.9237 22.009Z"
        fillRule="evenodd"
        clipRule="evenodd"
    />
</svg>
        