
<svg
    viewBox="0 0 27.706800161572325 30.255859375"
    xmlns="http://www.w3.org/2000/svg"
>
    <path
        fill="inherit"
        d="M4.9068 15.3522C4.9068 16.0222 5.4268 16.5322 6.1168 16.5322H7.1568C7.8268 16.5322 8.3268 16.0222 8.3268 15.3522V14.0722H22.6068V15.3522C22.6068 16.0222 23.1068 16.5322 23.7768 16.5322H24.8168C25.4968 16.5322 26.0068 16.0222 26.0068 15.3522V9.3922C26.0068 7.9022 25.8268 6.9822 24.8868 5.9922L23.9868 5.0222L23.0568 2.3422C22.5468 0.8722 21.5468 0.2722 20.3168 0.1222C19.7168 0.0422 17.7768 0.0022 15.4668 0.0022C13.1568 0.0022 11.1968 0.0422 10.6168 0.1222C9.3868 0.2722 8.3668 0.8722 7.8768 2.3422L6.9468 5.0222L6.0468 5.9922C5.1068 6.9822 4.9068 7.9022 4.9068 9.3922ZM9.3968 5.0822C8.9768 5.0822 8.8168 4.7622 8.9568 4.3622L9.5068 2.6922C9.7068 2.0922 10.0368 1.8822 10.5668 1.8022C11.1868 1.7322 12.9068 1.6722 15.4668 1.6722C18.0268 1.6722 19.7268 1.7322 20.3468 1.8022C20.8768 1.8822 21.2068 2.0922 21.4168 2.6922L21.9768 4.3622C22.1068 4.7622 21.9568 5.0822 21.5368 5.0822ZM8.1468 10.6322C7.5868 10.6322 7.1768 10.2422 7.1768 9.6822V8.2822C7.1768 7.7522 7.5868 7.3522 8.1468 7.3522C8.6968 7.3522 9.0968 7.7422 9.0968 8.2822V9.6822C9.0968 10.2422 8.6968 10.6322 8.1468 10.6322ZM22.8668 10.6322C22.3268 10.6322 21.9168 10.2422 21.9168 9.6822V8.2822C21.9168 7.7622 22.3268 7.3522 22.8668 7.3522C23.4268 7.3522 23.8168 7.7422 23.8168 8.2822V9.6822C23.8168 10.2422 23.4268 10.6322 22.8668 10.6322ZM13.4268 10.2122C12.9868 10.2122 12.7168 9.9122 12.7168 9.4322V8.5422C12.7168 8.0822 12.9868 7.7922 13.4268 7.7922H17.4668C17.8968 7.7922 18.1968 8.0822 18.1968 8.5422V9.4322C18.1968 9.9122 17.8968 10.2122 17.4668 10.2122ZM11.9068 18.8922L10.8768 18.1122C10.4868 17.8422 10.0568 17.7022 9.5868 17.7022H7.3768C6.8268 17.7022 6.6168 18.3622 7.0568 18.6722L9.1468 20.2022C9.8068 20.6822 9.7268 21.3122 8.9568 21.6522L2.1668 24.5922C-0.4632 25.7122 -0.7032 27.4422 1.4768 29.0522L2.5168 29.8222C2.8968 30.1022 3.3368 30.2422 3.8168 30.2422H6.0168C6.5768 30.2422 6.7668 29.5822 6.3468 29.2722L4.2568 27.7222C3.5968 27.2622 3.6768 26.6222 4.4368 26.2922L11.2368 23.3422C13.8568 22.2122 14.0968 20.5122 11.9068 18.8922ZM26.2268 18.9222L25.1868 18.1422C24.8068 17.8522 24.3668 17.7322 23.8968 17.7322H21.6868C21.1368 17.7322 20.9368 18.3722 21.3768 18.7022L23.4668 20.2322C24.1068 20.7022 24.0268 21.3422 23.2768 21.6722L16.4668 24.6222C13.8568 25.7422 13.6068 27.4522 15.7968 29.0622L16.8368 29.8322C17.2168 30.1222 17.6568 30.2522 18.1168 30.2522H20.3368C20.8768 30.2522 21.0868 29.6022 20.6468 29.2822L18.5568 27.7522C17.9168 27.2722 17.9968 26.6422 18.7468 26.3022L25.5568 23.3622C28.1668 22.2422 28.4168 20.5222 26.2268 18.9222Z"
        fillRule="evenodd"
        clipRule="evenodd"
    />
</svg>
        