
<svg
    viewBox="0 0 25.443359375 22.01171875"
    xmlns="http://www.w3.org/2000/svg"
>
    <path
        fill="inherit"
        d="M1.0137 1.969H5.3737C5.8837 1.969 6.2737 2.089 6.6037 2.419L10.5237 6.339L6.0737 6.889C2.2837 7.359 0.0037 9.709 0.0037 12.929V14.679C0.0037 17.799 1.3837 19.199 4.3437 19.199H5.2137C5.1237 18.769 5.0737 18.349 5.0737 17.909C5.0737 14.729 7.5737 12.219 10.7737 12.219C13.9737 12.219 16.4737 14.729 16.4737 17.909C16.4737 18.349 16.4237 18.769 16.3237 19.199H25.4437V0.139C22.1637 0.369 20.2037 1.079 17.6637 2.679L12.7937 5.729L8.2037 1.119C7.4137 0.329 6.3737 -0.001 5.1237 -0.001H1.0137C0.3837 -0.001 0.0037 0.379 0.0037 0.969C0.0037 1.559 0.3837 1.969 1.0137 1.969ZM10.7737 22.009C13.0837 22.009 14.8937 20.209 14.8937 17.909C14.8937 15.609 13.0837 13.809 10.7737 13.809C8.4737 13.809 6.6737 15.609 6.6737 17.909C6.6737 20.209 8.4737 22.009 10.7737 22.009Z"
        fillRule="evenodd"
        clipRule="evenodd"
    />
</svg>
        