<svg viewBox="0 0 51.529296875 32.771484375" xmlns="http://www.w3.org/2000/svg"><path d="M25.7327 2.2298C28.6727 2.2298 31.3327 3.2498 33.3727 5.0898C33.9427 5.5798 34.5727 5.7098 35.0727 5.2798C35.5927 4.8398 35.5927 4.0698 35.0027 3.5398C32.5427 1.2698 29.2727 -0.0002 25.7327 -0.0002C22.1727 -0.0002 18.9127 1.2698 16.4427 3.5398C15.8627 4.0698 15.8627 4.8398 16.3827 5.2798C16.8727 5.7098 17.5027 5.5798 18.0727 5.0898C20.1127 3.2498 22.7727 2.2298 25.7327 2.2298ZM25.7427 7.6998C27.1627 7.6998 28.4927 8.1098 29.5027 8.9298C30.0927 9.3698 30.7027 9.5398 31.2027 9.1098C31.7227 8.6498 31.7327 7.8298 31.1027 7.3598C29.6227 6.1698 27.7527 5.4698 25.7427 5.4698C23.7327 5.4698 21.8627 6.1698 20.3827 7.3598C19.7727 7.8298 19.7827 8.6498 20.2927 9.1098C20.7827 9.5398 21.3927 9.3498 21.9827 8.9298C23.0327 8.1298 24.3227 7.6998 25.7427 7.6998ZM14.6927 32.7698H16.0127C16.8327 32.7698 17.4727 32.1398 17.4727 31.3398V29.5998C19.8827 29.7498 23.1027 29.8298 25.7727 29.8298C28.4527 29.8298 31.6627 29.7498 34.0527 29.5998V31.3398C34.0527 32.1398 34.7027 32.7698 35.5327 32.7698H36.8427C37.6627 32.7698 38.2827 32.1398 38.2827 31.3398V28.7498C38.8127 28.3098 39.1027 27.6598 39.1027 26.7998V24.7598C39.1027 22.8598 38.7227 21.7498 37.6627 20.4098L36.7627 19.2598C36.3527 17.2998 35.6427 15.2198 35.2427 14.4198C34.6327 13.0998 33.4127 12.3298 31.8927 12.1298C31.1627 12.0298 28.7527 11.9798 25.7727 11.9798C22.8227 11.9798 20.4027 12.0498 19.6627 12.1298C18.1427 12.3198 16.9227 13.0998 16.3127 14.4198C15.9327 15.2198 15.2027 17.2998 14.7927 19.2598L13.8927 20.4098C12.8527 21.7498 12.4527 22.8598 12.4527 24.7598V26.7998C12.4527 27.6398 12.7427 28.2898 13.2527 28.7398V31.3398C13.2527 32.1398 13.8727 32.7698 14.6927 32.7698ZM46.2527 31.7298C46.7027 32.2498 47.4527 32.2398 47.9927 31.6598C50.2627 29.1998 51.5327 25.9198 51.5327 22.3798C51.5327 18.8398 50.2627 15.5698 47.9927 13.1098C47.4527 12.5198 46.7027 12.5198 46.2527 13.0298C45.8127 13.5398 45.9527 14.1598 46.4427 14.7198C48.2927 16.7598 49.3027 19.4398 49.3027 22.3798C49.3027 25.3298 48.2927 27.9998 46.4427 30.0398C45.9527 30.5998 45.8127 31.2398 46.2527 31.7298ZM5.2727 31.7298C5.7127 31.2398 5.5827 30.5998 5.0827 30.0398C3.2527 27.9998 2.2327 25.3298 2.2327 22.3798C2.2327 19.4398 3.2527 16.7598 5.0827 14.7198C5.5827 14.1598 5.7127 13.5398 5.2727 13.0298C4.8427 12.5198 4.0727 12.5198 3.5527 13.1098C1.2827 15.5698 0.0027 18.8398 0.0027 22.3798C0.0027 25.9198 1.2827 29.1998 3.5527 31.6598C4.0727 32.2398 4.8427 32.2498 5.2727 31.7298ZM25.7727 27.9698C21.9327 27.9698 17.1427 27.8098 15.3927 27.5898C14.5627 27.4798 14.3127 27.1398 14.3127 26.3698V24.7598C14.3127 23.2798 14.5227 22.6298 15.3527 21.5598L16.5127 20.0398C16.8027 18.4698 17.5227 16.2398 17.9827 15.2398C18.3227 14.5298 18.9227 14.1098 19.8627 14.0098C20.5727 13.9198 22.7727 13.8098 25.7727 13.8098C28.7827 13.8098 31.0327 13.9198 31.6527 14.0098C32.6327 14.1198 33.2327 14.5498 33.5827 15.2398C34.0427 16.2398 34.7527 18.4698 35.0527 20.0398L36.2027 21.5598C37.0327 22.6298 37.2427 23.2798 37.2427 24.7598V26.3698C37.2427 27.1398 36.9927 27.4898 36.1627 27.5898C34.4127 27.8098 29.6227 27.9698 25.7727 27.9698ZM17.8127 19.0898C17.7327 19.4598 17.8827 19.6198 18.3027 19.5898C20.0527 19.4598 22.1627 19.3598 25.7727 19.3598C29.4127 19.3598 31.5027 19.4598 33.2527 19.5898C33.6727 19.6198 33.8227 19.4598 33.7427 19.0898C33.4727 17.8998 32.9727 16.4098 32.6227 15.7898C32.3327 15.2998 32.0227 15.0798 31.4627 14.9998C30.6527 14.8898 28.8427 14.8198 25.7727 14.8198C22.7127 14.8198 20.9227 14.8898 20.0927 14.9998C19.5327 15.0798 19.2227 15.2998 18.9327 15.7898C18.5927 16.4098 18.0927 17.8998 17.8127 19.0898ZM9.1027 27.8398C9.5427 27.3398 9.3627 26.7398 8.9327 26.1398C8.1027 25.1298 7.7127 23.7998 7.7127 22.3798C7.7127 20.9598 8.1027 19.6498 8.9327 18.6198C9.3627 18.0298 9.5427 17.4198 9.1027 16.9298C8.6527 16.4198 7.8327 16.4098 7.3527 17.0198C6.1627 18.4998 5.4827 20.3698 5.4827 22.3798C5.4827 24.3898 6.1627 26.2598 7.3527 27.7398C7.8327 28.3698 8.6527 28.3598 9.1027 27.8398ZM42.4227 27.8398C42.8727 28.3598 43.6927 28.3698 44.1827 27.7398C45.3727 26.2598 46.0627 24.3898 46.0627 22.3798C46.0627 20.3698 45.3727 18.4998 44.1827 17.0198C43.6927 16.4098 42.8727 16.4198 42.4227 16.9298C41.9827 17.4198 42.1827 18.0298 42.6027 18.6198C43.4227 19.6498 43.8327 20.9598 43.8327 22.3798C43.8327 23.7998 43.4227 25.1298 42.6027 26.1398C42.1827 26.7398 41.9827 27.3398 42.4227 27.8398ZM17.7427 26.5498C18.7427 26.5498 19.4927 25.7898 19.4927 24.7698C19.4927 23.7798 18.7427 23.0198 17.7427 23.0198C16.7327 23.0198 15.9727 23.7798 15.9727 24.7698C15.9727 25.7898 16.7327 26.5498 17.7427 26.5498ZM33.8227 26.5498C34.8227 26.5498 35.5927 25.7898 35.5927 24.7698C35.5927 23.7798 34.8227 23.0198 33.8227 23.0198C32.8127 23.0198 32.0627 23.7798 32.0627 24.7698C32.0627 25.7898 32.8127 26.5498 33.8227 26.5498ZM22.7627 26.1098H28.8027C29.5627 26.1098 30.0827 25.5898 30.0827 24.8398C30.0827 24.0898 29.5627 23.5798 28.8027 23.5798H22.7627C22.0027 23.5798 21.4827 24.0898 21.4827 24.8398C21.4827 25.5898 22.0027 26.1098 22.7627 26.1098Z" /></svg>