
<svg
    viewBox="0 0 39.39019636459362 29.133174101551464"
    xmlns="http://www.w3.org/2000/svg"
>
    <path
        fill="inherit"
        d="M12.0833 11.0784C12.0833 11.5484 12.4533 11.9184 12.9333 11.9184H13.6833C14.1733 11.9184 14.5433 11.5484 14.5433 11.0784V10.1484H24.8233V11.0784C24.8233 11.5484 25.1933 11.9184 25.6733 11.9184H26.4433C26.9233 11.9184 27.2933 11.5484 27.2933 11.0784V6.7784C27.2933 5.6984 27.1433 5.0484 26.4833 4.3184L25.8233 3.6184L25.1533 1.6784C24.7833 0.6284 24.0733 0.1884 23.1833 0.0984C22.7533 0.0384 21.3433 -0.0016 19.6833 -0.0016C18.0233 -0.0016 16.6133 0.0384 16.1833 0.0984C15.3033 0.1884 14.5833 0.6284 14.2233 1.6784L13.5333 3.6184L12.8933 4.3184C12.2333 5.0484 12.0833 5.6984 12.0833 6.7784ZM15.3033 3.6684C14.9933 3.6684 14.8933 3.4284 14.9833 3.1484L15.3833 1.9384C15.5333 1.5084 15.7633 1.3584 16.1633 1.2984C16.6133 1.2484 17.8533 1.1884 19.6833 1.1884C21.5233 1.1884 22.7633 1.2484 23.2033 1.2984C23.5933 1.3584 23.8333 1.5084 23.9833 1.9384L24.3933 3.1484C24.4833 3.4284 24.3733 3.6684 24.0633 3.6684ZM14.4133 7.6684C14.0133 7.6684 13.7233 7.3784 13.7233 6.9884V5.9884C13.7233 5.5884 14.0133 5.3184 14.4133 5.3184C14.8033 5.3184 15.0933 5.5884 15.0933 5.9884V6.9884C15.0933 7.3984 14.8033 7.6684 14.4133 7.6684ZM25.0333 7.6684C24.6533 7.6684 24.3533 7.3784 24.3533 6.9884V5.9884C24.3533 5.5884 24.6533 5.3184 25.0333 5.3184C25.4333 5.3184 25.7133 5.5884 25.7133 5.9884V6.9884C25.7133 7.3984 25.4333 7.6684 25.0333 7.6684ZM18.2233 7.3684C17.9133 7.3684 17.7033 7.1484 17.7033 6.8084V6.1684C17.7033 5.8284 17.9133 5.6184 18.2233 5.6184H21.1233C21.4533 5.6184 21.6533 5.8284 21.6533 6.1684V6.8084C21.6533 7.1484 21.4533 7.3684 21.1233 7.3684ZM6.9733 8.5884L0.1533 22.0784C-0.2067 22.7784 0.0533 23.5984 1.1033 23.5984H2.8933C3.7233 23.5984 4.1333 23.1984 4.3433 22.6084L9.8833 8.8084C10.0733 8.3384 9.8533 7.9584 9.3833 7.9584H7.9433C7.4733 7.9584 7.1933 8.1784 6.9733 8.5884ZM32.4133 8.5884C32.1933 8.1784 31.9133 7.9584 31.4433 7.9584H30.0133C29.5333 7.9584 29.3233 8.3384 29.5033 8.8084L35.0433 22.6084C35.2733 23.1984 35.6733 23.5984 36.4933 23.5984H38.2833C39.3433 23.5984 39.5933 22.7784 39.2333 22.0784ZM21.5833 14.7484L20.9133 17.5384L17.4633 13.9884C17.1833 13.6884 16.7933 13.9084 16.9433 14.3184L18.1733 17.9684L16.5533 17.2384C16.1833 17.0784 15.9133 17.3484 16.1833 17.7084L17.0933 18.8784L12.9333 18.2884C12.4533 18.2284 12.3433 18.6984 12.7133 18.9184L16.6433 21.2884L14.2733 22.1584C13.8733 22.3084 13.9433 22.7684 14.3733 22.7884L16.9933 22.9784L13.4433 25.3884C13.1133 25.6084 13.2333 26.1384 13.7133 26.0184L18.2133 25.0084L18.2533 28.8084C18.2533 29.1884 18.6233 29.2284 18.7833 28.9584L21.6833 24.1984L26.5333 28.5784C26.8933 28.8884 27.3333 28.5584 27.0933 28.1184L24.2233 22.7384L27.1533 21.8784C27.4133 21.7884 27.4133 21.4784 27.1833 21.3684L24.5633 20.3184L26.4233 15.0284C26.5533 14.6984 26.2133 14.4084 25.9233 14.6984L22.9033 17.5584L22.1733 14.7484C22.0633 14.3684 21.6733 14.3584 21.5833 14.7484Z"
        fillRule="evenodd"
        clipRule="evenodd"
    />
</svg>
        