
<svg
    viewBox="0 0 26.718812741671623 35.4375"
    xmlns="http://www.w3.org/2000/svg"
>
    <path
        fill="inherit"
        d="M17.3376 26.9198C22.5876 26.9198 24.9276 25.7298 24.9276 22.7098V10.7698H25.5176C26.1976 10.7698 26.7176 10.2498 26.7176 9.6098V9.0898C26.7176 8.4398 26.1976 7.9298 25.5176 7.9298H24.9276V4.9598C24.9276 1.8498 22.0576 -0.0002 17.3376 -0.0002C12.5976 -0.0002 9.7276 1.8498 9.7276 4.9598V7.9298H9.1376C8.4576 7.9298 7.9376 8.4398 7.9376 9.0898V9.6098C7.9376 10.2498 8.4576 10.7698 9.1376 10.7698H9.7276V22.7098C9.7276 25.7298 12.0776 26.9198 17.3376 26.9198ZM17.3276 11.2498C16.3676 11.2498 14.7676 11.3298 14.2376 11.3298C13.3876 11.3298 13.0076 10.9798 12.9276 10.0898L12.7576 8.1198C12.6276 6.4898 13.6876 5.8798 17.3276 5.8798C20.9676 5.8798 22.0276 6.4898 21.8976 8.1198L21.7176 10.0898C21.6476 10.9798 21.2476 11.3298 20.4176 11.3298C19.8676 11.3298 18.3376 11.2498 17.3276 11.2498ZM17.3276 22.5598C13.6876 22.5598 12.5276 22.0298 12.7976 20.3398L12.9376 19.3898C13.1576 18.0498 14.1976 17.6198 17.3276 17.6198C20.4576 17.6198 21.4976 18.0498 21.6976 19.3898L21.8476 20.3398C22.1076 22.0298 20.9676 22.5598 17.3276 22.5598ZM6.8076 28.5998C8.2176 30.0098 10.1376 30.7098 11.3076 30.7098C11.9576 30.7098 12.3876 30.2998 12.3876 29.7098C12.3876 29.1598 12.0076 28.7198 11.1576 28.5998C10.1076 28.4898 9.1276 27.9998 8.2576 27.1498C7.4376 26.3198 6.9676 25.3098 6.8076 24.1398C6.6876 23.3798 6.3876 23.0598 5.7176 23.0598C5.1176 23.0598 4.6376 23.5298 4.7376 24.2698C4.9076 25.9398 5.6276 27.4098 6.8076 28.5998ZM3.4176 32.0098C5.5176 34.1098 8.1776 35.4398 11.0776 35.4398C11.7776 35.4398 12.2576 34.9898 12.2576 34.3398C12.2576 33.7598 11.7876 33.3698 11.0076 33.3198C8.7676 33.1798 6.5776 32.2498 4.8676 30.5598C3.1776 28.8498 2.2476 26.6698 2.1076 24.4198C2.0376 23.5398 1.6876 23.1998 0.9976 23.1998C0.4676 23.1998 -0.0524 23.5798 0.0076 24.3398C0.1776 27.2298 1.3076 29.9098 3.4176 32.0098Z"
        fillRule="evenodd"
        clipRule="evenodd"
    />
</svg>
        