
<svg
    viewBox={0 0 26.646484375 32.771484375}
    xmlns="http://www.w3.org/2000/svg"
>
    <path
        fill="inherit"
        d="M13.2637 2.2327C16.2137 2.2327 18.8837 3.2527 20.9137 5.0827C21.4737 5.5827 22.1237 5.7127 22.6137 5.2727C23.1337 4.8427 23.1337 4.0727 22.5437 3.5427C20.0837 1.2727 16.8037 0.0027 13.2637 0.0027C9.7237 0.0027 6.4437 1.2727 3.9737 3.5427C3.4037 4.0727 3.4037 4.8427 3.9137 5.2727C4.4137 5.7127 5.0437 5.5827 5.6037 5.0827C7.6437 3.2527 10.3237 2.2327 13.2637 2.2327ZM13.2937 7.6927C14.7137 7.6927 16.0237 8.1027 17.0537 8.9327C17.6337 9.3627 18.2537 9.5427 18.7437 9.1027C19.2537 8.6527 19.2637 7.8327 18.6437 7.3527C17.1737 6.1627 15.3037 5.4727 13.2937 5.4727C11.2837 5.4727 9.4037 6.1627 7.9337 7.3527C7.3037 7.8327 7.3137 8.6527 7.8337 9.1027C8.3237 9.5427 8.9237 9.3527 9.5337 8.9327C10.5837 8.1327 11.8637 7.6927 13.2937 7.6927ZM2.2237 32.7727H3.5537C4.3737 32.7727 5.0137 32.1427 5.0137 31.3327V29.6027C7.4237 29.7327 10.6337 29.8327 13.3137 29.8327C15.9837 29.8327 19.1937 29.7327 21.6037 29.6027V31.3327C21.6037 32.1427 22.2437 32.7727 23.0637 32.7727H24.3937C25.2137 32.7727 25.8237 32.1427 25.8237 31.3327V28.7527C26.3637 28.3127 26.6437 27.6627 26.6437 26.7927V24.7427C26.6437 22.8627 26.2537 21.7527 25.2137 20.4127L24.3037 19.2627C23.8937 17.2827 23.1737 15.2127 22.7937 14.4127C22.1737 13.0927 20.9637 12.3327 19.4437 12.1227C18.7037 12.0327 16.2837 11.9627 13.3137 11.9627C10.3537 11.9627 7.9437 12.0427 7.2037 12.1227C5.6837 12.3227 4.4737 13.0927 3.8537 14.4127C3.4637 15.2127 2.7437 17.2827 2.3237 19.2627L1.4337 20.4127C0.3837 21.7527 0.0037 22.8627 0.0037 24.7427V26.7927C0.0037 27.6427 0.2737 28.2827 0.7937 28.7427V31.3327C0.7937 32.1427 1.4237 32.7727 2.2237 32.7727ZM13.3137 27.9727C9.4737 27.9727 4.6937 27.8127 2.9437 27.5927C2.1037 27.4827 1.8637 27.1427 1.8637 26.3627V24.7427C1.8637 23.2827 2.0637 22.6227 2.8937 21.5627L4.0437 20.0427C4.3337 18.4727 5.0737 16.2427 5.5237 15.2427C5.8637 14.5327 6.4637 14.1127 7.4137 14.0127C8.1237 13.9227 10.3237 13.8127 13.3137 13.8127C16.3237 13.8127 18.5837 13.9227 19.1937 14.0127C20.1837 14.1227 20.7837 14.5427 21.1237 15.2427C21.5837 16.2427 22.3037 18.4727 22.5837 20.0427L23.7437 21.5627C24.5837 22.6227 24.7837 23.2827 24.7837 24.7427V26.3627C24.7837 27.1427 24.5437 27.4927 23.7037 27.5927C21.9537 27.8127 17.1737 27.9727 13.3137 27.9727ZM5.3637 19.0827C5.2737 19.4527 5.4237 19.6227 5.8537 19.5927C7.6037 19.4527 9.6937 19.3627 13.3137 19.3627C16.9437 19.3627 19.0437 19.4527 20.7937 19.5927C21.2037 19.6227 21.3737 19.4527 21.2837 19.0827C21.0137 17.8927 20.5237 16.4027 20.1637 15.7927C19.8837 15.3027 19.5637 15.0827 18.9937 15.0027C18.1837 14.8927 16.3937 14.8227 13.3137 14.8227C10.2537 14.8227 8.4537 14.8927 7.6437 15.0027C7.0837 15.0827 6.7537 15.3027 6.4837 15.7927C6.1437 16.4027 5.6337 17.8927 5.3637 19.0827ZM5.2737 26.5527C6.2937 26.5527 7.0437 25.7827 7.0437 24.7727C7.0437 23.7727 6.2937 23.0227 5.2737 23.0227C4.2837 23.0227 3.5137 23.7727 3.5137 24.7727C3.5137 25.7827 4.2837 26.5527 5.2737 26.5527ZM21.3537 26.5527C22.3637 26.5527 23.1337 25.7827 23.1337 24.7727C23.1337 23.7727 22.3637 23.0227 21.3537 23.0227C20.3537 23.0227 19.6037 23.7727 19.6037 24.7727C19.6037 25.7827 20.3537 26.5527 21.3537 26.5527ZM10.2937 26.1127H16.3337C17.1037 26.1127 17.6237 25.5927 17.6237 24.8427C17.6237 24.0927 17.1037 23.5827 16.3337 23.5827H10.2937C9.5437 23.5827 9.0237 24.0927 9.0237 24.8427C9.0237 25.5927 9.5437 26.1127 10.2937 26.1127Z"
        fillRule="evenodd"
        clipRule="evenodd"
    />
</svg>
        