
<svg
    viewBox={0 0 48.712890625 27.982967108337927}
    xmlns="http://www.w3.org/2000/svg"
>
    <path
        fill="inherit"
        d="M4.3437 19.1853H5.2137C5.1237 18.7553 5.0737 18.3353 5.0737 17.8953C5.0737 14.7153 7.5737 12.2053 10.7737 12.2053C13.9737 12.2053 16.4737 14.7153 16.4737 17.8953C16.4737 18.3353 16.4237 18.7553 16.3237 19.1853H32.3637C32.2837 18.7553 32.2237 18.3353 32.2237 17.8953C32.2237 14.7153 34.7437 12.2053 37.9237 12.2053C41.1237 12.2053 43.6437 14.7153 43.6437 17.8953C43.6437 18.3353 43.5837 18.7553 43.4937 19.1853H44.3637C47.3637 19.1853 48.7137 17.7553 48.7137 14.5853V10.8053C48.7137 8.2553 47.4837 6.6753 44.8837 5.8253L42.7137 5.0953C39.9537 2.7453 36.1437 -0.0047 31.0237 -0.0047H28.9437C23.3637 -0.0047 21.0137 0.5653 17.6637 2.6653L12.1237 6.1353L6.0737 6.8753C2.2837 7.3453 0.0037 9.6953 0.0037 12.9153V14.6653C0.0037 17.7853 1.3837 19.1853 4.3437 19.1853ZM10.7737 21.9953C13.0837 21.9953 14.8937 20.1953 14.8937 17.8953C14.8937 15.5953 13.0837 13.7953 10.7737 13.7953C8.4737 13.7953 6.6737 15.5953 6.6737 17.8953C6.6737 20.1953 8.4737 21.9953 10.7737 21.9953ZM37.9237 21.9953C40.2337 21.9953 42.0437 20.1953 42.0437 17.8953C42.0437 15.5953 40.2337 13.7953 37.9237 13.7953C35.6337 13.7953 33.8237 15.5953 33.8237 17.8953C33.8237 20.1953 35.6337 21.9953 37.9237 21.9953ZM21.3137 21.4253C20.5737 21.4253 20.2637 22.0253 20.6537 22.6653L23.6137 27.5253C23.9837 28.1553 24.7237 28.1253 25.0837 27.5253L28.0637 22.6653C28.4637 22.0253 28.1237 21.4253 27.3937 21.4253Z"
        fillRule="evenodd"
        clipRule="evenodd"
    />
</svg>
        