
<svg
    viewBox={0 0 32.34765625 25.361328125}
    xmlns="http://www.w3.org/2000/svg"
>
    <path
        fill="inherit"
        d="M0.0037 18.5123C0.0037 19.3723 0.2337 20.1123 0.6937 20.6623V23.5523C0.6937 24.5723 1.4937 25.3623 2.5137 25.3623H4.1137C5.1437 25.3623 5.9337 24.5723 5.9337 23.5523V21.5723H26.4237V23.5523C26.4237 24.5723 27.2037 25.3623 28.2337 25.3623H29.8437C30.8737 25.3623 31.6537 24.5723 31.6537 23.5523V20.6623C32.1137 20.1123 32.3437 19.3723 32.3437 18.5123V14.4223C32.3437 12.1223 32.0337 10.7423 30.6237 9.2023L29.2437 7.7123L27.8037 3.5923C27.0337 1.3523 25.5137 0.4123 23.6237 0.1923C22.7137 0.0823 19.7137 0.0023 16.1737 0.0023C12.6437 0.0023 9.6537 0.0823 8.7337 0.1923C6.8337 0.4123 5.3137 1.3523 4.5437 3.5923L3.1037 7.7123L1.7337 9.2023C0.3137 10.7423 0.0037 12.1223 0.0037 14.4223ZM1.7937 17.9623V14.4223C1.7937 12.5623 2.0137 11.5923 3.1537 10.2923L4.7737 8.4623L6.1537 4.4023C6.7137 2.7523 7.6737 2.1723 8.9437 2.0223C9.8137 1.9123 12.5937 1.7923 16.1737 1.7923C19.7737 1.7923 22.5337 1.9123 23.4037 2.0223C24.6737 2.1723 25.6337 2.7523 26.1937 4.4023L27.5737 8.4623L29.2037 10.2923C30.3337 11.5923 30.5537 12.5623 30.5537 14.4223V17.9623C30.5537 19.0423 30.1237 19.7823 28.9437 19.7823H3.4037C2.2437 19.7823 1.7937 19.0423 1.7937 17.9623ZM7.3937 8.2323H24.9537C25.5637 8.2323 25.7837 7.7823 25.5837 7.2023L24.7737 4.8123C24.4737 3.9223 24.0037 3.6223 23.2137 3.5123C22.3237 3.3923 19.8537 3.2923 16.1737 3.2923C12.4937 3.2923 10.0337 3.3923 9.1337 3.5123C8.3537 3.6223 7.8737 3.9223 7.5737 4.8123L6.7637 7.2023C6.5737 7.7823 6.7837 8.2323 7.3937 8.2323ZM5.6237 16.1423C6.3937 16.1423 6.9737 15.5723 6.9737 14.7823V12.7723C6.9737 11.9723 6.3937 11.4123 5.6237 11.4123C4.8237 11.4123 4.2537 11.9923 4.2537 12.7723V14.7823C4.2537 15.5623 4.8237 16.1423 5.6237 16.1423ZM26.8637 16.1423C27.6537 16.1423 28.2437 15.5723 28.2437 14.7823V12.7723C28.2437 11.9723 27.6537 11.4123 26.8637 11.4123C26.1037 11.4123 25.5137 12.0023 25.5137 12.7723V14.7823C25.5137 15.5623 26.1037 16.1423 26.8637 16.1423ZM13.2437 15.5323H19.0537C19.7037 15.5323 20.1237 15.1123 20.1237 14.4423V13.1123C20.1237 12.4423 19.7037 12.0423 19.0537 12.0423H13.2437C12.6337 12.0423 12.2137 12.4423 12.2137 13.1123V14.4423C12.2137 15.1123 12.6337 15.5323 13.2437 15.5323Z"
        fillRule="evenodd"
        clipRule="evenodd"
    />
</svg>
        