
<svg
    viewBox="0 0 27.59528768055759 39.31694479227596"
    xmlns="http://www.w3.org/2000/svg"
>
    <path
        fill="inherit"
        d="M9.4037 26.9173C14.6537 26.9173 17.0037 25.7273 17.0037 22.7073V10.7773H17.5837C18.2637 10.7773 18.7837 10.2573 18.7837 9.6073V9.0873C18.7837 8.4373 18.2637 7.9273 17.5837 7.9273H17.0037V4.9673C17.0037 1.8473 14.1237 -0.0027 9.4037 -0.0027C4.6637 -0.0027 1.7937 1.8473 1.7937 4.9673V7.9273H1.2037C0.5337 7.9273 0.0037 8.4373 0.0037 9.0873V9.6073C0.0037 10.2573 0.5337 10.7773 1.2037 10.7773H1.7937V22.7073C1.7937 25.7273 4.1537 26.9173 9.4037 26.9173ZM9.4037 24.7873C5.4837 24.7873 3.9537 24.1873 3.9537 22.6373V4.9673C3.9537 3.1873 5.8537 2.1573 9.4037 2.1573C12.9437 2.1573 14.8437 3.1873 14.8437 4.9673V22.6373C14.8437 24.1873 13.3137 24.7873 9.4037 24.7873ZM9.4037 11.3373C10.3937 11.3373 11.8837 11.4173 12.3837 11.4173C13.2237 11.4173 13.5937 11.0773 13.6737 10.2173L13.8337 8.2973C13.9737 6.7273 12.9237 6.1273 9.4037 6.1273C5.8637 6.1273 4.8237 6.7273 4.9637 8.2973L5.1237 10.2173C5.2137 11.0773 5.5737 11.4173 6.3937 11.4173C6.9137 11.4173 8.4637 11.3373 9.4037 11.3373ZM9.4037 22.3173C12.9237 22.3173 14.0437 21.7973 13.7937 20.1673L13.6437 19.2373C13.4437 17.9373 12.4437 17.5273 9.4037 17.5273C6.3537 17.5273 5.3437 17.9373 5.1437 19.2373L5.0037 20.1673C4.7537 21.7973 5.8637 22.3173 9.4037 22.3173ZM18.0337 31.6673L19.9637 29.7473L19.7537 27.1973C19.7237 26.9873 19.6637 26.7673 19.5337 26.6473C19.2637 26.3773 18.8837 26.3873 18.6037 26.6773L14.9737 30.3073C14.6737 30.5973 14.6537 30.9773 14.9337 31.2573C15.0537 31.3773 15.2537 31.4473 15.4937 31.4573ZM21.3937 38.7873C22.0937 39.4873 22.9237 39.4973 23.6237 38.7973L27.0837 35.3373C27.7937 34.6273 27.7437 33.7873 27.0737 33.1173L23.3137 29.3573C22.6037 28.6473 21.8237 28.6673 21.1237 29.3673L17.6537 32.8373C16.9537 33.5373 16.9637 34.3573 17.6637 35.0573Z"
        fillRule="evenodd"
        clipRule="evenodd"
    />
</svg>
        