
<svg
    viewBox="0 0 45.349609375 33.7216796875"
    xmlns="http://www.w3.org/2000/svg"
>
    <path
        fill="inherit"
        d="M18.9337 4.787C18.9337 5.677 19.3837 6.167 20.4437 6.167H34.9737C36.0637 6.167 36.6837 5.457 36.6837 4.347V2.997C36.6837 1.007 35.6537 -0.003 33.3637 -0.003H30.7237C28.2737 -0.003 26.3037 0.647 23.1437 1.937L20.0737 3.237C19.2137 3.597 18.9337 4.197 18.9337 4.787ZM38.3537 33.417C38.7637 33.827 39.4437 33.827 39.8437 33.417C40.2537 33.007 40.2537 32.337 39.8437 31.927L8.9237 1.027C8.5037 0.597 7.8437 0.597 7.4237 1.027C7.0237 1.417 7.0137 2.087 7.4237 2.517ZM41.8037 13.797L39.7737 13.137C37.2037 10.947 33.6637 8.397 28.8937 8.397H26.9437C23.5537 8.397 21.4537 8.617 19.5137 9.337L21.1637 10.997C22.6637 10.567 24.3737 10.447 26.9437 10.447H28.8937C32.2237 10.447 34.8637 11.677 38.1537 14.557C38.7637 15.077 39.0737 15.207 39.8237 15.447L41.1837 15.887C42.6337 16.347 43.3037 17.107 43.3037 18.447V21.967C43.3037 23.497 42.6837 24.197 41.3037 24.197H40.4937C40.3737 21.857 38.5037 19.947 35.9937 19.947C34.3537 19.947 32.9637 20.807 32.2637 22.077L33.7037 23.517C34.0037 22.577 34.9037 21.877 35.9937 21.877C37.4437 21.877 38.5937 23.027 38.5937 24.477C38.5937 25.597 37.8937 26.487 36.9537 26.787L38.3737 28.207C39.1837 27.827 39.8437 27.107 40.1637 26.247H41.3037C44.1037 26.247 45.3537 24.927 45.3537 21.967V18.447C45.3537 16.077 44.2137 14.577 41.8037 13.797ZM9.3637 28.997C11.2837 28.997 12.8637 27.887 13.5537 26.247H28.9337L26.8637 24.197H13.8937C13.7437 21.777 11.8137 19.947 9.3637 19.947C6.9137 19.947 4.9937 21.777 4.8537 24.197H4.0437C2.6837 24.197 2.0537 23.497 2.0537 21.967V20.427C2.0537 18.537 3.4637 17.107 5.9037 16.817L10.9937 16.197C11.7737 16.107 12.2937 15.917 12.8137 15.587L16.1637 13.497L14.6537 11.987L11.3037 14.097L5.6437 14.797C2.1337 15.217 0.0037 17.417 0.0037 20.427V22.037C0.0037 24.937 1.2837 26.247 4.0437 26.247H5.1937C5.8637 27.887 7.4637 28.997 9.3637 28.997ZM9.3637 27.087C7.9137 27.087 6.7637 25.937 6.7637 24.477C6.7637 23.027 7.9137 21.877 9.3637 21.877C10.8237 21.877 11.9737 23.027 11.9737 24.477C11.9737 25.937 10.8237 27.087 9.3637 27.087Z"
        fillRule="evenodd"
        clipRule="evenodd"
    />
</svg>
        