
<svg
    viewBox="0 0 35.492695992847295 26.974609375"
    xmlns="http://www.w3.org/2000/svg"
>
    <path
        fill="inherit"
        d="M17.7439 2.0552C19.6339 2.0552 21.3839 2.6152 22.8639 3.5452C23.5539 3.9752 24.1539 3.6952 24.4439 3.2152C24.6739 2.7452 24.6339 2.1452 24.1139 1.7952C22.2839 0.5752 20.0739 -0.0048 17.7439 -0.0048C15.4239 -0.0048 13.2039 0.5752 11.3739 1.7952C10.8539 2.1452 10.8039 2.7452 11.0439 3.2152C11.3339 3.6952 11.9339 3.9752 12.6339 3.5452C14.1139 2.6152 15.8639 2.0552 17.7439 2.0552ZM3.8739 9.1452C4.9339 7.6052 6.4139 6.4952 8.0139 5.8252C8.8439 5.4852 8.9039 4.7152 8.5739 4.2152C8.3239 3.8252 7.8439 3.5852 7.3039 3.7852C5.2639 4.5952 3.5039 6.0752 2.1739 7.9752C0.8639 9.8852 0.0539 12.0152 0.0039 14.2352C-0.0161 14.9052 0.5239 15.3152 1.0839 15.3152C1.6139 15.3252 2.1239 14.9552 2.1639 14.1952C2.2439 12.4652 2.7739 10.7052 3.8739 9.1452ZM31.6239 9.1452C32.7139 10.7052 33.2539 12.4652 33.3339 14.1952C33.3739 14.9552 33.8839 15.3252 34.4139 15.3152C34.9639 15.3152 35.5039 14.9052 35.4939 14.2352C35.4339 12.0152 34.6339 9.8852 33.3139 7.9752C31.9939 6.0752 30.2239 4.5952 28.1939 3.7852C27.6439 3.5852 27.1639 3.8252 26.9239 4.2152C26.5939 4.7152 26.6439 5.4852 27.4839 5.8252C29.0839 6.4952 30.5539 7.6052 31.6239 9.1452ZM17.7439 6.8652C18.6039 6.8652 19.4039 7.0452 20.1539 7.4652C20.9339 7.8352 21.4939 7.5452 21.7239 7.0652C21.9539 6.6052 21.8239 5.9752 21.2439 5.6752C20.2939 5.1652 19.0439 4.7952 17.7439 4.7952C16.4439 4.7952 15.2039 5.1652 14.2439 5.6752C13.6739 5.9752 13.5339 6.6052 13.7639 7.0652C14.0039 7.5452 14.5639 7.8452 15.3439 7.4652C16.0939 7.0452 16.8839 6.8652 17.7439 6.8652ZM27.6739 11.9052C28.1939 12.6152 28.4939 13.3752 28.5839 14.2352C28.7339 15.2152 29.4639 15.4652 30.0339 15.2352C30.4339 15.0652 30.7439 14.6452 30.6639 14.1052C30.5339 13.0252 30.1239 11.7952 29.3939 10.7352C28.6139 9.6652 27.6139 8.8752 26.6639 8.3852C26.0739 8.0652 25.4839 8.3252 25.2339 8.7752C24.9639 9.2452 25.0639 9.8752 25.8239 10.2852C26.5939 10.6752 27.1939 11.2152 27.6739 11.9052ZM7.8239 11.9052C8.3039 11.2152 8.9039 10.6752 9.6639 10.2852C10.4339 9.8752 10.5239 9.2452 10.2539 8.7752C10.0039 8.3252 9.4239 8.0652 8.8339 8.3852C7.8739 8.8752 6.8639 9.6652 6.0939 10.7352C5.3739 11.7952 4.9639 13.0252 4.8239 14.1052C4.7439 14.6452 5.0539 15.0652 5.4539 15.2352C6.0339 15.4652 6.7539 15.2152 6.9039 14.2352C7.0039 13.3752 7.3039 12.6152 7.8239 11.9052ZM10.1439 26.9752H12.3039V15.9952C12.3039 14.2052 14.2039 13.1952 17.7439 13.1952C21.3039 13.1952 23.2039 14.2052 23.2039 15.9952V26.9752H25.3639V21.8052H25.9339C26.6239 21.8052 27.1439 21.2852 27.1439 20.6452V20.1252C27.1439 19.4652 26.6239 18.9652 25.9339 18.9652H25.3639V15.9952C25.3639 12.8752 22.4739 11.0352 17.7439 11.0352C13.0139 11.0352 10.1439 12.8752 10.1439 15.9952V18.9652H9.5539C8.8839 18.9652 8.3539 19.4652 8.3539 20.1252V20.6452C8.3539 21.2852 8.8839 21.8052 9.5539 21.8052H10.1439ZM17.7439 22.3652C18.7439 22.3652 20.2339 22.4452 20.7439 22.4452C21.5739 22.4452 21.9439 22.1052 22.0139 21.2452L22.1939 19.3352C22.3239 17.7552 21.2739 17.1552 17.7439 17.1552C14.2239 17.1552 13.1839 17.7552 13.3139 19.3352L13.4839 21.2452C13.5539 22.1052 13.9339 22.4452 14.7539 22.4452C15.2739 22.4452 16.8139 22.3652 17.7439 22.3652Z"
        fillRule="evenodd"
        clipRule="evenodd"
    />
</svg>
        