
<svg
    viewBox="0 0 25.67578125 35.30078125"
    xmlns="http://www.w3.org/2000/svg"
>
    <path
        fill="inherit"
        d="M9.8454 35.3015C16.7454 35.3015 19.6854 33.7815 19.6854 30.0615V24.1015L23.7354 28.1415C24.1854 28.5915 24.8954 28.5715 25.3454 28.1415C25.7854 27.6815 25.7854 26.9515 25.3454 26.5115L19.6854 20.8915V6.3315C19.6854 2.3415 16.0654 0.0015 9.8454 0.0015C3.6354 0.0015 -0.0046 2.3415 -0.0046 6.3315V30.0615C-0.0046 33.7815 2.9554 35.3015 9.8454 35.3015ZM9.8454 33.0315C4.5654 33.0315 2.2854 32.1415 2.2854 29.9515V6.3315C2.2854 3.7715 5.0754 2.2815 9.8454 2.2815C14.6254 2.2815 17.4054 3.7715 17.4054 6.3315V29.9515C17.4054 32.1415 15.1354 33.0315 9.8454 33.0315ZM9.8554 14.6815C11.0754 14.6815 13.1554 14.7815 13.8354 14.7815C14.8754 14.7815 15.3154 14.3815 15.4054 13.3115L15.6254 10.7415C15.8054 8.7815 14.4254 7.9815 9.8554 7.9815C5.2754 7.9815 3.8954 8.7815 4.0754 10.7415L4.2954 13.3115C4.3854 14.3815 4.8354 14.7815 5.8654 14.7815C6.5654 14.7815 8.5554 14.6815 9.8554 14.6815ZM9.8554 29.2715C14.4554 29.2715 15.8554 28.5915 15.5754 26.5815L15.3954 25.3315C15.1754 23.6915 13.8054 23.1415 9.8554 23.1415C5.8954 23.1415 4.5254 23.6915 4.3054 25.3315L4.1254 26.5815C3.8454 28.5915 5.2454 29.2715 9.8554 29.2715Z"
        fillRule="evenodd"
        clipRule="evenodd"
    />
</svg>
        