
<svg
    viewBox="0 0 24.30859375 21.998046875"
    xmlns="http://www.w3.org/2000/svg"
>
    <path
        fill="inherit"
        d="M0.0037 0.2153V19.1853H7.9737C7.8937 18.7553 7.8337 18.3353 7.8337 17.8953C7.8337 14.7153 10.3537 12.2053 13.5337 12.2053C16.7337 12.2053 19.2337 14.7153 19.2337 17.8953C19.2337 18.3353 19.1937 18.7553 19.0837 19.1853H19.9737C22.9737 19.1853 24.3037 17.7553 24.3037 14.5853V10.8053C24.3037 8.2553 23.0937 6.6753 20.4937 5.8253L18.3237 5.0953C15.5537 2.7453 11.7537 -0.0047 6.6337 -0.0047H4.5537C2.7437 -0.0047 1.2737 0.0553 0.0037 0.2153ZM7.1337 7.7353L4.8137 5.0953C4.3437 4.6053 4.6237 3.8653 5.3437 3.8653H9.9937C10.6937 3.8653 11.0037 4.5653 10.5137 5.0953L8.1937 7.7353C7.8637 8.0753 7.4537 8.0953 7.1337 7.7353ZM5.3637 10.5253C4.9237 10.5253 4.5837 10.1753 4.5837 9.7353C4.5837 9.2953 4.9237 8.9453 5.3637 8.9453H14.4237C14.8637 8.9453 15.2037 9.2953 15.2037 9.7353C15.2037 10.1753 14.8637 10.5253 14.4237 10.5253ZM13.5337 21.9953C15.8437 21.9953 17.6537 20.1953 17.6537 17.8953C17.6537 15.5953 15.8437 13.7953 13.5337 13.7953C11.2337 13.7953 9.4337 15.5953 9.4337 17.8953C9.4337 20.1953 11.2337 21.9953 13.5337 21.9953Z"
        fillRule="evenodd"
        clipRule="evenodd"
    />
</svg>
        