<svg viewBox="0 0 31.69140625 36.1484375" xmlns="http://www.w3.org/2000/svg"><path d="M24.4037 20.8616C28.4937 20.8616 30.3137 19.9316 30.3137 17.5816V8.3716H30.7337C31.2837 8.3716 31.6937 7.9616 31.6937 7.4516V7.0516C31.6937 6.5316 31.2837 6.1216 30.7337 6.1216H30.3137V3.8516C30.3137 1.4216 28.0837 0.0016 24.4037 0.0016C20.7437 0.0016 18.5137 1.4216 18.5137 3.8516V6.1216H18.0637C17.5437 6.1216 17.1137 6.5316 17.1137 7.0516V7.4516C17.1137 7.9616 17.5437 8.3716 18.0637 8.3716H18.5137V17.5816C18.5137 19.9316 20.3337 20.8616 24.4037 20.8616ZM24.4037 8.7216C23.6637 8.7216 22.4237 8.8016 22.0137 8.8016C21.3437 8.8016 21.0237 8.5216 20.9737 7.8216L20.8637 6.3016C20.7437 5.0316 21.5737 4.5416 24.4037 4.5416C27.2337 4.5416 28.0637 5.0316 27.9637 6.3016L27.8237 7.8216C27.7537 8.5216 27.4537 8.8016 26.7937 8.8016C26.3737 8.8016 25.1937 8.7216 24.4037 8.7216ZM24.4037 17.4816C21.5837 17.4816 20.7037 17.0716 20.8737 15.7616L20.9837 15.0116C21.1337 13.9616 21.9837 13.6316 24.4037 13.6316C26.8337 13.6316 27.6437 13.9616 27.8037 15.0116L27.9137 15.7616C28.1337 17.0716 27.2337 17.4816 24.4037 17.4816ZM16.2537 22.1616C17.3537 23.2516 18.8437 23.8016 19.7537 23.8016C20.2637 23.8016 20.6037 23.4616 20.6037 22.9916C20.6037 22.5616 20.2937 22.2216 19.6337 22.1316C18.8237 22.0416 18.0737 21.6716 17.4037 21.0316C16.7737 20.3616 16.4037 19.5916 16.2837 18.6916C16.1837 18.1016 15.9537 17.8416 15.4237 17.8416C14.9537 17.8316 14.5737 18.2116 14.6437 18.8016C14.7837 20.0816 15.3237 21.2316 16.2537 22.1616ZM13.6337 24.8016C15.2737 26.4316 17.3337 27.4516 19.5637 27.4516C20.1237 27.4516 20.4937 27.1016 20.4937 26.5916C20.4937 26.1316 20.1437 25.8216 19.5237 25.7716C17.7837 25.6716 16.1037 24.9516 14.7837 23.6516C13.4637 22.3216 12.7537 20.6416 12.6437 18.8916C12.5937 18.2216 12.3037 17.9516 11.7737 17.9516C11.3637 17.9516 10.9537 18.2516 10.9937 18.8516C11.1337 21.0916 12.0037 23.1616 13.6337 24.8016ZM13.1937 36.1516V33.8516H13.6337C14.1637 33.8516 14.5737 33.4416 14.5737 32.9316V32.5416C14.5737 32.0216 14.1637 31.6116 13.6337 31.6116H13.1937V29.3416C13.1937 26.9016 10.9637 25.4816 7.2837 25.4816C3.6337 25.4816 1.3937 26.9016 1.3937 29.3416V31.6116H0.9537C0.4237 31.6116 0.0037 32.0216 0.0037 32.5416V32.9316C0.0037 33.4416 0.4237 33.8516 0.9537 33.8516H1.3937V36.1516ZM7.2837 34.2216C6.5637 34.2216 5.3137 34.2716 4.8937 34.2716C4.2337 34.2716 3.9337 34.0016 3.8837 33.3016L3.7437 31.7916C3.6337 30.5116 4.4737 30.0216 7.2837 30.0216C10.1337 30.0216 10.9537 30.5116 10.8437 31.7916L10.7237 33.3016C10.6537 34.0016 10.3537 34.2716 9.6837 34.2716C9.2737 34.2716 8.0837 34.2216 7.2837 34.2216Z" /></svg>