
<svg
    viewBox={0 0 27.890625 27.890625}
    xmlns="http://www.w3.org/2000/svg"
>
    <path
        fill="inherit"
        d="M13.9427 27.8864C21.6427 27.8864 27.8927 21.6464 27.8927 13.9464C27.8927 6.2464 21.6427 -0.0036 13.9427 -0.0036C6.2527 -0.0036 0.0027 6.2464 0.0027 13.9464C0.0027 21.6464 6.2527 27.8864 13.9427 27.8864ZM13.9427 25.5664C7.5227 25.5664 2.3227 20.3664 2.3227 13.9464C2.3227 7.5164 7.5227 2.3264 13.9427 2.3264C20.3727 2.3264 25.5627 7.5164 25.5627 13.9464C25.5627 20.3664 20.3727 25.5664 13.9427 25.5664ZM6.4427 18.4664C6.4427 18.9464 6.8127 19.3064 7.2827 19.3064H8.0427C8.5027 19.3064 8.8727 18.9464 8.8727 18.4664V17.4164C10.2827 17.4964 12.3227 17.5664 13.9427 17.5664C15.5727 17.5664 17.5927 17.4964 19.0027 17.4164V18.4664C19.0027 18.9464 19.3727 19.3064 19.8527 19.3064H20.6027C21.0727 19.3064 21.4327 18.9464 21.4327 18.4664V14.8164C21.4327 13.7664 21.2227 13.1664 20.6327 12.3964L20.0927 11.7164C19.8527 10.5664 19.4427 9.3664 19.2327 8.8964C18.8927 8.1864 18.2427 7.7764 17.3927 7.6564C16.9627 7.6064 15.5727 7.5764 13.9427 7.5764C12.3027 7.5764 10.9227 7.6064 10.4827 7.6564C9.6527 7.7664 8.9927 8.1864 8.6527 8.8964C8.4327 9.3664 8.0227 10.5664 7.7927 11.7164L7.2427 12.3964C6.6627 13.1664 6.4427 13.7664 6.4427 14.8164ZM9.4027 11.1164C9.5527 10.4564 9.8327 9.6264 10.0227 9.2864C10.1827 8.9964 10.3627 8.8764 10.6927 8.8364C11.1327 8.7664 12.1427 8.7364 13.9427 8.7364C15.7327 8.7364 16.7527 8.7464 17.2027 8.8364C17.5227 8.8764 17.6927 8.9964 17.8727 9.2864C18.0627 9.6064 18.3327 10.4564 18.4727 11.1164C18.5427 11.3164 18.4427 11.4164 18.2127 11.4064C17.2427 11.3164 16.0627 11.2764 13.9427 11.2764C11.8127 11.2764 10.6527 11.3164 9.6627 11.4064C9.4327 11.4164 9.3527 11.3164 9.4027 11.1164ZM8.3527 14.8464C8.3527 14.2564 8.8027 13.8264 9.3627 13.8264C9.9427 13.8264 10.3927 14.2564 10.3927 14.8464C10.3927 15.4264 9.9427 15.8464 9.3627 15.8464C8.8027 15.8464 8.3527 15.4264 8.3527 14.8464ZM17.5027 14.8464C17.5027 14.2564 17.9327 13.8264 18.5127 13.8264C19.0827 13.8264 19.5327 14.2564 19.5327 14.8464C19.5327 15.4264 19.0827 15.8464 18.5127 15.8464C17.9327 15.8464 17.5027 15.4264 17.5027 14.8464ZM11.5427 14.8864C11.5427 14.4464 11.8427 14.1464 12.2727 14.1464H15.6127C16.0327 14.1464 16.3427 14.4464 16.3427 14.8864C16.3427 15.3164 16.0327 15.6164 15.6127 15.6164H12.2727C11.8427 15.6164 11.5427 15.3164 11.5427 14.8864Z"
        fillRule="evenodd"
        clipRule="evenodd"
    />
</svg>
        