<svg viewBox="0 0 25.416015625 22.1484375" xmlns="http://www.w3.org/2000/svg"><path d="M10.0637 22.149C12.1137 22.149 13.8237 20.949 14.5437 19.199H25.4137V16.999H14.9137C14.7637 14.409 12.6837 12.429 10.0637 12.429C7.4237 12.429 5.3637 14.409 5.2137 16.999H4.3437C2.8737 16.999 2.2037 16.239 2.2037 14.599V12.929C2.2037 10.909 3.7037 9.379 6.3437 9.069L11.8137 8.399C12.6337 8.289 13.1937 8.089 13.7637 7.749L18.8437 4.549C21.0537 3.169 22.6637 2.559 25.4137 2.339V0.139C22.1737 0.369 20.2037 1.079 17.6637 2.679L12.7937 5.729L8.2037 1.119C7.4137 0.329 6.3737 -0.001 5.1237 -0.001H1.0137C0.3837 -0.001 0.0037 0.379 0.0037 0.969C0.0037 1.559 0.3837 1.969 1.0137 1.969H5.3737C5.8837 1.969 6.2737 2.089 6.6037 2.419L10.5237 6.339L6.0737 6.889C2.2837 7.359 0.0037 9.709 0.0037 12.929V14.679C0.0037 17.799 1.3837 19.199 4.3437 19.199H5.5637C6.2937 20.949 8.0137 22.149 10.0637 22.149ZM10.0637 20.079C8.4937 20.079 7.2637 18.849 7.2637 17.299C7.2637 15.719 8.4937 14.489 10.0637 14.489C11.6237 14.489 12.8537 15.719 12.8537 17.299C12.8537 18.849 11.6237 20.079 10.0637 20.079Z" /></svg>