<svg viewBox="0 0 44.80923697700961 33.933526347639706" xmlns="http://www.w3.org/2000/svg"><path d="M4.7762 6.4009L7.6562 1.4209C8.1362 0.5909 7.4662 -0.1491 6.6162 0.0309L2.2162 0.8309C1.6162 0.9409 1.3462 1.4109 1.5562 1.9909L3.0562 6.1909C3.3362 7.0309 4.2962 7.2209 4.7762 6.4009ZM9.6562 11.0909L10.2662 11.4309C10.3762 11.1009 10.5162 10.7909 10.6962 10.4709C11.9762 8.2409 14.7562 7.5009 16.9962 8.7909C19.2362 10.0909 19.9762 12.8609 18.6962 15.0909C18.5162 15.4109 18.3062 15.6809 18.0662 15.9409L29.3162 22.4309C29.4262 22.1109 29.5562 21.7809 29.7362 21.4809C31.0262 19.2309 33.7962 18.5009 36.0462 19.8009C38.2862 21.0809 39.0362 23.8609 37.7362 26.1009C37.5562 26.4009 37.3562 26.6909 37.1262 26.9309L37.7362 27.2909C39.8262 28.5009 41.3562 28.0509 42.6462 25.8209L44.1762 23.1709C45.2062 21.3909 44.9862 19.7709 43.5062 18.1309L42.2762 16.7509C41.2962 13.9709 39.7362 10.5109 36.1362 8.4309L34.6862 7.6009C30.7662 5.3409 28.8962 4.7709 25.6962 4.8909L20.3962 5.0809L15.8462 3.1609C13.0062 1.9409 10.4462 2.6609 9.1462 4.9309L8.4362 6.1509C7.1762 8.3409 7.5762 9.8809 9.6562 11.0909ZM13.0362 15.6709C14.6462 16.6009 16.6462 16.0609 17.5662 14.4509C18.4962 12.8409 17.9662 10.8409 16.3562 9.9109C14.7262 8.9809 12.7262 9.5109 11.8162 11.1309C10.8762 12.7409 11.4062 14.7409 13.0362 15.6709ZM0.1562 11.8009C-0.1638 12.3309 0.0262 13.0109 0.5362 13.3009L35.9962 33.8009C36.5062 34.0809 37.1862 33.9009 37.4762 33.4009C37.7962 32.8509 37.5962 32.1709 37.1062 31.8809L1.6262 11.4009C1.1362 11.1009 0.4362 11.2809 0.1562 11.8009ZM32.0762 26.6709C33.6862 27.6009 35.6862 27.0709 36.6262 25.4409C37.5462 23.8409 37.0162 21.8509 35.3962 20.9209C33.7862 19.9709 31.7862 20.5109 30.8562 22.1209C29.9262 23.7309 30.4662 25.7309 32.0762 26.6709Z" /></svg>