<svg viewBox="0 0 29.592313366470542 27.69921875" xmlns="http://www.w3.org/2000/svg"><path d="M12.8537 24.818C17.0537 27.218 19.4837 27.368 20.8737 24.968L26.3737 15.418L26.8337 15.698C27.3737 16.008 28.0437 15.828 28.3237 15.328L28.5637 14.898C28.8437 14.378 28.6837 13.738 28.1337 13.428L27.6737 13.168L29.0437 10.798C30.0937 8.998 29.6137 7.038 27.8537 5.278V0.808C27.8537 0.338 27.5037 -0.002 27.0437 -0.002H26.3137C25.8537 -0.002 25.5137 0.338 25.5137 0.808V3.498C25.4337 3.448 25.3437 3.408 25.2537 3.348C21.4937 1.188 18.3637 1.308 16.9237 3.798L15.5537 6.168L15.0937 5.908C14.5637 5.588 13.9137 5.758 13.6137 6.278L13.3737 6.688C13.0737 7.188 13.2637 7.858 13.7837 8.158L14.2637 8.418L8.7537 17.968C7.3537 20.368 8.6837 22.408 12.8537 24.818ZM0.8037 7.408H1.5437C1.9937 7.408 2.3337 7.068 2.3337 6.608V0.808C2.3337 0.338 1.9937 -0.002 1.5437 -0.002H0.8037C0.3437 -0.002 0.0037 0.338 0.0037 0.808V6.608C0.0037 7.068 0.3437 7.408 0.8037 7.408ZM13.8337 23.148C10.7037 21.338 9.7637 20.138 10.4837 18.878L18.6237 4.788C19.4537 3.348 21.4337 3.408 24.2637 5.028C27.1237 6.688 28.1737 8.378 27.3437 9.828L19.1937 23.928C18.4837 25.168 16.9637 24.948 13.8337 23.148ZM20.0437 12.368C20.7837 12.808 21.9937 13.608 22.4037 13.848C23.0537 14.218 23.5137 14.138 23.9837 13.468L24.9937 12.018C25.8237 10.828 25.2837 9.868 22.4337 8.228C19.6237 6.608 18.5137 6.608 17.8837 7.928L17.1437 9.528C16.8137 10.238 16.9437 10.688 17.6137 11.058C18.0237 11.318 19.2637 11.918 20.0437 12.368ZM0.8037 17.538H1.5437C1.9937 17.538 2.3337 17.198 2.3337 16.738V10.948C2.3337 10.498 1.9937 10.158 1.5437 10.158H0.8037C0.3437 10.158 0.0037 10.498 0.0037 10.948V16.738C0.0037 17.198 0.3437 17.538 0.8037 17.538ZM14.9737 21.168C17.7837 22.788 18.9337 22.888 19.4837 21.478L19.7937 20.668C20.2437 19.538 19.6237 18.748 17.1737 17.348C14.7537 15.938 13.7437 15.788 12.9837 16.748L12.4537 17.418C11.5137 18.608 12.1637 19.538 14.9737 21.168ZM26.3137 27.688H27.0437C27.5037 27.688 27.8537 27.348 27.8537 26.888V21.098C27.8537 20.628 27.5037 20.288 27.0437 20.288H26.3137C25.8537 20.288 25.5137 20.628 25.5137 21.098V26.888C25.5137 27.348 25.8537 27.688 26.3137 27.688ZM0.8037 27.698H1.5437C1.9937 27.698 2.3337 27.358 2.3337 26.888V21.098C2.3337 20.628 1.9937 20.288 1.5437 20.288H0.8037C0.3437 20.288 0.0037 20.628 0.0037 21.098V26.888C0.0037 27.358 0.3437 27.698 0.8037 27.698Z" /></svg>