
<svg
    viewBox={0 0 44.283203125 27.34375}
    xmlns="http://www.w3.org/2000/svg"
>
    <path
        fill="inherit"
        d="M9.1737 7.2893H9.8937C10.3637 7.2893 10.7037 6.9493 10.7037 6.4793V0.8093C10.7037 0.3393 10.3637 -0.0007 9.8937 -0.0007H9.1737C8.7137 -0.0007 8.3637 0.3393 8.3637 0.8093V6.4793C8.3637 6.9493 8.7137 7.2893 9.1737 7.2893ZM34.3737 7.2893H35.1137C35.5737 7.2893 35.9137 6.9493 35.9137 6.4793V0.8093C35.9137 0.3393 35.5737 -0.0007 35.1137 -0.0007H34.3737C33.9237 -0.0007 33.5737 0.3393 33.5737 0.8093V6.4793C33.5737 6.9493 33.9237 7.2893 34.3737 7.2893ZM22.1237 26.0593C26.9637 26.0593 29.1337 24.9693 29.1337 22.1793V11.1693H29.6837C30.2937 11.1693 30.7937 10.6893 30.7737 10.0993L30.7637 9.6293C30.7337 9.0193 30.2937 8.5593 29.6637 8.5593H29.1337V5.8193C29.1337 2.9493 26.4937 1.2593 22.1337 1.2693C17.8037 1.2693 15.1437 2.9393 15.1437 5.8193V8.5593H14.6137C13.9837 8.5593 13.5337 9.0193 13.5237 9.6093L13.5037 10.0993C13.4937 10.6893 13.9837 11.1693 14.6037 11.1693H15.1437V22.1793C15.1437 24.9693 17.3037 26.0593 22.1237 26.0593ZM22.1337 24.1293C18.5237 24.1193 17.1137 23.5593 17.1137 22.1193V5.8393C17.1137 4.1693 18.8537 3.2293 22.1237 3.2293C25.4337 3.2293 27.1837 4.1693 27.1837 5.8193V22.1193C27.1837 23.5593 25.7537 24.1193 22.1337 24.1293ZM22.1337 11.6893C22.9937 11.6993 24.4437 11.7693 24.9137 11.7893C25.6437 11.7893 26.0137 11.4693 26.0837 10.6793L26.2337 8.8993C26.3637 7.4693 25.4137 6.9193 22.1437 6.8993C18.8837 6.8993 17.9137 7.4693 18.0437 8.9093L18.2137 10.6593C18.2837 11.4693 18.6037 11.7893 19.3737 11.7693C19.8537 11.7893 21.2337 11.6993 22.1337 11.6893ZM0.0037 16.7093C0.0037 17.4493 0.6037 17.7593 1.2437 17.3593L6.0937 14.4093C6.7137 14.0293 6.7037 13.2993 6.0937 12.9193L1.2337 9.9393C0.5837 9.5393 0.0037 9.8893 0.0037 10.6093ZM44.2837 16.7093V10.6093C44.2837 9.8893 43.6937 9.5593 43.0437 9.9393L38.1837 12.9193C37.5837 13.3193 37.5737 14.0093 38.1837 14.4093L43.0437 17.3593C43.6937 17.7493 44.2837 17.4493 44.2837 16.7093ZM9.1737 17.3093H9.8937C10.3637 17.3093 10.7037 16.9693 10.7037 16.4993V10.8393C10.7037 10.3793 10.3637 10.0393 9.8937 10.0393H9.1737C8.7137 10.0393 8.3637 10.3793 8.3637 10.8393V16.4993C8.3637 16.9693 8.7137 17.3093 9.1737 17.3093ZM34.3737 17.3093H35.1137C35.5737 17.3093 35.9137 16.9693 35.9137 16.4993V10.8393C35.9137 10.3793 35.5737 10.0393 35.1137 10.0393H34.3737C33.9237 10.0393 33.5737 10.3793 33.5737 10.8393V16.4993C33.5737 16.9693 33.9237 17.3093 34.3737 17.3093ZM22.1337 21.8493C25.3937 21.8293 26.4237 21.3593 26.1937 19.8693L26.0737 18.9993C25.8937 17.7993 24.9537 17.4293 22.1437 17.4493C19.3337 17.4293 18.3937 17.8193 18.2137 18.9993L18.0837 19.8493C17.8437 21.3693 18.8937 21.8293 22.1337 21.8493ZM9.1737 27.3393H9.8937C10.3637 27.3393 10.7037 26.9993 10.7037 26.5493V20.8593C10.7037 20.3993 10.3637 20.0593 9.8937 20.0593H9.1737C8.7137 20.0593 8.3637 20.3993 8.3637 20.8593V26.5493C8.3637 26.9993 8.7137 27.3393 9.1737 27.3393ZM34.3737 27.3393H35.1137C35.5737 27.3393 35.9137 26.9993 35.9137 26.5493V20.8593C35.9137 20.3993 35.5737 20.0593 35.1137 20.0593H34.3737C33.9237 20.0593 33.5737 20.3993 33.5737 20.8593V26.5493C33.5737 26.9993 33.9237 27.3393 34.3737 27.3393Z"
        fillRule="evenodd"
        clipRule="evenodd"
    />
</svg>
        