
<svg
    viewBox={0 0 44.810190490528505 33.933526347639706}
    xmlns="http://www.w3.org/2000/svg"
>
    <path
        fill="inherit"
        d="M4.7762 6.4009L7.6562 1.4209C8.1362 0.5909 7.4662 -0.1491 6.6162 0.0309L2.2162 0.8309C1.6162 0.9409 1.3462 1.4109 1.5562 1.9909L3.0562 6.1909C3.3362 7.0309 4.2962 7.2209 4.7762 6.4009ZM12.4762 15.4709C13.9062 16.3109 15.6062 16.1609 16.8162 15.2209L30.5762 23.1609C30.3662 24.6909 31.0962 26.2209 32.5262 27.0609C33.9662 27.8909 35.6562 27.7409 36.8762 26.8009L37.7362 27.2909C39.8262 28.5009 41.3562 28.0509 42.6462 25.8209L44.1762 23.1709C45.2062 21.3909 44.9862 19.7709 43.5162 18.1309L42.2762 16.7509C41.3062 13.9409 39.7362 10.5109 36.1362 8.4309L34.6862 7.6009C30.7662 5.3409 28.8962 4.7709 25.6962 4.8909L20.3962 5.0809L15.8462 3.1609C13.0062 1.9409 10.4662 2.6609 9.1462 4.9309L8.4362 6.1509C7.1762 8.3409 7.5762 9.8809 9.6562 11.0909L10.5162 11.5809C10.3062 13.1109 11.0362 14.6409 12.4762 15.4709ZM38.6262 25.7409L38.0262 25.4009C38.9662 23.5309 38.3062 21.3009 36.4662 20.2309C34.6162 19.1709 32.3662 19.7109 31.2162 21.4609L17.9662 13.8209C18.9062 11.9509 18.2562 9.7209 16.4062 8.6509C14.5662 7.5909 12.3062 8.1309 11.1562 9.8809L10.5562 9.5409C9.5162 8.9409 9.3562 8.1509 10.0262 6.9809L10.6962 5.8209C11.5162 4.4009 13.1862 3.9409 15.1662 4.7809L19.2662 6.5309C19.8962 6.7909 20.3562 6.8909 20.9062 6.8809L25.7562 6.6809C28.6362 6.5909 30.1662 7.0509 33.7962 9.1409L35.2462 9.9809C37.7662 11.4309 39.2162 13.5109 40.4462 17.1209C40.6662 17.7609 40.8562 18.0009 41.3162 18.5109L42.1362 19.4309C43.0262 20.4109 43.2062 21.2709 42.6362 22.2809L41.0962 24.9409C40.4262 26.0809 39.6662 26.3409 38.6262 25.7409ZM13.3062 14.0309C12.2162 13.4009 11.8462 12.0309 12.4762 10.9409C13.1162 9.8309 14.4762 9.4709 15.5762 10.1009C16.6662 10.7309 17.0362 12.1009 16.3962 13.1909C15.7662 14.2909 14.3962 14.6509 13.3062 14.0309ZM0.1562 11.8009C-0.1638 12.3309 0.0262 13.0109 0.5362 13.3009L35.9962 33.8009C36.5062 34.0809 37.1862 33.9009 37.4762 33.4009C37.7962 32.8509 37.5962 32.1709 37.0962 31.8809L1.6262 11.4009C1.1362 11.1009 0.4362 11.2809 0.1562 11.8009ZM33.3662 25.6109C32.2662 24.9809 31.8962 23.6109 32.5262 22.5209C33.1662 21.4109 34.5362 21.0509 35.6362 21.6809C36.7262 22.3109 37.0962 23.6809 36.4562 24.7709C35.8262 25.8709 34.4562 26.2309 33.3662 25.6109Z"
        fillRule="evenodd"
        clipRule="evenodd"
    />
</svg>
        