
<svg
    viewBox={0 0 36.977096393272895 28.205078125}
    xmlns="http://www.w3.org/2000/svg"
>
    <path
        fill="inherit"
        d="M1.0412 19.2068H2.7212C3.5012 19.2068 3.8812 18.8268 4.1112 18.2768L11.1812 0.8068C11.3612 0.3568 11.1512 -0.0032 10.7212 -0.0032H9.8712C9.4312 -0.0032 9.1412 0.2168 8.9412 0.5968L0.1512 17.7768C-0.1988 18.4268 0.0412 19.2068 1.0412 19.2068ZM34.2612 19.2068H35.9312C36.9412 19.2068 37.1712 18.4268 36.8312 17.7768L28.0412 0.5968C27.8312 0.2168 27.5512 -0.0032 27.1112 -0.0032H26.2612C25.8112 -0.0032 25.6012 0.3568 25.8012 0.8068L32.8612 18.2768C33.1012 18.8268 33.4712 19.2068 34.2612 19.2068ZM10.3312 14.9868C10.3312 15.4868 10.7212 15.8768 11.2312 15.8768H12.0412C12.5512 15.8768 12.9412 15.4868 12.9412 14.9868V13.9868H23.8512V14.9868C23.8512 15.4868 24.2512 15.8768 24.7612 15.8768H25.5612C26.0712 15.8768 26.4712 15.4868 26.4712 14.9868V10.4168C26.4712 9.2868 26.3112 8.5868 25.6012 7.8068L24.9212 7.0668L24.2112 5.0168C23.8112 3.8968 23.0612 3.4268 22.1012 3.3268C21.6512 3.2668 20.1612 3.2268 18.4012 3.2268C16.6412 3.2268 15.1412 3.2668 14.6812 3.3268C13.7412 3.4268 12.9812 3.8968 12.5912 5.0168L11.8812 7.0668L11.1912 7.8068C10.4812 8.5868 10.3312 9.2868 10.3312 10.4168ZM13.7512 7.1068C13.4212 7.1068 13.3112 6.8768 13.4112 6.5768L13.8312 5.3068C14.0012 4.8268 14.2412 4.6768 14.6512 4.6168C15.1212 4.5668 16.4412 4.5068 18.4012 4.5068C20.3412 4.5068 21.6712 4.5668 22.1312 4.6168C22.5412 4.6768 22.7912 4.8268 22.9512 5.3068L23.3812 6.5768C23.4812 6.8768 23.3612 7.1068 23.0312 7.1068ZM12.8112 11.3768C12.3712 11.3768 12.0712 11.0568 12.0712 10.6468V9.5868C12.0712 9.1568 12.3712 8.8568 12.8112 8.8568C13.2212 8.8568 13.5312 9.1568 13.5312 9.5868V10.6468C13.5312 11.0768 13.2212 11.3768 12.8112 11.3768ZM24.0612 11.3768C23.6512 11.3768 23.3312 11.0568 23.3312 10.6468V9.5868C23.3312 9.1568 23.6512 8.8568 24.0612 8.8568C24.4812 8.8568 24.8012 9.1568 24.8012 9.5868V10.6468C24.8012 11.0768 24.4812 11.3768 24.0612 11.3768ZM16.8412 11.0468C16.5112 11.0468 16.2912 10.8168 16.2912 10.4568V9.7568C16.2912 9.4068 16.5112 9.1868 16.8412 9.1868H19.9212C20.2612 9.1868 20.4912 9.4068 20.4912 9.7568V10.4568C20.4912 10.8168 20.2612 11.0468 19.9212 11.0468ZM12.0812 28.2068C14.4112 28.2068 15.5412 26.5068 15.5412 24.2568C15.5412 21.9568 14.3812 20.2868 12.0812 20.2868C9.8712 20.2868 8.6512 21.9168 8.6512 24.2568C8.6512 26.4668 9.7612 28.2068 12.0812 28.2068ZM17.6512 28.1268C18.2812 28.1268 18.5212 27.7168 18.5212 27.2368V25.1168H20.7012C21.1512 25.1168 21.4312 24.8668 21.4312 24.4268C21.4312 23.9968 21.1612 23.7368 20.7012 23.7368H18.5212V21.9268H20.9312C21.4212 21.9268 21.6912 21.6668 21.6912 21.2068C21.6912 20.7368 21.4212 20.4668 20.9312 20.4668H17.6312C17.1312 20.4668 16.7712 20.8068 16.7712 21.3868V27.2368C16.7712 27.7168 17.0312 28.1268 17.6512 28.1268ZM23.6612 28.1268C24.2812 28.1268 24.5212 27.7168 24.5212 27.2368V25.1168H26.7012C27.1512 25.1168 27.4512 24.8668 27.4512 24.4268C27.4512 23.9968 27.1612 23.7368 26.7012 23.7368H24.5212V21.9268H26.9312C27.4412 21.9268 27.7112 21.6668 27.7112 21.2068C27.7112 20.7368 27.4412 20.4668 26.9312 20.4668H23.6512C23.1412 20.4668 22.7912 20.8068 22.7912 21.3868V27.2368C22.7912 27.7168 23.0512 28.1268 23.6612 28.1268ZM12.0812 26.7568C10.8512 26.7568 10.4312 25.4568 10.4312 24.2568C10.4312 22.9668 10.9112 21.7568 12.0812 21.7568C13.3512 21.7568 13.7612 23.0468 13.7612 24.2568C13.7612 25.5668 13.2912 26.7568 12.0812 26.7568Z"
        fillRule="evenodd"
        clipRule="evenodd"
    />
</svg>
        