
<svg
    viewBox="0 0 49.013671875 25.01953125"
    xmlns="http://www.w3.org/2000/svg"
>
    <path
        fill="inherit"
        d="M24.6737 25.0172C27.5637 25.0172 28.9737 23.6572 28.9737 20.7972V14.1072C28.9737 12.1572 28.4237 11.0972 26.8537 9.9072L16.2237 1.8272C14.4237 0.4772 13.0337 -0.0028 10.8037 -0.0028H4.1737C1.4037 -0.0028 0.0037 1.3972 0.0037 4.1272V20.7972C0.0037 23.6572 1.3937 25.0172 4.2937 25.0172ZM24.5937 12.4172H4.2137C2.9537 12.4172 2.2037 11.6872 2.2037 10.3772V4.2372C2.2037 2.9072 2.9437 2.1972 4.2137 2.1972H10.8037C12.5537 2.1972 13.5637 2.4972 14.7237 3.4272L24.9137 11.2272C25.4737 11.6372 25.3237 12.4172 24.5937 12.4172ZM35.1137 20.0972C35.5337 20.0972 35.7937 19.9472 36.2137 19.5472L41.5237 14.2072L46.8137 19.5372C47.2237 19.9372 47.4837 20.0872 47.9037 20.0872C48.4937 20.0872 49.0137 19.5772 49.0137 19.0072C49.0137 18.6072 48.8737 18.3472 48.5237 17.9772L43.1437 12.5672L48.5237 7.1472C48.8737 6.7772 49.0137 6.5172 49.0137 6.1272C49.0137 5.5472 48.5037 5.0572 47.9237 5.0572C47.4937 5.0572 47.2337 5.2072 46.8137 5.6072L41.5037 10.9372L36.2337 5.6072C35.8237 5.2072 35.5437 5.0572 35.1337 5.0572C34.5337 5.0572 34.0337 5.5472 34.0337 6.1372C34.0337 6.5472 34.1637 6.8272 34.5037 7.1772L39.8837 12.5672L34.5037 17.9872C34.1537 18.3572 34.0137 18.6172 34.0137 19.0272C34.0137 19.6072 34.5237 20.0972 35.1137 20.0972Z"
        fillRule="evenodd"
        clipRule="evenodd"
    />
</svg>
        