<svg viewBox="0 0 32.34765625 25.361328125" xmlns="http://www.w3.org/2000/svg"><path d="M2.5137 25.3623H4.1137C5.1437 25.3623 5.9337 24.5723 5.9337 23.5523V21.3123C8.9137 21.4823 12.9237 21.6023 16.1737 21.6023C19.4237 21.6023 23.4337 21.4823 26.4237 21.3123V23.5523C26.4237 24.5723 27.2037 25.3623 28.2337 25.3623H29.8437C30.8737 25.3623 31.6537 24.5723 31.6537 23.5523V20.1023C32.1137 19.6023 32.3437 18.9323 32.3437 18.0923V15.6823C32.3437 13.3723 31.8837 12.0823 30.6237 10.4423L29.4637 8.9523C28.9737 6.4923 28.0537 3.9123 27.5937 2.9023C26.8537 1.3523 25.4437 0.4423 23.6237 0.1923C22.7137 0.0723 19.7137 0.0023 16.1737 0.0023C12.6437 0.0023 9.6537 0.0823 8.7337 0.1923C6.9137 0.4123 5.4937 1.3523 4.7737 2.9023C4.2937 3.9123 3.3937 6.4923 2.8837 8.9523L1.7337 10.4423C0.4637 12.0823 0.0037 13.3723 0.0037 15.6823V18.0923C0.0037 18.9323 0.2437 19.6023 0.6937 20.1023V23.5523C0.6937 24.5723 1.4937 25.3623 2.5137 25.3623ZM16.1737 19.8123C11.5237 19.8123 5.5637 19.5923 3.3637 19.3223C2.2037 19.1823 1.7937 18.5823 1.7937 17.5423V15.6823C1.7937 13.8123 2.0937 12.9323 3.1537 11.5423L4.5537 9.7023C4.9237 7.7223 5.8137 4.9623 6.3937 3.7023C6.8337 2.7623 7.6937 2.1723 8.9437 2.0223C9.8137 1.9123 12.5937 1.7923 16.1737 1.7923C19.7737 1.7923 22.5837 1.9123 23.3837 2.0223C24.6637 2.1923 25.5137 2.7723 25.9637 3.7023C26.5537 4.9623 27.4437 7.7223 27.7937 9.7023L29.2037 11.5423C30.2537 12.9323 30.5537 13.8123 30.5537 15.6823V17.5423C30.5537 18.5823 30.1437 19.1823 28.9837 19.3223C26.7937 19.5923 20.8237 19.8123 16.1737 19.8123ZM6.4137 8.6023C6.3037 9.0823 6.5037 9.2723 7.0237 9.2423C9.2137 9.0923 11.8137 8.9723 16.1737 8.9723C20.5537 8.9723 23.1437 9.0923 25.3337 9.2423C25.8437 9.2723 26.0437 9.0823 25.9337 8.6023C25.6037 7.1523 24.9737 5.2623 24.5437 4.5123C24.1837 3.8923 23.7937 3.6223 23.0737 3.5323C22.0937 3.3923 19.8537 3.2923 16.1737 3.2923C12.5137 3.2923 10.2637 3.3923 9.2737 3.5323C8.5537 3.6223 8.1637 3.8923 7.8037 4.5123C7.3737 5.2623 6.7537 7.1523 6.4137 8.6023ZM6.3137 17.9123C7.5637 17.9123 8.5137 16.9523 8.5137 15.7123C8.5137 14.4523 7.5637 13.5123 6.3137 13.5123C5.0737 13.5123 4.1137 14.4523 4.1137 15.7123C4.1137 16.9523 5.0737 17.9123 6.3137 17.9123ZM26.0337 17.9123C27.2937 17.9123 28.2337 16.9523 28.2337 15.7123C28.2337 14.4523 27.2937 13.5123 26.0337 13.5123C24.7837 13.5123 23.8437 14.4523 23.8437 15.7123C23.8437 16.9523 24.7837 17.9123 26.0337 17.9123ZM12.5637 17.3623H19.7937C20.7237 17.3623 21.3737 16.7223 21.3737 15.7823C21.3737 14.8523 20.7237 14.2023 19.7937 14.2023H12.5637C11.6237 14.2023 10.9737 14.8523 10.9737 15.7823C10.9737 16.7223 11.6237 17.3623 12.5637 17.3623Z" /></svg>