
<svg
    viewBox={0 0 39.39019636459362 20.466796875}
    xmlns="http://www.w3.org/2000/svg"
>
    <path
        fill="inherit"
        d="M9.0233 3.634H10.0033C10.6233 3.634 10.8833 3.404 11.0833 2.884L11.8933 0.844C12.0833 0.394 11.8833 0.004 11.4033 0.004H10.5033C10.0333 0.004 9.7433 0.234 9.5333 0.644L8.4533 2.724C8.2333 3.134 8.4533 3.634 9.0233 3.634ZM29.3833 3.634H30.3633C30.9433 3.634 31.1533 3.134 30.9433 2.724L29.8633 0.644C29.6533 0.234 29.3533 0.004 28.8933 0.004H27.9833C27.5033 0.004 27.3033 0.394 27.4933 0.844L28.3033 2.884C28.5033 3.404 28.7633 3.634 29.3833 3.634ZM11.0333 15.944C11.0333 16.474 11.4433 16.894 11.9933 16.894H12.8333C13.3833 16.894 13.8033 16.474 13.8033 15.944V14.884H25.4333V15.944C25.4333 16.474 25.8433 16.894 26.3833 16.894H27.2433C27.7833 16.894 28.2033 16.474 28.2033 15.944V11.084C28.2033 9.874 28.0433 9.134 27.2933 8.314L26.5633 7.524L25.8033 5.334C25.3733 4.144 24.5833 3.654 23.5733 3.524C23.0733 3.474 21.4933 3.434 19.6233 3.434C17.7433 3.434 16.1433 3.474 15.6633 3.524C14.6533 3.654 13.8533 4.144 13.4433 5.334L12.6733 7.524L11.9533 8.314C11.1933 9.134 11.0333 9.874 11.0333 11.084ZM14.6733 7.564C14.3133 7.564 14.2033 7.304 14.3133 6.984L14.7633 5.634C14.9333 5.124 15.1933 4.964 15.6233 4.904C16.1333 4.844 17.5433 4.784 19.6233 4.784C21.6933 4.784 23.0933 4.844 23.5933 4.904C24.0333 4.964 24.2933 5.124 24.4733 5.634L24.9233 6.984C25.0333 7.304 24.9133 7.564 24.5533 7.564ZM5.2733 11.234H6.7933C7.4233 11.234 7.7933 11.024 8.0233 10.434L9.2133 7.504C9.4033 7.024 9.1033 6.564 8.5733 6.564H7.2233C6.7533 6.564 6.3733 6.794 6.1533 7.214L4.6333 10.174C4.3633 10.694 4.6933 11.234 5.2733 11.234ZM32.6033 11.234H34.1133C34.7033 11.234 35.0233 10.694 34.7633 10.174L33.2533 7.214C33.0133 6.794 32.6333 6.564 32.1733 6.564H30.8133C30.2833 6.564 29.9833 7.024 30.1733 7.504L31.3633 10.434C31.6133 11.024 31.9633 11.234 32.6033 11.234ZM13.6533 12.104C13.2033 12.104 12.8833 11.774 12.8833 11.324V10.184C12.8833 9.744 13.2033 9.424 13.6533 9.424C14.0933 9.424 14.4233 9.734 14.4233 10.184V11.324C14.4233 11.774 14.0933 12.104 13.6533 12.104ZM25.6433 12.104C25.2133 12.104 24.8833 11.754 24.8833 11.324V10.184C24.8833 9.744 25.2133 9.424 25.6433 9.424C26.1033 9.424 26.4233 9.734 26.4233 10.184V11.324C26.4233 11.774 26.1033 12.104 25.6433 12.104ZM17.9633 11.744C17.6133 11.744 17.3733 11.514 17.3733 11.124V10.394C17.3733 10.004 17.6133 9.774 17.9633 9.774H21.2433C21.6033 9.774 21.8333 10.004 21.8333 10.394V11.124C21.8333 11.514 21.6033 11.744 21.2433 11.744ZM1.1033 20.464H2.8933C3.7233 20.464 4.1333 20.074 4.3433 19.484L6.0133 15.394C6.2633 14.794 5.8833 14.204 5.2233 14.204H3.6733C2.8133 14.204 2.3933 14.534 2.0933 15.104L0.1533 18.954C-0.2067 19.644 0.0533 20.464 1.1033 20.464ZM36.4933 20.464H38.2833C39.3433 20.464 39.5933 19.644 39.2333 18.954L37.2933 15.104C36.9933 14.534 36.5733 14.204 35.7133 14.204H34.1833C33.5133 14.204 33.1233 14.794 33.3733 15.394L35.0433 19.484C35.2733 20.074 35.6733 20.464 36.4933 20.464Z"
        fillRule="evenodd"
        clipRule="evenodd"
    />
</svg>
        