
<svg
    viewBox={0 0 26.154296875 21.998046875}
    xmlns="http://www.w3.org/2000/svg"
>
    <path
        fill="inherit"
        d="M0.0037 0.2153V19.1853H7.9737C7.8937 18.7553 7.8337 18.3353 7.8337 17.8953C7.8337 14.7153 10.3537 12.2053 13.5337 12.2053C16.7337 12.2053 19.2337 14.7153 19.2337 17.8953C19.2337 18.3353 19.1937 18.7553 19.0837 19.1853H19.9737C22.9737 19.1853 24.3037 17.7553 24.3037 14.5853V10.8053C24.3037 8.2553 23.0937 6.6753 20.4937 5.8253L19.2137 5.4053L21.9337 2.6253C22.2337 2.2953 22.6137 2.1753 23.0537 2.1753H25.1437C25.7737 2.1753 26.1537 1.7753 26.1537 1.1853C26.1537 0.6053 25.7737 0.2053 25.1437 0.2053H23.2937C22.1337 0.2053 21.1237 0.5353 20.3437 1.3353L17.3937 4.3353C14.7237 2.1853 11.2137 -0.0047 6.6337 -0.0047H4.5537C2.7437 -0.0047 1.2737 0.0553 0.0037 0.2153ZM13.5337 21.9953C15.8437 21.9953 17.6537 20.1953 17.6537 17.8953C17.6537 15.5953 15.8437 13.7953 13.5337 13.7953C11.2337 13.7953 9.4337 15.5953 9.4337 17.8953C9.4337 20.1953 11.2337 21.9953 13.5337 21.9953Z"
        fillRule="evenodd"
        clipRule="evenodd"
    />
</svg>
        