
<svg
    viewBox={0 0 26.46875 32.7578125}
    xmlns="http://www.w3.org/2000/svg"
>
    <path
        fill="inherit"
        d="M13.2337 2.2263C16.1737 2.2263 18.8537 3.2563 20.8937 5.0863C21.4537 5.5963 22.0937 5.7163 22.5837 5.2863C23.0937 4.8363 23.0937 4.0863 22.5137 3.5563C20.0537 1.2863 16.7737 -0.0037 13.2337 -0.0037C9.6937 -0.0037 6.4137 1.2863 3.9537 3.5563C3.3737 4.0863 3.3737 4.8363 3.8837 5.2863C4.3737 5.7163 5.0137 5.5963 5.5737 5.0863C7.6137 3.2563 10.2937 2.2263 13.2337 2.2263ZM13.2337 7.7063C14.6537 7.7063 15.9837 8.1163 16.9937 8.9463C17.5837 9.3663 18.1937 9.5563 18.6937 9.1163C19.2137 8.6663 19.2237 7.8463 18.5937 7.3563C17.1137 6.1663 15.2437 5.4863 13.2337 5.4863C11.2237 5.4863 9.3537 6.1663 7.8737 7.3563C7.2437 7.8463 7.2637 8.6663 7.7837 9.1163C8.2737 9.5563 8.8737 9.3663 9.4737 8.9463C10.5237 8.1463 11.8137 7.7063 13.2337 7.7063ZM0.0037 31.1763C0.0037 32.0463 0.6937 32.7563 1.6037 32.7563H2.9137C3.8037 32.7563 4.4937 32.0463 4.4937 31.1763V29.6963H21.9737V31.1763C21.9737 32.0463 22.6637 32.7563 23.5537 32.7563H24.8837C25.7737 32.7563 26.4737 32.0463 26.4737 31.1763V23.8463C26.4737 21.9563 26.2237 20.7963 25.0337 19.5063L23.9537 18.3163L22.7737 15.0263C22.1237 13.1563 20.8537 12.3463 19.2737 12.1663C18.5437 12.0763 16.0937 12.0163 13.2337 12.0163C10.3737 12.0163 7.9337 12.0763 7.1937 12.1663C5.6237 12.3463 4.3437 13.1563 3.6937 15.0263L2.5137 18.3163L1.4337 19.5063C0.2437 20.7963 0.0037 21.9563 0.0037 23.8463ZM5.6837 18.3163C5.2337 18.3163 5.1137 18.0463 5.2637 17.6063L5.9637 15.5563C6.2237 14.8363 6.5237 14.6463 7.1637 14.5463C7.9437 14.4363 10.0737 14.3463 13.2337 14.3463C16.3937 14.3463 18.5237 14.4363 19.2937 14.5463C19.9337 14.6463 20.2437 14.8363 20.5037 15.5563L21.2037 17.6063C21.3537 18.0463 21.2237 18.3163 20.7637 18.3163ZM4.1437 25.2363C3.5137 25.2363 3.0937 24.8163 3.0937 24.1963V22.4663C3.0937 21.8463 3.5137 21.4363 4.1437 21.4363C4.7737 21.4363 5.1837 21.8363 5.1837 22.4663V24.1963C5.1837 24.8263 4.7737 25.2363 4.1437 25.2363ZM22.4337 25.2363C21.8237 25.2363 21.3937 24.8163 21.3937 24.1963V22.4663C21.3937 21.8463 21.8237 21.4363 22.4337 21.4363C23.0637 21.4363 23.4837 21.8363 23.4837 22.4663V24.1963C23.4837 24.8263 23.0637 25.2363 22.4337 25.2363ZM10.7037 24.7063C10.2237 24.7063 9.9537 24.4363 9.9537 23.8863V22.7663C9.9537 22.2463 10.2237 21.9663 10.7037 21.9663H15.7237C16.2137 21.9663 16.4837 22.2463 16.4837 22.7663V23.8863C16.4837 24.4363 16.2137 24.7063 15.7237 24.7063Z"
        fillRule="evenodd"
        clipRule="evenodd"
    />
</svg>
        