
<svg
    viewBox={0 0 48.712890625 22.1484375}
    xmlns="http://www.w3.org/2000/svg"
>
    <path
        fill="inherit"
        d="M4.3437 19.199H5.5637C6.2937 20.949 8.0137 22.149 10.0637 22.149C12.1137 22.149 13.8237 20.949 14.5437 19.199H34.1637C34.8937 20.949 36.6037 22.149 38.6537 22.149C40.7037 22.149 42.4137 20.949 43.1337 19.199H44.3637C47.3637 19.199 48.7137 17.769 48.7137 14.599V10.819C48.7137 8.269 47.4837 6.689 44.8837 5.839L42.7137 5.109C39.9537 2.719 36.1437 0.009 31.0237 0.009H28.9437C23.3637 0.009 21.0137 0.579 17.6637 2.679L12.7937 5.729L8.2037 1.119C7.4137 0.329 6.3737 -0.001 5.1237 -0.001H1.0137C0.3837 -0.001 0.0037 0.379 0.0037 0.969C0.0037 1.559 0.3837 1.969 1.0137 1.969H5.3737C5.8837 1.969 6.2737 2.089 6.6037 2.419L10.5237 6.339L6.0737 6.889C2.2837 7.359 0.0037 9.709 0.0037 12.929V14.679C0.0037 17.799 1.3837 19.199 4.3437 19.199ZM38.6537 12.429C36.0237 12.429 33.9437 14.409 33.7937 16.999H14.9137C14.7637 14.409 12.6837 12.429 10.0637 12.429C7.4237 12.429 5.3637 14.409 5.2137 16.999H4.3437C2.8737 16.999 2.2037 16.239 2.2037 14.599V12.929C2.2037 10.909 3.7037 9.379 6.3437 9.069L11.8137 8.399C12.6337 8.289 13.1937 8.089 13.7637 7.749L18.8437 4.549C21.8637 2.669 23.7737 2.219 28.9437 2.219H31.0237C34.6037 2.219 37.4437 3.539 40.9737 6.629C41.6137 7.189 41.9637 7.339 42.7837 7.599L44.2237 8.069C45.7837 8.569 46.5137 9.379 46.5137 10.819V14.599C46.5137 16.239 45.8437 16.999 44.3637 16.999H43.5037C43.3537 14.409 41.2737 12.429 38.6537 12.429ZM10.0637 20.079C8.4937 20.079 7.2637 18.849 7.2637 17.299C7.2637 15.719 8.4937 14.489 10.0637 14.489C11.6237 14.489 12.8537 15.719 12.8537 17.299C12.8537 18.849 11.6237 20.079 10.0637 20.079ZM38.6537 20.079C37.0937 20.079 35.8437 18.849 35.8437 17.299C35.8437 15.719 37.0937 14.489 38.6537 14.489C40.2137 14.489 41.4537 15.719 41.4537 17.299C41.4537 18.849 40.2137 20.079 38.6537 20.079Z"
        fillRule="evenodd"
        clipRule="evenodd"
    />
</svg>
        