
<svg
    viewBox="0 0 34.49543198470446 20.642618527781327"
    xmlns="http://www.w3.org/2000/svg"
>
    <path
        fill="inherit"
        d="M2.5193 20.464C3.4693 20.464 3.7493 19.974 3.8593 19.344C5.0893 12.534 7.9193 6.974 13.9293 0.844C14.2693 0.494 13.9993 0.004 13.5893 0.004H12.9693C12.6293 0.004 12.3593 0.064 11.8693 0.464C6.9993 4.304 1.9693 10.354 0.0393 19.234C-0.1107 19.874 0.1493 20.464 0.9993 20.464ZM33.5893 20.464C34.3593 20.464 34.6593 19.924 34.4093 19.234C32.1393 13.204 31.6893 7.504 33.2193 0.804C33.3493 0.264 33.0193 0.004 32.5893 0.004H32.0593C31.6093 0.004 31.3193 0.154 31.1893 0.574C29.1093 6.944 29.2193 13.394 30.7993 19.664C30.9093 20.134 31.2393 20.464 31.9393 20.464ZM7.9793 17.434C7.9193 17.964 8.2693 18.434 8.7993 18.514L9.6493 18.634C10.1993 18.704 10.6593 18.344 10.7493 17.814L10.8793 16.774L22.3893 18.384L22.2393 19.424C22.1793 19.964 22.5293 20.444 23.0593 20.504L23.9093 20.634C24.4593 20.714 24.9193 20.354 25.0093 19.824L25.6793 15.024C25.8393 13.804 25.7893 13.054 25.1593 12.144L24.5393 11.254L24.0893 8.984C23.8393 7.754 23.1193 7.154 22.1293 6.894C21.6593 6.764 20.0993 6.494 18.2393 6.234C16.3793 5.974 14.7893 5.794 14.2993 5.784C13.2893 5.774 12.4293 6.134 11.8493 7.264L10.7893 9.324L9.9493 10.004C9.1093 10.704 8.8293 11.414 8.6693 12.634ZM12.7593 9.634C12.4093 9.594 12.3293 9.324 12.4793 9.024L13.1293 7.734C13.3593 7.274 13.6393 7.154 14.0793 7.154C14.5893 7.154 15.9993 7.284 18.0493 7.574C20.0993 7.864 21.4793 8.124 21.9693 8.254C22.3893 8.384 22.6393 8.574 22.7393 9.094L22.9993 10.504C23.0593 10.824 22.8993 11.064 22.5593 11.024ZM11.1293 13.984C10.6793 13.934 10.3993 13.564 10.4593 13.124L10.6193 11.994C10.6793 11.554 11.0493 11.294 11.4993 11.344C11.9393 11.414 12.2193 11.774 12.1493 12.204L11.9993 13.334C11.9393 13.784 11.5693 14.054 11.1293 13.984ZM15.4393 14.244C15.0893 14.194 14.8893 13.934 14.9393 13.544L15.0493 12.814C15.0893 12.444 15.3693 12.254 15.7093 12.294L18.9593 12.754C19.3193 12.794 19.5193 13.074 19.4693 13.444L19.3593 14.164C19.3193 14.544 19.0393 14.754 18.6893 14.694ZM22.9993 15.654C22.5693 15.604 22.2893 15.234 22.3393 14.794L22.4993 13.674C22.5593 13.234 22.9393 12.964 23.3793 13.014C23.8193 13.084 24.0993 13.444 24.0393 13.874L23.8793 15.014C23.8193 15.454 23.4493 15.724 22.9993 15.654Z"
        fillRule="evenodd"
        clipRule="evenodd"
    />
</svg>
        