
<svg
    viewBox="0 0 26.71881274167162 35.4375"
    xmlns="http://www.w3.org/2000/svg"
>
    <path
        fill="inherit"
        d="M9.3837 26.9198C14.6437 26.9198 16.9937 25.7298 16.9937 22.7098V10.7698H17.5837C18.2637 10.7698 18.7837 10.2498 18.7837 9.6098V9.0898C18.7837 8.4398 18.2637 7.9298 17.5837 7.9298H16.9937V4.9598C16.9937 1.8498 14.1237 -0.0002 9.3837 -0.0002C4.6637 -0.0002 1.7937 1.8498 1.7937 4.9598V7.9298H1.2037C0.5237 7.9298 0.0037 8.4398 0.0037 9.0898V9.6098C0.0037 10.2498 0.5237 10.7698 1.2037 10.7698H1.7937V22.7098C1.7937 25.7298 4.1337 26.9198 9.3837 26.9198ZM9.3937 11.2498C8.3837 11.2498 6.8537 11.3298 6.3037 11.3298C5.4737 11.3298 5.0837 10.9798 5.0037 10.0898L4.8237 8.1198C4.6737 6.4898 5.7537 5.8798 9.3937 5.8798C13.0337 5.8798 14.0937 6.4898 13.9637 8.1198L13.7937 10.0898C13.7237 10.9798 13.3337 11.3298 12.4837 11.3298C11.9537 11.3298 10.3537 11.2498 9.3937 11.2498ZM9.3937 22.5598C5.7537 22.5598 4.5837 22.0298 4.8637 20.3398L5.0137 19.3898C5.2337 18.0498 6.2637 17.6198 9.3937 17.6198C12.5237 17.6198 13.5737 18.0498 13.7837 19.3898L13.9137 20.3398C14.1737 22.0298 13.0337 22.5598 9.3937 22.5598ZM19.9037 28.5998C21.0937 27.4098 21.8037 25.9398 21.9837 24.2698C22.0837 23.5298 21.6037 23.0598 21.0037 23.0598C20.3337 23.0598 20.0337 23.3798 19.9037 24.1398C19.7537 25.3098 19.2737 26.3198 18.4537 27.1498C17.5937 27.9998 16.6137 28.4898 15.5537 28.5998C14.7137 28.7198 14.3237 29.1598 14.3237 29.7098C14.3237 30.2998 14.7637 30.7098 15.4037 30.7098C16.5837 30.7098 18.4937 30.0098 19.9037 28.5998ZM23.2937 32.0098C25.4137 29.9098 26.5337 27.2298 26.7137 24.3398C26.7737 23.5798 26.2537 23.1998 25.7137 23.1998C25.0337 23.1998 24.6737 23.5398 24.6137 24.4198C24.4737 26.6698 23.5437 28.8498 21.8437 30.5598C20.1437 32.2498 17.9537 33.1798 15.7137 33.3198C14.9337 33.3698 14.4637 33.7598 14.4637 34.3398C14.4637 34.9898 14.9437 35.4398 15.6437 35.4398C18.5437 35.4398 21.2037 34.1098 23.2937 32.0098Z"
        fillRule="evenodd"
        clipRule="evenodd"
    />
</svg>
        