
<svg
    viewBox="0 0 31.25390625 21.998046875"
    xmlns="http://www.w3.org/2000/svg"
>
    <path
        fill="inherit"
        d="M0 0.2153V19.1853H7.97C7.89 18.7553 7.83 18.3353 7.83 17.8953C7.83 14.7153 10.35 12.2053 13.54 12.2053C16.73 12.2053 19.24 14.7153 19.24 17.8953C19.24 18.3353 19.2 18.7553 19.09 19.1853H19.97C21.42 19.1853 22.5 18.8353 23.21 18.1253H27.33V19.1453C27.33 19.6353 27.73 20.0253 28.23 20.0253C28.72 20.0253 29.11 19.6353 29.11 19.1453V18.1253H30.43C30.88 18.1253 31.25 17.7353 31.25 17.2853C31.25 16.8153 30.88 16.4353 30.43 16.4353H29.11V14.8653H29.38C29.5 14.8653 29.64 14.8053 29.78 14.7353C30.38 14.2353 30.79 13.5053 30.79 12.6753C30.79 11.2953 29.64 10.1353 28.23 10.1353C26.82 10.1353 25.66 11.2953 25.66 12.6753C25.66 13.5053 26.09 14.2353 26.69 14.7353C26.81 14.8053 26.95 14.8653 27.08 14.8653H27.33V16.4353H24.12C24.25 15.9053 24.31 15.2853 24.31 14.5853V10.8053C24.31 8.2553 23.09 6.6753 20.49 5.8253L18.32 5.0953C15.56 2.7453 11.76 -0.0047 6.63 -0.0047H4.55C2.75 -0.0047 1.27 0.0553 0 0.2153ZM13.54 21.9953C15.85 21.9953 17.65 20.1953 17.65 17.8953C17.65 15.5953 15.85 13.7953 13.54 13.7953C11.24 13.7953 9.43 15.5953 9.43 17.8953C9.43 20.1953 11.24 21.9953 13.54 21.9953Z"
        fillRule="evenodd"
        clipRule="evenodd"
    />
</svg>
        