
<svg
    viewBox={0 0 36.88671875 25.01953125}
    xmlns="http://www.w3.org/2000/svg"
>
    <path
        fill="inherit"
        d="M4.2937 25.0172H24.6737C27.5737 25.0172 28.9737 23.6572 28.9737 20.7972V4.1272C28.9737 1.3972 27.5637 -0.0028 24.8037 -0.0028H18.1737C15.9437 -0.0028 14.5437 0.4772 12.7437 1.8272L2.1237 9.9072C0.5437 11.0972 0.0037 12.1572 0.0037 14.1072V20.7972C0.0037 23.6572 1.4037 25.0172 4.2937 25.0172ZM4.3737 12.4172C3.6537 12.4172 3.5037 11.6372 4.0637 11.2272L14.2437 3.4272C15.4037 2.4972 16.4237 2.1972 18.1737 2.1972H24.7637C26.0337 2.1972 26.7737 2.9072 26.7737 4.2372V10.3772C26.7737 11.6872 26.0137 12.4172 24.7637 12.4172ZM35.0937 15.5972C35.7637 15.5972 36.2337 15.1372 36.2537 14.4372L36.5437 4.7572C36.5737 3.8872 35.9937 3.2972 35.0937 3.2972C34.1937 3.2972 33.6037 3.8872 33.6337 4.7572L33.9237 14.4372C33.9437 15.1372 34.4237 15.5972 35.0937 15.5972ZM35.0937 21.6672C36.0637 21.6672 36.8837 20.8772 36.8837 19.9472C36.8837 19.0072 36.0837 18.2272 35.0937 18.2272C34.0937 18.2272 33.3037 19.0072 33.3037 19.9472C33.3037 20.8772 34.1237 21.6672 35.0937 21.6672Z"
        fillRule="evenodd"
        clipRule="evenodd"
    />
</svg>
        