
<svg
    viewBox={0 0 45.349609375 33.7216796875}
    xmlns="http://www.w3.org/2000/svg"
>
    <path
        fill="inherit"
        d="M20.4437 6.167H34.9737C36.0637 6.167 36.6837 5.457 36.6837 4.347V2.997C36.6837 1.007 35.6537 -0.003 33.3637 -0.003H30.7237C28.2737 -0.003 26.3037 0.647 23.1437 1.937L20.0737 3.237C19.2137 3.597 18.9337 4.197 18.9337 4.787C18.9337 5.677 19.3837 6.167 20.4437 6.167ZM38.3537 33.417C38.7637 33.827 39.4437 33.827 39.8437 33.417C40.2537 33.007 40.2537 32.337 39.8437 31.927L8.9237 1.027C8.5037 0.597 7.8437 0.597 7.4237 1.027C7.0237 1.417 7.0137 2.087 7.4237 2.517ZM41.8037 13.797L39.7737 13.137C37.2037 10.947 33.6637 8.397 28.8937 8.397H26.9437C23.5537 8.397 21.4537 8.617 19.5137 9.337L31.6137 21.437C32.4737 20.417 33.8137 19.757 35.3137 19.757C38.2937 19.757 40.6337 22.077 40.6337 25.047C40.6337 25.457 40.5737 25.857 40.4937 26.247H41.3037C44.1037 26.247 45.3537 24.927 45.3537 21.967V18.447C45.3537 16.077 44.2137 14.577 41.8037 13.797ZM14.6537 11.987L11.3037 14.097L5.6437 14.797C2.1337 15.217 0.0037 17.417 0.0037 20.427V22.037C0.0037 24.937 1.2837 26.247 4.0437 26.247H4.8537C4.7737 25.857 4.7137 25.457 4.7137 25.047C4.7137 22.077 7.0537 19.757 10.0337 19.757C13.0137 19.757 15.3537 22.077 15.3537 25.047C15.3537 25.457 15.3037 25.857 15.2137 26.247H28.9337ZM10.0337 28.877C12.1837 28.877 13.8637 27.197 13.8637 25.047C13.8637 22.917 12.1837 21.237 10.0337 21.237C7.8937 21.237 6.2237 22.917 6.2237 25.047C6.2237 27.197 7.8937 28.877 10.0337 28.877ZM39.1537 25.047C39.1537 22.917 37.4737 21.237 35.3137 21.237C34.2237 21.237 33.2637 21.747 32.7037 22.527L37.8537 27.687C38.6337 27.127 39.1537 26.157 39.1537 25.047Z"
        fillRule="evenodd"
        clipRule="evenodd"
    />
</svg>
        