<svg viewBox="0 0 31.759765625 35.30078125" xmlns="http://www.w3.org/2000/svg"><path d="M12.2537 35.3015C19.1537 35.3015 22.1037 33.7815 22.1037 30.0615V13.7815H23.2137C23.9537 13.7815 24.5137 13.2215 24.5137 12.5115V11.8415C24.5137 11.1315 23.9537 10.5815 23.2137 10.5815H22.1037V6.3315C22.1037 2.3415 18.4737 0.0015 12.2537 0.0015C6.0437 0.0015 2.4237 2.3415 2.4237 6.3315V10.5815H1.3037C0.5737 10.5815 0.0037 11.1315 0.0037 11.8415V12.5115C0.0037 13.2215 0.5737 13.7815 1.3037 13.7815H2.4237V30.0615C2.4237 33.7815 5.3637 35.3015 12.2537 35.3015ZM12.2537 33.0315C6.9737 33.0315 4.7037 32.1415 4.7037 29.9515V6.3315C4.7037 3.7715 7.4737 2.2815 12.2537 2.2815C17.0337 2.2815 19.8237 3.7715 19.8237 6.3315V29.9515C19.8237 32.1415 17.5437 33.0315 12.2537 33.0315ZM12.2637 14.6815C13.4837 14.6815 15.5537 14.7815 16.2437 14.7815C17.2837 14.7815 17.7237 14.3815 17.8137 13.3115L18.0437 10.7415C18.2137 8.7815 16.8337 7.9815 12.2637 7.9815C7.6937 7.9815 6.3037 8.7815 6.4837 10.7415L6.7137 13.3115C6.7937 14.3815 7.2437 14.7815 8.2737 14.7815C8.9737 14.7815 10.9637 14.6815 12.2637 14.6815ZM31.7637 27.2715V21.1815C31.7637 20.4515 31.1737 20.1115 30.5337 20.5115L25.6737 23.4915C25.0637 23.8715 25.0437 24.5915 25.6737 24.9815L30.5337 27.9315C31.1737 28.3315 31.7637 28.0115 31.7637 27.2715ZM12.2637 29.2715C16.8537 29.2715 18.2637 28.5915 17.9737 26.5815L17.8037 25.3315C17.5837 23.6915 16.2137 23.1415 12.2637 23.1415C8.3037 23.1415 6.9337 23.6915 6.7137 25.3315L6.5337 26.5815C6.2637 28.5915 7.6537 29.2715 12.2637 29.2715Z" /></svg>