
<svg
    viewBox="0 0 31.6640625 35.30078125"
    xmlns="http://www.w3.org/2000/svg"
>
    <path
        fill="inherit"
        d="M15.8337 35.3015C22.7337 35.3015 25.6737 33.7815 25.6737 30.0615V13.7715L29.7137 17.8015C30.1737 18.2515 30.8837 18.2415 31.3337 17.8015C31.7737 17.3515 31.7737 16.6215 31.3337 16.1715L25.6737 10.5515V6.3315C25.6737 2.3415 22.0537 0.0015 15.8337 0.0015C9.6237 0.0015 5.9837 2.3415 5.9837 6.3315V10.5415L0.3237 16.1715C-0.1063 16.6215 -0.1063 17.3515 0.3237 17.8015C0.7837 18.2415 1.5037 18.2515 1.9537 17.8015L5.9837 13.7715V30.0615C5.9837 33.7815 8.9437 35.3015 15.8337 35.3015ZM15.8337 33.0315C10.5537 33.0315 8.2737 32.1415 8.2737 29.9515V6.3315C8.2737 3.7715 11.0637 2.2815 15.8337 2.2815C20.6137 2.2815 23.3937 3.7715 23.3937 6.3315V29.9515C23.3937 32.1415 21.1237 33.0315 15.8337 33.0315ZM15.8337 14.6815C17.0637 14.6815 19.1237 14.7815 19.8237 14.7815C20.8537 14.7815 21.3037 14.3815 21.3837 13.3115L21.6137 10.7415C21.7937 8.7815 20.4137 7.9815 15.8337 7.9815C11.2637 7.9815 9.8837 8.7815 10.0637 10.7415L10.2837 13.3115C10.3737 14.3815 10.8137 14.7815 11.8537 14.7815C12.5337 14.7815 14.5337 14.6815 15.8337 14.6815ZM15.8337 29.2715C20.4437 29.2715 21.8437 28.5915 21.5637 26.5815L21.3837 25.3315C21.1637 23.6915 19.7937 23.1415 15.8337 23.1415C11.8837 23.1415 10.5137 23.6915 10.2937 25.3315L10.1137 26.5815C9.8337 28.5915 11.2337 29.2715 15.8337 29.2715Z"
        fillRule="evenodd"
        clipRule="evenodd"
    />
</svg>
        