
<svg
    viewBox="0 0 26.71881274167162 35.4375"
    xmlns="http://www.w3.org/2000/svg"
>
    <path
        fill="inherit"
        d="M9.3837 26.9198C14.6437 26.9198 16.9937 25.7298 16.9937 22.7098V10.7698H17.5837C18.2637 10.7698 18.7837 10.2498 18.7837 9.6098V9.0898C18.7837 8.4398 18.2637 7.9298 17.5837 7.9298H16.9937V4.9598C16.9937 1.8498 14.1237 -0.0002 9.3837 -0.0002C4.6637 -0.0002 1.7937 1.8498 1.7937 4.9598V7.9298H1.2037C0.5237 7.9298 0.0037 8.4398 0.0037 9.0898V9.6098C0.0037 10.2498 0.5237 10.7698 1.2037 10.7698H1.7937V22.7098C1.7937 25.7298 4.1337 26.9198 9.3837 26.9198ZM9.3837 24.7898C5.4737 24.7898 3.9537 24.1898 3.9537 22.6398V4.9598C3.9537 3.1698 5.8337 2.1598 9.3837 2.1598C12.9437 2.1598 14.8437 3.1698 14.8437 4.9598V22.6398C14.8437 24.1898 13.3137 24.7898 9.3837 24.7898ZM9.3937 11.3298C10.3237 11.3298 11.8837 11.4198 12.3837 11.4198C13.2037 11.4198 13.5937 11.0698 13.6537 10.2098L13.8237 8.2998C13.9637 6.7298 12.9237 6.1298 9.3937 6.1298C5.8637 6.1298 4.8237 6.7298 4.9637 8.2998L5.1237 10.2098C5.1937 11.0698 5.5737 11.4198 6.3937 11.4198C6.9137 11.4198 8.4037 11.3298 9.3937 11.3298ZM9.3937 22.3098C12.9237 22.3098 14.0437 21.7898 13.7837 20.1698L13.6437 19.2398C13.4437 17.9398 12.4237 17.5298 9.3937 17.5298C6.3537 17.5298 5.3437 17.9398 5.1437 19.2398L5.0037 20.1698C4.7437 21.7898 5.8637 22.3098 9.3937 22.3098ZM19.9037 28.5998C21.0937 27.4098 21.8037 25.9398 21.9837 24.2698C22.0837 23.5298 21.6037 23.0598 21.0037 23.0598C20.3337 23.0598 20.0337 23.3798 19.9037 24.1398C19.7537 25.3098 19.2737 26.3198 18.4537 27.1498C17.5937 27.9998 16.6137 28.4898 15.5537 28.5998C14.7137 28.7198 14.3237 29.1598 14.3237 29.7098C14.3237 30.2998 14.7637 30.7098 15.4037 30.7098C16.5837 30.7098 18.4937 30.0098 19.9037 28.5998ZM23.2937 32.0098C25.4137 29.9098 26.5337 27.2298 26.7137 24.3398C26.7737 23.5798 26.2537 23.1998 25.7137 23.1998C25.0337 23.1998 24.6737 23.5398 24.6137 24.4198C24.4737 26.6698 23.5437 28.8498 21.8437 30.5598C20.1437 32.2498 17.9537 33.1798 15.7137 33.3198C14.9337 33.3698 14.4637 33.7598 14.4637 34.3398C14.4637 34.9898 14.9437 35.4398 15.6437 35.4398C18.5437 35.4398 21.2037 34.1098 23.2937 32.0098Z"
        fillRule="evenodd"
        clipRule="evenodd"
    />
</svg>
        