
<svg
    viewBox="0 0 18.78515625 37.43359375"
    xmlns="http://www.w3.org/2000/svg"
>
    <path
        fill="inherit"
        d="M9.3937 2.0479C11.8137 2.0479 14.0037 2.9379 15.6837 4.4479C16.2737 4.9479 16.8837 4.9879 17.2937 4.5979C17.7437 4.1379 17.7237 3.4879 17.2437 2.9779C15.2037 0.9479 12.3737 -0.0021 9.3937 -0.0021C6.4237 -0.0021 3.5937 0.9479 1.5537 2.9779C1.0637 3.4879 1.0437 4.1379 1.5037 4.5979C1.9037 4.9879 2.5137 4.9479 3.1037 4.4479C4.7837 2.9379 6.9837 2.0479 9.3937 2.0479ZM9.3937 6.8479C10.5937 6.8479 11.6437 7.2179 12.4537 7.8879C13.1537 8.3779 13.7237 8.3579 14.1137 7.9579C14.5337 7.5479 14.5037 6.9479 14.0637 6.4979C13.2337 5.6579 11.3937 4.7979 9.3937 4.7979C7.4137 4.7979 5.5637 5.6579 4.7137 6.4979C4.2837 6.9479 4.2537 7.5479 4.6737 7.9579C5.0537 8.3579 5.6337 8.3779 6.3337 7.8879C7.1537 7.2179 8.2037 6.8479 9.3937 6.8479ZM9.3937 37.4379C14.6437 37.4379 17.0037 36.2479 17.0037 33.2179V21.2879H17.5837C18.2637 21.2879 18.7837 20.7679 18.7837 20.1279V19.6079C18.7837 18.9479 18.2637 18.4479 17.5837 18.4479H17.0037V15.4779C17.0037 12.3579 14.1237 10.5179 9.3937 10.5179C4.6637 10.5179 1.7937 12.3579 1.7937 15.4779V18.4479H1.2037C0.5337 18.4479 0.0037 18.9479 0.0037 19.6079V20.1279C0.0037 20.7679 0.5337 21.2879 1.2037 21.2879H1.7937V33.2179C1.7937 36.2479 4.1437 37.4379 9.3937 37.4379ZM9.3937 35.2979C5.4837 35.2979 3.9537 34.6979 3.9537 33.1579V15.4779C3.9537 13.6879 5.8537 12.6779 9.3937 12.6779C12.9437 12.6779 14.8437 13.6879 14.8437 15.4779V33.1579C14.8437 34.6979 13.3137 35.2979 9.3937 35.2979ZM9.3937 21.8479C10.3937 21.8479 11.8837 21.9279 12.3837 21.9279C13.2237 21.9279 13.5937 21.5879 13.6737 20.7279L13.8337 18.8079C13.9737 17.2379 12.9237 16.6379 9.3937 16.6379C5.8637 16.6379 4.8237 17.2379 4.9637 18.8079L5.1237 20.7279C5.2137 21.5879 5.5737 21.9279 6.3937 21.9279C6.9137 21.9279 8.4637 21.8479 9.3937 21.8479ZM9.3937 32.8279C12.9237 32.8279 14.0437 32.3079 13.7937 30.6779L13.6437 29.7479C13.4437 28.4479 12.4437 28.0379 9.3937 28.0379C6.3537 28.0379 5.3437 28.4479 5.1437 29.7479L5.0037 30.6779C4.7537 32.3079 5.8637 32.8279 9.3937 32.8279Z"
        fillRule="evenodd"
        clipRule="evenodd"
    />
</svg>
        