<svg viewBox="0 0 27.59528768055759 39.31694479227596" xmlns="http://www.w3.org/2000/svg"><path d="M9.4037 26.9173C14.6537 26.9173 17.0037 25.7273 17.0037 22.7073V10.7773H17.5837C18.2637 10.7773 18.7837 10.2573 18.7837 9.6073V9.0873C18.7837 8.4373 18.2637 7.9273 17.5837 7.9273H17.0037V4.9673C17.0037 1.8473 14.1237 -0.0027 9.4037 -0.0027C4.6637 -0.0027 1.7937 1.8473 1.7937 4.9673V7.9273H1.2037C0.5337 7.9273 0.0037 8.4373 0.0037 9.0873V9.6073C0.0037 10.2573 0.5337 10.7773 1.2037 10.7773H1.7937V22.7073C1.7937 25.7273 4.1537 26.9173 9.4037 26.9173ZM9.4037 11.2473C8.4337 11.2473 6.8537 11.3373 6.3037 11.3373C5.4537 11.3373 5.0837 10.9773 4.9937 10.0873L4.8237 8.1173C4.6937 6.4973 5.7537 5.8773 9.4037 5.8773C13.0337 5.8773 14.1137 6.4973 13.9737 8.1173L13.7837 10.0873C13.7137 10.9773 13.3337 11.3373 12.4837 11.3373C11.9537 11.3373 10.4137 11.2473 9.4037 11.2473ZM9.4037 22.5573C5.7537 22.5573 4.6037 22.0273 4.8637 20.3473L5.0037 19.3873C5.2237 18.0473 6.2637 17.6273 9.4037 17.6273C12.5337 17.6273 13.5637 18.0473 13.7637 19.3873L13.9337 20.3473C14.1737 22.0273 13.0337 22.5573 9.4037 22.5573ZM18.0337 31.6673L19.9637 29.7473L19.7537 27.1973C19.7237 26.9873 19.6637 26.7673 19.5337 26.6473C19.2637 26.3773 18.8837 26.3873 18.6037 26.6773L14.9737 30.3073C14.6737 30.5973 14.6537 30.9773 14.9337 31.2573C15.0537 31.3773 15.2537 31.4473 15.4937 31.4573ZM21.3937 38.7873C22.0937 39.4873 22.9237 39.4973 23.6237 38.7973L27.0837 35.3373C27.7937 34.6273 27.7437 33.7873 27.0737 33.1173L23.3137 29.3573C22.6037 28.6473 21.8237 28.6673 21.1237 29.3673L17.6537 32.8373C16.9537 33.5373 16.9637 34.3573 17.6637 35.0573Z" /></svg>