<svg viewBox="0 0 31.759765625 35.30078125" xmlns="http://www.w3.org/2000/svg"><path d="M12.2537 35.3015C19.1537 35.3015 22.1037 33.7815 22.1037 30.0615V13.7815H23.2137C23.9537 13.7815 24.5137 13.2215 24.5137 12.5115V11.8415C24.5137 11.1315 23.9537 10.5815 23.2137 10.5815H22.1037V6.3315C22.1037 2.3415 18.4737 0.0015 12.2537 0.0015C6.0437 0.0015 2.4237 2.3415 2.4237 6.3315V10.5815H1.3037C0.5737 10.5815 0.0037 11.1315 0.0037 11.8415V12.5115C0.0037 13.2215 0.5737 13.7815 1.3037 13.7815H2.4237V30.0615C2.4237 33.7815 5.3637 35.3015 12.2537 35.3015ZM31.7637 10.7415V4.6615C31.7637 3.9415 31.1737 3.5915 30.5337 3.9915L25.6737 6.9715C25.0637 7.3415 25.0437 8.0615 25.6737 8.4515L30.5337 11.4015C31.1737 11.8015 31.7637 11.4815 31.7637 10.7415ZM12.2637 14.5615C10.9237 14.5615 8.8737 14.6515 8.1437 14.6515C7.0937 14.6515 6.6337 14.2415 6.5337 13.1515L6.3037 10.5015C6.1137 8.4615 7.5637 7.6415 12.2637 7.6415C16.9637 7.6415 18.4037 8.4615 18.2237 10.5015L17.9937 13.1515C17.8837 14.2415 17.4337 14.6515 16.3637 14.6515C15.6537 14.6515 13.5237 14.5615 12.2637 14.5615ZM12.2637 29.6115C7.5037 29.6115 6.0737 28.9015 6.3537 26.8215L6.5337 25.5415C6.7637 23.8615 8.1737 23.2815 12.2637 23.2815C16.3337 23.2815 17.7437 23.8615 17.9737 25.5415L18.1537 26.8215C18.4537 28.9015 17.0037 29.6115 12.2637 29.6115Z" /></svg>