
<svg
    viewBox="0 0 37.32421875 30.201171875"
    xmlns="http://www.w3.org/2000/svg"
>
    <path
        fill="inherit"
        d="M18.6637 9.5136C19.3137 9.5136 19.7037 9.1436 19.7137 8.4336L19.9037 1.2336C19.9237 0.5336 19.3737 0.0036 18.6437 0.0036C17.9137 0.0036 17.3937 0.5236 17.4037 1.2136L17.5837 8.4336C17.5937 9.1336 17.9737 9.5136 18.6637 9.5136ZM0.0037 25.5436V27.5236H3.5437C4.1937 29.1036 5.7437 30.2036 7.6037 30.2036C9.4437 30.2036 10.9937 29.1036 11.6437 27.5236H12.7437C15.4637 27.5236 16.6637 26.2536 16.6637 23.3636V19.9636C16.6637 17.6636 15.5537 16.2136 13.2237 15.4636L11.2637 14.8336C8.7137 12.6336 5.3637 10.2236 0.9437 10.2236H0.0037V12.2236H0.9437C4.0637 12.2236 6.5737 13.4536 9.6937 16.1836C10.2837 16.6936 10.5837 16.8336 11.3237 17.0536L12.6237 17.4836C14.0437 17.9236 14.6837 18.6736 14.6837 19.9636V23.3636C14.6837 24.8736 14.0837 25.5436 12.7437 25.5436H11.9637C11.8437 23.2036 9.9637 21.4236 7.6037 21.4236C5.2237 21.4236 3.3537 23.2136 3.2137 25.5436ZM18.6637 13.9636C19.4537 13.9636 20.1437 13.3436 20.1437 12.5336C20.1437 11.7436 19.4737 11.1336 18.6637 11.1336C17.8537 11.1336 17.1837 11.7536 17.1837 12.5336C17.1837 13.3336 17.8737 13.9636 18.6637 13.9636ZM28.6937 30.2036C30.5437 30.2036 32.1037 29.1036 32.7537 27.5236H37.3237V25.5436H33.0837C32.9537 23.2036 31.0737 21.4236 28.6937 21.4236C26.3137 21.4236 24.4637 23.2036 24.3237 25.5436H23.5537C22.2137 25.5436 21.6037 24.8736 21.6037 23.3636V21.8736C21.6037 20.0436 22.9737 18.6736 25.3437 18.3736L30.2837 17.7736C31.0337 17.6936 31.5237 17.5136 32.0437 17.2036L36.6237 14.3136C36.8637 14.1636 37.0937 14.0236 37.3237 13.9036V11.6236C36.7537 11.9036 36.1637 12.2236 35.5637 12.6036L30.5737 15.7536L25.1037 16.4336C21.6837 16.8436 19.6237 18.9636 19.6237 21.8736V23.4436C19.6237 26.2636 20.8637 27.5236 23.5537 27.5236H24.6537C25.3037 29.1036 26.8537 30.2036 28.6937 30.2036ZM28.6937 28.3236C27.3037 28.3236 26.1837 27.2236 26.1837 25.8136C26.1837 24.3936 27.3037 23.2836 28.6937 23.2836C30.1237 23.2836 31.2437 24.3936 31.2437 25.8136C31.2437 27.2236 30.1237 28.3236 28.6937 28.3236ZM7.6037 28.3236C6.1837 28.3236 5.0537 27.2236 5.0537 25.8136C5.0537 24.3936 6.1837 23.2836 7.6037 23.2836C8.9937 23.2836 10.1137 24.3936 10.1137 25.8136C10.1137 27.2236 8.9937 28.3236 7.6037 28.3236Z"
        fillRule="evenodd"
        clipRule="evenodd"
    />
</svg>
        