<svg viewBox="0 0 37.32421875 30.931425229162485" xmlns="http://www.w3.org/2000/svg"><path d="M20.1637 0.8138L19.5637 3.3138L16.4637 0.1238C16.2037 -0.1462 15.8637 0.0438 15.9837 0.4338L17.0937 3.6938L15.6437 3.0538C15.3037 2.8938 15.0537 3.1538 15.3037 3.4738L16.1037 4.5138L12.3837 3.9938C11.9537 3.9338 11.8437 4.3638 12.1837 4.5838L15.6837 6.7038L13.5937 7.4738C13.2237 7.6038 13.2737 8.0338 13.6737 8.0538L16.0137 8.2338L12.8337 10.3838C12.5237 10.5838 12.6437 11.0638 13.0837 10.9538L17.1137 10.0438L17.1737 13.4538C17.1737 13.8138 17.5137 13.8538 17.6637 13.6138L20.2637 9.3338L24.6237 13.2538C24.9537 13.5438 25.3437 13.2438 25.1337 12.8438L22.5537 8.0138L25.1937 7.2238C25.4137 7.1538 25.4137 6.8538 25.1937 6.7738L22.8637 5.8138L24.5437 1.0738C24.6337 0.7738 24.3337 0.4938 24.0737 0.7538L21.3737 3.3238L20.7037 0.8138C20.6137 0.4538 20.2437 0.4538 20.1637 0.8138ZM0.0037 26.2738V28.2538H3.5437C4.1937 29.8338 5.7437 30.9338 7.6037 30.9338C9.4437 30.9338 10.9937 29.8338 11.6437 28.2538H12.7437C15.4637 28.2538 16.6637 26.9838 16.6637 24.0938V20.6938C16.6637 18.3938 15.5537 16.9438 13.2237 16.1938L11.2637 15.5638C8.7137 13.3638 5.3637 10.9538 0.9437 10.9538H0.0037V12.9538H0.9437C4.0637 12.9538 6.5737 14.1838 9.6937 16.9138C10.2837 17.4238 10.5837 17.5638 11.3237 17.7838L12.6237 18.2138C14.0437 18.6538 14.6837 19.4038 14.6837 20.6938V24.0938C14.6837 25.6038 14.0837 26.2738 12.7437 26.2738H11.9637C11.8437 23.9338 9.9637 22.1538 7.6037 22.1538C5.2237 22.1538 3.3537 23.9438 3.2137 26.2738ZM28.6937 30.9338C30.5437 30.9338 32.1037 29.8338 32.7537 28.2538H37.3237V26.2738H33.0837C32.9537 23.9338 31.0737 22.1538 28.6937 22.1538C26.3137 22.1538 24.4637 23.9338 24.3237 26.2738H23.5537C22.2137 26.2738 21.6037 25.6038 21.6037 24.0938V22.6038C21.6037 20.7738 22.9737 19.4038 25.3437 19.1038L30.2837 18.5038C31.0337 18.4238 31.5237 18.2438 32.0437 17.9338L36.6237 15.0438C36.8637 14.8938 37.0937 14.7538 37.3237 14.6338V12.3538C36.7537 12.6338 36.1637 12.9538 35.5637 13.3338L30.5737 16.4838L25.1037 17.1638C21.6837 17.5738 19.6237 19.6938 19.6237 22.6038V24.1738C19.6237 26.9938 20.8637 28.2538 23.5537 28.2538H24.6537C25.3037 29.8338 26.8537 30.9338 28.6937 30.9338ZM28.6937 29.0538C27.3037 29.0538 26.1837 27.9538 26.1837 26.5438C26.1837 25.1238 27.3037 24.0138 28.6937 24.0138C30.1237 24.0138 31.2437 25.1238 31.2437 26.5438C31.2437 27.9538 30.1237 29.0538 28.6937 29.0538ZM7.6037 29.0538C6.1837 29.0538 5.0537 27.9538 5.0537 26.5438C5.0537 25.1238 6.1837 24.0138 7.6037 24.0138C8.9937 24.0138 10.1137 25.1238 10.1137 26.5438C10.1137 27.9538 8.9937 29.0538 7.6037 29.0538Z" /></svg>