
<svg
    viewBox={0 0 27.890625 27.890625}
    xmlns="http://www.w3.org/2000/svg"
>
    <path
        fill="inherit"
        d="M13.9427 27.8927C21.6427 27.8927 27.8927 21.6427 27.8927 13.9427C27.8927 6.2627 21.6427 0.0027 13.9427 0.0027C6.2627 0.0027 0.0027 6.2627 0.0027 13.9427C0.0027 21.6427 6.2627 27.8927 13.9427 27.8927ZM6.2227 18.6327V14.8727C6.2227 13.7927 6.4427 13.1627 7.0527 12.3827L7.6127 11.6727C7.8627 10.4827 8.2727 9.2527 8.5027 8.7727C8.8627 8.0427 9.5327 7.6027 10.3927 7.4927C10.8427 7.4327 12.2627 7.3927 13.9627 7.3927C15.6427 7.3927 17.0727 7.4327 17.5127 7.4927C18.3927 7.6127 19.0627 8.0427 19.4027 8.7727C19.6327 9.2527 20.0427 10.4827 20.3027 11.6727L20.8527 12.3827C21.4627 13.1627 21.6827 13.7927 21.6827 14.8727V18.6327C21.6827 19.1127 21.3027 19.4927 20.8227 19.4927H20.0427C19.5527 19.4927 19.1727 19.1127 19.1727 18.6327V17.5527C17.7227 17.6327 15.6427 17.6927 13.9627 17.6927C12.2727 17.6927 10.1827 17.6327 8.7327 17.5527V18.6327C8.7327 19.1127 8.3527 19.4927 7.8727 19.4927H7.0927C6.6027 19.4927 6.2227 19.1127 6.2227 18.6327ZM9.2827 11.0627C9.2327 11.2627 9.3127 11.3627 9.5527 11.3427C10.5727 11.2627 11.7627 11.2127 13.9627 11.2127C16.1427 11.2127 17.3527 11.2627 18.3427 11.3427C18.5927 11.3627 18.6927 11.2627 18.6227 11.0627C18.4827 10.3727 18.1927 9.5027 18.0027 9.1727C17.8127 8.8727 17.6527 8.7527 17.3127 8.7127C16.8427 8.6227 15.8027 8.6127 13.9627 8.6127C12.1027 8.6127 11.0627 8.6427 10.6127 8.7127C10.2627 8.7527 10.0927 8.8727 9.9127 9.1727C9.7227 9.5127 9.4327 10.3727 9.2827 11.0627ZM8.1927 14.8927C8.1927 15.4727 8.6527 15.9427 9.2427 15.9427C9.8327 15.9427 10.2927 15.4727 10.2927 14.8927C10.2927 14.3027 9.8327 13.8527 9.2427 13.8527C8.6527 13.8527 8.1927 14.3027 8.1927 14.8927ZM17.6227 14.8927C17.6227 15.4727 18.0727 15.9427 18.6627 15.9427C19.2627 15.9427 19.7327 15.4727 19.7327 14.8927C19.7327 14.3027 19.2627 13.8527 18.6627 13.8527C18.0727 13.8527 17.6227 14.3027 17.6227 14.8927ZM11.4727 14.9327C11.4727 15.3827 11.7827 15.6927 12.2327 15.6927H15.6827C16.1227 15.6927 16.4327 15.3827 16.4327 14.9327C16.4327 14.4927 16.1227 14.1727 15.6827 14.1727H12.2327C11.7827 14.1727 11.4727 14.4927 11.4727 14.9327Z"
        fillRule="evenodd"
        clipRule="evenodd"
    />
</svg>
        