
<svg
    viewBox={0 0 26.646484375 33.08835137583449}
    xmlns="http://www.w3.org/2000/svg"
>
    <path
        fill="inherit"
        d="M13.2937 1.6595C11.8637 1.6595 10.5837 1.2195 9.5337 0.4295C8.9237 -0.0005 8.3237 -0.1905 7.8337 0.2495C7.3137 0.6995 7.3037 1.5195 7.9337 2.0095C9.4037 3.1995 11.2837 3.8895 13.2937 3.8895C15.3037 3.8895 17.1737 3.1995 18.6437 2.0095C19.2637 1.5195 19.2537 0.6995 18.7437 0.2495C18.2537 -0.1905 17.6337 -0.0005 17.0537 0.4295C16.0237 1.2495 14.7137 1.6595 13.2937 1.6595ZM13.2637 7.1295C10.3237 7.1295 7.6437 6.1095 5.6037 4.2695C5.0437 3.7795 4.4137 3.6395 3.9137 4.0795C3.4037 4.5095 3.4037 5.2795 3.9737 5.8095C6.4437 8.0795 9.7237 9.3495 13.2637 9.3495C16.8037 9.3495 20.0837 8.0795 22.5437 5.8095C23.1337 5.2795 23.1337 4.5095 22.6137 4.0795C22.1237 3.6395 21.4737 3.7795 20.9137 4.2695C18.8837 6.1095 16.2137 7.1295 13.2637 7.1295ZM2.2237 33.0895H3.5537C4.3737 33.0895 5.0137 32.4595 5.0137 31.6495V29.9195C7.4237 30.0495 10.6337 30.1495 13.3137 30.1495C15.9837 30.1495 19.1937 30.0495 21.6037 29.9195V31.6495C21.6037 32.4595 22.2437 33.0895 23.0637 33.0895H24.3937C25.2137 33.0895 25.8237 32.4595 25.8237 31.6495V29.0695C26.3637 28.6295 26.6437 27.9795 26.6437 27.1095V25.0595C26.6437 23.1795 26.2537 22.0695 25.2137 20.7295L24.3037 19.5795C23.8937 17.5995 23.1737 15.5295 22.7937 14.7295C22.1737 13.4095 20.9637 12.6495 19.4437 12.4395C18.7037 12.3495 16.2837 12.2795 13.3137 12.2795C10.3537 12.2795 7.9437 12.3595 7.2037 12.4395C5.6837 12.6395 4.4737 13.4095 3.8537 14.7295C3.4637 15.5295 2.7437 17.5995 2.3237 19.5795L1.4337 20.7295C0.3837 22.0695 0.0037 23.1795 0.0037 25.0595V27.1095C0.0037 27.9595 0.2737 28.5995 0.7937 29.0595V31.6495C0.7937 32.4595 1.4237 33.0895 2.2237 33.0895ZM13.3137 28.2895C9.4737 28.2895 4.6937 28.1295 2.9437 27.9095C2.1037 27.7995 1.8637 27.4595 1.8637 26.6795V25.0595C1.8637 23.5995 2.0637 22.9395 2.8937 21.8795L4.0437 20.3595C4.3337 18.7895 5.0737 16.5595 5.5237 15.5595C5.8637 14.8495 6.4637 14.4295 7.4137 14.3295C8.1237 14.2395 10.3237 14.1295 13.3137 14.1295C16.3237 14.1295 18.5837 14.2395 19.1937 14.3295C20.1837 14.4395 20.7837 14.8595 21.1237 15.5595C21.5837 16.5595 22.3037 18.7895 22.5837 20.3595L23.7437 21.8795C24.5837 22.9395 24.7837 23.5995 24.7837 25.0595V26.6795C24.7837 27.4595 24.5437 27.8095 23.7037 27.9095C21.9537 28.1295 17.1737 28.2895 13.3137 28.2895ZM5.3637 19.3995C5.2737 19.7695 5.4237 19.9395 5.8537 19.9095C7.6037 19.7695 9.6937 19.6795 13.3137 19.6795C16.9437 19.6795 19.0437 19.7695 20.7937 19.9095C21.2037 19.9395 21.3737 19.7695 21.2837 19.3995C21.0137 18.2095 20.5237 16.7195 20.1637 16.1095C19.8837 15.6195 19.5637 15.3995 18.9937 15.3195C18.1837 15.2095 16.3937 15.1395 13.3137 15.1395C10.2537 15.1395 8.4537 15.2095 7.6437 15.3195C7.0837 15.3995 6.7537 15.6195 6.4837 16.1095C6.1437 16.7195 5.6337 18.2095 5.3637 19.3995ZM5.2737 26.8695C6.2937 26.8695 7.0437 26.0995 7.0437 25.0895C7.0437 24.0895 6.2937 23.3395 5.2737 23.3395C4.2837 23.3395 3.5137 24.0895 3.5137 25.0895C3.5137 26.0995 4.2837 26.8695 5.2737 26.8695ZM21.3537 26.8695C22.3637 26.8695 23.1337 26.0995 23.1337 25.0895C23.1337 24.0895 22.3637 23.3395 21.3537 23.3395C20.3537 23.3395 19.6037 24.0895 19.6037 25.0895C19.6037 26.0995 20.3537 26.8695 21.3537 26.8695ZM10.2937 26.4295H16.3337C17.1037 26.4295 17.6237 25.9095 17.6237 25.1595C17.6237 24.4095 17.1037 23.8995 16.3337 23.8995H10.2937C9.5437 23.8995 9.0237 24.4095 9.0237 25.1595C9.0237 25.9095 9.5437 26.4295 10.2937 26.4295Z"
        fillRule="evenodd"
        clipRule="evenodd"
    />
</svg>
        