
<svg
    viewBox={0 0 51.529296875 32.771484375}
    xmlns="http://www.w3.org/2000/svg"
>
    <path
        fill="inherit"
        d="M25.7727 2.2298C28.7127 2.2298 31.3727 3.2498 33.4327 5.0898C33.9927 5.5798 34.6127 5.7098 35.1227 5.2798C35.6327 4.8398 35.6327 4.0698 35.0527 3.5398C32.5827 1.2698 29.3127 -0.0002 25.7727 -0.0002C22.2327 -0.0002 18.9527 1.2698 16.4927 3.5398C15.9027 4.0698 15.9027 4.8398 16.4227 5.2798C16.9127 5.7098 17.5427 5.5798 18.1127 5.0898C20.1527 3.2498 22.8227 2.2298 25.7727 2.2298ZM25.7827 7.6998C27.2027 7.6998 28.5327 8.1098 29.5427 8.9298C30.1427 9.3698 30.7527 9.5398 31.2427 9.1098C31.7627 8.6498 31.7727 7.8298 31.1427 7.3598C29.6727 6.1698 27.7927 5.4698 25.7827 5.4698C23.7727 5.4698 21.9027 6.1698 20.4227 7.3598C19.8127 7.8298 19.8227 8.6498 20.3327 9.1098C20.8227 9.5398 21.4327 9.3498 22.0227 8.9298C23.0827 8.1298 24.3627 7.6998 25.7827 7.6998ZM25.8127 29.6298C28.6027 29.6298 32.1327 29.5298 34.6327 29.3798V31.3098C34.6327 32.1398 35.2727 32.7698 36.1027 32.7698H37.6527C38.5027 32.7698 39.1427 32.1398 39.1427 31.3098V24.7898C39.1427 22.8998 38.7627 21.8498 37.7227 20.5098L36.7727 19.2898C36.3627 17.2798 35.6327 15.1598 35.2427 14.3398C34.6427 13.0698 33.4827 12.2998 31.9927 12.1298C31.2527 12.0298 28.7127 11.9798 25.8127 11.9798C22.9127 11.9798 20.3727 12.0298 19.6327 12.1298C18.1427 12.2998 16.9927 13.0698 16.3827 14.3398C15.9927 15.1598 15.2627 17.2798 14.8427 19.2898L13.9027 20.5098C12.8627 21.8498 12.4827 22.8998 12.4827 24.7898V31.3098C12.4827 32.1398 13.1427 32.7698 13.9727 32.7698H15.5127C16.3627 32.7698 16.9927 32.1398 16.9927 31.3098V29.3798C19.4927 29.5298 23.0227 29.6298 25.8127 29.6298ZM46.2527 31.7298C46.7027 32.2498 47.4527 32.2398 47.9927 31.6598C50.2627 29.1998 51.5327 25.9198 51.5327 22.3798C51.5327 18.8398 50.2627 15.5698 47.9927 13.1098C47.4527 12.5198 46.7027 12.5198 46.2527 13.0298C45.8127 13.5398 45.9527 14.1598 46.4427 14.7198C48.2927 16.7598 49.3027 19.4398 49.3027 22.3798C49.3027 25.3298 48.2927 27.9998 46.4427 30.0398C45.9527 30.5998 45.8127 31.2398 46.2527 31.7298ZM5.2727 31.7298C5.7127 31.2398 5.5827 30.5998 5.0827 30.0398C3.2527 27.9998 2.2327 25.3298 2.2327 22.3798C2.2327 19.4398 3.2527 16.7598 5.0827 14.7198C5.5827 14.1598 5.7127 13.5398 5.2727 13.0298C4.8427 12.5198 4.0727 12.5198 3.5527 13.1098C1.2827 15.5698 0.0027 18.8398 0.0027 22.3798C0.0027 25.9198 1.2827 29.1998 3.5527 31.6598C4.0727 32.2398 4.8427 32.2498 5.2727 31.7298ZM17.2027 18.3598C17.4627 17.1298 18.0027 15.5498 18.3727 14.8898C18.6727 14.3598 19.0027 14.1398 19.6027 14.0498C20.4527 13.9498 22.3527 13.8598 25.8127 13.8598C29.2727 13.8598 31.1727 13.9198 32.0327 14.0498C32.6227 14.1398 32.9527 14.3598 33.2527 14.8898C33.6327 15.5298 34.1427 17.1298 34.4227 18.3598C34.5327 18.7698 34.3527 18.9398 33.9327 18.9098C32.0727 18.7898 29.8627 18.6598 25.8127 18.6598C21.7627 18.6598 19.5627 18.7898 17.7027 18.9098C17.2627 18.9398 17.1027 18.7698 17.2027 18.3598ZM9.1027 27.8398C9.5427 27.3398 9.3627 26.7398 8.9327 26.1398C8.1027 25.1298 7.7127 23.7998 7.7127 22.3798C7.7127 20.9598 8.1027 19.6498 8.9327 18.6198C9.3627 18.0298 9.5427 17.4198 9.1027 16.9298C8.6527 16.4198 7.8327 16.4098 7.3527 17.0198C6.1627 18.4998 5.4827 20.3698 5.4827 22.3798C5.4827 24.3898 6.1627 26.2598 7.3527 27.7398C7.8327 28.3698 8.6527 28.3598 9.1027 27.8398ZM42.4227 27.8398C42.8727 28.3598 43.6927 28.3698 44.1827 27.7398C45.3727 26.2598 46.0627 24.3898 46.0627 22.3798C46.0627 20.3698 45.3727 18.4998 44.1827 17.0198C43.6927 16.4098 42.8727 16.4198 42.4227 16.9298C41.9827 17.4198 42.1827 18.0298 42.6027 18.6198C43.4227 19.6498 43.8327 20.9598 43.8327 22.3798C43.8327 23.7998 43.4227 25.1298 42.6027 26.1398C42.1827 26.7398 41.9827 27.3398 42.4227 27.8398ZM17.7627 26.6198C16.7327 26.6198 15.9527 25.8398 15.9527 24.8098C15.9527 23.7898 16.7327 23.0198 17.7627 23.0198C18.7727 23.0198 19.5327 23.7898 19.5327 24.8098C19.5327 25.8398 18.7727 26.6198 17.7627 26.6198ZM33.8827 26.6198C32.8527 26.6198 32.0927 25.8398 32.0927 24.8098C32.0927 23.7898 32.8527 23.0198 33.8827 23.0198C34.9027 23.0198 35.6827 23.7898 35.6827 24.8098C35.6827 25.8398 34.9027 26.6198 33.8827 26.6198ZM22.8627 26.1698C22.0927 26.1698 21.5627 25.6498 21.5627 24.8798C21.5627 24.0998 22.0927 23.5798 22.8627 23.5798H28.7627C29.5327 23.5798 30.0827 24.0998 30.0827 24.8798C30.0827 25.6498 29.5327 26.1698 28.7627 26.1698Z"
        fillRule="evenodd"
        clipRule="evenodd"
    />
</svg>
        