<svg viewBox="0 0 31.25390625 22.134765625" xmlns="http://www.w3.org/2000/svg"><path d="M0 16.9853V19.1853H9.79C10.53 20.9353 12.24 22.1353 14.29 22.1353C16.34 22.1353 18.05 20.9353 18.77 19.1853H20C21.45 19.1853 22.53 18.8353 23.24 18.1253H27.33V19.1453C27.33 19.6353 27.73 20.0253 28.23 20.0253C28.72 20.0253 29.11 19.6353 29.11 19.1453V18.1253H30.43C30.88 18.1253 31.25 17.7353 31.25 17.2853C31.25 16.8153 30.88 16.4353 30.43 16.4353H29.11V14.8653H29.38C29.5 14.8653 29.64 14.8053 29.78 14.7353C30.38 14.2353 30.79 13.5053 30.79 12.6753C30.79 11.2953 29.64 10.1353 28.23 10.1353C26.82 10.1353 25.66 11.2953 25.66 12.6753C25.66 13.5053 26.09 14.2353 26.69 14.7353C26.81 14.8053 26.95 14.8653 27.08 14.8653H27.33V16.4353H24.14C24.28 15.9053 24.34 15.2853 24.34 14.5853V10.8053C24.34 8.2553 23.12 6.6753 20.52 5.8253L18.35 5.0953C15.59 2.7453 11.79 -0.0047 6.66 -0.0047H4.58C2.76 -0.0047 1.29 0.0553 0 0.2153V2.4353C1.23 2.2553 2.69 2.2053 4.58 2.2053H6.66C10.24 2.2053 13.08 3.5253 16.61 6.6153C17.24 7.1753 17.6 7.3253 18.42 7.5853L19.85 8.0553C21.42 8.5553 22.13 9.3653 22.13 10.8053V14.5853C22.13 16.2253 21.48 16.9853 20 16.9853H19.14C18.99 14.3953 16.91 12.4153 14.29 12.4153C11.66 12.4153 9.58 14.3953 9.43 16.9853ZM14.29 20.0653C12.71 20.0653 11.48 18.8353 11.48 17.2853C11.48 15.7053 12.71 14.4753 14.29 14.4753C15.85 14.4753 17.08 15.7053 17.08 17.2853C17.08 18.8353 15.85 20.0653 14.29 20.0653Z" /></svg>