
<svg
    viewBox="0 0 30.065043271602118 30.1875"
    xmlns="http://www.w3.org/2000/svg"
>
    <path
        fill="inherit"
        d="M18.6725 14.0638H22.6025V15.3638C22.6025 16.0238 23.1025 16.5338 23.7725 16.5338H24.8125C25.4925 16.5338 26.0025 16.0238 26.0025 15.3638V9.4038C26.0025 7.9038 25.8125 6.9838 24.8725 5.9838L23.9825 5.0138L23.0525 2.3338C22.5425 0.8838 21.5425 0.2738 20.3125 0.1238C19.7125 0.0538 17.7625 0.0038 15.4625 0.0038C13.1525 0.0038 11.1925 0.0538 10.6125 0.1238C9.3825 0.2738 8.3625 0.8838 7.8625 2.3338L7.6325 3.0338L8.9725 4.3738C8.9725 4.3038 8.9825 4.2838 9.0125 4.2138L9.5025 2.7038C9.7025 2.0938 10.0225 1.9038 10.5525 1.8138C11.1725 1.7538 12.9025 1.6638 15.4625 1.6638C18.0025 1.6638 19.7225 1.7538 20.3425 1.8138C20.8725 1.9038 21.1925 2.0938 21.3925 2.7038L21.9725 4.3638C22.1025 4.7738 21.9525 5.0838 21.5225 5.0838H9.6825L12.8125 8.2038V8.1638C12.9225 7.9338 13.1225 7.7938 13.4225 7.7938H17.4625C17.8925 7.7938 18.1825 8.0838 18.1825 8.5438V9.4438C18.1825 9.9238 17.8925 10.2138 17.4625 10.2138H14.8025ZM28.2725 29.2838C28.6825 29.6938 29.3525 29.6938 29.7625 29.2838C30.1625 28.8638 30.1725 28.2038 29.7625 27.7938L2.6825 0.7138C2.2725 0.3038 1.6025 0.2838 1.1725 0.7138C0.7825 1.1038 0.7625 1.7938 1.1725 2.2038ZM22.8625 10.6538C22.3225 10.6538 21.9125 10.2438 21.9125 9.6938V8.2938C21.9125 7.7638 22.3225 7.3538 22.8625 7.3538C23.4025 7.3538 23.8125 7.7538 23.8125 8.2938V9.6938C23.8125 10.2438 23.4025 10.6538 22.8625 10.6538ZM6.0925 16.5338H7.1325C7.8025 16.5338 8.3225 16.0238 8.3225 15.3638V14.0638H10.4025L5.1425 8.8138C5.0025 9.1438 4.9025 9.4338 4.9025 9.9238V15.3638C4.9025 16.0238 5.4225 16.5338 6.0925 16.5338ZM11.9025 18.8238L10.8725 18.0438C10.4825 17.7738 10.0525 17.6338 9.5825 17.6338H7.3725C6.8225 17.6338 6.6125 18.2938 7.0525 18.6038L9.1425 20.1338C9.8025 20.6138 9.7025 21.2438 8.9525 21.5838L2.1425 24.5238C-0.4675 25.6438 -0.6975 27.3538 1.4725 28.9838L2.5125 29.7538C2.8925 30.0338 3.3325 30.1738 3.8025 30.1738H6.0125C6.5625 30.1738 6.7625 29.5138 6.3325 29.2038L4.2325 27.6538C3.5925 27.1938 3.6725 26.5538 4.4325 26.2238L11.2325 23.2738C13.8525 22.1438 14.0825 20.4538 11.9025 18.8238ZM26.2225 18.8538L25.1825 18.0738C24.8025 17.7838 24.3625 17.6638 23.8825 17.6638H22.5125L27.1225 22.2538C28.1125 21.2638 27.8025 20.0338 26.2225 18.8538ZM19.5525 23.2138L16.4625 24.5538C13.8525 25.6738 13.6125 27.3738 15.7925 28.9938L16.8325 29.7638C17.2125 30.0538 17.6525 30.1838 18.1125 30.1838H20.3325C20.8725 30.1838 21.0825 29.5338 20.6425 29.2138L18.5525 27.6838C17.9125 27.2038 17.9725 26.5738 18.7425 26.2338L21.4125 25.0838Z"
        fillRule="evenodd"
        clipRule="evenodd"
    />
</svg>
        