
<svg
    viewBox={0 0 48.712890625 27.97265625}
    xmlns="http://www.w3.org/2000/svg"
>
    <path
        fill="inherit"
        d="M4.3437 25.1599H5.2137C5.1237 24.7299 5.0737 24.3099 5.0737 23.8699C5.0737 20.6899 7.5737 18.1799 10.7737 18.1799C13.9737 18.1799 16.4737 20.6899 16.4737 23.8699C16.4737 24.3099 16.4237 24.7299 16.3237 25.1599H32.3637C32.2837 24.7299 32.2237 24.3099 32.2237 23.8699C32.2237 20.6899 34.7437 18.1799 37.9237 18.1799C41.1237 18.1799 43.6437 20.6899 43.6437 23.8699C43.6437 24.3099 43.5837 24.7299 43.4937 25.1599H44.3637C47.3637 25.1599 48.7137 23.7299 48.7137 20.5599V16.7799C48.7137 14.2299 47.4837 12.6499 44.8837 11.7999L42.7137 11.0699C39.9537 8.7199 36.1437 5.9699 31.0237 5.9699H28.9437C28.1637 5.9699 27.4437 5.9899 26.7537 6.0199L26.5937 11.4799C26.5637 12.2099 26.0837 12.6999 25.3937 12.6999C24.6937 12.6999 24.2037 12.2099 24.1737 11.4799L24.0237 6.2299C24.8437 6.1299 25.7437 6.0599 26.7537 6.0199L26.8937 1.4999C26.9237 0.5999 26.3137 -0.0001 25.3937 -0.0001C24.4637 -0.0001 23.8537 0.5999 23.8837 1.4999L24.0237 6.2299C21.5637 6.5799 19.8137 7.2899 17.6637 8.6399L12.1237 12.1099L6.0737 12.8499C2.2837 13.3199 0.0037 15.6699 0.0037 18.8899V20.6399C0.0037 23.7599 1.3837 25.1599 4.3437 25.1599ZM25.3937 18.9799C24.3737 18.9799 23.5337 18.1399 23.5337 17.1699C23.5337 16.1999 24.3537 15.3899 25.3937 15.3899C26.4137 15.3899 27.2437 16.1999 27.2437 17.1699C27.2437 18.1399 26.4037 18.9799 25.3937 18.9799ZM10.7737 27.9699C13.0837 27.9699 14.8937 26.1699 14.8937 23.8699C14.8937 21.5699 13.0837 19.7699 10.7737 19.7699C8.4737 19.7699 6.6737 21.5699 6.6737 23.8699C6.6737 26.1699 8.4737 27.9699 10.7737 27.9699ZM37.9237 27.9699C40.2337 27.9699 42.0437 26.1699 42.0437 23.8699C42.0437 21.5699 40.2337 19.7699 37.9237 19.7699C35.6337 19.7699 33.8237 21.5699 33.8237 23.8699C33.8237 26.1699 35.6337 27.9699 37.9237 27.9699Z"
        fillRule="evenodd"
        clipRule="evenodd"
    />
</svg>
        