
<svg
    viewBox={0 0 45.349609375 28.875}
    xmlns="http://www.w3.org/2000/svg"
>
    <path
        fill="inherit"
        d="M20.44 6.167H34.97C36.07 6.167 36.67 5.457 36.67 4.347V2.997C36.67 1.007 35.66 -0.003 33.35 -0.003H30.72C28.27 -0.003 26.3 0.647 23.15 1.937L20.07 3.237C19.21 3.597 18.92 4.197 18.92 4.787C18.92 5.677 19.39 6.167 20.44 6.167ZM4.05 26.247H4.85C4.77 25.857 4.72 25.457 4.72 25.047C4.72 22.077 7.05 19.757 10.04 19.757C13 19.757 15.34 22.077 15.34 25.047C15.34 25.457 15.3 25.857 15.2 26.247H30.13C30.05 25.857 30.01 25.457 30.01 25.047C30.01 22.077 32.33 19.757 35.31 19.757C38.29 19.757 40.62 22.077 40.62 25.047C40.62 25.457 40.58 25.857 40.48 26.247H41.3C44.09 26.247 45.35 24.927 45.35 21.967V18.447C45.35 16.077 44.2 14.597 41.79 13.807L39.77 13.137C37.2 10.947 33.66 8.397 28.88 8.397H26.95C21.75 8.397 19.56 8.917 16.45 10.867L11.29 14.097L5.65 14.797C2.12 15.227 0 17.407 0 20.427V22.037C0 24.947 1.29 26.247 4.05 26.247ZM10.04 28.877C12.18 28.877 13.86 27.197 13.86 25.047C13.86 22.917 12.18 21.237 10.04 21.237C7.89 21.237 6.21 22.917 6.21 25.047C6.21 27.197 7.89 28.877 10.04 28.877ZM35.31 28.877C37.46 28.877 39.14 27.197 39.14 25.047C39.14 22.917 37.46 21.237 35.31 21.237C33.17 21.237 31.49 22.917 31.49 25.047C31.49 27.197 33.17 28.877 35.31 28.877Z"
        fillRule="evenodd"
        clipRule="evenodd"
    />
</svg>
        