
<svg
    viewBox={0 0 28.65625 25.9765625}
    xmlns="http://www.w3.org/2000/svg"
>
    <path
        fill="inherit"
        d="M3.7309 25.9777H24.9209C27.2509 25.9777 28.6609 24.3677 28.6609 22.2677C28.6609 21.6277 28.4609 20.9577 28.1209 20.3577L17.5109 1.8777C16.8009 0.6277 15.5909 -0.0023 14.3309 -0.0023C13.0709 -0.0023 11.8409 0.6277 11.1409 1.8777L0.5309 20.3577C0.1609 20.9677 0.0009 21.6277 0.0009 22.2677C0.0009 24.3677 1.4109 25.9777 3.7309 25.9777ZM3.7509 23.8277C2.7909 23.8277 2.2109 23.0877 2.2109 22.2577C2.2109 21.9977 2.2709 21.6677 2.4209 21.3877L13.0109 2.9077C13.3009 2.4077 13.8209 2.1877 14.3309 2.1877C14.8309 2.1877 15.3409 2.4077 15.6309 2.9077L26.2209 21.3977C26.3709 21.6877 26.4409 21.9977 26.4409 22.2577C26.4409 23.0877 25.8409 23.8277 24.9009 23.8277ZM7.2009 21.2877C7.2009 21.7277 7.5509 22.0677 8.0109 22.0677H8.7109C9.1609 22.0677 9.5009 21.7277 9.5009 21.2877V20.4077H19.1109V21.2877C19.1109 21.7277 19.4509 22.0677 19.9109 22.0677H20.6209C21.0809 22.0677 21.4109 21.7277 21.4109 21.2877V17.2977C21.4109 16.2877 21.2909 15.6677 20.6609 14.9977L20.0609 14.3377L19.4109 12.5277C19.0709 11.5377 18.4009 11.1277 17.5809 11.0377C17.1809 10.9777 15.8609 10.9477 14.3109 10.9477C12.7509 10.9477 11.4409 10.9777 11.0509 11.0377C10.2109 11.1277 9.5409 11.5377 9.2009 12.5277L8.5709 14.3377L7.9709 14.9977C7.3309 15.6677 7.2009 16.2877 7.2009 17.2977ZM10.2109 14.3677C9.9209 14.3677 9.8309 14.1477 9.9209 13.8877L10.2909 12.7677C10.4209 12.3477 10.6509 12.2077 11.0209 12.1577C11.4309 12.1177 12.5909 12.0577 14.3109 12.0577C16.0409 12.0577 17.1709 12.1177 17.5909 12.1577C17.9609 12.2077 18.1809 12.3477 18.3309 12.7677L18.7009 13.8877C18.7809 14.1477 18.7009 14.3677 18.4209 14.3677ZM9.3909 18.1177C9.0109 18.1177 8.7209 17.8577 8.7209 17.4677V16.5477C8.7209 16.1877 9.0109 15.9177 9.3909 15.9177C9.7309 15.9177 10.0209 16.1777 10.0209 16.5477V17.4677C10.0209 17.8577 9.7309 18.1177 9.3909 18.1177ZM19.3009 18.1177C18.9509 18.1177 18.6709 17.8577 18.6709 17.4677V16.5477C18.6709 16.1877 18.9509 15.9177 19.3009 15.9177C19.6709 15.9177 19.9509 16.1777 19.9509 16.5477V17.4677C19.9509 17.8577 19.6709 18.1177 19.3009 18.1177ZM12.9309 17.8277C12.6509 17.8277 12.4509 17.6477 12.4509 17.3177V16.7077C12.4509 16.3877 12.6509 16.1977 12.9309 16.1977H15.6509C15.9509 16.1977 16.1509 16.3877 16.1509 16.7077V17.3177C16.1509 17.6477 15.9509 17.8277 15.6509 17.8277Z"
        fillRule="evenodd"
        clipRule="evenodd"
    />
</svg>
        