
<svg
    viewBox={0 0 19.798061817963557 32.2109375}
    xmlns="http://www.w3.org/2000/svg"
>
    <path
        fill="inherit"
        d="M3.2712 10.8566C3.2712 11.3866 3.6912 11.8166 4.2412 11.8166H4.9812C5.5112 11.8166 5.9212 11.3866 5.9212 10.8566V10.1066H15.6012V10.8566C15.6012 11.3866 16.0112 11.8166 16.5712 11.8166H17.2912C17.8412 11.8166 18.2812 11.3866 18.2812 10.8566V6.6966C18.2812 5.6366 18.0912 4.9466 17.4212 4.2266L16.8412 3.5666L16.1912 1.7266C15.7912 0.6266 15.0812 0.1766 14.1512 0.0966C13.7412 0.0366 12.3712 -0.0034 10.7612 -0.0034C9.1612 -0.0034 7.7912 0.0366 7.3812 0.0966C6.4512 0.1766 5.7312 0.6266 5.3312 1.7266L4.6912 3.5666L4.1012 4.2266C3.4212 4.9766 3.2712 5.6366 3.2712 6.6966ZM6.5612 3.5666C6.3412 3.5666 6.2612 3.4366 6.3312 3.2166L6.7012 2.0666C6.8112 1.7266 6.9912 1.5166 7.3812 1.4866C7.9612 1.4366 9.1312 1.4066 10.7612 1.4066C12.5412 1.4066 13.7012 1.4366 14.1612 1.4866C14.5112 1.5266 14.7112 1.7066 14.8312 2.0666L15.2012 3.2166C15.2712 3.4366 15.1812 3.5666 14.9712 3.5666ZM5.6712 7.5566C5.2612 7.5566 4.9912 7.3166 4.9912 6.9066V5.9166C4.9912 5.5266 5.2612 5.2766 5.6712 5.2766C6.0412 5.2766 6.3312 5.5266 6.3312 5.9166V6.9066C6.3312 7.3166 6.0412 7.5566 5.6712 7.5566ZM15.9312 7.5566C15.5412 7.5566 15.2712 7.3166 15.2712 6.9066V5.9166C15.2712 5.5266 15.5412 5.2766 15.9312 5.2766C16.3212 5.2766 16.6012 5.5266 16.6012 5.9166V6.9066C16.6012 7.3166 16.3212 7.5566 15.9312 7.5566ZM9.3412 7.2766C9.0112 7.2766 8.8512 7.0866 8.8512 6.7266V6.0966C8.8512 5.7466 9.0212 5.5766 9.3412 5.5766H12.1512C12.5012 5.5766 12.6712 5.7466 12.6712 6.0966V6.7266C12.6712 7.0866 12.5112 7.2766 12.1512 7.2766ZM8.5212 13.7766L7.7912 13.2766C7.5112 13.0666 7.1612 12.9766 6.8212 12.9766H5.2912C4.7612 12.9766 4.5512 13.5766 4.9812 13.8666L6.4312 14.8766C6.8112 15.1366 6.7812 15.3966 6.3212 15.5866L1.5712 17.5366C-0.3388 18.3366 -0.5188 19.5466 1.0912 20.6866L1.8012 21.1866C2.0912 21.3966 2.4212 21.5066 2.8012 21.5066H4.3312C4.8712 21.5066 5.0312 20.9066 4.6312 20.6166L3.1712 19.6166C2.8012 19.3766 2.8312 19.0566 3.2812 18.8766L8.0412 16.9366C9.9412 16.1566 10.1412 14.9166 8.5212 13.7766ZM18.5012 13.7966L17.7712 13.3066C17.4712 13.0866 17.1412 13.0066 16.7912 13.0066H15.2612C14.7412 13.0066 14.5512 13.5866 14.9612 13.8766L16.4112 14.8866C16.7812 15.1466 16.7612 15.4266 16.3112 15.5966L11.5712 17.5566C9.6412 18.3466 9.4512 19.5666 11.0612 20.6966L11.7912 21.2166C12.0912 21.4366 12.4112 21.5166 12.7812 21.5166H14.3112C14.8312 21.5166 15.0312 20.9366 14.6212 20.6266L13.1512 19.6366C12.7812 19.3866 12.8012 19.0866 13.2612 18.9066L18.0212 16.9666C19.9212 16.1766 20.1312 14.9166 18.5012 13.7966ZM4.1812 32.2066C6.4912 32.2066 7.6412 30.5166 7.6412 28.2766C7.6412 25.9766 6.4712 24.2966 4.1812 24.2966C1.9612 24.2966 0.7412 25.9366 0.7412 28.2766C0.7412 30.4766 1.8612 32.2066 4.1812 32.2066ZM9.7512 32.1266C10.3612 32.1266 10.6212 31.7166 10.6212 31.2366V29.1366H12.8012C13.2512 29.1366 13.5412 28.8766 13.5412 28.4366C13.5412 27.9966 13.2612 27.7366 12.8012 27.7366H10.6212V25.9366H13.0212C13.5212 25.9366 13.7912 25.6766 13.7912 25.2066C13.7912 24.7466 13.5212 24.4866 13.0212 24.4866H9.7312C9.2312 24.4866 8.8712 24.8166 8.8712 25.3866V31.2366C8.8712 31.7166 9.1312 32.1266 9.7512 32.1266ZM15.7512 32.1266C16.3812 32.1266 16.6312 31.7166 16.6312 31.2366V29.1366H18.8012C19.2512 29.1366 19.5412 28.8766 19.5412 28.4366C19.5412 27.9966 19.2612 27.7366 18.8012 27.7366H16.6312V25.9366H19.0312C19.5212 25.9366 19.8012 25.6766 19.8012 25.2066C19.8012 24.7466 19.5212 24.4866 19.0312 24.4866H15.7412C15.2312 24.4866 14.8812 24.8166 14.8812 25.3866V31.2366C14.8812 31.7166 15.1312 32.1266 15.7512 32.1266ZM4.1812 30.7766C2.9512 30.7766 2.5212 29.4666 2.5212 28.2766C2.5212 26.9866 2.9912 25.7566 4.1812 25.7566C5.4612 25.7566 5.8712 27.0666 5.8712 28.2766C5.8712 29.5766 5.3712 30.7766 4.1812 30.7766Z"
        fillRule="evenodd"
        clipRule="evenodd"
    />
</svg>
        