<svg viewBox="0 0 32.34765625 25.361328125" xmlns="http://www.w3.org/2000/svg"><path d="M1.8137 25.3623H3.4137C4.4437 25.3623 5.2337 24.5723 5.2337 23.5523V21.2723C8.2737 21.4623 12.6637 21.6023 16.1737 21.6023C19.6837 21.6023 24.0937 21.4623 27.1237 21.2723V23.5523C27.1237 24.5723 27.9037 25.3623 28.9337 25.3623H30.5437C31.5637 25.3623 32.3437 24.5723 32.3437 23.5523V15.6823C32.3437 13.3723 31.8837 12.0823 30.6237 10.4423L29.4637 8.9523C28.9737 6.4923 28.0537 3.9123 27.5937 2.9023C26.8537 1.3523 25.4437 0.4423 23.6237 0.1923C22.7137 0.0723 19.7137 0.0023 16.1737 0.0023C12.6437 0.0023 9.6537 0.0823 8.7337 0.1923C6.9137 0.4123 5.4937 1.3523 4.7737 2.9023C4.2937 3.9123 3.3937 6.4923 2.8837 8.9523L1.7337 10.4423C0.4637 12.0823 0.0037 13.3723 0.0037 15.6823V23.5523C0.0037 24.5723 0.7937 25.3623 1.8137 25.3623ZM5.6437 7.8023C5.9637 6.3123 6.6337 4.3623 7.0837 3.5723C7.4537 2.9223 7.8437 2.6423 8.5837 2.5423C9.6237 2.4023 11.9537 2.3123 16.1737 2.3123C20.4137 2.3123 22.7337 2.3823 23.7637 2.5423C24.5037 2.6523 24.8837 2.9223 25.2637 3.5723C25.7337 4.3523 26.3637 6.3123 26.7137 7.8023C26.8337 8.3123 26.6237 8.5023 26.1037 8.4723C23.8337 8.3223 21.1237 8.1923 16.1737 8.1923C11.2337 8.1923 8.5337 8.3223 6.2637 8.4723C5.7237 8.5023 5.5237 8.3123 5.6437 7.8023ZM6.3137 17.9123C5.0737 17.9123 4.1137 16.9523 4.1137 15.7123C4.1137 14.4523 5.0737 13.5123 6.3137 13.5123C7.5637 13.5123 8.5137 14.4523 8.5137 15.7123C8.5137 16.9523 7.5637 17.9123 6.3137 17.9123ZM26.0337 17.9123C24.7837 17.9123 23.8437 16.9523 23.8437 15.7123C23.8437 14.4523 24.7837 13.5123 26.0337 13.5123C27.2937 13.5123 28.2337 14.4523 28.2337 15.7123C28.2337 16.9523 27.2937 17.9123 26.0337 17.9123ZM12.5637 17.3623C11.6237 17.3623 10.9737 16.7223 10.9737 15.7823C10.9737 14.8523 11.6237 14.2023 12.5637 14.2023H19.7937C20.7237 14.2023 21.3737 14.8523 21.3737 15.7823C21.3737 16.7223 20.7237 17.3623 19.7937 17.3623Z" /></svg>