<svg viewBox="0 0 24.7734375 35.30078125" xmlns="http://www.w3.org/2000/svg"><path d="M9.8437 35.3015C16.7437 35.3015 19.6837 33.7815 19.6837 30.0615V19.2215H22.4737V27.6215C22.4737 28.3415 22.9237 28.7815 23.6237 28.7815C24.3237 28.7815 24.7737 28.3415 24.7737 27.6315V15.7815C24.7737 15.0615 24.3237 14.6315 23.6237 14.6315C22.9237 14.6315 22.4737 15.0615 22.4737 15.7915V17.4315H19.6837V6.3315C19.6837 2.3415 16.0637 0.0015 9.8437 0.0015C3.6237 0.0015 0.0037 2.3415 0.0037 6.3315V30.0615C0.0037 33.7815 2.9437 35.3015 9.8437 35.3015ZM9.8437 14.5615C8.5037 14.5615 6.4537 14.6515 5.7437 14.6515C4.6737 14.6515 4.2137 14.2415 4.1137 13.1515L3.8837 10.5015C3.7037 8.4615 5.1437 7.6415 9.8437 7.6415C14.5437 7.6415 15.9837 8.4615 15.8037 10.5015L15.5737 13.1515C15.4737 14.2415 15.0137 14.6515 13.9637 14.6515C13.2337 14.6515 11.1037 14.5615 9.8437 14.5615ZM9.8437 29.6115C5.1037 29.6115 3.6537 28.9015 3.9537 26.8215L4.1137 25.5415C4.3637 23.8615 5.7537 23.2815 9.8437 23.2815C13.9337 23.2815 15.3437 23.8615 15.5737 25.5415L15.7337 26.8215C16.0337 28.9015 14.5837 29.6115 9.8437 29.6115Z" /></svg>