
<svg
    viewBox={0 0 48.712890625 31.171875}
    xmlns="http://www.w3.org/2000/svg"
>
    <path
        fill="inherit"
        d="M23.5037 13.8624H29.6937C30.8437 13.8624 31.4437 13.2524 31.4437 12.0024V7.2424C31.4437 6.1024 30.9437 5.4924 29.9437 5.4024V3.7724C29.9437 2.3624 30.7937 1.4724 32.1137 1.4724C33.4537 1.4724 34.2937 2.3624 34.2937 3.7724V5.3024C34.2937 5.7124 34.6337 6.0424 35.0437 6.0424C35.4537 6.0424 35.7837 5.7124 35.7837 5.3024V4.0024C35.7837 1.5424 34.3537 0.0024 32.1137 0.0024C29.8837 0.0024 28.4537 1.5424 28.4537 4.0024V5.4024H23.5037C22.3437 5.4024 21.7337 6.0124 21.7337 7.2424V12.0024C21.7337 13.2524 22.3437 13.8624 23.5037 13.8624ZM10.0637 31.1724C12.1137 31.1724 13.8237 29.9724 14.5437 28.2224H34.1637C34.8937 29.9724 36.6037 31.1724 38.6537 31.1724C40.7037 31.1724 42.4137 29.9724 43.1337 28.2224H44.3637C47.3637 28.2224 48.7137 26.7924 48.7137 23.6224V19.8424C48.7137 17.2924 47.4837 15.7124 44.8837 14.8624L42.7137 14.1324C40.3637 12.1224 37.2937 9.8724 33.2537 9.2324V11.4524C35.8937 11.9124 38.2237 13.2324 40.9737 15.6524C41.6137 16.2124 41.9637 16.3624 42.7837 16.6224L44.2237 17.0924C45.7837 17.5924 46.5137 18.4024 46.5137 19.8424V23.6224C46.5137 25.2624 45.8437 26.0224 44.3637 26.0224H43.5037C43.3537 23.4324 41.2737 21.4524 38.6537 21.4524C36.0237 21.4524 33.9437 23.4324 33.7937 26.0224H14.9137C14.7637 23.4324 12.6837 21.4524 10.0637 21.4524C7.4237 21.4524 5.3637 23.4324 5.2137 26.0224H4.3437C2.8737 26.0224 2.2037 25.2624 2.2037 23.6224V21.9524C2.2037 19.9324 3.7037 18.4024 6.3437 18.0924L11.8137 17.4224C12.6337 17.3124 13.1937 17.1124 13.7637 16.7724L18.8437 13.5724C19.1637 13.3824 19.4837 13.1924 19.8137 13.0324V10.5124C19.1037 10.8524 18.4037 11.2424 17.6637 11.7024L12.1237 15.1724L6.0737 15.9124C2.2837 16.3824 0.0037 18.7324 0.0037 21.9524V23.7024C0.0037 26.8224 1.3837 28.2224 4.3437 28.2224H5.5637C6.2937 29.9724 8.0137 31.1724 10.0637 31.1724ZM10.0637 29.1024C8.4937 29.1024 7.2637 27.8724 7.2637 26.3224C7.2637 24.7424 8.4937 23.5124 10.0637 23.5124C11.6237 23.5124 12.8537 24.7424 12.8537 26.3224C12.8537 27.8724 11.6237 29.1024 10.0637 29.1024ZM38.6537 29.1024C37.0937 29.1024 35.8437 27.8724 35.8437 26.3224C35.8437 24.7424 37.0937 23.5124 38.6537 23.5124C40.2137 23.5124 41.4537 24.7424 41.4537 26.3224C41.4537 27.8724 40.2137 29.1024 38.6537 29.1024Z"
        fillRule="evenodd"
        clipRule="evenodd"
    />
</svg>
        