
<svg
    viewBox="0 0 30.36888878900792 32.169921875"
    xmlns="http://www.w3.org/2000/svg"
>
    <path
        fill="inherit"
        d="M5.1855 18.7686H6.3555C7.1255 18.7686 7.7155 18.1986 7.7155 17.4486V16.0186C9.8855 16.1486 12.8155 16.2286 15.1755 16.2286C17.5455 16.2286 20.4555 16.1486 22.6455 16.0186L22.6555 17.4486C22.6555 18.1986 23.2255 18.7686 23.9955 18.7686H25.1755C25.9255 18.7686 26.5155 18.1986 26.5155 17.4486V15.2186C26.9755 14.8086 27.2355 14.2086 27.2355 13.4486V11.6786C27.2355 9.9286 26.8655 8.9386 25.9255 7.7286L25.1055 6.6886C24.7355 4.8686 24.0755 2.9986 23.7255 2.2386C23.1755 1.0786 22.0855 0.3386 20.6555 0.1386C19.9855 0.0586 17.8455 -0.0014 15.1755 -0.0014C12.5555 -0.0014 10.3755 0.0586 9.7055 0.1386C8.2855 0.3186 7.1955 1.0486 6.6155 2.2386C6.2755 2.9986 5.6055 4.8686 5.2355 6.6886L4.4455 7.7286C3.4855 8.9386 3.1355 9.9286 3.1355 11.6786V13.4486C3.1355 14.2086 3.3755 14.7886 3.8455 15.2186V17.4486C3.8455 18.1986 4.4355 18.7686 5.1855 18.7686ZM15.1755 14.4786C11.7855 14.4786 7.4155 14.3386 5.8255 14.1386C5.1455 14.0386 4.8855 13.7586 4.8855 13.0586V11.6786C4.8855 10.3586 5.0755 9.7786 5.8255 8.7886L6.8955 7.4086C7.1355 5.9586 7.8055 3.9286 8.2155 3.0186C8.5155 2.3886 9.0755 2.0086 9.9155 1.9186C10.5455 1.8486 12.5655 1.7386 15.1755 1.7386C17.8055 1.7386 19.8555 1.8486 20.4155 1.9186C21.2655 2.0186 21.8255 2.3886 22.1355 3.0186C22.5755 3.9386 23.2255 5.9886 23.4655 7.4086L24.5255 8.7886C25.2655 9.7786 25.4855 10.3786 25.4855 11.6786V13.0586C25.4855 13.7686 25.2155 14.0586 24.5155 14.1386C22.9255 14.3286 18.5655 14.4786 15.1755 14.4786ZM8.0155 6.5086C7.9355 6.8786 8.0955 7.0186 8.4755 6.9886C10.0755 6.8786 11.9755 6.7786 15.1755 6.7786C18.3755 6.7786 20.2755 6.8786 21.8755 6.9886C22.2555 7.0186 22.4255 6.8786 22.3455 6.5086C22.0955 5.4286 21.6455 4.0486 21.3155 3.4986C21.0555 3.0386 20.7455 2.8486 20.2355 2.7586C19.5255 2.6686 17.9155 2.5986 15.1755 2.5986C12.4455 2.5986 10.8255 2.6686 10.1155 2.7586C9.6155 2.8486 9.2955 3.0386 9.0255 3.4986C8.7155 4.0486 8.2555 5.4286 8.0155 6.5086ZM7.9555 13.3186C8.8855 13.3186 9.5855 12.6186 9.5855 11.6986C9.5855 10.7886 8.8855 10.0886 7.9555 10.0886C7.0455 10.0886 6.3455 10.7886 6.3455 11.6986C6.3455 12.6186 7.0455 13.3186 7.9555 13.3186ZM22.3855 13.3186C23.3155 13.3186 24.0055 12.6186 24.0055 11.6986C24.0055 10.7886 23.3155 10.0886 22.3855 10.0886C21.4655 10.0886 20.7655 10.7886 20.7655 11.6986C20.7655 12.6186 21.4655 13.3186 22.3855 13.3186ZM12.5355 12.9286H17.8155C18.5155 12.9286 18.9955 12.4586 18.9955 11.7586C18.9955 11.0786 18.4955 10.5986 17.8155 10.5986H12.5355C11.8455 10.5986 11.3655 11.0786 11.3655 11.7586C11.3655 12.4586 11.8455 12.9286 12.5355 12.9286ZM1.7755 32.1686H1.8455C6.1155 32.1686 6.4655 29.3986 8.6955 29.3986C10.8555 29.3986 11.4555 32.1686 15.1955 32.1686C18.9055 32.1686 19.5155 29.3986 21.6755 29.3986C23.8955 29.3986 24.2555 32.1686 28.5255 32.1686H28.5855C29.1255 32.1686 29.5455 31.7486 29.5455 31.2086C29.5455 30.6786 29.1255 30.2386 28.5855 30.2386H28.5255C27.2655 30.2386 26.4855 29.8086 25.6455 29.2286L29.7655 23.7586C31.0255 22.1186 30.2455 20.2386 28.0855 20.2386H2.2855C0.1255 20.2386 -0.6545 22.1186 0.6055 23.7586L4.7155 29.2286C3.8855 29.8086 3.1055 30.2386 1.8455 30.2386H1.7755C1.2455 30.2386 0.8255 30.6786 0.8255 31.2086C0.8255 31.7486 1.2455 32.1686 1.7755 32.1686ZM12.2755 28.9686C11.3755 28.3186 10.2555 27.4686 8.6955 27.4686C7.7255 27.4686 6.9355 27.7986 6.2455 28.1886L2.3355 22.8686C2.0355 22.4786 2.2155 21.9986 2.7655 21.9986H27.6055C28.1655 21.9986 28.3455 22.4786 28.0255 22.8886L24.1155 28.1886C23.4355 27.7986 22.6455 27.4686 21.6755 27.4686C20.1155 27.4686 18.9955 28.3186 18.0855 28.9686C17.1555 29.6986 16.4055 30.2386 15.1955 30.2386C13.9655 30.2386 13.2055 29.6986 12.2755 28.9686Z"
        fillRule="evenodd"
        clipRule="evenodd"
    />
</svg>
        