
<svg
    viewBox={0 0 18.78515625 37.0234375}
    xmlns="http://www.w3.org/2000/svg"
>
    <path
        fill="inherit"
        d="M9.3937 26.9228C14.6437 26.9228 17.0037 25.7328 17.0037 22.7128V10.7728H17.5837C18.2637 10.7728 18.7837 10.2528 18.7837 9.6128V9.0928C18.7837 8.4328 18.2637 7.9328 17.5837 7.9328H17.0037V4.9628C17.0037 1.8428 14.1237 0.0028 9.3937 0.0028C4.6637 0.0028 1.7937 1.8428 1.7937 4.9628V7.9328H1.2037C0.5337 7.9328 0.0037 8.4328 0.0037 9.0928V9.6128C0.0037 10.2528 0.5337 10.7728 1.2037 10.7728H1.7937V22.7128C1.7937 25.7328 4.1437 26.9228 9.3937 26.9228ZM9.3937 24.7828C5.4837 24.7828 3.9537 24.1828 3.9537 22.6428V4.9628C3.9537 3.1728 5.8537 2.1628 9.3937 2.1628C12.9437 2.1628 14.8437 3.1728 14.8437 4.9628V22.6428C14.8437 24.1828 13.3137 24.7828 9.3937 24.7828ZM9.3937 11.3328C10.3937 11.3328 11.8837 11.4128 12.3837 11.4128C13.2237 11.4128 13.5937 11.0728 13.6737 10.2128L13.8337 8.3028C13.9737 6.7228 12.9237 6.1228 9.3937 6.1228C5.8637 6.1228 4.8237 6.7228 4.9637 8.3028L5.1237 10.2128C5.2137 11.0728 5.5737 11.4128 6.3937 11.4128C6.9137 11.4128 8.4637 11.3328 9.3937 11.3328ZM9.3937 22.3128C12.9237 22.3128 14.0437 21.7928 13.7937 20.1628L13.6437 19.2328C13.4437 17.9328 12.4437 17.5228 9.3937 17.5228C6.3537 17.5228 5.3437 17.9328 5.1437 19.2328L5.0037 20.1628C4.7537 21.7928 5.8637 22.3128 9.3937 22.3128ZM9.3937 30.1728C8.2037 30.1728 7.1537 29.8028 6.3337 29.1328C5.6337 28.6428 5.0537 28.6728 4.6737 29.0628C4.2537 29.4728 4.2837 30.0828 4.7137 30.5428C5.5637 31.3628 7.4137 32.2228 9.3937 32.2228C11.3937 32.2228 13.2337 31.3628 14.0637 30.5428C14.5037 30.0828 14.5337 29.4728 14.1137 29.0628C13.7237 28.6728 13.1537 28.6428 12.4537 29.1328C11.6437 29.8028 10.5937 30.1728 9.3937 30.1728ZM9.3937 34.9728C6.9837 34.9728 4.7837 34.0828 3.1037 32.5828C2.5137 32.0728 1.9037 32.0328 1.5037 32.4328C1.0437 32.8828 1.0637 33.5328 1.5537 34.0428C3.5937 36.0828 6.4237 37.0228 9.3937 37.0228C12.3737 37.0228 15.2037 36.0828 17.2437 34.0428C17.7237 33.5328 17.7437 32.8828 17.2937 32.4328C16.8837 32.0328 16.2737 32.0728 15.6837 32.5828C14.0037 34.0828 11.8137 34.9728 9.3937 34.9728Z"
        fillRule="evenodd"
        clipRule="evenodd"
    />
</svg>
        