
<svg
    viewBox={0 0 31.759765625 35.30078125}
    xmlns="http://www.w3.org/2000/svg"
>
    <path
        fill="inherit"
        d="M19.4998 35.3015C26.3998 35.3015 29.3398 33.7815 29.3398 30.0615V13.7815H30.4598C31.1998 13.7815 31.7598 13.2215 31.7598 12.5115V11.8415C31.7598 11.1315 31.1998 10.5815 30.4598 10.5815H29.3398V6.3315C29.3398 2.3415 25.7198 0.0015 19.4998 0.0015C13.2898 0.0015 9.6498 2.3415 9.6498 6.3315V10.5815H8.5498C7.8098 10.5815 7.2498 11.1315 7.2498 11.8415V12.5115C7.2498 13.2215 7.8098 13.7815 8.5498 13.7815H9.6498V30.0615C9.6498 33.7815 12.6098 35.3015 19.4998 35.3015ZM19.4998 33.0315C14.2198 33.0315 11.9398 32.1415 11.9398 29.9515V6.3315C11.9398 3.7715 14.7198 2.2815 19.4998 2.2815C24.2798 2.2815 27.0598 3.7715 27.0598 6.3315V29.9515C27.0598 32.1415 24.7898 33.0315 19.4998 33.0315ZM19.4998 14.6815C20.7298 14.6815 22.7898 14.7815 23.4898 14.7815C24.5098 14.7815 24.9698 14.3815 25.0598 13.3115L25.2798 10.7415C25.4598 8.7815 24.0798 7.9815 19.4998 7.9815C14.9298 7.9815 13.5498 8.7815 13.7298 10.7415L13.9498 13.3115C14.0398 14.3815 14.4798 14.7815 15.5198 14.7815C16.1998 14.7815 18.2098 14.6815 19.4998 14.6815ZM-0.0002 27.2715C-0.0002 28.0115 0.5898 28.3315 1.2298 27.9315L6.0798 24.9815C6.7098 24.5915 6.6998 23.8715 6.0798 23.4915L1.2298 20.5115C0.5898 20.1115 -0.0002 20.4515 -0.0002 21.1815ZM19.4998 29.2715C24.0998 29.2715 25.5098 28.5915 25.2198 26.5815L25.0498 25.3315C24.8298 23.6915 23.4598 23.1415 19.4998 23.1415C15.5498 23.1415 14.1798 23.6915 13.9598 25.3315L13.7798 26.5815C13.4898 28.5915 14.8998 29.2715 19.4998 29.2715Z"
        fillRule="evenodd"
        clipRule="evenodd"
    />
</svg>
        