
<svg
    viewBox="0 0 48.712890625 27.709529608337927"
    xmlns="http://www.w3.org/2000/svg"
>
    <path
        fill="inherit"
        d="M4.3437 19.1853H5.5637C6.2937 20.9353 8.0137 22.1353 10.0637 22.1353C12.1137 22.1353 13.8237 20.9353 14.5437 19.1853H34.1637C34.8937 20.9353 36.6037 22.1353 38.6537 22.1353C40.7037 22.1353 42.4137 20.9353 43.1337 19.1853H44.3637C47.3637 19.1853 48.7137 17.7553 48.7137 14.5853V10.8053C48.7137 8.2553 47.4837 6.6753 44.8837 5.8253L42.7137 5.0953C39.9537 2.7053 36.1437 -0.0047 31.0237 -0.0047H28.9437C23.3637 -0.0047 21.0137 0.5653 17.6637 2.6653L12.1237 6.1353L6.0737 6.8753C2.2837 7.3453 0.0037 9.6953 0.0037 12.9153V14.6653C0.0037 17.7853 1.3837 19.1853 4.3437 19.1853ZM38.6537 12.4153C36.0237 12.4153 33.9437 14.3953 33.7937 16.9853H14.9137C14.7637 14.3953 12.6837 12.4153 10.0637 12.4153C7.4237 12.4153 5.3637 14.3953 5.2137 16.9853H4.3437C2.8737 16.9853 2.2037 16.2253 2.2037 14.5853V12.9153C2.2037 10.8953 3.7037 9.3653 6.3437 9.0553L11.8137 8.3853C12.6337 8.2753 13.1937 8.0753 13.7637 7.7353L18.8437 4.5353C21.8637 2.6553 23.7737 2.2053 28.9437 2.2053H31.0237C34.6037 2.2053 37.4437 3.5253 40.9737 6.6153C41.6137 7.1753 41.9637 7.3253 42.7837 7.5853L44.2237 8.0553C45.7837 8.5553 46.5137 9.3653 46.5137 10.8053V14.5853C46.5137 16.2253 45.8437 16.9853 44.3637 16.9853H43.5037C43.3537 14.3953 41.2737 12.4153 38.6537 12.4153ZM10.0637 20.0653C8.4937 20.0653 7.2637 18.8353 7.2637 17.2853C7.2637 15.7053 8.4937 14.4753 10.0637 14.4753C11.6237 14.4753 12.8537 15.7053 12.8537 17.2853C12.8537 18.8353 11.6237 20.0653 10.0637 20.0653ZM38.6537 20.0653C37.0937 20.0653 35.8437 18.8353 35.8437 17.2853C35.8437 15.7053 37.0937 14.4753 38.6537 14.4753C40.2137 14.4753 41.4537 15.7053 41.4537 17.2853C41.4537 18.8353 40.2137 20.0653 38.6537 20.0653ZM21.3137 21.1553C20.5737 21.1553 20.2637 21.7553 20.6537 22.3953L23.6137 27.2453C23.9837 27.8753 24.7237 27.8453 25.0837 27.2453L28.0637 22.3953C28.4637 21.7553 28.1237 21.1553 27.3937 21.1553Z"
        fillRule="evenodd"
        clipRule="evenodd"
    />
</svg>
        