
<svg
    viewBox="0 0 31.705078125 36.1484375"
    xmlns="http://www.w3.org/2000/svg"
>
    <path
        fill="inherit"
        d="M24.4137 20.8653C28.5037 20.8653 30.3237 19.9353 30.3237 17.5853V8.3653H30.7437C31.2937 8.3653 31.7037 7.9553 31.7037 7.4553V7.0553C31.7037 6.5353 31.2937 6.1253 30.7437 6.1253H30.3237V3.8553C30.3237 1.4253 28.0937 -0.0047 24.4137 -0.0047C20.7537 -0.0047 18.5237 1.4253 18.5237 3.8553V6.1253H18.0737C17.5537 6.1253 17.1337 6.5353 17.1337 7.0553V7.4553C17.1337 7.9553 17.5537 8.3653 18.0737 8.3653H18.5237V17.5853C18.5237 19.9353 20.3437 20.8653 24.4137 20.8653ZM24.4137 19.1653C21.3937 19.1653 20.2237 18.7153 20.2237 17.5253V3.8553C20.2237 2.4753 21.6837 1.7053 24.4137 1.7053C27.1637 1.7053 28.6137 2.4753 28.6137 3.8553V17.5253C28.6137 18.7153 27.4537 19.1653 24.4137 19.1653ZM24.4137 8.7953C25.1837 8.7953 26.3337 8.8753 26.7437 8.8753C27.3837 8.8753 27.6837 8.5953 27.7437 7.9153L27.8637 6.4353C27.9737 5.2053 27.1537 4.7353 24.4137 4.7353C21.6737 4.7353 20.8637 5.2053 20.9737 6.4353L21.0937 7.9153C21.1537 8.5953 21.4537 8.8753 22.1037 8.8753C22.4937 8.8753 23.6937 8.7953 24.4137 8.7953ZM24.4137 17.2953C27.1537 17.2953 28.0237 16.8853 27.8337 15.6253L27.7237 14.9053C27.5737 13.8753 26.7737 13.5653 24.4137 13.5653C22.0637 13.5653 21.2637 13.8753 21.1137 14.9053L21.0037 15.6253C20.8237 16.8853 21.6837 17.2953 24.4137 17.2953ZM16.2737 22.1653C17.3637 23.2553 18.8537 23.8053 19.7737 23.8053C20.2737 23.8053 20.6137 23.4653 20.6137 22.9953C20.6137 22.5553 20.3037 22.2153 19.6437 22.1353C18.8437 22.0353 18.0837 21.6653 17.4137 21.0253C16.7937 20.3553 16.4237 19.5953 16.2937 18.6853C16.2037 18.1053 15.9737 17.8453 15.4337 17.8453C14.9737 17.8253 14.5837 18.2153 14.6537 18.7953C14.7937 20.0853 15.3437 21.2353 16.2737 22.1653ZM13.6437 24.8053C15.2837 26.4253 17.3537 27.4553 19.5737 27.4553C20.1437 27.4553 20.5037 27.0953 20.5037 26.5953C20.5037 26.1253 20.1537 25.8253 19.5337 25.7753C17.8037 25.6753 16.1237 24.9553 14.7937 23.6553C13.4837 22.3253 12.7737 20.6453 12.6637 18.8953C12.6037 18.2253 12.3137 17.9553 11.7837 17.9553C11.3737 17.9553 10.9637 18.2553 11.0037 18.8553C11.1437 21.0953 12.0137 23.1553 13.6437 24.8053ZM13.1637 36.1453V33.8253H13.6037C14.1337 33.8253 14.5437 33.4253 14.5437 32.9253V32.5253C14.5437 31.9953 14.1337 31.5953 13.6037 31.5953H13.1637V29.3253C13.1637 26.9053 10.9537 25.4853 7.3037 25.4853C3.6337 25.4853 1.3837 26.9053 1.3837 29.3253V31.5953H0.9537C0.4237 31.5953 0.0037 31.9953 0.0037 32.5253V32.9253C0.0037 33.4253 0.4237 33.8253 0.9537 33.8253H1.3837V36.1453H3.0937V29.3253C3.0937 27.9453 4.5537 27.1753 7.3037 27.1753C10.0337 27.1753 11.4737 27.9453 11.4737 29.3253V36.1453ZM7.3037 34.2653C8.0537 34.2653 9.2137 34.3153 9.5937 34.3153C10.2437 34.3153 10.5437 34.0553 10.6137 33.3853L10.7237 31.8953C10.8137 30.6753 10.0337 30.2053 7.3037 30.2053C4.5537 30.2053 3.7337 30.6753 3.8437 31.8953L3.9737 33.3853C4.0337 34.0553 4.3237 34.3153 4.9737 34.3153C5.3737 34.3153 6.5737 34.2653 7.3037 34.2653Z"
        fillRule="evenodd"
        clipRule="evenodd"
    />
</svg>
        