
<svg
    viewBox={0 0 26.66015625 33.08835137583449}
    xmlns="http://www.w3.org/2000/svg"
>
    <path
        fill="inherit"
        d="M13.3037 1.6595C11.8837 1.6595 10.5937 1.2195 9.5437 0.4295C8.9437 -0.0005 8.3437 -0.1905 7.8437 0.2495C7.3237 0.6995 7.3137 1.5195 7.9437 2.0095C9.4237 3.1995 11.2937 3.8895 13.3037 3.8895C15.3137 3.8895 17.1837 3.1995 18.6637 2.0095C19.2937 1.5195 19.2737 0.6995 18.7537 0.2495C18.2637 -0.1905 17.6537 -0.0005 17.0637 0.4295C16.0537 1.2495 14.7237 1.6595 13.3037 1.6595ZM13.2737 7.1295C10.3337 7.1295 7.6737 6.1095 5.6237 4.2695C5.0537 3.7795 4.4337 3.6395 3.9237 4.0795C3.4137 4.5095 3.4137 5.2795 3.9937 5.8095C6.4637 8.0795 9.7337 9.3495 13.2737 9.3495C16.8137 9.3495 20.0937 8.0795 22.5537 5.8095C23.1437 5.2795 23.1437 4.5095 22.6237 4.0795C22.1337 3.6395 21.5037 3.7795 20.9337 4.2695C18.8937 6.1095 16.2237 7.1295 13.2737 7.1295ZM13.3337 29.9395C16.1237 29.9395 19.6437 29.8495 22.1437 29.6995V31.6295C22.1437 32.4595 22.7937 33.0895 23.6237 33.0895H25.1737C26.0037 33.0895 26.6637 32.4595 26.6637 31.6295V25.0995C26.6637 23.2195 26.2737 22.1595 25.2337 20.8295L24.2937 19.6095C23.8837 17.5995 23.1437 15.4795 22.7637 14.6595C22.1437 13.3895 21.0037 12.6195 19.5137 12.4395C18.7737 12.3495 16.2237 12.2795 13.3337 12.2795C10.4337 12.2795 7.8937 12.3495 7.1537 12.4395C5.6637 12.6195 4.4937 13.3895 3.8937 14.6595C3.5137 15.4795 2.7737 17.5995 2.3637 19.6095L1.4237 20.8295C0.3837 22.1595 0.0037 23.2195 0.0037 25.0995V31.6295C0.0037 32.4595 0.6537 33.0895 1.4937 33.0895H3.0337C3.8737 33.0895 4.5137 32.4595 4.5137 31.6295V29.6995C7.0137 29.8495 10.5437 29.9395 13.3337 29.9395ZM4.7137 18.6795C4.9737 17.4495 5.5237 15.8595 5.8937 15.2095C6.1937 14.6695 6.5237 14.4495 7.1237 14.3595C7.9737 14.2595 9.8737 14.1795 13.3337 14.1795C16.7937 14.1795 18.6937 14.2395 19.5337 14.3595C20.1437 14.4495 20.4537 14.6695 20.7637 15.2095C21.1537 15.8495 21.6437 17.4495 21.9437 18.6795C22.0537 19.0895 21.8737 19.2495 21.4537 19.2295C19.5937 19.0895 17.3737 18.9795 13.3337 18.9795C9.2837 18.9795 7.0637 19.0895 5.2137 19.2295C4.7837 19.2495 4.6237 19.0895 4.7137 18.6795ZM5.2637 26.9395C4.2537 26.9395 3.4637 26.1595 3.4637 25.1295C3.4637 24.1095 4.2537 23.3395 5.2637 23.3395C6.2937 23.3395 7.0537 24.1095 7.0537 25.1295C7.0537 26.1595 6.2937 26.9395 5.2637 26.9395ZM21.3937 26.9395C20.3737 26.9395 19.6037 26.1595 19.6037 25.1295C19.6037 24.1095 20.3737 23.3395 21.3937 23.3395C22.4037 23.3395 23.1837 24.1095 23.1837 25.1295C23.1837 26.1595 22.4037 26.9395 21.3937 26.9395ZM10.3737 26.4895C9.6137 26.4895 9.0737 25.9695 9.0737 25.1995C9.0737 24.4195 9.6137 23.8995 10.3737 23.8995H16.2837C17.0537 23.8995 17.5837 24.4195 17.5837 25.1995C17.5837 25.9695 17.0537 26.4895 16.2837 26.4895Z"
        fillRule="evenodd"
        clipRule="evenodd"
    />
</svg>
        