
<svg
    viewBox="0 0 29.592313366470542 27.69921875"
    xmlns="http://www.w3.org/2000/svg"
>
    <path
        fill="inherit"
        d="M12.8537 24.818C17.0537 27.218 19.4837 27.368 20.8737 24.968L26.3737 15.418L26.8337 15.698C27.3737 16.008 28.0437 15.828 28.3237 15.328L28.5637 14.898C28.8437 14.378 28.6837 13.738 28.1337 13.428L27.6737 13.168L29.0437 10.798C30.0937 8.998 29.6137 7.038 27.8537 5.278V0.808C27.8537 0.338 27.5037 -0.002 27.0437 -0.002H26.3137C25.8537 -0.002 25.5137 0.338 25.5137 0.808V3.498C25.4337 3.448 25.3437 3.408 25.2537 3.348C21.4937 1.188 18.3637 1.308 16.9237 3.798L15.5537 6.168L15.0937 5.908C14.5637 5.588 13.9137 5.758 13.6137 6.278L13.3737 6.688C13.0737 7.188 13.2637 7.858 13.7837 8.158L14.2637 8.418L8.7537 17.968C7.3537 20.368 8.6837 22.408 12.8537 24.818ZM0.8037 7.408H1.5437C1.9937 7.408 2.3337 7.068 2.3337 6.608V0.808C2.3337 0.338 1.9937 -0.002 1.5437 -0.002H0.8037C0.3437 -0.002 0.0037 0.338 0.0037 0.808V6.608C0.0037 7.068 0.3437 7.408 0.8037 7.408ZM20.0837 12.308C19.2737 11.838 18.0037 11.228 17.5837 10.948C16.8837 10.568 16.7637 10.108 17.1037 9.378L17.8537 7.728C18.5137 6.358 19.6437 6.358 22.5437 8.038C25.4737 9.718 26.0337 10.708 25.1837 11.938L24.1337 13.428C23.6537 14.118 23.1737 14.208 22.5137 13.818C22.0937 13.578 20.8537 12.758 20.0837 12.308ZM0.8037 17.538H1.5437C1.9937 17.538 2.3337 17.198 2.3337 16.738V10.948C2.3337 10.498 1.9937 10.158 1.5437 10.158H0.8037C0.3437 10.158 0.0037 10.498 0.0037 10.948V16.738C0.0037 17.198 0.3437 17.538 0.8037 17.538ZM14.8637 21.358C11.9737 19.688 11.2937 18.728 12.2637 17.498L12.8237 16.798C13.5937 15.818 14.6437 15.978 17.1337 17.428C19.6437 18.868 20.2937 19.678 19.8237 20.848L19.5137 21.688C18.9537 23.128 17.7637 23.038 14.8637 21.358ZM26.3137 27.688H27.0437C27.5037 27.688 27.8537 27.348 27.8537 26.888V21.098C27.8537 20.628 27.5037 20.288 27.0437 20.288H26.3137C25.8537 20.288 25.5137 20.628 25.5137 21.098V26.888C25.5137 27.348 25.8537 27.688 26.3137 27.688ZM0.8037 27.698H1.5437C1.9937 27.698 2.3337 27.358 2.3337 26.888V21.098C2.3337 20.628 1.9937 20.288 1.5437 20.288H0.8037C0.3437 20.288 0.0037 20.628 0.0037 21.098V26.888C0.0037 27.358 0.3437 27.698 0.8037 27.698Z"
        fillRule="evenodd"
        clipRule="evenodd"
    />
</svg>
        