<svg viewBox="0 0 43.57254211987265 25.388671875" xmlns="http://www.w3.org/2000/svg"><path d="M1.8439 25.3896H3.4439C4.4739 25.3896 5.2539 24.5996 5.2539 23.5796V21.2996C6.4539 21.3696 7.8639 21.4396 9.3339 21.4896V15.7196C9.3339 13.4096 9.8139 12.1296 11.0639 10.4696L12.2139 8.9796L12.4039 8.3696C9.6939 8.4196 7.8739 8.5196 6.2639 8.6296C5.7239 8.6496 5.5239 8.4596 5.6439 7.9596C5.9639 6.4696 6.6339 4.5096 7.0839 3.7196C7.4539 3.0796 7.8439 2.7996 8.5839 2.6896C9.4639 2.5696 11.2239 2.4896 14.3039 2.4596C14.6339 1.4796 15.0539 0.7096 15.8439 -0.0004C12.0039 0.0296 9.5339 0.1096 8.7139 0.2096C6.8939 0.4096 5.4739 1.3796 4.7439 2.9296C4.2639 3.9196 3.3739 6.5196 2.8739 8.9796L1.7339 10.4696C0.4739 12.1296 -0.0161 13.4096 0.0039 15.7196L0.0139 18.1296V23.5996C0.0139 24.6096 0.8239 25.3896 1.8439 25.3896ZM13.0339 25.3896H14.6439C15.6639 25.3896 16.4439 24.5996 16.4439 23.5796V21.2996C19.4839 21.4896 23.8739 21.6296 27.3939 21.6296C30.9139 21.6296 35.3039 21.4896 38.3339 21.2996V23.5796C38.3339 24.5996 39.1339 25.3896 40.1439 25.3896H41.7539C42.7839 25.3896 43.5739 24.5996 43.5739 23.5796V15.7096C43.5739 13.3996 43.1039 12.1096 41.8339 10.4696L40.6839 8.9796C40.1839 6.5196 39.2839 3.9396 38.8039 2.9296C38.0739 1.3796 36.6539 0.4696 34.8339 0.2196C33.9239 0.0996 30.9239 0.0296 27.3939 0.0296C23.8539 0.0296 20.8639 0.1096 19.9439 0.2196C18.1339 0.4396 16.7039 1.3796 15.9839 2.9296C15.5139 3.9396 14.6039 6.5196 14.0939 8.9796L12.9439 10.4696C11.6739 12.1096 11.2139 13.3996 11.2139 15.7096V23.5796C11.2139 24.5996 12.0039 25.3896 13.0339 25.3896ZM16.8539 7.8296C17.1839 6.3396 17.8439 4.3896 18.2939 3.5996C18.6639 2.9496 19.0739 2.6696 19.8139 2.5696C20.8339 2.4296 23.1639 2.3396 27.3939 2.3396C31.6239 2.3396 33.9439 2.4096 34.9839 2.5696C35.7239 2.6796 36.1039 2.9496 36.4939 3.5996C36.9539 4.3796 37.5739 6.3396 37.9239 7.8296C38.0539 8.3396 37.8439 8.5296 37.3139 8.4996C35.0439 8.3496 32.3339 8.2196 27.3939 8.2196C22.4539 8.2196 19.7439 8.3496 17.4739 8.4996C16.9439 8.5296 16.7439 8.3396 16.8539 7.8296ZM5.1539 17.1996C4.0039 17.1996 3.1439 16.3196 3.1439 15.1896C3.1439 14.0396 4.0039 13.1796 5.1539 13.1796C6.2939 13.1796 7.1539 14.0396 7.1539 15.1896C7.1539 16.3196 6.2939 17.1996 5.1539 17.1996ZM17.5239 17.9396C16.2839 17.9396 15.3439 16.9796 15.3439 15.7396C15.3439 14.4796 16.2839 13.5396 17.5239 13.5396C18.7839 13.5396 19.7239 14.4796 19.7239 15.7396C19.7239 16.9796 18.7839 17.9396 17.5239 17.9396ZM37.2539 17.9396C35.9939 17.9396 35.0539 16.9796 35.0539 15.7396C35.0539 14.4796 35.9939 13.5396 37.2539 13.5396C38.5039 13.5396 39.4439 14.4796 39.4439 15.7396C39.4439 16.9796 38.5039 17.9396 37.2539 17.9396ZM23.7739 17.3896C22.8439 17.3896 22.1939 16.7496 22.1939 15.8096C22.1939 14.8796 22.8439 14.2296 23.7739 14.2296H31.0039C31.9339 14.2296 32.5939 14.8796 32.5939 15.8096C32.5939 16.7496 31.9339 17.3896 31.0039 17.3896Z" /></svg>