
<svg
    viewBox="0 0 36.88671875 25.01953125"
    xmlns="http://www.w3.org/2000/svg"
>
    <path
        fill="inherit"
        d="M24.6737 25.0172C27.5637 25.0172 28.9737 23.6572 28.9737 20.7972V14.1072C28.9737 12.1572 28.4237 11.0972 26.8537 9.9072L16.2237 1.8272C14.4237 0.4772 13.0337 -0.0028 10.8037 -0.0028H4.1737C1.4037 -0.0028 0.0037 1.3972 0.0037 4.1272V20.7972C0.0037 23.6572 1.3937 25.0172 4.2937 25.0172ZM24.5937 12.4172H4.2137C2.9537 12.4172 2.2037 11.6872 2.2037 10.3772V4.2372C2.2037 2.9072 2.9437 2.1972 4.2137 2.1972H10.8037C12.5537 2.1972 13.5637 2.4972 14.7237 3.4272L24.9137 11.2272C25.4737 11.6372 25.3237 12.4172 24.5937 12.4172ZM35.0937 15.5972C35.7637 15.5972 36.2337 15.1372 36.2537 14.4372L36.5437 4.7572C36.5737 3.8872 35.9937 3.2972 35.0937 3.2972C34.1937 3.2972 33.6037 3.8872 33.6337 4.7572L33.9237 14.4372C33.9437 15.1372 34.4237 15.5972 35.0937 15.5972ZM35.0937 21.6672C36.0637 21.6672 36.8837 20.8772 36.8837 19.9472C36.8837 19.0072 36.0837 18.2272 35.0937 18.2272C34.0937 18.2272 33.3037 19.0072 33.3037 19.9472C33.3037 20.8772 34.1237 21.6672 35.0937 21.6672Z"
        fillRule="evenodd"
        clipRule="evenodd"
    />
</svg>
        