
<svg
    viewBox="0 0 18.78515625 37.0234375"
    xmlns="http://www.w3.org/2000/svg"
>
    <path
        fill="inherit"
        d="M9.3937 26.9228C14.6437 26.9228 17.0037 25.7328 17.0037 22.7128V10.7728H17.5837C18.2637 10.7728 18.7837 10.2528 18.7837 9.6128V9.0928C18.7837 8.4328 18.2637 7.9328 17.5837 7.9328H17.0037V4.9628C17.0037 1.8428 14.1237 0.0028 9.3937 0.0028C4.6637 0.0028 1.7937 1.8428 1.7937 4.9628V7.9328H1.2037C0.5337 7.9328 0.0037 8.4328 0.0037 9.0928V9.6128C0.0037 10.2528 0.5337 10.7728 1.2037 10.7728H1.7937V22.7128C1.7937 25.7328 4.1437 26.9228 9.3937 26.9228ZM9.3937 11.2528C8.4337 11.2528 6.8537 11.3328 6.3037 11.3328C5.4737 11.3328 5.0837 10.9828 5.0037 10.0928L4.8237 8.1228C4.6937 6.4928 5.7537 5.8828 9.3937 5.8828C13.0337 5.8828 14.1137 6.4928 13.9737 8.1228L13.7937 10.0928C13.7137 10.9828 13.3437 11.3328 12.4837 11.3328C11.9537 11.3328 10.4137 11.2528 9.3937 11.2528ZM9.3937 22.5628C5.7537 22.5628 4.6237 22.0228 4.8637 20.3428L5.0137 19.3828C5.2237 18.0428 6.2637 17.6228 9.3937 17.6228C12.5337 17.6228 13.5637 18.0428 13.7837 19.3828L13.9337 20.3428C14.1937 22.0228 13.0337 22.5628 9.3937 22.5628ZM9.3937 30.1728C8.2037 30.1728 7.1537 29.8028 6.3337 29.1328C5.6337 28.6428 5.0537 28.6728 4.6737 29.0628C4.2537 29.4728 4.2837 30.0828 4.7137 30.5428C5.5637 31.3628 7.4137 32.2228 9.3937 32.2228C11.3937 32.2228 13.2337 31.3628 14.0637 30.5428C14.5037 30.0828 14.5337 29.4728 14.1137 29.0628C13.7237 28.6728 13.1537 28.6428 12.4537 29.1328C11.6437 29.8028 10.5937 30.1728 9.3937 30.1728ZM9.3937 34.9728C6.9837 34.9728 4.7837 34.0828 3.1037 32.5828C2.5137 32.0728 1.9037 32.0328 1.5037 32.4328C1.0437 32.8828 1.0637 33.5328 1.5537 34.0428C3.5937 36.0828 6.4237 37.0228 9.3937 37.0228C12.3737 37.0228 15.2037 36.0828 17.2437 34.0428C17.7237 33.5328 17.7437 32.8828 17.2937 32.4328C16.8837 32.0328 16.2737 32.0728 15.6837 32.5828C14.0037 34.0828 11.8137 34.9728 9.3937 34.9728Z"
        fillRule="evenodd"
        clipRule="evenodd"
    />
</svg>
        