
<svg
    viewBox="0 0 29.586253976022245 27.69921875"
    xmlns="http://www.w3.org/2000/svg"
>
    <path
        fill="inherit"
        d="M16.7303 24.818C20.9003 22.408 22.2303 20.368 20.8403 17.968L15.3403 8.418L15.8003 8.158C16.3203 7.858 16.5203 7.188 16.2103 6.688L15.9703 6.278C15.6703 5.758 15.0303 5.588 14.4903 5.908L14.0303 6.168L12.6603 3.798C11.2203 1.308 8.0903 1.188 4.3303 3.348C4.2403 3.408 4.1603 3.448 4.0703 3.498V0.808C4.0703 0.338 3.7303 -0.002 3.2703 -0.002H2.5403C2.0803 -0.002 1.7403 0.338 1.7403 0.808V5.278C-0.0297 7.038 -0.4897 8.998 0.5503 10.798L1.9103 13.168L1.4503 13.428C0.9003 13.738 0.7503 14.378 1.0403 14.898L1.2703 15.328C1.5603 15.828 2.2103 16.008 2.7503 15.698L3.2103 15.418L8.7103 24.968C10.1203 27.368 12.5503 27.218 16.7303 24.818ZM28.7803 7.408C29.2403 7.408 29.5903 7.068 29.5903 6.608V0.808C29.5903 0.338 29.2403 -0.002 28.7803 -0.002H28.0503C27.5903 -0.002 27.2503 0.338 27.2503 0.808V6.608C27.2503 7.068 27.5903 7.408 28.0503 7.408ZM9.5003 12.308C8.7403 12.758 7.4903 13.578 7.0803 13.818C6.4103 14.208 5.9303 14.118 5.4603 13.428L4.4003 11.938C3.5503 10.708 4.1203 9.718 7.0403 8.038C9.9403 6.358 11.0703 6.358 11.7303 7.728L12.4803 9.378C12.8203 10.108 12.7003 10.568 12.0003 10.948C11.5803 11.228 10.3103 11.838 9.5003 12.308ZM28.7803 17.538C29.2403 17.538 29.5903 17.198 29.5903 16.738V10.948C29.5903 10.498 29.2403 10.158 28.7803 10.158H28.0503C27.5903 10.158 27.2503 10.498 27.2503 10.948V16.738C27.2503 17.198 27.5903 17.538 28.0503 17.538ZM14.7203 21.358C11.8303 23.038 10.6403 23.128 10.0803 21.688L9.7603 20.848C9.3003 19.678 9.9403 18.868 12.4603 17.428C14.9403 15.978 16.0003 15.818 16.7603 16.798L17.3203 17.498C18.2903 18.728 17.6103 19.688 14.7203 21.358ZM3.2703 27.688C3.7303 27.688 4.0703 27.348 4.0703 26.888V21.098C4.0703 20.628 3.7303 20.288 3.2703 20.288H2.5403C2.0803 20.288 1.7403 20.628 1.7403 21.098V26.888C1.7403 27.348 2.0803 27.688 2.5403 27.688ZM28.7803 27.698C29.2403 27.698 29.5903 27.358 29.5903 26.888V21.098C29.5903 20.628 29.2403 20.288 28.7803 20.288H28.0503C27.5903 20.288 27.2503 20.628 27.2503 21.098V26.888C27.2503 27.358 27.5903 27.698 28.0503 27.698Z"
        fillRule="evenodd"
        clipRule="evenodd"
    />
</svg>
        