
<svg
    viewBox={0 0 32.8671875 25.826171875}
    xmlns="http://www.w3.org/2000/svg"
>
    <path
        fill="inherit"
        d="M21.9537 3.591C22.9437 3.591 23.7437 2.791 23.7437 1.801C23.7437 0.821 22.9437 0.001 21.9537 0.001C20.9737 0.001 20.1637 0.821 20.1637 1.801C20.1637 2.791 20.9737 3.591 21.9537 3.591ZM27.7137 8.331C29.1937 8.331 30.3837 7.141 30.3837 5.631C30.3837 4.141 29.1937 2.951 27.7137 2.951C26.2137 2.951 25.0037 4.141 25.0037 5.631C25.0037 7.141 26.2137 8.331 27.7137 8.331ZM6.8937 25.831H24.6937C29.3037 25.831 32.8637 22.341 32.8637 17.881C32.8637 13.381 29.2337 9.991 24.2537 9.991C22.4337 6.381 19.1037 4.181 15.0537 4.181C9.7437 4.181 5.2537 8.301 4.7737 13.751C2.0337 14.531 0.1937 16.831 0.1937 19.731C0.1937 23.101 2.6437 25.831 6.8937 25.831ZM6.8637 23.621C4.0637 23.621 2.3937 22.111 2.3937 19.801C2.3937 17.831 3.6537 16.421 5.8637 15.831C6.6337 15.641 6.9137 15.281 6.9737 14.491C7.3037 9.861 10.7737 6.381 15.0537 6.381C18.3337 6.381 20.8937 8.221 22.4237 11.361C22.7337 12.031 23.1337 12.261 23.9637 12.261C28.2437 12.261 30.6637 14.851 30.6637 17.941C30.6637 21.121 28.1137 23.621 24.8437 23.621ZM1.9137 12.441C2.9637 12.441 3.8137 11.591 3.8137 10.531C3.8137 9.471 2.9637 8.631 1.9137 8.631C0.8437 8.631 0.0037 9.471 0.0037 10.531C0.0037 11.591 0.8437 12.441 1.9137 12.441ZM12.9337 21.111C14.7237 21.111 15.8037 19.821 15.8637 18.431C15.8737 17.951 15.5837 17.621 15.1437 17.621C14.7337 17.621 14.5337 17.851 14.4237 18.321C14.2737 19.021 13.8637 19.751 12.9337 19.751C11.5837 19.751 11.1537 18.311 11.1537 16.731C11.1537 15.261 11.6037 13.771 12.9237 13.771C13.8537 13.771 14.2237 14.491 14.3837 15.191C14.4937 15.651 14.6937 15.891 15.1037 15.891C15.5437 15.891 15.8337 15.571 15.8137 15.081C15.7637 13.681 14.6837 12.411 12.8937 12.411C10.6637 12.411 9.6537 14.351 9.6537 16.731C9.6537 19.071 10.5637 21.111 12.9337 21.111ZM19.5537 21.111C21.5337 21.111 22.7937 19.411 22.7937 16.761C22.7937 14.091 21.5337 12.411 19.5537 12.411C17.5537 12.411 16.2837 14.091 16.2837 16.761C16.2837 19.411 17.5537 21.111 19.5537 21.111ZM19.5537 19.751C18.4737 19.751 17.8037 18.651 17.8037 16.761C17.8037 14.871 18.4737 13.771 19.5537 13.771C20.6137 13.771 21.2837 14.871 21.2837 16.761C21.2837 18.651 20.6137 19.751 19.5537 19.751Z"
        fillRule="evenodd"
        clipRule="evenodd"
    />
</svg>
        