
<svg
    viewBox="0 0 32.8671875 25.826171875"
    xmlns="http://www.w3.org/2000/svg"
>
    <path
        fill="inherit"
        d="M21.9537 3.591C22.9437 3.591 23.7437 2.791 23.7437 1.801C23.7437 0.821 22.9437 0.001 21.9537 0.001C20.9737 0.001 20.1637 0.821 20.1637 1.801C20.1637 2.791 20.9737 3.591 21.9537 3.591ZM27.7137 8.331C29.1937 8.331 30.3837 7.141 30.3837 5.631C30.3837 4.141 29.1937 2.951 27.7137 2.951C26.2137 2.951 25.0037 4.141 25.0037 5.631C25.0037 7.141 26.2137 8.331 27.7137 8.331ZM6.8937 25.831H24.6937C29.3037 25.831 32.8637 22.341 32.8637 17.881C32.8637 13.381 29.2337 9.991 24.2537 9.991C22.4337 6.381 19.1037 4.181 15.0537 4.181C9.7437 4.181 5.2537 8.301 4.7737 13.751C2.0337 14.531 0.1937 16.831 0.1937 19.731C0.1937 23.101 2.6437 25.831 6.8937 25.831ZM6.8637 23.621C4.0637 23.621 2.3937 22.111 2.3937 19.801C2.3937 17.831 3.6537 16.421 5.8637 15.831C6.6337 15.641 6.9137 15.281 6.9737 14.491C7.3037 9.861 10.7737 6.381 15.0537 6.381C18.3337 6.381 20.8937 8.221 22.4237 11.361C22.7337 12.031 23.1337 12.261 23.9637 12.261C28.2437 12.261 30.6637 14.851 30.6637 17.941C30.6637 21.121 28.1137 23.621 24.8437 23.621ZM1.9137 12.441C2.9637 12.441 3.8137 11.591 3.8137 10.531C3.8137 9.471 2.9637 8.631 1.9137 8.631C0.8437 8.631 0.0037 9.471 0.0037 10.531C0.0037 11.591 0.8437 12.441 1.9137 12.441ZM12.0337 21.111C13.8037 21.111 14.9037 19.821 14.9437 18.431C14.9537 17.951 14.6737 17.621 14.2437 17.621C13.8337 17.621 13.6137 17.851 13.5037 18.321C13.3537 19.021 12.9637 19.751 12.0337 19.751C10.6637 19.751 10.2437 18.311 10.2437 16.731C10.2437 15.261 10.6937 13.771 12.0137 13.771C12.9437 13.771 13.3137 14.491 13.4637 15.191C13.5737 15.651 13.7937 15.891 14.2037 15.891C14.6337 15.891 14.9137 15.571 14.9037 15.081C14.8637 13.681 13.7637 12.411 11.9937 12.411C9.7437 12.411 8.7337 14.351 8.7337 16.731C8.7337 19.071 9.6637 21.111 12.0337 21.111ZM18.6437 21.111C20.6337 21.111 21.8737 19.411 21.8737 16.761C21.8737 14.091 20.6337 12.411 18.6337 12.411C16.6437 12.411 15.3837 14.091 15.3837 16.761C15.3837 19.411 16.6437 21.111 18.6437 21.111ZM18.6437 19.751C17.5537 19.751 16.8837 18.651 16.8837 16.761C16.8837 14.871 17.5537 13.771 18.6337 13.771C19.7137 13.771 20.3837 14.871 20.3837 16.761C20.3837 18.651 19.7137 19.751 18.6437 19.751ZM22.7937 21.661H25.0037C25.2837 21.661 25.4937 21.411 25.4937 21.141C25.4937 20.881 25.2637 20.641 25.0037 20.641H23.9537L24.3937 20.181C24.9337 19.651 25.3237 19.141 25.3237 18.591C25.3237 17.831 24.6937 17.271 23.8137 17.271C22.8837 17.271 22.3137 17.961 22.3137 18.551C22.3137 18.891 22.5537 19.101 22.8337 19.101C23.1637 19.101 23.3137 18.871 23.3937 18.671C23.4737 18.411 23.6137 18.281 23.8337 18.281C24.0337 18.281 24.1837 18.431 24.1837 18.621C24.1837 18.931 23.8837 19.291 23.5837 19.591L22.5337 20.671C22.4037 20.791 22.3237 21.001 22.3237 21.161C22.3237 21.441 22.5337 21.661 22.7937 21.661Z"
        fillRule="evenodd"
        clipRule="evenodd"
    />
</svg>
        