
<svg
    viewBox="0 0 32.8671875 25.826171875"
    xmlns="http://www.w3.org/2000/svg"
>
    <path
        fill="inherit"
        d="M21.9537 3.591C22.9437 3.591 23.7437 2.791 23.7437 1.801C23.7437 0.821 22.9437 0.001 21.9537 0.001C20.9737 0.001 20.1637 0.821 20.1637 1.801C20.1637 2.791 20.9737 3.591 21.9537 3.591ZM27.7137 8.331C29.1937 8.331 30.3837 7.141 30.3837 5.631C30.3837 4.141 29.1937 2.951 27.7137 2.951C26.2137 2.951 25.0037 4.141 25.0037 5.631C25.0037 7.141 26.2137 8.331 27.7137 8.331ZM6.8937 25.831H24.6937C29.3037 25.831 32.8637 22.341 32.8637 17.881C32.8637 13.381 29.2337 9.991 24.2537 9.991C22.4337 6.381 19.1037 4.181 15.0537 4.181C9.7437 4.181 5.2537 8.301 4.7737 13.751C2.0337 14.531 0.1937 16.831 0.1937 19.731C0.1937 23.101 2.6437 25.831 6.8937 25.831ZM1.9137 12.441C2.9637 12.441 3.8137 11.591 3.8137 10.531C3.8137 9.471 2.9637 8.631 1.9137 8.631C0.8437 8.631 0.0037 9.471 0.0037 10.531C0.0037 11.591 0.8437 12.441 1.9137 12.441ZM11.7337 21.251C9.2937 21.251 8.3437 19.141 8.3437 16.731C8.3437 14.291 9.3837 12.281 11.6937 12.281C13.5237 12.281 14.6537 13.591 14.6937 15.021C14.7137 15.531 14.4137 15.861 13.9737 15.861C13.5537 15.861 13.3337 15.631 13.2037 15.131C13.0537 14.421 12.6737 13.681 11.7137 13.681C10.3637 13.681 9.8937 15.221 9.8937 16.731C9.8937 18.351 10.3337 19.841 11.7337 19.841C12.6837 19.841 13.0937 19.081 13.2437 18.371C13.3737 17.881 13.5937 17.651 14.0137 17.651C14.4537 17.651 14.7537 17.991 14.7337 18.481C14.6937 19.921 13.5637 21.251 11.7337 21.251ZM18.6937 21.251C16.6237 21.251 15.3237 19.501 15.3237 16.761C15.3237 14.011 16.6237 12.281 18.6737 12.281C20.7437 12.281 22.0237 14.011 22.0237 16.761C22.0237 19.501 20.7437 21.251 18.6937 21.251ZM18.6937 19.841C19.7937 19.841 20.4837 18.701 20.4837 16.761C20.4837 14.821 19.7937 13.681 18.6737 13.681C17.5637 13.681 16.8837 14.821 16.8837 16.761C16.8837 18.701 17.5637 19.841 18.6937 19.841ZM23.1037 21.781C22.8337 21.781 22.6237 21.561 22.6237 21.271C22.6237 21.111 22.7137 20.891 22.8337 20.771L23.9237 19.661C24.2237 19.341 24.5437 18.981 24.5437 18.661C24.5437 18.461 24.3937 18.311 24.1737 18.311C23.9537 18.311 23.8137 18.441 23.7337 18.721C23.6437 18.911 23.4837 19.151 23.1437 19.151C22.8637 19.151 22.6137 18.931 22.6137 18.581C22.6137 17.981 23.2037 17.251 24.1537 17.251C25.0637 17.251 25.7137 17.841 25.7137 18.631C25.7137 19.191 25.3237 19.711 24.7637 20.261L24.3037 20.741H25.3937C25.6637 20.741 25.8937 20.991 25.8937 21.251C25.8937 21.531 25.6737 21.781 25.3937 21.781Z"
        fillRule="evenodd"
        clipRule="evenodd"
    />
</svg>
        