
<svg
    viewBox="0 0 31.46873318247074 31.383984203078256"
    xmlns="http://www.w3.org/2000/svg"
>
    <path
        fill="inherit"
        d="M0.7959 30.6009C1.4859 31.3209 2.5559 31.7709 3.8859 30.9309L10.7459 26.6409L9.1059 25.0109C8.7359 24.6409 8.7359 24.1009 9.0959 23.7409C9.4459 23.3909 9.9959 23.3709 10.3659 23.7409L12.3059 25.6609L13.8359 24.6809L11.5359 22.4709C11.1659 22.1009 11.1859 21.5509 11.5259 21.2009C11.8959 20.8409 12.4459 20.8309 12.7959 21.1809L15.3959 23.7309L22.0659 19.5209C26.2259 16.9109 27.3459 13.0009 25.0459 9.6609C27.8359 10.0409 31.8959 9.1409 31.4359 7.1809C31.1559 6.0209 29.6459 5.9009 27.9559 6.3109C29.9659 4.6709 31.3259 2.5809 30.1059 1.3509C28.8859 0.1309 26.7959 1.4809 25.1559 3.4909C25.5659 1.8309 25.4459 0.3209 24.3059 0.0309C22.3359 -0.4191 21.4359 3.5609 21.7959 6.3509C18.9659 4.3309 15.6159 4.8709 13.0659 7.7509L16.7059 11.3309C17.0759 11.7009 17.0759 12.2309 16.7359 12.5909C16.3759 12.9509 15.8359 12.9709 15.4659 12.6009L11.9659 9.1809L11.0059 10.6809L13.6159 13.2409C13.9859 13.6109 13.9859 14.1709 13.6359 14.5109C13.2659 14.8709 12.7259 14.8809 12.3559 14.5109L10.0359 12.2609L0.4359 27.4709C-0.3241 28.7009 -0.0141 29.8009 0.7959 30.6009Z"
        fillRule="evenodd"
        clipRule="evenodd"
    />
</svg>
        