<svg viewBox="0 0 30.689086187999038 28.943359375" xmlns="http://www.w3.org/2000/svg"><path d="M0.2305 23.1296C1.4305 27.5896 2.6805 28.9396 5.4905 28.9396H21.4505C23.4705 28.9396 24.8205 27.8496 25.3305 25.7996L30.4705 4.9396C31.3005 1.5296 29.6105 -0.0004 27.6405 -0.0004C25.2905 -0.0004 22.7305 2.2796 23.4405 6.0596C20.0105 8.2896 18.3905 12.7296 18.8605 18.0996C16.1305 17.5696 12.7105 17.2696 9.4005 17.2696C2.0905 17.2696 -0.8895 19.0496 0.2305 23.1296ZM7.7805 12.9496C8.4305 12.9496 8.8005 12.5396 8.8005 11.8096V2.1696C8.8005 1.4396 8.4205 1.0396 7.7305 1.0396C7.2405 1.0396 6.9305 1.1496 6.3905 1.5496L4.0605 3.1196C3.7705 3.3096 3.6705 3.5096 3.6705 3.8096C3.6705 4.2096 4.0005 4.5496 4.3705 4.5496C4.5605 4.5496 4.7105 4.5296 5.0105 4.2896L6.6705 3.2096H6.8005V11.8096C6.8005 12.5196 7.1705 12.9496 7.7805 12.9496Z" /></svg>