
<svg
    viewBox={0 0 30.945119618324398 28.95703125}
    xmlns="http://www.w3.org/2000/svg"
>
    <path
        fill="inherit"
        d="M30.7189 23.1433C31.8389 19.0633 28.8589 17.2833 21.5389 17.2833C18.3589 17.2833 15.1389 17.5233 12.3289 17.9833C12.5189 12.8633 11.0289 8.6033 8.3189 6.3433C8.9389 2.5933 6.4889 0.0033 3.5189 0.0033C0.8689 0.0033 -0.5511 1.9133 0.1989 4.9533L5.3389 25.8133C5.8489 27.8633 7.1989 28.9533 9.2089 28.9533H25.4489C28.2689 28.9533 29.5089 27.6033 30.7189 23.1433ZM15.8989 9.1633C15.8989 11.1733 17.7289 13.1933 19.4189 13.1933C20.9789 13.1933 21.7789 11.8033 22.7089 9.3233L23.0589 9.2533V11.9233C23.0589 13.0733 23.6589 13.6533 24.7689 13.6533C26.7689 13.6533 28.7889 11.8433 28.7889 10.1333C28.7889 8.5633 27.3889 7.7833 24.9089 6.8533L24.8489 6.4933H27.5189C28.6689 6.4933 29.2389 5.9033 29.2389 4.8033C29.2389 2.7933 27.4389 0.7533 25.7289 0.7533C24.1489 0.7533 23.3789 2.1733 22.4289 4.6633L22.0889 4.7033V2.0333C22.0889 0.9033 21.4989 0.3033 20.3889 0.3033C18.3889 0.3033 16.3489 2.1333 16.3489 3.8233C16.3489 5.4033 17.7689 6.1833 20.2589 7.1133L20.2889 7.4633H17.6289C16.4989 7.4633 15.8989 8.0633 15.8989 9.1633ZM28.6089 22.5633C27.6089 26.2633 26.9789 26.7533 25.4489 26.7533H9.2089C8.3089 26.7533 7.7189 26.2333 7.4889 25.2833L2.3089 4.3733C1.9789 3.0333 2.5289 2.2033 3.5389 2.2033C5.0989 2.2033 6.5189 3.6233 6.1389 6.1933C5.9989 7.1233 6.0889 7.3933 6.6089 7.8233C9.0189 9.6133 10.3689 13.7533 10.2589 18.8933C10.2589 19.7333 10.7789 20.2633 11.6189 20.2433C13.1789 20.1433 16.6789 19.4833 21.5389 19.4833C27.5489 19.4833 29.1989 20.3733 28.6089 22.5633ZM22.5689 8.3533C21.8189 8.3533 21.1989 7.7333 21.1989 6.9733C21.1989 6.2233 21.8189 5.6033 22.5689 5.6033C23.3189 5.6033 23.9389 6.2233 23.9389 6.9733C23.9389 7.7333 23.3189 8.3533 22.5689 8.3533Z"
        fillRule="evenodd"
        clipRule="evenodd"
    />
</svg>
        