<svg viewBox="0 0 39.11381410378665 28.95703125" xmlns="http://www.w3.org/2000/svg"><path d="M38.8854 23.1433C40.0054 19.0633 37.0254 17.2833 29.7154 17.2833C26.5254 17.2833 23.3154 17.5233 20.4954 17.9833C20.6854 12.8633 19.1954 8.6033 16.4854 6.3433C17.1054 2.5933 14.6554 0.0033 11.6954 0.0033C9.0354 0.0033 7.6054 1.9133 8.3654 4.9533L13.5054 25.8133C14.0154 27.8633 15.3654 28.9533 17.3754 28.9533H33.6254C36.4354 28.9533 37.6854 27.6033 38.8854 23.1433ZM22.0854 8.5033C22.2754 9.2333 22.9254 9.3633 23.4454 8.8233L27.3854 4.7133C27.8954 4.1933 27.7054 3.5033 27.0154 3.2933L21.5454 1.6533C20.8354 1.4333 20.3454 1.9133 20.5354 2.6133ZM36.7754 22.5633C35.7654 26.2633 35.1354 26.7533 33.6254 26.7533H17.3754C16.4754 26.7533 15.8854 26.2333 15.6454 25.2833L10.4754 4.3733C10.1454 3.0333 10.6954 2.2033 11.7054 2.2033C13.2654 2.2033 14.6854 3.6233 14.3054 6.1933C14.1654 7.1233 14.2654 7.3933 14.7854 7.8233C17.1854 9.6133 18.5254 13.7533 18.4354 18.8933C18.4354 19.7333 18.9554 20.2633 19.7854 20.2433C21.3454 20.1433 24.8454 19.4833 29.7154 19.4833C35.7154 19.4833 37.3654 20.3733 36.7754 22.5633ZM7.1354 13.3833L5.5954 7.5033C5.4054 6.7933 4.7354 6.6133 4.2154 7.1633L0.2854 11.2933C-0.2146 11.8033 -0.0346 12.5133 0.6754 12.7133L6.0954 14.3433C6.8354 14.5633 7.3254 14.0933 7.1354 13.3833Z" /></svg>