
<svg
    viewBox="0 0 30.945119618324398 37.60796710833793"
    xmlns="http://www.w3.org/2000/svg"
>
    <path
        fill="inherit"
        d="M30.7189 23.143C31.8389 19.063 28.8589 17.283 21.5389 17.283C18.3589 17.283 15.1389 17.513 12.3289 17.983C12.5189 12.863 11.0289 8.603 8.3189 6.343C8.9389 2.593 6.4889 0.003 3.5189 0.003C0.8689 0.003 -0.5511 1.913 0.1989 4.933L5.3389 25.803C5.8489 27.863 7.1989 28.953 9.2089 28.953H25.4489C28.2689 28.953 29.5089 27.603 30.7189 23.143ZM28.6089 22.563C27.6089 26.263 26.9789 26.753 25.4489 26.753H9.2089C8.3089 26.753 7.7189 26.233 7.4889 25.263L2.3089 4.363C1.9789 3.023 2.5289 2.203 3.5389 2.203C5.0989 2.203 6.5189 3.623 6.1389 6.183C5.9989 7.123 6.0889 7.383 6.6089 7.803C9.0189 9.593 10.3689 13.753 10.2589 18.893C10.2589 19.733 10.7789 20.263 11.6189 20.253C13.1789 20.143 16.6789 19.483 21.5389 19.483C27.5489 19.483 29.1989 20.353 28.6089 22.563ZM23.5089 15.203C24.2489 15.203 24.5589 14.613 24.1689 13.973L21.2189 9.123C20.8289 8.493 20.1089 8.503 19.7389 9.123L16.7589 13.973C16.3589 14.613 16.6989 15.203 17.4289 15.203ZM23.5089 31.053H17.4289C16.6989 31.053 16.3589 31.653 16.7589 32.293L19.7389 37.143C20.1089 37.753 20.8189 37.773 21.2189 37.143L24.1689 32.293C24.5489 31.653 24.2489 31.053 23.5089 31.053Z"
        fillRule="evenodd"
        clipRule="evenodd"
    />
</svg>
        