
<svg
    viewBox={0 0 30.94503997721202 31.13518465255838}
    xmlns="http://www.w3.org/2000/svg"
>
    <path
        fill="inherit"
        d="M19.7805 4.7714C19.5905 3.3414 20.2305 2.0014 21.4705 1.4214C21.8705 1.2214 21.9505 0.8214 21.8305 0.4714C21.6805 0.1014 21.2605 -0.1586 20.7205 0.1114C19.0405 0.9514 18.0305 3.0514 18.3305 5.1014C18.4105 5.5814 18.8905 5.8114 19.3405 5.6614C19.7105 5.5114 19.8605 5.1814 19.7805 4.7714ZM0.2305 25.3214C1.4305 29.7814 2.6805 31.1314 5.4905 31.1314H21.7205C23.7405 31.1314 25.1005 30.0414 25.6005 27.9914L30.7405 7.1314C31.5005 4.0914 30.0705 2.1814 27.4105 2.1814C24.4405 2.1814 22.0105 4.7714 22.6205 8.5214C19.9205 10.7814 18.4305 15.0414 18.6205 20.1614C15.8005 19.7014 12.5905 19.4614 9.4005 19.4614C2.0905 19.4614 -0.8895 21.2414 0.2305 25.3214ZM2.3305 24.7414C1.7305 22.5514 3.4005 21.6614 9.4005 21.6614C14.2705 21.6614 17.7705 22.3214 19.3305 22.4214C20.1605 22.4414 20.6805 21.9114 20.6705 21.0714C20.5705 15.9314 21.9305 11.7914 24.3205 10.0014C24.8405 9.5714 24.9505 9.3014 24.8005 8.3714C24.4305 5.8014 25.8505 4.3814 27.4105 4.3814C28.4205 4.3814 28.9705 5.2114 28.6405 6.5514L23.4605 27.4614C23.2205 28.4114 22.6405 28.9314 21.7205 28.9314H5.4905C3.9605 28.9314 3.3305 28.4414 2.3305 24.7414ZM16.0305 15.2114C15.4905 13.2114 16.1605 10.4314 18.5605 9.1514C19.0505 8.8914 19.1105 8.4214 18.9305 8.1014C18.7505 7.7814 18.3605 7.5914 17.8405 7.8414C14.9805 9.1914 13.8905 13.0214 14.5805 15.6314C14.7105 16.0914 15.1905 16.2714 15.5505 16.1814C15.9105 16.0814 16.1805 15.7414 16.0305 15.2114Z"
        fillRule="evenodd"
        clipRule="evenodd"
    />
</svg>
        