
<svg
    viewBox={0 0 30.68974449281546 28.943359375}
    xmlns="http://www.w3.org/2000/svg"
>
    <path
        fill="inherit"
        d="M30.4626 23.1296C31.5826 19.0496 28.6126 17.2696 21.2826 17.2696C17.9926 17.2696 14.5626 17.5696 11.8226 18.0996C12.3026 12.7296 10.6726 8.2896 7.2426 6.0596C7.9526 2.2796 5.4026 -0.0004 3.0526 -0.0004C1.0826 -0.0004 -0.6174 1.5296 0.2226 4.9396L5.3626 25.7996C5.8626 27.8496 7.2226 28.9396 9.2426 28.9396H25.1926C28.0126 28.9396 29.2526 27.5896 30.4626 23.1296ZM15.9026 9.1496C15.9026 11.1596 17.7326 13.1796 19.4226 13.1796C20.9826 13.1796 21.7826 11.7896 22.7126 9.3096L23.0626 9.2396V11.9096C23.0626 13.0596 23.6626 13.6396 24.7726 13.6396C26.7726 13.6396 28.7926 11.8296 28.7926 10.1196C28.7926 8.5496 27.3926 7.7696 24.9126 6.8396L24.8526 6.4796H27.5226C28.6726 6.4796 29.2426 5.8896 29.2426 4.7896C29.2426 2.7796 27.4426 0.7396 25.7326 0.7396C24.1526 0.7396 23.3826 2.1596 22.4326 4.6496L22.0926 4.6896V2.0196C22.0926 0.8896 21.5026 0.2896 20.3926 0.2896C18.3926 0.2896 16.3526 2.1196 16.3526 3.8096C16.3526 5.3896 17.7726 6.1696 20.2626 7.0996L20.2926 7.4496H17.6326C16.5026 7.4496 15.9026 8.0496 15.9026 9.1496ZM22.5726 8.3396C21.8226 8.3396 21.2026 7.7196 21.2026 6.9596C21.2026 6.2096 21.8226 5.5896 22.5726 5.5896C23.3226 5.5896 23.9426 6.2096 23.9426 6.9596C23.9426 7.7196 23.3226 8.3396 22.5726 8.3396Z"
        fillRule="evenodd"
        clipRule="evenodd"
    />
</svg>
        