<svg viewBox="0 0 30.689086187999038 28.943359375" xmlns="http://www.w3.org/2000/svg"><path d="M0.2305 23.1296C1.4305 27.5896 2.6805 28.9396 5.4905 28.9396H21.4505C23.4705 28.9396 24.8205 27.8496 25.3305 25.7996L30.4705 4.9396C31.3005 1.5296 29.6105 -0.0004 27.6405 -0.0004C25.2905 -0.0004 22.7305 2.2796 23.4405 6.0596C20.0105 8.2896 18.3905 12.7296 18.8605 18.0996C16.1305 17.5696 12.7105 17.2696 9.4005 17.2696C2.0905 17.2696 -0.8895 19.0496 0.2305 23.1296ZM6.5705 12.4996C9.0605 12.4996 10.7405 11.1796 10.7405 9.2196C10.7405 7.8096 9.6905 6.6896 8.2405 6.5096C9.4205 6.3196 10.3605 5.2196 10.3605 3.9496C10.3605 2.2696 8.8305 1.0396 6.6705 1.0396C4.7105 1.0396 3.2405 1.9596 2.8905 3.4196C2.8505 3.5796 2.8405 3.6896 2.8405 3.8996C2.8405 4.3596 3.1805 4.6996 3.7005 4.6996C4.1305 4.6996 4.4005 4.4996 4.5505 4.0596C4.8205 3.1396 5.6005 2.6296 6.6405 2.6296C7.7905 2.6296 8.5305 3.1996 8.5305 4.1396C8.5305 5.1096 7.6905 5.8196 6.5905 5.8196H5.8305C5.4005 5.8196 5.0505 6.1396 5.0505 6.5896C5.0505 7.0396 5.3805 7.3696 5.8305 7.3696H6.6705C7.9905 7.3696 8.9105 8.0796 8.9105 9.1496C8.9105 10.1896 7.9805 10.8996 6.6005 10.8996C5.4705 10.8996 4.6605 10.3896 4.3305 9.4596C4.1705 9.0396 3.8905 8.8496 3.4805 8.8496C2.9805 8.8496 2.6205 9.1896 2.6205 9.6796C2.6205 9.8596 2.6405 9.9396 2.6805 10.0996C2.9905 11.5096 4.6205 12.4996 6.5705 12.4996Z" /></svg>