
<svg
    viewBox="0 0 39.100142228786666 28.943359375"
    xmlns="http://www.w3.org/2000/svg"
>
    <path
        fill="inherit"
        d="M0.2305 23.1296C1.4305 27.5896 2.6805 28.9396 5.4905 28.9396H21.4505C23.4705 28.9396 24.8205 27.8496 25.3305 25.7996L30.4705 4.9396C31.3005 1.5296 29.6105 -0.0004 27.6405 -0.0004C25.2905 -0.0004 22.7305 2.2796 23.4405 6.0596C20.0105 8.2896 18.3905 12.7296 18.8605 18.0996C16.1305 17.5696 12.7105 17.2696 9.4005 17.2696C2.0905 17.2696 -0.8895 19.0496 0.2305 23.1296ZM17.0205 8.4896L18.5605 2.5996C18.7505 1.8996 18.2605 1.4196 17.5505 1.6396L12.0805 3.2796C11.4005 3.4896 11.2105 4.1796 11.7105 4.6996L15.6505 8.8096C16.1705 9.3496 16.8305 9.2196 17.0205 8.4896ZM31.9605 13.3696C31.7705 14.0796 32.2605 14.5496 33.0005 14.3296L38.4305 12.6996C39.1405 12.4996 39.3205 11.7896 38.8105 11.2796L34.8905 7.1496C34.3705 6.5996 33.7005 6.7796 33.5105 7.4896Z"
        fillRule="evenodd"
        clipRule="evenodd"
    />
</svg>
        