
<svg
    viewBox="0 0 30.945119618324398 31.135184652558387"
    xmlns="http://www.w3.org/2000/svg"
>
    <path
        fill="inherit"
        d="M11.1489 4.7714C11.0689 5.1814 11.2289 5.5114 11.5989 5.6614C12.0489 5.8114 12.5189 5.5814 12.5989 5.1014C12.8989 3.0514 11.8889 0.9514 10.2089 0.1114C9.6789 -0.1586 9.2489 0.1014 9.0989 0.4714C8.9789 0.8214 9.0689 1.2214 9.4589 1.4214C10.6989 2.0014 11.3389 3.3414 11.1489 4.7714ZM30.7189 25.3214C31.8389 21.2414 28.8589 19.4614 21.5389 19.4614C18.3589 19.4614 15.1389 19.7014 12.3289 20.1614C12.5189 15.0414 11.0289 10.7814 8.3189 8.5214C8.9389 4.7714 6.4889 2.1814 3.5189 2.1814C0.8689 2.1814 -0.5511 4.0914 0.1989 7.1314L5.3389 27.9914C5.8489 30.0414 7.1989 31.1314 9.2089 31.1314H25.4489C28.2689 31.1314 29.5089 29.7814 30.7189 25.3214ZM28.6089 24.7414C27.6089 28.4414 26.9789 28.9314 25.4489 28.9314H9.2089C8.3089 28.9314 7.7189 28.4114 7.4889 27.4614L2.3089 6.5514C1.9789 5.2114 2.5289 4.3814 3.5389 4.3814C5.0989 4.3814 6.5189 5.8014 6.1389 8.3714C5.9989 9.3014 6.0889 9.5714 6.6089 10.0014C9.0189 11.7914 10.3689 15.9314 10.2589 21.0714C10.2589 21.9114 10.7789 22.4414 11.6189 22.4214C13.1789 22.3214 16.6789 21.6614 21.5389 21.6614C27.5489 21.6614 29.1989 22.5514 28.6089 24.7414ZM14.8989 15.2114C14.7489 15.7414 15.0189 16.0814 15.3789 16.1814C15.7589 16.2714 16.2189 16.0914 16.3489 15.6314C17.0489 13.0214 15.9489 9.1914 13.0889 7.8414C12.5689 7.5914 12.1789 7.7814 11.9989 8.1014C11.8189 8.4214 11.8789 8.8914 12.3689 9.1514C14.7889 10.4314 15.4489 13.2114 14.8989 15.2114Z"
        fillRule="evenodd"
        clipRule="evenodd"
    />
</svg>
        