
<svg
    viewBox="0 0 30.68974449281546 39.2878906918079"
    xmlns="http://www.w3.org/2000/svg"
>
    <path
        fill="inherit"
        d="M30.4626 23.137C31.5826 19.047 28.6126 17.267 21.2826 17.267C17.9926 17.267 14.5626 17.567 11.8226 18.097C12.3026 12.727 10.6726 8.287 7.2426 6.057C7.9526 2.287 5.4026 -0.003 3.0526 -0.003C1.0826 -0.003 -0.6174 1.547 0.2226 4.937L5.3626 25.797C5.8626 27.847 7.2226 28.957 9.2426 28.957H25.1926C28.0126 28.957 29.2526 27.587 30.4626 23.137ZM20.7826 38.457C20.7826 39.197 21.3726 39.507 22.0126 39.117L26.8626 36.167C27.4926 35.777 27.4826 35.057 26.8626 34.687L22.0126 31.707C21.3726 31.307 20.7826 31.647 20.7826 32.377ZM13.6826 38.457V32.377C13.6826 31.647 13.0926 31.307 12.4526 31.707L7.5826 34.687C6.9826 35.057 6.9726 35.777 7.5826 36.167L12.4426 39.117C13.0826 39.507 13.6826 39.197 13.6826 38.457Z"
        fillRule="evenodd"
        clipRule="evenodd"
    />
</svg>
        