<svg viewBox="0 0 30.68974449281546 28.943359375" xmlns="http://www.w3.org/2000/svg"><path d="M30.4626 23.1296C31.5826 19.0496 28.6126 17.2696 21.2826 17.2696C17.9926 17.2696 14.5626 17.5696 11.8226 18.0996C12.3026 12.7296 10.6726 8.2896 7.2426 6.0596C7.9526 2.2796 5.4026 -0.0004 3.0526 -0.0004C1.0826 -0.0004 -0.6174 1.5296 0.2226 4.9396L5.3626 25.7996C5.8626 27.8496 7.2226 28.9396 9.2426 28.9396H25.1926C28.0126 28.9396 29.2526 27.5896 30.4626 23.1296ZM24.1726 12.4996C26.6626 12.4996 28.3426 11.1796 28.3426 9.2196C28.3426 7.8096 27.2926 6.6896 25.8426 6.5096C27.0126 6.3196 27.9626 5.2196 27.9626 3.9496C27.9626 2.2696 26.4126 1.0396 24.2626 1.0396C22.3126 1.0396 20.8326 1.9596 20.4826 3.4196C20.4526 3.5796 20.4426 3.6896 20.4426 3.8996C20.4426 4.3596 20.7826 4.6996 21.2826 4.6996C21.7226 4.6996 21.9926 4.4996 22.1426 4.0596C22.4026 3.1396 23.1826 2.6296 24.2426 2.6296C25.3926 2.6296 26.1226 3.1996 26.1226 4.1396C26.1226 5.1096 25.2926 5.8196 24.1826 5.8196H23.4326C22.9926 5.8196 22.6526 6.1396 22.6526 6.5896C22.6526 7.0396 22.9826 7.3696 23.4326 7.3696H24.2626C25.5926 7.3696 26.5126 8.0796 26.5126 9.1496C26.5126 10.1896 25.5826 10.8996 24.2026 10.8996C23.0626 10.8996 22.2426 10.3896 21.9326 9.4596C21.7526 9.0396 21.4926 8.8496 21.0626 8.8496C20.5726 8.8496 20.2226 9.1896 20.2226 9.6796C20.2226 9.8596 20.2326 9.9396 20.2626 10.0996C20.5926 11.5096 22.2026 12.4996 24.1726 12.4996Z" /></svg>