
<svg
    viewBox={0 0 30.689086187999038 31.13518465255838}
    xmlns="http://www.w3.org/2000/svg"
>
    <path
        fill="inherit"
        d="M19.7805 4.7714C19.5905 3.3414 20.2305 2.0014 21.4705 1.4214C21.8705 1.2214 21.9505 0.8214 21.8305 0.4714C21.6805 0.1014 21.2605 -0.1586 20.7205 0.1114C19.0405 0.9514 18.0305 3.0514 18.3305 5.1014C18.4105 5.5814 18.8905 5.8114 19.3405 5.6614C19.7105 5.5114 19.8605 5.1814 19.7805 4.7714ZM0.2305 25.3214C1.4305 29.7814 2.6805 31.1314 5.4905 31.1314H21.4505C23.4705 31.1314 24.8205 30.0414 25.3305 27.9914L30.4705 7.1314C31.3005 3.7214 29.6105 2.1914 27.6405 2.1914C25.2905 2.1914 22.7305 4.4714 23.4405 8.2514C20.0105 10.4814 18.3905 14.9214 18.8605 20.2914C16.1305 19.7614 12.7105 19.4614 9.4005 19.4614C2.0905 19.4614 -0.8895 21.2414 0.2305 25.3214ZM16.0305 15.2114C15.4905 13.2114 16.1605 10.4314 18.5605 9.1514C19.0505 8.8914 19.1105 8.4214 18.9305 8.1014C18.7505 7.7814 18.3605 7.5914 17.8405 7.8414C14.9805 9.1914 13.8905 13.0214 14.5805 15.6314C14.7105 16.0914 15.1905 16.2714 15.5505 16.1814C15.9105 16.0814 16.1805 15.7414 16.0305 15.2114Z"
        fillRule="evenodd"
        clipRule="evenodd"
    />
</svg>
        