<svg viewBox="0 0 30.945983773510143 28.95703125" xmlns="http://www.w3.org/2000/svg"><path d="M0.2314 23.1433C1.4314 27.6033 2.6814 28.9533 5.4914 28.9533H21.7214C23.7414 28.9533 25.1014 27.8633 25.6014 25.8133L30.7414 4.9533C31.5014 1.9133 30.0714 0.0033 27.4114 0.0033C24.4414 0.0033 22.0114 2.5933 22.6214 6.3433C19.9214 8.6033 18.4314 12.8633 18.6214 17.9833C17.6714 17.8233 16.6914 17.6933 15.6814 17.5933C16.0514 17.0033 16.3814 16.3533 16.3814 15.5333C16.3814 13.7433 14.7614 12.7433 14.7614 11.5133C14.7614 10.8233 14.9414 10.4433 15.4014 9.8333C16.0614 8.9533 14.8414 8.0833 14.1714 8.9233C13.5314 9.7433 13.2414 10.5033 13.2414 11.4133C13.2414 13.2733 14.8314 14.1933 14.8314 15.5333C14.8314 16.2133 14.4114 16.7933 14.0014 17.4433C13.1614 17.3933 12.3114 17.3333 11.4714 17.3133C11.7514 16.8033 12.0014 16.2333 12.0014 15.5333C12.0014 13.7433 10.3914 12.7433 10.3914 11.5133C10.3914 10.8233 10.5614 10.4433 11.0314 9.8333C11.6714 8.9533 10.4614 8.0833 9.8014 8.9233C9.1414 9.7433 8.8714 10.5033 8.8714 11.4133C8.8714 13.2733 10.4614 14.1933 10.4614 15.5333C10.4614 16.1633 10.1014 16.6933 9.7314 17.2833C9.6214 17.2833 9.5114 17.2833 9.4014 17.2833C8.5714 17.2833 7.7914 17.3133 7.0614 17.3533C7.3714 16.8333 7.6114 16.2433 7.6114 15.5333C7.6114 13.7433 6.0014 12.7433 6.0014 11.5133C6.0014 10.8233 6.1814 10.4433 6.6414 9.8333C7.3014 8.9533 6.0814 8.0833 5.4114 8.9233C4.7714 9.7433 4.4814 10.5033 4.4814 11.4133C4.4814 13.2733 6.0714 14.1933 6.0714 15.5333C6.0714 16.2533 5.6014 16.8533 5.1814 17.5433C0.9714 18.1833 -0.6486 19.9633 0.2314 23.1433ZM2.3314 22.5633C1.9514 21.1633 2.5014 20.2933 4.4814 19.8533C4.5214 20.6833 4.8114 21.3833 5.4114 22.1333C6.0514 22.9733 7.2814 22.0933 6.6314 21.2233C6.2014 20.6433 6.0114 20.2733 6.0014 19.6233C6.8014 19.5333 7.7614 19.4933 8.8714 19.4833C8.8714 19.5333 8.8714 19.5933 8.8714 19.6333C8.8714 20.5733 9.1414 21.3233 9.7914 22.1333C10.4414 22.9733 11.6714 22.0933 11.0214 21.2233C10.5614 20.6133 10.3914 20.2433 10.3914 19.5333V19.4933C11.4114 19.5133 12.3714 19.5533 13.2414 19.6233V19.6333C13.2414 20.5733 13.5314 21.3233 14.1714 22.1333C14.8314 22.9733 16.0514 22.0933 15.3914 21.2233C14.9914 20.6733 14.8014 20.3133 14.7814 19.7433C16.8714 19.9333 18.4314 20.1833 19.3314 20.2433C20.1614 20.2633 20.6814 19.7333 20.6714 18.8933C20.5714 13.7533 21.9314 9.6133 24.3214 7.8233C24.8414 7.3933 24.9514 7.1233 24.8014 6.1933C24.4314 3.6233 25.8514 2.2033 27.4114 2.2033C28.4214 2.2033 28.9714 3.0333 28.6414 4.3733L23.4614 25.2833C23.2214 26.2333 22.6414 26.7533 21.7214 26.7533H5.4914C3.9614 26.7533 3.3314 26.2633 2.3314 22.5633Z" /></svg>