
<svg
    viewBox="0 0 30.691855282218437 28.943359375"
    xmlns="http://www.w3.org/2000/svg"
>
    <path
        fill="inherit"
        d="M17.7026 15.5196C17.7026 13.7296 16.0926 12.7296 16.0926 11.4996C16.0926 10.8096 16.2726 10.4296 16.7326 9.8196C17.3926 8.9396 16.1626 8.0696 15.5026 8.9096C14.8426 9.7296 14.5726 10.4896 14.5726 11.3996C14.5726 13.2596 16.1626 14.1796 16.1626 15.5196C16.1626 16.2596 15.6626 16.8696 15.2326 17.5996C14.0226 17.7296 12.8826 17.8996 11.8226 18.0996C12.3026 12.7296 10.6726 8.2896 7.2426 6.0596C7.9526 2.2796 5.4026 -0.0004 3.0526 -0.0004C1.0826 -0.0004 -0.6174 1.5296 0.2226 4.9396L5.3626 25.7996C5.8626 27.8496 7.2226 28.9396 9.2426 28.9396H25.1926C28.0126 28.9396 29.2526 27.5896 30.4626 23.1296C31.3226 20.0196 29.7926 18.2396 25.7726 17.5696C26.1426 16.9896 26.4726 16.3396 26.4726 15.5196C26.4726 13.7296 24.8526 12.7296 24.8526 11.4996C24.8526 10.8096 25.0326 10.4296 25.4926 9.8196C26.1526 8.9396 24.9226 8.0696 24.2626 8.9096C23.6126 9.7296 23.3326 10.4896 23.3326 11.3996C23.3326 13.2596 24.9226 14.1796 24.9226 15.5196C24.9226 16.1896 24.5226 16.7496 24.1326 17.3796C24.7226 17.4196 25.2626 17.4896 25.7726 17.5696C25.3326 18.2796 24.8526 18.8696 24.8526 19.5196C24.8526 20.2296 25.0326 20.5996 25.4826 21.2096C26.1426 22.0796 24.9126 22.9596 24.2626 22.1196C23.6126 21.3096 23.3326 20.5596 23.3326 19.6196C23.3326 18.6996 23.7326 18.0096 24.1326 17.3796C23.3526 17.3096 22.4926 17.2696 21.5726 17.2696C21.8626 16.7596 22.0826 16.1996 22.0826 15.5196C22.0826 13.7296 20.4626 12.7296 20.4626 11.4996C20.4626 10.8096 20.6526 10.4296 21.1126 9.8196C21.7626 8.9396 20.5526 8.0696 19.8926 8.9096C19.2326 9.7296 18.9526 10.4896 18.9526 11.3996C18.9526 13.2596 20.5326 14.1796 20.5326 15.5196C20.5326 16.1496 20.1826 16.6896 19.7926 17.2796C18.8926 17.3096 17.9926 17.3596 17.1026 17.4196C16.6426 18.1796 16.0926 18.8296 16.0926 19.5196C16.0926 20.2296 16.2726 20.5996 16.7226 21.2096C17.3726 22.0796 16.1426 22.9596 15.4926 22.1196C14.8426 21.3096 14.5726 20.5596 14.5726 19.6196C14.5726 18.8096 14.8726 18.1696 15.2326 17.5996C15.8426 17.5296 16.4626 17.4696 17.1026 17.4196C17.4326 16.8896 17.7026 16.2696 17.7026 15.5196ZM19.8826 22.1196C19.2326 21.3096 18.9526 20.5596 18.9526 19.6196C18.9526 18.6596 19.3826 17.9396 19.7926 17.2796C20.3026 17.2696 20.7926 17.2696 21.2826 17.2696C21.3826 17.2696 21.4726 17.2696 21.5726 17.2696C21.0926 18.0996 20.4626 18.7696 20.4626 19.5196C20.4626 20.2296 20.6526 20.5996 21.1126 21.2096C21.7526 22.0796 20.5326 22.9596 19.8826 22.1196Z"
        fillRule="evenodd"
        clipRule="evenodd"
    />
</svg>
        