
<svg
    viewBox={0 0 30.94503997721202 28.95703125}
    xmlns="http://www.w3.org/2000/svg"
>
    <path
        fill="inherit"
        d="M0.2305 23.1433C1.4305 27.6033 2.6805 28.9533 5.4905 28.9533H21.7205C23.7405 28.9533 25.1005 27.8633 25.6005 25.8133L30.7405 4.9533C31.5005 1.9133 30.0705 0.0033 27.4105 0.0033C24.4405 0.0033 22.0105 2.5933 22.6205 6.3433C19.9205 8.6033 18.4305 12.8633 18.6205 17.9833C15.8005 17.5233 12.5905 17.2833 9.4005 17.2833C2.0905 17.2833 -0.8895 19.0633 0.2305 23.1433ZM1.6905 9.1633C1.6905 11.1733 3.5205 13.1933 5.2205 13.1933C6.7805 13.1933 7.5605 11.8033 8.5005 9.3233L8.8405 9.2533V11.9233C8.8405 13.0733 9.4405 13.6533 10.5505 13.6533C12.5505 13.6533 14.5805 11.8433 14.5805 10.1333C14.5805 8.5633 13.1805 7.7833 10.7005 6.8533L10.6305 6.4933H13.3005C14.4505 6.4933 15.0405 5.9033 15.0405 4.8033C15.0405 2.7933 13.2205 0.7533 11.5105 0.7533C9.9505 0.7533 9.1605 2.1733 8.2305 4.6633L7.8705 4.7033V2.0333C7.8705 0.9033 7.3005 0.3033 6.1905 0.3033C4.1705 0.3033 2.1405 2.1333 2.1405 3.8233C2.1405 5.4033 3.5605 6.1833 6.0505 7.1133L6.0805 7.4633H3.4305C2.2805 7.4633 1.6905 8.0633 1.6905 9.1633ZM2.3305 22.5633C1.7305 20.3733 3.4005 19.4833 9.4005 19.4833C14.2705 19.4833 17.7705 20.1433 19.3305 20.2433C20.1605 20.2633 20.6805 19.7333 20.6705 18.8933C20.5705 13.7533 21.9305 9.6133 24.3205 7.8233C24.8405 7.3933 24.9505 7.1233 24.8005 6.1933C24.4305 3.6233 25.8505 2.2033 27.4105 2.2033C28.4205 2.2033 28.9705 3.0333 28.6405 4.3733L23.4605 25.2833C23.2205 26.2333 22.6405 26.7533 21.7205 26.7533H5.4905C3.9605 26.7533 3.3305 26.2633 2.3305 22.5633ZM8.3605 8.3533C7.6105 8.3533 7.0005 7.7333 7.0005 6.9733C7.0005 6.2233 7.6105 5.6033 8.3605 5.6033C9.1205 5.6033 9.7305 6.2233 9.7305 6.9733C9.7305 7.7333 9.1205 8.3533 8.3605 8.3533Z"
        fillRule="evenodd"
        clipRule="evenodd"
    />
</svg>
        