<svg viewBox="0 0 30.689086187999038 28.943359375" xmlns="http://www.w3.org/2000/svg"><path d="M0.2305 23.1296C1.4305 27.5896 2.6805 28.9396 5.4905 28.9396H21.4505C23.4705 28.9396 24.8205 27.8496 25.3305 25.7996L30.4705 4.9396C31.3005 1.5296 29.6105 -0.0004 27.6405 -0.0004C25.2905 -0.0004 22.7305 2.2796 23.4405 6.0596C20.0105 8.2896 18.3905 12.7296 18.8605 18.0996C16.1305 17.5696 12.7105 17.2696 9.4005 17.2696C2.0905 17.2696 -0.8895 19.0496 0.2305 23.1296ZM1.6905 9.1496C1.6905 11.1596 3.5205 13.1796 5.2205 13.1796C6.7805 13.1796 7.5605 11.7896 8.5005 9.3096L8.8405 9.2396V11.9096C8.8405 13.0596 9.4405 13.6396 10.5505 13.6396C12.5505 13.6396 14.5805 11.8296 14.5805 10.1196C14.5805 8.5496 13.1805 7.7696 10.7005 6.8396L10.6305 6.4796H13.3005C14.4505 6.4796 15.0405 5.8896 15.0405 4.7896C15.0405 2.7796 13.2205 0.7396 11.5105 0.7396C9.9505 0.7396 9.1605 2.1596 8.2305 4.6496L7.8705 4.6896V2.0196C7.8705 0.8896 7.3005 0.2896 6.1905 0.2896C4.1705 0.2896 2.1405 2.1196 2.1405 3.8096C2.1405 5.3896 3.5605 6.1696 6.0505 7.0996L6.0805 7.4496H3.4305C2.2805 7.4496 1.6905 8.0496 1.6905 9.1496ZM8.3605 8.3396C7.6105 8.3396 7.0005 7.7196 7.0005 6.9596C7.0005 6.2096 7.6105 5.5896 8.3605 5.5896C9.1205 5.5896 9.7305 6.2096 9.7305 6.9596C9.7305 7.7196 9.1205 8.3396 8.3605 8.3396Z" /></svg>