<svg viewBox="0 0 30.689086187999038 39.2878906918079" xmlns="http://www.w3.org/2000/svg"><path d="M0.2305 23.137C1.4305 27.587 2.6805 28.957 5.4905 28.957H21.4505C23.4705 28.957 24.8205 27.847 25.3305 25.797L30.4705 4.937C31.3005 1.547 29.6105 -0.003 27.6405 -0.003C25.2905 -0.003 22.7305 2.287 23.4405 6.057C20.0105 8.287 18.3905 12.727 18.8605 18.097C16.1305 17.567 12.7105 17.267 9.4005 17.267C2.0905 17.267 -0.8895 19.047 0.2305 23.137ZM16.9905 38.457C16.9905 39.197 17.5905 39.507 18.2305 39.117L23.0905 36.167C23.7005 35.777 23.6905 35.057 23.0905 34.687L18.2205 31.707C17.5805 31.307 16.9905 31.647 16.9905 32.377ZM9.8905 38.457V32.377C9.8905 31.647 9.3105 31.307 8.6605 31.707L3.8105 34.687C3.2005 35.057 3.1805 35.777 3.8105 36.167L8.6605 39.117C9.3105 39.507 9.8905 39.197 9.8905 38.457Z" /></svg>