<svg viewBox="0 0 30.689086187999038 28.943359375" xmlns="http://www.w3.org/2000/svg"><path d="M0.2305 23.1296C1.4305 27.5896 2.6805 28.9396 5.4905 28.9396H21.4505C23.4705 28.9396 24.8205 27.8496 25.3305 25.7996L30.4705 4.9396C31.3005 1.5296 29.6105 -0.0004 27.6405 -0.0004C25.2905 -0.0004 22.7305 2.2796 23.4405 6.0596C20.0105 8.2896 18.3905 12.7296 18.8605 18.0996C16.1305 17.5696 12.7105 17.2696 9.4005 17.2696C2.0905 17.2696 -0.8895 19.0496 0.2305 23.1296ZM3.6105 12.7296H10.1705C10.6705 12.7296 11.0405 12.3696 11.0405 11.8796C11.0405 11.3796 10.6705 11.0196 10.1705 11.0196H5.5305V10.9796L8.5005 7.7796C9.5505 6.6596 10.3505 5.6696 10.3505 4.2696C10.3505 2.3196 8.8305 1.0396 6.4505 1.0396C4.6905 1.0396 3.1005 2.1096 2.6905 3.5596C2.6505 3.7596 2.6205 3.8996 2.6205 4.0696C2.6205 4.5796 2.9505 4.9196 3.4705 4.9196C3.9305 4.9196 4.1705 4.6396 4.4005 4.2496C4.7305 3.4996 5.3805 2.7196 6.5305 2.7196C7.6905 2.7196 8.4905 3.3996 8.4905 4.3996C8.4905 5.2896 7.7205 6.0396 7.0005 6.8196L3.0205 11.0996C2.8005 11.3296 2.6805 11.5796 2.6805 11.8796C2.6805 12.3996 3.0305 12.7296 3.6105 12.7296Z" /></svg>