
<svg
    viewBox={0 0 30.689086187999038 37.59429523333793}
    xmlns="http://www.w3.org/2000/svg"
>
    <path
        fill="inherit"
        d="M0.2305 23.1293C1.4305 27.5893 2.6805 28.9393 5.4905 28.9393H21.4505C23.4705 28.9393 24.8205 27.8493 25.3305 25.7893L30.4705 4.9193C31.3005 1.5293 29.6105 -0.0007 27.6405 -0.0007C25.2905 -0.0007 22.7305 2.2793 23.4405 6.0593C20.0105 8.2893 18.3905 12.7193 18.8605 18.0993C16.1305 17.5693 12.7105 17.2693 9.4005 17.2693C2.0905 17.2693 -0.8895 19.0493 0.2305 23.1293ZM7.2805 15.1893H13.3705C14.0905 15.1893 14.4305 14.5993 14.0405 13.9593L11.0605 9.1093C10.6905 8.4893 9.9605 8.4793 9.5805 9.1093L6.6305 13.9593C6.2305 14.5993 6.5505 15.1893 7.2805 15.1893ZM7.2805 31.0393C6.5505 31.0393 6.2405 31.6393 6.6305 32.2793L9.5805 37.1293C9.9805 37.7593 10.6905 37.7393 11.0605 37.1293L14.0405 32.2793C14.4305 31.6393 14.0905 31.0393 13.3705 31.0393Z"
        fillRule="evenodd"
        clipRule="evenodd"
    />
</svg>
        