<svg viewBox="0 0 30.945119618324398 28.95703125" xmlns="http://www.w3.org/2000/svg"><path d="M30.7189 23.1433C31.8389 19.0633 28.8589 17.2833 21.5389 17.2833C18.3589 17.2833 15.1389 17.5233 12.3289 17.9833C12.5189 12.8633 11.0289 8.6033 8.3189 6.3433C8.9389 2.5933 6.4889 0.0033 3.5189 0.0033C0.8689 0.0033 -0.5511 1.9133 0.1989 4.9533L5.3389 25.8133C5.8489 27.8633 7.1989 28.9533 9.2089 28.9533H25.4489C28.2689 28.9533 29.5089 27.6033 30.7189 23.1433ZM25.1889 12.9633C25.8389 12.9633 26.2089 12.5533 26.2089 11.8233V2.1833C26.2089 1.4533 25.8189 1.0533 25.1389 1.0533C24.6589 1.0533 24.3489 1.1633 23.7989 1.5633L21.4589 3.1333C21.1689 3.3233 21.0889 3.5233 21.0889 3.8233C21.0889 4.2233 21.4089 4.5633 21.7889 4.5633C21.9789 4.5633 22.1189 4.5433 22.4289 4.3033L24.0689 3.2233H24.2089V11.8233C24.2089 12.5333 24.5889 12.9633 25.1889 12.9633ZM28.6089 22.5633C27.6089 26.2633 26.9789 26.7533 25.4489 26.7533H9.2089C8.3089 26.7533 7.7189 26.2333 7.4889 25.2833L2.3089 4.3733C1.9789 3.0333 2.5289 2.2033 3.5389 2.2033C5.0989 2.2033 6.5189 3.6233 6.1389 6.1933C5.9989 7.1233 6.0889 7.3933 6.6089 7.8233C9.0189 9.6133 10.3689 13.7533 10.2589 18.8933C10.2589 19.7333 10.7789 20.2633 11.6189 20.2433C13.1789 20.1433 16.6789 19.4833 21.5389 19.4833C27.5489 19.4833 29.1989 20.3733 28.6089 22.5633Z" /></svg>