
<svg
    viewBox="0 0 39.100142228786666 28.95703125"
    xmlns="http://www.w3.org/2000/svg"
>
    <path
        fill="inherit"
        d="M0.2305 23.1433C1.4305 27.6033 2.6805 28.9533 5.4905 28.9533H21.7205C23.7405 28.9533 25.1005 27.8633 25.6005 25.8133L30.7405 4.9533C31.5005 1.9133 30.0705 0.0033 27.4105 0.0033C24.4405 0.0033 22.0105 2.5933 22.6205 6.3433C19.9205 8.6033 18.4305 12.8633 18.6205 17.9833C15.8005 17.5233 12.5905 17.2833 9.4005 17.2833C2.0905 17.2833 -0.8895 19.0633 0.2305 23.1433ZM17.0205 8.5033L18.5605 2.6133C18.7505 1.9133 18.2605 1.4333 17.5505 1.6533L12.0805 3.2933C11.4005 3.5033 11.2105 4.1933 11.7105 4.7133L15.6505 8.8233C16.1705 9.3633 16.8305 9.2333 17.0205 8.5033ZM2.3305 22.5633C1.7305 20.3733 3.4005 19.4833 9.4005 19.4833C14.2705 19.4833 17.7705 20.1433 19.3305 20.2433C20.1605 20.2633 20.6805 19.7333 20.6705 18.8933C20.5705 13.7533 21.9305 9.6133 24.3205 7.8233C24.8405 7.3933 24.9505 7.1233 24.8005 6.1933C24.4305 3.6233 25.8505 2.2033 27.4105 2.2033C28.4205 2.2033 28.9705 3.0333 28.6405 4.3733L23.4605 25.2833C23.2205 26.2333 22.6405 26.7533 21.7205 26.7533H5.4905C3.9605 26.7533 3.3305 26.2633 2.3305 22.5633ZM31.9605 13.3833C31.7705 14.0933 32.2605 14.5633 33.0005 14.3433L38.4305 12.7133C39.1405 12.5133 39.3205 11.8033 38.8105 11.2933L34.8905 7.1633C34.3705 6.6133 33.7005 6.7933 33.5105 7.5033Z"
        fillRule="evenodd"
        clipRule="evenodd"
    />
</svg>
        