<svg viewBox="0 0 30.68974449281546 37.59429523333793" xmlns="http://www.w3.org/2000/svg"><path d="M30.4626 23.1293C31.5826 19.0493 28.6126 17.2693 21.2826 17.2693C17.9926 17.2693 14.5626 17.5693 11.8226 18.0993C12.3026 12.7193 10.6726 8.2893 7.2426 6.0593C7.9526 2.2793 5.4026 -0.0007 3.0526 -0.0007C1.0826 -0.0007 -0.6174 1.5293 0.2226 4.9193L5.3626 25.7893C5.8626 27.8493 7.2226 28.9393 9.2426 28.9393H25.1926C28.0126 28.9393 29.2526 27.5893 30.4626 23.1293ZM23.3926 15.1893C24.1326 15.1893 24.4426 14.5993 24.0526 13.9593L21.0926 9.1093C20.7126 8.4793 19.9826 8.4893 19.6226 9.1093L16.6426 13.9593C16.2426 14.5993 16.5826 15.1893 17.3026 15.1893ZM23.3926 31.0393H17.3026C16.5826 31.0393 16.2426 31.6393 16.6426 32.2793L19.6226 37.1293C19.9826 37.7393 20.7026 37.7593 21.0926 37.1293L24.0526 32.2793C24.4326 31.6393 24.1326 31.0393 23.3926 31.0393Z" /></svg>