
<svg
    viewBox={0 0 30.68974449281546 28.943359375}
    xmlns="http://www.w3.org/2000/svg"
>
    <path
        fill="inherit"
        d="M30.4626 23.1296C31.5826 19.0496 28.6126 17.2696 21.2826 17.2696C17.9926 17.2696 14.5626 17.5696 11.8226 18.0996C12.3026 12.7296 10.6726 8.2896 7.2426 6.0596C7.9526 2.2796 5.4026 -0.0004 3.0526 -0.0004C1.0826 -0.0004 -0.6174 1.5296 0.2226 4.9396L5.3626 25.7996C5.8626 27.8496 7.2226 28.9396 9.2426 28.9396H25.1926C28.0126 28.9396 29.2526 27.5896 30.4626 23.1296ZM24.9526 12.9496C25.5926 12.9496 25.9626 12.5396 25.9626 11.8096V2.1696C25.9626 1.4396 25.5826 1.0396 24.8926 1.0396C24.4126 1.0396 24.1026 1.1496 23.5726 1.5496L21.2226 3.1196C20.9426 3.3096 20.8526 3.5096 20.8526 3.8096C20.8526 4.2096 21.1626 4.5496 21.5426 4.5496C21.7326 4.5496 21.8726 4.5296 22.1926 4.2896L23.8326 3.2096H23.9626V11.8096C23.9626 12.5196 24.3526 12.9496 24.9526 12.9496Z"
        fillRule="evenodd"
        clipRule="evenodd"
    />
</svg>
        