
<svg
    viewBox={0 0 30.94503997721202 28.95703125}
    xmlns="http://www.w3.org/2000/svg"
>
    <path
        fill="inherit"
        d="M0.2305 23.1433C1.4305 27.6033 2.6805 28.9533 5.4905 28.9533H21.7205C23.7405 28.9533 25.1005 27.8633 25.6005 25.8133L30.7405 4.9533C31.5005 1.9133 30.0705 0.0033 27.4105 0.0033C24.4405 0.0033 22.0105 2.5933 22.6205 6.3433C19.9205 8.6033 18.4305 12.8633 18.6205 17.9833C15.8005 17.5233 12.5905 17.2833 9.4005 17.2833C2.0905 17.2833 -0.8895 19.0633 0.2305 23.1433ZM6.5705 12.5133C9.0605 12.5133 10.7405 11.1933 10.7405 9.2333C10.7405 7.8233 9.6905 6.7033 8.2405 6.5233C9.4205 6.3333 10.3605 5.2333 10.3605 3.9633C10.3605 2.2833 8.8305 1.0533 6.6705 1.0533C4.7105 1.0533 3.2405 1.9733 2.8905 3.4333C2.8505 3.5933 2.8405 3.7033 2.8405 3.9133C2.8405 4.3733 3.1805 4.7133 3.7005 4.7133C4.1305 4.7133 4.4005 4.5133 4.5505 4.0733C4.8205 3.1533 5.6005 2.6433 6.6405 2.6433C7.7905 2.6433 8.5305 3.2133 8.5305 4.1533C8.5305 5.1233 7.6905 5.8333 6.5905 5.8333H5.8305C5.4005 5.8333 5.0505 6.1533 5.0505 6.6033C5.0505 7.0533 5.3805 7.3833 5.8305 7.3833H6.6705C7.9905 7.3833 8.9105 8.0933 8.9105 9.1633C8.9105 10.2033 7.9805 10.9133 6.6005 10.9133C5.4705 10.9133 4.6605 10.4033 4.3305 9.4733C4.1705 9.0533 3.8905 8.8633 3.4805 8.8633C2.9805 8.8633 2.6205 9.2033 2.6205 9.6933C2.6205 9.8733 2.6405 9.9533 2.6805 10.1133C2.9905 11.5233 4.6205 12.5133 6.5705 12.5133ZM2.3305 22.5633C1.7305 20.3733 3.4005 19.4833 9.4005 19.4833C14.2705 19.4833 17.7705 20.1433 19.3305 20.2433C20.1605 20.2633 20.6805 19.7333 20.6705 18.8933C20.5705 13.7533 21.9305 9.6133 24.3205 7.8233C24.8405 7.3933 24.9505 7.1233 24.8005 6.1933C24.4305 3.6233 25.8505 2.2033 27.4105 2.2033C28.4205 2.2033 28.9705 3.0333 28.6405 4.3733L23.4605 25.2833C23.2205 26.2333 22.6405 26.7533 21.7205 26.7533H5.4905C3.9605 26.7533 3.3305 26.2633 2.3305 22.5633Z"
        fillRule="evenodd"
        clipRule="evenodd"
    />
</svg>
        