<svg viewBox="0 0 27.890625 27.890625" xmlns="http://www.w3.org/2000/svg"><path d="M13.9427 27.8927C21.6427 27.8927 27.8927 21.6427 27.8927 13.9427C27.8927 6.2627 21.6427 0.0027 13.9427 0.0027C6.2627 0.0027 0.0027 6.2627 0.0027 13.9427C0.0027 21.6427 6.2627 27.8927 13.9427 27.8927ZM11.5827 18.7127C10.3127 18.7127 9.5727 18.1327 9.4027 17.0127L8.3027 9.2127H6.1127C5.6727 9.2127 5.3727 8.9127 5.3727 8.4727C5.3727 8.0227 5.6727 7.7227 6.1127 7.7227H8.5027C9.1427 7.7227 9.6527 8.1327 9.7327 8.7327L9.8527 9.6827H21.2627C21.6727 9.6827 21.9127 9.9227 21.9127 10.2627C21.9127 10.3227 21.9027 10.4427 21.8727 10.5227L21.3127 14.3527C21.1627 15.3827 20.6327 16.0127 19.5827 16.0127H10.7827L10.8427 16.5427C10.8927 16.9827 11.1827 17.2427 11.6027 17.2427H19.2527C19.6827 17.2427 19.9727 17.5227 19.9727 17.9627C19.9727 18.4327 19.6827 18.7127 19.2527 18.7127ZM11.8027 22.1727C11.1027 22.1727 10.5427 21.6327 10.5427 20.9227C10.5427 20.1927 11.1027 19.6427 11.8027 19.6427C12.5127 19.6427 13.0727 20.1927 13.0727 20.9227C13.0727 21.6327 12.5127 22.1727 11.8027 22.1727ZM18.1027 22.1727C17.4027 22.1727 16.8127 21.6327 16.8127 20.9227C16.8127 20.1927 17.4027 19.6427 18.1027 19.6427C18.8127 19.6427 19.3727 20.1927 19.3727 20.9227C19.3727 21.6327 18.8127 22.1727 18.1027 22.1727Z" /></svg>