
<svg
    viewBox={0 0 31.5546875 26.87890625}
    xmlns="http://www.w3.org/2000/svg"
>
    <path
        fill="inherit"
        d="M0.0009 1.0298C0.0009 1.5898 0.4609 2.0598 1.0109 2.0598H5.6309L7.8209 17.0798C8.1109 19.0198 9.1309 20.2298 11.1109 20.2298H27.0709C27.6009 20.2298 28.0709 19.7998 28.0709 19.2098C28.0709 18.6198 27.6009 18.1798 27.0709 18.1798H11.3509C10.5709 18.1798 10.0909 17.6398 9.9709 16.7998L9.7509 15.3698H27.1009C29.0909 15.3698 30.1209 14.1398 30.4109 12.1798L31.5009 4.9498C31.5309 4.7698 31.5509 4.5498 31.5509 4.4298C31.5509 3.7698 31.0609 3.3198 30.3109 3.3198H8.0009L7.7209 1.5898C7.5909 0.5298 7.2009 -0.0002 5.8109 -0.0002H1.0109C0.4609 -0.0002 0.0009 0.4798 0.0009 1.0298ZM9.9709 24.6598C9.9709 25.9098 10.9509 26.8798 12.1909 26.8798C13.4209 26.8798 14.4109 25.9098 14.4109 24.6598C14.4109 23.4298 13.4209 22.4498 12.1909 22.4498C10.9509 22.4498 9.9709 23.4298 9.9709 24.6598ZM22.7509 24.6598C22.7509 25.9098 23.7509 26.8798 24.9809 26.8798C26.2209 26.8798 27.2109 25.9098 27.2109 24.6598C27.2109 23.4298 26.2209 22.4498 24.9809 22.4498C23.7509 22.4498 22.7509 23.4298 22.7509 24.6598Z"
        fillRule="evenodd"
        clipRule="evenodd"
    />
</svg>
        