<svg viewBox="0 0 27.890625 27.890625" xmlns="http://www.w3.org/2000/svg"><path d="M13.9427 27.8864C21.6427 27.8864 27.8927 21.6464 27.8927 13.9464C27.8927 6.2464 21.6427 -0.0036 13.9427 -0.0036C6.2527 -0.0036 0.0027 6.2464 0.0027 13.9464C0.0027 21.6464 6.2527 27.8864 13.9427 27.8864ZM13.9427 25.5664C7.5227 25.5664 2.3227 20.3664 2.3227 13.9464C2.3227 7.5164 7.5227 2.3264 13.9427 2.3264C20.3727 2.3264 25.5627 7.5164 25.5627 13.9464C25.5627 20.3664 20.3727 25.5664 13.9427 25.5664ZM11.6227 18.5764H19.0727C19.4927 18.5764 19.7727 18.2964 19.7727 17.8564C19.7727 17.4364 19.4927 17.1264 19.0727 17.1264H11.6527C11.2427 17.1264 10.9627 16.8964 10.9127 16.4764L10.8527 15.9564H19.3827C20.4127 15.9564 20.9227 15.3364 21.0727 14.3464L21.6127 10.6264C21.6427 10.5564 21.6527 10.4364 21.6527 10.3764C21.6527 10.0364 21.4127 9.8164 21.0127 9.8164H9.9527L9.8327 8.8864C9.7527 8.2964 9.2727 7.9164 8.6427 7.9164H6.3127C5.8927 7.9164 5.6027 8.2064 5.6027 8.6364C5.6027 9.0664 5.8927 9.3564 6.3127 9.3564H8.4527L9.5327 16.9164C9.6827 18.0064 10.3927 18.5764 11.6227 18.5764ZM11.8427 21.9264C12.5327 21.9264 13.0727 21.3864 13.0727 20.7164C13.0727 20.0164 12.5327 19.4664 11.8427 19.4664C11.1727 19.4664 10.6227 20.0164 10.6227 20.7164C10.6227 21.3864 11.1727 21.9264 11.8427 21.9264ZM17.9627 21.9264C18.6527 21.9264 19.1927 21.3864 19.1927 20.7164C19.1927 20.0164 18.6527 19.4664 17.9627 19.4664C17.2827 19.4664 16.7227 20.0164 16.7227 20.7164C16.7227 21.3864 17.2827 21.9264 17.9627 21.9264Z" /></svg>