
<svg
    viewBox={0 0 27.890625 27.890625}
    xmlns="http://www.w3.org/2000/svg"
>
    <path
        fill="inherit"
        d="M13.9427 27.8927C21.6427 27.8927 27.8927 21.6427 27.8927 13.9427C27.8927 6.2627 21.6427 0.0027 13.9427 0.0027C6.2627 0.0027 0.0027 6.2627 0.0027 13.9427C0.0027 21.6427 6.2627 27.8927 13.9427 27.8927ZM8.8327 21.9727C8.3027 21.9727 7.9327 21.6727 7.7827 21.0727L6.9427 17.9827C6.6427 16.9627 7.6327 16.6427 7.6327 14.4227C7.6327 14.1727 7.6327 13.8727 7.6527 13.4927C7.6527 13.1227 7.5027 12.8527 7.1327 12.7027C5.9327 12.2527 5.1827 11.1027 5.1827 9.6427C5.1827 7.6727 6.6827 6.2927 8.8427 6.2927C9.5727 6.2927 10.3327 6.4227 11.1727 6.7627C11.8227 7.0427 11.4827 8.0027 10.7727 7.7127C10.0627 7.4227 9.4427 7.3027 8.8427 7.3027C7.2827 7.3027 6.1827 8.2627 6.1827 9.6427C6.1827 10.6927 6.7527 11.4827 7.5727 11.8127C8.0127 11.9627 8.1927 11.8927 8.4327 11.5927C8.9027 11.0627 9.6527 10.6527 10.8427 10.6527C13.3527 10.6527 14.3527 11.0327 17.0627 11.0327C17.3627 11.0327 17.5727 10.7627 17.8027 10.2927L18.0727 9.8527C18.4027 9.2327 18.8527 8.5727 19.4127 8.0427C19.6627 7.1927 20.1627 6.6127 20.4627 6.6127C20.7627 6.6127 21.1927 7.2327 21.4127 7.9827C22.4627 8.7327 23.3827 9.6427 23.3827 10.5127C23.3827 11.1127 22.4927 11.9127 21.2627 12.0027C21.1827 16.5927 18.5227 15.5627 18.5227 19.2727V20.0127C19.1127 20.0927 19.3827 20.4427 19.3827 20.9627C19.3827 21.5927 18.9627 21.9727 18.2427 21.9727H17.4427C16.7227 21.9727 16.3427 21.6127 16.3427 20.9227C16.3427 20.2927 16.4327 19.4827 16.4327 18.6727C16.4327 18.0227 16.2727 17.3727 16.1027 16.8127C15.4627 16.9927 14.2427 17.1827 13.1227 17.1827C12.1827 17.1827 11.4027 17.0527 10.1827 16.5827C9.7727 17.2627 9.6227 17.6727 9.6227 18.3427V19.9927C10.3227 20.0927 10.7027 20.5127 10.7027 20.9627C10.7027 21.6127 10.2827 21.9727 9.5527 21.9727ZM21.2227 9.9627C21.3827 10.0127 21.5627 9.9227 21.6027 9.7527C21.6427 9.5827 21.5427 9.3927 21.3827 9.3527C21.1927 9.2927 21.0227 9.4227 20.9827 9.5827C20.9427 9.7627 21.0227 9.9127 21.2227 9.9627Z"
        fillRule="evenodd"
        clipRule="evenodd"
    />
</svg>
        