<svg viewBox="0 0 27.890625 27.890625" xmlns="http://www.w3.org/2000/svg"><path d="M13.9427 27.8864C21.6427 27.8864 27.8927 21.6464 27.8927 13.9464C27.8927 6.2464 21.6427 -0.0036 13.9427 -0.0036C6.2527 -0.0036 0.0027 6.2464 0.0027 13.9464C0.0027 21.6464 6.2527 27.8864 13.9427 27.8864ZM13.9427 25.5664C7.5227 25.5664 2.3227 20.3664 2.3227 13.9464C2.3227 7.5164 7.5227 2.3264 13.9427 2.3264C20.3727 2.3264 25.5627 7.5164 25.5627 13.9464C25.5627 20.3664 20.3727 25.5664 13.9427 25.5664ZM8.9927 21.7364H9.6927C10.4027 21.7364 10.8127 21.3864 10.8127 20.7564C10.8127 20.3164 10.4427 19.9164 9.7627 19.8064V18.2064C9.7627 17.5564 9.9127 17.1564 10.3127 16.5064C11.4827 16.9564 12.2527 17.0864 13.1627 17.0864C14.2427 17.0864 15.4227 16.9164 16.0527 16.7364C16.2127 17.2764 16.3627 17.8964 16.3627 18.5364C16.3627 19.3064 16.2727 20.0864 16.2727 20.7164C16.2727 21.3864 16.6527 21.7364 17.3527 21.7364H18.1127C18.8127 21.7364 19.2327 21.3564 19.2327 20.7564C19.2327 20.2464 18.9627 19.9164 18.3927 19.8264V19.1264C18.3927 15.5064 20.9727 16.5264 21.0427 12.0564C22.2427 11.9764 23.1027 11.1964 23.1027 10.6264C23.1027 9.7764 22.2327 8.8964 21.1927 8.1764C20.9827 7.4264 20.5727 6.8464 20.2727 6.8464C19.9927 6.8464 19.4927 7.3964 19.2627 8.2164C18.7127 8.7264 18.2827 9.3764 17.9527 9.9764L17.6927 10.4164C17.4627 10.8564 17.2627 11.1164 16.9827 11.1164C14.3527 11.1164 13.3827 10.7564 10.9527 10.7564C9.7927 10.7564 9.0627 11.1564 8.6127 11.6664C8.3627 11.9664 8.2027 12.0264 7.7827 11.8664C6.9827 11.5664 6.4227 10.7864 6.4227 9.7764C6.4227 8.4364 7.4927 7.5064 9.0127 7.5064C9.5927 7.5064 10.1827 7.6164 10.8827 7.9064C11.5627 8.1764 11.8927 7.2464 11.2627 6.9864C10.4627 6.6564 9.7027 6.5264 9.0127 6.5264C6.9227 6.5264 5.4527 7.8564 5.4527 9.7764C5.4527 11.1864 6.1927 12.3064 7.3527 12.7464C7.7127 12.8964 7.8627 13.1364 7.8627 13.5064C7.8327 13.8664 7.8327 14.1764 7.8327 14.4064C7.8327 16.5564 6.8727 16.8864 7.1627 17.8464L7.9727 20.8664C8.1227 21.4364 8.4727 21.7364 8.9927 21.7364ZM21.0027 10.0764C20.8227 10.0364 20.7427 9.8664 20.7827 9.7064C20.8227 9.5464 20.9827 9.4464 21.1627 9.4864C21.3327 9.5464 21.4127 9.7164 21.3727 9.8864C21.3327 10.0464 21.1627 10.1264 21.0027 10.0764Z" /></svg>