
<svg
    viewBox="0 0 37.392578125 32.23828125"
    xmlns="http://www.w3.org/2000/svg"
>
    <path
        fill="inherit"
        d="M6.9837 32.2355H8.8437C10.5537 32.2355 11.6637 31.2655 11.6637 29.7255C11.6637 28.2855 10.8437 27.6455 9.8737 27.4155V25.4055C9.8737 24.0055 10.0037 23.1555 10.3037 22.3655C11.8537 23.0055 14.1337 23.4055 16.1237 23.4055C17.9537 23.4055 19.9637 23.2055 21.5437 22.8355C21.7337 23.6355 21.9337 24.3755 21.9337 24.5955C21.9337 26.4555 21.7337 27.3855 21.7337 29.1755C21.7337 31.1455 22.8037 32.2355 24.7337 32.2355H26.4837C28.1337 32.2355 29.3137 31.2155 29.3137 29.7255C29.3137 28.2855 28.4937 27.6455 27.5037 27.4155V26.2955C27.5037 19.5355 32.7737 21.5455 33.0737 11.9755C35.5337 11.6455 37.3937 9.8855 37.3937 8.4055C37.3937 6.7155 35.6537 4.6255 33.8337 3.5855C33.4137 1.6655 32.0837 0.4355 31.1737 0.4355C30.2437 0.4355 29.1737 1.6855 28.5437 3.3055C27.5237 4.2255 26.4037 5.6855 25.6737 6.9555L24.9337 8.2455C24.6237 8.8155 24.3337 9.1055 23.8437 9.1055C18.6937 9.1055 16.6437 8.3355 11.4537 8.3355C8.6937 8.3355 7.0137 9.3355 6.0137 10.6655C5.5537 11.2755 4.9937 11.1855 4.4137 10.8655C2.9137 10.1355 1.9837 8.6255 1.9837 6.7655C1.9837 3.9555 4.2337 1.9855 7.4237 1.9855C8.6437 1.9855 9.8737 2.2255 11.3037 2.8155C12.7137 3.3755 13.3937 1.5055 12.1037 0.9555C10.4137 0.2855 8.8437 -0.0045 7.4237 -0.0045C3.0537 -0.0045 0.0037 2.7855 0.0037 6.7655C0.0037 9.5255 1.3637 11.7155 3.5137 12.7455C4.2337 13.1155 4.5137 13.4555 4.4937 14.1955C4.4537 15.2155 4.4537 15.9655 4.4537 16.4355C4.4537 20.4155 2.4837 21.6555 3.0537 23.7655L4.8237 30.2955C5.1937 31.6455 5.9037 32.2355 6.9837 32.2355ZM7.5637 30.2555C7.1137 30.2555 6.8037 29.9655 6.6137 29.2555L4.9737 23.2455C4.7037 22.2455 6.4437 21.0555 6.4437 16.4355C6.4437 14.5555 6.5237 10.3255 11.4537 10.3255C16.0937 10.3255 19.8337 11.0855 24.2637 11.0855C25.1437 11.0855 26.0137 10.4555 26.6437 9.3355L27.4537 7.8855C28.2637 6.4555 29.0637 5.2455 29.7737 4.7255C30.5537 3.0055 30.8537 2.5055 31.1437 2.5055C31.3237 2.5055 31.8537 3.1855 32.1737 4.6255C33.8837 5.6155 35.4137 7.3655 35.4137 8.3355C35.4137 9.0055 34.0737 10.1455 32.1337 10.1455H31.9537C31.4037 10.1455 31.1037 10.4555 31.1037 11.0355V11.2355C31.1037 20.0855 25.5237 17.3255 25.5237 26.2955V28.2055C25.5237 28.5455 25.7337 28.7555 26.0837 28.7555H26.3837C27.0337 28.7555 27.3337 29.0255 27.3337 29.5055C27.3337 30.0055 27.0137 30.2555 26.3637 30.2555H24.9537C24.1437 30.2555 23.7237 29.8355 23.7237 29.0255C23.7237 27.7255 23.9137 26.7955 23.9137 24.5955C23.9137 23.8255 23.2237 21.7255 23.2237 20.6855C23.2237 20.2755 23.5037 19.6055 23.8037 18.8655C24.2837 17.7055 22.4537 16.9355 21.9437 18.1655C21.5737 19.0955 21.2437 20.0155 21.2437 20.8755C19.9337 21.2055 17.9637 21.4255 16.1237 21.4255C14.3437 21.4255 12.4737 21.0955 11.2937 20.6355C11.8237 19.8055 12.2637 19.0355 12.4437 18.5355C12.8537 17.3655 11.1337 16.5655 10.5137 17.8655C10.0337 18.9455 9.5137 19.7555 8.9237 20.7955C8.2137 22.0255 7.8937 22.8555 7.8937 24.3955V28.2055C7.8937 28.5455 8.0937 28.7555 8.4337 28.7555H8.7337C9.3837 28.7555 9.6837 29.0555 9.6837 29.5055C9.6837 30.0255 9.3637 30.2555 8.7237 30.2555ZM32.3037 7.9555C32.7837 7.9555 33.1937 7.5755 33.1937 7.0855C33.1937 6.5855 32.7837 6.1955 32.3037 6.1955C31.8137 6.1955 31.4137 6.5855 31.4137 7.0855C31.4137 7.5755 31.8137 7.9555 32.3037 7.9555Z"
        fillRule="evenodd"
        clipRule="evenodd"
    />
</svg>
        