
<svg
    viewBox="0 0 36.900390625 31.74609375"
    xmlns="http://www.w3.org/2000/svg"
>
    <path
        fill="inherit"
        d="M7.3537 31.7495H8.8437C10.3537 31.7495 11.1737 31.0495 11.1737 29.7195C11.1737 28.7895 10.4337 27.9995 9.0137 27.7295V24.4195C9.0137 23.0395 9.2837 22.1995 10.1437 20.8495C12.6237 21.7695 14.1737 22.0495 16.1237 22.0495C18.3737 22.0495 20.8337 21.6995 22.1337 21.2995C22.4737 22.4495 22.7937 23.7195 22.7937 25.0895C22.7937 26.7195 22.6037 28.3595 22.6037 29.6495C22.6037 31.0495 23.3937 31.7495 24.8537 31.7495H26.4837C27.9437 31.7495 28.8237 30.9795 28.8237 29.7195C28.8237 28.6595 28.2437 27.9695 27.0137 27.7995V26.2895C27.0137 18.7395 32.4537 20.8595 32.5937 11.5495C35.1137 11.3595 36.9037 9.7495 36.9037 8.5495C36.9037 6.7695 35.0437 4.9495 32.8837 3.3995C32.4537 1.8595 31.5837 0.6395 30.9537 0.6395C30.3537 0.6395 29.3237 1.7895 28.8437 3.4995C27.7237 4.6095 26.7937 5.9495 26.1137 7.1895L25.5937 8.0895C25.1037 9.0195 24.6737 9.5995 24.0937 9.5995C18.5837 9.5995 16.5537 8.8295 11.4537 8.8295C9.0337 8.8295 7.5237 9.6495 6.5737 10.7695C6.0537 11.3595 5.7037 11.5095 4.8537 11.1695C3.1737 10.5395 1.9837 8.8895 1.9837 6.7695C1.9837 3.9395 4.2237 1.9795 7.4237 1.9795C8.6437 1.9795 9.8737 2.2295 11.3237 2.8195C12.7137 3.3595 13.3937 1.4995 12.1037 0.9595C10.4137 0.2895 8.8437 -0.0005 7.4237 -0.0005C3.0537 -0.0005 0.0037 2.7795 0.0037 6.7695C0.0037 9.7095 1.5437 12.0195 3.9537 12.9495C4.6937 13.2495 5.0037 13.7795 4.9937 14.5595C4.9537 15.4195 4.9537 16.0195 4.9537 16.4295C4.9537 20.9895 2.9837 21.5995 3.5237 23.6395L5.2237 29.9395C5.5537 31.1495 6.2637 31.7495 7.3537 31.7495ZM32.6637 7.6195C32.2137 7.6195 31.8537 7.2695 31.8537 6.8195C31.8537 6.3695 32.2137 6.0195 32.6637 6.0195C33.1037 6.0195 33.4537 6.3695 33.4537 6.8195C33.4537 7.2695 33.1037 7.6195 32.6637 7.6195Z"
        fillRule="evenodd"
        clipRule="evenodd"
    />
</svg>
        