
<svg
    viewBox={0 0 27.890625 27.890625}
    xmlns="http://www.w3.org/2000/svg"
>
    <path
        fill="inherit"
        d="M13.9427 27.8864C21.6427 27.8864 27.8927 21.6464 27.8927 13.9464C27.8927 6.2464 21.6427 -0.0036 13.9427 -0.0036C6.2527 -0.0036 0.0027 6.2464 0.0027 13.9464C0.0027 21.6464 6.2527 27.8864 13.9427 27.8864ZM13.9427 25.5664C7.5227 25.5664 2.3227 20.3664 2.3227 13.9464C2.3227 7.5164 7.5227 2.3264 13.9427 2.3264C20.3727 2.3264 25.5627 7.5164 25.5627 13.9464C25.5627 20.3664 20.3727 25.5664 13.9427 25.5664ZM13.9327 21.5364C14.2027 21.5364 14.3827 21.3564 14.3827 21.0664V19.9464C16.2927 19.8564 17.9927 18.9464 18.6227 17.2264C18.7027 17.0064 18.7427 16.8164 18.7427 16.5864C18.7427 16.1364 18.4527 15.8564 18.0027 15.8564C17.5827 15.8564 17.3627 16.0964 17.2227 16.4864C16.8527 17.6464 15.7227 18.4064 14.3827 18.5264V9.1564C15.6827 9.2864 16.7927 10.1064 17.1427 11.2064C17.2827 11.6164 17.4827 11.8364 17.9127 11.8364C18.3427 11.8364 18.6527 11.5664 18.6527 11.1164C18.6527 10.7964 18.5527 10.5364 18.4427 10.2964C17.7427 8.7264 16.1627 7.8364 14.3827 7.7364V6.6264C14.3827 6.3664 14.2027 6.1664 13.9327 6.1664C13.6727 6.1664 13.4627 6.3664 13.4627 6.6264V7.7564C10.4327 8.0264 8.6727 10.4964 8.6727 13.8264C8.6727 17.0864 10.3227 19.6464 13.4627 19.9364V21.0664C13.4627 21.3464 13.6727 21.5364 13.9327 21.5364ZM10.3327 13.8264C10.3327 11.5264 11.3727 9.4864 13.4627 9.1864V18.4964C11.3027 18.1864 10.3327 16.1064 10.3327 13.8264Z"
        fillRule="evenodd"
        clipRule="evenodd"
    />
</svg>
        