
<svg
    viewBox="0 0 30.5703125 30.5703125"
    xmlns="http://www.w3.org/2000/svg"
>
    <path
        fill="inherit"
        d="M15.2827 30.5663C23.6827 30.5663 30.5727 23.6763 30.5727 15.2863C30.5727 6.8863 23.6827 -0.0038 15.2827 -0.0038C6.8927 -0.0038 0.0027 6.8863 0.0027 15.2863C0.0027 23.6763 6.8927 30.5663 15.2827 30.5663ZM15.2827 25.4862C9.6527 25.4862 5.0827 20.9162 5.0827 15.2863C5.0827 9.6363 9.6527 5.0863 15.2827 5.0863C20.9327 5.0863 25.4827 9.6363 25.4827 15.2863C25.4827 20.9162 20.9327 25.4862 15.2827 25.4862ZM15.2827 22.8763C15.5627 22.8763 15.7327 22.6963 15.7327 22.4063V21.2863C17.6527 21.1963 19.3427 20.2863 19.9727 18.5663C20.0527 18.3463 20.0927 18.1563 20.0927 17.9263C20.0927 17.4763 19.8127 17.1963 19.3627 17.1963C18.9327 17.1963 18.7127 17.4363 18.5927 17.8263C18.2227 18.9862 17.0727 19.7463 15.7327 19.8663V10.4963C17.0327 10.6263 18.1427 11.4462 18.5027 12.5463C18.6327 12.9563 18.8427 13.1763 19.2627 13.1763C19.7027 13.1763 20.0027 12.9063 20.0027 12.4563C20.0027 12.1363 19.9027 11.8763 19.7927 11.6363C19.1027 10.0663 17.5127 9.1763 15.7327 9.0763V7.9662C15.7327 7.7063 15.5627 7.5063 15.2827 7.5063C15.0227 7.5063 14.8227 7.7063 14.8227 7.9662V9.0963C11.7827 9.3663 10.0227 11.8363 10.0227 15.1663C10.0227 18.4263 11.6727 20.9862 14.8227 21.2763V22.4063C14.8227 22.6863 15.0227 22.8763 15.2827 22.8763ZM11.6927 15.1663C11.6927 12.8663 12.7327 10.8263 14.8227 10.5262V19.8363C12.6727 19.5263 11.6927 17.4463 11.6927 15.1663Z"
        fillRule="evenodd"
        clipRule="evenodd"
    />
</svg>
        