<svg viewBox="0 0 19.919921875 30.857421875" xmlns="http://www.w3.org/2000/svg"><path d="M10.3937 30.862C10.9337 30.862 11.3037 30.502 11.3037 29.952V27.602C15.0237 27.412 18.4137 25.692 19.6837 22.152C19.8337 21.782 19.9237 21.262 19.9237 20.902C19.9237 20.052 19.3737 19.662 18.6737 19.662C17.9237 19.662 17.5637 20.082 17.3237 20.782C16.5837 23.362 14.1637 24.912 11.3037 25.112V5.642C13.9737 5.882 16.4037 7.492 17.1437 10.062C17.3937 10.772 17.7337 11.172 18.4937 11.172C19.2537 11.172 19.7437 10.682 19.7437 9.942C19.7437 9.552 19.6637 9.092 19.5137 8.692C18.2637 5.372 14.9437 3.392 11.3037 3.172V0.902C11.3037 0.272 10.8237 0.002 10.3937 0.002C9.9837 0.002 9.5137 0.272 9.5137 0.902V3.202C3.3937 3.732 0.0037 8.752 0.0037 15.342C0.0037 22.022 3.3637 27.042 9.5137 27.572V29.952C9.5137 30.552 9.9437 30.862 10.3937 30.862ZM2.8737 15.342C2.8737 10.532 4.9737 6.272 9.5137 5.692V25.072C5.0537 24.482 2.8737 20.342 2.8737 15.342Z" /></svg>