
<svg
    viewBox="0 0 32.935546875 27.26189615322232"
    xmlns="http://www.w3.org/2000/svg"
>
    <path
        fill="inherit"
        d="M32.9327 16.3992C32.9327 7.7792 26.3227 0.7192 17.8927 -0.0008C17.4627 -0.0408 17.1327 0.2792 17.1327 0.7192V5.1892C17.1327 5.5592 17.3927 5.8392 17.7627 5.8692C22.9927 6.5092 27.0727 10.9792 27.0727 16.3992C27.0727 18.8592 26.2227 21.1292 24.7327 23.0292C24.5427 23.2592 24.5527 23.5592 24.7627 23.7792L28.0227 27.0292C28.3327 27.3292 28.7927 27.3292 29.0627 27.0092C31.4827 24.1392 32.9327 20.4292 32.9327 16.3992ZM0.0027 16.3992C0.0027 20.4392 1.4527 24.1492 3.8727 27.0192C4.1427 27.3492 4.5927 27.3292 4.9127 27.0292L8.1727 23.7792C8.3827 23.5592 8.3927 23.2592 8.2027 23.0292C6.7027 21.1292 5.8627 18.8592 5.8627 16.3992C5.8627 10.9792 9.9427 6.5092 15.1727 5.8692C15.5427 5.8392 15.8027 5.5592 15.8027 5.1892V0.7192C15.8027 0.2792 15.4727 -0.0408 15.0427 -0.0008C6.6127 0.7192 0.0027 7.7792 0.0027 16.3992ZM16.4427 24.1792C16.7227 24.1792 16.9127 23.9792 16.9127 23.7092V22.5792C18.8227 22.4792 20.5227 21.5792 21.1327 19.8592C21.2227 19.6492 21.2627 19.4492 21.2627 19.2092C21.2627 18.7792 20.9727 18.4892 20.5327 18.4892C20.0927 18.4892 19.8827 18.7192 19.7527 19.1192C19.3827 20.2792 18.2427 21.0492 16.9127 21.1492V11.7892C18.1927 11.9292 19.3027 12.7492 19.6627 13.8392C19.7927 14.2492 20.0027 14.4692 20.4227 14.4692C20.8627 14.4692 21.1627 14.2092 21.1627 13.7392C21.1627 13.4292 21.0827 13.1792 20.9727 12.9192C20.2627 11.3692 18.6727 10.4792 16.9127 10.3692V9.2592C16.9127 8.9992 16.7227 8.7992 16.4427 8.7992C16.1827 8.7992 15.9827 8.9992 15.9827 9.2592V10.3792C12.9427 10.6492 11.1827 13.1292 11.1827 16.4692C11.1827 19.7292 12.8427 22.2892 15.9827 22.5592V23.7092C15.9827 23.9692 16.1827 24.1792 16.4427 24.1792ZM12.8527 16.4692C12.8527 14.1692 13.8927 12.1192 15.9827 11.8192V21.1292C13.8327 20.8092 12.8527 18.7292 12.8527 16.4692Z"
        fillRule="evenodd"
        clipRule="evenodd"
    />
</svg>
        