<svg viewBox="0 0 27.890625 27.890625" xmlns="http://www.w3.org/2000/svg"><path d="M13.9427 27.8864C21.6427 27.8864 27.8927 21.6264 27.8927 13.9464C27.8927 6.2464 21.6427 -0.0036 13.9427 -0.0036C6.2627 -0.0036 0.0027 6.2464 0.0027 13.9464C0.0027 21.6264 6.2627 27.8864 13.9427 27.8864ZM13.9427 21.5364C13.6827 21.5364 13.4827 21.3464 13.4827 21.0664V19.9164C10.3327 19.6464 8.6827 17.0864 8.6827 13.8264C8.6827 10.5164 10.4327 8.0164 13.4827 7.7564V6.6264C13.4827 6.3664 13.6827 6.1664 13.9427 6.1664C14.2227 6.1664 14.3927 6.3664 14.3927 6.6264V7.7364C16.1727 7.8364 17.7627 8.7264 18.4527 10.2964C18.5627 10.5364 18.6627 10.7964 18.6627 11.1164C18.6627 11.5664 18.3627 11.8364 17.9227 11.8364C17.5027 11.8364 17.2927 11.6164 17.1627 11.2064C16.8027 10.1064 15.6927 9.2864 14.3927 9.1564V18.5264C15.7527 18.4064 16.8727 17.6464 17.2427 16.4864C17.3727 16.0964 17.5927 15.8564 18.0227 15.8564C18.4727 15.8564 18.7627 16.1364 18.7627 16.5864C18.7627 16.8164 18.7127 17.0064 18.6327 17.2264C18.0227 18.9364 16.3227 19.8564 14.3927 19.9364V21.0664C14.3927 21.3564 14.2227 21.5364 13.9427 21.5364ZM10.3527 13.8264C10.3527 16.1064 11.3227 18.1664 13.4827 18.4864V9.1864C11.3727 9.4864 10.3527 11.5264 10.3527 13.8264Z" /></svg>