
<svg
    viewBox="0 0 32.935546875 27.33018496744969"
    xmlns="http://www.w3.org/2000/svg"
>
    <path
        fill="inherit"
        d="M16.4627 5.864C18.9327 5.864 21.2027 6.724 23.0227 8.134C23.2927 8.354 23.6527 8.324 23.9127 8.064L27.0827 4.894C27.4027 4.584 27.3827 4.124 27.0527 3.854C24.2027 1.454 20.4927 0.004 16.4627 0.004C12.4427 0.004 8.7327 1.454 5.8827 3.854C5.5527 4.124 5.5327 4.584 5.8527 4.894L9.0227 8.064C9.2827 8.324 9.6527 8.354 9.9527 8.124C11.7627 6.724 14.0127 5.864 16.4627 5.864ZM0.0027 16.464C0.0027 20.494 1.4527 24.204 3.8727 27.074C4.1427 27.414 4.6027 27.414 4.9127 27.094L8.1627 23.844C8.3627 23.624 8.3927 23.324 8.2027 23.094C6.7127 21.194 5.8627 18.924 5.8627 16.464C5.8627 14.014 6.7027 11.744 8.1227 9.944C8.3427 9.654 8.3427 9.284 8.0827 9.024L4.9127 5.854C4.5927 5.534 4.1427 5.534 3.8727 5.864C1.4527 8.734 0.0027 12.444 0.0027 16.464ZM32.9327 16.464C32.9327 12.444 31.4827 8.734 29.0627 5.864C28.7927 5.534 28.3327 5.534 28.0227 5.854L24.8527 9.024C24.5927 9.284 24.5827 9.654 24.8127 9.944C26.2227 11.744 27.0727 14.014 27.0727 16.464C27.0727 18.924 26.2227 21.194 24.7327 23.094C24.5427 23.324 24.5527 23.624 24.7627 23.844L28.0127 27.094C28.3327 27.414 28.7827 27.414 29.0627 27.074C31.4827 24.204 32.9327 20.494 32.9327 16.464ZM16.4427 24.244C16.7227 24.244 16.9127 24.044 16.9127 23.774V22.644C18.8227 22.544 20.5227 21.644 21.1327 19.924C21.2227 19.714 21.2627 19.514 21.2627 19.274C21.2627 18.844 20.9727 18.554 20.5327 18.554C20.0927 18.554 19.8827 18.784 19.7527 19.184C19.3827 20.344 18.2427 21.114 16.9127 21.214V11.854C18.1927 11.994 19.3027 12.814 19.6627 13.904C19.7927 14.314 20.0027 14.534 20.4227 14.534C20.8627 14.534 21.1627 14.274 21.1627 13.804C21.1627 13.494 21.0827 13.244 20.9727 12.984C20.2627 11.434 18.6727 10.544 16.9127 10.434V9.324C16.9127 9.064 16.7227 8.864 16.4427 8.864C16.1827 8.864 15.9827 9.064 15.9827 9.324V10.444C12.9427 10.714 11.1827 13.194 11.1827 16.534C11.1827 19.794 12.8427 22.354 15.9827 22.624V23.774C15.9827 24.034 16.1827 24.244 16.4427 24.244ZM12.8527 16.534C12.8527 14.234 13.8927 12.184 15.9827 11.884V21.194C13.8327 20.874 12.8527 18.794 12.8527 16.534Z"
        fillRule="evenodd"
        clipRule="evenodd"
    />
</svg>
        