<svg viewBox="0 0 30.529296875 29.17578125" xmlns="http://www.w3.org/2000/svg"><path d="M1.8137 25.919H28.7137V25.009C28.7137 24.459 28.3937 24.129 27.8337 24.129H26.9637V9.379H28.1637C28.9137 9.379 29.3537 8.829 29.3537 8.269C29.3537 7.859 29.1237 7.509 28.6137 7.219L16.9437 0.479C16.3937 0.169 15.8137 -0.001 15.2537 -0.001C14.6937 -0.001 14.1137 0.169 13.5937 0.479L1.9137 7.219C1.3937 7.509 1.1737 7.859 1.1737 8.269C1.1737 8.829 1.6137 9.379 2.3637 9.379H3.5637V24.129H2.7037C2.1437 24.129 1.8137 24.459 1.8137 25.009ZM5.6337 24.129V7.629L14.7237 2.529C14.8937 2.429 15.0837 2.379 15.2537 2.379C15.4337 2.379 15.6237 2.429 15.8037 2.529L24.8937 7.629V24.129ZM15.2737 21.989C15.5437 21.989 15.7237 21.789 15.7237 21.519V20.389C17.6337 20.289 19.3337 19.389 19.9637 17.669C20.0437 17.459 20.0837 17.249 20.0837 17.019C20.0837 16.579 19.7837 16.299 19.3437 16.299C18.9237 16.299 18.7037 16.529 18.5637 16.929C18.1937 18.089 17.0637 18.849 15.7237 18.959V9.599C17.0237 9.739 18.1337 10.559 18.4837 11.649C18.6237 12.059 18.8137 12.279 19.2537 12.279C19.6837 12.279 19.9837 12.019 19.9837 11.549C19.9837 11.239 19.8937 10.989 19.7837 10.729C19.0837 9.169 17.5037 8.289 15.7237 8.179V7.069C15.7237 6.809 15.5437 6.599 15.2737 6.599C15.0137 6.599 14.8037 6.809 14.8037 7.069V8.189C11.7537 8.459 10.0037 10.939 10.0037 14.269C10.0037 17.539 11.6637 20.099 14.8037 20.369V21.519C14.8037 21.779 15.0137 21.989 15.2737 21.989ZM11.6737 14.269C11.6737 11.979 12.7137 9.929 14.8037 9.629V18.939C12.6437 18.619 11.6737 16.539 11.6737 14.269ZM1.0937 29.179H29.4237C30.0237 29.179 30.5337 28.669 30.5337 28.069C30.5337 27.469 30.0237 26.979 29.4237 26.979H1.0937C0.4937 26.979 0.0037 27.469 0.0037 28.069C0.0037 28.669 0.4937 29.179 1.0937 29.179Z" /></svg>