<svg viewBox="0 0 25.169921875 25.169921875" xmlns="http://www.w3.org/2000/svg"><path d="M4.2937 25.1692H20.8737C23.7437 25.1692 25.1737 23.7592 25.1737 20.9492V4.2392C25.1737 1.4192 23.7437 -0.0008 20.8737 -0.0008H4.2937C1.4337 -0.0008 0.0037 1.4192 0.0037 4.2392V20.9492C0.0037 23.7592 1.4337 25.1692 4.2937 25.1692ZM4.3237 22.9692C2.9537 22.9692 2.2037 22.2392 2.2037 20.8192V4.3592C2.2037 2.9392 2.9537 2.1992 4.3237 2.1992H20.8537C22.2037 2.1992 22.9737 2.9392 22.9737 4.3592V20.8192C22.9737 22.2392 22.2037 22.9692 20.8537 22.9692ZM12.5937 20.1692C12.8637 20.1692 13.0437 19.9892 13.0437 19.6992V18.5792C14.9537 18.4892 16.6537 17.5792 17.2837 15.8592C17.3637 15.6392 17.4037 15.4492 17.4037 15.2192C17.4037 14.7692 17.1137 14.4892 16.6637 14.4892C16.2437 14.4892 16.0237 14.7292 15.9037 15.1192C15.5337 16.2792 14.3837 17.0392 13.0437 17.1592V7.7892C14.3437 7.9192 15.4537 8.7392 15.8037 9.8392C15.9437 10.2492 16.1437 10.4692 16.5737 10.4692C17.0037 10.4692 17.3037 10.1992 17.3037 9.7492C17.3037 9.4292 17.2137 9.1692 17.1037 8.9292C16.4037 7.3592 14.8237 6.4692 13.0437 6.3692V5.2592C13.0437 4.9992 12.8637 4.7992 12.5937 4.7992C12.3337 4.7992 12.1237 4.9992 12.1237 5.2592V6.3892C9.0937 6.6592 7.3237 9.1292 7.3237 12.4592C7.3237 15.7192 8.9837 18.2792 12.1237 18.5692V19.6992C12.1237 19.9792 12.3337 20.1692 12.5937 20.1692ZM8.9937 12.4592C8.9937 10.1592 10.0337 8.1192 12.1237 7.8192V17.1292C9.9837 16.8192 8.9937 14.7392 8.9937 12.4592Z" /></svg>