<svg viewBox="0 0 36.88671875 23.734375" xmlns="http://www.w3.org/2000/svg"><path d="M32.1437 23.7383H35.4637C36.3137 23.7383 36.8837 23.1283 36.8837 22.2483V1.4883C36.8837 0.5983 36.3137 -0.0017 35.4637 -0.0017H32.1437C31.2937 -0.0017 30.7037 0.5983 30.7037 1.4883V22.2483C30.7037 23.1283 31.2937 23.7383 32.1437 23.7383ZM21.9137 23.7383H25.2137C26.0537 23.7383 26.6437 23.1283 26.6437 22.2483V6.8883C26.6437 5.9983 26.0537 5.3983 25.2137 5.3983H21.9137C21.0537 5.3983 20.4837 5.9983 20.4837 6.8883V22.2483C20.4837 23.1283 21.0537 23.7383 21.9137 23.7383ZM11.6737 23.7383H14.9737C15.8337 23.7383 16.4037 23.1283 16.4037 22.2483V11.8383C16.4037 10.9483 15.8337 10.3483 14.9737 10.3483H11.6737C10.8137 10.3483 10.2437 10.9483 10.2437 11.8383V22.2483C10.2437 23.1283 10.8137 23.7383 11.6737 23.7383ZM1.4337 23.7383H4.7337C5.5937 23.7383 6.1637 23.1283 6.1637 22.2483V16.1083C6.1637 15.2183 5.5937 14.6283 4.7337 14.6283H1.4337C0.5737 14.6283 0.0037 15.2183 0.0037 16.1083V22.2483C0.0037 23.1283 0.5737 23.7383 1.4337 23.7383Z" /></svg>