
<svg
    viewBox="0 0 30.5703125 30.5703125"
    xmlns="http://www.w3.org/2000/svg"
>
    <path
        fill="inherit"
        d="M15.2827 30.5663C23.6827 30.5663 30.5727 23.6763 30.5727 15.2863C30.5727 6.8863 23.6827 -0.0038 15.2827 -0.0038C6.8927 -0.0038 0.0027 6.8863 0.0027 15.2863C0.0027 23.6763 6.8927 30.5663 15.2827 30.5663ZM15.2827 25.4862C9.6527 25.4862 5.0827 20.9162 5.0827 15.2863C5.0827 9.6363 9.6527 5.0863 15.2827 5.0863C20.9327 5.0863 25.4827 9.6363 25.4827 15.2863C25.4827 20.9162 20.9327 25.4862 15.2827 25.4862ZM15.2327 21.6163C15.5027 21.6163 15.7127 21.4063 15.7127 21.1363V19.9862C16.7327 19.8963 17.7327 19.4963 18.3927 18.8563C18.8227 18.4263 19.1727 17.7963 19.1727 17.3263C19.1727 16.8863 18.8427 16.6263 18.4527 16.6263C18.0727 16.6263 17.9127 16.8663 17.7627 17.1463C17.2927 18.0363 16.6527 18.5363 15.7127 18.6463V11.7563C16.6527 11.8663 17.3527 12.3563 17.7427 13.2763C17.8827 13.6063 18.1327 13.7763 18.4527 13.7763C18.8627 13.7763 19.1527 13.5263 19.1527 13.0863C19.1527 12.5663 18.7827 11.9863 18.3627 11.5663C17.7027 10.9063 16.7527 10.5163 15.7127 10.4363V9.2663C15.7127 9.0063 15.5027 8.8062 15.2327 8.8062C14.9727 8.8062 14.7627 9.0063 14.7627 9.2663V10.4363C12.2927 10.6663 10.8427 12.5763 10.8427 15.2063C10.8427 18.0163 12.4127 19.7563 14.7627 19.9763V21.1363C14.7627 21.4063 14.9727 21.6163 15.2327 21.6163ZM12.4327 15.2063C12.4327 13.3963 13.2227 12.0163 14.7627 11.7762V18.6363C13.1827 18.3863 12.4327 16.9963 12.4327 15.2063Z"
        fillRule="evenodd"
        clipRule="evenodd"
    />
</svg>
        