
<svg
    viewBox="0 0 32.935546875 27.26189615322232"
    xmlns="http://www.w3.org/2000/svg"
>
    <path
        fill="inherit"
        d="M32.9327 16.3992C32.9327 7.7792 26.3227 0.7192 17.8927 -0.0008C17.4627 -0.0408 17.1327 0.2792 17.1327 0.7192V5.1892C17.1327 5.5592 17.3927 5.8392 17.7627 5.8692C22.9927 6.5092 27.0727 10.9792 27.0727 16.3992C27.0727 18.8592 26.2227 21.1292 24.7327 23.0292C24.5427 23.2592 24.5527 23.5592 24.7627 23.7792L28.0227 27.0292C28.3327 27.3292 28.7927 27.3292 29.0627 27.0092C31.4827 24.1392 32.9327 20.4292 32.9327 16.3992ZM0.0027 16.3992C0.0027 20.4392 1.4527 24.1492 3.8727 27.0192C4.1427 27.3492 4.5927 27.3292 4.9127 27.0292L8.1727 23.7792C8.3827 23.5592 8.3927 23.2592 8.2027 23.0292C6.7027 21.1292 5.8627 18.8592 5.8627 16.3992C5.8627 10.9792 9.9427 6.5092 15.1727 5.8692C15.5427 5.8392 15.8027 5.5592 15.8027 5.1892V0.7192C15.8027 0.2792 15.4727 -0.0408 15.0427 -0.0008C6.6127 0.7192 0.0027 7.7792 0.0027 16.3992ZM16.4027 22.8992C16.6627 22.8992 16.8727 22.6992 16.8727 22.4392V21.2792C17.9127 21.1992 18.8927 20.7892 19.5627 20.1592C20.0027 19.7192 20.3327 19.0892 20.3327 18.6092C20.3327 18.1692 20.0027 17.9292 19.6227 17.9292C19.2527 17.9292 19.0727 18.1692 18.9227 18.4292C18.4727 19.3192 17.8127 19.8392 16.8727 19.9492V13.0592C17.8127 13.1692 18.5127 13.6592 18.9127 14.5792C19.0627 14.8892 19.2927 15.0792 19.6227 15.0792C20.0327 15.0792 20.3127 14.8192 20.3127 14.3892C20.3127 13.8692 19.9427 13.2792 19.5227 12.8592C18.8827 12.1992 17.9227 11.7992 16.8727 11.7192V10.5592C16.8727 10.2992 16.6627 10.0892 16.4027 10.0892C16.1327 10.0892 15.9327 10.2992 15.9327 10.5592V11.7292C13.4527 11.9492 12.0027 13.8692 12.0027 16.4892C12.0027 19.3092 13.5727 21.0492 15.9327 21.2592V22.4392C15.9327 22.6992 16.1327 22.8992 16.4027 22.8992ZM13.5927 16.4892C13.5927 14.6892 14.3827 13.3192 15.9327 13.0692V19.9192C14.3427 19.6792 13.5927 18.2992 13.5927 16.4892Z"
        fillRule="evenodd"
        clipRule="evenodd"
    />
</svg>
        