
<svg
    viewBox="0 0 30.529296875 29.17578125"
    xmlns="http://www.w3.org/2000/svg"
>
    <path
        fill="inherit"
        d="M1.0937 29.179H29.4237C30.0237 29.179 30.5337 28.669 30.5337 28.069C30.5337 27.469 30.0237 26.979 29.4237 26.979H28.7137V25.979C28.7137 25.429 28.3937 25.099 27.8337 25.099H26.9637V9.379H28.1637C28.9137 9.379 29.3537 8.829 29.3537 8.269C29.3537 7.859 29.1237 7.509 28.6137 7.219L16.9437 0.479C16.3937 0.169 15.8137 -0.001 15.2537 -0.001C14.6937 -0.001 14.1137 0.169 13.5937 0.479L1.9137 7.219C1.3937 7.509 1.1737 7.859 1.1737 8.269C1.1737 8.829 1.6137 9.379 2.3637 9.379H3.5637V25.099H2.7037C2.1437 25.099 1.8137 25.429 1.8137 25.979V26.979H1.0937C0.4937 26.979 0.0037 27.469 0.0037 28.069C0.0037 28.669 0.4937 29.179 1.0937 29.179ZM15.2337 22.139C14.9537 22.139 14.7337 21.919 14.7337 21.659V20.449C12.3037 20.219 10.6937 18.429 10.6937 15.529C10.6937 12.829 12.1837 10.839 14.7337 10.609V9.409C14.7337 9.149 14.9537 8.929 15.2337 8.929C15.4937 8.929 15.7137 9.149 15.7137 9.409V10.599C16.8037 10.689 17.7737 11.099 18.4537 11.759C18.8937 12.199 19.2737 12.809 19.2737 13.339C19.2737 13.799 18.9737 14.069 18.5537 14.069C18.2137 14.069 17.9537 13.879 17.8137 13.549C17.4037 12.609 16.6837 12.089 15.7137 11.979V19.089C16.6837 18.959 17.3637 18.439 17.8237 17.509C17.9637 17.249 18.1537 16.999 18.5537 16.999C18.9537 16.999 19.2937 17.249 19.2937 17.709C19.2937 18.199 18.9337 18.849 18.4837 19.309C17.8037 19.959 16.7937 20.369 15.7137 20.469V21.659C15.7137 21.919 15.4937 22.139 15.2337 22.139ZM12.3337 15.529C12.3337 17.379 13.1137 18.799 14.7337 19.059V11.999C13.1537 12.249 12.3337 13.659 12.3337 15.529Z"
        fillRule="evenodd"
        clipRule="evenodd"
    />
</svg>
        