
<svg
    viewBox={0 0 16.43359375 25.607421875}
    xmlns="http://www.w3.org/2000/svg"
>
    <path
        fill="inherit"
        d="M8.6237 25.608C9.1237 25.608 9.5337 25.198 9.5337 24.708V22.308C11.5137 22.178 13.4237 21.478 14.8337 20.098C15.6137 19.308 16.4337 17.988 16.4337 16.998C16.4337 16.298 15.9437 15.828 15.2037 15.828C14.7137 15.828 14.2637 16.148 14.0237 16.668C13.2237 18.638 11.6437 19.788 9.5337 20.018V5.588C11.6437 5.828 13.1937 6.958 14.0037 8.928C14.2237 9.458 14.6937 9.778 15.2337 9.778C15.9037 9.778 16.4037 9.328 16.4037 8.588C16.4037 7.618 15.6237 6.318 14.8037 5.498C13.4237 4.128 11.4837 3.428 9.5337 3.278V0.888C9.5337 0.398 9.1237 -0.002 8.6237 -0.002C8.1337 -0.002 7.7337 0.398 7.7337 0.888V3.298C2.8837 3.748 0.0037 7.588 0.0037 12.798C0.0037 18.038 2.8037 21.838 7.7337 22.298V24.708C7.7337 25.198 8.1337 25.608 8.6237 25.608ZM2.6637 12.798C2.6637 9.038 4.3637 6.098 7.7337 5.618V19.978C4.3237 19.498 2.6637 16.558 2.6637 12.798Z"
        fillRule="evenodd"
        clipRule="evenodd"
    />
</svg>
        