
<svg
    viewBox={0 0 25.169921875 25.169921875}
    xmlns="http://www.w3.org/2000/svg"
>
    <path
        fill="inherit"
        d="M4.2937 25.1692H20.8737C23.7437 25.1692 25.1737 23.7592 25.1737 20.9492V4.2392C25.1737 1.4192 23.7437 -0.0008 20.8737 -0.0008H4.2937C1.4337 -0.0008 0.0037 1.4192 0.0037 4.2392V20.9492C0.0037 23.7592 1.4337 25.1692 4.2937 25.1692ZM4.3237 22.9692C2.9537 22.9692 2.2037 22.2392 2.2037 20.8192V4.3592C2.2037 2.9392 2.9537 2.1992 4.3237 2.1992H20.8537C22.2037 2.1992 22.9737 2.9392 22.9737 4.3592V20.8192C22.9737 22.2392 22.2037 22.9692 20.8537 22.9692ZM12.5337 18.9092C12.8137 18.9092 13.0137 18.6992 13.0137 18.4292V17.2792C14.0437 17.1892 15.0437 16.7892 15.6937 16.1492C16.1337 15.7192 16.4737 15.0892 16.4737 14.6192C16.4737 14.1792 16.1437 13.9192 15.7637 13.9192C15.3837 13.9192 15.2137 14.1592 15.0637 14.4392C14.6037 15.3292 13.9637 15.8292 13.0137 15.9392V9.0492C13.9637 9.1592 14.6537 9.6492 15.0537 10.5692C15.1937 10.8992 15.4337 11.0692 15.7637 11.0692C16.1737 11.0692 16.4637 10.8192 16.4637 10.3792C16.4637 9.8592 16.0937 9.2792 15.6637 8.8592C15.0237 8.1992 14.0537 7.8092 13.0137 7.7292V6.5592C13.0137 6.2992 12.8137 6.0992 12.5337 6.0992C12.2737 6.0992 12.0737 6.2992 12.0737 6.5592V7.7292C9.5937 7.9592 8.1437 9.8692 8.1437 12.4992C8.1437 15.3092 9.7237 17.0492 12.0737 17.2692V18.4292C12.0737 18.6992 12.2737 18.9092 12.5337 18.9092ZM9.7337 12.4992C9.7337 10.6892 10.5237 9.3092 12.0737 9.0692V15.9292C10.4837 15.6792 9.7337 14.2892 9.7337 12.4992Z"
        fillRule="evenodd"
        clipRule="evenodd"
    />
</svg>
        