
<svg
    viewBox="0 0 27.890625 27.890625"
    xmlns="http://www.w3.org/2000/svg"
>
    <path
        fill="inherit"
        d="M13.9427 27.8864C21.6427 27.8864 27.8927 21.6264 27.8927 13.9464C27.8927 6.2464 21.6427 -0.0036 13.9427 -0.0036C6.2627 -0.0036 0.0027 6.2464 0.0027 13.9464C0.0027 21.6264 6.2627 27.8864 13.9427 27.8864ZM13.9027 20.4764C13.6327 20.4764 13.4127 20.2664 13.4127 19.9864V18.7864C10.9827 18.5564 9.3627 16.7664 9.3627 13.8664C9.3627 11.1564 10.8527 9.1764 13.4127 8.9364V7.7364C13.4127 7.4764 13.6327 7.2564 13.9027 7.2564C14.1627 7.2564 14.3827 7.4764 14.3827 7.7364V8.9364C15.4727 9.0364 16.4627 9.4364 17.1327 10.1064C17.5727 10.5364 17.9527 11.1464 17.9527 11.6764C17.9527 12.1264 17.6527 12.3964 17.2227 12.3964C16.8827 12.3964 16.6227 12.2064 16.4927 11.8764C16.0827 10.9364 15.3527 10.4364 14.3827 10.3264V17.4164C15.3527 17.3064 16.0327 16.7764 16.5027 15.8564C16.6527 15.5864 16.8327 15.3264 17.2227 15.3264C17.6227 15.3264 17.9627 15.5964 17.9627 16.0464C17.9627 16.5464 17.6127 17.1864 17.1627 17.6364C16.4927 18.2964 15.4627 18.7064 14.3827 18.7964V19.9864C14.3827 20.2664 14.1627 20.4764 13.9027 20.4764ZM11.0027 13.8664C11.0027 15.7064 11.7827 17.1264 13.4127 17.4064V10.3364C11.8227 10.5864 11.0027 11.9864 11.0027 13.8664Z"
        fillRule="evenodd"
        clipRule="evenodd"
    />
</svg>
        