
<svg
    viewBox="0 0 30.544813437289534 27.890625"
    xmlns="http://www.w3.org/2000/svg"
>
    <path
        fill="inherit"
        d="M0.9769 11.3064C-0.0131 11.3064 -0.2531 11.9764 0.2769 12.7464L3.3369 17.0864C3.7869 17.7164 4.4469 17.7064 4.8869 17.0864L7.9269 12.7264C8.4669 11.9764 8.2069 11.3064 7.2469 11.3064H5.2769C6.4669 6.1564 11.0769 2.3264 16.5969 2.3264C23.0269 2.3264 28.2169 7.5164 28.2169 13.9464C28.2169 20.3664 23.0269 25.5664 16.5969 25.5664C12.7169 25.5664 9.2569 23.6564 7.1969 20.7564C6.7669 20.1964 6.1269 20.0164 5.5569 20.3564C5.0069 20.6964 4.8369 21.4664 5.3069 22.0664C7.8369 25.6064 11.9769 27.8864 16.5969 27.8864C24.2969 27.8864 30.5469 21.6464 30.5469 13.9464C30.5469 6.2464 24.2969 -0.0036 16.5969 -0.0036C9.8069 -0.0036 4.1269 4.8664 2.8969 11.3064ZM16.5469 20.2764C16.8069 20.2764 17.0069 20.0664 17.0069 19.7964V18.6464C18.0469 18.5564 19.0469 18.1564 19.7069 17.5164C20.1369 17.0864 20.4869 16.4564 20.4869 15.9864C20.4869 15.5464 20.1569 15.2864 19.7669 15.2864C19.3869 15.2864 19.2269 15.5264 19.0769 15.8064C18.6069 16.6964 17.9669 17.1964 17.0069 17.3064V10.4164C17.9669 10.5264 18.6669 11.0164 19.0569 11.9364C19.1969 12.2664 19.4469 12.4364 19.7669 12.4364C20.1769 12.4364 20.4669 12.1864 20.4669 11.7464C20.4669 11.2264 20.0969 10.6464 19.6769 10.2264C19.0169 9.5664 18.0669 9.1764 17.0069 9.0964V7.9264C17.0069 7.6664 16.8069 7.4664 16.5469 7.4664C16.2869 7.4664 16.0769 7.6664 16.0769 7.9264V9.0964C13.6069 9.3264 12.1569 11.2364 12.1569 13.8664C12.1569 16.6764 13.7269 18.4164 16.0769 18.6364V19.7964C16.0769 20.0664 16.2869 20.2764 16.5469 20.2764ZM13.7469 13.8664C13.7469 12.0564 14.5169 10.6764 16.0769 10.4364V17.2964C14.4969 17.0464 13.7469 15.6564 13.7469 13.8664Z"
        fillRule="evenodd"
        clipRule="evenodd"
    />
</svg>
        