<svg viewBox="0 0 25.169921875 25.169921875" xmlns="http://www.w3.org/2000/svg"><path d="M4.2937 25.1692H20.8737C23.7437 25.1692 25.1737 23.7592 25.1737 20.9492V4.2392C25.1737 1.4192 23.7437 -0.0008 20.8737 -0.0008H4.2937C1.4337 -0.0008 0.0037 1.4192 0.0037 4.2392V20.9492C0.0037 23.7592 1.4337 25.1692 4.2937 25.1692ZM12.5537 19.1092C12.2737 19.1092 12.0537 18.8992 12.0537 18.6192V17.4192C9.6237 17.1892 8.0137 15.3992 8.0137 12.4992C8.0137 9.7892 9.5037 7.8092 12.0537 7.5692V6.3692C12.0537 6.1092 12.2737 5.8892 12.5537 5.8892C12.8237 5.8892 13.0437 6.1092 13.0437 6.3692V7.5692C14.1237 7.6692 15.1037 8.0692 15.7737 8.7392C16.2137 9.1692 16.5937 9.7792 16.5937 10.3092C16.5937 10.7592 16.2937 11.0292 15.8737 11.0292C15.5337 11.0292 15.2737 10.8392 15.1337 10.5092C14.7237 9.5692 14.0137 9.0692 13.0437 8.9592V16.0492C14.0137 15.9392 14.6837 15.4092 15.1437 14.4892C15.3037 14.2192 15.4737 13.9592 15.8737 13.9592C16.2737 13.9592 16.6137 14.2292 16.6137 14.6792C16.6137 15.1792 16.2537 15.8192 15.8037 16.2692C15.1337 16.9292 14.1137 17.3392 13.0437 17.4292V18.6192C13.0437 18.8992 12.8237 19.1092 12.5537 19.1092ZM9.6537 12.4992C9.6537 14.3392 10.4337 15.7592 12.0537 16.0392V8.9692C10.4737 9.2192 9.6537 10.6192 9.6537 12.4992Z" /></svg>