
<svg
    viewBox="0 0 30.529296875 29.17578125"
    xmlns="http://www.w3.org/2000/svg"
>
    <path
        fill="inherit"
        d="M1.8137 25.919H28.7137V25.009C28.7137 24.459 28.3937 24.129 27.8337 24.129H26.9637V9.379H28.1637C28.9137 9.379 29.3537 8.829 29.3537 8.269C29.3537 7.859 29.1237 7.509 28.6137 7.219L16.9437 0.479C16.3937 0.169 15.8137 -0.001 15.2537 -0.001C14.6937 -0.001 14.1137 0.169 13.5937 0.479L1.9137 7.219C1.3937 7.509 1.1737 7.859 1.1737 8.269C1.1737 8.829 1.6137 9.379 2.3637 9.379H3.5637V24.129H2.7037C2.1437 24.129 1.8137 24.459 1.8137 25.009ZM5.6337 24.129V7.629L14.7237 2.529C14.8937 2.429 15.0837 2.379 15.2537 2.379C15.4337 2.379 15.6237 2.429 15.8037 2.529L24.8937 7.629V24.129ZM15.2137 20.709C15.4737 20.709 15.6837 20.509 15.6837 20.249V19.089C16.7237 18.999 17.7237 18.589 18.3737 17.969C18.8137 17.529 19.1537 16.899 19.1537 16.419C19.1537 15.979 18.8237 15.739 18.4437 15.739C18.0637 15.739 17.8837 15.979 17.7437 16.239C17.2837 17.129 16.6437 17.649 15.6837 17.759V10.869C16.6237 10.979 17.3337 11.469 17.7337 12.389C17.8737 12.699 18.1137 12.889 18.4437 12.889C18.8537 12.889 19.1437 12.629 19.1437 12.199C19.1437 11.679 18.7737 11.089 18.3437 10.669C17.6937 10.009 16.7337 9.609 15.6837 9.529V8.369C15.6837 8.109 15.4737 7.899 15.2137 7.899C14.9537 7.899 14.7537 8.109 14.7537 8.369V9.539C12.2637 9.759 10.8237 11.679 10.8237 14.299C10.8237 17.119 12.4037 18.849 14.7537 19.069V20.249C14.7537 20.509 14.9537 20.709 15.2137 20.709ZM12.4137 14.299C12.4137 12.499 13.1937 11.129 14.7537 10.879V17.729C13.1637 17.489 12.4137 16.109 12.4137 14.299ZM1.0937 29.179H29.4237C30.0237 29.179 30.5337 28.669 30.5337 28.069C30.5337 27.469 30.0237 26.979 29.4237 26.979H1.0937C0.4937 26.979 0.0037 27.469 0.0037 28.069C0.0037 28.669 0.4937 29.179 1.0937 29.179Z"
        fillRule="evenodd"
        clipRule="evenodd"
    />
</svg>
        