
<svg
    viewBox="0 0 32.935546875 27.33018496744969"
    xmlns="http://www.w3.org/2000/svg"
>
    <path
        fill="inherit"
        d="M16.4627 5.864C18.9327 5.864 21.2027 6.724 23.0227 8.134C23.2927 8.354 23.6527 8.324 23.9127 8.064L27.0827 4.894C27.4027 4.584 27.3827 4.124 27.0527 3.854C24.2027 1.454 20.4927 0.004 16.4627 0.004C12.4427 0.004 8.7327 1.454 5.8827 3.854C5.5527 4.124 5.5327 4.584 5.8527 4.894L9.0227 8.064C9.2827 8.324 9.6527 8.354 9.9527 8.124C11.7627 6.724 14.0127 5.864 16.4627 5.864ZM0.0027 16.464C0.0027 20.494 1.4527 24.204 3.8727 27.074C4.1427 27.414 4.6027 27.414 4.9127 27.094L8.1627 23.844C8.3627 23.624 8.3927 23.324 8.2027 23.094C6.7127 21.194 5.8627 18.924 5.8627 16.464C5.8627 14.014 6.7027 11.744 8.1227 9.944C8.3427 9.654 8.3427 9.284 8.0827 9.024L4.9127 5.854C4.5927 5.534 4.1427 5.534 3.8727 5.864C1.4527 8.734 0.0027 12.444 0.0027 16.464ZM32.9327 16.464C32.9327 12.444 31.4827 8.734 29.0627 5.864C28.7927 5.534 28.3327 5.534 28.0227 5.854L24.8527 9.024C24.5927 9.284 24.5827 9.654 24.8127 9.944C26.2227 11.744 27.0727 14.014 27.0727 16.464C27.0727 18.924 26.2227 21.194 24.7327 23.094C24.5427 23.324 24.5527 23.624 24.7627 23.844L28.0127 27.094C28.3327 27.414 28.7827 27.414 29.0627 27.074C31.4827 24.204 32.9327 20.494 32.9327 16.464ZM16.4027 22.964C16.6627 22.964 16.8727 22.764 16.8727 22.504V21.344C17.9127 21.264 18.8927 20.854 19.5627 20.224C20.0027 19.784 20.3327 19.154 20.3327 18.674C20.3327 18.234 20.0027 17.994 19.6227 17.994C19.2527 17.994 19.0727 18.234 18.9227 18.494C18.4727 19.384 17.8127 19.904 16.8727 20.014V13.124C17.8127 13.234 18.5127 13.724 18.9127 14.644C19.0627 14.954 19.2927 15.144 19.6227 15.144C20.0327 15.144 20.3127 14.884 20.3127 14.454C20.3127 13.934 19.9427 13.344 19.5227 12.924C18.8827 12.264 17.9227 11.864 16.8727 11.784V10.624C16.8727 10.364 16.6627 10.154 16.4027 10.154C16.1327 10.154 15.9327 10.364 15.9327 10.624V11.794C13.4527 12.014 12.0027 13.934 12.0027 16.554C12.0027 19.374 13.5727 21.114 15.9327 21.324V22.504C15.9327 22.764 16.1327 22.964 16.4027 22.964ZM13.5927 16.554C13.5927 14.754 14.3827 13.384 15.9327 13.134V19.984C14.3427 19.744 13.5927 18.364 13.5927 16.554Z"
        fillRule="evenodd"
        clipRule="evenodd"
    />
</svg>
        