
<svg
    viewBox={0 0 27.890625 27.890625}
    xmlns="http://www.w3.org/2000/svg"
>
    <path
        fill="inherit"
        d="M13.9427 27.8864C21.6427 27.8864 27.8927 21.6464 27.8927 13.9464C27.8927 6.2464 21.6427 -0.0036 13.9427 -0.0036C6.2527 -0.0036 0.0027 6.2464 0.0027 13.9464C0.0027 21.6464 6.2527 27.8864 13.9427 27.8864ZM13.9427 25.5664C7.5227 25.5664 2.3227 20.3664 2.3227 13.9464C2.3227 7.5164 7.5227 2.3264 13.9427 2.3264C20.3727 2.3264 25.5627 7.5164 25.5627 13.9464C25.5627 20.3664 20.3727 25.5664 13.9427 25.5664ZM13.8727 20.2764C14.1327 20.2764 14.3427 20.0664 14.3427 19.7964V18.6464C15.3827 18.5564 16.3827 18.1564 17.0327 17.5164C17.4727 17.0864 17.8127 16.4564 17.8127 15.9864C17.8127 15.5464 17.4827 15.2864 17.1027 15.2864C16.7227 15.2864 16.5527 15.5264 16.4027 15.8064C15.9427 16.6964 15.3027 17.1964 14.3427 17.3064V10.4164C15.3027 10.5264 15.9927 11.0164 16.3927 11.9364C16.5327 12.2664 16.7727 12.4364 17.1027 12.4364C17.5127 12.4364 17.8027 12.1864 17.8027 11.7464C17.8027 11.2264 17.4327 10.6464 17.0127 10.2264C16.3527 9.5664 15.3927 9.1764 14.3427 9.0964V7.9264C14.3427 7.6664 14.1327 7.4664 13.8727 7.4664C13.6127 7.4664 13.4127 7.6664 13.4127 7.9264V9.0964C10.9327 9.3264 9.4927 11.2364 9.4927 13.8664C9.4927 16.6764 11.0627 18.4164 13.4127 18.6364V19.7964C13.4127 20.0664 13.6127 20.2764 13.8727 20.2764ZM11.0727 13.8664C11.0727 12.0564 11.8527 10.6764 13.4127 10.4364V17.2964C11.8227 17.0464 11.0727 15.6564 11.0727 13.8664Z"
        fillRule="evenodd"
        clipRule="evenodd"
    />
</svg>
        