
<svg
    viewBox={0 0 27.138671875 23.994140625}
    xmlns="http://www.w3.org/2000/svg"
>
    <path
        fill="inherit"
        d="M7.8737 13.045H19.2637V9.915C19.2637 7.505 20.8737 5.725 23.1637 5.725H23.3137V2.965C23.3137 1.175 22.1437 -0.005 20.4437 -0.005H6.7037C4.9737 -0.005 3.8137 1.175 3.8137 2.965V5.725H3.9637C6.2637 5.725 7.8737 7.505 7.8737 9.915ZM0.0037 18.225C0.0037 19.935 1.1337 21.065 2.8037 21.065H3.6237V22.795C3.6237 23.525 4.0837 23.995 4.8237 23.995H5.6837C6.4237 23.995 6.9037 23.525 6.9037 22.795V21.065H20.2337V22.795C20.2337 23.525 20.7137 23.995 21.4537 23.995H22.3037C23.0337 23.995 23.5037 23.525 23.5037 22.795V21.065H24.3337C25.9937 21.065 27.1437 19.935 27.1437 18.225V9.915C27.1437 8.215 25.9937 7.065 24.3337 7.065H23.6537C21.9937 7.065 20.8537 8.215 20.8537 9.915V14.625H6.2737V9.915C6.2737 8.215 5.1437 7.065 3.4737 7.065H2.8037C1.1337 7.065 0.0037 8.215 0.0037 9.915Z"
        fillRule="evenodd"
        clipRule="evenodd"
    />
</svg>
        