
<svg
    viewBox="0 0 19.76953125 29.599609375"
    xmlns="http://www.w3.org/2000/svg"
>
    <path
        fill="inherit"
        d="M2.5837 29.5977H3.0037C3.6737 29.5977 4.1437 29.1377 4.1437 28.4677V23.5177H15.6237V28.4677C15.6237 29.1377 16.0937 29.5977 16.7637 29.5977H17.1837C17.8537 29.5977 18.3237 29.1377 18.3237 28.4677V20.2477C19.2937 20.0277 19.7737 19.3277 19.7737 18.1577V16.0777C19.7737 14.6177 19.0137 13.9077 17.5137 13.9077H15.8737V10.1477H16.2937C17.9137 10.1477 18.6737 9.4077 18.6737 7.8377V2.3077C18.6737 0.7377 17.9137 -0.0023 16.2937 -0.0023H3.4737C1.8637 -0.0023 1.0937 0.7377 1.0937 2.3077V7.8377C1.0937 9.4077 1.8637 10.1477 3.4737 10.1477H3.8937V13.9077H2.2537C0.7537 13.9077 0.0037 14.6177 0.0037 16.0777V18.1577C0.0037 19.3277 0.4737 20.0277 1.4537 20.2477V28.4677C1.4537 29.1377 1.9137 29.5977 2.5837 29.5977ZM6.2337 13.9077V10.1477H13.5337V13.9077ZM4.1437 21.4477V20.3277H15.6237V21.4477Z"
        fillRule="evenodd"
        clipRule="evenodd"
    />
</svg>
        