
<svg
    viewBox={0 0 42.2734375 34.904296875}
    xmlns="http://www.w3.org/2000/svg"
>
    <path
        fill="inherit"
        d="M21.1537 34.9001C23.1037 34.9001 24.7237 33.3001 24.7237 31.3401C24.7237 29.6801 23.5737 28.2701 22.0437 27.8801V25.0201C22.4037 24.9501 22.7737 24.8601 23.1037 24.7001C25.6737 26.6501 28.7937 26.4301 30.6537 24.8101C33.9237 27.5401 39.1037 25.6101 39.8437 21.8501C41.2037 21.6001 42.2737 20.3801 42.2737 18.9501C42.2737 17.3401 40.9437 16.0201 39.3437 16.0201C37.7237 16.0201 36.4237 17.3401 36.4237 18.9501C36.4237 20.1001 37.0937 21.1101 38.0637 21.5901C37.5137 24.0601 33.9437 25.2801 31.7337 23.4601C31.9937 22.9501 32.1837 22.3901 32.2537 21.7801C33.8137 21.3801 34.9737 19.9701 34.9737 18.2901C34.9737 16.3101 33.3637 14.6801 31.3937 14.6801C29.4037 14.6801 27.7837 16.3101 27.7837 18.2901C27.7837 19.9501 28.9137 21.3401 30.4437 21.7501C29.9937 24.1301 27.1437 25.1001 24.7237 23.6401C25.6737 22.7201 26.2637 21.4201 26.2637 19.9901C26.2637 17.4601 24.4437 15.3701 22.0437 14.9401V7.6001C25.0637 7.2501 27.8337 5.1301 27.8337 2.4701C27.8337 1.5701 27.3437 0.9601 26.1837 0.6001C24.7337 0.1801 22.9437 0.0001 21.1337 0.0001C19.3437 0.0001 17.5537 0.1801 16.1037 0.6001C14.9437 0.9601 14.4537 1.5701 14.4537 2.4701C14.4537 5.1301 17.2237 7.2501 20.2437 7.6001V14.9401C17.8437 15.3701 16.0237 17.4601 16.0237 19.9901C16.0237 21.4201 16.6137 22.7101 17.5537 23.6401C15.1337 25.1001 12.2737 24.1301 11.8237 21.7501C13.3537 21.3401 14.4937 19.9501 14.4937 18.2901C14.4937 16.3101 12.8637 14.6801 10.8837 14.6801C8.9137 14.6801 7.3037 16.3101 7.3037 18.2901C7.3037 19.9701 8.4637 21.3801 10.0237 21.7801C10.0937 22.3901 10.2837 22.9501 10.5437 23.4601C8.3237 25.2801 4.7537 24.0601 4.2137 21.5901C5.1837 21.1101 5.8537 20.1001 5.8537 18.9501C5.8537 17.3401 4.5537 16.0201 2.9237 16.0201C1.3237 16.0201 0.0037 17.3401 0.0037 18.9501C0.0037 20.3801 1.0637 21.6001 2.4337 21.8501C3.1737 25.6101 8.3537 27.5401 11.6237 24.8101C13.4837 26.4301 16.5937 26.6501 19.1637 24.7001C19.5137 24.8401 19.8637 24.9501 20.2437 25.0201V27.8801C18.7137 28.2701 17.5637 29.6801 17.5637 31.3401C17.5637 33.3001 19.1837 34.9001 21.1537 34.9001ZM21.1337 5.8701C18.6037 5.8701 16.5937 4.4801 16.2537 2.5701C16.2437 2.4901 16.3137 2.4101 16.4337 2.3501C17.8837 1.9701 19.4937 1.7801 21.1337 1.7801C22.7737 1.7801 24.3937 1.9701 25.8537 2.3501C25.9737 2.4101 26.0437 2.4901 26.0337 2.5701C25.6937 4.4801 23.6837 5.8701 21.1337 5.8701ZM10.8837 20.1001C9.8937 20.1001 9.0937 19.2801 9.0937 18.2901C9.0937 17.2901 9.8937 16.4701 10.8837 16.4701C11.8837 16.4701 12.7037 17.2901 12.7037 18.2901C12.7037 19.2801 11.8837 20.1001 10.8837 20.1001ZM31.3937 20.1001C30.3937 20.1001 29.5737 19.2801 29.5737 18.2901C29.5737 17.2901 30.3937 16.4701 31.3937 16.4701C32.3737 16.4701 33.1837 17.2901 33.1837 18.2901C33.1837 19.2801 32.3737 20.1001 31.3937 20.1001ZM21.1337 23.3101C19.2937 23.3101 17.8137 21.8301 17.8137 19.9901C17.8137 18.1301 19.2937 16.6501 21.1337 16.6501C22.9837 16.6501 24.4737 18.1301 24.4737 19.9901C24.4737 21.8301 22.9837 23.3101 21.1337 23.3101ZM2.9237 20.3701C2.1637 20.3701 1.5137 19.7301 1.5137 18.9501C1.5137 18.1801 2.1637 17.5401 2.9237 17.5401C3.7237 17.5401 4.3337 18.1701 4.3337 18.9501C4.3337 19.7301 3.6937 20.3701 2.9237 20.3701ZM39.3437 20.3701C38.5837 20.3701 37.9437 19.7301 37.9437 18.9501C37.9437 18.1701 38.5537 17.5401 39.3437 17.5401C40.1137 17.5401 40.7537 18.1801 40.7537 18.9501C40.7537 19.7301 40.1137 20.3701 39.3437 20.3701ZM21.1537 33.1101C20.1637 33.1101 19.3637 32.3201 19.3637 31.3401C19.3637 30.3501 20.1637 29.5601 21.1537 29.5601C22.1237 29.5601 22.9237 30.3501 22.9237 31.3401C22.9237 32.3201 22.1237 33.1101 21.1537 33.1101Z"
        fillRule="evenodd"
        clipRule="evenodd"
    />
</svg>
        