
<svg
    viewBox={0 0 22.99609375 29.298828125}
    xmlns="http://www.w3.org/2000/svg"
>
    <path
        fill="inherit"
        d="M4.1937 29.3037H21.9037C22.5037 29.3037 22.9937 28.8237 22.9937 28.2037C22.9937 27.7237 22.6637 27.3037 22.2337 27.1537C20.5037 26.4737 20.1537 24.2437 21.8437 22.5337C22.3637 22.0137 22.9937 21.3437 22.9937 19.9737V4.2937C22.9937 1.4537 21.5837 0.0037 18.7537 0.0037H4.2337C1.4037 0.0037 0.0037 1.4337 0.0037 4.2937V25.0737C0.0037 27.8937 1.4237 29.3037 4.1937 29.3037ZM3.9137 20.9637C3.4837 20.9637 3.1337 20.6037 3.1337 20.1637V2.8937C3.1337 2.4637 3.4837 2.1237 3.9137 2.1237C4.3337 2.1237 4.7037 2.4637 4.7037 2.8937V20.1637C4.7037 20.6037 4.3337 20.9637 3.9137 20.9637ZM9.2437 16.8537C8.6937 16.8537 8.3437 16.5137 8.3437 16.0137C8.3437 15.8337 8.3637 15.6537 8.4637 15.3837L11.8837 6.1837C12.1237 5.5537 12.5737 5.2237 13.2337 5.2237C13.9037 5.2237 14.3737 5.5537 14.6137 6.1837L18.0337 15.3837C18.1437 15.6537 18.1737 15.8337 18.1737 16.0237C18.1737 16.5137 17.8037 16.8537 17.2537 16.8537C16.8137 16.8537 16.5037 16.6537 16.3137 16.0737L15.4237 13.4937H11.0737L10.1837 16.0737C9.9937 16.6537 9.6837 16.8537 9.2437 16.8537ZM11.5637 12.0137H14.9337L13.3137 7.3137H13.1837ZM4.3237 27.0937C2.9437 27.0937 2.2037 26.3637 2.2037 25.0637C2.2037 23.8337 3.0737 23.0337 4.4437 23.0337H18.4737C18.6437 23.0337 18.8137 23.0237 18.9537 22.9937C18.3037 24.4137 18.4137 25.9237 19.1437 27.0937Z"
        fillRule="evenodd"
        clipRule="evenodd"
    />
</svg>
        