
<svg
    viewBox="0 0 27.890625 27.890625"
    xmlns="http://www.w3.org/2000/svg"
>
    <path
        fill="inherit"
        d="M13.9427 27.8927C21.6427 27.8927 27.8927 21.6427 27.8927 13.9427C27.8927 6.2627 21.6427 0.0027 13.9427 0.0027C6.2627 0.0027 0.0027 6.2627 0.0027 13.9427C0.0027 21.6427 6.2627 27.8927 13.9427 27.8927ZM6.2727 19.2627V7.9127C6.2727 7.4927 6.6327 7.1227 7.0527 7.1227C7.4827 7.1227 7.8427 7.4927 7.8427 7.9127V13.5527L9.6227 11.7627C9.9527 11.4327 10.2827 11.2527 10.7027 11.2527C11.1127 11.2527 11.4727 11.4127 11.8027 11.7627L14.2827 14.3127C14.3527 14.3927 14.4127 14.3927 14.4827 14.3027L17.0127 11.7427L15.9927 10.7427C15.6427 10.4027 15.8627 9.8727 16.3627 9.7527L20.4027 8.7327C20.8627 8.6127 21.2827 9.0127 21.1627 9.4627L20.1427 13.5227C20.0027 14.0527 19.4727 14.2427 19.1227 13.8927L18.1327 12.8627L15.4727 15.5727C15.1527 15.9027 14.7827 16.0827 14.3727 16.0827C13.9727 16.0827 13.6127 15.9127 13.2727 15.5727L10.8127 13.0427C10.7427 12.9627 10.6827 12.9627 10.5927 13.0427L7.8427 15.8027V18.6727C7.8427 18.7727 7.8727 18.8127 7.9527 18.8127H20.8127C21.2327 18.8127 21.6027 19.1727 21.6027 19.6027C21.6027 20.0327 21.2327 20.3827 20.8127 20.3827H7.3827C6.7127 20.3827 6.2727 19.9427 6.2727 19.2627Z"
        fillRule="evenodd"
        clipRule="evenodd"
    />
</svg>
        