<svg viewBox="0 0 22.99609375 33.126953125" xmlns="http://www.w3.org/2000/svg"><path d="M7.2737 6.9407H15.7237C16.5137 6.9407 16.9937 6.4407 16.9937 5.5907V4.1607C16.9937 3.3107 16.5137 2.8007 15.7237 2.8007H14.4637C14.3737 1.2607 13.0837 0.0007 11.4937 0.0007C9.9137 0.0007 8.6237 1.2607 8.5337 2.8007H7.2737C6.4837 2.8007 6.0037 3.3107 6.0037 4.1607V5.5907C6.0037 6.4407 6.4837 6.9407 7.2737 6.9407ZM11.4937 4.1007C10.8437 4.1007 10.3037 3.5507 10.3037 2.9107C10.3037 2.2407 10.8437 1.7107 11.4937 1.7107C12.1537 1.7107 12.6837 2.2407 12.6837 2.9107C12.6837 3.5507 12.1537 4.1007 11.4937 4.1007ZM4.2337 33.1307H18.7537C21.5837 33.1307 22.9937 31.7007 22.9937 28.8307V8.0907C22.9937 5.2207 21.5837 3.8007 18.8937 3.8007H18.5837V5.5907C18.5837 7.3107 17.4137 8.5307 15.7237 8.5307H7.2737C5.5737 8.5307 4.4137 7.3107 4.4137 5.5907V3.8007H4.1037C1.4037 3.8007 0.0037 5.2207 0.0037 8.0907V28.8307C0.0037 31.7007 1.4037 33.1307 4.2337 33.1307ZM11.4137 18.4407C10.7237 18.4407 10.1537 17.9207 10.0737 17.2707L6.3937 15.3907C6.1837 15.5407 5.9037 15.6407 5.6237 15.6407C4.8537 15.6407 4.2537 15.0207 4.2537 14.2707C4.2537 13.5107 4.8537 12.8907 5.6237 12.8907C6.3337 12.8907 6.9437 13.4407 6.9837 14.2207L10.5637 16.0207C10.8037 15.8207 11.0837 15.6907 11.4137 15.6907C11.6637 15.6907 11.8937 15.7607 12.0737 15.8707L16.0237 12.9607C15.9837 12.0007 16.6837 11.4807 17.3637 11.4807C18.1437 11.4807 18.7437 12.1007 18.7437 12.8807C18.7437 13.6207 18.1437 14.2307 17.3637 14.2307C17.1437 14.2307 16.9237 14.1807 16.7437 14.0807L12.7937 17.0107C12.7937 17.9807 12.0837 18.4407 11.4137 18.4407ZM5.2737 23.0007C4.7837 23.0007 4.3937 22.6007 4.3937 22.1107C4.3937 21.6307 4.7837 21.2507 5.2737 21.2507H17.7237C18.2137 21.2507 18.6037 21.6307 18.6037 22.1107C18.6037 22.6007 18.2137 23.0007 17.7237 23.0007ZM5.2737 28.2707C4.8037 28.2707 4.3937 27.8807 4.3937 27.3807C4.3937 26.9107 4.7837 26.5107 5.2737 26.5107H12.3837C12.8837 26.5107 13.2637 26.9107 13.2637 27.3807C13.2637 27.8807 12.8637 28.2707 12.3837 28.2707Z" /></svg>