
<svg
    viewBox="0 0 22.99609375 29.298828125"
    xmlns="http://www.w3.org/2000/svg"
>
    <path
        fill="inherit"
        d="M4.1937 29.3037H21.9037C22.5037 29.3037 22.9937 28.8237 22.9937 28.2037C22.9937 27.7237 22.6637 27.3037 22.2337 27.1537C20.5037 26.4737 20.1537 24.2437 21.8437 22.5337C22.3637 22.0137 22.9937 21.3437 22.9937 19.9737V4.2937C22.9937 1.4537 21.5837 0.0037 18.7537 0.0037H4.2337C1.4037 0.0037 0.0037 1.4337 0.0037 4.2937V25.0737C0.0037 27.8937 1.4237 29.3037 4.1937 29.3037ZM18.6437 2.2037C20.0737 2.2037 20.7937 2.9637 20.7937 4.3337V19.6737C20.7937 20.4137 20.3737 20.8337 19.6037 20.8337H5.6037V2.2037ZM2.2037 21.3937V4.3337C2.2037 3.1437 2.7437 2.4237 3.8137 2.2437V20.8637C3.1837 20.9337 2.6637 21.1137 2.2037 21.3937ZM9.3537 17.0937C9.7737 17.0937 10.0737 16.8837 10.2637 16.3337L11.1337 13.8237H15.3537L16.2137 16.3337C16.3937 16.8837 16.6937 17.0937 17.1337 17.0937C17.6537 17.0937 17.9937 16.7637 17.9937 16.2737C17.9937 16.0937 17.9637 15.9137 17.8737 15.6637L14.5637 6.7437C14.3237 6.1237 13.8737 5.8137 13.2337 5.8137C12.5937 5.8137 12.1537 6.1237 11.9237 6.7437L8.6037 15.6637C8.5137 15.9137 8.4737 16.0937 8.4737 16.2737C8.4737 16.7637 8.8137 17.0937 9.3537 17.0937ZM11.5937 12.4037L13.1837 7.8337H13.3037L14.8737 12.4037ZM4.3237 27.0937C2.9437 27.0937 2.2037 26.3637 2.2037 25.0637C2.2037 23.8337 3.0737 23.0337 4.4437 23.0337H18.4737C18.6437 23.0337 18.8137 23.0237 18.9537 22.9937C18.3037 24.4137 18.4137 25.9237 19.1437 27.0937Z"
        fillRule="evenodd"
        clipRule="evenodd"
    />
</svg>
        