
<svg
    viewBox={0 0 30.501953125 25.251953125}
    xmlns="http://www.w3.org/2000/svg"
>
    <path
        fill="inherit"
        d="M8.6937 19.5902C8.6937 20.3602 9.1737 20.8102 9.9537 20.8102H13.1237C13.9037 20.8102 14.3937 20.3602 14.3937 19.5902V1.2202C14.3937 0.4502 13.9037 0.0002 13.1237 0.0002H9.9537C9.1737 0.0002 8.6937 0.4502 8.6937 1.2202ZM16.0937 19.5902C16.0937 20.3602 16.5837 20.8102 17.3637 20.8102H20.5237C21.3137 20.8102 21.8037 20.3602 21.8037 19.5902V4.3302C21.8037 3.5702 21.3137 3.1202 20.5237 3.1202H17.3637C16.5837 3.1202 16.0937 3.5702 16.0937 4.3302ZM1.2837 19.5902C1.2837 20.3602 1.7737 20.8102 2.5537 20.8102H5.7137C6.5037 20.8102 7.0037 20.3602 7.0037 19.5902V7.4902C7.0037 6.7402 6.5037 6.2802 5.7137 6.2802H2.5537C1.7737 6.2802 1.2837 6.7402 1.2837 7.4902ZM23.5037 19.5902C23.5037 20.3602 23.9837 20.8102 24.7737 20.8102H27.9337C28.7137 20.8102 29.2037 20.3602 29.2037 19.5902V10.5502C29.2037 9.7902 28.7137 9.3202 27.9337 9.3202H24.7737C23.9837 9.3202 23.5037 9.7902 23.5037 10.5502ZM0.0037 24.1602C0.0037 24.7702 0.5037 25.2502 1.0937 25.2502H29.3937C29.9937 25.2502 30.5037 24.7702 30.5037 24.1602C30.5037 23.5602 29.9937 23.0602 29.3937 23.0602H1.0937C0.5037 23.0602 0.0037 23.5602 0.0037 24.1602Z"
        fillRule="evenodd"
        clipRule="evenodd"
    />
</svg>
        