
<svg
    viewBox={0 0 30.501953125 25.251953125}
    xmlns="http://www.w3.org/2000/svg"
>
    <path
        fill="inherit"
        d="M23.5037 19.5902C23.5037 20.3602 23.9837 20.8102 24.7637 20.8102H27.9137C28.7137 20.8102 29.2037 20.3602 29.2037 19.5902V1.2202C29.2037 0.4502 28.7137 0.0002 27.9137 0.0002H24.7637C23.9837 0.0002 23.5037 0.4502 23.5037 1.2202ZM16.0937 19.5902C16.0937 20.3602 16.5837 20.8102 17.3637 20.8102H20.5237C21.3137 20.8102 21.8037 20.3602 21.8037 19.5902V5.1302C21.8037 4.3602 21.3137 3.9102 20.5237 3.9102H17.3637C16.5837 3.9102 16.0937 4.3602 16.0937 5.1302ZM8.6937 19.5902C8.6937 20.3602 9.1737 20.8102 9.9537 20.8102H13.1237C13.9037 20.8102 14.3937 20.3602 14.3937 19.5902V9.0402C14.3937 8.3002 13.9037 7.8302 13.1237 7.8302H9.9537C9.1737 7.8302 8.6937 8.3002 8.6937 9.0402ZM1.2837 19.5902C1.2837 20.3602 1.7737 20.8102 2.5737 20.8102H5.7237C6.5037 20.8102 7.0037 20.3602 7.0037 19.5902V12.9602C7.0037 12.2002 6.5037 11.7302 5.7237 11.7302H2.5737C1.7737 11.7302 1.2837 12.2002 1.2837 12.9602ZM1.0937 25.2502H29.3937C29.9937 25.2502 30.5037 24.7702 30.5037 24.1602C30.5037 23.5602 29.9937 23.0602 29.3937 23.0602H1.0937C0.5037 23.0602 0.0037 23.5602 0.0037 24.1602C0.0037 24.7702 0.5037 25.2502 1.0937 25.2502Z"
        fillRule="evenodd"
        clipRule="evenodd"
    />
</svg>
        