
<svg
    viewBox={0 0 29.39453125 25.279296875}
    xmlns="http://www.w3.org/2000/svg"
>
    <path
        fill="inherit"
        d="M0.0037 24.2019C0.0037 24.8519 0.4337 25.2819 1.0937 25.2819H28.2837C28.8937 25.2819 29.3937 24.8019 29.3937 24.1819C29.3937 23.5819 28.8937 23.0919 28.2837 23.0919H2.5837C2.2937 23.0919 2.2037 22.9919 2.2037 22.7119V12.8819H19.7837V16.0919C19.7837 16.7919 20.4437 17.0219 21.0637 16.6519L28.1337 12.4119C28.7137 12.0719 28.6837 11.3519 28.1237 11.0019L21.0537 6.7719C20.4237 6.4119 19.7837 6.6419 19.7837 7.3319V10.5419H2.2037V1.0919C2.2037 0.5019 1.7137 0.0019 1.1037 0.0019C0.4937 0.0019 0.0037 0.5019 0.0037 1.0919Z"
        fillRule="evenodd"
        clipRule="evenodd"
    />
</svg>
        