
<svg
    viewBox={0 0 27.890625 27.890625}
    xmlns="http://www.w3.org/2000/svg"
>
    <path
        fill="inherit"
        d="M13.9427 27.8864C21.6427 27.8864 27.8927 21.6264 27.8927 13.9464C27.8927 6.2464 21.6427 -0.0036 13.9427 -0.0036C6.2627 -0.0036 0.0027 6.2464 0.0027 13.9464C0.0027 21.6264 6.2627 27.8864 13.9427 27.8864ZM9.3127 20.5464C8.6727 20.5464 8.2627 20.1564 8.2627 19.5764C8.2627 19.3564 8.2827 19.1564 8.4127 18.8364L12.3627 8.2064C12.6427 7.4664 13.1627 7.0864 13.9327 7.0864C14.7127 7.0864 15.2427 7.4664 15.5127 8.2064L19.4827 18.8364C19.5927 19.1564 19.6327 19.3564 19.6327 19.5764C19.6327 20.1564 19.2127 20.5464 18.5827 20.5464C18.0627 20.5464 17.7027 20.3064 17.4827 19.6464L16.4627 16.6564H11.4327L10.4027 19.6464C10.1827 20.3164 9.8127 20.5464 9.3127 20.5464ZM11.9927 14.9464H15.8827L14.0127 9.5064H13.8627Z"
        fillRule="evenodd"
        clipRule="evenodd"
    />
</svg>
        