
<svg
    viewBox="0 0 27.890625 27.890625"
    xmlns="http://www.w3.org/2000/svg"
>
    <path
        fill="inherit"
        d="M13.9427 27.8864C21.6427 27.8864 27.8927 21.6464 27.8927 13.9464C27.8927 6.2464 21.6427 -0.0036 13.9427 -0.0036C6.2527 -0.0036 0.0027 6.2464 0.0027 13.9464C0.0027 21.6464 6.2527 27.8864 13.9427 27.8864ZM13.9427 25.5664C7.5227 25.5664 2.3227 20.3664 2.3227 13.9464C2.3227 7.5164 7.5227 2.3264 13.9427 2.3264C20.3727 2.3264 25.5627 7.5164 25.5627 13.9464C25.5627 20.3664 20.3727 25.5664 13.9427 25.5664ZM6.5727 19.0964C6.5727 19.7464 7.0027 20.1664 7.6427 20.1664H20.6727C21.0827 20.1664 21.4327 19.8264 21.4327 19.4164C21.4327 19.0064 21.0827 18.6664 20.6727 18.6664H8.1027C8.0827 18.6664 8.0927 18.6764 8.0927 18.6364V11.7864L9.8127 13.5464C10.1327 13.8764 10.4627 14.0264 10.8727 14.0264C11.2627 14.0264 11.6027 13.8764 11.9227 13.5464L14.3427 11.0564C14.4127 10.9764 14.4627 10.9764 14.5327 11.0764L16.9927 13.5664L16.0127 14.5364C15.6727 14.8464 15.8727 15.3764 16.3627 15.5064L20.2727 16.4764C20.7227 16.5964 21.1227 16.2164 21.0127 15.7764L20.0127 11.8364C19.8827 11.3364 19.3827 11.1564 19.0427 11.4864L18.0727 12.4864L15.4927 9.8564C15.1727 9.5264 14.8227 9.3664 14.4227 9.3664C14.0427 9.3664 13.7127 9.5264 13.3727 9.8564L10.9827 12.2864C10.9127 12.3864 10.8427 12.3864 10.7627 12.2864L8.0927 9.6064V8.0764C8.0927 7.6664 7.7427 7.3264 7.3327 7.3264C6.9227 7.3264 6.5727 7.6664 6.5727 8.0764Z"
        fillRule="evenodd"
        clipRule="evenodd"
    />
</svg>
        