
<svg
    viewBox="0 0 42.7109375 20.37109375"
    xmlns="http://www.w3.org/2000/svg"
>
    <path
        fill="inherit"
        d="M15.9537 20.3587C16.6137 20.3587 17.0937 19.9087 17.0937 19.1987V17.1987H17.1437C18.0337 19.1587 19.8537 20.3687 22.1337 20.3687C25.8937 20.3687 28.3737 17.3587 28.3737 12.7587C28.3737 8.1487 25.8837 5.1387 22.1637 5.1387C19.9037 5.1387 18.0737 6.3687 17.2237 8.2987H17.1537V1.2287C17.1537 0.4887 16.6937 -0.0013 16.0137 -0.0013C15.3137 -0.0013 14.8437 0.4887 14.8437 1.2287V19.1987C14.8437 19.9187 15.3037 20.3587 15.9537 20.3587ZM4.9037 20.3587C7.0137 20.3587 8.9937 19.2087 9.8437 17.4287H9.8837V19.2387C9.8837 19.9187 10.3537 20.3687 10.9937 20.3687C11.6637 20.3687 12.1137 19.9187 12.1137 19.1787V10.0487C12.1137 7.0687 9.9237 5.1387 6.4537 5.1387C3.8737 5.1387 1.7537 6.2787 0.9537 8.0387C0.7937 8.3687 0.6937 8.7087 0.6937 8.9987C0.6937 9.5987 1.1437 9.9987 1.7337 9.9987C2.1637 9.9987 2.4837 9.8287 2.6937 9.4487C3.4437 7.8587 4.6237 7.1187 6.3937 7.1187C8.5337 7.1187 9.8037 8.3087 9.8037 10.2287V11.4187L5.3837 11.6587C1.9237 11.8487 0.0037 13.4487 0.0037 15.9987C0.0037 18.6087 2.0137 20.3587 4.9037 20.3587ZM36.7637 20.3687C39.4737 20.3687 41.7937 18.8787 42.5837 16.7787C42.6737 16.5387 42.7137 16.3087 42.7137 16.1187C42.7137 15.5287 42.2837 15.1187 41.7137 15.1187C41.1937 15.1187 40.9337 15.3287 40.6237 15.9287C39.8937 17.4987 38.6537 18.3587 36.7737 18.3587C34.0737 18.3587 32.3037 16.2287 32.3037 12.7687C32.3037 9.3387 34.0837 7.1487 36.7737 7.1487C38.5537 7.1487 39.8537 7.9887 40.5937 9.6087C40.8937 10.1887 41.1637 10.3887 41.6737 10.3887C42.2637 10.3887 42.6737 10.0087 42.6737 9.4087C42.6737 9.2387 42.6337 9.0387 42.5737 8.8587C41.8737 6.7387 39.5237 5.1387 36.7237 5.1387C32.6237 5.1387 29.9437 8.1587 29.9437 12.7787C29.9437 17.4287 32.6337 20.3687 36.7637 20.3687ZM21.6137 18.3587C19.0037 18.3587 17.1737 16.1487 17.1737 12.7687C17.1737 9.3887 19.0137 7.1687 21.6137 7.1687C24.2937 7.1687 25.9737 9.3287 25.9737 12.7587C25.9737 16.1987 24.2937 18.3587 21.6137 18.3587ZM5.4737 18.4587C3.6237 18.4587 2.3637 17.4487 2.3637 15.9387C2.3637 14.4887 3.5237 13.5187 5.6737 13.3887L9.8037 13.1287V14.5787C9.8037 16.7487 7.8737 18.4587 5.4737 18.4587Z"
        fillRule="evenodd"
        clipRule="evenodd"
    />
</svg>
        