<svg viewBox="0 0 29.39453125 25.279296875" xmlns="http://www.w3.org/2000/svg"><path d="M0.0037 24.2019C0.0037 24.8519 0.4337 25.2819 1.0937 25.2819H28.2837C28.8937 25.2819 29.3937 24.8019 29.3937 24.1819C29.3937 23.5819 28.8937 23.0919 28.2837 23.0919H2.5837C2.2937 23.0919 2.2037 22.9919 2.2037 22.7119V15.2619L8.3137 11.7119C8.7537 12.1719 9.3637 12.4519 10.0537 12.4519C10.6637 12.4519 11.2337 12.2219 11.6637 11.8419L14.2737 14.0819C14.1337 14.3719 14.0637 14.7019 14.0637 15.0419C14.0637 16.3819 15.1637 17.4719 16.5037 17.4719C17.8437 17.4719 18.9237 16.3819 18.9237 15.0419C18.9237 14.9019 18.9237 14.7819 18.8937 14.6419L25.3737 10.7919C25.7837 11.0719 26.2737 11.2519 26.8137 11.2519C28.1537 11.2519 29.2437 10.1619 29.2437 8.8219C29.2437 7.4819 28.1537 6.3819 26.8137 6.3819C25.4737 6.3819 24.3737 7.4819 24.3737 8.8219C24.3737 9.0219 24.4037 9.2319 24.4637 9.4219L18.1037 13.2219C17.6737 12.8419 17.1137 12.6219 16.5037 12.6219C16.0737 12.6219 15.6637 12.7319 15.3237 12.9219L12.4437 10.4419C12.4737 10.3119 12.4837 10.1719 12.4837 10.0219C12.4837 8.6819 11.3937 7.6019 10.0537 7.6019C8.7137 7.6019 7.6137 8.6819 7.6137 10.0219C7.6137 10.1019 7.6337 10.1719 7.6337 10.2419L2.2037 13.3819V1.0919C2.2037 0.5019 1.7137 0.0019 1.1037 0.0019C0.4937 0.0019 0.0037 0.5019 0.0037 1.0919Z" /></svg>