
<svg
    viewBox="0 0 30.1328125 28.369140625"
    xmlns="http://www.w3.org/2000/svg"
>
    <path
        fill="inherit"
        d="M8.1237 28.3728C8.6537 28.3728 9.0537 28.0928 9.6937 27.4928L14.6337 22.9828H23.8737C27.9437 22.9828 30.1337 20.7428 30.1337 16.7328V6.2628C30.1337 2.2528 27.9437 0.0028 23.8737 0.0028H6.2637C2.1837 0.0028 0.0037 2.2428 0.0037 6.2628V16.7328C0.0037 20.7528 2.1837 22.9828 6.2637 22.9828H6.9037V26.9628C6.9037 27.8128 7.3437 28.3728 8.1237 28.3728ZM10.4437 18.0928C9.8037 18.0928 9.3937 17.6928 9.3937 17.1128C9.3937 16.9028 9.4237 16.6928 9.5437 16.3828L13.4937 5.7428C13.7637 5.0028 14.3037 4.6328 15.0637 4.6328C15.8337 4.6328 16.3837 5.0028 16.6537 5.7428L20.6037 16.3828C20.7237 16.6928 20.7537 16.9028 20.7537 17.1128C20.7537 17.6928 20.3437 18.0928 19.7137 18.0928C19.1937 18.0928 18.8437 17.8528 18.6037 17.1828L17.5837 14.1928H12.5637L11.5437 17.1828C11.3037 17.8528 10.9537 18.0928 10.4437 18.0928ZM13.1237 12.4828H17.0237L15.1437 7.0428H14.9937Z"
        fillRule="evenodd"
        clipRule="evenodd"
    />
</svg>
        