
<svg
    viewBox="0 0 27.890625 27.890625"
    xmlns="http://www.w3.org/2000/svg"
>
    <path
        fill="inherit"
        d="M13.9427 27.8927C21.6427 27.8927 27.8927 21.6427 27.8927 13.9427C27.8927 6.2627 21.6427 0.0027 13.9427 0.0027C6.2627 0.0027 0.0027 6.2627 0.0027 13.9427C0.0027 21.6427 6.2627 27.8927 13.9427 27.8927ZM6.3427 19.2627V7.9127C6.3427 7.4927 6.7127 7.1227 7.1327 7.1227C7.5627 7.1227 7.9127 7.4927 7.9127 7.9127V9.3427L10.6827 12.1227C10.7727 12.2127 10.8127 12.2127 10.8927 12.1227L13.3527 9.5927C13.6827 9.2527 14.0527 9.0927 14.4527 9.0927C14.8627 9.0927 15.2327 9.2727 15.5427 9.5927L18.1927 12.3027L19.1927 11.2827C19.5327 10.9227 20.0727 11.1127 20.2027 11.6527L21.2327 15.7127C21.3527 16.1627 20.9427 16.5527 20.4827 16.4327L16.4327 15.4227C15.9327 15.2827 15.7227 14.7627 16.0827 14.4227L17.0727 13.4227L14.5627 10.8727C14.5027 10.8127 14.4227 10.8027 14.3427 10.8727L11.8627 13.4127C11.5427 13.7527 11.1827 13.9227 10.7827 13.9227C10.3627 13.9227 10.0227 13.7427 9.6927 13.4127L7.9127 11.6027V18.6727C7.9127 18.7727 7.9527 18.8127 8.0427 18.8127H20.8927C21.3127 18.8127 21.6727 19.1727 21.6727 19.6027C21.6727 20.0327 21.3127 20.3827 20.8927 20.3827H7.4527C6.7827 20.3827 6.3427 19.9427 6.3427 19.2627Z"
        fillRule="evenodd"
        clipRule="evenodd"
    />
</svg>
        