
<svg
    viewBox={0 0 30.1328125 28.287109375}
    xmlns="http://www.w3.org/2000/svg"
>
    <path
        fill="inherit"
        d="M8.4037 28.2828C9.0737 28.2828 9.5437 27.9328 10.3737 27.1928L15.0937 22.9928H23.8737C27.9437 22.9928 30.1337 20.7428 30.1337 16.7328V6.2628C30.1337 2.2528 27.9437 0.0028 23.8737 0.0028H6.2637C2.1837 0.0028 0.0037 2.2428 0.0037 6.2628V16.7328C0.0037 20.7528 2.1837 22.9928 6.2637 22.9928H6.9137V26.5528C6.9137 27.6028 7.4537 28.2828 8.4037 28.2828ZM8.9737 25.7828V21.8228C8.9737 21.0828 8.6837 20.7928 7.9437 20.7928H6.2637C3.5037 20.7928 2.2037 19.3828 2.2037 16.7228V6.2628C2.2037 3.5928 3.5037 2.2028 6.2637 2.2028H23.8737C26.6237 2.2028 27.9337 3.5928 27.9337 6.2628V16.7228C27.9337 19.3828 26.6237 20.7928 23.8737 20.7928H15.0137C14.2437 20.7928 13.8637 20.9028 13.3437 21.4328ZM10.5837 17.9328C11.0737 17.9328 11.4137 17.7028 11.6337 17.0628L12.6337 14.1528H17.5137L18.5137 17.0628C18.7337 17.6928 19.0737 17.9328 19.5737 17.9328C20.1837 17.9328 20.5737 17.5528 20.5737 16.9928C20.5737 16.7728 20.5337 16.5828 20.4237 16.2828L16.5937 5.9628C16.3337 5.2528 15.8037 4.8828 15.0637 4.8828C14.3237 4.8828 13.8037 5.2528 13.5537 5.9628L9.7237 16.2828C9.6137 16.5828 9.5737 16.7728 9.5737 16.9828C9.5737 17.5528 9.9637 17.9328 10.5837 17.9328ZM13.1837 12.5128L14.9937 7.2228H15.1437L16.9637 12.5128Z"
        fillRule="evenodd"
        clipRule="evenodd"
    />
</svg>
        