
<svg
    viewBox="0 0 26.892578125 26.578125"
    xmlns="http://www.w3.org/2000/svg"
>
    <path
        fill="inherit"
        d="M1.0937 26.5802C1.7137 26.5802 2.1837 26.0702 2.1837 25.4702V1.0902C2.1837 0.5102 1.7137 0.0002 1.0937 0.0002C0.4937 0.0002 0.0037 0.5102 0.0037 1.0902V25.4702C0.0037 26.0702 0.4937 26.5802 1.0937 26.5802ZM5.6737 5.5002H19.4137C20.1537 5.5002 20.6137 5.0002 20.6137 4.2202V1.5202C20.6137 0.7402 20.1537 0.2602 19.4137 0.2602H5.6737C4.8937 0.2602 4.4437 0.7402 4.4437 1.5202V4.2202C4.4437 5.0002 4.8937 5.5002 5.6737 5.5002ZM5.6737 12.4402H25.6937C26.4437 12.4402 26.8937 11.9502 26.8937 11.1602V8.4602C26.8937 7.6802 26.4437 7.1902 25.6937 7.1902H5.6737C4.8937 7.1902 4.4437 7.6802 4.4437 8.4602V11.1602C4.4437 11.9502 4.8937 12.4402 5.6737 12.4402ZM5.6737 19.3702H22.5537C23.3237 19.3702 23.7737 18.8902 23.7737 18.1002V15.4102C23.7737 14.6202 23.3237 14.1402 22.5537 14.1402H5.6737C4.8937 14.1402 4.4437 14.6202 4.4437 15.4102V18.1002C4.4437 18.8902 4.8937 19.3702 5.6737 19.3702ZM5.6737 26.3202H16.3537C17.1037 26.3202 17.5637 25.8302 17.5637 25.0502V22.3502C17.5637 21.5602 17.1037 21.0702 16.3537 21.0702H5.6737C4.8937 21.0702 4.4437 21.5602 4.4437 22.3502V25.0502C4.4437 25.8302 4.8937 26.3202 5.6737 26.3202Z"
        fillRule="evenodd"
        clipRule="evenodd"
    />
</svg>
        