
<svg
    viewBox={0 0 34.357421875 25.56640625}
    xmlns="http://www.w3.org/2000/svg"
>
    <path
        fill="inherit"
        d="M27.4237 25.57H31.5037C33.3837 25.57 34.3537 24.66 34.3537 22.87V2.71C34.3537 0.92 33.3837 0 31.5037 0H27.4237C25.5637 0 24.5937 0.92 24.5937 2.71V22.87C24.5937 24.66 25.5637 25.57 27.4237 25.57ZM15.1337 25.57H19.2137C21.0937 25.57 22.0537 24.66 22.0537 22.87V6.7C22.0537 4.91 21.0937 3.99 19.2137 3.99H15.1337C13.2637 3.99 12.2937 4.91 12.2937 6.7V22.87C12.2937 24.66 13.2637 25.57 15.1337 25.57ZM2.8437 25.57H6.9037C8.7937 25.57 9.7637 24.66 9.7637 22.87V10.68C9.7637 8.89 8.7937 7.97 6.9037 7.97H2.8437C0.9737 7.97 0.0037 8.89 0.0037 10.68V22.87C0.0037 24.66 0.9737 25.57 2.8437 25.57Z"
        fillRule="evenodd"
        clipRule="evenodd"
    />
</svg>
        