
<svg
    viewBox={0 0 19.60546875 28.13671875}
    xmlns="http://www.w3.org/2000/svg"
>
    <path
        fill="inherit"
        d="M9.0637 28.1331C14.1337 28.1331 18.1437 24.1331 18.1437 19.0631V4.9931C19.0037 4.5531 19.6037 3.6631 19.6037 2.6231C19.6037 1.1731 18.4437 0.0031 16.9837 0.0031C15.5337 0.0031 14.3537 1.1731 14.3537 2.6231C14.3537 3.6631 14.9537 4.5631 15.8337 4.9931V12.9431C14.1737 11.1131 11.7737 9.9831 9.0537 9.9831C3.9737 9.9831 0.0037 13.9731 0.0037 19.0631C0.0037 24.1331 3.9937 28.1331 9.0637 28.1331ZM9.0637 25.8231C5.2637 25.8231 2.3137 22.8731 2.3137 19.0631C2.3137 15.2531 5.2637 12.2931 9.0537 12.2931C12.8637 12.2931 15.8337 15.2531 15.8337 19.0631C15.8337 22.8731 12.8837 25.8231 9.0637 25.8231Z"
        fillRule="evenodd"
        clipRule="evenodd"
    />
</svg>
        