
<svg
    viewBox={0 0 34.740234375 25.744140625}
    xmlns="http://www.w3.org/2000/svg"
>
    <path
        fill="inherit"
        d="M27.8037 25.74H31.5037C33.6337 25.74 34.7437 24.72 34.7437 22.7V3.06C34.7437 1.04 33.6337 0 31.5037 0H27.8037C25.6937 0 24.5937 1.04 24.5937 3.06V22.7C24.5937 24.72 25.6937 25.74 27.8037 25.74ZM28.1737 23.68C27.1437 23.68 26.7737 23.32 26.7737 22.3V3.46C26.7737 2.43 27.1437 2.06 28.1737 2.06H31.1437C32.1937 2.06 32.5637 2.43 32.5637 3.46V22.3C32.5637 23.32 32.1937 23.68 31.1437 23.68ZM15.5137 25.74H19.2137C21.3437 25.74 22.4337 24.72 22.4337 22.7V7.05C22.4337 5.03 21.3437 3.99 19.2137 3.99H15.5137C13.3837 3.99 12.2937 5.03 12.2937 7.05V22.7C12.2937 24.72 13.3837 25.74 15.5137 25.74ZM15.8837 23.68C14.8337 23.68 14.4637 23.32 14.4637 22.3V7.45C14.4637 6.43 14.8337 6.06 15.8837 6.06H18.8537C19.9037 6.06 20.2637 6.43 20.2637 7.45V22.3C20.2637 23.32 19.9037 23.68 18.8537 23.68ZM3.2237 25.74H6.9037C9.0337 25.74 10.1437 24.72 10.1437 22.7V11.03C10.1437 9.01 9.0337 7.97 6.9037 7.97H3.2237C1.0937 7.97 0.0037 9.01 0.0037 11.03V22.7C0.0037 24.72 1.0937 25.74 3.2237 25.74ZM3.5837 23.68C2.5437 23.68 2.1737 23.32 2.1737 22.3V11.43C2.1737 10.39 2.5437 10.04 3.5837 10.04H6.5537C7.6037 10.04 7.9737 10.39 7.9737 11.43V22.3C7.9737 23.32 7.6037 23.68 6.5537 23.68Z"
        fillRule="evenodd"
        clipRule="evenodd"
    />
</svg>
        