
<svg
    viewBox={0 0 32.935546875 26.49609375}
    xmlns="http://www.w3.org/2000/svg"
>
    <path
        fill="inherit"
        d="M19.6837 26.4991C26.9237 26.4991 32.9337 20.4791 32.9337 13.2491C32.9337 6.0191 26.9037 -0.0009 19.6737 -0.0009C15.5437 -0.0009 11.8137 1.9591 9.3837 4.9891C8.8637 4.8991 8.3037 4.8491 7.7137 4.8491C4.6737 4.8491 2.1337 6.2591 1.1637 8.3391C0.9537 8.7491 0.8337 9.1691 0.8337 9.5191C0.8337 10.2091 1.3037 10.6591 1.9537 10.6591C2.4437 10.6591 2.7937 10.4591 3.0037 10.0091C3.9337 7.9591 5.4537 7.0791 7.6537 7.0791C7.7837 7.0791 7.8937 7.0791 7.9937 7.0791C7.0537 8.8291 6.5037 10.7991 6.4537 12.8891C2.3237 13.2491 0.0037 15.0491 0.0037 18.1191C0.0037 21.2891 2.4237 23.4191 5.9637 23.4191C7.4237 23.4191 8.8137 22.9591 9.9537 22.1591C12.3837 24.8191 15.8637 26.4991 19.6837 26.4991ZM23.4037 9.5391C23.4037 5.8491 21.2737 3.2391 17.6337 2.4091C18.2937 2.2791 18.9737 2.2191 19.6737 2.2191C25.8137 2.2191 30.6937 7.1091 30.7237 13.2491C30.7337 18.0791 27.6837 22.1391 23.4037 23.6491ZM8.6837 13.2491C8.6837 9.9791 10.0537 7.0691 12.2637 5.0591C13.0137 4.8491 13.8337 4.7591 14.8037 4.7591C18.2637 4.7591 20.3137 6.6591 20.3137 9.8591V11.8691L13.2937 12.2891C11.4537 12.4091 9.8937 12.7791 8.6837 13.4091C8.6837 13.3591 8.6837 13.2991 8.6837 13.2491ZM13.6737 14.6791L20.3137 14.2491V16.6491C20.3137 19.8891 17.7637 22.4891 14.3437 22.9091C11.8537 21.5291 9.9637 19.2391 9.1437 16.4491C10.0537 15.4391 11.5937 14.8291 13.6737 14.6791ZM2.5737 18.0891C2.5737 16.2791 3.9937 15.1091 6.5537 14.8791C6.8237 17.0491 7.6437 19.0691 8.8437 20.7991C8.1337 21.0991 7.3537 21.2591 6.5037 21.2591C4.1737 21.2591 2.5737 19.9991 2.5737 18.0891ZM19.6837 24.2691C19.0537 24.2691 18.4437 24.2291 17.8437 24.1191C18.9237 23.4491 19.7837 22.5591 20.3037 21.5291H20.4837V24.2391C20.2237 24.2691 19.9637 24.2691 19.6837 24.2691Z"
        fillRule="evenodd"
        clipRule="evenodd"
    />
</svg>
        