
<svg
    viewBox={0 0 27.890625 27.890625}
    xmlns="http://www.w3.org/2000/svg"
>
    <path
        fill="inherit"
        d="M13.9427 27.8864C21.6427 27.8864 27.8927 21.6464 27.8927 13.9464C27.8927 6.2464 21.6427 -0.0036 13.9427 -0.0036C6.2527 -0.0036 0.0027 6.2464 0.0027 13.9464C0.0027 21.6464 6.2527 27.8864 13.9427 27.8864ZM13.9427 25.5664C7.5227 25.5664 2.3227 20.3664 2.3227 13.9464C2.3227 7.7764 7.1127 2.7464 13.1827 2.3564V14.1364C13.1827 14.4364 13.2527 14.6864 13.5127 14.9264L21.5227 22.7664C19.4827 24.5164 16.8427 25.5664 13.9427 25.5664ZM15.0127 12.7564V2.3664C18.7027 2.7064 21.8927 4.7564 23.7727 7.7264ZM15.7727 14.4364L24.6227 9.3564C25.2427 10.7564 25.5627 12.3064 25.5627 13.9464C25.5627 16.7864 24.5427 19.3964 22.8427 21.4264Z"
        fillRule="evenodd"
        clipRule="evenodd"
    />
</svg>
        