
<svg
    viewBox="0 0 50.271484375 19.1953125"
    xmlns="http://www.w3.org/2000/svg"
>
    <path
        fill="inherit"
        d="M42.6537 19.1224C45.9637 19.1224 48.5537 17.6924 49.8237 15.2324C50.0637 14.7224 50.2337 14.2424 50.2337 13.7724C50.2337 13.1224 49.7837 12.6924 49.1337 12.6924C48.6337 12.6924 48.3337 12.9024 48.0337 13.5624C47.1637 15.7524 45.2937 16.9624 42.6537 16.9624C38.9137 16.9624 36.5137 14.1224 36.5137 9.5124C36.5137 4.9924 38.9237 2.1624 42.6537 2.1624C45.1437 2.1624 47.1537 3.6324 47.9837 5.8624C48.2737 6.5124 48.6437 6.7724 49.1937 6.7724C49.8337 6.7724 50.2737 6.3524 50.2737 5.7024C50.2737 5.3724 50.2037 5.0024 50.0537 4.5924C49.0237 1.7324 46.0637 0.0024 42.6537 0.0024C37.4037 0.0024 34.0537 3.6824 34.0537 9.5324C34.0537 15.4524 37.3837 19.1224 42.6537 19.1224ZM1.0837 19.1924C1.7637 19.1924 2.1037 18.8924 2.3537 18.1824L4.0237 13.6124H11.6237L13.3037 18.1824C13.5537 18.8924 13.8937 19.1924 14.5637 19.1924C15.2437 19.1924 15.6937 18.7424 15.6937 18.0924C15.6937 17.8724 15.6537 17.6624 15.5537 17.4024L9.4737 1.2624C9.1737 0.4624 8.6437 0.0124 7.8337 0.0124C7.0137 0.0124 6.4837 0.4624 6.1937 1.2424L0.1337 17.4224C0.0237 17.6824 0.0037 17.8824 0.0037 18.1024C0.0037 18.7424 0.4137 19.1924 1.0837 19.1924ZM19.1837 18.8124H25.4737C29.5437 18.8124 32.0337 16.8024 32.0337 13.7524C32.0337 11.1524 30.1737 9.3524 27.5237 9.0824V8.9924C29.5537 8.6424 31.0637 6.8624 31.0637 4.7824C31.0637 2.1724 28.7937 0.3324 25.4037 0.3324H19.1837C18.4737 0.3324 17.9937 0.7924 17.9937 1.5324V17.5924C17.9937 18.3324 18.4737 18.8124 19.1837 18.8124ZM20.4437 8.3224V2.4024H24.8237C27.2037 2.4024 28.6137 3.5024 28.6137 5.1224C28.6137 7.1524 27.0337 8.3224 24.3037 8.3224ZM4.6437 11.6524L7.7937 2.9624H7.8437L10.9937 11.6524ZM20.4437 16.7724V10.2524H24.7837C27.8537 10.2524 29.5137 11.4324 29.5137 13.6024C29.5137 15.5624 27.9137 16.7724 25.0037 16.7724Z"
        fillRule="evenodd"
        clipRule="evenodd"
    />
</svg>
        