<svg viewBox="0 0 25.169921875 25.169921875" xmlns="http://www.w3.org/2000/svg"><path d="M4.2937 25.1692H20.8737C23.7437 25.1692 25.1737 23.7592 25.1737 20.9492V4.2392C25.1737 1.4192 23.7437 -0.0008 20.8737 -0.0008H4.2937C1.4337 -0.0008 0.0037 1.4192 0.0037 4.2392V20.9492C0.0037 23.7592 1.4337 25.1692 4.2937 25.1692ZM7.9537 19.1792C7.3237 19.1792 6.9037 18.7892 6.9037 18.2092C6.9037 17.9892 6.9437 17.7892 7.0537 17.4692L11.0037 6.8392C11.2937 6.0992 11.8137 5.7192 12.5737 5.7192C13.3537 5.7192 13.8937 6.0992 14.1737 6.8392L18.1337 17.4692C18.2337 17.7892 18.2837 17.9892 18.2837 18.2092C18.2837 18.7892 17.8537 19.1792 17.2237 19.1792C16.7237 19.1792 16.3537 18.9392 16.1337 18.2792L15.1037 15.2892H10.0737L9.0537 18.2792C8.8337 18.9492 8.4637 19.1792 7.9537 19.1792ZM10.6337 13.5792H14.5437L12.6637 8.1392H12.5237Z" /></svg>