
<svg
    viewBox={0 0 27.890625 27.890625}
    xmlns="http://www.w3.org/2000/svg"
>
    <path
        fill="inherit"
        d="M13.9427 27.8927C21.6427 27.8927 27.8927 21.6427 27.8927 13.9427C27.8927 6.2627 21.6427 0.0027 13.9427 0.0027C6.2627 0.0027 0.0027 6.2627 0.0027 13.9427C0.0027 21.6427 6.2627 27.8927 13.9427 27.8927ZM7.4527 20.3827C6.7827 20.3827 6.3327 19.9427 6.3327 19.2627V7.9127C6.3327 7.4927 6.7027 7.1227 7.1227 7.1227C7.5627 7.1227 7.9027 7.4927 7.9027 7.9127V12.1827H17.0227V10.7327C17.0227 10.2427 17.5227 10.0227 18.0027 10.2927L21.6027 12.4427C22.0027 12.6727 22.0027 13.2527 21.5927 13.4827L18.0227 15.6427C17.5527 15.9127 17.0227 15.6827 17.0227 15.1927V13.7527H7.9027V18.6327C7.9027 18.7427 7.9727 18.8127 8.0827 18.8127H20.8927C21.3127 18.8127 21.6727 19.1727 21.6727 19.6027C21.6727 20.0327 21.3127 20.3827 20.8927 20.3827Z"
        fillRule="evenodd"
        clipRule="evenodd"
    />
</svg>
        