
<svg
    viewBox="0 0 29.39453125 25.279296875"
    xmlns="http://www.w3.org/2000/svg"
>
    <path
        fill="inherit"
        d="M0.0037 24.2019C0.0037 24.8519 0.4337 25.2819 1.0937 25.2819H28.2837C28.8937 25.2819 29.3937 24.8019 29.3937 24.1819C29.3937 23.5819 28.8937 23.0919 28.2837 23.0919H2.5837C2.2937 23.0919 2.2037 22.9919 2.2037 22.7119V7.6119L6.4637 11.9319C7.0937 12.5619 7.6737 12.8419 8.3137 12.8419C8.9537 12.8419 9.5537 12.5519 10.1537 11.9319L15.1937 6.7819C15.3137 6.6619 15.4537 6.5919 15.5537 6.5919C15.6837 6.5919 15.8137 6.6619 15.9437 6.7819L21.3237 12.2319L19.0737 14.4919C18.5837 14.9819 18.8837 15.6119 19.5737 15.7919L27.5737 17.8119C28.1937 17.9819 28.7337 17.4619 28.5737 16.8319L26.5537 8.8219C26.3737 8.1219 25.7337 7.8219 25.2337 8.3119L22.9937 10.5719L17.4137 4.9619C16.8037 4.3519 16.2137 4.0619 15.5537 4.0619C14.9137 4.0619 14.3037 4.3519 13.7137 4.9619L8.6837 10.1219C8.5537 10.2419 8.4337 10.3119 8.3137 10.3119C8.1937 10.3119 8.0637 10.2419 7.9437 10.1219L2.2037 4.2619V1.0919C2.2037 0.5019 1.7137 0.0019 1.1037 0.0019C0.4937 0.0019 0.0037 0.5019 0.0037 1.0919Z"
        fillRule="evenodd"
        clipRule="evenodd"
    />
</svg>
        