<svg viewBox="0 0 22.99609375 29.3125" xmlns="http://www.w3.org/2000/svg"><path d="M0.0037 25.0373C0.0037 27.8873 1.4037 29.3173 4.2337 29.3173H18.7537C21.5837 29.3173 22.9937 27.8873 22.9937 25.0373V4.2973C22.9937 1.4473 21.5837 -0.0027 18.7537 -0.0027H4.2337C1.4037 -0.0027 0.0037 1.4473 0.0037 4.2973ZM2.2037 24.9873V4.3373C2.2037 2.9673 2.9237 2.1973 4.3437 2.1973H18.6437C20.0737 2.1973 20.7937 2.9673 20.7937 4.3373V24.9873C20.7937 26.3573 20.0737 27.1073 18.6437 27.1073H4.3437C2.9237 27.1073 2.2037 26.3573 2.2037 24.9873ZM5.0437 4.5273C4.4837 4.5273 4.1537 4.8773 4.1537 5.4573V7.7373C4.1537 8.3173 4.4837 8.6673 5.0437 8.6673H13.4237C13.9737 8.6673 14.3037 8.3173 14.3037 7.7373V5.4573C14.3037 4.8773 13.9737 4.5273 13.4237 4.5273ZM5.0437 9.8973C4.4837 9.8973 4.1537 10.2573 4.1537 10.8173V13.1073C4.1537 13.6673 4.4837 14.0273 5.0437 14.0273H17.9737C18.5237 14.0273 18.8537 13.6673 18.8537 13.0973V10.8173C18.8537 10.2573 18.5237 9.8973 17.9737 9.8973ZM5.0437 15.2673C4.4837 15.2673 4.1537 15.6173 4.1537 16.1773V18.4873C4.1537 19.0573 4.4837 19.3973 5.0437 19.3973H15.7237C16.2737 19.3973 16.5937 19.0573 16.5937 18.4873V16.1773C16.5937 15.6173 16.2737 15.2673 15.7237 15.2673ZM5.0437 20.6273C4.4837 20.6273 4.1537 20.9873 4.1537 21.5573V23.8473C4.1537 24.4173 4.4837 24.7773 5.0437 24.7773H11.2237C11.7537 24.7773 12.1037 24.4173 12.1037 23.8473V21.5573C12.1037 20.9873 11.7537 20.6273 11.2237 20.6273Z" /></svg>