
<svg
    viewBox={0 0 27.890625 27.890625}
    xmlns="http://www.w3.org/2000/svg"
>
    <path
        fill="inherit"
        d="M13.9427 27.8864C21.6427 27.8864 27.8927 21.6464 27.8927 13.9464C27.8927 6.2464 21.6427 -0.0036 13.9427 -0.0036C6.2527 -0.0036 0.0027 6.2464 0.0027 13.9464C0.0027 21.6464 6.2527 27.8864 13.9427 27.8864ZM13.9427 25.5664C7.5227 25.5664 2.3227 20.3664 2.3227 13.9464C2.3227 7.5164 7.5227 2.3264 13.9427 2.3264C20.3727 2.3264 25.5627 7.5164 25.5627 13.9464C25.5627 20.3664 20.3727 25.5664 13.9427 25.5664ZM6.5627 19.0964C6.5627 19.7464 6.9827 20.1664 7.6427 20.1664H20.6727C21.0827 20.1664 21.4227 19.8264 21.4227 19.4164C21.4227 19.0064 21.0827 18.6664 20.6727 18.6664H8.1027C8.0827 18.6664 8.0827 18.6764 8.0827 18.6364V13.7564H16.9227V15.1364C16.9227 15.6164 17.4427 15.8464 17.8827 15.5864L21.3427 13.4964C21.7427 13.2664 21.7427 12.6964 21.3527 12.4864L17.8727 10.4064C17.4227 10.1464 16.9227 10.3464 16.9227 10.8164V12.2364H8.0827V8.0764C8.0827 7.6664 7.7427 7.3264 7.3327 7.3264C6.9227 7.3264 6.5627 7.6664 6.5627 8.0764Z"
        fillRule="evenodd"
        clipRule="evenodd"
    />
</svg>
        