
<svg
    viewBox="0 0 30.65234375 27.6171875"
    xmlns="http://www.w3.org/2000/svg"
>
    <path
        fill="inherit"
        d="M5.8937 11.8023C9.1037 11.8023 11.7837 9.1023 11.7837 5.8923C11.7837 2.6623 9.1037 0.0023 5.8937 0.0023C2.6637 0.0023 0.0037 2.6623 0.0037 5.8923C0.0037 9.1023 2.6837 11.8023 5.8937 11.8023ZM5.1937 9.0623C4.9037 9.0623 4.7137 8.9123 4.5137 8.6823L2.9837 6.8323C2.8537 6.6723 2.8037 6.5223 2.8037 6.3023C2.8037 5.9023 3.1037 5.5923 3.4737 5.5923C3.7337 5.5923 3.9237 5.7023 4.1037 5.9323L5.1637 7.2823L7.6037 3.3723C7.7637 3.1323 7.9737 2.9923 8.2137 2.9923C8.6037 2.9923 8.9237 3.2923 8.9237 3.6323C8.9237 3.8323 8.8737 3.9923 8.7537 4.1923L5.8937 8.6823C5.7437 8.9323 5.4937 9.0623 5.1937 9.0623ZM15.9437 7.0123H29.5337C30.1437 7.0123 30.6537 6.5223 30.6537 5.9023C30.6537 5.2923 30.1437 4.8123 29.5337 4.8123H15.9437C15.3137 4.8123 14.8337 5.2923 14.8337 5.9023C14.8337 6.5223 15.3137 7.0123 15.9437 7.0123ZM5.8937 27.6123C9.1037 27.6123 11.7837 24.9423 11.7837 21.7223C11.7837 18.4823 9.1037 15.8223 5.8937 15.8223C2.6637 15.8223 0.0037 18.5023 0.0037 21.7223C0.0037 24.9423 2.6837 27.6123 5.8937 27.6123ZM5.1937 24.8923C4.9037 24.8923 4.7137 24.7323 4.5137 24.5123L2.9837 22.6523C2.8537 22.5023 2.8037 22.3423 2.8037 22.1223C2.8037 21.7223 3.1037 21.4223 3.4737 21.4223C3.7337 21.4223 3.9237 21.5223 4.1037 21.7623L5.1637 23.1223L7.6037 19.2123C7.7637 18.9523 7.9737 18.8123 8.2137 18.8123C8.6037 18.8123 8.9237 19.1123 8.9237 19.4723C8.9237 19.6623 8.8737 19.8123 8.7537 20.0123L5.8937 24.5023C5.7437 24.7623 5.4937 24.8923 5.1937 24.8923ZM15.9437 22.8223H29.5337C30.1437 22.8223 30.6537 22.3423 30.6537 21.7223C30.6537 21.0923 30.1437 20.6123 29.5337 20.6123H15.9437C15.3137 20.6123 14.8337 21.0923 14.8337 21.7223C14.8337 22.3423 15.3137 22.8223 15.9437 22.8223Z"
        fillRule="evenodd"
        clipRule="evenodd"
    />
</svg>
        