
<svg
    viewBox={0 0 30.1328125 28.287109375}
    xmlns="http://www.w3.org/2000/svg"
>
    <path
        fill="inherit"
        d="M8.4037 28.2828C9.0737 28.2828 9.5437 27.9328 10.3737 27.1928L15.0937 22.9928H23.8737C27.9437 22.9928 30.1337 20.7428 30.1337 16.7328V6.2628C30.1337 2.2528 27.9437 0.0028 23.8737 0.0028H6.2637C2.1837 0.0028 0.0037 2.2428 0.0037 6.2628V16.7328C0.0037 20.7528 2.1837 22.9928 6.2637 22.9928H6.9137V26.5528C6.9137 27.6028 7.4537 28.2828 8.4037 28.2828ZM8.9737 25.7828V21.8228C8.9737 21.0828 8.6837 20.7928 7.9437 20.7928H6.2637C3.5037 20.7928 2.2037 19.3828 2.2037 16.7228V6.2628C2.2037 3.5928 3.5037 2.2028 6.2637 2.2028H23.8737C26.6237 2.2028 27.9337 3.5928 27.9337 6.2628V16.7228C27.9337 19.3828 26.6237 20.7928 23.8737 20.7928H15.0137C14.2437 20.7928 13.8637 20.9028 13.3437 21.4328ZM13.5937 17.9928C14.0437 17.9928 14.4237 17.7728 14.6837 17.3528L20.9337 7.5228C21.0937 7.2628 21.2737 6.9428 21.2737 6.6428C21.2737 6.0328 20.7237 5.6328 20.1537 5.6328C19.7937 5.6328 19.4537 5.8528 19.2137 6.2528L13.5237 15.3528L10.8237 11.8628C10.5137 11.4328 10.2037 11.3228 9.8337 11.3228C9.2237 11.3228 8.7737 11.8028 8.7737 12.4028C8.7737 12.7028 8.8837 12.9928 9.0737 13.2528L12.4137 17.3528C12.7737 17.8028 13.1237 17.9928 13.5937 17.9928Z"
        fillRule="evenodd"
        clipRule="evenodd"
    />
</svg>
        