
<svg
    viewBox="0 0 28.095703125 29.72265625"
    xmlns="http://www.w3.org/2000/svg"
>
    <path
        fill="inherit"
        d="M5.4237 1.7624H22.6837C22.6037 0.6024 21.9437 0.0024 20.6737 0.0024H7.4237C6.1637 0.0024 5.5137 0.6024 5.4237 1.7624ZM2.6137 5.5524H25.4937C25.2937 4.3024 24.7037 3.6224 23.3337 3.6224H4.7737C3.4037 3.6224 2.8137 4.3024 2.6137 5.5524ZM4.1537 29.7224H23.9437C26.6837 29.7224 28.0937 28.3324 28.0937 25.6124V11.8524C28.0937 9.1324 26.6837 7.7524 23.9437 7.7524H4.1537C1.3837 7.7524 0.0037 9.1324 0.0037 11.8524V25.6124C0.0037 28.3324 1.3837 29.7224 4.1537 29.7224ZM12.5237 25.4024C12.0537 25.4024 11.6737 25.2224 11.3037 24.7424L7.8937 20.5324C7.6837 20.2624 7.5637 19.9424 7.5637 19.6424C7.5637 19.0224 8.0437 18.5124 8.6537 18.5124C9.0537 18.5124 9.3537 18.6524 9.6937 19.1024L12.4737 22.6824L18.3037 13.3024C18.5537 12.8824 18.9037 12.6724 19.2737 12.6724C19.8837 12.6724 20.4437 13.0824 20.4437 13.7124C20.4437 14.0224 20.2637 14.3424 20.0937 14.6124L13.6537 24.7424C13.3837 25.1824 12.9837 25.4024 12.5237 25.4024Z"
        fillRule="evenodd"
        clipRule="evenodd"
    />
</svg>
        