
<svg
    viewBox={0 0 31.006281888857306 31.006281888857306}
    xmlns="http://www.w3.org/2000/svg"
>
    <path
        fill="inherit"
        d="M1.5328 18.5268L12.4828 29.4768C14.5028 31.5068 16.5028 31.5168 18.5128 29.5168L29.5228 18.4968C31.5128 16.5068 31.5028 14.4968 29.4828 12.4668L18.5428 1.5368C16.5128 -0.4932 14.5228 -0.5132 12.5128 1.4968L1.4928 12.4968C-0.5172 14.5068 -0.4872 16.5068 1.5328 18.5268ZM3.1228 17.0068C2.1328 16.0268 2.1228 14.9968 3.1328 13.9868L13.9928 3.1368C15.0028 2.1168 16.0228 2.1368 17.0128 3.1168L27.8928 13.9968C28.8628 14.9768 28.8928 16.0068 27.8828 17.0268L17.0228 27.8768C16.0128 28.8868 14.9728 28.8668 14.0028 27.9068ZM14.0328 21.9968C14.4828 21.9968 14.8628 21.7768 15.1228 21.3568L21.3828 11.5268C21.5328 11.2568 21.7128 10.9568 21.7128 10.6568C21.7128 10.0368 21.1628 9.6368 20.5928 9.6368C20.2328 9.6368 19.8928 9.8568 19.6528 10.2568L13.9728 19.3568L11.2628 15.8768C10.9528 15.4368 10.6428 15.3268 10.2728 15.3268C9.6728 15.3268 9.2128 15.8068 9.2128 16.4068C9.2128 16.7068 9.3228 16.9968 9.5328 17.2568L12.8528 21.3568C13.2128 21.8068 13.5628 21.9968 14.0328 21.9968Z"
        fillRule="evenodd"
        clipRule="evenodd"
    />
</svg>
        