
<svg
    viewBox="0 0 30.1328125 28.369140625"
    xmlns="http://www.w3.org/2000/svg"
>
    <path
        fill="inherit"
        d="M8.1237 28.3728C8.6537 28.3728 9.0537 28.0928 9.6937 27.4928L14.6337 22.9828H23.8737C27.9437 22.9828 30.1337 20.7428 30.1337 16.7328V6.2628C30.1337 2.2528 27.9437 0.0028 23.8737 0.0028H6.2637C2.1837 0.0028 0.0037 2.2428 0.0037 6.2628V16.7328C0.0037 20.7528 2.1837 22.9828 6.2637 22.9828H6.9037V26.9628C6.9037 27.8128 7.3437 28.3728 8.1237 28.3728ZM13.5537 18.1728C13.0737 18.1728 12.7037 17.9828 12.3337 17.5028L8.9037 13.2928C8.6937 13.0128 8.5837 12.7128 8.5837 12.4028C8.5837 11.7828 9.0537 11.2828 9.6837 11.2828C10.0637 11.2828 10.3737 11.4028 10.7037 11.8528L13.4837 15.4328L19.3337 6.0528C19.5737 5.6428 19.9337 5.4228 20.3037 5.4228C20.9037 5.4228 21.4637 5.8428 21.4637 6.4828C21.4637 6.7828 21.2837 7.1128 21.1137 7.3828L14.6837 17.5028C14.4137 17.9528 14.0137 18.1728 13.5537 18.1728Z"
        fillRule="evenodd"
        clipRule="evenodd"
    />
</svg>
        