<svg viewBox="0 0 31.045420288489282 31.059092163489282" xmlns="http://www.w3.org/2000/svg"><path d="M7.241 27.3853H10.201C10.481 27.3853 10.691 27.4653 10.891 27.6653L13.001 29.7653C14.721 31.4953 16.321 31.4853 18.041 29.7653L20.151 27.6653C20.351 27.4653 20.561 27.3853 20.851 27.3853H23.801C26.251 27.3853 27.381 26.2653 27.381 23.8053V20.8453C27.381 20.5653 27.461 20.3653 27.671 20.1553L29.751 18.0453C31.481 16.3253 31.471 14.7353 29.751 12.9953L27.671 10.8953C27.461 10.6853 27.381 10.4853 27.381 10.2153V7.2453C27.381 4.8153 26.261 3.6653 23.801 3.6653H20.851C20.561 3.6653 20.351 3.5953 20.151 3.3853L18.041 1.2953C16.321 -0.4347 14.721 -0.4247 13.001 1.2953L10.891 3.3853C10.691 3.5953 10.481 3.6653 10.201 3.6653H7.241C4.801 3.6653 3.661 4.7853 3.661 7.2453V10.2153C3.661 10.4853 3.591 10.6853 3.391 10.8953L1.301 12.9953C-0.439 14.7353 -0.429 16.3253 1.301 18.0453L3.391 20.1553C3.591 20.3653 3.661 20.5653 3.661 20.8453V23.8053C3.661 26.2453 4.801 27.3853 7.241 27.3853ZM7.241 25.2053C6.031 25.2053 5.841 25.0153 5.841 23.8053V20.1253C5.841 19.7153 5.711 19.3953 5.411 19.0953L2.831 16.5253C1.971 15.6553 1.971 15.4053 2.831 14.5353L5.411 11.9653C5.711 11.6653 5.841 11.3453 5.841 10.9253V7.2453C5.841 6.0153 6.011 5.8353 7.241 5.8353H10.921C11.341 5.8353 11.661 5.7253 11.961 5.4153L14.531 2.8253C15.411 1.9653 15.651 1.9653 16.511 2.8253L19.101 5.4153C19.381 5.7253 19.711 5.8353 20.121 5.8353H23.801C25.021 5.8353 25.211 6.0253 25.211 7.2453V10.9253C25.211 11.3453 25.341 11.6653 25.651 11.9653L28.231 14.5353C29.091 15.4053 29.091 15.6553 28.231 16.5253L25.651 19.0953C25.341 19.3953 25.211 19.7153 25.211 20.1253V23.8053C25.211 25.0153 25.021 25.2053 23.801 25.2053H20.121C19.711 25.2053 19.381 25.3353 19.101 25.6453L16.511 28.2353C15.651 29.0953 15.411 29.0953 14.531 28.2353L11.961 25.6453C11.661 25.3353 11.341 25.2053 10.921 25.2053ZM14.041 22.0053C14.491 22.0053 14.871 21.7953 15.151 21.3853L21.391 11.5353C21.541 11.2753 21.721 10.9753 21.721 10.6653C21.721 10.0653 21.181 9.6653 20.611 9.6653C20.261 9.6653 19.921 9.8653 19.661 10.2753L13.981 19.3853L11.291 15.8953C10.961 15.4653 10.661 15.3353 10.291 15.3353C9.691 15.3353 9.231 15.8153 9.231 16.4353C9.231 16.7153 9.351 17.0153 9.541 17.2753L12.881 21.3853C13.221 21.8353 13.591 22.0053 14.041 22.0053Z" /></svg>