
<svg
    viewBox={0 0 32.23828125 25.169921875}
    xmlns="http://www.w3.org/2000/svg"
>
    <path
        fill="inherit"
        d="M4.2937 25.1692H27.9437C30.8137 25.1692 32.2337 23.7592 32.2337 20.9492V4.2392C32.2337 1.4192 30.8137 -0.0008 27.9437 -0.0008H4.2937C1.4337 -0.0008 0.0037 1.4192 0.0037 4.2392V20.9492C0.0037 23.7592 1.4337 25.1692 4.2937 25.1692ZM14.6037 19.2792C14.1237 19.2792 13.7537 19.0892 13.3837 18.6092L9.9637 14.3992C9.7437 14.1192 9.6437 13.8192 9.6437 13.5092C9.6437 12.8892 10.1037 12.3892 10.7337 12.3892C11.1137 12.3892 11.4337 12.5092 11.7537 12.9592L14.5437 16.5392L20.3837 7.1592C20.6337 6.7492 20.9837 6.5392 21.3537 6.5392C21.9537 6.5392 22.5137 6.9492 22.5137 7.5892C22.5137 7.8892 22.3437 8.1992 22.1737 8.4892L15.7337 18.6092C15.4637 19.0592 15.0637 19.2792 14.6037 19.2792Z"
        fillRule="evenodd"
        clipRule="evenodd"
    />
</svg>
        