
<svg
    viewBox={0 0 31.0078125 28.505859375}
    xmlns="http://www.w3.org/2000/svg"
>
    <path
        fill="inherit"
        d="M5.4127 28.5072C7.0527 28.5072 11.1427 26.7172 13.4627 25.0472C13.7027 24.8872 13.8927 24.8172 14.0827 24.8172C14.2627 24.8272 14.4327 24.8372 14.6127 24.8372C24.4727 24.8372 31.0127 19.2372 31.0127 12.4272C31.0127 5.5472 24.1127 -0.0028 15.5027 -0.0028C6.8927 -0.0028 0.0027 5.5472 0.0027 12.4272C0.0027 16.8072 2.6927 20.6472 7.0827 22.9972C7.2827 23.1072 7.3527 23.3072 7.2427 23.5172C6.4827 24.7772 5.1127 26.2772 4.5927 26.9572C4.0627 27.6472 4.3627 28.5072 5.4127 28.5072ZM13.9727 19.2372C13.5127 19.2372 13.1227 19.0572 12.7727 18.5772L9.3427 14.3672C9.1327 14.0972 9.0127 13.7772 9.0127 13.4772C9.0127 12.8472 9.4927 12.3472 10.1127 12.3472C10.5027 12.3472 10.8027 12.4872 11.1427 12.9372L13.9227 16.4972L19.7527 7.1372C20.0127 6.7172 20.3727 6.5072 20.7427 6.5072C21.3327 6.5072 21.8927 6.9172 21.8927 7.5472C21.8927 7.8472 21.7127 8.1772 21.5427 8.4472L15.1227 18.5772C14.8327 19.0172 14.4327 19.2372 13.9727 19.2372Z"
        fillRule="evenodd"
        clipRule="evenodd"
    />
</svg>
        