
<svg
    viewBox={0 0 22.72265625 27.6171875}
    xmlns="http://www.w3.org/2000/svg"
>
    <path
        fill="inherit"
        d="M11.3637 27.6205C11.5837 27.6205 11.9337 27.5305 12.2737 27.3405C20.0537 22.9805 22.7237 21.1405 22.7237 16.1505V5.6905C22.7237 4.2505 22.1037 3.8005 20.9437 3.3105C19.3337 2.6405 14.1237 0.7705 12.5137 0.2005C12.1437 0.0805 11.7437 0.0005 11.3637 0.0005C10.9737 0.0005 10.5837 0.1105 10.2237 0.2005C8.6137 0.6705 3.3937 2.6505 1.7737 3.3105C0.6337 3.7905 0.0037 4.2505 0.0037 5.6905V16.1505C0.0037 21.1405 2.6837 22.9705 10.4437 27.3405C10.8037 27.5305 11.1437 27.6205 11.3637 27.6205ZM11.3637 25.1405C11.1437 25.1405 10.9237 25.0605 10.5137 24.8105C4.1937 20.9905 2.1737 19.8605 2.1737 15.6405V6.1105C2.1737 5.6505 2.2537 5.4705 2.6437 5.3205C4.7137 4.5005 8.7537 3.1405 10.8137 2.3205C11.0337 2.2305 11.2137 2.2005 11.3637 2.2005C11.5137 2.2005 11.6937 2.2405 11.9037 2.3205C13.9737 3.1405 17.9737 4.5905 20.0937 5.3205C20.4637 5.4505 20.5537 5.6505 20.5537 6.1105V15.6405C20.5537 19.8605 18.5237 20.9705 12.2137 24.8105C11.8137 25.0605 11.5837 25.1405 11.3637 25.1405ZM9.8837 19.6305C10.3337 19.6305 10.7237 19.4105 10.9737 19.0005L17.2437 9.1605C17.3937 8.9005 17.5637 8.6005 17.5637 8.2805C17.5637 7.6805 17.0237 7.2905 16.4437 7.2905C16.0937 7.2905 15.7537 7.4905 15.5037 7.9005L9.8337 17.0105L7.1237 13.5205C6.8037 13.0805 6.4937 12.9605 6.1237 12.9605C5.5237 12.9605 5.0737 13.4405 5.0737 14.0505C5.0737 14.3405 5.1937 14.6405 5.3837 14.9005L8.7137 19.0005C9.0637 19.4505 9.4237 19.6305 9.8837 19.6305Z"
        fillRule="evenodd"
        clipRule="evenodd"
    />
</svg>
        