
<svg
    viewBox="0 0 27.890625 27.890625"
    xmlns="http://www.w3.org/2000/svg"
>
    <path
        fill="inherit"
        d="M13.9427 27.8864C21.6427 27.8864 27.8927 21.6264 27.8927 13.9464C27.8927 6.2464 21.6427 -0.0036 13.9427 -0.0036C6.2627 -0.0036 0.0027 6.2464 0.0027 13.9464C0.0027 21.6264 6.2627 27.8864 13.9427 27.8864ZM12.4127 20.6264C11.9527 20.6264 11.5627 20.4364 11.2127 19.9564L7.7827 15.7464C7.5727 15.4764 7.4527 15.1764 7.4527 14.8564C7.4527 14.2464 7.9327 13.7364 8.5427 13.7364C8.9427 13.7364 9.2427 13.8664 9.5827 14.3164L12.3627 17.8964L18.1927 8.5164C18.4527 8.1064 18.8127 7.8864 19.1727 7.8864C19.7727 7.8864 20.3327 8.2964 20.3327 8.9364C20.3327 9.2464 20.1527 9.5564 19.9927 9.8464L13.5627 19.9564C13.2727 20.4164 12.8827 20.6264 12.4127 20.6264Z"
        fillRule="evenodd"
        clipRule="evenodd"
    />
</svg>
        