
<svg
    viewBox={0 0 22.99609375 29.3125}
    xmlns="http://www.w3.org/2000/svg"
>
    <path
        fill="inherit"
        d="M0.0037 25.0373C0.0037 27.8873 1.4037 29.3173 4.2337 29.3173H18.7537C21.5837 29.3173 22.9937 27.8873 22.9937 25.0373V4.2973C22.9937 1.4473 21.5837 -0.0027 18.7537 -0.0027H4.2337C1.4037 -0.0027 0.0037 1.4473 0.0037 4.2973ZM9.9837 21.3373C9.5037 21.3373 9.1337 21.1473 8.7637 20.6673L5.3337 16.4773C5.1237 16.1973 5.0137 15.8873 5.0137 15.5873C5.0137 14.9573 5.4837 14.4473 6.1137 14.4473C6.4937 14.4473 6.8037 14.5873 7.1337 15.0373L9.9137 18.6073L15.7637 9.2373C16.0137 8.8173 16.3637 8.6173 16.7337 8.6173C17.3337 8.6173 17.8937 9.0273 17.8937 9.6473C17.8937 9.9573 17.7237 10.2773 17.5437 10.5573L11.1137 20.6673C10.8437 21.1273 10.4437 21.3373 9.9837 21.3373Z"
        fillRule="evenodd"
        clipRule="evenodd"
    />
</svg>
        