<svg viewBox="0 0 28.642578125 30.26953125" xmlns="http://www.w3.org/2000/svg"><path d="M5.7037 1.7595H22.9537C22.8737 0.5995 22.2137 -0.0005 20.9437 -0.0005H7.6937C6.4437 -0.0005 5.7837 0.5995 5.7037 1.7595ZM2.8837 5.5495H25.7737C25.5637 4.3095 24.9737 3.6195 23.6137 3.6195H5.0437C3.6737 3.6195 3.0937 4.3095 2.8837 5.5495ZM4.2937 30.2695H24.3537C27.1937 30.2695 28.6437 28.8495 28.6437 26.0295V11.9895C28.6437 9.1695 27.1937 7.7495 24.3537 7.7495H4.2937C1.4237 7.7495 0.0037 9.1695 0.0037 11.9895V26.0295C0.0037 28.8495 1.4237 30.2695 4.2937 30.2695ZM4.3237 28.0695C2.9537 28.0695 2.2037 27.3295 2.2037 25.9095V12.1095C2.2037 10.6895 2.9537 9.9495 4.3237 9.9495H24.3037C25.6637 9.9495 26.4437 10.6895 26.4437 12.1095V25.9095C26.4437 27.3295 25.6637 28.0695 24.3037 28.0695ZM12.8337 25.4995C13.2937 25.4995 13.6737 25.2795 13.9337 24.8695L20.1937 15.0295C20.3437 14.7695 20.5237 14.4695 20.5237 14.1495C20.5237 13.5495 19.9737 13.1495 19.4037 13.1495C19.0437 13.1495 18.7037 13.3595 18.4537 13.7695L12.7837 22.8695L10.0937 19.3895C9.7637 18.9495 9.4437 18.8295 9.0737 18.8295C8.4937 18.8295 8.0237 19.3095 8.0237 19.9195C8.0237 20.2095 8.1437 20.5095 8.3437 20.7695L11.6637 24.8695C12.0137 25.3195 12.3737 25.4995 12.8337 25.4995Z" /></svg>