
<svg
    viewBox="0 0 25.169921875 25.169921875"
    xmlns="http://www.w3.org/2000/svg"
>
    <path
        fill="inherit"
        d="M4.2937 25.1692H20.8737C23.7437 25.1692 25.1737 23.7592 25.1737 20.9492V4.2392C25.1737 1.4192 23.7437 -0.0008 20.8737 -0.0008H4.2937C1.4337 -0.0008 0.0037 1.4192 0.0037 4.2392V20.9492C0.0037 23.7592 1.4337 25.1692 4.2937 25.1692ZM4.3237 22.9692C2.9537 22.9692 2.2037 22.2392 2.2037 20.8192V4.3592C2.2037 2.9392 2.9537 2.1992 4.3237 2.1992H20.8537C22.2037 2.1992 22.9737 2.9392 22.9737 4.3592V20.8192C22.9737 22.2392 22.2037 22.9692 20.8537 22.9692ZM11.1037 19.0692C11.5537 19.0692 11.9337 18.8492 12.2137 18.4292L18.4537 8.5992C18.6237 8.3292 18.7837 8.0292 18.7837 7.7292C18.7837 7.1092 18.2337 6.7092 17.6737 6.7092C17.3237 6.7092 16.9837 6.9292 16.7237 7.3292L11.0437 16.4292L8.3537 12.9492C8.0237 12.5092 7.7237 12.3992 7.3537 12.3992C6.7537 12.3992 6.2937 12.8792 6.2937 13.4792C6.2937 13.7792 6.4137 14.0692 6.6037 14.3292L9.9437 18.4292C10.2837 18.8792 10.6537 19.0692 11.1037 19.0692Z"
        fillRule="evenodd"
        clipRule="evenodd"
    />
</svg>
        