
<svg
    viewBox="0 0 31.006281888857306 31.006281888857306"
    xmlns="http://www.w3.org/2000/svg"
>
    <path
        fill="inherit"
        d="M1.5328 18.5268L12.4828 29.4768C14.5028 31.5068 16.5028 31.5168 18.5128 29.5168L29.5228 18.4968C31.5128 16.5068 31.5028 14.4968 29.4828 12.4668L18.5428 1.5368C16.5128 -0.4932 14.5228 -0.5132 12.5128 1.4968L1.4928 12.4968C-0.5172 14.5068 -0.4872 16.5068 1.5328 18.5268ZM13.9928 22.1868C13.5128 22.1868 13.1428 21.9968 12.7728 21.5168L9.3528 17.3068C9.1328 17.0368 9.0228 16.7368 9.0228 16.4168C9.0228 15.8068 9.4928 15.2968 10.1228 15.2968C10.5028 15.2968 10.8128 15.4268 11.1428 15.8768L13.9328 19.4568L19.7728 10.0768C20.0128 9.6668 20.3728 9.4468 20.7428 9.4468C21.3428 9.4468 21.9028 9.8568 21.9028 10.4968C21.9028 10.8068 21.7228 11.1168 21.5628 11.4068L15.1228 21.5168C14.8528 21.9768 14.4528 22.1868 13.9928 22.1868Z"
        fillRule="evenodd"
        clipRule="evenodd"
    />
</svg>
        