
<svg
    viewBox={0 0 22.3671875 27.1796875}
    xmlns="http://www.w3.org/2000/svg"
>
    <path
        fill="inherit"
        d="M11.1837 27.1822C11.4037 27.1822 11.7437 27.1022 12.0837 26.9222C19.8637 22.8422 22.3637 20.8122 22.3637 15.9022V5.5922C22.3637 4.1822 21.7637 3.7322 20.6137 3.2522C19.0137 2.6022 13.9037 0.7422 12.3137 0.1922C11.9537 0.0722 11.5637 0.0022 11.1837 0.0022C10.8037 0.0022 10.4137 0.0822 10.0637 0.1922C8.4637 0.7122 3.3537 2.6122 1.7537 3.2522C0.6137 3.7222 0.0037 4.1822 0.0037 5.5922V15.9022C0.0037 20.8122 2.6437 22.6122 10.2837 26.9222C10.6337 27.1122 10.9637 27.1822 11.1837 27.1822ZM9.6637 19.7522C9.1837 19.7522 8.8137 19.5822 8.4537 19.1022L5.0337 14.8922C4.8237 14.6122 4.7037 14.3022 4.7037 14.0022C4.7037 13.3722 5.1637 12.8622 5.7937 12.8622C6.1837 12.8622 6.4937 13.0022 6.8237 13.4522L9.6137 17.0322L15.4537 7.6522C15.6937 7.2322 16.0537 7.0322 16.4237 7.0322C17.0237 7.0322 17.5837 7.4422 17.5837 8.0622C17.5837 8.3822 17.4037 8.6922 17.2437 8.9722L10.8037 19.1022C10.5237 19.5322 10.1337 19.7522 9.6637 19.7522Z"
        fillRule="evenodd"
        clipRule="evenodd"
    />
</svg>
        