
<svg
    viewBox={0 0 34.37109375 23.76171875}
    xmlns="http://www.w3.org/2000/svg"
>
    <path
        fill="inherit"
        d="M27.0127 23.7594C31.1427 23.7594 34.3727 20.7394 34.3727 16.9794C34.3727 14.1094 32.7127 11.6194 30.0527 10.4994C30.0827 4.3994 25.6927 -0.0006 20.0927 -0.0006C16.3927 -0.0006 13.7527 1.9794 12.1127 4.3794C8.7527 3.3894 5.0827 5.9494 5.0127 9.7794C1.9327 10.2694 0.0027 13.0294 0.0027 16.3694C0.0027 20.3894 3.5127 23.7594 8.1927 23.7594ZM16.2127 18.3894C15.7627 18.3894 15.3927 18.1994 15.0627 17.7694L12.0027 13.9194C11.8027 13.6494 11.6927 13.3694 11.6927 13.0794C11.6927 12.4394 12.1827 11.9494 12.7927 11.9494C13.2027 11.9494 13.5527 12.1394 13.8127 12.4994L16.1627 15.5694L20.8327 7.7694C21.0527 7.3794 21.4227 7.1494 21.8027 7.1494C22.4527 7.1494 22.9727 7.5994 22.9727 8.1994C22.9727 8.5194 22.7927 8.8294 22.6527 9.0494L17.3127 17.7594C17.0527 18.1694 16.6627 18.3894 16.2127 18.3894Z"
        fillRule="evenodd"
        clipRule="evenodd"
    />
</svg>
        