<svg viewBox="0 0 30.65234375 27.6171875" xmlns="http://www.w3.org/2000/svg"><path d="M5.8937 11.8023C9.1037 11.8023 11.7837 9.1023 11.7837 5.8923C11.7837 2.6623 9.1037 0.0023 5.8937 0.0023C2.6637 0.0023 0.0037 2.6623 0.0037 5.8923C0.0037 9.1023 2.6837 11.8023 5.8937 11.8023ZM5.8937 9.8023C3.7737 9.8023 1.9937 8.0123 1.9937 5.8923C1.9937 3.7723 3.7837 1.9823 5.8937 1.9823C7.9937 1.9823 9.7937 3.7823 9.7937 5.8923C9.7937 8.0123 7.9937 9.8023 5.8937 9.8023ZM15.9437 7.0123H29.5337C30.1437 7.0123 30.6537 6.5223 30.6537 5.9023C30.6537 5.2923 30.1437 4.8123 29.5337 4.8123H15.9437C15.3137 4.8123 14.8337 5.2923 14.8337 5.9023C14.8337 6.5223 15.3137 7.0123 15.9437 7.0123ZM5.8937 27.6123C9.1037 27.6123 11.7837 24.9423 11.7837 21.7223C11.7837 18.4823 9.1037 15.8223 5.8937 15.8223C2.6637 15.8223 0.0037 18.5023 0.0037 21.7223C0.0037 24.9423 2.6837 27.6123 5.8937 27.6123ZM5.8937 25.6223C3.7737 25.6223 1.9937 23.8323 1.9937 21.7223C1.9937 19.6023 3.7837 17.8123 5.8937 17.8123C7.9937 17.8123 9.7937 19.6023 9.7937 21.7223C9.7937 23.8323 7.9937 25.6223 5.8937 25.6223ZM15.9437 22.8223H29.5337C30.1437 22.8223 30.6537 22.3423 30.6537 21.7223C30.6537 21.0923 30.1437 20.6123 29.5337 20.6123H15.9437C15.3137 20.6123 14.8337 21.0923 14.8337 21.7223C14.8337 22.3423 15.3137 22.8223 15.9437 22.8223Z" /></svg>