
<svg
    viewBox={0 0 22.99609375 29.3125}
    xmlns="http://www.w3.org/2000/svg"
>
    <path
        fill="inherit"
        d="M0.0037 25.0373C0.0037 27.8873 1.4037 29.3173 4.2337 29.3173H18.7537C21.5837 29.3173 22.9937 27.8873 22.9937 25.0373V4.2973C22.9937 1.4473 21.5837 -0.0027 18.7537 -0.0027H4.2337C1.4037 -0.0027 0.0037 1.4473 0.0037 4.2973ZM2.2037 24.9873V4.3373C2.2037 2.9673 2.9237 2.1973 4.3437 2.1973H18.6437C20.0737 2.1973 20.7937 2.9673 20.7937 4.3373V24.9873C20.7937 26.3573 20.0737 27.1073 18.6437 27.1073H4.3437C2.9237 27.1073 2.2037 26.3573 2.2037 24.9873ZM10.0237 21.1473C10.4737 21.1473 10.8537 20.9273 11.1137 20.5073L17.3637 10.6773C17.5237 10.4073 17.7037 10.1073 17.7037 9.8073C17.7037 9.1873 17.1537 8.7873 16.5837 8.7873C16.2237 8.7873 15.8837 9.0073 15.6437 9.4073L9.9537 18.5073L7.2637 15.0273C6.9437 14.5873 6.6337 14.4773 6.2637 14.4773C5.6637 14.4773 5.2137 14.9573 5.2137 15.5573C5.2137 15.8573 5.3137 16.1473 5.5137 16.4073L8.8437 20.5073C9.2037 20.9573 9.5537 21.1473 10.0237 21.1473Z"
        fillRule="evenodd"
        clipRule="evenodd"
    />
</svg>
        