
<svg
    viewBox="0 0 32.23828125 25.169921875"
    xmlns="http://www.w3.org/2000/svg"
>
    <path
        fill="inherit"
        d="M4.2937 25.1692H27.9437C30.8137 25.1692 32.2337 23.7592 32.2337 20.9492V4.2392C32.2337 1.4192 30.8137 -0.0008 27.9437 -0.0008H4.2937C1.4337 -0.0008 0.0037 1.4192 0.0037 4.2392V20.9492C0.0037 23.7592 1.4337 25.1692 4.2937 25.1692ZM4.3237 22.9692C2.9537 22.9692 2.2037 22.2392 2.2037 20.8192V4.3592C2.2037 2.9392 2.9537 2.1992 4.3237 2.1992H27.9137C29.2737 2.1992 30.0337 2.9392 30.0337 4.3592V20.8192C30.0337 22.2392 29.2737 22.9692 27.9137 22.9692ZM14.6437 19.0692C15.0937 19.0692 15.4737 18.8492 15.7337 18.4292L21.9937 8.5992C22.1437 8.3292 22.3237 8.0292 22.3237 7.7292C22.3237 7.1092 21.7837 6.7092 21.2037 6.7092C20.8537 6.7092 20.5037 6.9292 20.2637 7.3292L14.5837 16.4292L11.8837 12.9492C11.5637 12.5092 11.2537 12.3992 10.8837 12.3992C10.2837 12.3992 9.8337 12.8792 9.8337 13.4792C9.8337 13.7792 9.9437 14.0692 10.1437 14.3292L13.4637 18.4292C13.8237 18.8792 14.1737 19.0692 14.6437 19.0692Z"
        fillRule="evenodd"
        clipRule="evenodd"
    />
</svg>
        