
<svg
    viewBox="0 0 27.890625 27.890625"
    xmlns="http://www.w3.org/2000/svg"
>
    <path
        fill="inherit"
        d="M13.9427 27.8864C21.6427 27.8864 27.8927 21.6464 27.8927 13.9464C27.8927 6.2464 21.6427 -0.0036 13.9427 -0.0036C6.2527 -0.0036 0.0027 6.2464 0.0027 13.9464C0.0027 21.6464 6.2527 27.8864 13.9427 27.8864ZM13.9427 25.5664C7.5227 25.5664 2.3227 20.3664 2.3227 13.9464C2.3227 7.5164 7.5227 2.3264 13.9427 2.3264C20.3727 2.3264 25.5627 7.5164 25.5627 13.9464C25.5627 20.3664 20.3727 25.5664 13.9427 25.5664ZM12.4427 20.4364C12.8927 20.4364 13.2727 20.2164 13.5527 19.7964L19.7927 9.9664C19.9427 9.6964 20.1227 9.3964 20.1227 9.0964C20.1227 8.4764 19.5827 8.0764 19.0027 8.0764C18.6627 8.0764 18.3227 8.2964 18.0627 8.6964L12.3827 17.7964L9.6927 14.3164C9.3627 13.8764 9.0627 13.7664 8.6827 13.7664C8.0927 13.7664 7.6327 14.2464 7.6327 14.8464C7.6327 15.1464 7.7527 15.4364 7.9427 15.6964L11.2827 19.7964C11.6227 20.2464 11.9927 20.4364 12.4427 20.4364Z"
        fillRule="evenodd"
        clipRule="evenodd"
    />
</svg>
        