<svg viewBox="0 0 22.99609375 29.3125" xmlns="http://www.w3.org/2000/svg"><path d="M0.0037 25.0373C0.0037 27.8873 1.4037 29.3173 4.2337 29.3173H18.7537C21.5837 29.3173 22.9937 27.8873 22.9937 25.0373V4.2973C22.9937 1.4473 21.5837 -0.0027 18.7537 -0.0027H4.2337C1.4037 -0.0027 0.0037 1.4473 0.0037 4.2973ZM8.3637 14.0573C7.4737 14.0573 7.0537 13.6473 7.0537 12.7673V11.6773C7.0537 11.5673 7.0437 11.4873 6.9637 11.4173L6.1837 10.6273C5.5537 10.0073 5.5537 9.4073 6.1837 8.7773L6.9637 7.9973C7.0437 7.9273 7.0537 7.8473 7.0537 7.7473V6.6573C7.0537 5.7573 7.4737 5.3573 8.3637 5.3573H9.4637C9.5737 5.3573 9.6537 5.3173 9.7237 5.2373L10.5137 4.4873C11.1337 3.8373 11.7337 3.8273 12.3437 4.4873L13.1437 5.2373C13.2237 5.2873 13.2737 5.3573 13.3837 5.3573H14.4637C15.3637 5.3573 15.7737 5.7673 15.7737 6.6573V7.7473C15.7737 7.8473 15.7937 7.9273 15.8837 7.9973L16.6537 8.7773C17.2937 9.4073 17.2937 10.0073 16.6537 10.6273L15.8837 11.4173C15.7937 11.4873 15.7737 11.5673 15.7737 11.6773V12.7673C15.7737 13.6473 15.3537 14.0573 14.4637 14.0573H13.3837C13.2737 14.0573 13.2237 14.1073 13.1437 14.1773L12.3437 14.9473C11.7337 15.5673 11.1337 15.5873 10.5137 14.9473L9.7237 14.1773C9.6437 14.0973 9.5737 14.0573 9.4637 14.0573ZM10.8537 12.3473C11.0837 12.3473 11.3037 12.2473 11.4437 12.0073L13.8037 8.2873C13.8737 8.1773 13.9637 8.0073 13.9637 7.8473C13.9637 7.5073 13.6737 7.2873 13.3537 7.2873C13.1437 7.2873 12.9637 7.4273 12.8537 7.6173L10.8237 10.8273L9.9637 9.7373C9.7937 9.5473 9.6437 9.4373 9.4437 9.4373C9.0737 9.4373 8.8337 9.7173 8.8337 10.0473C8.8337 10.1973 8.9037 10.3673 9.0137 10.4773L10.2637 12.0173C10.4637 12.2473 10.6337 12.3473 10.8537 12.3473ZM6.1237 19.1973C5.6237 19.1973 5.2337 18.7973 5.2337 18.3073C5.2337 17.8273 5.6237 17.4573 6.1237 17.4573H16.8937C17.4037 17.4573 17.7737 17.8273 17.7737 18.3073C17.7737 18.7973 17.4037 19.1973 16.8937 19.1973ZM6.1237 23.4373C5.6237 23.4373 5.2337 23.0673 5.2337 22.5873C5.2337 22.0773 5.6237 21.6873 6.1237 21.6873H11.2137C11.7337 21.6873 12.0837 22.0773 12.0837 22.5873C12.0837 23.0673 11.7337 23.4373 11.2137 23.4373Z" /></svg>