<svg viewBox="0 0 25.169921875 25.169921875" xmlns="http://www.w3.org/2000/svg"><path d="M4.2937 25.1692H20.8737C23.7437 25.1692 25.1737 23.7592 25.1737 20.9492V4.2392C25.1737 1.4192 23.7437 -0.0008 20.8737 -0.0008H4.2937C1.4337 -0.0008 0.0037 1.4192 0.0037 4.2392V20.9492C0.0037 23.7592 1.4337 25.1692 4.2937 25.1692ZM11.0637 19.2592C10.5937 19.2592 10.2137 19.0692 9.8537 18.5892L6.4237 14.3792C6.2237 14.1092 6.0937 13.8092 6.0937 13.4892C6.0937 12.8792 6.5737 12.3692 7.2037 12.3692C7.5837 12.3692 7.8937 12.4992 8.2337 12.9492L11.0037 16.5292L16.8437 7.1492C17.1037 6.7392 17.4637 6.5192 17.8237 6.5192C18.4137 6.5192 18.9737 6.9292 18.9737 7.5692C18.9737 7.8792 18.8137 8.1892 18.6337 8.4792L12.2137 18.5892C11.9237 19.0492 11.5237 19.2592 11.0637 19.2592Z" /></svg>