
<svg
    viewBox={0 0 22.99609375 29.3125}
    xmlns="http://www.w3.org/2000/svg"
>
    <path
        fill="inherit"
        d="M0.0037 25.0373C0.0037 27.8873 1.4037 29.3173 4.2337 29.3173H18.7537C21.5837 29.3173 22.9937 27.8873 22.9937 25.0373V4.2973C22.9937 1.4473 21.5837 -0.0027 18.7537 -0.0027H4.2337C1.4037 -0.0027 0.0037 1.4473 0.0037 4.2973ZM2.2037 24.9873V4.3373C2.2037 2.9673 2.9237 2.1973 4.3437 2.1973H18.6437C20.0737 2.1973 20.7937 2.9673 20.7937 4.3373V24.9873C20.7937 26.3573 20.0737 27.1073 18.6437 27.1073H4.3437C2.9237 27.1073 2.2037 26.3573 2.2037 24.9873ZM8.5437 14.0373H9.6137C9.7037 14.0373 9.7737 14.0773 9.8537 14.1673L10.6237 14.8973C11.2237 15.5273 11.8037 15.5173 12.4037 14.8973L13.1637 14.1673C13.2437 14.0973 13.3037 14.0373 13.4137 14.0373H14.4637C15.3237 14.0373 15.7337 13.6473 15.7337 12.7973V11.7273C15.7337 11.6373 15.7537 11.5573 15.8337 11.4873L16.5837 10.7173C17.2037 10.1173 17.2037 9.5473 16.5837 8.9273L15.8337 8.1773C15.7537 8.1073 15.7337 8.0273 15.7337 7.9273V6.8673C15.7337 5.9973 15.3437 5.6073 14.4637 5.6073H13.4137C13.3037 5.6073 13.2437 5.5473 13.1637 5.4973L12.4037 4.7573C11.8037 4.1273 11.2237 4.1473 10.6237 4.7573L9.8537 5.4973C9.7937 5.5773 9.7037 5.6073 9.6137 5.6073H8.5437C7.6837 5.6073 7.2737 5.9873 7.2737 6.8673V7.9273C7.2737 8.0273 7.2637 8.1073 7.1737 8.1773L6.4237 8.9273C5.8137 9.5473 5.8137 10.1173 6.4237 10.7173L7.1737 11.4873C7.2637 11.5573 7.2737 11.6373 7.2737 11.7273V12.7973C7.2737 13.6473 7.6837 14.0373 8.5437 14.0373ZM10.9537 12.3873C10.7437 12.3873 10.5637 12.2873 10.3937 12.0673L9.1637 10.5673C9.0637 10.4573 8.9937 10.3073 8.9937 10.1573C8.9937 9.8473 9.2237 9.5673 9.5837 9.5673C9.7737 9.5673 9.9237 9.6673 10.0937 9.8573L10.9337 10.9273L12.8937 7.7973C13.0037 7.6173 13.1837 7.4773 13.3837 7.4773C13.6837 7.4773 13.9737 7.6973 13.9737 8.0273C13.9737 8.1773 13.8937 8.3373 13.8237 8.4473L11.5237 12.0573C11.3937 12.2873 11.1837 12.3873 10.9537 12.3873ZM6.2937 19.0273H16.7337C17.2237 19.0273 17.5837 18.6473 17.5837 18.1673C17.5837 17.7073 17.2237 17.3473 16.7337 17.3473H6.2937C5.7937 17.3473 5.4237 17.7073 5.4237 18.1673C5.4237 18.6473 5.7937 19.0273 6.2937 19.0273ZM6.2937 23.1373H11.2237C11.7137 23.1373 12.0737 22.7773 12.0737 22.3173C12.0737 21.8373 11.7137 21.4473 11.2237 21.4473H6.2937C5.7937 21.4473 5.4237 21.8373 5.4237 22.3173C5.4237 22.7773 5.7937 23.1373 6.2937 23.1373Z"
        fillRule="evenodd"
        clipRule="evenodd"
    />
</svg>
        