
<svg
    viewBox={0 0 27.890625 30.544813437289537}
    xmlns="http://www.w3.org/2000/svg"
>
    <path
        fill="inherit"
        d="M13.9427 30.5406C21.6427 30.5406 27.8927 24.3006 27.8927 16.6006C27.8927 9.7806 22.9827 4.1206 16.5827 2.9106V0.9706C16.5827 -0.0094 15.9127 -0.2594 15.1527 0.2706L10.8027 3.3406C10.1727 3.7906 10.1827 4.4406 10.8027 4.8806L15.1627 7.9406C15.9127 8.4606 16.5827 8.2206 16.5827 7.2506V5.2806C21.7227 6.4706 25.5627 11.0506 25.5627 16.6006C25.5627 23.0206 20.3727 28.2206 13.9427 28.2206C7.5227 28.2206 2.3227 23.0206 2.3227 16.6006C2.3227 12.7006 4.2427 9.2706 7.1327 7.1906C7.6927 6.7706 7.8727 6.1306 7.5327 5.5506C7.1927 5.0106 6.4127 4.8406 5.8127 5.3106C2.2827 7.8506 0.0027 11.9106 0.0027 16.6006C0.0027 24.3006 6.2527 30.5406 13.9427 30.5406ZM12.4527 23.0906C12.9027 23.0906 13.2927 22.8706 13.5627 22.4506L19.8127 12.6206C19.9627 12.3506 20.1427 12.0506 20.1427 11.7506C20.1427 11.1306 19.5927 10.7306 19.0127 10.7306C18.6727 10.7306 18.3327 10.9506 18.0727 11.3506L12.4027 20.4506L9.7027 16.9706C9.3827 16.5306 9.0827 16.4206 8.6927 16.4206C8.1027 16.4206 7.6427 16.9006 7.6427 17.5006C7.6427 17.8006 7.7627 18.0906 7.9527 18.3506L11.2927 22.4506C11.6327 22.9006 12.0027 23.0906 12.4527 23.0906Z"
        fillRule="evenodd"
        clipRule="evenodd"
    />
</svg>
        