
<svg
    viewBox={0 0 27.890625 27.890625}
    xmlns="http://www.w3.org/2000/svg"
>
    <path
        fill="inherit"
        d="M13.9427 27.8864C21.6427 27.8864 27.8927 21.6464 27.8927 13.9464C27.8927 6.2464 21.6427 -0.0036 13.9427 -0.0036C6.2527 -0.0036 0.0027 6.2464 0.0027 13.9464C0.0027 21.6464 6.2527 27.8864 13.9427 27.8864ZM13.9427 25.5664C7.5227 25.5664 2.3227 20.3664 2.3227 13.9464C2.3227 7.5164 7.5227 2.3264 13.9427 2.3264C20.3727 2.3264 25.5627 7.5164 25.5627 13.9464C25.5627 20.3664 20.3727 25.5664 13.9427 25.5664ZM10.8327 20.7164C11.1827 21.0564 11.8927 21.0264 12.2727 20.6764L17.9627 15.2964C18.7427 14.5864 18.7427 13.3264 17.9627 12.6164L12.2727 7.2464C11.8527 6.8464 11.2227 6.8364 10.8427 7.2064C10.4027 7.6064 10.3927 8.2864 10.8127 8.6664L16.4327 13.9464L10.8127 19.2464C10.4027 19.6364 10.4027 20.2864 10.8327 20.7164Z"
        fillRule="evenodd"
        clipRule="evenodd"
    />
</svg>
        