
<svg
    viewBox={0 0 25.169921875 25.169921875}
    xmlns="http://www.w3.org/2000/svg"
>
    <path
        fill="inherit"
        d="M4.2937 25.1692H20.8737C23.7437 25.1692 25.1737 23.7592 25.1737 20.9492V4.2392C25.1737 1.4192 23.7437 -0.0008 20.8737 -0.0008H4.2937C1.4337 -0.0008 0.0037 1.4192 0.0037 4.2392V20.9492C0.0037 23.7592 1.4337 25.1692 4.2937 25.1692ZM12.8337 4.2692C13.0937 4.2692 13.3537 4.3992 13.5737 4.5892L18.7037 9.5292C18.8537 9.6792 19.0037 9.9292 19.0037 10.2392C19.0037 10.7892 18.5437 11.2092 18.0037 11.2092C17.7737 11.2092 17.5137 11.1392 17.2937 10.9392L12.8337 6.5792L8.3937 10.9392C8.1737 11.1592 7.9037 11.2092 7.6837 11.2092C7.1337 11.2092 6.6837 10.7892 6.6837 10.2392C6.6837 9.9292 6.8237 9.6792 6.9837 9.5292L12.1137 4.5892C12.3337 4.3992 12.5737 4.2692 12.8337 4.2692ZM12.8337 20.8892C12.5737 20.8892 12.3137 20.7492 12.1137 20.5592L6.9837 15.6092C6.8237 15.4792 6.6837 15.2192 6.6837 14.9192C6.6837 14.3692 7.1337 13.9292 7.6837 13.9292C7.9037 13.9292 8.1737 13.9992 8.3937 14.2192L12.8337 18.5792L17.2937 14.2192C17.5137 14.0092 17.7737 13.9292 18.0037 13.9292C18.5437 13.9292 19.0037 14.3692 19.0037 14.9192C19.0037 15.2192 18.8537 15.4792 18.7037 15.6092L13.5737 20.5592C13.3737 20.7492 13.0937 20.8892 12.8337 20.8892Z"
        fillRule="evenodd"
        clipRule="evenodd"
    />
</svg>
        