<svg viewBox="0 0 25.169921875 25.169921875" xmlns="http://www.w3.org/2000/svg"><path d="M4.2937 25.1692H20.8737C23.7437 25.1692 25.1737 23.7592 25.1737 20.9492V4.2392C25.1737 1.4192 23.7437 -0.0008 20.8737 -0.0008H4.2937C1.4337 -0.0008 0.0037 1.4192 0.0037 4.2392V20.9492C0.0037 23.7592 1.4337 25.1692 4.2937 25.1692ZM14.0137 17.0892C13.1237 18.0292 12.1037 18.0292 11.2137 17.0892L5.6837 11.2292C5.2537 10.7692 5.2537 10.1292 5.6337 9.7192C6.0737 9.2692 6.7537 9.2692 7.1537 9.6892L12.6237 15.4792L18.0737 9.6892C18.4737 9.2692 19.1437 9.2792 19.5937 9.7192C19.9837 10.1192 19.9737 10.7692 19.5337 11.2292Z" /></svg>