
<svg
    viewBox="0 0 25.169921875 25.169921875"
    xmlns="http://www.w3.org/2000/svg"
>
    <path
        fill="inherit"
        d="M4.2937 25.1692H20.8737C23.7437 25.1692 25.1737 23.7592 25.1737 20.9492V4.2392C25.1737 1.4192 23.7437 -0.0008 20.8737 -0.0008H4.2937C1.4337 -0.0008 0.0037 1.4192 0.0037 4.2392V20.9492C0.0037 23.7592 1.4337 25.1692 4.2937 25.1692ZM4.3237 22.9692C2.9537 22.9692 2.2037 22.2392 2.2037 20.8192V4.3592C2.2037 2.9392 2.9537 2.1992 4.3237 2.1992H20.8537C22.2037 2.1992 22.9737 2.9392 22.9737 4.3592V20.8192C22.9737 22.2392 22.2037 22.9692 20.8537 22.9692ZM5.8537 15.7492C6.2637 16.1892 6.9337 16.1892 7.3137 15.7792L12.6037 10.1692L17.9137 15.7792C18.2937 16.1892 18.9637 16.1892 19.3737 15.7492C19.7437 15.3792 19.7237 14.7392 19.3337 14.3192L13.9637 8.6092C13.0937 7.7092 12.1137 7.7092 11.2637 8.6092L5.8937 14.3192C5.4837 14.7392 5.4737 15.3792 5.8537 15.7492Z"
        fillRule="evenodd"
        clipRule="evenodd"
    />
</svg>
        