
<svg
    viewBox={0 0 25.251953125 25.265625}
    xmlns="http://www.w3.org/2000/svg"
>
    <path
        fill="inherit"
        d="M20.4637 2.5139C21.1637 2.5139 21.7237 1.9539 21.7237 1.2539C21.7237 0.5639 21.1637 0.0039 20.4637 0.0039C19.7737 0.0039 19.2137 0.5639 19.2137 1.2539C19.2137 1.9539 19.7737 2.5139 20.4637 2.5139ZM16.9537 2.5139C17.6537 2.5139 18.2137 1.9539 18.2137 1.2539C18.2137 0.5639 17.6537 0.0039 16.9537 0.0039C16.2537 0.0039 15.6937 0.5639 15.6937 1.2539C15.6937 1.9539 16.2537 2.5139 16.9537 2.5139ZM13.4237 2.5139C14.1237 2.5139 14.6837 1.9539 14.6837 1.2539C14.6837 0.5639 14.1237 0.0039 13.4237 0.0039C12.7237 0.0039 12.1637 0.5639 12.1637 1.2539C12.1637 1.9539 12.7237 2.5139 13.4237 2.5139ZM9.9137 2.5139C10.6137 2.5139 11.1737 1.9539 11.1737 1.2539C11.1737 0.5639 10.6137 0.0039 9.9137 0.0039C9.2137 0.0039 8.6537 0.5639 8.6537 1.2539C8.6537 1.9539 9.2137 2.5139 9.9137 2.5139ZM23.9937 2.5139C24.6937 2.5139 25.2537 1.9539 25.2537 1.2539C25.2537 0.5639 24.6937 0.0039 23.9937 0.0039C23.2937 0.0039 22.7337 0.5639 22.7337 1.2539C22.7337 1.9539 23.2937 2.5139 23.9937 2.5139ZM23.9937 6.0339C24.6937 6.0339 25.2537 5.4639 25.2537 4.7739C25.2537 4.0739 24.6937 3.5139 23.9937 3.5139C23.2937 3.5139 22.7337 4.0739 22.7337 4.7739C22.7337 5.4639 23.2937 6.0339 23.9937 6.0339ZM23.9937 9.5539C24.6937 9.5539 25.2537 8.9939 25.2537 8.2939C25.2537 7.6039 24.6937 7.0439 23.9937 7.0439C23.2937 7.0439 22.7337 7.6039 22.7337 8.2939C22.7337 8.9939 23.2937 9.5539 23.9937 9.5539ZM11.8237 11.1839C12.5237 11.1839 13.0837 10.6239 13.0837 9.9239C13.0837 9.2239 12.5237 8.6639 11.8237 8.6639C11.1337 8.6639 10.5637 9.2239 10.5637 9.9239C10.5637 10.6239 11.1337 11.1839 11.8237 11.1839ZM8.3037 11.1839C8.9937 11.1839 9.5537 10.6239 9.5537 9.9239C9.5537 9.2239 8.9937 8.6639 8.3037 8.6639C7.6037 8.6639 7.0437 9.2239 7.0437 9.9239C7.0437 10.6239 7.6037 11.1839 8.3037 11.1839ZM4.7837 11.1839C5.4837 11.1839 6.0437 10.6239 6.0437 9.9239C6.0437 9.2239 5.4837 8.6639 4.7837 8.6639C4.0737 8.6639 3.5237 9.2239 3.5237 9.9239C3.5237 10.6239 4.0737 11.1839 4.7837 11.1839ZM1.2537 11.1839C1.9537 11.1839 2.5137 10.6239 2.5137 9.9239C2.5137 9.2239 1.9537 8.6639 1.2537 8.6639C0.5637 8.6639 0.0037 9.2239 0.0037 9.9239C0.0037 10.6239 0.5637 11.1839 1.2537 11.1839ZM15.3437 11.1839C16.0337 11.1839 16.5937 10.6239 16.5937 9.9239C16.5937 9.2239 16.0337 8.6639 15.3437 8.6639C14.6437 8.6639 14.0837 9.2239 14.0837 9.9239C14.0837 10.6239 14.6437 11.1839 15.3437 11.1839ZM23.9937 13.0739C24.6937 13.0739 25.2537 12.5139 25.2537 11.8139C25.2537 11.1139 24.6937 10.5539 23.9937 10.5539C23.2937 10.5539 22.7337 11.1139 22.7337 11.8139C22.7337 12.5139 23.2937 13.0739 23.9937 13.0739ZM15.3437 14.6939C16.0337 14.6939 16.5937 14.1539 16.5937 13.4439C16.5937 12.7439 16.0337 12.1839 15.3437 12.1839C14.6437 12.1839 14.0837 12.7439 14.0837 13.4439C14.0837 14.1539 14.6437 14.6939 15.3437 14.6939ZM23.9937 16.5939C24.6937 16.5939 25.2537 16.0339 25.2537 15.3439C25.2537 14.6439 24.6937 14.0839 23.9937 14.0839C23.2937 14.0839 22.7337 14.6439 22.7337 15.3439C22.7337 16.0339 23.2937 16.5939 23.9937 16.5939ZM15.3437 18.2239C16.0337 18.2239 16.5937 17.6639 16.5937 16.9639C16.5937 16.2739 16.0337 15.7139 15.3437 15.7139C14.6437 15.7139 14.0837 16.2739 14.0837 16.9639C14.0837 17.6639 14.6437 18.2239 15.3437 18.2239ZM15.3437 21.7539C16.0337 21.7539 16.5937 21.1939 16.5937 20.4839C16.5937 19.7839 16.0337 19.2239 15.3437 19.2239C14.6437 19.2239 14.0837 19.7839 14.0837 20.4839C14.0837 21.1939 14.6437 21.7539 15.3437 21.7539ZM15.3437 25.2639C16.0337 25.2639 16.5937 24.7039 16.5937 24.0039C16.5937 23.3139 16.0337 22.7539 15.3437 22.7539C14.6437 22.7539 14.0837 23.3139 14.0837 24.0039C14.0837 24.7039 14.6437 25.2639 15.3437 25.2639Z"
        fillRule="evenodd"
        clipRule="evenodd"
    />
</svg>
        