
<svg
    viewBox={0 0 25.169921875 25.169921875}
    xmlns="http://www.w3.org/2000/svg"
>
    <path
        fill="inherit"
        d="M4.2937 25.1692H20.8737C23.7437 25.1692 25.1737 23.7592 25.1737 20.9492V4.2392C25.1737 1.4192 23.7437 -0.0008 20.8737 -0.0008H4.2937C1.4337 -0.0008 0.0037 1.4192 0.0037 4.2392V20.9492C0.0037 23.7592 1.4337 25.1692 4.2937 25.1692ZM4.3237 22.9692C2.9537 22.9692 2.2037 22.2392 2.2037 20.8192V4.3592C2.2037 2.9392 2.9537 2.1992 4.3237 2.1992H20.8537C22.2037 2.1992 22.9737 2.9392 22.9737 4.3592V20.8192C22.9737 22.2392 22.2037 22.9692 20.8537 22.9692ZM15.3037 19.3492C15.7237 18.9192 15.7137 18.2692 15.3137 17.8792L9.6937 12.5792L15.3137 7.2992C15.7237 6.9192 15.7137 6.2392 15.2837 5.8392C14.9037 5.4692 14.2737 5.4792 13.8537 5.8792L8.1637 11.2492C7.3837 11.9592 7.3837 13.2192 8.1637 13.9292L13.8537 19.3092C14.2337 19.6592 14.9437 19.6892 15.3037 19.3492Z"
        fillRule="evenodd"
        clipRule="evenodd"
    />
</svg>
        