
<svg
    viewBox="0 0 15.791015625 23.76171875"
    xmlns="http://www.w3.org/2000/svg"
>
    <path
        fill="inherit"
        d="M0.0037 22.502C0.0037 23.212 0.5437 23.762 1.2537 23.762C1.6037 23.762 1.9037 23.642 2.1437 23.382L12.9737 12.792C13.1637 12.622 13.2937 12.402 13.3437 12.172V22.572C13.3437 23.272 13.8537 23.762 14.5637 23.762C15.2737 23.762 15.7937 23.272 15.7937 22.572V1.212C15.7937 0.502 15.2737 0.002 14.5637 0.002C13.8537 0.002 13.3437 0.502 13.3437 1.212V11.582C13.2937 11.352 13.1637 11.142 12.9837 10.962L2.1437 0.372C1.8837 0.132 1.6037 0.002 1.2437 0.002C0.5437 0.002 0.0037 0.532 0.0037 1.262C0.0037 1.602 0.1237 1.912 0.3737 2.142L10.3237 11.882L0.3737 21.612C0.1237 21.862 0.0037 22.162 0.0037 22.502Z"
        fillRule="evenodd"
        clipRule="evenodd"
    />
</svg>
        