
<svg
    viewBox={0 0 27.890625 27.890625}
    xmlns="http://www.w3.org/2000/svg"
>
    <path
        fill="inherit"
        d="M13.9427 27.8864C21.6427 27.8864 27.8927 21.6264 27.8927 13.9464C27.8927 6.2464 21.6427 -0.0036 13.9427 -0.0036C6.2627 -0.0036 0.0027 6.2464 0.0027 13.9464C0.0027 21.6264 6.2627 27.8864 13.9427 27.8864ZM15.3627 18.4564C14.4827 19.3964 13.4527 19.3964 12.5627 18.4564L7.0427 12.5964C6.6027 12.1364 6.6027 11.4964 6.9827 11.0864C7.4227 10.6364 8.1027 10.6364 8.5027 11.0564L13.9627 16.8464L19.4127 11.0564C19.8227 10.6364 20.4927 10.6464 20.9427 11.0864C21.3427 11.4864 21.3127 12.1364 20.8927 12.5964Z"
        fillRule="evenodd"
        clipRule="evenodd"
    />
</svg>
        