
<svg
    viewBox="0 0 25.59375 23.748046875"
    xmlns="http://www.w3.org/2000/svg"
>
    <path
        fill="inherit"
        d="M1.2437 23.752C1.6037 23.752 1.9037 23.612 2.1437 23.382L12.9737 12.792C13.2337 12.542 13.3737 12.222 13.3737 11.882C13.3737 11.522 13.2337 11.182 12.9737 10.962L2.1337 0.372C1.9037 0.132 1.6037 0.002 1.2437 0.002C0.5337 0.002 0.0037 0.542 0.0037 1.262C0.0037 1.582 0.1337 1.912 0.3537 2.142L10.3037 11.882L0.3537 21.612C0.1337 21.852 0.0037 22.162 0.0037 22.502C0.0037 23.212 0.5337 23.752 1.2437 23.752ZM13.4637 23.752C13.8237 23.752 14.1237 23.612 14.3537 23.382L25.1837 12.792C25.4437 12.542 25.5937 12.222 25.5937 11.882C25.5937 11.522 25.4437 11.182 25.1837 10.962L14.3537 0.372C14.1137 0.132 13.8237 0.002 13.4637 0.002C12.7537 0.002 12.2137 0.542 12.2137 1.262C12.2137 1.582 12.3637 1.912 12.5737 2.142L22.5337 11.882L12.5737 21.612C12.3637 21.852 12.2137 22.162 12.2137 22.502C12.2137 23.212 12.7537 23.752 13.4637 23.752Z"
        fillRule="evenodd"
        clipRule="evenodd"
    />
</svg>
        