
<svg
    viewBox="0 0 18.279296875 24.376953125"
    xmlns="http://www.w3.org/2000/svg"
>
    <path
        fill="inherit"
        d="M12.8937 24.3738C13.3937 24.3738 13.8637 24.0338 14.0637 23.5038L17.7337 14.1738C17.9737 13.5538 18.2837 12.7838 18.2837 12.1838C18.2837 11.5838 17.9737 10.8138 17.7337 10.1838L14.0637 0.8637C13.8637 0.3238 13.3937 0.0038 12.8937 0.0038C12.0837 0.0038 11.4837 0.5837 11.4837 1.3837C11.4837 1.7737 11.7137 2.3238 11.8437 2.6838L15.5837 12.1838L11.8437 21.6838C11.7137 22.0438 11.4837 22.5738 11.4837 22.9838C11.4837 23.7938 12.0837 24.3738 12.8937 24.3738ZM5.3737 24.3738C6.1837 24.3738 6.7937 23.7938 6.7937 22.9838C6.7937 22.5738 6.5637 22.0438 6.4237 21.6838L2.6937 12.1838L6.4237 2.6838C6.5637 2.3238 6.7937 1.7737 6.7937 1.3837C6.7937 0.5837 6.1837 0.0038 5.3737 0.0038C4.8837 0.0038 4.4137 0.3238 4.2137 0.8637L0.5437 10.1838C0.3037 10.8138 0.0037 11.5838 0.0037 12.1838C0.0037 12.7838 0.3037 13.5538 0.5437 14.1738L4.2137 23.5038C4.4137 24.0338 4.8837 24.3738 5.3737 24.3738Z"
        fillRule="evenodd"
        clipRule="evenodd"
    />
</svg>
        