
<svg
    viewBox="0 0 29.644075418687017 29.6611328125"
    xmlns="http://www.w3.org/2000/svg"
>
    <path
        fill="inherit"
        d="M15.7554 0.418C15.1954 -0.142 14.4354 -0.142 13.8654 0.418L9.2954 4.978C8.7554 5.518 8.7554 6.118 9.2954 6.658C9.8454 7.218 10.4154 7.198 10.9954 6.638L14.8054 2.808L18.6254 6.638C19.1854 7.188 19.7854 7.198 20.3154 6.658C20.8554 6.118 20.8554 5.518 20.3054 4.978ZM22.9954 20.308C23.5354 20.878 24.1454 20.848 24.6954 20.298L29.2354 15.758C29.7754 15.218 29.7754 14.418 29.2454 13.888L24.6654 9.278C24.0954 8.708 23.4754 8.718 22.9754 9.268C22.4054 9.798 22.4054 10.418 22.9754 10.958L26.8254 14.818L23.0154 18.628C22.4754 19.178 22.4654 19.778 22.9954 20.308ZM6.6754 20.368C7.2354 19.838 7.2454 19.218 6.6754 18.658L2.8154 14.818L6.6454 10.978C7.1954 10.438 7.1754 9.838 6.6554 9.308C6.1154 8.758 5.4954 8.778 4.9554 9.318L0.4154 13.878C-0.1346 14.418 -0.1346 15.218 0.3954 15.748L4.9754 20.358C5.5554 20.928 6.1654 20.918 6.6754 20.368ZM13.8654 29.238C14.4254 29.798 15.1754 29.798 15.7554 29.238L20.3154 24.688C20.8654 24.138 20.8654 23.538 20.3154 23.008C19.7754 22.448 19.1954 22.448 18.6254 23.018L14.8054 26.838L10.9554 22.978C10.3754 22.408 9.7954 22.408 9.2454 22.968C8.7254 23.498 8.7254 24.098 9.2754 24.648Z"
        fillRule="evenodd"
        clipRule="evenodd"
    />
</svg>
        