
<svg
    viewBox={0 0 38.322265625 25.877598312951292}
    xmlns="http://www.w3.org/2000/svg"
>
    <path
        fill="inherit"
        d="M15.4237 25.8345C16.1437 26.0245 16.8037 25.6245 17.0237 24.9045L23.8337 1.5645C24.0237 0.9045 23.7037 0.2545 22.9837 0.0545C22.2737 -0.1355 21.6537 0.1445 21.4137 0.9845L14.6437 24.2045C14.4237 24.9445 14.6537 25.6245 15.4237 25.8345ZM38.3237 12.9245C38.3237 12.5445 38.1737 12.1745 37.8537 11.8845L28.7237 3.6545C28.1337 3.1345 27.3837 3.1345 26.9037 3.6645C26.4237 4.2045 26.4937 4.9845 27.0437 5.4745L35.2737 12.9245L27.0437 20.3745C26.4937 20.8645 26.4237 21.6345 26.9037 22.1745C27.3837 22.7145 28.1337 22.7145 28.7237 22.1945L37.8537 13.9445C38.1737 13.6745 38.3237 13.3045 38.3237 12.9245ZM0.0037 12.9245C0.0037 13.3045 0.1637 13.6745 0.4737 13.9445L9.6137 22.1945C10.1837 22.7145 10.9537 22.7145 11.4337 22.1745C11.9037 21.6345 11.8237 20.8645 11.2837 20.3745L3.0637 12.9245L11.2837 5.4745C11.8237 4.9845 11.9037 4.2045 11.4337 3.6645C10.9537 3.1345 10.1837 3.1345 9.6137 3.6545L0.4737 11.8845C0.1637 12.1745 0.0037 12.5445 0.0037 12.9245Z"
        fillRule="evenodd"
        clipRule="evenodd"
    />
</svg>
        