
<svg
    viewBox="0 0 25.169921875 25.169921875"
    xmlns="http://www.w3.org/2000/svg"
>
    <path
        fill="inherit"
        d="M4.2937 25.1692H20.8737C23.7437 25.1692 25.1737 23.7592 25.1737 20.9492V4.2392C25.1737 1.4192 23.7437 -0.0008 20.8737 -0.0008H4.2937C1.4337 -0.0008 0.0037 1.4192 0.0037 4.2392V20.9492C0.0037 23.7592 1.4337 25.1692 4.2937 25.1692ZM9.3637 19.5692C8.9237 19.1292 8.9237 18.4392 9.3537 18.0492L15.1437 12.5892L9.3537 7.1492C8.9137 6.7392 8.9237 6.0392 9.3837 5.6292C9.7737 5.2392 10.4337 5.2792 10.8737 5.6892L16.7337 11.1992C17.5437 11.9492 17.5437 13.2492 16.7337 13.9892L10.8737 19.5092C10.4737 19.8892 9.7337 19.9192 9.3637 19.5692Z"
        fillRule="evenodd"
        clipRule="evenodd"
    />
</svg>
        