<svg viewBox="0 0 26.318359375 26.400390625" xmlns="http://www.w3.org/2000/svg"><path d="M1.2537 15.1981C0.5237 15.1981 0.0037 15.7781 0.0037 16.4781C0.0037 17.2081 0.5237 17.7281 1.2537 17.7281H16.3837C17.1337 17.7281 17.6937 17.1581 17.6937 16.4181V1.2681C17.6937 0.5381 17.1337 -0.0019 16.4437 -0.0019C15.7137 -0.0019 15.1737 0.5381 15.1737 1.2681V15.1981ZM9.8837 23.8681C9.1437 23.8681 8.6237 24.4581 8.6237 25.1381C8.6237 25.8781 9.1437 26.3981 9.8837 26.3981H24.9937C25.7437 26.3981 26.3137 25.8381 26.3137 25.0881V9.9381C26.3137 9.1981 25.7537 8.6781 25.0737 8.6781C24.3237 8.6781 23.8037 9.1981 23.8037 9.9381V23.8681Z" /></svg>