<svg viewBox="0 0 22.50390625 24.650390625" xmlns="http://www.w3.org/2000/svg"><path d="M19.9837 1.2621C19.9837 1.9521 20.5537 2.5121 21.2437 2.5121C21.9437 2.5121 22.5037 1.9521 22.5037 1.2621C22.5037 0.5421 21.9437 0.0021 21.2437 0.0021C20.5537 0.0021 19.9837 0.5421 19.9837 1.2621ZM0.0037 1.2621C0.0037 1.9521 0.5637 2.5121 1.2537 2.5121C1.9537 2.5121 2.5137 1.9521 2.5137 1.2621C2.5137 0.5421 1.9537 0.0021 1.2537 0.0021C0.5637 0.0021 0.0037 0.5421 0.0037 1.2621ZM17.4837 3.7321C17.4837 4.4321 18.0437 4.9921 18.7437 4.9921C19.4437 4.9921 20.0037 4.4321 20.0037 3.7321C20.0037 3.0321 19.4437 2.4721 18.7437 2.4721C18.0437 2.4721 17.4837 3.0321 17.4837 3.7321ZM2.5037 3.7321C2.5037 4.4321 3.0637 4.9921 3.7637 4.9921C4.4537 4.9921 5.0137 4.4321 5.0137 3.7321C5.0137 3.0321 4.4537 2.4721 3.7637 2.4721C3.0637 2.4721 2.5037 3.0321 2.5037 3.7321ZM14.9837 6.2021C14.9837 6.9021 15.5437 7.4621 16.2437 7.4621C16.9437 7.4621 17.5037 6.9021 17.5037 6.2021C17.5037 5.5121 16.9437 4.9521 16.2437 4.9521C15.5437 4.9521 14.9837 5.5121 14.9837 6.2021ZM4.9937 6.2021C4.9937 6.9021 5.5537 7.4621 6.2437 7.4621C6.9637 7.4621 7.5037 6.9021 7.5037 6.2021C7.5037 5.5121 6.9637 4.9521 6.2437 4.9521C5.5537 4.9521 4.9937 5.5121 4.9937 6.2021ZM12.4937 8.6921C12.4937 9.3921 13.0437 9.9521 13.7537 9.9521C14.4537 9.9521 15.0137 9.3921 15.0137 8.6921C15.0137 8.0021 14.4537 7.4421 13.7537 7.4421C13.0437 7.4421 12.4937 8.0021 12.4937 8.6921ZM7.4937 8.6921C7.4937 9.3921 8.0537 9.9521 8.7537 9.9521C9.4437 9.9521 10.0037 9.3921 10.0037 8.6921C10.0037 8.0021 9.4437 7.4421 8.7537 7.4421C8.0537 7.4421 7.4937 8.0021 7.4937 8.6921ZM9.9937 11.1721C9.9937 11.8721 10.5537 12.4321 11.2537 12.4321C11.9537 12.4321 12.5137 11.8721 12.5137 11.1721C12.5137 10.4721 11.9537 9.9121 11.2537 9.9121C10.5537 9.9121 9.9937 10.4721 9.9937 11.1721ZM19.9837 13.4621C19.9837 14.1621 20.5537 14.7221 21.2437 14.7221C21.9437 14.7221 22.5037 14.1621 22.5037 13.4621C22.5037 12.7721 21.9437 12.2121 21.2437 12.2121C20.5537 12.2121 19.9837 12.7721 19.9837 13.4621ZM0.0037 13.4621C0.0037 14.1621 0.5637 14.7221 1.2537 14.7221C1.9537 14.7221 2.5137 14.1621 2.5137 13.4621C2.5137 12.7721 1.9537 12.2121 1.2537 12.2121C0.5637 12.2121 0.0037 12.7721 0.0037 13.4621ZM17.4837 15.9521C17.4837 16.6521 18.0437 17.2121 18.7437 17.2121C19.4437 17.2121 20.0037 16.6521 20.0037 15.9521C20.0037 15.2621 19.4437 14.7021 18.7437 14.7021C18.0437 14.7021 17.4837 15.2621 17.4837 15.9521ZM2.5037 15.9521C2.5037 16.6521 3.0637 17.2121 3.7637 17.2121C4.4537 17.2121 5.0137 16.6521 5.0137 15.9521C5.0137 15.2621 4.4537 14.7021 3.7637 14.7021C3.0637 14.7021 2.5037 15.2621 2.5037 15.9521ZM14.9837 18.4321C14.9837 19.1221 15.5437 19.6921 16.2437 19.6921C16.9437 19.6921 17.5037 19.1221 17.5037 18.4321C17.5037 17.7321 16.9437 17.1721 16.2437 17.1721C15.5437 17.1721 14.9837 17.7321 14.9837 18.4321ZM4.9937 18.4321C4.9937 19.1221 5.5537 19.6921 6.2437 19.6921C6.9637 19.6921 7.5037 19.1221 7.5037 18.4321C7.5037 17.7321 6.9637 17.1721 6.2437 17.1721C5.5537 17.1721 4.9937 17.7321 4.9937 18.4321ZM12.4937 20.9221C12.4937 21.6121 13.0437 22.1721 13.7537 22.1721C14.4537 22.1721 15.0137 21.6121 15.0137 20.9221C15.0137 20.2221 14.4537 19.6621 13.7537 19.6621C13.0437 19.6621 12.4937 20.2221 12.4937 20.9221ZM7.4937 20.9221C7.4937 21.6121 8.0537 22.1721 8.7537 22.1721C9.4437 22.1721 10.0037 21.6121 10.0037 20.9221C10.0037 20.2221 9.4437 19.6621 8.7537 19.6621C8.0537 19.6621 7.4937 20.2221 7.4937 20.9221ZM9.9937 23.3921C9.9937 24.0921 10.5537 24.6521 11.2537 24.6521C11.9537 24.6521 12.5137 24.0921 12.5137 23.3921C12.5137 22.6921 11.9537 22.1321 11.2537 22.1321C10.5537 22.1321 9.9937 22.6921 9.9937 23.3921Z" /></svg>