
<svg
    viewBox={0 0 32.7578125 23.748046875}
    xmlns="http://www.w3.org/2000/svg"
>
    <path
        fill="inherit"
        d="M11.2337 23.382C11.4737 23.612 11.7737 23.752 12.1237 23.752C12.8337 23.752 13.3737 23.212 13.3737 22.502C13.3737 22.162 13.2337 21.852 13.0137 21.612L3.0637 11.882L13.0137 2.142C13.2337 1.912 13.3737 1.582 13.3737 1.262C13.3737 0.542 12.8337 0.002 12.1237 0.002C11.7737 0.002 11.4737 0.132 11.2337 0.372L0.4137 10.962C0.1537 11.182 0.0037 11.522 0.0037 11.882C0.0037 12.222 0.1337 12.542 0.3937 12.792ZM21.5237 23.382L32.3637 12.792C32.6037 12.542 32.7537 12.222 32.7537 11.882C32.7537 11.522 32.6037 11.182 32.3437 10.962L21.5237 0.372C21.2837 0.132 20.9837 0.002 20.6337 0.002C19.9237 0.002 19.3837 0.542 19.3837 1.262C19.3837 1.582 19.5237 1.912 19.7437 2.142L29.6937 11.882L19.7437 21.612C19.5237 21.852 19.3837 22.162 19.3837 22.502C19.3837 23.212 19.9237 23.752 20.6337 23.752C20.9837 23.752 21.2837 23.612 21.5237 23.382Z"
        fillRule="evenodd"
        clipRule="evenodd"
    />
</svg>
        