
<svg
    viewBox={0 0 25.251953125 25.265625}
    xmlns="http://www.w3.org/2000/svg"
>
    <path
        fill="inherit"
        d="M15.3437 0.0039C14.6437 0.0039 14.0837 0.5639 14.0837 1.2539C14.0837 1.9539 14.6437 2.5139 15.3437 2.5139C16.0337 2.5139 16.5937 1.9539 16.5937 1.2539C16.5937 0.5639 16.0337 0.0039 15.3437 0.0039ZM15.3437 3.5139C14.6437 3.5139 14.0837 4.0739 14.0837 4.7739C14.0837 5.4639 14.6437 6.0339 15.3437 6.0339C16.0337 6.0339 16.5937 5.4639 16.5937 4.7739C16.5937 4.0739 16.0337 3.5139 15.3437 3.5139ZM15.3437 7.0439C14.6437 7.0439 14.0837 7.6039 14.0837 8.2939C14.0837 8.9939 14.6437 9.5539 15.3437 9.5539C16.0337 9.5539 16.5937 8.9939 16.5937 8.2939C16.5937 7.6039 16.0337 7.0439 15.3437 7.0439ZM23.9937 8.6639C23.2937 8.6639 22.7337 9.2239 22.7337 9.9239C22.7337 10.6239 23.2937 11.1839 23.9937 11.1839C24.6937 11.1839 25.2537 10.6239 25.2537 9.9239C25.2537 9.2239 24.6937 8.6639 23.9937 8.6639ZM15.3437 10.5539C14.6437 10.5539 14.0837 11.1139 14.0837 11.8139C14.0837 12.5139 14.6437 13.0739 15.3437 13.0739C16.0337 13.0739 16.5937 12.5139 16.5937 11.8139C16.5937 11.1139 16.0337 10.5539 15.3437 10.5539ZM23.9937 12.1839C23.2937 12.1839 22.7337 12.7439 22.7337 13.4439C22.7337 14.1539 23.2937 14.6939 23.9937 14.6939C24.6937 14.6939 25.2537 14.1539 25.2537 13.4439C25.2537 12.7439 24.6937 12.1839 23.9937 12.1839ZM11.8237 14.0839C11.1337 14.0839 10.5637 14.6439 10.5637 15.3439C10.5637 16.0339 11.1337 16.5939 11.8237 16.5939C12.5237 16.5939 13.0837 16.0339 13.0837 15.3439C13.0837 14.6439 12.5237 14.0839 11.8237 14.0839ZM8.3037 14.0839C7.6037 14.0839 7.0437 14.6439 7.0437 15.3439C7.0437 16.0339 7.6037 16.5939 8.3037 16.5939C8.9937 16.5939 9.5537 16.0339 9.5537 15.3439C9.5537 14.6439 8.9937 14.0839 8.3037 14.0839ZM4.7837 14.0839C4.0737 14.0839 3.5237 14.6439 3.5237 15.3439C3.5237 16.0339 4.0737 16.5939 4.7837 16.5939C5.4837 16.5939 6.0437 16.0339 6.0437 15.3439C6.0437 14.6439 5.4837 14.0839 4.7837 14.0839ZM1.2537 14.0839C0.5637 14.0839 0.0037 14.6439 0.0037 15.3439C0.0037 16.0339 0.5637 16.5939 1.2537 16.5939C1.9537 16.5939 2.5137 16.0339 2.5137 15.3439C2.5137 14.6439 1.9537 14.0839 1.2537 14.0839ZM15.3437 14.0839C14.6437 14.0839 14.0837 14.6439 14.0837 15.3439C14.0837 16.0339 14.6437 16.5939 15.3437 16.5939C16.0337 16.5939 16.5937 16.0339 16.5937 15.3439C16.5937 14.6439 16.0337 14.0839 15.3437 14.0839ZM23.9937 15.7139C23.2937 15.7139 22.7337 16.2739 22.7337 16.9639C22.7337 17.6639 23.2937 18.2239 23.9937 18.2239C24.6937 18.2239 25.2537 17.6639 25.2537 16.9639C25.2537 16.2739 24.6937 15.7139 23.9937 15.7139ZM23.9937 19.2239C23.2937 19.2239 22.7337 19.7839 22.7337 20.4839C22.7337 21.1939 23.2937 21.7539 23.9937 21.7539C24.6937 21.7539 25.2537 21.1939 25.2537 20.4839C25.2537 19.7839 24.6937 19.2239 23.9937 19.2239ZM20.4637 22.7539C19.7737 22.7539 19.2137 23.3139 19.2137 24.0039C19.2137 24.7039 19.7737 25.2639 20.4637 25.2639C21.1637 25.2639 21.7237 24.7039 21.7237 24.0039C21.7237 23.3139 21.1637 22.7539 20.4637 22.7539ZM16.9537 22.7539C16.2537 22.7539 15.6937 23.3139 15.6937 24.0039C15.6937 24.7039 16.2537 25.2639 16.9537 25.2639C17.6537 25.2639 18.2137 24.7039 18.2137 24.0039C18.2137 23.3139 17.6537 22.7539 16.9537 22.7539ZM13.4237 22.7539C12.7237 22.7539 12.1637 23.3139 12.1637 24.0039C12.1637 24.7039 12.7237 25.2639 13.4237 25.2639C14.1237 25.2639 14.6837 24.7039 14.6837 24.0039C14.6837 23.3139 14.1237 22.7539 13.4237 22.7539ZM9.9137 22.7539C9.2137 22.7539 8.6537 23.3139 8.6537 24.0039C8.6537 24.7039 9.2137 25.2639 9.9137 25.2639C10.6137 25.2639 11.1737 24.7039 11.1737 24.0039C11.1737 23.3139 10.6137 22.7539 9.9137 22.7539ZM23.9937 22.7539C23.2937 22.7539 22.7337 23.3139 22.7337 24.0039C22.7337 24.7039 23.2937 25.2639 23.9937 25.2639C24.6937 25.2639 25.2537 24.7039 25.2537 24.0039C25.2537 23.3139 24.6937 22.7539 23.9937 22.7539Z"
        fillRule="evenodd"
        clipRule="evenodd"
    />
</svg>
        