
<svg
    viewBox="0 0 29.203125 29.203125"
    xmlns="http://www.w3.org/2000/svg"
>
    <path
        fill="inherit"
        d="M9.2937 4.639C9.7037 4.639 10.2437 4.399 10.5837 4.279L14.6037 2.689L18.6037 4.279C18.9637 4.399 19.4937 4.639 19.9037 4.639C20.7137 4.639 21.3037 4.029 21.3037 3.229C21.3037 2.719 20.9637 2.259 20.4237 2.049L16.5937 0.549C15.9737 0.299 15.2037 -0.001 14.6037 -0.001C13.9837 -0.001 13.2637 0.289 12.6037 0.549L8.7637 2.049C8.2337 2.259 7.9037 2.719 7.9037 3.229C7.9037 4.029 8.4937 4.639 9.2937 4.639ZM25.9737 21.289C26.4737 21.289 26.9437 20.959 27.1537 20.429L28.6537 16.579C28.9037 15.969 29.2037 15.189 29.2037 14.589C29.2037 13.989 28.9137 13.259 28.6537 12.589L27.1537 8.759C26.9337 8.229 26.4737 7.899 25.9737 7.899C25.1737 7.899 24.5637 8.489 24.5637 9.279C24.5637 9.709 24.7837 10.239 24.9237 10.579L26.5137 14.589L24.9237 18.609C24.7837 18.959 24.5637 19.499 24.5637 19.909C24.5637 20.699 25.1737 21.289 25.9737 21.289ZM3.2237 21.289C4.0337 21.289 4.6337 20.699 4.6337 19.909C4.6337 19.499 4.4137 18.959 4.2837 18.609L2.6937 14.589L4.2837 10.579C4.4137 10.239 4.6337 9.709 4.6337 9.279C4.6337 8.489 4.0337 7.899 3.2237 7.899C2.7337 7.899 2.2737 8.229 2.0537 8.759L0.5437 12.589C0.2837 13.259 0.0037 13.989 0.0037 14.589C0.0037 15.189 0.3037 15.969 0.5437 16.579L2.0537 20.429C2.2537 20.959 2.7337 21.289 3.2237 21.289ZM14.6037 29.199C15.2037 29.199 15.9737 28.899 16.5937 28.659L20.4237 27.139C20.9637 26.929 21.3037 26.469 21.3037 25.979C21.3037 25.169 20.7137 24.559 19.9037 24.559C19.4937 24.559 18.9637 24.789 18.6037 24.919L14.6037 26.499L10.5837 24.919C10.2437 24.789 9.7037 24.559 9.2937 24.559C8.4937 24.559 7.9037 25.169 7.9037 25.979C7.9037 26.469 8.2337 26.929 8.7637 27.139L12.6037 28.659C13.2637 28.919 13.9837 29.199 14.6037 29.199Z"
        fillRule="evenodd"
        clipRule="evenodd"
    />
</svg>
        