
<svg
    viewBox="0 0 18.197265625 26.33203125"
    xmlns="http://www.w3.org/2000/svg"
>
    <path
        fill="inherit"
        d="M9.1037 -0.0029C8.7537 -0.0029 8.4337 0.1371 8.1637 0.4071L0.3537 7.9071C0.1537 8.1071 0.0037 8.3971 0.0037 8.7871C0.0037 9.4971 0.5337 10.0471 1.2437 10.0471C1.5437 10.0471 1.8737 9.9671 2.1637 9.6771L9.1037 2.8871L16.0337 9.6771C16.3337 9.9571 16.6537 10.0471 16.9537 10.0471C17.6637 10.0471 18.1937 9.4971 18.1937 8.7871C18.1937 8.3971 18.0637 8.1071 17.8437 7.9071L10.0337 0.4071C9.7637 0.1371 9.4437 -0.0029 9.1037 -0.0029ZM9.1037 26.3271C9.4437 26.3271 9.7637 26.1771 10.0337 25.9171L17.8437 18.4271C18.0637 18.2071 18.1937 17.9371 18.1937 17.5271C18.1937 16.8171 17.6637 16.2871 16.9537 16.2871C16.6537 16.2871 16.3337 16.3771 16.0337 16.6571L9.1037 23.4471L2.1637 16.6571C1.8737 16.3671 1.5437 16.2871 1.2437 16.2871C0.5337 16.2871 0.0037 16.8171 0.0037 17.5271C0.0037 17.9371 0.1537 18.2071 0.3537 18.4271L8.1637 25.9171C8.4337 26.1771 8.7537 26.3271 9.1037 26.3271Z"
        fillRule="evenodd"
        clipRule="evenodd"
    />
</svg>
        