<svg viewBox="0 0 27.890625 27.890625" xmlns="http://www.w3.org/2000/svg"><path d="M13.9427 27.8864C21.6427 27.8864 27.8927 21.6464 27.8927 13.9464C27.8927 6.2464 21.6427 -0.0036 13.9427 -0.0036C6.2527 -0.0036 0.0027 6.2464 0.0027 13.9464C0.0027 21.6464 6.2527 27.8864 13.9427 27.8864ZM13.9427 25.5664C7.5227 25.5664 2.3227 20.3664 2.3227 13.9464C2.3227 7.5164 7.5227 2.3264 13.9427 2.3264C20.3727 2.3264 25.5627 7.5164 25.5627 13.9464C25.5627 20.3664 20.3727 25.5664 13.9427 25.5664ZM15.3027 18.3464L20.6627 12.6564C21.0727 12.2264 21.0827 11.5964 20.7027 11.2064C20.2727 10.7864 19.6227 10.7764 19.2327 11.1864L13.9427 16.7864L8.6527 11.1864C8.2627 10.7764 7.5927 10.7764 7.1827 11.2064C6.8127 11.6064 6.8227 12.2264 7.2227 12.6564L12.5927 18.3464C13.4427 19.2664 14.4327 19.2664 15.3027 18.3464Z" /></svg>