
<svg
    viewBox="0 0 25.59375 23.748046875"
    xmlns="http://www.w3.org/2000/svg"
>
    <path
        fill="inherit"
        d="M11.2337 23.382C11.4737 23.612 11.7737 23.752 12.1237 23.752C12.8337 23.752 13.3737 23.212 13.3737 22.502C13.3737 22.162 13.2337 21.852 13.0137 21.612L3.0637 11.882L13.0137 2.142C13.2337 1.912 13.3737 1.582 13.3737 1.262C13.3737 0.542 12.8337 0.002 12.1237 0.002C11.7737 0.002 11.4737 0.132 11.2337 0.372L0.4137 10.962C0.1537 11.182 0.0037 11.522 0.0037 11.882C0.0037 12.222 0.1337 12.542 0.3937 12.792ZM23.4437 23.382C23.6837 23.612 23.9937 23.752 24.3337 23.752C25.0437 23.752 25.5937 23.212 25.5937 22.502C25.5937 22.162 25.4437 21.852 25.2237 21.612L15.2837 11.882L25.2237 2.142C25.4437 1.912 25.5937 1.582 25.5937 1.262C25.5937 0.542 25.0437 0.002 24.3337 0.002C23.9937 0.002 23.6937 0.132 23.4437 0.372L12.6237 10.962C12.3637 11.182 12.2137 11.522 12.2137 11.882C12.2137 12.222 12.3637 12.542 12.6237 12.792Z"
        fillRule="evenodd"
        clipRule="evenodd"
    />
</svg>
        