
<svg
    viewBox="0 0 23.748046875 25.59375"
    xmlns="http://www.w3.org/2000/svg"
>
    <path
        fill="inherit"
        d="M0.3737 2.148L10.9537 12.978C11.2137 13.238 11.5237 13.368 11.8837 13.368C12.2237 13.368 12.5637 13.218 12.7937 12.958L23.3837 2.128C23.6137 1.898 23.7437 1.598 23.7437 1.248C23.7437 0.538 23.2137 -0.002 22.5037 -0.002C22.1637 -0.002 21.8437 0.138 21.6137 0.358L11.8837 10.308L2.1337 0.358C1.9137 0.138 1.6037 -0.002 1.2437 -0.002C0.5337 -0.002 0.0037 0.538 0.0037 1.248C0.0037 1.598 0.1337 1.898 0.3737 2.148ZM0.3737 14.358L10.9537 25.198C11.2137 25.448 11.5237 25.598 11.8837 25.598C12.2237 25.598 12.5537 25.428 12.7937 25.188L23.3837 14.358C23.6137 14.128 23.7437 13.818 23.7437 13.468C23.7437 12.758 23.2137 12.218 22.5037 12.218C22.1637 12.218 21.8437 12.358 21.6137 12.578L11.8837 22.528L2.1337 12.578C1.9137 12.358 1.6037 12.218 1.2437 12.218C0.5337 12.218 0.0037 12.758 0.0037 13.468C0.0037 13.818 0.1337 14.128 0.3737 14.358Z"
        fillRule="evenodd"
        clipRule="evenodd"
    />
</svg>
        