
<svg
    viewBox="0 0 25.169921875 25.169921875"
    xmlns="http://www.w3.org/2000/svg"
>
    <path
        fill="inherit"
        d="M4.2937 25.1692H20.8737C23.7437 25.1692 25.1737 23.7592 25.1737 20.9492V4.2392C25.1737 1.4192 23.7437 -0.0008 20.8737 -0.0008H4.2937C1.4337 -0.0008 0.0037 1.4192 0.0037 4.2392V20.9492C0.0037 23.7592 1.4337 25.1692 4.2937 25.1692ZM4.3237 22.9692C2.9537 22.9692 2.2037 22.2392 2.2037 20.8192V4.3592C2.2037 2.9392 2.9537 2.1992 4.3237 2.1992H20.8537C22.2037 2.1992 22.9737 2.9392 22.9737 4.3592V20.8192C22.9737 22.2392 22.2037 22.9692 20.8537 22.9692ZM9.4837 19.3492C9.8437 19.6892 10.5537 19.6592 10.9337 19.3092L16.6237 13.9292C17.4037 13.2192 17.4037 11.9592 16.6237 11.2492L10.9337 5.8792C10.5137 5.4792 9.8837 5.4692 9.5037 5.8392C9.0737 6.2392 9.0637 6.9192 9.4737 7.2992L15.0937 12.5792L9.4737 17.8792C9.0737 18.2692 9.0637 18.9192 9.4837 19.3492Z"
        fillRule="evenodd"
        clipRule="evenodd"
    />
</svg>
        