
<svg
    viewBox="0 0 27.890625 27.890625"
    xmlns="http://www.w3.org/2000/svg"
>
    <path
        fill="inherit"
        d="M13.9427 27.8864C21.6427 27.8864 27.8927 21.6464 27.8927 13.9464C27.8927 6.2464 21.6427 -0.0036 13.9427 -0.0036C6.2527 -0.0036 0.0027 6.2464 0.0027 13.9464C0.0027 21.6464 6.2527 27.8864 13.9427 27.8864ZM13.9427 25.5664C7.5227 25.5664 2.3227 20.3664 2.3227 13.9464C2.3227 7.5164 7.5227 2.3264 13.9427 2.3264C20.3727 2.3264 25.5627 7.5164 25.5627 13.9464C25.5627 20.3664 20.3727 25.5664 13.9427 25.5664ZM7.1927 17.1164C7.6027 17.5564 8.2727 17.5564 8.6527 17.1464L13.9427 11.5364L19.2327 17.1464C19.6327 17.5564 20.3027 17.5564 20.7027 17.1164C21.0827 16.7464 21.0727 16.1064 20.6627 15.6864L15.3027 9.9764C14.4327 9.0764 13.4527 9.0764 12.6027 9.9764L7.2327 15.6864C6.8227 16.1064 6.8127 16.7464 7.1927 17.1164Z"
        fillRule="evenodd"
        clipRule="evenodd"
    />
</svg>
        