
<svg
    viewBox="0 0 27.890625 27.890625"
    xmlns="http://www.w3.org/2000/svg"
>
    <path
        fill="inherit"
        d="M13.9427 27.8864C21.6427 27.8864 27.8927 21.6264 27.8927 13.9464C27.8927 6.2464 21.6427 -0.0036 13.9427 -0.0036C6.2627 -0.0036 0.0027 6.2464 0.0027 13.9464C0.0027 21.6264 6.2627 27.8864 13.9427 27.8864ZM6.9727 17.2364C6.5927 16.8564 6.6027 16.1864 7.0227 15.7464L12.5527 9.8664C13.4427 8.9364 14.4627 8.9364 15.3527 9.8664L20.8727 15.7464C21.3127 16.1864 21.3327 16.8564 20.9327 17.2364C20.4927 17.6864 19.8127 17.6864 19.4127 17.2664L13.9627 11.4864L8.4927 17.2664C8.0927 17.6864 7.4127 17.6864 6.9727 17.2364Z"
        fillRule="evenodd"
        clipRule="evenodd"
    />
</svg>
        