<svg viewBox="0 0 27.890625 27.890625" xmlns="http://www.w3.org/2000/svg"><path d="M13.9427 27.8864C21.6427 27.8864 27.8927 21.6264 27.8927 13.9464C27.8927 6.2464 21.6427 -0.0036 13.9427 -0.0036C6.2627 -0.0036 0.0027 6.2464 0.0027 13.9464C0.0027 21.6264 6.2627 27.8864 13.9427 27.8864ZM16.6527 20.7164C16.2927 21.0564 15.5827 21.0264 15.2027 20.6764L9.5127 15.2964C8.7327 14.5864 8.7327 13.3264 9.5127 12.6164L15.2027 7.2464C15.6227 6.8464 16.2527 6.8364 16.6427 7.2064C17.0627 7.6064 17.0727 8.2864 16.6627 8.6664L11.0427 13.9464L16.6627 19.2464C17.0627 19.6364 17.0727 20.2864 16.6527 20.7164Z" /></svg>