<svg viewBox="0 0 24.63671875 23.748046875" xmlns="http://www.w3.org/2000/svg"><path d="M12.1237 23.7503C12.8337 23.7503 13.3737 23.2103 13.3737 22.5003C13.3737 22.1603 13.2337 21.8503 13.0137 21.6103L3.0637 11.8803L13.0137 2.1503C13.2337 1.9103 13.3737 1.5903 13.3737 1.2603C13.3737 0.5503 12.8337 0.0003 12.1237 0.0003C11.7737 0.0003 11.4737 0.1403 11.2337 0.3703L0.4137 10.9603C0.1537 11.1803 0.0037 11.5303 0.0037 11.8803C0.0037 12.2203 0.1337 12.5403 0.3937 12.8003L11.2337 23.3803C11.4737 23.6103 11.7737 23.7503 12.1237 23.7503ZM23.3837 3.2303C24.0737 3.2303 24.6337 2.6703 24.6337 1.9703C24.6337 1.2703 24.0737 0.7103 23.3837 0.7103C22.6837 0.7103 22.1237 1.2703 22.1237 1.9703C22.1237 2.6703 22.6837 3.2303 23.3837 3.2303ZM20.9037 5.7303C21.6037 5.7303 22.1637 5.1703 22.1637 4.4703C22.1637 3.7703 21.6037 3.2103 20.9037 3.2103C20.2037 3.2103 19.6437 3.7703 19.6437 4.4703C19.6437 5.1703 20.2037 5.7303 20.9037 5.7303ZM18.4337 8.2203C19.1237 8.2203 19.6837 7.6703 19.6837 6.9603C19.6837 6.2603 19.1237 5.7003 18.4337 5.7003C17.7237 5.7003 17.1737 6.2603 17.1737 6.9603C17.1737 7.6703 17.7237 8.2203 18.4337 8.2203ZM15.9437 10.7203C16.6437 10.7203 17.2037 10.1603 17.2037 9.4603C17.2037 8.7603 16.6437 8.2003 15.9437 8.2003C15.2437 8.2003 14.6837 8.7603 14.6837 9.4603C14.6837 10.1603 15.2437 10.7203 15.9437 10.7203ZM13.4637 13.2203C14.1637 13.2203 14.7237 12.6603 14.7237 11.9603C14.7237 11.2703 14.1637 10.7003 13.4637 10.7003C12.7737 10.7003 12.2137 11.2703 12.2137 11.9603C12.2137 12.6603 12.7737 13.2203 13.4637 13.2203ZM15.9437 15.7203C16.6437 15.7203 17.2037 15.1603 17.2037 14.4603C17.2037 13.7503 16.6437 13.2103 15.9437 13.2103C15.2437 13.2103 14.6837 13.7503 14.6837 14.4603C14.6837 15.1603 15.2437 15.7203 15.9437 15.7203ZM18.4337 18.2103C19.1237 18.2103 19.6837 17.6503 19.6837 16.9503C19.6837 16.2603 19.1237 15.6903 18.4337 15.6903C17.7237 15.6903 17.1737 16.2603 17.1737 16.9503C17.1737 17.6503 17.7237 18.2103 18.4337 18.2103ZM20.9037 20.7103C21.6037 20.7103 22.1637 20.1503 22.1637 19.4503C22.1637 18.7603 21.6037 18.2003 20.9037 18.2003C20.2037 18.2003 19.6437 18.7603 19.6437 19.4503C19.6437 20.1503 20.2037 20.7103 20.9037 20.7103ZM23.3837 23.2103C24.0737 23.2103 24.6337 22.6503 24.6337 21.9603C24.6337 21.2603 24.0737 20.7003 23.3837 20.7003C22.6837 20.7003 22.1237 21.2603 22.1237 21.9603C22.1237 22.6503 22.6837 23.2103 23.3837 23.2103Z" /></svg>