<svg viewBox="0 0 25.169921875 25.169921875" xmlns="http://www.w3.org/2000/svg"><path d="M4.2937 25.1692H20.8737C23.7437 25.1692 25.1737 23.7592 25.1737 20.9492V4.2392C25.1737 1.4192 23.7437 -0.0008 20.8737 -0.0008H4.2937C1.4337 -0.0008 0.0037 1.4192 0.0037 4.2392V20.9492C0.0037 23.7592 1.4337 25.1692 4.2937 25.1692ZM4.3237 22.9692C2.9537 22.9692 2.2037 22.2392 2.2037 20.8192V4.3592C2.2037 2.9392 2.9537 2.1992 4.3237 2.1992H20.8537C22.2037 2.1992 22.9737 2.9392 22.9737 4.3592V20.8192C22.9737 22.2392 22.2037 22.9692 20.8537 22.9692ZM12.8337 4.5292C12.5937 4.5292 12.3437 4.6492 12.1437 4.8392L7.1637 9.6292C7.0037 9.7792 6.8737 10.0092 6.8737 10.3092C6.8737 10.8392 7.3037 11.2492 7.8337 11.2492C8.0437 11.2492 8.3137 11.1992 8.5137 10.9892L12.8337 6.7492L17.1737 10.9892C17.3737 11.1792 17.6337 11.2492 17.8537 11.2492C18.3737 11.2492 18.8137 10.8392 18.8137 10.3092C18.8137 10.0092 18.6737 9.7792 18.5237 9.6292L13.5537 4.8392C13.3437 4.6492 13.0837 4.5292 12.8337 4.5292ZM12.8337 20.6292C13.0837 20.6292 13.3537 20.5092 13.5537 20.3192L18.5237 15.5192C18.6737 15.3792 18.8137 15.1392 18.8137 14.8492C18.8137 14.3192 18.3737 13.8892 17.8537 13.8892C17.6337 13.8892 17.3737 13.9692 17.1737 14.1592L12.8337 18.3992L8.5137 14.1592C8.3137 13.9592 8.0437 13.8892 7.8337 13.8892C7.3037 13.8892 6.8737 14.3192 6.8737 14.8492C6.8737 15.1392 7.0037 15.3792 7.1637 15.5192L12.1437 20.3192C12.3337 20.5092 12.5937 20.6292 12.8337 20.6292Z" /></svg>