
<svg
    viewBox="0 0 15.791015625 23.76171875"
    xmlns="http://www.w3.org/2000/svg"
>
    <path
        fill="inherit"
        d="M2.4437 22.572V12.172C2.5037 12.402 2.6237 12.622 2.8137 12.792L13.6437 23.382C13.8937 23.642 14.1737 23.762 14.5337 23.762C15.2437 23.762 15.7937 23.212 15.7937 22.502C15.7937 22.162 15.6637 21.862 15.4237 21.612L5.4737 11.882L15.4237 2.142C15.6637 1.912 15.7937 1.602 15.7937 1.262C15.7937 0.532 15.2437 0.002 14.5437 0.002C14.1737 0.002 13.9037 0.132 13.6437 0.372L2.8037 10.962C2.6237 11.142 2.5037 11.352 2.4437 11.582V1.212C2.4437 0.502 1.9437 0.002 1.2137 0.002C0.5037 0.002 0.0037 0.502 0.0037 1.212V22.572C0.0037 23.272 0.5037 23.762 1.2137 23.762C1.9437 23.762 2.4437 23.272 2.4437 22.572Z"
        fillRule="evenodd"
        clipRule="evenodd"
    />
</svg>
        