<svg viewBox="0 0 24.63671875 23.748046875" xmlns="http://www.w3.org/2000/svg"><path d="M12.5237 23.7503C12.8637 23.7503 13.1637 23.6103 13.4137 23.3803L24.2437 12.8003C24.5037 12.5403 24.6337 12.2203 24.6337 11.8803C24.6337 11.5303 24.5037 11.1803 24.2437 10.9603L13.4137 0.3703C13.1637 0.1403 12.8637 0.0003 12.5237 0.0003C11.8137 0.0003 11.2637 0.5503 11.2637 1.2603C11.2637 1.5903 11.4137 1.9103 11.6337 2.1503L21.5737 11.8803L11.6337 21.6103C11.4137 21.8503 11.2637 22.1603 11.2637 22.5003C11.2637 23.2103 11.8137 23.7503 12.5237 23.7503ZM1.2537 3.2303C1.9537 3.2303 2.5137 2.6703 2.5137 1.9703C2.5137 1.2703 1.9537 0.7103 1.2537 0.7103C0.5637 0.7103 0.0037 1.2703 0.0037 1.9703C0.0037 2.6703 0.5637 3.2303 1.2537 3.2303ZM3.7337 5.7303C4.4437 5.7303 4.9937 5.1703 4.9937 4.4703C4.9937 3.7703 4.4437 3.2103 3.7337 3.2103C3.0337 3.2103 2.4737 3.7703 2.4737 4.4703C2.4737 5.1703 3.0337 5.7303 3.7337 5.7303ZM6.2237 8.2203C6.9137 8.2203 7.4737 7.6703 7.4737 6.9603C7.4737 6.2603 6.9137 5.7003 6.2237 5.7003C5.5237 5.7003 4.9637 6.2603 4.9637 6.9603C4.9637 7.6703 5.5237 8.2203 6.2237 8.2203ZM8.6937 10.7203C9.3937 10.7203 9.9537 10.1603 9.9537 9.4603C9.9537 8.7603 9.3937 8.2003 8.6937 8.2003C7.9937 8.2003 7.4337 8.7603 7.4337 9.4603C7.4337 10.1603 7.9937 10.7203 8.6937 10.7203ZM11.1837 13.2203C11.8837 13.2203 12.4437 12.6603 12.4437 11.9603C12.4437 11.2703 11.8837 10.7003 11.1837 10.7003C10.4837 10.7003 9.9237 11.2703 9.9237 11.9603C9.9237 12.6603 10.4837 13.2203 11.1837 13.2203ZM8.6937 15.7203C9.3937 15.7203 9.9537 15.1603 9.9537 14.4603C9.9537 13.7503 9.3937 13.2103 8.6937 13.2103C7.9937 13.2103 7.4337 13.7503 7.4337 14.4603C7.4337 15.1603 7.9937 15.7203 8.6937 15.7203ZM6.2237 18.2103C6.9137 18.2103 7.4737 17.6503 7.4737 16.9503C7.4737 16.2603 6.9137 15.6903 6.2237 15.6903C5.5237 15.6903 4.9637 16.2603 4.9637 16.9503C4.9637 17.6503 5.5237 18.2103 6.2237 18.2103ZM3.7337 20.7103C4.4437 20.7103 4.9937 20.1503 4.9937 19.4503C4.9937 18.7603 4.4437 18.2003 3.7337 18.2003C3.0337 18.2003 2.4737 18.7603 2.4737 19.4503C2.4737 20.1503 3.0337 20.7103 3.7337 20.7103ZM1.2537 23.2103C1.9537 23.2103 2.5137 22.6503 2.5137 21.9603C2.5137 21.2603 1.9537 20.7003 1.2537 20.7003C0.5637 20.7003 0.0037 21.2603 0.0037 21.9603C0.0037 22.6503 0.5637 23.2103 1.2537 23.2103Z" /></svg>