<svg viewBox="0 0 26.318359375 26.400390625" xmlns="http://www.w3.org/2000/svg"><path d="M9.8837 2.5281H23.8037V16.4781C23.8037 17.2081 24.3237 17.7281 25.0737 17.7281C25.7537 17.7281 26.3137 17.2081 26.3137 16.4781V1.3281C26.3137 0.5781 25.7437 -0.0019 24.9937 -0.0019H9.8837C9.1437 -0.0019 8.6237 0.5381 8.6237 1.2681C8.6237 1.9581 9.1437 2.5281 9.8837 2.5281ZM1.2537 11.1981H15.1737V25.1381C15.1737 25.8781 15.7137 26.3981 16.4437 26.3981C17.1337 26.3981 17.6937 25.8781 17.6937 25.1381V9.9981C17.6937 9.2381 17.1337 8.6781 16.3837 8.6781H1.2537C0.5237 8.6781 0.0037 9.1981 0.0037 9.9381C0.0037 10.6181 0.5237 11.1981 1.2537 11.1981Z" /></svg>