<svg viewBox="0 0 22.50390625 24.650390625" xmlns="http://www.w3.org/2000/svg"><path d="M9.9937 1.2621C9.9937 1.9521 10.5537 2.5121 11.2537 2.5121C11.9537 2.5121 12.5137 1.9521 12.5137 1.2621C12.5137 0.5421 11.9537 0.0021 11.2537 0.0021C10.5537 0.0021 9.9937 0.5421 9.9937 1.2621ZM12.4937 3.7321C12.4937 4.4321 13.0437 4.9921 13.7537 4.9921C14.4537 4.9921 15.0137 4.4321 15.0137 3.7321C15.0137 3.0321 14.4537 2.4721 13.7537 2.4721C13.0437 2.4721 12.4937 3.0321 12.4937 3.7321ZM7.4937 3.7321C7.4937 4.4321 8.0537 4.9921 8.7537 4.9921C9.4437 4.9921 10.0037 4.4321 10.0037 3.7321C10.0037 3.0321 9.4437 2.4721 8.7537 2.4721C8.0537 2.4721 7.4937 3.0321 7.4937 3.7321ZM14.9837 6.2021C14.9837 6.9021 15.5437 7.4621 16.2437 7.4621C16.9437 7.4621 17.5037 6.9021 17.5037 6.2021C17.5037 5.5121 16.9437 4.9521 16.2437 4.9521C15.5437 4.9521 14.9837 5.5121 14.9837 6.2021ZM4.9937 6.2021C4.9937 6.9021 5.5537 7.4621 6.2437 7.4621C6.9637 7.4621 7.5037 6.9021 7.5037 6.2021C7.5037 5.5121 6.9637 4.9521 6.2437 4.9521C5.5537 4.9521 4.9937 5.5121 4.9937 6.2021ZM17.4837 8.6921C17.4837 9.3921 18.0437 9.9521 18.7437 9.9521C19.4437 9.9521 20.0037 9.3921 20.0037 8.6921C20.0037 8.0021 19.4437 7.4421 18.7437 7.4421C18.0437 7.4421 17.4837 8.0021 17.4837 8.6921ZM2.5037 8.6921C2.5037 9.3921 3.0637 9.9521 3.7637 9.9521C4.4537 9.9521 5.0137 9.3921 5.0137 8.6921C5.0137 8.0021 4.4537 7.4421 3.7637 7.4421C3.0637 7.4421 2.5037 8.0021 2.5037 8.6921ZM19.9837 11.1721C19.9837 11.8721 20.5537 12.4321 21.2437 12.4321C21.9437 12.4321 22.5037 11.8721 22.5037 11.1721C22.5037 10.4721 21.9437 9.9121 21.2437 9.9121C20.5537 9.9121 19.9837 10.4721 19.9837 11.1721ZM0.0037 11.1721C0.0037 11.8721 0.5637 12.4321 1.2537 12.4321C1.9537 12.4321 2.5137 11.8721 2.5137 11.1721C2.5137 10.4721 1.9537 9.9121 1.2537 9.9121C0.5637 9.9121 0.0037 10.4721 0.0037 11.1721ZM9.9937 13.4621C9.9937 14.1621 10.5537 14.7221 11.2537 14.7221C11.9537 14.7221 12.5137 14.1621 12.5137 13.4621C12.5137 12.7721 11.9537 12.2121 11.2537 12.2121C10.5537 12.2121 9.9937 12.7721 9.9937 13.4621ZM12.4937 15.9521C12.4937 16.6521 13.0437 17.2121 13.7537 17.2121C14.4537 17.2121 15.0137 16.6521 15.0137 15.9521C15.0137 15.2621 14.4537 14.7021 13.7537 14.7021C13.0437 14.7021 12.4937 15.2621 12.4937 15.9521ZM7.4937 15.9521C7.4937 16.6521 8.0537 17.2121 8.7537 17.2121C9.4437 17.2121 10.0037 16.6521 10.0037 15.9521C10.0037 15.2621 9.4437 14.7021 8.7537 14.7021C8.0537 14.7021 7.4937 15.2621 7.4937 15.9521ZM14.9837 18.4321C14.9837 19.1221 15.5437 19.6921 16.2437 19.6921C16.9437 19.6921 17.5037 19.1221 17.5037 18.4321C17.5037 17.7321 16.9437 17.1721 16.2437 17.1721C15.5437 17.1721 14.9837 17.7321 14.9837 18.4321ZM4.9937 18.4321C4.9937 19.1221 5.5537 19.6921 6.2437 19.6921C6.9637 19.6921 7.5037 19.1221 7.5037 18.4321C7.5037 17.7321 6.9637 17.1721 6.2437 17.1721C5.5537 17.1721 4.9937 17.7321 4.9937 18.4321ZM17.4837 20.9221C17.4837 21.6121 18.0437 22.1721 18.7437 22.1721C19.4437 22.1721 20.0037 21.6121 20.0037 20.9221C20.0037 20.2221 19.4437 19.6621 18.7437 19.6621C18.0437 19.6621 17.4837 20.2221 17.4837 20.9221ZM2.5037 20.9221C2.5037 21.6121 3.0637 22.1721 3.7637 22.1721C4.4537 22.1721 5.0137 21.6121 5.0137 20.9221C5.0137 20.2221 4.4537 19.6621 3.7637 19.6621C3.0637 19.6621 2.5037 20.2221 2.5037 20.9221ZM19.9837 23.3921C19.9837 24.0921 20.5537 24.6521 21.2437 24.6521C21.9437 24.6521 22.5037 24.0921 22.5037 23.3921C22.5037 22.6921 21.9437 22.1321 21.2437 22.1321C20.5537 22.1321 19.9837 22.6921 19.9837 23.3921ZM0.0037 23.3921C0.0037 24.0921 0.5637 24.6521 1.2537 24.6521C1.9537 24.6521 2.5137 24.0921 2.5137 23.3921C2.5137 22.6921 1.9537 22.1321 1.2537 22.1321C0.5637 22.1321 0.0037 22.6921 0.0037 23.3921Z" /></svg>