<svg viewBox="0 0 23.748046875 25.59375" xmlns="http://www.w3.org/2000/svg"><path d="M0.3737 11.228C0.1337 11.468 0.0037 11.768 0.0037 12.128C0.0037 12.838 0.5337 13.368 1.2437 13.368C1.6037 13.368 1.9137 13.238 2.1337 13.018L11.8837 3.058L21.6137 13.018C21.8437 13.238 22.1637 13.368 22.5037 13.368C23.2137 13.368 23.7437 12.838 23.7437 12.128C23.7437 11.768 23.6137 11.468 23.3837 11.238L12.7937 0.398C12.5537 0.168 12.2237 -0.002 11.8837 -0.002C11.5237 -0.002 11.2137 0.138 10.9537 0.398ZM0.3737 23.448C0.1337 23.698 0.0037 23.998 0.0037 24.338C0.0037 25.048 0.5337 25.598 1.2437 25.598C1.6037 25.598 1.9137 25.458 2.1337 25.228L11.8837 15.288L21.6137 25.228C21.8437 25.458 22.1637 25.598 22.5037 25.598C23.2137 25.598 23.7437 25.048 23.7437 24.338C23.7437 23.998 23.6137 23.698 23.3837 23.448L12.7937 12.618C12.5637 12.358 12.2237 12.218 11.8837 12.218C11.5237 12.218 11.2137 12.358 10.9537 12.618Z" /></svg>