
<svg
    viewBox={0 0 25.169921875 25.169921875}
    xmlns="http://www.w3.org/2000/svg"
>
    <path
        fill="inherit"
        d="M4.2937 25.1692H20.8737C23.7437 25.1692 25.1737 23.7592 25.1737 20.9492V4.2392C25.1737 1.4192 23.7437 -0.0008 20.8737 -0.0008H4.2937C1.4337 -0.0008 0.0037 1.4192 0.0037 4.2392V20.9492C0.0037 23.7592 1.4337 25.1692 4.2937 25.1692ZM5.6337 15.8692C5.2337 15.4892 5.2537 14.8192 5.6837 14.3792L11.1937 8.4992C12.0837 7.5692 13.1137 7.5692 14.0137 8.4992L19.5237 14.3792C19.9637 14.8192 19.9737 15.4892 19.5737 15.8692C19.1437 16.3192 18.4537 16.3192 18.0637 15.8992L12.6037 10.1192L7.1537 15.8992C6.7437 16.3192 6.0737 16.3192 5.6337 15.8692Z"
        fillRule="evenodd"
        clipRule="evenodd"
    />
</svg>
        