
<svg
    viewBox="0 0 19.072265625 25.51171875"
    xmlns="http://www.w3.org/2000/svg"
>
    <path
        fill="inherit"
        d="M1.9237 18.897C1.9237 19.387 2.3337 19.787 2.8137 19.787H8.2037V24.147C8.2037 24.977 8.7237 25.507 9.5337 25.507C10.3337 25.507 10.8537 24.977 10.8537 24.147V19.787H16.3637C16.8437 19.787 17.2537 19.387 17.2537 18.897C17.2537 18.407 16.8437 18.007 16.3637 18.007H10.8537V15.057H16.3637C16.8437 15.057 17.2537 14.657 17.2537 14.167C17.2537 13.667 16.8437 13.277 16.3637 13.277H11.7837L18.8037 2.087C18.9737 1.807 19.0737 1.527 19.0737 1.207C19.0737 0.467 18.4437 -0.003 17.7237 -0.003C17.2437 -0.003 16.8037 0.287 16.5437 0.707L9.5937 12.307H9.4737L2.5337 0.727C2.2837 0.287 1.8337 -0.003 1.3537 -0.003C0.6337 -0.003 0.0037 0.467 0.0037 1.207C0.0037 1.527 0.0937 1.807 0.2737 2.087L7.2737 13.277H2.8137C2.3337 13.277 1.9237 13.667 1.9237 14.167C1.9237 14.657 2.3337 15.057 2.8137 15.057H8.2037V18.007H2.8137C2.3337 18.007 1.9237 18.407 1.9237 18.897Z"
        fillRule="evenodd"
        clipRule="evenodd"
    />
</svg>
        