
<svg
    viewBox="0 0 32.935546875 27.33018496744969"
    xmlns="http://www.w3.org/2000/svg"
>
    <path
        fill="inherit"
        d="M16.4627 5.864C18.9327 5.864 21.2027 6.724 23.0227 8.134C23.2927 8.354 23.6527 8.324 23.9127 8.064L27.0827 4.894C27.4027 4.584 27.3827 4.124 27.0527 3.854C24.2027 1.454 20.4927 0.004 16.4627 0.004C12.4427 0.004 8.7327 1.454 5.8827 3.854C5.5527 4.124 5.5327 4.584 5.8527 4.894L9.0227 8.064C9.2827 8.324 9.6527 8.354 9.9527 8.124C11.7627 6.724 14.0127 5.864 16.4627 5.864ZM0.0027 16.464C0.0027 20.494 1.4527 24.204 3.8727 27.074C4.1427 27.414 4.6027 27.414 4.9127 27.094L8.1627 23.844C8.3627 23.624 8.3927 23.324 8.2027 23.094C6.7127 21.194 5.8627 18.924 5.8627 16.464C5.8627 14.014 6.7027 11.744 8.1227 9.944C8.3427 9.654 8.3427 9.284 8.0827 9.024L4.9127 5.854C4.5927 5.534 4.1427 5.534 3.8727 5.864C1.4527 8.734 0.0027 12.444 0.0027 16.464ZM32.9327 16.464C32.9327 12.444 31.4827 8.734 29.0627 5.864C28.7927 5.534 28.3327 5.534 28.0227 5.854L24.8527 9.024C24.5927 9.284 24.5827 9.654 24.8127 9.944C26.2227 11.744 27.0727 14.014 27.0727 16.464C27.0727 18.924 26.2227 21.194 24.7327 23.094C24.5427 23.324 24.5527 23.624 24.7627 23.844L28.0127 27.094C28.3327 27.414 28.7827 27.414 29.0627 27.074C31.4827 24.204 32.9327 20.494 32.9327 16.464ZM12.5227 19.814C12.5227 20.074 12.7327 20.274 12.9927 20.274H15.6727V22.234C15.6727 22.724 15.9827 23.054 16.4427 23.054C16.9227 23.054 17.2427 22.724 17.2427 22.234V20.274H19.9427C20.2027 20.274 20.4127 20.074 20.4127 19.814C20.4127 19.554 20.2027 19.344 19.9427 19.344H17.2427V17.914H19.9427C20.2027 17.914 20.4127 17.704 20.4127 17.444C20.4127 17.184 20.2027 16.984 19.9427 16.984H17.7327L21.1327 11.484C21.2627 11.284 21.3027 11.184 21.3027 10.964C21.3027 10.524 20.9627 10.244 20.5227 10.244C20.2227 10.244 19.9727 10.404 19.7927 10.694L16.4927 16.314H16.4327L13.1227 10.694C12.9427 10.404 12.7527 10.224 12.3827 10.224C11.9527 10.224 11.6027 10.514 11.6027 10.964C11.6027 11.114 11.6527 11.294 11.7727 11.494L15.1727 16.984H12.9927C12.7327 16.984 12.5227 17.184 12.5227 17.444C12.5227 17.704 12.7327 17.914 12.9927 17.914H15.6727V19.344H12.9927C12.7327 19.344 12.5227 19.554 12.5227 19.814Z"
        fillRule="evenodd"
        clipRule="evenodd"
    />
</svg>
        