
<svg
    viewBox="0 0 25.169921875 25.169921875"
    xmlns="http://www.w3.org/2000/svg"
>
    <path
        fill="inherit"
        d="M4.2937 25.1692H20.8737C23.7437 25.1692 25.1737 23.7592 25.1737 20.9492V4.2392C25.1737 1.4192 23.7437 -0.0008 20.8737 -0.0008H4.2937C1.4337 -0.0008 0.0037 1.4192 0.0037 4.2392V20.9492C0.0037 23.7592 1.4337 25.1692 4.2937 25.1692ZM12.5937 19.1992C12.1137 19.1992 11.7737 18.8392 11.7737 18.3492V16.3392H9.0237C8.7537 16.3392 8.5437 16.1192 8.5437 15.8592C8.5437 15.5892 8.7537 15.3692 9.0237 15.3692H11.7737V13.8892H9.0237C8.7537 13.8892 8.5437 13.6892 8.5437 13.4092C8.5437 13.1292 8.7537 12.9292 9.0237 12.9292H11.2837L7.7637 7.2592C7.6437 7.0692 7.5837 6.8792 7.5837 6.7092C7.5837 6.2592 7.9437 5.9592 8.4037 5.9592C8.7737 5.9592 8.9837 6.1292 9.1637 6.4292L12.5737 12.2392H12.6337L16.0337 6.4292C16.2237 6.1292 16.4837 5.9792 16.7937 5.9792C17.2537 5.9792 17.5937 6.2792 17.5937 6.7092C17.5937 6.9492 17.5537 7.0592 17.4337 7.2592L13.9137 12.9292H16.2037C16.4737 12.9292 16.6837 13.1292 16.6837 13.4092C16.6837 13.6892 16.4737 13.8892 16.2037 13.8892H13.4137V15.3692H16.2037C16.4737 15.3692 16.6837 15.5892 16.6837 15.8592C16.6837 16.1192 16.4737 16.3392 16.2037 16.3392H13.4137V18.3492C13.4137 18.8392 13.0837 19.1992 12.5937 19.1992Z"
        fillRule="evenodd"
        clipRule="evenodd"
    />
</svg>
        