
<svg
    viewBox={0 0 25.169921875 25.169921875}
    xmlns="http://www.w3.org/2000/svg"
>
    <path
        fill="inherit"
        d="M4.2937 25.1692H20.8737C23.7437 25.1692 25.1737 23.7592 25.1737 20.9492V4.2392C25.1737 1.4192 23.7437 -0.0008 20.8737 -0.0008H4.2937C1.4337 -0.0008 0.0037 1.4192 0.0037 4.2392V20.9492C0.0037 23.7592 1.4337 25.1692 4.2937 25.1692ZM4.3237 22.9692C2.9537 22.9692 2.2037 22.2392 2.2037 20.8192V4.3592C2.2037 2.9392 2.9537 2.1992 4.3237 2.1992H20.8537C22.2037 2.1992 22.9737 2.9392 22.9737 4.3592V20.8192C22.9737 22.2392 22.2037 22.9692 20.8537 22.9692ZM8.6637 15.7492C8.6637 16.0092 8.8737 16.2192 9.1337 16.2192H11.8037V18.1692C11.8037 18.6592 12.1237 18.9892 12.5937 18.9892C13.0737 18.9892 13.3837 18.6592 13.3837 18.1692V16.2192H16.0937C16.3537 16.2192 16.5537 16.0092 16.5537 15.7492C16.5537 15.4892 16.3537 15.2892 16.0937 15.2892H13.3837V13.8492H16.0937C16.3537 13.8492 16.5537 13.6492 16.5537 13.3892C16.5537 13.1092 16.3537 12.9192 16.0937 12.9192H13.8737L17.2837 7.4192C17.4037 7.2192 17.4437 7.1192 17.4437 6.8892C17.4437 6.4692 17.1037 6.1792 16.6637 6.1792C16.3637 6.1792 16.1237 6.3292 15.9437 6.6192L12.6337 12.2492H12.5737L9.2537 6.6192C9.0937 6.3292 8.8837 6.1692 8.5337 6.1692C8.0937 6.1692 7.7337 6.4492 7.7337 6.8892C7.7337 7.0592 7.7937 7.2292 7.9137 7.4192L11.3237 12.9192H9.1337C8.8737 12.9192 8.6637 13.1092 8.6637 13.3892C8.6637 13.6492 8.8737 13.8492 9.1337 13.8492H11.8037V15.2892H9.1337C8.8737 15.2892 8.6637 15.4892 8.6637 15.7492Z"
        fillRule="evenodd"
        clipRule="evenodd"
    />
</svg>
        