
<svg
    viewBox={0 0 31.787109375 32.416015625}
    xmlns="http://www.w3.org/2000/svg"
>
    <path
        fill="inherit"
        d="M15.8827 11.9059C19.1527 11.9059 21.8427 9.2159 21.8427 5.9459C21.8427 2.6759 19.1527 -0.0041 15.8827 -0.0041C12.6027 -0.0041 9.9227 2.6759 9.9227 5.9459C9.9227 9.2159 12.6027 11.9059 15.8827 11.9059ZM15.8827 9.7459C13.7427 9.7459 12.0627 8.0759 12.0627 5.9459C12.0627 3.8159 13.7427 2.0959 15.8827 2.0959C18.0327 2.0959 19.7027 3.8159 19.7027 5.9459C19.7027 8.0759 18.0327 9.7459 15.8827 9.7459ZM25.8427 22.1659C29.0927 22.1659 31.7827 19.4659 31.7827 16.2059C31.7827 12.9459 29.0927 10.2559 25.8427 10.2559C22.5427 10.2559 19.8627 12.9459 19.8627 16.2059C19.8627 19.4659 22.5427 22.1659 25.8427 22.1659ZM5.9627 22.1659C9.2327 22.1659 11.9227 19.4659 11.9227 16.2059C11.9227 12.9459 9.2327 10.2559 5.9627 10.2559C2.6627 10.2559 0.0027 12.9459 0.0027 16.2059C0.0027 19.4659 2.6627 22.1659 5.9627 22.1659ZM25.8427 20.0159C23.6827 20.0159 22.0127 18.3459 22.0127 16.2059C22.0127 14.0659 23.6827 12.3459 25.8427 12.3459C27.9727 12.3459 29.6427 14.0659 29.6427 16.2059C29.6427 18.3459 27.9727 20.0159 25.8427 20.0159ZM15.8827 32.4159C19.1527 32.4159 21.8427 29.7259 21.8427 26.4559C21.8427 23.2059 19.1527 20.5059 15.8827 20.5059C12.6027 20.5059 9.9227 23.2059 9.9227 26.4559C9.9227 29.7259 12.6027 32.4159 15.8827 32.4159ZM15.8827 30.2659C13.7427 30.2659 12.0627 28.6059 12.0627 26.4559C12.0627 24.3359 13.7427 22.5959 15.8827 22.5959C18.0327 22.5959 19.7027 24.3359 19.7027 26.4559C19.7027 28.6059 18.0327 30.2659 15.8827 30.2659Z"
        fillRule="evenodd"
        clipRule="evenodd"
    />
</svg>
        