
<svg
    viewBox="0 0 25.169921875 25.169921875"
    xmlns="http://www.w3.org/2000/svg"
>
    <path
        fill="inherit"
        d="M4.2937 25.1692H20.8737C23.7437 25.1692 25.1737 23.7592 25.1737 20.9492V4.2392C25.1737 1.4192 23.7437 -0.0008 20.8737 -0.0008H4.2937C1.4337 -0.0008 0.0037 1.4192 0.0037 4.2392V20.9492C0.0037 23.7592 1.4337 25.1692 4.2937 25.1692ZM4.3237 22.9692C2.9537 22.9692 2.2037 22.2392 2.2037 20.8192V4.3592C2.2037 2.9392 2.9537 2.1992 4.3237 2.1992H20.8537C22.2037 2.1992 22.9737 2.9392 22.9737 4.3592V20.8192C22.9737 22.2392 22.2037 22.9692 20.8537 22.9692ZM12.5937 19.8892C16.6537 19.8892 19.9237 16.6292 19.9237 12.5792C19.9237 8.5292 16.6537 5.2492 12.5937 5.2492C8.5437 5.2492 5.2737 8.5292 5.2737 12.5792C5.2737 16.6292 8.5437 19.8892 12.5937 19.8892ZM12.5937 17.7692C9.7237 17.7692 7.3937 15.4492 7.3937 12.5792C7.3937 9.7092 9.7237 7.3792 12.5937 7.3792C15.4637 7.3792 17.7837 9.7092 17.7837 12.5792C17.7837 15.4492 15.4637 17.7692 12.5937 17.7692Z"
        fillRule="evenodd"
        clipRule="evenodd"
    />
</svg>
        