
<svg
    viewBox={0 0 27.890625 27.890625}
    xmlns="http://www.w3.org/2000/svg"
>
    <path
        fill="inherit"
        d="M13.9427 27.8864C21.6427 27.8864 27.8927 21.6464 27.8927 13.9464C27.8927 6.2464 21.6427 -0.0036 13.9427 -0.0036C6.2527 -0.0036 0.0027 6.2464 0.0027 13.9464C0.0027 21.6464 6.2527 27.8864 13.9427 27.8864ZM13.9427 25.5664C7.5227 25.5664 2.3227 20.3664 2.3227 13.9464C2.3227 7.5164 7.5227 2.3264 13.9427 2.3264C20.3727 2.3264 25.5627 7.5164 25.5627 13.9464C25.5627 20.3664 20.3727 25.5664 13.9427 25.5664ZM13.9327 21.2564C17.9827 21.2564 21.2627 17.9964 21.2627 13.9464C21.2627 9.8964 17.9827 6.6164 13.9327 6.6164C9.8827 6.6164 6.6127 9.8964 6.6127 13.9464C6.6127 17.9964 9.8827 21.2564 13.9327 21.2564ZM13.9327 19.1364C11.0627 19.1364 8.7327 16.8164 8.7327 13.9464C8.7327 11.0764 11.0627 8.7464 13.9327 8.7464C16.8027 8.7464 19.1227 11.0764 19.1227 13.9464C19.1227 16.8164 16.8027 19.1364 13.9327 19.1364Z"
        fillRule="evenodd"
        clipRule="evenodd"
    />
</svg>
        