
<svg
    viewBox="0 0 29.216796875 27.111328125"
    xmlns="http://www.w3.org/2000/svg"
>
    <path
        fill="inherit"
        d="M9.5827 9.1299C12.1127 9.1299 14.1527 7.0999 14.1527 4.5699C14.1527 2.0399 12.1127 -0.0001 9.5827 -0.0001C7.0527 -0.0001 5.0127 2.0399 5.0127 4.5699C5.0127 7.0999 7.0527 9.1299 9.5827 9.1299ZM19.6327 9.1299C22.1627 9.1299 24.2027 7.0999 24.2027 4.5699C24.2027 2.0399 22.1627 -0.0001 19.6327 -0.0001C17.1027 -0.0001 15.0627 2.0399 15.0627 4.5699C15.0627 7.0999 17.1027 9.1299 19.6327 9.1299ZM4.5627 18.1199C7.0927 18.1199 9.1427 16.0799 9.1427 13.5499C9.1427 11.0199 7.0927 8.9799 4.5627 8.9799C2.0527 8.9799 0.0027 11.0199 0.0027 13.5499C0.0027 16.0799 2.0527 18.1199 4.5627 18.1199ZM24.6527 18.1199C27.1827 18.1199 29.2127 16.0799 29.2127 13.5499C29.2127 11.0199 27.1827 8.9799 24.6527 8.9799C22.1227 8.9799 20.0727 11.0199 20.0727 13.5499C20.0727 16.0799 22.1227 18.1199 24.6527 18.1199ZM9.5827 27.1099C12.1127 27.1099 14.1527 25.0599 14.1527 22.5399C14.1527 20.0199 12.1127 17.9599 9.5827 17.9599C7.0527 17.9599 5.0127 20.0199 5.0127 22.5399C5.0127 25.0599 7.0527 27.1099 9.5827 27.1099ZM19.6327 27.1099C22.1627 27.1099 24.2027 25.0599 24.2027 22.5399C24.2027 20.0199 22.1627 17.9599 19.6327 17.9599C17.1027 17.9599 15.0627 20.0199 15.0627 22.5399C15.0627 25.0599 17.1027 27.1099 19.6327 27.1099Z"
        fillRule="evenodd"
        clipRule="evenodd"
    />
</svg>
        