<svg viewBox="0 0 38.30859375 27.890625" xmlns="http://www.w3.org/2000/svg"><path d="M38.3037 13.9464C38.3037 14.5364 37.8337 15.0364 37.2537 15.0364H33.0537C33.1037 14.6864 33.1137 14.3164 33.1137 13.9464C33.1137 13.5764 33.1037 13.2164 33.0737 12.8664H5.2637C5.8137 5.6764 11.8437 -0.0036 19.1637 -0.0036C26.4837 -0.0036 32.5137 5.6764 33.0737 12.8664H37.2537C37.8337 12.8664 38.3037 13.3564 38.3037 13.9464ZM0.0037 13.9464C0.0037 13.3564 0.4737 12.8664 1.0537 12.8664H5.2637C5.2337 13.2164 5.2237 13.5764 5.2237 13.9464C5.2237 14.3164 5.2337 14.6864 5.2637 15.0364H33.0537C32.4937 22.2164 26.4837 27.8864 19.1637 27.8864C11.8437 27.8864 5.8237 22.2164 5.2637 15.0364H1.0537C0.4737 15.0364 0.0037 14.5364 0.0037 13.9464Z" /></svg>