<svg viewBox="0 0 29.216796875 27.111328125" xmlns="http://www.w3.org/2000/svg"><path d="M9.5827 9.1299C12.1127 9.1299 14.1527 7.0999 14.1527 4.5699C14.1527 2.0399 12.1127 -0.0001 9.5827 -0.0001C7.0527 -0.0001 5.0127 2.0399 5.0127 4.5699C5.0127 7.0999 7.0527 9.1299 9.5827 9.1299ZM19.6327 9.1299C22.1627 9.1299 24.2027 7.0999 24.2027 4.5699C24.2027 2.0399 22.1627 -0.0001 19.6327 -0.0001C17.1027 -0.0001 15.0627 2.0399 15.0627 4.5699C15.0627 7.0999 17.1027 9.1299 19.6327 9.1299ZM9.5827 6.9299C8.2827 6.9299 7.2227 5.8799 7.2227 4.5699C7.2227 3.2699 8.2827 2.1999 9.5827 2.1999C10.8827 2.1999 11.9527 3.2699 11.9527 4.5699C11.9527 5.8799 10.8827 6.9299 9.5827 6.9299ZM19.6327 6.9299C18.3327 6.9299 17.2627 5.8799 17.2627 4.5699C17.2627 3.2699 18.3327 2.1999 19.6327 2.1999C20.9427 2.1999 22.0027 3.2699 22.0027 4.5699C22.0027 5.8799 20.9427 6.9299 19.6327 6.9299ZM14.6127 18.1199C17.1327 18.1199 19.1827 16.0799 19.1827 13.5499C19.1827 11.0199 17.1327 8.9799 14.6127 8.9799C12.0827 8.9799 10.0327 11.0199 10.0327 13.5499C10.0327 16.0799 12.0827 18.1199 14.6127 18.1199ZM4.5627 18.1199C7.0927 18.1199 9.1427 16.0799 9.1427 13.5499C9.1427 11.0199 7.0927 8.9799 4.5627 8.9799C2.0527 8.9799 0.0027 11.0199 0.0027 13.5499C0.0027 16.0799 2.0527 18.1199 4.5627 18.1199ZM24.6527 18.1199C27.1827 18.1199 29.2127 16.0799 29.2127 13.5499C29.2127 11.0199 27.1827 8.9799 24.6527 8.9799C22.1227 8.9799 20.0727 11.0199 20.0727 13.5499C20.0727 16.0799 22.1227 18.1199 24.6527 18.1199ZM14.6127 15.9099C13.3027 15.9099 12.2327 14.8499 12.2327 13.5499C12.2327 12.2399 13.3027 11.1799 14.6127 11.1799C15.9127 11.1799 16.9827 12.2399 16.9827 13.5499C16.9827 14.8499 15.9127 15.9099 14.6127 15.9099ZM4.5627 15.9099C3.2627 15.9099 2.2027 14.8499 2.2027 13.5499C2.2027 12.2399 3.2627 11.1799 4.5627 11.1799C5.8827 11.1799 6.9427 12.2399 6.9427 13.5499C6.9427 14.8499 5.8827 15.9099 4.5627 15.9099ZM24.6527 15.9099C23.3427 15.9099 22.2727 14.8499 22.2727 13.5499C22.2727 12.2399 23.3427 11.1799 24.6527 11.1799C25.9527 11.1799 27.0127 12.2399 27.0127 13.5499C27.0127 14.8499 25.9527 15.9099 24.6527 15.9099ZM9.5827 27.1099C12.1127 27.1099 14.1527 25.0599 14.1527 22.5399C14.1527 20.0199 12.1127 17.9599 9.5827 17.9599C7.0527 17.9599 5.0127 20.0199 5.0127 22.5399C5.0127 25.0599 7.0527 27.1099 9.5827 27.1099ZM19.6327 27.1099C22.1627 27.1099 24.2027 25.0599 24.2027 22.5399C24.2027 20.0199 22.1627 17.9599 19.6327 17.9599C17.1027 17.9599 15.0627 20.0199 15.0627 22.5399C15.0627 25.0599 17.1027 27.1099 19.6327 27.1099ZM9.5827 24.9099C8.2827 24.9099 7.2227 23.8399 7.2227 22.5399C7.2227 21.2299 8.2827 20.1699 9.5827 20.1699C10.8827 20.1699 11.9527 21.2299 11.9527 22.5399C11.9527 23.8399 10.8827 24.9099 9.5827 24.9099ZM19.6327 24.9099C18.3327 24.9099 17.2627 23.8399 17.2627 22.5399C17.2627 21.2299 18.3327 20.1699 19.6327 20.1699C20.9427 20.1699 22.0027 21.2299 22.0027 22.5399C22.0027 23.8399 20.9427 24.9099 19.6327 24.9099Z" /></svg>