
<svg
    viewBox="0 0 27.890625 27.890625"
    xmlns="http://www.w3.org/2000/svg"
>
    <path
        fill="inherit"
        d="M13.9427 27.8864C21.6427 27.8864 27.8927 21.6464 27.8927 13.9464C27.8927 6.2464 21.6427 -0.0036 13.9427 -0.0036C6.2527 -0.0036 0.0027 6.2464 0.0027 13.9464C0.0027 21.6464 6.2527 27.8864 13.9427 27.8864ZM13.9327 23.6364V25.0564H17.3627C16.2827 25.3864 15.1327 25.5664 13.9427 25.5664C7.5227 25.5664 2.3227 20.3664 2.3227 13.9464C2.3227 7.5164 7.5227 2.3264 13.9427 2.3264C15.1327 2.3264 16.2827 2.5064 17.3627 2.8264H13.9327V4.2564H20.3527C21.0227 4.6864 21.6427 5.1964 22.2027 5.7664H13.9327V7.1764H23.4027C23.7527 7.6564 24.0527 8.1664 24.3227 8.6964H13.9327V10.1164H24.9227C25.1027 10.6064 25.2427 11.1164 25.3327 11.6364H13.9327V13.0464H25.5427C25.5527 13.3464 25.5627 13.6464 25.5627 13.9464C25.5627 14.1464 25.5627 14.3564 25.5527 14.5564H13.9327V15.9864H25.3927C25.2927 16.5064 25.1727 17.0064 25.0227 17.4964H13.9327V18.9264H24.4627C24.2027 19.4364 23.9127 19.9464 23.5927 20.4364H13.9327V21.8464H22.4627C21.8327 22.5264 21.1327 23.1364 20.3527 23.6364Z"
        fillRule="evenodd"
        clipRule="evenodd"
    />
</svg>
        