<svg viewBox="0 0 27.890625 27.890625" xmlns="http://www.w3.org/2000/svg"><path d="M13.9427 27.8864C21.6427 27.8864 27.8927 21.6464 27.8927 13.9464C27.8927 6.2464 21.6427 -0.0036 13.9427 -0.0036C6.2527 -0.0036 0.0027 6.2464 0.0027 13.9464C0.0027 21.6464 6.2527 27.8864 13.9427 27.8864ZM13.9327 4.2564V2.8264H17.3627C18.4327 3.1564 19.4427 3.6364 20.3527 4.2564ZM13.9327 7.1764V5.7664H22.2027C22.6427 6.2064 23.0327 6.6764 23.4027 7.1764ZM13.9327 10.1164V8.6964H24.3227C24.5527 9.1464 24.7627 9.6264 24.9227 10.1164ZM13.9327 13.0464V11.6364H25.3327C25.4327 12.0964 25.5027 12.5664 25.5427 13.0464ZM13.9327 15.9864V14.5564H25.5527C25.5227 15.0564 25.4727 15.5164 25.3927 15.9864ZM13.9327 18.9264V17.4964H25.0227C24.8527 17.9964 24.6827 18.4564 24.4627 18.9264ZM13.9327 21.8464V20.4364H23.5927C23.2527 20.9364 22.8727 21.4064 22.4627 21.8464ZM13.9327 25.0564V23.6364H20.3527C19.4427 24.2564 18.4327 24.7364 17.3627 25.0564Z" /></svg>