
<svg
    viewBox={0 0 17.568359375 28.943359375}
    xmlns="http://www.w3.org/2000/svg"
>
    <path
        fill="inherit"
        d="M0.0037 25.3896C0.0037 27.5196 1.4937 28.9396 3.7237 28.9396H13.8537C16.0737 28.9396 17.5637 27.5196 17.5637 25.3896V3.5596C17.5637 1.4196 16.0737 -0.0004 13.8537 -0.0004H3.7237C1.4937 -0.0004 0.0037 1.4196 0.0037 3.5596ZM2.2037 25.0296V3.9096C2.2037 2.8196 2.8437 2.1996 4.0037 2.1996H13.5737C14.7237 2.1996 15.3637 2.8196 15.3637 3.9096V25.0296C15.3637 26.1296 14.7237 26.7396 13.5737 26.7396H4.0037C2.8437 26.7396 2.2037 26.1296 2.2037 25.0296ZM8.7937 19.5496C11.5937 19.5496 13.8737 17.2696 13.8737 14.4696C13.8737 11.6596 11.5937 9.3796 8.7937 9.3796C5.9837 9.3796 3.7037 11.6596 3.7037 14.4696C3.7037 17.2696 5.9837 19.5496 8.7937 19.5496Z"
        fillRule="evenodd"
        clipRule="evenodd"
    />
</svg>
        