
<svg
    viewBox={0 0 26.9609375 26.00390625}
    xmlns="http://www.w3.org/2000/svg"
>
    <path
        fill="inherit"
        d="M5.9637 11.923C9.2537 11.923 11.9237 9.253 11.9237 5.963C11.9237 2.663 9.2537 0.003 5.9637 0.003C2.6637 0.003 0.0037 2.663 0.0037 5.963C0.0037 9.253 2.6637 11.923 5.9637 11.923ZM21.0037 11.923C24.2937 11.923 26.9637 9.253 26.9637 5.963C26.9637 2.663 24.2937 0.003 21.0037 0.003C17.7037 0.003 15.0437 2.663 15.0437 5.963C15.0437 9.253 17.7037 11.923 21.0037 11.923ZM5.9637 26.003C9.2537 26.003 11.9237 23.333 11.9237 20.043C11.9237 16.743 9.2537 14.083 5.9637 14.083C2.6637 14.083 0.0037 16.743 0.0037 20.043C0.0037 23.333 2.6637 26.003 5.9637 26.003ZM21.0037 26.003C24.2937 26.003 26.9637 23.333 26.9637 20.043C26.9637 16.743 24.2937 14.083 21.0037 14.083C17.7037 14.083 15.0437 16.743 15.0437 20.043C15.0437 23.333 17.7037 26.003 21.0037 26.003Z"
        fillRule="evenodd"
        clipRule="evenodd"
    />
</svg>
        