
<svg
    viewBox={0 0 27.890625 27.890625}
    xmlns="http://www.w3.org/2000/svg"
>
    <path
        fill="inherit"
        d="M13.9427 27.8864C21.6427 27.8864 27.8927 21.6264 27.8927 13.9464C27.8927 6.2464 21.6427 -0.0036 13.9427 -0.0036C6.2627 -0.0036 0.0027 6.2464 0.0027 13.9464C0.0027 21.6264 6.2627 27.8864 13.9427 27.8864ZM13.9427 8.6364C13.3727 8.6364 12.9427 8.2164 12.9427 7.6464C12.9427 7.0664 13.3727 6.6464 13.9427 6.6464C14.5227 6.6464 14.9427 7.0664 14.9427 7.6464C14.9427 8.2164 14.5227 8.6364 13.9427 8.6364ZM17.1027 9.4864C16.5327 9.4864 16.1027 9.0664 16.1027 8.4864C16.1027 7.9064 16.5327 7.4764 17.1027 7.4764C17.6927 7.4764 18.1027 7.9064 18.1027 8.4864C18.1027 9.0664 17.6927 9.4864 17.1027 9.4864ZM10.7827 9.4864C10.2127 9.4864 9.7927 9.0664 9.7927 8.4864C9.7927 7.9064 10.2127 7.4764 10.7827 7.4764C11.3627 7.4764 11.7827 7.9064 11.7827 8.4864C11.7827 9.0664 11.3627 9.4864 10.7827 9.4864ZM19.4127 11.7964C18.8427 11.7964 18.4127 11.3764 18.4127 10.7964C18.4127 10.2264 18.8427 9.8064 19.4127 9.8064C20.0027 9.8064 20.4227 10.2264 20.4227 10.7964C20.4227 11.3764 20.0027 11.7964 19.4127 11.7964ZM8.4727 11.7964C7.8927 11.7964 7.4627 11.3764 7.4627 10.7964C7.4627 10.2264 7.8927 9.8064 8.4727 9.8064C9.0527 9.8064 9.4727 10.2264 9.4727 10.7964C9.4727 11.3764 9.0527 11.7964 8.4727 11.7964ZM20.2627 14.9564C19.6827 14.9564 19.2627 14.5364 19.2627 13.9564C19.2627 13.3864 19.6827 12.9564 20.2627 12.9564C20.8327 12.9564 21.2627 13.3864 21.2627 13.9564C21.2627 14.5364 20.8327 14.9564 20.2627 14.9564ZM7.6327 14.9564C7.0527 14.9564 6.6327 14.5364 6.6327 13.9564C6.6327 13.3864 7.0527 12.9564 7.6327 12.9564C8.2027 12.9564 8.6227 13.3864 8.6227 13.9564C8.6227 14.5364 8.2027 14.9564 7.6327 14.9564ZM19.4127 18.1264C18.8427 18.1264 18.4127 17.7064 18.4127 17.1264C18.4127 16.5464 18.8427 16.1164 19.4127 16.1164C20.0027 16.1164 20.4227 16.5464 20.4227 17.1264C20.4227 17.7064 20.0027 18.1264 19.4127 18.1264ZM8.4727 18.1264C7.8927 18.1264 7.4627 17.7064 7.4627 17.1264C7.4627 16.5464 7.8927 16.1164 8.4727 16.1164C9.0527 16.1164 9.4727 16.5464 9.4727 17.1264C9.4727 17.7064 9.0527 18.1264 8.4727 18.1264ZM17.1027 20.4364C16.5327 20.4364 16.1027 20.0164 16.1027 19.4264C16.1027 18.8564 16.5327 18.4264 17.1027 18.4264C17.6927 18.4264 18.1027 18.8564 18.1027 19.4264C18.1027 20.0164 17.6927 20.4364 17.1027 20.4364ZM10.7827 20.4364C10.2127 20.4364 9.7927 20.0164 9.7927 19.4264C9.7927 18.8564 10.2127 18.4264 10.7827 18.4264C11.3627 18.4264 11.7827 18.8564 11.7827 19.4264C11.7827 20.0164 11.3627 20.4364 10.7827 20.4364ZM13.9427 21.2764C13.3727 21.2764 12.9427 20.8464 12.9427 20.2764C12.9427 19.6964 13.3727 19.2764 13.9427 19.2764C14.5227 19.2764 14.9427 19.6964 14.9427 20.2764C14.9427 20.8464 14.5227 21.2764 13.9427 21.2764Z"
        fillRule="evenodd"
        clipRule="evenodd"
    />
</svg>
        