
<svg
    viewBox="0 0 32.23828125 25.169921875"
    xmlns="http://www.w3.org/2000/svg"
>
    <path
        fill="inherit"
        d="M4.2937 25.1692H27.9437C30.8137 25.1692 32.2337 23.7592 32.2337 20.9492V4.2392C32.2337 1.4192 30.8137 -0.0008 27.9437 -0.0008H4.2937C1.4337 -0.0008 0.0037 1.4192 0.0037 4.2392V20.9492C0.0037 23.7592 1.4337 25.1692 4.2937 25.1692ZM4.3237 22.9692C2.9537 22.9692 2.2037 22.2392 2.2037 20.8192V4.3592C2.2037 2.9392 2.9537 2.1992 4.3237 2.1992H27.9137C29.2737 2.1992 30.0337 2.9392 30.0337 4.3592V20.8192C30.0337 22.2392 29.2737 22.9692 27.9137 22.9692ZM11.4737 6.5792L12.7437 7.8492C13.4637 7.3292 14.2837 6.9692 15.2037 6.8192V5.0492C13.8037 5.2092 12.5337 5.7692 11.4737 6.5792ZM17.0637 5.0492V6.8192C17.9637 6.9692 18.8037 7.3292 19.5137 7.8292L20.7637 6.5892C19.7237 5.7692 18.4437 5.2192 17.0637 5.0492ZM8.5537 11.6592H10.3337C10.4837 10.7292 10.8537 9.8692 11.4037 9.1492L10.1537 7.8892C9.2937 8.9592 8.7237 10.2492 8.5537 11.6592ZM22.1037 7.8992L20.8537 9.1592C21.3837 9.8892 21.7637 10.7292 21.9037 11.6592H23.6837C23.5037 10.2492 22.9437 8.9692 22.1037 7.8992ZM23.6837 13.5392H21.8937C21.7337 14.4192 21.3837 15.2592 20.8737 15.9692L22.1337 17.2292C22.9537 16.1892 23.5037 14.8992 23.6837 13.5392ZM10.1137 17.2492L11.3737 15.9792C10.8537 15.2692 10.5037 14.4392 10.3537 13.5392H8.5537C8.7337 14.9192 9.2837 16.1992 10.1137 17.2492ZM20.8037 18.5492L19.5537 17.2992C18.8437 17.8392 17.9937 18.2292 17.0637 18.3492V20.1492C18.4737 19.9792 19.7737 19.3992 20.8037 18.5492ZM15.2037 20.1492V18.3492C14.2737 18.2292 13.4237 17.8392 12.7037 17.3092L11.4337 18.5692C12.4937 19.4092 13.7937 19.9792 15.2037 20.1492Z"
        fillRule="evenodd"
        clipRule="evenodd"
    />
</svg>
        