
<svg
    viewBox="0 0 38.5546875 27.890625"
    xmlns="http://www.w3.org/2000/svg"
>
    <path
        fill="inherit"
        d="M17.8327 27.1564C18.2227 27.1564 18.5927 26.9464 18.8027 26.6164C20.5727 27.4364 22.5427 27.8864 24.6127 27.8864C32.3027 27.8864 38.5527 21.6464 38.5527 13.9464C38.5527 6.2464 32.3027 -0.0036 24.6127 -0.0036C22.5427 -0.0036 20.5627 0.4464 18.8027 1.2764C18.5827 0.9564 18.2227 0.7364 17.8327 0.7364C17.1827 0.7364 16.6527 1.2764 16.6527 1.9164C16.6527 2.0964 16.6927 2.2664 16.7627 2.4164C13.0827 4.9364 10.6627 9.1564 10.6627 13.9464C10.6627 18.7264 13.0827 22.9564 16.7627 25.4664C16.6927 25.6164 16.6527 25.7964 16.6527 25.9764C16.6527 26.6164 17.1827 27.1564 17.8327 27.1564ZM13.9227 2.4464C14.5627 2.4464 15.0927 1.9164 15.0927 1.2764C15.0927 0.6264 14.5627 0.0964 13.9227 0.0964C13.2727 0.0964 12.7427 0.6264 12.7427 1.2764C12.7427 1.9164 13.2727 2.4464 13.9227 2.4464ZM10.0127 3.0864C10.6527 3.0864 11.1827 2.5564 11.1827 1.9164C11.1827 1.2764 10.6527 0.7364 10.0127 0.7364C9.3527 0.7364 8.8327 1.2764 8.8327 1.9164C8.8327 2.5564 9.3527 3.0864 10.0127 3.0864ZM24.6127 25.5664C23.6827 25.5664 22.7627 25.4564 21.8927 25.2364C22.2827 25.0464 22.5627 24.6464 22.5627 24.1864C22.5627 23.5464 22.0227 23.0064 21.3827 23.0064C20.7427 23.0064 20.2027 23.5464 20.2027 24.1864C20.2027 24.3864 20.2627 24.5964 20.3527 24.7564C16.0327 23.0664 12.9927 18.8664 12.9927 13.9464C12.9927 9.0264 16.0327 4.8164 20.3527 3.1164C20.2627 3.2964 20.2027 3.4964 20.2027 3.7064C20.2027 4.3464 20.7427 4.8764 21.3827 4.8764C22.0227 4.8764 22.5627 4.3464 22.5627 3.7064C22.5627 3.2364 22.2727 2.8264 21.8727 2.6364C22.7527 2.4364 23.6627 2.3264 24.6127 2.3264C31.0327 2.3264 36.2327 7.5164 36.2327 13.9464C36.2327 20.3664 31.0327 25.5664 24.6127 25.5664ZM6.4527 4.8764C7.0927 4.8764 7.6327 4.3464 7.6327 3.7064C7.6327 3.0664 7.0927 2.5264 6.4527 2.5264C5.7927 2.5264 5.2727 3.0664 5.2727 3.7064C5.2727 4.3464 5.7927 4.8764 6.4527 4.8764ZM24.1827 7.6964C24.8327 7.6964 25.3627 7.1664 25.3627 6.5264C25.3627 5.8764 24.8327 5.3464 24.1827 5.3464C23.5427 5.3464 23.0127 5.8764 23.0127 6.5264C23.0127 7.1664 23.5427 7.6964 24.1827 7.6964ZM3.6327 7.6964C4.2827 7.6964 4.8127 7.1664 4.8127 6.5264C4.8127 5.8764 4.2827 5.3464 3.6327 5.3464C2.9927 5.3464 2.4627 5.8764 2.4627 6.5264C2.4627 7.1664 2.9927 7.6964 3.6327 7.6964ZM25.9727 11.1964C26.6227 11.1964 27.1527 10.6664 27.1527 10.0264C27.1527 9.3764 26.6227 8.8464 25.9727 8.8464C25.3327 8.8464 24.8027 9.3764 24.8027 10.0264C24.8027 10.6664 25.3327 11.1964 25.9727 11.1964ZM1.8427 11.1964C2.4927 11.1964 3.0227 10.6664 3.0227 10.0264C3.0227 9.3764 2.4927 8.8464 1.8427 8.8464C1.2027 8.8464 0.6727 9.3764 0.6727 10.0264C0.6727 10.6664 1.2027 11.1964 1.8427 11.1964ZM26.6427 15.1164C27.2927 15.1164 27.8227 14.5864 27.8227 13.9464C27.8227 13.3064 27.2927 12.7664 26.6427 12.7664C26.0027 12.7664 25.4727 13.3064 25.4727 13.9464C25.4727 14.5864 26.0027 15.1164 26.6427 15.1164ZM1.1727 15.1164C1.8227 15.1164 2.3527 14.5864 2.3527 13.9464C2.3527 13.3064 1.8227 12.7664 1.1727 12.7664C0.5327 12.7664 0.0027 13.3064 0.0027 13.9464C0.0027 14.5864 0.5327 15.1164 1.1727 15.1164ZM25.9727 19.0464C26.6227 19.0464 27.1527 18.5164 27.1527 17.8664C27.1527 17.2264 26.6227 16.6964 25.9727 16.6964C25.3327 16.6964 24.8027 17.2264 24.8027 17.8664C24.8027 18.5164 25.3327 19.0464 25.9727 19.0464ZM1.8427 19.0464C2.4927 19.0464 3.0227 18.5164 3.0227 17.8664C3.0227 17.2264 2.4927 16.6964 1.8427 16.6964C1.2027 16.6964 0.6727 17.2264 0.6727 17.8664C0.6727 18.5164 1.2027 19.0464 1.8427 19.0464ZM24.1827 22.5564C24.8327 22.5564 25.3627 22.0264 25.3627 21.3864C25.3627 20.7364 24.8327 20.2064 24.1827 20.2064C23.5427 20.2064 23.0127 20.7364 23.0127 21.3864C23.0127 22.0264 23.5427 22.5564 24.1827 22.5564ZM3.6327 22.5564C4.2827 22.5564 4.8127 22.0264 4.8127 21.3864C4.8127 20.7364 4.2827 20.2064 3.6327 20.2064C2.9927 20.2064 2.4627 20.7364 2.4627 21.3864C2.4627 22.0264 2.9927 22.5564 3.6327 22.5564ZM6.4527 25.3564C7.0927 25.3564 7.6327 24.8264 7.6327 24.1864C7.6327 23.5464 7.0927 23.0064 6.4527 23.0064C5.7927 23.0064 5.2727 23.5464 5.2727 24.1864C5.2727 24.8264 5.7927 25.3564 6.4527 25.3564ZM10.0127 27.1564C10.6527 27.1564 11.1827 26.6164 11.1827 25.9764C11.1827 25.3364 10.6527 24.7964 10.0127 24.7964C9.3527 24.7964 8.8327 25.3364 8.8327 25.9764C8.8327 26.6164 9.3527 27.1564 10.0127 27.1564ZM13.9227 27.7964C14.5627 27.7964 15.0927 27.2664 15.0927 26.6164C15.0927 25.9764 14.5627 25.4464 13.9227 25.4464C13.2727 25.4464 12.7427 25.9764 12.7427 26.6164C12.7427 27.2664 13.2727 27.7964 13.9227 27.7964Z"
        fillRule="evenodd"
        clipRule="evenodd"
    />
</svg>
        