
<svg
    viewBox="0 0 32.23828125 25.169921875"
    xmlns="http://www.w3.org/2000/svg"
>
    <path
        fill="inherit"
        d="M4.2937 25.1692H27.9437C30.8137 25.1692 32.2337 23.7592 32.2337 20.9492V4.2392C32.2337 1.4192 30.8137 -0.0008 27.9437 -0.0008H4.2937C1.4337 -0.0008 0.0037 1.4192 0.0037 4.2392V20.9492C0.0037 23.7592 1.4337 25.1692 4.2937 25.1692ZM4.3237 22.9692C2.9537 22.9692 2.2037 22.2392 2.2037 20.8192V4.3592C2.2037 2.9392 2.9537 2.1992 4.3237 2.1992H27.9137C29.2737 2.1992 30.0337 2.9392 30.0337 4.3592V20.8192C30.0337 22.2392 29.2737 22.9692 27.9137 22.9692ZM16.0637 20.2092C20.2637 20.2092 23.6637 16.7992 23.6637 12.5892C23.6637 8.3992 20.2637 4.9892 16.0637 4.9892C11.8537 4.9892 8.4537 8.3992 8.4537 12.5892C8.4537 16.7992 11.8537 20.2092 16.0637 20.2092ZM10.2137 12.5892C10.2137 9.3392 12.8137 6.7492 16.0637 6.7492C16.3637 6.7492 16.6537 6.7792 16.9437 6.8192L10.2837 13.4792C10.2437 13.1892 10.2137 12.8892 10.2137 12.5892ZM11.0337 15.5992L19.0737 7.5692C19.9337 8.0792 20.6437 8.8192 21.1537 9.6892L13.1537 17.6792C12.2737 17.1892 11.5537 16.4592 11.0337 15.5992ZM16.0637 18.4392C15.8037 18.4392 15.5537 18.4292 15.3237 18.3892L21.8637 11.8492C21.8937 12.0992 21.9037 12.3492 21.9037 12.5892C21.9037 15.8492 19.3137 18.4392 16.0637 18.4392Z"
        fillRule="evenodd"
        clipRule="evenodd"
    />
</svg>
        