
<svg
    viewBox={0 0 27.890625 27.890625}
    xmlns="http://www.w3.org/2000/svg"
>
    <path
        fill="inherit"
        d="M13.9427 27.8864C21.6427 27.8864 27.8927 21.6264 27.8927 13.9464C27.8927 6.2464 21.6427 -0.0036 13.9427 -0.0036C6.2627 -0.0036 0.0027 6.2464 0.0027 13.9464C0.0027 21.6264 6.2627 27.8864 13.9427 27.8864ZM13.9427 21.4964C9.7727 21.4964 6.4027 18.1164 6.4027 13.9464C6.4027 9.7764 9.7727 6.3864 13.9427 6.3864C18.1127 6.3864 21.5027 9.7764 21.5027 13.9464C21.5027 18.1164 18.1127 21.4964 13.9427 21.4964ZM13.9427 19.2864C16.9027 19.2864 19.2927 16.8964 19.2927 13.9464C19.2927 10.9964 16.9027 8.5964 13.9427 8.5964C10.9927 8.5964 8.6027 10.9964 8.6027 13.9464C8.6027 16.8964 10.9927 19.2864 13.9427 19.2864Z"
        fillRule="evenodd"
        clipRule="evenodd"
    />
</svg>
        