
<svg
    viewBox={0 0 27.890625 27.890625}
    xmlns="http://www.w3.org/2000/svg"
>
    <path
        fill="inherit"
        d="M25.4527 21.7264C26.9927 19.4964 27.8927 16.8164 27.8927 13.9464C27.8927 6.3164 21.5627 -0.0036 13.9327 -0.0036C11.0627 -0.0036 8.3827 0.9064 6.1627 2.4364L7.8227 4.0764C9.5727 2.9664 11.6627 2.3264 13.9227 2.3264C20.3727 2.3264 25.5527 7.4964 25.5527 13.9464C25.5527 16.1964 24.9127 18.2964 23.8027 20.0664ZM25.7327 27.2464C26.1427 27.6564 26.8227 27.6464 27.2227 27.2364C27.6327 26.8264 27.6327 26.1564 27.2227 25.7464L2.1427 0.6664C1.7327 0.2564 1.0627 0.2464 0.6427 0.6664C0.2427 1.0664 0.2427 1.7464 0.6427 2.1564ZM20.0527 23.8164C18.2927 24.9264 16.1827 25.5664 13.9327 25.5664C7.4827 25.5664 2.3227 20.3964 2.3227 13.9464C2.3227 11.6864 2.9627 9.5864 4.0727 7.8164L2.4327 6.1664C0.8927 8.3764 0.0027 11.0764 0.0027 13.9464C0.0027 21.5564 6.3327 27.8864 13.9427 27.8864C16.8127 27.8864 19.4827 26.9864 21.7127 25.4664Z"
        fillRule="evenodd"
        clipRule="evenodd"
    />
</svg>
        