
<svg
    viewBox="0 0 27.890625 27.890625"
    xmlns="http://www.w3.org/2000/svg"
>
    <path
        fill="inherit"
        d="M13.9427 27.8864C21.6427 27.8864 27.8927 21.6464 27.8927 13.9464C27.8927 6.2464 21.6427 -0.0036 13.9427 -0.0036C6.2527 -0.0036 0.0027 6.2464 0.0027 13.9464C0.0027 21.6464 6.2527 27.8864 13.9427 27.8864ZM13.9427 25.5664C7.5227 25.5664 2.3227 20.3664 2.3227 13.9464C2.3227 7.5164 7.5227 2.3264 13.9427 2.3264C20.3727 2.3264 25.5627 7.5164 25.5627 13.9464C25.5627 20.3664 20.3727 25.5664 13.9427 25.5664ZM9.1427 11.3764C10.1827 11.3764 11.0327 10.5364 11.0327 9.4864C11.0327 8.4364 10.1827 7.5864 9.1427 7.5864C8.0927 7.5864 7.2427 8.4364 7.2427 9.4864C7.2427 10.5364 8.0927 11.3764 9.1427 11.3764ZM13.9327 11.3764C14.9827 11.3764 15.8227 10.5364 15.8227 9.4864C15.8227 8.4364 14.9827 7.6064 13.9327 7.6064C12.8827 7.6064 12.0427 8.4364 12.0427 9.4864C12.0427 10.5364 12.8827 11.3764 13.9327 11.3764ZM18.7327 11.3864C19.7827 11.3864 20.6127 10.5364 20.6127 9.4864C20.6127 8.4364 19.7827 7.6064 18.7327 7.6064C17.6827 7.6064 16.8327 8.4364 16.8327 9.4864C16.8327 10.5364 17.6827 11.3864 18.7327 11.3864ZM9.1427 15.8364C10.1827 15.8364 11.0327 14.9864 11.0327 13.9464C11.0327 12.8964 10.1827 12.0464 9.1427 12.0464C8.0927 12.0464 7.2427 12.8964 7.2427 13.9464C7.2427 14.9864 8.0927 15.8364 9.1427 15.8364ZM13.9327 15.8364C14.9827 15.8364 15.8227 14.9964 15.8227 13.9464C15.8227 12.8964 14.9827 12.0464 13.9327 12.0464C12.8827 12.0464 12.0427 12.8964 12.0427 13.9464C12.0427 14.9964 12.8827 15.8364 13.9327 15.8364ZM18.7327 15.8464C19.7827 15.8464 20.6127 14.9964 20.6127 13.9464C20.6127 12.8964 19.7827 12.0564 18.7327 12.0564C17.6827 12.0564 16.8327 12.8964 16.8327 13.9464C16.8327 14.9964 17.6827 15.8464 18.7327 15.8464ZM9.1427 20.2864C10.1827 20.2864 11.0327 19.4364 11.0327 18.3864C11.0327 17.3364 10.1827 16.5064 9.1427 16.5064C8.0927 16.5064 7.2427 17.3364 7.2427 18.3864C7.2427 19.4364 8.0927 20.2864 9.1427 20.2864ZM13.9327 20.2864C14.9827 20.2864 15.8227 19.4364 15.8227 18.3864C15.8227 17.3464 14.9827 16.5064 13.9327 16.5064C12.8827 16.5064 12.0427 17.3464 12.0427 18.3864C12.0427 19.4364 12.8827 20.2864 13.9327 20.2864ZM18.7327 20.2864C19.7827 20.2864 20.6127 19.4564 20.6127 18.4064C20.6127 17.3464 19.7827 16.5064 18.7327 16.5064C17.6827 16.5064 16.8327 17.3464 16.8327 18.4064C16.8327 19.4564 17.6827 20.2864 18.7327 20.2864Z"
        fillRule="evenodd"
        clipRule="evenodd"
    />
</svg>
        