<svg viewBox="0 0 27.890625 27.890625" xmlns="http://www.w3.org/2000/svg"><path d="M13.9427 27.8864C21.6427 27.8864 27.8927 21.6264 27.8927 13.9464C27.8927 6.2464 21.6427 -0.0036 13.9427 -0.0036C6.2627 -0.0036 0.0027 6.2464 0.0027 13.9464C0.0027 21.6264 6.2627 27.8864 13.9427 27.8864ZM9.0327 11.2764C7.9527 11.2764 7.0827 10.4164 7.0827 9.3364C7.0827 8.2564 7.9527 7.3864 9.0327 7.3864C10.1027 7.3864 10.9827 8.2564 10.9827 9.3364C10.9827 10.4164 10.1027 11.2764 9.0327 11.2764ZM13.9427 11.2764C12.8627 11.2764 12.0027 10.4164 12.0027 9.3364C12.0027 8.2564 12.8627 7.3964 13.9427 7.3964C15.0227 7.3964 15.8827 8.2564 15.8827 9.3364C15.8827 10.4164 15.0227 11.2764 13.9427 11.2764ZM18.8627 11.2964C17.7827 11.2964 16.9127 10.4164 16.9127 9.3364C16.9127 8.2564 17.7827 7.3964 18.8627 7.3964C19.9427 7.3964 20.8127 8.2564 20.8127 9.3364C20.8127 10.4164 19.9427 11.2964 18.8627 11.2964ZM9.0327 15.8864C7.9527 15.8864 7.0827 15.0164 7.0827 13.9464C7.0827 12.8664 7.9527 11.9864 9.0327 11.9864C10.1027 11.9864 10.9827 12.8664 10.9827 13.9464C10.9827 15.0164 10.1027 15.8864 9.0327 15.8864ZM13.9427 15.8864C12.8627 15.8864 12.0027 15.0264 12.0027 13.9464C12.0027 12.8664 12.8627 11.9864 13.9427 11.9864C15.0227 11.9864 15.8827 12.8664 15.8827 13.9464C15.8827 15.0264 15.0227 15.8864 13.9427 15.8864ZM18.8627 15.8964C17.7827 15.8964 16.9127 15.0264 16.9127 13.9464C16.9127 12.8664 17.7827 12.0064 18.8627 12.0064C19.9427 12.0064 20.8127 12.8664 20.8127 13.9464C20.8127 15.0264 19.9427 15.8964 18.8627 15.8964ZM9.0327 20.4764C7.9527 20.4764 7.0827 19.6064 7.0827 18.5264C7.0827 17.4464 7.9527 16.5864 9.0327 16.5864C10.1027 16.5864 10.9827 17.4464 10.9827 18.5264C10.9827 19.6064 10.1027 20.4764 9.0327 20.4764ZM13.9427 20.4764C12.8627 20.4764 12.0027 19.6064 12.0027 18.5264C12.0027 17.4564 12.8627 16.5864 13.9427 16.5864C15.0227 16.5864 15.8827 17.4564 15.8827 18.5264C15.8827 19.6064 15.0227 20.4764 13.9427 20.4764ZM18.8627 20.4764C17.7827 20.4764 16.9127 19.6164 16.9127 18.5364C16.9127 17.4564 17.7827 16.5864 18.8627 16.5864C19.9427 16.5864 20.8127 17.4564 20.8127 18.5364C20.8127 19.6164 19.9427 20.4764 18.8627 20.4764Z" /></svg>