
<svg
    viewBox="0 0 35.84765625 15.927734375"
    xmlns="http://www.w3.org/2000/svg"
>
    <path
        fill="inherit"
        d="M7.9527 15.9318C12.3627 15.9318 15.9327 12.3618 15.9327 7.9718C15.9327 3.5818 12.3627 0.0018 7.9527 0.0018C3.5727 0.0018 0.0027 3.5818 0.0027 7.9718C0.0027 12.3618 3.5727 15.9318 7.9527 15.9318ZM27.8927 15.9318C32.2827 15.9318 35.8427 12.3618 35.8427 7.9718C35.8427 3.5818 32.2827 0.0018 27.8927 0.0018C23.4927 0.0018 19.9227 3.5818 19.9227 7.9718C19.9227 12.3618 23.4927 15.9318 27.8927 15.9318ZM7.9527 13.7218C4.7727 13.7218 2.2027 11.1518 2.2027 7.9718C2.2027 4.7818 4.7727 2.2018 7.9527 2.2018C11.1527 2.2018 13.7227 4.7818 13.7227 7.9718C13.7227 11.1518 11.1527 13.7218 7.9527 13.7218ZM27.8927 13.7218C24.6927 13.7218 22.1227 11.1518 22.1227 7.9718C22.1227 4.7818 24.6927 2.2018 27.8927 2.2018C31.0727 2.2018 33.6427 4.7818 33.6427 7.9718C33.6427 11.1518 31.0727 13.7218 27.8927 13.7218Z"
        fillRule="evenodd"
        clipRule="evenodd"
    />
</svg>
        