<svg viewBox="0 0 28.095703125 26.810546875" xmlns="http://www.w3.org/2000/svg"><path d="M3.9937 7.9695C6.1937 7.9695 7.9837 6.1795 7.9837 3.9895C7.9837 1.7895 6.1937 -0.0005 3.9937 -0.0005C1.7937 -0.0005 0.0137 1.7895 0.0137 3.9895C0.0137 6.1795 1.7937 7.9695 3.9937 7.9695ZM14.0537 7.9695C16.2537 7.9695 18.0337 6.1795 18.0337 3.9895C18.0337 1.7895 16.2537 -0.0005 14.0537 -0.0005C11.8537 -0.0005 10.0737 1.7895 10.0737 3.9895C10.0737 6.1795 11.8537 7.9695 14.0537 7.9695ZM24.1137 7.9695C26.3137 7.9695 28.0937 6.1795 28.0937 3.9895C28.0937 1.7895 26.3137 -0.0005 24.1137 -0.0005C21.9137 -0.0005 20.1437 1.7895 20.1437 3.9895C20.1437 6.1795 21.9137 7.9695 24.1137 7.9695ZM3.9937 5.9795C2.8937 5.9795 2.0137 5.0895 2.0137 3.9895C2.0137 2.8895 2.8937 1.9995 3.9937 1.9995C5.1037 1.9995 5.9837 2.8895 5.9837 3.9895C5.9837 5.0895 5.1037 5.9795 3.9937 5.9795ZM14.0537 5.9795C12.9637 5.9795 12.0537 5.0895 12.0537 3.9895C12.0537 2.8895 12.9637 1.9995 14.0537 1.9995C15.1637 1.9995 16.0537 2.8895 16.0537 3.9895C16.0537 5.0895 15.1637 5.9795 14.0537 5.9795ZM24.1137 5.9795C23.0137 5.9795 22.1237 5.0895 22.1237 3.9895C22.1237 2.8895 23.0137 1.9995 24.1137 1.9995C25.2137 1.9995 26.1137 2.8895 26.1137 3.9895C26.1137 5.0895 25.2137 5.9795 24.1137 5.9795ZM3.9737 17.3895C6.1837 17.3895 7.9737 15.6095 7.9737 13.4095C7.9737 11.2095 6.1837 9.4295 3.9737 9.4295C1.7737 9.4295 0.0037 11.2095 0.0037 13.4095C0.0037 15.6095 1.7737 17.3895 3.9737 17.3895ZM14.0437 17.3895C16.2437 17.3895 18.0237 15.6095 18.0237 13.4095C18.0237 11.2095 16.2437 9.4295 14.0437 9.4295C11.8437 9.4295 10.0637 11.2095 10.0637 13.4095C10.0637 15.6095 11.8437 17.3895 14.0437 17.3895ZM24.1037 17.3895C26.3037 17.3895 28.0837 15.6095 28.0837 13.4095C28.0837 11.2095 26.3037 9.4295 24.1037 9.4295C21.9037 9.4295 20.1237 11.2095 20.1237 13.4095C20.1237 15.6095 21.9037 17.3895 24.1037 17.3895ZM3.9737 15.4095C2.8837 15.4095 1.9937 14.5095 1.9937 13.4095C1.9937 12.3095 2.8837 11.4195 3.9737 11.4195C5.0837 11.4195 5.9737 12.3095 5.9737 13.4095C5.9737 14.5095 5.0837 15.4095 3.9737 15.4095ZM14.0437 15.4095C12.9437 15.4095 12.0437 14.5095 12.0437 13.4095C12.0437 12.3095 12.9437 11.4195 14.0437 11.4195C15.1437 11.4195 16.0337 12.3095 16.0337 13.4095C16.0337 14.5095 15.1437 15.4095 14.0437 15.4095ZM24.1037 15.4095C22.9937 15.4095 22.1037 14.5095 22.1037 13.4095C22.1037 12.3095 22.9937 11.4195 24.1037 11.4195C25.1937 11.4195 26.1037 12.3095 26.1037 13.4095C26.1037 14.5095 25.1937 15.4095 24.1037 15.4095ZM3.9737 26.8095C6.1837 26.8095 7.9737 25.0295 7.9737 22.8295C7.9737 20.6295 6.1837 18.8495 3.9737 18.8495C1.7737 18.8495 0.0037 20.6295 0.0037 22.8295C0.0037 25.0295 1.7737 26.8095 3.9737 26.8095ZM14.0437 26.8095C16.2437 26.8095 18.0237 25.0295 18.0237 22.8295C18.0237 20.6295 16.2437 18.8495 14.0437 18.8495C11.8437 18.8495 10.0637 20.6295 10.0637 22.8295C10.0637 25.0295 11.8437 26.8095 14.0437 26.8095ZM24.1037 26.8095C26.3037 26.8095 28.0837 25.0295 28.0837 22.8295C28.0837 20.6295 26.3037 18.8495 24.1037 18.8495C21.9037 18.8495 20.1237 20.6295 20.1237 22.8295C20.1237 25.0295 21.9037 26.8095 24.1037 26.8095ZM3.9737 24.8295C2.8837 24.8295 1.9937 23.9395 1.9937 22.8295C1.9937 21.7395 2.8837 20.8395 3.9737 20.8395C5.0837 20.8395 5.9737 21.7395 5.9737 22.8295C5.9737 23.9395 5.0837 24.8295 3.9737 24.8295ZM14.0437 24.8295C12.9437 24.8295 12.0437 23.9395 12.0437 22.8295C12.0437 21.7395 12.9437 20.8395 14.0437 20.8395C15.1437 20.8395 16.0337 21.7395 16.0337 22.8295C16.0337 23.9395 15.1437 24.8295 14.0437 24.8295ZM24.1037 24.8295C22.9937 24.8295 22.1037 23.9395 22.1037 22.8295C22.1037 21.7395 22.9937 20.8395 24.1037 20.8395C25.1937 20.8395 26.1037 21.7395 26.1037 22.8295C26.1037 23.9395 25.1937 24.8295 24.1037 24.8295Z" /></svg>