<svg viewBox="0 0 27.890625 27.890625" xmlns="http://www.w3.org/2000/svg"><path d="M13.9427 27.8864C21.6427 27.8864 27.8927 21.6464 27.8927 13.9464C27.8927 6.2464 21.6427 -0.0036 13.9427 -0.0036C6.2527 -0.0036 0.0027 6.2464 0.0027 13.9464C0.0027 21.6464 6.2527 27.8864 13.9427 27.8864ZM7.5327 4.2564C8.4527 3.6364 9.4627 3.1564 10.5227 2.8264H13.9627V4.2564ZM4.4827 7.1764C4.8527 6.6764 5.2527 6.2064 5.6827 5.7664H13.9627V7.1764ZM2.9627 10.1164C3.1427 9.6264 3.3327 9.1464 3.5727 8.6964H13.9627V10.1164ZM2.3527 13.0464C2.3927 12.5664 2.4627 12.0964 2.5527 11.6364H13.9627V13.0464ZM2.5027 15.9864C2.4227 15.5164 2.3627 15.0564 2.3427 14.5564H13.9627V15.9864ZM3.4327 18.9264C3.2127 18.4564 3.0327 17.9964 2.8727 17.4964H13.9627V18.9264ZM5.4327 21.8464C5.0127 21.4064 4.6327 20.9364 4.2927 20.4364H13.9627V21.8464ZM10.5227 25.0564C9.4627 24.7364 8.4527 24.2564 7.5327 23.6364H13.9627V25.0564Z" /></svg>