
<svg
    viewBox={0 0 32.23828125 25.169921875}
    xmlns="http://www.w3.org/2000/svg"
>
    <path
        fill="inherit"
        d="M0.0037 7.2055H2.2037V4.3455C2.2037 2.9255 2.9537 2.2055 4.3237 2.2055H7.1537V-0.0045H4.2937C1.4337 -0.0045 0.0037 1.4055 0.0037 4.2355ZM32.2337 7.2055V4.2355C32.2337 1.4055 30.8037 -0.0045 27.9437 -0.0045H25.0837V2.2055H27.9137C29.2837 2.2055 30.0337 2.9255 30.0337 4.3455V7.2055ZM9.0237 2.2055H15.1937V-0.0045H9.0237ZM17.0537 2.2055H23.2137V-0.0045H17.0537ZM16.0637 20.1955C20.2637 20.1955 23.6637 16.7855 23.6637 12.5755C23.6637 8.3855 20.2637 4.9755 16.0637 4.9755C11.8537 4.9755 8.4537 8.3855 8.4537 12.5755C8.4537 16.7855 11.8537 20.1955 16.0637 20.1955ZM16.0637 18.4255C12.8137 18.4255 10.2137 15.8355 10.2137 12.5755C10.2137 9.3255 12.8137 6.7355 16.0637 6.7355C19.3137 6.7355 21.9037 9.3255 21.9037 12.5755C21.9037 15.8355 19.3137 18.4255 16.0637 18.4255ZM0.0037 16.0955H2.2037V9.0755H0.0037ZM32.2337 16.0955V9.0755H30.0337V16.0955ZM4.2937 25.1655H7.1537V22.9655H4.3237C2.9537 22.9655 2.2037 22.2455 2.2037 20.8255V17.9655H0.0037V20.9355C0.0037 23.7655 1.4337 25.1655 4.2937 25.1655ZM27.9437 25.1655C30.8037 25.1655 32.2337 23.7655 32.2337 20.9355V17.9655H30.0337V20.8255C30.0337 22.2455 29.2837 22.9655 27.9137 22.9655H25.0837V25.1655ZM9.0237 25.1655H15.1937V22.9655H9.0237ZM17.0537 25.1655H23.2137V22.9655H17.0537Z"
        fillRule="evenodd"
        clipRule="evenodd"
    />
</svg>
        