<svg viewBox="0 0 27.890625 27.890625" xmlns="http://www.w3.org/2000/svg"><path d="M13.9427 27.8864C21.6427 27.8864 27.8927 21.6464 27.8927 13.9464C27.8927 6.2464 21.6427 -0.0036 13.9427 -0.0036C6.2527 -0.0036 0.0027 6.2464 0.0027 13.9464C0.0027 21.6464 6.2527 27.8864 13.9427 27.8864ZM13.9427 25.5664C7.5227 25.5664 2.3227 20.3664 2.3227 13.9464C2.3227 7.5164 7.5227 2.3264 13.9427 2.3264C20.3727 2.3264 25.5627 7.5164 25.5627 13.9464C25.5627 20.3664 20.3727 25.5664 13.9427 25.5664ZM6.7927 15.4264H13.9327C14.4627 15.4264 14.8927 15.0164 14.8927 14.4664V5.2464C14.8927 4.7164 14.4627 4.3064 13.9327 4.3064C13.4027 4.3064 12.9927 4.7164 12.9927 5.2464V13.5264H6.7927C6.2527 13.5264 5.8427 13.9364 5.8427 14.4664C5.8427 15.0164 6.2527 15.4264 6.7927 15.4264Z" /></svg>