
<svg
    viewBox="0 0 27.890625 27.890625"
    xmlns="http://www.w3.org/2000/svg"
>
    <path
        fill="inherit"
        d="M13.9427 27.8864C21.6427 27.8864 27.8927 21.6464 27.8927 13.9464C27.8927 6.2464 21.6427 -0.0036 13.9427 -0.0036C6.2527 -0.0036 0.0027 6.2464 0.0027 13.9464C0.0027 21.6464 6.2527 27.8864 13.9427 27.8864ZM13.9427 25.5664C7.5227 25.5664 2.3227 20.3664 2.3227 13.9464C2.3227 7.5164 7.5227 2.3264 13.9427 2.3264C20.3727 2.3264 25.5627 7.5164 25.5627 13.9464C25.5627 20.3664 20.3727 25.5664 13.9427 25.5664ZM13.9427 21.2864C17.9527 21.2864 21.2827 17.9464 21.2827 13.9464C21.2827 9.9364 17.9527 6.6064 13.9327 6.6064C9.9227 6.6064 6.6027 9.9364 6.6027 13.9464C6.6027 17.9464 9.9427 21.2864 13.9427 21.2864ZM10.2127 14.8764C9.8327 14.8764 9.5427 14.6064 9.5427 14.2164C9.5427 13.8364 9.8327 13.5664 10.2127 13.5664H13.2727V9.3964C13.2727 9.0264 13.5627 8.7364 13.9327 8.7364C14.3127 8.7364 14.6127 9.0264 14.6127 9.3964V14.2164C14.6127 14.5864 14.3027 14.8764 13.9327 14.8764Z"
        fillRule="evenodd"
        clipRule="evenodd"
    />
</svg>
        