<svg viewBox="0 0 27.890625 27.890625" xmlns="http://www.w3.org/2000/svg"><path d="M13.9427 27.8864C21.6427 27.8864 27.8927 21.6264 27.8927 13.9464C27.8927 6.2464 21.6427 -0.0036 13.9427 -0.0036C6.2627 -0.0036 0.0027 6.2464 0.0027 13.9464C0.0027 21.6264 6.2627 27.8864 13.9427 27.8864ZM6.7927 15.4264C6.2527 15.4264 5.8427 15.0164 5.8427 14.4664C5.8427 13.9364 6.2527 13.5264 6.7927 13.5264H12.9927V5.2464C12.9927 4.7164 13.4027 4.3064 13.9327 4.3064C14.4627 4.3064 14.8927 4.7164 14.8927 5.2464V14.4664C14.8927 15.0164 14.4627 15.4264 13.9327 15.4264Z" /></svg>