<svg viewBox="0 0 27.890625 27.890625" xmlns="http://www.w3.org/2000/svg"><path d="M13.9427 27.8864C21.6427 27.8864 27.8927 21.6264 27.8927 13.9464C27.8927 6.2464 21.6427 -0.0036 13.9427 -0.0036C6.2627 -0.0036 0.0027 6.2464 0.0027 13.9464C0.0027 21.6264 6.2627 27.8864 13.9427 27.8864ZM13.9427 21.5064C9.8127 21.5064 6.3727 18.0764 6.3727 13.9464C6.3727 9.8164 9.8027 6.3664 13.9327 6.3664C18.0727 6.3664 21.5227 9.8164 21.5227 13.9464C21.5227 18.0764 18.0727 21.5064 13.9427 21.5064ZM10.1027 14.9064H13.9327C14.3127 14.9064 14.6427 14.6164 14.6427 14.2364V9.2564C14.6427 8.8764 14.3327 8.5764 13.9327 8.5764C13.5527 8.5764 13.2527 8.8764 13.2527 9.2564V13.5464H10.1027C9.7027 13.5464 9.4027 13.8364 9.4027 14.2364C9.4027 14.6264 9.7027 14.9064 10.1027 14.9064Z" /></svg>