<svg viewBox="0 0 35.861328125 34.72414492560446" xmlns="http://www.w3.org/2000/svg"><path d="M29.0534 16.1236C33.3134 15.3736 35.8634 11.9136 35.8634 9.6536C35.8634 9.1336 35.6134 8.7336 35.1734 8.7336C34.5234 8.7336 33.5234 9.6136 31.6334 9.6136C28.2834 9.6136 26.1834 7.5936 26.1834 4.5436C26.1834 2.7236 27.1534 1.4136 27.1534 0.6836C27.1534 0.2636 26.8634 -0.0264 26.3134 0.0036C23.7934 0.0936 20.5734 2.9236 19.8634 6.5636C20.2934 6.9636 20.7034 7.4936 21.0234 8.2136C25.6334 8.5736 28.9734 12.0336 29.0534 16.1236ZM5.6734 23.0636H20.4634C24.3334 23.0636 27.3434 20.1236 27.3434 16.3436C27.3434 12.5836 24.2834 9.7336 20.1934 9.7136C18.5934 6.6436 15.7534 4.8836 12.4434 4.8836C7.9934 4.8836 4.2234 8.3236 3.8134 12.8236C1.4934 13.5236 0.0034 15.4936 0.0034 17.8936C0.0034 20.9636 2.3134 23.0636 5.6734 23.0636ZM17.0734 28.0536H14.3534L15.6134 25.6936C15.7734 25.3936 15.6534 25.1736 15.3534 25.1736H12.4934C12.1134 25.1736 11.9934 25.3036 11.8634 25.5836L10.1134 29.5636C9.9834 29.8836 10.1334 30.0936 10.4734 30.0936H12.7534L11.0034 34.3136C10.9234 34.5136 10.9634 34.6436 11.1034 34.7036C11.2234 34.7536 11.3734 34.7136 11.4934 34.5636L17.2834 28.7136C17.5634 28.4236 17.4734 28.0536 17.0734 28.0536Z" /></svg>