
<svg
    viewBox={0 0 27.890625 27.890625}
    xmlns="http://www.w3.org/2000/svg"
>
    <path
        fill="inherit"
        d="M13.9427 27.8864C21.6427 27.8864 27.8927 21.6464 27.8927 13.9464C27.8927 6.2464 21.6427 -0.0036 13.9427 -0.0036C6.2527 -0.0036 0.0027 6.2464 0.0027 13.9464C0.0027 21.6464 6.2527 27.8864 13.9427 27.8864ZM13.9427 25.5664C7.5227 25.5664 2.3227 20.3664 2.3227 13.9464C2.3227 7.5164 7.5227 2.3264 13.9427 2.3264C20.3727 2.3264 25.5627 7.5164 25.5627 13.9464C25.5627 20.3664 20.3727 25.5664 13.9427 25.5664ZM16.6527 7.4764C17.0127 7.4764 17.2827 7.2064 17.2827 6.8664V5.4864C17.2827 5.1564 17.0127 4.8664 16.6527 4.8664C16.3227 4.8664 16.0327 5.1564 16.0327 5.4864V6.8664C16.0327 7.2064 16.3227 7.4764 16.6527 7.4764ZM19.4727 8.6364C19.7027 8.8764 20.1227 8.8964 20.3727 8.6564L21.3327 7.6664C21.5627 7.4364 21.5427 7.0264 21.3327 6.8064C21.0827 6.5764 20.7027 6.5664 20.4527 6.8064L19.4727 7.7764C19.2227 8.0164 19.2527 8.4064 19.4727 8.6364ZM12.9727 8.6564C13.2227 8.8964 13.6327 8.8764 13.8627 8.6564C14.0827 8.4264 14.1127 8.0164 13.8627 7.7764L12.8827 6.8064C12.6327 6.5764 12.2527 6.5764 12.0027 6.8064C11.7727 7.0264 11.7727 7.4264 12.0027 7.6664ZM19.8627 11.4564C19.8627 9.6664 18.4427 8.2764 16.6527 8.2764C15.5727 8.2764 14.6027 8.8164 14.0427 9.6564C14.3327 9.9164 14.5627 10.1964 14.7827 10.5364C16.7527 10.7964 18.2527 12.2264 18.4527 14.1064C19.3327 13.4964 19.8627 12.5364 19.8627 11.4564ZM7.5027 17.7964H14.2827C16.1327 17.7964 17.5427 16.3964 17.5427 14.5864C17.5427 12.8264 16.1227 11.4664 14.2227 11.4264C13.4827 10.0664 12.1827 9.2164 10.6127 9.2164C8.5327 9.2164 6.7827 10.8264 6.5527 12.8964C5.5227 13.2364 4.8027 14.1464 4.8027 15.3164C4.8027 16.7364 5.8827 17.7964 7.5027 17.7964ZM21.2627 12.0764H22.6127C22.9727 12.0764 23.2427 11.7964 23.2427 11.4564C23.2427 11.1064 22.9727 10.8464 22.6127 10.8464H21.2627C20.9327 10.8464 20.6427 11.1064 20.6427 11.4564C20.6427 11.7964 20.9327 12.0764 21.2627 12.0764ZM20.4527 16.1364C20.7027 16.3764 21.0827 16.3564 21.3327 16.1164C21.5427 15.8764 21.5627 15.4664 21.3327 15.2464L20.3727 14.2864C20.1227 14.0564 19.7127 14.0564 19.4727 14.2864C19.2527 14.5164 19.2227 14.9264 19.4727 15.1664ZM8.0427 20.6964L8.8227 19.3564C8.9727 19.1164 8.8827 18.8264 8.6227 18.6764C8.3927 18.5364 8.0927 18.6364 7.9527 18.8664L7.1827 20.2064C7.0527 20.4264 7.1227 20.7564 7.3727 20.8664C7.6027 21.0164 7.9027 20.9364 8.0427 20.6964ZM12.4527 20.6964L13.2327 19.3564C13.3727 19.1264 13.2727 18.8264 13.0427 18.6864C12.7927 18.5364 12.4927 18.6164 12.3627 18.8564L11.5927 20.1964C11.4727 20.4264 11.5227 20.7364 11.7727 20.8764C12.0327 20.9964 12.3227 20.9164 12.4527 20.6964ZM9.7927 22.1464L10.5127 20.8764C10.6327 20.6564 10.5827 20.3464 10.3227 20.2064C10.0727 20.0664 9.7927 20.1564 9.6427 20.3964L8.9027 21.6564C8.7627 21.8864 8.8627 22.2064 9.1027 22.3264C9.3427 22.4764 9.6527 22.3764 9.7927 22.1464ZM14.1927 22.1464L14.9327 20.8864C15.0527 20.6564 14.9727 20.3264 14.7227 20.2064C14.4927 20.0864 14.2027 20.1564 14.0527 20.3964L13.3127 21.6564C13.1627 21.9064 13.2627 22.2064 13.5227 22.3364C13.7527 22.4764 14.0527 22.3764 14.1927 22.1464Z"
        fillRule="evenodd"
        clipRule="evenodd"
    />
</svg>
        