<svg viewBox="0 0 27.890625 27.890625" xmlns="http://www.w3.org/2000/svg"><path d="M13.9427 27.8927C21.6427 27.8927 27.8927 21.6427 27.8927 13.9427C27.8927 6.2627 21.6427 0.0027 13.9427 0.0027C6.2627 0.0027 0.0027 6.2627 0.0027 13.9427C0.0027 21.6427 6.2627 27.8927 13.9427 27.8927ZM9.4227 15.8327C7.4127 15.8327 6.2527 14.5327 6.2527 12.9427C6.2527 11.5227 7.1827 10.4627 8.3927 10.1027C8.6227 7.5927 10.7327 5.5927 13.2627 5.5927C15.2127 5.5927 16.7727 6.6827 17.6327 8.3527C19.9227 8.3527 21.6827 9.9127 21.6827 12.0727C21.6827 14.1627 20.0027 15.8327 17.8127 15.8327ZM15.8027 19.8427C15.6427 20.1527 15.2427 20.2627 14.9427 20.0827C14.6127 19.9027 14.5227 19.4927 14.7127 19.1927L15.7127 17.4727C15.8727 17.1627 16.2727 17.0627 16.5727 17.2227C16.9027 17.4227 16.9927 17.8127 16.8027 18.1127ZM9.8427 19.8527C9.6827 20.1627 9.2827 20.2727 8.9827 20.0927C8.6527 19.9227 8.5627 19.5127 8.7327 19.2127L9.7327 17.4827C9.9127 17.1727 10.3127 17.0727 10.6127 17.2427C10.9227 17.4327 11.0327 17.8327 10.8427 18.1327ZM12.1927 21.9527C12.0127 22.2427 11.6327 22.3627 11.3327 22.1927C11.0027 22.0127 10.9127 21.6127 11.0927 21.3027L12.1027 19.5827C12.2627 19.2727 12.6627 19.1527 12.9627 19.3327C13.2927 19.5127 13.3827 19.9027 13.1927 20.2227ZM18.1527 21.9527C17.9927 22.2427 17.5927 22.3627 17.2927 22.1927C16.9827 22.0127 16.8727 21.6127 17.0627 21.3027L18.0627 19.5827C18.2227 19.2727 18.6227 19.1527 18.9227 19.3327C19.2527 19.5127 19.3427 19.9027 19.1827 20.2227Z" /></svg>