<svg viewBox="0 0 27.890625 27.890625" xmlns="http://www.w3.org/2000/svg"><path d="M13.9427 27.8864C21.6427 27.8864 27.8927 21.6464 27.8927 13.9464C27.8927 6.2464 21.6427 -0.0036 13.9427 -0.0036C6.2527 -0.0036 0.0027 6.2464 0.0027 13.9464C0.0027 21.6464 6.2527 27.8864 13.9427 27.8864ZM13.9427 25.5664C7.5227 25.5664 2.3227 20.3664 2.3227 13.9464C2.3227 7.5164 7.5227 2.3264 13.9427 2.3264C20.3727 2.3264 25.5627 7.5164 25.5627 13.9464C25.5627 20.3664 20.3727 25.5664 13.9427 25.5664ZM9.5427 15.6364H17.6927C19.8127 15.6364 21.4327 13.9964 21.4327 11.9864C21.4327 9.8964 19.7327 8.3664 17.5127 8.3664C16.6827 6.7564 15.1627 5.6964 13.2727 5.6964C10.8127 5.6964 8.7727 7.6464 8.5427 10.0864C7.3727 10.4364 6.4627 11.4564 6.4627 12.8364C6.4627 14.3864 7.5927 15.6364 9.5427 15.6364ZM10.3227 19.2364L11.1327 17.8464C11.2927 17.5664 11.1927 17.1564 10.8927 16.9964C10.5927 16.8164 10.2127 16.9364 10.0527 17.2264L9.2427 18.6064C9.0827 18.8964 9.1727 19.3064 9.4727 19.4664C9.7727 19.6464 10.1627 19.5264 10.3227 19.2364ZM14.0727 19.2364L14.8727 17.8464C15.0427 17.5664 14.9527 17.1564 14.6427 16.9964C14.3527 16.8164 13.9627 16.9364 13.8127 17.2264L13.0027 18.6064C12.8427 18.8964 12.9227 19.3064 13.2327 19.4664C13.5227 19.6464 13.9227 19.5264 14.0727 19.2364ZM17.8127 19.2364L18.6227 17.8464C18.7827 17.5664 18.7027 17.1564 18.3927 16.9964C18.0927 16.8164 17.7027 16.9364 17.5427 17.2264L16.7327 18.6064C16.5727 18.8964 16.6627 19.3064 16.9627 19.4664C17.2627 19.6464 17.6527 19.5264 17.8127 19.2364ZM8.7127 21.9464C9.2027 21.9464 9.6127 21.5164 9.6127 21.0264C9.6127 20.5364 9.2027 20.1264 8.7127 20.1264C8.2027 20.1264 7.7927 20.5364 7.7927 21.0264C7.7927 21.5164 8.2027 21.9464 8.7127 21.9464ZM12.4527 21.9464C12.9627 21.9464 13.3727 21.5164 13.3727 21.0264C13.3727 20.5364 12.9627 20.1264 12.4527 20.1264C11.9627 20.1264 11.5527 20.5364 11.5527 21.0264C11.5527 21.5164 11.9627 21.9464 12.4527 21.9464ZM16.2027 21.9464C16.6927 21.9464 17.1127 21.5164 17.1127 21.0264C17.1127 20.5364 16.6927 20.1264 16.2027 20.1264C15.7127 20.1264 15.2827 20.5364 15.2827 21.0264C15.2827 21.5164 15.7127 21.9464 16.2027 21.9464Z" /></svg>