<svg viewBox="0 0 31.212890625 31.422024877012753" xmlns="http://www.w3.org/2000/svg"><path d="M6.4227 20.7154H23.3927C27.8727 20.7154 31.2127 17.3054 31.2127 13.0954C31.2127 8.7354 27.6627 5.5554 23.0227 5.5554C21.3127 2.1754 18.1427 -0.0046 14.1927 -0.0046C9.0527 -0.0046 4.8127 4.0354 4.3627 9.1054C1.8827 9.8254 0.0027 11.9754 0.0027 14.8654C0.0027 18.1054 2.3527 20.7154 6.4227 20.7154ZM3.9827 30.9954L8.0027 24.0354C8.2427 23.5954 8.1027 23.1354 7.6927 22.8954C7.2827 22.6554 6.8227 22.7754 6.5727 23.2154L2.5427 30.2054C2.3227 30.5854 2.4327 31.0654 2.8427 31.3054C3.2527 31.5454 3.7427 31.4054 3.9827 30.9954ZM9.4327 30.9954L13.4427 24.0354C13.6827 23.5954 13.5627 23.1354 13.1527 22.8954C12.7327 22.6554 12.2627 22.7754 12.0127 23.2154L8.0027 30.2054C7.7827 30.5854 7.8727 31.0654 8.3027 31.3054C8.7127 31.5454 9.2027 31.4054 9.4327 30.9954ZM14.8727 30.9954L18.8827 24.0354C19.1227 23.5954 19.0027 23.1354 18.5927 22.8954C18.1727 22.6554 17.7027 22.7754 17.4627 23.2154L13.4427 30.2054C13.2227 30.5854 13.3127 31.0654 13.7427 31.3054C14.1527 31.5454 14.6427 31.4054 14.8727 30.9954ZM20.2727 31.0054L24.3227 24.0054C24.5527 23.5954 24.4327 23.1054 24.0227 22.8954C23.6227 22.6854 23.1427 22.7754 22.9127 23.2054L18.8927 30.1754C18.6527 30.5854 18.7727 31.0654 19.1727 31.3054C19.5527 31.5454 20.0527 31.4054 20.2727 31.0054Z" /></svg>