
<svg
    viewBox="0 0 27.890625 27.890625"
    xmlns="http://www.w3.org/2000/svg"
>
    <path
        fill="inherit"
        d="M13.9427 27.8864C21.6427 27.8864 27.8927 21.6464 27.8927 13.9464C27.8927 6.2464 21.6427 -0.0036 13.9427 -0.0036C6.2527 -0.0036 0.0027 6.2464 0.0027 13.9464C0.0027 21.6464 6.2527 27.8864 13.9427 27.8864ZM13.9427 25.5664C7.5227 25.5664 2.3227 20.3664 2.3227 13.9464C2.3227 7.5164 7.5227 2.3264 13.9427 2.3264C20.3727 2.3264 25.5627 7.5164 25.5627 13.9464C25.5627 20.3664 20.3727 25.5664 13.9427 25.5664ZM22.5827 10.5364C22.5827 10.2964 22.4727 10.1264 22.2727 10.1264C21.9727 10.1264 21.4627 10.5164 20.5927 10.5164C18.9927 10.5164 17.9827 9.5864 17.9827 8.1064C17.9827 7.2564 18.4527 6.6464 18.4527 6.2864C18.4527 6.0964 18.2927 5.9564 18.0427 5.9764C16.7527 6.0264 15.1327 7.5564 14.9127 9.4464C15.0627 9.6064 15.1927 9.7864 15.3227 9.9664C17.3527 10.2164 18.8427 11.7164 19.0327 13.6564C21.2327 13.4264 22.5827 11.6864 22.5827 10.5364ZM8.0527 17.2364H14.8327C16.6827 17.2364 18.0927 15.8364 18.0927 14.0264C18.0927 12.2664 16.6627 10.9264 14.7827 10.8864C14.0427 9.5064 12.7327 8.6564 11.1527 8.6564C9.0827 8.6564 7.3327 10.2664 7.1127 12.3364C6.0727 12.6864 5.3427 13.5864 5.3427 14.7564C5.3427 16.1864 6.4427 17.2364 8.0527 17.2364ZM8.5827 20.1364L9.3627 18.7964C9.5127 18.5664 9.4327 18.2664 9.1727 18.1264C8.9427 17.9764 8.6427 18.0764 8.5127 18.3064L7.7427 19.6464C7.6027 19.8764 7.6727 20.1964 7.9127 20.3164C8.1527 20.4564 8.4627 20.3664 8.5827 20.1364ZM13.0027 20.1364L13.7827 18.8164C13.9327 18.5664 13.8327 18.2764 13.5927 18.1264C13.3427 17.9964 13.0427 18.0564 12.9027 18.2964L12.1427 19.6364C12.0127 19.8664 12.0727 20.1764 12.3327 20.3164C12.5827 20.4364 12.8627 20.3564 13.0027 20.1364ZM10.3327 21.5864L11.0627 20.3264C11.1927 20.0964 11.1327 19.7864 10.8727 19.6464C10.6227 19.5264 10.3327 19.5964 10.1827 19.8364L9.4427 21.0964C9.3127 21.3464 9.4027 21.6464 9.6627 21.7764C9.8827 21.9164 10.2027 21.8164 10.3327 21.5864ZM14.7427 21.6064L15.4727 20.3264C15.6027 20.0964 15.5327 19.7664 15.2827 19.6464C15.0427 19.5264 14.7527 19.6064 14.6027 19.8364L13.8627 21.0964C13.7227 21.3464 13.8227 21.6464 14.0727 21.7764C14.3027 21.9164 14.6027 21.8164 14.7427 21.6064Z"
        fillRule="evenodd"
        clipRule="evenodd"
    />
</svg>
        