
<svg
    viewBox={0 0 27.890625 27.890625}
    xmlns="http://www.w3.org/2000/svg"
>
    <path
        fill="inherit"
        d="M13.9427 27.8864C21.6427 27.8864 27.8927 21.6464 27.8927 13.9464C27.8927 6.2464 21.6427 -0.0036 13.9427 -0.0036C6.2527 -0.0036 0.0027 6.2464 0.0027 13.9464C0.0027 21.6464 6.2527 27.8864 13.9427 27.8864ZM13.9427 25.5664C7.5227 25.5664 2.3227 20.3664 2.3227 13.9464C2.3227 7.5164 7.5227 2.3264 13.9427 2.3264C20.3727 2.3264 25.5627 7.5164 25.5627 13.9464C25.5627 20.3664 20.3727 25.5664 13.9427 25.5664ZM9.6527 15.6864H17.7827C19.9227 15.6864 21.5327 14.0564 21.5327 12.0264C21.5327 9.9364 19.8227 8.4264 17.6127 8.4264C16.7927 6.8064 15.2727 5.7464 13.3827 5.7464C10.9127 5.7464 8.8827 7.6864 8.6527 10.1264C7.4827 10.4764 6.5627 11.4964 6.5627 12.8764C6.5627 14.4264 7.6927 15.6864 9.6527 15.6864ZM9.1727 18.5564H18.7127C19.0627 18.5564 19.3427 18.2764 19.3427 17.9264C19.3427 17.5864 19.0627 17.3064 18.7127 17.3064H9.1727C8.8327 17.3064 8.5627 17.5864 8.5627 17.9264C8.5627 18.2764 8.8327 18.5564 9.1727 18.5564ZM9.1727 21.3264H18.7127C19.0627 21.3264 19.3427 21.0564 19.3427 20.7164C19.3427 20.3664 19.0627 20.0964 18.7127 20.0964H9.1727C8.8327 20.0964 8.5627 20.3664 8.5627 20.7164C8.5627 21.0564 8.8327 21.3264 9.1727 21.3264Z"
        fillRule="evenodd"
        clipRule="evenodd"
    />
</svg>
        