<svg viewBox="0 0 39.62109375 27.53515625" xmlns="http://www.w3.org/2000/svg"><path d="M25.4718 5.2366C26.1018 5.2366 26.6018 4.7066 26.6018 4.0966V1.1366C26.6018 0.5166 26.1018 -0.0034 25.4718 -0.0034C24.8418 -0.0034 24.3318 0.5166 24.3318 1.1366V4.0966C24.3318 4.7066 24.8418 5.2366 25.4718 5.2366ZM17.5418 7.8566C17.9918 8.3166 18.7318 8.2966 19.1518 7.8566C19.5818 7.4266 19.5918 6.7166 19.1518 6.2766L17.0518 4.1666C16.6118 3.7366 15.9018 3.7366 15.4618 4.1666C15.0218 4.6066 15.0118 5.3366 15.4618 5.7666ZM31.7918 7.8566C32.2118 8.2966 32.9518 8.3166 33.4018 7.8566L35.4918 5.7666C35.9318 5.3366 35.9318 4.6066 35.4918 4.1666C35.0518 3.7366 34.3418 3.7366 33.9018 4.1666L31.7918 6.2766C31.3518 6.7166 31.3618 7.4266 31.7918 7.8566ZM28.9818 20.0466C30.9918 18.6766 32.2218 16.5966 32.2218 14.1766C32.2218 10.4166 29.2318 7.3966 25.4718 7.3966C22.9918 7.3966 20.8518 8.7366 19.7118 10.7066C20.2918 11.3066 20.7818 11.9466 21.1918 12.7466C25.7018 13.0966 28.6118 15.9166 28.9818 20.0466ZM5.7018 27.5366H20.4918C24.3918 27.5366 27.4118 24.5866 27.4118 20.7766C27.4118 17.0066 24.3318 14.1466 20.2518 14.1266C18.6718 11.1266 15.8418 9.2966 12.4718 9.2966C8.0118 9.2966 4.2418 12.7566 3.8118 17.2566C1.5418 17.9366 0.0018 19.8766 0.0018 22.3366C0.0018 25.3766 2.2818 27.5366 5.7018 27.5366ZM35.5318 15.3166H38.5018C39.1118 15.3166 39.6218 14.8066 39.6218 14.1766C39.6218 13.5666 39.1118 13.0466 38.5018 13.0466H35.5318C34.9318 13.0466 34.4018 13.5666 34.4018 14.1766C34.4018 14.8066 34.9318 15.3166 35.5318 15.3166ZM33.9018 24.2166C34.3418 24.6466 35.0518 24.6366 35.4918 24.1966C35.9318 23.7666 35.9318 23.0366 35.4918 22.6166L33.3718 20.5166C32.9318 20.0966 32.2218 20.0866 31.7918 20.5166C31.3518 20.9566 31.3518 21.6866 31.7918 22.1166Z" /></svg>