
<svg
    viewBox={0 0 27.890625 27.890625}
    xmlns="http://www.w3.org/2000/svg"
>
    <path
        fill="inherit"
        d="M13.9427 27.8927C21.6427 27.8927 27.8927 21.6427 27.8927 13.9427C27.8927 6.2627 21.6427 0.0027 13.9427 0.0027C6.2627 0.0027 0.0027 6.2627 0.0027 13.9427C0.0027 21.6427 6.2627 27.8927 13.9427 27.8927ZM17.0727 8.6527C16.7027 8.6527 16.3927 8.3427 16.3927 7.9827V6.4827C16.3927 6.0927 16.7027 5.8127 17.0727 5.8127C17.4627 5.8127 17.7627 6.0927 17.7627 6.4827V7.9827C17.7627 8.3427 17.4627 8.6527 17.0727 8.6527ZM20.1427 9.9227C19.8927 9.6627 19.8827 9.2327 20.1427 8.9827L21.1927 7.9127C21.4627 7.6527 21.9027 7.6727 22.1627 7.9127C22.4127 8.1727 22.4127 8.6027 22.1627 8.8727L21.1127 9.9427C20.8627 10.2027 20.4027 10.1727 20.1427 9.9227ZM13.0527 9.9427L12.0027 8.8727C11.7727 8.6027 11.7727 8.1627 12.0027 7.9127C12.2627 7.6727 12.6827 7.6727 12.9627 7.9127L14.0427 8.9827C14.2727 9.2327 14.2627 9.6627 14.0427 9.9227C13.7627 10.1727 13.3127 10.2027 13.0527 9.9427ZM20.5627 12.9927C20.5627 14.1527 19.9927 15.2027 19.0327 15.8627C18.8127 13.8127 17.1727 12.2527 15.0227 11.9727C14.7927 11.6027 14.5327 11.2927 14.2227 11.0227C14.8327 10.1027 15.8827 9.5127 17.0727 9.5127C19.0027 9.5127 20.5627 11.0327 20.5627 12.9927ZM7.1127 19.8827C5.3427 19.8827 4.1427 18.7327 4.1427 17.1727C4.1427 15.9227 4.9527 14.9127 6.0727 14.5427C6.3127 12.3027 8.2127 10.5427 10.4827 10.5427C12.2127 10.5427 13.6127 11.4727 14.4127 12.9627C16.4927 13.0027 18.0227 14.4627 18.0227 16.3927C18.0227 18.3627 16.5027 19.8827 14.4927 19.8827ZM22.0927 13.6627C21.7127 13.6627 21.4127 13.3527 21.4127 12.9927C21.4127 12.6027 21.7127 12.3227 22.0927 12.3227H23.5527C23.9427 12.3227 24.2427 12.6027 24.2427 12.9927C24.2427 13.3527 23.9427 13.6627 23.5527 13.6627ZM21.1927 18.0727L20.1427 17.0227C19.8827 16.7527 19.8927 16.3227 20.1427 16.0627C20.4127 15.8027 20.8527 15.8027 21.1127 16.0627L22.1627 17.1027C22.4227 17.3527 22.4127 17.8027 22.1627 18.0627C21.9027 18.3227 21.4627 18.3427 21.1927 18.0727Z"
        fillRule="evenodd"
        clipRule="evenodd"
    />
</svg>
        