<svg viewBox="0 0 31.212890625 30.255859375" xmlns="http://www.w3.org/2000/svg"><path d="M6.4227 20.7154H23.3927C27.8727 20.7154 31.2127 17.3054 31.2127 13.0954C31.2127 8.7354 27.6627 5.5554 23.0227 5.5554C21.3127 2.1754 18.1427 -0.0046 14.1927 -0.0046C9.0527 -0.0046 4.8127 4.0354 4.3627 9.1054C1.8827 9.8254 0.0027 11.9754 0.0027 14.8654C0.0027 18.1054 2.3527 20.7154 6.4227 20.7154ZM24.6327 23.8854H6.8527C6.3727 23.8854 5.9927 24.2554 5.9927 24.7454C5.9927 25.2354 6.3727 25.6054 6.8527 25.6054H24.6327C25.1127 25.6054 25.5027 25.2354 25.5027 24.7454C25.5027 24.2554 25.1127 23.8854 24.6327 23.8854ZM24.6327 28.5154H6.8527C6.3727 28.5154 5.9927 28.8854 5.9927 29.3854C5.9927 29.8754 6.3727 30.2554 6.8527 30.2554H24.6327C25.1127 30.2554 25.5027 29.8754 25.5027 29.3854C25.5027 28.8854 25.1127 28.5154 24.6327 28.5154Z" /></svg>