<svg viewBox="0 0 27.890625 27.890625" xmlns="http://www.w3.org/2000/svg"><path d="M13.9427 27.8864C21.6427 27.8864 27.8927 21.6464 27.8927 13.9464C27.8927 6.2464 21.6427 -0.0036 13.9427 -0.0036C6.2527 -0.0036 0.0027 6.2464 0.0027 13.9464C0.0027 21.6464 6.2527 27.8864 13.9427 27.8864ZM13.9427 25.5664C7.5227 25.5664 2.3227 20.3664 2.3227 13.9464C2.3227 7.5164 7.5227 2.3264 13.9427 2.3264C20.3727 2.3264 25.5627 7.5164 25.5627 13.9464C25.5627 20.3664 20.3727 25.5664 13.9427 25.5664ZM9.5427 15.7764H17.6927C19.8127 15.7764 21.4327 14.1364 21.4327 12.1264C21.4327 10.0364 19.7327 8.5064 17.5127 8.5064C16.6827 6.8864 15.1627 5.8364 13.2727 5.8364C10.8127 5.8364 8.7727 7.7764 8.5427 10.2264C7.3727 10.5664 6.4627 11.5964 6.4627 12.9764C6.4627 14.5164 7.5927 15.7764 9.5427 15.7764ZM11.3027 21.7664L13.5127 17.9764C13.6727 17.6764 13.5727 17.2964 13.2627 17.1264C12.9727 16.9564 12.6027 17.0464 12.4327 17.3664L10.2227 21.1464C10.0627 21.4364 10.1627 21.8364 10.4727 21.9964C10.7627 22.1764 11.1327 22.0664 11.3027 21.7664ZM17.5927 21.7664L19.7927 17.9764C19.9727 17.6764 19.8627 17.2964 19.5627 17.1264C19.2627 16.9564 18.8927 17.0464 18.7127 17.3664L16.5327 21.1464C16.3527 21.4364 16.4427 21.8364 16.7627 21.9964C17.0527 22.1764 17.4327 22.0664 17.5927 21.7664ZM9.3827 19.6564L10.3527 17.9764C10.5127 17.6864 10.4227 17.2964 10.1127 17.1264C9.8127 16.9564 9.4427 17.0664 9.2727 17.3664L8.3027 19.0264C8.1227 19.3364 8.2127 19.7264 8.5327 19.8964C8.8327 20.0664 9.2027 19.9564 9.3827 19.6564ZM15.6727 19.6564L16.6427 17.9764C16.8127 17.6864 16.7227 17.2964 16.4027 17.1264C16.1227 16.9564 15.7327 17.0664 15.5727 17.3664L14.5927 19.0264C14.4227 19.3364 14.5227 19.7264 14.8327 19.8964C15.1227 20.0664 15.4927 19.9564 15.6727 19.6564Z" /></svg>