<svg viewBox="0 0 35.93253314782709 35.13149818602166" xmlns="http://www.w3.org/2000/svg"><path d="M5.8012 23.6399H20.5912C24.5412 23.6399 27.6212 20.6599 27.6212 16.7999C27.6212 16.7599 27.6212 16.7199 27.6012 16.6799C32.0212 16.5299 34.7712 14.0399 35.7812 11.3999C36.2312 10.3099 35.6412 9.3099 34.5812 9.3099C33.7512 9.3099 33.0812 9.6699 31.6412 9.6699C28.1512 9.6699 26.3012 7.7199 26.3012 4.5699C26.3012 3.0099 26.7812 2.1699 26.7812 1.4099C26.7812 0.2699 25.8112 -0.2701 24.6112 0.1399C21.7112 1.0899 19.2512 4.1799 19.2512 7.9599C19.2512 8.0799 19.2612 8.1999 19.2612 8.3299C17.6112 6.3399 15.2612 5.1899 12.5812 5.1899C8.0512 5.1899 4.2612 8.6899 3.8112 13.1799C1.5412 13.8899 0.0012 15.8599 0.0012 18.3499C0.0012 21.4399 2.3212 23.6399 5.8012 23.6399ZM21.2612 7.9199C21.2612 5.2799 22.8312 3.2099 24.6212 2.2299L24.7712 2.3399C24.5412 2.9899 24.3312 3.9099 24.3312 4.9799C24.3312 8.8999 27.2112 11.6099 31.1712 11.6099C32.1412 11.6099 33.0412 11.4299 33.6712 11.2199L33.7712 11.3199C32.9212 12.9299 30.7512 14.6799 27.2712 14.6999C26.4812 12.2899 24.3512 10.5499 21.6012 10.1299C21.3712 9.4299 21.2612 8.6799 21.2612 7.9199ZM5.7412 21.4499C3.4212 21.4499 2.1912 20.1099 2.1912 18.3999C2.1912 16.9699 3.0312 15.6799 5.0412 15.1499C5.7012 14.9699 5.9512 14.6699 6.0012 13.9899C6.3212 10.1399 9.1612 7.3799 12.5812 7.3799C15.2312 7.3799 17.2912 8.8399 18.5712 11.3999C18.8712 11.9899 19.1912 12.1799 19.8912 12.1799C23.4312 12.1799 25.4112 14.3099 25.4112 16.8599C25.4112 19.4099 23.3412 21.4499 20.6312 21.4499ZM17.1212 28.4799H14.4012L15.6512 26.0999C15.8012 25.7999 15.6812 25.5799 15.3812 25.5799H12.5212C12.1512 25.5799 12.0312 25.7299 11.9112 25.9899L10.1612 29.9699C10.0212 30.2999 10.1612 30.4999 10.5112 30.4999H12.8012L11.0512 34.7399C10.9612 34.9199 11.0012 35.0699 11.1312 35.1099C11.2512 35.1599 11.4012 35.1199 11.5412 34.9699L17.3212 29.1299C17.5912 28.8499 17.5012 28.4799 17.1212 28.4799Z" /></svg>