
<svg
    viewBox="0 0 27.890625 27.890625"
    xmlns="http://www.w3.org/2000/svg"
>
    <path
        fill="inherit"
        d="M13.9427 27.8864C21.6427 27.8864 27.8927 21.6464 27.8927 13.9464C27.8927 6.2464 21.6427 -0.0036 13.9427 -0.0036C6.2527 -0.0036 0.0027 6.2464 0.0027 13.9464C0.0027 21.6464 6.2527 27.8864 13.9427 27.8864ZM13.9427 25.5664C7.5227 25.5664 2.3227 20.3664 2.3227 13.9464C2.3227 7.5164 7.5227 2.3264 13.9427 2.3264C20.3727 2.3264 25.5627 7.5164 25.5627 13.9464C25.5627 20.3664 20.3727 25.5664 13.9427 25.5664ZM23.0627 12.5364C23.0627 12.2664 22.9527 12.0864 22.7327 12.0864C22.4127 12.0864 21.9027 12.5064 20.9727 12.5064C19.2927 12.5064 18.2227 11.5164 18.2227 9.9664C18.2227 9.0664 18.7127 8.4064 18.7127 8.0564C18.7127 7.8464 18.5527 7.7064 18.2927 7.7064C16.9427 7.7764 15.2327 9.3764 15.0127 11.3764C15.1627 11.5364 15.3027 11.7264 15.4327 11.9264C17.5527 12.1864 19.1427 13.7564 19.3227 15.7864C21.6527 15.5764 23.0627 13.7164 23.0627 12.5364ZM7.7627 19.5464H14.9427C16.8827 19.5464 18.3727 18.0864 18.3727 16.1764C18.3727 14.2964 16.8827 12.8964 14.8627 12.8364C14.0927 11.3864 12.7127 10.4964 11.0627 10.4964C8.8627 10.4964 7.0127 12.2064 6.7627 14.3664C5.6727 14.7364 4.9127 15.7064 4.9127 16.9264C4.9127 18.4464 6.0727 19.5464 7.7627 19.5464Z"
        fillRule="evenodd"
        clipRule="evenodd"
    />
</svg>
        