
<svg
    viewBox={0 0 31.212890625 31.422024877012753}
    xmlns="http://www.w3.org/2000/svg"
>
    <path
        fill="inherit"
        d="M6.4227 20.7154H23.3927C27.8727 20.7154 31.2127 17.3054 31.2127 13.0954C31.2127 8.7354 27.6627 5.5554 23.0227 5.5554C21.3127 2.1754 18.1427 -0.0046 14.1927 -0.0046C9.0527 -0.0046 4.8127 4.0354 4.3627 9.1054C1.8827 9.8254 0.0027 11.9754 0.0027 14.8654C0.0027 18.1054 2.3527 20.7154 6.4227 20.7154ZM6.4027 18.5254C3.5927 18.5254 2.1827 16.9554 2.1827 14.9254C2.1827 13.2854 3.1427 11.8154 5.4727 11.1954C6.2227 10.9954 6.4927 10.6354 6.5627 9.8754C6.8727 5.3954 10.2227 2.1854 14.1927 2.1854C17.2627 2.1854 19.6827 3.8854 21.1627 6.9054C21.4827 7.5754 21.8927 7.8054 22.6927 7.8054C26.7427 7.8054 29.0227 10.2354 29.0227 13.1554C29.0227 16.1354 26.6427 18.5254 23.5327 18.5254ZM17.6627 27.0954L19.4427 24.0054C19.6827 23.5954 19.5527 23.1154 19.1427 22.8754C18.7327 22.6454 18.2627 22.7654 18.0227 23.1854L16.2327 26.3054C15.9927 26.6854 16.1027 27.1654 16.5327 27.4154C16.9427 27.6454 17.4327 27.4954 17.6627 27.0954ZM20.8327 30.9954L24.8827 23.9954C25.1127 23.5854 24.9927 23.1154 24.5927 22.8854C24.2127 22.6454 23.7227 22.7654 23.4727 23.1854L19.4527 30.1554C19.2227 30.5654 19.3427 31.0454 19.7427 31.2954C20.1427 31.5254 20.6027 31.4054 20.8327 30.9954ZM6.7827 27.1154L8.5627 24.0254C8.8227 23.6154 8.6827 23.1354 8.2727 22.8854C7.8627 22.6554 7.3927 22.7754 7.1327 23.2054L5.3427 26.3154C5.1127 26.7054 5.2327 27.1754 5.6627 27.4254C6.0527 27.6554 6.5527 27.5054 6.7827 27.1154ZM9.9627 31.0054L14.0027 24.0054C14.2327 23.5954 14.1227 23.1354 13.7227 22.8954C13.3327 22.6554 12.8227 22.7754 12.5927 23.2054L8.5827 30.1754C8.3527 30.5854 8.4627 31.0654 8.8727 31.3054C9.2727 31.5454 9.7327 31.4054 9.9627 31.0054Z"
        fillRule="evenodd"
        clipRule="evenodd"
    />
</svg>
        