<svg viewBox="0 0 27.890625 27.890625" xmlns="http://www.w3.org/2000/svg"><path d="M13.9427 27.8864C21.6427 27.8864 27.8927 21.6464 27.8927 13.9464C27.8927 6.2464 21.6427 -0.0036 13.9427 -0.0036C6.2527 -0.0036 0.0027 6.2464 0.0027 13.9464C0.0027 21.6464 6.2527 27.8864 13.9427 27.8864ZM13.9427 25.5664C7.5227 25.5664 2.3227 20.3664 2.3227 13.9464C2.3227 7.5164 7.5227 2.3264 13.9427 2.3264C20.3727 2.3264 25.5627 7.5164 25.5627 13.9464C25.5627 20.3664 20.3727 25.5664 13.9427 25.5664ZM8.9827 18.9664H18.1527C20.5227 18.9664 22.3627 17.1864 22.3627 14.8864C22.3627 12.5464 20.4627 10.8164 17.9227 10.8464C17.0127 8.9664 15.2827 7.8464 13.1927 7.8464C10.4327 7.8464 8.1327 9.9964 7.9027 12.7564C6.4927 13.1564 5.5227 14.3564 5.5227 15.8364C5.5227 17.6664 6.9027 18.9664 8.9827 18.9664Z" /></svg>