
<svg
    viewBox={0 0 27.890625 27.890625}
    xmlns="http://www.w3.org/2000/svg"
>
    <path
        fill="inherit"
        d="M13.9427 27.8927C21.6427 27.8927 27.8927 21.6427 27.8927 13.9427C27.8927 6.2627 21.6427 0.0027 13.9427 0.0027C6.2627 0.0027 0.0027 6.2627 0.0027 13.9427C0.0027 21.6427 6.2627 27.8927 13.9427 27.8927ZM22.8427 10.4327C22.8427 11.6027 21.4527 13.4127 19.1827 13.6327C18.9927 11.6327 17.4627 10.0927 15.3627 9.8327C15.2327 9.6527 15.0927 9.4627 14.9427 9.2827C15.1727 7.3427 16.8427 5.7827 18.1727 5.7127C18.4327 5.7127 18.5927 5.8427 18.5927 6.0527C18.5927 6.4027 18.1027 7.0427 18.1027 7.9127C18.1027 9.4327 19.1427 10.4027 20.7927 10.4027C21.6927 10.4027 22.2127 9.9927 22.5327 9.9927C22.7327 9.9927 22.8427 10.1627 22.8427 10.4327ZM7.8727 17.3227C6.2027 17.3227 5.0827 16.2427 5.0827 14.7627C5.0827 13.5627 5.8227 12.6327 6.8927 12.2627C7.1227 10.1627 8.9327 8.4727 11.0727 8.4727C12.6827 8.4727 14.0427 9.3627 14.8027 10.7727C16.7527 10.8127 18.2127 12.2127 18.2127 14.0227C18.2127 15.8827 16.7627 17.3227 14.8627 17.3227ZM9.6627 20.4527L10.5927 18.2927C10.6627 18.1427 10.7627 18.0927 10.9627 18.0927H12.4927C12.6727 18.0927 12.7327 18.2127 12.6427 18.3927L11.9727 19.6627H13.4027C13.6127 19.6627 13.6827 19.8627 13.5327 20.0327L10.4227 23.2027C10.2527 23.3427 10.0527 23.2327 10.1127 23.0527L11.0627 20.7627H9.8427C9.6627 20.7627 9.5827 20.6327 9.6627 20.4527Z"
        fillRule="evenodd"
        clipRule="evenodd"
    />
</svg>
        