
<svg
    viewBox="0 0 35.751953125 23.11960865575768"
    xmlns="http://www.w3.org/2000/svg"
>
    <path
        fill="inherit"
        d="M28.9391 16.1345C33.2091 15.3845 35.7491 11.9045 35.7491 9.6645C35.7491 9.1345 35.5191 8.7545 35.0791 8.7545C34.4091 8.7545 33.4091 9.6245 31.5291 9.6245C28.1891 9.6245 26.0891 7.6045 26.0891 4.5545C26.0891 2.7345 27.0391 1.4245 27.0391 0.6945C27.0391 0.2745 26.7591 -0.0155 26.2091 0.0045C23.6791 0.1145 20.4791 2.9445 19.7591 6.5745C20.1791 6.9745 20.5891 7.5045 20.9291 8.2145C25.5291 8.5745 28.8591 12.0445 28.9391 16.1345ZM5.6691 23.1245H20.4691C24.3491 23.1245 27.3591 20.1845 27.3591 16.3945C27.3591 12.6345 24.2991 9.7945 20.2091 9.7645C18.6091 6.7045 15.7491 4.9245 12.4591 4.9245C7.9991 4.9245 4.2391 8.3845 3.8191 12.8745C1.4891 13.5745 -0.0009 15.5445 -0.0009 17.9545C-0.0009 21.0145 2.3091 23.1245 5.6691 23.1245Z"
        fillRule="evenodd"
        clipRule="evenodd"
    />
</svg>
        