
<svg
    viewBox="0 0 27.890625 27.890625"
    xmlns="http://www.w3.org/2000/svg"
>
    <path
        fill="inherit"
        d="M13.9427 27.8864C21.6427 27.8864 27.8927 21.6464 27.8927 13.9464C27.8927 6.2464 21.6427 -0.0036 13.9427 -0.0036C6.2527 -0.0036 0.0027 6.2464 0.0027 13.9464C0.0027 21.6464 6.2527 27.8864 13.9427 27.8864ZM13.9427 25.5664C7.5227 25.5664 2.3227 20.3664 2.3227 13.9464C2.3227 7.5164 7.5227 2.3264 13.9427 2.3264C20.3727 2.3264 25.5627 7.5164 25.5627 13.9464C25.5627 20.3664 20.3727 25.5664 13.9427 25.5664ZM9.5427 15.7764H17.6927C19.8127 15.7764 21.4327 14.1364 21.4327 12.1264C21.4327 10.0364 19.7327 8.5064 17.5127 8.5064C16.6827 6.8864 15.1627 5.8364 13.2727 5.8364C10.8127 5.8364 8.7727 7.7764 8.5427 10.2264C7.3727 10.5664 6.4627 11.5964 6.4627 12.9764C6.4627 14.5164 7.5927 15.7764 9.5427 15.7764ZM15.7327 19.6564L16.7027 17.9764C16.8827 17.6864 16.7927 17.2964 16.4727 17.1264C16.1827 16.9564 15.8027 17.0664 15.6427 17.3664L14.6727 19.0264C14.4927 19.3364 14.5927 19.7264 14.9027 19.8964C15.1927 20.0664 15.5727 19.9564 15.7327 19.6564ZM9.9527 19.6764L10.9227 17.9964C11.1027 17.7064 11.0027 17.3064 10.6927 17.1464C10.4027 16.9664 10.0227 17.0764 9.8527 17.3764L8.8827 19.0464C8.7127 19.3464 8.8027 19.7464 9.1227 19.9064C9.4027 20.0864 9.7927 19.9764 9.9527 19.6764ZM12.2327 21.6964L13.2027 20.0264C13.3827 19.7264 13.2927 19.3464 12.9727 19.1664C12.6827 19.0064 12.3027 19.1164 12.1427 19.3964L11.1527 21.0864C10.9927 21.3864 11.0927 21.7664 11.4027 21.9464C11.6927 22.1064 12.0627 21.9964 12.2327 21.6964ZM18.0227 21.6964L19.0027 20.0264C19.1727 19.7264 19.0727 19.3464 18.7627 19.1664C18.4727 19.0064 18.0927 19.1164 17.9227 19.3964L16.9527 21.0864C16.7727 21.3864 16.8727 21.7664 17.1827 21.9464C17.4727 22.1064 17.8527 21.9964 18.0227 21.6964Z"
        fillRule="evenodd"
        clipRule="evenodd"
    />
</svg>
        