<svg viewBox="0 0 27.890625 27.890625" xmlns="http://www.w3.org/2000/svg"><path d="M13.9427 27.8927C21.6427 27.8927 27.8927 21.6427 27.8927 13.9427C27.8927 6.2627 21.6427 0.0027 13.9427 0.0027C6.2627 0.0027 0.0027 6.2627 0.0027 13.9427C0.0027 21.6427 6.2627 27.8927 13.9427 27.8927ZM22.8427 10.4427C22.8427 11.6227 21.4527 13.4227 19.1827 13.6427C18.9927 11.6527 17.4627 10.1127 15.3627 9.8427C15.2327 9.6627 15.0927 9.4727 14.9427 9.3127C15.1727 7.3527 16.8427 5.7927 18.1727 5.7327C18.4327 5.7327 18.5927 5.8527 18.5927 6.0727C18.5927 6.4227 18.1027 7.0527 18.1027 7.9327C18.1027 9.4427 19.1427 10.4227 20.7927 10.4227C21.6927 10.4227 22.2127 10.0127 22.5327 10.0127C22.7327 10.0127 22.8427 10.1827 22.8427 10.4427ZM7.8727 17.3527C6.2027 17.3527 5.0827 16.2527 5.0827 14.7827C5.0827 13.5727 5.8227 12.6427 6.8927 12.2727C7.1227 10.1727 8.9327 8.4927 11.0727 8.4927C12.6827 8.4927 14.0427 9.3827 14.8027 10.7827C16.7527 10.8327 18.2127 12.2227 18.2127 14.0427C18.2127 15.9027 16.7627 17.3527 14.8627 17.3527ZM8.4227 20.3427C8.3027 20.5627 7.9727 20.6627 7.7427 20.5127C7.4827 20.3827 7.4127 20.0527 7.5427 19.8227L8.3527 18.4427C8.4727 18.1927 8.8027 18.1127 9.0227 18.2527C9.2927 18.4127 9.3827 18.7027 9.2327 18.9627ZM12.9727 20.3327C12.8427 20.5627 12.5327 20.6627 12.2927 20.5127C12.0127 20.3827 11.9627 20.0427 12.0827 19.8127L12.8827 18.4327C13.0127 18.1927 13.3327 18.1127 13.5727 18.2527C13.8327 18.4127 13.9327 18.7027 13.7827 18.9627ZM10.2227 21.8327C10.0927 22.0627 9.7627 22.1627 9.5427 22.0227C9.2727 21.8927 9.1727 21.5727 9.3127 21.3127L10.0727 20.0127C10.2227 19.7827 10.5227 19.7027 10.7727 19.8227C11.0427 19.9627 11.1127 20.2927 10.9827 20.5327ZM14.7627 21.8327C14.6327 22.0827 14.3127 22.1627 14.0827 22.0227C13.8227 21.8927 13.7227 21.5727 13.8627 21.3127L14.6327 20.0327C14.7827 19.7827 15.0827 19.7027 15.3227 19.8227C15.5827 19.9627 15.6527 20.2927 15.5327 20.5327Z" /></svg>