<svg viewBox="0 0 27.890625 27.890625" xmlns="http://www.w3.org/2000/svg"><path d="M13.9427 27.8864C21.6427 27.8864 27.8927 21.6464 27.8927 13.9464C27.8927 6.2464 21.6427 -0.0036 13.9427 -0.0036C6.2527 -0.0036 0.0027 6.2464 0.0027 13.9464C0.0027 21.6464 6.2527 27.8864 13.9427 27.8864ZM13.9427 25.5664C7.5227 25.5664 2.3227 20.3664 2.3227 13.9464C2.3227 7.5164 7.5227 2.3264 13.9427 2.3264C20.3727 2.3264 25.5627 7.5164 25.5627 13.9464C25.5627 20.3664 20.3727 25.5664 13.9427 25.5664ZM9.6527 15.2964H17.8027C19.9227 15.2964 21.5427 13.6564 21.5427 11.6464C21.5427 9.5464 19.8427 8.0264 17.6227 8.0264C16.7927 6.4164 15.2727 5.3564 13.3827 5.3564C10.9227 5.3564 8.8827 7.2964 8.6527 9.7364C7.4827 10.0864 6.5727 11.1064 6.5727 12.4964C6.5727 14.0364 7.6927 15.2964 9.6527 15.2964ZM11.5427 21.1264L13.6327 17.4964C13.8227 17.1864 13.7127 16.8164 13.4027 16.6364C13.0927 16.4764 12.7427 16.5664 12.5627 16.8864L10.4627 20.4964C10.2827 20.7964 10.3727 21.1764 10.6927 21.3564C10.9927 21.5164 11.3627 21.4264 11.5427 21.1264ZM17.7427 21.1264L19.8527 17.4964C20.0427 17.1864 19.9327 16.8164 19.6227 16.6364C19.3227 16.4764 18.9627 16.5664 18.7727 16.8864L16.6827 20.4964C16.5027 20.7964 16.5927 21.1764 16.9127 21.3564C17.2127 21.5164 17.5827 21.4264 17.7427 21.1264ZM14.6427 21.1264L16.7327 17.4964C16.9227 17.1864 16.8127 16.8164 16.5027 16.6364C16.2027 16.4764 15.8427 16.5664 15.6527 16.8864L13.5627 20.4964C13.3827 20.7964 13.4827 21.1764 13.7927 21.3564C14.0927 21.5164 14.4627 21.4264 14.6427 21.1264ZM8.4227 21.1264L10.5127 17.4964C10.7027 17.1864 10.5927 16.8164 10.2827 16.6364C9.9927 16.4764 9.6227 16.5664 9.4427 16.8864L7.3427 20.4964C7.1627 20.7964 7.2627 21.1764 7.5727 21.3564C7.8727 21.5164 8.2427 21.4264 8.4227 21.1264Z" /></svg>