<svg viewBox="0 0 27.890625 27.890625" xmlns="http://www.w3.org/2000/svg"><path d="M13.9427 27.8927C21.6427 27.8927 27.8927 21.6427 27.8927 13.9427C27.8927 6.2627 21.6427 0.0027 13.9427 0.0027C6.2627 0.0027 0.0027 6.2627 0.0027 13.9427C0.0027 21.6427 6.2627 27.8927 13.9427 27.8927ZM9.5127 15.3527C7.5027 15.3527 6.3427 14.0727 6.3427 12.4727C6.3427 11.0427 7.2727 9.9827 8.4927 9.6427C8.7227 7.1127 10.8327 5.1127 13.3527 5.1127C15.3127 5.1127 16.8727 6.1927 17.7327 7.8627C20.0127 7.8627 21.7827 9.4327 21.7827 11.5927C21.7827 13.6727 20.0927 15.3527 17.9127 15.3527ZM11.4527 21.3527C11.2827 21.6727 10.8927 21.7927 10.5827 21.6027C10.2627 21.4327 10.1627 21.0227 10.3527 20.7227L12.5127 16.9927C12.7027 16.6627 13.0727 16.5727 13.3727 16.7527C13.7027 16.9227 13.8227 17.3227 13.6127 17.6327ZM17.8727 21.3527C17.7027 21.6727 17.3227 21.7927 17.0127 21.6027C16.6827 21.4327 16.5827 21.0227 16.7627 20.7227L18.9227 16.9927C19.1127 16.6627 19.4827 16.5727 19.7927 16.7527C20.1227 16.9227 20.2327 17.3227 20.0427 17.6327ZM14.6727 21.3527C14.4827 21.6727 14.0927 21.7927 13.7927 21.6027C13.4627 21.4327 13.3727 21.0227 13.5527 20.7227L15.7127 16.9927C15.9027 16.6627 16.2727 16.5727 16.5827 16.7527C16.9127 16.9227 17.0227 17.3227 16.8127 17.6327ZM8.2427 21.3527C8.0627 21.6727 7.6827 21.7927 7.3727 21.6027C7.0527 21.4327 6.9427 21.0227 7.1227 20.7227L9.2927 16.9927C9.4727 16.6627 9.8527 16.5727 10.1627 16.7527C10.4827 16.9227 10.5927 17.3227 10.4027 17.6327Z" /></svg>