<svg viewBox="0 0 31.212890625 30.255859375" xmlns="http://www.w3.org/2000/svg"><path d="M6.4227 20.7154H23.3927C27.8727 20.7154 31.2127 17.3054 31.2127 13.0954C31.2127 8.7354 27.6627 5.5554 23.0227 5.5554C21.3127 2.1754 18.1427 -0.0046 14.1927 -0.0046C9.0527 -0.0046 4.8127 4.0354 4.3627 9.1054C1.8827 9.8254 0.0027 11.9754 0.0027 14.8654C0.0027 18.1054 2.3527 20.7154 6.4227 20.7154ZM6.4027 18.5254C3.5927 18.5254 2.1827 16.9554 2.1827 14.9254C2.1827 13.2854 3.1427 11.8154 5.4727 11.1954C6.2227 10.9954 6.4927 10.6354 6.5627 9.8754C6.8727 5.3954 10.2227 2.1854 14.1927 2.1854C17.2627 2.1854 19.6827 3.8854 21.1627 6.9054C21.4827 7.5754 21.8927 7.8054 22.6927 7.8054C26.7427 7.8054 29.0227 10.2354 29.0227 13.1554C29.0227 16.1354 26.6427 18.5254 23.5327 18.5254ZM24.6327 23.8854H6.8527C6.3727 23.8854 5.9927 24.2554 5.9927 24.7454C5.9927 25.2354 6.3727 25.6054 6.8527 25.6054H24.6327C25.1127 25.6054 25.5027 25.2354 25.5027 24.7454C25.5027 24.2554 25.1127 23.8854 24.6327 23.8854ZM24.6327 28.5154H6.8527C6.3727 28.5154 5.9927 28.8854 5.9927 29.3854C5.9927 29.8754 6.3727 30.2554 6.8527 30.2554H24.6327C25.1127 30.2554 25.5027 29.8754 25.5027 29.3854C25.5027 28.8854 25.1127 28.5154 24.6327 28.5154Z" /></svg>