
<svg
    viewBox="0 0 27.890625 27.890625"
    xmlns="http://www.w3.org/2000/svg"
>
    <path
        fill="inherit"
        d="M13.9427 27.8927C21.6427 27.8927 27.8927 21.6427 27.8927 13.9427C27.8927 6.2627 21.6427 0.0027 13.9427 0.0027C6.2627 0.0027 0.0027 6.2627 0.0027 13.9427C0.0027 21.6427 6.2627 27.8927 13.9427 27.8927ZM9.4027 15.8327C7.3927 15.8327 6.2327 14.5327 6.2327 12.9427C6.2327 11.5227 7.1627 10.4627 8.3827 10.1027C8.6127 7.5927 10.7227 5.5827 13.2527 5.5827C15.2027 5.5827 16.7627 6.6827 17.6227 8.3427C19.9027 8.3427 21.6727 9.9127 21.6727 12.0727C21.6727 14.1527 19.9927 15.8327 17.8027 15.8327ZM11.2227 22.0127C11.0427 22.3127 10.6627 22.4327 10.3627 22.2627C10.0327 22.0827 9.9427 21.6827 10.1027 21.3727L12.3727 17.4727C12.5627 17.1427 12.9427 17.0627 13.2327 17.2227C13.5627 17.4227 13.6627 17.8027 13.4927 18.1127ZM17.7227 22.0127C17.5427 22.3127 17.1427 22.4327 16.8527 22.2627C16.5327 22.0827 16.4327 21.6827 16.6127 21.3727L18.8627 17.4727C19.0427 17.1427 19.4327 17.0627 19.7427 17.2227C20.0527 17.4227 20.1627 17.8027 19.9927 18.1127ZM9.2427 19.8427C9.0527 20.1527 8.6727 20.2627 8.3527 20.0727C8.0427 19.9027 7.9327 19.4927 8.1227 19.1927L9.1227 17.4727C9.2927 17.1627 9.6827 17.0627 9.9927 17.2227C10.3127 17.4227 10.4027 17.8127 10.2427 18.1127ZM15.7227 19.8427C15.5427 20.1527 15.1627 20.2627 14.8627 20.0727C14.5327 19.9027 14.4327 19.4927 14.6127 19.1927L15.6227 17.4727C15.7927 17.1627 16.1827 17.0627 16.4927 17.2227C16.8127 17.4227 16.9127 17.8127 16.7227 18.1127Z"
        fillRule="evenodd"
        clipRule="evenodd"
    />
</svg>
        