<svg viewBox="0 0 31.212890625 32.67578125" xmlns="http://www.w3.org/2000/svg"><path d="M6.4227 20.7154H23.3927C27.8727 20.7154 31.2127 17.3054 31.2127 13.0954C31.2127 8.7354 27.6627 5.5554 23.0227 5.5554C21.3127 2.1754 18.1427 -0.0046 14.1927 -0.0046C9.0527 -0.0046 4.8127 4.0354 4.3627 9.1054C1.8827 9.8254 0.0027 11.9754 0.0027 14.8654C0.0027 18.1054 2.3527 20.7154 6.4227 20.7154ZM7.2027 27.5354C7.4527 27.5354 7.6327 27.3054 7.6127 27.0554L7.5327 25.7454L8.6127 26.4854C8.8027 26.6154 9.1227 26.5654 9.2527 26.3554C9.3827 26.1554 9.3127 25.8354 9.0327 25.7154L7.8727 25.1454L9.0527 24.5554C9.3127 24.4354 9.3627 24.1454 9.2727 23.9254C9.1427 23.7054 8.8027 23.6654 8.6127 23.8054L7.5327 24.5554L7.6327 23.2454C7.6527 22.9854 7.4527 22.7654 7.2027 22.7654C6.9227 22.7654 6.7527 22.9854 6.7627 23.2454L6.8527 24.5554L5.7527 23.8054C5.5527 23.6654 5.2627 23.6954 5.1227 23.9254C5.0027 24.1454 5.0627 24.4354 5.3227 24.5554L6.4927 25.1454L5.3227 25.7154C5.0627 25.8354 4.9927 26.1454 5.1127 26.3554C5.2327 26.5754 5.5527 26.6154 5.7527 26.4954L6.8527 25.7554L6.7827 27.0554C6.7627 27.3054 6.9227 27.5354 7.2027 27.5354ZM14.7827 27.5354C15.0227 27.5354 15.2027 27.3054 15.1927 27.0554L15.1027 25.7454L16.1827 26.4854C16.3827 26.6154 16.6927 26.5654 16.8327 26.3554C16.9527 26.1554 16.8827 25.8354 16.6127 25.7154L15.4327 25.1454L16.6227 24.5554C16.8827 24.4354 16.9427 24.1454 16.8427 23.9254C16.7227 23.7054 16.3827 23.6654 16.1827 23.8054L15.1027 24.5554L15.2027 23.2454C15.2327 22.9854 15.0227 22.7654 14.7827 22.7654C14.4927 22.7654 14.3327 22.9854 14.3427 23.2454L14.4227 24.5554L13.3127 23.8054C13.1227 23.6654 12.8427 23.6954 12.7027 23.9254C12.5827 24.1454 12.6327 24.4354 12.8927 24.5554L14.0727 25.1454L12.8927 25.7154C12.6327 25.8354 12.5627 26.1454 12.6827 26.3554C12.8127 26.5754 13.1227 26.6154 13.3127 26.4954L14.4227 25.7554L14.3527 27.0554C14.3427 27.3054 14.4927 27.5354 14.7827 27.5354ZM22.3527 27.5354C22.6027 27.5354 22.7727 27.3054 22.7627 27.0554L22.6727 25.7454L23.7627 26.4854C23.9527 26.6154 24.2627 26.5654 24.4027 26.3554C24.5227 26.1554 24.4627 25.8354 24.1827 25.7154L23.0127 25.1454L24.2027 24.5554C24.4627 24.4354 24.5127 24.1454 24.4227 23.9254C24.2927 23.7054 23.9527 23.6654 23.7627 23.8054L22.6727 24.5554L22.7727 23.2454C22.8027 22.9854 22.6027 22.7654 22.3527 22.7654C22.0627 22.7654 21.9027 22.9854 21.9127 23.2454L22.0027 24.5554L20.8927 23.8054C20.7027 23.6654 20.4127 23.6954 20.2727 23.9254C20.1527 24.1454 20.2027 24.4354 20.4627 24.5554L21.6427 25.1454L20.4627 25.7154C20.2027 25.8354 20.1427 26.1454 20.2627 26.3554C20.3827 26.5754 20.7027 26.6154 20.8927 26.4954L22.0027 25.7554L21.9327 27.0554C21.9127 27.3054 22.0627 27.5354 22.3527 27.5354ZM4.2427 32.6754C4.4827 32.6754 4.6627 32.4254 4.6527 32.1854L4.5627 30.8854L5.6427 31.6254C5.8527 31.7454 6.1527 31.6954 6.2927 31.4854C6.4127 31.2854 6.3427 30.9654 6.0727 30.8454L4.9127 30.2854L6.0827 29.6954C6.3427 29.5754 6.4027 29.2754 6.3027 29.0654C6.1827 28.8454 5.8527 28.8054 5.6427 28.9254L4.5627 29.6954L4.6627 28.3654C4.6927 28.1054 4.4827 27.8954 4.2427 27.8954C3.9527 27.8954 3.7827 28.1054 3.8027 28.3654L3.8827 29.6954L2.7927 28.9254C2.5827 28.8054 2.2927 28.8354 2.1627 29.0654C2.0327 29.2754 2.0927 29.5554 2.3527 29.6954L3.5227 30.2854L2.3527 30.8554C2.0927 30.9854 2.0227 31.2654 2.1427 31.4854C2.2727 31.7154 2.5827 31.7554 2.7927 31.6254L3.8827 30.8854L3.8127 32.1854C3.8027 32.4254 3.9527 32.6754 4.2427 32.6754ZM11.8127 32.6754C12.0627 32.6754 12.2327 32.4254 12.2227 32.1854L12.1427 30.8854L13.2227 31.6254C13.4127 31.7454 13.7227 31.6954 13.8627 31.4854C13.9827 31.2854 13.9227 30.9654 13.6427 30.8454L12.4727 30.2854L13.6627 29.6954C13.9227 29.5754 13.9727 29.2754 13.8727 29.0654C13.7527 28.8454 13.4127 28.8054 13.2227 28.9254L12.1427 29.6954L12.2327 28.3654C12.2627 28.1054 12.0627 27.8954 11.8127 27.8954C11.5227 27.8954 11.3627 28.1054 11.3727 28.3654L11.4527 29.6954L10.3527 28.9254C10.1627 28.8054 9.8727 28.8354 9.7327 29.0654C9.6127 29.2754 9.6627 29.5554 9.9227 29.6954L11.1027 30.2854L9.9227 30.8554C9.6627 30.9854 9.5927 31.2654 9.7227 31.4854C9.8427 31.7154 10.1627 31.7554 10.3527 31.6254L11.4527 30.8854L11.3927 32.1854C11.3727 32.4254 11.5227 32.6754 11.8127 32.6754ZM19.3827 32.6754C19.6327 32.6754 19.8127 32.4254 19.7927 32.1854L19.7027 30.8854L20.7927 31.6254C20.9827 31.7454 21.3027 31.6954 21.4327 31.4854C21.5627 31.2854 21.4927 30.9654 21.2227 30.8454L20.0427 30.2854L21.2327 29.6954C21.4927 29.5754 21.5427 29.2754 21.4527 29.0654C21.3327 28.8454 20.9827 28.8054 20.7927 28.9254L19.7027 29.6954L19.8127 28.3654C19.8427 28.1054 19.6327 27.8954 19.3827 27.8954C19.1027 27.8954 18.9327 28.1054 18.9527 28.3654L19.0327 29.6954L17.9227 28.9254C17.7327 28.8054 17.4427 28.8354 17.3127 29.0654C17.1827 29.2754 17.2427 29.5554 17.5027 29.6954L18.6727 30.2854L17.5027 30.8554C17.2427 30.9854 17.1727 31.2654 17.2927 31.4854C17.4227 31.7154 17.7327 31.7554 17.9227 31.6254L19.0327 30.8854L18.9627 32.1854C18.9527 32.4254 19.1027 32.6754 19.3827 32.6754Z" /></svg>