
<svg
    viewBox="0 0 31.212890625 31.80078125"
    xmlns="http://www.w3.org/2000/svg"
>
    <path
        fill="inherit"
        d="M6.4227 20.7154H23.3927C27.8727 20.7154 31.2127 17.3054 31.2127 13.0954C31.2127 8.7354 27.6627 5.5554 23.0227 5.5554C21.3127 2.1754 18.1427 -0.0046 14.1927 -0.0046C9.0527 -0.0046 4.8127 4.0354 4.3627 9.1054C1.8827 9.8254 0.0027 11.9754 0.0027 14.8654C0.0027 18.1054 2.3527 20.7154 6.4227 20.7154ZM6.4027 18.5254C3.5927 18.5254 2.1827 16.9554 2.1827 14.9254C2.1827 13.2854 3.1427 11.8154 5.4727 11.1954C6.2227 10.9954 6.4927 10.6354 6.5627 9.8754C6.8727 5.3954 10.2227 2.1854 14.1927 2.1854C17.2627 2.1854 19.6827 3.8854 21.1627 6.9054C21.4827 7.5754 21.8927 7.8054 22.6927 7.8054C26.7427 7.8054 29.0227 10.2354 29.0227 13.1554C29.0227 16.1354 26.6427 18.5254 23.5327 18.5254ZM8.1927 25.6354L9.1027 24.0254C9.3527 23.6154 9.2327 23.1154 8.8227 22.8754C8.4127 22.6454 7.9327 22.7954 7.6827 23.1854L6.7527 24.8454C6.5327 25.2254 6.6327 25.7054 7.0527 25.9454C7.4627 26.1854 7.9527 26.0454 8.1927 25.6354ZM14.1527 27.7254L16.2827 24.0354C16.5127 23.6154 16.3927 23.1354 15.9927 22.8954C15.5727 22.6554 15.0927 22.7954 14.8627 23.2154L12.7127 26.9354C12.4827 27.3254 12.6027 27.8054 13.0327 28.0454C13.4227 28.2754 13.9327 28.1354 14.1527 27.7254ZM22.5127 25.6854L23.4327 24.0754C23.6827 23.6654 23.5527 23.1754 23.1427 22.9254C22.7327 22.6954 22.2627 22.8454 22.0127 23.2454L21.0827 24.8954C20.8627 25.2754 20.9627 25.7554 21.3827 26.0054C21.7927 26.2354 22.2827 26.0854 22.5127 25.6854ZM5.7727 29.7054C6.5727 29.7054 7.2427 29.0254 7.2427 28.2054C7.2427 27.4154 6.5727 26.7454 5.7727 26.7454C4.9527 26.7454 4.2827 27.4154 4.2827 28.2054C4.2827 29.0254 4.9527 29.7054 5.7727 29.7054ZM20.0927 29.7654C20.9027 29.7654 21.5727 29.0754 21.5727 28.2554C21.5727 27.4654 20.9027 26.7854 20.0927 26.7854C19.2727 26.7854 18.6027 27.4654 18.6027 28.2554C18.6027 29.0754 19.2727 29.7654 20.0927 29.7654ZM11.7327 31.8054C12.5327 31.8054 13.2227 31.1154 13.2227 30.2954C13.2227 29.5054 12.5527 28.8354 11.7327 28.8354C10.9227 28.8354 10.2527 29.5054 10.2527 30.2954C10.2527 31.1154 10.9227 31.8054 11.7327 31.8054Z"
        fillRule="evenodd"
        clipRule="evenodd"
    />
</svg>
        