
<svg
    viewBox="0 0 27.890625 27.890625"
    xmlns="http://www.w3.org/2000/svg"
>
    <path
        fill="inherit"
        d="M13.9427 27.8927C21.6427 27.8927 27.8927 21.6427 27.8927 13.9427C27.8927 6.2627 21.6427 0.0027 13.9427 0.0027C6.2627 0.0027 0.0027 6.2627 0.0027 13.9427C0.0027 21.6427 6.2627 27.8927 13.9427 27.8927ZM8.8327 19.1427C6.6827 19.1427 5.2627 17.8127 5.2627 15.9027C5.2627 14.3827 6.2627 13.1427 7.7127 12.7427C7.9527 9.8827 10.3227 7.6727 13.1627 7.6727C15.3227 7.6727 17.1027 8.8327 18.0427 10.7727C20.6727 10.7327 22.6227 12.5227 22.6227 14.9327C22.6227 17.3127 20.7227 19.1427 18.2927 19.1427Z"
        fillRule="evenodd"
        clipRule="evenodd"
    />
</svg>
        