
<svg
    viewBox="0 0 32.67578125 21.642578125"
    xmlns="http://www.w3.org/2000/svg"
>
    <path
        fill="inherit"
        d="M6.7027 21.6413H24.5027C29.1027 21.6413 32.6727 18.1513 32.6727 13.7013C32.6727 9.2013 29.0227 5.8112 24.0627 5.8112C22.2427 2.2013 18.9127 0.0012 14.8427 0.0012C9.5427 0.0012 5.0627 4.1112 4.5827 9.5712C1.8427 10.3513 0.0027 12.6512 0.0027 15.5613C0.0027 18.9213 2.4427 21.6413 6.7027 21.6413ZM6.6727 19.4413C3.8727 19.4413 2.2027 17.9213 2.2027 15.6313C2.2027 13.6613 3.4627 12.2413 5.6727 11.6512C6.4427 11.4613 6.7227 11.1013 6.7827 10.3113C7.1127 5.6713 10.5827 2.2013 14.8427 2.2013C18.1427 2.2013 20.6827 4.0313 22.2127 7.1813C22.5427 7.8513 22.9427 8.0813 23.7727 8.0813C28.0527 8.0813 30.4627 10.6613 30.4627 13.7513C30.4627 16.9413 27.9227 19.4413 24.6527 19.4413Z"
        fillRule="evenodd"
        clipRule="evenodd"
    />
</svg>
        