
<svg
    viewBox="0 0 27.890625 27.890625"
    xmlns="http://www.w3.org/2000/svg"
>
    <path
        fill="inherit"
        d="M13.9427 27.8927C21.6427 27.8927 27.8927 21.6427 27.8927 13.9427C27.8927 6.2627 21.6427 0.0027 13.9427 0.0027C6.2627 0.0027 0.0027 6.2627 0.0027 13.9427C0.0027 21.6427 6.2627 27.8927 13.9427 27.8927ZM9.4227 15.7127C7.4127 15.7127 6.2527 14.3927 6.2527 12.8127C6.2527 11.3927 7.1827 10.3227 8.3927 9.9627C8.6227 7.4527 10.7327 5.4427 13.2627 5.4427C15.2127 5.4427 16.7727 6.5527 17.6327 8.2027C19.9227 8.2027 21.6827 9.7727 21.6827 11.9327C21.6827 14.0127 20.0027 15.7127 17.8127 15.7127ZM14.0927 19.4027C13.9327 19.7027 13.5227 19.8227 13.2227 19.6427C12.9027 19.4727 12.8127 19.0427 12.9927 18.7627L13.8127 17.3327C13.9727 17.0327 14.3827 16.9227 14.6827 17.0927C15.0027 17.2827 15.0927 17.6927 14.9127 17.9827ZM10.2227 19.4027C10.0627 19.7027 9.6627 19.8227 9.3527 19.6427C9.0327 19.4727 8.9427 19.0427 9.1027 18.7627L9.9427 17.3327C10.1027 17.0327 10.5027 16.9227 10.8127 17.0927C11.1327 17.2827 11.2227 17.6927 11.0627 17.9827ZM17.9527 19.4027C17.7827 19.7027 17.3927 19.8227 17.0727 19.6427C16.7627 19.4727 16.6627 19.0427 16.8327 18.7627L17.6627 17.3327C17.8327 17.0327 18.2227 16.9227 18.5427 17.0927C18.8627 17.2827 18.9527 17.6927 18.7827 17.9827ZM8.5627 22.1927C8.0427 22.1927 7.6127 21.7627 7.6127 21.2427C7.6127 20.7427 8.0427 20.3127 8.5627 20.3127C9.0627 20.3127 9.4927 20.7427 9.4927 21.2427C9.4927 21.7627 9.0627 22.1927 8.5627 22.1927ZM12.4327 22.1927C11.9127 22.1927 11.4827 21.7627 11.4827 21.2427C11.4827 20.7427 11.9127 20.3127 12.4327 20.3127C12.9427 20.3127 13.3727 20.7427 13.3727 21.2427C13.3727 21.7627 12.9427 22.1927 12.4327 22.1927ZM16.2827 22.1927C15.7727 22.1927 15.3427 21.7627 15.3427 21.2427C15.3427 20.7427 15.7727 20.3127 16.2827 20.3127C16.7927 20.3127 17.2227 20.7427 17.2227 21.2427C17.2227 21.7627 16.7927 22.1927 16.2827 22.1927Z"
        fillRule="evenodd"
        clipRule="evenodd"
    />
</svg>
        