
<svg
    viewBox="0 0 39.73046875 27.630859375"
    xmlns="http://www.w3.org/2000/svg"
>
    <path
        fill="inherit"
        d="M25.5812 5.2323C26.2112 5.2323 26.7112 4.7023 26.7112 4.1023V1.1323C26.7112 0.5223 26.2112 0.0023 25.5812 0.0023C24.9512 0.0023 24.4412 0.5223 24.4412 1.1323V4.1023C24.4412 4.7023 24.9512 5.2323 25.5812 5.2323ZM17.6512 7.8623C18.1012 8.3123 18.8412 8.3023 19.2612 7.8623C19.6912 7.4223 19.7012 6.7123 19.2612 6.2723L17.1612 4.1723C16.7212 3.7323 16.0112 3.7323 15.5712 4.1723C15.1312 4.6123 15.1212 5.3323 15.5712 5.7723ZM31.9012 7.8623C32.3212 8.3023 33.0612 8.3123 33.5112 7.8623L35.6012 5.7723C36.0412 5.3323 36.0412 4.6123 35.6012 4.1723C35.1612 3.7323 34.4512 3.7323 34.0112 4.1723L31.9012 6.2723C31.4612 6.7123 31.4712 7.4223 31.9012 7.8623ZM5.8012 27.6323H20.5912C24.5412 27.6323 27.6212 24.6323 27.6212 20.7823C27.6212 20.7523 27.6212 20.7223 27.6212 20.6823C30.3612 19.7923 32.3312 17.2123 32.3312 14.1823C32.3312 10.4223 29.3412 7.3923 25.5812 7.3923C22.5312 7.3923 19.9712 9.3923 19.1312 12.1523C17.4712 10.2823 15.1912 9.1923 12.5812 9.1923C8.0512 9.1923 4.2612 12.6723 3.8112 17.1723C1.5412 17.8823 0.0012 19.8523 0.0012 22.3423C0.0012 25.4123 2.3212 27.6323 5.8012 27.6323ZM25.5812 9.4023C28.2412 9.4023 30.3412 11.5023 30.3412 14.1823C30.3412 16.2323 29.0912 17.9823 27.2712 18.6923C26.4112 16.0623 23.9412 14.2223 20.8212 14.0323C20.9012 11.4123 22.9512 9.4023 25.5812 9.4023ZM5.7412 25.4423C3.4212 25.4423 2.1912 24.1023 2.1912 22.3923C2.1912 20.9423 3.0312 19.6723 5.0412 19.1223C5.7012 18.9623 5.9512 18.6623 6.0012 17.9623C6.3212 14.1323 9.1612 11.3723 12.5812 11.3723C15.2312 11.3723 17.2912 12.8423 18.5712 15.3823C18.8712 15.9723 19.1912 16.1723 19.8912 16.1723C23.4312 16.1723 25.4112 18.3023 25.4112 20.8523C25.4112 23.3923 23.3412 25.4423 20.6312 25.4423ZM35.6412 15.3123H38.6112C39.2212 15.3123 39.7312 14.8023 39.7312 14.1823C39.7312 13.5623 39.2212 13.0423 38.6112 13.0423H35.6412C35.0412 13.0423 34.5112 13.5623 34.5112 14.1823C34.5112 14.8023 35.0412 15.3123 35.6412 15.3123ZM34.0112 24.2123C34.4512 24.6523 35.1612 24.6323 35.6012 24.2023C36.0412 23.7623 36.0412 23.0323 35.6012 22.6123L33.4812 20.5223C33.0412 20.1023 32.3312 20.0823 31.9012 20.5223C31.4612 20.9623 31.4612 21.6823 31.9012 22.1223Z"
        fillRule="evenodd"
        clipRule="evenodd"
    />
</svg>
        