<svg viewBox="0 0 27.890625 27.890625" xmlns="http://www.w3.org/2000/svg"><path d="M13.9427 27.8927C21.6427 27.8927 27.8927 21.6427 27.8927 13.9427C27.8927 6.2627 21.6427 0.0027 13.9427 0.0027C6.2627 0.0027 0.0027 6.2627 0.0027 13.9427C0.0027 21.6427 6.2627 27.8927 13.9427 27.8927ZM9.7227 15.3127C7.7127 15.3127 6.5527 14.0127 6.5527 12.4127C6.5527 10.9927 7.4827 9.9427 8.6927 9.5827C8.9327 7.0527 11.0227 5.0627 13.5627 5.0627C15.5127 5.0627 17.0727 6.1427 17.9227 7.8027C20.2027 7.8027 21.9727 9.3827 21.9727 11.5427C21.9727 13.6127 20.3027 15.3127 18.1027 15.3127ZM10.5727 18.9327C10.4027 19.2227 10.0127 19.3627 9.6927 19.1827C9.3827 19.0027 9.2927 18.5927 9.4427 18.2927L10.2427 16.9427C10.4027 16.6527 10.8027 16.5127 11.1027 16.7027C11.4327 16.8727 11.5127 17.2927 11.3627 17.5827ZM18.2927 18.9327C18.1327 19.2227 17.7327 19.3627 17.4227 19.1827C17.1027 19.0027 17.0227 18.5927 17.1727 18.2927L17.9627 16.9427C18.1327 16.6527 18.5227 16.5127 18.8427 16.7027C19.1527 16.8727 19.2327 17.2927 19.0827 17.5827ZM14.4327 18.9327C14.2727 19.2227 13.8627 19.3627 13.5627 19.1827C13.2527 19.0027 13.1527 18.5927 13.3327 18.2927L14.1127 16.9427C14.2727 16.6527 14.6827 16.5127 14.9827 16.7027C15.3027 16.8727 15.3927 17.2927 15.2127 17.5827ZM8.8727 22.3127C8.6527 22.3127 8.5327 22.1527 8.5327 21.9427L8.5427 21.3927L8.1027 21.7127C7.9427 21.8027 7.7127 21.7827 7.6027 21.5927C7.5027 21.4227 7.5427 21.2027 7.7827 21.0927L8.2427 20.8727L7.7827 20.6327C7.5427 20.5327 7.5427 20.2727 7.6127 20.1427C7.7227 19.9727 7.9527 19.9427 8.1027 20.0427L8.5427 20.3527L8.5127 19.8127C8.5027 19.6027 8.6527 19.4427 8.8727 19.4427C9.0627 19.4427 9.2127 19.5927 9.2027 19.8127L9.1627 20.3527L9.6127 20.0527C9.7627 19.9427 10.0227 19.9927 10.1127 20.1527C10.1827 20.3327 10.1427 20.5227 9.9427 20.6327L9.4627 20.8727L9.9427 21.0927C10.1727 21.2027 10.1827 21.4527 10.0927 21.6327C9.9927 21.7527 9.7627 21.8027 9.6127 21.7127L9.1627 21.3927L9.2027 21.9427C9.2127 22.1627 9.0627 22.3127 8.8727 22.3127ZM12.7427 22.3127C12.5227 22.3127 12.4027 22.1527 12.4027 21.9427L12.4327 21.3927L11.9627 21.7127C11.8127 21.8027 11.5627 21.7827 11.4727 21.5927C11.3927 21.4227 11.4327 21.2027 11.6327 21.0927L12.1127 20.8727L11.6327 20.6327C11.4327 20.5327 11.4127 20.2727 11.5027 20.1427C11.5927 19.9727 11.8227 19.9427 11.9627 20.0427L12.4327 20.3527L12.3827 19.8127C12.3727 19.6027 12.5227 19.4427 12.7427 19.4427C12.9227 19.4427 13.0827 19.5927 13.0527 19.8127L13.0327 20.3527L13.4627 20.0527C13.6327 19.9427 13.8927 19.9927 13.9727 20.1527C14.0527 20.3327 14.0227 20.5227 13.8127 20.6327L13.3327 20.8727L13.8127 21.0927C14.0427 21.2027 14.0727 21.4527 13.9427 21.6327C13.8627 21.7527 13.6327 21.8027 13.4627 21.7127L13.0327 21.3927L13.0527 21.9427C13.0827 22.1627 12.9227 22.3127 12.7427 22.3127ZM16.5927 22.3127C16.3827 22.3127 16.2527 22.1527 16.2527 21.9427L16.2727 21.3927L15.8327 21.7127C15.6727 21.8027 15.4327 21.7827 15.3227 21.5927C15.2327 21.4227 15.2727 21.2027 15.5027 21.0927L15.9727 20.8727L15.5027 20.6327C15.2727 20.5327 15.2727 20.2727 15.3427 20.1427C15.4527 19.9727 15.6827 19.9427 15.8327 20.0427L16.2727 20.3527L16.2427 19.8127C16.2327 19.6027 16.3827 19.4427 16.5927 19.4427C16.7927 19.4427 16.9427 19.5927 16.9227 19.8127L16.9027 20.3527L17.3327 20.0527C17.4827 19.9427 17.7427 19.9927 17.8427 20.1527C17.9127 20.3327 17.8727 20.5227 17.6827 20.6327L17.1827 20.8727L17.6827 21.0927C17.8927 21.2027 17.9227 21.4527 17.8127 21.6327C17.7227 21.7527 17.4827 21.8027 17.3327 21.7127L16.9027 21.3927L16.9227 21.9427C16.9427 22.1627 16.7927 22.3127 16.5927 22.3127Z" /></svg>