
<svg
    viewBox="0 0 27.890625 27.890625"
    xmlns="http://www.w3.org/2000/svg"
>
    <path
        fill="inherit"
        d="M13.9427 27.8927C21.6427 27.8927 27.8927 21.6427 27.8927 13.9427C27.8927 6.2627 21.6427 0.0027 13.9427 0.0027C6.2627 0.0027 0.0027 6.2627 0.0027 13.9427C0.0027 21.6427 6.2627 27.8927 13.9427 27.8927ZM9.5127 15.7627C7.5027 15.7627 6.3327 14.4527 6.3327 12.8527C6.3327 11.4327 7.2727 10.3727 8.4927 10.0227C8.7227 7.5027 10.8127 5.4927 13.3527 5.4927C15.3127 5.4927 16.8727 6.6027 17.7227 8.2627C20.0027 8.2627 21.7627 9.8327 21.7627 11.9927C21.7627 14.0727 20.0927 15.7627 17.8927 15.7627ZM9.0227 18.7027C8.6827 18.7027 8.3927 18.4327 8.3927 18.0727C8.3927 17.7227 8.6827 17.4227 9.0227 17.4227H18.8527C19.2127 17.4227 19.4927 17.7027 19.4927 18.0727C19.4927 18.4327 19.2127 18.7027 18.8527 18.7027ZM9.0227 21.5927C8.6827 21.5927 8.3927 21.3027 8.3927 20.9327C8.3927 20.5727 8.6827 20.3027 9.0227 20.3027H18.8527C19.2127 20.3027 19.4927 20.5727 19.4927 20.9327C19.4927 21.3027 19.2127 21.5927 18.8527 21.5927Z"
        fillRule="evenodd"
        clipRule="evenodd"
    />
</svg>
        