
<svg
    viewBox="0 0 35.861328125 33.89663334726554"
    xmlns="http://www.w3.org/2000/svg"
>
    <path
        fill="inherit"
        d="M29.0534 16.1213C33.3134 15.3713 35.8634 11.9113 35.8634 9.6713C35.8634 9.1313 35.6134 8.7413 35.1734 8.7413C34.5234 8.7413 33.5234 9.6113 31.6334 9.6113C28.2834 9.6113 26.1834 7.6013 26.1834 4.5413C26.1834 2.7313 27.1534 1.4213 27.1534 0.6813C27.1534 0.2613 26.8634 -0.0087 26.3134 0.0013C23.7934 0.1113 20.5734 2.9213 19.8634 6.5613C20.2934 6.9613 20.7034 7.4913 21.0234 8.2213C25.6334 8.5713 28.9734 12.0413 29.0534 16.1213ZM5.6734 23.0613H20.4634C24.3334 23.0613 27.3434 20.1413 27.3434 16.3513C27.3434 12.5813 24.2834 9.7313 20.1934 9.7113C18.5934 6.6613 15.7534 4.8813 12.4434 4.8813C7.9934 4.8813 4.2234 8.3413 3.8134 12.8213C1.4934 13.5213 0.0034 15.4913 0.0034 17.9013C0.0034 20.9613 2.3134 23.0613 5.6734 23.0613ZM16.2734 29.6013L18.0434 26.5213C18.2934 26.1013 18.1534 25.6213 17.7634 25.3913C17.3334 25.1413 16.8734 25.2813 16.6234 25.7013L14.8334 28.8113C14.6034 29.2013 14.7134 29.6813 15.1334 29.9313C15.5434 30.1513 16.0334 30.0113 16.2734 29.6013ZM5.3834 29.6113L7.1734 26.5413C7.4234 26.1113 7.2834 25.6313 6.8734 25.4013C6.4634 25.1613 6.0034 25.2913 5.7434 25.7213L3.9534 28.8213C3.7234 29.2213 3.8434 29.6913 4.2634 29.9413C4.6634 30.1613 5.1534 30.0213 5.3834 29.6113ZM20.5534 33.4513L22.3234 30.3613C22.5734 29.9513 22.4334 29.4813 22.0234 29.2313C21.6134 29.0013 21.1534 29.1313 20.9034 29.5413L19.1134 32.6613C18.8834 33.0413 18.9934 33.5213 19.4134 33.7713C19.8234 34.0013 20.3134 33.8613 20.5534 33.4513ZM9.6634 33.4713L11.4434 30.3813C11.7034 29.9713 11.5634 29.4913 11.1534 29.2413C10.7434 29.0113 10.2834 29.1513 10.0234 29.5613L8.2334 32.6813C7.9934 33.0613 8.1234 33.5413 8.5434 33.7813C8.9434 34.0113 9.4334 33.8813 9.6634 33.4713Z"
        fillRule="evenodd"
        clipRule="evenodd"
    />
</svg>
        