
<svg
    viewBox="0 0 30.734375 28.24609375"
    xmlns="http://www.w3.org/2000/svg"
>
    <path
        fill="inherit"
        d="M5.5737 28.2431H19.6837C23.4837 28.2431 26.4437 25.3631 26.4437 21.6731C26.4437 20.0931 25.9037 18.6931 24.9737 17.5931C25.9037 15.3431 28.1537 13.7531 30.7337 13.7531V11.9631C27.6037 11.9631 24.8937 13.7431 23.5837 16.3531C23.2437 16.1331 22.9037 15.9431 22.5137 15.7731C24.0637 12.7931 27.1637 10.7631 30.7337 10.7631V8.9731C26.3337 8.9731 22.5337 11.5231 20.7637 15.2531C20.3837 15.1931 19.9737 15.1531 19.5637 15.1331L19.5337 15.0931C21.4237 10.7831 25.7337 7.7631 30.7337 7.7631V5.9731C25.3637 5.9731 20.7137 8.9831 18.3637 13.4131C18.0837 13.0831 17.7837 12.7931 17.4737 12.5231C20.0937 7.9031 25.0437 4.7831 30.7337 4.7831V2.9931C24.4137 2.9931 18.9237 6.4031 15.9837 11.5131C15.6237 11.3231 15.2737 11.1531 14.8937 11.0231C18.0237 5.5131 23.9537 1.7931 30.7337 1.7931V0.0031C23.0637 0.0031 16.4337 4.2931 13.0737 10.5931C12.7437 10.5531 12.4037 10.5231 12.0537 10.5231C7.7137 10.5231 4.0837 13.8731 3.6337 18.1831C1.4737 18.8631 0.0037 20.7631 0.0037 23.1431C0.0037 26.1231 2.2437 28.2431 5.5737 28.2431Z"
        fillRule="evenodd"
        clipRule="evenodd"
    />
</svg>
        