
<svg
    viewBox="0 0 39.552734375 39.13836237860575"
    xmlns="http://www.w3.org/2000/svg"
>
    <path
        fill="inherit"
        d="M25.4034 5.2237C26.0334 5.2237 26.5334 4.7037 26.5334 4.0837V1.1337C26.5334 0.5237 26.0334 0.0038 25.4034 0.0038C24.7734 0.0038 24.2634 0.5237 24.2634 1.1337V4.0837C24.2634 4.7037 24.7734 5.2237 25.4034 5.2237ZM17.4734 7.8638C17.9234 8.3137 18.6634 8.3038 19.0834 7.8638C19.5134 7.4237 19.5234 6.7138 19.0834 6.2738L16.9834 4.1737C16.5434 3.7138 15.8334 3.7338 15.3934 4.1737C14.9534 4.6038 14.9434 5.3337 15.3934 5.7738ZM31.7234 7.8638C32.1434 8.3038 32.8834 8.3137 33.3334 7.8638L35.4234 5.7738C35.8634 5.3337 35.8634 4.6038 35.4234 4.1737C34.9834 3.7338 34.2734 3.7138 33.8334 4.1737L31.7234 6.2738C31.2834 6.7138 31.2934 7.4237 31.7234 7.8638ZM28.9134 20.0438C30.9234 18.6737 32.1534 16.5938 32.1534 14.1738C32.1534 10.4138 29.1634 7.3938 25.4034 7.3938C22.9234 7.3938 20.7834 8.7338 19.6434 10.7038C20.2234 11.3038 20.7134 11.9338 21.1234 12.7237C25.6334 13.0938 28.5434 15.9038 28.9134 20.0438ZM5.6734 27.4838H20.4634C24.3334 27.4838 27.3434 24.5438 27.3434 20.7538C27.3434 16.9938 24.2834 14.1538 20.1934 14.1238C18.5934 11.0637 15.7534 9.2938 12.4434 9.2938C7.9934 9.2938 4.2234 12.7437 3.8134 17.2438C1.4934 17.9338 0.0034 19.9038 0.0034 22.3138C0.0034 25.3738 2.3134 27.4838 5.6734 27.4838ZM35.4634 15.3138H38.4334C39.0434 15.3138 39.5534 14.8038 39.5534 14.1738C39.5534 13.5538 39.0434 13.0438 38.4334 13.0438H35.4634C34.8634 13.0438 34.3334 13.5538 34.3334 14.1738C34.3334 14.8038 34.8634 15.3138 35.4634 15.3138ZM33.8334 24.2138C34.2734 24.6538 34.9834 24.6338 35.4234 24.2038C35.8634 23.7638 35.8634 23.0338 35.4234 22.6138L33.3034 20.5238C32.8634 20.0938 32.1534 20.0838 31.7234 20.5238C31.2834 20.9438 31.2834 21.6838 31.7234 22.1238ZM17.0734 32.4738H14.3534L15.6134 30.1038C15.7734 29.8038 15.6534 29.5838 15.3534 29.5838H12.4934C12.1134 29.5838 11.9934 29.7238 11.8634 29.9938L10.1134 33.9738C9.9834 34.3038 10.1334 34.5037 10.4734 34.5037H12.7534L11.0034 38.7338C10.9234 38.9238 10.9634 39.0638 11.1034 39.1137C11.2234 39.1738 11.3734 39.1338 11.4934 38.9738L17.2834 33.1238C17.5634 32.8438 17.4734 32.4738 17.0734 32.4738Z"
        fillRule="evenodd"
        clipRule="evenodd"
    />
</svg>
        