
<svg
    viewBox={0 0 31.212890625 33.591796875}
    xmlns="http://www.w3.org/2000/svg"
>
    <path
        fill="inherit"
        d="M6.4227 20.7154H23.3927C27.8727 20.7154 31.2127 17.3054 31.2127 13.0954C31.2127 8.7354 27.6627 5.5554 23.0227 5.5554C21.3127 2.1754 18.1427 -0.0046 14.1927 -0.0046C9.0527 -0.0046 4.8127 4.0354 4.3627 9.1054C1.8827 9.8254 0.0027 11.9754 0.0027 14.8654C0.0027 18.1054 2.3527 20.7154 6.4227 20.7154ZM8.1927 25.6354L9.1027 24.0254C9.3527 23.6154 9.2327 23.1154 8.8227 22.8754C8.4127 22.6454 7.9327 22.7954 7.6827 23.1854L6.7527 24.8454C6.5327 25.2254 6.6327 25.7054 7.0527 25.9454C7.4627 26.1854 7.9527 26.0454 8.1927 25.6354ZM14.1527 27.7254L16.2827 24.0354C16.5127 23.6154 16.3927 23.1354 15.9927 22.8954C15.5727 22.6554 15.0927 22.7954 14.8627 23.2154L12.7127 26.9354C12.4827 27.3254 12.6027 27.8054 13.0327 28.0454C13.4227 28.2754 13.9327 28.1354 14.1527 27.7254ZM22.5127 25.6854L23.4327 24.0754C23.6827 23.6654 23.5527 23.1754 23.1427 22.9254C22.7327 22.6954 22.2627 22.8454 22.0127 23.2454L21.0827 24.8954C20.8627 25.2754 20.9627 25.7554 21.3827 26.0054C21.7927 26.2354 22.2827 26.0854 22.5127 25.6854ZM5.6627 31.4954C5.9027 31.4954 6.0827 31.2654 6.0727 31.0254L5.9727 29.7054L7.0727 30.4454C7.2627 30.5854 7.5727 30.5254 7.6927 30.3254C7.8327 30.1154 7.7527 29.8054 7.4927 29.6854L6.3127 29.1054L7.5027 28.5154C7.7527 28.3954 7.8227 28.1054 7.7127 27.8954C7.6027 27.6754 7.2627 27.6354 7.0727 27.7654L5.9727 28.5154L6.0827 27.2054C6.1127 26.9454 5.9027 26.7254 5.6627 26.7254C5.3727 26.7254 5.1927 26.9454 5.2127 27.2054L5.3027 28.5154L4.1927 27.7654C4.0027 27.6354 3.7227 27.6554 3.5827 27.8954C3.4627 28.1054 3.5127 28.3954 3.7727 28.5154L4.9527 29.1054L3.7727 29.6854C3.5127 29.8054 3.4427 30.1054 3.5727 30.3254C3.6927 30.5554 4.0027 30.5954 4.1927 30.4654L5.3027 29.7254L5.2227 31.0254C5.2127 31.2654 5.3727 31.4954 5.6627 31.4954ZM19.9927 31.5554C20.2327 31.5554 20.4127 31.3254 20.4027 31.0654L20.3027 29.7654L21.3927 30.5054C21.5927 30.6354 21.8927 30.5854 22.0227 30.3754C22.1627 30.1754 22.0827 29.8554 21.8227 29.7354L20.6427 29.1654L21.8327 28.5754C22.0827 28.4554 22.1527 28.1554 22.0427 27.9454C21.9127 27.7254 21.5927 27.6854 21.3927 27.8254L20.3027 28.5754L20.4127 27.2654C20.4427 26.9854 20.2327 26.7654 19.9927 26.7654C19.7027 26.7654 19.5227 26.9854 19.5327 27.2654L19.6327 28.5754L18.5227 27.8254C18.3327 27.6854 18.0427 27.7154 17.9127 27.9454C17.7827 28.1554 17.8427 28.4554 18.1027 28.5754L19.2727 29.1654L18.1027 29.7354C17.8427 29.8554 17.7727 30.1554 17.8927 30.3754C18.0227 30.5954 18.3327 30.6354 18.5227 30.5054L19.6327 29.7754L19.5527 31.0654C19.5327 31.3254 19.7027 31.5554 19.9927 31.5554ZM12.1827 33.5954C12.4427 33.5954 12.6027 33.3554 12.5927 33.1154L12.5127 31.8154L13.5927 32.5354C13.7927 32.6754 14.0927 32.6254 14.2327 32.4154C14.3727 32.2154 14.2827 31.8954 14.0227 31.7754L12.8527 31.2154L14.0427 30.6254C14.2827 30.5054 14.3527 30.2054 14.2427 29.9854C14.1227 29.7654 13.7927 29.7254 13.5927 29.8554L12.5127 30.6254L12.6027 29.2954C12.6327 29.0354 12.4427 28.8154 12.1827 28.8154C11.8927 28.8154 11.7327 29.0354 11.7427 29.2954L11.8227 30.6254L10.7327 29.8554C10.5227 29.7254 10.2427 29.7454 10.1027 29.9854C9.9827 30.2054 10.0327 30.4854 10.2927 30.6254L11.4827 31.2154L10.2927 31.7854C10.0327 31.9054 9.9627 32.1954 10.0927 32.4154C10.2127 32.6454 10.5227 32.6854 10.7327 32.5554L11.8227 31.8154L11.7627 33.1154C11.7427 33.3554 11.8927 33.5954 12.1827 33.5954Z"
        fillRule="evenodd"
        clipRule="evenodd"
    />
</svg>
        