
<svg
    viewBox={0 0 35.93253314782709 23.643367348266814}
    xmlns="http://www.w3.org/2000/svg"
>
    <path
        fill="inherit"
        d="M5.8012 23.6454H20.5912C24.5412 23.6454 27.6212 20.6454 27.6212 16.7954C27.6212 16.7554 27.6212 16.7254 27.6012 16.6854C32.0212 16.5354 34.7712 14.0354 35.7812 11.4054C36.2312 10.2954 35.6412 9.3154 34.5812 9.3154C33.7512 9.3154 33.0812 9.6754 31.6412 9.6754C28.1512 9.6754 26.3012 7.7254 26.3012 4.5554C26.3012 3.0154 26.7812 2.1654 26.7812 1.3954C26.7812 0.2754 25.8112 -0.2846 24.6112 0.1454C21.7112 1.0854 19.2512 4.1754 19.2512 7.9654C19.2512 8.0854 19.2612 8.2054 19.2612 8.3154C17.6112 6.3454 15.2612 5.1954 12.5812 5.1954C8.0512 5.1954 4.2612 8.6854 3.8112 13.1854C1.5412 13.8954 0.0012 15.8654 0.0012 18.3554C0.0012 21.4254 2.3212 23.6454 5.8012 23.6454ZM21.2612 7.9254C21.2612 5.2654 22.8312 3.2154 24.6212 2.2354L24.7712 2.3454C24.5412 2.9954 24.3312 3.9154 24.3312 4.9654C24.3312 8.9054 27.2112 11.5954 31.1712 11.5954C32.1412 11.5954 33.0412 11.4354 33.6712 11.2254L33.7712 11.3254C32.9212 12.9254 30.7512 14.6854 27.2712 14.7054C26.4812 12.2954 24.3512 10.5454 21.6012 10.1254C21.3712 9.4254 21.2612 8.6854 21.2612 7.9254ZM5.7412 21.4554C3.4212 21.4554 2.1912 20.1154 2.1912 18.4054C2.1912 16.9554 3.0312 15.6854 5.0412 15.1354C5.7012 14.9754 5.9512 14.6754 6.0012 13.9754C6.3212 10.1454 9.1612 7.3854 12.5812 7.3854C15.2312 7.3854 17.2912 8.8454 18.5712 11.3954C18.8712 11.9854 19.1912 12.1854 19.8912 12.1854C23.4312 12.1854 25.4112 14.3154 25.4112 16.8654C25.4112 19.4054 23.3412 21.4554 20.6312 21.4554Z"
        fillRule="evenodd"
        clipRule="evenodd"
    />
</svg>
        