
<svg
    viewBox={0 0 39.73046875 38.312158829787236}
    xmlns="http://www.w3.org/2000/svg"
>
    <path
        fill="inherit"
        d="M25.5812 5.2201C26.2112 5.2201 26.7112 4.7001 26.7112 4.0901V1.1301C26.7112 0.5101 26.2112 0.0001 25.5812 0.0001C24.9512 0.0001 24.4412 0.5101 24.4412 1.1301V4.0901C24.4412 4.7001 24.9512 5.2201 25.5812 5.2201ZM17.6512 7.8601C18.1012 8.3101 18.8412 8.3001 19.2612 7.8601C19.6912 7.4201 19.7012 6.7101 19.2612 6.2801L17.1612 4.1601C16.7212 3.7201 16.0112 3.7201 15.5712 4.1601C15.1312 4.5901 15.1212 5.3201 15.5712 5.7701ZM31.9012 7.8601C32.3212 8.3001 33.0612 8.3101 33.5112 7.8601L35.6012 5.7701C36.0412 5.3201 36.0412 4.5901 35.6012 4.1601C35.1612 3.7201 34.4512 3.7201 34.0112 4.1601L31.9012 6.2801C31.4612 6.7101 31.4712 7.4201 31.9012 7.8601ZM5.8012 27.6301H20.5912C24.5412 27.6301 27.6212 24.6401 27.6212 20.7801C27.6212 20.7501 27.6212 20.7101 27.6212 20.6901C30.3612 19.8001 32.3312 17.2101 32.3312 14.1801C32.3312 10.4201 29.3412 7.4001 25.5812 7.4001C22.5312 7.4001 19.9712 9.3801 19.1312 12.1401C17.4712 10.2701 15.1912 9.1701 12.5812 9.1701C8.0512 9.1701 4.2612 12.6701 3.8112 17.1601C1.5412 17.8801 0.0012 19.8501 0.0012 22.3401C0.0012 25.4201 2.3212 27.6301 5.8012 27.6301ZM25.5812 9.4101C28.2412 9.4101 30.3412 11.5001 30.3412 14.1801C30.3412 16.2301 29.0912 17.9801 27.2712 18.6901C26.4112 16.0601 23.9412 14.2201 20.8212 14.0301C20.9012 11.4201 22.9512 9.4101 25.5812 9.4101ZM5.7412 25.4401C3.4212 25.4401 2.1912 24.1001 2.1912 22.3901C2.1912 20.9501 3.0312 19.6601 5.0412 19.1301C5.7012 18.9501 5.9512 18.6501 6.0012 17.9601C6.3212 14.1401 9.1612 11.3701 12.5812 11.3701C15.2312 11.3701 17.2912 12.8201 18.5712 15.3801C18.8712 15.9701 19.1912 16.1701 19.8912 16.1701C23.4312 16.1701 25.4112 18.2901 25.4112 20.8501C25.4112 23.3901 23.3412 25.4401 20.6312 25.4401ZM35.6412 15.3101H38.6112C39.2212 15.3101 39.7312 14.8101 39.7312 14.1801C39.7312 13.5501 39.2212 13.0401 38.6112 13.0401H35.6412C35.0412 13.0401 34.5112 13.5501 34.5112 14.1801C34.5112 14.8101 35.0412 15.3101 35.6412 15.3101ZM34.0112 24.2101C34.4512 24.6501 35.1612 24.6401 35.6012 24.2001C36.0412 23.7601 36.0412 23.0401 35.6012 22.6101L33.4812 20.5101C33.0412 20.0801 32.3312 20.0701 31.9012 20.5101C31.4612 20.9501 31.4612 21.6701 31.9012 22.1101ZM16.4512 34.0301L18.2212 30.9401C18.4712 30.5301 18.3312 30.0501 17.9212 29.8001C17.5112 29.5701 17.0512 29.7001 16.8012 30.1201L15.0112 33.2401C14.7812 33.6201 14.8912 34.1001 15.3112 34.3401C15.7212 34.5801 16.2112 34.4301 16.4512 34.0301ZM5.5612 34.0401L7.3412 30.9501C7.5912 30.5401 7.4612 30.0601 7.0512 29.8201C6.6312 29.5901 6.1612 29.7101 5.9212 30.1301L4.1312 33.2501C3.9012 33.6301 4.0212 34.1101 4.4312 34.3601C4.8412 34.5901 5.3312 34.4401 5.5612 34.0401ZM20.7112 37.8701L22.5012 34.7901C22.7512 34.3701 22.6112 33.8901 22.2012 33.6601C21.7912 33.4101 21.3312 33.5501 21.0712 33.9701L19.2812 37.0801C19.0412 37.4701 19.1712 37.9501 19.5912 38.1901C19.9912 38.4201 20.4912 38.2801 20.7112 37.8701ZM9.8412 37.8801L11.6212 34.8101C11.8712 34.3801 11.7312 33.9101 11.3312 33.6701C10.9112 33.4301 10.4412 33.5601 10.2012 33.9901L8.4112 37.0901C8.1712 37.4901 8.3012 37.9701 8.7112 38.2001C9.1212 38.4301 9.6112 38.2901 9.8412 37.8801Z"
        fillRule="evenodd"
        clipRule="evenodd"
    />
</svg>
        