
<svg
    viewBox="0 0 27.890625 27.890625"
    xmlns="http://www.w3.org/2000/svg"
>
    <path
        fill="inherit"
        d="M13.9427 27.8927C21.6427 27.8927 27.8927 21.6427 27.8927 13.9427C27.8927 6.2627 21.6427 0.0027 13.9427 0.0027C6.2627 0.0027 0.0027 6.2627 0.0027 13.9427C0.0027 21.6427 6.2627 27.8927 13.9427 27.8927ZM16.7327 7.1127C16.3927 7.1127 16.0927 6.8127 16.0927 6.4627V5.0627C16.0927 4.7027 16.3927 4.4127 16.7327 4.4127C17.1027 4.4127 17.3927 4.7027 17.3927 5.0627V6.4627C17.3927 6.8127 17.1027 7.1127 16.7327 7.1127ZM19.6327 8.3127C19.4127 8.0627 19.3827 7.6427 19.6327 7.4127L20.6427 6.4127C20.9027 6.1527 21.3027 6.1827 21.5427 6.4127C21.7827 6.6427 21.7927 7.0727 21.5427 7.3127L20.5627 8.3227C20.3127 8.5727 19.8827 8.5427 19.6327 8.3127ZM12.9327 8.3227L11.9327 7.3127C11.7027 7.0527 11.7027 6.6327 11.9327 6.4027C12.1927 6.1827 12.5927 6.1627 12.8527 6.4127L13.8627 7.4127C14.1127 7.6527 14.0827 8.0627 13.8627 8.3127C13.6127 8.5427 13.1927 8.5727 12.9327 8.3227ZM20.0427 11.2127C20.0427 12.3027 19.4927 13.3027 18.5927 13.9427C18.3927 11.9727 16.8327 10.5127 14.8027 10.2527C14.5727 9.9127 14.3427 9.6127 14.0427 9.3427C14.6127 8.4727 15.6227 7.9127 16.7327 7.9127C18.5827 7.9127 20.0427 9.3627 20.0427 11.2127ZM7.3027 17.7327C5.6327 17.7327 4.5127 16.6527 4.5127 15.1627C4.5127 13.9727 5.2627 13.0427 6.3127 12.6727C6.5627 10.5527 8.3627 8.8827 10.5027 8.8827C12.1227 8.8827 13.4627 9.7727 14.2227 11.1827C16.1827 11.2227 17.6527 12.6227 17.6527 14.4327C17.6527 16.2927 16.2027 17.7327 14.3027 17.7327ZM21.4827 11.8427C21.1527 11.8427 20.8527 11.5527 20.8527 11.2127C20.8527 10.8427 21.1527 10.5527 21.4827 10.5527H22.8727C23.2427 10.5527 23.5327 10.8427 23.5327 11.2127C23.5327 11.5527 23.2427 11.8427 22.8727 11.8427ZM20.6427 16.0227L19.6327 15.0227C19.3827 14.7927 19.4127 14.3527 19.6327 14.1127C19.8927 13.8727 20.3127 13.8727 20.5627 14.1127L21.5427 15.0927C21.7927 15.3427 21.7827 15.7627 21.5427 16.0127C21.3027 16.2427 20.9027 16.2827 20.6427 16.0227ZM9.0927 20.8627L10.0327 18.7027C10.1027 18.5527 10.1827 18.5027 10.4027 18.5027H11.9327C12.1027 18.5027 12.1727 18.6227 12.0827 18.7827L11.4027 20.0727H12.8427C13.0427 20.0727 13.1127 20.2627 12.9627 20.4427L9.8327 23.6127C9.6927 23.7527 9.4927 23.6427 9.5527 23.4627L10.5027 21.1627H9.2827C9.0927 21.1627 9.0227 21.0427 9.0927 20.8627Z"
        fillRule="evenodd"
        clipRule="evenodd"
    />
</svg>
        