<svg viewBox="0 0 27.890625 27.890625" xmlns="http://www.w3.org/2000/svg"><path d="M13.9427 27.8864C21.6427 27.8864 27.8927 21.6464 27.8927 13.9464C27.8927 6.2464 21.6427 -0.0036 13.9427 -0.0036C6.2527 -0.0036 0.0027 6.2464 0.0027 13.9464C0.0027 21.6464 6.2527 27.8864 13.9427 27.8864ZM13.9427 25.5664C7.5227 25.5664 2.3227 20.3664 2.3227 13.9464C2.3227 7.5164 7.5227 2.3264 13.9427 2.3264C20.3727 2.3264 25.5627 7.5164 25.5627 13.9464C25.5627 20.3664 20.3727 25.5664 13.9427 25.5664ZM9.5427 15.2964H17.6927C19.8127 15.2964 21.4327 13.6564 21.4327 11.6364C21.4327 9.5464 19.7327 8.0264 17.5127 8.0264C16.6827 6.4164 15.1627 5.3464 13.2727 5.3464C10.8127 5.3464 8.7727 7.2964 8.5427 9.7364C7.3727 10.0764 6.4627 11.1064 6.4627 12.4964C6.4627 14.0364 7.5927 15.2964 9.5427 15.2964ZM11.6527 19.1664C11.5427 19.3764 11.6327 19.5364 11.8627 19.5364H13.2927L12.1827 22.2464C12.1227 22.3664 12.1527 22.4764 12.2327 22.5164C12.3227 22.5464 12.4127 22.5164 12.5127 22.4264L16.1827 18.6664C16.3627 18.4664 16.2927 18.2264 16.0327 18.2264H14.3727L15.1727 16.6764C15.2627 16.5064 15.2027 16.3364 15.0027 16.3364H13.1827C12.9427 16.3364 12.8427 16.4164 12.7527 16.5964Z" /></svg>