<svg viewBox="0 0 27.890625 27.890625" xmlns="http://www.w3.org/2000/svg"><path d="M13.9427 27.8864C21.6427 27.8864 27.8927 21.6464 27.8927 13.9464C27.8927 6.2464 21.6427 -0.0036 13.9427 -0.0036C6.2527 -0.0036 0.0027 6.2464 0.0027 13.9464C0.0027 21.6464 6.2527 27.8864 13.9427 27.8864ZM13.9427 25.5664C7.5227 25.5664 2.3227 20.3664 2.3227 13.9464C2.3227 7.5164 7.5227 2.3264 13.9427 2.3264C20.3727 2.3264 25.5627 7.5164 25.5627 13.9464C25.5627 20.3664 20.3727 25.5664 13.9427 25.5664ZM9.8527 15.2564H17.9927C20.1227 15.2564 21.7427 13.6164 21.7427 11.6064C21.7427 9.5064 20.0327 7.9864 17.8127 7.9864C16.9927 6.3664 15.4727 5.3164 13.5927 5.3164C11.1127 5.3164 9.0927 7.2564 8.8627 9.6964C7.6827 10.0464 6.7827 11.0564 6.7827 12.4564C6.7827 13.9964 7.9027 15.2564 9.8527 15.2564ZM10.6827 18.7764L11.4427 17.4564C11.5927 17.1764 11.5127 16.7764 11.1927 16.5964C10.9127 16.4364 10.5227 16.5564 10.3627 16.8464L9.5927 18.1564C9.4427 18.4264 9.5327 18.8364 9.8327 19.0064C10.1327 19.1864 10.5127 19.0564 10.6827 18.7764ZM14.4227 18.7764L15.1927 17.4564C15.3527 17.1764 15.2727 16.7764 14.9527 16.5964C14.6727 16.4364 14.2727 16.5564 14.1227 16.8464L13.3527 18.1564C13.1927 18.4264 13.2727 18.8364 13.5927 19.0064C13.8727 19.1864 14.2727 19.0564 14.4227 18.7764ZM18.1727 18.7764L18.9327 17.4564C19.0827 17.1764 19.0027 16.7764 18.7027 16.5964C18.4027 16.4364 18.0227 16.5564 17.8527 16.8464L17.0927 18.1564C16.9427 18.4264 17.0227 18.8364 17.3227 19.0064C17.6227 19.1864 18.0027 19.0564 18.1727 18.7764ZM9.0327 22.0564C9.2127 22.0564 9.3627 21.9064 9.3527 21.6964L9.3127 21.1664L9.7527 21.4664C9.9027 21.5564 10.1127 21.4964 10.2127 21.3664C10.3127 21.2164 10.2927 20.9764 10.0727 20.8664L9.5927 20.6564L10.0727 20.4164C10.2627 20.3164 10.3127 20.1064 10.2427 19.9564C10.1427 19.7864 9.9027 19.7564 9.7527 19.8564L9.3127 20.1364L9.3527 19.6164C9.3627 19.3964 9.2127 19.2464 9.0327 19.2464C8.8227 19.2464 8.6827 19.4164 8.6927 19.6164L8.7227 20.1364L8.2827 19.8564C8.1527 19.7564 7.9127 19.7664 7.8227 19.9464C7.7527 20.0664 7.7527 20.3264 7.9727 20.4264L8.4227 20.6564L7.9727 20.8664C7.7527 20.9764 7.7127 21.1864 7.8027 21.3464C7.9027 21.5364 8.1327 21.5564 8.2827 21.4664L8.7227 21.1664L8.7127 21.6964C8.7127 21.8864 8.8227 22.0564 9.0327 22.0564ZM12.7827 22.0564C12.9627 22.0564 13.1127 21.9064 13.0927 21.6964L13.0727 21.1664L13.4927 21.4664C13.6427 21.5564 13.8727 21.4964 13.9627 21.3664C14.0727 21.2164 14.0427 20.9764 13.8227 20.8664L13.3527 20.6564L13.8227 20.4164C14.0227 20.3164 14.0527 20.1064 13.9827 19.9564C13.9027 19.7864 13.6427 19.7564 13.4927 19.8564L13.0727 20.1364L13.0927 19.6164C13.1127 19.3964 12.9627 19.2464 12.7827 19.2464C12.5827 19.2464 12.4327 19.4164 12.4427 19.6164L12.4827 20.1364L12.0327 19.8564C11.8927 19.7564 11.6727 19.7664 11.5827 19.9464C11.5027 20.0664 11.5127 20.3264 11.7127 20.4264L12.1827 20.6564L11.7127 20.8664C11.5127 20.9764 11.4727 21.1864 11.5527 21.3464C11.6527 21.5364 11.8827 21.5564 12.0327 21.4664L12.4827 21.1664L12.4527 21.6964C12.4527 21.8864 12.5827 22.0564 12.7827 22.0564ZM16.5327 22.0564C16.7027 22.0564 16.8527 21.9064 16.8427 21.6964L16.8127 21.1664L17.2427 21.4664C17.3927 21.5564 17.6127 21.4964 17.7027 21.3664C17.8127 21.2164 17.7827 20.9764 17.5727 20.8664L17.0927 20.6564L17.5727 20.4164C17.7627 20.3164 17.8027 20.1064 17.7327 19.9564C17.6327 19.7864 17.3927 19.7564 17.2427 19.8564L16.8127 20.1364L16.8427 19.6164C16.8527 19.3964 16.7027 19.2464 16.5327 19.2464C16.3127 19.2464 16.1727 19.4164 16.1827 19.6164L16.2127 20.1364L15.7727 19.8564C15.6427 19.7564 15.4127 19.7664 15.3127 19.9464C15.2427 20.0664 15.2427 20.3264 15.4627 20.4264L15.9127 20.6564L15.4627 20.8664C15.2427 20.9764 15.2027 21.1864 15.3027 21.3464C15.3927 21.5364 15.6227 21.5564 15.7727 21.4664L16.2127 21.1664L16.2027 21.6964C16.2027 21.8864 16.3127 22.0564 16.5327 22.0564Z" /></svg>