
<svg
    viewBox={0 0 27.890625 27.890625}
    xmlns="http://www.w3.org/2000/svg"
>
    <path
        fill="inherit"
        d="M13.9427 27.8864C21.6427 27.8864 27.8927 21.6464 27.8927 13.9464C27.8927 6.2464 21.6427 -0.0036 13.9427 -0.0036C6.2527 -0.0036 0.0027 6.2464 0.0027 13.9464C0.0027 21.6464 6.2527 27.8864 13.9427 27.8864ZM13.9427 25.5664C7.5227 25.5664 2.3227 20.3664 2.3227 13.9464C2.3227 7.5164 7.5227 2.3264 13.9427 2.3264C20.3727 2.3264 25.5627 7.5164 25.5627 13.9464C25.5627 20.3664 20.3727 25.5664 13.9427 25.5664ZM16.6527 7.2964C17.0127 7.2964 17.2827 7.0264 17.2827 6.6864V5.3164C17.2827 4.9764 17.0127 4.7064 16.6527 4.7064C16.3227 4.7064 16.0327 4.9764 16.0327 5.3164V6.6864C16.0327 7.0264 16.3227 7.2964 16.6527 7.2964ZM19.4727 8.4664C19.7027 8.7064 20.1227 8.7364 20.3727 8.4764L21.3327 7.5064C21.5627 7.2564 21.5427 6.8464 21.3327 6.6264C21.0827 6.3964 20.7027 6.3864 20.4527 6.6264L19.4727 7.6064C19.2227 7.8364 19.2527 8.2464 19.4727 8.4664ZM12.9727 8.4764C13.2227 8.7364 13.6327 8.7064 13.8627 8.4764C14.0827 8.2464 14.1127 7.8364 13.8627 7.6064L12.8827 6.6264C12.6327 6.3964 12.2527 6.3964 12.0027 6.6264C11.7727 6.8464 11.7727 7.2564 12.0027 7.5064ZM19.8627 11.2764C19.8627 9.5064 18.4427 8.0964 16.6527 8.0964C15.5727 8.0964 14.6027 8.6364 14.0427 9.4764C14.3327 9.7464 14.5627 10.0364 14.7827 10.3764C16.7527 10.6264 18.2527 12.0464 18.4527 13.9464C19.3327 13.3164 19.8627 12.3564 19.8627 11.2764ZM7.5027 17.6264H14.2827C16.1327 17.6264 17.5427 16.2164 17.5427 14.4064C17.5427 12.6564 16.1227 11.3064 14.2227 11.2664C13.4827 9.8964 12.1827 9.0364 10.6127 9.0364C8.5327 9.0364 6.7827 10.6464 6.5527 12.7164C5.5227 13.0664 4.8027 13.9764 4.8027 15.1364C4.8027 16.5664 5.8827 17.6264 7.5027 17.6264ZM21.2627 11.8964H22.6127C22.9727 11.8964 23.2427 11.6164 23.2427 11.2764C23.2427 10.9264 22.9727 10.6664 22.6127 10.6664H21.2627C20.9327 10.6664 20.6427 10.9264 20.6427 11.2764C20.6427 11.6164 20.9327 11.8964 21.2627 11.8964ZM20.4527 15.9564C20.7027 16.1964 21.0827 16.1764 21.3327 15.9364C21.5427 15.6964 21.5627 15.2864 21.3327 15.0664L20.3727 14.1064C20.1227 13.8764 19.7127 13.8764 19.4727 14.1064C19.2527 14.3464 19.2227 14.7564 19.4727 14.9964ZM9.2427 20.6564C9.1727 20.8264 9.2427 20.9564 9.4327 20.9564H10.6127L9.6927 23.1764C9.6227 23.3564 9.8327 23.4564 9.9627 23.3064L12.9927 20.2364C13.1427 20.0864 13.0727 19.8764 12.8627 19.8764H11.4827L12.1427 18.6364C12.2227 18.4864 12.1527 18.3464 11.9927 18.3464H10.5127C10.3127 18.3464 10.2227 18.4164 10.1627 18.5664Z"
        fillRule="evenodd"
        clipRule="evenodd"
    />
</svg>
        