
<svg
    viewBox={0 0 35.93253314782709 34.33263838720315}
    xmlns="http://www.w3.org/2000/svg"
>
    <path
        fill="inherit"
        d="M5.8012 23.6399H20.5912C24.5412 23.6399 27.6212 20.6599 27.6212 16.7999C27.6212 16.7599 27.6212 16.7199 27.6012 16.6799C32.0212 16.5299 34.7712 14.0399 35.7812 11.3999C36.2312 10.3099 35.6412 9.3099 34.5812 9.3099C33.7512 9.3099 33.0812 9.6699 31.6412 9.6699C28.1512 9.6699 26.3012 7.7199 26.3012 4.5699C26.3012 3.0099 26.7812 2.1699 26.7812 1.4099C26.7812 0.2699 25.8112 -0.2701 24.6112 0.1399C21.7112 1.0899 19.2512 4.1799 19.2512 7.9599C19.2512 8.0799 19.2612 8.1999 19.2612 8.3299C17.6112 6.3399 15.2612 5.1899 12.5812 5.1899C8.0512 5.1899 4.2612 8.6899 3.8112 13.1799C1.5412 13.8899 0.0012 15.8599 0.0012 18.3499C0.0012 21.4399 2.3212 23.6399 5.8012 23.6399ZM21.2612 7.9199C21.2612 5.2799 22.8312 3.2099 24.6212 2.2299L24.7712 2.3399C24.5412 2.9899 24.3312 3.9099 24.3312 4.9799C24.3312 8.8999 27.2112 11.6099 31.1712 11.6099C32.1412 11.6099 33.0412 11.4299 33.6712 11.2199L33.7712 11.3199C32.9212 12.9299 30.7512 14.6799 27.2712 14.6999C26.4812 12.2899 24.3512 10.5499 21.6012 10.1299C21.3712 9.4299 21.2612 8.6799 21.2612 7.9199ZM5.7412 21.4499C3.4212 21.4499 2.1912 20.1099 2.1912 18.3999C2.1912 16.9699 3.0312 15.6799 5.0412 15.1499C5.7012 14.9699 5.9512 14.6699 6.0012 13.9899C6.3212 10.1399 9.1612 7.3799 12.5812 7.3799C15.2312 7.3799 17.2912 8.8399 18.5712 11.3999C18.8712 11.9899 19.1912 12.1799 19.8912 12.1799C23.4312 12.1799 25.4112 14.3099 25.4112 16.8599C25.4112 19.4099 23.3412 21.4499 20.6312 21.4499ZM16.4512 30.0399L18.2212 26.9599C18.4712 26.5399 18.3312 26.0599 17.9212 25.8299C17.5112 25.5799 17.0512 25.7199 16.8012 26.1399L15.0112 29.2399C14.7812 29.6399 14.8912 30.1199 15.3112 30.3599C15.7212 30.5799 16.2112 30.4499 16.4512 30.0399ZM5.5612 30.0499L7.3412 26.9699C7.5912 26.5499 7.4612 26.0699 7.0512 25.8399C6.6312 25.5899 6.1612 25.7299 5.9212 26.1499L4.1312 29.2599C3.9012 29.6499 4.0212 30.1299 4.4312 30.3799C4.8412 30.5999 5.3312 30.4599 5.5612 30.0499ZM20.7112 33.8899L22.5012 30.7999C22.7512 30.3899 22.6112 29.9099 22.2012 29.6699C21.7912 29.4299 21.3312 29.5699 21.0712 29.9799L19.2812 33.0999C19.0412 33.4799 19.1712 33.9599 19.5912 34.2099C19.9912 34.4399 20.4912 34.2999 20.7112 33.8899ZM9.8412 33.9099L11.6212 30.8199C11.8712 30.4099 11.7312 29.9299 11.3312 29.6799C10.9112 29.4499 10.4412 29.5899 10.2012 29.9999L8.4112 33.1099C8.1712 33.4999 8.3012 33.9699 8.7112 34.2199C9.1212 34.4499 9.6112 34.3199 9.8412 33.9099Z"
        fillRule="evenodd"
        clipRule="evenodd"
    />
</svg>
        