
<svg
    viewBox={0 0 27.890625 27.890625}
    xmlns="http://www.w3.org/2000/svg"
>
    <path
        fill="inherit"
        d="M13.9427 27.8864C21.6427 27.8864 27.8927 21.6464 27.8927 13.9464C27.8927 6.2464 21.6427 -0.0036 13.9427 -0.0036C6.2527 -0.0036 0.0027 6.2464 0.0027 13.9464C0.0027 21.6464 6.2527 27.8864 13.9427 27.8864ZM13.9427 25.5664C7.5227 25.5664 2.3227 20.3664 2.3227 13.9464C2.3227 7.5164 7.5227 2.3264 13.9427 2.3264C20.3727 2.3264 25.5627 7.5164 25.5627 13.9464C25.5627 20.3664 20.3727 25.5664 13.9427 25.5664ZM16.9927 8.7764C17.3627 8.7764 17.6527 8.4764 17.6527 8.1164V6.6764C17.6527 6.3064 17.3627 6.0164 16.9927 6.0164C16.6427 6.0164 16.3227 6.3064 16.3227 6.6764V8.1164C16.3227 8.4764 16.6427 8.7764 16.9927 8.7764ZM19.9627 10.0064C20.2027 10.2564 20.6627 10.2764 20.9027 10.0264L21.9327 8.9864C22.1627 8.7264 22.1627 8.2964 21.9327 8.0664C21.6727 7.8164 21.2427 7.8064 20.9827 8.0664L19.9627 9.0964C19.7127 9.3364 19.7327 9.7664 19.9627 10.0064ZM13.0927 10.0264C13.3427 10.2764 13.7827 10.2564 14.0427 10.0064C14.2627 9.7664 14.2727 9.3364 14.0427 9.0964L12.9927 8.0664C12.7327 7.8164 12.3227 7.8164 12.0727 8.0664C11.8427 8.2964 11.8427 8.7264 12.0727 8.9864ZM20.3727 12.9764C20.3727 11.0864 18.8627 9.6064 16.9927 9.6064C15.8327 9.6064 14.8027 10.1864 14.2227 11.0764C14.5227 11.3464 14.7827 11.6464 15.0027 12.0064C17.0727 12.2764 18.6727 13.7764 18.8827 15.7764C19.8127 15.1164 20.3727 14.1064 20.3727 12.9764ZM7.3127 19.6564H14.4827C16.4327 19.6564 17.9127 18.1964 17.9127 16.2864C17.9127 14.4264 16.4227 13.0064 14.4127 12.9564C13.6327 11.5164 12.2627 10.6064 10.5927 10.6064C8.3927 10.6064 6.5527 12.3164 6.3127 14.4964C5.2227 14.8464 4.4427 15.8164 4.4427 17.0364C4.4427 18.5564 5.6027 19.6564 7.3127 19.6564ZM21.8627 13.6264H23.2827C23.6527 13.6264 23.9427 13.3264 23.9427 12.9764C23.9427 12.6064 23.6527 12.3364 23.2827 12.3364H21.8627C21.4927 12.3364 21.1927 12.6064 21.1927 12.9764C21.1927 13.3264 21.4927 13.6264 21.8627 13.6264ZM20.9827 17.9064C21.2427 18.1864 21.6727 18.1464 21.9327 17.8964C22.1627 17.6364 22.1727 17.2164 21.9327 16.9764L20.9027 15.9664C20.6427 15.7064 20.2227 15.7064 19.9627 15.9664C19.7327 16.2164 19.7127 16.6264 19.9627 16.8864Z"
        fillRule="evenodd"
        clipRule="evenodd"
    />
</svg>
        