
<svg
    viewBox="0 0 34.93949393138947 34.029296875"
    xmlns="http://www.w3.org/2000/svg"
>
    <path
        fill="inherit"
        d="M16.8944 17.172L22.9744 6.722C23.3944 6.012 23.4444 5.372 23.1344 4.562L21.7944 1.092C21.4944 0.312 21.0844 0.002 20.4844 0.002C19.7944 0.002 19.3144 0.532 19.1944 1.412ZM15.7244 13.122L16.5844 6.342L15.7344 1.412C15.6044 0.442 15.1044 0.002 14.4644 0.002C13.8644 0.002 13.4644 0.242 13.1444 1.092L11.8144 4.562C11.4844 5.372 11.5544 6.032 11.9744 6.722ZM16.8544 34.032H25.0344C27.4244 34.032 28.9344 32.432 28.8344 30.052L28.7344 27.722C29.1644 27.822 29.6844 27.752 30.2244 27.602L33.3844 26.692C34.6844 26.302 35.2044 25.252 34.8044 23.862L29.7144 5.372C29.4044 4.302 28.6844 3.542 27.4844 3.072L24.0644 1.762L25.1744 4.542C25.5544 5.492 25.4344 6.292 24.8544 7.232L16.8444 20.562ZM10.0944 7.232C9.5144 6.292 9.3844 5.492 9.7744 4.542L10.8744 1.762L7.4544 3.092C6.2344 3.572 5.5244 4.302 5.2344 5.382L0.1244 23.872C-0.2456 25.252 0.2044 26.322 1.5444 26.702L4.7544 27.602C5.3144 27.752 5.8244 27.822 6.2444 27.742L6.1544 30.052C6.0544 32.432 7.5744 34.032 9.9544 34.032H14.9344V15.282ZM20.8644 24.632C19.9844 24.632 19.3144 23.952 19.3344 23.092C19.3344 22.212 20.0044 21.532 20.8644 21.532C21.7344 21.532 22.4044 22.232 22.4044 23.092C22.4044 23.952 21.7244 24.632 20.8644 24.632ZM20.8644 30.912C19.9844 30.912 19.3144 30.212 19.3344 29.352C19.3344 28.482 20.0044 27.812 20.8644 27.812C21.7344 27.812 22.4044 28.502 22.4044 29.352C22.4044 30.212 21.7244 30.912 20.8644 30.912Z"
        fillRule="evenodd"
        clipRule="evenodd"
    />
</svg>
        