
<svg
    viewBox="0 0 37.321872084888064 34.220703125"
    xmlns="http://www.w3.org/2000/svg"
>
    <path
        fill="inherit"
        d="M5.4493 27.5583C6.1593 27.7783 6.8093 27.8183 7.3193 27.6483L7.1793 30.2383C7.0593 32.6383 8.5893 34.2183 10.9793 34.2183H26.3393C28.7193 34.2183 30.2593 32.6383 30.1393 30.2383L29.9993 27.6583C30.5093 27.8183 31.1493 27.7683 31.8293 27.5583L35.6393 26.4583C37.0693 26.0483 37.5893 24.8283 37.1893 23.4383L32.2393 5.8783C31.9393 4.7983 31.2593 3.9683 29.9193 3.4583L24.5593 1.4583C24.0293 0.3783 23.1293 -0.0017 21.7593 -0.0017H15.5793C14.1993 -0.0017 13.3093 0.3783 12.7793 1.4583L7.3993 3.4583C6.0593 3.9683 5.3793 4.7983 5.0593 5.8783L0.1293 23.4383C-0.2707 24.8383 0.2493 26.0483 1.6893 26.4683ZM18.2993 16.8483L20.8693 2.8683C21.0093 2.1483 21.3893 1.8283 21.9493 1.8283C22.4993 1.8283 22.8193 2.1583 23.0693 2.7783L23.8193 4.7583C24.1893 5.7283 24.3293 6.2983 23.7393 7.3383ZM17.1493 13.8583L13.5793 7.3383C13.0093 6.2883 13.1293 5.7283 13.4993 4.7583L14.2693 2.7783C14.5093 2.1483 14.8293 1.8283 15.3693 1.8283C15.9293 1.8283 16.3293 2.1283 16.4693 2.8683L17.7493 9.9483ZM10.9593 32.1183C9.7793 32.1183 9.0193 31.3083 9.0593 30.1583L9.4293 15.6283C9.4393 15.2683 9.2293 15.0283 8.9493 15.0283C8.7193 15.0283 8.5193 15.1983 8.4693 15.5183L7.6393 20.3483L6.5293 25.1283C6.4293 25.4883 6.2293 25.5483 5.9393 25.4883L2.6293 24.5683C2.2293 24.4583 2.1393 24.2083 2.2593 23.7983L6.8993 6.7983C7.1293 5.9783 7.4993 5.4383 8.2093 5.1783L11.8193 3.8383L11.5493 4.5383C10.9993 5.9183 11.0293 6.6283 11.8893 8.1083L16.2093 15.6983V32.1183ZM25.4493 8.1083C26.3193 6.6283 26.3493 5.9783 25.7893 4.5383L25.5193 3.8383L29.1093 5.1783C29.8193 5.4383 30.1893 5.9783 30.4093 6.7983L35.0693 23.7883C35.1993 24.1983 35.0893 24.4583 34.7093 24.5683L31.3393 25.4883C31.0593 25.5483 30.8393 25.4883 30.7693 25.1283L29.6293 20.1283L28.8493 15.5183C28.7993 15.1983 28.6093 15.0283 28.3793 15.0283C28.0693 15.0283 27.8793 15.2683 27.8993 15.6283L28.2693 30.1583C28.2893 31.3083 27.5393 32.1183 26.3493 32.1183H18.2993V20.0983ZM21.2293 23.7883C22.0293 23.7883 22.6593 23.1583 22.6593 22.3583C22.6593 21.5583 22.0493 20.9183 21.2293 20.9183C20.4293 20.9183 19.7993 21.5483 19.7993 22.3583C19.7893 23.1583 20.4193 23.7883 21.2293 23.7883ZM21.2293 29.7783C22.0293 29.7783 22.6593 29.1383 22.6593 28.3283C22.6593 27.5383 22.0493 26.8883 21.2293 26.8883C20.4293 26.8883 19.7993 27.5183 19.7993 28.3283C19.7893 29.1383 20.4193 29.7783 21.2293 29.7783Z"
        fillRule="evenodd"
        clipRule="evenodd"
    />
</svg>
        