
<svg
    viewBox={0 0 32.935546875 27.26189615322232}
    xmlns="http://www.w3.org/2000/svg"
>
    <path
        fill="inherit"
        d="M32.9327 16.3992C32.9327 7.7792 26.3227 0.7192 17.8927 -0.0008C17.4627 -0.0408 17.1327 0.2792 17.1327 0.7192V5.1892C17.1327 5.5592 17.3927 5.8392 17.7627 5.8692C22.9927 6.5092 27.0727 10.9792 27.0727 16.3992C27.0727 18.8592 26.2227 21.1292 24.7327 23.0292C24.5427 23.2592 24.5527 23.5592 24.7627 23.7792L28.0227 27.0292C28.3327 27.3292 28.7927 27.3292 29.0627 27.0092C31.4827 24.1392 32.9327 20.4292 32.9327 16.3992ZM0.0027 16.3992C0.0027 20.4392 1.4527 24.1492 3.8727 27.0192C4.1427 27.3492 4.5927 27.3292 4.9127 27.0292L8.1727 23.7792C8.3827 23.5592 8.3927 23.2592 8.2027 23.0292C6.7027 21.1292 5.8627 18.8592 5.8627 16.3992C5.8627 10.9792 9.9427 6.5092 15.1727 5.8692C15.5427 5.8392 15.8027 5.5592 15.8027 5.1892V0.7192C15.8027 0.2792 15.4727 -0.0408 15.0427 -0.0008C6.6127 0.7192 0.0027 7.7792 0.0027 16.3992ZM13.3527 24.4792C13.5927 24.4792 13.7527 24.3692 13.8227 24.1092L14.3127 22.1392C14.7827 22.3392 15.3027 22.4792 15.8627 22.5492L15.5427 23.7792C15.5327 23.8592 15.5127 23.9392 15.5127 24.0292C15.5127 24.2892 15.7227 24.4792 15.9827 24.4792C16.2127 24.4792 16.3827 24.3692 16.4427 24.1092L16.8327 22.5892C18.8227 22.5192 20.5727 21.5192 21.1827 19.7992C21.2627 19.5792 21.3027 19.3792 21.3027 19.1592C21.3027 18.6392 20.9427 18.4192 20.5727 18.4192C20.1427 18.4192 19.9327 18.6792 19.7927 19.0492C19.3827 20.2492 18.4027 20.9592 17.1827 21.1292L19.2227 13.0092C19.4427 13.2792 19.6027 13.5792 19.7027 13.9092C19.8227 14.2892 20.0127 14.5392 20.4627 14.5392C20.9327 14.5392 21.2027 14.2492 21.2027 13.8092C21.2027 13.6092 21.1627 13.3592 21.0827 13.1592C20.7627 12.3892 20.2627 11.7792 19.6427 11.3192L20.1427 9.3992C20.1627 9.2692 20.1827 9.2092 20.1827 9.1492C20.1827 8.8992 20.0027 8.7092 19.7327 8.7092C19.4727 8.7092 19.3027 8.8392 19.2327 9.0792L18.8027 10.8192C18.3227 10.5992 17.8027 10.4592 17.2527 10.3892L17.5127 9.3992C17.5427 9.2692 17.5527 9.2092 17.5527 9.1492C17.5527 8.8992 17.3627 8.7092 17.1027 8.7092C16.8427 8.7092 16.6827 8.8392 16.6127 9.0792L16.2927 10.3692C13.0727 10.5192 11.2227 13.0492 11.2227 16.4692C11.2227 18.6792 11.9927 20.5692 13.4627 21.6492L12.9227 23.7792C12.9027 23.8592 12.8927 23.9392 12.8927 24.0292C12.8927 24.2892 13.0827 24.4792 13.3527 24.4792ZM14.6927 20.6192L16.9127 11.7892C17.4627 11.8392 17.9927 12.0192 18.4327 12.2992L16.2127 21.1492C15.6227 21.0992 15.1227 20.9092 14.6927 20.6192ZM12.9027 16.4692C12.9027 14.2092 13.9027 12.1992 15.9327 11.8392L13.9027 19.8792C13.2227 19.0092 12.9027 17.7592 12.9027 16.4692Z"
        fillRule="evenodd"
        clipRule="evenodd"
    />
</svg>
        