
<svg
    viewBox="0 0 27.890625 27.890625"
    xmlns="http://www.w3.org/2000/svg"
>
    <path
        fill="inherit"
        d="M13.9427 27.8864C21.6427 27.8864 27.8927 21.6464 27.8927 13.9464C27.8927 6.2464 21.6427 -0.0036 13.9427 -0.0036C6.2527 -0.0036 0.0027 6.2464 0.0027 13.9464C0.0027 21.6464 6.2527 27.8864 13.9427 27.8864ZM13.9427 25.5664C7.5227 25.5664 2.3227 20.3664 2.3227 13.9464C2.3227 7.5164 7.5227 2.3264 13.9427 2.3264C20.3727 2.3264 25.5627 7.5164 25.5627 13.9464C25.5627 20.3664 20.3727 25.5664 13.9427 25.5664ZM10.8427 21.8364C11.0727 21.8364 11.2227 21.7264 11.2927 21.4764L11.8027 19.4964C12.2627 19.6964 12.7727 19.8564 13.3427 19.9164L13.0327 21.1364C13.0127 21.2164 13.0027 21.3164 13.0027 21.3864C13.0027 21.6464 13.1927 21.8364 13.4627 21.8364C13.7027 21.8364 13.8627 21.7264 13.9227 21.4764L14.3027 19.9464C16.2927 19.8764 18.0627 18.8964 18.6627 17.1564C18.7427 16.9564 18.7827 16.7364 18.7827 16.5164C18.7827 15.9964 18.4327 15.7764 18.0427 15.7764C17.6127 15.7764 17.4227 16.0364 17.2627 16.4164C16.8727 17.6064 15.8727 18.3164 14.6727 18.4964L16.7027 10.3764C16.9227 10.6464 17.0727 10.9464 17.1827 11.2764C17.3127 11.6664 17.4827 11.9064 17.9527 11.9064C18.4127 11.9064 18.6927 11.6164 18.6927 11.1864C18.6927 10.9764 18.6327 10.7164 18.5527 10.5164C18.2427 9.7464 17.7427 9.1364 17.1327 8.6864L17.6127 6.7664C17.6527 6.6464 17.6627 6.5664 17.6627 6.5264C17.6627 6.2764 17.4727 6.0864 17.2127 6.0864C16.9427 6.0864 16.7927 6.2064 16.7227 6.4364L16.2827 8.1864C15.8027 7.9664 15.2727 7.8364 14.7427 7.7664L14.9827 6.7664C15.0227 6.6464 15.0427 6.5664 15.0427 6.5264C15.0427 6.2764 14.8427 6.0864 14.5727 6.0864C14.3127 6.0864 14.1627 6.2064 14.0927 6.4364L13.7627 7.7364C10.5527 7.8864 8.7127 10.4164 8.7127 13.8364C8.7127 16.0364 9.4727 17.9364 10.9327 19.0064L10.4027 21.1364C10.3727 21.2164 10.3627 21.3164 10.3627 21.3864C10.3627 21.6464 10.5727 21.8364 10.8427 21.8364ZM12.1727 17.9964L14.3827 9.1564C14.9427 9.2164 15.4627 9.3964 15.9127 9.6664L13.6827 18.5264C13.0927 18.4564 12.5927 18.2764 12.1727 17.9964ZM10.3727 13.8364C10.3727 11.5664 11.3727 9.5564 13.4027 9.1964L11.3927 17.2564C10.7027 16.3664 10.3727 15.1364 10.3727 13.8364Z"
        fillRule="evenodd"
        clipRule="evenodd"
    />
</svg>
        