
<svg
    viewBox="0 0 27.890625 27.890625"
    xmlns="http://www.w3.org/2000/svg"
>
    <path
        fill="inherit"
        d="M13.9427 27.8864C21.6427 27.8864 27.8927 21.6264 27.8927 13.9464C27.8927 6.2464 21.6427 -0.0036 13.9427 -0.0036C6.2627 -0.0036 0.0027 6.2464 0.0027 13.9464C0.0027 21.6264 6.2627 27.8864 13.9427 27.8864ZM13.4627 22.0764C13.1927 22.0764 12.9927 21.8864 12.9927 21.6164C12.9927 21.5464 13.0027 21.4464 13.0127 21.3664L13.3427 20.0964C12.7527 20.0264 12.2227 19.8964 11.7427 19.6764L11.2427 21.7064C11.1527 21.9664 11.0027 22.0764 10.7627 22.0764C10.4827 22.0764 10.2627 21.8864 10.2627 21.6164C10.2627 21.5464 10.2827 21.4464 10.3127 21.3664L10.8527 19.1664C9.3427 18.0564 8.5627 16.1064 8.5627 13.8364C8.5627 10.2964 10.4627 7.6964 13.7827 7.5364L14.1227 6.2164C14.1927 5.9564 14.3427 5.8364 14.6127 5.8364C14.9027 5.8364 15.0927 6.0264 15.0927 6.2864C15.0927 6.3264 15.0827 6.4164 15.0427 6.5364L14.7927 7.5764C15.3427 7.6464 15.8727 7.7764 16.3827 8.0164L16.8327 6.2164C16.9027 5.9564 17.0527 5.8364 17.3227 5.8364C17.6127 5.8364 17.8027 6.0264 17.8027 6.2864C17.8027 6.3264 17.7827 6.4164 17.7427 6.5364L17.2527 8.5164C17.8827 8.9864 18.4027 9.6064 18.7127 10.4064C18.8027 10.6064 18.8627 10.8864 18.8627 11.0864C18.8627 11.5564 18.5827 11.8364 18.1027 11.8364C17.6127 11.8364 17.4327 11.5964 17.3127 11.1964C17.2127 10.8464 17.0527 10.5364 16.8127 10.2764L14.7227 18.6364C15.9527 18.4564 16.9827 17.7164 17.3927 16.5064C17.5427 16.1064 17.7427 15.8364 18.1927 15.8364C18.5927 15.8364 18.9627 16.0664 18.9627 16.5964C18.9627 16.8264 18.9227 17.0464 18.8427 17.2664C18.2127 19.0264 16.4227 20.1564 14.3527 20.1564H14.3427L13.9427 21.7064C13.8727 21.9664 13.7127 22.0764 13.4627 22.0764ZM12.1227 18.1164C12.5627 18.4064 13.0927 18.6064 13.7027 18.6664L15.9927 9.5264C15.5427 9.2564 15.0027 9.0664 14.4227 9.0064ZM10.2927 13.8364C10.2927 15.1664 10.6327 16.4164 11.3227 17.3364L13.4027 9.0664C11.3227 9.4464 10.2927 11.4964 10.2927 13.8364Z"
        fillRule="evenodd"
        clipRule="evenodd"
    />
</svg>
        