<svg viewBox="0 0 30.544813437289534 27.890625" xmlns="http://www.w3.org/2000/svg"><path d="M0.9769 11.3064C-0.0131 11.3064 -0.2531 11.9764 0.2769 12.7464L3.3369 17.0864C3.7869 17.7164 4.4469 17.7064 4.8869 17.0864L7.9269 12.7264C8.4669 11.9764 8.2069 11.3064 7.2469 11.3064H5.2769C6.4669 6.1564 11.0769 2.3264 16.5969 2.3264C23.0269 2.3264 28.2169 7.5164 28.2169 13.9464C28.2169 20.3664 23.0269 25.5664 16.5969 25.5664C12.7169 25.5664 9.2569 23.6564 7.1969 20.7564C6.7669 20.1964 6.1269 20.0164 5.5569 20.3564C5.0069 20.6964 4.8369 21.4664 5.3069 22.0664C7.8369 25.6064 11.9769 27.8864 16.5969 27.8864C24.2969 27.8864 30.5469 21.6464 30.5469 13.9464C30.5469 6.2464 24.2969 -0.0036 16.5969 -0.0036C9.8069 -0.0036 4.1269 4.8664 2.8969 11.3064ZM13.5069 21.8364C13.7469 21.8364 13.8969 21.7264 13.9569 21.4764L14.4669 19.4964C14.9269 19.6964 15.4369 19.8564 16.0069 19.9164L15.6969 21.1364C15.6869 21.2164 15.6669 21.3164 15.6669 21.3864C15.6669 21.6464 15.8569 21.8364 16.1369 21.8364C16.3669 21.8364 16.5269 21.7264 16.5869 21.4764L16.9669 19.9464C18.9669 19.8764 20.7269 18.8964 21.3269 17.1564C21.4169 16.9564 21.4569 16.7364 21.4569 16.5164C21.4569 15.9964 21.0969 15.7764 20.7169 15.7764C20.2769 15.7764 20.0869 16.0364 19.9369 16.4164C19.5369 17.6064 18.5369 18.3164 17.3369 18.4964L19.3769 10.3764C19.5969 10.6464 19.7469 10.9464 19.8569 11.2764C19.9769 11.6664 20.1569 11.9064 20.6169 11.9064C21.0869 11.9064 21.3569 11.6164 21.3569 11.1864C21.3569 10.9764 21.3069 10.7164 21.2169 10.5164C20.9069 9.7464 20.4169 9.1364 19.7969 8.6864L20.2769 6.7664C20.3169 6.6464 20.3369 6.5664 20.3369 6.5264C20.3369 6.2764 20.1369 6.0864 19.8669 6.0864C19.6069 6.0864 19.4569 6.2064 19.3869 6.4364L18.9469 8.1864C18.4769 7.9664 17.9369 7.8364 17.4069 7.7664L17.6569 6.7664C17.6969 6.6464 17.7069 6.5664 17.7069 6.5264C17.7069 6.2764 17.5169 6.0864 17.2469 6.0864C16.9869 6.0864 16.8369 6.2064 16.7669 6.4364L16.4369 7.7364C13.2269 7.8864 11.3769 10.4164 11.3769 13.8364C11.3769 16.0364 12.1469 17.9364 13.6069 19.0064L13.0769 21.1364C13.0469 21.2164 13.0269 21.3164 13.0269 21.3864C13.0269 21.6464 13.2369 21.8364 13.5069 21.8364ZM14.8369 17.9964L17.0469 9.1564C17.6069 9.2164 18.1269 9.3964 18.5869 9.6664L16.3569 18.5264C15.7669 18.4564 15.2569 18.2764 14.8369 17.9964ZM13.0469 13.8364C13.0469 11.5664 14.0469 9.5564 16.0669 9.1964L14.0569 17.2564C13.3769 16.3664 13.0469 15.1364 13.0469 13.8364Z" /></svg>