
<svg
    viewBox="0 0 32.935546875 27.33018496744969"
    xmlns="http://www.w3.org/2000/svg"
>
    <path
        fill="inherit"
        d="M16.4627 5.864C18.9327 5.864 21.2027 6.724 23.0227 8.134C23.2927 8.354 23.6527 8.324 23.9127 8.064L27.0827 4.894C27.4027 4.584 27.3827 4.124 27.0527 3.854C24.2027 1.454 20.4927 0.004 16.4627 0.004C12.4427 0.004 8.7327 1.454 5.8827 3.854C5.5527 4.124 5.5327 4.584 5.8527 4.894L9.0227 8.064C9.2827 8.324 9.6527 8.354 9.9527 8.124C11.7627 6.724 14.0127 5.864 16.4627 5.864ZM0.0027 16.464C0.0027 20.494 1.4527 24.204 3.8727 27.074C4.1427 27.414 4.6027 27.414 4.9127 27.094L8.1627 23.844C8.3627 23.624 8.3927 23.324 8.2027 23.094C6.7127 21.194 5.8627 18.924 5.8627 16.464C5.8627 14.014 6.7027 11.744 8.1227 9.944C8.3427 9.654 8.3427 9.284 8.0827 9.024L4.9127 5.854C4.5927 5.534 4.1427 5.534 3.8727 5.864C1.4527 8.734 0.0027 12.444 0.0027 16.464ZM32.9327 16.464C32.9327 12.444 31.4827 8.734 29.0627 5.864C28.7927 5.534 28.3327 5.534 28.0227 5.854L24.8527 9.024C24.5927 9.284 24.5827 9.654 24.8127 9.944C26.2227 11.744 27.0727 14.014 27.0727 16.464C27.0727 18.924 26.2227 21.194 24.7327 23.094C24.5427 23.324 24.5527 23.624 24.7627 23.844L28.0127 27.094C28.3327 27.414 28.7827 27.414 29.0627 27.074C31.4827 24.204 32.9327 20.494 32.9327 16.464ZM13.3527 24.544C13.5927 24.544 13.7527 24.434 13.8227 24.174L14.3127 22.204C14.7827 22.404 15.3027 22.544 15.8627 22.614L15.5427 23.844C15.5327 23.924 15.5127 24.004 15.5127 24.094C15.5127 24.354 15.7227 24.544 15.9827 24.544C16.2127 24.544 16.3827 24.434 16.4427 24.174L16.8327 22.654C18.8227 22.584 20.5727 21.584 21.1827 19.864C21.2627 19.644 21.3027 19.444 21.3027 19.224C21.3027 18.704 20.9427 18.484 20.5727 18.484C20.1427 18.484 19.9327 18.744 19.7927 19.114C19.3827 20.314 18.4027 21.024 17.1827 21.194L19.2227 13.074C19.4427 13.344 19.6027 13.644 19.7027 13.974C19.8227 14.354 20.0127 14.604 20.4627 14.604C20.9327 14.604 21.2027 14.314 21.2027 13.874C21.2027 13.674 21.1627 13.424 21.0827 13.224C20.7627 12.454 20.2627 11.844 19.6427 11.384L20.1427 9.464C20.1627 9.334 20.1827 9.274 20.1827 9.214C20.1827 8.964 20.0027 8.774 19.7327 8.774C19.4727 8.774 19.3027 8.904 19.2327 9.144L18.8027 10.884C18.3227 10.664 17.8027 10.524 17.2527 10.454L17.5127 9.464C17.5427 9.334 17.5527 9.274 17.5527 9.214C17.5527 8.964 17.3627 8.774 17.1027 8.774C16.8427 8.774 16.6827 8.904 16.6127 9.144L16.2927 10.434C13.0727 10.584 11.2227 13.114 11.2227 16.534C11.2227 18.744 11.9927 20.634 13.4627 21.714L12.9227 23.844C12.9027 23.924 12.8927 24.004 12.8927 24.094C12.8927 24.354 13.0827 24.544 13.3527 24.544ZM14.6927 20.684L16.9127 11.854C17.4627 11.904 17.9927 12.084 18.4327 12.364L16.2127 21.214C15.6227 21.164 15.1227 20.974 14.6927 20.684ZM12.9027 16.534C12.9027 14.274 13.9027 12.264 15.9327 11.904L13.9027 19.944C13.2227 19.074 12.9027 17.824 12.9027 16.534Z"
        fillRule="evenodd"
        clipRule="evenodd"
    />
</svg>
        