
<svg
    viewBox={0 0 25.169921875 25.169921875}
    xmlns="http://www.w3.org/2000/svg"
>
    <path
        fill="inherit"
        d="M4.2937 25.1692H20.8737C23.7437 25.1692 25.1737 23.7592 25.1737 20.9492V4.2392C25.1737 1.4192 23.7437 -0.0008 20.8737 -0.0008H4.2937C1.4337 -0.0008 0.0037 1.4192 0.0037 4.2392V20.9492C0.0037 23.7592 1.4337 25.1692 4.2937 25.1692ZM12.1137 20.7092C11.8437 20.7092 11.6337 20.5192 11.6337 20.2492C11.6337 20.1792 11.6437 20.0792 11.6637 19.9992L11.9937 18.7292C11.4037 18.6592 10.8837 18.5292 10.4037 18.3092L9.8837 20.3392C9.8137 20.5992 9.6537 20.7092 9.4037 20.7092C9.1337 20.7092 8.9237 20.5192 8.9237 20.2492C8.9237 20.1792 8.9437 20.0792 8.9537 19.9992L9.5137 17.7992C7.9937 16.6892 7.2037 14.7392 7.2037 12.4692C7.2037 8.9292 9.1037 6.3292 12.4437 6.1692L12.7737 4.8492C12.8337 4.5892 12.9837 4.4692 13.2737 4.4692C13.5537 4.4692 13.7437 4.6592 13.7437 4.9192C13.7437 4.9592 13.7237 5.0492 13.6837 5.1692L13.4437 6.2092C13.9837 6.2792 14.5337 6.4092 15.0237 6.6492L15.4737 4.8492C15.5437 4.5892 15.6937 4.4692 15.9837 4.4692C16.2537 4.4692 16.4437 4.6592 16.4437 4.9192C16.4437 4.9592 16.4337 5.0492 16.3937 5.1692L15.9037 7.1492C16.5337 7.6192 17.0537 8.2392 17.3637 9.0392C17.4437 9.2392 17.5137 9.5192 17.5137 9.7192C17.5137 10.1892 17.2237 10.4692 16.7437 10.4692C16.2537 10.4692 16.0737 10.2292 15.9537 9.8292C15.8637 9.4792 15.6937 9.1692 15.4737 8.9092L13.3737 17.2692C14.6037 17.0892 15.6237 16.3492 16.0537 15.1392C16.1837 14.7392 16.4037 14.4692 16.8437 14.4692C17.2437 14.4692 17.6137 14.6992 17.6137 15.2292C17.6137 15.4592 17.5637 15.6792 17.4837 15.8992C16.8537 17.6592 15.0637 18.7892 13.0037 18.7892H12.9837L12.6037 20.3392C12.5237 20.5992 12.3637 20.7092 12.1137 20.7092ZM10.7837 16.7492C11.2137 17.0392 11.7437 17.2392 12.3437 17.2992L14.6437 8.1592C14.1937 7.8892 13.6437 7.6992 13.0737 7.6392ZM8.9437 12.4692C8.9437 13.7992 9.2837 15.0492 9.9637 15.9692L12.0537 7.6992C9.9637 8.0792 8.9437 10.1292 8.9437 12.4692Z"
        fillRule="evenodd"
        clipRule="evenodd"
    />
</svg>
        