<svg viewBox="0 0 30.529296875 29.17578125" xmlns="http://www.w3.org/2000/svg"><path d="M1.8137 25.919H28.7137V25.009C28.7137 24.459 28.3937 24.129 27.8337 24.129H26.9637V9.379H28.1637C28.9137 9.379 29.3537 8.829 29.3537 8.269C29.3537 7.859 29.1237 7.509 28.6137 7.219L16.9437 0.479C16.3937 0.169 15.8137 -0.001 15.2537 -0.001C14.6937 -0.001 14.1137 0.169 13.5937 0.479L1.9137 7.219C1.3937 7.509 1.1737 7.859 1.1737 8.269C1.1737 8.829 1.6137 9.379 2.3637 9.379H3.5637V24.129H2.7037C2.1437 24.129 1.8137 24.459 1.8137 25.009ZM5.6337 24.129V7.629L14.7237 2.529C14.8937 2.429 15.0837 2.379 15.2537 2.379C15.4337 2.379 15.6237 2.429 15.8037 2.529L24.8937 7.629V24.129ZM12.1837 22.289C12.4137 22.289 12.5637 22.179 12.6337 21.919L13.1437 19.949C13.6037 20.149 14.1137 20.289 14.6837 20.359L14.3737 21.589C14.3537 21.669 14.3437 21.749 14.3437 21.829C14.3437 22.089 14.5337 22.289 14.8037 22.289C15.0437 22.289 15.2037 22.179 15.2537 21.919L15.6437 20.399C17.6337 20.329 19.4037 19.329 20.0037 17.609C20.0837 17.389 20.1237 17.189 20.1237 16.969C20.1237 16.449 19.7537 16.229 19.3837 16.229C18.9537 16.229 18.7537 16.489 18.6037 16.859C18.2137 18.059 17.2137 18.769 16.0137 18.939L18.0437 10.819C18.2637 11.089 18.4137 11.389 18.5237 11.719C18.6437 12.099 18.8237 12.349 19.2937 12.349C19.7437 12.349 20.0337 12.059 20.0337 11.619C20.0337 11.419 19.9737 11.169 19.8937 10.969C19.5737 10.199 19.0837 9.579 18.4737 9.129L18.9537 7.209C18.9937 7.079 19.0037 7.009 19.0037 6.959C19.0037 6.709 18.8137 6.519 18.5437 6.519C18.2837 6.519 18.1337 6.649 18.0637 6.889L17.6237 8.629C17.1437 8.409 16.6137 8.269 16.0737 8.199L16.3237 7.209C16.3637 7.079 16.3837 7.009 16.3837 6.959C16.3837 6.709 16.1837 6.519 15.9137 6.519C15.6537 6.519 15.5037 6.649 15.4337 6.889L15.1037 8.179C11.8937 8.329 10.0537 10.859 10.0537 14.269C10.0537 16.489 10.8137 18.379 12.2737 19.459L11.7437 21.589C11.7137 21.669 11.7037 21.749 11.7037 21.829C11.7037 22.089 11.9037 22.289 12.1837 22.289ZM13.5037 18.429L15.7237 9.599C16.2837 9.649 16.8037 9.829 17.2537 10.099L15.0237 18.959C14.4337 18.909 13.9337 18.719 13.5037 18.429ZM11.7137 14.269C11.7137 12.019 12.7137 10.009 14.7337 9.649L12.7137 17.689C12.0437 16.819 11.7137 15.569 11.7137 14.269ZM1.0937 29.179H29.4237C30.0237 29.179 30.5337 28.669 30.5337 28.069C30.5337 27.469 30.0237 26.979 29.4237 26.979H1.0937C0.4937 26.979 0.0037 27.469 0.0037 28.069C0.0037 28.669 0.4937 29.179 1.0937 29.179Z" /></svg>