
<svg
    viewBox={0 0 25.169921875 25.169921875}
    xmlns="http://www.w3.org/2000/svg"
>
    <path
        fill="inherit"
        d="M4.2937 25.1692H20.8737C23.7437 25.1692 25.1737 23.7592 25.1737 20.9492V4.2392C25.1737 1.4192 23.7437 -0.0008 20.8737 -0.0008H4.2937C1.4337 -0.0008 0.0037 1.4192 0.0037 4.2392V20.9492C0.0037 23.7592 1.4337 25.1692 4.2937 25.1692ZM4.3237 22.9692C2.9537 22.9692 2.2037 22.2392 2.2037 20.8192V4.3592C2.2037 2.9392 2.9537 2.1992 4.3237 2.1992H20.8537C22.2037 2.1992 22.9737 2.9392 22.9737 4.3592V20.8192C22.9737 22.2392 22.2037 22.9692 20.8537 22.9692ZM9.5037 20.4692C9.7337 20.4692 9.8937 20.3592 9.9537 20.1092L10.4637 18.1292C10.9237 18.3292 11.4337 18.4892 12.0037 18.5492L11.6937 19.7692C11.6737 19.8492 11.6637 19.9492 11.6637 20.0192C11.6637 20.2792 11.8537 20.4692 12.1237 20.4692C12.3637 20.4692 12.5237 20.3592 12.5937 20.1092L12.9637 18.5792C14.9537 18.5092 16.7237 17.5292 17.3237 15.7892C17.4037 15.5892 17.4437 15.3692 17.4437 15.1492C17.4437 14.6292 17.0937 14.4092 16.7037 14.4092C16.2837 14.4092 16.0737 14.6692 15.9437 15.0492C15.5337 16.2392 14.5337 16.9492 13.3337 17.1292L15.3637 9.0092C15.5837 9.2792 15.7537 9.5792 15.8437 9.9092C15.9737 10.2992 16.1437 10.5392 16.6137 10.5392C17.0737 10.5392 17.3537 10.2492 17.3537 9.8192C17.3537 9.6092 17.2937 9.3492 17.2137 9.1492C16.9137 8.3792 16.4037 7.7692 15.7937 7.3192L16.2737 5.3992C16.3137 5.2792 16.3237 5.1992 16.3237 5.1592C16.3237 4.9092 16.1337 4.7192 15.8737 4.7192C15.6037 4.7192 15.4537 4.8392 15.3837 5.0692L14.9437 6.8192C14.4637 6.5992 13.9437 6.4692 13.3937 6.3992L13.6437 5.3992C13.6837 5.2792 13.7037 5.1992 13.7037 5.1592C13.7037 4.9092 13.5037 4.7192 13.2437 4.7192C12.9737 4.7192 12.8237 4.8392 12.7537 5.0692L12.4237 6.3692C9.2137 6.5192 7.3737 9.0492 7.3737 12.4692C7.3737 14.6692 8.1337 16.5692 9.5937 17.6392L9.0637 19.7692C9.0537 19.8492 9.0337 19.9492 9.0337 20.0192C9.0337 20.2792 9.2237 20.4692 9.5037 20.4692ZM10.8237 16.6292L13.0437 7.7892C13.6037 7.8492 14.1337 8.0292 14.5737 8.2992L12.3437 17.1592C11.7537 17.0892 11.2537 16.9092 10.8237 16.6292ZM9.0337 12.4692C9.0337 10.1992 10.0337 8.1892 12.0537 7.8292L10.0537 15.8892C9.3637 14.9992 9.0337 13.7692 9.0337 12.4692Z"
        fillRule="evenodd"
        clipRule="evenodd"
    />
</svg>
        