<svg viewBox="0 0 19.919921875 31.650390625" xmlns="http://www.w3.org/2000/svg"><path d="M3.9337 31.6531C4.4537 31.6531 4.7737 31.4131 4.8837 30.9131L5.9337 26.8231C6.8937 27.2731 7.9737 27.5931 9.1637 27.7231L8.5037 30.2731C8.4637 30.4631 8.4337 30.6431 8.4337 30.8131C8.4337 31.2431 8.7637 31.6531 9.3137 31.6531C9.8337 31.6531 10.1437 31.4131 10.2637 30.9131L11.0637 27.7931C14.9837 27.6731 18.3937 25.8131 19.7037 22.2031C19.8337 21.8331 19.9237 21.2831 19.9237 20.9431C19.9237 20.1631 19.4437 19.7331 18.6637 19.7331C17.9237 19.7331 17.5537 20.1631 17.3237 20.8231C16.5937 23.3831 14.3737 24.9331 11.7037 25.2631L16.0537 8.2731C16.5337 8.8731 16.9137 9.5831 17.1437 10.3931C17.3937 11.1031 17.7337 11.4931 18.4937 11.4931C19.2337 11.4931 19.7437 11.0231 19.7437 10.2631C19.7437 9.9231 19.6637 9.4231 19.5137 9.0231C18.9637 7.5031 18.0037 6.2731 16.7937 5.3331L17.8037 1.3931C17.8437 1.2031 17.8837 1.0631 17.8837 0.9131C17.8837 0.3731 17.5537 0.0031 16.9437 0.0031C16.4837 0.0031 16.1637 0.2731 16.0337 0.7431L15.1337 4.3231C14.1337 3.8531 13.0437 3.5431 11.9037 3.4131L12.4137 1.3931C12.4737 1.2031 12.4937 1.0631 12.4937 0.9131C12.4937 0.3731 12.1637 0.0031 11.5537 0.0031C11.1037 0.0031 10.7837 0.2731 10.6637 0.7431L9.9937 3.3531C3.5537 3.6631 0.0037 8.7731 0.0037 15.5331C0.0037 19.9431 1.4737 23.6531 4.2637 25.8031L3.1337 30.2731C3.0737 30.4631 3.0537 30.6431 3.0537 30.8131C3.0537 31.2431 3.3937 31.6531 3.9337 31.6531ZM6.5937 24.2131L11.2937 5.8331C12.4437 5.9331 13.5337 6.3031 14.4737 6.8731L9.7737 25.2931C8.5437 25.1731 7.4937 24.8031 6.5937 24.2131ZM2.8737 15.5331C2.8737 10.6131 5.0337 6.5631 9.3537 5.9031L5.0437 22.7931C3.5837 20.9831 2.8737 18.3931 2.8737 15.5331Z" /></svg>