
<svg
    viewBox="0 0 30.529296875 29.17578125"
    xmlns="http://www.w3.org/2000/svg"
>
    <path
        fill="inherit"
        d="M1.0937 29.179H29.4237C30.0237 29.179 30.5337 28.669 30.5337 28.069C30.5337 27.469 30.0237 26.979 29.4237 26.979H28.7137V25.979C28.7137 25.429 28.3937 25.099 27.8337 25.099H26.9637V9.379H28.1637C28.9137 9.379 29.3537 8.829 29.3537 8.269C29.3537 7.859 29.1237 7.509 28.6137 7.219L16.9437 0.479C16.3937 0.169 15.8137 -0.001 15.2537 -0.001C14.6937 -0.001 14.1137 0.169 13.5937 0.479L1.9137 7.219C1.3937 7.509 1.1737 7.859 1.1737 8.269C1.1737 8.829 1.6137 9.379 2.3637 9.379H3.5637V25.099H2.7037C2.1437 25.099 1.8137 25.429 1.8137 25.979V26.979H1.0937C0.4937 26.979 0.0037 27.469 0.0037 28.069C0.0037 28.669 0.4937 29.179 1.0937 29.179ZM14.7937 23.749C14.5237 23.749 14.3137 23.559 14.3137 23.279C14.3137 23.219 14.3237 23.119 14.3437 23.039L14.6737 21.769C14.0837 21.699 13.5537 21.559 13.0737 21.339L12.5637 23.369C12.4837 23.639 12.3337 23.749 12.0837 23.749C11.8137 23.749 11.5937 23.559 11.5937 23.279C11.5937 23.219 11.6037 23.119 11.6337 23.039L12.1837 20.839C10.6637 19.729 9.8837 17.769 9.8837 15.489C9.8837 11.959 11.7837 9.369 15.1037 9.199L15.4537 7.879C15.5137 7.619 15.6637 7.509 15.9437 7.509C16.2237 7.509 16.4237 7.699 16.4237 7.959C16.4237 7.999 16.4037 8.079 16.3637 8.199L16.1237 9.239C16.6637 9.299 17.2037 9.449 17.7037 9.669L18.1537 7.879C18.2237 7.619 18.3737 7.509 18.6437 7.509C18.9337 7.509 19.1237 7.699 19.1237 7.959C19.1237 7.999 19.1137 8.079 19.0737 8.199L18.5837 10.189C19.2137 10.649 19.7237 11.279 20.0437 12.069C20.1237 12.279 20.1937 12.549 20.1937 12.759C20.1937 13.219 19.8937 13.509 19.4237 13.509C18.9337 13.509 18.7537 13.259 18.6337 12.849C18.5437 12.509 18.3737 12.209 18.1437 11.949L16.0537 20.299C17.2837 20.129 18.3037 19.389 18.7137 18.159C18.8637 17.769 19.0737 17.499 19.5237 17.499C19.9037 17.499 20.2937 17.729 20.2937 18.269C20.2937 18.499 20.2437 18.699 20.1637 18.939C19.5337 20.699 17.7437 21.809 15.6837 21.809H15.6637L15.2737 23.369C15.2037 23.639 15.0437 23.749 14.7937 23.749ZM13.4537 19.779C13.8937 20.069 14.4237 20.279 15.0237 20.319L17.3237 11.199C16.8737 10.909 16.3237 10.729 15.7537 10.679ZM11.6237 15.489C11.6237 16.819 11.9537 18.089 12.6437 18.999L14.7237 10.729C12.6437 11.119 11.6237 13.169 11.6237 15.489Z"
        fillRule="evenodd"
        clipRule="evenodd"
    />
</svg>
        