
<svg
    viewBox={0 0 31.389026889320334 31.397531654094827}
    xmlns="http://www.w3.org/2000/svg"
>
    <path
        fill="inherit"
        d="M1.4639 24.9115L7.6139 31.0815C8.0339 31.5015 8.7639 31.5015 9.1839 31.0815C9.6139 30.6415 9.5939 29.9415 9.1839 29.5215L5.1639 25.4915L6.5739 24.0815L10.7039 28.2515C11.0639 28.6015 11.6439 28.6015 12.0039 28.2515C12.3539 27.8815 12.3739 27.2915 12.0139 26.9415L7.8739 22.7815L9.2839 21.3715L13.4139 25.5415C13.7839 25.9015 14.3639 25.9015 14.7139 25.5415C15.0639 25.1715 15.0739 24.5815 14.7239 24.2315L10.5839 20.0715L11.9839 18.6615L16.1139 22.8315C16.4739 23.1915 17.0639 23.1915 17.4139 22.8315C17.7739 22.4615 17.7839 21.8815 17.4339 21.5215L13.2839 17.3715L14.6939 15.9615L18.8239 20.1115C19.1939 20.4815 19.7839 20.4815 20.1239 20.1115C20.4839 19.7615 20.4939 19.1615 20.1339 18.8115L15.9939 14.6615L17.3739 13.2815L21.5139 17.4215C21.8839 17.7815 22.4739 17.7815 22.8139 17.4315C23.1839 17.0615 23.2039 16.4815 22.8339 16.1215L18.6839 11.9615L20.0839 10.5715L24.2239 14.7015C24.5939 15.0715 25.1839 15.0715 25.5239 14.7115C25.8839 14.3615 25.8939 13.7715 25.5339 13.4115L21.3939 9.2615L22.7939 7.8615L26.9339 11.9915C27.3039 12.3815 27.8939 12.3815 28.2339 12.0115C28.6039 11.6515 28.6139 11.0615 28.2439 10.6915L24.1039 6.5515L25.5139 5.1415L29.5339 9.1615C29.9539 9.5915 30.6339 9.6015 31.0639 9.1815C31.4939 8.7515 31.4939 8.0515 31.0639 7.6215L24.9039 1.4615C22.9439 -0.4985 20.3939 -0.4885 18.4139 1.5115L1.5039 18.4215C-0.4761 20.4015 -0.5061 22.9415 1.4639 24.9115Z"
        fillRule="evenodd"
        clipRule="evenodd"
    />
</svg>
        