
<svg
    viewBox="0 0 31.389026889320334 31.39753165409483"
    xmlns="http://www.w3.org/2000/svg"
>
    <path
        fill="inherit"
        d="M1.5039 18.4147C-0.4761 20.4047 -0.5061 22.9447 1.4639 24.9147L7.6139 31.0847C8.0339 31.5047 8.7639 31.5047 9.1839 31.0847C9.6139 30.6447 9.6139 29.9447 9.1839 29.5247L5.8239 26.1747L7.2339 24.7647L10.7039 28.2447C11.0639 28.6047 11.6439 28.6047 12.0039 28.2447C12.3539 27.8947 12.3739 27.2947 12.0139 26.9347L8.5339 23.4647L9.9339 22.0547L13.4139 25.5447C13.7839 25.8947 14.3639 25.8947 14.7139 25.5447C15.0639 25.1747 15.0739 24.5847 14.7239 24.2347L11.2339 20.7547L12.6439 19.3447L16.1139 22.8347C16.4739 23.1947 17.0639 23.1947 17.4139 22.8347C17.7739 22.4647 17.7839 21.8747 17.4339 21.5247L13.9439 18.0547L15.3539 16.6447L18.8239 20.1147C19.1939 20.4847 19.7839 20.4847 20.1239 20.1147C20.4839 19.7547 20.4939 19.1747 20.1339 18.8147L16.6539 15.3447L18.0439 13.9447L21.5139 17.4247C21.8839 17.7747 22.4739 17.7747 22.8139 17.4347C23.1839 17.0647 23.2039 16.4747 22.8339 16.1247L19.3539 12.6347L20.7539 11.2447L24.2239 14.7047C24.5939 15.0747 25.1839 15.0747 25.5239 14.7147C25.8839 14.3547 25.8939 13.7747 25.5339 13.4147L22.0639 9.9247L23.4639 8.5347L26.9339 11.9947C27.3039 12.3747 27.8939 12.3747 28.2339 12.0047C28.6039 11.6547 28.6139 11.0647 28.2439 10.6947L24.7739 7.2247L26.1839 5.8147L29.5339 9.1647C29.9539 9.5847 30.6339 9.6047 31.0639 9.1747C31.4939 8.7547 31.4939 8.0547 31.0639 7.6147L24.9039 1.4647C22.9439 -0.5053 20.3939 -0.4853 18.4139 1.5047ZM3.2539 23.5847C2.0539 22.3847 2.0239 20.9947 3.2139 19.8147L19.8139 3.2147C20.9839 2.0447 22.4039 2.0447 23.5839 3.2347L24.6239 4.2647L4.2739 24.6147Z"
        fillRule="evenodd"
        clipRule="evenodd"
    />
</svg>
        