<svg viewBox="0 0 27.890625 27.890625" xmlns="http://www.w3.org/2000/svg"><path d="M13.9427 27.8864C21.6427 27.8864 27.8927 21.6464 27.8927 13.9464C27.8927 6.2464 21.6427 -0.0036 13.9427 -0.0036C6.2527 -0.0036 0.0027 6.2464 0.0027 13.9464C0.0027 21.6464 6.2527 27.8864 13.9427 27.8864ZM13.9427 25.5664C7.5227 25.5664 2.3227 20.3664 2.3227 13.9464C2.3227 7.5164 7.5227 2.3264 13.9427 2.3264C20.3727 2.3264 25.5627 7.5164 25.5627 13.9464C25.5627 20.3664 20.3727 25.5664 13.9427 25.5664ZM10.7227 12.6864V15.2164H9.6927C8.0827 15.2164 6.7827 16.5064 6.7827 18.0864C6.7827 19.6964 8.0827 20.9964 9.6927 20.9964C11.2827 20.9964 12.5927 19.6864 12.5927 18.0864V17.0464H15.0827V18.0864C15.0827 19.6864 16.3827 20.9964 17.9827 20.9964C19.5827 20.9964 20.8727 19.6964 20.8727 18.0864C20.8727 16.5064 19.5827 15.2164 17.9827 15.2164H16.9427V12.6864H17.9827C19.5827 12.6864 20.8727 11.4064 20.8727 9.8064C20.8727 8.2064 19.5827 6.9064 17.9827 6.9064C16.3827 6.9064 15.0827 8.2164 15.0827 9.8064V10.8464H12.5927V9.8064C12.5927 8.2164 11.2827 6.9064 9.6927 6.9064C8.0827 6.9064 6.7827 8.2064 6.7827 9.8064C6.7827 11.4064 8.0827 12.6864 9.6927 12.6864ZM9.6927 10.8564C9.1027 10.8564 8.6427 10.3864 8.6427 9.8064C8.6427 9.2464 9.1227 8.7464 9.6927 8.7464C10.2527 8.7464 10.7227 9.2464 10.7227 9.8064V10.8564ZM17.9827 10.8564H16.9427V9.8064C16.9427 9.2464 17.4027 8.7464 17.9827 8.7464C18.5427 8.7464 19.0327 9.2464 19.0327 9.8064C19.0327 10.3864 18.5527 10.8564 17.9827 10.8564ZM12.5927 15.2264V12.6764H15.0827V15.2264ZM9.6927 17.0264H10.7227V18.0764C10.7227 18.6664 10.2527 19.1264 9.6927 19.1264C9.1027 19.1264 8.6427 18.6664 8.6427 18.0764C8.6427 17.5164 9.1227 17.0264 9.6927 17.0264ZM17.9827 17.0264C18.5427 17.0264 19.0327 17.5164 19.0327 18.0764C19.0327 18.6664 18.5527 19.1264 17.9827 19.1264C17.4027 19.1264 16.9427 18.6664 16.9427 18.0764V17.0264Z" /></svg>