
<svg
    viewBox="0 0 25.169921875 25.169921875"
    xmlns="http://www.w3.org/2000/svg"
>
    <path
        fill="inherit"
        d="M4.2937 25.1692H20.8737C23.7437 25.1692 25.1737 23.7592 25.1737 20.9492V4.2392C25.1737 1.4192 23.7437 -0.0008 20.8737 -0.0008H4.2937C1.4337 -0.0008 0.0037 1.4192 0.0037 4.2392V20.9492C0.0037 23.7592 1.4337 25.1692 4.2937 25.1692ZM4.3237 22.9692C2.9537 22.9692 2.2037 22.2392 2.2037 20.8192V4.3592C2.2037 2.9392 2.9537 2.1992 4.3237 2.1992H20.8537C22.2037 2.1992 22.9737 2.9392 22.9737 4.3592V20.8192C22.9737 22.2392 22.2037 22.9692 20.8537 22.9692ZM9.3837 11.3192V13.8492H8.3537C6.7437 13.8492 5.4537 15.1392 5.4537 16.7192C5.4537 18.3292 6.7437 19.6292 8.3537 19.6292C9.9437 19.6292 11.2537 18.3192 11.2537 16.7192V15.6792H13.7437V16.7192C13.7437 18.3192 15.0437 19.6292 16.6437 19.6292C18.2337 19.6292 19.5337 18.3292 19.5337 16.7192C19.5337 15.1392 18.2337 13.8492 16.6437 13.8492H15.6037V11.3192H16.6437C18.2337 11.3192 19.5337 10.0392 19.5337 8.4392C19.5337 6.8392 18.2337 5.5392 16.6437 5.5392C15.0437 5.5392 13.7437 6.8492 13.7437 8.4392V9.4792H11.2537V8.4392C11.2537 6.8492 9.9437 5.5392 8.3537 5.5392C6.7437 5.5392 5.4537 6.8392 5.4537 8.4392C5.4537 10.0392 6.7437 11.3192 8.3537 11.3192ZM8.3537 9.4892C7.7637 9.4892 7.3037 9.0192 7.3037 8.4392C7.3037 7.8792 7.7837 7.3792 8.3537 7.3792C8.9137 7.3792 9.3837 7.8792 9.3837 8.4392V9.4892ZM16.6437 9.4892H15.6037V8.4392C15.6037 7.8792 16.0737 7.3792 16.6437 7.3792C17.2037 7.3792 17.6937 7.8792 17.6937 8.4392C17.6937 9.0192 17.2137 9.4892 16.6437 9.4892ZM11.2537 13.8592V11.3092H13.7437V13.8592ZM8.3537 15.6592H9.3837V16.7092C9.3837 17.2992 8.9137 17.7592 8.3537 17.7592C7.7637 17.7592 7.3037 17.2992 7.3037 16.7092C7.3037 16.1492 7.7837 15.6592 8.3537 15.6592ZM16.6437 15.6592C17.2037 15.6592 17.6937 16.1492 17.6937 16.7092C17.6937 17.2992 17.2137 17.7592 16.6437 17.7592C16.0737 17.7592 15.6037 17.2992 15.6037 16.7092V15.6592Z"
        fillRule="evenodd"
        clipRule="evenodd"
    />
</svg>
        