
<svg
    viewBox="0 0 27.890625 27.890625"
    xmlns="http://www.w3.org/2000/svg"
>
    <path
        fill="inherit"
        d="M13.9427 27.8927C21.6427 27.8927 27.8927 21.6427 27.8927 13.9427C27.8927 6.2627 21.6427 0.0027 13.9427 0.0027C6.2627 0.0027 0.0027 6.2627 0.0027 13.9427C0.0027 21.6427 6.2627 27.8927 13.9427 27.8927ZM10.6327 12.6627H9.5827C7.9127 12.6627 6.5727 11.3327 6.5727 9.6927C6.5727 8.0227 7.9127 6.6827 9.5827 6.6827C11.2227 6.6827 12.5827 8.0427 12.5827 9.6927V10.7627H15.1227V9.6927C15.1227 8.0427 16.4627 6.6827 18.1127 6.6827C19.7727 6.6827 21.1127 8.0227 21.1127 9.6927C21.1127 11.3327 19.7727 12.6627 18.1127 12.6627H17.0527V15.2427H18.1127C19.7727 15.2427 21.1127 16.5727 21.1127 18.2227C21.1127 19.8827 19.7727 21.2227 18.1127 21.2227C16.4627 21.2227 15.1227 19.8627 15.1227 18.2227V17.1627H12.5827V18.2227C12.5827 19.8627 11.2227 21.2227 9.5827 21.2227C7.9127 21.2227 6.5727 19.8827 6.5727 18.2227C6.5727 16.5727 7.9127 15.2427 9.5827 15.2427H10.6327ZM9.5827 10.7727H10.6327V9.6927C10.6327 9.1027 10.1627 8.6127 9.5827 8.6127C8.9927 8.6127 8.5027 9.1027 8.5027 9.6927C8.5027 10.2827 8.9827 10.7727 9.5827 10.7727ZM18.1127 10.7727C18.7027 10.7727 19.1927 10.2827 19.1927 9.6927C19.1927 9.1027 18.6927 8.6127 18.1127 8.6127C17.5227 8.6127 17.0527 9.1027 17.0527 9.6927V10.7727ZM12.5827 15.2627H15.1227V12.6427H12.5827ZM9.5827 17.1327C8.9927 17.1327 8.5027 17.6227 8.5027 18.2127C8.5027 18.8027 8.9827 19.2927 9.5827 19.2927C10.1627 19.2927 10.6327 18.8027 10.6327 18.2127V17.1327ZM18.1127 17.1327H17.0527V18.2127C17.0527 18.8027 17.5227 19.2927 18.1127 19.2927C18.7027 19.2927 19.1927 18.8027 19.1927 18.2127C19.1927 17.6227 18.6927 17.1327 18.1127 17.1327Z"
        fillRule="evenodd"
        clipRule="evenodd"
    />
</svg>
        