
<svg
    viewBox="0 0 25.826171875 25.83984375"
    xmlns="http://www.w3.org/2000/svg"
>
    <path
        fill="inherit"
        d="M7.6337 9.731V16.121H4.8837C2.1837 16.121 0.0037 18.241 0.0037 20.941C0.0037 23.651 2.1837 25.841 4.8837 25.841C7.5737 25.841 9.7637 23.651 9.7637 20.941V18.211H16.0637V20.941C16.0637 23.651 18.2537 25.841 20.9437 25.841C23.6437 25.841 25.8237 23.651 25.8237 20.941C25.8237 18.241 23.6437 16.121 20.9437 16.121H18.1937V9.731H20.9437C23.6437 9.731 25.8237 7.611 25.8237 4.911C25.8237 2.201 23.6437 0.001 20.9437 0.001C18.2537 0.001 16.0637 2.201 16.0637 4.911V7.641H9.7637V4.911C9.7637 2.201 7.5737 0.001 4.8837 0.001C2.1837 0.001 0.0037 2.201 0.0037 4.911C0.0037 7.611 2.1837 9.731 4.8837 9.731ZM4.8837 7.671C3.3737 7.671 2.1337 6.421 2.1337 4.911C2.1337 3.391 3.3737 2.131 4.8837 2.131C6.3837 2.131 7.6337 3.391 7.6337 4.911V7.671ZM20.9437 7.671H18.1937V4.911C18.1937 3.391 19.4437 2.131 20.9437 2.131C22.4537 2.131 23.6937 3.391 23.6937 4.911C23.6937 6.421 22.4537 7.671 20.9437 7.671ZM9.7637 16.121V9.731H16.0637V16.121ZM4.8837 18.171H7.6337V20.931C7.6337 22.451 6.3837 23.691 4.8837 23.691C3.3737 23.691 2.1337 22.451 2.1337 20.931C2.1337 19.411 3.3737 18.171 4.8837 18.171ZM20.9437 18.171C22.4537 18.171 23.6937 19.411 23.6937 20.931C23.6937 22.451 22.4537 23.691 20.9437 23.691C19.4437 23.691 18.1937 22.451 18.1937 20.931V18.171Z"
        fillRule="evenodd"
        clipRule="evenodd"
    />
</svg>
        