
<svg
    viewBox={0 0 20.466796875 31.281989490877564}
    xmlns="http://www.w3.org/2000/svg"
>
    <path
        fill="inherit"
        d="M0.9037 17.7427C0.3937 17.7427 0.0037 18.1427 0.0037 18.6327C0.0037 19.1227 0.3937 19.5327 0.9037 19.5327H4.5837L2.2437 27.3727C2.1437 27.6827 2.2137 28.0027 2.3937 28.2627L1.8137 30.3827C1.7237 30.7627 1.9237 31.1627 2.3237 31.2527C2.7237 31.3627 3.1037 31.1427 3.2137 30.7527L3.7737 28.6427C4.0637 28.5027 4.2837 28.2627 4.3737 27.9327L6.8737 19.5327H9.3337V20.9827C9.3337 21.4827 9.7337 21.8927 10.2237 21.8927C10.7237 21.8927 11.1337 21.4827 11.1337 20.9827V19.5327H13.5937L16.0937 27.9327C16.1837 28.2627 16.4037 28.5027 16.6837 28.6427L17.2537 30.7527C17.3637 31.1427 17.7437 31.3627 18.1437 31.2527C18.5237 31.1627 18.7437 30.7627 18.6337 30.3827L18.0737 28.2627C18.2537 28.0027 18.3237 27.6827 18.2237 27.3727L15.8837 19.5327H19.5637C20.0537 19.5327 20.4637 19.1227 20.4637 18.6327C20.4637 18.1427 20.0537 17.7427 19.5637 17.7427H15.3537L13.0937 10.1327C13.9137 9.3627 14.4237 8.2827 14.4237 7.0727C14.4237 4.9927 12.9437 3.2927 10.9937 2.9427V0.7527C10.9937 0.3327 10.6537 0.0027 10.2237 0.0027C9.8037 0.0027 9.4737 0.3427 9.4737 0.7627V2.9427C7.5037 3.2927 6.0437 4.9927 6.0437 7.0727C6.0437 8.2827 6.5537 9.3627 7.3737 10.1327L5.1137 17.7427ZM10.2237 9.1827C8.9937 9.1827 8.1037 8.2827 8.1037 7.0727C8.1037 5.8427 8.9937 4.9327 10.2237 4.9327C11.4537 4.9327 12.3637 5.8427 12.3637 7.0727C12.3637 8.2827 11.4537 9.1827 10.2237 9.1827ZM11.1337 16.2827C11.1337 15.7927 10.7237 15.3827 10.2237 15.3827C9.7337 15.3827 9.3337 15.7927 9.3337 16.2827V17.7427H7.4137L9.3637 11.1727C9.6437 11.2227 9.9437 11.2527 10.2237 11.2527C10.5237 11.2527 10.8137 11.2227 11.1037 11.1727L13.0537 17.7427H11.1337Z"
        fillRule="evenodd"
        clipRule="evenodd"
    />
</svg>
        