
<svg
    viewBox="0 0 19.154296875 29.96875"
    xmlns="http://www.w3.org/2000/svg"
>
    <path
        fill="inherit"
        d="M9.5737 29.9681C15.8637 29.9681 19.1537 26.2381 19.1537 19.1281C19.1537 14.7681 18.9737 10.8781 18.7337 8.2481C18.2137 2.4181 15.5137 -0.0019 9.5737 -0.0019C3.6337 -0.0019 0.9437 2.4181 0.4137 8.2481C0.1637 10.8781 0.0037 14.7681 0.0037 19.1281C0.0037 26.2381 3.2837 29.9681 9.5737 29.9681ZM2.6137 8.4381C2.9937 4.0881 4.5437 2.4181 8.6937 2.2181V8.4381ZM10.4837 8.4381V2.2281C14.6037 2.4181 16.1437 4.0881 16.5337 8.4381ZM9.5737 27.7681C4.7137 27.7681 2.2037 24.8181 2.2037 19.1281C2.2037 15.8581 2.2937 12.7381 2.4637 10.2281H16.6837C16.8437 12.7381 16.9537 15.8581 16.9537 19.1281C16.9537 24.8181 14.4237 27.7681 9.5737 27.7681Z"
        fillRule="evenodd"
        clipRule="evenodd"
    />
</svg>
        