
<svg
    viewBox="0 0 27.5078125 29.736328125"
    xmlns="http://www.w3.org/2000/svg"
>
    <path
        fill="inherit"
        d="M0.0009 24.113C0.0009 27.353 5.7809 29.733 13.7509 29.733C21.7209 29.733 27.5109 27.353 27.5109 24.113C27.5109 23.683 27.3009 23.023 26.9909 22.433L15.0409 0.793C14.6709 0.123 14.2009 0.003 13.7509 0.003C13.3009 0.003 12.8409 0.123 12.4709 0.793L0.5209 22.433C0.2009 23.023 0.0009 23.683 0.0009 24.113ZM2.1309 24.113C2.1309 23.963 2.2809 23.653 2.4609 23.333L13.5109 3.393C13.5609 3.263 13.6409 3.223 13.7509 3.223C13.8609 3.223 13.9409 3.263 14.0009 3.393L25.0509 23.333C25.2209 23.653 25.3709 23.963 25.3709 24.113C25.3709 25.773 19.9109 27.593 13.7509 27.593C7.6009 27.593 2.1309 25.773 2.1309 24.113Z"
        fillRule="evenodd"
        clipRule="evenodd"
    />
</svg>
        