<svg viewBox="0 0 24.03515625 36.353515625" xmlns="http://www.w3.org/2000/svg"><path d="M12.0037 0.0047C11.4037 0.0047 10.9337 0.4747 10.9337 1.0647V6.2847H13.0737V1.0647C13.0737 0.4747 12.6037 0.0047 12.0037 0.0047ZM4.2937 30.0647H10.9337V6.2847H4.2937C1.4337 6.2847 0.0037 7.7147 0.0037 10.5247V25.8447C0.0037 28.6547 1.4337 30.0647 4.2937 30.0647ZM19.7437 30.0647C22.6137 30.0647 24.0337 28.6447 24.0337 25.8447V10.5247C24.0337 7.7147 22.6137 6.2847 19.7437 6.2847H13.0737V30.0647ZM4.3237 27.8647C2.9537 27.8647 2.2037 27.1347 2.2037 25.7147V10.6547C2.2037 9.2247 2.9537 8.4947 4.3237 8.4947H8.7337V27.8647ZM19.7137 27.8647H15.2737V8.4947H19.7137C21.0537 8.4947 21.8337 9.2247 21.8337 10.6547V25.7147C21.8337 27.1347 21.0537 27.8647 19.7137 27.8647ZM12.0037 36.3547C12.6037 36.3547 13.0737 35.8847 13.0737 35.2847V30.0647H10.9337V35.2847C10.9337 35.8847 11.4037 36.3547 12.0037 36.3547Z" /></svg>