
<svg
    viewBox="0 0 50.39453125 26.892578125"
    xmlns="http://www.w3.org/2000/svg"
>
    <path
        fill="inherit"
        d="M22.1637 13.8587H28.3537C29.5137 13.8587 30.1237 13.2487 30.1237 12.0087V7.2487C30.1237 6.1087 29.6037 5.4987 28.6137 5.4187V3.7687C28.6137 2.3787 29.4637 1.4787 30.7937 1.4787C32.1137 1.4787 32.9637 2.3787 32.9637 3.7687V5.3087C32.9637 5.7187 33.2937 6.0387 33.7037 6.0387C34.1137 6.0387 34.4537 5.7187 34.4537 5.3087V4.0087C34.4537 1.5487 33.0337 -0.0013 30.7937 -0.0013C28.5637 -0.0013 27.1237 1.5487 27.1237 4.0087V5.3987H22.1637C21.0137 5.3987 20.4137 6.0187 20.4137 7.2487V12.0087C20.4137 13.2487 21.0137 13.8587 22.1637 13.8587ZM2.9837 24.1487L5.8337 24.4687C6.6537 25.9387 8.2337 26.8887 10.0637 26.8887C12.1137 26.8887 13.8337 25.6787 14.5637 23.9087H35.8437C36.5537 25.6787 38.2837 26.8887 40.3437 26.8887C42.5637 26.8887 44.3937 25.4887 44.9937 23.4887L46.4837 23.3287C49.1237 23.0487 50.3937 21.5887 50.3937 18.8687V16.4887C50.3937 13.2487 49.2037 11.8987 46.1037 11.2887L38.1137 9.7487C37.3137 9.5987 36.5737 9.5387 35.8237 9.5987L31.9237 9.8287V11.4387C31.9237 11.6387 31.9137 11.8387 31.8837 12.0487L36.3637 11.7587L45.7037 13.5587C47.5237 13.9087 48.1937 14.6987 48.1937 16.4887V18.8687C48.1937 20.2787 47.5537 21.0287 46.2137 21.1687L45.1437 21.2687C44.7937 18.9187 42.8037 17.1687 40.3437 17.1687C37.7237 17.1687 35.6537 19.1387 35.4937 21.7087H14.9037C14.7537 19.1387 12.6737 17.1687 10.0637 17.1687C7.3237 17.1687 5.1937 19.3087 5.1937 22.0387C5.1937 22.0787 5.1937 22.1387 5.1937 22.1787L3.5037 21.9887C2.6137 21.8787 2.2037 21.4787 2.2037 20.6887V19.0287C2.2037 16.6787 3.7837 15.2887 6.9637 14.6787L15.8337 12.9987L18.5937 12.8487C18.5137 12.4987 18.4737 12.0987 18.4737 11.6587V9.1187L15.9837 10.7887L6.6737 12.5387C2.2237 13.3687 0.0037 15.4187 0.0037 19.0287V20.8487C0.0037 22.8987 0.9137 23.9287 2.9837 24.1487ZM10.0637 24.8287C8.4937 24.8287 7.2637 23.5987 7.2637 22.0387C7.2637 20.4687 8.4937 19.2387 10.0637 19.2387C11.6237 19.2387 12.8537 20.4687 12.8537 22.0387C12.8537 23.5987 11.6237 24.8287 10.0637 24.8287ZM40.3437 24.8287C38.7737 24.8287 37.5437 23.5987 37.5437 22.0387C37.5437 20.4687 38.7737 19.2387 40.3437 19.2387C41.9037 19.2387 43.1337 20.4687 43.1337 22.0387C43.1337 23.5987 41.9037 24.8287 40.3437 24.8287Z"
        fillRule="evenodd"
        clipRule="evenodd"
    />
</svg>
        