
<svg
    viewBox="0 0 46.18344415756962 34.66402090041017"
    xmlns="http://www.w3.org/2000/svg"
>
    <path
        fill="inherit"
        d="M4.7762 6.4127L7.6562 1.4127C8.1362 0.5927 7.4662 -0.1373 6.6162 0.0227L2.2162 0.8327C1.6162 0.9527 1.3462 1.4127 1.5562 2.0027L3.0562 6.2027C3.3362 7.0227 4.2962 7.2327 4.7762 6.4127ZM39.4862 13.8327C38.9962 13.3927 38.5062 13.0527 37.9462 12.7927L26.6362 7.2027L32.2662 6.8227C33.4762 6.7327 33.3662 4.9427 32.0662 5.0427L23.5462 5.6027L16.2962 3.0427C12.8562 1.8427 10.4662 2.3627 8.9962 4.9027L8.2562 6.1727C7.4262 7.6227 7.6562 8.6927 9.0162 9.7027L10.7862 11.0327C10.8962 10.6827 11.1562 10.1227 11.3662 9.7827C12.6462 7.5527 15.4362 6.8027 17.6662 8.1027C19.8962 9.3927 20.6462 12.1727 19.3662 14.4027C19.1962 14.6827 18.9962 14.9827 18.8262 15.1427L30.7062 22.0027C30.7762 21.7627 30.9162 21.4427 31.0762 21.1627C32.3662 18.9427 35.1562 18.1927 37.3862 19.4827C39.6062 20.7727 40.2562 23.7527 38.9662 25.9727C38.8962 26.1127 38.8762 26.1527 38.7862 26.2627L39.8662 26.7427C41.8262 27.6127 43.3162 27.1027 44.4262 25.2027L45.3762 23.5427C46.6962 21.2527 46.4062 19.8227 44.4662 18.1527ZM13.7062 14.9627C15.3162 15.9127 17.3062 15.3727 18.2362 13.7527C19.1662 12.1527 18.6362 10.1527 17.0262 9.2127C15.3962 8.2827 13.3962 8.8127 12.4762 10.4227C11.5462 12.0427 12.0762 14.0327 13.7062 14.9627ZM0.1562 11.7927C-0.1638 12.3427 0.0262 13.0127 0.5362 13.3127L37.2462 34.5127C37.7462 34.8227 38.4362 34.6427 38.7362 34.1327C39.0362 33.5727 38.8462 32.9027 38.3562 32.6127L1.6262 11.4027C1.1362 11.1127 0.4362 11.2927 0.1562 11.7927ZM33.4162 26.3527C35.0262 27.2827 37.0262 26.7527 37.9562 25.1427C38.8862 23.5227 38.3562 21.5327 36.7362 20.6027C35.1162 19.6727 33.1162 20.2027 32.1962 21.8127C31.2562 23.4327 31.7862 25.4227 33.4162 26.3527Z"
        fillRule="evenodd"
        clipRule="evenodd"
    />
</svg>
        