<svg viewBox="0 0 43.67866774736062 33.82769375811327" xmlns="http://www.w3.org/2000/svg"><path d="M23.707 2.5304C23.087 2.7504 22.537 3.0104 22.037 3.3504L11.547 10.3704L14.027 5.2904C14.557 4.2004 12.957 3.4104 12.387 4.5704L8.607 12.2304L2.787 17.2304C0.007 19.6104 -0.723 21.9504 0.737 24.4904L1.477 25.7604C2.307 27.2004 3.347 27.5404 4.887 26.8704L6.947 25.9904C6.687 25.7204 6.337 25.2104 6.137 24.8704C4.847 22.6604 5.607 19.8704 7.827 18.5704C10.077 17.2804 12.867 18.0404 14.137 20.2504C14.297 20.5404 14.457 20.8704 14.527 21.0904L26.397 14.2204C26.217 14.0404 26.017 13.7704 25.847 13.5004C24.577 11.2704 25.317 8.4804 27.547 7.1904C29.787 5.9004 32.687 6.8404 33.967 9.0704C34.037 9.1904 34.067 9.2504 34.127 9.3704L35.077 8.6704C36.817 7.4104 37.127 5.8704 36.027 3.9504L35.067 2.2904C33.757 0.0204 32.357 -0.4496 29.937 0.3904ZM31.527 14.0604C33.137 13.1304 33.667 11.1304 32.737 9.5204C31.807 7.9104 29.817 7.3704 28.207 8.3204C26.577 9.2504 26.037 11.2404 26.967 12.8404C27.897 14.4704 29.897 15.0004 31.527 14.0604ZM4.397 33.1404C4.717 33.6904 5.397 33.8704 5.887 33.5804L41.377 13.1004C41.877 12.8004 42.067 12.1304 41.777 11.6204C41.467 11.0804 40.767 10.9004 40.277 11.1904L4.797 31.6704C4.287 31.9704 4.097 32.6404 4.397 33.1404ZM11.807 25.4504C13.427 24.5204 13.957 22.5204 13.027 20.9104C12.097 19.2904 10.097 18.7604 8.487 19.6904C6.857 20.6204 6.327 22.6204 7.257 24.2304C8.187 25.8404 10.187 26.3804 11.807 25.4504ZM41.277 33.8304C42.147 33.8304 42.777 33.4204 43.187 32.7704C43.457 32.3604 43.677 31.7404 43.677 31.2704C43.677 30.8304 43.377 30.5604 42.937 30.5604C42.597 30.5604 42.327 30.8104 42.247 31.1904C42.097 31.9804 41.847 32.4604 41.227 32.4604C40.477 32.4604 40.037 31.3904 40.037 29.4304C40.037 27.4304 40.547 26.3604 41.227 26.3604C41.787 26.3604 42.117 26.9204 42.217 27.6304C42.287 28.0604 42.567 28.3004 42.977 28.3004C43.387 28.3004 43.637 28.0204 43.637 27.5804C43.637 27.0604 43.387 26.3104 42.927 25.7904C42.507 25.3004 41.887 25.0104 41.217 25.0104C40.027 25.0104 39.307 25.7704 38.917 26.6604C38.537 27.5104 38.447 28.4704 38.447 29.4304C38.447 30.5204 38.547 31.5904 39.047 32.4904C39.537 33.3804 40.277 33.8304 41.277 33.8304ZM26.767 33.7604C27.247 33.7604 27.557 33.4604 27.557 32.9704V30.0104H29.667V32.9704C29.667 33.4604 29.967 33.7604 30.457 33.7604C30.937 33.7604 31.247 33.4604 31.247 32.9704V25.8704C31.247 25.3904 30.937 25.0904 30.457 25.0904C29.967 25.0904 29.667 25.3904 29.667 25.8704V28.7004H27.557V25.8704C27.557 25.3904 27.247 25.0904 26.767 25.0904C26.297 25.0904 25.997 25.3904 25.997 25.8704V32.9704C25.997 33.4604 26.297 33.7604 26.767 33.7604ZM33.177 33.7604H34.697C36.927 33.7604 37.677 31.6104 37.677 29.4004C37.677 26.9804 36.817 25.0904 34.697 25.0904H33.177C32.717 25.0904 32.387 25.3504 32.387 25.9104V32.9404C32.387 33.5004 32.717 33.7604 33.177 33.7604ZM33.927 32.4504V26.4004H34.507C35.827 26.4004 36.077 28.0704 36.077 29.4004C36.077 30.7504 35.877 32.4504 34.507 32.4504Z" /></svg>