
<svg
    viewBox={0 0 27.015625 22.19955604478853}
    xmlns="http://www.w3.org/2000/svg"
>
    <path
        fill="inherit"
        d="M1.8137 2.1956H6.1637C6.6837 2.1956 7.0837 2.3356 7.3937 2.6456L11.6637 6.9156L6.6737 7.8456C2.2237 8.6756 0.0037 10.7256 0.0037 14.3356V16.1556C0.0037 18.2056 0.9137 19.2156 2.9837 19.4556L5.7137 19.7756C5.6037 19.3456 5.5337 18.5756 5.5337 18.0956C5.5337 14.9256 8.0537 12.4056 11.2337 12.4056C14.4237 12.4056 16.9437 14.9256 16.9437 18.0956C16.9437 18.4956 16.9137 18.9456 16.8437 19.2156H27.0137V5.4756L20.2737 5.9156L26.0537 2.0156C27.3037 1.1856 26.0837 -0.6644 24.7437 0.2456L15.9837 6.0956L14.0937 6.4456L8.9937 1.3656C8.2037 0.5656 7.1637 0.2256 5.9337 0.2256H1.8137C1.1937 0.2256 0.7937 0.6256 0.7937 1.2156C0.7937 1.8056 1.1937 2.1956 1.8137 2.1956ZM11.2337 22.1956C13.5537 22.1956 15.3537 20.3956 15.3537 18.0956C15.3537 15.8056 13.5537 13.9956 11.2337 13.9956C8.9437 13.9956 7.1337 15.8056 7.1337 18.0956C7.1337 20.3956 8.9437 22.1956 11.2337 22.1956Z"
        fillRule="evenodd"
        clipRule="evenodd"
    />
</svg>
        