
<svg
    viewBox={0 0 50.39453125 22.19955604478853}
    xmlns="http://www.w3.org/2000/svg"
>
    <path
        fill="inherit"
        d="M38.1037 5.0556C37.3137 4.9056 36.5737 4.8356 35.8237 4.9056L20.2737 5.9156L26.0537 2.0156C27.3037 1.1856 26.0837 -0.6644 24.7437 0.2456L15.9837 6.0956L6.6737 7.8456C2.2237 8.6756 0.0037 10.7256 0.0037 14.3356V16.1556C0.0037 18.2056 0.9137 19.2156 2.9837 19.4556L5.7137 19.7756C5.6037 19.3456 5.5337 18.5756 5.5337 18.0956C5.5337 14.9256 8.0537 12.4056 11.2337 12.4056C14.4237 12.4056 16.9437 14.9256 16.9437 18.0956C16.9437 18.4956 16.9137 18.9456 16.8437 19.2156H33.7837C33.6837 18.9156 33.6437 18.5056 33.6437 18.0956C33.6437 14.9256 36.1637 12.4056 39.3437 12.4056C42.5337 12.4056 45.0537 15.1956 45.0537 18.3756C45.0537 18.5456 45.0537 18.6156 45.0337 18.7856L46.4837 18.6356C49.1237 18.3556 50.3937 16.8956 50.3937 14.1756V11.7956C50.3937 8.5556 49.2037 7.2056 46.1037 6.5956ZM22.2737 15.4456C21.5637 15.4456 21.2637 14.8756 21.6437 14.2556L24.4837 9.5956C24.8437 9.0056 25.5537 9.0156 25.8937 9.5956L28.7637 14.2656C29.1337 14.8856 28.8237 15.4456 28.1237 15.4456ZM11.2337 22.1956C13.5537 22.1956 15.3537 20.3956 15.3537 18.0956C15.3537 15.8056 13.5537 13.9956 11.2337 13.9956C8.9437 13.9956 7.1337 15.8056 7.1337 18.0956C7.1337 20.3956 8.9437 22.1956 11.2337 22.1956ZM39.3437 22.1956C41.6537 22.1956 43.4637 20.3956 43.4637 18.0956C43.4637 15.8056 41.6537 13.9956 39.3437 13.9956C37.0337 13.9956 35.2337 15.8056 35.2337 18.0956C35.2337 20.3956 37.0337 22.1956 39.3437 22.1956Z"
        fillRule="evenodd"
        clipRule="evenodd"
    />
</svg>
        