
<svg
    viewBox={0 0 50.39453125 26.810546875}
    xmlns="http://www.w3.org/2000/svg"
>
    <path
        fill="inherit"
        d="M17.0037 23.8266H33.7937C33.7037 23.5266 33.6637 23.1166 33.6637 22.7066C33.6637 19.5366 36.1737 17.0166 39.3637 17.0166C42.5437 17.0166 45.0637 19.8066 45.0637 22.9866C45.0637 23.1566 45.0637 23.2266 45.0537 23.3966L46.4837 23.2466C49.1237 22.9666 50.3937 21.5066 50.3937 18.7866V16.4066C50.3937 13.1666 49.2037 11.6866 46.1037 11.2066L38.6337 10.0366C37.6437 9.8666 35.5637 9.8166 33.5537 9.9166L31.4137 10.0066L31.3737 11.1466C31.3537 11.8366 30.8837 12.3066 30.2137 12.3066C29.5437 12.3066 29.0637 11.8366 29.0437 11.1466L29.0137 10.1166L31.4137 10.0066L31.6637 1.4666C31.6937 0.5866 31.1137 -0.0034 30.2137 -0.0034C29.3137 -0.0034 28.7337 0.5866 28.7637 1.4666L29.0137 10.1166L20.2737 10.5266L26.0537 6.6266C27.3037 5.7966 26.0837 3.9466 24.7437 4.8566L15.9837 10.7066L6.6737 12.4566C2.2237 13.2866 0.0037 15.3366 0.0037 18.9466V20.7666C0.0037 22.8166 0.9137 23.8466 2.9837 24.0666L5.8637 24.3866C5.7737 23.9566 5.7037 23.1866 5.7037 22.7066C5.7037 19.5366 8.2137 17.0166 11.4037 17.0166C14.5837 17.0166 17.1037 19.5366 17.1037 22.7066C17.1037 23.1066 17.0737 23.5566 17.0037 23.8266ZM30.2137 18.3766C29.2437 18.3766 28.4237 17.5866 28.4237 16.6566C28.4237 15.7066 29.2137 14.9266 30.2137 14.9266C31.2037 14.9266 32.0037 15.7066 32.0037 16.6566C32.0037 17.5866 31.1837 18.3766 30.2137 18.3766ZM11.4037 26.8066C13.7137 26.8066 15.5137 25.0066 15.5137 22.7066C15.5137 20.4166 13.7137 18.6066 11.4037 18.6066C9.1037 18.6066 7.3037 20.4166 7.3037 22.7066C7.3037 25.0066 9.1037 26.8066 11.4037 26.8066ZM39.3637 26.8066C41.6737 26.8066 43.4737 25.0066 43.4737 22.7066C43.4737 20.4166 41.6737 18.6066 39.3637 18.6066C37.0537 18.6066 35.2437 20.4166 35.2437 22.7066C35.2437 25.0066 37.0537 26.8066 39.3637 26.8066Z"
        fillRule="evenodd"
        clipRule="evenodd"
    />
</svg>
        