
<svg
    viewBox="0 0 50.39453125 26.537109375"
    xmlns="http://www.w3.org/2000/svg"
>
    <path
        fill="inherit"
        d="M24.5937 12.3032C25.2637 12.3032 25.7437 11.8432 25.7737 11.1432L26.0537 1.4632C26.0837 0.5832 25.4937 0.0032 24.5937 0.0032C23.6937 0.0032 23.1237 0.5832 23.1437 1.4632L23.4337 11.1432C23.4637 11.8432 23.9237 12.3032 24.5937 12.3032ZM2.9837 23.7932L5.8237 24.1132C6.6537 25.5832 8.2137 26.5332 10.0637 26.5332C12.1137 26.5332 13.8337 25.3232 14.5637 23.5532H35.8437C36.5537 25.3232 38.2837 26.5332 40.3437 26.5332C42.5637 26.5332 44.3937 25.1332 44.9937 23.1332L46.4837 22.9732C49.1237 22.6932 50.3937 21.2332 50.3937 18.5132V16.1332C50.3937 12.8932 49.1937 11.5232 46.1037 10.9332L38.1037 9.3932C37.3137 9.2432 36.5737 9.1832 35.8237 9.2432L27.6737 9.7332L27.6137 11.9332L36.3637 11.4032L45.7037 13.2032C47.5237 13.5532 48.1937 14.3432 48.1937 16.1332V18.5132C48.1937 19.9232 47.5537 20.6732 46.2137 20.8132L45.1437 20.9132C44.7937 18.5632 42.8037 16.8132 40.3437 16.8132C37.7237 16.8132 35.6537 18.7832 35.4937 21.3532H14.9037C14.7537 18.7832 12.6737 16.8132 10.0637 16.8132C7.3237 16.8132 5.1937 18.9532 5.1937 21.6832C5.1937 21.7232 5.1937 21.7832 5.1937 21.8232L3.5037 21.6332C2.6137 21.5332 2.2037 21.1232 2.2037 20.3332V18.6732C2.2037 16.3232 3.7837 14.9332 6.9637 14.3232L15.7937 12.6632L21.6037 12.2932L21.5437 10.5532L20.2937 10.2532L21.5237 9.0632L21.4337 6.7932L15.9837 10.4332L6.6737 12.1832C2.2237 13.0132 0.0037 15.0632 0.0037 18.6732V20.4932C0.0037 22.5432 0.9137 23.5732 2.9837 23.7932ZM24.5937 18.3732C25.5837 18.3732 26.3837 17.5832 26.3837 16.6532C26.3837 15.7132 25.5937 14.9332 24.5937 14.9332C23.6137 14.9332 22.8037 15.7132 22.8037 16.6532C22.8037 17.5832 23.6237 18.3732 24.5937 18.3732ZM10.0637 24.4732C8.4937 24.4732 7.2637 23.2432 7.2637 21.6832C7.2637 20.1132 8.4937 18.8832 10.0637 18.8832C11.6237 18.8832 12.8537 20.1132 12.8537 21.6832C12.8537 23.2432 11.6237 24.4732 10.0637 24.4732ZM40.3437 24.4732C38.7737 24.4732 37.5437 23.2432 37.5437 21.6832C37.5437 20.1132 38.7737 18.8832 40.3437 18.8832C41.9037 18.8832 43.1337 20.1132 43.1337 21.6832C43.1337 23.2432 41.9037 24.4732 40.3437 24.4732Z"
        fillRule="evenodd"
        clipRule="evenodd"
    />
</svg>
        