
<svg
    viewBox={0 0 50.97297974644666 27.095326327276435}
    xmlns="http://www.w3.org/2000/svg"
>
    <path
        fill="inherit"
        d="M44.0737 6.3514C43.7537 7.2714 44.2837 7.7514 45.1837 7.5214L50.2037 6.2414C50.9737 6.0714 51.1837 5.4414 50.7537 4.8214L47.8337 0.5314C47.3437 -0.1986 46.6337 -0.2086 46.2837 0.6814L45.6137 2.3814C42.0537 0.8614 37.9837 0.6414 34.9637 0.9414C34.3137 0.9914 33.8237 1.5514 33.8637 2.2014C33.9237 2.8414 34.4937 3.3214 35.1337 3.2814C38.0537 2.9914 41.7037 3.2014 44.7937 4.5614ZM38.1137 9.9514C37.3237 9.8014 36.5837 9.7314 35.8237 9.8014L20.2737 10.8114L26.0537 6.9114C27.3037 6.0814 26.0837 4.2314 24.7637 5.1414L15.9937 10.9914L6.6737 12.7414C2.2437 13.5714 0.0037 15.6214 0.0037 19.2314V21.0514C0.0037 23.1014 0.9137 24.1114 2.9837 24.3514L5.7137 24.6714C5.6037 24.2414 5.5337 23.4714 5.5337 22.9914C5.5337 19.8214 8.0637 17.3014 11.2337 17.3014C14.4237 17.3014 16.9537 19.8214 16.9537 22.9914C16.9537 23.3914 16.9137 23.8414 16.8437 24.1114H33.7837C33.7037 23.8114 33.6437 23.4014 33.6437 22.9914C33.6437 19.8214 36.1737 17.3014 39.3437 17.3014C42.5337 17.3014 45.0537 20.0914 45.0537 23.2714C45.0537 23.4414 45.0537 23.5114 45.0337 23.6814L46.4937 23.5314C49.1237 23.2514 50.4037 21.7914 50.4037 19.0714V16.6914C50.4037 13.4514 49.2037 12.1014 46.1037 11.4914ZM11.2337 27.0914C13.5537 27.0914 15.3537 25.2914 15.3537 22.9914C15.3537 20.7014 13.5537 18.8914 11.2337 18.8914C8.9437 18.8914 7.1337 20.7014 7.1337 22.9914C7.1337 25.2914 8.9437 27.0914 11.2337 27.0914ZM39.3437 27.0914C41.6537 27.0914 43.4637 25.2914 43.4637 22.9914C43.4637 20.7014 41.6537 18.8914 39.3437 18.8914C37.0537 18.8914 35.2437 20.7014 35.2437 22.9914C35.2437 25.2914 37.0537 27.0914 39.3437 27.0914Z"
        fillRule="evenodd"
        clipRule="evenodd"
    />
</svg>
        