
<svg
    viewBox="0 0 50.97297974644666 27.095326327276435"
    xmlns="http://www.w3.org/2000/svg"
>
    <path
        fill="inherit"
        d="M44.0737 6.3514C43.7537 7.2714 44.2837 7.7514 45.1837 7.5214L50.2037 6.2414C50.9737 6.0714 51.1837 5.4414 50.7537 4.8214L47.8337 0.5314C47.3437 -0.1986 46.6337 -0.2086 46.2837 0.6814L45.6137 2.3814C42.0537 0.8614 37.9837 0.6414 34.9637 0.9414C34.3137 0.9914 33.8237 1.5514 33.8637 2.2014C33.9237 2.8414 34.4937 3.3214 35.1337 3.2814C38.0537 2.9914 41.7037 3.2014 44.7937 4.5614ZM2.9837 24.3514L5.8237 24.6714C6.6537 26.1414 8.2337 27.0914 10.0637 27.0914C12.1237 27.0914 13.8337 25.8814 14.5637 24.1114H35.8437C36.5737 25.8814 38.2837 27.0914 40.3437 27.0914C42.5737 27.0914 44.3937 25.6914 44.9937 23.6914L46.4937 23.5314C49.1237 23.2514 50.4037 21.7914 50.4037 19.0714V16.6914C50.4037 13.4514 49.1937 12.0814 46.1037 11.4914L38.1137 9.9514C37.3237 9.8014 36.5837 9.7414 35.8237 9.8014L20.3837 10.7314L26.0537 6.9114C27.3037 6.0814 26.0837 4.2314 24.7637 5.1414L15.9937 10.9914L6.6737 12.7414C2.2437 13.5714 0.0037 15.6214 0.0037 19.2314V21.0514C0.0037 23.1014 0.9137 24.1314 2.9837 24.3514ZM3.5037 22.1914C2.6137 22.0914 2.2037 21.6814 2.2037 20.8914V19.2314C2.2037 16.8814 3.8037 15.4914 6.9637 14.8814L15.7737 13.2214H15.8437L36.3637 11.9614L45.7237 13.7614C47.5237 14.1114 48.2037 14.9014 48.2037 16.6914V19.0714C48.2037 20.4814 47.5537 21.2314 46.2137 21.3714L45.1437 21.4714C44.8037 19.1214 42.8237 17.3714 40.3437 17.3714C37.7237 17.3714 35.6537 19.3414 35.4937 21.9114H14.9137C14.7537 19.3414 12.6837 17.3714 10.0637 17.3714C7.3237 17.3714 5.1937 19.5114 5.1937 22.2414C5.1937 22.2814 5.1937 22.3414 5.2137 22.3814ZM10.0637 25.0314C8.5037 25.0314 7.2637 23.8014 7.2637 22.2414C7.2637 20.6714 8.5037 19.4414 10.0637 19.4414C11.6237 19.4414 12.8637 20.6714 12.8637 22.2414C12.8637 23.8014 11.6237 25.0314 10.0637 25.0314ZM40.3437 25.0314C38.7837 25.0314 37.5437 23.8014 37.5437 22.2414C37.5437 20.6714 38.7837 19.4414 40.3437 19.4414C41.9037 19.4414 43.1437 20.6714 43.1437 22.2414C43.1437 23.8014 41.9037 25.0314 40.3437 25.0314Z"
        fillRule="evenodd"
        clipRule="evenodd"
    />
</svg>
        