
<svg
    viewBox="0 0 47.28902709231453 35.805114583427255"
    xmlns="http://www.w3.org/2000/svg"
>
    <path
        fill="inherit"
        d="M11.8844 26.8721L14.0144 25.9421C15.1944 26.6221 16.6644 26.6821 17.9644 25.9221C19.4044 25.0921 20.1244 23.5421 19.9044 22.0121L34.8344 13.3921C36.0644 14.3421 37.7644 14.4921 39.2144 13.6621C40.7744 12.7621 41.4644 11.0321 41.0844 9.3821L42.0644 8.6721C43.8044 7.4121 44.1244 5.8721 43.0144 3.9521L42.0444 2.2821C40.7244 0.0221 39.3344 -0.4479 36.9244 0.3821L30.6944 2.5321C30.0744 2.7521 29.5344 3.0121 29.0244 3.3521L18.5844 10.2721L21.0144 5.2921C21.5444 4.2021 19.9444 3.4121 19.3744 4.5721L15.6044 12.2221L9.7644 17.2321C7.0044 19.6121 6.2644 21.9421 7.7244 24.4921L8.4544 25.7621C9.2844 27.1921 10.3344 27.5421 11.8844 26.8721ZM9.9444 24.7521L9.2744 23.5921C8.3144 21.9421 8.8744 20.3221 10.8444 18.6121L16.3544 13.8821L16.3944 13.8421L30.2844 4.6521L37.5744 2.1321C38.9744 1.6421 39.7744 1.9221 40.4944 3.1721L41.4644 4.8421C42.0244 5.8321 41.8944 6.6221 41.0044 7.2621L40.3044 7.7721C39.1044 6.2621 36.9944 5.8421 35.2744 6.8421C33.4244 7.9021 32.7744 10.1221 33.7044 11.9921L19.2644 20.3221C18.1144 18.5821 15.8644 18.0521 14.0244 19.1021C12.1144 20.2121 11.4844 22.5721 12.5744 24.4921C12.6044 24.5221 12.6244 24.5421 12.6344 24.5821L11.3744 25.1321C10.7044 25.4321 10.2544 25.3121 9.9444 24.7521ZM38.3644 12.2121C37.2744 12.8421 35.9044 12.4821 35.2744 11.3821C34.6444 10.2821 35.0144 8.9221 36.1044 8.2921C37.2044 7.6621 38.5644 8.0321 39.1944 9.1221C39.8244 10.2121 39.4744 11.5821 38.3644 12.2121ZM8.5144 35.2321C8.8444 35.7821 9.5144 35.9621 10.0244 35.6621L46.7444 14.4821C47.2544 14.1921 47.4444 13.5121 47.1544 13.0021C46.8244 12.4621 46.1444 12.2821 45.6544 12.5821L8.9144 33.7621C8.4244 34.0621 8.2344 34.7421 8.5144 35.2321ZM17.1344 24.4721C16.0244 25.1021 14.6744 24.7521 14.0244 23.6521C13.3944 22.5521 13.7644 21.1921 14.8644 20.5521C15.9544 19.9221 17.3244 20.2921 17.9544 21.3821C18.5944 22.4821 18.2244 23.8521 17.1344 24.4721ZM6.1544 28.5321L3.2944 23.5621C2.8144 22.7121 1.8444 22.9321 1.5744 23.7521L0.0644 27.9621C-0.1356 28.5521 0.1244 29.0121 0.7344 29.1221L5.1244 29.9321C5.9844 30.1121 6.6444 29.3721 6.1544 28.5321Z"
        fillRule="evenodd"
        clipRule="evenodd"
    />
</svg>
        