
<svg
    viewBox="0 0 50.39453125 28.39934531310235"
    xmlns="http://www.w3.org/2000/svg"
>
    <path
        fill="inherit"
        d="M38.7037 7.0254L38.6337 5.1054C42.0237 4.8454 45.5237 5.8854 48.1537 7.1254C48.7437 7.3854 49.4337 7.1254 49.7137 6.5354C49.9537 5.9354 49.6837 5.2354 49.0937 4.9954C46.3437 3.6954 42.4237 2.5354 38.5637 2.7654L38.5137 0.9554C38.4837 -0.0346 37.8137 -0.2446 37.1037 0.2754L32.9237 3.3354C32.2837 3.7854 32.3037 4.4454 32.9537 4.8654L37.2737 7.7654C38.0637 8.2754 38.7237 8.0054 38.7037 7.0254ZM38.1037 11.2554C37.3137 11.1054 36.5737 11.0354 35.8237 11.1054L20.2737 12.1154L26.0537 8.2154C27.3037 7.3854 26.0837 5.5354 24.7437 6.4454L15.9837 12.2954L6.6737 14.0454C2.2237 14.8754 0.0037 16.9254 0.0037 20.5354V22.3554C0.0037 24.4054 0.9137 25.4154 2.9837 25.6554L5.7137 25.9754C5.6037 25.5454 5.5337 24.7754 5.5337 24.2954C5.5337 21.1254 8.0537 18.6054 11.2337 18.6054C14.4237 18.6054 16.9437 21.1254 16.9437 24.2954C16.9437 24.6954 16.9137 25.1454 16.8437 25.4154H33.7837C33.6837 25.1154 33.6437 24.7054 33.6437 24.2954C33.6437 21.1254 36.1637 18.6054 39.3437 18.6054C42.5337 18.6054 45.0537 21.3954 45.0537 24.5754C45.0537 24.7454 45.0537 24.8154 45.0337 24.9854L46.4837 24.8354C49.1237 24.5554 50.3937 23.0954 50.3937 20.3754V17.9954C50.3937 14.7554 49.2037 13.4054 46.1037 12.7954ZM11.2337 28.3954C13.5537 28.3954 15.3537 26.5954 15.3537 24.2954C15.3537 22.0054 13.5537 20.1954 11.2337 20.1954C8.9437 20.1954 7.1337 22.0054 7.1337 24.2954C7.1337 26.5954 8.9437 28.3954 11.2337 28.3954ZM39.3437 28.3954C41.6537 28.3954 43.4637 26.5954 43.4637 24.2954C43.4637 22.0054 41.6537 20.1954 39.3437 20.1954C37.0337 20.1954 35.2337 22.0054 35.2337 24.2954C35.2337 26.5954 37.0337 28.3954 39.3437 28.3954Z"
        fillRule="evenodd"
        clipRule="evenodd"
    />
</svg>
        