
<svg
    viewBox="0 0 50.39453125 26.892578125"
    xmlns="http://www.w3.org/2000/svg"
>
    <path
        fill="inherit"
        d="M22.1637 13.8587H28.3537C29.5137 13.8587 30.1237 13.2487 30.1237 12.0087V7.2487C30.1237 6.1087 29.6037 5.4987 28.6137 5.4187V3.7687C28.6137 2.3787 29.4637 1.4787 30.7937 1.4787C32.1137 1.4787 32.9637 2.3787 32.9637 3.7687V5.3087C32.9637 5.7187 33.2937 6.0387 33.7037 6.0387C34.1137 6.0387 34.4537 5.7187 34.4537 5.3087V4.0087C34.4537 1.5487 33.0337 -0.0013 30.7937 -0.0013C28.5637 -0.0013 27.1237 1.5487 27.1237 4.0087V5.3987H22.1637C21.0137 5.3987 20.4137 6.0187 20.4137 7.2487V12.0087C20.4137 13.2487 21.0137 13.8587 22.1637 13.8587ZM2.9837 24.1487L5.7237 24.4687C5.6237 24.0387 5.5537 23.2687 5.5537 22.7887C5.5537 19.6187 8.0537 17.0987 11.2337 17.0987C14.4237 17.0987 16.9437 19.6187 16.9437 22.7887C16.9437 23.1887 16.9137 23.6387 16.8437 23.9087H33.7937C33.7037 23.6087 33.6637 23.1987 33.6637 22.7887C33.6637 19.6187 36.1737 17.0987 39.3637 17.0987C42.5437 17.0987 45.0637 19.8887 45.0637 23.0687C45.0637 23.2387 45.0637 23.3087 45.0537 23.4787L46.4837 23.3287C49.1237 23.0487 50.3937 21.5887 50.3937 18.8687V16.4887C50.3937 13.2487 49.2337 11.8987 46.1037 11.2887L38.0937 9.7487C37.3137 9.5987 36.5737 9.5287 35.8237 9.5987L31.9237 9.8487V12.0087C31.9237 14.2687 30.4837 15.7387 28.3037 15.7387H22.1037C19.9037 15.7387 18.4737 14.2687 18.4737 12.0087V9.1287L15.9837 10.7887L6.6737 12.5387C2.2237 13.3687 0.0037 15.4187 0.0037 19.0287V20.8487C0.0037 22.8987 0.9137 23.9087 2.9837 24.1487ZM11.2337 26.8887C13.5537 26.8887 15.3537 25.0887 15.3537 22.7887C15.3537 20.4987 13.5537 18.6887 11.2337 18.6887C8.9437 18.6887 7.1337 20.4987 7.1337 22.7887C7.1337 25.0887 8.9437 26.8887 11.2337 26.8887ZM39.3637 26.8887C41.6737 26.8887 43.4737 25.0887 43.4737 22.7887C43.4737 20.4987 41.6737 18.6887 39.3637 18.6887C37.0537 18.6887 35.2437 20.4987 35.2437 22.7887C35.2437 25.0887 37.0537 26.8887 39.3637 26.8887Z"
        fillRule="evenodd"
        clipRule="evenodd"
    />
</svg>
        