
<svg
    viewBox="0 0 46.17941844678367 34.66402090041017"
    xmlns="http://www.w3.org/2000/svg"
>
    <path
        fill="inherit"
        d="M4.7762 6.4127L7.6562 1.4127C8.1362 0.5927 7.4662 -0.1373 6.6162 0.0227L2.2162 0.8327C1.6162 0.9527 1.3462 1.4127 1.5562 2.0027L3.0562 6.2027C3.3362 7.0227 4.2962 7.2327 4.7762 6.4127ZM12.8662 14.4927C14.3162 15.3227 16.0162 15.1727 17.2262 14.2327L32.1562 22.8427C31.9562 24.3727 32.6662 25.9127 34.1162 26.7627C35.6762 27.6527 37.5162 27.4127 38.7462 26.2427L39.8662 26.7427C41.8262 27.6127 43.3162 27.1027 44.4262 25.2027L45.3762 23.5427C46.6962 21.2527 46.3962 19.8027 44.4662 18.1527L39.4862 13.8327C38.9962 13.3927 38.4862 13.0627 37.9462 12.7927L26.7262 7.2027L32.2662 6.8227C33.4762 6.7327 33.3662 4.9427 32.0662 5.0427L23.5462 5.6027L16.2962 3.0427C12.8562 1.8427 10.4662 2.3627 8.9962 4.9027L8.2562 6.1727C7.4262 7.6227 7.6562 8.7027 9.0162 9.7027L10.8862 11.0727C10.8762 12.4327 11.5862 13.7527 12.8662 14.4927ZM40.5362 25.1127L39.7562 24.7527C40.4562 22.9627 39.7762 20.9427 38.0562 19.9427C36.2062 18.8727 33.9662 19.4227 32.8062 21.1627L18.3662 12.8227C19.2962 10.9427 18.6362 8.7327 16.8062 7.6827C14.8962 6.5727 12.5262 7.2027 11.4162 9.1127C11.4062 9.1427 11.3962 9.1827 11.3762 9.2127L10.2562 8.3927C9.6662 7.9627 9.5462 7.5027 9.8762 6.9527L10.5462 5.7927C11.4862 4.1527 13.1662 3.8127 15.6462 4.6727L22.4962 7.0727L22.5462 7.0927L37.4462 14.5327L43.2762 19.5727C44.4062 20.5627 44.5562 21.3827 43.8362 22.6327L42.8762 24.3027C42.3062 25.2927 41.5562 25.5627 40.5362 25.1127ZM13.7062 13.0427C12.6062 12.4127 12.2362 11.0427 12.8662 9.9527C13.5062 8.8527 14.8762 8.4827 15.9762 9.1327C17.0662 9.7527 17.4362 11.1227 16.7962 12.2227C16.1662 13.3127 14.7962 13.6827 13.7062 13.0427ZM0.1562 11.7927C-0.1638 12.3427 0.0262 13.0127 0.5362 13.3127L37.2462 34.5127C37.7462 34.8227 38.4362 34.6427 38.7362 34.1327C39.0362 33.5727 38.8462 32.9027 38.3562 32.6127L1.6262 11.4027C1.1362 11.1127 0.4362 11.2927 0.1562 11.7927ZM34.9462 25.3127C33.8562 24.6727 33.4862 23.3027 34.1162 22.2127C34.7462 21.1227 36.1062 20.7527 37.2162 21.3927C38.3062 22.0227 38.6662 23.3927 38.0362 24.4827C37.4062 25.5727 36.0462 25.9427 34.9462 25.3127Z"
        fillRule="evenodd"
        clipRule="evenodd"
    />
</svg>
        