<svg viewBox="0 0 27.015625 22.19955604478853" xmlns="http://www.w3.org/2000/svg"><path d="M2.9837 19.4556L5.8237 19.7756C6.6537 21.2456 8.2137 22.1956 10.0637 22.1956C12.1137 22.1956 13.8337 20.9856 14.5637 19.2156H27.0137V17.0156H14.9037C14.7537 14.4456 12.6737 12.4756 10.0637 12.4756C7.3237 12.4756 5.1937 14.6156 5.1937 17.3456C5.1937 17.3856 5.1937 17.4456 5.1937 17.4856L3.5037 17.2956C2.6137 17.1856 2.2037 16.7856 2.2037 15.9956V14.3356C2.2037 11.9856 3.7837 10.5956 6.9637 9.9856L15.7737 8.3256H15.8337L27.0137 7.6356V5.4356L20.3837 5.8356L26.0537 2.0156C27.3037 1.1856 26.0837 -0.6644 24.7437 0.2456L15.9837 6.0956L14.0937 6.4456L8.9937 1.3656C8.2037 0.5656 7.1637 0.2256 5.9337 0.2256H1.8137C1.1937 0.2256 0.7937 0.6256 0.7937 1.2156C0.7937 1.8056 1.1937 2.1956 1.8137 2.1956H6.1637C6.6837 2.1956 7.0837 2.3356 7.3937 2.6456L11.6637 6.9156L6.6737 7.8456C2.2237 8.6756 0.0037 10.7256 0.0037 14.3356V16.1556C0.0037 18.2056 0.9137 19.2356 2.9837 19.4556ZM10.0637 20.1356C8.4937 20.1356 7.2637 18.9056 7.2637 17.3456C7.2637 15.7756 8.4937 14.5456 10.0637 14.5456C11.6237 14.5456 12.8537 15.7756 12.8537 17.3456C12.8537 18.9056 11.6237 20.1356 10.0637 20.1356Z" /></svg>