
<svg
    viewBox="0 0 50.39453125 28.39934531310235"
    xmlns="http://www.w3.org/2000/svg"
>
    <path
        fill="inherit"
        d="M38.7037 7.0254L38.6337 5.1054C42.0237 4.8454 45.5237 5.8854 48.1537 7.1254C48.7437 7.3854 49.4337 7.1254 49.7137 6.5354C49.9537 5.9354 49.6837 5.2354 49.0937 4.9954C46.3437 3.6954 42.4237 2.5354 38.5637 2.7654L38.5137 0.9554C38.4837 -0.0346 37.8137 -0.2446 37.1037 0.2754L32.9237 3.3354C32.2837 3.7854 32.3037 4.4454 32.9537 4.8654L37.2737 7.7654C38.0637 8.2754 38.7237 8.0054 38.7037 7.0254ZM2.9837 25.6554L5.8237 25.9754C6.6537 27.4454 8.2137 28.3954 10.0637 28.3954C12.1137 28.3954 13.8337 27.1854 14.5637 25.4154H35.8437C36.5537 27.1854 38.2837 28.3954 40.3437 28.3954C42.5637 28.3954 44.3937 26.9954 44.9937 24.9954L46.4837 24.8354C49.1237 24.5554 50.3937 23.0954 50.3937 20.3754V17.9954C50.3937 14.7554 49.1937 13.3854 46.1037 12.7954L38.1037 11.2554C37.3137 11.1054 36.5737 11.0454 35.8237 11.1054L20.3837 12.0354L26.0537 8.2154C27.3037 7.3854 26.0837 5.5354 24.7437 6.4454L15.9837 12.2954L6.6737 14.0454C2.2237 14.8754 0.0037 16.9254 0.0037 20.5354V22.3554C0.0037 24.4054 0.9137 25.4354 2.9837 25.6554ZM3.5037 23.4954C2.6137 23.3954 2.2037 22.9854 2.2037 22.1954V20.5354C2.2037 18.1854 3.7837 16.7954 6.9637 16.1854L15.7737 14.5254H15.8337L36.3637 13.2654L45.7037 15.0654C47.5237 15.4154 48.1937 16.2054 48.1937 17.9954V20.3754C48.1937 21.7854 47.5537 22.5354 46.2137 22.6754L45.1437 22.7754C44.7937 20.4254 42.8037 18.6754 40.3437 18.6754C37.7237 18.6754 35.6537 20.6454 35.4937 23.2154H14.9037C14.7537 20.6454 12.6737 18.6754 10.0637 18.6754C7.3237 18.6754 5.1937 20.8154 5.1937 23.5454C5.1937 23.5854 5.1937 23.6454 5.1937 23.6854ZM10.0637 26.3354C8.4937 26.3354 7.2637 25.1054 7.2637 23.5454C7.2637 21.9754 8.4937 20.7454 10.0637 20.7454C11.6237 20.7454 12.8537 21.9754 12.8537 23.5454C12.8537 25.1054 11.6237 26.3354 10.0637 26.3354ZM40.3437 26.3354C38.7737 26.3354 37.5437 25.1054 37.5437 23.5454C37.5437 21.9754 38.7737 20.7454 40.3437 20.7454C41.9037 20.7454 43.1337 21.9754 43.1337 23.5454C43.1337 25.1054 41.9037 26.3354 40.3437 26.3354Z"
        fillRule="evenodd"
        clipRule="evenodd"
    />
</svg>
        