
<svg
    viewBox={0 0 32.990234375 26.8515625}
    xmlns="http://www.w3.org/2000/svg"
>
    <path
        fill="inherit"
        d="M4.0737 26.8532H28.9137C31.6237 26.8532 32.9937 25.4732 32.9937 22.8232V4.0332C32.9937 1.3832 31.6237 0.0032 28.9137 0.0032H4.0737C1.3837 0.0032 0.0037 1.3832 0.0037 4.0332V22.8232C0.0037 25.4732 1.3837 26.8532 4.0737 26.8532ZM8.4037 12.3632C6.0837 12.3632 4.1837 10.4432 4.1837 8.1232C4.1837 5.7932 6.0837 3.8832 8.4037 3.8832C10.7437 3.8832 12.6437 5.7932 12.6437 8.1232C12.6437 10.4432 10.7437 12.3632 8.4037 12.3632ZM19.3437 12.3632C17.0037 12.3632 15.1037 10.4432 15.1037 8.1232C15.1037 5.7932 17.0037 3.8832 19.3437 3.8832C21.6837 3.8832 23.5737 5.7932 23.5737 8.1232C23.5737 10.4432 21.6837 12.3632 19.3437 12.3632ZM8.4037 11.0032C10.0037 11.0032 11.3037 9.7232 11.3037 8.1232C11.3037 6.5232 10.0037 5.2332 8.4037 5.2332C6.8237 5.2332 5.5337 6.5232 5.5337 8.1232C5.5337 9.7232 6.8237 11.0032 8.4037 11.0032ZM19.3437 11.0032C20.9437 11.0032 22.2337 9.7232 22.2337 8.1232C22.2337 6.5232 20.9437 5.2332 19.3437 5.2332C17.7637 5.2332 16.4637 6.5232 16.4637 8.1232C16.4637 9.7232 17.7637 11.0032 19.3437 11.0032ZM8.4037 10.3532C7.1737 10.3532 6.2037 9.3832 6.2037 8.1232C6.2037 6.8632 7.1737 5.9032 8.4037 5.9032C9.6637 5.9032 10.6237 6.8632 10.6237 8.1232C10.6237 9.3832 9.6637 10.3532 8.4037 10.3532ZM19.3437 10.3532C18.0837 10.3532 17.1137 9.3832 17.1137 8.1232C17.1137 6.8632 18.0837 5.9032 19.3437 5.9032C20.5937 5.9032 21.5637 6.8632 21.5637 8.1232C21.5637 9.3832 20.5937 10.3532 19.3437 10.3532ZM28.0437 8.5732C27.3437 8.5732 26.7937 8.0232 26.7937 7.3232C26.7937 6.6532 27.3437 6.0932 28.0437 6.0932C28.7237 6.0932 29.2737 6.6532 29.2737 7.3232C29.2737 8.0232 28.7237 8.5732 28.0437 8.5732ZM28.0437 12.6232C27.3437 12.6232 26.7937 12.0832 26.7937 11.3732C26.7937 10.7032 27.3437 10.1432 28.0437 10.1432C28.7237 10.1432 29.2737 10.7032 29.2737 11.3732C29.2737 12.0832 28.7237 12.6232 28.0437 12.6232ZM28.0437 16.6932C27.3437 16.6932 26.7937 16.1332 26.7937 15.4532C26.7937 14.7532 27.3437 14.2232 28.0437 14.2232C28.7237 14.2232 29.2737 14.7532 29.2737 15.4532C29.2737 16.1332 28.7237 16.6932 28.0437 16.6932ZM8.4037 22.9232C6.0837 22.9232 4.1837 21.0232 4.1837 18.6932C4.1837 16.3632 6.0837 14.4632 8.4037 14.4632C10.7437 14.4632 12.6437 16.3632 12.6437 18.6932C12.6437 21.0232 10.7437 22.9232 8.4037 22.9232ZM19.3437 22.9232C17.0037 22.9232 15.1037 21.0232 15.1037 18.6932C15.1037 16.3632 17.0037 14.4632 19.3437 14.4632C21.6837 14.4632 23.5737 16.3632 23.5737 18.6932C23.5737 21.0232 21.6837 22.9232 19.3437 22.9232ZM8.4037 21.5732C10.0037 21.5732 11.3037 20.3032 11.3037 18.6932C11.3037 17.0932 10.0037 15.8232 8.4037 15.8232C6.8237 15.8232 5.5337 17.0932 5.5337 18.6932C5.5337 20.3032 6.8237 21.5732 8.4037 21.5732ZM19.3437 21.5732C20.9437 21.5732 22.2337 20.3032 22.2337 18.6932C22.2337 17.0932 20.9437 15.8232 19.3437 15.8232C17.7637 15.8232 16.4637 17.0932 16.4637 18.6932C16.4637 20.3032 17.7637 21.5732 19.3437 21.5732ZM8.4037 20.9132C7.1737 20.9132 6.2037 19.9432 6.2037 18.6932C6.2037 17.4432 7.1737 16.4732 8.4037 16.4732C9.6637 16.4732 10.6237 17.4432 10.6237 18.6932C10.6237 19.9432 9.6637 20.9132 8.4037 20.9132ZM19.3437 20.9132C18.0837 20.9132 17.1137 19.9432 17.1137 18.6932C17.1137 17.4432 18.0837 16.4732 19.3437 16.4732C20.5937 16.4732 21.5637 17.4432 21.5637 18.6932C21.5637 19.9432 20.5937 20.9132 19.3437 20.9132ZM28.0437 20.7432C27.3437 20.7432 26.7937 20.1832 26.7937 19.4932C26.7937 18.8132 27.3437 18.2632 28.0437 18.2632C28.7237 18.2632 29.2737 18.8132 29.2737 19.4932C29.2737 20.1832 28.7237 20.7432 28.0437 20.7432Z"
        fillRule="evenodd"
        clipRule="evenodd"
    />
</svg>
        