
<svg
    viewBox="0 0 27.5078125 27.5078125"
    xmlns="http://www.w3.org/2000/svg"
>
    <path
        fill="inherit"
        d="M0.0037 18.2813C0.0037 18.9313 0.4337 19.3913 1.0937 19.3913H2.5037V23.9213C2.5037 24.5813 2.9437 25.0013 3.5937 25.0013H8.1237V26.4113C8.1237 27.0713 8.5737 27.5113 9.2237 27.5113C9.8837 27.5113 10.3237 27.0713 10.3237 26.4113V25.0013H12.6637V26.4113C12.6637 27.0713 13.0937 27.5113 13.7537 27.5113C14.4137 27.5113 14.8637 27.0713 14.8637 26.4113V25.0013H17.1837V26.4113C17.1837 27.0713 17.6237 27.5113 18.2837 27.5113C18.9537 27.5113 19.3837 27.0713 19.3837 26.4113V25.0013H23.9137C24.5637 25.0013 25.0037 24.5813 25.0037 23.9213V19.3713H26.4137C27.0737 19.3713 27.5037 18.9213 27.5037 18.2613C27.5037 17.6113 27.0737 17.1713 26.4137 17.1713H25.0037V14.8313H26.4137C27.0737 14.8313 27.5037 14.4013 27.5037 13.7413C27.5037 13.0813 27.0737 12.6313 26.4137 12.6313H25.0037V10.3113H26.4137C27.0737 10.3113 27.5037 9.8613 27.5037 9.2013C27.5037 8.5413 27.0737 8.1113 26.4137 8.1113H25.0037V3.5913C25.0037 2.9413 24.5637 2.5013 23.9137 2.5013H19.3837V1.1113C19.3837 0.4513 18.9537 0.0013 18.2837 0.0013C17.6237 0.0013 17.1837 0.4513 17.1837 1.1113V2.5013H14.8637V1.1113C14.8637 0.4513 14.4137 0.0013 13.7537 0.0013C13.0937 0.0013 12.6637 0.4513 12.6637 1.1113V2.5013H10.3237V1.1113C10.3237 0.4513 9.8837 0.0013 9.2237 0.0013C8.5737 0.0013 8.1237 0.4513 8.1237 1.1113V2.5013H3.5937C2.9437 2.5013 2.5037 2.9413 2.5037 3.5913V8.1213H1.0937C0.4337 8.1213 0.0037 8.5613 0.0037 9.2113C0.0037 9.8713 0.4337 10.3213 1.0937 10.3213H2.5037V12.6513H1.0937C0.4337 12.6513 0.0037 13.1013 0.0037 13.7513C0.0037 14.4113 0.4337 14.8513 1.0937 14.8513H2.5037V17.1813H1.0937C0.4337 17.1813 0.0037 17.6213 0.0037 18.2813ZM8.5337 20.0713C7.8037 20.0713 7.4537 19.7313 7.4537 18.9813V8.5313C7.4537 7.7913 7.8037 7.4513 8.5337 7.4513H19.0037C19.7237 7.4513 20.0737 7.7913 20.0737 8.5313V18.9813C20.0737 19.7313 19.7237 20.0713 19.0037 20.0713ZM9.3137 17.8713C9.3137 18.0713 9.4437 18.2113 9.6537 18.2113H17.8737C18.0837 18.2113 18.2137 18.0713 18.2137 17.8713V9.6513C18.2137 9.4313 18.0837 9.3113 17.8737 9.3113H9.6537C9.4437 9.3113 9.3137 9.4313 9.3137 9.6513Z"
        fillRule="evenodd"
        clipRule="evenodd"
    />
</svg>
        