<svg viewBox="0 0 27.5078125 27.5078125" xmlns="http://www.w3.org/2000/svg"><path d="M0.0037 18.2813C0.0037 18.9313 0.4337 19.3913 1.0937 19.3913H2.5037V23.9213C2.5037 24.5813 2.9437 25.0013 3.5937 25.0013H8.1237V26.4113C8.1237 27.0713 8.5737 27.5113 9.2237 27.5113C9.8837 27.5113 10.3237 27.0713 10.3237 26.4113V25.0013H12.6637V26.4113C12.6637 27.0713 13.0937 27.5113 13.7537 27.5113C14.4137 27.5113 14.8637 27.0713 14.8637 26.4113V25.0013H17.1837V26.4113C17.1837 27.0713 17.6237 27.5113 18.2837 27.5113C18.9537 27.5113 19.3837 27.0713 19.3837 26.4113V25.0013H23.9137C24.5637 25.0013 25.0037 24.5813 25.0037 23.9213V19.3713H26.4137C27.0737 19.3713 27.5037 18.9213 27.5037 18.2613C27.5037 17.6113 27.0737 17.1713 26.4137 17.1713H25.0037V14.8313H26.4137C27.0737 14.8313 27.5037 14.4013 27.5037 13.7413C27.5037 13.0813 27.0737 12.6313 26.4137 12.6313H25.0037V10.3113H26.4137C27.0737 10.3113 27.5037 9.8613 27.5037 9.2013C27.5037 8.5413 27.0737 8.1113 26.4137 8.1113H25.0037V3.5913C25.0037 2.9413 24.5637 2.5013 23.9137 2.5013H19.3837V1.1113C19.3837 0.4513 18.9537 0.0013 18.2837 0.0013C17.6237 0.0013 17.1837 0.4513 17.1837 1.1113V2.5013H14.8637V1.1113C14.8637 0.4513 14.4137 0.0013 13.7537 0.0013C13.0937 0.0013 12.6637 0.4513 12.6637 1.1113V2.5013H10.3237V1.1113C10.3237 0.4513 9.8837 0.0013 9.2237 0.0013C8.5737 0.0013 8.1237 0.4513 8.1237 1.1113V2.5013H3.5937C2.9437 2.5013 2.5037 2.9413 2.5037 3.5913V8.1213H1.0937C0.4337 8.1213 0.0037 8.5613 0.0037 9.2113C0.0037 9.8713 0.4337 10.3213 1.0937 10.3213H2.5037V12.6513H1.0937C0.4337 12.6513 0.0037 13.1013 0.0037 13.7513C0.0037 14.4113 0.4337 14.8513 1.0937 14.8513H2.5037V17.1813H1.0937C0.4337 17.1813 0.0037 17.6213 0.0037 18.2813ZM4.7037 22.4113V5.1113C4.7037 4.8113 4.8137 4.7013 5.1037 4.7013H22.4037C22.6937 4.7013 22.8037 4.8113 22.8037 5.1113V22.4113C22.8037 22.7113 22.6937 22.8013 22.4037 22.8013H5.1037C4.8137 22.8013 4.7037 22.7113 4.7037 22.4113ZM8.6837 19.8813H18.8537C19.5537 19.8813 19.8837 19.5513 19.8837 18.8213V8.6813C19.8837 7.9713 19.5537 7.6413 18.8537 7.6413H8.6837C7.9837 7.6413 7.6437 7.9713 7.6437 8.6813V18.8213C7.6437 19.5513 7.9837 19.8813 8.6837 19.8813ZM9.4337 17.7613V9.7613C9.4337 9.5613 9.5737 9.4313 9.7637 9.4313H17.7637C17.9637 9.4313 18.0837 9.5613 18.0837 9.7613V17.7613C18.0837 17.9513 17.9637 18.0913 17.7637 18.0913H9.7637C9.5737 18.0913 9.4337 17.9513 9.4337 17.7613Z" /></svg>