
<svg
    viewBox="0 0 27.890625 27.890625"
    xmlns="http://www.w3.org/2000/svg"
>
    <path
        fill="inherit"
        d="M13.9427 27.8864C21.6427 27.8864 27.8927 21.6464 27.8927 13.9464C27.8927 6.2464 21.6427 -0.0036 13.9427 -0.0036C6.2527 -0.0036 0.0027 6.2464 0.0027 13.9464C0.0027 21.6464 6.2527 27.8864 13.9427 27.8864ZM13.9427 25.5664C7.5227 25.5664 2.3227 20.3664 2.3227 13.9464C2.3227 7.5164 7.5227 2.3264 13.9427 2.3264C20.3727 2.3264 25.5627 7.5164 25.5627 13.9464C25.5627 20.3664 20.3727 25.5664 13.9427 25.5664ZM6.1527 10.9664H21.7127V10.3464C21.7127 8.9964 21.0127 8.3164 19.6427 8.3164H8.2127C6.8527 8.3164 6.1527 8.9864 6.1527 10.3464ZM8.2127 19.6064H19.6427C21.0127 19.6064 21.7127 18.9264 21.7127 17.5564V12.4664H6.1527V17.5564C6.1527 18.9264 6.8527 19.6064 8.2127 19.6064ZM8.8627 17.5564C8.4727 17.5564 8.2127 17.2964 8.2127 16.9264V15.6964C8.2127 15.3264 8.4727 15.0664 8.8627 15.0664H10.4827C10.8727 15.0664 11.1327 15.3264 11.1327 15.6964V16.9264C11.1327 17.2964 10.8727 17.5564 10.4827 17.5564Z"
        fillRule="evenodd"
        clipRule="evenodd"
    />
</svg>
        