
<svg
    viewBox={0 0 32.12890625 23.3515625}
    xmlns="http://www.w3.org/2000/svg"
>
    <path
        fill="inherit"
        d="M27.8337 0.0032H4.2937C1.4337 0.0032 0.0037 1.4232 0.0037 4.2432V5.5132H32.1337V4.2432C32.1337 1.4232 30.7037 0.0032 27.8337 0.0032ZM5.5937 19.1132C4.7837 19.1132 4.2537 18.5632 4.2537 17.8032V15.2732C4.2537 14.4932 4.7837 13.9632 5.5937 13.9632H8.9437C9.7437 13.9632 10.2837 14.4932 10.2837 15.2732V17.8032C10.2837 18.5632 9.7437 19.1132 8.9437 19.1132ZM4.2937 23.3532H27.8337C30.7037 23.3532 32.1337 21.9432 32.1337 19.1232V8.6132H0.0037V19.1232C0.0037 21.9432 1.4337 23.3532 4.2937 23.3532Z"
        fillRule="evenodd"
        clipRule="evenodd"
    />
</svg>
        