
<svg
    viewBox="0 0 34.64453125 24.705078125"
    xmlns="http://www.w3.org/2000/svg"
>
    <path
        fill="inherit"
        d="M4.2937 23.3532H15.4037V21.1532H4.3337C2.9637 21.1532 2.2037 20.4232 2.2037 19.0032V8.5432H29.9237V13.1432C30.2937 13.0732 30.6637 13.0332 31.0537 13.0332C31.4137 13.0332 31.7837 13.0532 32.1337 13.1232V4.2432C32.1337 1.4232 30.7037 0.0032 27.8337 0.0032H4.2937C1.4537 0.0032 0.0037 1.4232 0.0037 4.2432V19.1232C0.0037 21.9432 1.4537 23.3532 4.2937 23.3532ZM2.2037 4.3632C2.2037 2.9432 2.9637 2.2032 4.3337 2.2032H27.8037C29.1637 2.2032 29.9237 2.9432 29.9237 4.3632V5.4432H2.2037ZM21.1237 24.5732H26.2637C26.7437 24.5732 27.0937 24.2232 27.0937 23.7632C27.0937 23.2732 26.7437 22.9132 26.2637 22.9132H23.0137V22.8432L24.8037 21.0732C26.3137 19.5732 26.7937 18.7532 26.7937 17.7232C26.7937 16.1032 25.4037 14.8932 23.5337 14.8932C22.0637 14.8932 20.8237 15.7232 20.4137 16.9232C20.3437 17.1332 20.2937 17.3332 20.2937 17.5732C20.2937 18.0632 20.6337 18.3932 21.0937 18.3932C21.5237 18.3932 21.7837 18.1832 21.9037 17.7232C21.9337 17.6132 21.9537 17.5132 21.9937 17.4132C22.2737 16.8432 22.8337 16.5132 23.5337 16.5132C24.3537 16.5132 25.0237 17.1032 25.0237 17.7832C25.0237 18.4032 24.7437 18.8232 23.5837 19.9732L20.6837 22.8632C20.3737 23.1632 20.2437 23.4232 20.2437 23.7332C20.2437 24.2232 20.6037 24.5732 21.1237 24.5732ZM31.0637 24.7032C33.1237 24.7032 34.6437 23.4632 34.6437 21.7632C34.6437 20.7232 34.0737 19.8832 33.1937 19.5132C33.8837 19.0832 34.2637 18.3932 34.2637 17.5232C34.2637 15.9932 32.9037 14.8932 31.0537 14.8932C29.6437 14.8932 28.4737 15.5332 28.0037 16.5532C27.8737 16.8132 27.8037 17.1032 27.8037 17.3732C27.8037 17.8532 28.1337 18.1832 28.6137 18.1832C29.0437 18.1832 29.2837 17.9932 29.4037 17.5832C29.6437 16.9032 30.1837 16.5132 31.0037 16.5132C31.9337 16.5132 32.4937 16.9632 32.4937 17.6732C32.4937 18.4132 31.8937 18.8832 30.9537 18.8832H30.2737C29.8037 18.8832 29.4737 19.2232 29.4737 19.6732C29.4737 20.1232 29.8037 20.4532 30.2737 20.4532H30.9637C32.1737 20.4532 32.8237 20.9132 32.8237 21.7632C32.8237 22.5432 32.1337 23.0632 31.0737 23.0632C30.1337 23.0632 29.4737 22.6632 29.2537 21.9932C29.1337 21.5832 28.8637 21.3932 28.4537 21.3932C27.9637 21.3932 27.6037 21.7432 27.6037 22.2332C27.6037 22.4932 27.6737 22.7732 27.8037 23.0232C28.3837 24.0932 29.5437 24.7032 31.0637 24.7032ZM18.1437 24.6932C18.6937 24.6932 19.0437 24.3332 19.0437 23.8032V15.8832C19.0437 15.3232 18.6637 14.9432 18.0737 14.9432C17.7737 14.9432 17.5537 15.0232 17.2137 15.2532L15.1437 16.5932C14.8237 16.8032 14.6737 17.0632 14.6737 17.3732C14.6737 17.8132 15.0137 18.1332 15.4637 18.1332C15.6437 18.1332 15.8037 18.0732 15.9837 17.9532L17.2037 17.1832H17.2837V23.8032C17.2837 24.3332 17.6337 24.6932 18.1437 24.6932Z"
        fillRule="evenodd"
        clipRule="evenodd"
    />
</svg>
        