
<svg
    viewBox="0 0 32.12890625 23.3515625"
    xmlns="http://www.w3.org/2000/svg"
>
    <path
        fill="inherit"
        d="M4.2937 23.3532H27.8337C30.7037 23.3532 32.1337 21.9432 32.1337 19.1232V4.2432C32.1337 1.4232 30.7037 0.0032 27.8337 0.0032H4.2937C1.4337 0.0032 0.0037 1.4232 0.0037 4.2432V19.1232C0.0037 21.9432 1.4337 23.3532 4.2937 23.3532ZM2.2037 4.3632C2.2037 2.9432 2.9537 2.2032 4.3237 2.2032H27.8037C29.1437 2.2032 29.9237 2.9432 29.9237 4.3632V5.4432H2.2037ZM4.3237 21.1532C2.9537 21.1532 2.2037 20.4232 2.2037 19.0032V8.5432H29.9237V19.0032C29.9237 20.4232 29.1437 21.1532 27.8037 21.1532ZM6.1437 18.5632H9.4837C10.2937 18.5632 10.8237 18.0232 10.8237 17.2532V14.7232C10.8237 13.9432 10.2937 13.4132 9.4837 13.4132H6.1437C5.3337 13.4132 4.8037 13.9432 4.8037 14.7232V17.2532C4.8037 18.0232 5.3337 18.5632 6.1437 18.5632Z"
        fillRule="evenodd"
        clipRule="evenodd"
    />
</svg>
        