
<svg
    viewBox="0 0 27.890625 27.890625"
    xmlns="http://www.w3.org/2000/svg"
>
    <path
        fill="inherit"
        d="M13.9427 27.8864C21.6427 27.8864 27.8927 21.6264 27.8927 13.9464C27.8927 6.2464 21.6427 -0.0036 13.9427 -0.0036C6.2627 -0.0036 0.0027 6.2464 0.0027 13.9464C0.0027 21.6264 6.2627 27.8864 13.9427 27.8864ZM5.9227 10.8664V10.2364C5.9227 8.8164 6.6427 8.1364 8.0527 8.1364H19.8427C21.2427 8.1364 21.9727 8.8364 21.9727 10.2364V10.8664ZM8.0527 19.7864C6.6427 19.7864 5.9227 19.0864 5.9227 17.6664V12.4264H21.9727V17.6664C21.9727 19.0864 21.2427 19.7864 19.8427 19.7864ZM8.7127 17.6664H10.3927C10.7827 17.6664 11.0627 17.4064 11.0627 17.0264V15.7464C11.0627 15.3664 10.7827 15.1064 10.3927 15.1064H8.7127C8.3227 15.1064 8.0527 15.3664 8.0527 15.7464V17.0264C8.0527 17.4064 8.3227 17.6664 8.7127 17.6664Z"
        fillRule="evenodd"
        clipRule="evenodd"
    />
</svg>
        