
<svg
    viewBox={0 0 27.890625 27.890625}
    xmlns="http://www.w3.org/2000/svg"
>
    <path
        fill="inherit"
        d="M13.9427 -0.0036C6.2527 -0.0036 0.0027 6.2464 0.0027 13.9464C0.0027 21.6464 6.2527 27.8864 13.9427 27.8864C21.6427 27.8864 27.8927 21.6464 27.8927 13.9464C27.8927 6.2464 21.6427 -0.0036 13.9427 -0.0036ZM4.2527 17.8164L2.9927 19.0564C2.2727 17.5164 1.8627 15.7764 1.8627 13.9464C1.8627 7.2764 7.2727 1.8564 13.9427 1.8564C15.7727 1.8564 17.5127 2.2664 19.0727 2.9964L17.7827 4.2664C17.4827 4.5664 17.4827 5.0464 17.7827 5.3464C18.0927 5.6364 18.5627 5.6464 18.8627 5.3464L20.4527 3.7564C20.9327 4.0564 21.3827 4.4064 21.8227 4.7764L4.7727 21.8164C4.4027 21.3864 4.0727 20.9364 3.7627 20.4564L5.3227 18.8964C5.6327 18.5964 5.6227 18.1164 5.3227 17.8164C5.0127 17.5164 4.5527 17.5164 4.2527 17.8164ZM15.7627 6.2864L13.9427 8.1064C13.6427 8.4064 13.6427 8.8864 13.9427 9.1864C14.2427 9.4764 14.7227 9.4864 15.0227 9.1864L16.8427 7.3664C17.1427 7.0664 17.1427 6.5864 16.8427 6.2864C16.5427 5.9864 16.0627 5.9864 15.7627 6.2864ZM9.0227 22.5464L7.4327 24.1264C6.9627 23.8264 6.5127 23.4864 6.0827 23.1164L23.1327 6.0864C23.4927 6.5064 23.8327 6.9564 24.1327 7.4364L22.5727 8.9964C22.2727 9.2964 22.2827 9.7764 22.5727 10.0764C22.8727 10.3764 23.3527 10.3764 23.6427 10.0764L24.8927 8.8164C25.6227 10.3764 26.0327 12.1164 26.0327 13.9464C26.0327 20.6164 20.6127 26.0264 13.9427 26.0264C12.1127 26.0264 10.3727 25.6164 8.8327 24.8964L10.1027 23.6064C10.4027 23.3064 10.4027 22.8464 10.1027 22.5464C9.8027 22.2464 9.3227 22.2264 9.0227 22.5464ZM11.9227 10.1264L10.1027 11.9464C9.8027 12.2464 9.8027 12.7264 10.1027 13.0264C10.4227 13.3264 10.8827 13.3264 11.1827 13.0264L13.0027 11.2064C13.3027 10.9064 13.3027 10.4364 13.0027 10.1264C12.7027 9.8264 12.2227 9.8264 11.9227 10.1264ZM20.5527 11.0164L18.7327 12.8364C18.4327 13.1364 18.4427 13.6064 18.7327 13.9164C19.0327 14.2164 19.5127 14.2164 19.8127 13.9164L21.6127 12.0964C21.9327 11.7964 21.9327 11.3164 21.6127 11.0164C21.3127 10.7164 20.8527 10.7164 20.5527 11.0164ZM8.0827 13.9764L6.2727 15.7864C5.9727 16.0964 5.9727 16.5564 6.2727 16.8664C6.5727 17.1564 7.0427 17.1564 7.3527 16.8664L9.1627 15.0564C9.4627 14.7564 9.4427 14.2764 9.1627 13.9764C8.8627 13.6764 8.3927 13.6764 8.0827 13.9764ZM16.7027 14.8564L14.8927 16.6664C14.5927 16.9764 14.5927 17.4464 14.8927 17.7464C15.1927 18.0564 15.6727 18.0564 15.9727 17.7464L17.7827 15.9364C18.0927 15.6264 18.0927 15.1664 17.7827 14.8564C17.4827 14.5564 17.0127 14.5564 16.7027 14.8564ZM12.8627 18.6864L11.0427 20.5064C10.7427 20.8064 10.7427 21.2864 11.0427 21.5864C11.3627 21.8864 11.8227 21.8864 12.1227 21.5864L13.9427 19.7664C14.2427 19.4664 14.2427 19.0064 13.9427 18.6864C13.6427 18.4164 13.1627 18.4064 12.8627 18.6864Z"
        fillRule="evenodd"
        clipRule="evenodd"
    />
</svg>
        