<svg viewBox="0 0 27.890625 27.890625" xmlns="http://www.w3.org/2000/svg"><path d="M13.9427 27.8864C21.6427 27.8864 27.8927 21.6464 27.8927 13.9464C27.8927 6.2464 21.6427 -0.0036 13.9427 -0.0036C6.2527 -0.0036 0.0027 6.2464 0.0027 13.9464C0.0027 21.6464 6.2527 27.8864 13.9427 27.8864ZM13.9427 25.5664C7.5227 25.5664 2.3227 20.3664 2.3227 13.9464C2.3227 7.5164 7.5227 2.3264 13.9427 2.3264C20.3727 2.3264 25.5627 7.5164 25.5627 13.9464C25.5627 20.3664 20.3727 25.5664 13.9427 25.5664ZM18.0227 7.9264L16.6227 9.2864C16.4427 9.4764 16.1827 9.4764 15.9927 9.2864C15.8227 9.1064 15.8327 8.8464 15.9927 8.6564L17.2127 7.4364C16.2127 6.9364 15.0927 6.6264 13.9327 6.6264C9.9427 6.6264 6.6127 9.9664 6.6127 13.9564C6.6127 15.1164 6.9027 16.2264 7.4127 17.2164L8.6527 16.0064C8.8327 15.8364 9.0927 15.8364 9.2827 16.0064C9.4627 16.1864 9.4727 16.4564 9.2827 16.6564L7.9027 18.0364C8.0527 18.2764 8.2127 18.4964 8.4227 18.7064L18.7027 8.4464C18.4827 8.2564 18.2527 8.0764 18.0227 7.9264ZM20.4527 10.6864L19.2527 11.8764C19.0627 12.0564 18.8027 12.0564 18.6227 11.8764C18.4327 11.6864 18.4327 11.4164 18.6227 11.2364L19.9727 9.8864C19.8127 9.6564 19.6427 9.4164 19.4427 9.1964L9.1827 19.4664C9.3827 19.6564 9.6127 19.8264 9.8427 19.9864L11.2627 18.5964C11.4427 18.4164 11.7127 18.4164 11.8927 18.5964C12.0727 18.7864 12.0727 19.0464 11.8927 19.2264L10.6627 20.4764C11.6627 20.9864 12.7727 21.2864 13.9327 21.2864C17.9227 21.2864 21.2627 17.9464 21.2627 13.9564C21.2627 12.7964 20.9627 11.6764 20.4527 10.6864ZM15.5327 10.3864L14.5327 11.3764C14.3527 11.5564 14.0927 11.5564 13.9227 11.3764C13.7227 11.2064 13.7227 10.9364 13.9227 10.7464L14.9027 9.7664C15.0827 9.5864 15.3527 9.5864 15.5327 9.7664C15.7127 9.9364 15.7127 10.2164 15.5327 10.3864ZM13.4527 12.4664L12.4527 13.4764C12.2927 13.6464 11.9927 13.6464 11.8227 13.4764C11.6527 13.2864 11.6527 13.0164 11.8227 12.8364L12.8127 11.8564C12.9927 11.6664 13.2727 11.6664 13.4527 11.8564C13.6127 12.0164 13.6127 12.3064 13.4527 12.4664ZM18.1427 12.9764L17.1627 13.9564C16.9627 14.1464 16.7027 14.1464 16.5327 13.9564C16.3527 13.7764 16.3627 13.5264 16.5327 13.3464L17.5127 12.3364C17.6827 12.1564 17.9627 12.1664 18.1427 12.3364C18.3227 12.5064 18.3227 12.7964 18.1427 12.9764ZM11.3627 14.5464L10.3727 15.5464C10.2127 15.7364 9.9227 15.7264 9.7527 15.5464C9.5727 15.3764 9.5727 15.0964 9.7527 14.9164L10.7327 13.9364C10.9227 13.7364 11.1827 13.7364 11.3627 13.9364C11.5427 14.1064 11.5227 14.3664 11.3627 14.5464ZM16.0527 15.0564L15.0627 16.0464C14.8927 16.2264 14.6127 16.2264 14.4227 16.0464C14.2627 15.8864 14.2627 15.5864 14.4227 15.4264L15.4327 14.4264C15.6027 14.2564 15.8827 14.2564 16.0527 14.4264C16.2427 14.6064 16.2427 14.8864 16.0527 15.0564ZM13.9727 17.1464L12.9927 18.1264C12.8127 18.3064 12.5227 18.3064 12.3727 18.1264C12.1827 17.9464 12.1827 17.6764 12.3727 17.4964L13.3527 16.5164C13.5327 16.3364 13.7927 16.3364 13.9727 16.5164C14.1527 16.6764 14.1527 16.9564 13.9727 17.1464Z" /></svg>