
<svg
    viewBox="0 0 27.890625 27.890625"
    xmlns="http://www.w3.org/2000/svg"
>
    <path
        fill="inherit"
        d="M0.0027 13.9464C0.0027 16.2264 0.5627 18.3764 1.5627 20.2864L3.9327 17.9264C4.2527 17.6064 4.7327 17.6064 5.0427 17.9264C5.3627 18.2364 5.3727 18.7164 5.0427 19.0464L2.3627 21.6964C2.7027 22.1764 3.0527 22.6664 3.4427 23.0964L23.1227 3.4464C22.6727 3.0464 22.2027 2.6964 21.7227 2.3664L19.0127 5.0764C18.7027 5.3864 18.2127 5.3764 17.8927 5.0764C17.5827 4.7564 17.5827 4.2764 17.8927 3.9464L20.3127 1.5264C18.3727 0.5564 16.2127 -0.0036 13.9427 -0.0036C6.2527 -0.0036 0.0027 6.2464 0.0027 13.9464ZM13.9427 27.8864C21.6427 27.8864 27.8927 21.6464 27.8927 13.9464C27.8927 11.6764 27.3327 9.5164 26.3327 7.5864L23.9527 9.9664C23.6227 10.2964 23.1627 10.2764 22.8427 9.9664C22.5427 9.6564 22.5127 9.1764 22.8427 8.8464L25.5227 6.1664C25.2127 5.6964 24.8527 5.2364 24.4627 4.7964L4.8027 24.4564C5.2327 24.8464 5.7127 25.1864 6.1827 25.5164L8.8727 22.8164C9.2027 22.4764 9.6827 22.5064 9.9927 22.8164C10.3127 23.1364 10.3227 23.5964 9.9927 23.9264L7.5727 26.3364C9.4927 27.3164 11.6627 27.8864 13.9427 27.8864ZM16.9227 7.1664L15.0527 9.0364C14.7427 9.3564 14.2427 9.3364 13.9327 9.0364C13.6327 8.7264 13.6127 8.2164 13.9327 7.9164L15.8227 6.0464C16.1327 5.7464 16.6227 5.7264 16.9227 6.0464C17.2427 6.3564 17.2427 6.8464 16.9227 7.1664ZM12.9727 11.1264L11.0927 13.0064C10.7827 13.3064 10.2927 13.3064 9.9827 13.0064C9.6627 12.6864 9.6627 12.1964 9.9827 11.8764L11.8527 10.0064C12.1727 9.6964 12.6627 9.6964 12.9727 10.0064C13.2727 10.3064 13.2927 10.8264 12.9727 11.1264ZM21.8627 12.0464L20.0027 13.9364C19.6827 14.2464 19.1927 14.2364 18.8827 13.9364C18.5827 13.6064 18.5627 13.1264 18.8827 12.8064L20.7527 10.9364C21.0727 10.6264 21.5427 10.6264 21.8627 10.9364C22.1927 11.2364 22.1727 11.7264 21.8627 12.0464ZM9.0127 15.0764L7.1527 16.9564C6.8227 17.2664 6.3427 17.2564 6.0327 16.9564C5.7127 16.6364 5.7127 16.1564 6.0327 15.8464L7.8927 13.9564C8.2027 13.6464 8.6927 13.6564 9.0127 13.9564C9.3127 14.2764 9.3427 14.7664 9.0127 15.0764ZM17.9127 16.0064L16.0327 17.8664C15.7227 18.1964 15.2327 18.1964 14.9127 17.8664C14.6127 17.5664 14.6027 17.0664 14.9127 16.7464L16.8027 14.8864C17.1027 14.5864 17.6127 14.5864 17.9127 14.8864C18.2227 15.2064 18.2227 15.6864 17.9127 16.0064ZM13.9627 19.9564L12.0727 21.8364C11.7627 22.1364 11.2827 22.1464 10.9627 21.8364C10.6527 21.5164 10.6527 21.0264 10.9627 20.7164L12.8427 18.8364C13.1527 18.5264 13.6427 18.5564 13.9627 18.8364C14.2627 19.1664 14.2727 19.6564 13.9627 19.9564Z"
        fillRule="evenodd"
        clipRule="evenodd"
    />
</svg>
        