
<svg
    viewBox="0 0 26.755859375 33.288050011855866"
    xmlns="http://www.w3.org/2000/svg"
>
    <path
        fill="inherit"
        d="M25.0837 10.7C25.4937 10.7 25.8537 10.33 25.8537 9.91V8.24C25.8537 4.78 23.5737 2.5 20.1137 2.5H19.8637V0.89C19.8637 -0.03 19.1837 -0.24 18.4937 0.27L15.3837 2.55C14.8737 2.94 14.8637 3.36 15.3837 3.76L18.4937 6.03C19.1837 6.53 19.8637 6.31 19.8637 5.44V3.93H20.0937C22.6237 3.93 24.2937 5.66 24.2937 8.24V9.91C24.2937 10.33 24.6637 10.7 25.0837 10.7ZM0.0037 11.33C0.0037 11.95 0.4337 12.36 1.0637 12.36H6.9737V21.83C6.9737 22.49 7.3937 22.91 8.0637 22.91H17.6637V28.82C17.6637 29.5 18.1037 29.97 18.7537 29.97C19.4237 29.97 19.8637 29.5 19.8637 28.82V22.91H25.6737C26.3137 22.91 26.7537 22.5 26.7537 21.89C26.7537 21.26 26.3137 20.85 25.6737 20.85H19.8637V11.39C19.8637 10.73 19.4237 10.29 18.7737 10.29H9.1737V4.48C9.1737 3.8 8.7337 3.33 8.0837 3.33C7.4137 3.33 6.9737 3.8 6.9737 4.48V10.29H1.0637C0.4337 10.29 0.0037 10.72 0.0037 11.33ZM9.5737 20.85C9.2837 20.85 9.1737 20.75 9.1737 20.45V12.36H17.2637C17.5537 12.36 17.6637 12.47 17.6637 12.75V20.85ZM1.7537 22.6C1.3437 22.6 0.9837 22.97 0.9837 23.39V25.06C0.9837 28.52 3.2637 30.8 6.7237 30.8H6.9737V32.41C6.9737 33.33 7.6537 33.52 8.3437 33.01L11.4537 30.74C11.9637 30.36 11.9737 29.92 11.4537 29.54L8.3437 27.27C7.6537 26.77 6.9737 26.98 6.9737 27.85V29.36H6.7437C4.2137 29.36 2.5437 27.64 2.5437 25.04V23.39C2.5437 22.97 2.1737 22.6 1.7537 22.6Z"
        fillRule="evenodd"
        clipRule="evenodd"
    />
</svg>
        