
<svg
    viewBox={0 0 29.982421875 29.900390625}
    xmlns="http://www.w3.org/2000/svg"
>
    <path
        fill="inherit"
        d="M0.0037 7.597C0.0037 8.257 0.4237 8.637 1.0837 8.637H6.5737V22.247C6.5737 22.897 7.0037 23.327 7.6537 23.327H21.2037V28.757C21.2037 29.437 21.6437 29.897 22.3037 29.897C22.9737 29.897 23.4037 29.437 23.4037 28.757V23.327H28.8937C29.5537 23.327 29.9837 22.927 29.9837 22.297C29.9837 21.657 29.5537 21.257 28.8937 21.257H23.4037V7.667C23.4037 7.017 22.9837 6.577 22.3237 6.577H8.7737V1.147C8.7737 0.467 8.3437 -0.003 7.6737 -0.003C7.0137 -0.003 6.5737 0.467 6.5737 1.147V6.577H1.0837C0.4237 6.577 0.0037 6.977 0.0037 7.597ZM9.1737 21.257C8.8737 21.257 8.7737 21.167 8.7737 20.867V8.637H20.8037C21.1137 8.637 21.2037 8.747 21.2037 9.037V21.257Z"
        fillRule="evenodd"
        clipRule="evenodd"
    />
</svg>
        