<svg viewBox="0 0 27.890625 27.890625" xmlns="http://www.w3.org/2000/svg"><path d="M13.9427 27.8927C21.6427 27.8927 27.8927 21.6427 27.8927 13.9427C27.8927 6.2627 21.6427 0.0027 13.9427 0.0027C6.2627 0.0027 0.0027 6.2627 0.0027 13.9427C0.0027 21.6427 6.2627 27.8927 13.9427 27.8927ZM8.1327 20.2327C6.6627 20.2327 5.9227 19.5227 5.9227 18.0327V11.0227C5.9227 9.5427 6.6627 8.8227 8.1327 8.8227H9.6427V8.0927C9.6427 6.9727 10.3727 6.3027 11.5427 6.3027H16.3527C17.5127 6.3027 18.2527 6.9727 18.2527 8.0927V8.8227H19.7527C21.2327 8.8227 21.9827 9.5427 21.9827 11.0227V18.0327C21.9827 19.5227 21.2327 20.2327 19.7527 20.2327ZM11.0027 8.8227H16.9027V8.1627C16.9027 7.7927 16.6627 7.5727 16.2827 7.5727H11.6327C11.2427 7.5727 11.0027 7.7927 11.0027 8.1627ZM10.6127 15.1527C10.6127 15.5327 10.8527 15.7727 11.2427 15.7727H12.6827V17.2227C12.6827 17.5927 12.9427 17.8427 13.3127 17.8427H14.5727C14.9527 17.8427 15.2027 17.5927 15.2027 17.2227V15.7727H16.6527C17.0327 15.7727 17.2827 15.5327 17.2827 15.1527V13.8627C17.2827 13.4927 17.0327 13.2527 16.6527 13.2527H15.2027V11.8027C15.2027 11.4327 14.9527 11.1827 14.5727 11.1827H13.3127C12.9427 11.1827 12.6827 11.4327 12.6827 11.8027V13.2527H11.2427C10.8527 13.2527 10.6127 13.4927 10.6127 13.8627Z" /></svg>