
<svg
    viewBox="0 0 28.41015625 28.396484375"
    xmlns="http://www.w3.org/2000/svg"
>
    <path
        fill="inherit"
        d="M0.0037 16.9262C0.0037 18.4962 1.0837 19.5462 2.6637 19.5462H8.8437V25.7462C8.8437 27.3262 9.8937 28.3962 11.4737 28.3962H16.9437C18.5137 28.3962 19.5637 27.3262 19.5637 25.7462V19.5462H25.7537C27.3437 19.5462 28.4137 18.4962 28.4137 16.9262V11.4562C28.4137 9.8862 27.3437 8.8362 25.7537 8.8362H19.5637V2.6562C19.5637 1.0662 18.5137 -0.0038 16.9437 -0.0038H11.4737C9.8937 -0.0038 8.8437 1.0662 8.8437 2.6562V8.8362H2.6537C1.0637 8.8362 0.0037 9.8862 0.0037 11.4562Z"
        fillRule="evenodd"
        clipRule="evenodd"
    />
</svg>
        