
<svg
    viewBox={0 0 31.650390625 26.49609375}
    xmlns="http://www.w3.org/2000/svg"
>
    <path
        fill="inherit"
        d="M4.2237 26.4991H27.4237C30.2537 26.4991 31.6537 25.1291 31.6537 22.3291V9.0191C31.6537 6.2191 30.2537 4.8491 27.4237 4.8491H22.7537V3.7691C22.7537 1.1991 21.3937 -0.0009 18.9237 -0.0009H12.7137C10.3737 -0.0009 8.8837 1.1991 8.8837 3.7691V4.8491H4.2237C1.4037 4.8491 0.0037 6.2191 0.0037 9.0191V22.3291C0.0037 25.1291 1.4037 26.4991 4.2237 26.4991ZM11.0037 3.6191C11.0037 2.5791 11.6237 1.9991 12.6837 1.9991H18.9637C20.0337 1.9991 20.6337 2.5791 20.6337 3.6191V4.8491H11.0037ZM9.3937 16.8991V14.4191C9.3937 13.7091 9.8737 13.2191 10.5937 13.2191H13.3937V10.4491C13.3937 9.7091 13.8737 9.2291 14.6037 9.2291H17.0637C17.7737 9.2291 18.2637 9.7091 18.2637 10.4491V13.2191H21.0537C21.7837 13.2191 22.2737 13.7091 22.2737 14.4191V16.8991C22.2737 17.6091 21.7837 18.0991 21.0537 18.0991H18.2637V20.8891C18.2637 21.6191 17.7737 22.0891 17.0637 22.0891H14.6037C13.8737 22.0891 13.3937 21.6191 13.3937 20.8891V18.0991H10.5937C9.8837 18.0991 9.3937 17.6091 9.3937 16.8991Z"
        fillRule="evenodd"
        clipRule="evenodd"
    />
</svg>
        