
<svg
    viewBox="0 0 27.890625 27.890625"
    xmlns="http://www.w3.org/2000/svg"
>
    <path
        fill="inherit"
        d="M13.9427 27.8927C21.6427 27.8927 27.8927 21.6427 27.8927 13.9427C27.8927 6.2627 21.6427 0.0027 13.9427 0.0027C6.2627 0.0027 0.0027 6.2627 0.0027 13.9427C0.0027 21.6427 6.2627 27.8927 13.9427 27.8927ZM6.1527 15.4227V12.4427C6.1527 11.5827 6.7427 10.9827 7.6027 10.9827H10.9927V7.6327C10.9927 6.7427 11.5827 6.1527 12.4427 6.1527H15.4227C16.2927 6.1527 16.8727 6.7427 16.8727 7.6327V10.9827H20.2627C21.1327 10.9827 21.7227 11.5827 21.7227 12.4427V15.4227C21.7227 16.2827 21.1327 16.8727 20.2627 16.8727H16.8727V20.2527C16.8727 21.1327 16.2927 21.7127 15.4227 21.7127H12.4427C11.5827 21.7127 10.9927 21.1327 10.9927 20.2527V16.8727H7.6027C6.7527 16.8727 6.1527 16.2827 6.1527 15.4227Z"
        fillRule="evenodd"
        clipRule="evenodd"
    />
</svg>
        