
<svg
    viewBox={0 0 27.890625 27.890625}
    xmlns="http://www.w3.org/2000/svg"
>
    <path
        fill="inherit"
        d="M13.9427 27.8864C21.6427 27.8864 27.8927 21.6464 27.8927 13.9464C27.8927 6.2464 21.6427 -0.0036 13.9427 -0.0036C6.2527 -0.0036 0.0027 6.2464 0.0027 13.9464C0.0027 21.6464 6.2527 27.8864 13.9427 27.8864ZM13.9427 25.5664C7.5227 25.5664 2.3227 20.3664 2.3227 13.9464C2.3227 7.5164 7.5227 2.3264 13.9427 2.3264C20.3727 2.3264 25.5627 7.5164 25.5627 13.9464C25.5627 20.3664 20.3727 25.5664 13.9427 25.5664ZM6.3827 15.3764C6.3827 16.2164 6.9627 16.7764 7.7827 16.7764H11.0727V20.0564C11.0727 20.9164 11.6327 21.4664 12.4727 21.4664H15.3627C16.2127 21.4664 16.7627 20.9164 16.7627 20.0564V16.7764H20.0527C20.9027 16.7764 21.4627 16.2164 21.4627 15.3764V12.4664C21.4627 11.6464 20.9027 11.0764 20.0527 11.0764H16.7627V7.8064C16.7627 6.9564 16.2127 6.3964 15.3627 6.3964H12.4727C11.6327 6.3964 11.0727 6.9564 11.0727 7.8064V11.0764H7.7827C6.9427 11.0764 6.3827 11.6464 6.3827 12.4664Z"
        fillRule="evenodd"
        clipRule="evenodd"
    />
</svg>
        