
<svg
    viewBox={0 0 27.890625 27.890625}
    xmlns="http://www.w3.org/2000/svg"
>
    <path
        fill="inherit"
        d="M13.9427 27.8864C21.6427 27.8864 27.8927 21.6464 27.8927 13.9464C27.8927 6.2464 21.6427 -0.0036 13.9427 -0.0036C6.2527 -0.0036 0.0027 6.2464 0.0027 13.9464C0.0027 21.6464 6.2527 27.8864 13.9427 27.8864ZM13.9427 25.5664C7.5227 25.5664 2.3227 20.3664 2.3227 13.9464C2.3227 7.5164 7.5227 2.3264 13.9427 2.3264C20.3727 2.3264 25.5627 7.5164 25.5627 13.9464C25.5627 20.3664 20.3727 25.5664 13.9427 25.5664ZM8.3027 20.0164H19.5627C21.0027 20.0164 21.7227 19.3164 21.7227 17.8964V11.0764C21.7227 9.6364 21.0027 8.9364 19.5627 8.9364H18.1027V8.2464C18.1027 7.1664 17.3927 6.5064 16.2727 6.5064H11.5927C10.4727 6.5064 9.7627 7.1664 9.7627 8.2464V8.9364H8.3027C6.8627 8.9364 6.1527 9.6364 6.1527 11.0764V17.8964C6.1527 19.3164 6.8627 20.0164 8.3027 20.0164ZM11.0727 8.3164C11.0727 7.9564 11.3027 7.7364 11.6927 7.7364H16.2027C16.5727 7.7364 16.8027 7.9564 16.8027 8.3164V8.9364H11.0727ZM10.7027 15.0764V13.8464C10.7027 13.4764 10.9327 13.2364 11.3027 13.2364H12.7127V11.8564C12.7127 11.4664 12.9627 11.2564 13.3127 11.2564H14.5427C14.9127 11.2564 15.1527 11.4664 15.1527 11.8564V13.2364H16.5727C16.9227 13.2364 17.1627 13.4764 17.1627 13.8464V15.0764C17.1627 15.4664 16.9227 15.6964 16.5727 15.6964H15.1527V17.1064C15.1527 17.4564 14.9127 17.7064 14.5427 17.7064H13.3127C12.9627 17.7064 12.7127 17.4564 12.7127 17.1064V15.6964H11.3027C10.9327 15.6964 10.7027 15.4664 10.7027 15.0764Z"
        fillRule="evenodd"
        clipRule="evenodd"
    />
</svg>
        