
<svg
    viewBox="0 0 18.744140625 32.73046875"
    xmlns="http://www.w3.org/2000/svg"
>
    <path
        fill="inherit"
        d="M4.4137 32.73H14.3237C16.9937 32.73 18.7437 30.97 18.7437 28.25V12.74C18.7437 10.02 16.9937 8.26 14.3237 8.26H13.7837V6.28H13.9437C15.4337 6.28 16.3237 5.37 16.3237 3.86V2.42C16.3237 0.9 15.4337 0 13.9437 0H4.7837C3.3037 0 2.4237 0.9 2.4237 2.42V3.86C2.4237 5.37 3.3037 6.28 4.7837 6.28H4.9637V8.26H4.4137C1.7537 8.26 0.0037 10.02 0.0037 12.74V28.25C0.0037 30.97 1.7537 32.73 4.4137 32.73ZM4.1037 21.49V19.5C4.1037 18.89 4.4937 18.53 5.0737 18.53H7.3937V16.21C7.3937 15.63 7.7637 15.24 8.3637 15.24H10.3637C10.9637 15.24 11.3337 15.63 11.3337 16.21V18.53H13.6537C14.2237 18.53 14.6437 18.89 14.6437 19.5V21.49C14.6437 22.09 14.2237 22.46 13.6537 22.46H11.3337V24.77C11.3337 25.36 10.9637 25.76 10.3637 25.76H8.3637C7.7637 25.76 7.3937 25.36 7.3937 24.77V22.46H5.0737C4.4937 22.46 4.1037 22.09 4.1037 21.49Z"
        fillRule="evenodd"
        clipRule="evenodd"
    />
</svg>
        