
<svg
    viewBox="0 0 18.744140625 32.73046875"
    xmlns="http://www.w3.org/2000/svg"
>
    <path
        fill="inherit"
        d="M0.0037 28.25C0.0037 30.97 1.7537 32.73 4.4137 32.73H14.3237C16.9937 32.73 18.7437 30.97 18.7437 28.25V12.74C18.7437 10.02 16.9937 8.26 14.3237 8.26V6.26C15.5837 6.12 16.3237 5.24 16.3237 3.86V2.42C16.3237 0.9 15.4337 0 13.9437 0H4.7837C3.3037 0 2.4237 0.9 2.4237 2.42V3.86C2.4237 5.24 3.1537 6.12 4.4137 6.26V8.26C1.7537 8.26 0.0037 10.02 0.0037 12.74ZM4.3437 3.83V2.45C4.3437 2.12 4.5437 1.91 4.8837 1.91H13.8537C14.1937 1.91 14.3937 2.12 14.3937 2.45V3.83C14.3937 4.14 14.1937 4.36 13.8537 4.36H4.8837C4.5437 4.36 4.3437 4.14 4.3437 3.83ZM6.3437 8.26V6.28H12.4037V8.26ZM2.0937 28.22V12.77C2.0937 11.31 3.0537 10.36 4.5237 10.36H14.2237C15.6937 10.36 16.6537 11.31 16.6537 12.77V28.22C16.6537 29.7 15.6937 30.64 14.2237 30.64H4.5237C3.0537 30.64 2.0937 29.7 2.0937 28.22ZM4.2637 21.46C4.2637 22.04 4.6437 22.41 5.2137 22.41H7.4537V24.64C7.4537 25.21 7.8237 25.59 8.3937 25.59H10.3337C10.9137 25.59 11.2837 25.21 11.2837 24.64V22.41H13.5237C14.0637 22.41 14.4737 22.04 14.4737 21.46V19.52C14.4737 18.95 14.0637 18.58 13.5237 18.58H11.2837V16.35C11.2837 15.78 10.9137 15.41 10.3337 15.41H8.3937C7.8237 15.41 7.4537 15.78 7.4537 16.35V18.58H5.2137C4.6437 18.58 4.2637 18.95 4.2637 19.52Z"
        fillRule="evenodd"
        clipRule="evenodd"
    />
</svg>
        