
<svg
    viewBox="0 0 29.33984375 29.353515625"
    xmlns="http://www.w3.org/2000/svg"
>
    <path
        fill="inherit"
        d="M0.0037 16.8947C0.0037 19.4647 1.2437 20.7247 3.7737 20.7247H8.6237V25.5847C8.6237 28.1047 9.8837 29.3547 12.4537 29.3547H16.8837C19.4537 29.3547 20.7137 28.1047 20.7137 25.5847V20.7247H25.5637C28.0937 20.7247 29.3437 19.4647 29.3437 16.8947V12.4647C29.3437 9.8947 28.0937 8.6447 25.5637 8.6447H20.7137V3.7747C20.7137 1.2447 19.4537 0.0047 16.8837 0.0047H12.4537C9.8837 0.0047 8.6237 1.2447 8.6237 3.7747V8.6447H3.7737C1.2437 8.6447 0.0037 9.8947 0.0037 12.4647ZM2.2037 16.8547V12.5147C2.2037 11.4047 2.7737 10.8447 3.8937 10.8447H10.8237V3.8947C10.8237 2.7747 11.3937 2.2047 12.4937 2.2047H16.8437C17.9537 2.2047 18.5137 2.7747 18.5137 3.8947V10.8447H25.4437C26.5637 10.8447 27.1437 11.4047 27.1437 12.5147V16.8547C27.1437 17.9647 26.5637 18.5247 25.4437 18.5247H18.5137V25.4747C18.5137 26.5947 17.9537 27.1547 16.8437 27.1547H12.4937C11.3937 27.1547 10.8237 26.5947 10.8237 25.4747V18.5247H3.8937C2.7737 18.5247 2.2037 17.9647 2.2037 16.8547Z"
        fillRule="evenodd"
        clipRule="evenodd"
    />
</svg>
        