
<svg
    viewBox="0 0 31.650390625 26.49609375"
    xmlns="http://www.w3.org/2000/svg"
>
    <path
        fill="inherit"
        d="M4.2237 26.4991H27.4237C30.2537 26.4991 31.6537 25.1291 31.6537 22.3291V9.0191C31.6537 6.2191 30.2537 4.8491 27.4237 4.8491H22.7537V3.7691C22.7537 1.1991 21.3937 -0.0009 18.9237 -0.0009H12.7137C10.3737 -0.0009 8.8837 1.1991 8.8837 3.7691V4.8491H4.2237C1.4037 4.8491 0.0037 6.2191 0.0037 9.0191V22.3291C0.0037 25.1291 1.4037 26.4991 4.2237 26.4991ZM11.0037 3.6191C11.0037 2.5791 11.6237 1.9991 12.6837 1.9991H18.9637C20.0337 1.9991 20.6337 2.5791 20.6337 3.6191V4.8491H11.0037ZM4.2537 24.3091C2.9137 24.3091 2.2037 23.6291 2.2037 22.2191V9.1291C2.2037 7.7391 2.9137 7.0391 4.2537 7.0391H27.3937C28.7337 7.0391 29.4537 7.7391 29.4537 9.1291V22.2191C29.4537 23.6291 28.7337 24.3091 27.3937 24.3091ZM9.4637 16.8891C9.4637 17.5791 9.9437 18.0591 10.6337 18.0591H13.4237V20.8391C13.4237 21.5591 13.8937 22.0291 14.6037 22.0291H17.0537C17.7637 22.0291 18.2237 21.5591 18.2237 20.8391V18.0591H21.0137C21.7237 18.0591 22.2037 17.5791 22.2037 16.8891V14.4391C22.2037 13.7291 21.7237 13.2491 21.0137 13.2491H18.2237V10.4891C18.2237 9.7591 17.7637 9.2991 17.0537 9.2991H14.6037C13.8937 9.2991 13.4237 9.7591 13.4237 10.4891V13.2491H10.6337C9.9237 13.2491 9.4637 13.7291 9.4637 14.4391Z"
        fillRule="evenodd"
        clipRule="evenodd"
    />
</svg>
        