
<svg
    viewBox={0 0 35.068359375 26.7421875}
    xmlns="http://www.w3.org/2000/svg"
>
    <path
        fill="inherit"
        d="M3.5437 12.7535H3.6137L6.2637 23.5135C6.7837 25.6635 7.9137 26.7435 10.1737 26.7435H24.8937C27.1637 26.7435 28.2837 25.6635 28.8237 23.5135L31.4637 12.7535C31.4837 12.7535 31.5037 12.7535 31.5237 12.7535C33.4737 12.7535 35.0637 11.1735 35.0637 9.2035C35.0637 7.2635 33.4837 5.6735 31.5237 5.6735C29.5837 5.6735 28.0037 7.2735 28.0037 9.2035C28.0037 9.6435 28.0637 10.0635 28.2237 10.4435L24.8437 12.5235C24.3537 12.8335 24.0737 12.7435 23.8037 12.3735L19.4537 6.5035C20.4237 5.8835 21.0637 4.7735 21.0637 3.5235C21.0637 1.6035 19.4837 0.0035 17.5437 0.0035C15.5737 0.0035 14.0037 1.5835 14.0037 3.5235C14.0037 4.7835 14.6537 5.8835 15.6437 6.5035L11.2237 12.4235C10.9737 12.7835 10.7237 12.8535 10.2537 12.5635L6.8537 10.4735C6.9837 10.0735 7.0637 9.6535 7.0637 9.2035C7.0637 7.2735 5.4837 5.6735 3.5437 5.6735C1.5837 5.6735 0.0037 7.2635 0.0037 9.2035C0.0037 11.1735 1.6037 12.7535 3.5437 12.7535ZM17.5437 4.9335C16.7737 4.9335 16.1337 4.2935 16.1337 3.5235C16.1337 2.7435 16.7737 2.1335 17.5437 2.1335C18.2937 2.1335 18.9337 2.7735 18.9337 3.5235C18.9337 4.2935 18.3237 4.9335 17.5437 4.9335ZM9.5037 14.5235C10.3737 15.0535 11.8237 15.0835 12.7237 13.8635L17.5437 7.3935L22.3637 13.8735C23.2437 15.0535 24.6737 15.0535 25.4737 14.5635L29.4737 12.1035H29.4937L27.6037 19.8135H7.4637L5.5937 12.1235ZM3.5437 10.6235C2.7737 10.6235 2.1337 9.9835 2.1337 9.2035C2.1337 8.4235 2.7737 7.8035 3.5437 7.8035C4.2937 7.8035 4.9337 8.4535 4.9337 9.2035C4.9337 9.9835 4.3237 10.6235 3.5437 10.6235ZM31.5237 10.6235C30.7437 10.6235 30.1337 9.9835 30.1337 9.2035C30.1337 8.4535 30.7737 7.8035 31.5237 7.8035C32.2937 7.8035 32.9337 8.4235 32.9337 9.2035C32.9337 9.9835 32.2937 10.6235 31.5237 10.6235ZM10.1537 24.6735C9.1337 24.6735 8.5437 24.2235 8.3137 23.2535L7.9737 21.8735H27.0937L26.7737 23.2535C26.5337 24.2235 25.9537 24.6735 24.9237 24.6735Z"
        fillRule="evenodd"
        clipRule="evenodd"
    />
</svg>
        