
<svg
    viewBox={0 0 30.529296875 29.17578125}
    xmlns="http://www.w3.org/2000/svg"
>
    <path
        fill="inherit"
        d="M1.0937 29.179H29.4237C30.0237 29.179 30.5337 28.669 30.5337 28.069C30.5337 27.469 30.0237 26.979 29.4237 26.979H28.7137V25.979C28.7137 25.429 28.3937 25.099 27.8337 25.099H26.9637V9.379H28.1637C28.9137 9.379 29.3537 8.829 29.3537 8.269C29.3537 7.859 29.1237 7.509 28.6137 7.219L16.9437 0.479C16.3937 0.169 15.8137 -0.001 15.2537 -0.001C14.6937 -0.001 14.1137 0.169 13.5937 0.479L1.9137 7.219C1.3937 7.509 1.1737 7.859 1.1737 8.269C1.1737 8.829 1.6137 9.379 2.3637 9.379H3.5637V25.099H2.7037C2.1437 25.099 1.8137 25.429 1.8137 25.979V26.979H1.0937C0.4937 26.979 0.0037 27.469 0.0037 28.069C0.0037 28.669 0.4937 29.179 1.0937 29.179ZM15.3437 21.959C11.6937 21.959 9.8037 19.159 9.8037 15.639C9.8037 11.999 11.8537 9.349 15.3437 9.349C17.4137 9.349 19.2737 10.449 19.9437 12.259C20.0337 12.479 20.0737 12.729 20.0737 12.889C20.0737 13.329 19.7237 13.619 19.3037 13.619C18.8937 13.619 18.6737 13.389 18.5237 12.979C18.1037 11.659 16.8337 10.819 15.3537 10.819C12.7737 10.819 11.5537 13.069 11.5537 15.639C11.5537 17.919 12.4837 20.029 14.5637 20.449V15.659C14.5637 15.349 14.7337 15.159 15.0437 15.159C15.3137 15.159 15.5037 15.349 15.5037 15.659V16.709H15.5337C15.8137 15.819 16.6937 15.139 17.7737 15.139C18.0337 15.139 18.3637 15.189 18.5437 15.309C18.7137 15.409 18.8237 15.589 18.8237 15.779C18.8237 16.109 18.6237 16.239 18.3337 16.239C18.2137 16.239 18.0237 16.189 17.7837 16.189C16.4637 16.189 15.5137 17.089 15.5137 18.429V20.539C16.8937 20.479 18.1537 19.779 18.6037 18.379C18.7437 17.979 18.9737 17.749 19.4137 17.749C19.8637 17.749 20.1637 18.009 20.1637 18.459C20.1637 18.679 20.1537 18.849 20.0537 19.069C19.4237 20.929 17.4837 21.959 15.3437 21.959Z"
        fillRule="evenodd"
        clipRule="evenodd"
    />
</svg>
        