
<svg
    viewBox="0 0 32.935546875 27.33018496744969"
    xmlns="http://www.w3.org/2000/svg"
>
    <path
        fill="inherit"
        d="M16.4627 5.864C18.9327 5.864 21.2027 6.724 23.0227 8.134C23.2927 8.354 23.6527 8.324 23.9127 8.064L27.0827 4.894C27.4027 4.584 27.3827 4.124 27.0527 3.854C24.2027 1.454 20.4927 0.004 16.4627 0.004C12.4427 0.004 8.7327 1.454 5.8827 3.854C5.5527 4.124 5.5327 4.584 5.8527 4.894L9.0227 8.064C9.2827 8.324 9.6527 8.354 9.9527 8.124C11.7627 6.724 14.0127 5.864 16.4627 5.864ZM0.0027 16.464C0.0027 20.494 1.4527 24.204 3.8727 27.074C4.1427 27.414 4.6027 27.414 4.9127 27.094L8.1627 23.844C8.3627 23.624 8.3927 23.324 8.2027 23.094C6.7127 21.194 5.8627 18.924 5.8627 16.464C5.8627 14.014 6.7027 11.744 8.1227 9.944C8.3427 9.654 8.3427 9.284 8.0827 9.024L4.9127 5.854C4.5927 5.534 4.1427 5.534 3.8727 5.864C1.4527 8.734 0.0027 12.444 0.0027 16.464ZM32.9327 16.464C32.9327 12.444 31.4827 8.734 29.0627 5.864C28.7927 5.534 28.3327 5.534 28.0227 5.854L24.8527 9.024C24.5927 9.284 24.5827 9.654 24.8127 9.944C26.2227 11.744 27.0727 14.014 27.0727 16.464C27.0727 18.924 26.2227 21.194 24.7327 23.094C24.5427 23.324 24.5527 23.624 24.7627 23.844L28.0127 27.094C28.3327 27.414 28.7827 27.414 29.0627 27.074C31.4827 24.204 32.9327 20.494 32.9327 16.464ZM16.5027 22.804C18.5827 22.804 20.4627 21.794 21.0827 20.004C21.1627 19.794 21.1927 19.604 21.1927 19.404C21.1927 18.964 20.9027 18.714 20.4527 18.714C20.0327 18.714 19.8127 18.954 19.6827 19.334C19.2527 20.684 18.0227 21.374 16.6927 21.424V19.384C16.6927 18.084 17.5927 17.214 18.8927 17.214C19.1027 17.214 19.3027 17.264 19.4127 17.264C19.7027 17.264 19.8827 17.134 19.8827 16.814C19.8827 16.624 19.7827 16.464 19.6027 16.354C19.4427 16.244 19.1127 16.184 18.8627 16.184C17.8127 16.184 16.9827 16.844 16.7027 17.714H16.6627V16.694C16.6627 16.404 16.4927 16.204 16.2127 16.204C15.9427 16.204 15.7527 16.404 15.7527 16.694V21.354C13.7427 20.944 12.8227 18.894 12.8227 16.684C12.8227 14.174 14.0127 11.994 16.5127 11.994C17.9527 11.994 19.1927 12.814 19.6027 14.084C19.7427 14.494 19.9427 14.714 20.3427 14.714C20.7627 14.714 21.0927 14.424 21.0927 14.014C21.0927 13.864 21.0527 13.614 20.9727 13.414C20.3327 11.644 18.5227 10.584 16.5027 10.584C13.1227 10.584 11.1527 13.154 11.1527 16.684C11.1527 20.084 12.9627 22.804 16.5027 22.804Z"
        fillRule="evenodd"
        clipRule="evenodd"
    />
</svg>
        