
<svg
    viewBox="0 0 30.544813437289534 27.890625"
    xmlns="http://www.w3.org/2000/svg"
>
    <path
        fill="inherit"
        d="M0.9769 11.3064C-0.0131 11.3064 -0.2531 11.9764 0.2769 12.7464L3.3369 17.0864C3.7869 17.7164 4.4469 17.7064 4.8869 17.0864L7.9269 12.7264C8.4669 11.9764 8.2069 11.3064 7.2469 11.3064H5.2769C6.4669 6.1564 11.0769 2.3264 16.5969 2.3264C23.0269 2.3264 28.2169 7.5164 28.2169 13.9464C28.2169 20.3664 23.0269 25.5664 16.5969 25.5664C12.7169 25.5664 9.2569 23.6564 7.1969 20.7564C6.7669 20.1964 6.1269 20.0164 5.5569 20.3564C5.0069 20.6964 4.8369 21.4664 5.3069 22.0664C7.8369 25.6064 11.9769 27.8864 16.5969 27.8864C24.2969 27.8864 30.5469 21.6464 30.5469 13.9464C30.5469 6.2464 24.2969 -0.0036 16.5969 -0.0036C9.8069 -0.0036 4.1269 4.8664 2.8969 11.3064ZM16.6569 20.1064C18.7369 20.1064 20.6169 19.0964 21.2169 17.2964C21.3169 17.0864 21.3269 16.9164 21.3269 16.7064C21.3269 16.2664 21.0469 16.0064 20.6069 16.0064C20.1769 16.0064 19.9669 16.2464 19.8269 16.6364C19.4069 17.9964 18.1569 18.6764 16.8369 18.7264V16.6764C16.8369 15.3964 17.7469 14.5064 19.0369 14.5064C19.2469 14.5064 19.4569 14.5564 19.5669 14.5564C19.8369 14.5564 20.0269 14.4364 20.0269 14.1064C20.0269 13.9364 19.9369 13.7664 19.7569 13.6564C19.5969 13.5364 19.2669 13.4964 19.0169 13.4964C17.9669 13.4964 17.1169 14.1464 16.8469 15.0264H16.8169V13.9864C16.8169 13.7164 16.6269 13.5064 16.3669 13.5064C16.0769 13.5064 15.9069 13.7164 15.9069 13.9864V18.6464C13.8969 18.2364 12.9769 16.1964 12.9769 13.9864C12.9769 11.4864 14.1669 9.2964 16.6669 9.2964C18.1069 9.2964 19.3369 10.1164 19.7469 11.3864C19.8969 11.7964 20.0969 12.0164 20.4969 12.0164C20.9069 12.0164 21.2369 11.7264 21.2369 11.3064C21.2369 11.1564 21.2069 10.9264 21.1269 10.7064C20.4669 8.9364 18.6769 7.8764 16.6569 7.8764C13.2769 7.8764 11.2969 10.4464 11.2969 13.9864C11.2969 17.3764 13.1169 20.1064 16.6569 20.1064Z"
        fillRule="evenodd"
        clipRule="evenodd"
    />
</svg>
        