
<svg
    viewBox="0 0 30.5703125 30.5703125"
    xmlns="http://www.w3.org/2000/svg"
>
    <path
        fill="inherit"
        d="M15.2827 30.5663C23.6827 30.5663 30.5727 23.6763 30.5727 15.2863C30.5727 6.8863 23.6827 -0.0038 15.2827 -0.0038C6.8927 -0.0038 0.0027 6.8863 0.0027 15.2863C0.0027 23.6763 6.8927 30.5663 15.2827 30.5663ZM15.2827 25.4862C9.6527 25.4862 5.0827 20.9162 5.0827 15.2863C5.0827 9.6363 9.6527 5.0863 15.2827 5.0863C20.9327 5.0863 25.4827 9.6363 25.4827 15.2863C25.4827 20.9162 20.9327 25.4862 15.2827 25.4862ZM15.3427 21.4463C17.4227 21.4463 19.3027 20.4363 19.9227 18.6363C20.0027 18.4263 20.0127 18.2563 20.0127 18.0463C20.0127 17.6063 19.7327 17.3463 19.2927 17.3463C18.8627 17.3463 18.6527 17.5863 18.5127 17.9763C18.0927 19.3363 16.8527 20.0163 15.5127 20.0663V18.0163C15.5127 16.7362 16.4327 15.8463 17.7227 15.8463C17.9327 15.8463 18.1427 15.8963 18.2527 15.8963C18.5427 15.8963 18.7127 15.7763 18.7127 15.4463C18.7127 15.2763 18.6227 15.1063 18.4427 14.9963C18.2827 14.8763 17.9527 14.8363 17.7027 14.8363C16.6527 14.8363 15.8027 15.4863 15.5327 16.3663H15.5027V15.3263C15.5027 15.0563 15.3227 14.8463 15.0527 14.8463C14.7827 14.8463 14.5927 15.0563 14.5927 15.3263V19.9862C12.5827 19.5763 11.6627 17.5363 11.6627 15.3263C11.6627 12.8263 12.8527 10.6363 15.3527 10.6363C16.7927 10.6363 18.0327 11.4563 18.4327 12.7263C18.5827 13.1363 18.7827 13.3563 19.1827 13.3563C19.6027 13.3563 19.9327 13.0663 19.9327 12.6463C19.9327 12.4963 19.8927 12.2663 19.8127 12.0463C19.1527 10.2762 17.3627 9.2163 15.3427 9.2163C11.9627 9.2163 9.9927 11.7863 9.9927 15.3263C9.9927 18.7163 11.8027 21.4463 15.3427 21.4463Z"
        fillRule="evenodd"
        clipRule="evenodd"
    />
</svg>
        