
<svg
    viewBox="0 0 32.935546875 27.26189615322232"
    xmlns="http://www.w3.org/2000/svg"
>
    <path
        fill="inherit"
        d="M32.9327 16.3992C32.9327 7.7792 26.3227 0.7192 17.8927 -0.0008C17.4627 -0.0408 17.1327 0.2792 17.1327 0.7192V5.1892C17.1327 5.5592 17.3927 5.8392 17.7627 5.8692C22.9927 6.5092 27.0727 10.9792 27.0727 16.3992C27.0727 18.8592 26.2227 21.1292 24.7327 23.0292C24.5427 23.2592 24.5527 23.5592 24.7627 23.7792L28.0227 27.0292C28.3327 27.3292 28.7927 27.3292 29.0627 27.0092C31.4827 24.1392 32.9327 20.4292 32.9327 16.3992ZM0.0027 16.3992C0.0027 20.4392 1.4527 24.1492 3.8727 27.0192C4.1427 27.3492 4.5927 27.3292 4.9127 27.0292L8.1727 23.7792C8.3827 23.5592 8.3927 23.2592 8.2027 23.0292C6.7027 21.1292 5.8627 18.8592 5.8627 16.3992C5.8627 10.9792 9.9427 6.5092 15.1727 5.8692C15.5427 5.8392 15.8027 5.5592 15.8027 5.1892V0.7192C15.8027 0.2792 15.4727 -0.0408 15.0427 -0.0008C6.6127 0.7192 0.0027 7.7792 0.0027 16.3992ZM16.5027 22.7392C18.5827 22.7392 20.4627 21.7292 21.0827 19.9392C21.1627 19.7292 21.1927 19.5392 21.1927 19.3392C21.1927 18.8992 20.9027 18.6492 20.4527 18.6492C20.0327 18.6492 19.8127 18.8892 19.6827 19.2692C19.2527 20.6192 18.0227 21.3092 16.6927 21.3592V19.3192C16.6927 18.0192 17.5927 17.1492 18.8927 17.1492C19.1027 17.1492 19.3027 17.1992 19.4127 17.1992C19.7027 17.1992 19.8827 17.0692 19.8827 16.7492C19.8827 16.5592 19.7827 16.3992 19.6027 16.2892C19.4427 16.1792 19.1127 16.1192 18.8627 16.1192C17.8127 16.1192 16.9827 16.7792 16.7027 17.6492H16.6627V16.6292C16.6627 16.3392 16.4927 16.1392 16.2127 16.1392C15.9427 16.1392 15.7527 16.3392 15.7527 16.6292V21.2892C13.7427 20.8792 12.8227 18.8292 12.8227 16.6192C12.8227 14.1092 14.0127 11.9292 16.5127 11.9292C17.9527 11.9292 19.1927 12.7492 19.6027 14.0192C19.7427 14.4292 19.9427 14.6492 20.3427 14.6492C20.7627 14.6492 21.0927 14.3592 21.0927 13.9492C21.0927 13.7992 21.0527 13.5492 20.9727 13.3492C20.3327 11.5792 18.5227 10.5192 16.5027 10.5192C13.1227 10.5192 11.1527 13.0892 11.1527 16.6192C11.1527 20.0192 12.9627 22.7392 16.5027 22.7392Z"
        fillRule="evenodd"
        clipRule="evenodd"
    />
</svg>
        