
<svg
    viewBox={0 0 30.529296875 29.17578125}
    xmlns="http://www.w3.org/2000/svg"
>
    <path
        fill="inherit"
        d="M1.8137 25.919H28.7137V25.009C28.7137 24.459 28.3937 24.129 27.8337 24.129H26.9637V9.379H28.1637C28.9137 9.379 29.3537 8.829 29.3537 8.269C29.3537 7.859 29.1237 7.509 28.6137 7.219L16.9437 0.479C16.3937 0.169 15.8137 -0.001 15.2537 -0.001C14.6937 -0.001 14.1137 0.169 13.5937 0.479L1.9137 7.219C1.3937 7.509 1.1737 7.859 1.1737 8.269C1.1737 8.829 1.6137 9.379 2.3637 9.379H3.5637V24.129H2.7037C2.1437 24.129 1.8137 24.459 1.8137 25.009ZM5.6337 24.129V7.629L14.7237 2.529C14.8937 2.429 15.0837 2.379 15.2537 2.379C15.4337 2.379 15.6237 2.429 15.8037 2.529L24.8937 7.629V24.129ZM15.3237 20.549C17.4037 20.549 19.2937 19.539 19.8937 17.749C19.9837 17.539 20.0037 17.349 20.0037 17.149C20.0037 16.709 19.7137 16.459 19.2737 16.459C18.8537 16.459 18.6337 16.689 18.4937 17.079C18.0737 18.429 16.8337 19.109 15.5037 19.169V17.129C15.5037 15.829 16.4237 14.959 17.7037 14.959C17.9237 14.959 18.1137 15.009 18.2337 15.009C18.5137 15.009 18.7037 14.879 18.7037 14.559C18.7037 14.369 18.6037 14.209 18.4337 14.099C18.2637 13.989 17.9337 13.929 17.6937 13.929C16.6437 13.929 15.7937 14.589 15.5137 15.459H15.4937V14.439C15.4937 14.149 15.3037 13.949 15.0437 13.949C14.7537 13.949 14.5737 14.149 14.5737 14.439V19.099C12.5637 18.689 11.6437 16.639 11.6437 14.419C11.6437 11.919 12.8337 9.739 15.3437 9.739C16.7737 9.739 18.0037 10.559 18.4137 11.829C18.5637 12.239 18.7737 12.459 19.1637 12.459C19.5737 12.459 19.9037 12.169 19.9037 11.759C19.9037 11.609 19.8837 11.359 19.7937 11.159C19.1437 9.389 17.3537 8.329 15.3237 8.329C11.9537 8.329 9.9637 10.899 9.9637 14.419C9.9637 17.829 11.7837 20.549 15.3237 20.549ZM1.0937 29.179H29.4237C30.0237 29.179 30.5337 28.669 30.5337 28.069C30.5337 27.469 30.0237 26.979 29.4237 26.979H1.0937C0.4937 26.979 0.0037 27.469 0.0037 28.069C0.0037 28.669 0.4937 29.179 1.0937 29.179Z"
        fillRule="evenodd"
        clipRule="evenodd"
    />
</svg>
        