<svg viewBox="0 0 25.169921875 25.169921875" xmlns="http://www.w3.org/2000/svg"><path d="M4.2937 25.1692H20.8737C23.7437 25.1692 25.1737 23.7592 25.1737 20.9492V4.2392C25.1737 1.4192 23.7437 -0.0008 20.8737 -0.0008H4.2937C1.4337 -0.0008 0.0037 1.4192 0.0037 4.2392V20.9492C0.0037 23.7592 1.4337 25.1692 4.2937 25.1692ZM4.3237 22.9692C2.9537 22.9692 2.2037 22.2392 2.2037 20.8192V4.3592C2.2037 2.9392 2.9537 2.1992 4.3237 2.1992H20.8537C22.2037 2.1992 22.9737 2.9392 22.9737 4.3592V20.8192C22.9737 22.2392 22.2037 22.9692 20.8537 22.9692ZM12.6437 18.7392C14.7237 18.7392 16.6137 17.7292 17.2237 15.9292C17.3037 15.7192 17.3237 15.5492 17.3237 15.3392C17.3237 14.8992 17.0337 14.6392 16.5937 14.6392C16.1737 14.6392 15.9537 14.8792 15.8137 15.2692C15.3937 16.6292 14.1637 17.3092 12.8237 17.3592V15.3092C12.8237 14.0292 13.7437 13.1392 15.0237 13.1392C15.2437 13.1392 15.4537 13.1892 15.5537 13.1892C15.8437 13.1892 16.0237 13.0692 16.0237 12.7392C16.0237 12.5692 15.9237 12.3992 15.7537 12.2892C15.5837 12.1692 15.2537 12.1292 15.0137 12.1292C13.9637 12.1292 13.1137 12.7792 12.8337 13.6592H12.8137V12.6192C12.8137 12.3492 12.6337 12.1392 12.3637 12.1392C12.0837 12.1392 11.8937 12.3492 11.8937 12.6192V17.2792C9.8837 16.8692 8.9737 14.8292 8.9737 12.6192C8.9737 10.1192 10.1537 7.9292 12.6637 7.9292C14.0937 7.9292 15.3437 8.7492 15.7537 10.0192C15.8837 10.4292 16.0937 10.6492 16.4837 10.6492C16.9137 10.6492 17.2437 10.3592 17.2437 9.9392C17.2437 9.7892 17.2037 9.5592 17.1137 9.3392C16.4637 7.5692 14.6737 6.5092 12.6437 6.5092C9.2737 6.5092 7.3037 9.0792 7.3037 12.6192C7.3037 16.0092 9.1037 18.7392 12.6437 18.7392Z" /></svg>