<svg viewBox="0 0 27.890625 27.890625" xmlns="http://www.w3.org/2000/svg"><path d="M13.9427 27.8864C21.6427 27.8864 27.8927 21.6264 27.8927 13.9464C27.8927 6.2464 21.6427 -0.0036 13.9427 -0.0036C6.2627 -0.0036 0.0027 6.2464 0.0027 13.9464C0.0027 21.6264 6.2627 27.8864 13.9427 27.8864ZM14.0127 20.3064C10.3627 20.3064 8.4727 17.4864 8.4727 13.9864C8.4727 10.3364 10.5227 7.6864 14.0127 7.6864C16.0927 7.6864 17.9527 8.7764 18.6227 10.5964C18.7027 10.8264 18.7427 11.0564 18.7427 11.2264C18.7427 11.6664 18.4027 11.9464 17.9827 11.9464C17.5727 11.9464 17.3527 11.7264 17.2027 11.3064C16.7727 9.9964 15.5027 9.1464 14.0227 9.1464C11.4427 9.1464 10.2227 11.4064 10.2227 13.9864C10.2227 16.2664 11.1527 18.3764 13.2327 18.7864V13.9864C13.2327 13.6964 13.4127 13.4964 13.7127 13.4964C13.9827 13.4964 14.1827 13.6964 14.1827 13.9864V15.0564H14.2027C14.4927 14.1464 15.3627 13.4764 16.4427 13.4764C16.7027 13.4764 17.0327 13.5264 17.2127 13.6464C17.3927 13.7564 17.5027 13.9364 17.5027 14.1064C17.5027 14.4464 17.2927 14.5764 17.0127 14.5764C16.9027 14.5764 16.6927 14.5164 16.4627 14.5164C15.1327 14.5164 14.1927 15.4364 14.1927 16.7664V18.8664C15.5727 18.8264 16.8327 18.1164 17.2827 16.7164C17.4227 16.3064 17.6527 16.0764 18.0927 16.0764C18.5427 16.0764 18.8427 16.3364 18.8427 16.7864C18.8427 17.0064 18.8227 17.1864 18.7327 17.4064C18.1027 19.2664 16.1627 20.3064 14.0127 20.3064Z" /></svg>