
<svg
    viewBox={0 0 25.169921875 25.169921875}
    xmlns="http://www.w3.org/2000/svg"
>
    <path
        fill="inherit"
        d="M4.2937 25.1692H20.8737C23.7437 25.1692 25.1737 23.7592 25.1737 20.9492V4.2392C25.1737 1.4192 23.7437 -0.0008 20.8737 -0.0008H4.2937C1.4337 -0.0008 0.0037 1.4192 0.0037 4.2392V20.9492C0.0037 23.7592 1.4337 25.1692 4.2937 25.1692ZM12.6637 18.9392C9.0137 18.9392 7.1337 16.1192 7.1337 12.6192C7.1337 8.9692 9.1737 6.3192 12.6637 6.3192C14.7337 6.3192 16.5937 7.4092 17.2637 9.2292C17.3537 9.4592 17.4037 9.6892 17.4037 9.8592C17.4037 10.2992 17.0637 10.5792 16.6237 10.5792C16.2137 10.5792 15.9937 10.3592 15.8637 9.9392C15.4337 8.6292 14.1537 7.7792 12.6737 7.7792C10.0937 7.7792 8.8737 10.0392 8.8737 12.6192C8.8737 14.8992 9.8037 17.0092 11.8837 17.4192V12.6192C11.8837 12.3292 12.0737 12.1292 12.3637 12.1292C12.6437 12.1292 12.8237 12.3292 12.8237 12.6192V13.6892H12.8537C13.1437 12.7792 14.0137 12.1092 15.0937 12.1092C15.3537 12.1092 15.6837 12.1592 15.8637 12.2792C16.0337 12.3892 16.1437 12.5692 16.1437 12.7392C16.1437 13.0792 15.9537 13.2092 15.6537 13.2092C15.5437 13.2092 15.3437 13.1492 15.1037 13.1492C13.7837 13.1492 12.8337 14.0692 12.8337 15.3992V17.4992C14.2237 17.4592 15.4737 16.7492 15.9237 15.3492C16.0637 14.9392 16.2937 14.7092 16.7337 14.7092C17.1837 14.7092 17.4837 14.9692 17.4837 15.4192C17.4837 15.6392 17.4737 15.8192 17.3937 16.0392C16.7437 17.8992 14.8037 18.9392 12.6637 18.9392Z"
        fillRule="evenodd"
        clipRule="evenodd"
    />
</svg>
        