
<svg
    viewBox={0 0 27.439453125 30.77197265625}
    xmlns="http://www.w3.org/2000/svg"
>
    <path
        fill="inherit"
        d="M1.5537 24.2054L12.1637 30.3454C13.1537 30.9154 14.2837 30.9154 15.2837 30.3454L25.8837 24.2054C26.8637 23.6454 27.4437 22.6454 27.4437 21.5054V9.2554C27.4437 8.1254 26.8637 7.1254 25.8837 6.5554L15.2837 0.4454C14.2837 -0.1446 13.1537 -0.1446 12.1637 0.4454L1.5537 6.5554C0.5737 7.1254 0.0037 8.1254 0.0037 9.2554V21.5054C0.0037 22.6454 0.5737 23.6454 1.5537 24.2054ZM12.6237 5.2954H14.8237V2.7154L24.3537 8.2154C24.4637 8.2854 24.4837 8.3254 24.5537 8.3954L14.8237 13.9354V11.6954H12.6237V13.9354L2.8837 8.3954C2.9537 8.3254 2.9837 8.2854 3.1037 8.2154L12.6237 2.7154ZM12.6237 10.3154H14.8237V6.6854H12.6237ZM10.7337 18.8554L12.6237 17.7754V28.0454C12.5237 28.0054 12.5137 27.9854 12.4037 27.9254L3.6737 22.8754L5.1637 22.0154L4.0037 20.0854L2.2037 21.1254C2.2037 21.1154 2.2037 21.1154 2.2037 21.1154V10.5954L11.4537 15.8654L9.5837 16.9254ZM14.8237 28.0454V17.7754L16.7237 18.8554L17.8537 16.9254L15.9837 15.8654L25.2337 10.5954V21.1254L23.4337 20.0854L22.2737 22.0154L23.7637 22.8754L15.1237 27.8854C14.9737 27.9654 14.9537 27.9754 14.8237 28.0454ZM6.3537 21.3354L9.5137 19.5454L8.3837 17.5954L5.2337 19.3854ZM17.9237 19.5454L21.0937 21.3354L22.2037 19.3854L19.0537 17.5954Z"
        fillRule="evenodd"
        clipRule="evenodd"
    />
</svg>
        