<svg viewBox="0 0 27.439453125 30.77197265625" xmlns="http://www.w3.org/2000/svg"><path d="M1.5537 24.2054L12.1637 30.3454C13.1537 30.9154 14.2837 30.9154 15.2837 30.3454L25.8837 24.2054C26.8637 23.6454 27.4437 22.6454 27.4437 21.5054V9.2554C27.4437 8.1254 26.8637 7.1254 25.8837 6.5554L15.2837 0.4454C14.2837 -0.1446 13.1537 -0.1446 12.1637 0.4454L1.5537 6.5554C0.5737 7.1254 0.0037 8.1254 0.0037 9.2554V21.5054C0.0037 22.6454 0.5737 23.6454 1.5537 24.2054ZM13.7237 14.5654L2.8837 8.3954C2.9537 8.3254 2.9837 8.2854 3.1037 8.2154L12.9237 2.5454C13.4237 2.2454 14.0137 2.2454 14.5237 2.5454L24.3537 8.2154C24.4637 8.2854 24.4837 8.3254 24.5537 8.3954ZM12.6237 28.0454C12.5237 28.0054 12.5137 27.9854 12.4037 27.9254L3.0037 22.4954C2.5037 22.1954 2.2037 21.6854 2.2037 21.1154V10.5954L12.6237 16.5154ZM14.8237 28.0454V16.5154L25.2337 10.5954V21.1154C25.2337 21.6854 24.9537 22.1954 24.4437 22.4954L15.1237 27.8854C14.9737 27.9654 14.9537 27.9754 14.8237 28.0454Z" /></svg>