<svg viewBox="0 0 27.439453125 30.54638671875" xmlns="http://www.w3.org/2000/svg"><path d="M13.7237 14.5254L26.6237 7.1554C26.4137 6.9354 26.1637 6.7154 25.8837 6.5554L15.2837 0.4454C14.2837 -0.1446 13.1537 -0.1446 12.1637 0.4454L1.5537 6.5554C1.2737 6.7154 1.0437 6.9354 0.8237 7.1654ZM14.8637 16.5454V30.5454C14.9937 30.5054 15.1337 30.4254 15.2837 30.3454L25.8837 24.2054C26.8637 23.6454 27.4437 22.6454 27.4437 21.5054V9.3854ZM12.5737 16.5454L0.0037 9.3954C0.0037 9.4554 0.0037 9.5154 0.0037 9.5754V21.5054C0.0037 22.6454 0.5737 23.6454 1.5537 24.2054L12.1637 30.3454C12.3037 30.4054 12.4237 30.5054 12.5737 30.5454Z" /></svg>