
<svg
    viewBox="0 0 27.439453125 30.501953125"
    xmlns="http://www.w3.org/2000/svg"
>
    <path
        fill="inherit"
        d="M12.8237 14.1352V10.7352H14.6137V14.0552L26.7437 7.1352C26.5137 6.8652 26.2237 6.6152 25.8837 6.4152L15.2837 0.3052C15.0637 0.1752 14.8437 0.0652 14.6137 -0.0048V3.9252H12.8237V-0.0048C12.6037 0.0652 12.3737 0.1752 12.1637 0.3052L1.5537 6.4152C1.2037 6.6152 0.9137 6.8952 0.6737 7.1952ZM12.8237 8.9252V5.7152H14.6137V8.9252ZM14.5837 30.5052C14.8237 30.4452 15.0537 30.3252 15.2837 30.2052L25.8837 24.0652C26.1237 23.9252 26.3337 23.7652 26.4937 23.5752L23.6837 21.9752L24.6237 20.3852L27.3937 21.9452C27.4237 21.7552 27.4437 21.5652 27.4437 21.3652V8.9652L15.9837 15.4852L18.6937 17.0052L17.7737 18.5952L14.5837 16.7852ZM12.7137 30.4652V16.8552L9.6837 18.5952L8.7537 17.0052L11.3937 15.5152L0.0037 9.0552C0.0037 9.1052 0.0037 9.1752 0.0037 9.2252V21.3652C0.0037 21.5652 0.0137 21.7552 0.0437 21.9452L2.8137 20.3852L3.7637 21.9752L0.9437 23.5752C1.1237 23.7652 1.3137 23.9252 1.5537 24.0652L12.1637 30.2052C12.3637 30.3152 12.5237 30.4052 12.7137 30.4652ZM22.1337 21.0652L19.3337 19.4852L20.2437 17.8952L23.0337 19.4852ZM8.1037 19.4852L5.3037 21.0652L4.4037 19.4852L7.1937 17.8952Z"
        fillRule="evenodd"
        clipRule="evenodd"
    />
</svg>
        