
<svg
    viewBox={0 0 35.51953125 26.537109375}
    xmlns="http://www.w3.org/2000/svg"
>
    <path
        fill="inherit"
        d="M0.0037 19.2928C0.0037 23.5828 7.3837 26.5328 17.7637 26.5328C28.1537 26.5328 35.5237 23.5828 35.5237 19.2928C35.5237 17.2828 33.9237 15.5628 31.1337 14.3028C33.4737 13.8728 34.8237 12.3328 34.8237 10.0028C34.8237 7.4128 33.0837 5.7728 30.2037 5.6328C30.2037 2.2828 25.1837 0.0028 17.7637 0.0028C10.3337 0.0028 5.3137 2.2828 5.3137 5.6428V8.5028C5.3137 10.3628 5.6437 12.0728 6.2437 13.5928C2.3237 14.8728 0.0037 16.8728 0.0037 19.2928ZM17.7637 9.0828C11.8637 9.0828 7.5237 7.5928 7.5237 5.6428C7.5237 3.7028 11.8637 2.2028 17.7637 2.2028C23.6537 2.2028 28.0037 3.7028 28.0037 5.6428C28.0037 7.5928 23.6537 9.0828 17.7637 9.0828ZM30.2037 8.5028V7.8328C31.7337 7.9528 32.6237 8.7528 32.6237 10.0028C32.6237 11.3728 31.5637 12.2128 29.7937 12.2128H29.7237C30.0337 11.0628 30.2037 9.8128 30.2037 8.5028ZM17.7637 11.2828C22.2337 11.2828 25.8237 10.4628 27.9837 9.0628C27.7537 14.6528 24.0537 18.4328 18.3937 18.4328H17.1137C11.4437 18.4328 7.7637 14.6828 7.5337 9.0628C9.6937 10.4628 13.2937 11.2828 17.7637 11.2828ZM2.1237 19.2928C2.1237 17.8528 4.0337 16.5028 7.2337 15.5328C9.2437 18.7028 12.7437 20.6328 17.1137 20.6328H18.3937C22.7637 20.6328 26.2637 18.7028 28.2737 15.5328C31.4737 16.5028 33.4037 17.8728 33.4037 19.2928C33.4037 21.9528 26.5937 24.4228 17.7637 24.4228C8.9237 24.4228 2.1237 21.9528 2.1237 19.2928Z"
        fillRule="evenodd"
        clipRule="evenodd"
    />
</svg>
        