
<svg
    viewBox={0 0 29.50390625 29.069484753924648}
    xmlns="http://www.w3.org/2000/svg"
>
    <path
        fill="inherit"
        d="M9.7037 6.9478C9.7037 5.1578 8.0937 4.1578 8.0937 2.9278C8.0937 2.2478 8.2737 1.8778 8.7337 1.2478C9.3837 0.3678 8.1637 -0.5022 7.5037 0.3478C6.8537 1.1678 6.5737 1.9178 6.5737 2.8378C6.5737 4.6878 8.1637 5.6078 8.1637 6.9478C8.1637 7.6278 7.7337 8.2078 7.3437 8.8478C2.8037 9.6578 0.0037 11.5678 0.0037 14.0878V16.9378C0.0037 24.0678 4.7437 29.0678 11.8037 29.0678H13.0737C17.9337 29.0678 21.7137 26.6778 23.5837 22.8478H24.4637C27.6037 22.8478 29.5037 21.1978 29.5037 18.4478C29.5037 15.8378 27.7537 14.2078 24.8737 14.0678C24.8737 11.5978 22.1337 9.6978 17.6937 8.8778C18.0337 8.3278 18.3237 7.7178 18.3237 6.9478C18.3237 5.1578 16.7037 4.1578 16.7037 2.9278C16.7037 2.2478 16.8837 1.8778 17.3537 1.2478C17.9937 0.3678 16.7737 -0.5022 16.1237 0.3478C15.4637 1.1678 15.1937 1.9178 15.1937 2.8378C15.1937 4.6878 16.7737 5.6078 16.7737 6.9478C16.7737 7.5478 16.4437 8.0878 16.0737 8.6478C15.3037 8.5478 14.4737 8.4978 13.6337 8.4678C13.8537 8.0178 14.0137 7.5178 14.0137 6.9478C14.0137 5.1578 12.4037 4.1578 12.4037 2.9278C12.4037 2.2478 12.5737 1.8778 13.0437 1.2478C13.6837 0.3678 12.4737 -0.5022 11.8137 0.3478C11.1537 1.1678 10.8837 1.9178 10.8837 2.8378C10.8837 4.6878 12.4737 5.6078 12.4737 6.9478C12.4737 7.4778 12.2137 7.9478 11.8937 8.4378C10.9737 8.4478 10.0937 8.5078 9.2537 8.5878C9.5037 8.1078 9.7037 7.5778 9.7037 6.9478ZM12.4437 17.5178C6.5337 17.5178 2.2037 16.0178 2.2037 14.0878C2.2037 12.8678 3.8837 11.8278 6.5737 11.2278C6.6037 12.0878 6.8937 12.7878 7.4937 13.5478C8.1437 14.3878 9.3837 13.5078 8.7237 12.6378C8.2737 12.0378 8.0937 11.6678 8.0937 10.9578V10.9378C8.9537 10.8178 9.8937 10.7178 10.8937 10.6778C10.8837 10.7878 10.8837 10.9278 10.8837 11.0478C10.8837 11.9978 11.1537 12.7478 11.8037 13.5478C12.4537 14.3878 13.6837 13.5078 13.0337 12.6378C12.5737 12.0378 12.4037 11.6678 12.4037 10.9578C12.4037 10.8478 12.4137 10.7478 12.4237 10.6378H12.4437C13.3937 10.6378 14.3237 10.6778 15.2037 10.7678C15.1937 10.8578 15.1937 10.9578 15.1937 11.0478C15.1937 11.9978 15.4637 12.7478 16.1037 13.5478C16.7637 14.3878 17.9937 13.5078 17.3337 12.6378C16.8837 12.0378 16.7037 11.6678 16.7037 10.9578V10.9278C20.3137 11.4578 22.6637 12.6478 22.6637 14.0878C22.6637 16.0178 18.3337 17.5178 12.4437 17.5178ZM24.8737 16.9378V16.2678C26.4037 16.3978 27.3037 17.1878 27.3037 18.4478C27.3037 19.8178 26.2537 20.6478 24.4637 20.6478H24.4037C24.7037 19.4978 24.8737 18.2578 24.8737 16.9378ZM12.4437 19.7178C16.8937 19.7178 20.5037 18.8878 22.6537 17.4878C22.4337 23.0978 18.7337 26.8678 13.0737 26.8678H11.8037C6.1237 26.8678 2.4337 23.1078 2.2137 17.4878C4.3637 18.8878 7.9737 19.7178 12.4437 19.7178Z"
        fillRule="evenodd"
        clipRule="evenodd"
    />
</svg>
        