
<svg
    viewBox="0 0 28.6015625 29.069484753924648"
    xmlns="http://www.w3.org/2000/svg"
>
    <path
        fill="inherit"
        d="M11.4437 29.0678H12.6737C17.4437 29.0678 21.1337 26.8178 22.9137 23.0278H23.7037C26.7537 23.0278 28.6037 21.4278 28.6037 18.7778C28.6037 16.2478 26.9037 14.6778 24.1037 14.5378V14.5178C24.1037 12.1578 21.5037 10.3278 17.2837 9.5178C17.7437 8.8078 18.3237 8.0278 18.3237 6.9478C18.3237 5.1578 16.7037 4.1578 16.7037 2.9278C16.7037 2.2478 16.8837 1.8778 17.3537 1.2478C17.9937 0.3678 16.7737 -0.5022 16.1237 0.3478C15.4637 1.1678 15.1937 1.9178 15.1937 2.8378C15.1937 4.6878 16.7737 5.6078 16.7737 6.9478C16.7737 7.7678 16.1637 8.4378 15.6937 9.2678C14.9337 9.1778 14.1137 9.1178 13.2637 9.0978C13.6437 8.4978 14.0137 7.8078 14.0137 6.9478C14.0137 5.1578 12.4037 4.1578 12.4037 2.9278C12.4037 2.2478 12.5737 1.8778 13.0437 1.2478C13.6837 0.3678 12.4737 -0.5022 11.8137 0.3478C11.1537 1.1678 10.8837 1.9178 10.8837 2.8378C10.8837 4.6878 12.4737 5.6078 12.4737 6.9478C12.4737 7.6978 11.9537 8.3278 11.5137 9.0678C10.5837 9.0778 9.7037 9.1378 8.8637 9.2278C9.2837 8.5878 9.7037 7.8778 9.7037 6.9478C9.7037 5.1578 8.0937 4.1578 8.0937 2.9278C8.0937 2.2478 8.2737 1.8778 8.7337 1.2478C9.3837 0.3678 8.1637 -0.5022 7.5037 0.3478C6.8537 1.1678 6.5737 1.9178 6.5737 2.8378C6.5737 4.6878 8.1637 5.6078 8.1637 6.9478C8.1637 7.8378 7.4337 8.5578 6.9737 9.4878C2.6637 10.2878 0.0037 12.1278 0.0037 14.5178V17.3078C0.0037 24.2178 4.5937 29.0678 11.4437 29.0678ZM12.0537 17.8678C6.3337 17.8678 2.1337 16.4078 2.1337 14.5178C2.1337 13.3378 3.8737 12.2978 6.6137 11.7078C6.7237 12.3578 7.0137 12.9378 7.4937 13.5478C8.1437 14.3878 9.3837 13.5078 8.7237 12.6378C8.3937 12.1978 8.2037 11.8678 8.1337 11.4478C8.9837 11.3378 9.8937 11.2578 10.8837 11.2278C10.9137 12.0878 11.1937 12.7878 11.8037 13.5478C12.4537 14.3878 13.6837 13.5078 13.0337 12.6378C12.6337 12.1178 12.4437 11.7578 12.4037 11.1978C13.3837 11.2178 14.3237 11.2678 15.1937 11.3678C15.2537 12.1578 15.5337 12.8278 16.1037 13.5478C16.7637 14.3878 17.9937 13.5078 17.3337 12.6378C17.0337 12.2378 16.8537 11.9378 16.7637 11.5678C19.9437 12.1178 21.9837 13.2278 21.9837 14.5178C21.9837 16.4078 17.7837 17.8678 12.0537 17.8678ZM24.1037 17.3078V16.6578C25.6037 16.7678 26.4737 17.5278 26.4737 18.7778C26.4737 20.0978 25.4537 20.9078 23.7037 20.9078H23.6837C23.9537 19.7978 24.1037 18.5978 24.1037 17.3078Z"
        fillRule="evenodd"
        clipRule="evenodd"
    />
</svg>
        