
<svg
    viewBox="0 0 25.169921875 25.169921875"
    xmlns="http://www.w3.org/2000/svg"
>
    <path
        fill="inherit"
        d="M4.2937 25.1692H20.8737C23.7437 25.1692 25.1737 23.7592 25.1737 20.9492V4.2392C25.1737 1.4192 23.7437 -0.0008 20.8737 -0.0008H4.2937C1.4337 -0.0008 0.0037 1.4192 0.0037 4.2392V20.9492C0.0037 23.7592 1.4337 25.1692 4.2937 25.1692ZM4.3237 22.9692C2.9537 22.9692 2.2037 22.2392 2.2037 20.8192V4.3592C2.2037 2.9392 2.9537 2.1992 4.3237 2.1992H20.8537C22.2037 2.1992 22.9737 2.9392 22.9737 4.3592V20.8192C22.9737 22.2392 22.2037 22.9692 20.8537 22.9692ZM9.8837 20.0392C10.7037 20.0392 11.1537 19.6592 11.1537 19.0992C11.1537 18.5492 10.7637 18.1992 10.2137 18.1992C9.2837 18.1992 8.9437 17.7992 8.9437 16.6692V14.7892C8.9437 13.7492 8.3837 12.9292 7.4337 12.5892C8.3837 12.2492 8.9437 11.4392 8.9437 10.3892V8.5292C8.9437 7.3992 9.2837 6.9892 10.2137 6.9892C10.7637 6.9892 11.1537 6.6492 11.1537 6.0992C11.1537 5.5392 10.7037 5.1392 9.8837 5.1392C8.0437 5.1392 6.9437 6.2192 6.9437 8.3392V10.0492C6.9437 11.0292 6.7137 11.2692 6.0137 11.4392C4.8637 11.7392 4.8837 13.4392 6.0137 13.7392C6.7137 13.9292 6.9437 14.1592 6.9437 15.1492V16.8592C6.9437 18.9792 8.0437 20.0392 9.8837 20.0392ZM15.3237 20.0392C17.1537 20.0392 18.2637 18.9792 18.2637 16.8592V15.1492C18.2637 14.1592 18.4937 13.9292 19.1837 13.7392C20.3337 13.4492 20.3337 11.7292 19.1837 11.4392C18.4937 11.2692 18.2637 11.0292 18.2637 10.0492V8.3392C18.2637 6.2192 17.1537 5.1392 15.3237 5.1392C14.5037 5.1392 14.0437 5.5392 14.0437 6.0992C14.0437 6.6492 14.4537 6.9892 14.9937 6.9892C15.9137 6.9892 16.2737 7.3992 16.2737 8.5292V10.3892C16.2737 11.4392 16.8137 12.2492 17.7637 12.5892C16.8137 12.9292 16.2737 13.7492 16.2737 14.7892V16.6692C16.2737 17.7992 15.9137 18.1992 14.9937 18.1992C14.4537 18.1992 14.0437 18.5492 14.0437 19.0992C14.0437 19.6592 14.5037 20.0392 15.3237 20.0392Z"
        fillRule="evenodd"
        clipRule="evenodd"
    />
</svg>
        