<svg viewBox="0 0 25.45703125 28.232421875" xmlns="http://www.w3.org/2000/svg"><path d="M0.0037 14.0968C0.0037 14.8868 0.4537 15.4468 1.3937 15.5968C3.0937 15.8568 3.7637 16.7168 3.7637 18.9268V22.7668C3.7637 26.4868 5.4537 28.2368 9.1437 28.2368C9.3637 28.2368 9.5937 28.1868 9.7637 28.1368C10.1837 27.9568 10.4137 27.6168 10.4137 27.1668C10.4137 26.6368 10.1837 26.3568 9.7037 26.2368C9.5737 26.2068 9.4337 26.1768 9.2737 26.1668C6.9737 26.0068 6.1437 25.0168 6.1437 22.4868V17.9468C6.1437 15.6368 4.9237 14.3568 2.7937 14.1468C2.7437 14.1468 2.7437 14.0968 2.7937 14.0968C4.9237 13.8868 6.1437 12.6068 6.1437 10.2968V5.7468C6.1437 3.1968 6.9737 2.2468 9.2737 2.0768C9.4837 2.0668 9.6837 2.0368 9.8137 1.9868C10.2137 1.8468 10.4137 1.5468 10.4137 1.0668C10.4137 0.5868 10.1737 0.2568 9.7037 0.0968C9.5037 0.0268 9.2837 -0.0032 9.0137 -0.0032C5.4437 -0.0032 3.7637 1.7768 3.7637 5.4668V9.3268C3.7637 11.4968 3.0937 12.3768 1.3937 12.6368C0.4537 12.7868 0.0037 13.3168 0.0037 14.0968ZM25.4537 14.0968C25.4537 13.3168 24.9937 12.7868 24.0537 12.6368C22.3637 12.3768 21.6837 11.4968 21.6837 9.3268V5.4668C21.6837 1.7768 20.0037 -0.0032 16.4337 -0.0032C16.1637 -0.0032 15.9537 0.0268 15.7537 0.0968C15.2537 0.2568 15.0237 0.5868 15.0237 1.0668C15.0237 1.5468 15.2537 1.8368 15.6437 1.9868C15.7737 2.0368 15.9537 2.0668 16.1737 2.0768C18.4537 2.1868 19.3137 3.1968 19.3137 5.7468V10.2968C19.3137 12.6168 20.5337 14.0968 22.6537 14.0968C22.6937 14.0968 22.6937 14.1468 22.6537 14.1468C20.5337 14.1468 19.3137 15.6268 19.3137 17.9468V22.4868C19.3137 25.0168 18.4737 26.0068 16.1737 26.1668C16.0137 26.1768 15.8837 26.2068 15.7537 26.2368C15.2737 26.3368 15.0237 26.6368 15.0237 27.1668C15.0237 27.6468 15.2837 27.9968 15.6937 28.1368C15.8637 28.1868 16.0737 28.2368 16.2937 28.2368C19.9837 28.2368 21.6837 26.4868 21.6837 22.7668V18.9268C21.6837 16.7168 22.3637 15.8568 24.0537 15.5968C24.9937 15.4468 25.4537 14.8868 25.4537 14.0968Z" /></svg>