
<svg
    viewBox={0 0 25.169921875 25.169921875}
    xmlns="http://www.w3.org/2000/svg"
>
    <path
        fill="inherit"
        d="M4.2937 25.1692H20.8737C23.7437 25.1692 25.1737 23.7592 25.1737 20.9492V4.2392C25.1737 1.4192 23.7437 -0.0008 20.8737 -0.0008H4.2937C1.4337 -0.0008 0.0037 1.4192 0.0037 4.2392V20.9492C0.0037 23.7592 1.4337 25.1692 4.2937 25.1692ZM9.8037 20.2792C7.9037 20.2792 6.7637 19.1792 6.7637 16.9792V15.2292C6.7637 14.2192 6.5237 13.9692 5.8237 13.7792C4.6337 13.4692 4.6337 11.7192 5.8237 11.3992C6.5237 11.2292 6.7637 10.9792 6.7637 9.9692V8.2192C6.7637 6.0192 7.9037 4.9092 9.8037 4.9092C10.6537 4.9092 11.1337 5.3192 11.1337 5.8892C11.1337 6.4692 10.7037 6.8192 10.1437 6.8192C9.1837 6.8192 8.8337 7.2492 8.8337 8.4092V10.3192C8.8337 11.4192 8.2537 12.2392 7.2737 12.5892C8.2537 12.9492 8.8337 13.7792 8.8337 14.8592V16.7892C8.8337 17.9492 9.1837 18.3592 10.1437 18.3592C10.7037 18.3592 11.1337 18.7292 11.1337 19.3092C11.1337 19.8792 10.6537 20.2792 9.8037 20.2792ZM15.4037 20.2792C14.5637 20.2792 14.0837 19.8792 14.0837 19.3092C14.0837 18.7292 14.5037 18.3592 15.0637 18.3592C16.0237 18.3592 16.3837 17.9492 16.3837 16.7892V14.8592C16.3837 13.7792 16.9537 12.9492 17.9337 12.5892C16.9537 12.2392 16.3837 11.4192 16.3837 10.3192V8.4092C16.3837 7.2492 16.0237 6.8192 15.0637 6.8192C14.5037 6.8192 14.0837 6.4692 14.0837 5.8892C14.0837 5.3192 14.5637 4.9092 15.4037 4.9092C17.3037 4.9092 18.4437 6.0192 18.4437 8.2192V9.9692C18.4437 10.9792 18.6937 11.2292 19.3837 11.3992C20.5737 11.6992 20.5737 13.4792 19.3837 13.7792C18.6937 13.9692 18.4437 14.2192 18.4437 15.2292V16.9792C18.4437 19.1792 17.3037 20.2792 15.4037 20.2792ZM6.7837 12.4592V12.7192C6.9637 12.6892 7.1237 12.6492 7.2737 12.5892C7.1237 12.5192 6.9637 12.4792 6.7837 12.4592ZM18.4337 12.4592C18.2537 12.4792 18.0837 12.5192 17.9337 12.5892C18.0837 12.6492 18.2537 12.6892 18.4337 12.7192Z"
        fillRule="evenodd"
        clipRule="evenodd"
    />
</svg>
        