
<svg
    viewBox="0 0 23.515625 28.806640625"
    xmlns="http://www.w3.org/2000/svg"
>
    <path
        fill="inherit"
        d="M2.2037 5.8212C2.2037 8.0212 6.0537 9.5712 11.7537 9.5712C17.4637 9.5712 21.3137 8.0212 21.3137 5.8212C21.3137 3.5313 17.4837 1.9312 11.7537 1.9312C6.0337 1.9312 2.2037 3.5313 2.2037 5.8212ZM11.7537 18.0313C6.6837 18.0313 2.8837 16.8813 0.0037 14.4413V5.8212C0.0037 2.3813 4.7037 0.0012 11.7537 0.0012C18.8137 0.0012 23.5137 2.3813 23.5137 5.8212V14.4413C20.6337 16.8813 16.8337 18.0313 11.7537 18.0313ZM0.0037 22.3713V16.8213C3.0537 19.0613 6.8337 20.1013 11.7537 20.1013C16.6837 20.1013 20.4637 19.0613 23.5137 16.8213V22.3713C23.5137 26.1413 18.7737 28.8113 11.7537 28.8113C4.7437 28.8113 0.0037 26.1413 0.0037 22.3713Z"
        fillRule="evenodd"
        clipRule="evenodd"
    />
</svg>
        