
<svg
    viewBox={0 0 27.890625 27.890625}
    xmlns="http://www.w3.org/2000/svg"
>
    <path
        fill="inherit"
        d="M13.9427 27.8864C21.6427 27.8864 27.8927 21.6464 27.8927 13.9464C27.8927 6.2464 21.6427 -0.0036 13.9427 -0.0036C6.2527 -0.0036 0.0027 6.2464 0.0027 13.9464C0.0027 21.6464 6.2527 27.8864 13.9427 27.8864ZM13.9427 25.5664C7.5227 25.5664 2.3227 20.3664 2.3227 13.9464C2.3227 7.5164 7.5227 2.3264 13.9427 2.3264C20.3727 2.3264 25.5627 7.5164 25.5627 13.9464C25.5627 20.3664 20.3727 25.5664 13.9427 25.5664ZM10.3527 20.0464H13.8327C17.7227 20.0464 19.9027 17.8264 19.9027 13.7764C19.9027 9.7864 17.7427 7.5864 13.8327 7.5864H10.3527C9.6527 7.5864 9.2827 8.0764 9.2827 8.8164V18.8164C9.2827 19.5464 9.6527 20.0464 10.3527 20.0464ZM11.3927 18.3464V9.2864H13.5927C16.2527 9.2864 17.7227 10.8664 17.7227 13.8264C17.7227 16.8264 16.2727 18.3464 13.5927 18.3464Z"
        fillRule="evenodd"
        clipRule="evenodd"
    />
</svg>
        