
<svg
    viewBox="0 0 25.169921875 25.169921875"
    xmlns="http://www.w3.org/2000/svg"
>
    <path
        fill="inherit"
        d="M4.2937 25.1692H20.8737C23.7437 25.1692 25.1737 23.7592 25.1737 20.9492V4.2392C25.1737 1.4192 23.7437 -0.0008 20.8737 -0.0008H4.2937C1.4337 -0.0008 0.0037 1.4192 0.0037 4.2392V20.9492C0.0037 23.7592 1.4337 25.1692 4.2937 25.1692ZM4.3237 22.9692C2.9537 22.9692 2.2037 22.2392 2.2037 20.8192V4.3592C2.2037 2.9392 2.9537 2.1992 4.3237 2.1992H20.8537C22.2037 2.1992 22.9737 2.9392 22.9737 4.3592V20.8192C22.9737 22.2392 22.2037 22.9692 20.8537 22.9692ZM9.0137 18.6792H12.4937C16.3837 18.6792 18.5637 16.4592 18.5637 12.4092C18.5637 8.4192 16.4037 6.2192 12.4937 6.2192H9.0137C8.3137 6.2192 7.9437 6.7092 7.9437 7.4492V17.4492C7.9437 18.1792 8.3137 18.6792 9.0137 18.6792ZM10.0537 16.9792V7.9192H12.2537C14.9137 7.9192 16.3837 9.4992 16.3837 12.4592C16.3837 15.4592 14.9337 16.9792 12.2537 16.9792Z"
        fillRule="evenodd"
        clipRule="evenodd"
    />
</svg>
        