
<svg
    viewBox="0 0 30.529296875 29.17578125"
    xmlns="http://www.w3.org/2000/svg"
>
    <path
        fill="inherit"
        d="M1.0937 29.179H29.4237C30.0237 29.179 30.5337 28.669 30.5337 28.069C30.5337 27.469 30.0237 26.979 29.4237 26.979H28.7137V25.979C28.7137 25.429 28.3937 25.099 27.8337 25.099H26.9637V9.379H28.1637C28.9137 9.379 29.3537 8.829 29.3537 8.269C29.3537 7.859 29.1237 7.509 28.6137 7.219L16.9437 0.479C16.3937 0.169 15.8137 -0.001 15.2537 -0.001C14.6937 -0.001 14.1137 0.169 13.5937 0.479L1.9137 7.219C1.3937 7.509 1.1737 7.859 1.1737 8.269C1.1737 8.829 1.6137 9.379 2.3637 9.379H3.5637V25.099H2.7037C2.1437 25.099 1.8137 25.429 1.8137 25.979V26.979H1.0937C0.4937 26.979 0.0037 27.469 0.0037 28.069C0.0037 28.669 0.4937 29.179 1.0937 29.179ZM10.3937 20.929C9.9537 20.929 9.6637 20.629 9.6637 20.169V10.469C9.6637 10.009 9.9537 9.719 10.3937 9.719C10.8037 9.719 11.1037 10.019 11.1037 10.489V16.459H11.1437L14.2437 13.059C14.3737 12.909 14.6037 12.779 14.8037 12.779C15.1637 12.779 15.4537 13.069 15.4537 13.409C15.4537 13.629 15.3637 13.739 15.1937 13.929L12.8837 16.349L15.3537 19.779C15.4737 19.949 15.5537 20.109 15.5537 20.299C15.5537 20.659 15.2537 20.929 14.8737 20.929C14.6037 20.929 14.3837 20.799 14.2337 20.559L11.8537 17.239L11.1037 17.989V20.169C11.1037 20.629 10.8037 20.929 10.3937 20.929ZM17.7237 20.929C17.2537 20.929 17.0237 20.629 17.0237 20.169V13.509C17.0237 13.099 17.2937 12.779 17.6937 12.779C18.0637 12.779 18.3337 13.099 18.3337 13.509V14.359H18.4037C18.6037 13.509 19.1637 12.779 20.0037 12.779C20.4937 12.779 20.8537 13.039 20.8537 13.519C20.8537 13.749 20.7537 13.919 20.5937 14.009C20.3837 14.139 20.1437 14.169 19.8637 14.169C18.7437 14.169 18.3937 15.189 18.3937 16.109V20.169C18.3937 20.739 18.0237 20.929 17.7237 20.929ZM21.2337 20.769C20.6737 20.769 20.2937 20.399 20.2937 19.849C20.2937 19.319 20.6737 18.939 21.2337 18.939C21.7637 18.939 22.1437 19.319 22.1437 19.849C22.1437 20.399 21.7637 20.769 21.2337 20.769Z"
        fillRule="evenodd"
        clipRule="evenodd"
    />
</svg>
        