<svg viewBox="0 0 30.544813437289534 27.890625" xmlns="http://www.w3.org/2000/svg"><path d="M0.9769 11.3064C-0.0131 11.3064 -0.2531 11.9764 0.2769 12.7464L3.3369 17.0864C3.7869 17.7164 4.4469 17.7064 4.8869 17.0864L7.9269 12.7264C8.4669 11.9764 8.2069 11.3064 7.2469 11.3064H5.2769C6.4669 6.1564 11.0769 2.3264 16.5969 2.3264C23.0269 2.3264 28.2169 7.5164 28.2169 13.9464C28.2169 20.3664 23.0269 25.5664 16.5969 25.5664C12.7169 25.5664 9.2569 23.6564 7.1969 20.7564C6.7669 20.1964 6.1269 20.0164 5.5569 20.3564C5.0069 20.6964 4.8369 21.4664 5.3069 22.0664C7.8369 25.6064 11.9769 27.8864 16.5969 27.8864C24.2969 27.8864 30.5469 21.6464 30.5469 13.9464C30.5469 6.2464 24.2969 -0.0036 16.5969 -0.0036C9.8069 -0.0036 4.1269 4.8664 2.8969 11.3064ZM11.4269 19.5464C11.8869 19.5464 12.1869 19.2264 12.1869 18.7564V16.4464L12.9769 15.6664L15.4969 19.1664C15.6569 19.3964 15.8569 19.5464 16.1669 19.5464C16.5569 19.5464 16.8769 19.2664 16.8769 18.8764C16.8769 18.6864 16.7869 18.5164 16.6669 18.3464L14.0569 14.7364L16.4869 12.1664C16.6669 11.9764 16.7669 11.8664 16.7669 11.6164C16.7669 11.2764 16.4669 10.9764 16.0969 10.9764C15.8769 10.9764 15.6469 11.1064 15.5069 11.2664L12.2269 14.8464H12.1869V8.5464C12.1869 8.0764 11.8869 7.7364 11.4269 7.7364C10.9969 7.7364 10.6769 8.0664 10.6769 8.5264V18.7564C10.6769 19.2264 10.9969 19.5464 11.4269 19.5464ZM19.1469 19.5464C19.4669 19.5464 19.8569 19.3464 19.8569 18.7564V14.4664C19.8569 13.4964 20.2369 12.4164 21.3969 12.4164C21.6869 12.4164 21.9569 12.3864 22.1669 12.2664C22.3369 12.1664 22.4369 11.9864 22.4369 11.7464C22.4369 11.2564 22.0569 10.9764 21.5669 10.9764C20.6769 10.9764 20.0769 11.7264 19.8769 12.6164H19.7969V11.7264C19.7969 11.3064 19.4969 10.9764 19.1169 10.9764C18.7169 10.9764 18.4169 11.3064 18.4169 11.7264V18.7564C18.4169 19.2364 18.6769 19.5464 19.1469 19.5464ZM22.8469 19.3864C23.4069 19.3864 23.8069 18.9764 23.8069 18.4264C23.8069 17.8564 23.4069 17.4564 22.8469 17.4564C22.2769 17.4564 21.8769 17.8564 21.8769 18.4264C21.8769 18.9764 22.2769 19.3864 22.8469 19.3864Z" /></svg>