<svg viewBox="0 0 25.169921875 25.169921875" xmlns="http://www.w3.org/2000/svg"><path d="M4.2937 25.1692H20.8737C23.7437 25.1692 25.1737 23.7592 25.1737 20.9492V4.2392C25.1737 1.4192 23.7437 -0.0008 20.8737 -0.0008H4.2937C1.4337 -0.0008 0.0037 1.4192 0.0037 4.2392V20.9492C0.0037 23.7592 1.4337 25.1692 4.2937 25.1692ZM4.3237 22.9692C2.9537 22.9692 2.2037 22.2392 2.2037 20.8192V4.3592C2.2037 2.9392 2.9537 2.1992 4.3237 2.1992H20.8537C22.2037 2.1992 22.9737 2.9392 22.9737 4.3592V20.8192C22.9737 22.2392 22.2037 22.9692 20.8537 22.9692ZM7.4337 18.1792C7.8737 18.1792 8.1737 17.8592 8.1737 17.3892V15.0792L8.9837 14.2992L11.4837 17.7992C11.6437 18.0292 11.8537 18.1792 12.1537 18.1792C12.5537 18.1792 12.8637 17.8992 12.8637 17.5092C12.8637 17.3192 12.7837 17.1492 12.6637 16.9792L10.0537 13.3692L12.4837 10.7992C12.6637 10.6092 12.7537 10.4992 12.7537 10.2492C12.7537 9.9092 12.4737 9.6092 12.0837 9.6092C11.8637 9.6092 11.6337 9.7392 11.4937 9.8992L8.2137 13.4792H8.1737V7.1792C8.1737 6.7092 7.8737 6.3692 7.4337 6.3692C6.9837 6.3692 6.6737 6.6992 6.6737 7.1592V17.3892C6.6737 17.8592 6.9837 18.1792 7.4337 18.1792ZM15.1337 18.1792C15.4737 18.1792 15.8437 17.9792 15.8437 17.3892V13.0992C15.8437 12.1292 16.2237 11.0492 17.3937 11.0492C17.6737 11.0492 17.9537 11.0192 18.1537 10.8992C18.3337 10.7992 18.4337 10.6192 18.4337 10.3792C18.4337 9.8892 18.0637 9.6092 17.5537 9.6092C16.6837 9.6092 16.0637 10.3592 15.8737 11.2492H15.7937V10.3592C15.7937 9.9392 15.4937 9.6092 15.1037 9.6092C14.7137 9.6092 14.4137 9.9392 14.4137 10.3592V17.3892C14.4137 17.8692 14.6737 18.1792 15.1337 18.1792ZM18.8437 18.0192C19.4037 18.0192 19.8137 17.6092 19.8137 17.0592C19.8137 16.4892 19.4037 16.0892 18.8437 16.0892C18.2637 16.0892 17.8737 16.4892 17.8737 17.0592C17.8737 17.6092 18.2637 18.0192 18.8437 18.0192Z" /></svg>