<svg viewBox="0 0 25.169921875 25.169921875" xmlns="http://www.w3.org/2000/svg"><path d="M4.2937 25.1692H20.8737C23.7437 25.1692 25.1737 23.7592 25.1737 20.9492V4.2392C25.1737 1.4192 23.7437 -0.0008 20.8737 -0.0008H4.2937C1.4337 -0.0008 0.0037 1.4192 0.0037 4.2392V20.9492C0.0037 23.7592 1.4337 25.1692 4.2937 25.1692ZM7.2737 18.3492C6.7937 18.3492 6.4837 18.0192 6.4837 17.5292V6.9992C6.4837 6.5092 6.7937 6.1792 7.2737 6.1792C7.7237 6.1792 8.0437 6.5192 8.0437 7.0092V13.4892H8.0837L11.4537 9.8192C11.5937 9.6392 11.8437 9.5192 12.0537 9.5192C12.4537 9.5192 12.7537 9.8292 12.7537 10.1892C12.7537 10.4292 12.6637 10.5592 12.4737 10.7492L9.9637 13.3892L12.6637 17.0992C12.7837 17.2792 12.8637 17.4592 12.8637 17.6592C12.8637 18.0592 12.5537 18.3492 12.1237 18.3492C11.8237 18.3492 11.6037 18.1992 11.4437 17.9492L8.8637 14.3592L8.0437 15.1592V17.5292C8.0437 18.0192 7.7237 18.3492 7.2737 18.3492ZM15.2137 18.3492C14.7237 18.3492 14.4637 18.0292 14.4637 17.5292V10.2992C14.4637 9.8592 14.7637 9.5192 15.1937 9.5192C15.5837 9.5192 15.8837 9.8592 15.8837 10.2992V11.2092H15.9737C16.1737 10.2992 16.8037 9.5192 17.7037 9.5192C18.2337 9.5192 18.6037 9.7992 18.6037 10.3092C18.6037 10.5592 18.5137 10.7492 18.3337 10.8392C18.1137 10.9792 17.8437 11.0092 17.5437 11.0092C16.3337 11.0092 15.9437 12.1092 15.9437 13.1092V17.5292C15.9437 18.1392 15.5537 18.3492 15.2137 18.3492ZM19.0337 18.1792C18.4337 18.1792 18.0237 17.7592 18.0237 17.1892C18.0237 16.5992 18.4337 16.1892 19.0337 16.1892C19.6037 16.1892 20.0337 16.5992 20.0337 17.1892C20.0337 17.7592 19.6037 18.1792 19.0337 18.1792Z" /></svg>