
<svg
    viewBox={0 0 32.935546875 27.26189615322232}
    xmlns="http://www.w3.org/2000/svg"
>
    <path
        fill="inherit"
        d="M32.9327 16.3992C32.9327 7.7792 26.3227 0.7192 17.8927 -0.0008C17.4627 -0.0408 17.1327 0.2792 17.1327 0.7192V5.1892C17.1327 5.5592 17.3927 5.8392 17.7627 5.8692C22.9927 6.5092 27.0727 10.9792 27.0727 16.3992C27.0727 18.8592 26.2227 21.1292 24.7327 23.0292C24.5427 23.2592 24.5527 23.5592 24.7627 23.7792L28.0227 27.0292C28.3327 27.3292 28.7927 27.3292 29.0627 27.0092C31.4827 24.1392 32.9327 20.4292 32.9327 16.3992ZM0.0027 16.3992C0.0027 20.4392 1.4527 24.1492 3.8727 27.0192C4.1427 27.3492 4.5927 27.3292 4.9127 27.0292L8.1727 23.7792C8.3827 23.5592 8.3927 23.2592 8.2027 23.0292C6.7027 21.1292 5.8627 18.8592 5.8627 16.3992C5.8627 10.9792 9.9427 6.5092 15.1727 5.8692C15.5427 5.8392 15.8027 5.5592 15.8027 5.1892V0.7192C15.8027 0.2792 15.4727 -0.0408 15.0427 -0.0008C6.6127 0.7192 0.0027 7.7792 0.0027 16.3992ZM11.2927 22.1792C11.7327 22.1792 12.0327 21.8692 12.0327 21.3892V19.0792L12.8427 18.2992L15.3427 21.7992C15.5027 22.0292 15.7227 22.1792 16.0127 22.1792C16.4027 22.1792 16.7327 21.8892 16.7327 21.5092C16.7327 21.3192 16.6427 21.1492 16.5127 20.9792L13.9027 17.3692L16.3427 14.8092C16.5127 14.6092 16.6127 14.4992 16.6127 14.2592C16.6127 13.9092 16.3227 13.6092 15.9427 13.6092C15.7327 13.6092 15.4927 13.7392 15.3527 13.8892L12.0727 17.4892H12.0327V11.1892C12.0327 10.7092 11.7327 10.3792 11.2927 10.3792C10.8427 10.3792 10.5227 10.6992 10.5227 11.1692V21.3892C10.5227 21.8692 10.8427 22.1792 11.2927 22.1792ZM18.9927 22.1792C19.3327 22.1792 19.7127 21.9792 19.7127 21.3892V17.1092C19.7127 16.1192 20.0827 15.0592 21.2627 15.0592C21.5327 15.0592 21.8027 15.0192 22.0127 14.8892C22.1927 14.7992 22.3027 14.6292 22.3027 14.3892C22.3027 13.8792 21.9127 13.6092 21.4127 13.6092C20.5327 13.6092 19.9327 14.3692 19.7327 15.2492H19.6427V14.3692C19.6427 13.9392 19.3427 13.6092 18.9627 13.6092C18.5627 13.6092 18.2627 13.9392 18.2627 14.3692V21.3892C18.2627 21.8692 18.5227 22.1792 18.9927 22.1792ZM22.6927 22.0192C23.2527 22.0192 23.6627 21.6192 23.6627 21.0592C23.6627 20.4992 23.2527 20.0892 22.6927 20.0892C22.1227 20.0892 21.7227 20.4992 21.7227 21.0592C21.7227 21.6192 22.1227 22.0192 22.6927 22.0192Z"
        fillRule="evenodd"
        clipRule="evenodd"
    />
</svg>
        