<svg viewBox="0 0 27.890625 27.890625" xmlns="http://www.w3.org/2000/svg"><path d="M13.9427 27.8864C21.6427 27.8864 27.8927 21.6464 27.8927 13.9464C27.8927 6.2464 21.6427 -0.0036 13.9427 -0.0036C6.2527 -0.0036 0.0027 6.2464 0.0027 13.9464C0.0027 21.6464 6.2527 27.8864 13.9427 27.8864ZM13.9427 25.5664C7.5227 25.5664 2.3227 20.3664 2.3227 13.9464C2.3227 7.5164 7.5227 2.3264 13.9427 2.3264C20.3727 2.3264 25.5627 7.5164 25.5627 13.9464C25.5627 20.3664 20.3727 25.5664 13.9427 25.5664ZM8.7627 19.5464C9.2127 19.5464 9.5127 19.2264 9.5127 18.7564V16.4464L10.3127 15.6664L12.8227 19.1664C12.9927 19.3964 13.1927 19.5464 13.4927 19.5464C13.8927 19.5464 14.2027 19.2664 14.2027 18.8764C14.2027 18.6864 14.1227 18.5164 14.0027 18.3464L11.3927 14.7364L13.8227 12.1664C14.0027 11.9764 14.0927 11.8664 14.0927 11.6164C14.0927 11.2764 13.7927 10.9764 13.4227 10.9764C13.2027 10.9764 12.9727 11.1064 12.8427 11.2664L9.5527 14.8464H9.5127V8.5464C9.5127 8.0764 9.2127 7.7364 8.7627 7.7364C8.3227 7.7364 8.0127 8.0664 8.0127 8.5264V18.7564C8.0127 19.2264 8.3227 19.5464 8.7627 19.5464ZM16.4727 19.5464C16.8027 19.5464 17.1827 19.3464 17.1827 18.7564V14.4664C17.1827 13.4964 17.5727 12.4164 18.7327 12.4164C19.0127 12.4164 19.2927 12.3864 19.4927 12.2664C19.6727 12.1664 19.7727 11.9864 19.7727 11.7464C19.7727 11.2564 19.3827 10.9764 18.8927 10.9764C18.0027 10.9764 17.4027 11.7264 17.2127 12.6164H17.1327V11.7264C17.1327 11.3064 16.8327 10.9764 16.4427 10.9764C16.0527 10.9764 15.7527 11.3064 15.7527 11.7264V18.7564C15.7527 19.2364 16.0127 19.5464 16.4727 19.5464ZM20.1827 19.3864C20.7427 19.3864 21.1327 18.9764 21.1327 18.4264C21.1327 17.8564 20.7427 17.4564 20.1827 17.4564C19.6027 17.4564 19.2127 17.8564 19.2127 18.4264C19.2127 18.9764 19.6027 19.3864 20.1827 19.3864Z" /></svg>