<svg viewBox="0 0 30.5703125 30.5703125" xmlns="http://www.w3.org/2000/svg"><path d="M15.2827 30.5663C23.6827 30.5663 30.5727 23.6763 30.5727 15.2863C30.5727 6.8863 23.6827 -0.0038 15.2827 -0.0038C6.8927 -0.0038 0.0027 6.8863 0.0027 15.2863C0.0027 23.6763 6.8927 30.5663 15.2827 30.5663ZM15.2827 25.4862C9.6527 25.4862 5.0827 20.9162 5.0827 15.2863C5.0827 9.6363 9.6527 5.0863 15.2827 5.0863C20.9327 5.0863 25.4827 9.6363 25.4827 15.2863C25.4827 20.9162 20.9327 25.4862 15.2827 25.4862ZM10.1127 20.8863C10.5727 20.8863 10.8727 20.5663 10.8727 20.0963V17.7863L11.6627 17.0063L14.1827 20.5063C14.3427 20.7362 14.5427 20.8863 14.8427 20.8863C15.2427 20.8863 15.5627 20.6063 15.5627 20.2163C15.5627 20.0263 15.4727 19.8563 15.3527 19.6863L12.7427 16.0763L15.1727 13.5063C15.3527 13.3163 15.4527 13.2063 15.4527 12.9563C15.4527 12.6163 15.1527 12.3163 14.7827 12.3163C14.5627 12.3163 14.3327 12.4462 14.1927 12.6063L10.9127 16.1863H10.8727V9.8863C10.8727 9.4163 10.5727 9.0763 10.1127 9.0763C9.6827 9.0763 9.3627 9.4063 9.3627 9.8663V20.0963C9.3627 20.5663 9.6827 20.8863 10.1127 20.8863ZM17.8327 20.8863C18.1527 20.8863 18.5427 20.6863 18.5427 20.0963V15.8063C18.5427 14.8363 18.9227 13.7563 20.0827 13.7563C20.3727 13.7563 20.6427 13.7263 20.8527 13.6063C21.0227 13.5063 21.1227 13.3263 21.1227 13.0863C21.1227 12.5963 20.7527 12.3163 20.2527 12.3163C19.3727 12.3163 18.7627 13.0663 18.5627 13.9563H18.4827V13.0663C18.4827 12.6463 18.1827 12.3163 17.8027 12.3163C17.4027 12.3163 17.1027 12.6463 17.1027 13.0663V20.0963C17.1027 20.5763 17.3627 20.8863 17.8327 20.8863ZM21.5327 20.7263C22.0927 20.7263 22.5027 20.3163 22.5027 19.7663C22.5027 19.1963 22.0927 18.7963 21.5327 18.7963C20.9627 18.7963 20.5627 19.1963 20.5627 19.7663C20.5627 20.3163 20.9627 20.7263 21.5327 20.7263Z" /></svg>