
<svg
    viewBox={0 0 27.97265625 26.90625}
    xmlns="http://www.w3.org/2000/svg"
>
    <path
        fill="inherit"
        d="M1.3137 26.9042C2.1037 26.9042 2.6437 26.3042 2.6437 25.5142V19.5942L4.6637 17.6642L11.5437 26.4142C11.7837 26.7242 12.1537 26.9042 12.6237 26.9042C13.2937 26.9042 13.8337 26.4142 13.8337 25.7842C13.8337 25.4742 13.7237 25.1542 13.4837 24.8542L6.5037 16.0142L12.9837 9.5042C13.3037 9.1842 13.4537 8.8742 13.4537 8.5442C13.4537 7.9042 12.9037 7.4542 12.3037 7.4542C11.9237 7.4542 11.5937 7.6042 11.3037 7.9042L2.7037 16.7042H2.6437V1.3842C2.6437 0.5742 2.0937 0.0042 1.3137 0.0042C0.5337 0.0042 0.0037 0.5742 0.0037 1.3842V25.5142C0.0037 26.3642 0.6037 26.9042 1.3137 26.9042ZM18.2637 26.9042C19.0037 26.9042 19.5337 26.3142 19.5337 25.5142V15.0342C19.5337 12.7142 20.5237 9.9642 23.7437 9.9642C24.3637 9.9642 25.0437 9.9542 25.3937 9.7342C25.6937 9.5742 25.8637 9.2842 25.8637 8.8642C25.8637 8.2942 25.6037 7.9442 25.2137 7.7242C24.8437 7.5342 24.3637 7.4542 23.8937 7.4542C22.0137 7.4542 20.1637 8.7542 19.6037 11.1242H19.4237V8.7642C19.4237 7.9942 18.9237 7.4342 18.2237 7.4342C17.5137 7.4342 17.0037 7.9942 17.0037 8.7642V25.5142C17.0037 26.3142 17.5437 26.9042 18.2637 26.9042ZM26.1037 26.7142C27.1437 26.7142 27.9737 25.8842 27.9737 24.8442C27.9737 23.8042 27.1437 22.9642 26.1037 22.9642C25.0437 22.9642 24.2137 23.8042 24.2137 24.8442C24.2137 25.8842 25.0437 26.7142 26.1037 26.7142Z"
        fillRule="evenodd"
        clipRule="evenodd"
    />
</svg>
        