
<svg
    viewBox={0 0 32.935546875 27.33018496744969}
    xmlns="http://www.w3.org/2000/svg"
>
    <path
        fill="inherit"
        d="M16.4627 5.864C18.9327 5.864 21.2027 6.724 23.0227 8.134C23.2927 8.354 23.6527 8.324 23.9127 8.064L27.0827 4.894C27.4027 4.584 27.3827 4.124 27.0527 3.854C24.2027 1.454 20.4927 0.004 16.4627 0.004C12.4427 0.004 8.7327 1.454 5.8827 3.854C5.5527 4.124 5.5327 4.584 5.8527 4.894L9.0227 8.064C9.2827 8.324 9.6527 8.354 9.9527 8.124C11.7627 6.724 14.0127 5.864 16.4627 5.864ZM0.0027 16.464C0.0027 20.494 1.4527 24.204 3.8727 27.074C4.1427 27.414 4.6027 27.414 4.9127 27.094L8.1627 23.844C8.3627 23.624 8.3927 23.324 8.2027 23.094C6.7127 21.194 5.8627 18.924 5.8627 16.464C5.8627 14.014 6.7027 11.744 8.1227 9.944C8.3427 9.654 8.3427 9.284 8.0827 9.024L4.9127 5.854C4.5927 5.534 4.1427 5.534 3.8727 5.864C1.4527 8.734 0.0027 12.444 0.0027 16.464ZM32.9327 16.464C32.9327 12.444 31.4827 8.734 29.0627 5.864C28.7927 5.534 28.3327 5.534 28.0227 5.854L24.8527 9.024C24.5927 9.284 24.5827 9.654 24.8127 9.944C26.2227 11.744 27.0727 14.014 27.0727 16.464C27.0727 18.924 26.2227 21.194 24.7327 23.094C24.5427 23.324 24.5527 23.624 24.7627 23.844L28.0127 27.094C28.3327 27.414 28.7827 27.414 29.0627 27.074C31.4827 24.204 32.9327 20.494 32.9327 16.464ZM11.2927 22.244C11.7327 22.244 12.0327 21.934 12.0327 21.454V19.144L12.8427 18.364L15.3427 21.864C15.5027 22.094 15.7227 22.244 16.0127 22.244C16.4027 22.244 16.7327 21.954 16.7327 21.574C16.7327 21.384 16.6427 21.214 16.5127 21.044L13.9027 17.434L16.3427 14.874C16.5127 14.674 16.6127 14.564 16.6127 14.324C16.6127 13.974 16.3227 13.674 15.9427 13.674C15.7327 13.674 15.4927 13.804 15.3527 13.954L12.0727 17.554H12.0327V11.254C12.0327 10.774 11.7327 10.444 11.2927 10.444C10.8427 10.444 10.5227 10.764 10.5227 11.234V21.454C10.5227 21.934 10.8427 22.244 11.2927 22.244ZM18.9927 22.244C19.3327 22.244 19.7127 22.044 19.7127 21.454V17.174C19.7127 16.184 20.0827 15.124 21.2627 15.124C21.5327 15.124 21.8027 15.084 22.0127 14.954C22.1927 14.864 22.3027 14.694 22.3027 14.454C22.3027 13.944 21.9127 13.674 21.4127 13.674C20.5327 13.674 19.9327 14.434 19.7327 15.314H19.6427V14.434C19.6427 14.004 19.3427 13.674 18.9627 13.674C18.5627 13.674 18.2627 14.004 18.2627 14.434V21.454C18.2627 21.934 18.5227 22.244 18.9927 22.244ZM22.6927 22.084C23.2527 22.084 23.6627 21.684 23.6627 21.124C23.6627 20.564 23.2527 20.154 22.6927 20.154C22.1227 20.154 21.7227 20.564 21.7227 21.124C21.7227 21.684 22.1227 22.084 22.6927 22.084Z"
        fillRule="evenodd"
        clipRule="evenodd"
    />
</svg>
        