<svg viewBox="0 0 26.427734375 24.8828125" xmlns="http://www.w3.org/2000/svg"><path d="M13.3337 24.8862C14.1237 24.8862 14.6837 24.2962 14.6837 23.5062V13.2762H24.1837C24.9137 13.2762 25.4337 12.7862 25.4337 12.0762C25.4337 11.3762 24.9137 10.8862 24.1837 10.8862H14.6837V2.4462H25.1737C25.8937 2.4462 26.4237 1.9462 26.4237 1.2262C26.4237 0.5162 25.8937 -0.0038 25.1737 -0.0038H13.3337C12.4937 -0.0038 11.9637 0.5562 11.9637 1.4062V23.5062C11.9637 24.2862 12.4937 24.8862 13.3337 24.8862ZM4.1737 9.7662C6.5237 9.7662 8.3537 7.9262 8.3537 5.5762C8.3537 3.2262 6.5237 1.3962 4.1737 1.3962C1.8337 1.3962 0.0037 3.2262 0.0037 5.5762C0.0037 7.9262 1.8337 9.7662 4.1737 9.7662ZM4.1737 7.8362C2.9137 7.8362 1.9237 6.8462 1.9237 5.5762C1.9237 4.3162 2.9137 3.3262 4.1737 3.3262C5.4437 3.3262 6.4237 4.3162 6.4237 5.5762C6.4237 6.8462 5.4437 7.8362 4.1737 7.8362Z" /></svg>