
<svg
    viewBox={0 0 30.54325420651338 24.869140625}
    xmlns="http://www.w3.org/2000/svg"
>
    <path
        fill="inherit"
        d="M21.3837 24.8715C25.8637 24.8715 29.1037 22.6415 30.3237 19.2915C30.4637 18.8815 30.5437 18.4715 30.5437 18.0515C30.5537 17.3315 30.0737 16.8415 29.3437 16.8415C28.6337 16.8415 28.2737 17.2415 28.0437 17.9515C27.2937 20.6615 24.6937 22.4815 21.3837 22.4815C16.7037 22.4815 13.6737 18.5815 13.6737 12.3615C13.6737 6.2315 16.7237 2.3915 21.3837 2.3915C24.5037 2.3915 27.0937 4.3215 27.8637 7.0115C28.1137 7.8115 28.4537 8.1215 29.1637 8.1215C29.9037 8.1215 30.3837 7.6315 30.3637 6.9015C30.3537 6.4915 30.2937 6.1115 30.1437 5.7315C28.9037 2.2715 25.4737 0.0015 21.3837 0.0015C15.0637 0.0015 10.9237 4.8015 10.9237 12.3615C10.9237 20.0115 15.0437 24.8715 21.3837 24.8715ZM4.1737 9.7115C6.5237 9.7115 8.3537 7.8715 8.3537 5.5215C8.3537 3.1715 6.5237 1.3415 4.1737 1.3415C1.8337 1.3415 0.0037 3.1715 0.0037 5.5215C0.0037 7.8715 1.8337 9.7115 4.1737 9.7115ZM4.1737 7.7815C2.9137 7.7815 1.9237 6.7915 1.9237 5.5215C1.9237 4.2615 2.9137 3.2715 4.1737 3.2715C5.4437 3.2715 6.4237 4.2615 6.4237 5.5215C6.4237 6.7915 5.4437 7.7815 4.1737 7.7815Z"
        fillRule="evenodd"
        clipRule="evenodd"
    />
</svg>
        