
<svg
    viewBox="0 0 23.857421875 33.345703125"
    xmlns="http://www.w3.org/2000/svg"
>
    <path
        fill="inherit"
        d="M18.8037 14.7123C21.8237 14.7123 23.8537 12.7523 23.8537 9.8123C23.8537 8.3523 23.2437 7.0823 22.8037 6.1023C21.9937 4.3723 20.7037 2.2123 19.5637 0.4823C19.3337 0.1523 19.1037 0.0023 18.8037 0.0023C18.5137 0.0023 18.2637 0.1523 18.0437 0.4823C16.9137 2.2123 15.6037 4.3723 14.7937 6.1023C14.3737 7.0823 13.7537 8.3523 13.7537 9.8123C13.7537 12.7523 15.7737 14.7123 18.8037 14.7123ZM3.9637 33.3423C4.6237 33.3423 5.0537 32.8923 5.0537 32.2423V30.9423H15.7137V32.2423C15.7137 32.8923 16.1437 33.3423 16.8037 33.3423C17.4737 33.3423 17.9137 32.8923 17.9137 32.2423V30.9123C19.6437 30.7523 20.7637 29.5223 20.7637 27.7223V16.3423C19.9737 16.5323 19.4537 16.5823 18.8037 16.5823C14.7637 16.5823 11.8837 13.7923 11.8837 9.8123C11.8837 7.8623 12.6837 6.2523 13.1137 5.3323C13.9037 3.6223 14.5237 2.6223 15.3637 1.2023H3.2637C1.3037 1.2023 0.0037 2.4723 0.0037 4.4023V27.7223C0.0037 29.5223 1.1237 30.7523 2.8537 30.9123V32.2423C2.8537 32.8923 3.3037 33.3423 3.9637 33.3423ZM5.8237 9.2023C4.7137 9.2023 3.8237 8.3023 3.8237 7.1923C3.8237 6.1023 4.7137 5.2123 5.8237 5.2123C6.9137 5.2123 7.8237 6.1023 7.8237 7.1923C7.8237 8.3023 6.9137 9.2023 5.8237 9.2023ZM4.4937 20.3423C4.0037 20.3423 3.6137 19.9623 3.6137 19.4523C3.6137 18.9623 4.0037 18.5623 4.4937 18.5623H8.6037C9.1037 18.5623 9.5037 18.9623 9.5037 19.4523C9.5037 19.9623 9.1037 20.3423 8.6037 20.3423ZM12.1637 20.3423C11.6637 20.3423 11.2637 19.9623 11.2637 19.4523C11.2637 18.9623 11.6637 18.5623 12.1637 18.5623H16.2737C16.7637 18.5623 17.1537 18.9623 17.1537 19.4523C17.1537 19.9623 16.7637 20.3423 16.2737 20.3423ZM4.4937 23.8723C4.0037 23.8723 3.6137 23.4923 3.6137 22.9823C3.6137 22.4723 4.0037 22.0923 4.4937 22.0923H8.6037C9.1037 22.0923 9.5037 22.4723 9.5037 22.9823C9.5037 23.4923 9.1037 23.8723 8.6037 23.8723ZM12.1637 23.8723C11.6637 23.8723 11.2637 23.4923 11.2637 22.9823C11.2637 22.4723 11.6637 22.0923 12.1637 22.0923H16.2737C16.7637 22.0923 17.1537 22.4723 17.1537 22.9823C17.1537 23.4923 16.7637 23.8723 16.2737 23.8723ZM4.4937 27.4023C4.0037 27.4023 3.6137 27.0023 3.6137 26.5123C3.6137 26.0023 4.0037 25.6123 4.4937 25.6123H8.6037C9.1037 25.6123 9.5037 26.0023 9.5037 26.5123C9.5037 27.0023 9.1037 27.4023 8.6037 27.4023ZM12.1637 27.4023C11.6637 27.4023 11.2637 27.0023 11.2637 26.5123C11.2637 26.0023 11.6637 25.6123 12.1637 25.6123H16.2737C16.7637 25.6123 17.1537 26.0023 17.1537 26.5123C17.1537 27.0023 16.7637 27.4023 16.2737 27.4023Z"
        fillRule="evenodd"
        clipRule="evenodd"
    />
</svg>
        