
<svg
    viewBox="0 0 23.857421875 33.345703125"
    xmlns="http://www.w3.org/2000/svg"
>
    <path
        fill="inherit"
        d="M18.8037 14.7123C21.8237 14.7123 23.8537 12.7523 23.8537 9.8123C23.8537 8.3523 23.2437 7.0823 22.8037 6.1023C21.9937 4.3723 20.7037 2.2123 19.5637 0.4823C19.3337 0.1523 19.1037 0.0023 18.8037 0.0023C18.5137 0.0023 18.2637 0.1523 18.0437 0.4823C16.9137 2.2123 15.6037 4.3723 14.7937 6.1023C14.3737 7.0823 13.7537 8.3523 13.7537 9.8123C13.7537 12.7523 15.7737 14.7123 18.8037 14.7123ZM3.9637 33.3423C4.6237 33.3423 5.0537 32.8923 5.0537 32.2423V30.9423H15.7137V32.2423C15.7137 32.8923 16.1437 33.3423 16.8037 33.3423C17.4737 33.3423 17.9137 32.8923 17.9137 32.2423V30.8023C19.7937 30.3823 20.7637 29.0123 20.7637 26.7723V16.3423C20.0537 16.5423 19.3637 16.5423 18.5637 16.5723V26.6623C18.5637 27.9823 17.8037 28.7423 16.5137 28.7423H4.2537C2.9837 28.7423 2.2037 27.9823 2.2037 26.6623V5.4823C2.2037 4.1423 2.9837 3.4023 4.2537 3.4023H14.0937C14.4937 2.6623 14.9337 1.9123 15.3637 1.2023H4.2237C1.4637 1.2023 0.0037 2.6423 0.0037 5.3623V26.7723C0.0037 29.0123 0.9837 30.3823 2.8537 30.7923V32.2423C2.8537 32.8923 3.3037 33.3423 3.9637 33.3423ZM5.8237 9.1323C6.8737 9.1323 7.7537 8.2623 7.7537 7.1923C7.7537 6.1423 6.8737 5.2723 5.8237 5.2723C4.7537 5.2723 3.8937 6.1423 3.8937 7.1923C3.8937 8.2623 4.7537 9.1323 5.8237 9.1323ZM4.6737 19.9623H8.6537C9.1437 19.9623 9.5337 19.5923 9.5337 19.1023C9.5337 18.6223 9.1437 18.2423 8.6537 18.2423H4.6737C4.1937 18.2423 3.8137 18.6223 3.8137 19.1023C3.8137 19.5923 4.1937 19.9623 4.6737 19.9623ZM12.1137 19.9623H16.0937C16.5737 19.9623 16.9537 19.5923 16.9537 19.1023C16.9537 18.6223 16.5737 18.2423 16.0937 18.2423H12.1137C11.6237 18.2423 11.2337 18.6223 11.2337 19.1023C11.2337 19.5923 11.6237 19.9623 12.1137 19.9623ZM4.6737 23.3823H8.6537C9.1437 23.3823 9.5337 23.0123 9.5337 22.5223C9.5337 22.0223 9.1437 21.6523 8.6537 21.6523H4.6737C4.1937 21.6523 3.8137 22.0223 3.8137 22.5223C3.8137 23.0123 4.1937 23.3823 4.6737 23.3823ZM12.1137 23.3823H16.0937C16.5737 23.3823 16.9537 23.0123 16.9537 22.5223C16.9537 22.0223 16.5737 21.6523 16.0937 21.6523H12.1137C11.6237 21.6523 11.2337 22.0223 11.2337 22.5223C11.2337 23.0123 11.6237 23.3823 12.1137 23.3823ZM4.6737 26.7923H8.6537C9.1437 26.7923 9.5337 26.4123 9.5337 25.9323C9.5337 25.4423 9.1437 25.0623 8.6537 25.0623H4.6737C4.1937 25.0623 3.8137 25.4423 3.8137 25.9323C3.8137 26.4123 4.1937 26.7923 4.6737 26.7923ZM12.1137 26.7923H16.0937C16.5737 26.7923 16.9537 26.4123 16.9537 25.9323C16.9537 25.4423 16.5737 25.0623 16.0937 25.0623H12.1137C11.6237 25.0623 11.2337 25.4423 11.2337 25.9323C11.2337 26.4123 11.6237 26.7923 12.1137 26.7923Z"
        fillRule="evenodd"
        clipRule="evenodd"
    />
</svg>
        