
<svg
    viewBox={0 0 29.626953125 25.169921875}
    xmlns="http://www.w3.org/2000/svg"
>
    <path
        fill="inherit"
        d="M4.2937 25.1655L16.1637 25.1555C17.7637 25.1555 19.1437 24.6655 20.2637 23.4855L28.3237 15.1655C29.2337 14.2455 29.6237 13.4155 29.6237 12.5655C29.6237 11.7055 29.2337 10.8855 28.3237 9.9655L20.2737 1.5955C19.1537 0.4055 17.7737 -0.0045 16.1737 -0.0045H4.2937C1.4537 -0.0045 0.0037 1.4055 0.0037 4.2355V20.9355C0.0037 23.7655 1.4537 25.1655 4.2937 25.1655ZM7.7337 18.3155C7.1137 18.3155 6.6137 17.8155 6.6137 17.1755C6.6137 16.8755 6.7237 16.5955 6.9437 16.3755L10.7337 12.5955L6.9437 8.7955C6.7237 8.5755 6.6137 8.2955 6.6137 7.9955C6.6137 7.3655 7.1137 6.8755 7.7337 6.8755C8.0537 6.8755 8.3037 6.9955 8.5137 7.2055L12.3337 11.0055L16.1737 7.1955C16.4037 6.9555 16.6637 6.8455 16.9537 6.8455C17.5837 6.8455 18.0837 7.3555 18.0837 7.9755C18.0837 8.2855 17.9937 8.5355 17.7637 8.7755L13.9437 12.5955L17.7437 16.3655C17.9637 16.5855 18.0737 16.8555 18.0737 17.1755C18.0737 17.8155 17.5637 18.3155 16.9237 18.3155C16.6237 18.3155 16.3237 18.1955 16.1237 17.9955L12.3337 14.1755L8.5537 17.9955C8.3437 18.1955 8.0537 18.3155 7.7337 18.3155Z"
        fillRule="evenodd"
        clipRule="evenodd"
    />
</svg>
        