
<svg
    viewBox={0 0 29.626953125 25.169921875}
    xmlns="http://www.w3.org/2000/svg"
>
    <path
        fill="inherit"
        d="M4.2937 25.1655L16.1637 25.1555C17.7637 25.1555 19.1437 24.6655 20.2637 23.4855L28.3237 15.1655C29.2337 14.2455 29.6237 13.4155 29.6237 12.5655C29.6237 11.7055 29.2337 10.8855 28.3237 9.9655L20.2737 1.5955C19.1537 0.4055 17.7737 -0.0045 16.1737 -0.0045H4.2937C1.4537 -0.0045 0.0037 1.4055 0.0037 4.2355V20.9355C0.0037 23.7655 1.4537 25.1655 4.2937 25.1655ZM4.3337 22.9655C2.9637 22.9655 2.2037 22.2455 2.2037 20.8255V4.3455C2.2037 2.9255 2.9637 2.2055 4.3337 2.2055H16.2137C17.2437 2.2055 17.9237 2.3755 18.6237 3.1055L26.6237 11.4055C27.0737 11.8855 27.2337 12.2055 27.2337 12.5655C27.2337 12.9055 27.0837 13.2355 26.6237 13.7155L18.6037 21.9855C17.8937 22.7255 17.2437 22.9655 16.2037 22.9655ZM7.6537 18.3655C7.9737 18.3655 8.2437 18.2355 8.4537 18.0155L12.3137 14.1255L16.2137 18.0155C16.4237 18.2255 16.6837 18.3655 16.9937 18.3655C17.6137 18.3655 18.0837 17.8555 18.0837 17.2555C18.0837 16.9355 17.9737 16.6755 17.7637 16.4755L13.8737 12.5955L17.7737 8.6855C18.0037 8.4455 18.1037 8.2155 18.1037 7.9155C18.1037 7.3055 17.6237 6.8255 17.0037 6.8255C16.7237 6.8255 16.4837 6.9155 16.2537 7.1455L12.3137 11.0555L8.4237 7.1655C8.2137 6.9455 7.9737 6.8455 7.6537 6.8455C7.0537 6.8455 6.5637 7.3155 6.5637 7.9255C6.5637 8.2255 6.6837 8.4855 6.8937 8.6955L10.7737 12.5955L6.8937 16.4855C6.6837 16.6755 6.5637 16.9555 6.5637 17.2555C6.5637 17.8555 7.0537 18.3655 7.6537 18.3655Z"
        fillRule="evenodd"
        clipRule="evenodd"
    />
</svg>
        