
<svg
    viewBox="0 0 29.626953125 25.169921875"
    xmlns="http://www.w3.org/2000/svg"
>
    <path
        fill="inherit"
        d="M25.3309 25.1655C28.1909 25.1655 29.6309 23.7655 29.6309 20.9355V4.2355C29.6309 1.4055 28.1909 -0.0045 25.3309 -0.0045H13.4509C11.8509 -0.0045 10.4709 0.4055 9.3509 1.5955L1.3009 9.9655C0.4109 10.8855 0.0009 11.7055 0.0009 12.5655C0.0009 13.4155 0.4009 14.2455 1.3009 15.1655L9.3609 23.4855C10.5009 24.6655 11.8709 25.1555 13.4709 25.1555ZM25.3109 22.9655H13.4209C12.3909 22.9655 11.7409 22.7255 11.0209 21.9855L3.0109 13.7155C2.5409 13.2355 2.4109 12.9055 2.4109 12.5655C2.4109 12.2055 2.5609 11.8855 3.0109 11.4055L11.0009 3.1055C11.7209 2.3755 12.3909 2.2055 13.4109 2.2055H25.3109C26.6709 2.2055 27.4209 2.9255 27.4209 4.3455V20.8255C27.4209 22.2455 26.6709 22.9655 25.3109 22.9655ZM12.6609 18.3655C12.9609 18.3655 13.2309 18.2355 13.4409 18.0155L17.3209 14.1255L21.2009 18.0155C21.4109 18.2255 21.6809 18.3655 22.0009 18.3655C22.6009 18.3655 23.0909 17.8555 23.0909 17.2555C23.0909 16.9355 22.9709 16.6755 22.7609 16.4755L18.8809 12.5955L22.7809 8.6855C23.0009 8.4455 23.1009 8.2155 23.1009 7.9155C23.1009 7.3055 22.6109 6.8255 22.0109 6.8255C21.7209 6.8255 21.4809 6.9155 21.2509 7.1455L17.3209 11.0555L13.4109 7.1655C13.2109 6.9455 12.9609 6.8455 12.6609 6.8455C12.0609 6.8455 11.5709 7.3155 11.5709 7.9255C11.5709 8.2255 11.6709 8.4855 11.8909 8.6955L15.7809 12.5955L11.8909 16.4855C11.6709 16.6755 11.5709 16.9555 11.5709 17.2555C11.5709 17.8555 12.0609 18.3655 12.6609 18.3655Z"
        fillRule="evenodd"
        clipRule="evenodd"
    />
</svg>
        