<svg viewBox="0 0 29.626953125 25.169921875" xmlns="http://www.w3.org/2000/svg"><path d="M25.3309 25.1655C28.1909 25.1655 29.6309 23.7655 29.6309 20.9355V4.2355C29.6309 1.4055 28.1909 -0.0045 25.3309 -0.0045H13.4509C11.8509 -0.0045 10.4709 0.4055 9.3509 1.5955L1.3009 9.9655C0.4109 10.8855 0.0009 11.7055 0.0009 12.5655C0.0009 13.4155 0.4009 14.2455 1.3009 15.1655L9.3609 23.4855C10.5009 24.6655 11.8709 25.1555 13.4709 25.1555ZM12.7309 18.3155C12.1009 18.3155 11.5909 17.8155 11.5909 17.1755C11.5909 16.8755 11.7209 16.5955 11.9209 16.3755L15.7209 12.5955L11.9209 8.7955C11.7209 8.5755 11.5909 8.2955 11.5909 7.9955C11.5909 7.3655 12.1009 6.8755 12.7309 6.8755C13.0409 6.8755 13.2909 6.9955 13.5109 7.2055L17.3209 11.0055L21.1609 7.1955C21.4009 6.9555 21.6409 6.8455 21.9409 6.8455C22.5709 6.8455 23.0609 7.3555 23.0609 7.9755C23.0609 8.2855 22.9809 8.5355 22.7409 8.7755L18.9309 12.5955L22.7209 16.3655C22.9509 16.5855 23.0509 16.8555 23.0509 17.1755C23.0509 17.8155 22.5609 18.3155 21.9209 18.3155C21.6009 18.3155 21.3109 18.1955 21.1109 17.9955L17.3209 14.1755L13.5509 17.9955C13.3309 18.1955 13.0409 18.3155 12.7309 18.3155Z" /></svg>