
<svg
    viewBox={0 0 28.109375 33.126953125}
    xmlns="http://www.w3.org/2000/svg"
>
    <path
        fill="inherit"
        d="M9.1737 15.8624H18.9337C20.8937 15.8624 22.0637 14.7524 22.0637 12.7924V3.1724C22.0637 1.2624 20.8937 0.0024 18.9337 0.0024H9.1737C7.2337 0.0024 6.0437 1.1624 6.0437 3.1724V12.7024C6.0437 14.6724 7.2337 15.8624 9.1737 15.8624ZM8.7337 23.4324H19.3737C20.1637 23.4324 20.7137 22.9124 20.7137 22.1524C20.7137 21.8024 20.5537 21.3824 20.2737 21.0424L17.1537 17.4424H10.9337L7.8937 21.0424C7.5837 21.3924 7.3937 21.8024 7.3937 22.1524C7.3937 22.9124 7.9437 23.4324 8.7337 23.4324ZM1.1237 33.1224H26.9637C27.6037 33.1224 28.1137 32.6224 28.1137 31.9924C28.1137 31.3524 27.6037 30.8624 26.9637 30.8624H1.1237C0.4937 30.8624 0.0037 31.3524 0.0037 31.9924C0.0037 32.6224 0.4937 33.1224 1.1237 33.1224Z"
        fillRule="evenodd"
        clipRule="evenodd"
    />
</svg>
        