
<svg
    viewBox={0 0 27.890625 28.08203125}
    xmlns="http://www.w3.org/2000/svg"
>
    <path
        fill="inherit"
        d="M13.9427 27.8864C21.6427 27.8864 27.8927 21.6464 27.8927 13.9464C27.8927 6.2464 21.6427 -0.0036 13.9427 -0.0036C6.2527 -0.0036 0.0027 6.2464 0.0027 13.9464C0.0027 21.6464 6.2527 27.8864 13.9427 27.8864ZM13.9427 25.5664C7.5227 25.5664 2.3227 20.3664 2.3227 13.9464C2.3227 7.5164 7.5227 2.3264 13.9427 2.3264C20.3727 2.3264 25.5627 7.5164 25.5627 13.9464C25.5627 20.3664 20.3727 25.5664 13.9427 25.5664ZM9.2527 10.5964L13.3127 14.6564C13.7027 15.0564 14.2827 15.0364 14.6727 14.6564L20.9027 8.4264C21.2827 8.0564 21.3027 7.4464 20.9027 7.0864C20.5127 6.7164 19.9427 6.6964 19.5627 7.0864L13.9827 12.6564L10.6127 9.2564C10.2127 8.8764 9.6427 8.8764 9.2527 9.2564C8.8827 9.6264 8.8727 10.2164 9.2527 10.5964ZM0.1627 21.5164V25.6664C0.1627 27.3164 0.9527 28.0864 2.6427 28.0864H7.0127C4.0227 26.6364 1.7927 24.4764 0.1627 21.5164ZM27.7827 21.5164C26.1527 24.4764 23.9227 26.6364 20.9427 28.0864H25.3027C26.9927 28.0864 27.7827 27.3164 27.7827 25.6664Z"
        fillRule="evenodd"
        clipRule="evenodd"
    />
</svg>
        