
<svg
    viewBox={0 0 28.109375 33.126953125}
    xmlns="http://www.w3.org/2000/svg"
>
    <path
        fill="inherit"
        d="M8.9837 23.4324H19.1037C20.1837 23.4324 20.9437 22.6924 20.9437 21.6524C20.9437 21.2224 20.6837 20.6624 20.3137 20.2324L17.6237 17.0524H17.9937C20.5537 17.0524 22.0637 15.4924 22.0637 12.9324V4.1124C22.0637 1.6924 20.5737 0.0024 17.9937 0.0024H10.0937C7.5637 0.0024 6.0137 1.5724 6.0137 4.1124V12.9324C6.0137 15.4924 7.5637 17.0524 10.0937 17.0524H10.4637L7.7837 20.2324C7.3937 20.6724 7.1537 21.2324 7.1537 21.6524C7.1537 22.6924 7.9037 23.4324 8.9837 23.4324ZM10.3237 14.8524C8.7537 14.8524 8.1037 14.1324 8.1037 12.6724V4.4024C8.1037 2.9124 8.7537 2.2024 10.3237 2.2024H17.7637C19.3337 2.2024 19.9837 2.9124 19.9837 4.4024V12.6724C19.9837 14.1324 19.3337 14.8524 17.7637 14.8524ZM10.1337 21.2324C9.9237 21.2324 9.8137 21.0524 9.9637 20.8724L13.1437 17.0524H14.9437L18.1337 20.8724C18.2637 21.0524 18.1537 21.2324 17.9637 21.2324ZM1.1237 33.1224H26.9637C27.6037 33.1224 28.1137 32.6224 28.1137 31.9924C28.1137 31.3524 27.6037 30.8624 26.9637 30.8624H1.1237C0.4937 30.8624 0.0037 31.3524 0.0037 31.9924C0.0037 32.6224 0.4937 33.1224 1.1237 33.1224Z"
        fillRule="evenodd"
        clipRule="evenodd"
    />
</svg>
        