
<svg
    viewBox="0 0 27.890625 28.08203125"
    xmlns="http://www.w3.org/2000/svg"
>
    <path
        fill="inherit"
        d="M13.9427 27.8864C21.6427 27.8864 27.8927 21.6264 27.8927 13.9464C27.8927 6.2464 21.6427 -0.0036 13.9427 -0.0036C6.2627 -0.0036 0.0027 6.2464 0.0027 13.9464C0.0027 21.6264 6.2627 27.8864 13.9427 27.8864ZM9.0527 10.5864C8.6527 10.1864 8.6727 9.5864 9.0527 9.1964C9.4427 8.8064 10.0327 8.8064 10.4427 9.1964L13.9327 12.6964L19.6727 6.9564C20.0727 6.5664 20.6427 6.5764 21.0527 6.9564C21.4627 7.3464 21.4527 7.9664 21.0527 8.3564L14.6427 14.7764C14.2427 15.1764 13.6327 15.1864 13.2327 14.7764ZM0.1327 21.5164V25.6664C0.1327 27.3164 0.9327 28.0864 2.6127 28.0864H6.9827C3.9927 26.6164 1.7627 24.4564 0.1327 21.5164ZM27.7527 21.5164C26.1227 24.4564 23.9027 26.6164 20.9227 28.0864H25.2827C26.9627 28.0864 27.7527 27.3164 27.7527 25.6664Z"
        fillRule="evenodd"
        clipRule="evenodd"
    />
</svg>
        