
<svg
    viewBox="0 0 47.537109375 27.548828125"
    xmlns="http://www.w3.org/2000/svg"
>
    <path
        fill="inherit"
        d="M11.8937 27.5503H16.3337C16.1837 27.2103 16.1237 26.8203 16.1237 26.4303C16.1237 24.8103 17.4437 23.4603 19.0837 23.4603H19.3637V16.6703H2.7937C2.3837 16.6703 2.2037 16.5203 2.2037 16.0803V3.1903C2.2037 2.5703 2.5837 2.2003 3.1837 2.2003H29.4037C30.0137 2.2003 30.3937 2.5703 30.3937 3.1903V8.7903H32.5937V3.1403C32.5937 1.1803 31.4037 0.0003 29.4337 0.0003H3.1437C1.1937 0.0003 0.0037 1.1803 0.0037 3.1403V19.5403C0.0037 21.5103 1.1937 22.6903 3.1437 22.6903H11.9737V25.3303H11.8937C11.2937 25.3303 10.7837 25.8303 10.7837 26.4403C10.7837 27.0603 11.2937 27.5503 11.8937 27.5503ZM17.9737 26.4303C17.9737 27.0603 18.4837 27.5503 19.0837 27.5503L46.4337 27.5303C47.0337 27.5303 47.5337 27.0403 47.5337 26.4103C47.5337 25.8103 47.0337 25.3203 46.4337 25.3203H44.4637V13.5603C44.4637 11.6503 43.4337 10.6603 41.5337 10.6603H24.1537C22.3537 10.6603 21.2337 11.6503 21.2337 13.5603V25.3303H19.0837C18.4837 25.3303 17.9737 25.8303 17.9737 26.4303ZM23.4337 25.3303V14.1803C23.4337 13.3003 23.8737 12.8603 24.7437 12.8603H40.9437C41.8237 12.8603 42.2637 13.3003 42.2637 14.1803V25.3203Z"
        fillRule="evenodd"
        clipRule="evenodd"
    />
</svg>
        