<svg viewBox="0 0 32.59375 32.279296875" xmlns="http://www.w3.org/2000/svg"><path d="M16.2937 0.0006C15.7137 0.0006 15.2137 0.4906 15.2137 1.0706V13.2306L15.3037 15.2706L14.5237 14.4606L12.4137 12.2106C12.2237 11.9906 11.9237 11.8806 11.6637 11.8806C11.0837 11.8806 10.6737 12.2906 10.6737 12.8506C10.6737 13.1406 10.7837 13.3606 10.9937 13.5606L15.5037 17.9106C15.7737 18.1806 16.0237 18.2806 16.2937 18.2806C16.5737 18.2806 16.8137 18.1806 17.0937 17.9106L21.5837 13.5606C21.8037 13.3606 21.9137 13.1406 21.9137 12.8506C21.9137 12.2906 21.4937 11.8806 20.9137 11.8806C20.6537 11.8806 20.3737 11.9906 20.1837 12.2106L18.0637 14.4606L17.2937 15.2706L17.3937 13.2306V1.0706C17.3937 0.4906 16.8837 0.0006 16.2937 0.0006ZM3.1437 27.4306H11.9737V30.0606H11.8937C11.2937 30.0606 10.7837 30.5606 10.7837 31.1706C10.7837 31.7906 11.2937 32.2806 11.8937 32.2806H20.7037C21.3037 32.2806 21.7937 31.7906 21.7937 31.1706C21.7937 30.5606 21.3037 30.0606 20.7037 30.0606H20.6137V27.4306H29.4337C31.4037 27.4306 32.5937 26.2406 32.5937 24.2706V7.8706C32.5937 5.9106 31.4037 4.7306 29.4337 4.7306H19.9437V6.9306H29.4037C30.0137 6.9306 30.3937 7.3006 30.3937 7.9206V20.8106C30.3937 21.2506 30.2037 21.4006 29.7937 21.4006H2.7937C2.3837 21.4006 2.2037 21.2506 2.2037 20.8106V7.9206C2.2037 7.3006 2.5837 6.9306 3.1837 6.9306H12.6437V4.7306H3.1437C1.1937 4.7306 0.0037 5.9106 0.0037 7.8706V24.2706C0.0037 26.2406 1.1937 27.4306 3.1437 27.4306Z" /></svg>