<svg viewBox="0 0 32.388671875 28.041015625" xmlns="http://www.w3.org/2000/svg"><path d="M16.2027 2.8448C16.9827 2.8448 17.6127 2.2148 17.6127 1.4248C17.6127 0.6248 16.9827 0.0048 16.2027 0.0048C15.4127 0.0048 14.7827 0.6248 14.7827 1.4248C14.7827 2.2148 15.4127 2.8448 16.2027 2.8448ZM5.7127 7.2148C6.5127 7.2148 7.1327 6.5948 7.1327 5.7948C7.1327 5.0048 6.5127 4.3748 5.7127 4.3748C4.9227 4.3748 4.2927 5.0048 4.2927 5.7948C4.2927 6.5948 4.9227 7.2148 5.7127 7.2148ZM26.6727 7.2148C27.4627 7.2148 28.0927 6.5948 28.0927 5.7948C28.0927 5.0048 27.4627 4.3748 26.6727 4.3748C25.8827 4.3748 25.2527 5.0048 25.2527 5.7948C25.2527 6.5948 25.8827 7.2148 26.6727 7.2148ZM16.2027 26.1448C21.6927 26.1448 26.1427 21.6948 26.1427 16.2048C26.1427 10.6948 21.6927 6.2448 16.2027 6.2448C10.6927 6.2448 6.2527 10.6948 6.2527 16.2048C6.2527 21.6948 10.6927 26.1448 16.2027 26.1448ZM16.2027 23.9248C11.9227 23.9248 8.4627 20.4648 8.4627 16.2048C8.4627 12.2748 11.3927 9.0348 15.1727 8.5348V16.4048C15.1727 16.9648 15.6227 17.4148 16.2027 17.4148C16.7627 17.4148 17.2127 16.9648 17.2127 16.4048V8.5348C21.0027 9.0348 23.9227 12.2748 23.9227 16.2048C23.9227 20.4648 20.4627 23.9248 16.2027 23.9248ZM1.4227 17.6048C2.2127 17.6048 2.8427 16.9848 2.8427 16.1848C2.8427 15.4048 2.2127 14.7748 1.4227 14.7748C0.6327 14.7748 0.0027 15.4048 0.0027 16.1848C0.0027 16.9848 0.6327 17.6048 1.4227 17.6048ZM30.9627 17.6048C31.7627 17.6048 32.3927 16.9848 32.3927 16.1848C32.3927 15.4048 31.7627 14.7748 30.9627 14.7748C30.1727 14.7748 29.5427 15.4048 29.5427 16.1848C29.5427 16.9848 30.1727 17.6048 30.9627 17.6048ZM5.7127 28.0448C6.5127 28.0448 7.1327 27.4148 7.1327 26.6148C7.1327 25.8248 6.5127 25.1948 5.7127 25.1948C4.9227 25.1948 4.2927 25.8248 4.2927 26.6148C4.2927 27.4148 4.9227 28.0448 5.7127 28.0448ZM26.6727 28.0448C27.4627 28.0448 28.0927 27.4148 28.0927 26.6148C28.0927 25.8248 27.4627 25.1948 26.6727 25.1948C25.8827 25.1948 25.2527 25.8248 25.2527 26.6148C25.2527 27.4148 25.8827 28.0448 26.6727 28.0448Z" /></svg>