
<svg
    viewBox={0 0 27.890625 27.890625}
    xmlns="http://www.w3.org/2000/svg"
>
    <path
        fill="inherit"
        d="M13.9427 27.8864C21.6427 27.8864 27.8927 21.6464 27.8927 13.9464C27.8927 6.2464 21.6427 -0.0036 13.9427 -0.0036C6.2527 -0.0036 0.0027 6.2464 0.0027 13.9464C0.0027 21.6464 6.2527 27.8864 13.9427 27.8864ZM13.9427 25.5664C7.5227 25.5664 2.3227 20.3664 2.3227 13.9464C2.3227 7.5164 7.5227 2.3264 13.9427 2.3264C20.3727 2.3264 25.5627 7.5164 25.5627 13.9464C25.5627 20.3664 20.3727 25.5664 13.9427 25.5664ZM6.9327 15.0664L12.8127 20.9564C13.5527 21.6864 14.3327 21.7064 15.0627 20.9864L20.9827 15.0564C21.7127 14.3464 21.6827 13.5364 20.9627 12.8064L15.0827 6.9364C14.3427 6.2064 13.5627 6.1764 12.8227 6.9064L6.9027 12.8264C6.1927 13.5464 6.2227 14.3564 6.9327 15.0664Z"
        fillRule="evenodd"
        clipRule="evenodd"
    />
</svg>
        