
<svg
    viewBox="0 0 28.9296875 28.642578125"
    xmlns="http://www.w3.org/2000/svg"
>
    <path
        fill="inherit"
        d="M0.0037 18.0719C0.0037 20.8919 1.4237 22.3119 4.2937 22.3119H4.7537V10.5719C4.7537 6.7019 7.0237 4.4719 10.9237 4.4719H22.3037V4.2419C22.3037 1.4219 20.8637 0.0019 18.0237 0.0019H4.2937C1.4237 0.0019 0.0037 1.4219 0.0037 4.2419ZM10.9237 28.6419H24.6537C27.4937 28.6419 28.9337 27.2219 28.9337 24.4019V10.5719C28.9337 7.7519 27.4937 6.3319 24.6537 6.3319H10.9237C8.0537 6.3319 6.6337 7.7419 6.6337 10.5719V24.4019C6.6337 27.2219 8.0537 28.6419 10.9237 28.6419ZM12.2637 13.9719C11.1537 13.9619 10.2637 13.0819 10.2637 11.9619C10.2637 10.8719 11.1537 9.9819 12.2637 9.9819C13.3537 9.9819 14.2637 10.8719 14.2637 11.9619C14.2637 13.0819 13.3537 14.0019 12.2637 13.9719ZM23.2937 13.9719C22.2037 13.9619 21.3037 13.0819 21.3037 11.9619C21.3037 10.8719 22.2037 9.9819 23.2937 9.9819C24.3937 9.9819 25.2937 10.8719 25.2937 11.9619C25.2937 13.0819 24.3937 14.0019 23.2937 13.9719ZM17.7737 19.5119C16.6837 19.5119 15.7937 18.6119 15.7937 17.4819C15.7937 16.3919 16.6837 15.5219 17.7737 15.5219C18.8637 15.5219 19.7737 16.3919 19.7737 17.4819C19.7737 18.6119 18.8637 19.5119 17.7737 19.5119ZM12.2637 25.0319C11.1537 25.0319 10.2837 24.1319 10.2837 23.0219C10.2837 21.9119 11.1537 21.0419 12.2637 21.0419C13.3537 21.0419 14.2437 21.9119 14.2437 23.0219C14.2437 24.1319 13.3537 25.0319 12.2637 25.0319ZM23.2937 25.0319C22.2037 25.0319 21.3137 24.1319 21.3137 23.0219C21.3137 21.9119 22.2037 21.0419 23.2937 21.0419C24.3937 21.0419 25.2937 21.9119 25.2937 23.0219C25.2937 24.1319 24.3937 25.0319 23.2937 25.0319Z"
        fillRule="evenodd"
        clipRule="evenodd"
    />
</svg>
        