
<svg
    viewBox={0 0 28.9296875 28.642578125}
    xmlns="http://www.w3.org/2000/svg"
>
    <path
        fill="inherit"
        d="M4.2937 22.3119H6.6337V24.4019C6.6337 27.2219 8.0537 28.6419 10.9237 28.6419H24.6537C27.4937 28.6419 28.9337 27.2219 28.9337 24.4019V10.5719C28.9337 7.7519 27.4937 6.3319 24.6537 6.3319H22.3037V4.2419C22.3037 1.4219 20.8637 0.0019 18.0237 0.0019H4.2937C1.4237 0.0019 0.0037 1.4219 0.0037 4.2419V18.0719C0.0037 20.8919 1.4237 22.3119 4.2937 22.3119ZM4.3237 20.1119C2.9537 20.1119 2.2037 19.3719 2.2037 17.9519V4.3619C2.2037 2.9419 2.9537 2.2019 4.3237 2.2019H17.9737C19.3337 2.2019 20.0937 2.9419 20.0937 4.3619V6.3319H10.9237C8.0537 6.3319 6.6337 7.7419 6.6337 10.5719V20.1119ZM10.9537 26.4419C9.5937 26.4419 8.8337 25.7019 8.8337 24.2819V10.6919C8.8337 9.2719 9.5937 8.5319 10.9537 8.5319H24.6137C25.9637 8.5319 26.7237 9.2719 26.7237 10.6919V24.2819C26.7237 25.7019 25.9637 26.4419 24.6137 26.4419ZM12.4437 14.0819C13.4937 14.0919 14.3737 13.2219 14.3737 12.1419C14.3737 11.0619 13.4937 10.2119 12.4437 10.2119C11.3737 10.2119 10.5037 11.0619 10.5037 12.1419C10.5037 13.2219 11.3737 14.0719 12.4437 14.0819ZM23.1437 14.0819C24.2037 14.0919 25.0737 13.2219 25.0737 12.1419C25.0737 11.0619 24.2037 10.2119 23.1437 10.2119C22.0837 10.2119 21.1937 11.0619 21.1937 12.1419C21.1937 13.2219 22.0837 14.0719 23.1437 14.0819ZM17.7837 19.4419C18.8437 19.4419 19.7137 18.5619 19.7137 17.4819C19.7137 16.4319 18.8437 15.5719 17.7837 15.5719C16.7237 15.5719 15.8637 16.4319 15.8637 17.4819C15.8637 18.5619 16.7237 19.4419 17.7837 19.4419ZM12.4437 24.8019C13.4937 24.8019 14.3737 23.9219 14.3737 22.8619C14.3737 21.7919 13.4937 20.9319 12.4437 20.9319C11.3737 20.9319 10.5137 21.7919 10.5137 22.8619C10.5137 23.9219 11.3737 24.8019 12.4437 24.8019ZM23.1437 24.8019C24.2037 24.8019 25.0737 23.9219 25.0737 22.8619C25.0737 21.7919 24.2037 20.9319 23.1437 20.9319C22.0837 20.9319 21.2037 21.7919 21.2037 22.8619C21.2037 23.9219 22.0837 24.8019 23.1437 24.8019Z"
        fillRule="evenodd"
        clipRule="evenodd"
    />
</svg>
        