
<svg
    viewBox="0 0 25.169921875 25.169921875"
    xmlns="http://www.w3.org/2000/svg"
>
    <path
        fill="inherit"
        d="M4.2937 25.1692H20.8737C23.7437 25.1692 25.1737 23.7592 25.1737 20.9492V4.2392C25.1737 1.4192 23.7437 -0.0008 20.8737 -0.0008H4.2937C1.4337 -0.0008 0.0037 1.4192 0.0037 4.2392V20.9492C0.0037 23.7592 1.4337 25.1692 4.2937 25.1692ZM18.9337 8.5492C17.6637 8.5192 16.6137 7.5192 16.6137 6.2392C16.6137 4.9792 17.6637 3.9692 18.9337 3.9692C20.1837 3.9692 21.2037 4.9792 21.2037 6.2392C21.2037 7.5192 20.1837 8.5692 18.9337 8.5492ZM12.5937 14.8892C11.3237 14.8892 10.3037 13.8592 10.3037 12.5792C10.3037 11.3192 11.3237 10.3092 12.5937 10.3092C13.8337 10.3092 14.8737 11.3192 14.8737 12.5792C14.8737 13.8592 13.8337 14.8892 12.5937 14.8892ZM6.2637 21.2292C4.9937 21.2292 3.9737 20.2092 3.9737 18.9392C3.9737 17.6592 4.9937 16.6492 6.2637 16.6492C7.5037 16.6492 8.5437 17.6592 8.5437 18.9392C8.5437 20.2092 7.5037 21.2292 6.2637 21.2292Z"
        fillRule="evenodd"
        clipRule="evenodd"
    />
</svg>
        