<svg viewBox="0 0 25.169921875 25.169921875" xmlns="http://www.w3.org/2000/svg"><path d="M4.2937 25.1692H20.8737C23.7437 25.1692 25.1737 23.7592 25.1737 20.9492V4.2392C25.1737 1.4192 23.7437 -0.0008 20.8737 -0.0008H4.2937C1.4337 -0.0008 0.0037 1.4192 0.0037 4.2392V20.9492C0.0037 23.7592 1.4337 25.1692 4.2937 25.1692ZM6.2637 8.5492C4.9937 8.5192 3.9637 7.5192 3.9637 6.2392C3.9637 4.9792 4.9937 3.9692 6.2637 3.9692C7.5037 3.9692 8.5437 4.9792 8.5437 6.2392C8.5437 7.5192 7.5037 8.5692 6.2637 8.5492ZM18.9337 8.5492C17.6637 8.5192 16.6237 7.5192 16.6237 6.2392C16.6237 4.9792 17.6637 3.9692 18.9337 3.9692C20.1837 3.9692 21.2037 4.9792 21.2037 6.2392C21.2037 7.5192 20.1837 8.5692 18.9337 8.5492ZM6.2637 14.8892C4.9937 14.8892 3.9737 13.8592 3.9737 12.5792C3.9737 11.3192 4.9937 10.3092 6.2637 10.3092C7.5037 10.3092 8.5437 11.3192 8.5437 12.5792C8.5437 13.8592 7.5037 14.8892 6.2637 14.8892ZM18.9237 14.8892C17.6637 14.8892 16.6437 13.8592 16.6437 12.5792C16.6437 11.3192 17.6637 10.3092 18.9237 10.3092C20.1837 10.3092 21.2037 11.3192 21.2037 12.5792C21.2037 13.8592 20.1837 14.8892 18.9237 14.8892ZM6.2637 21.2292C4.9937 21.2292 3.9737 20.2092 3.9737 18.9392C3.9737 17.6592 4.9937 16.6492 6.2637 16.6492C7.5037 16.6492 8.5437 17.6592 8.5437 18.9392C8.5437 20.2092 7.5037 21.2292 6.2637 21.2292ZM18.9337 21.2292C17.6637 21.2292 16.6537 20.2092 16.6537 18.9392C16.6537 17.6592 17.6637 16.6492 18.9337 16.6492C20.1837 16.6492 21.2037 17.6592 21.2037 18.9392C21.2037 20.2092 20.1837 21.2292 18.9337 21.2292Z" /></svg>