
<svg
    viewBox={0 0 31.841796875 27.64453125}
    xmlns="http://www.w3.org/2000/svg"
>
    <path
        fill="inherit"
        d="M0.0037 13.8234C0.0037 22.4234 2.4037 27.6434 8.1237 27.6434H13.5737C16.5537 27.6434 18.8037 24.5034 19.7237 19.4234L17.8037 17.7034C17.2637 22.4534 15.6937 25.4434 13.5737 25.4434C10.9237 25.4434 9.1237 20.7834 9.1237 13.8234C9.1237 6.8534 10.9237 2.2034 13.5737 2.2034C15.6937 2.2034 17.2637 5.1834 17.8037 9.9434L19.7137 8.2034C18.8037 3.1334 16.5537 0.0034 13.5737 0.0034H8.1237C2.4037 0.0034 0.0037 5.2134 0.0037 13.8234ZM6.4937 23.2834H8.4937C8.8437 24.1034 9.2537 24.8234 9.7037 25.4434H8.1237C3.7737 25.4434 2.2037 21.0534 2.2037 13.8234C2.2037 6.5934 3.7737 2.2034 8.1237 2.2034H9.7037C9.3137 2.7234 8.9537 3.3334 8.6437 4.0334H6.4937C6.0037 4.0334 5.6037 4.4434 5.6037 4.9334C5.6037 5.4234 6.0037 5.8234 6.4937 5.8234H7.9737C7.7337 6.5634 7.5437 7.3734 7.3837 8.2334H5.5637C5.0737 8.2334 4.6737 8.6234 4.6737 9.1234C4.6737 9.6134 5.0737 10.0234 5.5637 10.0234H7.1237C7.0237 10.8834 6.9637 11.8034 6.9337 12.7534H5.2237C4.7337 12.7534 4.3237 13.1634 4.3237 13.6534C4.3237 14.1534 4.7337 14.5434 5.2237 14.5434H6.9337C6.9437 15.5034 7.0037 16.4234 7.0837 17.2934H5.5637C5.0737 17.2934 4.6737 17.7034 4.6737 18.1934C4.6737 18.6934 5.0737 19.0834 5.5637 19.0834H7.3237C7.4737 19.9434 7.6537 20.7434 7.8637 21.4934H6.4937C6.0037 21.4934 5.6037 21.8934 5.6037 22.3834C5.6037 22.8734 6.0037 23.2834 6.4937 23.2834ZM17.1737 14.6534L21.3137 18.3234C22.1037 19.0434 23.2837 18.6334 23.2837 17.4734V14.9934H30.6637C31.3337 14.9934 31.8437 14.4834 31.8437 13.8334C31.8437 13.1634 31.3337 12.6634 30.6637 12.6634H23.2837V10.1534C23.2837 9.0334 22.1437 8.5634 21.3137 9.2934L17.1737 12.9734C16.6137 13.4634 16.5937 14.1534 17.1737 14.6534Z"
        fillRule="evenodd"
        clipRule="evenodd"
    />
</svg>
        