
<svg
    viewBox="0 0 31.841796875 27.64453125"
    xmlns="http://www.w3.org/2000/svg"
>
    <path
        fill="inherit"
        d="M0.0037 13.8234C0.0037 22.4234 2.4037 27.6434 8.1237 27.6434H9.6837C8.5137 26.6334 7.5637 25.1534 6.8637 23.2834H5.0137C4.5237 23.2834 4.1137 22.8734 4.1137 22.3834C4.1137 21.8934 4.5237 21.4934 5.0137 21.4934H6.2937C6.0837 20.7034 5.9037 19.8534 5.7837 19.0834H4.0837C3.5937 19.0834 3.2037 18.6934 3.2037 18.1934C3.2037 17.7034 3.5937 17.2934 4.0837 17.2934H5.5637C5.4737 16.4034 5.4137 15.3934 5.4037 14.5434H3.7437C3.2537 14.5434 2.8437 14.1534 2.8437 13.6534C2.8437 13.1634 3.2537 12.7534 3.7437 12.7534H5.4137C5.4237 11.8534 5.4837 10.9134 5.5937 10.0234H4.0837C3.5937 10.0234 3.2037 9.6134 3.2037 9.1234C3.2037 8.6234 3.5937 8.2334 4.0837 8.2334H5.8337C5.9837 7.3834 6.1537 6.5934 6.3837 5.8234H5.0137C4.5237 5.8234 4.1137 5.4234 4.1137 4.9334C4.1137 4.4434 4.5237 4.0334 5.0137 4.0334H6.9837C7.6737 2.3134 8.5837 0.9434 9.6837 0.0034H8.1237C2.4037 0.0034 0.0037 5.2134 0.0037 13.8234ZM15.9437 11.5834L19.4137 8.4734C18.5537 3.4434 16.3937 0.3434 13.5737 0.3434C9.8337 0.3434 7.2737 5.7434 7.2737 13.8234C7.2737 21.9034 9.8337 27.2934 13.5737 27.2934C16.3937 27.2934 18.5537 24.1834 19.4137 19.1634L15.9437 16.0534C14.5337 14.8234 14.5337 12.8234 15.9437 11.5834ZM17.1737 14.6534L21.3137 18.3234C22.1037 19.0434 23.2837 18.6334 23.2837 17.4734V14.9934H30.6637C31.3337 14.9934 31.8437 14.4834 31.8437 13.8334C31.8437 13.1634 31.3337 12.6634 30.6637 12.6634H23.2837V10.1534C23.2837 9.0334 22.1437 8.5634 21.3137 9.2934L17.1737 12.9734C16.6137 13.4634 16.5937 14.1534 17.1737 14.6534Z"
        fillRule="evenodd"
        clipRule="evenodd"
    />
</svg>
        