
<svg
    viewBox="0 0 30.664885904113152 27.64453125"
    xmlns="http://www.w3.org/2000/svg"
>
    <path
        fill="inherit"
        d="M10.4425 13.8234C10.4425 22.4234 12.8325 27.6434 18.5625 27.6434H24.0025C28.0025 27.6434 30.6625 22.1034 30.6625 13.8234C30.6625 5.5234 28.0025 0.0034 24.0025 0.0034H18.5625C12.8325 0.0034 10.4425 5.2134 10.4425 13.8234ZM16.0125 19.0834H17.7725C17.9125 19.9434 18.0825 20.7434 18.3025 21.4934H16.9425C16.4425 21.4934 16.0325 21.8934 16.0325 22.3834C16.0325 22.8734 16.4425 23.2834 16.9425 23.2834H18.9325C19.2925 24.1034 19.6825 24.8234 20.1425 25.4434H18.5625C14.2225 25.4434 12.6425 21.0534 12.6425 13.8234C12.6425 6.5934 14.2225 2.2034 18.5625 2.2034H20.1425C19.7525 2.7234 19.4025 3.3334 19.0825 4.0334H16.9425C16.4425 4.0334 16.0325 4.4434 16.0325 4.9334C16.0325 5.4234 16.4425 5.8234 16.9425 5.8234H18.4025C18.1825 6.5634 17.9725 7.3734 17.8225 8.2334H16.0125C15.5125 8.2334 15.1025 8.6234 15.1025 9.1234C15.1025 9.6134 15.5125 10.0234 16.0125 10.0234H17.5625C17.4725 10.8834 17.4025 11.8034 17.3725 12.7534H15.6525C15.1625 12.7534 14.7625 13.1634 14.7625 13.6534C14.7625 14.1534 15.1625 14.5434 15.6525 14.5434H17.3625C17.3925 15.5034 17.4425 16.4234 17.5225 17.2934H16.0125C15.5125 17.2934 15.1025 17.7034 15.1025 18.1934C15.1025 18.6934 15.5125 19.0834 16.0125 19.0834ZM19.5625 13.8234C19.5625 6.8534 21.3525 2.2034 24.0025 2.2034C26.6625 2.2034 28.4625 6.8534 28.4625 13.8234C28.4625 20.7834 26.6625 25.4434 24.0025 25.4434C21.3525 25.4434 19.5625 20.7834 19.5625 13.8234ZM0.6525 20.0834C-0.1775 20.4034 -0.1975 21.4634 0.4725 21.8734L4.7825 24.5434C5.3725 24.8934 6.0325 24.6534 6.2325 24.0034L7.8325 19.2334C8.0825 18.4934 7.4225 17.6234 6.5325 17.9534L4.5225 18.6734C4.0325 16.6634 3.7625 14.5034 3.7625 12.2734C3.7625 9.3334 4.2225 6.5034 5.0725 4.0034C5.3725 3.1734 4.7525 2.6434 4.1325 2.6434C3.7225 2.6434 3.2825 2.8334 3.1125 3.3234C2.2125 6.0434 1.6925 9.1034 1.6925 12.2734C1.6925 14.7334 2.0125 17.1534 2.5725 19.3834Z"
        fillRule="evenodd"
        clipRule="evenodd"
    />
</svg>
        