
<svg
    viewBox="0 0 27.64453125 30.658749953473052"
    xmlns="http://www.w3.org/2000/svg"
>
    <path
        fill="inherit"
        d="M13.8237 20.2209C22.4237 20.2209 27.6437 17.8309 27.6437 12.1009V6.6609C27.6437 2.6709 22.1037 0.0009 13.8237 0.0009C5.5237 0.0009 0.0037 2.6709 0.0037 6.6609V12.1009C0.0037 17.8309 5.2137 20.2209 13.8237 20.2209ZM13.8237 11.1009C6.8537 11.1009 2.2037 9.3109 2.2037 6.6609C2.2037 4.0009 6.8537 2.2009 13.8237 2.2009C20.7937 2.2009 25.4437 4.0009 25.4437 6.6609C25.4437 9.3109 20.7937 11.1009 13.8237 11.1009ZM5.8237 13.7309V12.2609C6.5637 12.5009 7.3737 12.6909 8.2337 12.8409V14.6609C8.2337 15.1509 8.6237 15.5609 9.1237 15.5609C9.6137 15.5609 10.0237 15.1509 10.0237 14.6609V13.1009C10.8837 13.2109 11.8037 13.2609 12.7537 13.2909V15.0109C12.7537 15.5009 13.1637 15.9009 13.6537 15.9009C14.1537 15.9009 14.5437 15.5009 14.5437 15.0109V13.3009C15.5037 13.2709 16.4237 13.2209 17.2937 13.1409V14.6609C17.2937 15.1509 17.7037 15.5609 18.1937 15.5609C18.6937 15.5609 19.0837 15.1509 19.0837 14.6609V12.8909C19.9437 12.7509 20.7437 12.5809 21.4937 12.3609V13.7309C21.4937 14.2209 21.8937 14.6309 22.3837 14.6309C22.8737 14.6309 23.2837 14.2209 23.2837 13.7309V11.7309C24.1037 11.3709 24.8237 10.9809 25.4437 10.5309V12.1009C25.4437 16.4509 21.0537 18.0209 13.8237 18.0209C6.5937 18.0209 2.2037 16.4509 2.2037 12.1009V10.5309C2.7337 10.9109 3.3337 11.2609 4.0337 11.5909V13.7309C4.0337 14.2209 4.4437 14.6309 4.9337 14.6309C5.4237 14.6309 5.8237 14.2209 5.8237 13.7309ZM2.6437 26.5409C2.6437 26.9509 2.8337 27.3809 3.3337 27.5509C6.0437 28.4509 9.1037 28.9709 12.2737 28.9709C14.7337 28.9709 17.1437 28.6709 19.3737 28.0909L20.0437 30.0009C20.3437 30.8309 21.4137 30.8609 21.8337 30.1909L24.5537 25.9209C24.9137 25.3309 24.6737 24.6909 24.0337 24.4609L19.2737 22.8009C18.5437 22.5409 17.6637 23.2009 17.9737 24.0909L18.6937 26.1409C16.6837 26.6309 14.5037 26.9109 12.2737 26.9109C9.3337 26.9109 6.5037 26.4409 4.0037 25.5909C3.1737 25.2909 2.6437 25.9109 2.6437 26.5409Z"
        fillRule="evenodd"
        clipRule="evenodd"
    />
</svg>
        