<svg viewBox="0 0 27.64453125 31.841796875" xmlns="http://www.w3.org/2000/svg"><path d="M14.6537 14.6579L18.3237 10.5279C19.0437 9.7179 18.6337 8.5579 17.4737 8.5579H14.9937V1.1579C14.9937 0.5079 14.4737 -0.0021 13.8337 -0.0021C13.1637 -0.0021 12.6637 0.5079 12.6637 1.1579V8.5579H10.1537C9.0337 8.5579 8.5537 9.6779 9.2937 10.5279L12.9737 14.6579C13.4637 15.2279 14.1537 15.2279 14.6537 14.6579ZM11.5837 15.8979L8.4737 12.4179C3.4437 13.2879 0.3537 15.4379 0.3537 18.2679C0.3537 22.0079 5.7437 24.5679 13.8237 24.5679C21.9037 24.5679 27.2937 22.0079 27.2937 18.2679C27.2937 15.4379 24.1837 13.2879 19.1637 12.4179L16.0537 15.8979C14.8237 17.3079 12.8237 17.3079 11.5837 15.8979ZM13.8237 31.8379C22.4237 31.8379 27.6437 29.4379 27.6437 23.7179V22.1579C26.6337 23.3279 25.1537 24.2679 23.2837 24.9679V26.8279C23.2837 27.3179 22.8737 27.7179 22.3837 27.7179C21.8937 27.7179 21.4937 27.3179 21.4937 26.8279V25.5479C20.7037 25.7579 19.8537 25.9179 19.0837 26.0479V27.7579C19.0837 28.2479 18.6937 28.6379 18.1937 28.6379C17.7037 28.6379 17.2937 28.2479 17.2937 27.7579V26.2779C16.4037 26.3579 15.3937 26.4279 14.5437 26.4379V28.0979C14.5437 28.5879 14.1537 28.9979 13.6537 28.9979C13.1637 28.9979 12.7537 28.5879 12.7537 28.0979V26.4279C11.8537 26.4179 10.9137 26.3479 10.0237 26.2479V27.7579C10.0237 28.2479 9.6137 28.6379 9.1237 28.6379C8.6237 28.6379 8.2337 28.2479 8.2337 27.7579V25.9879C7.3837 25.8579 6.5937 25.6779 5.8237 25.4579V26.8279C5.8237 27.3179 5.4237 27.7179 4.9337 27.7179C4.4437 27.7179 4.0337 27.3179 4.0337 26.8279V24.8379C2.3137 24.1579 0.9437 23.2579 0.0037 22.1579V23.7179C0.0037 29.4379 5.2137 31.8379 13.8237 31.8379Z" /></svg>