
<svg
    viewBox="0 0 27.64453125 30.3054076527497"
    xmlns="http://www.w3.org/2000/svg"
>
    <path
        fill="inherit"
        d="M13.8237 12.6032C21.9037 12.6032 27.2937 10.0532 27.2937 6.3032C27.2937 2.5532 21.9037 0.0032 13.8237 0.0032C5.7437 0.0032 0.3537 2.5532 0.3537 6.3032C0.3537 10.0532 5.7437 12.6032 13.8237 12.6032ZM13.8237 19.8832C22.4237 19.8832 27.6437 17.4732 27.6437 11.7532V10.2032C26.6337 11.3632 25.1537 12.3032 23.2837 13.0032V14.8632C23.2837 15.3532 22.8737 15.7532 22.3837 15.7532C21.8937 15.7532 21.4937 15.3532 21.4937 14.8632V13.5932C20.7037 13.7932 19.8537 13.9632 19.0837 14.0832V15.7932C19.0837 16.2832 18.6937 16.6832 18.1937 16.6832C17.7037 16.6832 17.2937 16.2832 17.2937 15.7932V14.3132C16.4037 14.3932 15.3937 14.4632 14.5437 14.4832V16.1332C14.5437 16.6232 14.1537 17.0332 13.6537 17.0332C13.1637 17.0332 12.7537 16.6232 12.7537 16.1332V14.4632C11.8537 14.4532 10.9137 14.3832 10.0237 14.2832V15.7932C10.0237 16.2832 9.6137 16.6832 9.1237 16.6832C8.6237 16.6832 8.2337 16.2832 8.2337 15.7932V14.0232C7.3837 13.8932 6.5937 13.7132 5.8237 13.4932V14.8632C5.8237 15.3532 5.4237 15.7532 4.9337 15.7532C4.4437 15.7532 4.0337 15.3532 4.0337 14.8632V12.8832C2.3137 12.1932 0.9437 11.2932 0.0037 10.2032V11.7532C0.0037 17.4732 5.2137 19.8832 13.8237 19.8832ZM2.5737 26.0732C2.5737 26.4832 2.7637 26.9032 3.2437 27.0732C6.0337 28.0832 9.0237 28.6132 12.2737 28.6132C14.8037 28.6132 17.1837 28.3032 19.4437 27.6732L20.1237 29.6432C20.4237 30.4732 21.4937 30.5032 21.9137 29.8432L24.6237 25.5632C24.9937 24.9832 24.7637 24.3332 24.1137 24.1132L19.3637 22.4532C18.6237 22.2032 17.7437 22.8432 18.0637 23.7432L18.7537 25.7132C16.7237 26.2732 14.5737 26.5532 12.2737 26.5532C9.2537 26.5532 6.5037 26.0732 3.9337 25.1332C3.1037 24.8132 2.5737 25.4432 2.5737 26.0732Z"
        fillRule="evenodd"
        clipRule="evenodd"
    />
</svg>
        