
<svg
    viewBox={0 0 27.890625 27.890625}
    xmlns="http://www.w3.org/2000/svg"
>
    <path
        fill="inherit"
        d="M13.9427 27.8927C21.6427 27.8927 27.8927 21.6427 27.8927 13.9427C27.8927 6.2627 21.6427 0.0027 13.9427 0.0027C6.2627 0.0027 0.0027 6.2627 0.0027 13.9427C0.0027 21.6427 6.2627 27.8927 13.9427 27.8927ZM18.5627 6.2027C19.5927 6.2027 20.2627 6.9027 20.2627 7.9527V9.9427H7.5227V7.9527C7.5227 6.9027 8.1927 6.2027 9.2127 6.2027ZM12.1127 9.0627C12.4827 9.0627 12.7827 8.7627 12.7827 8.4127C12.7827 8.0227 12.4827 7.7127 12.1127 7.7127C11.7327 7.7127 11.4527 8.0227 11.4527 8.4127C11.4527 8.7627 11.7327 9.0627 12.1127 9.0627ZM9.6527 8.5627C9.7327 8.8327 10.0327 8.9927 10.3227 8.9127C10.6127 8.8327 10.7627 8.5127 10.6827 8.2427C10.5927 7.9427 10.3127 7.7927 10.0227 7.8727C9.7327 7.9527 9.5727 8.2627 9.6527 8.5627ZM7.5227 18.7127V10.9527H20.2627V18.7127ZM12.1127 13.1427H15.6927C15.9427 13.1427 16.0927 12.9627 16.0927 12.7327C16.0927 12.4827 15.9427 12.3227 15.6927 12.3227H12.1127C11.8627 12.3227 11.7127 12.4827 11.7127 12.7327C11.7127 12.9627 11.8627 13.1427 12.1127 13.1427ZM20.2627 19.7327V19.8827C20.2627 20.9327 19.5927 21.6427 18.5627 21.6427H9.2127C8.1927 21.6427 7.5227 20.9327 7.5227 19.8827V19.7327Z"
        fillRule="evenodd"
        clipRule="evenodd"
    />
</svg>
        