
<svg
    viewBox="0 0 25.935546875 29.88671875"
    xmlns="http://www.w3.org/2000/svg"
>
    <path
        fill="inherit"
        d="M0.0037 6.8596H23.7237V3.2696C23.7237 1.3096 22.4537 -0.0004 20.5637 -0.0004H3.1737C1.2737 -0.0004 0.0037 1.3096 0.0037 3.2696ZM4.9537 5.3496C4.2637 5.3496 3.7037 4.7696 3.7037 4.0996C3.7037 3.3996 4.2637 2.8396 4.9537 2.8396C5.6337 2.8396 6.1837 3.3996 6.1837 4.0996C6.1837 4.7696 5.6337 5.3496 4.9537 5.3496ZM8.5437 5.3496C7.8637 5.3496 7.3137 4.7696 7.3137 4.0996C7.3137 3.3996 7.8637 2.8396 8.5437 2.8396C9.2237 2.8396 9.7737 3.3996 9.7737 4.0996C9.7737 4.7696 9.2237 5.3496 8.5437 5.3496ZM0.0037 23.4096H7.1737C7.1637 23.1996 7.1537 23.0196 7.1537 22.8196C7.1537 18.0196 11.0037 14.1596 15.8137 14.1596C16.2737 14.1596 16.7237 14.1896 17.1437 14.2596C17.6737 14.1896 18.2537 14.1596 18.8637 14.1596C20.6737 14.1596 22.3437 14.7096 23.7237 15.6396V8.7196H0.0037ZM8.5337 12.0896C8.1037 12.0896 7.8237 11.7896 7.8237 11.3596C7.8237 10.9396 8.1037 10.6496 8.5337 10.6496H15.2037C15.6237 10.6496 15.9037 10.9396 15.9037 11.3596C15.9037 11.7896 15.6237 12.0896 15.2037 12.0896ZM15.8137 29.8896C16.3537 29.8896 16.8537 29.8296 17.3637 29.7196C17.8437 29.8296 18.3437 29.8896 18.8637 29.8896C22.7737 29.8896 25.9337 26.7396 25.9337 22.8196C25.9337 18.8896 22.7737 15.7496 18.8637 15.7496C18.3437 15.7496 17.8437 15.8096 17.3537 15.9096C16.8537 15.8096 16.3337 15.7496 15.8137 15.7496C11.8937 15.7496 8.7337 18.8896 8.7337 22.8196C8.7337 26.7396 11.8937 29.8896 15.8137 29.8896ZM15.8137 28.3696C12.6337 28.3696 10.2537 25.9896 10.2537 22.8196C10.2537 19.6496 12.6337 17.2696 15.8137 17.2696C18.9737 17.2696 21.3537 19.6496 21.3537 22.8196C21.3537 25.9896 18.9737 28.3696 15.8137 28.3696ZM22.8737 22.8196C22.8737 20.6896 21.9437 18.7696 20.4537 17.4896C22.7937 18.1296 24.4137 20.2096 24.4137 22.8196C24.4137 25.4396 22.7937 27.5196 20.4537 28.1596C21.9437 26.8696 22.8737 24.9496 22.8737 22.8196ZM15.8137 26.9296C18.0737 26.9296 19.9237 25.0896 19.9237 22.8196C19.9237 20.5496 18.0737 18.7196 15.8137 18.7196C13.5337 18.7196 11.7037 20.5496 11.7037 22.8196C11.7037 25.0896 13.5337 26.9296 15.8137 26.9296ZM15.8137 25.6896C14.1337 25.6896 12.9437 24.4896 12.9437 22.8196C12.9437 21.1496 14.1337 19.9596 15.8137 19.9596C17.4837 19.9596 18.6737 21.1496 18.6737 22.8196C18.6737 24.4996 17.4737 25.6896 15.8137 25.6896ZM3.1737 28.7096H9.4637C8.5537 27.7496 7.8737 26.5796 7.4937 25.2696H0.0037V25.4596C0.0037 27.4096 1.2737 28.7096 3.1737 28.7096Z"
        fillRule="evenodd"
        clipRule="evenodd"
    />
</svg>
        