
<svg
    viewBox="0 0 25.935546875 29.88671875"
    xmlns="http://www.w3.org/2000/svg"
>
    <path
        fill="inherit"
        d="M3.1737 28.7096H10.5437C9.9837 28.0696 9.5437 27.3196 9.2437 26.5096H3.2637C2.6437 26.5096 2.2037 26.0896 2.2037 25.4296V24.9196H8.7137C8.5837 24.2696 8.5737 23.7496 8.6137 23.1296H2.2037V8.9296H21.5237V15.6296C22.3137 15.8096 23.0337 16.1096 23.7237 16.5196V3.2696C23.7237 1.3096 22.4537 -0.0004 20.5637 -0.0004H3.1737C1.2737 -0.0004 0.0037 1.3096 0.0037 3.2696V25.4596C0.0037 27.4096 1.2737 28.7096 3.1737 28.7096ZM2.2037 3.2996C2.2037 2.6396 2.6437 2.1996 3.2637 2.1996H20.4537C21.0937 2.1996 21.5237 2.6396 21.5237 3.2996V7.1396H2.2037ZM5.1537 5.8796C5.8237 5.8796 6.3537 5.3296 6.3537 4.6596C6.3537 4.0096 5.8237 3.4596 5.1537 3.4596C4.4937 3.4596 3.9537 4.0096 3.9537 4.6596C3.9537 5.3296 4.4937 5.8796 5.1537 5.8796ZM8.6437 5.8796C9.3137 5.8796 9.8437 5.3296 9.8437 4.6596C9.8437 4.0096 9.3137 3.4596 8.6437 3.4596C7.9837 3.4596 7.4537 4.0096 7.4537 4.6596C7.4537 5.3296 7.9837 5.8796 8.6437 5.8796ZM8.6437 11.9496H15.0937C15.5037 11.9496 15.7737 11.6596 15.7737 11.2496C15.7737 10.8396 15.5037 10.5696 15.0937 10.5696H8.6437C8.2337 10.5696 7.9437 10.8396 7.9437 11.2496C7.9437 11.6596 8.2337 11.9496 8.6437 11.9496ZM16.6437 29.8896C17.1137 29.8896 17.5937 29.8296 18.0437 29.7396C18.4937 29.8496 18.9637 29.8896 19.4437 29.8896C23.0337 29.8896 25.9337 26.9996 25.9337 23.3896C25.9337 19.7696 23.0337 16.8896 19.4437 16.8896C18.9637 16.8896 18.4937 16.9396 18.0437 17.0396C17.5937 16.9396 17.1137 16.8896 16.6437 16.8896C13.0337 16.8896 10.1337 19.7696 10.1337 23.3896C10.1337 26.9996 13.0337 29.8896 16.6437 29.8896ZM16.6437 28.5096C13.7037 28.5096 11.5137 26.3096 11.5137 23.3896C11.5137 20.4696 13.7037 18.2696 16.6437 18.2696C19.5537 18.2696 21.7537 20.4696 21.7537 23.3896C21.7537 26.3096 19.5537 28.5096 16.6437 28.5096ZM23.1337 23.3896C23.1337 21.4096 22.2537 19.6496 20.8937 18.4596C23.0537 19.0496 24.5537 20.9696 24.5537 23.3896C24.5537 25.7996 23.0537 27.7296 20.8737 28.3096C22.2537 27.1296 23.1337 25.3596 23.1337 23.3896ZM16.6437 27.4796C18.8837 27.4796 20.7237 25.6496 20.7237 23.3896C20.7237 21.1396 18.8837 19.3096 16.6437 19.3096C14.3737 19.3096 12.5337 21.1396 12.5337 23.3896C12.5337 25.6496 14.3737 27.4796 16.6437 27.4796ZM16.6437 26.2396C14.9737 26.2396 13.7837 25.0496 13.7837 23.3896C13.7837 21.7196 14.9737 20.5496 16.6437 20.5496C18.3037 20.5496 19.4837 21.7196 19.4837 23.3896C19.4837 25.0596 18.2937 26.2396 16.6437 26.2396Z"
        fillRule="evenodd"
        clipRule="evenodd"
    />
</svg>
        