
<svg
    viewBox="0 0 27.890625 27.890625"
    xmlns="http://www.w3.org/2000/svg"
>
    <path
        fill="inherit"
        d="M13.9427 27.8864C21.6427 27.8864 27.8927 21.6464 27.8927 13.9464C27.8927 6.2464 21.6427 -0.0036 13.9427 -0.0036C6.2527 -0.0036 0.0027 6.2464 0.0027 13.9464C0.0027 21.6464 6.2527 27.8864 13.9427 27.8864ZM13.9427 25.5664C7.5227 25.5664 2.3227 20.3664 2.3227 13.9464C2.3227 7.5164 7.5227 2.3264 13.9427 2.3264C20.3727 2.3264 25.5627 7.5164 25.5627 13.9464C25.5627 20.3664 20.3727 25.5664 13.9427 25.5664ZM18.4327 6.4264H9.3527C8.3627 6.4264 7.7127 7.1064 7.7127 8.1364V10.0664H20.0727V8.1364C20.0727 7.1064 19.4127 6.4264 18.4327 6.4264ZM12.1727 9.2164C11.8027 9.2164 11.5227 8.9164 11.5227 8.5564C11.5227 8.1864 11.8027 7.9064 12.1727 7.9064C12.5227 7.9064 12.8127 8.1864 12.8127 8.5564C12.8127 8.9164 12.5227 9.2164 12.1727 9.2164ZM9.7927 8.7264C9.7027 8.4364 9.8527 8.1464 10.1327 8.0564C10.4027 7.9664 10.6927 8.1164 10.7727 8.4064C10.8527 8.6664 10.7027 8.9664 10.4327 9.0464C10.1627 9.1464 9.8727 8.9864 9.7927 8.7264ZM7.7127 18.5764H20.0727V11.0364H7.7127ZM12.1727 13.1564C11.9327 13.1564 11.7827 12.9864 11.7827 12.7564C11.7827 12.5264 11.9327 12.3564 12.1727 12.3564H15.6427C15.8727 12.3564 16.0227 12.5264 16.0227 12.7564C16.0227 12.9864 15.8727 13.1564 15.6427 13.1564ZM20.0727 19.5464H7.7127V19.6964C7.7127 20.7264 8.3627 21.3964 9.3527 21.3964H18.4327C19.4127 21.3964 20.0727 20.7264 20.0727 19.6964Z"
        fillRule="evenodd"
        clipRule="evenodd"
    />
</svg>
        