<svg viewBox="0 0 44.009765625 27.548828125" xmlns="http://www.w3.org/2000/svg"><path d="M3.1437 22.7002H11.9737V25.3302H11.8937C11.2937 25.3302 10.7837 25.8302 10.7837 26.4402C10.7837 27.0602 11.2937 27.5502 11.8937 27.5502H20.7037C21.3037 27.5502 21.7937 27.0602 21.7937 26.4402C21.7937 25.8302 21.3037 25.3302 20.7037 25.3302H20.6137V23.7802C21.0437 23.9102 21.5437 23.9702 22.1037 23.9702H27.6837V25.3302H27.6037C27.0037 25.3302 26.4937 25.8302 26.4937 26.4402C26.4937 27.0602 27.0037 27.5502 27.6037 27.5502H35.0037C35.6137 27.5502 36.1037 27.0602 36.1037 26.4402C36.1037 25.8302 35.6137 25.3302 35.0037 25.3302H34.9337V23.9702H40.5137C42.8437 23.9702 44.0137 22.8602 44.0137 20.4702V10.0202C44.0137 7.6302 42.8437 6.5102 40.5137 6.5102H32.5937V3.1402C32.5937 1.1802 31.4037 0.0002 29.4337 0.0002H3.1437C1.1937 0.0002 0.0037 1.1802 0.0037 3.1402V19.5402C0.0037 21.5102 1.1937 22.7002 3.1437 22.7002ZM18.5937 20.4702V20.4902H3.1837C2.5837 20.4902 2.2037 20.1102 2.2037 19.5102V3.1902C2.2037 2.5702 2.5837 2.2002 3.1837 2.2002H29.4037C30.0137 2.2002 30.3937 2.5702 30.3937 3.1902V6.5102H22.1037C19.7737 6.5102 18.5937 7.6302 18.5937 10.0202ZM20.7937 20.4302V10.0602C20.7937 9.0902 21.2037 8.7102 22.1437 8.7102H40.4737C41.3937 8.7102 41.8037 9.0902 41.8037 10.0602V20.4302C41.8037 21.3802 41.3937 21.7702 40.4737 21.7702H22.1437C21.2037 21.7702 20.7937 21.3802 20.7937 20.4302Z" /></svg>