
<svg
    viewBox={0 0 35.02734375 31.69140625}
    xmlns="http://www.w3.org/2000/svg"
>
    <path
        fill="inherit"
        d="M0.9937 31.6868C1.5437 31.6868 2.0137 31.2768 2.0137 30.7468V0.9468C2.0137 0.4068 1.5437 -0.0032 0.9937 -0.0032C0.4637 -0.0032 0.0037 0.4068 0.0037 0.9468V30.7468C0.0037 31.2768 0.4637 31.6868 0.9937 31.6868ZM20.8637 31.6868C21.3937 31.6868 21.8637 31.2768 21.8637 30.7468V0.9468C21.8637 0.4068 21.3937 -0.0032 20.8637 -0.0032C20.3337 -0.0032 19.8537 0.4068 19.8537 0.9468V30.7468C19.8537 31.2768 20.3337 31.6868 20.8637 31.6868ZM7.3237 28.9868H12.0837C14.0837 28.9868 15.1637 27.8768 15.1637 25.8368V5.8468C15.1637 3.8168 14.0837 2.7168 12.0837 2.7168H7.3237C5.3437 2.7168 4.2537 3.8168 4.2537 5.8468V25.8368C4.2537 27.8768 5.3437 28.9868 7.3237 28.9868ZM27.1937 24.1268H31.9537C33.9437 24.1268 35.0237 23.0368 35.0237 20.9968V10.6868C35.0237 8.6568 33.9437 7.5568 31.9537 7.5568H27.1937C25.1937 7.5568 24.1137 8.6568 24.1137 10.6868V20.9968C24.1137 23.0368 25.1937 24.1268 27.1937 24.1268Z"
        fillRule="evenodd"
        clipRule="evenodd"
    />
</svg>
        