<svg viewBox="0 0 32.73046875 32.59375" xmlns="http://www.w3.org/2000/svg"><path d="M11.2137 9.968H21.5237C23.5537 9.968 24.6537 8.888 24.6537 6.888V3.078C24.6537 1.078 23.5537 -0.002 21.5237 -0.002H11.2137C9.1737 -0.002 8.0837 1.078 8.0837 3.078V6.888C8.0837 8.888 9.1737 9.968 11.2137 9.968ZM11.2337 7.898C10.5437 7.898 10.1437 7.508 10.1437 6.768V3.198C10.1437 2.458 10.5437 2.068 11.2337 2.068H21.4937C22.1937 2.068 22.5837 2.458 22.5837 3.198V6.768C22.5837 7.508 22.1937 7.898 21.4937 7.898ZM0.9537 14.218H31.7737C32.3037 14.218 32.7337 13.758 32.7337 13.218C32.7337 12.688 32.3037 12.208 31.7737 12.208H0.9537C0.4137 12.208 0.0037 12.688 0.0037 13.218C0.0037 13.758 0.4137 14.218 0.9537 14.218ZM6.3737 28.338H26.3637C28.3937 28.338 29.4937 27.248 29.4937 25.248V21.438C29.4937 19.458 28.3937 18.358 26.3637 18.358H6.3737C4.3337 18.358 3.2437 19.458 3.2437 21.438V25.248C3.2437 27.248 4.3337 28.338 6.3737 28.338ZM6.3937 26.278C5.7037 26.278 5.3037 25.868 5.3037 25.138V21.558C5.3037 20.838 5.7037 20.428 6.3937 20.428H26.3337C27.0337 20.428 27.4237 20.838 27.4237 21.558V25.138C27.4237 25.868 27.0337 26.278 26.3337 26.278ZM0.9537 32.598H31.7737C32.3037 32.598 32.7337 32.118 32.7337 31.578C32.7337 31.048 32.3037 30.588 31.7737 30.588H0.9537C0.4137 30.588 0.0037 31.048 0.0037 31.578C0.0037 32.118 0.4137 32.598 0.9537 32.598Z" /></svg>