
<svg
    viewBox={0 0 27.712890625 31.69140625}
    xmlns="http://www.w3.org/2000/svg"
>
    <path
        fill="inherit"
        d="M3.0737 28.1868H4.4537V30.7468C4.4537 31.2768 4.9337 31.6868 5.4737 31.6868C6.0037 31.6868 6.4637 31.2768 6.4637 30.7468V28.1868H7.8337C9.8337 28.1868 10.9137 27.0868 10.9137 25.0468V6.6468C10.9137 4.6068 9.8337 3.5168 7.8337 3.5168H6.4637V0.9468C6.4637 0.4068 6.0037 -0.0032 5.4737 -0.0032C4.9337 -0.0032 4.4537 0.4068 4.4537 0.9468V3.5168H3.0737C1.0837 3.5168 0.0037 4.6068 0.0037 6.6468V25.0468C0.0037 27.0868 1.0837 28.1868 3.0737 28.1868ZM19.8837 24.1268H21.2637V30.7468C21.2637 31.2768 21.7237 31.6868 22.2537 31.6868C22.7937 31.6868 23.2737 31.2768 23.2737 30.7468V24.1268H24.6337C26.6337 24.1268 27.7137 23.0368 27.7137 20.9968V10.6868C27.7137 8.6568 26.6337 7.5568 24.6337 7.5568H23.2737V0.9468C23.2737 0.4068 22.7937 -0.0032 22.2537 -0.0032C21.7237 -0.0032 21.2637 0.4068 21.2637 0.9468V7.5568H19.8837C17.8837 7.5568 16.8037 8.6568 16.8037 10.6868V20.9968C16.8037 23.0368 17.8837 24.1268 19.8837 24.1268Z"
        fillRule="evenodd"
        clipRule="evenodd"
    />
</svg>
        