
<svg
    viewBox="0 0 33.25 28.73828125"
    xmlns="http://www.w3.org/2000/svg"
>
    <path
        fill="inherit"
        d="M0.9537 6.4002H8.3937V7.7102C8.3937 9.7102 9.4837 10.7902 11.5237 10.7902H21.7237C23.7637 10.7902 24.8537 9.7102 24.8537 7.7102V6.4002H31.7737C32.3037 6.4002 32.7337 5.9302 32.7337 5.4002C32.7337 4.8702 32.3037 4.3902 31.7737 4.3902H24.8537V3.0802C24.8537 1.0802 23.7637 0.0002 21.7237 0.0002H11.5237C9.4837 0.0002 8.3937 1.0802 8.3937 3.0802V4.3902H0.9537C0.4137 4.3902 0.0037 4.8702 0.0037 5.4002C0.0037 5.9302 0.4137 6.4002 0.9537 6.4002ZM0.9537 24.3502H3.5537V25.6602C3.5537 27.6402 4.6437 28.7402 6.6837 28.7402H26.5637C28.6037 28.7402 29.6937 27.6402 29.6937 25.6602V24.3502H32.2937C32.8237 24.3502 33.2537 23.8702 33.2537 23.3402C33.2537 22.8002 32.8237 22.3402 32.2937 22.3402H29.6937V21.0302C29.6937 19.0302 28.6037 17.9402 26.5637 17.9402H6.6837C4.6437 17.9402 3.5537 19.0302 3.5537 21.0302V22.3402H0.9537C0.4137 22.3402 0.0037 22.8002 0.0037 23.3402C0.0037 23.8702 0.4137 24.3502 0.9537 24.3502Z"
        fillRule="evenodd"
        clipRule="evenodd"
    />
</svg>
        