
<svg
    viewBox={0 0 25.45703125 31.69140625}
    xmlns="http://www.w3.org/2000/svg"
>
    <path
        fill="inherit"
        d="M23.4437 0.9468V30.7468C23.4437 31.2768 23.9237 31.6868 24.4637 31.6868C24.9937 31.6868 25.4537 31.2768 25.4537 30.7468V0.9468C25.4537 0.4068 24.9937 -0.0032 24.4637 -0.0032C23.9237 -0.0032 23.4437 0.4068 23.4437 0.9468ZM2.0137 0.9468C2.0137 0.4068 1.5437 -0.0032 0.9937 -0.0032C0.4637 -0.0032 0.0037 0.4068 0.0037 0.9468V30.7468C0.0037 31.2768 0.4637 31.6868 0.9937 31.6868C1.5437 31.6868 2.0137 31.2768 2.0137 30.7468ZM7.7537 5.8468V25.8368C7.7537 27.8768 8.8337 28.9868 10.8237 28.9868H14.6437C16.6237 28.9868 17.7237 27.8768 17.7237 25.8368V5.8468C17.7237 3.8168 16.6237 2.7168 14.6437 2.7168H10.8237C8.8337 2.7168 7.7537 3.8168 7.7537 5.8468ZM9.8137 5.8768C9.8137 5.1768 10.2137 4.7868 10.9337 4.7868H14.5237C15.2537 4.7868 15.6537 5.1768 15.6537 5.8768V25.8168C15.6537 26.5068 15.2537 26.9168 14.5237 26.9168H10.9337C10.2137 26.9168 9.8137 26.5068 9.8137 25.8168Z"
        fillRule="evenodd"
        clipRule="evenodd"
    />
</svg>
        