
<svg
    viewBox={0 0 32.73046875 25.45703125}
    xmlns="http://www.w3.org/2000/svg"
>
    <path
        fill="inherit"
        d="M0.9537 2.0096H31.7737C32.3037 2.0096 32.7337 1.5296 32.7337 0.9996C32.7337 0.4696 32.3037 -0.0004 31.7737 -0.0004H0.9537C0.4137 -0.0004 0.0037 0.4696 0.0037 0.9996C0.0037 1.5296 0.4137 2.0096 0.9537 2.0096ZM6.3737 17.7096H26.3637C28.3937 17.7096 29.4937 16.6296 29.4937 14.6296V10.8096C29.4937 8.8296 28.3937 7.7396 26.3637 7.7396H6.3737C4.3337 7.7396 3.2437 8.8296 3.2437 10.8096V14.6296C3.2437 16.6296 4.3337 17.7096 6.3737 17.7096ZM0.9537 23.4496C0.4137 23.4496 0.0037 23.9096 0.0037 24.4596C0.0037 24.9896 0.4137 25.4596 0.9537 25.4596H31.7737C32.3037 25.4596 32.7337 24.9896 32.7337 24.4596C32.7337 23.9096 32.3037 23.4496 31.7737 23.4496Z"
        fillRule="evenodd"
        clipRule="evenodd"
    />
</svg>
        