<svg viewBox="0 0 32.73046875 32.59375" xmlns="http://www.w3.org/2000/svg"><path d="M0.9537 2.008H31.7737C32.3037 2.008 32.7337 1.528 32.7337 0.998C32.7337 0.468 32.3037 -0.002 31.7737 -0.002H0.9537C0.4137 -0.002 0.0037 0.468 0.0037 0.998C0.0037 1.528 0.4137 2.008 0.9537 2.008ZM11.2137 14.218H21.5237C23.5537 14.218 24.6537 13.138 24.6537 11.138V7.328C24.6537 5.328 23.5537 4.248 21.5237 4.248H11.2137C9.1737 4.248 8.0837 5.328 8.0837 7.328V11.138C8.0837 13.138 9.1737 14.218 11.2137 14.218ZM11.2337 12.158C10.5437 12.158 10.1437 11.758 10.1437 11.038V7.448C10.1437 6.708 10.5437 6.318 11.2337 6.318H21.4937C22.1937 6.318 22.5837 6.708 22.5837 7.448V11.038C22.5837 11.758 22.1937 12.158 21.4937 12.158ZM0.9537 20.368H31.7737C32.3037 20.368 32.7337 19.908 32.7337 19.378C32.7337 18.838 32.3037 18.358 31.7737 18.358H0.9537C0.4137 18.358 0.0037 18.838 0.0037 19.378C0.0037 19.908 0.4137 20.368 0.9537 20.368ZM6.3737 32.598H26.3637C28.3937 32.598 29.4937 31.518 29.4937 29.518V25.708C29.4937 23.708 28.3937 22.628 26.3637 22.628H6.3737C4.3337 22.628 3.2437 23.708 3.2437 25.708V29.518C3.2437 31.518 4.3337 32.598 6.3737 32.598ZM6.3937 30.528C5.7037 30.528 5.3037 30.128 5.3037 29.398V25.808C5.3037 25.088 5.7037 24.688 6.3937 24.688H26.3337C27.0337 24.688 27.4237 25.088 27.4237 25.808V29.398C27.4237 30.128 27.0337 30.528 26.3337 30.528Z" /></svg>