
<svg
    viewBox="0 0 35.02734375 31.69140625"
    xmlns="http://www.w3.org/2000/svg"
>
    <path
        fill="inherit"
        d="M14.1637 31.6868C14.6937 31.6868 15.1637 31.2768 15.1637 30.7468V0.9468C15.1637 0.4068 14.6937 -0.0032 14.1637 -0.0032C13.6337 -0.0032 13.1537 0.4068 13.1537 0.9468V30.7468C13.1537 31.2768 13.6337 31.6868 14.1637 31.6868ZM34.0137 31.6868C34.5537 31.6868 35.0237 31.2768 35.0237 30.7468V0.9468C35.0237 0.4068 34.5537 -0.0032 34.0137 -0.0032C33.4837 -0.0032 33.0137 0.4068 33.0137 0.9468V30.7468C33.0137 31.2768 33.4837 31.6868 34.0137 31.6868ZM3.0737 28.9868H7.8337C9.8337 28.9868 10.9137 27.8768 10.9137 25.8368V5.8468C10.9137 3.8168 9.8337 2.7168 7.8337 2.7168H3.0737C1.0837 2.7168 0.0037 3.8168 0.0037 5.8468V25.8368C0.0037 27.8768 1.0837 28.9868 3.0737 28.9868ZM3.2037 26.9168C2.4637 26.9168 2.0637 26.5068 2.0637 25.8168V5.8768C2.0637 5.1768 2.4637 4.7868 3.2037 4.7868H7.7237C8.4537 4.7868 8.8437 5.1768 8.8437 5.8768V25.8168C8.8437 26.5068 8.4537 26.9168 7.7237 26.9168ZM22.9437 24.1268H27.6837C29.6837 24.1268 30.7737 23.0368 30.7737 20.9968V10.6868C30.7737 8.6568 29.6837 7.5568 27.6837 7.5568H22.9437C20.9437 7.5568 19.8537 8.6568 19.8537 10.6868V20.9968C19.8537 23.0368 20.9437 24.1268 22.9437 24.1268ZM23.0537 22.0668C22.3237 22.0668 21.9137 21.6668 21.9137 20.9768V10.7368C21.9137 10.0168 22.3237 9.6268 23.0537 9.6268H27.5737C28.3037 9.6268 28.7137 10.0168 28.7137 10.7368V20.9768C28.7137 21.6668 28.3037 22.0668 27.5737 22.0668Z"
        fillRule="evenodd"
        clipRule="evenodd"
    />
</svg>
        