
<svg
    viewBox={0 0 22.55859375 20.111328125}
    xmlns="http://www.w3.org/2000/svg"
>
    <path
        fill="inherit"
        d="M11.2837 4.0352C12.4037 4.0352 13.3037 3.1152 13.3037 2.0252C13.3037 0.9052 12.4037 -0.0048 11.2837 -0.0048C10.1737 -0.0048 9.2737 0.9052 9.2737 2.0252C9.2737 3.1152 10.1737 4.0352 11.2837 4.0352ZM1.2137 11.2352H21.3437C21.9937 11.2352 22.5537 10.6752 22.5537 10.0052C22.5537 9.3352 21.9937 8.7952 21.3437 8.7952H1.2137C0.5637 8.7952 0.0037 9.3352 0.0037 10.0052C0.0037 10.6752 0.5637 11.2352 1.2137 11.2352ZM11.2837 20.1152C12.4037 20.1152 13.3037 19.2052 13.3037 18.0852C13.3037 16.9852 12.4037 16.0752 11.2837 16.0752C10.1737 16.0752 9.2737 16.9852 9.2737 18.0852C9.2737 19.2052 10.1737 20.1152 11.2837 20.1152Z"
        fillRule="evenodd"
        clipRule="evenodd"
    />
</svg>
        