
<svg
    viewBox="0 0 25.169921875 25.169921875"
    xmlns="http://www.w3.org/2000/svg"
>
    <path
        fill="inherit"
        d="M4.2937 25.1692H20.8737C23.7437 25.1692 25.1737 23.7592 25.1737 20.9492V4.2392C25.1737 1.4192 23.7437 -0.0008 20.8737 -0.0008H4.2937C1.4337 -0.0008 0.0037 1.4192 0.0037 4.2392V20.9492C0.0037 23.7592 1.4337 25.1692 4.2937 25.1692ZM4.3237 22.9692C2.9537 22.9692 2.2037 22.2392 2.2037 20.8192V4.3592C2.2037 2.9392 2.9537 2.1992 4.3237 2.1992H20.8537C22.2037 2.1992 22.9737 2.9392 22.9737 4.3592V20.8192C22.9737 22.2392 22.2037 22.9692 20.8537 22.9692ZM12.5637 9.1692C13.5537 9.1692 14.2437 8.5192 14.2437 7.6692C14.2437 6.6992 13.5637 6.0292 12.5637 6.0292C11.6437 6.0292 10.9337 6.7092 10.9337 7.6692C10.9337 8.5192 11.6437 9.1692 12.5637 9.1692ZM7.2737 13.7392H17.9237C18.6937 13.7392 19.2137 13.3292 19.2137 12.6092C19.2137 11.8692 18.7137 11.4592 17.9237 11.4592H7.2737C6.4837 11.4592 5.9737 11.8692 5.9737 12.6092C5.9737 13.3292 6.5037 13.7392 7.2737 13.7392ZM12.5637 19.1592C13.5537 19.1592 14.2437 18.4892 14.2437 17.6392C14.2437 16.6792 13.5637 16.0092 12.5637 16.0092C11.6437 16.0092 10.9337 16.6792 10.9337 17.6392C10.9337 18.4892 11.6437 19.1592 12.5637 19.1592Z"
        fillRule="evenodd"
        clipRule="evenodd"
    />
</svg>
        