
<svg
    viewBox="0 0 27.890625 27.890625"
    xmlns="http://www.w3.org/2000/svg"
>
    <path
        fill="inherit"
        d="M13.9427 27.8864C21.6427 27.8864 27.8927 21.6264 27.8927 13.9464C27.8927 6.2464 21.6427 -0.0036 13.9427 -0.0036C6.2627 -0.0036 0.0027 6.2464 0.0027 13.9464C0.0027 21.6264 6.2627 27.8864 13.9427 27.8864ZM13.9227 10.4464C12.9727 10.4464 12.2327 9.7664 12.2327 8.8864C12.2327 7.8864 12.9727 7.1764 13.9227 7.1764C14.9527 7.1764 15.6527 7.8764 15.6527 8.8864C15.6527 9.7664 14.9427 10.4464 13.9227 10.4464ZM8.4627 15.1464C7.6527 15.1464 7.1227 14.7264 7.1227 13.9764C7.1227 13.2064 7.6327 12.7864 8.4627 12.7864H19.4427C20.2627 12.7864 20.7627 13.2064 20.7627 13.9764C20.7627 14.7264 20.2327 15.1464 19.4427 15.1464ZM13.9227 20.7364C12.9727 20.7364 12.2327 20.0464 12.2327 19.1664C12.2327 18.1664 12.9727 17.4764 13.9227 17.4764C14.9527 17.4764 15.6527 18.1664 15.6527 19.1664C15.6527 20.0464 14.9427 20.7364 13.9227 20.7364Z"
        fillRule="evenodd"
        clipRule="evenodd"
    />
</svg>
        