
<svg
    viewBox="0 0 27.890625 27.890625"
    xmlns="http://www.w3.org/2000/svg"
>
    <path
        fill="inherit"
        d="M13.9427 27.8864C21.6427 27.8864 27.8927 21.6464 27.8927 13.9464C27.8927 6.2464 21.6427 -0.0036 13.9427 -0.0036C6.2527 -0.0036 0.0027 6.2464 0.0027 13.9464C0.0027 21.6464 6.2527 27.8864 13.9427 27.8864ZM13.9427 25.5664C7.5227 25.5664 2.3227 20.3664 2.3227 13.9464C2.3227 7.5164 7.5227 2.3264 13.9427 2.3264C20.3727 2.3264 25.5627 7.5164 25.5627 13.9464C25.5627 20.3664 20.3727 25.5664 13.9427 25.5664ZM13.9027 10.5364C14.8927 10.5364 15.5827 9.8864 15.5827 9.0364C15.5827 8.0664 14.9027 7.3964 13.9027 7.3964C12.9927 7.3964 12.2727 8.0764 12.2727 9.0364C12.2727 9.8864 12.9927 10.5364 13.9027 10.5364ZM8.6127 15.1064H19.2627C20.0327 15.1064 20.5527 14.6964 20.5527 13.9764C20.5527 13.2364 20.0527 12.8264 19.2627 12.8264H8.6127C7.8027 12.8264 7.3127 13.2364 7.3127 13.9764C7.3127 14.6964 7.8327 15.1064 8.6127 15.1064ZM13.9027 20.5264C14.8927 20.5264 15.5827 19.8564 15.5827 19.0064C15.5827 18.0464 14.9027 17.3764 13.9027 17.3764C12.9927 17.3764 12.2727 18.0464 12.2727 19.0064C12.2727 19.8564 12.9927 20.5264 13.9027 20.5264Z"
        fillRule="evenodd"
        clipRule="evenodd"
    />
</svg>
        