
<svg
    viewBox="0 0 25.169921875 25.169921875"
    xmlns="http://www.w3.org/2000/svg"
>
    <path
        fill="inherit"
        d="M4.2937 25.1692H20.8737C23.7437 25.1692 25.1737 23.7592 25.1737 20.9492V4.2392C25.1737 1.4192 23.7437 -0.0008 20.8737 -0.0008H4.2937C1.4337 -0.0008 0.0037 1.4192 0.0037 4.2392V20.9492C0.0037 23.7592 1.4337 25.1692 4.2937 25.1692ZM12.5637 9.0792C11.6237 9.0792 10.8837 8.3992 10.8837 7.5192C10.8837 6.5192 11.6237 5.8092 12.5637 5.8092C13.6037 5.8092 14.3037 6.5092 14.3037 7.5192C14.3037 8.3992 13.5937 9.0792 12.5637 9.0792ZM7.1137 13.7792C6.3137 13.7792 5.7737 13.3592 5.7737 12.6092C5.7737 11.8392 6.2937 11.4192 7.1137 11.4192H18.0837C18.9037 11.4192 19.4137 11.8392 19.4137 12.6092C19.4137 13.3592 18.8837 13.7792 18.0837 13.7792ZM12.5637 19.3692C11.6237 19.3692 10.8837 18.6792 10.8837 17.7992C10.8837 16.7992 11.6237 16.1092 12.5637 16.1092C13.6037 16.1092 14.3037 16.7992 14.3037 17.7992C14.3037 18.6792 13.5937 19.3692 12.5637 19.3692Z"
        fillRule="evenodd"
        clipRule="evenodd"
    />
</svg>
        