
<svg
    viewBox="0 0 32.23828125 25.169921875"
    xmlns="http://www.w3.org/2000/svg"
>
    <path
        fill="inherit"
        d="M4.2937 25.1692H27.9437C30.8137 25.1692 32.2337 23.7592 32.2337 20.9492V4.2392C32.2337 1.4192 30.8137 -0.0008 27.9437 -0.0008H4.2937C1.4337 -0.0008 0.0037 1.4192 0.0037 4.2392V20.9492C0.0037 23.7592 1.4337 25.1692 4.2937 25.1692ZM4.3237 22.9692C2.9537 22.9692 2.2037 22.2392 2.2037 20.8192V4.3592C2.2037 2.9392 2.9537 2.1992 4.3237 2.1992H27.9137C29.2737 2.1992 30.0337 2.9392 30.0337 4.3592V20.8192C30.0337 22.2392 29.2737 22.9692 27.9137 22.9692ZM16.1337 14.7792C16.7237 14.7792 17.2137 14.2992 17.2137 13.7292V9.7592L17.1337 7.4692L18.3037 8.6992L20.0837 10.4692C20.2937 10.6792 20.5537 10.7992 20.8237 10.7992C21.4137 10.7992 21.8337 10.4092 21.8337 9.8292C21.8337 9.5192 21.7137 9.2792 21.4637 9.0692L16.9237 4.8292C16.6437 4.5692 16.4037 4.4592 16.1337 4.4592C15.8437 4.4592 15.6237 4.5692 15.3437 4.8292L10.7837 9.0692C10.5537 9.2792 10.4337 9.5192 10.4337 9.8292C10.4337 10.4092 10.8437 10.7992 11.4137 10.7992C11.6937 10.7992 11.9637 10.6792 12.1837 10.4692L13.9637 8.6992L15.1337 7.4692L15.0437 9.7592V13.7292C15.0437 14.2992 15.5437 14.7792 16.1337 14.7792ZM5.8837 19.6192C5.8837 20.3292 6.3737 20.7992 7.0937 20.7992H25.1837C25.9037 20.7992 26.4037 20.3292 26.4037 19.6192V17.5692C26.4037 16.8392 25.9037 16.3792 25.1837 16.3792H7.0937C6.3737 16.3792 5.8837 16.8392 5.8837 17.5692Z"
        fillRule="evenodd"
        clipRule="evenodd"
    />
</svg>
        