
<svg
    viewBox={0 0 32.23828125 25.169921875}
    xmlns="http://www.w3.org/2000/svg"
>
    <path
        fill="inherit"
        d="M4.2937 25.1692H27.9437C30.8137 25.1692 32.2337 23.7592 32.2337 20.9492V4.2392C32.2337 1.4192 30.8137 -0.0008 27.9437 -0.0008H4.2937C1.4337 -0.0008 0.0037 1.4192 0.0037 4.2392V20.9492C0.0037 23.7592 1.4337 25.1692 4.2937 25.1692ZM4.3237 22.9692C2.9537 22.9692 2.2037 22.2392 2.2037 20.8192V4.3592C2.2037 2.9392 2.9537 2.1992 4.3237 2.1992H27.9137C29.2737 2.1992 30.0337 2.9392 30.0337 4.3592V20.8192C30.0337 22.2392 29.2737 22.9692 27.9137 22.9692ZM5.8837 19.6192C5.8837 20.3292 6.3737 20.7992 7.0937 20.7992H25.1837C25.9037 20.7992 26.4037 20.3292 26.4037 19.6192V17.5692C26.4037 16.8392 25.9037 16.3792 25.1837 16.3792H7.0937C6.3737 16.3792 5.8837 16.8392 5.8837 17.5692Z"
        fillRule="evenodd"
        clipRule="evenodd"
    />
</svg>
        