
<svg
    viewBox={0 0 32.23828125 25.169921875}
    xmlns="http://www.w3.org/2000/svg"
>
    <path
        fill="inherit"
        d="M4.2937 25.1692H27.9437C30.8137 25.1692 32.2337 23.7592 32.2337 20.9492V4.2392C32.2337 1.4192 30.8137 -0.0008 27.9437 -0.0008H4.2937C1.4337 -0.0008 0.0037 1.4192 0.0037 4.2392V20.9492C0.0037 23.7592 1.4337 25.1692 4.2937 25.1692ZM4.3237 22.9692C2.9537 22.9692 2.2037 22.2392 2.2037 20.8192V4.3592C2.2037 2.9392 2.9537 2.1992 4.3237 2.1992H27.9137C29.2737 2.1992 30.0337 2.9392 30.0337 4.3592V20.8192C30.0337 22.2392 29.2737 22.9692 27.9137 22.9692ZM16.1337 4.4592C15.5437 4.4592 15.0437 4.9492 15.0437 5.5192V9.4892L15.1337 11.7892L13.9637 10.5592L12.1837 8.7792C11.9637 8.5692 11.6937 8.4492 11.4137 8.4492C10.8437 8.4492 10.4337 8.8492 10.4337 9.4192C10.4337 9.7392 10.5537 9.9692 10.7837 10.1692L15.3437 14.4192C15.6237 14.6792 15.8437 14.7792 16.1337 14.7792C16.4037 14.7792 16.6437 14.6792 16.9237 14.4192L21.4637 10.1692C21.7137 9.9692 21.8337 9.7392 21.8337 9.4192C21.8337 8.8492 21.4137 8.4492 20.8237 8.4492C20.5537 8.4492 20.2937 8.5692 20.0837 8.7792L18.3037 10.5592L17.1337 11.7892L17.2137 9.4892V5.5192C17.2137 4.9492 16.7237 4.4592 16.1337 4.4592ZM5.8837 19.6192C5.8837 20.3292 6.3737 20.7992 7.0937 20.7992H25.1837C25.9037 20.7992 26.4037 20.3292 26.4037 19.6192V17.5692C26.4037 16.8392 25.9037 16.3792 25.1837 16.3792H7.0937C6.3737 16.3792 5.8837 16.8392 5.8837 17.5692Z"
        fillRule="evenodd"
        clipRule="evenodd"
    />
</svg>
        