
<svg
    viewBox={0 0 27.958984375 34.3984375}
    xmlns="http://www.w3.org/2000/svg"
>
    <path
        fill="inherit"
        d="M0.0037 30.104C0.0037 32.964 1.4037 34.394 4.2337 34.394H17.0937C19.9237 34.394 21.3237 32.954 21.3237 30.104V27.574H23.7237C26.5337 27.574 27.9637 26.124 27.9637 23.284V12.184C27.9637 10.504 27.6137 9.434 26.5937 8.384L19.6837 1.364C18.7137 0.374 17.5637 0.004 16.1037 0.004H10.8737C8.0537 0.004 6.6337 1.454 6.6337 4.294V6.824H4.2337C1.4237 6.824 0.0037 8.254 0.0037 11.114ZM20.0337 15.794L12.4937 8.124C11.4537 7.054 10.5937 6.824 9.0637 6.824H8.8337V4.334C8.8337 2.984 9.5537 2.204 10.9737 2.204H17.0237V9.214C17.0237 10.804 17.7837 11.554 19.3637 11.554H25.7537V23.244C25.7537 24.614 25.0237 25.374 23.5937 25.374H21.3237V19.424C21.3237 17.674 21.1237 16.914 20.0337 15.794ZM19.0037 8.884V3.284L25.1837 9.574H19.6737C19.1937 9.574 19.0037 9.364 19.0037 8.884ZM2.2037 30.064V11.144C2.2037 9.804 2.9237 9.024 4.3437 9.024H8.8337V16.954C8.8337 18.674 9.7037 19.534 11.4037 19.534H19.1237V30.064C19.1237 31.434 18.3937 32.194 16.9837 32.194H4.3337C2.9237 32.194 2.2037 31.434 2.2037 30.064ZM11.6637 17.474C11.1137 17.474 10.8937 17.254 10.8937 16.704V9.534L18.7037 17.474Z"
        fillRule="evenodd"
        clipRule="evenodd"
    />
</svg>
        