
<svg
    viewBox="0 0 27.958984375 34.3984375"
    xmlns="http://www.w3.org/2000/svg"
>
    <path
        fill="inherit"
        d="M23.1837 27.574H23.7237C26.5237 27.574 27.9637 26.124 27.9637 23.284V10.304H20.3937C18.9637 10.304 18.1537 9.504 18.1537 8.084V0.004H10.8737C8.0937 0.004 6.6337 1.454 6.6337 4.184V4.964H8.6137C10.5237 4.964 12.0737 5.404 13.6037 6.934L21.3737 14.684C22.9037 16.224 23.1837 17.814 23.1837 19.674ZM20.6537 8.604H27.7937C27.7237 8.164 27.4237 7.784 26.9437 7.304L21.1637 1.404C20.7037 0.914 20.3037 0.614 19.8837 0.564L19.8937 7.804C19.8937 8.364 20.0937 8.604 20.6537 8.604ZM4.2337 34.394H17.0937C19.9237 34.394 21.3237 32.954 21.3237 30.104V19.304H11.7837C10.0237 19.304 9.2037 18.474 9.2037 16.724V6.824H4.2337C1.4237 6.824 0.0037 8.254 0.0037 11.114V30.104C0.0037 32.964 1.4037 34.394 4.2337 34.394ZM11.7737 17.434H21.0837C20.9437 16.894 20.6337 16.404 20.0137 15.774L12.7137 8.344C12.1137 7.724 11.5937 7.314 11.0637 7.164V16.734C11.0637 17.204 11.3037 17.434 11.7737 17.434Z"
        fillRule="evenodd"
        clipRule="evenodd"
    />
</svg>
        