<svg viewBox="0 0 26.76953125 26.755859375" xmlns="http://www.w3.org/2000/svg"><path d="M1.0937 8.6985C1.8137 8.6985 2.2037 8.2885 2.2037 7.5785V4.3485C2.2037 2.9285 2.9537 2.1985 4.3237 2.1985H7.6337C8.3537 2.1985 8.7537 1.8085 8.7537 1.0985C8.7537 0.3785 8.3537 -0.0015 7.6337 -0.0015H4.2937C1.4337 -0.0015 0.0037 1.4085 0.0037 4.2285V7.5785C0.0037 8.2885 0.3937 8.6985 1.0937 8.6985ZM25.6637 8.6985C26.3837 8.6985 26.7737 8.2885 26.7737 7.5785V4.2285C26.7737 1.4085 25.3337 -0.0015 22.4737 -0.0015H19.1237C18.4137 -0.0015 18.0237 0.3785 18.0237 1.0985C18.0237 1.8085 18.4137 2.1985 19.1237 2.1985H22.4337C23.7937 2.1985 24.5637 2.9285 24.5637 4.3485V7.5785C24.5637 8.2885 24.9637 8.6985 25.6637 8.6985ZM9.6237 21.8185H17.7637C19.4837 21.8185 20.3837 20.8885 20.3837 19.1585V12.2085C20.3837 11.1185 20.2237 10.6385 19.5937 9.9985L15.3637 5.6885C14.7837 5.0985 14.2337 4.8985 13.2637 4.8985H9.6237C7.9137 4.8985 7.0037 5.8285 7.0037 7.5485V19.1585C7.0037 20.8885 7.9137 21.8185 9.6237 21.8185ZM9.6837 20.0885C9.0237 20.0885 8.7237 19.7685 8.7237 19.1385V7.5785C8.7237 6.9485 9.0337 6.6285 9.6937 6.6285H12.8337V10.8285C12.8337 11.9085 13.4437 12.5085 14.5337 12.5085H18.6637V19.1385C18.6637 19.7685 18.3637 20.0885 17.6937 20.0885ZM14.7237 10.8585C14.5637 10.8585 14.4937 10.7985 14.4937 10.6385V7.2185L18.0637 10.8585ZM4.2937 26.7585H7.6337C8.3537 26.7585 8.7537 26.3585 8.7537 25.6585C8.7537 24.9485 8.3537 24.5585 7.6337 24.5585H4.3237C2.9537 24.5585 2.2037 23.8285 2.2037 22.4085V19.1785C2.2037 18.4585 1.8037 18.0585 1.0937 18.0585C0.3837 18.0585 0.0037 18.4585 0.0037 19.1785V22.5185C0.0037 25.3485 1.4337 26.7585 4.2937 26.7585ZM19.1237 26.7585H22.4737C25.3337 26.7585 26.7737 25.3385 26.7737 22.5185V19.1785C26.7737 18.4585 26.3737 18.0585 25.6637 18.0585C24.9537 18.0585 24.5637 18.4585 24.5637 19.1785V22.4085C24.5637 23.8285 23.7937 24.5585 22.4337 24.5585H19.1237C18.4137 24.5585 18.0237 24.9485 18.0237 25.6585C18.0237 26.3585 18.4137 26.7585 19.1237 26.7585Z" /></svg>