
<svg
    viewBox={0 0 27.890625 27.890625}
    xmlns="http://www.w3.org/2000/svg"
>
    <path
        fill="inherit"
        d="M13.9427 27.8864C21.6427 27.8864 27.8927 21.6464 27.8927 13.9464C27.8927 6.2464 21.6427 -0.0036 13.9427 -0.0036C6.2527 -0.0036 0.0027 6.2464 0.0027 13.9464C0.0027 21.6464 6.2527 27.8864 13.9427 27.8864ZM13.9427 25.5664C7.5227 25.5664 2.3227 20.3664 2.3227 13.9464C2.3227 7.5164 7.5227 2.3264 13.9427 2.3264C20.3727 2.3264 25.5627 7.5164 25.5627 13.9464C25.5627 20.3664 20.3727 25.5664 13.9427 25.5664ZM10.6927 21.2964H17.8327C19.3427 21.2964 20.0927 20.5264 20.0927 18.9864V13.1064H14.6827C13.7427 13.1064 13.2927 12.6764 13.2927 11.7264V6.2164H10.6927C9.1827 6.2164 8.4227 6.9964 8.4227 8.5264V18.9864C8.4227 20.5364 9.1827 21.2964 10.6927 21.2964ZM14.7927 12.0064H20.0127C19.9727 11.7064 19.7527 11.4064 19.4027 11.0464L15.3527 6.9164C15.0127 6.5664 14.6927 6.3464 14.3927 6.3064V11.6064C14.3927 11.8664 14.5327 12.0064 14.7927 12.0064Z"
        fillRule="evenodd"
        clipRule="evenodd"
    />
</svg>
        