
<svg
    viewBox="0 0 27.958984375 34.3984375"
    xmlns="http://www.w3.org/2000/svg"
>
    <path
        fill="inherit"
        d="M0.0037 30.104C0.0037 32.964 1.4037 34.394 4.2337 34.394H17.0937C19.9237 34.394 21.3237 32.954 21.3237 30.104V27.574H23.7237C26.5337 27.574 27.9637 26.124 27.9637 23.284V4.294C27.9637 1.454 26.5337 0.004 23.7237 0.004H10.8737C8.0537 0.004 6.6337 1.434 6.6337 4.294V6.824H4.2337C1.4237 6.824 0.0037 8.254 0.0037 11.114ZM13.9637 4.694C13.3537 4.694 13.0837 4.294 13.0837 3.884V3.594C13.0837 3.174 13.3537 2.794 13.9637 2.794H20.6337C21.2237 2.794 21.5037 3.174 21.5037 3.594V3.884C21.5037 4.294 21.2237 4.694 20.6337 4.694ZM2.2037 30.064V11.144C2.2037 9.804 2.9237 9.024 4.3437 9.024H8.8337V16.954C8.8337 18.674 9.7037 19.534 11.4037 19.534H19.1237V30.064C19.1237 31.434 18.3937 32.194 16.9837 32.194H4.3337C2.9237 32.194 2.2037 31.434 2.2037 30.064ZM11.6637 17.474C11.1137 17.474 10.8937 17.254 10.8937 16.704V9.534L18.7037 17.474Z"
        fillRule="evenodd"
        clipRule="evenodd"
    />
</svg>
        