<svg viewBox="0 0 27.890625 27.890625" xmlns="http://www.w3.org/2000/svg"><path d="M13.9427 27.8864C21.6427 27.8864 27.8927 21.6264 27.8927 13.9464C27.8927 6.2464 21.6427 -0.0036 13.9427 -0.0036C6.2627 -0.0036 0.0027 6.2464 0.0027 13.9464C0.0027 21.6264 6.2627 27.8864 13.9427 27.8864ZM18.9227 8.8364C17.9327 8.8364 17.4427 7.2064 17.4427 6.7364C17.4427 6.3464 17.6827 6.1064 18.0927 6.1064H19.7427C20.1627 6.1064 20.3827 6.3464 20.3827 6.7364C20.3827 7.2064 19.8827 8.8364 18.9227 8.8364ZM6.4827 21.4764C5.7827 21.4764 5.2727 20.9564 5.2727 20.2164V18.9264C5.2727 17.9764 5.6827 17.4164 6.7227 16.5964C7.1827 16.2264 7.2827 15.7864 7.2827 14.2964C7.2827 13.3164 7.4527 12.5364 7.7127 11.8964L7.1527 11.2064C6.3427 10.2764 7.6127 9.1364 8.4527 10.1064L8.9527 10.7364C9.0327 10.6864 9.1627 10.6464 9.3227 10.6264L15.1327 10.1764C16.5727 9.6764 16.8027 9.0664 17.3327 8.3164C17.6827 8.9364 18.1827 9.4464 18.9227 9.4464C20.0827 9.4464 20.7627 8.0664 20.9427 7.1864C21.4627 7.4664 21.7927 7.9664 22.3927 8.3564C23.0627 8.7864 23.6227 8.8364 23.6227 9.4764C23.6227 10.7164 22.4727 11.8764 21.3327 11.8764C20.8127 11.8764 20.4227 11.7264 19.8827 11.4164C19.7327 11.5664 19.5327 11.9664 19.5327 12.6464C19.5327 14.0864 18.8827 14.9864 18.4127 16.3664C18.1827 17.0264 17.7827 18.4864 17.6627 19.1864C17.6227 19.3364 17.7227 19.4264 17.8727 19.4864C18.5927 19.5964 18.8627 19.8364 18.8627 20.4264C18.8627 20.9864 18.4327 21.4764 17.6627 21.4764H16.5327C15.7227 21.4764 15.2127 20.9464 15.2127 20.1064C15.2127 19.3964 15.3427 18.0364 15.3627 17.0264C13.6627 17.2564 11.9527 17.1564 10.9227 16.4364C10.7327 17.8964 9.7527 18.7864 8.0627 19.0464C7.8027 19.0864 7.8027 19.4264 8.1227 19.4864C8.7627 19.5364 9.0827 19.7964 9.0827 20.4164C9.0827 20.9864 8.6227 21.4764 7.8627 21.4764ZM21.3027 9.5564C21.5327 9.5564 21.7127 9.3764 21.7127 9.1364C21.7127 8.8764 21.5327 8.6964 21.3027 8.6964C21.0227 8.6964 20.8627 8.8764 20.8627 9.1364C20.8627 9.3764 21.0227 9.5564 21.3027 9.5564Z" /></svg>