
<svg
    viewBox={0 0 37.8984375 31.63671875}
    xmlns="http://www.w3.org/2000/svg"
>
    <path
        fill="inherit"
        d="M2.8537 31.5858H5.6437C7.3937 31.5858 8.5437 30.3258 8.5437 28.9858C8.5437 28.2058 8.2137 27.3958 7.4337 27.0058C10.0237 25.9658 11.6337 24.1958 12.1537 21.6458C14.1637 22.8158 17.1837 22.9958 20.3337 22.6658C20.2937 24.5558 20.0037 27.2458 20.0037 28.4658C20.0037 30.5258 21.0637 31.6358 23.0737 31.6358H25.4137C27.4637 31.6358 28.5637 30.3258 28.5637 28.7358C28.5637 27.6458 28.0837 26.4558 26.4437 25.7958C26.5337 24.4758 27.1537 21.5158 27.5637 20.3058C28.2437 18.3158 29.6237 16.6258 29.6237 13.8358C29.6237 12.6158 29.8637 11.9658 30.0937 11.4258C31.0037 11.9758 31.8437 12.2358 32.8137 12.2358C35.3137 12.2358 37.8937 9.6258 37.8937 6.8858C37.8937 5.3858 35.8437 4.4658 34.7137 3.7458C33.5337 2.9258 32.6937 1.8758 31.5237 1.1858C31.4437 0.4258 30.9537 -0.0042 30.0637 -0.0042H26.3037C25.3237 -0.0042 24.8137 0.5058 24.8137 1.4458C24.8137 1.8358 24.9637 2.5558 25.2537 3.3258C23.1437 5.4958 23.3837 6.7958 20.2037 7.9158L9.5337 8.8158C9.1437 8.8458 8.7937 8.8858 8.4637 8.9258L7.4637 7.7358C5.3737 5.2658 1.3637 8.2758 3.6637 11.0058L4.7137 12.2658C4.3037 13.5058 4.0737 14.9958 4.0737 16.6958C4.0737 19.5958 3.8537 20.3458 3.0937 20.9558C0.9037 22.6858 0.0037 23.9658 0.0037 25.7558V28.6058C0.0037 30.3558 1.1937 31.5858 2.8537 31.5858ZM28.1737 4.4158C27.4837 4.4158 26.9237 2.9258 26.7737 2.0958C26.7437 1.9558 26.8337 1.8458 26.9737 1.8458H29.3937C29.5337 1.8458 29.6237 1.9558 29.6037 2.0958C29.4537 2.9258 28.8737 4.4158 28.1737 4.4158ZM28.1737 6.2658C29.6537 6.2658 30.6537 4.6258 31.1537 3.1958C31.9137 3.7558 32.5837 4.5558 33.5537 5.1958C34.8337 6.0558 35.7837 6.1358 35.7837 7.1258C35.7837 8.5358 34.2637 10.1058 32.8137 10.1058C32.0037 10.1058 31.3637 9.8558 30.2437 9.0758C29.7237 8.7258 29.1937 8.7958 28.8737 9.2858C27.8337 10.7958 27.5037 12.0158 27.5037 13.8358C27.5037 15.8458 26.3637 17.1458 25.5137 19.7058C25.0637 21.1258 24.2937 24.6758 24.2937 26.2958C24.2937 26.6858 24.4337 27.0258 24.9237 27.2058C26.2337 27.5758 26.4237 28.1958 26.4237 28.6158C26.4237 29.1758 26.0737 29.4458 25.4137 29.4458H23.1437C22.4637 29.4458 22.1437 29.0958 22.1437 28.3658C22.1437 25.7458 22.6437 22.1858 22.6437 20.9158C22.6437 20.3058 22.0837 19.9758 21.4237 20.1958C17.6637 21.4558 13.7937 20.6158 11.6437 18.9058C11.0437 18.4158 10.3537 18.7858 10.3537 19.4458C10.3537 23.0258 8.6437 24.7558 4.8037 25.7458C4.0037 25.9658 4.0037 27.1558 4.8037 27.2858C5.8637 27.4558 6.4137 27.9458 6.4137 28.6158C6.4137 29.1458 6.0037 29.4458 5.4037 29.4458H3.1137C2.5137 29.4458 2.1237 29.0158 2.1237 28.3658V25.7558C2.1237 24.7158 2.5337 24.1058 4.3937 22.6258C5.8137 21.4958 6.2037 19.9458 6.2037 16.6958C6.2037 14.9958 6.4137 13.0658 7.1337 12.1158L5.1637 9.8958C4.5437 9.1858 5.4837 8.4358 6.0837 9.1358L7.9737 11.3158C8.2137 11.1258 8.5737 11.0158 9.0537 10.9958L20.6437 10.0258C24.8437 8.6158 25.4437 6.8758 26.4137 5.3558C26.8937 5.8958 27.4837 6.2658 28.1737 6.2658ZM31.7237 7.1058C32.2837 7.1058 32.7337 6.6458 32.7337 6.0658C32.7337 5.4958 32.2837 5.0558 31.7237 5.0558C31.1437 5.0558 30.6937 5.4958 30.6937 6.0658C30.6937 6.6458 31.1437 7.1058 31.7237 7.1058Z"
        fillRule="evenodd"
        clipRule="evenodd"
    />
</svg>
        