<svg viewBox="0 0 27.890625 27.890625" xmlns="http://www.w3.org/2000/svg"><path d="M13.9427 27.8864C21.6427 27.8864 27.8927 21.6464 27.8927 13.9464C27.8927 6.2464 21.6427 -0.0036 13.9427 -0.0036C6.2527 -0.0036 0.0027 6.2464 0.0027 13.9464C0.0027 21.6464 6.2527 27.8864 13.9427 27.8864ZM13.9427 25.5664C7.5227 25.5664 2.3227 20.3664 2.3227 13.9464C2.3227 7.5164 7.5227 2.3264 13.9427 2.3264C20.3727 2.3264 25.5627 7.5164 25.5627 13.9464C25.5627 20.3664 20.3727 25.5664 13.9427 25.5664ZM18.7827 8.9864C19.7127 8.9864 20.2027 7.3964 20.2027 6.9564C20.2027 6.5664 20.0027 6.3464 19.5927 6.3464H17.9827C17.5827 6.3464 17.3627 6.5664 17.3627 6.9564C17.3627 7.3964 17.8427 8.9864 18.7827 8.9864ZM6.7227 21.2464H8.0527C8.8027 21.2464 9.2427 20.7664 9.2427 20.2064C9.2427 19.6164 8.9327 19.3564 8.3127 19.3064C8.0127 19.2664 8.0127 18.9264 8.2627 18.8764C9.8827 18.6364 10.8427 17.7764 11.0327 16.3564C12.0127 17.0464 13.6827 17.1464 15.3427 16.9264C15.3127 17.8964 15.1927 19.2364 15.1927 19.9164C15.1927 20.7264 15.6827 21.2464 16.4627 21.2464H17.5727C18.3027 21.2464 18.7327 20.7664 18.7327 20.2164C18.7327 19.6564 18.4727 19.4164 17.7627 19.3064C17.6227 19.2664 17.5227 19.1664 17.5727 19.0164C17.6927 18.3464 18.0727 16.9264 18.2927 16.2864C18.7427 14.9464 19.3827 14.0664 19.3827 12.6764C19.3827 12.0164 19.5627 11.6364 19.7127 11.4864C20.2527 11.7864 20.6127 11.9364 21.1227 11.9364C22.2327 11.9364 23.3527 10.7964 23.3527 9.5964C23.3527 8.9864 22.8027 8.9364 22.1527 8.5164C21.5727 8.1464 21.2427 7.6564 20.7527 7.3864C20.5727 8.2264 19.9227 9.5664 18.7827 9.5664C18.0727 9.5664 17.5827 9.0764 17.2527 8.4764C16.7327 9.1964 16.5127 9.8064 15.1227 10.2764L9.4727 10.7164C9.3227 10.7464 9.2027 10.7864 9.1227 10.8264L8.6227 10.2164C7.8227 9.2664 6.5927 10.3864 7.3727 11.2964L7.9127 11.9464C7.6527 12.5764 7.5027 13.3264 7.5027 14.2864C7.5027 15.7364 7.3927 16.1564 6.9627 16.5164C5.9427 17.3064 5.5527 17.8564 5.5527 18.7764V20.0264C5.5527 20.7364 6.0427 21.2464 6.7227 21.2464ZM21.0927 9.6764C20.8327 9.6764 20.6727 9.5064 20.6727 9.2664C20.6727 9.0264 20.8327 8.8464 21.0927 8.8464C21.3127 8.8464 21.4927 9.0264 21.4927 9.2664C21.4927 9.5064 21.3127 9.6764 21.0927 9.6764Z" /></svg>