
<svg
    viewBox="0 0 37.05078125 31.03515625"
    xmlns="http://www.w3.org/2000/svg"
>
    <path
        fill="inherit"
        d="M27.5037 5.5091C29.4637 5.5091 30.4737 2.1991 30.4737 1.2691C30.4737 0.4391 30.0337 -0.0009 29.1737 -0.0009H25.8537C24.9937 -0.0009 24.5437 0.4391 24.5437 1.2691C24.5437 2.1991 25.5537 5.5091 27.5037 5.5091ZM2.4337 31.0391H5.2237C6.7937 31.0391 7.6937 30.0391 7.6937 28.8591C7.6937 27.6291 7.0537 27.1091 5.7437 26.9791C5.1237 26.9091 5.1437 26.1691 5.6637 26.0991C8.9937 25.5691 11.0237 23.8291 11.4137 20.8491C13.4537 22.2991 16.8837 22.5191 20.3337 22.0791C20.3137 24.0791 20.0137 26.8291 20.0137 28.2491C20.0137 29.9191 21.0837 31.0391 22.7137 31.0391H25.0037C26.5637 31.0391 27.4637 30.0391 27.4637 28.8991C27.4637 27.7091 26.9037 27.1891 25.4137 26.9791C25.1037 26.9191 24.9337 26.7191 25.0037 26.3991C25.2637 24.9891 26.0537 22.0691 26.5137 20.7291C27.4537 17.9191 28.7837 16.1191 28.7837 13.2191C28.7837 11.8691 29.1437 11.0591 29.4637 10.7091C30.5437 11.3591 31.3337 11.6891 32.3937 11.6891C34.7237 11.6891 37.0537 9.3091 37.0537 6.8191C37.0537 5.5091 35.9537 5.4591 34.5737 4.5791C33.3737 3.7891 32.6937 2.7591 31.6237 2.1891C31.2537 3.9691 29.9037 6.7491 27.5037 6.7491C26.0437 6.7491 24.9737 5.6991 24.2937 4.4991C23.2137 5.9791 22.7737 7.2091 19.8837 8.2191L8.1737 9.1291C7.8737 9.1491 7.6137 9.2391 7.4337 9.3091L6.4137 8.0791C4.7437 6.0991 2.1437 8.4391 3.8037 10.3391L4.9337 11.6491C4.3737 12.9791 4.0737 14.5791 4.0737 16.5691C4.0737 19.5891 3.8437 20.4291 2.9437 21.1591C0.7937 22.8591 0.0037 23.9791 0.0037 25.8791V28.4791C0.0037 29.9791 1.0137 31.0391 2.4337 31.0391ZM32.3237 6.9691C31.8137 6.9691 31.4437 6.5891 31.4437 6.1091C31.4437 5.6191 31.8137 5.2591 32.3237 5.2591C32.8037 5.2591 33.1637 5.6191 33.1637 6.1091C33.1637 6.5891 32.8037 6.9691 32.3237 6.9691Z"
        fillRule="evenodd"
        clipRule="evenodd"
    />
</svg>
        