
<svg
    viewBox="0 0 30.5703125 30.5703125"
    xmlns="http://www.w3.org/2000/svg"
>
    <path
        fill="inherit"
        d="M15.2827 30.5663C23.6827 30.5663 30.5727 23.6763 30.5727 15.2863C30.5727 6.8863 23.6827 -0.0038 15.2827 -0.0038C6.8927 -0.0038 0.0027 6.8863 0.0027 15.2863C0.0027 23.6763 6.8927 30.5663 15.2827 30.5663ZM15.2827 25.4862C9.6527 25.4862 5.0827 20.9162 5.0827 15.2863C5.0827 9.6363 9.6527 5.0863 15.2827 5.0863C20.9327 5.0863 25.4827 9.6363 25.4827 15.2863C25.4827 20.9162 20.9327 25.4862 15.2827 25.4862ZM15.2827 22.8863C15.5327 22.8863 15.7327 22.6863 15.7327 22.4363V21.2463C17.8727 21.1263 19.6727 20.0463 19.6727 17.8263C19.6727 15.7763 18.0227 14.9863 16.1627 14.5463L15.7327 14.4463V10.4863C16.8527 10.5963 17.6327 11.1663 17.9627 12.1962C18.1027 12.6063 18.3627 12.8063 18.7327 12.8063C19.0827 12.8063 19.4727 12.5963 19.4727 12.1163C19.4727 10.4863 17.5527 9.3063 15.7327 9.1363V7.9662C15.7327 7.7263 15.5327 7.5163 15.2827 7.5163C15.0427 7.5163 14.8327 7.7263 14.8327 7.9662V9.1363C12.8227 9.2963 11.1127 10.4963 11.1127 12.4563C11.1127 14.4963 12.8427 15.2763 14.5227 15.6663L14.8327 15.7463V19.8963C13.6627 19.7963 12.8227 19.2863 12.3827 18.1263C12.2227 17.7163 11.9927 17.5363 11.6327 17.5363C11.2227 17.5363 10.8927 17.8163 10.8927 18.2563C10.8927 18.3863 10.9227 18.5263 10.9827 18.6863C11.4527 20.3263 13.1827 21.1263 14.8327 21.2463V22.4363C14.8327 22.6863 15.0427 22.8863 15.2827 22.8863ZM12.6427 12.3463C12.6427 11.2063 13.7127 10.6263 14.8327 10.4863V14.2363C13.6627 13.9563 12.6427 13.4563 12.6427 12.3463ZM15.8227 15.9863C17.0527 16.2663 18.1527 16.7063 18.1527 17.9463C18.1527 19.3063 16.9927 19.8063 15.7327 19.9063V15.9563Z"
        fillRule="evenodd"
        clipRule="evenodd"
    />
</svg>
        