<svg viewBox="0 0 30.544813437289534 27.890625" xmlns="http://www.w3.org/2000/svg"><path d="M0.9769 11.3064C-0.0131 11.3064 -0.2531 11.9764 0.2769 12.7464L3.3369 17.0864C3.7869 17.7164 4.4469 17.7064 4.8869 17.0864L7.9269 12.7264C8.4669 11.9764 8.2069 11.3064 7.2469 11.3064H5.2769C6.4669 6.1564 11.0769 2.3264 16.5969 2.3264C23.0269 2.3264 28.2169 7.5164 28.2169 13.9464C28.2169 20.3664 23.0269 25.5664 16.5969 25.5664C12.7169 25.5664 9.2569 23.6564 7.1969 20.7564C6.7669 20.1964 6.1269 20.0164 5.5569 20.3564C5.0069 20.6964 4.8369 21.4664 5.3069 22.0664C7.8369 25.6064 11.9769 27.8864 16.5969 27.8864C24.2969 27.8864 30.5469 21.6464 30.5469 13.9464C30.5469 6.2464 24.2969 -0.0036 16.5969 -0.0036C9.8069 -0.0036 4.1269 4.8664 2.8969 11.3064ZM16.5969 21.5464C16.8469 21.5464 17.0469 21.3464 17.0469 21.0964V19.9064C19.1869 19.7864 20.9869 18.7064 20.9869 16.4864C20.9869 14.4364 19.3369 13.6464 17.4769 13.2064L17.0469 13.1064V9.1464C18.1669 9.2564 18.9469 9.8264 19.2769 10.8564C19.4169 11.2664 19.6769 11.4664 20.0469 11.4664C20.3869 11.4664 20.7869 11.2564 20.7869 10.7764C20.7869 9.1464 18.8669 7.9664 17.0469 7.7964V6.6264C17.0469 6.3864 16.8469 6.1764 16.5969 6.1764C16.3569 6.1764 16.1469 6.3864 16.1469 6.6264V7.7964C14.1369 7.9564 12.4269 9.1564 12.4269 11.1164C12.4269 13.1564 14.1369 13.9364 15.8169 14.3264L16.1469 14.4064V18.5564C14.9569 18.4564 14.1369 17.9464 13.6969 16.7864C13.5369 16.3764 13.3069 16.1964 12.9369 16.1964C12.5369 16.1964 12.2069 16.4764 12.2069 16.9164C12.2069 17.0464 12.2369 17.1864 12.2969 17.3464C12.7669 18.9864 14.4969 19.7864 16.1469 19.9064V21.0964C16.1469 21.3464 16.3569 21.5464 16.5969 21.5464ZM13.9569 11.0064C13.9569 9.8664 15.0269 9.2864 16.1469 9.1464V12.8964C14.9769 12.6164 13.9569 12.1164 13.9569 11.0064ZM17.1369 14.6464C18.3469 14.9264 19.4669 15.3664 19.4669 16.6064C19.4669 17.9664 18.3069 18.4664 17.0469 18.5664V14.6164Z" /></svg>