
<svg
    viewBox={0 0 27.890625 27.890625}
    xmlns="http://www.w3.org/2000/svg"
>
    <path
        fill="inherit"
        d="M13.9427 27.8864C21.6427 27.8864 27.8927 21.6464 27.8927 13.9464C27.8927 6.2464 21.6427 -0.0036 13.9427 -0.0036C6.2527 -0.0036 0.0027 6.2464 0.0027 13.9464C0.0027 21.6464 6.2527 27.8864 13.9427 27.8864ZM13.9427 25.5664C7.5227 25.5664 2.3227 20.3664 2.3227 13.9464C2.3227 7.5164 7.5227 2.3264 13.9427 2.3264C20.3727 2.3264 25.5627 7.5164 25.5627 13.9464C25.5627 20.3664 20.3727 25.5664 13.9427 25.5664ZM13.9327 21.5464C14.1827 21.5464 14.3827 21.3464 14.3827 21.0964V19.9064C16.5127 19.7864 18.3227 18.7064 18.3227 16.4864C18.3227 14.4364 16.6627 13.6464 14.8027 13.2064L14.3827 13.1064V9.1464C15.5027 9.2564 16.2827 9.8264 16.6127 10.8564C16.7527 11.2664 17.0127 11.4664 17.3727 11.4664C17.7227 11.4664 18.1127 11.2564 18.1127 10.7764C18.1127 9.1464 16.2027 7.9664 14.3827 7.7964V6.6264C14.3827 6.3864 14.1827 6.1764 13.9327 6.1764C13.6827 6.1764 13.4827 6.3864 13.4827 6.6264V7.7964C11.4727 7.9564 9.7627 9.1564 9.7627 11.1164C9.7627 13.1564 11.4727 13.9364 13.1527 14.3264L13.4827 14.4064V18.5564C12.2927 18.4564 11.4727 17.9464 11.0327 16.7864C10.8727 16.3764 10.6327 16.1964 10.2627 16.1964C9.8727 16.1964 9.5427 16.4764 9.5427 16.9164C9.5427 17.0464 9.5727 17.1864 9.6227 17.3464C10.1027 18.9864 11.8227 19.7864 13.4827 19.9064V21.0964C13.4827 21.3464 13.6827 21.5464 13.9327 21.5464ZM11.2927 11.0064C11.2927 9.8664 12.3627 9.2864 13.4827 9.1464V12.8964C12.3027 12.6164 11.2927 12.1164 11.2927 11.0064ZM14.4627 14.6464C15.6827 14.9264 16.8027 15.3664 16.8027 16.6064C16.8027 17.9664 15.6427 18.4664 14.3827 18.5664V14.6164Z"
        fillRule="evenodd"
        clipRule="evenodd"
    />
</svg>
        