
<svg
    viewBox={0 0 32.935546875 27.26189615322232}
    xmlns="http://www.w3.org/2000/svg"
>
    <path
        fill="inherit"
        d="M32.9327 16.3992C32.9327 7.7792 26.3227 0.7192 17.8927 -0.0008C17.4627 -0.0408 17.1327 0.2792 17.1327 0.7192V5.1892C17.1327 5.5592 17.3927 5.8392 17.7627 5.8692C22.9927 6.5092 27.0727 10.9792 27.0727 16.3992C27.0727 18.8592 26.2227 21.1292 24.7327 23.0292C24.5427 23.2592 24.5527 23.5592 24.7627 23.7792L28.0227 27.0292C28.3327 27.3292 28.7927 27.3292 29.0627 27.0092C31.4827 24.1392 32.9327 20.4292 32.9327 16.3992ZM0.0027 16.3992C0.0027 20.4392 1.4527 24.1492 3.8727 27.0192C4.1427 27.3492 4.5927 27.3292 4.9127 27.0292L8.1727 23.7792C8.3827 23.5592 8.3927 23.2592 8.2027 23.0292C6.7027 21.1292 5.8627 18.8592 5.8627 16.3992C5.8627 10.9792 9.9427 6.5092 15.1727 5.8692C15.5427 5.8392 15.8027 5.5592 15.8027 5.1892V0.7192C15.8027 0.2792 15.4727 -0.0408 15.0427 -0.0008C6.6127 0.7192 0.0027 7.7792 0.0027 16.3992ZM16.4427 24.1792C16.7027 24.1792 16.9127 23.9692 16.9127 23.7292V22.5392C19.0327 22.4092 20.8527 21.3292 20.8527 19.1292C20.8527 17.0692 19.1827 16.2692 17.3227 15.8392L16.9127 15.7392V11.7792C18.0327 11.8992 18.8027 12.4692 19.1227 13.4792C19.2627 13.9092 19.5227 14.1092 19.8927 14.1092C20.2527 14.1092 20.6327 13.8792 20.6327 13.3992C20.6327 11.7892 18.7127 10.5992 16.9127 10.4392V9.2692C16.9127 9.0092 16.7027 8.8192 16.4427 8.8192C16.2027 8.8192 15.9927 9.0092 15.9927 9.2692V10.4392C14.0027 10.5992 12.2727 11.7892 12.2727 13.7592C12.2727 15.7992 14.0027 16.5592 15.6827 16.9692L15.9927 17.0392V21.1992C14.8227 21.0892 13.9827 20.5792 13.5627 19.4292C13.3827 19.0092 13.1627 18.8392 12.7927 18.8392C12.3827 18.8392 12.0627 19.0992 12.0627 19.5592C12.0627 19.6792 12.1027 19.8292 12.1427 19.9792C12.6227 21.6292 14.3427 22.4092 15.9927 22.5392V23.7292C15.9927 23.9692 16.2027 24.1792 16.4427 24.1792ZM13.8127 13.6392C13.8127 12.4992 14.8727 11.9092 15.9927 11.7892V15.5392C14.8227 15.2592 13.8127 14.7592 13.8127 13.6392ZM16.9927 17.2692C18.2127 17.5592 19.3227 17.9992 19.3227 19.2492C19.3227 20.5892 18.1527 21.1092 16.9127 21.1992V17.2592Z"
        fillRule="evenodd"
        clipRule="evenodd"
    />
</svg>
        