
<svg
    viewBox="0 0 32.935546875 27.33018496744969"
    xmlns="http://www.w3.org/2000/svg"
>
    <path
        fill="inherit"
        d="M16.4627 5.864C18.9327 5.864 21.2027 6.724 23.0227 8.134C23.2927 8.354 23.6527 8.324 23.9127 8.064L27.0827 4.894C27.4027 4.584 27.3827 4.124 27.0527 3.854C24.2027 1.454 20.4927 0.004 16.4627 0.004C12.4427 0.004 8.7327 1.454 5.8827 3.854C5.5527 4.124 5.5327 4.584 5.8527 4.894L9.0227 8.064C9.2827 8.324 9.6527 8.354 9.9527 8.124C11.7627 6.724 14.0127 5.864 16.4627 5.864ZM0.0027 16.464C0.0027 20.494 1.4527 24.204 3.8727 27.074C4.1427 27.414 4.6027 27.414 4.9127 27.094L8.1627 23.844C8.3627 23.624 8.3927 23.324 8.2027 23.094C6.7127 21.194 5.8627 18.924 5.8627 16.464C5.8627 14.014 6.7027 11.744 8.1227 9.944C8.3427 9.654 8.3427 9.284 8.0827 9.024L4.9127 5.854C4.5927 5.534 4.1427 5.534 3.8727 5.864C1.4527 8.734 0.0027 12.444 0.0027 16.464ZM32.9327 16.464C32.9327 12.444 31.4827 8.734 29.0627 5.864C28.7927 5.534 28.3327 5.534 28.0227 5.854L24.8527 9.024C24.5927 9.284 24.5827 9.654 24.8127 9.944C26.2227 11.744 27.0727 14.014 27.0727 16.464C27.0727 18.924 26.2227 21.194 24.7327 23.094C24.5427 23.324 24.5527 23.624 24.7627 23.844L28.0127 27.094C28.3327 27.414 28.7827 27.414 29.0627 27.074C31.4827 24.204 32.9327 20.494 32.9327 16.464ZM16.4427 24.244C16.7027 24.244 16.9127 24.034 16.9127 23.794V22.604C19.0327 22.474 20.8527 21.394 20.8527 19.194C20.8527 17.134 19.1827 16.334 17.3227 15.904L16.9127 15.804V11.844C18.0327 11.964 18.8027 12.534 19.1227 13.544C19.2627 13.974 19.5227 14.174 19.8927 14.174C20.2527 14.174 20.6327 13.944 20.6327 13.464C20.6327 11.854 18.7127 10.664 16.9127 10.504V9.334C16.9127 9.074 16.7027 8.884 16.4427 8.884C16.2027 8.884 15.9927 9.074 15.9927 9.334V10.504C14.0027 10.664 12.2727 11.854 12.2727 13.824C12.2727 15.864 14.0027 16.624 15.6827 17.034L15.9927 17.104V21.264C14.8227 21.154 13.9827 20.644 13.5627 19.494C13.3827 19.074 13.1627 18.904 12.7927 18.904C12.3827 18.904 12.0627 19.164 12.0627 19.624C12.0627 19.744 12.1027 19.894 12.1427 20.044C12.6227 21.694 14.3427 22.474 15.9927 22.604V23.794C15.9927 24.034 16.2027 24.244 16.4427 24.244ZM13.8127 13.704C13.8127 12.564 14.8727 11.974 15.9927 11.854V15.604C14.8227 15.324 13.8127 14.824 13.8127 13.704ZM16.9927 17.334C18.2127 17.624 19.3227 18.064 19.3227 19.314C19.3227 20.654 18.1527 21.174 16.9127 21.264V17.324Z"
        fillRule="evenodd"
        clipRule="evenodd"
    />
</svg>
        