
<svg
    viewBox={0 0 30.529296875 29.17578125}
    xmlns="http://www.w3.org/2000/svg"
>
    <path
        fill="inherit"
        d="M1.0937 29.179H29.4237C30.0237 29.179 30.5337 28.669 30.5337 28.069C30.5337 27.469 30.0237 26.979 29.4237 26.979H28.7137V25.979C28.7137 25.429 28.3937 25.099 27.8337 25.099H26.9637V9.379H28.1637C28.9137 9.379 29.3537 8.829 29.3537 8.269C29.3537 7.859 29.1237 7.509 28.6137 7.219L16.9437 0.479C16.3937 0.169 15.8137 -0.001 15.2537 -0.001C14.6937 -0.001 14.1137 0.169 13.5937 0.479L1.9137 7.219C1.3937 7.509 1.1737 7.859 1.1737 8.269C1.1737 8.829 1.6137 9.379 2.3637 9.379H3.5637V25.099H2.7037C2.1437 25.099 1.8137 25.429 1.8137 25.979V26.979H1.0937C0.4937 26.979 0.0037 27.469 0.0037 28.069C0.0037 28.669 0.4937 29.179 1.0937 29.179ZM15.2737 23.459C15.0137 23.459 14.8037 23.239 14.8037 22.979V21.769C13.0937 21.629 11.3237 20.819 10.8137 19.109C10.7737 18.959 10.7437 18.809 10.7437 18.679C10.7437 18.209 11.0837 17.939 11.4937 17.939C11.8837 17.939 12.1137 18.129 12.2937 18.549C12.7237 19.739 13.5937 20.259 14.8037 20.359V16.089L14.4637 16.009C12.7237 15.599 10.9637 14.809 10.9637 12.699C10.9637 10.679 12.7237 9.429 14.8037 9.269V8.069C14.8037 7.819 15.0137 7.599 15.2737 7.599C15.5337 7.599 15.7337 7.819 15.7337 8.069V9.269C17.6237 9.429 19.5937 10.669 19.5937 12.349C19.5937 12.839 19.1837 13.069 18.8237 13.069C18.4437 13.069 18.1737 12.849 18.0337 12.429C17.6937 11.379 16.8837 10.769 15.7337 10.669V14.749L16.1637 14.849C18.0837 15.299 19.7937 16.119 19.7937 18.239C19.7937 20.519 17.9337 21.629 15.7337 21.769V22.979C15.7337 23.239 15.5337 23.459 15.2737 23.459ZM12.5537 12.579C12.5537 13.699 13.5337 14.219 14.7137 14.509L14.8037 14.529V10.669C13.6437 10.819 12.5537 11.399 12.5537 12.579ZM15.7337 20.369C17.0237 20.279 18.2237 19.759 18.2237 18.359C18.2237 17.089 17.1037 16.649 15.8737 16.349L15.7337 16.309Z"
        fillRule="evenodd"
        clipRule="evenodd"
    />
</svg>
        