<svg viewBox="0 0 25.169921875 25.169921875" xmlns="http://www.w3.org/2000/svg"><path d="M4.2937 25.1692H20.8737C23.7437 25.1692 25.1737 23.7592 25.1737 20.9492V4.2392C25.1737 1.4192 23.7437 -0.0008 20.8737 -0.0008H4.2937C1.4337 -0.0008 0.0037 1.4192 0.0037 4.2392V20.9492C0.0037 23.7592 1.4337 25.1692 4.2937 25.1692ZM4.3237 22.9692C2.9537 22.9692 2.2037 22.2392 2.2037 20.8192V4.3592C2.2037 2.9392 2.9537 2.1992 4.3237 2.1992H20.8537C22.2037 2.1992 22.9737 2.9392 22.9737 4.3592V20.8192C22.9737 22.2392 22.2037 22.9692 20.8537 22.9692ZM12.5937 20.1792C12.8337 20.1792 13.0437 19.9792 13.0437 19.7292V18.5392C15.1737 18.4192 16.9837 17.3392 16.9837 15.1192C16.9837 13.0692 15.3237 12.2792 13.4637 11.8392L13.0437 11.7392V7.7792C14.1637 7.8892 14.9437 8.4592 15.2737 9.4892C15.4037 9.8992 15.6637 10.0992 16.0337 10.0992C16.3937 10.0992 16.7737 9.8892 16.7737 9.4092C16.7737 7.7792 14.8637 6.5992 13.0437 6.4292V5.2592C13.0437 5.0192 12.8337 4.8092 12.5937 4.8092C12.3437 4.8092 12.1437 5.0192 12.1437 5.2592V6.4292C10.1437 6.5892 8.4237 7.7892 8.4237 9.7492C8.4237 11.7892 10.1437 12.5692 11.8237 12.9592L12.1437 13.0392V17.1892C10.9637 17.0892 10.1337 16.5792 9.6937 15.4192C9.5337 15.0092 9.2937 14.8292 8.9437 14.8292C8.5337 14.8292 8.2037 15.1092 8.2037 15.5492C8.2037 15.6792 8.2337 15.8192 8.2837 15.9792C8.7637 17.6192 10.4837 18.4192 12.1437 18.5392V19.7292C12.1437 19.9792 12.3437 20.1792 12.5937 20.1792ZM9.9537 9.6392C9.9537 8.4992 11.0237 7.9192 12.1437 7.7792V11.5292C10.9637 11.2492 9.9537 10.7492 9.9537 9.6392ZM13.1237 13.2792C14.3537 13.5592 15.4637 13.9992 15.4637 15.2392C15.4637 16.5992 14.3037 17.0992 13.0437 17.1992V13.2492Z" /></svg>