
<svg
    viewBox={0 0 17.3359375 30.81640625}
    xmlns="http://www.w3.org/2000/svg"
>
    <path
        fill="inherit"
        d="M8.6637 30.8193C9.1637 30.8193 9.5537 30.4093 9.5537 29.9093V27.4693C13.8237 27.2093 17.3337 24.9093 17.3337 20.7393C17.3337 16.6393 14.1237 15.1793 10.3037 14.2593L9.5537 14.0693V5.6093C11.9637 5.8393 13.6737 7.1393 14.3537 9.3193C14.5737 9.9693 14.9937 10.3993 15.7137 10.3993C16.4237 10.3993 16.9437 9.9093 16.9437 9.1893C16.9437 8.0893 16.2137 6.6193 15.2737 5.6693C13.7937 4.1993 11.7437 3.3993 9.5537 3.2493V0.8893C9.5537 0.4093 9.1637 -0.0007 8.6637 -0.0007C8.1737 -0.0007 7.7837 0.4093 7.7837 0.8893V3.2493C3.8837 3.5693 0.5037 5.8193 0.5037 9.7793C0.5037 13.5593 3.7337 15.2693 7.2437 16.0793L7.7837 16.1993V25.1193C5.2237 24.8693 3.2137 23.6493 2.5737 21.2293C2.3637 20.5593 1.9737 20.1793 1.2737 20.1793C0.5037 20.1793 0.0037 20.6993 0.0037 21.3793C0.0037 22.6493 0.8337 24.1293 1.7737 25.0293C3.3937 26.5493 5.5637 27.2893 7.7837 27.4493V29.9093C7.7837 30.4093 8.1737 30.8193 8.6637 30.8193ZM7.6837 13.6193C5.1937 13.0193 3.1337 11.9393 3.1337 9.5693C3.1337 7.2193 5.3437 5.8893 7.7837 5.6193V13.6493ZM9.8837 16.6893C12.5137 17.3093 14.7237 18.2693 14.7237 20.9493C14.7237 23.6893 12.4137 24.9493 9.5537 25.1393V16.6093Z"
        fillRule="evenodd"
        clipRule="evenodd"
    />
</svg>
        