
<svg
    viewBox="0 0 30.529296875 29.17578125"
    xmlns="http://www.w3.org/2000/svg"
>
    <path
        fill="inherit"
        d="M1.8137 25.919H28.7137V25.009C28.7137 24.459 28.3937 24.129 27.8337 24.129H26.9637V9.379H28.1637C28.9137 9.379 29.3537 8.829 29.3537 8.269C29.3537 7.859 29.1237 7.509 28.6137 7.219L16.9437 0.479C16.3937 0.169 15.8137 -0.001 15.2537 -0.001C14.6937 -0.001 14.1137 0.169 13.5937 0.479L1.9137 7.219C1.3937 7.509 1.1737 7.859 1.1737 8.269C1.1737 8.829 1.6137 9.379 2.3637 9.379H3.5637V24.129H2.7037C2.1437 24.129 1.8137 24.459 1.8137 25.009ZM5.6337 24.129V7.629L14.7237 2.529C14.8937 2.429 15.0837 2.379 15.2537 2.379C15.4337 2.379 15.6237 2.429 15.8037 2.529L24.8937 7.629V24.129ZM15.2737 21.989C15.5137 21.989 15.7237 21.779 15.7237 21.529V20.339C17.8537 20.219 19.6637 19.139 19.6637 16.939C19.6637 14.879 18.0037 14.079 16.1337 13.649L15.7237 13.549V9.579C16.8437 9.709 17.6237 10.279 17.9537 11.289C18.0837 11.719 18.3437 11.919 18.7137 11.919C19.0537 11.919 19.4537 11.689 19.4537 11.209C19.4537 9.579 17.5437 8.409 15.7237 8.249V7.079C15.7237 6.819 15.5137 6.629 15.2737 6.629C15.0237 6.629 14.8237 6.819 14.8237 7.079V8.249C12.8137 8.409 11.1037 9.599 11.1037 11.569C11.1037 13.599 12.8137 14.369 14.4937 14.779L14.8237 14.849V18.999C13.6337 18.899 12.8137 18.389 12.3737 17.239C12.2137 16.819 11.9737 16.649 11.6037 16.649C11.2137 16.649 10.8837 16.909 10.8837 17.359C10.8837 17.489 10.9137 17.639 10.9537 17.789C11.4437 19.439 13.1637 20.219 14.8237 20.339V21.529C14.8237 21.779 15.0237 21.989 15.2737 21.989ZM12.6337 11.439C12.6337 10.309 13.7037 9.719 14.8237 9.599V13.339C13.6437 13.069 12.6337 12.569 12.6337 11.439ZM15.8037 15.079C17.0237 15.369 18.1437 15.809 18.1437 17.059C18.1437 18.399 16.9637 18.919 15.7237 18.999V15.069ZM1.0937 29.179H29.4237C30.0237 29.179 30.5337 28.669 30.5337 28.069C30.5337 27.469 30.0237 26.979 29.4237 26.979H1.0937C0.4937 26.979 0.0037 27.469 0.0037 28.069C0.0037 28.669 0.4937 29.179 1.0937 29.179Z"
        fillRule="evenodd"
        clipRule="evenodd"
    />
</svg>
        