
<svg
    viewBox={0 0 27.890625 27.890625}
    xmlns="http://www.w3.org/2000/svg"
>
    <path
        fill="inherit"
        d="M13.9427 27.8864C21.6427 27.8864 27.8927 21.6264 27.8927 13.9464C27.8927 6.2464 21.6427 -0.0036 13.9427 -0.0036C6.2627 -0.0036 0.0027 6.2464 0.0027 13.9464C0.0027 21.6264 6.2627 27.8864 13.9427 27.8864ZM13.9427 21.7964C13.6827 21.7964 13.4827 21.5764 13.4827 21.3264V20.0964C11.7727 19.9564 9.9927 19.1564 9.5027 17.4564C9.4427 17.2964 9.4227 17.1564 9.4227 17.0064C9.4227 16.5564 9.7627 16.2664 10.1727 16.2664C10.5527 16.2664 10.7827 16.4564 10.9627 16.8864C11.4027 18.0764 12.2627 18.5964 13.4827 18.7064V14.4364L13.1427 14.3464C11.4027 13.9364 9.6427 13.1364 9.6427 11.0364C9.6427 9.0064 11.4027 7.7764 13.4827 7.6064V6.3964C13.4827 6.1564 13.6827 5.9364 13.9427 5.9364C14.2027 5.9364 14.4127 6.1564 14.4127 6.3964V7.6064C16.2927 7.7764 18.2627 8.9964 18.2627 10.6764C18.2627 11.1664 17.8527 11.4064 17.5027 11.4064C17.1127 11.4064 16.8427 11.1864 16.7027 10.7564C16.3627 9.7064 15.5627 9.1164 14.4127 8.9964V13.0864L14.8427 13.1764C16.7627 13.6264 18.4727 14.4464 18.4727 16.5664C18.4727 18.8564 16.6127 19.9564 14.4127 20.0964V21.3264C14.4127 21.5764 14.2027 21.7964 13.9427 21.7964ZM11.2227 10.9064C11.2227 12.0264 12.2127 12.5464 13.3827 12.8364L13.4827 12.8664V8.9964C12.3227 9.1464 11.2227 9.7464 11.2227 10.9064ZM14.4127 18.7164C15.6927 18.6164 16.9027 18.0864 16.9027 16.6964C16.9027 15.4364 15.7727 14.9864 14.5427 14.6864L14.4127 14.6464Z"
        fillRule="evenodd"
        clipRule="evenodd"
    />
</svg>
        