
<svg
    viewBox={0 0 30.529296875 29.17578125}
    xmlns="http://www.w3.org/2000/svg"
>
    <path
        fill="inherit"
        d="M1.8137 25.919H28.7137V25.009C28.7137 24.459 28.3937 24.129 27.8337 24.129H26.9637V9.379H28.1637C28.9137 9.379 29.3537 8.829 29.3537 8.269C29.3537 7.859 29.1237 7.509 28.6137 7.219L16.9437 0.479C16.3937 0.169 15.8137 -0.001 15.2537 -0.001C14.6937 -0.001 14.1137 0.169 13.5937 0.479L1.9137 7.219C1.3937 7.509 1.1737 7.859 1.1737 8.269C1.1737 8.829 1.6137 9.379 2.3637 9.379H3.5637V24.129H2.7037C2.1437 24.129 1.8137 24.459 1.8137 25.009ZM5.6337 24.129V7.629L14.7237 2.529C14.8937 2.429 15.0837 2.379 15.2537 2.379C15.4337 2.379 15.6237 2.429 15.8037 2.529L24.8937 7.629V24.129ZM14.2737 18.919C15.4537 18.919 16.5537 18.459 17.1037 17.379H17.1537V18.329C17.1537 18.759 17.4737 19.069 17.8937 19.069C18.3237 19.069 18.6337 18.759 18.6337 18.329V9.599H19.6437C19.8937 9.599 20.0937 9.389 20.0937 9.149C20.0937 8.889 19.8937 8.709 19.6437 8.709H18.6337V8.149C18.6337 7.669 18.3337 7.369 17.8737 7.369C17.3937 7.369 17.1037 7.669 17.1037 8.149V8.709H14.4937C14.2437 8.709 14.0437 8.889 14.0437 9.149C14.0437 9.409 14.2437 9.599 14.4937 9.599H17.1037V12.389H17.0537C16.5537 11.329 15.4637 10.839 14.2737 10.839C12.2537 10.839 10.5937 12.399 10.5937 14.879C10.5937 17.129 12.0437 18.919 14.2737 18.919ZM14.6737 17.609C13.0837 17.609 12.1537 16.419 12.1537 14.879C12.1537 13.249 13.2037 12.139 14.6737 12.139C16.2137 12.139 17.1137 13.429 17.1137 14.879C17.1137 16.449 16.0937 17.609 14.6737 17.609ZM11.2937 20.389C11.2937 20.659 11.5137 20.849 11.7837 20.849H18.5537C18.8137 20.849 19.0337 20.649 19.0337 20.389C19.0337 20.129 18.8137 19.919 18.5537 19.919H11.7837C11.5137 19.919 11.2937 20.129 11.2937 20.389ZM1.0937 29.179H29.4237C30.0237 29.179 30.5337 28.669 30.5337 28.069C30.5337 27.469 30.0237 26.979 29.4237 26.979H1.0937C0.4937 26.979 0.0037 27.469 0.0037 28.069C0.0037 28.669 0.4937 29.179 1.0937 29.179Z"
        fillRule="evenodd"
        clipRule="evenodd"
    />
</svg>
        