
<svg
    viewBox={0 0 30.5703125 30.5703125}
    xmlns="http://www.w3.org/2000/svg"
>
    <path
        fill="inherit"
        d="M15.2827 30.5663C23.6827 30.5663 30.5727 23.6763 30.5727 15.2863C30.5727 6.8863 23.6827 -0.0038 15.2827 -0.0038C6.8927 -0.0038 0.0027 6.8863 0.0027 15.2863C0.0027 23.6763 6.8927 30.5663 15.2827 30.5663ZM15.2827 25.4862C9.6527 25.4862 5.0827 20.9162 5.0827 15.2863C5.0827 9.6363 9.6527 5.0863 15.2827 5.0863C20.9327 5.0863 25.4827 9.6363 25.4827 15.2863C25.4827 20.9162 20.9327 25.4862 15.2827 25.4862ZM14.3027 19.8263C15.4727 19.8263 16.5727 19.3463 17.1327 18.2763H17.1727V19.2263C17.1727 19.6463 17.4827 19.9763 17.9127 19.9763C18.3327 19.9763 18.6527 19.6463 18.6527 19.2263V10.4863H19.6627C19.9027 10.4863 20.1127 10.2963 20.1127 10.0363C20.1127 9.7863 19.9027 9.5963 19.6627 9.5963H18.6527V9.0463C18.6527 8.5763 18.3627 8.2763 17.8827 8.2763C17.4227 8.2763 17.1127 8.5763 17.1127 9.0463V9.5963H14.5027C14.2627 9.5963 14.0527 9.7863 14.0527 10.0363C14.0527 10.3063 14.2627 10.4863 14.5027 10.4863H17.1127V13.2763H17.0627C16.5827 12.2263 15.4727 11.7463 14.3027 11.7463C12.2627 11.7463 10.6127 13.3063 10.6127 15.7763C10.6127 18.0163 12.0627 19.8263 14.3027 19.8263ZM14.6827 18.5163C13.0927 18.5163 12.1827 17.3063 12.1827 15.7763C12.1827 14.1463 13.2227 13.0463 14.6827 13.0463C16.2327 13.0463 17.1327 14.3163 17.1327 15.7763C17.1327 17.3463 16.1027 18.5163 14.6827 18.5163ZM11.3227 21.2863C11.3227 21.5463 11.5427 21.7563 11.8027 21.7563H18.5627C18.8227 21.7563 19.0427 21.5463 19.0427 21.2863C19.0427 21.0163 18.8227 20.8263 18.5627 20.8263H11.8027C11.5427 20.8263 11.3227 21.0163 11.3227 21.2863Z"
        fillRule="evenodd"
        clipRule="evenodd"
    />
</svg>
        