
<svg
    viewBox="0 0 32.935546875 27.33018496744969"
    xmlns="http://www.w3.org/2000/svg"
>
    <path
        fill="inherit"
        d="M16.4627 5.864C18.9327 5.864 21.2027 6.724 23.0227 8.134C23.2927 8.354 23.6527 8.324 23.9127 8.064L27.0827 4.894C27.4027 4.584 27.3827 4.124 27.0527 3.854C24.2027 1.454 20.4927 0.004 16.4627 0.004C12.4427 0.004 8.7327 1.454 5.8827 3.854C5.5527 4.124 5.5327 4.584 5.8527 4.894L9.0227 8.064C9.2827 8.324 9.6527 8.354 9.9527 8.124C11.7627 6.724 14.0127 5.864 16.4627 5.864ZM0.0027 16.464C0.0027 20.494 1.4527 24.204 3.8727 27.074C4.1427 27.414 4.6027 27.414 4.9127 27.094L8.1627 23.844C8.3627 23.624 8.3927 23.324 8.2027 23.094C6.7127 21.194 5.8627 18.924 5.8627 16.464C5.8627 14.014 6.7027 11.744 8.1227 9.944C8.3427 9.654 8.3427 9.284 8.0827 9.024L4.9127 5.854C4.5927 5.534 4.1427 5.534 3.8727 5.864C1.4527 8.734 0.0027 12.444 0.0027 16.464ZM32.9327 16.464C32.9327 12.444 31.4827 8.734 29.0627 5.864C28.7927 5.534 28.3327 5.534 28.0227 5.854L24.8527 9.024C24.5927 9.284 24.5827 9.654 24.8127 9.944C26.2227 11.744 27.0727 14.014 27.0727 16.464C27.0727 18.924 26.2227 21.194 24.7327 23.094C24.5427 23.324 24.5527 23.624 24.7627 23.844L28.0127 27.094C28.3327 27.414 28.7827 27.414 29.0627 27.074C31.4827 24.204 32.9327 20.494 32.9327 16.464ZM15.4627 21.174C16.6427 21.174 17.7327 20.714 18.2927 19.634H18.3327V20.594C18.3327 21.014 18.6527 21.324 19.0727 21.324C19.4927 21.324 19.8127 21.014 19.8127 20.594V11.854H20.8227C21.0827 11.854 21.2827 11.644 21.2827 11.404C21.2827 11.144 21.0827 10.964 20.8227 10.964H19.8127V10.404C19.8127 9.924 19.5227 9.624 19.0427 9.624C18.5827 9.624 18.2927 9.924 18.2927 10.404V10.964H15.6827C15.4227 10.964 15.2127 11.144 15.2127 11.404C15.2127 11.664 15.4227 11.854 15.6827 11.854H18.2927V14.644H18.2227C17.7427 13.594 16.6427 13.094 15.4627 13.094C13.4227 13.094 11.7727 14.654 11.7727 17.134C11.7727 19.384 13.2327 21.174 15.4627 21.174ZM15.8427 19.864C14.2727 19.864 13.3427 18.674 13.3427 17.134C13.3427 15.504 14.3827 14.394 15.8427 14.394C17.3927 14.394 18.2927 15.684 18.2927 17.134C18.2927 18.704 17.2827 19.864 15.8427 19.864ZM12.4827 22.644C12.4827 22.914 12.7027 23.104 12.9627 23.104H19.7327C19.9927 23.104 20.2027 22.904 20.2027 22.644C20.2027 22.384 19.9927 22.174 19.7327 22.174H12.9627C12.7027 22.174 12.4827 22.384 12.4827 22.644Z"
        fillRule="evenodd"
        clipRule="evenodd"
    />
</svg>
        