
<svg
    viewBox={0 0 30.529296875 29.17578125}
    xmlns="http://www.w3.org/2000/svg"
>
    <path
        fill="inherit"
        d="M1.0937 29.179H29.4237C30.0237 29.179 30.5337 28.669 30.5337 28.069C30.5337 27.469 30.0237 26.979 29.4237 26.979H28.7137V25.979C28.7137 25.429 28.3937 25.099 27.8337 25.099H26.9637V9.379H28.1637C28.9137 9.379 29.3537 8.829 29.3537 8.269C29.3537 7.859 29.1237 7.509 28.6137 7.219L16.9437 0.479C16.3937 0.169 15.8137 -0.001 15.2537 -0.001C14.6937 -0.001 14.1137 0.169 13.5937 0.479L1.9137 7.219C1.3937 7.509 1.1737 7.859 1.1737 8.269C1.1737 8.829 1.6137 9.379 2.3637 9.379H3.5637V25.099H2.7037C2.1437 25.099 1.8137 25.429 1.8137 25.979V26.979H1.0937C0.4937 26.979 0.0037 27.469 0.0037 28.069C0.0037 28.669 0.4937 29.179 1.0937 29.179ZM14.2337 20.289C11.9337 20.289 10.4437 18.439 10.4437 16.119C10.4437 13.579 12.1537 11.949 14.2337 11.949C15.4637 11.949 16.5937 12.459 17.1037 13.549H17.1537V10.679H14.4637C14.2037 10.679 14.0037 10.469 14.0037 10.199C14.0037 9.949 14.2037 9.749 14.4637 9.749H17.1537V9.169C17.1537 8.699 17.4637 8.369 17.9537 8.369C18.4337 8.369 18.7437 8.699 18.7437 9.169V9.749H19.7837C20.0437 9.749 20.2437 9.949 20.2437 10.199C20.2437 10.459 20.0437 10.679 19.7837 10.679H18.7437V19.689C18.7437 20.129 18.4137 20.469 17.9737 20.469C17.5437 20.469 17.2137 20.129 17.2137 19.689V18.699H17.1537C16.5937 19.809 15.4537 20.289 14.2337 20.289ZM14.6437 18.939C16.1237 18.939 17.1737 17.729 17.1737 16.119C17.1737 14.629 16.2437 13.319 14.6437 13.319C13.1437 13.319 12.0537 14.449 12.0537 16.119C12.0537 17.709 13.0137 18.939 14.6437 18.939ZM11.1537 21.809C11.1537 21.529 11.3937 21.319 11.6737 21.319H18.6637C18.9237 21.319 19.1537 21.529 19.1537 21.809C19.1537 22.079 18.9237 22.299 18.6637 22.299H11.6737C11.3937 22.299 11.1537 22.079 11.1537 21.809Z"
        fillRule="evenodd"
        clipRule="evenodd"
    />
</svg>
        