
<svg
    viewBox="0 0 25.169921875 25.169921875"
    xmlns="http://www.w3.org/2000/svg"
>
    <path
        fill="inherit"
        d="M4.2937 25.1692H20.8737C23.7437 25.1692 25.1737 23.7592 25.1737 20.9492V4.2392C25.1737 1.4192 23.7437 -0.0008 20.8737 -0.0008H4.2937C1.4337 -0.0008 0.0037 1.4192 0.0037 4.2392V20.9492C0.0037 23.7592 1.4337 25.1692 4.2937 25.1692ZM4.3237 22.9692C2.9537 22.9692 2.2037 22.2392 2.2037 20.8192V4.3592C2.2037 2.9392 2.9537 2.1992 4.3237 2.1992H20.8537C22.2037 2.1992 22.9737 2.9392 22.9737 4.3592V20.8192C22.9737 22.2392 22.2037 22.9692 20.8537 22.9692ZM11.6037 17.1192C12.7837 17.1192 13.8737 16.6392 14.4337 15.5692H14.4737V16.5192C14.4737 16.9392 14.7937 17.2692 15.2137 17.2692C15.6437 17.2692 15.9537 16.9392 15.9537 16.5192V7.7792H16.9637C17.2137 7.7792 17.4137 7.5892 17.4137 7.3292C17.4137 7.0792 17.2137 6.8892 16.9637 6.8892H15.9537V6.3392C15.9537 5.8692 15.6637 5.5692 15.1937 5.5692C14.7237 5.5692 14.4237 5.8692 14.4237 6.3392V6.8892H11.8137C11.5637 6.8892 11.3637 7.0792 11.3637 7.3292C11.3637 7.5992 11.5637 7.7792 11.8137 7.7792H14.4237V10.5692H14.3737C13.8937 9.5192 12.7837 9.0392 11.6037 9.0392C9.5737 9.0392 7.9137 10.5992 7.9137 13.0692C7.9137 15.3092 9.3837 17.1192 11.6037 17.1192ZM11.9937 15.8092C10.4137 15.8092 9.4837 14.5992 9.4837 13.0692C9.4837 11.4392 10.5237 10.3392 11.9937 10.3392C13.5337 10.3392 14.4337 11.6092 14.4337 13.0692C14.4337 14.6392 13.4137 15.8092 11.9937 15.8092ZM8.6237 18.5792C8.6237 18.8392 8.8437 19.0492 9.1037 19.0492H15.8737C16.1337 19.0492 16.3537 18.8392 16.3537 18.5792C16.3537 18.3092 16.1337 18.1192 15.8737 18.1192H9.1037C8.8437 18.1192 8.6237 18.3092 8.6237 18.5792Z"
        fillRule="evenodd"
        clipRule="evenodd"
    />
</svg>
        