
<svg
    viewBox="0 0 25.169921875 25.169921875"
    xmlns="http://www.w3.org/2000/svg"
>
    <path
        fill="inherit"
        d="M4.2937 25.1692H20.8737C23.7437 25.1692 25.1737 23.7592 25.1737 20.9492V4.2392C25.1737 1.4192 23.7437 -0.0008 20.8737 -0.0008H4.2937C1.4337 -0.0008 0.0037 1.4192 0.0037 4.2392V20.9492C0.0037 23.7592 1.4337 25.1692 4.2937 25.1692ZM11.5637 17.2692C9.2737 17.2692 7.7637 15.4092 7.7637 13.0992C7.7637 10.5392 9.4737 8.9292 11.5637 8.9292C12.7837 8.9292 13.9337 9.4192 14.4237 10.5092H14.4737V7.6392H11.7837C11.5237 7.6392 11.3237 7.4492 11.3237 7.1592C11.3237 6.9192 11.5237 6.7092 11.7837 6.7092H14.4737V6.1492C14.4737 5.6592 14.7937 5.3492 15.2737 5.3492C15.7637 5.3492 16.0637 5.6592 16.0637 6.1492V6.7092H17.1037C17.3637 6.7092 17.5637 6.9192 17.5637 7.1592C17.5637 7.4392 17.3637 7.6392 17.1037 7.6392H16.0637V16.6492C16.0637 17.0892 15.7337 17.4292 15.3037 17.4292C14.8637 17.4292 14.5337 17.0892 14.5337 16.6492V15.6792H14.4937C13.9137 16.7792 12.7837 17.2692 11.5637 17.2692ZM11.9637 15.9092C13.4437 15.9092 14.4937 14.7092 14.4937 13.0992C14.4937 11.5892 13.5637 10.2792 11.9637 10.2792C10.4637 10.2792 9.3937 11.4192 9.3937 13.0992C9.3937 14.6692 10.3537 15.9092 11.9637 15.9092ZM8.4937 18.7892C8.4937 18.4992 8.7237 18.2892 8.9937 18.2892H15.9837C16.2437 18.2892 16.4737 18.4992 16.4737 18.7892C16.4737 19.0492 16.2437 19.2592 15.9837 19.2592H8.9937C8.7237 19.2592 8.4937 19.0492 8.4937 18.7892Z"
        fillRule="evenodd"
        clipRule="evenodd"
    />
</svg>
        