
<svg
    viewBox={0 0 18.6484375 26.865234375}
    xmlns="http://www.w3.org/2000/svg"
>
    <path
        fill="inherit"
        d="M7.3237 23.0405C10.1537 23.0405 12.1537 21.7005 13.1137 19.7605H13.1937V22.0705C13.1937 22.8205 13.7137 23.3505 14.4237 23.3405C15.1437 23.3405 15.6637 22.8205 15.6637 22.0805V4.4405L17.7637 4.4305C18.2637 4.4305 18.6437 4.0605 18.6437 3.5705C18.6437 3.0805 18.2637 2.7105 17.7637 2.7105L15.6637 2.7205V1.3405C15.6637 0.5705 15.1037 0.0005 14.3737 0.0005C13.6137 0.0005 13.0737 0.5705 13.0737 1.3405V2.7205H7.6937C7.1937 2.7205 6.8037 3.0905 6.8037 3.5805C6.8037 4.0905 7.1937 4.4405 7.6937 4.4405H13.0737V10.2705H12.9837C12.0137 8.1205 9.8137 7.0305 7.3237 7.0305C2.9137 7.0305 0.0037 10.5305 0.0037 15.0205C0.0037 19.7605 3.1037 23.0405 7.3237 23.0405ZM7.9337 20.7405C4.6637 20.7405 2.6937 18.2805 2.6937 15.0205C2.6937 11.4705 4.9637 9.3105 7.9337 9.3105C10.9337 9.3105 13.0837 11.7805 13.0837 15.0205C13.0837 18.2205 10.9537 20.7405 7.9337 20.7405ZM1.3637 25.9805C1.3637 26.5005 1.7537 26.8605 2.2737 26.8605H15.5737C16.0937 26.8605 16.4737 26.4805 16.4737 25.9805C16.4737 25.4705 16.0937 25.0905 15.5737 25.0905H2.2737C1.7537 25.0905 1.3637 25.4705 1.3637 25.9805Z"
        fillRule="evenodd"
        clipRule="evenodd"
    />
</svg>
        