
<svg
    viewBox="0 0 27.890625 27.890625"
    xmlns="http://www.w3.org/2000/svg"
>
    <path
        fill="inherit"
        d="M13.9427 27.8864C21.6427 27.8864 27.8927 21.6464 27.8927 13.9464C27.8927 6.2464 21.6427 -0.0036 13.9427 -0.0036C6.2527 -0.0036 0.0027 6.2464 0.0027 13.9464C0.0027 21.6464 6.2527 27.8864 13.9427 27.8864ZM13.9427 25.5664C7.5227 25.5664 2.3227 20.3664 2.3227 13.9464C2.3227 7.5164 7.5227 2.3264 13.9427 2.3264C20.3727 2.3264 25.5627 7.5164 25.5627 13.9464C25.5627 20.3664 20.3727 25.5664 13.9427 25.5664ZM12.9327 18.4864C14.1227 18.4864 15.2127 18.0064 15.7627 16.9364H15.8227V17.8864C15.8227 18.3064 16.1327 18.6364 16.5527 18.6364C16.9827 18.6364 17.2927 18.3064 17.2927 17.8864V9.1464H18.3027C18.5527 9.1464 18.7627 8.9564 18.7627 8.6964C18.7627 8.4464 18.5527 8.2564 18.3027 8.2564H17.2927V7.7064C17.2927 7.2364 16.9927 6.9364 16.5327 6.9364C16.0627 6.9364 15.7627 7.2364 15.7627 7.7064V8.2564H13.1527C12.9027 8.2564 12.7027 8.4464 12.7027 8.6964C12.7027 8.9664 12.9027 9.1464 13.1527 9.1464H15.7627V11.9364H15.7127C15.2127 10.8864 14.1227 10.4064 12.9327 10.4064C10.9127 10.4064 9.2527 11.9664 9.2527 14.4364C9.2527 16.6764 10.7027 18.4864 12.9327 18.4864ZM13.3327 17.1764C11.7427 17.1764 10.8327 15.9664 10.8327 14.4364C10.8327 12.8064 11.8627 11.7064 13.3327 11.7064C14.8727 11.7064 15.7727 12.9764 15.7727 14.4364C15.7727 16.0064 14.7527 17.1764 13.3327 17.1764ZM9.9527 19.9464C9.9527 20.2064 10.1727 20.4164 10.4427 20.4164H17.2127C17.4727 20.4164 17.6927 20.2064 17.6927 19.9464C17.6927 19.6764 17.4727 19.4864 17.2127 19.4864H10.4427C10.1727 19.4864 9.9527 19.6764 9.9527 19.9464Z"
        fillRule="evenodd"
        clipRule="evenodd"
    />
</svg>
        