
<svg
    viewBox={0 0 33.427734375 29.01171875}
    xmlns="http://www.w3.org/2000/svg"
>
    <path
        fill="inherit"
        d="M1.0937 29.007C1.7137 29.007 2.2037 28.517 2.2037 27.917V2.927C2.2037 2.487 2.4837 2.197 2.8937 2.197H30.5337C30.9437 2.197 31.2237 2.487 31.2237 2.927V27.917C31.2237 28.517 31.7237 29.007 32.3237 29.007C32.9337 29.007 33.4237 28.517 33.4237 27.917V2.787C33.4237 1.117 32.2837 -0.003 30.5537 -0.003H2.8537C1.1437 -0.003 0.0037 1.117 0.0037 2.787V27.917C0.0037 28.517 0.4937 29.007 1.0937 29.007ZM17.9637 28.537H29.1637C29.4237 28.537 29.6237 28.317 29.6237 28.067V4.247C29.6237 3.997 29.4237 3.787 29.1637 3.787H17.9637C17.7237 3.787 17.5137 3.997 17.5137 4.247V28.067C17.5137 28.317 17.7237 28.537 17.9637 28.537ZM4.2637 28.547H15.4537C15.7137 28.547 15.9137 28.337 15.9137 28.087V4.277C15.9137 4.017 15.7137 3.817 15.4537 3.817H4.2637C4.0037 3.817 3.8037 4.017 3.8037 4.277V28.087C3.8037 28.337 4.0037 28.547 4.2637 28.547ZM19.8537 11.157C19.6637 11.157 19.5237 11.017 19.5237 10.797V6.157C19.5237 5.937 19.6637 5.807 19.8537 5.807H27.2937C27.4837 5.807 27.6037 5.937 27.6037 6.157V10.797C27.6037 11.017 27.4837 11.157 27.2937 11.157ZM6.1437 11.187C5.9437 11.187 5.8137 11.047 5.8137 10.827V6.177C5.8137 5.957 5.9437 5.827 6.1437 5.827H13.5737C13.7637 5.827 13.9037 5.957 13.9037 6.177V10.827C13.9037 11.047 13.7637 11.187 13.5737 11.187ZM19.8537 18.827C19.6637 18.827 19.5237 18.687 19.5237 18.487V13.827C19.5237 13.617 19.6637 13.477 19.8537 13.477H27.2937C27.4837 13.477 27.6037 13.617 27.6037 13.827V18.487C27.6037 18.687 27.4837 18.827 27.2937 18.827ZM6.1437 18.857C5.9437 18.857 5.8137 18.717 5.8137 18.497V13.847C5.8137 13.627 5.9437 13.507 6.1437 13.507H13.5737C13.7637 13.507 13.9037 13.627 13.9037 13.847V18.497C13.9037 18.717 13.7637 18.857 13.5737 18.857ZM19.8537 26.507C19.6637 26.507 19.5237 26.377 19.5237 26.167V21.507C19.5237 21.297 19.6637 21.167 19.8537 21.167H27.2937C27.4837 21.167 27.6037 21.297 27.6037 21.507V26.167C27.6037 26.377 27.4837 26.507 27.2937 26.507ZM6.1437 26.537C5.9437 26.537 5.8137 26.397 5.8137 26.177V21.537C5.8137 21.317 5.9437 21.187 6.1437 21.187H13.5737C13.7637 21.187 13.9037 21.317 13.9037 21.537V26.177C13.9037 26.397 13.7637 26.537 13.5737 26.537Z"
        fillRule="evenodd"
        clipRule="evenodd"
    />
</svg>
        