
<svg
    viewBox={0 0 33.427734375 29.01171875}
    xmlns="http://www.w3.org/2000/svg"
>
    <path
        fill="inherit"
        d="M1.0937 29.007C1.7137 29.007 2.2037 28.517 2.2037 27.917V2.927C2.2037 2.487 2.4837 2.197 2.8937 2.197H30.5337C30.9437 2.197 31.2237 2.487 31.2237 2.927V27.917C31.2237 28.517 31.7237 29.007 32.3237 29.007C32.9337 29.007 33.4237 28.517 33.4237 27.917V2.787C33.4237 1.117 32.2837 -0.003 30.5537 -0.003H2.8537C1.1437 -0.003 0.0037 1.117 0.0037 2.787V27.917C0.0037 28.517 0.4937 29.007 1.0937 29.007ZM17.2937 28.537H29.1637C29.4237 28.537 29.6237 28.317 29.6237 28.067V4.247C29.6237 3.997 29.4237 3.787 29.1637 3.787H17.2937C17.0337 3.787 16.8337 3.997 16.8337 4.247V28.067C16.8337 28.317 17.0337 28.537 17.2937 28.537ZM19.9237 18.307C19.5337 18.307 19.2637 18.037 19.2637 17.637V15.247C19.2637 14.847 19.5337 14.587 19.9237 14.587C20.3137 14.587 20.5737 14.847 20.5737 15.247V17.637C20.5737 18.037 20.3137 18.307 19.9237 18.307Z"
        fillRule="evenodd"
        clipRule="evenodd"
    />
</svg>
        