
<svg
    viewBox="0 0 33.427734375 29.01171875"
    xmlns="http://www.w3.org/2000/svg"
>
    <path
        fill="inherit"
        d="M1.0937 29.007C1.7137 29.007 2.2037 28.517 2.2037 27.917V2.927C2.2037 2.487 2.4837 2.197 2.8937 2.197H30.5337C30.9437 2.197 31.2237 2.487 31.2237 2.927V27.917C31.2237 28.517 31.7237 29.007 32.3237 29.007C32.9337 29.007 33.4237 28.517 33.4237 27.917V2.787C33.4237 1.117 32.2837 -0.003 30.5537 -0.003H2.8537C1.1437 -0.003 0.0037 1.117 0.0037 2.787V27.917C0.0037 28.517 0.4937 29.007 1.0937 29.007ZM3.8037 27.987C3.8037 28.247 4.0237 28.497 4.2837 28.437L12.7837 26.537C13.0437 26.487 13.2637 26.307 13.2637 26.027V5.727C13.2637 5.467 13.0537 5.287 12.7937 5.237L4.2637 3.327C4.0237 3.277 3.8037 3.517 3.8037 3.787ZM29.6237 27.987V3.787C29.6237 3.517 29.4037 3.277 29.1637 3.327L20.6337 5.237C20.3737 5.287 20.1637 5.467 20.1637 5.727V26.027C20.1637 26.307 20.3737 26.487 20.6437 26.537L29.1437 28.437C29.4037 28.497 29.6237 28.247 29.6237 27.987ZM10.9537 11.607L6.1237 11.247C5.9437 11.237 5.8237 11.157 5.8237 10.937V6.087C5.8237 5.867 5.9637 5.767 6.1437 5.807L10.9537 6.727C11.1337 6.757 11.2637 6.847 11.2637 7.067V11.267C11.2637 11.467 11.1437 11.617 10.9537 11.607ZM22.4737 11.607C22.2837 11.617 22.1637 11.467 22.1637 11.267V7.067C22.1637 6.847 22.3037 6.757 22.4737 6.727L27.2937 5.807C27.4537 5.767 27.6037 5.867 27.6037 6.087V10.937C27.6037 11.157 27.4837 11.237 27.3037 11.247ZM5.8237 18.457V13.317C5.8237 13.097 5.9637 12.987 6.1437 12.997L10.9537 13.257C11.1437 13.277 11.2637 13.397 11.2637 13.607V18.167C11.2637 18.377 11.1337 18.487 10.9537 18.497L6.1437 18.767C5.9437 18.787 5.8237 18.667 5.8237 18.457ZM27.6037 18.457C27.6037 18.667 27.4837 18.787 27.2937 18.767L22.4737 18.497C22.2837 18.487 22.1637 18.377 22.1637 18.167V13.607C22.1637 13.397 22.2837 13.277 22.4737 13.257L27.2937 12.997C27.4637 12.987 27.6037 13.097 27.6037 13.317ZM22.4937 20.167L27.2737 20.507C27.4637 20.517 27.6037 20.647 27.6037 20.847V25.677C27.6037 25.897 27.4637 25.987 27.2937 25.947L22.4637 24.997C22.2837 24.947 22.1637 24.857 22.1637 24.647V20.467C22.1637 20.257 22.3037 20.157 22.4937 20.167ZM10.9337 20.167C11.1337 20.157 11.2637 20.257 11.2637 20.467V24.647C11.2637 24.857 11.1437 24.947 10.9637 24.997L6.1437 25.947C5.9637 25.987 5.8237 25.897 5.8237 25.677V20.847C5.8237 20.647 5.9637 20.517 6.1437 20.507Z"
        fillRule="evenodd"
        clipRule="evenodd"
    />
</svg>
        