
<svg
    viewBox={0 0 33.427734375 29.01171875}
    xmlns="http://www.w3.org/2000/svg"
>
    <path
        fill="inherit"
        d="M1.0937 29.007C1.7137 29.007 2.2037 28.517 2.2037 27.917V2.927C2.2037 2.487 2.4837 2.197 2.8937 2.197H30.5337C30.9437 2.197 31.2237 2.487 31.2237 2.927V27.917C31.2237 28.517 31.7237 29.007 32.3237 29.007C32.9337 29.007 33.4237 28.517 33.4237 27.917V2.787C33.4237 1.117 32.2837 -0.003 30.5537 -0.003H2.8537C1.1437 -0.003 0.0037 1.117 0.0037 2.787V27.917C0.0037 28.517 0.4937 29.007 1.0937 29.007ZM4.2637 28.537H15.4537C15.7137 28.537 15.9137 28.317 15.9137 28.067V4.247C15.9137 3.997 15.7137 3.787 15.4537 3.787H4.2637C4.0037 3.787 3.8037 3.997 3.8037 4.247V28.067C3.8037 28.317 4.0037 28.537 4.2637 28.537ZM17.9637 28.537H29.1637C29.4237 28.537 29.6237 28.317 29.6237 28.067V4.247C29.6237 3.997 29.4237 3.787 29.1637 3.787H17.9637C17.7237 3.787 17.5137 3.997 17.5137 4.247V28.067C17.5137 28.317 17.7237 28.537 17.9637 28.537ZM6.8937 18.307C6.5037 18.307 6.2337 18.037 6.2337 17.637V15.247C6.2337 14.847 6.5037 14.587 6.8937 14.587C7.2837 14.587 7.5637 14.847 7.5637 15.247V17.637C7.5637 18.037 7.2837 18.307 6.8937 18.307Z"
        fillRule="evenodd"
        clipRule="evenodd"
    />
</svg>
        