
<svg
    viewBox="0 0 20.8359375 29.01171875"
    xmlns="http://www.w3.org/2000/svg"
>
    <path
        fill="inherit"
        d="M0.0037 27.917C0.0037 28.517 0.4937 29.007 1.0937 29.007C1.7137 29.007 2.2037 28.517 2.2037 27.917V2.927C2.2037 2.487 2.4837 2.197 2.8937 2.197H17.9337C18.3437 2.197 18.6337 2.487 18.6337 2.927V27.917C18.6337 28.517 19.1237 29.007 19.7437 29.007C20.3437 29.007 20.8337 28.517 20.8337 27.917V2.787C20.8337 1.117 19.7037 -0.003 17.9737 -0.003H2.8537C1.1437 -0.003 0.0037 1.117 0.0037 2.787ZM3.8037 28.237C3.8037 28.497 4.0237 28.627 4.2837 28.517L8.5737 26.617C8.9137 26.467 9.0537 26.357 9.0537 26.007V6.307C9.0537 5.957 8.9137 5.837 8.5837 5.697L4.2837 3.787C4.0237 3.677 3.8037 3.817 3.8037 4.087Z"
        fillRule="evenodd"
        clipRule="evenodd"
    />
</svg>
        