
<svg
    viewBox="0 0 39.94921875 29.01171875"
    xmlns="http://www.w3.org/2000/svg"
>
    <path
        fill="inherit"
        d="M1.0937 29.007C1.7137 29.007 2.2037 28.517 2.2037 27.917V2.927C2.2037 2.487 2.4837 2.197 2.8937 2.197H37.0537C37.4637 2.197 37.7437 2.487 37.7437 2.927V27.917C37.7437 28.517 38.2437 29.007 38.8537 29.007C39.4537 29.007 39.9537 28.517 39.9537 27.917V2.787C39.9537 1.117 38.8137 -0.003 37.0937 -0.003H2.8537C1.1437 -0.003 0.0037 1.117 0.0037 2.787V27.917C0.0037 28.517 0.4937 29.007 1.0937 29.007ZM4.2637 9.597H35.6937C35.9437 9.597 36.1437 9.397 36.1437 9.147V4.247C36.1437 3.997 35.9437 3.787 35.6937 3.787H4.2637C4.0037 3.787 3.8037 3.997 3.8037 4.247V9.147C3.8037 9.397 4.0037 9.597 4.2637 9.597ZM17.0337 7.357C16.6437 7.357 16.3637 7.087 16.3637 6.697C16.3637 6.307 16.6437 6.027 17.0337 6.027H22.9237C23.3137 6.027 23.5837 6.307 23.5837 6.697C23.5837 7.087 23.3137 7.357 22.9237 7.357Z"
        fillRule="evenodd"
        clipRule="evenodd"
    />
</svg>
        