
<svg
    viewBox="0 0 33.427734375 29.01171875"
    xmlns="http://www.w3.org/2000/svg"
>
    <path
        fill="inherit"
        d="M1.0937 29.007C1.7137 29.007 2.2037 28.517 2.2037 27.917V2.927C2.2037 2.487 2.4837 2.197 2.8937 2.197H30.5337C30.9437 2.197 31.2237 2.487 31.2237 2.927V27.917C31.2237 28.517 31.7237 29.007 32.3237 29.007C32.9337 29.007 33.4237 28.517 33.4237 27.917V2.787C33.4237 1.117 32.2837 -0.003 30.5537 -0.003H2.8537C1.1437 -0.003 0.0037 1.117 0.0037 2.787V27.917C0.0037 28.517 0.4937 29.007 1.0937 29.007ZM4.2637 9.597H29.1637C29.4237 9.597 29.6237 9.397 29.6237 9.147V4.247C29.6237 3.997 29.4237 3.787 29.1637 3.787H4.2637C4.0037 3.787 3.8037 3.997 3.8037 4.247V9.147C3.8037 9.397 4.0037 9.597 4.2637 9.597ZM14.0437 7.357C13.6437 7.357 13.3837 7.087 13.3837 6.697C13.3837 6.307 13.6437 6.027 14.0437 6.027H19.3837C19.7837 6.027 20.0437 6.307 20.0437 6.697C20.0437 7.087 19.7837 7.357 19.3837 7.357Z"
        fillRule="evenodd"
        clipRule="evenodd"
    />
</svg>
        