
<svg
    viewBox="0 0 20.8359375 29.01171875"
    xmlns="http://www.w3.org/2000/svg"
>
    <path
        fill="inherit"
        d="M1.0937 29.007C1.7137 29.007 2.2037 28.517 2.2037 27.917V2.927C2.2037 2.487 2.4837 2.197 2.8937 2.197H17.9337C18.3437 2.197 18.6337 2.487 18.6337 2.927V27.917C18.6337 28.517 19.1237 29.007 19.7437 29.007C20.3437 29.007 20.8337 28.517 20.8337 27.917V2.787C20.8337 1.117 19.7037 -0.003 17.9737 -0.003H2.8537C1.1437 -0.003 0.0037 1.117 0.0037 2.787V27.917C0.0037 28.517 0.4937 29.007 1.0937 29.007ZM4.2637 28.537H16.5837C16.8337 28.537 17.0337 28.317 17.0337 28.067V4.247C17.0337 3.997 16.8337 3.787 16.5837 3.787H4.2637C4.0037 3.787 3.8037 3.997 3.8037 4.247V28.067C3.8037 28.317 4.0037 28.537 4.2637 28.537ZM13.7837 17.537C13.1837 17.537 12.6837 17.047 12.6837 16.447C12.6837 15.837 13.1837 15.357 13.7837 15.357C14.3937 15.357 14.8737 15.837 14.8737 16.447C14.8737 17.047 14.3937 17.537 13.7837 17.537Z"
        fillRule="evenodd"
        clipRule="evenodd"
    />
</svg>
        