<svg viewBox="0 0 39.94921875 29.01171875" xmlns="http://www.w3.org/2000/svg"><path d="M1.0937 29.007C1.7137 29.007 2.2037 28.517 2.2037 27.917V2.927C2.2037 2.487 2.4837 2.197 2.8937 2.197H37.0537C37.4637 2.197 37.7437 2.487 37.7437 2.927V27.917C37.7437 28.517 38.2437 29.007 38.8537 29.007C39.4537 29.007 39.9537 28.517 39.9537 27.917V2.787C39.9537 1.117 38.8137 -0.003 37.0937 -0.003H2.8537C1.1437 -0.003 0.0037 1.117 0.0037 2.787V27.917C0.0037 28.517 0.4937 29.007 1.0937 29.007ZM4.2637 28.537H35.6937C35.9437 28.537 36.1437 28.317 36.1437 28.067V4.247C36.1437 3.997 35.9437 3.787 35.6937 3.787H4.2637C4.0037 3.787 3.8037 3.997 3.8037 4.247V28.067C3.8037 28.317 4.0037 28.537 4.2637 28.537ZM6.1437 11.317C5.8637 11.317 5.6637 11.117 5.6637 10.837V5.997C5.6637 5.727 5.8637 5.507 6.1437 5.507H11.0737C11.3437 5.507 11.5637 5.727 11.5637 5.997V10.837C11.5637 11.117 11.3437 11.317 11.0737 11.317ZM13.7537 11.317C13.4837 11.317 13.2637 11.117 13.2637 10.837V5.997C13.2637 5.727 13.4837 5.507 13.7537 5.507H18.6737C18.9537 5.507 19.1637 5.727 19.1637 5.997V10.837C19.1637 11.117 18.9537 11.317 18.6737 11.317ZM21.3437 11.317C21.0637 11.317 20.8637 11.117 20.8637 10.837V5.997C20.8637 5.727 21.0637 5.507 21.3437 5.507H26.2537C26.5137 5.507 26.7237 5.727 26.7237 5.997V10.837C26.7237 11.117 26.5137 11.317 26.3637 11.317ZM28.9037 11.317C28.6337 11.317 28.4237 11.117 28.4237 10.837V5.997C28.4237 5.727 28.6337 5.507 28.9037 5.507H33.8137C34.0837 5.507 34.2937 5.727 34.2937 5.997V10.837C34.2937 11.117 34.0837 11.317 33.9237 11.317ZM17.0337 26.227C16.6437 26.227 16.3637 25.947 16.3637 25.567C16.3637 25.167 16.6437 24.897 17.0337 24.897H22.9237C23.3137 24.897 23.5837 25.167 23.5837 25.567C23.5837 25.947 23.3137 26.227 22.9237 26.227Z" /></svg>