<svg viewBox="0 0 39.4296875 22.244140625" xmlns="http://www.w3.org/2000/svg"><path d="M0.0037 20.6827C0.0037 21.5427 0.6937 22.2427 1.5437 22.2427H37.8837C38.7337 22.2427 39.4337 21.5427 39.4337 20.6827C39.4337 19.8227 38.7337 19.1227 37.8837 19.1227H34.8937V2.9027C34.8937 0.9827 33.8637 0.0027 31.9637 0.0027H7.4637C5.6637 0.0027 4.5437 0.9827 4.5437 2.9027V19.1227H1.5437C0.6937 19.1227 0.0037 19.8227 0.0037 20.6827ZM6.7437 19.1227V3.5127C6.7437 2.6427 7.1737 2.2027 8.0537 2.2027H31.3737C32.2537 2.2027 32.6937 2.6427 32.6937 3.5127V19.1227ZM13.3137 11.2427H14.1637C14.4337 13.8527 16.5337 15.9427 19.1437 16.2127V17.0627C19.1437 17.4027 19.4037 17.6527 19.7237 17.6527C20.0537 17.6527 20.3037 17.3927 20.3037 17.0627V16.2127C22.9237 15.9427 25.0037 13.8527 25.2837 11.2427H26.1437C26.4537 11.2427 26.7437 10.9627 26.7437 10.6527C26.7437 10.3227 26.4537 10.0727 26.1437 10.0727H25.2837C25.0037 7.4327 22.9237 5.3427 20.3037 5.0727V4.2127C20.3037 3.8927 20.0537 3.6327 19.7137 3.6327C19.4037 3.6327 19.1237 3.8927 19.1237 4.2127V5.0727C16.5337 5.3427 14.4337 7.4527 14.1637 10.0727H13.3137C12.9737 10.0727 12.7137 10.3227 12.7137 10.6527C12.7137 10.9627 12.9637 11.2427 13.3137 11.2427ZM22.8037 11.2427H23.9837C23.7337 13.1927 22.2437 14.6827 20.3037 14.9427V13.7227C20.3037 13.4127 20.0737 13.1527 19.7237 13.1527C19.4037 13.1527 19.1437 13.4127 19.1437 13.7227V14.9427C17.2037 14.6827 15.7237 13.1927 15.4737 11.2427H16.6437C16.9637 11.2427 17.2237 10.9627 17.2237 10.6527C17.2237 10.3127 16.9637 10.0727 16.6437 10.0727H15.4737C15.7237 8.1027 17.2037 6.6027 19.1237 6.3527V7.5427C19.1237 7.8927 19.4037 8.1527 19.7137 8.1527C20.0437 8.1527 20.3037 7.8727 20.3037 7.5427V6.3527C22.2337 6.6027 23.7237 8.1027 23.9837 10.0727H22.8037C22.4937 10.0727 22.2337 10.3127 22.2337 10.6527C22.2337 10.9627 22.4937 11.2427 22.8037 11.2427ZM19.7237 11.5627C20.2337 11.5627 20.6437 11.1527 20.6437 10.6327C20.6437 10.1327 20.2337 9.7327 19.7237 9.7327C19.2137 9.7327 18.8137 10.1327 18.8137 10.6327C18.8137 11.1527 19.2137 11.5627 19.7237 11.5627Z" /></svg>