
<svg
    viewBox="0 0 25.169921875 25.169921875"
    xmlns="http://www.w3.org/2000/svg"
>
    <path
        fill="inherit"
        d="M0.0037 24.0929C0.0037 24.7429 0.4337 25.1729 1.0937 25.1729H24.0937C24.7437 25.1729 25.1737 24.7429 25.1737 24.0929V1.0929C25.1737 0.4329 24.7437 0.0029 24.0937 0.0029H1.0937C0.4337 0.0029 0.0037 0.4329 0.0037 1.0929ZM2.2037 22.5729V13.7129H6.5737C6.4937 13.3429 6.4537 12.9729 6.4537 12.5929C6.4537 12.2229 6.4937 11.8629 6.5737 11.5129H2.2037V2.5929C2.2037 2.3129 2.3137 2.2029 2.5937 2.2029H11.4837V6.6029C11.8537 6.5229 12.2237 6.4829 12.6037 6.4829C12.9737 6.4829 13.3337 6.5229 13.6837 6.6029V2.2029H22.5737C22.8737 2.2029 22.9737 2.3129 22.9737 2.5929V11.5129H18.6237C18.6937 11.8629 18.7337 12.2229 18.7337 12.5929C18.7337 12.9729 18.6937 13.3429 18.6237 13.7129H22.9737V22.5729C22.9737 22.8729 22.8737 22.9729 22.5737 22.9729H13.6837V18.6229C13.3337 18.7029 12.9737 18.7429 12.6037 18.7429C12.2237 18.7429 11.8537 18.7029 11.4837 18.6229V22.9729H2.5937C2.3137 22.9729 2.2037 22.8729 2.2037 22.5729ZM12.6037 16.8729C14.9337 16.8729 16.8537 14.9529 16.8537 12.5929C16.8537 10.2629 14.9337 8.3529 12.6037 8.3529C10.2537 8.3529 8.3237 10.2629 8.3237 12.5929C8.3237 14.9529 10.2537 16.8729 12.6037 16.8729Z"
        fillRule="evenodd"
        clipRule="evenodd"
    />
</svg>
        