
<svg
    viewBox="0 0 27.890625 27.890625"
    xmlns="http://www.w3.org/2000/svg"
>
    <path
        fill="inherit"
        d="M13.9427 27.8864C21.6427 27.8864 27.8927 21.6464 27.8927 13.9464C27.8927 6.2464 21.6427 -0.0036 13.9427 -0.0036C6.2527 -0.0036 0.0027 6.2464 0.0027 13.9464C0.0027 21.6464 6.2527 27.8864 13.9427 27.8864ZM13.9427 25.5664C7.5227 25.5664 2.3227 20.3664 2.3227 13.9464C2.3227 7.5164 7.5227 2.3264 13.9427 2.3264C20.3727 2.3264 25.5627 7.5164 25.5627 13.9464C25.5627 20.3664 20.3727 25.5664 13.9427 25.5664ZM16.3827 6.2464L14.4927 3.8864C14.2227 3.5264 13.7227 3.5264 13.4227 3.8864L11.5227 6.2464C11.0927 6.7764 11.3427 7.4664 12.0627 7.4664H15.8427C16.5427 7.4664 16.8027 6.7564 16.3827 6.2464ZM13.9327 19.0864C16.7627 19.0864 19.0827 16.7464 19.0827 13.9464C19.0827 11.1264 16.7627 8.8064 13.9327 8.8064C11.1427 8.8064 8.8027 11.1264 8.8027 13.9464C8.8027 16.7464 11.1427 19.0864 13.9327 19.0864ZM21.6527 16.3764L24.0227 14.4964C24.3727 14.2164 24.3727 13.7164 24.0227 13.4264L21.6527 11.5264C21.1227 11.0864 20.4427 11.3364 20.4427 12.0564V15.8364C20.4427 16.5264 21.1527 16.7864 21.6527 16.3764ZM6.2527 16.3764C6.7627 16.7864 7.4627 16.5264 7.4627 15.8364V12.0564C7.4627 11.3364 6.7927 11.0864 6.2527 11.5264L3.8827 13.4264C3.5227 13.7164 3.5227 14.2164 3.8827 14.4964ZM16.3827 21.6564C16.8027 21.1464 16.5427 20.4364 15.8427 20.4364H12.0627C11.3427 20.4364 11.0927 21.1264 11.5227 21.6564L13.4227 24.0264C13.7227 24.3764 14.2227 24.3764 14.4927 24.0264Z"
        fillRule="evenodd"
        clipRule="evenodd"
    />
</svg>
        