<svg viewBox="0 0 20.64453125 20.64453125" xmlns="http://www.w3.org/2000/svg"><path d="M0.2037 1.0917C0.2037 1.6917 0.7137 2.2017 1.3137 2.2017C10.7637 2.2017 18.4437 9.8817 18.4437 19.3317C18.4437 19.9317 18.9537 20.4417 19.5537 20.4417C20.1537 20.4417 20.6437 19.9317 20.6437 19.3317C20.6437 8.6817 11.9637 0.0017 1.3137 0.0017C0.7137 0.0017 0.2037 0.4917 0.2037 1.0917ZM0.2037 6.8817C0.2037 7.4817 0.7137 7.9717 1.3137 7.9717C7.5837 7.9717 12.6737 13.0517 12.6737 19.3317C12.6737 19.9317 13.1637 20.4417 13.7637 20.4417C14.3737 20.4417 14.8737 19.9317 14.8737 19.3317C14.8737 11.8517 8.7937 5.7717 1.3137 5.7717C0.7137 5.7717 0.2037 6.2717 0.2037 6.8817ZM0.2037 12.3017C0.2037 12.9017 0.7137 13.4017 1.3137 13.4017C4.5837 13.4017 7.2437 16.0617 7.2437 19.3317C7.2437 19.9317 7.7337 20.4417 8.3437 20.4417C8.9437 20.4417 9.4437 19.9317 9.4437 19.3317C9.4437 14.8517 5.7837 11.2017 1.3137 11.2017C0.7137 11.2017 0.2037 11.7017 0.2037 12.3017ZM1.9537 20.6417C3.0237 20.6417 3.8837 19.7717 3.8837 18.7217C3.8837 17.6317 3.0337 16.7717 1.9537 16.7717C0.8937 16.7717 0.0037 17.6817 0.0037 18.7617C0.0037 19.7717 0.9137 20.6417 1.9537 20.6417Z" /></svg>