
<svg
    viewBox={0 0 32.59375 27.548828125}
    xmlns="http://www.w3.org/2000/svg"
>
    <path
        fill="inherit"
        d="M3.1437 22.7002H11.9737V25.3302H11.8937C11.2937 25.3302 10.7837 25.8302 10.7837 26.4402C10.7837 27.0602 11.2937 27.5502 11.8937 27.5502H20.7037C21.3037 27.5502 21.7937 27.0602 21.7937 26.4402C21.7937 25.8302 21.3037 25.3302 20.7037 25.3302H20.6137V22.7002H29.4337C31.4037 22.7002 32.5937 21.5102 32.5937 19.5402V3.1402C32.5937 1.1802 31.4037 0.0002 29.4337 0.0002H3.1437C1.1937 0.0002 0.0037 1.1802 0.0037 3.1402V19.5402C0.0037 21.5102 1.1937 22.7002 3.1437 22.7002ZM3.1837 20.4902C2.5837 20.4902 2.2037 20.1102 2.2037 19.5102V3.1902C2.2037 2.5702 2.5837 2.2002 3.1837 2.2002H29.4037C30.0137 2.2002 30.3937 2.5702 30.3937 3.1902V19.5102C30.3937 20.1102 30.0137 20.4902 29.4037 20.4902ZM9.8837 11.9202H10.7337C11.0037 14.5502 13.0937 16.6202 15.7237 16.9002V17.7502C15.7237 18.1002 15.9837 18.3502 16.2937 18.3502C16.6237 18.3502 16.8837 18.0902 16.8837 17.7502V16.9002C19.4937 16.6202 21.5837 14.5502 21.8637 11.9202H22.7237C23.0337 11.9202 23.3137 11.6602 23.3137 11.3502C23.3137 11.0102 23.0337 10.7602 22.7237 10.7602H21.8637C21.5837 8.1302 19.4937 6.0402 16.8737 5.7702V4.9102C16.8737 4.5902 16.6437 4.3202 16.2937 4.3202C15.9737 4.3202 15.7137 4.5902 15.7137 4.9102V5.7702C13.0937 6.0402 11.0037 8.1302 10.7337 10.7602H9.8837C9.5537 10.7602 9.2937 11.0102 9.2937 11.3502C9.2937 11.6602 9.5437 11.9202 9.8837 11.9202ZM19.3837 11.9202H20.5537C20.3037 13.8902 18.8237 15.3802 16.8837 15.6302V14.4202C16.8837 14.1002 16.6437 13.8402 16.2937 13.8402C15.9837 13.8402 15.7237 14.1002 15.7237 14.4202V15.6302C13.7837 15.3802 12.3037 13.8902 12.0437 11.9202H13.2237C13.5337 11.9202 13.7937 11.6602 13.7937 11.3502C13.7937 10.9902 13.5337 10.7602 13.2237 10.7602H12.0437C12.2937 8.8002 13.7837 7.3002 15.7137 7.0402V8.2402C15.7137 8.5902 15.9737 8.8302 16.2937 8.8302C16.6237 8.8302 16.8737 8.5702 16.8737 8.2402V7.0402C18.8137 7.2902 20.3037 8.7902 20.5537 10.7602H19.3837C19.0737 10.7602 18.8037 10.9902 18.8037 11.3502C18.8037 11.6602 19.0737 11.9202 19.3837 11.9202ZM16.3137 12.2502C16.8137 12.2502 17.2137 11.8402 17.2137 11.3302C17.2137 10.8302 16.8137 10.4202 16.3137 10.4202C15.7937 10.4202 15.3837 10.8302 15.3837 11.3302C15.3837 11.8402 15.7937 12.2502 16.3137 12.2502Z"
        fillRule="evenodd"
        clipRule="evenodd"
    />
</svg>
        