<svg viewBox="0 0 35.615234375 24.5359804106315" xmlns="http://www.w3.org/2000/svg"><path d="M35.6127 12.2662C35.6127 7.6862 33.8927 3.4962 30.9127 0.3762C30.4227 -0.1438 29.7527 -0.0938 29.3627 0.3362C28.9727 0.7662 29.0527 1.3862 29.5127 1.8762C32.1327 4.6162 33.5627 8.2762 33.5627 12.2662C33.5627 16.2562 32.1327 19.9262 29.5127 22.6562C29.0527 23.1362 28.9727 23.7662 29.3627 24.1862C29.7527 24.6262 30.4227 24.6862 30.9127 24.1662C33.8927 21.0462 35.6127 16.8462 35.6127 12.2662ZM0.0027 12.2662C0.0027 16.8462 1.7227 21.0462 4.7027 24.1662C5.1927 24.6862 5.8627 24.6262 6.2527 24.1862C6.6427 23.7662 6.5627 23.1362 6.0927 22.6562C3.4727 19.9262 2.0527 16.2562 2.0527 12.2662C2.0527 8.2762 3.4727 4.6162 6.0927 1.8762C6.5627 1.3862 6.6427 0.7662 6.2527 0.3362C5.8627 -0.0938 5.1927 -0.1438 4.7027 0.3762C1.7227 3.4962 0.0027 7.6862 0.0027 12.2662ZM4.8927 12.2662C4.8927 15.5062 6.0527 18.5262 8.1527 20.7862C8.6227 21.3162 9.3227 21.3362 9.7327 20.8562C10.1327 20.4062 10.0227 19.8162 9.5527 19.3062C7.8627 17.4062 6.9327 14.9462 6.9327 12.2662C6.9327 9.5862 7.8627 7.1262 9.5527 5.2262C10.0227 4.7262 10.1327 4.1362 9.7327 3.6662C9.3227 3.2062 8.6227 3.2062 8.1527 3.7362C6.0527 6.0062 4.8927 9.0162 4.8927 12.2662ZM30.7227 12.2662C30.7227 9.0162 29.5627 6.0062 27.4627 3.7362C26.9927 3.2062 26.2927 3.2062 25.8827 3.6662C25.4727 4.1362 25.5927 4.7262 26.0427 5.2262C27.7527 7.1262 28.6827 9.5862 28.6827 12.2662C28.6827 14.9462 27.7527 17.4062 26.0427 19.3062C25.5927 19.8162 25.4727 20.4062 25.8827 20.8562C26.2927 21.3362 26.9927 21.3162 27.4627 20.7862C29.5627 18.5262 30.7227 15.5062 30.7227 12.2662ZM9.7727 12.2662C9.7727 14.0962 10.4027 15.8262 11.5027 17.1762C11.9527 17.7462 12.7027 17.7462 13.1127 17.2862C13.5227 16.8262 13.3427 16.2762 12.9427 15.7162C12.2127 14.7862 11.8227 13.5862 11.8227 12.2662C11.8227 10.9562 12.2127 9.7562 12.9427 8.8062C13.3427 8.2662 13.5227 7.7162 13.1127 7.2462C12.7027 6.7862 11.9527 6.7862 11.5027 7.3462C10.4027 8.6962 9.7727 10.4262 9.7727 12.2662ZM25.8427 12.2662C25.8427 10.4262 25.2127 8.6962 24.1127 7.3462C23.6627 6.7862 22.9127 6.7862 22.5027 7.2462C22.0927 7.7162 22.2627 8.2662 22.6727 8.8062C23.4027 9.7562 23.7927 10.9562 23.7927 12.2662C23.7927 13.5862 23.4027 14.7862 22.6727 15.7162C22.2627 16.2762 22.0927 16.8262 22.5027 17.2862C22.9127 17.7462 23.6627 17.7462 24.1127 17.1762C25.2127 15.8262 25.8427 14.0962 25.8427 12.2662ZM15.3127 12.2962C15.3127 13.6262 16.4727 14.7462 17.8327 14.7462C19.1827 14.7462 20.2927 13.6262 20.2927 12.2662C20.2927 10.9062 19.1927 9.7762 17.8327 9.7762C16.4427 9.7762 15.3127 10.9262 15.3127 12.2962Z" /></svg>