
<svg
    viewBox="0 0 35.95681882721152 30.253338672484986"
    xmlns="http://www.w3.org/2000/svg"
>
    <path
        fill="inherit"
        d="M13.9427 27.894C15.9527 27.894 17.8927 27.454 19.6327 26.644L18.1327 24.774C16.8427 25.294 15.4327 25.564 13.9427 25.564C7.4927 25.564 2.3427 20.394 2.3427 13.944C2.3427 7.494 7.4627 2.334 13.9327 2.324C20.4127 2.324 25.5127 7.464 25.5427 13.904C26.2527 13.764 27.0927 13.824 27.8727 14.024C27.9227 6.374 21.6327 0.004 13.9427 0.004C6.3127 0.004 0.0027 6.314 0.0027 13.944C0.0027 21.574 6.3327 27.894 13.9427 27.894ZM13.9627 18.144C16.2527 18.144 18.1527 16.254 18.1527 13.934C18.1527 11.634 16.2527 9.744 13.9627 9.744C11.6527 9.744 9.7527 11.634 9.7527 13.934C9.7527 16.254 11.6527 18.144 13.9627 18.144ZM31.1127 29.724C35.5227 28.124 36.9527 24.484 35.2727 19.754L34.5727 17.804C33.9427 16.024 32.6627 15.244 31.7027 15.584C31.4727 15.684 31.4027 15.834 31.4727 16.054L31.7827 16.914C31.9527 17.324 31.7827 17.594 31.5527 17.694C31.2927 17.774 31.0127 17.654 30.8527 17.244L30.6527 16.664C30.2727 15.624 29.3527 15.194 28.4527 15.514C28.0227 15.664 27.8927 15.904 28.0227 16.254L28.4627 17.434C28.6127 17.824 28.4827 18.114 28.2427 18.194C27.9727 18.294 27.6827 18.174 27.5527 17.774L27.1527 16.684C26.7127 15.494 25.8227 15.194 24.9527 15.504C24.5727 15.654 24.4227 15.914 24.5427 16.244L25.3727 18.554C25.5227 18.974 25.3927 19.234 25.1427 19.334C24.8827 19.424 24.5927 19.304 24.4427 18.884L21.6527 11.194C21.3827 10.434 20.7027 10.114 20.0727 10.354C19.3827 10.614 19.0827 11.264 19.3727 12.014L23.4927 23.294C23.5827 23.574 23.4427 23.794 23.2727 23.844C23.1027 23.914 22.9327 23.854 22.6927 23.624L19.9327 20.644C19.5127 20.194 19.1027 20.094 18.6527 20.264C17.9327 20.524 17.6827 21.164 17.8827 21.734C17.9527 21.954 18.0727 22.144 18.1927 22.284L21.6327 26.574C24.5227 30.204 27.8627 30.914 31.1127 29.724Z"
        fillRule="evenodd"
        clipRule="evenodd"
    />
</svg>
        