
<svg
    viewBox={0 0 22.271484375 26.721818135939834}
    xmlns="http://www.w3.org/2000/svg"
>
    <path
        fill="inherit"
        d="M15.4627 26.3542C15.8827 26.8242 16.6227 26.8742 17.1427 26.3242C20.4027 22.9242 22.2727 18.3542 22.2727 13.3642C22.2727 8.3742 20.4227 3.7742 17.1427 0.3942C16.6227 -0.1558 15.8827 -0.0958 15.4627 0.3642C15.0427 0.8442 15.1327 1.5142 15.6227 2.0342C18.4827 4.9742 20.0427 8.9742 20.0427 13.3642C20.0427 17.7542 18.4527 21.7242 15.6227 24.6842C15.1327 25.2042 15.0427 25.8942 15.4627 26.3542ZM11.5127 22.7242C11.9527 23.2242 12.7127 23.2242 13.2527 22.6542C15.5127 20.1942 16.7927 16.9042 16.7927 13.3642C16.7927 9.8242 15.5327 6.5342 13.2527 4.0842C12.7127 3.4942 11.9527 3.4942 11.5127 4.0142C11.0727 4.5042 11.2127 5.1542 11.7027 5.7142C13.5527 7.7342 14.5627 10.4142 14.5627 13.3642C14.5627 16.3042 13.5327 18.9842 11.7027 21.0242C11.2127 21.5842 11.0727 22.2142 11.5127 22.7242ZM7.6827 18.8242C8.1327 19.3242 8.9527 19.3442 9.4327 18.7242C10.6227 17.2542 11.3227 15.3742 11.3227 13.3642C11.3227 11.3542 10.6227 9.4742 9.4327 8.0042C8.9527 7.3842 8.1327 7.3942 7.6827 7.9142C7.2427 8.4042 7.4327 9.0042 7.8627 9.6042C8.6727 10.6342 9.0927 11.9442 9.0927 13.3642C9.0927 14.7942 8.6827 16.1042 7.8627 17.1242C7.4227 17.7142 7.2427 18.3342 7.6827 18.8242ZM0.0027 13.3442C0.0027 14.6642 1.1527 15.7842 2.5027 15.7842C3.8527 15.7842 4.9727 14.6642 4.9727 13.3142C4.9727 11.9442 3.8827 10.8242 2.5027 10.8242C1.1327 10.8242 0.0027 11.9742 0.0027 13.3442Z"
        fillRule="evenodd"
        clipRule="evenodd"
    />
</svg>
        