<svg viewBox="0 0 25.169921875 25.169921875" xmlns="http://www.w3.org/2000/svg"><path d="M0.0037 24.0929C0.0037 24.7429 0.4337 25.1729 1.0937 25.1729H24.0937C24.7437 25.1729 25.1737 24.7429 25.1737 24.0929V1.0929C25.1737 0.4329 24.7437 0.0029 24.0937 0.0029H1.0937C0.4337 0.0029 0.0037 0.4329 0.0037 1.0929ZM2.2037 22.5729V2.5929C2.2037 2.3129 2.3137 2.2029 2.5937 2.2029H22.5737C22.8737 2.2029 22.9737 2.3129 22.9737 2.5929V22.5729C22.9737 22.8729 22.8737 22.9729 22.5737 22.9729H2.5937C2.3137 22.9729 2.2037 22.8729 2.2037 22.5729ZM12.5937 16.7929C14.9137 16.7929 16.7937 14.9029 16.7937 12.5929C16.7937 10.2629 14.9137 8.3929 12.5937 8.3929C10.2837 8.3929 8.3937 10.2629 8.3937 12.5929C8.3937 14.9029 10.2837 16.7929 12.5937 16.7929Z" /></svg>