
<svg
    viewBox="0 0 29.88671875 29.873046875"
    xmlns="http://www.w3.org/2000/svg"
>
    <path
        fill="inherit"
        d="M9.5737 6.3145C9.5737 7.7945 9.7437 8.2745 10.6937 9.2145L13.3437 11.8645C14.3037 12.8245 15.6137 12.8245 16.5737 11.8645L19.2237 9.2145C20.1637 8.2745 20.3337 7.7945 20.3337 6.3145V2.8745C20.3337 1.1245 19.3137 0.0045 17.7637 0.0045H12.1437C10.5837 0.0045 9.5737 1.1245 9.5737 2.8745ZM11.5237 6.3145V2.9245C11.5237 2.3145 11.8937 1.9445 12.5237 1.9445H17.3937C18.0237 1.9445 18.3737 2.3145 18.3737 2.9245V6.3145C18.3737 7.0145 18.2937 7.3645 17.8237 7.8345L15.2537 10.4045C15.0537 10.6045 14.8437 10.6045 14.6437 10.4045L12.0837 7.8345C11.6237 7.3645 11.5237 7.0145 11.5237 6.3145ZM6.3037 20.3145C7.7937 20.3145 8.2737 20.1545 9.2137 19.2045L11.8637 16.5545C12.8237 15.6045 12.8237 14.2845 11.8637 13.3345L9.2137 10.6745C8.2737 9.7345 7.7937 9.5545 6.3037 9.5545H2.8737C1.1237 9.5545 0.0037 10.5645 0.0037 12.1245V17.7645C0.0037 19.3045 1.1237 20.3145 2.8737 20.3145ZM23.5837 9.5745C22.0937 9.5745 21.6137 9.7345 20.6737 10.6745L18.0237 13.3345C17.0637 14.2845 17.0637 15.6045 18.0237 16.5545L20.6737 19.2045C21.6137 20.1545 22.0937 20.3345 23.5837 20.3345H27.0137C28.7637 20.3345 29.8837 19.3145 29.8837 17.7645V12.1245C29.8837 10.5845 28.7637 9.5745 27.0137 9.5745ZM6.3037 18.3645H2.9237C2.2937 18.3645 1.9437 18.0045 1.9437 17.3745V12.5145C1.9437 11.8845 2.2937 11.5145 2.9237 11.5145H6.3037C7.0137 11.5145 7.3737 11.6045 7.8337 12.0745L10.4037 14.6245C10.6137 14.8445 10.5937 15.0545 10.3937 15.2545L7.8337 17.8145C7.3737 18.2745 7.0137 18.3645 6.3037 18.3645ZM23.5837 11.5245H26.9637C27.5937 11.5245 27.9437 11.8845 27.9437 12.5145V17.3745C27.9437 18.0045 27.5937 18.3745 26.9637 18.3745H23.5837C22.8737 18.3745 22.5137 18.2745 22.0537 17.8145L19.4837 15.2545C19.2737 15.0345 19.2937 14.8345 19.4937 14.6245L22.0537 12.0745C22.5137 11.6045 22.8737 11.5245 23.5837 11.5245ZM20.3337 23.5745C20.3337 22.0945 20.1537 21.6145 19.2137 20.6745L16.5537 18.0045C15.6037 17.0645 14.2837 17.0645 13.3337 18.0045L10.6737 20.6745C9.7337 21.6145 9.5737 22.0945 9.5737 23.5745V27.0145C9.5737 28.7645 10.5837 29.8745 12.1437 29.8745H17.7637C19.3137 29.8745 20.3337 28.7645 20.3337 27.0145ZM18.3737 23.5745V26.9645C18.3737 27.5745 18.0037 27.9345 17.3737 27.9345H12.5137C11.8837 27.9345 11.5237 27.5745 11.5237 26.9645V23.5745C11.5237 22.8545 11.6037 22.5045 12.0737 22.0545L14.6437 19.4845C14.8437 19.2645 15.0537 19.2745 15.2537 19.4845L17.8237 22.0545C18.2837 22.5045 18.3737 22.8545 18.3737 23.5745Z"
        fillRule="evenodd"
        clipRule="evenodd"
    />
</svg>
        