
<svg
    viewBox="0 0 49.314453125 31.048828125"
    xmlns="http://www.w3.org/2000/svg"
>
    <path
        fill="inherit"
        d="M9.4037 25.2295L16.9437 22.5595L18.9537 26.0195C19.3837 26.7595 20.1537 27.1095 21.0437 27.1395V29.4995C21.0437 30.3795 21.5837 31.0495 22.4637 31.0495H26.7537C27.6337 31.0495 28.1737 30.3795 28.1737 29.4995V27.1395C29.0637 27.1095 29.8337 26.7595 30.2737 26.0195L32.2937 22.5495L39.8837 25.2295C43.8037 26.6195 45.9337 24.1695 45.9337 21.5695V18.3995C45.9337 17.4895 45.4437 16.9495 44.5937 16.9095V15.6995H48.4837C48.9737 15.6995 49.3137 15.2595 49.3137 14.8095C49.3137 14.3595 48.9737 13.9195 48.4837 13.9195H44.5937V13.7695C44.5937 13.1395 44.0937 12.5895 43.4237 12.5895C42.7937 12.5895 42.2837 13.1395 42.2837 13.7695V13.9195H38.4337C37.9237 13.9195 37.5937 14.3595 37.5937 14.8095C37.5937 15.2595 37.9237 15.6995 38.4337 15.6995H42.2837V16.9095C41.4137 16.9495 40.9337 17.4895 40.9337 18.3995V19.7395C40.9337 20.0295 40.8137 20.2595 40.5237 20.1495L34.3737 17.8995C34.3337 17.2995 34.1537 16.6495 33.8537 16.0495L32.7837 13.9695L35.9737 12.3095C38.1537 11.1595 38.7037 10.4295 38.7037 8.1895V5.6695C38.7037 4.7595 38.2137 4.2295 37.3637 4.1695V2.9495H41.1837C41.6737 2.9495 42.0137 2.5295 42.0137 2.0795C42.0137 1.6295 41.6737 1.1895 41.1837 1.1895H37.3637V1.1795C37.3637 0.5295 36.8637 -0.0005 36.1937 -0.0005C35.5637 -0.0005 35.0537 0.5295 35.0537 1.1795V1.1895H31.1337C30.6237 1.1895 30.2937 1.6295 30.2937 2.0795C30.2937 2.5295 30.6237 2.9495 31.1337 2.9495H35.0537V4.1695C34.1637 4.2295 33.6837 4.7595 33.6837 5.6695V7.3795C33.6837 7.5595 33.5937 7.7395 33.3337 7.8795L30.4737 9.4095L30.3237 9.1095C29.6037 7.6695 28.6837 6.8895 26.6437 6.8895H22.6437C20.6037 6.8895 19.7037 7.6695 18.9637 9.1095L18.8137 9.4095L15.9537 7.8795C15.6937 7.7395 15.6037 7.5595 15.6037 7.3795V5.6695C15.6037 4.7595 15.1237 4.2295 14.2337 4.1695V2.9495H18.1037C18.6037 2.9495 18.9337 2.5295 18.9337 2.0795C18.9337 1.6295 18.6037 1.1895 18.1037 1.1895H14.2337V1.1795C14.2337 0.5295 13.7237 -0.0005 13.0737 -0.0005C12.4237 -0.0005 11.9237 0.5295 11.9237 1.1795V1.1895H8.0537C7.5637 1.1895 7.2237 1.6295 7.2237 2.0795C7.2237 2.5295 7.5637 2.9495 8.0537 2.9495H11.9237V4.1695C11.0737 4.2295 10.5837 4.7595 10.5837 5.6695V8.1895C10.5837 10.4295 11.1337 11.1595 13.3137 12.3095L16.4637 13.9595L15.3937 16.0495C15.0837 16.6695 14.9037 17.3095 14.8637 17.9195L8.7637 20.1495C8.4737 20.2595 8.3537 20.0295 8.3537 19.7395V18.3995C8.3537 17.4895 7.8737 16.9495 7.0037 16.9095V15.6995H10.8837C11.3937 15.6995 11.7137 15.2595 11.7137 14.8095C11.7137 14.3595 11.3937 13.9195 10.8837 13.9195H7.0037V13.7695C7.0037 13.1395 6.4937 12.5895 5.8337 12.5895C5.1937 12.5895 4.6937 13.1395 4.6937 13.7695V13.9195H0.8337C0.3437 13.9195 0.0037 14.3595 0.0037 14.8095C0.0037 15.2595 0.3437 15.6995 0.8337 15.6995H4.6937V16.9095C3.8437 16.9495 3.3537 17.4895 3.3537 18.3995V21.5695C3.3537 24.1695 5.4837 26.6195 9.4037 25.2295ZM14.0037 10.5695C12.7037 9.8695 12.3837 9.4495 12.3837 7.8995V6.0395C12.3837 5.7995 12.4537 5.7395 12.7137 5.7395H13.4637C13.7437 5.7395 13.8037 5.7995 13.8037 6.0395V7.7495C13.8037 8.7595 14.0837 9.0495 14.7337 9.3795L17.9637 11.0595L17.2937 12.3495ZM34.5537 9.3795C35.2037 9.0495 35.4737 8.7595 35.4737 7.7495V6.0395C35.4737 5.7995 35.5437 5.7395 35.8237 5.7395H36.5737C36.8337 5.7395 36.9037 5.7995 36.9037 6.0395V7.8995C36.9037 9.4495 36.5837 9.8695 35.2837 10.5695L31.9637 12.3495L31.3037 11.0595ZM18.8637 19.2395C17.1537 19.2395 16.7337 18.0295 17.4737 16.5595L20.7537 10.0895C21.2037 9.2195 21.6337 8.9295 22.6537 8.9295H26.6337C27.6537 8.9295 28.0837 9.2195 28.5337 10.0895L31.7837 16.5595C32.5437 18.0295 32.1137 19.2395 30.4037 19.2395ZM5.1537 21.4195V18.7695C5.1537 18.5295 5.2237 18.4695 5.4837 18.4695H6.2237C6.5037 18.4695 6.5637 18.5295 6.5637 18.7695V20.9995C6.5637 22.1195 7.2437 22.4995 8.4537 22.0695L15.2137 19.6195C15.2737 19.7295 15.3437 19.8495 15.4237 19.9495L16.0237 20.9895L9.0737 23.4495C6.5937 24.3195 5.1537 23.3395 5.1537 21.4195ZM40.2237 23.4495L33.2137 20.9695L33.7437 20.0595C33.8537 19.9195 33.9637 19.7695 34.0437 19.6095L40.8337 22.0695C42.0437 22.4995 42.7237 22.1195 42.7237 20.9995V18.7695C42.7237 18.5295 42.7837 18.4695 43.0637 18.4695H43.8037C44.0637 18.4695 44.1337 18.5295 44.1337 18.7695V21.4195C44.1337 23.3395 42.6937 24.3195 40.2237 23.4495ZM21.5737 25.1395C21.0637 25.1395 20.7937 25.0095 20.5937 24.6595L18.5837 21.2495H30.6437L28.6337 24.6595C28.4237 25.0095 28.1537 25.1395 27.6437 25.1395ZM24.6137 29.6995C23.9637 29.6995 23.4437 29.1995 23.4437 28.5495C23.4437 27.8895 23.9637 27.3995 24.6137 27.3995C25.2537 27.3995 25.7737 27.8995 25.7737 28.5495C25.7737 29.1995 25.2337 29.6995 24.6137 29.6995Z"
        fillRule="evenodd"
        clipRule="evenodd"
    />
</svg>
        