
<svg
    viewBox={0 0 43.55859375 30.748046875}
    xmlns="http://www.w3.org/2000/svg"
>
    <path
        fill="inherit"
        d="M13.5037 11.8438L15.4037 8.5138L13.9737 7.6538C13.7537 7.5038 13.6737 7.4238 13.6737 7.1738V5.4938C13.6737 4.8638 13.3737 4.4838 12.8337 4.3738V2.9538H16.4337C16.9237 2.9538 17.2637 2.5138 17.2637 2.0638C17.2637 1.6238 16.9237 1.1938 16.4337 1.1938H12.8337V1.1738C12.8337 0.5338 12.3337 0.0038 11.6637 0.0038C11.0337 0.0038 10.5237 0.5338 10.5237 1.1738V1.1938H6.9337C6.4237 1.1938 6.0937 1.6238 6.0937 2.0638C6.0937 2.5138 6.4237 2.9538 6.9337 2.9538H10.5237V4.3838C10.0337 4.5238 9.7637 4.9038 9.7637 5.4938V7.9938C9.7637 9.2038 10.0237 9.7438 10.8137 10.2438ZM30.0737 11.9738L32.7837 10.3538C33.6237 9.8338 33.8637 9.2738 33.8637 8.0238V5.5538C33.8637 4.9038 33.5637 4.4938 33.0337 4.3738V2.9538H36.6237C37.1237 2.9538 37.4637 2.5138 37.4637 2.0638C37.4637 1.6238 37.1237 1.1938 36.6237 1.1938H33.0337V1.1738C33.0337 0.5338 32.5237 0.0038 31.8837 0.0038C31.2237 0.0038 30.7237 0.5338 30.7237 1.1738V1.1938H27.1237C26.6237 1.1938 26.2937 1.6238 26.2937 2.0638C26.2937 2.5138 26.6237 2.9538 27.1237 2.9538H30.7237V4.3638C30.1237 4.4738 29.7937 4.8838 29.7937 5.5538V7.1638C29.7937 7.4238 29.7237 7.5038 29.4737 7.6738L28.0937 8.4938ZM14.3937 17.2438H29.1437C30.3337 17.2438 30.7337 16.3338 30.1037 15.2438L25.7437 7.5838C25.2137 6.6738 24.4637 6.2638 23.6237 6.2638H20.1637C19.0137 6.2638 18.3337 6.6738 17.8137 7.5838L13.4537 15.2438C12.8237 16.3338 13.2237 17.2438 14.3937 17.2438ZM0.8337 18.9038H4.4137V20.3938C3.9237 20.5238 3.6337 20.9138 3.6337 21.5038V25.3338C3.6337 28.0138 5.4537 29.3838 8.4337 28.0938L16.2437 24.7338L16.8037 25.8038C17.1837 26.5138 17.8537 26.7838 18.6337 26.8338V29.3438C18.6337 30.1438 19.1237 30.7438 19.9237 30.7438H23.6437C24.4337 30.7438 24.9237 30.1438 24.9237 29.3438V26.8338C25.7037 26.7938 26.3737 26.5338 26.7537 25.8038L27.3137 24.7338L35.1237 28.0938C38.1337 29.3938 39.9237 28.0138 39.9237 25.3338V21.5038C39.9237 20.9138 39.6437 20.5238 39.1437 20.3938V18.9038H42.7237C43.2337 18.9038 43.5537 18.4738 43.5537 18.0238C43.5537 17.5638 43.2337 17.1438 42.7237 17.1438H39.1437V16.9838C39.1437 16.3538 38.6337 15.8138 38.0037 15.8138C37.3337 15.8138 36.8337 16.3538 36.8337 16.9838V17.1438H33.2237C32.7337 17.1438 32.3937 17.5638 32.3937 18.0238C32.3937 18.4738 32.7337 18.9038 33.2237 18.9038H36.8337V20.3838C36.3037 20.5038 36.0137 20.9038 36.0137 21.5038V23.8138C36.0137 24.0738 35.8937 24.2538 35.5637 24.1038L29.1037 21.3138L29.8037 20.0038C30.0737 19.4938 29.8437 19.1138 29.3537 19.1138H14.2037C13.7237 19.1138 13.4837 19.4938 13.7537 20.0038L14.4537 21.3238L8.0137 24.1038C7.6837 24.2538 7.5437 24.0738 7.5437 23.8138V21.5038C7.5437 20.9038 7.2637 20.5038 6.7237 20.3838V18.9038H10.3337C10.8437 18.9038 11.1737 18.4738 11.1737 18.0238C11.1737 17.5638 10.8437 17.1438 10.3337 17.1438H6.7237V16.9838C6.7237 16.3538 6.2237 15.8138 5.5637 15.8138C4.9237 15.8138 4.4137 16.3538 4.4137 16.9838V17.1438H0.8337C0.3437 17.1438 0.0037 17.5638 0.0037 18.0238C0.0037 18.4738 0.3437 18.9038 0.8337 18.9038ZM21.7937 29.3838C21.2337 29.3838 20.7537 28.9138 20.7537 28.3438C20.7537 27.8038 21.2337 27.3438 21.7937 27.3438C22.3437 27.3438 22.8137 27.8038 22.8137 28.3438C22.8137 28.9138 22.3437 29.3838 21.7937 29.3838Z"
        fillRule="evenodd"
        clipRule="evenodd"
    />
</svg>
        