
<svg
    viewBox="0 0 18.94921875 27.685546875"
    xmlns="http://www.w3.org/2000/svg"
>
    <path
        fill="inherit"
        d="M9.4727 27.6807C15.1627 27.6807 18.9527 23.9807 18.9527 18.4307C18.9527 15.6907 17.8827 12.9707 17.0727 11.1607C15.6127 7.8607 13.3127 4.2407 11.3227 1.1507C10.8427 0.4207 10.2827 0.0007 9.4727 0.0007C8.6727 0.0007 8.1027 0.4207 7.6327 1.1507C5.6327 4.2407 3.3327 7.8607 1.8727 11.1607C1.0827 12.9707 0.0027 15.6907 0.0027 18.4307C0.0027 23.9807 3.7827 27.6807 9.4727 27.6807ZM9.4727 25.4407C5.1227 25.4407 2.2427 22.6407 2.2427 18.4307C2.2427 16.1907 3.1027 14.0107 3.8727 12.2407C5.4027 8.6407 7.4227 5.6907 9.3427 2.8007C9.4327 2.6707 9.5427 2.6707 9.6227 2.8007C11.5227 5.6907 13.5627 8.6407 15.0627 12.2207C15.8427 14.0107 16.7227 16.1907 16.7227 18.4307C16.7227 22.6407 13.8227 25.4407 9.4727 25.4407Z"
        fillRule="evenodd"
        clipRule="evenodd"
    />
</svg>
        