
<svg
    viewBox="0 0 18.94921875 27.685546875"
    xmlns="http://www.w3.org/2000/svg"
>
    <path
        fill="inherit"
        d="M9.4727 27.6807C15.1627 27.6807 18.9527 23.9807 18.9527 18.4307C18.9527 15.6907 17.8827 12.9707 17.0727 11.1607C15.6127 7.8607 13.3127 4.2407 11.3227 1.1507C10.8427 0.4207 10.2827 0.0007 9.4727 0.0007C8.6727 0.0007 8.1027 0.4207 7.6327 1.1507C5.6327 4.2407 3.3327 7.8607 1.8727 11.1607C1.0827 12.9707 0.0027 15.6907 0.0027 18.4307C0.0027 23.9807 3.7827 27.6807 9.4727 27.6807ZM3.6327 15.9107C3.2827 15.9107 2.9227 15.9407 2.5427 16.0107C2.8527 14.6407 3.3727 13.3607 3.8727 12.2407C5.4027 8.6407 7.4227 5.6907 9.3427 2.8007C9.4327 2.6707 9.5427 2.6707 9.6227 2.8007C11.5227 5.6907 13.5627 8.6407 15.0627 12.2207C15.6727 13.6207 16.3427 15.2607 16.5927 16.9807C15.5627 17.8007 14.3127 18.7407 12.3327 18.7407C8.6427 18.7407 7.5027 15.9107 3.6327 15.9107Z"
        fillRule="evenodd"
        clipRule="evenodd"
    />
</svg>
        