<svg viewBox="0 0 30.05078125 22.162109375" xmlns="http://www.w3.org/2000/svg"><path d="M4.2937 22.1616H25.7737C28.6337 22.1616 30.0537 20.7416 30.0537 17.9216V4.2416C30.0537 1.4216 28.6337 0.0016 25.7737 0.0016H4.2937C1.4337 0.0016 0.0037 1.4216 0.0037 4.2416V17.9216C0.0037 20.7416 1.4337 22.1616 4.2937 22.1616ZM18.5437 8.3516C17.6237 8.3516 16.8837 7.6016 16.8837 6.7016C16.8837 5.8016 17.6237 5.0416 18.5437 5.0416C19.4437 5.0416 20.1937 5.8016 20.1937 6.7016C20.1937 7.6016 19.4437 8.3516 18.5437 8.3516ZM23.3937 8.3516C22.4937 8.3516 21.7337 7.6016 21.7337 6.7016C21.7337 5.8016 22.4937 5.0416 23.3937 5.0416C24.2937 5.0416 25.0437 5.8016 25.0437 6.7016C25.0437 7.6016 24.2937 8.3516 23.3937 8.3516ZM10.0037 16.8316C7.6437 16.8316 6.0437 15.2816 6.0437 12.9916C6.0437 11.8516 6.5237 10.8316 6.8737 10.0716C7.5037 8.7116 8.5437 7.0316 9.4237 5.6616C9.5837 5.4016 9.7637 5.2816 10.0037 5.2816C10.2537 5.2816 10.4337 5.4016 10.5937 5.6616C11.4837 7.0316 12.5237 8.7116 13.1437 10.0716C13.4937 10.8316 13.9737 11.8516 13.9737 12.9916C13.9737 15.2816 12.3737 16.8316 10.0037 16.8316ZM18.5437 12.7116C17.6237 12.7116 16.8837 11.9616 16.8837 11.0616C16.8837 10.1616 17.6237 9.4016 18.5437 9.4016C19.4437 9.4016 20.1937 10.1616 20.1937 11.0616C20.1937 11.9616 19.4437 12.7116 18.5437 12.7116ZM23.3937 12.7116C22.4937 12.7116 21.7337 11.9616 21.7337 11.0616C21.7337 10.1616 22.4937 9.4016 23.3937 9.4016C24.2937 9.4016 25.0437 10.1616 25.0437 11.0616C25.0437 11.9616 24.2937 12.7116 23.3937 12.7116ZM18.5437 17.0716C17.6237 17.0716 16.8837 16.3216 16.8837 15.4216C16.8837 14.5216 17.6237 13.7716 18.5437 13.7716C19.4437 13.7716 20.1937 14.5216 20.1937 15.4216C20.1937 16.3216 19.4437 17.0716 18.5437 17.0716ZM23.3937 17.0716C22.4937 17.0716 21.7337 16.3216 21.7337 15.4216C21.7337 14.5216 22.4937 13.7716 23.3937 13.7716C24.2937 13.7716 25.0437 14.5216 25.0437 15.4216C25.0437 16.3216 24.2937 17.0716 23.3937 17.0716Z" /></svg>