
<svg
    viewBox={0 0 27.890625 27.890625}
    xmlns="http://www.w3.org/2000/svg"
>
    <path
        fill="inherit"
        d="M13.9427 27.8864C21.6427 27.8864 27.8927 21.6264 27.8927 13.9464C27.8927 6.2464 21.6427 -0.0036 13.9427 -0.0036C6.2627 -0.0036 0.0027 6.2464 0.0027 13.9464C0.0027 21.6264 6.2627 27.8864 13.9427 27.8864ZM13.9427 20.8464C11.0627 20.8464 9.0927 18.9764 9.0927 16.1764C9.0927 14.7764 9.6927 13.5364 10.1027 12.5964C10.8827 10.9364 12.1227 8.8564 13.2227 7.2064C13.4427 6.8764 13.6627 6.7264 13.9427 6.7264C14.2327 6.7264 14.4627 6.8764 14.6727 7.2064C15.7627 8.8564 17.0227 10.9364 17.7827 12.5964C18.1927 13.5364 18.8027 14.7764 18.8027 16.1764C18.8027 18.9764 16.8327 20.8464 13.9427 20.8464Z"
        fillRule="evenodd"
        clipRule="evenodd"
    />
</svg>
        