
<svg
    viewBox={0 0 27.890625 27.890625}
    xmlns="http://www.w3.org/2000/svg"
>
    <path
        fill="inherit"
        d="M13.9427 27.8864C21.6427 27.8864 27.8927 21.6464 27.8927 13.9464C27.8927 6.2464 21.6427 -0.0036 13.9427 -0.0036C6.2527 -0.0036 0.0027 6.2464 0.0027 13.9464C0.0027 21.6464 6.2527 27.8864 13.9427 27.8864ZM13.9427 25.5664C7.5227 25.5664 2.3227 20.3664 2.3227 13.9464C2.3227 7.5164 7.5227 2.3264 13.9427 2.3264C20.3727 2.3264 25.5627 7.5164 25.5627 13.9464C25.5627 20.3664 20.3727 25.5664 13.9427 25.5664ZM13.9327 20.6464C16.7327 20.6464 18.6327 18.8264 18.6327 16.1064C18.6327 14.7564 18.0627 13.5464 17.6527 12.6164C16.9127 11.0164 15.6927 9.0064 14.6327 7.3964C14.4327 7.0864 14.2027 6.9464 13.9327 6.9464C13.6627 6.9464 13.4427 7.0864 13.2327 7.3964C12.1727 9.0064 10.9627 11.0164 10.2127 12.6164C9.8027 13.5464 9.2327 14.7564 9.2327 16.1064C9.2327 18.8264 11.1327 20.6464 13.9327 20.6464Z"
        fillRule="evenodd"
        clipRule="evenodd"
    />
</svg>
        