
<svg
    viewBox={0 0 30.05078125 22.162109375}
    xmlns="http://www.w3.org/2000/svg"
>
    <path
        fill="inherit"
        d="M4.2937 22.1616H25.7737C28.6337 22.1616 30.0537 20.7416 30.0537 17.9216V4.2416C30.0537 1.4216 28.6337 0.0016 25.7737 0.0016H4.2937C1.4337 0.0016 0.0037 1.4216 0.0037 4.2416V17.9216C0.0037 20.7416 1.4337 22.1616 4.2937 22.1616ZM4.3237 19.9616C2.9537 19.9616 2.2037 19.2216 2.2037 17.8016V4.3616C2.2037 2.9416 2.9537 2.2016 4.3237 2.2016H25.7337C27.0837 2.2016 27.8537 2.9416 27.8537 4.3616V17.8016C27.8537 19.2216 27.0837 19.9616 25.7337 19.9616ZM18.4437 8.4316C19.3137 8.4316 20.0437 7.7116 20.0437 6.8316C20.0437 5.9616 19.3137 5.2316 18.4437 5.2316C17.5537 5.2316 16.8437 5.9616 16.8437 6.8316C16.8437 7.7116 17.5537 8.4316 18.4437 8.4316ZM23.1437 8.4316C24.0237 8.4316 24.7437 7.7116 24.7437 6.8316C24.7437 5.9616 24.0237 5.2316 23.1437 5.2316C22.2737 5.2316 21.5437 5.9616 21.5437 6.8316C21.5437 7.7116 22.2737 8.4316 23.1437 8.4316ZM9.9137 16.6516C12.2137 16.6516 13.7537 15.1616 13.7537 12.9316C13.7537 11.8216 13.2937 10.8416 12.9437 10.1016C12.3437 8.7816 11.3437 7.1516 10.4837 5.8216C10.3237 5.5816 10.1437 5.4516 9.9137 5.4516C9.6837 5.4516 9.5037 5.5816 9.3337 5.8216C8.4937 7.1516 7.4937 8.7816 6.8737 10.1016C6.5337 10.8416 6.0737 11.8216 6.0737 12.9316C6.0737 15.1616 7.6137 16.6516 9.9137 16.6516ZM18.4437 12.6616C19.3137 12.6616 20.0437 11.9316 20.0437 11.0616C20.0437 10.1816 19.3137 9.4616 18.4437 9.4616C17.5537 9.4616 16.8437 10.1816 16.8437 11.0616C16.8437 11.9316 17.5537 12.6616 18.4437 12.6616ZM23.1437 12.6616C24.0237 12.6616 24.7437 11.9316 24.7437 11.0616C24.7437 10.1816 24.0237 9.4616 23.1437 9.4616C22.2737 9.4616 21.5437 10.1816 21.5437 11.0616C21.5437 11.9316 22.2737 12.6616 23.1437 12.6616ZM18.4437 16.8816C19.3137 16.8816 20.0437 16.1616 20.0437 15.2816C20.0437 14.4116 19.3137 13.6816 18.4437 13.6816C17.5537 13.6816 16.8437 14.4116 16.8437 15.2816C16.8437 16.1616 17.5537 16.8816 18.4437 16.8816ZM23.1437 16.8816C24.0237 16.8816 24.7437 16.1616 24.7437 15.2816C24.7437 14.4116 24.0237 13.6816 23.1437 13.6816C22.2737 13.6816 21.5437 14.4116 21.5437 15.2816C21.5437 16.1616 22.2737 16.8816 23.1437 16.8816Z"
        fillRule="evenodd"
        clipRule="evenodd"
    />
</svg>
        