
<svg
    viewBox="0 0 23.37890625 31.076171875"
    xmlns="http://www.w3.org/2000/svg"
>
    <path
        fill="inherit"
        d="M19.2127 8.3513C21.5427 8.3513 23.3827 6.5213 23.3827 4.1813C23.3827 1.8313 21.5427 0.0013 19.2127 0.0013C16.8527 0.0013 15.0227 1.8313 15.0227 4.1813C15.0227 6.5213 16.8527 8.3513 19.2127 8.3513ZM19.2127 6.4213C17.9527 6.4213 16.9527 5.4413 16.9527 4.1813C16.9527 2.9113 17.9527 1.9313 19.2127 1.9313C20.4627 1.9313 21.4527 2.9113 21.4527 4.1813C21.4527 5.4413 20.4627 6.4213 19.2127 6.4213ZM9.4727 31.0713C15.1627 31.0713 18.9527 27.3713 18.9527 21.8213C18.9527 19.0813 17.8827 16.3613 17.0727 14.5513C15.6127 11.2513 13.3127 7.6313 11.3227 4.5413C10.8427 3.8113 10.2827 3.3913 9.4727 3.3913C8.6727 3.3913 8.1027 3.8113 7.6327 4.5413C5.6327 7.6313 3.3327 11.2513 1.8727 14.5513C1.0827 16.3613 0.0027 19.0813 0.0027 21.8213C0.0027 27.3713 3.7827 31.0713 9.4727 31.0713ZM9.4727 28.8313C5.1227 28.8313 2.2427 26.0313 2.2427 21.8213C2.2427 19.5813 3.1027 17.4013 3.8727 15.6313C5.4027 12.0313 7.4227 9.0813 9.3427 6.1913C9.4327 6.0613 9.5427 6.0613 9.6227 6.1913C11.5227 9.0813 13.5627 12.0313 15.0627 15.6113C15.8427 17.4013 16.7227 19.5813 16.7227 21.8213C16.7227 26.0313 13.8227 28.8313 9.4727 28.8313Z"
        fillRule="evenodd"
        clipRule="evenodd"
    />
</svg>
        