<svg viewBox="0 0 24.952902580633236 31.076171875" xmlns="http://www.w3.org/2000/svg"><path d="M20.7667 8.3513C23.1167 8.3513 24.9567 6.5213 24.9567 4.1813C24.9567 1.8313 23.1167 0.0013 20.7667 0.0013C18.4267 0.0013 16.5967 1.8313 16.5967 4.1813C16.5967 6.5213 18.4267 8.3513 20.7667 8.3513ZM20.7667 6.4213C19.5067 6.4213 18.5267 5.4413 18.5267 4.1813C18.5267 2.9113 19.5067 1.9313 20.7667 1.9313C22.0367 1.9313 23.0267 2.9113 23.0267 4.1813C23.0267 5.4413 22.0367 6.4213 20.7667 6.4213ZM6.3467 9.0913L20.4167 23.1513C20.4867 22.7213 20.5267 22.2813 20.5267 21.8213C20.5267 19.0813 19.4467 16.3613 18.6467 14.5513C17.1867 11.2513 14.8867 7.6313 12.8967 4.5413C12.4167 3.8113 11.8367 3.3913 11.0467 3.3913C10.2267 3.3913 9.6767 3.8113 9.2067 4.5413C8.2567 5.9713 7.2867 7.5313 6.3467 9.0913ZM22.0667 30.0513C22.4967 30.4613 23.1667 30.4613 23.5567 30.0513C23.9667 29.6313 23.9867 28.9713 23.5567 28.5613L1.8067 6.8113C1.3967 6.4013 0.7267 6.4013 0.3067 6.8113C-0.0933 7.2213 -0.1033 7.8913 0.3067 8.3013ZM11.0467 31.0713C14.0067 31.0713 16.4367 30.0613 18.1067 28.3313L3.7067 13.9613C2.6367 16.3613 1.5767 19.0813 1.5767 21.8213C1.5767 27.3713 5.3567 31.0713 11.0467 31.0713Z" /></svg>