<svg viewBox="0 0 28.65625 25.9765625" xmlns="http://www.w3.org/2000/svg"><path d="M3.7309 25.9777H24.9209C27.2509 25.9777 28.6609 24.3677 28.6609 22.2677C28.6609 21.6277 28.4609 20.9577 28.1209 20.3577L17.5109 1.8777C16.8009 0.6277 15.5909 -0.0023 14.3309 -0.0023C13.0709 -0.0023 11.8409 0.6277 11.1409 1.8777L0.5309 20.3577C0.1609 20.9677 0.0009 21.6277 0.0009 22.2677C0.0009 24.3677 1.4109 25.9777 3.7309 25.9777ZM14.3309 20.8777C11.9609 20.8777 10.3609 19.3277 10.3609 17.0377C10.3609 15.8977 10.8409 14.8777 11.2009 14.1277C11.8309 12.7577 12.8609 11.0777 13.7409 9.7077C13.9009 9.4477 14.0909 9.3277 14.3309 9.3277C14.5709 9.3277 14.7509 9.4477 14.9209 9.7077C15.8009 11.0777 16.8409 12.7577 17.4609 14.1277C17.8109 14.8777 18.2909 15.8977 18.2909 17.0377C18.2909 19.3277 16.7109 20.8777 14.3309 20.8777Z" /></svg>