
<svg
    viewBox="0 0 25.580078125 30.003129031592806"
    xmlns="http://www.w3.org/2000/svg"
>
    <path
        fill="inherit"
        d="M0.0037 6.8866H23.7237V3.2666C23.7237 1.2966 22.4537 -0.0034 20.5637 -0.0034H3.1737C1.2737 -0.0034 0.0037 1.2966 0.0037 3.2666ZM4.9537 5.4666C4.2637 5.4666 3.7037 4.8966 3.7037 4.2266C3.7037 3.5266 4.2637 2.9766 4.9537 2.9766C5.6337 2.9766 6.1837 3.5266 6.1837 4.2266C6.1837 4.8966 5.6337 5.4666 4.9537 5.4666ZM8.5437 5.4666C7.8637 5.4666 7.3137 4.8966 7.3137 4.2266C7.3137 3.5266 7.8637 2.9766 8.5437 2.9766C9.2237 2.9766 9.7737 3.5266 9.7737 4.2266C9.7737 4.8966 9.2237 5.4666 8.5437 5.4666ZM15.9137 4.9366C15.4937 4.9366 15.2137 4.6466 15.2137 4.2266C15.2137 3.7966 15.4937 3.4966 15.9137 3.4966H19.2737C19.7137 3.4966 19.9837 3.7966 19.9837 4.2266C19.9837 4.6466 19.7137 4.9366 19.2737 4.9366ZM3.1737 28.7066H13.3037C13.4237 28.1866 13.8237 27.7566 13.8237 27.0966C13.8237 26.5066 13.2037 25.8266 12.6337 24.7066H6.5637C5.4837 24.7066 4.7437 23.9666 4.7437 22.8766V13.6466C4.7437 12.5466 5.4837 11.8166 6.5637 11.8166H17.1537C18.2337 11.8166 18.9937 12.5466 18.9937 13.6466V15.6166C19.8237 15.6266 20.3737 15.9566 20.9037 16.4566C21.6337 15.7466 22.6937 15.3766 23.7237 15.7066V8.7466H0.0037V25.4466C0.0037 27.4166 1.2737 28.7066 3.1737 28.7066ZM6.8037 23.1866H12.0437C11.7837 22.4366 11.5537 21.5466 11.5537 20.4566C11.5537 18.2366 12.6237 15.5966 14.9837 15.5966C15.9137 15.5966 16.6537 16.0666 16.9637 16.4766C17.0937 16.2866 17.2537 16.1166 17.4637 16.0266V13.8866C17.4637 13.5466 17.2437 13.3266 16.9137 13.3266H6.8037C6.4837 13.3266 6.2637 13.5466 6.2637 13.8866V22.6266C6.2637 22.9666 6.4837 23.1866 6.8037 23.1866ZM23.5337 29.8066C23.9637 30.0966 24.6137 30.0466 24.9337 29.4666C25.3437 28.7366 25.5837 27.9066 25.5837 27.0866C25.5837 24.0866 23.2937 22.6266 23.2937 20.4266C23.2937 19.8766 23.4037 19.4866 23.7337 18.8966C24.0237 18.4166 23.7937 17.9266 23.4237 17.6866C23.0137 17.4466 22.3837 17.4766 22.0537 18.0366C21.6337 18.7566 21.4237 19.5966 21.4237 20.4266C21.4237 23.3666 23.6937 24.8166 23.6937 27.0866C23.6937 27.6266 23.5937 27.9966 23.2537 28.5866C22.9737 29.0966 23.2037 29.5866 23.5337 29.8066ZM15.6037 29.8366C16.0137 30.1066 16.6537 30.0966 17.0237 29.4866C17.4137 28.7666 17.6537 27.9166 17.6537 27.0966C17.6537 24.1166 15.3637 22.6566 15.3637 20.4566C15.3637 19.8966 15.4737 19.4966 15.8137 18.9266C16.0937 18.4466 15.8737 17.9366 15.5037 17.7066C15.0937 17.4466 14.4637 17.4866 14.1337 18.0566C13.7137 18.7666 13.4937 19.6166 13.4937 20.4566C13.4937 23.3766 15.7637 24.8466 15.7637 27.0966C15.7637 27.6566 15.6637 28.0266 15.3237 28.6166C15.0437 29.1066 15.2837 29.6166 15.6037 29.8366ZM19.5637 29.8166C20.0037 30.1066 20.6437 30.0666 20.9737 29.4766C21.3837 28.7566 21.6137 27.9166 21.6137 27.0966C21.6137 24.1066 19.3337 22.6366 19.3337 20.4366C19.3337 19.8966 19.4437 19.4966 19.7737 18.9066C20.0537 18.4266 19.8237 17.9366 19.4537 17.7066C19.0537 17.4566 18.4137 17.4866 18.0837 18.0466C17.6737 18.7666 17.4637 19.6066 17.4637 20.4366C17.4637 23.3766 19.7237 24.8266 19.7237 27.0966C19.7237 27.6466 19.6337 28.0166 19.3037 28.6066C19.0137 29.1066 19.2337 29.5966 19.5637 29.8166Z"
        fillRule="evenodd"
        clipRule="evenodd"
    />
</svg>
        