
<svg
    viewBox={0 0 25.580078125 30.003129031592806}
    xmlns="http://www.w3.org/2000/svg"
>
    <path
        fill="inherit"
        d="M3.1737 28.7066H13.3837C13.4437 28.1066 13.8237 27.7766 13.8337 27.2766C13.8537 27.0566 13.7437 26.8066 13.5637 26.5066H3.2637C2.6437 26.5066 2.2037 26.0766 2.2037 25.4266V8.9166H21.5237V16.0766C22.1937 15.6666 22.9837 15.5766 23.7237 15.7866V3.2666C23.7237 1.2966 22.4537 -0.0034 20.5637 -0.0034H3.1737C1.2737 -0.0034 0.0037 1.2966 0.0037 3.2666V25.4466C0.0037 27.4166 1.2737 28.7066 3.1737 28.7066ZM2.2037 3.2766C2.2037 2.6266 2.6437 2.1966 3.2637 2.1966H20.4537C21.0937 2.1966 21.5237 2.6266 21.5237 3.2766V7.1266H2.2037ZM5.1537 5.8666C5.8237 5.8666 6.3537 5.3166 6.3537 4.6666C6.3537 3.9966 5.8237 3.4566 5.1537 3.4566C4.4937 3.4566 3.9537 3.9966 3.9537 4.6666C3.9537 5.3166 4.4937 5.8666 5.1537 5.8666ZM8.6437 5.8666C9.3137 5.8666 9.8437 5.3166 9.8437 4.6666C9.8437 3.9966 9.3137 3.4566 8.6437 3.4566C7.9837 3.4566 7.4537 3.9966 7.4537 4.6666C7.4537 5.3166 7.9837 5.8666 8.6437 5.8666ZM15.7937 5.3466H19.0537C19.4737 5.3466 19.7437 5.0766 19.7437 4.6666C19.7437 4.2566 19.4737 3.9666 19.0537 3.9666H15.7937C15.3837 3.9666 15.1037 4.2566 15.1037 4.6666C15.1037 5.0766 15.3837 5.3466 15.7937 5.3466ZM6.5637 24.1566H12.4837C12.3037 23.7166 12.1437 23.2166 12.0137 22.6366H6.8037C6.4837 22.6366 6.2637 22.4266 6.2637 22.0766V13.3466C6.2637 13.0066 6.4837 12.7866 6.8037 12.7866H16.9137C17.2437 12.7866 17.4637 13.0066 17.4637 13.3466V16.1066C17.9237 15.8166 18.4537 15.6666 18.9937 15.6966V13.0966C18.9937 12.0066 18.2337 11.2666 17.1537 11.2666H6.5637C5.4837 11.2666 4.7437 12.0066 4.7437 13.0966V22.3266C4.7437 23.4166 5.4837 24.1566 6.5637 24.1566ZM23.5337 29.8066C23.9637 30.0966 24.6137 30.0466 24.9337 29.4666C25.3437 28.7366 25.5837 27.9066 25.5837 27.0866C25.5837 24.0866 23.2937 22.6266 23.2937 20.4266C23.2937 19.8766 23.4037 19.4866 23.7337 18.8966C24.0237 18.4166 23.8037 17.8966 23.4237 17.6866C23.0237 17.4166 22.3837 17.4766 22.0537 18.0366C21.6337 18.7566 21.4237 19.5966 21.4237 20.4266C21.4237 23.3666 23.6937 24.8166 23.6937 27.0866C23.6937 27.6266 23.5937 27.9966 23.2537 28.5866C22.9737 29.0966 23.2037 29.5866 23.5337 29.8066ZM19.5637 29.8166C20.0037 30.1066 20.6437 30.0666 20.9737 29.4766C21.3837 28.7566 21.6137 27.9166 21.6137 27.0966C21.6137 24.1066 19.3337 22.6366 19.3337 20.4366C19.3337 19.8966 19.4437 19.4966 19.7737 18.9066C20.0537 18.4266 19.8337 17.9066 19.4537 17.7066C19.0737 17.4366 18.4137 17.4866 18.0837 18.0466C17.6737 18.7666 17.4637 19.6066 17.4637 20.4366C17.4637 23.3766 19.7237 24.8266 19.7237 27.0966C19.7237 27.6466 19.6337 28.0166 19.3037 28.6066C19.0137 29.1066 19.2337 29.5966 19.5637 29.8166ZM15.6037 29.8366C16.0137 30.1066 16.6537 30.0966 17.0237 29.4866C17.4137 28.7666 17.6537 27.9166 17.6537 27.0966C17.6537 24.1166 15.3637 22.6566 15.3637 20.4566C15.3637 19.8966 15.4737 19.4966 15.8137 18.9266C16.0937 18.4466 15.8837 17.9266 15.5037 17.7066C15.1037 17.4366 14.4637 17.4866 14.1337 18.0566C13.7137 18.7666 13.4937 19.6166 13.4937 20.4566C13.4937 23.3766 15.7637 24.8466 15.7637 27.0966C15.7637 27.6566 15.6637 28.0266 15.3237 28.6166C15.0437 29.1066 15.2837 29.6166 15.6037 29.8366Z"
        fillRule="evenodd"
        clipRule="evenodd"
    />
</svg>
        