<svg viewBox="0 0 37.966796875 27.330078125" xmlns="http://www.w3.org/2000/svg"><path d="M33.4037 27.333C36.2037 27.333 37.9637 25.593 37.9637 22.833V15.053C37.9637 10.983 35.1237 8.173 31.0037 8.173H29.9137V27.333ZM13.9137 8.173V15.643H24.0637V8.173ZM13.9137 17.433V27.333H24.0637V17.433ZM12.1237 27.333V5.753C12.1237 3.593 13.8037 2.273 16.4437 2.273H21.5237C24.1737 2.273 25.8537 3.593 25.8537 5.753V27.333H28.1237V5.753C28.1237 2.203 25.5537 0.003 21.5237 0.003H16.4437C12.4237 0.003 9.8537 2.203 9.8537 5.753V27.333ZM4.5637 27.333H8.0637V8.173H6.9637C2.8437 8.173 0.0037 10.983 0.0037 15.053V22.833C0.0037 25.593 1.7637 27.333 4.5637 27.333Z" /></svg>