
<svg
    viewBox={0 0 34.58984375 20.234375}
    xmlns="http://www.w3.org/2000/svg"
>
    <path
        fill="inherit"
        d="M2.5737 17.212H3.5537C3.8037 19.142 5.0137 20.232 7.0037 20.232H7.9737C10.2537 20.232 11.5837 18.872 11.5837 16.472V13.292H23.0137V16.472C23.0137 18.872 24.3337 20.232 26.6237 20.232H27.5937C29.5537 20.232 30.7937 19.142 31.0337 17.212H32.0237C33.4737 17.212 34.5937 16.092 34.5937 14.652V5.582C34.5937 4.132 33.4737 3.012 32.0237 3.012H31.0237C30.7937 1.092 29.6137 0.002 27.7437 0.002H26.5937C24.3037 0.002 23.0137 1.392 23.0137 3.792V6.932H11.5837V3.792C11.5837 1.392 10.2637 0.002 7.9937 0.002H6.8337C4.9637 0.002 3.8037 1.092 3.5537 3.012H2.5737C1.1237 3.012 0.0037 4.132 0.0037 5.582V14.652C0.0037 16.092 1.1237 17.212 2.5737 17.212ZM7.0237 18.172C6.1237 18.172 5.5737 17.542 5.5737 16.472V3.792C5.5737 2.712 6.0737 2.062 6.8737 2.062H7.9537C8.9237 2.062 9.5137 2.712 9.5137 3.792V16.472C9.5137 17.542 8.9237 18.172 7.9337 18.172ZM26.6637 18.172C25.6637 18.172 25.0737 17.542 25.0737 16.472V3.792C25.0737 2.712 25.6437 2.062 26.6337 2.062H27.7137C28.5237 2.062 29.0137 2.712 29.0137 3.792V16.472C29.0137 17.542 28.4637 18.172 27.5637 18.172ZM32.0037 4.932C32.3737 4.932 32.6637 5.232 32.6637 5.622V14.632C32.6637 15.002 32.3737 15.282 32.0037 15.282H31.0737V4.932ZM2.5837 15.282C2.2037 15.282 1.9237 15.002 1.9237 14.632V5.622C1.9237 5.232 2.2037 4.932 2.5837 4.932H3.5137V15.282ZM11.5837 11.222V8.992H23.0137V11.222Z"
        fillRule="evenodd"
        clipRule="evenodd"
    />
</svg>
        