
<svg
    viewBox="0 0 34.58984375 20.234375"
    xmlns="http://www.w3.org/2000/svg"
>
    <path
        fill="inherit"
        d="M8.4337 20.2383C10.2537 20.2383 11.5237 19.0183 11.5237 17.2983V2.9483C11.5237 1.2183 10.2537 -0.0017 8.4337 -0.0017C6.6337 -0.0017 5.3637 1.2183 5.3637 2.9483V17.2983C5.3637 19.0183 6.6337 20.2383 8.4337 20.2383ZM26.2737 20.2383C28.0937 20.2383 29.3637 19.0183 29.3637 17.2983V2.9483C29.3637 1.2183 28.0937 -0.0017 26.2737 -0.0017C24.4737 -0.0017 23.2037 1.2183 23.2037 2.9483V17.2983C23.2037 19.0183 24.4737 20.2383 26.2737 20.2383ZM1.9437 17.2083C3.0537 17.2083 3.8937 16.3683 3.8937 15.2883V4.9483C3.8937 3.8583 3.0537 2.9983 1.9437 2.9983C0.8437 2.9983 0.0037 3.8583 0.0037 4.9483V15.2883C0.0037 16.3683 0.8437 17.2083 1.9437 17.2083ZM32.6337 17.2083C33.7237 17.2083 34.5937 16.3683 34.5937 15.2883V4.9483C34.5937 3.8583 33.7237 2.9983 32.6337 2.9983C31.5437 2.9983 30.6937 3.8583 30.6937 4.9483V15.2883C30.6937 16.3683 31.5437 17.2083 32.6337 17.2083ZM13.1137 12.7583H21.6037V7.4783H13.1137Z"
        fillRule="evenodd"
        clipRule="evenodd"
    />
</svg>
        