
<svg
    viewBox={0 0 27.890625 27.890625}
    xmlns="http://www.w3.org/2000/svg"
>
    <path
        fill="inherit"
        d="M13.9427 27.8864C21.6427 27.8864 27.8927 21.6264 27.8927 13.9464C27.8927 6.2464 21.6427 -0.0036 13.9427 -0.0036C6.2627 -0.0036 0.0027 6.2464 0.0027 13.9464C0.0027 21.6264 6.2627 27.8864 13.9427 27.8864ZM10.7027 20.2364C9.9627 20.2364 9.5827 19.7264 9.5827 18.9664V8.6664C9.5827 7.9064 9.9627 7.3964 10.7027 7.3964H17.3727C17.9127 7.3964 18.3027 7.7264 18.3027 8.3164C18.3027 8.8764 17.9127 9.2464 17.3727 9.2464H11.8527V12.8364H17.0127C17.5427 12.8364 17.9327 13.1564 17.9327 13.7364C17.9327 14.2864 17.5427 14.6064 17.0127 14.6064H11.8527V18.3864H17.3727C17.9127 18.3864 18.3027 18.7264 18.3027 19.3164C18.3027 19.8764 17.9127 20.2364 17.3727 20.2364Z"
        fillRule="evenodd"
        clipRule="evenodd"
    />
</svg>
        