<svg viewBox="0 0 27.890625 27.890625" xmlns="http://www.w3.org/2000/svg"><path d="M13.9427 27.8864C21.6427 27.8864 27.8927 21.6464 27.8927 13.9464C27.8927 6.2464 21.6427 -0.0036 13.9427 -0.0036C6.2527 -0.0036 0.0027 6.2464 0.0027 13.9464C0.0027 21.6464 6.2527 27.8864 13.9427 27.8864ZM13.9427 25.5664C7.5227 25.5664 2.3227 20.3664 2.3227 13.9464C2.3227 7.5164 7.5227 2.3264 13.9427 2.3264C20.3727 2.3264 25.5627 7.5164 25.5627 13.9464C25.5627 20.3664 20.3727 25.5664 13.9427 25.5664ZM10.7827 20.0464H17.2527C17.7727 20.0464 18.1527 19.6964 18.1527 19.1564C18.1527 18.5964 17.7727 18.2564 17.2527 18.2564H11.8927V14.5764H16.9027C17.4227 14.5764 17.8027 14.2764 17.8027 13.7364C17.8027 13.1764 17.4227 12.8664 16.9027 12.8664H11.8927V9.3764H17.2527C17.7727 9.3764 18.1527 9.0264 18.1527 8.4764C18.1527 7.9164 17.7727 7.5864 17.2527 7.5864H10.7827C10.0727 7.5864 9.7027 8.0764 9.7027 8.8164V18.8164C9.7027 19.5464 10.0727 20.0464 10.7827 20.0464Z" /></svg>