
<svg
    viewBox={0 0 25.169921875 25.169921875}
    xmlns="http://www.w3.org/2000/svg"
>
    <path
        fill="inherit"
        d="M4.2937 25.1692H20.8737C23.7437 25.1692 25.1737 23.7592 25.1737 20.9492V4.2392C25.1737 1.4192 23.7437 -0.0008 20.8737 -0.0008H4.2937C1.4337 -0.0008 0.0037 1.4192 0.0037 4.2392V20.9492C0.0037 23.7592 1.4337 25.1692 4.2937 25.1692ZM9.3537 18.8692C8.6137 18.8692 8.2437 18.3592 8.2437 17.5992V7.2992C8.2437 6.5392 8.6137 6.0292 9.3537 6.0292H16.0237C16.5737 6.0292 16.9537 6.3592 16.9537 6.9492C16.9537 7.5092 16.5737 7.8792 16.0237 7.8792H10.5037V11.4692H15.6537C16.2037 11.4692 16.5837 11.7892 16.5837 12.3692C16.5837 12.9192 16.2037 13.2392 15.6537 13.2392H10.5037V17.0192H16.0237C16.5737 17.0192 16.9537 17.3592 16.9537 17.9492C16.9537 18.5092 16.5737 18.8692 16.0237 18.8692Z"
        fillRule="evenodd"
        clipRule="evenodd"
    />
</svg>
        