
<svg
    viewBox={0 0 25.169921875 25.169921875}
    xmlns="http://www.w3.org/2000/svg"
>
    <path
        fill="inherit"
        d="M4.2937 25.1692H20.8737C23.7437 25.1692 25.1737 23.7592 25.1737 20.9492V4.2392C25.1737 1.4192 23.7437 -0.0008 20.8737 -0.0008H4.2937C1.4337 -0.0008 0.0037 1.4192 0.0037 4.2392V20.9492C0.0037 23.7592 1.4337 25.1692 4.2937 25.1692ZM4.3237 22.9692C2.9537 22.9692 2.2037 22.2392 2.2037 20.8192V4.3592C2.2037 2.9392 2.9537 2.1992 4.3237 2.1992H20.8537C22.2037 2.1992 22.9737 2.9392 22.9737 4.3592V20.8192C22.9737 22.2392 22.2037 22.9692 20.8537 22.9692ZM9.4437 18.6792H15.9137C16.4437 18.6792 16.8137 18.3292 16.8137 17.7892C16.8137 17.2292 16.4437 16.8892 15.9137 16.8892H10.5537V13.2092H15.5537C16.0937 13.2092 16.4637 12.9092 16.4637 12.3692C16.4637 11.8092 16.0937 11.4992 15.5537 11.4992H10.5537V8.0092H15.9137C16.4437 8.0092 16.8137 7.6592 16.8137 7.1092C16.8137 6.5492 16.4437 6.2192 15.9137 6.2192H9.4437C8.7337 6.2192 8.3837 6.7092 8.3837 7.4492V17.4492C8.3837 18.1792 8.7337 18.6792 9.4437 18.6792Z"
        fillRule="evenodd"
        clipRule="evenodd"
    />
</svg>
        