
<svg
    viewBox={0 0 21 29.1484375}
    xmlns="http://www.w3.org/2000/svg"
>
    <path
        fill="inherit"
        d="M0.0037 22.9661C0.0037 26.7561 2.3537 29.1461 6.0337 29.1461C8.7737 29.1461 10.8237 27.9461 12.1237 25.6261L13.3537 23.4161C16.2437 18.1561 21.0037 17.4561 21.0037 10.6961C21.0037 4.2761 16.8537 -0.0039 10.6537 -0.0039C4.2937 -0.0039 0.0037 4.3061 0.0037 10.7361ZM3.6737 17.0661V10.2361C3.6737 6.3961 6.3737 3.8161 10.6337 3.8161C14.7637 3.8161 17.3337 6.3961 17.3337 10.2361C17.3337 10.7961 16.8537 11.2761 16.2937 11.2761C15.7337 11.2761 15.2737 10.7961 15.2737 10.2361C15.2737 7.6061 13.5637 5.8761 10.6337 5.8761C7.5737 5.8761 5.7437 7.6161 5.7437 10.2361V11.9761H9.8737C12.0837 11.9761 13.5537 13.3261 13.5537 15.3361C13.5537 16.1861 13.1837 17.2261 12.6237 17.9361L10.8437 20.1961C10.6137 20.4761 10.3037 20.6461 9.9937 20.6461C9.4337 20.6461 8.9537 20.1761 8.9537 19.6161C8.9537 19.3561 9.0537 19.1161 9.2237 18.8761L10.8737 16.8161C11.1937 16.4161 11.4137 15.8461 11.4137 15.4261C11.4137 14.6061 10.8237 14.0361 9.8937 14.0361H5.7437V17.0661C5.7437 17.6261 5.2637 18.1061 4.7037 18.1061C4.1437 18.1061 3.6737 17.6261 3.6737 17.0661Z"
        fillRule="evenodd"
        clipRule="evenodd"
    />
</svg>
        