
<svg
    viewBox={0 0 21 29.1484375}
    xmlns="http://www.w3.org/2000/svg"
>
    <path
        fill="inherit"
        d="M0.0037 22.9661C0.0037 26.7561 2.3537 29.1461 6.0337 29.1461C8.7737 29.1461 10.8237 27.9461 12.1237 25.6261L13.3537 23.4161C16.2437 18.1561 21.0037 17.4561 21.0037 10.6961C21.0037 4.2761 16.8537 -0.0039 10.6537 -0.0039C4.2937 -0.0039 0.0037 4.3061 0.0037 10.7361ZM2.0637 22.8361V10.7361C2.0637 5.5261 5.4937 2.0661 10.6537 2.0661C15.6237 2.0661 18.9337 5.5261 18.9337 10.6961C18.9337 16.3561 14.4937 17.3361 11.5137 22.4861L10.3237 24.5261C9.3537 26.2261 7.9937 27.0261 6.1237 27.0261C3.5937 27.0261 2.0637 25.4461 2.0637 22.8361ZM4.9737 17.6961C5.5337 17.6961 6.0137 17.2161 6.0137 16.6561V13.6261H9.4837C10.4137 13.6261 11.0037 14.1961 11.0037 15.0161C11.0037 15.4361 10.7837 16.0061 10.4637 16.4061L8.8137 18.4661C8.6437 18.7061 8.5437 18.9461 8.5437 19.2061C8.5437 19.7661 9.0237 20.2361 9.5837 20.2361C9.8937 20.2361 10.2037 20.0661 10.4337 19.7861L12.2137 17.5261C12.7737 16.8161 13.1437 15.7761 13.1437 14.9261C13.1437 12.9161 11.6737 11.5661 9.4637 11.5661H6.0137V10.6461C6.0137 8.0261 7.8437 6.2861 10.6337 6.2861C13.2937 6.2861 14.9937 8.0161 14.9937 10.6461C14.9937 11.2061 15.4637 11.6861 16.0237 11.6861C16.5837 11.6861 17.0637 11.2061 17.0637 10.6461C17.0637 6.8061 14.4937 4.2261 10.6337 4.2261C6.6437 4.2261 3.9537 6.8061 3.9537 10.6461V16.6561C3.9537 17.2161 4.4137 17.6961 4.9737 17.6961Z"
        fillRule="evenodd"
        clipRule="evenodd"
    />
</svg>
        