<svg viewBox="0 0 37.1875 24.759765625" xmlns="http://www.w3.org/2000/svg"><path d="M0.0037 5.5741C0.0037 8.2841 1.9137 10.5441 4.4537 11.0641C3.8137 9.9141 3.4337 8.5841 3.4337 7.1641C3.4337 4.2341 5.0437 1.6641 7.4237 0.3141C6.8537 0.1141 6.2337 0.0041 5.6037 0.0041C2.5037 0.0041 0.0037 2.5041 0.0037 5.5741ZM31.5937 11.1741C34.6737 11.1741 37.1837 8.6641 37.1837 5.5741C37.1837 2.5041 34.6737 0.0041 31.5937 0.0041C28.5037 0.0041 26.0037 2.5041 26.0037 5.5741C26.0037 8.6641 28.5037 11.1741 31.5937 11.1741ZM10.6337 24.7641H12.0537C13.1837 24.7641 13.8337 24.1141 13.8337 23.0141V15.8741C13.8337 14.2341 14.2437 13.3941 15.5837 12.2241C17.0237 10.9641 17.9337 9.2041 17.9337 7.1641C17.9337 3.5241 14.9937 0.5841 11.3437 0.5841C7.6937 0.5841 4.7537 3.5241 4.7537 7.1641C4.7537 9.2041 5.6737 10.9641 7.0937 12.2241C8.4537 13.3941 8.8637 14.2341 8.8637 15.8741V23.0141C8.8637 24.1141 9.5137 24.7641 10.6337 24.7641ZM25.5137 24.7641H26.9337C28.0537 24.7641 28.7137 24.1141 28.7137 23.0141V15.8741C28.7137 14.2641 29.1337 13.4441 30.3137 12.3641C27.1137 11.7541 24.6737 8.9441 24.6737 5.5741C24.6737 3.6141 25.5137 1.8341 26.8337 0.5841H26.2237C22.5737 0.5841 19.6337 3.5241 19.6337 7.1641C19.6337 9.2041 20.5537 10.9641 21.9837 12.2241C23.3237 13.3941 23.7337 14.2341 23.7337 15.8741V23.0141C23.7337 24.1141 24.3937 24.7641 25.5137 24.7641ZM34.3537 7.9341C33.6437 7.9341 33.1037 6.9041 33.1037 5.5741C33.1037 4.2841 33.6437 3.2441 34.3537 3.2441C35.0437 3.2441 35.5837 4.2841 35.5837 5.5741C35.5837 6.9041 35.0437 7.9341 34.3537 7.9341ZM12.8237 8.8041C12.4437 8.8041 12.1237 8.4941 12.1237 8.0941V5.4941C12.1237 5.1241 12.4437 4.8141 12.8237 4.8141C13.2037 4.8141 13.5237 5.1241 13.5237 5.4941V8.0941C13.5237 8.4941 13.2037 8.8041 12.8237 8.8041Z" /></svg>