
<svg
    viewBox={0 0 32.62109375 21.68359375}
    xmlns="http://www.w3.org/2000/svg"
>
    <path
        fill="inherit"
        d="M0.0037 7.8029H32.6237V7.3929C32.6237 2.4329 29.6437 0.0029 24.2137 0.0029H8.4337C3.0037 0.0029 0.0037 2.4329 0.0037 7.3929ZM8.4337 21.6829H24.1837C29.8737 21.6829 32.6237 19.0029 32.6237 13.4629V9.1829H0.0037V13.4629C0.0037 19.0029 2.7437 21.6829 8.4337 21.6829ZM16.3137 14.2629C15.5837 14.2629 14.9937 13.6729 14.9937 12.9429C14.9937 12.2229 15.5837 11.6229 16.3137 11.6229C17.0337 11.6229 17.6337 12.2229 17.6337 12.9429C17.6337 13.6729 17.0337 14.2629 16.3137 14.2629Z"
        fillRule="evenodd"
        clipRule="evenodd"
    />
</svg>
        