<svg viewBox="0 0 32.62109375 21.68359375" xmlns="http://www.w3.org/2000/svg"><path d="M8.4337 21.6792H24.1837C29.8737 21.6792 32.6237 18.9992 32.6237 13.4692V8.2592C32.6237 2.6892 29.9237 -0.0008 24.3337 -0.0008H8.2837C2.7037 -0.0008 0.0037 2.6892 0.0037 8.2592V13.4692C0.0037 18.9992 2.7437 21.6792 8.4337 21.6792ZM8.2837 2.1992H24.3337C28.3837 2.1992 30.2837 3.9392 30.4237 7.7892H2.2137C2.3337 3.9392 4.2337 2.1992 8.2837 2.1992ZM8.4337 19.4792C4.1437 19.4792 2.2037 17.6192 2.2037 13.4692V9.1692H30.4237V13.4692C30.4237 17.6192 28.4937 19.4792 24.1837 19.4792ZM16.3137 14.2592C17.0337 14.2592 17.6337 13.6592 17.6337 12.9292C17.6337 12.2092 17.0337 11.6192 16.3137 11.6192C15.5837 11.6192 14.9937 12.2092 14.9937 12.9292C14.9937 13.6592 15.5837 14.2592 16.3137 14.2592Z" /></svg>