<svg viewBox="0 0 27.1796875 26.6328125" xmlns="http://www.w3.org/2000/svg"><path d="M6.0137 11.0912C9.2137 11.1112 11.9637 8.6012 11.9637 5.5212C11.9637 2.4912 9.2137 0.0012 6.0137 0.0012C3.0737 0.0012 1.2737 1.8212 0.4137 3.0912C0.1237 3.5312 0.0037 4.0012 0.0037 4.5412V6.5512C0.0037 7.0812 0.1337 7.5612 0.4137 8.0012C1.2437 9.2712 3.0737 11.0512 6.0137 11.0912ZM21.1637 11.0912C24.1037 11.0512 25.9337 9.2712 26.7737 8.0012C27.0437 7.5612 27.1837 7.0812 27.1837 6.5512V4.5412C27.1837 4.0012 27.0537 3.5312 26.7737 3.0912C25.9037 1.8212 24.1037 0.0012 21.1637 0.0012C17.9637 0.0012 15.2137 2.4912 15.2137 5.5212C15.2137 8.6012 17.9637 11.1112 21.1637 11.0912ZM2.4837 7.7112C2.1437 7.7112 1.8737 7.4412 1.8737 7.0812V3.9912C1.8737 3.6412 2.1437 3.3612 2.4837 3.3612C2.8537 3.3612 3.1137 3.6412 3.1137 3.9912V7.0812C3.1137 7.4412 2.8537 7.7112 2.4837 7.7112ZM24.6737 7.7112C24.3237 7.7112 24.0637 7.4412 24.0637 7.0812V3.9912C24.0637 3.6412 24.3237 3.3612 24.6737 3.3612C25.0337 3.3612 25.3037 3.6412 25.3037 3.9912V7.0812C25.3037 7.4412 25.0337 7.7112 24.6737 7.7112ZM7.9437 26.6312H9.3237V21.4612C10.0937 21.4212 10.5637 21.0112 10.5637 20.2312V10.8812C9.4837 11.7212 8.1437 12.2612 6.7137 12.3712V20.2312C6.7137 21.0112 7.1937 21.4212 7.9437 21.4612ZM19.2337 26.6312V21.4612C19.9837 21.4212 20.4637 21.0112 20.4637 20.2312V12.3712C19.0337 12.2612 17.6937 11.7212 16.6137 10.8812V20.2312C16.6137 21.0112 17.0937 21.4212 17.8537 21.4612V26.6312Z" /></svg>