<svg viewBox="0 0 22.99609375 29.3125" xmlns="http://www.w3.org/2000/svg"><path d="M0.0037 25.0373C0.0037 27.8873 1.4037 29.3173 4.2337 29.3173H18.7537C21.5837 29.3173 22.9937 27.8873 22.9937 25.0373V4.2973C22.9937 1.4473 21.5837 -0.0027 18.7537 -0.0027H4.2337C1.4037 -0.0027 0.0037 1.4473 0.0037 4.2973ZM2.2037 24.9873V4.3373C2.2037 2.9673 2.9237 2.1973 4.3437 2.1973H18.6437C20.0737 2.1973 20.7937 2.9673 20.7937 4.3373V24.9873C20.7937 26.3573 20.0737 27.1073 18.6437 27.1073H4.3437C2.9237 27.1073 2.2037 26.3573 2.2037 24.9873ZM6.1837 11.1173H8.4937C8.9037 11.1173 9.1637 10.8873 9.2537 10.5273L9.7937 8.3773L10.9637 14.0373C11.1137 14.7973 12.1137 14.7973 12.3437 14.0573L13.6537 9.5273L13.9037 10.4873C13.9837 10.8873 14.2637 11.1173 14.6737 11.1173H16.8137C17.2137 11.1173 17.5237 10.7873 17.5237 10.4073C17.5237 10.0073 17.2237 9.7073 16.8137 9.7073H15.0937L14.3837 6.9573C14.2037 6.2473 13.2437 6.2573 13.0137 6.9873L11.7337 11.1573L10.4837 5.1173C10.3237 4.3573 9.3237 4.3473 9.1437 5.0973L8.0237 9.7073H6.1837C5.7837 9.7073 5.4737 10.0173 5.4737 10.4073C5.4737 10.7873 5.7837 11.1173 6.1837 11.1173ZM6.2937 19.0273H16.7337C17.2237 19.0273 17.5837 18.6473 17.5837 18.1673C17.5837 17.7073 17.2237 17.3473 16.7337 17.3473H6.2937C5.7937 17.3473 5.4237 17.7073 5.4237 18.1673C5.4237 18.6473 5.7937 19.0273 6.2937 19.0273ZM6.2937 23.1373H11.2237C11.7137 23.1373 12.0737 22.7773 12.0737 22.3173C12.0737 21.8373 11.7137 21.4473 11.2237 21.4473H6.2937C5.7937 21.4473 5.4237 21.8373 5.4237 22.3173C5.4237 22.7773 5.7937 23.1373 6.2937 23.1373Z" /></svg>