
<svg
    viewBox="0 0 26.33203125 25.45703125"
    xmlns="http://www.w3.org/2000/svg"
>
    <path
        fill="inherit"
        d="M2.2837 15.4913H24.0737C25.3337 15.4913 25.9937 14.8513 26.0137 13.7513C26.0337 13.2313 25.7737 12.7013 25.3437 12.2413L15.0837 0.9612C14.5737 0.4112 13.9437 0.0012 13.1837 0.0012C12.4037 0.0012 11.8137 0.3813 11.2637 0.9612L1.0137 12.2413C0.5837 12.7013 0.3437 13.2313 0.3437 13.7513C0.3437 14.8513 1.0237 15.4913 2.2837 15.4913ZM3.7337 13.4213C3.4737 13.4213 3.3537 13.3013 3.3537 13.1113C3.3537 13.0113 3.3937 12.9213 3.4637 12.8513L12.7237 2.7712C12.8837 2.6213 12.9837 2.5113 13.1837 2.5113C13.3737 2.5113 13.4937 2.6213 13.6337 2.7712L22.8837 12.8513C22.9737 12.9313 23.0137 13.0113 23.0137 13.1113C23.0137 13.3013 22.8737 13.4213 22.6237 13.4213ZM2.9437 25.4613H23.3937C25.2837 25.4613 26.3337 24.4713 26.3337 22.6313V21.0513C26.3337 19.2113 25.2837 18.2213 23.3937 18.2213H2.9437C1.0537 18.2213 0.0037 19.1913 0.0037 21.0513V22.6313C0.0037 24.4913 1.0537 25.4613 2.9437 25.4613ZM3.1137 23.4513C2.5137 23.4513 2.2037 23.0913 2.2037 22.4913V21.1913C2.2037 20.5913 2.5137 20.2313 3.1137 20.2313H23.2137C23.8337 20.2313 24.1337 20.5913 24.1337 21.1913V22.4913C24.1337 23.0913 23.8337 23.4513 23.2137 23.4513Z"
        fillRule="evenodd"
        clipRule="evenodd"
    />
</svg>
        