<svg viewBox="0 0 25.9765625 25.23828125" xmlns="http://www.w3.org/2000/svg"><path d="M1.9537 15.2466H23.9937C25.0837 15.2466 25.6937 14.6666 25.6937 13.7166C25.6937 13.2666 25.4837 12.7866 25.1037 12.3766L14.6537 0.8466C14.1937 0.3466 13.6537 -0.0034 12.9737 -0.0034C12.3137 -0.0034 11.7537 0.3666 11.3037 0.8466L0.8437 12.3766C0.4637 12.7866 0.2437 13.2666 0.2637 13.7166C0.2737 14.6666 0.8637 15.2466 1.9537 15.2466ZM2.2237 25.2366H23.7437C25.1437 25.2366 25.9737 24.3766 25.9737 22.9866V20.5066C25.9737 19.1166 25.1437 18.2566 23.7437 18.2566H2.2237C0.8337 18.2566 0.0037 19.1166 0.0037 20.5066V22.9866C0.0037 24.3766 0.8337 25.2366 2.2237 25.2366Z" /></svg>