<svg viewBox="0 0 27.890625 27.890625" xmlns="http://www.w3.org/2000/svg"><path d="M13.9427 27.8864C21.6427 27.8864 27.8927 21.6464 27.8927 13.9464C27.8927 6.2464 21.6427 -0.0036 13.9427 -0.0036C6.2527 -0.0036 0.0027 6.2464 0.0027 13.9464C0.0027 21.6464 6.2527 27.8864 13.9427 27.8864ZM13.9427 25.5664C7.5227 25.5664 2.3227 20.3664 2.3227 13.9464C2.3227 7.5164 7.5227 2.3264 13.9427 2.3264C20.3727 2.3264 25.5627 7.5164 25.5627 13.9464C25.5627 20.3664 20.3727 25.5664 13.9427 25.5664ZM8.2627 14.4264H19.5927C20.1527 14.4264 20.4827 14.1364 20.4827 13.6264C20.4827 13.3964 20.3527 13.1664 20.1627 12.9464L14.7927 7.0164C14.5627 6.7364 14.2727 6.5764 13.9327 6.5764C13.5927 6.5764 13.2927 6.7664 13.0727 7.0164L7.6827 12.9464C7.4827 13.1564 7.3727 13.3964 7.3827 13.6264C7.4227 14.1364 7.6827 14.4264 8.2627 14.4264ZM8.5827 19.5764H19.2727C20.1227 19.5764 20.6127 19.1264 20.6127 18.2964V17.4364C20.6127 16.5964 20.1227 16.1464 19.2727 16.1464H8.5827C7.7427 16.1464 7.2427 16.5964 7.2427 17.4364V18.2964C7.2427 19.1264 7.7427 19.5764 8.5827 19.5764Z" /></svg>