<svg viewBox="0 0 29.61328125 19.154296875" xmlns="http://www.w3.org/2000/svg"><path d="M0.0037 15.2014C0.0037 17.7914 1.4237 19.1514 3.9937 19.1514H25.6037C28.1937 19.1514 29.6137 17.7914 29.6137 15.2014V3.9214C29.6137 1.3514 28.1937 0.0014 25.6037 0.0014H3.9937C1.4237 0.0014 0.0037 1.3514 0.0037 3.9214ZM8.2437 11.6114C7.1237 11.6114 6.1937 10.6914 6.1937 9.5614C6.1937 8.4214 7.1237 7.5014 8.2437 7.5014C9.3537 7.5014 10.2837 8.4214 10.2837 9.5614C10.2837 10.6914 9.3637 11.6114 8.2437 11.6114ZM14.8237 11.6114C13.6837 11.6114 12.7737 10.6914 12.7737 9.5614C12.7737 8.4214 13.6837 7.5014 14.8237 7.5014C15.9537 7.5014 16.8737 8.4214 16.8737 9.5614C16.8737 10.6914 15.9537 11.6114 14.8237 11.6114ZM21.4137 11.6114C20.2737 11.6114 19.3637 10.6914 19.3637 9.5614C19.3637 8.4214 20.2737 7.5014 21.4137 7.5014C22.5137 7.5014 23.4637 8.4214 23.4637 9.5614C23.4637 10.6914 22.5137 11.6114 21.4137 11.6114Z" /></svg>