
<svg
    viewBox="0 0 31.0078125 28.505859375"
    xmlns="http://www.w3.org/2000/svg"
>
    <path
        fill="inherit"
        d="M5.4127 28.5072C7.0527 28.5072 11.1427 26.7172 13.4627 25.0472C13.7027 24.8872 13.8927 24.8172 14.0827 24.8172C14.2627 24.8272 14.4327 24.8372 14.6127 24.8372C24.4727 24.8372 31.0127 19.2372 31.0127 12.4272C31.0127 5.5472 24.1127 -0.0028 15.5027 -0.0028C6.8927 -0.0028 0.0027 5.5472 0.0027 12.4272C0.0027 16.8072 2.6927 20.6472 7.0827 22.9972C7.2827 23.1072 7.3527 23.3072 7.2427 23.5172C6.4827 24.7772 5.1127 26.2772 4.5927 26.9572C4.0627 27.6472 4.3627 28.5072 5.4127 28.5072ZM8.9327 14.5972C7.8027 14.5972 6.8727 13.6872 6.8727 12.5472C6.8727 11.4172 7.8027 10.4972 8.9327 10.4972C10.0327 10.4972 10.9627 11.4172 10.9627 12.5472C10.9627 13.6872 10.0527 14.5972 8.9327 14.5972ZM15.5027 14.5972C14.3727 14.5972 13.4527 13.6872 13.4527 12.5472C13.4527 11.4172 14.3727 10.4972 15.5027 10.4972C16.6427 10.4972 17.5527 11.4172 17.5527 12.5472C17.5527 13.6872 16.6427 14.5972 15.5027 14.5972ZM22.0927 14.5972C20.9627 14.5972 20.0427 13.6872 20.0427 12.5472C20.0427 11.4172 20.9627 10.4972 22.0927 10.4972C23.2027 10.4972 24.1427 11.4172 24.1427 12.5472C24.1427 13.6872 23.2027 14.5972 22.0927 14.5972Z"
        fillRule="evenodd"
        clipRule="evenodd"
    />
</svg>
        