
<svg
    viewBox="0 0 25.51171875 5.181640625"
    xmlns="http://www.w3.org/2000/svg"
>
    <path
        fill="inherit"
        d="M2.5927 5.1788C4.0327 5.1788 5.1827 4.0288 5.1827 2.5988C5.1827 1.1587 4.0327 -0.0013 2.5927 -0.0013C1.1627 -0.0013 0.0027 1.1587 0.0027 2.5988C0.0027 4.0288 1.1627 5.1788 2.5927 5.1788ZM12.7527 5.1788C14.1927 5.1788 15.3427 4.0288 15.3427 2.5988C15.3427 1.1587 14.1927 -0.0013 12.7527 -0.0013C11.3227 -0.0013 10.1627 1.1587 10.1627 2.5988C10.1627 4.0288 11.3227 5.1788 12.7527 5.1788ZM22.9127 5.1788C24.3527 5.1788 25.5127 4.0288 25.5127 2.5988C25.5127 1.1587 24.3527 -0.0013 22.9127 -0.0013C21.4827 -0.0013 20.3127 1.1587 20.3127 2.5988C20.3127 4.0288 21.4827 5.1788 22.9127 5.1788Z"
        fillRule="evenodd"
        clipRule="evenodd"
    />
</svg>
        