
<svg
    viewBox={0 0 26.76953125 26.755859375}
    xmlns="http://www.w3.org/2000/svg"
>
    <path
        fill="inherit"
        d="M1.0937 8.6985C1.8137 8.6985 2.2037 8.2885 2.2037 7.5785V4.3485C2.2037 2.9285 2.9537 2.1985 4.3237 2.1985H7.6337C8.3537 2.1985 8.7537 1.8085 8.7537 1.0985C8.7537 0.3785 8.3537 -0.0015 7.6337 -0.0015H4.2937C1.4337 -0.0015 0.0037 1.4085 0.0037 4.2285V7.5785C0.0037 8.2885 0.3937 8.6985 1.0937 8.6985ZM25.6637 8.6985C26.3837 8.6985 26.7737 8.2885 26.7737 7.5785V4.2285C26.7737 1.4085 25.3337 -0.0015 22.4737 -0.0015H19.1237C18.4137 -0.0015 18.0237 0.3785 18.0237 1.0985C18.0237 1.8085 18.4137 2.1985 19.1237 2.1985H22.4337C23.7937 2.1985 24.5637 2.9285 24.5637 4.3485V7.5785C24.5637 8.2885 24.9637 8.6985 25.6637 8.6985ZM7.0137 15.3485C8.1037 15.3485 8.9937 14.4685 8.9937 13.3685C8.9937 12.2785 8.0937 11.3885 7.0137 11.3885C5.9237 11.3885 5.0337 12.2785 5.0337 13.3685C5.0337 14.4685 5.9237 15.3485 7.0137 15.3485ZM13.3937 15.3485C14.4737 15.3485 15.3637 14.4685 15.3637 13.3685C15.3637 12.2785 14.4737 11.3885 13.3937 11.3885C12.3037 11.3885 11.4137 12.2785 11.4137 13.3685C11.4137 14.4685 12.3037 15.3485 13.3937 15.3485ZM19.7737 15.3485C20.8637 15.3485 21.7537 14.4685 21.7537 13.3685C21.7537 12.2785 20.8637 11.3885 19.7737 11.3885C18.6737 11.3885 17.7837 12.2785 17.7837 13.3685C17.7837 14.4685 18.6737 15.3485 19.7737 15.3485ZM4.2937 26.7585H7.6337C8.3537 26.7585 8.7537 26.3585 8.7537 25.6585C8.7537 24.9485 8.3537 24.5585 7.6337 24.5585H4.3237C2.9537 24.5585 2.2037 23.8285 2.2037 22.4085V19.1785C2.2037 18.4585 1.8037 18.0585 1.0937 18.0585C0.3837 18.0585 0.0037 18.4585 0.0037 19.1785V22.5185C0.0037 25.3485 1.4337 26.7585 4.2937 26.7585ZM19.1237 26.7585H22.4737C25.3337 26.7585 26.7737 25.3385 26.7737 22.5185V19.1785C26.7737 18.4585 26.3737 18.0585 25.6637 18.0585C24.9537 18.0585 24.5637 18.4585 24.5637 19.1785V22.4085C24.5637 23.8285 23.7937 24.5585 22.4337 24.5585H19.1237C18.4137 24.5585 18.0237 24.9485 18.0237 25.6585C18.0237 26.3585 18.4137 26.7585 19.1237 26.7585Z"
        fillRule="evenodd"
        clipRule="evenodd"
    />
</svg>
        