
<svg
    viewBox="0 0 30.1328125 28.287109375"
    xmlns="http://www.w3.org/2000/svg"
>
    <path
        fill="inherit"
        d="M8.4037 28.2828C9.0737 28.2828 9.5437 27.9328 10.3737 27.1928L15.0937 22.9928H23.8737C27.9437 22.9928 30.1337 20.7428 30.1337 16.7328V6.2628C30.1337 2.2528 27.9437 0.0028 23.8737 0.0028H6.2637C2.1837 0.0028 0.0037 2.2428 0.0037 6.2628V16.7328C0.0037 20.7528 2.1837 22.9928 6.2637 22.9928H6.9137V26.5528C6.9137 27.6028 7.4537 28.2828 8.4037 28.2828ZM8.9737 25.7828V21.8228C8.9737 21.0828 8.6837 20.7928 7.9437 20.7928H6.2637C3.5037 20.7928 2.2037 19.3828 2.2037 16.7228V6.2628C2.2037 3.5928 3.5037 2.2028 6.2637 2.2028H23.8737C26.6237 2.2028 27.9337 3.5928 27.9337 6.2628V16.7228C27.9337 19.3828 26.6237 20.7928 23.8737 20.7928H15.0137C14.2437 20.7928 13.8637 20.9028 13.3437 21.4328ZM8.3837 13.4528C9.4637 13.4528 10.3337 12.5828 10.3337 11.5028C10.3337 10.4228 9.4637 9.5428 8.3837 9.5428C7.3037 9.5428 6.4237 10.4228 6.4237 11.5028C6.4237 12.5828 7.3037 13.4528 8.3837 13.4528ZM15.0837 13.4528C16.1437 13.4528 17.0337 12.5828 17.0337 11.5028C17.0337 10.4228 16.1437 9.5428 15.0837 9.5428C14.0037 9.5428 13.1137 10.4228 13.1137 11.5028C13.1137 12.5828 14.0037 13.4528 15.0837 13.4528ZM21.7637 13.4528C22.8437 13.4528 23.7237 12.5828 23.7237 11.5028C23.7237 10.4228 22.8437 9.5428 21.7637 9.5428C20.6837 9.5428 19.8137 10.4228 19.8137 11.5028C19.8137 12.5828 20.6837 13.4528 21.7637 13.4528Z"
        fillRule="evenodd"
        clipRule="evenodd"
    />
</svg>
        