<svg viewBox="0 0 30.1328125 28.369140625" xmlns="http://www.w3.org/2000/svg"><path d="M8.1237 28.3728C8.6537 28.3728 9.0537 28.0928 9.6937 27.4928L14.6337 22.9828H23.8737C27.9437 22.9828 30.1337 20.7428 30.1337 16.7328V6.2628C30.1337 2.2528 27.9437 0.0028 23.8737 0.0028H6.2637C2.1837 0.0028 0.0037 2.2428 0.0037 6.2628V16.7328C0.0037 20.7528 2.1837 22.9828 6.2637 22.9828H6.9037V26.9628C6.9037 27.8128 7.3437 28.3728 8.1237 28.3728ZM15.0837 7.6128C14.0037 7.6128 13.1437 6.7428 13.1437 5.6728C13.1437 4.6028 14.0037 3.7328 15.0837 3.7328C16.1637 3.7328 17.0237 4.6028 17.0237 5.6728C17.0237 6.7428 16.1637 7.6128 15.0837 7.6128ZM15.0837 13.4428C14.0037 13.4428 13.1437 12.5828 13.1437 11.5028C13.1437 10.4228 14.0037 9.5528 15.0837 9.5528C16.1637 9.5528 17.0237 10.4228 17.0237 11.5028C17.0237 12.5828 16.1637 13.4428 15.0837 13.4428ZM15.0837 19.2528C14.0037 19.2528 13.1437 18.3928 13.1437 17.3228C13.1437 16.2428 14.0037 15.3828 15.0837 15.3828C16.1637 15.3828 17.0237 16.2428 17.0237 17.3228C17.0237 18.3928 16.1637 19.2528 15.0837 19.2528Z" /></svg>