
<svg
    viewBox={0 0 34.357421875 28.232421875}
    xmlns="http://www.w3.org/2000/svg"
>
    <path
        fill="inherit"
        d="M0.0037 14.0968C0.0037 14.8868 0.4537 15.4468 1.3937 15.5968C3.0937 15.8568 3.7637 16.7168 3.7637 18.9268V22.7668C3.7637 26.4868 5.4537 28.2368 9.1437 28.2368C9.3637 28.2368 9.5937 28.1868 9.7637 28.1368C10.1837 27.9568 10.4137 27.6168 10.4137 27.1668C10.4137 26.6368 10.1837 26.3568 9.7037 26.2368C9.5737 26.2068 9.4337 26.1768 9.2737 26.1668C6.9737 26.0068 6.1437 25.0168 6.1437 22.4868V17.9468C6.1437 15.6368 4.9237 14.3568 2.7937 14.1468C2.7437 14.1468 2.7437 14.0968 2.7937 14.0968C4.9237 13.8868 6.1437 12.6068 6.1437 10.2968V5.7468C6.1437 3.1968 6.9737 2.2468 9.2737 2.0768C9.4837 2.0668 9.6837 2.0368 9.8137 1.9868C10.2137 1.8468 10.4137 1.5468 10.4137 1.0668C10.4137 0.5868 10.1737 0.2568 9.7037 0.0968C9.5037 0.0268 9.2837 -0.0032 9.0137 -0.0032C5.4437 -0.0032 3.7637 1.7768 3.7637 5.4668V9.3268C3.7637 11.4968 3.0937 12.3768 1.3937 12.6368C0.4537 12.7868 0.0037 13.3168 0.0037 14.0968ZM34.3537 14.0968C34.3537 13.3168 33.8937 12.7868 32.9537 12.6368C31.2637 12.3768 30.5837 11.4968 30.5837 9.3268V5.4668C30.5837 1.7768 28.9037 -0.0032 25.3337 -0.0032C25.0637 -0.0032 24.8537 0.0268 24.6537 0.0968C24.1837 0.2568 23.9237 0.5868 23.9237 1.0668C23.9237 1.5468 24.1437 1.8468 24.5437 1.9868C24.6737 2.0368 24.8537 2.0668 25.0737 2.0768C27.3737 2.2468 28.2237 3.1968 28.2237 5.7468V10.2968C28.2237 12.6068 29.4237 13.8868 31.5537 14.0968C31.5937 14.0968 31.5937 14.1468 31.5537 14.1468C29.4237 14.3568 28.2237 15.6368 28.2237 17.9468V22.4868C28.2237 25.0168 27.3737 26.0068 25.0737 26.1668C24.9137 26.1768 24.7837 26.2068 24.6537 26.2368C24.1737 26.3568 23.9237 26.6368 23.9237 27.1668C23.9237 27.6168 24.1737 27.9568 24.5937 28.1368C24.7637 28.1868 24.9737 28.2368 25.1937 28.2368C28.8937 28.2368 30.5837 26.4868 30.5837 22.7668V18.9268C30.5837 16.7168 31.2637 15.8568 32.9537 15.5968C33.8937 15.4468 34.3537 14.8868 34.3537 14.0968ZM10.7837 16.0668C11.8837 16.0668 12.7737 15.1768 12.7737 14.0968C12.7737 13.0068 11.8637 12.1168 10.7837 12.1168C9.6937 12.1168 8.8037 13.0068 8.8037 14.0968C8.8037 15.1768 9.6937 16.0668 10.7837 16.0668ZM17.1537 16.0668C18.2537 16.0668 19.1437 15.1768 19.1437 14.0968C19.1437 13.0068 18.2537 12.1168 17.1537 12.1168C16.0737 12.1168 15.1937 13.0068 15.1937 14.0968C15.1937 15.1768 16.0737 16.0668 17.1537 16.0668ZM23.5437 16.0668C24.6337 16.0668 25.5237 15.1768 25.5237 14.0968C25.5237 13.0068 24.6337 12.1168 23.5437 12.1168C22.4537 12.1168 21.5637 13.0068 21.5637 14.0968C21.5637 15.1768 22.4537 16.0668 23.5437 16.0668Z"
        fillRule="evenodd"
        clipRule="evenodd"
    />
</svg>
        