<svg viewBox="0 0 31.0078125 28.642578125" xmlns="http://www.w3.org/2000/svg"><path d="M5.9327 28.6455C7.7827 28.6455 11.5527 26.7855 14.3327 24.8055C23.8527 25.0655 31.0127 19.5955 31.0127 12.4255C31.0127 5.5555 24.1127 -0.0045 15.5027 -0.0045C6.8927 -0.0045 0.0027 5.5555 0.0027 12.4255C0.0027 16.9155 2.8727 20.8955 7.1927 22.8855C6.5727 24.0755 5.4327 25.6855 4.8127 26.4955C4.0927 27.4555 4.5227 28.6455 5.9327 28.6455ZM7.3727 26.3755C7.2627 26.4155 7.2227 26.3355 7.2827 26.2355C8.0527 25.2955 9.1427 23.8755 9.6127 22.9955C9.9927 22.2855 9.9027 21.6555 9.0227 21.2455C4.7327 19.2455 2.2727 16.0655 2.2727 12.4255C2.2727 6.8255 8.1327 2.2555 15.5027 2.2555C22.8827 2.2555 28.7527 6.8255 28.7527 12.4255C28.7527 18.0155 22.8827 22.5855 15.5027 22.5855C15.2327 22.5855 14.8027 22.5755 14.2627 22.5555C13.6827 22.5555 13.2527 22.7355 12.7327 23.1455C11.0427 24.3655 8.6127 25.8655 7.3727 26.3755ZM9.1327 14.5355C10.2127 14.5355 11.1027 13.6455 11.1027 12.5555C11.1027 11.4555 10.2027 10.5655 9.1327 10.5655C8.0427 10.5655 7.1527 11.4555 7.1527 12.5555C7.1527 13.6455 8.0427 14.5355 9.1327 14.5355ZM15.5027 14.5355C16.5927 14.5355 17.4827 13.6455 17.4827 12.5555C17.4827 11.4555 16.5927 10.5655 15.5027 10.5655C14.4127 10.5655 13.5227 11.4555 13.5227 12.5555C13.5227 13.6455 14.4127 14.5355 15.5027 14.5355ZM21.8927 14.5355C22.9827 14.5355 23.8727 13.6455 23.8727 12.5555C23.8727 11.4555 22.9827 10.5655 21.8927 10.5655C20.7927 10.5655 19.9027 11.4555 19.9027 12.5555C19.9027 13.6455 20.7927 14.5355 21.8927 14.5355Z" /></svg>