
<svg
    viewBox={0 0 27.890625 27.890625}
    xmlns="http://www.w3.org/2000/svg"
>
    <path
        fill="inherit"
        d="M13.9427 27.8864C21.6427 27.8864 27.8927 21.6264 27.8927 13.9464C27.8927 6.2464 21.6427 -0.0036 13.9427 -0.0036C6.2627 -0.0036 0.0027 6.2464 0.0027 13.9464C0.0027 21.6264 6.2627 27.8864 13.9427 27.8864ZM7.3727 15.9864C6.2527 15.9864 5.3227 15.0664 5.3227 13.9364C5.3227 12.7964 6.2527 11.8764 7.3727 11.8764C8.4727 11.8764 9.4027 12.7964 9.4027 13.9364C9.4027 15.0664 8.4927 15.9864 7.3727 15.9864ZM13.9427 15.9864C12.8127 15.9864 11.8927 15.0664 11.8927 13.9364C11.8927 12.7964 12.8127 11.8764 13.9427 11.8764C15.0827 11.8764 15.9927 12.7964 15.9927 13.9364C15.9927 15.0664 15.0827 15.9864 13.9427 15.9864ZM20.5327 15.9864C19.4027 15.9864 18.4827 15.0664 18.4827 13.9364C18.4827 12.7964 19.4027 11.8764 20.5327 11.8764C21.6427 11.8764 22.5727 12.7964 22.5727 13.9364C22.5727 15.0664 21.6427 15.9864 20.5327 15.9864Z"
        fillRule="evenodd"
        clipRule="evenodd"
    />
</svg>
        