
<svg
    viewBox="0 0 38.28125 25.01953125"
    xmlns="http://www.w3.org/2000/svg"
>
    <path
        fill="inherit"
        d="M18.3237 6.6846V8.4746H22.6437C29.1237 8.4746 31.1837 6.5446 31.1837 3.7446C31.1837 1.4946 29.5137 0.0046 27.4137 0.0046C25.8537 0.0046 24.4837 0.9846 23.9137 2.2646C23.6837 2.7346 23.7737 3.2546 24.2537 3.5046C24.6937 3.7146 25.1837 3.5946 25.5137 3.0346C25.8437 2.3346 26.5537 1.7946 27.4137 1.7946C28.5337 1.7946 29.3937 2.4746 29.3937 3.7446C29.3937 5.4546 28.1737 6.6846 22.6937 6.6846ZM14.4937 14.9546C15.1637 14.9546 15.6437 14.4946 15.6637 13.7946L15.9537 4.1146C15.9837 3.2446 15.3937 2.6546 14.4937 2.6546C13.5937 2.6546 13.0137 3.2446 13.0437 4.1146L13.3337 13.7946C13.3537 14.4946 13.8237 14.9546 14.4937 14.9546ZM10.6737 8.4746V6.6846H2.4637C1.9837 6.6846 1.5737 7.0946 1.5737 7.5846C1.5737 8.0846 1.9837 8.4746 2.4637 8.4746ZM18.3237 10.7746V12.5646H22.2137C29.1937 12.5646 30.6837 15.2946 34.0537 15.2946C36.5037 15.2946 38.2837 13.5046 38.2837 11.1846C38.2837 8.5546 36.4237 7.0246 34.1937 7.0246C33.2237 7.0246 32.3437 7.4346 31.6937 8.0646C31.2537 8.4346 31.2837 9.0546 31.6337 9.3246C32.0037 9.6246 32.4337 9.5446 32.8237 9.2546C33.1837 8.9446 33.6337 8.7546 34.1937 8.7546C35.4137 8.7546 36.4937 9.6146 36.4937 11.1046C36.4937 12.3846 35.5637 13.5246 33.9337 13.5046C31.2937 13.4946 29.6037 10.7746 22.2737 10.7746ZM10.6737 12.5646V10.7746H0.9037C0.4137 10.7746 0.0037 11.1746 0.0037 11.6646C0.0037 12.1646 0.4137 12.5646 0.9037 12.5646ZM10.6737 16.6546V14.8646H2.4637C1.9837 14.8646 1.5737 15.2546 1.5737 15.7546C1.5737 16.2446 1.9837 16.6546 2.4637 16.6546ZM18.3237 14.8646V16.6546H21.0637C26.9437 16.6546 30.4037 18.8446 30.4037 21.2646C30.4037 22.5146 29.6837 23.2446 28.6037 23.2446C27.5237 23.2446 26.7537 22.5146 26.5637 21.3646C26.4837 20.8646 26.1137 20.4546 25.5237 20.4946C24.9137 20.5346 24.6637 21.0546 24.7337 21.6046C24.9937 23.5046 26.4937 25.0146 28.6037 25.0146C30.6937 25.0146 32.1937 23.4846 32.1937 21.2646C32.1937 17.7146 27.9337 14.8646 21.0637 14.8646ZM14.4937 21.0246C15.4737 21.0246 16.2837 20.2346 16.2837 19.3046C16.2837 18.3646 15.4937 17.5846 14.4937 17.5846C13.5037 17.5846 12.7037 18.3646 12.7037 19.3046C12.7037 20.2346 13.5237 21.0246 14.4937 21.0246Z"
        fillRule="evenodd"
        clipRule="evenodd"
    />
</svg>
        