
<svg
    viewBox="0 0 38.28125 25.01953125"
    xmlns="http://www.w3.org/2000/svg"
>
    <path
        fill="inherit"
        d="M20.0937 6.6846V8.4746H22.6437C29.1237 8.4746 31.1837 6.5446 31.1837 3.7446C31.1837 1.4946 29.5137 0.0046 27.4137 0.0046C25.8537 0.0046 24.4837 0.9846 23.9137 2.2646C23.6837 2.7346 23.7737 3.2546 24.2537 3.5046C24.6937 3.7146 25.1837 3.5946 25.5137 3.0346C25.8437 2.3346 26.5537 1.7946 27.4137 1.7946C28.5337 1.7946 29.3937 2.4746 29.3937 3.7446C29.3937 5.4546 28.1737 6.6846 22.6937 6.6846ZM9.6837 2.7446H19.2237C19.7537 2.7446 20.1837 2.3246 20.1837 1.7946C20.1837 1.2546 19.7537 0.8246 19.2237 0.8246H9.6837C9.1437 0.8246 8.7137 1.2546 8.7137 1.7946C8.7137 2.3246 9.1437 2.7446 9.6837 2.7446ZM12.0437 6.8446C12.6737 6.8446 13.1837 6.3446 13.1837 5.7146C13.1837 5.0846 12.6737 4.5646 12.0437 4.5646C11.4037 4.5646 10.9137 5.0846 10.9137 5.7146C10.9137 6.3446 11.4037 6.8446 12.0437 6.8446ZM16.9437 6.8446C17.5637 6.8446 18.0737 6.3446 18.0737 5.7146C18.0737 5.0846 17.5637 4.5646 16.9437 4.5646C16.2937 4.5646 15.8037 5.0846 15.8037 5.7146C15.8037 6.3446 16.3137 6.8446 16.9437 6.8446ZM8.8837 8.4746V6.6846H2.4637C1.9837 6.6846 1.5737 7.0946 1.5737 7.5846C1.5737 8.0846 1.9837 8.4746 2.4637 8.4746ZM20.0937 10.7746V12.5646H22.2137C29.1937 12.5646 30.6837 15.2946 34.0537 15.2946C36.5037 15.2946 38.2837 13.5046 38.2837 11.1846C38.2837 8.5546 36.4237 7.0246 34.1937 7.0246C33.2237 7.0246 32.3437 7.4346 31.6937 8.0646C31.2537 8.4346 31.2837 9.0546 31.6337 9.3246C32.0037 9.6246 32.4337 9.5446 32.8237 9.2546C33.1837 8.9446 33.6337 8.7546 34.1937 8.7546C35.4137 8.7546 36.4937 9.6146 36.4937 11.1046C36.4937 12.3846 35.5637 13.5246 33.9337 13.5046C31.2937 13.4946 29.6037 10.7746 22.2737 10.7746ZM12.0437 10.9346C12.6737 10.9346 13.1837 10.4346 13.1837 9.8046C13.1837 9.1746 12.6737 8.6646 12.0437 8.6646C11.4037 8.6646 10.9137 9.1746 10.9137 9.8046C10.9137 10.4346 11.4037 10.9346 12.0437 10.9346ZM16.9437 10.9346C17.5637 10.9346 18.0737 10.4346 18.0737 9.8046C18.0737 9.1746 17.5637 8.6646 16.9437 8.6646C16.2937 8.6646 15.8037 9.1746 15.8037 9.8046C15.8037 10.4346 16.3137 10.9346 16.9437 10.9346ZM8.8837 12.5646V10.7746H0.9037C0.4137 10.7746 0.0037 11.1746 0.0037 11.6646C0.0037 12.1646 0.4137 12.5646 0.9037 12.5646ZM12.0437 15.0346C12.6737 15.0346 13.1837 14.5346 13.1837 13.9046C13.1837 13.2646 12.6737 12.7546 12.0437 12.7546C11.4037 12.7546 10.9137 13.2646 10.9137 13.9046C10.9137 14.5346 11.4037 15.0346 12.0437 15.0346ZM16.9437 15.0346C17.5637 15.0346 18.0737 14.5346 18.0737 13.9046C18.0737 13.2646 17.5637 12.7546 16.9437 12.7546C16.2937 12.7546 15.8037 13.2646 15.8037 13.9046C15.8037 14.5346 16.3137 15.0346 16.9437 15.0346ZM8.8837 16.6546V14.8646H2.4637C1.9837 14.8646 1.5737 15.2546 1.5737 15.7546C1.5737 16.2446 1.9837 16.6546 2.4637 16.6546ZM20.0937 14.8646V16.6546H21.0637C26.9437 16.6546 30.4037 18.8446 30.4037 21.2646C30.4037 22.5146 29.6837 23.2446 28.6037 23.2446C27.5237 23.2446 26.7537 22.5146 26.5637 21.3646C26.4837 20.8646 26.1137 20.4546 25.5237 20.4946C24.9137 20.5346 24.6637 21.0546 24.7337 21.6046C24.9937 23.5046 26.4937 25.0146 28.6037 25.0146C30.6937 25.0146 32.1937 23.4846 32.1937 21.2646C32.1937 17.7146 27.9337 14.8646 21.0637 14.8646ZM12.0437 19.1246C12.6737 19.1246 13.1837 18.6246 13.1837 17.9946C13.1837 17.3646 12.6737 16.8546 12.0437 16.8546C11.4037 16.8546 10.9137 17.3646 10.9137 17.9946C10.9137 18.6246 11.4037 19.1246 12.0437 19.1246ZM16.9437 19.1246C17.5637 19.1246 18.0737 18.6246 18.0737 17.9946C18.0737 17.3646 17.5637 16.8546 16.9437 16.8546C16.2937 16.8546 15.8037 17.3646 15.8037 17.9946C15.8037 18.6246 16.3137 19.1246 16.9437 19.1246ZM9.6437 22.8846H19.2637C19.7937 22.8846 20.2337 22.4446 20.2337 21.9146C20.2337 21.3846 19.7937 20.9546 19.2637 20.9546H9.6437C9.1037 20.9546 8.6837 21.3846 8.6837 21.9146C8.6837 22.4446 9.1037 22.8846 9.6437 22.8846Z"
        fillRule="evenodd"
        clipRule="evenodd"
    />
</svg>
        