
<svg
    viewBox={0 0 38.841796875 24.8828125}
    xmlns="http://www.w3.org/2000/svg"
>
    <path
        fill="inherit"
        d="M1.0937 19.9225C1.7137 19.9225 2.2037 19.4025 2.2037 18.8125V15.6125H4.1537V18.8125C4.1537 20.5225 5.2137 21.5425 6.9437 21.5425H10.8037L13.1137 24.0625C13.6437 24.6325 14.1337 24.8825 14.8637 24.8825H28.1737C29.9837 24.8825 31.0637 23.8525 31.0637 22.0625V19.5825C31.0637 19.5125 31.1037 19.4825 31.1537 19.4825H32.7837C32.8537 19.4825 32.8837 19.5125 32.8837 19.5825V21.1125C32.8837 22.6525 33.9037 23.6025 35.5737 23.6025H36.1637C37.8137 23.6025 38.8437 22.6725 38.8437 21.1125V11.2425C38.8437 9.6825 37.8137 8.7525 36.1637 8.7525H35.5737C33.9037 8.7525 32.8837 9.6925 32.8837 11.2425V12.5125C32.8837 12.5625 32.8537 12.6025 32.7837 12.6025H31.1537C31.1037 12.6025 31.0637 12.5625 31.0637 12.5125V10.1825C31.0637 8.4925 30.0137 7.4625 28.2637 7.4625H27.1837L24.8837 4.9625C24.3537 4.3725 23.8037 4.1425 23.1337 4.1425H19.9837V2.2025H24.2837C24.8837 2.2025 25.3737 1.6825 25.3737 1.0925C25.3737 0.4925 24.8837 0.0025 24.2837 0.0025H13.4537C12.8537 0.0025 12.3637 0.5025 12.3637 1.1025C12.3637 1.7125 12.8637 2.2025 13.4537 2.2025H17.7737V4.1425H12.5137C11.8237 4.1425 11.2837 4.4025 10.7437 4.9625L8.4537 7.4625H6.9437C5.2237 7.4625 4.1537 8.4925 4.1537 10.1825V13.4125H2.2037V10.2025C2.2037 9.6025 1.6937 9.1025 1.0937 9.1025C0.4937 9.1025 0.0037 9.6125 0.0037 10.2025V18.8125C0.0037 19.4125 0.5037 19.9225 1.0937 19.9225Z"
        fillRule="evenodd"
        clipRule="evenodd"
    />
</svg>
        