
<svg
    viewBox={0 0 22.271484375 28.669921875}
    xmlns="http://www.w3.org/2000/svg"
>
    <path
        fill="inherit"
        d="M4.2937 28.6666H14.9137C17.7737 28.6666 19.1937 27.2466 19.1937 24.4566V24.1966H12.8637C12.1037 25.1466 10.9137 25.7466 9.5937 25.7466C7.2637 25.7466 5.3737 23.8566 5.3737 21.5166C5.3737 19.1966 7.2637 17.3066 9.5937 17.3066C10.9137 17.3066 12.0837 17.8966 12.8537 18.8366H19.1937V4.2366C19.1937 1.4266 17.7737 -0.0034 14.9137 -0.0034H4.2937C1.4537 -0.0034 0.0037 1.4066 0.0037 4.2366V24.4366C0.0037 27.2666 1.4537 28.6666 4.2937 28.6666ZM5.2337 6.8666C4.2837 6.8666 3.5237 6.0966 3.5237 5.1666C3.5237 4.2066 4.2837 3.4466 5.2337 3.4466C6.1837 3.4466 6.9437 4.2066 6.9437 5.1666C6.9437 6.0966 6.1837 6.8666 5.2337 6.8666ZM9.5937 6.8666C8.6537 6.8666 7.9037 6.0966 7.9037 5.1666C7.9037 4.2066 8.6537 3.4466 9.5937 3.4466C10.5637 3.4466 11.3237 4.2066 11.3237 5.1666C11.3237 6.0966 10.5637 6.8666 9.5937 6.8666ZM13.9837 6.8666C13.0337 6.8666 12.2737 6.0966 12.2737 5.1666C12.2737 4.2066 13.0337 3.4466 13.9837 3.4466C14.9437 3.4466 15.6837 4.2066 15.6837 5.1666C15.6837 6.0966 14.9437 6.8666 13.9837 6.8666ZM5.2337 11.0766C4.2837 11.0766 3.5237 10.3066 3.5237 9.3666C3.5237 8.4066 4.2837 7.6466 5.2337 7.6466C6.1837 7.6466 6.9437 8.4066 6.9437 9.3666C6.9437 10.3066 6.1837 11.0766 5.2337 11.0766ZM9.5937 11.0766C8.6537 11.0766 7.9037 10.3066 7.9037 9.3666C7.9037 8.4066 8.6537 7.6466 9.5937 7.6466C10.5637 7.6466 11.3237 8.4066 11.3237 9.3666C11.3237 10.3066 10.5637 11.0766 9.5937 11.0766ZM13.9837 11.0766C13.0337 11.0766 12.2737 10.3066 12.2737 9.3666C12.2737 8.4066 13.0337 7.6466 13.9837 7.6466C14.9437 7.6466 15.6837 8.4066 15.6837 9.3666C15.6837 10.3066 14.9437 11.0766 13.9837 11.0766ZM5.2337 15.2966C4.2837 15.2966 3.5237 14.5366 3.5237 13.5766C3.5237 12.6366 4.2837 11.8666 5.2337 11.8666C6.1837 11.8666 6.9437 12.6366 6.9437 13.5766C6.9437 14.5366 6.1837 15.2966 5.2337 15.2966ZM9.5937 15.2966C8.6537 15.2966 7.9037 14.5366 7.9037 13.5766C7.9037 12.6366 8.6537 11.8666 9.5937 11.8666C10.5637 11.8666 11.3237 12.6366 11.3237 13.5766C11.3237 14.5366 10.5637 15.2966 9.5937 15.2966ZM13.9837 15.2966C13.0337 15.2966 12.2737 14.5366 12.2737 13.5766C12.2737 12.6366 13.0337 11.8666 13.9837 11.8666C14.9437 11.8666 15.6837 12.6366 15.6837 13.5766C15.6837 14.5366 14.9437 15.2966 13.9837 15.2966ZM9.5937 23.1766H20.6137C21.5237 23.1766 22.2737 22.4266 22.2737 21.5166C22.2737 20.6066 21.5237 19.8666 20.6137 19.8666H9.5937C8.6937 19.8666 7.9437 20.6066 7.9437 21.5166C7.9437 22.4266 8.6937 23.1766 9.5937 23.1766Z"
        fillRule="evenodd"
        clipRule="evenodd"
    />
</svg>
        