<svg viewBox="0 0 27.890625 27.890625" xmlns="http://www.w3.org/2000/svg"><path d="M13.9427 27.8927C21.6427 27.8927 27.8927 21.6427 27.8927 13.9427C27.8927 6.2627 21.6427 0.0027 13.9427 0.0027C6.2627 0.0027 0.0027 6.2627 0.0027 13.9427C0.0027 21.6427 6.2627 27.8927 13.9427 27.8927ZM13.9427 14.6827C13.7427 14.6827 13.5127 14.6027 13.3027 14.4127L6.3527 8.2827C6.7427 8.0527 7.1527 7.9527 7.7427 7.9527H20.1627C20.7227 7.9527 21.1527 8.0627 21.5427 8.3027L14.5927 14.4127C14.3827 14.6027 14.1627 14.6827 13.9427 14.6827ZM5.7427 18.8027C5.6227 18.5227 5.5527 18.2227 5.5527 17.7827V10.1027C5.5527 9.6527 5.6427 9.2927 5.7127 9.1427L10.8427 13.6727ZM22.1627 18.8027L17.0327 13.6727L22.1727 9.1627C22.2427 9.2927 22.3227 9.6527 22.3227 10.1027V17.7827C22.3227 18.2127 22.2727 18.5227 22.1627 18.8027ZM7.5327 19.9327C7.0427 19.9327 6.6627 19.8227 6.3827 19.6427L11.6627 14.3827L12.6627 15.2727C13.0527 15.6227 13.5127 15.8027 13.9427 15.8027C14.3827 15.8027 14.8327 15.6227 15.2427 15.2727L16.2327 14.3827L21.5027 19.6427C21.2327 19.8127 20.8527 19.9327 20.3527 19.9327Z" /></svg>