
<svg
    viewBox={0 0 32.990234375 32.23833460949287}
    xmlns="http://www.w3.org/2000/svg"
>
    <path
        fill="inherit"
        d="M6.6337 3.1409L9.4637 6.1009C10.0637 6.7009 10.6937 6.5209 10.8437 5.7009L11.1337 4.2509C14.0237 4.7409 15.4037 6.4909 15.4037 8.6109V8.6709H17.5837V14.9709C17.5837 15.6509 17.1337 16.1209 16.4837 16.1209C15.8437 16.1209 15.4037 15.6509 15.4037 14.9709V8.6709H4.2937C3.1137 8.6709 2.2737 8.8909 1.5137 9.3809L15.1737 21.4109C15.6137 21.7909 16.0537 21.9709 16.4837 21.9709C16.9437 21.9709 17.3737 21.7909 17.8037 21.4109L31.4637 9.3809C30.7237 8.8909 29.8737 8.6709 28.6937 8.6709H17.5837V8.6109C17.5837 6.4909 18.9637 4.7409 21.8637 4.2509L22.1437 5.7009C22.3037 6.5209 22.9237 6.7009 23.5337 6.1009L26.3637 3.1409C26.8237 2.6509 26.7037 2.0509 26.0737 1.7809L22.3637 0.1209C21.6037 -0.2191 21.0837 0.1809 21.2337 0.9809L21.5037 2.4209C19.3737 2.8409 17.0237 4.2209 16.4837 5.7709C15.9737 4.2209 13.6137 2.8409 11.4737 2.4209L11.7537 0.9809C11.9037 0.1809 11.3937 -0.2191 10.6237 0.1209L6.9037 1.7809C6.2937 2.0509 6.1537 2.6509 6.6337 3.1409ZM0.3537 30.0109L10.4737 19.9209L0.3237 10.9809C0.1737 11.2509 0.0037 11.9509 0.0037 12.9109V28.0009C0.0037 28.8709 0.1337 29.5009 0.3537 30.0109ZM32.6337 30.0109C32.8437 29.5009 32.9937 28.8709 32.9937 28.0009V12.9109C32.9937 11.9509 32.8137 11.2509 32.6637 10.9809L22.5137 19.9209ZM3.8837 32.2409H29.1037C30.1037 32.2409 30.8837 31.9909 31.4037 31.6409L21.0037 21.2309L19.0037 23.0109C18.2137 23.6909 17.3537 24.0609 16.4837 24.0609C15.6437 24.0609 14.7837 23.6909 13.9837 23.0109L11.9937 21.2309L1.5837 31.6409C2.1037 31.9909 2.8737 32.2409 3.8837 32.2409Z"
        fillRule="evenodd"
        clipRule="evenodd"
    />
</svg>
        