
<svg
    viewBox="0 0 32.990234375 23.5703125"
    xmlns="http://www.w3.org/2000/svg"
>
    <path
        fill="inherit"
        d="M4.2937 23.5726H29.1037C31.5537 23.5726 32.9937 22.1526 32.9937 19.3326V4.2426C32.9937 1.4226 31.5437 0.0026 28.6937 0.0026H3.8837C1.4337 0.0026 0.0037 1.4226 0.0037 4.2426V19.3326C0.0037 22.1526 1.4537 23.5726 4.2937 23.5726ZM4.2137 21.4826C2.8537 21.4826 2.0937 20.7226 2.0937 19.3226V4.2226C2.0937 2.8326 2.8537 2.0926 4.2137 2.0926H28.7637C30.1237 2.0926 30.8937 2.8326 30.8937 4.2426V19.3326C30.8937 20.7226 30.1237 21.4826 28.7637 21.4826ZM24.1437 8.9526H27.6137C28.2337 8.9526 28.6837 8.5026 28.6837 7.9026V5.3626C28.6837 4.7626 28.2337 4.3026 27.6137 4.3026H24.1437C23.5437 4.3026 23.0937 4.7626 23.0937 5.3626V7.9026C23.0937 8.5026 23.5437 8.9526 24.1437 8.9526ZM11.2337 14.1326H21.7337C22.2137 14.1326 22.6037 13.7626 22.6037 13.2926C22.6037 12.8226 22.2137 12.4426 21.7337 12.4426H11.2337C10.7737 12.4426 10.3937 12.8226 10.3937 13.2926C10.3937 13.7626 10.7737 14.1326 11.2337 14.1326ZM11.2337 17.7426H19.1837C19.6637 17.7426 20.0337 17.3626 20.0337 16.8826C20.0337 16.4226 19.6637 16.0526 19.1837 16.0526H11.2337C10.7737 16.0526 10.3937 16.4226 10.3937 16.8826C10.3937 17.3626 10.7737 17.7426 11.2337 17.7426Z"
        fillRule="evenodd"
        clipRule="evenodd"
    />
</svg>
        