
<svg
    viewBox="0 0 32.990234375 23.5703125"
    xmlns="http://www.w3.org/2000/svg"
>
    <path
        fill="inherit"
        d="M16.4837 13.3026C16.9437 13.3026 17.3737 13.1226 17.8037 12.7426L31.4637 0.7126C30.7237 0.2226 29.8737 0.0026 28.6937 0.0026H4.2937C3.1137 0.0026 2.2737 0.2226 1.5137 0.7126L15.1737 12.7426C15.6137 13.1226 16.0537 13.3026 16.4837 13.3026ZM0.3537 21.3526L10.4737 11.2526L0.3237 2.3126C0.1737 2.6026 0.0037 3.2926 0.0037 4.2426V19.3326C0.0037 20.2026 0.1337 20.8326 0.3537 21.3526ZM32.6337 21.3526C32.8437 20.8326 32.9937 20.2026 32.9937 19.3326V4.2426C32.9937 3.2926 32.8137 2.6026 32.6637 2.3126L22.5137 11.2526ZM3.8837 23.5726H29.1037C30.1037 23.5726 30.8837 23.3226 31.4037 22.9726L21.0037 12.5626L19.0037 14.3426C18.2137 15.0426 17.3537 15.3926 16.4837 15.3926C15.6437 15.3926 14.7837 15.0426 13.9837 14.3426L11.9937 12.5626L1.5837 22.9726C2.1037 23.3226 2.8737 23.5726 3.8837 23.5726Z"
        fillRule="evenodd"
        clipRule="evenodd"
    />
</svg>
        