
<svg
    viewBox="0 0 32.990234375 31.37353515625"
    xmlns="http://www.w3.org/2000/svg"
>
    <path
        fill="inherit"
        d="M4.2937 31.3763H29.1037C31.5537 31.3763 32.9937 29.9563 32.9937 27.1463V13.2863C32.9937 11.3163 32.6337 10.3563 31.2637 9.4163L19.2337 1.0763C17.1737 -0.3637 15.7637 -0.3637 13.7037 1.0763L1.7137 9.4163C0.3537 10.3763 0.0037 11.3163 0.0037 13.2863V27.1463C0.0037 29.9563 1.4537 31.3763 4.2937 31.3763ZM16.4837 16.5563C15.6137 16.5563 14.7637 16.8863 13.9837 17.5963L11.8437 19.5163L3.1737 10.8363L15.1637 2.5663C16.1337 1.8963 16.8037 1.8963 17.7637 2.5663L29.8137 10.8363L21.1337 19.5163L18.9937 17.5963C18.2137 16.8863 17.3637 16.5563 16.4837 16.5563ZM30.8937 12.9163V27.1463C30.8937 27.5363 30.8437 27.8763 30.7237 28.1463L22.6437 20.8763L30.8837 12.6263C30.8937 12.7163 30.8937 12.8163 30.8937 12.9163ZM2.0937 27.1363V12.9163C2.0937 12.8163 2.0937 12.7163 2.1037 12.6263L10.3537 20.8763L2.2737 28.1463C2.1437 27.8563 2.0937 27.5163 2.0937 27.1363ZM4.2137 29.2863C4.1437 29.2863 4.0737 29.2863 4.0037 29.2863L15.1737 19.2163C15.6037 18.8363 16.0337 18.6563 16.4837 18.6563C16.9437 18.6563 17.3737 18.8363 17.8037 19.2163L28.9737 29.2863C28.9037 29.2863 28.8337 29.2863 28.7637 29.2863Z"
        fillRule="evenodd"
        clipRule="evenodd"
    />
</svg>
        