
<svg
    viewBox="0 0 32.990234375 23.5703125"
    xmlns="http://www.w3.org/2000/svg"
>
    <path
        fill="inherit"
        d="M4.2937 23.5726H29.1037C31.5537 23.5726 32.9937 22.1526 32.9937 19.3326V4.2426C32.9937 1.4226 31.5437 0.0026 28.6937 0.0026H3.8837C1.4337 0.0026 0.0037 1.4226 0.0037 4.2426V19.3326C0.0037 22.1526 1.4537 23.5726 4.2937 23.5726ZM24.2837 8.8826C23.6637 8.8826 23.2037 8.4226 23.2037 7.8026V5.1826C23.2037 4.5626 23.6637 4.1026 24.2837 4.1026H27.8637C28.5037 4.1026 28.9737 4.5626 28.9737 5.1826V7.8026C28.9737 8.4226 28.5037 8.8826 27.8637 8.8826ZM11.1137 14.2326C10.6337 14.2326 10.2437 13.8526 10.2437 13.3526C10.2437 12.8626 10.6337 12.4726 11.1137 12.4726H21.6737C22.1637 12.4726 22.5537 12.8626 22.5537 13.3526C22.5537 13.8526 22.1637 14.2326 21.6737 14.2326ZM11.1137 17.9526C10.6337 17.9526 10.2437 17.5526 10.2437 17.0626C10.2437 16.5826 10.6337 16.2026 11.1137 16.2026H18.4537C18.9537 16.2026 19.3337 16.5826 19.3337 17.0626C19.3337 17.5526 18.9537 17.9526 18.4537 17.9526Z"
        fillRule="evenodd"
        clipRule="evenodd"
    />
</svg>
        