
<svg
    viewBox={0 0 32.990234375 23.5703125}
    xmlns="http://www.w3.org/2000/svg"
>
    <path
        fill="inherit"
        d="M4.2937 23.5726H29.1037C31.5537 23.5726 32.9937 22.1526 32.9937 19.3326V4.2426C32.9937 1.4226 31.5437 0.0026 28.6937 0.0026H3.8837C1.4337 0.0026 0.0037 1.4226 0.0037 4.2426V19.3326C0.0037 22.1526 1.4537 23.5726 4.2937 23.5726ZM15.1737 12.7126L3.4837 2.1726C3.7037 2.1226 3.9537 2.0926 4.2137 2.0926H28.7637C29.0437 2.0926 29.2737 2.1226 29.4937 2.1726L17.8037 12.7126C17.3737 13.1026 16.9437 13.2726 16.4837 13.2726C16.0337 13.2726 15.6037 13.1026 15.1737 12.7126ZM30.8937 4.2426V19.3326C30.8937 19.4326 30.8937 19.5226 30.8837 19.6026L22.4737 11.1926L30.8437 3.6626C30.8837 3.8426 30.8937 4.0326 30.8937 4.2426ZM2.0937 19.3226V4.2226C2.0937 4.0326 2.1037 3.8426 2.1337 3.6826L10.5137 11.2126L2.1037 19.6026C2.0937 19.5126 2.0937 19.4126 2.0937 19.3226ZM4.2137 21.4826C3.8537 21.4826 3.5237 21.4226 3.2537 21.3126L12.0037 12.5526L13.9837 14.3426C14.7637 15.0526 15.6137 15.3826 16.4837 15.3826C17.3637 15.3826 18.2137 15.0526 18.9937 14.3426L20.9737 12.5526L29.7337 21.3126C29.4637 21.4226 29.1337 21.4826 28.7637 21.4826Z"
        fillRule="evenodd"
        clipRule="evenodd"
    />
</svg>
        