
<svg
    viewBox={0 0 32.990234375 32.23833460949287}
    xmlns="http://www.w3.org/2000/svg"
>
    <path
        fill="inherit"
        d="M6.6337 3.1409L9.4637 6.1009C10.0637 6.7009 10.6937 6.5209 10.8437 5.7009L11.1337 4.2509C14.0237 4.7409 15.4037 6.4909 15.4037 8.6109V14.9709C15.4037 15.6509 15.8437 16.1209 16.4837 16.1209C17.1337 16.1209 17.5837 15.6509 17.5837 14.9709V8.6109C17.5837 6.4909 18.9637 4.7409 21.8637 4.2509L22.1437 5.7009C22.3037 6.5209 22.9237 6.7009 23.5337 6.1009L26.3637 3.1409C26.8237 2.6509 26.7037 2.0509 26.0737 1.7809L22.3637 0.1209C21.6037 -0.2191 21.0837 0.1809 21.2337 0.9809L21.5037 2.4209C19.3737 2.8409 17.0237 4.2209 16.4837 5.7709C15.9737 4.2209 13.6137 2.8409 11.4737 2.4209L11.7537 0.9809C11.9037 0.1809 11.3937 -0.2191 10.6237 0.1209L6.9037 1.7809C6.2937 2.0509 6.1537 2.6509 6.6337 3.1409ZM4.2937 32.2409H29.1037C31.5537 32.2409 32.9937 30.8209 32.9937 28.0009V12.9109C32.9937 10.0909 31.5437 8.6709 28.6937 8.6709H19.4437V10.7609H28.7637C29.0437 10.7609 29.2737 10.7909 29.4937 10.8409L17.8037 21.3809C17.3737 21.7609 16.9437 21.9409 16.4837 21.9409C16.0337 21.9409 15.6037 21.7609 15.1737 21.3809L3.4837 10.8409C3.7037 10.7909 3.9537 10.7609 4.2137 10.7609H13.5337V8.6709H3.8837C1.4337 8.6709 0.0037 10.0909 0.0037 12.9109V28.0009C0.0037 30.8209 1.4537 32.2409 4.2937 32.2409ZM30.8937 12.9109V28.0009C30.8937 28.0909 30.8937 28.1909 30.8837 28.2709L22.4737 19.8609L30.8437 12.3309C30.8837 12.5109 30.8937 12.7009 30.8937 12.9109ZM2.0937 27.9909V12.8909C2.0937 12.7009 2.1037 12.5109 2.1337 12.3409L10.5137 19.8809L2.1037 28.2709C2.0937 28.1809 2.0937 28.0809 2.0937 27.9909ZM16.4837 24.0509C17.3637 24.0509 18.2137 23.7109 18.9937 23.0109L20.9737 21.2209L29.7337 29.9809C29.4637 30.0909 29.1337 30.1509 28.7637 30.1509H4.2137C3.8537 30.1509 3.5237 30.0909 3.2537 29.9809L12.0037 21.2209L13.9837 23.0109C14.7637 23.7109 15.6137 24.0509 16.4837 24.0509Z"
        fillRule="evenodd"
        clipRule="evenodd"
    />
</svg>
        