
<svg
    viewBox={0 0 27.890625 27.890625}
    xmlns="http://www.w3.org/2000/svg"
>
    <path
        fill="inherit"
        d="M13.9427 27.8864C21.6427 27.8864 27.8927 21.6464 27.8927 13.9464C27.8927 6.2464 21.6427 -0.0036 13.9427 -0.0036C6.2527 -0.0036 0.0027 6.2464 0.0027 13.9464C0.0027 21.6464 6.2527 27.8864 13.9427 27.8864ZM13.9427 25.5664C7.5227 25.5664 2.3227 20.3664 2.3227 13.9464C2.3227 7.5164 7.5227 2.3264 13.9427 2.3264C20.3727 2.3264 25.5627 7.5164 25.5627 13.9464C25.5627 20.3664 20.3727 25.5664 13.9427 25.5664ZM13.9327 14.6664C14.1527 14.6664 14.3527 14.5864 14.5627 14.3964L21.3027 8.4664C20.9227 8.2264 20.5127 8.1364 19.9627 8.1364H7.9127C7.3427 8.1364 6.9427 8.2264 6.5727 8.4664L13.3027 14.3964C13.5127 14.5864 13.7227 14.6664 13.9327 14.6664ZM5.9727 18.6464L10.9227 13.6764L5.9427 9.2864C5.8827 9.4164 5.7927 9.7764 5.7927 10.2164V17.6764C5.7927 18.0864 5.8627 18.3864 5.9727 18.6464ZM21.9027 18.6364C22.0027 18.3864 22.0527 18.0864 22.0527 17.6764V10.2164C22.0527 9.7764 21.9827 9.4364 21.9127 9.2864L16.9227 13.6764ZM7.7127 19.7564H20.1527C20.6327 19.7564 21.0027 19.6364 21.2627 19.4664L16.1427 14.3664L15.1927 15.2264C14.7927 15.5764 14.3527 15.7364 13.9327 15.7364C13.5127 15.7364 13.0727 15.5764 12.6827 15.2264L11.7127 14.3664L6.6027 19.4664C6.8627 19.6364 7.2327 19.7564 7.7127 19.7564Z"
        fillRule="evenodd"
        clipRule="evenodd"
    />
</svg>
        