
<svg
    viewBox={0 0 25.169921875 25.169921875}
    xmlns="http://www.w3.org/2000/svg"
>
    <path
        fill="inherit"
        d="M4.2937 25.1692H20.8737C23.7437 25.1692 25.1737 23.7592 25.1737 20.9492V4.2392C25.1737 1.4192 23.7437 -0.0008 20.8737 -0.0008H4.2937C1.4337 -0.0008 0.0037 1.4192 0.0037 4.2392V20.9492C0.0037 23.7592 1.4337 25.1692 4.2937 25.1692ZM4.3237 22.9692C2.9537 22.9692 2.2037 22.2392 2.2037 20.8192V4.3592C2.2037 2.9392 2.9537 2.1992 4.3237 2.1992H20.8537C22.2037 2.1992 22.9737 2.9392 22.9737 4.3592V20.8192C22.9737 22.2392 22.2037 22.9692 20.8537 22.9692ZM7.4337 11.1192H17.7337C18.4337 11.1192 18.9237 10.7692 18.9237 10.0792C18.9237 9.3792 18.4537 9.0192 17.7337 9.0192H7.4337C6.7137 9.0192 6.2437 9.3792 6.2437 10.0792C6.2437 10.7692 6.7437 11.1192 7.4337 11.1192ZM7.4337 16.1592H17.7337C18.4337 16.1592 18.9237 15.8192 18.9237 15.1392C18.9237 14.4392 18.4537 14.0792 17.7337 14.0792H7.4337C6.7137 14.0792 6.2437 14.4392 6.2437 15.1392C6.2437 15.8192 6.7437 16.1592 7.4337 16.1592Z"
        fillRule="evenodd"
        clipRule="evenodd"
    />
</svg>
        