<svg viewBox="0 0 25.169921875 25.169921875" xmlns="http://www.w3.org/2000/svg"><path d="M4.2937 25.1692H20.8737C23.7437 25.1692 25.1737 23.7592 25.1737 20.9492V4.2392C25.1737 1.4192 23.7437 -0.0008 20.8737 -0.0008H4.2937C1.4337 -0.0008 0.0037 1.4192 0.0037 4.2392V20.9492C0.0037 23.7592 1.4337 25.1692 4.2937 25.1692ZM7.2837 11.0692C6.5637 11.0692 6.0437 10.7192 6.0437 9.9892C6.0437 9.2692 6.5337 8.8992 7.2837 8.8992H17.8837C18.6337 8.8992 19.1237 9.2692 19.1237 9.9892C19.1237 10.7192 18.6037 11.0692 17.8837 11.0692ZM7.2837 16.2792C6.5637 16.2792 6.0437 15.9292 6.0437 15.2192C6.0437 14.4892 6.5337 14.1092 7.2837 14.1092H17.8837C18.6337 14.1092 19.1237 14.4892 19.1237 15.2192C19.1237 15.9292 18.6037 16.2792 17.8837 16.2792Z" /></svg>