
<svg
    viewBox="0 0 27.890625 27.890625"
    xmlns="http://www.w3.org/2000/svg"
>
    <path
        fill="inherit"
        d="M13.9427 27.8864C21.6427 27.8864 27.8927 21.6264 27.8927 13.9464C27.8927 6.2464 21.6427 -0.0036 13.9427 -0.0036C6.2627 -0.0036 0.0027 6.2464 0.0027 13.9464C0.0027 21.6264 6.2627 27.8864 13.9427 27.8864ZM8.6427 12.4364C7.9127 12.4364 7.3927 12.0864 7.3927 11.3564C7.3927 10.6364 7.8927 10.2664 8.6427 10.2664H19.2327C19.9927 10.2664 20.4827 10.6364 20.4827 11.3564C20.4827 12.0864 19.9627 12.4364 19.2327 12.4364ZM8.6427 17.6464C7.9127 17.6464 7.3927 17.2964 7.3927 16.5864C7.3927 15.8564 7.8927 15.4764 8.6427 15.4764H19.2327C19.9927 15.4764 20.4827 15.8564 20.4827 16.5864C20.4827 17.2964 19.9627 17.6464 19.2327 17.6464Z"
        fillRule="evenodd"
        clipRule="evenodd"
    />
</svg>
        