
<svg
    viewBox="0 0 35.35689085268633 27.277402488228052"
    xmlns="http://www.w3.org/2000/svg"
>
    <path
        fill="inherit"
        d="M1.5869 20.4084L6.8769 25.6784C8.9469 27.7384 11.2569 27.8184 13.1969 25.8784L26.3769 12.6784C27.5869 11.4784 27.5769 9.7384 26.3369 8.4984L18.7769 0.9484C17.5269 -0.2916 15.8069 -0.3216 14.5869 0.8984L1.4069 14.0784C-0.5331 16.0284 -0.4631 18.3384 1.5869 20.4084ZM16.0569 2.5384C16.4069 2.1784 16.8969 2.1784 17.2369 2.5184L24.7569 10.0384C25.1069 10.3884 25.0869 10.8584 24.7469 11.2084L14.4269 21.5284L5.7469 12.8484ZM3.1469 18.8484C2.0969 17.7784 2.0369 16.5684 3.0369 15.5484L4.3769 14.2084L13.0569 22.8984L11.7169 24.2384C10.7169 25.2484 9.5069 25.1884 8.4369 24.1284ZM14.6869 26.4884H23.3769C23.9869 26.4884 24.4769 25.9984 24.4769 25.3984C24.4769 24.7984 23.9869 24.2884 23.3769 24.2884H16.8969ZM27.4569 26.4884H34.2669C34.8669 26.4884 35.3569 25.9984 35.3569 25.3984C35.3569 24.7984 34.8669 24.2884 34.2669 24.2884H27.4569C26.8569 24.2884 26.3569 24.7984 26.3569 25.3984C26.3569 25.9984 26.8569 26.4884 27.4569 26.4884Z"
        fillRule="evenodd"
        clipRule="evenodd"
    />
</svg>
        