
<svg
    viewBox="0 0 27.890625 27.890625"
    xmlns="http://www.w3.org/2000/svg"
>
    <path
        fill="inherit"
        d="M13.9427 27.8864C21.6427 27.8864 27.8927 21.6464 27.8927 13.9464C27.8927 6.2464 21.6427 -0.0036 13.9427 -0.0036C13.3027 -0.0036 12.7827 0.5164 12.7827 1.1664C12.7827 1.8064 13.3027 2.3364 13.9427 2.3364C20.3527 2.3364 25.5527 7.5364 25.5527 13.9464C25.5527 20.3564 20.3527 25.5564 13.9427 25.5564C7.5327 25.5564 2.3427 20.3564 2.3427 13.9464C2.3427 13.3064 1.8227 12.7664 1.1627 12.7664C0.5227 12.7664 0.0027 13.3064 0.0027 13.9464C0.0027 21.6464 6.2527 27.8864 13.9427 27.8864ZM0.5627 8.3764C0.5627 8.9964 1.0627 9.4864 1.6727 9.4864C2.2727 9.4864 2.7627 8.9964 2.7627 8.3764C2.7627 7.7364 2.7627 5.6864 2.6227 4.2764L4.9327 6.9164L12.0727 14.0664C12.3327 14.3264 12.6227 14.4664 12.9327 14.4664C13.6327 14.4664 14.1327 13.9464 14.1327 13.2664C14.1327 12.9464 14.0027 12.6164 13.7527 12.3764L6.6127 5.2464L3.9927 2.9164C5.5127 3.1064 7.4227 3.0864 8.0927 3.0864C8.7127 3.0864 9.2027 2.5864 9.2027 1.9664C9.2027 1.3564 8.7127 0.8564 8.0927 0.8564H1.9527C1.0527 0.8564 0.5627 1.3364 0.5627 2.2464Z"
        fillRule="evenodd"
        clipRule="evenodd"
    />
</svg>
        