
<svg
    viewBox={0 0 25.34765625 25.169921875}
    xmlns="http://www.w3.org/2000/svg"
>
    <path
        fill="inherit"
        d="M0.0037 20.9355C0.0037 23.7655 1.4337 25.1655 4.2937 25.1655H21.0537C23.9137 25.1655 25.3437 23.7455 25.3437 20.9355V4.2355C25.3437 1.4255 23.9137 -0.0045 21.0537 -0.0045H4.2937C1.4337 -0.0045 0.0037 1.4055 0.0037 4.2355ZM2.2037 20.8255V4.3455C2.2037 2.9255 2.9537 2.2055 4.3237 2.2055H5.6237V4.0555C5.6237 4.5255 5.9737 4.8955 6.4437 4.8955C6.9037 4.8955 7.2737 4.5255 7.2737 4.0555V2.2055H9.7737V4.0555C9.7737 4.5255 10.1337 4.8955 10.6137 4.8955C11.0737 4.8955 11.4337 4.5255 11.4337 4.0555V2.2055H13.9437V4.0555C13.9437 4.5255 14.3037 4.8955 14.7637 4.8955C15.2437 4.8955 15.6037 4.5255 15.6037 4.0555V2.2055H18.1037V4.0555C18.1037 4.5255 18.4537 4.8955 18.9337 4.8955C19.4037 4.8955 19.7537 4.5255 19.7537 4.0555V2.2055H21.0137C22.3637 2.2055 23.1437 2.9255 23.1437 4.3455V20.8255C23.1437 22.2455 22.3637 22.9655 21.0137 22.9655H19.7537V21.1055C19.7537 20.6355 19.4037 20.2755 18.9337 20.2755C18.4537 20.2755 18.1037 20.6355 18.1037 21.1055V22.9655H15.6037V21.1055C15.6037 20.6355 15.2437 20.2755 14.7637 20.2755C14.3037 20.2755 13.9437 20.6355 13.9437 21.1055V22.9655H11.4337V21.1055C11.4337 20.6355 11.0737 20.2755 10.6137 20.2755C10.1337 20.2755 9.7737 20.6355 9.7737 21.1055V22.9655H7.2737V21.1055C7.2737 20.6355 6.9037 20.2755 6.4437 20.2755C5.9737 20.2755 5.6237 20.6355 5.6237 21.1055V22.9655H4.3237C2.9537 22.9655 2.2037 22.2455 2.2037 20.8255ZM5.9337 16.5955C5.9337 17.3255 6.4137 17.7855 7.1537 17.7855H18.1937C18.9337 17.7855 19.4137 17.3255 19.4137 16.5955V8.5755C19.4137 7.8455 18.9337 7.3855 18.1937 7.3855H7.1537C6.4137 7.3855 5.9337 7.8455 5.9337 8.5755Z"
        fillRule="evenodd"
        clipRule="evenodd"
    />
</svg>
        