
<svg
    viewBox="0 0 25.34765625 25.169921875"
    xmlns="http://www.w3.org/2000/svg"
>
    <path
        fill="inherit"
        d="M0.0037 20.9355C0.0037 23.7655 1.4337 25.1655 4.2937 25.1655H5.1537V22.5355C5.1537 22.0355 5.5337 21.6555 6.0437 21.6555C6.5537 21.6555 6.9337 22.0355 6.9337 22.5355V25.1655H9.5837V22.5355C9.5837 22.0355 9.9637 21.6555 10.4737 21.6555C10.9737 21.6555 11.3637 22.0355 11.3637 22.5355V25.1655H14.0137V22.5355C14.0137 22.0355 14.3937 21.6555 14.9037 21.6555C15.4037 21.6555 15.7937 22.0355 15.7937 22.5355V25.1655H18.4437V22.5355C18.4437 22.0355 18.8237 21.6555 19.3337 21.6555C19.8337 21.6555 20.2237 22.0355 20.2237 22.5355V25.1655H21.0537C23.9137 25.1655 25.3437 23.7455 25.3437 20.9355V4.2355C25.3437 1.4255 23.9137 -0.0045 21.0537 -0.0045H20.2237V2.6355C20.2237 3.1355 19.8337 3.5155 19.3337 3.5155C18.8237 3.5155 18.4437 3.1355 18.4437 2.6355V-0.0045H15.7937V2.6355C15.7937 3.1355 15.4037 3.5155 14.9037 3.5155C14.3937 3.5155 14.0137 3.1355 14.0137 2.6355V-0.0045H11.3637V2.6355C11.3637 3.1355 10.9737 3.5155 10.4737 3.5155C9.9637 3.5155 9.5837 3.1355 9.5837 2.6355V-0.0045H6.9337V2.6355C6.9337 3.1355 6.5537 3.5155 6.0437 3.5155C5.5337 3.5155 5.1537 3.1355 5.1537 2.6355V-0.0045H4.2937C1.4337 -0.0045 0.0037 1.4055 0.0037 4.2355ZM5.5137 16.8455V8.3255C5.5137 7.5555 6.0437 7.0555 6.8037 7.0555H18.5437C19.3137 7.0555 19.8237 7.5555 19.8237 8.3255V16.8455C19.8237 17.6055 19.3137 18.1155 18.5437 18.1155H6.8037C6.0437 18.1155 5.5137 17.6055 5.5137 16.8455Z"
        fillRule="evenodd"
        clipRule="evenodd"
    />
</svg>
        