
<svg
    viewBox={0 0 33.16796875 25.142578125}
    xmlns="http://www.w3.org/2000/svg"
>
    <path
        fill="inherit"
        d="M1.3237 25.1392H12.4137C13.1637 25.1392 13.6537 24.6492 13.6537 23.9392C13.6537 23.2192 13.1537 22.7192 12.4137 22.7192H2.7037V13.4692H11.9237C12.6837 13.4692 13.1237 12.9292 13.1237 12.2792C13.1237 11.6492 12.7237 11.0892 11.9237 11.0892H2.7037V2.4492H12.4137C13.1437 2.4492 13.6537 1.9392 13.6537 1.2192C13.6537 0.5092 13.1637 -0.0008 12.4137 -0.0008H1.3237C0.5337 -0.0008 0.0037 0.5292 0.0037 1.4092V23.7492C0.0037 24.6492 0.5637 25.1392 1.3237 25.1392ZM18.4037 25.1392H31.9537C32.7037 25.1392 33.1637 24.6092 33.1637 23.9392C33.1637 23.1992 32.6737 22.7192 31.9537 22.7192H20.2737V22.5892L32.3937 2.6892C32.6437 2.2592 32.8137 1.9092 32.8137 1.3992C32.8137 0.6192 32.2637 -0.0008 31.3637 -0.0008H18.4437C17.7037 -0.0008 17.1737 0.4692 17.1737 1.2192C17.1737 1.9392 17.6737 2.4492 18.4437 2.4492H29.6237V2.5692L17.4337 22.4892C17.1737 22.8892 16.9937 23.2592 16.9937 23.7592C16.9937 24.7092 17.6737 25.1392 18.4037 25.1392Z"
        fillRule="evenodd"
        clipRule="evenodd"
    />
</svg>
        