
<svg
    viewBox="0 0 30.529296875 29.17578125"
    xmlns="http://www.w3.org/2000/svg"
>
    <path
        fill="inherit"
        d="M1.8137 25.919H28.7137V25.009C28.7137 24.459 28.3937 24.129 27.8337 24.129H26.9637V9.379H28.1637C28.9137 9.379 29.3537 8.829 29.3537 8.269C29.3537 7.859 29.1237 7.509 28.6137 7.219L16.9437 0.479C16.3937 0.169 15.8137 -0.001 15.2537 -0.001C14.6937 -0.001 14.1137 0.169 13.5937 0.479L1.9137 7.219C1.3937 7.509 1.1737 7.859 1.1737 8.269C1.1737 8.829 1.6137 9.379 2.3637 9.379H3.5637V24.129H2.7037C2.1437 24.129 1.8137 24.459 1.8137 25.009ZM5.6337 24.129V7.629L14.7237 2.529C14.8937 2.429 15.0837 2.379 15.2537 2.379C15.4337 2.379 15.6237 2.429 15.8037 2.529L24.8937 7.629V24.129ZM9.7637 19.459H13.7137C14.1137 19.459 14.3537 19.219 14.3537 18.839C14.3537 18.439 14.1137 18.229 13.7137 18.229H10.4837V14.889H13.5737C13.9137 14.889 14.1637 14.659 14.1637 14.299C14.1637 13.949 13.9137 13.709 13.5737 13.709H10.4837V10.579H13.7137C14.1137 10.579 14.3537 10.349 14.3537 9.949C14.3537 9.569 14.1137 9.349 13.7137 9.349H9.7637C9.3137 9.349 9.0637 9.639 9.0637 10.079V18.719C9.0637 19.179 9.2937 19.459 9.7637 19.459ZM16.5337 19.459H21.3837C21.7537 19.459 21.9737 19.209 21.9737 18.839C21.9737 18.469 21.7537 18.229 21.3837 18.229H17.4737V18.159L21.6437 10.689C21.7537 10.489 21.8437 10.299 21.8437 10.049C21.8437 9.669 21.6037 9.349 21.1137 9.349H16.4837C16.1037 9.349 15.8437 9.579 15.8437 9.949C15.8437 10.339 16.1037 10.579 16.4837 10.579H20.2237V10.639L15.9937 18.139C15.8837 18.329 15.8137 18.529 15.8137 18.759C15.8137 19.219 16.1637 19.459 16.5337 19.459ZM1.0937 29.179H29.4237C30.0237 29.179 30.5337 28.669 30.5337 28.069C30.5337 27.469 30.0237 26.979 29.4237 26.979H1.0937C0.4937 26.979 0.0037 27.469 0.0037 28.069C0.0037 28.669 0.4937 29.179 1.0937 29.179Z"
        fillRule="evenodd"
        clipRule="evenodd"
    />
</svg>
        