
<svg
    viewBox="0 0 25.169921875 25.169921875"
    xmlns="http://www.w3.org/2000/svg"
>
    <path
        fill="inherit"
        d="M4.2937 25.1692H20.8737C23.7437 25.1692 25.1737 23.7592 25.1737 20.9492V4.2392C25.1737 1.4192 23.7437 -0.0008 20.8737 -0.0008H4.2937C1.4337 -0.0008 0.0037 1.4192 0.0037 4.2392V20.9492C0.0037 23.7592 1.4337 25.1692 4.2937 25.1692ZM6.4237 18.2392C5.8937 18.2392 5.6337 17.9392 5.6337 17.4092V7.7692C5.6337 7.2592 5.9037 6.9492 6.4237 6.9492H10.8237C11.2837 6.9492 11.5537 7.1792 11.5537 7.6192C11.5537 8.0492 11.2837 8.3292 10.8237 8.3292H7.2337V11.8292H10.6737C11.0737 11.8292 11.3437 12.0892 11.3437 12.4792C11.3437 12.8792 11.0737 13.1392 10.6737 13.1392H7.2337V16.8592H10.8237C11.2837 16.8592 11.5537 17.1192 11.5537 17.5592C11.5537 17.9892 11.2837 18.2392 10.8237 18.2392ZM14.0037 18.2392C13.5737 18.2392 13.1937 17.9892 13.1937 17.4592C13.1937 17.2092 13.2737 16.9792 13.3937 16.7792L18.1137 8.3992V8.3292H13.9437C13.5237 8.3292 13.2237 8.0392 13.2237 7.6192C13.2237 7.1892 13.5237 6.9492 13.9437 6.9492H19.1137C19.6637 6.9492 19.9337 7.2992 19.9337 7.7292C19.9337 7.9992 19.8337 8.2192 19.7037 8.4392L15.0537 16.7892V16.8592H19.4237C19.8337 16.8592 20.0837 17.1492 20.0837 17.5592C20.0837 17.9692 19.8337 18.2392 19.4237 18.2392Z"
        fillRule="evenodd"
        clipRule="evenodd"
    />
</svg>
        