
<svg
    viewBox={0 0 25.169921875 25.169921875}
    xmlns="http://www.w3.org/2000/svg"
>
    <path
        fill="inherit"
        d="M4.2937 25.1692H20.8737C23.7437 25.1692 25.1737 23.7592 25.1737 20.9492V4.2392C25.1737 1.4192 23.7437 -0.0008 20.8737 -0.0008H4.2937C1.4337 -0.0008 0.0037 1.4192 0.0037 4.2392V20.9492C0.0037 23.7592 1.4337 25.1692 4.2937 25.1692ZM14.3537 18.7892C11.1037 18.7892 8.6937 17.1892 8.0437 14.2292H6.4137C6.1637 14.2292 5.9437 14.0092 5.9437 13.7692C5.9437 13.4892 6.1637 13.2892 6.4137 13.2892H7.8937C7.8637 13.0392 7.8437 12.7692 7.8437 12.5092C7.8437 12.2192 7.8637 11.9492 7.8937 11.6892H6.4137C6.1637 11.6892 5.9437 11.4892 5.9437 11.2292C5.9437 10.9692 6.1637 10.7592 6.4137 10.7592H8.0437C8.7337 7.6792 11.3437 6.2192 14.3537 6.2192C14.8437 6.2192 15.3037 6.2492 15.6437 6.3192C16.1437 6.4392 16.3937 6.6892 16.3937 7.0692C16.3937 7.5192 16.0937 7.7492 15.6437 7.7492C15.3437 7.7492 14.9037 7.6992 14.3937 7.6992C11.9637 7.6992 10.3637 8.8092 9.7937 10.7592H14.2237C14.4637 10.7592 14.6837 10.9692 14.6837 11.2292C14.6837 11.4892 14.4637 11.6892 14.2237 11.6892H9.5937C9.5737 11.9492 9.5537 12.2392 9.5537 12.5192C9.5537 12.7792 9.5737 13.0392 9.5937 13.2892H14.2237C14.4637 13.2892 14.6837 13.4892 14.6837 13.7692C14.6837 14.0092 14.4637 14.2292 14.2237 14.2292H9.7737C10.3637 16.2292 12.0337 17.3392 14.4337 17.3392C15.0137 17.3392 15.1737 17.2692 15.6437 17.2692C16.0937 17.2692 16.3937 17.4892 16.3937 17.9392C16.3937 18.3592 16.0637 18.5692 15.6437 18.6792C15.2437 18.7592 14.7537 18.7892 14.3537 18.7892Z"
        fillRule="evenodd"
        clipRule="evenodd"
    />
</svg>
        