
<svg
    viewBox="0 0 25.169921875 25.169921875"
    xmlns="http://www.w3.org/2000/svg"
>
    <path
        fill="inherit"
        d="M4.2937 25.1692H20.8737C23.7437 25.1692 25.1737 23.7592 25.1737 20.9492V4.2392C25.1737 1.4192 23.7437 -0.0008 20.8737 -0.0008H4.2937C1.4337 -0.0008 0.0037 1.4192 0.0037 4.2392V20.9492C0.0037 23.7592 1.4337 25.1692 4.2937 25.1692ZM4.3237 22.9692C2.9537 22.9692 2.2037 22.2392 2.2037 20.8192V4.3592C2.2037 2.9392 2.9537 2.1992 4.3237 2.1992H20.8537C22.2037 2.1992 22.9737 2.9392 22.9737 4.3592V20.8192C22.9737 22.2392 22.2037 22.9692 20.8537 22.9692ZM6.6137 18.0692H10.8937C11.3237 18.0692 11.5937 17.8292 11.5937 17.4092C11.5937 16.9792 11.3237 16.7392 10.8937 16.7392H7.3937V13.1292H10.7437C11.1337 13.1292 11.3937 12.8692 11.3937 12.4792C11.3937 12.0992 11.1337 11.8492 10.7437 11.8492H7.3937V8.4392H10.8937C11.3237 8.4392 11.5937 8.1892 11.5937 7.7692C11.5937 7.3392 11.3237 7.1092 10.8937 7.1092H6.6137C6.1237 7.1092 5.8537 7.4192 5.8537 7.8992V17.2692C5.8537 17.7692 6.1137 18.0692 6.6137 18.0692ZM13.9637 18.0692H19.2237C19.6237 18.0692 19.8637 17.7992 19.8637 17.4092C19.8637 17.0092 19.6237 16.7392 19.2237 16.7392H14.9837V16.6692L19.4937 8.5592C19.6237 8.3392 19.7137 8.1392 19.7137 7.8592C19.7137 7.4492 19.4537 7.1092 18.9237 7.1092H13.9037C13.4937 7.1092 13.2037 7.3592 13.2037 7.7692C13.2037 8.1792 13.4937 8.4392 13.9037 8.4392H17.9637V8.5192L13.3837 16.6492C13.2637 16.8592 13.1837 17.0792 13.1837 17.3192C13.1837 17.8292 13.5537 18.0692 13.9637 18.0692Z"
        fillRule="evenodd"
        clipRule="evenodd"
    />
</svg>
        