
<svg
    viewBox="0 0 30.544813437289534 27.890625"
    xmlns="http://www.w3.org/2000/svg"
>
    <path
        fill="inherit"
        d="M0.9769 11.3064C-0.0131 11.3064 -0.2531 11.9764 0.2769 12.7464L3.3369 17.0864C3.7869 17.7164 4.4469 17.7064 4.8869 17.0864L7.9269 12.7264C8.4669 11.9764 8.2069 11.3064 7.2469 11.3064H5.2769C6.4669 6.1564 11.0769 2.3264 16.5969 2.3264C23.0269 2.3264 28.2169 7.5164 28.2169 13.9464C28.2169 20.3664 23.0269 25.5664 16.5969 25.5664C12.7169 25.5664 9.2569 23.6564 7.1969 20.7564C6.7669 20.1964 6.1269 20.0164 5.5569 20.3564C5.0069 20.6964 4.8369 21.4664 5.3069 22.0664C7.8369 25.6064 11.9769 27.8864 16.5969 27.8864C24.2969 27.8864 30.5469 21.6464 30.5469 13.9464C30.5469 6.2464 24.2969 -0.0036 16.5969 -0.0036C9.8069 -0.0036 4.1269 4.8664 2.8969 11.3064ZM10.8569 19.2364H14.9869C15.3869 19.2364 15.6569 18.9864 15.6569 18.5764C15.6569 18.1664 15.3869 17.9364 14.9869 17.9364H11.6269V14.4764H14.8369C15.2069 14.4764 15.4469 14.2164 15.4469 13.8464C15.4469 13.4764 15.2069 13.2464 14.8369 13.2464H11.6269V9.9664H14.9869C15.3869 9.9664 15.6569 9.7364 15.6569 9.3264C15.6569 8.9164 15.3869 8.6964 14.9869 8.6964H10.8569C10.3969 8.6964 10.1369 8.9864 10.1369 9.4564V18.4564C10.1369 18.9364 10.3769 19.2364 10.8569 19.2364ZM17.9269 19.2364H22.9669C23.3569 19.2364 23.5869 18.9664 23.5869 18.5764C23.5869 18.1964 23.3569 17.9364 22.9669 17.9364H18.8969V17.8664L23.2469 10.0864C23.3569 9.8864 23.4669 9.6764 23.4669 9.4164C23.4669 9.0264 23.2069 8.6964 22.6869 8.6964H17.8669C17.4769 8.6964 17.1969 8.9264 17.1969 9.3264C17.1969 9.7164 17.4769 9.9664 17.8669 9.9664H21.7669V10.0364L17.3669 17.8564C17.2469 18.0564 17.1769 18.2664 17.1769 18.4964C17.1769 18.9864 17.5269 19.2364 17.9269 19.2364Z"
        fillRule="evenodd"
        clipRule="evenodd"
    />
</svg>
        