
<svg
    viewBox="0 0 27.890625 27.890625"
    xmlns="http://www.w3.org/2000/svg"
>
    <path
        fill="inherit"
        d="M13.9427 27.8864C21.6427 27.8864 27.8927 21.6464 27.8927 13.9464C27.8927 6.2464 21.6427 -0.0036 13.9427 -0.0036C6.2527 -0.0036 0.0027 6.2464 0.0027 13.9464C0.0027 21.6464 6.2527 27.8864 13.9427 27.8864ZM13.9427 25.5664C7.5227 25.5664 2.3227 20.3664 2.3227 13.9464C2.3227 7.5164 7.5227 2.3264 13.9427 2.3264C20.3727 2.3264 25.5627 7.5164 25.5627 13.9464C25.5627 20.3664 20.3727 25.5664 13.9427 25.5664ZM7.4327 15.0964C7.4327 15.3364 7.6427 15.5464 7.9027 15.5464H9.4727C10.1127 18.4064 12.4427 19.9564 15.6027 19.9564C15.9827 19.9564 16.4627 19.9364 16.8327 19.8564C17.2527 19.7464 17.5727 19.5464 17.5727 19.1364C17.5727 18.7064 17.2827 18.4964 16.8427 18.4964C16.3927 18.4964 16.2327 18.5564 15.6827 18.5564C13.3427 18.5564 11.7127 17.4864 11.1527 15.5464H15.4627C15.7127 15.5464 15.9127 15.3364 15.9127 15.0964C15.9127 14.8364 15.7127 14.6264 15.4627 14.6264H10.9827C10.9527 14.3964 10.9327 14.1464 10.9327 13.8864C10.9327 13.6064 10.9527 13.3464 10.9827 13.0864H15.4627C15.7127 13.0864 15.9127 12.8764 15.9127 12.6364C15.9127 12.3864 15.7127 12.1864 15.4627 12.1864H11.1727C11.7127 10.2764 13.2727 9.1964 15.6427 9.1964C16.1327 9.1964 16.5527 9.2564 16.8427 9.2564C17.2827 9.2564 17.5727 9.0364 17.5727 8.5964C17.5727 8.2264 17.3327 7.9964 16.8327 7.8764C16.5127 7.8064 16.0827 7.7664 15.6027 7.7664C12.6827 7.7664 10.1627 9.1864 9.4727 12.1864H7.9027C7.6427 12.1864 7.4327 12.3864 7.4327 12.6364C7.4327 12.8764 7.6427 13.0864 7.9027 13.0864H9.3427C9.3127 13.3464 9.2927 13.6064 9.2927 13.8764C9.2927 14.1364 9.3127 14.3864 9.3427 14.6264H7.9027C7.6427 14.6264 7.4327 14.8364 7.4327 15.0964Z"
        fillRule="evenodd"
        clipRule="evenodd"
    />
</svg>
        