
<svg
    viewBox={0 0 30.529296875 29.17578125}
    xmlns="http://www.w3.org/2000/svg"
>
    <path
        fill="inherit"
        d="M1.8137 25.919H28.7137V25.009C28.7137 24.459 28.3937 24.129 27.8337 24.129H26.9637V9.379H28.1637C28.9137 9.379 29.3537 8.829 29.3537 8.269C29.3537 7.859 29.1237 7.509 28.6137 7.219L16.9437 0.479C16.3937 0.169 15.8137 -0.001 15.2537 -0.001C14.6937 -0.001 14.1137 0.169 13.5937 0.479L1.9137 7.219C1.3937 7.509 1.1737 7.859 1.1737 8.269C1.1737 8.829 1.6137 9.379 2.3637 9.379H3.5637V24.129H2.7037C2.1437 24.129 1.8137 24.459 1.8137 25.009ZM5.6337 24.129V7.629L14.7237 2.529C14.8937 2.429 15.0837 2.379 15.2537 2.379C15.4337 2.379 15.6237 2.429 15.8037 2.529L24.8937 7.629V24.129ZM8.7737 15.529C8.7737 15.779 8.9837 15.979 9.2437 15.979H10.8137C11.4437 18.839 13.7837 20.399 16.9437 20.399C17.3237 20.399 17.7837 20.389 18.1737 20.299C18.5937 20.189 18.9037 19.989 18.9037 19.579C18.9037 19.139 18.6237 18.939 18.1837 18.939C17.7337 18.939 17.5637 18.989 17.0237 18.989C14.6837 18.989 13.0537 17.939 12.4937 15.979H16.8037C17.0537 15.979 17.2537 15.779 17.2537 15.529C17.2537 15.289 17.0537 15.079 16.8037 15.079H12.3137C12.2937 14.829 12.2737 14.589 12.2737 14.329C12.2737 14.059 12.2937 13.779 12.3137 13.539H16.8037C17.0537 13.539 17.2537 13.329 17.2537 13.079C17.2537 12.829 17.0537 12.619 16.8037 12.619H12.4937C13.0537 10.729 14.6137 9.649 16.9837 9.649C17.4737 9.649 17.8937 9.709 18.1837 9.709C18.6237 9.709 18.9037 9.489 18.9037 9.049C18.9037 8.669 18.6737 8.439 18.1737 8.309C17.8437 8.249 17.4137 8.219 16.9437 8.219C14.0137 8.219 11.4937 9.639 10.8137 12.619H9.2437C8.9837 12.619 8.7737 12.829 8.7737 13.079C8.7737 13.329 8.9837 13.539 9.2437 13.539H10.6737C10.6537 13.779 10.6337 14.039 10.6337 14.319C10.6337 14.579 10.6537 14.829 10.6637 15.079H9.2437C8.9837 15.079 8.7737 15.289 8.7737 15.529ZM1.0937 29.179H29.4237C30.0237 29.179 30.5337 28.669 30.5337 28.069C30.5337 27.469 30.0237 26.979 29.4237 26.979H1.0937C0.4937 26.979 0.0037 27.469 0.0037 28.069C0.0037 28.669 0.4937 29.179 1.0937 29.179Z"
        fillRule="evenodd"
        clipRule="evenodd"
    />
</svg>
        