
<svg
    viewBox={0 0 30.5703125 30.5703125}
    xmlns="http://www.w3.org/2000/svg"
>
    <path
        fill="inherit"
        d="M15.2827 30.5663C23.6827 30.5663 30.5727 23.6763 30.5727 15.2863C30.5727 6.8863 23.6827 -0.0038 15.2827 -0.0038C6.8927 -0.0038 0.0027 6.8863 0.0027 15.2863C0.0027 23.6763 6.8927 30.5663 15.2827 30.5663ZM15.2827 25.4862C9.6527 25.4862 5.0827 20.9162 5.0827 15.2863C5.0827 9.6363 9.6527 5.0863 15.2827 5.0863C20.9327 5.0863 25.4827 9.6363 25.4827 15.2863C25.4827 20.9162 20.9327 25.4862 15.2827 25.4862ZM9.6127 20.5063H13.6827C14.0827 20.5063 14.3427 20.2763 14.3427 19.8663C14.3427 19.4663 14.0827 19.2362 13.6827 19.2362H10.3627V15.8063H13.5327C13.8927 15.8063 14.1327 15.5563 14.1327 15.1863C14.1327 14.8363 13.8927 14.5863 13.5327 14.5863H10.3627V11.3663H13.6827C14.0827 11.3663 14.3427 11.1163 14.3427 10.7163C14.3427 10.3063 14.0827 10.0863 13.6827 10.0863H9.6127C9.1427 10.0863 8.8827 10.3763 8.8827 10.8463V19.7463C8.8827 20.2163 9.1327 20.5063 9.6127 20.5063ZM16.5827 20.5063H21.5927C21.9527 20.5063 22.1927 20.2463 22.1927 19.8663C22.1927 19.4963 21.9527 19.2362 21.5927 19.2362H17.5527V19.1662L21.8427 11.4663C21.9727 11.2663 22.0627 11.0763 22.0627 10.8163C22.0627 10.4163 21.8027 10.0863 21.3027 10.0863H16.5427C16.1427 10.0863 15.8727 10.3263 15.8727 10.7163C15.8727 11.1063 16.1427 11.3663 16.5427 11.3663H20.4027V11.4263L16.0327 19.1563C15.9327 19.3563 15.8427 19.5463 15.8427 19.7963C15.8427 20.2663 16.2027 20.5063 16.5827 20.5063Z"
        fillRule="evenodd"
        clipRule="evenodd"
    />
</svg>
        