
<svg
    viewBox="0 0 27.890625 27.890625"
    xmlns="http://www.w3.org/2000/svg"
>
    <path
        fill="inherit"
        d="M13.9427 27.8864C21.6427 27.8864 27.8927 21.6464 27.8927 13.9464C27.8927 6.2464 21.6427 -0.0036 13.9427 -0.0036C6.2527 -0.0036 0.0027 6.2464 0.0027 13.9464C0.0027 21.6464 6.2527 27.8864 13.9427 27.8864ZM13.9427 25.5664C7.5227 25.5664 2.3227 20.3664 2.3227 13.9464C2.3227 7.5164 7.5227 2.3264 13.9427 2.3264C20.3727 2.3264 25.5627 7.5164 25.5627 13.9464C25.5627 20.3664 20.3727 25.5664 13.9427 25.5664ZM7.9427 19.4364H12.2327C12.6627 19.4364 12.9327 19.1964 12.9327 18.7764C12.9327 18.3464 12.6627 18.1064 12.2327 18.1064H8.7327V14.4964H12.0827C12.4727 14.4964 12.7327 14.2364 12.7327 13.8464C12.7327 13.4664 12.4727 13.2164 12.0827 13.2164H8.7327V9.8064H12.2327C12.6627 9.8064 12.9327 9.5564 12.9327 9.1364C12.9327 8.7064 12.6627 8.4764 12.2327 8.4764H7.9427C7.4627 8.4764 7.1927 8.7864 7.1927 9.2664V18.6364C7.1927 19.1364 7.4527 19.4364 7.9427 19.4364ZM15.3027 19.4364H20.5627C20.9627 19.4364 21.2027 19.1664 21.2027 18.7764C21.2027 18.3764 20.9627 18.1064 20.5627 18.1064H16.3127V18.0364L20.8327 9.9264C20.9627 9.7064 21.0527 9.5064 21.0527 9.2264C21.0527 8.8164 20.7927 8.4764 20.2627 8.4764H15.2427C14.8327 8.4764 14.5427 8.7264 14.5427 9.1364C14.5427 9.5464 14.8327 9.8064 15.2427 9.8064H19.3027V9.8864L14.7227 18.0164C14.6027 18.2264 14.5227 18.4464 14.5227 18.6864C14.5227 19.1964 14.8927 19.4364 15.3027 19.4364Z"
        fillRule="evenodd"
        clipRule="evenodd"
    />
</svg>
        