
<svg
    viewBox="0 0 25.169921875 25.169921875"
    xmlns="http://www.w3.org/2000/svg"
>
    <path
        fill="inherit"
        d="M4.2937 25.1692H20.8737C23.7437 25.1692 25.1737 23.7592 25.1737 20.9492V4.2392C25.1737 1.4192 23.7437 -0.0008 20.8737 -0.0008H4.2937C1.4337 -0.0008 0.0037 1.4192 0.0037 4.2392V20.9492C0.0037 23.7592 1.4337 25.1692 4.2937 25.1692ZM4.3237 22.9692C2.9537 22.9692 2.2037 22.2392 2.2037 20.8192V4.3592C2.2037 2.9392 2.9537 2.1992 4.3237 2.1992H20.8537C22.2037 2.1992 22.9737 2.9392 22.9737 4.3592V20.8192C22.9737 22.2392 22.2037 22.9692 20.8537 22.9692ZM6.1137 13.7292C6.1137 13.9692 6.3137 14.1792 6.5637 14.1792H8.1337C8.7737 17.0392 11.1037 18.5892 14.2637 18.5892C14.6437 18.5892 15.1237 18.5692 15.5037 18.4892C15.9137 18.3792 16.2237 18.1792 16.2237 17.7692C16.2237 17.3392 15.9437 17.1292 15.5037 17.1292C15.0537 17.1292 14.8937 17.1892 14.3437 17.1892C12.0037 17.1892 10.3737 16.1192 9.8137 14.1792H14.1237C14.3737 14.1792 14.5737 13.9692 14.5737 13.7292C14.5737 13.4692 14.3737 13.2592 14.1237 13.2592H9.6437C9.6137 13.0292 9.5937 12.7792 9.5937 12.5192C9.5937 12.2392 9.6137 11.9792 9.6537 11.7192H14.1237C14.3737 11.7192 14.5737 11.5092 14.5737 11.2692C14.5737 11.0192 14.3737 10.8192 14.1237 10.8192H9.8337C10.3737 8.9092 11.9337 7.8292 14.3037 7.8292C14.7937 7.8292 15.2137 7.8892 15.5037 7.8892C15.9437 7.8892 16.2237 7.6692 16.2237 7.2292C16.2237 6.8592 15.9937 6.6292 15.5037 6.5092C15.1737 6.4392 14.7337 6.3992 14.2637 6.3992C11.3437 6.3992 8.8137 7.8192 8.1337 10.8192H6.5637C6.3137 10.8192 6.1137 11.0192 6.1137 11.2692C6.1137 11.5092 6.3137 11.7192 6.5637 11.7192H7.9937C7.9737 11.9792 7.9537 12.2392 7.9537 12.5092C7.9537 12.7692 7.9737 13.0192 7.9937 13.2592H6.5637C6.3137 13.2592 6.1137 13.4692 6.1137 13.7292Z"
        fillRule="evenodd"
        clipRule="evenodd"
    />
</svg>
        