<svg viewBox="0 0 30.529296875 29.17578125" xmlns="http://www.w3.org/2000/svg"><path d="M1.0937 29.179H29.4237C30.0237 29.179 30.5337 28.669 30.5337 28.069C30.5337 27.469 30.0237 26.979 29.4237 26.979H28.7137V25.979C28.7137 25.429 28.3937 25.099 27.8337 25.099H26.9637V9.379H28.1637C28.9137 9.379 29.3537 8.829 29.3537 8.269C29.3537 7.859 29.1237 7.509 28.6137 7.219L16.9437 0.479C16.3937 0.169 15.8137 -0.001 15.2537 -0.001C14.6937 -0.001 14.1137 0.169 13.5937 0.479L1.9137 7.219C1.3937 7.509 1.1737 7.859 1.1737 8.269C1.1737 8.829 1.6137 9.379 2.3637 9.379H3.5637V25.099H2.7037C2.1437 25.099 1.8137 25.429 1.8137 25.979V26.979H1.0937C0.4937 26.979 0.0037 27.469 0.0037 28.069C0.0037 28.669 0.4937 29.179 1.0937 29.179ZM9.5937 20.839C9.1037 20.839 8.8737 20.549 8.8737 20.059V11.179C8.8737 10.709 9.1237 10.419 9.5937 10.419H13.6537C14.0837 10.419 14.3237 10.639 14.3237 11.049C14.3237 11.439 14.0837 11.689 13.6537 11.689H10.3537V14.919H13.5237C13.8737 14.919 14.1337 15.149 14.1337 15.519C14.1337 15.889 13.8737 16.129 13.5237 16.129H10.3537V19.549H13.6537C14.0837 19.549 14.3237 19.799 14.3237 20.189C14.3237 20.599 14.0837 20.839 13.6537 20.839ZM16.5837 20.839C16.1837 20.839 15.8337 20.589 15.8337 20.109C15.8337 19.879 15.9137 19.669 16.0237 19.469L20.3737 11.759V11.689H16.5337C16.1437 11.689 15.8637 11.429 15.8637 11.049C15.8637 10.649 16.1437 10.419 16.5337 10.419H21.3037C21.7937 10.419 22.0537 10.749 22.0537 11.139C22.0537 11.389 21.9537 11.589 21.8337 11.799L17.5437 19.479V19.549H21.5837C21.9537 19.549 22.1937 19.829 22.1937 20.189C22.1937 20.579 21.9537 20.839 21.5837 20.839Z" /></svg>