
<svg
    viewBox={0 0 32.935546875 27.26189615322232}
    xmlns="http://www.w3.org/2000/svg"
>
    <path
        fill="inherit"
        d="M32.9327 16.3992C32.9327 7.7792 26.3227 0.7192 17.8927 -0.0008C17.4627 -0.0408 17.1327 0.2792 17.1327 0.7192V5.1892C17.1327 5.5592 17.3927 5.8392 17.7627 5.8692C22.9927 6.5092 27.0727 10.9792 27.0727 16.3992C27.0727 18.8592 26.2227 21.1292 24.7327 23.0292C24.5427 23.2592 24.5527 23.5592 24.7627 23.7792L28.0227 27.0292C28.3327 27.3292 28.7927 27.3292 29.0627 27.0092C31.4827 24.1392 32.9327 20.4292 32.9327 16.3992ZM0.0027 16.3992C0.0027 20.4392 1.4527 24.1492 3.8727 27.0192C4.1427 27.3492 4.5927 27.3292 4.9127 27.0292L8.1727 23.7792C8.3827 23.5592 8.3927 23.2592 8.2027 23.0292C6.7027 21.1292 5.8627 18.8592 5.8627 16.3992C5.8627 10.9792 9.9427 6.5092 15.1727 5.8692C15.5427 5.8392 15.8027 5.5592 15.8027 5.1892V0.7192C15.8027 0.2792 15.4727 -0.0408 15.0427 -0.0008C6.6127 0.7192 0.0027 7.7792 0.0027 16.3992ZM9.9627 17.7192C9.9627 17.9692 10.1727 18.1692 10.4227 18.1692H11.9927C12.6327 21.0292 14.9727 22.5892 18.1327 22.5892C18.5127 22.5892 18.9727 22.5792 19.3627 22.4892C19.7727 22.3892 20.0927 22.1792 20.0927 21.7692C20.0927 21.3292 19.7927 21.1292 19.3627 21.1292C18.9127 21.1292 18.7427 21.1792 18.2127 21.1792C15.8627 21.1792 14.2327 20.1292 13.6727 18.1692H17.9827C18.2227 18.1692 18.4327 17.9692 18.4327 17.7192C18.4327 17.4792 18.2227 17.2692 17.9827 17.2692H13.4927C13.4627 17.0292 13.4527 16.7792 13.4527 16.5192C13.4527 16.2492 13.4827 15.9692 13.5127 15.7292H17.9827C18.2227 15.7292 18.4327 15.5192 18.4327 15.2792C18.4327 15.0192 18.2227 14.8092 17.9827 14.8092H13.6827C14.2327 12.9192 15.7927 11.8392 18.1727 11.8392C18.6527 11.8392 19.0727 11.8992 19.3627 11.8992C19.7927 11.8992 20.0927 11.6792 20.0927 11.2392C20.0927 10.8592 19.8527 10.6292 19.3627 10.4992C19.0327 10.4392 18.6027 10.4092 18.1327 10.4092C15.2027 10.4092 12.6727 11.8292 11.9927 14.8092H10.4227C10.1727 14.8092 9.9627 15.0192 9.9627 15.2792C9.9627 15.5192 10.1727 15.7292 10.4227 15.7292H11.8527C11.8227 15.9692 11.8127 16.2292 11.8127 16.5092C11.8127 16.7692 11.8227 17.0292 11.8527 17.2692H10.4227C10.1727 17.2692 9.9627 17.4792 9.9627 17.7192Z"
        fillRule="evenodd"
        clipRule="evenodd"
    />
</svg>
        