<svg viewBox="0 0 30.5703125 30.5703125" xmlns="http://www.w3.org/2000/svg"><path d="M15.2827 30.5663C23.6827 30.5663 30.5727 23.6763 30.5727 15.2863C30.5727 6.8863 23.6827 -0.0038 15.2827 -0.0038C6.8927 -0.0038 0.0027 6.8863 0.0027 15.2863C0.0027 23.6763 6.8927 30.5663 15.2827 30.5663ZM15.2827 25.4862C9.6527 25.4862 5.0827 20.9162 5.0827 15.2863C5.0827 9.6363 9.6527 5.0863 15.2827 5.0863C20.9327 5.0863 25.4827 9.6363 25.4827 15.2863C25.4827 20.9162 20.9327 25.4862 15.2827 25.4862ZM8.8027 16.4363C8.8027 16.6763 9.0127 16.8863 9.2527 16.8863H10.8327C11.4727 19.7463 13.7927 21.2963 16.9527 21.2963C17.3327 21.2963 17.8127 21.2763 18.1927 21.1963C18.6027 21.0863 18.9227 20.8863 18.9227 20.4763C18.9227 20.0463 18.6327 19.8363 18.1927 19.8363C17.7427 19.8363 17.5827 19.8963 17.0327 19.8963C14.6927 19.8963 13.0727 18.8263 12.5127 16.8863H16.8127C17.0627 16.8863 17.2627 16.6763 17.2627 16.4363C17.2627 16.1763 17.0627 15.9663 16.8127 15.9663H12.3327C12.3027 15.7363 12.2927 15.4863 12.2927 15.2263C12.2927 14.9463 12.3027 14.6863 12.3327 14.4263H16.8127C17.0627 14.4263 17.2627 14.2163 17.2627 13.9763C17.2627 13.7263 17.0627 13.5263 16.8127 13.5263H12.5227C13.0727 11.6163 14.6327 10.5363 16.9927 10.5363C17.4827 10.5363 17.9127 10.5963 18.1927 10.5963C18.6327 10.5963 18.9227 10.3763 18.9227 9.9363C18.9227 9.5663 18.6927 9.3363 18.1927 9.2163C17.8727 9.1462 17.4327 9.1063 16.9527 9.1063C14.0427 9.1063 11.5127 10.5262 10.8327 13.5263H9.2527C9.0127 13.5263 8.8027 13.7263 8.8027 13.9763C8.8027 14.2163 9.0127 14.4263 9.2527 14.4263H10.6927C10.6627 14.6863 10.6527 14.9463 10.6527 15.2163C10.6527 15.4763 10.6627 15.7263 10.6927 15.9663H9.2527C9.0127 15.9663 8.8027 16.1763 8.8027 16.4363Z" /></svg>