<svg viewBox="0 0 27.890625 27.890625" xmlns="http://www.w3.org/2000/svg"><path d="M13.9427 27.8864C21.6427 27.8864 27.8927 21.6264 27.8927 13.9464C27.8927 6.2464 21.6427 -0.0036 13.9427 -0.0036C6.2627 -0.0036 0.0027 6.2464 0.0027 13.9464C0.0027 21.6264 6.2627 27.8864 13.9427 27.8864ZM15.7127 20.1564C12.4527 20.1564 10.0527 18.5564 9.3927 15.5964H7.7627C7.5027 15.5964 7.2827 15.3764 7.2827 15.1364C7.2827 14.8564 7.5027 14.6564 7.7627 14.6564H9.2427C9.2127 14.4064 9.2027 14.1364 9.2027 13.8764C9.2027 13.5864 9.2127 13.3164 9.2427 13.0564H7.7627C7.5027 13.0564 7.2827 12.8564 7.2827 12.5964C7.2827 12.3364 7.5027 12.1264 7.7627 12.1264H9.3927C10.0927 9.0464 12.7027 7.5864 15.7127 7.5864C16.2027 7.5864 16.6427 7.6164 16.9827 7.6864C17.5027 7.8064 17.7427 8.0564 17.7427 8.4364C17.7427 8.8864 17.4427 9.1164 16.9927 9.1164C16.6927 9.1164 16.2527 9.0664 15.7527 9.0664C13.3127 9.0664 11.7127 10.1764 11.1427 12.1264H15.5727C15.8227 12.1264 16.0327 12.3364 16.0327 12.5964C16.0327 12.8564 15.8227 13.0564 15.5727 13.0564H10.9527C10.9127 13.3164 10.9127 13.6064 10.9127 13.8864C10.9127 14.1464 10.9127 14.4064 10.9527 14.6564H15.5727C15.8227 14.6564 16.0327 14.8564 16.0327 15.1364C16.0327 15.3764 15.8227 15.5964 15.5727 15.5964H11.1327C11.7127 17.5964 13.3827 18.7064 15.7927 18.7064C16.3627 18.7064 16.5327 18.6364 16.9927 18.6364C17.4427 18.6364 17.7427 18.8564 17.7427 19.3064C17.7427 19.7264 17.4227 19.9364 16.9827 20.0464C16.5927 20.1264 16.1027 20.1564 15.7127 20.1564Z" /></svg>