
<svg
    viewBox={0 0 20.15234375 24.41796875}
    xmlns="http://www.w3.org/2000/svg"
>
    <path
        fill="inherit"
        d="M0.0037 14.6938C0.0037 15.2138 0.3537 15.5838 0.8737 15.5838H4.2637C5.4937 21.1938 9.9637 24.4138 16.4037 24.4138C17.2037 24.4138 18.1737 24.4038 18.8837 24.2238C19.6337 24.0538 20.1537 23.7038 20.1537 22.9838C20.1537 22.1638 19.6037 21.8337 18.8837 21.8337C18.0837 21.8337 17.7437 21.9738 16.5037 21.9738C11.7337 21.9738 8.2837 19.7238 7.1237 15.5838H15.9837C16.5437 15.5838 16.8837 15.2338 16.8837 14.6938C16.8837 14.1538 16.5437 13.7838 15.9837 13.7838H6.7837C6.7237 13.3038 6.7037 12.7938 6.7037 12.2738V12.1638C6.7037 11.6337 6.7237 11.1138 6.7837 10.6337H15.9837C16.5437 10.6337 16.8837 10.2838 16.8837 9.7438C16.8837 9.2038 16.5437 8.8338 15.9837 8.8338H7.1237C8.2737 4.7838 11.6037 2.5138 16.4237 2.5138C17.2237 2.5138 18.5537 2.6337 18.8837 2.6337C19.6637 2.6337 20.1537 2.2437 20.1537 1.4737C20.1537 0.7538 19.6037 0.3938 18.8837 0.2037C18.1137 0.0138 17.1437 0.0038 16.4237 0.0038C10.2937 0.0038 5.5637 3.0538 4.2637 8.8338H0.8737C0.3537 8.8338 0.0037 9.2038 0.0037 9.7438C0.0037 10.2638 0.3537 10.6238 0.8737 10.6238L3.9937 10.6337C3.9337 11.1438 3.9137 11.6638 3.9137 12.1938V12.2338C3.9137 12.7738 3.9337 13.2938 3.9737 13.7838H0.8737C0.3537 13.7838 0.0037 14.1638 0.0037 14.6938Z"
        fillRule="evenodd"
        clipRule="evenodd"
    />
</svg>
        