<svg viewBox="0 0 35.39306640625 32.2861328125" xmlns="http://www.w3.org/2000/svg"><path d="M23.566 20.3952V13.0052C24.796 13.7552 25.326 14.8352 25.326 16.1052C25.326 17.8852 25.126 19.9752 25.046 21.8752L26.666 23.4852C26.666 23.4052 26.656 23.3152 26.656 23.2252C26.656 21.2152 26.986 18.5552 26.986 16.1052C26.986 13.9052 25.986 12.1852 23.566 11.1652V3.4752C23.566 1.2352 22.346 -0.0048 20.106 -0.0048H8.546C6.796 -0.0048 5.696 0.7552 5.316 2.1452L7.296 4.1252V3.4952C7.296 2.6552 7.706 2.2052 8.586 2.2052H20.066C20.916 2.2052 21.366 2.6352 21.366 3.4952V18.1952ZM29.906 31.9752C30.336 32.3852 31.006 32.3852 31.396 31.9752C31.816 31.5552 31.826 30.8852 31.396 30.4752L1.806 0.9052C1.396 0.4952 0.726 0.4952 0.296 0.9052C-0.104 1.2952 -0.104 1.9952 0.296 2.3952ZM20.036 11.5752V4.3352C20.036 3.8652 19.696 3.5252 19.236 3.5252H9.416C8.956 3.5252 8.606 3.8652 8.606 4.3352V5.4552L15.556 12.3852H19.236C19.696 12.3852 20.036 12.0452 20.036 11.5752ZM30.036 26.8652C31.656 26.3552 32.566 24.8452 32.566 22.5452V13.8252C32.566 12.5952 33.476 12.2652 34.066 11.7952C34.926 11.1552 35.396 10.2352 35.396 9.1752V7.3252C35.396 7.0452 35.226 6.8452 34.966 6.8452H34.096V4.3752C34.096 4.0052 33.796 3.6952 33.396 3.6952C33.046 3.6952 32.716 4.0052 32.716 4.3752V6.8452H30.886V4.3752C30.886 4.0052 30.596 3.6952 30.216 3.6952C29.826 3.6952 29.526 4.0052 29.526 4.3752V6.8452H28.486C28.226 6.8452 28.056 7.0452 28.056 7.3252V9.1752C28.056 10.2352 28.526 11.1552 29.396 11.7952C29.976 12.2652 30.906 12.5952 30.906 13.8252V22.5452C30.906 24.3652 30.106 25.4052 28.726 25.4052H28.586ZM4.016 30.5052H24.636C24.856 30.5052 25.056 30.4152 25.226 30.3152L21.366 26.4552V28.3052H7.286L7.296 11.6252L5.096 9.4352V28.3052H4.016C3.426 28.3052 2.926 28.7752 2.926 29.3852C2.926 29.9952 3.416 30.5052 4.016 30.5052Z" /></svg>