
<svg
    viewBox={0 0 42.591374302326685 30.48828125}
    xmlns="http://www.w3.org/2000/svg"
>
    <path
        fill="inherit"
        d="M0.0037 29.3652C0.0037 29.9852 0.4737 30.4852 1.0837 30.4852H21.1337C21.7337 30.4852 22.2437 29.9852 22.2437 29.3652C22.2437 28.7752 21.7337 28.2852 21.1337 28.2852H20.0837V13.0152C21.3237 13.7552 21.8437 14.8352 21.8437 16.1052C21.8437 18.2952 21.5237 20.9552 21.5237 23.2252C21.5237 25.5752 22.9437 27.0752 25.2237 27.0752C27.6737 27.0752 29.0637 25.4152 29.0637 22.5452V13.8252C29.0637 12.5952 29.9837 12.2652 30.5737 11.7952C31.4437 11.1552 31.9137 10.2352 31.9137 9.1752V7.3252C31.9137 7.0452 31.7337 6.8452 31.4837 6.8452H30.6137V4.3752C30.6137 4.0052 30.2937 3.6952 29.9137 3.6952C29.5437 3.6952 29.2137 4.0052 29.2137 4.3752L29.2337 6.8452H27.3937V4.3752C27.3937 4.0052 27.0937 3.6952 26.7237 3.6952C26.3337 3.6952 26.0337 4.0052 26.0337 4.3752V6.8452H24.9937C24.7337 6.8452 24.5537 7.0452 24.5537 7.3252V9.1752C24.5537 10.2352 25.0337 11.1552 25.8937 11.7952C26.4937 12.2652 27.4137 12.5952 27.4137 13.8252V22.5452C27.4137 24.3652 26.6237 25.4052 25.2237 25.4052C23.9637 25.4052 23.1737 24.5652 23.1737 23.2252C23.1737 21.2152 23.5037 18.5552 23.5037 16.1052C23.5037 13.9052 22.5037 12.1852 20.0837 11.1652V3.4752C20.0837 1.2352 18.8537 -0.0048 16.6237 -0.0048H5.6037C3.3537 -0.0048 2.1637 1.2352 2.1637 3.4752V28.2852H1.0837C0.4937 28.2852 0.0037 28.7652 0.0037 29.3652ZM6.0437 12.3852C5.0537 12.3852 4.4537 11.8352 4.4537 10.9252V3.7852C4.4537 2.8552 5.0537 2.2952 6.0437 2.2952H16.1837C17.1737 2.2952 17.7837 2.8552 17.7837 3.7852V10.9252C17.7837 11.8352 17.1737 12.3852 16.1837 12.3852ZM42.1937 14.5752L35.1637 10.4052C34.6337 10.0852 33.9237 10.3452 33.9237 10.9252V19.5352C33.9237 20.1252 34.5937 20.3952 35.1637 20.0552L42.1937 15.9152C42.7337 15.5952 42.7137 14.8752 42.1937 14.5752Z"
        fillRule="evenodd"
        clipRule="evenodd"
    />
</svg>
        