
<svg
    viewBox={0 0 32.470703125 30.501953125}
    xmlns="http://www.w3.org/2000/svg"
>
    <path
        fill="inherit"
        d="M0.0037 29.3852C0.0037 29.9952 0.4937 30.5052 1.0937 30.5052H21.7137C22.3137 30.5052 22.8037 29.9952 22.8037 29.3852C22.8037 28.7952 22.3137 28.3052 21.7137 28.3052H20.6437V13.0152C21.8937 13.7552 22.4037 14.8352 22.4037 16.1052C22.4037 18.2952 22.0837 20.9552 22.0837 23.2252C22.0837 25.5752 23.5137 27.0752 25.8037 27.0752C28.2337 27.0752 29.6437 25.4152 29.6437 22.5452V13.8252C29.6437 12.5952 30.5537 12.2652 31.1437 11.7952C32.0037 11.1552 32.4737 10.2352 32.4737 9.1752V7.3252C32.4737 7.0452 32.3037 6.8452 32.0437 6.8452H31.1737V4.3752C31.1737 4.0052 30.8737 3.6952 30.4737 3.6952C30.1237 3.6952 29.7937 4.0052 29.7937 4.3752V6.8452H27.9637V4.3752C27.9637 4.0052 27.6737 3.6952 27.2937 3.6952C26.9037 3.6952 26.6037 4.0052 26.6037 4.3752V6.8452H25.5637C25.3037 6.8452 25.1337 7.0452 25.1337 7.3252V9.1752C25.1337 10.2352 25.6037 11.1552 26.4737 11.7952C27.0537 12.2652 27.9837 12.5952 27.9837 13.8252V22.5452C27.9837 24.3652 27.1837 25.4052 25.8037 25.4052C24.5437 25.4052 23.7337 24.5652 23.7337 23.2252C23.7337 21.2152 24.0637 18.5552 24.0637 16.1052C24.0637 13.9052 23.0637 12.1852 20.6437 11.1652V3.4752C20.6437 1.2352 19.4237 -0.0048 17.1837 -0.0048H5.6237C3.3637 -0.0048 2.1737 1.2352 2.1737 3.4752V28.3052H1.0937C0.5037 28.3052 0.0037 28.7752 0.0037 29.3852ZM4.3737 3.4952C4.3737 2.6552 4.7837 2.2052 5.6637 2.2052H17.1437C17.9937 2.2052 18.4437 2.6352 18.4437 3.4952V28.3052H4.3637ZM6.4937 12.3852H16.3137C16.7737 12.3852 17.1137 12.0452 17.1137 11.5752V4.3352C17.1137 3.8652 16.7737 3.5252 16.3137 3.5252H6.4937C6.0337 3.5252 5.6837 3.8652 5.6837 4.3352V11.5752C5.6837 12.0452 6.0337 12.3852 6.4937 12.3852Z"
        fillRule="evenodd"
        clipRule="evenodd"
    />
</svg>
        