
<svg
    viewBox={0 0 41.825749302326685 30.48828125}
    xmlns="http://www.w3.org/2000/svg"
>
    <path
        fill="inherit"
        d="M9.9272 29.3652C9.9272 29.9852 10.4072 30.4852 11.0072 30.4852H31.0672C31.6672 30.4852 32.1772 29.9852 32.1772 29.3652C32.1772 28.7752 31.6672 28.2852 31.0672 28.2852H30.0172V13.0152C31.2472 13.7552 31.7772 14.8352 31.7772 16.1052C31.7772 18.2952 31.4472 20.9552 31.4472 23.2252C31.4472 25.5752 32.8672 27.0752 35.1572 27.0752C37.5872 27.0752 38.9972 25.4152 38.9972 22.5452V13.8252C38.9972 12.5952 39.9072 12.2652 40.4972 11.7952C41.3772 11.1552 41.8272 10.2352 41.8272 9.1752V7.3252C41.8272 7.0452 41.6572 6.8452 41.4172 6.8452H40.5372V4.3752C40.5372 4.0052 40.2272 3.6952 39.8272 3.6952C39.4772 3.6952 39.1472 4.0052 39.1472 4.3752V6.8452H37.3172L37.3272 4.3752C37.3272 4.0052 37.0272 3.6952 36.6472 3.6952C36.2572 3.6952 35.9572 4.0052 35.9572 4.3752V6.8452H34.9172C34.6572 6.8452 34.4872 7.0452 34.4872 7.3252V9.1752C34.4872 10.2352 34.9672 11.1552 35.8272 11.7952C36.4272 12.2652 37.3372 12.5952 37.3372 13.8252V22.5452C37.3372 24.3652 36.5372 25.4052 35.1572 25.4052C33.8972 25.4052 33.0872 24.5652 33.0872 23.2252C33.0872 21.2152 33.4172 18.5552 33.4172 16.1052C33.4172 13.9052 32.4172 12.1852 30.0172 11.1652V3.4752C30.0172 1.2352 28.7872 -0.0048 26.5372 -0.0048H15.5372C13.2772 -0.0048 12.0872 1.2352 12.0872 3.4752V28.2852H11.0072C10.4172 28.2852 9.9272 28.7652 9.9272 29.3652ZM15.9772 12.3852C14.9772 12.3852 14.3872 11.8352 14.3872 10.9252V3.7852C14.3872 2.8552 14.9772 2.2952 15.9772 2.2952H26.1072C27.0972 2.2952 27.7172 2.8552 27.7172 3.7852V10.9252C27.7172 11.8352 27.0972 12.3852 26.1072 12.3852ZM0.3972 14.5752C-0.1228 14.8752 -0.1428 15.5952 0.3972 15.9152L7.4272 20.0552C7.9972 20.3952 8.6672 20.1252 8.6672 19.5352V10.9252C8.6672 10.3452 7.9572 10.0852 7.4272 10.4052Z"
        fillRule="evenodd"
        clipRule="evenodd"
    />
</svg>
        