
<svg
    viewBox={0 0 42.386296177326685 30.501953125}
    xmlns="http://www.w3.org/2000/svg"
>
    <path
        fill="inherit"
        d="M9.9172 29.3852C9.9172 29.9952 10.4072 30.5052 11.0072 30.5052H31.6272C32.2272 30.5052 32.7372 29.9952 32.7372 29.3852C32.7372 28.7952 32.2272 28.3052 31.6272 28.3052H30.5772V13.0152C31.8072 13.7552 32.3372 14.8352 32.3372 16.1052C32.3372 18.2952 32.0072 20.9552 32.0072 23.2252C32.0072 25.5752 33.4272 27.0752 35.7172 27.0752C38.1472 27.0752 39.5572 25.4152 39.5572 22.5452V13.8252C39.5572 12.5952 40.4772 12.2652 41.0572 11.7952C41.9372 11.1552 42.3872 10.2352 42.3872 9.1752V7.3252C42.3872 7.0452 42.2272 6.8452 41.9672 6.8452H41.0972V4.3752C41.0972 4.0052 40.7872 3.6952 40.3872 3.6952C40.0372 3.6952 39.7072 4.0052 39.7072 4.3752V6.8452H37.8772L37.8872 4.3752C37.8872 4.0052 37.5872 3.6952 37.2072 3.6952C36.8172 3.6952 36.5172 4.0052 36.5172 4.3752V6.8452H35.4772C35.2272 6.8452 35.0472 7.0452 35.0472 7.3252V9.1752C35.0472 10.2352 35.5272 11.1552 36.3872 11.7952C36.9872 12.2652 37.8972 12.5952 37.8972 13.8252V22.5452C37.8972 24.3652 37.0972 25.4052 35.7172 25.4052C34.4572 25.4052 33.6472 24.5652 33.6472 23.2252C33.6472 21.2152 33.9772 18.5552 33.9772 16.1052C33.9772 13.9052 32.9772 12.1852 30.5772 11.1652V3.4752C30.5772 1.2352 29.3472 -0.0048 27.0972 -0.0048H15.5372C13.2772 -0.0048 12.0872 1.2352 12.0872 3.4752V28.3052H11.0072C10.4172 28.3052 9.9172 28.7752 9.9172 29.3852ZM14.2872 3.4952C14.2872 2.6552 14.6972 2.2052 15.5772 2.2052H27.0572C27.9072 2.2052 28.3572 2.6352 28.3572 3.4952V28.3052H14.2772ZM16.4072 12.3852H26.2272C26.6872 12.3852 27.0372 12.0452 27.0372 11.5752V4.3352C27.0372 3.8652 26.6872 3.5252 26.2272 3.5252H16.4072C15.9472 3.5252 15.6072 3.8652 15.6072 4.3352V11.5752C15.6072 12.0452 15.9472 12.3852 16.4072 12.3852ZM0.3972 14.5752C-0.1228 14.8752 -0.1428 15.5952 0.3972 15.9152L7.4272 20.0552C7.9972 20.3952 8.6672 20.1252 8.6672 19.5352V10.9252C8.6672 10.3452 7.9572 10.0852 7.4272 10.4052Z"
        fillRule="evenodd"
        clipRule="evenodd"
    />
</svg>
        