
<svg
    viewBox={0 0 34.83251953125 32.2861328125}
    xmlns="http://www.w3.org/2000/svg"
>
    <path
        fill="inherit"
        d="M23.006 19.8352V13.0052C24.236 13.7552 24.766 14.8352 24.766 16.1052C24.766 17.7152 24.596 19.6152 24.496 21.3452L26.106 22.9452C26.126 20.9052 26.426 18.3852 26.426 16.1052C26.426 13.9052 25.426 12.1852 23.006 11.1652V3.4752C23.006 1.2352 21.776 -0.0048 19.546 -0.0048H8.546C6.796 -0.0048 5.696 0.7552 5.316 2.1552L7.376 4.2252V3.7852C7.376 2.8552 7.976 2.2952 8.976 2.2952H19.106C20.106 2.2952 20.706 2.8552 20.706 3.7852V10.9252C20.706 11.8352 20.106 12.3852 19.106 12.3852H15.556ZM29.906 31.9752C30.336 32.3852 31.006 32.3852 31.396 31.9752C31.816 31.5552 31.826 30.8852 31.396 30.4752L1.806 0.9052C1.396 0.4952 0.726 0.4952 0.296 0.9052C-0.104 1.2952 -0.104 1.9952 0.296 2.3952ZM29.856 26.7052C31.226 26.0852 31.986 24.6352 31.986 22.5452V13.8252C31.986 12.5952 32.916 12.2652 33.496 11.7952C34.366 11.1552 34.836 10.2352 34.836 9.1752V7.3252C34.836 7.0452 34.656 6.8452 34.406 6.8452H33.536V4.3752C33.536 4.0052 33.216 3.6952 32.836 3.6952C32.466 3.6952 32.156 4.0052 32.156 4.3752V6.8452H30.316V4.3752C30.316 4.0052 30.016 3.6952 29.646 3.6952C29.256 3.6952 28.966 4.0052 28.966 4.3752V6.8452H27.926C27.656 6.8452 27.486 7.0452 27.486 7.3252V9.1752C27.486 10.2352 27.966 11.1552 28.816 11.7952C29.416 12.2652 30.336 12.5952 30.336 13.8252V22.5452C30.336 24.1752 29.696 25.1852 28.526 25.3652ZM4.006 30.4852H24.266C24.636 30.4852 24.976 30.2652 25.166 29.9652L5.096 9.9252V28.2852H4.006C3.426 28.2852 2.926 28.7652 2.926 29.3652C2.926 29.9852 3.416 30.4852 4.006 30.4852Z"
        fillRule="evenodd"
        clipRule="evenodd"
    />
</svg>
        