<svg viewBox="0 0 23.365234375 34.822265625" xmlns="http://www.w3.org/2000/svg"><path d="M11.7027 20.1491C17.2027 20.1491 21.7627 15.5691 21.7627 10.0791C21.7627 4.5791 17.1827 -0.0009 11.6727 -0.0009C6.1827 -0.0009 1.6227 4.5791 1.6227 10.0791C1.6227 15.5691 6.2027 20.1491 11.7027 20.1491ZM8.0827 9.2991C6.7827 9.2991 5.7527 8.2691 5.7527 6.9891C5.7527 5.6891 6.7827 4.6591 8.0827 4.6591C9.3627 4.6591 10.3927 5.6891 10.3927 6.9891C10.3927 8.2691 9.3627 9.2991 8.0827 9.2991ZM15.2827 9.2991C14.0027 9.2991 12.9727 8.2691 12.9727 6.9891C12.9727 5.6891 14.0027 4.6591 15.2827 4.6591C16.5827 4.6591 17.6127 5.6891 17.6127 6.9891C17.6127 8.2691 16.5827 9.2991 15.2827 9.2991ZM6.7627 14.0391C5.8627 14.0391 5.1527 13.3191 5.1527 12.4091C5.1527 11.5091 5.8627 10.7891 6.7627 10.7891C7.6727 10.7891 8.3927 11.5091 8.3927 12.4091C8.3927 13.3191 7.6727 14.0391 6.7627 14.0391ZM16.5927 14.0391C15.6927 14.0391 14.9727 13.3191 14.9727 12.4091C14.9727 11.5091 15.6927 10.7891 16.5927 10.7891C17.5027 10.7891 18.2127 11.5091 18.2127 12.4091C18.2127 13.3191 17.5027 14.0391 16.5927 14.0391ZM11.6727 17.4191C10.3927 17.4191 9.3627 16.3891 9.3627 15.0891C9.3627 13.8091 10.3927 12.7791 11.6727 12.7791C12.9727 12.7791 14.0027 13.8091 14.0027 15.0891C14.0027 16.3891 12.9727 17.4191 11.6727 17.4191ZM6.9327 34.8191H16.4227C20.3427 34.8191 23.3627 31.7591 23.3627 27.8791C23.3627 23.9991 20.3427 20.9291 16.4227 20.9291H6.9327C3.0227 20.9291 0.0027 23.9991 0.0027 27.8791C0.0027 31.7591 3.0227 34.8191 6.9327 34.8191ZM6.7627 31.6391C4.6927 31.6391 3.0127 29.9691 3.0127 27.8791C3.0127 25.7891 4.6927 24.0991 6.7627 24.0991C8.8627 24.0991 10.5527 25.7891 10.5527 27.8791C10.5527 29.9691 8.8627 31.6391 6.7627 31.6391ZM16.5827 31.6391C14.4927 31.6391 12.8127 29.9691 12.8127 27.8791C12.8127 25.7891 14.4927 24.0991 16.5827 24.0991C18.6727 24.0991 20.3527 25.7891 20.3527 27.8791C20.3527 29.9691 18.6727 31.6391 16.5827 31.6391Z" /></svg>