
<svg
    viewBox={0 0 27.890625 27.890625}
    xmlns="http://www.w3.org/2000/svg"
>
    <path
        fill="inherit"
        d="M13.9427 27.8864C21.6427 27.8864 27.8927 21.6464 27.8927 13.9464C27.8927 6.2464 21.6427 -0.0036 13.9427 -0.0036C6.2527 -0.0036 0.0027 6.2464 0.0027 13.9464C0.0027 21.6464 6.2527 27.8864 13.9427 27.8864ZM13.9427 25.5664C7.5227 25.5664 2.3227 20.3664 2.3227 13.9464C2.3227 7.5164 7.5227 2.3264 13.9427 2.3264C20.3727 2.3264 25.5627 7.5164 25.5627 13.9464C25.5627 20.3664 20.3727 25.5664 13.9427 25.5664ZM11.8827 8.9364C12.1227 9.1864 12.5127 9.1864 12.7727 8.9364L13.9327 7.7664L15.1027 8.9364C15.3527 9.1864 15.7327 9.1864 15.9827 8.9364C16.2427 8.6964 16.2427 8.3164 15.9827 8.0564L14.8227 6.8764L15.9827 5.7164C16.2427 5.4564 16.2427 5.0764 15.9827 4.8264C15.7327 4.5664 15.3627 4.5664 15.1027 4.8264L13.9327 6.0064L12.7727 4.8264C12.4927 4.5664 12.1227 4.5664 11.8827 4.8264C11.6327 5.0764 11.6327 5.4664 11.8827 5.7164L13.0427 6.8764L11.8827 8.0564C11.6327 8.2964 11.6327 8.6964 11.8827 8.9364ZM8.6727 17.9964C10.8927 17.9964 12.7127 16.1864 12.7127 13.9464C12.7127 11.7064 10.8927 9.8964 8.6727 9.8964C6.4227 9.8964 4.6027 11.7064 4.6027 13.9464C4.6027 16.1864 6.4227 17.9964 8.6727 17.9964ZM19.2327 17.9964C21.4627 17.9964 23.2827 16.1864 23.2827 13.9464C23.2827 11.7064 21.4627 9.8964 19.2327 9.8964C16.9927 9.8964 15.1727 11.7064 15.1727 13.9464C15.1727 16.1864 16.9927 17.9964 19.2327 17.9964ZM11.8827 23.0464C12.1227 23.3064 12.5127 23.2964 12.7727 23.0464L13.9327 21.8764L15.1027 23.0464C15.3527 23.2964 15.7327 23.3064 15.9827 23.0464C16.2427 22.8064 16.2327 22.4064 15.9827 22.1664L14.8227 20.9964L15.9827 19.8264C16.2327 19.5764 16.2427 19.1964 15.9827 18.9364C15.7327 18.6764 15.3527 18.6864 15.1027 18.9364L13.9327 20.1064L12.7727 18.9364C12.5127 18.6864 12.1227 18.6764 11.8827 18.9364C11.6227 19.1964 11.6327 19.5764 11.8827 19.8264L13.0427 20.9964L11.8827 22.1664C11.6327 22.4064 11.6227 22.8064 11.8827 23.0464Z"
        fillRule="evenodd"
        clipRule="evenodd"
    />
</svg>
        