
<svg
    viewBox="0 0 23.365234375 34.822265625"
    xmlns="http://www.w3.org/2000/svg"
>
    <path
        fill="inherit"
        d="M11.7027 20.1491C17.2027 20.1491 21.7627 15.5691 21.7627 10.0791C21.7627 4.5791 17.1827 -0.0009 11.6727 -0.0009C6.1827 -0.0009 1.6227 4.5791 1.6227 10.0791C1.6227 15.5691 6.2027 20.1491 11.7027 20.1491ZM11.7027 18.1591C7.1927 18.1591 3.6327 14.5891 3.6327 10.0791C3.6327 5.5791 7.1927 1.9991 11.6727 1.9991C16.1827 1.9991 19.7727 5.5791 19.7727 10.0791C19.7727 14.5891 16.2027 18.1591 11.7027 18.1591ZM8.1927 9.3491C9.4327 9.3491 10.4327 8.3491 10.4327 7.1091C10.4327 5.8491 9.4327 4.8491 8.1927 4.8491C6.9327 4.8491 5.9327 5.8491 5.9327 7.1091C5.9327 8.3491 6.9327 9.3491 8.1927 9.3491ZM15.1727 9.3491C16.4327 9.3491 17.4327 8.3491 17.4327 7.1091C17.4327 5.8491 16.4327 4.8491 15.1727 4.8491C13.9327 4.8491 12.9327 5.8491 12.9327 7.1091C12.9327 8.3491 13.9327 9.3491 15.1727 9.3491ZM6.9227 13.9491C7.7927 13.9491 8.4927 13.2491 8.4927 12.3691C8.4927 11.4991 7.7927 10.7991 6.9227 10.7991C6.0427 10.7991 5.3427 11.4991 5.3427 12.3691C5.3427 13.2491 6.0427 13.9491 6.9227 13.9491ZM16.4427 13.9491C17.3227 13.9491 18.0227 13.2491 18.0227 12.3691C18.0227 11.4991 17.3227 10.7991 16.4427 10.7991C15.5727 10.7991 14.8727 11.4991 14.8727 12.3691C14.8727 13.2491 15.5727 13.9491 16.4427 13.9491ZM11.6727 17.2291C12.9327 17.2291 13.9327 16.2291 13.9327 14.9691C13.9327 13.7291 12.9327 12.7291 11.6727 12.7291C10.4327 12.7291 9.4327 13.7291 9.4327 14.9691C9.4327 16.2291 10.4327 17.2291 11.6727 17.2291ZM6.9327 34.8191H16.4227C20.3427 34.8191 23.3627 31.7591 23.3627 27.8791C23.3627 23.9991 20.3427 20.9291 16.4227 20.9291H6.9327C3.0227 20.9291 0.0027 23.9991 0.0027 27.8791C0.0027 31.7591 3.0227 34.8191 6.9327 34.8191ZM6.9327 32.8291C4.1327 32.8291 1.9727 30.6791 1.9727 27.8791C1.9727 25.0791 4.1327 22.9291 6.9327 22.9291H16.4227C19.2327 22.9291 21.3927 25.0791 21.3927 27.8791C21.3927 30.6791 19.2327 32.8291 16.4227 32.8291ZM6.9227 31.5291C8.9427 31.5291 10.5827 29.8991 10.5827 27.8791C10.5827 25.8491 8.9427 24.2091 6.9227 24.2091C4.8927 24.2091 3.2627 25.8491 3.2627 27.8791C3.2627 29.8991 4.8927 31.5291 6.9227 31.5291ZM16.4327 31.5291C18.4727 31.5291 20.0927 29.8991 20.0927 27.8791C20.0927 25.8491 18.4727 24.2091 16.4327 24.2091C14.4127 24.2091 12.7827 25.8491 12.7827 27.8791C12.7827 29.8991 14.4127 31.5291 16.4327 31.5291Z"
        fillRule="evenodd"
        clipRule="evenodd"
    />
</svg>
        