<svg viewBox="0 0 30.92578125 29.326171875" xmlns="http://www.w3.org/2000/svg"><path d="M15.4627 29.331C23.9927 29.331 30.9227 22.391 30.9227 13.861C30.9227 8.171 27.8527 3.211 23.5027 0.681C22.7127 0.221 21.9027 0.001 20.9727 0.001H9.9527C9.0227 0.001 8.2127 0.221 7.4227 0.681C3.0727 3.211 0.0027 8.171 0.0027 13.861C0.0027 22.391 6.9327 29.331 15.4627 29.331ZM15.4627 26.991C8.1327 26.991 2.3427 21.201 2.3427 13.861C2.3427 9.091 4.8027 4.981 8.5027 2.721C8.9427 2.451 9.4027 2.341 9.9527 2.341H20.9727C21.5227 2.341 21.9827 2.451 22.4227 2.721C26.1427 4.981 28.5927 9.091 28.5927 13.861C28.5927 21.201 22.7927 26.991 15.4627 26.991ZM11.0227 8.301C12.0427 8.301 12.8827 7.481 12.8827 6.451C12.8827 5.431 12.0427 4.591 11.0227 4.591C10.0127 4.591 9.1727 5.431 9.1727 6.451C9.1727 7.481 10.0127 8.301 11.0227 8.301ZM15.4627 8.301C16.4927 8.301 17.3127 7.481 17.3127 6.451C17.3127 5.431 16.4927 4.591 15.4627 4.591C14.4327 4.591 13.6127 5.431 13.6127 6.451C13.6127 7.481 14.4327 8.301 15.4627 8.301ZM19.9027 8.301C20.9327 8.301 21.7527 7.481 21.7527 6.451C21.7527 5.431 20.9327 4.591 19.9027 4.591C18.8827 4.591 18.0427 5.431 18.0427 6.451C18.0427 7.481 18.8827 8.301 19.9027 8.301ZM15.4627 12.741C16.4927 12.741 17.3127 11.911 17.3127 10.901C17.3127 9.871 16.4927 9.041 15.4627 9.041C14.4327 9.041 13.6127 9.871 13.6127 10.901C13.6127 11.911 14.4327 12.741 15.4627 12.741ZM8.6727 17.921C10.8927 17.921 12.7127 16.101 12.7127 13.861C12.7127 11.631 10.8927 9.821 8.6727 9.821C6.4227 9.821 4.6027 11.631 4.6027 13.861C4.6027 16.101 6.4227 17.921 8.6727 17.921ZM22.2627 17.921C24.5027 17.921 26.3227 16.101 26.3227 13.861C26.3227 11.631 24.5027 9.821 22.2627 9.821C20.0327 9.821 18.2127 11.631 18.2127 13.861C18.2127 16.101 20.0327 17.921 22.2627 17.921ZM15.4627 24.161C17.0227 24.161 18.3027 22.871 18.3027 21.311C18.3027 19.751 17.0227 18.471 15.4627 18.471C13.9027 18.471 12.6227 19.751 12.6227 21.311C12.6227 22.871 13.9027 24.161 15.4627 24.161ZM9.7027 22.981C10.6327 22.981 11.3927 22.231 11.3927 21.311C11.3927 20.401 10.6327 19.631 9.7027 19.631C8.7927 19.631 8.0427 20.401 8.0427 21.311C8.0427 22.231 8.7927 22.981 9.7027 22.981ZM21.2227 22.981C22.1327 22.981 22.8827 22.231 22.8827 21.311C22.8827 20.401 22.1327 19.631 21.2227 19.631C20.2927 19.631 19.5327 20.401 19.5327 21.311C19.5327 22.231 20.2927 22.981 21.2227 22.981Z" /></svg>