
<svg
    viewBox={0 0 28.560546875 25.142578125}
    xmlns="http://www.w3.org/2000/svg"
>
    <path
        fill="inherit"
        d="M14.2727 25.1392C22.2727 25.1392 28.5627 18.8692 28.5627 11.3292C28.5627 7.3592 26.8127 3.7592 24.3327 1.4092C23.2927 0.4392 22.1627 -0.0008 20.6127 -0.0008H7.9327C6.4027 -0.0008 5.2627 0.4392 4.2227 1.4092C1.7327 3.7592 0.0027 7.3592 0.0027 11.3292C0.0027 18.8692 6.2927 25.1392 14.2727 25.1392ZM10.5727 8.0292C9.3127 8.0292 8.3027 6.9992 8.3027 5.7692C8.3027 4.5092 9.3127 3.4992 10.5727 3.4992C11.8127 3.4992 12.8227 4.5092 12.8227 5.7692C12.8227 6.9992 11.8127 8.0292 10.5727 8.0292ZM17.9927 8.0292C16.7327 8.0292 15.7227 6.9992 15.7227 5.7692C15.7227 4.5092 16.7327 3.4992 17.9927 3.4992C19.2527 3.4992 20.2627 4.5092 20.2627 5.7692C20.2627 6.9992 19.2527 8.0292 17.9927 8.0292ZM6.8527 14.4792C5.0827 14.4792 3.6827 13.0592 3.6827 11.3092C3.6827 9.5592 5.0827 8.1392 6.8527 8.1392C8.5827 8.1392 10.0127 9.5592 10.0127 11.3092C10.0127 13.0592 8.5827 14.4792 6.8527 14.4792ZM14.2727 14.4792C12.5227 14.4792 11.1127 13.0592 11.1127 11.3092C11.1127 9.5592 12.5227 8.1392 14.2727 8.1392C16.0327 8.1392 17.4427 9.5592 17.4427 11.3092C17.4427 13.0592 16.0327 14.4792 14.2727 14.4792ZM21.7127 14.4792C19.9727 14.4792 18.5427 13.0592 18.5427 11.3092C18.5427 9.5592 19.9727 8.1392 21.7127 8.1392C23.4627 8.1392 24.8827 9.5592 24.8827 11.3092C24.8827 13.0592 23.4627 14.4792 21.7127 14.4792ZM10.5527 20.9992C8.8027 20.9992 7.3927 19.5792 7.3927 17.8292C7.3927 16.0792 8.8027 14.6592 10.5527 14.6592C12.3227 14.6592 13.7227 16.0792 13.7227 17.8292C13.7227 19.5792 12.3227 20.9992 10.5527 20.9992ZM17.9927 20.9992C16.2427 20.9992 14.8227 19.5792 14.8227 17.8292C14.8227 16.0792 16.2427 14.6592 17.9927 14.6592C19.7527 14.6592 21.1627 16.0792 21.1627 17.8292C21.1627 19.5792 19.7527 20.9992 17.9927 20.9992Z"
        fillRule="evenodd"
        clipRule="evenodd"
    />
</svg>
        