
<svg
    viewBox={0 0 30.92578125 26.66015625}
    xmlns="http://www.w3.org/2000/svg"
>
    <path
        fill="inherit"
        d="M15.4627 14.9012C20.5927 14.9012 25.1927 16.8012 28.6427 20.0012C30.0927 17.7312 30.9227 14.9712 30.9227 11.8712C30.9227 10.1712 30.7527 8.7112 30.3927 7.4212C30.0227 10.3212 27.5527 12.5612 24.5127 12.5612C21.1927 12.5612 18.5427 9.9012 18.5427 6.5912C18.5427 3.7612 20.4827 1.3912 23.1027 0.7612C21.0427 0.2312 18.5127 0.0012 15.4627 0.0012C12.4027 0.0012 9.8727 0.2312 7.8027 0.7612C10.4327 1.3912 12.3827 3.7612 12.3827 6.5912C12.3827 9.9012 9.7227 12.5612 6.4127 12.5612C3.3727 12.5612 0.9027 10.3212 0.5227 7.4212C0.1827 8.7112 0.0027 10.1712 0.0027 11.8712C0.0027 14.9712 0.8327 17.7312 2.2727 20.0012C5.7327 16.8012 10.3227 14.9012 15.4627 14.9012ZM6.4127 11.3212C9.0327 11.3212 11.1427 9.2112 11.1427 6.5912C11.1427 3.9612 9.0327 1.8412 6.4127 1.8412C3.7827 1.8412 1.6827 3.9612 1.6827 6.5912C1.6827 9.2112 3.7827 11.3212 6.4127 11.3212ZM24.5127 11.3212C27.1427 11.3212 29.2427 9.2112 29.2427 6.5912C29.2427 3.9612 27.1427 1.8412 24.5127 1.8412C21.8927 1.8412 19.7827 3.9612 19.7827 6.5912C19.7827 9.2112 21.8927 11.3212 24.5127 11.3212ZM6.4127 9.3812C4.8627 9.3812 3.6227 8.1312 3.6227 6.5912C3.6227 5.0412 4.8627 3.8012 6.4127 3.8012C7.9527 3.8012 9.2027 5.0412 9.2027 6.5912C9.2027 8.1312 7.9527 9.3812 6.4127 9.3812ZM24.5127 9.3812C22.9727 9.3812 21.7227 8.1312 21.7227 6.5912C21.7227 5.0412 22.9727 3.8012 24.5127 3.8012C26.0627 3.8012 27.3027 5.0412 27.3027 6.5912C27.3027 8.1312 26.0627 9.3812 24.5127 9.3812ZM6.4127 7.8212C7.0927 7.8212 7.6427 7.2712 7.6427 6.5912C7.6427 5.9112 7.0927 5.3612 6.4127 5.3612C5.7327 5.3612 5.1827 5.9112 5.1827 6.5912C5.1827 7.2712 5.7327 7.8212 6.4127 7.8212ZM24.5127 7.8212C25.1927 7.8212 25.7427 7.2712 25.7427 6.5912C25.7427 5.9112 25.1927 5.3612 24.5127 5.3612C23.8327 5.3612 23.2827 5.9112 23.2827 6.5912C23.2827 7.2712 23.8327 7.8212 24.5127 7.8212ZM15.4627 26.6612C20.7527 26.6612 25.1727 24.5512 27.9227 21.0512C24.6327 17.9212 20.3527 16.1512 15.4627 16.1512C10.5527 16.1512 6.2727 17.9212 2.9927 21.0412C5.7327 24.5512 10.1627 26.6612 15.4627 26.6612ZM15.4627 23.0612C14.3127 23.0612 13.3727 22.1212 13.3727 20.9712C13.3727 19.8212 14.3127 18.8812 15.4627 18.8812C16.6127 18.8812 17.5527 19.8212 17.5527 20.9712C17.5527 22.1212 16.6127 23.0612 15.4627 23.0612ZM9.3427 22.1912C8.6527 22.1912 8.1027 21.6612 8.1027 20.9712C8.1027 20.2912 8.6527 19.7512 9.3427 19.7512C10.0227 19.7512 10.5527 20.2912 10.5527 20.9712C10.5527 21.6612 10.0227 22.1912 9.3427 22.1912ZM21.5927 22.1912C20.9027 22.1912 20.3727 21.6612 20.3727 20.9712C20.3727 20.2912 20.9027 19.7512 21.5927 19.7512C22.2727 19.7512 22.8027 20.2912 22.8027 20.9712C22.8027 21.6612 22.2727 22.1912 21.5927 22.1912Z"
        fillRule="evenodd"
        clipRule="evenodd"
    />
</svg>
        