
<svg
    viewBox={0 0 27.890625 27.890625}
    xmlns="http://www.w3.org/2000/svg"
>
    <path
        fill="inherit"
        d="M13.9427 27.8864C21.6427 27.8864 27.8927 21.6264 27.8927 13.9464C27.8927 6.2464 21.6427 -0.0036 13.9427 -0.0036C6.2627 -0.0036 0.0027 6.2464 0.0027 13.9464C0.0027 21.6264 6.2627 27.8864 13.9427 27.8864ZM8.9327 12.7964C7.1827 12.7964 5.7527 11.3864 5.7527 9.6364C5.7527 7.8864 7.1827 6.4664 8.9327 6.4664C10.6927 6.4664 12.1027 7.8864 12.1027 9.6364C12.1027 11.3864 10.6927 12.7964 8.9327 12.7964ZM18.9327 12.7964C17.1827 12.7964 15.7627 11.3864 15.7627 9.6364C15.7627 7.8864 17.1827 6.4664 18.9327 6.4664C20.6827 6.4664 22.1027 7.8864 22.1027 9.6364C22.1027 11.3864 20.6827 12.7964 18.9327 12.7964ZM6.8127 19.7164C5.5827 19.7164 4.5527 18.6764 4.5527 17.4464C4.5527 16.1864 5.5827 15.1764 6.8127 15.1764C8.0627 15.1764 9.0827 16.1864 9.0827 17.4464C9.0827 18.6764 8.0627 19.7164 6.8127 19.7164ZM21.0527 19.7164C19.7927 19.7164 18.7827 18.6764 18.7827 17.4464C18.7827 16.1864 19.7927 15.1764 21.0527 15.1764C22.3027 15.1764 23.3227 16.1864 23.3227 17.4464C23.3227 18.6764 22.3027 19.7164 21.0527 19.7164ZM13.9327 24.1764C12.1827 24.1764 10.7627 22.7464 10.7627 20.9964C10.7627 19.2664 12.1827 17.8264 13.9327 17.8264C15.6827 17.8264 17.1027 19.2664 17.1027 20.9964C17.1027 22.7464 15.6827 24.1764 13.9327 24.1764Z"
        fillRule="evenodd"
        clipRule="evenodd"
    />
</svg>
        