
<svg
    viewBox="0 0 30.92578125 29.326171875"
    xmlns="http://www.w3.org/2000/svg"
>
    <path
        fill="inherit"
        d="M15.4627 29.331C23.9927 29.331 30.9227 22.391 30.9227 13.861C30.9227 8.171 27.8527 3.211 23.5027 0.681C22.7127 0.221 21.9027 0.001 20.9727 0.001H9.9527C9.0227 0.001 8.2127 0.221 7.4227 0.681C3.0727 3.211 0.0027 8.171 0.0027 13.861C0.0027 22.391 6.9327 29.331 15.4627 29.331ZM10.8827 8.111C9.8427 8.111 8.9827 7.261 8.9827 6.211C8.9827 5.151 9.8427 4.291 10.8827 4.291C11.9327 4.291 12.7927 5.151 12.7927 6.211C12.7927 7.261 11.9327 8.111 10.8827 8.111ZM15.4627 8.111C14.4127 8.111 13.5627 7.261 13.5627 6.211C13.5627 5.151 14.4127 4.291 15.4627 4.291C16.5127 4.291 17.3627 5.151 17.3627 6.211C17.3627 7.261 16.5127 8.111 15.4627 8.111ZM20.0427 8.111C18.9927 8.111 18.1327 7.261 18.1327 6.211C18.1327 5.151 18.9927 4.291 20.0427 4.291C21.0927 4.291 21.9427 5.151 21.9427 6.211C21.9427 7.261 21.0927 8.111 20.0427 8.111ZM15.4627 12.691C14.4127 12.691 13.5627 11.831 13.5627 10.791C13.5627 9.731 14.4127 8.871 15.4627 8.871C16.5127 8.871 17.3627 9.731 17.3627 10.791C17.3627 11.831 16.5127 12.691 15.4627 12.691ZM8.4627 18.031C6.1527 18.031 4.2627 16.161 4.2627 13.851C4.2627 11.551 6.1527 9.681 8.4627 9.681C10.7627 9.681 12.6327 11.551 12.6327 13.851C12.6327 16.161 10.7627 18.031 8.4627 18.031ZM22.4627 18.031C20.1627 18.031 18.2927 16.161 18.2927 13.851C18.2927 11.551 20.1627 9.681 22.4627 9.681C24.7727 9.681 26.6627 11.551 26.6627 13.851C26.6627 16.161 24.7727 18.031 22.4627 18.031ZM15.4627 24.461C13.8527 24.461 12.5327 23.131 12.5327 21.531C12.5327 19.921 13.8527 18.591 15.4627 18.591C17.0727 18.591 18.3927 19.921 18.3927 21.531C18.3927 23.131 17.0727 24.461 15.4627 24.461ZM9.5427 23.251C8.5827 23.251 7.8027 22.481 7.8027 21.531C7.8027 20.591 8.5827 19.801 9.5427 19.801C10.4827 19.801 11.2627 20.591 11.2627 21.531C11.2627 22.481 10.4827 23.251 9.5427 23.251ZM21.3927 23.251C20.4427 23.251 19.6627 22.481 19.6627 21.531C19.6627 20.591 20.4427 19.801 21.3927 19.801C22.3427 19.801 23.1227 20.591 23.1227 21.531C23.1227 22.481 22.3427 23.251 21.3927 23.251Z"
        fillRule="evenodd"
        clipRule="evenodd"
    />
</svg>
        