
<svg
    viewBox={0 0 27.890625 27.890625}
    xmlns="http://www.w3.org/2000/svg"
>
    <path
        fill="inherit"
        d="M13.9427 27.8864C21.6427 27.8864 27.8927 21.6264 27.8927 13.9464C27.8927 6.2464 21.6427 -0.0036 13.9427 -0.0036C6.2627 -0.0036 0.0027 6.2464 0.0027 13.9464C0.0027 21.6264 6.2627 27.8864 13.9427 27.8864ZM11.8127 8.7864C11.5627 8.5264 11.5627 8.1164 11.8127 7.8564L13.0127 6.6564L11.8127 5.4664C11.5627 5.2064 11.5627 4.7964 11.8127 4.5364C12.0727 4.2764 12.4527 4.2764 12.7327 4.5364L13.9327 5.7564L15.1327 4.5364C15.4127 4.2764 15.7927 4.2764 16.0527 4.5364C16.3127 4.7964 16.3127 5.1964 16.0527 5.4664L14.8427 6.6564L16.0527 7.8564C16.3127 8.1364 16.3127 8.5264 16.0527 8.7864C15.7927 9.0364 15.3927 9.0364 15.1327 8.7864L13.9327 7.5764L12.7327 8.7864C12.4727 9.0364 12.0727 9.0364 11.8127 8.7864ZM8.5027 18.1164C6.1927 18.1164 4.3227 16.2564 4.3227 13.9464C4.3227 11.6364 6.1927 9.7764 8.5027 9.7764C10.8027 9.7764 12.6727 11.6364 12.6727 13.9464C12.6727 16.2564 10.8027 18.1164 8.5027 18.1164ZM19.4027 18.1164C17.0927 18.1164 15.2127 16.2564 15.2127 13.9464C15.2127 11.6364 17.0927 9.7764 19.4027 9.7764C21.6927 9.7764 23.5727 11.6364 23.5727 13.9464C23.5727 16.2564 21.6927 18.1164 19.4027 18.1164ZM11.8127 23.3364C11.5527 23.0764 11.5627 22.6664 11.8127 22.4064L13.0127 21.2164L11.8127 20.0164C11.5627 19.7564 11.5527 19.3564 11.8127 19.0864C12.0727 18.8264 12.4727 18.8364 12.7327 19.0864L13.9327 20.3064L15.1327 19.0864C15.3927 18.8364 15.7927 18.8264 16.0527 19.0864C16.3127 19.3564 16.2927 19.7564 16.0527 20.0164L14.8427 21.2164L16.0527 22.4064C16.2927 22.6664 16.3127 23.0764 16.0527 23.3364C15.7927 23.5964 15.3927 23.5864 15.1327 23.3364L13.9327 22.1164L12.7327 23.3364C12.4727 23.5864 12.0727 23.5964 11.8127 23.3364Z"
        fillRule="evenodd"
        clipRule="evenodd"
    />
</svg>
        