
<svg
    viewBox="0 0 23.365234375 33.16796875"
    xmlns="http://www.w3.org/2000/svg"
>
    <path
        fill="inherit"
        d="M11.6927 18.4248C17.5227 18.4248 22.1327 13.8348 22.1327 8.3148C22.1327 5.4248 20.8627 2.7748 19.0427 1.0548C18.2827 0.3248 17.4227 0.0048 16.2727 0.0048H7.0927C5.9627 0.0048 5.1027 0.3248 4.3327 1.0548C2.5027 2.7748 1.2427 5.4248 1.2427 8.3148C1.2427 13.8348 5.8427 18.4248 11.6927 18.4248ZM8.9727 5.8648C8.0627 5.8648 7.3427 5.1548 7.3427 4.2548C7.3427 3.3448 8.0627 2.6248 8.9727 2.6248C9.8727 2.6248 10.5927 3.3448 10.5927 4.2548C10.5927 5.1548 9.8727 5.8648 8.9727 5.8648ZM14.4127 5.8648C13.5127 5.8648 12.7827 5.1548 12.7827 4.2548C12.7827 3.3448 13.5127 2.6248 14.4127 2.6248C15.3027 2.6248 16.0227 3.3448 16.0227 4.2548C16.0227 5.1548 15.3027 5.8648 14.4127 5.8648ZM6.2527 10.6048C4.9627 10.6048 3.9227 9.5748 3.9227 8.2748C3.9227 7.0048 4.9627 5.9648 6.2527 5.9648C7.5327 5.9648 8.5727 7.0048 8.5727 8.2748C8.5727 9.5748 7.5327 10.6048 6.2527 10.6048ZM11.6927 10.6048C10.3927 10.6048 9.3627 9.5748 9.3627 8.2748C9.3627 7.0048 10.3927 5.9648 11.6927 5.9648C12.9727 5.9648 14.0027 7.0048 14.0027 8.2748C14.0027 9.5748 12.9727 10.6048 11.6927 10.6048ZM17.1127 10.6048C15.8327 10.6048 14.8027 9.5748 14.8027 8.2748C14.8027 7.0048 15.8327 5.9648 17.1127 5.9648C18.4127 5.9648 19.4427 7.0048 19.4427 8.2748C19.4427 9.5748 18.4127 10.6048 17.1127 10.6048ZM8.9727 15.2948C7.6827 15.2948 6.6427 14.2748 6.6427 12.9748C6.6427 11.6848 7.6827 10.6648 8.9727 10.6648C10.2527 10.6648 11.2827 11.6848 11.2827 12.9748C11.2827 14.2748 10.2527 15.2948 8.9727 15.2948ZM14.4127 15.2948C13.1127 15.2948 12.0827 14.2748 12.0827 12.9748C12.0827 11.6848 13.1127 10.6648 14.4127 10.6648C15.6927 10.6648 16.7227 11.6848 16.7227 12.9748C16.7227 14.2748 15.6927 15.2948 14.4127 15.2948ZM6.9327 33.1648H16.4227C20.3427 33.1648 23.3627 30.1048 23.3627 26.2248C23.3627 22.3448 20.3427 19.2748 16.4227 19.2748H6.9327C3.0227 19.2748 0.0027 22.3448 0.0027 26.2248C0.0027 30.1048 3.0227 33.1648 6.9327 33.1648ZM6.7627 29.9848C4.6927 29.9848 3.0127 28.3148 3.0127 26.2248C3.0127 24.1348 4.6927 22.4448 6.7627 22.4448C8.8627 22.4448 10.5527 24.1348 10.5527 26.2248C10.5527 28.3148 8.8627 29.9848 6.7627 29.9848ZM16.5827 29.9848C14.4927 29.9848 12.8127 28.3148 12.8127 26.2248C12.8127 24.1348 14.4927 22.4448 16.5827 22.4448C18.6727 22.4448 20.3527 24.1348 20.3527 26.2248C20.3527 28.3148 18.6727 29.9848 16.5827 29.9848Z"
        fillRule="evenodd"
        clipRule="evenodd"
    />
</svg>
        