<svg viewBox="0 0 30.92578125 26.66015625" xmlns="http://www.w3.org/2000/svg"><path d="M15.4627 26.6612C24.4427 26.6612 30.9227 20.5912 30.9227 11.8712C30.9227 3.2312 26.6227 0.0012 15.4627 0.0012C4.2927 0.0012 0.0027 3.2312 0.0027 11.8712C0.0027 20.5912 6.4827 26.6612 15.4627 26.6612ZM6.9227 13.2212C9.9627 13.2212 12.4327 10.7612 12.4327 7.7212C12.4327 5.5612 11.1827 3.6912 9.3827 2.7912C11.0427 2.4712 13.0527 2.3412 15.4627 2.3412C17.8727 2.3412 19.8827 2.4712 21.5427 2.7912C19.7427 3.6912 18.5027 5.5612 18.5027 7.7212C18.5027 10.7612 20.9627 13.2212 23.9927 13.2212C25.8927 13.2212 27.5727 12.2612 28.5627 10.8012C28.5727 11.1412 28.5927 11.5012 28.5927 11.8712C28.5927 14.7212 27.8927 17.1812 26.6027 19.1412C23.4927 16.8312 19.6727 15.5212 15.4627 15.5212C11.2527 15.5212 7.4227 16.8312 4.3227 19.1312C3.0327 17.1712 2.3427 14.7212 2.3427 11.8712C2.3427 11.5012 2.3527 11.1412 2.3627 10.8012C3.3527 12.2612 5.0327 13.2212 6.9227 13.2212ZM6.9227 11.2912C4.9327 11.2912 3.3527 9.7112 3.3527 7.7212C3.3527 5.7412 4.9327 4.1412 6.9227 4.1412C8.9027 4.1412 10.5027 5.7412 10.5027 7.7212C10.5027 9.7112 8.9027 11.2912 6.9227 11.2912ZM23.9927 11.2912C22.0127 11.2912 20.4227 9.7112 20.4227 7.7212C20.4227 5.7412 22.0127 4.1412 23.9927 4.1412C25.9727 4.1412 27.5727 5.7412 27.5727 7.7212C27.5727 9.7112 25.9727 11.2912 23.9927 11.2912ZM6.9227 9.6512C7.9827 9.6512 8.8627 8.7912 8.8627 7.7212C8.8627 6.6612 7.9827 5.7812 6.9227 5.7812C5.8527 5.7812 4.9927 6.6612 4.9927 7.7212C4.9927 8.7912 5.8527 9.6512 6.9227 9.6512ZM23.9927 9.6512C25.0627 9.6512 25.9327 8.7912 25.9327 7.7212C25.9327 6.6612 25.0627 5.7812 23.9927 5.7812C22.9327 5.7812 22.0627 6.6612 22.0627 7.7212C22.0627 8.7912 22.9327 9.6512 23.9927 9.6512ZM15.4627 23.0612C14.3127 23.0612 13.3727 22.1212 13.3727 20.9712C13.3727 19.8212 14.3127 18.8812 15.4627 18.8812C16.6127 18.8812 17.5527 19.8212 17.5527 20.9712C17.5527 22.1212 16.6127 23.0612 15.4627 23.0612ZM9.3427 22.1912C8.6527 22.1912 8.1027 21.6612 8.1027 20.9712C8.1027 20.2912 8.6527 19.7512 9.3427 19.7512C10.0227 19.7512 10.5527 20.2912 10.5527 20.9712C10.5527 21.6612 10.0227 22.1912 9.3427 22.1912ZM21.5927 22.1912C20.9027 22.1912 20.3727 21.6612 20.3727 20.9712C20.3727 20.2912 20.9027 19.7512 21.5927 19.7512C22.2727 19.7512 22.8027 20.2912 22.8027 20.9712C22.8027 21.6612 22.2727 22.1912 21.5927 22.1912Z" /></svg>