
<svg
    viewBox="0 0 27.890625 27.890625"
    xmlns="http://www.w3.org/2000/svg"
>
    <path
        fill="inherit"
        d="M13.9427 27.8864C21.6427 27.8864 27.8927 21.6464 27.8927 13.9464C27.8927 6.2464 21.6427 -0.0036 13.9427 -0.0036C6.2527 -0.0036 0.0027 6.2464 0.0027 13.9464C0.0027 21.6464 6.2527 27.8864 13.9427 27.8864ZM13.9427 25.5664C7.5227 25.5664 2.3227 20.3664 2.3227 13.9464C2.3227 7.5164 7.5227 2.3264 13.9427 2.3264C20.3727 2.3264 25.5627 7.5164 25.5627 13.9464C25.5627 20.3664 20.3727 25.5664 13.9427 25.5664ZM9.0827 12.8764C10.7827 12.8764 12.1527 11.5164 12.1527 9.8164C12.1527 8.1064 10.7827 6.7364 9.0827 6.7364C7.3827 6.7364 6.0027 8.1064 6.0027 9.8164C6.0027 11.5164 7.3827 12.8764 9.0827 12.8764ZM18.7827 12.8764C20.4827 12.8764 21.8627 11.5164 21.8627 9.8164C21.8627 8.1064 20.4827 6.7364 18.7827 6.7364C17.0927 6.7364 15.7127 8.1064 15.7127 9.8164C15.7127 11.5164 17.0927 12.8764 18.7827 12.8764ZM7.0227 19.5764C8.2427 19.5764 9.2327 18.5764 9.2327 17.3764C9.2327 16.1564 8.2427 15.1764 7.0227 15.1764C5.8227 15.1764 4.8227 16.1564 4.8227 17.3764C4.8227 18.5764 5.8227 19.5764 7.0227 19.5764ZM20.8327 19.5764C22.0527 19.5764 23.0327 18.5764 23.0327 17.3764C23.0327 16.1564 22.0527 15.1764 20.8327 15.1764C19.6227 15.1764 18.6327 16.1564 18.6327 17.3764C18.6327 18.5764 19.6227 19.5764 20.8327 19.5764ZM13.9327 23.9164C15.6227 23.9164 17.0127 22.5264 17.0127 20.8364C17.0127 19.1364 15.6227 17.7564 13.9327 17.7564C12.2327 17.7564 10.8527 19.1364 10.8527 20.8364C10.8527 22.5264 12.2327 23.9164 13.9327 23.9164Z"
        fillRule="evenodd"
        clipRule="evenodd"
    />
</svg>
        