
<svg
    viewBox={0 0 34.7265625 30.556640625}
    xmlns="http://www.w3.org/2000/svg"
>
    <path
        fill="inherit"
        d="M17.3627 30.5563C27.1127 30.5563 34.7227 22.9563 34.7227 13.7663C34.7227 8.9163 32.6227 4.5562 29.6027 1.6962C28.3427 0.5162 27.0127 -0.0038 25.1327 -0.0038H9.5927C7.7127 -0.0038 6.3827 0.5162 5.1227 1.6962C2.1027 4.5562 0.0027 8.9163 0.0027 13.7663C0.0027 22.9563 7.6127 30.5563 17.3627 30.5563ZM17.3627 28.2163C8.5727 28.2163 2.3427 21.9862 2.3427 13.7663C2.3427 9.4462 4.0027 5.9563 6.7527 3.3863C7.5327 2.6663 8.3927 2.3362 9.5927 2.3362H25.1327C26.3227 2.3362 27.1927 2.6663 27.9727 3.3863C30.7227 5.9563 32.3927 9.4462 32.3927 13.7663C32.3927 21.9862 26.1527 28.2163 17.3627 28.2163ZM12.8827 9.7663C14.2827 9.7663 15.4327 8.5963 15.4327 7.2063C15.4327 5.7862 14.2827 4.6363 12.8827 4.6363C11.4527 4.6363 10.3127 5.7862 10.3127 7.2063C10.3127 8.5963 11.4527 9.7663 12.8827 9.7663ZM21.8427 9.7663C23.2827 9.7663 24.4227 8.5963 24.4227 7.2063C24.4227 5.7862 23.2827 4.6363 21.8427 4.6363C20.4427 4.6363 19.2927 5.7862 19.2927 7.2063C19.2927 8.5963 20.4427 9.7663 21.8427 9.7663ZM8.3627 17.3263C10.3227 17.3263 11.9227 15.7263 11.9227 13.7663C11.9227 11.7963 10.3227 10.2163 8.3627 10.2163C6.4227 10.2163 4.8127 11.7963 4.8127 13.7663C4.8127 15.7263 6.4227 17.3263 8.3627 17.3263ZM17.3627 17.3263C19.3227 17.3263 20.9227 15.7263 20.9227 13.7663C20.9227 11.7963 19.3227 10.2163 17.3627 10.2163C15.4127 10.2163 13.8127 11.7963 13.8127 13.7663C13.8127 15.7263 15.4127 17.3263 17.3627 17.3263ZM26.3627 17.3263C28.3127 17.3263 29.9127 15.7263 29.9127 13.7663C29.9127 11.7963 28.3127 10.2163 26.3627 10.2163C24.4027 10.2163 22.8027 11.7963 22.8027 13.7663C22.8027 15.7263 24.4027 17.3263 26.3627 17.3263ZM12.8827 24.9463C14.8327 24.9463 16.4327 23.3663 16.4327 21.3963C16.4327 19.4463 14.8327 17.8463 12.8827 17.8463C10.9127 17.8463 9.3227 19.4463 9.3227 21.3963C9.3227 23.3663 10.9127 24.9463 12.8827 24.9463ZM21.8427 24.9463C23.8127 24.9463 25.4027 23.3663 25.4027 21.3963C25.4027 19.4463 23.8127 17.8463 21.8427 17.8463C19.8927 17.8463 18.3027 19.4463 18.3027 21.3963C18.3027 23.3663 19.8927 24.9463 21.8427 24.9463Z"
        fillRule="evenodd"
        clipRule="evenodd"
    />
</svg>
        