
<svg
    viewBox="0 0 18.662109375 26.82421875"
    xmlns="http://www.w3.org/2000/svg"
>
    <path
        fill="inherit"
        d="M3.0782 26.8287H15.5882C17.5982 26.8287 18.6582 25.7287 18.6582 23.5687V14.1487C18.6582 12.2487 17.8382 11.1787 16.2682 10.9487V7.6387C16.2682 2.4987 12.9082 -0.0013 9.3282 -0.0013C5.7582 -0.0013 2.3882 2.4987 2.3882 7.6387V10.9487C0.8382 11.1787 -0.0018 12.2487 -0.0018 14.1487V23.5687C-0.0018 25.7287 1.0682 26.8287 3.0782 26.8287ZM4.5682 7.3387C4.5682 3.8987 6.7682 2.0687 9.3282 2.0687C11.8782 2.0687 14.1082 3.8987 14.1082 7.3387V10.9087H4.5682ZM9.3282 20.3287C8.8082 20.3287 8.5082 20.0187 8.4882 19.4787L8.3582 14.8487C8.3382 14.3187 8.7482 13.9187 9.3282 13.9187C9.8882 13.9187 10.3082 14.3287 10.2982 14.8587L10.1582 19.4787C10.1482 20.0187 9.8482 20.3287 9.3282 20.3287ZM9.3082 23.5587C8.7082 23.5587 8.1782 23.0487 8.1782 22.4387C8.1782 21.8087 8.6982 21.2987 9.3082 21.2987C9.9482 21.2987 10.4882 21.7887 10.4882 22.4387C10.4882 23.0487 9.9482 23.5587 9.3082 23.5587Z"
        fillRule="evenodd"
        clipRule="evenodd"
    />
</svg>
        