
<svg
    viewBox={0 0 22.3671875 27.1796875}
    xmlns="http://www.w3.org/2000/svg"
>
    <path
        fill="inherit"
        d="M11.1837 27.1822C11.4037 27.1822 11.7437 27.1022 12.0837 26.9222C19.8637 22.8422 22.3637 20.8122 22.3637 15.9022V5.5922C22.3637 4.1822 21.7637 3.7322 20.6137 3.2522C19.0137 2.6022 13.9037 0.7422 12.3137 0.1922C11.9537 0.0722 11.5637 0.0022 11.1837 0.0022C10.8037 0.0022 10.4137 0.0822 10.0637 0.1922C8.4637 0.7122 3.3537 2.6122 1.7537 3.2522C0.6137 3.7222 0.0037 4.1822 0.0037 5.5922V15.9022C0.0037 20.8122 2.6437 22.6122 10.2837 26.9222C10.6337 27.1122 10.9637 27.1822 11.1837 27.1822ZM11.1937 15.6222C10.4837 15.6222 10.0937 15.2322 10.0737 14.5022L9.8937 7.0522C9.8837 6.3322 10.4137 5.8122 11.1837 5.8122C11.9337 5.8122 12.4937 6.3422 12.4837 7.0722L12.2737 14.5022C12.2637 15.2422 11.8837 15.6222 11.1937 15.6222ZM11.1937 20.2022C10.3737 20.2022 9.6637 19.5522 9.6637 18.7422C9.6637 17.9422 10.3637 17.2722 11.1937 17.2722C12.0337 17.2722 12.7237 17.9222 12.7237 18.7422C12.7237 19.5622 12.0137 20.2022 11.1937 20.2022Z"
        fillRule="evenodd"
        clipRule="evenodd"
    />
</svg>
        