
<svg
    viewBox={0 0 25.169921875 25.169921875}
    xmlns="http://www.w3.org/2000/svg"
>
    <path
        fill="inherit"
        d="M4.2937 25.1692H20.8737C23.7437 25.1692 25.1737 23.7592 25.1737 20.9492V4.2392C25.1737 1.4192 23.7437 -0.0008 20.8737 -0.0008H4.2937C1.4337 -0.0008 0.0037 1.4192 0.0037 4.2392V20.9492C0.0037 23.7592 1.4337 25.1692 4.2937 25.1692ZM4.3237 22.9692C2.9537 22.9692 2.2037 22.2392 2.2037 20.8192V4.3592C2.2037 2.9392 2.9537 2.1992 4.3237 2.1992H20.8537C22.2037 2.1992 22.9737 2.9392 22.9737 4.3592V20.8192C22.9737 22.2392 22.2037 22.9692 20.8537 22.9692ZM12.5937 15.0392C13.2437 15.0392 13.6137 14.6692 13.6337 13.9592L13.8337 6.7392C13.8537 6.0392 13.3037 5.5192 12.5737 5.5192C11.8437 5.5192 11.3237 6.0292 11.3337 6.7292L11.5137 13.9592C11.5237 14.6592 11.9037 15.0392 12.5937 15.0392ZM12.5937 19.4792C13.3737 19.4792 14.0537 18.8492 14.0537 18.0592C14.0537 17.2692 13.3837 16.6392 12.5937 16.6392C11.7837 16.6392 11.1137 17.2792 11.1137 18.0592C11.1137 18.8392 11.8037 19.4792 12.5937 19.4792Z"
        fillRule="evenodd"
        clipRule="evenodd"
    />
</svg>
        