<svg viewBox="0 0 27.890625 27.890625" xmlns="http://www.w3.org/2000/svg"><path d="M13.9427 27.8864C21.6427 27.8864 27.8927 21.6264 27.8927 13.9464C27.8927 6.2464 21.6427 -0.0036 13.9427 -0.0036C6.2627 -0.0036 0.0027 6.2464 0.0027 13.9464C0.0027 21.6264 6.2627 27.8864 13.9427 27.8864ZM13.9427 16.4864C13.2327 16.4864 12.8427 16.0964 12.8227 15.3664L12.6427 7.9164C12.6327 7.1864 13.1627 6.6764 13.9327 6.6764C14.6827 6.6764 15.2427 7.2064 15.2327 7.9264L15.0427 15.3664C15.0227 16.1064 14.6327 16.4864 13.9427 16.4864ZM13.9427 21.0664C13.1227 21.0664 12.4127 20.4164 12.4127 19.6064C12.4127 18.7964 13.1127 18.1264 13.9427 18.1264C14.7827 18.1264 15.4727 18.7864 15.4727 19.6064C15.4727 20.4264 14.7627 21.0664 13.9427 21.0664Z" /></svg>