<svg viewBox="0 0 34.37109375 23.76171875" xmlns="http://www.w3.org/2000/svg"><path d="M27.0127 23.7594C31.1427 23.7594 34.3727 20.7394 34.3727 16.9794C34.3727 14.1094 32.7127 11.6194 30.0527 10.4994C30.0827 4.3994 25.6927 -0.0006 20.0927 -0.0006C16.3927 -0.0006 13.7527 1.9794 12.1127 4.3794C8.7527 3.3894 5.0827 5.9494 5.0127 9.7794C1.9327 10.2694 0.0027 13.0294 0.0027 16.3694C0.0027 20.3894 3.5127 23.7594 8.1927 23.7594ZM17.2027 14.4494C16.4927 14.4494 16.1227 14.0394 16.0927 13.3194L15.9027 8.1494C15.8727 7.3694 16.4227 6.8394 17.1827 6.8394C17.9327 6.8394 18.5127 7.3794 18.4827 8.1594L18.2927 13.3194C18.2627 14.0594 17.8827 14.4494 17.2027 14.4494ZM17.1827 18.9594C16.3627 18.9594 15.6527 18.2894 15.6527 17.4894C15.6527 16.6794 16.3527 16.0094 17.1827 16.0094C18.0227 16.0094 18.7127 16.6694 18.7127 17.4894C18.7127 18.3094 18.0027 18.9594 17.1827 18.9594Z" /></svg>