
<svg
    viewBox="0 0 30.1328125 28.287109375"
    xmlns="http://www.w3.org/2000/svg"
>
    <path
        fill="inherit"
        d="M8.4037 28.2828C9.0737 28.2828 9.5437 27.9328 10.3737 27.1928L15.0937 22.9928H23.8737C27.9437 22.9928 30.1337 20.7428 30.1337 16.7328V6.2628C30.1337 2.2528 27.9437 0.0028 23.8737 0.0028H6.2637C2.1837 0.0028 0.0037 2.2428 0.0037 6.2628V16.7328C0.0037 20.7528 2.1837 22.9928 6.2637 22.9928H6.9137V26.5528C6.9137 27.6028 7.4537 28.2828 8.4037 28.2828ZM8.9737 25.7828V21.8228C8.9737 21.0828 8.6837 20.7928 7.9437 20.7928H6.2637C3.5037 20.7928 2.2037 19.3828 2.2037 16.7228V6.2628C2.2037 3.5928 3.5037 2.2028 6.2637 2.2028H23.8737C26.6237 2.2028 27.9337 3.5928 27.9337 6.2628V16.7228C27.9337 19.3828 26.6237 20.7928 23.8737 20.7928H15.0137C14.2437 20.7928 13.8637 20.9028 13.3437 21.4328ZM15.0637 13.9628C15.7237 13.9628 16.1037 13.5928 16.1237 12.8828L16.3137 5.6628C16.3237 4.9728 15.7737 4.4428 15.0537 4.4428C14.3137 4.4428 13.7937 4.9628 13.8037 5.6428L13.9837 12.8828C14.0037 13.5728 14.3837 13.9628 15.0637 13.9628ZM15.0637 18.4028C15.8637 18.4028 16.5437 17.7828 16.5437 16.9828C16.5437 16.1828 15.8737 15.5728 15.0637 15.5728C14.2637 15.5728 13.5937 16.2028 13.5937 16.9828C13.5937 17.7728 14.2737 18.4028 15.0637 18.4028Z"
        fillRule="evenodd"
        clipRule="evenodd"
    />
</svg>
        