
<svg
    viewBox="0 0 28.65625 25.9765625"
    xmlns="http://www.w3.org/2000/svg"
>
    <path
        fill="inherit"
        d="M3.7309 25.9777H24.9209C27.2509 25.9777 28.6609 24.3677 28.6609 22.2677C28.6609 21.6277 28.4609 20.9577 28.1209 20.3577L17.5109 1.8777C16.8009 0.6277 15.5909 -0.0023 14.3309 -0.0023C13.0709 -0.0023 11.8409 0.6277 11.1409 1.8777L0.5309 20.3577C0.1609 20.9677 0.0009 21.6277 0.0009 22.2677C0.0009 24.3677 1.4109 25.9777 3.7309 25.9777ZM14.3409 16.8477C13.6309 16.8477 13.2309 16.4377 13.2209 15.7077L13.0409 8.2677C13.0309 7.5477 13.5609 7.0277 14.3309 7.0277C15.0709 7.0277 15.6409 7.5577 15.6309 8.2877L15.4209 15.7077C15.4109 16.4477 15.0109 16.8477 14.3409 16.8477ZM14.3409 21.4277C13.5209 21.4277 12.8109 20.7677 12.8109 19.9577C12.8109 19.1377 13.5109 18.4877 14.3409 18.4877C15.1609 18.4877 15.8609 19.1277 15.8609 19.9577C15.8609 20.7777 15.1509 21.4277 14.3409 21.4277Z"
        fillRule="evenodd"
        clipRule="evenodd"
    />
</svg>
        