<svg viewBox="0 0 28.65625 25.9765625" xmlns="http://www.w3.org/2000/svg"><path d="M3.7309 25.9777H24.9209C27.2509 25.9777 28.6609 24.3677 28.6609 22.2677C28.6609 21.6277 28.4609 20.9577 28.1209 20.3577L17.5109 1.8777C16.8009 0.6277 15.5909 -0.0023 14.3309 -0.0023C13.0709 -0.0023 11.8409 0.6277 11.1409 1.8777L0.5309 20.3577C0.1609 20.9677 0.0009 21.6277 0.0009 22.2677C0.0009 24.3677 1.4109 25.9777 3.7309 25.9777ZM3.7509 23.8277C2.7909 23.8277 2.2109 23.0877 2.2109 22.2577C2.2109 21.9977 2.2709 21.6677 2.4209 21.3877L13.0109 2.9077C13.3009 2.4077 13.8209 2.1877 14.3309 2.1877C14.8309 2.1877 15.3409 2.4077 15.6309 2.9077L26.2209 21.3977C26.3709 21.6877 26.4409 21.9977 26.4409 22.2577C26.4409 23.0877 25.8409 23.8277 24.9009 23.8277ZM14.3309 16.7577C14.9809 16.7577 15.3709 16.3777 15.3809 15.6677L15.5709 8.4677C15.5909 7.7677 15.0409 7.2477 14.3109 7.2477C13.5809 7.2477 13.0609 7.7477 13.0709 8.4477L13.2509 15.6677C13.2609 16.3677 13.6409 16.7577 14.3309 16.7577ZM14.3309 21.2077C15.1209 21.2077 15.8009 20.5777 15.8009 19.7877C15.8009 18.9777 15.1309 18.3577 14.3309 18.3577C13.5209 18.3577 12.8509 18.9877 12.8509 19.7877C12.8509 20.5577 13.5309 21.2077 14.3309 21.2077Z" /></svg>