
<svg
    viewBox="0 0 25.169921875 25.169921875"
    xmlns="http://www.w3.org/2000/svg"
>
    <path
        fill="inherit"
        d="M4.2937 25.1692H20.8737C23.7437 25.1692 25.1737 23.7592 25.1737 20.9492V4.2392C25.1737 1.4192 23.7437 -0.0008 20.8737 -0.0008H4.2937C1.4337 -0.0008 0.0037 1.4192 0.0037 4.2392V20.9492C0.0037 23.7592 1.4337 25.1692 4.2937 25.1692ZM12.5937 15.1192C11.8837 15.1192 11.4937 14.7292 11.4837 13.9992L11.2937 6.5492C11.2837 5.8192 11.8137 5.3092 12.5737 5.3092C13.3337 5.3092 13.8937 5.8392 13.8737 6.5592L13.6837 13.9992C13.6737 14.7392 13.2737 15.1192 12.5937 15.1192ZM12.5937 19.6992C11.7737 19.6992 11.0637 19.0492 11.0637 18.2392C11.0637 17.4292 11.7537 16.7592 12.5937 16.7592C13.4237 16.7592 14.1237 17.4192 14.1237 18.2392C14.1237 19.0592 13.4137 19.6992 12.5937 19.6992Z"
        fillRule="evenodd"
        clipRule="evenodd"
    />
</svg>
        