<svg viewBox="0 0 28.095703125 27.04296875" xmlns="http://www.w3.org/2000/svg"><path d="M9.8937 27.0426H18.1937C19.9337 27.0426 20.7537 26.4826 21.6537 25.5126L26.9637 19.6626C27.8537 18.6726 28.0937 18.0026 28.0937 16.6526V10.4026C28.0937 9.0326 27.8537 8.3826 26.9637 7.3926L21.6537 1.5426C20.7537 0.5726 19.9337 0.0026 18.1937 0.0026H9.8937C8.1637 0.0026 7.3237 0.5726 6.4437 1.5426L1.1337 7.3926C0.2337 8.3826 0.0037 9.0326 0.0037 10.4026V16.6526C0.0037 18.0026 0.2337 18.6726 1.1337 19.6626L6.4437 25.5126C7.3237 26.4826 8.1637 27.0426 9.8937 27.0426ZM14.0537 16.0626C13.3437 16.0626 12.9437 15.6726 12.9337 14.9426L12.7537 7.4926C12.7437 6.7626 13.2737 6.2526 14.0437 6.2526C14.7937 6.2526 15.3537 6.7826 15.3437 7.5026L15.1437 14.9426C15.1337 15.6826 14.7337 16.0626 14.0537 16.0626ZM14.0537 20.6426C13.2337 20.6426 12.5237 19.9926 12.5237 19.1826C12.5237 18.3726 13.2237 17.7026 14.0537 17.7026C14.8937 17.7026 15.5837 18.3626 15.5837 19.1826C15.5837 20.0026 14.8737 20.6426 14.0537 20.6426Z" /></svg>