
<svg
    viewBox="0 0 27.80859375 27.1796875"
    xmlns="http://www.w3.org/2000/svg"
>
    <path
        fill="inherit"
        d="M0.0027 13.6446C0.0027 16.7746 1.1927 19.2646 2.4427 21.2146C3.1327 22.2846 3.5227 23.3246 3.5227 24.1146V26.1246C3.5227 26.6846 4.0027 27.1846 4.5827 27.1846C5.1527 27.1846 5.6427 26.6846 5.6427 26.1246V25.3646H7.3527V26.1246C7.3527 26.6846 7.8427 27.1846 8.4227 27.1846C8.9927 27.1846 9.4727 26.6846 9.4727 26.1246V25.3646H11.0227V26.1246C11.0227 26.6846 11.5227 27.1846 12.1027 27.1846C12.6727 27.1846 13.1527 26.6846 13.1527 26.1246V25.3646H14.6427V26.1246C14.6427 26.6846 15.1327 27.1846 15.6927 27.1846C16.2727 27.1846 16.7727 26.6846 16.7727 26.1246V25.3646H18.3227V26.1246C18.3227 26.6846 18.8027 27.1846 19.3727 27.1846C19.9427 27.1846 20.4427 26.6846 20.4427 26.1246V25.3646H22.1527V26.1246C22.1527 26.6846 22.6427 27.1846 23.2127 27.1846C23.7927 27.1846 24.2827 26.6846 24.2827 26.1246V24.1346C24.2827 23.3946 24.7227 22.2946 25.4827 21.0246C26.6627 19.1146 27.8127 16.6846 27.8127 13.6446C27.8127 10.1746 26.4727 7.2446 24.6227 4.9046C23.8727 3.9246 23.8327 3.6646 23.8327 3.0246V1.0646C23.8327 0.4946 23.3227 0.0046 22.7527 0.0046C22.1727 0.0046 21.6927 0.4946 21.6927 1.0646V3.1746C21.6927 4.7146 21.9327 4.9446 22.8227 6.0946C24.3627 8.0946 25.6027 10.5546 25.6027 13.6446C25.6027 17.4146 23.6827 20.1246 20.8527 21.7546H6.9427C4.1327 20.1246 2.2027 17.4146 2.2027 13.6446C2.2027 10.5546 3.4427 8.0946 4.9727 6.0946C5.8827 4.9446 6.1127 4.7146 6.1127 3.1746V1.0646C6.1127 0.4946 5.6227 0.0046 5.0627 0.0046C4.4827 0.0046 3.9827 0.4946 3.9827 1.0646V3.0246C3.9827 3.6646 3.9327 3.9246 3.1727 4.9046C1.3427 7.2446 0.0027 10.1746 0.0027 13.6446ZM13.9227 13.6446C14.5727 13.6446 14.9427 13.2646 14.9727 12.5546L15.1627 7.5346C15.1927 6.7846 14.6327 6.2646 13.9027 6.2646C13.1627 6.2646 12.6327 6.7646 12.6627 7.5146L12.8427 12.5546C12.8627 13.2446 13.2327 13.6446 13.9227 13.6446ZM13.9027 18.0046C14.6927 18.0046 15.3827 17.3746 15.3827 16.5846C15.3827 15.7946 14.7127 15.1646 13.9027 15.1646C13.0927 15.1646 12.4327 15.8046 12.4327 16.5846C12.4327 17.3646 13.1127 18.0046 13.9027 18.0046Z"
        fillRule="evenodd"
        clipRule="evenodd"
    />
</svg>
        