
<svg
    viewBox={0 0 18.662109375 26.810546875}
    xmlns="http://www.w3.org/2000/svg"
>
    <path
        fill="inherit"
        d="M3.0782 26.815H15.5882C17.5982 26.815 18.6582 25.715 18.6582 23.555V14.135C18.6582 12.245 17.8382 11.165 16.2682 10.935V7.625C16.2682 2.485 12.9082 -0.005 9.3282 -0.005C5.7582 -0.005 2.3882 2.485 2.3882 7.625V10.935C0.8382 11.165 -0.0018 12.235 -0.0018 14.135V23.555C-0.0018 25.715 1.0682 26.815 3.0782 26.815ZM4.5682 7.345C4.5682 3.885 6.7682 2.065 9.3282 2.065C11.8782 2.065 14.1082 3.885 14.1082 7.345V10.895H4.5682ZM3.1482 24.745C2.5582 24.745 2.2182 24.375 2.2182 23.705V13.985C2.2182 13.315 2.5582 12.965 3.1482 12.965H15.5182C16.1182 12.965 16.4482 13.315 16.4482 13.985V23.705C16.4482 24.375 16.1182 24.745 15.5182 24.745ZM9.3282 20.235C9.8182 20.235 10.0882 19.935 10.1082 19.445L10.2382 15.065C10.2582 14.565 9.8582 14.175 9.3282 14.175C8.7782 14.175 8.3982 14.545 8.4082 15.055L8.5482 19.445C8.5582 19.935 8.8282 20.235 9.3282 20.235ZM9.3282 23.245C9.9282 23.245 10.4182 22.765 10.4182 22.185C10.4182 21.585 9.9282 21.125 9.3282 21.125C8.7382 21.125 8.2582 21.605 8.2582 22.185C8.2582 22.765 8.7482 23.245 9.3282 23.245Z"
        fillRule="evenodd"
        clipRule="evenodd"
    />
</svg>
        