
<svg
    viewBox="0 0 24.076171875 25.990234375"
    xmlns="http://www.w3.org/2000/svg"
>
    <path
        fill="inherit"
        d="M1.9537 18.4537C2.6837 18.4537 3.1737 17.9737 3.1837 17.2437L3.3037 1.3137C3.3037 0.5337 2.6837 0.0037 1.9437 0.0037C1.2037 0.0037 0.5737 0.5337 0.5737 1.3137L0.7237 17.2437C0.7337 17.9737 1.2337 18.4537 1.9537 18.4537ZM12.0437 18.4537C12.7737 18.4537 13.2637 17.9737 13.2737 17.2437L13.3937 1.3137C13.3937 0.5337 12.7737 0.0037 12.0337 0.0037C11.3037 0.0037 10.6637 0.5337 10.6637 1.3137L10.8137 17.2437C10.8237 17.9737 11.3337 18.4537 12.0437 18.4537ZM22.1437 18.4537C22.8637 18.4537 23.3637 17.9737 23.3837 17.2437L23.5037 1.3137C23.5037 0.5337 22.8637 0.0037 22.1337 0.0037C21.3937 0.0037 20.7537 0.5337 20.7537 1.3137L20.9037 17.2437C20.9137 17.9737 21.4237 18.4537 22.1437 18.4537ZM1.9437 25.9937C3.0237 25.9937 3.8837 25.1137 3.8837 24.0537C3.8837 22.9737 3.0237 22.1037 1.9437 22.1037C0.8737 22.1037 0.0037 22.9737 0.0037 24.0537C0.0037 25.1137 0.8737 25.9937 1.9437 25.9937ZM12.0337 25.9937C13.1237 25.9937 13.9837 25.1137 13.9837 24.0537C13.9837 22.9737 13.1237 22.1037 12.0337 22.1037C10.9637 22.1037 10.0937 22.9737 10.0937 24.0537C10.0937 25.1137 10.9637 25.9937 12.0337 25.9937ZM22.1337 25.9937C23.2137 25.9937 24.0737 25.1137 24.0737 24.0537C24.0737 22.9737 23.2137 22.1037 22.1337 22.1037C21.0537 22.1037 20.1837 22.9737 20.1837 24.0537C20.1837 25.1137 21.0537 25.9937 22.1337 25.9937Z"
        fillRule="evenodd"
        clipRule="evenodd"
    />
</svg>
        