
<svg
    viewBox={0 0 30.544813437289534 27.890625}
    xmlns="http://www.w3.org/2000/svg"
>
    <path
        fill="inherit"
        d="M0.9769 11.3064C-0.0131 11.3064 -0.2531 11.9764 0.2769 12.7464L3.3369 17.0864C3.7869 17.7164 4.4469 17.7064 4.8869 17.0864L7.9269 12.7264C8.4669 11.9764 8.2069 11.3064 7.2469 11.3064H5.2769C6.4669 6.1564 11.0769 2.3264 16.5969 2.3264C23.0269 2.3264 28.2169 7.5164 28.2169 13.9464C28.2169 20.3664 23.0269 25.5664 16.5969 25.5664C12.7169 25.5664 9.2569 23.6564 7.1969 20.7564C6.7669 20.1964 6.1269 20.0164 5.5569 20.3564C5.0069 20.6964 4.8369 21.4664 5.3069 22.0664C7.8369 25.6064 11.9769 27.8864 16.5969 27.8864C24.2969 27.8864 30.5469 21.6464 30.5469 13.9464C30.5469 6.2464 24.2969 -0.0036 16.5969 -0.0036C9.8069 -0.0036 4.1269 4.8664 2.8969 11.3064ZM16.5969 16.4064C17.2469 16.4064 17.6269 16.0364 17.6369 15.3264L17.8469 8.1064C17.8569 7.4064 17.3069 6.8864 16.5869 6.8864C15.8469 6.8864 15.3269 7.3964 15.3369 8.0964L15.5169 15.3264C15.5369 16.0264 15.9169 16.4064 16.5969 16.4064ZM16.5969 20.8464C17.3769 20.8464 18.0669 20.2164 18.0669 19.4264C18.0669 18.6364 17.3969 18.0064 16.5969 18.0064C15.7969 18.0064 15.1269 18.6464 15.1269 19.4264C15.1269 20.2064 15.8069 20.8464 16.5969 20.8464Z"
        fillRule="evenodd"
        clipRule="evenodd"
    />
</svg>
        