<svg viewBox="0 0 33.35988375396623 27.890625" xmlns="http://www.w3.org/2000/svg"><path d="M16.679 -0.0036C12.579 -0.0036 8.859 1.7764 6.309 4.6364C5.749 5.2464 5.939 6.0564 6.459 6.4164C6.889 6.7364 7.479 6.7664 8.059 6.1564C10.189 3.7864 13.259 2.3264 16.679 2.3264C22.329 2.3264 27.019 6.3464 28.039 11.6764H26.119C25.149 11.6764 24.899 12.3364 25.419 13.0864L28.479 17.4464C28.919 18.0764 29.579 18.0864 30.029 17.4464L33.089 13.0964C33.619 12.3364 33.359 11.6764 32.389 11.6764H30.419C29.359 5.0564 23.599 -0.0036 16.679 -0.0036ZM16.679 16.4064C17.329 16.4064 17.709 16.0364 17.719 15.3264L17.929 8.1064C17.939 7.4064 17.389 6.8864 16.669 6.8864C15.929 6.8864 15.409 7.3964 15.419 8.0964L15.599 15.3264C15.619 16.0264 15.999 16.4064 16.679 16.4064ZM16.679 27.8864C20.779 27.8864 24.499 26.1164 27.059 23.2564C27.619 22.6264 27.429 21.8364 26.909 21.4664C26.469 21.1464 25.879 21.1264 25.309 21.7264C23.179 24.0864 20.099 25.5664 16.679 25.5664C11.039 25.5664 6.349 21.5464 5.319 16.2164H7.249C8.219 16.2164 8.469 15.5464 7.949 14.8064L4.879 10.4364C4.449 9.8164 3.789 9.8064 3.339 10.4364L0.279 14.7964C-0.261 15.5464 -0.011 16.2164 0.969 16.2164H2.939C4.009 22.8364 9.759 27.8864 16.679 27.8864ZM16.679 20.8464C17.459 20.8464 18.149 20.2164 18.149 19.4264C18.149 18.6364 17.479 18.0064 16.679 18.0064C15.879 18.0064 15.209 18.6464 15.209 19.4264C15.209 20.2064 15.889 20.8464 16.679 20.8464Z" /></svg>