
<svg
    viewBox={0 0 30.1328125 28.369140625}
    xmlns="http://www.w3.org/2000/svg"
>
    <path
        fill="inherit"
        d="M8.1237 28.3728C8.6537 28.3728 9.0537 28.0928 9.6937 27.4928L14.6337 22.9828H23.8737C27.9437 22.9828 30.1337 20.7428 30.1337 16.7328V6.2628C30.1337 2.2528 27.9437 0.0028 23.8737 0.0028H6.2637C2.1837 0.0028 0.0037 2.2428 0.0037 6.2628V16.7328C0.0037 20.7528 2.1837 22.9828 6.2637 22.9828H6.9037V26.9628C6.9037 27.8128 7.3437 28.3728 8.1237 28.3728ZM15.0837 14.0228C14.3737 14.0228 13.9737 13.6328 13.9637 12.9028L13.7837 5.4728C13.7637 4.7428 14.3037 4.2128 15.0637 4.2128C15.8137 4.2128 16.3837 4.7528 16.3637 5.4828L16.1637 12.9028C16.1437 13.6428 15.7537 14.0228 15.0837 14.0228ZM15.0837 18.6028C14.2637 18.6028 13.5537 17.9628 13.5537 17.1428C13.5537 16.3428 14.2437 15.6828 15.0837 15.6828C15.9037 15.6828 16.5937 16.3228 16.5937 17.1428C16.5937 17.9828 15.8837 18.6028 15.0837 18.6028Z"
        fillRule="evenodd"
        clipRule="evenodd"
    />
</svg>
        