
<svg
    viewBox="0 0 28.095703125 30.05078125"
    xmlns="http://www.w3.org/2000/svg"
>
    <path
        fill="inherit"
        d="M4.8437 9.1575H23.2537C24.4037 9.1575 25.4737 9.4175 26.3637 9.8675L23.4437 2.8475C22.6937 0.9875 21.0837 -0.0025 18.9737 -0.0025H9.1237C7.0037 -0.0025 5.4037 0.9875 4.6437 2.8475L1.7237 9.8675C2.6237 9.4175 3.6937 9.1575 4.8437 9.1575ZM2.6837 27.9575H11.0637C11.5137 29.1775 12.6837 30.0475 14.0437 30.0475C15.4037 30.0475 16.5837 29.1775 17.0337 27.9575H25.4137C26.0137 27.9575 26.5137 27.4575 26.5137 26.8475C26.5137 26.2475 26.0137 25.7575 25.4137 25.7575H17.0237C16.6937 24.8975 16.0137 24.2175 15.1437 23.8975V20.4575H23.2537C26.1237 20.4575 28.0937 18.4975 28.0937 15.6575C28.0937 12.8075 26.1237 10.8275 23.2537 10.8275H4.8437C1.9737 10.8275 0.0037 12.8075 0.0037 15.6575C0.0037 18.4975 1.9737 20.4575 4.8437 20.4575H12.9437V23.8975C12.0837 24.2175 11.4037 24.8975 11.0737 25.7575H2.6837C2.0737 25.7575 1.5837 26.2475 1.5837 26.8475C1.5837 27.4575 2.0737 27.9575 2.6837 27.9575ZM21.4937 15.6575C21.4937 14.8175 22.2137 14.0775 23.0637 14.0775C23.9137 14.0775 24.6537 14.8175 24.6537 15.6575C24.6537 16.5275 23.9137 17.2175 23.0637 17.2275C22.2137 17.2275 21.4937 16.5475 21.4937 15.6575Z"
        fillRule="evenodd"
        clipRule="evenodd"
    />
</svg>
        