
<svg
    viewBox={0 0 31.458984375 22.88671875}
    xmlns="http://www.w3.org/2000/svg"
>
    <path
        fill="inherit"
        d="M5.4137 10.2508H26.0437C27.3337 10.2508 28.5037 10.5408 29.5137 11.0608L26.2537 3.1708C25.4037 1.1108 23.6137 0.0008 21.2437 0.0008H10.2137C7.8437 0.0008 6.0537 1.1108 5.2137 3.1708L1.9237 11.0608C2.9537 10.5408 4.1337 10.2508 5.4137 10.2508ZM5.4137 22.8908H26.0437C29.2437 22.8908 31.4637 20.6808 31.4637 17.5108C31.4637 14.3408 29.2437 12.1308 26.0437 12.1308H5.4137C2.2137 12.1308 0.0037 14.3408 0.0037 17.5108C0.0037 20.6808 2.2137 22.8908 5.4137 22.8908ZM24.0637 17.5408C24.0637 16.6008 24.8837 15.7808 25.8437 15.7808C26.7837 15.7808 27.5937 16.6008 27.5937 17.5408C27.5937 18.5108 26.7837 19.2808 25.8437 19.2908C24.8837 19.2908 24.0637 18.5208 24.0637 17.5408Z"
        fillRule="evenodd"
        clipRule="evenodd"
    />
</svg>
        