
<svg
    viewBox="0 0 32.279296875 23.337890625"
    xmlns="http://www.w3.org/2000/svg"
>
    <path
        fill="inherit"
        d="M0.0037 17.1695C0.0037 20.6395 2.6937 23.3395 6.4937 23.3395H25.7837C29.5837 23.3395 32.2837 20.6395 32.2837 17.1695C32.2837 16.1495 31.9737 15.2295 31.6237 14.3695L27.0137 3.3095C26.1137 1.1195 24.2537 -0.0005 21.8037 -0.0005H10.4737C8.0237 -0.0005 6.1637 1.1195 5.2637 3.3095L0.6437 14.3695C0.3037 15.2195 0.0037 16.1495 0.0037 17.1695ZM4.4137 11.3595L7.3937 3.8695C7.9137 2.5695 9.0337 1.9095 10.5837 1.9095H21.6937C23.2437 1.9095 24.3637 2.5695 24.8837 3.8695L27.8637 11.3595C27.2237 11.1295 26.5337 11.0095 25.7837 11.0095H6.4937C5.7437 11.0095 5.0437 11.1295 4.4137 11.3595ZM2.2037 17.1695C2.2037 14.9195 3.9137 13.2095 6.4937 13.2095H25.7837C28.3737 13.2095 30.0737 14.9195 30.0737 17.1695C30.0737 19.6995 28.3737 21.1395 25.7837 21.1395H6.4937C3.9137 21.1395 2.2037 19.4295 2.2037 17.1695ZM24.0537 17.1695C24.0537 18.1295 24.8437 18.8695 25.7737 18.8695C26.6837 18.8695 27.4637 18.1195 27.4637 17.1695C27.4637 16.2595 26.6837 15.4795 25.7737 15.4795C24.8437 15.4795 24.0537 16.2595 24.0537 17.1695Z"
        fillRule="evenodd"
        clipRule="evenodd"
    />
</svg>
        