
<svg
    viewBox="0 0 28.984375 30.2421875"
    xmlns="http://www.w3.org/2000/svg"
>
    <path
        fill="inherit"
        d="M2.8837 28.1389H11.2637C11.7137 29.3489 12.8937 30.2389 14.2637 30.2389C15.6137 30.2389 16.7937 29.3489 17.2437 28.1389H25.6237C26.2237 28.1389 26.7237 27.6489 26.7237 27.0389C26.7237 26.4389 26.2237 25.9389 25.6237 25.9389H17.2237C16.8937 25.0889 16.2137 24.4089 15.3537 24.0789V21.0089H23.0737C26.4837 21.0089 28.9837 18.6389 28.9837 15.4089C28.9837 14.4789 28.7337 13.6289 28.4137 12.8689L24.2937 3.0089C23.4837 1.0489 21.8337 -0.0011 19.5537 -0.0011H9.4337C7.1637 -0.0011 5.4837 1.0489 4.6737 3.0089L0.5737 12.8689C0.2337 13.6589 0.0037 14.4889 0.0037 15.4089C0.0037 18.6389 2.5037 21.0089 5.9037 21.0089H13.1537V24.0789C12.2937 24.4089 11.6037 25.0889 11.2837 25.9389H2.8837C2.2837 25.9389 1.7937 26.4389 1.7937 27.0389C1.7937 27.6489 2.2837 28.1389 2.8837 28.1389ZM4.2337 10.0489L6.7937 3.6089C7.2337 2.4889 8.1737 1.9189 9.5437 1.9189H19.4537C20.8237 1.9189 21.7637 2.4889 22.2037 3.6089L24.7637 10.0489C24.2237 9.8889 23.6637 9.7889 23.0737 9.7889H5.9037C5.3137 9.7889 4.7537 9.8889 4.2337 10.0489ZM2.1737 15.4089C2.1737 13.3989 3.7037 11.9789 5.9037 11.9789H23.0737C25.2837 11.9789 26.8137 13.3989 26.8137 15.4089C26.8137 17.5589 25.4137 18.8389 23.0737 18.8389H5.9037C3.7037 18.8389 2.1737 17.4189 2.1737 15.4089ZM21.4337 15.4089C21.4337 16.2989 22.1637 17.0389 23.0637 17.0189C23.9437 17.0089 24.6737 16.2789 24.6737 15.4089C24.6737 14.5289 23.9237 13.7989 23.0637 13.7989C22.1937 13.7989 21.4337 14.5289 21.4337 15.4089Z"
        fillRule="evenodd"
        clipRule="evenodd"
    />
</svg>
        