
<svg
    viewBox="0 0 27.890625 27.890625"
    xmlns="http://www.w3.org/2000/svg"
>
    <path
        fill="inherit"
        d="M13.9427 27.8927C21.6427 27.8927 27.8927 21.6427 27.8927 13.9427C27.8927 6.2627 21.6427 0.0027 13.9427 0.0027C6.2627 0.0027 0.0027 6.2627 0.0027 13.9427C0.0027 21.6427 6.2627 27.8927 13.9427 27.8927ZM20.5727 21.4927L6.3527 7.3027C6.1227 7.0427 6.1227 6.6327 6.3527 6.3827C6.6327 6.1227 7.0227 6.1227 7.2827 6.3827L21.4927 20.5727C21.7427 20.8327 21.7427 21.2327 21.4927 21.4927C21.2427 21.7427 20.8227 21.7227 20.5727 21.4927ZM17.7427 15.3227C17.9127 14.8927 18.0027 14.4327 18.0027 13.9627C18.0027 11.7027 16.1827 9.9127 13.9427 9.9127C13.4627 9.9127 13.0027 9.9927 12.5827 10.1427L10.7227 8.2827C11.7127 7.9727 12.7927 7.7827 13.9427 7.7827C19.7527 7.7827 23.8027 12.4827 23.8027 13.9627C23.8027 14.7627 22.5427 16.5827 20.4527 18.0327ZM17.2027 19.6227C16.2027 19.9327 15.0927 20.1427 13.9427 20.1427C8.1927 20.1427 4.0727 15.4227 4.0727 13.9627C4.0727 13.1427 5.3427 11.3327 7.4527 9.8727L10.1327 12.5827C9.9627 13.0027 9.8827 13.4627 9.8827 13.9627C9.8827 16.1627 11.6927 18.0027 13.9427 18.0027C14.4327 18.0027 14.8927 17.9127 15.3127 17.7427ZM14.2627 11.8227C15.2627 11.8227 16.0527 12.6827 16.0527 13.6127ZM13.6327 16.0627C12.6227 16.0827 11.7827 15.1927 11.8127 14.2627Z"
        fillRule="evenodd"
        clipRule="evenodd"
    />
</svg>
        