
<svg
    viewBox={0 0 27.890625 27.890625}
    xmlns="http://www.w3.org/2000/svg"
>
    <path
        fill="inherit"
        d="M13.9427 27.8864C21.6427 27.8864 27.8927 21.6464 27.8927 13.9464C27.8927 6.2464 21.6427 -0.0036 13.9427 -0.0036C6.2527 -0.0036 0.0027 6.2464 0.0027 13.9464C0.0027 21.6464 6.2527 27.8864 13.9427 27.8864ZM13.9427 25.5664C7.5227 25.5664 2.3227 20.3664 2.3227 13.9464C2.3227 7.5164 7.5227 2.3264 13.9427 2.3264C20.3727 2.3264 25.5627 7.5164 25.5627 13.9464C25.5627 20.3664 20.3727 25.5664 13.9427 25.5664ZM13.9327 19.7264C19.3627 19.7264 23.1327 15.3264 23.1327 13.9564C23.1327 12.5764 19.3427 8.1764 13.9327 8.1764C8.5127 8.1764 4.7127 12.5764 4.7127 13.9564C4.7127 15.3264 8.5627 19.7264 13.9327 19.7264ZM13.9327 17.7364C11.8227 17.7364 10.1427 16.0064 10.1427 13.9564C10.1327 11.8364 11.8227 10.1764 13.9327 10.1764C16.0227 10.1764 17.7227 11.8364 17.7227 13.9564C17.7227 16.0064 16.0227 17.7364 13.9327 17.7364ZM13.9427 15.6164C14.8327 15.6164 15.6027 14.8364 15.6027 13.9564C15.6027 13.0664 14.8327 12.2864 13.9427 12.2864C13.0427 12.2864 12.2627 13.0664 12.2627 13.9564C12.2627 14.8364 13.0427 15.6164 13.9427 15.6164Z"
        fillRule="evenodd"
        clipRule="evenodd"
    />
</svg>
        