
<svg
    viewBox={0 0 37.365234375 24.97175975706994}
    xmlns="http://www.w3.org/2000/svg"
>
    <path
        fill="inherit"
        d="M29.3709 24.6411C29.7809 25.0711 30.4309 25.0911 30.8609 24.6411C31.3109 24.1911 31.2709 23.5811 30.8609 23.1511L8.0009 0.3111C7.5909 -0.0989 6.9209 -0.0989 6.4909 0.3111C6.1009 0.7011 6.1009 1.4011 6.4909 1.8011ZM18.6909 1.0911C16.4509 1.0911 14.3509 1.4811 12.4409 2.1111L14.2609 3.9311C15.6409 3.5111 17.1309 3.2511 18.6909 3.2511C27.6609 3.2511 34.9709 11.1811 34.9709 12.8011C34.9709 13.8711 32.7609 16.6611 29.2809 18.9511L30.9409 20.6011C34.9709 17.8511 37.3609 14.3711 37.3609 12.8011C37.3609 10.0011 29.7209 1.0911 18.6909 1.0911ZM18.6909 24.5211C21.1109 24.5211 23.3809 24.0811 25.4309 23.3711L23.6509 21.5811C22.1109 22.0611 20.4209 22.3611 18.6909 22.3611C9.6809 22.3611 2.3909 14.7311 2.3909 12.8011C2.3909 11.8911 4.7809 8.8511 8.5309 6.4711L6.8409 4.7811C2.5709 7.5811 0.0009 11.2011 0.0009 12.8011C0.0009 15.5911 7.7809 24.5211 18.6909 24.5211ZM18.6909 5.1511C17.7309 5.1511 16.8309 5.3511 16.0109 5.6811L25.8109 15.4811C26.1709 14.6511 26.3609 13.7511 26.3609 12.8011C26.3609 8.5211 22.9409 5.1511 18.6909 5.1511ZM18.6909 20.4611C19.8109 20.4611 20.8809 20.2111 21.8209 19.7511L11.7009 9.6411C11.2509 10.5911 10.9909 11.6811 10.9909 12.8011C10.9909 16.9711 14.4109 20.4611 18.6909 20.4611Z"
        fillRule="evenodd"
        clipRule="evenodd"
    />
</svg>
        