
<svg
    viewBox="0 0 27.890625 27.890625"
    xmlns="http://www.w3.org/2000/svg"
>
    <path
        fill="inherit"
        d="M13.9427 27.8864C21.6427 27.8864 27.8927 21.6464 27.8927 13.9464C27.8927 6.2464 21.6427 -0.0036 13.9427 -0.0036C6.2527 -0.0036 0.0027 6.2464 0.0027 13.9464C0.0027 21.6464 6.2527 27.8864 13.9427 27.8864ZM13.9427 25.5664C7.5227 25.5664 2.3227 20.3664 2.3227 13.9464C2.3227 7.5164 7.5227 2.3264 13.9427 2.3264C20.3727 2.3264 25.5627 7.5164 25.5627 13.9464C25.5627 20.3664 20.3727 25.5664 13.9427 25.5664ZM20.3727 21.2564C20.6027 21.4964 21.0127 21.4964 21.2427 21.2564C21.4927 21.0164 21.4927 20.6264 21.2427 20.3864L7.4627 6.6064C7.2227 6.3564 6.8327 6.3564 6.5727 6.6064C6.3427 6.8464 6.3427 7.2464 6.5727 7.4764ZM17.6127 15.2764L20.2327 17.9064C22.2727 16.5064 23.4927 14.7364 23.4927 13.9564C23.4927 12.5264 19.5627 7.9564 13.9327 7.9564C12.8127 7.9564 11.7727 8.1464 10.8027 8.4664L12.6027 10.2664C13.0127 10.1164 13.4627 10.0264 13.9327 10.0264C16.1027 10.0264 17.8727 11.7564 17.8727 13.9564C17.8727 14.4064 17.7727 14.8564 17.6127 15.2764ZM17.0927 19.4364L15.2627 17.6264C14.8427 17.7864 14.4127 17.8864 13.9327 17.8864C11.7427 17.8864 9.9927 16.0964 9.9927 13.9564C9.9927 13.4764 10.0727 13.0164 10.2427 12.6164L7.6427 9.9964C5.5927 11.4064 4.3627 13.1664 4.3627 13.9564C4.3627 15.3764 8.3527 19.9464 13.9327 19.9464C15.0527 19.9464 16.1227 19.7564 17.0927 19.4364ZM14.2327 11.8964L15.9727 13.6264C15.9727 12.7264 15.2027 11.8964 14.2327 11.8964ZM13.6327 15.9964L11.8627 14.2364C11.8427 15.1464 12.6427 16.0064 13.6327 15.9964Z"
        fillRule="evenodd"
        clipRule="evenodd"
    />
</svg>
        