
<svg
    viewBox="0 0 37.064453125 23.2421875"
    xmlns="http://www.w3.org/2000/svg"
>
    <path
        fill="inherit"
        d="M18.5409 23.2422C29.4909 23.2422 37.0609 14.3822 37.0609 11.6222C37.0609 8.8422 29.4809 0.0022 18.5409 0.0022C7.7209 0.0022 0.0009 8.8422 0.0009 11.6222C0.0009 14.3822 7.7209 23.2422 18.5409 23.2422ZM18.5409 19.2622C14.3109 19.2622 10.9009 15.8322 10.9009 11.6222C10.9009 7.3922 14.3109 3.9822 18.5409 3.9822C22.7509 3.9822 26.1809 7.3922 26.1809 11.6222C26.1809 15.8322 22.7509 19.2622 18.5409 19.2622ZM18.5409 14.4122C20.0809 14.4122 21.3309 13.1622 21.3309 11.6222C21.3309 10.0722 20.0809 8.8322 18.5409 8.8322C16.9909 8.8322 15.7509 10.0722 15.7509 11.6222C15.7509 13.1622 16.9909 14.4122 18.5409 14.4122Z"
        fillRule="evenodd"
        clipRule="evenodd"
    />
</svg>
        