
<svg
    viewBox="0 0 37.064453125 24.97175975706994"
    xmlns="http://www.w3.org/2000/svg"
>
    <path
        fill="inherit"
        d="M29.2209 24.6411C29.6409 25.0711 30.2809 25.0911 30.7109 24.6411C31.1609 24.1911 31.1209 23.5811 30.7109 23.1511L7.8509 0.3111C7.4409 -0.0989 6.7709 -0.0989 6.3409 0.3111C5.9509 0.7011 5.9509 1.4011 6.3409 1.8011ZM18.5409 1.1711C16.2109 1.1711 14.0309 1.5911 12.0609 2.2611L15.5909 5.7911C16.4709 5.3811 17.4909 5.1511 18.5409 5.1511C22.7509 5.1511 26.1809 8.5611 26.1809 12.7911C26.1809 13.8411 25.9309 14.8411 25.5409 15.7411L30.4709 20.6611C34.5909 17.9211 37.0609 14.3611 37.0609 12.7911C37.0609 10.0111 29.4809 1.1711 18.5409 1.1711ZM18.5409 24.4111C21.0409 24.4111 23.3809 23.9311 25.4809 23.1811L21.9009 19.6111C20.9009 20.1411 19.7509 20.4311 18.5409 20.4311C14.3109 20.4311 10.9009 17.0011 10.9009 12.7911C10.9009 11.5711 11.1809 10.4411 11.7009 9.4111L6.9709 4.7011C2.6409 7.4811 0.0009 11.1811 0.0009 12.7911C0.0009 15.5511 7.7209 24.4111 18.5409 24.4111ZM23.0009 13.2011C23.3209 10.6411 20.9909 7.9611 18.1109 8.3211ZM18.5409 17.2911C18.8509 17.2911 19.1809 17.2511 19.4809 17.1811L14.1509 11.8511C14.0809 12.1511 14.0409 12.4611 14.0409 12.7911C14.0409 15.2811 16.0509 17.2911 18.5409 17.2911Z"
        fillRule="evenodd"
        clipRule="evenodd"
    />
</svg>
        