
<svg
    viewBox={0 0 27.890625 27.890625}
    xmlns="http://www.w3.org/2000/svg"
>
    <path
        fill="inherit"
        d="M13.9427 27.8927C21.6427 27.8927 27.8927 21.6427 27.8927 13.9427C27.8927 6.2627 21.6427 0.0027 13.9427 0.0027C6.2627 0.0027 0.0027 6.2627 0.0027 13.9427C0.0027 21.6427 6.2627 27.8927 13.9427 27.8927ZM13.9427 19.7327C8.5727 19.7327 4.7327 15.3227 4.7327 13.9627C4.7327 12.5827 8.5327 8.1927 13.9427 8.1927C19.3627 8.1927 23.1427 12.5827 23.1427 13.9627C23.1427 15.3227 19.3727 19.7327 13.9427 19.7327ZM13.9427 17.7327C16.0327 17.7327 17.7327 16.0127 17.7327 13.9627C17.7327 11.8527 16.0327 10.1827 13.9427 10.1827C11.8427 10.1827 10.1427 11.8527 10.1627 13.9627C10.1627 16.0127 11.8427 17.7327 13.9427 17.7327ZM13.9627 15.6227C13.0527 15.6227 12.2727 14.8327 12.2727 13.9627C12.2727 13.0727 13.0527 12.2927 13.9627 12.2927C14.8427 12.2927 15.6127 13.0727 15.6127 13.9627C15.6127 14.8327 14.8427 15.6227 13.9627 15.6227Z"
        fillRule="evenodd"
        clipRule="evenodd"
    />
</svg>
        