
<svg
    viewBox={0 0 25.169921875 25.169921875}
    xmlns="http://www.w3.org/2000/svg"
>
    <path
        fill="inherit"
        d="M4.2937 25.1692H20.8737C23.7437 25.1692 25.1737 23.7592 25.1737 20.9492V4.2392C25.1737 1.4192 23.7437 -0.0008 20.8737 -0.0008H4.2937C1.4337 -0.0008 0.0037 1.4192 0.0037 4.2392V20.9492C0.0037 23.7592 1.4337 25.1692 4.2937 25.1692ZM12.5937 18.3592C7.2237 18.3592 3.3737 13.9592 3.3737 12.5892C3.3737 11.2092 7.1737 6.8092 12.5937 6.8092C18.0037 6.8092 21.7937 11.2092 21.7937 12.5892C21.7937 13.9592 18.0237 18.3592 12.5937 18.3592ZM12.5937 16.3692C14.6837 16.3692 16.3837 14.6392 16.3837 12.5892C16.3837 10.4692 14.6837 8.8092 12.5937 8.8092C10.4837 8.8092 8.7937 10.4692 8.8037 12.5892C8.8037 14.6392 10.4837 16.3692 12.5937 16.3692ZM12.6237 14.2492C11.7037 14.2492 10.9237 13.4692 10.9237 12.5892C10.9237 11.6992 11.7037 10.9192 12.6237 10.9192C13.4937 10.9192 14.2637 11.6992 14.2637 12.5892C14.2637 13.4692 13.4937 14.2492 12.6237 14.2492Z"
        fillRule="evenodd"
        clipRule="evenodd"
    />
</svg>
        