
<svg
    viewBox={0 0 37.365234375 23.43359375}
    xmlns="http://www.w3.org/2000/svg"
>
    <path
        fill="inherit"
        d="M18.6909 23.4342C29.7409 23.4342 37.3609 14.5042 37.3609 11.7142C37.3609 8.9142 29.7209 0.0042 18.6909 0.0042C7.7909 0.0042 0.0009 8.9142 0.0009 11.7142C0.0009 14.5042 7.7809 23.4342 18.6909 23.4342ZM18.6909 21.2742C9.6809 21.2742 2.3909 13.6442 2.3909 11.7142C2.3909 10.0942 9.6809 2.1642 18.6909 2.1642C27.6609 2.1642 34.9709 10.0942 34.9709 11.7142C34.9709 13.6442 27.6609 21.2742 18.6909 21.2742ZM18.6909 19.3642C22.9309 19.3642 26.3609 15.9242 26.3609 11.6942C26.3609 7.4542 22.9309 4.0242 18.6909 4.0242C14.4509 4.0242 11.0009 7.4542 11.0009 11.6942C11.0009 15.9242 14.4509 19.3642 18.6909 19.3642ZM18.6909 14.2442C17.2809 14.2442 16.1509 13.1142 16.1509 11.7042C16.1509 10.2942 17.2809 9.1642 18.6909 9.1642C20.1009 9.1642 21.2309 10.2942 21.2309 11.7042C21.2309 13.1142 20.1009 14.2442 18.6909 14.2442Z"
        fillRule="evenodd"
        clipRule="evenodd"
    />
</svg>
        