
<svg
    viewBox={0 0 28.2820932039462 24.204401971214686}
    xmlns="http://www.w3.org/2000/svg"
>
    <path
        fill="inherit"
        d="M2.9042 11.1717C5.4842 11.1717 14.1942 4.9117 18.4342 4.9117C19.9242 4.9117 21.2342 5.5117 22.6142 6.7717L26.0442 9.9217C27.1842 10.9617 28.7942 9.7317 28.1242 8.5717C27.5242 7.5917 26.6042 6.2217 24.5842 3.9817C22.3942 1.5417 20.4042 0.0017 17.2642 0.0017C13.2042 0.0017 7.0242 2.3517 1.2842 5.4017C-1.1558 6.7017 0.1642 11.1717 2.9042 11.1717ZM25.3642 16.8117C26.4742 15.6317 24.8342 13.9617 23.5442 15.2317C21.7442 17.0217 18.6642 18.1317 15.2742 18.1317C11.5542 18.1317 8.0142 17.2717 4.6242 15.4217C3.0742 14.5717 1.9342 16.7717 3.5242 17.6217C4.3042 18.0317 5.0842 18.4017 5.8842 18.7217C5.5342 19.3417 4.9542 20.2917 4.5642 20.6817C3.6142 21.6817 5.0042 22.9117 5.9642 21.8717C6.6742 21.0917 7.2742 19.9617 7.6042 19.3417C8.6042 19.6717 9.6242 19.9317 10.6542 20.1217C10.3942 21.1817 10.0742 22.2317 9.8742 22.6917C9.3142 23.9817 11.0442 24.6517 11.5942 23.3417C11.9642 22.4217 12.2342 21.1517 12.3742 20.3817C13.3342 20.5117 14.3042 20.5617 15.2742 20.5617C15.4542 20.5617 15.6242 20.5517 15.8042 20.5517C15.8842 21.6017 15.8342 22.6717 15.8042 23.1417C15.7342 24.5417 17.6142 24.5717 17.6342 23.1617C17.6642 22.2817 17.5942 21.2017 17.5242 20.4217C18.6542 20.2717 19.7042 20.0417 20.7042 19.7017C21.1542 20.8517 21.3142 21.9317 21.4242 22.4217C21.6742 23.8017 23.5042 23.1917 23.2042 21.9717C22.9542 20.9217 22.6542 19.8517 22.3142 19.0317C23.5042 18.4417 24.5242 17.7017 25.3642 16.8117Z"
        fillRule="evenodd"
        clipRule="evenodd"
    />
</svg>
        