
<svg
    viewBox="0 0 28.536347847566656 28.35205571800663"
    xmlns="http://www.w3.org/2000/svg"
>
    <path
        fill="inherit"
        d="M21.4355 14.3373L21.8155 13.9173C22.4855 13.2173 22.5355 12.3973 21.8055 11.6873L21.3955 11.2873C23.4855 9.4173 25.8155 9.1573 27.2455 7.6973C29.2855 5.6473 28.6255 2.7673 27.1955 1.3373C25.7755 -0.1127 22.9255 -0.7327 20.8355 1.2773C19.3555 2.7073 19.1155 5.0373 17.2355 7.1373L16.8455 6.7273C16.1455 6.0073 15.3155 6.0373 14.6155 6.7073L14.2055 7.0873C13.3555 7.8973 13.5255 8.6073 14.2355 9.3373L14.8155 9.9073L4.4855 20.2473C0.2555 24.4673 2.2955 23.8173 -0.0045 27.0573L1.2355 28.3473C4.3655 26.0673 3.9355 28.3073 8.2355 24.0273L18.6055 13.7073L19.1955 14.2973C19.9155 15.0173 20.6455 15.1773 21.4355 14.3373ZM4.2155 24.3873C3.7055 23.8373 3.8155 23.3173 4.3455 22.7773L15.9955 11.0873L17.4755 12.5773L5.7855 24.2473C5.3055 24.7473 4.6755 24.8973 4.2155 24.3873Z"
        fillRule="evenodd"
        clipRule="evenodd"
    />
</svg>
        