
<svg
    viewBox={0 0 43.134765625 17.0625}
    xmlns="http://www.w3.org/2000/svg"
>
    <path
        fill="inherit"
        d="M11.1727 17.0623C15.8227 17.0623 19.5927 13.3423 19.6827 8.6923C20.2627 8.4923 20.9327 8.3823 21.5727 8.3823C22.2027 8.3823 22.8727 8.4923 23.4427 8.6923C23.5427 13.3423 27.3327 17.0623 31.9927 17.0623C36.3627 17.0623 39.9927 13.7423 40.4727 9.4723H42.1227C42.7927 9.4723 43.1327 9.1223 43.1327 8.4323V7.8723C43.1327 7.1923 42.7927 6.8523 42.1227 6.8523H40.3427C39.5627 2.9523 36.1027 0.0023 31.9927 0.0023C28.0127 0.0023 24.6827 2.7223 23.7227 6.3823C23.0227 6.1423 22.2127 6.0423 21.5727 6.0423C20.9327 6.0423 20.1127 6.1423 19.4127 6.3823C18.4727 2.7223 15.1327 0.0023 11.1727 0.0023C7.0227 0.0023 3.5727 2.9523 2.7927 6.8523H1.0227C0.3527 6.8523 0.0027 7.1923 0.0027 7.8723V8.4323C0.0027 9.1223 0.3527 9.4723 1.0227 9.4723H2.6827C3.1427 13.7423 6.7627 17.0623 11.1727 17.0623ZM11.1727 14.7523C7.7227 14.7523 4.9327 11.9723 4.9327 8.5323C4.9327 5.1023 7.7227 2.3123 11.1727 2.3123C14.5927 2.3123 17.3727 5.1123 17.3727 8.5323C17.3727 11.9623 14.5927 14.7523 11.1727 14.7523ZM31.9927 14.7523C28.5627 14.7523 25.7627 11.9623 25.7627 8.5323C25.7627 5.1123 28.5627 2.3123 31.9927 2.3123C35.4227 2.3123 38.2027 5.1023 38.2027 8.5323C38.2027 11.9723 35.4227 14.7523 31.9927 14.7523Z"
        fillRule="evenodd"
        clipRule="evenodd"
    />
</svg>
        