
<svg
    viewBox={0 0 43.134765625 28.02734375}
    xmlns="http://www.w3.org/2000/svg"
>
    <path
        fill="inherit"
        d="M34.0527 27.7243C34.4627 28.1343 35.1527 28.1343 35.5427 27.7243C35.9427 27.3143 35.9527 26.6443 35.5427 26.2343L9.6127 0.3043C9.2027 -0.1057 8.5327 -0.1057 8.1027 0.3043C7.7127 0.7043 7.7127 1.4043 8.1027 1.7943ZM31.9927 5.4743C28.0027 5.4743 24.6627 8.1943 23.7227 11.8843L25.7727 13.9543C25.7827 13.8243 25.8027 13.7243 25.8127 13.6143C25.9927 10.3843 28.6927 7.7843 31.9927 7.7843C35.4227 7.7843 38.2027 10.5743 38.2027 14.0043C38.2027 17.3043 35.6427 19.9843 32.4127 20.1743C32.2927 20.1843 32.1727 20.2043 32.0327 20.2143L34.1127 22.2643C37.5027 21.4043 40.0727 18.5043 40.4727 14.9543H42.1227C42.7927 14.9543 43.1327 14.5943 43.1327 13.9143V13.3543C43.1327 12.6643 42.7927 12.3243 42.1227 12.3243H40.3427C39.5627 8.4243 36.1027 5.4743 31.9927 5.4743ZM11.1727 22.5343C15.1627 22.5343 18.5127 19.7643 19.3727 16.0443C19.4027 15.9043 19.4327 15.7843 19.4527 15.6643L17.3627 13.5543C17.3727 13.7043 17.3727 13.8543 17.3727 14.0043C17.3727 17.4343 14.5927 20.2243 11.1727 20.2243C7.7227 20.2243 4.9327 17.4543 4.9327 14.0043C4.9327 10.5743 7.7227 7.7843 11.1727 7.7843C11.3027 7.7843 11.4727 7.8043 11.6027 7.8143L9.5027 5.7243C9.4027 5.7243 9.3427 5.7343 9.2527 5.7443C6.0127 6.4743 3.4627 9.0443 2.7927 12.3243H1.0227C0.3527 12.3243 0.0027 12.6643 0.0027 13.3543V13.9143C0.0027 14.5943 0.3527 14.9543 1.0227 14.9543H2.6827C3.1427 19.2143 6.7627 22.5343 11.1727 22.5343Z"
        fillRule="evenodd"
        clipRule="evenodd"
    />
</svg>
        