
<svg
    viewBox={0 0 27.890625 27.890625}
    xmlns="http://www.w3.org/2000/svg"
>
    <path
        fill="inherit"
        d="M13.9427 27.8864C21.6427 27.8864 27.8927 21.6464 27.8927 13.9464C27.8927 6.2464 21.6427 -0.0036 13.9427 -0.0036C6.2527 -0.0036 0.0027 6.2464 0.0027 13.9464C0.0027 21.6464 6.2527 27.8864 13.9427 27.8864ZM13.9427 25.5664C7.5227 25.5664 2.3227 20.3664 2.3227 13.9464C2.3227 7.5164 7.5227 2.3264 13.9427 2.3264C20.3727 2.3264 25.5627 7.5164 25.5627 13.9464C25.5627 20.3664 20.3727 25.5664 13.9427 25.5664ZM10.9227 20.2064C11.6327 20.2064 12.0127 19.7264 12.0127 18.9764V14.7364H16.9527C17.4827 14.7364 17.8727 14.4464 17.8727 13.9064C17.8727 13.3464 17.4827 13.0264 16.9527 13.0264H12.0127V9.3764H17.4827C18.0227 9.3764 18.4027 9.0264 18.4027 8.4764C18.4027 7.9164 18.0227 7.5864 17.4827 7.5864H10.9127C10.2127 7.5864 9.8427 8.0764 9.8427 8.8164V18.9764C9.8427 19.6964 10.2127 20.2064 10.9227 20.2064Z"
        fillRule="evenodd"
        clipRule="evenodd"
    />
</svg>
        