
<svg
    viewBox="0 0 27.890625 27.890625"
    xmlns="http://www.w3.org/2000/svg"
>
    <path
        fill="inherit"
        d="M13.9427 27.8927C21.6427 27.8927 27.8927 21.6427 27.8927 13.9427C27.8927 6.2627 21.6427 0.0027 13.9427 0.0027C6.2627 0.0027 0.0027 6.2627 0.0027 13.9427C0.0027 21.6427 6.2627 27.8927 13.9427 27.8927ZM10.8427 20.4127C10.1027 20.4127 9.7227 19.8927 9.7227 19.1227V8.6727C9.7227 7.9127 10.1027 7.3827 10.8327 7.3827H17.6127C18.1527 7.3827 18.5527 7.7427 18.5527 8.3227C18.5527 8.8727 18.1527 9.2427 17.6127 9.2427H11.9727V13.0127H17.0627C17.6127 13.0127 18.0027 13.3327 18.0027 13.9027C18.0027 14.4827 17.6127 14.7827 17.0627 14.7827H11.9727V19.1227C11.9727 19.9227 11.5827 20.4127 10.8427 20.4127Z"
        fillRule="evenodd"
        clipRule="evenodd"
    />
</svg>
        