
<svg
    viewBox="0 0 27.890625 27.890625"
    xmlns="http://www.w3.org/2000/svg"
>
    <path
        fill="inherit"
        d="M13.9427 27.8864C21.6427 27.8864 27.8927 21.6264 27.8927 13.9464C27.8927 6.2464 21.6427 -0.0036 13.9427 -0.0036C6.2627 -0.0036 0.0027 6.2464 0.0027 13.9464C0.0027 21.6264 6.2627 27.8864 13.9427 27.8864ZM8.0427 20.7664C8.0427 20.1964 8.4227 19.7964 8.9827 19.7964C9.4327 19.7964 9.6927 19.9064 10.5427 19.9064C11.6327 19.9064 12.1927 19.3064 12.3827 17.8464L12.8827 14.3264H9.9627C9.3827 14.3264 8.9327 13.9064 8.9327 13.3464C8.9327 12.7464 9.3827 12.3164 9.9527 12.3164H13.1627L13.5327 9.6764C13.8527 7.2564 15.2627 5.9364 17.5027 5.9364C19.0327 5.9364 19.8827 6.3264 19.8827 7.1064C19.8827 7.6664 19.4927 8.0564 18.9327 8.0564C18.5227 8.0564 18.2527 7.9564 17.3727 7.9564C16.2927 7.9564 15.7327 8.5564 15.5427 10.0364L15.2327 12.3164H18.6527C19.2627 12.3164 19.7127 12.7464 19.7127 13.3464C19.7127 13.9064 19.2727 14.3264 18.6627 14.3264H14.9327L14.3927 18.1864C14.0727 20.6264 12.6627 21.9464 10.4227 21.9464C8.8627 21.9464 8.0427 21.5464 8.0427 20.7664Z"
        fillRule="evenodd"
        clipRule="evenodd"
    />
</svg>
        