
<svg
    viewBox="0 0 17.19921875 23.5703125"
    xmlns="http://www.w3.org/2000/svg"
>
    <path
        fill="inherit"
        d="M3.1837 23.5655C6.2937 23.5655 8.3437 21.7955 8.8337 18.2255L9.6937 11.9355H15.8037C16.4637 11.9355 16.9237 11.4855 16.9237 10.8555C16.9237 10.2255 16.4437 9.7655 15.7937 9.7655H9.9937L10.5537 5.7455C10.8937 3.2255 11.9637 2.1755 13.8337 2.1755C15.2137 2.1755 15.6437 2.3555 16.2037 2.3555C16.7937 2.3555 17.2037 1.9855 17.2037 1.3355C17.2037 0.2855 15.6037 -0.0045 14.0137 -0.0045C10.9137 -0.0045 8.8637 1.7755 8.3637 5.3455L7.7637 9.7655H2.4737C1.8137 9.7655 1.3537 10.2155 1.3537 10.8555C1.3537 11.4855 1.8337 11.9355 2.4837 11.9355H7.4637L6.6537 17.8455C6.3137 20.3555 5.2337 21.3955 3.3637 21.3955C1.9937 21.3955 1.5837 21.2155 1.0137 21.2155C0.4137 21.2155 0.0037 21.5855 0.0037 22.2355C0.0037 23.2955 1.6037 23.5655 3.1837 23.5655Z"
        fillRule="evenodd"
        clipRule="evenodd"
    />
</svg>
        