
<svg
    viewBox="0 0 25.169921875 25.169921875"
    xmlns="http://www.w3.org/2000/svg"
>
    <path
        fill="inherit"
        d="M4.2937 25.1692H20.8737C23.7437 25.1692 25.1737 23.7592 25.1737 20.9492V4.2392C25.1737 1.4192 23.7437 -0.0008 20.8737 -0.0008H4.2937C1.4337 -0.0008 0.0037 1.4192 0.0037 4.2392V20.9492C0.0037 23.7592 1.4337 25.1692 4.2937 25.1692ZM9.4837 19.0492C8.7537 19.0492 8.3637 18.5092 8.3637 17.7592V7.2992C8.3637 6.5392 8.7537 6.0192 9.4737 6.0192H16.2537C16.8037 6.0192 17.2037 6.3592 17.2037 6.9492C17.2037 7.5092 16.8037 7.8792 16.2537 7.8792H10.6337V11.6392H15.7137C16.2537 11.6392 16.6537 11.9592 16.6537 12.5392C16.6537 13.1092 16.2537 13.3992 15.7137 13.3992H10.6337V17.7592C10.6337 18.5392 10.2237 19.0492 9.4837 19.0492Z"
        fillRule="evenodd"
        clipRule="evenodd"
    />
</svg>
        