<svg viewBox="0 0 25.169921875 25.169921875" xmlns="http://www.w3.org/2000/svg"><path d="M4.2937 25.1692H20.8737C23.7437 25.1692 25.1737 23.7592 25.1737 20.9492V4.2392C25.1737 1.4192 23.7437 -0.0008 20.8737 -0.0008H4.2937C1.4337 -0.0008 0.0037 1.4192 0.0037 4.2392V20.9492C0.0037 23.7592 1.4337 25.1692 4.2937 25.1692ZM4.3237 22.9692C2.9537 22.9692 2.2037 22.2392 2.2037 20.8192V4.3592C2.2037 2.9392 2.9537 2.1992 4.3237 2.1992H20.8537C22.2037 2.1992 22.9737 2.9392 22.9737 4.3592V20.8192C22.9737 22.2392 22.2037 22.9692 20.8537 22.9692ZM9.5837 18.8392C10.2937 18.8392 10.6937 18.3592 10.6937 17.6092V13.3692H15.6137C16.1437 13.3692 16.5337 13.0792 16.5337 12.5392C16.5337 11.9792 16.1437 11.6592 15.6137 11.6592H10.6937V8.0092H16.1437C16.6837 8.0092 17.0637 7.6592 17.0637 7.1092C17.0637 6.5492 16.6837 6.2192 16.1437 6.2192H9.5737C8.8737 6.2192 8.5037 6.7092 8.5037 7.4492V17.6092C8.5037 18.3292 8.8737 18.8392 9.5837 18.8392Z" /></svg>