
<svg
    viewBox="0 0 41.794921875 20.97265625"
    xmlns="http://www.w3.org/2000/svg"
>
    <path
        fill="inherit"
        d="M0.0027 8.9811C0.0027 13.3811 3.2027 16.4611 8.0027 16.4611H8.1327C10.1727 19.2511 14.9027 20.9711 20.9027 20.9711C26.8927 20.9711 31.6227 19.2511 33.6627 16.4611H33.8127C38.5927 16.4611 41.7927 13.3811 41.7927 8.9811C41.7927 6.0811 40.1727 4.3311 37.3227 4.3311H34.3127C32.9127 1.5211 28.2727 0.0011 20.9027 0.0011C13.5227 0.0011 8.8827 1.5211 7.4827 4.3311H4.4727C1.6427 4.3311 0.0027 6.0811 0.0027 8.9811ZM13.4927 7.5511C13.4927 6.9311 14.0027 6.4111 14.6327 6.4111H27.1827C27.8227 6.4111 28.3327 6.9311 28.3327 7.5511C28.3327 8.1711 27.8227 8.6911 27.1827 8.6911H14.6327C14.0027 8.6911 13.4927 8.1711 13.4927 7.5511ZM34.7827 13.1811V6.5311H37.3227C38.7827 6.5311 39.5927 7.4611 39.5927 8.9811C39.5927 11.8411 37.6427 13.9611 34.6727 14.2311C34.7427 13.8911 34.7827 13.5311 34.7827 13.1811ZM2.2027 8.9811C2.2027 7.4611 3.0127 6.5311 4.4727 6.5311H7.0127V13.1811C7.0127 13.5311 7.0527 13.8911 7.1227 14.2311C4.1527 13.9611 2.2027 11.8411 2.2027 8.9811ZM13.4927 12.8211C13.4927 12.1911 14.0027 11.6711 14.6327 11.6711H27.1827C27.8227 11.6711 28.3327 12.1911 28.3327 12.8211C28.3327 13.4511 27.8227 13.9611 27.1827 13.9611H14.6327C14.0027 13.9611 13.4927 13.4511 13.4927 12.8211Z"
        fillRule="evenodd"
        clipRule="evenodd"
    />
</svg>
        