
<svg
    viewBox="0 0 27.890625 27.890625"
    xmlns="http://www.w3.org/2000/svg"
>
    <path
        fill="inherit"
        d="M13.9427 27.8864C21.6427 27.8864 27.8927 21.6464 27.8927 13.9464C27.8927 6.2464 21.6427 -0.0036 13.9427 -0.0036C6.2527 -0.0036 0.0027 6.2464 0.0027 13.9464C0.0027 21.6464 6.2527 27.8864 13.9427 27.8864ZM13.9427 25.5664C7.5227 25.5664 2.3227 20.3664 2.3227 13.9464C2.3227 7.5164 7.5227 2.3264 13.9427 2.3264C20.3727 2.3264 25.5627 7.5164 25.5627 13.9464C25.5627 20.3664 20.3727 25.5664 13.9427 25.5664ZM9.8827 12.7264C10.7427 12.7264 11.5127 11.9464 11.5127 10.8564C11.5127 9.7464 10.7627 8.9664 9.8827 8.9664C9.0227 8.9664 8.2727 9.7464 8.2727 10.8564C8.2727 11.9464 9.0227 12.7264 9.8827 12.7264ZM17.9927 12.7264C18.8527 12.7264 19.6227 11.9464 19.6227 10.8564C19.6227 9.7464 18.8627 8.9664 17.9927 8.9664C17.1327 8.9664 16.3827 9.7464 16.3827 10.8564C16.3827 11.9464 17.1327 12.7264 17.9927 12.7264ZM13.9327 20.7964C16.7927 20.7964 18.7027 18.8964 18.7027 17.9964C18.7027 17.6664 18.3927 17.5164 18.1027 17.6464C17.1027 18.1964 15.9127 18.8164 13.9327 18.8164C11.9527 18.8164 10.7627 18.1864 9.7727 17.6464C9.4727 17.5164 9.1627 17.6664 9.1627 17.9964C9.1627 18.8964 11.0727 20.7964 13.9327 20.7964Z"
        fillRule="evenodd"
        clipRule="evenodd"
    />
</svg>
        