
<svg
    viewBox="0 0 26.76953125 26.755859375"
    xmlns="http://www.w3.org/2000/svg"
>
    <path
        fill="inherit"
        d="M1.0937 8.6985C1.8137 8.6985 2.2037 8.2885 2.2037 7.5785V4.3485C2.2037 2.9285 2.9537 2.1985 4.3237 2.1985H7.6337C8.3537 2.1985 8.7537 1.8085 8.7537 1.0985C8.7537 0.3785 8.3537 -0.0015 7.6337 -0.0015H4.2937C1.4337 -0.0015 0.0037 1.4085 0.0037 4.2285V7.5785C0.0037 8.2885 0.3937 8.6985 1.0937 8.6985ZM25.6637 8.6985C26.3837 8.6985 26.7737 8.2885 26.7737 7.5785V4.2285C26.7737 1.4085 25.3337 -0.0015 22.4737 -0.0015H19.1237C18.4137 -0.0015 18.0237 0.3785 18.0237 1.0985C18.0237 1.8085 18.4137 2.1985 19.1237 2.1985H22.4337C23.7937 2.1985 24.5637 2.9285 24.5637 4.3485V7.5785C24.5637 8.2885 24.9637 8.6985 25.6637 8.6985ZM12.2737 15.6785H12.4037C13.7837 15.6785 14.5337 14.9285 14.5337 13.5485V9.2385C14.5337 8.7185 14.1637 8.3685 13.6437 8.3685C13.1137 8.3685 12.7537 8.7185 12.7537 9.2385V13.6685C12.7537 13.8085 12.6737 13.8785 12.5337 13.8785H12.0737C11.5837 13.8785 11.1937 14.2585 11.1937 14.7485C11.1937 15.3385 11.5937 15.6785 12.2737 15.6785ZM8.1737 12.4585C8.7937 12.4585 9.2237 12.0185 9.2237 11.3985V9.4385C9.2237 8.8185 8.7937 8.3785 8.1737 8.3785C7.5737 8.3785 7.1237 8.8185 7.1237 9.4385V11.3985C7.1237 12.0185 7.5737 12.4585 8.1737 12.4585ZM18.5437 12.4585C19.1437 12.4585 19.5937 12.0185 19.5937 11.3985V9.4385C19.5937 8.8185 19.1437 8.3785 18.5437 8.3785C17.9237 8.3785 17.4837 8.8185 17.4837 9.4385V11.3985C17.4837 12.0185 17.9237 12.4585 18.5437 12.4585ZM13.3037 20.2785C14.9437 20.2785 16.6137 19.5685 17.8137 18.3785C17.9637 18.2285 18.0637 17.9885 18.0637 17.7185C18.0637 17.1985 17.6637 16.8285 17.1537 16.8285C16.9137 16.8285 16.7237 16.9285 16.4437 17.1985C15.7137 17.9785 14.5237 18.5085 13.3037 18.5085C12.1437 18.5085 10.9537 18.0085 10.1537 17.1985C9.9437 16.9985 9.7437 16.8285 9.4237 16.8285C8.9237 16.8285 8.5337 17.1985 8.5337 17.7185C8.5337 17.9485 8.6237 18.1685 8.7937 18.3585C9.9137 19.6185 11.6437 20.2785 13.3037 20.2785ZM4.2937 26.7585H7.6337C8.3537 26.7585 8.7537 26.3585 8.7537 25.6585C8.7537 24.9485 8.3537 24.5585 7.6337 24.5585H4.3237C2.9537 24.5585 2.2037 23.8285 2.2037 22.4085V19.1785C2.2037 18.4585 1.8037 18.0585 1.0937 18.0585C0.3837 18.0585 0.0037 18.4585 0.0037 19.1785V22.5185C0.0037 25.3485 1.4337 26.7585 4.2937 26.7585ZM19.1237 26.7585H22.4737C25.3337 26.7585 26.7737 25.3385 26.7737 22.5185V19.1785C26.7737 18.4585 26.3737 18.0585 25.6637 18.0585C24.9537 18.0585 24.5637 18.4585 24.5637 19.1785V22.4085C24.5637 23.8285 23.7937 24.5585 22.4337 24.5585H19.1237C18.4137 24.5585 18.0237 24.9485 18.0237 25.6585C18.0237 26.3585 18.4137 26.7585 19.1237 26.7585Z"
        fillRule="evenodd"
        clipRule="evenodd"
    />
</svg>
        