
<svg
    viewBox="0 0 27.890625 27.890625"
    xmlns="http://www.w3.org/2000/svg"
>
    <path
        fill="inherit"
        d="M13.9427 27.8864C21.6427 27.8864 27.8927 21.6264 27.8927 13.9464C27.8927 6.2464 21.6427 -0.0036 13.9427 -0.0036C6.2627 -0.0036 0.0027 6.2464 0.0027 13.9464C0.0027 21.6264 6.2627 27.8864 13.9427 27.8864ZM9.7627 12.6564C8.8727 12.6564 8.1027 11.8564 8.1027 10.7364C8.1027 9.5864 8.8727 8.7764 9.7627 8.7764C10.6627 8.7764 11.4527 9.5864 11.4527 10.7364C11.4527 11.8564 10.6627 12.6564 9.7627 12.6564ZM18.1127 12.6564C17.2227 12.6564 16.4627 11.8564 16.4627 10.7364C16.4627 9.5864 17.2227 8.7764 18.1127 8.7764C19.0127 8.7764 19.8127 9.5864 19.8127 10.7364C19.8127 11.8564 19.0127 12.6564 18.1127 12.6564ZM13.9427 20.9864C10.9927 20.9864 9.0127 19.0164 9.0127 18.0864C9.0127 17.7464 9.3527 17.5964 9.6427 17.7364C10.6827 18.2764 11.8827 18.9364 13.9427 18.9364C15.9927 18.9364 17.2127 18.2964 18.2427 17.7364C18.5427 17.5964 18.8627 17.7464 18.8627 18.0864C18.8627 19.0164 16.8827 20.9864 13.9427 20.9864Z"
        fillRule="evenodd"
        clipRule="evenodd"
    />
</svg>
        