
<svg
    viewBox={0 0 41.794921875 20.97265625}
    xmlns="http://www.w3.org/2000/svg"
>
    <path
        fill="inherit"
        d="M0.0027 8.9811C0.0027 13.3811 3.2027 16.4611 8.0027 16.4611H8.1327C10.1727 19.2511 14.9027 20.9711 20.9027 20.9711C26.8927 20.9711 31.6227 19.2511 33.6627 16.4611H33.8127C38.5927 16.4611 41.7927 13.3811 41.7927 8.9811C41.7927 6.0811 40.1727 4.3311 37.3227 4.3311H34.3127C32.9127 1.5211 28.2727 0.0011 20.9027 0.0011C13.5227 0.0011 8.8827 1.5211 7.4827 4.3311H4.4727C1.6427 4.3311 0.0027 6.0811 0.0027 8.9811ZM20.9027 18.7711C14.1327 18.7711 9.2327 16.3811 9.2327 13.1811V6.3411C9.2327 3.6811 13.3727 2.2011 20.9027 2.2011C28.4227 2.2011 32.5827 3.6811 32.5827 6.3411V13.1811C32.5827 16.3811 27.6627 18.7711 20.9027 18.7711ZM13.7227 7.6311C13.7227 8.2311 14.2227 8.7411 14.8227 8.7411H27.0027C27.6027 8.7411 28.0927 8.2311 28.0927 7.6311C28.0927 7.0411 27.6027 6.5311 27.0027 6.5311H14.8227C14.2227 6.5311 13.7227 7.0411 13.7227 7.6311ZM34.7827 13.1811V6.5311H37.3227C38.7827 6.5311 39.5927 7.4611 39.5927 8.9811C39.5927 11.8411 37.6427 13.9611 34.6727 14.2311C34.7427 13.8911 34.7827 13.5311 34.7827 13.1811ZM2.2027 8.9811C2.2027 7.4611 3.0127 6.5311 4.4727 6.5311H7.0127V13.1811C7.0127 13.5311 7.0527 13.8911 7.1227 14.2311C4.1527 13.9611 2.2027 11.8411 2.2027 8.9811ZM13.7227 12.7411C13.7227 13.3411 14.2227 13.8311 14.8227 13.8311H27.0027C27.6027 13.8311 28.0927 13.3411 28.0927 12.7411C28.0927 12.1411 27.6027 11.6311 27.0027 11.6311H14.8227C14.2227 11.6311 13.7227 12.1411 13.7227 12.7411Z"
        fillRule="evenodd"
        clipRule="evenodd"
    />
</svg>
        