<svg viewBox="0 0 29.23046875 29.23046875" xmlns="http://www.w3.org/2000/svg"><path d="M28.2637 21.4963C28.2637 18.0863 25.1537 16.4063 19.7137 14.3463C19.6837 14.0663 19.6637 13.7763 19.5937 13.5263H25.4137C27.9137 13.5263 29.2337 12.2463 29.2337 9.8263C29.2337 5.4463 25.2537 0.9663 21.4937 0.9663C18.0837 0.9663 16.4037 4.0763 14.3437 9.5163C14.0637 9.5263 13.7937 9.5663 13.5237 9.6263V3.8163C13.5237 1.3163 12.2537 -0.0037 9.8337 -0.0037C5.4237 -0.0037 0.9737 3.9763 0.9737 7.7363C0.9737 11.1463 4.0737 12.8263 9.5137 14.8763C9.5337 15.1663 9.5737 15.4363 9.6237 15.7063H3.8037C1.3137 15.7063 0.0037 16.9763 0.0037 19.3863C0.0037 23.7863 3.9737 28.2563 7.7337 28.2563C11.1437 28.2563 12.8237 25.1563 14.8737 19.7163C15.1637 19.6963 15.4337 19.6563 15.7137 19.6063V25.4163C15.7137 27.9163 16.9837 29.2263 19.3837 29.2263C23.7937 29.2263 28.2637 25.2563 28.2637 21.4963ZM14.6137 17.7863C12.8637 17.7863 11.4437 16.3663 11.4437 14.6163C11.4437 12.8663 12.8637 11.4463 14.6137 11.4463C16.3637 11.4463 17.7837 12.8663 17.7837 14.6163C17.7837 16.3663 16.3637 17.7863 14.6137 17.7863ZM14.6137 16.4863C15.6537 16.4863 16.4737 15.6563 16.4737 14.6163C16.4737 13.5763 15.6537 12.7463 14.6137 12.7463C13.5737 12.7463 12.7437 13.5763 12.7437 14.6163C12.7437 15.6563 13.5737 16.4863 14.6137 16.4863Z" /></svg>