
<svg
    viewBox={0 0 27.685546875 31.841796875}
    xmlns="http://www.w3.org/2000/svg"
>
    <path
        fill="inherit"
        d="M6.5937 31.8452H21.0937C21.6137 31.8452 21.9437 31.4752 21.9437 30.9352C21.9437 29.9152 21.1137 29.1852 19.8137 29.1852H14.9437V27.6452C22.0837 27.0852 27.6837 21.1352 27.6837 13.8452C27.6837 6.2052 21.4937 -0.0048 13.8537 -0.0048C6.1937 -0.0048 0.0037 6.1952 0.0037 13.8452C0.0037 21.1352 5.6037 27.0952 12.7437 27.6452V29.1852H7.8937C6.5937 29.1852 5.7537 29.9152 5.7537 30.9352C5.7537 31.4752 6.0837 31.8452 6.5937 31.8452ZM14.5437 17.7852C14.2837 17.8252 14.0237 17.8452 13.7237 17.8452C12.5237 20.9852 11.4337 22.7352 9.3337 22.7352C6.8937 22.7352 4.2837 19.8252 4.2837 16.9552C4.2837 15.3552 5.1537 14.5652 6.7837 14.5652H9.8937C9.8537 14.2852 9.8437 14.0252 9.8437 13.7252C6.7037 12.5352 4.9537 11.4252 4.9537 9.3552C4.9537 6.8952 7.8637 4.2952 10.7337 4.2952C12.3137 4.2952 13.1237 5.1652 13.1237 6.7852V9.8952C13.3937 9.8552 13.6537 9.8452 13.9637 9.8552C15.1437 6.7152 16.2437 4.9452 18.3337 4.9452C20.7937 4.9452 23.3937 7.8652 23.3937 10.7452C23.3937 12.3352 22.5137 13.1352 20.9037 13.1352H17.7837C17.8237 13.3852 17.8437 13.6552 17.8437 13.9552C20.9737 15.1452 22.7337 16.2552 22.7337 18.3452C22.7337 20.7952 19.8237 23.4052 16.9437 23.4052C15.3537 23.4052 14.5437 22.5352 14.5437 20.9052ZM13.8537 15.8452C14.9437 15.8452 15.8437 14.9452 15.8437 13.8452C15.8437 12.7452 14.9437 11.8352 13.8537 11.8352C12.7437 11.8352 11.8437 12.7452 11.8437 13.8452C11.8437 14.9452 12.7437 15.8452 13.8537 15.8452Z"
        fillRule="evenodd"
        clipRule="evenodd"
    />
</svg>
        