
<svg
    viewBox={0 0 27.685546875 31.841796875}
    xmlns="http://www.w3.org/2000/svg"
>
    <path
        fill="inherit"
        d="M6.5937 31.8452H21.0937C21.6137 31.8452 21.9437 31.4752 21.9437 30.9352C21.9437 29.9152 21.1137 29.1852 19.8137 29.1852H14.9437V27.6452C22.0837 27.0852 27.6837 21.1252 27.6837 13.8452C27.6837 6.2052 21.4937 -0.0048 13.8537 -0.0048C6.1937 -0.0048 0.0037 6.1952 0.0037 13.8452C0.0037 21.1252 5.6037 27.0852 12.7437 27.6452V29.1852H7.8937C6.5937 29.1852 5.7537 29.9152 5.7537 30.9352C5.7537 31.4752 6.0837 31.8452 6.5937 31.8452ZM13.8537 25.4852C7.4137 25.4852 2.2037 20.2752 2.2037 13.8452C2.2037 7.4052 7.4137 2.2052 13.8537 2.2052C20.2737 2.2052 25.4837 7.4052 25.4837 13.8452C25.4837 20.2752 20.2737 25.4852 13.8537 25.4852ZM13.8537 17.7152C14.0837 17.7152 14.3037 17.6952 14.5237 17.6652V20.6952C14.5237 22.2752 15.3137 23.1152 16.8437 23.1152C19.6437 23.1152 22.4637 20.5852 22.4637 18.2152C22.4637 16.1752 20.7637 15.1252 17.7237 13.9452C17.7237 13.9152 17.7237 13.8752 17.7237 13.8452C17.7237 13.6152 17.6937 13.3852 17.6537 13.1652H20.7037C22.2537 13.1652 23.1237 12.3752 23.1237 10.8452C23.1237 8.0352 20.5937 5.2252 18.2137 5.2252C16.1737 5.2252 15.1037 6.9152 13.9437 9.9652C13.9037 9.9652 13.8737 9.9652 13.8537 9.9652C13.6037 9.9652 13.3837 9.9952 13.1637 10.0352V6.9852C13.1637 5.4252 12.3737 4.5752 10.8437 4.5752C8.0437 4.5752 5.2237 7.0952 5.2237 9.4852C5.2237 11.5152 6.9137 12.5752 9.9637 13.7452C9.9637 13.7652 9.9637 13.8052 9.9637 13.8452C9.9637 14.0852 9.9937 14.3052 10.0337 14.5352H6.9837C5.4237 14.5352 4.5637 15.3252 4.5637 16.8552C4.5637 19.6452 7.0937 22.4652 9.4737 22.4652C11.5137 22.4652 12.5737 20.7652 13.7437 17.7152C13.7837 17.7152 13.8037 17.7152 13.8537 17.7152ZM13.8537 15.7952C12.7737 15.7952 11.8937 14.9152 11.8937 13.8452C11.8937 12.7652 12.7737 11.8952 13.8537 11.8952C14.9137 11.8952 15.7937 12.7652 15.7937 13.8452C15.7937 14.9152 14.9137 15.7952 13.8537 15.7952Z"
        fillRule="evenodd"
        clipRule="evenodd"
    />
</svg>
        