
<svg
    viewBox={0 0 21.8203125 31.841796875}
    xmlns="http://www.w3.org/2000/svg"
>
    <path
        fill="inherit"
        d="M4.7737 31.8452H17.0637C17.5637 31.8452 17.8937 31.4752 17.8937 30.9352C17.8937 29.9152 17.0637 29.1852 15.7637 29.1852H12.0137V21.7652C17.5237 21.2052 21.8237 16.5752 21.8237 10.9052C21.8237 4.8952 16.9437 -0.0048 10.9137 -0.0048C4.8837 -0.0048 0.0037 4.8952 0.0037 10.9052C0.0037 16.5752 4.3037 21.2152 9.8137 21.7652V29.1852H6.0537C4.7537 29.1852 3.9237 29.9152 3.9237 30.9352C3.9237 31.4752 4.2537 31.8452 4.7737 31.8452ZM14.0137 10.3752C14.0537 10.5652 14.0637 10.7752 14.0537 11.0452C16.4637 11.9452 17.8037 12.7852 17.8037 14.4052C17.8037 16.2952 15.5437 18.3252 13.3037 18.3252C12.0837 18.3252 11.4437 17.6252 11.4437 16.4052V14.0152C11.2537 14.0552 11.0437 14.0652 10.7837 14.0652C9.8837 16.4652 9.0337 17.8052 7.4237 17.8052C5.5237 17.8052 3.5037 15.5452 3.5037 13.3052C3.5037 12.0852 4.1937 11.4552 5.4237 11.4552H7.8037C7.7837 11.2552 7.7537 11.0452 7.7637 10.7852C5.3637 9.8852 4.0237 9.0352 4.0237 7.4252C4.0237 5.5352 6.2737 3.4952 8.5337 3.4952C9.7337 3.4952 10.3737 4.1952 10.3737 5.4252V7.8052C10.5637 7.7752 10.7737 7.7552 11.0437 7.7652C11.9337 5.3552 12.7837 4.0352 14.3937 4.0352C16.2937 4.0352 18.3237 6.2752 18.3237 8.5352C18.3237 9.7352 17.6237 10.3752 16.4037 10.3752ZM10.9237 12.4252C11.7537 12.4252 12.4437 11.7452 12.4437 10.9052C12.4437 10.0752 11.7537 9.3952 10.9237 9.3952C10.0937 9.3952 9.4037 10.0752 9.4037 10.9052C9.4037 11.7452 10.0937 12.4252 10.9237 12.4252Z"
        fillRule="evenodd"
        clipRule="evenodd"
    />
</svg>
        