<svg viewBox="0 0 29.408203125 29.421875" xmlns="http://www.w3.org/2000/svg"><path d="M9.9573 0.002C8.3173 0.002 6.6473 0.572 5.2373 1.492L13.7273 9.982V3.912C13.7273 1.392 12.3773 0.002 9.9573 0.002ZM28.4373 21.592C28.4373 17.742 24.5273 15.752 17.8273 13.712H25.5273C28.0373 13.712 29.4073 12.362 29.4073 9.922C29.3973 5.552 25.4473 0.972 21.5873 0.972C17.9873 0.972 15.9573 4.402 14.1773 10.442L17.4573 13.712L27.8373 24.102C28.2173 23.292 28.4373 22.432 28.4373 21.592ZM26.5073 28.012C26.9173 28.422 27.5873 28.412 27.9973 28.002C28.3973 27.592 28.4073 26.922 27.9973 26.512L2.9073 1.432C2.4973 1.022 1.8273 1.012 1.4073 1.432C1.0073 1.832 1.0073 2.512 1.4073 2.922ZM7.8373 28.422C11.4273 28.422 13.4073 25.022 15.2473 19.022L12.0873 15.862L1.5973 5.362C1.2173 6.152 0.9973 6.982 0.9973 7.832C0.9973 11.672 4.8973 13.672 11.5773 15.712H3.9073C1.3573 15.712 -0.0027 17.022 -0.0027 19.482C0.0173 23.872 3.9673 28.422 7.8373 28.422ZM19.4973 29.422C21.1373 29.412 22.7773 28.872 24.1873 27.962L15.7073 19.482V25.522C15.7073 28.042 17.0673 29.422 19.4973 29.422Z" /></svg>