
<svg
    viewBox="0 0 36.383473343740725 31.601099940200385"
    xmlns="http://www.w3.org/2000/svg"
>
    <path
        fill="inherit"
        d="M18.185 27.4124C19.275 27.4124 20.265 27.2724 21.125 27.0324L29.285 31.1824C33.185 33.1724 36.215 27.5224 31.935 25.5224L24.725 22.1624L34.505 17.3924C38.395 15.5024 35.715 9.7224 31.295 11.9724L23.055 16.2024C22.065 15.4924 20.755 14.9824 19.295 14.8024V7.5924C22.235 7.1524 24.885 5.0724 24.885 2.4924C24.885 1.5424 24.395 0.9724 23.225 0.6124C21.785 0.1824 19.985 0.0024 18.185 0.0024C16.395 0.0024 14.605 0.1824 13.155 0.6124C11.995 0.9724 11.495 1.5424 11.495 2.4924C11.495 5.0724 14.155 7.1524 17.095 7.5924V14.8024C15.625 14.9824 14.315 15.4924 13.335 16.2024L5.085 11.9724C0.675 9.7224 -2.005 15.5024 1.875 17.3924L11.665 22.1624L4.435 25.5224C0.155 27.5224 3.205 33.1724 7.095 31.1824L15.255 27.0324C16.125 27.2724 17.105 27.4124 18.185 27.4124ZM18.185 5.8824C15.655 5.8824 13.645 4.5024 13.305 2.5824C13.295 2.4924 13.335 2.4224 13.485 2.3624C14.935 1.9824 16.555 1.7724 18.185 1.7724C19.825 1.7724 21.435 1.9824 22.905 2.3624C23.055 2.4224 23.095 2.4924 23.075 2.5824C22.735 4.5024 20.725 5.8824 18.185 5.8824ZM32.115 13.5924C34.455 12.4024 35.615 14.8524 33.725 15.7724L23.805 20.6024C23.205 19.9424 22.355 19.4524 21.305 19.1224ZM2.655 15.7724C0.765 14.8524 1.925 12.4024 4.265 13.5924L15.065 19.1224C14.025 19.4524 13.165 19.9424 12.575 20.6024ZM18.185 18.6924L15.365 17.2524C16.175 16.9024 17.175 16.6824 18.185 16.6824C19.215 16.6824 20.205 16.9024 21.015 17.2424ZM18.185 25.4824C15.385 25.4824 13.535 24.5024 13.535 23.0524C13.535 21.6024 15.385 20.6124 18.185 20.6124C20.985 20.6124 22.835 21.6024 22.835 23.0524C22.835 24.5024 20.985 25.4824 18.185 25.4824ZM5.225 27.1524L11.775 24.1024C12.005 24.8724 12.495 25.5224 13.195 26.0424L6.265 29.5724C4.395 30.5324 3.155 28.0924 5.225 27.1524ZM30.105 29.5724L23.185 26.0424C23.885 25.5224 24.375 24.8724 24.615 24.1024L31.155 27.1524C33.225 28.0924 31.975 30.5324 30.105 29.5724Z"
        fillRule="evenodd"
        clipRule="evenodd"
    />
</svg>
        