
<svg
    viewBox="0 0 29.421875 29.421875"
    xmlns="http://www.w3.org/2000/svg"
>
    <path
        fill="inherit"
        d="M9.9437 0.002C8.3037 0.002 6.6437 0.572 5.2237 1.492L6.7637 3.022C7.7337 2.452 8.8637 2.092 9.9437 2.092C11.2137 2.092 11.6337 2.552 11.6337 3.912V7.892L13.7237 9.982V3.912C13.7237 1.392 12.3737 0.002 9.9437 0.002ZM28.4337 21.592C28.4337 17.742 24.5137 15.752 17.8137 13.712H25.5237C28.0437 13.712 29.4237 12.362 29.4237 9.922C29.4037 5.552 25.4537 0.982 21.5837 0.982C18.0037 0.982 16.0137 4.402 14.1737 10.442L17.4437 13.712H17.4637L20.9437 17.212C24.5137 18.352 26.3437 19.592 26.3437 21.592C26.3437 21.892 26.2937 22.172 26.1837 22.452L27.8337 24.102C28.2237 23.292 28.4337 22.432 28.4337 21.592ZM26.4937 28.012C26.9237 28.422 27.5937 28.412 27.9837 28.002C28.3937 27.592 28.3937 26.922 27.9837 26.512L2.9137 1.432C2.5037 1.022 1.8337 1.012 1.4037 1.432C1.0137 1.832 1.0137 2.512 1.4037 2.922ZM21.5837 3.072C24.3237 3.072 27.3337 6.702 27.3337 9.922C27.3337 11.202 26.8837 11.622 25.5237 11.622H16.0337C17.7237 6.082 19.0437 3.072 21.5837 3.072ZM7.8337 28.422C11.4137 28.422 13.4137 25.022 15.2437 19.022L12.0837 15.862L8.4237 12.192C4.9037 11.062 3.0937 9.832 3.0937 7.832C3.0937 7.542 3.1437 7.292 3.2537 7.012L1.6037 5.362C1.2137 6.152 0.9937 6.982 0.9937 7.832C0.9937 11.672 4.8837 13.672 11.5637 15.692H3.8937C1.3937 15.692 0.0037 17.052 0.0037 19.482C0.0137 23.872 3.9637 28.422 7.8337 28.422ZM7.8337 26.332C5.1037 26.332 2.0937 22.722 2.0937 19.482C2.0937 18.212 2.5437 17.792 3.8937 17.792H13.3837C11.7037 23.322 10.3937 26.332 7.8337 26.332ZM19.4937 29.422C21.1337 29.412 22.7737 28.872 24.1837 27.962L22.6537 26.412C21.6737 26.992 20.5737 27.332 19.4937 27.332C18.2237 27.332 17.8037 26.882 17.8037 25.522V21.572L15.7137 19.482V25.522C15.7137 28.042 17.0637 29.422 19.4937 29.422Z"
        fillRule="evenodd"
        clipRule="evenodd"
    />
</svg>
        