
<svg
    viewBox="0 0 36.383473343740725 31.58817218373683"
    xmlns="http://www.w3.org/2000/svg"
>
    <path
        fill="inherit"
        d="M14.475 15.4255L18.185 17.3255L21.905 15.4255C21.165 15.0955 20.295 14.8755 19.295 14.7955V7.0255C22.195 6.6055 24.615 4.5355 24.615 2.2055C24.615 1.3655 24.155 0.9055 23.145 0.5855C21.845 0.2055 20.125 -0.0045 18.185 -0.0045C16.255 -0.0045 14.535 0.2055 13.235 0.5855C12.225 0.9055 11.775 1.3555 11.775 2.2055C11.775 4.5355 14.195 6.6055 17.095 7.0255V14.7955C16.095 14.8755 15.215 15.0955 14.475 15.4255ZM5.085 11.9755C0.675 9.7055 -2.005 15.5055 1.875 17.3955L10.825 21.7555C11.325 19.6055 13.375 18.1455 16.225 17.6755ZM31.295 11.9755L20.155 17.6755C23.015 18.1455 25.065 19.6055 25.545 21.7555L34.505 17.3955C38.395 15.5055 35.715 9.7055 31.295 11.9755ZM18.185 26.7855C21.935 26.7855 24.415 25.1655 24.415 22.7655C24.415 20.3755 21.935 18.7555 18.185 18.7555C14.435 18.7555 11.965 20.3755 11.965 22.7655C11.965 25.1655 14.435 26.7855 18.185 26.7855ZM18.185 25.1255C15.455 25.1255 13.615 24.1755 13.615 22.7655C13.615 21.3555 15.435 20.4155 18.185 20.4155C20.945 20.4155 22.765 21.3555 22.765 22.7655C22.765 24.1755 20.935 25.1255 18.185 25.1255ZM4.435 25.5155C0.155 27.5255 3.205 33.1555 7.095 31.1755L14.465 27.4255C12.165 26.5955 10.725 24.9555 10.725 22.7655V22.5855ZM31.935 25.5155L25.665 22.5855V22.7655C25.665 24.9555 24.205 26.5955 21.915 27.4255L29.285 31.1755C33.185 33.1555 36.215 27.5255 31.935 25.5155Z"
        fillRule="evenodd"
        clipRule="evenodd"
    />
</svg>
        