
<svg
    viewBox={0 0 28.150390625 33.537109375}
    xmlns="http://www.w3.org/2000/svg"
>
    <path
        fill="inherit"
        d="M24.4837 16.1491C24.4837 13.4491 21.9737 11.9791 17.9237 10.4591C17.9237 10.4491 17.9237 10.4191 17.9137 10.3891H21.9837C23.9937 10.3891 25.0837 9.3491 25.0837 7.4091C25.0837 4.0891 22.0837 0.6191 19.1937 0.6191C16.5137 0.6191 15.0237 3.1191 13.5337 7.1491C13.5037 7.1591 13.4837 7.1591 13.4637 7.1591V3.0991C13.4637 1.0791 12.4237 -0.0009 10.4637 -0.0009C7.1537 -0.0009 3.6737 2.9891 3.6737 5.8791C3.6737 8.5891 6.1937 10.0591 10.2237 11.5691C10.2437 11.5791 10.2437 11.6091 10.2437 11.6191H6.1637C4.1437 11.6191 3.0737 12.6691 3.0737 14.6191C3.0737 17.9491 6.0537 21.4091 8.9537 21.4091C11.6437 21.4091 13.1237 18.8991 14.6437 14.8491C14.6537 14.8491 14.6837 14.8491 14.7137 14.8291V18.9391C14.7137 20.9591 15.7337 22.0091 17.6937 22.0091C21.0137 22.0091 24.4837 19.0291 24.4837 16.1491ZM5.7437 5.8791C5.7437 4.1291 8.2437 2.0691 10.4637 2.0691C11.2637 2.0691 11.3937 2.1691 11.3937 3.0991V8.1991C11.0337 8.5491 10.7437 8.9591 10.5437 9.4091C7.4237 8.1991 5.7437 7.3791 5.7437 5.8791ZM19.1937 2.6791C20.9637 2.6791 23.0137 5.1691 23.0137 7.4091C23.0137 8.2191 22.9237 8.3091 21.9837 8.3091H16.8737C16.5437 7.9591 16.1337 7.6691 15.6937 7.4691C16.8837 4.3491 17.7037 2.6791 19.1937 2.6791ZM14.0837 12.8491C13.0537 12.8491 12.2237 12.0191 12.2237 11.0091C12.2237 9.9791 13.0537 9.1591 14.0837 9.1591C15.0937 9.1591 15.9237 9.9791 15.9237 11.0091C15.9237 12.0191 15.0937 12.8491 14.0837 12.8491ZM17.6937 19.9291C16.8737 19.9291 16.7937 19.8491 16.7937 18.9391V13.7791C17.1337 13.4491 17.4037 13.0591 17.6137 12.6191C20.7237 13.8391 22.4237 14.6591 22.4237 16.1491C22.4237 17.8991 19.9037 19.9591 17.6937 19.9291ZM8.9537 19.3291C7.1737 19.3291 5.1537 16.8591 5.1537 14.6191C5.1537 13.7991 5.2537 13.6991 6.1637 13.6991H11.2837C11.6237 14.0591 12.0137 14.3391 12.4737 14.5491C11.2637 17.6791 10.4437 19.3291 8.9537 19.3291ZM5.2537 24.3791L5.5537 25.0891C2.1237 25.8791 0.0037 27.1791 0.0037 28.8991C0.0037 31.8291 6.0737 33.5391 14.0637 33.5391C22.0837 33.5391 28.1537 31.8291 28.1537 28.8991C28.1537 27.1791 26.0337 25.8791 22.5837 25.0891L22.9037 24.3791C23.1037 23.8891 22.7737 23.3291 22.1237 23.4491L19.1137 23.9691C18.4837 24.0891 18.3437 24.6491 18.6737 25.1291L20.3837 27.5991C20.7637 28.1491 21.3137 28.0591 21.5237 27.5891L21.7937 26.9591C24.5037 27.4491 26.0837 28.1791 26.0837 28.8991C26.0837 30.1591 21.2337 31.4691 14.0637 31.4691C6.9137 31.4691 2.0637 30.1591 2.0637 28.8991C2.0637 28.1791 3.6537 27.4491 6.3537 26.9591L6.6137 27.5891C6.8237 28.0591 7.3837 28.1491 7.7637 27.5991L9.4637 25.1291C9.8037 24.6491 9.6637 24.0891 9.0337 23.9691L6.0337 23.4491C5.3637 23.3291 5.0437 23.8891 5.2537 24.3791Z"
        fillRule="evenodd"
        clipRule="evenodd"
    />
</svg>
        