
<svg
    viewBox="0 0 29.408203125 29.421875"
    xmlns="http://www.w3.org/2000/svg"
>
    <path
        fill="inherit"
        d="M28.4237 21.592C28.4237 18.152 25.2937 16.192 19.8637 14.352C19.8537 14.132 19.8237 13.922 19.7837 13.712H25.5137C28.0237 13.712 29.4037 12.372 29.4037 9.942C29.4037 5.562 25.4437 0.982 21.5737 0.982C18.1437 0.982 16.1737 4.112 14.3437 9.542C14.1337 9.552 13.9137 9.582 13.7137 9.612V3.912C13.7137 1.392 12.3637 0.002 9.9237 0.002C5.5537 0.012 0.9837 3.962 0.9837 7.832C0.9837 11.262 4.1037 13.232 9.5337 15.062C9.5437 15.282 9.5737 15.492 9.6137 15.692H3.8837C1.3837 15.692 0.0037 17.052 0.0037 19.482C0.0037 23.872 3.9537 28.442 7.8237 28.442C11.2537 28.442 13.2237 25.302 15.0537 19.882C15.2737 19.862 15.4937 19.842 15.6937 19.792V25.522C15.6937 28.042 17.0337 29.422 19.4737 29.422C23.8537 29.422 28.4237 25.462 28.4237 21.592ZM3.0737 7.832C3.0737 5.102 6.7037 2.092 9.9237 2.092C11.1937 2.092 11.6237 2.552 11.6237 3.912V10.542C10.8137 11.132 10.2037 11.932 9.8437 12.892C5.4537 11.372 3.0737 10.102 3.0737 7.832ZM21.5737 3.072C24.3037 3.072 27.3137 6.712 27.3137 9.942C27.3137 11.212 26.8637 11.622 25.5137 11.622H18.8637C18.2837 10.832 17.4637 10.212 16.5337 9.862C18.0337 5.472 19.3037 3.072 21.5737 3.072ZM14.6937 17.792C13.0037 17.792 11.6237 16.402 11.6237 14.712C11.6237 13.012 13.0037 11.632 14.6937 11.632C16.3937 11.632 17.7737 13.012 17.7737 14.712C17.7737 16.402 16.3937 17.792 14.6937 17.792ZM14.6937 16.662C15.7737 16.662 16.6537 15.792 16.6537 14.712C16.6537 13.632 15.7737 12.752 14.6937 12.752C13.6137 12.752 12.7437 13.632 12.7437 14.712C12.7437 15.792 13.6137 16.662 14.6937 16.662ZM17.7837 25.522V18.872C18.5837 18.282 19.1937 17.472 19.5537 16.542C23.9437 18.042 26.3337 19.322 26.3337 21.592C26.3337 24.322 22.7137 27.332 19.4737 27.312C18.1937 27.312 17.7837 26.882 17.7837 25.522ZM7.8237 26.332C5.0837 26.332 2.0937 22.722 2.0937 19.482C2.0937 18.212 2.5337 17.792 3.8837 17.792H10.5237C11.1137 18.592 11.9337 19.212 12.8837 19.562C11.3637 23.952 10.0937 26.332 7.8237 26.332Z"
        fillRule="evenodd"
        clipRule="evenodd"
    />
</svg>
        