
<svg
    viewBox="0 0 30.720703125 29.3671875"
    xmlns="http://www.w3.org/2000/svg"
>
    <path
        fill="inherit"
        d="M5.4137 3.1612H25.3037V2.9213C25.3037 0.9013 23.7337 0.0012 21.5237 0.0012H9.2037C7.0837 0.0012 5.4137 0.9013 5.4137 2.9213ZM7.6337 29.3713H23.0937C24.8237 29.3713 25.7037 28.5713 25.7037 26.7513V24.1313H26.6437C29.3137 24.1313 30.7237 22.7913 30.7237 20.1213V8.9913C30.7237 6.3313 29.3137 4.9812 26.6437 4.9812H4.0637C1.5437 4.9812 0.0037 6.3313 0.0037 8.9913V20.1213C0.0037 22.7913 1.4037 24.1313 4.0637 24.1313H5.0137V26.7513C5.0137 28.5713 5.8937 29.3713 7.6337 29.3713ZM7.8437 11.3713C7.4537 11.3713 7.2037 11.1313 7.2037 10.7313V9.4513C7.2037 9.0513 7.4537 8.8212 7.8437 8.8212H9.1437C9.5337 8.8212 9.7637 9.0513 9.7637 9.4513V10.7313C9.7637 11.1313 9.5337 11.3713 9.1437 11.3713ZM12.4737 11.3713C12.0837 11.3713 11.8537 11.1313 11.8537 10.7313V9.4513C11.8537 9.0513 12.0837 8.8212 12.4737 8.8212H13.7637C14.1637 8.8212 14.4137 9.0513 14.4137 9.4513V10.7313C14.4137 11.1313 14.1637 11.3713 13.7637 11.3713ZM17.1137 11.3713C16.7237 11.3713 16.4737 11.1313 16.4737 10.7313V9.4513C16.4737 9.0513 16.7237 8.8212 17.1137 8.8212H18.4037C18.8037 8.8212 19.0337 9.0513 19.0337 9.4513V10.7313C19.0337 11.1313 18.8037 11.3713 18.4037 11.3713ZM21.7337 11.3713C21.3437 11.3713 21.1137 11.1313 21.1137 10.7313V9.4513C21.1137 9.0513 21.3437 8.8212 21.7337 8.8212H23.0337C23.4237 8.8212 23.6637 9.0513 23.6637 9.4513V10.7313C23.6637 11.1313 23.4237 11.3713 23.0337 11.3713ZM7.8437 16.1013C7.4537 16.1013 7.2037 15.8713 7.2037 15.4913V14.1913C7.2037 13.7913 7.4537 13.5513 7.8437 13.5513H9.1437C9.5337 13.5513 9.7637 13.7913 9.7637 14.1913V15.4913C9.7637 15.8713 9.5337 16.1013 9.1437 16.1013ZM12.4737 16.1013C12.0837 16.1013 11.8537 15.8713 11.8537 15.4913V14.1913C11.8537 13.7913 12.0837 13.5513 12.4737 13.5513H13.7637C14.1637 13.5513 14.4137 13.7913 14.4137 14.1913V15.4913C14.4137 15.8713 14.1637 16.1013 13.7637 16.1013ZM17.1137 16.1013C16.7237 16.1013 16.4737 15.8713 16.4737 15.4913V14.1913C16.4737 13.7913 16.7237 13.5513 17.1137 13.5513H18.4037C18.8037 13.5513 19.0337 13.7913 19.0337 14.1913V15.4913C19.0337 15.8713 18.8037 16.1013 18.4037 16.1013ZM21.7337 16.1013C21.3437 16.1013 21.1137 15.8713 21.1137 15.4913V14.1913C21.1137 13.7913 21.3437 13.5513 21.7337 13.5513H23.0337C23.4237 13.5513 23.6637 13.7913 23.6637 14.1913V15.4913C23.6637 15.8713 23.4237 16.1013 23.0337 16.1013ZM8.3137 27.3013C7.5737 27.3013 7.2237 26.9513 7.2237 26.2113V21.5313C7.2237 20.8113 7.5837 20.4513 8.3137 20.4513H22.4237C23.1437 20.4513 23.5037 20.8113 23.5037 21.5313V26.2113C23.5037 26.9513 23.1437 27.3013 22.4237 27.3013ZM10.7837 24.9113H20.1137C20.6837 24.9113 21.1337 24.4413 21.1337 23.8612C21.1337 23.3013 20.6837 22.8313 20.1137 22.8313H10.7837C10.2037 22.8313 9.7437 23.3013 9.7437 23.8612C9.7437 24.4413 10.2037 24.9113 10.7837 24.9113Z"
        fillRule="evenodd"
        clipRule="evenodd"
    />
</svg>
        