
<svg
    viewBox={0 0 28.849903417405447 33.71484375}
    xmlns="http://www.w3.org/2000/svg"
>
    <path
        fill="inherit"
        d="M14.417 9.9845C15.647 9.9845 16.447 10.2545 17.717 10.8445L24.877 14.1345L23.707 5.4145C23.497 3.9245 22.567 2.8745 21.097 2.8745H20.107V2.1145C20.107 0.7945 19.327 0.0045 18.007 0.0045H10.847C9.527 0.0045 8.747 0.7945 8.747 2.1145V2.8745H7.777C6.297 2.8745 5.407 3.9245 5.167 5.6845L3.987 14.1245L11.127 10.8445C12.397 10.2545 13.187 9.9845 14.417 9.9845ZM8.387 8.5345C8.067 8.5345 7.847 8.2945 7.847 7.9745V5.7845C7.847 5.4545 8.067 5.2245 8.387 5.2245H12.627C13.037 5.2245 13.317 5.4545 13.317 5.7845V7.9745C13.317 8.2945 13.037 8.5345 12.627 8.5345ZM16.077 8.5345C15.757 8.5345 15.537 8.2945 15.537 7.9745V5.7845C15.537 5.4545 15.757 5.2245 16.077 5.2245H20.327C20.737 5.2245 21.007 5.4545 21.007 5.7845V7.9745C21.007 8.2945 20.737 8.5345 20.327 8.5345ZM14.417 30.1845C15.047 30.1845 15.367 30.0145 16.377 29.2345C17.267 28.5745 18.827 27.4145 20.917 27.4145C22.147 27.4145 23.157 27.7545 24.337 28.4645L28.227 21.5645C29.387 19.5245 28.917 18.0345 26.877 17.1045L16.937 12.5345C16.357 12.2745 15.557 11.8445 14.417 11.8445C13.297 11.8445 12.497 12.2745 11.907 12.5345L1.967 17.1045C-0.063 18.0345 -0.533 19.5245 0.607 21.5645L4.507 28.4645C5.687 27.7545 6.697 27.4145 7.927 27.4145C10.017 27.4145 11.577 28.5745 12.467 29.2345C13.477 30.0145 13.787 30.1845 14.417 30.1845ZM14.417 33.7145C18.157 33.7145 18.737 30.9445 20.917 30.9445C23.127 30.9445 23.487 33.7145 27.747 33.7145H27.817C28.347 33.7145 28.787 33.2745 28.787 32.7445C28.787 32.2145 28.347 31.7845 27.817 31.7845H27.747C26.287 31.7845 25.457 31.1745 24.427 30.4445C23.537 29.8045 22.427 29.0145 20.917 29.0145C19.347 29.0145 18.217 29.8445 17.337 30.5145C16.387 31.2245 15.647 31.7845 14.417 31.7845C13.187 31.7845 12.447 31.2245 11.507 30.5145C10.617 29.8445 9.497 29.0145 7.927 29.0145C6.407 29.0145 5.297 29.8045 4.417 30.4445C3.387 31.1745 2.567 31.7845 1.087 31.7845H1.017C0.487 31.7845 0.047 32.2145 0.047 32.7445C0.047 33.2745 0.487 33.7145 1.017 33.7145H1.087C5.357 33.7145 5.707 30.9445 7.927 30.9445C10.097 30.9445 10.687 33.7145 14.417 33.7145Z"
        fillRule="evenodd"
        clipRule="evenodd"
    />
</svg>
        