
<svg
    viewBox="0 0 28.849903417405447 33.98828125"
    xmlns="http://www.w3.org/2000/svg"
>
    <path
        fill="inherit"
        d="M0.607 21.8379L5.287 30.1179C4.977 30.3079 4.687 30.5279 4.417 30.7179C3.387 31.4479 2.567 32.0579 1.087 32.0579H1.017C0.487 32.0579 0.047 32.4879 0.047 33.0179C0.047 33.5479 0.487 33.9879 1.017 33.9879H1.087C5.357 33.9879 5.707 31.2179 7.927 31.2179C10.097 31.2179 10.687 33.9879 14.417 33.9879C18.157 33.9879 18.737 31.2179 20.917 31.2179C23.127 31.2179 23.487 33.9879 27.747 33.9879H27.817C28.347 33.9879 28.787 33.5479 28.787 33.0179C28.787 32.4879 28.347 32.0579 27.817 32.0579H27.747C26.287 32.0579 25.457 31.4479 24.427 30.7179C24.157 30.5279 23.867 30.3079 23.557 30.1179L28.227 21.8379C29.387 19.7879 28.917 18.2979 26.877 17.3779L25.467 16.7179L23.947 5.6479C23.727 4.0479 22.677 3.1479 21.097 3.1479H20.377V2.2579C20.377 0.8979 19.497 -0.0021 18.137 -0.0021H10.717C9.357 -0.0021 8.477 0.8979 8.477 2.2579V3.1479H7.777C6.227 3.1479 5.187 4.1579 4.927 5.9179L3.397 16.7079L1.967 17.3779C-0.063 18.2979 -0.533 19.7879 0.607 21.8379ZM10.397 2.3879C10.397 2.0879 10.567 1.9279 10.847 1.9279H18.007C18.287 1.9279 18.457 2.0879 18.457 2.3879V3.1479H10.397ZM16.937 12.8079C16.357 12.5479 15.557 12.1179 14.417 12.1179C13.297 12.1179 12.497 12.5479 11.907 12.8079L5.477 15.7679L6.887 5.9179C6.967 5.3879 7.287 5.0679 7.777 5.0679H21.097C21.607 5.0679 21.937 5.3279 22.007 5.7679L23.377 15.7679ZM8.787 10.0479H13.027C13.437 10.0479 13.707 9.8179 13.707 9.4879V7.2979C13.707 6.9679 13.437 6.7379 13.027 6.7379H8.787C8.457 6.7379 8.237 6.9679 8.237 7.2979V9.4879C8.237 9.8179 8.457 10.0479 8.787 10.0479ZM15.677 10.0479H19.927C20.337 10.0479 20.617 9.8179 20.617 9.4879V7.2979C20.617 6.9679 20.337 6.7379 19.927 6.7379H15.677C15.367 6.7379 15.147 6.9679 15.147 7.2979V9.4879C15.147 9.8179 15.367 10.0479 15.677 10.0479ZM11.507 30.7879C10.617 30.1179 9.497 29.2879 7.927 29.2879C7.657 29.2879 7.397 29.3079 7.147 29.3579L2.337 20.9879C1.747 19.9479 1.977 19.4679 2.727 19.1279L12.687 14.5579C13.337 14.2579 13.787 14.0379 14.417 14.0379C15.047 14.0379 15.497 14.2579 16.167 14.5579L26.107 19.1279C26.857 19.4679 27.097 19.9479 26.507 20.9879L21.697 29.3579C21.447 29.3079 21.187 29.2879 20.917 29.2879C19.347 29.2879 18.217 30.1179 17.337 30.7879C16.387 31.4979 15.647 32.0579 14.417 32.0579C13.187 32.0579 12.447 31.4979 11.507 30.7879Z"
        fillRule="evenodd"
        clipRule="evenodd"
    />
</svg>
        