
<svg
    viewBox="0 0 34.2890625 26.00390625"
    xmlns="http://www.w3.org/2000/svg"
>
    <path
        fill="inherit"
        d="M0.0037 1.103C0.0037 1.713 0.4937 2.203 1.0937 2.203H33.1937C33.7937 2.203 34.2937 1.713 34.2937 1.103C34.2937 0.503 33.7937 0.003 33.1937 0.003H1.0937C0.4937 0.003 0.0037 0.503 0.0037 1.103ZM4.1137 14.153H23.6837V18.953C23.6837 19.923 24.8937 20.413 25.6037 19.673L31.0937 14.093C31.8837 13.293 31.6237 11.863 30.1837 11.863H10.6237V7.073C10.6237 6.093 9.4037 5.603 8.6937 6.343L3.2237 11.923C2.4237 12.733 2.6837 14.153 4.1137 14.153ZM0.0037 24.893C0.0037 25.503 0.4937 26.003 1.0937 26.003H33.1937C33.7937 26.003 34.2937 25.503 34.2937 24.893C34.2937 24.293 33.7937 23.803 33.1937 23.803H1.0937C0.4937 23.803 0.0037 24.293 0.0037 24.893Z"
        fillRule="evenodd"
        clipRule="evenodd"
    />
</svg>
        