
<svg
    viewBox={0 0 31.66872229780071 23.447265625}
    xmlns="http://www.w3.org/2000/svg"
>
    <path
        fill="inherit"
        d="M0.8533 9.884L13.1533 22.134C14.9033 23.884 16.7733 23.884 18.5533 22.134L30.8233 9.884C32.0033 8.694 31.9033 7.244 30.8033 6.094C27.1933 2.334 21.5233 0.004 15.8333 0.004C10.1433 0.004 4.4833 2.354 0.8633 6.094C-0.2267 7.234 -0.3367 8.694 0.8533 9.884ZM2.4733 8.434C2.1733 8.134 2.2033 7.824 2.4633 7.544C5.6733 4.234 10.7033 2.204 15.7833 2.204C20.8633 2.204 25.8433 4.284 29.0933 7.544C29.3733 7.824 29.3833 8.134 29.0833 8.434L17.0133 20.484C16.1733 21.304 15.3833 21.304 14.5533 20.484Z"
        fillRule="evenodd"
        clipRule="evenodd"
    />
</svg>
        