<svg viewBox="0 0 27.890625 27.890625" xmlns="http://www.w3.org/2000/svg"><path d="M13.9427 27.8864C21.6427 27.8864 27.8927 21.6464 27.8927 13.9464C27.8927 6.2464 21.6427 -0.0036 13.9427 -0.0036C6.2527 -0.0036 0.0027 6.2464 0.0027 13.9464C0.0027 21.6464 6.2527 27.8864 13.9427 27.8864ZM13.9427 25.5664C7.5227 25.5664 2.3227 20.3664 2.3227 13.9464C2.3227 7.5164 7.5227 2.3264 13.9427 2.3264C20.3727 2.3264 25.5627 7.5164 25.5627 13.9464C25.5627 20.3664 20.3727 25.5664 13.9427 25.5664ZM15.2127 7.7764C16.1227 7.7764 16.8527 7.0564 16.8527 6.1264C16.8527 5.2264 16.1227 4.4864 15.2127 4.4864C14.3027 4.4864 13.5627 5.2264 13.5627 6.1264C13.5627 7.0564 14.3027 7.7764 15.2127 7.7764ZM7.8727 16.8664H12.8527C13.5227 16.8664 13.8327 16.1064 13.4527 15.6264L11.8827 13.7164L16.3527 13.4164H20.5227C20.9627 13.4164 21.3027 13.0864 21.3027 12.6564C21.3027 12.2464 20.9627 11.8964 20.5227 11.8964H12.7927L14.6327 10.0464C14.6927 9.9764 14.8027 9.9264 14.9127 9.9564L20.4027 10.6464C20.8527 10.6864 21.2627 10.3664 21.2627 9.8964C21.2627 9.5264 20.9727 9.1964 20.5927 9.1464L9.1227 7.6964C8.8727 7.6564 8.6527 7.7364 8.4927 7.9064L6.5627 9.8164C6.2527 10.1264 6.2727 10.5864 6.5627 10.8964C6.8327 11.1864 7.3527 11.2064 7.6527 10.8964L9.2927 9.2464L11.0927 9.4764C11.2627 9.4864 11.3227 9.6664 11.1927 9.7864L9.5127 11.4564C8.8427 12.1264 8.8227 13.1564 9.5127 13.8464L10.9927 15.3564H7.8727C7.4327 15.3564 7.1127 15.6864 7.1127 16.1064C7.1127 16.5164 7.4327 16.8664 7.8727 16.8664ZM14.8327 23.0064C14.8327 23.2664 15.0227 23.4764 15.3027 23.4764C15.5627 23.4764 15.7627 23.2664 15.7627 23.0064V15.1464C15.7627 14.8764 15.5627 14.6664 15.3027 14.6664C15.0227 14.6664 14.8327 14.8764 14.8327 15.1464Z" /></svg>