
<svg
    viewBox="0 0 27.890625 27.890625"
    xmlns="http://www.w3.org/2000/svg"
>
    <path
        fill="inherit"
        d="M13.9427 27.8864C21.6427 27.8864 27.8927 21.6464 27.8927 13.9464C27.8927 6.2464 21.6427 -0.0036 13.9427 -0.0036C6.2527 -0.0036 0.0027 6.2464 0.0027 13.9464C0.0027 21.6464 6.2527 27.8864 13.9427 27.8864ZM13.9427 25.5664C7.5227 25.5664 2.3227 20.3664 2.3227 13.9464C2.3227 7.5164 7.5227 2.3264 13.9427 2.3264C20.3727 2.3264 25.5627 7.5164 25.5627 13.9464C25.5627 20.3664 20.3727 25.5664 13.9427 25.5664ZM11.6927 7.9064C12.3327 7.9064 12.8427 7.3964 12.8427 6.7564C12.8427 6.1064 12.3327 5.5964 11.6927 5.5964C11.0427 5.5964 10.5227 6.1064 10.5227 6.7564C10.5227 7.3964 11.0427 7.9064 11.6927 7.9064ZM15.9927 10.0464C16.9027 10.0464 17.6327 9.2964 17.6327 8.3764C17.6327 7.4764 16.9027 6.7364 15.9927 6.7364C15.0627 6.7364 14.3327 7.4764 14.3327 8.3764C14.3327 9.2964 15.0627 10.0464 15.9927 10.0464ZM5.1427 18.1964H8.7927C9.0127 18.1964 9.1027 18.1564 9.2827 18.1264L13.4527 17.1164C13.5227 17.1064 13.5927 17.1564 13.5727 17.2364L13.3027 19.5064L11.6627 18.3364C11.3027 18.0864 10.8427 18.1864 10.5827 18.5264C10.3327 18.8664 10.4027 19.3564 10.7427 19.6064L13.2727 21.3864C13.8327 21.7964 14.5327 21.6464 14.6727 21.0664L16.7527 12.7164C16.7927 12.6164 16.8727 12.5664 16.9827 12.5764L23.2527 13.8364C23.8427 13.9564 24.1727 13.5264 24.1727 13.0864C24.1727 12.7564 23.9827 12.4164 23.5527 12.3364L17.3727 11.0764C15.3827 10.6764 14.1327 10.4964 12.7127 10.4964H10.8427V8.5764C10.8427 8.1364 10.4827 7.7964 10.0527 7.7964C9.6227 7.7964 9.2827 8.1364 9.2827 8.5764V11.2664C9.2827 11.6864 9.6227 12.0464 10.0527 12.0464H13.2327C13.3827 12.0464 13.4827 12.1564 13.4527 12.3064L12.8227 14.6864C12.7127 15.0664 12.4727 15.3564 12.0827 15.4864L8.7627 16.6664H5.1427C4.7127 16.6664 4.3727 17.0064 4.3727 17.4164C4.3727 17.8664 4.7127 18.1964 5.1427 18.1964Z"
        fillRule="evenodd"
        clipRule="evenodd"
    />
</svg>
        