<svg viewBox="0 0 20.58886253935373 32.07421875" xmlns="http://www.w3.org/2000/svg"><path d="M8.5727 5.9482C10.2127 5.9482 11.5527 4.6082 11.5527 2.9782C11.5527 1.3382 10.2127 -0.0018 8.5727 -0.0018C6.9327 -0.0018 5.5927 1.3382 5.5927 2.9782C5.5927 4.6082 6.9327 5.9482 8.5727 5.9482ZM0.6727 12.9582C-0.9473 15.1982 0.4727 18.2382 3.6727 17.7582L8.6927 17.0082L6.7527 22.7782C6.0927 24.6882 8.7727 25.4882 9.3827 23.6782L11.9627 15.8482C12.2727 14.8982 11.6927 13.9682 10.5827 13.9682H5.6327L8.2327 10.5182C8.4927 10.1582 8.6527 10.1182 8.9927 10.1182H19.2227C19.9727 10.1182 20.5927 9.5182 20.5927 8.7482C20.5927 7.9982 19.9827 7.3782 19.2227 7.3782H6.2227C5.2627 7.3782 4.3327 7.8782 3.7327 8.6982ZM1.8727 31.0382C1.8727 31.6682 2.3127 32.0782 2.9527 32.0782H13.2027C13.8527 32.0782 14.2727 31.6682 14.2727 31.0382V26.9182C14.2727 26.3082 13.8527 25.8982 13.2027 25.8982H2.9527C2.3127 25.8982 1.8727 26.3082 1.8727 26.9182Z" /></svg>