<svg viewBox="0 0 40.2678643302189 33.06287017518444" xmlns="http://www.w3.org/2000/svg"><path d="M18.607 9.5388C19.087 9.5388 19.477 9.1588 19.477 8.6688V4.9488H21.387C22.237 4.9488 22.587 4.1188 22.017 3.4688L19.267 0.3288C18.867 -0.1112 18.367 -0.1112 17.967 0.3288L15.177 3.4688C14.637 4.0588 14.947 4.9488 15.837 4.9488H17.737L17.747 8.6688C17.747 9.1588 18.117 9.5688 18.607 9.5388ZM36.577 12.9888C38.627 12.9888 40.267 11.2788 40.267 9.2988C40.267 7.2288 38.627 5.5688 36.577 5.5688C34.517 5.5688 32.857 7.2288 32.857 9.2988C32.857 11.3388 34.517 12.9888 36.577 12.9888ZM4.097 17.4888C4.567 18.0588 5.417 17.4288 4.967 16.8388C4.667 16.4088 4.587 16.1988 4.587 15.8488C4.587 15.2988 4.967 14.9888 5.267 14.5488C5.997 14.2688 6.827 14.0988 7.537 14.0588C7.657 13.8788 7.757 13.6988 7.757 13.4788C7.757 12.7188 6.717 12.3988 6.717 11.0788C6.717 10.5288 6.897 10.0088 7.307 9.4588C7.787 8.8888 8.657 9.4988 8.207 10.0988C7.897 10.5288 7.807 10.7588 7.807 11.0788C7.807 12.0088 8.847 12.2588 8.847 13.4788C8.847 13.7388 8.797 13.9488 8.727 14.1388C9.287 14.2188 9.877 14.3788 10.377 14.5888C10.147 14.8988 9.947 15.2888 9.947 15.8488C9.947 16.4088 10.137 16.9288 10.557 17.4888C11.027 18.0588 11.887 17.4288 11.417 16.8388C11.137 16.4088 11.037 16.1988 11.037 15.8488C11.037 15.2888 11.447 14.9688 11.747 14.5088L15.317 9.9688C15.687 9.4888 15.617 9.0088 15.177 8.6588C13.667 7.4888 10.787 6.5988 7.767 6.5988C4.767 6.5988 1.887 7.4888 0.387 8.6588C-0.073 9.0088 -0.123 9.4888 0.237 9.9688L3.887 14.6288C3.667 14.9288 3.487 15.3088 3.487 15.8488C3.487 16.4088 3.667 16.9288 4.097 17.4888ZM3.957 14.7088L3.887 14.6288C4.187 14.2088 4.527 13.9188 4.527 13.4788C4.527 12.7188 3.487 12.3988 3.487 11.0788C3.487 10.5288 3.667 10.0088 4.097 9.4588C4.567 8.8888 5.427 9.4988 4.967 10.0988C4.667 10.5288 4.587 10.7588 4.587 11.0788C4.587 12.0088 5.607 12.2588 5.607 13.4788C5.607 13.9488 5.457 14.2688 5.267 14.5488C5.037 14.6288 4.817 14.7388 4.607 14.8388C4.377 14.9688 4.117 14.9288 3.957 14.7088ZM10.917 14.8388C10.747 14.7488 10.577 14.6688 10.377 14.5888C10.667 14.1888 10.997 13.9088 10.997 13.4788C10.997 12.7188 9.947 12.3988 9.947 11.0788C9.947 10.5288 10.117 10.0088 10.577 9.4588C11.037 8.8888 11.887 9.4988 11.437 10.0988C11.137 10.5288 11.037 10.7588 11.037 11.0788C11.037 12.0088 12.077 12.2588 12.077 13.4788C12.077 13.9188 11.927 14.2488 11.747 14.5088L11.587 14.7088C11.437 14.9288 11.177 14.9688 10.917 14.8388ZM18.597 12.3688C18.107 12.3688 17.737 12.7588 17.737 13.2588V16.9688H15.837C14.917 16.9688 14.617 17.8588 15.167 18.4588L17.987 21.5888C18.377 21.9988 18.867 22.0388 19.257 21.5988L22.017 18.4288C22.567 17.7988 22.217 16.9688 21.387 16.9688H19.487L19.477 13.2588C19.477 12.7688 19.067 12.3888 18.597 12.3688ZM7.307 17.4888C7.787 18.0588 8.647 17.4288 8.197 16.8388C7.897 16.4088 7.807 16.1988 7.807 15.8488C7.807 15.1488 8.457 14.8188 8.727 14.1388C8.387 14.0788 8.067 14.0588 7.767 14.0588C7.687 14.0588 7.617 14.0588 7.537 14.0588C7.237 14.5088 6.717 14.9288 6.717 15.8488C6.717 16.4088 6.907 16.9288 7.307 17.4888ZM14.547 32.5488C15.267 33.2888 16.477 33.2388 17.337 32.3388L23.237 26.2588C23.427 26.0588 23.557 26.0088 23.857 26.1288L28.457 27.8588C31.407 28.9988 34.187 28.0288 35.487 25.6788L38.437 20.2988C39.587 18.2088 39.217 16.0488 37.237 14.9888C35.287 13.9288 33.297 14.7288 32.137 16.8688L28.287 23.8588L25.037 22.6688C23.407 22.0788 22.067 22.2688 20.787 23.6088L14.677 29.9288C13.827 30.7988 13.907 31.8988 14.547 32.5488Z" /></svg>