
<svg
    viewBox={0 0 27.181536697633348 31.294921875}
    xmlns="http://www.w3.org/2000/svg"
>
    <path
        fill="inherit"
        d="M17.7737 5.9701C19.4237 5.9701 20.7537 4.6501 20.7537 2.9901C20.7537 1.3401 19.4237 0.0001 17.7737 0.0001C16.1037 0.0001 14.7837 1.3401 14.7837 2.9901C14.7837 4.6501 16.1037 5.9701 17.7737 5.9701ZM4.0737 15.9001C4.9037 16.2801 5.6637 15.9101 5.9837 15.2601L8.4937 10.2701H11.4837C11.8037 10.2701 12.0137 10.5701 11.8537 10.8601L9.2237 16.0601C8.2537 17.9901 9.4437 20.4101 11.9937 20.2601L19.0537 19.8201L16.4437 25.6201C16.1237 26.3601 16.4337 27.2601 17.1737 27.5401C17.9937 27.8501 18.7037 27.6001 19.0537 26.8101L22.6937 18.8301C23.0937 17.9601 22.5337 16.7801 21.4237 16.7801H15.0137L17.8537 11.1001C17.9637 10.8601 18.2637 10.7901 18.4537 10.9901L21.8037 14.1901C22.4737 14.8301 23.6637 14.7201 24.1337 13.8101L27.0137 8.0101C27.3737 7.2901 27.1537 6.4101 26.3837 6.0601C25.6637 5.7101 24.8037 6.0201 24.4437 6.7301L22.4237 10.7201L20.7837 9.0601C19.6737 7.9601 18.4937 7.3801 16.6937 7.3801H7.6037C7.0537 7.3801 6.5637 7.7001 6.3337 8.1801L3.4037 13.9901C3.0537 14.7001 3.3237 15.5301 4.0737 15.9001ZM0.1537 29.9401C0.6037 30.8801 1.6037 30.9001 2.0637 30.6901L9.2837 27.5501C9.5837 27.4101 9.8437 27.1801 9.9937 26.8701L12.6337 21.5501L12.0737 21.5901C10.9237 21.6601 9.9237 21.3301 9.1837 20.7701L7.5637 25.1301L0.9037 28.0001C0.1537 28.3301 -0.2363 29.1801 0.1537 29.9401ZM24.0037 31.2901C25.6937 31.2901 27.0137 29.9801 27.0137 28.3001C27.0137 26.6501 25.6937 25.3201 24.0037 25.3201C22.3537 25.3201 21.0437 26.6501 21.0437 28.3001C21.0437 29.9801 22.3537 31.2901 24.0037 31.2901Z"
        fillRule="evenodd"
        clipRule="evenodd"
    />
</svg>
        