
<svg
    viewBox="0 0 31.801328125 27.775414985638854"
    xmlns="http://www.w3.org/2000/svg"
>
    <path
        fill="inherit"
        d="M12.9583 26.8013H19.2483C21.2583 26.8013 22.3283 25.7013 22.3283 23.5413V14.1213C22.3283 12.2913 21.5583 11.2413 20.0883 10.9513V7.3413C20.0883 3.8813 22.2983 2.0613 24.8583 2.0613C27.4083 2.0613 29.6283 3.8813 29.6283 7.3413V10.3813C29.6283 11.1813 30.1083 11.5913 30.7183 11.5913C31.3083 11.5913 31.7983 11.2213 31.7983 10.3813V7.6313C31.7983 2.4913 28.4383 0.0013 24.8583 0.0013C21.2783 0.0013 17.9283 2.4913 17.9283 7.6313V10.8813H11.0483C10.9883 11.2513 10.8983 11.5713 10.7783 11.8913L13.2883 12.9513H19.1983C19.7883 12.9513 20.1083 13.3013 20.1083 13.9713V23.6913C20.1083 24.3613 19.7883 24.7313 19.1983 24.7313H12.5783L12.8483 25.8413C12.9183 26.1813 12.9783 26.4913 12.9583 26.8013ZM6.9883 12.5113C8.2483 12.5113 9.2283 11.5113 9.2283 10.2713C9.2283 9.0213 8.2483 8.0113 6.9883 8.0113C5.7583 8.0113 4.7283 9.0213 4.7283 10.2713C4.7283 11.5113 5.7583 12.5113 6.9883 12.5113ZM6.9683 20.5513C7.2783 20.5513 7.5183 20.7313 7.5983 21.0713L9.1383 26.9913C9.4883 28.3013 11.2983 27.8313 11.0983 26.5913C11.0183 26.1013 9.7083 21.0913 9.5183 19.9713C9.3783 19.1513 9.4383 17.0613 9.4383 16.1213C9.4383 15.8613 9.6683 15.6813 9.9583 15.8013L12.5683 16.8613C13.2783 17.1413 13.7683 16.8013 13.9083 16.3413C14.0583 15.8713 13.8483 15.3213 13.1983 15.0713L10.3783 13.9013C9.7183 13.6313 9.1383 13.4913 8.4783 13.4013C8.0283 13.6213 7.5183 13.7513 6.9683 13.7513C6.4283 13.7513 5.9383 13.6213 5.4683 13.4013C4.8083 13.4913 4.2283 13.6313 3.5683 13.9013L0.7483 15.0713C0.0983 15.3213 -0.0917 15.8713 0.0383 16.3413C0.1783 16.8013 0.6683 17.1413 1.3783 16.8613L4.0083 15.8013C4.2783 15.6813 4.5083 15.8613 4.5083 16.1213C4.5083 17.0613 4.5783 19.1513 4.4483 19.9713C4.2483 21.0913 2.9283 26.1013 2.8483 26.5913C2.6483 27.8313 4.4683 28.3013 4.8083 26.9913L6.3483 21.0713C6.4383 20.7313 6.6683 20.5513 6.9683 20.5513Z"
        fillRule="evenodd"
        clipRule="evenodd"
    />
</svg>
        