
<svg
    viewBox={0 0 27.890625 27.890625}
    xmlns="http://www.w3.org/2000/svg"
>
    <path
        fill="inherit"
        d="M13.9427 27.8864C21.6427 27.8864 27.8927 21.6264 27.8927 13.9464C27.8927 6.2464 21.6427 -0.0036 13.9427 -0.0036C6.2627 -0.0036 0.0027 6.2464 0.0027 13.9464C0.0027 21.6264 6.2627 27.8864 13.9427 27.8864ZM12.4127 7.8564C12.4127 7.6264 12.6227 7.4264 12.8627 7.4264C13.7227 7.4264 14.3027 7.6264 14.9427 8.2064C15.5827 7.6264 16.1627 7.4264 17.0227 7.4264C17.2827 7.4264 17.4727 7.6264 17.4727 7.8564C17.4727 8.1064 17.2827 8.3164 17.0327 8.3164C16.3227 8.3164 15.9027 8.4464 15.4727 8.9264C15.2827 9.1064 15.1327 9.1964 14.9427 9.1964C14.7627 9.1964 14.5927 9.1064 14.4227 8.9264C13.9727 8.4464 13.5527 8.3164 12.8627 8.3164C12.6027 8.3164 12.4127 8.1064 12.4127 7.8564ZM11.4027 15.0664L13.0127 13.9864C13.2627 13.8364 13.2027 13.5864 13.0527 13.4264L11.6527 11.9864L9.1627 13.7364C8.7327 14.0364 8.2827 13.9364 8.0427 13.6464C7.7227 13.3264 7.6727 12.7664 8.1927 12.3964L11.2527 10.2264C11.6627 9.9364 12.1827 9.9664 12.5327 10.3364L16.9227 14.8864C15.7127 15.2064 15.3127 16.0664 13.9427 16.0664C12.7727 16.0664 12.2627 15.4364 11.4027 15.0664ZM18.0627 13.9464C17.1027 13.9464 16.3527 13.1764 16.3527 12.2464C16.3527 11.2964 17.1027 10.5564 18.0627 10.5564C18.9927 10.5564 19.7527 11.2964 19.7527 12.2464C19.7527 13.1764 18.9927 13.9464 18.0627 13.9464ZM5.8427 18.1664C5.5927 18.1664 5.3427 17.9764 5.3427 17.6864C5.3427 17.4364 5.5927 17.1964 5.8427 17.1964H5.9627C7.4127 17.1964 7.9127 15.9364 9.9427 15.9364C11.9727 15.9364 12.4927 17.1964 13.9427 17.1964C15.4127 17.1964 15.9127 15.9364 17.9527 15.9364C19.9727 15.9364 20.4827 17.1964 21.9327 17.1964H22.0627C22.3027 17.1964 22.5427 17.4364 22.5427 17.6864C22.5427 17.9764 22.3027 18.1664 22.0627 18.1664H21.9327C19.8127 18.1664 19.3627 16.8964 17.9527 16.8964C16.5327 16.8964 16.0827 18.1664 13.9427 18.1664C11.8127 18.1664 11.3627 16.8964 9.9427 16.8964C8.5327 16.8964 8.0827 18.1664 5.9627 18.1664ZM5.8427 20.3164C5.5927 20.3164 5.3427 20.0964 5.3427 19.8264C5.3427 19.5764 5.5927 19.3464 5.8427 19.3464H5.9627C7.4127 19.3464 7.9127 18.0764 9.9427 18.0764C11.9727 18.0764 12.4927 19.3464 13.9427 19.3464C15.4127 19.3464 15.9127 18.0764 17.9527 18.0764C19.9727 18.0764 20.4827 19.3464 21.9327 19.3464H22.0627C22.3027 19.3464 22.5427 19.5764 22.5427 19.8264C22.5427 20.0964 22.3027 20.3164 22.0627 20.3164H21.9327C19.8127 20.3164 19.3627 19.0464 17.9527 19.0464C16.5327 19.0464 16.0827 20.3164 13.9427 20.3164C11.8127 20.3164 11.3627 19.0464 9.9427 19.0464C8.5327 19.0464 8.0827 20.3164 5.9627 20.3164Z"
        fillRule="evenodd"
        clipRule="evenodd"
    />
</svg>
        