
<svg
    viewBox={0 0 18.40234375 37.173828125}
    xmlns="http://www.w3.org/2000/svg"
>
    <path
        fill="inherit"
        d="M7.2237 37.1712C7.9337 37.1712 8.5437 36.5612 8.5437 35.8512V28.6812L9.2037 23.3612L9.8437 28.6812V35.8512C9.8437 36.5612 10.4637 37.1712 11.1737 37.1712C11.8937 37.1712 12.4937 36.5612 12.4937 35.8512V16.7712C12.4937 16.6112 12.7137 16.5812 12.7837 16.7212C14.4537 19.8112 15.4337 22.5712 15.8337 23.7712C16.0737 24.4412 16.8337 24.8312 17.5137 24.5912C18.0437 24.4212 18.3937 23.9112 18.4037 23.3612V13.8512C18.4037 5.0612 15.0937 0.0012 9.2037 0.0012C3.3237 0.0012 0.0137 5.0612 0.0137 13.8512V23.1612C0.0037 23.2312 0.0037 23.3012 0.0037 23.3612C0.0037 23.9012 0.3437 24.4212 0.8937 24.5912C1.5737 24.8312 2.3137 24.4412 2.5537 23.7712C2.9637 22.5712 3.9337 19.8112 5.6237 16.7212C5.6837 16.5812 5.9037 16.6112 5.9037 16.7712V35.8512C5.9037 36.5612 6.5037 37.1712 7.2237 37.1712ZM9.2037 1.5212C14.1137 1.5212 16.8837 6.0412 16.8837 13.8512V19.1512C15.9237 16.9412 14.6037 14.2712 13.1137 12.5912C12.5137 11.9112 11.6237 11.5012 10.6637 11.5012H7.7237C6.7637 11.5012 5.8837 11.9112 5.2937 12.5912C3.8137 14.2612 2.4737 16.9112 1.5337 19.1112V13.8512C1.5337 6.0412 4.2937 1.5212 9.2037 1.5212ZM9.2037 10.0912C10.8137 10.0912 12.1237 8.7812 12.1237 7.1412C12.1237 5.5112 10.8137 4.2112 9.2037 4.2112C7.5637 4.2112 6.2437 5.5112 6.2437 7.1412C6.2437 8.7812 7.5637 10.0912 9.2037 10.0912Z"
        fillRule="evenodd"
        clipRule="evenodd"
    />
</svg>
        