<svg viewBox="0 0 27.890625 27.890625" xmlns="http://www.w3.org/2000/svg"><path d="M13.9427 27.8864C21.6427 27.8864 27.8927 21.6264 27.8927 13.9464C27.8927 6.2464 21.6427 -0.0036 13.9427 -0.0036C6.2627 -0.0036 0.0027 6.2464 0.0027 13.9464C0.0027 21.6264 6.2627 27.8864 13.9427 27.8864ZM10.0327 8.6664C9.0927 8.6664 8.3227 7.9164 8.3227 6.9564C8.3227 6.0264 9.0927 5.2664 10.0327 5.2664C10.9627 5.2664 11.7427 6.0264 11.7427 6.9564C11.7427 7.9164 10.9627 8.6664 10.0327 8.6664ZM14.2027 21.4264C14.2027 21.1764 14.4127 20.9364 14.6827 20.9364C15.8827 20.9364 16.8827 20.1564 17.1727 19.0064L18.9227 12.0064C18.1827 11.6464 17.6827 10.8964 17.6827 10.0464C17.6827 8.8564 18.6527 7.8764 19.8427 7.8764C21.0127 7.8764 22.0127 8.8564 22.0127 10.0464C22.0127 11.1964 21.0527 12.1664 19.8927 12.2064L18.1127 19.2364C18.0427 19.5264 17.9527 19.7964 17.8027 20.0264L19.3027 21.0164C19.7027 21.2764 19.5627 21.9264 19.0727 21.9264H14.6827C14.3927 21.9264 14.2027 21.6664 14.2027 21.4264ZM18.6327 10.0464C18.6327 10.7364 19.1227 11.2564 19.8427 11.2564C20.5227 11.2564 21.0427 10.7364 21.0427 10.0464C21.0427 9.3664 20.5227 8.8464 19.8427 8.8464C19.1227 8.8464 18.6327 9.3664 18.6327 10.0464ZM7.8427 14.7064L8.1227 11.0164C8.1927 10.1164 8.9327 9.4864 9.9427 9.4864C10.5227 9.4864 11.0027 9.6964 11.4127 9.9964L13.3127 11.3464L15.6127 9.6764C15.9527 9.4364 16.4627 9.5264 16.7227 9.8864C16.9627 10.2364 16.9027 10.7164 16.5327 10.9764L13.7627 12.9464C13.4827 13.1664 13.1227 13.1664 12.8527 12.9464L11.2627 11.8264C11.1827 11.7564 11.0927 11.8164 11.0727 11.9064L10.7827 14.9164L14.2227 15.8864C14.7627 16.0364 14.9827 16.4364 14.8327 16.9664L13.6727 21.2364C13.5527 21.7064 13.0927 21.9064 12.7127 21.7964C12.2727 21.6864 12.0127 21.2864 12.1427 20.8264L13.1127 17.3264L9.5427 16.8264C8.3027 16.6564 7.7627 15.8164 7.8427 14.7064ZM7.3327 17.9464C7.1627 17.6464 7.3527 17.2164 7.8227 17.2764L10.4627 17.7164C10.6527 17.7564 10.8327 17.9664 10.8327 18.1664C10.8327 18.3864 10.6827 18.5764 10.4727 18.6164L9.8527 18.7564L10.1627 20.1364C10.2927 20.7364 10.6527 20.9364 11.1327 20.9364C11.4127 20.9364 11.6227 21.1664 11.6227 21.4264C11.6227 21.6864 11.4127 21.9264 11.1327 21.9264H7.7627C7.2227 21.9264 7.0727 21.2764 7.4827 21.0164L9.1227 19.9564L8.9027 18.9664H8.8627C8.2027 19.0764 7.7827 18.7764 7.4827 18.2264Z" /></svg>