
<svg
    viewBox="0 0 27.890625 27.890625"
    xmlns="http://www.w3.org/2000/svg"
>
    <path
        fill="inherit"
        d="M13.9427 27.8864C21.6427 27.8864 27.8927 21.6264 27.8927 13.9464C27.8927 6.2464 21.6427 -0.0036 13.9427 -0.0036C6.2627 -0.0036 0.0027 6.2464 0.0027 13.9464C0.0027 21.6264 6.2627 27.8864 13.9427 27.8864ZM16.0827 7.9864C15.1527 7.9864 14.3827 7.2364 14.3827 6.2764C14.3827 5.3464 15.1527 4.5964 16.0827 4.5964C17.0227 4.5964 17.7727 5.3464 17.7727 6.2764C17.7727 7.2364 17.0227 7.9864 16.0827 7.9864ZM7.6327 16.0464C7.1827 16.0464 6.8227 15.6964 6.8227 15.2464C6.8227 14.7964 7.1827 14.4264 7.6327 14.4264H15.8227V10.8164C15.8227 10.6064 15.6527 10.4164 15.4127 10.4164H9.5027C9.0527 10.4164 8.6927 10.0464 8.6927 9.5964C8.6927 9.1764 9.0627 8.8064 9.5027 8.8064H17.1827C18.0227 8.8064 18.7727 9.1164 19.3427 9.7064L21.3127 11.6664C21.4927 11.8164 21.5627 12.0164 21.5627 12.2264V15.2464C21.5627 15.6964 21.1927 16.0464 20.7427 16.0464C20.3127 16.0464 19.9327 15.6964 19.9327 15.2464V12.5764L19.1827 11.7964C19.0727 11.6864 18.9227 11.7464 18.9227 11.8964V14.6964C18.9227 16.1764 17.8127 16.8564 16.2527 16.6364L12.1127 16.0464ZM5.2927 12.6064C4.2827 11.5764 4.3727 10.4464 4.8127 10.0364C5.2227 9.5864 6.2927 9.5664 7.3027 10.5964C8.3227 11.6064 8.2727 12.6464 7.8727 13.0864C7.4327 13.5064 6.3027 13.6164 5.2927 12.6064ZM18.7027 22.9364C18.3927 23.2664 17.8827 23.2664 17.5827 22.9364L14.5427 19.9164C14.3327 19.6964 14.2627 19.3764 14.3527 19.0864L15.0827 17.1564L16.1627 17.3264C16.4927 17.3664 16.7927 17.3764 17.0627 17.3664L16.1227 19.1964L18.7027 21.8064C19.0027 22.1164 19.0127 22.6264 18.7027 22.9364Z"
        fillRule="evenodd"
        clipRule="evenodd"
    />
</svg>
        