<svg viewBox="0 0 30.495696926216183 31.458984375" xmlns="http://www.w3.org/2000/svg"><path d="M14.8071 5.9438C16.4671 5.9438 17.8071 4.5938 17.8071 2.9838C17.8071 1.3238 16.4671 0.0038 14.8071 0.0038C13.1671 0.0038 11.8471 1.3238 11.8471 2.9838C11.8471 4.5938 13.1671 5.9438 14.8071 5.9438ZM4.1771 28.1738C3.4371 28.9138 3.5971 29.8138 4.1471 30.3138C4.6371 30.7438 5.4871 30.8438 6.1671 30.1638L11.3771 24.9538C11.4871 24.8438 11.5271 24.8038 11.6271 24.6238L14.1971 19.7938C14.5671 19.0838 15.5771 19.0538 16.2071 19.5238L22.0271 23.9438V29.9538C22.0271 30.8838 22.6071 31.4638 23.4471 31.4638C24.2971 31.4638 24.8771 30.8838 24.8771 29.9538V23.2538C24.8771 22.8438 24.7071 22.4938 24.3371 22.1638L17.7771 16.5337V10.4038C17.7771 10.0638 18.0071 9.7938 18.4171 9.7238L29.3071 8.0637C30.0671 7.9438 30.5971 7.2038 30.4771 6.4438C30.3671 5.6737 29.6471 5.1438 28.8771 5.2638L7.1971 8.5438V5.2138C7.9771 4.8637 8.6671 4.3837 9.1871 3.8038C9.5471 3.4037 9.5471 2.8837 9.1871 2.4737C8.1371 1.2838 6.3471 0.5338 4.7371 0.5338C3.1371 0.5338 1.3471 1.2838 0.2771 2.4737C-0.0929 2.8837 -0.0929 3.4037 0.2771 3.8137C1.2571 4.9037 2.8771 5.6337 4.3771 5.7237V10.2038C4.3771 11.0838 5.1071 11.7137 6.0071 11.5838L10.6971 10.8738C11.1171 10.8038 11.4371 11.0738 11.4371 11.4938V17.0337L9.1771 23.1737Z" /></svg>