
<svg
    viewBox="0 0 34.15234375 24.449590994832818"
    xmlns="http://www.w3.org/2000/svg"
>
    <path
        fill="inherit"
        d="M20.2337 5.9455C21.8737 5.9455 23.2137 4.6055 23.2137 2.9655C23.2137 1.3355 21.8737 -0.0045 20.2337 -0.0045C18.5937 -0.0045 17.2537 1.3355 17.2537 2.9655C17.2537 4.6055 18.5937 5.9455 20.2337 5.9455ZM15.3637 22.8355C15.0237 24.6755 17.7837 25.1155 18.1337 23.2455L19.5337 15.5555C19.6737 14.8455 19.2137 14.0655 18.3937 13.9555L13.7637 13.3055L16.6237 10.4455C16.8937 10.1555 17.3037 10.1555 17.5837 10.4455L25.5537 18.4155C26.0837 18.9355 26.9737 18.9855 27.5237 18.4155C28.0537 17.8455 28.0637 16.9955 27.5237 16.4455L16.9537 5.8755C16.3137 5.2355 15.4337 4.8555 14.4937 4.8555H8.3837C8.0137 4.8555 7.6537 5.0055 7.3937 5.2655L3.2137 9.4655C2.6637 10.0055 2.6637 10.8855 3.2137 11.4255C3.7637 11.9755 4.6237 11.9755 5.1637 11.4255L8.9737 7.6455H11.4137C11.6737 7.6455 11.7837 7.8755 11.6037 8.0555L7.8337 11.8155C6.0337 13.6355 6.9837 16.7255 9.8737 16.7255H16.4737ZM7.4537 17.3955L7.0837 21.6155H1.3937C0.6337 21.6155 0.0037 22.2455 0.0037 23.0055C0.0037 23.7755 0.6337 24.4055 1.3937 24.4055H8.3837C9.0737 24.4055 9.6437 23.8755 9.7637 23.1755L10.6937 18.0455H9.8737C8.9137 18.0455 8.0937 17.8055 7.4537 17.3955ZM28.2737 24.4055H32.4537C33.4037 24.4055 34.1537 23.6355 34.1537 22.6955C34.1537 21.7655 33.4037 20.9955 32.4537 20.9955H32.3937V20.5055C32.3937 19.3755 31.5237 18.4955 30.4037 18.4955H28.9737C28.6137 18.4955 28.3237 18.7855 28.3237 19.1455C28.3237 19.4955 28.6137 19.7655 28.9737 19.7655H30.4037C30.8337 19.7655 31.1337 20.0855 31.1337 20.5055V20.9955H28.2737C27.3137 20.9955 26.5537 21.7655 26.5537 22.6955C26.5537 23.6355 27.3137 24.4055 28.2737 24.4055Z"
        fillRule="evenodd"
        clipRule="evenodd"
    />
</svg>
        