<svg viewBox="0 0 26.25349016461794 27.48891105007346" xmlns="http://www.w3.org/2000/svg"><path d="M7.9292 6.0987C9.5892 6.0987 10.9492 4.6887 10.9492 3.0587C10.9492 1.3787 9.5892 -0.0013 7.9292 -0.0013C6.2292 -0.0013 4.8992 1.3787 4.8992 3.0587C4.8992 4.7187 6.2292 6.0987 7.9292 6.0987ZM20.4892 5.0587H25.8892C26.2992 5.0587 26.3692 4.6187 26.0692 4.3987L23.6092 2.7387C23.3292 2.5587 23.0492 2.5587 22.7592 2.7387L20.3092 4.3987C19.9992 4.6187 20.0792 5.0587 20.4892 5.0587ZM12.5492 8.6787L15.1292 5.7987C15.5692 5.2887 15.5392 4.7287 15.0992 4.3787C14.6892 4.0087 14.1592 3.9887 13.6792 4.5287L10.7792 7.7787C11.4092 8.0287 11.9992 8.3387 12.5492 8.6787ZM20.2292 8.7487V12.0587C20.2292 13.0187 20.9292 13.7287 21.8892 13.7287H24.5092C25.4492 13.7287 26.1592 13.0187 26.1592 12.0587V8.7487C26.1592 7.7887 25.4492 7.0787 24.5092 7.0787H21.8892C20.9292 7.0787 20.2292 7.7887 20.2292 8.7487ZM2.0892 17.4087L10.7792 7.7787C9.9192 7.4487 8.9892 7.3187 7.9292 7.3187C4.0192 7.3187 1.6892 9.1987 1.6892 12.3587C1.6892 13.1287 1.7292 14.1387 1.8592 15.1787ZM13.7492 17.4087L13.9992 15.1787C14.1192 14.1387 14.1592 13.1287 14.1592 12.3587C14.1592 10.7987 13.5992 9.5387 12.5492 8.6987L5.6592 16.3487C6.4192 16.2287 7.1692 16.1787 7.9292 16.1787C9.8492 16.1787 11.7792 16.4287 13.7492 17.4087ZM23.1692 11.8287C22.3992 11.8287 21.7292 11.1987 21.7292 10.3887C21.7292 9.6387 22.3992 8.9987 23.1692 8.9987C23.9392 8.9987 24.5892 9.6387 24.5892 10.3887C24.5892 11.1987 23.9392 11.8287 23.1692 11.8287ZM20.2292 18.4687V21.7887C20.2292 22.7487 20.9292 23.4587 21.8892 23.4587H24.5092C25.4492 23.4587 26.1592 22.7487 26.1592 21.7887V18.4687C26.1592 17.5087 25.4492 16.8187 24.5092 16.8187H21.8892C20.9292 16.8187 20.2292 17.5087 20.2292 18.4687ZM0.4192 18.4187C-0.0708 18.7687 -0.0908 19.3487 0.1492 19.7187C0.3692 20.1087 0.8692 20.2987 1.3892 19.9887C1.7192 19.7787 2.0092 19.6087 2.3292 19.4287L2.0892 17.4087C1.4892 17.6787 0.9392 17.9887 0.4192 18.4187ZM4.5792 27.4787C5.3692 27.3687 5.9292 26.7987 5.8092 25.7987L5.2592 20.7587H10.5892L10.0492 25.7987C9.9492 26.7987 10.4692 27.3687 11.2592 27.4787C12.0792 27.5587 12.7092 27.0387 12.8192 26.0887L13.5292 19.4287C13.8492 19.6087 14.1292 19.7787 14.4492 19.9887C14.9692 20.2987 15.4592 20.1287 15.6892 19.7387C15.9392 19.3587 15.9392 18.7887 15.4492 18.4187C14.9092 17.9887 14.3692 17.6787 13.7492 17.4087L13.5192 19.4187C11.7492 18.3987 9.7992 18.0087 7.9292 18.0087C6.0392 18.0087 4.0792 18.3987 2.3292 19.4287L3.0192 26.0887C3.1292 27.0387 3.7592 27.5587 4.5792 27.4787ZM23.1692 21.5587C22.3992 21.5587 21.7292 20.9187 21.7292 20.1287C21.7292 19.3587 22.3992 18.7187 23.1692 18.7187C23.9392 18.7187 24.5892 19.3587 24.5892 20.1287C24.5892 20.9187 23.9392 21.5587 23.1692 21.5587Z" /></svg>