
<svg
    viewBox="0 0 28.65625 25.9765625"
    xmlns="http://www.w3.org/2000/svg"
>
    <path
        fill="inherit"
        d="M3.7309 25.9777H24.9209C27.2509 25.9777 28.6609 24.3677 28.6609 22.2677C28.6609 21.6277 28.4609 20.9577 28.1209 20.3577L17.5109 1.8777C16.8009 0.6277 15.5909 -0.0023 14.3309 -0.0023C13.0709 -0.0023 11.8409 0.6277 11.1409 1.8777L0.5309 20.3577C0.1609 20.9677 0.0009 21.6277 0.0009 22.2677C0.0009 24.3677 1.4109 25.9777 3.7309 25.9777ZM14.5709 9.0777C13.7009 9.0777 13.0009 8.3677 13.0009 7.5377C13.0009 6.6577 13.7009 5.9577 14.5709 5.9577C15.4309 5.9577 16.1309 6.6577 16.1309 7.5377C16.1309 8.3677 15.4309 9.0777 14.5709 9.0777ZM16.2709 21.7277L14.7009 18.5377C14.6409 18.4277 14.6109 18.3477 14.4609 18.1577L12.9509 16.2677C12.3909 15.5677 12.1909 15.1577 12.2609 14.3377L12.3709 12.6977C12.4009 12.5077 12.1309 12.3877 11.9309 12.5777L11.3909 13.0577L11.2209 14.9877C11.1809 15.4677 10.9409 15.7077 10.5109 15.6577C10.1209 15.6377 9.8709 15.3377 9.9009 14.9177L10.0209 13.1377C10.0609 12.6577 10.1709 12.3577 10.5509 11.9777L11.6909 10.8677C12.4309 10.1577 12.9509 9.7577 13.7309 9.7577C14.7609 9.7577 15.4109 10.5277 15.3309 11.5677L15.1609 13.7177C15.1109 14.4877 15.0409 14.9577 14.7409 15.7177L14.7009 15.9177L15.6709 17.2977C15.7909 17.4977 15.9709 17.7477 16.0609 17.9777L17.5909 21.0677C18.1009 22.0777 16.7209 22.6377 16.2709 21.7277ZM18.8709 12.6877C19.3009 12.6877 19.5909 12.9377 19.5909 13.3477C19.5909 13.7677 19.3009 14.0177 18.8709 14.0177H17.2509C16.8209 14.0177 16.6009 13.9277 16.3609 13.6977L15.9109 13.2477L16.0409 11.4677L17.1409 12.6877ZM10.8109 21.9177C10.2109 22.6277 9.0609 21.8077 9.7709 20.9677L11.9909 18.3377L12.3409 16.6477L13.5509 18.1577L13.3709 18.6777C13.3009 18.9377 13.2609 19.0077 13.0609 19.2477Z"
        fillRule="evenodd"
        clipRule="evenodd"
    />
</svg>
        