
<svg
    viewBox={0 0 20.788392841696254 29.46037528664282}
    xmlns="http://www.w3.org/2000/svg"
>
    <path
        fill="inherit"
        d="M10.483 6.7122C12.363 6.7122 13.833 5.2222 13.833 3.3622C13.833 1.5022 12.343 0.0022 10.483 0.0022C8.643 0.0022 7.133 1.5022 7.133 3.3622C7.133 5.2222 8.623 6.7122 10.483 6.7122ZM10.393 18.6922C10.853 18.6922 11.183 18.9522 11.323 19.4722L13.603 28.2622C14.123 30.2422 16.833 29.5722 16.543 27.6822C16.433 26.9622 14.463 19.5222 14.173 17.8422C13.963 16.6022 14.053 13.4822 14.053 12.1122C14.053 11.6922 14.413 11.4822 14.833 11.6522L18.713 13.2022C19.753 13.6322 20.523 13.1122 20.723 12.4022C20.933 11.7422 20.643 10.9222 19.673 10.5122L15.463 8.7922C14.503 8.3922 13.633 8.1622 12.673 8.0522C11.993 8.3922 11.213 8.5722 10.393 8.5722C9.583 8.5722 8.803 8.3922 8.123 8.0522C7.153 8.1622 6.293 8.3922 5.333 8.7922L1.123 10.5122C0.153 10.9222 -0.147 11.7422 0.063 12.4022C0.273 13.1122 1.023 13.6322 2.063 13.2022L5.963 11.6522C6.383 11.4822 6.723 11.6922 6.723 12.1122C6.723 13.4822 6.823 16.6022 6.613 17.8422C6.333 19.5222 4.343 26.9622 4.233 27.6822C3.953 29.5722 6.673 30.2422 7.173 28.2622L9.463 19.4722C9.593 18.9522 9.943 18.6922 10.393 18.6922Z"
        fillRule="evenodd"
        clipRule="evenodd"
    />
</svg>
        