
<svg
    viewBox="0 0 27.890625 27.890625"
    xmlns="http://www.w3.org/2000/svg"
>
    <path
        fill="inherit"
        d="M13.9427 27.8864C21.6427 27.8864 27.8927 21.6464 27.8927 13.9464C27.8927 6.2464 21.6427 -0.0036 13.9427 -0.0036C6.2527 -0.0036 0.0027 6.2464 0.0027 13.9464C0.0027 21.6464 6.2527 27.8864 13.9427 27.8864ZM13.9427 25.5664C7.5227 25.5664 2.3227 20.3664 2.3227 13.9464C2.3227 7.5164 7.5227 2.3264 13.9427 2.3264C20.3727 2.3264 25.5627 7.5164 25.5627 13.9464C25.5627 20.3664 20.3727 25.5664 13.9427 25.5664ZM10.3127 17.6764C11.2227 18.7764 12.7027 18.6064 13.4527 17.4964L20.1827 7.4264C20.4227 7.0664 20.3127 6.5764 19.9427 6.3264C19.6027 6.0864 19.1027 6.1964 18.8527 6.5664L15.8027 11.1464C15.4327 11.6864 14.8327 11.9664 14.1927 11.9664C13.5127 11.9664 12.7927 11.6364 12.3627 10.9964L9.3927 6.5664C9.1627 6.1964 8.6727 6.0864 8.3027 6.3264C7.9327 6.5764 7.8427 7.0664 8.0927 7.4264L11.7327 12.8764C11.8927 13.1264 12.0427 13.2364 11.7327 13.7264L10.8327 15.0964L8.5627 13.1264C8.2327 12.8564 7.7427 12.8264 7.3927 13.1764L4.5927 15.9864C4.2927 16.3064 4.2927 16.7864 4.5927 17.0864C4.9527 17.4164 5.4027 17.3664 5.7027 17.0864L7.9527 14.8464ZM6.7627 7.1264H7.3027C7.2827 6.8364 7.3427 6.5264 7.4927 6.2464H6.7627C6.5327 6.2464 6.3427 6.4364 6.3427 6.6864C6.3427 6.9364 6.5327 7.1264 6.7627 7.1264ZM10.5527 7.1264H17.6827L18.1527 6.4264C18.1927 6.3564 18.2127 6.3164 18.2527 6.2464H9.9827C10.0327 6.3264 10.0627 6.3664 10.1027 6.4264ZM20.9427 7.1264H21.3027C21.5427 7.1264 21.7227 6.9364 21.7227 6.6864C21.7227 6.4364 21.5427 6.2464 21.3027 6.2464H20.7527C20.9027 6.4964 20.9727 6.8064 20.9427 7.1264ZM14.1927 11.1664C15.0927 11.1664 15.8427 10.4464 15.8427 9.5264C15.8427 8.6164 15.0927 7.8764 14.1927 7.8764C13.2727 7.8764 12.5227 8.6164 12.5227 9.5264C12.5227 10.4464 13.2727 11.1664 14.1927 11.1664ZM11.9127 23.3064C12.1427 22.9364 12.0627 22.4864 11.6727 22.2464L9.2027 20.5864L10.7727 18.8564C10.4327 18.7064 10.1027 18.4464 9.8027 18.1064L9.2727 17.4564L7.3527 20.2864C7.1227 20.6464 7.1927 21.1464 7.5727 21.3864L10.8327 23.5264C11.2127 23.7764 11.6727 23.6564 11.9127 23.3064Z"
        fillRule="evenodd"
        clipRule="evenodd"
    />
</svg>
        