
<svg
    viewBox={0 0 27.890625 27.890625}
    xmlns="http://www.w3.org/2000/svg"
>
    <path
        fill="inherit"
        d="M13.9427 27.8864C21.6427 27.8864 27.8927 21.6464 27.8927 13.9464C27.8927 6.2464 21.6427 -0.0036 13.9427 -0.0036C6.2527 -0.0036 0.0027 6.2464 0.0027 13.9464C0.0027 21.6464 6.2527 27.8864 13.9427 27.8864ZM13.9427 25.5664C7.5227 25.5664 2.3227 20.3664 2.3227 13.9464C2.3227 7.5164 7.5227 2.3264 13.9427 2.3264C20.3727 2.3264 25.5627 7.5164 25.5627 13.9464C25.5627 20.3664 20.3727 25.5664 13.9427 25.5664ZM17.6227 7.5564C18.4327 7.5564 19.0727 6.9164 19.0727 6.0964C19.0727 5.2864 18.4327 4.6364 17.6227 4.6364C16.8027 4.6364 16.1627 5.2864 16.1627 6.0964C16.1627 6.9164 16.8027 7.5564 17.6227 7.5564ZM12.2727 10.4464C13.1827 10.4464 13.9327 9.7064 13.9327 8.7764C13.9327 7.8764 13.1827 7.1364 12.2727 7.1364C11.3627 7.1364 10.6327 7.8764 10.6327 8.7764C10.6327 9.7064 11.3627 10.4464 12.2727 10.4464ZM7.9127 14.1264C7.9127 14.7064 8.5127 14.9964 8.9927 14.7564L11.6527 13.4264C11.7727 13.3564 11.9127 13.4364 11.9527 13.5664L12.7027 16.6564L11.5027 19.6564H8.6727C8.2627 19.6564 7.9127 20.0064 7.9127 20.3964C7.9127 20.8064 8.2627 21.1464 8.6727 21.1464H11.9727C12.3027 21.1464 12.5227 21.0164 12.6827 20.7164L14.3027 17.7364L15.1927 20.0964L12.3427 22.0164C11.9927 22.2464 11.9127 22.7064 12.1227 23.0464C12.3627 23.3764 12.7927 23.4864 13.1527 23.2464L16.5327 20.9864C16.7927 20.8264 16.9127 20.5864 16.7927 20.1364L14.7927 12.1664C14.7527 11.9864 14.7827 11.8364 14.9727 11.7464L19.4427 9.5264C19.8127 9.3564 19.9627 8.8964 19.7727 8.5264C19.5827 8.1464 19.1427 8.0264 18.7727 8.2064L9.4027 12.8764V10.3764C9.4027 9.9664 9.0827 9.6364 8.6727 9.6364C8.2627 9.6364 7.9127 9.9664 7.9127 10.3764Z"
        fillRule="evenodd"
        clipRule="evenodd"
    />
</svg>
        