
<svg
    viewBox={0 0 27.890625 27.890625}
    xmlns="http://www.w3.org/2000/svg"
>
    <path
        fill="inherit"
        d="M13.9427 27.8864C21.6427 27.8864 27.8927 21.6464 27.8927 13.9464C27.8927 6.2464 21.6427 -0.0036 13.9427 -0.0036C6.2527 -0.0036 0.0027 6.2464 0.0027 13.9464C0.0027 21.6464 6.2527 27.8864 13.9427 27.8864ZM13.9427 25.5664C7.5227 25.5664 2.3227 20.3664 2.3227 13.9464C2.3227 7.5164 7.5227 2.3264 13.9427 2.3264C20.3727 2.3264 25.5627 7.5164 25.5627 13.9464C25.5627 20.3664 20.3727 25.5664 13.9427 25.5664ZM13.2327 7.2964C14.0727 7.2964 14.7527 6.6264 14.7527 5.7864C14.7527 4.9364 14.0727 4.2664 13.2327 4.2664C12.4027 4.2664 11.7127 4.9364 11.7127 5.7864C11.7127 6.6264 12.4027 7.2964 13.2327 7.2964ZM14.6127 18.6764C15.0427 19.5464 16.3127 19.0064 15.8627 18.0764L14.6427 15.5964C14.5327 15.3764 14.3827 15.1664 14.2427 14.9564L13.3527 13.6764L13.4127 13.4964C13.6327 12.7664 13.7527 12.3364 13.7927 11.6164L13.9327 9.6064C14.0027 8.6564 13.4427 7.9264 12.4527 7.9264C11.7127 7.9264 11.2227 8.2964 10.5527 8.9664L9.4927 10.0064C9.1427 10.3464 9.0327 10.6264 8.9927 11.0864L8.8727 12.7264C8.8427 13.1364 9.0627 13.4364 9.4427 13.4564C9.8327 13.4664 10.0727 13.2464 10.1027 12.8064L10.2627 10.9964L10.7727 10.5364C10.9527 10.3764 11.2127 10.4764 11.1927 10.6664L11.0727 12.1964C11.0227 12.9764 11.1927 13.3464 11.7327 13.9964L13.1527 15.7764C13.2627 15.9264 13.3027 16.0264 13.3527 16.1364ZM15.7327 11.9064H17.2427C17.6527 11.9064 17.9327 11.6664 17.9327 11.2664C17.9327 10.8864 17.6527 10.6364 17.2427 10.6364H15.6227L14.5927 9.5064L14.4827 11.1964L14.9027 11.6064C15.1327 11.8364 15.3227 11.9064 15.7327 11.9064ZM19.7427 19.0464L20.4827 18.9864C20.5927 18.9864 20.6327 18.9864 20.7127 18.9864L21.9127 12.0864L23.5327 11.3464C23.7727 11.2264 23.8527 10.9364 23.7727 10.7064C23.6627 10.4764 23.3827 10.3664 23.1327 10.4864L19.6227 12.1264C19.3627 12.2464 19.2727 12.5264 19.3827 12.7564C19.4827 12.9864 19.7727 13.0964 20.0127 12.9764L20.8727 12.5764ZM9.6627 19.3464L11.8127 16.7864C12.0127 16.5564 12.0427 16.5064 12.1227 16.2464L12.2927 15.7664L11.1527 14.3564L10.8327 15.9364L8.7127 18.4264C8.0427 19.2064 9.1227 19.9864 9.6627 19.3464ZM6.4127 21.3264H20.7627C21.2427 21.3264 21.6127 20.9564 21.6127 20.4764C21.6127 19.9164 21.1927 19.6164 20.6127 19.6464L6.4127 20.5364C6.1927 20.5464 6.0327 20.7164 6.0327 20.9464C6.0327 21.1464 6.1927 21.3264 6.4127 21.3264Z"
        fillRule="evenodd"
        clipRule="evenodd"
    />
</svg>
        