<svg viewBox="0 0 35.82554540528776 27.7103271484375" xmlns="http://www.w3.org/2000/svg"><path d="M28.8637 13.8801C32.7337 13.8801 35.8237 10.6901 35.8237 6.9901C35.8237 3.1201 32.7337 0.0001 28.8637 0.0001C25.0037 0.0001 21.9837 3.1201 21.9837 6.9901C21.9837 10.6901 25.0037 13.8801 28.8637 13.8801ZM13.3037 7.6601C15.3637 7.6601 17.0237 5.9901 17.0237 3.9601C17.0237 1.9001 15.3637 0.2201 13.3037 0.2201C11.2537 0.2201 9.6237 1.9001 9.6237 3.9601C9.6237 5.9501 11.2537 7.6601 13.3037 7.6601ZM15.6937 21.8201L20.3437 16.2101L17.7637 11.5301C16.5737 9.3901 14.5837 8.5701 12.6637 9.6401C10.6637 10.7001 10.2937 12.8501 11.4537 14.9601L13.9737 19.5201C14.5237 20.5401 15.0837 21.3401 15.6937 21.8201ZM0.9937 27.6901H7.5437C8.0537 27.6901 8.4237 27.3301 8.4237 26.8401C8.4237 26.3301 8.0537 25.9801 7.5437 25.9801H2.9137V25.9401L5.8837 22.7401C6.9337 21.6201 7.7237 20.6301 7.7237 19.2201C7.7237 17.2701 6.2037 16.0001 3.8237 16.0001C2.0637 16.0001 0.4937 17.0601 0.0837 18.5101C0.0237 18.7001 0.0037 18.8501 0.0037 19.0301C0.0037 19.5401 0.3237 19.8801 0.8637 19.8801C1.3137 19.8801 1.5437 19.5901 1.7937 19.2101C2.1037 18.4601 2.7637 17.6801 3.9137 17.6801C5.0737 17.6801 5.8637 18.3601 5.8637 19.3601C5.8637 20.2501 5.1037 21.0001 4.3737 21.7801L0.3937 26.0601C0.1737 26.2901 0.0537 26.5401 0.0537 26.8401C0.0537 27.3601 0.4137 27.6901 0.9937 27.6901ZM35.3237 27.1901C35.9737 26.5501 36.0537 25.4601 35.2037 24.5801L29.0937 18.2701C27.8037 16.9301 26.4537 16.7301 24.8537 17.3201L21.3537 18.5901L17.9337 22.8201C18.8037 22.9801 19.9737 23.0601 21.0537 22.6501L26.0137 20.7801C26.3337 20.6601 26.4537 20.7101 26.6637 20.9201L32.5437 26.9901C33.4137 27.8801 34.6337 27.9501 35.3237 27.1901ZM12.7237 27.3601C13.3037 27.8401 13.9637 27.7101 14.4637 27.1001L17.9337 22.8201C17.1537 22.6501 16.3937 22.3101 15.6937 21.8201L12.6637 25.5901C12.1437 26.2401 12.1637 26.9201 12.7237 27.3601Z" /></svg>