
<svg
    viewBox={0 0 27.890625 27.890625}
    xmlns="http://www.w3.org/2000/svg"
>
    <path
        fill="inherit"
        d="M13.9427 27.8864C21.6427 27.8864 27.8927 21.6464 27.8927 13.9464C27.8927 6.2464 21.6427 -0.0036 13.9427 -0.0036C6.2527 -0.0036 0.0027 6.2464 0.0027 13.9464C0.0027 21.6464 6.2527 27.8864 13.9427 27.8864ZM13.9427 25.5664C7.5227 25.5664 2.3227 20.3664 2.3227 13.9464C2.3227 7.5164 7.5227 2.3264 13.9427 2.3264C20.3727 2.3264 25.5627 7.5164 25.5627 13.9464C25.5627 20.3664 20.3727 25.5664 13.9427 25.5664ZM14.5027 7.6964C15.4127 7.6964 16.1427 6.9564 16.1427 6.0464C16.1427 5.1364 15.4127 4.4064 14.5027 4.4064C13.5727 4.4064 12.8527 5.1364 12.8527 6.0464C12.8527 6.9564 13.5727 7.6964 14.5027 7.6964ZM16.2527 12.1164C16.5827 12.4364 17.1727 12.4164 17.4327 11.9864L19.2727 9.0364C19.8427 8.1364 18.5027 7.4264 17.9927 8.2464L16.6627 10.3764L15.6127 9.3364C14.6327 8.3364 13.5227 8.1364 12.0027 8.3164L9.3227 8.6164C8.9727 8.6364 8.6927 8.9364 8.6527 9.2564L8.2727 12.2264C8.1527 13.1764 9.6527 13.4264 9.7727 12.4164L10.0727 10.0364L11.4727 9.8664C11.6727 9.8564 11.8127 9.9964 11.7827 10.2164L11.4127 13.1064C11.2427 14.4764 12.0427 15.2764 13.4027 15.1764L16.1727 14.9864L15.3427 18.0064C15.0627 19.0264 16.5427 19.3864 16.8027 18.4064L17.8827 14.3564C18.0327 13.8464 17.6827 13.4264 17.1027 13.4264H14.2427L14.6027 10.9364C14.6427 10.6864 14.8427 10.6864 15.0027 10.8464ZM12.1727 15.6664L11.9727 18.4464L10.5727 21.9964C10.3227 22.6264 10.7727 23.0664 11.2427 23.0664C11.5427 23.0664 11.8127 22.8964 11.9727 22.5264L13.4227 18.8964C13.4427 18.8264 13.4527 18.7764 13.4627 18.7164L13.9227 15.8064L13.4527 15.8464C12.9927 15.8764 12.6427 15.8364 12.1727 15.6664Z"
        fillRule="evenodd"
        clipRule="evenodd"
    />
</svg>
        