
<svg
    viewBox={0 0 25.989877950393762 34.138671875}
    xmlns="http://www.w3.org/2000/svg"
>
    <path
        fill="inherit"
        d="M18.4333 5.9736C20.0833 5.9736 21.4233 4.6336 21.4233 2.9836C21.4233 1.3236 20.0833 0.0036 18.4333 0.0036C16.7733 0.0036 15.4533 1.3236 15.4533 2.9836C15.4533 4.6336 16.7733 5.9736 18.4333 5.9736ZM7.4533 30.9936H16.9933C18.5133 30.9936 19.7533 30.6836 20.7233 29.8436C21.1233 29.5136 21.1133 29.0936 20.9133 28.8036C20.7033 28.4736 20.2033 28.3136 19.7533 28.6536C19.0333 29.2336 18.2633 29.4736 16.9933 29.4736H16.8533V21.5036C16.8533 21.0936 16.7633 20.7136 16.4833 20.3536L13.0533 15.9936L15.9833 11.5136C16.1733 11.2236 16.5833 11.2236 16.7333 11.5536L17.7033 13.5036C17.9533 13.9736 18.4333 14.2836 18.9633 14.2836H24.5933C25.3633 14.2836 25.9933 13.6536 25.9933 12.8836C25.9933 12.1136 25.3633 11.4836 24.5933 11.4836H19.8233L18.3433 8.4936C17.7633 7.3136 16.5533 6.5636 15.2133 6.5636H7.7233C7.2633 6.5636 6.8033 6.7936 6.5533 7.1936L3.7433 11.4136C3.3233 12.0436 3.5033 12.9236 4.1433 13.3436C4.7733 13.7836 5.6433 13.6036 6.0833 12.9436L8.4733 9.3636H10.7833C10.9633 9.3636 11.0733 9.5336 10.9633 9.7036L8.6033 13.2636C7.8633 14.3536 8.0133 15.8436 8.9533 16.7936L14.0533 21.9136V29.4736H7.4533C6.1633 29.4736 5.4133 29.2336 4.6733 28.6536C4.2633 28.3436 3.8233 28.4536 3.5933 28.7236C3.3233 29.0136 3.2833 29.4736 3.7033 29.8436C4.6733 30.6836 5.9233 30.9936 7.4533 30.9936ZM0.4933 18.8536L6.0033 23.6836C6.8733 24.4636 7.8433 24.0536 8.2733 23.3836L10.3933 20.1136L8.0633 17.7836C8.0433 17.7436 8.0133 17.7236 7.9733 17.6736L6.5933 20.4536L2.3233 16.7336C1.7533 16.2436 0.8633 16.2836 0.3533 16.8736C-0.1667 17.4636 -0.1067 18.3436 0.4933 18.8536ZM7.4533 34.1436C8.0933 34.1436 8.6433 33.6036 8.6433 32.9636C8.6433 32.3236 8.0933 31.7736 7.4533 31.7736C6.8033 31.7736 6.2633 32.3236 6.2633 32.9636C6.2633 33.6036 6.8033 34.1436 7.4533 34.1436ZM16.9933 34.1436C17.6333 34.1436 18.1733 33.6036 18.1733 32.9636C18.1733 32.3236 17.6333 31.7736 16.9933 31.7736C16.3533 31.7736 15.8033 32.3236 15.8033 32.9636C15.8033 33.6036 16.3533 34.1436 16.9933 34.1436Z"
        fillRule="evenodd"
        clipRule="evenodd"
    />
</svg>
        