<svg viewBox="0 0 12.87890625 30.43359375" xmlns="http://www.w3.org/2000/svg"><path d="M6.4437 5.9646C8.0937 5.9646 9.4237 4.6346 9.4237 2.9846C9.4237 1.3246 8.0937 0.0046 6.4437 0.0046C4.7837 0.0046 3.4637 1.3246 3.4637 2.9846C3.4637 4.6346 4.7837 5.9646 6.4437 5.9646ZM0.0037 18.4346C0.0037 19.1146 0.5337 19.6446 1.2137 19.6446C1.8837 19.6446 2.4237 19.1146 2.4237 18.4346V13.1646C2.4237 12.9246 2.6237 12.7246 2.8737 12.7246C3.1137 12.7246 3.3037 12.9246 3.3037 13.1646V29.1046C3.3037 29.8446 3.9137 30.4346 4.6437 30.4346C5.3837 30.4346 5.9837 29.8446 5.9837 29.1046V19.4146C5.9837 19.1646 6.1937 18.9446 6.4437 18.9446C6.6837 18.9446 6.9037 19.1646 6.9037 19.4146V29.1046C6.9037 29.8446 7.4937 30.4346 8.2337 30.4346C8.9737 30.4346 9.5737 29.8446 9.5737 29.1046V13.1646C9.5737 12.9246 9.7637 12.7246 10.0037 12.7246C10.2537 12.7246 10.4637 12.9246 10.4637 13.1646V18.4346C10.4637 19.1146 10.9937 19.6446 11.6637 19.6446C12.3437 19.6446 12.8837 19.1146 12.8837 18.4346V12.5546C12.8837 9.5246 10.6637 7.5346 7.4237 7.5346H5.4537C2.2137 7.5346 0.0037 9.5246 0.0037 12.5546Z" /></svg>