
<svg
    viewBox={0 0 27.890625 27.890625}
    xmlns="http://www.w3.org/2000/svg"
>
    <path
        fill="inherit"
        d="M13.9437 27.8864C21.6437 27.8864 27.8937 21.6264 27.8937 13.9464C27.8937 6.2464 21.6437 -0.0036 13.9437 -0.0036C6.2637 -0.0036 0.0037 6.2464 0.0037 13.9464C0.0037 21.6264 6.2637 27.8864 13.9437 27.8864ZM16.6437 9.1564C15.6937 9.1564 14.9337 8.4064 14.9337 7.4664C14.9337 6.5064 15.6937 5.7564 16.6437 5.7564C17.5637 5.7564 18.3337 6.5064 18.3337 7.4664C18.3337 8.4064 17.5637 9.1564 16.6437 9.1564ZM9.1437 9.2864C8.6837 8.8064 8.8837 7.9864 9.6637 7.9864H12.6637C13.2037 7.9864 13.7237 8.2064 14.1237 8.5864L17.6537 12.0864C17.8237 12.2464 17.8837 12.4264 17.8837 12.6464V16.1464C17.8837 16.1964 17.8737 16.2264 17.8537 16.2864L20.3937 18.8264H22.7637C22.9937 18.8264 23.2037 19.0264 23.2037 19.2764V19.6564C23.2037 19.8964 22.9937 20.0964 22.7637 20.0964H20.6537C20.5037 20.0964 20.4237 20.0664 20.2637 19.9164L17.2437 16.8964C17.1837 16.9164 17.1537 16.9164 17.1037 16.9164C16.6637 16.9164 16.3137 16.5864 16.3137 16.1464V15.9664L12.5937 12.2464L11.4037 12.8364L13.7537 15.2164C14.0037 15.4464 14.0537 15.8064 13.9037 16.1064L11.9637 19.9864C11.7437 20.4364 11.2137 20.5064 10.9137 20.3464C10.5237 20.1364 10.3637 19.6864 10.5537 19.3064L12.2137 15.9864L9.2037 13.7764C7.8637 12.7964 8.2537 10.9364 9.6937 10.3664L10.0637 10.2264ZM13.4137 11.8364L16.3137 14.7264V12.9564L14.7837 11.4164C14.6837 11.3164 14.5037 11.2764 14.3737 11.3564ZM3.7437 16.5464C3.7437 16.1064 4.0837 15.7664 4.5237 15.7664H7.5837L8.2337 13.7764C8.3237 13.9464 8.5337 14.1464 8.7937 14.3264L9.7637 15.0264L8.8337 16.8664C8.6937 17.1264 8.4537 17.3264 8.1437 17.3264H4.5237C4.0837 17.3264 3.7437 16.9664 3.7437 16.5464Z"
        fillRule="evenodd"
        clipRule="evenodd"
    />
</svg>
        