
<svg
    viewBox={0 0 27.890625 27.890625}
    xmlns="http://www.w3.org/2000/svg"
>
    <path
        fill="inherit"
        d="M13.9427 27.8864C21.6427 27.8864 27.8927 21.6464 27.8927 13.9464C27.8927 6.2464 21.6427 -0.0036 13.9427 -0.0036C6.2527 -0.0036 0.0027 6.2464 0.0027 13.9464C0.0027 21.6464 6.2527 27.8864 13.9427 27.8864ZM13.9427 25.5664C7.5227 25.5664 2.3227 20.3664 2.3227 13.9464C2.3227 7.5164 7.5227 2.3264 13.9427 2.3264C20.3727 2.3264 25.5627 7.5164 25.5627 13.9464C25.5627 20.3664 20.3727 25.5664 13.9427 25.5664ZM12.4427 8.0564C12.4427 8.2864 12.6327 8.4764 12.8827 8.4764C13.5527 8.4764 13.9627 8.6164 14.3927 9.0764C14.5627 9.2564 14.7227 9.3364 14.9027 9.3364C15.0827 9.3364 15.2327 9.2564 15.4127 9.0764C15.8327 8.6164 16.2427 8.4764 16.9227 8.4764C17.1627 8.4764 17.3527 8.2864 17.3527 8.0564C17.3527 7.8164 17.1627 7.6264 16.9127 7.6264C16.0827 7.6264 15.5127 7.8164 14.9027 8.3764C14.2727 7.8164 13.7127 7.6264 12.8827 7.6264C12.6427 7.6264 12.4427 7.8164 12.4427 8.0564ZM11.4727 15.0264C12.3027 15.3964 12.7927 15.9964 13.9327 15.9964C15.2627 15.9964 15.6427 15.1664 16.8127 14.8564L12.5627 10.4464C12.2227 10.0864 11.7127 10.0664 11.3227 10.3364L8.3527 12.4364C7.8427 12.8064 7.9027 13.3464 8.2027 13.6564C8.4527 13.9364 8.8827 14.0364 9.2927 13.7364L11.7027 12.0464L13.0727 13.4364C13.2227 13.6064 13.2627 13.8364 13.0327 13.9864ZM17.9227 13.9464C18.8227 13.9464 19.5627 13.2064 19.5627 12.3064C19.5627 11.3764 18.8227 10.6464 17.9227 10.6464C16.9927 10.6464 16.2727 11.3764 16.2727 12.3064C16.2727 13.2064 16.9927 13.9464 17.9227 13.9464ZM6.0727 18.0364H6.1827C8.2427 18.0364 8.6827 16.8064 10.0527 16.8064C11.4327 16.8064 11.8627 18.0364 13.9327 18.0364C15.9927 18.0364 16.4327 16.8064 17.8127 16.8064C19.1827 16.8064 19.6227 18.0364 21.6827 18.0364H21.8027C22.0427 18.0364 22.2727 17.8564 22.2727 17.5664C22.2727 17.3264 22.0427 17.1064 21.8027 17.1064H21.6827C20.2727 17.1064 19.7827 15.8764 17.8127 15.8764C15.8427 15.8764 15.3527 17.1064 13.9327 17.1064C12.5227 17.1064 12.0127 15.8764 10.0527 15.8764C8.0827 15.8764 7.5927 17.1064 6.1827 17.1064H6.0727C5.8227 17.1064 5.5927 17.3264 5.5927 17.5664C5.5927 17.8564 5.8227 18.0364 6.0727 18.0364ZM6.0727 20.1064H6.1827C8.2427 20.1064 8.6827 18.8764 10.0527 18.8764C11.4327 18.8764 11.8627 20.1064 13.9327 20.1064C15.9927 20.1064 16.4327 18.8764 17.8127 18.8764C19.1827 18.8764 19.6227 20.1064 21.6827 20.1064H21.8027C22.0427 20.1064 22.2727 19.9064 22.2727 19.6464C22.2727 19.3964 22.0427 19.1864 21.8027 19.1864H21.6827C20.2727 19.1864 19.7827 17.9464 17.8127 17.9464C15.8427 17.9464 15.3527 19.1864 13.9327 19.1864C12.5227 19.1864 12.0127 17.9464 10.0527 17.9464C8.0827 17.9464 7.5927 19.1864 6.1827 19.1864H6.0727C5.8227 19.1864 5.5927 19.3964 5.5927 19.6464C5.5927 19.9064 5.8227 20.1064 6.0727 20.1064Z"
        fillRule="evenodd"
        clipRule="evenodd"
    />
</svg>
        