
<svg
    viewBox="0 0 27.890625 27.890625"
    xmlns="http://www.w3.org/2000/svg"
>
    <path
        fill="inherit"
        d="M13.9427 27.8864C21.6427 27.8864 27.8927 21.6264 27.8927 13.9464C27.8927 6.2464 21.6427 -0.0036 13.9427 -0.0036C6.2627 -0.0036 0.0027 6.2464 0.0027 13.9464C0.0027 21.6264 6.2627 27.8864 13.9427 27.8864ZM13.8927 10.8964C12.9327 10.8964 12.1827 10.1264 12.1827 9.1964C12.1827 8.2564 12.9327 7.4964 13.8927 7.4964C14.8227 7.4964 15.5827 8.2564 15.5827 9.1964C15.5827 10.1264 14.8227 10.8964 13.8927 10.8964ZM5.7827 9.8564C5.3427 9.6364 5.1927 9.1064 5.4127 8.6864C5.6427 8.2564 6.1827 8.0664 6.6027 8.3164L12.1927 11.2964C13.3327 11.8964 14.1927 11.8264 15.1327 11.3364L20.8127 8.3164C21.2427 8.0664 21.7627 8.2564 22.0227 8.6864C22.2327 9.1064 22.0827 9.6364 21.6427 9.8564L15.9127 12.9364C15.6427 13.0864 15.5327 13.2364 15.4627 13.5264L14.7127 16.3564C14.4827 16.4464 14.2427 16.5264 13.9327 16.5264C12.8527 16.5264 12.4427 15.6264 10.9127 15.3964L11.4727 13.3064C11.5427 13.0964 11.4127 12.8964 11.2427 12.8064ZM13.9327 18.6064C11.8027 18.6064 11.3427 17.3264 9.9227 17.3264C8.5127 17.3264 8.0627 18.6064 5.9427 18.6064H5.4127C5.1527 18.6064 4.9227 18.3764 4.9227 18.1264C4.9227 17.8664 5.1527 17.6464 5.4127 17.6464H5.9427C7.3927 17.6464 7.9027 16.3564 9.9227 16.3564C11.9627 16.3564 12.4827 17.6464 13.9327 17.6464C15.3927 17.6464 15.9027 16.3564 17.9327 16.3564C19.9627 16.3564 20.4627 17.6464 21.9127 17.6464H22.4927C22.7327 17.6464 22.9727 17.8664 22.9727 18.1264C22.9727 18.3764 22.7327 18.6064 22.4927 18.6064H21.9127C19.7927 18.6064 19.3427 17.3264 17.9327 17.3264C16.5127 17.3264 16.0627 18.6064 13.9327 18.6064ZM9.6627 19.5064C9.3827 19.5064 9.1427 19.2864 9.1427 19.0164C9.1427 18.7164 9.3827 18.5164 9.6627 18.5164C9.9427 18.5164 10.1727 18.7164 10.1727 19.0164C10.1727 19.2864 9.9427 19.5064 9.6627 19.5064ZM18.2427 19.5064C17.9527 19.5064 17.7327 19.2864 17.7327 19.0164C17.7327 18.7164 17.9527 18.5164 18.2427 18.5164C18.5227 18.5164 18.7427 18.7164 18.7427 19.0164C18.7427 19.2864 18.5227 19.5064 18.2427 19.5064ZM8.1927 19.8764C7.9027 19.8764 7.6827 19.6464 7.6827 19.3764C7.6827 19.0864 7.9027 18.8564 8.1927 18.8564C8.4727 18.8564 8.6927 19.0864 8.6927 19.3764C8.6927 19.6464 8.4727 19.8764 8.1927 19.8764ZM11.1327 19.8764C10.8427 19.8764 10.6227 19.6464 10.6227 19.3764C10.6227 19.0864 10.8427 18.8564 11.1327 18.8564C11.4127 18.8564 11.6327 19.0864 11.6327 19.3764C11.6327 19.6464 11.4127 19.8764 11.1327 19.8764ZM16.7527 19.8764C16.4627 19.8764 16.2527 19.6464 16.2527 19.3764C16.2527 19.0864 16.4627 18.8564 16.7527 18.8564C17.0527 18.8564 17.2527 19.0864 17.2527 19.3764C17.2527 19.6464 17.0527 19.8764 16.7527 19.8764ZM19.7127 19.8764C19.4127 19.8764 19.1927 19.6464 19.1927 19.3764C19.1927 19.0864 19.4127 18.8564 19.7127 18.8564C19.9927 18.8564 20.2227 19.0864 20.2227 19.3764C20.2227 19.6464 19.9927 19.8764 19.7127 19.8764ZM5.4327 20.3264C5.1527 20.3264 4.9227 20.0964 4.9227 19.8264C4.9227 19.5364 5.1527 19.3064 5.4327 19.3064C5.7327 19.3064 5.9427 19.5364 5.9427 19.8264C5.9427 20.0964 5.7327 20.3264 5.4327 20.3264ZM6.8127 20.3264C6.5227 20.3264 6.3027 20.0964 6.3027 19.8264C6.3027 19.5364 6.5227 19.3064 6.8127 19.3064C7.0927 19.3064 7.3127 19.5364 7.3127 19.8264C7.3127 20.0964 7.0927 20.3264 6.8127 20.3264ZM21.0827 20.3264C20.7927 20.3264 20.5627 20.0964 20.5627 19.8264C20.5627 19.5364 20.7927 19.3064 21.0827 19.3064C21.3527 19.3064 21.5927 19.5364 21.5927 19.8264C21.5927 20.0964 21.3527 20.3264 21.0827 20.3264ZM22.4627 20.3264C22.1727 20.3264 21.9427 20.0964 21.9427 19.8264C21.9427 19.5364 22.1727 19.3064 22.4627 19.3064C22.7327 19.3064 22.9727 19.5364 22.9727 19.8264C22.9727 20.0964 22.7327 20.3264 22.4627 20.3264ZM12.4927 20.5064C12.2127 20.5064 12.0027 20.2864 12.0027 20.0064C12.0027 19.7164 12.2127 19.4964 12.4927 19.4964C12.7927 19.4964 13.0027 19.7164 13.0027 20.0064C13.0027 20.2864 12.7927 20.5064 12.4927 20.5064ZM15.3827 20.5064C15.0927 20.5064 14.8727 20.2864 14.8727 20.0064C14.8727 19.7164 15.0927 19.4964 15.3827 19.4964C15.6727 19.4964 15.8827 19.7164 15.8827 20.0064C15.8827 20.2864 15.6727 20.5064 15.3827 20.5064ZM13.9327 20.7664C13.6427 20.7664 13.4227 20.5464 13.4227 20.2764C13.4227 19.9764 13.6427 19.7564 13.9327 19.7564C14.2227 19.7564 14.4327 19.9764 14.4327 20.2764C14.4327 20.5464 14.2227 20.7664 13.9327 20.7664Z"
        fillRule="evenodd"
        clipRule="evenodd"
    />
</svg>
        