
<svg
    viewBox={0 0 27.890625 27.890625}
    xmlns="http://www.w3.org/2000/svg"
>
    <path
        fill="inherit"
        d="M13.9427 27.8864C21.6427 27.8864 27.8927 21.6464 27.8927 13.9464C27.8927 6.2464 21.6427 -0.0036 13.9427 -0.0036C6.2527 -0.0036 0.0027 6.2464 0.0027 13.9464C0.0027 21.6464 6.2527 27.8864 13.9427 27.8864ZM13.9427 25.5664C7.5227 25.5664 2.3227 20.3664 2.3227 13.9464C2.3227 7.5164 7.5227 2.3264 13.9427 2.3264C20.3727 2.3264 25.5627 7.5164 25.5627 13.9464C25.5627 20.3664 20.3727 25.5664 13.9427 25.5664ZM8.0427 5.4364C6.9327 5.4364 6.0727 6.3264 6.0727 7.4464C6.0727 8.3264 6.7127 9.2964 7.6127 9.7764V11.8364C7.6127 12.0964 7.6927 12.3064 7.8927 12.4664L10.0227 14.1664C10.2827 14.3664 10.5827 14.3464 10.8927 14.2064L13.2627 13.2364C13.5927 13.0964 13.7627 13.2664 13.8127 13.4964L14.9727 19.9464L11.7327 21.2364C11.3427 21.3964 11.1427 21.8464 11.2927 22.2464C11.4727 22.6864 11.9227 22.7864 12.2927 22.6564L16.1227 21.1364C16.4627 20.9964 16.6127 20.6564 16.5927 20.3264L16.3927 17.3464C16.3627 17.0264 16.7227 16.8264 16.9827 17.0064L19.2727 18.5564V21.8164C19.2727 22.2264 19.6227 22.5864 20.0427 22.5864C20.4627 22.5864 20.7927 22.2264 20.7927 21.8164V18.1464C20.7927 17.8664 20.6627 17.6464 20.4627 17.4864L17.5027 15.0564L16.9127 11.8664C16.8427 11.5364 16.9027 11.2264 17.0527 10.9064L19.3327 6.3464C19.5227 5.9564 19.3727 5.5064 18.9927 5.3164C18.6227 5.1264 18.1527 5.2764 17.9827 5.6464L15.7227 10.1464C15.5427 10.4864 15.3027 10.7064 14.9327 10.8664L10.6127 12.6764L8.8727 11.2764C8.7327 11.1664 8.6027 11.1464 8.4627 11.1264V9.7764C9.3827 9.2864 10.0227 8.3264 10.0227 7.4464C10.0227 6.3264 9.1627 5.4364 8.0427 5.4364ZM8.0427 6.3064C8.6827 6.3064 9.1727 6.7964 9.1727 7.4664C9.1727 8.1064 8.7127 8.8064 8.0427 9.0364C7.3827 8.8064 6.9227 8.1064 6.9227 7.4664C6.9227 6.7964 7.4127 6.3064 8.0427 6.3064ZM13.3727 10.4964C14.2727 10.4964 15.0127 9.7664 15.0127 8.8564C15.0127 7.9464 14.2727 7.2064 13.3727 7.2064C12.4527 7.2064 11.7127 7.9464 11.7127 8.8564C11.7127 9.7664 12.4527 10.4964 13.3727 10.4964Z"
        fillRule="evenodd"
        clipRule="evenodd"
    />
</svg>
        