<svg viewBox="0 0 31.006281888857306 31.006281888857306" xmlns="http://www.w3.org/2000/svg"><path d="M1.5328 18.5268L12.4828 29.4768C14.5028 31.5068 16.5028 31.5168 18.5128 29.5168L29.5228 18.4968C31.5128 16.5068 31.5028 14.4968 29.4828 12.4668L18.5428 1.5368C16.5128 -0.4932 14.5228 -0.5132 12.5128 1.4968L1.4928 12.4968C-0.5172 14.5068 -0.4872 16.5068 1.5328 18.5268ZM3.1228 17.0068C2.1328 16.0268 2.1228 14.9968 3.1328 13.9868L13.9928 3.1368C15.0028 2.1168 16.0228 2.1368 17.0128 3.1168L27.8928 13.9968C28.8628 14.9768 28.8928 16.0068 27.8828 17.0268L17.0228 27.8768C16.0128 28.8868 14.9728 28.8668 14.0028 27.9068ZM16.2028 9.8468C17.1228 9.8468 17.8528 9.0968 17.8528 8.1768C17.8528 7.2568 17.1228 6.5268 16.2028 6.5268C15.2728 6.5268 14.5328 7.2568 14.5328 8.1768C14.5328 9.0968 15.2728 9.8468 16.2028 9.8468ZM17.9928 23.2568C18.4728 24.2468 19.9528 23.6368 19.4028 22.5568L17.8028 19.2768C17.6828 19.0468 17.5028 18.7768 17.3528 18.5668L16.3228 17.0868L16.3928 16.8868C16.6828 16.0668 16.7728 15.5768 16.8328 14.7568L16.9928 12.4868C17.0628 11.3768 16.4228 10.5568 15.3028 10.5568C14.4828 10.5568 13.9228 10.9768 13.1428 11.7368L11.9228 12.9168C11.5228 13.3168 11.4028 13.6468 11.3628 14.1368L11.2228 16.0268C11.2028 16.4868 11.4628 16.8168 11.8828 16.8368C12.3328 16.8768 12.5928 16.6168 12.6328 16.1068L12.8128 14.0468L13.4028 13.5368C13.6028 13.3468 13.8928 13.4568 13.8628 13.6868L13.7428 15.4268C13.6728 16.2868 13.8828 16.7268 14.4828 17.4768L16.0828 19.4868C16.2428 19.6768 16.2528 19.7568 16.3228 19.8968ZM20.7528 13.6568H18.9228L17.7628 12.3768L17.6228 14.2768L18.0928 14.7368C18.3528 14.9968 18.5828 15.0668 19.0428 15.0668H20.7528C21.2228 15.0668 21.5328 14.8068 21.5328 14.3668C21.5328 13.9368 21.2228 13.6568 20.7528 13.6568ZM12.1928 23.4868L14.5728 20.6468C14.8128 20.3768 14.8328 20.3068 14.9328 20.0168L15.1128 19.4868L13.8428 17.8668L13.4528 19.6768L11.1028 22.4668C10.3428 23.3568 11.5728 24.2268 12.1928 23.4868Z" /></svg>