
<svg
    viewBox={0 0 26.209174523436246 27.7103271484375}
    xmlns="http://www.w3.org/2000/svg"
>
    <path
        fill="inherit"
        d="M0.6539 11.9501C0.3039 12.3001 0.3039 12.8801 0.6539 13.2201C0.9939 13.5601 1.5739 13.5601 1.9139 13.2201L2.7039 12.4301C3.8839 13.3301 5.3639 13.8801 6.9639 13.8801C8.5539 13.8801 10.0039 13.3401 11.1539 12.4401L11.9539 13.2201C12.2939 13.5601 12.8539 13.5601 13.2039 13.2201C13.5639 12.8801 13.5639 12.3001 13.2039 11.9501L12.4139 11.1701C13.3139 9.9901 13.8339 8.5401 13.8339 6.9901C13.8339 5.3701 13.3139 3.8801 12.4239 2.7101L13.2039 1.9401C13.5639 1.5701 13.5639 1.0101 13.2039 0.6701C12.8539 0.3301 12.2939 0.3301 11.9539 0.6701L11.1839 1.4401C10.0239 0.5301 8.5539 0.0001 6.9639 0.0001C5.3439 0.0001 3.8739 0.5301 2.6939 1.4501L1.9139 0.6701C1.5739 0.3301 0.9939 0.3301 0.6539 0.6701C0.3039 1.0101 0.3039 1.5701 0.6539 1.9401L1.4339 2.7201C0.5339 3.9001 0.0039 5.3701 0.0039 6.9901C0.0039 8.5301 0.5339 9.9901 1.4539 11.1601ZM22.5139 7.6601C24.5639 7.6601 26.2139 5.9501 26.2139 3.9601C26.2139 1.9001 24.5639 0.2201 22.5139 0.2201C20.4539 0.2201 18.8039 1.9001 18.8039 3.9601C18.8039 5.9901 20.4539 7.6601 22.5139 7.6601ZM6.9639 1.7901C8.0639 1.7901 9.0739 2.1301 9.8939 2.7201L6.9339 5.6901L3.9739 2.7301C4.8139 2.1301 5.8539 1.7901 6.9639 1.7901ZM12.0439 6.9901C12.0439 8.0701 11.7139 9.0601 11.1439 9.9001L8.1939 6.9501L11.1439 3.9901C11.7139 4.8401 12.0439 5.8701 12.0439 6.9901ZM1.7939 6.9901C1.7939 5.8801 2.1339 4.8401 2.7239 3.9901L5.6639 6.9501L2.7339 9.8801C2.1439 9.0501 1.7939 8.0501 1.7939 6.9901ZM6.9639 12.0901C5.8639 12.0901 4.8439 11.7301 3.9939 11.1401L6.9339 8.2001L9.8839 11.1601C9.0539 11.7401 8.0439 12.0901 6.9639 12.0901ZM20.1439 21.8201C20.7439 21.3401 21.3139 20.5401 21.8639 19.5201L24.3739 14.9601C25.5439 12.8501 25.1539 10.7001 23.1739 9.6401C21.2439 8.5701 19.2539 9.3901 18.0739 11.5301L15.4739 16.2101ZM0.4939 27.1901C1.2039 27.9501 2.4239 27.8801 3.2939 26.9901L9.1739 20.9201C9.3839 20.7101 9.5039 20.6601 9.8039 20.7801L14.7639 22.6501C15.8439 23.0601 17.0239 22.9801 17.8839 22.8201L14.4639 18.5901L10.9739 17.3201C9.3639 16.7301 8.0239 16.9301 6.7239 18.2701L0.6139 24.5801C-0.2161 25.4601 -0.1461 26.5501 0.4939 27.1901ZM23.0939 27.3601C23.6539 26.9201 23.6939 26.2401 23.1639 25.5901L20.1439 21.8201C19.4439 22.3101 18.6739 22.6501 17.8839 22.8201L21.3739 27.1001C21.8739 27.7101 22.5139 27.8401 23.0939 27.3601Z"
        fillRule="evenodd"
        clipRule="evenodd"
    />
</svg>
        