
<svg
    viewBox="0 0 27.890625 27.890625"
    xmlns="http://www.w3.org/2000/svg"
>
    <path
        fill="inherit"
        d="M13.9427 27.8864C21.6427 27.8864 27.8927 21.6464 27.8927 13.9464C27.8927 6.2464 21.6427 -0.0036 13.9427 -0.0036C6.2527 -0.0036 0.0027 6.2464 0.0027 13.9464C0.0027 21.6464 6.2527 27.8864 13.9427 27.8864ZM13.9427 25.5664C7.5227 25.5664 2.3227 20.3664 2.3227 13.9464C2.3227 7.5164 7.5227 2.3264 13.9427 2.3264C20.3727 2.3264 25.5627 7.5164 25.5627 13.9464C25.5627 20.3664 20.3727 25.5664 13.9427 25.5664ZM16.9127 8.2264C17.8127 8.2264 18.5527 7.4964 18.5527 6.5864C18.5527 5.6864 17.8127 4.9464 16.9127 4.9464C16.0127 4.9464 15.2627 5.6864 15.2627 6.5864C15.2627 7.4964 16.0127 8.2264 16.9127 8.2264ZM5.2127 17.2264C5.0127 17.4064 5.0127 17.6864 5.1927 17.8864C5.3627 18.0464 5.6727 18.0464 5.8627 17.8664L11.1927 12.6864V12.6764C11.3027 12.5464 11.3927 12.3464 11.4027 12.0764L11.5227 9.8664L13.4227 9.8064L11.9927 12.4164C11.5227 13.2464 11.7427 14.1664 12.5827 14.6564L15.4227 16.2664V20.0864C15.4227 20.1564 15.4227 20.2064 15.4327 20.2664H9.3627L12.4927 17.3464C12.6827 17.1764 12.7427 17.0764 12.8227 16.8664L13.2527 15.8764L12.2227 15.2764C12.0127 15.1464 11.8527 15.0364 11.7127 14.8864L11.3327 16.3664L8.1527 19.3164C7.8327 19.6164 7.8227 19.9864 7.9727 20.2664H6.1927C5.9427 20.2664 5.7327 20.4564 5.7327 20.6964C5.7327 20.9464 5.9227 21.1864 6.1927 21.1864H20.1827C20.9627 21.1864 21.4227 20.9964 21.9527 20.7564C22.2127 20.6264 22.2827 20.3564 22.2127 20.1564C22.1327 19.9164 21.8627 19.7464 21.5727 19.9064C21.1527 20.1064 20.8127 20.2664 20.1827 20.2664H16.9027C16.9127 20.2064 16.9227 20.1564 16.9227 20.0864V15.7764C16.9227 15.5464 16.8527 15.3964 16.5927 15.1864L14.5927 13.5764L16.1327 10.8664L18.6227 12.7864C18.9727 13.0464 19.4427 13.0064 19.7527 12.6564L20.7127 11.5764L20.1527 19.0064C20.1227 19.2464 20.3327 19.4864 20.5727 19.5064C20.8227 19.5264 21.0727 19.3464 21.0827 19.0564L21.7627 10.2364C21.8727 9.5964 21.0527 8.9164 20.4527 9.6064L19.1027 11.1664L16.9127 9.3964C16.1627 8.7764 15.3527 8.2164 14.0927 8.2864L10.8527 8.4464C10.4427 8.4764 10.1127 8.7264 10.0927 9.1964L9.9027 12.0864C9.8827 12.2664 9.9427 12.4164 10.0127 12.5364Z"
        fillRule="evenodd"
        clipRule="evenodd"
    />
</svg>
        