<svg viewBox="0 0 27.890625 27.890625" xmlns="http://www.w3.org/2000/svg"><path d="M13.9427 27.8864C21.6427 27.8864 27.8927 21.6264 27.8927 13.9464C27.8927 6.2464 21.6427 -0.0036 13.9427 -0.0036C6.2627 -0.0036 0.0027 6.2464 0.0027 13.9464C0.0027 21.6264 6.2627 27.8864 13.9427 27.8864ZM9.2127 22.9164C8.7727 22.8364 8.4727 22.3964 8.5427 21.9664L9.2827 17.9964C9.3227 17.7564 9.4027 17.5264 9.6127 17.3764L12.3627 15.3264L11.8827 13.4264C11.8427 13.2464 11.6627 13.2464 11.5427 13.3664L10.6527 14.2464C10.3527 14.5564 9.8327 14.5564 9.5127 14.2464L7.5427 12.2464C7.3527 12.0764 7.2427 11.7764 7.3727 11.4464L9.9227 4.7464C10.0627 4.4264 10.3227 4.2964 10.5927 4.2964C11.0727 4.2964 11.5227 4.7164 11.2127 5.3564L8.9827 10.0764H13.7527C14.3127 10.0764 14.7927 10.4764 14.9027 10.9964L17.1127 19.8764L20.0027 21.4664C20.4027 21.6964 20.5327 22.1864 20.3027 22.5764C20.1127 22.9264 19.6727 23.1164 19.2127 22.8764L16.0927 21.1464C15.9327 21.0564 15.7727 20.9064 15.6827 20.7164L14.1227 16.9264C14.0927 16.8564 14.0027 16.8264 13.9227 16.8664L10.8127 18.5664L10.1327 22.2564C10.0527 22.7064 9.6527 22.9964 9.2127 22.9164ZM13.4427 9.2564C12.5127 9.2564 11.7327 8.5164 11.7327 7.5764C11.7327 6.6464 12.5127 5.8764 13.4427 5.8764C14.3727 5.8764 15.1527 6.6464 15.1527 7.5764C15.1527 8.5164 14.3727 9.2564 13.4427 9.2564ZM10.9127 11.7064H9.2727L10.1027 12.5364Z" /></svg>