
<svg
    viewBox="0 0 29.99440725341517 33.22822074173593"
    xmlns="http://www.w3.org/2000/svg"
>
    <path
        fill="inherit"
        d="M29.7137 8.7142C30.0937 8.3242 30.0937 7.6842 29.6937 7.2842L25.9237 3.5142L27.4137 1.9942C28.1237 1.2842 27.6537 0.3442 26.7437 0.2842L21.9937 0.0042C21.3537 -0.0258 20.9437 0.3842 20.9837 1.0242L21.2737 5.7542C21.3237 6.7242 22.3137 7.1142 22.9937 6.4442L24.5037 4.9242L28.2837 8.7142C28.6837 9.1042 29.3137 9.1042 29.7137 8.7142ZM3.6937 13.1542C5.7537 13.1542 7.4137 11.5042 7.4137 9.4642C7.4137 7.3942 5.7537 5.7342 3.6937 5.7342C1.6437 5.7342 0.0037 7.3942 0.0037 9.4642C0.0037 11.4442 1.6437 13.1542 3.6937 13.1542ZM29.7137 13.6742C29.3137 13.2742 28.6837 13.2742 28.2837 13.6742L24.5037 17.4642L22.9937 15.9442C22.3137 15.2742 21.3237 15.6542 21.2737 16.6242L20.9837 21.3542C20.9437 22.0042 21.3537 22.4142 21.9937 22.3642L26.7437 22.0942C27.6537 22.0442 28.1237 21.0942 27.4137 20.3842L25.9237 18.8642L29.6937 15.0942C30.0937 14.6842 30.0937 14.0542 29.7137 13.6742ZM25.7137 32.7142C26.3637 32.0642 26.4437 30.9642 25.5937 30.0942L19.4837 23.7742C18.1937 22.4342 16.8437 22.2442 15.2337 22.8342L11.9737 24.0242L8.1337 17.0342C6.9737 14.8942 4.9737 14.0942 3.0337 15.1542C1.0537 16.2142 0.6837 18.3742 1.8337 20.4642L4.7837 25.8442C6.0837 28.1942 8.8637 29.1642 11.8137 28.0242L16.4037 26.2942C16.7037 26.1742 16.8437 26.2242 17.0337 26.4242L22.9237 32.5042C23.7937 33.4042 25.0037 33.4542 25.7137 32.7142Z"
        fillRule="evenodd"
        clipRule="evenodd"
    />
</svg>
        