
<svg
    viewBox={0 0 25.716796875 35.505859375}
    xmlns="http://www.w3.org/2000/svg"
>
    <path
        fill="inherit"
        d="M10.3337 5.9709C11.9637 5.9709 13.3137 4.6209 13.3137 2.9909C13.3137 1.3509 11.9637 0.0009 10.3337 0.0009C8.6937 0.0009 7.3437 1.3509 7.3437 2.9909C7.3437 4.6209 8.6937 5.9709 10.3337 5.9709ZM12.1037 28.4109C12.6337 28.5509 13.5337 28.3509 13.7937 27.4809L15.7737 20.9009C15.9837 20.1909 15.6637 19.4709 14.9137 19.2109L9.5437 17.3509L10.2137 12.7709C10.2437 12.5009 10.5937 12.4309 10.7237 12.6909L11.8637 14.9209C12.1237 15.4209 12.5737 15.6709 13.0937 15.6709H18.5937C19.3437 15.6709 19.9737 15.0809 19.9737 14.3009C19.9737 13.5609 19.3437 12.9309 18.5937 12.9309H13.9437L12.1537 9.3909C11.5837 8.2409 10.5537 7.4409 9.2737 7.1909L8.5037 7.0409C7.0937 6.7709 5.9637 7.0709 5.0837 7.6109L0.6437 10.3809C0.2637 10.6409 0.0037 11.0709 0.0037 11.5709V17.0509C0.0037 17.8009 0.6337 18.4409 1.3837 18.4409C2.1337 18.4409 2.7637 17.8009 2.7637 17.0509V12.3009L4.6737 11.1109C4.8537 11.0209 5.0537 11.1309 5.0137 11.3309L4.3937 16.4109C4.1437 18.3509 4.7837 19.6709 7.0137 20.1909L12.7137 21.5309L11.1737 26.7109C10.9637 27.4209 11.2337 28.1609 12.1037 28.4109ZM2.0137 33.3609C2.5037 33.6909 3.3937 33.6909 3.8937 32.9509L7.9437 26.9209C8.1337 26.6309 8.2337 26.4109 8.2837 26.0709L8.8637 22.0409L6.7137 21.5309C6.3837 21.4609 6.0937 21.3509 5.8237 21.2609L5.5337 25.5909L1.6237 31.4409C1.2037 32.0709 1.3537 32.9309 2.0137 33.3609ZM7.4537 35.5109H11.8537C12.2737 35.5109 12.6337 35.1509 12.6337 34.7309V32.0909H16.2737C16.6837 32.0909 17.0237 31.7609 17.0237 31.3209V28.6709H20.6837C21.1137 28.6709 21.4337 28.3409 21.4337 27.9209V25.2609H24.9337C25.3637 25.2609 25.7137 24.9209 25.7137 24.5009C25.7137 24.0909 25.3637 23.7309 24.9337 23.7309H20.6837C20.2637 23.7309 19.9337 24.0909 19.9337 24.5009V27.1509H16.2737C15.8337 27.1509 15.5137 27.5109 15.5137 27.9209V30.5709H11.8537C11.4437 30.5709 11.1137 30.9009 11.1137 31.3209V33.9909H7.4537C7.0137 33.9909 6.7037 34.3209 6.7037 34.7309C6.7037 35.1509 7.0137 35.5109 7.4537 35.5109Z"
        fillRule="evenodd"
        clipRule="evenodd"
    />
</svg>
        