
<svg
    viewBox="0 0 25.59375 29.33984375"
    xmlns="http://www.w3.org/2000/svg"
>
    <path
        fill="inherit"
        d="M8.4537 5.971C10.1037 5.971 11.4437 4.651 11.4437 2.991C11.4437 1.331 10.1037 0.001 8.4537 0.001C6.7937 0.001 5.4737 1.331 5.4737 2.991C5.4737 4.651 6.7937 5.971 8.4537 5.971ZM8.2337 24.681L21.2037 9.831C21.5237 9.491 21.6437 9.171 21.6437 8.821C21.6437 8.001 21.0537 7.411 20.2237 7.411H8.1637C5.4237 7.411 3.1837 8.981 2.5537 11.331L1.2137 16.361C0.6137 18.621 2.0537 20.061 3.8037 20.061C4.3737 20.061 4.9537 19.921 5.5237 19.621L11.6237 16.381L11.6737 16.411L14.4337 13.251L13.8537 12.951C13.2737 12.661 12.6737 12.631 12.0837 12.891L6.5237 15.301L7.6437 11.391C7.8437 10.701 8.4637 10.231 9.1837 10.231H18.8437L6.1837 24.681C6.7937 24.621 7.6337 24.581 8.2337 24.681ZM16.3637 17.361L21.1637 19.771C22.1737 20.271 22.9837 19.881 23.2837 19.221C23.5937 18.611 23.4037 17.731 22.4537 17.251L18.2937 15.171ZM5.9637 22.931H0.7637C0.3237 22.931 0.0037 23.271 0.0037 23.691C0.0037 24.121 0.3237 24.441 0.7637 24.441H4.6337ZM24.8237 22.931H11.4837L10.1737 24.441H24.8237C25.2537 24.441 25.5937 24.121 25.5937 23.691C25.5937 23.271 25.2537 22.931 24.8237 22.931ZM12.7937 29.341C15.6537 29.341 16.4337 27.531 18.3937 27.531C20.3437 27.531 21.1337 29.341 23.9937 29.341H24.8837C25.2837 29.341 25.5837 29.051 25.5837 28.671C25.5837 28.271 25.2937 27.961 24.8837 27.961H23.9937C22.0937 27.961 21.2737 26.151 18.3937 26.151C15.6537 26.151 14.8037 27.961 12.7937 27.961C10.7737 27.961 9.9437 26.151 7.1937 26.151C4.3037 26.151 3.4837 27.961 1.6037 27.961H0.6937C0.3037 27.961 0.0137 28.271 0.0137 28.671C0.0137 29.051 0.3037 29.341 0.6937 29.341H1.6037C4.4437 29.341 5.2537 27.531 7.1937 27.531C9.1437 27.531 9.9437 29.341 12.7937 29.341Z"
        fillRule="evenodd"
        clipRule="evenodd"
    />
</svg>
        