
<svg
    viewBox={0 0 26.22265625 28.508679162890125}
    xmlns="http://www.w3.org/2000/svg"
>
    <path
        fill="inherit"
        d="M26.2237 4.8346C26.2237 4.1946 25.7037 3.6946 25.0437 3.6946H18.7537V1.2146C18.7537 0.0346 17.5837 -0.3554 16.7937 0.3546L12.6437 4.0146C12.0737 4.5346 12.0837 5.2246 12.6437 5.7146L16.7937 9.3746C17.6237 10.1246 18.7537 9.6346 18.7537 8.5146V6.0146H25.0437C25.7037 6.0146 26.2237 5.4946 26.2237 4.8346ZM3.6737 8.4346C5.7537 8.4346 7.3937 6.7846 7.3937 4.7446C7.3937 2.6746 5.7537 1.0146 3.6737 1.0146C1.6437 1.0146 0.0037 2.6746 0.0037 4.7446C0.0037 6.7246 1.6437 8.4346 3.6737 8.4346ZM25.7137 27.9946C26.3637 27.3446 26.4437 26.2446 25.5937 25.3746L19.4837 19.0546C18.1937 17.7146 16.8437 17.5246 15.2337 18.1146L11.9637 19.3046L8.1337 12.3146C6.9737 10.1746 4.9637 9.3746 3.0337 10.4346C1.0437 11.4946 0.6837 13.6546 1.8337 15.7446L4.7837 21.1246C6.0737 23.4746 8.8637 24.4446 11.8137 23.3046L16.4037 21.5746C16.7037 21.4546 16.8437 21.5046 17.0337 21.7046L22.9137 27.7846C23.7937 28.6846 25.0037 28.7346 25.7137 27.9946Z"
        fillRule="evenodd"
        clipRule="evenodd"
    />
</svg>
        