
<svg
    viewBox={0 0 27.890625 27.890625}
    xmlns="http://www.w3.org/2000/svg"
>
    <path
        fill="inherit"
        d="M13.9427 27.8864C21.6427 27.8864 27.8927 21.6264 27.8927 13.9464C27.8927 6.2464 21.6427 -0.0036 13.9427 -0.0036C6.2627 -0.0036 0.0027 6.2464 0.0027 13.9464C0.0027 21.6264 6.2627 27.8864 13.9427 27.8864ZM16.1427 7.7564C15.2827 7.7564 14.5727 7.0564 14.5727 6.1764C14.5727 5.3164 15.2827 4.6164 16.1427 4.6164C17.0127 4.6164 17.7027 5.3164 17.7027 6.1764C17.7027 7.0564 17.0127 7.7564 16.1427 7.7564ZM8.2427 5.1364C8.2427 4.9364 8.4227 4.7564 8.6427 4.7564C9.4327 4.7564 9.9627 4.9464 10.5527 5.4964C11.1527 4.9464 11.6927 4.7564 12.4827 4.7564C12.7027 4.7564 12.8927 4.9364 12.8927 5.1364C12.8927 5.3764 12.7027 5.5364 12.4827 5.5364C11.8527 5.5364 11.4427 5.6764 11.0327 6.1264C10.8727 6.2864 10.7227 6.3564 10.5527 6.3564C10.4027 6.3564 10.2427 6.2864 10.1027 6.1264C9.6827 5.6764 9.2827 5.5364 8.6427 5.5364C8.4127 5.5364 8.2427 5.3764 8.2427 5.1364ZM8.9427 12.9764C8.5427 12.7964 8.4227 12.3564 8.6027 11.9664L10.1327 8.9164C10.2527 8.6664 10.5127 8.4864 10.8027 8.4864H15.5827C16.5327 8.4864 17.1427 8.8064 17.7227 9.3764L18.5827 10.2564L19.6427 8.1664C19.8527 7.7764 20.3027 7.6164 20.6727 7.8064C21.0727 7.9864 21.2027 8.4464 21.0027 8.8364L19.4827 11.8764C19.2627 12.3764 18.6327 12.4264 18.2627 12.0764L16.5127 10.3864C16.3927 10.2764 16.2527 10.3264 16.1827 10.4564L14.6927 13.4364H18.0627C18.6527 13.4364 18.9327 14.0564 18.7327 14.5164L16.8127 18.7064C16.6427 19.1164 16.2527 19.2464 15.8327 19.0864C15.4327 18.9464 15.2827 18.4664 15.4327 18.0864L16.8127 15.0364L13.1127 15.2764C11.7727 15.3564 11.1427 14.0664 11.6527 13.0564L13.0327 10.3264C13.1127 10.1764 13.0127 10.0264 12.8527 10.0264H11.2627L9.9527 12.6364C9.7927 12.9764 9.3927 13.1764 8.9427 12.9764ZM6.8927 20.3564C6.6827 19.9464 6.8927 19.4964 7.2727 19.3364L10.7727 17.8464L11.6327 15.5064C12.0327 15.7864 12.5327 15.9864 13.1527 15.9364L13.4627 15.9264L12.0627 18.7464C11.9927 18.9064 11.8427 19.0164 11.6927 19.0964L7.8927 20.7564C7.6427 20.8664 7.1227 20.8464 6.8927 20.3564ZM19.4327 21.0664C18.5527 21.0664 17.8827 20.3664 17.8827 19.4864C17.8827 18.6164 18.5527 17.9264 19.4327 17.9264C20.3027 17.9264 21.0027 18.6164 21.0027 19.4864C21.0027 20.3664 20.3027 21.0664 19.4327 21.0664ZM8.0227 22.9664C7.7927 22.9664 7.6027 22.7864 7.6027 22.5464C7.6027 22.3164 7.7927 22.1164 8.0227 22.1164C8.2627 22.1164 8.4527 22.3164 8.4527 22.5464C8.4527 22.7864 8.2627 22.9664 8.0227 22.9664ZM9.3427 22.9664C9.1027 22.9664 8.9127 22.7864 8.9127 22.5464C8.9127 22.3164 9.1027 22.1164 9.3427 22.1164C9.5827 22.1164 9.7627 22.3164 9.7627 22.5464C9.7627 22.7864 9.5827 22.9664 9.3427 22.9664ZM10.6527 22.9664C10.4027 22.9664 10.2227 22.7864 10.2227 22.5464C10.2227 22.3164 10.4027 22.1164 10.6527 22.1164C10.8927 22.1164 11.0727 22.3164 11.0727 22.5464C11.0727 22.7864 10.8927 22.9664 10.6527 22.9664ZM11.9627 22.9664C11.7127 22.9664 11.5427 22.7864 11.5427 22.5464C11.5427 22.3164 11.7127 22.1164 11.9627 22.1164C12.1927 22.1164 12.3827 22.3164 12.3827 22.5464C12.3827 22.7864 12.1927 22.9664 11.9627 22.9664ZM13.2727 22.9664C13.0327 22.9664 12.8527 22.7864 12.8527 22.5464C12.8527 22.3164 13.0327 22.1164 13.2727 22.1164C13.5127 22.1164 13.7027 22.3164 13.7027 22.5464C13.7027 22.7864 13.5127 22.9664 13.2727 22.9664ZM14.5727 22.9664C14.3527 22.9664 14.1527 22.7864 14.1527 22.5464C14.1527 22.3164 14.3527 22.1164 14.5727 22.1164C14.8227 22.1164 15.0027 22.3164 15.0027 22.5464C15.0027 22.7864 14.8227 22.9664 14.5727 22.9664ZM15.9027 22.9664C15.6727 22.9664 15.4727 22.7864 15.4727 22.5464C15.4727 22.3164 15.6727 22.1164 15.9027 22.1164C16.1327 22.1164 16.3227 22.3164 16.3227 22.5464C16.3227 22.7864 16.1327 22.9664 15.9027 22.9664ZM17.2127 22.9664C16.9627 22.9664 16.7927 22.7864 16.7927 22.5464C16.7927 22.3164 16.9627 22.1164 17.2127 22.1164C17.4627 22.1164 17.6327 22.3164 17.6327 22.5464C17.6327 22.7864 17.4627 22.9664 17.2127 22.9664ZM18.5227 22.9664C18.2827 22.9664 18.1027 22.7864 18.1027 22.5464C18.1027 22.3164 18.2827 22.1164 18.5227 22.1164C18.7627 22.1164 18.9527 22.3164 18.9527 22.5464C18.9527 22.7864 18.7627 22.9664 18.5227 22.9664ZM19.8427 22.9664C19.5927 22.9664 19.4127 22.7864 19.4127 22.5464C19.4127 22.3164 19.5927 22.1164 19.8427 22.1164C20.0727 22.1164 20.2627 22.3164 20.2627 22.5464C20.2627 22.7864 20.0727 22.9664 19.8427 22.9664Z"
        fillRule="evenodd"
        clipRule="evenodd"
    />
</svg>
        