<svg viewBox="0 0 26.214217280287755 27.559940487684447" xmlns="http://www.w3.org/2000/svg"><path d="M21.33 13.9959C21.98 13.9959 22.49 13.4859 22.49 12.8359V6.5259H24.99C26.11 6.5259 26.61 5.4059 25.85 4.5759L22.19 0.4259C21.7 -0.1441 21.01 -0.1441 20.49 0.4259L16.83 4.5759C16.12 5.3659 16.52 6.5259 17.69 6.5259H20.17V12.8359C20.17 13.4859 20.67 13.9959 21.33 13.9959ZM3.68 7.4859C5.76 7.4859 7.4 5.8359 7.4 3.7959C7.4 1.7259 5.76 0.0659 3.68 0.0659C1.64 0.0659 0 1.7259 0 3.7959C0 5.7759 1.64 7.4859 3.68 7.4859ZM25.72 27.0459C26.36 26.3959 26.44 25.2959 25.59 24.4259L19.48 18.1059C18.2 16.7659 16.84 16.5759 15.23 17.1659L11.96 18.3559L8.13 11.3659C6.97 9.2259 4.96 8.4259 3.04 9.4859C1.04 10.5459 0.68 12.7059 1.83 14.7959L4.79 20.1759C6.07 22.5259 8.86 23.4959 11.81 22.3559L16.41 20.6259C16.71 20.5059 16.84 20.5559 17.04 20.7559L22.91 26.8359C23.79 27.7359 25.01 27.7859 25.72 27.0459Z" /></svg>