
<svg
    viewBox="0 0 27.890625 27.890625"
    xmlns="http://www.w3.org/2000/svg"
>
    <path
        fill="inherit"
        d="M13.9427 27.8864C21.6427 27.8864 27.8927 21.6264 27.8927 13.9464C27.8927 6.2464 21.6427 -0.0036 13.9427 -0.0036C6.2627 -0.0036 0.0027 6.2464 0.0027 13.9464C0.0027 21.6264 6.2627 27.8864 13.9427 27.8864ZM8.6827 9.1464C7.7527 9.1464 6.9727 8.3764 6.9727 7.4364C6.9727 6.5064 7.7527 5.7464 8.6827 5.7464C9.6127 5.7464 10.3627 6.5064 10.3627 7.4364C10.3627 8.3764 9.6127 9.1464 8.6827 9.1464ZM4.5427 13.5264C4.2627 13.2364 4.2527 12.7264 4.5427 12.4364L6.3127 10.6764C6.9627 10.0464 7.6727 9.9664 8.3227 9.9664H8.6827C9.7627 9.9664 10.3527 10.6764 10.3527 11.5364V13.0164L19.9227 7.1664C20.1427 7.0164 20.4027 7.0664 20.5327 7.2864C20.6727 7.5064 20.6127 7.7964 20.4027 7.9164L10.3527 14.0864V16.2464L11.1527 18.3364C10.8127 18.2964 10.4627 18.2664 10.0327 18.2664C9.7927 18.2664 9.5727 18.2764 9.3527 18.2964L8.8627 17.3264C8.8427 17.2664 8.7227 17.2764 8.7227 17.3664L8.6027 18.4064C7.8227 18.5764 7.3427 18.8564 6.9627 19.1164V16.1564L5.5227 17.0364C5.2927 17.1864 5.0427 17.1164 4.8927 16.8964C4.7727 16.6964 4.8227 16.4164 5.0427 16.2864L6.4527 15.4064ZM6.1627 12.9764L6.9627 13.7964V12.4964C6.9627 12.3764 6.8227 12.3164 6.7127 12.4164ZM5.5227 21.1064C5.5227 20.8664 5.7127 20.6264 6.0027 20.6264H6.0427C7.4927 20.6264 8.0127 19.3364 10.0327 19.3364C12.0727 19.3364 12.5627 20.6264 14.0227 20.6264C15.4927 20.6264 16.0127 19.3364 18.0327 19.3364C20.0727 19.3364 20.5627 20.6264 22.0427 20.6264H22.0627C22.3227 20.6264 22.5627 20.8664 22.5627 21.1064C22.5627 21.3664 22.3227 21.5864 22.0627 21.5864H22.0427C19.9027 21.5864 19.4427 20.3164 18.0327 20.3164C16.6227 20.3164 16.1727 21.5864 14.0227 21.5864C11.9127 21.5864 11.4427 20.3164 10.0327 20.3164C8.6427 20.3164 8.1627 21.5864 6.0427 21.5864H6.0027C5.7127 21.5864 5.5227 21.3664 5.5227 21.1064Z"
        fillRule="evenodd"
        clipRule="evenodd"
    />
</svg>
        