
<svg
    viewBox={0 0 22.738527201914472 33.59035100026361}
    xmlns="http://www.w3.org/2000/svg"
>
    <path
        fill="inherit"
        d="M11.3641 7.4212C13.4241 7.4212 15.0541 5.7312 15.0541 3.7312C15.0541 1.6812 13.4241 0.0012 11.3641 0.0012C9.2941 0.0012 7.6741 1.6812 7.6741 3.7312C7.6741 5.7712 9.2941 7.4212 11.3641 7.4212ZM16.9941 10.5912L20.1641 7.0812C20.7141 6.4512 20.6741 5.7812 20.1441 5.3312C19.6441 4.8912 19.0041 4.8912 18.4141 5.5412L14.8441 9.5012C15.6441 9.7912 16.3541 10.1812 16.9941 10.5912ZM4.2341 21.2612L14.8441 9.5012C13.8041 9.1212 12.6641 8.9412 11.3641 8.9412C6.5941 8.9412 3.7641 11.2512 3.7641 15.1112C3.7641 16.0212 3.8141 17.2712 3.9341 18.5512ZM18.4941 21.2712L18.7841 18.5512C18.9241 17.2712 18.9741 16.0212 18.9741 15.1112C18.9741 13.2112 18.3041 11.6612 16.9941 10.6112L8.6041 19.9912C9.5141 19.8212 10.4441 19.7812 11.3641 19.7812C13.7241 19.7812 16.0941 20.0812 18.4941 21.2712ZM0.3141 25.6512C0.8041 26.1512 1.4741 26.1412 2.0541 25.5512C2.8141 24.8312 3.5841 24.2112 4.5241 23.7312L4.2341 21.2612C2.8341 21.9112 1.6041 22.8612 0.4341 23.9512C-0.1059 24.4712 -0.1359 25.1612 0.3141 25.6512ZM22.4241 25.6512C22.8741 25.1712 22.8441 24.4912 22.3141 23.9712C21.1341 22.8612 19.9041 21.9312 18.4941 21.2712L18.2141 23.7312C19.1541 24.2112 19.9241 24.8312 20.6841 25.5512C21.2641 26.1412 21.9341 26.1512 22.4241 25.6512ZM7.2741 33.5812C8.2541 33.4412 8.9041 32.7412 8.7741 31.5312L8.1041 25.3612H14.6341L13.9641 31.5312C13.8341 32.7412 14.4741 33.4412 15.4541 33.5812C16.4641 33.6912 17.2441 33.0612 17.3641 31.8712L18.2141 23.7312C16.0541 22.4912 13.6541 22.0112 11.3641 22.0112C9.0741 22.0112 6.6841 22.4912 4.5241 23.7312L5.3741 31.8712C5.4941 33.0612 6.2741 33.6912 7.2741 33.5812Z"
        fillRule="evenodd"
        clipRule="evenodd"
    />
</svg>
        