
<svg
    viewBox={0 0 27.890625 27.890625}
    xmlns="http://www.w3.org/2000/svg"
>
    <path
        fill="inherit"
        d="M13.9427 27.8864C21.6427 27.8864 27.8927 21.6264 27.8927 13.9464C27.8927 6.2464 21.6427 -0.0036 13.9427 -0.0036C6.2627 -0.0036 0.0027 6.2464 0.0027 13.9464C0.0027 21.6264 6.2627 27.8864 13.9427 27.8864ZM16.7927 8.2964C15.8327 8.2964 15.0827 7.5464 15.0827 6.6064C15.0827 5.6564 15.8327 4.9064 16.7927 4.9064C17.7227 4.9064 18.4727 5.6564 18.4727 6.6064C18.4727 7.5464 17.7227 8.2964 16.7927 8.2964ZM13.9027 22.0164C10.5127 22.0164 8.2427 19.7464 8.2427 16.3264C8.2427 15.2064 8.5827 14.1764 9.1327 13.3264C9.6627 12.5664 10.6527 13.1764 10.1427 13.9364C9.7027 14.6064 9.4227 15.4264 9.4227 16.3264C9.4227 19.0264 11.2227 20.8364 13.9227 20.8364C16.5927 20.8364 18.3927 19.0264 18.3927 16.3364C18.3927 15.7364 17.9627 15.3764 17.3627 15.3764H14.4627C13.3527 15.3764 12.6627 14.3964 13.0727 13.2364L13.9427 10.7764C14.0527 10.4564 13.9427 10.2264 13.6127 10.1464L11.9327 9.7064L9.0627 11.2064C8.6727 11.4264 8.2127 11.3464 7.9727 11.0064C7.7227 10.6464 7.7927 10.1264 8.1727 9.9164L11.3027 8.1464C11.5627 7.9864 11.8127 7.9464 12.1127 8.0164L15.3427 8.8364C16.4327 9.0964 16.9127 10.0064 16.5727 11.0064L15.8727 13.1764C15.8027 13.3964 15.9127 13.5264 16.0827 13.5264H17.1427C18.7327 13.5264 19.5627 14.5464 19.5627 16.3364C19.5627 19.7464 17.2927 22.0164 13.9027 22.0164ZM19.6027 22.0164C19.1227 22.0164 18.7327 21.6264 18.7327 21.1464C18.7327 20.6764 19.1227 20.2864 19.6027 20.2864C20.0727 20.2864 20.4527 20.6764 20.4527 21.1464C20.4527 21.6264 20.0727 22.0164 19.6027 22.0164Z"
        fillRule="evenodd"
        clipRule="evenodd"
    />
</svg>
        