
<svg
    viewBox="0 0 22.16221256179849 30.009765625"
    xmlns="http://www.w3.org/2000/svg"
>
    <path
        fill="inherit"
        d="M15.7138 5.9445C17.3638 5.9445 18.6938 4.6245 18.6938 2.9645C18.6938 1.3245 17.3638 0.0045 15.7138 0.0045C14.0538 0.0045 12.7238 1.3245 12.7238 2.9645C12.7238 4.6245 14.0538 5.9445 15.7138 5.9445ZM10.6738 30.0145C16.6438 30.0145 20.6138 26.0345 20.6138 20.0745C20.6138 16.9345 19.1238 15.1045 16.3338 15.1045H14.5038C14.1938 15.1045 13.9838 14.9045 14.1138 14.5245L15.3638 10.7045C15.9438 8.9545 15.1238 7.3645 13.1838 6.8745L7.5338 5.4545C6.9838 5.3145 6.5738 5.4145 6.0838 5.7045L0.6038 8.7945C-0.0362 9.1645 -0.1962 10.1045 0.2638 10.7045C0.6938 11.3245 1.4738 11.4345 2.1738 11.0745L7.2038 8.4045L10.1438 9.1845C10.7238 9.3545 10.9338 9.7445 10.7438 10.2845L9.2038 14.6145C8.4938 16.6545 9.6938 18.3845 11.6638 18.3845H16.7438C17.8038 18.3845 18.5438 19.0145 18.5438 20.0745C18.5438 24.7845 15.4038 27.9345 10.6938 27.9345C5.9738 27.9345 2.8138 24.7845 2.8138 20.0745C2.8138 18.4445 3.2938 17.0245 4.0838 15.8345C4.9738 14.5045 3.2138 13.3945 2.2838 14.7945C1.3238 16.2545 0.7338 18.0445 0.7338 20.0745C0.7338 26.0345 4.7038 30.0145 10.6738 30.0145ZM20.6538 30.0145C21.4938 30.0145 22.1638 29.3445 22.1638 28.5045C22.1638 27.6745 21.4938 27.0045 20.6538 27.0045C19.8238 27.0045 19.1538 27.6745 19.1538 28.5045C19.1538 29.3445 19.8238 30.0145 20.6538 30.0145Z"
        fillRule="evenodd"
        clipRule="evenodd"
    />
</svg>
        