
<svg
    viewBox="0 0 27.890625 27.890625"
    xmlns="http://www.w3.org/2000/svg"
>
    <path
        fill="inherit"
        d="M13.9427 27.8864C21.6427 27.8864 27.8927 21.6264 27.8927 13.9464C27.8927 6.2464 21.6427 -0.0036 13.9427 -0.0036C6.2627 -0.0036 0.0027 6.2464 0.0027 13.9464C0.0027 21.6264 6.2627 27.8864 13.9427 27.8864ZM14.5227 7.5064C13.5527 7.5064 12.8127 6.7564 12.8127 5.7964C12.8127 4.8664 13.5527 4.1164 14.5227 4.1164C15.4527 4.1164 16.2027 4.8664 16.2027 5.7964C16.2027 6.7564 15.4527 7.5064 14.5227 7.5064ZM16.3227 12.0564L15.0227 10.7464C14.8627 10.5964 14.6527 10.5964 14.6127 10.8564L14.2427 13.4164H17.1827C17.7827 13.4164 18.1527 13.8464 17.9927 14.3664L16.8827 18.5564C16.6127 19.5664 15.0927 19.1964 15.3627 18.1464L16.2327 15.0264L13.3727 15.2164C11.9727 15.3164 11.1427 14.5064 11.3227 13.0864L11.7027 10.1064C11.7327 9.8664 11.5927 9.7364 11.3927 9.7464L9.9427 9.9164L9.6427 12.3764C9.5027 13.4164 7.9527 13.1664 8.0827 12.1664L8.4727 9.1164C8.5127 8.7864 8.8027 8.4764 9.1727 8.4464L11.9327 8.1364C13.4927 7.9564 14.6427 8.1764 15.6527 9.1964L16.7327 10.2664L18.1127 8.0664C18.6327 7.2164 20.0127 7.9564 19.4327 8.8864L17.5227 11.9364C17.2627 12.3764 16.6527 12.3964 16.3227 12.0564ZM12.1027 15.7264C12.5927 15.8964 12.9427 15.9364 13.4227 15.9164L13.9027 15.8764L13.4427 18.8664C13.4227 18.9264 13.4127 18.9864 13.4027 19.0564L11.9127 22.8064C11.7327 23.1864 11.4527 23.3564 11.1427 23.3564C10.6627 23.3564 10.2027 22.8964 10.4427 22.2564L11.9127 18.5964Z"
        fillRule="evenodd"
        clipRule="evenodd"
    />
</svg>
        