<svg viewBox="0 0 27.890625 27.890625" xmlns="http://www.w3.org/2000/svg"><path d="M13.9427 27.8864C21.6427 27.8864 27.8927 21.6464 27.8927 13.9464C27.8927 6.2464 21.6427 -0.0036 13.9427 -0.0036C6.2527 -0.0036 0.0027 6.2464 0.0027 13.9464C0.0027 21.6464 6.2527 27.8864 13.9427 27.8864ZM13.9427 25.5664C7.5227 25.5664 2.3227 20.3664 2.3227 13.9464C2.3227 7.5164 7.5227 2.3264 13.9427 2.3264C20.3727 2.3264 25.5627 7.5164 25.5627 13.9464C25.5627 20.3664 20.3727 25.5664 13.9427 25.5664ZM13.9327 7.3664C14.8327 7.3664 15.5727 6.6464 15.5727 5.7264C15.5727 4.8264 14.8327 4.0764 13.9327 4.0764C13.0327 4.0764 12.2727 4.8264 12.2727 5.7264C12.2727 6.6464 13.0327 7.3664 13.9327 7.3664ZM14.9127 19.7564C15.2027 19.8364 15.6927 19.7464 15.8427 19.2464L16.9427 15.6264C17.0627 15.2164 16.8827 14.8164 16.4627 14.6864L13.4927 13.6564L13.8627 11.1264C13.8727 10.9764 14.0827 10.9464 14.1327 11.0864L14.7927 12.3164C14.9327 12.5964 15.1727 12.7264 15.4527 12.7264H18.4827C18.9127 12.7264 19.2527 12.3964 19.2527 11.9764C19.2527 11.5664 18.9127 11.2264 18.4827 11.2264H15.9327L14.9427 9.2564C14.6127 8.6264 14.0527 8.1864 13.3427 8.0564L12.9227 7.9664C12.1527 7.8164 11.5227 7.9864 11.0327 8.2864L8.5827 9.8164C8.3627 9.9564 8.2327 10.1964 8.2327 10.4564V13.4964C8.2327 13.9164 8.5827 14.2564 8.9927 14.2564C9.4227 14.2564 9.7527 13.9164 9.7527 13.4964V10.8864L10.8127 10.2164C10.8927 10.1564 11.0227 10.2164 11.0027 10.3364L10.6527 13.1264C10.5127 14.2064 10.8727 14.9464 12.1027 15.2164L15.2627 15.9664L14.3927 18.8264C14.2827 19.2264 14.4327 19.6364 14.9127 19.7564ZM9.3427 22.4864C9.6127 22.6664 10.1027 22.6664 10.3727 22.2764L12.6027 18.9364C12.7127 18.7864 12.7727 18.6664 12.7927 18.4664L13.1127 16.2564L11.9327 15.9664C11.7627 15.9264 11.5927 15.8764 11.4427 15.8164L11.2827 18.1964L9.1227 21.4464C8.8827 21.7964 8.9827 22.2764 9.3427 22.4864ZM12.3327 23.7164H14.7627C15.0427 23.7164 15.2427 23.5064 15.2427 23.2464V21.8464H17.2127C17.4427 21.8464 17.6627 21.6264 17.6627 21.3864V19.9564H19.6427C19.9327 19.9564 20.1127 19.7464 20.1127 19.4964V18.0764H22.0027C22.2627 18.0764 22.4727 17.8564 22.4727 17.6064C22.4727 17.3664 22.2727 17.1464 22.0027 17.1464H19.6427C19.3827 17.1464 19.1927 17.3664 19.1927 17.6064V19.0264H17.2127C16.9427 19.0264 16.7527 19.2464 16.7527 19.4964V20.9164H14.7627C14.5327 20.9164 14.3027 21.1264 14.3027 21.3864V22.7864H12.3327C12.0727 22.7864 11.8627 23.0064 11.8627 23.2464C11.8627 23.5064 12.0727 23.7164 12.3327 23.7164Z" /></svg>