
<svg
    viewBox="0 0 27.890625 27.890625"
    xmlns="http://www.w3.org/2000/svg"
>
    <path
        fill="inherit"
        d="M13.9427 27.8864C21.6427 27.8864 27.8927 21.6264 27.8927 13.9464C27.8927 6.2464 21.6427 -0.0036 13.9427 -0.0036C6.2627 -0.0036 0.0027 6.2464 0.0027 13.9464C0.0027 21.6264 6.2627 27.8864 13.9427 27.8864ZM15.2627 7.5864C14.3127 7.5864 13.5527 6.8364 13.5527 5.8764C13.5527 4.9464 14.3127 4.1864 15.2627 4.1864C16.1827 4.1864 16.9527 4.9464 16.9527 5.8764C16.9527 6.8364 16.1827 7.5864 15.2627 7.5864ZM7.6827 16.9664C7.2327 16.9664 6.9027 16.5964 6.9027 16.1764C6.9027 15.7364 7.2327 15.3964 7.6827 15.3964H10.9127L9.3827 13.8464C8.6727 13.1264 8.6927 12.0764 9.3827 11.3764L11.1127 9.6564C11.2427 9.5264 11.1827 9.3564 11.0027 9.3364L9.1627 9.0964L7.4627 10.7964C7.1527 11.1264 6.6127 11.1064 6.3327 10.7964C6.0427 10.4764 6.0127 10.0064 6.3327 9.6764L8.3227 7.7064C8.4927 7.5464 8.7227 7.4464 8.9727 7.5064L20.8127 8.9964C21.1927 9.0464 21.4927 9.3964 21.4927 9.7764C21.4927 10.2564 21.0727 10.5864 20.6027 10.5364L14.9527 9.8264C14.8327 9.8064 14.7227 9.8564 14.6527 9.9264L12.7727 11.8264H20.7227C21.1827 11.8264 21.5327 12.1964 21.5327 12.6164C21.5327 13.0564 21.1827 13.3964 20.7227 13.3964H16.4327L11.8227 13.6964L13.4427 15.6864C13.8327 16.1764 13.5127 16.9664 12.8227 16.9664ZM14.8627 23.2964V15.1864C14.8627 14.9064 15.0627 14.6864 15.3427 14.6864C15.6127 14.6864 15.8227 14.9064 15.8227 15.1864V23.2964C15.8227 23.5564 15.6127 23.7764 15.3427 23.7764C15.0627 23.7764 14.8627 23.5564 14.8627 23.2964Z"
        fillRule="evenodd"
        clipRule="evenodd"
    />
</svg>
        