
<svg
    viewBox="0 0 26.26716203961794 27.48891105007346"
    xmlns="http://www.w3.org/2000/svg"
>
    <path
        fill="inherit"
        d="M7.9292 6.095C9.5892 6.095 10.9492 4.685 10.9492 3.065C10.9492 1.385 9.5892 -0.005 7.9292 -0.005C6.2292 -0.005 4.8992 1.385 4.8992 3.065C4.8992 4.715 6.2292 6.095 7.9292 6.095ZM12.5492 8.685L15.1292 5.795C15.5692 5.295 15.5392 4.735 15.0992 4.375C14.6892 4.005 14.1592 3.995 13.6792 4.525L10.7792 7.775C11.4092 8.025 11.9992 8.335 12.5492 8.685ZM20.4992 8.465H25.8992C26.3092 8.465 26.3792 8.025 26.0792 7.825L23.6192 6.135C23.3492 5.965 23.0592 5.965 22.7692 6.135L20.3292 7.825C20.0092 8.025 20.0892 8.465 20.4992 8.465ZM2.0892 17.405L10.7792 7.775C9.9192 7.455 8.9892 7.315 7.9292 7.315C4.0192 7.315 1.6892 9.205 1.6892 12.355C1.6892 13.125 1.7192 14.135 1.8592 15.175ZM13.7492 17.405L13.9992 15.175C14.1192 14.135 14.1592 13.125 14.1592 12.355C14.1592 10.805 13.5992 9.545 12.5492 8.695L5.6592 16.355C6.4192 16.225 7.1692 16.175 7.9292 16.175C9.8492 16.175 11.7792 16.435 13.7492 17.405ZM20.2392 12.185V15.505C20.2392 16.465 20.9392 17.155 21.8992 17.155H24.5192C25.4692 17.155 26.1792 16.465 26.1792 15.505V12.185C26.1792 11.225 25.4692 10.515 24.5192 10.515H21.8992C20.9392 10.515 20.2392 11.225 20.2392 12.185ZM0.4192 18.415C-0.0708 18.775 -0.0908 19.345 0.1492 19.715C0.3692 20.115 0.8692 20.305 1.3892 19.985C1.7192 19.785 2.0092 19.605 2.3292 19.425L2.0892 17.405C1.4892 17.675 0.9392 17.995 0.4192 18.415ZM4.5792 27.485C5.3692 27.375 5.9192 26.795 5.8092 25.795L5.2592 20.755H10.5892L10.0492 25.795C9.9392 26.795 10.4692 27.375 11.2592 27.485C12.0792 27.565 12.7092 27.045 12.8192 26.085L13.5292 19.425C13.8492 19.605 14.1292 19.785 14.4492 19.985C14.9692 20.305 15.4592 20.125 15.6892 19.745C15.9392 19.355 15.9392 18.785 15.4492 18.415C14.9092 17.995 14.3692 17.675 13.7492 17.405L13.5192 19.415C11.7492 18.405 9.7992 18.005 7.9292 18.005C6.0392 18.005 4.0792 18.405 2.3292 19.425L3.0192 26.085C3.1292 27.045 3.7592 27.565 4.5792 27.485Z"
        fillRule="evenodd"
        clipRule="evenodd"
    />
</svg>
        