<svg viewBox="0 0 35.233673911857736 27.68650183735244" xmlns="http://www.w3.org/2000/svg"><path d="M23.7437 5.9743C25.4037 5.9343 26.7037 4.5543 26.6637 2.9043C26.6037 1.2443 25.2337 -0.0357 23.5837 0.0043C21.9337 0.0543 20.6437 1.4043 20.6837 3.0643C20.7237 4.7143 22.0937 6.0143 23.7437 5.9743ZM12.1237 8.1243L19.7437 15.2143C20.1537 15.6043 20.7237 15.6843 21.2237 15.4743L23.3837 17.4843V18.0443C23.3837 18.8043 23.9937 19.4043 24.7437 19.4043C24.9337 19.4043 25.1337 19.3643 25.3037 19.2943L30.8337 24.4343C31.4337 24.9943 32.1537 25.2843 32.9037 25.2643C34.3037 25.2243 35.2737 24.2543 35.2337 22.9143C35.2237 22.3143 34.7937 21.6543 34.1137 21.6843C33.6737 21.6943 33.3637 21.9943 33.3737 22.4643L33.3837 22.8843C33.4037 23.4343 32.7537 23.7643 32.1837 23.2443L26.1137 17.8743V11.8643C26.1137 11.4743 25.9037 11.1143 25.5437 10.7643L19.7037 5.3343C18.5937 4.3043 16.8737 4.1843 15.4737 4.7043L12.5237 5.8243C11.6737 6.1543 11.2237 7.2643 12.1237 8.1243ZM11.3337 8.5343L10.6137 8.9143C8.2337 10.1343 7.7237 13.0743 10.0237 14.8743L15.1237 18.9043L12.0337 24.5443C11.6637 25.1943 11.9237 26.0143 12.5737 26.4043C13.1137 26.7043 14.0037 26.5943 14.4237 25.8143L18.0737 19.1643C18.3637 18.6343 18.2837 18.0243 17.8537 17.5643L13.8237 13.2243L15.3137 12.4143L11.8637 9.2043C11.6437 8.9943 11.4737 8.7643 11.3337 8.5343ZM21.6337 13.2243L18.9037 10.6743L20.1237 10.0643C20.3737 9.9243 20.6737 9.9943 20.8537 10.1543L23.3837 12.5143V15.4543L22.0537 14.2743C22.0637 13.8943 21.9337 13.5043 21.6337 13.2243ZM1.3637 21.1243H8.2137C8.7637 21.1243 9.2137 20.7843 9.4237 20.3443L10.9337 17.2943L9.2037 15.9243C8.8637 15.6543 8.5537 15.3843 8.3237 15.0543L7.2237 18.3943H1.3637C0.6137 18.3943 0.0037 18.9743 0.0037 19.7543C0.0037 20.5043 0.6137 21.1243 1.3637 21.1243ZM26.1637 27.6843C27.2237 27.6843 28.0837 26.8543 28.0837 25.8043C28.0837 24.7443 27.2237 23.8843 26.1637 23.8843C25.1137 23.8843 24.2837 24.7443 24.2837 25.8043C24.2837 26.8543 25.1137 27.6843 26.1637 27.6843Z" /></svg>