
<svg
    viewBox="0 0 27.890625 27.890625"
    xmlns="http://www.w3.org/2000/svg"
>
    <path
        fill="inherit"
        d="M13.9427 27.8864C21.6427 27.8864 27.8927 21.6264 27.8927 13.9464C27.8927 6.2464 21.6427 -0.0036 13.9427 -0.0036C6.2627 -0.0036 0.0027 6.2464 0.0027 13.9464C0.0027 21.6264 6.2627 27.8864 13.9427 27.8864ZM17.6927 11.7564C17.8427 11.3364 18.1527 11.0064 18.5627 10.8564V4.8764C18.5627 4.6364 18.8027 4.4064 19.0427 4.4064C19.3027 4.4064 19.5227 4.6364 19.5227 4.8764V10.8564C19.9327 11.0064 20.2527 11.3364 20.4027 11.7564C20.4827 12.0064 20.3827 12.2064 20.1227 12.2064H17.9827C17.7027 12.2064 17.6127 12.0064 17.6927 11.7564ZM13.7927 8.1764C12.8427 8.1764 12.0827 7.4064 12.0827 6.4664C12.0827 5.5364 12.8427 4.7764 13.7927 4.7764C14.7427 4.7764 15.4727 5.5364 15.4727 6.4664C15.4727 7.4064 14.7427 8.1764 13.7927 8.1764ZM7.5627 10.6864V6.4764C7.5627 6.0564 7.9027 5.6964 8.3427 5.6964C8.7627 5.6964 9.1327 6.0564 9.1327 6.4764V9.3964L10.3227 8.8764C11.2127 8.5064 11.9327 8.5264 13.0327 8.8464L13.4827 8.9664C14.4627 9.2464 14.9027 9.6364 15.2027 10.3264L16.3227 12.9564H19.1227C19.5827 12.9564 19.9327 13.3064 19.9327 13.7564C19.9327 14.1864 19.5827 14.5464 19.1227 14.5464H15.8027C15.4927 14.5464 15.2127 14.3464 15.0827 14.0564L14.3727 12.3364C14.3427 12.2664 14.2027 12.2664 14.1927 12.3464L13.9027 14.8064L17.1427 17.8864C17.3127 18.0564 17.3927 18.2964 17.3927 18.5264V22.3764C17.3927 22.8164 17.0327 23.1864 16.5927 23.1864C16.1627 23.1864 15.8027 22.8164 15.8027 22.3764V18.8564L12.7027 16.5964C12.6327 16.5564 12.5827 16.5864 12.5327 16.6364L11.3927 19.2364L9.4227 22.7864C9.1827 23.1964 8.6827 23.2664 8.3527 23.0964C7.9727 22.8864 7.8327 22.3764 8.0427 22.0264L9.9427 18.6064L11.0627 10.4864C11.0927 10.3664 10.9627 10.3064 10.8827 10.3464L8.6527 11.3364C8.1527 11.5364 7.5627 11.2564 7.5627 10.6864Z"
        fillRule="evenodd"
        clipRule="evenodd"
    />
</svg>
        