
<svg
    viewBox={0 0 23.912109375 33.0859375}
    xmlns="http://www.w3.org/2000/svg"
>
    <path
        fill="inherit"
        d="M13.1937 24.6361L17.4337 18.8161L20.1137 23.7061C21.0137 27.9061 21.1237 31.1161 21.1237 31.6061C21.1237 32.4561 21.7537 33.0861 22.5137 33.0861C23.3137 33.0861 23.9137 32.4561 23.9137 31.6461C23.9137 31.5161 23.8437 27.8461 22.8437 22.9261L22.7937 22.6861C21.6437 17.0361 18.0437 6.5861 8.7637 0.4261C8.3037 0.1361 7.8937 -0.0039 7.4137 -0.0039H1.3937C0.6337 -0.0039 0.0037 0.6261 0.0037 1.3961C0.0037 2.2061 0.6337 2.8261 1.3937 2.8261H7.3037C8.7637 3.8461 10.0337 4.9361 11.1937 6.1161C11.3637 6.2661 11.3737 6.5061 11.2637 6.6861L6.5337 14.7661C5.9637 15.7761 6.6537 16.8861 7.7537 16.8861H14.2037L10.8137 23.1161L10.6737 23.3661L6.5037 30.9961C6.1237 31.6761 6.3737 32.5561 7.0537 32.9061C7.6937 33.2461 8.5737 33.0961 8.9837 32.3461ZM5.7437 10.3261C7.3837 10.3261 8.7137 8.9961 8.7137 7.3261C8.7137 5.6861 7.3837 4.3661 5.7437 4.3661C4.0837 4.3661 2.7437 5.6861 2.7437 7.3261C2.7437 8.9961 4.0837 10.3261 5.7437 10.3261ZM10.1837 14.0861L11.2337 12.2861C11.4037 11.9761 11.7337 12.0461 11.8637 12.2461L13.0937 14.0861Z"
        fillRule="evenodd"
        clipRule="evenodd"
    />
</svg>
        