<svg viewBox="0 0 19.441856648446723 31.252137888833786" xmlns="http://www.w3.org/2000/svg"><path d="M9.6941 6.0178C11.3641 6.0178 12.7041 4.6778 12.7041 3.0078C12.7041 1.3378 11.3641 -0.0022 9.6941 -0.0022C8.0241 -0.0022 6.6841 1.3378 6.6841 3.0078C6.6841 4.6778 8.0241 6.0178 9.6941 6.0178ZM2.4441 30.7478L6.2941 26.1978C6.7241 25.6578 6.8741 25.4178 7.1741 24.7778L9.6141 19.5378C10.4141 17.7978 10.5541 16.8178 10.6741 15.0478L10.8441 12.8378L12.9841 14.8778C13.4841 15.3378 13.8641 15.4878 14.7141 15.4878H18.0041C18.8641 15.4878 19.4441 14.9978 19.4441 14.1878C19.4441 13.4278 18.8541 12.9178 18.0041 12.9178H14.4941L10.2941 8.3578C9.6641 7.6678 8.8441 7.2878 7.8741 7.2878C7.6541 7.2878 7.4541 7.2978 7.2441 7.3378V7.3278C7.2441 6.2778 6.3941 5.4378 5.2741 5.4378H3.8541C2.2541 5.4378 1.3141 6.3978 1.3141 8.0078V14.8778C1.3141 15.9978 2.0941 16.7578 3.2041 16.7578H4.9541C4.9341 17.7478 5.1641 18.3978 5.7141 19.2178L4.4441 24.1178L0.4341 28.8478C-0.9559 30.5178 1.3241 32.0878 2.4441 30.7478ZM18.0041 8.8778C17.6141 8.8778 17.2941 9.1878 17.2941 9.5878V11.5978H18.0041C18.1841 11.5978 18.4141 11.6178 18.7141 11.6778V9.5878C18.7141 9.1878 18.4041 8.8778 18.0041 8.8778ZM17.9941 31.2378C18.3941 31.2378 18.7141 30.9078 18.7141 30.5178V16.7378C18.4541 16.7878 18.2141 16.8178 18.0041 16.8178H17.2941V30.5178C17.2941 30.9078 17.5941 31.2378 17.9941 31.2378ZM15.2441 29.0378L12.4541 23.4078C12.2241 22.9378 11.9241 22.4478 11.6441 22.0478L10.5841 20.5778L9.1741 23.5978C9.4841 24.0178 9.6441 24.2578 9.7641 24.5178L12.6341 30.3078C13.5241 32.1278 16.2041 30.9978 15.2441 29.0378Z" /></svg>