
<svg
    viewBox="0 0 36.52717732074306 32.8125"
    xmlns="http://www.w3.org/2000/svg"
>
    <path
        fill="inherit"
        d="M19.4059 32.8173C20.0259 32.8173 20.5059 32.3573 20.5059 31.7473V1.0673C20.5059 0.4473 20.0259 -0.0027 19.4059 -0.0027C18.7959 -0.0027 18.3159 0.4473 18.3159 1.0673V31.7473C18.3159 32.3573 18.7959 32.8173 19.4059 32.8173ZM7.4059 7.9173C8.9059 7.9173 10.0959 6.6973 10.0959 5.2073C10.0959 3.7073 8.9059 2.5173 7.4059 2.5173C5.9159 2.5173 4.7159 3.7073 4.7159 5.2073C4.7159 6.6973 5.9159 7.9173 7.4059 7.9173ZM30.6859 7.9173C32.1759 7.9173 33.3859 6.6973 33.3859 5.2073C33.3859 3.7073 32.1759 2.5173 30.6859 2.5173C29.1859 2.5173 27.9859 3.7073 27.9859 5.2073C27.9859 6.6973 29.1859 7.9173 30.6859 7.9173ZM5.7959 30.1173C6.4659 30.1173 6.9859 29.5873 6.9859 28.9173V23.5673C6.9859 23.3373 7.1859 23.1573 7.4059 23.1573C7.6259 23.1573 7.8159 23.3373 7.8159 23.5673V28.9173C7.8159 29.5873 8.3459 30.1173 9.0159 30.1173C9.6859 30.1173 10.2359 29.5873 10.2359 28.9173V23.5673H11.9059C12.5759 23.5673 12.8759 22.9973 12.6559 22.3373L10.1659 14.6173C9.9759 14.0273 10.7559 13.7973 10.9559 14.3973L12.5159 19.1173C13.0259 20.6473 15.2559 20.0473 14.7359 18.4873L13.2959 14.1373C12.2959 11.1273 11.3459 9.3273 7.8159 9.3273H6.9859C3.4559 9.3273 2.5159 11.1273 1.5159 14.1373L0.0759 18.4873C-0.4441 20.0473 1.7859 20.6473 2.2959 19.1173L3.8559 14.3973C4.0559 13.7973 4.8259 14.0273 4.6459 14.6173L2.1459 22.3373C1.9359 22.9973 2.2259 23.5673 2.9059 23.5673H4.5759V28.9173C4.5759 29.5873 5.1059 30.1173 5.7959 30.1173ZM29.0659 30.1173C29.7359 30.1173 30.2659 29.5873 30.2659 28.9173V20.1073C30.2659 19.8973 30.4559 19.6973 30.6859 19.6973C30.9059 19.6973 31.0959 19.8973 31.0959 20.1073V28.9173C31.0959 29.5873 31.6359 30.1173 32.3159 30.1173C32.9859 30.1173 33.5159 29.5873 33.5159 28.9173V14.4473C33.5159 14.2173 33.6959 14.0573 33.9159 14.0573C34.1359 14.0573 34.3159 14.2173 34.3159 14.4473V19.2273C34.3159 19.8473 34.8059 20.3473 35.4359 20.3473C36.0359 20.3473 36.5259 19.8473 36.5259 19.2273V13.8873C36.5259 11.1573 34.5159 9.3373 31.5759 9.3373H29.7859C26.8459 9.3373 24.8359 11.1573 24.8359 13.8873V19.2273C24.8359 19.8473 25.3259 20.3473 25.9459 20.3473C26.5459 20.3473 27.0359 19.8473 27.0359 19.2273V14.4473C27.0359 14.2173 27.2159 14.0573 27.4359 14.0573C27.6659 14.0573 27.8459 14.2173 27.8459 14.4473V28.9173C27.8459 29.5873 28.3959 30.1173 29.0659 30.1173Z"
        fillRule="evenodd"
        clipRule="evenodd"
    />
</svg>
        