
<svg
    viewBox="0 0 27.890625 27.890625"
    xmlns="http://www.w3.org/2000/svg"
>
    <path
        fill="inherit"
        d="M13.9427 27.8864C21.6427 27.8864 27.8927 21.6464 27.8927 13.9464C27.8927 6.2464 21.6427 -0.0036 13.9427 -0.0036C6.2527 -0.0036 0.0027 6.2464 0.0027 13.9464C0.0027 21.6464 6.2527 27.8864 13.9427 27.8864ZM13.9427 25.5664C7.5227 25.5664 2.3227 20.3664 2.3227 13.9464C2.3227 7.5164 7.5227 2.3264 13.9427 2.3264C20.3727 2.3264 25.5627 7.5164 25.5627 13.9464C25.5627 20.3664 20.3727 25.5664 13.9427 25.5664ZM13.9627 9.2664C15.0027 9.2664 15.8227 8.4364 15.8227 7.4064C15.8227 6.3664 15.0027 5.5364 13.9627 5.5364C12.9327 5.5364 12.0827 6.3664 12.0827 7.4064C12.0827 8.4364 12.9327 9.2664 13.9627 9.2664ZM13.9427 15.8964C14.1927 15.8964 14.3827 16.0464 14.4627 16.3364L15.7327 21.2164C16.0127 22.3164 17.5127 21.9264 17.3627 20.9064C17.2927 20.4964 16.2027 16.3664 16.0527 15.4364C15.9327 14.7564 15.9827 13.0264 15.9827 12.2464C15.9827 12.0164 16.1727 11.8964 16.4027 11.9864L18.5827 12.8664C19.1527 13.0964 19.5627 12.8064 19.6727 12.4164C19.7927 12.0464 19.6327 11.5964 19.0827 11.3764L16.7627 10.4064C16.2127 10.1964 15.7327 10.0664 15.1927 9.9964C14.8227 10.1864 14.3927 10.2764 13.9427 10.2764C13.4927 10.2764 13.0827 10.1864 12.7027 9.9964C12.1527 10.0664 11.6727 10.1964 11.1327 10.4064L8.8027 11.3764C8.2727 11.5964 8.0927 12.0464 8.2327 12.4164C8.3427 12.8064 8.7527 13.0964 9.3227 12.8664L11.4827 11.9864C11.7127 11.8964 11.9227 12.0164 11.9227 12.2464C11.9227 13.0264 11.9627 14.7564 11.8527 15.4364C11.6927 16.3664 10.5927 20.4964 10.5227 20.9064C10.3727 21.9264 11.8827 22.3164 12.1527 21.2164L13.4227 16.3364C13.5127 16.0464 13.7027 15.8964 13.9427 15.8964Z"
        fillRule="evenodd"
        clipRule="evenodd"
    />
</svg>
        