<svg viewBox="0 0 31.392497023499132 21.259765625" xmlns="http://www.w3.org/2000/svg"><path d="M25.8555 5.9778C27.5055 5.9778 28.8355 4.6478 28.8355 2.9978C28.8355 1.3378 27.5055 -0.0022 25.8555 -0.0022C24.2055 -0.0022 22.8655 1.3378 22.8655 2.9978C22.8655 4.6478 24.2055 5.9778 25.8555 5.9778ZM1.8355 19.9978L9.8755 17.9878V19.8778C9.8755 20.6478 10.5055 21.2578 11.2555 21.2578C12.0155 21.2578 12.6455 20.6478 12.6455 19.8778V17.4878L18.4855 16.6078C19.5655 16.4578 20.6155 15.9778 21.5055 15.3078L26.5655 11.5278C26.7555 11.3878 27.0355 11.4178 27.1255 11.6478L28.6155 14.6578V19.8778C28.6155 20.6878 29.1955 21.2578 30.0155 21.2578C30.8355 21.2578 31.3955 20.6878 31.3955 19.8778V14.3278C31.3955 14.1078 31.3555 13.8778 31.2455 13.6878L28.8455 8.9178C28.3755 7.9578 27.4455 7.3678 26.3755 7.3678H25.1455C23.9555 7.3678 22.7755 7.7678 21.8255 8.4878L17.8555 11.4478L12.0355 10.2778C10.8155 10.0378 9.8755 10.5678 9.8755 11.8578V15.1178L1.1655 17.3378C0.2655 17.5578 -0.0845 18.2478 0.0155 18.8978C0.1355 19.6178 0.8055 20.2578 1.8355 19.9978ZM12.6455 14.4478V13.3978L14.5455 13.9878ZM19.2355 21.2578H24.7855C25.9355 21.2578 26.8655 20.3278 26.8655 19.1678C26.8655 18.0378 25.9355 17.0878 24.7855 17.0878H19.2355C18.0755 17.0878 17.1555 18.0378 17.1555 19.1678C17.1555 20.3278 18.0755 21.2578 19.2355 21.2578ZM24.7855 20.2778C24.1855 20.2778 23.6955 19.7678 23.6955 19.1578C23.6955 18.5678 24.1855 18.0778 24.7855 18.0778C25.4055 18.0778 25.8855 18.5678 25.8855 19.1578C25.8855 19.7678 25.4055 20.2778 24.7855 20.2778Z" /></svg>