<svg viewBox="0 0 33.455078125 30.352190363790125" xmlns="http://www.w3.org/2000/svg"><path d="M16.6537 5.9763C18.2837 5.9763 19.6337 4.6163 19.6337 2.9763C19.6337 1.3562 18.2837 -0.0038 16.6537 -0.0038C15.0137 -0.0038 13.6537 1.3562 13.6537 2.9763C13.6537 4.6163 15.0137 5.9763 16.6537 5.9763ZM12.2637 23.7463C12.8137 24.2963 13.6737 24.2963 14.2237 23.7463L19.8537 18.1163C20.6337 17.3463 20.1237 15.9163 18.9637 15.8063L12.6337 15.1163C12.1037 15.0663 12.0337 14.7363 12.2637 14.3963L14.5037 11.0063C14.7337 10.6763 15.1637 10.5963 15.4737 10.8163L19.4737 13.4563C19.6737 13.5863 19.9337 13.6963 20.2237 13.6963H26.4937C27.2437 13.6963 27.8737 13.0663 27.8737 12.3163C27.8737 11.5363 27.2437 10.9063 26.4937 10.9063H20.6137L8.4337 2.7862C8.2137 2.6363 7.9537 2.5463 7.6737 2.5463H1.3837C0.6337 2.5463 0.0037 3.1863 0.0037 3.9462C0.0037 4.7063 0.6337 5.3363 1.3837 5.3363H7.2637L9.5037 6.8263C9.8337 7.0362 9.9237 7.4662 9.6937 7.7963L6.4537 12.6563C4.9537 14.9163 6.2637 17.9263 9.1637 18.0863L15.6237 18.4263L12.2637 21.7963C11.7037 22.3363 11.7037 23.1963 12.2637 23.7463ZM26.4937 8.4763C26.4937 9.4363 28.0637 10.2163 29.9837 10.2163C31.8937 10.2163 33.4537 9.4363 33.4537 8.4763C33.4537 7.5163 31.8937 6.7263 29.9837 6.7263C28.0637 6.7263 26.4937 7.5163 26.4937 8.4763ZM7.0537 18.8563V23.5463L3.1837 28.0163C2.6937 28.6063 2.7437 29.5163 3.3537 30.0263C4.0337 30.5663 4.8837 30.3763 5.3337 29.8563L9.5037 24.9763C9.7337 24.7063 9.8037 24.4063 9.8437 24.1163L10.6237 19.4663L9.1037 19.3963C8.3437 19.3563 7.6437 19.1662 7.0537 18.8563Z" /></svg>