
<svg
    viewBox="0 0 27.890625 27.890625"
    xmlns="http://www.w3.org/2000/svg"
>
    <path
        fill="inherit"
        d="M13.9427 27.8864C21.6427 27.8864 27.8927 21.6264 27.8927 13.9464C27.8927 6.2464 21.6427 -0.0036 13.9427 -0.0036C6.2627 -0.0036 0.0027 6.2464 0.0027 13.9464C0.0027 21.6264 6.2627 27.8864 13.9427 27.8864ZM15.9827 7.8764C15.0427 7.8764 14.3027 7.1064 14.3027 6.1664C14.3027 5.2264 15.0427 4.4664 15.9827 4.4664C16.9427 4.4664 17.6927 5.2264 17.6927 6.1664C17.6927 7.1064 16.9427 7.8764 15.9827 7.8764ZM8.1927 13.5064C7.7627 13.3064 7.6127 12.8364 7.8027 12.4264L9.4727 9.1364C9.6127 8.8464 9.8827 8.6564 10.2127 8.6564H15.3627C16.4027 8.6564 17.0727 8.9964 17.7027 9.6364L18.6327 10.5664L19.7927 8.2964C20.0027 7.8864 20.4627 7.7264 20.8927 7.9264C21.3327 8.1164 21.4627 8.5964 21.2427 9.0064L19.6227 12.3364C19.3627 12.8564 18.6627 12.9064 18.2927 12.5364L16.3827 10.7164C16.2527 10.6264 16.1027 10.6364 16.0327 10.7864L14.4227 14.0164H18.0627C18.7027 14.0164 19.0127 14.6964 18.8027 15.1864L16.7227 19.7264C16.5327 20.1764 16.1027 20.3164 15.6427 20.1364C15.2327 20.0064 15.0527 19.4664 15.2427 19.0564L16.7227 15.7464L12.7027 15.9964C11.2527 16.0964 10.5727 14.7064 11.1327 13.6064L12.6227 10.6364C12.7027 10.4864 12.6027 10.2964 12.4127 10.2964H10.7227L9.2827 13.1564C9.0927 13.5264 8.6527 13.7364 8.1927 13.5064ZM6.7027 21.1764C6.4827 20.7364 6.7027 20.2464 7.1227 20.0864L10.1827 18.7764L11.1027 16.2164C11.4727 16.5564 12.1027 16.7364 12.7427 16.6964L13.0927 16.6764L11.5627 19.7564C11.4527 19.9464 11.3227 20.0864 11.1527 20.1564L7.7827 21.6064C7.5227 21.7264 6.9427 21.7264 6.7027 21.1764ZM19.5327 22.2864C18.6027 22.2864 17.8527 21.5364 17.8527 20.5864C17.8527 19.6364 18.6027 18.8664 19.5327 18.8664C20.5127 18.8664 21.2427 19.6364 21.2427 20.5864C21.2427 21.5364 20.5127 22.2864 19.5327 22.2864Z"
        fillRule="evenodd"
        clipRule="evenodd"
    />
</svg>
        