<svg viewBox="0 0 27.890625 27.890625" xmlns="http://www.w3.org/2000/svg"><path d="M13.9427 27.8864C21.6427 27.8864 27.8927 21.6464 27.8927 13.9464C27.8927 6.2464 21.6427 -0.0036 13.9427 -0.0036C6.2527 -0.0036 0.0027 6.2464 0.0027 13.9464C0.0027 21.6464 6.2527 27.8864 13.9427 27.8864ZM13.9427 25.5664C7.5227 25.5664 2.3227 20.3664 2.3227 13.9464C2.3227 7.5164 7.5227 2.3264 13.9427 2.3264C20.3727 2.3264 25.5627 7.5164 25.5627 13.9464C25.5627 20.3664 20.3727 25.5664 13.9427 25.5664ZM10.1627 8.8164C11.0727 8.8164 11.8127 8.0964 11.8127 7.1664C11.8127 6.2664 11.0727 5.5264 10.1627 5.5264C9.2527 5.5264 8.5027 6.2664 8.5027 7.1664C8.5027 8.0964 9.2527 8.8164 10.1627 8.8164ZM14.6827 21.6664H18.9327C19.4127 21.6664 19.5527 21.0564 19.1727 20.7964L17.7027 19.8364C17.8427 19.6064 17.9327 19.3464 18.0027 19.0764L19.7327 12.2464C20.8227 12.2464 21.7827 11.2964 21.7827 10.1564C21.7827 9.0064 20.8227 8.0564 19.6727 8.0564C18.5227 8.0564 17.5827 9.0064 17.5827 10.1564C17.5827 10.9764 18.0727 11.7164 18.7827 12.0464L17.0927 18.8364C16.8027 19.9564 15.8427 20.7164 14.6827 20.7164C14.4227 20.7164 14.2227 20.9464 14.2227 21.1864C14.2227 21.4264 14.4127 21.6664 14.6827 21.6664ZM19.6727 11.3164C18.9927 11.3164 18.5127 10.8264 18.5127 10.1564C18.5127 9.4864 18.9927 8.9964 19.6727 8.9964C20.3427 8.9964 20.8527 9.4864 20.8527 10.1564C20.8527 10.8264 20.3427 11.3164 19.6727 11.3164ZM12.7727 21.5464C13.1227 21.6564 13.5727 21.4664 13.7027 20.9964L14.8327 16.8664C14.9827 16.3564 14.7627 15.9564 14.2327 15.8164L10.9127 14.8764L11.1727 11.9664C11.1727 11.8664 11.2827 11.8264 11.3627 11.8764L12.9027 12.9764C13.1627 13.1764 13.5227 13.1764 13.7927 12.9764L16.4727 11.0564C16.8127 10.8164 16.9027 10.3464 16.6527 9.9964C16.4027 9.6564 15.9327 9.5664 15.5827 9.8064L13.3527 11.4164L11.5127 10.1064C11.1327 9.8064 10.6527 9.6064 10.0727 9.6064C9.1027 9.6064 8.3627 10.2264 8.3127 11.1064L8.0527 14.6864C7.9827 15.7464 8.4927 16.5564 9.6927 16.7364L13.1427 17.2164L12.2227 20.6064C12.1027 21.0564 12.3427 21.4364 12.7727 21.5464ZM7.9727 21.6664H11.2427C11.5127 21.6664 11.7127 21.4364 11.7127 21.1864C11.7127 20.9364 11.5127 20.7164 11.2427 20.7164C10.7627 20.7164 10.4327 20.5264 10.2927 19.9464L9.9927 18.5964L10.5927 18.4664C10.8027 18.4464 10.9327 18.2364 10.9327 18.0364C10.9327 17.8264 10.7727 17.6364 10.5827 17.5964L8.0227 17.1764C7.5727 17.0864 7.4127 17.5164 7.5427 17.8164L7.6927 18.0864C7.9727 18.6364 8.4127 18.9264 9.0627 18.7964L9.2827 19.7664L7.6927 20.7964C7.3127 21.0564 7.4527 21.6664 7.9727 21.6664Z" /></svg>