
<svg
    viewBox={0 0 27.718033400848693 31.320195986100828}
    xmlns="http://www.w3.org/2000/svg"
>
    <path
        fill="inherit"
        d="M21.8937 5.9638C23.5337 5.9638 24.8537 4.6337 24.8537 2.9638C24.8537 1.3238 23.5337 0.0038 21.8937 0.0038C20.2237 0.0038 18.8937 1.3238 18.8937 2.9638C18.8937 4.6337 20.2237 5.9638 21.8937 5.9638ZM3.0737 14.9538C4.7537 14.9538 6.1537 13.5738 6.1537 11.8837C6.1537 11.2838 5.9637 10.7038 5.6637 10.2238H13.9137C14.3937 10.2238 14.6137 10.7137 14.2737 11.0638L11.5437 13.7938C10.3037 15.0238 10.4837 16.8537 11.3237 17.4838L18.2837 22.7938L16.1237 29.4638C15.8037 30.4238 16.4037 31.1038 17.1337 31.2838C17.7737 31.4338 18.5237 31.1538 18.8137 30.2538L21.2337 22.7738C21.4137 22.2338 21.3137 21.6438 20.9337 21.2738L16.2537 16.5938L21.6337 11.2137C21.8637 10.9738 22.2137 10.9738 22.4537 11.2137L24.3037 13.0538L21.7637 15.6038C21.2037 16.1737 21.2237 17.0638 21.7637 17.6138C22.2837 18.1138 23.2037 18.1737 23.7637 17.6138L27.3037 14.0638C27.8637 13.5038 27.8537 12.6337 27.3037 12.0738L23.8837 8.6238C23.0637 7.8038 22.0837 7.3938 20.9037 7.3938H4.4837C3.7237 7.3938 3.0737 8.0238 3.0737 8.8038C1.3837 8.8038 0.0037 10.2038 0.0037 11.8837C0.0037 13.5738 1.3837 14.9538 3.0737 14.9538ZM10.9137 18.8238L10.2237 22.9838H3.6737C2.8737 22.9838 2.2437 23.6138 2.2437 24.4038C2.2437 25.1838 2.8737 25.8138 3.6737 25.8138H11.3637C12.1037 25.8138 12.5937 25.4438 12.7837 24.7838L13.8937 21.1138Z"
        fillRule="evenodd"
        clipRule="evenodd"
    />
</svg>
        