
<svg
    viewBox={0 0 32.67578125 32.62627028185637}
    xmlns="http://www.w3.org/2000/svg"
>
    <path
        fill="inherit"
        d="M14.6437 18.9548L22.1637 21.2748L29.3537 24.5448C31.2137 25.3848 32.3037 22.7648 30.5537 21.9648L18.1737 16.3748V9.7248C18.1737 9.1748 18.3037 9.1148 18.7037 8.9648L22.4337 7.4448C22.9037 7.2548 22.9437 7.1448 23.1737 6.8648L27.0937 2.3148C27.6137 1.7148 27.5237 0.8248 26.9337 0.3348C26.3437 -0.1752 25.4437 -0.0952 24.9537 0.4948L21.2037 4.8548L3.9637 11.8948C3.4737 12.0948 3.1537 12.2948 2.9537 12.5048H9.9837L12.1037 11.6548C12.5237 11.4848 12.6737 11.6448 12.6737 11.8948V16.2448C12.6737 17.6848 13.3337 18.5548 14.6437 18.9548ZM13.7437 6.1148C15.3837 6.1148 16.7037 4.7948 16.7037 3.1348C16.7037 1.4948 15.3837 0.1648 13.7437 0.1648C12.0737 0.1648 10.7437 1.4948 10.7437 3.1348C10.7437 4.7948 12.0737 6.1148 13.7437 6.1148ZM0.7637 15.3848H11.3237V13.8648H0.7637C0.3237 13.8648 0.0037 14.1948 0.0037 14.6248C0.0037 15.0448 0.3237 15.3848 0.7637 15.3848ZM31.9237 15.3848C32.3437 15.3848 32.6737 15.0448 32.6737 14.6248C32.6737 14.1948 32.3437 13.8648 31.9237 13.8648H19.5337V15.3848ZM13.3937 30.8748C13.0837 31.9548 13.9437 32.6248 14.7837 32.6248C15.3537 32.6248 15.9437 32.3148 16.1237 31.6148L18.1337 24.3448C18.1537 24.2048 18.1737 24.0648 18.1737 23.9548V21.3848L14.9037 20.3948L15.3237 23.8748Z"
        fillRule="evenodd"
        clipRule="evenodd"
    />
</svg>
        