
<svg
    viewBox={0 0 32.361328125 22.53125}
    xmlns="http://www.w3.org/2000/svg"
>
    <path
        fill="inherit"
        d="M13.5037 0.7667C13.5037 1.1867 13.8337 1.5167 14.2637 1.5167C15.5037 1.5167 16.2437 1.7467 17.0337 2.6067C17.3337 2.9367 17.6237 3.0767 17.9337 3.0767C18.2537 3.0767 18.5537 2.9367 18.8437 2.6067C19.6337 1.7467 20.3837 1.5167 21.6137 1.5167C22.0437 1.5167 22.3637 1.1867 22.3637 0.7667C22.3637 0.3467 22.0237 -0.0033 21.6037 -0.0033C20.0737 -0.0033 19.0537 0.3567 17.9337 1.3767C16.8137 0.3567 15.8037 -0.0033 14.2737 -0.0033C13.8537 -0.0033 13.5037 0.3467 13.5037 0.7667ZM11.6937 13.3967C13.2337 14.0567 14.1137 15.1467 16.1737 15.1467C18.5937 15.1467 19.2737 13.6567 21.4237 13.1067L13.7037 5.0967C13.0937 4.4567 12.1837 4.3767 11.4537 4.9067L6.0837 8.7067C5.1637 9.3667 5.2537 10.3367 5.7837 10.9267C6.2337 11.4167 7.0237 11.6067 7.7937 11.0767L12.1537 7.9967L14.6137 10.5267C14.8937 10.8167 14.9737 11.2367 14.5437 11.5267ZM23.3937 11.4567C25.0437 11.4567 26.3737 10.1167 26.3737 8.4667C26.3737 6.8067 25.0437 5.4867 23.3937 5.4867C21.7337 5.4867 20.3937 6.8067 20.3937 8.4667C20.3937 10.1167 21.7337 11.4567 23.3937 11.4567ZM0.7637 18.7567H2.1437C5.7937 18.7567 6.6337 16.5167 9.1637 16.5167C11.6937 16.5167 12.5237 18.7567 16.1737 18.7567C19.8337 18.7567 20.6537 16.5167 23.2037 16.5167C25.7337 16.5167 26.5537 18.7567 30.2137 18.7567H31.5937C32.0237 18.7567 32.3637 18.4267 32.3637 18.0067C32.3637 17.5867 32.0237 17.2367 31.5937 17.2367H30.2137C27.5937 17.2367 26.7037 14.9967 23.2037 14.9967C19.6837 14.9967 18.8037 17.2367 16.1737 17.2367C13.5537 17.2367 12.6737 14.9967 9.1637 14.9967C5.6637 14.9967 4.7737 17.2367 2.1437 17.2367H0.7637C0.3237 17.2367 0.0037 17.5867 0.0037 18.0067C0.0037 18.4267 0.3237 18.7567 0.7637 18.7567ZM0.7637 22.5267H2.1437C5.7937 22.5267 6.6337 20.2767 9.1637 20.2767C11.6937 20.2767 12.5237 22.5267 16.1737 22.5267C19.8337 22.5267 20.6537 20.2767 23.2037 20.2767C25.7337 20.2767 26.5537 22.5267 30.2137 22.5267H31.5937C32.0237 22.5267 32.3637 22.1867 32.3637 21.7667C32.3637 21.3467 32.0237 21.0167 31.5937 21.0167H30.2137C27.5937 21.0167 26.7037 18.7567 23.2037 18.7567C19.6837 18.7567 18.8037 21.0167 16.1737 21.0167C13.5537 21.0167 12.6737 18.7567 9.1637 18.7567C5.6637 18.7567 4.7737 21.0167 2.1437 21.0167H0.7637C0.3237 21.0167 0.0037 21.3467 0.0037 21.7667C0.0037 22.1867 0.3237 22.5267 0.7637 22.5267Z"
        fillRule="evenodd"
        clipRule="evenodd"
    />
</svg>
        