
<svg
    viewBox={0 0 35.041015625 25.74426397558076}
    xmlns="http://www.w3.org/2000/svg"
>
    <path
        fill="inherit"
        d="M23.1237 5.972C24.7737 5.972 26.1137 4.632 26.1137 2.982C26.1137 1.322 24.7737 0.002 23.1237 0.002C21.4637 0.002 20.1437 1.322 20.1437 2.982C20.1437 4.632 21.4637 5.972 23.1237 5.972ZM13.0737 25.592C13.6037 25.892 14.5037 25.772 14.9037 24.982L18.3337 18.152C18.5937 17.622 18.5137 16.992 18.0737 16.572L13.9437 12.432L16.0537 11.372L22.5737 17.912V18.222C22.5737 18.972 23.2037 19.592 23.9537 19.592C24.0537 19.592 24.1337 19.582 24.2137 19.562L29.5137 24.852C29.7637 25.102 29.9237 25.142 30.1837 25.142H34.3037C34.7037 25.142 35.0437 24.802 35.0437 24.392V23.712C35.0437 23.282 34.7037 22.942 34.3037 22.942H29.7537L25.2937 18.482C25.3037 18.402 25.3237 18.302 25.3237 18.222V12.072C25.3237 11.702 25.2337 11.372 24.9237 11.092L18.7437 4.932C18.0437 4.242 17.1337 3.872 16.1437 3.872H10.8937C9.5337 3.872 9.1337 5.362 9.9637 6.182L11.6037 7.802L10.9337 8.082C8.4537 9.102 7.7237 12.372 10.0737 14.082L15.3637 17.962L12.4737 23.762C12.1237 24.432 12.4037 25.242 13.0737 25.592ZM19.1537 9.812C19.4137 9.682 19.7037 9.752 19.8937 9.942L22.5737 12.632V15.762L17.4637 10.662ZM1.3637 20.292H8.2137C8.7637 20.292 9.2037 19.952 9.4237 19.522L10.9737 16.392L9.2937 15.152C8.9137 14.872 8.5837 14.562 8.3237 14.232L7.2237 17.542H1.3637C0.6137 17.542 0.0037 18.152 0.0037 18.922C0.0037 19.672 0.6137 20.292 1.3637 20.292Z"
        fillRule="evenodd"
        clipRule="evenodd"
    />
</svg>
        