<svg viewBox="0 0 27.890625 27.890625" xmlns="http://www.w3.org/2000/svg"><path d="M13.9427 27.8864C21.6427 27.8864 27.8927 21.6464 27.8927 13.9464C27.8927 6.2464 21.6427 -0.0036 13.9427 -0.0036C6.2527 -0.0036 0.0027 6.2464 0.0027 13.9464C0.0027 21.6464 6.2527 27.8864 13.9427 27.8864ZM13.9427 25.5664C7.5227 25.5664 2.3227 20.3664 2.3227 13.9464C2.3227 7.5164 7.5227 2.3264 13.9427 2.3264C20.3727 2.3264 25.5627 7.5164 25.5627 13.9464C25.5627 20.3664 20.3727 25.5664 13.9427 25.5664ZM13.9227 7.9664C14.8227 7.9664 15.5627 7.2164 15.5627 6.3064C15.5627 5.4164 14.8227 4.6664 13.9227 4.6664C13.0027 4.6664 12.2627 5.4164 12.2627 6.3064C12.2627 7.2164 13.0027 7.9664 13.9227 7.9664ZM17.3727 22.6364C17.8127 22.6364 18.1527 22.2964 18.1527 21.8564V17.5964C18.1527 17.4064 18.0627 17.1264 17.8127 16.9764L15.0527 15.1664V10.4864C15.0527 10.3864 15.1327 10.2964 15.2427 10.2964H21.2327C21.6727 10.2964 22.0127 9.9564 22.0127 9.5264C22.0127 9.1164 21.6727 8.7664 21.2327 8.7664H12.7127C12.0027 8.7664 11.6027 9.0264 11.2427 9.4764L9.2327 11.9364C8.7327 12.5364 9.1227 13.3864 9.7627 13.3864H11.9727V14.4464C11.9727 15.1664 12.3727 15.8164 13.0027 16.1464L16.6127 18.0864V21.8564C16.6127 22.2964 16.9527 22.6364 17.3727 22.6364ZM11.1927 11.8964L12.0127 10.8564V11.8964ZM8.7127 22.3764C8.9827 22.6964 9.4727 22.7364 9.8027 22.4364L12.8227 19.7964C12.9727 19.6564 13.0327 19.5964 13.0827 19.4564L13.9227 17.3864L12.6827 16.7164C12.4927 16.6064 12.3627 16.5264 12.3227 16.4864L11.6927 18.7464L8.7727 21.2864C8.4627 21.5564 8.4227 22.0664 8.7127 22.3764Z" /></svg>