
<svg
    viewBox="0 0 27.890625 27.890625"
    xmlns="http://www.w3.org/2000/svg"
>
    <path
        fill="inherit"
        d="M13.9427 27.8864C21.6427 27.8864 27.8927 21.6464 27.8927 13.9464C27.8927 6.2464 21.6427 -0.0036 13.9427 -0.0036C6.2527 -0.0036 0.0027 6.2464 0.0027 13.9464C0.0027 21.6464 6.2527 27.8864 13.9427 27.8864ZM13.9427 25.5664C7.5227 25.5664 2.3227 20.3664 2.3227 13.9464C2.3227 7.5164 7.5227 2.3264 13.9427 2.3264C20.3727 2.3264 25.5627 7.5164 25.5627 13.9464C25.5627 20.3664 20.3727 25.5664 13.9427 25.5664ZM11.4527 13.9064C12.2927 14.2564 12.7827 14.8564 13.9227 14.8564C15.2427 14.8564 15.6227 14.0364 16.8027 13.7364L12.5527 9.3264C12.2127 8.9664 11.7127 8.9264 11.3027 9.2164L8.3427 11.3164C7.8327 11.6764 7.8927 12.2064 8.1927 12.5364C8.4327 12.8064 8.8727 12.9164 9.2827 12.6164L11.6927 10.9264L13.0527 12.3164C13.2027 12.4664 13.2527 12.7164 13.0127 12.8764ZM17.9127 12.8264C18.8127 12.8264 19.5527 12.0964 19.5527 11.1864C19.5527 10.2664 18.8127 9.5464 17.9127 9.5464C16.9827 9.5464 16.2527 10.2664 16.2527 11.1864C16.2527 12.0964 16.9827 12.8264 17.9127 12.8264ZM5.3827 16.8964H6.1627C8.2327 16.8964 8.6727 15.6564 10.0327 15.6564C11.4127 15.6564 11.8527 16.8964 13.9227 16.8964C15.9827 16.8964 16.4227 15.6564 17.8027 15.6564C19.1727 15.6564 19.6027 16.8964 21.6727 16.8964H22.4527C22.6927 16.8964 22.9127 16.6964 22.9127 16.4364C22.9127 16.1864 22.6927 15.9664 22.4527 15.9664H21.6727C20.2627 15.9664 19.7727 14.7264 17.8027 14.7264C15.8327 14.7264 15.3427 15.9664 13.9227 15.9664C12.5127 15.9664 12.0027 14.7264 10.0327 14.7264C8.0627 14.7264 7.5727 15.9664 6.1627 15.9664H5.3827C5.1427 15.9664 4.9227 16.1864 4.9227 16.4364C4.9227 16.6964 5.1427 16.8964 5.3827 16.8964ZM9.7727 17.7364C10.0227 17.7364 10.2127 17.5364 10.2127 17.2964C10.2127 17.0464 10.0227 16.8564 9.7727 16.8564C9.5327 16.8564 9.3427 17.0464 9.3427 17.2964C9.3427 17.5364 9.5327 17.7364 9.7727 17.7364ZM18.0927 17.7364C18.3327 17.7364 18.5227 17.5364 18.5227 17.2964C18.5227 17.0464 18.3327 16.8564 18.0927 16.8564C17.8527 16.8564 17.6527 17.0464 17.6527 17.2964C17.6527 17.5364 17.8527 17.7364 18.0927 17.7364ZM8.3527 18.0564C8.5827 18.0564 8.7927 17.8664 8.7927 17.6264C8.7927 17.3764 8.5827 17.1864 8.3527 17.1864C8.1027 17.1864 7.9127 17.3764 7.9127 17.6264C7.9127 17.8664 8.1027 18.0564 8.3527 18.0564ZM11.1927 18.0564C11.4427 18.0564 11.6327 17.8664 11.6327 17.6264C11.6327 17.3764 11.4427 17.1864 11.1927 17.1864C10.9527 17.1864 10.7627 17.3764 10.7627 17.6264C10.7627 17.8664 10.9527 18.0564 11.1927 18.0564ZM19.5227 18.0564C19.7527 18.0564 19.9427 17.8664 19.9427 17.6264C19.9427 17.3764 19.7527 17.1864 19.5227 17.1864C19.2727 17.1864 19.0827 17.3764 19.0827 17.6264C19.0827 17.8664 19.2727 18.0564 19.5227 18.0564ZM16.6627 18.0564C16.9127 18.0564 17.1027 17.8664 17.1027 17.6264C17.1027 17.3764 16.9127 17.1864 16.6627 17.1864C16.4227 17.1864 16.2327 17.3764 16.2327 17.6264C16.2327 17.8664 16.4227 18.0564 16.6627 18.0564ZM7.0127 18.6864C7.2427 18.6864 7.4527 18.4964 7.4527 18.2564C7.4527 18.0064 7.2427 17.8164 7.0127 17.8164C6.7627 17.8164 6.5727 18.0064 6.5727 18.2564C6.5727 18.4964 6.7627 18.6864 7.0127 18.6864ZM12.5227 18.6864C12.7727 18.6864 12.9627 18.4964 12.9627 18.2564C12.9627 18.0064 12.7727 17.8164 12.5227 17.8164C12.2927 17.8164 12.1027 18.0064 12.1027 18.2564C12.1027 18.4964 12.2927 18.6864 12.5227 18.6864ZM20.8627 18.6864C21.0927 18.6864 21.3027 18.4964 21.3027 18.2564C21.3027 18.0064 21.0927 17.8164 20.8627 17.8164C20.6127 17.8164 20.4227 18.0064 20.4227 18.2564C20.4227 18.4964 20.6127 18.6864 20.8627 18.6864ZM15.3427 18.6864C15.5727 18.6864 15.7727 18.4964 15.7727 18.2564C15.7727 18.0064 15.5727 17.8164 15.3427 17.8164C15.0927 17.8164 14.9027 18.0064 14.9027 18.2564C14.9027 18.4964 15.0927 18.6864 15.3427 18.6864ZM5.5927 18.9464C5.8427 18.9464 6.0327 18.7564 6.0327 18.5164C6.0327 18.2664 5.8427 18.0764 5.5927 18.0764C5.3627 18.0764 5.1727 18.2664 5.1727 18.5164C5.1727 18.7564 5.3627 18.9464 5.5927 18.9464ZM22.2727 18.9464C22.5027 18.9464 22.7127 18.7564 22.7127 18.5164C22.7127 18.2664 22.5027 18.0764 22.2727 18.0764C22.0227 18.0764 21.8327 18.2664 21.8327 18.5164C21.8327 18.7564 22.0227 18.9464 22.2727 18.9464ZM13.9327 18.9464C14.1827 18.9464 14.3727 18.7564 14.3727 18.5164C14.3727 18.2664 14.1827 18.0764 13.9327 18.0764C13.6827 18.0764 13.4927 18.2664 13.4927 18.5164C13.4927 18.7564 13.6827 18.9464 13.9327 18.9464Z"
        fillRule="evenodd"
        clipRule="evenodd"
    />
</svg>
        