
<svg
    viewBox="0 0 27.890625 27.890625"
    xmlns="http://www.w3.org/2000/svg"
>
    <path
        fill="inherit"
        d="M13.9437 27.8864C21.6437 27.8864 27.8937 21.6264 27.8937 13.9464C27.8937 6.2464 21.6437 -0.0036 13.9437 -0.0036C6.2637 -0.0036 0.0037 6.2464 0.0037 13.9464C0.0037 21.6264 6.2637 27.8864 13.9437 27.8864ZM9.6937 17.1064V15.4764C9.6937 14.7664 10.1737 14.2864 10.8537 14.2864H13.6437V11.3364C13.6437 11.0864 13.7137 10.8864 13.8637 10.7164L19.2537 5.3464C19.4437 5.1564 19.7437 5.1564 19.9037 5.3464C20.1137 5.5064 20.0937 5.8064 19.9037 6.0064L17.3937 8.5464V13.4664C17.3937 13.9164 17.0237 14.2564 16.5837 14.2564C16.1437 14.2564 15.7737 13.9164 15.7737 13.4664V10.1464L15.2437 10.6864V15.0764C15.2437 15.5064 14.8737 15.8564 14.4537 15.8564H13.4637C13.3537 15.8564 13.2737 15.9564 13.2737 16.0664V19.1264C12.8537 19.3164 12.4237 19.5264 12.0137 19.7664C11.3337 18.6064 10.5437 17.7364 9.6937 17.1064ZM11.2337 13.6564C10.2837 13.6564 9.5137 12.8964 9.5137 11.9364C9.5137 11.0064 10.2837 10.2364 11.2337 10.2364C12.1637 10.2364 12.9337 11.0064 12.9337 11.9364C12.9337 12.8964 12.1637 13.6564 11.2337 13.6564ZM4.0237 17.0264C4.0237 16.7364 4.2337 16.5464 4.4937 16.5464C6.9637 16.5464 9.9137 17.4964 11.6437 21.3964C13.4237 19.8364 15.6137 19.2864 18.3937 19.9464C19.1937 18.4664 20.7437 17.6664 22.4037 17.6664C22.6637 17.6664 22.8837 17.8864 22.8837 18.1464C22.8837 18.4064 22.6637 18.6164 22.4037 18.6164C20.9337 18.6164 19.7037 19.3164 19.1137 20.6764C18.9937 20.9164 18.7837 21.0564 18.5137 20.9864C15.6437 20.1664 13.6537 20.7364 11.9037 22.4764C11.6237 22.7664 11.1137 22.6964 10.9337 22.2464C9.4437 18.3764 6.8537 17.4964 4.4937 17.4964C4.2337 17.4964 4.0237 17.2764 4.0237 17.0264Z"
        fillRule="evenodd"
        clipRule="evenodd"
    />
</svg>
        