
<svg
    viewBox={0 0 27.890625 27.890625}
    xmlns="http://www.w3.org/2000/svg"
>
    <path
        fill="inherit"
        d="M13.9427 27.8864C21.6427 27.8864 27.8927 21.6464 27.8927 13.9464C27.8927 6.2464 21.6427 -0.0036 13.9427 -0.0036C6.2527 -0.0036 0.0027 6.2464 0.0027 13.9464C0.0027 21.6464 6.2527 27.8864 13.9427 27.8864ZM13.9427 25.5664C7.5227 25.5664 2.3227 20.3664 2.3227 13.9464C2.3227 7.5164 7.5227 2.3264 13.9427 2.3264C20.3727 2.3264 25.5627 7.5164 25.5627 13.9464C25.5627 20.3664 20.3727 25.5664 13.9427 25.5664ZM10.4627 23.2264C10.8827 23.2264 11.2227 22.8864 11.2227 22.4764V18.8664L13.3127 16.6264C13.3727 16.5664 13.4527 16.5664 13.4827 16.6264L15.4927 19.3364L17.2127 22.7464C17.6927 23.7064 19.0327 23.0264 18.5827 22.1064L15.0427 15.0264C14.7227 14.3964 14.5627 13.5364 14.4827 12.6764C14.4627 12.3864 14.6527 12.2664 14.9027 12.3864L16.2927 13.0864L17.5827 15.6664C18.0327 16.5864 19.4127 15.9664 18.9227 14.9864L17.5127 12.1964C17.4427 12.0464 17.3327 11.9364 17.1827 11.8564L15.1727 10.8464C14.5927 10.5364 13.9727 10.4364 13.4027 10.2964C12.7527 10.1164 12.1827 9.9264 11.7827 9.3764L10.8727 8.0364V5.4264C10.8727 5.0264 10.5227 4.6764 10.1027 4.6764C9.6827 4.6764 9.3527 5.0264 9.3527 5.4264V8.2764C9.3527 8.4464 9.3827 8.5764 9.4927 8.7064L11.0727 11.0164C11.2427 11.2264 11.3227 11.3564 11.3627 11.7164C11.4127 12.5464 11.5927 14.0964 11.9327 15.2264L9.8527 18.1264C9.7527 18.2664 9.7227 18.4164 9.7227 18.5664V22.4764C9.7227 22.8864 10.0327 23.2264 10.4627 23.2264ZM13.9327 9.4764C14.8227 9.4764 15.5727 8.7364 15.5727 7.8164C15.5727 6.9064 14.8227 6.1764 13.9327 6.1764C13.0127 6.1764 12.2627 6.9064 12.2627 7.8164C12.2627 8.7364 13.0127 9.4764 13.9327 9.4764Z"
        fillRule="evenodd"
        clipRule="evenodd"
    />
</svg>
        