<svg viewBox="0 0 27.890625 27.890625" xmlns="http://www.w3.org/2000/svg"><path d="M13.9427 27.8864C21.6427 27.8864 27.8927 21.6464 27.8927 13.9464C27.8927 6.2464 21.6427 -0.0036 13.9427 -0.0036C6.2527 -0.0036 0.0027 6.2464 0.0027 13.9464C0.0027 21.6464 6.2527 27.8864 13.9427 27.8864ZM13.9427 25.5664C7.5227 25.5664 2.3227 20.3664 2.3227 13.9464C2.3227 7.5164 7.5227 2.3264 13.9427 2.3264C20.3727 2.3264 25.5627 7.5164 25.5627 13.9464C25.5627 20.3664 20.3727 25.5664 13.9427 25.5664ZM12.5527 15.4864L16.7027 16.7664L20.6827 18.5664C21.6927 19.0164 22.3027 17.5864 21.3327 17.1464L14.5027 14.0564V10.3764C14.5027 10.0864 14.5727 10.0464 14.7827 9.9664L16.8527 9.1364C17.1027 9.0264 17.1327 8.9664 17.2527 8.8164L19.4327 6.3064C19.7027 5.9764 19.6627 5.4864 19.3327 5.2064C19.0027 4.9264 18.5227 4.9764 18.2427 5.2864L16.1727 7.6964L6.6627 11.5764C6.3427 11.7064 6.1927 11.8264 6.0727 11.9664H9.8727L11.1427 11.4464C11.3927 11.3464 11.4727 11.4464 11.4727 11.5764V13.9864C11.4727 14.7764 11.8227 15.2564 12.5527 15.4864ZM12.0427 8.3964C12.9427 8.3964 13.6827 7.6664 13.6827 6.7564C13.6827 5.8564 12.9427 5.1164 12.0427 5.1164C11.1327 5.1164 10.3927 5.8564 10.3927 6.7564C10.3927 7.6664 11.1327 8.3964 12.0427 8.3964ZM4.8827 13.5464H10.8127V12.6164H4.8827C4.6327 12.6164 4.4127 12.8364 4.4127 13.0864C4.4127 13.3464 4.6327 13.5464 4.8827 13.5464ZM15.1627 13.5464H22.0927C22.3427 13.5464 22.5627 13.3464 22.5627 13.0864C22.5627 12.8364 22.3427 12.6164 22.0927 12.6164H15.1627ZM11.8527 22.0664C11.7027 22.6664 12.1727 23.0264 12.6227 23.0264C12.9327 23.0264 13.2627 22.8564 13.3727 22.4664L14.4627 18.4564C14.4927 18.3764 14.5027 18.3064 14.5027 18.2564V16.7764L12.6827 16.2164L12.9227 18.1964Z" /></svg>