
<svg
    viewBox={0 0 41.08223852280039 14.205078125}
    xmlns="http://www.w3.org/2000/svg"
>
    <path
        fill="inherit"
        d="M5.4819 5.9582C7.1319 5.9582 8.4619 4.6382 8.4619 2.9782C8.4619 1.3382 7.1319 -0.0018 5.4819 -0.0018C3.8419 -0.0018 2.5119 1.3382 2.5119 2.9782C2.5119 4.6382 3.8419 5.9582 5.4819 5.9582ZM14.4219 14.2082H18.3319C21.5719 14.2082 22.4919 12.3582 22.2119 10.2382L21.3119 3.0582H28.3219C29.1219 3.0582 29.7319 2.4382 29.7319 1.6382C29.7319 0.8582 29.1219 0.2482 28.3219 0.2482H19.5719C18.7719 0.2482 18.1519 0.8082 18.1519 1.7682V9.0082H15.8119C14.5719 9.0082 13.5219 8.5582 12.9219 7.5982C12.7819 7.3782 12.7819 7.0582 13.0419 6.7582L16.5519 2.5882C17.3719 1.6282 16.7219 0.2482 15.5319 0.2482H10.5919C9.8119 0.2482 9.1819 0.8582 9.1819 1.6382C9.1819 2.4482 9.7919 3.0582 10.5919 3.0582H12.5919L10.5419 5.4782C9.0719 7.2182 7.7819 8.4182 5.5919 9.3882L3.4619 10.3482L4.1319 7.9882C4.3419 7.2082 3.8419 6.4382 3.1119 6.2782C2.3519 6.0882 1.5819 6.5482 1.3919 7.2782L0.0619 12.4582C-0.2981 13.8482 0.9319 14.5582 2.1419 14.0282L6.5619 12.0682C7.0119 11.8982 7.2719 11.9082 7.6119 12.1782C9.0319 13.3882 11.3019 14.2082 14.4219 14.2082ZM29.5119 11.0282H39.6719C40.4519 11.0282 41.0819 10.4082 41.0819 9.6082C41.0819 8.8282 40.4519 8.1982 39.6719 8.1982H29.3819C29.2719 8.1982 29.1319 8.1982 28.9819 8.2182L23.3519 8.6782L23.5419 10.0482C23.6419 10.8582 23.6219 11.5982 23.4619 12.2482Z"
        fillRule="evenodd"
        clipRule="evenodd"
    />
</svg>
        