
<svg
    viewBox="0 0 32.848404895110605 31.64683897167119"
    xmlns="http://www.w3.org/2000/svg"
>
    <path
        fill="inherit"
        d="M1.9037 26.0572H20.7637L26.3637 20.4672C26.6337 20.1872 27.0837 20.1872 27.3437 20.4672L29.6437 22.7472L27.2637 25.1372C26.0437 26.3672 27.8937 28.2272 29.1237 26.9972L32.4437 23.6872C32.9937 23.1472 32.9737 22.3372 32.4437 21.8072L28.5737 17.9472C27.8237 17.1972 26.8337 16.7672 25.7837 16.7672H16.1837V0.9772C16.1837 -0.0328 14.7137 -0.4728 14.0637 0.6972L0.9737 24.2672C0.4537 25.2172 0.9737 26.0572 1.9037 26.0572ZM2.8837 24.5372C2.7237 24.5372 2.6637 24.3872 2.7237 24.2872L14.3437 3.3472C14.4337 3.1772 14.6737 3.2272 14.6737 3.3972V24.5372ZM24.8837 15.3372C26.5337 15.3372 27.8637 14.0072 27.8637 12.3572C27.8637 10.6972 26.5337 9.3572 24.8837 9.3572C23.2137 9.3572 21.8937 10.6972 21.8937 12.3572C21.8937 14.0072 23.2137 15.3372 24.8837 15.3372ZM19.0737 19.4372C19.3137 19.4372 19.4237 19.6872 19.2637 19.8572L16.1837 22.9372V19.4372ZM0.7637 31.6472H2.1437C5.8137 31.6472 6.6337 29.3872 9.1737 29.3872C11.7037 29.3872 12.5237 31.6472 16.1837 31.6472C19.8337 31.6472 20.6737 29.3872 23.2037 29.3872C25.7337 29.3872 26.5637 31.6472 30.2137 31.6472H31.6137C32.0337 31.6472 32.3637 31.3172 32.3637 30.8972C32.3637 30.4672 32.0337 30.1272 31.6137 30.1272H30.2137C27.5937 30.1272 26.7037 27.8772 23.2037 27.8772C19.7037 27.8772 18.8137 30.1272 16.1837 30.1272C13.5637 30.1272 12.6737 27.8772 9.1737 27.8772C5.6637 27.8772 4.7837 30.1272 2.1437 30.1272H0.7637C0.3437 30.1272 0.0037 30.4672 0.0037 30.8972C0.0037 31.3172 0.3437 31.6472 0.7637 31.6472Z"
        fillRule="evenodd"
        clipRule="evenodd"
    />
</svg>
        