
<svg
    viewBox="0 0 41.40379941773915 27.48891105007346"
    xmlns="http://www.w3.org/2000/svg"
>
    <path
        fill="inherit"
        d="M7.949 6.0987C9.599 6.0987 10.959 4.6887 10.959 3.0587C10.959 1.3787 9.599 -0.0013 7.949 -0.0013C6.239 -0.0013 4.909 1.3787 4.909 3.0587C4.909 4.7187 6.239 6.0987 7.949 6.0987ZM28.129 5.0587H33.529C33.939 5.0587 34.019 4.6187 33.709 4.3987L31.259 2.7387C30.969 2.5587 30.689 2.5587 30.409 2.7387L27.969 4.3987C27.649 4.6187 27.719 5.0587 28.129 5.0587ZM12.559 8.6787L15.139 5.7987C15.579 5.2887 15.549 4.7287 15.109 4.3787C14.699 4.0087 14.169 3.9887 13.689 4.5287L10.789 7.7787C11.419 8.0287 12.019 8.3387 12.559 8.6787ZM24.009 8.7487V12.0587C24.009 13.0187 24.729 13.7287 25.679 13.7287H28.289C29.249 13.7287 29.959 13.0187 29.959 12.0587V8.7487C29.959 7.7887 29.249 7.0787 28.289 7.0787H25.679C24.729 7.0787 24.009 7.7887 24.009 8.7487ZM31.639 8.7487V12.0587C31.639 13.0187 32.339 13.7287 33.309 13.7287H35.919C36.879 13.7287 37.579 13.0187 37.579 12.0587V8.7487C37.579 7.7887 36.879 7.0787 35.919 7.0787H33.309C32.339 7.0787 31.639 7.7887 31.639 8.7487ZM2.109 17.4087L10.789 7.7787C9.929 7.4487 8.999 7.3187 7.949 7.3187C4.029 7.3187 1.719 9.1987 1.719 12.3587C1.719 13.1287 1.739 14.1387 1.869 15.1787ZM13.759 17.4087L14.009 15.1787C14.129 14.1387 14.169 13.1287 14.169 12.3587C14.169 10.7987 13.609 9.5387 12.559 8.6987L5.669 16.3487C6.429 16.2287 7.179 16.1787 7.949 16.1787C9.859 16.1787 11.789 16.4287 13.759 17.4087ZM27.009 11.8287C26.219 11.8287 25.559 11.1787 25.559 10.3887C25.559 9.6287 26.219 8.9987 27.009 8.9987C27.759 8.9987 28.399 9.6287 28.399 10.3887C28.399 11.1787 27.759 11.8287 27.009 11.8287ZM34.619 11.8287C33.839 11.8287 33.189 11.1787 33.189 10.3887C33.189 9.6287 33.839 8.9987 34.619 8.9987C35.379 8.9987 36.049 9.6287 36.049 10.3887C36.049 11.1787 35.379 11.8287 34.619 11.8287ZM20.209 18.4687V21.7887C20.209 22.7487 20.919 23.4587 21.869 23.4587H24.489C25.439 23.4587 26.149 22.7487 26.149 21.7887V18.4687C26.149 17.5087 25.439 16.8187 24.489 16.8187H21.869C20.919 16.8187 20.209 17.5087 20.209 18.4687ZM27.839 18.4687V21.7887C27.839 22.7487 28.549 23.4587 29.509 23.4587H32.119C33.059 23.4587 33.759 22.7487 33.759 21.7887V18.4687C33.759 17.5087 33.059 16.8187 32.119 16.8187H29.509C28.549 16.8187 27.839 17.5087 27.839 18.4687ZM35.459 18.4687V21.7887C35.459 22.7487 36.169 23.4587 37.129 23.4587H39.739C40.689 23.4587 41.399 22.7487 41.399 21.7887V18.4687C41.399 17.5087 40.689 16.8187 39.739 16.8187H37.129C36.169 16.8187 35.459 17.5087 35.459 18.4687ZM0.429 18.4187C-0.081 18.7687 -0.091 19.3487 0.159 19.7187C0.389 20.1087 0.879 20.2987 1.409 19.9887C1.729 19.7787 2.019 19.6087 2.339 19.4287L2.109 17.4087C1.499 17.6787 0.949 17.9887 0.429 18.4187ZM4.589 27.4787C5.389 27.3687 5.939 26.7987 5.819 25.7987L5.269 20.7587H10.589L10.059 25.7987C9.959 26.7987 10.479 27.3687 11.269 27.4787C12.089 27.5587 12.719 27.0387 12.829 26.0887L13.539 19.4287C13.859 19.6087 14.139 19.7787 14.459 19.9887C14.979 20.2987 15.469 20.1287 15.699 19.7387C15.949 19.3587 15.949 18.7887 15.459 18.4187C14.919 17.9887 14.379 17.6787 13.759 17.4087L13.529 19.4187C11.759 18.3987 9.819 18.0087 7.949 18.0087C6.049 18.0087 4.089 18.3987 2.339 19.4287L3.039 26.0887C3.139 27.0387 3.769 27.5587 4.589 27.4787ZM23.189 21.5587C22.409 21.5587 21.759 20.9187 21.759 20.1287C21.759 19.3587 22.409 18.7187 23.189 18.7187C23.959 18.7187 24.599 19.3587 24.599 20.1287C24.599 20.9187 23.959 21.5587 23.189 21.5587ZM30.809 21.5587C30.029 21.5587 29.369 20.9187 29.369 20.1287C29.369 19.3587 30.029 18.7187 30.809 18.7187C31.569 18.7187 32.229 19.3587 32.229 20.1287C32.229 20.9187 31.569 21.5587 30.809 21.5587ZM38.439 21.5587C37.659 21.5587 36.989 20.9187 36.989 20.1287C36.989 19.3587 37.659 18.7187 38.439 18.7187C39.189 18.7187 39.849 19.3587 39.849 20.1287C39.849 20.9187 39.189 21.5587 38.439 21.5587Z"
        fillRule="evenodd"
        clipRule="evenodd"
    />
</svg>
        