
<svg
    viewBox="0 0 27.890625 27.890625"
    xmlns="http://www.w3.org/2000/svg"
>
    <path
        fill="inherit"
        d="M13.9427 27.8864C21.6427 27.8864 27.8927 21.6264 27.8927 13.9464C27.8927 6.2464 21.6427 -0.0036 13.9427 -0.0036C6.2627 -0.0036 0.0027 6.2464 0.0027 13.9464C0.0027 21.6264 6.2627 27.8864 13.9427 27.8864ZM10.3327 23.5164C9.9027 23.5164 9.5827 23.1564 9.5827 22.7464V18.7164C9.5827 18.5564 9.6127 18.4064 9.7227 18.2664L11.8627 15.2764C11.5227 14.0964 11.3327 12.5064 11.2827 11.6464C11.2227 11.2764 11.1427 11.1464 10.9827 10.9264L9.3427 8.5464C9.2327 8.4064 9.2027 8.2764 9.2027 8.0964V5.1564C9.2027 4.7564 9.5427 4.3864 9.9827 4.3864C10.4227 4.3864 10.7627 4.7564 10.7627 5.1564V7.8464L11.7027 9.2264C12.1127 9.8064 12.7127 10.0064 13.3727 10.1864C13.9727 10.3264 14.6027 10.4364 15.2027 10.7464L17.2827 11.7864C17.4327 11.8664 17.5427 11.9864 17.6227 12.1364L19.0727 15.0164C19.5827 16.0364 18.1527 16.6664 17.6927 15.7264L16.3627 13.0564L14.9327 12.3364C14.6727 12.2064 14.4827 12.3364 14.4927 12.6364C14.5727 13.5264 14.7427 14.4064 15.0627 15.0564L18.7127 22.3664C19.1827 23.3064 17.8027 24.0064 17.3127 23.0264L15.5327 19.4964L13.4527 16.7064C13.4227 16.6564 13.3427 16.6564 13.2927 16.7064L11.1327 19.0164V22.7464C11.1327 23.1564 10.7727 23.5164 10.3327 23.5164ZM13.9227 9.3364C12.9727 9.3364 12.2127 8.5764 12.2127 7.6264C12.2127 6.6864 12.9727 5.9364 13.9227 5.9364C14.8327 5.9364 15.6127 6.6864 15.6127 7.6264C15.6127 8.5764 14.8327 9.3364 13.9227 9.3364Z"
        fillRule="evenodd"
        clipRule="evenodd"
    />
</svg>
        