<svg viewBox="0 0 29.971859256105926 32.634765625" xmlns="http://www.w3.org/2000/svg"><path d="M20.3468 5.95C21.9968 5.95 23.3268 4.62 23.3268 2.98C23.3268 1.33 21.9968 0 20.3468 0C18.6968 0 17.3668 1.33 17.3668 2.98C17.3668 4.62 18.6968 5.95 20.3468 5.95ZM5.5268 20.12H13.3968L20.6768 21.15C23.3968 21.53 25.3668 20.34 25.3668 17.75V12.82C25.3668 12.58 25.6268 12.48 25.7868 12.65L27.1468 14.01V18.69C27.1468 19.48 27.8068 20.12 28.5668 20.12C29.3468 20.12 29.9768 19.48 29.9768 18.69V13.41C29.9768 13.04 29.8368 12.67 29.5468 12.4L26.1068 8.97C25.0768 7.97 23.7668 7.38 22.3068 7.38H8.8068C8.0468 7.38 7.3868 8.04 7.3868 8.8C7.3868 9.6 8.0168 10.23 8.8068 10.23H19.1868C19.5968 10.23 19.8968 10.54 19.8968 10.94V17.28H5.5268C4.7168 17.28 4.0868 17.91 4.0868 18.69C4.0868 19.48 4.7468 20.12 5.5268 20.12ZM1.3968 14.08C3.1768 15.85 5.1668 15.65 5.9268 14.92C6.6468 14.15 6.7068 12.3 4.9568 10.53C3.1468 8.74 1.2868 8.79 0.5368 9.56C-0.2132 10.31 -0.3832 12.28 1.3968 14.08ZM22.9768 32.22C23.5168 32.77 24.4068 32.77 24.9568 32.22C25.5168 31.68 25.4968 30.79 24.9568 30.23L20.4268 25.65L22.0468 22.52C21.5668 22.56 21.0268 22.52 20.4868 22.45L18.5268 22.18L17.3368 25.46C17.1468 25.96 17.2668 26.52 17.6768 26.93Z" /></svg>