
<svg
    viewBox={0 0 27.890625 27.890625}
    xmlns="http://www.w3.org/2000/svg"
>
    <path
        fill="inherit"
        d="M13.9427 27.8864C21.6427 27.8864 27.8927 21.6264 27.8927 13.9464C27.8927 6.2464 21.6427 -0.0036 13.9427 -0.0036C6.2627 -0.0036 0.0027 6.2464 0.0027 13.9464C0.0027 21.6264 6.2627 27.8864 13.9427 27.8864ZM13.6727 7.2864C12.7427 7.2864 11.9727 6.5364 11.9727 5.6064C11.9727 4.6464 12.7427 3.8964 13.6727 3.8964C14.6127 3.8964 15.3827 4.6464 15.3827 5.6064C15.3827 6.5364 14.6127 7.2864 13.6727 7.2864ZM7.5727 13.2364C7.1327 13.1664 6.8527 12.7264 6.9427 12.2864L7.7427 8.7264C7.8227 8.3664 8.1327 8.0964 8.5127 8.0964H13.4227C13.9727 8.0964 14.4927 8.1864 14.9727 8.3764L16.4627 8.9364V6.5264C16.4627 6.0864 16.8127 5.7264 17.2527 5.7264C17.7027 5.7264 18.0627 6.0864 18.0627 6.5264V10.1864C18.0627 10.7464 17.5227 11.0364 16.9827 10.8264L14.0827 9.7464C13.9727 9.6964 13.8327 9.7764 13.7927 9.8864L13.0727 12.7164L15.6027 12.4664C16.0827 12.4164 16.5727 12.8664 16.4427 13.4364L15.6727 17.4164C15.5627 17.8864 15.0827 18.1164 14.7127 18.0364C14.2827 17.9364 14.0227 17.5264 14.1127 17.0864L14.6427 14.3464L11.8027 15.0364C10.2627 15.4264 9.4627 14.2164 9.7627 12.9864L10.5527 9.9664C10.5827 9.8264 10.4827 9.7064 10.3327 9.7064H9.1627L8.5027 12.6464C8.3827 13.1064 7.9527 13.3164 7.5727 13.2364ZM11.1427 22.8164C10.7227 22.7364 10.4427 22.2964 10.5227 21.8564L11.2927 18.0064L10.9827 15.7764C11.1427 15.8364 11.4527 15.8164 11.9627 15.7064L12.8827 15.4864V17.9964C12.8827 18.0464 12.8927 18.1264 12.8827 18.2064L12.0827 22.1764C11.9727 22.6264 11.5127 22.8864 11.1427 22.8164ZM14.1827 21.2864C13.9327 21.2864 13.7027 21.0864 13.7027 20.8264C13.7027 20.5264 13.9327 20.3264 14.1827 20.3264H18.2827C18.5527 20.3264 18.7627 20.5464 18.7627 20.8264C18.7627 21.0864 18.5627 21.2864 18.2827 21.2864ZM13.3827 23.0364C13.0927 23.0364 12.8927 22.8364 12.8927 22.5564C12.8927 22.2964 13.0927 22.0764 13.3827 22.0764H19.0727C19.3227 22.0764 19.5527 22.2964 19.5527 22.5564C19.5527 22.8364 19.3227 23.0364 19.0727 23.0364Z"
        fillRule="evenodd"
        clipRule="evenodd"
    />
</svg>
        