
<svg
    viewBox={0 0 27.890625 27.890625}
    xmlns="http://www.w3.org/2000/svg"
>
    <path
        fill="inherit"
        d="M13.9427 27.8864C21.6427 27.8864 27.8927 21.6264 27.8927 13.9464C27.8927 6.2464 21.6427 -0.0036 13.9427 -0.0036C6.2627 -0.0036 0.0027 6.2464 0.0027 13.9464C0.0027 21.6264 6.2627 27.8864 13.9427 27.8864ZM10.3527 8.8764C9.4027 8.8764 8.6427 8.1164 8.6427 7.1664C8.6427 6.2364 9.4027 5.4664 10.3527 5.4664C11.2827 5.4664 12.0427 6.2364 12.0427 7.1664C12.0427 8.1164 11.2827 8.8764 10.3527 8.8764ZM21.3327 19.4364C21.7127 19.6364 21.8427 20.1364 21.6527 20.5064C21.4927 20.8664 21.0427 21.0664 20.5727 20.8264L16.0227 18.4064L13.2927 16.8464L8.7527 16.5064V20.1364C8.7527 20.5664 8.3927 20.9364 7.9427 20.9364C7.5327 20.9364 7.1627 20.5664 7.1627 20.1364V15.8764L5.6727 13.2664C5.5127 12.9564 5.5327 12.5664 5.7927 12.3164L7.9027 10.1964C8.2827 9.8464 8.6727 9.7064 9.2427 9.7064H11.0927C11.9327 9.7064 12.7027 10.2564 12.9227 11.1064L13.4927 13.4664C13.5727 13.7964 13.4527 14.1464 13.1527 14.3464C13.3327 14.5464 13.5327 14.7364 13.7527 14.9064L16.7227 16.9564ZM7.3527 13.0164L8.4227 14.8564H8.9727L9.8027 14.3864L8.7227 11.6364Z"
        fillRule="evenodd"
        clipRule="evenodd"
    />
</svg>
        