
<svg
    viewBox={0 0 27.890625 27.890625}
    xmlns="http://www.w3.org/2000/svg"
>
    <path
        fill="inherit"
        d="M13.9427 27.8864C21.6427 27.8864 27.8927 21.6264 27.8927 13.9464C27.8927 6.2464 21.6427 -0.0036 13.9427 -0.0036C6.2627 -0.0036 0.0027 6.2464 0.0027 13.9464C0.0027 21.6264 6.2627 27.8864 13.9427 27.8864ZM17.7427 7.3564C16.9027 7.3564 16.2327 6.6964 16.2327 5.8564C16.2327 5.0164 16.9027 4.3464 17.7427 4.3464C18.5627 4.3464 19.2327 5.0164 19.2327 5.8564C19.2327 6.6964 18.5627 7.3564 17.7427 7.3564ZM12.2227 10.3364C11.2827 10.3364 10.5427 9.5664 10.5427 8.6164C10.5427 7.6864 11.2827 6.9164 12.2227 6.9164C13.1527 6.9164 13.9327 7.6864 13.9327 8.6164C13.9327 9.5664 13.1527 10.3364 12.2227 10.3364ZM7.7227 14.1264V10.2664C7.7227 9.8464 8.0827 9.5064 8.5027 9.5064C8.9327 9.5064 9.2727 9.8464 9.2727 10.2664V12.8364L18.9227 8.0264C19.3027 7.8364 19.7527 7.9664 19.9627 8.3564C20.1527 8.7364 20.0027 9.1964 19.6227 9.3964L15.0127 11.6764C14.8027 11.7764 14.7827 11.9264 14.8227 12.1164L16.8827 20.3264C17.0127 20.7964 16.8827 21.0364 16.6127 21.2064L13.1227 23.5264C12.7727 23.7864 12.3227 23.6764 12.0727 23.3364C11.8427 22.9864 11.9327 22.5064 12.2927 22.2564L15.2327 20.2864L14.3127 17.8564L12.6427 20.9164C12.4827 21.2364 12.2527 21.3664 11.9227 21.3664H8.5027C8.0827 21.3664 7.7227 21.0264 7.7227 20.6064C7.7227 20.1964 8.0827 19.8364 8.5027 19.8364H11.4327L12.6627 16.7364L11.8927 13.5464C11.8427 13.4264 11.7027 13.3464 11.5827 13.4164L8.8427 14.7764C8.3527 15.0264 7.7227 14.7364 7.7227 14.1264Z"
        fillRule="evenodd"
        clipRule="evenodd"
    />
</svg>
        