
<svg
    viewBox="0 0 27.106217395110605 34.302734375"
    xmlns="http://www.w3.org/2000/svg"
>
    <path
        fill="inherit"
        d="M16.0686 5.9756C17.7186 5.9756 19.0486 4.6456 19.0486 2.9656C19.0486 1.3256 17.7186 -0.0044 16.0686 -0.0044C14.4186 -0.0044 13.0786 1.3256 13.0786 2.9656C13.0786 4.6456 14.4186 5.9756 16.0686 5.9756ZM2.7686 22.4356H11.7786C13.0386 22.4356 13.5886 21.0456 12.8786 20.1756L10.0586 16.7256L18.1286 16.1856H25.6986C26.4686 16.1856 27.1086 15.5756 27.1086 14.8056C27.1086 14.0556 26.4686 13.4156 25.6986 13.4156H11.6886L14.9886 10.0856C15.1386 9.9556 15.3386 9.8556 15.5386 9.8856L25.4686 11.1656C26.2686 11.2656 27.0086 10.6456 27.0086 9.8056C27.0086 9.1156 26.5086 8.5156 25.8086 8.4356L5.0286 5.8056C4.5886 5.7556 4.1886 5.9056 3.8786 6.1956L0.4086 9.6656C-0.1414 10.2156 -0.1314 11.0456 0.4086 11.6056C0.8986 12.1256 1.7986 12.1856 2.3586 11.6056L5.3586 8.6256L8.5986 9.0356C8.8986 9.0656 9.0186 9.3956 8.7986 9.6156L5.7386 12.6356C4.5486 13.8056 4.4786 15.7056 5.7386 16.9656L8.4186 19.6756H2.7686C2.0086 19.6756 1.3886 20.2856 1.3886 21.0556C1.3886 21.8056 2.0086 22.4356 2.7686 22.4356ZM16.2186 34.3056C16.6486 34.3056 16.9786 33.9756 16.9786 33.5556V19.3056C16.9786 18.8856 16.6486 18.5556 16.2186 18.5556C15.7986 18.5556 15.4586 18.8856 15.4586 19.3056V33.5556C15.4586 33.9756 15.7986 34.3056 16.2186 34.3056Z"
        fillRule="evenodd"
        clipRule="evenodd"
    />
</svg>
        