
<svg
    viewBox="0 0 28.65625 25.9765625"
    xmlns="http://www.w3.org/2000/svg"
>
    <path
        fill="inherit"
        d="M3.7309 25.9777H24.9209C27.2509 25.9777 28.6609 24.3677 28.6609 22.2677C28.6609 21.6277 28.4609 20.9577 28.1209 20.3577L17.5109 1.8777C16.8009 0.6277 15.5909 -0.0023 14.3309 -0.0023C13.0709 -0.0023 11.8409 0.6277 11.1409 1.8777L0.5309 20.3577C0.1609 20.9677 0.0009 21.6277 0.0009 22.2677C0.0009 24.3677 1.4109 25.9777 3.7309 25.9777ZM3.7509 23.8277C2.7909 23.8277 2.2109 23.0877 2.2109 22.2577C2.2109 21.9977 2.2709 21.6677 2.4209 21.3877L13.0109 2.9077C13.3009 2.4077 13.8209 2.1877 14.3309 2.1877C14.8309 2.1877 15.3409 2.4077 15.6309 2.9077L26.2209 21.3977C26.3709 21.6877 26.4409 21.9977 26.4409 22.2577C26.4409 23.0877 25.8409 23.8277 24.9009 23.8277ZM14.5709 9.2277C15.4109 9.2277 16.0909 8.5477 16.0909 7.7277C16.0909 6.8777 15.4109 6.2077 14.5709 6.2077C13.7309 6.2077 13.0409 6.8777 13.0409 7.7277C13.0409 8.5477 13.7309 9.2277 14.5709 9.2277ZM16.2109 21.4877C16.6509 22.3777 17.9909 21.8377 17.5009 20.8677L16.0209 17.8577C15.9309 17.6377 15.7509 17.4077 15.6409 17.1977L14.7009 15.8577L14.7409 15.6677C15.0209 14.9277 15.0909 14.4777 15.1509 13.7277L15.3009 11.6477C15.3809 10.6377 14.7609 9.8977 13.7509 9.8977C13.0009 9.8977 12.5009 10.2777 11.7709 10.9677L10.6809 12.0477C10.3109 12.4177 10.2009 12.6977 10.1609 13.1677L10.0309 14.8877C10.0109 15.2977 10.2509 15.5977 10.6409 15.6177C11.0509 15.6577 11.2809 15.4177 11.3209 14.9577L11.4809 13.0877L12.0209 12.6177C12.1909 12.4377 12.4709 12.5477 12.4409 12.7377L12.3309 14.3277C12.2609 15.1377 12.4509 15.5277 13.0009 16.1977L14.4609 18.0377C14.6109 18.2277 14.6409 18.2977 14.7009 18.3977ZM18.7409 12.7277H17.0609L16.0009 11.5477L15.8709 13.2777L16.3109 13.7177C16.5409 13.9277 16.7509 14.0177 17.1709 14.0177H18.7409C19.1709 14.0177 19.4409 13.7777 19.4409 13.3677C19.4409 12.9777 19.1709 12.7277 18.7409 12.7277ZM10.9209 21.6877L13.1009 19.0977C13.3009 18.8577 13.3409 18.7877 13.4109 18.5377L13.5809 18.0377L12.4109 16.5677L12.0709 18.2077L9.9209 20.7677C9.2309 21.5777 10.3509 22.3677 10.9209 21.6877Z"
        fillRule="evenodd"
        clipRule="evenodd"
    />
</svg>
        