<svg viewBox="0 0 27.890625 27.890625" xmlns="http://www.w3.org/2000/svg"><path d="M13.9427 27.8864C21.6427 27.8864 27.8927 21.6264 27.8927 13.9464C27.8927 6.2464 21.6427 -0.0036 13.9427 -0.0036C6.2627 -0.0036 0.0027 6.2464 0.0027 13.9464C0.0027 21.6264 6.2627 27.8864 13.9427 27.8864ZM19.3427 9.7464C18.3927 9.7464 17.6327 8.9864 17.6327 8.0564C17.6327 7.0964 18.3927 6.3464 19.3427 6.3464C20.2927 6.3464 21.0227 7.0964 21.0227 8.0564C21.0227 8.9864 20.2927 9.7464 19.3427 9.7464ZM13.7227 18.2264C13.2927 18.2264 12.9327 17.8664 12.9327 17.4464V13.8764L10.0727 10.9964C9.5127 10.4364 9.3527 9.5964 9.6527 8.8464C9.9627 8.1364 10.6627 7.6564 11.4527 7.6564H15.3027C16.1427 7.6564 16.8527 8.3364 16.8527 9.2164V11.9664H19.2127C19.6327 11.9664 19.9727 12.3164 19.9727 12.7564C19.9727 13.1664 19.6327 13.5364 19.2127 13.5364H16.0627C15.6427 13.5364 15.3027 13.1664 15.3027 12.7564V10.8164C15.3027 10.5964 15.1927 10.3764 14.9027 10.3764H12.3827C12.1927 10.3764 12.1027 10.5964 12.2327 10.7464L14.2727 13.0164C14.4227 13.1664 14.4927 13.3464 14.4927 13.5364V17.4464C14.4927 17.8664 14.1327 18.2264 13.7227 18.2264ZM8.5427 20.8464C6.4527 20.8464 4.7727 19.1664 4.7727 17.0664C4.7727 14.9564 6.4527 13.2664 8.5427 13.2664C10.6527 13.2664 12.3627 14.9564 12.3627 17.0664C12.3627 19.1664 10.6527 20.8464 8.5427 20.8464ZM20.7527 15.0164C20.4527 14.7264 20.4827 14.4664 20.6427 14.2564C20.8127 14.1064 21.1127 14.0164 21.3527 14.2364C22.1527 14.9464 22.6727 15.9664 22.6727 17.1064C22.6727 19.2064 20.9727 20.8864 18.8627 20.8864C16.7627 20.8864 15.0627 19.2064 15.0627 17.1064C15.0627 16.5564 15.1727 16.0364 15.4127 15.5564C15.5127 15.2464 15.7927 15.1764 16.0127 15.2864C16.2527 15.3664 16.4027 15.6164 16.2527 15.9664C16.1027 16.3364 16.0227 16.7164 16.0227 17.1064C16.0227 18.6664 17.2927 19.9164 18.8627 19.9164C20.4427 19.9164 21.6927 18.6664 21.6927 17.1064C21.6927 16.2664 21.3127 15.5164 20.7527 15.0164ZM8.5427 19.8764C10.1127 19.8764 11.4027 18.6364 11.4027 17.0664C11.4027 15.4864 10.1127 14.2164 8.5427 14.2164C6.9827 14.2164 5.7327 15.4864 5.7327 17.0664C5.7327 18.6364 6.9827 19.8764 8.5427 19.8764Z" /></svg>