
<svg
    viewBox="0 0 27.890625 27.890625"
    xmlns="http://www.w3.org/2000/svg"
>
    <path
        fill="inherit"
        d="M13.9427 27.8864C21.6427 27.8864 27.8927 21.6464 27.8927 13.9464C27.8927 6.2464 21.6427 -0.0036 13.9427 -0.0036C6.2527 -0.0036 0.0027 6.2464 0.0027 13.9464C0.0027 21.6464 6.2527 27.8864 13.9427 27.8864ZM13.9427 25.5664C7.5227 25.5664 2.3227 20.3664 2.3227 13.9464C2.3227 7.5164 7.5227 2.3264 13.9427 2.3264C20.3727 2.3264 25.5627 7.5164 25.5627 13.9464C25.5627 20.3664 20.3727 25.5664 13.9427 25.5664ZM18.7827 9.1464C19.6427 9.1464 20.3427 8.4464 20.3427 7.5864C20.3427 6.7264 19.6427 6.0264 18.7827 6.0264C17.9327 6.0264 17.2227 6.7264 17.2227 7.5864C17.2227 8.4464 17.9327 9.1464 18.7827 9.1464ZM9.6827 9.4564C10.5427 9.4564 11.2427 8.7664 11.2427 7.9064C11.2427 7.0564 10.5427 6.3564 9.6827 6.3564C8.8227 6.3564 8.1227 7.0564 8.1227 7.9064C8.1227 8.7664 8.8227 9.4564 9.6827 9.4564ZM5.3327 11.3864L6.9227 11.5164C7.0227 11.5164 7.1127 11.5964 7.1127 11.7164V14.6164C7.1127 15.1864 7.2827 15.7664 7.6427 16.2164L9.5027 18.6064L8.5627 21.7664C8.4327 22.1764 8.6727 22.6164 9.0827 22.7364C9.4627 22.8464 9.9027 22.6664 10.0327 22.2164L11.1027 18.6664C11.1327 18.5964 11.1427 18.5364 11.1427 18.4664L14.0127 22.1064C14.2827 22.4464 14.7827 22.5064 15.0927 22.2464C15.4527 21.9664 15.5127 21.4964 15.2327 21.1464L10.0927 14.6464L10.3227 12.3364C10.3327 12.1664 10.5027 12.0864 10.6327 12.1564L12.4327 13.0464C12.5527 13.1064 12.7727 13.1664 12.9427 13.1664H15.6927C15.8827 13.1664 16.0527 13.1064 16.2027 12.9864L17.5027 11.8564C17.6227 11.7464 17.8027 11.7964 17.8527 11.9664L18.5927 13.9964L15.4927 14.8364C15.1927 14.9264 14.9527 15.1864 14.9127 15.5164L14.5727 19.0764C14.5227 19.5764 14.9527 19.9164 15.3427 19.9164C15.7327 19.9164 16.0827 19.6364 16.1027 19.2264L16.4027 16.2664L18.5627 15.9364L17.5427 18.0064C17.4227 18.2364 17.3527 18.4864 17.4627 18.7164L18.8827 22.2764C19.0627 22.7064 19.5227 22.8564 19.8927 22.7064C20.2927 22.5464 20.4827 22.0964 20.3327 21.7064L19.0627 18.5364L20.8127 16.0364C21.2427 15.4264 21.4127 14.6264 21.2727 13.8764L21.0127 12.3764C20.9727 12.1864 21.1327 12.0564 21.3127 12.1164L22.2127 12.4164C22.8227 12.6064 23.2927 12.2464 23.2327 11.6364L22.9127 8.4664C22.8727 8.0164 22.4727 7.7064 22.0627 7.7664C21.6527 7.7964 21.3127 8.1764 21.3727 8.6164L21.5727 10.5664L19.4327 9.8464C18.5527 9.5564 17.6127 9.7164 16.9027 10.3364L15.4127 11.6064H13.0327L10.7327 10.4564C10.3927 10.2764 10.0327 10.1964 9.6527 10.1564L6.4227 9.9164L7.0427 8.0764C7.1827 7.6464 6.9727 7.2364 6.5627 7.0864C6.1527 6.9564 5.7127 7.1764 5.5827 7.5764L4.6527 10.3664C4.4727 10.8564 4.8227 11.3464 5.3327 11.3864Z"
        fillRule="evenodd"
        clipRule="evenodd"
    />
</svg>
        