
<svg
    viewBox="0 0 27.890625 27.890625"
    xmlns="http://www.w3.org/2000/svg"
>
    <path
        fill="inherit"
        d="M13.9427 27.8864C21.6427 27.8864 27.8927 21.6464 27.8927 13.9464C27.8927 6.2464 21.6427 -0.0036 13.9427 -0.0036C6.2527 -0.0036 0.0027 6.2464 0.0027 13.9464C0.0027 21.6464 6.2527 27.8864 13.9427 27.8864ZM13.9427 25.5664C7.5227 25.5664 2.3227 20.3664 2.3227 13.9464C2.3227 7.5164 7.5227 2.3264 13.9427 2.3264C20.3727 2.3264 25.5627 7.5164 25.5627 13.9464C25.5627 20.3664 20.3727 25.5664 13.9427 25.5664ZM15.9727 8.1664C16.8827 8.1664 17.6227 7.4364 17.6227 6.5064C17.6227 5.6064 16.8827 4.8764 15.9727 4.8764C15.0627 4.8764 14.3327 5.6064 14.3327 6.5064C14.3327 7.4364 15.0627 8.1664 15.9727 8.1664ZM7.7927 15.9864H12.1227L16.1627 16.5564C17.6627 16.7664 18.7427 16.1064 18.7427 14.6664V11.9464C18.7427 11.8164 18.8827 11.7564 18.9927 11.8664L19.7127 12.6164V15.2064C19.7127 15.6364 20.0827 15.9864 20.5127 15.9864C20.9427 15.9864 21.2827 15.6364 21.2827 15.2064V12.2764C21.2827 12.0764 21.2227 11.8764 21.0527 11.7264L19.1427 9.8264C18.5827 9.2664 17.8527 8.9564 17.0527 8.9564H9.5927C9.1827 8.9564 8.8227 9.3264 8.8227 9.7364C8.8227 10.1764 9.1627 10.5264 9.5927 10.5264H15.3427C15.5627 10.5264 15.7227 10.7064 15.7227 10.9064V14.4064H7.7927C7.3527 14.4064 7.0027 14.7664 7.0027 15.2064C7.0027 15.6364 7.3527 15.9864 7.7927 15.9864ZM5.5227 12.6464C6.4927 13.6264 7.6027 13.5264 8.0127 13.1064C8.4227 12.6864 8.4527 11.6764 7.4827 10.6864C6.4827 9.7064 5.4527 9.7164 5.0427 10.1564C4.6327 10.5564 4.5227 11.6464 5.5227 12.6464ZM18.5127 22.6664C18.8227 22.3664 18.8227 21.8764 18.5127 21.5564L16.0227 19.0264L16.9427 17.2564C16.6627 17.2664 16.3627 17.2564 16.0627 17.2164L15.0027 17.0664L14.3127 18.9264C14.2027 19.2064 14.2727 19.5264 14.5027 19.7464L17.4327 22.6664C17.7327 22.9864 18.2127 22.9864 18.5127 22.6664Z"
        fillRule="evenodd"
        clipRule="evenodd"
    />
</svg>
        