<svg viewBox="0 0 37.3597236582967 23.310546875" xmlns="http://www.w3.org/2000/svg"><path d="M6.2437 17.9795C5.7137 19.3495 6.2337 20.7495 7.3737 21.5495C9.2137 22.8295 10.9337 23.3095 13.6837 23.3095H18.0437C21.4137 23.3095 22.3137 20.6695 21.1637 18.4595L17.6537 11.6795V1.4195C17.6537 0.6195 17.0237 -0.0005 16.2037 -0.0005C15.4037 -0.0005 14.8037 0.6195 14.8037 1.4195V12.0195C14.8037 12.2095 14.8237 12.3595 14.8637 12.4995L16.8437 18.1695H14.2737C12.6237 18.1695 11.6637 17.7095 10.3637 16.9295C10.0237 16.7195 9.9237 16.4095 10.0737 16.0095L13.2637 7.8595C13.5537 7.1395 13.1837 6.2895 12.4437 6.0195C11.6737 5.7295 10.8837 6.0795 10.5937 6.8395ZM2.9937 17.0195C4.6337 17.0195 5.9737 15.6995 5.9737 14.0395C5.9737 12.3895 4.6337 11.0495 2.9937 11.0495C1.3437 11.0495 0.0037 12.3895 0.0037 14.0395C0.0037 15.6995 1.3437 17.0195 2.9937 17.0195ZM23.0337 21.0995L28.0937 19.4395L36.1737 17.9795C36.9537 17.8395 37.4737 17.1295 37.3337 16.3195C37.1837 15.5495 36.4537 15.0395 35.6737 15.1795L27.2237 16.7095L22.3437 17.5995L22.4537 17.7895C23.1037 18.8795 23.2137 20.0795 23.0337 21.0995Z" /></svg>