
<svg
    viewBox="0 0 27.890625 27.890625"
    xmlns="http://www.w3.org/2000/svg"
>
    <path
        fill="inherit"
        d="M13.9427 27.8864C21.6427 27.8864 27.8927 21.6264 27.8927 13.9464C27.8927 6.2464 21.6427 -0.0036 13.9427 -0.0036C6.2627 -0.0036 0.0027 6.2464 0.0027 13.9464C0.0027 21.6264 6.2627 27.8864 13.9427 27.8864ZM9.7527 8.5164C8.7927 8.5164 8.0527 7.7664 8.0527 6.8264C8.0527 5.8664 8.7927 5.1164 9.7527 5.1164C10.6927 5.1164 11.4527 5.8664 11.4527 6.8264C11.4527 7.7664 10.6927 8.5164 9.7527 8.5164ZM10.8527 21.8164C10.3127 21.8164 10.2427 21.0564 10.7627 20.8764L11.7627 20.5464L11.1327 17.7164C11.0327 17.3364 11.1027 17.0464 11.2827 16.7464L12.4427 14.7964C10.8427 14.1664 9.2927 13.0664 8.8827 11.4964C8.8427 11.3364 8.6927 11.1964 8.3927 11.2664L4.8227 11.9064C4.2627 12.0064 3.9327 11.6464 3.8727 11.2664C3.7827 10.8664 3.9927 10.4464 4.5027 10.3664L16.6927 8.1364C17.2427 8.0364 17.5727 8.3564 17.6327 8.7464C17.7327 9.1464 17.5427 9.5964 17.0127 9.6964L12.6027 10.4564C12.4127 10.5164 12.2727 10.7064 12.3727 10.9264C12.6727 11.7164 14.0527 12.3164 14.9027 12.4564L17.8127 12.6164L22.5327 11.7864C22.8327 11.7264 23.0327 11.8564 23.0927 12.1864L23.4627 14.2764C23.5527 14.8064 22.7727 14.9664 22.5327 14.5364L21.9827 13.5064L15.1227 14.7564L12.7827 17.6264L13.5727 21.1664C13.6827 21.5564 13.5127 21.8164 13.1527 21.8164ZM24.7727 14.6464C24.8027 14.8464 24.6927 15.0264 24.5127 15.0564C24.3227 15.0764 24.1327 14.9564 24.1027 14.7564L23.5727 11.7864C23.5327 11.5764 23.6527 11.4164 23.8427 11.3864C24.0327 11.3464 24.2127 11.4664 24.2427 11.6664ZM10.4427 23.0364C10.2527 23.0364 10.1127 22.8964 10.1127 22.7064C10.1127 22.5164 10.2527 22.3664 10.4427 22.3664H13.4827C13.6727 22.3664 13.8227 22.5164 13.8227 22.7064C13.8227 22.8964 13.6727 23.0364 13.4827 23.0364Z"
        fillRule="evenodd"
        clipRule="evenodd"
    />
</svg>
        