
<svg
    viewBox={0 0 23.972632052133058 27.789086860638854}
    xmlns="http://www.w3.org/2000/svg"
>
    <path
        fill="inherit"
        d="M12.9487 26.815H20.8987C22.9087 26.815 23.9687 25.715 23.9687 23.555V14.135C23.9687 12.245 23.1387 11.165 21.5787 10.955V7.625C21.5787 2.485 18.2187 -0.005 14.6387 -0.005C11.3987 -0.005 8.3487 2.035 7.7887 6.235C8.6187 6.395 9.3487 6.825 9.8887 7.435C9.9587 3.805 12.1487 2.065 14.6387 2.065C17.1887 2.065 19.4187 3.885 19.4187 7.345V10.895H11.0487C10.9987 11.265 10.8987 11.585 10.7687 11.905L13.2787 12.965H20.8287C21.4187 12.965 21.7587 13.315 21.7587 13.985V23.705C21.7587 24.375 21.4187 24.745 20.8287 24.745H12.5887L12.8487 25.855C12.9287 26.195 12.9687 26.505 12.9487 26.815ZM6.9887 12.525C8.2487 12.525 9.2387 11.525 9.2387 10.285C9.2387 9.035 8.2487 8.025 6.9887 8.025C5.7487 8.025 4.7387 9.035 4.7387 10.285C4.7387 11.525 5.7487 12.525 6.9887 12.525ZM6.9787 20.565C7.2787 20.565 7.5087 20.745 7.6087 21.085L9.1387 27.005C9.4787 28.315 11.2987 27.845 11.1087 26.605C11.0287 26.115 9.6987 21.105 9.5087 19.985C9.3687 19.165 9.4387 17.075 9.4387 16.135C9.4387 15.875 9.6687 15.695 9.9487 15.815L12.5687 16.875C13.2787 17.155 13.7687 16.815 13.9087 16.355C14.0487 15.885 13.8587 15.335 13.1987 15.085L10.3787 13.915C9.7087 13.645 9.1387 13.505 8.4787 13.415C8.0187 13.635 7.5287 13.765 6.9787 13.765C6.4287 13.765 5.9287 13.635 5.4787 13.415C4.8187 13.505 4.2187 13.645 3.5787 13.915L0.7587 15.085C0.0987 15.335 -0.1013 15.885 0.0487 16.355C0.1787 16.815 0.6787 17.155 1.3887 16.875L3.9987 15.815C4.2887 15.695 4.5187 15.875 4.5187 16.135C4.5187 17.075 4.5687 19.165 4.4387 19.985C4.2487 21.105 2.9287 26.115 2.8487 26.605C2.6587 27.845 4.4587 28.315 4.8187 27.005L6.3487 21.085C6.4287 20.745 6.6787 20.565 6.9787 20.565Z"
        fillRule="evenodd"
        clipRule="evenodd"
    />
</svg>
        