
<svg
    viewBox="0 0 27.890625 27.890625"
    xmlns="http://www.w3.org/2000/svg"
>
    <path
        fill="inherit"
        d="M13.9427 27.8864C21.6427 27.8864 27.8927 21.6264 27.8927 13.9464C27.8927 6.2464 21.6427 -0.0036 13.9427 -0.0036C6.2627 -0.0036 0.0027 6.2464 0.0027 13.9464C0.0027 21.6264 6.2627 27.8864 13.9427 27.8864ZM12.4727 7.5364C11.5427 7.5364 10.7727 6.7764 10.7727 5.8564C10.7727 4.9064 11.5427 4.1464 12.4727 4.1464C13.4127 4.1464 14.1827 4.9064 14.1827 5.8564C14.1827 6.7764 13.4127 7.5364 12.4727 7.5364ZM16.5327 19.9064C16.1427 20.0864 15.6027 19.9564 15.3927 19.4164L14.1327 16.2864L10.9527 14.4364C10.2427 14.0264 9.8027 13.2164 9.8727 12.3964L10.1127 9.6764C10.2027 8.5964 11.1427 7.9864 12.2227 8.3364L15.2027 9.3364L18.1427 9.0064C19.1927 8.8764 19.4027 10.4464 18.3227 10.5664L15.3027 10.9064C15.1227 10.9264 14.9427 10.9064 14.7627 10.8664L13.1627 10.3064C13.0027 10.2564 12.9027 10.3064 12.8827 10.4564L12.6827 13.2164L15.1927 15.0764C15.3627 15.2064 15.4527 15.2964 15.4727 15.4064L16.8527 18.8264C17.0627 19.3564 16.8527 19.7264 16.5327 19.9064ZM15.2827 22.3964C14.9827 22.5164 14.7527 22.3264 14.6727 22.1364C14.5927 21.9064 14.6527 21.5864 15.0027 21.4764L17.7427 20.5664V11.3164L18.3627 11.2564C18.5127 11.2364 18.5627 11.2264 18.7027 11.1864V20.8364C18.7027 21.1364 18.5827 21.2964 18.3327 21.3864ZM9.2527 21.2864C8.8427 21.1264 8.5827 20.6064 8.9427 20.0964L10.8527 17.2564L10.7327 15.0964L12.5227 16.1464L12.4427 17.4964C12.4127 17.6764 12.3627 17.8164 12.3027 17.9064L10.2427 20.9864C9.9627 21.3964 9.5727 21.4464 9.2527 21.2864ZM8.9827 23.1064C8.7227 23.1064 8.5127 22.8764 8.5127 22.6264C8.5127 22.3664 8.7227 22.1464 8.9827 22.1464H12.1827C12.4527 22.1464 12.7027 22.3564 12.7027 22.6264C12.7027 22.8764 12.4527 23.1064 12.1827 23.1064Z"
        fillRule="evenodd"
        clipRule="evenodd"
    />
</svg>
        