<svg viewBox="0 0 27.890625 27.890625" xmlns="http://www.w3.org/2000/svg"><path d="M13.9427 27.8864C21.6427 27.8864 27.8927 21.6464 27.8927 13.9464C27.8927 6.2464 21.6427 -0.0036 13.9427 -0.0036C6.2527 -0.0036 0.0027 6.2464 0.0027 13.9464C0.0027 21.6464 6.2527 27.8864 13.9427 27.8864ZM13.9427 25.5664C7.5227 25.5664 2.3227 20.3664 2.3227 13.9464C2.3227 7.5164 7.5227 2.3264 13.9427 2.3264C20.3727 2.3264 25.5627 7.5164 25.5627 13.9464C25.5627 20.3664 20.3727 25.5664 13.9427 25.5664ZM9.8827 8.6964C10.8127 8.6964 11.5427 7.9564 11.5427 7.0364C11.5427 6.1064 10.8127 5.3864 9.8827 5.3864C8.9727 5.3864 8.2427 6.1064 8.2427 7.0364C8.2427 7.9564 8.9727 8.6964 9.8827 8.6964ZM10.9827 21.5864H13.1927C13.5527 21.5864 13.7027 21.3264 13.6127 20.9464L12.8427 17.5164L15.0927 14.7364L21.7627 13.5264L22.3027 14.5164C22.5127 14.9464 23.2827 14.7964 23.1827 14.2764L22.8327 12.2364C22.7727 11.9264 22.5727 11.7964 22.3027 11.8564L17.7227 12.6564L14.8927 12.5064C14.0827 12.3764 12.7327 11.7864 12.4427 11.0164C12.3427 10.8164 12.4827 10.6264 12.6627 10.5664L16.9227 9.8264C17.4627 9.7364 17.6327 9.2964 17.5527 8.9164C17.4827 8.5264 17.1427 8.2264 16.6427 8.3164L4.8127 10.4764C4.3027 10.5564 4.1127 10.9664 4.1827 11.3464C4.2627 11.7264 4.5927 12.0764 5.1127 11.9764L8.5827 11.3464C8.8827 11.2964 9.0227 11.4164 9.0627 11.5764C9.4627 13.0964 10.9527 14.1664 12.5127 14.7664L11.3927 16.6664C11.2127 16.9564 11.1427 17.2364 11.2427 17.6064L11.8527 20.3564L10.8827 20.6764C10.3727 20.8364 10.4327 21.5864 10.9827 21.5864ZM24.4627 14.6264L23.9527 11.7264C23.9127 11.5564 23.7527 11.4264 23.5727 11.4664C23.3627 11.4964 23.2527 11.6664 23.2827 11.8564L23.8127 14.7364C23.8427 14.9264 24.0227 15.0564 24.2027 15.0264C24.3727 14.9964 24.4827 14.8164 24.4627 14.6264ZM10.5727 22.7664H13.5227C13.7027 22.7664 13.8527 22.6264 13.8527 22.4464C13.8527 22.2564 13.7027 22.1064 13.5227 22.1064H10.5727C10.3927 22.1064 10.2427 22.2564 10.2427 22.4464C10.2427 22.6264 10.3927 22.7664 10.5727 22.7664Z" /></svg>