
<svg
    viewBox="0 0 26.205753088170653 27.7103271484375"
    xmlns="http://www.w3.org/2000/svg"
>
    <path
        fill="inherit"
        d="M19.2337 13.8801C23.1037 13.8801 26.1937 10.6901 26.1937 6.9901C26.1937 3.1201 23.1037 0.0001 19.2337 0.0001C15.3837 0.0001 12.3637 3.1201 12.3637 6.9901C12.3637 10.6901 15.3837 13.8801 19.2337 13.8801ZM3.6737 7.6601C5.7537 7.6601 7.3937 5.9901 7.3937 3.9601C7.3937 1.9001 5.7537 0.2201 3.6737 0.2201C1.6437 0.2201 0.0037 1.9001 0.0037 3.9601C0.0037 5.9501 1.6437 7.6601 3.6737 7.6601ZM6.0737 21.8201L10.7337 16.2101L8.1337 11.5301C6.9637 9.3901 4.9637 8.5701 3.0337 9.6401C1.0437 10.7001 0.6737 12.8501 1.8337 14.9601L4.3437 19.5201C4.8937 20.5401 5.4537 21.3401 6.0737 21.8201ZM25.7037 27.1901C26.3637 26.5501 26.4237 25.4601 25.5837 24.5801L19.4837 18.2701C18.1837 16.9301 16.8337 16.7301 15.2337 17.3201L11.7437 18.5901L8.3237 22.8201C9.1837 22.9801 10.3537 23.0601 11.4437 22.6501L16.4037 20.7801C16.7037 20.6601 16.8337 20.7101 17.0337 20.9201L22.9137 26.9901C23.7937 27.8801 25.0037 27.9501 25.7037 27.1901ZM3.1037 27.3601C3.6937 27.8401 4.3337 27.7101 4.8437 27.1001L8.3237 22.8201C7.5337 22.6501 6.7637 22.3101 6.0737 21.8201L3.0337 25.5901C2.5137 26.2401 2.5537 26.9201 3.1037 27.3601Z"
        fillRule="evenodd"
        clipRule="evenodd"
    />
</svg>
        