
<svg
    viewBox={0 0 29.328468915809005 27.663915215542453}
    xmlns="http://www.w3.org/2000/svg"
>
    <path
        fill="inherit"
        d="M8.366 5.9701C10.026 5.9701 11.346 4.6301 11.346 2.9701C11.346 1.3301 10.026 0.0001 8.366 0.0001C6.726 0.0001 5.376 1.3301 5.376 2.9701C5.376 4.6301 6.726 5.9701 8.366 5.9701ZM28.586 25.0301L19.576 20.1701L14.376 16.5401C13.986 16.2801 13.616 15.9401 13.316 15.5601C13.856 15.2301 14.066 14.6301 13.916 14.0401L12.896 9.8801C12.526 8.4201 11.196 7.4101 9.696 7.4101H6.446C5.446 7.4101 4.746 7.6601 4.106 8.3001L0.396 12.0001C-0.054 12.4501 -0.124 13.1501 0.196 13.7001L2.796 18.2501V26.2601C2.796 27.0201 3.416 27.6601 4.186 27.6601C4.956 27.6601 5.576 27.0201 5.576 26.2601V19.3901L13.556 19.9601L18.376 22.7001L27.276 27.4801C28.096 27.9201 28.896 27.5101 29.176 26.9301C29.516 26.2501 29.256 25.3901 28.586 25.0301ZM3.146 13.2301L5.556 10.8101L7.426 15.6401L5.946 16.4901H5.006Z"
        fillRule="evenodd"
        clipRule="evenodd"
    />
</svg>
        