
<svg
    viewBox="0 0 27.890625 27.890625"
    xmlns="http://www.w3.org/2000/svg"
>
    <path
        fill="inherit"
        d="M13.9427 27.8864C21.6427 27.8864 27.8927 21.6464 27.8927 13.9464C27.8927 6.2464 21.6427 -0.0036 13.9427 -0.0036C6.2527 -0.0036 0.0027 6.2464 0.0027 13.9464C0.0027 21.6464 6.2527 27.8864 13.9427 27.8864ZM13.9427 25.5664C7.5227 25.5664 2.3227 20.3664 2.3227 13.9464C2.3227 7.5164 7.5227 2.3264 13.9427 2.3264C20.3727 2.3264 25.5627 7.5164 25.5627 13.9464C25.5627 20.3664 20.3727 25.5664 13.9427 25.5664ZM14.0727 7.8164C14.9827 7.8164 15.7127 7.0864 15.7127 6.1664C15.7127 5.2664 14.9827 4.5264 14.0727 4.5264C13.1527 4.5264 12.4327 5.2664 12.4327 6.1664C12.4327 7.0864 13.1527 7.8164 14.0727 7.8164ZM7.6027 22.1364C7.9127 22.3964 8.3927 22.3764 8.6927 22.0564L11.1127 19.2864C11.2527 19.1264 11.3327 18.9464 11.3627 18.7464L11.7027 15.4264C11.7127 15.3264 11.8227 15.2764 11.9127 15.3664L14.0727 17.8664V21.7264C14.0727 22.1464 14.4227 22.5064 14.8627 22.5064C15.2727 22.5064 15.6427 22.1464 15.6427 21.7264V17.6064C15.6427 17.3864 15.5727 17.2564 15.4727 17.1164L13.1627 13.7564L14.3027 10.4164C14.3527 10.2364 14.4827 10.1764 14.6527 10.1764H19.5827C19.7427 10.6364 20.1827 10.9664 20.7027 10.9664C21.3327 10.9664 21.8627 10.4364 21.8627 9.7764C21.8627 9.1464 21.3327 8.6164 20.7027 8.6164H11.5927C10.9627 8.6164 10.4427 8.7864 9.9427 9.2964L8.4627 10.7964C7.9527 11.3064 8.2327 12.1264 8.9127 12.1264H10.3227L10.0127 13.0264C9.8527 13.5064 9.7927 14.0164 9.7927 14.4964V18.4564L7.5327 21.0264C7.2327 21.3564 7.2627 21.8464 7.6027 22.1364Z"
        fillRule="evenodd"
        clipRule="evenodd"
    />
</svg>
        