
<svg
    viewBox={0 0 35.250599065188624 29.353515625}
    xmlns="http://www.w3.org/2000/svg"
>
    <path
        fill="inherit"
        d="M22.9837 5.9457C24.6137 5.9457 25.9537 4.6057 25.9537 2.9657C25.9537 1.3357 24.6137 -0.0043 22.9837 -0.0043C21.3437 -0.0043 20.0037 1.3357 20.0037 2.9657C20.0037 4.6057 21.3437 5.9457 22.9837 5.9457ZM0.6737 23.5457C0.3837 23.8257 0.3837 24.3257 0.6537 24.6057C0.9537 24.8957 1.4537 24.8957 1.7537 24.5957L12.5937 14.0557C12.8237 13.8057 12.9837 13.4357 13.0137 12.9157L13.2337 8.9457L16.6837 8.8057L14.0637 13.5457C13.2337 15.0557 13.6337 16.6957 15.1437 17.5857L20.2737 20.5357V27.4357C20.2737 27.5757 20.2937 27.7157 20.3337 27.8357H9.2437L14.9837 22.4757C15.3237 22.1757 15.4237 21.9657 15.5737 21.6157L16.3537 19.7957L14.4937 18.7157C14.1337 18.5157 13.8237 18.2757 13.5637 18.0357L12.8837 20.6757L7.1237 26.0457C6.4937 26.6357 6.5037 27.3257 6.8337 27.8357H0.7637C0.3437 27.8357 0.0037 28.1457 0.0037 28.5557C0.0037 28.9857 0.3237 29.3557 0.7637 29.3557H31.5937C32.9937 29.3557 33.8237 28.9957 34.7937 28.5457C35.2037 28.3657 35.3237 27.9457 35.2037 27.5857C35.0637 27.1957 34.6437 26.9357 34.1437 27.1957C33.3737 27.5857 32.7537 27.8357 31.5937 27.8357H22.9537C22.9937 27.7157 23.0137 27.5757 23.0137 27.4357V19.6357C23.0137 19.2257 22.9037 18.9257 22.4237 18.5357L18.7837 15.6357L21.5737 10.7457L26.0837 14.1757C26.7237 14.6657 27.5937 14.6057 28.1337 13.9857L30.0737 11.8157L29.0237 25.3857C28.9937 25.8257 29.3537 26.1857 29.7237 26.2257C30.1437 26.2457 30.5337 25.9357 30.5537 25.5157L31.7837 9.5957C31.9637 8.4357 30.4837 7.1957 29.4037 8.4657L26.9637 11.2957L22.9837 8.0557C21.6337 6.9557 20.1637 5.9457 17.8937 6.0557L12.0037 6.3457C11.2637 6.3757 10.6637 6.8357 10.6137 7.7157L10.2837 12.9457C10.2637 13.3257 10.3737 13.6457 10.5837 13.8857Z"
        fillRule="evenodd"
        clipRule="evenodd"
    />
</svg>
        