
<svg
    viewBox="0 0 27.890625 27.890625"
    xmlns="http://www.w3.org/2000/svg"
>
    <path
        fill="inherit"
        d="M13.9427 27.8864C21.6427 27.8864 27.8927 21.6264 27.8927 13.9464C27.8927 6.2464 21.6427 -0.0036 13.9427 -0.0036C6.2627 -0.0036 0.0027 6.2464 0.0027 13.9464C0.0027 21.6264 6.2627 27.8864 13.9427 27.8864ZM8.9827 8.7364C8.0427 8.7364 7.2727 7.9864 7.2727 7.0264C7.2727 6.0964 8.0427 5.3464 8.9827 5.3464C9.9127 5.3464 10.6827 6.0964 10.6827 7.0264C10.6827 7.9864 9.9127 8.7364 8.9827 8.7364ZM7.3027 14.2864V11.1164C7.3027 10.2564 8.0127 9.5564 8.8727 9.5564H12.8227V6.8864C12.8227 6.2164 13.3527 5.6964 14.0127 5.6964C14.6727 5.6964 15.2027 6.2164 15.2027 6.8864C15.2027 7.3964 14.8727 7.8364 14.4127 7.9964V10.3364C14.4127 10.7864 14.0427 11.1164 13.6127 11.1164H11.7327C11.6627 11.1164 11.6327 11.1864 11.6927 11.2364L13.7527 13.2764L21.0927 8.8764C21.4827 8.6564 21.9727 8.7664 22.1927 9.1464C22.4227 9.5164 22.3027 9.9964 21.9127 10.2164L18.0327 12.5364L14.1527 15.4664C13.7827 15.7364 13.3727 15.8564 12.9327 15.8564C12.4327 15.8564 11.9127 15.6364 11.5227 15.2864L11.3227 15.0764H8.0927C7.6427 15.0764 7.3027 14.7064 7.3027 14.2864ZM8.8227 13.5464H9.8427L9.0127 12.6964C8.9427 12.6364 8.8227 12.6864 8.8227 12.7964ZM12.4527 22.8064L13.1927 19.0164L12.7027 16.5264C12.7827 16.5264 12.8527 16.5264 12.9327 16.5264C13.5527 16.5264 14.1227 16.3364 14.6427 15.9264L14.7927 18.8964C14.8027 19.0064 14.8027 19.0864 14.7927 19.1864L13.9827 23.1164C13.9027 23.5664 13.4527 23.8264 13.0527 23.7464C12.6327 23.6664 12.3627 23.2464 12.4527 22.8064Z"
        fillRule="evenodd"
        clipRule="evenodd"
    />
</svg>
        