
<svg
    viewBox="0 0 27.890625 27.890625"
    xmlns="http://www.w3.org/2000/svg"
>
    <path
        fill="inherit"
        d="M13.9427 27.8864C21.6427 27.8864 27.8927 21.6464 27.8927 13.9464C27.8927 6.2464 21.6427 -0.0036 13.9427 -0.0036C6.2527 -0.0036 0.0027 6.2464 0.0027 13.9464C0.0027 21.6464 6.2527 27.8864 13.9427 27.8864ZM13.9427 25.5664C7.5227 25.5664 2.3227 20.3664 2.3227 13.9464C2.3227 7.5164 7.5227 2.3264 13.9427 2.3264C20.3727 2.3264 25.5627 7.5164 25.5627 13.9464C25.5627 20.3664 20.3727 25.5664 13.9427 25.5664ZM13.9327 8.0164C14.8327 8.0164 15.5727 7.2764 15.5727 6.3464C15.5727 5.4364 14.8327 4.7164 13.9327 4.7164C13.0127 4.7164 12.2727 5.4364 12.2727 6.3464C12.2727 7.2764 13.0127 8.0164 13.9327 8.0164ZM6.4527 17.3364H6.9227C7.2027 17.3364 7.4127 17.1264 7.4127 16.8264V15.2564H8.6027L8.5327 15.4264C8.3427 15.8064 8.5027 16.2564 8.8627 16.4364C9.2427 16.6364 9.6927 16.4564 9.8727 16.0964L10.2827 15.2564H17.5727L17.9827 16.0964C18.1527 16.4564 18.6227 16.6364 18.9927 16.4364C19.3627 16.2564 19.5227 15.8064 19.3227 15.4264L19.2527 15.2564H20.4427V16.8264C20.4427 17.1264 20.6427 17.3364 20.9327 17.3364H21.3927C21.6827 17.3364 21.8927 17.1264 21.8927 16.8264V15.2564H22.5127C22.7727 15.2564 22.9827 15.0564 22.9827 14.7964C22.9827 14.5164 22.7727 14.3264 22.5127 14.3264H21.8927V12.7564C21.8927 12.4564 21.6827 12.2664 21.3927 12.2664H20.9327C20.6427 12.2664 20.4427 12.4564 20.4427 12.7564V14.3264H18.7827L16.5727 9.8064C16.2327 9.1364 15.6127 8.7464 14.8327 8.7464H13.0327C12.2627 8.7464 11.6327 9.1364 11.3027 9.8064L9.0627 14.3264H7.4127V12.7564C7.4127 12.4564 7.2027 12.2664 6.9227 12.2664H6.4527C6.1627 12.2664 5.9627 12.4564 5.9627 12.7564V14.3264H5.3327C5.0727 14.3264 4.8627 14.5164 4.8627 14.7964C4.8627 15.0564 5.0727 15.2564 5.3327 15.2564H5.9627V16.8264C5.9627 17.1264 6.1627 17.3364 6.4527 17.3364ZM12.2727 13.6764H15.5827V11.8364C15.5827 11.7164 15.7727 11.6464 15.8727 11.8264L17.1027 14.3264H10.7427L11.9927 11.8264C12.0827 11.6464 12.2727 11.7064 12.2727 11.8364ZM10.8727 22.9564C11.2227 23.0364 11.6327 22.8464 11.7627 22.3264L12.4727 19.0864L13.9327 16.3964L15.3927 19.0864L16.0927 22.3264C16.2127 22.8564 16.6527 23.0364 17.0327 22.9364C17.3927 22.8464 17.6627 22.5164 17.5727 21.9964L16.8427 18.6464C16.8327 18.5964 16.8327 18.5364 16.8027 18.4664L15.9027 15.9164H11.9627L11.0427 18.4664C11.0227 18.5364 11.0227 18.5964 11.0027 18.6464L10.2927 21.9964C10.1727 22.5264 10.5027 22.8864 10.8727 22.9564Z"
        fillRule="evenodd"
        clipRule="evenodd"
    />
</svg>
        