
<svg
    viewBox={0 0 26.21079739825147 27.498417050184447}
    xmlns="http://www.w3.org/2000/svg"
>
    <path
        fill="inherit"
        d="M22.5318 7.4244C24.5818 7.4244 26.2118 5.7144 26.2118 3.7344C26.2118 1.6644 24.5818 0.0044 22.5318 0.0044C20.4718 0.0044 18.8118 1.6644 18.8118 3.7344C18.8118 5.7744 20.4718 7.4244 22.5318 7.4244ZM2.4518 13.2044C2.9418 13.2044 3.2818 12.9644 3.5018 12.3344L4.5018 9.4244H9.3818L10.3918 12.3344C10.6018 12.9644 10.9418 13.2044 11.4418 13.2044C12.0418 13.2044 12.4418 12.8144 12.4418 12.2644C12.4418 12.0444 12.4018 11.8544 12.3018 11.5544L8.4618 1.2344C8.2018 0.5244 7.6718 0.1544 6.9318 0.1544C6.1918 0.1544 5.6718 0.5244 5.4118 1.2344L1.5918 11.5544C1.4818 11.8544 1.4418 12.0444 1.4418 12.2544C1.4418 12.8244 1.8318 13.2044 2.4518 13.2044ZM5.0418 7.7744L6.8618 2.4844H7.0118L8.8318 7.7744ZM0.5118 26.9844C1.2018 27.7244 2.4218 27.6744 3.2918 26.7744L9.1718 20.6944C9.3718 20.4944 9.5218 20.4444 9.8218 20.5644L14.4118 22.2944C17.3618 23.4344 20.1418 22.4644 21.4418 20.1144L24.3918 14.7344C25.5418 12.6444 25.1718 10.4844 23.1718 9.4244C21.2518 8.3644 19.2518 9.1644 18.0718 11.3044L14.2518 18.2944L10.9818 17.1044C9.3718 16.5144 8.0318 16.7044 6.7418 18.0444L0.6318 24.3644C-0.2282 25.2344 -0.1482 26.3344 0.5118 26.9844Z"
        fillRule="evenodd"
        clipRule="evenodd"
    />
</svg>
        