
<svg
    viewBox={0 0 27.890625 27.890625}
    xmlns="http://www.w3.org/2000/svg"
>
    <path
        fill="inherit"
        d="M13.9427 27.8864C21.6427 27.8864 27.8927 21.6464 27.8927 13.9464C27.8927 6.2464 21.6427 -0.0036 13.9427 -0.0036C6.2527 -0.0036 0.0027 6.2464 0.0027 13.9464C0.0027 21.6464 6.2527 27.8864 13.9427 27.8864ZM13.9427 25.5664C7.5227 25.5664 2.3227 20.3664 2.3227 13.9464C2.3227 7.5164 7.5227 2.3264 13.9427 2.3264C20.3727 2.3264 25.5627 7.5164 25.5627 13.9464C25.5627 20.3664 20.3727 25.5664 13.9427 25.5664ZM13.2227 17.3364L16.0227 19.3764L14.3827 22.6364C14.1927 23.0064 14.3527 23.4764 14.7427 23.6764C15.0827 23.8464 15.5427 23.7464 15.7627 23.3364L17.6627 19.5264C17.8327 19.1864 17.7827 18.8164 17.5027 18.5764L16.0627 17.2264H18.5127C18.9527 17.2264 19.2927 16.8864 19.2927 16.4564V13.3964C19.2927 12.1264 18.2827 11.0864 16.9827 11.0864H14.3927V10.2664L14.6427 9.3764C14.7427 9.0664 14.6327 8.7464 14.3927 8.5564V7.2964C14.7927 6.7364 15.2027 5.9764 15.2027 5.4264C15.2027 4.6764 14.6827 4.1464 13.9327 4.1464C13.1627 4.1464 12.6427 4.6764 12.6427 5.4264C12.6427 6.0464 13.0427 6.8364 13.4627 7.3464V8.5564C13.3427 8.6564 13.2527 8.7864 13.1927 8.9364L12.4327 11.6364C12.2927 12.1364 12.5927 12.6064 13.1227 12.6064H13.4627V13.9164C12.1527 14.5764 11.9727 16.4364 13.2227 17.3364ZM19.6227 11.0564C20.3127 11.2664 21.0727 10.8464 21.2627 10.1264C21.4627 9.4164 21.0227 8.6864 20.3427 8.4764C19.6227 8.2864 18.8827 8.6964 18.6927 9.4064C18.4827 10.1264 18.8927 10.8664 19.6227 11.0564ZM15.8827 12.6064C15.9127 12.6064 15.9427 12.6564 15.9027 12.6764L14.3927 13.4364V12.6064ZM16.1327 15.7364L17.6527 14.9964C17.7227 14.9664 17.8027 15.0164 17.8027 15.0964V15.7364ZM12.1127 17.1264L11.4527 19.1264H7.6027C7.1627 19.1264 6.8227 19.4864 6.8227 19.9164C6.8227 20.3464 7.1627 20.6864 7.6027 20.6864H11.9927C12.2927 20.6864 12.5627 20.5264 12.7027 20.2464L13.6127 18.4264L12.8227 17.8664C12.4827 17.6264 12.2527 17.3764 12.1127 17.1264Z"
        fillRule="evenodd"
        clipRule="evenodd"
    />
</svg>
        