<svg viewBox="0 0 33.752462006281505 30.327668195549638" xmlns="http://www.w3.org/2000/svg"><path d="M25.6965 5.6489C27.2465 5.6489 28.5265 4.3789 28.5265 2.8189C28.5265 1.2689 27.2465 -0.0011 25.6965 -0.0011C24.1365 -0.0011 22.8765 1.2689 22.8765 2.8189C22.8765 4.3789 24.1365 5.6489 25.6965 5.6489ZM9.1865 6.2389C10.7465 6.2389 12.0165 4.9589 12.0165 3.4089C12.0165 1.8489 10.7465 0.5889 9.1865 0.5889C7.6365 0.5889 6.3765 1.8489 6.3765 3.4089C6.3765 4.9589 7.6365 6.2389 9.1865 6.2389ZM1.3165 9.7089L4.1965 9.9389C4.3965 9.9489 4.5265 10.0889 4.5265 10.3089V15.5489C4.5265 16.5989 4.8665 17.6189 5.5165 18.4289L8.8865 22.7789L7.1665 28.5089C6.9365 29.2589 7.3765 30.0689 8.0965 30.2689C8.8165 30.4789 9.6165 30.1289 9.8565 29.3089L11.7865 22.8689C11.8265 22.7489 11.8465 22.6589 11.8465 22.5289L17.0665 29.1389C17.5465 29.7389 18.4465 29.8589 19.0165 29.3789C19.6365 28.8589 19.7465 28.0089 19.2665 27.3989L9.9465 15.5989L10.3665 11.4189C10.4065 11.1189 10.6765 10.9689 10.9365 11.0889L14.1765 12.7189C14.3965 12.8389 14.7965 12.9189 15.1065 12.9189H20.0965C20.4265 12.9189 20.7665 12.7989 21.0065 12.5889L23.3665 10.5689C23.5965 10.3589 23.8865 10.4589 23.9965 10.7289L25.3265 14.4189L19.7265 15.9589C19.1665 16.1089 18.7365 16.5989 18.6765 17.1889L18.0465 23.6289C17.9665 24.5389 18.7765 25.1589 19.4565 25.1589C20.1665 25.1589 20.7865 24.6389 20.8565 23.8989L21.3865 18.5389L25.3065 17.9389L23.4365 21.7089C23.2265 22.1189 23.1265 22.5689 23.2865 22.9989L25.8665 29.4389C26.1865 30.2189 27.0365 30.4889 27.7065 30.2189C28.4165 29.9289 28.7665 29.1089 28.4765 28.3789L26.1865 22.6589L29.3565 18.1389C30.1665 17.0189 30.4465 15.5689 30.2065 14.2189L29.7165 11.5089C29.6465 11.1389 29.9265 10.9089 30.2765 11.0189L31.8965 11.5689C33.0065 11.9489 33.8365 11.2689 33.7465 10.1589L33.0865 3.6489C33.0165 2.8389 32.2965 2.2989 31.5565 2.3789C30.8065 2.4589 30.2165 3.1489 30.2865 3.9389L30.7265 8.2289L26.8365 6.9289C25.2565 6.3989 23.5765 6.6889 22.2565 7.8189L19.5965 10.1189H15.2765L11.1065 8.0389C10.4765 7.7089 9.8565 7.5489 9.1665 7.4889L3.3265 7.0589L4.6765 2.9689C4.9365 2.2189 4.5265 1.4189 3.8065 1.1789C3.0665 0.9289 2.2565 1.3289 2.0265 2.0689L0.0665 7.8489C-0.2135 8.7189 0.3965 9.6389 1.3165 9.7089Z" /></svg>