<svg viewBox="0 0 27.890625 27.890625" xmlns="http://www.w3.org/2000/svg"><path d="M13.9427 27.8864C21.6427 27.8864 27.8927 21.6264 27.8927 13.9464C27.8927 6.2464 21.6427 -0.0036 13.9427 -0.0036C6.2627 -0.0036 0.0027 6.2464 0.0027 13.9464C0.0027 21.6264 6.2627 27.8864 13.9427 27.8864ZM17.6127 9.2264C16.6627 9.2264 15.9127 8.4764 15.9127 7.5364C15.9127 6.5664 16.6627 5.8364 17.6127 5.8364C18.5827 5.8364 19.3027 6.5664 19.3027 7.5364C19.3027 8.4764 18.5827 9.2264 17.6127 9.2264ZM12.3327 23.1064C11.8827 23.1064 11.5227 22.7464 11.5227 22.3164V17.9464L10.9327 14.4264L7.3727 13.8364C6.9627 13.7664 6.6827 13.5264 6.6827 12.9864V8.2164C6.6827 7.7364 7.0127 7.4064 7.4927 7.4064C7.9827 7.4064 8.3127 7.7364 8.3127 8.2164V12.2464H12.3327C13.1827 12.2464 13.8527 11.8264 14.2827 11.1164C14.4127 10.9064 14.3327 10.6864 14.1327 10.6064L9.8827 9.1864C9.3827 9.0264 9.2427 8.5464 9.3627 8.1664C9.4727 7.7764 9.8427 7.4764 10.4027 7.6564L22.2027 11.6064C22.7127 11.7564 22.8427 12.2464 22.7327 12.6364C22.6127 13.0064 22.2327 13.3064 21.6827 13.1264L17.7427 11.7964C17.4327 11.7064 17.2627 11.7864 17.1827 11.9364C16.4427 13.5464 14.9027 14.7264 13.1427 14.9964V22.3164C13.1427 22.7464 12.7727 23.1064 12.3327 23.1064Z" /></svg>