
<svg
    viewBox="0 0 27.890625 27.890625"
    xmlns="http://www.w3.org/2000/svg"
>
    <path
        fill="inherit"
        d="M13.9427 27.8864C21.6427 27.8864 27.8927 21.6264 27.8927 13.9464C27.8927 6.2464 21.6427 -0.0036 13.9427 -0.0036C6.2627 -0.0036 0.0027 6.2464 0.0027 13.9464C0.0027 21.6264 6.2627 27.8864 13.9427 27.8864ZM13.9027 8.0264C12.9727 8.0264 12.2127 7.2764 12.2127 6.3464C12.2127 5.3964 12.9727 4.6364 13.9027 4.6364C14.8327 4.6364 15.6027 5.3964 15.6027 6.3464C15.6027 7.2764 14.8327 8.0264 13.9027 8.0264ZM9.4027 12.0164L11.1527 9.5964C11.4827 9.1364 12.0327 8.8364 12.5627 8.8364H19.9727C20.4127 8.8364 20.7527 9.1964 20.7527 9.6264C20.7527 10.0664 20.3827 10.3864 19.9727 10.3864H14.1527C13.9627 10.3864 13.8627 10.4364 13.7127 10.6264L12.2227 12.5964H15.0427C15.6827 12.5964 16.0227 13.1264 15.8427 13.6764L14.3727 18.1264C14.0227 19.1564 12.4927 18.6864 12.8827 17.6064L13.9727 14.3164L11.1127 14.7564C9.2927 15.0264 8.4927 13.2864 9.4027 12.0164ZM10.0927 22.3164V19.9564C10.0927 19.6064 10.3327 19.3764 10.7027 19.3764H16.5527C16.9027 19.3764 17.1627 19.6064 17.1627 19.9564V22.3164C17.1627 22.6664 16.9027 22.8964 16.5527 22.8964H10.7027C10.3327 22.8964 10.0927 22.6664 10.0927 22.3164Z"
        fillRule="evenodd"
        clipRule="evenodd"
    />
</svg>
        