<svg viewBox="0 0 27.890625 27.890625" xmlns="http://www.w3.org/2000/svg"><path d="M13.9427 27.8864C21.6427 27.8864 27.8927 21.6464 27.8927 13.9464C27.8927 6.2464 21.6427 -0.0036 13.9427 -0.0036C6.2527 -0.0036 0.0027 6.2464 0.0027 13.9464C0.0027 21.6464 6.2527 27.8864 13.9427 27.8864ZM13.9427 25.5664C7.5227 25.5664 2.3227 20.3664 2.3227 13.9464C2.3227 7.5164 7.5227 2.3264 13.9427 2.3264C20.3727 2.3264 25.5627 7.5164 25.5627 13.9464C25.5627 20.3664 20.3727 25.5664 13.9427 25.5664ZM19.1227 10.5364C20.0327 10.5364 20.7627 9.8064 20.7627 8.8864C20.7627 7.9664 20.0327 7.2464 19.1227 7.2464C18.1927 7.2464 17.4727 7.9664 17.4727 8.8864C17.4727 9.8064 18.1927 10.5364 19.1227 10.5364ZM5.8527 18.2764L10.2927 17.1764V18.2064C10.2927 18.6364 10.6527 18.9664 11.0627 18.9664C11.4827 18.9664 11.8427 18.6364 11.8427 18.2064V16.8864L15.0627 16.4064C15.6527 16.3064 16.2327 16.0664 16.7327 15.6864L19.5127 13.5864C19.6227 13.5264 19.7727 13.5364 19.8227 13.6564L20.6427 15.3264V18.2064C20.6427 18.6664 20.9727 18.9664 21.4227 18.9664C21.8727 18.9664 22.1727 18.6664 22.1727 18.2064V15.1464C22.1727 15.0264 22.1627 14.9064 22.1027 14.7964L20.7827 12.1564C20.5227 11.6164 20.0027 11.3064 19.4127 11.3064H18.7427C18.0727 11.3064 17.4327 11.5164 16.9027 11.9264L14.7127 13.5664L11.5027 12.9064C10.8327 12.7664 10.2927 13.0664 10.2927 13.7764V15.5864L5.4927 16.8064C5.0027 16.9264 4.8027 17.3064 4.8627 17.6764C4.9227 18.0564 5.2927 18.4264 5.8527 18.2764ZM11.8427 15.2164V14.6464L12.8827 14.9564ZM15.4727 18.9664H18.5427C19.1727 18.9664 19.6827 18.4564 19.6827 17.8164C19.6827 17.1864 19.1727 16.6664 18.5427 16.6664H15.4727C14.8327 16.6664 14.3327 17.1864 14.3327 17.8164C14.3327 18.4564 14.8327 18.9664 15.4727 18.9664ZM18.5227 18.3164C18.2527 18.3164 18.0327 18.0864 18.0327 17.8164C18.0327 17.5364 18.2527 17.3064 18.5227 17.3064C18.8127 17.3064 19.0327 17.5364 19.0327 17.8164C19.0327 18.0864 18.8127 18.3164 18.5227 18.3164Z" /></svg>