
<svg
    viewBox={0 0 27.890625 27.890625}
    xmlns="http://www.w3.org/2000/svg"
>
    <path
        fill="inherit"
        d="M13.9427 27.8864C21.6427 27.8864 27.8927 21.6264 27.8927 13.9464C27.8927 6.2464 21.6427 -0.0036 13.9427 -0.0036C6.2627 -0.0036 0.0027 6.2464 0.0027 13.9464C0.0027 21.6264 6.2627 27.8864 13.9427 27.8864ZM14.0727 7.6464C13.1227 7.6464 12.3627 6.8764 12.3627 5.9364C12.3627 5.0064 13.1227 4.2364 14.0727 4.2364C15.0027 4.2364 15.7527 5.0064 15.7527 5.9364C15.7527 6.8764 15.0027 7.6464 14.0727 7.6464ZM7.3127 21.2564L9.6427 18.6064V14.5164C9.6427 14.0264 9.7227 13.5064 9.8727 13.0164L10.2027 12.0864H8.7527C8.0427 12.0864 7.7527 11.2364 8.2727 10.7164L9.8027 9.1564C10.3227 8.6364 10.8727 8.4664 11.5127 8.4664H20.9027C21.5427 8.4664 22.1027 9.0064 22.1027 9.6564C22.1027 10.3364 21.5427 10.8864 20.9027 10.8864C20.3727 10.8864 19.9227 10.5364 19.7427 10.0664H14.6527C14.4927 10.0664 14.3527 10.1264 14.3027 10.3264L13.1427 13.7664L15.5027 17.2264C15.6127 17.3764 15.6827 17.5164 15.6827 17.7364V21.9864C15.6827 22.4264 15.3027 22.7864 14.8927 22.7864C14.4327 22.7864 14.0727 22.4264 14.0727 21.9864V18.0064L11.8427 15.4264C11.7627 15.3264 11.6327 15.3764 11.6227 15.4764L11.2527 18.9064C11.2427 19.1164 11.1527 19.3064 11.0027 19.4664L8.5327 22.3164C8.2127 22.6564 7.7127 22.6664 7.3827 22.4064C7.0427 22.0964 7.0127 21.6064 7.3127 21.2564Z"
        fillRule="evenodd"
        clipRule="evenodd"
    />
</svg>
        