
<svg
    viewBox={0 0 37.0238552385271 33.59035100026361}
    xmlns="http://www.w3.org/2000/svg"
>
    <path
        fill="inherit"
        d="M11.3641 7.4212C13.4241 7.4212 15.0541 5.7312 15.0541 3.7312C15.0541 1.6812 13.4241 0.0012 11.3641 0.0012C9.2941 0.0012 7.6741 1.6812 7.6741 3.7312C7.6741 5.7712 9.2941 7.4212 11.3641 7.4212ZM23.8441 14.8212C23.4741 15.1712 23.4741 15.7512 23.8441 16.0912C24.1841 16.4312 24.7441 16.4312 25.0841 16.0912L25.8941 15.3012C27.0741 16.2012 28.5341 16.7512 30.1441 16.7512C31.7341 16.7512 33.1841 16.2112 34.3441 15.3112L35.1241 16.0912C35.4641 16.4312 36.0441 16.4312 36.3841 16.0912C36.7341 15.7512 36.7341 15.1712 36.3841 14.8212L35.6041 14.0412C36.4941 12.8612 37.0241 11.4112 37.0241 9.8612C37.0241 8.2412 36.5041 6.7512 35.6041 5.5812L36.3841 4.8112C36.7341 4.4412 36.7341 3.8812 36.3841 3.5412C36.0441 3.2012 35.4641 3.2012 35.1241 3.5412L34.3541 4.3112C33.1941 3.4012 31.7441 2.8712 30.1441 2.8712C28.5341 2.8712 27.0541 3.4012 25.8841 4.3212L25.0841 3.5412C24.7441 3.2012 24.1841 3.2012 23.8441 3.5412C23.4741 3.8812 23.4741 4.4412 23.8441 4.8112L24.6241 5.5912C23.7241 6.7712 23.1741 8.2412 23.1741 9.8612C23.1741 11.4012 23.7241 12.8612 24.6241 14.0312ZM30.1441 4.6612C31.2441 4.6612 32.2541 5.0012 33.0741 5.5912L30.1041 8.5612L27.1541 5.6012C28.0041 5.0012 29.0241 4.6612 30.1441 4.6612ZM16.9941 10.5912L20.1641 7.0812C20.7141 6.4512 20.6741 5.7812 20.1441 5.3312C19.6441 4.8912 19.0041 4.8912 18.4141 5.5412L14.8441 9.5012C15.6441 9.7912 16.3541 10.1812 16.9941 10.5912ZM35.2341 9.8612C35.2341 10.9412 34.8941 11.9312 34.3141 12.7712L31.3741 9.8212L34.3141 6.8612C34.8941 7.7112 35.2341 8.7412 35.2341 9.8612ZM24.9641 9.8612C24.9641 8.7512 25.3041 7.7112 25.8941 6.8612L28.8441 9.8212L25.9041 12.7512C25.3241 11.9212 24.9641 10.9212 24.9641 9.8612ZM4.2341 21.2612L14.8441 9.5012C13.8041 9.1212 12.6641 8.9412 11.3641 8.9412C6.5941 8.9412 3.7641 11.2512 3.7641 15.1112C3.7641 16.0212 3.8141 17.2712 3.9341 18.5512ZM18.4941 21.2712L18.7841 18.5512C18.9241 17.2712 18.9741 16.0212 18.9741 15.1112C18.9741 13.2112 18.3041 11.6612 16.9941 10.6112L8.6041 19.9912C9.5141 19.8212 10.4441 19.7812 11.3641 19.7812C13.7241 19.7812 16.0941 20.0812 18.4941 21.2712ZM30.1441 14.9612C29.0541 14.9612 28.0141 14.6012 27.1841 14.0112L30.1041 11.0712L33.0541 14.0312C32.2341 14.6112 31.2241 14.9612 30.1441 14.9612ZM0.3141 25.6512C0.8041 26.1512 1.4741 26.1412 2.0541 25.5512C2.8141 24.8312 3.5841 24.2112 4.5241 23.7312L4.2341 21.2612C2.8341 21.9112 1.6041 22.8612 0.4341 23.9512C-0.1059 24.4712 -0.1359 25.1612 0.3141 25.6512ZM22.4241 25.6512C22.8741 25.1712 22.8441 24.4912 22.3141 23.9712C21.1341 22.8612 19.9041 21.9312 18.4941 21.2712L18.2141 23.7312C19.1541 24.2112 19.9241 24.8312 20.6841 25.5512C21.2641 26.1412 21.9341 26.1512 22.4241 25.6512ZM7.2741 33.5812C8.2541 33.4412 8.9041 32.7412 8.7741 31.5312L8.1041 25.3612H14.6341L13.9641 31.5312C13.8341 32.7412 14.4741 33.4412 15.4541 33.5812C16.4641 33.6912 17.2441 33.0612 17.3641 31.8712L18.2141 23.7312C16.0541 22.4912 13.6541 22.0112 11.3641 22.0112C9.0741 22.0112 6.6841 22.4912 4.5241 23.7312L5.3741 31.8712C5.4941 33.0612 6.2741 33.6912 7.2741 33.5812Z"
        fillRule="evenodd"
        clipRule="evenodd"
    />
</svg>
        