
<svg
    viewBox={0 0 27.890625 27.890625}
    xmlns="http://www.w3.org/2000/svg"
>
    <path
        fill="inherit"
        d="M13.9427 27.8864C21.6427 27.8864 27.8927 21.6464 27.8927 13.9464C27.8927 6.2464 21.6427 -0.0036 13.9427 -0.0036C6.2527 -0.0036 0.0027 6.2464 0.0027 13.9464C0.0027 21.6464 6.2527 27.8864 13.9427 27.8864ZM13.9427 25.5664C7.5227 25.5664 2.3227 20.3664 2.3227 13.9464C2.3227 7.5164 7.5227 2.3264 13.9427 2.3264C20.3727 2.3264 25.5627 7.5164 25.5627 13.9464C25.5627 20.3664 20.3727 25.5664 13.9427 25.5664ZM17.5227 9.3964C18.4527 9.3964 19.1727 8.6564 19.1727 7.7364C19.1727 6.8064 18.4527 6.0964 17.5227 6.0964C16.6127 6.0964 15.8727 6.8064 15.8727 7.7364C15.8727 8.6564 16.6127 9.3964 17.5227 9.3964ZM12.4027 22.8464C12.8227 22.8464 13.1927 22.5064 13.1927 22.0764V14.9864C14.9027 14.7064 16.3927 13.5764 17.1127 12.0164C17.1827 11.8664 17.3527 11.7864 17.6527 11.8764L21.4827 13.1664C22.0027 13.3464 22.3627 13.0464 22.4927 12.6864C22.6027 12.3164 22.4627 11.8364 21.9727 11.6864L10.5427 7.8564C9.9927 7.6964 9.6427 7.9864 9.5327 8.3564C9.4027 8.7264 9.5427 9.1864 10.0327 9.3564L14.1527 10.7364C14.3427 10.7964 14.4227 11.0164 14.3027 11.2064C13.8727 11.9064 13.2227 12.3164 12.4027 12.3164H8.5027V8.4064C8.5027 7.9464 8.1927 7.6264 7.7127 7.6264C7.2427 7.6264 6.9327 7.9464 6.9327 8.4064V13.0264C6.9327 13.5464 7.1927 13.7964 7.5927 13.8464L11.0427 14.4264L11.6227 17.8464V22.0764C11.6227 22.5064 11.9627 22.8464 12.4027 22.8464Z"
        fillRule="evenodd"
        clipRule="evenodd"
    />
</svg>
        