
<svg
    viewBox="0 0 27.890625 27.890625"
    xmlns="http://www.w3.org/2000/svg"
>
    <path
        fill="inherit"
        d="M13.9427 27.8864C21.6427 27.8864 27.8927 21.6464 27.8927 13.9464C27.8927 6.2464 21.6427 -0.0036 13.9427 -0.0036C6.2527 -0.0036 0.0027 6.2464 0.0027 13.9464C0.0027 21.6464 6.2527 27.8864 13.9427 27.8864ZM13.9427 25.5664C7.5227 25.5664 2.3227 20.3664 2.3227 13.9464C2.3227 7.5164 7.5227 2.3264 13.9427 2.3264C20.3727 2.3264 25.5627 7.5164 25.5627 13.9464C25.5627 20.3664 20.3727 25.5664 13.9427 25.5664ZM16.8527 7.9664C17.7827 7.9664 18.5127 7.2164 18.5127 6.3164C18.5127 5.3964 17.7827 4.6664 16.8527 4.6664C15.9527 4.6664 15.2127 5.3964 15.2127 6.3164C15.2127 7.2164 15.9527 7.9664 16.8527 7.9664ZM10.8027 21.6464H16.0827C16.9227 21.6464 17.6227 21.4764 18.1827 20.9964C18.4127 20.7764 18.4127 20.5264 18.2627 20.3264C18.1327 20.1364 17.8327 20.0664 17.5727 20.2764C17.1727 20.5764 16.7727 20.7164 16.0827 20.7164H16.0127V16.5464C16.0127 16.3064 15.9427 16.1064 15.7927 15.8964L13.8927 13.5064L15.5127 11.0364C15.6127 10.8564 15.8427 10.8564 15.9327 11.0464L16.4727 12.1264C16.5927 12.3764 16.8527 12.5464 17.1627 12.5464H20.2627C20.7027 12.5464 21.0427 12.2064 21.0427 11.7864C21.0427 11.3464 20.7027 10.9964 20.2627 10.9964H17.6527L16.8327 9.3564C16.5027 8.7064 15.8327 8.2864 15.0927 8.2864H10.9527C10.7027 8.2864 10.4427 8.4064 10.3127 8.6364L8.7627 10.9664C8.5427 11.3064 8.6127 11.7964 8.9827 12.0264C9.3227 12.2664 9.8327 12.1664 10.0627 11.8164L11.3627 9.8264H12.6327C12.7427 9.8264 12.7927 9.9264 12.7427 10.0264L11.4327 11.9864C11.0327 12.5764 11.1027 13.4164 11.6327 13.9464L14.4527 16.7664V20.7164H10.8027C10.1027 20.7164 9.7027 20.5764 9.3127 20.2764C9.0627 20.0964 8.7927 20.1364 8.6427 20.3164C8.4927 20.4964 8.4527 20.7764 8.6927 20.9964C9.2527 21.4764 9.9527 21.6464 10.8027 21.6464ZM6.9627 15.0764L10.0127 17.7464C10.4727 18.1664 11.0227 17.9364 11.2627 17.5664L12.4527 15.6964L11.1727 14.3964C11.1427 14.3864 11.1427 14.3864 11.1127 14.3464L10.3227 15.9664L7.9827 13.9064C7.6527 13.6264 7.1627 13.6464 6.8927 13.9764C6.6027 14.2964 6.6327 14.7964 6.9627 15.0764ZM10.8027 23.3364C11.1527 23.3364 11.4527 23.0364 11.4527 22.6864C11.4527 22.3264 11.1527 22.0264 10.8027 22.0264C10.4427 22.0264 10.1427 22.3264 10.1427 22.6864C10.1427 23.0364 10.4427 23.3364 10.8027 23.3364ZM16.0827 23.3364C16.4327 23.3364 16.7227 23.0364 16.7227 22.6864C16.7227 22.3264 16.4327 22.0264 16.0827 22.0264C15.7227 22.0264 15.4227 22.3264 15.4227 22.6864C15.4227 23.0364 15.7227 23.3364 16.0827 23.3364Z"
        fillRule="evenodd"
        clipRule="evenodd"
    />
</svg>
        