<svg viewBox="0 0 27.890625 27.890625" xmlns="http://www.w3.org/2000/svg"><path d="M13.9427 27.8864C21.6427 27.8864 27.8927 21.6264 27.8927 13.9464C27.8927 6.2464 21.6427 -0.0036 13.9427 -0.0036C6.2627 -0.0036 0.0027 6.2464 0.0027 13.9464C0.0027 21.6264 6.2627 27.8864 13.9427 27.8864ZM9.9927 6.9164C9.4627 6.9164 9.0527 6.4964 9.0527 5.9764C9.0527 5.4364 9.4627 5.0264 9.9927 5.0264C10.5027 5.0264 10.9327 5.4364 10.9327 5.9764C10.9327 6.4964 10.5027 6.9164 9.9927 6.9164ZM8.3627 21.5364C7.9727 21.4264 7.7227 21.0264 7.8227 20.6164C7.9127 20.2064 8.3427 19.9464 8.7327 20.0564L11.9727 20.8764L9.5927 13.6964C9.4727 13.3264 9.4227 13.1964 9.0527 12.8264L7.2827 11.0764C7.0727 10.8464 7.0227 10.6664 7.0227 10.3464V6.6564C7.0227 6.2164 7.3527 5.8964 7.7927 5.8964C8.2127 5.8964 8.5627 6.2164 8.5627 6.6564V10.1564L10.1327 11.7264C10.4627 12.0464 10.8527 12.1564 11.5827 12.2864L19.7927 13.9364C20.1927 14.0164 20.4527 14.4264 20.3827 14.8364C20.3027 15.2864 19.8827 15.5064 19.4827 15.4364L13.5327 14.2464C13.3527 14.1864 13.2227 14.3664 13.2727 14.5464L14.0927 17.0364L17.3527 17.3464C17.6927 17.4064 17.7727 17.4464 17.9827 17.6664L20.9427 20.6464C21.2427 20.9464 21.2627 21.4264 20.9427 21.7264C20.6427 22.0264 20.1627 22.0264 19.8627 21.7264L17.0627 18.8764H13.4627L13.8727 21.7764C13.9727 22.3664 13.5327 22.8464 12.9027 22.6864ZM12.3827 11.6164C11.4727 11.6164 10.7227 10.8864 10.7227 9.9664C10.7227 9.0664 11.4727 8.3264 12.3827 8.3264C13.2927 8.3264 14.0427 9.0664 14.0427 9.9664C14.0427 10.8864 13.2927 11.6164 12.3827 11.6164Z" /></svg>