<svg viewBox="0 0 23.607214088083264 29.63950934044175" xmlns="http://www.w3.org/2000/svg"><path d="M13.0296 5.9698C14.6496 5.9698 15.9896 4.6298 15.9896 2.9698C15.9896 1.3398 14.6496 -0.0002 13.0296 -0.0002C11.3596 -0.0002 10.0196 1.3398 10.0196 2.9698C10.0196 4.6298 11.3596 5.9698 13.0296 5.9698ZM9.1596 27.5798C9.6896 27.4298 10.0196 27.2598 10.2396 26.8498L13.2396 21.4398C13.2996 21.3398 13.3396 21.2998 13.4596 21.2998H20.8196V28.2298C20.8196 29.0298 21.4496 29.6298 22.1996 29.6298C22.9896 29.6298 23.6096 29.0298 23.6096 28.2298V20.0698C23.6096 19.1498 23.1196 18.6098 22.1596 18.5298L15.9696 17.9698V10.1898C15.9696 8.6698 14.8996 7.4098 13.0296 7.4098H12.3696C11.2596 7.4098 10.4096 7.5998 9.3196 8.4198L4.7296 11.8698C3.9296 12.4398 3.9896 13.5998 4.7996 14.1398L10.4096 17.8698V18.2198L7.9696 25.0098L1.0196 26.9198C0.2796 27.1298 -0.1504 27.8798 0.0496 28.6198C0.2696 29.3898 0.9696 29.7898 1.7596 29.5898ZM7.9696 12.9098L10.0496 11.3498C10.2096 11.2398 10.4096 11.3198 10.4096 11.5298V14.5298Z" /></svg>