<svg viewBox="0 0 27.890625 27.890625" xmlns="http://www.w3.org/2000/svg"><path d="M13.9427 27.8864C21.6427 27.8864 27.8927 21.6264 27.8927 13.9464C27.8927 6.2464 21.6427 -0.0036 13.9427 -0.0036C6.2627 -0.0036 0.0027 6.2464 0.0027 13.9464C0.0027 21.6264 6.2627 27.8864 13.9427 27.8864ZM16.1727 24.3864C15.9327 24.3864 15.6927 24.1864 15.6927 23.9164V20.2764C15.3927 20.4764 15.0027 20.6164 14.5927 20.6164C13.4227 20.6164 12.5227 19.8064 12.5227 18.5264V17.0764L9.6927 16.5964L7.0827 19.1964C6.7627 19.5064 6.2727 19.5064 5.9727 19.1964C5.6427 18.8664 5.6427 18.3864 5.9727 18.0564L8.8427 15.1764C8.9927 15.0164 9.2427 14.9464 9.4727 14.9464H12.1827C12.3327 14.9464 12.3827 14.8064 12.2927 14.7264L9.8827 12.5664H6.0327C5.5827 12.5664 5.2227 12.1864 5.2227 11.7464C5.2227 11.3164 5.5827 10.9664 6.0327 10.9664H10.1827C10.4027 10.9664 10.5227 10.9964 10.6627 11.0864L12.5227 12.3864V3.8264C12.5227 3.5664 12.7427 3.3464 13.0027 3.3464C13.2527 3.3464 13.4827 3.5564 13.4827 3.8264V13.0664L14.1127 13.4964L16.2127 11.3764C16.3627 11.2264 16.3827 11.0764 16.2127 10.9264L14.1627 8.8864V6.6164L18.9127 11.3464C19.2227 11.6464 19.3827 12.0764 19.3827 12.5764V16.1464C19.3827 16.3564 19.2927 16.5564 19.1527 16.6964L16.7627 19.0964C16.7327 19.1264 16.7027 19.1364 16.6627 19.1664V23.9164C16.6627 24.1864 16.4427 24.3864 16.1727 24.3864ZM19.8227 10.4164C18.8927 10.4164 18.1427 9.6664 18.1427 8.7064C18.1427 7.7964 18.8927 7.0264 19.8227 7.0264C20.7527 7.0264 21.5327 7.7964 21.5327 8.7064C21.5327 9.6664 20.7527 10.4164 19.8227 10.4164ZM16.6627 16.9364L17.7827 15.8164V14.6064C17.7827 14.3664 17.5827 14.2964 17.4227 14.4464L16.6627 15.2064ZM14.5927 19.6564C15.0527 19.6564 15.4127 19.4164 15.5827 19.0264C15.3127 18.7464 15.3227 18.2764 15.6227 17.9664C15.6427 17.9464 15.6827 17.9064 15.6927 17.8964V16.1564L15.6227 16.2264C15.0427 16.8164 14.2727 17.1464 13.4827 17.1564V18.5264C13.4827 19.2664 13.9427 19.6564 14.5927 19.6564Z" /></svg>