
<svg
    viewBox={0 0 27.890625 27.890625}
    xmlns="http://www.w3.org/2000/svg"
>
    <path
        fill="inherit"
        d="M13.9427 27.8864C21.6427 27.8864 27.8927 21.6464 27.8927 13.9464C27.8927 6.2464 21.6427 -0.0036 13.9427 -0.0036C6.2527 -0.0036 0.0027 6.2464 0.0027 13.9464C0.0027 21.6464 6.2527 27.8864 13.9427 27.8864ZM13.9427 25.5664C7.5227 25.5664 2.3227 20.3664 2.3227 13.9464C2.3227 7.5164 7.5227 2.3264 13.9427 2.3264C20.3727 2.3264 25.5627 7.5164 25.5627 13.9464C25.5627 20.3664 20.3727 25.5664 13.9427 25.5664ZM13.8327 8.3764C14.7627 8.3764 15.5027 7.6464 15.5027 6.7164C15.5027 5.7964 14.7627 5.0564 13.8327 5.0564C12.9227 5.0564 12.1727 5.7964 12.1727 6.7164C12.1727 7.6464 12.9227 8.3764 13.8327 8.3764ZM8.7327 20.9864C7.9727 21.9064 9.2127 22.7764 9.8427 22.0364L11.9627 19.5064C12.2127 19.2364 12.2727 19.0864 12.4727 18.7264L13.8127 15.8364C14.2427 14.8864 14.3327 14.3464 14.3927 13.3564L14.4827 12.1564L15.6727 13.2764C15.9427 13.5364 16.1427 13.6164 16.6127 13.6164H18.4327C18.9127 13.6164 19.2227 13.3464 19.2227 12.8964C19.2227 12.4664 18.9127 12.1964 18.4327 12.1964H16.4927L14.1827 9.6664C13.8227 9.2864 13.3827 9.0764 12.8427 9.0764C12.7127 9.0764 12.6027 9.0964 12.4927 9.1164C12.4927 8.5264 12.0327 8.0664 11.4027 8.0664H10.6127C9.7327 8.0664 9.2127 8.5964 9.2127 9.4764V13.2864C9.2127 13.8864 9.6527 14.3264 10.2427 14.3264H11.2227C11.2227 14.8564 11.3627 15.2164 11.6527 15.6664L10.9527 18.3764ZM18.0327 11.4664H18.4327C18.5227 11.4664 18.6527 11.4864 18.8227 11.5264V10.3464C18.8227 10.1264 18.6527 9.9664 18.4327 9.9664C18.1927 9.9664 18.0327 10.1264 18.0327 10.3464ZM18.0327 21.9164C18.0327 22.1364 18.2127 22.3164 18.4327 22.3164C18.6527 22.3164 18.8227 22.1364 18.8227 21.9164V14.2764C18.6727 14.3164 18.5427 14.3264 18.4327 14.3264H18.0327ZM13.5527 18.0864C13.7427 18.3164 13.8127 18.4464 13.8927 18.5964L15.4627 21.7964C15.9727 22.8064 17.4427 22.1664 16.9127 21.0964L15.3627 17.9764C15.2427 17.7164 15.0827 17.4464 14.9127 17.2264L14.3427 16.4164Z"
        fillRule="evenodd"
        clipRule="evenodd"
    />
</svg>
        