
<svg
    viewBox="0 0 32.361328125 25.607421875"
    xmlns="http://www.w3.org/2000/svg"
>
    <path
        fill="inherit"
        d="M8.8 4.278C9.98 4.278 10.94 3.318 10.94 2.148C10.94 0.968 9.98 -0.002 8.8 -0.002C7.63 -0.002 6.67 0.968 6.67 2.148C6.67 3.318 7.63 4.278 8.8 4.278ZM16.93 9.498C18.58 9.498 19.92 8.178 19.92 6.518C19.92 4.868 18.58 3.528 16.93 3.528C15.27 3.528 13.95 4.868 13.95 6.518C13.95 8.178 15.27 9.498 16.93 9.498ZM10.42 16.038C13.49 16.418 13.9 18.198 16.17 18.198C16.26 18.198 16.31 18.198 16.39 18.188L17.73 14.428C17.88 13.988 18.13 13.818 18.59 13.818H30.75C31.54 13.818 32.21 13.148 32.21 12.348C32.21 11.568 31.54 10.898 30.75 10.898H7.85L5.95 4.688C5.71 3.898 4.91 3.458 4.16 3.688C3.39 3.938 2.97 4.758 3.19 5.478L5.32 12.608C5.52 13.278 6.04 13.818 6.75 13.818H10.66C10.95 13.818 11.14 14.058 11.05 14.338ZM0.77 21.808H2.15C5.8 21.808 6.63 19.568 9.16 19.568C11.69 19.568 12.52 21.808 16.17 21.808C19.84 21.808 20.66 19.568 23.2 19.568C25.73 19.568 26.55 21.808 30.21 21.808H31.6C32.02 21.808 32.36 21.478 32.36 21.058C32.36 20.628 32.02 20.288 31.6 20.288H30.21C27.59 20.288 26.7 18.048 23.2 18.048C19.69 18.048 18.8 20.288 16.17 20.288C13.55 20.288 12.67 18.048 9.16 18.048C5.66 18.048 4.77 20.288 2.15 20.288H0.77C0.33 20.288 0 20.628 0 21.058C0 21.478 0.33 21.808 0.77 21.808ZM8.67 23.408C9.12 23.408 9.47 23.048 9.47 22.598C9.47 22.158 9.12 21.808 8.67 21.808C8.23 21.808 7.88 22.158 7.88 22.598C7.88 23.048 8.23 23.408 8.67 23.408ZM23.72 23.408C24.17 23.408 24.51 23.048 24.51 22.598C24.51 22.158 24.17 21.808 23.72 21.808C23.27 21.808 22.93 22.158 22.93 22.598C22.93 23.048 23.27 23.408 23.72 23.408ZM6.08 24.008C6.54 24.008 6.89 23.668 6.89 23.218C6.89 22.768 6.54 22.418 6.08 22.418C5.65 22.418 5.29 22.768 5.29 23.218C5.29 23.668 5.65 24.008 6.08 24.008ZM11.25 24.008C11.7 24.008 12.04 23.668 12.04 23.218C12.04 22.768 11.7 22.418 11.25 22.418C10.8 22.418 10.46 22.768 10.46 23.218C10.46 23.668 10.8 24.008 11.25 24.008ZM21.14 24.008C21.59 24.008 21.94 23.668 21.94 23.218C21.94 22.768 21.59 22.418 21.14 22.418C20.7 22.418 20.34 22.768 20.34 23.218C20.34 23.668 20.7 24.008 21.14 24.008ZM26.3 24.008C26.76 24.008 27.1 23.668 27.1 23.218C27.1 22.768 26.76 22.418 26.3 22.418C25.85 22.418 25.51 22.768 25.51 23.218C25.51 23.668 25.85 24.008 26.3 24.008ZM3.69 25.138C4.13 25.138 4.48 24.788 4.48 24.348C4.48 23.898 4.13 23.548 3.69 23.548C3.24 23.548 2.88 23.898 2.88 24.348C2.88 24.788 3.24 25.138 3.69 25.138ZM13.67 25.138C14.12 25.138 14.48 24.788 14.48 24.348C14.48 23.898 14.12 23.548 13.67 23.548C13.23 23.548 12.88 23.898 12.88 24.348C12.88 24.788 13.23 25.138 13.67 25.138ZM18.72 25.138C19.17 25.138 19.51 24.788 19.51 24.348C19.51 23.898 19.17 23.548 18.72 23.548C18.27 23.548 17.92 23.898 17.92 24.348C17.92 24.788 18.27 25.138 18.72 25.138ZM28.71 25.138C29.16 25.138 29.5 24.788 29.5 24.348C29.5 23.898 29.16 23.548 28.71 23.548C28.26 23.548 27.92 23.898 27.92 24.348C27.92 24.788 28.26 25.138 28.71 25.138ZM1.12 25.608C1.57 25.608 1.93 25.248 1.93 24.798C1.93 24.368 1.57 24.008 1.12 24.008C0.68 24.008 0.33 24.368 0.33 24.798C0.33 25.248 0.68 25.608 1.12 25.608ZM16.2 25.608C16.64 25.608 16.99 25.248 16.99 24.798C16.99 24.368 16.64 24.008 16.2 24.008C15.75 24.008 15.39 24.368 15.39 24.798C15.39 25.248 15.75 25.608 16.2 25.608ZM31.25 25.608C31.71 25.608 32.06 25.248 32.06 24.798C32.06 24.368 31.71 24.008 31.25 24.008C30.82 24.008 30.46 24.368 30.46 24.798C30.46 25.248 30.82 25.608 31.25 25.608Z"
        fillRule="evenodd"
        clipRule="evenodd"
    />
</svg>
        