<svg viewBox="0 0 27.890625 27.890625" xmlns="http://www.w3.org/2000/svg"><path d="M13.9427 27.8864C21.6427 27.8864 27.8927 21.6464 27.8927 13.9464C27.8927 6.2464 21.6427 -0.0036 13.9427 -0.0036C6.2527 -0.0036 0.0027 6.2464 0.0027 13.9464C0.0027 21.6464 6.2527 27.8864 13.9427 27.8864ZM13.9427 25.5664C7.5227 25.5664 2.3227 20.3664 2.3227 13.9464C2.3227 7.5164 7.5227 2.3264 13.9427 2.3264C20.3727 2.3264 25.5627 7.5164 25.5627 13.9464C25.5627 20.3664 20.3727 25.5664 13.9427 25.5664ZM13.0327 23.1864C13.3827 23.3564 13.8527 23.2564 14.0527 22.8464L15.9327 19.0964C16.0927 18.7864 16.1227 18.4164 15.7727 18.0764L13.5227 15.8464L16.4427 14.3864C16.5927 14.3164 16.7527 14.3464 16.8527 14.4364L20.8727 18.4564C21.1827 18.7564 21.6727 18.7264 21.9427 18.4564C22.2427 18.1564 22.2427 17.6764 21.9427 17.3764L16.0127 11.4464C15.7527 11.1864 15.4727 11.0364 15.1027 11.0364H12.1527L10.2027 9.0464L10.7827 8.4764C11.6727 8.2864 12.9427 7.9564 13.5527 7.3264C14.6727 6.2364 14.6927 5.3764 13.9727 4.6664C13.2527 3.9464 12.4027 3.9664 11.3027 5.0864C10.6827 5.6964 10.3527 6.9564 10.1727 7.8764L9.0527 8.9864C8.6927 9.3364 8.7727 9.8164 9.0927 10.1164L11.3227 12.3464C11.4527 12.4864 11.6327 12.5664 11.8527 12.5664H13.3527C13.4127 12.5664 13.4427 12.6364 13.3827 12.6764L11.8127 13.4564C10.4827 14.1064 10.1727 15.8764 11.5427 16.8664L14.3327 18.9064L12.7027 22.1664C12.5127 22.5264 12.6627 23.0064 13.0327 23.1864ZM13.3727 5.2764C13.7627 5.6464 13.6427 6.0264 12.9627 6.7364C12.5227 7.1464 11.7327 7.3564 11.1127 7.5364C11.2827 6.8864 11.5027 6.1264 11.9227 5.6864C12.6227 5.0064 12.9727 4.8964 13.3727 5.2764ZM18.2127 11.7764C19.1227 11.7764 19.8527 11.0364 19.8527 10.1164C19.8527 9.1964 19.1227 8.4764 18.2127 8.4764C17.2927 8.4764 16.5527 9.1964 16.5527 10.1164C16.5527 11.0364 17.2927 11.7764 18.2127 11.7764ZM5.7427 19.4264C5.7427 19.8664 6.0827 20.2064 6.4927 20.2064H10.3227C10.6527 20.2064 10.9127 19.9764 11.0427 19.6964L11.9227 17.9464L11.1427 17.4064C10.6927 17.0764 10.5127 16.8564 10.4327 16.6664L9.7627 18.6664H6.4927C6.0827 18.6664 5.7427 19.0164 5.7427 19.4264Z" /></svg>