
<svg
    viewBox={0 0 27.890625 27.890625}
    xmlns="http://www.w3.org/2000/svg"
>
    <path
        fill="inherit"
        d="M13.9427 27.8864C21.6427 27.8864 27.8927 21.6264 27.8927 13.9464C27.8927 6.2464 21.6427 -0.0036 13.9427 -0.0036C6.2627 -0.0036 0.0027 6.2464 0.0027 13.9464C0.0027 21.6264 6.2627 27.8864 13.9427 27.8864ZM13.1927 7.1264C12.3327 7.1264 11.6327 6.4364 11.6327 5.5664C11.6327 4.6864 12.3327 3.9964 13.1927 3.9964C14.0527 3.9964 14.7627 4.6864 14.7627 5.5664C14.7627 6.4364 14.0527 7.1264 13.1927 7.1264ZM8.6927 12.7264L8.8327 11.0364C8.8727 10.5564 8.9827 10.2664 9.3427 9.9264L10.4327 8.8464C11.1327 8.1664 11.6327 7.7764 12.3827 7.7764C13.4127 7.7764 13.9827 8.5264 13.9227 9.5164L13.7827 11.5764C13.7227 12.3164 13.6027 12.7664 13.3827 13.5264L13.3327 13.6964L14.2427 15.0264C14.3827 15.2264 14.5327 15.4664 14.6427 15.6864L15.9027 18.2364C16.3627 19.1964 15.0527 19.7564 14.6127 18.8564L13.3127 16.2464C13.2627 16.1164 13.2227 16.0264 13.1127 15.8764L11.6527 14.0364C11.1027 13.3564 10.9127 12.9764 10.9627 12.1864L11.1027 10.5964C11.1127 10.4064 10.8427 10.2964 10.6627 10.4764L10.1327 10.9364L9.9627 12.8064C9.9427 13.2664 9.6827 13.4764 9.2927 13.4664C8.9027 13.4564 8.6727 13.1564 8.6927 12.7264ZM14.4827 11.1464L14.5927 9.4064L15.6727 10.5664H17.3227C17.7427 10.5664 18.0427 10.8264 18.0427 11.2064C18.0427 11.6164 17.7427 11.8764 17.3227 11.8764H15.7727C15.3527 11.8764 15.1627 11.8164 14.9127 11.5664ZM19.5327 12.7564C19.4327 12.5064 19.5127 12.2264 19.7827 12.0964L23.4027 10.4064C23.6427 10.2764 23.9527 10.3864 24.0627 10.6364C24.1627 10.8664 24.0627 11.1664 23.8127 11.2964L22.1527 12.0764L20.9027 19.1864C20.8227 19.1864 20.7827 19.1864 20.6727 19.1864L19.9027 19.2364L21.0727 12.5664L20.1927 12.9764C19.9327 13.0964 19.6327 12.9864 19.5327 12.7564ZM8.5327 18.6064L10.7227 16.0364L11.0427 14.4064L12.2227 15.8564L12.0627 16.3564C11.9727 16.6064 11.9327 16.6664 11.7327 16.9164L9.5127 19.5464C8.9527 20.2064 7.8327 19.4164 8.5327 18.6064ZM5.7727 21.2064C5.7727 20.9564 5.9327 20.7964 6.1627 20.7664L20.8127 19.8564C21.3927 19.8264 21.8327 20.1364 21.8327 20.7164C21.8327 21.2164 21.4527 21.6064 20.9627 21.6064H6.1627C5.9327 21.6064 5.7727 21.4064 5.7727 21.2064Z"
        fillRule="evenodd"
        clipRule="evenodd"
    />
</svg>
        