<svg viewBox="0 0 27.890625 27.890625" xmlns="http://www.w3.org/2000/svg"><path d="M13.9427 27.8864C21.6427 27.8864 27.8927 21.6264 27.8927 13.9464C27.8927 6.2464 21.6427 -0.0036 13.9427 -0.0036C6.2627 -0.0036 0.0027 6.2464 0.0027 13.9464C0.0027 21.6264 6.2627 27.8864 13.9427 27.8864ZM15.3927 9.8964C14.4327 9.8964 13.6727 9.1464 13.6727 8.1864C13.6727 7.2564 14.4327 6.4964 15.3927 6.4964C16.3227 6.4964 17.0727 7.2564 17.0727 8.1864C17.0727 9.1464 16.3227 9.8964 15.3927 9.8964ZM16.5927 15.2564H12.9227C12.4727 15.2564 12.1127 14.8864 12.1127 14.4364V12.5764C12.1127 12.2764 11.9927 12.1864 11.6627 12.2364L8.4227 12.8564C8.2827 12.8664 8.2127 13.0564 8.3427 13.1764L10.6327 15.4864C10.8327 15.7064 10.8927 15.8464 10.8927 16.1464V20.5764C10.8927 21.0264 10.5127 21.3964 10.0727 21.3964C9.6227 21.3964 9.2527 21.0264 9.2527 20.5764V16.4564L6.2527 13.8264C5.0027 12.7164 5.4827 10.6464 7.2227 10.2964L12.0127 9.2964C12.9227 9.1064 13.7527 9.7364 13.7527 10.7064V13.6264H16.5927C17.0527 13.6264 17.4227 13.9964 17.4227 14.4364C17.4227 14.8864 17.0527 15.2564 16.5927 15.2564ZM21.0027 18.4064C20.3727 18.4064 19.7827 18.0464 19.5127 17.4964L18.7827 16.0764C18.6327 15.7364 18.8427 15.4464 19.1127 15.3564C19.3227 15.2964 19.5927 15.3564 19.7327 15.6164L20.4427 17.0364C20.5327 17.2564 20.7227 17.3764 21.0027 17.3764H21.8227V11.0564H20.9627C18.7827 11.0564 17.3727 11.5664 15.9827 12.9464H14.5727C16.4027 10.7864 18.1127 10.0264 20.9627 10.0264H22.1627C22.5627 10.0264 22.8427 10.3264 22.8427 10.7164V17.7064C22.8427 18.1164 22.5627 18.4064 22.1327 18.4064ZM11.5627 18.0464V16.7164C11.8627 16.4364 12.1427 16.1764 12.4127 15.8364C12.5827 15.8864 12.7727 15.9264 12.9327 15.9264H13.6627C13.0727 16.7064 12.4327 17.4764 11.5627 18.0464ZM5.9927 19.2364C5.7127 19.2364 5.4827 18.9864 5.4827 18.7264C5.4827 18.4464 5.7027 18.2064 5.9927 18.2064H7.3427C7.7927 18.2064 8.2027 18.1664 8.5827 18.1064V19.1364C8.2027 19.2064 7.7827 19.2364 7.3427 19.2364Z" /></svg>