
<svg
    viewBox={0 0 26.213601579223333 27.553104550184447}
    xmlns="http://www.w3.org/2000/svg"
>
    <path
        fill="inherit"
        d="M4.8946 -0.0009C4.2446 -0.0009 3.7246 0.5091 3.7246 1.1591V7.4491H1.2246C0.1046 7.4491 -0.3954 8.5891 0.3646 9.4191L4.0346 13.5591C4.5346 14.1191 5.2046 14.1391 5.7146 13.5591L9.3846 9.4191C10.0946 8.6291 9.6946 7.4491 8.5346 7.4491H6.0446V1.1591C6.0446 0.5091 5.5446 -0.0009 4.8946 -0.0009ZM22.5346 7.4791C24.5846 7.4791 26.2146 5.7691 26.2146 3.7891C26.2146 1.7191 24.5846 0.0591 22.5346 0.0591C20.4746 0.0591 18.8146 1.7191 18.8146 3.7891C18.8146 5.8291 20.4746 7.4791 22.5346 7.4791ZM0.5146 27.0391C1.2046 27.7791 2.4246 27.7291 3.2946 26.8291L9.1746 20.7491C9.3746 20.5491 9.5246 20.4991 9.8246 20.6191L14.4146 22.3491C17.3646 23.4891 20.1446 22.5191 21.4446 20.1691L24.3946 14.7891C25.5446 12.6991 25.1746 10.5391 23.1746 9.4791C21.2546 8.4191 19.2546 9.2191 18.0746 11.3591L14.2546 18.3491L10.9846 17.1591C9.3746 16.5691 8.0346 16.7591 6.7446 18.0991L0.6346 24.4191C-0.2254 25.2891 -0.1454 26.3891 0.5146 27.0391Z"
        fillRule="evenodd"
        clipRule="evenodd"
    />
</svg>
        