
<svg
    viewBox="0 0 29.99440725341516 27.498417050184447"
    xmlns="http://www.w3.org/2000/svg"
>
    <path
        fill="inherit"
        d="M26.3193 7.4244C28.3493 7.4244 29.9993 5.7144 29.9993 3.7344C29.9993 1.6644 28.3493 0.0044 26.3193 0.0044C24.2393 0.0044 22.5993 1.6644 22.5993 3.7344C22.5993 5.7744 24.2393 7.4244 26.3193 7.4244ZM5.1493 5.4544C5.1493 6.0244 5.5893 6.4844 6.1693 6.4844H11.5193V8.6144C11.5193 9.5744 12.4993 9.9944 13.2193 9.3544L16.7593 6.2044C17.2393 5.7544 17.2393 5.1944 16.7593 4.7544L13.2193 1.6144C12.5193 0.9944 11.5193 1.3444 11.5193 2.3544V4.4744H6.1693C5.5893 4.4744 5.1493 4.9044 5.1493 5.4544ZM0.2893 7.9444C-0.1007 8.3244 -0.1007 8.9544 0.2993 9.3644L4.0893 13.1344L2.5793 14.6544C1.8893 15.3644 2.3393 16.3144 3.2493 16.3644L7.9993 16.6344C8.6493 16.6844 9.0493 16.2744 9.0193 15.6244L8.7193 10.8944C8.6793 9.9244 7.6793 9.5444 7.0093 10.2144L5.4993 11.7344L1.7193 7.9444C1.3293 7.5444 0.6793 7.5444 0.2893 7.9444ZM4.2793 26.9844C4.9893 27.7244 6.2093 27.6744 7.0793 26.7744L12.9593 20.6944C13.1493 20.4944 13.2893 20.4444 13.5993 20.5644L18.1793 22.2944C21.1393 23.4344 23.9193 22.4644 25.2093 20.1144L28.1593 14.7344C29.3093 12.6444 28.9593 10.4844 26.9593 9.4244C25.0293 8.3644 23.0193 9.1644 21.8593 11.3044L18.0293 18.2944L14.7593 17.1044C13.1493 16.5144 11.7993 16.7044 10.5093 18.0444L4.3993 24.3644C3.5493 25.2344 3.6393 26.3344 4.2793 26.9844Z"
        fillRule="evenodd"
        clipRule="evenodd"
    />
</svg>
        