
<svg
    viewBox="0 0 27.890625 27.890625"
    xmlns="http://www.w3.org/2000/svg"
>
    <path
        fill="inherit"
        d="M13.9427 27.8864C21.6427 27.8864 27.8927 21.6264 27.8927 13.9464C27.8927 6.2464 21.6427 -0.0036 13.9427 -0.0036C6.2627 -0.0036 0.0027 6.2464 0.0027 13.9464C0.0027 21.6264 6.2627 27.8864 13.9427 27.8864ZM12.9927 23.4864C12.6027 23.2964 12.4527 22.8064 12.6427 22.4264L14.3327 19.0764L11.4427 16.9664C10.0327 15.9364 10.3627 14.1264 11.7327 13.4364L13.3527 12.6464C13.4127 12.6064 13.3827 12.5264 13.3327 12.5264H11.7727C11.5527 12.5264 11.3627 12.4364 11.2227 12.3064L8.9327 10.0064C8.6027 9.6964 8.5127 9.1964 8.8827 8.8364L10.0327 7.6964C10.2227 6.7564 10.5527 5.4564 11.2127 4.8164C12.3327 3.6664 13.2227 3.6464 13.9627 4.3764C14.7127 5.1164 14.6827 6.0064 13.5227 7.1364C12.9027 7.7764 11.5927 8.1164 10.6827 8.3164L10.0727 8.8964L12.0827 10.9464H15.1327C15.5027 10.9464 15.7927 11.1064 16.0627 11.3764L22.1727 17.4864C22.4927 17.7964 22.4927 18.2964 22.1727 18.6064C21.9027 18.8964 21.3927 18.9264 21.0827 18.6064L16.9427 14.4664C16.8127 14.3564 16.6627 14.3264 16.5127 14.4064L13.4927 15.9164L15.8227 18.2064C16.1727 18.5664 16.1427 18.9464 15.9827 19.2664L14.0427 23.1364C13.8327 23.5564 13.3527 23.6564 12.9927 23.4864ZM13.3427 5.0164C12.9327 4.6164 12.5627 4.7264 11.8427 5.4364C11.4127 5.8964 11.1827 6.6764 11.0227 7.3464C11.6527 7.1464 12.4727 6.9464 12.9227 6.5264C13.6127 5.7864 13.7527 5.3964 13.3427 5.0164ZM18.3327 11.7164C17.3927 11.7164 16.6227 10.9464 16.6227 10.0064C16.6227 9.0664 17.3927 8.3164 18.3327 8.3164C19.2727 8.3164 20.0127 9.0664 20.0127 10.0064C20.0127 10.9464 19.2727 11.7164 18.3327 11.7164ZM5.4727 19.6064C5.4727 19.1864 5.8227 18.8164 6.2527 18.8164H9.6127L10.3127 16.7664C10.3927 16.9564 10.5727 17.1864 11.0327 17.5264L11.8427 18.0864L10.9327 19.8964C10.8027 20.1664 10.5227 20.4164 10.2027 20.4164H6.2527C5.8227 20.4164 5.4727 20.0564 5.4727 19.6064Z"
        fillRule="evenodd"
        clipRule="evenodd"
    />
</svg>
        