
<svg
    viewBox="0 0 21.580796131329237 32.060546875"
    xmlns="http://www.w3.org/2000/svg"
>
    <path
        fill="inherit"
        d="M18.4409 5.9782C20.0809 5.9782 21.4209 4.6382 21.4209 2.9682C21.4209 1.3282 20.0809 -0.0018 18.4409 -0.0018C16.7709 -0.0018 15.4309 1.3282 15.4309 2.9682C15.4309 4.6382 16.7709 5.9782 18.4409 5.9782ZM11.5909 27.0882C12.3709 27.0882 13.0309 26.4382 13.0309 25.6782V18.5082C13.0309 18.1682 12.9009 17.8682 12.7009 17.6182L9.4609 13.6482C9.2509 13.3882 9.3209 13.1082 9.5709 12.9782L13.5209 10.9282C13.8009 10.7782 14.0909 10.8782 14.1509 11.2282L14.4909 13.6482C14.5609 14.1782 14.8609 14.5482 15.4309 14.8182L19.3109 16.7782C20.3809 17.3082 21.2209 16.8682 21.4709 16.1982C21.7309 15.5682 21.5309 14.7482 20.6709 14.3182L17.1809 12.5382L16.6209 8.4082C16.3209 6.2082 13.8909 4.8582 11.5609 6.0682L6.4409 8.7482C4.0709 9.9782 3.7609 12.6782 5.5109 14.4382L10.2109 19.1182V25.6782C10.2109 26.4382 10.8409 27.0882 11.5909 27.0882ZM0.6409 18.2382C1.1709 19.1982 2.1709 19.4782 3.1509 19.2682L3.3209 19.2182L6.6509 29.1382L4.0409 30.8582C3.4809 31.2282 3.6509 32.0582 4.3009 32.0582H18.8109C19.4509 32.0582 19.6209 31.1982 19.0809 30.8582L16.5009 29.1582L19.8509 19.0182C19.9809 18.6082 19.7709 18.1382 19.3709 18.0182C18.9209 17.8782 18.5209 18.1182 18.3709 18.5282L16.4409 24.2782C15.9409 23.2582 15.1309 22.4082 14.1209 21.8582V23.9082C14.8409 24.5782 15.2709 25.5482 15.2709 26.6182C15.2709 28.6682 13.6109 30.3282 11.5509 30.3282C9.5509 30.3282 7.8609 28.6282 7.8609 26.6182C7.8609 25.5382 8.3409 24.5382 9.0909 23.8582V21.8382C8.0609 22.3582 7.2209 23.2182 6.7009 24.2682L4.9009 18.8782L6.1109 18.6082C6.5209 18.5282 6.7809 18.2282 6.7809 17.7882C6.7809 17.3682 6.4809 17.0582 6.0809 16.9982L1.0409 16.1182C0.1909 15.9682 -0.2491 16.6482 0.1509 17.3482Z"
        fillRule="evenodd"
        clipRule="evenodd"
    />
</svg>
        