
<svg
    viewBox="0 0 26.214217280287755 27.826542050184447"
    xmlns="http://www.w3.org/2000/svg"
>
    <path
        fill="inherit"
        d="M12.63 8.8625C12.63 10.8725 14.46 12.8925 16.16 12.8925C17.72 12.8925 18.51 11.5025 19.44 9.0225L19.8 8.9525V11.6225C19.8 12.7725 20.4 13.3525 21.51 13.3525C23.5 13.3525 25.53 11.5425 25.53 9.8325C25.53 8.2625 24.13 7.4825 21.64 6.5525L21.59 6.1925H24.25C25.4 6.1925 25.98 5.6025 25.98 4.5025C25.98 2.4925 24.17 0.4525 22.46 0.4525C20.89 0.4525 20.11 1.8725 19.17 4.3625L18.83 4.4025V1.7325C18.83 0.6025 18.24 0.0025 17.13 0.0025C15.12 0.0025 13.08 1.8325 13.08 3.5225C13.08 5.1025 14.51 5.8825 16.99 6.8125L17.02 7.1625H14.37C13.23 7.1625 12.63 7.7625 12.63 8.8625ZM3.68 7.7525C5.76 7.7525 7.4 6.1025 7.4 4.0625C7.4 1.9925 5.76 0.3325 3.68 0.3325C1.64 0.3325 0 1.9925 0 4.0625C0 6.0425 1.64 7.7525 3.68 7.7525ZM19.3 8.0525C18.55 8.0525 17.94 7.4325 17.94 6.6725C17.94 5.9225 18.55 5.3025 19.3 5.3025C20.06 5.3025 20.67 5.9225 20.67 6.6725C20.67 7.4325 20.06 8.0525 19.3 8.0525ZM25.72 27.3125C26.36 26.6625 26.44 25.5625 25.59 24.6925L19.48 18.3725C18.2 17.0325 16.84 16.8425 15.23 17.4325L11.96 18.6225L8.13 11.6325C6.97 9.4925 4.96 8.6925 3.04 9.7525C1.04 10.8125 0.68 12.9725 1.83 15.0625L4.79 20.4425C6.07 22.7925 8.86 23.7625 11.81 22.6225L16.41 20.8925C16.71 20.7725 16.84 20.8225 17.04 21.0225L22.91 27.1025C23.79 28.0025 25.01 28.0525 25.72 27.3125Z"
        fillRule="evenodd"
        clipRule="evenodd"
    />
</svg>
        