
<svg
    viewBox={0 0 32.361328125 23.2421875}
    xmlns="http://www.w3.org/2000/svg"
>
    <path
        fill="inherit"
        d="M16.0737 5.9859C17.7337 5.9859 19.0737 4.6459 19.0737 2.9959C19.0737 1.3359 17.7337 -0.0041 16.0737 -0.0041C14.4237 -0.0041 13.0937 1.3359 13.0937 2.9959C13.0937 4.6459 14.4237 5.9859 16.0737 5.9859ZM1.4037 3.9359L11.4537 9.3259C11.7837 9.5059 11.9737 9.8459 11.8637 10.2159L10.8937 13.7559C13.4437 14.2759 14.3037 15.8359 16.1737 15.8359C16.6937 15.8359 17.1337 15.6959 17.5537 15.4859L18.8837 10.5959C19.0137 10.0859 19.1537 9.8159 19.6737 9.5559L30.2037 3.9359C30.9537 3.5259 31.2437 2.5859 30.8537 1.8359C30.4237 1.0759 29.5037 0.7759 28.7337 1.1859L18.2937 6.7259C16.6537 7.6059 15.0937 7.7159 13.1237 6.6559L2.8737 1.1859C2.1037 0.7759 1.1637 1.0759 0.7637 1.8359C0.3537 2.5859 0.6537 3.5259 1.4037 3.9359ZM0.7637 19.4459H2.1437C5.7937 19.4459 6.6337 17.1859 9.1637 17.1859C11.6937 17.1859 12.5237 19.4459 16.1737 19.4459C19.8337 19.4459 20.6537 17.1859 23.2037 17.1859C25.7337 17.1859 26.5537 19.4459 30.2137 19.4459H31.5937C32.0237 19.4459 32.3637 19.1159 32.3637 18.6859C32.3637 18.2659 32.0237 17.9259 31.5937 17.9259H30.2137C27.5937 17.9259 26.7037 15.6659 23.2037 15.6659C19.6837 15.6659 18.8037 17.9259 16.1737 17.9259C13.5537 17.9259 12.6737 15.6659 9.1637 15.6659C5.6637 15.6659 4.7737 17.9259 2.1437 17.9259H0.7637C0.3237 17.9259 0.0037 18.2659 0.0037 18.6859C0.0037 19.1159 0.3237 19.4459 0.7637 19.4459ZM8.6637 21.0459C9.1237 21.0459 9.4737 20.6859 9.4737 20.2359C9.4737 19.7959 9.1237 19.4459 8.6637 19.4459C8.2337 19.4459 7.8737 19.7959 7.8737 20.2359C7.8737 20.6859 8.2337 21.0459 8.6637 21.0459ZM23.7237 21.0459C24.1737 21.0459 24.5137 20.6859 24.5137 20.2359C24.5137 19.7959 24.1737 19.4459 23.7237 19.4459C23.2737 19.4459 22.9237 19.7959 22.9237 20.2359C22.9237 20.6859 23.2737 21.0459 23.7237 21.0459ZM6.0837 21.6459C6.5337 21.6459 6.8937 21.2959 6.8937 20.8459C6.8937 20.3959 6.5337 20.0559 6.0837 20.0559C5.6437 20.0559 5.2937 20.3959 5.2937 20.8459C5.2937 21.2959 5.6437 21.6459 6.0837 21.6459ZM11.2537 21.6459C11.7037 21.6459 12.0437 21.2959 12.0437 20.8459C12.0437 20.3959 11.7037 20.0559 11.2537 20.0559C10.8037 20.0559 10.4637 20.3959 10.4637 20.8459C10.4637 21.2959 10.8037 21.6459 11.2537 21.6459ZM21.1337 21.6459C21.5837 21.6459 21.9437 21.2959 21.9437 20.8459C21.9437 20.3959 21.5837 20.0559 21.1337 20.0559C20.7037 20.0559 20.3437 20.3959 20.3437 20.8459C20.3437 21.2959 20.7037 21.6459 21.1337 21.6459ZM26.3037 21.6459C26.7537 21.6459 27.0937 21.2959 27.0937 20.8459C27.0937 20.3959 26.7537 20.0559 26.3037 20.0559C25.8537 20.0559 25.5137 20.3959 25.5137 20.8459C25.5137 21.2959 25.8537 21.6459 26.3037 21.6459ZM3.6937 22.7759C4.1337 22.7759 4.4837 22.4259 4.4837 21.9859C4.4837 21.5359 4.1337 21.1759 3.6937 21.1759C3.2437 21.1759 2.8837 21.5359 2.8837 21.9859C2.8837 22.4259 3.2437 22.7759 3.6937 22.7759ZM13.6737 22.7759C14.1237 22.7759 14.4737 22.4259 14.4737 21.9859C14.4737 21.5359 14.1237 21.1759 13.6737 21.1759C13.2337 21.1759 12.8837 21.5359 12.8837 21.9859C12.8837 22.4259 13.2337 22.7759 13.6737 22.7759ZM18.7137 22.7759C19.1637 22.7759 19.5137 22.4259 19.5137 21.9859C19.5137 21.5359 19.1637 21.1759 18.7137 21.1759C18.2637 21.1759 17.9237 21.5359 17.9237 21.9859C17.9237 22.4259 18.2637 22.7759 18.7137 22.7759ZM28.7137 22.7759C29.1637 22.7759 29.5037 22.4259 29.5037 21.9859C29.5037 21.5359 29.1637 21.1759 28.7137 21.1759C28.2637 21.1759 27.9137 21.5359 27.9137 21.9859C27.9137 22.4259 28.2637 22.7759 28.7137 22.7759ZM1.1237 23.2459C1.5737 23.2459 1.9237 22.8859 1.9237 22.4359C1.9237 21.9959 1.5737 21.6459 1.1237 21.6459C0.6837 21.6459 0.3237 21.9959 0.3237 22.4359C0.3237 22.8859 0.6837 23.2459 1.1237 23.2459ZM16.2037 23.2459C16.6437 23.2459 16.9937 22.8859 16.9937 22.4359C16.9937 21.9959 16.6437 21.6459 16.2037 21.6459C15.7537 21.6459 15.3937 21.9959 15.3937 22.4359C15.3937 22.8859 15.7537 23.2459 16.2037 23.2459ZM31.2537 23.2459C31.7037 23.2459 32.0637 22.8859 32.0637 22.4359C32.0637 21.9959 31.7037 21.6459 31.2537 21.6459C30.8137 21.6459 30.4637 21.9959 30.4637 22.4359C30.4637 22.8859 30.8137 23.2459 31.2537 23.2459Z"
        fillRule="evenodd"
        clipRule="evenodd"
    />
</svg>
        