
<svg
    viewBox={0 0 27.890625 27.890625}
    xmlns="http://www.w3.org/2000/svg"
>
    <path
        fill="inherit"
        d="M13.9427 27.8864C21.6427 27.8864 27.8927 21.6264 27.8927 13.9464C27.8927 6.2464 21.6427 -0.0036 13.9427 -0.0036C6.2627 -0.0036 0.0027 6.2464 0.0027 13.9464C0.0027 21.6264 6.2627 27.8864 13.9427 27.8864ZM13.9427 10.3064C12.9927 10.3064 12.2327 9.5264 12.2327 8.5864C12.2327 7.6664 12.9927 6.8864 13.9427 6.8864C14.8727 6.8864 15.6227 7.6664 15.6227 8.5864C15.6227 9.5264 14.8727 10.3064 13.9427 10.3064ZM6.6827 17.4964C6.1627 17.4764 5.9627 17.1564 5.9627 16.7064V12.7264C5.9627 12.3064 6.3127 11.9464 6.7627 11.9464C7.1827 11.9464 7.5427 12.3064 7.5427 12.7264V15.9164H10.6627C11.0227 15.3164 11.7127 13.9564 11.8927 12.5664C11.9127 12.3964 11.8127 12.2864 11.6627 12.2464L6.1527 10.7364C5.7127 10.6064 5.4727 10.1764 5.5927 9.7664C5.7127 9.3264 6.1527 9.0764 6.5627 9.1964L12.4927 10.8264C13.6427 11.1464 13.7427 11.1564 14.7827 11.1564H21.0427C21.4927 11.1564 21.8327 11.5164 21.8327 11.9464C21.8327 12.3864 21.4927 12.7264 21.0427 12.7264H15.3527C15.1727 12.7264 15.0627 12.8364 15.0527 13.0064C14.9027 14.4764 14.3027 15.8364 13.8627 16.6764L17.1827 17.8864C17.2427 17.9064 17.3727 17.9764 17.4427 17.9964L21.2227 19.3564C21.6127 19.4964 21.8027 19.9564 21.6827 20.3864C21.5327 20.8464 21.0127 20.9864 20.6427 20.8464L16.8827 19.4664L12.1127 18.1164C11.4527 17.9364 11.3027 17.8864 10.6127 17.8464Z"
        fillRule="evenodd"
        clipRule="evenodd"
    />
</svg>
        