<svg viewBox="0 0 33.400390625 31.22344717191489" xmlns="http://www.w3.org/2000/svg"><path d="M23.7237 6.0178C25.3937 6.0178 26.7237 4.6778 26.7237 3.0078C26.7237 1.3378 25.3937 -0.0022 23.7237 -0.0022C22.0537 -0.0022 20.7137 1.3378 20.7137 3.0078C20.7137 4.6778 22.0537 6.0178 23.7237 6.0178ZM5.7437 5.5678H13.6337C14.1137 5.5678 14.4937 5.1678 14.4937 4.6778C14.4937 4.1878 14.1137 3.7778 13.6337 3.7778H5.7437C5.2537 3.7778 4.8837 4.1878 4.8837 4.6778C4.8837 5.1678 5.2537 5.5678 5.7437 5.5678ZM26.9737 30.2978C27.8537 32.0978 30.5037 30.9978 29.5437 29.0478L26.6237 23.1178C26.4037 22.6678 26.0737 22.1878 25.8137 21.8078L23.9437 19.1578L24.0737 18.7678C24.5937 17.2978 24.7637 16.3878 24.8737 14.9178L25.1537 10.7778C25.2937 8.8078 24.1337 7.2978 22.1237 7.2978C20.6037 7.2978 19.5737 8.0678 18.1837 9.4378L15.9937 11.5978C15.2737 12.3078 15.0437 12.8778 14.9737 13.8078L14.7137 17.1978C14.6437 18.0478 15.1237 18.6578 15.9137 18.6878C16.7037 18.7478 17.1837 18.2778 17.2637 17.3678L17.5937 13.6478L18.6437 12.6878C19.0337 12.3478 19.5337 12.5778 19.4937 12.9578L19.2637 16.1178C19.1437 17.7078 19.5137 18.4578 20.6137 19.8278L23.5137 23.4778C23.8037 23.8478 23.8437 23.9978 23.9637 24.2178ZM31.9637 12.9178H28.6437L26.4837 10.5178L26.2637 13.9978L27.1437 14.8778C27.6137 15.3578 28.0237 15.4878 28.8737 15.4878H31.9637C32.8237 15.4878 33.4037 14.9978 33.4037 14.1878C33.4037 13.4278 32.8137 12.9178 31.9637 12.9178ZM0.8437 12.4178H10.2137C10.7037 12.4178 11.0737 12.0178 11.0737 11.5278C11.0737 11.0378 10.7037 10.6278 10.2137 10.6278H0.8437C0.3737 10.6278 0.0037 11.0478 0.0037 11.5278C0.0037 12.0078 0.3737 12.4178 0.8437 12.4178ZM4.9337 19.2678H10.1437C10.6237 19.2678 10.9937 18.8678 10.9937 18.3778C10.9937 17.8778 10.6237 17.4678 10.1437 17.4678H4.9337C4.4437 17.4678 4.0737 17.8778 4.0737 18.3778C4.0737 18.8678 4.4437 19.2678 4.9337 19.2678ZM16.4737 30.7178L20.7837 25.5978C21.2037 25.0978 21.2637 24.9678 21.4237 24.4478L21.7837 23.3878L19.4737 20.4978L18.7437 23.8178L14.4737 28.8578C13.1137 30.4778 15.3437 32.0578 16.4737 30.7178ZM1.3437 26.0278H8.4737C8.9537 26.0278 9.3237 25.6378 9.3237 25.1378C9.3237 24.6478 8.9537 24.2378 8.4737 24.2378H1.3437C0.8637 24.2378 0.4937 24.6478 0.4937 25.1378C0.4937 25.6378 0.8637 26.0278 1.3437 26.0278Z" /></svg>