
<svg
    viewBox="0 0 26.796875 35.5491139972074"
    xmlns="http://www.w3.org/2000/svg"
>
    <path
        fill="inherit"
        d="M11.5937 23.9209L16.6637 27.6309L13.7137 33.5209C13.3737 34.1909 13.6437 35.0509 14.3437 35.4109C14.9737 35.7109 15.8137 35.5309 16.1837 34.7809L19.6437 27.8609C19.9437 27.2509 19.8337 26.6309 19.3637 26.1709L16.7437 23.7209H21.1937C21.9937 23.7209 22.5837 23.0909 22.5837 22.3309V16.7609C22.5837 14.4809 20.7437 12.6009 18.4337 12.6009H13.6337V11.4609L14.1937 9.4909C14.3537 8.9009 14.1237 8.2709 13.6337 7.9609V5.8809C14.3937 4.8709 15.1937 3.3809 15.1937 2.3409C15.1937 0.9609 14.2337 0.0009 12.8837 0.0009C11.4937 0.0009 10.5237 0.9609 10.5237 2.3409C10.5237 3.4709 11.3037 4.9609 12.0837 5.8809V7.9709C11.8237 8.1509 11.6337 8.4109 11.5437 8.7209L10.1537 13.5909C9.8937 14.5209 10.4437 15.3709 11.4337 15.3709H12.0837V17.7009C9.6637 18.9209 9.3637 22.2809 11.5937 23.9209ZM23.8337 13.2109C25.4737 13.2109 26.7937 11.8709 26.7937 10.2009C26.7937 8.5609 25.4737 7.2309 23.8337 7.2309C22.1637 7.2309 20.8237 8.5609 20.8237 10.2009C20.8237 11.8709 22.1637 13.2109 23.8337 13.2109ZM16.4237 15.3709C16.4737 15.3709 16.5137 15.4509 16.4637 15.4909L13.6337 16.9109V15.3709ZM16.8537 21.0009L19.6237 19.6909C19.7437 19.6309 19.8937 19.7109 19.8937 19.8509V21.0009ZM9.5737 23.6809L8.3837 27.1809H1.4237C0.6337 27.1809 0.0037 27.8109 0.0037 28.5709C0.0037 29.3709 0.6337 30.0009 1.4237 30.0009H9.3837C9.8937 30.0009 10.4137 29.6909 10.6537 29.1909L12.2337 26.0209L10.8137 24.9909C10.3037 24.6109 9.8837 24.1609 9.5737 23.6809Z"
        fillRule="evenodd"
        clipRule="evenodd"
    />
</svg>
        