<svg viewBox="0 0 27.890625 27.890625" xmlns="http://www.w3.org/2000/svg"><path d="M13.9427 27.8864C21.6427 27.8864 27.8927 21.6264 27.8927 13.9464C27.8927 6.2464 21.6427 -0.0036 13.9427 -0.0036C6.2627 -0.0036 0.0027 6.2464 0.0027 13.9464C0.0027 21.6264 6.2627 27.8864 13.9427 27.8864ZM17.2427 7.9064C16.2927 7.9064 15.5127 7.1264 15.5127 6.1764C15.5127 5.2464 16.2927 4.4864 17.2427 4.4864C18.1727 4.4864 18.9327 5.2464 18.9327 6.1764C18.9327 7.1264 18.1727 7.9064 17.2427 7.9064ZM20.9627 18.4864C20.6827 18.4864 20.4827 18.2664 20.4827 17.9964V11.3364H16.8427C16.6227 11.3364 16.4227 11.2364 16.2827 11.1064L15.0027 9.8164C14.8627 9.6764 14.6927 9.7064 14.5727 9.8164L12.7527 11.6464L14.7927 13.6964C14.9327 13.8464 15.0427 14.0564 15.0427 14.2764V18.0064C15.0427 18.2364 14.9327 18.4164 14.8027 18.5564L18.1127 21.8764C18.5627 22.3264 18.6727 22.3964 19.1927 22.3964C19.4527 22.3964 19.6727 22.6264 19.6727 22.8764C19.6727 23.1364 19.4527 23.3564 19.1927 23.3564C18.5927 23.3564 18.0327 23.1764 17.5427 22.6664L12.7827 17.8964V18.1964C12.7827 18.4064 12.6827 18.6064 12.5527 18.7264L16.0927 22.2964C16.5527 22.7464 16.6627 22.8064 17.1827 22.8064C17.4327 22.8064 17.6627 23.0364 17.6627 23.3064C17.6627 23.5564 17.4427 23.7864 17.1827 23.7864C16.5727 23.7864 16.0527 23.5964 15.5427 23.0964L7.1227 14.6664C6.9427 14.5064 6.9427 14.1864 7.1227 13.9864C7.3127 13.8064 7.6327 13.7964 7.8027 13.9864L11.1727 17.3664V16.2964L9.1327 14.2564C8.9727 14.0664 8.9527 13.7564 9.1327 13.5764C9.3227 13.3864 9.6427 13.3864 9.8127 13.5764L11.1727 14.9264V13.8464L9.7927 12.4864C9.1427 11.8564 9.1227 10.7364 9.7627 10.0864L9.8727 9.9764H4.8927C4.6227 9.9764 4.4127 9.7664 4.4127 9.5064C4.4127 9.2264 4.6227 9.0064 4.8927 9.0064H10.7727L9.5327 7.7364C9.0227 7.2364 9.2727 6.3564 10.0727 6.3564H13.0027C13.5127 6.3564 14.0127 6.5664 14.3727 6.9364L17.1627 9.7064H20.5727C21.0127 9.7064 21.4327 10.0664 21.4327 10.4864V17.9964C21.4327 18.2664 21.2227 18.4864 20.9627 18.4864ZM12.7827 16.5464L13.4127 17.1564V14.6064L12.7827 13.9764Z" /></svg>