<svg viewBox="0 0 27.890625 27.890625" xmlns="http://www.w3.org/2000/svg"><path d="M13.9427 27.8864C21.6427 27.8864 27.8927 21.6264 27.8927 13.9464C27.8927 6.2464 21.6427 -0.0036 13.9427 -0.0036C6.2627 -0.0036 0.0027 6.2464 0.0027 13.9464C0.0027 21.6264 6.2627 27.8864 13.9427 27.8864ZM17.0227 8.0764C16.0927 8.0764 15.3227 7.3164 15.3227 6.3864C15.3227 5.4564 16.0927 4.6864 17.0227 4.6864C17.9527 4.6864 18.7027 5.4564 18.7027 6.3864C18.7027 7.3164 17.9527 8.0764 17.0227 8.0764ZM5.9927 21.4464C5.6827 21.4464 5.4927 21.1864 5.4927 20.9464C5.4927 20.6864 5.7127 20.4764 5.9927 20.4764H7.8027C7.6427 20.2064 7.6427 19.8264 7.9827 19.5064L11.2827 16.4764L11.6727 14.9464C11.8127 15.1064 11.9727 15.2064 12.1927 15.3364L13.2327 15.9564L12.7927 16.9964C12.7127 17.1964 12.6627 17.2964 12.4527 17.4864L9.2427 20.4764H15.5027C15.4727 20.4364 15.4727 20.3664 15.4727 20.3064V16.3664L12.5627 14.7064C11.6927 14.2064 11.4727 13.2464 11.9527 12.3864L13.4427 9.6964L11.4527 9.7764L11.3427 12.0464C11.3327 12.3164 11.2527 12.5464 11.1127 12.6764L5.6327 18.0164C5.4427 18.2064 5.1127 18.1964 4.9327 18.0364C4.7627 17.8264 4.7727 17.5364 4.9527 17.3464L9.9227 12.4864C9.8327 12.3764 9.7727 12.2364 9.7927 12.0564L9.9827 9.0764C10.0227 8.5864 10.3627 8.3264 10.7727 8.2964L14.1227 8.1364C15.4127 8.0664 16.2527 8.6364 17.0227 9.2664L19.2927 11.1164L20.5927 9.5964C21.1827 8.9164 22.0827 9.4464 22.0227 10.0864L21.3127 19.2464C21.3027 19.5364 21.0527 19.7264 20.7927 19.7164C20.5527 19.6864 20.3427 19.4364 20.3527 19.1864L20.9427 11.5364L19.9427 12.6464C19.6227 12.9864 19.1527 13.0264 18.7827 12.7664L16.2127 10.7964L14.6127 13.5864L16.6927 15.2564C16.9627 15.4764 17.0327 15.6264 17.0327 15.8564V20.3064C17.0327 20.3664 17.0227 20.4364 17.0127 20.4764H20.4027C21.0227 20.4764 21.3827 20.3264 21.8227 20.1264C22.1227 19.9464 22.3927 20.1364 22.4927 20.3664C22.5727 20.5864 22.4927 20.8464 22.2327 20.9964C21.6727 21.2464 21.1827 21.4464 20.4027 21.4464Z" /></svg>