
<svg
    viewBox="0 0 28.239096586764514 30.37890625"
    xmlns="http://www.w3.org/2000/svg"
>
    <path
        fill="inherit"
        d="M19.2137 5.9705C20.8637 5.9705 22.1737 4.6505 22.1737 2.9805C22.1737 1.3305 20.8637 0.0005 19.2137 0.0005C17.5437 0.0005 16.2037 1.3305 16.2037 2.9805C16.2037 4.6505 17.5437 5.9705 19.2137 5.9705ZM9.8937 30.3805C10.6637 30.3805 11.3237 29.7505 11.3237 28.9705V16.1305C14.4337 15.6305 17.1437 13.5605 18.4437 10.7505C18.5537 10.4605 18.8837 10.3205 19.4237 10.5105L26.3437 12.8405C27.3037 13.1505 27.9637 12.6305 28.1637 11.9605C28.3837 11.2805 28.1337 10.4405 27.2437 10.1605L6.5237 3.2405C5.5637 2.9105 4.8937 3.4405 4.6937 4.1105C4.4737 4.8005 4.7337 5.6205 5.6237 5.9205L13.0737 8.4105C13.4137 8.5305 13.5937 8.9405 13.3737 9.3005C12.5737 10.5405 11.4037 11.2905 9.8937 11.2905H2.8337V4.2005C2.8337 3.3605 2.2737 2.7905 1.4037 2.7905C0.5637 2.7905 0.0037 3.3605 0.0037 4.2005V12.5905C0.0037 13.5205 0.4637 13.9605 1.1737 14.0805L7.4337 15.1205L8.4937 21.3005V28.9705C8.4937 29.7505 9.1237 30.3805 9.8937 30.3805Z"
        fillRule="evenodd"
        clipRule="evenodd"
    />
</svg>
        