
<svg
    viewBox="0 0 27.890625 27.890625"
    xmlns="http://www.w3.org/2000/svg"
>
    <path
        fill="inherit"
        d="M13.9427 27.8864C21.6427 27.8864 27.8927 21.6264 27.8927 13.9464C27.8927 6.2464 21.6427 -0.0036 13.9427 -0.0036C6.2627 -0.0036 0.0027 6.2464 0.0027 13.9464C0.0027 21.6264 6.2627 27.8864 13.9427 27.8864ZM6.6427 12.8064C5.7127 12.8064 4.9327 12.0464 4.9327 11.1064C4.9327 10.1764 5.7127 9.4064 6.6427 9.4064C7.5727 9.4064 8.3427 10.1764 8.3427 11.1064C8.3427 12.0464 7.5727 12.8064 6.6427 12.8064ZM11.7327 17.4964C9.9527 17.4964 8.6727 17.0364 7.8627 16.3264C7.6527 16.1864 7.5027 16.1564 7.2627 16.2664L4.7427 17.3864C4.0427 17.6864 3.3627 17.2764 3.5527 16.4864L4.3027 13.5364C4.4127 13.1264 4.8527 12.8664 5.2927 12.9564C5.7027 13.0664 6.0027 13.5064 5.8627 13.9364L5.4927 15.2964L6.7027 14.7564C7.9327 14.1864 8.7127 13.5264 9.5327 12.5364L10.6927 11.1564H9.5527C9.1027 11.1564 8.7527 10.7864 8.7527 10.3364C8.7527 9.8864 9.1227 9.5464 9.5527 9.5464H12.3727C13.0327 9.5464 13.4127 10.3264 12.9427 10.8664L10.9527 13.2664C10.8027 13.4164 10.8027 13.6064 10.8827 13.7364C11.2127 14.2864 11.8127 14.5164 12.5227 14.5164H13.8627V10.4064C13.8627 9.8664 14.2027 9.5464 14.6727 9.5464H18.7127C19.1527 9.5464 19.5127 9.8864 19.5127 10.3364C19.5127 10.7864 19.1527 11.1564 18.7127 11.1564H15.6527L16.1627 15.2264C16.3227 16.4364 15.8027 17.4964 13.9427 17.4964ZM24.2427 14.0564C24.6927 14.0564 25.0627 14.4264 25.0627 14.8764C25.0627 15.3264 24.6927 15.6864 24.2427 15.6864H20.3327L16.7727 16.4064C16.8827 16.0064 16.9027 15.5864 16.8427 15.1464L16.7527 14.3664L20.0127 14.0864C20.1127 14.0864 20.1927 14.0564 20.2527 14.0564Z"
        fillRule="evenodd"
        clipRule="evenodd"
    />
</svg>
        