<svg viewBox="0 0 28.62890625 38.5546875" xmlns="http://www.w3.org/2000/svg"><path d="M1.4037 16.8284H8.2137L12.4037 20.6284C12.5737 20.7784 12.4837 21.0384 12.2537 21.0384H7.4737C7.0637 21.0384 6.6537 21.1384 6.3737 21.4284L1.3037 26.5084C0.7537 27.0684 0.7337 27.9284 1.3037 28.4884C1.8437 29.0384 2.7337 29.0384 3.2837 28.4884L7.8337 23.9384L12.8937 24.7684V27.3284C12.8937 29.5284 14.4537 30.8884 16.4637 30.8884C17.2237 30.8884 17.9237 30.6684 18.4937 30.2684V37.7884C18.4937 38.2084 18.8237 38.5584 19.2537 38.5584C19.6837 38.5584 20.0137 38.2084 20.0137 37.7884V28.5184C20.0937 28.4684 20.1937 28.3984 20.2637 28.3284L24.4637 24.1284C24.7237 23.8684 24.8737 23.4884 24.8737 23.1284V16.8884C24.8737 15.9784 24.5837 15.2484 24.0537 14.7284L15.7337 6.4384V10.4084L19.3137 13.9884C19.5737 14.2484 19.5637 14.5284 19.3137 14.7684L15.6037 18.4984L14.4137 17.6684V0.7484C14.4137 0.3384 14.0637 -0.0016 13.6537 -0.0016C13.2437 -0.0016 12.8937 0.3384 12.8937 0.7484V16.5984L9.5537 14.2584C9.2937 14.0784 9.0937 14.0184 8.7137 14.0184H1.4037C0.6337 14.0184 0.0037 14.6384 0.0037 15.4184C0.0037 16.1884 0.6337 16.8284 1.4037 16.8284ZM25.6637 13.0884C27.3037 13.0884 28.6337 11.7584 28.6337 10.1084C28.6337 8.4584 27.3037 7.1384 25.6637 7.1384C24.0037 7.1384 22.6637 8.4584 22.6637 10.1084C22.6637 11.7584 24.0037 13.0884 25.6637 13.0884ZM21.4237 20.1484C21.6837 19.8884 22.0537 20.0384 22.0537 20.3984V22.5584L20.0137 24.5984V21.5584ZM14.4137 27.3284V24.9384C15.8437 24.9084 17.2437 24.3384 18.2837 23.2784L18.4937 23.0784V26.1084L18.2637 26.3484C17.7337 26.8884 17.7337 27.7684 18.2537 28.3184C17.9237 28.9584 17.2537 29.3684 16.4637 29.3684C15.3037 29.3684 14.4137 28.6584 14.4137 27.3284Z" /></svg>