
<svg
    viewBox="0 0 27.890625 27.890625"
    xmlns="http://www.w3.org/2000/svg"
>
    <path
        fill="inherit"
        d="M13.9427 27.8864C21.6427 27.8864 27.8927 21.6464 27.8927 13.9464C27.8927 6.2464 21.6427 -0.0036 13.9427 -0.0036C6.2527 -0.0036 0.0027 6.2464 0.0027 13.9464C0.0027 21.6464 6.2527 27.8864 13.9427 27.8864ZM13.9427 25.5664C7.5227 25.5664 2.3227 20.3664 2.3227 13.9464C2.3227 7.5164 7.5227 2.3264 13.9427 2.3264C20.3727 2.3264 25.5627 7.5164 25.5627 13.9464C25.5627 20.3664 20.3727 25.5664 13.9427 25.5664ZM14.0227 8.6264C14.9327 8.6264 15.6727 7.8864 15.6727 6.9764C15.6727 6.0864 14.9327 5.3364 14.0227 5.3364C13.1127 5.3364 12.3627 6.0864 12.3627 6.9764C12.3627 7.8864 13.1127 8.6264 14.0227 8.6264ZM8.9327 10.8464H11.3927C11.5027 10.8464 11.5827 10.9464 11.5827 11.0564L11.3327 14.2464C11.2527 15.3764 11.9327 16.0764 12.8927 16.2864L16.0527 16.9564L16.7227 20.3264C16.8127 20.7764 17.2827 21.0164 17.6327 20.9464C18.0427 20.8464 18.3327 20.4364 18.2427 20.0164L17.4727 16.1364C17.4227 15.8364 17.1627 15.6164 16.8727 15.5164L14.4327 14.7664L14.6427 11.8264C14.6727 11.5964 14.8727 11.5164 15.0527 11.6464L16.2027 12.6064C16.3427 12.7264 16.5127 12.7964 16.7027 12.7964H20.1927C20.6327 12.7964 20.9727 12.4364 20.9727 12.0164C20.9727 11.5764 20.6327 11.2364 20.1927 11.2364H16.9827L15.3027 9.8264C14.8727 9.4864 14.4927 9.2864 13.8927 9.2864H9.9827L10.8427 6.4164C10.9627 5.9864 10.7327 5.5664 10.3227 5.4364C9.9127 5.3164 9.4727 5.5664 9.3527 5.9564L8.1727 9.8464C8.0227 10.3464 8.2827 10.8464 8.9327 10.8464ZM12.2127 23.2264C12.5827 23.3264 13.0427 23.1764 13.1827 22.6964L14.3427 18.8564C14.3727 18.7464 14.3727 18.6364 14.3727 18.5164V17.2664L12.7527 16.9264C12.6627 16.9164 12.6627 16.9164 12.6327 16.8964L12.8227 18.5164L11.6927 22.2764C11.5627 22.6664 11.8127 23.1064 12.2127 23.2264Z"
        fillRule="evenodd"
        clipRule="evenodd"
    />
</svg>
        