
<svg
    viewBox={0 0 41.095954655068496 30.48828125}
    xmlns="http://www.w3.org/2000/svg"
>
    <path
        fill="inherit"
        d="M9.1842 5.8966C10.8242 5.8966 12.1442 4.5966 12.1442 2.9566C12.1442 1.3166 10.8242 -0.0034 9.1842 -0.0034C7.5442 -0.0034 6.2342 1.3166 6.2342 2.9566C6.2342 4.5966 7.5442 5.8966 9.1842 5.8966ZM31.9142 5.8966C33.5542 5.8966 34.8542 4.5966 34.8542 2.9566C34.8542 1.3166 33.5542 -0.0034 31.9142 -0.0034C30.2742 -0.0034 28.9542 1.3166 28.9542 2.9566C28.9542 4.5966 30.2742 5.8966 31.9142 5.8966ZM4.4742 30.4866C5.1142 30.4866 5.5542 30.1366 5.7842 29.2866C6.2442 27.6066 7.6342 21.8766 8.0942 20.4966C8.4042 19.5066 8.6242 19.1266 9.1842 19.1266C9.7442 19.1266 9.9642 19.5066 10.2842 20.4966C10.7442 21.8766 12.1242 27.6066 12.5942 29.2866C12.8242 30.1366 13.2642 30.4866 13.9042 30.4866C14.7842 30.4866 15.3142 29.6966 15.0642 28.8366C14.9742 28.4666 12.9842 20.1766 12.7042 18.4666C12.4742 16.9666 12.4142 13.9266 12.4142 12.4966C12.4142 12.2766 12.6642 12.1966 12.7942 12.3866L14.3442 14.5466C14.5042 13.7166 15.2842 12.8366 16.4242 12.8066L14.3042 9.7166C13.1842 8.0766 11.7842 7.3266 9.1842 7.3266C6.5942 7.3266 5.1942 8.0666 4.0742 9.7166L0.5342 14.9266C0.3942 15.1366 0.2442 15.3366 0.1342 15.5466C-0.1458 16.0666 0.0042 16.8166 0.7142 17.1866C1.2442 17.4866 1.9042 17.4066 2.2942 16.9366C2.6642 16.5066 4.5542 13.8366 5.5742 12.3866C5.7042 12.2066 5.9642 12.2766 5.9642 12.5066C5.9642 13.9466 5.8942 16.9666 5.6642 18.4666C5.3842 20.1766 3.4042 28.4666 3.3042 28.8366C3.0642 29.6966 3.5942 30.4866 4.4742 30.4866ZM27.1942 30.4866C27.8342 30.4866 28.2642 30.1366 28.5042 29.2866C28.9542 27.6066 30.3542 21.8766 30.8142 20.4966C31.1142 19.5066 31.3542 19.1266 31.9142 19.1266C32.4542 19.1266 32.6942 19.5066 33.0042 20.4966C33.4542 21.8766 34.8542 27.6066 35.3142 29.2866C35.5442 30.1366 35.9842 30.4866 36.6242 30.4866C37.5042 30.4866 38.0342 29.6966 37.7942 28.8366C37.6842 28.4666 35.6942 20.1766 35.4242 18.4666C35.1942 16.9666 35.1342 13.9466 35.1342 12.5066C35.1342 12.2766 35.3942 12.2066 35.5042 12.3866C36.5442 13.8366 38.4142 16.5066 38.7842 16.9366C39.1942 17.4066 39.8442 17.4866 40.3842 17.1866C41.0842 16.8166 41.2442 16.0666 40.9642 15.5466C40.8342 15.3366 40.7042 15.1366 40.5542 14.9266L37.0242 9.7166C35.8942 8.0666 34.5042 7.3266 31.9142 7.3266C29.3142 7.3266 27.9142 8.0766 26.7942 9.7166L24.6642 12.8066C25.8142 12.8366 26.5742 13.7166 26.7542 14.5466L28.3042 12.3866C28.4342 12.1966 28.6842 12.2766 28.6842 12.4966C28.6842 13.9266 28.6142 16.9666 28.3842 18.4666C28.1142 20.1766 26.1242 28.4666 26.0342 28.8366C25.7742 29.6966 26.3142 30.4866 27.1942 30.4866ZM20.5542 15.3366C21.7542 15.3366 22.7542 14.3566 22.7542 13.1566C22.7542 11.9466 21.7542 10.9666 20.5542 10.9666C19.3442 10.9666 18.3642 11.9466 18.3642 13.1566C18.3642 14.3566 19.3442 15.3366 20.5542 15.3366ZM17.6542 30.4866C18.1742 30.4866 18.5942 30.1866 18.7742 29.5066C19.0542 28.4766 19.8942 24.9466 20.1642 24.0866C20.3542 23.5266 20.3942 23.4866 20.5542 23.4866C20.7042 23.4866 20.7242 23.5266 20.9142 24.0866C21.1942 24.9466 22.0242 28.4766 22.3242 29.5066C22.4942 30.1866 22.9242 30.4866 23.4442 30.4866C24.2242 30.4866 24.6742 29.7666 24.4842 29.0566C24.4142 28.8166 23.2242 23.7466 23.0342 22.6766C22.9042 21.8366 22.8642 20.1266 22.8642 19.4366C22.8642 19.0466 22.9942 18.7866 23.2142 18.5166C24.2042 17.2766 25.4442 15.8766 25.5942 15.6366C25.9242 15.1666 25.8042 14.5966 25.4342 14.2166C25.0042 13.7366 24.2942 13.7566 23.9242 14.1366L22.4742 15.6766C21.8742 16.3266 21.3742 16.6266 20.5542 16.6266C19.7242 16.6266 19.2242 16.3266 18.6242 15.6766L17.1742 14.1366C16.8042 13.7566 16.0742 13.7366 15.6642 14.2166C15.2842 14.5966 15.1742 15.1666 15.4942 15.6366C15.6442 15.8766 16.8942 17.2766 17.8842 18.5166C18.1042 18.7866 18.2242 19.0466 18.2242 19.4366C18.2242 20.1266 18.1942 21.8366 18.0642 22.6766C17.8742 23.7466 16.6842 28.8166 16.5942 29.0566C16.4242 29.7666 16.8742 30.4866 17.6542 30.4866Z"
        fillRule="evenodd"
        clipRule="evenodd"
    />
</svg>
        