<svg viewBox="0 0 31.103515625 29.770773878954756" xmlns="http://www.w3.org/2000/svg"><path d="M17.2937 5.9755C18.9337 5.9755 20.2737 4.6255 20.2737 2.9755C20.2737 1.3355 18.9337 -0.0045 17.2937 -0.0045C15.6537 -0.0045 14.3037 1.3355 14.3037 2.9755C14.3037 4.6255 15.6537 5.9755 17.2937 5.9755ZM21.1337 29.6655C21.7237 29.4355 22.1737 28.8355 21.9437 27.9955L19.8837 20.7955C19.7737 20.4555 19.5737 20.1755 19.2537 19.9855L14.9437 17.4555L16.9937 11.3755C17.1437 10.9055 17.6337 10.8555 17.9737 11.1955L21.0237 14.2355C21.3037 14.4955 21.6337 14.6455 21.9837 14.6455C22.3537 14.6455 22.6937 14.5155 22.9737 14.2355L27.0837 10.1055C27.6037 9.5555 27.6437 8.7255 27.0837 8.1755C26.5537 7.6455 25.6937 7.6255 25.1437 8.1755L21.9837 11.3355L19.3437 8.5955C18.1337 7.3455 16.8337 7.0855 14.3037 7.0855H3.2637V6.0255C4.3637 5.4455 5.1537 4.1655 5.1537 3.0755C5.1537 1.6255 4.0237 0.4755 2.5837 0.4755C1.1437 0.4755 0.0037 1.6255 0.0037 3.0755C0.0037 4.1655 0.7937 5.4455 1.8837 6.0255V7.0855H1.3837C0.6337 7.0855 0.0037 7.6955 0.0037 8.4655C0.0037 9.2155 0.6337 9.8255 1.3837 9.8255H10.9737C11.3737 9.8255 11.7437 10.1555 11.5537 10.7055L9.9537 15.5055C9.3937 17.1955 10.1837 19.0155 11.8237 19.7255L17.3937 22.1755L19.3037 28.7155C19.5737 29.6855 20.4537 29.9155 21.1337 29.6655ZM22.6637 17.7155H31.1037V16.2055H22.6637C22.2437 16.2055 21.9137 16.5255 21.9137 16.9555C21.9137 17.3755 22.2437 17.7155 22.6637 17.7155ZM3.6937 29.1855C4.0437 29.7055 4.7437 29.9855 5.5137 29.5755L11.6437 26.1655C11.9537 26.0055 12.1637 25.7355 12.2937 25.3755L13.4637 21.8855L11.3037 20.9455C11.0437 20.8255 10.8037 20.6955 10.5537 20.5355L9.8037 24.0355L4.1837 27.1755C3.3037 27.6855 3.2837 28.6055 3.6937 29.1855Z" /></svg>