
<svg
    viewBox="0 0 27.890625 27.890625"
    xmlns="http://www.w3.org/2000/svg"
>
    <path
        fill="inherit"
        d="M13.9427 27.8864C21.6427 27.8864 27.8927 21.6264 27.8927 13.9464C27.8927 6.2464 21.6427 -0.0036 13.9427 -0.0036C6.2627 -0.0036 0.0027 6.2464 0.0027 13.9464C0.0027 21.6264 6.2627 27.8864 13.9427 27.8864ZM16.3427 9.3664C15.3927 9.3664 14.6327 8.5964 14.6327 7.6664C14.6327 6.7364 15.3927 5.9864 16.3427 5.9864C17.2627 5.9864 18.0227 6.7364 18.0227 7.6664C18.0227 8.5964 17.2627 9.3664 16.3427 9.3664ZM6.6327 12.4964C6.3327 12.1864 6.3127 11.6764 6.6327 11.3564L9.0127 8.9864C9.1427 8.8164 9.3627 8.7464 9.5827 8.7464H13.0527C13.6027 8.7464 14.0927 8.9664 14.4527 9.3264L19.9727 14.8464C20.2927 15.1664 20.2727 15.6364 19.9727 15.9664C19.6627 16.2864 19.1527 16.2864 18.8527 15.9664L14.8227 11.9364C14.6427 11.7764 14.4327 11.7864 14.2827 11.9364L12.6327 13.5464L15.2727 13.9364C15.7327 13.9964 16.0127 14.4364 15.9427 14.8464L15.1327 19.2264C14.9427 20.2764 13.3527 20.0264 13.5627 18.9764L14.1927 15.5164H10.4227C8.7727 15.5164 8.2327 13.7364 9.2727 12.6964L11.4327 10.5664C11.5227 10.4864 11.4527 10.3364 11.3027 10.3364H9.9127L7.7627 12.4964C7.4527 12.7964 6.9427 12.7964 6.6327 12.4964ZM5.3727 19.0864C5.3727 18.6664 5.7327 18.3064 6.1827 18.3064H8.8427L9.0527 15.8064C9.4027 16.0364 9.8727 16.1864 10.4227 16.1864H10.9227L10.3627 19.1864C10.2827 19.5764 9.9827 19.8764 9.5827 19.8764H6.1827C5.7327 19.8764 5.3727 19.5264 5.3727 19.0864ZM18.7827 18.9064C18.7827 18.3764 19.2127 17.9364 19.7527 17.9364H21.3927V17.6664C21.3927 17.4164 21.2027 17.2564 20.9827 17.2564H20.1527C19.9427 17.2564 19.7927 17.0864 19.7927 16.8864C19.7927 16.6764 19.9427 16.5164 20.1527 16.5164H20.9827C21.6027 16.5164 22.1027 17.0264 22.1027 17.6664V17.9364H22.1327C22.6727 17.9364 23.1027 18.3764 23.1027 18.9064C23.1027 19.4364 22.6727 19.8764 22.1327 19.8764H19.7527C19.2127 19.8764 18.7827 19.4364 18.7827 18.9064Z"
        fillRule="evenodd"
        clipRule="evenodd"
    />
</svg>
        