
<svg
    viewBox={0 0 27.890625 27.890625}
    xmlns="http://www.w3.org/2000/svg"
>
    <path
        fill="inherit"
        d="M13.9427 27.8864C21.6427 27.8864 27.8927 21.6464 27.8927 13.9464C27.8927 6.2464 21.6427 -0.0036 13.9427 -0.0036C6.2527 -0.0036 0.0027 6.2464 0.0027 13.9464C0.0027 21.6464 6.2527 27.8864 13.9427 27.8864ZM13.9427 25.5664C7.5227 25.5664 2.3227 20.3664 2.3227 13.9464C2.3227 7.5164 7.5227 2.3264 13.9427 2.3264C20.3727 2.3264 25.5627 7.5164 25.5627 13.9464C25.5627 20.3664 20.3727 25.5664 13.9427 25.5664ZM14.5627 23.6364L18.0227 21.3464C18.3727 21.1064 18.5427 20.7364 18.4327 20.3464L16.3227 11.9364C16.2527 11.6464 16.3227 11.4864 16.5327 11.4064L21.3927 8.9664C21.8027 8.7664 21.9427 8.2864 21.7527 7.8864C21.5427 7.5064 21.0827 7.3564 20.6827 7.5464L9.9427 12.9364L8.1227 11.1064C8.0427 11.0164 7.9527 10.9464 7.8427 10.8864L9.4927 7.9964C9.5927 8.0264 9.7027 8.0364 9.8327 8.0364C10.7327 8.0364 11.4727 7.2964 11.4727 6.3864C11.4727 5.4664 10.7327 4.7464 9.8327 4.7464C8.9027 4.7464 8.1627 5.4664 8.1627 6.3864C8.1627 6.8764 8.3827 7.3164 8.7227 7.6164L6.7027 11.1664C6.5227 11.4664 6.5727 11.8164 6.8327 12.0764L9.2127 14.4364C9.4227 14.6564 9.8027 14.7664 10.1827 14.5564L12.8827 13.2164C13.0727 13.1264 13.2527 13.2064 13.2727 13.3664L14.0927 16.6064L12.7827 19.8264H9.7727C9.3427 19.8264 8.9827 20.1664 8.9827 20.6164C8.9827 21.0564 9.3427 21.4064 9.7727 21.4064H13.2927C13.5927 21.4064 13.8727 21.2764 14.0227 20.9864L15.6427 18.0364C15.6927 17.9264 15.8227 17.9264 15.8727 18.0464L16.7327 20.3064L13.6727 22.3264C13.3327 22.5564 13.2227 23.0664 13.4627 23.4364C13.7027 23.7864 14.1827 23.8864 14.5627 23.6364ZM9.8327 7.1864C9.3627 7.1864 9.0227 6.8464 9.0227 6.3864C9.0227 5.9364 9.3627 5.5964 9.8327 5.5964C10.2927 5.5964 10.6227 5.9364 10.6227 6.3864C10.6227 6.8464 10.2927 7.1864 9.8327 7.1864ZM13.7527 9.9364C14.6727 9.9364 15.3927 9.2164 15.3927 8.3164C15.3927 7.3964 14.6727 6.6564 13.7527 6.6564C12.8427 6.6564 12.1127 7.3964 12.1127 8.3164C12.1127 9.2164 12.8427 9.9364 13.7527 9.9364Z"
        fillRule="evenodd"
        clipRule="evenodd"
    />
</svg>
        