
<svg
    viewBox={0 0 27.890625 27.890625}
    xmlns="http://www.w3.org/2000/svg"
>
    <path
        fill="inherit"
        d="M13.9427 27.8864C21.6427 27.8864 27.8927 21.6264 27.8927 13.9464C27.8927 6.2464 21.6427 -0.0036 13.9427 -0.0036C6.2627 -0.0036 0.0027 6.2464 0.0027 13.9464C0.0027 21.6264 6.2627 27.8864 13.9427 27.8864ZM13.9227 8.2964C13.0027 8.2964 12.2527 7.5464 12.2527 6.6164C12.2527 5.6964 13.0027 4.9664 13.9227 4.9664C14.8227 4.9664 15.5727 5.6964 15.5727 6.6164C15.5727 7.5464 14.8227 8.2964 13.9227 8.2964ZM13.9227 15.4264L12.0627 18.3764L10.6527 22.2464C10.4827 22.6564 10.0627 22.7864 9.7327 22.6664C9.3527 22.5464 9.1627 22.1064 9.2927 21.7564L10.7227 17.8564L12.1227 13.9764V10.4764C12.1227 10.3064 12.0327 10.1564 11.8827 10.0864L7.1227 7.5464C6.7627 7.3464 6.6427 6.9364 6.8327 6.5764C7.0127 6.2064 7.4527 6.0864 7.7827 6.2664L12.4027 8.7264C12.9227 8.9864 13.4227 9.1064 13.9227 9.1064C14.4227 9.1064 14.9327 8.9864 15.4327 8.7264L20.0527 6.2664C20.3827 6.0864 20.8227 6.2064 21.0127 6.5764C21.2027 6.9364 21.0827 7.3464 20.7127 7.5464L15.9527 10.0864C15.8027 10.1564 15.7227 10.3064 15.7227 10.4764V13.9764L17.1127 17.8564L18.5427 21.7564C18.6927 22.1064 18.4827 22.5464 18.1127 22.6664C17.7727 22.7864 17.3627 22.6564 17.1827 22.2464L15.7927 18.3764Z"
        fillRule="evenodd"
        clipRule="evenodd"
    />
</svg>
        