
<svg
    viewBox="0 0 41.44481504273915 27.48891105007346"
    xmlns="http://www.w3.org/2000/svg"
>
    <path
        fill="inherit"
        d="M7.949 6.0987C9.599 6.0987 10.959 4.6887 10.959 3.0587C10.959 1.3787 9.599 -0.0013 7.949 -0.0013C6.239 -0.0013 4.909 1.3787 4.909 3.0587C4.909 4.7187 6.239 6.0987 7.949 6.0987ZM28.129 5.0587H33.529C33.939 5.0587 34.019 4.6187 33.709 4.3987L31.259 2.7387C30.969 2.5587 30.689 2.5587 30.409 2.7387L27.969 4.3987C27.649 4.6187 27.719 5.0587 28.129 5.0587ZM12.559 8.6787L15.139 5.7987C15.579 5.2887 15.549 4.7287 15.109 4.3787C14.699 4.0087 14.169 3.9887 13.689 4.5287L10.789 7.7787C11.419 8.0287 12.019 8.3387 12.559 8.6787ZM20.249 8.7487V12.0587C20.249 13.0187 20.969 13.7287 21.909 13.7287H24.529C25.479 13.7287 26.189 13.0187 26.189 12.0587V8.7487C26.189 7.7887 25.479 7.0787 24.529 7.0787H21.909C20.969 7.0787 20.249 7.7887 20.249 8.7487ZM27.879 8.7487V12.0587C27.879 13.0187 28.589 13.7287 29.549 13.7287H32.159C33.119 13.7287 33.799 13.0187 33.799 12.0587V8.7487C33.799 7.7887 33.119 7.0787 32.159 7.0787H29.549C28.589 7.0787 27.879 7.7887 27.879 8.7487ZM35.499 8.7487V12.0587C35.499 13.0187 36.209 13.7287 37.169 13.7287H39.779C40.729 13.7287 41.449 13.0187 41.449 12.0587V8.7487C41.449 7.7887 40.729 7.0787 39.779 7.0787H37.169C36.209 7.0787 35.499 7.7887 35.499 8.7487ZM2.109 17.4087L10.789 7.7787C9.929 7.4487 8.999 7.3187 7.949 7.3187C4.029 7.3187 1.719 9.1987 1.719 12.3587C1.719 13.1287 1.739 14.1387 1.869 15.1787ZM13.759 17.4087L14.009 15.1787C14.129 14.1387 14.169 13.1287 14.169 12.3587C14.169 10.7987 13.609 9.5387 12.559 8.6987L5.669 16.3487C6.429 16.2287 7.179 16.1787 7.949 16.1787C9.859 16.1787 11.789 16.4287 13.759 17.4087ZM23.189 11.8287C22.409 11.8287 21.759 11.1787 21.759 10.3887C21.759 9.6287 22.409 8.9987 23.189 8.9987C23.959 8.9987 24.599 9.6287 24.599 10.3887C24.599 11.1787 23.959 11.8287 23.189 11.8287ZM30.809 11.8287C30.029 11.8287 29.369 11.1787 29.369 10.3887C29.369 9.6287 30.029 8.9987 30.809 8.9987C31.569 8.9987 32.229 9.6287 32.229 10.3887C32.229 11.1787 31.569 11.8287 30.809 11.8287ZM38.439 11.8287C37.659 11.8287 36.989 11.1787 36.989 10.3887C36.989 9.6287 37.659 8.9987 38.439 8.9987C39.189 8.9987 39.849 9.6287 39.849 10.3887C39.849 11.1787 39.189 11.8287 38.439 11.8287ZM20.249 18.4687V21.7887C20.249 22.7487 20.969 23.4587 21.909 23.4587H24.529C25.479 23.4587 26.189 22.7487 26.189 21.7887V18.4687C26.189 17.5087 25.479 16.8187 24.529 16.8187H21.909C20.969 16.8187 20.249 17.5087 20.249 18.4687ZM27.879 18.4687V21.7887C27.879 22.7487 28.589 23.4587 29.549 23.4587H32.159C33.119 23.4587 33.799 22.7487 33.799 21.7887V18.4687C33.799 17.5087 33.119 16.8187 32.159 16.8187H29.549C28.589 16.8187 27.879 17.5087 27.879 18.4687ZM35.499 18.4687V21.7887C35.499 22.7487 36.209 23.4587 37.169 23.4587H39.779C40.729 23.4587 41.449 22.7487 41.449 21.7887V18.4687C41.449 17.5087 40.729 16.8187 39.779 16.8187H37.169C36.209 16.8187 35.499 17.5087 35.499 18.4687ZM0.429 18.4187C-0.081 18.7687 -0.091 19.3487 0.159 19.7187C0.379 20.1087 0.879 20.2987 1.399 19.9887C1.729 19.7787 2.019 19.6087 2.339 19.4287L2.109 17.4087C1.499 17.6787 0.949 17.9887 0.429 18.4187ZM4.589 27.4787C5.379 27.3687 5.939 26.7987 5.819 25.7987L5.269 20.7587H10.589L10.059 25.7987C9.959 26.7987 10.479 27.3687 11.269 27.4787C12.089 27.5587 12.719 27.0387 12.829 26.0887L13.539 19.4287C13.859 19.6087 14.139 19.7787 14.459 19.9887C14.979 20.2987 15.469 20.1287 15.699 19.7387C15.949 19.3587 15.949 18.7887 15.459 18.4187C14.919 17.9887 14.379 17.6787 13.759 17.4087L13.529 19.4187C11.759 18.3987 9.819 18.0087 7.949 18.0087C6.049 18.0087 4.089 18.3987 2.339 19.4287L3.039 26.0887C3.139 27.0387 3.769 27.5587 4.589 27.4787ZM23.189 21.5487C22.409 21.5487 21.759 20.9087 21.759 20.1087C21.759 19.3487 22.409 18.6987 23.189 18.6987C23.959 18.6987 24.599 19.3487 24.599 20.1087C24.599 20.9087 23.959 21.5487 23.189 21.5487ZM30.809 21.5487C30.029 21.5487 29.369 20.9087 29.369 20.1087C29.369 19.3487 30.029 18.6987 30.809 18.6987C31.569 18.6987 32.229 19.3487 32.229 20.1087C32.229 20.9087 31.569 21.5487 30.809 21.5487ZM38.439 21.5487C37.659 21.5487 36.989 20.9087 36.989 20.1087C36.989 19.3487 37.659 18.6987 38.439 18.6987C39.189 18.6987 39.849 19.3487 39.849 20.1087C39.849 20.9087 39.189 21.5487 38.439 21.5487Z"
        fillRule="evenodd"
        clipRule="evenodd"
    />
</svg>
        