<svg viewBox="0 0 27.890625 27.890625" xmlns="http://www.w3.org/2000/svg"><path d="M13.9437 27.8864C21.6437 27.8864 27.8937 21.6464 27.8937 13.9464C27.8937 6.2464 21.6437 -0.0036 13.9437 -0.0036C6.2437 -0.0036 0.0037 6.2464 0.0037 13.9464C0.0037 21.6464 6.2437 27.8864 13.9437 27.8864ZM13.9437 25.5664C7.5237 25.5664 2.3237 20.3664 2.3237 13.9464C2.3237 7.5164 7.5237 2.3264 13.9437 2.3264C20.3737 2.3264 25.5637 7.5164 25.5637 13.9464C25.5637 20.3664 20.3737 25.5664 13.9437 25.5664ZM14.9937 8.1864C15.9137 8.1864 16.6537 7.4464 16.6537 6.5364C16.6537 5.6164 15.9137 4.8964 14.9937 4.8964C14.0837 4.8964 13.3437 5.6164 13.3437 6.5364C13.3437 7.4464 14.0837 8.1864 14.9937 8.1864ZM13.6437 15.8064V18.8564C13.6437 19.1564 13.8237 19.3064 14.1337 19.3064H16.2037C16.7437 19.3064 16.7637 18.5564 16.2937 18.4064L15.1637 18.0364V15.1064C15.1637 14.7964 14.9537 14.5164 14.6537 14.3864L12.5737 13.4264L13.1537 12.2864L16.1637 15.0764V15.1064C16.1637 15.5264 16.4837 15.8564 16.9137 15.8564C16.9437 15.8564 16.9637 15.8564 16.9937 15.8464L20.1937 18.8164C20.3337 18.9464 20.4237 18.9764 20.5737 18.9764H22.8337C23.0537 18.9764 23.2537 18.7764 23.2537 18.5564V18.1664C23.2537 17.9464 23.0537 17.7464 22.8337 17.7464H20.3337L17.6537 15.2764C17.6537 15.2264 17.6637 15.1664 17.6637 15.1064V11.8164C17.6637 11.5364 17.5937 11.4064 17.3237 11.2064L14.0837 8.7664C13.3837 8.2564 12.5237 8.1164 11.7137 8.4464L9.3237 9.4364C8.6137 9.7164 8.7237 10.4964 9.3137 10.8164L10.2037 11.2964L9.7037 12.2764C9.0337 13.6064 9.5437 14.7764 10.9237 15.1164ZM13.7937 11.0364C13.8537 10.9064 13.9837 10.8564 14.1137 10.9364L16.1637 12.2664V13.9164L13.5337 11.5264ZM9.6837 15.3164L9.3137 16.3964H6.7237C6.4237 16.3964 6.2737 16.5664 6.2737 16.8664V18.9464C6.2737 19.4864 7.0237 19.4864 7.1737 19.0264L7.5337 17.9064H9.8837C10.1837 17.9064 10.4137 17.7164 10.5437 17.4864L11.3237 15.9564L10.7637 15.8064C10.3337 15.6964 9.9537 15.5164 9.6837 15.3164ZM5.0837 16.5864V19.5364C5.0837 19.7264 5.2337 19.8764 5.4137 19.8764C5.5937 19.8764 5.7537 19.7264 5.7537 19.5364V16.5864C5.7537 16.4064 5.5937 16.2564 5.4137 16.2564C5.2337 16.2564 5.0837 16.4064 5.0837 16.5864ZM18.4037 21.0264C18.4037 21.3564 18.9337 21.6064 19.6237 21.6064C20.2937 21.6064 20.8337 21.3564 20.8337 21.0264V20.3864C20.8337 20.0664 20.2937 19.8264 19.6237 19.8264C18.9337 19.8264 18.4037 20.0664 18.4037 20.3864ZM13.8337 20.4964H16.7937C16.9837 20.4964 17.1337 20.3464 17.1337 20.1564C17.1337 19.9864 16.9937 19.8264 16.7937 19.8264H13.8337C13.6537 19.8264 13.5037 19.9864 13.5037 20.1564C13.5037 20.3464 13.6537 20.4964 13.8337 20.4964Z" /></svg>