<svg viewBox="0 0 27.890625 27.890625" xmlns="http://www.w3.org/2000/svg"><path d="M13.9427 27.8864C21.6427 27.8864 27.8927 21.6464 27.8927 13.9464C27.8927 6.2464 21.6427 -0.0036 13.9427 -0.0036C6.2527 -0.0036 0.0027 6.2464 0.0027 13.9464C0.0027 21.6464 6.2527 27.8864 13.9427 27.8864ZM13.9427 25.5664C7.5227 25.5664 2.3227 20.3664 2.3227 13.9464C2.3227 7.5164 7.5227 2.3264 13.9427 2.3264C20.3727 2.3264 25.5627 7.5164 25.5627 13.9464C25.5627 20.3664 20.3727 25.5664 13.9427 25.5664ZM15.3527 10.0264C16.2527 10.0264 16.9927 9.2964 16.9927 8.3664C16.9927 7.4664 16.2527 6.7264 15.3527 6.7264C14.4227 6.7264 13.6827 7.4664 13.6827 8.3664C13.6827 9.2964 14.4227 10.0264 15.3527 10.0264ZM16.5327 15.2164C16.9627 15.2164 17.3227 14.8564 17.3227 14.4264C17.3227 13.9964 16.9627 13.6464 16.5327 13.6464H13.7627V10.7964C13.7627 9.8564 12.9627 9.2564 12.0827 9.4364L7.4227 10.4064C5.7427 10.7464 5.2727 12.7564 6.4927 13.8264L9.4027 16.3764V20.3664C9.4027 20.8064 9.7627 21.1664 10.2027 21.1664C10.6227 21.1664 10.9927 20.8064 10.9927 20.3664V16.0764C10.9927 15.7864 10.9227 15.6564 10.7427 15.4464L8.5127 13.2064C8.3927 13.0864 8.4627 12.8964 8.6027 12.8764L11.7427 12.2864C12.0627 12.2364 12.1827 12.3364 12.1827 12.6164V14.4264C12.1827 14.8564 12.5227 15.2164 12.9627 15.2164ZM20.7927 18.2664H21.8927C22.3027 18.2664 22.5827 17.9964 22.5827 17.5964V10.8164C22.5827 10.4364 22.3027 10.1464 21.9127 10.1464H20.7527C17.9927 10.1464 16.3427 10.8864 14.5627 12.9764H15.9327C17.2827 11.6364 18.6527 11.1464 20.7527 11.1464H21.5927V17.2764H20.7927C20.5227 17.2764 20.3427 17.1564 20.2527 16.9364L19.5527 15.5564C19.4327 15.3164 19.1527 15.2564 18.9627 15.3164C18.7027 15.4064 18.5027 15.6864 18.6527 16.0064L19.3427 17.3864C19.6227 17.9264 20.1827 18.2664 20.7927 18.2664ZM11.6527 17.9264C12.4827 17.3664 13.0927 16.6264 13.6727 15.8764H12.9727C12.8127 15.8764 12.6327 15.8364 12.4727 15.7764C12.2127 16.1064 11.9327 16.3664 11.6527 16.6364ZM6.2327 19.0764H7.5427C7.9727 19.0764 8.3827 19.0464 8.7527 18.9764V17.9764C8.3827 18.0464 7.9827 18.0864 7.5427 18.0864H6.2327C5.9627 18.0864 5.7427 18.3064 5.7427 18.5764C5.7427 18.8364 5.9727 19.0764 6.2327 19.0764Z" /></svg>