
<svg
    viewBox="0 0 40.26342940203161 27.498417050184447"
    xmlns="http://www.w3.org/2000/svg"
>
    <path
        fill="inherit"
        d="M3.6937 7.4244C5.7537 7.4244 7.4137 5.7744 7.4137 3.7344C7.4137 1.6644 5.7537 0.0044 3.6937 0.0044C1.6437 0.0044 0.0037 1.6644 0.0037 3.7344C0.0037 5.7144 1.6437 7.4244 3.6937 7.4244ZM28.8037 11.9244C29.2737 12.4944 30.1337 11.8644 29.6837 11.2744C29.3637 10.8444 29.2837 10.6344 29.2837 10.2844C29.2837 9.7344 29.6837 9.4244 29.9837 8.9844C30.6937 8.7044 31.5237 8.5344 32.2537 8.4944C32.3737 8.3144 32.4537 8.1344 32.4537 7.9144C32.4537 7.1544 31.4337 6.8344 31.4337 5.5144C31.4337 4.9644 31.6137 4.4444 32.0237 3.8944C32.4937 3.3244 33.3737 3.9344 32.9037 4.5344C32.5937 4.9644 32.5137 5.1944 32.5137 5.5144C32.5137 6.4444 33.5537 6.6944 33.5537 7.9144C33.5537 8.1744 33.5137 8.3844 33.4237 8.5744C34.0037 8.6544 34.5737 8.8144 35.0837 9.0244C34.8637 9.3344 34.6537 9.7244 34.6537 10.2844C34.6537 10.8444 34.8337 11.3644 35.2737 11.9244C35.7337 12.4944 36.5837 11.8644 36.1337 11.2744C35.8437 10.8444 35.7537 10.6344 35.7537 10.2844C35.7537 9.7244 36.1637 9.4044 36.4637 8.9444L40.0337 4.4044C40.3837 3.9244 40.3337 3.4444 39.8837 3.0944C38.3637 1.9244 35.5037 1.0344 32.4737 1.0344C29.4737 1.0344 26.5937 1.9244 25.0837 3.0944C24.6337 3.4444 24.5837 3.9244 24.9537 4.4044L28.6037 9.0644C28.3837 9.3644 28.2037 9.7444 28.2037 10.2844C28.2037 10.8444 28.3837 11.3644 28.8037 11.9244ZM23.7937 5.6844C23.7937 5.1444 23.3337 4.7044 22.7637 4.7044H17.4437V2.4744C17.4437 1.4644 16.4237 1.1044 15.7237 1.7344L12.0537 4.9744C11.5637 5.4144 11.5637 6.0044 12.0537 6.4544L15.7237 9.6944C16.4437 10.3544 17.4437 9.9144 17.4437 8.9444V6.7144H22.7637C23.3337 6.7144 23.7937 6.2644 23.7937 5.6844ZM28.6537 9.1444L28.6037 9.0644C28.8937 8.6444 29.2437 8.3544 29.2437 7.9144C29.2437 7.1544 28.2037 6.8344 28.2037 5.5144C28.2037 4.9644 28.3837 4.4444 28.8037 3.8944C29.2837 3.3244 30.1437 3.9344 29.6837 4.5344C29.3637 4.9644 29.2837 5.1944 29.2837 5.5144C29.2837 6.4444 30.3237 6.6944 30.3237 7.9144C30.3237 8.3844 30.1737 8.7044 29.9837 8.9844C29.7537 9.0644 29.5137 9.1744 29.3237 9.2744C29.0837 9.4044 28.8337 9.3644 28.6537 9.1444ZM35.6337 9.2744C35.4637 9.1844 35.2737 9.1044 35.0837 9.0244C35.3737 8.6244 35.6937 8.3444 35.6937 7.9144C35.6937 7.1544 34.6537 6.8344 34.6537 5.5144C34.6537 4.9644 34.8337 4.4444 35.2737 3.8944C35.7337 3.3244 36.6037 3.9344 36.1337 4.5344C35.8437 4.9644 35.7537 5.1944 35.7537 5.5144C35.7537 6.4444 36.7737 6.6944 36.7737 7.9144C36.7737 8.3544 36.6437 8.6844 36.4637 8.9444L36.3037 9.1444C36.1437 9.3644 35.8737 9.4044 35.6337 9.2744ZM32.0237 11.9244C32.4837 12.4944 33.3637 11.8644 32.9037 11.2744C32.5937 10.8444 32.5137 10.6344 32.5137 10.2844C32.5137 9.5844 33.1537 9.2544 33.4237 8.5744C33.1037 8.5144 32.7737 8.4944 32.4737 8.4944C32.4037 8.4944 32.3237 8.4944 32.2537 8.4944C31.9537 8.9444 31.4337 9.3644 31.4337 10.2844C31.4337 10.8444 31.6137 11.3644 32.0237 11.9244ZM25.7137 26.9844C26.3637 26.3344 26.4437 25.2344 25.5937 24.3644L19.4837 18.0444C18.1937 16.7044 16.8437 16.5144 15.2337 17.1044L11.9737 18.2944L8.1337 11.3044C6.9737 9.1644 4.9737 8.3644 3.0337 9.4244C1.0537 10.4844 0.6837 12.6444 1.8337 14.7344L4.7837 20.1144C6.0837 22.4644 8.8637 23.4344 11.8137 22.2944L16.4037 20.5644C16.7037 20.4444 16.8437 20.4944 17.0337 20.6944L22.9237 26.7744C23.7937 27.6744 25.0037 27.7244 25.7137 26.9844Z"
        fillRule="evenodd"
        clipRule="evenodd"
    />
</svg>
        