
<svg
    viewBox="0 0 27.890625 27.890625"
    xmlns="http://www.w3.org/2000/svg"
>
    <path
        fill="inherit"
        d="M13.9427 27.8864C21.6427 27.8864 27.8927 21.6264 27.8927 13.9464C27.8927 6.2464 21.6427 -0.0036 13.9427 -0.0036C6.2627 -0.0036 0.0027 6.2464 0.0027 13.9464C0.0027 21.6264 6.2627 27.8864 13.9427 27.8864ZM16.0527 9.1364C15.1227 9.1364 14.3727 8.3564 14.3727 7.4264C14.3727 6.5064 15.1227 5.7264 16.0527 5.7264C16.9927 5.7264 17.7627 6.5064 17.7627 7.4264C17.7627 8.3564 16.9927 9.1364 16.0527 9.1364ZM6.3727 10.5564C6.3727 10.1164 6.7227 9.7664 7.1627 9.7664H7.3827V9.1364C6.7827 8.7864 6.3727 8.0964 6.3727 7.4764C6.3727 6.6464 7.0127 6.0064 7.8227 6.0064C8.6527 6.0064 9.2927 6.6464 9.2927 7.4764C9.2927 8.0764 8.8727 8.7764 8.2727 9.1364V9.7664H14.3727C15.8227 9.7664 16.5427 9.8964 17.2227 10.6264L18.7327 12.1964L20.5327 10.3864C20.8627 10.0764 21.3327 10.0864 21.6427 10.3864C21.9527 10.6864 21.9427 11.1664 21.6427 11.4864L19.3027 13.8264C19.1427 13.9964 18.9327 14.0664 18.7327 14.0664C18.5227 14.0664 18.3327 13.9864 18.1827 13.8264L16.4627 12.0964C16.2727 11.9064 15.9727 11.9364 15.8827 12.2064L14.7227 15.6664L17.1827 17.1064C17.3627 17.2264 17.4827 17.3664 17.5427 17.5564L18.7027 21.6664C18.8427 22.1364 18.5827 22.4764 18.2427 22.6264C17.8527 22.7664 17.3727 22.6264 17.2127 22.0964L16.1027 18.3464L12.9427 16.9564C12.0127 16.5464 11.5427 15.5264 11.8827 14.5464L12.7927 11.8264C12.9027 11.5164 12.7027 11.3364 12.4527 11.3364H7.1627C6.7227 11.3364 6.3727 10.9764 6.3727 10.5564ZM18.6327 15.3764C18.6327 15.1164 18.8627 14.9064 19.1127 14.9064H23.6927V15.8764H19.1127C18.8627 15.8764 18.6327 15.6364 18.6327 15.3764ZM8.3127 22.3364C8.0827 21.9964 8.1027 21.4664 8.6027 21.2064L11.8027 19.4264L12.2527 17.3464C12.2727 17.3864 12.4027 17.4564 12.6827 17.5964L13.9027 18.1264L13.2227 20.1664C13.1527 20.3864 13.0327 20.5364 12.8427 20.6164L9.3527 22.5764C8.9127 22.8064 8.5327 22.6364 8.3127 22.3364Z"
        fillRule="evenodd"
        clipRule="evenodd"
    />
</svg>
        