
<svg
    viewBox={0 0 27.890625 27.890625}
    xmlns="http://www.w3.org/2000/svg"
>
    <path
        fill="inherit"
        d="M13.9427 27.8864C21.6427 27.8864 27.8927 21.6264 27.8927 13.9464C27.8927 6.2464 21.6427 -0.0036 13.9427 -0.0036C6.2627 -0.0036 0.0027 6.2464 0.0027 13.9464C0.0027 21.6264 6.2627 27.8864 13.9427 27.8864ZM8.0827 22.3764C8.0827 21.9264 8.4227 21.5764 8.8727 21.5764H11.8527L12.5527 14.0364C12.6027 13.4564 12.8427 12.9764 13.2327 12.5664L16.6927 9.1164L16.2427 8.7064C15.9927 8.9364 15.6927 8.9664 15.4527 8.7664L11.3327 5.0264C11.0727 4.8164 11.0727 4.4864 11.2927 4.2364L11.6927 3.7864C11.9127 3.5264 12.2527 3.5164 12.5127 3.7364L16.6427 7.4664C16.8827 7.6664 16.9227 7.9964 16.6927 8.2564L17.1427 8.6564L17.6527 8.1664C17.8827 7.9264 18.2127 7.8864 18.5127 7.9964C18.8227 8.1064 19.0127 8.4064 19.0127 8.7464V13.1364C19.0127 13.5764 18.6527 13.9564 18.2127 13.9564H15.9527C15.8327 13.9564 15.7327 14.0364 15.7227 14.1764L15.4727 16.8564L18.2927 17.1564C18.7427 17.2164 19.0827 17.5864 18.9727 18.1864L18.1927 22.5164C18.1127 23.0364 17.6927 23.2164 17.2927 23.1864C16.8827 23.1464 16.5427 22.7864 16.6227 22.2264L17.2427 18.7564H14.0727L13.3827 22.5164C13.3027 22.9364 13.0827 23.1864 12.5927 23.1864H8.8727C8.4227 23.1864 8.0827 22.8164 8.0827 22.3764ZM12.5927 11.3564C11.6527 11.3564 10.8927 10.6064 10.8927 9.6564C10.8927 8.7264 11.6527 7.9664 12.5927 7.9664C13.5227 7.9664 14.2827 8.7264 14.2827 9.6564C14.2827 10.6064 13.5227 11.3564 12.5927 11.3564ZM15.7327 12.3464H17.4227V10.6664Z"
        fillRule="evenodd"
        clipRule="evenodd"
    />
</svg>
        