
<svg
    viewBox="0 0 26.205753088170653 27.7103271484375"
    xmlns="http://www.w3.org/2000/svg"
>
    <path
        fill="inherit"
        d="M13.0137 11.9501C12.6637 12.3001 12.6637 12.8801 13.0137 13.2201C13.3537 13.5601 13.9337 13.5601 14.2737 13.2201L15.0637 12.4301C16.2437 13.3301 17.7237 13.8801 19.3137 13.8801C20.9137 13.8801 22.3637 13.3401 23.5137 12.4401L24.3037 13.2201C24.6537 13.5601 25.2137 13.5601 25.5637 13.2201C25.9237 12.8801 25.9237 12.3001 25.5637 11.9501L24.7737 11.1701C25.6737 9.9901 26.1937 8.5401 26.1937 6.9901C26.1937 5.3701 25.6737 3.8801 24.7837 2.7101L25.5637 1.9401C25.9237 1.5701 25.9237 1.0101 25.5637 0.6701C25.2137 0.3301 24.6537 0.3301 24.3037 0.6701L23.5437 1.4401C22.3837 0.5301 20.9337 0.0001 19.3137 0.0001C17.7037 0.0001 16.2237 0.5301 15.0537 1.4501L14.2737 0.6701C13.9337 0.3301 13.3537 0.3301 13.0137 0.6701C12.6637 1.0101 12.6637 1.5701 13.0137 1.9401L13.7937 2.7201C12.8937 3.9001 12.3637 5.3701 12.3637 6.9901C12.3637 8.5301 12.9037 9.9901 13.8037 11.1601ZM3.6737 7.6601C5.7537 7.6601 7.3937 5.9901 7.3937 3.9601C7.3937 1.9001 5.7537 0.2201 3.6737 0.2201C1.6437 0.2201 0.0037 1.9001 0.0037 3.9601C0.0037 5.9501 1.6437 7.6601 3.6737 7.6601ZM19.3137 1.7901C20.4237 1.7901 21.4337 2.1301 22.2537 2.7201L19.2937 5.6901L16.3337 2.7301C17.1737 2.1301 18.2137 1.7901 19.3137 1.7901ZM24.4037 6.9901C24.4037 8.0701 24.0737 9.0601 23.5037 9.9001L20.5537 6.9501L23.5037 3.9901C24.0737 4.8401 24.4037 5.8701 24.4037 6.9901ZM14.1537 6.9901C14.1537 5.8801 14.4937 4.8401 15.0837 3.9901L18.0337 6.9501L15.0937 9.8801C14.5037 9.0501 14.1537 8.0501 14.1537 6.9901ZM19.3137 12.0901C18.2237 12.0901 17.2037 11.7301 16.3537 11.1401L19.2937 8.2001L22.2437 11.1601C21.4137 11.7401 20.4137 12.0901 19.3137 12.0901ZM6.0737 21.8201L10.7337 16.2101L8.1337 11.5301C6.9637 9.3901 4.9637 8.5701 3.0337 9.6401C1.0437 10.7001 0.6737 12.8501 1.8337 14.9601L4.3437 19.5201C4.8937 20.5401 5.4537 21.3401 6.0737 21.8201ZM25.7037 27.1901C26.3637 26.5501 26.4237 25.4601 25.5837 24.5801L19.4837 18.2701C18.1837 16.9301 16.8337 16.7301 15.2337 17.3201L11.7437 18.5901L8.3237 22.8201C9.1837 22.9801 10.3537 23.0601 11.4437 22.6501L16.4037 20.7801C16.7037 20.6601 16.8337 20.7101 17.0337 20.9201L22.9137 26.9901C23.7937 27.8801 25.0037 27.9501 25.7037 27.1901ZM3.1037 27.3601C3.6937 27.8401 4.3337 27.7101 4.8437 27.1001L8.3237 22.8201C7.5337 22.6501 6.7637 22.3101 6.0737 21.8201L3.0337 25.5901C2.5137 26.2401 2.5537 26.9201 3.1037 27.3601Z"
        fillRule="evenodd"
        clipRule="evenodd"
    />
</svg>
        