
<svg
    viewBox="0 0 27.890625 27.890625"
    xmlns="http://www.w3.org/2000/svg"
>
    <path
        fill="inherit"
        d="M13.9427 27.8864C21.6427 27.8864 27.8927 21.6264 27.8927 13.9464C27.8927 6.2464 21.6427 -0.0036 13.9427 -0.0036C6.2627 -0.0036 0.0027 6.2464 0.0027 13.9464C0.0027 21.6264 6.2627 27.8864 13.9427 27.8864ZM14.6727 8.3764C13.7427 8.3764 12.9727 7.6164 12.9727 6.6864C12.9727 5.7564 13.7427 4.9864 14.6727 4.9864C15.6127 4.9864 16.3627 5.7564 16.3627 6.6864C16.3627 7.6164 15.6127 8.3764 14.6727 8.3764ZM6.4027 7.1664C6.1827 6.9164 6.1827 6.6464 6.4027 6.3964C7.0027 5.7464 8.0227 5.3064 8.9327 5.3064C9.8527 5.3064 10.8827 5.7464 11.4727 6.3964C11.6727 6.6464 11.6727 6.9164 11.4827 7.1664C11.1727 7.4964 10.7827 7.7764 10.3327 7.9664V9.8564L21.9427 8.0964C22.3927 8.0264 22.7927 8.3264 22.8627 8.7764C22.9427 9.1964 22.6427 9.6264 22.2027 9.6964L16.7227 10.5164C16.4927 10.5564 16.3627 10.7164 16.3627 10.9064V14.4064L20.0927 17.6064C20.3127 17.8164 20.3827 18.0064 20.3827 18.2264V22.0564C20.3827 22.5864 20.0827 22.8964 19.5927 22.8964C19.1127 22.8964 18.7827 22.5864 18.7827 22.0564V18.6364L15.4627 16.1064C15.1027 15.8364 14.5327 15.8564 14.3127 16.2564L12.8527 19.0064C12.7927 19.1164 12.7827 19.1264 12.7327 19.1964L9.7527 22.1664C9.3527 22.5564 8.8727 22.5064 8.6027 22.2464C8.2827 21.9664 8.2027 21.4764 8.6227 21.0364L11.4527 18.1864L12.7427 14.6964V11.5564C12.7427 11.2964 12.5627 11.1564 12.3327 11.1864L9.6527 11.5764C9.1427 11.6664 8.7327 11.3064 8.7327 10.8164V8.2764C7.8727 8.2164 6.9627 7.7964 6.4027 7.1664Z"
        fillRule="evenodd"
        clipRule="evenodd"
    />
</svg>
        