
<svg
    viewBox="0 0 27.890625 27.890625"
    xmlns="http://www.w3.org/2000/svg"
>
    <path
        fill="inherit"
        d="M13.9427 27.8864C21.6427 27.8864 27.8927 21.6264 27.8927 13.9464C27.8927 6.2464 21.6427 -0.0036 13.9427 -0.0036C6.2627 -0.0036 0.0027 6.2464 0.0027 13.9464C0.0027 21.6264 6.2627 27.8864 13.9427 27.8864ZM13.9427 10.1464C12.9927 10.1464 12.2227 9.3964 12.2227 8.4364C12.2227 7.5064 12.9927 6.7364 13.9427 6.7364C14.8727 6.7364 15.6427 7.5064 15.6427 8.4364C15.6427 9.3964 14.8727 10.1464 13.9427 10.1464ZM5.9327 13.3164C5.5927 12.9764 5.5827 12.4364 5.9327 12.0964C6.2627 11.7464 6.8227 11.7464 7.1627 12.0964L9.0827 14.0164L11.0427 11.6164C11.3727 11.2264 11.8627 10.9764 12.4027 10.9764H15.4727C16.0127 10.9764 16.5027 11.2264 16.8127 11.6164L18.7827 14.0164L20.7027 12.0964C21.0427 11.7464 21.6027 11.7464 21.9327 12.0964C22.2827 12.4364 22.2727 12.9764 21.9327 13.3164L19.3327 15.9364C18.9727 16.2964 18.3927 16.2964 18.0427 15.8564L16.3827 13.8464C16.2827 13.7264 16.1227 13.7764 16.1227 13.9464V17.4064L19.0427 17.0664C20.0827 16.9564 20.4027 18.4464 19.4327 18.7464L16.0827 19.8564C16.2427 20.5464 15.6527 21.1364 14.9527 20.9364L13.9427 20.5864L12.9027 20.9364C12.2227 21.1364 11.6227 20.5464 11.7827 19.8564L8.4527 18.7464C7.4827 18.4464 7.8027 16.9564 8.8227 17.0664L11.7627 17.4064V13.9464C11.7627 13.7764 11.5827 13.7264 11.4827 13.8464L9.8427 15.8564C9.4727 16.2964 8.9027 16.2964 8.5427 15.9364Z"
        fillRule="evenodd"
        clipRule="evenodd"
    />
</svg>
        