
<svg
    viewBox={0 0 27.890625 27.890625}
    xmlns="http://www.w3.org/2000/svg"
>
    <path
        fill="inherit"
        d="M13.9427 27.8864C21.6427 27.8864 27.8927 21.6264 27.8927 13.9464C27.8927 6.2464 21.6427 -0.0036 13.9427 -0.0036C6.2627 -0.0036 0.0027 6.2464 0.0027 13.9464C0.0027 21.6264 6.2627 27.8864 13.9427 27.8864ZM11.3927 13.9064L13.0027 12.8364C13.2527 12.6764 13.1927 12.4164 13.0427 12.2664L11.6327 10.8264L9.1427 12.5764C8.7227 12.8764 8.2727 12.7664 8.0227 12.4864C7.7127 12.1564 7.6527 11.5964 8.1727 11.2364L11.2427 9.0664C11.6627 8.7664 12.1727 8.8064 12.5227 9.1764L16.9127 13.7264C15.6927 14.0364 15.3027 14.8864 13.9327 14.8864C12.7527 14.8864 12.2527 14.2764 11.3927 13.9064ZM18.0427 12.7864C17.0927 12.7864 16.3427 12.0464 16.3427 11.0864C16.3427 10.1464 17.0927 9.4064 18.0427 9.4064C18.9727 9.4064 19.7427 10.1464 19.7427 11.0864C19.7427 12.0464 18.9727 12.7864 18.0427 12.7864ZM5.1427 16.9964C4.8827 16.9964 4.6627 16.7764 4.6627 16.5164C4.6627 16.2564 4.8827 16.0364 5.1427 16.0364H5.9427C7.3927 16.0364 7.9027 14.7564 9.9227 14.7564C11.9627 14.7564 12.4827 16.0364 13.9327 16.0364C15.3927 16.0364 15.9027 14.7564 17.9327 14.7564C19.9627 14.7564 20.4627 16.0364 21.9127 16.0364H22.7227C22.9827 16.0364 23.2027 16.2564 23.2027 16.5164C23.2027 16.7764 22.9827 16.9964 22.7227 16.9964H21.9127C19.7927 16.9964 19.3427 15.7064 17.9327 15.7064C16.5127 15.7064 16.0627 16.9964 13.9327 16.9964C11.8027 16.9964 11.3427 15.7064 9.9227 15.7064C8.5127 15.7064 8.0627 16.9964 5.9427 16.9964ZM9.6627 17.8564C9.4027 17.8564 9.2127 17.6464 9.2127 17.4064C9.2127 17.1464 9.4027 16.9564 9.6627 16.9564C9.9127 16.9564 10.1127 17.1464 10.1127 17.4064C10.1127 17.6464 9.9127 17.8564 9.6627 17.8564ZM18.2227 17.8564C17.9927 17.8564 17.7727 17.6464 17.7727 17.4064C17.7727 17.1464 17.9927 16.9564 18.2227 16.9564C18.4827 16.9564 18.6727 17.1464 18.6727 17.4064C18.6727 17.6464 18.4827 17.8564 18.2227 17.8564ZM8.1927 18.1964C7.9427 18.1964 7.7427 17.9964 7.7427 17.7364C7.7427 17.4864 7.9427 17.2764 8.1927 17.2764C8.4327 17.2764 8.6527 17.4864 8.6527 17.7364C8.6527 17.9964 8.4327 18.1964 8.1927 18.1964ZM11.1327 18.1964C10.8727 18.1964 10.6827 17.9964 10.6827 17.7364C10.6827 17.4864 10.8727 17.2764 11.1327 17.2764C11.3927 17.2764 11.5827 17.4864 11.5827 17.7364C11.5827 17.9964 11.3927 18.1964 11.1327 18.1964ZM19.7127 18.1964C19.4527 18.1964 19.2627 17.9964 19.2627 17.7364C19.2627 17.4864 19.4527 17.2764 19.7127 17.2764C19.9427 17.2764 20.1527 17.4864 20.1527 17.7364C20.1527 17.9964 19.9427 18.1964 19.7127 18.1964ZM16.7627 18.1964C16.5127 18.1964 16.3127 17.9964 16.3127 17.7364C16.3127 17.4864 16.5127 17.2764 16.7627 17.2764C17.0227 17.2764 17.2127 17.4864 17.2127 17.7364C17.2127 17.9964 17.0227 18.1964 16.7627 18.1964ZM6.8127 18.8364C6.5627 18.8364 6.3527 18.6364 6.3527 18.3864C6.3527 18.1264 6.5627 17.9364 6.8127 17.9364C7.0527 17.9364 7.2627 18.1264 7.2627 18.3864C7.2627 18.6364 7.0527 18.8364 6.8127 18.8364ZM12.4927 18.8364C12.2527 18.8364 12.0627 18.6364 12.0627 18.3864C12.0627 18.1264 12.2527 17.9364 12.4927 17.9364C12.7527 17.9364 12.9427 18.1264 12.9427 18.3864C12.9427 18.6364 12.7527 18.8364 12.4927 18.8364ZM21.0927 18.8364C20.8327 18.8364 20.6427 18.6364 20.6427 18.3864C20.6427 18.1264 20.8327 17.9364 21.0927 17.9364C21.3327 17.9364 21.5427 18.1264 21.5427 18.3864C21.5427 18.6364 21.3327 18.8364 21.0927 18.8364ZM15.3927 18.8364C15.1527 18.8364 14.9427 18.6364 14.9427 18.3864C14.9427 18.1264 15.1527 17.9364 15.3927 17.9364C15.6427 17.9364 15.8427 18.1264 15.8427 18.3864C15.8427 18.6364 15.6427 18.8364 15.3927 18.8364ZM5.3427 19.1164C5.1127 19.1164 4.9127 18.9064 4.9127 18.6464C4.9127 18.4064 5.1127 18.1964 5.3427 18.1964C5.6027 18.1964 5.7927 18.4064 5.7927 18.6464C5.7927 18.9064 5.6027 19.1164 5.3427 19.1164ZM22.5427 19.1164C22.2827 19.1164 22.0927 18.9064 22.0927 18.6464C22.0927 18.4064 22.2827 18.1964 22.5427 18.1964C22.7727 18.1964 22.9927 18.4064 22.9927 18.6464C22.9927 18.9064 22.7727 19.1164 22.5427 19.1164ZM13.9427 19.1164C13.6827 19.1164 13.4927 18.9064 13.4927 18.6464C13.4927 18.4064 13.6827 18.1964 13.9427 18.1964C14.2027 18.1964 14.3927 18.4064 14.3927 18.6464C14.3927 18.9064 14.2027 19.1164 13.9427 19.1164Z"
        fillRule="evenodd"
        clipRule="evenodd"
    />
</svg>
        