<svg viewBox="0 0 27.890625 27.890625" xmlns="http://www.w3.org/2000/svg"><path d="M13.9427 27.8864C21.6427 27.8864 27.8927 21.6464 27.8927 13.9464C27.8927 6.2464 21.6427 -0.0036 13.9427 -0.0036C6.2527 -0.0036 0.0027 6.2464 0.0027 13.9464C0.0027 21.6464 6.2527 27.8864 13.9427 27.8864ZM13.9427 25.5664C7.5227 25.5664 2.3227 20.3664 2.3227 13.9464C2.3227 7.5164 7.5227 2.3264 13.9427 2.3264C20.3727 2.3264 25.5627 7.5164 25.5627 13.9464C25.5627 20.3664 20.3727 25.5664 13.9427 25.5664ZM15.9127 8.0364C16.8427 8.0364 17.5727 7.2964 17.5727 6.3864C17.5727 5.4664 16.8427 4.7464 15.9127 4.7464C15.0127 4.7464 14.2727 5.4664 14.2727 6.3864C14.2727 7.2964 15.0127 8.0364 15.9127 8.0364ZM8.3627 13.5064C8.8227 13.7264 9.2427 13.5264 9.4227 13.1664L10.8027 10.3864H12.4427C12.6327 10.3864 12.7427 10.5664 12.6627 10.7164L11.2127 13.6064C10.6627 14.6664 11.3327 16.0064 12.7427 15.9164L16.6227 15.6864L15.2027 18.8764C15.0227 19.2864 15.1927 19.7964 15.5827 19.9364C16.0327 20.1064 16.4327 19.9764 16.6227 19.5364L18.6327 15.1364C18.8627 14.6564 18.5527 13.9964 17.9327 13.9964H14.3927L15.9727 10.8664C16.0327 10.7164 16.1827 10.7064 16.2927 10.7964L18.1527 12.5664C18.5227 12.9164 19.1927 12.8664 19.4427 12.3564L21.0227 9.1464C21.2327 8.7464 21.0927 8.2864 20.6727 8.0964C20.2727 7.9064 19.8227 8.0564 19.6027 8.4464L18.5027 10.6464L17.5927 9.7464C16.9827 9.1364 16.3227 8.8064 15.3227 8.8064H10.3127C10.0127 8.8064 9.7527 8.9864 9.5927 9.2564L8.0027 12.4564C7.8027 12.8564 7.9427 13.3064 8.3627 13.5064ZM6.9227 20.9464C7.1627 21.4664 7.6927 21.4664 7.9527 21.3564L11.2427 19.9464C11.4027 19.8764 11.5427 19.7464 11.6227 19.5664L13.1127 16.5864L12.7727 16.5964C12.1527 16.6364 11.5427 16.4564 11.1827 16.1364L10.2827 18.6064L7.3127 19.8764C6.9227 20.0464 6.7027 20.5264 6.9227 20.9464ZM19.3727 22.0164C20.2927 22.0164 21.0227 21.2864 21.0227 20.3664C21.0227 19.4364 20.2927 18.7064 19.3727 18.7064C18.4527 18.7064 17.7327 19.4364 17.7327 20.3664C17.7327 21.2864 18.4527 22.0164 19.3727 22.0164Z" /></svg>