
<svg
    viewBox="0 0 27.890625 27.890625"
    xmlns="http://www.w3.org/2000/svg"
>
    <path
        fill="inherit"
        d="M13.9427 27.8864C21.6427 27.8864 27.8927 21.6464 27.8927 13.9464C27.8927 6.2464 21.6427 -0.0036 13.9427 -0.0036C6.2527 -0.0036 0.0027 6.2464 0.0027 13.9464C0.0027 21.6464 6.2527 27.8864 13.9427 27.8864ZM13.9427 25.5664C7.5227 25.5664 2.3227 20.3664 2.3227 13.9464C2.3227 7.5164 7.5227 2.3264 13.9427 2.3264C20.3727 2.3264 25.5627 7.5164 25.5627 13.9464C25.5627 20.3664 20.3727 25.5664 13.9427 25.5664ZM13.9427 10.2564C14.8427 10.2564 15.5827 9.5264 15.5827 8.5964C15.5827 7.6964 14.8427 6.9564 13.9427 6.9564C13.0127 6.9564 12.2927 7.6964 12.2927 8.5964C12.2927 9.5264 13.0127 10.2564 13.9427 10.2564ZM6.1827 13.3264L8.7127 15.8764C9.0627 16.2264 9.6227 16.2264 9.9627 15.8064L11.5527 13.8464C11.6627 13.7264 11.8227 13.7764 11.8227 13.9464V17.2964L8.9727 16.9664C8.0027 16.8564 7.6727 18.3064 8.6127 18.5964L11.8527 19.6764C11.6927 20.3464 12.2927 20.9164 12.9327 20.7164L13.9427 20.3864L14.9427 20.7164C15.6027 20.9164 16.1727 20.3464 16.0227 19.6764L19.2627 18.5964C20.2027 18.3064 19.8927 16.8564 18.8927 16.9664L16.0527 17.2964V13.9464C16.0527 13.7764 16.2127 13.7264 16.3227 13.8464L17.9227 15.8064C18.2527 16.2264 18.8227 16.2264 19.1727 15.8764L21.6927 13.3264C22.0227 13.0064 22.0427 12.4864 21.6927 12.1564C21.3727 11.8164 20.8327 11.8164 20.4927 12.1564L18.6327 14.0164L16.7327 11.6864C16.4227 11.3064 15.9527 11.0564 15.4527 11.0564H12.4427C11.9327 11.0564 11.4727 11.3064 11.1427 11.6864L9.2327 14.0164L7.3727 12.1564C7.0427 11.8164 6.4927 11.8164 6.1827 12.1564C5.8427 12.4864 5.8527 13.0064 6.1827 13.3264Z"
        fillRule="evenodd"
        clipRule="evenodd"
    />
</svg>
        