
<svg
    viewBox={0 0 19.728515625 34.448172953901334}
    xmlns="http://www.w3.org/2000/svg"
>
    <path
        fill="inherit"
        d="M1.3937 34.4366H8.4537C9.2937 34.4366 9.6937 34.0266 9.8337 33.2766L11.0337 26.6866H16.6137L15.5137 32.7566C15.3537 33.7266 15.9937 34.3666 16.7037 34.4366C17.3937 34.5066 18.1437 34.1766 18.3037 33.2766L19.6737 25.6666C19.8537 24.5966 19.2337 23.9566 18.4737 23.8666L13.5037 23.3266L13.9337 18.6166C13.9437 18.3866 14.1337 18.2366 14.3537 18.2366H18.3237C19.0837 18.2366 19.7237 17.5866 19.7237 16.8166V9.0666C19.7237 8.4866 19.3737 7.9666 18.8437 7.7666C18.3237 7.5466 17.7237 7.6466 17.3037 8.0566L16.4437 8.9266L15.6537 8.2166C16.0637 7.8166 15.9837 7.2066 15.5537 6.8066L8.3037 0.2766C7.8637 -0.1234 7.2437 -0.0834 6.8537 0.3566L6.1637 1.1466C5.7837 1.5866 5.7937 2.1766 6.2437 2.5866L13.4637 9.0966C13.9037 9.4766 14.4537 9.4366 14.8737 9.0266L15.6537 9.7166L9.5837 15.8066C8.9037 16.4866 8.4637 17.3466 8.3637 18.4066L7.1537 31.6266H1.3937C0.6137 31.6266 0.0037 32.2366 0.0037 33.0166C0.0037 33.7966 0.6137 34.4366 1.3937 34.4366ZM8.4537 13.6766C10.0737 13.6766 11.4037 12.3466 11.4037 10.6766C11.4037 9.0366 10.0737 7.7066 8.4537 7.7066C6.7837 7.7066 5.4537 9.0366 5.4537 10.6766C5.4537 12.3466 6.7837 13.6766 8.4537 13.6766ZM16.9137 12.4666V15.3966H13.9637Z"
        fillRule="evenodd"
        clipRule="evenodd"
    />
</svg>
        