<svg viewBox="0 0 32.634765625 33.09104124551438" xmlns="http://www.w3.org/2000/svg"><path d="M16.3237 5.9751C17.9637 5.9751 19.3137 4.6451 19.3137 2.9651C19.3137 1.3251 17.9637 -0.0049 16.3237 -0.0049C14.6737 -0.0049 13.3437 1.3251 13.3437 2.9651C13.3437 4.6451 14.6737 5.9751 16.3237 5.9751ZM2.8037 22.8751H3.5937C4.1437 22.8751 4.5137 22.4951 4.5137 21.9451V19.0351H6.7237L6.5537 19.4051C6.2037 20.0851 6.4937 20.9151 7.1537 21.2451C7.8337 21.6051 8.6437 21.3151 8.9837 20.6351L9.7737 19.0351H22.8837L23.6637 20.6351C24.0037 21.3151 24.8237 21.6051 25.5137 21.2451C26.1637 20.9151 26.4537 20.0851 26.1137 19.4051L25.9337 19.0351H28.1237V21.9451C28.1237 22.4951 28.4937 22.8751 29.0437 22.8751H29.8437C30.3937 22.8751 30.7437 22.4951 30.7437 21.9451V19.0351H31.8837C32.3037 19.0351 32.6337 18.7051 32.6337 18.2751C32.6337 17.8551 32.3037 17.5151 31.8837 17.5151H30.7437V14.6051C30.7437 14.0551 30.3937 13.6851 29.8437 13.6851H29.0437C28.4937 13.6851 28.1237 14.0551 28.1237 14.6051V17.5151H25.1837L21.0937 9.2451C20.4937 8.0351 19.3737 7.3251 17.9637 7.3251H14.6937C13.2937 7.3251 12.1637 8.0351 11.5637 9.2451L7.4737 17.5151H4.5137V14.6051C4.5137 14.0551 4.1437 13.6851 3.5937 13.6851H2.8037C2.2537 13.6851 1.8837 14.0551 1.8837 14.6051V17.5151H0.7637C0.3237 17.5151 0.0037 17.8551 0.0037 18.2751C0.0037 18.7051 0.3237 19.0351 0.7637 19.0351H1.8837V21.9451C1.8837 22.4951 2.2537 22.8751 2.8037 22.8751ZM13.3337 16.2051H19.3437V12.9351C19.3437 12.7051 19.7137 12.5951 19.8537 12.8751L22.1337 17.5151H10.5237L12.8237 12.8751C12.9637 12.5951 13.3337 12.6751 13.3337 12.9151ZM10.7837 33.0551C11.4437 33.1951 12.1937 32.8551 12.4037 31.9251L13.6837 26.0451L16.3237 21.1751L18.9737 26.0451L20.2637 31.9251C20.4637 32.8951 21.2837 33.2251 21.9537 33.0451C22.6037 32.8651 23.1237 32.2551 22.9137 31.3251L21.6137 25.2651C21.6037 25.1451 21.5837 25.0651 21.5337 24.9351L19.9237 20.3551H12.7537L11.1137 24.9351C11.0737 25.0651 11.0637 25.1451 11.0337 25.2651L9.7337 31.3251C9.5337 32.2951 10.1137 32.9251 10.7837 33.0551Z" /></svg>