
<svg
    viewBox={0 0 27.890625 27.890625}
    xmlns="http://www.w3.org/2000/svg"
>
    <path
        fill="inherit"
        d="M13.9437 27.8864C21.6437 27.8864 27.8937 21.6264 27.8937 13.9464C27.8937 6.2464 21.6437 -0.0036 13.9437 -0.0036C6.2637 -0.0036 0.0037 6.2464 0.0037 13.9464C0.0037 21.6264 6.2637 27.8864 13.9437 27.8864ZM17.5237 8.1864C16.5737 8.1864 15.8137 7.4464 15.8137 6.4764C15.8137 5.5664 16.5737 4.7964 17.5237 4.7964C18.4537 4.7964 19.2137 5.5664 19.2137 6.4764C19.2137 7.4464 18.4537 8.1864 17.5237 8.1864ZM10.1537 13.0264C9.1437 12.0264 9.3537 10.4864 10.6737 9.7864L13.6137 8.2564C14.9337 7.5764 16.3137 8.3264 16.4837 9.5864L16.8137 11.9364L18.8037 12.9564C19.2737 13.2064 19.4037 13.6764 19.2637 14.0364C19.1037 14.4264 18.6237 14.6664 18.0237 14.3564L15.8037 13.2364C15.4937 13.0864 15.3237 12.8964 15.2737 12.5764L15.0637 11.1964C15.0237 10.9964 14.8937 10.9264 14.7137 11.0164L12.4737 12.1964C12.3337 12.2664 12.2737 12.4364 12.4037 12.5764L14.2637 14.8464C14.3537 14.9864 14.4337 15.1664 14.4337 15.3564V19.4264C14.4337 19.8664 14.0637 20.2164 13.6137 20.2164C13.1937 20.2164 12.8337 19.8664 12.8337 19.4264V15.6964ZM9.4737 23.0664C9.1037 23.0664 9.0137 22.5864 9.3137 22.3764L10.7737 21.4264L8.8737 15.7664L8.7637 15.7864C8.2137 15.9264 7.6937 15.7464 7.3837 15.1864L7.1137 14.6864C6.8937 14.2864 7.1237 13.8864 7.6137 13.9864L10.4837 14.4764C10.7237 14.5164 10.8837 14.7064 10.8837 14.9264C10.8837 15.1864 10.7437 15.3564 10.5037 15.3964L9.8537 15.5464L10.8737 18.5664C11.1537 17.9764 11.6337 17.5164 12.2137 17.2264V18.4064C11.7737 18.7864 11.4937 19.3464 11.4937 19.9564C11.4937 21.1264 12.4737 22.0764 13.6037 22.0764C14.8337 22.0764 15.7137 21.0564 15.7137 19.9564C15.7137 19.3464 15.4737 18.8164 15.0537 18.4164V17.2364C15.6137 17.5364 16.0737 18.0164 16.3637 18.5964L17.4437 15.3364C17.5237 15.0764 17.7837 14.9264 18.0737 15.0164C18.3237 15.1064 18.4537 15.3964 18.3737 15.6564L16.4437 21.4464L17.8937 22.3764C18.1837 22.5764 18.1037 23.0664 17.7337 23.0664Z"
        fillRule="evenodd"
        clipRule="evenodd"
    />
</svg>
        