
<svg
    viewBox="0 0 26.22265625 28.508679162890118"
    xmlns="http://www.w3.org/2000/svg"
>
    <path
        fill="inherit"
        d="M0.0037 4.8346C0.0037 5.4946 0.5037 6.0146 1.1637 6.0146H7.4637V8.5146C7.4637 9.6346 8.6037 10.1246 9.4337 9.3746L13.5737 5.7146C14.1337 5.2246 14.1337 4.5346 13.5737 4.0146L9.4337 0.3546C8.6437 -0.3554 7.4637 0.0346 7.4637 1.2146V3.6946H1.1637C0.5037 3.6946 0.0037 4.1946 0.0037 4.8346ZM22.5337 8.4346C24.5837 8.4346 26.2237 6.7246 26.2237 4.7446C26.2237 2.6746 24.5837 1.0146 22.5337 1.0146C20.4637 1.0146 18.8137 2.6746 18.8137 4.7446C18.8137 6.7846 20.4637 8.4346 22.5337 8.4346ZM0.5037 27.9946C1.2137 28.7346 2.4337 28.6846 3.2937 27.7846L9.1837 21.7046C9.3837 21.5046 9.5137 21.4546 9.8137 21.5746L14.4137 23.3046C17.3637 24.4446 20.1437 23.4746 21.4337 21.1246L24.3937 15.7446C25.5437 13.6546 25.1737 11.4946 23.1837 10.4346C21.2637 9.3746 19.2537 10.1746 18.0837 12.3146L14.2437 19.3046L10.9937 18.1146C9.3837 17.5246 8.0237 17.7146 6.7437 19.0546L0.6337 25.3746C-0.2163 26.2446 -0.1363 27.3446 0.5037 27.9946Z"
        fillRule="evenodd"
        clipRule="evenodd"
    />
</svg>
        