
<svg
    viewBox="0 0 27.890625 27.890625"
    xmlns="http://www.w3.org/2000/svg"
>
    <path
        fill="inherit"
        d="M13.9427 27.8864C21.6427 27.8864 27.8927 21.6264 27.8927 13.9464C27.8927 6.2464 21.6427 -0.0036 13.9427 -0.0036C6.2627 -0.0036 0.0027 6.2464 0.0027 13.9464C0.0027 21.6264 6.2627 27.8864 13.9427 27.8864ZM14.4927 8.0264C13.5327 8.0264 12.7827 7.2564 12.7827 6.3164C12.7827 5.3864 13.5327 4.6364 14.4927 4.6364C15.4227 4.6364 16.1727 5.3864 16.1727 6.3164C16.1727 7.2564 15.4227 8.0264 14.4927 8.0264ZM7.3127 22.2964C6.9827 21.9864 6.9827 21.4464 7.3027 21.1464L10.3927 18.0764L9.8127 15.8764C9.5927 14.9664 9.7027 13.9964 10.1327 13.1564L11.3027 10.7964C11.4027 10.6264 11.2927 10.4564 11.1027 10.4564H9.5027L8.2127 13.0264C8.0127 13.4264 7.5327 13.5664 7.1227 13.3864C6.7227 13.1764 6.5727 12.6964 6.7827 12.3064L8.3027 9.2864C8.4227 9.0064 8.6927 8.8364 9.0227 8.8364H14.4327C15.0627 8.8364 15.6027 9.0464 16.0627 9.5164L18.1327 11.5964L21.6927 12.6464C22.1327 12.7664 22.3827 13.2164 22.2627 13.6264C22.0827 14.1464 21.5627 14.2864 21.2427 14.1864L17.4427 13.0664C17.3327 13.0264 17.2227 12.9564 17.1327 12.8664L15.2127 10.9464C15.1027 10.8464 14.9527 10.8664 14.8927 11.0064L13.1927 14.3964L15.8227 17.0064C15.9127 17.0764 15.9827 17.2164 16.0127 17.3264L17.3327 21.4964C17.4727 21.9064 17.2527 22.3564 16.8027 22.4864C16.4227 22.6164 15.9427 22.4364 15.8027 21.9664L14.5327 18.0364L12.1027 15.9164C11.9927 15.8364 11.8627 15.8964 11.8827 16.0264L12.0727 18.2364C12.1027 18.5364 12.0627 18.7064 11.8427 18.9064L8.4327 22.2964C8.1027 22.6364 7.6127 22.5964 7.3127 22.2964ZM21.4827 18.7564C20.4527 18.7564 19.6327 17.9364 19.6327 16.8964C19.6327 15.8964 20.4527 15.0664 21.4827 15.0664C22.5127 15.0664 23.3127 15.8964 23.3127 16.8964C23.3127 17.9364 22.5127 18.7564 21.4827 18.7564Z"
        fillRule="evenodd"
        clipRule="evenodd"
    />
</svg>
        