
<svg
    viewBox="0 0 30.296875 26.16796875"
    xmlns="http://www.w3.org/2000/svg"
>
    <path
        fill="inherit"
        d="M17.2916 5.9751C18.9316 5.9751 20.2716 4.6451 20.2716 2.9851C20.2716 1.3351 18.9316 -0.0049 17.2916 -0.0049C15.6316 -0.0049 14.3016 1.3351 14.3016 2.9851C14.3016 4.6451 15.6316 5.9751 17.2916 5.9751ZM19.4416 15.3951C20.2516 15.3951 20.8916 14.7651 20.8916 13.9551C20.8916 13.1551 20.2516 12.5251 19.4416 12.5251H14.4216V7.3851C14.4216 5.6751 12.9916 4.5751 11.4016 4.9051L2.9516 6.6551C-0.1084 7.2851 -0.9384 10.9151 1.2716 12.8651L6.5316 17.4851V24.7351C6.5316 25.5151 7.1916 26.1651 7.9716 26.1651C8.7516 26.1651 9.4016 25.5151 9.4016 24.7351V16.9351C9.4016 16.4351 9.3016 16.1651 8.9816 15.8151L4.9316 11.7451C4.7016 11.5151 4.8216 11.1951 5.1016 11.1451L10.7916 10.0851C11.3516 9.9851 11.5516 10.1751 11.5516 10.6651V13.9551C11.5516 14.7651 12.2116 15.3951 12.9916 15.3951ZM27.1616 20.8251H29.1616C29.8416 20.8251 30.3016 20.3751 30.3016 19.6851V7.4151C30.3016 6.7651 29.8416 6.3151 29.1916 6.3151H27.1116C22.2316 6.3151 19.2816 7.5851 16.1716 11.1951H18.3316C20.7816 8.7951 23.3016 7.8851 27.1116 7.8851H28.7116V19.2251H27.1616C26.6616 19.2251 26.2816 18.9751 26.0616 18.5551L24.8116 16.0651C24.5916 15.6551 24.2016 15.5551 23.8716 15.6651C23.4616 15.8051 23.1416 16.2451 23.4016 16.7751L24.6516 19.2751C25.1316 20.2251 26.0816 20.8251 27.1616 20.8251ZM10.7316 20.0551C12.0416 19.1151 13.1016 17.9351 14.0416 16.7251H12.9916C12.6916 16.7251 12.3916 16.6651 12.1016 16.5551C11.6716 17.0751 11.2216 17.5451 10.7316 17.9951ZM0.8116 22.2551H3.1616C3.8816 22.2551 4.5616 22.2151 5.2116 22.1251V20.5351C4.5816 20.6351 3.8816 20.6851 3.1616 20.6851H0.8116C0.3516 20.6851 0.0016 21.0151 0.0016 21.4751C0.0016 21.8851 0.3516 22.2551 0.8116 22.2551Z"
        fillRule="evenodd"
        clipRule="evenodd"
    />
</svg>
        