
<svg
    viewBox="0 0 29.23191958502473 31.464883829337346"
    xmlns="http://www.w3.org/2000/svg"
>
    <path
        fill="inherit"
        d="M13.6851 5.9595C15.3251 5.9595 16.6551 4.6395 16.6551 2.9695C16.6551 1.3295 15.3251 -0.0005 13.6851 -0.0005C12.0151 -0.0005 10.6951 1.3295 10.6951 2.9695C10.6951 4.6395 12.0151 5.9595 13.6851 5.9595ZM1.0951 31.0495C1.6151 31.5595 2.4751 31.6495 3.0751 31.0495L9.0651 25.0695C9.4351 24.7195 9.5051 24.4295 9.4651 23.8995L9.1251 20.0395C9.0951 19.7995 9.3251 19.6895 9.4851 19.8395L13.7851 23.5295L16.0151 30.4595C16.2751 31.2695 17.0951 31.5795 17.7851 31.3795C18.5851 31.1495 18.9551 30.3495 18.7051 29.5995L16.3951 22.2995C16.3251 22.0895 16.2051 21.8595 16.0351 21.7095L11.4151 17.1495L14.3851 11.2095C14.5051 10.9695 14.8051 10.9095 15.0151 11.1195L18.3351 14.4695C18.4851 14.6195 18.7051 14.7395 18.9251 14.8095L25.5851 16.7995C26.1251 16.9695 27.0451 16.7495 27.3351 15.8295C27.5551 15.0895 27.1251 14.2895 26.3751 14.0695L20.0751 12.2095L16.4751 8.5695C15.6551 7.7495 14.7151 7.3995 13.5951 7.3995H4.0751C3.5251 7.3995 3.0551 7.6995 2.8151 8.1795L0.1551 13.4795C-0.1949 14.1595 0.0551 15.0295 0.7851 15.3695C1.5051 15.7095 2.3251 15.4495 2.6851 14.7295L4.9351 10.2295H7.7551C8.0651 10.2295 8.2551 10.5295 8.1051 10.8295L6.0451 14.9695C5.3051 16.4295 5.1051 18.1395 5.5151 19.7595L6.4951 23.6295L1.0651 29.0295C0.5251 29.5595 0.5351 30.4895 1.0951 31.0495ZM25.9751 24.8295C27.7851 24.8295 29.2351 23.3695 29.2351 21.5695C29.2351 19.7795 27.7851 18.3295 25.9751 18.3295C24.1851 18.3295 22.7351 19.7795 22.7351 21.5695C22.7351 23.3695 24.1851 24.8295 25.9751 24.8295Z"
        fillRule="evenodd"
        clipRule="evenodd"
    />
</svg>
        