<svg viewBox="0 0 27.890625 27.890625" xmlns="http://www.w3.org/2000/svg"><path d="M13.9427 27.8864C21.6427 27.8864 27.8927 21.6264 27.8927 13.9464C27.8927 6.2464 21.6427 -0.0036 13.9427 -0.0036C6.2627 -0.0036 0.0027 6.2464 0.0027 13.9464C0.0027 21.6264 6.2627 27.8864 13.9427 27.8864ZM12.6827 7.5364C11.7427 7.5364 10.9927 6.7664 10.9927 5.8264C10.9927 4.8964 11.7427 4.1464 12.6827 4.1464C13.6127 4.1464 14.3827 4.8964 14.3827 5.8264C14.3827 6.7664 13.6127 7.5364 12.6827 7.5364ZM11.1427 14.9164C10.1827 14.6864 9.5927 13.7964 9.7227 12.8264L10.1627 9.5164C10.2927 8.3764 11.4827 7.7964 12.6227 8.3164L15.2627 9.5264L18.7727 9.8564C19.1927 9.9164 19.5127 10.2964 19.4727 10.7064C19.4427 11.1464 19.0627 11.4564 18.6227 11.4164L15.1727 11.0564C14.9427 11.0364 14.7927 11.0064 14.6127 10.9364L13.2527 10.3064C13.1127 10.2364 12.9727 10.2764 12.9627 10.4464L12.5527 13.2664L15.2827 14.2464C15.7327 14.4064 15.9327 14.8064 15.7927 15.3164L14.7427 18.8264C14.6127 19.2864 14.2027 19.4664 13.8527 19.3964C13.4427 19.3364 13.0827 18.9464 13.2527 18.3764L14.0927 15.5764ZM20.9727 9.0464C21.0727 9.2664 20.9827 9.5464 20.7227 9.6764C20.4827 9.7864 20.2527 9.9364 20.0327 10.0664C19.8827 9.7164 19.6427 9.4764 19.3027 9.3264C19.6027 9.1564 19.9627 8.9664 20.3127 8.8064C20.5527 8.6964 20.8527 8.7764 20.9727 9.0464ZM10.3627 23.2964C10.1027 23.2964 9.8527 23.0964 9.8527 22.8064C9.8527 22.5464 10.1027 22.3264 10.3627 22.3264H12.7727V20.9764C12.7727 20.7164 12.9927 20.4764 13.2527 20.4764H15.6727V19.1264C15.6727 18.8364 15.9027 18.6464 16.1427 18.6464H17.7227L17.9927 12.0164C18.7627 12.0964 18.8227 12.0864 18.9527 12.0564L18.6727 19.1364C18.6627 19.3964 18.4427 19.6164 18.1927 19.6164H16.6427V20.9764C16.6427 21.2364 16.4227 21.4664 16.1427 21.4664H13.7227V22.8064C13.7227 23.0764 13.5227 23.2964 13.2527 23.2964ZM8.4927 21.8764C8.1527 21.6664 7.9527 21.2064 8.3027 20.6864L10.2927 17.6864L10.4427 15.3664C10.5127 15.4264 10.7027 15.5064 10.9927 15.5764L12.1927 15.8464L11.8527 17.9264C11.8127 18.1264 11.7827 18.2664 11.6927 18.3864L9.5827 21.5464C9.2827 21.9864 8.8227 22.0564 8.4927 21.8764Z" /></svg>