
<svg
    viewBox={0 0 27.890625 27.890625}
    xmlns="http://www.w3.org/2000/svg"
>
    <path
        fill="inherit"
        d="M13.9427 27.8864C21.6427 27.8864 27.8927 21.6464 27.8927 13.9464C27.8927 6.2464 21.6427 -0.0036 13.9427 -0.0036C6.2527 -0.0036 0.0027 6.2464 0.0027 13.9464C0.0027 21.6464 6.2527 27.8864 13.9427 27.8864ZM13.9427 25.5664C7.5227 25.5664 2.3227 20.3664 2.3227 13.9464C2.3227 7.5164 7.5227 2.3264 13.9427 2.3264C20.3727 2.3264 25.5627 7.5164 25.5627 13.9464C25.5627 20.3664 20.3727 25.5664 13.9427 25.5664ZM16.6427 10.1464C17.5727 10.1464 18.2927 9.4164 18.2927 8.4864C18.2927 7.5864 17.5727 6.8464 16.6427 6.8464C15.7327 6.8464 15.0027 7.5864 15.0027 8.4864C15.0027 9.4164 15.7327 10.1464 16.6427 10.1464ZM11.3627 21.6464C11.6927 21.7664 12.1027 21.6664 12.3327 21.2164L14.2727 17.3664C14.4127 17.0764 14.3827 16.7164 14.1227 16.4564L11.7827 14.1264L14.7427 12.6564C14.8727 12.5964 15.0427 12.6164 15.1327 12.7264L16.8827 14.4764C17.0227 14.6164 17.2227 14.6964 17.4327 14.6964H20.7827C21.1927 14.6964 21.5427 14.3564 21.5427 13.9364V12.1864C21.9127 11.7064 22.9027 10.2764 22.9027 8.9964C22.9027 7.9564 22.1327 7.1864 21.0927 7.1864C20.0527 7.1864 19.2727 7.9564 19.2727 8.9964C19.2727 10.2564 20.2327 11.6664 20.6327 12.1664V13.1564H17.7627L14.4927 9.8864C14.1127 9.5064 13.5927 9.2964 13.0327 9.2964H6.6127C6.1927 9.2964 5.8427 9.6364 5.8427 10.0664C5.8427 10.4864 6.1927 10.8264 6.6127 10.8264H11.4527C11.5427 10.8264 11.5627 10.9664 11.5027 11.0064L10.0527 11.7164C9.2827 12.0964 8.9027 12.8064 8.9027 13.5364C8.9027 14.1664 9.1827 14.7764 9.7527 15.2064L12.5827 17.2664L10.9327 20.5464C10.6827 21.0664 10.9527 21.4964 11.3627 21.6464ZM21.0927 8.1164C21.6327 8.1164 21.9727 8.4864 21.9727 8.9964C21.9727 9.6964 21.4527 10.6264 21.0927 11.2064C20.7227 10.6264 20.2227 9.6964 20.2227 8.9964C20.2227 8.4864 20.5627 8.1164 21.0927 8.1164ZM4.9927 18.5564H8.5427C8.8427 18.5564 9.1227 18.4064 9.2427 18.1464L10.1427 16.3064L9.3527 15.7364C8.9327 15.4264 8.7527 15.1464 8.6527 14.9864L7.9827 17.0264H4.9927C4.5627 17.0264 4.2227 17.3664 4.2227 17.7864C4.2227 18.2064 4.5627 18.5564 4.9927 18.5564Z"
        fillRule="evenodd"
        clipRule="evenodd"
    />
</svg>
        