
<svg
    viewBox={0 0 27.890625 27.890625}
    xmlns="http://www.w3.org/2000/svg"
>
    <path
        fill="inherit"
        d="M13.9427 27.8864C21.6427 27.8864 27.8927 21.6464 27.8927 13.9464C27.8927 6.2464 21.6427 -0.0036 13.9427 -0.0036C6.2527 -0.0036 0.0027 6.2464 0.0027 13.9464C0.0027 21.6464 6.2527 27.8864 13.9427 27.8864ZM13.9427 25.5664C7.5227 25.5664 2.3227 20.3664 2.3227 13.9464C2.3227 7.5164 7.5227 2.3264 13.9427 2.3264C20.3727 2.3264 25.5627 7.5164 25.5627 13.9464C25.5627 20.3664 20.3727 25.5664 13.9427 25.5664ZM9.3527 22.6264C9.7727 22.7064 10.1627 22.4364 10.2427 21.9964L10.8927 18.4164L13.9027 16.7764C13.9827 16.7364 14.0727 16.7664 14.1127 16.8264L15.6227 20.4964C15.7127 20.6864 15.8627 20.8264 16.0127 20.9164L19.0327 22.5964C19.4827 22.8364 19.9227 22.6364 20.0927 22.2964C20.3127 21.9264 20.1927 21.4464 19.7927 21.2364L17.0227 19.6864L14.8727 11.0764C14.7527 10.5664 14.3027 10.1864 13.7427 10.1864H9.1227L11.2827 5.6064C11.5827 4.9864 11.1427 4.5764 10.6927 4.5764C10.4327 4.5764 10.1727 4.7064 10.0527 5.0164L7.5627 11.5164C7.4327 11.8264 7.5427 12.1164 7.7227 12.2864L9.6527 14.2364C9.9427 14.5364 10.4427 14.5364 10.7427 14.2364L11.5927 13.3864C11.7127 13.2664 11.8927 13.2664 11.9327 13.4264L12.3827 15.2764L9.7327 17.2664C9.5427 17.4064 9.4427 17.6364 9.4227 17.8564L8.7127 21.7264C8.6427 22.1364 8.9127 22.5564 9.3527 22.6264ZM13.4527 9.3964C14.3527 9.3964 15.0927 8.6664 15.0927 7.7564C15.0927 6.8464 14.3527 6.1064 13.4527 6.1064C12.5527 6.1064 11.8027 6.8464 11.8027 7.7564C11.8027 8.6664 12.5527 9.3964 13.4527 9.3964ZM10.9927 11.7564L10.2027 12.5664L9.4027 11.7564Z"
        fillRule="evenodd"
        clipRule="evenodd"
    />
</svg>
        