
<svg
    viewBox="0 0 27.890625 27.890625"
    xmlns="http://www.w3.org/2000/svg"
>
    <path
        fill="inherit"
        d="M13.9427 27.8864C21.6427 27.8864 27.8927 21.6464 27.8927 13.9464C27.8927 6.2464 21.6427 -0.0036 13.9427 -0.0036C6.2527 -0.0036 0.0027 6.2464 0.0027 13.9464C0.0027 21.6464 6.2527 27.8864 13.9427 27.8864ZM13.9427 25.5664C7.5227 25.5664 2.3227 20.3664 2.3227 13.9464C2.3227 7.5164 7.5227 2.3264 13.9427 2.3264C20.3727 2.3264 25.5627 7.5164 25.5627 13.9464C25.5627 20.3664 20.3727 25.5664 13.9427 25.5664ZM9.0127 22.8864H12.6227C13.0927 22.8864 13.3127 22.6564 13.3827 22.2464L14.0527 18.6064H17.1327L16.5327 21.9564C16.4427 22.5064 16.7927 22.8464 17.1827 22.8864C17.5727 22.9164 17.9827 22.7464 18.0627 22.2464L18.8127 18.0364C18.9227 17.4564 18.5927 17.0864 18.1527 17.0464L15.4227 16.7464L15.6527 14.1464C15.6727 14.0264 15.7627 13.9464 15.8827 13.9464H18.0727C18.5027 13.9464 18.8527 13.5764 18.8527 13.1564V8.8864C18.8527 8.5564 18.6627 8.2764 18.3627 8.1664C18.0727 8.0564 17.7427 8.0964 17.5227 8.3264L17.0327 8.8064L16.6127 8.4264C16.8327 8.1864 16.7927 7.8464 16.5427 7.6464L12.5327 4.0164C12.2927 3.8164 11.9627 3.8264 11.7427 4.0764L11.3627 4.5164C11.1527 4.7564 11.1527 5.0764 11.4027 5.2864L15.3927 8.8964C15.6427 9.1164 15.9427 9.0964 16.1727 8.8564L16.5927 9.2464L13.2527 12.5964C12.8627 12.9864 12.6327 13.4564 12.5827 14.0264L11.9127 21.3264H9.0127C8.5727 21.3264 8.2427 21.6664 8.2427 22.1064C8.2427 22.5264 8.5727 22.8864 9.0127 22.8864ZM12.6227 11.4164C13.5227 11.4164 14.2627 10.6864 14.2627 9.7664C14.2627 8.8564 13.5227 8.1364 12.6227 8.1364C11.7027 8.1364 10.9827 8.8564 10.9827 9.7664C10.9827 10.6864 11.7027 11.4164 12.6227 11.4164ZM17.2927 10.7464V12.3764H15.6727Z"
        fillRule="evenodd"
        clipRule="evenodd"
    />
</svg>
        