
<svg
    viewBox="0 0 27.890625 27.890625"
    xmlns="http://www.w3.org/2000/svg"
>
    <path
        fill="inherit"
        d="M13.9427 27.8864C21.6427 27.8864 27.8927 21.6464 27.8927 13.9464C27.8927 6.2464 21.6427 -0.0036 13.9427 -0.0036C6.2527 -0.0036 0.0027 6.2464 0.0027 13.9464C0.0027 21.6464 6.2527 27.8864 13.9427 27.8864ZM13.9427 25.5664C7.5227 25.5664 2.3227 20.3664 2.3227 13.9464C2.3227 7.5164 7.5227 2.3264 13.9427 2.3264C20.3727 2.3264 25.5627 7.5164 25.5627 13.9464C25.5627 20.3664 20.3727 25.5664 13.9427 25.5664ZM9.9927 6.9164C10.5027 6.9164 10.9327 6.4964 10.9327 5.9764C10.9327 5.4364 10.5027 5.0264 9.9927 5.0264C9.4627 5.0264 9.0527 5.4364 9.0527 5.9764C9.0527 6.4964 9.4627 6.9164 9.9927 6.9164ZM8.3627 21.5364L12.9027 22.6864C13.5327 22.8464 13.9727 22.3664 13.8727 21.7764L13.4627 18.8764H17.0627L19.8627 21.7264C20.1627 22.0264 20.6427 22.0264 20.9427 21.7264C21.2627 21.4264 21.2427 20.9464 20.9427 20.6464L17.9827 17.6664C17.7727 17.4464 17.6927 17.4064 17.3527 17.3464L14.0927 17.0364L13.2727 14.5464C13.2227 14.3664 13.3527 14.1864 13.5327 14.2464L19.4827 15.4364C19.8827 15.5064 20.3027 15.2864 20.3827 14.8364C20.4527 14.4264 20.1927 14.0164 19.7927 13.9364L11.5827 12.2864C10.8527 12.1564 10.4627 12.0464 10.1327 11.7264L8.5627 10.1564V6.6564C8.5627 6.2164 8.2127 5.8964 7.7927 5.8964C7.3527 5.8964 7.0227 6.2164 7.0227 6.6564V10.3464C7.0227 10.6664 7.0727 10.8464 7.2827 11.0764L9.0527 12.8264C9.4227 13.1964 9.4727 13.3264 9.5927 13.6964L11.9727 20.8764L8.7327 20.0564C8.3427 19.9464 7.9127 20.2064 7.8227 20.6164C7.7227 21.0264 7.9727 21.4264 8.3627 21.5364ZM12.3827 11.6164C13.2927 11.6164 14.0427 10.8864 14.0427 9.9664C14.0427 9.0664 13.2927 8.3264 12.3827 8.3264C11.4727 8.3264 10.7227 9.0664 10.7227 9.9664C10.7227 10.8864 11.4727 11.6164 12.3827 11.6164Z"
        fillRule="evenodd"
        clipRule="evenodd"
    />
</svg>
        