<svg viewBox="0 0 32.94580078125 32.60107030925103" xmlns="http://www.w3.org/2000/svg"><path d="M11.2603 21.3917C12.9203 23.3717 15.5803 23.1017 16.9203 21.0917L29.5303 2.2217C29.9703 1.5517 29.7903 0.6817 29.1303 0.2417C28.4903 -0.1983 27.6003 -0.0283 27.1503 0.6417L21.4503 9.2117C20.8003 10.1917 19.6803 10.7117 18.5103 10.7117C17.2603 10.7117 15.9903 10.1317 15.1903 8.9217L9.6903 0.6417C9.2503 -0.0283 8.3803 -0.1983 7.7103 0.2417C7.0503 0.6817 6.8703 1.5517 7.3103 2.2217L14.0503 12.3317C14.3703 12.7917 14.3803 13.4217 14.0503 13.9017L12.1803 16.7317L8.0803 13.1817C7.5003 12.6617 6.6103 12.6317 5.9803 13.2617L0.4203 18.8517C-0.1397 19.4217 -0.1397 20.2817 0.4203 20.8517C1.0403 21.4317 1.8803 21.3617 2.4003 20.8517L7.0003 16.2817ZM3.5603 1.9017H5.8103C5.7103 1.3917 5.7703 0.8617 5.9603 0.3817H3.5603C3.1403 0.3817 2.8003 0.7217 2.8003 1.1417C2.8003 1.5717 3.1403 1.9017 3.5603 1.9017ZM12.1103 1.9017H24.7203L25.5803 0.6217C25.6303 0.5617 25.6903 0.4617 25.7403 0.3817H11.1003C11.1503 0.4617 11.2103 0.5617 11.2603 0.6417ZM31.0303 1.9017H32.1903C32.6203 1.9017 32.9503 1.5717 32.9503 1.1417C32.9503 0.7217 32.6203 0.3817 32.1903 0.3817H30.8803C31.0703 0.8617 31.1303 1.3817 31.0303 1.9017ZM18.5103 9.2717C20.1603 9.2717 21.5003 7.9417 21.5003 6.2817C21.5003 4.6317 20.1603 3.2917 18.5103 3.2917C16.8503 3.2917 15.5303 4.6317 15.5303 6.2817C15.5303 7.9417 16.8503 9.2717 18.5103 9.2717ZM14.6303 31.9617C15.0603 31.3017 14.9003 30.4717 14.2303 30.0217L9.2203 26.6717L11.9903 23.6217C11.3603 23.3217 10.7803 22.8617 10.2503 22.2417L9.2703 21.0917L5.9003 26.1517C5.4703 26.7917 5.6303 27.6817 6.2903 28.1317L12.6803 32.3617C13.3403 32.8117 14.2203 32.6017 14.6303 31.9617Z" /></svg>