
<svg
    viewBox="0 0 27.890625 27.890625"
    xmlns="http://www.w3.org/2000/svg"
>
    <path
        fill="inherit"
        d="M13.9427 27.8864C21.6427 27.8864 27.8927 21.6264 27.8927 13.9464C27.8927 6.2464 21.6427 -0.0036 13.9427 -0.0036C6.2627 -0.0036 0.0027 6.2464 0.0027 13.9464C0.0027 21.6264 6.2627 27.8864 13.9427 27.8864ZM15.1527 7.1264C14.2727 7.1264 13.5727 6.4564 13.5727 5.5764C13.5727 4.7064 14.2727 3.9964 15.1527 3.9964C15.9927 3.9964 16.7027 4.7064 16.7027 5.5764C16.7027 6.4564 15.9927 7.1264 15.1527 7.1264ZM9.2327 11.0364L9.5727 8.4764C9.6227 8.0664 9.9027 7.8064 10.2927 7.7664L12.8427 7.5864C14.1527 7.4964 14.9527 7.8564 15.6127 8.7464L16.8527 10.4764L18.6627 9.6664C19.0727 9.4864 19.4327 9.5964 19.5927 9.9664C19.7727 10.3264 19.6227 10.6764 19.2227 10.8664L16.9427 11.8764C16.6227 12.0064 16.2827 11.9264 16.1027 11.6364L15.3127 10.4864C15.1527 10.2364 14.8427 10.2764 14.7827 10.5564L14.2427 12.4264L16.9427 14.2064C17.3327 14.4764 17.4027 15.0764 17.0627 15.3764L14.5627 17.4864C14.1827 17.8164 13.7427 17.7764 13.5127 17.4964C13.2727 17.2564 13.2727 16.8464 13.6627 16.4864L15.4227 14.9564L12.6827 13.4264C12.0627 13.0664 11.2627 12.7264 11.6027 11.5264L12.2127 9.4564C12.2927 9.1764 12.0627 9.0264 11.8427 9.0364L10.8127 9.1064L10.5027 11.1964C10.4327 11.6364 10.2027 11.8764 9.7927 11.8564C9.3827 11.7964 9.1727 11.4964 9.2327 11.0364ZM19.9027 19.2364L21.0727 12.5664L20.1927 12.9764C19.9327 13.0964 19.6327 12.9864 19.5327 12.7564C19.4327 12.5064 19.5127 12.2264 19.7827 12.0964L23.4027 10.4064C23.6427 10.2764 23.9527 10.3864 24.0627 10.6364C24.1627 10.8664 24.0627 11.1664 23.8127 11.2964L22.1527 12.0764L20.9027 19.1864C20.8227 19.1864 20.7827 19.1864 20.6727 19.1864ZM7.8427 19.6364C7.5627 19.3864 7.4927 18.9364 7.8627 18.5564L10.3127 16.1164L11.1927 12.9564C11.4827 13.4964 12.0027 13.8264 12.3427 14.0264L12.5527 14.1364L11.5927 16.6764C11.4527 16.9764 11.4127 17.0364 11.2427 17.2264L8.9127 19.5364C8.5327 19.9064 8.1227 19.8764 7.8427 19.6364ZM5.7727 21.2064C5.7727 20.9564 5.9327 20.7964 6.1627 20.7664L20.8127 19.8564C21.3927 19.8264 21.8327 20.1364 21.8327 20.7164C21.8327 21.2164 21.4527 21.6064 20.9627 21.6064H6.1627C5.9327 21.6064 5.7727 21.4064 5.7727 21.2064Z"
        fillRule="evenodd"
        clipRule="evenodd"
    />
</svg>
        