
<svg
    viewBox="0 0 27.890625 27.890625"
    xmlns="http://www.w3.org/2000/svg"
>
    <path
        fill="inherit"
        d="M13.9427 27.8864C21.6427 27.8864 27.8927 21.6464 27.8927 13.9464C27.8927 6.2464 21.6427 -0.0036 13.9427 -0.0036C6.2527 -0.0036 0.0027 6.2464 0.0027 13.9464C0.0027 21.6464 6.2527 27.8864 13.9427 27.8864ZM13.9427 25.5664C7.5227 25.5664 2.3227 20.3664 2.3227 13.9464C2.3227 7.5164 7.5227 2.3264 13.9427 2.3264C20.3727 2.3264 25.5627 7.5164 25.5627 13.9464C25.5627 20.3664 20.3727 25.5664 13.9427 25.5664ZM9.1627 8.9164C10.0627 8.9164 10.8027 8.1764 10.8027 7.2564C10.8027 6.3564 10.0627 5.6164 9.1627 5.6164C8.2427 5.6164 7.5027 6.3564 7.5027 7.2564C7.5027 8.1764 8.2427 8.9164 9.1627 8.9164ZM8.3027 15.0664H11.4327L11.6227 15.2564C11.9927 15.6164 12.4927 15.8164 12.9927 15.8164C13.4127 15.8164 13.8127 15.6964 14.1627 15.4364L17.9327 12.6064L21.6927 10.3464C22.0627 10.1264 22.1927 9.6664 21.9727 9.3064C21.7527 8.9364 21.2727 8.8364 20.9027 9.0464L13.7827 13.3164L11.7827 11.3364C11.7327 11.2964 11.7627 11.2264 11.8227 11.2264H13.6627C14.0727 11.2264 14.4227 10.8964 14.4227 10.4564V8.2064C14.8627 8.0364 15.1927 7.6264 15.1927 7.1264C15.1927 6.4764 14.6727 5.9764 14.0427 5.9764C13.4027 5.9764 12.8827 6.4764 12.8827 7.1264V9.7064H9.0527C8.2127 9.7064 7.5327 10.3864 7.5327 11.2264V14.2964C7.5327 14.7064 7.8627 15.0664 8.3027 15.0664ZM8.9927 13.5764V12.8564C8.9927 12.7464 9.1227 12.6864 9.1827 12.7564L9.9927 13.5764ZM13.1127 23.4764C13.4927 23.5464 13.9327 23.2964 14.0127 22.8564L14.7927 19.0464C14.8027 18.9464 14.8027 18.8664 14.7927 18.7564L14.6427 15.8864C14.1527 16.2864 13.5927 16.4764 12.9927 16.4764C12.9227 16.4764 12.8427 16.4764 12.7727 16.4764L13.2527 18.8764L12.5227 22.5564C12.4327 22.9864 12.7027 23.3964 13.1127 23.4764Z"
        fillRule="evenodd"
        clipRule="evenodd"
    />
</svg>
        