
<svg
    viewBox="0 0 27.890625 27.890625"
    xmlns="http://www.w3.org/2000/svg"
>
    <path
        fill="inherit"
        d="M13.9427 27.8864C21.6427 27.8864 27.8927 21.6264 27.8927 13.9464C27.8927 6.2464 21.6427 -0.0036 13.9427 -0.0036C6.2627 -0.0036 0.0027 6.2464 0.0027 13.9464C0.0027 21.6264 6.2627 27.8864 13.9427 27.8864ZM13.9627 9.1364C12.9027 9.1364 12.0327 8.2764 12.0327 7.2164C12.0327 6.1364 12.9027 5.2764 13.9627 5.2764C15.0227 5.2764 15.8727 6.1364 15.8727 7.2164C15.8727 8.2764 15.0227 9.1364 13.9627 9.1364ZM13.9427 15.9664C13.6827 15.9664 13.4927 16.1164 13.4127 16.4164L12.1027 21.4464C11.8127 22.5864 10.2627 22.1864 10.4227 21.1264C10.4827 20.7164 11.6227 16.4464 11.7827 15.4864C11.8927 14.7764 11.8527 13.0064 11.8527 12.2064C11.8527 11.9664 11.6527 11.8364 11.4027 11.9364L9.1727 12.8364C8.5827 13.0864 8.1627 12.7864 8.0527 12.3764C7.9127 11.9864 8.0927 11.5264 8.6427 11.3064L11.0427 10.2964C11.6027 10.0864 12.1027 9.9564 12.6627 9.8864C13.0527 10.0764 13.4827 10.1764 13.9427 10.1764C14.4127 10.1764 14.8427 10.0764 15.2327 9.8864C15.7927 9.9564 16.2827 10.0864 16.8427 10.2964L19.2527 11.3064C19.8127 11.5264 19.9727 11.9864 19.8527 12.3764C19.7427 12.7864 19.3227 13.0864 18.7327 12.8364L16.4927 11.9364C16.2427 11.8364 16.0527 11.9664 16.0527 12.2064C16.0527 13.0064 15.9927 14.7764 16.1227 15.4864C16.2727 16.4464 17.4027 20.7164 17.4727 21.1264C17.6227 22.1864 16.0827 22.5864 15.7927 21.4464L14.4827 16.4164C14.3927 16.1164 14.2027 15.9664 13.9427 15.9664Z"
        fillRule="evenodd"
        clipRule="evenodd"
    />
</svg>
        