
<svg
    viewBox={0 0 27.890625 27.890625}
    xmlns="http://www.w3.org/2000/svg"
>
    <path
        fill="inherit"
        d="M13.9427 27.8864C21.6427 27.8864 27.8927 21.6464 27.8927 13.9464C27.8927 6.2464 21.6427 -0.0036 13.9427 -0.0036C6.2527 -0.0036 0.0027 6.2464 0.0027 13.9464C0.0027 21.6464 6.2527 27.8864 13.9427 27.8864ZM13.9427 25.5664C7.5227 25.5664 2.3227 20.3664 2.3227 13.9464C2.3227 7.5164 7.5227 2.3264 13.9427 2.3264C20.3727 2.3264 25.5627 7.5164 25.5627 13.9464C25.5627 20.3664 20.3727 25.5664 13.9427 25.5664ZM14.2727 8.6164C15.1727 8.6164 15.9127 7.8864 15.9127 6.9564C15.9127 6.0564 15.1727 5.3164 14.2727 5.3164C13.3427 5.3164 12.6227 6.0564 12.6227 6.9564C12.6227 7.8864 13.3427 8.6164 14.2727 8.6164ZM20.5127 10.9464C20.9327 10.9464 21.2827 10.6064 21.2827 10.1864C21.2827 9.7464 20.9327 9.4064 20.5127 9.4064H12.6727C11.9327 9.4064 11.3027 9.7864 10.9527 10.4764L7.5327 17.3064L5.6027 15.3964C5.2927 15.0964 4.8127 15.0964 4.5227 15.3964C4.2227 15.6964 4.2127 16.1564 4.5227 16.4764L7.2327 19.1964C7.5627 19.5264 8.0827 19.4864 8.3427 19.0964L10.5727 15.8364C10.6927 15.6364 10.9527 15.6264 11.1327 15.7364L13.8727 17.8564V21.6864C13.8727 22.1064 14.2227 22.4364 14.6427 22.4364C15.0627 22.4364 15.4227 22.1064 15.4227 21.6864V17.4564C15.4227 17.2564 15.3227 17.0664 15.1927 16.9264L12.5127 14.2464L13.9627 11.3564C14.0927 11.0864 14.3427 10.9464 14.6327 10.9464ZM19.9227 12.7564C19.9227 13.5064 20.7827 14.1064 21.8427 14.1064C22.9027 14.1064 23.7627 13.5064 23.7627 12.7564C23.7627 12.0264 22.9027 11.4264 21.8427 11.4264C20.7827 11.4264 19.9227 12.0264 19.9227 12.7564ZM15.7927 14.3964H18.5927C19.0127 14.3964 19.3427 14.0564 19.3427 13.6264C19.3427 13.2064 19.0127 12.8664 18.5927 12.8664H16.1227L14.8627 11.6064H14.6327C14.5727 11.6064 14.5727 11.6064 14.5427 11.6664L13.9427 12.8564L15.2627 14.1764C15.3927 14.3164 15.6027 14.3964 15.7927 14.3964Z"
        fillRule="evenodd"
        clipRule="evenodd"
    />
</svg>
        