
<svg
    viewBox={0 0 27.890625 27.890625}
    xmlns="http://www.w3.org/2000/svg"
>
    <path
        fill="inherit"
        d="M13.9427 27.8864C21.6427 27.8864 27.8927 21.6264 27.8927 13.9464C27.8927 6.2464 21.6427 -0.0036 13.9427 -0.0036C6.2627 -0.0036 0.0027 6.2464 0.0027 13.9464C0.0027 21.6264 6.2627 27.8864 13.9427 27.8864ZM19.8127 9.6664C18.9127 9.6664 18.1727 8.9264 18.1727 8.0264C18.1727 7.1064 18.9127 6.3964 19.8127 6.3964C20.7427 6.3964 21.4327 7.1064 21.4327 8.0264C21.4327 8.9264 20.7427 9.6664 19.8127 9.6664ZM15.5127 21.4264C12.5327 21.4264 10.2127 19.1264 10.2127 16.1364C10.2127 15.0364 10.5427 14.0964 11.0327 13.3264C11.5827 12.5364 12.6027 13.1764 12.0827 13.9564C11.6727 14.5564 11.4527 15.2964 11.4527 16.1364C11.4527 18.4464 13.2327 20.2064 15.5127 20.2064C17.8127 20.2064 19.5927 18.4464 19.5927 16.1864C19.5927 15.8464 19.4127 15.5964 19.1227 15.5464L15.9727 14.7364C14.9127 14.4764 14.3727 13.3964 15.0527 12.4164L16.2427 10.7064C16.3827 10.4964 16.3527 10.3364 16.1327 10.1864L14.6827 9.1864L12.5927 10.6264C11.6527 11.2364 10.7327 9.9764 11.7127 9.2964L14.2627 7.5864C14.5727 7.3964 14.9427 7.3964 15.2827 7.6064L18.0227 9.5064C18.9227 10.1564 19.1427 10.8664 18.5427 11.7464L17.8127 12.8364C17.6927 12.9564 17.7327 13.0464 17.8927 13.0864L19.0427 13.4964C20.2627 13.9164 20.8227 14.7564 20.8227 16.1364C20.8227 19.1264 18.5127 21.4264 15.5127 21.4264ZM5.0627 12.2264C4.7427 12.2264 4.5227 11.9664 4.5227 11.6664C4.5227 11.3564 4.7427 11.1064 5.0627 11.1064H8.4327C8.7527 11.1064 8.9827 11.3464 8.9827 11.6664C8.9827 11.9764 8.7527 12.2264 8.4327 12.2264ZM4.4027 14.9164C4.1027 14.9164 3.8727 14.6964 3.8727 14.3664C3.8727 14.0864 4.1027 13.8064 4.4027 13.8064H8.4327C8.7527 13.8064 8.9827 14.0564 8.9827 14.3664C8.9827 14.6964 8.7527 14.9164 8.4327 14.9164ZM6.4927 17.6264C6.1827 17.6264 5.9627 17.4064 5.9627 17.0664C5.9627 16.7464 6.1827 16.5064 6.4927 16.5064H8.4327C8.7527 16.5064 8.9827 16.7464 8.9827 17.0664C8.9827 17.4064 8.7527 17.6264 8.4327 17.6264ZM20.7927 21.4264C20.2927 21.4264 19.9227 21.0564 19.9227 20.5764C19.9227 20.0964 20.2927 19.6864 20.7927 19.6864C21.2727 19.6864 21.6727 20.0964 21.6727 20.5764C21.6727 21.0564 21.2727 21.4264 20.7927 21.4264Z"
        fillRule="evenodd"
        clipRule="evenodd"
    />
</svg>
        