
<svg
    viewBox={0 0 27.890625 27.890625}
    xmlns="http://www.w3.org/2000/svg"
>
    <path
        fill="inherit"
        d="M13.9427 27.8864C21.6427 27.8864 27.8927 21.6264 27.8927 13.9464C27.8927 6.2464 21.6427 -0.0036 13.9427 -0.0036C6.2627 -0.0036 0.0027 6.2464 0.0027 13.9464C0.0027 21.6264 6.2627 27.8864 13.9427 27.8864ZM13.8927 7.1664C12.9627 7.1664 12.1827 6.4164 12.1827 5.4664C12.1827 4.5364 12.9627 3.7564 13.8927 3.7564C14.8227 3.7564 15.5827 4.5364 15.5827 5.4664C15.5827 6.4164 14.8227 7.1664 13.8927 7.1664ZM14.9027 19.9364C14.4127 19.8064 14.2627 19.3764 14.3727 18.9764L15.2627 16.0364L12.0027 15.2564C10.7327 14.9664 10.3627 14.2164 10.5027 13.0964L10.8727 10.2264C10.8827 10.0864 10.7627 10.0364 10.6827 10.0864L9.5727 10.7864V13.4764C9.5727 13.9164 9.2327 14.2764 8.7927 14.2764C8.3827 14.2764 8.0127 13.9164 8.0127 13.4764V10.3464C8.0127 10.0764 8.1527 9.8264 8.3827 9.6964L10.8927 8.1064C11.4027 7.7964 12.0627 7.6264 12.8427 7.7764L13.2727 7.8764C14.0127 8.0164 14.5927 8.4664 14.9327 9.1064L15.9427 11.1464H18.5827C19.0127 11.1464 19.3727 11.4964 19.3727 11.9264C19.3727 12.3464 19.0127 12.6864 18.5827 12.6864H15.4527C15.1727 12.6864 14.9127 12.5464 14.7827 12.2664L14.0927 10.9964C14.0427 10.8564 13.8327 10.8864 13.8227 11.0464L13.4427 13.6464L16.5027 14.7064C16.9427 14.8464 17.1127 15.2564 16.9927 15.6864L15.8627 19.4164C15.7127 19.9164 15.2027 20.0264 14.9027 19.9364ZM9.1427 22.7664C8.7727 22.5264 8.6827 22.0364 8.9327 21.6864L11.1527 18.3364L11.3227 15.8764C11.4727 15.9264 11.6527 15.9964 11.8227 16.0364L13.0427 16.3264L12.7127 18.6064C12.6827 18.8164 12.6327 18.9364 12.5227 19.0864L10.2227 22.5264C9.9427 22.9364 9.4327 22.9364 9.1427 22.7664ZM12.2327 24.0364C11.9727 24.0364 11.7627 23.8064 11.7627 23.5264C11.7627 23.2964 11.9727 23.0664 12.2327 23.0664H14.2727V21.6164C14.2727 21.3464 14.5027 21.1364 14.7527 21.1364H16.7927V19.6764C16.7927 19.4164 16.9927 19.1964 17.2627 19.1964H19.3027V17.7164C19.3027 17.4764 19.5127 17.2364 19.7827 17.2364H22.2027C22.4927 17.2364 22.6927 17.4764 22.6927 17.7164C22.6927 17.9764 22.4727 18.2064 22.2027 18.2064H20.2627V19.6764C20.2627 19.9164 20.0727 20.1564 19.7827 20.1564H17.7327V21.6164C17.7327 21.8764 17.5127 22.0964 17.2627 22.0964H15.2427V23.5264C15.2427 23.8064 15.0427 24.0364 14.7527 24.0364Z"
        fillRule="evenodd"
        clipRule="evenodd"
    />
</svg>
        