
<svg
    viewBox="0 0 27.890625 27.890625"
    xmlns="http://www.w3.org/2000/svg"
>
    <path
        fill="inherit"
        d="M13.9427 27.8864C21.6427 27.8864 27.8927 21.6464 27.8927 13.9464C27.8927 6.2464 21.6427 -0.0036 13.9427 -0.0036C6.2527 -0.0036 0.0027 6.2464 0.0027 13.9464C0.0027 21.6464 6.2527 27.8864 13.9427 27.8864ZM13.9427 25.5664C7.5227 25.5664 2.3227 20.3664 2.3227 13.9464C2.3227 7.5164 7.5227 2.3264 13.9427 2.3264C20.3727 2.3264 25.5627 7.5164 25.5627 13.9464C25.5627 20.3664 20.3727 25.5664 13.9427 25.5664ZM9.5527 6.2764L9.7027 8.9164C9.7227 9.3964 9.9127 9.6764 10.2527 9.9364L11.8927 11.1264C12.1027 11.2664 12.1927 11.3764 12.1927 11.7264V21.5864C12.1927 21.9964 12.5227 22.3164 12.9427 22.3164C13.3527 22.3164 13.6827 21.9964 13.6827 21.5864V16.2864C13.6827 16.1464 13.7927 16.0364 13.9327 16.0364C14.0727 16.0364 14.1827 16.1464 14.1827 16.2864V21.5864C14.1827 21.9964 14.5027 22.3164 14.9127 22.3164C15.3427 22.3164 15.6727 21.9964 15.6727 21.5864V12.8364C15.6727 12.6864 15.7627 12.5964 15.9027 12.5964C16.0327 12.5964 16.1427 12.6864 16.1427 12.8364V15.7464C16.1427 16.1164 16.4427 16.4164 16.8127 16.4164C17.1827 16.4164 17.4727 16.1164 17.4727 15.7464V12.4964C17.4727 10.8264 16.2527 9.7064 14.4827 9.7064H12.9227C12.4727 9.7064 12.1827 9.6264 11.8127 9.3764L11.0427 8.8164L10.8827 6.2064C10.8727 5.8264 10.5527 5.5364 10.1827 5.5464C9.8127 5.5964 9.5427 5.8964 9.5527 6.2764ZM13.9327 8.8564C14.8327 8.8564 15.5827 8.1364 15.5827 7.2364C15.5827 6.3164 14.8327 5.5764 13.9327 5.5764C13.0327 5.5764 12.2727 6.3164 12.2727 7.2364C12.2727 8.1364 13.0327 8.8564 13.9327 8.8564Z"
        fillRule="evenodd"
        clipRule="evenodd"
    />
</svg>
        