
<svg
    viewBox={0 0 26.747628038344416 30.48828125}
    xmlns="http://www.w3.org/2000/svg"
>
    <path
        fill="inherit"
        d="M9.1842 5.8966C10.8242 5.8966 12.1442 4.5966 12.1442 2.9566C12.1442 1.3166 10.8242 -0.0034 9.1842 -0.0034C7.5442 -0.0034 6.2342 1.3166 6.2342 2.9566C6.2342 4.5966 7.5442 5.8966 9.1842 5.8966ZM4.4742 30.4866C5.1142 30.4866 5.5542 30.1366 5.7842 29.2866C6.2442 27.6066 7.6342 21.8766 8.0942 20.4966C8.4042 19.5066 8.6242 19.1266 9.1842 19.1266C9.7442 19.1266 9.9642 19.5066 10.2842 20.4966C10.7442 21.8766 12.1242 27.6066 12.5942 29.2866C12.8242 30.1366 13.2642 30.4866 13.9042 30.4866C14.7842 30.4866 15.3142 29.6966 15.0642 28.8366C14.9742 28.4666 12.9842 20.1766 12.7042 18.4666C12.4742 16.9666 12.4142 13.9266 12.4142 12.4966C12.4142 12.2766 12.6642 12.1966 12.7942 12.3866L14.3442 14.5466C14.5042 13.7266 15.2742 12.8366 16.4242 12.8066L14.3042 9.7166C13.1542 8.0566 11.7842 7.3266 9.1842 7.3266C6.5942 7.3266 5.1942 8.0666 4.0742 9.7166L0.5342 14.9266C0.3942 15.1366 0.2442 15.3366 0.1342 15.5466C-0.1458 16.0666 0.0042 16.8166 0.7142 17.1866C1.2442 17.4866 1.9042 17.4066 2.2942 16.9366C2.6642 16.5066 4.5542 13.8366 5.5742 12.3866C5.7042 12.2066 5.9642 12.2766 5.9642 12.5066C5.9642 13.9466 5.8942 16.9666 5.6642 18.4666C5.3842 20.1766 3.4042 28.4666 3.3042 28.8366C3.0642 29.6966 3.5942 30.4866 4.4742 30.4866ZM20.6842 15.3366C21.8942 15.3366 22.8842 14.3566 22.8842 13.1566C22.8842 11.9466 21.8942 10.9666 20.6842 10.9666C19.4842 10.9666 18.4942 11.9466 18.4942 13.1566C18.4942 14.3566 19.4842 15.3366 20.6842 15.3366ZM17.6542 30.4866C18.1742 30.4866 18.5942 30.1866 18.7742 29.5066C19.0542 28.4766 19.8942 24.9466 20.1642 24.0866C20.3542 23.5266 20.3942 23.4866 20.5542 23.4866C20.7042 23.4866 20.7242 23.5266 20.9142 24.0866C21.1942 24.9466 22.0242 28.4766 22.3242 29.5066C22.4942 30.1866 22.9242 30.4866 23.4442 30.4866C24.2242 30.4866 24.6742 29.7666 24.4842 29.0566C24.4142 28.8166 23.2242 23.7466 23.0342 22.6766C22.9242 22.0266 22.8742 20.8766 22.8742 20.3966C22.8742 20.1766 23.1342 20.1066 23.2542 20.2866L25.0042 22.8166C25.3742 23.3466 25.9742 23.3666 26.3642 23.0766C26.7242 22.8366 26.9042 22.3266 26.5642 21.8066L24.2942 18.3066C23.5142 17.1066 22.2842 16.6266 21.0242 16.6266H20.5542C19.6342 16.6266 19.2342 16.3366 18.6242 15.6766L17.1742 14.1366C16.8042 13.7566 16.0742 13.7366 15.6642 14.2166C15.2842 14.5966 15.1742 15.1666 15.4942 15.6366C15.6442 15.8766 16.8942 17.2766 17.8842 18.5166C18.1042 18.7866 18.2242 19.0466 18.2242 19.4366C18.2242 20.1266 18.1942 21.8366 18.0642 22.6766C17.8742 23.7466 16.6842 28.8166 16.5942 29.0566C16.4242 29.7666 16.8742 30.4866 17.6542 30.4866Z"
        fillRule="evenodd"
        clipRule="evenodd"
    />
</svg>
        