<svg viewBox="0 0 27.890625 27.890625" xmlns="http://www.w3.org/2000/svg"><path d="M13.9427 27.8864C21.6427 27.8864 27.8927 21.6464 27.8927 13.9464C27.8927 6.2464 21.6427 -0.0036 13.9427 -0.0036C6.2527 -0.0036 0.0027 6.2464 0.0027 13.9464C0.0027 21.6464 6.2527 27.8864 13.9427 27.8864ZM13.9427 25.5664C7.5227 25.5664 2.3227 20.3664 2.3227 13.9464C2.3227 7.5164 7.5227 2.3264 13.9427 2.3264C20.3727 2.3264 25.5627 7.5164 25.5627 13.9464C25.5627 20.3664 20.3727 25.5664 13.9427 25.5664ZM8.8227 9.2864C9.7227 9.2864 10.4627 8.5464 10.4627 7.6264C10.4627 6.7264 9.7227 5.9864 8.8227 5.9864C7.9127 5.9864 7.1627 6.7264 7.1627 7.6264C7.1627 8.5464 7.9127 9.2864 8.8227 9.2864ZM5.7527 16.9364L7.1527 16.0964V18.9464C7.5227 18.7064 7.9827 18.4264 8.7327 18.2664L8.8627 17.2564C8.8627 17.1764 8.9827 17.1564 8.9927 17.2164L9.4727 18.1564C9.6827 18.1464 9.9027 18.1264 10.1327 18.1264C10.5427 18.1264 10.8927 18.1564 11.2227 18.1964L10.4427 16.1564V14.0664L20.1927 8.0964C20.4027 7.9664 20.4527 7.6964 20.3127 7.4764C20.1927 7.2764 19.9327 7.2164 19.7327 7.3564L10.4427 13.0464V11.6064C10.4427 10.7764 9.8727 10.0764 8.8227 10.0764H8.4727C7.8427 10.0764 7.1527 10.1564 6.5327 10.7764L4.8127 12.4864C4.5227 12.7564 4.5427 13.2464 4.8127 13.5264L6.6727 15.3564L5.2927 16.1964C5.0827 16.3364 5.0327 16.5964 5.1527 16.8064C5.2927 17.0064 5.5327 17.0764 5.7527 16.9364ZM7.1527 13.7964L6.3827 13.0064L6.9227 12.4564C7.0127 12.3564 7.1527 12.4164 7.1527 12.5364ZM14.0127 21.3564C16.0927 21.3564 16.5327 20.1064 17.8927 20.1064C19.2627 20.1064 19.7127 21.3564 21.7827 21.3564H21.8027C22.0627 21.3564 22.2827 21.1364 22.2827 20.8864C22.2827 20.6464 22.0627 20.4264 21.8027 20.4264H21.7827C20.3427 20.4264 19.8627 19.1664 17.8927 19.1664C15.9327 19.1664 15.4327 20.4264 14.0127 20.4264C12.5927 20.4264 12.1127 19.1664 10.1327 19.1664C8.1727 19.1664 7.6727 20.4264 6.2627 20.4264H6.2227C5.9427 20.4264 5.7527 20.6464 5.7527 20.8864C5.7527 21.1364 5.9427 21.3564 6.2227 21.3564H6.2627C8.3127 21.3564 8.7727 20.1064 10.1327 20.1064C11.5027 20.1064 11.9527 21.3564 14.0127 21.3564Z" /></svg>