
<svg
    viewBox="0 0 29.279563510131336 24.89958492147652"
    xmlns="http://www.w3.org/2000/svg"
>
    <path
        fill="inherit"
        d="M14.7096 5.9709C16.3496 5.9709 17.6896 4.6309 17.6896 2.9709C17.6896 1.3309 16.3496 0.0009 14.7096 0.0009C13.0396 0.0009 11.7096 1.3309 11.7096 2.9709C11.7096 4.6309 13.0396 5.9709 14.7096 5.9709ZM1.9896 18.6209L8.8596 19.1909C10.0896 19.3009 10.3496 19.3909 11.5196 19.7109L19.8896 22.0709L27.4096 24.8109C28.0596 25.0509 28.9496 24.8109 29.2096 23.9809C29.4296 23.2609 29.0996 22.4609 28.3796 22.2009L20.8696 19.4709C20.7496 19.4309 20.4996 19.3309 20.4096 19.2909L14.5696 17.1809C15.3496 15.6909 16.3996 13.3009 16.6796 10.7009C16.6996 10.4009 16.8896 10.2509 17.1696 10.2509H27.1996C27.9796 10.2509 28.5796 9.6209 28.5796 8.8609C28.5796 8.0809 27.9796 7.4609 27.1996 7.4609H16.1996C14.3496 7.4609 14.1896 7.4509 12.1796 6.9009L1.7696 4.0209C1.0196 3.8109 0.2696 4.2509 0.0496 4.9909C-0.1504 5.7409 0.2796 6.5109 1.0196 6.7109L10.7296 9.3909C10.9696 9.4609 11.1396 9.6509 11.1096 9.9409C10.7996 12.3909 9.6096 14.7509 8.9796 15.8309H3.4996V10.2509C3.4996 9.4909 2.8396 8.8609 2.0896 8.8609C1.3196 8.8609 0.6896 9.4909 0.6896 10.2509V17.2109C0.6896 18.0309 1.0596 18.5209 1.9896 18.6209Z"
        fillRule="evenodd"
        clipRule="evenodd"
    />
</svg>
        