<svg viewBox="0 0 27.890625 27.890625" xmlns="http://www.w3.org/2000/svg"><path d="M13.9427 27.8864C21.6427 27.8864 27.8927 21.6264 27.8927 13.9464C27.8927 6.2464 21.6427 -0.0036 13.9427 -0.0036C6.2627 -0.0036 0.0027 6.2464 0.0027 13.9464C0.0027 21.6264 6.2627 27.8864 13.9427 27.8864ZM14.2827 8.4464C13.3327 8.4464 12.5827 7.6964 12.5827 6.7364C12.5827 5.8064 13.3327 5.0564 14.2827 5.0564C15.2127 5.0564 15.9527 5.8064 15.9527 6.7364C15.9527 7.6964 15.2127 8.4464 14.2827 8.4464ZM20.7127 10.8564H14.6427C14.3527 10.8564 14.0927 11.0064 13.9627 11.2764L12.4727 14.2564L15.2327 17.0264C15.3627 17.1564 15.4627 17.3664 15.4627 17.5664V21.9264C15.4627 22.3664 15.0927 22.7064 14.6527 22.7064C14.2327 22.7064 13.8727 22.3664 13.8727 21.9264V17.9764L11.0327 15.7864C10.8527 15.6864 10.5827 15.6964 10.4627 15.8864L8.1627 19.2664C7.8927 19.6564 7.3527 19.6964 7.0227 19.3564L4.2227 16.5564C3.9127 16.2264 3.9227 15.7464 4.2227 15.4364C4.5227 15.1364 5.0127 15.1364 5.3427 15.4364L7.3327 17.4164L10.8527 10.3664C11.2227 9.6664 11.8627 9.2664 12.6327 9.2664H20.7127C21.1527 9.2664 21.5227 9.6064 21.5227 10.0664C21.5227 10.4964 21.1527 10.8564 20.7127 10.8564ZM20.0927 12.7164C20.0927 11.9764 20.9827 11.3464 22.0927 11.3464C23.1727 11.3464 24.0627 11.9764 24.0627 12.7164C24.0627 13.4964 23.1727 14.1064 22.0927 14.1064C20.9827 14.1064 20.0927 13.4964 20.0927 12.7164ZM15.8427 14.4064C15.6527 14.4064 15.4327 14.3264 15.3027 14.1864L13.9427 12.8264L14.5627 11.5964C14.5927 11.5364 14.5927 11.5364 14.6427 11.5364H14.8927L16.1827 12.8364H18.7327C19.1727 12.8364 19.5127 13.1764 19.5127 13.6164C19.5127 14.0564 19.1727 14.4064 18.7327 14.4064Z" /></svg>