
<svg
    viewBox="0 0 27.890625 27.890625"
    xmlns="http://www.w3.org/2000/svg"
>
    <path
        fill="inherit"
        d="M13.9427 27.8864C21.6427 27.8864 27.8927 21.6464 27.8927 13.9464C27.8927 6.2464 21.6427 -0.0036 13.9427 -0.0036C6.2527 -0.0036 0.0027 6.2464 0.0027 13.9464C0.0027 21.6464 6.2527 27.8864 13.9427 27.8864ZM13.9427 25.5664C7.5227 25.5664 2.3227 20.3664 2.3227 13.9464C2.3227 7.5164 7.5227 2.3264 13.9427 2.3264C20.3727 2.3264 25.5627 7.5164 25.5627 13.9464C25.5627 20.3664 20.3727 25.5664 13.9427 25.5664ZM14.6727 8.5464C15.5827 8.5464 16.3227 7.8064 16.3227 6.9064C16.3227 6.0064 15.5827 5.2664 14.6727 5.2664C13.7627 5.2664 13.0327 6.0064 13.0327 6.9064C13.0327 7.8064 13.7627 8.5464 14.6727 8.5464ZM8.8027 20.8264C8.3927 21.2464 8.4727 21.7264 8.7727 21.9964C9.0527 22.2464 9.5127 22.2964 9.9027 21.9164L12.7827 19.0264C12.8427 18.9764 12.8527 18.9664 12.9027 18.8564L14.3327 16.1864C14.5427 15.8064 15.0927 15.7764 15.4327 16.0364L18.6627 18.4964V21.8064C18.6627 22.3264 18.9727 22.6264 19.4427 22.6264C19.9227 22.6264 20.2227 22.3264 20.2227 21.8064V18.1064C20.2227 17.8864 20.1427 17.6864 19.9327 17.4964L16.3127 14.3964V11.0064C16.3127 10.8164 16.4327 10.6664 16.6527 10.6264L21.9727 9.8264C22.3927 9.7664 22.6927 9.3564 22.6227 8.9364C22.5627 8.5064 22.1627 8.2064 21.7427 8.2764L10.4627 9.9764V8.1464C10.8927 7.9664 11.2927 7.6964 11.5827 7.3664C11.7727 7.1364 11.7727 6.8664 11.5827 6.6264C10.9927 5.9864 9.9927 5.5664 9.1027 5.5664C8.2327 5.5664 7.2327 5.9864 6.6427 6.6264C6.4427 6.8664 6.4427 7.1364 6.6427 7.3664C7.1927 7.9864 8.0927 8.3764 8.9127 8.4364V10.9064C8.9127 11.3864 9.3127 11.7264 9.8027 11.6464L12.4027 11.2664C12.6327 11.2364 12.7927 11.3764 12.7927 11.6164V14.6664L11.5627 18.0564Z"
        fillRule="evenodd"
        clipRule="evenodd"
    />
</svg>
        