
<svg
    viewBox={0 0 29.708984375 33.796875}
    xmlns="http://www.w3.org/2000/svg"
>
    <path
        fill="inherit"
        d="M22.4337 5.9738C24.0637 5.9738 25.4137 4.6338 25.4137 2.9938C25.4137 1.3538 24.0637 0.0038 22.4337 0.0038C20.7937 0.0038 19.4437 1.3538 19.4437 2.9938C19.4437 4.6338 20.7937 5.9738 22.4337 5.9738ZM0.7637 9.5438H9.6437L9.3837 9.7938C8.2137 10.9338 8.2137 12.8938 9.3837 14.0238L11.8137 16.4338V18.4838L9.3537 16.0338C9.0337 15.7238 8.5737 15.7238 8.2737 16.0238C7.9837 16.3238 7.9837 16.7938 8.2737 17.0938L11.8137 20.6138V22.7538L5.8237 16.7638C5.5137 16.4638 5.0337 16.4638 4.7437 16.7638C4.4437 17.0438 4.4437 17.5238 4.7437 17.8238L19.5237 32.6038C20.3837 33.4638 21.3237 33.7938 22.3837 33.7938C22.8037 33.7938 23.1437 33.4538 23.1437 33.0338C23.1437 32.6038 22.8037 32.2838 22.3837 32.2838C21.4337 32.2838 21.1737 32.1138 20.3837 31.3338L14.1637 25.1038C14.4337 24.8538 14.6037 24.4838 14.6037 24.0938V23.4238L23.0537 31.8738C23.9137 32.7338 24.8537 33.0538 25.9237 33.0538C26.3437 33.0538 26.6737 32.7138 26.6737 32.2938C26.6737 31.8738 26.3437 31.5438 25.9237 31.5438C24.9737 31.5438 24.7037 31.3738 23.9137 30.5938L18.1037 24.7738C18.3637 24.5238 18.5237 24.1538 18.5237 23.7638V17.1738C18.5237 16.7938 18.4037 16.4238 18.1437 16.1838L14.5237 12.5738L17.7437 9.3338C17.9537 9.1338 18.2937 9.1338 18.4937 9.3338L20.7537 11.6038C21.0037 11.8638 21.3737 12.0038 21.7237 12.0038H28.1637V23.7238C28.1637 24.1338 28.5037 24.4838 28.9137 24.4838C29.3237 24.4838 29.6837 24.1338 29.6837 23.7238V10.9238C29.7137 10.8238 29.7137 10.7038 29.7137 10.5938C29.7137 9.8338 29.0937 9.2038 28.3137 9.2038H22.3037L17.4037 4.2838C16.7937 3.6538 15.8837 3.2938 15.0137 3.2938H9.8537C8.4637 3.2938 8.0537 4.8238 8.9237 5.7038L11.2237 7.9838L11.1837 8.0238H0.7637C0.3437 8.0238 0.0037 8.3638 0.0037 8.7938C0.0037 9.2038 0.3437 9.5438 0.7637 9.5438ZM14.6037 16.6238L15.7337 17.7438V22.4038L14.6037 21.2838Z"
        fillRule="evenodd"
        clipRule="evenodd"
    />
</svg>
        