
<svg
    viewBox="0 0 20.182080146779136 33.796875"
    xmlns="http://www.w3.org/2000/svg"
>
    <path
        fill="inherit"
        d="M11.2827 5.977C12.9227 5.977 14.2427 4.637 14.2427 2.967C14.2427 1.327 12.9227 -0.003 11.2827 -0.003C9.6127 -0.003 8.2727 1.327 8.2727 2.967C8.2727 4.637 9.6127 5.977 11.2827 5.977ZM14.4727 13.957C15.0427 14.547 16.1227 14.507 16.6127 13.727L19.9327 8.397C20.9627 6.757 18.5527 5.437 17.6127 6.947L15.2027 10.827L13.3127 8.927C11.4927 7.127 9.5127 6.757 6.7527 7.067L1.8827 7.617C1.2527 7.687 0.7627 8.187 0.6927 8.787L0.0127 14.167C-0.2073 15.887 2.4727 16.337 2.7027 14.497L3.2527 10.197L5.7927 9.917C6.1527 9.887 6.3927 10.117 6.3427 10.517L5.7027 15.777C5.3827 18.267 6.8227 19.697 9.2827 19.527L14.3127 19.167L12.8127 24.647C12.3027 26.497 14.9727 27.137 15.4527 25.347L17.4327 18.047C17.6727 17.117 17.0527 16.327 16.0127 16.327H10.8127L11.4727 11.837C11.5427 11.407 11.9327 11.387 12.1827 11.667ZM7.0527 20.567L6.7227 25.427L4.1527 31.857C3.7027 33.007 4.5227 33.797 5.3727 33.797C5.9027 33.797 6.4427 33.507 6.7127 32.827L9.3327 26.237C9.3627 26.137 9.4027 26.027 9.4227 25.937L10.1827 20.797L9.3827 20.847C8.5127 20.907 7.7227 20.797 7.0527 20.567Z"
        fillRule="evenodd"
        clipRule="evenodd"
    />
</svg>
        