
<svg
    viewBox={0 0 27.890625 27.890625}
    xmlns="http://www.w3.org/2000/svg"
>
    <path
        fill="inherit"
        d="M13.9437 27.8864C21.6437 27.8864 27.8937 21.6464 27.8937 13.9464C27.8937 6.2464 21.6437 -0.0036 13.9437 -0.0036C6.2437 -0.0036 0.0037 6.2464 0.0037 13.9464C0.0037 21.6464 6.2437 27.8864 13.9437 27.8864ZM13.9437 25.5664C7.5237 25.5664 2.3237 20.3664 2.3237 13.9464C2.3237 7.5164 7.5237 2.3264 13.9437 2.3264C20.3737 2.3264 25.5637 7.5164 25.5637 13.9464C25.5637 20.3664 20.3737 25.5664 13.9437 25.5664ZM16.5437 9.2864C17.4437 9.2864 18.1837 8.5464 18.1837 7.6264C18.1837 6.7164 17.4437 5.9764 16.5437 5.9764C15.6237 5.9764 14.8937 6.7164 14.8937 7.6264C14.8937 8.5464 15.6237 9.2864 16.5437 9.2864ZM10.9937 20.1264C11.2837 20.2864 11.7837 20.2164 12.0037 19.7864L13.8937 16.0064C14.0237 15.7264 13.9837 15.3764 13.7437 15.1464L11.4737 12.8564L12.6237 12.2764L16.2237 15.8864V16.0464C16.2237 16.4764 16.5737 16.8064 16.9937 16.8064C17.0337 16.8064 17.0937 16.7864 17.1337 16.7864L20.0537 19.7164C20.2037 19.8564 20.2937 19.8764 20.4437 19.8764H22.4937C22.7137 19.8764 22.9037 19.6864 22.9037 19.4564V19.0864C22.9037 18.8564 22.7137 18.6464 22.4937 18.6464H20.1937L17.7337 16.1864C17.7337 16.1464 17.7437 16.0964 17.7437 16.0464V12.6564C17.7437 12.4564 17.7037 12.2664 17.5237 12.1164L14.1137 8.7264C13.7237 8.3364 13.2237 8.1364 12.6837 8.1364H9.7937C9.0237 8.1364 8.8337 8.9364 9.2837 9.4064L10.1737 10.3064L9.8037 10.4464C8.4237 10.9964 8.0437 12.8064 9.3337 13.7664L12.2537 15.8964L10.6537 19.1164C10.4737 19.4864 10.6237 19.9164 10.9937 20.1264ZM14.3437 11.4164C14.4737 11.3364 14.6437 11.3764 14.7337 11.4664L16.2237 12.9564V14.6864L13.4237 11.8664ZM4.8037 17.1964H8.3137C8.6037 17.1964 8.8437 17.0064 8.9737 16.7664L9.8737 14.9664L8.9437 14.2864C8.6937 14.1264 8.4937 13.9164 8.3937 13.7564L7.7637 15.6864H4.8037C4.3737 15.6864 4.0437 16.0064 4.0437 16.4364C4.0437 16.8464 4.3737 17.1964 4.8037 17.1964Z"
        fillRule="evenodd"
        clipRule="evenodd"
    />
</svg>
        