
<svg
    viewBox={0 0 18.373298405068496 30.48828125}
    xmlns="http://www.w3.org/2000/svg"
>
    <path
        fill="inherit"
        d="M9.1842 5.8966C10.8242 5.8966 12.1442 4.5966 12.1442 2.9566C12.1442 1.3166 10.8242 -0.0034 9.1842 -0.0034C7.5442 -0.0034 6.2342 1.3166 6.2342 2.9566C6.2342 4.5966 7.5442 5.8966 9.1842 5.8966ZM9.1842 19.1266C9.7442 19.1266 9.9642 19.5066 10.2842 20.4966C10.7442 21.8766 12.1242 27.6066 12.5942 29.2866C12.8242 30.1366 13.2642 30.4866 13.9042 30.4866C14.7842 30.4866 15.3142 29.6966 15.0642 28.8366C14.9742 28.4666 12.9842 20.1766 12.7042 18.4666C12.4742 16.9666 12.4142 13.9266 12.4142 12.4966C12.4142 12.2766 12.6642 12.1966 12.7942 12.3866C13.8242 13.8266 15.6942 16.5066 16.0642 16.9366C16.4742 17.4066 17.1342 17.4866 17.6642 17.1866C18.3642 16.8166 18.5242 16.0666 18.2342 15.5466C18.1342 15.3366 17.9742 15.1366 17.8442 14.9266L14.3042 9.7166C13.1842 8.0666 11.7842 7.3266 9.1842 7.3266C6.5942 7.3266 5.1942 8.0666 4.0742 9.7166L0.5342 14.9266C0.3942 15.1366 0.2442 15.3366 0.1342 15.5466C-0.1458 16.0666 0.0042 16.8166 0.7142 17.1866C1.2442 17.4866 1.9042 17.4066 2.2942 16.9366C2.6642 16.5066 4.5542 13.8366 5.5742 12.3866C5.7042 12.2066 5.9642 12.2766 5.9642 12.5066C5.9642 13.9466 5.8942 16.9666 5.6642 18.4666C5.3842 20.1766 3.4042 28.4666 3.3042 28.8366C3.0642 29.6966 3.5942 30.4866 4.4742 30.4866C5.1142 30.4866 5.5542 30.1366 5.7842 29.2866C6.2442 27.6066 7.6342 21.8766 8.0942 20.4966C8.4042 19.5066 8.6242 19.1266 9.1842 19.1266Z"
        fillRule="evenodd"
        clipRule="evenodd"
    />
</svg>
        