<svg viewBox="0 0 27.890625 27.890625" xmlns="http://www.w3.org/2000/svg"><path d="M13.9427 27.8864C21.6427 27.8864 27.8927 21.6264 27.8927 13.9464C27.8927 6.2464 21.6427 -0.0036 13.9427 -0.0036C6.2627 -0.0036 0.0027 6.2464 0.0027 13.9464C0.0027 21.6264 6.2627 27.8864 13.9427 27.8864ZM18.8227 9.9964C17.8727 9.9964 17.1127 9.2264 17.1127 8.2964C17.1127 7.3464 17.8727 6.6064 18.8227 6.6064C19.7527 6.6064 20.5227 7.3464 20.5227 8.2964C20.5227 9.2264 19.7527 9.9964 18.8227 9.9964ZM13.4227 20.4564C12.9727 20.4564 12.5927 20.0864 12.5927 19.6364V16.2864L9.2427 13.5464C7.9127 12.4864 8.2027 10.4064 9.8527 9.9964L14.0927 8.9264C15.0127 8.6964 15.9827 8.9864 16.5827 9.6764L18.5627 11.9764H21.9127C22.3827 11.9764 22.7527 12.3164 22.7527 12.7964C22.7527 13.2664 22.3827 13.6164 21.9127 13.6164H18.1927C17.9527 13.6164 17.7227 13.5264 17.5527 13.3464L16.3127 11.9064V13.4964L18.5627 15.7264C18.8927 16.0464 18.8927 16.5864 18.5627 16.8964C18.2527 17.2264 17.7027 17.2264 17.3927 16.8964L14.9127 14.4264C14.7527 14.2564 14.6727 14.0364 14.6727 13.8464V12.2764C14.6727 12.1264 14.5327 12.0264 14.3927 12.0564L11.4827 12.7964L13.8927 15.2164C14.0827 15.4264 14.2627 15.6664 14.2627 15.9964V19.6364C14.2627 20.0864 13.8927 20.4564 13.4227 20.4564ZM6.2027 20.2164C5.8827 19.8964 5.8827 19.3564 6.2027 19.0264L8.8727 16.3964V14.1264L10.7327 15.6364L10.5127 16.7764C10.4727 17.0364 10.4327 17.1764 10.2827 17.3264L7.3827 20.2164C7.0827 20.5364 6.5327 20.5364 6.2027 20.2164Z" /></svg>