
<svg
    viewBox={0 0 40.2678643302189 27.859030309721035}
    xmlns="http://www.w3.org/2000/svg"
>
    <path
        fill="inherit"
        d="M22.457 12.095C23.027 12.095 23.467 11.655 23.467 11.075V5.745H25.697C26.667 5.745 27.097 4.765 26.447 4.035L23.207 0.375C22.757 -0.115 22.167 -0.135 21.727 0.375L18.487 4.035C17.857 4.735 18.217 5.745 19.237 5.745H21.457V11.075C21.457 11.655 21.907 12.095 22.457 12.095ZM36.577 7.785C38.627 7.785 40.267 6.075 40.267 4.095C40.267 2.025 38.627 0.365 36.577 0.365C34.517 0.365 32.857 2.025 32.857 4.095C32.857 6.135 34.517 7.785 36.577 7.785ZM4.097 12.285C4.567 12.855 5.417 12.225 4.967 11.635C4.667 11.205 4.587 10.995 4.587 10.645C4.587 10.095 4.967 9.785 5.267 9.345C5.997 9.065 6.827 8.895 7.537 8.855C7.657 8.675 7.757 8.495 7.757 8.275C7.757 7.515 6.717 7.195 6.717 5.875C6.717 5.325 6.897 4.805 7.307 4.255C7.787 3.685 8.657 4.295 8.207 4.895C7.897 5.325 7.807 5.555 7.807 5.875C7.807 6.805 8.847 7.055 8.847 8.275C8.847 8.535 8.797 8.745 8.727 8.935C9.287 9.015 9.877 9.175 10.377 9.385C10.147 9.695 9.947 10.085 9.947 10.645C9.947 11.205 10.137 11.725 10.557 12.285C11.027 12.855 11.887 12.225 11.417 11.635C11.137 11.205 11.037 10.995 11.037 10.645C11.037 10.085 11.447 9.765 11.747 9.305L15.317 4.765C15.687 4.285 15.617 3.805 15.177 3.455C13.667 2.285 10.787 1.395 7.767 1.395C4.767 1.395 1.887 2.285 0.387 3.455C-0.073 3.805 -0.123 4.285 0.237 4.765L3.887 9.425C3.667 9.725 3.487 10.105 3.487 10.645C3.487 11.205 3.667 11.725 4.097 12.285ZM3.957 9.505L3.887 9.425C4.187 9.005 4.527 8.715 4.527 8.275C4.527 7.515 3.487 7.195 3.487 5.875C3.487 5.325 3.667 4.805 4.097 4.255C4.567 3.685 5.427 4.295 4.967 4.895C4.667 5.325 4.587 5.555 4.587 5.875C4.587 6.805 5.607 7.055 5.607 8.275C5.607 8.745 5.457 9.065 5.267 9.345C5.037 9.425 4.817 9.535 4.607 9.635C4.377 9.765 4.117 9.725 3.957 9.505ZM10.917 9.635C10.747 9.545 10.577 9.465 10.377 9.385C10.667 8.985 10.997 8.705 10.997 8.275C10.997 7.515 9.947 7.195 9.947 5.875C9.947 5.325 10.117 4.805 10.577 4.255C11.037 3.685 11.887 4.295 11.437 4.895C11.137 5.325 11.037 5.555 11.037 5.875C11.037 6.805 12.077 7.055 12.077 8.275C12.077 8.715 11.927 9.045 11.747 9.305L11.587 9.505C11.437 9.725 11.177 9.765 10.917 9.635ZM7.307 12.285C7.787 12.855 8.647 12.225 8.197 11.635C7.897 11.205 7.807 10.995 7.807 10.645C7.807 9.945 8.457 9.615 8.727 8.935C8.387 8.875 8.067 8.855 7.767 8.855C7.687 8.855 7.617 8.855 7.537 8.855C7.237 9.305 6.717 9.725 6.717 10.645C6.717 11.205 6.907 11.725 7.307 12.285ZM14.547 27.345C15.267 28.085 16.477 28.035 17.337 27.135L23.237 21.055C23.427 20.855 23.557 20.805 23.857 20.925L28.457 22.655C31.407 23.795 34.187 22.825 35.487 20.475L38.437 15.095C39.587 13.005 39.217 10.845 37.237 9.785C35.287 8.725 33.297 9.525 32.137 11.665L28.287 18.655L25.037 17.465C23.407 16.875 22.067 17.065 20.787 18.405L14.677 24.725C13.827 25.595 13.907 26.695 14.547 27.345Z"
        fillRule="evenodd"
        clipRule="evenodd"
    />
</svg>
        