
<svg
    viewBox="0 0 28.680577656666713 34.47088295384098"
    xmlns="http://www.w3.org/2000/svg"
>
    <path
        fill="inherit"
        d="M5.7446 30.187H12.1246C12.6646 30.187 13.1946 29.937 13.4646 29.417L16.3846 24.067C16.4746 23.857 16.7446 23.867 16.8146 24.077L18.3446 28.177L12.8246 31.857C12.1846 32.297 12.0146 33.167 12.4446 33.837C12.8646 34.497 13.7546 34.667 14.4146 34.217L20.6846 30.067C21.3146 29.637 21.6146 28.967 21.4346 28.237L17.6146 13.017C17.4746 12.507 17.6146 12.237 17.9946 12.047L27.8946 7.097C28.6046 6.737 28.8746 5.867 28.5346 5.167C28.1746 4.457 27.3346 4.157 26.6046 4.527L6.0446 14.817L2.7646 11.537C2.5946 11.377 2.4246 11.237 2.2446 11.117L5.2246 5.897C5.4146 5.937 5.6246 5.957 5.8346 5.957C7.4946 5.957 8.8146 4.637 8.8146 2.977C8.8146 1.327 7.4946 -0.003 5.8346 -0.003C4.1846 -0.003 2.8546 1.327 2.8546 2.977C2.8546 3.867 3.2446 4.667 3.8546 5.207L0.1746 11.637C-0.1354 12.197 -0.0254 12.797 0.4346 13.257L4.7346 17.567C5.1146 17.937 5.7946 18.147 6.5046 17.787L11.3746 15.337C11.7146 15.177 12.0346 15.327 12.1046 15.617L13.5646 21.497L11.2246 27.317H5.7446C4.9346 27.317 4.3046 27.947 4.3046 28.747C4.3046 29.527 4.9346 30.187 5.7446 30.187ZM5.8346 4.447C4.9946 4.447 4.3746 3.817 4.3746 2.977C4.3746 2.147 4.9946 1.517 5.8346 1.517C6.6746 1.517 7.3046 2.147 7.3046 2.977C7.3046 3.817 6.6746 4.447 5.8346 4.447ZM12.9646 9.417C14.6046 9.417 15.9446 8.097 15.9446 6.437C15.9446 4.797 14.6046 3.457 12.9646 3.457C11.3046 3.457 9.9846 4.797 9.9846 6.437C9.9846 8.097 11.3046 9.417 12.9646 9.417Z"
        fillRule="evenodd"
        clipRule="evenodd"
    />
</svg>
        