<svg viewBox="0 0 26.21079739825147 27.826542050184447" xmlns="http://www.w3.org/2000/svg"><path d="M0.2318 8.8625C0.2318 10.8725 2.0618 12.8925 3.7618 12.8925C5.3218 12.8925 6.1118 11.5025 7.0418 9.0225L7.4018 8.9525V11.6225C7.4018 12.7725 7.9818 13.3525 9.1118 13.3525C11.1018 13.3525 13.1318 11.5425 13.1318 9.8325C13.1318 8.2625 11.7318 7.4825 9.2418 6.5525L9.1918 6.1925H11.8518C13.0018 6.1925 13.5818 5.6025 13.5818 4.5025C13.5818 2.4925 11.7618 0.4525 10.0518 0.4525C8.4918 0.4525 7.7118 1.8725 6.7718 4.3625L6.4318 4.4025V1.7325C6.4318 0.6025 5.8418 0.0025 4.7318 0.0025C2.7118 0.0025 0.6818 1.8325 0.6818 3.5225C0.6818 5.1025 2.1118 5.8825 4.5918 6.8125L4.6218 7.1625H1.9718C0.8318 7.1625 0.2318 7.7625 0.2318 8.8625ZM22.5318 7.7525C24.5818 7.7525 26.2118 6.0425 26.2118 4.0625C26.2118 1.9925 24.5818 0.3325 22.5318 0.3325C20.4718 0.3325 18.8118 1.9925 18.8118 4.0625C18.8118 6.1025 20.4718 7.7525 22.5318 7.7525ZM6.9018 8.0525C6.1518 8.0525 5.5418 7.4325 5.5418 6.6725C5.5418 5.9225 6.1518 5.3025 6.9018 5.3025C7.6618 5.3025 8.2718 5.9225 8.2718 6.6725C8.2718 7.4325 7.6618 8.0525 6.9018 8.0525ZM0.5118 27.3125C1.2018 28.0525 2.4218 28.0025 3.2918 27.1025L9.1718 21.0225C9.3718 20.8225 9.5218 20.7725 9.8218 20.8925L14.4118 22.6225C17.3618 23.7625 20.1418 22.7925 21.4418 20.4425L24.3918 15.0625C25.5418 12.9725 25.1718 10.8125 23.1718 9.7525C21.2518 8.6925 19.2518 9.4925 18.0718 11.6325L14.2518 18.6225L10.9818 17.4325C9.3718 16.8425 8.0318 17.0325 6.7418 18.3725L0.6318 24.6925C-0.2282 25.5625 -0.1482 26.6625 0.5118 27.3125Z" /></svg>