<svg viewBox="0 0 16.412745632572644 30.43359375" xmlns="http://www.w3.org/2000/svg"><path d="M8.2069 5.9646C9.8569 5.9646 11.1869 4.6346 11.1869 2.9846C11.1869 1.3246 9.8569 0.0046 8.2069 0.0046C6.5669 0.0046 5.2369 1.3246 5.2369 2.9846C5.2369 4.6346 6.5669 5.9646 8.2069 5.9646ZM6.4169 30.4346C7.1669 30.4346 7.7569 29.8446 7.7569 29.1046V23.2446C7.7569 22.9946 7.9569 22.7746 8.2069 22.7746C8.4569 22.7746 8.6669 22.9946 8.6669 23.2446V29.1046C8.6669 29.8446 9.2569 30.4346 9.9969 30.4346C10.7369 30.4346 11.3369 29.8446 11.3369 29.1046V23.2446H13.1869C13.9369 23.2446 14.2769 22.5946 14.0269 21.8646L11.2369 13.3846C11.0369 12.7446 11.9069 12.4846 12.1269 13.1546L13.9669 18.6846C14.5269 20.4146 16.8869 19.7146 16.3269 17.9946L14.3769 12.0946C13.3169 8.8846 11.7569 7.5346 8.5169 7.5346H7.9069C4.6669 7.5346 3.0969 8.8846 2.0369 12.0946L0.0869 17.9946C-0.4731 19.7146 1.8869 20.4146 2.4469 18.6846L4.2869 13.1546C4.4969 12.4846 5.3869 12.7446 5.1669 13.3846L2.3869 21.8646C2.1469 22.5946 2.4769 23.2446 3.2269 23.2446H5.0869V29.1046C5.0869 29.8446 5.6769 30.4346 6.4169 30.4346Z" /></svg>