
<svg
    viewBox="0 0 27.890625 27.890625"
    xmlns="http://www.w3.org/2000/svg"
>
    <path
        fill="inherit"
        d="M13.9427 27.8864C21.6427 27.8864 27.8927 21.6264 27.8927 13.9464C27.8927 6.2464 21.6427 -0.0036 13.9427 -0.0036C6.2627 -0.0036 0.0027 6.2464 0.0027 13.9464C0.0027 21.6264 6.2627 27.8864 13.9427 27.8864ZM12.3827 11.5664L13.1827 8.7864C13.2227 8.6264 13.3327 8.4864 13.4427 8.3964V7.1364C13.0127 6.6064 12.5927 5.7964 12.5927 5.1664C12.5927 4.3864 13.1427 3.8264 13.9227 3.8264C14.6927 3.8264 15.2327 4.3864 15.2327 5.1664C15.2327 5.7264 14.8227 6.5264 14.4127 7.0864V8.4064C14.6427 8.5964 14.7527 8.9164 14.6727 9.2464L14.4127 10.1464V11.0064H17.0727C18.4027 11.0064 19.4527 12.0764 19.4527 13.3864V16.5464C19.4527 16.9764 19.1127 17.3364 18.6627 17.3364H16.1227L17.6227 18.7264C17.8927 18.9664 17.9327 19.3464 17.7727 19.6964L15.8227 23.6364C15.6027 24.0664 15.1027 24.1564 14.7527 23.9764C14.3527 23.7764 14.2027 23.2964 14.3927 22.9164L16.0827 19.5464L13.1927 17.4464C11.9527 16.5264 12.0827 14.6564 13.4427 13.9164V12.5664H13.1127C12.5327 12.5664 12.2327 12.0864 12.3827 11.5664ZM20.1627 11.3364C19.2127 11.3364 18.4527 10.5964 18.4527 9.6364C18.4527 8.6964 19.2127 7.9464 20.1627 7.9464C21.0827 7.9464 21.8627 8.6964 21.8627 9.6364C21.8627 10.5964 21.0827 11.3364 20.1627 11.3364ZM14.4127 13.4264L15.9727 12.6364C15.9927 12.6164 15.9827 12.5664 15.9427 12.5664H14.4127ZM16.1827 15.7864H17.9127V15.1364C17.9127 15.0564 17.8327 14.9964 17.7627 15.0264ZM6.5927 20.1064C6.5927 19.6564 6.9427 19.2864 7.3927 19.2864H11.3727L12.0627 17.2264C12.1927 17.4864 12.4427 17.7464 12.7827 17.9964L13.6027 18.5664L12.6727 20.4564C12.5227 20.7264 12.2327 20.9064 11.9327 20.9064H7.3927C6.9427 20.9064 6.5927 20.5464 6.5927 20.1064Z"
        fillRule="evenodd"
        clipRule="evenodd"
    />
</svg>
        