
<svg
    viewBox={0 0 27.890625 27.890625}
    xmlns="http://www.w3.org/2000/svg"
>
    <path
        fill="inherit"
        d="M13.9427 27.8864C21.6427 27.8864 27.8927 21.6464 27.8927 13.9464C27.8927 6.2464 21.6427 -0.0036 13.9427 -0.0036C6.2527 -0.0036 0.0027 6.2464 0.0027 13.9464C0.0027 21.6464 6.2527 27.8864 13.9427 27.8864ZM13.9427 25.5664C7.5227 25.5664 2.3227 20.3664 2.3227 13.9464C2.3227 7.5164 7.5227 2.3264 13.9427 2.3264C20.3727 2.3264 25.5627 7.5164 25.5627 13.9464C25.5627 20.3664 20.3727 25.5664 13.9427 25.5664ZM13.9327 8.2864C14.8327 8.2864 15.5727 7.5564 15.5727 6.6264C15.5727 5.7264 14.8327 4.9864 13.9327 4.9864C13.0027 4.9864 12.2627 5.7264 12.2627 6.6264C12.2627 7.5564 13.0027 8.2864 13.9327 8.2864ZM11.8027 20.2164C12.1027 20.1364 12.2627 20.0464 12.3827 19.8264L14.0527 16.8264C14.0827 16.7764 14.1127 16.7464 14.1627 16.7464H18.2427V20.5864C18.2427 21.0264 18.5827 21.3464 19.0027 21.3464C19.4327 21.3464 19.7727 21.0264 19.7727 20.5864V16.0764C19.7727 15.5764 19.4827 15.2764 18.9627 15.2164L15.5427 14.9064V10.6264C15.5427 9.7764 14.9727 9.0764 13.9327 9.0764H13.5727C12.9427 9.0764 12.4827 9.1864 11.8827 9.6364L9.3427 11.5364C8.9127 11.8564 8.9527 12.4964 9.3927 12.7964L12.4827 14.8764V15.0664L11.1327 18.8164L7.7127 19.7464C7.3027 19.8564 7.0727 20.2764 7.1627 20.6864C7.2827 21.1064 7.6827 21.3264 8.1027 21.2164ZM11.1327 12.1164L12.2927 11.2664C12.3727 11.1964 12.4827 11.2364 12.4827 11.3564V13.0164Z"
        fillRule="evenodd"
        clipRule="evenodd"
    />
</svg>
        