
<svg
    viewBox="0 0 25.631410161483828 32.03497765168172"
    xmlns="http://www.w3.org/2000/svg"
>
    <path
        fill="inherit"
        d="M5.3637 3.4137C6.2937 3.4137 7.0637 2.6637 7.0637 1.7137C7.0637 0.7637 6.2937 0.0037 5.3637 0.0037C4.3937 0.0037 3.6637 0.7637 3.6637 1.7137C3.6637 2.6637 4.3937 3.4137 5.3637 3.4137ZM2.4237 29.9137L10.6337 31.9737C11.8037 32.2637 12.5737 31.4137 12.4237 30.3337L11.6637 25.1037H18.1737L23.2537 30.2537C23.7937 30.7937 24.6737 30.7937 25.2137 30.2537C25.7837 29.7237 25.7537 28.8237 25.2137 28.2737L19.8337 22.8737C19.4737 22.5037 19.3137 22.3937 18.7037 22.3237L12.8137 21.7337L11.3237 17.2437C11.2137 16.9237 11.4537 16.6137 11.8037 16.6837L22.5737 18.8237C23.2737 18.9637 24.0537 18.5937 24.1837 17.7637C24.3037 17.0037 23.8737 16.2837 23.1237 16.1337L8.2337 13.1637C6.9137 12.9037 6.2237 12.7137 5.6337 12.1437L2.7637 9.2937V2.9437C2.7637 2.1737 2.1437 1.5537 1.3937 1.5537C0.6037 1.5537 0.0037 2.1737 0.0037 2.9437V9.6337C0.0037 10.2137 0.0637 10.5437 0.4737 10.9537L3.6737 14.1337C4.3337 14.8037 4.4137 15.0437 4.6437 15.7137L8.9737 28.6937L3.0937 27.2237C2.3537 27.0337 1.6037 27.4937 1.4337 28.2437C1.2737 28.9737 1.6937 29.7237 2.4237 29.9137ZM9.6937 11.9537C11.3437 11.9537 12.6837 10.6137 12.6837 8.9537C12.6837 7.3037 11.3437 5.9737 9.6937 5.9737C8.0437 5.9737 6.7137 7.3037 6.7137 8.9537C6.7137 10.6137 8.0437 11.9537 9.6937 11.9537Z"
        fillRule="evenodd"
        clipRule="evenodd"
    />
</svg>
        