
<svg
    viewBox={0 0 33.701171875 28.341796875}
    xmlns="http://www.w3.org/2000/svg"
>
    <path
        fill="inherit"
        d="M30.3637 5.9452C32.0237 5.9452 33.3437 4.6252 33.3437 2.9852C33.3437 1.3252 32.0237 -0.0048 30.3637 -0.0048C28.7137 -0.0048 27.3837 1.3252 27.3837 2.9852C27.3837 4.6252 28.7137 5.9452 30.3637 5.9452ZM22.2137 28.3452C27.8037 28.3452 32.1537 23.9852 32.1537 18.3852C32.1537 15.8152 31.1137 14.2752 28.8237 13.4952L26.6637 12.7452C26.2937 12.6352 26.1937 12.3552 26.4237 12.0152L27.8337 9.9652C28.9337 8.3952 28.5337 7.0952 26.8637 5.9152L21.6537 2.2852C21.1137 1.9152 20.4237 1.9052 19.8837 2.2552L15.0637 5.4952C13.2937 6.6952 14.9337 8.8752 16.5337 7.7752L20.6137 5.0152L23.4337 6.9852C23.9137 7.3252 23.9637 7.7152 23.6537 8.1452L21.3937 11.4252C20.1837 13.1952 21.1637 15.1052 23.0637 15.5952L29.0637 17.1052C29.7237 17.2552 30.0737 17.7852 30.0737 18.5252C30.0737 22.8152 26.6437 26.2452 22.2337 26.2452C17.8037 26.2452 14.3537 22.8152 14.3537 18.3852C14.3537 16.7752 14.8337 15.3352 15.6237 14.1552C16.5137 12.8252 14.7537 11.7152 13.8237 13.1152C12.8637 14.5752 12.2737 16.3652 12.2737 18.3852C12.2737 23.9852 16.6237 28.3452 22.2137 28.3452ZM2.0937 10.7752H8.6937C9.1737 10.7752 9.5437 10.3652 9.5437 9.8752C9.5437 9.3752 9.1737 8.9852 8.6937 8.9852H2.0937C1.6137 8.9852 1.2437 9.3752 1.2437 9.8752C1.2437 10.3652 1.6137 10.7752 2.0937 10.7752ZM0.8437 15.9152H8.6937C9.1737 15.9152 9.5437 15.5152 9.5437 15.0252C9.5437 14.5352 9.1737 14.1252 8.6937 14.1252H0.8437C0.3737 14.1252 0.0037 14.5452 0.0037 15.0252C0.0037 15.5052 0.3737 15.9152 0.8437 15.9152ZM4.8537 21.0652H8.6937C9.1737 21.0652 9.5437 20.6552 9.5437 20.1652C9.5437 19.6752 9.1737 19.2752 8.6937 19.2752H4.8537C4.3737 19.2752 3.9937 19.6752 3.9937 20.1652C3.9937 20.6552 4.3737 21.0652 4.8537 21.0652ZM32.1937 28.3452C33.0437 28.3452 33.7037 27.6752 33.7037 26.8252C33.7037 25.9952 33.0437 25.3252 32.1937 25.3252C31.3637 25.3252 30.6937 25.9952 30.6937 26.8252C30.6937 27.6752 31.3637 28.3452 32.1937 28.3452Z"
        fillRule="evenodd"
        clipRule="evenodd"
    />
</svg>
        