
<svg
    viewBox="0 0 27.890625 27.890625"
    xmlns="http://www.w3.org/2000/svg"
>
    <path
        fill="inherit"
        d="M13.9427 27.8864C21.6427 27.8864 27.8927 21.6464 27.8927 13.9464C27.8927 6.2464 21.6427 -0.0036 13.9427 -0.0036C6.2527 -0.0036 0.0027 6.2464 0.0027 13.9464C0.0027 21.6464 6.2527 27.8864 13.9427 27.8864ZM13.9427 25.5664C7.5227 25.5664 2.3227 20.3664 2.3227 13.9464C2.3227 7.5164 7.5227 2.3264 13.9427 2.3264C20.3727 2.3264 25.5627 7.5164 25.5627 13.9464C25.5627 20.3664 20.3727 25.5664 13.9427 25.5664ZM17.1027 8.0964C18.0227 8.0964 18.7627 7.3464 18.7627 6.4264C18.7627 5.5264 18.0227 4.7764 17.1027 4.7764C16.1827 4.7764 15.4327 5.5264 15.4327 6.4264C15.4327 7.3464 16.1827 8.0964 17.1027 8.0964ZM5.1427 10.1064H9.9827L9.8827 10.1864C9.2427 10.8164 9.2427 11.9064 9.8827 12.5364L11.2227 13.8664V14.9164L9.9127 13.6064C9.7327 13.4164 9.4327 13.4164 9.2427 13.6064C9.0827 13.7664 9.0827 14.0864 9.2427 14.2564L11.2227 16.2264V17.2664L7.9527 13.9964C7.7827 13.8264 7.4827 13.8264 7.3027 13.9964C7.1227 14.1864 7.1227 14.4964 7.3027 14.6564L15.4627 22.8164C15.9527 23.3064 16.4627 23.5064 17.0527 23.5064C17.3127 23.5064 17.5127 23.2664 17.5127 23.0364C17.5127 22.7664 17.2927 22.5464 17.0527 22.5464C16.5527 22.5464 16.4427 22.4864 15.9927 22.0564L12.5827 18.6164C12.7027 18.4664 12.7827 18.2764 12.7827 18.0764V17.7864L17.4027 22.4064C17.8827 22.8964 18.4127 23.0764 19.0027 23.0764C19.2527 23.0764 19.4727 22.8564 19.4727 22.6164C19.4727 22.3664 19.2527 22.1464 19.0027 22.1464C18.5027 22.1464 18.3927 22.0764 17.9527 21.6464L14.7527 18.4264C14.8927 18.2964 14.9727 18.1064 14.9727 17.8964V14.2764C14.9727 14.0564 14.8727 13.8464 14.7427 13.7164L12.7527 11.7264L14.5227 9.9564C14.6427 9.8464 14.8027 9.8264 14.9327 9.9564L16.1727 11.1964C16.2927 11.3464 16.5127 11.4164 16.7227 11.4164H20.2027V17.8864C20.2027 18.1464 20.4127 18.3464 20.6727 18.3464C20.9327 18.3464 21.1327 18.1464 21.1327 17.8864V10.6064C21.1327 10.2164 20.7827 9.8464 20.3427 9.8464H17.0327L14.3327 7.1464C13.9827 6.7964 13.4927 6.5864 13.0027 6.5864H10.1627C9.3827 6.5864 9.1427 7.4464 9.6227 7.9264L10.8727 9.1764H5.1427C4.8627 9.1764 4.6727 9.3764 4.6727 9.6364C4.6727 9.8964 4.8627 10.1064 5.1427 10.1064ZM12.7827 13.9864L13.4027 14.5864V17.0764L12.7827 16.4764Z"
        fillRule="evenodd"
        clipRule="evenodd"
    />
</svg>
        