<svg viewBox="0 0 27.890625 27.890625" xmlns="http://www.w3.org/2000/svg"><path d="M13.9427 27.8864C21.6427 27.8864 27.8927 21.6264 27.8927 13.9464C27.8927 6.2464 21.6427 -0.0036 13.9427 -0.0036C6.2627 -0.0036 0.0027 6.2464 0.0027 13.9464C0.0027 21.6264 6.2627 27.8864 13.9427 27.8864ZM18.9527 8.9864C18.0627 8.9864 17.3527 8.2564 17.3527 7.3664C17.3527 6.4964 18.0627 5.7664 18.9527 5.7664C19.8227 5.7664 20.5527 6.4964 20.5527 7.3664C20.5527 8.2564 19.8227 8.9864 18.9527 8.9864ZM9.5427 9.3064C8.6727 9.3064 7.9427 8.5864 7.9427 7.6964C7.9427 6.8264 8.6727 6.1064 9.5427 6.1064C10.4327 6.1064 11.1527 6.8264 11.1527 7.6964C11.1527 8.5864 10.4327 9.3064 9.5427 9.3064ZM5.0627 11.2964C4.5427 11.2564 4.1827 10.7464 4.3627 10.2364L5.3227 7.3664C5.4727 6.9564 5.9227 6.7264 6.3327 6.8464C6.7527 7.0164 6.9727 7.4364 6.8327 7.8864L6.2027 9.7764L9.5327 10.0264C9.9227 10.0664 10.2827 10.1564 10.6527 10.3364L13.0027 11.5264H15.4627L16.9927 10.2164C17.7227 9.5664 18.7027 9.4064 19.6027 9.7064L21.8227 10.4464L21.6027 8.4364C21.5427 7.9864 21.9027 7.5864 22.3227 7.5564C22.7527 7.5064 23.1727 7.8164 23.2127 8.2864L23.5127 11.5564C23.5927 12.1864 23.1027 12.5464 22.4727 12.3464L21.5427 12.0464C21.3727 11.9864 21.1927 12.1164 21.2327 12.3064L21.5027 13.8664C21.6427 14.6264 21.4827 15.4464 21.0227 16.0964L19.2227 18.6664L20.5327 21.9464C20.7027 22.3364 20.5127 22.8064 20.0927 22.9664C19.7127 23.1164 19.2227 22.9664 19.0327 22.5164L17.5727 18.8564C17.4727 18.6064 17.5227 18.3564 17.6527 18.1164L18.7327 15.9864L16.4927 16.3264L16.1827 19.3564C16.1427 19.7964 15.8027 20.0964 15.3827 20.0964C15.0027 20.0964 14.5327 19.7464 14.6027 19.2264L14.9527 15.5564C14.9827 15.2164 15.2327 14.9464 15.5627 14.8464L18.7427 13.9864L17.9827 11.8764C17.9227 11.7164 17.7627 11.6664 17.6127 11.7764L16.2727 12.9464C16.1327 13.0664 15.9527 13.1264 15.7527 13.1264H12.9327C12.7327 13.1264 12.5227 13.0664 12.4027 13.0064L10.5227 12.0864C10.3927 12.0164 10.2227 12.0964 10.2127 12.2664L9.9827 14.6564L15.2827 21.3564C15.5727 21.7064 15.5027 22.2064 15.1527 22.4864C14.8227 22.7664 14.3027 22.6964 14.0227 22.3564L11.0627 18.5964C11.0627 18.6664 11.0427 18.7264 11.0327 18.7964L9.9227 22.4664C9.7927 22.9264 9.3427 23.1064 8.9327 22.9964C8.5027 22.8764 8.2627 22.4264 8.3927 21.9964L9.3627 18.7464L7.4527 16.2664C7.0827 15.8064 6.8927 15.2164 6.8927 14.6164V11.6364C6.8927 11.5164 6.8127 11.4164 6.7027 11.4164Z" /></svg>