<svg viewBox="0 0 25.241256595619625 31.174124078201643" xmlns="http://www.w3.org/2000/svg"><path d="M12.6282 5.8564C14.2282 5.8564 15.5182 4.5364 15.5182 2.9164C15.5182 1.3164 14.2282 -0.0036 12.6282 -0.0036C10.9982 -0.0036 9.6882 1.3164 9.6882 2.9164C9.6882 4.5364 10.9982 5.8564 12.6282 5.8564ZM12.6282 18.3764L15.9182 23.5464L18.3782 30.3264C18.6482 31.0764 19.3782 31.3264 19.9882 31.0864C20.6482 30.8664 20.9882 30.1164 20.7482 29.4764L18.2582 22.6264L15.7782 15.8364V9.6664C15.7782 9.3764 15.9282 9.1164 16.1882 8.9864L24.5682 4.5164C25.1882 4.1864 25.4182 3.4364 25.0882 2.8064C24.7682 2.1864 24.0082 1.9664 23.3982 2.2964L15.3082 6.5764C14.3982 7.0564 13.5082 7.2764 12.6282 7.2764C11.7382 7.2764 10.8482 7.0564 9.9482 6.5764L1.8482 2.2964C1.2382 1.9664 0.4782 2.1864 0.1582 2.8064C-0.1918 3.4364 0.0582 4.1864 0.6782 4.5164L9.0582 8.9864C9.3182 9.1164 9.4682 9.3764 9.4682 9.6664V15.8364L6.9882 22.6264L4.4982 29.4764C4.2582 30.1164 4.5982 30.8664 5.2382 31.0864C5.8682 31.3264 6.5982 31.0764 6.8682 30.3264L9.3282 23.5464Z" /></svg>