
<svg
    viewBox={0 0 40.2678643302189 27.853885800184447}
    xmlns="http://www.w3.org/2000/svg"
>
    <path
        fill="inherit"
        d="M22.457 -0.0002C21.907 -0.0002 21.457 0.4398 21.457 1.0098V6.3298H19.237C18.217 6.3298 17.857 7.3598 18.487 8.0498L21.727 11.7198C22.167 12.2098 22.757 12.2098 23.207 11.7198L26.447 8.0498C27.097 7.3298 26.667 6.3298 25.697 6.3298H23.467V1.0098C23.467 0.4398 23.027 -0.0002 22.457 -0.0002ZM36.577 7.7798C38.627 7.7798 40.267 6.0698 40.267 4.0898C40.267 2.0198 38.627 0.3598 36.577 0.3598C34.517 0.3598 32.857 2.0198 32.857 4.0898C32.857 6.1298 34.517 7.7798 36.577 7.7798ZM4.097 12.2798C4.567 12.8498 5.417 12.2198 4.967 11.6298C4.667 11.1998 4.587 10.9898 4.587 10.6398C4.587 10.0898 4.967 9.7798 5.267 9.3398C5.997 9.0598 6.827 8.8898 7.537 8.8498C7.657 8.6698 7.757 8.4898 7.757 8.2698C7.757 7.5098 6.717 7.1898 6.717 5.8698C6.717 5.3198 6.897 4.7998 7.307 4.2498C7.787 3.6798 8.657 4.2898 8.207 4.8898C7.897 5.3198 7.807 5.5498 7.807 5.8698C7.807 6.7998 8.847 7.0498 8.847 8.2698C8.847 8.5298 8.797 8.7398 8.727 8.9298C9.287 9.0098 9.877 9.1698 10.377 9.3798C10.147 9.6898 9.947 10.0798 9.947 10.6398C9.947 11.1998 10.137 11.7198 10.557 12.2798C11.027 12.8498 11.887 12.2198 11.417 11.6298C11.137 11.1998 11.037 10.9898 11.037 10.6398C11.037 10.0798 11.447 9.7598 11.747 9.2998L15.317 4.7598C15.687 4.2798 15.617 3.7998 15.177 3.4498C13.667 2.2798 10.787 1.3898 7.767 1.3898C4.767 1.3898 1.887 2.2798 0.387 3.4498C-0.073 3.7998 -0.123 4.2798 0.237 4.7598L3.887 9.4198C3.667 9.7198 3.487 10.0998 3.487 10.6398C3.487 11.1998 3.667 11.7198 4.097 12.2798ZM3.957 9.4998L3.887 9.4198C4.187 8.9998 4.527 8.7098 4.527 8.2698C4.527 7.5098 3.487 7.1898 3.487 5.8698C3.487 5.3198 3.667 4.7998 4.097 4.2498C4.567 3.6798 5.427 4.2898 4.967 4.8898C4.667 5.3198 4.587 5.5498 4.587 5.8698C4.587 6.7998 5.607 7.0498 5.607 8.2698C5.607 8.7398 5.457 9.0598 5.267 9.3398C5.037 9.4198 4.817 9.5298 4.607 9.6298C4.377 9.7598 4.117 9.7198 3.957 9.4998ZM10.917 9.6298C10.747 9.5398 10.577 9.4598 10.377 9.3798C10.667 8.9798 10.997 8.6998 10.997 8.2698C10.997 7.5098 9.947 7.1898 9.947 5.8698C9.947 5.3198 10.117 4.7998 10.577 4.2498C11.037 3.6798 11.887 4.2898 11.437 4.8898C11.137 5.3198 11.037 5.5498 11.037 5.8698C11.037 6.7998 12.077 7.0498 12.077 8.2698C12.077 8.7098 11.927 9.0398 11.747 9.2998L11.587 9.4998C11.437 9.7198 11.177 9.7598 10.917 9.6298ZM7.307 12.2798C7.787 12.8498 8.647 12.2198 8.197 11.6298C7.897 11.1998 7.807 10.9898 7.807 10.6398C7.807 9.9398 8.457 9.6098 8.727 8.9298C8.387 8.8698 8.067 8.8498 7.767 8.8498C7.687 8.8498 7.617 8.8498 7.537 8.8498C7.237 9.2998 6.717 9.7198 6.717 10.6398C6.717 11.1998 6.907 11.7198 7.307 12.2798ZM14.547 27.3398C15.267 28.0798 16.477 28.0298 17.337 27.1298L23.237 21.0498C23.427 20.8498 23.557 20.7998 23.857 20.9198L28.457 22.6498C31.407 23.7898 34.187 22.8198 35.487 20.4698L38.437 15.0898C39.587 12.9998 39.217 10.8398 37.237 9.7798C35.287 8.7198 33.297 9.5198 32.137 11.6598L28.287 18.6498L25.037 17.4598C23.407 16.8698 22.067 17.0598 20.787 18.3998L14.677 24.7198C13.827 25.5898 13.907 26.6898 14.547 27.3398Z"
        fillRule="evenodd"
        clipRule="evenodd"
    />
</svg>
        