<svg viewBox="0 0 35.7639326601732 31.021484375" xmlns="http://www.w3.org/2000/svg"><path d="M18.062 5.9734C19.712 5.9734 21.042 4.6534 21.042 2.9934C21.042 1.3434 19.712 0.0034 18.062 0.0034C16.402 0.0034 15.062 1.3434 15.062 2.9934C15.062 4.6534 16.402 5.9734 18.062 5.9734ZM29.862 10.2034C30.622 10.2034 31.252 9.5834 31.252 8.7934C31.252 8.0234 30.622 7.4134 29.862 7.4134H15.172C13.832 7.4134 12.672 8.1234 12.052 9.3334L5.862 21.7334L2.362 18.2334C1.812 17.6934 0.932 17.7034 0.392 18.2334C-0.138 18.7834 -0.128 19.6634 0.392 20.2034L5.332 25.1534C5.922 25.7334 6.832 25.6534 7.312 24.9534L11.362 19.0434C11.582 18.7034 12.052 18.6534 12.372 18.8834L17.352 22.6934V29.6434C17.352 30.4034 17.962 31.0234 18.742 31.0234C19.522 31.0234 20.142 30.4034 20.142 29.6434V21.9934C20.142 21.6334 19.982 21.2734 19.722 21.0134L14.892 16.1734L17.482 10.9634C17.742 10.4634 18.192 10.2034 18.712 10.2034ZM28.792 13.4934C28.792 14.8234 30.362 15.9134 32.282 15.9134C34.202 15.9134 35.762 14.8234 35.762 13.4934C35.762 12.1434 34.202 11.0634 32.282 11.0634C30.362 11.0634 28.792 12.1434 28.792 13.4934ZM20.822 16.4434H26.382C27.152 16.4434 27.762 15.8034 27.762 15.0634C27.762 14.2834 27.152 13.6534 26.382 13.6534H21.392L19.232 11.5134H18.892C18.752 11.5134 18.672 11.5634 18.602 11.6934L17.552 13.7534L19.852 16.0334C20.122 16.2934 20.462 16.4434 20.822 16.4434Z" /></svg>