
<svg
    viewBox={0 0 27.890625 27.890625}
    xmlns="http://www.w3.org/2000/svg"
>
    <path
        fill="inherit"
        d="M13.9427 27.8864C21.6427 27.8864 27.8927 21.6264 27.8927 13.9464C27.8927 6.2464 21.6427 -0.0036 13.9427 -0.0036C6.2627 -0.0036 0.0027 6.2464 0.0027 13.9464C0.0027 21.6264 6.2627 27.8864 13.9427 27.8864ZM9.7027 8.6164C9.0527 8.6164 8.5027 8.0564 8.5027 7.3864C8.5027 6.7264 9.0527 6.1764 9.7027 6.1764C10.3927 6.1764 10.9227 6.7264 10.9227 7.3864C10.9227 8.0564 10.3927 8.6164 9.7027 8.6164ZM14.3427 11.5764C13.4127 11.5764 12.6327 10.8264 12.6327 9.8864C12.6327 8.9364 13.4127 8.1764 14.3427 8.1764C15.2727 8.1764 16.0527 8.9364 16.0527 9.8864C16.0527 10.8264 15.2727 11.5764 14.3427 11.5764ZM10.6327 15.3164L10.9927 14.3464C11.0427 14.1664 10.9327 14.0364 10.7827 14.0364H8.5427C8.1327 14.0364 7.8427 13.7164 7.7427 13.3564L6.5127 9.2964C6.3827 8.8864 6.6427 8.4264 7.0827 8.2764C7.5027 8.1364 7.9727 8.4064 8.0927 8.8464L9.1727 12.3764H22.2027C22.6727 12.3764 23.0527 12.7564 23.0527 13.1964C23.0527 13.6564 22.6727 14.0364 22.2027 14.0364H15.2827C15.0227 14.0364 14.8727 14.1364 14.7927 14.3864L14.0227 16.5264C14.0027 16.5464 13.9627 16.5464 13.9227 16.5464C12.6327 16.5464 12.3727 15.5164 10.6327 15.3164ZM13.9227 18.6464C11.7827 18.6464 11.3327 17.3664 9.9127 17.3664C8.5027 17.3664 8.0527 18.6464 5.9227 18.6464H5.3827C5.1227 18.6464 4.9127 18.4164 4.9127 18.1564C4.9127 17.9064 5.1227 17.6764 5.3827 17.6764H5.9227C7.3727 17.6764 7.8727 16.3764 9.9127 16.3764C11.9527 16.3764 12.4527 17.6764 13.9227 17.6764C15.3627 17.6764 15.8827 16.3764 17.8927 16.3764C19.9427 16.3764 20.4427 17.6764 21.9027 17.6764H22.4527C22.7227 17.6764 22.9427 17.9064 22.9427 18.1564C22.9427 18.4164 22.7227 18.6464 22.4527 18.6464H21.9027C19.7727 18.6464 19.3227 17.3664 17.8927 17.3664C16.4927 17.3664 16.0527 18.6464 13.9227 18.6464ZM9.6427 19.5464C9.3527 19.5464 9.1327 19.3364 9.1327 19.0464C9.1327 18.7564 9.3527 18.5364 9.6427 18.5364C9.9227 18.5364 10.1427 18.7564 10.1427 19.0464C10.1427 19.3364 9.9227 19.5464 9.6427 19.5464ZM18.2127 19.5464C17.9227 19.5464 17.7027 19.3364 17.7027 19.0464C17.7027 18.7564 17.9227 18.5364 18.2127 18.5364C18.5127 18.5364 18.7127 18.7564 18.7127 19.0464C18.7127 19.3364 18.5127 19.5464 18.2127 19.5464ZM8.1627 19.9064C7.8927 19.9064 7.6727 19.6864 7.6727 19.3964C7.6727 19.1164 7.8927 18.8964 8.1627 18.8964C8.4627 18.8964 8.6727 19.1164 8.6727 19.3964C8.6727 19.6864 8.4627 19.9064 8.1627 19.9064ZM11.1127 19.9064C10.8127 19.9064 10.5927 19.6864 10.5927 19.3964C10.5927 19.1164 10.8127 18.8964 11.1127 18.8964C11.3927 18.8964 11.6227 19.1164 11.6227 19.3964C11.6227 19.6864 11.3927 19.9064 11.1127 19.9064ZM16.7327 19.9064C16.4427 19.9064 16.2327 19.6864 16.2327 19.3964C16.2327 19.1164 16.4427 18.8964 16.7327 18.8964C17.0227 18.8964 17.2427 19.1164 17.2427 19.3964C17.2427 19.6864 17.0227 19.9064 16.7327 19.9064ZM19.6727 19.9064C19.4027 19.9064 19.1827 19.6864 19.1827 19.3964C19.1827 19.1164 19.4027 18.8964 19.6727 18.8964C19.9727 18.8964 20.1927 19.1164 20.1927 19.3964C20.1927 19.6864 19.9727 19.9064 19.6727 19.9064ZM5.4127 20.3564C5.1227 20.3564 4.9127 20.1364 4.9127 19.8564C4.9127 19.5664 5.1227 19.3464 5.4127 19.3464C5.7027 19.3464 5.9227 19.5664 5.9227 19.8564C5.9227 20.1364 5.7027 20.3564 5.4127 20.3564ZM6.7827 20.3564C6.4927 20.3564 6.2727 20.1364 6.2727 19.8564C6.2727 19.5664 6.4927 19.3464 6.7827 19.3464C7.0827 19.3464 7.2827 19.5664 7.2827 19.8564C7.2827 20.1364 7.0827 20.3564 6.7827 20.3564ZM21.0527 20.3564C20.7627 20.3564 20.5527 20.1364 20.5527 19.8564C20.5527 19.5664 20.7627 19.3464 21.0527 19.3464C21.3427 19.3464 21.5627 19.5664 21.5627 19.8564C21.5627 20.1364 21.3427 20.3564 21.0527 20.3564ZM22.4327 20.3564C22.1527 20.3564 21.9327 20.1364 21.9327 19.8564C21.9327 19.5664 22.1527 19.3464 22.4327 19.3464C22.7227 19.3464 22.9427 19.5664 22.9427 19.8564C22.9427 20.1364 22.7227 20.3564 22.4327 20.3564ZM12.4827 20.5464C12.1927 20.5464 11.9627 20.3164 11.9627 20.0464C11.9627 19.7564 12.1927 19.5264 12.4827 19.5264C12.7527 19.5264 12.9927 19.7564 12.9927 20.0464C12.9927 20.3164 12.7527 20.5464 12.4827 20.5464ZM15.3627 20.5464C15.0627 20.5464 14.8627 20.3164 14.8627 20.0464C14.8627 19.7564 15.0627 19.5264 15.3627 19.5264C15.6527 19.5264 15.8627 19.7564 15.8627 20.0464C15.8627 20.3164 15.6527 20.5464 15.3627 20.5464ZM13.9227 20.7964C13.6127 20.7964 13.4127 20.5864 13.4127 20.3064C13.4127 20.0064 13.6127 19.7964 13.9227 19.7964C14.1927 19.7964 14.4227 20.0064 14.4227 20.3064C14.4227 20.5864 14.1927 20.7964 13.9227 20.7964Z"
        fillRule="evenodd"
        clipRule="evenodd"
    />
</svg>
        