
<svg
    viewBox="0 0 26.213601579223333 27.559940487684447"
    xmlns="http://www.w3.org/2000/svg"
>
    <path
        fill="inherit"
        d="M4.8946 13.9959C5.5446 13.9959 6.0446 13.4859 6.0446 12.8359V6.5259H8.5346C9.6946 6.5259 10.0946 5.3659 9.3846 4.5759L5.7146 0.4259C5.2046 -0.1441 4.5346 -0.1441 4.0346 0.4259L0.3646 4.5759C-0.3954 5.4059 0.1046 6.5259 1.2246 6.5259H3.7246V12.8359C3.7246 13.4859 4.2446 13.9959 4.8946 13.9959ZM22.5346 7.4859C24.5846 7.4859 26.2146 5.7759 26.2146 3.7959C26.2146 1.7259 24.5846 0.0659 22.5346 0.0659C20.4746 0.0659 18.8146 1.7259 18.8146 3.7959C18.8146 5.8359 20.4746 7.4859 22.5346 7.4859ZM0.5146 27.0459C1.2046 27.7859 2.4246 27.7359 3.2946 26.8359L9.1746 20.7559C9.3746 20.5559 9.5246 20.5059 9.8246 20.6259L14.4146 22.3559C17.3646 23.4959 20.1446 22.5259 21.4446 20.1759L24.3946 14.7959C25.5446 12.7059 25.1746 10.5459 23.1746 9.4859C21.2546 8.4259 19.2546 9.2259 18.0746 11.3659L14.2546 18.3559L10.9846 17.1659C9.3746 16.5759 8.0346 16.7659 6.7446 18.1059L0.6346 24.4259C-0.2254 25.2959 -0.1454 26.3959 0.5146 27.0459Z"
        fillRule="evenodd"
        clipRule="evenodd"
    />
</svg>
        