
<svg
    viewBox="0 0 27.890625 27.890625"
    xmlns="http://www.w3.org/2000/svg"
>
    <path
        fill="inherit"
        d="M13.9427 27.8864C21.6427 27.8864 27.8927 21.6264 27.8927 13.9464C27.8927 6.2464 21.6427 -0.0036 13.9427 -0.0036C6.2627 -0.0036 0.0027 6.2464 0.0027 13.9464C0.0027 21.6264 6.2627 27.8864 13.9427 27.8864ZM6.7427 13.6564C6.6627 13.1564 6.8227 12.7964 7.2727 12.5964L14.1227 9.5864L14.9027 6.9164C15.1927 5.8964 16.5727 6.2464 16.2827 7.2964L15.5027 10.0264C15.3827 10.4164 15.2327 10.5364 14.8227 10.7364L13.5727 11.3164C13.3027 11.4264 13.2727 11.6864 13.4027 11.9364L14.7527 14.6964C14.8427 14.8764 15.0027 14.9264 15.2127 14.8064L16.9127 13.8264C17.2627 13.6164 17.6827 13.5464 18.1127 13.7364L21.6927 15.4664C22.8227 16.0064 22.0427 17.3364 21.0927 16.8864L17.7327 15.2864L15.1727 16.7664C14.9527 16.8664 14.9527 17.1164 15.1327 17.2664L18.8927 20.0264C19.8627 20.7264 18.8527 21.9564 17.9927 21.3564L13.1527 17.7864C12.7927 17.5164 12.4127 17.2364 11.9527 16.3564L10.4627 13.3864C10.3627 13.1564 10.1327 13.1264 9.9027 13.2064L8.2727 13.8464L8.6727 16.3364C8.8327 17.3764 7.3827 17.5964 7.2227 16.5464ZM9.8727 10.2964C8.9027 10.2964 8.1227 9.5164 8.1227 8.5464C8.1227 7.5764 8.9027 6.7964 9.8727 6.7964C10.8427 6.7964 11.6227 7.5764 11.6227 8.5464C11.6227 9.5164 10.8427 10.2964 9.8727 10.2964Z"
        fillRule="evenodd"
        clipRule="evenodd"
    />
</svg>
        