<svg viewBox="0 0 23.238839054838014 32.464472697915184" xmlns="http://www.w3.org/2000/svg"><path d="M10.6503 5.977C12.2703 5.977 13.6303 4.637 13.6303 2.997C13.6303 1.357 12.2703 -0.003 10.6503 -0.003C9.0103 -0.003 7.6503 1.357 7.6503 2.997C7.6503 4.637 9.0103 5.977 10.6503 5.977ZM1.4203 9.997H5.8603C6.0703 9.997 6.2403 10.157 6.2203 10.367L5.7903 16.137C5.6403 18.197 6.8503 19.487 8.6003 19.837L14.3103 21.037L15.5403 27.167C15.7103 27.997 16.5503 28.397 17.1803 28.277C17.9503 28.127 18.4403 27.367 18.2903 26.607L16.8903 19.567C16.7903 19.017 16.3203 18.637 15.8003 18.457L11.3903 17.077L11.7703 11.747C11.8103 11.337 12.1903 11.187 12.5103 11.447L14.6003 13.177C14.8603 13.387 15.1603 13.507 15.5003 13.507H21.8403C22.6203 13.507 23.2403 12.877 23.2403 12.097C23.2403 11.317 22.6203 10.707 21.8403 10.707H16.0103L12.9603 8.167C12.1903 7.537 11.4903 7.177 10.4003 7.177H3.3203L4.8903 1.957C5.1103 1.207 4.6903 0.407 3.9503 0.187C3.2003 -0.023 2.3903 0.397 2.1703 1.147L0.0803 8.177C-0.1997 9.107 0.2403 9.997 1.4203 9.997ZM7.3703 32.407C8.0403 32.607 8.8703 32.307 9.1303 31.477L11.2203 24.487C11.2803 24.297 11.2903 24.087 11.2903 23.867V21.747L8.3403 21.127C8.2703 21.107 8.2103 21.107 8.1603 21.097L8.4603 23.867L6.4203 30.667C6.2003 31.387 6.6303 32.187 7.3703 32.407Z" /></svg>