
<svg
    viewBox={0 0 28.685343979146182 28.250467328277942}
    xmlns="http://www.w3.org/2000/svg"
>
    <path
        fill="inherit"
        d="M10.2664 5.2664L14.1964 3.5364C14.6964 3.3264 14.7964 2.7864 14.2864 2.4364L10.9764 0.1464C10.5464 -0.1736 10.0064 0.0564 9.9364 0.6164L9.3964 4.5764C9.3164 5.1864 9.7364 5.4964 10.2664 5.2664ZM25.0064 8.1764C27.0464 8.1764 28.6864 6.4664 28.6864 4.4864C28.6864 2.4164 27.0464 0.7564 25.0064 0.7564C22.9264 0.7564 21.2864 2.4164 21.2864 4.4864C21.2864 6.5264 22.9264 8.1764 25.0064 8.1764ZM5.5964 5.6164L5.9664 6.4164L3.3064 9.2464L0.9764 10.3864C0.0564 10.8264 -0.1936 11.7164 0.1364 12.4164C0.4664 13.1264 1.2864 13.5664 2.3364 13.0564L4.2764 12.1264L8.5164 11.8964L8.9464 12.7964C9.1464 13.2464 9.6864 13.4364 10.1364 13.2364C10.5864 13.0264 10.7764 12.4964 10.5664 12.0564L7.2164 4.8664C7.0164 4.4264 6.4864 4.2364 6.0264 4.4464C5.5764 4.6464 5.3864 5.1864 5.5964 5.6164ZM11.9764 8.9564C11.4764 9.1764 11.3864 9.7064 11.9064 10.0764L15.2064 12.3564C15.6564 12.6764 16.1664 12.4264 16.2464 11.8764L16.8064 7.9164C16.8864 7.2864 16.4464 6.9964 15.9164 7.2364ZM2.9664 27.7364C3.6764 28.4764 4.8964 28.4264 5.7664 27.5264L11.6464 21.4464C11.8464 21.2464 11.9764 21.1964 12.2964 21.3164L16.8864 23.0464C19.8264 24.1864 22.6164 23.2164 23.8964 20.8664L26.8564 15.4864C28.0064 13.3964 27.6464 11.2364 25.6464 10.1764C23.7264 9.1164 21.7164 9.9164 20.5464 12.0564L16.7264 19.0464L13.4564 17.8564C11.8464 17.2664 10.4864 17.4564 9.2064 18.7964L3.0964 25.1164C2.2464 25.9864 2.3264 27.0864 2.9664 27.7364Z"
        fillRule="evenodd"
        clipRule="evenodd"
    />
</svg>
        