
<svg
    viewBox="0 0 27.78125 31.22344717191489"
    xmlns="http://www.w3.org/2000/svg"
>
    <path
        fill="inherit"
        d="M0.0037 30.0478C0.0037 30.6778 0.5237 31.1978 1.1337 31.1978C1.7637 31.1978 2.2837 30.6778 2.2837 30.0478V1.1378C2.2837 0.5078 1.7637 -0.0022 1.1337 -0.0022C0.5237 -0.0022 0.0037 0.5078 0.0037 1.1378ZM18.1037 6.0178C19.7737 6.0178 21.1137 4.6778 21.1137 3.0078C21.1137 1.3378 19.7737 -0.0022 18.1037 -0.0022C16.4337 -0.0022 15.0937 1.3378 15.0937 3.0078C15.0937 4.6778 16.4337 6.0178 18.1037 6.0178ZM21.3537 30.2978C22.2437 32.0978 24.8937 30.9978 23.9237 29.0478L21.0037 23.1178C20.7837 22.6678 20.4537 22.1878 20.1937 21.8078L18.3237 19.1578L18.4537 18.7678C18.9737 17.2978 19.1537 16.3878 19.2537 14.9178L19.5337 10.7778C19.6837 8.8078 18.5237 7.2978 16.5037 7.2978C14.9837 7.2978 13.9637 8.0678 12.5637 9.4378L10.3737 11.5978C9.6537 12.3078 9.4237 12.8778 9.3537 13.8078L9.0937 17.1978C9.0237 18.0478 9.5037 18.6578 10.2937 18.6878C11.0837 18.7478 11.5637 18.2778 11.6637 17.3678L11.9737 13.6478L13.0337 12.6878C13.4137 12.3478 13.9137 12.5778 13.8937 12.9578L13.6437 16.1178C13.5237 17.7078 13.9037 18.4578 14.9937 19.8278L17.8937 23.4778C18.1937 23.8478 18.2237 23.9978 18.3437 24.2178ZM26.3437 12.9178H23.0237L20.8637 10.5178L20.6437 13.9978L21.5337 14.8778C21.9937 15.3578 22.4037 15.4878 23.2537 15.4878H26.3437C27.2037 15.4878 27.7837 14.9978 27.7837 14.1878C27.7837 13.4278 27.1937 12.9178 26.3437 12.9178ZM10.8537 30.7178L15.1637 25.5978C15.5837 25.0978 15.6437 24.9678 15.8137 24.4478L16.1637 23.3878L13.8537 20.4978L13.1237 23.8178L8.8737 28.8578C7.5037 30.4778 9.7237 32.0578 10.8537 30.7178Z"
        fillRule="evenodd"
        clipRule="evenodd"
    />
</svg>
        