
<svg
    viewBox={0 0 26.701171875 32.454130698157954}
    xmlns="http://www.w3.org/2000/svg"
>
    <path
        fill="inherit"
        d="M3.5837 0.4257C1.5737 0.4257 0.0037 2.0057 0.0037 4.0257C0.0037 5.6257 1.1737 7.3657 2.8137 8.2457V12.7257C2.8137 13.1857 2.9537 13.5857 3.3037 13.8757L7.1637 16.9357C7.6437 17.3057 8.1637 17.2757 8.7637 17.0357L13.0437 15.2457C13.6437 14.9857 13.9437 15.3257 14.0137 15.7357L16.1337 27.4257L10.2537 29.7757C9.5537 30.0457 9.2037 30.8557 9.4737 31.5757C9.8037 32.3857 10.5937 32.6057 11.2837 32.3357L18.2137 29.5657C18.8137 29.3257 19.1237 28.7357 19.0837 28.1057L18.6937 22.7157C18.6437 22.1157 19.3037 21.7757 19.7737 22.0957L23.9437 24.8757V31.0757C23.9437 31.8257 24.5437 32.4557 25.3237 32.4557C26.0837 32.4557 26.7037 31.8257 26.7037 31.0757V24.1457C26.7037 23.6457 26.4437 23.2757 26.0837 22.9757L20.7137 18.5457L19.6437 12.7757C19.5537 12.1957 19.6237 11.6157 19.9037 11.0457L24.4337 2.0057C24.7737 1.3257 24.4837 0.4857 23.8037 0.1457C23.1237 -0.1943 22.2837 0.0757 21.9437 0.7457L17.5037 9.6657C17.1837 10.2957 16.7337 10.7057 16.0637 10.9757L8.2337 14.2257L5.0737 11.6957C4.8437 11.5257 4.5637 11.4557 4.3337 11.4557V8.2457C5.9737 7.3657 7.1537 5.6257 7.1537 4.0257C7.1537 2.0057 5.5737 0.4257 3.5837 0.4257ZM3.5837 1.9357C4.7337 1.9357 5.6337 2.8657 5.6337 4.0757C5.6337 5.2457 4.7737 6.5157 3.5837 6.9257C2.3937 6.5157 1.5137 5.2457 1.5137 4.0757C1.5137 2.8657 2.4237 1.9357 3.5837 1.9357ZM13.2337 10.3157C14.8937 10.3157 16.2237 8.9757 16.2237 7.3257C16.2237 5.6757 14.8937 4.3457 13.2337 4.3457C11.5837 4.3457 10.2537 5.6757 10.2537 7.3257C10.2537 8.9757 11.5837 10.3157 13.2337 10.3157Z"
        fillRule="evenodd"
        clipRule="evenodd"
    />
</svg>
        