<svg viewBox="0 0 27.890625 27.890625" xmlns="http://www.w3.org/2000/svg"><path d="M13.9427 27.8864C21.6427 27.8864 27.8927 21.6264 27.8927 13.9464C27.8927 6.2464 21.6427 -0.0036 13.9427 -0.0036C6.2627 -0.0036 0.0027 6.2464 0.0027 13.9464C0.0027 21.6264 6.2627 27.8864 13.9427 27.8864ZM11.9227 23.9364C11.4727 23.9364 11.1427 23.5864 11.1427 23.1564V19.2764C11.1427 19.1264 11.1527 19.0164 11.2227 18.9064L13.0527 15.4064V13.3064C13.0527 13.0864 12.9627 12.8964 12.6627 12.8964H10.8327C10.6527 12.8964 10.5527 12.8964 10.4427 12.8364L7.6827 11.6464C7.2427 11.4564 7.1827 10.9364 7.4327 10.5664L12.3427 3.7764C12.4427 3.6664 12.5827 3.5964 12.7127 3.5964H13.9727C14.3327 3.5964 14.6127 3.8564 14.6127 4.2064C14.6127 4.5564 14.3327 4.8264 13.9727 4.8264H12.6727L8.6727 10.4064L10.6527 11.2264L12.4727 9.9264C13.2027 9.4064 14.0427 9.2864 14.9127 9.6564L15.4127 9.8564C16.1827 10.1864 16.5327 11.0364 16.5327 11.8364V19.0964L17.9627 22.8964C18.1427 23.3964 17.8727 23.7464 17.5027 23.8864C17.1427 24.0064 16.7027 23.9164 16.5127 23.4364L15.0827 19.6164C15.0127 19.4864 15.0027 19.4164 14.9827 19.2764L14.7127 16.9264C14.6927 16.7864 14.5227 16.7664 14.4627 16.8564L12.6727 19.4964V23.1564C12.6727 23.5864 12.3227 23.9364 11.9227 23.9364ZM15.7527 8.9664C14.8227 8.9664 14.0727 8.2264 14.0727 7.2864C14.0727 6.3664 14.8227 5.6464 15.7527 5.6464C16.6627 5.6464 17.4027 6.3664 17.4027 7.2864C17.4027 8.2264 16.6627 8.9664 15.7527 8.9664Z" /></svg>