
<svg
    viewBox={0 0 27.890625 27.890625}
    xmlns="http://www.w3.org/2000/svg"
>
    <path
        fill="inherit"
        d="M13.9427 27.8864C21.6427 27.8864 27.8927 21.6464 27.8927 13.9464C27.8927 6.2464 21.6427 -0.0036 13.9427 -0.0036C6.2527 -0.0036 0.0027 6.2464 0.0027 13.9464C0.0027 21.6464 6.2527 27.8864 13.9427 27.8864ZM13.9427 25.5664C7.5227 25.5664 2.3227 20.3664 2.3227 13.9464C2.3227 7.5164 7.5227 2.3264 13.9427 2.3264C20.3727 2.3264 25.5627 7.5164 25.5627 13.9464C25.5627 20.3664 20.3727 25.5664 13.9427 25.5664ZM10.4427 9.0064C11.3427 9.0064 12.0827 8.2764 12.0827 7.3464C12.0827 6.4364 11.3427 5.6964 10.4427 5.6964C9.5327 5.6964 8.7927 6.4364 8.7927 7.3464C8.7927 8.2764 9.5327 9.0064 10.4427 9.0064ZM21.0927 19.2464L16.6427 16.8464L13.7527 14.8464C13.5327 14.6964 13.3427 14.5064 13.1627 14.2964C13.4627 14.1264 13.5727 13.7764 13.4927 13.4564L12.9327 11.1664C12.7327 10.3464 11.9927 9.8164 11.1727 9.8164H9.3827C8.8227 9.8164 8.4527 9.9364 8.0827 10.2964L6.0327 12.3464C5.7827 12.5764 5.7527 12.9764 5.9227 13.2664L7.3527 15.7864V19.9364C7.3527 20.3464 7.7127 20.6964 8.1227 20.6964C8.5627 20.6964 8.9027 20.3464 8.9027 19.9364V16.4064L13.3027 16.7364L15.9527 18.2364L20.3727 20.5864C20.8227 20.8364 21.2627 20.6264 21.4127 20.3064C21.6027 19.9364 21.4627 19.4364 21.0927 19.2464ZM7.5427 13.0164L8.8727 11.6764L9.9127 14.3464L9.1027 14.8064H8.5727Z"
        fillRule="evenodd"
        clipRule="evenodd"
    />
</svg>
        