
<svg
    viewBox="0 0 27.890625 27.890625"
    xmlns="http://www.w3.org/2000/svg"
>
    <path
        fill="inherit"
        d="M13.9427 27.8864C21.6427 27.8864 27.8927 21.6464 27.8927 13.9464C27.8927 6.2464 21.6427 -0.0036 13.9427 -0.0036C6.2527 -0.0036 0.0027 6.2464 0.0027 13.9464C0.0027 21.6464 6.2527 27.8864 13.9427 27.8864ZM13.9427 25.5664C7.5227 25.5664 2.3227 20.3664 2.3227 13.9464C2.3227 7.5164 7.5227 2.3264 13.9427 2.3264C20.3727 2.3264 25.5627 7.5164 25.5627 13.9464C25.5627 20.3664 20.3727 25.5664 13.9427 25.5664ZM10.3227 9.6364C11.1327 9.6364 11.7727 9.0064 11.7727 8.2064C11.7727 7.4064 11.1427 6.7664 10.3227 6.7664C9.5327 6.7664 8.8827 7.4064 8.8827 8.2064C8.8827 9.0064 9.5327 9.6364 10.3227 9.6364ZM17.5227 9.6364C18.3227 9.6364 18.9727 8.9964 18.9727 8.2064C18.9727 7.4064 18.3227 6.7664 17.5227 6.7664C16.7227 6.7664 16.0927 7.4064 16.0927 8.2064C16.0927 9.0064 16.7327 9.6364 17.5227 9.6364ZM13.9327 11.4964C14.6027 11.4964 15.1027 11.5264 15.4127 11.5764C15.7727 11.6464 15.9427 11.8564 15.9527 12.2364C15.9727 12.7464 15.9527 14.5364 15.8327 15.3364C15.6827 16.1464 14.7627 20.0264 14.7127 20.1764C14.5727 20.6264 14.8627 21.0264 15.3127 21.0264C15.6527 21.0264 15.8827 20.8364 15.9927 20.4364C16.2027 19.6464 16.8427 16.9564 17.0627 16.3264C17.2227 15.8364 17.3227 15.7264 17.5227 15.7264C17.7327 15.7264 17.8427 15.8464 17.9927 16.3264C18.2127 16.9264 18.8827 19.6364 19.0627 20.4364C19.1727 20.8464 19.3827 21.0264 19.7427 21.0264C20.1827 21.0264 20.4527 20.6164 20.3327 20.1964C20.2927 20.0264 19.3627 16.1464 19.2227 15.3364C19.1027 14.5364 19.1127 12.7464 19.1127 12.2064C19.1127 11.8664 19.2627 11.6164 19.5327 11.5664C19.8527 11.4664 22.3027 11.2364 22.6527 11.1064C22.9527 11.0064 23.1427 10.7564 23.1427 10.4564C23.1427 10.0864 22.8627 9.7864 22.5427 9.7864C22.4327 9.7864 22.3227 9.8264 22.2127 9.8464C21.1927 10.0364 19.0627 10.1864 17.5227 10.2664C16.2727 10.3064 14.8427 10.3364 13.9727 10.3364C13.0727 10.3364 11.6227 10.3064 10.3227 10.2664C8.8227 10.1964 6.6627 10.0464 5.6227 9.8464C5.5327 9.8264 5.4327 9.7864 5.3227 9.7864C4.9927 9.7864 4.7327 10.0864 4.7327 10.4564C4.7327 10.7864 4.9227 11.0564 5.2227 11.1064C5.5827 11.1964 8.0127 11.4964 8.3127 11.5664C8.5827 11.6164 8.7627 11.8664 8.7627 12.2064C8.7627 12.7464 8.7627 14.5364 8.6227 15.3364C8.4727 16.1464 7.5627 20.0264 7.5027 20.1764C7.3827 20.6164 7.6727 21.0264 8.1027 21.0264C8.4627 21.0264 8.6727 20.8464 8.8027 20.4364C9.0127 19.6464 9.6527 16.9564 9.8827 16.3264C10.0327 15.8464 10.1327 15.7264 10.3227 15.7264C10.5527 15.7264 10.6627 15.8464 10.8127 16.3064C11.0027 16.9264 11.7027 19.6364 11.8827 20.4364C11.9627 20.8364 12.1827 21.0264 12.5327 21.0264C12.9927 21.0264 13.2727 20.6264 13.1427 20.1964C13.0927 20.0264 12.1727 16.1464 12.0327 15.3364C11.9127 14.5364 11.9127 12.7464 11.9227 12.2364C11.9327 11.8564 12.0827 11.6464 12.4527 11.5764C12.8227 11.5164 13.4127 11.4664 13.9327 11.4964Z"
        fillRule="evenodd"
        clipRule="evenodd"
    />
</svg>
        