
<svg
    viewBox="0 0 34.630859375 26.263671875"
    xmlns="http://www.w3.org/2000/svg"
>
    <path
        fill="inherit"
        d="M27.2037 5.9781C28.8437 5.9781 30.1737 4.6381 30.1737 2.9781C30.1737 1.3381 28.8437 -0.0019 27.2037 -0.0019C25.5437 -0.0019 24.2037 1.3381 24.2037 2.9781C24.2037 4.6381 25.5437 5.9781 27.2037 5.9781ZM17.3237 20.8781C18.0737 20.8781 18.6937 20.2581 18.6937 19.5081V12.6281C18.6937 12.3081 18.5637 12.0081 18.3037 11.6981L14.7237 7.7081C14.5037 7.4681 14.6537 7.0981 14.9937 7.0981H19.3837C19.9237 7.0981 20.0837 7.4781 20.0837 7.8481V11.2481C20.0837 12.0081 20.7037 12.6081 21.4537 12.6081H26.9637C27.7137 12.6081 28.3137 12.0081 28.3137 11.2481C28.3137 10.4981 27.7137 9.8881 26.9637 9.8881H22.8137V5.0481C22.8137 3.5181 21.6037 2.2981 20.0737 2.2981H13.3537C11.9637 2.2981 10.7337 3.1481 10.1837 4.4181C9.6537 5.7181 9.9537 7.1681 10.9337 8.1581L15.9537 13.2081V19.5081C15.9537 20.2581 16.5737 20.8781 17.3237 20.8781ZM7.4237 26.2681C11.5537 26.2681 14.8637 22.9581 14.8637 18.8281C14.8637 14.7081 11.5537 11.3881 7.4237 11.3881C3.3037 11.3881 0.0037 14.7081 0.0037 18.8281C0.0037 22.9581 3.3037 26.2681 7.4237 26.2681ZM30.8737 14.7381C31.9737 15.7381 32.7037 17.1981 32.7037 18.8281C32.7037 21.8581 30.2237 24.3381 27.2037 24.3381C24.1737 24.3381 21.6937 21.8581 21.6937 18.8281C21.6937 18.0581 21.8437 17.3081 22.1337 16.6481C22.4537 15.9181 22.1337 15.3981 21.6537 15.2281C21.2037 15.0481 20.6737 15.1981 20.4237 15.7881C20.0037 16.7381 19.7737 17.7481 19.7737 18.8281C19.7737 22.9581 23.0737 26.2681 27.2037 26.2681C31.3237 26.2681 34.6337 22.9581 34.6337 18.8281C34.6337 16.5881 33.6637 14.6181 32.0837 13.2381C31.5837 12.7981 31.0037 12.9081 30.6637 13.2781C30.3337 13.6481 30.2837 14.2181 30.8737 14.7381ZM7.4237 24.3381C4.4037 24.3381 1.9237 21.8581 1.9237 18.8281C1.9237 15.7881 4.4037 13.3181 7.4237 13.3181C10.4637 13.3181 12.9337 15.7881 12.9337 18.8281C12.9337 21.8581 10.4637 24.3381 7.4237 24.3381Z"
        fillRule="evenodd"
        clipRule="evenodd"
    />
</svg>
        