
<svg
    viewBox="0 0 22.888251631256324 29.9840350645987"
    xmlns="http://www.w3.org/2000/svg"
>
    <path
        fill="inherit"
        d="M14.288 5.9612C15.948 5.9612 17.268 4.6312 17.268 2.9812C17.268 1.3212 15.948 0.0012 14.288 0.0012C12.638 0.0012 11.308 1.3212 11.308 2.9812C11.308 4.6312 12.638 5.9612 14.288 5.9612ZM9.618 17.8512L14.848 20.7912L11.478 23.6912C10.748 24.3112 10.768 25.1112 11.198 25.6112C11.648 26.1112 12.458 26.2412 13.208 25.5912L17.928 21.5712C18.568 21.0312 18.478 19.8512 17.698 19.3412L12.568 15.9812L13.578 12.4412C13.718 11.9312 14.308 11.8712 14.608 12.3012L16.108 14.5012C16.468 15.0112 17.108 15.2212 17.698 14.9412L22.028 13.0112C22.798 12.6712 23.078 12.0012 22.758 11.3112C22.408 10.6212 21.758 10.4212 20.988 10.7612L17.558 12.2812L15.198 9.0112C13.968 7.3112 12.428 6.6212 9.918 6.8112L5.118 7.1512C4.348 7.2012 3.828 7.7012 3.728 8.4912L3.078 13.3612C2.958 14.2012 3.378 14.7912 4.138 14.8712C4.898 14.9412 5.388 14.5012 5.498 13.6612L6.088 9.6812L8.018 9.5412C8.438 9.5012 8.868 9.8012 8.718 10.3312L7.588 14.2412C6.938 16.5612 8.438 17.1812 9.618 17.8512ZM0.468 29.6712C0.978 30.0912 1.758 30.1512 2.448 29.4812L6.878 25.0912C7.248 24.7212 7.328 24.6412 7.568 24.0612L9.428 19.2512L8.978 19.0012C7.938 18.4412 7.208 17.8712 6.718 17.2512L5.088 23.0112L0.498 27.5912C-0.232 28.3012 -0.092 29.1712 0.468 29.6712Z"
        fillRule="evenodd"
        clipRule="evenodd"
    />
</svg>
        