
<svg
    viewBox="0 0 14.370226039182626 30.355337397337014"
    xmlns="http://www.w3.org/2000/svg"
>
    <path
        fill="inherit"
        d="M0.0048 1.2853L0.2648 6.0853C0.3048 6.9653 0.6448 7.4653 1.2548 7.9153L4.2248 10.0953C4.5948 10.3553 4.8048 10.5453 4.8048 11.1853V29.0253C4.8048 29.7653 5.4048 30.3553 6.1448 30.3553C6.8748 30.3553 7.4648 29.7653 7.4648 29.0253V19.4353C7.4648 19.1853 7.6848 18.9653 7.9348 18.9653C8.1748 18.9653 8.3848 19.1853 8.3848 19.4353V29.0253C8.3848 29.7653 8.9848 30.3553 9.7248 30.3553C10.4648 30.3553 11.0448 29.7653 11.0448 29.0253V13.1853C11.0448 12.9353 11.2548 12.7453 11.4948 12.7453C11.7448 12.7453 11.9348 12.9353 11.9348 13.1853V18.4453C11.9348 19.1353 12.4848 19.6653 13.1548 19.6653C13.8248 19.6653 14.3748 19.1353 14.3748 18.4453V12.5653C14.3748 9.5453 12.1548 7.5353 8.9248 7.5353H6.0848C5.2648 7.5353 4.7548 7.3753 4.1048 6.9053L2.6848 5.8953L2.4248 1.1653C2.3948 0.4953 1.8148 -0.0547 1.1448 0.0053C0.4648 0.0553 -0.0252 0.6153 0.0048 1.2853ZM7.9348 6.0053C9.5848 6.0053 10.9148 4.6753 10.9148 3.0253C10.9148 1.3753 9.5848 0.0453 7.9348 0.0453C6.2748 0.0453 4.9548 1.3753 4.9548 3.0253C4.9548 4.6753 6.2748 6.0053 7.9348 6.0053Z"
        fillRule="evenodd"
        clipRule="evenodd"
    />
</svg>
        