
<svg
    viewBox={0 0 27.890625 27.890625}
    xmlns="http://www.w3.org/2000/svg"
>
    <path
        fill="inherit"
        d="M13.9427 27.8864C21.6427 27.8864 27.8927 21.6464 27.8927 13.9464C27.8927 6.2464 21.6427 -0.0036 13.9427 -0.0036C6.2527 -0.0036 0.0027 6.2464 0.0027 13.9464C0.0027 21.6464 6.2527 27.8864 13.9427 27.8864ZM13.9427 25.5664C7.5227 25.5664 2.3227 20.3664 2.3227 13.9464C2.3227 7.5164 7.5227 2.3264 13.9427 2.3264C20.3727 2.3264 25.5627 7.5164 25.5627 13.9464C25.5627 20.3664 20.3727 25.5664 13.9427 25.5664ZM12.7327 7.7264C13.6327 7.7264 14.3827 6.9764 14.3827 6.0664C14.3827 5.1664 13.6327 4.4264 12.7327 4.4264C11.8227 4.4264 11.0927 5.1664 11.0927 6.0664C11.0927 6.9764 11.8227 7.7264 12.7327 7.7264ZM11.2527 14.8764L14.1127 15.5164L13.2927 18.2364C13.1127 18.7864 13.4827 19.1564 13.8627 19.2264C14.2227 19.2864 14.6027 19.1264 14.7427 18.6764L15.7527 15.2564C15.8827 14.7764 15.6927 14.3864 15.2627 14.2364L12.6027 13.2764L13.0027 10.5364C13.0327 10.3864 13.1527 10.3464 13.2927 10.4164L14.6127 11.0164C14.7927 11.0864 14.9327 11.1164 15.1527 11.1464L18.5027 11.4864C18.9227 11.5264 19.2927 11.2264 19.3227 10.7964C19.3627 10.4064 19.0627 10.0264 18.6327 9.9764L15.2427 9.6564L12.6727 8.4764C11.5827 7.9664 10.4327 8.5464 10.2827 9.6364L9.8727 12.8564C9.7527 13.7964 10.3227 14.6564 11.2527 14.8764ZM20.7627 9.1864C20.6427 8.9264 20.3727 8.8464 20.1227 8.9564C19.7927 9.1164 19.4527 9.2964 19.1727 9.4564C19.4827 9.6064 19.7027 9.8464 19.8627 10.1764C20.0727 10.0464 20.3027 9.9164 20.5327 9.8064C20.7827 9.6664 20.8627 9.4064 20.7627 9.1864ZM10.4827 23.0064H13.2927C13.5327 23.0064 13.7527 22.7864 13.7527 22.5264V21.2364H16.1027C16.3627 21.2364 16.5727 20.9964 16.5727 20.7564V19.4364H18.0927C18.3227 19.4364 18.5427 19.2264 18.5527 18.9764L18.8227 12.0964C18.6927 12.1264 18.6327 12.1364 17.8927 12.0764L17.6227 18.4964H16.1027C15.8427 18.4964 15.6227 18.6864 15.6227 18.9664V20.2764H13.2927C13.0427 20.2764 12.8227 20.5064 12.8227 20.7564V22.0664H10.4827C10.2427 22.0664 10.0127 22.2864 10.0127 22.5264C10.0127 22.8064 10.2427 23.0064 10.4827 23.0064ZM8.6727 21.6264C8.9827 21.7964 9.4327 21.7364 9.7327 21.3164L11.7727 18.2564C11.8527 18.1264 11.8927 17.9964 11.9227 17.7964L12.2627 15.7764L11.1027 15.5164C10.8127 15.4464 10.6327 15.3664 10.5727 15.3164L10.4327 17.5664L8.4927 20.4664C8.1527 20.9764 8.3427 21.4264 8.6727 21.6264Z"
        fillRule="evenodd"
        clipRule="evenodd"
    />
</svg>
        