<svg viewBox="0 0 23.716341718965953 33.2314561537838" xmlns="http://www.w3.org/2000/svg"><path d="M3.2241 33.2055C3.9941 33.3455 4.7041 32.8355 4.8541 32.0455L6.1541 25.0655L11.5941 22.1055C11.7441 22.0155 11.8841 22.0555 11.9541 22.2055L14.6941 28.8355C14.8641 29.1855 15.1041 29.4355 15.4241 29.5955L21.6041 33.0355C22.3841 33.4855 23.2041 33.1155 23.5341 32.4955C23.9241 31.8255 23.6641 30.9355 22.9841 30.5555L17.2241 27.3755L13.3341 11.7755C13.0941 10.8455 12.2941 10.1755 11.2941 10.1755H2.9441L6.8541 1.8555C7.3841 0.7355 6.5741 -0.0045 5.7541 -0.0045C5.2941 -0.0045 4.8441 0.2355 4.6041 0.8055L0.0941 12.5655C-0.1259 13.1255 0.0541 13.6455 0.3941 13.9855L3.8841 17.4855C4.4141 18.0055 5.3341 18.0055 5.8641 17.4855L7.4141 15.9255C7.6141 15.7255 7.9341 15.7255 8.0141 16.0255L8.8441 19.3755L4.0241 22.9955C3.6741 23.2555 3.5241 23.6655 3.4441 24.0455L2.0941 31.5555C1.9541 32.2955 2.4641 33.0555 3.2241 33.2055ZM10.7741 8.7355C12.4141 8.7355 13.7441 7.4055 13.7441 5.7555C13.7441 4.1155 12.4141 2.7855 10.7741 2.7855C9.1041 2.7855 7.7841 4.1155 7.7841 5.7555C7.7841 7.4055 9.1041 8.7355 10.7741 8.7355ZM6.3141 12.9855L4.8641 14.4355L3.4141 12.9855Z" /></svg>