
<svg
    viewBox={0 0 27.890625 27.890625}
    xmlns="http://www.w3.org/2000/svg"
>
    <path
        fill="inherit"
        d="M13.9427 27.8864C21.6427 27.8864 27.8927 21.6264 27.8927 13.9464C27.8927 6.2464 21.6427 -0.0036 13.9427 -0.0036C6.2627 -0.0036 0.0027 6.2464 0.0027 13.9464C0.0027 21.6264 6.2627 27.8864 13.9427 27.8864ZM16.7327 10.0264C15.8027 10.0264 15.0427 9.2664 15.0427 8.3164C15.0427 7.3864 15.8027 6.6164 16.7327 6.6164C17.6927 6.6164 18.4427 7.3864 18.4427 8.3164C18.4427 9.2664 17.6927 10.0264 16.7327 10.0264ZM5.6027 9.9264C5.6027 9.4864 5.9627 9.1464 6.4027 9.1464H13.0127C13.5927 9.1464 14.1227 9.3564 14.5227 9.7464L17.8927 13.1064H20.6327C20.7027 13.1064 20.7827 13.1064 20.8527 13.1264V12.0964C20.4527 11.5764 19.4527 10.1264 19.4527 8.8364C19.4527 7.7564 20.2627 6.9764 21.3327 6.9764C22.4127 6.9764 23.1827 7.7564 23.1827 8.8364C23.1827 10.1464 22.1927 11.6164 21.7927 12.1164V13.9164C21.7927 14.3564 21.4227 14.7064 21.0027 14.7064H17.5527C17.3327 14.7064 17.1327 14.6264 16.9927 14.4764L15.1927 12.6764C15.0827 12.5664 14.9127 12.5364 14.7827 12.6064L11.7327 14.1264L14.1327 16.5264C14.4127 16.8064 14.4327 17.1564 14.3027 17.4564L12.2927 21.4364C12.0627 21.9064 11.6327 21.9964 11.2927 21.8764C10.8727 21.7264 10.5827 21.2864 10.8527 20.7364L12.5527 17.3664L9.6227 15.2264C9.0527 14.7964 8.7527 14.1664 8.7527 13.5064C8.7527 12.7664 9.1427 12.0264 9.9427 11.6364L11.4327 10.9064C11.5027 10.8564 11.4727 10.7164 11.3927 10.7164H6.4027C5.9627 10.7164 5.6027 10.3664 5.6027 9.9264ZM20.4227 8.8364C20.4227 9.5464 20.9427 10.4964 21.3327 11.1164C21.6927 10.4964 22.2327 9.5464 22.2327 8.8364C22.2327 8.3164 21.8727 7.9264 21.3327 7.9264C20.7827 7.9264 20.4227 8.3164 20.4227 8.8364ZM3.9327 17.8964C3.9327 17.4564 4.2827 17.1064 4.7127 17.1064H7.8027L8.5027 15.0164C8.6027 15.1764 8.7727 15.4664 9.2127 15.7764L10.0327 16.3764L9.1027 18.2664C8.9827 18.5264 8.6927 18.6864 8.3927 18.6864H4.7127C4.2827 18.6864 3.9327 18.3364 3.9327 17.8964Z"
        fillRule="evenodd"
        clipRule="evenodd"
    />
</svg>
        