
<svg
    viewBox="0 0 27.890625 27.890625"
    xmlns="http://www.w3.org/2000/svg"
>
    <path
        fill="inherit"
        d="M13.9427 27.8864C21.6427 27.8864 27.8927 21.6264 27.8927 13.9464C27.8927 6.2464 21.6427 -0.0036 13.9427 -0.0036C6.2627 -0.0036 0.0027 6.2464 0.0027 13.9464C0.0027 21.6264 6.2627 27.8864 13.9427 27.8864ZM11.6027 7.7264C10.9527 7.7264 10.4027 7.2064 10.4027 6.5364C10.4027 5.8764 10.9527 5.3464 11.6027 5.3464C12.2727 5.3464 12.7927 5.8764 12.7927 6.5364C12.7927 7.2064 12.2727 7.7264 11.6027 7.7264ZM16.0527 9.9364C15.0927 9.9364 14.3327 9.1564 14.3327 8.2164C14.3327 7.2864 15.0927 6.5264 16.0527 6.5264C16.9827 6.5264 17.7427 7.2864 17.7427 8.2164C17.7427 9.1564 16.9827 9.9364 16.0527 9.9364ZM4.8527 18.3464C4.4127 18.3464 4.0627 18.0064 4.0627 17.5364C4.0627 17.1164 4.4127 16.7664 4.8527 16.7664H8.5827L12.0127 15.5464C12.4127 15.4064 12.6627 15.1064 12.7827 14.7064L13.4227 12.2664C13.4527 12.1164 13.3527 11.9864 13.2027 11.9864H9.9127C9.4727 11.9864 9.1327 11.6364 9.1327 11.1964V8.4064C9.1327 7.9564 9.4727 7.6164 9.9127 7.6164C10.3627 7.6164 10.7327 7.9564 10.7327 8.4064V10.4064H12.6627C14.1327 10.4064 15.4227 10.5864 17.4727 10.9964L23.8427 12.2864C24.2827 12.3764 24.4827 12.7264 24.4827 13.0664C24.4827 13.5264 24.1427 13.9764 23.5427 13.8464L17.0627 12.5464C16.9527 12.5364 16.8727 12.5964 16.8327 12.6864L14.6827 21.2964C14.5427 21.8864 13.8227 22.0564 13.2527 21.6264L10.6327 19.7964C10.2827 19.5364 10.2127 19.0264 10.4727 18.6764C10.7327 18.3164 11.2127 18.2264 11.5827 18.4864L13.2727 19.6964L13.5527 17.3464C13.5627 17.2664 13.4927 17.2164 13.4227 17.2264L9.1327 18.2664C8.9427 18.2964 8.8427 18.3464 8.6127 18.3464Z"
        fillRule="evenodd"
        clipRule="evenodd"
    />
</svg>
        