
<svg
    viewBox="0 0 30.014376391982047 27.498417050184447"
    xmlns="http://www.w3.org/2000/svg"
>
    <path
        fill="inherit"
        d="M3.6937 7.4244C5.7537 7.4244 7.4137 5.7744 7.4137 3.7344C7.4137 1.6644 5.7537 0.0044 3.6937 0.0044C1.6437 0.0044 0.0037 1.6644 0.0037 3.7344C0.0037 5.7144 1.6437 7.4244 3.6937 7.4244ZM16.3237 13.3744C16.8837 14.0544 17.8937 13.3144 17.3637 12.6044C16.9937 12.1044 16.8937 11.8244 16.8937 11.4344C16.8937 10.7644 17.3637 10.3944 17.7237 9.8744C18.5837 9.5244 19.5737 9.3144 20.4537 9.2744C20.6037 9.0644 20.7037 8.8444 20.7037 8.5844C20.7037 7.6744 19.4437 7.3044 19.4437 5.7244C19.4437 5.0744 19.6637 4.4744 20.1837 3.8044C20.7437 3.1044 21.7637 3.8444 21.2237 4.5644C20.8337 5.0744 20.7437 5.3544 20.7437 5.7244C20.7437 6.8344 21.9837 7.1344 21.9837 8.5844C21.9837 8.8844 21.9337 9.1444 21.8437 9.3644C22.5137 9.4744 23.2137 9.6644 23.8337 9.9144C23.5537 10.2944 23.3137 10.7444 23.3137 11.4344C23.3137 12.1044 23.5337 12.7144 24.0337 13.3744C24.5937 14.0544 25.6037 13.3144 25.0737 12.6044C24.7037 12.1044 24.6137 11.8244 24.6137 11.4344C24.6137 10.7744 25.0737 10.4044 25.4337 9.8844L29.7237 4.4144C30.1737 3.8444 30.0937 3.2544 29.5437 2.8344C27.7437 1.4444 24.3237 0.3844 20.7137 0.3844C17.1037 0.3844 13.6837 1.4444 11.8837 2.8344C11.3337 3.2544 11.2537 3.8444 11.7037 4.4144L16.0637 9.9844C15.8137 10.3344 15.6037 10.7744 15.6037 11.4344C15.6037 12.1044 15.8137 12.7144 16.3237 13.3744ZM16.1437 10.0744L16.0637 9.9844C16.4237 9.4744 16.8437 9.1144 16.8437 8.5844C16.8437 7.6744 15.6037 7.3044 15.6037 5.7244C15.6037 5.0744 15.8037 4.4744 16.3237 3.8044C16.8837 3.1044 17.9137 3.8444 17.3637 4.5644C16.9937 5.0744 16.8937 5.3544 16.8937 5.7244C16.8937 6.8344 18.1337 7.1344 18.1337 8.5844C18.1337 9.1444 17.9537 9.5444 17.7237 9.8744C17.4437 9.9644 17.1837 10.0944 16.9537 10.2144C16.6537 10.3744 16.3337 10.3244 16.1437 10.0744ZM24.4737 10.2144C24.2837 10.1144 24.0637 10.0044 23.8337 9.9144C24.1737 9.4444 24.5637 9.0944 24.5637 8.5844C24.5637 7.6744 23.3137 7.3044 23.3137 5.7244C23.3137 5.0744 23.5337 4.4744 24.0337 3.8044C24.5937 3.1044 25.6237 3.8444 25.0737 4.5644C24.7037 5.0744 24.6137 5.3544 24.6137 5.7244C24.6137 6.8344 25.8537 7.1344 25.8537 8.5844C25.8537 9.1644 25.6637 9.5544 25.4337 9.8844L25.2837 10.0744C25.0837 10.3244 24.7737 10.3744 24.4737 10.2144ZM25.7137 26.9844C26.3637 26.3344 26.4437 25.2344 25.5937 24.3644L19.4837 18.0444C18.1937 16.7044 16.8437 16.5144 15.2337 17.1044L11.9737 18.2944L8.1337 11.3044C6.9737 9.1644 4.9737 8.3644 3.0337 9.4244C1.0537 10.4844 0.6837 12.6444 1.8337 14.7344L4.7837 20.1144C6.0837 22.4644 8.8637 23.4344 11.8137 22.2944L16.4037 20.5644C16.7037 20.4444 16.8437 20.4944 17.0337 20.6944L22.9237 26.7744C23.7937 27.6744 25.0037 27.7244 25.7137 26.9844ZM20.1837 13.3744C20.7237 14.0544 21.7537 13.3144 21.2037 12.6044C20.8337 12.1044 20.7437 11.8244 20.7437 11.4344C20.7437 10.5644 21.5237 10.1944 21.8437 9.3644C21.4537 9.2944 21.0637 9.2744 20.7137 9.2744C20.6337 9.2744 20.5337 9.2744 20.4537 9.2744C20.0837 9.8044 19.4437 10.3244 19.4437 11.4344C19.4437 12.1044 19.6637 12.7144 20.1837 13.3744Z"
        fillRule="evenodd"
        clipRule="evenodd"
    />
</svg>
        