
<svg
    viewBox="0 0 27.890625 27.890625"
    xmlns="http://www.w3.org/2000/svg"
>
    <path
        fill="inherit"
        d="M13.9427 27.8864C21.6427 27.8864 27.8927 21.6464 27.8927 13.9464C27.8927 6.2464 21.6427 -0.0036 13.9427 -0.0036C6.2527 -0.0036 0.0027 6.2464 0.0027 13.9464C0.0027 21.6464 6.2527 27.8864 13.9427 27.8864ZM13.9427 25.5664C7.5227 25.5664 2.3227 20.3664 2.3227 13.9464C2.3227 7.5164 7.5227 2.3264 13.9427 2.3264C20.3727 2.3264 25.5627 7.5164 25.5627 13.9464C25.5627 20.3664 20.3727 25.5664 13.9427 25.5664ZM20.8627 10.8264C20.8627 12.3464 20.5727 13.7764 19.9027 15.5964C19.7127 16.1964 20.6027 16.4764 20.8227 15.8964C21.4927 14.2364 21.7927 12.6864 21.7927 10.8264C21.7927 9.0264 21.4927 7.4764 20.8227 5.7564C20.6027 5.1964 19.7027 5.4364 19.9027 6.0664C20.5727 7.8764 20.8627 9.3264 20.8627 10.8264ZM13.6027 9.2464C14.5227 9.2464 15.2427 8.5064 15.2427 7.6064C15.2427 6.6964 14.5227 5.9564 13.6027 5.9564C12.7027 5.9564 11.9627 6.6964 11.9627 7.6064C11.9627 8.5064 12.7027 9.2464 13.6027 9.2464ZM19.4527 10.0364H11.4027C11.5527 9.8564 11.5927 9.6364 11.5427 9.4164C11.4527 9.0664 11.1327 8.7864 10.5727 8.9164L8.3427 9.4164C6.9027 9.7464 6.9327 11.5964 8.4327 11.5964H10.8527C11.0927 11.5964 11.2627 11.7764 11.2627 12.0064V15.1864L8.9327 17.4964C8.6027 17.8164 8.3827 18.1464 8.2627 18.6364L7.4227 21.8064C7.2727 22.3764 7.6027 22.7264 8.0027 22.7864C8.3827 22.8464 8.8027 22.6864 8.9327 22.2064L9.7227 19.2364C9.8127 18.9464 9.8727 18.8164 10.0927 18.6364L11.9227 17.0764C12.2927 16.7664 12.9227 16.8264 13.1627 17.2664L14.2727 19.1964L15.9727 22.3764C16.2327 22.8764 16.7727 22.9164 17.1127 22.6964C17.4327 22.4864 17.5727 22.0764 17.3527 21.6464L15.6427 18.4164L14.6427 16.1364C14.4827 15.7464 14.3827 15.3264 14.3827 14.8864V12.0064C14.3827 11.7764 14.5627 11.5964 14.7827 11.5964H19.4527C19.8927 11.5964 20.2527 11.2564 20.2527 10.8264C20.2527 10.3864 19.8927 10.0364 19.4527 10.0364Z"
        fillRule="evenodd"
        clipRule="evenodd"
    />
</svg>
        