
<svg
    viewBox={0 0 34.671875 26.874012258031495}
    xmlns="http://www.w3.org/2000/svg"
>
    <path
        fill="inherit"
        d="M23.0737 5.9779C24.7337 5.9779 26.0737 4.6379 26.0737 2.9779C26.0737 1.3279 24.7337 -0.0021 23.0737 -0.0021C21.4237 -0.0021 20.0937 1.3279 20.0937 2.9779C20.0937 4.6379 21.4237 5.9779 23.0737 5.9779ZM13.4837 26.7879C14.0937 26.9979 14.8637 26.8479 15.2537 26.0479L18.7537 19.0479C19.0337 18.5079 18.9637 17.8779 18.4937 17.4279L14.2737 13.1979L19.6237 10.5279C19.8637 10.3879 20.1537 10.4579 20.3437 10.6479L23.5337 13.8079C23.7737 14.0579 24.1337 14.2179 24.5037 14.2179H30.8137C31.5837 14.2179 32.2137 13.6079 32.2137 12.8079V9.6279C32.8437 8.8179 34.6737 6.2079 34.6737 3.8779C34.6737 2.0279 33.3337 0.6979 31.4737 0.6979C29.6137 0.6979 28.2737 2.0279 28.2737 3.8779C28.2737 6.1979 30.0637 8.7879 30.7037 9.6079V11.4179H25.0737L19.1837 5.5079C18.4837 4.8079 17.5237 4.4179 16.5337 4.4179H4.8937C4.1337 4.4179 3.5037 5.0479 3.5037 5.8079C3.5037 6.5879 4.1337 7.2179 4.8937 7.2179H13.6737C13.8237 7.2179 13.8737 7.4479 13.7437 7.5179L11.1337 8.8179C9.7437 9.4979 9.0537 10.7979 9.0537 12.1179C9.0537 13.2479 9.5537 14.3679 10.5937 15.1179L15.7237 18.8579L12.7537 24.7979C12.2937 25.7479 12.7837 26.5079 13.4837 26.7879ZM31.4737 2.2179C32.4537 2.2179 33.1537 2.9279 33.1537 3.8779C33.1537 5.2079 32.1437 6.9879 31.4737 8.0679C30.8037 6.9879 29.7937 5.2079 29.7937 3.8779C29.7937 2.9279 30.4837 2.2179 31.4737 2.2179ZM1.3937 21.2179H8.3937C8.9437 21.2179 9.4237 20.9079 9.6637 20.4579L11.2537 17.2379L9.8337 16.1879C9.3237 15.8179 8.8837 15.3679 8.5537 14.8979L7.4137 18.4179H1.3937C0.6337 18.4179 0.0037 19.0479 0.0037 19.8079C0.0037 20.5779 0.6337 21.2179 1.3937 21.2179Z"
        fillRule="evenodd"
        clipRule="evenodd"
    />
</svg>
        