
<svg
    viewBox={0 0 33.017578125 30.26953125}
    xmlns="http://www.w3.org/2000/svg"
>
    <path
        fill="inherit"
        d="M18.0837 5.9759C19.7237 5.9759 21.0637 4.6359 21.0637 2.9759C21.0637 1.3259 19.7237 -0.0041 18.0837 -0.0041C16.4337 -0.0041 15.0937 1.3259 15.0937 2.9759C15.0937 4.6359 16.4337 5.9759 18.0837 5.9759ZM15.6537 19.7659V25.2659C15.6537 25.8259 15.9737 26.1159 16.5337 26.1159H20.2637C21.2437 26.1159 21.2637 24.7359 20.4237 24.4559L18.4037 23.8159V18.4959C18.4037 17.9059 18.0237 17.4459 17.4737 17.1959L13.7137 15.4659L14.7537 13.4159L20.1837 18.4259V18.4959C20.1837 19.2459 20.7937 19.8659 21.5437 19.8659C21.6037 19.8659 21.6537 19.8659 21.7237 19.8559L27.4937 25.1959C27.7537 25.4459 27.9137 25.4859 28.1737 25.4859H32.2837C32.6737 25.4859 33.0137 25.1459 33.0137 24.7359V24.0459C33.0137 23.6259 32.6737 23.2859 32.2837 23.2859H27.7237L22.8737 18.8259C22.9037 18.7159 22.9137 18.6059 22.9137 18.4959V12.5459C22.9137 12.0459 22.7737 11.8159 22.3137 11.4559L16.4337 7.0259C15.1737 6.0659 13.6137 5.8559 12.1437 6.4559L7.8237 8.2159C6.5037 8.7459 6.7237 10.1959 7.7837 10.7459L9.4037 11.5959L8.5137 13.3859C7.3037 15.7959 8.2137 17.8959 10.7237 18.5259ZM15.9037 11.1259C16.0137 10.8859 16.2537 10.8159 16.4837 10.9559L20.1837 13.3759V16.3559L15.4537 12.0159ZM8.4337 18.9059L7.7937 20.8359H2.8137C2.2737 20.8359 1.9837 21.1459 1.9837 21.7159V25.4459C1.9837 26.4159 3.3637 26.4459 3.6337 25.6059L4.2837 23.5859H8.8137C9.3837 23.5859 9.8337 23.2259 10.0337 22.8159L11.4137 20.0859L10.3937 19.8059C9.6237 19.6159 8.9737 19.3159 8.4337 18.9059ZM0.0037 21.1759V26.5259C0.0037 26.7959 0.2037 27.0259 0.4737 27.0259C0.7837 27.0259 0.9737 26.7959 0.9737 26.5259V21.1759C0.9737 20.8859 0.7837 20.6959 0.4737 20.6959C0.2037 20.6959 0.0037 20.8859 0.0037 21.1759ZM24.2537 29.2159C24.2537 29.8059 25.2237 30.2659 26.4437 30.2659C27.6737 30.2659 28.6537 29.8059 28.6537 29.2159V28.0559C28.6537 27.4959 27.6737 27.0459 26.4437 27.0459C25.2237 27.0459 24.2537 27.4959 24.2537 28.0559ZM15.9937 28.0959H21.3437C21.6137 28.0959 21.8437 27.8759 21.8437 27.6159C21.8437 27.3159 21.6137 27.1159 21.3437 27.1159H15.9937C15.7237 27.1159 15.5137 27.3159 15.5137 27.6159C15.5137 27.8759 15.7237 28.0959 15.9937 28.0959Z"
        fillRule="evenodd"
        clipRule="evenodd"
    />
</svg>
        