<svg viewBox="0 0 27.890625 27.890625" xmlns="http://www.w3.org/2000/svg"><path d="M13.9427 27.8864C21.6427 27.8864 27.8927 21.6464 27.8927 13.9464C27.8927 6.2464 21.6427 -0.0036 13.9427 -0.0036C6.2527 -0.0036 0.0027 6.2464 0.0027 13.9464C0.0027 21.6464 6.2527 27.8864 13.9427 27.8864ZM13.9427 25.5664C7.5227 25.5664 2.3227 20.3664 2.3227 13.9464C2.3227 7.5164 7.5227 2.3264 13.9427 2.3264C20.3727 2.3264 25.5627 7.5164 25.5627 13.9464C25.5627 20.3664 20.3727 25.5664 13.9427 25.5664ZM9.8427 8.7664C10.5027 8.7664 11.0227 8.2164 11.0227 7.5764C11.0227 6.9364 10.5027 6.3964 9.8427 6.3964C9.2027 6.3964 8.6727 6.9364 8.6727 7.5764C8.6727 8.2164 9.2027 8.7664 9.8427 8.7664ZM14.3327 11.6364C15.2327 11.6364 15.9827 10.9064 15.9827 9.9964C15.9827 9.0764 15.2327 8.3364 14.3327 8.3364C13.4227 8.3364 12.6727 9.0764 12.6727 9.9964C12.6727 10.9064 13.4227 11.6364 14.3327 11.6364ZM10.7427 15.2564C12.4327 15.4664 12.6727 16.4464 13.9227 16.4464C13.9627 16.4464 14.0027 16.4464 14.0227 16.4364L14.7627 14.3564C14.8427 14.1264 15.0027 14.0264 15.2427 14.0264H21.9527C22.4127 14.0264 22.7727 13.6564 22.7727 13.2064C22.7727 12.7864 22.4127 12.4164 21.9527 12.4164H9.3227L8.2727 8.9864C8.1527 8.5564 7.6927 8.2964 7.2827 8.4364C6.8627 8.5764 6.6127 9.0264 6.7427 9.4164L7.9327 13.3564C8.0427 13.7164 8.3127 14.0264 8.7127 14.0264H10.8827C11.0327 14.0264 11.1427 14.1464 11.0927 14.3164ZM13.9227 18.4864C15.9827 18.4864 16.4227 17.2364 17.7827 17.2364C19.1727 17.2364 19.6027 18.4864 21.6727 18.4864H22.2027C22.4627 18.4864 22.6727 18.2664 22.6727 18.0164C22.6727 17.7764 22.4627 17.5564 22.2027 17.5564H21.6727C20.2527 17.5564 19.7727 16.2964 17.7827 16.2964C15.8327 16.2964 15.3227 17.5564 13.9227 17.5564C12.4927 17.5564 12.0027 16.2964 10.0327 16.2964C8.0527 16.2964 7.5727 17.5564 6.1627 17.5564H5.6427C5.4027 17.5564 5.1827 17.7764 5.1827 18.0164C5.1827 18.2664 5.4027 18.4864 5.6427 18.4864H6.1627C8.2327 18.4864 8.6727 17.2364 10.0327 17.2364C11.4127 17.2364 11.8527 18.4864 13.9227 18.4864ZM9.7727 19.3564C10.0527 19.3564 10.2527 19.1564 10.2527 18.8764C10.2527 18.5964 10.0527 18.3864 9.7727 18.3864C9.4927 18.3864 9.2827 18.5964 9.2827 18.8764C9.2827 19.1564 9.4927 19.3564 9.7727 19.3564ZM18.0927 19.3564C18.3727 19.3564 18.5827 19.1564 18.5827 18.8764C18.5827 18.5964 18.3727 18.3864 18.0927 18.3864C17.8127 18.3864 17.5927 18.5964 17.5927 18.8764C17.5927 19.1564 17.8127 19.3564 18.0927 19.3564ZM8.3427 19.7164C8.6227 19.7164 8.8327 19.4964 8.8327 19.2264C8.8327 18.9464 8.6227 18.7264 8.3427 18.7264C8.0627 18.7264 7.8427 18.9464 7.8427 19.2264C7.8427 19.4964 8.0627 19.7164 8.3427 19.7164ZM11.1927 19.7164C11.4727 19.7164 11.6927 19.4964 11.6927 19.2264C11.6927 18.9464 11.4727 18.7264 11.1927 18.7264C10.9127 18.7264 10.7027 18.9464 10.7027 19.2264C10.7027 19.4964 10.9127 19.7164 11.1927 19.7164ZM16.6527 19.7164C16.9227 19.7164 17.1427 19.4964 17.1427 19.2264C17.1427 18.9464 16.9227 18.7264 16.6527 18.7264C16.3827 18.7264 16.1627 18.9464 16.1627 19.2264C16.1627 19.4964 16.3827 19.7164 16.6527 19.7164ZM19.5127 19.7164C19.7927 19.7164 20.0027 19.4964 20.0027 19.2264C20.0027 18.9464 19.7927 18.7264 19.5127 18.7264C19.2327 18.7264 19.0327 18.9464 19.0327 19.2264C19.0327 19.4964 19.2327 19.7164 19.5127 19.7164ZM5.6727 20.1564C5.9427 20.1564 6.1627 19.9364 6.1627 19.6564C6.1627 19.3864 5.9427 19.1664 5.6727 19.1664C5.4027 19.1664 5.1827 19.3864 5.1827 19.6564C5.1827 19.9364 5.4027 20.1564 5.6727 20.1564ZM7.0027 20.1564C7.2727 20.1564 7.4927 19.9364 7.4927 19.6564C7.4927 19.3864 7.2727 19.1664 7.0027 19.1664C6.7227 19.1664 6.5127 19.3864 6.5127 19.6564C6.5127 19.9364 6.7227 20.1564 7.0027 20.1564ZM20.8527 20.1564C21.1227 20.1564 21.3327 19.9364 21.3327 19.6564C21.3327 19.3864 21.1227 19.1664 20.8527 19.1664C20.5627 19.1664 20.3527 19.3864 20.3527 19.6564C20.3527 19.9364 20.5627 20.1564 20.8527 20.1564ZM22.1927 20.1564C22.4627 20.1564 22.6727 19.9364 22.6727 19.6564C22.6727 19.3864 22.4627 19.1664 22.1927 19.1664C21.9027 19.1664 21.6927 19.3864 21.6927 19.6564C21.6927 19.9364 21.9027 20.1564 22.1927 20.1564ZM12.5227 20.3264C12.7927 20.3264 13.0127 20.1064 13.0127 19.8364C13.0127 19.5664 12.7927 19.3464 12.5227 19.3464C12.2527 19.3464 12.0327 19.5664 12.0327 19.8364C12.0327 20.1064 12.2527 20.3264 12.5227 20.3264ZM15.3227 20.3264C15.6027 20.3264 15.8027 20.1064 15.8027 19.8364C15.8027 19.5664 15.6027 19.3464 15.3227 19.3464C15.0427 19.3464 14.8327 19.5664 14.8327 19.8364C14.8327 20.1064 15.0427 20.3264 15.3227 20.3264ZM13.9227 20.5864C14.1927 20.5864 14.4127 20.3664 14.4127 20.0964C14.4127 19.8064 14.1927 19.6064 13.9227 19.6064C13.6327 19.6064 13.4227 19.8064 13.4227 20.0964C13.4227 20.3664 13.6327 20.5864 13.9227 20.5864Z" /></svg>