
<svg
    viewBox="0 0 27.890625 27.890625"
    xmlns="http://www.w3.org/2000/svg"
>
    <path
        fill="inherit"
        d="M13.9427 27.8864C21.6427 27.8864 27.8927 21.6264 27.8927 13.9464C27.8927 6.2464 21.6427 -0.0036 13.9427 -0.0036C6.2627 -0.0036 0.0027 6.2464 0.0027 13.9464C0.0027 21.6264 6.2627 27.8864 13.9427 27.8864ZM11.4727 9.6964C10.5027 9.6964 9.7627 8.9264 9.7627 7.9664C9.7627 7.0364 10.5027 6.2764 11.4727 6.2764C12.4027 6.2764 13.1527 7.0364 13.1527 7.9664C13.1527 8.9264 12.4027 9.6964 11.4727 9.6964ZM7.3427 15.5964L8.0927 12.7464C8.4627 11.4064 9.7327 10.5164 11.2927 10.5164H18.1727C18.6027 10.5164 18.9727 10.8564 18.9727 11.2964C18.9727 11.7464 18.6027 12.0964 18.1727 12.0964H11.8627C11.4727 12.0964 11.1127 12.3764 11.0027 12.7664L10.3627 14.9964L13.5227 13.6264C13.8627 13.4664 14.2227 13.4764 14.5327 13.6564L19.4327 16.1064C19.9627 16.3964 20.0827 16.8864 19.8927 17.2364C19.7327 17.5964 19.2727 17.8264 18.7027 17.5264L14.0127 15.1864L9.7927 17.4464C9.4627 17.6264 9.1327 17.7064 8.8227 17.7064C7.8027 17.7064 7.0027 16.8864 7.3427 15.5964ZM7.0927 20.2464C6.8127 20.2464 6.6127 20.0464 6.6127 19.7564C6.6127 19.4964 6.8127 19.2764 7.0927 19.2764H20.7827C21.0727 19.2764 21.2627 19.4964 21.2627 19.7564C21.2627 20.0464 21.0727 20.2464 20.7827 20.2464Z"
        fillRule="evenodd"
        clipRule="evenodd"
    />
</svg>
        