<svg viewBox="0 0 34.091518625316326 30.48828125" xmlns="http://www.w3.org/2000/svg"><path d="M9.1842 5.8966C10.8242 5.8966 12.1442 4.5966 12.1442 2.9566C12.1442 1.3166 10.8242 -0.0034 9.1842 -0.0034C7.5442 -0.0034 6.2342 1.3166 6.2342 2.9566C6.2342 4.5966 7.5442 5.8966 9.1842 5.8966ZM24.9142 5.8966C26.5542 5.8966 27.8642 4.5966 27.8642 2.9566C27.8642 1.3166 26.5542 -0.0034 24.9142 -0.0034C23.2742 -0.0034 21.9542 1.3166 21.9542 2.9566C21.9542 4.5966 23.2742 5.8966 24.9142 5.8966ZM24.9142 19.1266C25.4542 19.1266 25.6942 19.5066 26.0042 20.4966C26.4542 21.8766 27.8542 27.6066 28.3142 29.2866C28.5442 30.1366 28.9842 30.4866 29.6242 30.4866C30.5042 30.4866 31.0342 29.6966 30.7942 28.8366C30.6842 28.4666 28.6942 20.1766 28.4242 18.4666C28.1942 16.9666 28.1242 13.9266 28.1242 12.4966C28.1242 12.2766 28.3842 12.1966 28.5042 12.3866C29.5442 13.8266 31.4142 16.5066 31.7842 16.9366C32.1942 17.4066 32.8442 17.4866 33.3842 17.1866C34.0842 16.8166 34.2442 16.0666 33.9442 15.5466C33.8342 15.3366 33.7042 15.1366 33.5542 14.9266L30.0242 9.7166C28.8942 8.0666 27.5042 7.3266 24.9142 7.3266C22.3142 7.3266 20.9142 8.0666 19.7942 9.7166L16.2542 14.9266C16.1042 15.1366 15.9742 15.3366 15.8642 15.5466C15.5742 16.0666 15.7242 16.8166 16.4242 17.1866C16.9642 17.4866 17.6142 17.4066 18.0242 16.9366C18.3942 16.5066 20.2642 13.8366 21.3042 12.3866C21.4242 12.2066 21.6842 12.2766 21.6842 12.5066C21.6842 13.9466 21.6142 16.9666 21.3842 18.4666C21.1142 20.1766 19.1242 28.4666 19.0342 28.8366C18.7742 29.6966 19.3142 30.4866 20.1942 30.4866C20.8342 30.4866 21.2642 30.1366 21.4942 29.2866C21.9542 27.6066 23.3542 21.8766 23.8042 20.4966C24.1142 19.5066 24.3542 19.1266 24.9142 19.1266ZM3.3042 28.8366C3.0642 29.6966 3.5942 30.4866 4.4742 30.4866C5.1142 30.4866 5.5542 30.1366 5.7842 29.2866C6.2442 27.6066 7.6342 21.8766 8.0942 20.4966C8.4042 19.5066 8.6242 19.1266 9.1842 19.1266C9.7442 19.1266 9.9642 19.5066 10.2842 20.4966C10.7442 21.8766 12.1242 27.6066 12.5942 29.2866C12.8242 30.1366 13.2642 30.4866 13.9042 30.4866C14.7842 30.4866 15.3142 29.6966 15.0642 28.8366C14.9742 28.4666 12.9842 20.1766 12.7042 18.4666C12.4742 16.9666 12.4142 13.9266 12.4142 12.4966C12.4142 12.2766 12.6642 12.1966 12.7942 12.3866C13.3942 13.2366 14.1642 14.3266 14.8342 15.2566C14.9342 15.0566 15.2142 14.5766 15.3942 14.3466L16.4242 12.8266L14.3042 9.7166C13.1842 8.0666 11.7842 7.3266 9.1842 7.3266C6.5942 7.3266 5.1942 8.0666 4.0742 9.7166L0.5342 14.9266C0.3942 15.1366 0.2442 15.3366 0.1342 15.5466C-0.1458 16.0666 0.0042 16.8166 0.7142 17.1866C1.2442 17.4866 1.9042 17.4066 2.2942 16.9366C2.6642 16.5066 4.5542 13.8366 5.5742 12.3866C5.7042 12.2066 5.9642 12.2766 5.9642 12.5066C5.9642 13.9466 5.8942 16.9666 5.6642 18.4666C5.3842 20.1766 3.4042 28.4666 3.3042 28.8366Z" /></svg>