<svg viewBox="0 0 27.890625 27.890625" xmlns="http://www.w3.org/2000/svg"><path d="M13.9427 27.8864C21.6427 27.8864 27.8927 21.6464 27.8927 13.9464C27.8927 6.2464 21.6427 -0.0036 13.9427 -0.0036C6.2527 -0.0036 0.0027 6.2464 0.0027 13.9464C0.0027 21.6464 6.2527 27.8864 13.9427 27.8864ZM13.9427 25.5664C7.5227 25.5664 2.3227 20.3664 2.3227 13.9464C2.3227 7.5164 7.5227 2.3264 13.9427 2.3264C20.3727 2.3264 25.5627 7.5164 25.5627 13.9464C25.5627 20.3664 20.3727 25.5664 13.9427 25.5664ZM13.9227 8.4664C14.7927 8.4664 15.5127 7.7364 15.5127 6.8364C15.5127 5.9464 14.7927 5.2364 13.9227 5.2364C13.0327 5.2364 12.3027 5.9464 12.3027 6.8364C12.3027 7.7364 13.0327 8.4664 13.9227 8.4664ZM13.9227 15.3764L15.7327 18.2364L17.0927 21.9864C17.2527 22.3764 17.6527 22.5164 17.9927 22.3964C18.3427 22.2864 18.5427 21.8564 18.4027 21.5064L17.0227 17.7364L15.6727 13.9764V10.5864C15.6727 10.4164 15.7527 10.2664 15.9027 10.1964L20.5127 7.7364C20.8627 7.5464 20.9827 7.1364 20.7927 6.7964C20.6127 6.4364 20.2027 6.3164 19.8627 6.4964L15.3927 8.8764C14.9027 9.1364 14.4127 9.2564 13.9227 9.2564C13.4427 9.2564 12.9427 9.1364 12.4427 8.8764L7.9727 6.4964C7.6427 6.3164 7.2227 6.4364 7.0527 6.7964C6.8627 7.1364 6.9827 7.5464 7.3327 7.7364L11.9527 10.1964C12.0827 10.2664 12.1827 10.4164 12.1827 10.5864V13.9764L10.8127 17.7364L9.4427 21.5064C9.3127 21.8564 9.4927 22.2864 9.8527 22.3964C10.1827 22.5164 10.5927 22.3764 10.7427 21.9864L12.1127 18.2364Z" /></svg>