<svg viewBox="0 0 27.890625 27.890625" xmlns="http://www.w3.org/2000/svg"><path d="M13.9427 27.8864C21.6427 27.8864 27.8927 21.6464 27.8927 13.9464C27.8927 6.2464 21.6427 -0.0036 13.9427 -0.0036C6.2527 -0.0036 0.0027 6.2464 0.0027 13.9464C0.0027 21.6464 6.2527 27.8864 13.9427 27.8864ZM13.9427 25.5664C7.5227 25.5664 2.3227 20.3664 2.3227 13.9464C2.3227 7.5164 7.5227 2.3264 13.9427 2.3264C20.3727 2.3264 25.5627 7.5164 25.5627 13.9464C25.5627 20.3664 20.3727 25.5664 13.9427 25.5664ZM14.5927 8.8764C15.4927 8.8764 16.2327 8.1364 16.2327 7.2164C16.2327 6.3164 15.4927 5.5664 14.5927 5.5664C13.6827 5.5664 12.9327 6.3164 12.9327 7.2164C12.9327 8.1364 13.6827 8.8764 14.5927 8.8764ZM12.1727 18.6864C12.4727 18.9864 12.9427 18.9864 13.2527 18.6864L16.3627 15.5764C16.7927 15.1464 16.5127 14.3664 15.8627 14.2964L12.3727 13.9164C12.0827 13.8764 12.0427 13.7164 12.1727 13.5364L13.4127 11.6464C13.5327 11.4664 13.7627 11.4264 13.9427 11.5364L16.1427 13.0064C16.2727 13.0864 16.4027 13.1564 16.5527 13.1564H19.6827C20.0827 13.1564 20.4427 12.7964 20.4427 12.3864C20.4427 11.9464 20.0827 11.5964 19.6827 11.5964H16.7927L10.0627 7.1264C9.9427 7.0264 9.7927 6.9864 9.6427 6.9864H6.5127C6.0927 6.9864 5.7527 7.3464 5.7527 7.7564C5.7527 8.1764 6.0927 8.5264 6.5127 8.5264H9.4027L10.6527 9.3564C10.8327 9.4564 10.8827 9.6964 10.7627 9.8864L8.9527 12.5664C8.1327 13.8064 8.8427 15.4764 10.4627 15.5564L14.0227 15.7464L12.1727 17.6064C11.8627 17.9064 11.8627 18.4064 12.1727 18.6864ZM19.6827 10.2564C19.6827 10.7764 20.5327 11.2064 21.6027 11.2064C22.6527 11.2064 23.5127 10.7764 23.5127 10.2564C23.5127 9.7364 22.6527 9.2964 21.6027 9.2964C20.5327 9.2964 19.6827 9.7364 19.6827 10.2564ZM9.2827 15.9164V18.5764L7.3027 20.9164C7.0127 21.2364 7.0527 21.7364 7.3827 22.0164C7.7627 22.3164 8.2427 22.2064 8.4727 21.9264L10.6527 19.3764C10.7727 19.2264 10.8127 19.0464 10.8427 18.8964L11.2627 16.2664L10.4227 16.2164C10.0127 16.1964 9.6227 16.0964 9.2827 15.9164Z" /></svg>