<svg viewBox="0 0 30.006286917274753 27.498417050184447" xmlns="http://www.w3.org/2000/svg"><path d="M26.3273 7.4244C28.3673 7.4244 30.0073 5.7144 30.0073 3.7344C30.0073 1.6644 28.3673 0.0044 26.3273 0.0044C24.2473 0.0044 22.6073 1.6644 22.6073 3.7344C22.6073 5.7744 24.2473 7.4244 26.3273 7.4244ZM4.9073 13.3744C5.4673 14.0544 6.4873 13.3144 5.9473 12.6044C5.5773 12.1044 5.4773 11.8244 5.4773 11.4344C5.4773 10.7644 5.9473 10.3944 6.3173 9.8744C7.1573 9.5244 8.1773 9.3144 9.0373 9.2744C9.1873 9.0644 9.2773 8.8444 9.2773 8.5844C9.2773 7.6744 8.0373 7.3044 8.0373 5.7244C8.0373 5.0744 8.2373 4.4744 8.7573 3.8044C9.3173 3.1044 10.3473 3.8444 9.7973 4.5644C9.4273 5.0744 9.3373 5.3544 9.3373 5.7244C9.3373 6.8344 10.5673 7.1344 10.5673 8.5844C10.5673 8.8844 10.5073 9.1444 10.4273 9.3644C11.0973 9.4744 11.7973 9.6644 12.4073 9.9144C12.1373 10.2944 11.9073 10.7444 11.9073 11.4344C11.9073 12.1044 12.1073 12.7144 12.6273 13.3744C13.1773 14.0544 14.1973 13.3144 13.6573 12.6044C13.2873 12.1044 13.2073 11.8244 13.2073 11.4344C13.2073 10.7744 13.6573 10.4044 14.0073 9.8844L18.3073 4.4144C18.7573 3.8444 18.6873 3.2544 18.1273 2.8344C16.3373 1.4444 12.9173 0.3844 9.2973 0.3844C5.6873 0.3844 2.2673 1.4444 0.4573 2.8344C-0.0827 3.2544 -0.1527 3.8444 0.2973 4.4144L4.6573 9.9844C4.3973 10.3344 4.1773 10.7744 4.1773 11.4344C4.1773 12.1044 4.3973 12.7144 4.9073 13.3744ZM4.7373 10.0744L4.6573 9.9844C5.0173 9.4744 5.4373 9.1144 5.4373 8.5844C5.4373 7.6744 4.1773 7.3044 4.1773 5.7244C4.1773 5.0744 4.3973 4.4744 4.9173 3.8044C5.4773 3.1044 6.4873 3.8444 5.9473 4.5644C5.5773 5.0744 5.4773 5.3544 5.4773 5.7244C5.4773 6.8344 6.7273 7.1344 6.7273 8.5844C6.7273 9.1444 6.5273 9.5444 6.3173 9.8744C6.0373 9.9644 5.7673 10.0944 5.5373 10.2144C5.2373 10.3744 4.9273 10.3244 4.7373 10.0744ZM13.0673 10.2144C12.8573 10.1144 12.6473 10.0044 12.4073 9.9144C12.7573 9.4444 13.1473 9.0944 13.1473 8.5844C13.1473 7.6744 11.9073 7.3044 11.9073 5.7244C11.9073 5.0744 12.1073 4.4744 12.6273 3.8044C13.1873 3.1044 14.2173 3.8444 13.6673 4.5644C13.2873 5.0744 13.2073 5.3544 13.2073 5.7244C13.2073 6.8344 14.4373 7.1344 14.4373 8.5844C14.4373 9.1644 14.2473 9.5544 14.0073 9.8844L13.8573 10.0744C13.6673 10.3244 13.3573 10.3744 13.0673 10.2144ZM4.2873 26.9844C4.9973 27.7244 6.2173 27.6744 7.0873 26.7744L12.9673 20.6944C13.1673 20.4944 13.2973 20.4444 13.6173 20.5644L18.2073 22.2944C21.1473 23.4344 23.9373 22.4644 25.2173 20.1144L28.1773 14.7344C29.3273 12.6444 28.9673 10.4844 26.9673 9.4244C25.0473 8.3644 23.0373 9.1644 21.8673 11.3044L18.0473 18.2944L14.7773 17.1044C13.1673 16.5144 11.8073 16.7044 10.5273 18.0444L4.4173 24.3644C3.5673 25.2344 3.6473 26.3344 4.2873 26.9844ZM8.7573 13.3744C9.3173 14.0544 10.3373 13.3144 9.7973 12.6044C9.4273 12.1044 9.3373 11.8244 9.3373 11.4344C9.3373 10.5644 10.1173 10.1944 10.4273 9.3644C10.0473 9.2944 9.6473 9.2744 9.2973 9.2744C9.2073 9.2744 9.1273 9.2744 9.0373 9.2744C8.6773 9.8044 8.0373 10.3244 8.0373 11.4344C8.0373 12.1044 8.2573 12.7144 8.7573 13.3744Z" /></svg>