
<svg
    viewBox="0 0 27.890625 27.890625"
    xmlns="http://www.w3.org/2000/svg"
>
    <path
        fill="inherit"
        d="M13.9427 27.8864C21.6427 27.8864 27.8927 21.6264 27.8927 13.9464C27.8927 6.2464 21.6427 -0.0036 13.9427 -0.0036C6.2627 -0.0036 0.0027 6.2464 0.0027 13.9464C0.0027 21.6264 6.2627 27.8864 13.9427 27.8864ZM14.0127 8.4464C13.0727 8.4464 12.2927 7.6864 12.2927 6.7364C12.2927 5.8264 13.0727 5.0564 14.0127 5.0564C14.9427 5.0564 15.7127 5.8264 15.7127 6.7364C15.7127 7.6864 14.9427 8.4464 14.0127 8.4464ZM8.7527 10.7364C8.0927 10.7364 7.8227 10.2264 7.9727 9.7064L9.1827 5.6964C9.3127 5.2864 9.7627 5.0264 10.1827 5.1664C10.6127 5.2864 10.8527 5.7264 10.7227 6.1664L9.8327 9.1164H13.8527C14.4927 9.1164 14.8927 9.3364 15.3227 9.6964L17.0627 11.1464H20.3727C20.8227 11.1464 21.1827 11.4964 21.1827 11.9464C21.1827 12.3864 20.8227 12.7564 20.3727 12.7564H16.7727C16.5727 12.7564 16.3927 12.6764 16.2527 12.5464L15.0627 11.5664C14.8927 11.4264 14.6727 11.5164 14.6427 11.7464L14.4327 14.7764L16.9427 15.5564C17.2427 15.6564 17.5127 15.8764 17.5727 16.1864L18.3427 20.1964C18.4527 20.6264 18.1527 21.0564 17.7327 21.1464C17.3627 21.2164 16.8827 20.9864 16.7927 20.5264L16.0827 17.0364L12.8427 16.3564C11.8427 16.1364 11.1427 15.4064 11.2427 14.2464L11.4827 10.9664C11.4827 10.8464 11.4027 10.7364 11.2927 10.7364ZM12.1427 23.5064C11.7327 23.3764 11.4727 22.9264 11.5927 22.5164L12.7727 18.6464L12.5827 16.9764C12.6027 16.9964 12.6027 16.9964 12.7027 17.0064L14.3727 17.3664V18.6464C14.3727 18.7764 14.3727 18.8764 14.3327 18.9864L13.1427 22.9564C13.0027 23.4464 12.5127 23.6064 12.1427 23.5064Z"
        fillRule="evenodd"
        clipRule="evenodd"
    />
</svg>
        