
<svg
    viewBox={0 0 23.96285695477066 33.564453125}
    xmlns="http://www.w3.org/2000/svg"
>
    <path
        fill="inherit"
        d="M11.8597 5.9838C13.4997 5.9838 14.8397 4.6338 14.8397 2.9938C14.8397 1.3538 13.4997 0.0038 11.8597 0.0038C10.2197 0.0038 8.8697 1.3538 8.8697 2.9938C8.8697 4.6338 10.2197 5.9838 11.8597 5.9838ZM1.0997 16.4438C1.8097 16.5738 2.5797 16.2238 2.7597 15.3938L3.9197 10.2038H5.9797C6.2397 10.2038 6.4397 10.4138 6.3697 10.6738L4.9897 15.9938C4.4097 18.1538 5.8297 20.2938 8.5497 19.6038L13.5697 18.3638L12.5997 23.2038C12.4497 23.9438 12.9397 24.6938 13.6797 24.8538C14.3197 24.9938 15.1597 24.5838 15.3397 23.7638L16.7297 16.7738C16.9397 15.7638 16.0697 14.9938 15.2297 15.0838L10.7697 15.5138L12.0797 10.5438C12.1397 10.3338 12.3597 10.2038 12.5597 10.2838L17.6697 12.2238C18.5997 12.5738 19.5497 12.0438 19.5497 11.0738V4.6238C19.5497 3.8538 18.9297 3.2238 18.1397 3.2238C17.3697 3.2238 16.7397 3.8538 16.7397 4.6238V8.8838L14.1297 7.8738C13.2897 7.5638 12.3597 7.3938 11.4297 7.3938H2.7897C2.1297 7.3938 1.5697 7.8638 1.4297 8.4938L0.0397 14.7838C-0.1403 15.5438 0.3397 16.3138 1.0997 16.4438ZM7.4097 33.2338C8.0497 33.3738 8.8997 32.9338 9.0497 32.1438L10.4397 25.1538C10.4697 25.0338 10.4697 24.8838 10.4697 24.7638V20.5038L8.8697 20.8938C8.2497 21.0538 7.6797 21.0938 7.1497 21.0538L7.6697 24.8138L6.3097 31.5638C6.1597 32.3338 6.6397 33.0838 7.4097 33.2338ZM12.7397 30.4838H21.8197C22.2397 30.4838 22.5797 30.1438 22.5797 29.7238C22.5797 29.3038 22.2397 28.9738 21.8197 28.9738H12.7397C12.3097 28.9738 11.9697 29.3038 11.9697 29.7238C11.9697 30.1438 12.3097 30.4838 12.7397 30.4838ZM11.3297 33.5638H23.1997C23.6197 33.5638 23.9597 33.2238 23.9597 32.8038C23.9597 32.3738 23.6197 32.0438 23.1997 32.0438H11.3297C10.9097 32.0438 10.5797 32.3738 10.5797 32.8038C10.5797 33.2238 10.9097 33.5638 11.3297 33.5638Z"
        fillRule="evenodd"
        clipRule="evenodd"
    />
</svg>
        