
<svg
    viewBox="0 0 27.890625 27.890625"
    xmlns="http://www.w3.org/2000/svg"
>
    <path
        fill="inherit"
        d="M13.9427 27.8864C21.6427 27.8864 27.8927 21.6264 27.8927 13.9464C27.8927 6.2464 21.6427 -0.0036 13.9427 -0.0036C6.2627 -0.0036 0.0027 6.2464 0.0027 13.9464C0.0027 21.6264 6.2627 27.8864 13.9427 27.8864ZM20.0727 15.6364C20.7627 13.7664 21.0427 12.2864 21.0427 10.7164C21.0427 9.1764 20.7627 7.6864 20.0727 5.8264C19.8627 5.1664 20.7927 4.9264 21.0227 5.4964C21.7127 7.2764 22.0227 8.8564 22.0227 10.7164C22.0227 12.6464 21.7127 14.2364 21.0227 15.9564C20.7827 16.5464 19.8627 16.2564 20.0727 15.6364ZM13.5627 9.0964C12.6327 9.0964 11.8827 8.3264 11.8827 7.3964C11.8827 6.4664 12.6327 5.7164 13.5627 5.7164C14.5227 5.7164 15.2727 6.4664 15.2727 7.3964C15.2727 8.3264 14.5227 9.0964 13.5627 9.0964ZM7.2027 22.0364L8.0627 18.7764C8.1927 18.2664 8.3927 17.9264 8.7327 17.6064L11.1427 15.2164V11.9364C11.1427 11.7064 10.9827 11.5164 10.7427 11.5164H8.2427C6.7027 11.5164 6.6627 9.6064 8.1327 9.2664L10.4327 8.7464C11.0027 8.6264 11.3427 8.8964 11.4427 9.2664C11.5127 9.4864 11.4527 9.7164 11.3027 9.9164H19.6027C20.0527 9.9164 20.4127 10.2664 20.4127 10.7164C20.4127 11.1564 20.0527 11.5164 19.6027 11.5164H14.7927C14.5627 11.5164 14.3827 11.7064 14.3827 11.9364V14.9164C14.3827 15.3664 14.4627 15.8064 14.6427 16.1964L15.6727 18.5564L17.4227 21.8764C17.6627 22.3264 17.5227 22.7464 17.2027 22.9564C16.8427 23.1864 16.2827 23.1464 16.0127 22.6364L14.2627 19.3564L13.1127 17.3664C12.8527 16.9164 12.2127 16.8464 11.8427 17.1764L9.9527 18.7764C9.7027 18.9664 9.6527 19.0964 9.5727 19.3964L8.7527 22.4464C8.6227 22.9364 8.1727 23.1164 7.7927 23.0664C7.3827 22.9964 7.0427 22.6364 7.2027 22.0364Z"
        fillRule="evenodd"
        clipRule="evenodd"
    />
</svg>
        