<svg viewBox="0 0 27.890625 27.890625" xmlns="http://www.w3.org/2000/svg"><path d="M13.9427 27.8864C21.6427 27.8864 27.8927 21.6264 27.8927 13.9464C27.8927 6.2464 21.6427 -0.0036 13.9427 -0.0036C6.2627 -0.0036 0.0027 6.2464 0.0027 13.9464C0.0027 21.6264 6.2627 27.8864 13.9427 27.8864ZM8.6927 16.7864V11.3564C8.6927 6.3564 10.5527 3.4564 13.9327 3.4564C17.3127 3.4564 19.1727 6.3564 19.1727 11.3564V16.7864C19.1727 17.1064 18.9627 17.4064 18.6727 17.4964C18.2927 17.6364 17.8527 17.4364 17.7027 17.0364C17.4827 16.3364 16.9227 14.7764 15.9827 13.0164C15.9327 12.9464 15.8027 12.9564 15.8027 13.0464V23.7664C15.8027 24.1764 15.4627 24.4964 15.0827 24.4964C14.6527 24.4964 14.3127 24.1764 14.3127 23.7664V19.8364L13.9327 16.7864L13.5527 19.8364V23.7664C13.5527 24.1764 13.2027 24.4964 12.7927 24.4964C12.4127 24.4964 12.0627 24.1764 12.0627 23.7664V13.0464C12.0627 12.9564 11.9327 12.9464 11.8927 13.0164C10.9327 14.7764 10.3927 16.3364 10.1627 17.0364C10.0127 17.4364 9.5727 17.6364 9.1827 17.4964C8.9027 17.4064 8.6927 17.1064 8.6927 16.7864ZM9.6627 14.1664C10.1727 12.9864 10.8927 11.5664 11.7027 10.6664C12.0427 10.2764 12.5527 10.0464 13.0927 10.0464H14.7627C15.3127 10.0464 15.8227 10.2764 16.1627 10.6664C16.9627 11.5664 17.6927 12.9864 18.1927 14.1664V11.3564C18.1927 6.9564 16.6927 4.4164 13.9327 4.4164C11.1727 4.4164 9.6627 6.9564 9.6627 11.3564ZM13.9327 9.2464C12.9927 9.2464 12.2527 8.4864 12.2527 7.5564C12.2527 6.6264 12.9927 5.8764 13.9327 5.8764C14.8427 5.8764 15.6027 6.6264 15.6027 7.5564C15.6027 8.4864 14.8427 9.2464 13.9327 9.2464Z" /></svg>