
<svg
    viewBox="0 0 27.890625 27.890625"
    xmlns="http://www.w3.org/2000/svg"
>
    <path
        fill="inherit"
        d="M13.9427 27.8864C21.6427 27.8864 27.8927 21.6464 27.8927 13.9464C27.8927 6.2464 21.6427 -0.0036 13.9427 -0.0036C6.2527 -0.0036 0.0027 6.2464 0.0027 13.9464C0.0027 21.6464 6.2527 27.8864 13.9427 27.8864ZM13.9427 25.5664C7.5227 25.5664 2.3227 20.3664 2.3227 13.9464C2.3227 7.5164 7.5227 2.3264 13.9427 2.3264C20.3727 2.3264 25.5627 7.5164 25.5627 13.9464C25.5627 20.3664 20.3727 25.5664 13.9427 25.5664ZM16.2727 9.4764C17.1727 9.4764 17.9127 8.7364 17.9127 7.8364C17.9127 6.9364 17.1727 6.1964 16.2727 6.1964C15.3627 6.1964 14.6127 6.9364 14.6127 7.8364C14.6127 8.7364 15.3627 9.4764 16.2727 9.4764ZM13.5927 18.7964C13.3827 19.8064 14.9127 20.0564 15.1027 19.0264L15.8827 14.7964C15.9527 14.3964 15.6927 13.9764 15.2427 13.9064L12.6827 13.5364L14.2827 11.9664C14.4327 11.8264 14.6427 11.8164 14.8027 11.9664L18.7127 15.8764C19.0027 16.1764 19.4927 16.1864 19.7927 15.8764C20.0927 15.5564 20.0927 15.1064 19.7927 14.7964L14.4527 9.4364C14.1127 9.0764 13.6127 8.8764 13.0927 8.8764H9.7227C9.5127 8.8764 9.3127 8.9564 9.1727 9.1064L6.8627 11.4164C6.5627 11.7164 6.5727 12.2064 6.8627 12.5064C7.1627 12.7964 7.6527 12.7964 7.9527 12.5064L10.0527 10.4164H11.4027C11.5427 10.4164 11.5927 10.5564 11.5127 10.6364L9.4227 12.7164C8.4127 13.7164 8.9427 15.4364 10.5427 15.4364H14.1927ZM9.2127 15.7264L9.0127 18.1464H6.4227C5.9927 18.1464 5.6327 18.4864 5.6327 18.8964C5.6327 19.3164 5.9927 19.6764 6.4227 19.6764H9.7227C10.1127 19.6764 10.4027 19.3764 10.4827 18.9864L11.0227 16.0964H10.5427C10.0127 16.0964 9.5527 15.9364 9.2127 15.7264ZM19.5927 19.6764H21.9027C22.4227 19.6764 22.8427 19.2464 22.8427 18.7264C22.8427 18.2064 22.4227 17.7864 21.9027 17.7864H21.8727V17.5164C21.8727 16.8964 21.3827 16.4064 20.7827 16.4064H19.9727C19.7827 16.4064 19.6327 16.5664 19.6327 16.7664C19.6327 16.9664 19.7827 17.1164 19.9727 17.1164H20.7827C21.0027 17.1164 21.1827 17.2764 21.1827 17.5164V17.7864H19.5927C19.0627 17.7864 18.6527 18.2064 18.6527 18.7264C18.6527 19.2464 19.0627 19.6764 19.5927 19.6764Z"
        fillRule="evenodd"
        clipRule="evenodd"
    />
</svg>
        