
<svg
    viewBox="0 0 37.6796875 29.024700466622104"
    xmlns="http://www.w3.org/2000/svg"
>
    <path
        fill="inherit"
        d="M14.1237 4.1973C15.2837 4.1973 16.2137 3.2773 16.2137 2.1073C16.2137 0.9473 15.2837 -0.0027 14.1237 -0.0027C12.9637 -0.0027 12.0137 0.9473 12.0137 2.1073C12.0137 3.2773 12.9637 4.1973 14.1237 4.1973ZM21.9137 8.0773C23.5537 8.0773 24.8937 6.7373 24.8937 5.0673C24.8937 3.4273 23.5537 2.1073 21.9137 2.1073C20.2437 2.1073 18.9237 3.4273 18.9237 5.0673C18.9237 6.7373 20.2437 8.0773 21.9137 8.0773ZM1.3837 22.8273H8.8637C9.2737 22.8273 9.4437 22.7873 9.7437 22.7273L17.3237 20.8873C17.4437 20.8673 17.5537 20.9773 17.5437 21.0973L17.0337 25.2273L14.0637 23.1073C13.4437 22.6573 12.5637 22.8073 12.1237 23.4373C11.6637 24.0673 11.8037 24.9373 12.4237 25.3873L17.0037 28.6173C18.0237 29.3273 19.2537 29.0973 19.5137 28.0573L23.2837 12.9173C23.3337 12.7373 23.5137 12.6373 23.6937 12.6773L36.0237 15.1173C37.0737 15.3373 37.6837 14.5473 37.6837 13.7673C37.6837 13.1673 37.3337 12.5473 36.5737 12.3973L24.4137 9.9573C20.8037 9.2373 18.5637 8.8973 15.9937 8.8973H12.5637V5.3973C12.5637 4.6073 11.9337 4.0073 11.1737 4.0073C10.3737 4.0073 9.7637 4.6073 9.7637 5.3973V10.2773C9.7637 11.0473 10.3737 11.6773 11.1737 11.6773H16.9437C17.2037 11.6773 17.3737 11.9073 17.3037 12.1573L16.1837 16.4773C16.0137 17.1673 15.5337 17.7073 14.8437 17.9473L8.8337 20.0473H1.3837C0.6037 20.0473 0.0037 20.6673 0.0037 21.4473C0.0037 22.2273 0.6037 22.8273 1.3837 22.8273Z"
        fillRule="evenodd"
        clipRule="evenodd"
    />
</svg>
        