<svg viewBox="0 0 27.890625 27.890625" xmlns="http://www.w3.org/2000/svg"><path d="M13.9427 27.8864C21.6427 27.8864 27.8927 21.6264 27.8927 13.9464C27.8927 6.2464 21.6427 -0.0036 13.9427 -0.0036C6.2627 -0.0036 0.0027 6.2464 0.0027 13.9464C0.0027 21.6264 6.2627 27.8864 13.9427 27.8864ZM11.4727 8.2864C10.5027 8.2864 9.7627 7.5164 9.7627 6.5764C9.7627 5.6464 10.5027 4.8764 11.4727 4.8764C12.4027 4.8764 13.1527 5.6464 13.1527 6.5764C13.1527 7.5164 12.4027 8.2864 11.4727 8.2864ZM11.3327 18.9264C10.9927 18.8664 10.5027 18.8964 10.1427 18.9364L17.3527 10.6864H11.8627C11.4727 10.6864 11.1027 10.9764 11.0027 11.3764L10.3627 13.6064L13.5227 12.2264C13.8627 12.0564 14.2327 12.0764 14.5327 12.2464L14.9127 12.4564L13.3527 14.2164L13.3127 14.2064L9.7927 16.0364C9.4627 16.1964 9.1327 16.2964 8.8227 16.2964C7.8027 16.2964 7.0027 15.4864 7.3427 14.2064L8.0927 11.3364C8.4527 10.0064 9.7327 9.1064 11.2927 9.1064H18.1527C18.6327 9.1064 18.9727 9.4164 18.9727 9.8864C18.9727 10.1164 18.8927 10.2764 18.7127 10.4864ZM15.9127 14.7364L16.9927 13.4764L19.4327 14.7064C19.9627 14.9864 20.0827 15.4864 19.8927 15.8364C19.7327 16.1864 19.2727 16.4164 18.7027 16.1364ZM10.1427 17.8664L9.2927 18.8564H7.0827C6.8227 18.8564 6.6027 18.6164 6.6027 18.3564C6.6027 18.1064 6.8227 17.8664 7.0827 17.8664ZM20.7827 17.8664C21.0427 17.8664 21.2627 18.1064 21.2627 18.3564C21.2627 18.6164 21.0427 18.8564 20.7827 18.8564H12.3027L13.1627 17.8664ZM13.9327 21.6164C12.2727 21.6164 11.8427 20.5864 10.7427 20.5864C9.6527 20.5864 9.2027 21.6164 7.5627 21.6164H7.1927C6.9427 21.6164 6.7627 21.4264 6.7627 21.2064C6.7627 20.9564 6.9427 20.7664 7.1927 20.7664H7.5627C8.6127 20.7664 9.0827 19.7264 10.7427 19.7264C12.3227 19.7264 12.8127 20.7664 13.9327 20.7664C15.0527 20.7664 15.5427 19.7264 17.1327 19.7264C18.7827 19.7264 19.2527 20.7664 20.3027 20.7664H20.6827C20.9227 20.7664 21.1127 20.9564 21.1127 21.2064C21.1127 21.4264 20.9227 21.6164 20.6827 21.6164H20.3027C18.6627 21.6164 18.2127 20.5864 17.1327 20.5864C16.0327 20.5864 15.5827 21.6164 13.9327 21.6164Z" /></svg>