
<svg
    viewBox="0 0 19.34061589731522 36.73392910857813"
    xmlns="http://www.w3.org/2000/svg"
>
    <path
        fill="inherit"
        d="M8.3034 36.7208C9.0534 36.7208 9.6834 36.1108 9.6834 35.3408V28.5208L12.8834 23.8008C13.0034 23.6108 13.2734 23.6708 13.3034 23.9108L13.7934 28.1208C13.8234 28.3508 13.8634 28.4808 13.9734 28.7408L16.6634 35.8308C16.9934 36.6908 17.7834 36.8708 18.4334 36.6408C19.0734 36.3908 19.5634 35.7408 19.2334 34.8608L16.5834 27.8108V14.7908C16.5834 13.3308 15.9734 11.8108 14.5634 11.2408L13.7034 10.8808C12.1134 10.2308 10.6234 10.4208 9.2834 11.3708L6.0434 13.7108L2.4234 12.1808L9.6134 2.2108H12.0034C12.6234 2.2108 13.1234 1.7108 13.1234 1.1108C13.1234 0.4808 12.6234 0.0008 12.0034 0.0008H9.7334C9.4834 0.0008 9.2434 0.1108 9.0934 0.3108L0.2834 12.5108C-0.1966 13.1708 -0.0866 14.1208 0.6934 14.4508L5.6734 16.5808C5.8934 16.6708 6.0434 16.6808 6.3534 16.6808H9.6534C10.1734 16.6808 10.3534 17.0208 10.3534 17.4008V21.1908L7.0534 27.4408C6.9334 27.6708 6.9034 27.8508 6.9034 28.1108V35.3408C6.9034 36.1108 7.5234 36.7208 8.3034 36.7208ZM15.1934 9.6508C16.8334 9.6508 18.1534 8.3108 18.1534 6.6408C18.1534 5.0208 16.8334 3.6808 15.1934 3.6808C13.5234 3.6808 12.1834 5.0208 12.1834 6.6408C12.1834 8.3108 13.5234 9.6508 15.1934 9.6508Z"
        fillRule="evenodd"
        clipRule="evenodd"
    />
</svg>
        