
<svg
    viewBox={0 0 27.890625 27.890625}
    xmlns="http://www.w3.org/2000/svg"
>
    <path
        fill="inherit"
        d="M13.9427 27.8864C21.6427 27.8864 27.8927 21.6264 27.8927 13.9464C27.8927 6.2464 21.6427 -0.0036 13.9427 -0.0036C6.2627 -0.0036 0.0027 6.2464 0.0027 13.9464C0.0027 21.6264 6.2627 27.8864 13.9427 27.8864ZM13.9427 8.1364C13.0027 8.1364 12.2327 7.3864 12.2327 6.4264C12.2327 5.4964 13.0027 4.7264 13.9427 4.7264C14.8727 4.7264 15.6427 5.4964 15.6427 6.4264C15.6427 7.3864 14.8727 8.1364 13.9427 8.1364ZM11.7427 20.4364L7.9527 21.4664C7.5227 21.5864 7.1127 21.3564 6.9827 20.9164C6.8627 20.4964 7.1227 20.0564 7.5327 19.9464L11.0727 18.9864L12.4527 15.1164V14.9264L9.2727 12.7864C8.8227 12.4664 8.7627 11.8164 9.2127 11.4864L11.8427 9.5264C12.4527 9.0664 12.9327 8.9564 13.5727 8.9564H13.9427C15.0127 8.9564 15.6227 9.6664 15.6227 10.5364V14.9564L19.1527 15.2864C19.6827 15.3364 19.9627 15.6364 19.9627 16.1764V20.8264C19.9627 21.2764 19.6327 21.6064 19.1827 21.6064C18.7427 21.6064 18.3927 21.2764 18.3927 20.8264V16.8564H14.2027C14.1227 16.8564 14.0927 16.8864 14.0727 16.9364L12.3627 20.0264C12.2327 20.2664 12.0627 20.3564 11.7427 20.4364ZM11.0727 12.0864L12.4527 13.0164V11.3064C12.4527 11.1864 12.3327 11.1264 12.2527 11.2064Z"
        fillRule="evenodd"
        clipRule="evenodd"
    />
</svg>
        