
<svg
    viewBox="0 0 27.890625 27.890625"
    xmlns="http://www.w3.org/2000/svg"
>
    <path
        fill="inherit"
        d="M13.9427 27.8864C21.6427 27.8864 27.8927 21.6464 27.8927 13.9464C27.8927 6.2464 21.6427 -0.0036 13.9427 -0.0036C6.2527 -0.0036 0.0027 6.2464 0.0027 13.9464C0.0027 21.6464 6.2527 27.8864 13.9427 27.8864ZM13.9427 25.5664C7.5227 25.5664 2.3227 20.3664 2.3227 13.9464C2.3227 7.5164 7.5227 2.3264 13.9427 2.3264C20.3727 2.3264 25.5627 7.5164 25.5627 13.9464C25.5627 20.3664 20.3727 25.5664 13.9427 25.5664ZM19.1727 9.8664C20.0827 9.8664 20.8127 9.1164 20.8127 8.2164C20.8127 7.2964 20.0827 6.5664 19.1727 6.5664C18.2527 6.5664 17.5127 7.2964 17.5127 8.2164C17.5127 9.1164 18.2527 9.8664 19.1727 9.8664ZM13.7227 18.0864C14.1227 18.0864 14.4627 17.7464 14.4627 17.3364V13.5364C14.4627 13.3564 14.3927 13.1764 14.2627 13.0264L12.2727 10.8264C12.1527 10.6864 12.2327 10.4764 12.4327 10.4764H14.8627C15.1527 10.4764 15.2427 10.6864 15.2427 10.8964V12.7864C15.2427 13.1764 15.5827 13.5364 15.9927 13.5364H19.0427C19.4527 13.5364 19.7827 13.1764 19.7827 12.7864C19.7827 12.3564 19.4527 12.0164 19.0427 12.0164H16.7627V9.3564C16.7627 8.5064 16.0827 7.8364 15.2427 7.8364H11.5227C10.7627 7.8364 10.0727 8.2964 9.7727 8.9964C9.4927 9.7164 9.6427 10.5264 10.1827 11.0764L12.9627 13.8664V17.3364C12.9627 17.7464 13.3027 18.0864 13.7227 18.0864ZM8.7127 20.6264C10.7427 20.6264 12.4027 19.0064 12.4027 16.9564C12.4027 14.9164 10.7427 13.2764 8.7127 13.2764C6.6727 13.2764 5.0427 14.9164 5.0427 16.9564C5.0427 19.0064 6.6727 20.6264 8.7127 20.6264ZM20.5327 14.9664C21.0827 15.4664 21.4527 16.1864 21.4527 16.9964C21.4527 18.5164 20.2327 19.7264 18.7027 19.7264C17.1827 19.7264 15.9527 18.5164 15.9527 16.9964C15.9527 16.6264 16.0227 16.2564 16.1727 15.8964C16.3227 15.5564 16.1727 15.3164 15.9427 15.2264C15.7227 15.1364 15.4627 15.2064 15.3527 15.5064C15.1327 15.9664 15.0227 16.4764 15.0227 16.9964C15.0227 19.0464 16.6627 20.6764 18.7027 20.6764C20.7527 20.6764 22.3927 19.0464 22.3927 16.9964C22.3927 15.8964 21.8927 14.9064 21.1227 14.2164C20.8727 13.9964 20.5927 14.0964 20.4427 14.2464C20.2727 14.4364 20.2527 14.6964 20.5327 14.9664ZM8.7127 19.6864C7.1927 19.6864 5.9727 18.4864 5.9727 16.9564C5.9727 15.4364 7.1927 14.2064 8.7127 14.2064C10.2227 14.2064 11.4727 15.4364 11.4727 16.9564C11.4727 18.4864 10.2227 19.6864 8.7127 19.6864Z"
        fillRule="evenodd"
        clipRule="evenodd"
    />
</svg>
        