<svg viewBox="0 0 33.80993481351909 27.48891105007346" xmlns="http://www.w3.org/2000/svg"><path d="M7.9331 6.095C9.6131 6.095 10.9531 4.685 10.9531 3.065C10.9531 1.385 9.6131 -0.005 7.9331 -0.005C6.2231 -0.005 4.9031 1.385 4.9031 3.065C4.9031 4.715 6.2231 6.095 7.9331 6.095ZM12.5331 8.685L15.1331 5.795C15.6031 5.305 15.5431 4.735 15.0931 4.375C14.6831 4.005 14.1631 3.995 13.6831 4.525L10.7731 7.775C11.4131 8.025 12.0131 8.335 12.5331 8.685ZM24.3531 8.465H29.7531C30.1631 8.465 30.2231 8.025 29.9131 7.825L27.4631 6.135C27.1931 5.965 26.9031 5.965 26.6231 6.135L24.1731 7.825C23.8531 8.025 23.9431 8.465 24.3531 8.465ZM2.1031 17.405L10.7731 7.775C9.9231 7.455 8.9831 7.315 7.9331 7.315C4.0031 7.315 1.7131 9.205 1.7131 12.355C1.7131 13.125 1.7331 14.135 1.8431 15.175ZM13.7431 17.405L14.0031 15.175C14.1131 14.135 14.1631 13.125 14.1631 12.355C14.1631 10.805 13.6031 9.545 12.5331 8.695L5.6431 16.355C6.4231 16.225 7.1731 16.175 7.9331 16.175C9.8531 16.175 11.7831 16.435 13.7431 17.405ZM20.2331 12.185V15.505C20.2331 16.465 20.9431 17.155 21.9031 17.155H24.5131C25.4731 17.155 26.1831 16.465 26.1831 15.505V12.185C26.1831 11.225 25.4731 10.515 24.5131 10.515H21.9031C20.9431 10.515 20.2331 11.225 20.2331 12.185ZM27.8731 12.185V15.505C27.8731 16.465 28.5831 17.155 29.5331 17.155H32.1431C33.1031 17.155 33.8131 16.465 33.8131 15.505V12.185C33.8131 11.225 33.1031 10.515 32.1431 10.515H29.5331C28.5831 10.515 27.8731 11.225 27.8731 12.185ZM23.2231 15.215C22.4531 15.215 21.7931 14.585 21.7931 13.795C21.7931 13.025 22.4531 12.385 23.2231 12.385C23.9931 12.385 24.6531 13.025 24.6531 13.795C24.6531 14.585 23.9931 15.215 23.2231 15.215ZM30.8431 15.215C30.0631 15.215 29.4031 14.585 29.4031 13.795C29.4031 13.025 30.0631 12.385 30.8431 12.385C31.6131 12.385 32.2631 13.025 32.2631 13.795C32.2631 14.585 31.6131 15.215 30.8431 15.215ZM0.4131 18.415C-0.0669 18.775 -0.0869 19.345 0.1331 19.715C0.3831 20.115 0.8631 20.305 1.4031 19.985C1.7231 19.785 2.0131 19.605 2.3231 19.425L2.1031 17.405C1.4931 17.675 0.9431 17.995 0.4131 18.415ZM4.5831 27.485C5.3731 27.375 5.9031 26.795 5.8131 25.795L5.2631 20.755H10.5931L10.0531 25.795C9.9231 26.795 10.4631 27.375 11.2831 27.485C12.1031 27.565 12.7231 27.045 12.8231 26.085L13.5331 19.425C13.8531 19.605 14.1231 19.785 14.4331 19.985C14.9731 20.305 15.4531 20.125 15.6931 19.745C15.9431 19.355 15.9431 18.785 15.4331 18.415C14.9131 17.995 14.3731 17.675 13.7431 17.405L13.5231 19.415C11.7731 18.405 9.8031 18.005 7.9331 18.005C6.0431 18.005 4.0731 18.405 2.3231 19.425L3.0231 26.085C3.1131 27.045 3.7431 27.565 4.5831 27.485Z" /></svg>