
<svg
    viewBox="0 0 38.3647262160413 27.48891105007346"
    xmlns="http://www.w3.org/2000/svg"
>
    <path
        fill="inherit"
        d="M7.9351 6.0987C9.6151 6.0987 10.9351 4.6887 10.9351 3.0587C10.9351 1.3787 9.6151 -0.0013 7.9351 -0.0013C6.2351 -0.0013 4.8951 1.3787 4.8951 3.0587C4.8951 4.7187 6.2351 6.0987 7.9351 6.0987ZM26.5951 3.7887H31.9951C32.4051 3.7887 32.4851 3.3487 32.1751 3.1287L29.7151 1.4587C29.4351 1.2887 29.1451 1.2887 28.8751 1.4587L26.4151 3.1287C26.1051 3.3487 26.1851 3.7887 26.5951 3.7887ZM12.5351 8.6787L15.1351 5.7987C15.5851 5.2887 15.5451 4.7287 15.1051 4.3787C14.6951 4.0087 14.1551 3.9887 13.6851 4.5287L10.7751 7.7787C11.4351 8.0287 12.0151 8.3387 12.5351 8.6787ZM23.6151 6.9587V9.9687C23.6151 10.7887 24.2151 11.3887 25.0251 11.3887H27.2751C28.0951 11.3887 28.7251 10.7887 28.7251 9.9687V6.9587C28.7251 6.1387 28.0951 5.5187 27.2751 5.5187H25.0251C24.2151 5.5187 23.6151 6.1387 23.6151 6.9587ZM30.1351 6.9587V9.9687C30.1351 10.7887 30.7251 11.3887 31.5651 11.3887H33.8151C34.6351 11.3887 35.2451 10.7887 35.2451 9.9687V6.9587C35.2451 6.1387 34.6351 5.5187 33.8151 5.5187H31.5651C30.7251 5.5187 30.1351 6.1387 30.1351 6.9587ZM26.1851 9.8587C25.4051 9.8587 24.7451 9.2187 24.7451 8.4387C24.7451 7.6787 25.4051 7.0387 26.1851 7.0387C26.9351 7.0387 27.5751 7.6787 27.5751 8.4387C27.5751 9.2187 26.9351 9.8587 26.1851 9.8587ZM32.7051 9.8587C31.9251 9.8587 31.2651 9.2287 31.2651 8.4387C31.2651 7.6787 31.9251 7.0387 32.7051 7.0387C33.4551 7.0387 34.0951 7.6787 34.0951 8.4387C34.0951 9.2287 33.4551 9.8587 32.7051 9.8587ZM2.1051 17.4087L10.7751 7.7787C9.9451 7.4487 8.9851 7.3187 7.9351 7.3187C4.0251 7.3187 1.7151 9.1987 1.7151 12.3587C1.7151 13.1287 1.7351 14.1387 1.8451 15.1787ZM13.7551 17.4087L14.0051 15.1787C14.1251 14.1387 14.1551 13.1287 14.1551 12.3587C14.1551 10.7987 13.6051 9.5387 12.5351 8.6987L5.6651 16.3487C6.4251 16.2287 7.1751 16.1787 7.9351 16.1787C9.8551 16.1787 11.8051 16.4287 13.7551 17.4087ZM20.2051 14.7787V17.7887C20.2051 18.6087 20.8051 19.1987 21.6351 19.1987H23.8551C24.6951 19.1987 25.3051 18.6087 25.3051 17.7887V14.7787C25.3051 13.9587 24.6951 13.3587 23.8551 13.3587H21.6351C20.8051 13.3587 20.2051 13.9587 20.2051 14.7787ZM26.7251 14.7787V17.7887C26.7251 18.6087 27.3351 19.1987 28.1651 19.1987H30.4051C31.2451 19.1987 31.8451 18.6087 31.8451 17.7887V14.7787C31.8451 13.9587 31.2451 13.3587 30.4051 13.3587H28.1651C27.3351 13.3587 26.7251 13.9587 26.7251 14.7787ZM33.2651 14.7787V17.7887C33.2651 18.6087 33.8651 19.1987 34.7051 19.1987H36.9451C37.7651 19.1987 38.3651 18.6087 38.3651 17.7887V14.7787C38.3651 13.9587 37.7651 13.3587 36.9451 13.3587H34.7051C33.8651 13.3587 33.2651 13.9587 33.2651 14.7787ZM22.7651 17.6787C21.9951 17.6787 21.3451 17.0487 21.3451 16.2587C21.3451 15.5087 21.9951 14.8787 22.7651 14.8787C23.5351 14.8787 24.1751 15.5087 24.1751 16.2587C24.1751 17.0487 23.5351 17.6787 22.7651 17.6787ZM29.3051 17.6787C28.5251 17.6787 27.8651 17.0487 27.8651 16.2587C27.8651 15.5087 28.5251 14.8787 29.3051 14.8787C30.0551 14.8787 30.6951 15.5087 30.6951 16.2587C30.6951 17.0487 30.0551 17.6787 29.3051 17.6787ZM35.8251 17.6787C35.0551 17.6787 34.3951 17.0487 34.3951 16.2587C34.3951 15.5087 35.0551 14.8787 35.8251 14.8787C36.5751 14.8787 37.2251 15.5087 37.2251 16.2587C37.2251 17.0487 36.5751 17.6787 35.8251 17.6787ZM0.4251 18.4187C-0.0649 18.7687 -0.0949 19.3487 0.1551 19.7187C0.3851 20.1087 0.8751 20.2987 1.4051 19.9887C1.7251 19.7787 2.0151 19.6087 2.3351 19.4287L2.1051 17.4087C1.4951 17.6787 0.9351 17.9887 0.4251 18.4187ZM4.5951 27.4787C5.3851 27.3687 5.9051 26.7987 5.8151 25.7987L5.2651 20.7587H10.5851L10.0551 25.7987C9.9451 26.7987 10.4751 27.3687 11.2651 27.4787C12.1051 27.5587 12.7151 27.0387 12.8351 26.0887L13.5351 19.4287C13.8351 19.6087 14.1351 19.7787 14.4551 19.9887C14.9851 20.2987 15.4551 20.1287 15.6951 19.7387C15.9451 19.3587 15.9451 18.7887 15.4351 18.4187C14.9151 17.9887 14.3751 17.6787 13.7551 17.4087L13.5351 19.4187C11.7751 18.3987 9.8051 18.0087 7.9351 18.0087C6.0551 18.0087 4.0751 18.3987 2.3351 19.4287L3.0251 26.0887C3.1451 27.0387 3.7451 27.5587 4.5951 27.4787ZM23.6151 22.5987V25.6087C23.6151 26.4287 24.2151 27.0287 25.0251 27.0287H27.2751C28.0951 27.0287 28.7251 26.4287 28.7251 25.6087V22.5987C28.7251 21.7787 28.0951 21.1787 27.2751 21.1787H25.0251C24.2151 21.1787 23.6151 21.7787 23.6151 22.5987ZM30.1351 22.5987V25.6087C30.1351 26.4287 30.7251 27.0287 31.5651 27.0287H33.8151C34.6351 27.0287 35.2451 26.4287 35.2451 25.6087V22.5987C35.2451 21.7787 34.6351 21.1787 33.8151 21.1787H31.5651C30.7251 21.1787 30.1351 21.7787 30.1351 22.5987ZM26.1851 25.5087C25.4051 25.5087 24.7451 24.8687 24.7451 24.0887C24.7451 23.3287 25.4051 22.6987 26.1851 22.6987C26.9351 22.6987 27.5751 23.3287 27.5751 24.0887C27.5751 24.8687 26.9351 25.5087 26.1851 25.5087ZM32.7051 25.5087C31.9251 25.5087 31.2651 24.8687 31.2651 24.0887C31.2651 23.3287 31.9251 22.6987 32.7051 22.6987C33.4551 22.6987 34.0951 23.3287 34.0951 24.0887C34.0951 24.8687 33.4551 25.5087 32.7051 25.5087Z"
        fillRule="evenodd"
        clipRule="evenodd"
    />
</svg>
        