
<svg
    viewBox={0 0 27.890625 27.890625}
    xmlns="http://www.w3.org/2000/svg"
>
    <path
        fill="inherit"
        d="M13.9437 27.8864C21.6437 27.8864 27.8937 21.6464 27.8937 13.9464C27.8937 6.2464 21.6437 -0.0036 13.9437 -0.0036C6.2437 -0.0036 0.0037 6.2464 0.0037 13.9464C0.0037 21.6464 6.2437 27.8864 13.9437 27.8864ZM13.9437 25.5664C7.5237 25.5664 2.3237 20.3664 2.3237 13.9464C2.3237 7.5164 7.5237 2.3264 13.9437 2.3264C20.3737 2.3264 25.5637 7.5164 25.5637 13.9464C25.5637 20.3664 20.3737 25.5664 13.9437 25.5664ZM17.0337 9.4364C17.9337 9.4364 18.6737 8.7064 18.6737 7.7964C18.6737 6.8764 17.9337 6.1364 17.0337 6.1364C16.1237 6.1364 15.3637 6.8764 15.3637 7.7964C15.3637 8.7064 16.1237 9.4364 17.0337 9.4364ZM10.8037 10.4764L14.8237 14.2364C15.0437 14.4364 15.3437 14.4764 15.6037 14.3864L16.7437 15.4464V15.7264C16.7437 16.1364 17.0737 16.4564 17.4737 16.4564C17.5637 16.4564 17.6637 16.4364 17.7637 16.3964L20.6837 19.1364C21.0137 19.4264 21.3837 19.5764 21.8037 19.5764C22.5437 19.5464 23.0637 19.0264 23.0337 18.3164C23.0337 17.9964 22.8037 17.6364 22.4537 17.6464C22.1937 17.6464 22.0237 17.8264 22.0237 18.0864V18.3064C22.0237 18.5764 21.7237 18.7464 21.4237 18.4664L18.1937 15.6264V12.4564C18.1937 12.2464 18.1037 12.0564 17.8937 11.8764L14.8037 9.0064C14.2037 8.4664 13.3037 8.3964 12.5637 8.6864L11.0037 9.2564C10.5537 9.4164 10.3237 10.0264 10.8037 10.4764ZM10.1837 10.7964L9.9937 10.8964C8.7337 11.5664 8.4637 13.0964 9.6637 14.0564L12.3737 16.1864L10.7237 19.1864C10.5237 19.5264 10.6737 19.9564 11.0337 20.1664C11.3037 20.3164 11.7837 20.2664 12.0037 19.8564L13.9437 16.3264C14.0937 16.0364 14.0437 15.7064 13.8237 15.4764L11.6937 13.1764L12.3337 12.8264L10.3937 11.0064C10.3337 10.9464 10.2437 10.8564 10.1837 10.7964ZM15.8137 13.1764L14.3837 11.8364L15.0137 11.5164C15.1437 11.4464 15.3137 11.4564 15.4037 11.5664L16.7437 12.7964V14.3464L16.0537 13.7264C16.0637 13.5464 15.9837 13.3264 15.8137 13.1764ZM5.2337 17.3664H8.7137C8.9937 17.3664 9.2437 17.1864 9.3537 16.9664L10.1837 15.2964L9.2537 14.5564C9.0537 14.3964 8.8737 14.2364 8.7737 14.0964L8.2037 15.9164H5.2337C4.8437 15.9164 4.5237 16.2264 4.5237 16.6564C4.5237 17.0264 4.8437 17.3664 5.2337 17.3664ZM18.2337 20.8364C18.7837 20.8364 19.2337 20.3864 19.2337 19.8364C19.2337 19.2864 18.7837 18.8264 18.2337 18.8264C17.6637 18.8264 17.2237 19.2864 17.2237 19.8364C17.2237 20.3864 17.6637 20.8364 18.2337 20.8364Z"
        fillRule="evenodd"
        clipRule="evenodd"
    />
</svg>
        