
<svg
    viewBox={0 0 27.890625 27.890625}
    xmlns="http://www.w3.org/2000/svg"
>
    <path
        fill="inherit"
        d="M13.9427 27.8864C21.6427 27.8864 27.8927 21.6264 27.8927 13.9464C27.8927 6.2464 21.6427 -0.0036 13.9427 -0.0036C6.2627 -0.0036 0.0027 6.2464 0.0027 13.9464C0.0027 21.6264 6.2627 27.8864 13.9427 27.8864ZM9.4427 6.0464C9.4327 5.6464 9.7027 5.3364 10.0927 5.2864C10.4727 5.2764 10.8027 5.5664 10.8127 5.9564L10.9827 8.6564L11.7727 9.2464C12.1527 9.4864 12.4527 9.5664 12.9227 9.5664H14.5227C16.3527 9.5664 17.6127 10.7364 17.6127 12.4564V15.8064C17.6127 16.1864 17.3227 16.5064 16.9427 16.5064C16.5527 16.5064 16.2427 16.1864 16.2427 15.8064V12.8064C16.2427 12.6464 16.1327 12.5464 15.9927 12.5464C15.8427 12.5464 15.7527 12.6464 15.7527 12.8064V21.8164C15.7527 22.2464 15.4127 22.5764 14.9727 22.5764C14.5427 22.5764 14.2227 22.2464 14.2227 21.8164V16.3564C14.2227 16.2164 14.0927 16.1064 13.9627 16.1064C13.8227 16.1064 13.7027 16.2164 13.7027 16.3564V21.8164C13.7027 22.2464 13.3727 22.5764 12.9427 22.5764C12.5127 22.5764 12.1727 22.2464 12.1727 21.8164V11.6664C12.1727 11.2964 12.0727 11.1864 11.8527 11.0464L10.1627 9.8164C9.8127 9.5464 9.6127 9.2564 9.5927 8.7664ZM13.9627 8.6964C13.0327 8.6964 12.2527 7.9564 12.2527 7.0264C12.2527 6.0864 13.0327 5.3164 13.9627 5.3164C14.8927 5.3164 15.6727 6.0864 15.6727 7.0264C15.6727 7.9564 14.8927 8.6964 13.9627 8.6964Z"
        fillRule="evenodd"
        clipRule="evenodd"
    />
</svg>
        