
<svg
    viewBox="0 0 23.98046875 31.732421875"
    xmlns="http://www.w3.org/2000/svg"
>
    <path
        fill="inherit"
        d="M5.3637 1.7668H18.6237C18.5437 0.5968 17.8737 -0.0032 16.6137 -0.0032H7.3537C6.0937 -0.0032 5.4437 0.5968 5.3637 1.7668ZM2.9837 5.5468H20.9837C20.7837 4.3068 20.1937 3.6268 18.8237 3.6268H5.1437C3.7737 3.6268 3.1837 4.3068 2.9837 5.5468ZM4.2937 31.7368H20.0937C22.5437 31.7368 23.9837 30.3068 23.9837 27.4968V11.9868C23.9837 9.1768 22.5337 7.7568 19.6837 7.7568H4.2937C1.4337 7.7568 0.0037 9.1568 0.0037 11.9868V27.4968C0.0037 30.3068 1.4337 31.7368 4.2937 31.7368ZM14.1337 14.5468C13.2037 14.5468 12.4437 13.7768 12.4437 12.8368C12.4437 11.9068 13.2037 11.1468 14.1337 11.1468C15.0837 11.1468 15.8337 11.9068 15.8337 12.8368C15.8337 13.7768 15.0837 14.5468 14.1337 14.5468ZM11.4737 21.3168C10.8037 20.9468 9.9437 20.5768 10.3237 19.2468L10.9637 17.0168C11.0437 16.7168 10.8037 16.5568 10.5637 16.5668L9.4637 16.6568L9.1337 18.9268C9.0537 19.3968 8.7737 19.6568 8.3537 19.6168C7.9337 19.5768 7.6837 19.2368 7.7537 18.7568L8.1237 15.9868C8.1737 15.5268 8.4737 15.2468 8.9137 15.2068L11.6437 15.0268C13.0737 14.9268 13.9437 15.3168 14.6537 16.2668L15.9937 18.1468L17.9537 17.2668C18.3937 17.0768 18.7537 17.1868 18.9537 17.5868C19.1437 17.9768 18.9637 18.3568 18.5237 18.5668L16.0737 19.6568C15.7337 19.7968 15.3637 19.6868 15.1737 19.3968L14.3037 18.1568C14.1537 17.9068 13.8037 17.9368 13.7237 18.2268L13.1437 20.2468L16.0737 22.1668C16.5037 22.4468 16.5737 23.1168 16.2037 23.4168L13.5037 25.7068C13.0937 26.0768 12.6337 26.0168 12.3837 25.7168C12.1237 25.4468 12.1237 24.9768 12.5237 24.6368L14.4337 22.9868ZM6.2637 28.0368C5.9437 27.7568 5.8637 27.2468 6.2637 26.8468L8.9037 24.2568L9.8537 20.9168C10.1337 21.3168 10.6137 21.5968 11.1337 21.9168L11.4137 22.0568L10.2937 24.8268C10.1737 25.1668 10.1337 25.2068 9.9137 25.4268L7.3937 27.9268C6.9837 28.3168 6.5637 28.2768 6.2637 28.0368Z"
        fillRule="evenodd"
        clipRule="evenodd"
    />
</svg>
        