
<svg
    viewBox="0 0 27.890625 27.890625"
    xmlns="http://www.w3.org/2000/svg"
>
    <path
        fill="inherit"
        d="M13.9427 27.8864C21.6427 27.8864 27.8927 21.6464 27.8927 13.9464C27.8927 6.2464 21.6427 -0.0036 13.9427 -0.0036C6.2527 -0.0036 0.0027 6.2464 0.0027 13.9464C0.0027 21.6464 6.2527 27.8864 13.9427 27.8864ZM13.9427 25.5664C7.5227 25.5664 2.3227 20.3664 2.3227 13.9464C2.3227 7.5164 7.5227 2.3264 13.9427 2.3264C20.3727 2.3264 25.5627 7.5164 25.5627 13.9464C25.5627 20.3664 20.3727 25.5664 13.9427 25.5664ZM20.2227 10.4364C20.1927 10.4064 20.1627 10.3864 20.1427 10.3664V9.5664L20.8327 9.2164C21.0827 9.0964 21.2327 8.8464 21.2327 8.5564V6.2064C21.2327 5.7864 20.9327 5.4364 20.5127 5.4364H18.8227C18.4027 5.4364 18.0927 5.7864 18.0927 6.2064V8.5564C18.0927 8.8464 18.2527 9.0964 18.5027 9.2164L19.2127 9.5664V10.3664C19.1827 10.3864 19.1527 10.4164 19.1227 10.4364L17.2927 12.2664L15.4527 10.4164C15.0827 10.0464 14.5027 9.8164 13.9327 9.8164H8.9827C8.6227 9.8164 8.3627 10.0264 8.2427 10.3664L7.0527 13.9164C6.8727 14.4664 7.1827 14.8464 7.5627 14.9264C7.9327 15.0364 8.3527 14.8864 8.5027 14.3964L9.5327 11.3564H11.1727C11.3227 11.3564 11.4327 11.4964 11.3727 11.6464L10.3727 14.6664C10.0327 15.6564 10.3327 16.5864 11.4327 17.0764L14.6527 18.4964L15.7127 22.1364C15.8427 22.6164 16.2827 22.7464 16.6527 22.6564C17.0227 22.5564 17.3327 22.2164 17.2027 21.7064L16.0327 17.7064C15.9727 17.4864 15.8627 17.3264 15.6227 17.2164L13.1127 16.1064L14.4327 12.0764C14.4927 11.9264 14.6927 11.8364 14.8227 11.9864L16.7327 13.9164C17.0327 14.2164 17.5427 14.2164 17.8427 13.9164L20.2227 11.5364C20.5327 11.2264 20.5227 10.7464 20.2227 10.4364ZM13.9327 9.0264C14.8427 9.0264 15.5827 8.2864 15.5827 7.3864C15.5827 6.4664 14.8427 5.7264 13.9327 5.7264C13.0127 5.7264 12.2927 6.4664 12.2927 7.3864C12.2927 8.2864 13.0127 9.0264 13.9327 9.0264ZM10.6227 17.4364L10.2527 19.6064L7.4527 21.1664C6.9627 21.4364 6.9727 21.9064 7.1827 22.2464C7.3827 22.5564 7.7627 22.7764 8.2127 22.5164L11.3427 20.7764C11.5527 20.6564 11.6527 20.5264 11.7127 20.2864L12.3827 18.2564L11.1527 17.7164C10.9327 17.6264 10.7727 17.5264 10.6227 17.4364Z"
        fillRule="evenodd"
        clipRule="evenodd"
    />
</svg>
        