
<svg
    viewBox="0 0 29.99440725341517 27.498417050184447"
    xmlns="http://www.w3.org/2000/svg"
>
    <path
        fill="inherit"
        d="M3.6937 7.4244C5.7537 7.4244 7.4137 5.7744 7.4137 3.7344C7.4137 1.6644 5.7537 0.0044 3.6937 0.0044C1.6437 0.0044 0.0037 1.6644 0.0037 3.7344C0.0037 5.7144 1.6437 7.4244 3.6937 7.4244ZM24.8537 5.4544C24.8537 4.9044 24.4037 4.4744 23.8337 4.4744H18.4837V2.3544C18.4837 1.3444 17.4737 0.9944 16.7937 1.6144L13.2437 4.7544C12.7537 5.1944 12.7737 5.7544 13.2437 6.2044L16.7937 9.3544C17.5037 9.9944 18.4837 9.5744 18.4837 8.6144V6.4844H23.8337C24.4037 6.4844 24.8537 6.0244 24.8537 5.4544ZM29.7137 7.9444C29.3137 7.5444 28.6837 7.5444 28.2837 7.9444L24.5037 11.7344L22.9937 10.2144C22.3137 9.5444 21.3237 9.9244 21.2737 10.8944L20.9837 15.6244C20.9437 16.2744 21.3537 16.6844 21.9937 16.6344L26.7437 16.3644C27.6537 16.3144 28.1237 15.3644 27.4137 14.6544L25.9237 13.1344L29.6937 9.3644C30.0937 8.9544 30.0937 8.3244 29.7137 7.9444ZM25.7137 26.9844C26.3637 26.3344 26.4437 25.2344 25.5937 24.3644L19.4837 18.0444C18.1937 16.7044 16.8437 16.5144 15.2337 17.1044L11.9737 18.2944L8.1337 11.3044C6.9737 9.1644 4.9737 8.3644 3.0337 9.4244C1.0537 10.4844 0.6837 12.6444 1.8337 14.7344L4.7837 20.1144C6.0837 22.4644 8.8637 23.4344 11.8137 22.2944L16.4037 20.5644C16.7037 20.4444 16.8437 20.4944 17.0337 20.6944L22.9237 26.7744C23.7937 27.6744 25.0037 27.7244 25.7137 26.9844Z"
        fillRule="evenodd"
        clipRule="evenodd"
    />
</svg>
        