<svg viewBox="0 0 25.72027181526561 29.1484375" xmlns="http://www.w3.org/2000/svg"><path d="M4.7735 5.9763C6.4335 5.9763 7.7535 4.6463 7.7535 2.9963C7.7535 1.3363 6.4335 -0.0037 4.7735 -0.0037C3.1235 -0.0037 1.7835 1.3363 1.7835 2.9963C1.7835 4.6463 3.1235 5.9763 4.7735 5.9763ZM12.9635 29.1463H20.6635C21.4435 29.1463 21.6635 28.1663 21.0335 27.7363L18.3235 25.9463C18.5935 25.5163 18.7735 25.0363 18.8935 24.5163L22.0035 12.1163C24.0435 12.1163 25.7235 10.4363 25.7235 8.3763C25.7235 6.3263 24.0435 4.6763 22.0035 4.6763C19.9335 4.6763 18.2735 6.3263 18.2735 8.3763C18.2735 9.8963 19.1835 11.2063 20.4835 11.7863L17.3935 24.1563C16.8835 26.2063 15.0935 27.6063 12.9635 27.6063C12.5235 27.6063 12.2035 27.9563 12.2035 28.3863C12.2035 28.7963 12.5235 29.1463 12.9635 29.1463ZM22.0035 10.5963C20.7435 10.5963 19.7835 9.6363 19.7835 8.3763C19.7835 7.1463 20.7435 6.1963 22.0035 6.1963C23.2435 6.1963 24.2035 7.1463 24.2035 8.3763C24.2035 9.6363 23.2435 10.5963 22.0035 10.5963ZM9.4735 29.0263C10.1435 29.2163 10.9535 28.8763 11.1735 28.0563L13.2335 20.5663C13.4935 19.6063 13.1035 18.9263 12.1435 18.6463L6.1335 16.9363L6.5935 11.6663C6.6235 11.4963 6.8135 11.4063 6.9335 11.5163L9.7235 13.5063C10.2135 13.8663 10.8435 13.8663 11.3535 13.5063L16.2035 10.0363C16.8335 9.5963 16.9835 8.7263 16.5335 8.0963C16.0935 7.4663 15.2235 7.3263 14.5935 7.7663L10.5435 10.6763L7.2135 8.2863C6.5135 7.7663 5.6635 7.4063 4.6135 7.4063C2.8435 7.4063 1.5235 8.5163 1.4135 10.0863L0.9435 16.5963C0.8135 18.5363 1.7535 19.9763 3.9135 20.2863L10.1635 21.1963L8.4935 27.3163C8.2735 28.1363 8.7235 28.8163 9.4735 29.0263ZM2.7935 23.9563L2.8635 23.9363L3.2735 25.8263L0.3735 27.7363C-0.2665 28.1663 -0.0465 29.1463 0.7935 29.1463H6.7135C7.1635 29.1463 7.4935 28.7963 7.4935 28.3863C7.4935 27.9563 7.1635 27.6063 6.7135 27.6063C5.8235 27.6063 5.1735 27.2463 4.9435 26.1863L4.3835 23.6063L5.5235 23.3663C5.8735 23.3063 6.0735 22.9963 6.0735 22.6563C6.0735 22.2963 5.8135 22.0263 5.5035 21.9863L0.8935 21.1963C0.1235 21.0663 -0.1065 21.7263 0.1235 22.2263L0.3835 22.7363C0.8635 23.7163 1.6435 24.1963 2.7935 23.9563Z" /></svg>