<svg viewBox="0 0 29.216796875 35.533203125" xmlns="http://www.w3.org/2000/svg"><path d="M2.7037 0.7612C2.7037 1.1912 3.0537 1.5212 3.4737 1.5212C4.7037 1.5212 5.4537 1.7512 6.2337 2.6112C6.5337 2.9412 6.8337 3.0712 7.1537 3.0712C7.4537 3.0712 7.7537 2.9412 8.0537 2.6112C8.8337 1.7512 9.5837 1.5212 10.8137 1.5212C11.2337 1.5212 11.5837 1.1912 11.5837 0.7612C11.5837 0.3412 11.2337 0.0012 10.8137 0.0012C9.2837 0.0012 8.2737 0.3512 7.1537 1.3912C6.0137 0.3512 5.0037 0.0012 3.4837 0.0012C3.0537 0.0012 2.7037 0.3412 2.7037 0.7612ZM18.3937 6.5312C20.0437 6.5312 21.3837 5.2112 21.3837 3.5512C21.3837 1.9012 20.0437 0.5612 18.3937 0.5612C16.7337 0.5612 15.4037 1.9012 15.4037 3.5512C15.4037 5.2112 16.7337 6.5312 18.3937 6.5312ZM4.7037 16.4612C5.5337 16.8412 6.2937 16.4712 6.6137 15.8212L9.1237 10.8312H12.1137C12.4237 10.8312 12.6337 11.1312 12.4837 11.4112L9.8537 16.6212C8.8837 18.5512 10.0737 20.9712 12.6237 20.8212L19.6837 20.3812L17.0737 26.1812C16.7437 26.9212 17.0637 27.8212 17.8037 28.0912C18.6037 28.4112 19.3337 28.1612 19.6837 27.3612L23.3237 19.3912C23.7237 18.5212 23.1637 17.3312 22.0437 17.3312H15.6437L18.4737 11.6612C18.5937 11.4112 18.8937 11.3512 19.0837 11.5512L22.4337 14.7512C23.1037 15.3912 24.2937 15.2812 24.7637 14.3712L27.6437 8.5712C28.0037 7.8512 27.7837 6.9712 27.0137 6.6212C26.2937 6.2712 25.4337 6.5712 25.0637 7.2912L23.0537 11.2812L21.4137 9.6212C20.3037 8.5212 19.1237 7.9412 17.3237 7.9412H8.2337C7.6837 7.9412 7.1937 8.2612 6.9637 8.7412L4.0337 14.5512C3.6737 15.2612 3.9537 16.0912 4.7037 16.4612ZM0.7837 30.5012C1.2337 31.4412 2.2237 31.4612 2.6937 31.2512L9.9137 28.1112C10.2137 27.9712 10.4737 27.7412 10.6237 27.4212L13.2637 22.1112L12.7037 22.1512C11.5537 22.2212 10.5537 21.8912 9.8137 21.3312L8.1737 25.6912L1.5137 28.5612C0.7837 28.8912 0.3937 29.7412 0.7837 30.5012ZM24.6337 31.8512C26.3137 31.8512 27.6437 30.5412 27.6437 28.8612C27.6437 27.2112 26.3137 25.8812 24.6337 25.8812C22.9837 25.8812 21.6737 27.2112 21.6737 28.8612C21.6737 30.5412 22.9837 31.8512 24.6337 31.8512ZM0.7937 35.5312C1.2437 35.5312 1.6037 35.1912 1.6037 34.7412C1.6037 34.2912 1.2437 33.9512 0.7937 33.9512C0.3537 33.9512 0.0037 34.2912 0.0037 34.7412C0.0037 35.1912 0.3537 35.5312 0.7937 35.5312ZM3.3037 35.5312C3.7637 35.5312 4.1037 35.1912 4.1037 34.7412C4.1037 34.2912 3.7637 33.9512 3.3037 33.9512C2.8537 33.9512 2.5137 34.2912 2.5137 34.7412C2.5137 35.1912 2.8537 35.5312 3.3037 35.5312ZM5.8237 35.5312C6.2637 35.5312 6.6137 35.1912 6.6137 34.7412C6.6137 34.2912 6.2637 33.9512 5.8237 33.9512C5.3737 33.9512 5.0137 34.2912 5.0137 34.7412C5.0137 35.1912 5.3737 35.5312 5.8237 35.5312ZM8.3237 35.5312C8.7737 35.5312 9.1337 35.1912 9.1337 34.7412C9.1337 34.2912 8.7737 33.9512 8.3237 33.9512C7.8937 33.9512 7.5337 34.2912 7.5337 34.7412C7.5337 35.1912 7.8937 35.5312 8.3237 35.5312ZM10.8437 35.5312C11.2937 35.5312 11.6337 35.1912 11.6337 34.7412C11.6337 34.2912 11.2937 33.9512 10.8437 33.9512C10.3937 33.9512 10.0537 34.2912 10.0537 34.7412C10.0537 35.1912 10.3937 35.5312 10.8437 35.5312ZM13.3537 35.5312C13.7937 35.5312 14.1537 35.1912 14.1537 34.7412C14.1537 34.2912 13.7937 33.9512 13.3537 33.9512C12.9037 33.9512 12.5537 34.2912 12.5537 34.7412C12.5537 35.1912 12.9037 35.5312 13.3537 35.5312ZM15.8637 35.5312C16.3137 35.5312 16.6637 35.1912 16.6637 34.7412C16.6637 34.2912 16.3137 33.9512 15.8637 33.9512C15.4237 33.9512 15.0637 34.2912 15.0637 34.7412C15.0637 35.1912 15.4237 35.5312 15.8637 35.5312ZM18.3737 35.5312C18.8237 35.5312 19.1637 35.1912 19.1637 34.7412C19.1637 34.2912 18.8237 33.9512 18.3737 33.9512C17.9237 33.9512 17.5837 34.2912 17.5837 34.7412C17.5837 35.1912 17.9237 35.5312 18.3737 35.5312ZM20.8937 35.5312C21.3437 35.5312 21.6837 35.1912 21.6837 34.7412C21.6837 34.2912 21.3437 33.9512 20.8937 33.9512C20.4437 33.9512 20.0937 34.2912 20.0937 34.7412C20.0937 35.1912 20.4437 35.5312 20.8937 35.5312ZM23.4037 35.5312C23.8437 35.5312 24.2037 35.1912 24.2037 34.7412C24.2037 34.2912 23.8437 33.9512 23.4037 33.9512C22.9537 33.9512 22.6037 34.2912 22.6037 34.7412C22.6037 35.1912 22.9537 35.5312 23.4037 35.5312ZM25.9037 35.5312C26.3637 35.5312 26.7037 35.1912 26.7037 34.7412C26.7037 34.2912 26.3637 33.9512 25.9037 33.9512C25.4737 33.9512 25.1137 34.2912 25.1137 34.7412C25.1137 35.1912 25.4737 35.5312 25.9037 35.5312ZM28.4237 35.5312C28.8737 35.5312 29.2137 35.1912 29.2137 34.7412C29.2137 34.2912 28.8737 33.9512 28.4237 33.9512C27.9737 33.9512 27.6337 34.2912 27.6337 34.7412C27.6337 35.1912 27.9737 35.5312 28.4237 35.5312Z" /></svg>