
<svg
    viewBox={0 0 40.2678643302189 27.498417050184447}
    xmlns="http://www.w3.org/2000/svg"
>
    <path
        fill="inherit"
        d="M36.577 7.4244C38.627 7.4244 40.267 5.7144 40.267 3.7344C40.267 1.6644 38.627 0.0044 36.577 0.0044C34.517 0.0044 32.857 1.6644 32.857 3.7344C32.857 5.7744 34.517 7.4244 36.577 7.4244ZM4.097 11.9244C4.567 12.4944 5.417 11.8644 4.967 11.2744C4.667 10.8444 4.587 10.6344 4.587 10.2844C4.587 9.7344 4.967 9.4244 5.267 8.9844C5.997 8.7044 6.827 8.5344 7.537 8.4944C7.657 8.3144 7.757 8.1344 7.757 7.9144C7.757 7.1544 6.717 6.8344 6.717 5.5144C6.717 4.9644 6.897 4.4444 7.307 3.8944C7.787 3.3244 8.657 3.9344 8.207 4.5344C7.897 4.9644 7.807 5.1944 7.807 5.5144C7.807 6.4444 8.847 6.6944 8.847 7.9144C8.847 8.1744 8.797 8.3844 8.727 8.5744C9.287 8.6544 9.877 8.8144 10.377 9.0244C10.147 9.3344 9.947 9.7244 9.947 10.2844C9.947 10.8444 10.137 11.3644 10.557 11.9244C11.027 12.4944 11.887 11.8644 11.417 11.2744C11.137 10.8444 11.037 10.6344 11.037 10.2844C11.037 9.7244 11.447 9.4044 11.747 8.9444L15.317 4.4044C15.687 3.9244 15.617 3.4444 15.177 3.0944C13.667 1.9244 10.787 1.0344 7.767 1.0344C4.767 1.0344 1.887 1.9244 0.387 3.0944C-0.073 3.4444 -0.123 3.9244 0.237 4.4044L3.887 9.0644C3.667 9.3644 3.487 9.7444 3.487 10.2844C3.487 10.8444 3.667 11.3644 4.097 11.9244ZM20.467 5.3844C20.467 5.9044 20.867 6.2744 21.337 6.2744H25.047V8.1744C25.047 9.0244 25.927 9.3944 26.557 8.8144L29.677 6.0444C30.127 5.6644 30.097 5.1544 29.677 4.7844L26.557 1.9844C25.957 1.4344 25.047 1.7644 25.047 2.6244V4.5244H21.337C20.857 4.5244 20.467 4.9244 20.467 5.3844ZM3.957 9.1444L3.887 9.0644C4.187 8.6444 4.527 8.3544 4.527 7.9144C4.527 7.1544 3.487 6.8344 3.487 5.5144C3.487 4.9644 3.667 4.4444 4.097 3.8944C4.567 3.3244 5.427 3.9344 4.967 4.5344C4.667 4.9644 4.587 5.1944 4.587 5.5144C4.587 6.4444 5.607 6.6944 5.607 7.9144C5.607 8.3844 5.457 8.7044 5.267 8.9844C5.037 9.0644 4.817 9.1744 4.607 9.2744C4.377 9.4044 4.117 9.3644 3.957 9.1444ZM10.917 9.2744C10.747 9.1844 10.577 9.1044 10.377 9.0244C10.667 8.6244 10.997 8.3444 10.997 7.9144C10.997 7.1544 9.947 6.8344 9.947 5.5144C9.947 4.9644 10.117 4.4444 10.577 3.8944C11.037 3.3244 11.887 3.9344 11.437 4.5344C11.137 4.9644 11.037 5.1944 11.037 5.5144C11.037 6.4444 12.077 6.6944 12.077 7.9144C12.077 8.3544 11.927 8.6844 11.747 8.9444L11.587 9.1444C11.437 9.3644 11.177 9.4044 10.917 9.2744ZM17.917 6.8044C17.427 6.8044 17.057 7.1944 17.057 7.6944V11.4044H15.157C14.237 11.4044 13.937 12.2944 14.487 12.8944L17.297 16.0244C17.697 16.4344 18.187 16.4744 18.567 16.0344L21.337 12.8644C21.877 12.2344 21.547 11.4044 20.707 11.4044H18.807V7.6944C18.807 7.2044 18.377 6.8244 17.917 6.8044ZM7.307 11.9244C7.787 12.4944 8.647 11.8644 8.197 11.2744C7.897 10.8444 7.807 10.6344 7.807 10.2844C7.807 9.5844 8.457 9.2544 8.727 8.5744C8.387 8.5144 8.067 8.4944 7.767 8.4944C7.687 8.4944 7.617 8.4944 7.537 8.4944C7.237 8.9444 6.717 9.3644 6.717 10.2844C6.717 10.8444 6.907 11.3644 7.307 11.9244ZM14.547 26.9844C15.267 27.7244 16.477 27.6744 17.337 26.7744L23.237 20.6944C23.427 20.4944 23.557 20.4444 23.857 20.5644L28.457 22.2944C31.407 23.4344 34.187 22.4644 35.487 20.1144L38.437 14.7344C39.587 12.6444 39.217 10.4844 37.237 9.4244C35.287 8.3644 33.297 9.1644 32.137 11.3044L28.287 18.2944L25.037 17.1044C23.407 16.5144 22.067 16.7044 20.787 18.0444L14.677 24.3644C13.827 25.2344 13.907 26.3344 14.547 26.9844Z"
        fillRule="evenodd"
        clipRule="evenodd"
    />
</svg>
        