
<svg
    viewBox="0 0 29.772233020110605 34.570029500141914"
    xmlns="http://www.w3.org/2000/svg"
>
    <path
        fill="inherit"
        d="M14.8937 0.8749C13.6037 -0.4251 12.0737 -0.3551 10.0737 1.6249C8.9737 2.7649 8.3837 5.0449 8.0237 6.6749L6.0037 8.7049C5.3737 9.3349 5.5137 10.1949 6.0737 10.7549L10.1037 14.7749C10.3637 15.0149 10.6937 15.1649 11.0737 15.1649H13.8037C13.9037 15.1649 13.9437 15.3149 13.8637 15.3549L11.0237 16.7749C8.6037 17.9649 8.0437 21.1749 10.5037 22.9949L15.5537 26.6849L12.6237 32.5649C12.2737 33.2449 12.5537 34.0949 13.2237 34.4249C13.8537 34.7349 14.6937 34.5449 15.0837 33.8049L18.4737 27.0249C18.7437 26.4649 18.8037 25.7849 18.1837 25.1649L14.1137 21.1049L19.4137 18.4649C19.6737 18.3349 19.9637 18.3849 20.1437 18.5749L27.4237 25.8549C27.9737 26.3949 28.8737 26.3749 29.3637 25.8549C29.9037 25.3049 29.9137 24.4449 29.3637 23.8949L18.6237 13.1549C18.1437 12.6749 17.6337 12.3949 16.9637 12.3949H11.6437L8.0537 8.8049L9.1237 7.7349C10.7437 7.3949 13.0437 6.8049 14.1337 5.6849C16.1437 3.7049 16.2137 2.1549 14.8937 0.8749ZM13.8337 1.9549C14.5437 2.6549 14.3137 3.3449 13.0737 4.6249C12.2937 5.3849 10.8237 5.7449 9.7237 6.0649C10.0237 4.9349 10.3937 3.4949 11.1737 2.7049C12.4237 1.4449 13.0937 1.2449 13.8337 1.9549ZM22.5837 13.7549C24.2437 13.7549 25.5837 12.4149 25.5837 10.7549C25.5837 9.1049 24.2437 7.7649 22.5837 7.7649C20.9337 7.7649 19.6037 9.1049 19.6037 10.7549C19.6037 12.4149 20.9337 13.7549 22.5837 13.7549ZM1.3837 29.0249H8.3137C8.9037 29.0249 9.3837 28.6049 9.6237 28.0949L11.1337 25.0749L9.7237 24.0449C9.1637 23.6249 8.7637 23.2149 8.4637 22.7749L7.3037 26.2449H1.3837C0.6337 26.2449 0.0037 26.8749 0.0037 27.6249C0.0037 28.4249 0.6337 29.0249 1.3837 29.0249Z"
        fillRule="evenodd"
        clipRule="evenodd"
    />
</svg>
        