
<svg
    viewBox={0 0 35.82554540528776 27.7103271484375}
    xmlns="http://www.w3.org/2000/svg"
>
    <path
        fill="inherit"
        d="M28.8637 13.8801C30.4737 13.8801 31.9337 13.3301 33.1137 12.4301L33.9237 13.2201C34.2637 13.5601 34.8237 13.5601 35.1637 13.2201C35.5237 12.8801 35.5237 12.3001 35.1637 11.9501L34.3837 11.1601C35.2837 9.9901 35.8237 8.5301 35.8237 6.9901C35.8237 5.3701 35.2837 3.9001 34.3837 2.7201L35.1637 1.9401C35.5237 1.5701 35.5237 1.0101 35.1637 0.6701C34.8237 0.3301 34.2637 0.3301 33.9237 0.6701L33.1237 1.4501C31.9537 0.5301 30.4737 0.0001 28.8637 0.0001C27.2637 0.0001 25.8137 0.5301 24.6537 1.4401L23.8837 0.6701C23.5437 0.3301 22.9737 0.3301 22.6237 0.6701C22.2737 1.0101 22.2737 1.5701 22.6237 1.9401L23.3937 2.7101C22.5037 3.8801 21.9837 5.3701 21.9837 6.9901C21.9837 8.5401 22.5137 9.9901 23.4037 11.1701L22.6237 11.9501C22.2737 12.3001 22.2737 12.8801 22.6237 13.2201C22.9737 13.5601 23.5437 13.5601 23.8837 13.2201L24.6637 12.4401C25.8137 13.3401 27.2737 13.8801 28.8637 13.8801ZM13.3037 7.6601C15.3637 7.6601 17.0237 5.9901 17.0237 3.9601C17.0237 1.9001 15.3637 0.2201 13.3037 0.2201C11.2537 0.2201 9.6237 1.9001 9.6237 3.9601C9.6237 5.9501 11.2537 7.6601 13.3037 7.6601ZM28.8637 1.7901C29.9837 1.7901 31.0037 2.1301 31.8537 2.7301L28.9037 5.6901L25.9337 2.7201C26.7537 2.1301 27.7637 1.7901 28.8637 1.7901ZM23.7737 6.9901C23.7737 5.8701 24.1037 4.8401 24.6737 3.9901L27.6337 6.9501L24.6937 9.9001C24.1137 9.0601 23.7737 8.0701 23.7737 6.9901ZM34.0337 6.9901C34.0337 8.0501 33.6837 9.0501 33.1037 9.8801L30.1637 6.9501L33.1037 3.9901C33.6837 4.8401 34.0337 5.8801 34.0337 6.9901ZM28.8637 12.0901C27.7837 12.0901 26.7737 11.7401 25.9537 11.1601L28.9037 8.2001L31.8237 11.1401C30.9837 11.7301 29.9537 12.0901 28.8637 12.0901ZM15.6937 21.8201L20.3437 16.2101L17.7637 11.5301C16.5737 9.3901 14.5837 8.5701 12.6637 9.6401C10.6637 10.7001 10.2937 12.8501 11.4537 14.9601L13.9737 19.5201C14.5237 20.5401 15.0837 21.3401 15.6937 21.8201ZM0.9937 27.6901H7.5437C8.0537 27.6901 8.4237 27.3301 8.4237 26.8401C8.4237 26.3301 8.0537 25.9801 7.5437 25.9801H2.9137V25.9401L5.8837 22.7401C6.9337 21.6201 7.7237 20.6301 7.7237 19.2201C7.7237 17.2701 6.2037 16.0001 3.8237 16.0001C2.0637 16.0001 0.4937 17.0601 0.0837 18.5101C0.0237 18.7001 0.0037 18.8501 0.0037 19.0301C0.0037 19.5401 0.3237 19.8801 0.8637 19.8801C1.3137 19.8801 1.5437 19.5901 1.7937 19.2101C2.1037 18.4601 2.7637 17.6801 3.9137 17.6801C5.0737 17.6801 5.8637 18.3601 5.8637 19.3601C5.8637 20.2501 5.1037 21.0001 4.3737 21.7801L0.3937 26.0601C0.1737 26.2901 0.0537 26.5401 0.0537 26.8401C0.0537 27.3601 0.4137 27.6901 0.9937 27.6901ZM35.3237 27.1901C35.9737 26.5501 36.0537 25.4601 35.2037 24.5801L29.0937 18.2701C27.8037 16.9301 26.4537 16.7301 24.8537 17.3201L21.3537 18.5901L17.9337 22.8201C18.8037 22.9801 19.9737 23.0601 21.0537 22.6501L26.0137 20.7801C26.3337 20.6601 26.4537 20.7101 26.6637 20.9201L32.5437 26.9901C33.4137 27.8801 34.6337 27.9501 35.3237 27.1901ZM12.7237 27.3601C13.3037 27.8401 13.9637 27.7101 14.4637 27.1001L17.9337 22.8201C17.1537 22.6501 16.3937 22.3101 15.6937 21.8201L12.6637 25.5901C12.1437 26.2401 12.1637 26.9201 12.7237 27.3601Z"
        fillRule="evenodd"
        clipRule="evenodd"
    />
</svg>
        