
<svg
    viewBox="0 0 27.890625 27.890625"
    xmlns="http://www.w3.org/2000/svg"
>
    <path
        fill="inherit"
        d="M13.9427 27.8864C21.6427 27.8864 27.8927 21.6464 27.8927 13.9464C27.8927 6.2464 21.6427 -0.0036 13.9427 -0.0036C6.2527 -0.0036 0.0027 6.2464 0.0027 13.9464C0.0027 21.6464 6.2527 27.8864 13.9427 27.8864ZM13.9427 25.5664C7.5227 25.5664 2.3227 20.3664 2.3227 13.9464C2.3227 7.5164 7.5227 2.3264 13.9427 2.3264C20.3727 2.3264 25.5627 7.5164 25.5627 13.9464C25.5627 20.3664 20.3727 25.5664 13.9427 25.5664ZM7.1827 13.6764L7.6327 16.3764C7.7827 17.3764 9.1427 17.1764 8.9827 16.1864L8.6127 13.8464L10.1427 13.2464C10.3627 13.1664 10.5827 13.1964 10.6827 13.4164L12.0727 16.1964C12.5127 17.0464 12.8627 17.2964 13.2027 17.5564L17.7627 20.9064C18.5627 21.4764 19.5127 20.3164 18.6027 19.6564L15.0627 17.0664C14.9027 16.9264 14.9027 16.6964 15.1027 16.5864L17.5127 15.2064L20.6727 16.7064C21.5627 17.1264 22.2827 15.8864 21.2327 15.3664L17.8727 13.7564C17.4627 13.5764 17.0727 13.6264 16.7327 13.8264L15.1527 14.7564C14.9427 14.8764 14.7927 14.8164 14.7127 14.6564L13.4427 12.0564C13.3127 11.8264 13.3427 11.5764 13.6027 11.4664L14.7627 10.9264C15.1627 10.7464 15.3027 10.6264 15.4127 10.2564L16.1427 7.6964C16.4227 6.7164 15.1227 6.3664 14.8427 7.3464L14.1227 9.8464L7.6827 12.6764C7.2627 12.8664 7.0927 13.1964 7.1827 13.6764ZM10.1127 10.5164C11.0327 10.5164 11.7727 9.7764 11.7727 8.8764C11.7727 7.9564 11.0327 7.2164 10.1127 7.2164C9.2127 7.2164 8.4727 7.9564 8.4727 8.8764C8.4727 9.7764 9.2127 10.5164 10.1127 10.5164Z"
        fillRule="evenodd"
        clipRule="evenodd"
    />
</svg>
        