
<svg
    viewBox="0 0 18.37546493412758 33.236328125"
    xmlns="http://www.w3.org/2000/svg"
>
    <path
        fill="inherit"
        d="M6.8637 5.9761C8.5037 5.9761 9.8537 4.6161 9.8537 2.9761C9.8537 1.3561 8.5037 -0.0039 6.8637 -0.0039C5.2237 -0.0039 3.8837 1.3561 3.8837 2.9761C3.8837 4.6161 5.2237 5.9761 6.8637 5.9761ZM13.9737 27.6761C14.5437 27.3961 14.9137 26.7261 14.5437 25.7961L12.1437 19.7661C12.0737 19.5761 11.9337 19.4261 11.6337 19.2061L7.2337 15.9561L7.5637 11.1061C7.5737 10.8261 7.7837 10.7461 8.0437 10.8261L10.8937 11.7961C11.1737 11.8761 11.5137 11.9261 11.8137 11.8761L17.1137 11.2961C19.0037 11.0761 18.6637 8.3261 16.8037 8.5361L11.6637 9.1161L6.4237 7.3861C4.5137 6.7361 2.8537 7.8161 2.6937 9.7361L2.3137 14.5161C2.1837 15.9561 2.9437 17.3461 4.1737 18.0561L9.7637 21.2961L11.9737 26.8261C12.3637 27.7961 13.3137 27.9961 13.9737 27.6761ZM11.7737 31.9961L17.1337 30.2161C17.5237 30.0761 17.7337 29.8061 17.7337 29.3361V12.5061C17.5637 12.5461 17.3937 12.5961 17.2037 12.6161L16.2137 12.7261V28.9161L11.3237 30.5461C10.7837 30.7361 10.6537 31.1961 10.8037 31.5661C10.9137 31.8961 11.2837 32.1561 11.7737 31.9961ZM1.1737 30.1361C1.7337 30.3961 2.4437 30.3061 2.9437 29.5861L6.5637 24.1861C6.6737 24.0061 6.7637 23.7661 6.7837 23.4561L6.9337 21.0261L3.8237 19.2261L4.0037 23.0361L0.6737 28.0361C0.0837 28.9461 0.5037 29.8161 1.1737 30.1361ZM0.7537 33.2361H6.3537C6.7837 33.2361 7.1337 32.8761 7.1337 32.4661C7.1337 32.0461 6.7837 31.7161 6.3537 31.7161H0.7537C0.3237 31.7161 0.0037 32.0461 0.0037 32.4661C0.0037 32.8761 0.3237 33.2361 0.7537 33.2361Z"
        fillRule="evenodd"
        clipRule="evenodd"
    />
</svg>
        