
<svg
    viewBox={0 0 27.890625 27.890625}
    xmlns="http://www.w3.org/2000/svg"
>
    <path
        fill="inherit"
        d="M13.9427 27.8864C21.6427 27.8864 27.8927 21.6464 27.8927 13.9464C27.8927 6.2464 21.6427 -0.0036 13.9427 -0.0036C6.2527 -0.0036 0.0027 6.2464 0.0027 13.9464C0.0027 21.6464 6.2527 27.8864 13.9427 27.8864ZM13.9427 25.5664C7.5227 25.5664 2.3227 20.3664 2.3227 13.9464C2.3227 7.5164 7.5227 2.3264 13.9427 2.3264C20.3727 2.3264 25.5627 7.5164 25.5627 13.9464C25.5627 20.3664 20.3727 25.5664 13.9427 25.5664ZM17.8527 12.2664H19.9327C20.1927 12.2664 20.2927 12.0564 20.2027 11.8264C20.0727 11.4164 19.7527 11.0864 19.3627 10.9464V5.1564C19.3627 4.9064 19.1427 4.6864 18.8927 4.6864C18.6527 4.6864 18.4327 4.9064 18.4327 5.1564V10.9464C18.0327 11.0864 17.7227 11.4064 17.5827 11.8264C17.5027 12.0564 17.5927 12.2664 17.8527 12.2664ZM13.7927 8.3364C14.7127 8.3364 15.4327 7.6064 15.4327 6.6864C15.4327 5.7864 14.7127 5.0464 13.7927 5.0464C12.8827 5.0464 12.1427 5.7864 12.1427 6.6864C12.1427 7.6064 12.8827 8.3364 13.7927 8.3364ZM8.5327 22.8064C8.8427 22.9864 9.3427 22.9164 9.5527 22.5164L11.4727 19.0764L12.5827 16.5564C12.6227 16.5064 12.6727 16.4764 12.7427 16.5164L15.7527 18.7064V22.1164C15.7527 22.5464 16.0927 22.8964 16.5127 22.8964C16.9427 22.8964 17.2827 22.5464 17.2827 22.1164V18.3764C17.2827 18.1564 17.2127 17.9264 17.0527 17.7564L13.9027 14.7764L14.1927 12.3864C14.2027 12.3064 14.3327 12.3064 14.3527 12.3764L15.0527 14.0364C15.1727 14.3264 15.4527 14.5164 15.7527 14.5164H18.9727C19.4127 14.5164 19.7527 14.1764 19.7527 13.7564C19.7527 13.3164 19.4127 12.9864 18.9727 12.9864H16.2527L15.1627 10.4364C14.8727 9.7664 14.4527 9.3764 13.4927 9.1164L13.0527 8.9964C12.0027 8.6964 11.2927 8.6664 10.4327 9.0264L9.2827 9.5264V6.6964C9.2827 6.2864 8.9327 5.9364 8.5127 5.9364C8.0927 5.9364 7.7527 6.2864 7.7527 6.6964V10.7864C7.7527 11.3364 8.3227 11.6064 8.8227 11.4064L10.9827 10.4564C11.0627 10.4164 11.1727 10.4764 11.1527 10.5864L10.0627 18.4564L8.2127 21.7764C8.0227 22.1164 8.1527 22.6164 8.5327 22.8064Z"
        fillRule="evenodd"
        clipRule="evenodd"
    />
</svg>
        