
<svg
    viewBox={0 0 36.592771297312886 31.3359375}
    xmlns="http://www.w3.org/2000/svg"
>
    <path
        fill="inherit"
        d="M10.3506 5.9791C12.0106 5.9791 13.3406 4.6491 13.3406 2.9791C13.3406 1.3291 12.0106 -0.0009 10.3506 -0.0009C8.6906 -0.0009 7.3706 1.3291 7.3706 2.9791C7.3706 4.6491 8.6906 5.9791 10.3506 5.9791ZM12.3106 29.3491H16.3306C16.9806 29.3491 17.2806 28.9191 17.1106 28.2091L15.6906 21.9991L19.7906 16.9391L31.8906 14.7291L32.8506 16.5291C33.2706 17.3191 34.6306 17.0591 34.4506 16.0891L33.8106 12.4091C33.7106 11.8491 33.3606 11.6391 32.8406 11.7191L24.5506 13.1791L19.4406 12.9191C17.9606 12.6491 15.5106 11.5791 14.9706 10.2291C14.8206 9.8291 15.0406 9.4791 15.3906 9.4091L23.1006 8.0391C24.0606 7.8791 24.4006 7.0791 24.2506 6.3891C24.1106 5.6991 23.5106 5.1091 22.5806 5.2891L1.1306 9.2191C0.2406 9.3791 -0.0994 10.1191 0.0206 10.8191C0.1606 11.5091 0.7506 12.1091 1.6906 11.9491L7.9806 10.7991C8.5406 10.7091 8.7706 10.9191 8.8406 11.2291C9.5806 13.9591 12.3006 15.9291 15.0906 16.9791L13.0506 20.4391C12.7506 20.9591 12.6006 21.4691 12.7706 22.1591L13.9106 27.1291L12.1406 27.6991C11.2306 27.9891 11.3606 29.3491 12.3106 29.3491ZM36.5806 16.7891L35.6506 11.4991C35.6006 11.2391 35.3706 11.0791 35.1106 11.1291C34.8206 11.1691 34.6406 11.3991 34.7006 11.6791L35.6306 16.9491C35.6806 17.2291 35.9106 17.4191 36.2106 17.3491C36.4606 17.3191 36.6406 17.0591 36.5806 16.7891ZM11.5906 31.3391H16.9506C17.2206 31.3391 17.4106 31.1191 17.4106 30.8591C17.4106 30.5591 17.2206 30.3491 16.9506 30.3491H11.5906C11.3206 30.3491 11.1006 30.5591 11.1006 30.8591C11.1006 31.1191 11.3206 31.3391 11.5906 31.3391Z"
        fillRule="evenodd"
        clipRule="evenodd"
    />
</svg>
        