
<svg
    viewBox={0 0 29.943134474734943 27.09765625}
    xmlns="http://www.w3.org/2000/svg"
>
    <path
        fill="inherit"
        d="M19.8872 5.9736C21.5372 5.9736 22.8672 4.6436 22.8672 2.9936C22.8672 1.3436 21.5372 0.0036 19.8872 0.0036C18.2272 0.0036 16.8872 1.3436 16.8872 2.9936C16.8872 4.6436 18.2272 5.9736 19.8872 5.9736ZM9.1772 23.8836C9.8172 24.2836 10.7472 24.0736 11.1572 23.4236L14.5272 18.0336L18.1772 18.2336L15.8872 21.8936C15.4572 22.5736 15.6472 23.4836 16.3372 23.8836C17.0272 24.2836 17.8972 24.0936 18.3072 23.4236L21.8472 17.7636C22.4272 16.8136 21.9472 15.6236 20.6472 15.4936L14.6772 14.8236C14.0972 14.7536 13.8672 14.1336 14.1672 13.7136L16.6472 9.9936C16.7972 9.7436 17.0972 9.6936 17.3372 9.8336L26.4072 15.2836C27.0772 15.6836 27.9872 15.4736 28.3772 14.8036C28.7572 14.1136 28.5472 13.2336 27.8672 12.8236L9.9572 2.0636C9.7272 1.9436 9.4772 1.8836 9.2272 1.8836H3.4872C2.6872 1.8836 2.0372 2.5136 2.0372 3.2936C2.0372 4.0836 2.6872 4.7336 3.4872 4.7336H8.8172L11.3272 6.2336C11.5972 6.3836 11.6672 6.7136 11.4972 6.9836L8.3972 11.6336C6.7172 14.1236 8.0972 17.4736 11.2372 17.8536L8.7172 21.8936C8.2872 22.5736 8.4772 23.4636 9.1772 23.8836ZM4.0772 27.0936H25.8672C27.3972 27.0936 28.6472 26.7836 29.6172 25.9536C30.0272 25.6036 30.0172 25.1736 29.7772 24.8736C29.5472 24.5536 29.0672 24.4336 28.6472 24.7636C27.9072 25.3436 27.1572 25.5836 25.8672 25.5836H4.0772C2.7972 25.5836 2.0372 25.3436 1.3072 24.7636C0.9072 24.4636 0.4772 24.5236 0.2372 24.7836C-0.0628 25.0836 -0.1228 25.5636 0.3172 25.9536C1.3072 26.7836 2.5472 27.0936 4.0772 27.0936Z"
        fillRule="evenodd"
        clipRule="evenodd"
    />
</svg>
        