
<svg
    viewBox="0 0 27.890625 27.890625"
    xmlns="http://www.w3.org/2000/svg"
>
    <path
        fill="inherit"
        d="M13.9427 27.8864C21.6427 27.8864 27.8927 21.6464 27.8927 13.9464C27.8927 6.2464 21.6427 -0.0036 13.9427 -0.0036C6.2527 -0.0036 0.0027 6.2464 0.0027 13.9464C0.0027 21.6464 6.2527 27.8864 13.9427 27.8864ZM13.9427 25.5664C7.5227 25.5664 2.3227 20.3664 2.3227 13.9464C2.3227 7.5164 7.5227 2.3264 13.9427 2.3264C20.3727 2.3264 25.5627 7.5164 25.5627 13.9464C25.5627 20.3664 20.3727 25.5664 13.9427 25.5664ZM13.9327 8.2064C14.8327 8.2064 15.5827 7.4664 15.5827 6.5664C15.5827 5.6564 14.8327 4.9064 13.9327 4.9064C13.0327 4.9064 12.3027 5.6564 12.3027 6.5664C12.3027 7.4664 13.0327 8.2064 13.9327 8.2064ZM9.5727 12.0764C8.6827 13.3064 9.4727 14.9864 11.2227 14.7264L14.0027 14.2964L12.9327 17.4964C12.5827 18.5364 14.0527 18.9864 14.3827 17.9964L15.8227 13.6764C15.9927 13.1364 15.6527 12.6364 15.0527 12.6364H12.3227L13.7527 10.7164C13.8927 10.5264 13.9827 10.4964 14.1827 10.4964H19.8227C20.2227 10.4964 20.5727 10.1764 20.5727 9.7464C20.5727 9.3364 20.2527 8.9864 19.8227 8.9864H12.6427C12.1127 8.9864 11.5927 9.2664 11.2627 9.7164ZM10.2527 22.0564C10.2527 22.3964 10.4727 22.6264 10.8427 22.6264H16.5027C16.8427 22.6264 17.0927 22.3964 17.0927 22.0564V19.7664C17.0927 19.4264 16.8427 19.2064 16.5027 19.2064H10.8427C10.4727 19.2064 10.2527 19.4264 10.2527 19.7664Z"
        fillRule="evenodd"
        clipRule="evenodd"
    />
</svg>
        