<svg viewBox="0 0 27.890625 27.890625" xmlns="http://www.w3.org/2000/svg"><path d="M13.9427 27.8864C21.6427 27.8864 27.8927 21.6464 27.8927 13.9464C27.8927 6.2464 21.6427 -0.0036 13.9427 -0.0036C6.2527 -0.0036 0.0027 6.2464 0.0027 13.9464C0.0027 21.6464 6.2527 27.8864 13.9427 27.8864ZM13.9427 25.5664C7.5227 25.5664 2.3227 20.3664 2.3227 13.9464C2.3227 7.5164 7.5227 2.3264 13.9427 2.3264C20.3727 2.3264 25.5627 7.5164 25.5627 13.9464C25.5627 20.3664 20.3727 25.5664 13.9427 25.5664ZM13.6427 18.9664L15.9827 15.7464L17.4727 18.4564C17.9527 20.7764 18.0027 22.1364 18.0027 22.4064C18.0027 22.8764 18.3627 23.2264 18.8027 23.2264C19.2327 23.2264 19.5627 22.8764 19.5627 22.4264C19.5627 21.8064 19.5127 19.9764 18.9727 18.0164L18.9327 17.8964C18.0927 14.8164 16.3127 9.0064 11.1927 5.6064C10.9527 5.4364 10.7227 5.3564 10.4427 5.3564H7.8227C7.4127 5.3564 7.0527 5.7164 7.0527 6.1364C7.0527 6.5764 7.4127 6.9364 7.8227 6.9364H10.3927C11.1927 7.4764 11.9127 8.0964 12.5327 8.7364C12.6227 8.8364 12.6327 8.9564 12.5927 9.0464L9.9627 13.5264C9.6427 14.0864 10.0327 14.6864 10.6327 14.6864H14.2027L12.3227 18.1264L12.2527 18.2664L10.1827 22.0664C9.9927 22.4364 10.1127 22.9264 10.4827 23.1164C10.8427 23.3064 11.3027 23.2464 11.5427 22.8064ZM9.5327 11.0564C10.4327 11.0564 11.1527 10.3264 11.1527 9.4064C11.1527 8.5064 10.4327 7.7664 9.5327 7.7664C8.6027 7.7664 7.8727 8.5064 7.8727 9.4064C7.8727 10.3264 8.6027 11.0564 9.5327 11.0564ZM11.9927 13.1364L12.5627 12.1364C12.6627 11.9864 12.8427 12.0064 12.9227 12.1264L13.5727 13.1364Z" /></svg>