<svg viewBox="0 0 31.006281888857306 31.006281888857306" xmlns="http://www.w3.org/2000/svg"><path d="M1.5328 18.5268L12.4828 29.4768C14.5028 31.5068 16.5028 31.5168 18.5128 29.5168L29.5228 18.4968C31.5128 16.5068 31.5028 14.4968 29.4828 12.4668L18.5428 1.5368C16.5128 -0.4932 14.5228 -0.5132 12.5128 1.4968L1.4928 12.4968C-0.5172 14.5068 -0.4872 16.5068 1.5328 18.5268ZM16.1928 9.6768C15.2328 9.6768 14.4628 8.9068 14.4628 7.9568C14.4628 7.0168 15.2328 6.2468 16.1928 6.2468C17.1328 6.2468 17.9028 7.0168 17.9028 7.9568C17.9028 8.9068 17.1328 9.6768 16.1928 9.6768ZM18.0328 23.5168L16.3228 20.0468C16.2528 19.9068 16.2328 19.8168 16.0828 19.6168L14.4128 17.5468C13.7928 16.7768 13.5828 16.3268 13.6428 15.4368L13.7828 13.6468C13.8128 13.3968 13.5128 13.2868 13.3028 13.4868L12.6928 13.9968L12.5128 16.1368C12.4728 16.6568 12.1928 16.9268 11.7328 16.8868C11.2928 16.8768 11.0328 16.5268 11.0628 16.0568L11.2028 14.1068C11.2428 13.6068 11.3728 13.2668 11.7828 12.8568L13.0328 11.6268C13.8428 10.8468 14.4128 10.4068 15.2728 10.4068C16.4228 10.4068 17.0828 11.2568 17.0128 12.4068L16.8328 14.7368C16.7928 15.5868 16.6828 16.0968 16.3828 16.9368L16.3128 17.1468L17.3928 18.6768C17.5328 18.8868 17.7028 19.1668 17.8428 19.4068L19.5028 22.7968C20.0628 23.8968 18.5228 24.5268 18.0328 23.5168ZM20.8828 13.6168C21.3828 13.6168 21.6828 13.8968 21.6828 14.3468C21.6828 14.7968 21.3828 15.0668 20.8828 15.0668H19.1328C18.6328 15.0668 18.4228 14.9968 18.1428 14.7268L17.6528 14.2468L17.8028 12.2968L18.9928 13.6168ZM12.0728 23.7368C11.4028 24.5168 10.1628 23.6168 10.9228 22.6968L13.3628 19.8168L13.7528 17.9568L15.0528 19.6168L14.8728 20.1668C14.7928 20.4668 14.7528 20.5368 14.5028 20.8268Z" /></svg>