
<svg
    viewBox="0 0 27.890625 27.890625"
    xmlns="http://www.w3.org/2000/svg"
>
    <path
        fill="inherit"
        d="M13.9427 27.8864C21.6427 27.8864 27.8927 21.6464 27.8927 13.9464C27.8927 6.2464 21.6427 -0.0036 13.9427 -0.0036C6.2527 -0.0036 0.0027 6.2464 0.0027 13.9464C0.0027 21.6464 6.2527 27.8864 13.9427 27.8864ZM13.9427 25.5664C7.5227 25.5664 2.3227 20.3664 2.3227 13.9464C2.3227 7.5164 7.5227 2.3264 13.9427 2.3264C20.3727 2.3264 25.5627 7.5164 25.5627 13.9464C25.5627 20.3664 20.3727 25.5664 13.9427 25.5664ZM19.6327 9.7864C20.5227 9.7864 21.2227 9.0764 21.2227 8.2064C21.2227 7.3164 20.5227 6.6164 19.6327 6.6164C18.7627 6.6164 18.0327 7.3164 18.0327 8.2064C18.0327 9.0764 18.7627 9.7864 19.6327 9.7864ZM15.4627 21.2064C18.3627 21.2064 20.6027 18.9764 20.6027 16.0664C20.6027 14.7264 20.0527 13.9164 18.8827 13.5064L17.7727 13.1064C17.6127 13.0664 17.5727 12.9864 17.6927 12.8664L18.3927 11.8164C18.9727 10.9664 18.7627 10.2664 17.8827 9.6364L15.2327 7.7964C14.9027 7.5864 14.5427 7.5864 14.2427 7.7764L11.7727 9.4364C10.8127 10.0864 11.7027 11.3164 12.6227 10.7164L14.6527 9.3264L16.0527 10.2964C16.2727 10.4464 16.2927 10.5964 16.1627 10.7964L15.0127 12.4564C14.3427 13.4164 14.8727 14.4664 15.9027 14.7064L18.9627 15.4864C19.2527 15.5464 19.4127 15.7864 19.4127 16.1164C19.4127 18.3064 17.6927 20.0264 15.4627 20.0264C13.2327 20.0264 11.5127 18.3064 11.5127 16.0664C11.5127 15.2564 11.7327 14.5464 12.1227 13.9564C12.6227 13.2064 11.6327 12.5764 11.1027 13.3564C10.6227 14.0964 10.3127 15.0164 10.3127 16.0664C10.3127 18.9764 12.5627 21.2064 15.4627 21.2064ZM5.3227 12.2764H8.5827C8.8827 12.2764 9.1227 12.0264 9.1227 11.7264C9.1227 11.4264 8.8827 11.1864 8.5827 11.1864H5.3227C5.0027 11.1864 4.8027 11.4464 4.8027 11.7264C4.8027 12.0164 5.0027 12.2764 5.3227 12.2764ZM4.6727 14.8864H8.5827C8.8827 14.8864 9.1227 14.6664 9.1227 14.3564C9.1227 14.0564 8.8827 13.8064 8.5827 13.8064H4.6727C4.3927 13.8064 4.1527 14.0864 4.1527 14.3564C4.1527 14.6664 4.3927 14.8864 4.6727 14.8864ZM6.7027 17.5164H8.5827C8.8827 17.5164 9.1227 17.2964 9.1227 16.9664C9.1227 16.6664 8.8827 16.4364 8.5827 16.4364H6.7027C6.4027 16.4364 6.1927 16.6664 6.1927 16.9664C6.1927 17.2964 6.4027 17.5164 6.7027 17.5164ZM20.5727 21.2064C21.0427 21.2064 21.4227 20.8464 21.4227 20.3864C21.4227 19.9164 21.0427 19.5264 20.5727 19.5264C20.0927 19.5264 19.7327 19.9164 19.7327 20.3864C19.7327 20.8464 20.0927 21.2064 20.5727 21.2064Z"
        fillRule="evenodd"
        clipRule="evenodd"
    />
</svg>
        