
<svg
    viewBox="0 0 27.890625 27.890625"
    xmlns="http://www.w3.org/2000/svg"
>
    <path
        fill="inherit"
        d="M13.9427 27.8864C21.6427 27.8864 27.8927 21.6264 27.8927 13.9464C27.8927 6.2464 21.6427 -0.0036 13.9427 -0.0036C6.2627 -0.0036 0.0027 6.2464 0.0027 13.9464C0.0027 21.6264 6.2627 27.8864 13.9427 27.8864ZM13.9327 7.8364C12.9927 7.8364 12.2227 7.0664 12.2227 6.1064C12.2227 5.1864 12.9927 4.4264 13.9327 4.4264C14.8627 4.4264 15.6227 5.1864 15.6227 6.1064C15.6227 7.0664 14.8627 7.8364 13.9327 7.8364ZM4.5827 14.8164C4.5827 14.5364 4.8027 14.3464 5.0627 14.3464H5.7127V12.7264C5.7127 12.4164 5.9227 12.2064 6.2227 12.2064H6.7027C7.0027 12.2064 7.2027 12.4164 7.2027 12.7264V14.3464H8.9327L11.2227 9.6764C11.5627 8.9864 12.2127 8.5864 13.0027 8.5864H14.8627C15.6727 8.5864 16.2927 8.9864 16.6527 9.6764L18.9527 14.3464H20.6427V12.7264C20.6427 12.4164 20.8527 12.2064 21.1527 12.2064H21.6327C21.9327 12.2064 22.1327 12.4164 22.1327 12.7264V14.3464H22.7927C23.0527 14.3464 23.2727 14.5364 23.2727 14.8164C23.2727 15.0964 23.0527 15.2964 22.7927 15.2964H22.1327V16.9264C22.1327 17.2264 21.9327 17.4464 21.6327 17.4464H21.1527C20.8527 17.4464 20.6427 17.2264 20.6427 16.9264V15.2964H19.4127L19.4827 15.4764C19.6727 15.8764 19.5227 16.3364 19.1527 16.5164C18.7727 16.7164 18.2927 16.5464 18.1027 16.1564L17.6827 15.2964H10.1727L9.7527 16.1564C9.5527 16.5464 9.0927 16.7164 8.6927 16.5164C8.3427 16.3364 8.1927 15.8764 8.3627 15.4764L8.4327 15.2964H7.2027V16.9264C7.2027 17.2264 7.0027 17.4464 6.7027 17.4464H6.2227C5.9227 17.4464 5.7127 17.2264 5.7127 16.9264V15.2964H5.0627C4.8027 15.2964 4.5827 15.0964 4.5827 14.8164ZM10.6527 14.3464H17.2027L15.9327 11.7564C15.8327 11.5764 15.6427 11.6464 15.6427 11.7764V13.6564H12.2227V11.7764C12.2227 11.6364 12.0327 11.5764 11.9327 11.7564ZM11.8927 15.9864H15.9727L16.9027 18.5964C16.9127 18.6764 16.9227 18.7264 16.9427 18.7964L17.6827 22.2564C17.7827 22.7864 17.5027 23.1364 17.1327 23.2264C16.7327 23.3264 16.2827 23.1464 16.1627 22.5864L15.4327 19.2464L13.9327 16.4764L12.4327 19.2464L11.6927 22.5864C11.5627 23.1364 11.1427 23.3264 10.7727 23.2464C10.3927 23.1764 10.0627 22.8064 10.1827 22.2564L10.9127 18.7964C10.9227 18.7264 10.9327 18.6864 10.9627 18.5964Z"
        fillRule="evenodd"
        clipRule="evenodd"
    />
</svg>
        