
<svg
    viewBox="0 0 26.52363673374223 31.914119984175763"
    xmlns="http://www.w3.org/2000/svg"
>
    <path
        fill="inherit"
        d="M24.6639 9.4092C24.5839 9.3192 24.5139 9.2692 24.4339 9.2192V7.5292L25.7739 6.8392C26.2339 6.5992 26.5239 6.1492 26.5239 5.6592V1.3692C26.5239 0.6192 25.9539 -0.0008 25.1839 -0.0008H22.1439C21.3939 -0.0008 20.7939 0.6192 20.7939 1.3692V5.6592C20.7939 6.1492 21.0839 6.5992 21.5639 6.8392L22.9139 7.5292V9.2192C22.8339 9.2692 22.7539 9.3192 22.6839 9.4092L19.3439 12.7192L16.0139 9.3492C15.3539 8.6792 14.3139 8.2692 13.2739 8.2692H4.2939C3.6739 8.2692 3.1739 8.6392 2.9539 9.2392L0.8039 15.6992C0.4739 16.6892 1.0539 17.3792 1.7539 17.5392C2.3939 17.7192 3.1539 17.4492 3.4639 16.5692L5.3039 11.0692H8.2739C8.5439 11.0692 8.7339 11.3192 8.6439 11.5892L6.8239 17.0592C6.2239 18.8392 6.7639 20.5492 8.7639 21.4192L14.6039 23.9792L16.5739 30.8892C16.8139 31.7492 17.6139 32.0092 18.2839 31.8292C18.9639 31.6492 19.5239 31.0192 19.2639 30.1092L17.1039 22.5592C16.9839 22.1592 16.7939 21.8792 16.3239 21.6692L11.7739 19.6592L14.1939 12.3692C14.3039 12.0692 14.6539 11.9592 14.8939 12.1992L18.3439 15.6992C18.8939 16.2392 19.7939 16.2392 20.3439 15.6992L24.6639 11.3892C25.2239 10.8192 25.2239 9.9692 24.6639 9.4092ZM13.2739 6.8392C14.9339 6.8392 16.2539 5.5092 16.2539 3.8592C16.2539 2.1992 14.9339 0.8592 13.2739 0.8592C11.6239 0.8592 10.2839 2.1992 10.2839 3.8592C10.2839 5.5092 11.6239 6.8392 13.2739 6.8392ZM7.2839 22.1092L6.6039 25.9892L0.7239 29.2692C-0.1061 29.7392 -0.1461 30.6092 0.2339 31.2292C0.5839 31.7992 1.3239 32.1592 2.1039 31.7192L8.5739 28.1392C8.9739 27.9092 9.1039 27.6492 9.2439 27.2192L10.4639 23.5992L8.2339 22.6292C7.8939 22.4792 7.5739 22.2992 7.2839 22.1092Z"
        fillRule="evenodd"
        clipRule="evenodd"
    />
</svg>
        