
<svg
    viewBox="0 0 27.890625 27.890625"
    xmlns="http://www.w3.org/2000/svg"
>
    <path
        fill="inherit"
        d="M13.9427 27.8864C21.6427 27.8864 27.8927 21.6264 27.8927 13.9464C27.8927 6.2464 21.6427 -0.0036 13.9427 -0.0036C6.2627 -0.0036 0.0027 6.2464 0.0027 13.9464C0.0027 21.6264 6.2627 27.8864 13.9427 27.8864ZM19.3027 10.4564C18.3427 10.4564 17.5927 9.6964 17.5927 8.7464C17.5927 7.8064 18.3427 7.0664 19.3027 7.0664C20.2327 7.0664 21.0027 7.8064 21.0027 8.7464C21.0027 9.6964 20.2327 10.4564 19.3027 10.4564ZM5.6027 18.4464C5.0327 18.5964 4.6527 18.2064 4.5927 17.8164C4.5227 17.4464 4.7327 17.0464 5.2527 16.9164L10.2027 15.6664V13.8064C10.2027 13.0664 10.7427 12.7564 11.4327 12.9064L14.7527 13.5764L17.0127 11.8764C17.5527 11.4564 18.2127 11.2564 18.9127 11.2564H19.6027C20.2027 11.2564 20.7427 11.5764 21.0127 12.1264L22.3827 14.8464C22.4327 14.9564 22.4527 15.0764 22.4527 15.2164V18.3764C22.4527 18.8364 22.1327 19.1364 21.6727 19.1364C21.2027 19.1364 20.8627 18.8364 20.8627 18.3764V15.3964L20.0127 13.6764C19.9627 13.5464 19.8127 13.5364 19.7027 13.6064L16.8327 15.7664C16.3127 16.1564 15.7227 16.4064 15.1227 16.5164L11.7827 17.0064V18.3764C11.7827 18.8164 11.4127 19.1364 10.9827 19.1364C10.5527 19.1364 10.2027 18.8164 10.2027 18.3764V17.2964ZM11.7827 15.2864L12.8627 15.0164L11.7827 14.6864ZM15.5427 19.1364C14.8727 19.1364 14.3527 18.6164 14.3527 17.9664C14.3527 17.3064 14.8727 16.7764 15.5427 16.7764H18.7027C19.3427 16.7764 19.8827 17.3064 19.8827 17.9664C19.8827 18.6164 19.3427 19.1364 18.7027 19.1364ZM18.6927 18.4864C18.9727 18.4864 19.2127 18.2364 19.2127 17.9664C19.2127 17.6764 18.9727 17.4464 18.6927 17.4464C18.4027 17.4464 18.1727 17.6764 18.1727 17.9664C18.1727 18.2364 18.4027 18.4864 18.6927 18.4864Z"
        fillRule="evenodd"
        clipRule="evenodd"
    />
</svg>
        