
<svg
    viewBox={0 0 26.214217280287755 27.553104550184447}
    xmlns="http://www.w3.org/2000/svg"
>
    <path
        fill="inherit"
        d="M21.33 -0.0009C20.67 -0.0009 20.17 0.5091 20.17 1.1591V7.4491H17.69C16.52 7.4491 16.12 8.6291 16.83 9.4191L20.49 13.5591C21.01 14.1391 21.7 14.1191 22.19 13.5591L25.85 9.4191C26.61 8.5891 26.11 7.4491 24.99 7.4491H22.49V1.1591C22.49 0.5091 21.98 -0.0009 21.33 -0.0009ZM3.68 7.4791C5.76 7.4791 7.4 5.8291 7.4 3.7891C7.4 1.7191 5.76 0.0591 3.68 0.0591C1.64 0.0591 0 1.7191 0 3.7891C0 5.7691 1.64 7.4791 3.68 7.4791ZM25.72 27.0391C26.36 26.3891 26.44 25.2891 25.59 24.4191L19.48 18.0991C18.2 16.7591 16.84 16.5691 15.23 17.1591L11.96 18.3491L8.13 11.3591C6.97 9.2191 4.96 8.4191 3.04 9.4791C1.04 10.5391 0.68 12.6991 1.83 14.7891L4.79 20.1691C6.07 22.5191 8.86 23.4891 11.81 22.3491L16.41 20.6191C16.71 20.4991 16.84 20.5491 17.04 20.7491L22.91 26.8291C23.79 27.7291 25.01 27.7791 25.72 27.0391Z"
        fillRule="evenodd"
        clipRule="evenodd"
    />
</svg>
        