
<svg
    viewBox="0 0 40.26342940203161 27.85903030972104"
    xmlns="http://www.w3.org/2000/svg"
>
    <path
        fill="inherit"
        d="M17.8137 12.095C18.3637 12.095 18.8137 11.655 18.8137 11.075V5.745H21.0237C22.0537 5.745 22.4037 4.735 21.7837 4.035L18.5437 0.375C18.0837 -0.135 17.5137 -0.115 17.0637 0.375L13.8237 4.035C13.1637 4.765 13.6037 5.745 14.5737 5.745H16.8037V11.075C16.8037 11.655 17.2437 12.095 17.8137 12.095ZM3.6937 7.785C5.7537 7.785 7.4137 6.135 7.4137 4.095C7.4137 2.025 5.7537 0.365 3.6937 0.365C1.6437 0.365 0.0037 2.025 0.0037 4.095C0.0037 6.075 1.6437 7.785 3.6937 7.785ZM28.8037 12.285C29.2737 12.855 30.1337 12.225 29.6837 11.635C29.3637 11.205 29.2837 10.995 29.2837 10.645C29.2837 10.095 29.6837 9.785 29.9837 9.345C30.6937 9.065 31.5237 8.895 32.2537 8.855C32.3737 8.675 32.4537 8.495 32.4537 8.275C32.4537 7.515 31.4337 7.195 31.4337 5.875C31.4337 5.325 31.6137 4.805 32.0237 4.255C32.4937 3.685 33.3737 4.295 32.9037 4.895C32.5937 5.325 32.5137 5.555 32.5137 5.875C32.5137 6.805 33.5537 7.055 33.5537 8.275C33.5537 8.535 33.5137 8.745 33.4237 8.935C34.0037 9.015 34.5737 9.175 35.0837 9.385C34.8637 9.695 34.6537 10.085 34.6537 10.645C34.6537 11.205 34.8337 11.725 35.2737 12.285C35.7337 12.855 36.5837 12.225 36.1337 11.635C35.8437 11.205 35.7537 10.995 35.7537 10.645C35.7537 10.085 36.1637 9.765 36.4637 9.305L40.0337 4.765C40.3837 4.285 40.3337 3.805 39.8837 3.455C38.3637 2.285 35.5037 1.395 32.4737 1.395C29.4737 1.395 26.5937 2.285 25.0837 3.455C24.6337 3.805 24.5837 4.285 24.9537 4.765L28.6037 9.425C28.3837 9.725 28.2037 10.105 28.2037 10.645C28.2037 11.205 28.3837 11.725 28.8037 12.285ZM28.6537 9.505L28.6037 9.425C28.8937 9.005 29.2437 8.715 29.2437 8.275C29.2437 7.515 28.2037 7.195 28.2037 5.875C28.2037 5.325 28.3837 4.805 28.8037 4.255C29.2837 3.685 30.1437 4.295 29.6837 4.895C29.3637 5.325 29.2837 5.555 29.2837 5.875C29.2837 6.805 30.3237 7.055 30.3237 8.275C30.3237 8.745 30.1737 9.065 29.9837 9.345C29.7537 9.425 29.5137 9.535 29.3237 9.635C29.0837 9.765 28.8337 9.725 28.6537 9.505ZM35.6337 9.635C35.4637 9.545 35.2737 9.465 35.0837 9.385C35.3737 8.985 35.6937 8.705 35.6937 8.275C35.6937 7.515 34.6537 7.195 34.6537 5.875C34.6537 5.325 34.8337 4.805 35.2737 4.255C35.7337 3.685 36.6037 4.295 36.1337 4.895C35.8437 5.325 35.7537 5.555 35.7537 5.875C35.7537 6.805 36.7737 7.055 36.7737 8.275C36.7737 8.715 36.6437 9.045 36.4637 9.305L36.3037 9.505C36.1437 9.725 35.8737 9.765 35.6337 9.635ZM32.0237 12.285C32.4837 12.855 33.3637 12.225 32.9037 11.635C32.5937 11.205 32.5137 10.995 32.5137 10.645C32.5137 9.945 33.1537 9.615 33.4237 8.935C33.1037 8.875 32.7737 8.855 32.4737 8.855C32.4037 8.855 32.3237 8.855 32.2537 8.855C31.9537 9.305 31.4337 9.725 31.4337 10.645C31.4337 11.205 31.6137 11.725 32.0237 12.285ZM25.7137 27.345C26.3637 26.695 26.4437 25.595 25.5937 24.725L19.4837 18.405C18.1937 17.065 16.8437 16.875 15.2337 17.465L11.9737 18.655L8.1337 11.665C6.9737 9.525 4.9737 8.725 3.0337 9.785C1.0537 10.845 0.6837 13.005 1.8337 15.095L4.7837 20.475C6.0837 22.825 8.8637 23.795 11.8137 22.655L16.4037 20.925C16.7037 20.805 16.8437 20.855 17.0337 21.055L22.9237 27.135C23.7937 28.035 25.0037 28.085 25.7137 27.345Z"
        fillRule="evenodd"
        clipRule="evenodd"
    />
</svg>
        