
<svg
    viewBox={0 0 27.890625 27.890625}
    xmlns="http://www.w3.org/2000/svg"
>
    <path
        fill="inherit"
        d="M13.9427 27.8864C21.6427 27.8864 27.8927 21.6464 27.8927 13.9464C27.8927 6.2464 21.6427 -0.0036 13.9427 -0.0036C6.2527 -0.0036 0.0027 6.2464 0.0027 13.9464C0.0027 21.6464 6.2527 27.8864 13.9427 27.8864ZM13.9427 25.5664C7.5227 25.5664 2.3227 20.3664 2.3227 13.9464C2.3227 7.5164 7.5227 2.3264 13.9427 2.3264C20.3727 2.3264 25.5627 7.5164 25.5627 13.9464C25.5627 20.3664 20.3727 25.5664 13.9427 25.5664ZM13.9327 10.4164C14.8327 10.4164 15.5727 9.6664 15.5727 8.7464C15.5727 7.8564 14.8327 7.1064 13.9327 7.1064C13.0127 7.1064 12.2727 7.8564 12.2727 8.7464C12.2727 9.6664 13.0127 10.4164 13.9327 10.4164ZM6.9027 17.3864L10.7027 17.7164C11.3727 17.7764 11.5227 17.8164 12.1727 17.9964L16.7927 19.3064L20.4427 20.6464C20.7927 20.7664 21.3027 20.6464 21.4327 20.1964C21.5627 19.7864 21.3727 19.3364 20.9827 19.1964L17.3327 17.8664C17.2627 17.8564 17.1327 17.7864 17.0727 17.7764L13.8627 16.5964C14.2827 15.7764 14.8627 14.4664 15.0127 13.0264C15.0227 12.8664 15.1327 12.7664 15.3027 12.7664H20.8227C21.2627 12.7664 21.5927 12.4264 21.5927 12.0064C21.5927 11.5764 21.2627 11.2364 20.8227 11.2364H14.7527C13.7427 11.2364 13.6427 11.2264 12.5327 10.9264L6.7827 9.3364C6.3827 9.2264 5.9627 9.4564 5.8427 9.8864C5.7127 10.2764 5.9627 10.7064 6.3827 10.8264L11.7327 12.3064C11.8627 12.3464 11.9627 12.4364 11.9527 12.6064C11.7727 13.9564 11.1127 15.2764 10.7627 15.8564H7.7427V12.7664C7.7427 12.3564 7.3827 12.0064 6.9727 12.0064C6.5327 12.0064 6.1927 12.3564 6.1927 12.7664V16.6264C6.1927 17.0664 6.4027 17.3664 6.9027 17.3864Z"
        fillRule="evenodd"
        clipRule="evenodd"
    />
</svg>
        