
<svg
    viewBox={0 0 26.21079739825147 27.498417050184447}
    xmlns="http://www.w3.org/2000/svg"
>
    <path
        fill="inherit"
        d="M22.5318 7.4244C24.5818 7.4244 26.2118 5.7144 26.2118 3.7344C26.2118 1.6644 24.5818 0.0044 22.5318 0.0044C20.4718 0.0044 18.8118 1.6644 18.8118 3.7344C18.8118 5.7744 20.4718 7.4244 22.5318 7.4244ZM0.5118 26.9844C1.2018 27.7244 2.4218 27.6744 3.2918 26.7744L9.1718 20.6944C9.3718 20.4944 9.5218 20.4444 9.8218 20.5644L14.4118 22.2944C17.3618 23.4344 20.1418 22.4644 21.4418 20.1144L24.3918 14.7344C25.5418 12.6444 25.1718 10.4844 23.1718 9.4244C21.2518 8.3644 19.2518 9.1644 18.0718 11.3044L14.2518 18.2944L10.9818 17.1044C9.3718 16.5144 8.0318 16.7044 6.7418 18.0444L0.6318 24.3644C-0.2282 25.2344 -0.1482 26.3344 0.5118 26.9844Z"
        fillRule="evenodd"
        clipRule="evenodd"
    />
</svg>
        