
<svg
    viewBox={0 0 39.115234375 30.146484375}
    xmlns="http://www.w3.org/2000/svg"
>
    <path
        fill="inherit"
        d="M11.8637 5.9438C13.5237 5.9438 14.8437 4.6238 14.8437 2.9838C14.8437 1.3238 13.5237 0.0038 11.8637 0.0038C10.2137 0.0038 8.8837 1.3238 8.8837 2.9838C8.8837 4.6238 10.2137 5.9438 11.8637 5.9438ZM27.2337 5.9438C28.8737 5.9438 30.2037 4.6238 30.2037 2.9838C30.2037 1.3238 28.8737 0.0038 27.2337 0.0038C25.5837 0.0038 24.2537 1.3238 24.2537 2.9838C24.2537 4.6238 25.5837 5.9438 27.2337 5.9438ZM11.8537 18.7838C12.4437 18.7838 12.6837 19.1438 12.9837 20.1538C13.4137 21.5038 14.8637 27.2438 15.2737 28.9438C15.4737 29.7938 15.9237 30.1438 16.5737 30.1438C17.4437 30.1438 17.9637 29.3538 17.7337 28.4938C17.6537 28.1238 15.6437 19.8338 15.3837 18.1338C15.1237 16.3838 15.0937 12.5638 15.1037 11.4738C15.1337 10.5238 15.5537 10.0738 16.3937 9.9438C17.1837 9.8038 18.4437 9.7338 19.5637 9.7438C20.7237 9.7438 21.9337 9.8038 22.7337 9.9438C23.5737 10.0738 23.9937 10.5238 24.0037 11.4738C24.0337 12.5638 23.9937 16.3838 23.7037 18.1338C23.4337 19.8338 21.4537 28.1238 21.3437 28.4938C21.1137 29.3538 21.6537 30.1438 22.5137 30.1438C23.1637 30.1438 23.5937 29.7938 23.8337 28.9438C24.2837 27.2638 25.6937 21.5338 26.1237 20.1538C26.4537 19.1638 26.6737 18.7838 27.2337 18.7838C27.8037 18.7838 28.0637 19.1438 28.3737 20.1538C28.7837 21.5038 30.2437 27.2438 30.6537 28.9438C30.8537 29.7938 31.3237 30.1438 31.9537 30.1438C32.8237 30.1438 33.3437 29.3538 33.1137 28.4938C33.0137 28.1238 31.0237 19.8338 30.7437 18.1338C30.4837 16.3838 30.4837 12.5638 30.5037 11.3838C30.5037 10.5638 30.8537 10.0438 31.5437 9.8938C32.1837 9.7438 37.4037 9.1838 38.1337 8.9538C38.7037 8.7738 39.1137 8.2938 39.1137 7.6738C39.1137 6.8738 38.5037 6.3938 37.9537 6.3938C37.7237 6.3938 37.5037 6.4538 37.2437 6.5038C35.1237 6.8938 30.5137 7.2638 27.2337 7.3838C24.4437 7.4638 21.4737 7.5338 19.6237 7.5338C17.7337 7.5338 14.6937 7.4638 11.8537 7.3838C8.6137 7.2838 3.9637 6.9138 1.8337 6.5038C1.6137 6.4538 1.3637 6.3938 1.1637 6.3938C0.5637 6.3938 0.0037 6.8738 0.0037 7.6738C0.0037 8.2938 0.3837 8.8338 0.9737 8.9538C1.7237 9.1238 6.9137 9.7738 7.5637 9.8938C8.2137 10.0238 8.6137 10.5638 8.6437 11.3838C8.6537 12.5638 8.6137 16.3838 8.3237 18.1338C8.0537 19.8338 6.0737 28.1238 5.9737 28.4938C5.7237 29.3538 6.2737 30.1438 7.1337 30.1438C7.7837 30.1438 8.2337 29.7938 8.4637 28.9438C8.9137 27.2638 10.3037 21.5338 10.7637 20.1538C11.0837 19.1638 11.2937 18.7838 11.8537 18.7838Z"
        fillRule="evenodd"
        clipRule="evenodd"
    />
</svg>
        