
<svg
    viewBox={0 0 40.26342940203161 27.853885800184447}
    xmlns="http://www.w3.org/2000/svg"
>
    <path
        fill="inherit"
        d="M17.8137 -0.0002C17.2437 -0.0002 16.8037 0.4398 16.8037 1.0098V6.3298H14.5737C13.6037 6.3298 13.1637 7.3298 13.8237 8.0498L17.0637 11.7198C17.5137 12.2098 18.0837 12.2098 18.5437 11.7198L21.7837 8.0498C22.4037 7.3598 22.0537 6.3298 21.0237 6.3298H18.8137V1.0098C18.8137 0.4398 18.3637 -0.0002 17.8137 -0.0002ZM3.6937 7.7798C5.7537 7.7798 7.4137 6.1298 7.4137 4.0898C7.4137 2.0198 5.7537 0.3598 3.6937 0.3598C1.6437 0.3598 0.0037 2.0198 0.0037 4.0898C0.0037 6.0698 1.6437 7.7798 3.6937 7.7798ZM28.8037 12.2798C29.2737 12.8498 30.1337 12.2198 29.6837 11.6298C29.3637 11.1998 29.2837 10.9898 29.2837 10.6398C29.2837 10.0898 29.6837 9.7798 29.9837 9.3398C30.6937 9.0598 31.5237 8.8898 32.2537 8.8498C32.3737 8.6698 32.4537 8.4898 32.4537 8.2698C32.4537 7.5098 31.4337 7.1898 31.4337 5.8698C31.4337 5.3198 31.6137 4.7998 32.0237 4.2498C32.4937 3.6798 33.3737 4.2898 32.9037 4.8898C32.5937 5.3198 32.5137 5.5498 32.5137 5.8698C32.5137 6.7998 33.5537 7.0498 33.5537 8.2698C33.5537 8.5298 33.5137 8.7398 33.4237 8.9298C34.0037 9.0098 34.5737 9.1698 35.0837 9.3798C34.8637 9.6898 34.6537 10.0798 34.6537 10.6398C34.6537 11.1998 34.8337 11.7198 35.2737 12.2798C35.7337 12.8498 36.5837 12.2198 36.1337 11.6298C35.8437 11.1998 35.7537 10.9898 35.7537 10.6398C35.7537 10.0798 36.1637 9.7598 36.4637 9.2998L40.0337 4.7598C40.3837 4.2798 40.3337 3.7998 39.8837 3.4498C38.3637 2.2798 35.5037 1.3898 32.4737 1.3898C29.4737 1.3898 26.5937 2.2798 25.0837 3.4498C24.6337 3.7998 24.5837 4.2798 24.9537 4.7598L28.6037 9.4198C28.3837 9.7198 28.2037 10.0998 28.2037 10.6398C28.2037 11.1998 28.3837 11.7198 28.8037 12.2798ZM28.6537 9.4998L28.6037 9.4198C28.8937 8.9998 29.2437 8.7098 29.2437 8.2698C29.2437 7.5098 28.2037 7.1898 28.2037 5.8698C28.2037 5.3198 28.3837 4.7998 28.8037 4.2498C29.2837 3.6798 30.1437 4.2898 29.6837 4.8898C29.3637 5.3198 29.2837 5.5498 29.2837 5.8698C29.2837 6.7998 30.3237 7.0498 30.3237 8.2698C30.3237 8.7398 30.1737 9.0598 29.9837 9.3398C29.7537 9.4198 29.5137 9.5298 29.3237 9.6298C29.0837 9.7598 28.8337 9.7198 28.6537 9.4998ZM35.6337 9.6298C35.4637 9.5398 35.2737 9.4598 35.0837 9.3798C35.3737 8.9798 35.6937 8.6998 35.6937 8.2698C35.6937 7.5098 34.6537 7.1898 34.6537 5.8698C34.6537 5.3198 34.8337 4.7998 35.2737 4.2498C35.7337 3.6798 36.6037 4.2898 36.1337 4.8898C35.8437 5.3198 35.7537 5.5498 35.7537 5.8698C35.7537 6.7998 36.7737 7.0498 36.7737 8.2698C36.7737 8.7098 36.6437 9.0398 36.4637 9.2998L36.3037 9.4998C36.1437 9.7198 35.8737 9.7598 35.6337 9.6298ZM32.0237 12.2798C32.4837 12.8498 33.3637 12.2198 32.9037 11.6298C32.5937 11.1998 32.5137 10.9898 32.5137 10.6398C32.5137 9.9398 33.1537 9.6098 33.4237 8.9298C33.1037 8.8698 32.7737 8.8498 32.4737 8.8498C32.4037 8.8498 32.3237 8.8498 32.2537 8.8498C31.9537 9.2998 31.4337 9.7198 31.4337 10.6398C31.4337 11.1998 31.6137 11.7198 32.0237 12.2798ZM25.7137 27.3398C26.3637 26.6898 26.4437 25.5898 25.5937 24.7198L19.4837 18.3998C18.1937 17.0598 16.8437 16.8698 15.2337 17.4598L11.9737 18.6498L8.1337 11.6598C6.9737 9.5198 4.9737 8.7198 3.0337 9.7798C1.0537 10.8398 0.6837 12.9998 1.8337 15.0898L4.7837 20.4698C6.0837 22.8198 8.8637 23.7898 11.8137 22.6498L16.4037 20.9198C16.7037 20.7998 16.8437 20.8498 17.0337 21.0498L22.9237 27.1298C23.7937 28.0298 25.0037 28.0798 25.7137 27.3398Z"
        fillRule="evenodd"
        clipRule="evenodd"
    />
</svg>
        