<svg viewBox="0 0 27.890625 27.890625" xmlns="http://www.w3.org/2000/svg"><path d="M13.9427 27.8864C21.6427 27.8864 27.8927 21.6264 27.8927 13.9464C27.8927 6.2464 21.6427 -0.0036 13.9427 -0.0036C6.2627 -0.0036 0.0027 6.2464 0.0027 13.9464C0.0027 21.6264 6.2627 27.8864 13.9427 27.8864ZM16.7227 9.1364C15.7627 9.1364 15.0127 8.3764 15.0127 7.4364C15.0127 6.4764 15.7627 5.7264 16.7227 5.7264C17.6527 5.7264 18.4127 6.4764 18.4127 7.4364C18.4127 8.3764 17.6527 9.1364 16.7227 9.1364ZM10.6227 19.3364C10.2227 19.0864 10.1327 18.5664 10.3527 18.1864L11.7827 15.8864C10.0127 15.6864 9.2327 13.7764 10.1827 12.3464L11.9627 9.7064C12.0427 9.5464 12.0027 9.3664 11.8427 9.2864L10.4227 8.4364H7.3827C6.9327 8.4364 6.5627 8.0564 6.5627 7.6064C6.5627 7.1664 6.9327 6.8064 7.3827 6.8064H10.6627C10.8027 6.8064 10.9227 6.8064 11.0727 6.9064L21.2627 13.0264C21.6427 13.2664 21.7627 13.7564 21.5427 14.1664C21.3327 14.5364 20.7927 14.6564 20.4227 14.4264L15.2627 11.3164C15.1527 11.2564 14.9527 11.2764 14.8627 11.4064L13.4627 13.5364C13.3027 13.7964 13.4227 14.1264 13.7527 14.1664L17.1427 14.5364C17.8927 14.6464 18.1727 15.2964 17.8427 15.8364L15.8227 19.0564C15.5727 19.4364 15.1027 19.5364 14.7127 19.3364C14.3127 19.0964 14.2027 18.5664 14.4327 18.1864L15.7527 16.1064L13.6627 16.0064L11.7627 19.0564C11.5227 19.4264 10.9927 19.5364 10.6227 19.3364ZM8.5327 21.2064C7.6727 21.2064 6.9427 21.0364 6.3727 20.5464C6.1127 20.3164 6.1427 19.9864 6.3027 19.8064C6.4827 19.6564 6.7227 19.6064 7.0127 19.7864C7.3927 20.0964 7.8227 20.2464 8.5327 20.2464H19.3027C20.0127 20.2464 20.4527 20.1064 20.8527 19.7864C21.1327 19.5764 21.4227 19.6564 21.5427 19.8564C21.7127 20.0464 21.7227 20.3164 21.4827 20.5464C20.9027 21.0364 20.1827 21.2064 19.3027 21.2064Z" /></svg>