
<svg
    viewBox="0 0 26.44768545575603 25.88149491386187"
    xmlns="http://www.w3.org/2000/svg"
>
    <path
        fill="inherit"
        d="M0.0411 12.5211L0.8311 17.4111C1.1411 19.2211 3.6111 18.8511 3.3211 17.0611L2.6211 12.8311L5.4011 11.7511C5.8211 11.5911 6.1911 11.6411 6.3711 12.0411L8.9211 17.1011C9.6911 18.6211 10.3211 19.0811 10.9511 19.5311L19.1911 25.5911C20.6411 26.6511 22.3811 24.5511 20.7511 23.3511L14.3411 18.6411C14.0211 18.4111 14.0511 17.9911 14.3911 17.8011L18.7511 15.2811L24.4711 18.0111C26.1111 18.7811 27.4111 16.5011 25.4911 15.5811L19.4011 12.6811C18.6411 12.3311 17.9511 12.4411 17.3511 12.7911L14.4711 14.4711C14.0911 14.6911 13.8211 14.5811 13.6811 14.3011L11.3711 9.5911C11.1511 9.1511 11.2111 8.7311 11.6911 8.5011L13.7911 7.5411C14.4911 7.2111 14.7511 6.9811 14.9411 6.3111L16.2811 1.6811C16.7711 -0.0689 14.4211 -0.7189 13.9111 1.0311L12.6211 5.5711L0.9711 10.7011C0.1711 11.0411 -0.1089 11.6411 0.0411 12.5211ZM5.3711 6.7811C7.0211 6.7811 8.3511 5.4511 8.3511 3.8011C8.3511 2.1511 7.0211 0.8111 5.3711 0.8111C3.7211 0.8111 2.3911 2.1511 2.3911 3.8011C2.3911 5.4511 3.7211 6.7811 5.3711 6.7811Z"
        fillRule="evenodd"
        clipRule="evenodd"
    />
</svg>
        