<svg viewBox="0 0 27.890625 27.890625" xmlns="http://www.w3.org/2000/svg"><path d="M13.9427 27.8864C21.6427 27.8864 27.8927 21.6264 27.8927 13.9464C27.8927 6.2464 21.6427 -0.0036 13.9427 -0.0036C6.2627 -0.0036 0.0027 6.2464 0.0027 13.9464C0.0027 21.6264 6.2627 27.8864 13.9427 27.8864ZM6.4527 11.0764L8.5427 7.4064C8.1927 7.0964 7.9527 6.6464 7.9527 6.1364C7.9527 5.1964 8.7227 4.4464 9.6827 4.4464C10.6127 4.4464 11.3727 5.1964 11.3727 6.1364C11.3727 7.0864 10.6127 7.8464 9.6827 7.8464C9.5727 7.8464 9.4427 7.8364 9.3227 7.8064L7.6427 10.7764C7.7427 10.8464 7.8327 10.9064 7.9127 11.0064L9.7927 12.8964L20.8727 7.3464C21.2827 7.1364 21.7627 7.2964 21.9727 7.6964C22.1727 8.0964 22.0227 8.5964 21.6027 8.8064L16.5827 11.3064C16.3827 11.4064 16.3127 11.5664 16.3827 11.8664L18.5527 20.5364C18.6627 20.9464 18.5027 21.3264 18.1327 21.5564L14.5627 23.9264C14.1627 24.1864 13.6727 24.0864 13.4227 23.7064C13.1827 23.3364 13.2927 22.8164 13.6427 22.5764L16.8027 20.4964L15.9127 18.1664C15.8627 18.0364 15.7327 18.0364 15.6727 18.1564L14.0127 21.1864C13.8527 21.4764 13.5627 21.6264 13.2527 21.6264H9.6227C9.1727 21.6264 8.8027 21.2764 8.8027 20.8264C8.8027 20.3464 9.1727 20.0064 9.6227 20.0064H12.7327L14.0827 16.6764L13.2327 13.3464C13.2027 13.1764 13.0327 13.0864 12.8227 13.1964L10.0527 14.5764C9.6527 14.7764 9.2527 14.6664 9.0527 14.4364L6.5927 12.0064C6.3327 11.7264 6.2727 11.3864 6.4527 11.0764ZM8.8427 6.1364C8.8427 6.6164 9.2027 6.9764 9.6827 6.9764C10.1627 6.9764 10.5027 6.6164 10.5027 6.1364C10.5027 5.6764 10.1627 5.3164 9.6827 5.3164C9.2027 5.3164 8.8427 5.6764 8.8427 6.1364ZM13.7227 9.8064C12.7827 9.8064 12.0327 9.0464 12.0327 8.1164C12.0327 7.1764 12.7827 6.4264 13.7227 6.4264C14.6727 6.4264 15.4227 7.1764 15.4227 8.1164C15.4227 9.0464 14.6727 9.8064 13.7227 9.8064Z" /></svg>