
<svg
    viewBox="0 0 28.68767346405525 28.25046732827793"
    xmlns="http://www.w3.org/2000/svg"
>
    <path
        fill="inherit"
        d="M18.4337 5.2664C18.9637 5.4964 19.3837 5.1864 19.2937 4.5764L18.7537 0.6164C18.6737 0.0564 18.1537 -0.1736 17.7037 0.1464L14.3937 2.4364C13.8937 2.7864 14.0037 3.3264 14.4937 3.5364ZM3.6937 8.1764C5.7537 8.1764 7.4137 6.5264 7.4137 4.4864C7.4137 2.4164 5.7537 0.7564 3.6937 0.7564C1.6437 0.7564 0.0037 2.4164 0.0037 4.4864C0.0037 6.4664 1.6437 8.1764 3.6937 8.1764ZM23.0937 5.6164C23.3137 5.1864 23.1037 4.6464 22.6537 4.4464C22.2137 4.2364 21.6837 4.4264 21.4637 4.8664L18.1137 12.0564C17.9137 12.4964 18.1037 13.0264 18.5537 13.2364C19.0037 13.4364 19.5337 13.2464 19.7437 12.7964L20.1837 11.8964L24.4037 12.1264L26.3437 13.0564C27.4137 13.5664 28.2337 13.1264 28.5437 12.4164C28.8737 11.7164 28.6437 10.8264 27.7137 10.3864L25.3737 9.2464L22.7237 6.4164ZM16.7037 8.9564L12.7837 7.2364C12.2537 6.9964 11.8037 7.2864 11.8937 7.9164L12.4537 11.8764C12.5237 12.4264 13.0337 12.6764 13.4837 12.3564L16.7937 10.0764C17.2937 9.7064 17.2237 9.1764 16.7037 8.9564ZM25.7137 27.7364C26.3637 27.0864 26.4437 25.9864 25.5937 25.1164L19.4837 18.7964C18.1937 17.4564 16.8437 17.2664 15.2337 17.8564L11.9737 19.0464L8.1337 12.0564C6.9737 9.9164 4.9737 9.1164 3.0337 10.1764C1.0537 11.2364 0.6837 13.3964 1.8337 15.4864L4.7837 20.8664C6.0837 23.2164 8.8637 24.1864 11.8137 23.0464L16.4037 21.3164C16.7037 21.1964 16.8437 21.2464 17.0337 21.4464L22.9237 27.5264C23.7937 28.4264 25.0037 28.4764 25.7137 27.7364Z"
        fillRule="evenodd"
        clipRule="evenodd"
    />
</svg>
        