<svg viewBox="0 0 26.456148399879655 32.6595209054434" xmlns="http://www.w3.org/2000/svg"><path d="M24.8947 10.6895C24.8947 13.6995 24.3047 16.5095 22.8347 20.2695C22.6647 20.7095 22.8447 21.1495 23.2247 21.3095C23.6447 21.4795 24.0547 21.3295 24.2547 20.9195C25.8247 17.4595 26.4547 14.4895 26.4547 10.6895C26.4547 7.0095 25.8247 4.0295 24.2447 0.4595C24.0547 0.0495 23.6447 -0.1005 23.2247 0.0695C22.8347 0.2295 22.6647 0.6695 22.8347 1.0995C24.3047 4.8895 24.8947 7.6895 24.8947 10.6895ZM11.4447 7.8195C13.0947 7.8195 14.4347 6.4795 14.4347 4.8495C14.4347 3.2095 13.0947 1.8695 11.4447 1.8695C9.8047 1.8695 8.4747 3.2095 8.4747 4.8495C8.4747 6.4795 9.8047 7.8195 11.4447 7.8195ZM22.0447 9.2495H7.4547C7.7347 8.9495 7.8247 8.5095 7.7247 8.1295C7.5447 7.4995 6.9447 6.9795 5.9347 7.2195L1.9047 8.1495C-0.6953 8.7495 -0.6253 12.0795 2.0747 12.0795H6.4847C6.8747 12.0795 7.1947 12.4095 7.1947 12.8095V18.5795L2.9647 22.7695C2.3947 23.3495 2.0147 23.9395 1.7747 24.8295L0.1747 30.8295C-0.0953 31.8495 0.5047 32.4995 1.2147 32.5995C1.9047 32.7295 2.6547 32.3995 2.8847 31.5495L4.4047 25.9195C4.5547 25.3895 4.6647 25.1695 5.0747 24.8295L8.3847 21.9995C9.0547 21.4495 10.1847 21.5395 10.6547 22.3495L12.6647 25.8495L15.8447 31.8495C16.3147 32.7395 17.3047 32.8395 17.9547 32.4295C18.5147 32.0595 18.7447 31.3095 18.3347 30.5395L15.1347 24.4395L13.3147 20.2995C13.0147 19.5995 12.8547 18.8395 12.8547 18.0395V12.8095C12.8547 12.4095 13.1647 12.0795 13.5747 12.0795H22.0447C22.8347 12.0795 23.4647 11.4495 23.4647 10.6895C23.4647 9.8995 22.8347 9.2495 22.0447 9.2495Z" /></svg>