
<svg
    viewBox="0 0 27.890625 27.890625"
    xmlns="http://www.w3.org/2000/svg"
>
    <path
        fill="inherit"
        d="M13.9437 27.8864C21.6437 27.8864 27.8937 21.6264 27.8937 13.9464C27.8937 6.2464 21.6437 -0.0036 13.9437 -0.0036C6.2637 -0.0036 0.0037 6.2464 0.0037 13.9464C0.0037 21.6264 6.2637 27.8864 13.9437 27.8864ZM17.1337 9.3064C16.1837 9.3064 15.4037 8.5564 15.4037 7.6164C15.4037 6.6764 16.1837 5.9064 17.1337 5.9064C18.0637 5.9064 18.8237 6.6764 18.8237 7.6164C18.8237 8.5564 18.0637 9.3064 17.1337 9.3064ZM10.7037 10.3764C10.2137 9.9164 10.4437 9.2964 10.9137 9.1364L12.5237 8.5264C13.2937 8.2264 14.2237 8.2964 14.8337 8.8764L18.0237 11.8264C18.2337 12.0164 18.3337 12.2064 18.3337 12.4264V15.6864L21.6537 18.6164C21.9737 18.9064 22.2837 18.7264 22.2837 18.4564V18.2264C22.2837 17.9664 22.4537 17.7764 22.7237 17.7764C23.0937 17.7564 23.3237 18.1264 23.3237 18.4664C23.3537 19.2064 22.8137 19.7464 22.0537 19.7664C21.6137 19.7664 21.2337 19.6164 20.9037 19.3164L17.8537 16.4764C17.7737 16.5164 17.6737 16.5564 17.5837 16.5564C17.1737 16.5564 16.8437 16.2164 16.8437 15.7864V15.5164L15.6537 14.4064C15.3837 14.5164 15.0637 14.4664 14.8437 14.2564ZM10.9537 20.3664C10.5837 20.1664 10.4137 19.7164 10.6337 19.3564L12.3337 16.2664L9.5337 14.0664C8.3037 13.0864 8.5737 11.5164 9.8737 10.8164L10.0737 10.7164C10.1437 10.7864 10.2137 10.8564 10.2837 10.9264L12.2737 12.7964L11.6237 13.1664L13.8237 15.5464C14.0437 15.7764 14.1137 16.1164 13.9437 16.3964L11.9537 20.0564C11.7137 20.4664 11.2237 20.5364 10.9537 20.3664ZM14.3937 11.7864L15.8737 13.1664C16.0337 13.3164 16.1237 13.5364 16.1037 13.7264L16.8437 14.3564V12.7664L15.4637 11.4964C15.3537 11.3864 15.1937 11.3764 15.0537 11.4464ZM4.2337 16.7464C4.2337 16.3064 4.5637 15.9864 4.9637 15.9864H8.0237L8.6137 14.1064C8.7237 14.2564 8.9037 14.4264 9.1037 14.5864L10.0737 15.3564L9.2137 17.0764C9.0937 17.2964 8.8437 17.4864 8.5437 17.4864H4.9637C4.5637 17.4864 4.2337 17.1264 4.2337 16.7464ZM17.3337 20.0464C17.3337 19.4664 17.7837 18.9864 18.3737 18.9864C18.9337 18.9864 19.4037 19.4664 19.4037 20.0464C19.4037 20.6064 18.9337 21.0664 18.3737 21.0664C17.7837 21.0664 17.3337 20.6064 17.3337 20.0464Z"
        fillRule="evenodd"
        clipRule="evenodd"
    />
</svg>
        