<svg viewBox="0 0 27.890625 27.890625" xmlns="http://www.w3.org/2000/svg"><path d="M13.9427 27.8864C21.6427 27.8864 27.8927 21.6264 27.8927 13.9464C27.8927 6.2464 21.6427 -0.0036 13.9427 -0.0036C6.2627 -0.0036 0.0027 6.2464 0.0027 13.9464C0.0027 21.6264 6.2627 27.8864 13.9427 27.8864ZM13.8727 7.7964C12.9227 7.7964 12.1727 7.0164 12.1727 6.0664C12.1727 5.1564 12.9227 4.3764 13.8727 4.3764C14.8027 4.3764 15.5727 5.1564 15.5727 6.0664C15.5727 7.0164 14.8027 7.7964 13.8727 7.7964ZM17.4427 22.9264C17.0127 22.9264 16.6427 22.5764 16.6427 22.1164V18.2264L12.9227 16.2264C12.2627 15.8864 11.8627 15.2064 11.8627 14.4764V13.3664H9.5827C8.9327 13.3664 8.5327 12.4964 9.0327 11.8764L11.1127 9.3364C11.4827 8.8764 11.9127 8.6164 12.6327 8.6164H21.4227C21.8627 8.6164 22.2027 8.9864 22.2027 9.3964C22.2027 9.8264 21.8627 10.1864 21.4227 10.1864H15.2427C15.1327 10.1864 15.0527 10.2764 15.0527 10.3864V15.2064L17.8827 17.0864C18.1327 17.2364 18.2527 17.5264 18.2527 17.7164V22.1164C18.2527 22.5764 17.8827 22.9264 17.4427 22.9264ZM11.0727 11.8364H11.9227V10.7764ZM8.4927 22.6564C8.2027 22.3264 8.2427 21.8064 8.5727 21.5164L11.5827 18.9064L12.2227 16.5864C12.2627 16.6264 12.4027 16.7064 12.6027 16.8164L13.8727 17.5164L13.0127 19.6364C12.9627 19.7864 12.9027 19.8564 12.7427 19.9864L9.6227 22.7064C9.2927 23.0264 8.7927 22.9864 8.4927 22.6564Z" /></svg>