<svg viewBox="0 0 27.890625 27.890625" xmlns="http://www.w3.org/2000/svg"><path d="M13.9427 27.8864C21.6427 27.8864 27.8927 21.6464 27.8927 13.9464C27.8927 6.2464 21.6427 -0.0036 13.9427 -0.0036C6.2527 -0.0036 0.0027 6.2464 0.0027 13.9464C0.0027 21.6464 6.2527 27.8864 13.9427 27.8864ZM13.9427 25.5664C7.5227 25.5664 2.3227 20.3664 2.3227 13.9464C2.3227 7.5164 7.5227 2.3264 13.9427 2.3264C20.3727 2.3264 25.5627 7.5164 25.5627 13.9464C25.5627 20.3664 20.3727 25.5664 13.9427 25.5664ZM14.6127 8.2864C15.5327 8.2864 16.2727 7.5364 16.2727 6.6164C16.2727 5.6964 15.5327 4.9664 14.6127 4.9664C13.6827 4.9664 12.9427 5.6964 12.9427 6.6164C12.9427 7.5364 13.6827 8.2864 14.6127 8.2864ZM16.4027 21.6964C16.9027 22.6864 18.3627 22.0764 17.8327 20.9964L16.2127 17.7164C16.0927 17.4864 15.9327 17.2164 15.7727 17.0064L14.7427 15.5264L14.8027 15.3264C15.0927 14.5064 15.2027 14.0164 15.2427 13.1964L15.4127 10.9264C15.4727 9.8164 14.8427 8.9964 13.7227 8.9964C12.8927 8.9964 12.3327 9.4164 11.5527 10.1764L10.3527 11.3564C9.9527 11.7564 9.8127 12.0864 9.7927 12.5764L9.6527 14.4664C9.6127 14.9264 9.8727 15.2564 10.3127 15.2764C10.7427 15.3164 11.0027 15.0564 11.0627 14.5464L11.2227 12.4864L11.8127 11.9764C12.0127 11.7864 12.3027 11.8964 12.2927 12.1264L12.1527 13.8664C12.0827 14.7264 12.3027 15.1664 12.8927 15.9164L14.5027 17.9264C14.6527 18.1164 14.6827 18.1964 14.7527 18.3364ZM19.1827 12.0964H17.3327L16.1727 10.8164L16.0527 12.7164L16.5127 13.1764C16.7727 13.4364 16.9927 13.5064 17.4627 13.5064H19.1827C19.6427 13.5064 19.9427 13.2464 19.9427 12.8064C19.9427 12.3764 19.6427 12.0964 19.1827 12.0964ZM10.6227 21.9264L13.0027 19.0864C13.2227 18.8164 13.2627 18.7464 13.3427 18.4564L13.5227 17.9264L12.2627 16.3064L11.8627 18.1164L9.5127 20.9064C8.7627 21.7964 9.9827 22.6664 10.6227 21.9264Z" /></svg>