
<svg
    viewBox="0 0 33.20556640625 27.7265625"
    xmlns="http://www.w3.org/2000/svg"
>
    <path
        fill="inherit"
        d="M7.6303 5.9744C9.2703 5.9744 10.6103 4.6344 10.6103 2.9644C10.6103 1.3244 9.2703 0.0044 7.6303 0.0044C5.9803 0.0044 4.6303 1.3244 4.6303 2.9644C4.6303 4.6344 5.9803 5.9744 7.6303 5.9744ZM2.0603 19.8144L4.6203 18.2344V23.6344C5.6403 23.2744 6.4803 22.7744 7.4603 22.3944L7.6803 20.3944C7.7103 20.2444 7.9103 20.2244 7.9703 20.3444L8.8003 22.0144C9.2403 21.9144 9.7203 21.8644 10.2903 21.8644C10.9603 21.8644 11.4903 21.9544 11.9603 22.1344L10.5803 18.4144V14.5844L31.0003 2.0544C31.3703 1.8144 31.4703 1.3644 31.2203 0.9844C31.0003 0.6144 30.5503 0.5244 30.1803 0.7544L10.5803 12.7844V10.1844C10.5803 8.6644 9.5103 7.4144 7.6403 7.4144H7.0003C5.8803 7.4144 4.6203 7.5644 3.4803 8.6644L0.3803 11.7544C-0.1297 12.2644 -0.1297 13.1344 0.3803 13.6344L3.7603 16.9644L1.2503 18.4944C0.8903 18.7344 0.7803 19.1944 1.0203 19.5644C1.2403 19.9344 1.6903 20.0444 2.0603 19.8144ZM4.6203 14.1344L3.2003 12.7044L4.1903 11.6944C4.3603 11.5244 4.6203 11.6244 4.6203 11.8644ZM1.6103 27.7244H3.0003C6.6503 27.7244 7.4903 25.4744 10.0203 25.4744C12.5503 25.4744 13.3803 27.7244 17.0303 27.7244C20.6803 27.7244 21.5203 25.4744 24.0503 25.4744C26.5703 25.4744 27.4103 27.7244 31.0603 27.7244H32.4503C32.8803 27.7244 33.2103 27.3944 33.2103 26.9744C33.2103 26.5544 32.8803 26.2044 32.4503 26.2044H31.0603C28.4303 26.2044 27.5503 23.9544 24.0503 23.9544C20.5503 23.9544 19.6603 26.2044 17.0303 26.2044C14.4103 26.2044 13.5203 23.9544 10.0203 23.9544C6.5003 23.9544 5.6303 26.2044 3.0003 26.2044H1.6103C1.1903 26.2044 0.8403 26.5544 0.8403 26.9744C0.8403 27.3944 1.1903 27.7244 1.6103 27.7244Z"
        fillRule="evenodd"
        clipRule="evenodd"
    />
</svg>
        