
<svg
    viewBox="0 0 31.669682516545823 27.498417050184447"
    xmlns="http://www.w3.org/2000/svg"
>
    <path
        fill="inherit"
        d="M27.9907 7.4244C30.0307 7.4244 31.6707 5.7144 31.6707 3.7344C31.6707 1.6644 30.0307 0.0044 27.9907 0.0044C25.9107 0.0044 24.2707 1.6644 24.2707 3.7344C24.2707 5.7744 25.9107 7.4244 27.9907 7.4244ZM6.8307 5.4544C6.8307 6.0244 7.2607 6.4844 7.8407 6.4844H13.2007V8.6144C13.2007 9.5744 14.1707 9.9944 14.8907 9.3544L18.4307 6.2044C18.9107 5.7544 18.9107 5.1944 18.4307 4.7544L14.8907 1.6144C14.2007 0.9944 13.2007 1.3444 13.2007 2.3544V4.4744H7.8407C7.2607 4.4744 6.8307 4.9044 6.8307 5.4544ZM4.1607 7.0244C3.6107 7.0244 3.1807 7.4744 3.1807 8.0344V13.3844L1.0607 13.3944C0.0307 13.4144 -0.3093 14.4144 0.3107 15.0844L3.4607 18.6344C3.9007 19.1244 4.4807 19.1144 4.9107 18.6344L8.0407 15.0844C8.6907 14.3644 8.2807 13.3844 7.3107 13.3844H5.1707V8.0344C5.1707 7.4744 4.7207 7.0244 4.1607 7.0244ZM5.9507 26.9844C6.6607 27.7244 7.8807 27.6744 8.7507 26.7744L14.6307 20.6944C14.8307 20.4944 14.9607 20.4444 15.2807 20.5644L19.8707 22.2944C22.8107 23.4344 25.6007 22.4644 26.8807 20.1144L29.8407 14.7344C30.9907 12.6444 30.6307 10.4844 28.6307 9.4244C26.7107 8.3644 24.7007 9.1644 23.5307 11.3044L19.7107 18.2944L16.4407 17.1044C14.8307 16.5144 13.4707 16.7044 12.1907 18.0444L6.0807 24.3644C5.2307 25.2344 5.3107 26.3344 5.9507 26.9844Z"
        fillRule="evenodd"
        clipRule="evenodd"
    />
</svg>
        