
<svg
    viewBox="0 0 32.23828125 25.18359375"
    xmlns="http://www.w3.org/2000/svg"
>
    <path
        fill="inherit"
        d="M2.7737 25.1855H29.4637C31.1537 25.1855 32.2337 24.1055 32.2337 22.4455V2.7255C32.2337 1.0755 31.1537 -0.0045 29.4637 -0.0045H2.7737C1.0937 -0.0045 0.0037 1.0755 0.0037 2.7255V22.4455C0.0037 24.1055 1.0937 25.1855 2.7737 25.1855ZM2.7337 5.1155C2.3337 5.1155 2.0637 4.8255 2.0637 4.4755V2.9255C2.0637 2.4855 2.3537 2.2055 2.7937 2.2055H4.4937C4.8937 2.2055 5.1537 2.4755 5.1537 2.8755V4.4755C5.1537 4.8255 4.8937 5.1155 4.4937 5.1155ZM27.7437 5.1155C27.3437 5.1155 27.0837 4.8255 27.0837 4.4755V2.8755C27.0837 2.4755 27.3437 2.2055 27.7437 2.2055H29.4537C29.9037 2.2055 30.1737 2.4855 30.1737 2.9255V4.4755C30.1737 4.8255 29.9137 5.1155 29.5037 5.1155ZM2.7337 9.6355C2.3337 9.6355 2.0637 9.3355 2.0637 8.9955V7.4255C2.0637 7.0255 2.3237 6.7555 2.7337 6.7555H4.4937C4.8937 6.7555 5.1537 7.0255 5.1537 7.4255V8.9955C5.1537 9.3355 4.8937 9.6355 4.4937 9.6355ZM27.7437 9.6355C27.3437 9.6355 27.0837 9.3355 27.0837 8.9955V7.4255C27.0837 7.0255 27.3437 6.7555 27.7437 6.7555H29.5037C29.9137 6.7555 30.1737 7.0255 30.1737 7.4255V8.9955C30.1737 9.3355 29.9137 9.6355 29.5037 9.6355ZM2.7337 14.0255C2.3337 14.0255 2.0637 13.7355 2.0637 13.3855V11.8255C2.0637 11.4155 2.3237 11.1555 2.7337 11.1555H4.4937C4.8937 11.1555 5.1537 11.4155 5.1537 11.8255V13.3855C5.1537 13.7355 4.8937 14.0255 4.4937 14.0255ZM27.7437 14.0255C27.3437 14.0255 27.0837 13.7355 27.0837 13.3855V11.8255C27.0837 11.4155 27.3437 11.1555 27.7437 11.1555H29.5037C29.9137 11.1555 30.1737 11.4155 30.1737 11.8255V13.3855C30.1737 13.7355 29.9137 14.0255 29.5037 14.0255ZM6.6837 12.5955C6.6837 12.0155 7.1337 11.5555 7.7137 11.5555H24.5237C25.1037 11.5555 25.5637 12.0155 25.5637 12.5955C25.5637 13.1655 25.1037 13.6155 24.5237 13.6155H7.7137C7.1337 13.6155 6.6837 13.1655 6.6837 12.5955ZM2.7337 18.4555C2.3337 18.4555 2.0637 18.1555 2.0637 17.8055V16.2455C2.0637 15.8355 2.3237 15.5755 2.7337 15.5755H4.4937C4.8937 15.5755 5.1537 15.8355 5.1537 16.2455V17.8055C5.1537 18.1555 4.8937 18.4555 4.4937 18.4555ZM27.7437 18.4555C27.3437 18.4555 27.0837 18.1555 27.0837 17.8055V16.2455C27.0837 15.8355 27.3437 15.5755 27.7437 15.5755H29.5037C29.9137 15.5755 30.1737 15.8355 30.1737 16.2455V17.8055C30.1737 18.1555 29.9137 18.4555 29.5037 18.4555ZM2.7937 22.9855C2.3537 22.9855 2.0637 22.6855 2.0637 22.2755V20.7255C2.0637 20.3455 2.3337 20.0655 2.7337 20.0655H4.4937C4.8937 20.0655 5.1537 20.3455 5.1537 20.7255V22.3155C5.1537 22.6955 4.8937 22.9855 4.4937 22.9855ZM27.7437 22.9855C27.3437 22.9855 27.0837 22.6955 27.0837 22.3155V20.7255C27.0837 20.3455 27.3437 20.0655 27.7437 20.0655H29.5037C29.9137 20.0655 30.1737 20.3455 30.1737 20.7255V22.2755C30.1737 22.6855 29.9037 22.9855 29.4537 22.9855Z"
        fillRule="evenodd"
        clipRule="evenodd"
    />
</svg>
        