<svg viewBox="0 0 27.890625 27.890625" xmlns="http://www.w3.org/2000/svg"><path d="M13.9427 27.8864C21.6427 27.8864 27.8927 21.6264 27.8927 13.9464C27.8927 6.2464 21.6427 -0.0036 13.9427 -0.0036C6.2627 -0.0036 0.0027 6.2464 0.0027 13.9464C0.0027 21.6264 6.2627 27.8864 13.9427 27.8864ZM7.3327 20.2364C6.4827 20.2364 5.9327 19.6964 5.9327 18.8764V9.0464C5.9327 8.2164 6.4827 7.6964 7.3327 7.6964H20.6027C21.4327 7.6964 22.0027 8.2164 22.0027 9.0464V18.8764C22.0027 19.6964 21.4327 20.2364 20.6027 20.2364ZM7.4627 10.6064H8.5327C8.7727 10.6064 8.9327 10.4164 8.9327 10.2164V9.2664C8.9327 9.0264 8.7727 8.8464 8.5327 8.8464H7.4627C7.1927 8.8464 7.0427 9.0264 7.0427 9.2664V10.2164C7.0427 10.4164 7.1927 10.6064 7.4627 10.6064ZM19.3827 10.6064H20.4627C20.7427 10.6064 20.8927 10.4164 20.8927 10.2164V9.2664C20.8927 9.0264 20.7427 8.8464 20.4627 8.8464H19.3827C19.1527 8.8464 19.0027 9.0264 19.0027 9.2664V10.2164C19.0027 10.4164 19.1527 10.6064 19.3827 10.6064ZM10.6627 13.3864H17.2827C17.5127 13.3864 17.6627 13.1964 17.6627 12.9864V9.2664C17.6627 9.0264 17.5127 8.8464 17.2827 8.8464H10.6627C10.3927 8.8464 10.2527 9.0264 10.2527 9.2664V12.9864C10.2527 13.1964 10.3927 13.3864 10.6627 13.3864ZM7.4627 13.3964H8.5327C8.7727 13.3964 8.9327 13.2064 8.9327 13.0064V12.0464C8.9327 11.7864 8.7727 11.6164 8.5327 11.6164H7.4627C7.1927 11.6164 7.0427 11.7864 7.0427 12.0464V13.0064C7.0427 13.2064 7.1927 13.3964 7.4627 13.3964ZM19.3827 13.3964H20.4627C20.7427 13.3964 20.8927 13.2064 20.8927 13.0064V12.0464C20.8927 11.7864 20.7427 11.6164 20.4627 11.6164H19.3827C19.1527 11.6164 19.0027 11.7864 19.0027 12.0464V13.0064C19.0027 13.2064 19.1527 13.3964 19.3827 13.3964ZM7.4627 16.1964H8.5327C8.7727 16.1964 8.9327 16.0064 8.9327 15.8064V14.8564C8.9327 14.5864 8.7727 14.4364 8.5327 14.4364H7.4627C7.1927 14.4364 7.0427 14.5864 7.0427 14.8564V15.8064C7.0427 16.0064 7.1927 16.1964 7.4627 16.1964ZM19.3827 16.1964H20.4627C20.7427 16.1964 20.8927 16.0064 20.8927 15.8064V14.8564C20.8927 14.5864 20.7427 14.4364 20.4627 14.4364H19.3827C19.1527 14.4364 19.0027 14.5864 19.0027 14.8564V15.8064C19.0027 16.0064 19.1527 16.1964 19.3827 16.1964ZM10.6627 19.0764H17.2827C17.5127 19.0764 17.6627 18.8964 17.6627 18.6764V14.9464C17.6627 14.7264 17.5127 14.5164 17.2827 14.5164H10.6627C10.3927 14.5164 10.2527 14.7264 10.2527 14.9464V18.6764C10.2527 18.8964 10.3927 19.0764 10.6627 19.0764ZM7.4827 19.0764H8.5327C8.7727 19.0764 8.9327 18.8964 8.9327 18.6464V17.6864C8.9327 17.4464 8.7727 17.2764 8.5327 17.2764H7.4627C7.1927 17.2764 7.0427 17.4464 7.0427 17.6864V18.6164C7.0427 18.8964 7.1927 19.0764 7.4827 19.0764ZM19.3827 19.0764H20.4527C20.7427 19.0764 20.8927 18.8964 20.8927 18.6164V17.6864C20.8927 17.4464 20.7427 17.2764 20.4627 17.2764H19.3827C19.1527 17.2764 19.0027 17.4464 19.0027 17.6864V18.6464C19.0027 18.8964 19.1527 19.0764 19.3827 19.0764Z" /></svg>