
<svg
    viewBox="0 0 27.890625 27.890625"
    xmlns="http://www.w3.org/2000/svg"
>
    <path
        fill="inherit"
        d="M13.9427 27.8864C21.6427 27.8864 27.8927 21.6464 27.8927 13.9464C27.8927 6.2464 21.6427 -0.0036 13.9427 -0.0036C6.2527 -0.0036 0.0027 6.2464 0.0027 13.9464C0.0027 21.6464 6.2527 27.8864 13.9427 27.8864ZM13.9427 25.5664C7.5227 25.5664 2.3227 20.3664 2.3227 13.9464C2.3227 7.5164 7.5227 2.3264 13.9427 2.3264C20.3727 2.3264 25.5627 7.5164 25.5627 13.9464C25.5627 20.3664 20.3727 25.5664 13.9427 25.5664ZM7.5027 20.0464H20.4027C21.2027 20.0464 21.7427 19.5264 21.7427 18.7264V9.1964C21.7427 8.3964 21.2027 7.8864 20.4027 7.8864H7.5027C6.6827 7.8864 6.1627 8.3964 6.1627 9.1964V18.7264C6.1627 19.5264 6.6827 20.0464 7.5027 20.0464ZM7.6427 10.7064C7.3827 10.7064 7.2327 10.5264 7.2327 10.3264V9.4064C7.2327 9.1764 7.3827 8.9964 7.6427 8.9964H8.6827C8.9127 8.9964 9.0627 9.1764 9.0627 9.4064V10.3264C9.0627 10.5264 8.9127 10.7064 8.6827 10.7064ZM19.2127 10.7064C18.9927 10.7064 18.8427 10.5264 18.8427 10.3264V9.4064C18.8427 9.1764 18.9927 8.9964 19.2127 8.9964H20.2627C20.5227 8.9964 20.6727 9.1764 20.6727 9.4064V10.3264C20.6727 10.5264 20.5227 10.7064 20.2627 10.7064ZM10.7427 13.3964C10.4827 13.3964 10.3527 13.2164 10.3527 13.0164V9.4064C10.3527 9.1764 10.4827 8.9964 10.7427 8.9964H17.1727C17.3927 8.9964 17.5427 9.1764 17.5427 9.4064V13.0164C17.5427 13.2164 17.3927 13.3964 17.1727 13.3964ZM7.6427 13.4164C7.3827 13.4164 7.2327 13.2364 7.2327 13.0264V12.0964C7.2327 11.8564 7.3827 11.6864 7.6427 11.6864H8.6827C8.9127 11.6864 9.0627 11.8564 9.0627 12.0964V13.0264C9.0627 13.2364 8.9127 13.4164 8.6827 13.4164ZM19.2127 13.4164C18.9927 13.4164 18.8427 13.2364 18.8427 13.0264V12.0964C18.8427 11.8564 18.9927 11.6864 19.2127 11.6864H20.2627C20.5227 11.6864 20.6727 11.8564 20.6727 12.0964V13.0264C20.6727 13.2364 20.5227 13.4164 20.2627 13.4164ZM7.6427 16.1364C7.3827 16.1364 7.2327 15.9564 7.2327 15.7464V14.8364C7.2327 14.5764 7.3827 14.4264 7.6427 14.4264H8.6827C8.9127 14.4264 9.0627 14.5764 9.0627 14.8364V15.7464C9.0627 15.9564 8.9127 16.1364 8.6827 16.1364ZM19.2127 16.1364C18.9927 16.1364 18.8427 15.9564 18.8427 15.7464V14.8364C18.8427 14.5764 18.9927 14.4264 19.2127 14.4264H20.2627C20.5227 14.4264 20.6727 14.5764 20.6727 14.8364V15.7464C20.6727 15.9564 20.5227 16.1364 20.2627 16.1364ZM10.7427 18.9264C10.4827 18.9264 10.3527 18.7464 10.3527 18.5364V14.9164C10.3527 14.6964 10.4827 14.5064 10.7427 14.5064H17.1727C17.3927 14.5064 17.5427 14.6964 17.5427 14.9164V18.5364C17.5427 18.7464 17.3927 18.9264 17.1727 18.9264ZM7.6527 18.9264C7.3827 18.9264 7.2327 18.7464 7.2327 18.4864V17.5864C7.2327 17.3364 7.3827 17.1864 7.6427 17.1864H8.6827C8.9127 17.1864 9.0627 17.3364 9.0627 17.5864V18.5164C9.0627 18.7464 8.9127 18.9264 8.6827 18.9264ZM19.2127 18.9264C18.9927 18.9264 18.8427 18.7464 18.8427 18.5164V17.5864C18.8427 17.3364 18.9927 17.1864 19.2127 17.1864H20.2627C20.5227 17.1864 20.6727 17.3364 20.6727 17.5864V18.4864C20.6727 18.7464 20.5227 18.9264 20.2527 18.9264Z"
        fillRule="evenodd"
        clipRule="evenodd"
    />
</svg>
        