<svg viewBox="0 0 28.779296875 30.228515625" xmlns="http://www.w3.org/2000/svg"><path d="M5.7537 1.7595H23.0137C22.9237 0.5995 22.2737 -0.0005 21.0037 -0.0005H7.7537C6.4937 -0.0005 5.8337 0.5995 5.7537 1.7595ZM2.9437 5.5495H25.8237C25.6237 4.3095 25.0337 3.6195 23.6637 3.6195H5.1037C3.7337 3.6195 3.1437 4.3095 2.9437 5.5495ZM2.4737 30.2295H26.2937C27.8237 30.2295 28.7837 29.2695 28.7837 27.7995V10.1995C28.7837 8.7195 27.8237 7.7495 26.2937 7.7495H2.4737C0.9537 7.7495 0.0037 8.7195 0.0037 10.1995V27.7995C0.0037 29.2695 0.9537 30.2295 2.4737 30.2295ZM2.4437 12.3095C2.0737 12.3095 1.8437 12.0595 1.8437 11.7395V10.3595C1.8437 9.9795 2.0937 9.7195 2.4837 9.7195H4.0237C4.3737 9.7195 4.5937 9.9695 4.5937 10.3195V11.7395C4.5937 12.0595 4.3737 12.3095 4.0237 12.3095ZM6.8937 18.0095C6.5637 18.0095 6.3437 17.8095 6.3437 17.4495V10.2795C6.3437 9.9295 6.5637 9.7195 6.8937 9.7195H21.8737C22.2137 9.7195 22.4337 9.9295 22.4337 10.2795V17.4495C22.4337 17.8095 22.2137 18.0095 21.8737 18.0095ZM24.7437 12.3095C24.4137 12.3095 24.1837 12.0595 24.1837 11.7395V10.3195C24.1837 9.9695 24.4137 9.7195 24.7437 9.7195H26.2937C26.6837 9.7195 26.9337 9.9795 26.9337 10.3595V11.7395C26.9337 12.0595 26.6837 12.3095 26.3337 12.3095ZM2.4437 16.3395C2.0737 16.3395 1.8437 16.0795 1.8437 15.7895V14.3695C1.8437 14.0395 2.0637 13.7795 2.4437 13.7795H4.0237C4.3737 13.7795 4.5937 14.0395 4.5937 14.3695V15.7895C4.5937 16.0795 4.3737 16.3395 4.0237 16.3395ZM24.7437 16.3395C24.4137 16.3395 24.1837 16.0795 24.1837 15.7895V14.3695C24.1837 14.0395 24.4137 13.7795 24.7437 13.7795H26.3337C26.7037 13.7795 26.9337 14.0395 26.9337 14.3695V15.7895C26.9337 16.0795 26.6837 16.3395 26.3337 16.3395ZM2.4437 20.2895C2.0737 20.2895 1.8437 20.0195 1.8437 19.6895V18.3295C1.8437 17.9495 2.0637 17.7095 2.4437 17.7095H4.0237C4.3737 17.7095 4.5937 17.9495 4.5937 18.3295V19.6895C4.5937 20.0195 4.3737 20.2895 4.0237 20.2895ZM24.7437 20.2895C24.4137 20.2895 24.1837 20.0195 24.1837 19.6895V18.3295C24.1837 17.9495 24.4137 17.7095 24.7437 17.7095H26.3337C26.7037 17.7095 26.9337 17.9495 26.9337 18.3295V19.6895C26.9337 20.0195 26.6837 20.2895 26.3337 20.2895ZM6.8937 28.2595C6.5637 28.2595 6.3437 28.0395 6.3437 27.6995V20.5795C6.3437 20.2195 6.5637 20.0195 6.8937 20.0195H21.8737C22.2137 20.0195 22.4337 20.2195 22.4337 20.5795V27.6995C22.4337 28.0395 22.2137 28.2595 21.8737 28.2595ZM2.4437 24.2095C2.0737 24.2095 1.8437 23.9495 1.8437 23.6495V22.2595C1.8437 21.8995 2.0637 21.6695 2.4437 21.6695H4.0237C4.3737 21.6695 4.5937 21.8995 4.5937 22.2595V23.6495C4.5937 23.9495 4.3737 24.2095 4.0237 24.2095ZM24.7437 24.2095C24.4137 24.2095 24.1837 23.9495 24.1837 23.6495V22.2595C24.1837 21.8995 24.4137 21.6695 24.7437 21.6695H26.3337C26.7037 21.6695 26.9337 21.8995 26.9337 22.2595V23.6495C26.9337 23.9495 26.6837 24.2095 26.3337 24.2095ZM2.4837 28.2595C2.0937 28.2595 1.8437 27.9995 1.8437 27.6295V26.2595C1.8437 25.9095 2.0737 25.6795 2.4437 25.6795H4.0237C4.3737 25.6795 4.5937 25.9095 4.5937 26.2595V27.6895C4.5937 28.0095 4.3737 28.2595 4.0237 28.2595ZM24.7437 28.2595C24.4137 28.2595 24.1837 28.0095 24.1837 27.6895V26.2595C24.1837 25.9095 24.4137 25.6795 24.7437 25.6795H26.3337C26.6837 25.6795 26.9337 25.9095 26.9337 26.2595V27.6295C26.9337 27.9995 26.6837 28.2595 26.2937 28.2595Z" /></svg>