<svg viewBox="0 0 31.25390625 27.42578125" xmlns="http://www.w3.org/2000/svg"><path d="M1.4537 5.9313H29.8037C30.6637 5.9313 31.2537 5.3413 31.2537 4.4713V1.4313C31.2537 0.5913 30.6637 0.0013 29.8037 0.0013H1.4537C0.5837 0.0013 0.0037 0.5913 0.0037 1.4313V4.4713C0.0037 5.3413 0.5837 5.9313 1.4537 5.9313ZM1.1437 27.4213H30.1037C30.7037 27.4213 31.2137 26.9213 31.2137 26.3213C31.2137 25.7213 30.7037 25.2213 30.1037 25.2213H28.1137V7.5213H3.1437V25.2213H1.1437C0.5437 25.2213 0.0437 25.7213 0.0437 26.3213C0.0437 26.9213 0.5437 27.4213 1.1437 27.4213ZM7.6737 25.2213V12.0013C7.6737 10.8113 8.4037 10.0913 9.5837 10.0913H21.6737C22.8437 10.0913 23.5837 10.8113 23.5837 12.0013V25.2213H21.8637V12.4913C21.8637 12.0613 21.6037 11.8013 21.1737 11.8013H10.0737C9.6537 11.8013 9.3937 12.0613 9.3937 12.4913V25.2213ZM15.4737 23.8313C13.3837 23.8313 11.9937 22.6313 11.9937 20.7813C11.9937 19.1813 12.7437 18.5913 12.7437 17.4713C12.7437 17.3113 12.7237 17.0713 12.7237 16.9713C12.7237 16.8013 12.8337 16.6913 13.0037 16.6913C13.3937 16.6913 13.8937 17.0313 14.1337 17.5313C14.1737 16.4513 13.6837 15.6713 13.1237 14.9413C12.8137 14.5313 13.0537 14.1813 13.6537 14.1813C16.0237 14.1813 19.4137 15.8413 19.4137 19.8513C19.4137 22.2413 17.8537 23.8313 15.4737 23.8313ZM15.6137 22.5713C16.6637 22.5713 17.1737 21.8113 17.1737 20.9213C17.1737 19.8013 16.3637 18.8813 15.6437 18.6113C15.7737 19.4113 15.6237 20.0313 15.3837 20.4013C15.2537 20.1013 15.1037 19.8613 14.8737 19.7013C14.7837 20.2613 14.2237 20.5313 14.2237 21.3113C14.2237 22.0813 14.7837 22.5713 15.6137 22.5713Z" /></svg>