
<svg
    viewBox={0 0 21.85944272158624 33.974609375}
    xmlns="http://www.w3.org/2000/svg"
>
    <path
        fill="inherit"
        d="M5.4218 33.9716H11.6918C13.5518 33.9716 14.8618 32.6616 14.8618 30.8016V14.9416C14.8618 11.6216 12.8118 9.1716 9.7618 8.6716V6.0716H12.2118C12.2518 6.6316 12.6718 7.0716 13.2418 7.1216L20.5618 7.8316C21.2818 7.9016 21.8618 7.3816 21.8618 6.6216V3.4416C21.8618 2.7116 21.2818 2.1716 20.5618 2.2416L13.2418 2.9416C12.6718 2.9916 12.2518 3.4316 12.2118 4.0016H10.5918C10.7718 3.6416 10.8818 3.2116 10.8818 2.7616C10.8818 1.2216 9.6618 0.0016 8.1018 0.0016C6.5518 0.0016 5.3118 1.2216 5.3118 2.7616C5.3118 3.3316 5.4818 3.8716 5.7718 4.3216C2.7918 5.0016 1.1018 6.7916 0.0918 9.0816C-0.2082 9.7316 0.2418 10.5316 1.0418 10.5316C1.4518 10.5316 1.8118 10.2816 1.9718 9.9216C2.9218 7.7816 4.3018 6.4216 7.3418 6.1216V8.6716C4.3018 9.1716 2.2418 11.6216 2.2418 14.9416V30.8016C2.2418 32.6616 3.5518 33.9716 5.4218 33.9716ZM6.8518 2.7616C6.8518 2.0816 7.3918 1.5316 8.1018 1.5316C8.8018 1.5316 9.3518 2.0816 9.3518 2.7616C9.3518 3.3916 8.9118 3.8916 8.3418 4.0016C8.2118 4.0016 8.0818 4.0216 7.9518 4.0216C7.3118 3.9516 6.8518 3.4316 6.8518 2.7616ZM5.7018 31.7716C4.9918 31.7716 4.4418 31.2416 4.4418 30.5316V14.9416C4.4418 12.4916 6.1518 10.7716 8.5518 10.7716C10.9618 10.7716 12.6618 12.4916 12.6618 14.9416V30.5316C12.6618 31.2416 12.1218 31.7716 11.4118 31.7716Z"
        fillRule="evenodd"
        clipRule="evenodd"
    />
</svg>
        