
<svg
    viewBox={0 0 35.79296875 33.9609375}
    xmlns="http://www.w3.org/2000/svg"
>
    <path
        fill="inherit"
        d="M10.8037 4.7879C11.2937 4.7879 11.6937 4.3779 11.6937 3.8779V0.8879C11.6937 0.3979 11.2937 -0.0021 10.8037 -0.0021C10.3037 -0.0021 9.8937 0.3979 9.8937 0.8879V3.8779C9.8937 4.3779 10.3037 4.7879 10.8037 4.7879ZM7.7937 5.5879C8.2337 5.3279 8.3637 4.7679 8.1237 4.3779L6.6337 1.7779C6.3937 1.3579 5.8237 1.1879 5.4037 1.4379C4.9637 1.6979 4.8437 2.2379 5.0837 2.6679L6.5737 5.2679C6.8037 5.6779 7.3837 5.8379 7.7937 5.5879ZM13.7937 5.5779C14.2337 5.8379 14.7637 5.6879 15.0237 5.2479L16.5337 2.6779C16.7737 2.2379 16.6137 1.6979 16.2037 1.4479C15.7637 1.1879 15.2337 1.3379 14.9737 1.7779L13.4637 4.3579C13.2237 4.7879 13.3837 5.3479 13.7937 5.5779ZM29.2537 12.1379C29.5137 12.1379 29.6937 11.9579 29.7337 11.7279C30.3537 8.4879 30.3237 8.6779 33.4037 8.0779C33.6337 8.0379 33.8137 7.8779 33.8137 7.5879C33.8137 7.3279 33.6237 7.1679 33.4037 7.1079C30.3137 6.4779 30.3537 6.6479 29.7337 3.4579C29.6937 3.2279 29.5137 3.0479 29.2537 3.0479C28.9737 3.0479 28.8037 3.2079 28.7637 3.4579C28.1337 6.6679 28.0437 6.5179 25.1337 7.1079C24.8937 7.1679 24.7237 7.3279 24.7237 7.5879C24.7237 7.8779 24.8837 8.0379 25.1337 8.0779C28.0437 8.6579 28.1337 8.5079 28.7637 11.7279C28.8037 11.9779 28.9737 12.1379 29.2537 12.1379ZM5.5937 7.7979C5.8337 7.3379 5.6737 6.8079 5.2637 6.5779L2.6937 5.0679C2.2537 4.8079 1.7137 4.9779 1.4537 5.3879C1.2137 5.8379 1.3637 6.3679 1.7737 6.6079L4.3737 8.1179C4.7737 8.3579 5.3637 8.2179 5.5937 7.7979ZM15.9937 7.7779C16.2537 8.2179 16.8037 8.3379 17.2237 8.1079L19.8137 6.6179C20.2337 6.3879 20.3837 5.8279 20.1437 5.3979C19.8937 4.9579 19.3437 4.8279 18.9237 5.0679L16.3237 6.5579C15.9137 6.7979 15.7537 7.3679 15.9937 7.7779ZM10.7837 14.9879C11.2337 14.9879 11.6037 14.6379 11.6037 14.1779L11.5937 12.6479L12.6837 13.7379C12.9837 14.0679 13.5237 14.0679 13.8537 13.7379C14.1537 13.4279 14.1637 12.8879 13.8537 12.5779L12.7437 11.5079H14.2737C14.7237 11.5079 15.0937 11.1379 15.0937 10.6879C15.0937 10.2379 14.7237 9.8879 14.2737 9.8879H12.7437L13.8337 8.8179C14.1637 8.4879 14.1537 7.9679 13.8337 7.6379C13.5037 7.3379 12.9837 7.3179 12.6637 7.6379L11.6037 8.7179L11.5937 7.2179C11.5937 6.7379 11.2537 6.3979 10.7737 6.3979C10.3337 6.3979 9.9637 6.7379 9.9637 7.2179L9.9837 8.7179L8.9037 7.6379C8.5737 7.3279 8.0637 7.3279 7.7237 7.6379C7.4237 7.9579 7.4137 8.5079 7.7237 8.8179L8.8337 9.8879H7.3037C6.8537 9.8879 6.4837 10.2379 6.4837 10.6879C6.4837 11.1379 6.8537 11.5079 7.3037 11.5079H8.8337L7.7337 12.5779C7.4137 12.9079 7.4237 13.4079 7.7337 13.7379C8.0537 14.0579 8.5737 14.0779 8.9037 13.7379L9.9637 12.6479L9.9837 14.1779C9.9837 14.6379 10.3237 14.9879 10.7837 14.9879ZM16.8037 10.7879C16.8037 11.2979 17.2137 11.6779 17.6937 11.6779L20.6837 11.6879C21.1737 11.6879 21.6037 11.2779 21.6037 10.7979C21.6037 10.2979 21.1737 9.8979 20.7037 9.8979L17.6937 9.8879C17.2137 9.8879 16.8037 10.3079 16.8037 10.7879ZM4.8037 10.7979C4.8037 10.2779 4.3737 9.8979 3.8937 9.8979L0.9137 9.8879C0.4137 9.8879 0.0037 10.3079 0.0037 10.7879C0.0037 11.2979 0.4137 11.6779 0.9037 11.6779L3.8937 11.6879C4.3737 11.6879 4.8037 11.2779 4.8037 10.7979ZM15.9937 13.7779C15.7537 14.2279 15.9237 14.7679 16.3237 15.0079L18.9037 16.5179C19.3437 16.7579 19.8937 16.5979 20.1437 16.1979C20.3837 15.7479 20.2237 15.2179 19.8137 14.9679L17.2237 13.4579C16.8137 13.2179 16.2237 13.3679 15.9937 13.7779ZM5.5937 13.7979C5.3437 13.3679 4.7837 13.2379 4.3737 13.4679L1.7737 14.9579C1.3537 15.2079 1.2137 15.7679 1.4537 16.1879C1.7137 16.6079 2.2537 16.7479 2.6837 16.5179L5.2637 15.0279C5.6837 14.7779 5.8337 14.2179 5.5937 13.7979ZM28.0537 17.9279C28.6337 17.9279 29.0837 17.4579 29.0837 16.8679C29.0837 16.2979 28.6337 15.8279 28.0537 15.8279C27.4637 15.8279 27.0137 16.2979 27.0137 16.8679C27.0137 17.4579 27.4637 17.9279 28.0537 17.9279ZM13.7937 15.9779C13.3737 16.2579 13.2337 16.7979 13.4637 17.2079L14.9537 19.7979C15.2037 20.2179 15.7737 20.3879 16.2037 20.1379C16.6237 19.8879 16.7437 19.3479 16.5137 18.9179L15.0237 16.3079C14.7837 15.9179 14.2237 15.7379 13.7937 15.9779ZM7.7937 15.9979C7.3537 15.7379 6.8237 15.8979 6.5737 16.3279L5.0737 18.9079C4.8137 19.3479 4.9737 19.8879 5.4037 20.1279C5.8337 20.3879 6.3737 20.2379 6.6137 19.7979L8.1237 17.2279C8.3837 16.7879 8.2137 16.2279 7.7937 15.9979ZM10.8037 16.7979C10.3037 16.7979 9.8937 17.1979 9.8937 17.6879V20.6879C9.8937 21.1779 10.3037 21.5779 10.8037 21.5779C11.2937 21.5779 11.6937 21.1779 11.6937 20.6879V17.6879C11.6937 17.1979 11.2937 16.7979 10.8037 16.7979ZM32.5937 19.9779C33.1237 19.9779 33.5637 19.5479 33.5637 19.0079C33.5637 18.4679 33.1237 18.0479 32.5937 18.0479C32.0637 18.0479 31.6337 18.4679 31.6337 19.0079C31.6337 19.5479 32.0637 19.9779 32.5937 19.9779ZM23.5037 19.9779C24.0337 19.9779 24.4637 19.5479 24.4637 19.0079C24.4637 18.4679 24.0337 18.0479 23.5037 18.0479C22.9737 18.0479 22.5337 18.4679 22.5337 19.0079C22.5337 19.5479 22.9737 19.9779 23.5037 19.9779ZM28.0437 28.3579C28.4737 28.3579 28.8337 28.0179 28.8337 27.5779V25.4679L29.9437 26.5679C30.2537 26.8779 30.7337 26.8879 31.0337 26.5679C31.3737 26.2679 31.3737 25.7879 31.0337 25.4579L29.9537 24.3679H32.0437C32.4837 24.3679 32.8437 24.0079 32.8437 23.5679C32.8437 23.1279 32.4837 22.7879 32.0437 22.7879H29.9437L31.0537 21.6879C31.3637 21.3679 31.3637 20.8879 31.0537 20.5779C30.7337 20.2579 30.2537 20.2479 29.9437 20.5779L28.8337 21.6679V19.5779C28.8337 19.1379 28.4737 18.7879 28.0437 18.7879C27.6037 18.7879 27.2637 19.1379 27.2637 19.5779V21.6679L26.1637 20.5779C25.8537 20.2579 25.3637 20.2579 25.0437 20.5779C24.7237 20.8879 24.7237 21.3679 25.0337 21.6879L26.1437 22.7879H24.0337C23.6137 22.7879 23.2737 23.1279 23.2737 23.5679C23.2737 24.0079 23.6137 24.3679 24.0337 24.3679H26.1437L25.0437 25.4579C24.7237 25.7879 24.7237 26.2679 25.0437 26.5679C25.3637 26.8879 25.8437 26.8879 26.1637 26.5679L27.2637 25.4679V27.5779C27.2637 28.0179 27.6037 28.3579 28.0437 28.3579ZM34.7537 24.6079C35.3237 24.6079 35.7937 24.1479 35.7937 23.5679C35.7937 22.9979 35.3237 22.5479 34.7537 22.5479C34.1637 22.5479 33.7137 22.9979 33.7137 23.5679C33.7137 24.1479 34.1637 24.6079 34.7537 24.6079ZM21.3437 24.6079C21.9337 24.6079 22.3937 24.1479 22.3837 23.5679C22.3937 22.9979 21.9337 22.5479 21.3437 22.5479C20.7637 22.5479 20.3137 22.9979 20.3137 23.5679C20.3137 24.1479 20.7637 24.6079 21.3437 24.6079ZM8.0137 29.5179C8.2037 29.5179 8.3137 29.4079 8.3437 29.2279C8.7637 27.1679 8.7637 27.1679 10.8137 26.7579C10.9937 26.7179 11.1137 26.6179 11.1137 26.4179C11.1137 26.2179 10.9937 26.0979 10.8137 26.0679C8.7637 25.6579 8.7637 25.6579 8.3437 23.5979C8.3137 23.4179 8.2037 23.3079 8.0137 23.3079C7.8037 23.3079 7.6937 23.4179 7.6737 23.5979C7.2437 25.6579 7.2437 25.6579 5.1937 26.0679C5.0137 26.0979 4.8937 26.2179 4.8937 26.4179C4.8937 26.6179 5.0137 26.7179 5.1937 26.7579C7.2437 27.1679 7.2437 27.1679 7.6737 29.2279C7.6937 29.4079 7.8037 29.5179 8.0137 29.5179ZM15.1237 33.9579C15.3437 33.9579 15.4737 33.8079 15.5137 33.6079C16.0537 31.0779 16.0537 31.0779 18.5537 30.5679C18.7537 30.5279 18.9037 30.3879 18.9037 30.1579C18.9037 29.9379 18.7537 29.7879 18.5537 29.7679C16.0537 29.2479 16.0537 29.2479 15.5137 26.7279C15.4737 26.5279 15.3437 26.3779 15.1237 26.3779C14.8937 26.3779 14.7537 26.5279 14.7137 26.7279C14.1937 29.2479 14.1937 29.2479 11.6937 29.7679C11.4737 29.7879 11.3237 29.9379 11.3237 30.1579C11.3237 30.3879 11.4737 30.5279 11.6937 30.5679C14.1937 31.0779 14.1937 31.0879 14.7137 33.6079C14.7537 33.8079 14.8937 33.9579 15.1237 33.9579ZM32.5937 29.1079C33.1237 29.1079 33.5637 28.6679 33.5637 28.1479C33.5637 27.6079 33.1237 27.1779 32.5937 27.1779C32.0637 27.1779 31.6337 27.6079 31.6337 28.1479C31.6337 28.6679 32.0637 29.1079 32.5937 29.1079ZM23.5037 29.0979C24.0337 29.0979 24.4637 28.6679 24.4637 28.1479C24.4637 27.6079 24.0337 27.1779 23.5037 27.1779C22.9737 27.1779 22.5337 27.6079 22.5337 28.1479C22.5337 28.6679 22.9737 29.0979 23.5037 29.0979ZM28.0537 31.3079C28.6337 31.3079 29.0837 30.8579 29.0837 30.2879C29.0837 29.6979 28.6337 29.2279 28.0537 29.2279C27.4637 29.2279 27.0137 29.6979 27.0137 30.2879C27.0137 30.8579 27.4637 31.3079 28.0537 31.3079Z"
        fillRule="evenodd"
        clipRule="evenodd"
    />
</svg>
        