
<svg
    viewBox={0 0 22.3671875 27.1796875}
    xmlns="http://www.w3.org/2000/svg"
>
    <path
        fill="inherit"
        d="M11.1837 27.1822C11.4037 27.1822 11.7437 27.1022 12.0837 26.9222C19.8637 22.8422 22.3637 20.8122 22.3637 15.9022V5.5922C22.3637 4.1822 21.7637 3.7322 20.6137 3.2522C19.0137 2.6022 13.9037 0.7422 12.3137 0.1922C11.9537 0.0722 11.5637 0.0022 11.1837 0.0022C10.8037 0.0022 10.4137 0.0822 10.0637 0.1922C8.4637 0.7122 3.3537 2.6122 1.7537 3.2522C0.6137 3.7222 0.0037 4.1822 0.0037 5.5922V15.9022C0.0037 20.8122 2.6437 22.6122 10.2837 26.9222C10.6337 27.1122 10.9637 27.1822 11.1837 27.1822ZM12.6737 7.1522C12.6737 6.5322 13.2737 6.3622 13.7237 6.6622L17.2037 9.0222C17.6237 9.3122 17.6337 9.8622 17.2437 10.1122L13.7437 12.4922C13.2737 12.7922 12.6737 12.6022 12.6737 11.9722V10.4822H5.7737C5.2637 10.4822 4.8437 10.0722 4.8437 9.5722C4.8437 9.0622 5.2637 8.6422 5.7737 8.6422H12.6737ZM5.1437 17.3222C4.7437 17.0522 4.7437 16.5022 5.1637 16.2122L8.6537 13.8522C9.0937 13.5622 9.7037 13.7422 9.7037 14.3422V15.8422H16.6137C17.1137 15.8422 17.5237 16.2722 17.5237 16.7722C17.5237 17.2822 17.1137 17.6922 16.6137 17.6922H9.7037V19.1822C9.7037 19.7922 9.0937 19.9922 8.6437 19.7022Z"
        fillRule="evenodd"
        clipRule="evenodd"
    />
</svg>
        