
<svg
    viewBox={0 0 31.25390625 27.42578125}
    xmlns="http://www.w3.org/2000/svg"
>
    <path
        fill="inherit"
        d="M1.1437 27.4277H30.1037C30.7037 27.4277 31.2137 26.9177 31.2137 26.3177C31.2137 25.7177 30.7037 25.2277 30.1037 25.2277H28.1137V7.4377H29.8037C30.6637 7.4377 31.2537 6.8477 31.2537 5.9777V1.4377C31.2537 0.5877 30.6637 -0.0023 29.8037 -0.0023H1.4537C0.5837 -0.0023 0.0037 0.5877 0.0037 1.4377V5.9777C0.0037 6.8477 0.5837 7.4377 1.4537 7.4377H3.1437V25.2277H1.1437C0.5437 25.2277 0.0437 25.7177 0.0437 26.3177C0.0437 26.9177 0.5437 27.4277 1.1437 27.4277ZM2.5537 5.2377C2.3537 5.2377 2.2037 5.0877 2.2037 4.8677V2.5677C2.2037 2.3477 2.3537 2.1977 2.5537 2.1977H28.6937C28.9037 2.1977 29.0537 2.3477 29.0537 2.5677V4.8677C29.0537 5.0877 28.9037 5.2377 28.6937 5.2377ZM23.5837 11.4577C23.5837 10.2677 22.8437 9.5477 21.6737 9.5477H9.5837C8.4037 9.5477 7.6737 10.2677 7.6737 11.4577V25.2277H5.3437V7.4377H25.9037V25.2277H23.5837ZM9.3937 11.9477C9.3937 11.5077 9.6537 11.2477 10.0737 11.2477H21.1737C21.6037 11.2477 21.8637 11.5077 21.8637 11.9477V25.2277H9.3937ZM15.4037 24.1677C18.0837 24.1677 19.8337 22.3777 19.8337 19.6877C19.8337 15.1877 16.0137 13.3177 13.3737 13.3177C12.6837 13.3177 12.4037 13.7177 12.7537 14.1877C13.3837 14.9877 13.9437 15.8577 13.9037 17.0777C13.6037 16.5177 13.0737 16.1377 12.6337 16.1377C12.4237 16.1377 12.3137 16.2577 12.3137 16.4477C12.3137 16.5677 12.3137 16.8277 12.3137 17.0177C12.3137 18.2777 11.4837 18.9377 11.4837 20.7377C11.4837 22.8177 13.0537 24.1677 15.4037 24.1677ZM15.5437 22.7677C14.6137 22.7677 13.9837 22.2077 13.9837 21.3377C13.9837 20.4677 14.6137 20.1477 14.7237 19.5277C14.9837 19.6977 15.1637 19.9577 15.2837 20.3077C15.5737 19.8877 15.7537 19.1977 15.5837 18.2777C16.4037 18.5777 17.3237 19.6177 17.3237 20.8877C17.3237 21.8877 16.7437 22.7677 15.5437 22.7677Z"
        fillRule="evenodd"
        clipRule="evenodd"
    />
</svg>
        