
<svg
    viewBox={0 0 27.890625 27.890625}
    xmlns="http://www.w3.org/2000/svg"
>
    <path
        fill="inherit"
        d="M13.9427 27.8927C21.6427 27.8927 27.8927 21.6427 27.8927 13.9427C27.8927 6.2627 21.6427 0.0027 13.9427 0.0027C6.2627 0.0027 0.0027 6.2627 0.0027 13.9427C0.0027 21.6427 6.2627 27.8927 13.9427 27.8927ZM5.4427 17.5827C5.3227 16.2327 5.9327 14.7827 6.8927 13.9427C5.9327 13.0727 5.2927 11.6327 5.4427 10.2827C5.4527 10.0327 5.6327 9.9027 5.9027 9.9027C7.4527 9.9027 8.7327 10.6527 9.8527 11.9727C10.7727 11.0627 11.7827 10.4427 12.8627 10.0527C12.7527 9.4027 12.5327 8.9427 11.9627 8.1727C11.7327 7.8727 11.7627 7.6427 12.0327 7.5027C14.5927 6.0927 18.1827 7.3527 18.9927 10.0727C21.2227 10.8427 23.1827 12.2527 23.1827 13.9427C23.1827 15.7127 21.0527 17.1627 18.7127 17.8827C17.7827 19.2327 16.0127 20.3727 14.4127 20.6327C13.8627 20.7127 13.6027 20.4527 13.6627 19.9727L13.8927 18.1427C12.4427 17.8127 11.0627 17.1027 9.8527 15.9127C8.7327 17.2427 7.4527 17.9527 5.9027 17.9827C5.6327 17.9827 5.4527 17.8527 5.4427 17.5827ZM19.7927 14.4127C20.2227 14.4127 20.5527 14.0927 20.5527 13.6627C20.5527 13.2327 20.2227 12.9027 19.7927 12.9027C19.3727 12.9027 19.0427 13.2327 19.0427 13.6627C19.0427 14.0927 19.3727 14.4127 19.7927 14.4127Z"
        fillRule="evenodd"
        clipRule="evenodd"
    />
</svg>
        