
<svg
    viewBox="0 0 38.55369741451883 29.916146222116815"
    xmlns="http://www.w3.org/2000/svg"
>
    <path
        fill="inherit"
        d="M19.5527 29.8836C22.9727 29.3436 26.8327 26.8436 28.8927 23.9336C33.8627 22.3436 38.5527 19.1636 38.5527 15.2636C38.5527 11.5336 34.2427 8.4536 29.4927 6.8036C27.6827 0.9236 19.7927 -1.7864 14.2827 1.2636C13.6027 1.6336 13.4627 2.3536 14.0227 3.0936C15.1927 4.6236 15.5827 5.5336 15.8427 6.7436C13.7027 7.5836 11.6327 8.8536 9.8027 10.6436C7.3927 7.9236 4.5927 6.4036 1.3227 6.3536C0.6427 6.3336 0.0927 6.7736 0.0427 7.4736C-0.2473 10.3136 1.0427 13.3936 3.0027 15.2636C1.0427 17.1536 -0.2473 20.2436 0.0427 23.0736C0.0927 23.7636 0.6427 24.2036 1.3227 24.1936C4.5927 24.1336 7.3927 22.6236 9.8027 19.9136C12.2627 22.2936 15.1027 23.7836 18.0627 24.4936L17.6127 28.1736C17.4727 29.3236 18.2127 30.0936 19.5527 29.8836ZM16.3527 2.9136C16.2227 2.7236 16.2527 2.5336 16.4227 2.4836C20.2427 1.1836 25.0327 2.6436 26.9627 6.0736C25.4027 5.7036 23.8527 5.5136 22.4927 5.5136C20.9127 5.5136 19.3127 5.7036 17.7627 6.1136C17.5227 5.0736 17.1327 4.1036 16.3527 2.9136ZM22.4927 22.8236C18.1027 22.8236 13.9127 21.2836 10.4827 17.4536C10.0327 16.9436 9.4027 16.9636 8.9527 17.5036C6.9627 19.9836 5.0127 21.4436 2.6427 21.8536C2.4027 21.8936 2.2127 21.7036 2.2527 21.4536C2.4827 19.3236 3.7427 17.3536 5.3127 16.1136C6.0327 15.5136 6.0427 15.0336 5.3027 14.4136C3.7427 13.1736 2.4827 11.2136 2.2527 9.0836C2.2127 8.8536 2.4027 8.6436 2.6427 8.6836C5.0127 9.0936 6.9627 10.5636 8.9527 13.0336C9.4027 13.5936 10.0327 13.6136 10.4727 13.1036C13.9127 9.2636 18.1027 7.7136 22.4927 7.7136C28.3127 7.7136 36.3927 11.5036 36.3927 15.2636C36.3927 19.0336 28.3127 22.8236 22.4927 22.8236ZM30.9827 16.0936C31.7727 16.0936 32.4327 15.4436 32.4327 14.6636C32.4327 13.8836 31.7727 13.2236 30.9827 13.2236C30.2027 13.2236 29.5427 13.8836 29.5427 14.6636C29.5427 15.4436 30.2027 16.0936 30.9827 16.0936ZM22.4927 25.0236C23.3927 25.0236 24.3727 24.9436 25.3727 24.7836C23.8827 25.9836 22.2727 27.0336 20.3827 27.5536C20.0927 27.6236 19.9027 27.5736 19.9427 27.1836L20.1827 24.8936C20.9427 24.9836 21.7227 25.0236 22.4927 25.0236Z"
        fillRule="evenodd"
        clipRule="evenodd"
    />
</svg>
        