
<svg
    viewBox={0 0 38.0057690203282 29.387009390485645}
    xmlns="http://www.w3.org/2000/svg"
>
    <path
        fill="inherit"
        d="M0.0416 22.7842C0.0816 23.3742 0.4616 23.6742 1.0516 23.6542C4.3316 23.6042 7.0916 22.0642 9.5116 19.2542C12.0516 21.7842 14.9916 23.3142 18.0816 24.0142L17.6116 27.9342C17.4816 28.9642 18.0416 29.5542 19.2316 29.3442C22.6216 28.8242 26.4516 26.3242 28.4516 23.4442C33.4216 21.8842 38.0016 18.7742 38.0016 15.0042C38.0016 11.3842 33.7716 8.3742 28.9916 6.7442C27.3016 0.9242 19.5916 -1.7658 14.1516 1.2542C13.5616 1.5542 13.4916 2.0342 13.9716 2.6742C15.2316 4.3242 15.6416 5.3142 15.8816 6.6542C13.5916 7.4942 11.4516 8.8342 9.5116 10.7842C7.0916 7.9642 4.3316 6.4142 1.0516 6.3642C0.4616 6.3542 0.0816 6.6542 0.0416 7.2342C-0.2484 10.1142 1.0816 13.1842 3.1316 15.0042C1.0816 16.8342 -0.2484 19.9242 0.0416 22.7842ZM30.7016 15.8342C29.9216 15.8342 29.2716 15.1842 29.2716 14.4042C29.2716 13.6242 29.9216 12.9642 30.7016 12.9642C31.5016 12.9642 32.1516 13.6242 32.1516 14.4042C32.1516 15.1842 31.5016 15.8342 30.7016 15.8342Z"
        fillRule="evenodd"
        clipRule="evenodd"
    />
</svg>
        