
<svg
    viewBox={0 0 27.890625 27.890625}
    xmlns="http://www.w3.org/2000/svg"
>
    <path
        fill="inherit"
        d="M13.9427 27.8864C21.6427 27.8864 27.8927 21.6464 27.8927 13.9464C27.8927 6.2464 21.6427 -0.0036 13.9427 -0.0036C6.2527 -0.0036 0.0027 6.2464 0.0027 13.9464C0.0027 21.6464 6.2527 27.8864 13.9427 27.8864ZM13.9427 25.5664C7.5227 25.5664 2.3227 20.3664 2.3227 13.9464C2.3227 7.5164 7.5227 2.3264 13.9427 2.3264C20.3727 2.3264 25.5627 7.5164 25.5627 13.9464C25.5627 20.3664 20.3727 25.5664 13.9427 25.5664ZM5.7727 17.4564C5.7827 17.7364 5.9427 17.8564 6.2227 17.8564C7.7227 17.8264 8.9727 17.1264 10.0627 15.8464C11.2227 16.9964 12.5627 17.6864 13.9727 18.0064L13.7527 19.7964C13.7027 20.2464 13.9427 20.4964 14.4627 20.4264C16.0227 20.1664 17.7327 19.0764 18.6527 17.7464C20.9027 17.0664 22.9927 15.6364 22.9927 13.9364C22.9927 12.2864 21.0827 10.9264 18.9227 10.1864C18.1327 7.5464 14.6427 6.3264 12.1727 7.6964C11.9127 7.8364 11.8827 8.0564 12.0827 8.3364C12.6627 9.0964 12.8527 9.5264 12.9727 10.1464C11.9127 10.5364 10.9327 11.1464 10.0627 12.0264C8.9727 10.7464 7.7227 10.0264 6.2227 10.0264C5.9427 10.0264 5.7827 10.1464 5.7727 10.3864C5.6327 11.7064 6.2327 13.0964 7.1827 13.9364C6.2327 14.7564 5.6427 16.1564 5.7727 17.4564ZM19.7027 14.3864C19.2927 14.3864 18.9627 14.0664 18.9627 13.6564C18.9627 13.2464 19.2927 12.9364 19.7027 12.9364C20.0927 12.9364 20.4227 13.2464 20.4227 13.6564C20.4227 14.0664 20.0927 14.3864 19.7027 14.3864Z"
        fillRule="evenodd"
        clipRule="evenodd"
    />
</svg>
        