
<svg
    viewBox="0 0 25.169921875 25.169921875"
    xmlns="http://www.w3.org/2000/svg"
>
    <path
        fill="inherit"
        d="M4.2937 25.1692H20.8737C23.7437 25.1692 25.1737 23.7592 25.1737 20.9492V4.2392C25.1737 1.4192 23.7437 -0.0008 20.8737 -0.0008H4.2937C1.4337 -0.0008 0.0037 1.4192 0.0037 4.2392V20.9492C0.0037 23.7592 1.4337 25.1692 4.2937 25.1692ZM7.2337 20.1492C6.8937 20.1492 6.5737 19.8392 6.5737 19.4992V7.6692C6.5737 7.0692 6.8637 6.6192 7.4337 6.3592C7.9437 6.1292 8.3937 5.9992 9.4837 5.9992C12.0137 5.9992 13.6337 7.2592 16.0137 7.2592C17.1737 7.2592 17.7837 6.9592 18.1937 6.9592C18.7737 6.9592 18.9937 7.2592 18.9937 7.6692V14.6192C18.9937 15.2592 18.7137 15.6692 18.1337 15.9392C17.6137 16.1892 17.1537 16.2992 16.0737 16.2992C13.6437 16.2992 12.0537 15.0692 9.5537 15.0692C8.6937 15.0692 8.1337 15.2292 7.8737 15.3392V19.4992C7.8737 19.8492 7.6137 20.1492 7.2337 20.1492Z"
        fillRule="evenodd"
        clipRule="evenodd"
    />
</svg>
        