
<svg
    viewBox={0 0 25.169921875 25.169921875}
    xmlns="http://www.w3.org/2000/svg"
>
    <path
        fill="inherit"
        d="M4.2937 25.1692H20.8737C23.7437 25.1692 25.1737 23.7592 25.1737 20.9492V4.2392C25.1737 1.4192 23.7437 -0.0008 20.8737 -0.0008H4.2937C1.4337 -0.0008 0.0037 1.4192 0.0037 4.2392V20.9492C0.0037 23.7592 1.4337 25.1692 4.2937 25.1692ZM4.3237 22.9692C2.9537 22.9692 2.2037 22.2392 2.2037 20.8192V4.3592C2.2037 2.9392 2.9537 2.1992 4.3237 2.1992H20.8537C22.2037 2.1992 22.9737 2.9392 22.9737 4.3592V20.8192C22.9737 22.2392 22.2037 22.9692 20.8537 22.9692ZM7.3937 19.9292C7.7637 19.9292 8.0237 19.6492 8.0237 19.3092V15.2692C8.2737 15.1592 8.8137 14.9992 9.6537 14.9992C12.0837 14.9992 13.6137 16.1992 15.9837 16.1992C17.0237 16.1992 17.4637 16.0892 17.9637 15.8492C18.5437 15.5892 18.8037 15.1892 18.8037 14.5692V7.8292C18.8037 7.4392 18.5937 7.1492 18.0337 7.1492C17.6337 7.1492 17.0337 7.4392 15.9137 7.4392C13.6037 7.4392 12.0437 6.2192 9.5837 6.2192C8.5337 6.2192 8.0937 6.3392 7.6037 6.5592C7.0437 6.8092 6.7637 7.2492 6.7637 7.8292V19.3092C6.7637 19.6292 7.0537 19.9292 7.3937 19.9292Z"
        fillRule="evenodd"
        clipRule="evenodd"
    />
</svg>
        