
<svg
    viewBox="0 0 27.890625 27.890625"
    xmlns="http://www.w3.org/2000/svg"
>
    <path
        fill="inherit"
        d="M13.9427 27.8864C21.6427 27.8864 27.8927 21.6464 27.8927 13.9464C27.8927 6.2464 21.6427 -0.0036 13.9427 -0.0036C6.2527 -0.0036 0.0027 6.2464 0.0027 13.9464C0.0027 21.6464 6.2527 27.8864 13.9427 27.8864ZM13.9427 25.5664C7.5227 25.5664 2.3227 20.3664 2.3227 13.9464C2.3227 7.5164 7.5227 2.3264 13.9427 2.3264C20.3727 2.3264 25.5627 7.5164 25.5627 13.9464C25.5627 20.3664 20.3727 25.5664 13.9427 25.5664ZM20.3827 21.2764C20.6127 21.5064 21.0127 21.5064 21.2627 21.2764C21.5027 21.0164 21.5027 20.6464 21.2627 20.3964L7.4827 6.6164C7.2327 6.3664 6.8527 6.3664 6.5927 6.6164C6.3527 6.8464 6.3527 7.2564 6.5927 7.4964ZM9.9927 7.6264L19.3727 17.0064C19.7027 16.7764 19.9427 16.4364 19.9427 15.9364V9.1964C19.9427 8.8064 19.7427 8.5164 19.1827 8.5164C18.7827 8.5164 18.1827 8.8064 17.0627 8.8064C14.7527 8.8064 13.1927 7.5864 10.7327 7.5864C10.4327 7.5864 10.2027 7.6064 9.9927 7.6264ZM14.8727 17.2164L7.9127 10.2564V20.6764C7.9127 20.9964 8.2127 21.2964 8.5427 21.2964C8.9127 21.2964 9.1727 21.0164 9.1727 20.6764V16.6364C9.4227 16.5264 9.9627 16.3664 10.8027 16.3664C12.3727 16.3664 13.5627 16.8664 14.8727 17.2164Z"
        fillRule="evenodd"
        clipRule="evenodd"
    />
</svg>
        