
<svg
    viewBox="0 0 27.890625 27.890625"
    xmlns="http://www.w3.org/2000/svg"
>
    <path
        fill="inherit"
        d="M13.9427 27.8927C21.6427 27.8927 27.8927 21.6427 27.8927 13.9427C27.8927 6.2627 21.6427 0.0027 13.9427 0.0027C6.2627 0.0027 0.0027 6.2627 0.0027 13.9427C0.0027 21.6427 6.2627 27.8927 13.9427 27.8927ZM8.5827 21.5227C8.2327 21.5227 7.9127 21.2227 7.9127 20.8627V9.0327C7.9127 8.4327 8.2127 8.0027 8.7927 7.7427C9.2927 7.4927 9.7327 7.3727 10.8427 7.3727C13.3727 7.3727 14.9727 8.6227 17.3627 8.6227C18.5227 8.6227 19.1427 8.3227 19.5527 8.3227C20.1227 8.3227 20.3427 8.6227 20.3427 9.0527V15.9827C20.3427 16.6227 20.0727 17.0327 19.4827 17.3227C18.9527 17.5527 18.5127 17.6627 17.4327 17.6627C15.0027 17.6627 13.4127 16.4327 10.9127 16.4327C10.0327 16.4327 9.4927 16.5927 9.2127 16.7027V20.8627C9.2127 21.2327 8.9727 21.5227 8.5827 21.5227ZM9.0127 13.5127C9.1227 13.2627 9.6927 12.9627 10.7727 12.9627C11.1127 12.9627 11.3027 12.9727 11.5527 13.0027V15.3227C12.5127 15.4127 13.3527 15.6427 14.1627 15.8827V13.6027C15.0527 13.9027 15.8427 14.0827 16.7927 14.1727V16.5027C16.9927 16.5527 17.2427 16.5727 17.5127 16.5727C18.5927 16.5727 19.1727 16.2427 19.2727 15.9927V13.9827C18.7827 14.1227 18.1727 14.2027 17.4227 14.2027C17.1727 14.2027 16.9627 14.1927 16.7927 14.1727V11.8127C16.9627 11.8227 17.1827 11.8427 17.4227 11.8427C18.2427 11.8427 18.9127 11.7127 19.2727 11.6227V9.5027C18.7827 9.6427 18.1727 9.7327 17.4227 9.7327C17.2027 9.7327 16.9827 9.7327 16.7927 9.7027V11.8127C15.8427 11.7427 15.0227 11.5127 14.1627 11.2527V9.1427C13.3127 8.8727 12.4827 8.6127 11.5527 8.5127V10.6527C11.3027 10.5927 11.0027 10.5827 10.7727 10.5827C9.6927 10.5827 9.1227 10.9127 9.0127 11.1427ZM11.5527 13.0027V10.6527C12.5127 10.7327 13.2927 10.9927 14.1627 11.2527V13.6027C13.2327 13.3327 12.5127 13.0927 11.5527 13.0027Z"
        fillRule="evenodd"
        clipRule="evenodd"
    />
</svg>
        