
<svg
    viewBox={0 0 48.833435945967004 28.25271837657862}
    xmlns="http://www.w3.org/2000/svg"
>
    <path
        fill="inherit"
        d="M25.3638 11.7077L26.5538 13.7577L27.0338 12.9177C27.6738 13.1677 28.6738 13.5077 29.7938 14.1377C33.1038 16.0677 34.3938 19.0977 37.8138 21.0877C38.8038 21.6677 39.8638 22.0977 40.6738 22.1877C41.6538 22.2877 42.5238 21.9877 43.1338 20.9177L48.6438 11.3877C49.0638 10.6377 48.7438 9.9577 48.0438 9.5477C47.4438 9.2077 46.1738 8.8877 44.7238 8.0577C41.3938 6.1377 40.1138 3.0877 36.6938 1.1077C35.7138 0.5377 34.6338 0.1077 33.8338 0.0177C32.8538 -0.0823 31.9938 0.2377 31.3738 1.2977ZM32.1438 26.6877L17.4638 1.2977C16.8438 0.2377 15.9838 -0.0823 14.9938 0.0177C14.1938 0.1077 13.1238 0.5377 12.1438 1.1077C8.7238 3.0877 7.4238 6.1377 4.1038 8.0577C2.6538 8.8877 1.3938 9.2077 0.7938 9.5477C0.0838 9.9577 -0.2362 10.6377 0.1938 11.3877L5.6838 20.9177C6.3038 21.9877 7.1738 22.2877 8.1438 22.1877C8.9538 22.0977 10.0338 21.6677 11.0038 21.0877C14.4338 19.0977 15.7238 16.0677 19.0438 14.1377C20.1538 13.5077 21.1638 13.1677 21.8038 12.9177L30.3538 27.7277C30.6438 28.2377 31.2538 28.3977 31.7638 28.1077C32.2338 27.8277 32.4138 27.1777 32.1438 26.6877ZM23.4738 19.0877L22.2738 17.0277L16.6938 26.6877C16.4038 27.1777 16.5938 27.8277 17.0738 28.1077C17.5838 28.3977 18.1938 28.2377 18.4738 27.7277Z"
        fillRule="evenodd"
        clipRule="evenodd"
    />
</svg>
        