
<svg
    viewBox="0 0 27.890625 27.890625"
    xmlns="http://www.w3.org/2000/svg"
>
    <path
        fill="inherit"
        d="M13.9427 27.8927C21.6427 27.8927 27.8927 21.6427 27.8927 13.9427C27.8927 6.2627 21.6427 0.0027 13.9427 0.0027C6.2627 0.0027 0.0027 6.2627 0.0027 13.9427C0.0027 21.6427 6.2627 27.8927 13.9427 27.8927ZM8.5827 21.5227C8.2327 21.5227 7.9127 21.2227 7.9127 20.8627V9.0327C7.9127 8.4327 8.2127 8.0027 8.7927 7.7427C9.2927 7.4927 9.7327 7.3727 10.8427 7.3727C13.3727 7.3727 14.9727 8.6227 17.3627 8.6227C18.5227 8.6227 19.1427 8.3227 19.5527 8.3227C20.1227 8.3227 20.3427 8.6227 20.3427 9.0527V15.9827C20.3427 16.6227 20.0727 17.0327 19.4827 17.3227C18.9527 17.5527 18.5127 17.6627 17.4327 17.6627C15.0027 17.6627 13.4127 16.4327 10.9127 16.4327C10.0327 16.4327 9.4927 16.5927 9.2127 16.7027V20.8627C9.2127 21.2327 8.9727 21.5227 8.5827 21.5227Z"
        fillRule="evenodd"
        clipRule="evenodd"
    />
</svg>
        