
<svg
    viewBox="0 0 27.890625 27.890625"
    xmlns="http://www.w3.org/2000/svg"
>
    <path
        fill="inherit"
        d="M13.9427 27.8864C21.6427 27.8864 27.8927 21.6464 27.8927 13.9464C27.8927 6.2464 21.6427 -0.0036 13.9427 -0.0036C6.2527 -0.0036 0.0027 6.2464 0.0027 13.9464C0.0027 21.6464 6.2527 27.8864 13.9427 27.8864ZM13.9427 25.5664C7.5227 25.5664 2.3227 20.3664 2.3227 13.9464C2.3227 7.5164 7.5227 2.3264 13.9427 2.3264C20.3727 2.3264 25.5627 7.5164 25.5627 13.9464C25.5627 20.3664 20.3727 25.5664 13.9427 25.5664ZM16.9627 19.6464C17.2627 19.4964 17.3527 19.1264 17.1827 18.8564L11.2927 8.6564C11.0227 8.1764 10.6127 8.0664 10.1827 8.0664C9.8027 8.0664 9.3527 8.2864 8.9327 8.5164C7.5027 9.3564 7.0127 10.5564 5.7027 11.2964C5.1227 11.6364 4.6327 11.7764 4.3727 11.9064C4.0327 12.0964 3.8427 12.4864 4.0627 12.8764L6.2627 16.6764C6.5127 17.0864 6.8127 17.2964 7.2827 17.2964C7.7827 17.2964 8.2427 17.0664 8.6427 16.8164C10.0727 15.9964 10.5827 14.7664 11.8827 14.0364C12.2327 13.8264 12.5627 13.7164 12.8227 13.6064L16.1827 19.4264C16.3627 19.7264 16.6927 19.8064 16.9627 19.6464ZM20.5627 17.2964C21.0427 17.2964 21.3427 17.0864 21.5727 16.6764L23.7927 12.8764C24.0127 12.4864 23.8127 12.1164 23.4727 11.9064C23.2127 11.7764 22.7227 11.6364 22.1527 11.2964C20.8327 10.5564 20.3327 9.3564 18.9227 8.5164C18.5027 8.2864 18.0327 8.0664 17.6527 8.0664C17.2227 8.0664 16.8327 8.1764 16.5527 8.6664L14.4927 12.2364L15.3627 13.7364C16.9427 14.3464 17.8327 16.0364 19.2127 16.8164C19.5927 17.0664 20.0727 17.2964 20.5627 17.2964ZM10.8727 19.6464C11.1427 19.8264 11.4827 19.7264 11.6627 19.4264L13.3727 16.4564L12.7027 15.3264L10.6627 18.8564C10.5027 19.1264 10.5827 19.4964 10.8727 19.6464Z"
        fillRule="evenodd"
        clipRule="evenodd"
    />
</svg>
        