
<svg
    viewBox={0 0 27.890625 27.890625}
    xmlns="http://www.w3.org/2000/svg"
>
    <path
        fill="inherit"
        d="M13.9427 27.8864C21.6427 27.8864 27.8927 21.6264 27.8927 13.9464C27.8927 6.2464 21.6427 -0.0036 13.9427 -0.0036C6.2627 -0.0036 0.0027 6.2464 0.0027 13.9464C0.0027 21.6264 6.2627 27.8864 13.9427 27.8864ZM17.0627 19.8264C16.7727 19.9864 16.4227 19.9064 16.2527 19.5964L12.7827 13.6064C12.5227 13.7164 12.1827 13.8264 11.8027 14.0564C10.4827 14.7964 9.9427 16.0664 8.4627 16.9164C8.0627 17.1564 7.5727 17.4064 7.0727 17.4064C6.5927 17.4064 6.2627 17.1864 6.0327 16.7664L3.7627 12.8564C3.5127 12.4364 3.7227 12.0464 4.0927 11.8364C4.3327 11.7064 4.8427 11.5664 5.4427 11.2064C6.7827 10.4464 7.3027 9.2164 8.7727 8.3564C9.2027 8.1064 9.6827 7.8864 10.0627 7.8864C10.5027 7.8864 10.9127 7.9964 11.2127 8.4864L17.2827 19.0064C17.4427 19.2864 17.3527 19.6564 17.0627 19.8264ZM20.7527 17.4064C20.2527 17.4064 19.7727 17.1564 19.3627 16.9164C17.9327 16.1064 17.0227 14.3564 15.4127 13.7364L14.4927 12.1864L16.6227 8.5064C16.9127 7.9964 17.3327 7.8864 17.7727 7.8864C18.1527 7.8864 18.6227 8.1064 19.0627 8.3564C20.5327 9.2164 21.0427 10.4464 22.3927 11.2064C22.9827 11.5664 23.5027 11.7064 23.7527 11.8364C24.1127 12.0564 24.3227 12.4364 24.0727 12.8564L21.8027 16.7664C21.5627 17.1864 21.2427 17.4064 20.7527 17.4064ZM10.7727 19.8264C10.4727 19.6564 10.3927 19.2864 10.5527 19.0064L12.6627 15.3764L13.3427 16.5564L11.5827 19.5964C11.4127 19.9064 11.0627 20.0064 10.7727 19.8264Z"
        fillRule="evenodd"
        clipRule="evenodd"
    />
</svg>
        