
<svg
    viewBox="0 0 27.890625 27.890625"
    xmlns="http://www.w3.org/2000/svg"
>
    <path
        fill="inherit"
        d="M13.9427 27.8927C21.6427 27.8927 27.8927 21.6427 27.8927 13.9427C27.8927 6.2627 21.6427 0.0027 13.9427 0.0027C6.2627 0.0027 0.0027 6.2627 0.0027 13.9427C0.0027 21.6427 6.2627 27.8927 13.9427 27.8927ZM20.5927 21.5027L6.3727 7.3027C6.1427 7.0527 6.1427 6.6427 6.3727 6.3827C6.6427 6.1427 7.0427 6.1427 7.3027 6.3827L21.5027 20.5927C21.7527 20.8527 21.7527 21.2327 21.5027 21.5027C21.2427 21.7427 20.8327 21.7427 20.5927 21.5027ZM9.8827 7.4227C10.1027 7.3927 10.3327 7.3827 10.6527 7.3827C13.1827 7.3827 14.7927 8.6427 17.1727 8.6427C18.3327 8.6427 18.9527 8.3427 19.3627 8.3427C19.9327 8.3427 20.1527 8.6427 20.1527 9.0627V15.9927C20.1527 16.5127 19.9027 16.8527 19.5627 17.1027ZM14.9027 17.3327C13.5627 16.9827 12.3327 16.4427 10.7227 16.4427C9.8527 16.4427 9.2927 16.6127 9.0327 16.7227V20.8727C9.0327 21.2427 8.7727 21.5327 8.3927 21.5327C8.0527 21.5327 7.7427 21.2327 7.7427 20.8727V10.1627Z"
        fillRule="evenodd"
        clipRule="evenodd"
    />
</svg>
        