
<svg
    viewBox="0 0 24.28125 26.82421875"
    xmlns="http://www.w3.org/2000/svg"
>
    <path
        fill="inherit"
        d="M1.0407 26.8195C1.6107 26.8195 2.0807 26.3695 2.0807 25.7995V18.1995C2.4207 18.0495 3.7007 17.5595 5.7107 17.5595C10.7707 17.5595 13.9407 20.0295 18.7607 20.0295C20.8907 20.0295 21.6807 19.7995 22.7207 19.3295C23.6707 18.9095 24.2807 18.1995 24.2807 16.9395V3.0595C24.2807 2.3195 23.6507 1.8995 22.8607 1.8995C22.1907 1.8995 20.9307 2.4795 18.5807 2.4795C13.7707 2.4795 10.6107 -0.0005 5.5407 -0.0005C3.4007 -0.0005 2.6007 0.2295 1.5607 0.6995C0.6107 1.1195 0.0007 1.8295 0.0007 3.0795V25.7995C0.0007 26.3595 0.4807 26.8195 1.0407 26.8195ZM2.0807 11.9495V7.3095C2.2707 6.8595 3.4007 6.2295 5.5407 6.2295C5.9707 6.2295 6.5807 6.2595 7.0507 6.3195V2.1495C8.9007 2.3395 10.5307 2.8695 12.1907 3.3595V7.5295C13.8907 8.0495 15.4807 8.4895 17.3207 8.6495V4.4795C17.7307 4.5295 18.1407 4.5395 18.5807 4.5395C20.0707 4.5395 21.3007 4.3595 22.2207 4.0995V8.2695C21.5307 8.4595 20.2207 8.7095 18.5807 8.7095C18.1607 8.7095 17.7207 8.6795 17.3207 8.6495V13.2895C17.7207 13.3295 18.1007 13.3395 18.5807 13.3395C20.0707 13.3395 21.3007 13.1695 22.2207 12.9095V16.8895C22.0207 17.3395 20.8907 17.9695 18.7607 17.9695C18.2607 17.9695 17.7907 17.9395 17.3207 17.8795V13.2895C15.4807 13.0795 13.9407 12.7395 12.1907 12.1695V16.6395C10.6107 16.1595 8.9707 15.6995 7.0507 15.5295V10.9495C6.5307 10.8995 6.1807 10.8695 5.5407 10.8695C3.4007 10.8695 2.2707 11.4995 2.0807 11.9495ZM7.0507 10.9495C8.9407 11.1595 10.3807 11.6395 12.1907 12.1695V7.5295C10.4907 7.0295 8.9507 6.5095 7.0507 6.3195Z"
        fillRule="evenodd"
        clipRule="evenodd"
    />
</svg>
        