
<svg
    viewBox="0 0 27.890625 27.890625"
    xmlns="http://www.w3.org/2000/svg"
>
    <path
        fill="inherit"
        d="M13.9427 27.8864C21.6427 27.8864 27.8927 21.6464 27.8927 13.9464C27.8927 6.2464 21.6427 -0.0036 13.9427 -0.0036C6.2527 -0.0036 0.0027 6.2464 0.0027 13.9464C0.0027 21.6464 6.2527 27.8864 13.9427 27.8864ZM13.9427 25.5664C7.5227 25.5664 2.3227 20.3664 2.3227 13.9464C2.3227 7.5164 7.5227 2.3264 13.9427 2.3264C20.3727 2.3264 25.5627 7.5164 25.5627 13.9464C25.5627 20.3664 20.3727 25.5664 13.9427 25.5664ZM8.7327 21.2964C9.1027 21.2964 9.3527 21.0164 9.3527 20.6764V16.6364C9.6127 16.5264 10.1427 16.3664 10.9927 16.3664C13.4227 16.3664 14.9527 17.5664 17.3227 17.5664C18.3627 17.5664 18.7827 17.4564 19.3027 17.2164C19.8827 16.9564 20.1427 16.5564 20.1427 15.9364V9.1964C20.1427 8.8064 19.9327 8.5164 19.3727 8.5164C18.9727 8.5164 18.3727 8.8064 17.2527 8.8064C14.9327 8.8064 13.3827 7.5864 10.9227 7.5864C9.8527 7.5864 9.4327 7.7064 8.9427 7.9264C8.3827 8.1764 8.0927 8.6164 8.0927 9.1964V20.6764C8.0927 20.9964 8.3927 21.2964 8.7327 21.2964Z"
        fillRule="evenodd"
        clipRule="evenodd"
    />
</svg>
        