
<svg
    viewBox={0 0 27.890625 27.890625}
    xmlns="http://www.w3.org/2000/svg"
>
    <path
        fill="inherit"
        d="M13.9427 27.8864C21.6427 27.8864 27.8927 21.6464 27.8927 13.9464C27.8927 6.2464 21.6427 -0.0036 13.9427 -0.0036C6.2527 -0.0036 0.0027 6.2464 0.0027 13.9464C0.0027 21.6464 6.2527 27.8864 13.9427 27.8864ZM13.9427 25.5664C7.5227 25.5664 2.3227 20.3664 2.3227 13.9464C2.3227 7.5164 7.5227 2.3264 13.9427 2.3264C20.3727 2.3264 25.5627 7.5164 25.5627 13.9464C25.5627 20.3664 20.3727 25.5664 13.9427 25.5664ZM14.0027 22.4064C17.9227 22.4064 20.5327 19.7464 20.5327 15.7464C20.5327 9.0964 14.8727 6.3164 10.9527 6.3164C10.2527 6.3164 9.8127 6.5864 9.8127 7.0564C9.8127 7.2464 9.9027 7.4264 10.0527 7.6164C10.9127 8.6564 11.8127 9.9164 11.8227 11.3764C11.8227 11.5764 11.8127 11.7564 11.7627 11.9464C11.3427 11.0764 10.5827 10.4864 9.9027 10.4864C9.5927 10.4864 9.3927 10.7164 9.3927 11.0464C9.3927 11.2264 9.4427 11.6864 9.4427 12.0264C9.4427 13.6864 8.1727 14.6664 8.1727 17.3364C8.1727 20.3664 10.4827 22.4064 14.0027 22.4064ZM14.1827 20.3164C12.7927 20.3164 11.8527 19.4664 11.8527 18.2064C11.8527 16.9164 12.7927 16.4464 12.9227 15.6164C12.9227 15.5264 12.9727 15.5164 13.0327 15.5764C13.3727 15.8564 13.5727 16.2464 13.7827 16.6664C14.1827 16.1364 14.3527 15.0164 14.2327 13.8064C14.2227 13.7164 14.2627 13.6964 14.3327 13.7164C15.9727 14.4764 16.7927 16.1064 16.7927 17.5364C16.7927 19.0064 15.9427 20.3164 14.1827 20.3164Z"
        fillRule="evenodd"
        clipRule="evenodd"
    />
</svg>
        