
<svg
    viewBox={0 0 22.77734375 29.572265625}
    xmlns="http://www.w3.org/2000/svg"
>
    <path
        fill="inherit"
        d="M10.7427 29.5745C17.9627 29.5745 22.7727 24.6945 22.7727 17.3345C22.7727 5.1045 12.3627 0.0045 5.1227 0.0045C3.8427 0.0045 3.0227 0.4545 3.0227 1.3245C3.0227 1.6645 3.1727 2.0245 3.4627 2.3545C5.0827 4.2945 6.7127 6.6045 6.7427 9.2945C6.7427 9.6345 6.7127 9.9645 6.6127 10.3245C5.8627 8.7245 4.4527 7.6545 3.2027 7.6545C2.6427 7.6545 2.2527 8.0645 2.2527 8.6845C2.2527 9.0345 2.3527 9.8745 2.3527 10.4745C2.3527 13.5345 0.0027 15.3245 0.0027 20.2645C0.0027 25.8545 4.2827 29.5745 10.7427 29.5745ZM10.8827 27.6545C5.5227 27.6545 1.9327 24.6745 1.9327 20.2645C1.9327 15.7745 4.3427 14.2645 4.3427 10.7045C4.3427 10.5245 4.3427 10.3645 4.3227 10.1945C5.1527 10.9145 5.7527 12.0145 6.1227 13.5945C6.1827 13.8745 6.3427 14.0145 6.5527 14.0145C7.6527 14.0145 8.4527 11.2645 8.4527 9.5245C8.4527 6.6345 7.2827 3.8545 5.3727 1.8445C14.7227 2.3945 20.7627 8.7945 20.7627 17.2645C20.7627 23.4745 16.8027 27.6545 10.8827 27.6545ZM11.0627 25.7345C14.3127 25.7345 15.9027 23.3345 15.9027 20.6345C15.9027 17.9645 14.3427 14.9845 11.3427 13.5745C11.2227 13.5345 11.1427 13.6045 11.1527 13.7245C11.3927 15.9645 11.0427 18.0445 10.3227 19.0345C9.9827 18.2345 9.5727 17.5545 8.9427 16.9945C8.8427 16.9145 8.7627 16.9545 8.7327 17.0745C8.5127 18.6245 6.8127 19.4845 6.8127 21.8845C6.8127 24.1845 8.5027 25.7345 11.0627 25.7345Z"
        fillRule="evenodd"
        clipRule="evenodd"
    />
</svg>
        