
<svg
    viewBox={0 0 27.890625 27.890625}
    xmlns="http://www.w3.org/2000/svg"
>
    <path
        fill="inherit"
        d="M13.9427 27.8927C21.6427 27.8927 27.8927 21.6427 27.8927 13.9427C27.8927 6.2627 21.6427 0.0027 13.9427 0.0027C6.2627 0.0027 0.0027 6.2627 0.0027 13.9427C0.0027 21.6427 6.2627 27.8927 13.9427 27.8927ZM10.1827 6.6627V6.3827C10.1827 5.3827 10.6827 4.8827 11.6627 4.8827H16.2127C17.2127 4.8827 17.7027 5.3827 17.7027 6.3827V6.6627ZM13.2027 23.0127C12.2627 23.0127 11.7627 22.4927 11.7627 21.5027V12.6227C11.7627 11.7627 11.5627 11.1827 11.2527 10.7027L10.8127 10.0227C10.4327 9.4327 10.1827 8.9227 10.1827 8.2327V7.5227H17.7027V8.2327C17.7027 8.9227 17.4627 9.4327 17.0727 10.0227L16.6427 10.7027C16.3227 11.1827 16.1427 11.7627 16.1427 12.6227V21.5027C16.1427 22.4927 15.6227 23.0127 14.6727 23.0127ZM12.5927 13.3427V15.6527C12.5927 16.3927 13.1827 17.0127 13.9427 17.0127C14.7127 17.0127 15.3027 16.3927 15.3027 15.6527V13.3427C15.3027 12.5927 14.7127 11.9927 13.9427 11.9927C13.1827 11.9927 12.5927 12.5927 12.5927 13.3427ZM13.9427 16.5327C13.4527 16.5327 13.0827 16.1427 13.0827 15.6527C13.0827 15.1727 13.4627 14.7827 13.9427 14.7827C14.4327 14.7827 14.8027 15.1727 14.8027 15.6527C14.8027 16.1427 14.4627 16.5327 13.9427 16.5327Z"
        fillRule="evenodd"
        clipRule="evenodd"
    />
</svg>
        