<svg viewBox="0 0 13.412109375 32.3203125" xmlns="http://www.w3.org/2000/svg"><path d="M0.0037 3.1612H13.4137V2.6913C13.4137 0.8712 12.5237 0.0012 10.7737 0.0012H2.6237C0.8737 0.0012 0.0037 0.8712 0.0037 2.6913ZM5.4237 32.3213H7.9837C9.7037 32.3213 10.6237 31.4013 10.6237 29.6313V13.7713C10.6237 12.2513 10.9637 11.2213 11.5137 10.3813L12.2937 9.1612C12.9637 8.1112 13.4137 7.2013 13.4137 5.9913V4.7413H0.0037V5.9913C0.0037 7.2013 0.4537 8.1112 1.1237 9.1612L1.9037 10.3813C2.4437 11.2213 2.7937 12.2513 2.7937 13.7713V29.6313C2.7937 31.4013 3.7037 32.3213 5.4237 32.3213ZM4.2937 19.1913V15.0713C4.2937 13.7313 5.3437 12.6613 6.7137 12.6613C8.0637 12.6613 9.1237 13.7313 9.1237 15.0713V19.1913C9.1237 20.5513 8.0637 21.6013 6.7137 21.6013C5.3437 21.6013 4.2937 20.5513 4.2937 19.1913ZM6.7137 13.5213C5.8137 13.5213 5.1437 14.1813 5.1437 15.0713C5.1437 15.9313 5.8337 16.6213 6.7137 16.6213C7.5737 16.6213 8.2737 15.9313 8.2737 15.0713C8.2737 14.1813 7.6137 13.5213 6.7137 13.5213Z" /></svg>