
<svg
    viewBox="0 0 27.890625 27.890625"
    xmlns="http://www.w3.org/2000/svg"
>
    <path
        fill="inherit"
        d="M13.9427 27.8864C21.6427 27.8864 27.8927 21.6464 27.8927 13.9464C27.8927 6.2464 21.6427 -0.0036 13.9427 -0.0036C6.2527 -0.0036 0.0027 6.2464 0.0027 13.9464C0.0027 21.6464 6.2527 27.8864 13.9427 27.8864ZM13.9427 25.5664C7.5227 25.5664 2.3227 20.3664 2.3227 13.9464C2.3227 7.5164 7.5227 2.3264 13.9427 2.3264C20.3727 2.3264 25.5627 7.5164 25.5627 13.9464C25.5627 20.3664 20.3727 25.5664 13.9427 25.5664ZM10.2927 6.8764H17.5927V6.6164C17.5927 5.6464 17.1127 5.1564 16.1427 5.1564H11.7327C10.7727 5.1564 10.2927 5.6464 10.2927 6.6164ZM13.2327 22.7364H14.6427C15.5727 22.7364 16.0827 22.2264 16.0827 21.2764V12.6564C16.0827 11.8264 16.2527 11.2664 16.5527 10.7964L16.9827 10.1464C17.3527 9.5664 17.5927 9.0664 17.5927 8.4064V7.7064H10.2927V8.4064C10.2927 9.0664 10.5427 9.5664 10.9127 10.1464L11.3327 10.7964C11.6327 11.2664 11.8227 11.8264 11.8227 12.6564V21.2764C11.8227 22.2264 12.3227 22.7364 13.2327 22.7364ZM12.6327 15.5964V13.3564C12.6327 12.6364 13.2027 12.0464 13.9427 12.0464C14.6827 12.0464 15.2627 12.6364 15.2627 13.3564V15.5964C15.2627 16.3364 14.6827 16.9164 13.9427 16.9164C13.2027 16.9164 12.6327 16.3364 12.6327 15.5964ZM13.9427 12.5264C13.4627 12.5264 13.1127 12.8964 13.1127 13.3564C13.1127 13.8264 13.4827 14.2064 13.9427 14.2064C14.4227 14.2064 14.7827 13.8264 14.7827 13.3564C14.7827 12.8964 14.4527 12.5264 13.9427 12.5264Z"
        fillRule="evenodd"
        clipRule="evenodd"
    />
</svg>
        