
<svg
    viewBox="0 0 26.140625 28.669921875"
    xmlns="http://www.w3.org/2000/svg"
>
    <path
        fill="inherit"
        d="M3.7309 28.6729H22.4109C24.7309 28.6729 26.1409 27.0529 26.1409 24.9629C26.1409 24.2629 25.8009 23.3329 25.1609 22.4129L18.2109 12.4429V2.2929H18.2909C18.9809 2.2929 19.4509 1.7629 19.4509 1.1329C19.4509 0.5029 18.9809 0.0029 18.2909 0.0029H7.8309C7.1509 0.0029 6.6809 0.5029 6.6809 1.1329C6.6809 1.7629 7.1509 2.2929 7.8309 2.2929H7.9309V12.4429L0.8609 22.5829C0.2909 23.4029 0.0009 24.2629 0.0009 24.9629C0.0009 27.0529 1.4109 28.6729 3.7309 28.6729ZM10.1209 5.8329V4.2429H12.5909C13.0309 4.2429 13.4009 4.6029 13.4009 5.0329C13.4009 5.4929 13.0609 5.8329 12.6009 5.8329ZM10.1209 9.7529V8.1529H12.6009C13.0409 8.1529 13.4109 8.5029 13.4109 8.9229C13.4109 9.3929 13.0709 9.7529 12.6209 9.7529ZM10.1209 13.6429V12.0429H12.6209C13.0609 12.0429 13.4109 12.4129 13.4109 12.8329C13.4109 13.3029 13.0709 13.6429 12.6209 13.6429Z"
        fillRule="evenodd"
        clipRule="evenodd"
    />
</svg>
        