
<svg
    viewBox={0 0 27.890625 27.890625}
    xmlns="http://www.w3.org/2000/svg"
>
    <path
        fill="inherit"
        d="M13.9427 27.8927C21.6427 27.8927 27.8927 21.6427 27.8927 13.9427C27.8927 6.2627 21.6427 0.0027 13.9427 0.0027C6.2627 0.0027 0.0027 6.2627 0.0027 13.9427C0.0027 21.6427 6.2627 27.8927 13.9427 27.8927ZM10.1827 6.6627V6.3827C10.1827 5.3827 10.6627 4.8827 11.6627 4.8827H16.2127C17.2127 4.8827 17.6927 5.3827 17.6927 6.3827V6.6627ZM20.3027 21.2227L6.6627 7.5727C6.4227 7.3427 6.4127 6.9327 6.6627 6.6727C6.9227 6.4227 7.3327 6.4227 7.5727 6.6727L21.2027 20.3127C21.4527 20.5627 21.4527 20.9427 21.2027 21.2227C20.9627 21.4527 20.5327 21.4527 20.3027 21.2227ZM16.1327 13.8227L10.1827 7.8727V7.5227H17.6927V8.2327C17.6927 8.9227 17.4627 9.4327 17.0727 10.0227L16.6227 10.7027C16.3127 11.1827 16.1327 11.7627 16.1327 12.6227ZM11.7427 14.0827L16.1327 18.4427V21.5027C16.1327 22.4927 15.6127 23.0127 14.6727 23.0127H13.2027C12.2627 23.0127 11.7427 22.4927 11.7427 21.5027Z"
        fillRule="evenodd"
        clipRule="evenodd"
    />
</svg>
        