
<svg
    viewBox={0 0 27.890625 27.890625}
    xmlns="http://www.w3.org/2000/svg"
>
    <path
        fill="inherit"
        d="M13.9427 27.8864C21.6427 27.8864 27.8927 21.6464 27.8927 13.9464C27.8927 6.2464 21.6427 -0.0036 13.9427 -0.0036C6.2527 -0.0036 0.0027 6.2464 0.0027 13.9464C0.0027 21.6464 6.2527 27.8864 13.9427 27.8864ZM13.9427 25.5664C7.5227 25.5664 2.3227 20.3664 2.3227 13.9464C2.3227 7.5164 7.5227 2.3264 13.9427 2.3264C20.3727 2.3264 25.5627 7.5164 25.5627 13.9464C25.5627 20.3664 20.3727 25.5664 13.9427 25.5664ZM10.2927 6.8764H17.5827V6.6164C17.5827 5.6464 17.1127 5.1564 16.1427 5.1564H11.7327C10.7627 5.1564 10.2927 5.6464 10.2927 6.6164ZM20.1127 20.9964C20.3427 21.2364 20.7527 21.2364 20.9827 20.9964C21.2327 20.7364 21.2327 20.3664 20.9827 20.1264L7.7627 6.8864C7.5227 6.6464 7.1227 6.6464 6.8727 6.8864C6.6327 7.1264 6.6427 7.5364 6.8727 7.7664ZM16.0627 13.8364V12.6564C16.0627 11.8264 16.2427 11.2664 16.5427 10.7964L16.9827 10.1464C17.3527 9.5664 17.5827 9.0664 17.5827 8.4064V7.7064H10.2927V8.0564ZM11.8127 14.0664V21.2764C11.8127 22.2264 12.3227 22.7364 13.2327 22.7364H14.6427C15.5627 22.7364 16.0627 22.2264 16.0627 21.2764V18.3064Z"
        fillRule="evenodd"
        clipRule="evenodd"
    />
</svg>
        