
<svg
    viewBox={0 0 26.1953125 30.064453125}
    xmlns="http://www.w3.org/2000/svg"
>
    <path
        fill="inherit"
        d="M2.3537 17.5251C2.3537 23.5851 6.8037 30.0651 15.6837 30.0651C19.5137 30.0651 22.4337 28.2551 22.4337 25.9951C22.4337 24.9251 21.6837 24.1151 20.2437 23.9551C19.8837 23.8951 19.5137 24.0451 19.4437 24.4951C19.2137 26.3851 17.9137 27.7251 16.1637 27.7251C14.9137 27.7251 14.1537 26.9851 14.1537 26.0351C14.1537 22.8151 23.6837 22.1251 23.6837 16.0651C23.6837 13.0851 21.5737 11.0151 18.7737 11.0151C17.1437 11.0151 15.7337 11.5951 14.6837 12.5551C15.2137 10.9351 16.0537 9.5451 16.6937 8.1051C17.9537 8.6151 19.3037 8.9251 20.7937 8.9251C24.2237 8.9251 26.1937 6.7851 26.1937 4.0151C26.1937 3.1051 25.9637 2.0951 25.4737 1.1451C24.8737 -0.0149 23.0737 0.7551 23.7437 2.0351C24.1337 2.7751 24.3337 3.5251 24.3337 4.1951C24.3337 5.8951 23.1237 6.9951 20.7937 6.9951C19.5937 6.9951 18.4537 6.6951 17.3537 6.2251C17.5037 5.6351 17.5937 5.0051 17.5937 4.3351C17.5937 1.9451 15.9437 -0.0049 13.7537 -0.0049C12.2937 -0.0049 11.0437 0.8351 10.5037 2.0751C8.9537 1.1851 7.3737 0.5451 5.6637 0.5451C2.1237 0.5451 0.0037 2.8851 0.0037 5.6151C0.0037 6.5051 0.2037 7.4151 0.6737 8.2951C1.2737 9.4451 3.0337 8.6551 2.3937 7.4151C2.0337 6.7251 1.8737 6.0551 1.8737 5.4551C1.8737 3.7451 3.2137 2.4751 5.6637 2.4751C8.5537 2.4751 11.3937 5.3351 14.8937 7.2451C14.2437 8.6651 13.3537 10.1951 12.7937 12.1451C12.1037 10.4351 10.5237 9.5151 8.7337 9.5151C4.5837 9.5151 2.3537 13.1951 2.3537 17.5251ZM13.7537 1.9251C14.8737 1.9251 15.6637 2.8951 15.6637 4.3351C15.6637 4.6651 15.6237 4.9951 15.5537 5.3051C14.4137 4.6351 13.2737 3.8451 12.1437 3.0851C12.4037 2.3651 12.9737 1.9251 13.7537 1.9251ZM4.4137 17.5251C4.4137 13.7951 6.0037 11.5751 8.5837 11.5751C10.8037 11.5751 12.0837 13.5651 12.1637 16.0751C12.1937 17.0351 13.3737 17.0651 13.7037 16.4051C14.8337 14.1951 16.7937 13.0851 18.7337 13.0851C20.4237 13.0851 21.6137 14.2751 21.6137 16.2051C21.6137 20.6951 12.1237 21.2851 12.1237 26.0351C12.1237 26.6751 12.3737 27.2751 12.7937 27.7451C7.1637 26.6451 4.4137 22.2751 4.4137 17.5251Z"
        fillRule="evenodd"
        clipRule="evenodd"
    />
</svg>
        