<svg viewBox="0 0 19.126953125 28.1640625" xmlns="http://www.w3.org/2000/svg"><path d="M9.5737 28.1595C15.4637 28.1595 19.1237 24.7695 19.1237 18.8795V7.6595C19.1237 5.4795 17.6937 4.0995 15.4037 4.0995H2.2037V1.1095C2.2037 0.5095 1.7137 -0.0005 1.0937 -0.0005C0.4937 -0.0005 0.0037 0.5095 0.0037 1.1095V18.8795C0.0037 24.7695 3.6637 28.1595 9.5737 28.1595ZM9.5737 26.0195C5.0737 26.0195 2.2037 23.4595 2.2037 19.0295V6.2995H15.1237C16.2737 6.2995 16.9237 6.9295 16.9237 8.0095V19.0295C16.9237 23.4595 14.0637 26.0195 9.5737 26.0195ZM4.7737 16.8995H14.3537C15.1037 16.8995 15.5537 16.4495 15.5537 15.7195V8.8595C15.5537 8.1195 15.1037 7.6695 14.3537 7.6695H4.7737C4.0337 7.6695 3.5637 8.1195 3.5637 8.8595V15.7195C3.5637 16.4495 4.0337 16.8995 4.7737 16.8995ZM7.6337 23.6695H11.4337C11.9537 23.6695 12.3637 23.2595 12.3637 22.7395C12.3637 22.2195 11.9537 21.8095 11.4337 21.8095H7.6337C7.1237 21.8095 6.7037 22.2195 6.7037 22.7395C6.7037 23.2595 7.1237 23.6695 7.6337 23.6695Z" /></svg>