
<svg
    viewBox={0 0 30.529296875 29.17578125}
    xmlns="http://www.w3.org/2000/svg"
>
    <path
        fill="inherit"
        d="M1.8137 25.919H28.7137V25.009C28.7137 24.459 28.3937 24.129 27.8337 24.129H26.9637V9.379H28.1637C28.9137 9.379 29.3537 8.829 29.3537 8.269C29.3537 7.859 29.1237 7.509 28.6137 7.219L16.9437 0.479C16.3937 0.169 15.8137 -0.001 15.2537 -0.001C14.6937 -0.001 14.1137 0.169 13.5937 0.479L1.9137 7.219C1.3937 7.509 1.1737 7.859 1.1737 8.269C1.1737 8.829 1.6137 9.379 2.3637 9.379H3.5637V24.129H2.7037C2.1437 24.129 1.8137 24.459 1.8137 25.009ZM5.6337 24.129V7.629L14.7237 2.529C14.8937 2.429 15.0837 2.379 15.2537 2.379C15.4337 2.379 15.6237 2.429 15.8037 2.529L24.8937 7.629V24.129ZM11.9637 20.519C14.1137 20.519 15.1437 19.419 15.4737 17.319L15.9237 14.659H18.8637C19.2137 14.659 19.4537 14.439 19.4537 14.119C19.4537 13.799 19.2137 13.559 18.8637 13.559H16.1037L16.4437 11.539C16.6637 10.249 17.3237 9.629 18.6037 9.629C19.1137 9.629 19.4437 9.739 19.7537 9.739C20.1637 9.739 20.3737 9.529 20.3737 9.169C20.3737 8.829 20.1137 8.599 19.7837 8.479C19.4137 8.309 18.8537 8.269 18.4737 8.269C16.3937 8.269 15.2337 9.349 14.9037 11.419L14.5337 13.559H11.7737C11.4337 13.559 11.1937 13.799 11.1937 14.119C11.1937 14.439 11.4337 14.659 11.7737 14.659H14.3537L13.9437 17.129C13.7237 18.459 13.1637 19.159 11.8137 19.159C11.2637 19.159 11.1037 19.069 10.6137 19.069C10.2637 19.069 10.0537 19.309 10.0537 19.619C10.0537 19.979 10.2637 20.179 10.6137 20.329C11.0037 20.499 11.5437 20.519 11.9637 20.519ZM1.0937 29.179H29.4237C30.0237 29.179 30.5337 28.669 30.5337 28.069C30.5337 27.469 30.0237 26.979 29.4237 26.979H1.0937C0.4937 26.979 0.0037 27.469 0.0037 28.069C0.0037 28.669 0.4937 29.179 1.0937 29.179Z"
        fillRule="evenodd"
        clipRule="evenodd"
    />
</svg>
        