
<svg
    viewBox={0 0 30.529296875 29.17578125}
    xmlns="http://www.w3.org/2000/svg"
>
    <path
        fill="inherit"
        d="M1.0937 29.179H29.4237C30.0237 29.179 30.5337 28.669 30.5337 28.069C30.5337 27.469 30.0237 26.979 29.4237 26.979H28.7137V25.979C28.7137 25.429 28.3937 25.099 27.8337 25.099H26.9637V9.379H28.1637C28.9137 9.379 29.3537 8.829 29.3537 8.269C29.3537 7.859 29.1237 7.509 28.6137 7.219L16.9437 0.479C16.3937 0.169 15.8137 -0.001 15.2537 -0.001C14.6937 -0.001 14.1137 0.169 13.5937 0.479L1.9137 7.219C1.3937 7.509 1.1737 7.859 1.1737 8.269C1.1737 8.829 1.6137 9.379 2.3637 9.379H3.5637V25.099H2.7037C2.1437 25.099 1.8137 25.429 1.8137 25.979V26.979H1.0937C0.4937 26.979 0.0037 27.469 0.0037 28.069C0.0037 28.669 0.4937 29.179 1.0937 29.179ZM11.8537 21.929C11.4137 21.929 10.8737 21.899 10.4637 21.739C10.1037 21.589 9.8837 21.379 9.8837 20.999C9.8837 20.669 10.1037 20.449 10.4637 20.449C10.9737 20.449 11.1437 20.539 11.7037 20.539C13.0937 20.539 13.6737 19.809 13.9037 18.439L14.3237 15.899H11.6637C11.3037 15.899 11.0737 15.669 11.0737 15.329C11.0737 15.009 11.3037 14.769 11.6637 14.769H14.5037L14.8937 12.549C15.2337 10.419 16.4337 9.299 18.5837 9.299C18.9737 9.299 19.5537 9.349 19.9337 9.499C20.2637 9.639 20.5337 9.869 20.5337 10.229C20.5337 10.609 20.3337 10.769 19.9437 10.799C19.5737 10.799 19.2337 10.709 18.7137 10.709C17.3937 10.709 16.7237 11.359 16.4837 12.669L16.1337 14.769H18.9737C19.3337 14.769 19.5937 15.009 19.5937 15.329C19.5937 15.669 19.3337 15.899 18.9737 15.899H15.9537L15.4937 18.639C15.1437 20.799 14.0837 21.929 11.8537 21.929Z"
        fillRule="evenodd"
        clipRule="evenodd"
    />
</svg>
        