
<svg
    viewBox="0 0 32.935546875 27.26189615322232"
    xmlns="http://www.w3.org/2000/svg"
>
    <path
        fill="inherit"
        d="M32.9327 16.3992C32.9327 7.7792 26.3227 0.7192 17.8927 -0.0008C17.4627 -0.0408 17.1327 0.2792 17.1327 0.7192V5.1892C17.1327 5.5592 17.3927 5.8392 17.7627 5.8692C22.9927 6.5092 27.0727 10.9792 27.0727 16.3992C27.0727 18.8592 26.2227 21.1292 24.7327 23.0292C24.5427 23.2592 24.5527 23.5592 24.7627 23.7792L28.0227 27.0292C28.3327 27.3292 28.7927 27.3292 29.0627 27.0092C31.4827 24.1392 32.9327 20.4292 32.9327 16.3992ZM0.0027 16.3992C0.0027 20.4392 1.4527 24.1492 3.8727 27.0192C4.1427 27.3492 4.5927 27.3292 4.9127 27.0292L8.1727 23.7792C8.3827 23.5592 8.3927 23.2592 8.2027 23.0292C6.7027 21.1292 5.8627 18.8592 5.8627 16.3992C5.8627 10.9792 9.9427 6.5092 15.1727 5.8692C15.5427 5.8392 15.8027 5.5592 15.8027 5.1892V0.7192C15.8027 0.2792 15.4727 -0.0408 15.0427 -0.0008C6.6127 0.7192 0.0027 7.7792 0.0027 16.3992ZM13.1427 22.7092C15.2827 22.7092 16.3227 21.6092 16.6627 19.5092L17.1027 16.8492H20.0527C20.3827 16.8492 20.6327 16.6292 20.6327 16.3092C20.6327 15.9892 20.3827 15.7492 20.0527 15.7492H17.2827L17.6227 13.7292C17.8427 12.4492 18.5027 11.8192 19.7927 11.8192C20.2927 11.8192 20.6327 11.9292 20.9327 11.9292C21.3427 11.9292 21.5627 11.7192 21.5627 11.3692C21.5627 11.0192 21.2827 10.7892 20.9727 10.6692C20.5927 10.4992 20.0327 10.4592 19.6627 10.4592C17.5827 10.4592 16.4227 11.5392 16.0827 13.6092L15.7227 15.7492H12.9627C12.6227 15.7492 12.3727 15.9892 12.3727 16.3092C12.3727 16.6292 12.6227 16.8492 12.9627 16.8492H15.5427L15.1227 19.3192C14.9027 20.6492 14.3427 21.3492 12.9927 21.3492C12.4427 21.3492 12.2727 21.2592 11.7827 21.2592C11.4427 21.2592 11.2227 21.4992 11.2227 21.8092C11.2227 22.1692 11.4427 22.3692 11.8027 22.5192C12.1827 22.6892 12.7127 22.7092 13.1427 22.7092Z"
        fillRule="evenodd"
        clipRule="evenodd"
    />
</svg>
        