<svg viewBox="0 0 25.169921875 25.169921875" xmlns="http://www.w3.org/2000/svg"><path d="M4.2937 25.1692H20.8737C23.7437 25.1692 25.1737 23.7592 25.1737 20.9492V4.2392C25.1737 1.4192 23.7437 -0.0008 20.8737 -0.0008H4.2937C1.4337 -0.0008 0.0037 1.4192 0.0037 4.2392V20.9492C0.0037 23.7592 1.4337 25.1692 4.2937 25.1692ZM4.3237 22.9692C2.9537 22.9692 2.2037 22.2392 2.2037 20.8192V4.3592C2.2037 2.9392 2.9537 2.1992 4.3237 2.1992H20.8537C22.2037 2.1992 22.9737 2.9392 22.9737 4.3592V20.8192C22.9737 22.2392 22.2037 22.9692 20.8537 22.9692ZM9.2837 18.6992C11.4337 18.6992 12.4737 17.5992 12.8137 15.4992L13.2437 12.8492H16.1837C16.5337 12.8492 16.7737 12.6292 16.7737 12.3092C16.7737 11.9892 16.5337 11.7592 16.1837 11.7592H13.4237L13.7637 9.7392C13.9837 8.4492 14.6437 7.8192 15.9237 7.8192C16.4337 7.8192 16.7737 7.9292 17.0737 7.9292C17.4837 7.9292 17.7037 7.7292 17.7037 7.3592C17.7037 7.0092 17.4337 6.7992 17.1037 6.6692C16.7337 6.5092 16.1737 6.4492 15.8037 6.4492C13.7137 6.4492 12.5637 7.5492 12.2237 9.6092L11.8537 11.7592H9.0937C8.7637 11.7592 8.5137 11.9892 8.5137 12.3092C8.5137 12.6292 8.7637 12.8492 9.0937 12.8492H11.6937L11.2637 15.3292C11.0437 16.6492 10.4837 17.3492 9.1337 17.3492C8.5837 17.3492 8.4237 17.2692 7.9337 17.2692C7.5837 17.2692 7.3737 17.4992 7.3737 17.7992C7.3737 18.1692 7.5837 18.3792 7.9337 18.5092C8.3237 18.6892 8.8637 18.6992 9.2837 18.6992Z" /></svg>