
<svg
    viewBox="0 0 20.576171875 24.5"
    xmlns="http://www.w3.org/2000/svg"
>
    <path
        fill="inherit"
        d="M3.7737 24.5011C8.0237 24.5011 10.0337 22.1911 10.7237 18.1311L11.6637 12.6711H17.6737C18.3037 12.6711 18.7537 12.2611 18.7537 11.6611C18.7537 11.0311 18.3037 10.5811 17.6737 10.5811H12.0037L12.7037 6.5111C13.1637 3.8711 14.4137 2.5411 17.0937 2.5411C18.1737 2.5411 18.6637 2.7911 19.4937 2.7911C20.1537 2.7911 20.5737 2.4111 20.5737 1.7411C20.5737 1.0511 19.9837 0.6011 19.3837 0.3811C18.5937 0.0811 17.5637 0.0011 16.8337 0.0011C12.7137 0.0011 10.4637 2.1911 9.7737 6.2611L9.0237 10.5811H3.3537C2.7237 10.5811 2.2737 11.0311 2.2737 11.6611C2.2737 12.2611 2.7237 12.6711 3.3537 12.6711H8.6837L7.8037 17.7911C7.3237 20.4811 6.2437 21.9311 3.4737 21.9311C2.6237 21.9311 1.7337 21.7211 1.1237 21.7211C0.4637 21.7211 0.0037 22.0911 0.0037 22.7611C0.0037 23.4211 0.4137 23.8311 1.0437 24.0911C1.8637 24.4211 2.8937 24.5011 3.7737 24.5011Z"
        fillRule="evenodd"
        clipRule="evenodd"
    />
</svg>
        