
<svg
    viewBox="0 0 25.169921875 25.169921875"
    xmlns="http://www.w3.org/2000/svg"
>
    <path
        fill="inherit"
        d="M4.2937 25.1692H20.8737C23.7437 25.1692 25.1737 23.7592 25.1737 20.9492V4.2392C25.1737 1.4192 23.7437 -0.0008 20.8737 -0.0008H4.2937C1.4337 -0.0008 0.0037 1.4192 0.0037 4.2392V20.9492C0.0037 23.7592 1.4337 25.1692 4.2937 25.1692ZM9.1737 18.8992C8.7337 18.8992 8.1937 18.8692 7.7837 18.6992C7.4237 18.5492 7.2037 18.3492 7.2037 17.9692C7.2037 17.6492 7.4237 17.4192 7.7837 17.4192C8.3037 17.4192 8.4637 17.4992 9.0237 17.4992C10.4137 17.4992 10.9937 16.7792 11.2237 15.4092L11.6637 12.8692H8.9837C8.6437 12.8692 8.3937 12.6292 8.3937 12.2892C8.3937 11.9792 8.6437 11.7292 8.9837 11.7292H11.8237L12.2137 9.5192C12.5637 7.3792 13.7537 6.2592 15.9137 6.2592C16.2937 6.2592 16.8737 6.3192 17.2537 6.4792C17.5837 6.5992 17.8737 6.8392 17.8737 7.1892C17.8737 7.5692 17.6537 7.7492 17.2637 7.7792C16.9137 7.7792 16.5537 7.6692 16.0337 7.6692C14.7137 7.6692 14.0437 8.3292 13.8037 9.6392L13.4537 11.7292H16.2937C16.6537 11.7292 16.9137 11.9792 16.9137 12.2892C16.9137 12.6292 16.6537 12.8692 16.2937 12.8692H13.2737L12.8237 15.5992C12.4737 17.7592 11.4037 18.8992 9.1737 18.8992Z"
        fillRule="evenodd"
        clipRule="evenodd"
    />
</svg>
        