
<svg
    viewBox={0 0 30.544813437289534 27.890625}
    xmlns="http://www.w3.org/2000/svg"
>
    <path
        fill="inherit"
        d="M0.9769 11.3064C-0.0131 11.3064 -0.2531 11.9764 0.2769 12.7464L3.3369 17.0864C3.7869 17.7164 4.4469 17.7064 4.8869 17.0864L7.9269 12.7264C8.4669 11.9764 8.2069 11.3064 7.2469 11.3064H5.2769C6.4669 6.1564 11.0769 2.3264 16.5969 2.3264C23.0269 2.3264 28.2169 7.5164 28.2169 13.9464C28.2169 20.3664 23.0269 25.5664 16.5969 25.5664C12.7169 25.5664 9.2569 23.6564 7.1969 20.7564C6.7669 20.1964 6.1269 20.0164 5.5569 20.3564C5.0069 20.6964 4.8369 21.4664 5.3069 22.0664C7.8369 25.6064 11.9769 27.8864 16.5969 27.8864C24.2969 27.8864 30.5469 21.6464 30.5469 13.9464C30.5469 6.2464 24.2969 -0.0036 16.5969 -0.0036C9.8069 -0.0036 4.1269 4.8664 2.8969 11.3064ZM13.2869 20.0664C15.4369 20.0664 16.4769 18.9664 16.8169 16.8664L17.2569 14.2164H20.1969C20.5369 14.2164 20.7869 13.9964 20.7869 13.6764C20.7869 13.3564 20.5369 13.1264 20.1969 13.1264H17.4369L17.7769 11.1064C17.9969 9.8164 18.6469 9.1864 19.9369 9.1864C20.4369 9.1864 20.7669 9.2964 21.0869 9.2964C21.4969 9.2964 21.7169 9.0964 21.7169 8.7264C21.7169 8.3764 21.4369 8.1664 21.1069 8.0364C20.7469 7.8764 20.1769 7.8164 19.8169 7.8164C17.7169 7.8164 16.5769 8.9164 16.2269 10.9764L15.8569 13.1264H13.0969C12.7569 13.1264 12.5269 13.3564 12.5269 13.6764C12.5269 13.9964 12.7569 14.2164 13.0969 14.2164H15.6969L15.2769 16.6964C15.0569 18.0164 14.4969 18.7164 13.1369 18.7164C12.5969 18.7164 12.4269 18.6364 11.9369 18.6364C11.5969 18.6364 11.3769 18.8664 11.3769 19.1664C11.3769 19.5364 11.5969 19.7464 11.9369 19.8764C12.3369 20.0564 12.8669 20.0664 13.2869 20.0664Z"
        fillRule="evenodd"
        clipRule="evenodd"
    />
</svg>
        