
<svg
    viewBox={0 0 30.5703125 30.5703125}
    xmlns="http://www.w3.org/2000/svg"
>
    <path
        fill="inherit"
        d="M15.2827 30.5663C23.6827 30.5663 30.5727 23.6763 30.5727 15.2863C30.5727 6.8863 23.6827 -0.0038 15.2827 -0.0038C6.8927 -0.0038 0.0027 6.8863 0.0027 15.2863C0.0027 23.6763 6.8927 30.5663 15.2827 30.5663ZM15.2827 25.4862C9.6527 25.4862 5.0827 20.9162 5.0827 15.2863C5.0827 9.6363 9.6527 5.0863 15.2827 5.0863C20.9327 5.0863 25.4827 9.6363 25.4827 15.2863C25.4827 20.9162 20.9327 25.4862 15.2827 25.4862ZM11.9727 21.4063C14.1227 21.4063 15.1627 20.3063 15.5027 18.2063L15.9427 15.5563H18.8827C19.2227 15.5563 19.4727 15.3363 19.4727 15.0163C19.4727 14.6963 19.2227 14.4663 18.8827 14.4663H16.1227L16.4627 12.4462C16.6827 11.1563 17.3327 10.5262 18.6227 10.5262C19.1227 10.5262 19.4727 10.6363 19.7727 10.6363C20.1827 10.6363 20.4027 10.4363 20.4027 10.0663C20.4027 9.7163 20.1227 9.5063 19.7927 9.3763C19.4327 9.2163 18.8627 9.1563 18.5027 9.1563C16.4027 9.1563 15.2627 10.2563 14.9127 12.3163L14.5427 14.4663H11.7827C11.4527 14.4663 11.2127 14.6963 11.2127 15.0163C11.2127 15.3363 11.4527 15.5563 11.7827 15.5563H14.3827L13.9627 18.0363C13.7427 19.3563 13.1827 20.0563 11.8227 20.0563C11.2827 20.0563 11.1127 19.9763 10.6227 19.9763C10.2827 19.9763 10.0627 20.2063 10.0627 20.5063C10.0627 20.8763 10.2827 21.0863 10.6227 21.2163C11.0227 21.3963 11.5527 21.4063 11.9727 21.4063Z"
        fillRule="evenodd"
        clipRule="evenodd"
    />
</svg>
        