
<svg
    viewBox={0 0 27.890625 27.890625}
    xmlns="http://www.w3.org/2000/svg"
>
    <path
        fill="inherit"
        d="M13.9427 27.8864C21.6427 27.8864 27.8927 21.6264 27.8927 13.9464C27.8927 6.2464 21.6427 -0.0036 13.9427 -0.0036C6.2627 -0.0036 0.0027 6.2464 0.0027 13.9464C0.0027 21.6264 6.2627 27.8864 13.9427 27.8864ZM10.5227 20.2664C10.0927 20.2664 9.5427 20.2364 9.1327 20.0664C8.7727 19.9164 8.5627 19.7164 8.5627 19.3364C8.5627 19.0164 8.7727 18.7864 9.1327 18.7864C9.6527 18.7864 9.8127 18.8664 10.3727 18.8664C11.7727 18.8664 12.3427 18.1464 12.5827 16.7764L13.0127 14.2364H10.3327C9.9927 14.2364 9.7527 13.9964 9.7527 13.6564C9.7527 13.3464 9.9927 13.0964 10.3327 13.0964H13.1827L13.5627 10.8864C13.9227 8.7464 15.1027 7.6264 17.2627 7.6264C17.6527 7.6264 18.2227 7.6864 18.6027 7.8464C18.9327 7.9664 19.2227 8.2064 19.2227 8.5564C19.2227 8.9364 19.0027 9.1164 18.6227 9.1464C18.2527 9.1464 17.9127 9.0364 17.3927 9.0364C16.0627 9.0364 15.3927 9.6964 15.1627 11.0064L14.8027 13.0964H17.6527C18.0027 13.0964 18.2627 13.3464 18.2627 13.6564C18.2627 13.9964 18.0027 14.2364 17.6527 14.2364H14.6327L14.1827 16.9664C13.8227 19.1264 12.7527 20.2664 10.5227 20.2664Z"
        fillRule="evenodd"
        clipRule="evenodd"
    />
</svg>
        