
<svg
    viewBox="0 0 29.39453125 31.93408203125"
    xmlns="http://www.w3.org/2000/svg"
>
    <path
        fill="inherit"
        d="M3.2637 24.0674H13.7037V25.9474H11.5637C10.5637 25.9474 10.1837 26.9174 10.8137 27.6874L13.9737 31.5574C14.3837 32.0574 15.0637 32.0574 15.4737 31.5574L18.6037 27.6874C19.2137 26.9374 18.8437 25.9474 17.8737 25.9474H15.7137V24.0674H26.1237C28.1737 24.0674 29.3937 22.8574 29.3937 20.8474V16.2274C29.3937 14.2174 28.1737 13.0174 26.1237 13.0174H15.7137V11.0474H26.1237C28.1737 11.0474 29.3937 9.8474 29.3937 7.8374V3.2174C29.3937 1.2074 28.1737 -0.0026 26.1237 -0.0026H3.2637C1.2137 -0.0026 0.0037 1.2074 0.0037 3.2174V7.8374C0.0037 9.8474 1.2137 11.0474 3.2637 11.0474H13.7137V13.0174H3.2637C1.2137 13.0174 0.0037 14.2174 0.0037 16.2274V20.8474C0.0037 22.8574 1.2137 24.0674 3.2637 24.0674Z"
        fillRule="evenodd"
        clipRule="evenodd"
    />
</svg>
        