
<svg
    viewBox={0 0 32.23828125 23.43359375}
    xmlns="http://www.w3.org/2000/svg"
>
    <path
        fill="inherit"
        d="M4.2937 23.4342H27.9437C30.8137 23.4342 32.2337 22.0142 32.2337 19.1942V7.7242C32.2337 4.9242 30.8137 3.5042 27.9437 3.5042H26.4237V1.6642C26.4237 0.6242 25.8237 0.0042 24.7737 0.0042H22.0437C21.0037 0.0042 20.3937 0.6242 20.3937 1.6642V3.5042H11.8537V1.6642C11.8537 0.6242 11.2537 0.0042 10.2037 0.0042H7.4637C6.4137 0.0042 5.8137 0.6242 5.8137 1.6642V3.5042H4.2937C1.4337 3.5042 0.0037 4.9042 0.0037 7.7242V19.1942C0.0037 22.0242 1.4337 23.4342 4.2937 23.4342ZM20.4637 13.3942C20.1637 13.0742 19.8237 13.0542 19.5237 13.3942C18.7437 14.2842 17.5037 14.8342 16.1237 14.8342C14.7337 14.8342 13.4937 14.2842 12.7137 13.3942C12.4137 13.0542 12.0837 13.0742 11.7737 13.3942C10.9537 14.3242 9.7237 14.8342 8.3937 14.8342C7.0637 14.8342 5.8537 14.3242 5.0137 13.3942C4.7137 13.0742 4.3737 13.0542 4.0737 13.3942C3.5937 13.9442 2.9637 14.3542 2.2037 14.6042V7.8442C2.2037 6.4242 2.9537 5.7042 4.3237 5.7042H27.9137C29.2737 5.7042 30.0337 6.4242 30.0337 7.8442V14.6042C29.2837 14.3542 28.6437 13.9442 28.1637 13.3942C27.8637 13.0542 27.5237 13.0742 27.2237 13.3942C26.4037 14.3242 25.1737 14.8342 23.8437 14.8342C22.5137 14.8342 21.2837 14.3242 20.4637 13.3942Z"
        fillRule="evenodd"
        clipRule="evenodd"
    />
</svg>
        