
<svg
    viewBox="0 0 32.23828125 26.27734375"
    xmlns="http://www.w3.org/2000/svg"
>
    <path
        fill="inherit"
        d="M4.2937 26.2803H27.9437C30.8137 26.2803 32.2337 24.8703 32.2337 22.0503V8.8303C32.2337 6.0203 30.8137 4.6103 27.9437 4.6103H27.0437V2.2003H28.4137C29.0437 2.2003 29.5037 1.7103 29.5037 1.1103C29.5037 0.5103 29.0437 0.0003 28.4137 0.0003H17.2137C16.6137 0.0003 16.1037 0.5103 16.1037 1.1103C16.1037 1.7103 16.6137 2.2003 17.2137 2.2003H18.5837V4.6103H4.2937C1.4337 4.6103 0.0037 6.0203 0.0037 8.8303V22.0503C0.0037 24.8703 1.4337 26.2803 4.2937 26.2803ZM24.9737 6.7703H26.2937V6.8103H27.9137C29.2737 6.8103 30.0337 7.5303 30.0337 8.9503V16.6003C29.2837 16.3503 28.6437 15.9403 28.1637 15.3903C27.8637 15.0503 27.5237 15.0703 27.2237 15.3903C26.4037 16.3203 25.1737 16.8303 23.8437 16.8303C22.5137 16.8303 21.2837 16.3203 20.4637 15.3903C20.1637 15.0703 19.8237 15.0503 19.5237 15.3903C18.7437 16.2803 17.5037 16.8303 16.1237 16.8303C14.7337 16.8303 13.4937 16.2803 12.7137 15.3903C12.4137 15.0503 12.0837 15.0703 11.7737 15.3903C10.9537 16.3203 9.7237 16.8303 8.3937 16.8303C7.0637 16.8303 5.8537 16.3203 5.0137 15.3903C4.7137 15.0703 4.3737 15.0503 4.0737 15.3903C3.5937 15.9403 2.9637 16.3503 2.2037 16.6003V8.9503C2.2037 7.5303 2.9537 6.8103 4.3237 6.8103H19.6837V6.7703H20.6437V2.2003H24.9737Z"
        fillRule="evenodd"
        clipRule="evenodd"
    />
</svg>
        