<svg viewBox="0 0 22.1484375 20.302734375" xmlns="http://www.w3.org/2000/svg"><path d="M3.3737 20.302C4.0637 20.302 4.5237 19.822 4.5237 19.102V7.672H6.7837C7.3837 7.672 7.7837 7.292 7.7837 6.702C7.7837 6.122 7.3737 5.732 6.7837 5.732H4.5237V4.142C4.5237 2.642 5.0737 1.992 6.3737 1.992C6.7537 1.992 7.0437 1.972 7.2337 1.902C7.6437 1.752 7.8337 1.502 7.8337 1.092C7.8337 0.392 7.1637 0.002 5.9337 0.002C3.5137 0.002 2.2237 1.412 2.2237 4.042V5.732H0.9937C0.4137 5.732 0.0037 6.122 0.0037 6.702C0.0037 7.292 0.3937 7.672 0.9937 7.672H2.2237V19.102C2.2237 19.822 2.6937 20.302 3.3737 20.302ZM11.2237 20.302C11.8937 20.302 12.3837 19.792 12.3837 19.082V11.562C12.3837 9.012 13.9337 7.312 16.3137 7.312C18.5837 7.312 19.8537 8.672 19.8537 11.072V19.082C19.8537 19.812 20.3337 20.302 21.0037 20.302C21.6737 20.302 22.1437 19.792 22.1437 19.082V10.742C22.1437 7.352 20.1537 5.252 16.9137 5.252C14.7137 5.252 12.8837 6.482 12.2637 8.322V6.422C12.2637 5.742 11.8037 5.252 11.1737 5.252C10.5437 5.252 10.0737 5.742 10.0737 6.422V19.082C10.0737 19.792 10.5537 20.302 11.2237 20.302Z" /></svg>