
<svg
    viewBox={0 0 27.890625 27.890625}
    xmlns="http://www.w3.org/2000/svg"
>
    <path
        fill="inherit"
        d="M13.9427 27.8927C21.6427 27.8927 27.8927 21.6427 27.8927 13.9427C27.8927 6.2627 21.6427 0.0027 13.9427 0.0027C6.2627 0.0027 0.0027 6.2627 0.0027 13.9427C0.0027 21.6427 6.2627 27.8927 13.9427 27.8927ZM6.0727 11.1927V9.3627C6.0727 8.0027 6.7527 7.3127 7.9427 7.3127H10.0227C10.6627 7.3127 11.0027 7.4327 11.4727 7.8027L11.9127 8.1527C12.2527 8.4227 12.4927 8.5627 12.9927 8.5627H19.6827C21.1227 8.5627 21.8427 9.2727 21.8427 10.6727V11.1927ZM8.2327 20.3427C6.7927 20.3427 6.0727 19.6327 6.0727 18.2427V12.3427H21.8427V18.2427C21.8427 19.6327 21.1327 20.3427 19.9027 20.3427Z"
        fillRule="evenodd"
        clipRule="evenodd"
    />
</svg>
        