
<svg
    viewBox={0 0 27.890625 27.890625}
    xmlns="http://www.w3.org/2000/svg"
>
    <path
        fill="inherit"
        d="M13.9427 27.8864C21.6427 27.8864 27.8927 21.6464 27.8927 13.9464C27.8927 6.2464 21.6427 -0.0036 13.9427 -0.0036C6.2527 -0.0036 0.0027 6.2464 0.0027 13.9464C0.0027 21.6464 6.2527 27.8864 13.9427 27.8864ZM13.9427 25.5664C7.5227 25.5664 2.3227 20.3664 2.3227 13.9464C2.3227 7.5164 7.5227 2.3264 13.9427 2.3264C20.3727 2.3264 25.5627 7.5164 25.5627 13.9464C25.5627 20.3664 20.3727 25.5664 13.9427 25.5664ZM11.0427 22.8964C11.6927 22.8964 12.1027 22.5464 12.0827 21.9164L11.9327 13.2464C11.9327 12.9764 12.0427 12.7664 12.2927 12.6564C13.3027 12.2264 13.7627 11.7564 13.6827 10.3864L13.4627 5.6564C13.4527 5.3164 13.2627 5.1164 12.9427 5.1164C12.6427 5.1164 12.4527 5.3364 12.4527 5.6764L12.5227 10.2964C12.5227 10.5564 12.3327 10.7364 12.0827 10.7364C11.8127 10.7364 11.6227 10.5564 11.6227 10.3064L11.5627 5.5464C11.5627 5.2064 11.3427 5.0164 11.0427 5.0164C10.7327 5.0164 10.5227 5.2064 10.5227 5.5464L10.4427 10.3064C10.4427 10.5564 10.2627 10.7364 10.0127 10.7364C9.7627 10.7364 9.5727 10.5564 9.5727 10.2964L9.6427 5.6764C9.6427 5.3364 9.4427 5.1164 9.1427 5.1164C8.8327 5.1164 8.6227 5.3164 8.6127 5.6564L8.4127 10.3864C8.3527 11.7564 8.7927 12.2264 9.8127 12.6564C10.0527 12.7664 10.1627 12.9764 10.1627 13.2464L10.0127 21.9164C9.9927 22.5464 10.4027 22.8964 11.0427 22.8964ZM16.4027 16.3364L16.2327 21.8764C16.2027 22.5464 16.6227 22.8964 17.2527 22.8964C17.9227 22.8964 18.3227 22.5764 18.3227 21.9564V5.5964C18.3227 5.1964 18.0327 5.0164 17.7727 5.0164C17.4727 5.0164 17.2827 5.1864 17.0327 5.5364C15.7927 7.2764 14.9727 10.5364 14.9727 13.6164V14.1364C14.9727 14.6864 15.1727 15.0564 15.5627 15.3264L16.0127 15.6364C16.2827 15.8364 16.4027 16.0364 16.4027 16.3364Z"
        fillRule="evenodd"
        clipRule="evenodd"
    />
</svg>
        