
<svg
    viewBox="0 0 45.91333569277131 22.53125"
    xmlns="http://www.w3.org/2000/svg"
>
    <path
        fill="inherit"
        d="M6.3665 22.5272C10.0865 22.5272 12.7765 20.0272 12.7765 16.4072V16.3772C13.1765 16.5172 13.6165 16.5972 14.0965 16.5972H31.8065C32.2865 16.5972 32.7265 16.5172 33.1265 16.3772V16.4072C33.1265 20.0272 35.8165 22.5272 39.5365 22.5272C43.7765 22.5272 46.3965 19.8972 45.8365 15.3372L44.6265 5.6072C44.1665 1.9272 42.0265 -0.0028 38.2765 -0.0028H7.6265C3.8765 -0.0028 1.7365 1.9272 1.2865 5.6072L0.0765 15.3372C-0.4935 19.8972 2.1265 22.5272 6.3665 22.5272ZM38.2765 2.0672C40.8065 2.0672 42.2565 3.3672 42.5665 5.8272L43.7865 15.5472C44.1665 18.7072 42.3765 20.4672 39.5365 20.4672C37.0465 20.4672 35.2065 18.8272 35.2065 16.4072V3.5172C35.2065 2.9772 35.1165 2.4872 34.9565 2.0672ZM6.3665 20.4672C3.5265 20.4672 1.7365 18.7072 2.1265 15.5472L3.3465 5.8272C3.6465 3.3672 5.0965 2.0672 7.6265 2.0672H10.9565C10.7965 2.4872 10.7065 2.9772 10.7065 3.5172V16.4072C10.7065 18.8272 8.8565 20.4672 6.3665 20.4672ZM14.4065 14.5372C13.3665 14.5372 12.7765 13.9272 12.7765 12.8072V3.7772C12.7765 2.6672 13.3665 2.0672 14.4065 2.0672H31.4965C32.5465 2.0672 33.1265 2.6672 33.1265 3.7772V12.8072C33.1265 13.9272 32.5465 14.5372 31.4965 14.5372ZM6.4465 18.3372C6.8965 18.3372 7.2565 17.9772 7.2565 17.4972V16.1472H8.5865C9.0765 16.1472 9.4665 15.7772 9.4665 15.3172C9.4665 14.8472 9.0765 14.4872 8.5865 14.4872H7.2565V13.1372C7.2565 12.6872 6.8965 12.3172 6.4465 12.3172C5.9965 12.3172 5.6565 12.6872 5.6565 13.1372V14.4872H4.2365C3.7665 14.4872 3.4165 14.8472 3.4165 15.3172C3.4165 15.7772 3.7665 16.1472 4.2365 16.1472H5.6565V17.4972C5.6565 17.9772 5.9965 18.3372 6.4465 18.3372ZM40.9565 15.4472C41.8165 15.4472 42.5065 14.7672 42.5065 13.9272C42.5065 13.0872 41.8165 12.4172 40.9565 12.4172C40.1065 12.4172 39.4565 13.0872 39.4565 13.9272C39.4565 14.7672 40.1065 15.4472 40.9565 15.4472ZM38.2065 18.2272C39.0465 18.2272 39.7265 17.5572 39.7265 16.7172C39.7265 15.8572 39.0465 15.1872 38.2065 15.1872C37.3665 15.1872 36.6965 15.8572 36.6965 16.7172C36.6965 17.5572 37.3665 18.2272 38.2065 18.2272Z"
        fillRule="evenodd"
        clipRule="evenodd"
    />
</svg>
        