
<svg
    viewBox="0 0 45.91333569277131 22.53125"
    xmlns="http://www.w3.org/2000/svg"
>
    <path
        fill="inherit"
        d="M6.3665 22.5272C10.0565 22.5272 12.7365 20.0672 12.7765 16.2972C13.1365 16.4972 13.5765 16.5972 14.0965 16.5972H31.8065C32.3265 16.5972 32.7665 16.4972 33.1265 16.2972C33.1665 20.0672 35.8465 22.5272 39.5365 22.5272C43.7765 22.5272 46.3965 19.8972 45.8365 15.3372L44.6265 5.6072C44.1665 1.9272 42.0265 -0.0028 38.2765 -0.0028H7.6265C3.8765 -0.0028 1.7365 1.9272 1.2865 5.6072L0.0765 15.3372C-0.4935 19.8972 2.1265 22.5272 6.3665 22.5272ZM14.4065 14.5372C13.3665 14.5372 12.7765 13.9272 12.7765 12.8072V3.7772C12.7765 2.6672 13.3665 2.0672 14.4065 2.0672H31.4965C32.5465 2.0672 33.1265 2.6672 33.1265 3.7772V12.8072C33.1265 13.9272 32.5465 14.5372 31.4965 14.5372ZM6.4465 18.4272C5.9865 18.4272 5.6265 18.0572 5.6265 17.5672V16.1772H4.1665C3.6865 16.1772 3.3165 15.7872 3.3165 15.3172C3.3165 14.8372 3.6865 14.4672 4.1665 14.4672H5.6265V13.0672C5.6265 12.6072 5.9865 12.2272 6.4465 12.2272C6.9165 12.2272 7.2865 12.6072 7.2865 13.0672V14.4672H8.6465C9.1565 14.4672 9.5665 14.8372 9.5665 15.3172C9.5665 15.7872 9.1565 16.1772 8.6465 16.1772H7.2865V17.5672C7.2865 18.0572 6.9165 18.4272 6.4465 18.4272ZM40.9965 15.4472C40.1265 15.4472 39.4565 14.7472 39.4565 13.8872C39.4565 13.0172 40.1265 12.3172 40.9965 12.3172C41.8865 12.3172 42.5965 13.0172 42.5965 13.8872C42.5965 14.7472 41.8865 15.4472 40.9965 15.4472ZM38.1665 18.3172C37.2965 18.3172 36.5965 17.6272 36.5965 16.7572C36.5965 15.8772 37.2965 15.1872 38.1665 15.1872C39.0265 15.1872 39.7265 15.8772 39.7265 16.7572C39.7265 17.6272 39.0265 18.3172 38.1665 18.3172Z"
        fillRule="evenodd"
        clipRule="evenodd"
    />
</svg>
        