
<svg
    viewBox={0 0 27.890625 27.890625}
    xmlns="http://www.w3.org/2000/svg"
>
    <path
        fill="inherit"
        d="M13.9427 27.8864C21.6427 27.8864 27.8927 21.6464 27.8927 13.9464C27.8927 6.2464 21.6427 -0.0036 13.9427 -0.0036C6.2527 -0.0036 0.0027 6.2464 0.0027 13.9464C0.0027 21.6464 6.2527 27.8864 13.9427 27.8864ZM13.9427 25.5664C7.5227 25.5664 2.3227 20.3664 2.3227 13.9464C2.3227 7.5164 7.5227 2.3264 13.9427 2.3264C20.3727 2.3264 25.5627 7.5164 25.5627 13.9464C25.5627 20.3664 20.3727 25.5664 13.9427 25.5664ZM7.0427 18.9764C7.3027 18.9764 7.5327 18.8964 7.7827 18.7464L14.3027 14.9064C14.6427 14.7064 14.8327 14.4764 14.9027 14.2064V17.8964C14.9027 18.5964 15.3227 18.9764 15.8227 18.9764C16.0827 18.9764 16.2927 18.8964 16.5527 18.7464L23.0827 14.9064C23.5127 14.6464 23.7227 14.3164 23.7227 13.9564C23.7227 13.6064 23.5127 13.2764 23.0827 13.0164L16.5527 9.1764C16.2927 9.0264 16.0827 8.9364 15.8227 8.9364C15.3227 8.9364 14.9027 9.3264 14.9027 10.0264V13.6964C14.8327 13.4364 14.6427 13.2064 14.3027 13.0164L7.7827 9.1764C7.5327 9.0264 7.3027 8.9364 7.0427 8.9364C6.5527 8.9364 6.1427 9.3264 6.1427 10.0264V17.8964C6.1427 18.5964 6.5527 18.9764 7.0427 18.9764Z"
        fillRule="evenodd"
        clipRule="evenodd"
    />
</svg>
        