<svg viewBox="0 0 25.23828125 20.890625" xmlns="http://www.w3.org/2000/svg"><path d="M1.1773 20.8864C1.8273 20.8864 2.3373 20.3864 2.3373 19.7464V1.1464C2.3373 0.5064 1.8273 -0.0036 1.1773 -0.0036C0.5173 -0.0036 -0.0027 0.5064 -0.0027 1.1464V19.7464C-0.0027 20.3864 0.5173 20.8864 1.1773 20.8864ZM6.6273 18.9864C6.6273 20.2764 7.3673 20.8864 8.2573 20.8864C8.6573 20.8864 9.0473 20.7664 9.4473 20.5464L23.8073 12.1864C24.8373 11.5764 25.2373 11.1264 25.2373 10.4464C25.2373 9.7664 24.8373 9.3064 23.8073 8.7064L9.4473 0.3464C9.0473 0.1064 8.6573 -0.0036 8.2573 -0.0036C7.3673 -0.0036 6.6273 0.6064 6.6273 1.8864ZM8.8273 17.9064V2.9764C8.8273 2.8164 8.9373 2.7064 9.0773 2.7064C9.1373 2.7064 9.1873 2.7164 9.2273 2.7664L21.9973 10.2364C22.0973 10.2964 22.1373 10.3664 22.1373 10.4464C22.1373 10.5164 22.0973 10.5964 21.9973 10.6464L9.2273 18.1264C9.1873 18.1564 9.1373 18.1864 9.0773 18.1864C8.9373 18.1864 8.8273 18.0564 8.8273 17.9064Z" /></svg>