
<svg
    viewBox="0 0 27.890625 27.890625"
    xmlns="http://www.w3.org/2000/svg"
>
    <path
        fill="inherit"
        d="M13.9427 27.8864C21.6427 27.8864 27.8927 21.6264 27.8927 13.9464C27.8927 6.2464 21.6427 -0.0036 13.9427 -0.0036C6.2627 -0.0036 0.0027 6.2464 0.0027 13.9464C0.0027 21.6264 6.2627 27.8864 13.9427 27.8864ZM24.0127 13.9564C24.0127 14.3464 23.8027 14.6664 23.3427 14.9464L16.6427 18.8964C16.3527 19.0564 16.1427 19.1264 15.8727 19.1264C15.3527 19.1264 14.9327 18.7564 14.9327 18.0164V14.3964C14.8227 14.6064 14.6427 14.7764 14.3727 14.9464L7.6527 18.8964C7.3827 19.0564 7.1627 19.1264 6.8927 19.1264C6.3827 19.1264 5.9427 18.7564 5.9427 18.0164V9.9164C5.9427 9.1764 6.3827 8.8064 6.8927 8.8064C7.1627 8.8064 7.3827 8.8764 7.6527 9.0364L14.3727 12.9864C14.6427 13.1564 14.8227 13.3264 14.9327 13.5364V9.9164C14.9327 9.1764 15.3527 8.8064 15.8727 8.8064C16.1427 8.8064 16.3527 8.8764 16.6427 9.0364L23.3427 12.9864C23.8027 13.2664 24.0127 13.5864 24.0127 13.9564Z"
        fillRule="evenodd"
        clipRule="evenodd"
    />
</svg>
        