
<svg
    viewBox={0 0 43.818359375 20.890625}
    xmlns="http://www.w3.org/2000/svg"
>
    <path
        fill="inherit"
        d="M0.0037 18.9864C0.0037 20.2764 0.7337 20.8864 1.6237 20.8864C2.0137 20.8864 2.4237 20.7664 2.8137 20.5464L17.1737 12.1864C17.9637 11.7164 18.3737 11.3464 18.5437 10.8964V18.9864C18.5437 20.2764 19.2737 20.8864 20.1537 20.8864C20.5537 20.8864 20.9637 20.7664 21.3537 20.5464L35.7137 12.1864C36.5037 11.7164 36.9137 11.3464 37.0637 10.8964V18.9764C37.0637 20.1764 37.6937 20.8064 38.8937 20.8064H42.0037C43.2037 20.8064 43.8137 20.1764 43.8137 18.9764V1.8964C43.8137 0.6464 43.2037 0.0664 42.0037 0.0664H38.8937C37.6937 0.0664 37.0637 0.6964 37.0637 1.8964V9.9964C36.9137 9.5264 36.5037 9.1564 35.7137 8.7064L21.3537 0.3464C20.9637 0.1064 20.5537 -0.0036 20.1537 -0.0036C19.2737 -0.0036 18.5437 0.6064 18.5437 1.8864V9.9964C18.3737 9.5264 17.9637 9.1564 17.1737 8.7064L2.8137 0.3464C2.4237 0.1064 2.0137 -0.0036 1.6237 -0.0036C0.7337 -0.0036 0.0037 0.6064 0.0037 1.8864Z"
        fillRule="evenodd"
        clipRule="evenodd"
    />
</svg>
        