
<svg
    viewBox={0 0 27.890625 27.890625}
    xmlns="http://www.w3.org/2000/svg"
>
    <path
        fill="inherit"
        d="M13.9427 27.8864C21.6427 27.8864 27.8927 21.6464 27.8927 13.9464C27.8927 6.2464 21.6427 -0.0036 13.9427 -0.0036C6.2527 -0.0036 0.0027 6.2464 0.0027 13.9464C0.0027 21.6464 6.2527 27.8864 13.9427 27.8864ZM13.9427 25.5664C7.5227 25.5664 2.3227 20.3664 2.3227 13.9464C2.3227 7.5164 7.5227 2.3264 13.9427 2.3264C20.3727 2.3264 25.5627 7.5164 25.5627 13.9464C25.5627 20.3664 20.3727 25.5664 13.9427 25.5664ZM8.9127 18.9764C9.1627 18.9764 9.3927 18.8964 9.6427 18.7464L16.1627 14.9164C16.4327 14.7564 16.6127 14.5764 16.7027 14.3664V18.3164C16.7027 18.8764 17.0127 19.1564 17.5527 19.1564H19.0127C19.5627 19.1564 19.8627 18.8764 19.8627 18.3164V9.5864C19.8627 9.0264 19.5627 8.7364 19.0127 8.7364H17.5527C17.0127 8.7364 16.7027 9.0064 16.7027 9.5864V13.5664C16.6127 13.3564 16.4327 13.1764 16.1627 13.0164L9.6427 9.1864C9.3927 9.0364 9.1627 8.9564 8.9127 8.9564C8.4127 8.9564 8.0027 9.3264 8.0027 10.0364V17.8964C8.0027 18.6064 8.4127 18.9764 8.9127 18.9764Z"
        fillRule="evenodd"
        clipRule="evenodd"
    />
</svg>
        