<svg viewBox="0 0 25.29296875 20.890625" xmlns="http://www.w3.org/2000/svg"><path d="M0.0037 18.9864C0.0037 20.2764 0.7337 20.8864 1.6237 20.8864C2.0137 20.8864 2.4237 20.7664 2.8137 20.5464L17.1737 12.1864C17.9637 11.7164 18.3737 11.3464 18.5437 10.8964V18.9764C18.5437 20.1764 19.1537 20.8064 20.3537 20.8064H23.4637C24.6637 20.8064 25.2937 20.1764 25.2937 18.9764V1.8964C25.2937 0.6464 24.6637 0.0664 23.4637 0.0664H20.3537C19.1537 0.0664 18.5437 0.6964 18.5437 1.8964V9.9964C18.3737 9.5264 17.9637 9.1564 17.1737 8.7064L2.8137 0.3464C2.4237 0.1064 2.0137 -0.0036 1.6237 -0.0036C0.7337 -0.0036 0.0037 0.6064 0.0037 1.8864Z" /></svg>