
<svg
    viewBox={0 0 39.40234375 20.890625}
    xmlns="http://www.w3.org/2000/svg"
>
    <path
        fill="inherit"
        d="M0.0037 18.9864C0.0037 20.2764 0.7337 20.8864 1.6237 20.8864C2.0137 20.8864 2.4237 20.7664 2.8137 20.5464L17.1737 12.1864C17.9637 11.7164 18.3737 11.3464 18.5437 10.8964V18.9864C18.5437 20.2764 19.2737 20.8864 20.1537 20.8864C20.5537 20.8864 20.9637 20.7664 21.3537 20.5464L35.7137 12.1864C36.5037 11.7164 36.9137 11.3464 37.0637 10.8964V19.7464C37.0637 20.3864 37.5837 20.8864 38.2437 20.8864C38.8937 20.8864 39.4037 20.3864 39.4037 19.7464V1.1464C39.4037 0.5064 38.8937 -0.0036 38.2437 -0.0036C37.5837 -0.0036 37.0637 0.5064 37.0637 1.1464V9.9964C36.9137 9.5264 36.5037 9.1564 35.7137 8.7064L21.3537 0.3464C20.9637 0.1064 20.5537 -0.0036 20.1537 -0.0036C19.2737 -0.0036 18.5437 0.6064 18.5437 1.8864V9.9964C18.3737 9.5264 17.9637 9.1564 17.1737 8.7064L2.8137 0.3464C2.4237 0.1064 2.0137 -0.0036 1.6237 -0.0036C0.7337 -0.0036 0.0037 0.6064 0.0037 1.8864ZM2.2037 17.9064V2.9764C2.2037 2.8164 2.2937 2.7064 2.4437 2.7064C2.5037 2.7064 2.5537 2.7164 2.5937 2.7664L15.3637 10.2364C15.4637 10.2964 15.5037 10.3664 15.5037 10.4464C15.5037 10.5164 15.4637 10.5964 15.3637 10.6464L2.5937 18.1264C2.5537 18.1564 2.5037 18.1864 2.4437 18.1864C2.2937 18.1864 2.2037 18.0564 2.2037 17.9064ZM20.7437 17.9064V2.9764C20.7437 2.8164 20.8337 2.7064 20.9737 2.7064C21.0437 2.7064 21.0837 2.7164 21.1337 2.7664L33.9037 10.2364C34.0037 10.2964 34.0437 10.3664 34.0437 10.4464C34.0437 10.5164 34.0037 10.5964 33.9037 10.6464L21.1337 18.1264C21.0837 18.1564 21.0437 18.1864 20.9737 18.1864C20.8337 18.1864 20.7437 18.0564 20.7437 17.9064Z"
        fillRule="evenodd"
        clipRule="evenodd"
    />
</svg>
        