<svg viewBox="0 0 29.599609375 20.890625" xmlns="http://www.w3.org/2000/svg"><path d="M11.0023 18.9864C11.0023 20.2764 11.7423 20.8864 12.6323 20.8864C13.0123 20.8864 13.4223 20.7664 13.8223 20.5464L28.1823 12.1864C29.2123 11.5764 29.6023 11.1264 29.6023 10.4464C29.6023 9.7664 29.2123 9.3064 28.1823 8.7064L13.8223 0.3464C13.4223 0.1064 13.0123 -0.0036 12.6323 -0.0036C11.7423 -0.0036 11.0023 0.6064 11.0023 1.8864ZM1.8323 20.8064H4.9323C6.1423 20.8064 6.7523 20.1764 6.7523 18.9764V1.8964C6.7523 0.6464 6.1423 0.0664 4.9323 0.0664H1.8323C0.6323 0.0664 0.0023 0.6964 0.0023 1.8964V18.9764C0.0023 20.1764 0.6323 20.8064 1.8323 20.8064Z" /></svg>