<svg viewBox="0 0 34.240849105883655 27.015625" xmlns="http://www.w3.org/2000/svg"><path d="M15.9327 27.0152C25.2427 27.0152 32.2827 20.6452 34.1927 12.0752C34.4227 11.0752 33.7827 10.3352 32.7427 10.3352H21.3127C21.3927 9.8252 21.4327 9.3252 21.4327 8.8752C21.4327 3.7152 17.4427 -0.0048 11.9227 -0.0048C5.1227 -0.0048 0.0027 5.1852 0.0027 12.3552C0.0027 20.9452 6.4127 27.0152 15.9327 27.0152ZM6.6027 3.5952C7.9427 2.7452 9.5127 2.2252 11.2527 2.1152V6.1652C10.7727 6.3452 10.3227 6.6152 9.9227 6.9452ZM12.8527 5.8652H12.8227V2.1352C14.5427 2.2952 16.0327 2.9252 17.1627 3.9052L14.7827 6.3052C14.2027 6.0252 13.5527 5.8652 12.8527 5.8652ZM2.2927 10.0352C2.7527 7.8252 3.8127 5.9452 5.3227 4.5752L8.8827 8.1452C8.5427 8.7052 8.3127 9.3352 8.2027 10.0352ZM10.2427 10.8552C10.2427 9.2152 11.3227 7.9752 12.8527 7.9752C14.0827 7.9752 14.8027 8.7052 14.8027 9.6752C14.8027 10.4352 14.3727 10.9552 13.7127 10.9552C13.1827 10.9552 13.0027 10.6952 12.8527 10.4352C12.7127 10.1852 12.5127 10.0352 12.1527 10.0352C11.7327 10.0352 11.2927 10.3752 11.2927 11.0052C11.2927 11.8952 12.1027 13.0552 13.7027 13.0552C15.4927 13.0552 16.9127 11.7152 16.9127 9.6752C16.9127 8.7652 16.5827 7.9252 16.0327 7.2852L18.2227 5.0952C18.9327 6.1552 19.3427 7.4352 19.3427 8.8752C19.3427 12.1552 17.2827 14.5352 14.3827 14.5352C11.9327 14.5352 10.2427 12.9152 10.2427 10.8552ZM2.0827 12.3552C2.0827 12.1152 2.0827 11.8652 2.0927 11.6252H8.1927C8.3027 12.4952 8.6227 13.3152 9.1027 14.0252L3.9827 19.1552C2.7527 17.2352 2.0827 14.9252 2.0827 12.3552ZM19.2227 14.6652C19.8527 14.0152 20.3327 13.2452 20.6827 12.4452H31.9627C30.9227 16.1552 28.8427 19.3052 26.0327 21.4952ZM4.9327 20.4352L10.1727 15.1852C10.9927 15.8552 12.0027 16.3252 13.1627 16.5152V24.7152C9.7027 24.1952 6.8727 22.6852 4.9327 20.4352ZM15.9327 24.9252C15.5327 24.9252 15.1327 24.9052 14.7527 24.8852V16.6152C16.0227 16.5552 17.1027 16.2052 17.9827 15.6652L24.7227 22.4252C22.2027 24.0252 19.2127 24.9252 15.9327 24.9252Z" /></svg>