
<svg
    viewBox={0 0 27.890625 27.890625}
    xmlns="http://www.w3.org/2000/svg"
>
    <path
        fill="inherit"
        d="M13.9427 27.8864C21.6427 27.8864 27.8927 21.6264 27.8927 13.9464C27.8927 6.2464 21.6427 -0.0036 13.9427 -0.0036C6.2627 -0.0036 0.0027 6.2464 0.0027 13.9464C0.0027 21.6264 6.2627 27.8864 13.9427 27.8864ZM11.5627 20.5264C11.0427 20.5264 10.7027 20.1664 10.7027 19.6564V18.1664H9.3527C9.0827 18.1664 8.8827 17.9764 8.8827 17.7064C8.8827 17.4464 9.0827 17.2364 9.3527 17.2364H10.7027V8.5464C10.7027 7.9964 11.0327 7.6664 11.5627 7.6664H17.5527C18.0027 7.6664 18.3227 7.9864 18.3227 8.4264C18.3227 8.8364 18.0027 9.1464 17.5527 9.1464H12.4027V13.2364H17.0627C17.5027 13.2364 17.8127 13.5364 17.8127 13.9464C17.8127 14.3664 17.5027 14.6664 17.0627 14.6664H12.4027V17.2364H15.4127C15.6827 17.2364 15.8727 17.4464 15.8727 17.7064C15.8727 17.9764 15.6827 18.1664 15.4127 18.1664H12.4027V19.6564C12.4027 20.1664 12.0427 20.5264 11.5627 20.5264Z"
        fillRule="evenodd"
        clipRule="evenodd"
    />
</svg>
        