
<svg
    viewBox="0 0 30.544813437289534 27.890625"
    xmlns="http://www.w3.org/2000/svg"
>
    <path
        fill="inherit"
        d="M0.9769 11.3064C-0.0131 11.3064 -0.2531 11.9764 0.2769 12.7464L3.3369 17.0864C3.7869 17.7164 4.4469 17.7064 4.8869 17.0864L7.9269 12.7264C8.4669 11.9764 8.2069 11.3064 7.2469 11.3064H5.2769C6.4669 6.1564 11.0769 2.3264 16.5969 2.3264C23.0269 2.3264 28.2169 7.5164 28.2169 13.9464C28.2169 20.3664 23.0269 25.5664 16.5969 25.5664C12.7169 25.5664 9.2569 23.6564 7.1969 20.7564C6.7669 20.1964 6.1269 20.0164 5.5569 20.3564C5.0069 20.6964 4.8369 21.4664 5.3069 22.0664C7.8369 25.6064 11.9769 27.8864 16.5969 27.8864C24.2969 27.8864 30.5469 21.6464 30.5469 13.9464C30.5469 6.2464 24.2969 -0.0036 16.5969 -0.0036C9.8069 -0.0036 4.1269 4.8664 2.8969 11.3064ZM14.2769 20.3164C14.7369 20.3164 15.0869 19.9764 15.0869 19.4964V18.0464H18.0069C18.2669 18.0464 18.4569 17.8564 18.4569 17.5964C18.4569 17.3364 18.2669 17.1464 18.0069 17.1464H15.0869V14.6464H19.6069C20.0269 14.6464 20.3369 14.3564 20.3369 13.9464C20.3369 13.5464 20.0269 13.2664 19.6069 13.2664H15.0869V9.2964H20.0869C20.5269 9.2964 20.8269 8.9964 20.8269 8.5964C20.8269 8.1764 20.5269 7.8764 20.0869 7.8764H14.2769C13.7669 7.8764 13.4569 8.1864 13.4569 8.7064V17.1464H12.1469C11.8669 17.1464 11.6769 17.3364 11.6769 17.5964C11.6769 17.8564 11.8669 18.0464 12.1469 18.0464H13.4569V19.4964C13.4569 19.9764 13.7869 20.3164 14.2769 20.3164Z"
        fillRule="evenodd"
        clipRule="evenodd"
    />
</svg>
        