
<svg
    viewBox={0 0 30.5703125 30.5703125}
    xmlns="http://www.w3.org/2000/svg"
>
    <path
        fill="inherit"
        d="M15.2827 30.5663C23.6827 30.5663 30.5727 23.6763 30.5727 15.2863C30.5727 6.8863 23.6827 -0.0038 15.2827 -0.0038C6.8927 -0.0038 0.0027 6.8863 0.0027 15.2863C0.0027 23.6763 6.8927 30.5663 15.2827 30.5663ZM15.2827 25.4862C9.6527 25.4862 5.0827 20.9162 5.0827 15.2863C5.0827 9.6363 9.6527 5.0863 15.2827 5.0863C20.9327 5.0863 25.4827 9.6363 25.4827 15.2863C25.4827 20.9162 20.9327 25.4862 15.2827 25.4862ZM12.9627 21.6563C13.4227 21.6563 13.7627 21.3163 13.7627 20.8363V19.3863H16.6927C16.9527 19.3863 17.1427 19.1963 17.1427 18.9363C17.1427 18.6763 16.9527 18.4862 16.6927 18.4862H13.7627V15.9863H18.2927C18.7127 15.9863 19.0327 15.6963 19.0327 15.2863C19.0327 14.8863 18.7127 14.6063 18.2927 14.6063H13.7627V10.6363H18.7727C19.2127 10.6363 19.5127 10.3363 19.5127 9.9363C19.5127 9.5163 19.2127 9.2163 18.7727 9.2163H12.9627C12.4527 9.2163 12.1427 9.5262 12.1427 10.0463V18.4862H10.8327C10.5727 18.4862 10.3727 18.6763 10.3727 18.9363C10.3727 19.1963 10.5727 19.3863 10.8327 19.3863H12.1427V20.8363C12.1427 21.3163 12.4727 21.6563 12.9627 21.6563Z"
        fillRule="evenodd"
        clipRule="evenodd"
    />
</svg>
        