
<svg
    viewBox={0 0 32.935546875 27.26189615322232}
    xmlns="http://www.w3.org/2000/svg"
>
    <path
        fill="inherit"
        d="M32.9327 16.3992C32.9327 7.7792 26.3227 0.7192 17.8927 -0.0008C17.4627 -0.0408 17.1327 0.2792 17.1327 0.7192V5.1892C17.1327 5.5592 17.3927 5.8392 17.7627 5.8692C22.9927 6.5092 27.0727 10.9792 27.0727 16.3992C27.0727 18.8592 26.2227 21.1292 24.7327 23.0292C24.5427 23.2592 24.5527 23.5592 24.7627 23.7792L28.0227 27.0292C28.3327 27.3292 28.7927 27.3292 29.0627 27.0092C31.4827 24.1392 32.9327 20.4292 32.9327 16.3992ZM0.0027 16.3992C0.0027 20.4392 1.4527 24.1492 3.8727 27.0192C4.1427 27.3492 4.5927 27.3292 4.9127 27.0292L8.1727 23.7792C8.3827 23.5592 8.3927 23.2592 8.2027 23.0292C6.7027 21.1292 5.8627 18.8592 5.8627 16.3992C5.8627 10.9792 9.9427 6.5092 15.1727 5.8692C15.5427 5.8392 15.8027 5.5592 15.8027 5.1892V0.7192C15.8027 0.2792 15.4727 -0.0408 15.0427 -0.0008C6.6127 0.7192 0.0027 7.7792 0.0027 16.3992ZM14.1227 22.9492C14.5927 22.9492 14.9327 22.6192 14.9327 22.1292V20.6792H17.8527C18.1127 20.6792 18.3027 20.4992 18.3027 20.2292C18.3027 19.9692 18.1127 19.7692 17.8527 19.7692H14.9327V17.2692H19.4527C19.8827 17.2692 20.1927 16.9792 20.1927 16.5692C20.1927 16.1792 19.8827 15.8892 19.4527 15.8892H14.9327V11.9292H19.9327C20.3727 11.9292 20.6727 11.6392 20.6727 11.2292C20.6727 10.8092 20.3727 10.5192 19.9327 10.5192H14.1227C13.6127 10.5192 13.3027 10.8292 13.3027 11.3492V19.7692H11.9927C11.7327 19.7692 11.5427 19.9692 11.5427 20.2292C11.5427 20.4992 11.7327 20.6792 11.9927 20.6792H13.3027V22.1292C13.3027 22.6192 13.6427 22.9492 14.1227 22.9492Z"
        fillRule="evenodd"
        clipRule="evenodd"
    />
</svg>
        