
<svg
    viewBox="0 0 27.890625 27.890625"
    xmlns="http://www.w3.org/2000/svg"
>
    <path
        fill="inherit"
        d="M13.9427 27.8864C21.6427 27.8864 27.8927 21.6464 27.8927 13.9464C27.8927 6.2464 21.6427 -0.0036 13.9427 -0.0036C6.2527 -0.0036 0.0027 6.2464 0.0027 13.9464C0.0027 21.6464 6.2527 27.8864 13.9427 27.8864ZM13.9427 25.5664C7.5227 25.5664 2.3227 20.3664 2.3227 13.9464C2.3227 7.5164 7.5227 2.3264 13.9427 2.3264C20.3727 2.3264 25.5627 7.5164 25.5627 13.9464C25.5627 20.3664 20.3727 25.5664 13.9427 25.5664ZM11.6027 20.3164C12.0727 20.3164 12.4127 19.9764 12.4127 19.4964V18.0464H15.3427C15.6027 18.0464 15.7927 17.8564 15.7927 17.5964C15.7927 17.3364 15.6027 17.1464 15.3427 17.1464H12.4127V14.6464H16.9427C17.3627 14.6464 17.6627 14.3564 17.6627 13.9464C17.6627 13.5464 17.3627 13.2664 16.9427 13.2664H12.4127V9.2964H17.4227C17.8527 9.2964 18.1527 8.9964 18.1527 8.5964C18.1527 8.1764 17.8527 7.8764 17.4227 7.8764H11.6027C11.1027 7.8764 10.7827 8.1864 10.7827 8.7064V17.1464H9.4727C9.2027 17.1464 9.0127 17.3364 9.0127 17.5964C9.0127 17.8564 9.2027 18.0464 9.4727 18.0464H10.7827V19.4964C10.7827 19.9764 11.1127 20.3164 11.6027 20.3164Z"
        fillRule="evenodd"
        clipRule="evenodd"
    />
</svg>
        