
<svg
    viewBox="0 0 30.529296875 29.17578125"
    xmlns="http://www.w3.org/2000/svg"
>
    <path
        fill="inherit"
        d="M1.8137 25.919H28.7137V25.009C28.7137 24.459 28.3937 24.129 27.8337 24.129H26.9637V9.379H28.1637C28.9137 9.379 29.3537 8.829 29.3537 8.269C29.3537 7.859 29.1237 7.509 28.6137 7.219L16.9437 0.479C16.3937 0.169 15.8137 -0.001 15.2537 -0.001C14.6937 -0.001 14.1137 0.169 13.5937 0.479L1.9137 7.219C1.3937 7.509 1.1737 7.859 1.1737 8.269C1.1737 8.829 1.6137 9.379 2.3637 9.379H3.5637V24.129H2.7037C2.1437 24.129 1.8137 24.459 1.8137 25.009ZM5.6337 24.129V7.629L14.7237 2.529C14.8937 2.429 15.0837 2.379 15.2537 2.379C15.4337 2.379 15.6237 2.429 15.8037 2.529L24.8937 7.629V24.129ZM12.9437 20.749C13.4137 20.749 13.7537 20.429 13.7537 19.929V18.489H16.6837C16.9437 18.489 17.1337 18.309 17.1337 18.029C17.1337 17.769 16.9437 17.579 16.6837 17.579H13.7537V15.079H18.2837C18.7037 15.079 19.0037 14.789 19.0037 14.379C19.0037 13.989 18.7037 13.699 18.2837 13.699H13.7537V9.739H18.7537C19.1937 9.739 19.4937 9.449 19.4937 9.039C19.4937 8.609 19.1937 8.329 18.7537 8.329H12.9437C12.4437 8.329 12.1237 8.639 12.1237 9.159V17.579H10.8137C10.5437 17.579 10.3537 17.769 10.3537 18.029C10.3537 18.309 10.5437 18.489 10.8137 18.489H12.1237V19.929C12.1237 20.429 12.4537 20.749 12.9437 20.749ZM1.0937 29.179H29.4237C30.0237 29.179 30.5337 28.669 30.5337 28.069C30.5337 27.469 30.0237 26.979 29.4237 26.979H1.0937C0.4937 26.979 0.0037 27.469 0.0037 28.069C0.0037 28.669 0.4937 29.179 1.0937 29.179Z"
        fillRule="evenodd"
        clipRule="evenodd"
    />
</svg>
        