
<svg
    viewBox="0 0 25.169921875 25.169921875"
    xmlns="http://www.w3.org/2000/svg"
>
    <path
        fill="inherit"
        d="M4.2937 25.1692H20.8737C23.7437 25.1692 25.1737 23.7592 25.1737 20.9492V4.2392C25.1737 1.4192 23.7437 -0.0008 20.8737 -0.0008H4.2937C1.4337 -0.0008 0.0037 1.4192 0.0037 4.2392V20.9492C0.0037 23.7592 1.4337 25.1692 4.2937 25.1692ZM4.3237 22.9692C2.9537 22.9692 2.2037 22.2392 2.2037 20.8192V4.3592C2.2037 2.9392 2.9537 2.1992 4.3237 2.1992H20.8537C22.2037 2.1992 22.9737 2.9392 22.9737 4.3592V20.8192C22.9737 22.2392 22.2037 22.9692 20.8537 22.9692ZM10.2637 18.9492C10.7337 18.9492 11.0737 18.6092 11.0737 18.1292V16.6792H14.0037C14.2637 16.6792 14.4537 16.4892 14.4537 16.2292C14.4537 15.9692 14.2637 15.7792 14.0037 15.7792H11.0737V13.2792H15.6037C16.0237 13.2792 16.3337 12.9892 16.3337 12.5792C16.3337 12.1792 16.0237 11.8992 15.6037 11.8992H11.0737V7.9292H16.0737C16.5137 7.9292 16.8137 7.6292 16.8137 7.2292C16.8137 6.8092 16.5137 6.5092 16.0737 6.5092H10.2637C9.7637 6.5092 9.4437 6.8192 9.4437 7.3392V15.7792H8.1337C7.8737 15.7792 7.6837 15.9692 7.6837 16.2292C7.6837 16.4892 7.8737 16.6792 8.1337 16.6792H9.4437V18.1292C9.4437 18.6092 9.7737 18.9492 10.2637 18.9492Z"
        fillRule="evenodd"
        clipRule="evenodd"
    />
</svg>
        