
<svg
    viewBox="0 0 30.529296875 29.17578125"
    xmlns="http://www.w3.org/2000/svg"
>
    <path
        fill="inherit"
        d="M1.0937 29.179H29.4237C30.0237 29.179 30.5337 28.669 30.5337 28.069C30.5337 27.469 30.0237 26.979 29.4237 26.979H28.7137V25.979C28.7137 25.429 28.3937 25.099 27.8337 25.099H26.9637V9.379H28.1637C28.9137 9.379 29.3537 8.829 29.3537 8.269C29.3537 7.859 29.1237 7.509 28.6137 7.219L16.9437 0.479C16.3937 0.169 15.8137 -0.001 15.2537 -0.001C14.6937 -0.001 14.1137 0.169 13.5937 0.479L1.9137 7.219C1.3937 7.509 1.1737 7.859 1.1737 8.269C1.1737 8.829 1.6137 9.379 2.3637 9.379H3.5637V25.099H2.7037C2.1437 25.099 1.8137 25.429 1.8137 25.979V26.979H1.0937C0.4937 26.979 0.0037 27.469 0.0037 28.069C0.0037 28.669 0.4937 29.179 1.0937 29.179ZM12.8937 22.189C12.3737 22.189 12.0337 21.829 12.0337 21.329V19.839H10.6737C10.4037 19.839 10.2037 19.649 10.2037 19.369C10.2037 19.099 10.4037 18.909 10.6737 18.909H12.0337V10.209C12.0337 9.669 12.3637 9.339 12.8937 9.339H18.8837C19.3337 9.339 19.6437 9.639 19.6437 10.079C19.6437 10.499 19.3337 10.799 18.8837 10.799H13.7237V14.889H18.3937C18.8237 14.889 19.1437 15.199 19.1437 15.609C19.1437 16.019 18.8237 16.339 18.3937 16.339H13.7237V18.909H16.7337C17.0037 18.909 17.2037 19.099 17.2037 19.369C17.2037 19.649 17.0037 19.839 16.7337 19.839H13.7237V21.329C13.7237 21.829 13.3737 22.189 12.8937 22.189Z"
        fillRule="evenodd"
        clipRule="evenodd"
    />
</svg>
        