<svg viewBox="0 0 42.232093759016195 24.741491845702754" xmlns="http://www.w3.org/2000/svg"><path d="M0.0037 12.5724C0.0037 19.8724 6.8637 24.7424 17.2437 24.7424C27.6337 24.7424 34.4937 19.8724 34.4937 12.5724C34.4937 11.7424 33.9637 10.9424 32.9937 10.2324L40.6337 5.5624C44.4037 3.2624 40.9037 -2.2776 36.3137 1.0224L26.7837 7.9024C24.1137 7.3524 20.8737 7.0224 17.2437 7.0224C7.0937 7.0224 0.0037 9.5124 0.0037 12.5724ZM2.2037 12.5724C2.2037 11.0924 9.3637 9.0824 17.2437 9.0824C25.1137 9.0824 32.2937 11.0924 32.2937 12.5724C32.2937 13.5824 28.9137 14.9024 23.9637 15.5724C23.6437 13.1324 21.4737 11.5624 19.0037 11.5624C17.2237 11.5624 15.6637 12.3524 14.7537 13.5824C14.2737 13.4224 13.8337 13.3524 13.3037 13.3524C11.6437 13.3524 10.2237 14.2124 9.5837 15.4324C5.1537 14.7224 2.2037 13.5124 2.2037 12.5724Z" /></svg>