
<svg
    viewBox={0 0 42.50796237762652 25.01410100941412}
    xmlns="http://www.w3.org/2000/svg"
>
    <path
        fill="inherit"
        d="M0.0037 12.845C0.0037 20.145 6.8637 25.015 17.2437 25.015C27.6337 25.015 34.4937 20.145 34.4937 12.845C34.4937 12.085 34.0437 11.345 33.2237 10.685L40.7737 6.065C44.8737 3.575 41.0537 -2.435 36.1437 1.075L26.4037 8.085C23.8037 7.595 20.7037 7.295 17.2437 7.295C7.0937 7.295 0.0037 9.785 0.0037 12.845ZM37.7237 2.605C39.7137 1.225 40.9737 3.345 39.4137 4.315L31.1037 9.465C30.4337 9.165 29.6837 8.905 28.8337 8.665ZM2.2037 12.845C2.2037 11.365 9.3637 9.355 17.2437 9.355C25.1137 9.355 32.2937 11.365 32.2937 12.845C32.2937 13.855 28.9037 15.105 23.9537 15.745C23.5737 13.355 21.4337 11.835 19.0037 11.835C17.2237 11.835 15.6637 12.625 14.7537 13.855C14.2737 13.695 13.8337 13.625 13.3037 13.625C11.6937 13.625 10.2937 14.445 9.6437 15.605C5.1837 14.955 2.2037 13.785 2.2037 12.845ZM2.6237 15.595C5.3137 17.195 11.1537 18.355 17.2437 18.355C23.3337 18.355 29.1737 17.195 31.8737 15.595C30.7337 19.945 24.9237 22.815 17.2437 22.815C9.5737 22.815 3.7637 19.945 2.6237 15.595Z"
        fillRule="evenodd"
        clipRule="evenodd"
    />
</svg>
        