<svg viewBox="0 0 39.064030552326685 30.48828125" xmlns="http://www.w3.org/2000/svg"><path d="M9.9272 29.3652C9.9272 29.9852 10.4072 30.4852 11.0072 30.4852H31.0672C31.6672 30.4852 32.1772 29.9852 32.1772 29.3652C32.1772 28.7752 31.6672 28.2852 31.0672 28.2852H30.0172V13.0152C31.2472 13.7552 31.7772 14.8352 31.7772 16.1052C31.7772 18.2952 31.4472 20.9552 31.4472 23.2252C31.4472 25.5952 32.8972 27.0752 35.1672 27.0752C37.6672 27.0752 39.0672 25.4052 39.0672 22.4452C39.0672 19.0152 38.3972 15.0652 37.1272 8.8452L36.8172 7.4052C36.5372 6.0552 36.1272 4.9652 35.3172 3.9552L33.7772 2.0252C33.0772 1.1452 31.7372 2.1552 32.4872 3.1052L34.4172 5.5252C34.5372 5.6852 34.5572 5.9052 34.4472 6.0952L33.2972 8.2352C32.9972 8.8052 33.0472 9.1852 33.5272 9.7252L36.0672 12.4252C36.9272 16.3152 37.4272 19.7552 37.4272 22.4452C37.4272 24.3452 36.6172 25.4052 35.1672 25.4052C33.9072 25.4052 33.0872 24.5852 33.0872 23.2252C33.0872 21.2152 33.4172 18.5552 33.4172 16.1052C33.4172 13.9052 32.4172 12.1852 30.0172 11.1652V3.4752C30.0172 1.2352 28.7872 -0.0048 26.5372 -0.0048H15.5372C13.2772 -0.0048 12.0872 1.2352 12.0872 3.4752V28.2852H11.0072C10.4172 28.2852 9.9272 28.7652 9.9272 29.3652ZM15.9772 12.3852C14.9772 12.3852 14.3872 11.8352 14.3872 10.9252V3.7852C14.3872 2.8552 14.9772 2.2952 15.9772 2.2952H26.1072C27.0972 2.2952 27.7172 2.8552 27.7172 3.7852V10.9252C27.7172 11.8352 27.0972 12.3852 26.1072 12.3852ZM0.3972 14.5752C-0.1228 14.8752 -0.1428 15.5952 0.3972 15.9152L7.4272 20.0552C7.9972 20.3952 8.6672 20.1252 8.6672 19.5352V10.9252C8.6672 10.3452 7.9572 10.0852 7.4272 10.4052Z" /></svg>