
<svg
    viewBox="0 0 27.890625 27.890625"
    xmlns="http://www.w3.org/2000/svg"
>
    <path
        fill="inherit"
        d="M13.9427 27.8891C21.6427 27.8891 27.8927 21.6391 27.8927 13.9491C27.8927 6.2591 21.6427 -0.0009 13.9427 -0.0009C6.2627 -0.0009 0.0027 6.2591 0.0027 13.9491C0.0027 21.6391 6.2627 27.8891 13.9427 27.8891ZM7.1127 21.0791C7.1127 20.7491 7.3827 20.4791 7.7127 20.4791H8.2827V7.6791C8.2827 6.5191 8.8827 5.8891 10.0527 5.8891H15.7327C16.9127 5.8891 17.5427 6.5191 17.5427 7.6791V11.6391C18.8027 12.1391 19.3227 13.0391 19.3227 14.2191C19.3227 15.4891 19.1727 16.8691 19.1727 17.8991C19.1727 18.5791 19.5827 18.9991 20.2227 18.9991C20.9427 18.9991 21.3527 18.4691 21.3527 17.4891C21.3527 16.0891 21.0927 14.3391 20.6627 12.3291L19.3427 10.9191C19.0827 10.6491 19.0627 10.4491 19.2227 10.1291L19.7927 9.0391C19.8627 8.9291 19.8527 8.8191 19.7927 8.7491L18.8027 7.4891C18.3727 6.9891 19.1227 6.4291 19.5227 6.9191L20.3027 7.9191C20.7127 8.4391 20.9627 9.0091 21.0827 9.6791L21.2427 10.4591C21.9027 13.6691 22.2627 15.7091 22.2627 17.4891C22.2627 19.0491 21.5227 19.8891 20.2227 19.8891C19.0327 19.8891 18.2627 19.1391 18.2627 17.8991C18.2627 16.7191 18.4327 15.3391 18.4327 14.2191C18.4327 13.5591 18.1727 13.0191 17.5427 12.6491V20.4791H18.0727C18.4027 20.4791 18.6927 20.7691 18.6927 21.0791C18.6927 21.4191 18.4027 21.6691 18.0727 21.6691H7.7127C7.3827 21.6691 7.1127 21.4191 7.1127 21.0791ZM10.2827 12.2891H15.5327C16.0327 12.2891 16.3627 11.9991 16.3627 11.5391V7.8291C16.3627 7.3591 16.0327 7.0691 15.5327 7.0691H10.2827C9.7527 7.0691 9.4627 7.3591 9.4627 7.8291V11.5391C9.4627 11.9991 9.7527 12.2891 10.2827 12.2891Z"
        fillRule="evenodd"
        clipRule="evenodd"
    />
</svg>
        