
<svg
    viewBox="0 0 24.36328125 36.53125"
    xmlns="http://www.w3.org/2000/svg"
>
    <path
        fill="inherit"
        d="M3.1837 21.1463C3.1837 21.6563 3.5937 22.0363 4.0637 22.0363H18.5137C19.0037 22.0363 19.4037 21.6563 19.4037 21.1463C19.4037 20.6763 19.0037 20.2763 18.5137 20.2763H17.7437V9.4763C18.5837 9.9763 18.9237 10.7163 18.9237 11.6063C18.9237 13.1563 18.6937 15.0763 18.6937 16.7163C18.6937 18.4663 19.7837 19.5963 21.4637 19.5963C23.3237 19.5963 24.3637 18.3363 24.3637 16.1563C24.3637 13.6963 23.8937 10.8463 22.9737 6.3463L22.7537 5.3163C22.5437 4.3463 22.2337 3.5163 21.6537 2.7863L20.5337 1.4063C19.9637 0.6663 18.8437 1.5263 19.4737 2.2863L20.8537 4.0363C20.9137 4.1163 20.9137 4.2363 20.8537 4.3563L20.0337 5.8763C19.7837 6.3463 19.8537 6.6563 20.2037 7.0663L22.0437 8.9963C22.6437 11.7563 22.9837 14.2363 22.9837 16.1563C22.9837 17.4963 22.4537 18.1963 21.4637 18.1963C20.5937 18.1963 20.0737 17.6763 20.0737 16.7163C20.0737 15.2963 20.3137 13.3663 20.3137 11.6063C20.3137 9.9563 19.5537 8.6863 17.7437 7.9263V2.5063C17.7437 0.8763 16.8737 -0.0037 15.2537 -0.0037H7.3237C5.7037 -0.0037 4.8537 0.8863 4.8537 2.5063V20.2763H4.0637C3.5937 20.2763 3.1837 20.6563 3.1837 21.1463ZM7.6437 8.9263C6.9137 8.9263 6.5037 8.5263 6.5037 7.8563V2.7163C6.5037 2.0663 6.9137 1.6563 7.6437 1.6563H14.9437C15.6637 1.6563 16.0937 2.0663 16.0937 2.7163V7.8563C16.0937 8.5263 15.6637 8.9263 14.9437 8.9263ZM1.0437 36.5263C1.6437 36.5263 2.1037 36.0663 2.1037 35.4963V24.8963C2.1037 24.3063 1.6437 23.8263 1.0437 23.8263C0.4537 23.8263 0.0037 24.3063 0.0037 24.8963V35.4963C0.0037 36.0663 0.4537 36.5263 1.0437 36.5263ZM23.1837 36.4763C23.7737 36.4763 24.2437 36.0163 24.2437 35.4363V24.9363C24.2437 24.3463 23.7737 23.8663 23.1837 23.8663C22.6137 23.8663 22.1337 24.3463 22.1337 24.9363V35.4363C22.1337 36.0163 22.6137 36.4763 23.1837 36.4763ZM5.3637 28.7763C6.0537 28.7763 6.6037 28.2163 6.6037 27.5363C6.6037 26.8363 6.0537 26.2763 5.3637 26.2763C4.6737 26.2763 4.1137 26.8363 4.1137 27.5363C4.1137 28.2163 4.6737 28.7763 5.3637 28.7763ZM9.8737 28.7763C10.5637 28.7763 11.1137 28.2163 11.1137 27.5363C11.1137 26.8363 10.5637 26.2763 9.8737 26.2763C9.1737 26.2763 8.6137 26.8363 8.6137 27.5363C8.6137 28.2163 9.1737 28.7763 9.8737 28.7763ZM14.3837 28.7763C15.0637 28.7763 15.6137 28.2163 15.6137 27.5363C15.6137 26.8363 15.0637 26.2763 14.3837 26.2763C13.6837 26.2763 13.1237 26.8363 13.1237 27.5363C13.1237 28.2163 13.6837 28.7763 14.3837 28.7763ZM18.8837 28.7763C19.5637 28.7763 20.1237 28.2163 20.1237 27.5363C20.1237 26.8363 19.5637 26.2763 18.8837 26.2763C18.1837 26.2763 17.6237 26.8363 17.6237 27.5363C17.6237 28.2163 18.1837 28.7763 18.8837 28.7763ZM5.3637 34.1763C6.0537 34.1763 6.6037 33.6163 6.6037 32.9263C6.6037 32.2063 6.0537 31.6663 5.3637 31.6663C4.6737 31.6663 4.1137 32.2263 4.1137 32.9263C4.1137 33.6163 4.6737 34.1763 5.3637 34.1763ZM9.8737 34.1763C10.5637 34.1763 11.1137 33.6163 11.1137 32.9263C11.1137 32.2063 10.5637 31.6663 9.8737 31.6663C9.1737 31.6663 8.6137 32.2263 8.6137 32.9263C8.6137 33.6163 9.1737 34.1763 9.8737 34.1763ZM14.3837 34.1763C15.0637 34.1763 15.6137 33.6163 15.6137 32.9263C15.6137 32.2063 15.0637 31.6663 14.3837 31.6663C13.6837 31.6663 13.1237 32.2263 13.1237 32.9263C13.1237 33.6163 13.6837 34.1763 14.3837 34.1763ZM18.8837 34.1763C19.5637 34.1763 20.1237 33.6163 20.1237 32.9263C20.1237 32.2063 19.5637 31.6663 18.8837 31.6663C18.1837 31.6663 17.6237 32.2263 17.6237 32.9263C17.6237 33.6163 18.1837 34.1763 18.8837 34.1763Z"
        fillRule="evenodd"
        clipRule="evenodd"
    />
</svg>
        