
<svg
    viewBox={0 0 27.890625 27.890625}
    xmlns="http://www.w3.org/2000/svg"
>
    <path
        fill="inherit"
        d="M13.9427 27.8864C21.6427 27.8864 27.8927 21.6464 27.8927 13.9464C27.8927 6.2464 21.6427 -0.0036 13.9427 -0.0036C6.2527 -0.0036 0.0027 6.2464 0.0027 13.9464C0.0027 21.6464 6.2527 27.8864 13.9427 27.8864ZM13.9427 25.5664C7.5227 25.5664 2.3227 20.3664 2.3227 13.9464C2.3227 7.5164 7.5227 2.3264 13.9427 2.3264C20.3727 2.3264 25.5627 7.5164 25.5627 13.9464C25.5627 20.3664 20.3727 25.5664 13.9427 25.5664ZM7.3327 20.8464C7.3327 21.1764 7.5927 21.4364 7.9027 21.4364H17.9627C18.2827 21.4364 18.5527 21.1764 18.5527 20.8464C18.5527 20.5464 18.2827 20.2864 17.9627 20.2864H17.4427V12.6764C18.0427 13.0264 18.3027 13.5664 18.3027 14.2064C18.3027 15.2964 18.1427 16.6364 18.1427 17.7764C18.1427 18.9764 18.8827 19.7164 20.0427 19.7164C21.3027 19.7164 22.0127 18.8664 22.0127 17.3764C22.0127 15.6564 21.6727 13.6564 21.0227 10.5564L20.8727 9.8064C20.7527 9.1464 20.5227 8.5864 20.1227 8.0964L19.3627 7.1264C18.9727 6.6464 18.2527 7.1864 18.6627 7.6864L19.6327 8.8864C19.6827 8.9664 19.7027 9.0664 19.6327 9.1564L19.0727 10.2364C18.9127 10.5264 18.9327 10.7464 19.1927 11.0064L20.4627 12.3564C20.8927 14.3164 21.1327 16.0064 21.1327 17.3764C21.1327 18.3364 20.7427 18.8364 20.0427 18.8364C19.4127 18.8364 19.0127 18.4464 19.0127 17.7764C19.0127 16.7664 19.1727 15.4364 19.1727 14.2064C19.1727 13.0664 18.6627 12.1864 17.4427 11.7064V7.8464C17.4427 6.7264 16.8327 6.1064 15.6927 6.1064H10.1727C9.0527 6.1064 8.4627 6.7264 8.4627 7.8464V20.2864H7.9027C7.5927 20.2864 7.3327 20.5364 7.3327 20.8464ZM10.3927 12.3364C9.8827 12.3364 9.5927 12.0564 9.5927 11.5964V8.0164C9.5927 7.5464 9.8827 7.2464 10.3927 7.2464H15.4927C15.9827 7.2464 16.2927 7.5464 16.2927 8.0164V11.5964C16.2927 12.0564 15.9827 12.3364 15.4927 12.3364Z"
        fillRule="evenodd"
        clipRule="evenodd"
    />
</svg>
        