<svg viewBox="0 0 32.63134765625 32.2861328125" xmlns="http://www.w3.org/2000/svg"><path d="M21.366 18.1852L23.566 20.3952V13.0052C24.796 13.7352 25.326 14.8352 25.326 16.1052C25.326 17.8652 25.116 19.9752 25.026 21.8752L26.666 23.4852C26.666 23.4052 26.656 23.3152 26.656 23.2252C26.656 21.2152 26.986 18.5552 26.986 16.1052C26.986 13.9052 25.986 12.1852 23.566 11.1652V3.4752C23.566 1.2352 22.346 -0.0048 20.106 -0.0048H8.546C6.806 -0.0048 5.716 0.7552 5.326 2.1452L7.296 4.1252V3.4952C7.296 2.6552 7.706 2.2052 8.586 2.2052H20.066C20.916 2.2052 21.366 2.6352 21.366 3.4952ZM29.906 31.9752C30.336 32.3852 31.006 32.3852 31.396 31.9752C31.816 31.5552 31.826 30.8852 31.396 30.4752L1.806 0.9052C1.396 0.4952 0.726 0.4952 0.296 0.9052C-0.104 1.2952 -0.104 1.9952 0.296 2.3952ZM32.636 22.4452C32.636 19.0152 31.966 15.0652 30.686 8.8452L30.386 7.4052C30.106 6.0552 29.696 4.9652 28.886 3.9552L27.336 2.0252C26.646 1.1452 25.306 2.1552 26.056 3.1052L27.986 5.5252C28.106 5.6852 28.116 5.9052 28.006 6.0952L26.866 8.2352C26.566 8.8052 26.616 9.1852 27.096 9.7252L29.636 12.4252C30.496 16.3152 30.976 19.7552 30.976 22.4452C30.976 24.3452 30.166 25.4052 28.736 25.4052C28.676 25.4052 28.626 25.4052 28.566 25.3852L30.046 26.8652C31.706 26.3752 32.636 24.8252 32.636 22.4452ZM20.036 11.5752V4.3352C20.036 3.8652 19.696 3.5252 19.236 3.5252H9.416C8.956 3.5252 8.606 3.8652 8.606 4.3352V5.4452L15.566 12.3852H19.236C19.696 12.3852 20.036 12.0452 20.036 11.5752ZM4.016 30.5052H24.636C24.856 30.5052 25.066 30.4152 25.236 30.2952L21.366 26.4452V28.3052H7.286L7.296 11.6252L5.096 9.4352V28.3052H4.016C3.426 28.3052 2.926 28.7752 2.926 29.3852C2.926 29.9952 3.416 30.5052 4.016 30.5052Z" /></svg>