
<svg
    viewBox={0 0 39.624577427326685 30.501953125}
    xmlns="http://www.w3.org/2000/svg"
>
    <path
        fill="inherit"
        d="M9.9172 29.3852C9.9172 29.9952 10.4072 30.5052 11.0072 30.5052H31.6272C32.2272 30.5052 32.7372 29.9952 32.7372 29.3852C32.7372 28.7952 32.2272 28.3052 31.6272 28.3052H30.5772V13.0152C31.8072 13.7552 32.3372 14.8352 32.3372 16.1052C32.3372 18.2952 32.0072 20.9552 32.0072 23.2252C32.0072 25.5952 33.4572 27.0752 35.7272 27.0752C38.2172 27.0752 39.6272 25.4052 39.6272 22.4452C39.6272 19.0152 38.9572 15.0652 37.6872 8.8452L37.3872 7.4052C37.0972 6.0552 36.6872 4.9652 35.8772 3.9552L34.3372 2.0252C33.6372 1.1452 32.2972 2.1552 33.0472 3.1052L34.9772 5.5252C35.0972 5.6852 35.1172 5.9052 35.0072 6.0952L33.8572 8.2352C33.5572 8.8052 33.6072 9.1852 34.0872 9.7252L36.6272 12.4252C37.4872 16.3152 37.9872 19.7552 37.9872 22.4452C37.9872 24.3452 37.1772 25.4052 35.7272 25.4052C34.4672 25.4052 33.6472 24.5852 33.6472 23.2252C33.6472 21.2152 33.9772 18.5552 33.9772 16.1052C33.9772 13.9052 32.9772 12.1852 30.5772 11.1652V3.4752C30.5772 1.2352 29.3472 -0.0048 27.0972 -0.0048H15.5372C13.2772 -0.0048 12.0872 1.2352 12.0872 3.4752V28.3052H11.0072C10.4172 28.3052 9.9172 28.7752 9.9172 29.3852ZM14.2872 3.4952C14.2872 2.6552 14.6972 2.2052 15.5772 2.2052H27.0572C27.9072 2.2052 28.3572 2.6352 28.3572 3.4952V28.3052H14.2772ZM16.4072 12.3852H26.2272C26.6872 12.3852 27.0372 12.0452 27.0372 11.5752V4.3352C27.0372 3.8652 26.6872 3.5252 26.2272 3.5252H16.4072C15.9472 3.5252 15.6072 3.8652 15.6072 4.3352V11.5752C15.6072 12.0452 15.9472 12.3852 16.4072 12.3852ZM0.3972 14.5752C-0.1228 14.8752 -0.1428 15.5952 0.3972 15.9152L7.4272 20.0552C7.9972 20.3952 8.6672 20.1252 8.6672 19.5352V10.9252C8.6672 10.3452 7.9572 10.0852 7.4272 10.4052Z"
        fillRule="evenodd"
        clipRule="evenodd"
    />
</svg>
        