
<svg
    viewBox="0 0 40.704655552326685 30.48828125"
    xmlns="http://www.w3.org/2000/svg"
>
    <path
        fill="inherit"
        d="M0.0037 29.3652C0.0037 29.9852 0.4737 30.4852 1.0837 30.4852H21.1337C21.7337 30.4852 22.2437 29.9852 22.2437 29.3652C22.2437 28.7752 21.7337 28.2852 21.1337 28.2852H20.0837V13.0152C21.3237 13.7552 21.8437 14.8352 21.8437 16.1052C21.8437 18.2952 21.5237 20.9552 21.5237 23.2252C21.5237 25.5952 22.9737 27.0752 25.2337 27.0752C27.7437 27.0752 29.1437 25.4052 29.1437 22.4452C29.1437 19.0152 28.4737 15.0652 27.1937 8.8452L26.8937 7.4052C26.6237 6.0552 26.1937 4.9652 25.3937 3.9552L23.8537 2.0252C23.1637 1.1452 21.8037 2.1552 22.5537 3.1052L24.4837 5.5252C24.6237 5.6852 24.6237 5.9052 24.5137 6.0952L23.3637 8.2352C23.0637 8.8052 23.1237 9.1852 23.6137 9.7252L26.1537 12.4252C27.0137 16.3152 27.4937 19.7552 27.4937 22.4452C27.4937 24.3452 26.6837 25.4052 25.2337 25.4052C23.9937 25.4052 23.1737 24.5852 23.1737 23.2252C23.1737 21.2152 23.5037 18.5552 23.5037 16.1052C23.5037 13.9052 22.5037 12.1852 20.0837 11.1652V3.4752C20.0837 1.2352 18.8537 -0.0048 16.6237 -0.0048H5.6037C3.3537 -0.0048 2.1637 1.2352 2.1637 3.4752V28.2852H1.0837C0.4937 28.2852 0.0037 28.7652 0.0037 29.3652ZM6.0437 12.3852C5.0537 12.3852 4.4537 11.8352 4.4537 10.9252V3.7852C4.4537 2.8552 5.0537 2.2952 6.0437 2.2952H16.1837C17.1737 2.2952 17.7837 2.8552 17.7837 3.7852V10.9252C17.7837 11.8352 17.1737 12.3852 16.1837 12.3852ZM40.3037 14.5752L33.2737 10.4052C32.7437 10.0852 32.0337 10.3452 32.0337 10.9252V19.5352C32.0337 20.1252 32.7037 20.3952 33.2737 20.0552L40.3037 15.9152C40.8537 15.5952 40.8237 14.8752 40.3037 14.5752Z"
        fillRule="evenodd"
        clipRule="evenodd"
    />
</svg>
        