
<svg
    viewBox="0 0 36.490234375 20.220703125"
    xmlns="http://www.w3.org/2000/svg"
>
    <path
        fill="inherit"
        d="M18.1837 20.2246C18.6437 20.2246 18.9737 19.9646 18.9737 19.4946C18.9737 19.2946 18.9337 19.1846 18.7837 18.8946C17.1137 16.3146 16.1637 13.3446 16.1637 10.1346C16.1637 7.0246 17.0637 3.9246 18.7837 1.3246C18.9337 1.0346 18.9737 0.9346 18.9737 0.7246C18.9737 0.2846 18.6437 0.0046 18.1837 0.0046C17.7337 0.0046 17.3737 0.2046 16.9437 0.8046C14.8737 3.4146 13.8537 6.6746 13.8537 10.1146C13.8537 13.5646 14.8437 16.7246 16.9437 19.4146C17.3737 20.0146 17.7337 20.2246 18.1837 20.2246ZM32.1537 20.2246C32.6037 20.2246 32.9637 20.0146 33.4037 19.4146C35.4937 16.7246 36.4937 13.5646 36.4937 10.1146C36.4937 6.6746 35.4637 3.4146 33.4037 0.8046C32.9637 0.2046 32.6037 0.0046 32.1537 0.0046C31.6937 0.0046 31.3637 0.2846 31.3637 0.7246C31.3637 0.9346 31.4037 1.0346 31.5537 1.3246C33.2737 3.9246 34.1837 7.0246 34.1837 10.1346C34.1837 13.3446 33.2237 16.3146 31.5537 18.8946C31.4037 19.1846 31.3637 19.2946 31.3637 19.4946C31.3637 19.9346 31.6937 20.2246 32.1537 20.2246ZM1.8437 20.1946C4.5237 20.1946 5.7537 19.0446 6.4137 15.9646L7.9737 8.4946H10.4437C11.2337 8.4946 11.7437 8.0646 11.7437 7.3846C11.7437 6.7946 11.3637 6.4246 10.7337 6.4246H8.4037L8.7937 4.5646C9.1637 2.8346 9.7037 2.1146 11.2137 2.1146C11.4437 2.1146 11.6637 2.1046 11.8137 2.0946C12.4837 2.0246 12.7937 1.7046 12.7937 1.1246C12.7937 0.3546 12.1537 0.0146 10.8437 0.0146C8.2337 0.0146 6.8937 1.3146 6.2737 4.2346L5.8237 6.4246H4.1337C3.3237 6.4246 2.8137 6.8446 2.8137 7.5346C2.8137 8.1246 3.2037 8.4946 3.8437 8.4946H5.3837L3.8837 15.6446C3.5037 17.4346 2.9437 18.0846 1.4737 18.0846C1.2837 18.0846 1.0937 18.1046 0.9737 18.1146C0.3437 18.1946 0.0037 18.5346 0.0037 19.1146C0.0037 19.8546 0.6337 20.1946 1.8437 20.1946ZM21.0537 16.5946C21.4937 16.5946 21.8037 16.4446 22.1437 15.9546L25.1437 11.6846H25.1937L28.2637 16.0246C28.6037 16.5046 28.9337 16.5946 29.2537 16.5946C29.9137 16.5946 30.3337 16.1346 30.3337 15.5746C30.3337 15.3146 30.2737 15.0646 30.0937 14.8346L26.5937 10.0746L30.0937 5.3846C30.2537 5.1546 30.3537 4.9046 30.3537 4.6246C30.3537 4.0346 29.8637 3.6246 29.3037 3.6246C28.8037 3.6246 28.5337 3.8646 28.2737 4.2646L25.3937 8.4946H25.3237L22.4237 4.2546C22.1437 3.8546 21.8337 3.6246 21.3137 3.6246C20.6737 3.6246 20.1937 4.1246 20.1937 4.6746C20.1937 5.0746 20.3137 5.3146 20.4937 5.5546L23.8337 10.0046L20.2937 14.8846C20.0937 15.1446 20.0537 15.3846 20.0537 15.6546C20.0537 16.1846 20.5037 16.5946 21.0537 16.5946Z"
        fillRule="evenodd"
        clipRule="evenodd"
    />
</svg>
        