
<svg
    viewBox="0 0 29.99609375 20.220703125"
    xmlns="http://www.w3.org/2000/svg"
>
    <path
        fill="inherit"
        d="M15.4337 20.2246C15.9037 20.2246 16.1637 20.0746 16.5037 19.5746L21.9737 12.1146H22.0537L27.4637 19.5946C27.7937 20.0546 28.0937 20.2246 28.5837 20.2246C29.3137 20.2246 29.8337 19.7146 29.8337 19.0146C29.8337 18.7146 29.7337 18.3846 29.5337 18.1446L23.6137 10.1446L29.6937 1.9946C29.8837 1.7346 29.9937 1.4446 29.9937 1.1646C29.9937 0.5146 29.4637 0.0046 28.8237 0.0046C28.3137 0.0046 28.0237 0.1646 27.6837 0.6546L22.2337 8.2146H22.1437L16.7237 0.6546C16.3637 0.1546 16.1037 0.0046 15.5737 0.0046C14.8437 0.0046 14.3137 0.4946 14.3137 1.1746C14.3137 1.4746 14.4237 1.7746 14.6137 2.0546L20.4937 10.0646L14.5237 18.2146C14.3137 18.4846 14.2037 18.7746 14.2037 19.0546C14.2037 19.7146 14.7537 20.2246 15.4337 20.2246ZM1.2437 20.1646C2.0237 20.1646 2.5337 19.6746 2.5337 18.8946V11.4146H10.5537C11.2137 11.4146 11.7037 10.9946 11.7037 10.3246C11.7037 9.6346 11.2137 9.2146 10.5537 9.2146H2.5337V2.5446H11.3337C12.0137 2.5446 12.5137 2.1146 12.5137 1.4246C12.5137 0.7246 12.0137 0.2846 11.3337 0.2846H1.2337C0.4737 0.2846 0.0037 0.7746 0.0037 1.5446V18.8946C0.0037 19.6746 0.4737 20.1646 1.2437 20.1646Z"
        fillRule="evenodd"
        clipRule="evenodd"
    />
</svg>
        