
<svg
    viewBox={0 0 27.890625 27.890625}
    xmlns="http://www.w3.org/2000/svg"
>
    <path
        fill="inherit"
        d="M13.9427 27.8864C21.6427 27.8864 27.8927 21.6464 27.8927 13.9464C27.8927 6.2464 21.6427 -0.0036 13.9427 -0.0036C6.2527 -0.0036 0.0027 6.2464 0.0027 13.9464C0.0027 21.6464 6.2527 27.8864 13.9427 27.8864ZM13.9427 25.5664C7.5227 25.5664 2.3227 20.3664 2.3227 13.9464C2.3227 7.5164 7.5227 2.3264 13.9427 2.3264C20.3727 2.3264 25.5627 7.5164 25.5627 13.9464C25.5627 20.3664 20.3727 25.5664 13.9427 25.5664ZM13.9827 20.3564C17.3227 20.3564 19.3027 18.4064 19.3027 15.5864V14.5864C19.3027 13.8464 18.8627 13.4164 18.1527 13.4164H14.6327C14.1327 13.4164 13.8327 13.7364 13.8327 14.2064C13.8327 14.6164 14.1327 14.9864 14.6327 14.9864H17.1327V15.8764C17.1327 17.4864 16.0627 18.5564 14.0127 18.5564C11.8127 18.5564 10.3527 16.6764 10.3527 13.8264C10.3527 10.9964 11.8027 9.0764 13.9727 9.0764C15.5127 9.0764 16.6627 9.8164 17.2227 11.1664C17.4427 11.6364 17.7227 11.8264 18.1327 11.8264C18.7027 11.8264 19.0727 11.4664 19.0727 10.8964C19.0727 10.6664 19.0427 10.4864 18.9527 10.2664C18.3027 8.5464 16.4927 7.2764 13.9427 7.2764C10.4027 7.2764 8.1327 9.8264 8.1327 13.8264C8.1327 17.8264 10.4027 20.3564 13.9827 20.3564Z"
        fillRule="evenodd"
        clipRule="evenodd"
    />
</svg>
        