
<svg
    viewBox="0 0 27.890625 27.890625"
    xmlns="http://www.w3.org/2000/svg"
>
    <path
        fill="inherit"
        d="M13.9427 27.8864C21.6427 27.8864 27.8927 21.6264 27.8927 13.9464C27.8927 6.2464 21.6427 -0.0036 13.9427 -0.0036C6.2627 -0.0036 0.0027 6.2464 0.0027 13.9464C0.0027 21.6264 6.2627 27.8864 13.9427 27.8864ZM14.0127 20.6264C10.2827 20.6264 7.9127 17.9964 7.9127 13.8264C7.9127 9.6664 10.2827 6.9964 13.9627 6.9964C16.6227 6.9964 18.5027 8.3264 19.1827 10.1164C19.2627 10.3464 19.3227 10.5264 19.3227 10.7764C19.3227 11.3764 18.9327 11.7564 18.3327 11.7564C17.8927 11.7564 17.6227 11.5364 17.3927 11.0564C16.8027 9.6564 15.6127 8.8864 14.0027 8.8864C11.7327 8.8864 10.2127 10.8664 10.2127 13.8264C10.2127 16.7864 11.7427 18.7564 14.0427 18.7564C16.1827 18.7564 17.2927 17.6364 17.2927 15.9664V15.0364H14.6827C14.1627 15.0364 13.8527 14.6564 13.8527 14.2164C13.8527 13.7364 14.1627 13.3964 14.6827 13.3964H18.3427C19.1027 13.3964 19.5527 13.8464 19.5527 14.6264V15.6664C19.5527 18.5964 17.5027 20.6264 14.0127 20.6264Z"
        fillRule="evenodd"
        clipRule="evenodd"
    />
</svg>
        