
<svg
    viewBox="0 0 25.169921875 25.169921875"
    xmlns="http://www.w3.org/2000/svg"
>
    <path
        fill="inherit"
        d="M4.2937 25.1692H20.8737C23.7437 25.1692 25.1737 23.7592 25.1737 20.9492V4.2392C25.1737 1.4192 23.7437 -0.0008 20.8737 -0.0008H4.2937C1.4337 -0.0008 0.0037 1.4192 0.0037 4.2392V20.9492C0.0037 23.7592 1.4337 25.1692 4.2937 25.1692ZM12.6637 19.2592C8.9237 19.2592 6.5637 16.6292 6.5637 12.4592C6.5637 8.2992 8.9237 5.6292 12.6037 5.6292C15.2737 5.6292 17.1437 6.9592 17.8237 8.7492C17.9237 8.9792 17.9637 9.1592 17.9637 9.4092C17.9637 10.0092 17.5837 10.3892 16.9837 10.3892C16.5437 10.3892 16.2737 10.1692 16.0337 9.6892C15.4537 8.2892 14.2637 7.5192 12.6437 7.5192C10.3737 7.5192 8.8637 9.4992 8.8637 12.4592C8.8637 15.4192 10.3937 17.3892 12.6837 17.3892C14.8337 17.3892 15.9437 16.2692 15.9437 14.5992V13.6692H13.3337C12.8137 13.6692 12.4937 13.2892 12.4937 12.8492C12.4937 12.3692 12.8137 12.0292 13.3337 12.0292H16.9937C17.7437 12.0292 18.1937 12.4792 18.1937 13.2592V14.2992C18.1937 17.2292 16.1437 19.2592 12.6637 19.2592Z"
        fillRule="evenodd"
        clipRule="evenodd"
    />
</svg>
        