<svg viewBox="0 0 25.169921875 25.169921875" xmlns="http://www.w3.org/2000/svg"><path d="M4.2937 25.1692H20.8737C23.7437 25.1692 25.1737 23.7592 25.1737 20.9492V4.2392C25.1737 1.4192 23.7437 -0.0008 20.8737 -0.0008H4.2937C1.4337 -0.0008 0.0037 1.4192 0.0037 4.2392V20.9492C0.0037 23.7592 1.4337 25.1692 4.2937 25.1692ZM4.3237 22.9692C2.9537 22.9692 2.2037 22.2392 2.2037 20.8192V4.3592C2.2037 2.9392 2.9537 2.1992 4.3237 2.1992H20.8537C22.2037 2.1992 22.9737 2.9392 22.9737 4.3592V20.8192C22.9737 22.2392 22.2037 22.9692 20.8537 22.9692ZM12.6437 18.9892C15.9837 18.9892 17.9637 17.0392 17.9637 14.2192V13.2192C17.9637 12.4792 17.5237 12.0492 16.8137 12.0492H13.3037C12.7937 12.0492 12.4937 12.3692 12.4937 12.8392C12.4937 13.2492 12.7937 13.6192 13.3037 13.6192H15.7937V14.5092C15.7937 16.1192 14.7337 17.1892 12.6737 17.1892C10.4737 17.1892 9.0137 15.3092 9.0137 12.4592C9.0137 9.6292 10.4637 7.7092 12.6337 7.7092C14.1737 7.7092 15.3237 8.4492 15.8837 9.7992C16.1237 10.2692 16.3837 10.4592 16.8037 10.4592C17.3637 10.4592 17.7337 10.0992 17.7337 9.5292C17.7337 9.2992 17.7037 9.1192 17.6137 8.8992C16.9637 7.1792 15.1437 5.9092 12.6037 5.9092C9.0637 5.9092 6.7937 8.4592 6.7937 12.4592C6.7937 16.4592 9.0637 18.9892 12.6437 18.9892Z" /></svg>