
<svg
    viewBox={0 0 27.890625 27.890625}
    xmlns="http://www.w3.org/2000/svg"
>
    <path
        fill="inherit"
        d="M13.9427 27.8864C21.6427 27.8864 27.8927 21.6464 27.8927 13.9464C27.8927 6.2464 21.6427 -0.0036 13.9427 -0.0036C6.2527 -0.0036 0.0027 6.2464 0.0027 13.9464C0.0027 21.6464 6.2527 27.8864 13.9427 27.8864ZM13.9427 25.5664C7.5227 25.5664 2.3227 20.3664 2.3227 13.9464C2.3227 7.5164 7.5227 2.3264 13.9427 2.3264C20.3727 2.3264 25.5627 7.5164 25.5627 13.9464C25.5627 20.3664 20.3727 25.5664 13.9427 25.5664ZM7.4527 18.7864C8.2727 18.7864 8.8427 18.4664 9.3627 17.8564L10.4727 16.5064C10.6227 16.3064 10.8027 16.2164 10.9927 16.2164H16.8727C17.0627 16.2164 17.2427 16.3064 17.3927 16.5064L18.5127 17.8564C19.0127 18.4664 19.5927 18.7864 20.4127 18.7864C21.8027 18.7864 22.7327 17.8564 22.7327 16.4364C22.7327 15.8164 22.6027 15.1364 22.3627 14.3264C21.9827 13.0964 21.3327 11.3864 20.7027 10.0664C20.1827 8.9664 19.9227 8.4664 18.6327 8.1764C17.4727 7.9164 15.8827 7.7364 13.9327 7.7364C11.9727 7.7364 10.3927 7.9164 9.2327 8.1764C7.9427 8.4664 7.6827 8.9664 7.1627 10.0664C6.5327 11.3864 5.8927 13.0964 5.5127 14.3264C5.2727 15.1364 5.1227 15.8164 5.1227 16.4364C5.1227 17.8564 6.0527 18.7864 7.4527 18.7864ZM8.8227 12.0264C8.8227 11.7064 9.0227 11.4864 9.3627 11.4864H10.4727V10.4164C10.4727 10.0764 10.6627 9.8564 10.9927 9.8564C11.3227 9.8564 11.5127 10.0764 11.5127 10.4164V11.4864H12.5627C12.9327 11.4864 13.1527 11.7064 13.1527 12.0264C13.1527 12.3764 12.9327 12.5764 12.5627 12.5764H11.5127V13.6764C11.5127 13.9964 11.3227 14.2164 10.9927 14.2164C10.6627 14.2164 10.4727 13.9964 10.4727 13.6764V12.5764H9.3627C9.0227 12.5764 8.8227 12.3764 8.8227 12.0264ZM17.8427 11.9664C17.3527 11.9664 16.9227 11.5664 16.9227 11.0464C16.9227 10.5564 17.3527 10.1464 17.8427 10.1464C18.3427 10.1464 18.7627 10.5564 18.7627 11.0464C18.7627 11.5664 18.3427 11.9664 17.8427 11.9664ZM15.9927 13.8364C15.4927 13.8364 15.0827 13.4264 15.0827 12.9164C15.0827 12.4164 15.4927 12.0164 15.9927 12.0164C16.5027 12.0164 16.9127 12.4164 16.9127 12.9164C16.9127 13.4264 16.5027 13.8364 15.9927 13.8364Z"
        fillRule="evenodd"
        clipRule="evenodd"
    />
</svg>
        