
<svg
    viewBox={0 0 39.470703125 24.7734375}
    xmlns="http://www.w3.org/2000/svg"
>
    <path
        fill="inherit"
        d="M0.0037 19.4941C0.0037 22.6941 2.0737 24.7741 5.2137 24.7741C6.7937 24.7741 8.3637 24.0941 9.5137 22.6641L11.9937 19.6741C12.3437 19.2541 12.7537 19.0441 13.1637 19.0441H26.3037C26.7137 19.0441 27.1237 19.2541 27.4837 19.6741L29.9537 22.6641C31.1037 24.0941 32.6737 24.7741 34.2637 24.7741C37.3937 24.7741 39.4737 22.6941 39.4737 19.4941C39.4737 18.1241 39.1537 16.5541 38.6237 14.7941C37.7937 11.9941 36.3237 8.1741 34.9337 5.2241C33.7537 2.7641 33.1537 1.6441 30.2537 0.9841C27.6837 0.3941 24.1137 0.0041 19.7437 0.0041C15.3637 0.0041 11.7837 0.3941 9.2137 0.9841C6.3137 1.6441 5.7137 2.7641 4.5437 5.2241C3.1437 8.1741 1.6837 11.9941 0.8437 14.7941C0.3137 16.5541 0.0037 18.1241 0.0037 19.4941ZM2.0937 19.5741C2.0937 18.7141 2.2837 17.6741 2.7237 16.1841C3.6337 13.0441 5.2237 8.9641 6.6037 5.9441C7.2737 4.4841 7.6437 3.5941 9.4237 3.1841C11.8937 2.5941 15.4237 2.2041 19.7437 2.2041C24.0537 2.2041 27.5737 2.5941 30.0537 3.1841C31.8237 3.5941 32.1837 4.4841 32.8637 5.9441C34.2737 8.9641 35.7937 13.0541 36.7537 16.1841C37.2037 17.6741 37.3837 18.7141 37.3837 19.5741C37.3837 21.4641 36.0537 22.6541 34.2937 22.6541C33.2537 22.6541 32.2337 22.1041 31.4437 21.1341L28.8737 18.0341C28.2237 17.2441 27.6737 16.8441 26.4037 16.8441H13.0737C11.8037 16.8441 11.2537 17.2441 10.5937 18.0341L8.0237 21.1341C7.2337 22.1041 6.2237 22.6541 5.1837 22.6541C3.4137 22.6541 2.0937 21.4641 2.0937 19.5741ZM8.6637 9.6341C8.6637 10.3541 9.0937 10.7841 9.8037 10.7841H12.2637V13.1841C12.2637 13.8741 12.6637 14.3141 13.3437 14.3141C14.0137 14.3141 14.4237 13.8741 14.4237 13.1841V10.7841H16.7337C17.5037 10.7841 17.9537 10.3541 17.9537 9.6341C17.9537 8.9541 17.5037 8.5341 16.7337 8.5341H14.4237V6.1341C14.4237 5.4441 14.0137 5.0141 13.3437 5.0141C12.6637 5.0141 12.2637 5.4441 12.2637 6.1341V8.5341H9.8037C9.0937 8.5341 8.6637 8.9541 8.6637 9.6341ZM28.2337 9.5041C29.3437 9.5041 30.2237 8.6141 30.2237 7.5241C30.2237 6.4141 29.3437 5.5241 28.2337 5.5241C27.1437 5.5241 26.2337 6.4141 26.2337 7.5241C26.2337 8.6141 27.1437 9.5041 28.2337 9.5041ZM24.2137 13.5441C25.3037 13.5441 26.2137 12.6641 26.2137 11.5641C26.2137 10.4541 25.3037 9.5741 24.2137 9.5741C23.1237 9.5741 22.2137 10.4541 22.2137 11.5641C22.2137 12.6641 23.1237 13.5441 24.2137 13.5441Z"
        fillRule="evenodd"
        clipRule="evenodd"
    />
</svg>
        