
<svg
    viewBox="0 0 27.890625 27.890625"
    xmlns="http://www.w3.org/2000/svg"
>
    <path
        fill="inherit"
        d="M13.9427 27.8927C21.6427 27.8927 27.8927 21.6427 27.8927 13.9427C27.8927 6.2627 21.6427 0.0027 13.9427 0.0027C6.2627 0.0027 0.0027 6.2627 0.0027 13.9427C0.0027 21.6427 6.2627 27.8927 13.9427 27.8927ZM7.2627 18.9527C5.8127 18.9527 4.8527 17.9927 4.8527 16.5327C4.8527 15.9127 5.0127 15.1927 5.2527 14.3527C5.6427 13.0927 6.3027 11.3327 6.9627 9.9627C7.4927 8.8327 7.7627 8.3227 9.0927 8.0227C10.2827 7.7527 11.9227 7.5727 13.9327 7.5727C15.9427 7.5727 17.5827 7.7527 18.7727 8.0227C20.0927 8.3227 20.3727 8.8327 20.9027 9.9627C21.5627 11.3327 22.2327 13.0927 22.6127 14.3527C22.8627 15.1927 23.0127 15.9127 23.0127 16.5327C23.0127 17.9927 22.0527 18.9527 20.6027 18.9527C19.7527 18.9527 19.1727 18.6327 18.6527 17.9927L17.5027 16.5927C17.3327 16.4027 17.1627 16.3227 16.9527 16.3227H10.9127C10.7027 16.3227 10.5227 16.4027 10.3627 16.5927L9.2327 17.9927C8.6927 18.6327 8.1027 18.9527 7.2627 18.9527ZM8.6727 11.9927C8.6727 12.3427 8.8727 12.5827 9.2327 12.5827H10.3627V13.7027C10.3627 14.0427 10.5727 14.2427 10.8927 14.2427C11.2427 14.2427 11.4427 14.0427 11.4427 13.7027V12.5827H12.5227C12.9027 12.5827 13.1227 12.3427 13.1227 11.9927C13.1227 11.6527 12.9027 11.4427 12.5227 11.4427H11.4427V10.3327C11.4427 9.9827 11.2427 9.7627 10.8927 9.7627C10.5727 9.7627 10.3627 9.9827 10.3627 10.3327V11.4427H9.2327C8.8727 11.4427 8.6727 11.6527 8.6727 11.9927ZM17.9627 11.9227C18.4827 11.9227 18.9127 11.5127 18.9127 10.9827C18.9127 10.4727 18.4827 10.0527 17.9627 10.0527C17.4627 10.0527 17.0227 10.4727 17.0227 10.9827C17.0227 11.5127 17.4627 11.9227 17.9627 11.9227ZM16.0627 13.8527C16.5827 13.8527 17.0127 13.4227 17.0127 12.9027C17.0127 12.4027 16.5827 11.9727 16.0627 11.9727C15.5427 11.9727 15.1227 12.4027 15.1227 12.9027C15.1227 13.4227 15.5427 13.8527 16.0627 13.8527Z"
        fillRule="evenodd"
        clipRule="evenodd"
    />
</svg>
        