<svg viewBox="0 0 39.470703125 24.7734375" xmlns="http://www.w3.org/2000/svg"><path d="M5.2137 24.7741C7.0837 24.7741 8.3637 24.0941 9.5137 22.6641L11.9937 19.6741C12.3437 19.2541 12.7537 19.0441 13.1637 19.0441H26.3037C26.7137 19.0441 27.1237 19.2541 27.4837 19.6741L29.9537 22.6641C31.1037 24.0941 32.3937 24.7741 34.2637 24.7741C37.3937 24.7741 39.4737 22.6941 39.4737 19.4941C39.4737 18.1241 39.1537 16.5541 38.6237 14.7941C37.7937 11.9941 36.3237 8.1741 34.9337 5.2241C33.7537 2.7641 33.1537 1.6441 30.2537 0.9841C27.6837 0.3941 24.1137 0.0041 19.7437 0.0041C15.3637 0.0041 11.7837 0.3941 9.2137 0.9841C6.3137 1.6441 5.7137 2.7641 4.5437 5.2241C3.1437 8.1741 1.6837 11.9941 0.8437 14.7941C0.3137 16.5541 0.0037 18.1241 0.0037 19.4941C0.0037 22.6941 2.0737 24.7741 5.2137 24.7741ZM8.3237 9.6341C8.3237 8.9241 8.7637 8.4941 9.5037 8.4941H12.0337V6.0341C12.0337 5.3041 12.4437 4.8641 13.1537 4.8641C13.8537 4.8641 14.2737 5.3041 14.2737 6.0341V8.4941H16.6437C17.4337 8.4941 17.9137 8.9241 17.9137 9.6341C17.9137 10.3741 17.4337 10.8241 16.6437 10.8241H14.2737V13.2841C14.2737 14.0141 13.8537 14.4641 13.1537 14.4641C12.4437 14.4641 12.0337 14.0141 12.0337 13.2841V10.8241H9.5037C8.7637 10.8241 8.3237 10.3741 8.3237 9.6341ZM28.5037 9.5041C27.3837 9.5041 26.4437 8.5841 26.4437 7.4541C26.4437 6.3041 27.3837 5.3841 28.5037 5.3841C29.6537 5.3841 30.5737 6.3041 30.5737 7.4541C30.5737 8.5841 29.6537 9.5041 28.5037 9.5041ZM24.3637 13.6741C23.2437 13.6741 22.3037 12.7541 22.3037 11.6241C22.3037 10.4841 23.2437 9.5541 24.3637 9.5541C25.4937 9.5541 26.4237 10.4841 26.4237 11.6241C26.4237 12.7541 25.4937 13.6741 24.3637 13.6741Z" /></svg>