
<svg
    viewBox={0 0 27.890625 27.890625}
    xmlns="http://www.w3.org/2000/svg"
>
    <path
        fill="inherit"
        d="M13.9427 27.8864C21.6427 27.8864 27.8927 21.6464 27.8927 13.9464C27.8927 6.2464 21.6427 -0.0036 13.9427 -0.0036C6.2527 -0.0036 0.0027 6.2464 0.0027 13.9464C0.0027 21.6464 6.2527 27.8864 13.9427 27.8864ZM13.9427 25.5664C7.5227 25.5664 2.3227 20.3664 2.3227 13.9464C2.3227 7.5164 7.5227 2.3264 13.9427 2.3264C20.3727 2.3264 25.5627 7.5164 25.5627 13.9464C25.5627 20.3664 20.3727 25.5664 13.9427 25.5664ZM13.9327 7.1464C14.5727 7.1464 15.1027 6.6164 15.1027 5.9764C15.1027 5.3364 14.5727 4.7964 13.9327 4.7964C13.2927 4.7964 12.7527 5.3364 12.7527 5.9764C12.7527 6.6164 13.2927 7.1464 13.9327 7.1464ZM9.5927 8.4464C10.2427 8.4464 10.7727 7.9164 10.7727 7.2764C10.7727 6.6264 10.2427 6.0964 9.5927 6.0964C8.9527 6.0964 8.4227 6.6264 8.4227 7.2764C8.4227 7.9164 8.9527 8.4464 9.5927 8.4464ZM18.2627 8.4464C18.9127 8.4464 19.4427 7.9164 19.4427 7.2764C19.4427 6.6264 18.9127 6.0964 18.2627 6.0964C17.6227 6.0964 17.0927 6.6264 17.0927 7.2764C17.0927 7.9164 17.6227 8.4464 18.2627 8.4464ZM6.5327 11.8364C7.1827 11.8364 7.7127 11.3064 7.7127 10.6664C7.7127 10.0064 7.1827 9.4764 6.5327 9.4764C5.8927 9.4764 5.3627 10.0064 5.3627 10.6664C5.3627 11.3064 5.8927 11.8364 6.5327 11.8364ZM21.3327 11.8364C21.9727 11.8364 22.5027 11.3064 22.5027 10.6664C22.5027 10.0064 21.9727 9.4764 21.3327 9.4764C20.6827 9.4764 20.1527 10.0064 20.1527 10.6664C20.1527 11.3064 20.6827 11.8364 21.3327 11.8364ZM13.9427 22.4864C15.2127 22.4864 16.1327 21.5764 16.1327 20.3164C16.1327 20.0664 16.0527 19.6364 16.0127 19.3764L14.5727 11.4264C14.5027 11.0464 14.2327 10.8564 13.9427 10.8564C13.6627 10.8564 13.4027 11.0464 13.3127 11.4264L11.8927 19.3764C11.8427 19.6364 11.7727 20.0664 11.7727 20.3164C11.7727 21.5764 12.6827 22.4864 13.9427 22.4864Z"
        fillRule="evenodd"
        clipRule="evenodd"
    />
</svg>
        