
<svg
    viewBox="0 0 27.86328125 23.866568346199603"
    xmlns="http://www.w3.org/2000/svg"
>
    <path
        fill="inherit"
        d="M0.0027 13.9434C0.0027 17.5234 1.3927 20.8234 3.6627 23.2934C4.2627 23.9634 5.3227 24.1334 6.1227 23.3234L8.0527 21.4134C8.4727 20.9834 8.4727 20.2734 8.0527 19.8534C7.6327 19.4234 6.9227 19.4234 6.4927 19.8534L4.9927 21.3534C3.5527 19.6234 2.6127 17.4434 2.3927 15.0534H4.5127C5.1127 15.0534 5.6027 14.5434 5.6027 13.9434C5.6027 13.3434 5.1127 12.8534 4.5127 12.8534H2.3927C2.9027 7.2834 7.2727 2.9034 12.8427 2.3834V4.4934C12.8427 5.1034 13.3327 5.6034 13.9327 5.6034C14.5327 5.6034 15.0427 5.1034 15.0427 4.4934V2.3834C17.4327 2.5934 19.6027 3.5434 21.3527 4.9934L19.8527 6.4934C19.4327 6.9134 19.4327 7.6134 19.8527 8.0534C20.2727 8.4734 20.9827 8.4734 21.4127 8.0534L22.9027 6.5534C24.3227 8.3034 25.2527 10.4634 25.4727 12.8534H23.3927C22.7927 12.8534 22.3027 13.3434 22.3027 13.9434C22.3027 14.5434 22.7927 15.0534 23.3927 15.0534H25.4727C25.2527 17.4434 24.3127 19.6234 22.8727 21.3534L21.3727 19.8534C20.9427 19.4234 20.2327 19.4234 19.8127 19.8534C19.3827 20.2734 19.3827 20.9834 19.8127 21.4134L21.7427 23.3234C22.5427 24.1334 23.5927 23.9634 24.2027 23.2934C26.4727 20.8234 27.8627 17.5234 27.8627 13.9434C27.8627 6.3334 21.5627 0.0034 13.9327 0.0034C6.3127 0.0034 0.0027 6.3334 0.0027 13.9434ZM15.6727 15.6934C16.5727 14.7934 16.5727 13.5034 15.6727 12.6034C15.5027 12.4434 15.1527 12.1834 14.9327 12.0334L8.3027 7.4234C7.9727 7.1934 7.6427 7.2634 7.4327 7.4534C7.2427 7.6734 7.1827 7.9834 7.4127 8.3134L12.0127 14.9434C12.1727 15.1634 12.4327 15.5134 12.5927 15.6934C13.4927 16.5834 14.7827 16.5834 15.6727 15.6934Z"
        fillRule="evenodd"
        clipRule="evenodd"
    />
</svg>
        