
<svg
    viewBox="0 0 27.890625 27.890625"
    xmlns="http://www.w3.org/2000/svg"
>
    <path
        fill="inherit"
        d="M13.9427 27.8864C21.6427 27.8864 27.8927 21.6464 27.8927 13.9464C27.8927 6.2464 21.6427 -0.0036 13.9427 -0.0036C6.2527 -0.0036 0.0027 6.2464 0.0027 13.9464C0.0027 21.6464 6.2527 27.8864 13.9427 27.8864ZM13.9427 25.5664C7.5227 25.5664 2.3227 20.3664 2.3227 13.9464C2.3227 7.5164 7.5227 2.3264 13.9427 2.3264C20.3727 2.3264 25.5627 7.5164 25.5627 13.9464C25.5627 20.3664 20.3727 25.5664 13.9427 25.5664ZM13.9327 7.2764C14.5727 7.2764 15.1027 6.7364 15.1027 6.0964C15.1027 5.4564 14.5727 4.9264 13.9327 4.9264C13.2927 4.9264 12.7527 5.4564 12.7527 6.0964C12.7527 6.7364 13.2927 7.2764 13.9327 7.2764ZM8.3827 9.6264C9.0227 9.6264 9.5527 9.0964 9.5527 8.4464C9.5527 7.7964 9.0227 7.2764 8.3827 7.2764C7.7427 7.2764 7.2027 7.7964 7.2027 8.4464C7.2027 9.0964 7.7427 9.6264 8.3827 9.6264ZM19.4827 9.6264C20.1227 9.6264 20.6627 9.0964 20.6627 8.4464C20.6627 7.7964 20.1227 7.2764 19.4827 7.2764C18.8427 7.2764 18.3027 7.7964 18.3027 8.4464C18.3027 9.0964 18.8427 9.6264 19.4827 9.6264ZM11.7827 11.7964C10.8927 12.6864 10.8927 13.9864 11.7827 14.8764C11.9527 15.0364 12.3027 15.2964 12.5227 15.4664L19.1527 20.0564C19.4827 20.2864 19.8127 20.2164 20.0127 20.0264C20.2027 19.8264 20.2727 19.4964 20.0427 19.1664L15.4527 12.5364C15.2827 12.3164 15.0427 11.9664 14.8627 11.7964C13.9727 10.8964 12.6827 10.8964 11.7827 11.7964ZM6.0727 15.1164C6.7127 15.1164 7.2427 14.5864 7.2427 13.9464C7.2427 13.3064 6.7127 12.7664 6.0727 12.7664C5.4327 12.7664 4.8927 13.3064 4.8927 13.9464C4.8927 14.5864 5.4327 15.1164 6.0727 15.1164ZM21.7627 15.1164C22.4127 15.1164 22.9427 14.5864 22.9427 13.9464C22.9427 13.3064 22.4127 12.7664 21.7627 12.7664C21.1227 12.7664 20.5927 13.3064 20.5927 13.9464C20.5927 14.5864 21.1227 15.1164 21.7627 15.1164ZM8.3827 20.6164C9.0227 20.6164 9.5527 20.0864 9.5527 19.4364C9.5527 18.7964 9.0227 18.2664 8.3827 18.2664C7.7427 18.2664 7.2027 18.7964 7.2027 19.4364C7.2027 20.0864 7.7427 20.6164 8.3827 20.6164Z"
        fillRule="evenodd"
        clipRule="evenodd"
    />
</svg>
        