
<svg
    viewBox={0 0 35.65625 23.866568346199603}
    xmlns="http://www.w3.org/2000/svg"
>
    <path
        fill="inherit"
        d="M0.0027 13.9434C0.0027 17.5234 1.3927 20.8234 3.6627 23.2934C4.2627 23.9634 5.3227 24.1334 6.1227 23.3234L8.0527 21.4134C8.4727 20.9834 8.4727 20.2734 8.0527 19.8534C7.6327 19.4234 6.9227 19.4234 6.4927 19.8534L4.9927 21.3534C3.5427 19.6234 2.6127 17.4434 2.3827 15.0534H4.5027C5.1027 15.0534 5.6027 14.5434 5.6027 13.9434C5.6027 13.3434 5.1027 12.8534 4.5027 12.8534H2.3827C2.5927 10.4634 3.5227 8.3034 4.9627 6.5534L6.4527 8.0534C6.8727 8.4734 7.5927 8.4734 8.0127 8.0534C8.4327 7.6134 8.4327 6.9134 8.0127 6.4934L6.5127 4.9934C8.2627 3.5434 10.4327 2.5934 12.8227 2.3834V4.4934C12.8227 5.1034 13.3327 5.6034 13.9327 5.6034C14.5327 5.6034 15.0227 5.1034 15.0227 4.4934V2.3834C17.4327 2.5934 19.6027 3.5434 21.3427 4.9934L19.8427 6.4934C19.4127 6.9134 19.4327 7.6134 19.8427 8.0534C20.2727 8.4734 20.9827 8.4734 21.3927 8.0534L22.9027 6.5534C24.5427 8.5634 25.5227 11.1334 25.5227 13.9434C25.5227 16.7934 24.5227 19.3434 22.8627 21.3534L21.3527 19.8534C20.9427 19.4234 20.2327 19.4234 19.7927 19.8534C19.3827 20.2734 19.3727 20.9834 19.7927 21.4134L21.7427 23.3234C22.5427 24.1334 23.5927 23.9634 24.2027 23.2934C26.4727 20.8234 27.8627 17.5234 27.8627 13.9434C27.8627 6.3334 21.5427 0.0034 13.9327 0.0034C6.3027 0.0034 0.0027 6.3334 0.0027 13.9434ZM33.8627 15.1734C34.5327 15.1734 35.0027 14.7134 35.0227 14.0134L35.3127 4.3334C35.3427 3.4634 34.7527 2.8734 33.8627 2.8734C32.9627 2.8734 32.3727 3.4634 32.4027 4.3334L32.6927 14.0134C32.7127 14.7134 33.1927 15.1734 33.8627 15.1734ZM11.6527 13.9634C11.6527 15.2334 12.5627 16.1434 13.8327 16.1434C14.0727 16.1434 14.5027 16.0634 14.7827 16.0234L22.7127 14.5834C23.0927 14.5234 23.2827 14.2434 23.2827 13.9634C23.2827 13.6734 23.0927 13.4134 22.7127 13.3334L14.7827 11.9034C14.5027 11.8534 14.0727 11.7834 13.8327 11.7834C12.5627 11.7834 11.6527 12.7034 11.6527 13.9634ZM33.8627 21.2434C34.8327 21.2434 35.6527 20.4534 35.6527 19.5234C35.6527 18.5834 34.8527 17.8034 33.8627 17.8034C32.8627 17.8034 32.0627 18.5834 32.0627 19.5234C32.0627 20.4534 32.8827 21.2434 33.8627 21.2434Z"
        fillRule="evenodd"
        clipRule="evenodd"
    />
</svg>
        