
<svg
    viewBox={0 0 39.905597348484335 30.962271471199603}
    xmlns="http://www.w3.org/2000/svg"
>
    <path
        fill="inherit"
        d="M1.3537 18.908H2.5537C3.3237 18.908 3.8937 18.338 3.8937 17.578V16.108H7.5337C8.0537 14.518 8.8737 12.998 9.8437 11.708H9.6637C9.2137 11.708 8.9237 11.348 8.9237 10.828V9.778C8.9237 9.258 9.2437 8.938 9.7337 8.938H12.4237C14.1237 7.508 16.1337 6.428 18.3237 5.808H5.1037C4.6037 5.808 4.4337 5.458 4.5937 4.988L5.2337 3.088C5.4737 2.378 5.8537 2.158 6.4837 2.068C7.1937 1.968 9.1637 1.888 12.0537 1.888C14.9837 1.888 16.9437 1.968 17.6537 2.068C18.2637 2.158 18.6437 2.378 18.8937 3.088L19.5337 4.988C19.6037 5.198 19.6037 5.388 19.5237 5.508C20.2037 5.368 20.9137 5.278 21.6437 5.248L20.7537 2.698C20.1637 1.008 19.0337 0.318 17.6137 0.148C16.9237 0.068 14.6937 -0.002 12.0537 -0.002C9.4337 -0.002 7.1937 0.068 6.5037 0.148C5.1037 0.318 3.9737 1.008 3.3937 2.698L2.3237 5.758L1.3037 6.888C0.2437 8.038 0.0037 9.068 0.0037 10.788V17.578C0.0037 18.338 0.6037 18.908 1.3537 18.908ZM35.7537 3.898C35.3037 3.428 34.7237 3.688 34.6137 4.248L33.6337 9.038C33.5137 9.648 33.8937 10.058 34.5237 9.928L39.3037 8.958C39.8837 8.828 40.1237 8.258 39.6637 7.808ZM13.0137 19.948H10.9337C11.1537 17.558 12.0837 15.378 13.5037 13.648L14.9937 15.138C15.4237 15.568 16.1337 15.558 16.5537 15.138C16.9837 14.708 16.9937 13.998 16.5537 13.588L15.0637 12.088C16.8037 10.638 18.9737 9.698 21.3837 9.478V11.598C21.3837 12.198 21.8737 12.688 22.4737 12.688C23.0737 12.688 23.5837 12.198 23.5837 11.598V9.478C29.1437 9.998 33.5137 14.378 34.0337 19.948H31.9137C31.3037 19.948 30.8037 20.438 30.8037 21.038C30.8037 21.638 31.3037 22.148 31.9137 22.148H34.0137C33.7937 24.538 32.8537 26.698 31.4137 28.448L29.9137 26.948C29.4937 26.528 28.7837 26.528 28.3537 26.948C27.9337 27.368 27.9337 28.078 28.3537 28.508L30.2837 30.418C31.0937 31.228 32.1437 31.058 32.7437 30.388C35.0137 27.918 36.4037 24.618 36.4037 21.038C36.4037 13.428 30.1037 7.098 22.4737 7.098C14.8637 7.098 8.5437 13.428 8.5437 21.038C8.5437 24.618 9.9437 27.918 12.2137 30.388C12.8137 31.058 13.8637 31.228 14.6737 30.418L16.5937 28.508C17.0337 28.078 17.0237 27.368 16.5937 26.948C16.1737 26.528 15.4637 26.528 15.0437 26.948L13.5537 28.448C12.1037 26.698 11.1537 24.538 10.9337 22.148H13.0137C13.6137 22.148 14.1137 21.638 14.1137 21.038C14.1137 20.438 13.6137 19.948 13.0137 19.948ZM3.6937 12.178C3.0637 12.178 2.5937 11.718 2.5937 11.098V9.518C2.5937 8.898 3.0637 8.448 3.6937 8.448C4.3037 8.448 4.7737 8.888 4.7737 9.518V11.098C4.7737 11.728 4.3037 12.178 3.6937 12.178ZM20.7437 22.778C21.6337 23.678 22.9237 23.678 23.8137 22.778C23.9837 22.618 24.2437 22.258 24.4037 22.038L28.9937 15.408C29.2337 15.078 29.1637 14.748 28.9737 14.548C28.7637 14.358 28.4337 14.288 28.1137 14.518L21.4737 19.118C21.2637 19.278 20.9037 19.538 20.7437 19.698C19.8337 20.608 19.8337 21.888 20.7437 22.778Z"
        fillRule="evenodd"
        clipRule="evenodd"
    />
</svg>
        