<svg viewBox="0 0 31.36426285304977 27.29645908501334" xmlns="http://www.w3.org/2000/svg"><path d="M4.1537 0.2333L0.2337 4.1433C-0.2163 4.6033 0.0237 5.1633 0.6037 5.2933L5.3837 6.2633C6.0137 6.3933 6.4037 5.9833 6.2737 5.3833L5.2937 0.5833C5.1837 0.0433 4.6037 -0.2167 4.1537 0.2333ZM3.5037 17.3733C3.5037 20.9533 4.8937 24.2533 7.1637 26.7233C7.7637 27.3933 8.8237 27.5633 9.6237 26.7533L11.5537 24.8433C11.9737 24.4133 11.9737 23.7033 11.5537 23.2833C11.1337 22.8533 10.4237 22.8533 9.9937 23.2833L8.4937 24.7833C7.0437 23.0533 6.1137 20.8733 5.8837 18.4833H8.0037C8.6037 18.4833 9.1037 17.9733 9.1037 17.3733C9.1037 16.7733 8.6037 16.2833 8.0037 16.2833H5.8837C6.4037 10.7133 10.7637 6.3333 16.3237 5.8133V7.9233C16.3237 8.5333 16.8337 9.0333 17.4337 9.0333C18.0337 9.0333 18.5237 8.5333 18.5237 7.9233V5.8133C20.9337 6.0233 23.1037 6.9733 24.8437 8.4233L23.3437 9.9233C22.9137 10.3433 22.9337 11.0433 23.3437 11.4833C23.7737 11.9033 24.4837 11.9033 24.8937 11.4833L26.4037 9.9833C27.8237 11.7333 28.7537 13.8933 28.9737 16.2833H26.8937C26.2937 16.2833 25.8037 16.7733 25.8037 17.3733C25.8037 17.9733 26.2937 18.4833 26.8937 18.4833H28.9737C28.7537 20.8733 27.8137 23.0533 26.3637 24.7833L24.8537 23.2833C24.4437 22.8533 23.7337 22.8533 23.2937 23.2833C22.8837 23.7033 22.8737 24.4133 23.2937 24.8433L25.2437 26.7533C26.0437 27.5633 27.0937 27.3933 27.7037 26.7233C29.9737 24.2533 31.3637 20.9533 31.3637 17.3733C31.3637 9.7633 25.0437 3.4333 17.4337 3.4333C9.8037 3.4333 3.5037 9.7633 3.5037 17.3733ZM19.1737 19.1233C20.0737 18.2233 20.0737 16.9333 19.1737 16.0333C19.0037 15.8733 18.6537 15.6133 18.4337 15.4633L11.8037 10.8533C11.4737 10.6233 11.1437 10.6933 10.9337 10.8833C10.7437 11.1033 10.6837 11.4133 10.9137 11.7433L15.5037 18.3733C15.6737 18.5933 15.9337 18.9433 16.0937 19.1233C16.9837 20.0133 18.2637 20.0133 19.1737 19.1233Z" /></svg>