<svg viewBox="0 0 33.569206801956994 37.43801045054263" xmlns="http://www.w3.org/2000/svg"><path d="M0.0027 21.1334C0.0027 26.2334 1.9827 30.8534 5.2227 34.2734L4.1527 35.3334C3.6627 35.8034 3.8027 36.4134 4.5527 36.5634L8.5427 37.4134C9.1827 37.5334 9.5727 37.1534 9.4327 36.5234L8.6227 32.5234C8.4727 31.7534 7.8727 31.6334 7.3927 32.1134L6.6827 32.8034C3.8827 29.8234 2.2027 25.7534 2.2027 21.1334C2.2027 11.4234 9.2027 4.2434 18.5527 3.9734V5.3434C18.5527 6.0134 19.0627 6.3434 19.7027 5.9334L23.1227 3.7034C23.6527 3.3434 23.6527 2.8134 23.1227 2.4534L19.7027 0.1834C19.0627 -0.2366 18.5527 0.1034 18.5527 0.7734V1.7634C8.2427 2.0634 0.0027 10.4934 0.0027 21.1334ZM10.2227 20.3134H8.1027C8.6127 14.7434 12.9927 10.3634 18.5527 9.8434V11.9534C18.5527 12.5634 19.0427 13.0634 19.6427 13.0634C20.2527 13.0634 20.7527 12.5634 20.7527 11.9534V8.6634C20.7527 7.9634 20.2927 7.4634 19.6327 7.4634C12.0327 7.4634 5.7127 13.7934 5.7127 21.4034C5.7127 24.9834 7.1127 28.2834 9.3827 30.7534C9.9827 31.4234 11.0327 31.5934 11.8427 30.7834L13.7827 28.8734C14.2027 28.4434 14.1927 27.7334 13.7827 27.3134C13.3427 26.8834 12.6427 26.8834 12.2227 27.3134L10.7227 28.8134C9.2727 27.0834 8.3227 24.9034 8.1027 22.5134H10.2227C10.8327 22.5134 11.3227 22.0034 11.3227 21.4034C11.3227 20.8034 10.8327 20.3134 10.2227 20.3134ZM28.6127 14.0334L30.5527 12.7734C28.5227 10.2534 25.6727 8.5034 22.5027 7.8034C22.5727 8.0734 22.6127 8.3634 22.6127 8.6634V10.1934C24.9627 10.8134 27.0727 12.1334 28.6127 14.0334ZM31.2227 22.5434L33.4727 23.0234C33.6427 21.5434 33.5927 20.0234 33.2727 18.5034C32.9327 17.0034 32.3627 15.5834 31.5927 14.3134L29.6727 15.5834C30.2527 16.6034 30.7027 17.7234 30.9827 18.9334C31.2527 20.1434 31.3227 21.3634 31.2227 22.5434ZM21.3927 23.1534C22.2827 22.2534 22.2827 20.9634 21.3927 20.0634C21.2327 19.9034 20.8627 19.6434 20.6627 19.4934L14.0127 14.8834C13.6827 14.6534 13.3727 14.7234 13.1627 14.9134C12.9627 15.1334 12.9027 15.4434 13.1227 15.7734L17.7327 22.4034C17.8827 22.6234 18.1427 22.9734 18.3027 23.1534C19.2127 24.0434 20.4927 24.0434 21.3927 23.1534ZM29.9527 30.7334C30.8827 29.7034 32.3627 27.7334 33.1027 24.8334L30.8727 24.3634C30.3127 26.5734 29.3027 28.0334 28.6127 28.8434L27.0827 27.3134C26.6627 26.8834 25.9527 26.8834 25.5227 27.3134C25.1027 27.7334 25.1027 28.4434 25.5227 28.8734L27.4427 30.7734C28.2627 31.5934 29.3227 31.4234 29.9527 30.7334Z" /></svg>