
<svg
    viewBox={0 0 27.890625 27.890625}
    xmlns="http://www.w3.org/2000/svg"
>
    <path
        fill="inherit"
        d="M13.9427 27.8864C21.6427 27.8864 27.8927 21.6464 27.8927 13.9464C27.8927 6.2464 21.6427 -0.0036 13.9427 -0.0036C6.2527 -0.0036 0.0027 6.2464 0.0027 13.9464C0.0027 21.6464 6.2527 27.8864 13.9427 27.8864ZM13.9427 25.5664C7.5227 25.5664 2.3227 20.3664 2.3227 13.9464C2.3227 7.5164 7.5227 2.3264 13.9427 2.3264C20.3727 2.3264 25.5627 7.5164 25.5627 13.9464C25.5627 20.3664 20.3727 25.5664 13.9427 25.5664ZM13.9427 17.2364C15.2127 17.2364 16.1227 16.3264 16.1227 15.0664C16.1227 14.8164 16.0527 14.3864 16.0127 14.1264L14.5727 6.1764C14.5027 5.7964 14.2327 5.6064 13.9427 5.6064C13.6627 5.6064 13.3827 5.7964 13.3127 6.1764L11.8827 14.1264C11.8427 14.3864 11.7727 14.8164 11.7727 15.0664C11.7727 16.3264 12.6827 17.2364 13.9427 17.2364ZM8.4127 9.6264C9.0527 9.6264 9.5827 9.0964 9.5827 8.4464C9.5827 7.7964 9.0527 7.2764 8.4127 7.2764C7.7627 7.2764 7.2327 7.7964 7.2327 8.4464C7.2327 9.0964 7.7627 9.6264 8.4127 9.6264ZM19.4827 9.6264C20.1227 9.6264 20.6627 9.0964 20.6627 8.4464C20.6627 7.7964 20.1227 7.2764 19.4827 7.2764C18.8427 7.2764 18.3027 7.7964 18.3027 8.4464C18.3027 9.0964 18.8427 9.6264 19.4827 9.6264ZM6.0927 15.1164C6.7427 15.1164 7.2727 14.5864 7.2727 13.9464C7.2727 13.3064 6.7427 12.7664 6.0927 12.7664C5.4527 12.7664 4.9227 13.3064 4.9227 13.9464C4.9227 14.5864 5.4527 15.1164 6.0927 15.1164ZM21.7927 15.1164C22.4327 15.1164 22.9727 14.5864 22.9727 13.9464C22.9727 13.3064 22.4327 12.7664 21.7927 12.7664C21.1527 12.7664 20.6127 13.3064 20.6127 13.9464C20.6127 14.5864 21.1527 15.1164 21.7927 15.1164ZM8.4127 20.6164C9.0527 20.6164 9.5827 20.0864 9.5827 19.4364C9.5827 18.7964 9.0527 18.2664 8.4127 18.2664C7.7627 18.2664 7.2327 18.7964 7.2327 19.4364C7.2327 20.0864 7.7627 20.6164 8.4127 20.6164ZM19.4827 20.6164C20.1227 20.6164 20.6627 20.0864 20.6627 19.4364C20.6627 18.7964 20.1227 18.2664 19.4827 18.2664C18.8427 18.2664 18.3027 18.7964 18.3027 19.4364C18.3027 20.0864 18.8427 20.6164 19.4827 20.6164Z"
        fillRule="evenodd"
        clipRule="evenodd"
    />
</svg>
        