
<svg
    viewBox="0 0 31.351218833689757 27.296459085013336"
    xmlns="http://www.w3.org/2000/svg"
>
    <path
        fill="inherit"
        d="M27.2027 0.2333C26.7527 -0.2167 26.1827 0.0433 26.0627 0.5833L25.0927 5.3833C24.9527 5.9833 25.3427 6.3933 25.9727 6.2633L30.7627 5.2933C31.3227 5.1633 31.5727 4.6033 31.1127 4.1433ZM4.4527 16.2833H2.3827C2.5927 13.8933 3.5227 11.7333 4.9627 9.9833L6.4527 11.4833C6.8727 11.9033 7.5927 11.9033 8.0127 11.4833C8.4327 11.0433 8.4327 10.3433 8.0127 9.9233L6.5127 8.4233C8.2627 6.9733 10.4327 6.0233 12.8227 5.8133V7.9233C12.8227 8.5333 13.3327 9.0333 13.9327 9.0333C14.5327 9.0333 15.0227 8.5333 15.0227 7.9233V5.8133C20.5927 6.3333 24.9627 10.7133 25.4727 16.2833H23.3527C22.7527 16.2833 22.2627 16.7733 22.2627 17.3733C22.2627 17.9733 22.7527 18.4833 23.3527 18.4833H25.4727C25.2527 20.8733 24.3127 23.0533 22.8627 24.7833L21.3527 23.2833C20.9427 22.8533 20.2327 22.8533 19.7927 23.2833C19.3827 23.7033 19.3727 24.4133 19.7927 24.8433L21.7427 26.7533C22.5427 27.5633 23.5927 27.3933 24.2027 26.7233C26.4727 24.2533 27.8627 20.9533 27.8627 17.3733C27.8627 9.7633 21.5427 3.4333 13.9327 3.4333C6.3027 3.4333 0.0027 9.7633 0.0027 17.3733C0.0027 20.9533 1.3927 24.2533 3.6627 26.7233C4.2627 27.3933 5.3227 27.5633 6.1227 26.7533L8.0527 24.8433C8.4727 24.4133 8.4727 23.7033 8.0527 23.2833C7.6327 22.8533 6.9227 22.8533 6.4927 23.2833L4.9927 24.7833C3.5427 23.0533 2.6127 20.8733 2.3827 18.4833H4.4527C5.0627 18.4833 5.5627 17.9733 5.5627 17.3733C5.5627 16.7733 5.0627 16.2833 4.4527 16.2833ZM12.1827 19.1233C13.0827 20.0133 14.3727 20.0133 15.2727 19.1233C15.4327 18.9433 15.6927 18.5933 15.8427 18.3733L20.4527 11.7433C20.6727 11.4133 20.6127 11.1033 20.4227 10.8833C20.2027 10.6933 19.8927 10.6233 19.5627 10.8533L12.9327 15.4633C12.7127 15.6133 12.3427 15.8733 12.1827 16.0333C11.2927 16.9333 11.2927 18.2233 12.1827 19.1233Z"
        fillRule="evenodd"
        clipRule="evenodd"
    />
</svg>
        