
<svg
    viewBox={0 0 29.2578125 29.23046875}
    xmlns="http://www.w3.org/2000/svg"
>
    <path
        fill="inherit"
        d="M13.2527 29.2263H16.0127C17.0627 29.2263 17.8827 28.5863 18.1127 27.5763L18.7027 25.0163L19.1427 24.8663L21.3727 26.2363C22.2627 26.7863 23.2827 26.6563 24.0327 25.9063L25.9527 24.0063C26.7027 23.2563 26.8227 22.2163 26.2727 21.3463L24.8827 19.1263L25.0427 18.7163L27.6027 18.1163C28.6027 17.8863 29.2627 17.0463 29.2627 16.0063V13.3063C29.2627 12.2663 28.6127 11.4463 27.6027 11.1963L25.0727 10.5863L24.8927 10.1463L26.2927 7.9263C26.8427 7.0563 26.7327 6.0263 25.9627 5.2663L24.0527 3.3463C23.3127 2.6063 22.2827 2.4763 21.3927 3.0263L19.1727 4.3863L18.7027 4.2063L18.1127 1.6563C17.8827 0.6463 17.0627 -0.0037 16.0127 -0.0037H13.2527C12.1927 -0.0037 11.3727 0.6463 11.1427 1.6563L10.5427 4.2063L10.0727 4.3863L7.8627 3.0263C6.9727 2.4763 5.9327 2.6063 5.1927 3.3463L3.2927 5.2663C2.5327 6.0263 2.4027 7.0563 2.9627 7.9263L4.3427 10.1463L4.1827 10.5863L1.6527 11.1963C0.6427 11.4463 0.0027 12.2663 0.0027 13.3063V16.0063C0.0027 17.0463 0.6527 17.8863 1.6527 18.1163L4.2127 18.7163L4.3627 19.1263L2.9827 21.3463C2.4227 22.2163 2.5527 23.2563 3.3127 24.0063L5.2127 25.9063C5.9627 26.6563 7.0027 26.7863 7.8927 26.2363L10.1027 24.8663L10.5427 25.0163L11.1427 27.5763C11.3727 28.5863 12.1927 29.2263 13.2527 29.2263ZM13.4627 27.0963C13.2327 27.0963 13.1127 27.0063 13.0727 26.7863L12.2527 23.3963C11.4127 23.1863 10.6327 22.8563 10.0527 22.4863L7.0727 24.3263C6.9027 24.4463 6.7127 24.4363 6.5627 24.2563L4.9527 22.6363C4.8027 22.4863 4.7827 22.3263 4.8927 22.1363L6.7227 19.1863C6.4127 18.6063 6.0527 17.8263 5.8427 16.9963L2.4427 16.1863C2.2327 16.1463 2.1327 16.0263 2.1327 15.7863V13.5063C2.1327 13.2663 2.2127 13.1563 2.4427 13.1063L5.8227 12.2863C6.0427 11.4063 6.4527 10.5963 6.7027 10.0863L4.8827 7.1363C4.7627 6.9363 4.7727 6.7663 4.9227 6.6063L6.5527 5.0163C6.7127 4.8563 6.8627 4.8363 7.0727 4.9463L10.0227 6.7363C10.6127 6.4163 11.4427 6.0663 12.2627 5.8363L13.0727 2.4463C13.1127 2.2263 13.2327 2.1363 13.4627 2.1363H15.7927C16.0227 2.1363 16.1427 2.2263 16.1727 2.4463L17.0127 5.8663C17.8527 6.0863 18.5927 6.4263 19.2127 6.7563L22.1727 4.9463C22.3927 4.8363 22.5327 4.8563 22.7127 5.0163L24.3227 6.6063C24.4827 6.7663 24.4827 6.9363 24.3627 7.1363L22.5427 10.0863C22.8027 10.5963 23.2027 11.4063 23.4227 12.2863L26.8127 13.1063C27.0327 13.1563 27.1227 13.2663 27.1227 13.5063V15.7863C27.1227 16.0263 27.0127 16.1463 26.8127 16.1863L23.4027 16.9963C23.1827 17.8263 22.8427 18.6063 22.5127 19.1863L24.3527 22.1363C24.4627 22.3263 24.4627 22.4863 24.2927 22.6363L22.6927 24.2563C22.5327 24.4363 22.3527 24.4463 22.1727 24.3263L19.1927 22.4863C18.6027 22.8563 17.8427 23.1863 17.0127 23.3963L16.1727 26.7863C16.1427 27.0063 16.0227 27.0963 15.7927 27.0963ZM14.6327 19.8263C17.5127 19.8263 19.8427 17.4963 19.8427 14.6163C19.8427 11.7263 17.5127 9.4063 14.6327 9.4063C11.7427 9.4063 9.4227 11.7263 9.4227 14.6163C9.4227 17.4963 11.7427 19.8263 14.6327 19.8263ZM14.6327 17.7063C12.9227 17.7063 11.5427 16.3263 11.5427 14.6163C11.5427 12.9063 12.9227 11.5263 14.6327 11.5263C16.3427 11.5263 17.7227 12.9063 17.7227 14.6163C17.7227 16.3263 16.3427 17.7063 14.6327 17.7063Z"
        fillRule="evenodd"
        clipRule="evenodd"
    />
</svg>
        