
<svg
    viewBox={0 0 27.890625 27.890625}
    xmlns="http://www.w3.org/2000/svg"
>
    <path
        fill="inherit"
        d="M13.9427 27.8927C21.6427 27.8927 27.8927 21.6427 27.8927 13.9427C27.8927 6.2627 21.6427 0.0027 13.9427 0.0027C6.2627 0.0027 0.0027 6.2627 0.0027 13.9427C0.0027 21.6427 6.2627 27.8927 13.9427 27.8927ZM13.2027 22.2127C12.8127 22.2127 12.5127 21.9727 12.4327 21.5627L12.0027 19.8227C11.7027 19.7127 11.3927 19.5927 11.1427 19.4727L9.6127 20.4027C9.2827 20.6027 8.9027 20.6027 8.6027 20.3127L7.6027 19.3027C7.3027 19.0127 7.2627 18.6027 7.5027 18.2627L8.4227 16.7527C8.2827 16.4927 8.1727 16.2027 8.0827 15.9027L6.3327 15.4927C5.9227 15.4127 5.7027 15.1027 5.7027 14.6927V13.2627C5.7027 12.8627 5.9227 12.5827 6.3327 12.4827L8.0627 12.0627C8.1727 11.7327 8.3127 11.4327 8.4127 11.1927L7.4827 9.6627C7.2727 9.3227 7.2627 8.9427 7.5727 8.6427L8.6027 7.6427C8.9027 7.3427 9.2527 7.3027 9.5927 7.5227L11.1327 8.4627C11.3927 8.3227 11.7027 8.2027 12.0027 8.0927L12.4327 6.3527C12.5127 5.9427 12.8127 5.7127 13.2027 5.7127H14.6827C15.0827 5.7127 15.3827 5.9427 15.4627 6.3527L15.8827 8.1027C16.2027 8.2127 16.5027 8.3527 16.7527 8.4627L18.2927 7.5227C18.6627 7.3027 19.0027 7.3727 19.2927 7.6427L20.3127 8.6427C20.6327 8.9427 20.6127 9.3227 20.4127 9.6627L19.4827 11.1927C19.5827 11.4327 19.7127 11.7327 19.8227 12.0627L21.5627 12.4827C21.9727 12.5827 22.2027 12.8627 22.2027 13.2627V14.6927C22.2027 15.1027 21.9727 15.4127 21.5627 15.4927L19.8127 15.9027C19.7127 16.2027 19.6027 16.4927 19.4727 16.7527L20.3827 18.2627C20.6327 18.6027 20.5927 19.0127 20.2927 19.3027L19.2927 20.3127C19.0027 20.6027 18.6227 20.6027 18.2827 20.4027L16.7527 19.4727C16.5027 19.5927 16.1827 19.7127 15.8827 19.8227L15.4627 21.5627C15.3827 21.9727 15.0827 22.2127 14.6827 22.2127ZM13.9427 16.7227C15.4727 16.7227 16.7327 15.4727 16.7327 13.9427C16.7327 12.4127 15.4727 11.1527 13.9427 11.1527C12.4127 11.1527 11.1527 12.4127 11.1527 13.9427C11.1527 15.4727 12.4127 16.7227 13.9427 16.7227Z"
        fillRule="evenodd"
        clipRule="evenodd"
    />
</svg>
        