
<svg
    viewBox={0 0 31.513671875 25.634765625}
    xmlns="http://www.w3.org/2000/svg"
>
    <path
        fill="inherit"
        d="M30.2837 -0.0047C29.6137 -0.0047 29.0437 0.5753 29.0437 1.2453V11.5753H21.8337V1.2453C21.8337 0.5753 21.2737 -0.0047 20.6037 -0.0047C19.9337 -0.0047 19.3637 0.5753 19.3637 1.2453V11.5753H12.1537V1.2453C12.1537 0.5753 11.5937 -0.0047 10.9237 -0.0047C10.2537 -0.0047 9.6837 0.5753 9.6837 1.2453V11.5753H2.4737V1.2453C2.4737 0.5753 1.9137 -0.0047 1.2337 -0.0047C0.5637 -0.0047 0.0037 0.5753 0.0037 1.2453V12.8253C0.0037 13.4953 0.5637 14.0553 1.2337 14.0553H9.6837V24.4053C9.6837 25.0753 10.2537 25.6353 10.9237 25.6353C11.5937 25.6353 12.1537 25.0753 12.1537 24.4053V14.0553H19.3637V24.4053C19.3637 25.0753 19.9337 25.6353 20.6037 25.6353C21.2737 25.6353 21.8337 25.0753 21.8337 24.4053V14.0553H29.0437V24.4053C29.0437 25.0753 29.6137 25.6353 30.2837 25.6353C30.9537 25.6353 31.5137 25.0753 31.5137 24.4053V1.2453C31.5137 0.5753 30.9537 -0.0047 30.2837 -0.0047Z"
        fillRule="evenodd"
        clipRule="evenodd"
    />
</svg>
        