
<svg
    viewBox="0 0 33.35988375396623 27.890625"
    xmlns="http://www.w3.org/2000/svg"
>
    <path
        fill="inherit"
        d="M16.679 -0.0036C12.579 -0.0036 8.859 1.7764 6.309 4.6364C5.749 5.2464 5.939 6.0564 6.459 6.4164C6.889 6.7364 7.479 6.7664 8.059 6.1564C10.189 3.7864 13.259 2.3264 16.679 2.3264C22.329 2.3264 27.019 6.3464 28.039 11.6764H26.119C25.149 11.6764 24.899 12.3364 25.419 13.0864L28.479 17.4464C28.919 18.0764 29.579 18.0864 30.029 17.4464L33.089 13.0964C33.619 12.3364 33.359 11.6764 32.389 11.6764H30.419C29.359 5.0564 23.599 -0.0036 16.679 -0.0036ZM16.049 21.1464H17.329C17.679 21.1464 17.939 20.9464 18.019 20.5864L18.379 19.0764C18.649 18.9764 18.909 18.8764 19.129 18.7564L20.469 19.5764C20.769 19.7664 21.099 19.7464 21.339 19.4964L22.219 18.6064C22.479 18.3564 22.519 18.0064 22.319 17.7064L21.509 16.3964C21.619 16.1464 21.729 15.8964 21.799 15.6564L23.329 15.2964C23.679 15.2164 23.889 14.9564 23.889 14.5864V13.3464C23.889 12.9864 23.679 12.7464 23.329 12.6564L21.809 12.2864C21.729 12.0064 21.599 11.7564 21.519 11.5364L22.329 10.2164C22.519 9.9164 22.509 9.5664 22.249 9.3064L21.339 8.4364C21.099 8.2064 20.769 8.1364 20.479 8.3264L19.129 9.1464C18.909 9.0464 18.669 8.9364 18.379 8.8464L18.019 7.3164C17.939 6.9564 17.679 6.7564 17.329 6.7564H16.049C15.679 6.7564 15.439 6.9564 15.359 7.3164L14.989 8.8364C14.729 8.9264 14.469 9.0264 14.219 9.1464L12.899 8.3264C12.589 8.1364 12.279 8.1864 12.019 8.4364L11.119 9.3064C10.859 9.5664 10.839 9.9164 11.039 10.2164L11.839 11.5364C11.759 11.7564 11.649 12.0064 11.559 12.2864L10.039 12.6564C9.679 12.7464 9.479 12.9864 9.479 13.3464V14.5864C9.479 14.9564 9.679 15.2164 10.039 15.2964L11.569 15.6564C11.649 15.8964 11.749 16.1464 11.859 16.3964L11.059 17.7064C10.839 18.0064 10.899 18.3564 11.149 18.6064L12.019 19.4964C12.279 19.7464 12.609 19.7664 12.909 19.5764L14.239 18.7564C14.469 18.8764 14.729 18.9764 14.989 19.0764L15.359 20.5864C15.439 20.9464 15.679 21.1464 16.049 21.1464ZM16.679 27.8864C20.779 27.8864 24.499 26.1164 27.059 23.2564C27.619 22.6264 27.429 21.8364 26.909 21.4664C26.469 21.1464 25.879 21.1264 25.309 21.7264C23.179 24.0864 20.099 25.5664 16.679 25.5664C11.039 25.5664 6.349 21.5464 5.319 16.2164H7.249C8.219 16.2164 8.469 15.5464 7.949 14.8064L4.879 10.4364C4.449 9.8164 3.789 9.8064 3.339 10.4364L0.279 14.7964C-0.261 15.5464 -0.011 16.2164 0.969 16.2164H2.939C4.009 22.8364 9.759 27.8864 16.679 27.8864ZM16.679 16.3664C15.339 16.3664 14.249 15.2864 14.249 13.9364C14.249 12.5964 15.339 11.4964 16.679 11.4964C18.019 11.4964 19.119 12.5964 19.119 13.9364C19.119 15.2864 18.019 16.3664 16.679 16.3664Z"
        fillRule="evenodd"
        clipRule="evenodd"
    />
</svg>
        