<svg viewBox="0 0 37.748046875 29.96875" xmlns="http://www.w3.org/2000/svg"><path d="M9.8527 21.5618H11.7127C12.2927 21.5618 12.6627 21.2318 12.7927 20.7118L13.3427 18.4618C13.7227 18.3218 14.0927 18.1818 14.4227 17.9918L16.4027 19.2218C16.8527 19.4918 17.3927 19.4518 17.7727 19.0718L19.0827 17.7418C19.4527 17.3618 19.5227 16.8118 19.2327 16.3518L18.0227 14.4118C18.1827 14.0718 18.3427 13.7118 18.4527 13.3418L20.7127 12.8018C21.2627 12.6718 21.5727 12.2918 21.5727 11.7318V9.8818C21.5727 9.3418 21.2627 8.9418 20.7127 8.8218L18.4827 8.2618C18.3427 7.8518 18.1827 7.4918 18.0427 7.1918L19.2327 5.2118C19.5127 4.7318 19.5127 4.2218 19.1127 3.8418L17.7727 2.5318C17.3927 2.1718 16.8827 2.0818 16.4327 2.3518L14.4227 3.5918C14.1127 3.4218 13.7427 3.2718 13.3427 3.1418L12.7927 0.8518C12.6627 0.3318 12.2927 0.0018 11.7127 0.0018H9.8527C9.2827 0.0018 8.9027 0.3318 8.7727 0.8518L8.2327 3.1218C7.8427 3.2518 7.4627 3.3918 7.1327 3.5818L5.1427 2.3518C4.6927 2.0818 4.1827 2.1618 3.8027 2.5318L2.4627 3.8418C2.0627 4.2218 2.0627 4.7318 2.3427 5.2118L3.5227 7.1918C3.3927 7.4918 3.2227 7.8518 3.0927 8.2618L0.8427 8.8218C0.3127 8.9418 0.0027 9.3418 0.0027 9.8818V11.7318C0.0027 12.2918 0.3127 12.6718 0.8427 12.8018L3.1127 13.3418C3.2227 13.7118 3.3927 14.0718 3.5527 14.4118L2.3427 16.3518C2.0527 16.8118 2.1227 17.3618 2.4927 17.7418L3.8027 19.0718C4.1827 19.4518 4.7127 19.4918 5.1727 19.2218L7.1527 17.9918C7.4827 18.1818 7.8427 18.3218 8.2327 18.4618L8.7727 20.7118C8.9027 21.2318 9.2827 21.5618 9.8527 21.5618ZM10.7827 14.2018C8.8827 14.2018 7.3427 12.6718 7.3427 10.7618C7.3427 8.8618 8.8827 7.3318 10.7827 7.3318C12.6827 7.3318 14.2327 8.8618 14.2327 10.7618C14.2327 12.6718 12.6827 14.2018 10.7827 14.2018ZM27.7127 29.9718H29.2727C29.7727 29.9718 30.1227 29.6818 30.2127 29.2418L30.6627 27.2918C31.0227 27.1518 31.3327 27.0418 31.6227 26.8818L33.3327 27.9418C33.7127 28.1918 34.1627 28.1618 34.5127 27.8218L35.6027 26.7118C35.9427 26.3718 36.0027 25.8918 35.7427 25.5118L34.6827 23.8118C34.8327 23.5318 34.9627 23.2118 35.0727 22.9018L37.0327 22.4318C37.4927 22.3418 37.7527 22.0018 37.7527 21.5018V19.9618C37.7527 19.4718 37.4927 19.1318 37.0327 19.0218L35.0827 18.5518C34.9627 18.2018 34.8327 17.8818 34.7027 17.6218L35.7427 15.9018C36.0027 15.4918 35.9827 15.0618 35.6327 14.7218L34.5127 13.6318C34.1627 13.3118 33.7327 13.2318 33.3427 13.4618L31.6227 14.5518C31.3527 14.4118 31.0227 14.2618 30.6627 14.1618L30.2127 12.1718C30.1227 11.7318 29.7727 11.4318 29.2727 11.4318H27.7127C27.2227 11.4318 26.8827 11.7318 26.7727 12.1718L26.3027 14.1318C25.9727 14.2618 25.6327 14.3718 25.3427 14.5318L23.6227 13.4618C23.2527 13.2518 22.8227 13.3018 22.4727 13.6318L21.3727 14.7218C21.0127 15.0618 21.0027 15.4918 21.2427 15.9018L22.2727 17.6218C22.1527 17.8818 22.0227 18.2018 21.9027 18.5518L19.9627 19.0218C19.4927 19.1318 19.2227 19.4718 19.2227 19.9618V21.5018C19.2227 22.0018 19.4927 22.3418 19.9627 22.4318L21.9327 22.9018C22.0227 23.2118 22.1527 23.5318 22.3027 23.8118L21.2427 25.5118C20.9827 25.8918 21.0527 26.3718 21.3827 26.7118L22.4727 27.8218C22.8227 28.1618 23.2727 28.1918 23.6527 27.9418L25.3627 26.8818C25.6527 27.0418 25.9727 27.1518 26.3027 27.2918L26.7727 29.2418C26.8827 29.6818 27.2227 29.9718 27.7127 29.9718ZM28.4927 23.4218C26.9927 23.4218 25.7627 22.2018 25.7627 20.6818C25.7627 19.1818 26.9927 17.9518 28.4927 17.9518C30.0127 17.9518 31.2227 19.1818 31.2227 20.6818C31.2227 22.2018 30.0127 23.4218 28.4927 23.4218Z" /></svg>