
<svg
    viewBox={0 0 30.228515625 29.807813949327592}
    xmlns="http://www.w3.org/2000/svg"
>
    <path
        fill="inherit"
        d="M15.1027 27.975C15.4527 27.975 15.7727 27.965 16.1027 27.935L16.8527 29.345C17.0327 29.695 17.3527 29.835 17.7327 29.795C18.1327 29.725 18.3627 29.465 18.4027 29.085L18.6327 27.495C19.2927 27.315 19.9027 27.085 20.5127 26.815L21.6827 27.875C21.9727 28.155 22.3227 28.165 22.6727 27.985C23.0127 27.795 23.1427 27.465 23.0627 27.085L22.7227 25.525C23.2727 25.145 23.7727 24.705 24.2527 24.255L25.7127 24.855C26.0827 24.995 26.4327 24.915 26.6827 24.615C26.9427 24.315 26.9727 23.965 26.7527 23.625L25.9127 22.285C26.2727 21.725 26.6027 21.155 26.9027 20.565L28.4827 20.615C28.8727 20.635 29.1727 20.445 29.3127 20.055C29.4527 19.705 29.3527 19.365 29.0427 19.125L27.7627 18.155C27.9427 17.515 28.0527 16.855 28.1227 16.175L29.6227 15.695C30.0127 15.575 30.2327 15.305 30.2327 14.905C30.2327 14.505 30.0127 14.225 29.6227 14.115L28.1227 13.635C28.0527 12.945 27.9427 12.295 27.7627 11.645L29.0227 10.675C29.3527 10.445 29.4327 10.105 29.3127 9.735C29.1727 9.355 28.8727 9.175 28.4827 9.185L26.9027 9.235C26.6027 8.645 26.2727 8.055 25.9127 7.505L26.7427 6.185C26.9627 5.835 26.9327 5.485 26.7027 5.185C26.4327 4.885 26.0827 4.815 25.7327 4.955L24.2527 5.555C23.7727 5.075 23.2527 4.645 22.7227 4.265L23.0627 2.725C23.1427 2.325 23.0127 2.015 22.6827 1.815C22.3227 1.615 21.9727 1.665 21.6827 1.925L20.4927 2.985C19.9027 2.705 19.2727 2.485 18.6227 2.295L18.4027 0.725C18.3627 0.345 18.1127 0.095 17.7427 0.015C17.3527 -0.055 17.0327 0.115 16.8527 0.455L16.1027 1.865C15.7727 1.845 15.4527 1.835 15.1027 1.835C14.7827 1.835 14.4527 1.845 14.1127 1.865L13.3727 0.465C13.1827 0.115 12.8627 -0.035 12.4927 0.015C12.1027 0.085 11.8627 0.345 11.8127 0.725L11.5827 2.295C10.9327 2.485 10.3127 2.725 9.7027 2.995L8.5427 1.925C8.2627 1.655 7.9027 1.625 7.5427 1.815C7.2027 2.015 7.0827 2.335 7.1627 2.725L7.4927 4.285C6.9427 4.665 6.4427 5.085 5.9627 5.555L4.5027 4.955C4.1427 4.805 3.7827 4.895 3.5227 5.195C3.2627 5.485 3.2527 5.835 3.4727 6.185L4.3227 7.525C3.9327 8.065 3.6127 8.655 3.3227 9.245L1.7527 9.185C1.3427 9.165 1.0527 9.365 0.9127 9.735C0.7627 10.105 0.8727 10.445 1.1927 10.675L2.4427 11.645C2.2827 12.295 2.1627 12.945 2.1027 13.635L0.5927 14.115C0.2027 14.225 0.0027 14.505 0.0027 14.905C0.0027 15.305 0.2027 15.575 0.5927 15.695L2.1027 16.175C2.1627 16.855 2.2827 17.515 2.4427 18.155L1.1927 19.125C0.8727 19.365 0.7927 19.705 0.9027 20.075C1.0527 20.455 1.3427 20.635 1.7327 20.615L3.3227 20.565C3.6127 21.165 3.9327 21.735 4.3227 22.305L3.4727 23.625C3.2527 23.965 3.2927 24.325 3.5227 24.615C3.8027 24.925 4.1427 24.995 4.5027 24.855L5.9627 24.245C6.4427 24.725 6.9627 25.145 7.4927 25.545L7.1627 27.085C7.0827 27.465 7.2227 27.795 7.5427 27.985C7.9027 28.195 8.2627 28.155 8.5327 27.875L9.7227 26.815C10.3227 27.095 10.9527 27.315 11.5927 27.495L11.8127 29.065C11.8627 29.465 12.1127 29.715 12.4827 29.795C12.8827 29.865 13.1827 29.695 13.3727 29.345L14.1127 27.935C14.4527 27.965 14.7827 27.975 15.1027 27.975ZM15.1227 11.325C14.7827 11.325 14.4527 11.365 14.1527 11.445L10.4727 5.145C11.8827 4.475 13.4527 4.105 15.1027 4.105C20.7527 4.105 25.3927 8.425 25.8627 13.945H18.5627C18.1527 12.425 16.7627 11.325 15.1227 11.325ZM4.3027 14.905C4.3027 11.285 6.0827 8.085 8.8027 6.125L12.5127 12.445C11.9127 13.085 11.5427 13.945 11.5427 14.905C11.5427 15.865 11.9227 16.745 12.5327 17.395L8.7227 23.625C6.0427 21.655 4.3027 18.485 4.3027 14.905ZM15.1227 16.435C14.2727 16.435 13.5927 15.755 13.5927 14.905C13.5927 14.055 14.2727 13.375 15.1227 13.375C15.9727 13.375 16.6527 14.055 16.6527 14.905C16.6527 15.755 15.9727 16.435 15.1227 16.435ZM15.1027 25.705C13.4127 25.705 11.8127 25.305 10.3727 24.615L14.1827 18.365C14.4827 18.445 14.7927 18.485 15.1227 18.485C16.7727 18.485 18.1727 17.365 18.5827 15.835H25.8827C25.4027 21.375 20.7627 25.705 15.1027 25.705Z"
        fillRule="evenodd"
        clipRule="evenodd"
    />
</svg>
        