<svg viewBox="0 0 27.890625 27.890625" xmlns="http://www.w3.org/2000/svg"><path d="M13.9427 27.8864C21.6427 27.8864 27.8927 21.6464 27.8927 13.9464C27.8927 6.2464 21.6427 -0.0036 13.9427 -0.0036C6.2527 -0.0036 0.0027 6.2464 0.0027 13.9464C0.0027 21.6464 6.2527 27.8864 13.9427 27.8864ZM13.9427 25.5664C7.5227 25.5664 2.3227 20.3664 2.3227 13.9464C2.3227 7.5164 7.5227 2.3264 13.9427 2.3264C20.3727 2.3264 25.5627 7.5164 25.5627 13.9464C25.5627 20.3664 20.3727 25.5664 13.9427 25.5664ZM13.2227 21.9564H14.6427C15.0427 21.9564 15.3227 21.7064 15.4127 21.3164L15.8227 19.6364C16.1027 19.5364 16.4027 19.4164 16.6527 19.2864L18.1327 20.1964C18.4727 20.4164 18.8427 20.3864 19.1127 20.1064L20.0827 19.1264C20.3727 18.8564 20.4127 18.4564 20.1827 18.1164L19.2927 16.6564C19.4127 16.3964 19.5227 16.1164 19.6227 15.8364L21.3127 15.4464C21.7127 15.3564 21.9427 15.0664 21.9427 14.6564V13.2764C21.9427 12.8764 21.7127 12.6064 21.3127 12.5064L19.6327 12.0964C19.5227 11.7864 19.4027 11.5164 19.3027 11.2664L20.2027 9.7864C20.4127 9.4564 20.4127 9.0764 20.1127 8.7864L19.1127 7.8164C18.8427 7.5564 18.4827 7.4964 18.1427 7.6964L16.6527 8.6164C16.4027 8.5064 16.1227 8.3764 15.8227 8.2864L15.4127 6.5764C15.3227 6.1764 15.0427 5.9464 14.6427 5.9464H13.2227C12.8227 5.9464 12.5327 6.1764 12.4527 6.5764L12.0427 8.2764C11.7627 8.3664 11.4527 8.4764 11.1927 8.6164L9.7227 7.6964C9.3927 7.4964 9.0327 7.5464 8.7527 7.8164L7.7527 8.7864C7.4527 9.0764 7.4527 9.4564 7.6527 9.7864L8.5627 11.2664C8.4627 11.5164 8.3427 11.7864 8.2327 12.0964L6.5527 12.5064C6.1527 12.6064 5.9327 12.8764 5.9327 13.2764V14.6564C5.9327 15.0664 6.1527 15.3564 6.5527 15.4464L8.2427 15.8364C8.3427 16.1164 8.4527 16.3964 8.5727 16.6564L7.6827 18.1164C7.4527 18.4564 7.4927 18.8564 7.7827 19.1264L8.7527 20.1064C9.0327 20.3864 9.4027 20.4164 9.7327 20.1964L11.2127 19.2864C11.4527 19.4164 11.7627 19.5364 12.0427 19.6364L12.4527 21.3164C12.5327 21.7064 12.8227 21.9564 13.2227 21.9564ZM13.9327 16.6364C12.4427 16.6364 11.2227 15.4264 11.2227 13.9364C11.2227 12.4364 12.4427 11.2264 13.9327 11.2264C15.4227 11.2264 16.6427 12.4364 16.6427 13.9364C16.6427 15.4264 15.4227 16.6364 13.9327 16.6364Z" /></svg>