
<svg
    viewBox="0 0 28.57421875 28.57421875"
    xmlns="http://www.w3.org/2000/svg"
>
    <path
        fill="inherit"
        d="M13.0327 28.5782H15.5427C16.2527 28.5782 16.7627 28.1482 16.9227 27.4482L17.6327 24.4482C18.1727 24.2682 18.6927 24.0582 19.1427 23.8482L21.7827 25.4582C22.3627 25.8282 23.0327 25.7682 23.5327 25.2782L25.2927 23.5282C25.7827 23.0382 25.8527 22.3282 25.4527 21.7382L23.8427 19.1282C24.0727 18.6482 24.2827 18.1582 24.4327 17.6682L27.4627 16.9382C28.1627 16.7782 28.5727 16.2682 28.5727 15.5582V13.0882C28.5727 12.3882 28.1627 11.8782 27.4627 11.7182L24.4627 10.9882C24.2827 10.4282 24.0627 9.9282 23.8727 9.4982L25.4827 6.8482C25.8527 6.2482 25.8227 5.6082 25.3227 5.0982L23.5327 3.3382C23.0227 2.8682 22.4127 2.7582 21.8227 3.1282L19.1427 4.7882C18.7027 4.5482 18.1927 4.3482 17.6327 4.1682L16.9227 1.1182C16.7627 0.4282 16.2527 -0.0018 15.5427 -0.0018H13.0327C12.3227 -0.0018 11.8127 0.4282 11.6327 1.1182L10.9227 4.1382C10.3927 4.3182 9.8727 4.5282 9.4027 4.7682L6.7527 3.1282C6.1627 2.7582 5.5227 2.8482 5.0327 3.3382L3.2527 5.0982C2.7527 5.6082 2.7027 6.2482 3.0927 6.8482L4.6927 9.4982C4.5127 9.9282 4.2927 10.4282 4.1127 10.9882L1.1027 11.7182C0.4127 11.8782 0.0027 12.3882 0.0027 13.0882V15.5582C0.0027 16.2682 0.4127 16.7782 1.1027 16.9382L4.1427 17.6682C4.2927 18.1582 4.5027 18.6482 4.7127 19.1282L3.1127 21.7382C2.7027 22.3282 2.7927 23.0382 3.2827 23.5282L5.0327 25.2782C5.5227 25.7682 6.2027 25.8282 6.7927 25.4582L9.4227 23.8482C9.8827 24.0582 10.3927 24.2682 10.9227 24.4482L11.6327 27.4482C11.8127 28.1482 12.3227 28.5782 13.0327 28.5782ZM14.2827 19.1182C11.6227 19.1182 9.4627 16.9482 9.4627 14.2882C9.4627 11.6182 11.6227 9.4582 14.2827 9.4582C16.9527 9.4582 19.1127 11.6182 19.1127 14.2882C19.1127 16.9482 16.9527 19.1182 14.2827 19.1182Z"
        fillRule="evenodd"
        clipRule="evenodd"
    />
</svg>
        