
<svg
    viewBox="0 0 27.890625 27.890625"
    xmlns="http://www.w3.org/2000/svg"
>
    <path
        fill="inherit"
        d="M13.9427 27.8864C21.6427 27.8864 27.8927 21.6464 27.8927 13.9464C27.8927 6.2464 21.6427 -0.0036 13.9427 -0.0036C6.2527 -0.0036 0.0027 6.2464 0.0027 13.9464C0.0027 21.6464 6.2527 27.8864 13.9427 27.8864ZM13.9427 25.5664C7.5227 25.5664 2.3227 20.3664 2.3227 13.9464C2.3227 7.5164 7.5227 2.3264 13.9427 2.3264C20.3727 2.3264 25.5627 7.5164 25.5627 13.9464C25.5627 20.3664 20.3727 25.5664 13.9427 25.5664ZM13.9327 21.6164C14.1127 21.6164 14.2627 21.6164 14.4327 21.6064L14.8027 22.3564C14.9527 22.5964 15.1727 22.7064 15.4627 22.6664C15.7327 22.6264 15.9427 22.4264 15.9827 22.1364L16.0827 21.3164C16.4027 21.2364 16.7227 21.1064 17.0327 20.9764L17.6327 21.5464C17.8427 21.7364 18.1027 21.7564 18.3427 21.6164C18.5927 21.4764 18.7327 21.2164 18.6627 20.9464L18.4727 20.1364C18.7427 19.9364 19.0027 19.7264 19.2327 19.4964L20.0127 19.8064C20.2727 19.9164 20.5327 19.8664 20.7127 19.6464C20.8927 19.4364 20.9327 19.1264 20.7627 18.9064L20.3127 18.2064C20.5127 17.9364 20.6727 17.6464 20.8227 17.3364L21.6427 17.3864C21.9327 17.4064 22.1627 17.2364 22.2627 16.9764C22.3527 16.7164 22.2727 16.4364 22.0527 16.2664L21.3927 15.7664C21.4627 15.4464 21.5327 15.1164 21.5627 14.7964L22.3627 14.5364C22.6427 14.4464 22.7927 14.2164 22.7927 13.9464C22.7927 13.6764 22.6227 13.4364 22.3627 13.3564L21.5627 13.0964C21.5327 12.7664 21.4627 12.4364 21.3927 12.1264L22.0627 11.6364C22.2827 11.4464 22.3427 11.1964 22.2627 10.9264C22.1727 10.6664 21.9427 10.4964 21.6427 10.4864L20.8227 10.5564C20.6727 10.2564 20.5127 9.9664 20.3327 9.6764L20.7827 8.9964C20.9227 8.7364 20.9027 8.4764 20.7227 8.2564C20.5527 8.0364 20.2727 7.9664 20.0027 8.0664L19.2527 8.4064C19.0027 8.1764 18.7627 7.9564 18.4727 7.7564L18.6727 6.9564C18.7127 6.6564 18.6227 6.4264 18.3727 6.2764C18.1327 6.1364 17.8427 6.1364 17.6327 6.3464L17.0527 6.9164C16.7327 6.7964 16.4027 6.6564 16.0827 6.5664L15.9927 5.7564C15.9327 5.4664 15.7627 5.2764 15.4727 5.2264C15.2027 5.1864 14.9527 5.2764 14.8027 5.5364L14.4327 6.2864C14.2727 6.2764 14.1127 6.2664 13.9327 6.2664C13.7527 6.2664 13.6027 6.2764 13.4227 6.2864L13.0527 5.5364C12.9227 5.2864 12.6727 5.1864 12.4127 5.2264C12.1227 5.2764 11.9227 5.4564 11.8827 5.7564L11.8027 6.5664C11.4727 6.6564 11.1427 6.7764 10.8427 6.9164L10.2427 6.3464C10.0327 6.1564 9.7527 6.1364 9.5127 6.2664C9.2727 6.4164 9.1327 6.6564 9.2027 6.9464L9.3927 7.7564C9.1327 7.9464 8.8627 8.1664 8.6227 8.3964L7.8627 8.0764C7.6027 7.9564 7.3327 8.0364 7.1527 8.2464C6.9727 8.4664 6.9427 8.7464 7.0927 8.9864L7.5427 9.6764C7.3527 9.9564 7.1927 10.2364 7.0427 10.5364L6.2227 10.4964C5.9327 10.4864 5.7027 10.6664 5.6227 10.9064C5.5127 11.1664 5.5927 11.4464 5.8127 11.6164L6.4827 12.1164C6.4027 12.4364 6.3427 12.7664 6.3027 13.0964L5.5127 13.3564C5.2327 13.4364 5.0727 13.6764 5.0727 13.9464C5.0727 14.2164 5.2327 14.4464 5.5127 14.5364L6.3027 14.7964C6.3427 15.1164 6.4027 15.4464 6.4827 15.7664L5.8127 16.2664C5.5827 16.4564 5.4927 16.6964 5.5927 16.9564C5.7127 17.2164 5.9327 17.4064 6.2227 17.3864L7.0427 17.3264C7.1927 17.6364 7.3527 17.9364 7.5627 18.2064L7.0927 18.9064C6.9227 19.1664 6.9627 19.4164 7.1227 19.6164C7.3327 19.8364 7.5927 19.9364 7.8627 19.8064L8.6127 19.4864C8.8627 19.7164 9.1227 19.9364 9.3927 20.1364L9.2027 20.9464C9.1327 21.2364 9.2527 21.4664 9.4927 21.6164C9.7327 21.7364 10.0327 21.7364 10.2427 21.5364L10.8427 20.9764C11.1427 21.1064 11.4527 21.2164 11.7827 21.3164L11.8827 22.1364C11.9227 22.4264 12.1127 22.6164 12.3727 22.6664C12.6427 22.7064 12.9027 22.5964 13.0527 22.3564L13.4227 21.6064C13.5927 21.6164 13.7527 21.6164 13.9327 21.6164ZM13.9327 11.7564C13.7627 11.7564 13.6127 11.7764 13.4627 11.7964L11.4127 8.3164C12.1927 7.9664 13.0427 7.7764 13.9327 7.7764C17.1027 7.7764 19.7127 10.1764 20.0527 13.2664H16.0127C15.7227 12.3864 14.9027 11.7564 13.9327 11.7564ZM7.7627 13.9464C7.7627 11.9264 8.7327 10.1264 10.2427 9.0064L12.2927 12.5064C11.9527 12.8964 11.7427 13.3964 11.7427 13.9464C11.7427 14.4964 11.9527 14.9964 12.2927 15.3764L10.1727 18.8264C8.7127 17.7064 7.7627 15.9264 7.7627 13.9464ZM13.9327 14.7364C13.4927 14.7364 13.1427 14.3864 13.1427 13.9464C13.1427 13.5064 13.4927 13.1564 13.9327 13.1564C14.3727 13.1564 14.7227 13.5064 14.7227 13.9464C14.7227 14.3864 14.3727 14.7364 13.9327 14.7364ZM13.9327 20.0964C13.0127 20.0964 12.1427 19.9064 11.3627 19.5364L13.4827 16.0764C13.6327 16.1164 13.7827 16.1364 13.9327 16.1364C14.9027 16.1364 15.7327 15.4864 16.0127 14.6164H20.0527C19.7327 17.7064 17.1127 20.0964 13.9327 20.0964Z"
        fillRule="evenodd"
        clipRule="evenodd"
    />
</svg>
        