
<svg
    viewBox="0 0 32.12890625 23.3515625"
    xmlns="http://www.w3.org/2000/svg"
>
    <path
        fill="inherit"
        d="M16.9637 6.6332V0.0032H27.8337C30.7037 0.0032 32.1337 1.4232 32.1337 4.2432V11.4932H21.9337C23.7737 10.6732 25.0337 9.1632 25.0337 7.3232C25.0337 5.2132 23.4737 3.6332 21.3737 3.6332C19.5537 3.6332 17.9237 4.7732 16.9637 6.6332ZM14.4737 11.2832C11.6237 11.2832 9.1737 9.3232 9.1737 7.4932C9.1737 6.4032 9.8437 5.7332 10.8837 5.7332C13.0437 5.7332 14.9137 8.1232 14.9137 10.8732V11.2832ZM17.6637 11.2832H17.2237V10.8732C17.2237 8.1232 19.1037 5.7332 21.2637 5.7332C22.3137 5.7332 22.9737 6.4032 22.9737 7.4932C22.9737 9.3232 20.5337 11.2832 17.6637 11.2832ZM0.0037 11.4932V4.2432C0.0037 1.4232 1.4337 0.0032 4.2937 0.0032H15.1737V6.6332C14.2337 4.7732 12.6037 3.6332 10.7737 3.6332C8.6837 3.6332 7.1137 5.2132 7.1137 7.3232C7.1137 9.1632 8.3837 10.6732 10.2137 11.4932ZM24.0237 17.6932C22.0137 17.4832 19.2237 14.8632 18.3937 13.1232H32.1337V19.1232C32.1337 21.9432 30.7037 23.3532 27.8337 23.3532H16.9637V14.1332H17.0737C18.0237 17.1132 21.6137 19.7532 23.8537 20.0832C24.6937 20.1932 25.2137 19.5932 25.2137 18.9532C25.2137 18.2232 24.7837 17.7632 24.0237 17.6932ZM4.2937 23.3532C1.4337 23.3532 0.0037 21.9432 0.0037 19.1232V13.1232H13.7637C12.9237 14.8632 10.1437 17.4632 8.1237 17.6932C7.3737 17.7732 6.9437 18.2232 6.9437 18.9532C6.9437 19.5932 7.4637 20.1932 8.3037 20.0832C10.5437 19.7532 14.1337 17.1132 15.0837 14.1332H15.1737V23.3532Z"
        fillRule="evenodd"
        clipRule="evenodd"
    />
</svg>
        