<svg viewBox="0 0 32.12890625 23.3515625" xmlns="http://www.w3.org/2000/svg"><path d="M4.2937 23.3532H27.8337C30.7037 23.3532 32.1337 21.9432 32.1337 19.1232V4.2432C32.1337 1.4232 30.7037 0.0032 27.8337 0.0032H4.2937C1.4337 0.0032 0.0037 1.4232 0.0037 4.2432V19.1232C0.0037 21.9432 1.4337 23.3532 4.2937 23.3532ZM4.3237 2.2032H15.2337V6.8932C14.3437 5.1432 12.7937 4.0632 11.0737 4.0632C9.1237 4.0632 7.6437 5.5232 7.6437 7.5232C7.6437 9.2432 8.8637 10.6632 10.5837 11.4432H2.2037V4.3632C2.2037 2.9432 2.9537 2.2032 4.3237 2.2032ZM21.5337 11.4432C23.2737 10.6632 24.4737 9.2432 24.4737 7.5232C24.4737 5.5232 23.0137 4.0632 21.0437 4.0632C19.3337 4.0632 17.7837 5.1432 16.8837 6.8932V2.2032H27.8037C29.1437 2.2032 29.9237 2.9432 29.9237 4.3632V11.4432ZM14.5737 11.2432C11.8837 11.2432 9.5737 9.3932 9.5737 7.6732C9.5737 6.6332 10.2037 6.0032 11.1837 6.0032C13.2037 6.0032 14.9837 8.2532 14.9837 10.8532V11.2432ZM17.5437 11.2432H17.1337V10.8532C17.1337 8.2532 18.9037 6.0032 20.9337 6.0032C21.9337 6.0032 22.5437 6.6332 22.5437 7.6732C22.5437 9.3932 20.2437 11.2432 17.5437 11.2432ZM27.8037 21.1532H16.8837V13.9032H16.9937C17.8937 16.7232 21.2737 19.1632 23.3837 19.4932C24.1537 19.6032 24.6337 19.0432 24.6337 18.4432C24.6337 17.7832 24.2437 17.3532 23.5337 17.2832C21.6437 17.0732 19.0037 14.6132 18.2137 12.9432H29.9237V19.0032C29.9237 20.4232 29.1437 21.1532 27.8037 21.1532ZM4.3237 21.1532C2.9537 21.1532 2.2037 20.4232 2.2037 19.0032V12.9432H13.9137C13.1137 14.6132 10.4837 17.0732 8.5837 17.2832C7.8937 17.3532 7.4937 17.7832 7.4937 18.4432C7.4937 19.0432 7.9737 19.6032 8.7537 19.4932C10.8537 19.1632 14.2337 16.7232 15.1337 13.9032H15.2337V21.1532Z" /></svg>