<svg viewBox="0 0 26.291015625 28.65625" xmlns="http://www.w3.org/2000/svg"><path d="M5.9637 28.6548H20.3337C22.9037 28.6548 24.3237 27.3048 24.3237 24.7148V16.3248H24.4137C25.6237 16.0648 26.2937 15.0948 26.2937 13.6948V10.1048C26.2937 8.4348 25.3637 7.3848 23.6937 7.3848H20.9337C21.6537 6.6548 22.0837 5.6748 22.0837 4.5348C22.0837 1.8848 19.9837 0.0048 17.3337 0.0048C15.4237 0.0048 13.8337 1.0548 13.1437 2.8848C12.4437 1.0548 10.8737 0.0048 8.9437 0.0048C6.3037 0.0048 4.1937 1.8848 4.1937 4.5348C4.1937 5.6748 4.6237 6.6548 5.3637 7.3848H2.5937C0.9937 7.3848 0.0037 8.4348 0.0037 10.1048V13.6948C0.0037 15.0948 0.6537 16.0648 1.8637 16.3248H1.9537V24.7148C1.9537 27.3048 3.3737 28.6548 5.9637 28.6548ZM12.0137 7.3848H9.8837C7.7337 7.3848 6.4837 6.1648 6.4837 4.6648C6.4837 3.1548 7.5737 2.2848 9.0737 2.2848C10.7037 2.2848 12.0137 3.5148 12.0137 5.5348ZM14.2637 7.3848V5.5348C14.2637 3.5148 15.5737 2.2848 17.2037 2.2848C18.7037 2.2848 19.7937 3.1548 19.7937 4.6648C19.7937 6.1648 18.5537 7.3848 16.3937 7.3848ZM11.9237 14.3548H3.1537C2.4737 14.3548 2.2037 14.0648 2.2037 13.3848V10.4048C2.2037 9.7248 2.4737 9.4448 3.1537 9.4448H11.9237ZM14.3537 14.3548V9.4448H23.1437C23.8337 9.4448 24.0937 9.7248 24.0937 10.4048V13.3848C24.0937 14.0648 23.8337 14.3548 23.1437 14.3548ZM11.9237 26.6048H5.9337C4.8037 26.6048 4.1537 25.9648 4.1537 24.8248V16.4248H11.9237ZM14.3537 26.6048V16.4248H22.1237V24.8248C22.1237 25.9648 21.4737 26.6048 20.3437 26.6048Z" /></svg>