
<svg
    viewBox={0 0 27.890625 27.890625}
    xmlns="http://www.w3.org/2000/svg"
>
    <path
        fill="inherit"
        d="M13.9427 27.8927C21.6427 27.8927 27.8927 21.6427 27.8927 13.9427C27.8927 6.2627 21.6427 0.0027 13.9427 0.0027C6.2627 0.0027 0.0027 6.2627 0.0027 13.9427C0.0027 21.6427 6.2627 27.8927 13.9427 27.8927ZM7.1927 12.8227V11.1327C7.1927 10.3927 7.6427 10.0727 8.3827 10.0727H10.0127C9.5927 9.6927 9.3627 9.1427 9.3627 8.5427C9.3627 7.1727 10.4327 6.2027 11.7827 6.2027C12.7727 6.2027 13.5727 6.7527 13.9427 7.7127C14.3127 6.7527 15.1327 6.2027 16.1227 6.2027C17.4627 6.2027 18.5227 7.1727 18.5227 8.5427C18.5227 9.1427 18.3027 9.6927 17.8827 10.0727H19.5227C20.2927 10.0727 20.7027 10.3927 20.7027 11.1327V12.8227C20.7027 13.5927 20.2927 13.8727 19.5227 13.8727H14.5227V10.0727H13.3727V9.0627C13.3727 8.0227 12.7027 7.3727 11.8527 7.3727C11.0927 7.3727 10.5127 7.8327 10.5127 8.6027C10.5127 9.3927 11.1727 10.0727 12.2727 10.0727H13.3727V13.8727H8.3827C7.6127 13.8727 7.1927 13.5927 7.1927 12.8227ZM15.6127 10.0727C16.7227 10.0727 17.3727 9.3927 17.3727 8.6027C17.3727 7.8327 16.8127 7.3727 16.0527 7.3727C15.1927 7.3727 14.5227 8.0227 14.5227 9.0627V10.0727ZM8.1927 19.1527V14.6327H13.3727V20.9427H10.0527C8.8827 20.9427 8.1927 20.3327 8.1927 19.1527ZM14.5227 20.9427V14.6327H19.7027V19.1527C19.7027 20.3327 19.0027 20.9427 17.8427 20.9427Z"
        fillRule="evenodd"
        clipRule="evenodd"
    />
</svg>
        