<svg viewBox="0 0 27.890625 27.890625" xmlns="http://www.w3.org/2000/svg"><path d="M13.9427 27.8864C21.6427 27.8864 27.8927 21.6464 27.8927 13.9464C27.8927 6.2464 21.6427 -0.0036 13.9427 -0.0036C6.2527 -0.0036 0.0027 6.2464 0.0027 13.9464C0.0027 21.6464 6.2527 27.8864 13.9427 27.8864ZM13.7627 22.9364C13.7627 22.7864 13.8127 22.6864 13.9627 22.2064C14.0927 21.7664 14.3027 21.1664 14.2827 20.5064C14.2727 19.6164 13.5527 18.9864 11.9527 17.8564C11.6627 17.6464 11.3627 17.4464 11.0627 17.2164C10.6227 16.8864 10.4427 16.5964 10.4427 16.2664C10.4427 16.0964 10.4827 15.8964 10.6227 15.4764C10.7427 15.0364 10.8327 14.6964 10.8327 14.4464C10.8327 13.8364 10.5127 13.4264 9.8527 12.8664C9.7627 12.7964 9.6927 12.7264 9.6127 12.6564L7.4227 10.7064C4.6927 8.2564 4.7027 6.8464 5.8127 5.0264H5.7827C7.9427 3.0664 10.8027 1.8564 13.9427 1.8564C16.1427 1.8564 18.2127 2.4464 19.9927 3.4764C19.1827 5.1364 16.2327 6.5364 14.6827 7.3464C14.3827 7.4964 14.2227 7.8364 14.4927 8.2164C15.0527 8.9964 15.3027 9.3364 15.3027 9.6364C15.3027 9.8564 15.1327 10.0264 14.9027 10.0264C14.4527 10.0264 12.9627 8.7464 12.1827 8.7464C11.2627 8.7464 10.2127 9.7164 10.2127 10.5964C10.2127 11.8564 12.7427 13.9364 14.0227 13.9364C14.7927 13.9364 16.1627 12.9564 16.5927 12.9564C17.5027 12.9564 20.0527 15.1064 20.0527 15.8364C20.0527 17.4464 15.6727 23.5064 14.4827 23.5064C14.1627 23.5064 13.7627 23.1964 13.7627 22.9364ZM13.9427 26.0264C7.2727 26.0264 1.8627 20.6164 1.8627 13.9464C1.8627 11.5564 2.5527 9.3064 3.7627 7.4364C3.8827 8.6964 4.6527 10.1064 6.5127 11.7464L8.6827 13.6564C9.1827 14.1064 9.4427 14.2864 9.4427 14.4964C9.4427 14.7964 9.0627 15.4364 9.0627 16.2664C9.0627 17.0464 9.4427 17.7464 10.2227 18.3164C11.8227 19.5264 12.9027 20.1764 12.9027 20.5364C12.9227 21.3664 12.3827 22.0564 12.3827 22.9964C12.3827 23.9364 13.5227 24.8864 14.5227 24.8864C16.4927 24.8864 21.4327 18.3464 21.4327 15.8364C21.4327 14.3164 18.2927 11.5964 16.5927 11.5964C15.8227 11.5964 14.7127 12.5464 14.0227 12.5464C13.4027 12.5464 11.5927 11.1164 11.5927 10.5964C11.5927 10.3864 11.9227 10.1264 12.1827 10.1264C12.5827 10.1264 13.9827 11.4064 14.7827 11.4064C15.9327 11.4064 16.6827 10.6464 16.6827 9.4564C16.6827 9.0464 16.5127 8.6564 16.1627 8.1464C17.6227 7.4064 20.1927 6.0064 21.1527 4.2364C24.1027 6.4364 26.0327 9.9664 26.0327 13.9464C26.0327 20.6164 20.6127 26.0264 13.9427 26.0264Z" /></svg>