
<svg
    viewBox="0 0 27.890625 27.890625"
    xmlns="http://www.w3.org/2000/svg"
>
    <path
        fill="inherit"
        d="M13.9427 27.8864C21.6427 27.8864 27.8927 21.6464 27.8927 13.9464C27.8927 6.2464 21.6427 -0.0036 13.9427 -0.0036C6.2527 -0.0036 0.0027 6.2464 0.0027 13.9464C0.0027 21.6464 6.2527 27.8864 13.9427 27.8864ZM13.6727 16.8964C13.3527 14.8764 12.3427 15.4064 11.8227 14.0364L11.0627 12.0864C10.7627 11.2764 10.2127 10.9764 9.6227 10.9764C8.9927 10.9764 8.4927 11.4464 8.2627 11.4464C8.0627 11.4464 7.3927 10.8464 7.0227 10.5164C6.4127 9.9664 5.8427 9.5164 5.2127 9.5164C4.2127 9.5164 3.3527 10.4864 3.3527 11.3564C3.3527 12.7164 6.2327 13.9364 6.2327 14.7764C6.2327 15.8164 4.9127 15.6864 4.9127 17.7064C4.9127 19.1264 4.2227 19.3364 3.2127 19.5064C2.3527 17.8464 1.8627 15.9564 1.8627 13.9464C1.8627 11.4564 2.6127 9.1464 3.8927 7.2364C4.2827 7.9064 4.8827 8.3564 5.6027 8.3564C6.4527 8.3564 7.1827 7.7964 7.3827 6.9464C7.4827 6.5864 7.5727 6.4364 7.8427 6.2764C8.4327 5.9464 8.7127 5.5764 8.7127 4.9364C8.7127 4.4564 8.4527 3.9664 8.0127 3.4164C9.7627 2.4164 11.7827 1.8564 13.9427 1.8564C20.6127 1.8564 26.0327 7.2764 26.0327 13.9464C26.0327 15.2264 25.8227 16.4564 25.4527 17.6264C22.1027 17.2164 22.8327 13.5464 20.3527 13.5464C18.7727 13.5464 15.9327 16.2564 15.9327 18.7564C15.9327 20.6064 15.7627 21.2464 15.1927 21.2464C14.4827 21.2464 14.1127 19.8564 13.6727 16.8964ZM7.3327 4.8764C7.3327 5.3464 6.4627 5.2864 6.2727 6.2764C6.1827 6.7564 5.8627 6.9764 5.5927 6.9764C5.3327 6.9764 4.8827 6.6764 4.8527 5.9764C5.4527 5.2864 6.1427 4.6764 6.8727 4.1464C7.1827 4.4664 7.3327 4.6364 7.3327 4.8764ZM13.9427 26.0264C9.8027 26.0264 6.1427 23.9364 3.9527 20.7564C5.4527 20.3264 6.2927 19.5064 6.2927 17.7464C6.2927 16.2664 7.6127 16.1564 7.6127 14.6264C7.6127 13.9464 6.9627 13.3964 5.8127 12.4564L4.9127 11.7264C4.8027 11.6464 4.7327 11.5164 4.7327 11.3864C4.7327 11.1264 4.9627 10.8964 5.2127 10.8964C5.4027 10.8964 5.5827 11.0764 6.1827 11.5964C7.1527 12.4164 7.6527 12.8664 8.2827 12.8664C8.9427 12.8664 9.1427 12.4864 9.4927 12.4864C9.6927 12.4864 9.8327 12.6064 9.9427 12.9064L10.4827 14.4064C11.0627 16.0764 12.1227 15.9264 12.3227 17.1164C12.8927 21.0364 13.5727 22.6264 15.1927 22.6264C16.7927 22.6264 17.3127 21.1664 17.3127 18.7564C17.3127 16.8864 19.5327 14.9264 20.3527 14.9264C21.2727 14.9264 21.6827 18.2764 24.9527 18.9364C23.0527 23.1164 18.8427 26.0264 13.9427 26.0264Z"
        fillRule="evenodd"
        clipRule="evenodd"
    />
</svg>
        