
<svg
    viewBox={0 0 27.890625 27.890625}
    xmlns="http://www.w3.org/2000/svg"
>
    <path
        fill="inherit"
        d="M13.9427 27.8864C21.6427 27.8864 27.8927 21.6464 27.8927 13.9464C27.8927 6.2464 21.6427 -0.0036 13.9427 -0.0036C6.2527 -0.0036 0.0027 6.2464 0.0027 13.9464C0.0027 21.6464 6.2527 27.8864 13.9427 27.8864ZM1.8627 13.9464C1.8627 7.2764 7.2727 1.8564 13.9427 1.8564C15.5627 1.8564 17.1027 2.1764 18.5127 2.7464C18.0627 3.0764 17.8027 3.4564 17.8027 3.8664C17.8027 4.9664 19.8227 5.5964 19.8227 6.2464C19.8227 6.8764 18.6627 7.5864 17.8027 8.0564C16.3427 8.8864 16.4427 9.2664 16.2527 9.6964C15.9127 10.3064 15.2427 9.0364 14.1127 9.0364C13.4227 9.0364 12.9027 9.4764 12.9027 10.1564C12.9027 11.2064 14.1527 12.1964 14.1527 12.9364C14.1527 13.8064 13.1427 14.6564 11.4027 14.6564C10.4427 14.6564 9.9227 15.0764 9.9227 15.8164C9.9227 16.5464 10.8327 17.2264 10.8327 17.5864C10.8327 17.8464 10.6227 18.1064 10.4627 18.1064C10.1727 18.1064 9.5427 17.5864 8.5327 16.2964C7.6427 15.1364 6.8227 14.4764 5.9927 14.4764C4.8127 14.4764 4.0727 15.4464 3.6527 16.2264L2.6127 18.1464C2.1227 16.8264 1.8627 15.4264 1.8627 13.9464ZM13.9427 26.0264C9.3527 26.0264 5.3427 23.4564 3.2927 19.6764L4.6727 17.0464C5.0627 16.3264 5.4727 15.8564 5.9027 15.8564C6.3327 15.8564 6.7827 16.2964 7.4327 17.1464C8.6927 18.7764 9.5527 19.6064 10.4327 19.6064C11.2827 19.6064 12.2627 18.4064 12.2627 17.5864C12.2627 16.9764 11.4427 16.4164 11.4427 16.1164C11.4427 15.9864 11.5627 15.8964 11.8027 15.8964C13.7927 15.8964 15.5327 14.2564 15.5327 12.9364C15.5327 11.6864 14.1827 10.7464 14.1827 10.3264C14.1827 10.2364 14.2427 10.1764 14.3327 10.1764C14.4527 10.1764 14.6127 10.3064 14.9327 10.5564C16.4627 11.7764 17.2227 11.0864 17.3627 10.3264C17.4227 10.0264 17.5827 9.7164 18.3327 9.3364C19.7527 8.5964 21.2027 7.3164 21.2027 6.2464C21.2027 4.8664 19.3427 4.2764 19.3427 3.9464C19.3427 3.7964 19.5827 3.6664 20.0327 3.4964C23.6227 5.5964 26.0327 9.4864 26.0327 13.9464C26.0327 15.2064 25.8427 16.4364 25.4727 17.5864C25.0627 16.8664 24.4427 16.4764 23.7027 16.4764C23.3927 16.4764 22.9827 16.5264 22.6127 16.6564C22.1627 16.8064 22.0927 16.7764 21.7427 16.3664C21.1827 15.7264 20.6827 15.4864 19.9027 15.4864C18.5227 15.4864 17.6327 16.1564 16.9827 18.1264C16.8127 18.6664 16.5827 18.8364 15.6427 19.1964L15.0627 19.3964C13.9827 19.8064 13.6727 20.6064 14.0527 22.2764C14.3927 23.7364 15.1027 24.4764 16.1027 24.4764C16.9927 24.4764 17.5227 24.1564 18.1127 24.1564C18.6627 24.1464 19.0127 24.3664 19.3727 24.7464C17.7327 25.5664 15.9027 26.0264 13.9427 26.0264ZM17.2427 13.1064C18.1327 13.1064 18.5227 12.3164 19.5227 12.0164C20.1827 11.8264 20.5327 11.1564 20.5327 10.5864C20.5327 10.1164 20.3027 9.7164 19.7927 9.7164C19.2627 9.7164 18.7727 10.1264 18.4427 10.8264C18.2627 11.2264 17.9627 11.4164 17.2427 11.6164C16.6627 11.7964 16.4627 12.0064 16.4627 12.4364C16.4627 12.9064 16.8327 13.1064 17.2427 13.1064ZM13.2727 19.4264C14.0527 19.4264 14.8227 18.5264 14.8227 17.7164C14.8227 16.7164 14.4127 16.2564 13.9327 16.2564C13.4127 16.2564 13.0827 16.8664 13.0827 17.7964C13.0827 18.3364 12.6227 18.3464 12.6227 18.8764C12.6227 19.2064 12.8827 19.4264 13.2727 19.4264ZM18.1127 22.7464C17.1127 22.7464 16.9127 23.0764 16.2327 23.0764C15.8227 23.0764 15.6027 22.7264 15.4227 21.9664C15.2627 21.3164 15.1927 20.8364 15.6127 20.6564C16.1027 20.4664 17.7627 20.2764 18.3227 18.5264C18.7127 17.3364 19.0827 16.8664 19.7427 16.8664C20.9227 16.8664 20.7227 18.1164 22.1327 18.1164C22.7527 18.1164 23.0827 17.8564 23.5127 17.8564C24.0727 17.8564 24.4727 18.3564 24.6127 19.6164C23.6627 21.4064 22.2727 22.9264 20.5927 24.0464C20.0427 23.3764 19.3027 22.7464 18.1127 22.7464ZM10.8827 21.9264C11.4827 21.9264 11.8527 21.6164 11.8527 21.1264C11.8527 20.7364 11.5627 20.4964 11.1527 20.4964C9.5027 20.4964 9.4327 19.5664 8.6427 19.5664C8.2027 19.5664 7.9027 19.8264 7.9027 20.2064C7.9027 20.5064 8.2027 20.7364 8.6127 20.7364C9.4927 20.7364 9.0827 21.9264 10.8827 21.9264Z"
        fillRule="evenodd"
        clipRule="evenodd"
    />
</svg>
        