
<svg
    viewBox={0 0 27.890625 27.890625}
    xmlns="http://www.w3.org/2000/svg"
>
    <path
        fill="inherit"
        d="M13.9427 27.8864C21.6427 27.8864 27.8927 21.6464 27.8927 13.9464C27.8927 6.2464 21.6427 -0.0036 13.9427 -0.0036C6.2527 -0.0036 0.0027 6.2464 0.0027 13.9464C0.0027 21.6464 6.2527 27.8864 13.9427 27.8864ZM13.1127 18.8164C13.1127 16.8164 11.5227 15.3164 9.4227 15.3164C7.7927 15.3164 7.0127 14.5164 7.0127 12.9864C7.0127 10.8564 9.2527 9.4564 11.3927 9.4564C12.8227 9.4564 13.9627 10.1864 15.0827 10.1864C15.9927 10.1864 16.6427 8.8164 16.6427 7.8064C16.6427 6.5364 13.9427 5.1264 13.1227 5.1264C12.5127 5.1264 12.2227 5.4564 12.1227 6.1664L11.9527 6.0164C11.3727 5.5964 10.9227 5.3464 10.4027 5.3464C9.0927 5.3464 9.0327 7.1064 8.3427 7.1064C8.1627 7.1064 8.0427 6.9864 8.0427 6.7964C8.0427 6.1964 9.5027 4.9664 9.5127 3.2664L9.5327 2.6964C10.8927 2.1464 12.3827 1.8564 13.9427 1.8564C20.6127 1.8564 26.0327 7.2764 26.0327 13.9464C26.0327 14.3464 26.0127 14.7564 25.9727 15.1464C24.7627 14.0864 25.1327 10.2364 23.4327 10.2364C22.8327 10.2364 22.4627 10.7764 22.2327 10.7764C22.0827 10.7764 21.7227 10.4764 20.9227 9.8164C20.5227 9.5064 20.1127 9.0764 19.3727 9.0764C18.4727 9.0764 17.5927 10.1064 17.5927 11.0464C17.5927 12.5364 20.3127 13.3164 20.3127 13.8364C20.3127 14.1464 20.1927 14.3964 19.6827 14.9664C19.1227 15.5964 18.8627 16.0264 18.8627 16.5564C18.8627 16.7864 18.8927 17.0064 18.9127 17.2164C18.9727 18.1264 18.9327 18.4664 18.6727 18.9064C18.0427 19.8764 16.2527 23.0764 14.5227 23.0764C12.9727 23.0764 13.1127 20.8664 13.1127 18.8164ZM13.9427 26.0264C7.2727 26.0264 1.8627 20.6164 1.8627 13.9464C1.8627 9.3364 4.4427 5.3364 8.2327 3.2964V3.3864C8.2327 5.0264 6.7627 5.6364 6.7627 6.9364C6.7627 7.7264 7.3327 8.2464 8.1927 8.2464C9.8127 8.2464 9.8427 6.5264 10.5027 6.5264C11.0227 6.5364 11.6227 7.4364 12.6627 7.4364C13.2027 7.4364 13.5127 7.1064 13.5627 6.5064C14.3527 6.8364 15.3427 7.3964 15.3427 7.9264C15.3427 8.2864 15.1927 8.8064 14.9027 8.8064C14.3127 8.8064 12.7727 8.0764 11.3927 8.0764C8.5027 8.0764 5.6327 10.0864 5.6327 12.9864C5.6327 15.2964 7.0027 16.6964 9.4227 16.6964C10.7427 16.6964 11.7327 17.5864 11.7327 18.8164C11.7327 20.8364 11.5027 24.4564 14.5227 24.4564C17.1127 24.4564 19.3027 20.4964 19.8627 19.5664C20.5727 18.4064 20.2527 17.2364 20.2527 16.5564C20.2527 16.1364 21.6927 15.0764 21.6927 13.8364C21.6927 12.5764 18.8927 11.5364 18.8927 11.0364C18.8927 10.7064 19.1727 10.3064 19.4427 10.3064C19.9727 10.3064 21.4527 12.2064 22.3527 12.2064C22.9027 12.2064 23.0627 11.7264 23.2827 11.7264C23.6527 11.7264 23.9427 15.6864 25.7427 16.5864C24.5427 21.9864 19.7127 26.0264 13.9427 26.0264ZM18.2127 5.6164C18.5127 5.6164 18.7827 5.9064 19.2927 5.9064C19.6027 5.9064 19.8427 5.6164 19.8427 5.2464C19.8427 4.5764 19.0827 4.0764 18.1027 4.0764C16.9427 4.0764 16.2727 4.4564 16.2727 5.1264C16.2727 5.5664 16.5927 5.8764 17.0327 5.8764C17.4827 5.8764 17.6927 5.6164 18.2127 5.6164Z"
        fillRule="evenodd"
        clipRule="evenodd"
    />
</svg>
        