
<svg
    viewBox={0 0 27.890625 27.890625}
    xmlns="http://www.w3.org/2000/svg"
>
    <path
        fill="inherit"
        d="M13.9427 27.8864C21.6427 27.8864 27.8927 21.6464 27.8927 13.9464C27.8927 6.2464 21.6427 -0.0036 13.9427 -0.0036C6.2527 -0.0036 0.0027 6.2464 0.0027 13.9464C0.0027 21.6464 6.2527 27.8864 13.9427 27.8864ZM13.9427 26.0264C9.3927 26.0264 5.4327 23.5064 3.3627 19.7864C5.1827 18.2064 5.1527 15.7864 5.9027 15.7864C6.3327 15.7864 6.7527 16.1564 7.4927 17.1064C8.7527 18.7264 9.5827 19.5364 10.4327 19.5364C11.2227 19.5364 12.1927 18.3764 12.1927 17.4464C12.1927 17.0064 11.3727 16.4464 11.3727 16.1164C11.3727 15.9264 11.5627 15.8364 11.8427 15.8364C13.7627 15.8364 15.4627 14.2164 15.4627 12.9364C15.4627 12.0164 13.9727 11.1664 13.9727 10.5864C13.9727 10.3364 14.1827 10.1764 14.4227 10.1764C14.5927 10.1764 14.7827 10.2364 15.0227 10.4164C16.5127 11.5964 17.2127 10.9764 17.3527 10.2264C17.4027 9.9164 17.5827 9.5864 18.3627 9.1964C19.9927 8.3364 21.1327 7.1664 21.1327 6.2464C21.1327 5.2264 19.2727 4.3464 19.2727 3.9464C19.2727 3.7864 19.4727 3.6364 19.9427 3.4564C23.5827 5.5364 26.0327 9.4564 26.0327 13.9464C26.0327 15.2464 25.8227 16.4864 25.4427 17.6664C25.0427 16.9364 24.4327 16.5464 23.7027 16.5464C23.3927 16.5464 22.9927 16.5964 22.6427 16.7164C22.1627 16.8664 22.0627 16.8464 21.6827 16.4064C21.1327 15.7764 20.6627 15.5564 19.9027 15.5564C18.4827 15.5564 17.6627 16.2964 17.0527 18.1464C16.8727 18.7064 16.6227 18.8964 15.6727 19.2664L15.0927 19.4664C14.0227 19.8764 13.7527 20.6464 14.1227 22.2564C14.4527 23.6764 15.1327 24.4064 16.1027 24.4064C16.9827 24.4064 17.5127 24.0864 18.1127 24.0864C18.6927 24.0764 19.0727 24.3064 19.4427 24.7164C17.7827 25.5564 15.9327 26.0264 13.9427 26.0264ZM17.2427 13.1064C18.1327 13.1064 18.5227 12.3164 19.5227 12.0164C20.1827 11.8264 20.5327 11.1564 20.5327 10.5864C20.5327 10.1164 20.3027 9.7164 19.7927 9.7164C19.2627 9.7164 18.7727 10.1264 18.4427 10.8264C18.2627 11.2264 17.9627 11.4164 17.2427 11.6164C16.6627 11.7964 16.4627 12.0064 16.4627 12.4364C16.4627 12.9064 16.8327 13.1064 17.2427 13.1064ZM13.2727 19.4264C14.0527 19.4264 14.8227 18.5264 14.8227 17.7164C14.8227 16.7164 14.4127 16.2564 13.9327 16.2564C13.4127 16.2564 13.0827 16.8664 13.0827 17.7964C13.0827 18.3364 12.6227 18.3464 12.6227 18.8764C12.6227 19.2064 12.8827 19.4264 13.2727 19.4264ZM10.8827 21.9264C11.4827 21.9264 11.8527 21.6164 11.8527 21.1264C11.8527 20.7364 11.5627 20.4964 11.1527 20.4964C9.5027 20.4964 9.4327 19.5664 8.6427 19.5664C8.2027 19.5664 7.9027 19.8264 7.9027 20.2064C7.9027 20.5064 8.2027 20.7364 8.6127 20.7364C9.4927 20.7364 9.0827 21.9264 10.8827 21.9264Z"
        fillRule="evenodd"
        clipRule="evenodd"
    />
</svg>
        