
<svg
    viewBox={0 0 26.60546875 30.748046875}
    xmlns="http://www.w3.org/2000/svg"
>
    <path
        fill="inherit"
        d="M9.3427 30.7446H19.1827C19.7827 30.7446 20.2727 30.2546 20.2727 29.6546C20.2727 29.0546 19.7827 28.5446 19.1827 28.5446H15.3427V26.2346C18.4727 26.0046 21.3027 24.7846 23.5327 22.8746L24.7327 24.0746C25.1527 24.5046 25.8527 24.5046 26.2727 24.0746C26.7127 23.6546 26.7127 22.9446 26.2727 22.5146L22.0827 18.3246C23.4627 16.5946 24.2827 14.4146 24.2827 12.0346C24.2827 6.4946 19.7827 1.9946 14.2427 1.9946C11.8627 1.9946 9.6827 2.8146 7.9527 4.1946L4.0927 0.3246C3.6627 -0.1054 2.9527 -0.1054 2.5327 0.3246C2.1027 0.7546 2.1027 1.4446 2.5327 1.8846L3.4027 2.7446C1.2727 5.2346 0.0027 8.4646 0.0027 12.0346C0.0027 19.6046 5.7327 25.6846 13.1427 26.2346V28.5446H9.3427C8.7327 28.5446 8.2327 29.0546 8.2327 29.6546C8.2327 30.2546 8.7327 30.7446 9.3427 30.7446ZM14.2427 20.0146C9.5527 20.0146 6.2627 16.7246 6.2627 12.0346C6.2627 7.3446 9.5527 4.0646 14.2427 4.0646C18.9327 4.0646 22.2127 7.3446 22.2127 12.0346C22.2127 16.7246 18.9327 20.0146 14.2427 20.0146ZM14.2427 22.0846C16.6227 22.0846 18.8027 21.2446 20.5227 19.8646L21.9727 21.3246C19.8927 23.0546 17.2127 24.0746 14.2427 24.0746C7.5027 24.0746 2.2027 18.7746 2.2027 12.0346C2.2027 9.0646 3.2227 6.3846 4.9527 4.3046L6.4127 5.7546C5.0327 7.4746 4.1927 9.6546 4.1927 12.0346C4.1927 17.5846 8.6927 22.0846 14.2427 22.0846Z"
        fillRule="evenodd"
        clipRule="evenodd"
    />
</svg>
        