
<svg
    viewBox={0 0 27.890625 27.890625}
    xmlns="http://www.w3.org/2000/svg"
>
    <path
        fill="inherit"
        d="M13.9427 27.8864C21.6427 27.8864 27.8927 21.6464 27.8927 13.9464C27.8927 6.2464 21.6427 -0.0036 13.9427 -0.0036C6.2527 -0.0036 0.0027 6.2464 0.0027 13.9464C0.0027 21.6464 6.2527 27.8864 13.9427 27.8864ZM13.9427 26.0264C7.2727 26.0264 1.8627 20.6164 1.8627 13.9464C1.8627 11.2764 2.7227 8.8164 4.1827 6.8264C4.0727 8.2264 5.1727 9.7864 7.0527 11.4164L9.0527 13.1564C9.6827 13.7164 10.0527 13.9764 10.0527 14.3264C10.0527 14.9164 9.3927 15.3264 9.3927 16.0764C9.3927 16.7664 9.7227 17.3464 10.4327 17.8664C12.6427 19.5364 13.1827 19.7664 13.1827 20.2764C13.1927 21.1764 12.6627 21.8564 12.6627 22.6964C12.6627 23.4464 13.6327 24.2764 14.4927 24.2764C16.2427 24.2764 21.0227 17.9964 21.0227 15.6364C21.0227 14.3164 18.0727 11.7264 16.5327 11.7264C15.8627 11.7264 14.7827 12.6864 14.0027 12.6864C13.2227 12.6864 11.4727 11.1564 11.4727 10.4864C11.4727 10.1064 11.8027 9.8864 12.1827 9.8864C12.8527 9.8864 13.9027 11.0064 14.9727 11.0064C15.8627 11.0064 16.3427 10.3864 16.3427 9.5064C16.3427 9.0364 16.0827 8.5764 15.6927 7.9664C17.0927 7.2864 19.8527 5.8364 20.8127 3.9964C23.9627 6.1764 26.0327 9.8164 26.0327 13.9464C26.0327 20.6164 20.6127 26.0264 13.9427 26.0264Z"
        fillRule="evenodd"
        clipRule="evenodd"
    />
</svg>
        