
<svg
    viewBox="0 0 27.890625 27.890625"
    xmlns="http://www.w3.org/2000/svg"
>
    <path
        fill="inherit"
        d="M13.9427 27.8864C21.6427 27.8864 27.8927 21.6464 27.8927 13.9464C27.8927 6.2464 21.6427 -0.0036 13.9427 -0.0036C6.2527 -0.0036 0.0027 6.2464 0.0027 13.9464C0.0027 21.6464 6.2527 27.8864 13.9427 27.8864ZM13.9427 26.0264C7.2727 26.0264 1.8627 20.6164 1.8627 13.9464C1.8627 9.2564 4.5427 5.1864 8.4327 3.1864C8.3927 3.3464 8.3627 3.5264 8.3627 3.6864C8.3627 5.4864 6.9027 5.8964 6.9027 6.9764C6.9027 7.6564 7.3827 8.1064 8.1227 8.1064C9.7027 8.1064 9.6927 6.3864 10.5027 6.3864C11.1027 6.3964 11.6627 7.2964 12.6627 7.2964C13.1127 7.2964 13.3327 7.0164 13.3527 6.6064C13.3827 6.4264 13.4627 6.3464 13.6327 6.3464C14.5027 6.3464 15.4727 7.3264 15.4727 7.9264C15.4727 8.5064 15.2627 8.9364 14.9027 8.9364C14.2827 8.9364 12.7527 8.2164 11.3927 8.2164C8.3227 8.2164 5.7727 10.3864 5.7727 12.9864C5.7727 15.2464 7.0927 16.5564 9.4227 16.5564C10.8327 16.5564 11.8627 17.5164 11.8627 18.8164C11.8627 20.8364 11.6527 24.3264 14.5227 24.3264C17.0327 24.3264 19.1827 20.4264 19.7427 19.4964C20.4427 18.3764 20.1127 17.2564 20.1127 16.5564C20.1127 16.0664 21.5627 15.0264 21.5627 13.8364C21.5627 12.6364 18.7627 11.6764 18.7627 10.9964C18.7627 10.5564 19.0827 10.1764 19.4427 10.1764C20.0427 10.1764 21.5227 12.0764 22.3527 12.0764C22.9027 12.0764 22.9427 11.5964 23.2427 11.5964C23.9027 11.5964 24.0327 15.0364 25.8127 16.2464C24.7427 21.8164 19.8427 26.0264 13.9427 26.0264ZM17.9627 5.6964C17.4627 5.6964 17.2527 5.9564 16.8127 5.9564C16.3927 5.9564 16.0827 5.6564 16.0827 5.2364C16.0827 4.5764 16.7327 4.2064 17.8527 4.2064C18.8127 4.2064 19.5327 4.7064 19.5327 5.3464C19.5327 5.6964 19.3027 5.9864 19.0027 5.9864C18.5127 5.9864 18.2527 5.6964 17.9627 5.6964Z"
        fillRule="evenodd"
        clipRule="evenodd"
    />
</svg>
        