
<svg
    viewBox="0 0 39.954314309157965 24.96484375"
    xmlns="http://www.w3.org/2000/svg"
>
    <path
        fill="inherit"
        d="M35.9499 2.2035C36.8099 2.2035 37.6599 2.3135 38.4799 2.5135C39.9999 2.8935 40.6299 0.8035 38.9699 0.3535C38.1999 0.1535 37.0699 0.0035 35.9499 0.0035C32.9999 0.0035 30.2399 1.0435 27.9699 2.7935C25.6999 1.0435 22.9399 0.0035 19.9699 0.0035C17.0199 0.0035 14.2599 1.0435 11.9899 2.7935C9.7199 1.0435 6.9599 0.0035 3.9999 0.0035C2.8799 0.0035 1.7599 0.1535 0.9799 0.3535C-0.6701 0.8035 -0.0401 2.8935 1.4599 2.5135C2.2899 2.3135 3.1399 2.2035 3.9999 2.2035C6.3099 2.2035 8.4899 2.9635 10.3199 4.2935C7.6299 7.1235 5.9399 11.1135 5.9399 15.4935C5.9399 21.1335 8.3399 24.9635 11.9999 24.9635C15.6399 24.9635 18.0299 21.1335 18.0299 15.4935C18.0299 11.1135 16.3499 7.1335 13.6499 4.2935C15.4899 2.9635 17.6599 2.2035 19.9699 2.2035C22.2999 2.2035 24.4699 2.9635 26.2999 4.2935C23.6099 7.1335 21.9099 11.1135 21.9099 15.4935C21.9099 21.1335 24.2999 24.9635 27.9599 24.9635C31.6199 24.9635 34.0099 21.1335 34.0099 15.4935C34.0099 11.1135 32.3299 7.1235 29.6399 4.2935C31.4699 2.9635 33.6399 2.2035 35.9499 2.2035ZM8.1399 15.4935C8.1399 11.6635 9.6399 8.1735 11.9899 5.7435C14.3399 8.1735 15.8299 11.6635 15.8299 15.4935C15.8299 19.8835 14.2599 22.7635 11.9999 22.7635C9.7299 22.7635 8.1399 19.8635 8.1399 15.4935ZM24.1099 15.4935C24.1099 11.6635 25.5999 8.1735 27.9699 5.7435C30.3199 8.1735 31.8099 11.6635 31.8099 15.4935C31.8099 19.8635 30.2099 22.7635 27.9599 22.7635C25.6999 22.7635 24.1099 19.8835 24.1099 15.4935Z"
        fillRule="evenodd"
        clipRule="evenodd"
    />
</svg>
        