
<svg
    viewBox="0 0 27.890625 27.890625"
    xmlns="http://www.w3.org/2000/svg"
>
    <path
        fill="inherit"
        d="M13.9427 27.8864C21.6427 27.8864 27.8927 21.6464 27.8927 13.9464C27.8927 6.2664 21.6427 -0.0036 13.9427 -0.0036C6.2627 -0.0036 0.0027 6.2664 0.0027 13.9464C0.0027 21.6464 6.2627 27.8864 13.9427 27.8864ZM5.0727 11.5164C5.0727 11.1964 5.2727 10.8464 5.7027 10.6464L12.1727 7.6964C12.8527 7.3964 13.3827 7.2464 13.9327 7.2564C14.4827 7.2464 15.0227 7.3964 15.6927 7.6964L22.1727 10.6464C22.6027 10.8464 22.7927 11.1964 22.7927 11.5164C22.7927 11.8564 22.6027 12.1864 22.1727 12.3764L15.6927 15.3564C15.0227 15.6564 14.4827 15.7864 13.9327 15.7764C13.3827 15.7864 12.8527 15.6564 12.1727 15.3564L9.3927 14.0664L13.3327 12.2264C13.5227 12.2764 13.7427 12.3064 13.9627 12.3064C14.6827 12.3064 15.3927 11.9764 15.3927 11.5164C15.3927 11.0564 14.6827 10.7564 13.9627 10.7564C13.2527 10.7564 12.5127 11.0564 12.5127 11.5164C12.5127 11.5664 12.5227 11.6364 12.5527 11.6764L8.3927 13.6064L5.7027 12.3764C5.2727 12.1864 5.0727 11.8564 5.0727 11.5164ZM7.5427 16.4764V14.2464L8.4227 14.6564V18.3364C7.8627 17.7364 7.5427 17.0464 7.5427 16.4764ZM9.3627 19.0564V15.0764L11.7827 16.1964C12.5627 16.5564 13.2727 16.7364 13.9327 16.7164C14.5927 16.7364 15.3027 16.5564 16.0827 16.1964L20.3127 14.2464V16.4764C20.3127 18.4464 17.8427 20.1064 13.9327 20.1064C12.0327 20.1064 10.4627 19.7264 9.3627 19.0564ZM7.9527 21.7364V20.3164C7.9527 19.9364 8.1327 19.6564 8.4227 19.5364V18.3364C8.6927 18.6064 8.9927 18.8564 9.3627 19.0564V19.5464C9.6427 19.6764 9.8327 19.9464 9.8327 20.3164V21.7364C9.8327 22.2564 9.4927 22.5864 8.9727 22.5864H8.8027C8.2727 22.5864 7.9527 22.2564 7.9527 21.7364Z"
        fillRule="evenodd"
        clipRule="evenodd"
    />
</svg>
        