
<svg
    viewBox="0 0 36.681640625 33.046630859375"
    xmlns="http://www.w3.org/2000/svg"
>
    <path
        fill="inherit"
        d="M35.3837 7.0272L21.9937 0.9072C20.6037 0.2772 19.4737 -0.0228 18.3337 -0.0028C17.2137 -0.0228 16.0737 0.2772 14.6737 0.9072L1.3037 7.0272C0.4237 7.4272 0.0037 8.1272 0.0037 8.8172C0.0037 9.5172 0.4237 10.1972 1.3037 10.6072L6.9337 13.1772L15.5837 9.1172C15.5037 9.0272 15.4737 8.9172 15.4737 8.8172C15.4737 7.9572 16.9237 7.3072 18.3937 7.3072C19.8637 7.3072 21.2837 7.9572 21.2837 8.8172C21.2837 9.7072 19.8637 10.3772 18.3937 10.3772C17.9337 10.3772 17.4837 10.3072 17.0937 10.1972L8.8337 14.0672L14.6737 16.7472C16.0737 17.3972 17.2137 17.6672 18.3337 17.6472C19.4737 17.6672 20.6037 17.3972 21.9937 16.7472L35.3837 10.6072C36.2537 10.1972 36.6837 9.5172 36.6837 8.8172C36.6837 8.1272 36.2537 7.4272 35.3837 7.0272ZM8.7737 16.0972V24.4072C11.0737 25.7972 14.3537 26.6472 18.3337 26.6472C26.4037 26.6472 31.5937 23.1872 31.5937 19.0972V14.3972L22.7737 18.4272C21.1737 19.1672 19.7237 19.5372 18.3337 19.5272C16.9537 19.5372 15.4937 19.1672 13.8937 18.4272ZM5.0837 14.3972V19.0972C5.0837 20.2872 5.7737 21.7672 7.0037 23.0272V15.2872ZM5.9237 27.6772V31.2672C5.9237 32.3472 6.6137 33.0472 7.6937 33.0472H8.0637C9.1437 33.0472 9.8437 32.3472 9.8437 31.2672V27.6772C9.8437 26.8572 9.4337 26.2672 8.7737 26.0172V24.4072C8.0937 23.9972 7.4937 23.5272 7.0037 23.0272V26.0172C6.3337 26.2472 5.9237 26.8572 5.9237 27.6772Z"
        fillRule="evenodd"
        clipRule="evenodd"
    />
</svg>
        