
<svg
    viewBox="0 0 37.173828125 33.33247665152261"
    xmlns="http://www.w3.org/2000/svg"
>
    <path
        fill="inherit"
        d="M5.3337 19.383C5.3337 21.313 6.4837 23.103 8.5437 24.443V26.303C7.8737 26.533 7.4637 27.143 7.4637 27.963V31.553C7.4637 32.633 8.1637 33.333 9.2437 33.333H9.6137C10.6937 33.333 11.3937 32.633 11.3937 31.553V27.963C11.3937 27.143 10.9737 26.553 10.3237 26.303V25.403C12.4937 26.363 15.3037 26.933 18.5837 26.933C26.6437 26.933 31.8437 23.473 31.8437 19.383V12.963L35.8337 11.133C36.7237 10.723 37.1737 9.923 37.1737 9.103C37.1737 8.303 36.7237 7.503 35.8337 7.093L22.3637 0.943C20.9137 0.283 19.7537 -0.017 18.5837 0.003C17.4137 -0.017 16.2537 0.283 14.7937 0.943L1.3437 7.093C0.4537 7.503 0.0037 8.303 0.0037 9.103C0.0037 9.923 0.4537 10.723 1.3437 11.133L5.3337 12.963ZM18.5837 16.063C17.6737 16.063 16.7937 15.833 15.6237 15.303L11.7437 13.523L17.4337 10.513C17.8137 10.613 18.2237 10.663 18.6337 10.663C20.1137 10.663 21.5337 9.993 21.5337 9.103C21.5337 8.243 20.1137 7.593 18.6337 7.593C17.1737 7.593 15.7237 8.243 15.7237 9.103C15.7237 9.253 15.7637 9.393 15.8437 9.533L9.8437 12.663L3.0337 9.573C2.7937 9.463 2.6837 9.293 2.6837 9.103C2.6837 8.933 2.7937 8.763 3.0337 8.653L15.6237 2.923C16.7937 2.393 17.6737 2.163 18.5837 2.163C19.4937 2.163 20.3737 2.393 21.5437 2.923L34.1437 8.653C34.3737 8.763 34.4937 8.933 34.4937 9.103C34.4937 9.293 34.3737 9.463 34.1437 9.573L21.5437 15.303C20.3737 15.833 19.4937 16.063 18.5837 16.063ZM7.5337 19.383V13.963L8.5437 14.423V21.723C7.8937 21.003 7.5337 20.193 7.5337 19.383ZM18.5837 18.223C19.7537 18.243 20.9137 17.933 22.3637 17.283L29.6437 13.963V19.383C29.6437 22.243 25.3237 24.873 18.5837 24.873C15.0937 24.873 12.2537 24.163 10.3237 23.083V15.233L14.7937 17.283C16.2537 17.933 17.4137 18.243 18.5837 18.223Z"
        fillRule="evenodd"
        clipRule="evenodd"
    />
</svg>
        