
<svg
    viewBox="0 0 27.890625 27.890625"
    xmlns="http://www.w3.org/2000/svg"
>
    <path
        fill="inherit"
        d="M13.9427 27.8864C21.6427 27.8864 27.8927 21.6264 27.8927 13.9464C27.8927 6.2464 21.6427 -0.0036 13.9427 -0.0036C6.2627 -0.0036 0.0027 6.2464 0.0027 13.9464C0.0027 21.6264 6.2627 27.8864 13.9427 27.8864ZM10.4427 16.5664C9.8327 16.5664 9.3927 16.0664 9.3927 15.5464C9.3927 15.1164 9.6427 14.7364 10.0527 14.5764L15.9427 11.9464V11.9064L10.0527 9.3064C9.6427 9.1064 9.3927 8.7264 9.3927 8.3164C9.3927 7.7964 9.8327 7.3164 10.4427 7.3164C10.6127 7.3164 10.7727 7.3464 11.1027 7.4764L18.0927 10.5964C18.7627 10.9064 19.0027 11.3764 19.0027 11.9264C19.0027 12.5364 18.7727 12.9764 18.0927 13.2664L11.1027 16.3764C10.7727 16.5264 10.6127 16.5664 10.4427 16.5664ZM19.1727 19.7564C19.1727 20.2764 18.7027 20.7764 18.1127 20.7764H9.9627C9.3827 20.7764 8.9327 20.2764 8.9327 19.7564C8.9327 19.1964 9.3827 18.7264 9.9627 18.7264H18.1127C18.7027 18.7264 19.1727 19.1964 19.1727 19.7564Z"
        fillRule="evenodd"
        clipRule="evenodd"
    />
</svg>
        