
<svg
    viewBox="0 0 27.890625 27.890625"
    xmlns="http://www.w3.org/2000/svg"
>
    <path
        fill="inherit"
        d="M13.9427 27.8864C21.6427 27.8864 27.8927 21.6264 27.8927 13.9464C27.8927 6.2464 21.6427 -0.0036 13.9427 -0.0036C6.2627 -0.0036 0.0027 6.2464 0.0027 13.9464C0.0027 21.6264 6.2627 27.8864 13.9427 27.8864ZM10.2927 19.7264C9.6227 19.7264 9.1227 19.2364 9.1227 18.5964C9.1227 18.0464 9.3627 17.7364 9.9527 17.4564L17.0927 13.9464V13.8664L9.9527 10.2664C9.3827 9.9964 9.1227 9.6564 9.1227 9.1164C9.1227 8.4864 9.6127 7.9964 10.2627 7.9964C10.5827 7.9964 10.7627 8.0664 10.9827 8.1764L19.3827 12.6964C19.9427 13.0164 20.2327 13.4164 20.2327 13.9464C20.2327 14.5364 19.9727 14.8864 19.3827 15.1864L10.9827 19.5664C10.7727 19.6564 10.5827 19.7264 10.2927 19.7264Z"
        fillRule="evenodd"
        clipRule="evenodd"
    />
</svg>
        