
<svg
    viewBox="0 0 16.556640625 22.75"
    xmlns="http://www.w3.org/2000/svg"
>
    <path
        fill="inherit"
        d="M1.8737 15.7914C2.2537 15.7914 2.5137 15.6914 2.7937 15.5614L15.1637 9.7114C15.9537 9.3214 16.5537 8.7814 16.5537 7.9014C16.5537 7.0414 15.9537 6.4714 15.1637 6.1014L2.7937 0.2214C2.5437 0.0914 2.2837 0.0014 1.9237 0.0014C1.2137 0.0014 0.7137 0.4914 0.7137 1.2214C0.7137 1.8414 1.0537 2.2114 1.6137 2.4614L13.3337 7.7214V7.8714L1.6137 13.3414C1.0637 13.5914 0.7137 13.9314 0.7137 14.5614C0.7137 15.3114 1.2037 15.7914 1.8737 15.7914ZM16.5537 21.5214C16.5537 20.8514 15.9937 20.3014 15.3437 20.3014H1.2137C0.5637 20.3014 0.0037 20.8514 0.0037 21.5214C0.0037 22.2014 0.5637 22.7514 1.2137 22.7514H15.3437C15.9937 22.7514 16.5537 22.2014 16.5537 21.5214Z"
        fillRule="evenodd"
        clipRule="evenodd"
    />
</svg>
        