<svg viewBox="0 0 25.169921875 25.169921875" xmlns="http://www.w3.org/2000/svg"><path d="M4.2937 25.1692H20.8737C23.7437 25.1692 25.1737 23.7592 25.1737 20.9492V4.2392C25.1737 1.4192 23.7437 -0.0008 20.8737 -0.0008H4.2937C1.4337 -0.0008 0.0037 1.4192 0.0037 4.2392V20.9492C0.0037 23.7592 1.4337 25.1692 4.2937 25.1692ZM8.9437 18.3592C8.2737 18.3592 7.7637 17.8692 7.7637 17.2292C7.7637 16.6792 8.0137 16.3692 8.6037 16.0892L15.7537 12.5792V12.4992L8.6037 8.8992C8.0237 8.6292 7.7637 8.2892 7.7637 7.7492C7.7637 7.1192 8.2537 6.6292 8.9137 6.6292C9.2237 6.6292 9.4037 6.6992 9.6437 6.8092L18.0437 11.3292C18.5937 11.6492 18.8837 12.0492 18.8837 12.5792C18.8837 13.1692 18.6237 13.5192 18.0437 13.8192L9.6437 18.1992C9.4237 18.2892 9.2237 18.3592 8.9437 18.3592Z" /></svg>