
<svg
    viewBox="0 0 27.890625 27.890625"
    xmlns="http://www.w3.org/2000/svg"
>
    <path
        fill="inherit"
        d="M13.9427 27.8864C21.6427 27.8864 27.8927 21.6464 27.8927 13.9464C27.8927 6.2464 21.6427 -0.0036 13.9427 -0.0036C6.2527 -0.0036 0.0027 6.2464 0.0027 13.9464C0.0027 21.6464 6.2527 27.8864 13.9427 27.8864ZM13.9427 25.5664C7.5227 25.5664 2.3227 20.3664 2.3227 13.9464C2.3227 7.5164 7.5227 2.3264 13.9427 2.3264C20.3727 2.3264 25.5627 7.5164 25.5627 13.9464C25.5627 20.3664 20.3727 25.5664 13.9427 25.5664ZM10.5427 16.4864C10.6927 16.4864 10.8527 16.4464 11.1727 16.3064L17.9527 13.2764C18.6027 13.0064 18.8427 12.5764 18.8427 11.9864C18.8427 11.4564 18.5927 11.0064 17.9527 10.7064L11.1727 7.6864C10.8527 7.5464 10.6927 7.5164 10.5427 7.5164C9.9427 7.5164 9.5327 7.9864 9.5327 8.4864C9.5327 8.8864 9.7627 9.2564 10.1627 9.4464L15.8827 11.9764V12.0164L10.1627 14.5564C9.7627 14.7264 9.5327 15.0964 9.5327 15.5064C9.5327 16.0064 9.9427 16.4864 10.5427 16.4864ZM18.9927 19.5764C18.9927 19.0464 18.5427 18.5964 17.9827 18.5964H10.0727C9.5127 18.5964 9.0827 19.0464 9.0827 19.5764C9.0827 20.0864 9.5127 20.5764 10.0727 20.5764H17.9827C18.5427 20.5764 18.9927 20.0864 18.9927 19.5764Z"
        fillRule="evenodd"
        clipRule="evenodd"
    />
</svg>
        