
<svg
    viewBox={0 0 25.169921875 25.169921875}
    xmlns="http://www.w3.org/2000/svg"
>
    <path
        fill="inherit"
        d="M4.2937 25.1692H20.8737C23.7437 25.1692 25.1737 23.7592 25.1737 20.9492V4.2392C25.1737 1.4192 23.7437 -0.0008 20.8737 -0.0008H4.2937C1.4337 -0.0008 0.0037 1.4192 0.0037 4.2392V20.9492C0.0037 23.7592 1.4337 25.1692 4.2937 25.1692ZM9.1037 15.1992C8.4737 15.1992 8.0437 14.6992 8.0437 14.1792C8.0437 13.7492 8.2837 13.3692 8.6937 13.2092L14.5837 10.5792V10.5392L8.6937 7.9392C8.2837 7.7392 8.0437 7.3592 8.0437 6.9492C8.0437 6.4292 8.4737 5.9492 9.1037 5.9492C9.2537 5.9492 9.4237 5.9792 9.7437 6.1092L16.7337 9.2292C17.4037 9.5392 17.6537 10.0092 17.6537 10.5592C17.6537 11.1692 17.4137 11.6092 16.7337 11.8992L9.7437 15.0092C9.4237 15.1592 9.2537 15.1992 9.1037 15.1992ZM17.8137 18.3892C17.8137 18.9092 17.3537 19.4092 16.7637 19.4092H8.6137C8.0237 19.4092 7.5737 18.9092 7.5737 18.3892C7.5737 17.8292 8.0237 17.3592 8.6137 17.3592H16.7637C17.3537 17.3592 17.8137 17.8292 17.8137 18.3892Z"
        fillRule="evenodd"
        clipRule="evenodd"
    />
</svg>
        