
<svg
    viewBox={0 0 26.44140625 25.908203125}
    xmlns="http://www.w3.org/2000/svg"
>
    <path
        fill="inherit"
        d="M1.0937 18.8994H7.1337V24.8294C7.1337 25.4994 7.5237 25.9094 8.1737 25.9094C8.8037 25.9094 9.2037 25.4994 9.2037 24.8294V18.8994H17.1537V24.8294C17.1537 25.4994 17.5437 25.9094 18.1937 25.9094C18.8237 25.9094 19.2237 25.4994 19.2237 24.8294V18.8994H25.3437C26.0337 18.8994 26.4437 18.4994 26.4437 17.8594C26.4437 17.2094 26.0337 16.8294 25.3437 16.8294H19.2237V9.1294H25.3437C26.0337 9.1294 26.4437 8.7394 26.4437 8.1094C26.4437 7.4694 26.0337 7.0694 25.3437 7.0694H19.2237V1.0894C19.2237 0.4194 18.8237 -0.0006 18.1937 -0.0006C17.5437 -0.0006 17.1537 0.4194 17.1537 1.0894V7.0694H9.2037V1.0894C9.2037 0.4194 8.8037 -0.0006 8.1737 -0.0006C7.5237 -0.0006 7.1337 0.4194 7.1337 1.0894V7.0694H1.0937C0.4137 7.0694 0.0037 7.4694 0.0037 8.1094C0.0037 8.7394 0.4137 9.1294 1.0937 9.1294H7.1337V16.8294H1.0937C0.4137 16.8294 0.0037 17.2094 0.0037 17.8594C0.0037 18.4994 0.4137 18.8994 1.0937 18.8994ZM9.2037 16.8294V9.1294H17.1537V16.8294Z"
        fillRule="evenodd"
        clipRule="evenodd"
    />
</svg>
        