<svg viewBox="0 0 27.890625 27.890625" xmlns="http://www.w3.org/2000/svg"><path d="M13.9427 27.8864C21.6427 27.8864 27.8927 21.6264 27.8927 13.9464C27.8927 6.2464 21.6427 -0.0036 13.9427 -0.0036C6.2627 -0.0036 0.0027 6.2464 0.0027 13.9464C0.0027 21.6264 6.2627 27.8864 13.9427 27.8864ZM5.8827 16.7164C5.8827 16.1364 6.2727 15.7464 6.9327 15.7464H10.1427V12.1364H6.9327C6.2727 12.1364 5.8827 11.7564 5.8827 11.1564C5.8827 10.5264 6.2727 10.1564 6.9327 10.1564H10.1427V6.9464C10.1427 6.2764 10.5227 5.8964 11.1527 5.8964C11.7427 5.8964 12.1227 6.2764 12.1227 6.9464V10.1564H15.7627V6.9464C15.7627 6.2764 16.1327 5.8964 16.7527 5.8964C17.3627 5.8964 17.7427 6.2764 17.7427 6.9464V10.1564H20.9627C21.6127 10.1564 22.0127 10.5264 22.0127 11.1564C22.0127 11.7564 21.6127 12.1364 20.9627 12.1364H17.7427V15.7464H20.9627C21.6127 15.7464 22.0127 16.1364 22.0127 16.7164C22.0127 17.3464 21.6127 17.7364 20.9627 17.7364H17.7427V20.9464C17.7427 21.6164 17.3627 21.9964 16.7527 21.9964C16.1327 21.9964 15.7627 21.6164 15.7627 20.9464V17.7364H12.1227V20.9464C12.1227 21.6164 11.7427 21.9964 11.1527 21.9964C10.5227 21.9964 10.1427 21.6164 10.1427 20.9464V17.7364H6.9327C6.2727 17.7364 5.8827 17.3464 5.8827 16.7164ZM12.1227 15.7464H15.7627V12.1364H12.1227Z" /></svg>