
<svg
    viewBox="0 0 27.890625 27.890625"
    xmlns="http://www.w3.org/2000/svg"
>
    <path
        fill="inherit"
        d="M13.9427 27.8864C21.6427 27.8864 27.8927 21.6464 27.8927 13.9464C27.8927 6.2464 21.6427 -0.0036 13.9427 -0.0036C6.2527 -0.0036 0.0027 6.2464 0.0027 13.9464C0.0027 21.6464 6.2527 27.8864 13.9427 27.8864ZM13.9427 25.5664C7.5227 25.5664 2.3227 20.3664 2.3227 13.9464C2.3227 7.5164 7.5227 2.3264 13.9427 2.3264C20.3727 2.3264 25.5627 7.5164 25.5627 13.9464C25.5627 20.3664 20.3727 25.5664 13.9427 25.5664ZM6.1127 16.6264C6.1127 17.2364 6.4927 17.5964 7.1227 17.5964H10.2527V20.7364C10.2527 21.3664 10.6227 21.7364 11.2227 21.7364C11.8027 21.7364 12.1727 21.3664 12.1727 20.7364V17.5964H15.6927V20.7364C15.6927 21.3664 16.0527 21.7364 16.6527 21.7364C17.2427 21.7364 17.6127 21.3664 17.6127 20.7364V17.5964H20.7427C21.3727 17.5964 21.7527 17.2364 21.7527 16.6264C21.7527 16.0464 21.3727 15.6864 20.7427 15.6864H17.6127V12.1964H20.7427C21.3727 12.1964 21.7527 11.8164 21.7527 11.2364C21.7527 10.6364 21.3727 10.2764 20.7427 10.2764H17.6127V7.1364C17.6127 6.4964 17.2427 6.1264 16.6527 6.1264C16.0527 6.1264 15.6927 6.4964 15.6927 7.1364V10.2764H12.1727V7.1364C12.1727 6.4964 11.8027 6.1264 11.2227 6.1264C10.6227 6.1264 10.2527 6.4964 10.2527 7.1364V10.2764H7.1227C6.4927 10.2764 6.1127 10.6364 6.1127 11.2364C6.1127 11.8164 6.4927 12.1964 7.1227 12.1964H10.2527V15.6864H7.1227C6.4927 15.6864 6.1127 16.0464 6.1127 16.6264ZM12.1827 15.6864V12.1964H15.7127V15.6864Z"
        fillRule="evenodd"
        clipRule="evenodd"
    />
</svg>
        