
<svg
    viewBox="0 0 32.935546875 27.26189615322232"
    xmlns="http://www.w3.org/2000/svg"
>
    <path
        fill="inherit"
        d="M32.9327 16.3992C32.9327 7.7792 26.3227 0.7192 17.8927 -0.0008C17.4627 -0.0408 17.1327 0.2792 17.1327 0.7192V5.1892C17.1327 5.5592 17.3927 5.8392 17.7627 5.8692C22.9927 6.5092 27.0727 10.9792 27.0727 16.3992C27.0727 18.8592 26.2227 21.1292 24.7327 23.0292C24.5427 23.2592 24.5527 23.5592 24.7627 23.7792L28.0227 27.0292C28.3327 27.3292 28.7927 27.3292 29.0627 27.0092C31.4827 24.1392 32.9327 20.4292 32.9327 16.3992ZM0.0027 16.3992C0.0027 20.4392 1.4527 24.1492 3.8727 27.0192C4.1427 27.3492 4.5927 27.3292 4.9127 27.0292L8.1727 23.7792C8.3827 23.5592 8.3927 23.2592 8.2027 23.0292C6.7027 21.1292 5.8627 18.8592 5.8627 16.3992C5.8627 10.9792 9.9427 6.5092 15.1727 5.8692C15.5427 5.8392 15.8027 5.5592 15.8027 5.1892V0.7192C15.8027 0.2792 15.4727 -0.0408 15.0427 -0.0008C6.6127 0.7192 0.0027 7.7792 0.0027 16.3992ZM16.4727 24.1992C16.7327 24.1992 16.9227 24.0092 16.9227 23.7492V22.6192C19.7127 22.4492 21.3427 20.6592 21.3427 17.6792V17.0892C21.3427 16.5692 21.0127 16.2592 20.5327 16.2592H16.9227V11.8292C18.1727 11.9792 19.2527 12.7292 19.6027 13.8792C19.7727 14.2892 19.9427 14.4692 20.3827 14.4692C20.8127 14.4692 21.0927 14.1992 21.0927 13.7692C21.0927 13.5892 21.0827 13.3792 20.9727 13.1292C20.3527 11.4792 18.6327 10.5592 16.9227 10.4192V9.3092C16.9227 9.0292 16.7327 8.8492 16.4727 8.8492C16.1827 8.8492 16.0127 9.0292 16.0127 9.3092V10.4392C12.8527 10.6792 11.1827 13.2492 11.1827 16.5092C11.1827 19.8692 12.9327 22.3392 16.0127 22.5992V23.7492C16.0127 24.0092 16.1827 24.1992 16.4727 24.1992ZM12.8527 16.4892C12.8527 14.2492 13.8127 12.1292 16.0127 11.8392V21.1792C13.8927 20.8892 12.8527 18.8692 12.8527 16.4892ZM19.7727 17.5592V18.0392C19.7727 19.8092 18.7427 21.0592 16.9227 21.2092V17.5592Z"
        fillRule="evenodd"
        clipRule="evenodd"
    />
</svg>
        