<svg viewBox="0 0 20.083984375 30.6796875" xmlns="http://www.w3.org/2000/svg"><path d="M10.4837 30.6773C11.0237 30.6773 11.3937 30.2973 11.3937 29.7673V27.5073C17.1537 27.1973 20.0837 23.4173 20.0837 17.6673V16.3373C20.0837 15.3673 19.4737 14.9073 18.7037 14.9073H11.3937V5.5673C14.0537 5.8373 16.3937 7.4873 17.0737 9.9673C17.3337 10.7173 17.6537 11.0873 18.4437 11.0873C19.1837 11.0873 19.6837 10.5973 19.6837 9.8573C19.6837 9.4573 19.6037 9.0473 19.4737 8.6573C18.2137 5.2473 14.9137 3.3173 11.3937 3.0773V0.9073C11.3937 0.3673 11.0237 -0.0027 10.4837 -0.0027C9.9537 -0.0027 9.5737 0.3673 9.5737 0.9073V3.0873C3.3937 3.5973 0.0037 8.6573 0.0037 15.2473C0.0037 21.9073 3.3537 26.9873 9.5737 27.4773V29.7673C9.5737 30.2973 9.9537 30.6773 10.4837 30.6773ZM2.8537 15.2473C2.8537 10.3073 5.1237 6.1373 9.5737 5.5773V25.0073C5.0837 24.4473 2.8537 20.2373 2.8537 15.2473ZM17.4037 17.2573V18.2773C17.4037 21.9473 15.2737 24.7173 11.3937 25.0373V17.2573Z" /></svg>