<svg viewBox="0 0 30.5703125 30.5703125" xmlns="http://www.w3.org/2000/svg"><path d="M15.2827 30.5663C23.6827 30.5663 30.5727 23.6763 30.5727 15.2863C30.5727 6.8863 23.6827 -0.0038 15.2827 -0.0038C6.8927 -0.0038 0.0027 6.8863 0.0027 15.2863C0.0027 23.6763 6.8927 30.5663 15.2827 30.5663ZM15.2827 25.4862C9.6527 25.4862 5.0827 20.9162 5.0827 15.2863C5.0827 9.6363 9.6527 5.0863 15.2827 5.0863C20.9327 5.0863 25.4827 9.6363 25.4827 15.2863C25.4827 20.9162 20.9327 25.4862 15.2827 25.4862ZM15.3127 22.9162C15.5727 22.9162 15.7627 22.7263 15.7627 22.4463V21.3163C18.5527 21.1662 20.1627 19.3763 20.1627 16.3963V15.8063C20.1627 15.2863 19.8527 14.9563 19.3727 14.9563H15.7627V10.5363C16.9927 10.6763 18.0927 11.4263 18.4427 12.5763C18.6027 12.9863 18.7827 13.1763 19.2227 13.1763C19.6427 13.1763 19.9327 12.8963 19.9327 12.4663C19.9327 12.3063 19.9227 12.0763 19.8127 11.8363C19.1927 10.1763 17.4727 9.2563 15.7627 9.1363V8.0263C15.7627 7.7362 15.5727 7.5463 15.3127 7.5463C15.0227 7.5463 14.8327 7.7362 14.8327 8.0263V9.1363C11.6927 9.3963 10.0127 11.9663 10.0127 15.2163C10.0127 18.5763 11.7727 21.0563 14.8327 21.3163V22.4463C14.8327 22.7263 15.0227 22.9162 15.3127 22.9162ZM11.6927 15.2063C11.6927 12.9462 12.6427 10.8463 14.8327 10.5563V19.8963C12.7327 19.5963 11.6927 17.5663 11.6927 15.2063ZM18.6027 16.2663V16.7362C18.6027 18.5263 17.5827 19.7563 15.7627 19.9063V16.2663Z" /></svg>