
<svg
    viewBox={0 0 25.169921875 25.169921875}
    xmlns="http://www.w3.org/2000/svg"
>
    <path
        fill="inherit"
        d="M4.2937 25.1692H20.8737C23.7437 25.1692 25.1737 23.7592 25.1737 20.9492V4.2392C25.1737 1.4192 23.7437 -0.0008 20.8737 -0.0008H4.2937C1.4337 -0.0008 0.0037 1.4192 0.0037 4.2392V20.9492C0.0037 23.7592 1.4337 25.1692 4.2937 25.1692ZM12.6337 20.4492C12.3337 20.4492 12.1237 20.2492 12.1237 19.9792V18.7992C8.9737 18.5392 7.1537 15.9792 7.1537 12.5092C7.1537 9.1492 8.8837 6.4892 12.1237 6.2392V5.0892C12.1237 4.7992 12.3337 4.5892 12.6337 4.5892C12.8937 4.5892 13.0937 4.7992 13.0937 5.0892V6.2392C14.8637 6.3692 16.6237 7.3192 17.2637 9.0192C17.3737 9.2692 17.3937 9.4992 17.3937 9.6792C17.3937 10.1192 17.1037 10.4092 16.6637 10.4092C16.2037 10.4092 16.0237 10.2092 15.8437 9.7892C15.4937 8.6092 14.3837 7.8292 13.0937 7.6792V12.2392H16.8137C17.3037 12.2392 17.6337 12.5792 17.6337 13.1092V13.7292C17.6337 16.7992 15.9737 18.6492 13.0937 18.8092V19.9792C13.0937 20.2492 12.8937 20.4492 12.6337 20.4492ZM8.8837 12.4992C8.8837 14.9392 9.9637 17.0092 12.1237 17.3192V7.7092C9.8837 7.9992 8.8837 10.1892 8.8837 12.4992ZM13.0937 17.3392C14.9537 17.1992 16.0237 15.9092 16.0237 14.0792V13.5992H13.0937Z"
        fillRule="evenodd"
        clipRule="evenodd"
    />
</svg>
        