<svg viewBox="0 0 30.544813437289534 27.890625" xmlns="http://www.w3.org/2000/svg"><path d="M0.9769 11.3064C-0.0131 11.3064 -0.2531 11.9764 0.2769 12.7464L3.3369 17.0864C3.7869 17.7164 4.4469 17.7064 4.8869 17.0864L7.9269 12.7264C8.4669 11.9764 8.2069 11.3064 7.2469 11.3064H5.2769C6.4669 6.1564 11.0769 2.3264 16.5969 2.3264C23.0269 2.3264 28.2169 7.5164 28.2169 13.9464C28.2169 20.3664 23.0269 25.5664 16.5969 25.5664C12.7169 25.5664 9.2569 23.6564 7.1969 20.7564C6.7669 20.1964 6.1269 20.0164 5.5569 20.3564C5.0069 20.6964 4.8369 21.4664 5.3069 22.0664C7.8369 25.6064 11.9769 27.8864 16.5969 27.8864C24.2969 27.8864 30.5469 21.6464 30.5469 13.9464C30.5469 6.2464 24.2969 -0.0036 16.5969 -0.0036C9.8069 -0.0036 4.1269 4.8664 2.8969 11.3064ZM16.6169 21.5764C16.8869 21.5764 17.0769 21.3864 17.0769 21.1064V19.9764C19.8669 19.8264 21.4769 18.0364 21.4769 15.0564V14.4664C21.4769 13.9464 21.1669 13.6164 20.6869 13.6164H17.0769V9.1964C18.3069 9.3364 19.4069 10.0864 19.7569 11.2364C19.9069 11.6464 20.0969 11.8364 20.5369 11.8364C20.9569 11.8364 21.2469 11.5564 21.2469 11.1264C21.2469 10.9664 21.2369 10.7364 21.1269 10.4964C20.5069 8.8364 18.7869 7.9164 17.0769 7.7964V6.6864C17.0769 6.3964 16.8869 6.2064 16.6169 6.2064C16.3369 6.2064 16.1469 6.3964 16.1469 6.6864V7.7964C13.0069 8.0564 11.3269 10.6264 11.3269 13.8764C11.3269 17.2364 13.0869 19.7164 16.1469 19.9764V21.1064C16.1469 21.3864 16.3369 21.5764 16.6169 21.5764ZM13.0069 13.8664C13.0069 11.6064 13.9569 9.5064 16.1469 9.2164V18.5564C14.0469 18.2564 13.0069 16.2264 13.0069 13.8664ZM19.9169 14.9264V15.3964C19.9169 17.1864 18.8969 18.4164 17.0769 18.5664V14.9264Z" /></svg>