<svg viewBox="0 0 32.935546875 27.33018496744969" xmlns="http://www.w3.org/2000/svg"><path d="M16.4627 5.864C18.9327 5.864 21.2027 6.724 23.0227 8.134C23.2927 8.354 23.6527 8.324 23.9127 8.064L27.0827 4.894C27.4027 4.584 27.3827 4.124 27.0527 3.854C24.2027 1.454 20.4927 0.004 16.4627 0.004C12.4427 0.004 8.7327 1.454 5.8827 3.854C5.5527 4.124 5.5327 4.584 5.8527 4.894L9.0227 8.064C9.2827 8.324 9.6527 8.354 9.9527 8.124C11.7627 6.724 14.0127 5.864 16.4627 5.864ZM0.0027 16.464C0.0027 20.494 1.4527 24.204 3.8727 27.074C4.1427 27.414 4.6027 27.414 4.9127 27.094L8.1627 23.844C8.3627 23.624 8.3927 23.324 8.2027 23.094C6.7127 21.194 5.8627 18.924 5.8627 16.464C5.8627 14.014 6.7027 11.744 8.1227 9.944C8.3427 9.654 8.3427 9.284 8.0827 9.024L4.9127 5.854C4.5927 5.534 4.1427 5.534 3.8727 5.864C1.4527 8.734 0.0027 12.444 0.0027 16.464ZM32.9327 16.464C32.9327 12.444 31.4827 8.734 29.0627 5.864C28.7927 5.534 28.3327 5.534 28.0227 5.854L24.8527 9.024C24.5927 9.284 24.5827 9.654 24.8127 9.944C26.2227 11.744 27.0727 14.014 27.0727 16.464C27.0727 18.924 26.2227 21.194 24.7327 23.094C24.5427 23.324 24.5527 23.624 24.7627 23.844L28.0127 27.094C28.3327 27.414 28.7827 27.414 29.0627 27.074C31.4827 24.204 32.9327 20.494 32.9327 16.464ZM16.4727 24.264C16.7327 24.264 16.9227 24.074 16.9227 23.814V22.684C19.7127 22.514 21.3427 20.724 21.3427 17.744V17.154C21.3427 16.634 21.0127 16.324 20.5327 16.324H16.9227V11.894C18.1727 12.044 19.2527 12.794 19.6027 13.944C19.7727 14.354 19.9427 14.534 20.3827 14.534C20.8127 14.534 21.0927 14.264 21.0927 13.834C21.0927 13.654 21.0827 13.444 20.9727 13.194C20.3527 11.544 18.6327 10.624 16.9227 10.484V9.374C16.9227 9.094 16.7327 8.914 16.4727 8.914C16.1827 8.914 16.0127 9.094 16.0127 9.374V10.504C12.8527 10.744 11.1827 13.314 11.1827 16.574C11.1827 19.934 12.9327 22.404 16.0127 22.664V23.814C16.0127 24.074 16.1827 24.264 16.4727 24.264ZM12.8527 16.554C12.8527 14.314 13.8127 12.194 16.0127 11.904V21.244C13.8927 20.954 12.8527 18.934 12.8527 16.554ZM19.7727 17.624V18.104C19.7727 19.874 18.7427 21.124 16.9227 21.274V17.624Z" /></svg>