
<svg
    viewBox={0 0 30.529296875 29.17578125}
    xmlns="http://www.w3.org/2000/svg"
>
    <path
        fill="inherit"
        d="M1.0937 29.179H29.4237C30.0237 29.179 30.5337 28.669 30.5337 28.069C30.5337 27.469 30.0237 26.979 29.4237 26.979H28.7137V25.979C28.7137 25.429 28.3937 25.099 27.8337 25.099H26.9637V9.379H28.1637C28.9137 9.379 29.3537 8.829 29.3537 8.269C29.3537 7.859 29.1237 7.509 28.6137 7.219L16.9437 0.479C16.3937 0.169 15.8137 -0.001 15.2537 -0.001C14.6937 -0.001 14.1137 0.169 13.5937 0.479L1.9137 7.219C1.3937 7.509 1.1737 7.859 1.1737 8.269C1.1737 8.829 1.6137 9.379 2.3637 9.379H3.5637V25.099H2.7037C2.1437 25.099 1.8137 25.429 1.8137 25.979V26.979H1.0937C0.4937 26.979 0.0037 27.469 0.0037 28.069C0.0037 28.669 0.4937 29.179 1.0937 29.179ZM15.3037 23.479C15.0137 23.479 14.8037 23.269 14.8037 23.009V21.829C11.6437 21.579 9.8337 19.019 9.8337 15.529C9.8337 12.179 11.5637 9.519 14.8037 9.269V8.109C14.8037 7.829 15.0137 7.629 15.3037 7.629C15.5737 7.629 15.7737 7.829 15.7737 8.109V9.269C17.5437 9.409 19.3037 10.349 19.9437 12.059C20.0437 12.309 20.0737 12.539 20.0737 12.719C20.0737 13.149 19.7837 13.429 19.3437 13.429C18.8837 13.429 18.6937 13.249 18.5237 12.829C18.1737 11.649 17.0537 10.869 15.7737 10.719V15.269H19.4937C19.9837 15.269 20.3137 15.609 20.3137 16.129V16.759C20.3137 19.829 18.6437 21.669 15.7737 21.849V23.009C15.7737 23.269 15.5737 23.479 15.3037 23.479ZM11.5637 15.519C11.5637 17.969 12.6437 20.039 14.8037 20.359V10.729C12.5537 11.029 11.5637 13.219 11.5637 15.519ZM15.7737 20.369C17.6337 20.239 18.7037 18.939 18.7037 17.119V16.629H15.7737Z"
        fillRule="evenodd"
        clipRule="evenodd"
    />
</svg>
        