
<svg
    viewBox={0 0 27.890625 27.890625}
    xmlns="http://www.w3.org/2000/svg"
>
    <path
        fill="inherit"
        d="M13.9427 27.8864C21.6427 27.8864 27.8927 21.6464 27.8927 13.9464C27.8927 6.2464 21.6427 -0.0036 13.9427 -0.0036C6.2527 -0.0036 0.0027 6.2464 0.0027 13.9464C0.0027 21.6464 6.2527 27.8864 13.9427 27.8864ZM13.9427 25.5664C7.5227 25.5664 2.3227 20.3664 2.3227 13.9464C2.3227 7.5164 7.5227 2.3264 13.9427 2.3264C20.3727 2.3264 25.5627 7.5164 25.5627 13.9464C25.5627 20.3664 20.3727 25.5664 13.9427 25.5664ZM13.9427 21.5764C14.2227 21.5764 14.4127 21.3864 14.4127 21.1064V19.9764C17.2027 19.8264 18.8127 18.0364 18.8127 15.0564V14.4664C18.8127 13.9464 18.5027 13.6164 18.0227 13.6164H14.4127V9.1964C15.6427 9.3364 16.7327 10.0864 17.0927 11.2364C17.2427 11.6464 17.4327 11.8364 17.8727 11.8364C18.2927 11.8364 18.5827 11.5564 18.5827 11.1264C18.5827 10.9664 18.5627 10.7364 18.4527 10.4964C17.8427 8.8364 16.1227 7.9164 14.4127 7.7964V6.6864C14.4127 6.3964 14.2227 6.2064 13.9427 6.2064C13.6727 6.2064 13.4827 6.3964 13.4827 6.6864V7.7964C10.3327 8.0564 8.6527 10.6264 8.6527 13.8764C8.6527 17.2364 10.4227 19.7164 13.4827 19.9764V21.1064C13.4827 21.3864 13.6727 21.5764 13.9427 21.5764ZM10.3327 13.8664C10.3327 11.6064 11.2927 9.5064 13.4827 9.2164V18.5564C11.3727 18.2564 10.3327 16.2264 10.3327 13.8664ZM17.2527 14.9264V15.3964C17.2527 17.1864 16.2327 18.4164 14.4127 18.5664V14.9264Z"
        fillRule="evenodd"
        clipRule="evenodd"
    />
</svg>
        