
<svg
    viewBox={0 0 35.080714770729074 29.080078125}
    xmlns="http://www.w3.org/2000/svg"
>
    <path
        fill="inherit"
        d="M0.2024 26.527C-0.2976 27.667 0.1224 29.037 1.6124 29.037C2.1424 29.037 2.5924 28.837 3.2924 28.257L7.0424 25.127C7.1924 25.007 7.2724 24.967 7.3424 24.967C7.4124 24.967 7.4924 25.007 7.6424 25.127L11.3924 28.257C12.0824 28.837 12.5324 29.037 13.0724 29.037C14.5624 29.037 14.9824 27.667 14.4724 26.527L8.4524 12.897V6.547C8.4524 3.427 8.9724 1.107 8.9724 0.667C8.9724 0.257 8.7224 -0.003 8.3224 -0.003C8.0624 -0.003 7.8324 0.147 7.4924 0.517L4.4824 3.977C4.2124 4.297 4.2824 4.677 4.6324 4.867C5.8324 5.387 6.2624 5.577 6.2624 6.547V12.847ZM12.7524 20.867L13.7224 23.027C13.9124 20.927 15.3424 20.137 15.3424 18.757C15.3424 17.347 14.4124 16.527 14.4124 15.437C14.4124 15.297 14.4924 15.217 14.5824 15.217C15.2024 15.217 15.5324 16.867 16.8824 16.867C17.5124 16.867 17.9724 16.497 18.1824 15.807H18.2924C18.5124 16.517 18.9924 16.867 19.6024 16.867C20.9424 16.867 21.2724 15.217 21.8724 15.217C21.9824 15.217 22.0824 15.317 22.0824 15.437C22.0824 16.527 21.1324 17.347 21.1324 18.757C21.1324 20.257 22.8124 21.087 22.8124 23.597C22.8124 26.047 21.0924 27.507 18.2324 27.507C17.1324 27.507 16.1724 27.287 15.3124 26.867C15.4524 27.507 15.4324 27.987 15.2024 28.497C16.1724 28.877 17.1824 29.077 18.2324 29.077C21.9324 29.077 24.3724 26.897 24.3724 23.597C24.3724 20.877 22.6824 19.617 22.6824 18.747C22.6824 17.687 23.6124 16.827 23.6124 15.447C23.6124 14.437 22.9424 13.717 21.9924 13.717C21.1324 13.717 20.6024 14.207 20.2724 14.737C20.0424 15.117 19.8124 15.377 19.6424 15.377C19.3824 15.377 19.3024 14.917 19.3124 14.277L19.3324 5.917C19.3324 5.527 19.3324 5.497 19.5324 5.427C19.8624 5.337 19.9624 5.157 20.0024 4.727L20.2924 1.937C20.3024 1.677 20.1924 1.437 19.9824 1.247L18.8124 0.217C18.6624 0.087 18.4524 -0.003 18.2324 -0.003C18.0224 -0.003 17.8124 0.087 17.6524 0.217L16.4824 1.247C16.2824 1.417 16.1724 1.697 16.1824 1.937L16.4624 4.727C16.5024 5.137 16.6224 5.337 16.9424 5.427C17.1124 5.467 17.1424 5.537 17.1424 5.917L17.1724 14.277C17.1824 14.877 17.0924 15.377 16.8424 15.377C16.6624 15.377 16.4424 15.077 16.2024 14.737C15.8324 14.247 15.3424 13.717 14.4924 13.717C13.5324 13.717 12.8624 14.427 12.8624 15.447C12.8624 16.827 13.7924 17.687 13.7924 18.747C13.7924 19.247 13.2324 19.877 12.7524 20.867ZM28.9524 28.997C32.7024 28.997 35.0824 27.217 35.0824 24.407C35.0824 21.587 33.2324 20.887 33.2324 19.697C33.2324 18.787 33.6424 17.947 33.6424 16.817C33.6424 14.947 32.3324 13.757 30.0324 13.477V5.417C30.0324 4.867 30.1024 4.717 30.4224 4.497C30.7024 4.317 30.8024 4.157 30.7924 3.897L30.5824 0.517C30.5724 0.217 30.3524 -0.003 30.0624 -0.003H27.8224C27.5624 -0.003 27.3424 0.217 27.3124 0.517L27.1124 3.897C27.0924 4.157 27.2024 4.317 27.4824 4.497C27.7924 4.727 27.8624 4.877 27.8624 5.417V13.477C25.5824 13.757 24.2524 14.947 24.2524 16.817C24.2524 17.947 24.6624 18.787 24.6624 19.697C24.6624 19.897 24.6124 20.137 24.4024 20.537C24.6724 21.127 24.8424 21.667 24.9624 22.227C25.5524 21.497 26.2224 20.657 26.2224 19.677C26.2224 18.717 25.8024 17.707 25.8024 16.817C25.8024 15.397 27.0524 14.917 28.9524 14.917C30.8124 14.917 32.1024 15.367 32.1024 16.817C32.1024 17.707 31.6724 18.717 31.6724 19.677C31.6724 21.337 33.5224 22.207 33.5224 24.407C33.5224 26.307 31.8224 27.457 28.9524 27.457C26.9324 27.457 25.4524 26.897 24.7224 25.827C24.5024 26.427 24.2624 26.847 23.9524 27.287C25.0624 28.407 26.8124 28.997 28.9524 28.997ZM1.6124 27.067L7.2624 14.187H7.4224L13.0724 27.067C13.2224 27.417 12.9324 27.587 12.6824 27.367L8.4724 23.857C8.0424 23.497 7.6724 23.327 7.3424 23.327C7.0124 23.327 6.6524 23.497 6.2024 23.857L1.9924 27.367C1.7524 27.587 1.4724 27.417 1.6124 27.067ZM28.9524 20.777C29.7624 20.777 30.4324 20.107 30.4324 19.307C30.4324 18.487 29.7624 17.817 28.9524 17.817C28.1324 17.817 27.4524 18.487 27.4524 19.307C27.4524 20.107 28.1224 20.777 28.9524 20.777ZM15.5324 23.367C15.8124 23.477 16.1324 23.327 16.2424 23.037L17.3724 19.917C17.4724 19.637 17.3224 19.307 17.0524 19.207C16.7624 19.097 16.4324 19.247 16.3224 19.537L15.1924 22.667C15.0924 22.937 15.2424 23.267 15.5324 23.367ZM20.9424 23.367C21.2324 23.267 21.3824 22.937 21.2724 22.667L20.1424 19.537C20.0324 19.247 19.7124 19.097 19.4224 19.207C19.1524 19.307 19.0024 19.637 19.1024 19.917L20.2324 23.037C20.3424 23.327 20.6524 23.477 20.9424 23.367ZM8.7724 20.827C9.1324 20.827 9.4324 20.537 9.4324 20.177C9.4324 19.807 9.1424 19.497 8.7724 19.497C8.4224 19.497 8.1224 19.827 8.1224 20.177C8.1224 20.517 8.4224 20.827 8.7724 20.827ZM9.5024 22.547C9.8524 22.547 10.1724 22.247 10.1724 21.887C10.1724 21.517 9.8524 21.217 9.5024 21.217C9.1424 21.217 8.8324 21.537 8.8324 21.887C8.8324 22.247 9.1424 22.547 9.5024 22.547ZM10.2024 24.257C10.5624 24.257 10.8824 23.937 10.8824 23.597C10.8824 23.247 10.5824 22.927 10.2024 22.927C9.8724 22.927 9.5724 23.247 9.5724 23.597C9.5724 23.957 9.8424 24.257 10.2024 24.257ZM27.2024 24.647H30.6824C31.0024 24.647 31.2624 24.387 31.2624 24.067C31.2624 23.717 31.0024 23.447 30.6824 23.447H27.2024C26.8824 23.447 26.6024 23.737 26.6024 24.067C26.6024 24.387 26.8624 24.647 27.2024 24.647Z"
        fillRule="evenodd"
        clipRule="evenodd"
    />
</svg>
        