<svg viewBox="0 0 34.9413245641716 28.970703125" xmlns="http://www.w3.org/2000/svg"><path d="M0.1997 26.4923C-0.2903 27.6123 0.1097 28.9323 1.5497 28.9323C2.0997 28.9323 2.5397 28.7023 3.1997 28.1623L6.9397 25.0323C7.0897 24.9123 7.1897 24.8523 7.2797 24.8523C7.3797 24.8523 7.4697 24.9123 7.6297 25.0323L11.3697 28.1623C12.0097 28.7023 12.4697 28.9323 13.0097 28.9323C14.4597 28.9323 14.8597 27.6123 14.3697 26.4923L8.3197 12.8423V6.4923C8.3197 3.3723 8.8397 1.0523 8.8397 0.6123C8.8397 0.2323 8.5997 0.0023 8.2397 0.0023C8.0097 0.0023 7.7897 0.1523 7.4597 0.5023L4.4497 3.9623C4.2097 4.2523 4.2597 4.5923 4.5797 4.7623C5.7897 5.2823 6.2297 5.4823 6.2297 6.4923V12.8223ZM18.1697 28.9723C21.8197 28.9723 24.2497 26.8123 24.2497 23.5423C24.2497 20.8323 22.5497 19.5923 22.5497 18.6923C22.5497 17.6223 23.4797 16.7623 23.4797 15.3923C23.4797 14.4123 22.8397 13.7123 21.9297 13.7123C21.0897 13.7123 20.5997 14.2223 20.2397 14.7123C19.9697 15.0923 19.7697 15.3823 19.5697 15.3823C19.2297 15.3823 19.1797 14.7423 19.1797 14.2623L19.1897 5.8623C19.1897 5.4523 19.2197 5.4023 19.4497 5.3223C19.7697 5.2223 19.8497 5.0623 19.8797 4.6723L20.1497 1.8823C20.1797 1.6423 20.0697 1.4123 19.8797 1.2323L18.6997 0.2023C18.5397 0.0523 18.3297 0.0023 18.1697 0.0023C17.9897 0.0023 17.7997 0.0523 17.6197 0.2023L16.4397 1.2323C16.2697 1.3923 16.1597 1.6423 16.1697 1.8823L16.4397 4.6723C16.4797 5.0723 16.5897 5.2323 16.8797 5.3223C17.0897 5.3723 17.1297 5.4523 17.1297 5.8623L17.1497 14.2423C17.1497 14.8623 17.0597 15.3823 16.7697 15.3823C16.5697 15.3823 16.3797 15.0623 16.0697 14.7123C15.7297 14.2223 15.2397 13.7123 14.4197 13.7123C13.4897 13.7123 12.8497 14.4123 12.8497 15.3923C12.8497 16.7623 13.7597 17.6223 13.7597 18.6923C13.7597 19.2123 13.2197 19.8423 12.7397 20.7923L14.8197 25.5023C15.2297 26.4123 15.3797 26.9323 15.3797 27.5323C15.3797 27.8523 15.3197 28.1523 15.2097 28.4123C16.0997 28.7623 17.0997 28.9723 18.1697 28.9723ZM28.8897 28.8923C32.5897 28.8923 34.9397 27.1423 34.9397 24.3523C34.9397 21.5623 33.1097 20.8623 33.1097 19.6423C33.1097 18.7123 33.5197 17.8923 33.5197 16.7623C33.5197 14.9123 32.1897 13.7423 29.9097 13.4623V5.3623C29.9097 4.7823 29.9897 4.6223 30.3197 4.4023C30.5797 4.2223 30.6797 4.0723 30.6597 3.8423L30.4597 0.4623C30.4297 0.1923 30.2397 0.0023 29.9897 0.0023H27.7497C27.4997 0.0023 27.3097 0.1923 27.2997 0.4623L27.0897 3.8423C27.0797 4.0923 27.1797 4.2223 27.4397 4.4023C27.7597 4.6323 27.8497 4.8023 27.8497 5.3623V13.4623C25.5497 13.7423 24.2397 14.9123 24.2397 16.7623C24.2397 17.8923 24.6497 18.7123 24.6497 19.6423C24.6497 19.9323 24.5397 20.1923 24.3697 20.4523C24.7597 21.2723 25.0797 22.3123 25.0797 23.5423C25.0797 24.9623 24.6697 26.2123 23.9497 27.2023C24.9897 28.2823 26.6997 28.8923 28.8897 28.8923ZM28.8897 20.7723C28.0197 20.7723 27.3397 20.0823 27.3397 19.2523C27.3397 18.4023 28.0397 17.7223 28.8897 17.7223C29.7197 17.7223 30.3997 18.4023 30.3997 19.2523C30.3997 20.0823 29.7197 20.7723 28.8897 20.7723ZM15.1597 23.3123C14.8697 23.2123 14.7097 22.8723 14.7997 22.5823L15.9797 19.3623C16.0897 19.0623 16.4197 18.9123 16.7197 19.0223C16.9997 19.1123 17.1797 19.4523 17.0697 19.7523L15.8997 22.9723C15.7897 23.2723 15.4597 23.4223 15.1597 23.3123ZM21.1697 23.3123C20.8697 23.4223 20.5497 23.2723 20.4397 22.9723L19.2597 19.7523C19.1497 19.4523 19.3097 19.1123 19.5997 19.0223C19.8997 18.9123 20.2297 19.0623 20.3397 19.3623L21.5197 22.5823C21.6097 22.8723 21.4597 23.2123 21.1697 23.3123ZM8.9497 20.4623C8.5797 20.4623 8.2697 20.1523 8.2697 19.7923C8.2697 19.4323 8.5797 19.0823 8.9497 19.0823C9.3197 19.0823 9.6397 19.4123 9.6397 19.7923C9.6397 20.1623 9.3197 20.4623 8.9497 20.4623ZM9.6897 22.2423C9.3297 22.2423 9.0097 21.9323 9.0097 21.5623C9.0097 21.1923 9.3297 20.8623 9.6897 20.8623C10.0697 20.8623 10.3897 21.1823 10.3897 21.5623C10.3897 21.9323 10.0697 22.2423 9.6897 22.2423ZM10.4297 24.0123C10.0597 24.0123 9.7597 23.6923 9.7597 23.3223C9.7597 22.9523 10.0697 22.6223 10.4297 22.6223C10.8097 22.6223 11.1297 22.9523 11.1297 23.3223C11.1297 23.6823 10.7997 24.0123 10.4297 24.0123ZM27.0797 24.6223C26.7197 24.6223 26.4497 24.3523 26.4497 24.0123C26.4497 23.6623 26.7397 23.3623 27.0797 23.3623H30.6597C30.9997 23.3623 31.2797 23.6523 31.2797 24.0123C31.2797 24.3523 30.9997 24.6223 30.6597 24.6223Z" /></svg>