<svg viewBox="0 0 27.890625 27.890625" xmlns="http://www.w3.org/2000/svg"><path d="M13.9427 27.8864C21.6427 27.8864 27.8927 21.6464 27.8927 13.9464C27.8927 6.2464 21.6427 -0.0036 13.9427 -0.0036C6.2527 -0.0036 0.0027 6.2464 0.0027 13.9464C0.0027 21.6464 6.2527 27.8864 13.9427 27.8864ZM13.9427 25.5664C7.5227 25.5664 2.3227 20.3664 2.3227 13.9464C2.3227 7.5164 7.5227 2.3264 13.9427 2.3264C20.3727 2.3264 25.5627 7.5164 25.5627 13.9464C25.5627 20.3664 20.3727 25.5664 13.9427 25.5664ZM9.6127 20.2064C10.3227 20.2064 10.7227 19.7564 10.7227 18.9864V14.4764H17.1127V18.9864C17.1127 19.7464 17.5227 20.2064 18.1927 20.2064C18.9127 20.2064 19.3027 19.7564 19.3027 18.9864V8.6364C19.3027 7.8764 18.9127 7.4264 18.1927 7.4264C17.5227 7.4264 17.1127 7.8864 17.1127 8.6364V12.7664H10.7227V8.6364C10.7227 7.8764 10.3227 7.4264 9.6127 7.4264C8.9427 7.4264 8.5427 7.8864 8.5427 8.6364V18.9864C8.5427 19.7464 8.9427 20.2064 9.6127 20.2064Z" /></svg>