
<svg
    viewBox={0 0 27.890625 27.890625}
    xmlns="http://www.w3.org/2000/svg"
>
    <path
        fill="inherit"
        d="M13.9427 27.8864C21.6427 27.8864 27.8927 21.6264 27.8927 13.9464C27.8927 6.2464 21.6427 -0.0036 13.9427 -0.0036C6.2627 -0.0036 0.0027 6.2464 0.0027 13.9464C0.0027 21.6264 6.2627 27.8864 13.9427 27.8864ZM9.4927 20.4164C8.7927 20.4164 8.3827 19.9364 8.3827 19.1364V8.4864C8.3827 7.6964 8.7927 7.2164 9.4927 7.2164C10.2227 7.2164 10.6327 7.6864 10.6327 8.4864V12.7264H17.2227V8.4864C17.2227 7.6964 17.6527 7.2164 18.3427 7.2164C19.0827 7.2164 19.4927 7.6864 19.4927 8.4864V19.1364C19.4927 19.9464 19.0827 20.4164 18.3427 20.4164C17.6527 20.4164 17.2227 19.9364 17.2227 19.1364V14.5064H10.6327V19.1364C10.6327 19.9464 10.2227 20.4164 9.4927 20.4164Z"
        fillRule="evenodd"
        clipRule="evenodd"
    />
</svg>
        