
<svg
    viewBox={0 0 28.9296875 28.62890625}
    xmlns="http://www.w3.org/2000/svg"
>
    <path
        fill="inherit"
        d="M4.2937 22.3019H6.6337V24.3919C6.6337 27.2119 8.0637 28.6319 10.9237 28.6319H24.6537C27.5037 28.6319 28.9337 27.2219 28.9337 24.3919V10.5519C28.9337 7.7419 27.5037 6.3319 24.6537 6.3319H22.3037V4.2419C22.3037 1.4119 20.8737 0.0019 18.0237 0.0019H4.2937C1.4337 0.0019 0.0037 1.4219 0.0037 4.2419V18.0619C0.0037 20.8819 1.4337 22.3019 4.2937 22.3019ZM4.3237 20.1019C2.9837 20.1019 2.2037 19.3719 2.2037 17.9519V4.3519C2.2037 2.9219 2.9837 2.2019 4.3237 2.2019H17.9737C19.3437 2.2019 20.0937 2.9219 20.0937 4.3519V17.9519C20.0937 19.3719 19.3437 20.1019 17.9737 20.1019ZM6.8537 17.4019C7.5437 17.4019 7.9437 16.9619 7.9437 16.2019V11.6719H14.3437V16.2019C14.3437 16.9519 14.7537 17.4019 15.4237 17.4019C16.1337 17.4019 16.5337 16.9619 16.5337 16.2019V5.8519C16.5337 5.0719 16.1337 4.6319 15.4237 4.6319C14.7537 4.6319 14.3437 5.0819 14.3437 5.8519V9.9819H7.9437V5.8519C7.9437 5.0719 7.5437 4.6319 6.8537 4.6319C6.1637 4.6319 5.7737 5.0819 5.7737 5.8519V16.2019C5.7737 16.9519 6.1637 17.4019 6.8537 17.4019ZM10.9537 26.4319C9.6137 26.4319 8.8337 25.7019 8.8337 24.2819V22.3019H18.0237C20.8737 22.3019 22.3037 20.8919 22.3037 18.0619V8.5319H24.6137C25.9737 8.5319 26.7237 9.2519 26.7237 10.6819V24.2819C26.7237 25.7019 25.9737 26.4319 24.6137 26.4319Z"
        fillRule="evenodd"
        clipRule="evenodd"
    />
</svg>
        