<svg viewBox="0 0 25.169921875 25.169921875" xmlns="http://www.w3.org/2000/svg"><path d="M4.2937 25.1692H20.8737C23.7437 25.1692 25.1737 23.7592 25.1737 20.9492V4.2392C25.1737 1.4192 23.7437 -0.0008 20.8737 -0.0008H4.2937C1.4337 -0.0008 0.0037 1.4192 0.0037 4.2392V20.9492C0.0037 23.7592 1.4337 25.1692 4.2937 25.1692ZM8.1337 19.0492C7.4337 19.0492 7.0237 18.5692 7.0237 17.7692V7.1192C7.0237 6.3292 7.4337 5.8492 8.1337 5.8492C8.8737 5.8492 9.2837 6.3192 9.2837 7.1192V11.3592H15.8737V7.1192C15.8737 6.3292 16.2937 5.8492 16.9937 5.8492C17.7337 5.8492 18.1437 6.3192 18.1437 7.1192V17.7692C18.1437 18.5792 17.7337 19.0492 16.9937 19.0492C16.2937 19.0492 15.8737 18.5692 15.8737 17.7692V13.1392H9.2837V17.7692C9.2837 18.5792 8.8737 19.0492 8.1337 19.0492Z" /></svg>