
<svg
    viewBox={0 0 33.751729469845536 31.492817370749094}
    xmlns="http://www.w3.org/2000/svg"
>
    <path
        fill="inherit"
        d="M27.4386 18.8749C28.0286 19.4349 28.6986 19.4749 29.2586 18.9149L33.3786 14.8249C33.9086 14.2949 33.8686 13.5849 33.2986 13.0249L32.3086 12.0249C31.7786 11.5049 31.4386 11.4249 30.8586 11.4649L29.2586 11.6549L28.2386 10.6349L28.6986 8.7049C28.9286 7.7649 28.5786 6.7649 27.5786 5.7649L24.8286 3.0449C21.0286 -0.7451 14.0286 -1.1651 10.1086 2.7449C9.4486 3.3949 9.5686 4.1349 9.9986 4.6049C10.3286 4.9149 10.8286 5.0849 11.3086 4.9349C13.9586 4.1349 16.2686 3.9849 18.2686 5.1749L17.2186 7.9349C16.7686 9.0949 17.0086 9.9249 17.7486 10.6749L20.7986 13.7249C21.3586 14.2849 21.9486 14.4449 22.8386 14.2649L25.0386 13.8149L26.0486 14.8449L25.8986 16.4449C25.8586 17.0449 25.9086 17.3949 26.4586 17.9049ZM3.1386 30.6449C4.3486 31.8649 5.7686 31.7649 6.9986 30.3549L20.0086 15.5549L15.9886 11.5349L1.1386 24.4949C-0.2814 25.7349 -0.3614 27.1449 0.8486 28.3749Z"
        fillRule="evenodd"
        clipRule="evenodd"
    />
</svg>
        