
<svg
    viewBox={0 0 27.890625 27.890625}
    xmlns="http://www.w3.org/2000/svg"
>
    <path
        fill="inherit"
        d="M13.9427 27.8927C21.6427 27.8927 27.8927 21.6427 27.8927 13.9427C27.8927 6.2627 21.6427 0.0027 13.9427 0.0027C6.2627 0.0027 0.0027 6.2627 0.0027 13.9427C0.0027 21.6427 6.2627 27.8927 13.9427 27.8927ZM20.3127 15.2027L19.7827 14.7127C19.5127 14.4527 19.4527 14.2427 19.4927 13.9327L19.5827 13.0927L19.0427 12.5527L17.8927 12.7827C17.4327 12.8627 17.1027 12.8127 16.8027 12.4927L15.2027 10.9127C14.8027 10.5127 14.6927 10.0727 14.9327 9.4427L15.4727 7.9827C14.4327 7.3727 13.2027 7.4327 11.8127 7.8427C11.5627 7.9527 11.2927 7.8627 11.1127 7.7127C10.8927 7.4527 10.8427 7.0827 11.1827 6.7227C13.2327 4.6727 16.9427 4.8927 18.9327 6.8727L20.3727 8.3127C20.9227 8.8327 21.0927 9.3527 20.9727 9.8527L20.7227 10.8727L21.2727 11.3927L22.1027 11.3027C22.4327 11.2827 22.5827 11.3227 22.8727 11.6027L23.4027 12.1227C23.7027 12.4427 23.7227 12.8127 23.4327 13.0827L21.2727 15.2327C20.9627 15.5127 20.6127 15.4927 20.3127 15.2027ZM7.4927 21.4127L6.3027 20.2227C5.6427 19.5627 5.7127 18.8427 6.4527 18.1827L14.0527 11.5527L16.2127 13.6827L9.5427 21.2827C8.9027 22.0127 8.1527 22.0627 7.4927 21.4127Z"
        fillRule="evenodd"
        clipRule="evenodd"
    />
</svg>
        