
<svg
    viewBox="0 0 33.50554305918226 31.728931448848343"
    xmlns="http://www.w3.org/2000/svg"
>
    <path
        fill="inherit"
        d="M0.8326 28.4856L3.2126 30.8756C4.4126 32.0956 5.7926 32.0156 7.0926 30.5756L21.3426 14.8856C21.7126 15.0056 22.0926 14.9756 22.5326 14.8956L24.0226 14.6256L24.9526 15.5656L24.8926 16.3456C24.8426 17.0456 25.0126 17.5756 25.7026 18.2456L26.7626 19.2856C27.4326 19.9556 28.3026 19.9956 28.9526 19.3356L33.0326 15.2556C33.6826 14.5956 33.6526 13.7656 32.9826 13.0956L31.9026 12.0256C31.2326 11.3556 30.7226 11.1356 30.0526 11.1956L29.2426 11.2556L28.3426 10.3756L28.6826 8.7956C28.8626 8.0056 28.6426 7.3956 27.8226 6.5756L24.7426 3.5056C20.0626 -1.1444 13.8626 -1.0344 9.8126 3.0156C9.2226 3.5856 9.1826 4.3956 9.5126 4.9456C9.8426 5.4456 10.4826 5.7756 11.3826 5.5456C13.4326 5.0656 15.5726 4.9856 17.5626 6.2956L16.7426 8.3356C16.4726 9.0056 16.4326 9.5656 16.6126 10.0756L1.1226 24.6156C-0.2674 25.9056 -0.3674 27.2656 0.8326 28.4856ZM11.9026 3.5356C15.3126 1.0456 19.9126 1.4756 23.0326 4.5856L26.4426 7.9656C26.7626 8.2956 26.8226 8.5556 26.7226 9.0356L26.2726 11.1056L28.3826 13.1856L29.7626 13.1056C30.1126 13.0956 30.2226 13.1156 30.5026 13.3956L31.3026 14.1956L27.8926 17.6156L27.0826 16.8156C26.8126 16.5356 26.7626 16.4256 26.7826 16.0556L26.8726 14.6956L24.7826 12.6156L22.6526 12.9656C22.2026 13.0656 21.9926 13.0256 21.6526 12.6956L18.8526 9.8956C18.4926 9.5656 18.4526 9.3356 18.6726 8.8156L19.9026 5.8856C17.7126 3.8456 14.8726 2.9756 12.0326 3.8056C11.8126 3.8656 11.7326 3.6856 11.9026 3.5356ZM4.2326 29.1056L2.5926 27.4756C1.9426 26.8356 2.0926 26.3556 2.6526 25.8456L17.7826 11.6056L19.8326 13.6756L5.8526 29.0656C5.3526 29.6256 4.8926 29.7556 4.2326 29.1056Z"
        fillRule="evenodd"
        clipRule="evenodd"
    />
</svg>
        