
<svg
    viewBox="0 0 27.23095703125 30.271261955633236"
    xmlns="http://www.w3.org/2000/svg"
>
    <path
        fill="inherit"
        d="M22.4317 22.5891L23.7717 23.9291C24.0617 23.3391 24.3417 22.7091 24.5817 22.0291L26.9817 15.2591C27.1517 14.8091 27.2317 14.3691 27.2317 13.9491C27.2217 12.5891 26.2617 11.4891 24.6717 11.4891C23.7717 11.4891 22.9517 12.0491 22.4917 13.1291L21.6017 15.2991C21.5717 15.3691 21.5317 15.3991 21.4717 15.3991C21.4117 15.3991 21.3817 15.3491 21.3817 15.2691V4.3091C21.3817 2.7191 20.3817 1.7091 18.8517 1.7091C18.2917 1.7091 17.7817 1.8991 17.4017 2.2691C17.2217 0.8591 16.3217 -0.0009 14.9717 -0.0009C13.6417 -0.0009 12.7117 0.8891 12.5017 2.2391C12.1617 1.8891 11.6717 1.7091 11.1817 1.7091C9.7617 1.7091 8.8117 2.7091 8.8117 4.2091V5.7391C8.4417 5.3491 7.8817 5.1391 7.3117 5.1391C6.6417 5.1391 6.0817 5.4291 5.7517 5.9091L7.2317 7.3791V7.2891C7.2717 7.0691 7.4117 6.9291 7.6517 6.9291C8.2117 6.9291 8.6217 7.3391 8.6217 7.9291V8.7791L10.3617 10.5291V4.4591C10.3617 3.8791 10.7317 3.4691 11.2917 3.4691C11.8617 3.4691 12.2617 3.8791 12.2617 4.4591V12.4091L13.9917 14.1491V2.7791C13.9917 2.1891 14.3917 1.7591 14.9717 1.7591C15.5117 1.7591 15.9117 2.1891 15.9117 2.7791V14.2191C15.9117 14.6991 16.2917 15.0491 16.7717 15.0491C17.2417 15.0491 17.6517 14.6991 17.6517 14.2191V4.4591C17.6517 3.8791 18.0417 3.4691 18.6017 3.4691C19.1617 3.4691 19.5617 3.8791 19.5617 4.4591V17.9191C19.5617 18.5391 19.9617 18.9991 20.5317 18.9991C21.0217 18.9991 21.4317 18.7891 21.7517 18.0991L23.6717 13.8091C23.9517 13.1691 24.4317 12.9091 24.9317 13.0791C25.4717 13.2491 25.6417 13.7991 25.4017 14.4891L22.9117 21.4491C22.7617 21.8491 22.6117 22.2291 22.4317 22.5891ZM24.6017 29.9691C25.0017 30.3691 25.7017 30.3791 26.0917 29.9691C26.4917 29.5491 26.5017 28.8891 26.0917 28.4791L1.8017 4.1991C1.3917 3.7891 0.7217 3.7891 0.3017 4.1991C-0.0983 4.6091 -0.0983 5.2891 0.3017 5.6891ZM14.5717 29.7591C16.8317 29.7591 18.7917 29.1791 20.3917 28.0091L19.0417 26.6691C17.7317 27.4791 16.2117 27.8591 14.5017 27.8591C9.6617 27.8591 6.7117 24.7591 6.7117 19.2591V14.3691L4.9017 12.5691V19.4791C4.9017 25.8791 8.7917 29.7591 14.5717 29.7591Z"
        fillRule="evenodd"
        clipRule="evenodd"
    />
</svg>
        