
<svg
    viewBox="0 0 22.327463807123326 28.765625"
    xmlns="http://www.w3.org/2000/svg"
>
    <path
        fill="inherit"
        d="M12.664 28.7639C18.444 28.7639 22.324 24.8839 22.324 18.4839V15.4939C22.324 12.3439 20.834 10.5039 18.294 10.4739C17.984 9.4639 17.144 8.8639 16.014 8.8639C15.604 8.8639 15.204 8.9239 14.804 9.0639C14.464 7.9539 13.564 7.2839 12.374 7.2839C12.064 7.2839 11.734 7.3239 11.404 7.4239V2.8739C11.404 1.1439 10.254 0.0039 8.644 0.0039C7.014 0.0039 5.854 1.1439 5.854 2.8739V14.2739C5.854 14.3539 5.824 14.3939 5.754 14.3939C5.704 14.3939 5.664 14.3739 5.634 14.3039L4.734 12.1239C4.264 11.0639 3.474 10.4839 2.504 10.4839C1.164 10.4839 0.004 11.3339 0.004 12.8239C-0.016 13.2439 0.084 13.7939 0.244 14.2639L2.654 21.0239C4.474 26.1539 7.844 28.7639 12.664 28.7639ZM12.734 26.8839C8.914 26.8839 5.994 25.1139 4.324 20.4439L1.904 13.7039C1.834 13.4939 1.794 13.3139 1.794 13.0739C1.794 12.6039 2.144 12.1939 2.694 12.1939C3.164 12.1939 3.434 12.4639 3.624 12.9339L5.494 17.0939C5.794 17.7839 6.204 18.0039 6.704 18.0039C7.274 18.0039 7.674 17.5439 7.674 16.9239V2.7439C7.674 2.1739 8.084 1.7639 8.644 1.7639C9.204 1.7639 9.584 2.1739 9.584 2.7439V12.8639C9.584 13.3439 9.994 13.7139 10.464 13.7139C10.934 13.7139 11.324 13.3439 11.324 12.8639V9.2239C11.554 9.1239 11.864 9.0339 12.144 9.0339C12.824 9.0339 13.234 9.4839 13.234 10.2139V13.3839C13.234 13.8939 13.644 14.2339 14.114 14.2339C14.564 14.2339 14.974 13.8939 14.974 13.3839V10.8039C15.204 10.6939 15.514 10.6239 15.774 10.6239C16.464 10.6239 16.874 11.0639 16.874 11.7839V13.9139C16.874 14.4139 17.294 14.7539 17.764 14.7539C18.194 14.7539 18.604 14.4139 18.604 13.9139V12.3439C19.824 12.3439 20.524 13.5939 20.524 15.7639V18.2639C20.524 23.7639 17.574 26.8839 12.734 26.8839Z"
        fillRule="evenodd"
        clipRule="evenodd"
    />
</svg>
        