
<svg
    viewBox="0 0 21.546875 27.8359375"
    xmlns="http://www.w3.org/2000/svg"
>
    <path
        fill="inherit"
        d="M9.2727 0.0034C3.3327 0.0034 0.0027 3.7234 0.0027 10.0634V12.6834C0.0027 15.0934 1.1527 16.5534 2.4627 16.5534C2.7627 16.5534 2.9127 16.4034 2.9127 16.1234V14.9534C2.9127 14.4134 3.2027 14.1334 3.5227 14.1334C3.8827 14.1334 4.1527 14.4134 4.1527 14.9534V15.7234C4.1527 17.1334 5.0727 18.0634 6.2927 18.0634C6.8527 18.0634 7.0927 17.8434 7.0927 17.3634V15.7734C7.0927 15.2334 7.3727 14.9534 7.6927 14.9534C8.0527 14.9534 8.3427 15.2334 8.3427 15.7734V17.2434C8.3427 18.8234 9.2527 19.5734 10.4427 19.5734C10.9627 19.5734 11.2527 19.3334 11.2527 18.8834V15.7734C11.2527 15.2334 11.5227 14.9534 11.8527 14.9534C12.2127 14.9534 12.4927 15.2334 12.4927 15.7734V26.1534C12.4927 27.1634 13.1527 27.8334 14.0127 27.8334C14.9327 27.8334 15.5627 27.1634 15.5627 26.1534V10.9634C15.5627 10.5934 15.8027 10.3934 16.0327 10.3934C16.2727 10.3934 16.4627 10.5234 16.6227 10.9134L18.6327 15.6534C18.9327 16.3534 19.3827 16.6634 20.0027 16.6634C20.9427 16.6634 21.5427 16.0234 21.5427 15.2434C21.5427 14.9334 21.4827 14.6734 21.3927 14.4534L19.1927 7.8434C17.3127 2.2834 13.6327 0.0034 9.2727 0.0034Z"
        fillRule="evenodd"
        clipRule="evenodd"
    />
</svg>
        