
<svg
    viewBox="0 0 27.890625 27.890625"
    xmlns="http://www.w3.org/2000/svg"
>
    <path
        fill="inherit"
        d="M13.9427 27.8864C21.6427 27.8864 27.8927 21.6264 27.8927 13.9464C27.8927 6.2464 21.6427 -0.0036 13.9427 -0.0036C6.2627 -0.0036 0.0027 6.2464 0.0027 13.9464C0.0027 21.6264 6.2627 27.8864 13.9427 27.8864ZM8.2827 16.4764V8.8564C8.2827 8.3664 8.6927 7.9464 9.2127 7.9464C9.6927 7.9464 10.1127 8.3664 10.1127 8.8564V13.6464C10.3227 13.5264 10.5227 13.3864 10.7827 13.2764V6.2864C10.7827 5.7964 11.1927 5.3964 11.6927 5.3964C12.1827 5.3964 12.6027 5.7964 12.6027 6.2864V12.6864C12.8427 12.6464 13.0727 12.6164 13.3127 12.5964V5.5964C13.3127 5.1164 13.7127 4.6864 14.2227 4.6864C14.7227 4.6864 15.1227 5.1164 15.1227 5.5964V12.6764C15.3527 12.7464 15.5827 12.8264 15.8027 12.8764V6.7764C15.8027 6.2864 16.2027 5.8764 16.7027 5.8764C17.1827 5.8764 17.5927 6.2864 17.5927 6.7764V15.3664C17.5927 15.6164 17.6927 15.7264 17.8727 15.7264C17.9927 15.7264 18.1027 15.6364 18.2127 15.3764L19.3627 12.9764C19.7427 12.1964 20.0427 11.8664 20.5927 11.8664C21.0527 11.8664 21.3927 12.1864 21.3927 12.6364C21.3927 13.0164 21.0927 13.8764 20.8727 14.5764C20.3727 16.2564 19.8927 17.7064 19.2627 18.9264C18.1327 21.2464 16.4227 22.2464 13.9327 22.2464C10.6127 22.2464 8.2827 20.0464 8.2827 16.4764Z"
        fillRule="evenodd"
        clipRule="evenodd"
    />
</svg>
        