
<svg
    viewBox={0 0 25.2109375 25.197265625}
    xmlns="http://www.w3.org/2000/svg"
>
    <path
        fill="inherit"
        d="M23.6137 1.6125C22.2137 0.2225 20.2437 0.0025 17.9137 0.0025H7.2637C4.9637 0.0025 2.9937 0.2225 1.6037 1.6125C0.2037 3.0125 0.0037 4.9525 0.0037 7.2425V17.9125C0.0037 20.2525 0.2037 22.1925 1.6037 23.5825C2.9937 24.9825 4.9637 25.1925 7.2837 25.1925H17.9137C20.2437 25.1925 22.2137 24.9825 23.6137 23.5825C25.0037 22.1925 25.2137 20.2525 25.2137 17.9125V7.2825C25.2137 4.9525 25.0037 2.9925 23.6137 1.6125ZM23.0137 6.9025V18.2825C23.0137 19.6825 22.8337 21.1525 21.9937 21.9825C21.1737 22.8025 19.7037 22.9925 18.2937 22.9925H6.9137C5.5137 22.9925 4.0337 22.8025 3.2037 21.9825C2.3837 21.1525 2.2037 19.6825 2.2037 18.2825V6.9425C2.2037 5.5125 2.3837 4.0325 3.2037 3.2125C4.0337 2.3825 5.5237 2.2025 6.9637 2.2025H18.2937C19.7037 2.2025 21.1737 2.3925 21.9937 3.2125C22.8337 4.0425 23.0137 5.4925 23.0137 6.9025ZM6.8037 15.1625C6.8037 18.6525 9.0637 20.7725 12.2737 20.7725C14.6937 20.7725 16.3537 19.7925 17.4637 17.5225C18.0637 16.3525 18.5237 14.9425 19.0137 13.3125C19.2237 12.6425 19.5137 11.8125 19.5137 11.4425C19.5137 11.0025 19.1837 10.7025 18.7337 10.7025C18.2137 10.7025 17.9137 11.0225 17.5437 11.7725L16.4337 14.1125C16.3237 14.3525 16.2137 14.4325 16.0937 14.4325C15.9237 14.4325 15.8337 14.3325 15.8337 14.0925V5.7725C15.8337 5.2925 15.4337 4.8925 14.9537 4.8925C14.4737 4.8925 14.0937 5.2925 14.0937 5.7725V11.6725C13.8737 11.6225 13.6537 11.5425 13.4237 11.5025V4.6025C13.4237 4.1425 13.0437 3.7325 12.5537 3.7325C12.0737 3.7325 11.6737 4.1425 11.6737 4.6025V11.4025C11.4437 11.4325 11.2137 11.4525 10.9737 11.5025V5.2925C10.9737 4.8125 10.5837 4.4325 10.1037 4.4325C9.6237 4.4325 9.2237 4.8125 9.2237 5.2925V12.0625C8.9837 12.1725 8.7737 12.3025 8.5537 12.4325V7.7825C8.5537 7.3025 8.1637 6.8925 7.6937 6.8925C7.2037 6.8925 6.8037 7.3025 6.8037 7.7825Z"
        fillRule="evenodd"
        clipRule="evenodd"
    />
</svg>
        