
<svg
    viewBox="0 0 37.707502230266215 33.27356972196777"
    xmlns="http://www.w3.org/2000/svg"
>
    <path
        fill="inherit"
        d="M11.1494 5.6474C11.6094 5.5574 11.9394 5.0774 11.8294 4.6374L10.9694 0.6874C10.8794 0.2074 10.4094 -0.0726 9.9494 0.0174C9.4994 0.1174 9.1694 0.5674 9.2594 1.0474L10.1194 4.9774C10.2194 5.4274 10.6694 5.7574 11.1494 5.6474ZM6.0494 7.0074C6.3894 7.3474 6.9394 7.3474 7.2694 7.0074C7.5994 6.6674 7.6094 6.1274 7.2694 5.7874L4.4094 2.9274C4.0494 2.5774 3.5294 2.5874 3.1894 2.9274C2.8494 3.2674 2.8394 3.7874 3.1894 4.1474ZM16.4094 30.1474C20.6794 34.4174 25.9794 34.1574 29.8294 30.3174C32.8894 27.2374 33.5194 24.0574 32.1994 20.1974C31.5194 18.0274 30.3694 15.7274 28.9794 13.1274C28.4194 12.0674 27.7494 10.6674 27.2794 10.2074C26.7594 9.6874 26.0394 9.7274 25.4894 10.2674C24.8794 10.8874 24.8894 11.6274 25.3494 12.9974L26.8494 17.1674C27.0194 17.5974 26.9794 17.8774 26.8194 18.0374C26.6294 18.2274 26.3794 18.2574 26.0194 17.9174L15.8894 7.7674C15.3194 7.2074 14.3894 7.2074 13.8194 7.7674C13.2594 8.3474 13.2594 9.2774 13.8194 9.8474L21.0594 17.0974C20.7094 17.2574 20.3394 17.4674 19.9794 17.7274L11.5594 9.3174C10.9994 8.7374 10.0594 8.7374 9.4994 9.3174C8.9194 9.8774 8.9194 10.8174 9.4994 11.3774L17.7894 19.6874C17.5194 20.0174 17.2494 20.3574 16.9994 20.7174L9.3994 13.1174C8.8394 12.5574 7.8994 12.5574 7.3394 13.1174C6.7594 13.6874 6.7594 14.6174 7.3394 15.1974L15.5894 23.4474C15.4294 23.9174 15.3094 24.3774 15.2194 24.8174L9.4794 19.0774C8.9094 18.5074 7.9794 18.5074 7.3994 19.0774C6.8294 19.6374 6.8294 20.5774 7.3994 21.1374ZM23.4494 10.4674L20.7594 7.7674C20.1894 7.2074 19.2394 7.2074 18.6794 7.7674C18.6594 7.7974 18.6394 7.8074 18.6094 7.8474L23.5794 12.8274C23.4094 11.9774 23.3594 11.1974 23.4494 10.4674ZM4.6694 11.5574C5.1194 11.6374 5.5894 11.3674 5.6794 10.8874C5.7594 10.4274 5.4894 9.9874 5.0094 9.8774L1.0494 9.0274C0.5494 8.9174 0.0894 9.2474 0.0094 9.7374C-0.0506 10.1874 0.2394 10.6274 0.6894 10.7274ZM34.6694 30.3274C37.7594 27.2374 38.3694 24.0374 37.0594 20.1874C36.3694 18.0274 35.2294 15.7374 33.8294 13.1274C33.2694 12.0674 32.5994 10.6674 32.1394 10.2174C31.6194 9.6974 30.8894 9.7274 30.3494 10.2674C30.1494 10.4474 30.0194 10.6674 29.9494 10.8974C30.2494 11.4574 30.5194 12.0374 30.8194 12.5874C32.1594 15.0974 33.3294 17.4674 33.9994 19.6774C35.4994 24.3174 34.5794 28.1974 31.1394 31.6274C30.5394 32.2274 29.9094 32.7374 29.2694 33.1774C31.2094 32.8974 33.0794 31.9174 34.6694 30.3274Z"
        fillRule="evenodd"
        clipRule="evenodd"
    />
</svg>
        