
<svg
    viewBox={0 0 32.31880344188219 36.4765625}
    xmlns="http://www.w3.org/2000/svg"
>
    <path
        fill="inherit"
        d="M11.3737 6.0588C11.5437 6.0588 11.6437 5.9788 11.6937 5.7988C12.0537 3.7488 12.0537 3.7288 14.1237 3.3488C14.3037 3.3088 14.4137 3.1988 14.4137 3.0388C14.4137 2.8588 14.3037 2.7488 14.1237 2.7088C12.0537 2.2988 12.1237 2.2788 11.6937 0.2688C11.6437 0.0988 11.5537 -0.0012 11.3737 -0.0012C11.2137 -0.0012 11.0837 0.1088 11.0637 0.2688C10.6237 2.2788 10.6937 2.2988 8.6237 2.7088C8.4337 2.7488 8.3437 2.8688 8.3437 3.0388C8.3437 3.1888 8.4337 3.3088 8.6237 3.3488C10.6937 3.7588 10.6737 3.7488 11.0637 5.7988C11.0837 5.9588 11.2137 6.0588 11.3737 6.0588ZM20.5237 9.7488C20.7537 9.7488 20.9137 9.5988 20.9337 9.3488C21.3237 6.1388 21.4737 6.0588 24.7637 5.5088C25.0237 5.4788 25.1737 5.3488 25.1737 5.1088C25.1737 4.8988 25.0237 4.7588 24.8137 4.7188C21.5037 4.0888 21.3237 4.0988 20.9337 0.8888C20.9137 0.6388 20.7537 0.4888 20.5237 0.4888C20.3137 0.4888 20.1537 0.6388 20.1437 0.8788C19.7137 4.1388 19.6037 4.2388 16.2537 4.7188C16.0537 4.7488 15.9037 4.8988 15.9037 5.1088C15.9037 5.3288 16.0537 5.4788 16.2537 5.5088C19.6037 6.1688 19.7037 6.1488 20.1437 9.3788C20.1537 9.5988 20.3137 9.7488 20.5237 9.7488ZM11.0237 32.1388C15.2837 36.4088 20.5937 36.1488 24.4337 32.3088C27.5037 29.2288 28.1237 26.0488 26.8137 22.1888C26.1237 20.0188 24.9737 17.7188 23.5837 15.1188C23.0237 14.0588 22.3537 12.6588 21.8937 12.1988C21.3737 11.6788 20.6437 11.7188 20.0937 12.2588C19.4837 12.8788 19.5137 13.6188 19.9737 14.9888L21.4537 19.1588C21.6337 19.5888 21.5837 19.8688 21.4337 20.0288C21.2337 20.2188 20.9837 20.2488 20.6437 19.9088L10.5037 9.7588C9.9437 9.1988 8.9937 9.1988 8.4337 9.7588C7.8637 10.3388 7.8637 11.2688 8.4337 11.8388L15.6837 19.0888C15.3237 19.2488 14.9537 19.4588 14.5837 19.7188L6.1837 11.3088C5.6037 10.7288 4.6737 10.7288 4.1037 11.3088C3.5237 11.8688 3.5237 12.8088 4.1037 13.3688L12.4137 21.6788C12.1237 22.0088 11.8637 22.3488 11.6237 22.7088L4.0237 15.1088C3.4437 14.5488 2.5137 14.5488 1.9437 15.1088C1.3637 15.6788 1.3637 16.6088 1.9437 17.1888L10.2037 25.4388C10.0337 25.9088 9.9237 26.3688 9.8337 26.8088L4.0837 21.0688C3.5137 20.4988 2.5837 20.4988 2.0137 21.0688C1.4537 21.6288 1.4537 22.5688 2.0137 23.1288ZM18.0637 12.4588L15.3637 9.7588C14.7937 9.1988 13.8537 9.1988 13.2937 9.7588C13.2637 9.7888 13.2437 9.7988 13.2337 9.8388L18.1937 14.8188C18.0337 13.9688 17.9637 13.1888 18.0637 12.4588ZM29.2837 32.3188C32.3637 29.2288 32.9737 26.0288 31.6737 22.1788C30.9837 20.0188 29.8337 17.7288 28.4337 15.1188C27.8937 14.0588 27.2037 12.6588 26.7437 12.2088C26.2237 11.6888 25.5137 11.7188 24.9537 12.2588C24.7637 12.4388 24.6337 12.6588 24.5537 12.8888C24.8537 13.4488 25.1437 14.0288 25.4437 14.5788C26.7737 17.0888 27.9337 19.4588 28.6037 21.6688C30.1037 26.3088 29.2037 30.1888 25.7437 33.6188C25.1537 34.2188 24.5237 34.7288 23.8737 35.1688C25.8137 34.8888 27.6837 33.9088 29.2837 32.3188ZM3.9337 36.4788C4.1337 36.4788 4.2337 36.3488 4.2637 36.1588C4.7737 33.4788 4.7537 33.4288 7.5637 32.8988C7.7537 32.8388 7.8737 32.7488 7.8737 32.5388C7.8737 32.3388 7.7537 32.2388 7.5637 32.1988C4.7537 31.6388 4.8237 31.5788 4.2637 28.9188C4.2337 28.7288 4.1337 28.5988 3.9337 28.5988C3.7437 28.5988 3.6337 28.7288 3.5937 28.9188C3.0337 31.5788 3.1337 31.6388 0.3137 32.1988C0.1237 32.2388 0.0037 32.3388 0.0037 32.5388C0.0037 32.7488 0.1237 32.8388 0.3137 32.8988C3.1337 33.4388 3.0937 33.4788 3.5937 36.1588C3.6337 36.3488 3.7437 36.4788 3.9337 36.4788Z"
        fillRule="evenodd"
        clipRule="evenodd"
    />
</svg>
        