
<svg
    viewBox="0 0 27.890625 27.890625"
    xmlns="http://www.w3.org/2000/svg"
>
    <path
        fill="inherit"
        d="M13.9427 27.8864C21.6427 27.8864 27.8927 21.6464 27.8927 13.9464C27.8927 6.2464 21.6427 -0.0036 13.9427 -0.0036C6.2527 -0.0036 0.0027 6.2464 0.0027 13.9464C0.0027 21.6464 6.2527 27.8864 13.9427 27.8864ZM13.9427 25.5664C7.5227 25.5664 2.3227 20.3664 2.3227 13.9464C2.3227 7.5164 7.5227 2.3264 13.9427 2.3264C20.3727 2.3264 25.5627 7.5164 25.5627 13.9464C25.5627 20.3664 20.3727 25.5664 13.9427 25.5664ZM8.4727 16.3764C8.4727 19.8564 10.7327 21.9864 13.9427 21.9864C16.3627 21.9864 18.0227 21.0164 19.1227 18.7464C19.7327 17.5664 20.1927 16.1464 20.6827 14.5164C20.8927 13.8464 21.1827 13.0264 21.1827 12.6564C21.1827 12.2264 20.8527 11.9264 20.4027 11.9264C19.8827 11.9264 19.5827 12.2364 19.2127 12.9764L18.1027 15.3164C17.9927 15.5564 17.8827 15.6564 17.7627 15.6564C17.5927 15.6564 17.5027 15.5464 17.5027 15.2964V6.9764C17.5027 6.5064 17.1027 6.1064 16.6427 6.1064C16.1427 6.1064 15.7627 6.5064 15.7627 6.9764V12.8764C15.5427 12.8264 15.3227 12.7464 15.0927 12.6964V5.8264C15.0927 5.3464 14.7127 4.9464 14.2227 4.9464C13.7427 4.9464 13.3527 5.3464 13.3527 5.8264V12.6064C13.1127 12.6464 12.8827 12.6564 12.6627 12.6964V6.5064C12.6627 6.0164 12.2527 5.6364 11.7727 5.6364C11.2927 5.6364 10.8927 6.0164 10.8927 6.5064V13.2664C10.6527 13.3664 10.4427 13.5064 10.2427 13.6264V8.9864C10.2427 8.5064 9.8327 8.1064 9.3627 8.1064C8.8727 8.1064 8.4727 8.5064 8.4727 8.9864Z"
        fillRule="evenodd"
        clipRule="evenodd"
    />
</svg>
        