
<svg
    viewBox="0 0 23.89176108830617 26.530250021580873"
    xmlns="http://www.w3.org/2000/svg"
>
    <path
        fill="inherit"
        d="M17.5191 25.8349C22.9491 23.8649 25.2591 18.8849 23.0791 12.8749L22.0591 10.0749C20.9791 7.1049 18.9391 5.8849 16.5591 6.7249C15.9191 5.8849 14.9291 5.5949 13.8491 5.9949C13.4591 6.1349 13.1091 6.3349 12.7891 6.5849C12.0891 5.6649 11.0091 5.3349 9.8891 5.7549C9.5891 5.8549 9.2991 6.0249 9.0291 6.2149L7.4791 1.9449C6.8791 0.3249 5.4191 -0.3651 3.8991 0.1849C2.3691 0.7449 1.6891 2.2049 2.2591 3.8349L6.1691 14.5549C6.1791 14.6249 6.1691 14.6749 6.0991 14.7049C6.0491 14.7349 6.0091 14.7049 5.9591 14.6549L4.3591 12.9149C3.5691 12.0649 2.6291 11.8249 1.7091 12.1449C0.4491 12.5949 -0.3509 13.7849 0.1491 15.1949C0.2891 15.5949 0.5791 16.0849 0.8791 16.4549L5.4591 21.9949C8.9291 26.1849 12.9791 27.4849 17.5191 25.8349ZM16.9391 24.0449C13.3491 25.3549 9.9791 24.6849 6.8291 20.8749L2.2591 15.3649C2.1091 15.1949 2.0091 15.0449 1.9291 14.8249C1.7691 14.3749 1.9591 13.8849 2.4891 13.6949C2.9191 13.5249 3.2691 13.6949 3.6091 14.0649L6.7691 17.3349C7.2991 17.8749 7.7691 17.9349 8.2191 17.7649C8.7691 17.5649 8.9891 17.0149 8.7791 16.4149L3.9291 3.0949C3.7191 2.5649 3.9691 2.0449 4.4991 1.8349C5.0291 1.6649 5.5291 1.8949 5.7191 2.4549L9.1791 11.9549C9.3591 12.4049 9.8591 12.6149 10.2991 12.4349C10.7391 12.2849 10.9791 11.8049 10.8191 11.3549L9.5591 7.9349C9.7491 7.7549 10.0091 7.5849 10.2791 7.5049C10.9091 7.2649 11.4491 7.5449 11.6891 8.2149L12.7891 11.1949C12.9591 11.6649 13.4691 11.8449 13.8891 11.6949C14.3291 11.5349 14.5891 11.0849 14.4091 10.6149L13.5391 8.1649C13.7191 7.9949 13.9891 7.8149 14.2391 7.7149C14.8791 7.4849 15.4291 7.7549 15.6691 8.4449L16.3991 10.4549C16.5591 10.9149 17.0791 11.0949 17.5191 10.9349C17.9291 10.7849 18.1891 10.3149 18.0191 9.8549L17.4891 8.3749C18.6191 7.9649 19.6991 8.9049 20.4591 10.9449L21.2991 13.2849C23.1791 18.4549 21.4791 22.3849 16.9391 24.0449Z"
        fillRule="evenodd"
        clipRule="evenodd"
    />
</svg>
        