<svg viewBox="0 0 30.5142405747439 26.530250021580873" xmlns="http://www.w3.org/2000/svg"><path d="M24.1464 25.8349C29.5764 23.8649 31.8864 18.8849 29.6964 12.8749L28.6864 10.0749C27.6064 7.1049 25.5764 5.8849 23.1764 6.7249C22.5264 5.8849 21.5464 5.5949 20.4764 5.9849C20.0864 6.1349 19.7464 6.3349 19.4264 6.5849C18.7164 5.6849 17.6364 5.3349 16.5164 5.7549C16.2164 5.8549 15.9264 6.0249 15.6564 6.2149L14.0964 1.9449C13.5064 0.3249 12.0464 -0.3651 10.5264 0.1849C8.9964 0.7449 8.2964 2.2049 8.8864 3.8349L12.7864 14.5549C12.8064 14.6249 12.7964 14.6749 12.7264 14.7049C12.6864 14.7149 12.6364 14.7049 12.5964 14.6549L10.9964 12.9149C10.1964 12.0649 9.2564 11.8049 8.3364 12.1349C7.0864 12.5949 6.2764 13.7849 6.7964 15.1949C6.9364 15.5949 7.2064 16.0749 7.5064 16.4649L12.0864 21.9949C15.5564 26.1849 19.6064 27.4849 24.1464 25.8349ZM23.5564 24.0449C19.9764 25.3549 16.6264 24.6849 13.4564 20.8749L8.8764 15.3649C8.7364 15.1949 8.6364 15.0449 8.5564 14.8149C8.3964 14.3749 8.5864 13.8749 9.1064 13.6749C9.5464 13.5249 9.8964 13.6949 10.2364 14.0649L13.4164 17.3349C13.9364 17.8749 14.3964 17.9349 14.8564 17.7649C15.3964 17.5749 15.6164 17.0049 15.4064 16.4149L10.5564 3.0949C10.3664 2.5549 10.5964 2.0349 11.1264 1.8349C11.6464 1.6449 12.1564 1.9049 12.3464 2.4549L15.8064 11.9549C15.9664 12.4049 16.4764 12.6149 16.9264 12.4449C17.3664 12.2849 17.6064 11.8049 17.4464 11.3649L16.1964 7.9349C16.3764 7.7549 16.6564 7.5849 16.8964 7.4849C17.5364 7.2549 18.0764 7.5449 18.3164 8.2149L19.4164 11.1949C19.5764 11.6649 20.0964 11.8449 20.5364 11.6849C20.9464 11.5349 21.2164 11.0849 21.0364 10.6049L20.1664 8.1649C20.3464 7.9949 20.6164 7.8149 20.8664 7.7149C21.5064 7.4849 22.0364 7.7749 22.2864 8.4449L23.0264 10.4349C23.1864 10.9149 23.6964 11.0949 24.1264 10.9349C24.5564 10.7849 24.8164 10.3149 24.6464 9.8549L24.1164 8.3749C25.2564 7.9649 26.3364 8.8949 27.0864 10.9449L27.9364 13.2849C29.8064 18.4549 28.1064 22.3849 23.5564 24.0449ZM6.6864 3.2649C2.6664 5.6949 -0.0036 10.2449 -0.0036 15.8549C-0.0036 16.3449 0.4264 16.7649 0.8864 16.7549C1.3664 16.7449 1.7064 16.3749 1.7264 15.8849C1.8464 10.9749 3.9464 7.1149 7.2964 4.9449Z" /></svg>