<svg viewBox="0 0 25.950341042613125 25.928849465867614" xmlns="http://www.w3.org/2000/svg"><path d="M22.9196 22.9789C25.9996 19.9089 26.6096 16.6989 25.2996 12.8589C24.6196 10.6689 23.4696 8.3889 22.0696 5.7889C21.5296 4.7189 20.8396 3.3289 20.3796 2.8689C19.8596 2.3489 19.1296 2.3689 18.5896 2.9289C17.9696 3.5489 17.9996 4.2889 18.4596 5.6489L19.9396 9.7789C20.1296 10.3289 20.0796 10.5989 19.7596 10.9989C18.1096 13.0089 17.7696 15.3889 19.3496 17.1689C19.6096 17.4889 19.5996 17.9489 19.2996 18.2289C19.0196 18.5189 18.5196 18.5089 18.2496 18.1889C16.7796 16.5589 15.9096 13.3889 18.5996 10.0289L8.9896 0.4289C8.4296 -0.1411 7.4896 -0.1411 6.9296 0.4289C6.3496 0.9889 6.3496 1.9389 6.9296 2.5089L14.1696 9.7589C13.8196 9.9189 13.4496 10.1289 13.0796 10.3689L4.6696 1.9589C4.0996 1.3989 3.1696 1.3989 2.5896 1.9589C2.0296 2.5389 2.0296 3.4789 2.5896 4.0389L10.8996 12.3389C10.6196 12.6689 10.3596 13.0189 10.1096 13.3689L2.5096 5.7589C1.9396 5.1989 1.0096 5.1989 0.4296 5.7589C-0.1404 6.3389 -0.1404 7.2789 0.4296 7.8389L8.6996 16.1089C8.5196 16.5789 8.4196 17.0389 8.3196 17.4789L2.5796 11.7389C1.9996 11.1589 1.0696 11.1589 0.4996 11.7389C-0.0604 12.2989 -0.0604 13.2289 0.4996 13.7989L9.5096 22.8089C13.7696 27.0789 19.0796 26.7989 22.9196 22.9789Z" /></svg>