
<svg
    viewBox="0 0 39.01953125 26.66015625"
    xmlns="http://www.w3.org/2000/svg"
>
    <path
        fill="inherit"
        d="M19.5127 26.6612C26.8827 26.6612 32.8527 20.6812 32.8527 13.3312C32.8527 5.9612 26.8827 0.0012 19.5127 0.0012C12.1527 0.0012 6.1827 5.9612 6.1827 13.3312C6.1827 20.6812 12.1527 26.6612 19.5127 26.6612ZM39.0227 13.3312C39.0227 8.9912 37.6227 5.0012 35.2327 1.7612C34.8127 1.1912 34.0827 1.1212 33.5327 1.5612C33.0327 1.9812 32.9927 2.6512 33.3727 3.1712C35.4627 6.0312 36.6827 9.5312 36.6827 13.3312C36.6827 17.1212 35.4627 20.6312 33.3727 23.4612C32.9927 24.0112 33.0427 24.6612 33.5327 25.0912C34.0827 25.5212 34.8127 25.4712 35.2327 24.8812C37.6227 21.6412 39.0227 17.6612 39.0227 13.3312ZM0.0027 13.3312C0.0027 17.6612 1.4127 21.6412 3.7827 24.8812C4.2127 25.4712 4.9327 25.5212 5.4827 25.0912C5.9727 24.6612 6.0427 24.0112 5.6427 23.4612C3.5727 20.6312 2.3427 17.1212 2.3427 13.3312C2.3427 9.5312 3.5727 6.0312 5.6427 3.1712C6.0427 2.6512 5.9927 1.9812 5.4827 1.5612C4.9327 1.1212 4.2127 1.1912 3.7827 1.7612C1.4127 5.0012 0.0027 8.9912 0.0027 13.3312ZM19.5127 24.3312C13.4427 24.3312 8.5027 19.4012 8.5027 13.3312C8.5027 7.2412 13.4427 2.3112 19.5127 2.3112C25.5927 2.3112 30.5327 7.2412 30.5327 13.3312C30.5327 19.4012 25.5927 24.3312 19.5127 24.3312ZM14.2427 16.0412C14.2427 19.3712 16.4027 21.4112 19.4827 21.4112C21.8027 21.4112 23.4027 20.4812 24.4627 18.2812C25.0427 17.1612 25.4827 15.7912 25.9527 14.2312C26.1527 13.5912 26.4427 12.8112 26.4427 12.4712C26.4427 12.0412 26.1227 11.7612 25.6727 11.7612C25.1827 11.7612 24.8927 12.0612 24.5427 12.7512L23.4727 15.0112C23.3927 15.2412 23.2727 15.3412 23.1427 15.3412C22.9827 15.3412 22.9027 15.2312 22.9027 15.0012V7.0112C22.9027 6.5612 22.5127 6.1812 22.0627 6.1812C21.6027 6.1812 21.2327 6.5612 21.2327 7.0112V12.6712C21.0227 12.6212 20.8127 12.5412 20.5927 12.4912V5.9112C20.5927 5.4412 20.2227 5.0712 19.7527 5.0712C19.2927 5.0712 18.9227 5.4412 18.9227 5.9112V12.4112C18.6927 12.4512 18.4527 12.4512 18.2527 12.4912V6.5612C18.2527 6.1012 17.8527 5.7312 17.4027 5.7312C16.9427 5.7312 16.5727 6.1012 16.5727 6.5612V13.0412C16.3227 13.1412 16.1327 13.2712 15.9327 13.4012V8.9412C15.9327 8.4812 15.5427 8.0912 15.0927 8.0912C14.6327 8.0912 14.2427 8.4812 14.2427 8.9412Z"
        fillRule="evenodd"
        clipRule="evenodd"
    />
</svg>
        