
<svg
    viewBox="0 0 30.1875 23.448554118477663"
    xmlns="http://www.w3.org/2000/svg"
>
    <path
        fill="inherit"
        d="M30.1909 13.3002C30.1909 8.2302 27.4709 4.7002 22.0809 2.7902L14.9709 0.2602C14.4809 0.0802 13.9009 -0.0098 13.4809 0.0002C11.8909 0.0002 11.0009 1.2302 11.0009 2.6302C11.0209 3.6502 11.6109 4.4902 12.7109 4.9602L15.0209 5.9202C15.0809 5.9302 15.1109 5.9902 15.1109 6.0402C15.1109 6.1302 15.0709 6.1502 15.0009 6.1502H3.0209C1.1909 6.1502 0.0009 7.3602 0.0009 9.0702C0.0009 10.7702 1.1909 11.9802 3.0209 11.9802H7.7909C7.7009 12.3202 7.6409 12.6602 7.6409 12.9902C7.6409 14.2302 8.3509 15.1902 9.5009 15.5602C9.3809 15.9602 9.3009 16.3802 9.3009 16.8202C9.3009 18.0102 9.9409 18.8802 10.9909 19.2102C11.0209 21.8802 12.9609 23.4502 16.2709 23.4502H19.4009C26.1109 23.4502 30.1909 19.3702 30.1909 13.3002ZM28.2209 13.3902C28.2209 18.4602 24.9509 21.5502 19.1709 21.5502H16.5609C14.2709 21.5502 12.9609 20.8202 12.9609 19.5402H14.6009C15.1209 19.5402 15.4909 19.1302 15.4909 18.6502C15.4909 18.1702 15.1209 17.7202 14.6009 17.7202H12.3609C11.6209 17.7202 11.1609 17.3002 11.1609 16.5702C11.1609 16.3002 11.2209 15.9602 11.3509 15.7102H14.0509C14.5909 15.7102 14.9409 15.2902 14.9409 14.8102C14.9409 14.3302 14.5909 13.9102 14.0509 13.9102H10.7209C9.9709 13.9102 9.4909 13.4502 9.4909 12.7402C9.4909 12.4702 9.5709 12.1302 9.6809 11.9002H13.5109C14.0009 11.9002 14.4009 11.4702 14.4009 10.9902C14.4009 10.4902 14.0009 10.0602 13.5109 10.0602H2.8809C2.2809 10.0602 1.8409 9.6702 1.8409 9.0702C1.8409 8.4802 2.2809 8.0702 2.8809 8.0702H17.7709C18.4209 8.0702 18.8909 7.6402 18.8909 7.0402C18.8909 6.5402 18.6609 6.0902 17.9509 5.7602L13.5809 3.8202C13.1009 3.6102 12.8009 3.3202 12.8009 2.8302C12.8009 2.2602 13.2209 1.8902 13.7309 1.8902C13.9709 1.8902 14.1609 1.9202 14.3709 2.0002L21.4609 4.5402C26.3609 6.2902 28.2209 9.3702 28.2209 13.3902Z"
        fillRule="evenodd"
        clipRule="evenodd"
    />
</svg>
        