
<svg
    viewBox={0 0 27.890625 27.890625}
    xmlns="http://www.w3.org/2000/svg"
>
    <path
        fill="inherit"
        d="M13.9427 27.8864C21.6427 27.8864 27.8927 21.6464 27.8927 13.9464C27.8927 6.2464 21.6427 -0.0036 13.9427 -0.0036C6.2527 -0.0036 0.0027 6.2464 0.0027 13.9464C0.0027 21.6464 6.2527 27.8864 13.9427 27.8864ZM13.9427 25.5664C7.5227 25.5664 2.3227 20.3664 2.3227 13.9464C2.3227 7.5164 7.5227 2.3264 13.9427 2.3264C20.3727 2.3264 25.5627 7.5164 25.5627 13.9464C25.5627 20.3664 20.3727 25.5664 13.9427 25.5664ZM18.0327 11.7164C18.0727 8.9964 15.9027 6.9764 12.4527 6.9364L11.4427 6.9164C10.5027 6.9064 9.7927 6.9864 9.3927 7.0864C8.8027 7.2364 8.2327 7.5764 8.2327 8.2864C8.2327 8.5464 8.3127 8.7864 8.3927 8.9264C8.4527 9.0264 8.4327 9.1064 8.3527 9.1464C7.9127 9.3064 7.5027 9.7664 7.5027 10.3264C7.5027 10.6764 7.6127 10.9764 7.7927 11.1664C7.8727 11.2764 7.8627 11.3864 7.7427 11.4664C7.3827 11.6764 7.1527 12.0764 7.1527 12.5664C7.1527 12.8964 7.2627 13.2764 7.4527 13.4564C7.5727 13.5664 7.5627 13.6164 7.4227 13.7264C7.2027 13.9364 7.0727 14.2764 7.0727 14.6664C7.0727 15.4064 7.6127 15.9964 8.3427 15.9964H10.9327C11.6227 15.9964 12.0427 16.3264 12.0427 16.8864C12.0427 17.8664 10.8127 19.6864 10.8127 20.9764C10.8127 21.6564 11.2627 22.0664 11.8427 22.0664C12.3727 22.0664 12.6327 21.7064 12.8927 21.1464C14.0127 19.0164 15.4727 17.2764 16.5927 15.7664C17.5227 14.5364 18.0027 13.4564 18.0327 11.7164ZM21.6327 11.6464C21.6327 9.4464 20.2927 7.6164 18.4527 7.6164H17.1127C18.4727 8.5864 19.0427 10.0364 19.0127 11.7264C18.9927 13.5864 18.2627 14.8864 17.6527 15.6964H18.7127C20.3727 15.6964 21.6327 13.9164 21.6327 11.6464Z"
        fillRule="evenodd"
        clipRule="evenodd"
    />
</svg>
        