<svg viewBox="0 0 22.981402022421396 25.28734295272265" xmlns="http://www.w3.org/2000/svg"><path d="M16.8354 24.6157C22.4154 22.5957 24.2654 17.9657 22.0954 11.9857L21.2054 9.5257C20.3854 7.2757 18.8054 6.2857 17.5754 6.7257C17.2954 6.8357 17.2054 7.0357 17.2954 7.2957L17.6954 8.3957C17.8854 8.9157 17.7054 9.2557 17.3954 9.3757C17.0654 9.4857 16.7054 9.3357 16.5154 8.8157L16.2554 8.1057C15.7754 6.7657 14.6054 6.2057 13.4554 6.6257C12.9354 6.8157 12.7854 7.1157 12.9454 7.5557L13.4854 9.0457C13.6754 9.5657 13.4954 9.9057 13.1954 10.0357C12.8554 10.1557 12.4954 9.9957 12.3254 9.4757L11.8154 8.1057C11.2654 6.6057 10.1454 6.2157 9.0254 6.6257C8.5354 6.8057 8.3554 7.1357 8.5154 7.5557L9.5754 10.4657C9.7654 10.9857 9.5954 11.3357 9.2854 11.4557C8.9554 11.5757 8.6054 11.4157 8.4154 10.8957L4.8554 1.1457C4.5154 0.1857 3.6654 -0.1943 2.8554 0.0957C1.9954 0.4057 1.6254 1.2457 1.9754 2.1957L7.1654 16.4757C7.3054 16.8257 7.1354 17.0857 6.9254 17.1657C6.7054 17.2557 6.4854 17.1857 6.1954 16.8857L2.6854 13.1057C2.1654 12.5657 1.6254 12.4257 1.0554 12.6457C0.1654 12.9557 -0.1746 13.7657 0.0854 14.5057C0.1954 14.7857 0.3454 15.0057 0.4954 15.1857L4.8254 20.6457C8.4954 25.2357 12.7354 26.1157 16.8354 24.6157Z" /></svg>