<svg viewBox="0 0 29.541245938398603 25.28734295272265" xmlns="http://www.w3.org/2000/svg"><path d="M23.3927 24.6157C28.9727 22.5957 30.8327 17.9657 28.6527 11.9857L27.7627 9.5257C26.9327 7.2757 25.3627 6.2857 24.1327 6.7257C23.8427 6.8357 23.7527 7.0357 23.8427 7.2957L24.2427 8.3957C24.4327 8.9157 24.2627 9.2557 23.9527 9.3757C23.6227 9.4857 23.2727 9.3357 23.0827 8.8157L22.8227 8.1057C22.3227 6.7657 21.1627 6.2057 20.0127 6.6257C19.4927 6.8157 19.3327 7.1157 19.4927 7.5557L20.0427 9.0457C20.2327 9.5657 20.0527 9.9057 19.7527 10.0357C19.4127 10.1557 19.0627 9.9957 18.8627 9.4757L18.3727 8.1057C17.8327 6.6057 16.7027 6.2157 15.5827 6.6257C15.0927 6.8057 14.9127 7.1357 15.0627 7.5557L16.1327 10.4657C16.3227 10.9857 16.1427 11.3357 15.8427 11.4557C15.5027 11.5757 15.1527 11.4157 14.9527 10.8957L11.4127 1.1457C11.0727 0.1857 10.2227 -0.1943 9.4227 0.0957C8.5627 0.4057 8.1927 1.2457 8.5327 2.1957L13.7227 16.4757C13.8527 16.8257 13.7027 17.0857 13.4827 17.1657C13.2627 17.2557 13.0327 17.1857 12.7527 16.8857L9.2427 13.1057C8.7127 12.5657 8.1727 12.4257 7.6027 12.6457C6.7227 12.9557 6.3827 13.7657 6.6427 14.5057C6.7527 14.7857 6.9027 15.0057 7.0427 15.1857L11.3927 20.6457C15.0527 25.2357 19.2927 26.1157 23.3927 24.6157ZM6.6827 2.6257C2.6627 5.0557 0.0027 9.6057 0.0027 15.2157C0.0027 15.7057 0.4227 16.1257 0.8927 16.1157C1.3627 16.1057 1.7127 15.7357 1.7227 15.2457C1.8427 10.3357 3.9527 6.4757 7.3027 4.3057Z" /></svg>