
<svg
    viewBox={0 0 27.849609375 29.736328125}
    xmlns="http://www.w3.org/2000/svg"
>
    <path
        fill="inherit"
        d="M27.8527 9.5998C27.8527 5.1698 24.9627 1.4598 21.4827 1.4598H17.1127C15.3827 0.5498 13.2727 -0.0002 10.9227 -0.0002H9.0927C7.4527 -0.0002 6.0327 0.0998 5.0827 0.3398C3.2527 0.7798 2.1027 2.0598 2.1027 3.6798C2.1027 4.0098 2.1627 4.3198 2.2427 4.6098C1.3427 5.2998 0.8327 6.2898 0.8327 7.3998C0.8327 7.9298 0.9327 8.4498 1.1327 8.8898C0.5227 9.5198 0.1627 10.4298 0.1627 11.3898C0.1627 11.9998 0.3327 12.6598 0.5927 13.1398C0.2227 13.6698 0.0027 14.4198 0.0027 15.1998C0.0027 17.1898 1.5427 18.7398 3.5127 18.7398H8.5027C8.8027 18.7398 8.9927 18.8798 8.9927 19.1398C8.9927 20.5598 6.7527 23.8998 6.7527 26.5798C6.7527 28.4198 8.0427 29.7398 9.8027 29.7398C11.1027 29.7398 11.9727 29.0698 12.8227 27.4298C14.4327 24.3398 16.3527 21.5898 19.4727 17.7898H21.9727C25.2227 17.7898 27.8527 14.1098 27.8527 9.5998ZM20.1527 9.6698C20.1527 12.5198 19.5127 14.3398 17.7327 16.7298C15.7527 19.3698 12.9927 22.5598 11.0227 26.4998C10.5127 27.4798 10.2027 27.7098 9.7227 27.7098C9.1627 27.7098 8.7727 27.3198 8.7727 26.5798C8.7727 24.4298 11.0227 21.2098 11.0227 19.1398C11.0227 17.6398 9.7927 16.7198 8.2127 16.7198H3.5127C2.6627 16.7198 2.0227 16.0798 2.0227 15.1998C2.0227 14.5698 2.2127 14.1798 2.7327 13.6698C2.9827 13.4498 3.0127 13.1698 2.8027 12.9198C2.3827 12.2898 2.1827 11.9098 2.1827 11.3898C2.1827 10.7598 2.4927 10.2398 3.0927 9.7798C3.4227 9.5298 3.5527 9.1898 3.3527 8.7798C3.0227 8.1598 2.8527 7.8798 2.8527 7.3998C2.8527 6.6998 3.3127 6.1498 4.2627 5.6598C4.5627 5.4998 4.6327 5.2498 4.5027 4.9498C4.1827 4.1398 4.1427 4.0198 4.1427 3.6798C4.1427 3.0498 4.5927 2.5398 5.5527 2.2998C6.3327 2.0898 7.5727 2.0098 9.0827 2.0098H10.7727C16.4027 2.0198 20.1527 5.2198 20.1527 9.6698ZM25.8227 9.5998C25.8227 12.9898 23.9927 15.7598 21.9727 15.7598H20.7827C21.7527 13.9198 22.1727 11.9998 22.1727 9.7098C22.1727 7.2598 21.3027 5.1298 19.7327 3.4998H21.4827C23.7927 3.4998 25.8227 6.2798 25.8227 9.5998Z"
        fillRule="evenodd"
        clipRule="evenodd"
    />
</svg>
        