<svg viewBox="0 0 28.243647437926715 29.06640625" xmlns="http://www.w3.org/2000/svg"><path d="M4.5622 29.0643H23.6822C27.0122 29.0643 28.6022 27.1243 28.1722 23.5743L27.0022 13.4543C26.7122 11.0043 25.2322 9.6843 22.8622 9.6843H22.6522V8.2343C22.6522 3.5643 18.9622 0.0043 14.1222 0.0043C9.2922 0.0043 5.5922 3.5643 5.5922 8.2343V9.6843H5.3822C3.0022 9.6843 1.5422 11.0043 1.2522 13.4543L0.0622 23.5743C-0.3578 27.1243 1.2422 29.0643 4.5622 29.0643ZM7.7922 8.2343C7.7922 4.8143 10.5422 2.2043 14.1222 2.2043C17.7022 2.2043 20.4522 4.8143 20.4522 8.2343V9.6843H7.7922ZM5.3822 11.8843H22.8622C22.9822 11.8843 23.1022 11.8843 23.2122 11.8943C21.6722 15.3543 18.0822 16.7043 14.1222 16.7043C10.1722 16.7043 6.5922 15.3543 5.0322 11.8943C5.1422 11.8843 5.2622 11.8843 5.3822 11.8843ZM4.5622 26.8643C2.8422 26.8643 2.0122 25.7943 2.2422 23.8343L3.4322 13.7143C3.4322 13.6443 3.4322 13.6843 3.4422 13.6143C5.1422 16.5543 8.1722 18.1243 11.3922 18.6743V19.6643C11.3922 20.5943 11.9322 21.1143 12.8622 21.1143H15.3822C16.3122 21.1143 16.8522 20.5943 16.8522 19.6643V18.6743C20.0822 18.1243 23.1022 16.5543 24.8122 13.6043C24.8222 13.7143 24.8222 13.7143 24.8222 13.7143L26.0022 23.8343C26.2322 25.7943 25.4022 26.8643 23.6822 26.8643Z" /></svg>