
<svg
    viewBox={0 0 21.79296875 29.23046875}
    xmlns="http://www.w3.org/2000/svg"
>
    <path
        fill="inherit"
        d="M9.3745 29.2348C13.7245 29.2348 16.4245 27.4148 18.2145 23.7648C19.2645 21.7348 20.0745 19.3048 20.9345 16.4848C21.2845 15.3348 21.7945 13.8748 21.7945 13.2248C21.7945 12.4848 21.2645 11.9948 20.4845 11.9948C19.6145 11.9948 19.1145 12.5348 18.4745 13.8348L16.5845 17.7848C16.3345 18.3348 16.1045 18.4748 15.6145 18.5248C13.0045 18.7848 11.0845 20.2248 10.9645 22.6148C10.9145 23.0248 10.5845 23.3348 10.1745 23.3248C9.7645 23.3348 9.4045 22.9548 9.4345 22.5448C9.5545 20.3748 11.1845 17.5048 15.4645 17.0348V3.4448C15.4645 2.6348 14.8045 1.9848 14.0045 1.9848C13.1945 1.9848 12.5345 2.6348 12.5345 3.4448V13.6948C12.1645 13.5648 11.7545 13.4548 11.3245 13.3748V1.4748C11.3245 0.6748 10.6645 0.0048 9.8545 0.0048C9.0545 0.0048 8.3845 0.6748 8.3845 1.4748V13.2248C7.9545 13.2448 7.5245 13.3148 7.0945 13.3848V2.6348C7.0945 1.8348 6.4445 1.1748 5.6345 1.1748C4.8245 1.1748 4.1745 1.8348 4.1745 2.6348V14.3148C3.7145 14.5348 3.3045 14.7648 2.9445 15.0148V6.8948C2.9445 6.0848 2.2845 5.4248 1.4745 5.4248C0.6745 5.4248 0.0045 6.0848 0.0045 6.8948V19.6348C0.0045 25.6648 3.9545 29.2348 9.3745 29.2348Z"
        fillRule="evenodd"
        clipRule="evenodd"
    />
</svg>
        