<svg viewBox="0 0 27.890625 27.890625" xmlns="http://www.w3.org/2000/svg"><path d="M13.9427 27.8864C21.6427 27.8864 27.8927 21.6464 27.8927 13.9464C27.8927 6.2464 21.6427 -0.0036 13.9427 -0.0036C6.2527 -0.0036 0.0027 6.2464 0.0027 13.9464C0.0027 21.6464 6.2527 27.8864 13.9427 27.8864ZM13.9427 25.5664C7.5227 25.5664 2.3227 20.3664 2.3227 13.9464C2.3227 7.5164 7.5227 2.3264 13.9427 2.3264C20.3727 2.3264 25.5627 7.5164 25.5627 13.9464C25.5627 20.3664 20.3727 25.5664 13.9427 25.5664ZM13.8927 14.2364C16.1727 14.2364 18.1927 13.3264 19.3627 10.9764C19.0627 10.8164 18.7027 10.7464 18.2827 10.7464H18.2127V10.0064C18.2127 7.6464 16.3427 5.8564 13.8927 5.8564C11.4427 5.8564 9.5727 7.6464 9.5727 10.0064V10.7464H9.5027C9.0827 10.7464 8.7227 10.8164 8.4227 10.9764C9.5827 13.3264 11.6027 14.2364 13.8927 14.2364ZM10.7327 10.0064C10.7327 8.2864 12.1027 6.9964 13.8927 6.9964C15.6827 6.9964 17.0527 8.2864 17.0527 10.0064V10.7464H10.7327ZM20.9627 17.7164L20.3727 12.6164C20.3327 12.3064 20.2527 12.0264 20.1127 11.7964C18.9627 13.8864 17.2027 14.9464 15.2827 15.2864V15.7364C15.2827 16.2164 15.0027 16.5064 14.5227 16.5064H13.2627C12.7827 16.5064 12.4927 16.2164 12.4927 15.7364V15.2864C10.5827 14.9464 8.8227 13.8864 7.6727 11.7964C7.5327 12.0264 7.4527 12.3064 7.4127 12.6164L6.8227 17.7164C6.6127 19.5064 7.4127 20.4664 9.0827 20.4664H18.7027C20.3727 20.4664 21.1627 19.5064 20.9627 17.7164Z" /></svg>