
<svg
    viewBox={0 0 28.243647437926715 29.06640625}
    xmlns="http://www.w3.org/2000/svg"
>
    <path
        fill="inherit"
        d="M14.1222 16.7043C18.6922 16.7043 22.7322 14.9043 25.0622 10.1943C24.4622 9.8443 23.7222 9.6843 22.8622 9.6843H22.6522V8.2343C22.6522 3.5643 18.9622 0.0043 14.1222 0.0043C9.2922 0.0043 5.5922 3.5643 5.5922 8.2343V9.6843H5.3822C4.5222 9.6843 3.7822 9.8443 3.1822 10.1943C5.5222 14.9043 9.5522 16.7043 14.1222 16.7043ZM7.7922 8.2343C7.7922 4.8143 10.5422 2.2043 14.1222 2.2043C17.7022 2.2043 20.4522 4.8143 20.4522 8.2343V9.6843H7.7922ZM28.1722 23.5743L27.0022 13.4543C26.9222 12.7843 26.7522 12.2543 26.4822 11.7843C24.1822 15.9443 20.6522 18.0343 16.8522 18.6943V19.6643C16.8522 20.5943 16.3122 21.1143 15.3822 21.1143H12.8622C11.9322 21.1143 11.3922 20.5943 11.3922 19.6643V18.6943C7.5822 18.0343 4.0622 15.9543 1.7622 11.7943C1.5022 12.2543 1.3422 12.7843 1.2522 13.4543L0.0622 23.5743C-0.3578 27.1243 1.2422 29.0643 4.5622 29.0643H23.6822C27.0122 29.0643 28.6022 27.1243 28.1722 23.5743Z"
        fillRule="evenodd"
        clipRule="evenodd"
    />
</svg>
        