
<svg
    viewBox="0 0 31.5621985284009 35.07640467395585"
    xmlns="http://www.w3.org/2000/svg"
>
    <path
        fill="inherit"
        d="M12.2727 6.1216C12.7727 6.1216 13.1627 5.7116 13.1627 5.2216L13.1827 0.8916C13.1827 0.3916 12.7727 0.0016 12.2727 0.0016C11.7827 0.0016 11.3927 0.3916 11.3927 0.8916L11.3727 5.2216C11.3727 5.7116 11.7827 6.1216 12.2727 6.1216ZM7.8927 7.9416C8.2327 7.5916 8.2427 7.0116 7.8927 6.6716L4.8427 3.5816C4.4827 3.2416 3.9227 3.2516 3.5727 3.5816C3.2227 3.9516 3.2127 4.5116 3.5727 4.8516L6.6127 7.9416C6.9827 8.2816 7.5327 8.2716 7.8927 7.9416ZM16.6627 7.9416C17.0227 8.2716 17.5727 8.2816 17.9227 7.9416L20.9827 4.8716C21.3427 4.5216 21.3327 3.9516 20.9827 3.5916C20.6327 3.2716 20.0727 3.2516 19.7127 3.5916L16.6627 6.6716C16.3127 7.0116 16.3227 7.5916 16.6627 7.9416ZM25.4027 34.4116C30.9827 32.3916 32.8527 27.7516 30.6827 21.7816L29.7727 19.3216C28.9527 17.0616 27.3727 16.0816 26.1427 16.5116C25.8627 16.6216 25.7727 16.8116 25.8627 17.0916L26.2627 18.1816C26.4527 18.7016 26.2727 19.0416 25.9727 19.1516C25.6327 19.2816 25.2827 19.1316 25.0927 18.6116L24.8327 17.8816C24.3527 16.5616 23.1727 15.9916 22.0227 16.4216C21.5027 16.6116 21.3527 16.9116 21.5227 17.3516L22.0527 18.8416C22.2427 19.3616 22.0627 19.7016 21.7627 19.8116C21.4327 19.9316 21.0827 19.7816 20.8927 19.2616L20.3827 17.8816C19.8427 16.3916 18.7127 16.0116 17.6127 16.4216C17.1127 16.6016 16.9227 16.9116 17.0927 17.3516L18.1427 20.2616C18.3327 20.7816 18.1727 21.1216 17.8527 21.2316C17.5227 21.3516 17.1727 21.2016 16.9827 20.6816L13.4227 10.9416C13.0827 9.9816 12.2327 9.5816 11.4327 9.8816C10.5727 10.2016 10.2027 11.0316 10.5427 11.9916L15.7327 26.2616C15.8727 26.6216 15.7227 26.8816 15.4927 26.9616C15.2727 27.0416 15.0527 26.9716 14.7627 26.6716L11.2527 22.9016C10.7327 22.3416 10.2027 22.2216 9.6227 22.4216C8.7327 22.7516 8.3927 23.5616 8.6527 24.2816C8.7627 24.5816 8.9127 24.8016 9.0627 24.9816L13.4027 30.4316C17.0727 35.0116 21.3027 35.9016 25.4027 34.4116ZM6.1227 12.2616C6.1227 11.7716 5.7127 11.3716 5.2227 11.3716H0.9027C0.3927 11.3716 0.0027 11.7716 0.0027 12.2616C0.0027 12.7516 0.3927 13.1616 0.9027 13.1616H5.2227C5.7127 13.1616 6.1227 12.7516 6.1227 12.2616Z"
        fillRule="evenodd"
        clipRule="evenodd"
    />
</svg>
        