<svg viewBox="0 0 29.23046875 22.626953125" xmlns="http://www.w3.org/2000/svg"><path d="M0.0027 12.8947C0.0027 19.1247 3.8927 22.6247 10.5827 22.6247H13.3327C15.8427 22.6247 17.3927 21.4147 17.3927 20.0447C17.3927 19.7447 17.2227 19.5647 16.9227 19.5647H15.7127C15.1327 19.5647 14.8627 19.2647 14.8627 18.9247C14.8627 18.5547 15.1327 18.2547 15.7127 18.2547H16.5127C17.9927 18.2547 18.9627 17.3047 18.9627 16.0247C18.9627 15.4447 18.7327 15.1847 18.2427 15.1847H16.5827C15.9927 15.1847 15.7127 14.8847 15.7127 14.5447C15.7127 14.1647 15.9927 13.8747 16.5827 13.8747H18.1127C19.7727 13.8747 20.5627 12.8947 20.5627 11.6647C20.5627 11.1047 20.3127 10.8247 19.8227 10.8247H16.5827C15.9927 10.8247 15.7127 10.5247 15.7127 10.1847C15.7127 9.8047 15.9927 9.5147 16.5827 9.5147H27.4627C28.5327 9.5147 29.2327 8.8147 29.2327 7.9147C29.2327 6.9547 28.5327 6.2847 27.4627 6.2847H11.5127C11.1327 6.2847 10.9127 6.0447 10.9127 5.7847C10.9127 5.5547 11.0627 5.3447 11.4527 5.1847L16.4327 3.0647C17.1727 2.7447 17.4827 2.2647 17.4827 1.6247C17.4827 0.6447 16.8327 0.0047 16.0127 0.0047C15.6727 0.0047 15.4127 0.0647 15.1727 0.1647L8.2327 2.4747C2.3927 4.4547 0.0027 8.3147 0.0027 12.8947Z" /></svg>