
<svg
    viewBox="0 0 31.422294099934298 35.68256896650594"
    xmlns="http://www.w3.org/2000/svg"
>
    <path
        fill="inherit"
        d="M12.2727 6.1216C12.7727 6.1216 13.1627 5.7116 13.1627 5.2216L13.1827 0.8916C13.1827 0.3916 12.7727 0.0016 12.2727 0.0016C11.7827 0.0016 11.3927 0.3916 11.3927 0.8916L11.3727 5.2216C11.3727 5.7116 11.7827 6.1216 12.2727 6.1216ZM7.8927 7.9416C8.2327 7.5916 8.2427 7.0116 7.8927 6.6716L4.8427 3.5816C4.4827 3.2416 3.9227 3.2516 3.5727 3.5816C3.2227 3.9516 3.2127 4.5116 3.5727 4.8516L6.6127 7.9416C6.9827 8.2816 7.5327 8.2716 7.8927 7.9416ZM16.6627 7.9416C17.0227 8.2716 17.5727 8.2816 17.9227 7.9416L20.9827 4.8716C21.3427 4.5216 21.3327 3.9516 20.9827 3.5916C20.6327 3.2716 20.0727 3.2516 19.7127 3.5916L16.6627 6.6716C16.3127 7.0116 16.3227 7.5916 16.6627 7.9416ZM25.0427 34.9816C30.4727 33.0216 32.7827 28.0316 30.6127 22.0216L29.5827 19.2116C28.5027 16.2516 26.4727 15.0416 24.0727 15.8716C23.4427 15.0416 22.4527 14.7516 21.3827 15.1316C20.9827 15.2816 20.6427 15.4716 20.3127 15.7316C19.6227 14.8216 18.5427 14.4916 17.4227 14.9016C17.1127 15.0116 16.8327 15.1716 16.5527 15.3716L15.0027 11.1016C14.4127 9.4716 12.9427 8.7916 11.4127 9.3416C9.8827 9.9016 9.2027 11.3616 9.7927 12.9916L13.7027 23.7116C13.7127 23.7716 13.7027 23.8316 13.6327 23.8616C13.5727 23.8716 13.5327 23.8616 13.4927 23.8016L11.8927 22.0616C11.0927 21.2216 10.1627 20.9716 9.2327 21.3016C7.9827 21.7416 7.1627 22.9416 7.6827 24.3516C7.8227 24.7416 8.1027 25.2216 8.4127 25.6116L12.9927 31.1416C16.4627 35.3416 20.5127 36.6416 25.0427 34.9816ZM24.4627 33.1916C20.8727 34.5116 17.5127 33.8416 14.3527 30.0216L9.7727 24.5116C9.6427 24.3516 9.5427 24.2016 9.4627 23.9716C9.2927 23.5116 9.4927 23.0216 10.0227 22.8316C10.4427 22.6816 10.7827 22.8416 11.1327 23.2116L14.3027 26.4716C14.8327 27.0116 15.3027 27.0716 15.7527 26.9216C16.2827 26.7116 16.5127 26.1516 16.3127 25.5616L11.4527 12.2516C11.2527 11.7016 11.4827 11.2016 12.0327 10.9916C12.5527 10.8016 13.0527 11.0516 13.2527 11.6116L16.7027 21.1116C16.8827 21.5616 17.3727 21.7516 17.8327 21.5916C18.2627 21.4416 18.5127 20.9616 18.3427 20.5116L17.0927 17.0916C17.2827 16.9116 17.5427 16.7216 17.8027 16.6516C18.4427 16.4016 18.9727 16.6816 19.2227 17.3616L20.3027 20.3416C20.4827 20.8216 20.9827 21.0016 21.4227 20.8516C21.8627 20.6816 22.1227 20.2316 21.9427 19.7516L21.0527 17.3216C21.2327 17.1416 21.5027 16.9716 21.7527 16.8716C22.4127 16.6416 22.9427 16.9116 23.1827 17.5816L23.9227 19.6016C24.0927 20.0716 24.5927 20.2516 25.0327 20.0816C25.4527 19.9316 25.7127 19.4716 25.5527 19.0016L25.0227 17.5316C26.1527 17.1016 27.2227 18.0516 27.9727 20.1016L28.8227 22.4316C30.7027 27.6016 29.0127 31.5316 24.4627 33.1916ZM6.1227 12.2616C6.1227 11.7716 5.7127 11.3716 5.2227 11.3716H0.9027C0.3927 11.3716 0.0027 11.7716 0.0027 12.2616C0.0027 12.7516 0.3927 13.1616 0.9027 13.1616H5.2227C5.7127 13.1616 6.1227 12.7516 6.1227 12.2616Z"
        fillRule="evenodd"
        clipRule="evenodd"
    />
</svg>
        