
<svg
    viewBox="0 0 27.849609375 29.72265625"
    xmlns="http://www.w3.org/2000/svg"
>
    <path
        fill="inherit"
        d="M0.0027 20.1389C0.0027 24.5589 2.8827 28.2689 6.3727 28.2689H10.7327C12.4727 29.1889 14.5727 29.7189 16.9227 29.7189H18.7627C20.4027 29.7189 21.8227 29.6289 22.7627 29.3989C24.5927 28.9389 25.7427 27.6689 25.7427 26.0589C25.7427 25.7189 25.6927 25.4189 25.6027 25.1189C26.5127 24.4289 27.0127 23.4289 27.0127 22.3389C27.0127 21.8089 26.9027 21.2689 26.7127 20.8489C27.3327 20.2189 27.6727 19.3089 27.6727 18.3489C27.6727 17.7289 27.5227 17.0789 27.2627 16.5989C27.6327 16.0689 27.8527 15.3089 27.8527 14.5189C27.8527 12.5489 26.3027 10.9889 24.3327 10.9889H19.3427C19.0427 10.9889 18.8527 10.8589 18.8527 10.5989C18.8527 9.1689 21.0927 5.8389 21.0927 3.1589C21.0927 1.3089 19.8127 -0.0011 18.0427 -0.0011C16.7527 -0.0011 15.8727 0.6689 15.0127 2.3089C13.4127 5.3889 11.5027 8.1489 8.3827 11.9489H5.8827C2.6227 11.9489 0.0027 15.6289 0.0027 20.1389ZM7.6927 20.0689C7.6927 17.2089 8.3427 15.3989 10.1127 12.9989C12.1027 10.3489 14.8427 7.1789 16.8327 3.2389C17.3227 2.2389 17.6527 2.0189 18.1327 2.0189C18.6927 2.0189 19.0727 2.4189 19.0727 3.1589C19.0727 5.2889 16.8327 8.5189 16.8327 10.5989C16.8327 12.0989 18.0627 13.0189 19.6327 13.0189H24.3327C25.1827 13.0189 25.8227 13.6589 25.8227 14.5189C25.8227 15.1489 25.6227 15.5489 25.1127 16.0689C24.8727 16.2789 24.8427 16.5589 25.0427 16.8189C25.4727 17.4489 25.6527 17.8289 25.6527 18.3489C25.6527 18.9589 25.3627 19.4989 24.7627 19.9489C24.4327 20.2089 24.2927 20.5489 24.4827 20.9589C24.8327 21.5789 24.9927 21.8589 24.9927 22.3389C24.9927 23.0389 24.5427 23.5689 23.5827 24.0589C23.2827 24.2389 23.2127 24.4889 23.3427 24.7689C23.6627 25.5889 23.7027 25.7189 23.7027 26.0589C23.7027 26.6889 23.2427 27.1889 22.2827 27.4389C21.5027 27.6289 20.2627 27.7089 18.7727 27.7089H17.0727C11.4427 27.7089 7.6927 24.5089 7.6927 20.0689ZM2.0227 20.1389C2.0227 16.7389 3.8527 13.9689 5.8827 13.9689H7.0727C6.0927 15.8089 5.6727 17.7189 5.6727 20.0289C5.6727 22.4789 6.5527 24.6089 8.1227 26.2389H6.3727C4.0627 26.2389 2.0227 23.4489 2.0227 20.1389Z"
        fillRule="evenodd"
        clipRule="evenodd"
    />
</svg>
        