
<svg
    viewBox={0 0 26.291688063005004 26.6760389593339}
    xmlns="http://www.w3.org/2000/svg"
>
    <path
        fill="inherit"
        d="M23.2524 23.6642C26.6624 20.2542 27.2024 16.0342 24.8724 11.1142L21.7924 4.6342C21.5924 4.1842 21.3124 3.8142 21.0224 3.5242C20.0024 2.4942 18.5124 2.5542 17.5224 3.5342C16.8524 4.2042 16.6524 5.2042 17.0924 6.2842L18.0024 8.4742C18.0324 8.5242 18.0324 8.5842 17.9924 8.6242C17.9324 8.6642 17.8824 8.6542 17.8324 8.6142L10.0724 0.8542C8.9524 -0.2758 7.5324 -0.2758 6.4524 0.8042C6.0524 1.1842 5.8424 1.6942 5.8224 2.2142C4.7024 1.3542 3.4624 1.3742 2.5024 2.3342C1.5624 3.2742 1.5324 4.5642 2.3424 5.6542C1.8424 5.6542 1.3824 5.8742 1.0224 6.2342C0.0224 7.2242 0.0524 8.5942 1.1224 9.6642L2.2024 10.7442C1.6724 10.7242 1.1324 10.9742 0.7224 11.3842C-0.2876 12.3942 -0.2376 13.8342 0.8424 14.9142L9.1624 23.2242C13.6824 27.7542 19.1724 27.7542 23.2524 23.6642ZM21.8724 22.3742C18.4524 25.7942 14.1624 25.6842 10.2824 21.7942L2.2724 13.7742C1.8424 13.3642 1.8324 12.8042 2.2324 12.4142C2.6224 12.0142 3.2024 12.0142 3.6124 12.4242L8.5624 17.3642C8.9124 17.7142 9.4324 17.6742 9.7524 17.3642C10.0924 17.0342 10.1324 16.4942 9.7724 16.1442L2.3924 8.7442C1.9824 8.3342 1.9524 7.7942 2.3524 7.3942C2.7524 6.9842 3.3324 6.9842 3.7424 7.3942L10.6324 14.2942C10.9924 14.6542 11.5224 14.5942 11.8424 14.2842C12.1724 13.9542 12.2224 13.4242 11.8624 13.0642L3.7724 4.9742C3.3624 4.5642 3.3324 3.9842 3.7424 3.5942C4.1324 3.1942 4.7124 3.2142 5.1224 3.6242L13.2224 11.7142C13.5524 12.0542 14.0824 12.0442 14.4124 11.7142C14.7524 11.3742 14.7824 10.8242 14.4524 10.4942L7.5424 3.5942C7.1324 3.1842 7.1224 2.6242 7.5224 2.2142C7.9324 1.8142 8.4924 1.8242 8.9024 2.2342L18.4124 11.7542C18.8924 12.2442 19.4724 12.2342 19.8624 11.8342C20.2024 11.4942 20.3524 11.0442 20.0824 10.3342L18.3724 5.8442C18.1424 5.2342 18.3624 4.7442 18.8224 4.5242C19.3424 4.2942 19.8124 4.5342 20.1124 5.1742L23.2824 11.8742C25.3924 16.3642 24.5724 19.6742 21.8724 22.3742Z"
        fillRule="evenodd"
        clipRule="evenodd"
    />
</svg>
        