
<svg
    viewBox={0 0 26.82080078125 29.697043205633236}
    xmlns="http://www.w3.org/2000/svg"
>
    <path
        fill="inherit"
        d="M23.6623 23.1048C23.8223 22.7648 23.9723 22.4048 24.1023 22.0248C24.7523 20.3448 25.3423 18.4948 25.9623 16.4848C26.3123 15.3348 26.8223 13.8748 26.8223 13.2248C26.8223 12.4848 26.2923 11.9948 25.5123 11.9948C24.6423 11.9948 24.1423 12.5348 23.5023 13.8348L21.6023 17.8248C21.4023 18.2648 21.1923 18.4248 20.9723 18.4248C20.6823 18.4248 20.4923 18.2648 20.4923 17.7848V3.4448C20.4923 2.6348 19.8323 1.9848 19.0323 1.9848C18.2223 1.9848 17.5623 2.6348 17.5623 3.4448V13.6948C17.1923 13.5648 16.7823 13.4548 16.3523 13.3748V1.4748C16.3523 0.6748 15.6923 0.0048 14.8823 0.0048C14.0823 0.0048 13.4123 0.6748 13.4123 1.4748V12.3848C13.2023 12.4048 13.1323 12.4048 12.9823 12.4448ZM9.2023 8.6448L12.1223 11.5848V2.6348C12.1223 1.8348 11.4723 1.1748 10.6623 1.1748C9.8523 1.1748 9.2023 1.8348 9.2023 2.6348ZM24.6023 29.3948C25.0023 29.7948 25.7023 29.8048 26.0923 29.3948C26.4923 28.9748 26.5023 28.3148 26.0923 27.9048L1.8023 3.6248C1.3923 3.2148 0.7223 3.2148 0.3023 3.6248C-0.0977 4.0348 -0.0977 4.7148 0.3023 5.1148ZM6.1223 5.5948L7.9723 7.4248V6.8948C7.9723 6.0848 7.3123 5.4248 6.5023 5.4248C6.3423 5.4248 6.2223 5.4948 6.1223 5.5948ZM14.4023 29.2348C16.8523 29.2348 18.7923 28.6448 20.3223 27.4848L5.0323 12.1848V19.6348C5.0323 25.6648 8.9823 29.2348 14.4023 29.2348Z"
        fillRule="evenodd"
        clipRule="evenodd"
    />
</svg>
        