
<svg
    viewBox="0 0 31.476493874127073 36.4765625"
    xmlns="http://www.w3.org/2000/svg"
>
    <path
        fill="inherit"
        d="M11.3737 6.0588C11.5237 6.0588 11.6437 5.9788 11.6937 5.7988C12.0537 3.7488 12.0537 3.7288 14.1237 3.3488C14.3037 3.3088 14.4137 3.1988 14.4137 3.0388C14.4137 2.8588 14.3037 2.7488 14.1237 2.7088C12.0537 2.2988 12.1137 2.2788 11.6937 0.2688C11.6437 0.0988 11.5437 -0.0012 11.3737 -0.0012C11.2137 -0.0012 11.0837 0.1088 11.0637 0.2688C10.6237 2.2788 10.6937 2.2988 8.6137 2.7088C8.4337 2.7488 8.3237 2.8688 8.3237 3.0388C8.3237 3.1888 8.4337 3.3088 8.6137 3.3488C10.6937 3.7588 10.6637 3.7488 11.0637 5.7988C11.0837 5.9588 11.2137 6.0588 11.3737 6.0588ZM20.5237 9.7488C20.7437 9.7488 20.9137 9.5988 20.9337 9.3488C21.3237 6.1388 21.4737 6.0588 24.7437 5.5088C25.0237 5.4788 25.1737 5.3488 25.1737 5.1088C25.1737 4.8988 25.0237 4.7588 24.8037 4.7188C21.5037 4.0888 21.3237 4.0988 20.9337 0.8888C20.9137 0.6388 20.7437 0.4888 20.5237 0.4888C20.3137 0.4888 20.1537 0.6388 20.1437 0.8788C19.7037 4.1388 19.6037 4.2388 16.2537 4.7188C16.0337 4.7488 15.8837 4.8988 15.8837 5.1088C15.8837 5.3288 16.0337 5.4788 16.2537 5.5088C19.6037 6.1688 19.6837 6.1488 20.1437 9.3788C20.1537 9.5988 20.3137 9.7488 20.5237 9.7488ZM11.6437 8.4788C11.4037 8.6988 11.2337 8.9688 11.1337 9.2588C10.1437 8.6688 9.0237 8.8188 8.1437 9.7088C7.7537 10.0988 7.5337 10.5988 7.5237 11.1188C6.3937 10.2588 5.1537 10.2788 4.1837 11.2488C3.2537 12.1788 3.2237 13.4688 4.0337 14.5588C3.5437 14.5588 3.0737 14.7788 2.7237 15.1388C1.7137 16.1288 1.7537 17.4988 2.8137 18.5788L3.8937 19.6488C3.3637 19.6288 2.8337 19.8788 2.4037 20.2988C1.4037 21.2988 1.4637 22.7388 2.5437 23.8188L10.8537 32.1288C14.6137 35.8988 19.0537 36.5288 22.8037 34.2788C24.8137 34.0288 26.7437 33.0488 28.4337 31.3488C31.8437 27.9488 32.3937 23.7088 30.0637 18.7988L26.9737 12.2888C26.4137 11.0888 25.4737 10.4588 24.3537 10.4588C23.6437 10.4588 22.5037 10.8588 22.0937 11.9588C21.1537 11.4588 20.0137 11.6488 19.2237 12.4588L19.2137 12.4688L15.2537 8.5288C14.1237 7.3988 12.7237 7.3988 11.6437 8.4788ZM19.5237 17.5088L12.4237 10.4188C12.4537 10.2288 12.5537 10.0488 12.7137 9.8888C13.1137 9.4888 13.6737 9.5188 14.0837 9.9288L18.5837 14.4188C18.6037 14.6788 18.6937 14.9288 18.7837 15.1988L19.7037 17.3788C19.7137 17.4288 19.7237 17.4888 19.6837 17.5288C19.6337 17.5788 19.5737 17.5688 19.5237 17.5088ZM23.5737 31.2788C20.1437 34.6988 15.8637 34.5888 11.9737 30.6888L3.9537 22.6788C3.5437 22.2688 3.5137 21.7288 3.9237 21.3188C4.3237 20.9188 4.8937 20.9188 5.3037 21.3288L10.2437 26.2788C10.6137 26.6288 11.1337 26.5788 11.4437 26.2588C11.7737 25.9388 11.8237 25.3988 11.4737 25.0488L4.0837 17.6488C3.6737 17.2388 3.6537 16.6888 4.0437 16.2988C4.4437 15.8988 5.0137 15.8988 5.4437 16.3088L12.3337 23.1988C12.6837 23.5588 13.2237 23.5188 13.5337 23.1888C13.8637 22.8588 13.9137 22.3288 13.5637 21.9688L5.4737 13.8788C5.0537 13.4688 5.0337 12.8888 5.4437 12.4988C5.8237 12.0988 6.3937 12.1288 6.8237 12.5388L14.9137 20.6288C15.2437 20.9588 15.7737 20.9488 16.1037 20.6188C16.4437 20.2788 16.4737 19.7388 16.1337 19.3988L9.2437 12.4988C8.8337 12.0888 8.8137 11.5288 9.2137 11.1288C9.6237 10.7188 10.1737 10.7288 10.5937 11.1588L20.1137 20.6688C20.5937 21.1488 21.1537 21.1488 21.5637 20.7388C21.9037 20.3988 22.0537 19.9488 21.7837 19.2488L20.0737 14.7488C19.8337 14.1488 20.0437 13.6488 20.5237 13.4288C21.0237 13.1888 21.4737 13.4288 21.7937 14.0788L24.9637 20.7988C27.0837 25.2788 26.2637 28.5788 23.5737 31.2788ZM26.5637 20.0288L23.5337 13.6288C23.4837 13.4988 23.4437 13.3588 23.4437 13.1888C23.4437 12.7588 23.8137 12.3188 24.4037 12.3188C24.7737 12.3188 25.1537 12.5788 25.3637 13.0188L28.4637 19.5688C30.5837 24.0388 29.7737 27.3588 27.0537 30.0388C26.9237 30.1788 26.7937 30.2988 26.6637 30.4188C28.4537 27.4388 28.4237 23.9488 26.5637 20.0288ZM3.9237 36.4788C4.1337 36.4788 4.2337 36.3488 4.2637 36.1588C4.7537 33.4788 4.7437 33.4288 7.5437 32.8988C7.7537 32.8388 7.8637 32.7488 7.8637 32.5388C7.8637 32.3388 7.7537 32.2388 7.5437 32.1988C4.7537 31.6388 4.8237 31.5788 4.2637 28.9188C4.2337 28.7288 4.1337 28.5988 3.9237 28.5988C3.7337 28.5988 3.6337 28.7288 3.5837 28.9188C3.0237 31.5788 3.1337 31.6388 0.3137 32.1988C0.1237 32.2388 0.0037 32.3388 0.0037 32.5388C0.0037 32.7488 0.1237 32.8388 0.3137 32.8988C3.1337 33.4388 3.0737 33.4788 3.5837 36.1588C3.6337 36.3488 3.7337 36.4788 3.9237 36.4788Z"
        fillRule="evenodd"
        clipRule="evenodd"
    />
</svg>
        