
<svg
    viewBox={0 0 30.1875 23.44872552403483}
    xmlns="http://www.w3.org/2000/svg"
>
    <path
        fill="inherit"
        d="M0.0027 13.3004C0.0027 19.3704 4.0727 23.4504 10.7827 23.4504H13.9227C17.2227 23.4504 19.1727 21.8804 19.1927 19.2104C20.2627 18.8804 20.8927 18.0104 20.8927 16.8204C20.8927 16.3804 20.8127 15.9604 20.6827 15.5604C21.8327 15.1904 22.5427 14.2304 22.5427 12.9904C22.5427 12.6604 22.5027 12.3204 22.3927 11.9804H27.1627C29.0027 11.9804 30.1827 10.7704 30.1827 9.0704C30.1827 7.3604 29.0027 6.1504 27.1627 6.1504H15.2027C15.1327 6.1504 15.0827 6.1304 15.0827 6.0404C15.0827 5.9904 15.1027 5.9304 15.1727 5.9204L17.4727 4.9604C18.5927 4.4904 19.1827 3.6504 19.1827 2.6304C19.1827 1.2304 18.2927 0.0004 16.7227 0.0004C16.2827 -0.0096 15.7127 0.0704 15.2127 0.2604L8.1027 2.7904C2.7227 4.7004 0.0027 8.2304 0.0027 13.3004ZM1.9727 13.3904C1.9727 9.3704 3.8327 6.2904 8.7227 4.5404L15.8227 2.0004C16.0227 1.9204 16.2127 1.8904 16.4627 1.8904C16.9627 1.8904 17.3927 2.2604 17.3927 2.8304C17.3927 3.3204 17.1027 3.6004 16.6127 3.8204L12.2327 5.7604C11.5227 6.0904 11.2927 6.5404 11.2927 7.0404C11.2927 7.6404 11.7727 8.0704 12.4127 8.0704H27.3027C27.9227 8.0704 28.3427 8.4804 28.3427 9.0704C28.3427 9.6704 27.9227 10.0604 27.3027 10.0604H16.6827C16.1827 10.0604 15.7927 10.4904 15.7927 10.9904C15.7927 11.4704 16.1827 11.9004 16.6827 11.9004H20.5127C20.6127 12.1304 20.7027 12.4704 20.7027 12.7404C20.7027 13.4504 20.2227 13.9104 19.4727 13.9104H16.1427C15.6127 13.9104 15.2427 14.3304 15.2427 14.8104C15.2427 15.2904 15.6127 15.7104 16.1427 15.7104H18.8527C18.9627 15.9604 19.0327 16.3004 19.0327 16.5704C19.0327 17.3004 18.5627 17.7204 17.8327 17.7204H15.5827C15.0627 17.7204 14.6927 18.1704 14.6927 18.6504C14.6927 19.1304 15.0627 19.5404 15.5827 19.5404H17.2227C17.2227 20.8204 15.9127 21.5504 13.6327 21.5504H11.0227C5.2327 21.5504 1.9727 18.4604 1.9727 13.3904Z"
        fillRule="evenodd"
        clipRule="evenodd"
    />
</svg>
        