
<svg
    viewBox={0 0 27.890625 27.890625}
    xmlns="http://www.w3.org/2000/svg"
>
    <path
        fill="inherit"
        d="M13.9427 27.8864C21.6427 27.8864 27.8927 21.6264 27.8927 13.9464C27.8927 6.2464 21.6427 -0.0036 13.9427 -0.0036C6.2627 -0.0036 0.0027 6.2464 0.0027 13.9464C0.0027 21.6264 6.2627 27.8864 13.9427 27.8864ZM18.1527 11.6364C18.1327 13.4364 17.6327 14.5364 16.6827 15.8164C15.5127 17.3664 14.0127 19.1664 12.8627 21.3664C12.5927 21.9464 12.3227 22.3164 11.7727 22.3164C11.1827 22.3164 10.7227 21.8864 10.7227 21.1864C10.7227 19.8664 11.9927 17.9964 11.9927 16.9564C11.9927 16.3964 11.5527 16.0364 10.8427 16.0364H8.1627C7.4227 16.0364 6.8527 15.4364 6.8527 14.6864C6.8527 14.2864 7.0027 13.9164 7.2227 13.6964C7.3527 13.6064 7.3827 13.5364 7.2427 13.4364C7.0527 13.2464 6.9427 12.8564 6.9427 12.5064C6.9427 11.9864 7.1827 11.5964 7.5427 11.3764C7.6727 11.3064 7.6827 11.1964 7.6027 11.0764C7.4227 10.8664 7.3127 10.5564 7.3127 10.2164C7.3127 9.6064 7.7227 9.1564 8.1727 8.9864C8.2627 8.9564 8.2727 8.8564 8.2127 8.7664C8.1327 8.6164 8.0527 8.3664 8.0527 8.0964C8.0527 7.3664 8.6427 7.0264 9.2527 6.8664C9.6627 6.7664 10.3927 6.6864 11.3627 6.6964L12.4127 6.7164C15.9527 6.7564 18.1927 8.8464 18.1527 11.6364ZM21.8727 11.5764C21.8727 13.9064 20.5727 15.7464 18.8627 15.7464H17.7727C18.4027 14.9064 19.1527 13.5664 19.1827 11.6464C19.2127 9.9164 18.6227 8.4064 17.2227 7.3964H18.5927C20.4927 7.3964 21.8727 9.2964 21.8727 11.5764Z"
        fillRule="evenodd"
        clipRule="evenodd"
    />
</svg>
        