
<svg
    viewBox="0 0 25.94429172313219 25.92201399769698"
    xmlns="http://www.w3.org/2000/svg"
>
    <path
        fill="inherit"
        d="M9.503 22.8123C13.763 27.0623 19.083 26.7923 22.913 22.9823C25.983 19.8923 26.603 16.6923 25.303 12.8323C24.603 10.6723 23.453 8.3923 22.063 5.7823C21.513 4.7123 20.833 3.3223 20.363 2.8723C19.853 2.3523 19.133 2.3723 18.573 2.9223C17.963 3.5423 17.993 4.2723 18.453 5.6523L19.943 9.8123C20.103 10.2523 20.083 10.5223 19.913 10.6923C19.723 10.8823 19.463 10.9023 19.123 10.5623L8.993 0.4223C8.423 -0.1377 7.473 -0.1377 6.913 0.4223C6.343 0.9923 6.343 1.9223 6.913 2.5023L14.163 9.7423C13.803 9.9123 13.433 10.1323 13.063 10.3723L4.663 1.9623C4.103 1.3923 3.153 1.3923 2.583 1.9623C2.023 2.5423 2.023 3.4723 2.583 4.0423L10.883 12.3423C10.603 12.6723 10.343 13.0223 10.103 13.3823L2.503 5.7623C1.923 5.1923 0.993 5.1923 0.423 5.7623C-0.137 6.3423 -0.137 7.2723 0.423 7.8423L8.693 16.1023C8.513 16.5623 8.403 17.0323 8.313 17.4723L2.563 11.7223C2.003 11.1523 1.063 11.1523 0.493 11.7223C-0.067 12.3023 -0.067 13.2323 0.493 13.8023Z"
        fillRule="evenodd"
        clipRule="evenodd"
    />
</svg>
        