
<svg
    viewBox="0 0 36.86012689586815 33.59187620776571"
    xmlns="http://www.w3.org/2000/svg"
>
    <path
        fill="inherit"
        d="M11.1387 5.6474C11.5987 5.5574 11.9287 5.0774 11.8187 4.6374L10.9787 0.6874C10.8687 0.2074 10.3987 -0.0726 9.9487 0.0174C9.4887 0.1174 9.1587 0.5674 9.2687 1.0474L10.1087 4.9774C10.2187 5.4274 10.6587 5.7574 11.1387 5.6474ZM6.0387 7.0074C6.3787 7.3474 6.9387 7.3474 7.2687 7.0074C7.5987 6.6674 7.6087 6.1274 7.2687 5.7874L4.3987 2.9274C4.0387 2.5774 3.5187 2.5874 3.1787 2.9274C2.8387 3.2674 2.8287 3.7874 3.1787 4.1474ZM17.0287 6.4874C16.7987 6.7074 16.6187 6.9774 16.5087 7.2674C15.5287 6.6774 14.4187 6.8274 13.5287 7.7174C13.1387 8.1074 12.9187 8.6074 12.8987 9.1274C11.7787 8.2674 10.5387 8.2874 9.5787 9.2574C8.6387 10.1874 8.6087 11.4774 9.4187 12.5674C8.9287 12.5674 8.4587 12.7874 8.0987 13.1474C7.1087 14.1374 7.1287 15.5074 8.1987 16.5874L9.2787 17.6574C8.7487 17.6374 8.2087 17.8874 7.7987 18.3074C6.7887 19.3074 6.8487 20.7474 7.9287 21.8274L16.2387 30.1374C20.0087 33.9074 24.4387 34.5374 28.1887 32.2874C30.1987 32.0374 32.1287 31.0574 33.8387 29.3574C37.2287 25.9574 37.7687 21.7174 35.4487 16.8074L32.3587 10.2974C31.7987 9.0974 30.8487 8.4674 29.7287 8.4674C29.0187 8.4674 27.8887 8.8674 27.4787 9.9674C26.5287 9.4674 25.3987 9.6574 24.6087 10.4674L24.5887 10.4774L20.6587 6.5374C19.5087 5.4074 18.1087 5.4074 17.0287 6.4874ZM24.9087 15.5174L17.8087 8.4274C17.8487 8.2374 17.9487 8.0574 18.0987 7.8974C18.4987 7.4974 19.0587 7.5274 19.4787 7.9374L23.9587 12.4274C24.0087 12.6874 24.0687 12.9374 24.1787 13.2074L25.0887 15.3874C25.1087 15.4374 25.1087 15.4974 25.0687 15.5374C25.0187 15.5874 24.9587 15.5774 24.9087 15.5174ZM28.9487 29.2874C25.5387 32.7074 21.2387 32.5974 17.3587 28.6974L9.3487 20.6874C8.9287 20.2774 8.9087 19.7374 9.3087 19.3274C9.6987 18.9274 10.2787 18.9274 10.6887 19.3374L15.6387 24.2874C15.9887 24.6374 16.5087 24.5874 16.8387 24.2674C17.1687 23.9474 17.2187 23.4074 16.8687 23.0574L9.4687 15.6574C9.0587 15.2474 9.0287 14.6974 9.4287 14.3074C9.8387 13.9074 10.4187 13.9074 10.8287 14.3174L17.7187 21.2074C18.0687 21.5674 18.5987 21.5274 18.9187 21.1974C19.2487 20.8674 19.2987 20.3374 18.9487 19.9774L10.8487 11.8874C10.4387 11.4774 10.4287 10.8974 10.8287 10.5074C11.2087 10.1074 11.7987 10.1374 12.2087 10.5474L20.2987 18.6374C20.6287 18.9674 21.1587 18.9574 21.4887 18.6274C21.8287 18.2874 21.8587 17.7474 21.5287 17.4074L14.6287 10.5074C14.2187 10.0974 14.1987 9.5374 14.6087 9.1374C15.0087 8.7274 15.5687 8.7374 15.9787 9.1674L25.4987 18.6774C25.9687 19.1574 26.5487 19.1574 26.9387 18.7474C27.2887 18.4074 27.4387 17.9574 27.1587 17.2574L25.4487 12.7574C25.2187 12.1574 25.4387 11.6574 25.9087 11.4374C26.4287 11.1974 26.8787 11.4374 27.1887 12.0874L30.3587 18.8074C32.4787 23.2874 31.6487 26.5874 28.9487 29.2874ZM4.6587 11.5574C5.1087 11.6374 5.5887 11.3674 5.6687 10.8874C5.7687 10.4274 5.4787 9.9874 4.9987 9.8774L1.0487 9.0274C0.5387 8.9174 0.0787 9.2474 0.0087 9.7374C-0.0613 10.1874 0.2387 10.6274 0.6887 10.7274ZM31.9487 18.0374L28.9087 11.6374C28.8687 11.5074 28.8387 11.3674 28.8387 11.1974C28.8387 10.7674 29.1987 10.3274 29.7887 10.3274C30.1587 10.3274 30.5387 10.5874 30.7487 11.0274L33.8487 17.5774C35.9687 22.0474 35.1587 25.3674 32.4387 28.0474C32.3187 28.1874 32.1787 28.3074 32.0387 28.4274C33.8487 25.4474 33.8187 21.9574 31.9487 18.0374Z"
        fillRule="evenodd"
        clipRule="evenodd"
    />
</svg>
        