
<svg
    viewBox="0 0 25.169921875 25.169921875"
    xmlns="http://www.w3.org/2000/svg"
>
    <path
        fill="inherit"
        d="M4.2937 25.1692H20.8737C23.7437 25.1692 25.1737 23.7592 25.1737 20.9492V4.2392C25.1737 1.4192 23.7437 -0.0008 20.8737 -0.0008H4.2937C1.4337 -0.0008 0.0037 1.4192 0.0037 4.2392V20.9492C0.0037 23.7592 1.4337 25.1692 4.2937 25.1692ZM6.7937 15.2392V7.6292C6.7937 7.1392 7.2037 6.7092 7.7237 6.7092C8.2037 6.7092 8.6237 7.1392 8.6237 7.6292V12.4092C8.8337 12.2892 9.0337 12.1592 9.2937 12.0492V5.0592C9.2937 4.5692 9.7037 4.1692 10.2037 4.1692C10.6937 4.1692 11.1137 4.5692 11.1137 5.0592V11.4592C11.3437 11.4192 11.5837 11.3892 11.8237 11.3592V4.3592C11.8237 3.8792 12.2237 3.4592 12.7237 3.4592C13.2337 3.4592 13.6337 3.8792 13.6337 4.3592V11.4392C13.8637 11.5092 14.0937 11.5892 14.3137 11.6492V5.5492C14.3137 5.0592 14.7137 4.6492 15.2137 4.6492C15.6937 4.6492 16.1037 5.0592 16.1037 5.5492V14.1392C16.1037 14.3792 16.2037 14.4892 16.3837 14.4892C16.5037 14.4892 16.6237 14.4092 16.7237 14.1492L17.8737 11.7392C18.2537 10.9692 18.5537 10.6392 19.1037 10.6392C19.5737 10.6392 19.9237 10.9492 19.9237 11.3992C19.9237 11.7892 19.6037 12.6492 19.3837 13.3392C18.8837 15.0292 18.4037 16.4792 17.7737 17.6892C16.6437 20.0192 14.9337 21.0092 12.4437 21.0092C9.1237 21.0092 6.7937 18.8092 6.7937 15.2392Z"
        fillRule="evenodd"
        clipRule="evenodd"
    />
</svg>
        