
<svg
    viewBox={0 0 28.9296875 28.642578125}
    xmlns="http://www.w3.org/2000/svg"
>
    <path
        fill="inherit"
        d="M4.2937 22.3119H6.6337V24.4019C6.6337 27.2219 8.0537 28.6419 10.9237 28.6419H24.6537C27.4937 28.6419 28.9337 27.2219 28.9337 24.4019V10.5719C28.9337 7.7519 27.4937 6.3319 24.6537 6.3319H22.3037V4.2419C22.3037 1.4219 20.8637 0.0019 18.0237 0.0019H4.2937C1.4237 0.0019 0.0037 1.4219 0.0037 4.2419V18.0719C0.0037 20.8919 1.4237 22.3119 4.2937 22.3119ZM4.3237 20.1119C2.9537 20.1119 2.2037 19.3719 2.2037 17.9519V4.3619C2.2037 2.9419 2.9537 2.2019 4.3237 2.2019H17.9737C19.3337 2.2019 20.0937 2.9419 20.0937 4.3619V6.3319H10.9237C8.0537 6.3319 6.6337 7.7419 6.6337 10.5719V20.1119ZM10.9537 26.4419C9.5937 26.4419 8.8337 25.7019 8.8337 24.2819V10.6919C8.8337 9.2719 9.5937 8.5319 10.9537 8.5319H24.6137C25.9637 8.5319 26.7237 9.2719 26.7237 10.6919V24.2819C26.7237 25.7019 25.9637 26.4419 24.6137 26.4419ZM12.6637 19.7419C12.6637 22.8219 14.6537 24.7219 17.5237 24.7219C19.6637 24.7219 21.1137 23.8419 22.0937 21.8319C22.6237 20.7919 23.0337 19.5519 23.4737 18.1019C23.6537 17.5119 23.9137 16.7719 23.9137 16.4619C23.9137 16.0619 23.6237 15.7919 23.2137 15.7919C22.7637 15.7919 22.4937 16.0819 22.1637 16.7319L21.1937 18.8019C21.0937 19.0319 21.0037 19.1019 20.8737 19.1019C20.7437 19.1019 20.6537 19.0019 20.6537 18.7819V11.4119C20.6537 11.0019 20.3037 10.6519 19.8937 10.6519C19.4537 10.6519 19.1137 11.0019 19.1137 11.4119V16.6519C18.9337 16.6019 18.7437 16.5419 18.5237 16.4919V10.4019C18.5237 9.9819 18.1837 9.6419 17.7637 9.6419C17.3337 9.6419 16.9937 9.9819 16.9937 10.4019V16.4219C16.7937 16.4319 16.5737 16.4619 16.3637 16.5019V11.0019C16.3637 10.5719 16.0237 10.2419 15.5737 10.2419C15.1637 10.2419 14.8037 10.5719 14.8037 11.0019V16.9919C14.5737 17.0919 14.3937 17.2119 14.2337 17.3119V13.1919C14.2337 12.7719 13.8637 12.4119 13.4537 12.4119C13.0337 12.4119 12.6637 12.7719 12.6637 13.1919Z"
        fillRule="evenodd"
        clipRule="evenodd"
    />
</svg>
        