
<svg
    viewBox="0 0 27.890625 27.890625"
    xmlns="http://www.w3.org/2000/svg"
>
    <path
        fill="inherit"
        d="M13.9427 27.8927C21.6427 27.8927 27.8927 21.6427 27.8927 13.9427C27.8927 6.2627 21.6427 0.0027 13.9427 0.0027C6.2627 0.0027 0.0027 6.2627 0.0027 13.9427C0.0027 21.6427 6.2627 27.8927 13.9427 27.8927ZM13.8927 14.2627C11.5427 14.2627 9.4427 13.3327 8.2627 10.9127C8.5427 10.7427 8.9127 10.6627 9.3227 10.6627H9.4327V9.9227C9.4327 7.4827 11.3727 5.6227 13.8927 5.6227C16.4027 5.6227 18.3427 7.4827 18.3427 9.9227V10.6627H18.4527C18.8827 10.6627 19.2327 10.7427 19.5127 10.9127C18.3327 13.3327 16.2427 14.2627 13.8927 14.2627ZM10.6327 10.6627H17.1427V9.9227C17.1427 8.1527 15.7327 6.8127 13.8927 6.8127C12.0427 6.8127 10.6327 8.1527 10.6327 9.9227ZM6.6027 17.8527L7.2027 12.6027C7.2427 12.2727 7.3427 12.0027 7.4827 11.7727C8.6527 13.9227 10.4827 15.0127 12.4527 15.3527V15.8227C12.4527 16.3227 12.7427 16.6127 13.2527 16.6127H14.5327C15.0427 16.6127 15.3227 16.3227 15.3227 15.8227V15.3527C17.2927 15.0127 19.1127 13.9227 20.3027 11.7727C20.4427 12.0027 20.5327 12.2727 20.5727 12.6027L21.1827 17.8527C21.3827 19.7027 20.5727 20.7027 18.8527 20.7027H8.9327C7.2027 20.7027 6.4027 19.7027 6.6027 17.8527Z"
        fillRule="evenodd"
        clipRule="evenodd"
    />
</svg>
        