
<svg
    viewBox={0 0 26.008231599934298 30.733350216505936}
    xmlns="http://www.w3.org/2000/svg"
>
    <path
        fill="inherit"
        d="M6.8327 -0.002C3.0627 -0.002 0.0027 3.058 0.0027 6.838C0.0027 8.458 0.5727 9.968 1.5127 11.138C1.7527 11.428 2.0227 11.538 2.2827 11.538C2.9527 11.538 3.5227 10.748 2.9527 10.058C2.2127 9.188 1.7927 8.068 1.7927 6.838C1.7927 4.048 4.0427 1.788 6.8327 1.788C9.6227 1.788 11.8627 4.048 11.8627 6.838V7.118C11.8827 7.738 12.3027 8.008 12.7427 8.008C13.1627 8.008 13.6027 7.708 13.6427 7.228C13.6627 7.138 13.6627 7.018 13.6627 6.838C13.6627 3.058 10.6127 -0.002 6.8327 -0.002ZM19.6327 30.038C25.0627 28.068 27.3727 23.088 25.1927 17.078L24.1727 14.278C23.0927 11.308 21.0527 10.088 18.6727 10.928C18.0327 10.088 17.0527 9.798 15.9727 10.198C15.5727 10.338 15.2327 10.538 14.9027 10.788C14.2027 9.868 13.1227 9.538 12.0027 9.958C11.7027 10.058 11.4127 10.228 11.1427 10.418L9.5927 6.148C8.9927 4.528 7.5327 3.838 6.0127 4.388C4.4827 4.948 3.8027 6.408 4.3727 8.038L8.2827 18.758C8.3027 18.828 8.2827 18.878 8.2127 18.908C8.1627 18.938 8.1227 18.908 8.0827 18.858L6.4827 17.118C5.6827 16.268 4.7427 16.028 3.8327 16.348C2.5827 16.798 1.7627 17.988 2.2827 19.398C2.4027 19.798 2.6927 20.288 2.9927 20.658L7.5727 26.198C11.0427 30.388 15.0927 31.688 19.6327 30.038ZM19.0627 28.248C15.4627 29.558 12.1027 28.888 8.9427 25.078L4.3727 19.568C4.2227 19.398 4.1327 19.248 4.0427 19.028C3.8827 18.578 4.0727 18.088 4.6027 17.898C5.0327 17.728 5.3827 17.898 5.7327 18.268L8.8827 21.538C9.4227 22.078 9.8827 22.138 10.3527 21.968C10.8827 21.768 11.1127 21.218 10.8927 20.618L6.0427 7.298C5.8427 6.768 6.0827 6.248 6.6127 6.038C7.1527 5.868 7.6427 6.098 7.8327 6.658L11.3027 16.158C11.4727 16.608 11.9727 16.818 12.4127 16.638C12.8527 16.488 13.0927 16.008 12.9327 15.558L11.6727 12.138C11.8627 11.958 12.1227 11.788 12.4027 11.708C13.0327 11.468 13.5627 11.748 13.8127 12.418L14.9027 15.398C15.0827 15.868 15.5827 16.048 16.0127 15.898C16.4427 15.738 16.7027 15.288 16.5327 14.818L15.6527 12.368C15.8327 12.198 16.1027 12.018 16.3527 11.918C16.9927 11.688 17.5427 11.958 17.7827 12.648L18.5127 14.658C18.6727 15.118 19.1927 15.298 19.6327 15.138C20.0427 14.988 20.3027 14.518 20.1427 14.058L19.6027 12.578C20.7427 12.168 21.8227 13.108 22.5727 15.148L23.4227 17.488C25.2927 22.658 23.5927 26.588 19.0627 28.248Z"
        fillRule="evenodd"
        clipRule="evenodd"
    />
</svg>
        