
<svg
    viewBox="0 0 26.947265625 27.97265625"
    xmlns="http://www.w3.org/2000/svg"
>
    <path
        fill="inherit"
        d="M6.7416 19.1239C6.7416 24.1139 10.6416 27.9739 16.9916 27.9739H18.8516C20.6216 27.9739 21.9316 27.8539 22.6716 27.6439C23.7316 27.3839 24.7616 26.7239 24.7616 25.4439C24.7616 24.9139 24.6216 24.5239 24.4616 24.2439C24.3516 24.0639 24.3816 23.9239 24.5416 23.8539C25.3916 23.5039 26.0816 22.7139 26.0816 21.6239C26.0816 21.0139 25.9116 20.4639 25.6116 20.0939C25.4616 19.8939 25.4716 19.7039 25.7316 19.5639C26.3316 19.2139 26.7716 18.4439 26.7716 17.5539C26.7716 16.9139 26.5616 16.2439 26.2116 15.9139C25.9916 15.7239 26.0316 15.5839 26.2516 15.3839C26.6716 15.0239 26.9516 14.4139 26.9516 13.6339C26.9516 12.3139 25.9216 11.2339 24.5716 11.2339H19.7516C18.5416 11.2339 17.7316 10.6139 17.7316 9.5939C17.7316 7.7839 20.0116 4.4139 20.0116 2.0139C20.0116 0.7339 19.1916 0.0039 18.1316 0.0039C17.1416 0.0039 16.6616 0.6739 16.1416 1.6939C14.1116 5.6439 11.4016 8.8439 9.3416 11.5839C7.5916 13.9039 6.7416 15.9139 6.7416 19.1239ZM0.0016 19.2339C0.0016 23.2839 2.5316 26.6739 5.9216 26.6739H8.3216C5.8616 24.8839 4.8516 22.1739 4.8516 19.1039C4.8716 15.6839 6.1916 13.2339 7.3716 11.7539H5.4116C2.3616 11.7539 0.0016 15.0439 0.0016 19.2339Z"
        fillRule="evenodd"
        clipRule="evenodd"
    />
</svg>
        