<svg viewBox="0 0 29.23046875 22.626953125" xmlns="http://www.w3.org/2000/svg"><path d="M29.2309 12.8957C29.2309 8.3157 26.8409 4.4557 21.0009 2.4757L14.0509 0.1657C13.8209 0.0657 13.5609 -0.0043 13.2309 -0.0043C12.4109 -0.0043 11.7409 0.6457 11.7409 1.6257C11.7409 2.2657 12.0609 2.7457 12.8009 3.0657L17.7709 5.1857C18.1809 5.3457 18.3209 5.5557 18.3209 5.7857C18.3209 6.0457 18.1009 6.2857 17.7209 6.2857H1.7609C0.7009 6.2857 0.0009 6.9557 0.0009 7.9157C0.0009 8.8157 0.7009 9.5157 1.7609 9.5157H12.6609C13.2309 9.5157 13.5209 9.8057 13.5209 10.1857C13.5209 10.5257 13.2309 10.8257 12.6609 10.8257H9.4109C8.9309 10.8257 8.6709 11.1057 8.6709 11.6657C8.6709 12.8957 9.4609 13.8757 11.1109 13.8757H12.6609C13.2309 13.8757 13.5209 14.1657 13.5209 14.5457C13.5209 14.8857 13.2309 15.1857 12.6609 15.1857H10.9909C10.5009 15.1857 10.2709 15.4457 10.2709 16.0257C10.2709 17.3057 11.2409 18.2557 12.7309 18.2557H13.5209C14.1109 18.2557 14.3809 18.5557 14.3809 18.9257C14.3809 19.2657 14.1109 19.5657 13.5209 19.5657H12.3009C12.0009 19.5657 11.8409 19.7457 11.8409 20.0457C11.8409 21.4057 13.3809 22.6257 15.9109 22.6257H18.6509C25.3309 22.6257 29.2309 19.1257 29.2309 12.8957Z" /></svg>