<svg viewBox="0 0 26.300964673261245 26.6864915749345" xmlns="http://www.w3.org/2000/svg"><path d="M23.2558 23.6694C26.6658 20.2794 27.2258 16.0394 24.8758 11.1294L21.7958 4.6394C21.5958 4.1994 21.3158 3.8194 21.0258 3.5294C20.0058 2.5194 18.5158 2.5694 17.5158 3.5594C16.8558 4.2094 16.6558 5.2094 17.1058 6.3094L18.0058 8.4794C18.0258 8.5294 18.0258 8.5894 17.9958 8.6294C17.9558 8.6794 17.8858 8.6594 17.8358 8.6194L10.0758 0.8594C8.9558 -0.2706 7.5358 -0.2806 6.4558 0.8094C6.0558 1.2094 5.8258 1.6994 5.8158 2.2294C4.7058 1.3594 3.4658 1.3794 2.4958 2.3494C1.5658 3.2794 1.5358 4.5694 2.3458 5.6594C1.8458 5.6594 1.3858 5.8794 1.0258 6.2394C0.0158 7.2494 0.0558 8.6194 1.1258 9.6794L2.2058 10.7494C1.6758 10.7294 1.1358 10.9794 0.7258 11.3894C-0.2842 12.3994 -0.2442 13.8394 0.8658 14.9194L9.1458 23.2294C13.6858 27.7594 19.1758 27.7694 23.2558 23.6694ZM21.8758 22.3794C18.4558 25.7994 14.1658 25.6894 10.2858 21.7994L2.2558 13.7794C1.8458 13.3694 1.8258 12.8294 2.2358 12.4194C2.6258 12.0194 3.2058 12.0194 3.6158 12.4294L8.5658 17.3694C8.9158 17.7294 9.4358 17.6794 9.7558 17.3694C10.0758 17.0394 10.1458 16.4994 9.7758 16.1494L2.3958 8.7494C1.9858 8.3394 1.9558 7.7994 2.3558 7.3994C2.7658 6.9994 3.3358 6.9994 3.7358 7.4094L10.6358 14.2994C10.9958 14.6594 11.5158 14.6194 11.8458 14.2894C12.1758 13.9594 12.2258 13.4294 11.8658 13.0694L3.7758 4.9794C3.3658 4.5694 3.3558 3.9894 3.7458 3.5994C4.1358 3.1994 4.7058 3.2294 5.1158 3.6394L13.2258 11.7294C13.5658 12.0694 14.0858 12.0494 14.4158 11.7194C14.7558 11.3894 14.7958 10.8394 14.4558 10.4994L7.5458 3.5994C7.1358 3.1894 7.1258 2.6294 7.5358 2.2294C7.9358 1.8194 8.4958 1.8494 8.9058 2.2394L18.1358 11.4894C15.9058 14.3694 16.6558 17.2394 18.1358 18.7194C18.4858 19.0694 18.9658 19.0994 19.3058 18.7694C19.6658 18.4194 19.6758 17.9294 19.3458 17.5794C17.6258 15.8594 18.2458 13.4694 19.8658 11.8394C20.2058 11.4994 20.3458 11.0494 20.0858 10.3494L18.3758 5.8694C18.1458 5.2394 18.3458 4.7494 18.8258 4.5394C19.3358 4.2994 19.8158 4.5394 20.1158 5.1794L23.2858 11.8994C25.3958 16.3794 24.5758 19.6794 21.8758 22.3794Z" /></svg>