
<svg
    viewBox={0 0 21.4375 31.267578125}
    xmlns="http://www.w3.org/2000/svg"
>
    <path
        fill="inherit"
        d="M7.9427 3.7017C8.9727 3.7017 9.8027 2.8817 9.8027 1.8717C9.8027 0.8517 8.9727 0.0017 7.9427 0.0017C6.9227 0.0017 6.0927 0.8517 6.0927 1.8717C6.0927 2.8817 6.9227 3.7017 7.9427 3.7017ZM19.5827 3.7017C20.6027 3.7017 21.4327 2.8817 21.4327 1.8717C21.4327 0.8517 20.6027 0.0017 19.5827 0.0017C18.5527 0.0017 17.7327 0.8517 17.7327 1.8717C17.7327 2.8817 18.5527 3.7017 19.5827 3.7017ZM1.8427 9.1717C2.8727 9.1717 3.7227 8.3517 3.7227 7.3417C3.7227 6.3117 2.8727 5.4717 1.8427 5.4717C0.8227 5.4717 0.0027 6.3117 0.0027 7.3417C0.0027 8.3517 0.8227 9.1717 1.8427 9.1717ZM14.1127 9.1717C15.1327 9.1717 15.9727 8.3517 15.9727 7.3417C15.9727 6.3117 15.1327 5.4717 14.1127 5.4717C13.0927 5.4717 12.2727 6.3117 12.2727 7.3417C12.2727 8.3517 13.0927 9.1717 14.1127 9.1717ZM19.5827 9.1717C20.6027 9.1717 21.4327 8.3517 21.4327 7.3417C21.4327 6.3117 20.6027 5.4717 19.5827 5.4717C18.5527 5.4717 17.7327 6.3117 17.7327 7.3417C17.7327 8.3517 18.5527 9.1717 19.5827 9.1717ZM12.2227 31.2717C17.6327 31.2717 20.6827 27.8817 20.6827 22.0917V19.7317C20.6827 17.5117 19.6027 16.1417 18.3727 16.1417C18.0427 16.1417 17.8727 16.3417 17.8727 16.6217V17.6817C17.8727 18.1417 17.6527 18.3217 17.4027 18.3217C17.1327 18.3217 16.9427 18.1417 16.9427 17.6817V16.9917C16.9427 15.6817 16.0627 14.7817 14.9127 14.7817C14.3527 14.7817 14.0927 15.0417 14.0927 15.5217V16.9517C14.0927 17.3917 13.8927 17.5917 13.6327 17.5917C13.3527 17.5917 13.1627 17.3917 13.1627 16.9517V15.6317C13.1627 14.1317 12.2627 13.4117 11.1527 13.4117C10.6327 13.4117 10.3327 13.6717 10.3327 14.1517V16.9517C10.3327 17.3917 10.1327 17.5917 9.8827 17.5917C9.5927 17.5917 9.4027 17.3917 9.4027 16.9517V7.5917C9.4027 6.6217 8.7527 5.9617 7.9427 5.9617C7.0527 5.9617 6.4527 6.6217 6.4527 7.5917V21.3017C6.4527 21.7817 5.9027 21.8517 5.7527 21.4817L3.8527 17.0117C3.5727 16.3517 3.1027 16.0517 2.5327 16.0517C1.6427 16.0517 1.0627 16.6817 1.0627 17.4317C1.0627 17.7217 1.1027 17.9817 1.1927 18.1817L3.1827 24.1317C4.8927 29.1917 8.2427 31.2717 12.2227 31.2717Z"
        fillRule="evenodd"
        clipRule="evenodd"
    />
</svg>
        