
<svg
    viewBox="0 0 33.2483943462357 28.026318966505936"
    xmlns="http://www.w3.org/2000/svg"
>
    <path
        fill="inherit"
        d="M0.9337 1.841H10.2137C10.7037 1.041 11.4537 0.401 12.4437 0.001H0.9337C0.4137 0.001 0.0037 0.411 0.0037 0.911C0.0037 1.421 0.4137 1.841 0.9337 1.841ZM26.8637 27.331C32.3037 25.361 34.6137 20.381 32.4337 14.371L31.4037 11.571C30.3237 8.601 28.3037 7.381 25.9037 8.221C25.2637 7.381 24.2837 7.091 23.2137 7.491C22.8037 7.631 22.4637 7.831 22.1437 8.081C21.4337 7.161 20.3737 6.831 19.2337 7.251C18.9537 7.351 18.6637 7.521 18.3737 7.711L16.8337 3.441C16.2437 1.821 14.7637 1.131 13.2437 1.681C11.7137 2.241 11.0337 3.701 11.6037 5.331L15.5137 16.051C15.5437 16.121 15.5137 16.171 15.4537 16.201C15.4037 16.231 15.3637 16.201 15.3237 16.151L13.7137 14.411C12.9237 13.561 11.9737 13.321 11.0637 13.641C9.8137 14.091 8.9937 15.281 9.5137 16.691C9.6537 17.091 9.9237 17.581 10.2237 17.951L14.8037 23.491C18.2937 27.681 22.3237 28.981 26.8637 27.331ZM26.2937 25.541C22.6937 26.851 19.3437 26.181 16.1737 22.371L11.6037 16.861C11.4537 16.691 11.3637 16.541 11.2937 16.321C11.1137 15.871 11.3037 15.381 11.8437 15.191C12.2637 15.021 12.6237 15.191 12.9637 15.561L16.1337 18.831C16.6537 19.371 17.1137 19.431 17.5837 19.261C18.1137 19.061 18.3437 18.511 18.1337 17.911L13.2937 4.591C13.0737 4.061 13.3137 3.541 13.8537 3.331C14.3837 3.161 14.8937 3.391 15.0837 3.951L18.5437 13.451C18.7037 13.901 19.2137 14.111 19.6437 13.931C20.0837 13.781 20.3337 13.301 20.1637 12.851L18.9237 9.431C19.1137 9.251 19.3737 9.081 19.6337 9.001C20.2637 8.761 20.8037 9.041 21.0537 9.711L22.1337 12.691C22.3137 13.161 22.8137 13.341 23.2537 13.191C23.6837 13.031 23.9437 12.581 23.7637 12.111L22.8837 9.661C23.0637 9.491 23.3337 9.311 23.5837 9.211C24.2237 8.981 24.7737 9.251 25.0237 9.941L25.7437 11.951C25.9037 12.411 26.4237 12.591 26.8637 12.431C27.2937 12.281 27.5337 11.811 27.3737 11.351L26.8337 9.871C27.9837 9.461 29.0537 10.401 29.8037 12.441L30.6537 14.781C32.5437 19.951 30.8337 23.881 26.2937 25.541ZM0.9337 6.971H10.2237C9.8137 5.881 9.7237 5.501 9.6637 5.131H0.9337C0.4137 5.131 0.0037 5.551 0.0037 6.061C0.0037 6.561 0.4137 6.971 0.9337 6.971ZM0.9337 12.111H8.2737C8.7737 12.111 9.1837 11.701 9.1837 11.201C9.1837 10.681 8.7737 10.271 8.2737 10.271H0.9337C0.4137 10.271 0.0037 10.681 0.0037 11.201C0.0037 11.701 0.4137 12.111 0.9337 12.111Z"
        fillRule="evenodd"
        clipRule="evenodd"
    />
</svg>
        