
<svg
    viewBox="0 0 21.546875 27.822265625"
    xmlns="http://www.w3.org/2000/svg"
>
    <path
        fill="inherit"
        d="M12.2727 27.8207C18.2127 27.8207 21.5427 24.1007 21.5427 17.7607V15.1307C21.5427 12.7307 20.3827 11.2607 19.0827 11.2607C18.7827 11.2607 18.6327 11.4207 18.6327 11.7007V12.8607C18.6327 13.4107 18.3427 13.6807 18.0227 13.6807C17.6627 13.6807 17.3927 13.4107 17.3927 12.8607V12.1007C17.3927 10.6907 16.4727 9.7607 15.2627 9.7607C14.6927 9.7607 14.4527 9.9907 14.4527 10.4607V12.0407C14.4527 12.5907 14.1827 12.8607 13.8527 12.8607C13.4927 12.8607 13.2027 12.5907 13.2027 12.0407V10.5807C13.2027 9.0007 12.2727 8.2407 11.1027 8.2407C10.5727 8.2407 10.2927 8.4907 10.2927 8.9407V12.0407C10.2927 12.5907 10.0127 12.8607 9.6827 12.8607C9.3227 12.8607 9.0527 12.5907 9.0527 12.0407V1.6707C9.0527 0.6607 8.3827 0.0007 7.5327 0.0007C6.6127 0.0007 5.9727 0.6607 5.9727 1.6707V16.8607C5.9727 17.2407 5.7427 17.4307 5.5127 17.4307C5.2727 17.4307 5.0827 17.2907 4.9227 16.9107L2.9127 12.1707C2.6127 11.4707 2.1427 11.1707 1.5327 11.1707C0.6027 11.1707 0.0027 11.8107 0.0027 12.5807C0.0027 12.8907 0.0727 13.1507 0.1327 13.3707L2.3527 19.9707C4.2427 25.5407 7.9127 27.8207 12.2727 27.8207Z"
        fillRule="evenodd"
        clipRule="evenodd"
    />
</svg>
        