
<svg
    viewBox={0 0 34.302734375 27.548828125}
    xmlns="http://www.w3.org/2000/svg"
>
    <path
        fill="inherit"
        d="M0.0009 24.7355C0.0009 26.2055 1.0109 27.5455 2.8409 27.5455H31.4709C33.3009 27.5455 34.3009 26.2055 34.3009 24.7355C34.3009 23.6355 33.7309 22.4755 32.5509 21.8155L18.2109 13.7655V12.7555C18.2109 11.5255 18.8109 11.0455 19.8809 10.1855C20.9909 9.2855 22.7509 8.0255 22.7509 5.2655C22.7509 2.1055 20.5309 -0.0045 17.2309 -0.0045C13.9409 -0.0045 11.7609 2.3155 11.7609 5.7655C11.7609 6.4255 12.2109 6.8755 12.8009 6.8755C13.3709 6.8755 13.8209 6.4255 13.8209 5.9055C13.8209 3.6055 15.1909 2.0755 17.2309 2.0755C19.3009 2.0755 20.7009 3.3455 20.7009 5.2655C20.7009 6.9755 19.7809 7.7355 18.8509 8.4855C17.6409 9.4755 16.0909 10.3355 16.0909 12.7555V13.7655L1.7509 21.8155C0.5709 22.4755 0.0009 23.6355 0.0009 24.7355ZM2.2109 24.6055C2.2109 24.2555 2.3909 23.9355 2.8609 23.6755L17.1609 15.6855L31.4609 23.6755C31.9209 23.9355 32.1009 24.2555 32.1009 24.6055C32.1009 25.0355 31.8309 25.3755 31.2409 25.3755H3.0609C2.4909 25.3755 2.2109 25.0355 2.2109 24.6055Z"
        fillRule="evenodd"
        clipRule="evenodd"
    />
</svg>
        