
<svg
    viewBox="0 0 27.890625 27.890625"
    xmlns="http://www.w3.org/2000/svg"
>
    <path
        fill="inherit"
        d="M13.9427 27.8864C21.6427 27.8864 27.8927 21.6464 27.8927 13.9464C27.8927 6.2464 21.6427 -0.0036 13.9427 -0.0036C6.2527 -0.0036 0.0027 6.2464 0.0027 13.9464C0.0027 21.6464 6.2527 27.8864 13.9427 27.8864ZM13.9427 25.5664C7.5227 25.5664 2.3227 20.3664 2.3227 13.9464C2.3227 7.5164 7.5227 2.3264 13.9427 2.3264C20.3727 2.3264 25.5627 7.5164 25.5627 13.9464C25.5627 20.3664 20.3727 25.5664 13.9427 25.5664ZM14.3927 19.7964C14.8427 19.7964 15.2427 19.5764 16.0927 19.5764C16.9227 19.5764 17.1627 19.7964 17.7827 19.7964C18.7327 19.7964 19.2227 19.4264 19.2227 18.7564C19.2227 17.6264 18.0027 16.8864 16.0827 16.8864C15.1327 16.8864 14.6927 16.9664 14.1627 17.1064L13.4827 15.5264C12.8227 13.9964 11.7127 13.0264 10.1727 13.0264H9.4027C9.1627 13.0264 8.9927 12.9364 8.9927 12.6864C8.9927 12.2864 9.5327 12.1964 10.1027 12.1964C11.9627 12.1964 13.3427 13.2164 14.2027 15.2864L14.6427 16.3564C15.0627 16.2664 15.5427 16.2264 16.0227 16.2264C16.3927 16.2264 16.7327 16.2564 17.0927 16.2964C17.4827 16.0064 17.9227 15.7064 18.5627 15.4264C19.2927 15.9164 20.0927 16.2464 20.9727 16.2464C22.7227 16.2464 23.5127 15.8464 23.5127 14.1764C23.5127 12.1664 22.0527 10.6464 20.1227 10.6764L18.3927 8.3764C17.4427 7.1364 16.2927 6.5264 15.1627 6.5264C14.2227 6.5264 12.8527 7.0564 12.8527 7.8164C12.8527 8.3364 13.8727 9.0464 14.6827 9.5464L18.3627 11.7864C18.0727 12.0564 17.8127 12.2064 17.5027 12.2064C16.9927 12.2064 16.4727 11.9264 15.7127 11.4664C13.7427 10.3364 12.2227 9.2464 10.1827 9.2464C8.0527 9.2464 6.4227 10.4764 5.5627 12.8564C4.8827 12.8664 4.3627 13.3064 4.3627 13.9764C4.3627 14.6964 4.9527 15.1664 5.7527 15.1764C6.6827 16.4864 8.2327 16.9964 10.0327 16.9964C10.1327 16.9964 10.2227 16.9764 10.3127 16.9764L12.9027 19.1364C13.5727 19.6964 13.9027 19.7964 14.3927 19.7964ZM20.8127 13.8764C20.5227 13.8764 20.3027 13.6164 20.3027 13.3564C20.3027 13.0564 20.5327 12.8064 20.8227 12.8064C21.1127 12.8064 21.3327 13.0464 21.3327 13.3164C21.3327 13.6064 21.0927 13.8764 20.8127 13.8764ZM9.7727 20.3064C11.0027 20.3064 11.7627 20.0664 12.3727 19.6464L10.4027 18.0064C10.2927 18.0064 10.2027 18.0164 10.0627 18.0164C9.7527 18.0164 9.2727 17.9364 8.7127 17.9364C7.9827 17.9364 7.5427 18.3064 7.5427 18.8764C7.5427 19.7464 8.4127 20.3064 9.7727 20.3064Z"
        fillRule="evenodd"
        clipRule="evenodd"
    />
</svg>
        