
<svg
    viewBox={0 0 27.890625 27.890625}
    xmlns="http://www.w3.org/2000/svg"
>
    <path
        fill="inherit"
        d="M13.9427 27.8864C21.6427 27.8864 27.8927 21.6264 27.8927 13.9464C27.8927 6.2464 21.6427 -0.0036 13.9427 -0.0036C6.2627 -0.0036 0.0027 6.2464 0.0027 13.9464C0.0027 21.6264 6.2627 27.8864 13.9427 27.8864ZM14.4127 19.9864C13.9027 19.9864 13.5627 19.8964 12.8827 19.3064L10.2027 17.0864C10.1127 17.0864 10.0127 17.1064 9.9127 17.1064C8.0527 17.1064 6.4627 16.5864 5.4927 15.2264C4.6727 15.2164 4.0627 14.7364 4.0627 13.9864C4.0627 13.3064 4.5927 12.8564 5.3027 12.8364C6.1927 10.3764 7.8727 9.1064 10.0627 9.1064C12.1727 9.1064 13.7427 10.2364 15.7627 11.4064C16.5527 11.8664 17.0927 12.1664 17.6127 12.1664C17.9327 12.1664 18.1927 12.0164 18.5027 11.7264L14.7127 9.4164C13.8727 8.9164 12.8127 8.1764 12.8127 7.6464C12.8127 6.8464 14.2327 6.3064 15.2027 6.3064C16.3627 6.3064 17.5527 6.9464 18.5227 8.2164L20.3127 10.5964C22.3127 10.5664 23.8127 12.1264 23.8127 14.1864C23.8127 15.9164 22.9927 16.3264 21.1927 16.3264C20.2927 16.3264 19.4527 15.9964 18.7127 15.4864C18.0427 15.7764 17.5927 16.0964 17.1827 16.3764C16.8127 16.3364 16.4727 16.3064 16.0927 16.3064C15.6027 16.3064 15.1027 16.3564 14.6727 16.4364L14.2227 15.3364C13.3327 13.2064 11.9127 12.1564 9.9827 12.1564C9.3927 12.1564 8.8427 12.2464 8.8427 12.6564C8.8427 12.9164 9.0127 13.0164 9.2727 13.0164H10.0527C11.6527 13.0164 12.7827 14.0164 13.4627 15.5964L14.1627 17.2164C14.7227 17.0764 15.1727 16.9964 16.1427 16.9964C18.1327 16.9964 19.3827 17.7464 19.3827 18.9264C19.3827 19.6164 18.8827 19.9864 17.9127 19.9864C17.2527 19.9864 17.0227 19.7664 16.1627 19.7664C15.2827 19.7664 14.8727 19.9864 14.4127 19.9864ZM21.0227 13.8864C21.3127 13.8864 21.5627 13.6064 21.5627 13.3064C21.5627 13.0264 21.3327 12.7864 21.0427 12.7864C20.7427 12.7864 20.4927 13.0464 20.4927 13.3564C20.4927 13.6164 20.7227 13.8864 21.0227 13.8864ZM9.6527 20.5264C8.2427 20.5264 7.3527 19.9464 7.3527 19.0564C7.3527 18.4564 7.8027 18.0764 8.5427 18.0764C9.1327 18.0764 9.6227 18.1664 9.9427 18.1664C10.0927 18.1664 10.1827 18.1464 10.2927 18.1464L12.3327 19.8364C11.6927 20.2764 10.9227 20.5264 9.6527 20.5264Z"
        fillRule="evenodd"
        clipRule="evenodd"
    />
</svg>
        