
<svg
    viewBox={0 0 42.341796875 30.748046875}
    xmlns="http://www.w3.org/2000/svg"
>
    <path
        fill="inherit"
        d="M12.4537 30.7439C15.0237 30.7439 17.3537 30.1739 19.2637 28.4339C20.0037 28.9739 20.8237 29.2739 22.0637 29.2739C23.2137 29.2739 24.1137 28.8839 25.7437 28.8839C27.2237 28.8839 27.9737 29.2739 29.1637 29.2739C31.9737 29.2739 32.9637 27.8239 32.9637 26.2239C32.9637 23.6339 30.9937 22.0939 27.0537 21.7539C28.4537 21.0639 29.7537 20.5339 30.6537 20.2039C32.2937 21.3039 34.6537 21.9539 36.4037 21.9439C40.1037 21.9139 42.3437 20.7639 42.3437 16.9839C42.3437 12.3339 38.8037 8.8339 34.6437 8.7939L31.6737 4.7539C29.3937 1.7139 26.9637 0.0039 23.8437 0.0039C21.4237 0.0039 18.1337 1.3439 18.1337 3.2439C18.1337 4.8239 19.9337 5.9639 21.6937 7.0639C23.7437 8.3539 26.5137 9.9539 29.0837 11.4439C28.7337 11.7539 28.4737 11.8939 28.1337 11.8939C27.7137 11.8939 27.1537 11.6939 26.4237 11.2639C20.9037 8.1439 17.5937 5.6239 13.3437 5.6239C8.2537 5.6239 4.5937 8.2339 2.8537 13.2339C1.1637 13.5939 0.0037 14.6939 0.0037 16.4039C0.0037 18.5239 1.7237 19.6239 3.4837 19.7139C4.7837 21.8339 8.4037 23.7039 13.0737 23.3239L14.3837 24.4039C14.0237 24.5839 13.7037 24.6339 13.3137 24.6339C12.4137 24.6239 11.5437 24.3339 10.5037 24.3339C8.6037 24.3339 7.2737 25.4439 7.2737 27.0939C7.2737 29.4339 9.3337 30.7439 12.4537 30.7439ZM25.6737 26.9339C23.9537 26.9339 22.8837 27.2039 22.1237 27.2039C21.4937 27.2039 20.8037 27.1139 20.1137 26.5539L14.0037 21.3939C9.6237 21.5839 6.4237 20.4439 4.5637 17.7639C3.1737 17.9239 2.1637 17.3939 2.1637 16.2439C2.1637 15.2039 3.0737 14.4739 4.5837 14.5639C5.9837 9.9439 9.0637 7.7939 13.3137 7.7939C17.7737 7.7939 22.3637 11.3839 25.7137 13.2739C26.6237 13.8239 27.6137 14.0039 28.3037 14.0039C29.7937 14.0039 30.9837 13.0539 32.0437 11.1439L22.9437 5.5339C21.9737 4.9539 20.6037 3.8939 20.6037 3.5239C20.6037 2.7239 22.4937 2.1239 23.8737 2.1239C26.0337 2.1239 27.8337 3.4339 29.5037 5.4239L33.7037 10.4439C37.5537 10.2639 40.4837 13.2239 40.4837 16.9939C40.4837 19.4139 39.3437 20.1539 36.4737 20.1539C34.6837 20.1539 32.7137 19.4239 31.0037 18.3439C28.5037 18.9739 25.8637 20.1639 23.7437 21.7339C23.4637 21.7639 23.2237 21.7939 23.0237 21.8239L22.0237 19.4139C19.9637 14.4539 16.6637 12.7539 13.3037 12.7539C12.7537 12.7539 12.1237 12.7739 11.5637 12.8939C10.8937 13.0439 10.6337 13.3939 10.6337 13.8539C10.6337 14.3739 11.0237 14.7139 11.5837 14.6939C12.1637 14.6739 12.5337 14.6039 13.2037 14.6039C16.3137 14.6039 18.5137 16.2839 20.4937 20.7639L21.8037 23.8139C22.8437 23.5939 23.8337 23.4339 25.3937 23.4339C28.1637 23.4339 30.9437 24.1739 30.9437 26.0539C30.9437 26.7839 30.2937 27.2739 29.1637 27.2739C27.8237 27.2739 26.8637 26.9339 25.6737 26.9339ZM35.5637 16.1339C36.2437 16.1339 36.8037 15.5739 36.8037 14.9039C36.8037 14.2339 36.2437 13.6739 35.5637 13.6739C34.8937 13.6739 34.3337 14.2339 34.3337 14.9039C34.3337 15.5739 34.8937 16.1339 35.5637 16.1339ZM9.2437 27.1139C9.2437 26.5639 9.5937 26.1439 10.3937 26.1439C11.1737 26.1439 12.0337 26.3639 12.9737 26.3639C14.2337 26.3639 15.1037 26.2539 15.9437 25.6939L17.7237 27.1639C16.4637 28.3039 14.6137 28.8839 12.3837 28.8839C10.4737 28.8839 9.2437 28.2039 9.2437 27.1139Z"
        fillRule="evenodd"
        clipRule="evenodd"
    />
</svg>
        