
<svg
    viewBox={0 0 40.9609375 29.490234375}
    xmlns="http://www.w3.org/2000/svg"
>
    <path
        fill="inherit"
        d="M21.4637 28.4138C22.4237 28.4138 23.2737 27.9638 25.0637 27.9638C26.8637 27.9638 27.3537 28.4138 28.6937 28.4138C30.7237 28.4138 31.7837 27.5738 31.7837 26.1538C31.7837 23.7438 29.1737 22.1338 25.0437 22.1338C23.0237 22.1338 22.1237 22.3238 20.9737 22.6138L19.4937 19.2538C18.0437 16.0238 15.7137 13.9138 12.4037 13.9138H10.7837C10.2537 13.9138 9.8937 13.6838 9.8937 13.1638C9.8937 12.3138 11.0337 12.1138 12.2737 12.1138C16.2837 12.1138 19.2337 14.3138 21.0437 18.7438L21.9837 21.0238C22.9037 20.8338 23.8937 20.7438 24.9137 20.7438C25.7137 20.7438 26.4537 20.7938 27.2337 20.9038C28.0637 20.2938 29.0137 19.6438 30.3937 19.0438C31.9237 20.0838 33.6737 20.7538 35.4937 20.7538C39.2637 20.7538 40.9637 19.9338 40.9637 16.3638C40.9637 12.0538 37.8437 8.8337 33.7037 8.8438L30.0337 3.9638C28.0037 1.2737 25.5237 0.0038 23.0937 0.0038C21.0937 0.0038 18.1337 1.1438 18.1337 2.7638C18.1337 3.8538 20.3437 5.3837 22.0537 6.4438L29.9237 11.2538C29.3137 11.8438 28.7637 12.1538 28.0837 12.1538C27.0337 12.1538 25.9237 11.5138 24.2637 10.5538C20.0537 8.1238 16.8037 5.8337 12.4237 5.8337C7.8737 5.8337 4.4137 8.4538 2.5737 13.5338C1.1037 13.5338 0.0037 14.4938 0.0037 15.9038C0.0037 17.4838 1.2537 18.4838 2.9837 18.4838C4.9737 21.2738 8.2437 22.3938 12.1137 22.3938C12.3137 22.3938 12.5237 22.3838 12.7237 22.3838L18.2637 26.9738C19.6437 28.2038 20.4237 28.4138 21.4637 28.4138ZM35.1737 15.7138C34.5637 15.7138 34.0737 15.1938 34.0737 14.5838C34.0737 13.9738 34.5737 13.4238 35.1937 13.4238C35.8237 13.4238 36.3137 13.9138 36.3137 14.5338C36.3137 15.1438 35.8037 15.7138 35.1737 15.7138ZM11.5837 29.4938C14.2237 29.4938 15.8337 28.9838 17.1437 28.0838L12.9037 24.5538C12.7137 24.5638 12.4837 24.5938 12.1937 24.5938C11.5137 24.5938 10.5037 24.3938 9.2937 24.3938C7.7637 24.3938 6.8237 25.2138 6.8237 26.4438C6.8237 28.2738 8.6837 29.4938 11.5837 29.4938Z"
        fillRule="evenodd"
        clipRule="evenodd"
    />
</svg>
        