<svg viewBox="0 0 37.86352934350337 21.285902541311792" xmlns="http://www.w3.org/2000/svg"><path d="M1.7709 20.0932C6.5709 19.8332 13.0509 18.7332 18.5209 17.2132C22.4909 19.1432 26.8909 21.2832 31.0209 21.2832C34.3709 21.2832 36.8609 18.3232 37.5409 16.6532C38.1709 15.1032 37.8109 14.5332 37.0509 14.3032L28.0209 11.5632C25.5109 5.7432 22.2309 0.5632 12.9409 1.4432L12.8909 1.0132C12.7909 0.3032 12.0509 -0.1068 11.1809 0.0232L10.1709 0.1932C9.3309 0.3232 8.8309 0.9932 8.9409 1.7332L8.9909 2.1732C1.5009 4.4332 -1.3391 11.4432 0.5809 19.2032C0.7509 19.8532 1.1309 20.1232 1.7709 20.0932ZM2.6209 17.8932C1.0509 10.9232 4.0209 5.0032 11.4409 3.7832C20.4209 2.3232 23.4209 6.4532 25.8109 11.9932C22.4509 14.6532 9.7309 17.5532 2.6209 17.8932ZM35.2309 15.9032C34.8209 17.3632 32.9609 19.0832 30.8409 19.0832C28.2009 19.0832 25.2109 18.0332 21.5309 16.3132C24.0709 15.4632 26.2209 14.5432 27.6109 13.6032Z" /></svg>