<svg viewBox="0 0 28.65625 25.9765625" xmlns="http://www.w3.org/2000/svg"><path d="M3.7309 25.9777H24.9209C27.2509 25.9777 28.6609 24.3677 28.6609 22.2677C28.6609 21.6277 28.4609 20.9577 28.1209 20.3577L17.5109 1.8777C16.8009 0.6277 15.5909 -0.0023 14.3309 -0.0023C13.0709 -0.0023 11.8409 0.6277 11.1409 1.8777L0.5309 20.3577C0.1609 20.9677 0.0009 21.6277 0.0009 22.2677C0.0009 24.3677 1.4109 25.9777 3.7309 25.9777ZM5.4409 22.0477C4.8709 22.0477 4.5409 21.5377 4.8409 20.9877L13.7109 5.4977C14.0009 4.9777 14.6409 4.9777 14.9309 5.4977L23.8009 20.9877C24.0909 21.5077 23.7709 22.0477 23.2009 22.0477ZM8.3909 19.8377H20.2509C20.4009 19.8377 20.4909 19.6877 20.4109 19.5277L14.4909 9.1977C14.4209 9.0477 14.2309 9.0477 14.1609 9.1977L8.2309 19.5077C8.1509 19.6777 8.2409 19.8377 8.3909 19.8377Z" /></svg>