
<svg
    viewBox={0 0 27.8359375 28.792334713774597}
    xmlns="http://www.w3.org/2000/svg"
>
    <path
        fill="inherit"
        d="M0.0037 14.9733C0.0037 19.0833 1.1937 23.6233 3.2037 27.1533C3.5137 27.7033 4.0737 27.8733 4.6437 27.6433C5.2637 28.6333 6.3737 29.0233 7.6537 28.6533C9.2237 28.2033 9.9637 26.8333 9.5037 25.2633L7.5437 18.5933C7.0937 17.0333 5.7537 16.2933 4.1737 16.7433C3.4137 16.9633 2.8737 17.3933 2.5337 17.9333C2.3937 16.9433 2.3237 15.9433 2.3237 14.9733C2.3237 7.3833 6.9637 2.3233 13.9137 2.3233C20.8637 2.3233 25.5137 7.3833 25.5137 14.9733C25.5137 15.9433 25.4437 16.9433 25.2937 17.9533C24.9637 17.3933 24.4037 16.9633 23.6537 16.7433C22.0637 16.2933 20.7437 17.0333 20.2737 18.5933L18.3237 25.2633C17.8537 26.8533 18.5937 28.2033 20.1637 28.6533C21.4537 29.0233 22.5537 28.6333 23.1737 27.6433C23.7437 27.8733 24.3237 27.7033 24.6237 27.1533C26.6337 23.6233 27.8337 19.0833 27.8337 14.9733C27.8337 5.9733 22.2837 0.0033 13.9137 0.0033C5.5337 0.0033 0.0037 5.9733 0.0037 14.9733Z"
        fillRule="evenodd"
        clipRule="evenodd"
    />
</svg>
        