
<svg
    viewBox="0 0 27.890625 27.890625"
    xmlns="http://www.w3.org/2000/svg"
>
    <path
        fill="inherit"
        d="M13.9427 27.8864C21.6427 27.8864 27.8927 21.6464 27.8927 13.9464C27.8927 6.2464 21.6427 -0.0036 13.9427 -0.0036C6.2527 -0.0036 0.0027 6.2464 0.0027 13.9464C0.0027 21.6464 6.2527 27.8864 13.9427 27.8864ZM13.9427 25.5664C7.5227 25.5664 2.3227 20.3664 2.3227 13.9464C2.3227 7.5164 7.5227 2.3264 13.9427 2.3264C20.3727 2.3264 25.5627 7.5164 25.5627 13.9464C25.5627 20.3664 20.3727 25.5664 13.9427 25.5664ZM13.9427 7.3864C17.2527 7.3864 19.4027 9.5164 19.4027 12.7864V12.9564C19.3027 12.9364 19.1927 12.9164 19.1027 12.9164C18.4427 12.9164 17.9827 13.4164 17.9827 14.0364V18.1264C17.9827 18.7564 18.4427 19.2464 19.1027 19.2464C19.1927 19.2464 19.3027 19.2464 19.3827 19.2464C19.3427 19.3764 19.2527 19.3864 18.9627 19.4264L15.4527 20.0464C15.2327 19.8664 14.9427 19.7864 14.6527 19.8364L13.3327 20.0664C12.7827 20.1664 12.4327 20.6864 12.5327 21.2364C12.6227 21.7364 13.1427 22.1364 13.6727 22.0264L15.0027 21.7764C15.3027 21.7264 15.5627 21.5364 15.6927 21.2764L19.1927 20.6764C20.0427 20.5264 20.6427 20.0664 20.6427 18.8664V18.5964C21.1827 18.4564 21.4927 18.0364 21.4927 17.4764V14.6564C21.4927 14.2364 21.3127 13.8364 21.0227 13.6064V12.7864C21.0227 8.5564 18.1827 5.7264 13.9427 5.7264C9.7227 5.7264 6.8727 8.5564 6.8727 12.7864V13.6064C6.5727 13.8364 6.4127 14.2364 6.4127 14.6564L6.4227 17.3364C6.4227 18.2664 7.2027 18.6464 7.8027 18.6464C7.9727 19.0064 8.3427 19.2464 8.8027 19.2464C9.4427 19.2464 9.9227 18.7764 9.9227 18.1264V14.0364C9.9227 13.3964 9.4427 12.9164 8.8027 12.9164C8.7127 12.9164 8.6027 12.9364 8.5027 12.9464V12.7864C8.5027 9.5164 10.6527 7.3864 13.9427 7.3864Z"
        fillRule="evenodd"
        clipRule="evenodd"
    />
</svg>
        