
<svg
    viewBox={0 0 27.890625 27.890625}
    xmlns="http://www.w3.org/2000/svg"
>
    <path
        fill="inherit"
        d="M13.9427 27.8927C21.6427 27.8927 27.8927 21.6427 27.8927 13.9427C27.8927 6.2627 21.6427 0.0027 13.9427 0.0027C6.2627 0.0027 0.0027 6.2627 0.0027 13.9427C0.0027 21.6427 6.2627 27.8927 13.9427 27.8927ZM6.3327 13.9327C6.3327 9.0327 9.3927 5.7427 13.9627 5.7427C18.5427 5.7427 21.6127 9.0527 21.6127 13.9327C21.6127 16.5427 20.9827 18.5527 19.8927 20.4827C19.6227 20.9327 19.1227 21.1127 18.6527 20.9327C18.2627 21.3427 17.7027 21.4827 17.0627 21.2827C16.1227 21.0427 15.6927 20.2527 15.9527 19.3227L16.9827 15.8027C17.2527 14.8627 18.0627 14.4127 18.9727 14.6827C19.2527 14.7627 19.4827 14.8927 19.6627 15.0427C19.6827 14.6827 19.7027 14.3127 19.7027 13.9327C19.7027 10.1727 17.4027 7.6527 13.9627 7.6527C10.5227 7.6527 8.2427 10.1627 8.2427 13.9327C8.2427 14.3127 8.2427 14.6727 8.2827 15.0127C8.4627 14.8727 8.6827 14.7627 8.9327 14.6827C9.8727 14.4127 10.6827 14.8627 10.9527 15.8027L11.9627 19.3027C12.2327 20.2327 11.8027 21.0427 10.8527 21.2827C10.2227 21.4927 9.6527 21.3427 9.2727 20.9327C8.7927 21.1127 8.3027 20.9327 8.0427 20.4827C6.9627 18.6027 6.3327 16.5827 6.3327 13.9327Z"
        fillRule="evenodd"
        clipRule="evenodd"
    />
</svg>
        