
<svg
    viewBox="0 0 27.890625 27.890625"
    xmlns="http://www.w3.org/2000/svg"
>
    <path
        fill="inherit"
        d="M13.9427 27.8927C21.6427 27.8927 27.8927 21.6427 27.8927 13.9427C27.8927 6.2627 21.6427 0.0027 13.9427 0.0027C6.2627 0.0027 0.0027 6.2627 0.0027 13.9427C0.0027 21.6427 6.2627 27.8927 13.9427 27.8927ZM13.9427 7.1727C10.5527 7.1727 8.3427 9.3827 8.3427 12.7427V12.9327C8.4327 12.9027 8.5427 12.8927 8.6527 12.8927C9.3127 12.8927 9.8127 13.3827 9.8127 14.0427V18.2627C9.8127 18.9227 9.3127 19.4127 8.6527 19.4127C8.1727 19.4127 7.7927 19.1727 7.6127 18.8027C7.0027 18.8027 6.1827 18.4027 6.1827 17.4327L6.1627 14.6827C6.1627 14.2427 6.3427 13.8527 6.6627 13.6027V12.7427C6.6627 8.3827 9.5827 5.4727 13.9427 5.4727C18.3227 5.4727 21.2427 8.3827 21.2427 12.7427V13.6027C21.5427 13.8527 21.7427 14.2427 21.7427 14.6827V17.5827C21.7427 18.1527 21.4127 18.5927 20.8527 18.7427V19.0327C20.8527 20.2627 20.2327 20.7227 19.3627 20.8927L15.7527 21.5027C15.6027 21.7827 15.3427 21.9827 15.0227 22.0227L13.6627 22.2827C13.1127 22.3927 12.5627 22.0027 12.4827 21.4627C12.3727 20.9027 12.7427 20.3527 13.3027 20.2727L14.6727 20.0127C14.9727 19.9727 15.2627 20.0727 15.4927 20.2527L19.1127 19.6227C19.4127 19.5627 19.5127 19.5327 19.5527 19.4127C19.4727 19.4127 19.3627 19.4127 19.2527 19.4127C18.5827 19.4127 18.0927 18.9127 18.0927 18.2627V14.0427C18.0927 13.4127 18.5827 12.8927 19.2527 12.8927C19.3627 12.8927 19.4727 12.9027 19.5627 12.9427V12.7427C19.5627 9.3827 17.3527 7.1727 13.9427 7.1727Z"
        fillRule="evenodd"
        clipRule="evenodd"
    />
</svg>
        