
<svg
    viewBox={0 0 28.152121330633236 29.0869140625}
    xmlns="http://www.w3.org/2000/svg"
>
    <path
        fill="inherit"
        d="M26.5299 23.7633C27.5599 20.9633 28.1499 17.8733 28.1499 14.9733C28.1499 5.9733 22.5999 0.0033 14.2299 0.0033C10.7999 0.0033 7.8499 1.0133 5.5499 2.8033L7.2799 4.5133C9.1299 3.1033 11.4999 2.3233 14.2299 2.3233C21.1799 2.3233 25.8299 7.3833 25.8299 14.9733C25.8299 15.9433 25.7599 16.9233 25.6199 17.9233C25.2899 17.3733 24.7299 16.9633 23.9799 16.7433C22.7399 16.3933 21.6399 16.7933 21.0299 17.7333L20.9099 18.1433ZM26.2799 28.7833C26.6999 29.1933 27.3699 29.1933 27.7699 28.7833C28.1799 28.3533 28.1899 27.7033 27.7699 27.2933L1.8099 1.3033C1.3999 0.8733 0.7099 0.8933 0.2999 1.3033C-0.0901 1.6933 -0.1101 2.3833 0.2999 2.7933ZM7.9899 28.6533C9.5699 28.2033 10.2999 26.8333 9.8499 25.2633L7.8899 18.5933C7.4299 17.0333 6.0999 16.2933 4.4999 16.7433C3.7499 16.9633 3.1899 17.3933 2.8599 17.9533C2.7199 16.9533 2.6399 15.9533 2.6399 14.9733C2.6399 12.6033 3.1199 10.4833 3.9799 8.7233L2.1899 6.9333C0.9699 9.1733 0.3199 11.8933 0.3199 14.9733C0.3199 19.0833 1.5199 23.6233 3.5199 27.1533C3.8299 27.7033 4.3999 27.8733 4.9799 27.6333C5.5899 28.6133 6.7099 29.0233 7.9899 28.6533ZM20.4999 28.6533C21.6199 28.9733 22.5699 28.6933 23.2199 27.9733L19.0699 23.8333L18.6499 25.2633C18.1899 26.8533 18.9199 28.2033 20.4999 28.6533Z"
        fillRule="evenodd"
        clipRule="evenodd"
    />
</svg>
        