<svg viewBox="0 0 36.01171875 24.350383675774495" xmlns="http://www.w3.org/2000/svg"><path d="M1.0937 16.2763C0.5037 16.2763 0.0037 16.7963 0.0037 17.3863C0.0037 17.9863 0.5037 18.4763 1.0937 18.4763H6.3837C6.2337 20.0763 5.6737 21.4563 4.7337 22.4263C3.5837 23.5363 5.0737 25.0563 6.2437 23.9863C7.6837 22.6463 8.5037 20.6963 8.6937 18.4763L11.8437 18.4963C11.6937 17.7363 11.5937 17.0063 11.4937 16.2863L8.6837 16.2763C8.5837 15.2963 8.3837 14.2763 8.0637 13.2663H11.3237C11.3037 12.8763 11.3037 11.4763 11.3237 11.0663H7.2437C6.8937 10.0563 6.6537 9.0563 6.5537 8.0863H11.4937C11.5937 7.3663 11.6937 6.6063 11.8437 5.8763H6.5037C6.6537 4.2763 7.2237 2.8763 8.1637 1.9163C9.3137 0.8163 7.8337 -0.7037 6.6337 0.3663C5.1937 1.7163 4.3737 3.6663 4.1937 5.8763H1.0937C0.5037 5.8763 0.0037 6.3763 0.0037 6.9763C0.0037 7.5863 0.5237 8.0763 1.0937 8.0763L4.2137 8.0863C4.3037 9.0563 4.5137 10.0663 4.8437 11.0663H1.0937C0.5037 11.0663 0.0037 11.5963 0.0037 12.1863C0.0037 12.7863 0.5037 13.2663 1.0937 13.2663H5.6637C6.0137 14.2963 6.2437 15.3063 6.3537 16.2763ZM13.1637 12.1763C13.1437 14.8163 13.3537 17.3463 14.0837 19.9263C14.9137 22.7463 16.5037 23.7463 19.8337 23.7463H20.6037C28.7537 23.7463 36.0137 18.4263 36.0137 12.1763C36.0137 5.9263 28.7537 0.5863 20.6037 0.5863H19.8337C16.5137 0.5863 14.9337 1.5963 14.0837 4.4063C13.3537 7.0063 13.1437 9.5363 13.1637 12.1763Z" /></svg>