
<svg
    viewBox={0 0 26.537742134827297 36.484816276291895}
    xmlns="http://www.w3.org/2000/svg"
>
    <path
        fill="inherit"
        d="M9.1906 3.6755C8.6106 4.0555 8.6106 4.6255 8.9006 4.9755C9.1506 5.2555 9.6006 5.3555 10.1006 5.0255C11.4806 4.0555 13.2806 3.6755 15.2206 3.7155L15.2306 5.1755C15.2306 5.8355 15.9806 6.0555 16.4106 5.6955L19.2106 3.4255C19.5806 3.1155 19.6106 2.7055 19.2106 2.3755L16.3106 0.1355C15.9106 -0.1845 15.2206 0.0855 15.2206 0.7055V2.0855C12.9906 2.0555 10.8606 2.5255 9.1906 3.6755ZM1.8506 12.4055C3.0906 14.3055 4.0306 15.3355 6.1306 15.3355C9.1506 15.3355 10.3206 12.6155 10.3206 10.7555C10.3206 9.7055 9.9406 8.7755 9.1706 8.1655C8.2706 7.4455 5.8006 5.9955 5.2906 5.8055C4.3106 5.4255 3.5406 5.6955 2.9506 6.6355L0.1806 11.0155C-0.0994 11.4355 -0.0094 11.8755 0.1506 12.0655C0.6606 11.4655 1.3006 11.5755 1.8506 12.4055ZM26.2506 16.9755C25.2706 11.8755 21.3106 8.6255 15.8206 8.6255C14.2206 8.6255 12.7406 8.9055 11.4406 9.4155C11.6206 10.1155 11.6206 10.8755 11.5106 11.5455C12.7306 10.9155 14.1906 10.5655 15.8206 10.5655C20.1006 10.5655 23.2006 12.9555 24.1906 16.7955C24.9406 16.9155 25.5906 16.9755 26.2506 16.9755ZM9.5806 15.3755C15.2406 19.2855 22.2206 21.1955 26.3306 21.0855C26.4406 21.0855 26.5406 20.9255 26.5406 20.7355L26.5006 18.5155C26.5006 18.2855 26.3306 18.1655 26.1306 18.1655C22.8606 18.2055 16.1706 16.2655 11.2406 12.8155C10.9206 13.7655 10.3906 14.6655 9.5806 15.3755ZM16.6406 36.4855C20.9506 36.4855 23.6006 34.9555 23.6006 32.3455V26.5855C24.8306 25.5155 25.7006 23.9855 26.1406 22.2655C25.5306 22.2755 24.8606 22.2355 24.1406 22.1555C23.6806 23.6455 22.8006 24.8755 21.6306 25.6055L21.6406 31.9955C21.6406 33.5755 19.8006 34.5255 16.6406 34.5255C13.4906 34.5255 11.6806 33.5755 11.6806 31.9955V30.6755C11.6806 30.4455 11.5306 30.3055 11.2906 30.3355L8.3006 30.6755C7.5106 30.7555 7.1506 30.4655 7.1506 29.5755V26.0955C7.1506 25.8855 7.0106 25.7655 6.8106 25.7655H6.2506C5.5406 25.7655 5.1806 25.4555 5.1806 24.8955C5.1806 24.6055 5.2806 24.2355 5.4706 23.8655L7.2506 20.7255C7.1806 20.2255 7.1406 19.7655 7.1406 19.3155C7.1406 18.2455 7.2706 17.2655 7.5506 16.3555C6.7406 16.6355 5.8206 16.6155 5.4806 16.5755C5.2906 17.4555 5.2006 18.3855 5.2006 19.3555C5.2006 19.7055 5.2106 20.0255 5.2506 20.3155L3.7906 22.9255C3.4006 23.6155 3.2106 24.3055 3.2106 24.9355C3.2106 26.1355 3.9406 27.0955 5.2006 27.4155V29.7055C5.2006 31.7955 6.6606 32.7955 8.5406 32.6155L9.8206 32.4955C9.9006 35.0255 12.4806 36.4855 16.6406 36.4855Z"
        fillRule="evenodd"
        clipRule="evenodd"
    />
</svg>
        