
<svg
    viewBox={0 0 27.890625 27.890625}
    xmlns="http://www.w3.org/2000/svg"
>
    <path
        fill="inherit"
        d="M13.9427 27.8864C21.6427 27.8864 27.8927 21.6464 27.8927 13.9464C27.8927 6.2464 21.6427 -0.0036 13.9427 -0.0036C6.2527 -0.0036 0.0027 6.2464 0.0027 13.9464C0.0027 21.6464 6.2527 27.8864 13.9427 27.8864ZM13.9427 25.5664C7.5227 25.5664 2.3227 20.3664 2.3227 13.9464C2.3227 7.5164 7.5227 2.3264 13.9427 2.3264C20.3727 2.3264 25.5627 7.5164 25.5627 13.9464C25.5627 20.3664 20.3727 25.5664 13.9427 25.5664ZM6.5527 13.9164C6.5527 16.4864 7.1627 18.4664 8.2127 20.2864C8.4627 20.6964 8.9127 20.8464 9.3527 20.6864C9.7227 21.0964 10.3127 21.2464 10.9227 21.0564C11.8427 20.8064 12.2727 20.0164 12.0027 19.1164L11.0227 15.7364C10.7427 14.8164 9.9627 14.3864 9.0627 14.6564C8.8227 14.7264 8.6027 14.8364 8.4327 14.9664C8.4127 14.6464 8.3927 14.2864 8.3927 13.9164C8.3927 10.2564 10.6127 7.8364 13.9427 7.8364C17.2927 7.8364 19.5327 10.2664 19.5327 13.9164C19.5327 14.2864 19.5227 14.6464 19.4827 14.9864C19.3227 14.8364 19.0827 14.7264 18.8227 14.6564C17.9327 14.3864 17.1627 14.8164 16.8827 15.7364L15.8827 19.1264C15.6227 20.0464 16.0527 20.8064 16.9627 21.0564C17.5927 21.2464 18.1727 21.0964 18.5527 20.6764C18.9727 20.8464 19.4427 20.6964 19.6827 20.2864C20.7527 18.4164 21.3827 16.4464 21.3827 13.9164C21.3827 9.1764 18.3927 5.9864 13.9427 5.9864C9.5127 5.9864 6.5527 9.1564 6.5527 13.9164Z"
        fillRule="evenodd"
        clipRule="evenodd"
    />
</svg>
        