
<svg
    viewBox={0 0 29.572265625 32.040499015910534}
    xmlns="http://www.w3.org/2000/svg"
>
    <path
        fill="inherit"
        d="M4.3637 26.3892C5.3837 26.3892 6.1237 25.6492 6.1237 24.6392V16.3192C6.1237 15.3092 5.3837 14.5692 4.3637 14.5692C3.9137 14.5692 3.5237 14.7092 3.2237 14.9592V13.7992C3.2237 6.9192 7.8737 2.3392 14.7837 2.3392C21.6837 2.3392 26.3337 6.9192 26.3337 13.7992V14.9592C26.0337 14.7092 25.6437 14.5692 25.1937 14.5692C24.1737 14.5692 23.4337 15.3092 23.4337 16.3192V24.6392C23.4337 25.6492 24.1737 26.3892 25.1937 26.3892C25.6437 26.3892 26.0337 26.2492 26.3337 25.9992V26.1792C26.3337 27.4392 26.1137 27.5892 25.0337 27.7692L17.6337 29.0792C17.3037 28.7092 16.8037 28.5192 16.2737 28.5992L13.6037 29.0892C12.7837 29.2292 12.2537 29.9992 12.4037 30.8192C12.5337 31.6092 13.3037 32.1592 14.1137 32.0192L16.7937 31.5292C17.3537 31.4292 17.7737 31.0492 17.9337 30.5592L25.3237 29.2592C26.8537 28.9892 27.8237 28.2492 27.8237 26.1592V25.1692C28.8937 25.0492 29.5537 24.3492 29.5537 23.2792L29.5737 17.5992C29.5737 16.7492 29.1937 16.0492 28.6337 15.7492V13.7792C28.6337 5.4992 23.0937 -0.0008 14.7837 -0.0008C6.4637 -0.0008 0.9337 5.4992 0.9337 13.7792V15.7492C0.3737 16.0492 0.0037 16.7492 0.0037 17.5992L0.0137 23.2792C0.0137 24.4592 0.8237 25.1992 2.0937 25.1992C2.2837 25.1992 2.4737 25.1692 2.6637 25.1192C2.8537 25.8792 3.5137 26.3892 4.3637 26.3892Z"
        fillRule="evenodd"
        clipRule="evenodd"
    />
</svg>
        