
<svg
    viewBox="0 0 35.62890625 23.80236093287338"
    xmlns="http://www.w3.org/2000/svg"
>
    <path
        fill="inherit"
        d="M13.2037 11.3761C13.2037 13.9461 13.3837 16.4461 14.0937 18.9661C14.9337 21.7561 16.4737 22.7461 19.7537 22.7461H20.5237C28.5337 22.7461 35.6337 17.5161 35.6337 11.3761C35.6337 5.2461 28.5337 -0.0039 20.5237 -0.0039H19.7537C16.4837 -0.0039 14.9437 0.9961 14.0937 3.7861C13.3837 6.3161 13.2037 8.8161 13.2037 11.3761ZM15.4337 11.3761C15.4337 8.5461 15.6537 6.4561 16.2437 4.4061C16.7237 2.8161 17.6737 2.2261 19.7537 2.2261H20.5237C27.2337 2.2261 33.4037 6.5061 33.4037 11.3761C33.4037 16.2461 27.2337 20.5261 20.5237 20.5261H19.7537C17.6537 20.5261 16.7037 19.9361 16.2437 18.3661C15.6537 16.2861 15.4337 14.2161 15.4337 11.3761ZM0.9137 7.0161C0.3437 7.1661 0.0037 7.5861 0.0037 8.1361C0.0037 8.8561 0.5737 9.3261 1.3837 9.1161L11.0837 6.5361C11.2337 5.3761 11.3637 5.0061 11.4937 4.1861ZM0.9137 11.8761C0.3437 12.0361 0.0037 12.4661 0.0037 13.0161C0.0037 13.7361 0.6037 14.2061 1.3837 13.9961L10.7637 11.4861C10.7737 10.6961 10.7737 10.1261 10.8037 9.2461ZM0.9137 16.7661C0.3437 16.9161 0.0037 17.3461 0.0037 17.8861C0.0037 18.6161 0.5737 19.0861 1.3837 18.8661L11.0637 16.2961C10.9537 15.5961 10.8837 14.8761 10.8237 14.1261ZM0.9137 21.6461C0.3437 21.7961 0.0037 22.2161 0.0037 22.7661C0.0037 23.5061 0.5837 23.9661 1.3837 23.7461L12.1637 20.8661C11.9237 20.2661 11.6637 19.4261 11.5137 18.8161Z"
        fillRule="evenodd"
        clipRule="evenodd"
    />
</svg>
        