
<svg
    viewBox="0 0 35.51953125 22.6953125"
    xmlns="http://www.w3.org/2000/svg"
>
    <path
        fill="inherit"
        d="M13.1237 11.3624C13.1237 13.9324 13.3137 16.4224 14.0237 18.9524C14.8437 21.7124 16.4037 22.6924 19.6737 22.6924H20.4237C28.4237 22.6924 35.5237 17.4824 35.5237 11.3624C35.5237 5.2324 28.4237 0.0024 20.4237 0.0024H19.6737C16.4237 0.0024 14.8637 1.0024 14.0237 3.7624C13.3137 6.3024 13.1237 8.7924 13.1237 11.3624ZM15.3237 11.3624C15.3237 8.4924 15.5437 6.4124 16.1337 4.3724C16.6137 2.7724 17.5837 2.1724 19.6737 2.1724H20.4237C27.1637 2.1724 33.3337 6.4824 33.3337 11.3624C33.3337 16.2324 27.1637 20.5224 20.4237 20.5224H19.6737C17.5537 20.5224 16.5937 19.9324 16.1337 18.3524C15.5437 16.2924 15.3237 14.2324 15.3237 11.3624ZM0.0037 3.7324C0.0037 4.3524 0.4937 4.8224 1.0937 4.8224H11.2637C11.5137 3.7624 11.6337 3.2024 11.8437 2.6424H1.0937C0.4937 2.6424 0.0037 3.1424 0.0037 3.7324ZM0.0037 8.8024C0.0037 9.4024 0.5037 9.9024 1.0937 9.9024L10.6937 9.9124C10.7237 9.1624 10.7737 8.4324 10.8437 7.7124H1.0937C0.4937 7.7124 0.0037 8.2124 0.0037 8.8024ZM0.0037 13.9024C0.0037 14.4924 0.4937 14.9724 1.0937 14.9724H10.8437C10.7737 14.2624 10.7337 13.5324 10.6937 12.7924H1.0937C0.4937 12.7924 0.0037 13.3024 0.0037 13.9024ZM0.0037 18.9724C0.0037 19.5624 0.4937 20.0424 1.0937 20.0424L11.8237 20.0524C11.6437 19.5324 11.4037 18.5124 11.2637 17.8824L1.0937 17.8724C0.4937 17.8724 0.0037 18.3724 0.0037 18.9724Z"
        fillRule="evenodd"
        clipRule="evenodd"
    />
</svg>
        