
<svg
    viewBox={0 0 39.908203125 23.16015625}
    xmlns="http://www.w3.org/2000/svg"
>
    <path
        fill="inherit"
        d="M17.0637 11.5948C17.0337 14.2348 17.2537 16.7648 17.9737 19.3448C18.8137 22.1648 20.3937 23.1648 23.7337 23.1648H24.5037C32.6437 23.1648 39.9037 17.8448 39.9037 11.5948C39.9037 5.3448 32.6437 0.0048 24.5037 0.0048H23.7337C20.4137 0.0048 18.8237 1.0148 17.9737 3.8248C17.2537 6.4248 17.0337 8.9548 17.0637 11.5948ZM12.3837 6.8348C13.8537 6.8348 15.0537 5.6448 15.0537 4.1548C15.0537 2.6948 13.8537 1.5048 12.3837 1.5048C10.9137 1.5048 9.7037 2.6948 9.7037 4.1548C9.7037 5.6448 10.9137 6.8348 12.3837 6.8348ZM6.1937 6.1548C7.2837 6.1548 8.1737 5.2648 8.1737 4.1548C8.1737 3.0748 7.2837 2.1848 6.1937 2.1848C5.1037 2.1848 4.2137 3.0748 4.2137 4.1548C4.2137 5.2648 5.1037 6.1548 6.1937 6.1548ZM1.3537 5.5048C2.0737 5.5048 2.6837 4.9048 2.6837 4.1548C2.6837 3.4348 2.0737 2.8348 1.3537 2.8348C0.6037 2.8348 0.0037 3.4148 0.0037 4.1548C0.0037 4.9048 0.6037 5.5048 1.3537 5.5048ZM12.3837 14.2748C13.8537 14.2748 15.0537 13.0748 15.0537 11.5948C15.0537 10.1348 13.8537 8.9248 12.3837 8.9248C10.9137 8.9248 9.7037 10.1348 9.7037 11.5948C9.7037 13.0748 10.9137 14.2748 12.3837 14.2748ZM6.1937 13.5848C7.2837 13.5848 8.1737 12.7048 8.1737 11.5948C8.1737 10.5048 7.2837 9.6148 6.1937 9.6148C5.1037 9.6148 4.2137 10.5048 4.2137 11.5948C4.2137 12.7048 5.1037 13.5848 6.1937 13.5848ZM1.3537 12.9448C2.0737 12.9448 2.6837 12.3448 2.6837 11.5948C2.6837 10.8548 2.0737 10.2548 1.3537 10.2548C0.6037 10.2548 0.0037 10.8548 0.0037 11.5948C0.0037 12.3448 0.6037 12.9448 1.3537 12.9448ZM12.3837 21.6948C13.8537 21.6948 15.0537 20.5048 15.0537 19.0148C15.0537 17.5548 13.8537 16.3648 12.3837 16.3648C10.9137 16.3648 9.7037 17.5548 9.7037 19.0148C9.7037 20.5048 10.9137 21.6948 12.3837 21.6948ZM6.1937 21.0148C7.2837 21.0148 8.1737 20.1248 8.1737 19.0148C8.1737 17.9348 7.2837 17.0448 6.1937 17.0448C5.1037 17.0448 4.2137 17.9348 4.2137 19.0148C4.2137 20.1248 5.1037 21.0148 6.1937 21.0148ZM1.3537 20.3748C2.0737 20.3748 2.6837 19.7648 2.6837 19.0148C2.6837 18.2948 2.0737 17.6948 1.3537 17.6948C0.6037 17.6948 0.0037 18.2948 0.0037 19.0148C0.0037 19.7648 0.6037 20.3748 1.3537 20.3748Z"
        fillRule="evenodd"
        clipRule="evenodd"
    />
</svg>
        