
<svg
    viewBox={0 0 22.99609375 33.126953125}
    xmlns="http://www.w3.org/2000/svg"
>
    <path
        fill="inherit"
        d="M7.2737 6.9407H15.7237C16.5137 6.9407 16.9937 6.4407 16.9937 5.5907V4.1607C16.9937 3.3107 16.5137 2.8007 15.7237 2.8007H14.4637C14.3737 1.2607 13.0837 0.0007 11.4937 0.0007C9.9137 0.0007 8.6237 1.2607 8.5337 2.8007H7.2737C6.4837 2.8007 6.0037 3.3107 6.0037 4.1607V5.5907C6.0037 6.4407 6.4837 6.9407 7.2737 6.9407ZM11.4937 4.1007C10.8437 4.1007 10.3037 3.5507 10.3037 2.9107C10.3037 2.2407 10.8437 1.7107 11.4937 1.7107C12.1537 1.7107 12.6837 2.2407 12.6837 2.9107C12.6837 3.5507 12.1537 4.1007 11.4937 4.1007ZM4.2337 33.1307H18.7537C21.5837 33.1307 22.9937 31.7007 22.9937 28.8307V8.1107C22.9937 5.3007 21.6437 3.8107 18.9037 3.8107H18.5837C18.5937 3.9207 18.5937 4.0507 18.5937 4.1607V5.3907C18.5937 5.6007 18.5837 5.8207 18.5437 6.0107H18.8637C20.1537 6.0107 20.7937 6.8507 20.7937 8.1307V28.8107C20.7937 30.1707 20.0737 30.9307 18.6437 30.9307H4.3437C2.9237 30.9307 2.2037 30.1707 2.2037 28.8107V8.1307C2.2037 6.8507 2.8437 6.0107 4.1337 6.0107H4.4537C4.4137 5.8207 4.4037 5.6007 4.4037 5.3907V4.1607C4.4037 4.0507 4.4037 3.9207 4.4137 3.8107H4.0837C1.3537 3.8107 0.0037 5.3007 0.0037 8.1107V28.8307C0.0037 31.7007 1.4037 33.1307 4.2337 33.1307ZM8.2437 17.4207C8.3237 17.4207 8.4537 17.3407 8.5737 17.2507C9.9537 16.4107 11.8237 14.7507 11.8237 12.9707C11.8237 11.7707 10.9937 10.9007 9.8437 10.9007C9.1437 10.9007 8.5537 11.3207 8.2337 11.9507C7.8937 11.3207 7.3137 10.9007 6.5737 10.9007C5.4537 10.9007 4.6237 11.7707 4.6237 12.9707C4.6237 14.7507 6.5337 16.3107 7.8937 17.2507C8.0137 17.3507 8.1437 17.4207 8.2437 17.4207ZM5.4737 21.5307H17.5237C18.0037 21.5307 18.3937 21.1507 18.3937 20.6707C18.3937 20.2107 18.0037 19.8407 17.5237 19.8407H5.4737C4.9937 19.8407 4.6037 20.2107 4.6037 20.6707C4.6037 21.1507 4.9937 21.5307 5.4737 21.5307ZM5.4737 26.6507H12.3637C12.8237 26.6507 13.2037 26.2607 13.2037 25.8007C13.2037 25.3307 12.8337 24.9507 12.3637 24.9507H5.4737C4.9937 24.9507 4.6037 25.3307 4.6037 25.8007C4.6037 26.2607 5.0037 26.6507 5.4737 26.6507Z"
        fillRule="evenodd"
        clipRule="evenodd"
    />
</svg>
        