
<svg
    viewBox="0 0 27.890625 27.890625"
    xmlns="http://www.w3.org/2000/svg"
>
    <path
        fill="inherit"
        d="M13.9427 27.8864C21.6427 27.8864 27.8927 21.6264 27.8927 13.9464C27.8927 6.2464 21.6427 -0.0036 13.9427 -0.0036C6.2627 -0.0036 0.0027 6.2464 0.0027 13.9464C0.0027 21.6264 6.2627 27.8864 13.9427 27.8864ZM10.5527 7.7064C12.0727 7.7064 13.2327 8.5764 13.9427 9.8564C14.6427 8.5764 15.8327 7.7064 17.3327 7.7064C19.7127 7.7064 21.4527 9.5164 21.4527 12.0164C21.4527 15.7064 17.5127 19.0864 14.6427 20.9564C14.4227 21.1264 14.1527 21.2964 13.9727 21.2964C13.7927 21.2964 13.4827 21.1064 13.2327 20.9564C10.3527 19.1264 6.4427 15.7064 6.4427 12.0164C6.4427 9.5164 8.1627 7.7064 10.5527 7.7064Z"
        fillRule="evenodd"
        clipRule="evenodd"
    />
</svg>
        