
<svg
    viewBox="0 0 25.169921875 25.169921875"
    xmlns="http://www.w3.org/2000/svg"
>
    <path
        fill="inherit"
        d="M4.2937 25.1692H20.8737C23.7437 25.1692 25.1737 23.7592 25.1737 20.9492V4.2392C25.1737 1.4192 23.7437 -0.0008 20.8737 -0.0008H4.2937C1.4337 -0.0008 0.0037 1.4192 0.0037 4.2392V20.9492C0.0037 23.7592 1.4337 25.1692 4.2937 25.1692ZM4.3237 22.9692C2.9537 22.9692 2.2037 22.2392 2.2037 20.8192V4.3592C2.2037 2.9392 2.9537 2.1992 4.3237 2.1992H20.8537C22.2037 2.1992 22.9737 2.9392 22.9737 4.3592V20.8192C22.9737 22.2392 22.2037 22.9692 20.8537 22.9692ZM6.8737 4.5092C5.7537 4.5092 4.9237 5.3892 4.9237 6.5892C4.9237 8.3692 6.8337 9.9292 8.1937 10.8692C8.3237 10.9692 8.4637 11.0292 8.5437 11.0292C8.6437 11.0292 8.7537 10.9492 8.8737 10.8692C10.2537 10.0192 12.1237 8.3692 12.1237 6.5892C12.1237 5.3892 11.2937 4.5092 10.1437 4.5092C9.4437 4.5092 8.8637 4.9392 8.5337 5.5692C8.1937 4.9392 7.6337 4.5092 6.8737 4.5092ZM5.7837 15.3092H19.2537C19.7237 15.3092 20.0937 14.9392 20.0937 14.4692C20.0937 13.9992 19.7237 13.6292 19.2537 13.6292H5.7837C5.2937 13.6292 4.9237 13.9992 4.9237 14.4692C4.9237 14.9392 5.2937 15.3092 5.7837 15.3092ZM5.7837 19.9892H15.6537C16.1337 19.9892 16.5037 19.6192 16.5037 19.1592C16.5037 18.6792 16.1337 18.3092 15.6537 18.3092H5.7837C5.2937 18.3092 4.9237 18.6792 4.9237 19.1592C4.9237 19.6192 5.2937 19.9892 5.7837 19.9892Z"
        fillRule="evenodd"
        clipRule="evenodd"
    />
</svg>
        