
<svg
    viewBox="0 0 32.23828125 25.169921875"
    xmlns="http://www.w3.org/2000/svg"
>
    <path
        fill="inherit"
        d="M4.2937 25.1692H27.9437C30.8137 25.1692 32.2337 23.7592 32.2337 20.9492V4.2392C32.2337 1.4192 30.8137 -0.0008 27.9437 -0.0008H4.2937C1.4337 -0.0008 0.0037 1.4192 0.0037 4.2392V20.9492C0.0037 23.7592 1.4337 25.1692 4.2937 25.1692ZM12.7237 6.3592C14.2437 6.3592 15.4237 7.2192 16.1237 8.4992C16.8337 7.2192 18.0237 6.3592 19.5137 6.3592C21.9037 6.3592 23.6237 8.1592 23.6237 10.6592C23.6237 14.3592 19.6837 17.7292 16.8337 19.6092C16.6137 19.7692 16.3337 19.9492 16.1437 19.9492C15.9837 19.9492 15.6637 19.7592 15.4237 19.6092C12.5337 17.7692 8.6237 14.3592 8.6237 10.6592C8.6237 8.1592 10.3537 6.3592 12.7237 6.3592Z"
        fillRule="evenodd"
        clipRule="evenodd"
    />
</svg>
        