
<svg
    viewBox="0 0 28.42041015625 27.0361328125"
    xmlns="http://www.w3.org/2000/svg"
>
    <path
        fill="inherit"
        d="M24.9717 26.4526C25.3817 26.8726 26.0717 26.8726 26.4617 26.4526C26.8617 26.0426 26.8717 25.3826 26.4617 24.9626L1.8017 0.3026C1.3917 -0.1074 0.7117 -0.1074 0.3017 0.3026C-0.0983 0.7026 -0.0983 1.4026 0.3017 1.8026ZM23.8717 20.1226C26.7617 16.9326 28.4217 13.5726 28.4217 10.1926C28.4217 5.3526 25.1017 1.9326 20.6717 1.9326C18.1417 1.9326 16.0917 3.1426 14.8417 4.9826C13.6317 3.1526 11.5517 1.9326 9.0217 1.9326C8.0217 1.9326 7.0817 2.1126 6.2217 2.4426L8.0517 4.2726C8.3317 4.1726 8.6617 4.1326 8.9917 4.1326C11.5617 4.1326 13.0417 5.7326 13.9117 7.1026C14.2817 7.6526 14.5117 7.8026 14.8417 7.8026C15.1717 7.8026 15.3817 7.6326 15.7717 7.1026C16.7217 5.7626 18.1417 4.1326 20.6917 4.1326C23.8717 4.1326 26.2217 6.5526 26.2217 10.1926C26.2217 12.9526 24.6317 15.8426 22.2517 18.5026ZM19.9617 23.7426L18.3817 22.1726C17.3617 23.0026 16.2417 23.8226 15.1317 24.5626C14.9917 24.6526 14.9017 24.7226 14.8417 24.7226C14.7917 24.7226 14.6917 24.6526 14.5717 24.5626C8.8417 20.7626 3.4717 15.2826 3.4717 10.1926C3.4717 9.2726 3.6517 8.4426 3.9617 7.7426L2.2617 6.0326C1.6217 7.2226 1.2717 8.6326 1.2717 10.1926C1.2717 16.0126 6.1517 21.7426 13.8617 26.6626C14.1517 26.8426 14.5617 27.0326 14.8417 27.0326C15.1317 27.0326 15.5417 26.8426 15.8417 26.6626C17.3017 25.7226 18.7017 24.7426 19.9617 23.7426Z"
        fillRule="evenodd"
        clipRule="evenodd"
    />
</svg>
        