
<svg
    viewBox="0 0 30.337890625 29.1484375"
    xmlns="http://www.w3.org/2000/svg"
>
    <path
        fill="inherit"
        d="M9.3337 22.9661C9.3337 26.7561 11.6737 29.1461 15.3637 29.1461C18.1037 29.1461 20.1637 27.9461 21.4537 25.6261L22.6837 23.4161C25.5637 18.1561 30.3337 17.4561 30.3337 10.6961C30.3337 4.2761 26.1937 -0.0039 19.9737 -0.0039C13.6137 -0.0039 9.3337 4.3061 9.3337 10.7361ZM2.2937 6.4761C3.5537 6.4761 4.5937 5.4561 4.5937 4.1961C4.5937 2.9261 3.5537 1.8961 2.2937 1.8961C1.0237 1.8961 0.0037 2.9261 0.0037 4.1961C0.0037 5.4561 1.0237 6.4761 2.2937 6.4761ZM13.3337 19.1861C13.3337 16.5461 16.2237 16.8661 16.2237 15.3561C16.2237 13.9861 13.3337 12.9861 13.3337 9.9361C13.3337 6.4561 15.9937 3.9561 19.9637 3.9561C23.9437 3.9561 26.5937 6.6161 26.5937 10.5861C26.5937 11.1661 26.1137 11.6661 25.5237 11.6661C24.9537 11.6661 24.4437 11.1661 24.4437 10.5861C24.4437 7.8761 22.6937 6.0961 19.9637 6.0961C17.2637 6.0961 15.4737 7.7261 15.4737 9.9361C15.4737 12.7961 19.6737 13.4561 19.6737 17.5261C19.6737 19.7961 18.2237 21.6161 16.0937 21.6261C14.4537 21.6261 13.3337 20.6461 13.3337 19.1861ZM2.2937 13.5861C3.5537 13.5861 4.5937 12.5661 4.5937 11.3061C4.5937 10.0361 3.5537 9.0061 2.2937 9.0061C1.0237 9.0061 0.0037 10.0361 0.0037 11.3061C0.0037 12.5661 1.0237 13.5861 2.2937 13.5861ZM2.2937 20.7261C3.5537 20.7261 4.5937 19.7061 4.5937 18.4461C4.5937 17.1761 3.5537 16.1461 2.2937 16.1461C1.0237 16.1461 0.0037 17.1761 0.0037 18.4461C0.0037 19.7061 1.0237 20.7261 2.2937 20.7261ZM2.2937 27.8361C3.5537 27.8361 4.5937 26.8061 4.5937 25.5561C4.5937 24.2861 3.5537 23.2561 2.2937 23.2561C1.0237 23.2561 0.0037 24.2861 0.0037 25.5561C0.0037 26.8061 1.0237 27.8361 2.2937 27.8361Z"
        fillRule="evenodd"
        clipRule="evenodd"
    />
</svg>
        