
<svg
    viewBox="0 0 27.890625 27.890625"
    xmlns="http://www.w3.org/2000/svg"
>
    <path
        fill="inherit"
        d="M13.9427 27.8864C21.6427 27.8864 27.8927 21.6464 27.8927 13.9464C27.8927 6.2464 21.6427 -0.0036 13.9427 -0.0036C6.2527 -0.0036 0.0027 6.2464 0.0027 13.9464C0.0027 21.6464 6.2527 27.8864 13.9427 27.8864ZM13.9427 25.5664C7.5227 25.5664 2.3227 20.3664 2.3227 13.9464C2.3227 7.5164 7.5227 2.3264 13.9427 2.3264C20.3727 2.3264 25.5627 7.5164 25.5627 13.9464C25.5627 20.3664 20.3727 25.5664 13.9427 25.5664ZM20.3727 21.2564C20.6127 21.4964 21.0127 21.4964 21.2427 21.2564C21.5027 21.0164 21.5027 20.6264 21.2427 20.3864L7.4827 6.6064C7.2327 6.3564 6.8327 6.3564 6.5927 6.6064C6.3527 6.8464 6.3527 7.2464 6.5927 7.4764ZM10.3227 7.9564L19.1427 16.7864C20.3327 15.3664 21.2027 13.7764 21.2027 12.0864C21.2027 9.6664 19.5227 7.9164 17.2127 7.9164C15.7627 7.9164 14.6027 8.7464 13.9327 9.9964C13.2527 8.7464 12.1127 7.9164 10.6527 7.9164C10.5427 7.9164 10.4327 7.9264 10.3227 7.9564ZM16.7627 19.1164L7.3327 9.6964C6.9027 10.3464 6.6627 11.1664 6.6627 12.0864C6.6627 15.6864 10.4027 19.0464 13.2527 20.7664C13.4827 20.9064 13.7827 21.0964 13.9627 21.0964C14.1227 21.0964 14.3927 20.9164 14.6027 20.7664C15.2627 20.3064 16.0227 19.7464 16.7627 19.1164Z"
        fillRule="evenodd"
        clipRule="evenodd"
    />
</svg>
        