
<svg
    viewBox="0 0 22.99609375 33.126953125"
    xmlns="http://www.w3.org/2000/svg"
>
    <path
        fill="inherit"
        d="M7.2737 6.9407H15.7237C16.5137 6.9407 16.9937 6.4407 16.9937 5.5907V4.1607C16.9937 3.3107 16.5137 2.8007 15.7237 2.8007H14.4637C14.3737 1.2607 13.0837 0.0007 11.4937 0.0007C9.9137 0.0007 8.6237 1.2607 8.5337 2.8007H7.2737C6.4837 2.8007 6.0037 3.3107 6.0037 4.1607V5.5907C6.0037 6.4407 6.4837 6.9407 7.2737 6.9407ZM11.4937 4.1007C10.8437 4.1007 10.3037 3.5507 10.3037 2.9107C10.3037 2.2407 10.8437 1.7107 11.4937 1.7107C12.1537 1.7107 12.6837 2.2407 12.6837 2.9107C12.6837 3.5507 12.1537 4.1007 11.4937 4.1007ZM4.2337 33.1307H18.7537C21.5837 33.1307 22.9937 31.7007 22.9937 28.8307V8.0907C22.9937 5.2207 21.5837 3.8007 18.8937 3.8007H18.5837V5.5907C18.5837 7.3107 17.4137 8.5307 15.7237 8.5307H7.2737C5.5737 8.5307 4.4137 7.3107 4.4137 5.5907V3.8007H4.1037C1.4037 3.8007 0.0037 5.2207 0.0037 8.0907V28.8307C0.0037 31.7007 1.4037 33.1307 4.2337 33.1307ZM8.1337 18.7007C8.0437 18.7007 7.9037 18.6507 7.7837 18.5507C6.3737 17.5707 4.4037 15.9707 4.4037 14.1407C4.4037 12.8907 5.2637 11.9907 6.4237 11.9907C7.1737 11.9907 7.7837 12.4307 8.1237 13.0807C8.4637 12.4307 9.0637 11.9907 9.7937 11.9907C10.9737 11.9907 11.8437 12.8907 11.8437 14.1407C11.8437 15.9707 9.9137 17.6607 8.4737 18.5507C8.3537 18.6307 8.2337 18.7007 8.1337 18.7007ZM5.2737 22.9507C4.7837 22.9507 4.3937 22.5607 4.3937 22.0707C4.3937 21.5907 4.7837 21.2007 5.2737 21.2007H17.7237C18.2137 21.2007 18.6037 21.5907 18.6037 22.0707C18.6037 22.5607 18.2137 22.9507 17.7237 22.9507ZM5.2737 28.2307C4.8037 28.2307 4.3937 27.8407 4.3937 27.3607C4.3937 26.8607 4.7837 26.4707 5.2737 26.4707H12.3837C12.8837 26.4707 13.2637 26.8607 13.2637 27.3607C13.2637 27.8407 12.8637 28.2307 12.3837 28.2307Z"
        fillRule="evenodd"
        clipRule="evenodd"
    />
</svg>
        