
<svg
    viewBox={0 0 30.337890625 29.1484375}
    xmlns="http://www.w3.org/2000/svg"
>
    <path
        fill="inherit"
        d="M9.3337 22.9698C9.3337 26.7398 11.6737 29.1498 15.3637 29.1498C18.1037 29.1498 20.1637 27.9498 21.4537 25.6198L22.6837 23.4198C25.5637 18.1398 30.3337 17.4598 30.3337 10.6798C30.3337 4.2798 26.1937 -0.0002 19.9737 -0.0002C13.6137 -0.0002 9.3337 4.3098 9.3337 10.7298ZM2.2937 6.4898C3.5537 6.4898 4.5937 5.4698 4.5937 4.2098C4.5937 2.9398 3.5537 1.9098 2.2937 1.9098C1.0237 1.9098 0.0037 2.9398 0.0037 4.2098C0.0037 5.4698 1.0237 6.4898 2.2937 6.4898ZM11.4037 22.8298V10.7298C11.4037 5.5198 14.8337 2.0598 19.9737 2.0598C24.9537 2.0598 28.2737 5.5198 28.2737 10.6798C28.2737 16.3498 23.8137 17.3398 20.8537 22.4898L19.6437 24.5298C18.6737 26.2198 17.3337 27.0298 15.4637 27.0298C12.9337 27.0298 11.4037 25.4398 11.4037 22.8298ZM13.5337 18.9898C13.5337 20.4098 14.6137 21.3598 16.2037 21.3598C18.2637 21.3398 19.6737 19.5898 19.6737 17.3898C19.6737 13.4498 15.6037 12.7998 15.6037 10.0198C15.6037 7.8798 17.3537 6.2898 19.9637 6.2898C22.6137 6.2898 24.3237 8.0098 24.3237 10.6498C24.3237 11.2098 24.8037 11.6898 25.3637 11.6898C25.9237 11.6898 26.3837 11.2098 26.3837 10.6498C26.3837 6.8098 23.8137 4.2198 19.9637 4.2198C16.1237 4.2198 13.5337 6.6398 13.5337 10.0198C13.5337 12.9898 16.3337 13.9598 16.3337 15.2898C16.3337 16.7598 13.5337 16.4298 13.5337 18.9898ZM2.2937 13.5998C3.5537 13.5998 4.5937 12.5798 4.5937 11.3198C4.5937 10.0498 3.5537 9.0198 2.2937 9.0198C1.0237 9.0198 0.0037 10.0498 0.0037 11.3198C0.0037 12.5798 1.0237 13.5998 2.2937 13.5998ZM2.2937 20.7398C3.5537 20.7398 4.5937 19.7198 4.5937 18.4598C4.5937 17.1898 3.5537 16.1598 2.2937 16.1598C1.0237 16.1598 0.0037 17.1898 0.0037 18.4598C0.0037 19.7198 1.0237 20.7398 2.2937 20.7398ZM2.2937 27.8498C3.5537 27.8498 4.5937 26.8198 4.5937 25.5698C4.5937 24.2998 3.5537 23.2698 2.2937 23.2698C1.0237 23.2698 0.0037 24.2998 0.0037 25.5698C0.0037 26.8198 1.0237 27.8498 2.2937 27.8498Z"
        fillRule="evenodd"
        clipRule="evenodd"
    />
</svg>
        