
<svg
    viewBox={0 0 25.169921875 25.169921875}
    xmlns="http://www.w3.org/2000/svg"
>
    <path
        fill="inherit"
        d="M4.2937 25.1692H20.8737C23.7437 25.1692 25.1737 23.7592 25.1737 20.9492V4.2392C25.1737 1.4192 23.7437 -0.0008 20.8737 -0.0008H4.2937C1.4337 -0.0008 0.0037 1.4192 0.0037 4.2392V20.9492C0.0037 23.7592 1.4337 25.1692 4.2937 25.1692ZM6.1537 3.6892C6.8937 3.6892 7.4537 4.1192 7.7937 4.7392C8.1337 4.1192 8.7237 3.6892 9.4037 3.6892C10.5637 3.6892 11.4037 4.5692 11.4037 5.7692C11.4037 7.5492 9.5337 9.1992 8.1437 10.0592C8.0237 10.1292 7.9037 10.2092 7.8037 10.2092C7.7237 10.2092 7.5837 10.1492 7.4637 10.0592C6.1137 9.1092 4.1937 7.5492 4.1937 5.7692C4.1937 4.5692 5.0337 3.6892 6.1537 3.6892ZM5.0537 16.3192C4.5537 16.3192 4.1937 15.9592 4.1937 15.4792C4.1937 15.0092 4.5537 14.6392 5.0537 14.6392H18.8037C19.2737 14.6392 19.6337 15.0092 19.6337 15.4792C19.6337 15.9592 19.2737 16.3192 18.8037 16.3192ZM5.0537 20.9992C4.5537 20.9992 4.1937 20.6292 4.1937 20.1692C4.1937 19.6892 4.5537 19.3192 5.0537 19.3192H15.1937C15.6837 19.3192 16.0337 19.6892 16.0337 20.1692C16.0337 20.6292 15.6837 20.9992 15.1937 20.9992Z"
        fillRule="evenodd"
        clipRule="evenodd"
    />
</svg>
        