
<svg
    viewBox={0 0 32.23828125 25.169921875}
    xmlns="http://www.w3.org/2000/svg"
>
    <path
        fill="inherit"
        d="M4.2937 25.1692H27.9437C30.8137 25.1692 32.2337 23.7592 32.2337 20.9492V4.2392C32.2337 1.4192 30.8137 -0.0008 27.9437 -0.0008H4.2937C1.4337 -0.0008 0.0037 1.4192 0.0037 4.2392V20.9492C0.0037 23.7592 1.4337 25.1692 4.2937 25.1692ZM4.3237 22.9692C2.9537 22.9692 2.2037 22.2392 2.2037 20.8192V4.3592C2.2037 2.9392 2.9537 2.1992 4.3237 2.1992H27.9137C29.2737 2.1992 30.0337 2.9392 30.0337 4.3592V20.8192C30.0337 22.2392 29.2737 22.9692 27.9137 22.9692ZM12.8637 6.5492C10.5437 6.5492 8.8737 8.2992 8.8737 10.7192C8.8737 14.3192 12.6637 17.6192 15.4637 19.3992C15.6937 19.5392 15.9937 19.7292 16.1737 19.7292C16.3337 19.7292 16.6137 19.5492 16.8137 19.3992C19.6037 17.5792 23.4237 14.3192 23.4237 10.7192C23.4237 8.2992 21.7337 6.5492 19.4237 6.5492C17.9737 6.5492 16.8137 7.3792 16.1437 8.6292C15.4637 7.3792 14.3237 6.5492 12.8637 6.5492Z"
        fillRule="evenodd"
        clipRule="evenodd"
    />
</svg>
        