
<svg
    viewBox="0 0 21 29.1484375"
    xmlns="http://www.w3.org/2000/svg"
>
    <path
        fill="inherit"
        d="M0.0037 22.9661C0.0037 26.7561 2.3537 29.1461 6.0337 29.1461C8.7737 29.1461 10.8237 27.9461 12.1237 25.6261L13.3537 23.4161C16.2437 18.1561 21.0037 17.4561 21.0037 10.6961C21.0037 4.2761 16.8537 -0.0039 10.6537 -0.0039C4.2937 -0.0039 0.0037 4.3061 0.0037 10.7361ZM2.0637 22.8361V10.7361C2.0637 5.5261 5.4937 2.0661 10.6537 2.0661C15.6237 2.0661 18.9337 5.5261 18.9337 10.6961C18.9337 16.3561 14.4937 17.3361 11.5137 22.4861L10.3237 24.5261C9.3537 26.2261 7.9937 27.0261 6.1237 27.0261C3.5937 27.0261 2.0637 25.4461 2.0637 22.8361ZM4.2137 18.9861C4.2137 20.4161 5.2737 21.3561 6.8737 21.3561C8.9437 21.3461 10.3537 19.5961 10.3537 17.3861C10.3537 13.4561 6.2737 12.7961 6.2737 10.0261C6.2737 7.8761 8.0237 6.2861 10.6337 6.2861C13.2937 6.2861 14.9937 8.0161 14.9937 10.6461C14.9937 11.2061 15.4637 11.6861 16.0237 11.6861C16.5837 11.6861 17.0637 11.2061 17.0637 10.6461C17.0637 6.8061 14.4937 4.2261 10.6337 4.2261C6.7937 4.2261 4.2137 6.6461 4.2137 10.0261C4.2137 12.9861 7.0137 13.9561 7.0137 15.2861C7.0137 16.7661 4.2137 16.4361 4.2137 18.9861Z"
        fillRule="evenodd"
        clipRule="evenodd"
    />
</svg>
        