<svg viewBox="0 0 25.169921875 25.169921875" xmlns="http://www.w3.org/2000/svg"><path d="M4.2937 25.1692H20.8737C23.7437 25.1692 25.1737 23.7592 25.1737 20.9492V4.2392C25.1737 1.4192 23.7437 -0.0008 20.8737 -0.0008H4.2937C1.4337 -0.0008 0.0037 1.4192 0.0037 4.2392V20.9492C0.0037 23.7592 1.4337 25.1692 4.2937 25.1692ZM4.3237 22.9692C2.9537 22.9692 2.2037 22.2392 2.2037 20.8192V4.3592C2.2037 2.9392 2.9537 2.1992 4.3237 2.1992H20.8537C22.2037 2.1992 22.9737 2.9392 22.9737 4.3592V20.8192C22.9737 22.2392 22.2037 22.9692 20.8537 22.9692ZM9.3237 6.5492C7.0137 6.5492 5.3337 8.2992 5.3337 10.7192C5.3337 14.3192 9.1237 17.6192 11.9337 19.3992C12.1637 19.5392 12.4737 19.7292 12.6337 19.7292C12.8137 19.7292 13.0837 19.5492 13.2937 19.3992C16.0637 17.5792 19.8837 14.3192 19.8837 10.7192C19.8837 8.2992 18.2137 6.5492 15.8837 6.5492C14.4537 6.5492 13.2937 7.3792 12.6037 8.6292C11.9337 7.3792 10.7837 6.5492 9.3237 6.5492Z" /></svg>