
<svg
    viewBox={0 0 28.42041015625 27.0361328125}
    xmlns="http://www.w3.org/2000/svg"
>
    <path
        fill="inherit"
        d="M24.9717 26.4526C25.3817 26.8726 26.0717 26.8726 26.4617 26.4526C26.8617 26.0426 26.8717 25.3826 26.4617 24.9626L1.8017 0.3026C1.3917 -0.1074 0.7117 -0.1074 0.3017 0.3026C-0.0983 0.7026 -0.0983 1.4026 0.3017 1.8026ZM23.8517 20.1326C26.7617 16.9326 28.4217 13.5826 28.4217 10.1926C28.4217 5.3526 25.1017 1.9326 20.8017 1.9326C18.1417 1.9326 16.0917 3.4126 14.8417 5.6626C13.6317 3.4226 11.5517 1.9326 8.8817 1.9326C7.9217 1.9326 7.0117 2.1026 6.1917 2.4226ZM19.9417 23.7426L2.2517 6.0326C1.6217 7.2226 1.2717 8.6326 1.2717 10.1926C1.2717 16.0126 6.1517 21.7426 13.8617 26.6626C14.1517 26.8426 14.5617 27.0326 14.8417 27.0326C15.1317 27.0326 15.5417 26.8426 15.8417 26.6626C17.3017 25.7226 18.6817 24.7426 19.9417 23.7426Z"
        fillRule="evenodd"
        clipRule="evenodd"
    />
</svg>
        