
<svg
    viewBox="0 0 17.896484375 35.53216681548579"
    xmlns="http://www.w3.org/2000/svg"
>
    <path
        fill="inherit"
        d="M4.8237 7.7951C4.8237 5.7851 3.0237 4.6651 3.0237 3.2851C3.0237 2.5151 3.2237 2.0951 3.7337 1.3951C4.4537 0.4251 3.1137 -0.5649 2.3937 0.3851C1.6537 1.2951 1.3437 2.1451 1.3437 3.1751C1.3437 5.2651 3.1137 6.2851 3.1137 7.7951C3.1137 9.2651 1.3437 10.3051 1.3437 12.3851C1.3437 13.4151 1.6537 14.2551 2.3837 15.1751C3.1037 16.1051 4.4437 15.1151 3.7237 14.1651C3.2237 13.4751 3.0237 13.0551 3.0237 12.2651C3.0237 10.9251 4.8237 9.7851 4.8237 7.7951ZM16.5537 7.7951C16.5537 5.7851 14.7537 4.6651 14.7537 3.2851C14.7537 2.5151 14.9537 2.0951 15.4737 1.3951C16.2037 0.4251 14.8437 -0.5649 14.1137 0.3851C13.3837 1.2951 13.0737 2.1451 13.0737 3.1751C13.0737 5.2651 14.8437 6.2851 14.8437 7.7951C14.8437 9.2651 13.0737 10.3051 13.0737 12.3851C13.0737 13.4151 13.3837 14.2551 14.0937 15.1751C14.8337 16.1051 16.1837 15.1151 15.4637 14.1651C14.9537 13.4751 14.7537 13.0551 14.7537 12.2651C14.7537 10.9251 16.5537 9.7851 16.5537 7.7951ZM10.7037 7.7951C10.7037 5.7851 8.9037 4.6651 8.9037 3.2851C8.9037 2.5151 9.0937 2.0951 9.6137 1.3951C10.3337 0.4251 8.9937 -0.5649 8.2437 0.3851C7.5337 1.2951 7.2037 2.1451 7.2037 3.1751C7.2037 5.2651 8.9737 6.2851 8.9737 7.7951C8.9737 9.2651 7.2037 10.3051 7.2037 12.3851C7.2037 13.4151 7.5337 14.2551 8.2437 15.1751C8.9737 16.1051 10.3237 15.1151 9.5937 14.1651C9.0937 13.4751 8.9037 13.0551 8.9037 12.2651C8.9037 10.9251 10.7037 9.7851 10.7037 7.7951ZM11.8937 35.5351C14.5737 35.5351 17.2937 33.0751 17.2937 30.7851C17.2937 28.6851 15.4037 27.6551 12.0837 26.3851L12.0037 25.9051H15.5737C17.1137 25.9051 17.8937 25.1251 17.8937 23.6251C17.8937 20.9451 15.4637 18.2051 13.1637 18.2051C11.0637 18.2051 10.0337 20.1151 8.7637 23.4451L8.3037 23.5151V19.9151C8.3037 18.4051 7.5037 17.6051 6.0137 17.6051C3.3237 17.6051 0.6037 20.0551 0.6037 22.3351C0.6037 24.4351 2.5037 25.4851 5.8337 26.7451L5.8837 27.2051H2.3137C0.7937 27.2051 0.0037 28.0151 0.0037 29.4851C0.0037 32.1951 2.4437 34.9051 4.7337 34.9051C6.8237 34.9051 7.8737 33.0351 9.1237 29.7051L9.5937 29.6251V33.1951C9.5937 34.7251 10.3937 35.5351 11.8937 35.5351ZM8.9437 28.3951C7.9337 28.3951 7.1137 27.5751 7.1137 26.5651C7.1137 25.5551 7.9337 24.7351 8.9437 24.7351C9.9537 24.7351 10.7737 25.5551 10.7737 26.5651C10.7737 27.5751 9.9537 28.3951 8.9437 28.3951Z"
        fillRule="evenodd"
        clipRule="evenodd"
    />
</svg>
        