
<svg
    viewBox={0 0 39.64558556644723 20.927259600354034}
    xmlns="http://www.w3.org/2000/svg"
>
    <path
        fill="inherit"
        d="M19.8269 18.7021C22.5169 18.7021 25.6669 19.5221 28.0069 20.7421C28.6369 21.0821 29.3269 20.9421 29.7369 20.4121L39.0469 8.5621C39.9669 7.3821 39.8169 6.1421 38.6569 5.2221C34.8369 2.2821 27.5269 0.0021 19.8269 0.0021C12.1269 0.0021 4.8169 2.2821 0.9869 5.2221C-0.1731 6.1421 -0.3231 7.3821 0.6069 8.5621L9.9169 20.4121C10.3269 20.9421 11.0069 21.0821 11.6369 20.7421C13.9769 19.5221 17.1369 18.7021 19.8269 18.7021ZM20.5269 5.3221C20.2069 4.6721 19.4369 4.6721 19.1269 5.3221L16.3569 11.4721L14.0769 6.5721C13.7469 5.8621 12.8169 5.8521 12.4569 6.6221L10.9969 9.7621H4.3669L2.7969 7.7621C2.5369 7.4221 2.5769 7.0921 2.9469 6.8521C7.6469 3.8821 13.6769 2.2021 19.8269 2.2021C25.9769 2.2021 32.0069 3.8821 36.7169 6.8521C37.0869 7.0921 37.1269 7.4221 36.8469 7.7621L35.2869 9.7621H28.6469L27.1969 6.6221C26.8469 5.8521 25.8969 5.8621 25.5669 6.5721L23.2869 11.4721ZM19.8269 16.5021C17.3269 16.5021 14.4369 17.1621 11.6569 18.3021C11.3069 18.4421 11.1569 18.4121 10.8869 18.0721L5.8469 11.6321H11.5569C11.9969 11.6321 12.2169 11.4121 12.3769 11.0621L13.2669 9.1021L15.6569 14.3021C15.9469 14.9021 16.7569 14.9021 17.0569 14.2621L19.8269 8.1121L22.6069 14.2621C22.9069 14.9021 23.7069 14.9021 23.9869 14.3021L26.3769 9.1021L27.2769 11.0621C27.4469 11.4121 27.6469 11.6321 28.0869 11.6321H33.8169L28.7669 18.0721C28.4969 18.4121 28.3469 18.4421 28.0069 18.3021C25.2169 17.1621 22.3169 16.5021 19.8269 16.5021Z"
        fillRule="evenodd"
        clipRule="evenodd"
    />
</svg>
        