
<svg
    viewBox="0 0 25.88805313811845 26.914595370448108"
    xmlns="http://www.w3.org/2000/svg"
>
    <path
        fill="inherit"
        d="M18.5772 4.4981C18.1772 5.0881 18.4872 5.8881 19.2872 5.8881H20.9672V6.0381C20.9672 10.9781 23.5372 11.6381 23.5372 14.1481C23.5372 16.6781 20.2872 17.3381 20.2872 22.0681C20.2872 23.6681 20.7172 24.8681 21.8572 26.3181C22.8372 27.5481 24.7772 26.2881 23.7372 24.8981C22.9072 23.7981 22.6372 23.0481 22.6372 21.8981C22.6372 18.6481 25.8872 17.6681 25.8872 14.1481C25.8872 10.6381 23.3072 9.8281 23.3072 6.0381V5.8881H24.9572C25.7472 5.8881 26.0972 5.0981 25.6872 4.4981L22.9372 0.4881C22.5072 -0.1519 21.7772 -0.1819 21.3172 0.4881ZM9.3772 4.5481C8.9772 5.1381 9.2872 5.9381 10.0872 5.9381H11.7472V6.0981C11.7472 11.0181 14.3372 11.6781 14.3372 14.1881C14.3372 16.7181 11.0772 17.3781 11.0772 22.1181C11.0772 23.7081 11.5172 24.9081 12.6572 26.3581C13.6372 27.6081 15.5772 26.3481 14.5372 24.9481C13.7072 23.8481 13.4372 23.0881 13.4372 21.9581C13.4372 18.6881 16.6872 17.7081 16.6872 14.1881C16.6872 10.6781 14.0872 9.8881 14.0872 6.0981V5.9381H15.7572C16.5472 5.9381 16.8872 5.1581 16.4772 4.5481L13.7172 0.5481C13.3072 -0.0919 12.5672 -0.1219 12.1172 0.5481ZM0.1672 4.5981C-0.2228 5.1781 0.0872 5.9881 0.8872 5.9881H2.5472V6.1381C2.5472 11.0781 5.1372 11.7281 5.1372 14.2481C5.1372 16.7781 1.8772 17.4281 1.8772 22.1581C1.8772 23.7581 2.3172 24.9681 3.4572 26.4181C4.4372 27.6481 6.3772 26.3881 5.3372 25.0081C4.5072 23.8981 4.2272 23.1481 4.2272 21.9981C4.2272 18.7481 7.4872 17.7581 7.4872 14.2481C7.4872 10.7281 4.8872 9.9281 4.8872 6.1381V5.9881H6.5572C7.3472 5.9881 7.6872 5.1981 7.2772 4.5981L4.5172 0.5981C4.1072 -0.0419 3.3672 -0.0719 2.9172 0.5981Z"
        fillRule="evenodd"
        clipRule="evenodd"
    />
</svg>
        