<svg viewBox="0 0 32.27654962024513 32.853515625" xmlns="http://www.w3.org/2000/svg"><path d="M3.1037 32.851H11.5837C13.4637 32.851 14.6837 31.651 14.6837 29.801V3.051C14.6837 1.201 13.4637 0.001 11.5837 0.001H3.1037C1.2137 0.001 0.0037 1.201 0.0037 3.051V29.801C0.0037 31.651 1.2137 32.851 3.1037 32.851ZM3.1437 30.651C2.5537 30.651 2.2037 30.281 2.2037 29.681V3.171C2.2037 2.571 2.5537 2.201 3.1437 2.201H11.5437C12.1237 2.201 12.4837 2.571 12.4837 3.171V29.681C12.4837 30.281 12.1237 30.651 11.5437 30.651ZM10.4137 10.841C10.8037 10.841 11.1037 10.531 11.1037 10.141V4.741C11.1037 4.361 10.8037 4.051 10.4137 4.051C10.0237 4.051 9.7237 4.361 9.7237 4.741V10.141C9.7237 10.531 10.0237 10.841 10.4137 10.841ZM7.6037 10.841C7.9737 10.841 8.2837 10.531 8.2837 10.141V4.741C8.2837 4.361 7.9737 4.051 7.6037 4.051C7.2037 4.051 6.8937 4.361 6.8937 4.741V10.141C6.8937 10.531 7.2037 10.841 7.6037 10.841ZM20.0837 14.781C23.7337 14.781 25.6237 11.811 28.8037 11.811C29.5437 11.811 30.1737 11.961 30.9537 12.401C31.4437 12.671 31.8837 12.481 32.1037 12.171C32.3737 11.771 32.3437 11.171 31.7437 10.831C30.8437 10.291 29.8637 10.031 28.8037 10.031C25.1037 10.031 23.2137 13.011 20.0837 13.011C19.3437 13.011 18.7137 12.851 17.9237 12.401C17.4637 12.141 17.0037 12.321 16.7737 12.671C16.5337 13.061 16.5537 13.661 17.1337 13.991C18.0337 14.551 19.0337 14.781 20.0837 14.781ZM10.4137 19.771C10.8037 19.771 11.1037 19.471 11.1037 19.071V13.671C11.1037 13.291 10.8037 12.991 10.4137 12.991C10.0237 12.991 9.7237 13.291 9.7237 13.671V19.071C9.7237 19.471 10.0237 19.771 10.4137 19.771ZM7.6037 19.771C7.9737 19.771 8.2837 19.471 8.2837 19.071V13.671C8.2837 13.291 7.9737 12.991 7.6037 12.991C7.2037 12.991 6.8937 13.291 6.8937 13.671V19.071C6.8937 19.471 7.2037 19.771 7.6037 19.771ZM20.0937 18.801C23.7337 18.801 25.6337 15.831 28.8037 15.831C29.5537 15.831 30.1837 15.981 30.9637 16.421C31.4437 16.691 31.8937 16.501 32.1137 16.191C32.3737 15.791 32.3637 15.191 31.7737 14.851C30.8537 14.311 29.8637 14.051 28.8037 14.051C25.1137 14.051 23.2237 17.031 20.0937 17.031C19.3437 17.031 18.7137 16.871 17.9337 16.431C17.4737 16.161 17.0037 16.341 16.7737 16.691C16.5337 17.081 16.5537 17.681 17.1437 18.001C18.0437 18.571 19.0437 18.801 20.0937 18.801ZM20.0837 22.821C23.7337 22.821 25.6237 19.851 28.8037 19.851C29.5437 19.851 30.1737 20.001 30.9537 20.451C31.4437 20.731 31.8837 20.521 32.1037 20.211C32.3737 19.811 32.3437 19.211 31.7437 18.871C30.8437 18.331 29.8637 18.071 28.8037 18.071C25.1037 18.071 23.2137 21.051 20.0837 21.051C19.3437 21.051 18.7137 20.891 17.9237 20.451C17.4637 20.181 17.0037 20.361 16.7737 20.711C16.5337 21.091 16.5537 21.711 17.1337 22.041C18.0337 22.581 19.0337 22.821 20.0837 22.821ZM10.4137 28.721C10.8037 28.721 11.1037 28.411 11.1037 28.041V22.641C11.1037 22.241 10.8037 21.941 10.4137 21.941C10.0237 21.941 9.7237 22.241 9.7237 22.641V28.041C9.7237 28.411 10.0237 28.721 10.4137 28.721ZM7.6037 28.721C7.9737 28.721 8.2837 28.411 8.2837 28.041V22.641C8.2837 22.241 7.9737 21.941 7.6037 21.941C7.2037 21.941 6.8937 22.241 6.8937 22.641V28.041C6.8937 28.411 7.2037 28.721 7.6037 28.721Z" /></svg>