
<svg
    viewBox="0 0 33.25 33.25"
    xmlns="http://www.w3.org/2000/svg"
>
    <path
        fill="inherit"
        d="M6.2627 28.3824L8.2027 26.4424C10.2227 28.1924 12.8127 29.3124 15.6427 29.5324V32.2624C15.6427 32.8124 16.0827 33.2524 16.6227 33.2524C17.1727 33.2524 17.5927 32.8124 17.5927 32.2624V29.5324C20.4427 29.3124 23.0227 28.1924 25.0427 26.4424L26.9927 28.3824C27.3827 28.7824 28.0027 28.7824 28.3827 28.3824C28.7827 28.0024 28.7827 27.3824 28.3827 26.9924L26.4427 25.0624C28.1927 23.0224 29.3127 20.4424 29.5327 17.6124H32.2627C32.8127 17.6124 33.2527 17.1724 33.2527 16.6224C33.2527 16.0824 32.8127 15.6524 32.2627 15.6524H29.5327C29.3127 12.8124 28.1927 10.2224 26.4427 8.2024L28.3827 6.2624C28.7827 5.8624 28.7827 5.2524 28.3827 4.8624C28.0027 4.4824 27.3827 4.4724 26.9927 4.8624L25.0427 6.8124C23.0227 5.0624 20.4427 3.9424 17.5927 3.7324V0.9824C17.5927 0.4424 17.1727 0.0024 16.6227 0.0024C16.0827 0.0024 15.6427 0.4424 15.6427 0.9824V3.7324C12.8127 3.9424 10.2227 5.0624 8.2027 6.8124L6.2627 4.8624C5.8627 4.4724 5.2527 4.4824 4.8627 4.8624C4.4727 5.2524 4.4727 5.8624 4.8627 6.2624L6.8127 8.2024C5.0627 10.2224 3.9327 12.8124 3.7227 15.6524H0.9827C0.4327 15.6524 0.0027 16.0824 0.0027 16.6224C0.0027 17.1724 0.4327 17.6124 0.9827 17.6124H3.7227C3.9327 20.4424 5.0627 23.0224 6.8127 25.0624L4.8627 26.9924C4.4727 27.3824 4.4727 28.0024 4.8627 28.3824C5.2527 28.7824 5.8627 28.7824 6.2627 28.3824ZM17.5927 5.9724C19.8227 6.1624 21.8427 7.0524 23.4627 8.3924L17.5927 14.2624ZM9.7927 8.3924C11.4027 7.0524 13.4227 6.1624 15.6427 5.9724V14.2624ZM5.9627 15.6524C6.1627 13.4224 7.0427 11.4024 8.3927 9.7924L14.2627 15.6524ZM18.9927 15.6524L24.8527 9.7924C26.2127 11.4024 27.0827 13.4224 27.2927 15.6524ZM5.9627 17.6124H14.2627L8.3927 23.4624C7.0427 21.8524 6.1627 19.8224 5.9627 17.6124ZM18.9927 17.6124H27.2927C27.0827 19.8224 26.2127 21.8524 24.8527 23.4624ZM9.7927 24.8524L15.6427 18.9924V27.2924C13.4227 27.0824 11.4027 26.2124 9.7927 24.8524ZM17.5927 18.9924L23.4627 24.8524C21.8427 26.2124 19.8227 27.0824 17.5927 27.2924Z"
        fillRule="evenodd"
        clipRule="evenodd"
    />
</svg>
        