<svg viewBox="0 0 31.46683598675555 27.3840104573703" xmlns="http://www.w3.org/2000/svg"><path d="M18.094 27.374C18.694 27.274 18.954 26.834 18.854 26.264C18.624 24.964 18.434 23.854 18.404 22.044C18.384 20.574 18.404 18.794 18.474 16.964C20.374 17.324 22.464 18.044 25.144 18.044C29.414 18.044 31.234 17.174 31.424 16.014C31.554 15.614 31.404 15.274 30.614 14.454C29.974 13.794 29.564 12.714 29.314 11.364C28.464 6.634 25.144 2.594 19.954 0.884V3.814C19.954 4.404 19.544 4.824 19.004 4.824C18.474 4.824 18.074 4.404 18.074 3.844V0.394C17.384 0.244 16.674 0.154 15.964 0.084V4.454C15.964 5.044 15.534 5.454 15.014 5.454C14.484 5.454 14.074 5.044 14.074 4.484V0.004C13.324 0.014 12.664 0.024 11.954 0.134V3.804C11.954 4.384 11.554 4.814 11.034 4.814C10.494 4.814 10.094 4.384 10.094 3.824V0.474C4.814 1.804 1.224 5.684 0.254 10.174L4.774 12.224C5.294 12.454 5.524 12.984 5.294 13.454C5.074 13.944 4.544 14.154 4.054 13.914L0.004 12.114C-0.026 13.524 0.084 15.164 0.424 16.434C0.894 18.214 3.944 20.304 6.084 20.304C7.714 20.304 8.894 19.784 10.014 19.114L16.564 23.584C16.644 24.714 16.754 25.514 16.954 26.594C17.054 27.134 17.574 27.454 18.094 27.374ZM11.794 18.064C13.064 17.354 14.424 16.724 16.424 16.724H16.494C16.434 18.304 16.394 19.824 16.434 21.194Z" /></svg>