
<svg
    viewBox={0 0 31.476497303311596 27.3976823323703}
    xmlns="http://www.w3.org/2000/svg"
>
    <path
        fill="inherit"
        d="M6.0937 20.3077C7.6937 20.3077 8.8837 19.7677 10.0037 19.1277L16.5737 23.5977C16.6537 24.7177 16.7737 25.5277 16.9837 26.6077C17.0737 27.1477 17.5837 27.4677 18.1037 27.3877C18.7037 27.2877 18.9737 26.8477 18.8837 26.2777C18.6337 24.9777 18.4537 23.8677 18.4337 22.0577C18.4037 20.5777 18.4337 18.8277 18.4937 16.9577C20.4137 17.3377 22.4937 18.0477 25.1537 18.0477C29.4237 18.0477 31.2437 17.1677 31.4337 16.0077C31.5637 15.6177 31.4137 15.2677 30.6237 14.4477C29.9837 13.7977 29.5737 12.7177 29.3237 11.3577C28.2037 5.0477 22.6437 -0.0023 14.1337 -0.0023C5.6037 -0.0023 0.0037 6.0577 0.0037 12.6477C0.0037 13.9677 0.1937 15.5177 0.4337 16.4377C0.9037 18.2077 3.9537 20.3077 6.0937 20.3077ZM6.0937 18.2977C4.7837 18.2977 2.7437 17.1077 2.4237 15.7877C2.2537 15.1177 2.0637 14.0377 2.0237 12.9977L4.0637 13.9177C4.5537 14.1377 5.0837 13.9477 5.3037 13.4577C5.5337 12.9877 5.3037 12.4577 4.7837 12.2177L2.1437 11.0177C2.8037 7.2577 5.6837 3.7977 10.1037 2.4877V4.6477C10.1037 5.2177 10.5037 5.6377 11.0437 5.6377C11.5637 5.6377 11.9637 5.2077 11.9637 4.6377V2.0677C12.6437 1.9677 13.3437 1.9177 14.0837 1.9177V5.3077C14.0837 5.8677 14.4937 6.2777 15.0237 6.2777C15.5437 6.2777 15.9737 5.8477 15.9737 5.2777V2.0277C16.6837 2.1077 17.3937 2.2377 18.0837 2.4377V4.6577C18.0837 5.2377 18.4837 5.6477 19.0137 5.6477C19.5537 5.6477 19.9637 5.2177 19.9637 4.6377V3.0577C23.6837 4.6077 26.5737 7.5977 27.3137 11.4277C27.7037 13.4377 28.1237 14.5377 29.0137 15.4677C29.0937 15.5577 29.0937 15.6677 28.9537 15.7177C28.2737 15.9677 27.5337 16.0477 25.1537 16.0477C21.6937 16.0477 18.9537 14.7977 16.4237 14.7977C11.4437 14.7977 9.9537 18.2977 6.0937 18.2977ZM16.4337 16.7177H16.5037C16.4437 18.3477 16.4037 19.8677 16.4437 21.2177L11.7737 18.0577C13.0337 17.3377 14.4237 16.7177 16.4337 16.7177Z"
        fillRule="evenodd"
        clipRule="evenodd"
    />
</svg>
        