
<svg
    viewBox="0 0 27.439453125 30.77197265625"
    xmlns="http://www.w3.org/2000/svg"
>
    <path
        fill="inherit"
        d="M1.5537 24.2054L12.1637 30.3454C13.1537 30.9154 14.2837 30.9154 15.2837 30.3454L25.8837 24.2054C26.8637 23.6454 27.4437 22.6454 27.4437 21.5054V9.2554C27.4437 8.1254 26.8637 7.1254 25.8837 6.5554L15.2837 0.4454C14.2837 -0.1446 13.1537 -0.1446 12.1637 0.4454L1.5537 6.5554C0.5737 7.1254 0.0037 8.1254 0.0037 9.2554V21.5054C0.0037 22.6454 0.5737 23.6454 1.5537 24.2054ZM13.7237 28.4554V2.3154C14.0037 2.3154 14.2737 2.3954 14.5237 2.5454L24.4437 8.2754C24.9537 8.5754 25.2337 9.0854 25.2337 9.6554V21.1154C25.2337 21.6854 24.9537 22.1954 24.4437 22.4954L14.5337 28.2254C14.2837 28.3754 14.0037 28.4554 13.7237 28.4554Z"
        fillRule="evenodd"
        clipRule="evenodd"
    />
</svg>
        