<svg viewBox="0 0 27.439453125 30.77197265625" xmlns="http://www.w3.org/2000/svg"><path d="M25.8837 24.2054C26.8637 23.6454 27.4437 22.6454 27.4437 21.5054V9.2554C27.4437 8.1254 26.8637 7.1254 25.8837 6.5554L15.2837 0.4454C14.2837 -0.1446 13.1537 -0.1446 12.1637 0.4454L1.5537 6.5554C0.5737 7.1254 0.0037 8.1254 0.0037 9.2554V21.5054C0.0037 22.6454 0.5737 23.6454 1.5537 24.2054L12.1637 30.3454C13.1537 30.9154 14.2837 30.9154 15.2837 30.3454ZM13.7237 28.4554C13.4437 28.4554 13.1637 28.3754 12.9237 28.2254L3.0037 22.4954C2.5037 22.1954 2.2037 21.6854 2.2037 21.1154V9.6554C2.2037 9.0854 2.5037 8.5754 3.0037 8.2754L12.9237 2.5454C13.1637 2.3954 13.4437 2.3154 13.7237 2.3154Z" /></svg>