
<svg
    viewBox="0 0 27.439453125 30.77197265625"
    xmlns="http://www.w3.org/2000/svg"
>
    <path
        fill="inherit"
        d="M1.5537 6.5654C0.5737 7.1254 0.0037 8.1254 0.0037 9.2754V21.5054C0.0037 22.6554 0.5737 23.6554 1.5537 24.2154L12.1637 30.3454C13.1537 30.9154 14.2837 30.9154 15.2837 30.3454L25.8837 24.2154C26.8637 23.6554 27.4437 22.6554 27.4437 21.5054V9.2754C27.4437 8.1254 26.8637 7.1254 25.8837 6.5654L15.2837 0.4454C14.2837 -0.1446 13.1537 -0.1446 12.1637 0.4454ZM2.2037 15.3854V9.6654C2.2037 9.0954 2.5037 8.5754 3.0037 8.2854L12.9237 2.5454C13.4237 2.2454 14.0137 2.2454 14.5337 2.5454L24.4437 8.2854C24.9537 8.5754 25.2337 9.0954 25.2337 9.6654V15.3854Z"
        fillRule="evenodd"
        clipRule="evenodd"
    />
</svg>
        