
<svg
    viewBox="0 0 24.85546875 28.30078125"
    xmlns="http://www.w3.org/2000/svg"
>
    <path
        fill="inherit"
        d="M3.8865 3.8815V17.2415H12.9365L14.7965 17.3215L13.9965 16.5715L12.1365 14.8615C11.9265 14.6715 11.8165 14.3815 11.8165 14.1215C11.8165 13.5515 12.2265 13.1215 12.7665 13.1215C13.0665 13.1215 13.2865 13.2315 13.4965 13.4415L17.4365 17.5315C17.6865 17.8015 17.7865 18.0515 17.7865 18.3215C17.7865 18.5915 17.6865 18.8415 17.4365 19.1115L13.4965 23.1915C13.2865 23.4015 13.0665 23.5115 12.7665 23.5115C12.2265 23.5115 11.8165 23.0915 11.8165 22.5215C11.8165 22.2615 11.9265 21.9715 12.1365 21.7815L13.9965 20.0715L14.7965 19.3215L12.9365 19.4015H3.8865V24.4215C3.8865 27.0015 5.1665 28.3015 7.7265 28.3015H21.0165C23.5665 28.3015 24.8565 27.0015 24.8565 24.4215V3.8815C24.8565 1.3015 23.5665 0.0015 21.0165 0.0015H7.7265C5.1665 0.0015 3.8865 1.3015 3.8865 3.8815ZM14.3665 10.3515C12.5965 10.3515 11.1665 8.9315 11.1665 7.1515C11.1665 5.3615 12.6065 3.9515 14.3665 3.9615C16.1465 3.9815 17.5565 5.3715 17.5665 7.1515C17.5965 8.9315 16.1365 10.3515 14.3665 10.3515ZM14.3665 8.7815C15.2765 8.7815 15.9965 8.0415 15.9965 7.1515C15.9965 6.2515 15.2565 5.5215 14.3665 5.5215C13.4565 5.5215 12.7465 6.2115 12.7465 7.1515C12.7465 8.0415 13.4665 8.7815 14.3665 8.7815ZM1.0665 19.4115L3.8865 19.4015V17.2415H1.0665C0.4965 17.2415 -0.0035 17.7315 -0.0035 18.3215C-0.0035 18.9115 0.4965 19.4115 1.0665 19.4115Z"
        fillRule="evenodd"
        clipRule="evenodd"
    />
</svg>
        