
<svg
    viewBox={0 0 31.294921875 31.595703125}
    xmlns="http://www.w3.org/2000/svg"
>
    <path
        fill="inherit"
        d="M3.6937 22.8758H9.3537V20.7958H3.8037C2.6837 20.7958 2.0737 20.2058 2.0737 19.1158V3.7858C2.0737 2.6958 2.6837 2.0758 3.8037 2.0758H13.1637C13.6437 2.0758 14.0837 2.2658 14.3237 2.6358L14.3537 2.7658C14.7237 2.6958 15.1937 2.6658 15.5137 2.6658H16.8437L16.8037 2.4158C16.3637 0.9258 15.3037 -0.0042 13.2937 -0.0042H3.6937C1.2537 -0.0042 0.0037 1.2758 0.0037 3.7358V19.1558C0.0037 21.6158 1.2437 22.8758 3.6937 22.8758ZM6.2037 6.1558C6.2037 7.6258 7.3937 8.8458 8.9037 8.8458C9.1237 8.8458 9.2237 8.8358 9.3537 8.8058V8.4058C9.3537 8.0258 9.3837 7.6258 9.4237 7.3558C9.3637 7.3958 9.1637 7.4558 8.9037 7.4558C8.1637 7.4558 7.5837 6.8758 7.5837 6.1558C7.5837 5.4258 8.1637 4.8258 8.9037 4.8258C9.3537 4.8258 9.8337 5.1258 9.9937 5.3458C10.1737 4.9658 10.5237 4.4558 10.7737 4.2258C10.3737 3.7758 9.6637 3.4558 8.9037 3.4458C7.3937 3.4458 6.2037 4.6658 6.2037 6.1558ZM11.2137 8.2958V27.8458C11.2137 30.3258 12.4437 31.5958 14.9137 31.5958H27.5737C30.0537 31.5958 31.2937 30.3258 31.2937 27.8458V8.2958C31.2937 5.8058 30.0537 4.5358 27.5737 4.5358H14.9137C12.4437 4.5358 11.2137 5.8058 11.2137 8.2958ZM13.4137 8.3158C13.4137 7.2758 13.9337 6.7358 14.9937 6.7358H27.4937C28.5437 6.7358 29.0937 7.2758 29.0937 8.3158V27.8258C29.0937 28.8658 28.5437 29.3958 27.4937 29.3958H14.9937C13.9437 29.3958 13.4137 28.8658 13.4137 27.8258ZM21.2437 14.7258C22.9137 14.7258 24.2537 13.3858 24.2537 11.7158C24.2537 10.0658 22.9137 8.7458 21.2437 8.7458C19.5937 8.7458 18.2537 10.0458 18.2537 11.7158C18.2537 13.3958 19.5737 14.7258 21.2437 14.7258ZM4.0837 14.6058C4.0837 17.2658 6.2037 19.3958 8.8837 19.3958C9.0937 19.3958 9.2237 19.3958 9.3537 19.3858V16.5258C9.2437 16.5458 9.0637 16.5558 8.8737 16.5558C7.7837 16.5558 6.9337 15.6958 6.9337 14.6258C6.9337 13.5358 7.7937 12.6758 8.9237 12.6758C9.0637 12.6758 9.2437 12.7058 9.3537 12.7258V9.8458C9.2537 9.8458 9.1037 9.8158 8.8837 9.8158C6.2237 9.8158 4.0837 11.9658 4.0837 14.6058ZM21.2437 13.1958C20.4237 13.1958 19.7937 12.5358 19.7937 11.7158C19.7937 10.8958 20.4237 10.2558 21.2437 10.2558C22.0537 10.2558 22.7137 10.9258 22.7137 11.7158C22.7137 12.5358 22.0537 13.1958 21.2437 13.1958ZM21.2437 27.4158C24.2237 27.4158 26.6237 25.0358 26.6237 22.0358C26.6237 19.0558 24.2237 16.6758 21.2437 16.6758C18.2837 16.6758 15.8837 19.0758 15.8837 22.0358C15.8837 25.0158 18.2837 27.4158 21.2437 27.4158ZM21.2437 24.2358C20.0337 24.2358 19.0437 23.2858 19.0437 22.0358C19.0437 20.7858 20.0037 19.8058 21.2437 19.8058C22.4937 19.8058 23.4637 20.7858 23.4637 22.0358C23.4637 23.2858 22.4937 24.2358 21.2437 24.2358Z"
        fillRule="evenodd"
        clipRule="evenodd"
    />
</svg>
        