
<svg
    viewBox={0 0 20.958984375 28.30078125}
    xmlns="http://www.w3.org/2000/svg"
>
    <path
        fill="inherit"
        d="M0.0037 3.8815V24.4215C0.0037 27.0015 1.2837 28.3015 3.8437 28.3015H17.1337C19.6837 28.3015 20.9637 27.0015 20.9637 24.4215V3.8815C20.9637 1.3015 19.6837 0.0015 17.1337 0.0015H3.8437C1.2837 0.0015 0.0037 1.3015 0.0037 3.8815ZM2.2037 3.9115C2.2037 2.7915 2.7937 2.2015 3.9237 2.2015H17.0537C18.1837 2.2015 18.7537 2.7915 18.7537 3.9115V24.3915C18.7537 25.5015 18.1737 26.1015 17.0537 26.1015H3.9237C2.7937 26.1015 2.2037 25.5015 2.2037 24.3915ZM10.4837 10.5915C12.1937 10.5915 13.6137 9.2115 13.5937 7.4915C13.5737 5.7715 12.1937 4.4115 10.4837 4.4015C8.7637 4.3915 7.3837 5.7515 7.3837 7.4915C7.3837 9.2115 8.7637 10.5915 10.4837 10.5915ZM10.4837 9.0815C9.5937 9.0815 8.9037 8.3515 8.9037 7.4915C8.9037 6.5715 9.5937 5.9015 10.4837 5.9015C11.3437 5.9015 12.0737 6.6215 12.0737 7.4915C12.0737 8.3515 11.3637 9.0815 10.4837 9.0815ZM10.4837 23.9015C13.5737 23.9015 16.0637 21.4215 16.0637 18.3215C16.0637 15.2215 13.5737 12.7515 10.4837 12.7415C7.3937 12.7315 4.9037 15.2215 4.9037 18.3215C4.9037 21.4215 7.3937 23.9015 10.4837 23.9015ZM10.4837 20.6815C9.1837 20.6815 8.1237 19.6315 8.1237 18.3215C8.1237 16.9715 9.1437 15.9415 10.4837 15.9415C11.8137 15.9415 12.8537 16.9715 12.8537 18.3215C12.8537 19.6315 11.8137 20.6815 10.4837 20.6815Z"
        fillRule="evenodd"
        clipRule="evenodd"
    />
</svg>
        