
<svg
    viewBox="0 0 33.1953125 31.896484375"
    xmlns="http://www.w3.org/2000/svg"
>
    <path
        fill="inherit"
        d="M3.3637 24.9535H8.7637V21.4735C6.2237 21.1735 4.2537 19.0435 4.2537 16.4035C4.2537 13.5335 6.5537 11.2535 9.3837 11.2635H9.5037C10.6337 8.4635 13.1637 7.5435 16.6237 7.5435H18.7537V3.3735C18.7537 1.1635 17.6137 0.0035 15.3937 0.0035H3.3637C1.1437 0.0035 0.0037 1.1635 0.0037 3.3735V21.5635C0.0037 23.7935 1.1437 24.9535 3.3637 24.9535ZM9.3837 8.9435C7.8737 8.9435 6.6437 7.7535 6.6437 6.2235C6.6437 4.7035 7.8637 3.4835 9.3837 3.5035C10.8937 3.5135 12.1037 4.7035 12.1137 6.2235C12.1237 7.7535 10.8837 8.9435 9.3837 8.9435ZM9.3837 7.5835C10.1537 7.5835 10.7437 6.9835 10.7437 6.2235C10.7437 5.4535 10.1437 4.8435 9.3837 4.8435C8.6037 4.8435 8.0137 5.4235 8.0137 6.2235C8.0137 6.9835 8.6037 7.5835 9.3837 7.5835ZM16.6637 31.8935H27.1637C29.0937 31.8935 30.7237 31.7235 31.8837 30.5735C33.0337 29.3935 33.1937 27.7935 33.1937 25.8635V15.4535C33.1937 13.5235 33.0337 11.9035 31.8837 10.7635C30.7237 9.6135 29.0937 9.4235 27.1637 9.4235H16.6237C14.7337 9.4235 13.1137 9.6135 11.9637 10.7635C10.8037 11.9235 10.6237 13.5235 10.6237 15.4235V25.8635C10.6237 27.7935 10.8037 29.4035 11.9637 30.5735C13.1137 31.7235 14.7337 31.8935 16.6637 31.8935ZM7.2037 16.3935C7.2037 17.3735 7.8637 18.2135 8.7637 18.4535V15.4235C8.7637 15.0135 8.7737 14.6335 8.8037 14.2735C7.8737 14.5235 7.2037 15.3535 7.2037 16.3935ZM16.6937 18.1135C16.6537 17.2535 17.3737 16.4035 18.3037 16.3535C18.3737 17.2035 17.6337 18.2235 16.6937 18.1135ZM23.0937 16.9235V18.3235H24.2137V19.2335H23.0937V22.4735C23.0937 23.0135 23.3237 23.2235 23.7937 23.2235C23.9137 23.2235 24.1337 23.2235 24.2037 23.1835V24.1735C24.0937 24.1835 23.7937 24.2135 23.5437 24.2135C22.3437 24.2135 21.8737 23.7935 21.8737 22.6235V19.2335H21.0537V18.3235H21.8737V16.9235ZM19.9037 22.1435C19.7237 22.7535 19.3337 23.4435 18.8237 23.9635C18.6637 24.1035 18.4437 24.2135 18.1537 24.2135C17.8837 24.2135 17.7337 24.1135 17.4837 24.0335C17.3337 23.9935 17.1337 23.8835 16.8837 23.8835C16.3137 23.8835 16.0537 24.2235 15.5737 24.2235C15.2437 24.2235 14.9937 24.0335 14.6437 23.6435C13.9637 22.9035 13.5237 21.7235 13.5237 20.7035C13.5237 20.0735 13.6837 19.4935 14.0837 19.0035C14.4137 18.5835 14.9137 18.3335 15.5337 18.3335C16.0937 18.3335 16.4337 18.6735 16.7337 18.6735C17.0937 18.6735 17.4837 18.3235 18.2237 18.3235C18.8437 18.3235 19.3837 18.5635 19.7137 19.0735C19.2637 19.3335 19.1037 19.6635 19.0037 19.9335C18.8537 20.3135 18.8237 20.7835 19.0037 21.2435C19.1837 21.6735 19.4537 21.9535 19.9037 22.1435ZM28.1737 24.1735H26.9037L24.7637 18.3235H26.0137L27.5337 23.0135L28.9737 18.3235H30.2837Z"
        fillRule="evenodd"
        clipRule="evenodd"
    />
</svg>
        