
<svg
    viewBox={0 0 35.697265625 31.03515625}
    xmlns="http://www.w3.org/2000/svg"
>
    <path
        fill="inherit"
        d="M3.1437 23.9109H9.7737C9.4737 22.9509 9.2937 22.0709 9.1737 20.9709C6.4137 20.8409 4.2237 18.5709 4.2237 15.7609C4.2237 12.8909 6.5537 10.5509 9.4337 10.5509C10.3037 10.5509 11.1437 10.7909 11.8537 11.1709C13.5537 8.9509 15.7737 7.7509 18.8437 7.1509V3.1709C18.8437 1.0909 17.7637 0.0009 15.6937 0.0009H3.1437C1.0837 0.0009 0.0037 1.0909 0.0037 3.1709V20.7409C0.0037 22.8209 1.0837 23.9109 3.1437 23.9109ZM9.4237 8.6909C7.8437 8.6909 6.5537 7.4109 6.5537 5.8409C6.5537 4.2609 7.8337 2.9809 9.4237 2.9809C11.0037 2.9809 12.2937 4.2609 12.2937 5.8409C12.2937 7.4109 10.9937 8.6909 9.4237 8.6909ZM9.4237 7.2909C10.2237 7.2909 10.8737 6.6309 10.8737 5.8409C10.8737 5.0409 10.2237 4.4009 9.4237 4.4009C8.6137 4.4009 7.9737 5.0409 7.9737 5.8409C7.9737 6.6309 8.6137 7.2909 9.4237 7.2909ZM23.4437 11.8309C26.8637 11.8309 29.2837 11.1409 29.2837 10.2409C29.2837 9.3209 26.8637 8.6509 23.4437 8.6509C20.0137 8.6509 17.5937 9.3209 17.5937 10.2409C17.5937 11.1409 20.0137 11.8309 23.4437 11.8309ZM23.4437 31.0309C27.9737 31.0309 29.8737 30.4609 31.6737 28.7809C34.2037 26.4709 35.6937 23.1009 35.6937 19.5509C35.6937 16.6209 34.7037 13.9009 32.7537 11.6709C32.2937 11.1009 31.8137 11.0709 31.3037 11.4209C29.4737 12.8209 27.4537 13.5509 23.4437 13.5509C19.4237 13.5509 17.4037 12.8209 15.5737 11.4209C15.0837 11.0709 14.5837 11.1009 14.1237 11.6709C12.1937 13.9009 11.1837 16.6209 11.1837 19.5509C11.1837 23.1009 12.6737 26.4709 15.2037 28.7809C17.0037 30.4609 18.9237 31.0309 23.4437 31.0309ZM7.2237 15.7509C7.2237 16.9209 8.1037 17.8509 9.2237 17.9409C9.3937 16.4609 9.7937 15.0509 10.3937 13.7509C10.1037 13.6209 9.7737 13.5509 9.4337 13.5509C8.2037 13.5509 7.2237 14.5309 7.2237 15.7509Z"
        fillRule="evenodd"
        clipRule="evenodd"
    />
</svg>
        