
<svg
    viewBox={0 0 40.783203125 18.2109375}
    xmlns="http://www.w3.org/2000/svg"
>
    <path
        fill="inherit"
        d="M10.1337 17.0866V15.9266H30.6537V17.0866C30.6537 17.7566 31.0937 18.2066 31.7737 18.2066H36.6137C37.2937 18.2066 37.7437 17.7566 37.7437 17.0866V15.8166C39.7437 15.4666 40.7837 14.0866 40.7837 11.7566V4.1666C40.7837 1.4266 39.3437 -0.0034 36.5437 -0.0034H4.2237C1.4537 -0.0034 0.0037 1.4266 0.0037 4.1666V11.7566C0.0037 14.0866 1.0437 15.4466 3.0337 15.8166V17.0866C3.0337 17.7566 3.4837 18.2066 4.1537 18.2066H9.0137C9.6937 18.2066 10.1337 17.7566 10.1337 17.0866ZM7.7537 11.0066C6.0437 11.0066 4.6737 9.6366 4.6737 7.9466C4.6737 6.2366 6.0437 4.8666 7.7537 4.8666C9.4337 4.8666 10.8037 6.2366 10.8037 7.9466C10.8037 9.6366 9.4337 11.0066 7.7537 11.0066ZM33.0337 11.0066C31.3537 11.0066 29.9837 9.6366 29.9837 7.9466C29.9837 6.2366 31.3537 4.8666 33.0337 4.8666C34.7237 4.8666 36.0937 6.2366 36.0937 7.9466C36.0937 9.6366 34.7237 11.0066 33.0337 11.0066ZM14.7337 11.0166C14.0437 11.0166 13.5737 10.5666 13.5737 9.8666V6.0666C13.5737 5.3766 14.0437 4.9066 14.7337 4.9066H26.0337C26.7437 4.9066 27.1937 5.3766 27.1937 6.0666V9.8666C27.1937 10.5666 26.7437 11.0166 26.0337 11.0166Z"
        fillRule="evenodd"
        clipRule="evenodd"
    />
</svg>
        