
<svg
    viewBox="0 0 20.958984375 28.30078125"
    xmlns="http://www.w3.org/2000/svg"
>
    <path
        fill="inherit"
        d="M0.0037 3.8815V24.4215C0.0037 27.0015 1.2837 28.3015 3.8437 28.3015H17.1337C19.6837 28.3015 20.9637 27.0015 20.9637 24.4215V3.8815C20.9637 1.3015 19.6837 0.0015 17.1337 0.0015H3.8437C1.2837 0.0015 0.0037 1.3015 0.0037 3.8815ZM10.4837 10.3515C8.7137 10.3515 7.2837 8.9315 7.2837 7.1515C7.2837 5.3615 8.7137 3.9515 10.4837 3.9615C12.2537 3.9815 13.6737 5.3715 13.6837 7.1515C13.7137 8.9315 12.2537 10.3515 10.4837 10.3515ZM10.4837 8.7815C11.3937 8.7815 12.1137 8.0415 12.1137 7.1515C12.1137 6.2515 11.3737 5.5215 10.4837 5.5215C9.5737 5.5215 8.8637 6.2115 8.8637 7.1515C8.8637 8.0415 9.5737 8.7815 10.4837 8.7815ZM10.4837 24.3315C7.3037 24.3315 4.7337 21.7915 4.7337 18.5915C4.7337 15.3815 7.3037 12.8215 10.4837 12.8415C13.6737 12.8515 16.2437 15.3815 16.2437 18.5915C16.2437 21.7915 13.6737 24.3315 10.4837 24.3315ZM10.4837 21.0315C11.8537 21.0315 12.9237 19.9315 12.9237 18.5915C12.9237 17.2015 11.8537 16.1315 10.4837 16.1315C9.1037 16.1315 8.0537 17.2015 8.0537 18.5915C8.0537 19.9315 9.1437 21.0315 10.4837 21.0315Z"
        fillRule="evenodd"
        clipRule="evenodd"
    />
</svg>
        