
<svg
    viewBox="0 0 24.814453125 28.30078125"
    xmlns="http://www.w3.org/2000/svg"
>
    <path
        fill="inherit"
        d="M6.0455 21.3115H3.8455V24.4215C3.8455 27.0015 5.1255 28.3015 7.6855 28.3015H20.9755C23.5255 28.3015 24.8155 27.0015 24.8155 24.4215V3.8815C24.8155 1.3015 23.5255 0.0015 20.9755 0.0015H7.6855C5.1255 0.0015 3.8455 1.3015 3.8455 3.8815V15.3215H6.0455V3.9115C6.0455 2.7915 6.6355 2.2015 7.7655 2.2015H20.8955C22.0255 2.2015 22.6155 2.7915 22.6155 3.9115V24.3915C22.6155 25.5015 22.0155 26.1015 20.8955 26.1015H7.7655C6.6455 26.1015 6.0455 25.5015 6.0455 24.3915ZM14.3255 10.5915C16.0355 10.5915 17.4555 9.2115 17.4355 7.4915C17.4155 5.7715 16.0555 4.4115 14.3255 4.4015C12.6155 4.3915 11.2255 5.7515 11.2255 7.4915C11.2255 9.2115 12.6055 10.5915 14.3255 10.5915ZM14.3255 9.0815C13.4555 9.0815 12.7455 8.3515 12.7455 7.4915C12.7455 6.5715 13.4355 5.9015 14.3255 5.9015C15.1855 5.9015 15.9155 6.6215 15.9155 7.4915C15.9155 8.3515 15.2055 9.0815 14.3255 9.0815ZM1.0655 19.4115L12.9355 19.4015L14.7955 19.3215L13.9955 20.0715L12.1455 21.7815C11.9255 21.9715 11.8155 22.2615 11.8155 22.5215C11.8155 23.0915 12.2055 23.5115 12.7655 23.5115C13.0655 23.5115 13.2855 23.4015 13.4955 23.1915L17.4355 19.1115C17.6955 18.8415 17.7855 18.5915 17.7855 18.3215C17.7855 18.0515 17.6955 17.8015 17.4355 17.5315L13.4955 13.4415C13.2855 13.2315 13.0655 13.1215 12.7655 13.1215C12.2055 13.1215 11.8155 13.5515 11.8155 14.1215C11.8155 14.3815 11.9255 14.6715 12.1455 14.8615L13.9955 16.5715L14.7955 17.3215L12.9355 17.2415H1.0655C0.4955 17.2415 -0.0045 17.7315 -0.0045 18.3215C-0.0045 18.9115 0.4955 19.4115 1.0655 19.4115Z"
        fillRule="evenodd"
        clipRule="evenodd"
    />
</svg>
        