
<svg
    viewBox="0 0 40.783203125 18.2109375"
    xmlns="http://www.w3.org/2000/svg"
>
    <path
        fill="inherit"
        d="M10.1337 17.0866V15.9266H30.6537V17.0866C30.6537 17.7566 31.0937 18.2066 31.7737 18.2066H36.6137C37.2937 18.2066 37.7437 17.7566 37.7437 17.0866V15.8166C39.7437 15.4666 40.7837 14.0866 40.7837 11.7566V4.1666C40.7837 1.4266 39.3437 -0.0034 36.5437 -0.0034H4.2237C1.4537 -0.0034 0.0037 1.4266 0.0037 4.1666V11.7566C0.0037 14.0866 1.0437 15.4466 3.0337 15.8166V17.0866C3.0337 17.7566 3.4837 18.2066 4.1537 18.2066H9.0137C9.6937 18.2066 10.1337 17.7566 10.1337 17.0866ZM4.2237 13.7266C2.9837 13.7266 2.2037 12.9566 2.2037 11.7566V4.1666C2.2037 2.9666 2.9837 2.1966 4.2237 2.1966H36.5437C37.7937 2.1966 38.5837 2.9666 38.5837 4.1666V11.7566C38.5837 12.9566 37.7937 13.7266 36.5437 13.7266ZM8.1337 10.9066C9.7737 10.9066 11.1037 9.5866 11.1037 7.9466C11.1037 6.2866 9.7737 4.9666 8.1337 4.9666C6.4837 4.9666 5.1537 6.2866 5.1537 7.9466C5.1537 9.5866 6.4837 10.9066 8.1337 10.9066ZM32.6437 10.9066C34.2937 10.9066 35.6137 9.5866 35.6137 7.9466C35.6137 6.2866 34.2937 4.9666 32.6437 4.9666C31.0037 4.9666 29.6837 6.2866 29.6837 7.9466C29.6837 9.5866 31.0037 10.9066 32.6437 10.9066ZM14.9037 10.9266H25.8637C26.5537 10.9266 26.9837 10.4866 26.9837 9.8166V6.1266C26.9837 5.4566 26.5537 5.0066 25.8637 5.0066H14.9037C14.2337 5.0066 13.7837 5.4566 13.7837 6.1266V9.8166C13.7837 10.4866 14.2337 10.9266 14.9037 10.9266Z"
        fillRule="evenodd"
        clipRule="evenodd"
    />
</svg>
        