<svg viewBox="0 0 33.140625 31.896484375" xmlns="http://www.w3.org/2000/svg"><path d="M3.1537 23.9409H9.3237V20.8909C9.1637 20.9009 9.0137 20.9009 8.8437 20.9009C6.0037 20.9009 3.6937 18.6109 3.6937 15.7509C3.6937 12.8909 6.0037 10.6409 8.8437 10.6109C9.0337 10.6109 9.2037 10.6409 9.4037 10.6509C9.4837 9.9109 9.6237 9.2109 9.8037 8.5709C9.5137 8.6809 9.2037 8.7409 8.8637 8.7409C7.2237 8.7409 5.8637 7.4409 5.8837 5.7809C5.8937 4.1409 7.2237 2.8209 8.8637 2.8209C10.1437 2.8209 11.2237 3.6609 11.5837 4.8009C11.5937 4.8809 11.6037 4.9809 11.6037 5.0609C12.9237 3.6209 14.7937 2.6109 17.4737 2.0909V1.8909C17.1137 0.6309 16.1337 0.0009 14.5337 0.0009H3.1537C1.0537 0.0009 0.0037 1.0709 0.0037 3.1809V20.7409C0.0037 22.8909 1.0637 23.9409 3.1537 23.9409ZM22.1337 7.3309C25.6437 7.3309 28.4637 6.5609 28.4637 5.5809C28.4637 4.5709 25.6437 3.8109 22.1337 3.8109C18.6337 3.8109 15.8137 4.5709 15.8137 5.5809C15.8137 6.5609 18.6337 7.3309 22.1337 7.3309ZM8.8437 7.3109C9.6937 7.3109 10.3737 6.6309 10.3737 5.7809C10.3737 4.9309 9.7037 4.2609 8.8437 4.2609C8.0137 4.2609 7.3137 4.9309 7.3137 5.7809C7.3137 6.6309 7.9937 7.3109 8.8437 7.3109ZM22.1337 31.9009C29.6837 31.9009 33.1437 29.2209 33.1437 23.1209V12.7109C33.1437 10.1409 32.5237 8.4109 31.5537 7.1809C31.2237 6.7709 30.7037 6.7409 30.2937 7.0709C28.9837 8.2209 25.5637 9.2009 22.1337 9.2009C18.7137 9.2009 15.3037 8.2209 13.9837 7.0709C13.5737 6.7409 13.0537 6.7709 12.7237 7.1809C11.7537 8.4109 11.1437 10.1409 11.1437 12.7109V23.1209C11.1437 29.2209 14.6037 31.9009 22.1337 31.9009ZM8.8437 17.9409C9.0137 17.9409 9.1737 17.9109 9.3237 17.8809V13.6209C9.1737 13.5909 9.0137 13.5809 8.8437 13.5809C7.6437 13.5809 6.6737 14.5209 6.6737 15.7509C6.6737 16.9709 7.6437 17.9409 8.8437 17.9409Z" /></svg>