
<svg
    viewBox={0 0 28.109375 21.4921875}
    xmlns="http://www.w3.org/2000/svg"
>
    <path
        fill="inherit"
        d="M14.0427 21.4972C21.9827 21.4972 28.1127 17.9372 28.1127 13.5772V6.3972C28.1127 6.3572 28.1127 6.3172 28.1127 6.2772C28.1127 2.7772 21.9327 -0.0028 14.0427 -0.0028C6.1627 -0.0028 0.0027 2.7772 0.0027 6.2772C0.0027 6.3172 0.0027 6.3672 0.0027 6.3972V13.5772C0.0027 17.9372 6.1127 21.4972 14.0427 21.4972ZM14.0427 10.5372C7.3727 10.5372 2.1827 8.6672 2.1827 6.2772C2.1827 3.9772 7.3727 2.1972 14.0427 2.1972C20.7227 2.1972 25.9127 3.9772 25.9127 6.2772C25.9127 8.6672 20.7227 10.5372 14.0427 10.5372ZM14.0427 12.7372C19.0827 12.7372 23.4327 11.5772 25.9127 9.7872V13.5772C25.9127 16.7372 21.3527 19.2872 14.0427 19.2872C6.7427 19.2872 2.1827 16.7372 2.1827 13.5772V9.7872C4.6627 11.5772 8.9927 12.7372 14.0427 12.7372Z"
        fillRule="evenodd"
        clipRule="evenodd"
    />
</svg>
        