
<svg
    viewBox="0 0 27.890625 27.890625"
    xmlns="http://www.w3.org/2000/svg"
>
    <path
        fill="inherit"
        d="M13.9427 27.8864C21.6427 27.8864 27.8927 21.6264 27.8927 13.9464C27.8927 6.2464 21.6427 -0.0036 13.9427 -0.0036C6.2627 -0.0036 0.0027 6.2464 0.0027 13.9464C0.0027 21.6264 6.2627 27.8864 13.9427 27.8864ZM13.9427 15.0264C9.7027 15.0264 6.3727 13.4964 6.3727 11.5564C6.3727 9.6564 9.7027 8.1664 13.9427 8.1664C18.1827 8.1664 21.5227 9.6564 21.5227 11.5564C21.5227 13.4964 18.1827 15.0264 13.9427 15.0264ZM13.9427 19.7164C9.6627 19.7164 6.3727 17.7964 6.3727 15.4464V13.7564C7.8427 15.1864 10.7727 16.0364 13.9427 16.0364C17.1327 16.0364 20.0527 15.1864 21.5227 13.7564V15.4464C21.5227 17.7964 18.2127 19.7164 13.9427 19.7164Z"
        fillRule="evenodd"
        clipRule="evenodd"
    />
</svg>
        