
<svg
    viewBox="0 0 26.87890625 28.08203125"
    xmlns="http://www.w3.org/2000/svg"
>
    <path
        fill="inherit"
        d="M15.8845 3.5184C19.4945 3.5184 22.2045 2.7484 22.2045 1.7684C22.2045 0.7484 19.4945 -0.0016 15.8845 -0.0016C12.2645 -0.0016 9.5545 0.7484 9.5545 1.7684C9.5545 2.7484 12.2645 3.5184 15.8845 3.5184ZM15.8845 28.0784C23.4245 28.0784 26.8745 25.3984 26.8745 19.3084V8.8984C26.8745 6.3284 26.2645 4.5984 25.2945 3.3584C24.9645 2.9484 24.4445 2.9284 24.0345 3.2584C22.7345 4.3984 19.3045 5.3884 15.8845 5.3884C12.4545 5.3884 9.0345 4.3984 7.7245 3.2584C7.3145 2.9284 6.7945 2.9484 6.4645 3.3584C5.4945 4.5984 4.8845 6.3284 4.8845 8.8984V12.6184H7.0845V9.0184C7.0845 7.8184 7.2845 6.6984 7.7945 5.7284C9.4245 6.9984 12.4945 7.5884 15.8845 7.5884C19.2645 7.5884 22.3445 6.9984 23.9645 5.7284C24.4745 6.6984 24.6745 7.8184 24.6745 9.0184V19.0884C24.6745 23.7584 22.2045 25.8784 15.8845 25.8784C9.5845 25.8784 7.0845 23.7884 7.0845 19.1384V18.8284H4.8845V19.3084C4.8845 25.3984 8.3445 28.0784 15.8845 28.0784ZM1.0645 16.8184L12.4545 16.7984L14.3045 16.7184L13.5245 17.4684L11.6445 19.1784C11.4345 19.3684 11.3345 19.6584 11.3345 19.9184C11.3345 20.4984 11.7345 20.9184 12.2945 20.9184C12.5745 20.9184 12.7945 20.8084 13.0045 20.5884L16.9345 16.5184C17.1945 16.2384 17.3045 15.9984 17.3045 15.7184C17.3045 15.4484 17.1945 15.1984 16.9345 14.9284L13.0045 10.8384C12.7945 10.6384 12.5745 10.5284 12.2945 10.5284C11.7345 10.5284 11.3345 10.9484 11.3345 11.5284C11.3345 11.7884 11.4345 12.0684 11.6445 12.2684L13.5245 13.9684L14.3145 14.7284L12.4545 14.6384H1.0645C0.4945 14.6384 0.0045 15.1384 0.0045 15.7184C0.0045 16.3084 0.4945 16.8184 1.0645 16.8184Z"
        fillRule="evenodd"
        clipRule="evenodd"
    />
</svg>
        