
<svg
    viewBox="0 0 33.099609375 31.896484375"
    xmlns="http://www.w3.org/2000/svg"
>
    <path
        fill="inherit"
        d="M9.9837 3.1735C13.2737 3.1735 15.7237 2.4735 15.7237 1.5835C15.7237 0.6735 13.2737 0.0035 9.9837 0.0035C6.6837 0.0035 4.2537 0.6735 4.2537 1.5835C4.2537 2.4735 6.6837 3.1735 9.9837 3.1735ZM0.0037 17.4835C0.0037 22.5735 2.6437 25.1035 8.6537 25.4135V23.4035C3.7837 23.1035 2.0137 21.0535 2.0137 17.2835V8.1735C2.0137 7.0835 2.2037 6.0735 2.6537 5.1935C4.0637 6.2935 6.7137 6.8635 9.9837 6.8635C13.2637 6.8635 15.9037 6.2935 17.3037 5.1935C17.6137 5.6235 17.7337 6.0935 17.7737 6.6135C17.8237 6.9135 17.8737 7.2335 17.8937 7.5435H19.9337C19.9237 7.1935 19.8837 6.7935 19.8537 6.5035C19.7137 4.9535 19.1637 3.8235 18.5137 3.0335C18.2237 2.6535 17.7337 2.6235 17.3737 2.9235C16.1837 3.9735 13.0737 4.8635 9.9837 4.8635C6.8937 4.8635 3.7737 3.9735 2.5837 2.9235C2.2237 2.6235 1.7537 2.6535 1.4537 3.0335C0.5637 4.1435 0.0037 5.7235 0.0037 8.0535ZM16.5537 31.8935H27.0737C28.9937 31.8935 30.6237 31.7235 31.7737 30.5535C32.9237 29.4035 33.1037 27.7935 33.1037 25.8635V15.4535C33.1037 13.5235 32.9237 11.9035 31.7737 10.7635C30.6137 9.5935 28.9937 9.4235 27.0737 9.4235H16.5337C14.6437 9.4235 13.0037 9.6135 11.8537 10.7635C10.7037 11.9035 10.5237 13.5235 10.5237 15.4235V25.8635C10.5237 27.7935 10.7037 29.4035 11.8537 30.5535C13.0037 31.7235 14.6337 31.8935 16.5537 31.8935ZM16.5837 18.1135C16.5537 17.2535 17.2637 16.4035 18.2137 16.3535C18.2837 17.2035 17.5437 18.2235 16.5837 18.1135ZM22.9937 16.9235V18.3235H24.1037V19.2335H22.9937V22.4735C22.9937 23.0135 23.2137 23.2235 23.6937 23.2235C23.8137 23.2235 24.0337 23.2235 24.1037 23.1835V24.1735C23.9937 24.1835 23.6937 24.2135 23.4437 24.2135C22.2437 24.2135 21.7837 23.7935 21.7837 22.6235V19.2335H20.9637V18.3235H21.7837V16.9235ZM19.8137 22.1435C19.6337 22.7535 19.2337 23.4435 18.7337 23.9635C18.5637 24.1035 18.3437 24.2135 18.0437 24.2135C17.7837 24.2135 17.6237 24.1135 17.3937 24.0335C17.2437 23.9935 17.0337 23.8835 16.7937 23.8835C16.2037 23.8835 15.9537 24.2235 15.4737 24.2235C15.1437 24.2235 14.8937 24.0335 14.5337 23.6435C13.8637 22.9035 13.4237 21.7235 13.4237 20.7035C13.4237 20.0735 13.5737 19.4935 13.9837 19.0035C14.3137 18.5835 14.8237 18.3335 15.4237 18.3335C15.9837 18.3335 16.3237 18.6735 16.6437 18.6735C16.9937 18.6735 17.3937 18.3235 18.1337 18.3235C18.7437 18.3235 19.2737 18.5635 19.6237 19.0735C19.1637 19.3335 18.9937 19.6635 18.9037 19.9335C18.7537 20.3135 18.7337 20.7835 18.9037 21.2435C19.0737 21.6735 19.3637 21.9535 19.8137 22.1435ZM28.0637 24.1735H26.8137L24.6637 18.3235H25.9237L27.4437 23.0135L28.8737 18.3235H30.1837Z"
        fillRule="evenodd"
        clipRule="evenodd"
    />
</svg>
        