
<svg
    viewBox="0 0 32.853515625 31.8828125"
    xmlns="http://www.w3.org/2000/svg"
>
    <path
        fill="inherit"
        d="M9.9837 3.1872C13.1637 3.1872 15.7237 2.4972 15.7237 1.5972C15.7237 0.6872 13.1637 -0.0028 9.9837 -0.0028C6.7937 -0.0028 4.2337 0.6872 4.2337 1.5972C4.2337 2.4972 6.7937 3.1872 9.9837 3.1872ZM0.0037 17.4972C0.0037 22.8272 2.9137 25.2772 9.2137 25.4472C9.0937 24.8272 9.0237 24.1472 9.0137 23.4372C4.0037 23.2272 2.0137 21.2872 2.0137 17.2972V8.1872C2.0137 7.0972 2.2037 6.0872 2.6537 5.2072C4.1437 6.3872 7.0937 6.9072 10.3737 6.8772C10.8437 6.0272 11.3737 5.1572 11.6737 4.7872C11.4837 4.8172 10.7437 4.8772 9.9837 4.8772C6.8937 4.8772 3.7737 3.9872 2.5837 2.9372C2.2237 2.6372 1.7537 2.6672 1.4537 3.0472C0.5637 4.1572 0.0037 5.7372 0.0037 8.0672ZM21.8637 7.3172C25.3637 7.3172 28.1737 6.5472 28.1737 5.5672C28.1737 4.5572 25.3637 3.7972 21.8637 3.7972C18.3437 3.7972 15.5337 4.5572 15.5337 5.5672C15.5337 6.5472 18.3437 7.3172 21.8637 7.3172ZM21.8637 31.8872C29.3937 31.8872 32.8537 29.2072 32.8537 23.1072V12.6972C32.8537 10.1272 32.2337 8.3972 31.2637 7.1672C30.9437 6.7572 30.4237 6.7272 30.0137 7.0572C28.7137 8.2072 25.2837 9.1872 21.8637 9.1872C18.4337 9.1872 15.0137 8.2072 13.7037 7.0572C13.2937 6.7272 12.7737 6.7572 12.4437 7.1672C11.4737 8.3972 10.8537 10.1272 10.8537 12.6972V23.1072C10.8537 29.2072 14.3137 31.8872 21.8637 31.8872ZM21.8637 29.6772C15.5337 29.6772 13.0537 27.5672 13.0537 22.8872V12.8272C13.0537 11.6172 13.2637 10.4972 13.7637 9.5272C15.3937 10.7972 18.4737 11.3872 21.8637 11.3872C25.2337 11.3872 28.3137 10.7972 29.9437 9.5272C30.4437 10.4972 30.6537 11.6172 30.6537 12.8272V22.8872C30.6537 27.5672 28.1737 29.6772 21.8637 29.6772Z"
        fillRule="evenodd"
        clipRule="evenodd"
    />
</svg>
        