
<svg
    viewBox="0 0 26.919921875 24.58203125"
    xmlns="http://www.w3.org/2000/svg"
>
    <path
        fill="inherit"
        d="M13.4637 3.4864C17.2637 3.4864 19.9237 2.7164 19.9237 1.7364C19.9237 0.7364 17.2637 -0.0036 13.4637 -0.0036C9.6537 -0.0036 7.0037 0.7364 7.0037 1.7364C7.0037 2.7164 9.6537 3.4864 13.4637 3.4864ZM13.4637 24.5864C18.4337 24.5864 20.5237 23.9564 22.5037 22.1064C25.2937 19.5664 26.9237 15.8864 26.9237 11.9764C26.9237 8.8164 25.8637 5.8064 23.6937 3.3364C23.1837 2.7064 22.6637 2.6564 22.1237 3.0464C20.0937 4.5764 17.7637 5.3464 13.4637 5.3464C9.1637 5.3464 6.8237 4.5764 4.8137 3.0464C4.2637 2.6564 3.7337 2.7064 3.2237 3.3364C1.0637 5.8064 0.0037 8.8164 0.0037 11.9764C0.0037 15.8864 1.6237 19.5664 4.4137 22.1064C6.3937 23.9564 8.4937 24.5864 13.4637 24.5864Z"
        fillRule="evenodd"
        clipRule="evenodd"
    />
</svg>
        