
<svg
    viewBox={0 0 35.724609375 29.708984375}
    xmlns="http://www.w3.org/2000/svg"
>
    <path
        fill="inherit"
        d="M12.2537 3.1877C15.6837 3.1877 18.1137 2.4877 18.1137 1.5877C18.1137 0.6877 15.6837 -0.0023 12.2537 -0.0023C8.8337 -0.0023 6.4137 0.6877 6.4137 1.5877C6.4137 2.4877 8.8337 3.1877 12.2537 3.1877ZM0.0037 10.9077C0.0037 14.4677 1.4937 17.8177 4.0237 20.1377C5.0537 21.0977 6.1437 21.7077 7.7337 22.0377C7.4937 21.3177 7.3137 20.5577 7.2037 19.7977C6.5037 19.5377 5.9437 19.1777 5.4037 18.6577C3.2437 16.6777 2.0137 13.8777 2.0137 10.9077C2.0137 8.7877 2.6437 6.7277 3.9937 5.0177C5.6437 6.2077 8.0937 6.7577 11.1137 6.8777C11.8637 6.0677 12.5937 5.3977 13.3837 4.8577C13.0337 4.8977 12.6637 4.8977 12.2537 4.8977C8.2437 4.8977 6.2937 4.1177 4.7737 2.9977C4.0737 2.5477 3.2437 2.6477 2.7437 3.2777C1.0137 5.2677 0.0037 7.9877 0.0037 10.9077ZM22.2737 8.6177C26.0737 8.6177 28.7337 7.8477 28.7337 6.8677C28.7337 5.8777 26.0737 5.1277 22.2737 5.1277C18.4737 5.1277 15.8037 5.8777 15.8037 6.8677C15.8037 7.8477 18.4737 8.6177 22.2737 8.6177ZM22.2737 29.7077C27.2337 29.7077 29.3237 29.0777 31.3037 27.2377C34.0937 24.6877 35.7237 21.0177 35.7237 17.1177C35.7237 13.9577 34.6737 10.9377 32.7037 8.7377C32.1737 8.0477 31.2637 7.9477 30.5037 8.4077C28.8237 9.6377 26.5637 10.4877 22.2737 10.4877C17.9737 10.4877 15.7237 9.6377 14.0437 8.4077C13.2737 7.9477 12.3637 8.0477 11.8437 8.7377C9.8737 10.9377 8.8037 13.9577 8.8037 17.1177C8.8037 21.0177 10.4437 24.6877 13.2237 27.2377C15.2037 29.0777 17.3037 29.7077 22.2737 29.7077ZM22.2737 27.5077C17.9237 27.5077 16.2737 27.0677 14.7237 25.6177C12.3637 23.4477 11.0037 20.3877 11.0037 17.1177C11.0037 14.7677 11.7037 12.5077 13.1237 10.6277C15.3437 12.0677 18.6037 12.6877 22.2737 12.6877C25.9337 12.6877 29.1937 12.0677 31.4037 10.6277C32.8437 12.5077 33.5237 14.7677 33.5237 17.1177C33.5237 20.3877 32.1837 23.4477 29.8137 25.6177C28.2737 27.0677 26.6037 27.5077 22.2737 27.5077Z"
        fillRule="evenodd"
        clipRule="evenodd"
    />
</svg>
        