
<svg
    viewBox={0 0 35.861328125 32.251953125}
    xmlns="http://www.w3.org/2000/svg"
>
    <path
        fill="inherit"
        d="M10.9937 3.5166C14.5037 3.5166 17.3237 2.7466 17.3237 1.7466C17.3237 0.7566 14.5037 -0.0034 10.9937 -0.0034C7.4937 -0.0034 4.6737 0.7566 4.6737 1.7466C4.6737 2.7466 7.4937 3.5166 10.9937 3.5166ZM0.0037 19.2866C0.0037 25.9066 4.0637 28.0866 11.1937 28.0866C10.7837 27.3666 10.4637 26.6166 10.1837 25.8666C4.4737 25.6766 2.2037 23.5466 2.2037 19.0866V9.0266C2.2037 7.8166 2.4037 6.6966 2.9137 5.7266C4.5437 6.9966 7.6137 7.5766 10.9937 7.5766C14.3837 7.5766 17.4637 6.9966 19.0737 5.7266C19.4737 6.2866 19.7537 7.3166 19.7537 8.0766V8.0966C20.4537 7.9866 21.1937 7.9166 21.9537 7.8766C21.8337 5.8466 21.2337 4.4166 20.4137 3.3666C20.0837 2.9366 19.5537 2.9166 19.1537 3.2566C17.8437 4.4066 14.4137 5.3766 10.9937 5.3766C7.5737 5.3766 4.1437 4.4066 2.8437 3.2566C2.4337 2.9166 1.9137 2.9366 1.5837 3.3666C0.6137 4.5766 0.0037 6.3266 0.0037 8.8966ZM23.4437 12.8966C26.8637 12.8966 29.2837 12.1966 29.2837 11.3066C29.2837 10.3866 26.8637 9.7066 23.4437 9.7066C20.0137 9.7066 17.5937 10.3866 17.5937 11.3066C17.5937 12.1966 20.0137 12.8966 23.4437 12.8966ZM23.4437 32.2566C28.0537 32.2566 29.9737 31.6466 31.7837 29.9566C34.3537 27.6166 35.8637 24.2166 35.8637 20.6166C35.8637 17.7066 34.8737 14.9166 33.0837 12.8966C32.5437 12.2266 31.6237 12.0766 30.8437 12.5466C29.3437 13.6566 27.4437 14.4366 23.4437 14.4366C19.4537 14.4366 17.5537 13.6566 16.0337 12.5466C15.2537 12.0766 14.3537 12.2066 13.8037 12.8966C12.0137 14.9166 11.0237 17.6866 11.0237 20.6166C11.0237 24.2166 12.5237 27.6166 15.0937 29.9566C16.9137 31.6466 18.8437 32.2566 23.4437 32.2566ZM23.4437 29.9166C19.5637 29.9166 18.0637 29.5466 16.6937 28.2466C14.5637 26.2866 13.3737 23.5466 13.3737 20.6166C13.3737 18.6066 13.9437 16.6366 15.1337 14.9466C17.0237 16.1366 19.7937 16.7766 23.4437 16.7766C27.0937 16.7766 29.8737 16.1366 31.7637 14.9466C32.9637 16.6266 33.5237 18.5966 33.5237 20.6166C33.5237 23.5466 32.3237 26.2866 30.2037 28.2466C28.8037 29.5466 27.3337 29.9166 23.4437 29.9166Z"
        fillRule="evenodd"
        clipRule="evenodd"
    />
</svg>
        