
<svg
    viewBox={0 0 31.376953125 24.58203125}
    xmlns="http://www.w3.org/2000/svg"
>
    <path
        fill="inherit"
        d="M17.9207 3.4864C14.1207 3.4864 11.4607 2.7164 11.4607 1.7364C11.4607 0.7364 14.1207 -0.0036 17.9207 -0.0036C21.7207 -0.0036 24.3907 0.7364 24.3907 1.7364C24.3907 2.7164 21.7207 3.4864 17.9207 3.4864ZM17.9207 24.5864C12.9607 24.5864 10.8507 23.9564 8.8707 22.1064C6.8907 20.2864 5.4807 17.8964 4.8507 15.2464H12.4507L14.3107 15.1664L13.5207 15.9164L11.6607 17.6264C11.4307 17.8164 11.3307 18.1064 11.3307 18.3564C11.3307 18.9364 11.7307 19.3564 12.2907 19.3564C12.5807 19.3564 12.8007 19.2364 13.0007 19.0264L16.9407 14.9564C17.2007 14.6864 17.3107 14.4364 17.3107 14.1664C17.3107 13.8864 17.2007 13.6464 16.9407 13.3664L13.0007 9.2864C12.8007 9.0764 12.5807 8.9664 12.2907 8.9664C11.7307 8.9664 11.3307 9.3964 11.3307 9.9664C11.3307 10.2264 11.4307 10.5164 11.6607 10.7064L13.5207 12.4164L14.3107 13.1664L12.4507 13.0864H4.5007C4.4707 12.7164 4.4607 12.3464 4.4607 11.9764C4.4607 8.8164 5.5207 5.8064 7.6807 3.3364C8.1907 2.7064 8.7207 2.6564 9.2707 3.0464C11.2907 4.5764 13.6307 5.3464 17.9207 5.3464C22.2207 5.3464 24.5507 4.5764 26.5807 3.0464C27.1207 2.6564 27.6407 2.7064 28.1507 3.3364C30.3207 5.8064 31.3807 8.8164 31.3807 11.9764C31.3807 15.8864 29.7507 19.5664 26.9607 22.1064C24.9807 23.9564 22.8907 24.5864 17.9207 24.5864ZM1.0707 15.2464C0.4907 15.2464 0.0007 14.7564 0.0007 14.1664C0.0007 13.5764 0.4907 13.0864 1.0707 13.0864H4.5007C4.5707 13.8264 4.6807 14.5464 4.8507 15.2464Z"
        fillRule="evenodd"
        clipRule="evenodd"
    />
</svg>
        