
<svg
    viewBox={0 0 35.30078125 31.896484375}
    xmlns="http://www.w3.org/2000/svg"
>
    <path
        fill="inherit"
        d="M12.1937 3.1035C15.5437 3.1035 17.9137 2.4235 17.9137 1.5635C17.9137 0.6535 15.5437 0.0035 12.1937 0.0035C8.8337 0.0035 6.4537 0.6535 6.4537 1.5635C6.4537 2.4235 8.8337 3.1035 12.1937 3.1035ZM12.7437 9.4435C14.1637 8.0235 15.9837 7.5635 18.7437 7.5635H23.9437C23.5837 5.8635 22.8137 4.3335 21.6837 3.1435C21.1337 2.4635 20.2237 2.3235 19.4437 2.7935C17.9337 3.8735 16.1037 4.6235 12.1937 4.6235C8.2837 4.6235 6.4537 3.8735 4.9337 2.7935C4.1537 2.3235 3.2537 2.4435 2.7037 3.1435C0.9737 5.1235 0.0037 7.8335 0.0037 10.6935C0.0037 14.2235 1.4737 17.5635 4.0037 19.8635C5.6037 21.3735 7.3237 21.9735 10.8737 22.0835V15.4235C10.8737 12.6435 11.3437 10.8735 12.7437 9.4435ZM18.7737 31.8935H29.2837C31.2137 31.8935 32.8437 31.7235 33.9837 30.5735C35.1337 29.4035 35.3037 27.7935 35.3037 25.8635V15.4635C35.3037 13.5235 35.1337 11.9035 33.9837 10.7635C32.8437 9.6135 31.2137 9.4235 29.2837 9.4235H18.7437C16.8537 9.4235 15.2137 9.6135 14.0637 10.7735C12.9237 11.9235 12.7437 13.5335 12.7437 15.4235V25.8635C12.7437 27.7935 12.9237 29.4035 14.0637 30.5735C15.2137 31.7235 16.8437 31.8935 18.7737 31.8935ZM18.8037 18.1335C18.7737 17.2535 19.4837 16.4235 20.4137 16.3535C20.4937 17.2035 19.7537 18.2235 18.8037 18.1335ZM25.1937 16.9235V18.3235H26.3137V19.2335H25.1937V22.4735C25.1937 23.0235 25.4337 23.2235 25.9037 23.2235C26.0337 23.2235 26.2537 23.2235 26.3137 23.1835V24.1735C26.1937 24.1835 25.9037 24.2135 25.6637 24.2135C24.4637 24.2135 23.9937 23.8035 23.9937 22.6235V19.2335H23.1737V18.3235H23.9937V16.9235ZM22.0237 22.1435C21.8437 22.7535 21.4537 23.4635 20.9337 23.9635C20.7837 24.1035 20.5637 24.2135 20.2637 24.2135C20.0037 24.2135 19.8337 24.1135 19.5937 24.0535C19.4537 23.9935 19.2537 23.8835 18.9937 23.8835C18.4137 23.8835 18.1537 24.2435 17.6937 24.2435C17.3637 24.2435 17.1037 24.0535 16.7437 23.6535C16.0737 22.9035 15.6437 21.7235 15.6437 20.7035C15.6437 20.0735 15.7937 19.4935 16.1837 19.0035C16.5137 18.5835 17.0237 18.3335 17.6337 18.3335C18.1937 18.3335 18.5437 18.6935 18.8537 18.6935C19.1937 18.6935 19.6037 18.3235 20.3337 18.3235C20.9637 18.3235 21.4937 18.5835 21.8337 19.0835C21.3837 19.3335 21.2037 19.6635 21.1237 19.9335C20.9737 20.3135 20.9337 20.7835 21.1237 21.2635C21.2837 21.6735 21.5637 21.9535 22.0237 22.1435ZM30.2837 24.1735H29.0237L26.8837 18.3235H28.1337L29.6537 23.0235L31.0937 18.3235H32.3937Z"
        fillRule="evenodd"
        clipRule="evenodd"
    />
</svg>
        