<svg viewBox="0 0 31.376953125 24.58203125" xmlns="http://www.w3.org/2000/svg"><path d="M17.9207 3.4864C21.7207 3.4864 24.3907 2.7164 24.3907 1.7364C24.3907 0.7364 21.7207 -0.0036 17.9207 -0.0036C14.1207 -0.0036 11.4607 0.7364 11.4607 1.7364C11.4607 2.7164 14.1207 3.4864 17.9207 3.4864ZM17.9207 24.5864C22.8907 24.5864 24.9807 23.9564 26.9607 22.1064C29.7507 19.5664 31.3807 15.8864 31.3807 11.9764C31.3807 8.8164 30.3207 5.8064 28.3507 3.6064C27.8207 2.9264 26.9207 2.8064 26.1507 3.2764C24.4707 4.5164 22.2207 5.3464 17.9207 5.3464C13.6307 5.3464 11.3707 4.5164 9.6907 3.2764C8.9307 2.8064 8.0107 2.9264 7.4807 3.6064C5.7307 5.5464 4.7007 8.1864 4.5007 11.0564H6.7007C6.8607 8.9964 7.5507 7.0964 8.8507 5.4964C11.0207 6.9464 14.2507 7.5464 17.9207 7.5464C21.6007 7.5464 24.8307 6.9464 27.0007 5.4964C28.4807 7.3864 29.1807 9.6264 29.1807 11.9764C29.1807 15.2464 27.8407 18.3164 25.4707 20.4964C23.9307 21.9464 22.2607 22.3764 17.9207 22.3764C13.5807 22.3764 11.9207 21.9464 10.3807 20.4964C9.3607 19.5664 8.5607 18.4664 7.9807 17.2664H5.5207C6.2907 19.1164 7.4107 20.7664 8.8707 22.1064C10.8507 23.9564 12.9607 24.5864 17.9207 24.5864ZM1.0707 15.2564L12.4507 15.2464L14.3107 15.1664L13.5207 15.9164L11.6607 17.6264C11.4307 17.8164 11.3307 18.1064 11.3307 18.3564C11.3307 18.9364 11.7307 19.3564 12.2907 19.3564C12.5807 19.3564 12.8007 19.2364 13.0007 19.0264L16.9407 14.9564C17.2007 14.6864 17.3107 14.4364 17.3107 14.1664C17.3107 13.8864 17.2007 13.6464 16.9407 13.3664L13.0007 9.2864C12.8007 9.0764 12.5807 8.9664 12.2907 8.9664C11.7307 8.9664 11.3307 9.3964 11.3307 9.9664C11.3307 10.2264 11.4307 10.5164 11.6607 10.7064L13.5207 12.4164L14.3107 13.1664L12.4507 13.0864H1.0707C0.4907 13.0864 0.0007 13.5764 0.0007 14.1664C0.0007 14.7564 0.4907 15.2564 1.0707 15.2564Z" /></svg>