
<svg
    viewBox={0 0 21.998046875 28.08203125}
    xmlns="http://www.w3.org/2000/svg"
>
    <path
        fill="inherit"
        d="M10.9937 3.5184C14.6137 3.5184 17.3237 2.7484 17.3237 1.7684C17.3237 0.7484 14.6137 -0.0016 10.9937 -0.0016C7.3737 -0.0016 4.6737 0.7484 4.6737 1.7684C4.6737 2.7484 7.3737 3.5184 10.9937 3.5184ZM10.9937 28.0784C18.5237 28.0784 21.9937 25.3984 21.9937 19.3084V8.8984C21.9937 6.3284 21.3837 4.5984 20.4137 3.3584C20.0837 2.9484 19.5537 2.9284 19.1537 3.2584C17.8437 4.3984 14.4137 5.3884 10.9937 5.3884C7.5737 5.3884 4.1437 4.3984 2.8437 3.2584C2.4337 2.9284 1.9137 2.9484 1.5837 3.3584C0.6137 4.5984 0.0037 6.3284 0.0037 8.8984V19.3084C0.0037 25.3984 3.4637 28.0784 10.9937 28.0784Z"
        fillRule="evenodd"
        clipRule="evenodd"
    />
</svg>
        