<svg viewBox="0 0 32.634765625 28.75537109375" xmlns="http://www.w3.org/2000/svg"><path d="M3.9337 25.72C3.9337 27.65 5.0737 28.76 7.0237 28.76H25.6337C27.5737 28.76 28.7137 27.65 28.7137 25.72V12.21L31.0337 14.15C31.2037 14.29 31.3937 14.39 31.6537 14.39C32.2337 14.39 32.6337 14 32.6337 13.47C32.6337 13.1 32.4937 12.85 32.1937 12.61L28.7137 9.68V3.91C28.7137 3.33 28.3237 2.94 27.7237 2.94H26.2637C25.6737 2.94 25.2837 3.33 25.2837 3.91V6.78L17.9637 0.65C16.9537 -0.22 15.7137 -0.22 14.6837 0.65L0.4337 12.61C0.1337 12.85 0.0037 13.1 0.0037 13.47C0.0037 14 0.3937 14.39 0.9937 14.39C1.2437 14.39 1.4337 14.29 1.6137 14.15L3.9337 12.2ZM7.2337 26.83C6.3537 26.83 5.8837 26.34 5.8837 25.45V10.57L15.8437 2.22C16.1337 1.96 16.5037 1.94 16.8037 2.22L26.7737 10.57V25.45C26.7737 26.34 26.2937 26.83 25.4337 26.83ZM8.4337 22.53C8.4337 23.64 9.1337 24.28 10.3337 24.28H22.3237C23.5137 24.28 24.2237 23.64 24.2237 22.53V11.87L17.2137 6.01C16.6637 5.55 15.9837 5.55 15.4537 6.01L8.4337 11.87ZM10.3737 21.7V12.81L15.8837 8.19C16.1337 7.99 16.5137 7.97 16.7637 8.19L22.2837 12.83V21.7C22.2837 22.12 22.0537 22.36 21.6337 22.36H11.0237C10.6137 22.36 10.3737 22.12 10.3737 21.7ZM12.9237 18.54C12.9237 19.34 13.4437 19.83 14.2737 19.83H18.3737C19.2237 19.83 19.7237 19.34 19.7237 18.54V14.07L17.1037 11.86C16.6237 11.46 16.0237 11.46 15.5537 11.86L12.9237 14.07ZM14.8237 17.64V14.95L15.9937 13.96C16.2037 13.78 16.4637 13.78 16.6537 13.96L17.8237 14.95V17.64C17.8237 17.85 17.7337 17.95 17.5137 17.95H15.1337C14.9337 17.95 14.8237 17.85 14.8237 17.64Z" /></svg>