
<svg
    viewBox="0 0 32.853515625 31.869140625"
    xmlns="http://www.w3.org/2000/svg"
>
    <path
        fill="inherit"
        d="M9.9637 3.1735C13.2637 3.1735 15.7137 2.4735 15.7137 1.5835C15.7137 0.6735 13.2637 0.0035 9.9637 0.0035C6.6837 0.0035 4.2237 0.6735 4.2237 1.5835C4.2237 2.4735 6.6837 3.1735 9.9637 3.1735ZM0.0037 17.4835C0.0037 22.7735 2.8737 25.2235 9.0637 25.4335C9.0237 24.9235 8.9937 24.4135 8.9937 23.8735V11.9535C8.9937 8.8335 9.8937 6.4435 11.6437 4.7835C11.1037 4.8535 10.5437 4.8635 9.9637 4.8635C6.8637 4.8635 3.8037 3.9235 2.5837 2.9235C2.2037 2.6435 1.7337 2.6835 1.4337 3.0535C0.5337 4.1335 0.0037 5.7235 0.0037 8.0535ZM21.8437 7.3035C25.3637 7.3035 28.1737 6.5335 28.1737 5.5535C28.1737 4.5435 25.3637 3.7835 21.8437 3.7835C18.3437 3.7835 15.5337 4.5435 15.5337 5.5535C15.5337 6.5335 18.3437 7.3035 21.8437 7.3035ZM21.8437 31.8735C29.3837 31.8735 32.8537 29.1935 32.8537 23.0935V12.6835C32.8537 10.1135 32.2237 8.3835 31.2637 7.1535C30.9437 6.7435 30.4037 6.7135 30.0137 7.0435C28.6937 8.1935 25.2637 9.1735 21.8437 9.1735C18.4337 9.1735 14.9937 8.1935 13.7037 7.0435C13.2937 6.7135 12.7737 6.7435 12.4437 7.1535C11.4737 8.3835 10.8537 10.1135 10.8537 12.6835V23.0935C10.8537 29.1935 14.3137 31.8735 21.8437 31.8735Z"
        fillRule="evenodd"
        clipRule="evenodd"
    />
</svg>
        