
<svg
    viewBox="0 0 49.328125 25.519010789491922"
    xmlns="http://www.w3.org/2000/svg"
>
    <path
        fill="inherit"
        d="M37.0337 6.5776C37.3237 7.0876 38.0037 7.2576 38.5237 6.9576L47.0737 2.0376C47.5937 1.7476 47.7837 1.0676 47.4737 0.5376C47.1837 0.0276 46.4837 -0.1524 45.9737 0.1376L37.4237 5.0576C36.9137 5.3476 36.7237 6.0476 37.0337 6.5776ZM1.0937 18.7276C1.7137 18.7276 2.2037 18.2276 2.2037 17.6276V17.1176H4.4337C4.0437 17.7376 3.8137 18.4576 3.8137 19.2476C3.8137 21.4676 5.6337 23.2676 7.8437 23.2676H15.6037C17.8137 23.2676 19.6337 21.4676 19.6337 19.2476C19.6337 18.9176 19.5937 18.6076 19.5137 18.3076C22.6437 19.4576 25.6237 21.4776 28.4737 24.4176C30.4237 26.5076 33.4737 25.4476 33.4737 22.5576V2.9576C33.4737 0.0676 30.4237 -1.0024 28.4737 1.0976C23.6837 6.0676 18.1037 8.3976 13.2237 8.3976H2.2037V7.8576C2.2037 7.2576 1.7137 6.7676 1.0937 6.7676C0.4937 6.7676 0.0037 7.2576 0.0037 7.8576V17.6276C0.0037 18.2276 0.4937 18.7276 1.0937 18.7276ZM29.9837 22.8076C24.7837 17.4576 18.6637 14.9176 13.2237 14.9176H2.2037V10.5976H13.2237C18.6637 10.5976 24.7837 8.0576 29.9837 2.6976C30.7037 1.9576 31.2637 2.1076 31.2637 2.9576V22.5576C31.2637 23.4076 30.7037 23.5476 29.9837 22.8076ZM37.2737 12.7576C37.2737 13.3576 37.7637 13.8476 38.3637 13.8476H48.2237C48.8237 13.8476 49.3237 13.3576 49.3237 12.7576C49.3237 12.1576 48.8237 11.6476 48.2237 11.6476H38.3637C37.7637 11.6476 37.2737 12.1576 37.2737 12.7576ZM6.0137 19.2476C6.0137 18.2476 6.8537 17.4176 7.8437 17.4176H15.6037C16.5937 17.4176 17.4337 18.2476 17.4337 19.2476C17.4337 20.2476 16.5937 21.0576 15.6037 21.0576H7.8437C6.8537 21.0576 6.0137 20.2476 6.0137 19.2476ZM37.0337 18.9376C36.7237 19.4676 36.9137 20.1376 37.4237 20.4576L45.9737 25.3776C46.4837 25.6776 47.1837 25.4876 47.4737 24.9776C47.7837 24.4476 47.5937 23.7776 47.0737 23.4576L38.5237 18.5376C38.0037 18.2376 37.3237 18.4276 37.0337 18.9376Z"
        fillRule="evenodd"
        clipRule="evenodd"
    />
</svg>
        