
<svg
    viewBox={0 0 33.46875 25.511744913487554}
    xmlns="http://www.w3.org/2000/svg"
>
    <path
        fill="inherit"
        d="M1.0937 18.727C1.7137 18.727 2.2037 18.227 2.2037 17.627V17.117H4.4337C4.0437 17.737 3.8137 18.457 3.8137 19.247C3.8137 21.467 5.6337 23.267 7.8437 23.267H15.6037C17.8137 23.267 19.6337 21.467 19.6337 19.247C19.6337 18.917 19.5937 18.607 19.5137 18.307C22.6437 19.457 25.6237 21.477 28.4737 24.417C30.4237 26.507 33.4737 25.447 33.4737 22.557V2.957C33.4737 0.067 30.4237 -1.003 28.4737 1.097C23.6837 6.067 18.1037 8.397 13.2237 8.397H2.2037V7.857C2.2037 7.257 1.7137 6.767 1.0937 6.767C0.4937 6.767 0.0037 7.257 0.0037 7.857V17.627C0.0037 18.227 0.4937 18.727 1.0937 18.727ZM29.9837 22.807C24.7837 17.457 18.6637 14.917 13.2237 14.917H2.2037V10.597H13.2237C18.6637 10.597 24.7837 8.057 29.9837 2.697C30.7037 1.957 31.2637 2.107 31.2637 2.957V22.557C31.2637 23.407 30.7037 23.547 29.9837 22.807ZM6.0137 19.247C6.0137 18.247 6.8537 17.417 7.8437 17.417H15.6037C16.5937 17.417 17.4337 18.247 17.4337 19.247C17.4337 20.247 16.5937 21.057 15.6037 21.057H7.8437C6.8537 21.057 6.0137 20.247 6.0137 19.247Z"
        fillRule="evenodd"
        clipRule="evenodd"
    />
</svg>
        