
<svg
    viewBox={0 0 16.0234375 25.142578125}
    xmlns="http://www.w3.org/2000/svg"
>
    <path
        fill="inherit"
        d="M2.2237 25.1392H13.7937C15.1737 25.1392 16.0237 24.3592 16.0237 22.8992V22.6292C16.0237 19.3292 12.5337 15.8292 10.6237 13.9292C9.7637 13.0692 9.6937 12.1092 10.6237 11.1792C12.5337 9.2992 16.0237 5.8092 16.0237 2.4892V2.2592C16.0237 0.7892 15.1737 -0.0008 13.7937 -0.0008H2.2237C0.8437 -0.0008 0.0037 0.7892 0.0037 2.2592V2.4892C0.0037 5.8092 3.5037 9.2992 5.4037 11.1792C6.2737 12.0492 6.3437 12.9992 5.4037 13.9292C3.5037 15.8292 0.0037 19.3292 0.0037 22.6292V22.8992C0.0037 24.3592 0.8437 25.1392 2.2237 25.1392ZM3.2837 23.2792C2.6937 23.2792 2.5537 22.5992 2.9537 22.2292L7.3537 18.0292C7.7837 17.6492 8.2737 17.6592 8.6637 18.0292L13.0737 22.2292C13.4637 22.5992 13.3337 23.2792 12.7437 23.2792Z"
        fillRule="evenodd"
        clipRule="evenodd"
    />
</svg>
        