
<svg
    viewBox="0 0 16.0234375 25.142578125"
    xmlns="http://www.w3.org/2000/svg"
>
    <path
        fill="inherit"
        d="M2.2237 25.1392H13.7937C15.1737 25.1392 16.0237 24.3592 16.0237 22.8992V22.6292C16.0237 19.3292 12.5337 15.8292 10.6237 13.9292C9.6937 12.9992 9.7637 12.0492 10.6237 11.1792C12.5337 9.2992 16.0237 5.8092 16.0237 2.4892V2.2592C16.0237 0.7892 15.1737 -0.0008 13.7937 -0.0008H2.2237C0.8437 -0.0008 0.0037 0.7892 0.0037 2.2592V2.4892C0.0037 5.8092 3.5037 9.2992 5.4037 11.1792C6.2737 12.0492 6.3437 12.9992 5.4037 13.9292C3.5037 15.8292 0.0037 19.3292 0.0037 22.6292V22.8992C0.0037 24.3592 0.8437 25.1392 2.2237 25.1392ZM3.2837 23.2792C2.6937 23.2792 2.5537 22.5992 2.9537 22.2292L7.3137 18.0692C7.4737 17.9192 7.5437 17.8592 7.5437 17.6392V11.5792C7.5437 10.9492 7.4237 10.6392 6.9637 10.2392C6.0437 9.4592 4.7537 8.3392 3.9137 7.4492C3.5537 7.0992 3.7437 6.6592 4.1737 6.6592H11.8537C12.2737 6.6592 12.4737 7.0992 12.1137 7.4492C11.2837 8.3392 9.9937 9.4592 9.0637 10.2392C8.6037 10.6392 8.4937 10.9492 8.4937 11.5792V17.6392C8.4937 17.8592 8.5437 17.9192 8.7137 18.0692L13.0737 22.2292C13.4637 22.5992 13.3337 23.2792 12.7437 23.2792Z"
        fillRule="evenodd"
        clipRule="evenodd"
    />
</svg>
        