
<svg
    viewBox={0 0 27.890625 27.890625}
    xmlns="http://www.w3.org/2000/svg"
>
    <path
        fill="inherit"
        d="M13.9427 27.8864C21.6427 27.8864 27.8927 21.6464 27.8927 13.9464C27.8927 6.2464 21.6427 -0.0036 13.9427 -0.0036C6.2527 -0.0036 0.0027 6.2464 0.0027 13.9464C0.0027 21.6464 6.2527 27.8864 13.9427 27.8864ZM13.9427 25.5664C7.5227 25.5664 2.3227 20.3664 2.3227 13.9464C2.3227 7.5164 7.5227 2.3264 13.9427 2.3264C20.3727 2.3264 25.5627 7.5164 25.5627 13.9464C25.5627 20.3664 20.3727 25.5664 13.9427 25.5664ZM10.2627 21.9264H17.6227C18.5027 21.9264 19.0327 21.4264 19.0327 20.5064V20.3264C19.0327 18.2364 16.8127 16.0064 15.6027 14.7964C15.0027 14.2064 15.0427 13.6064 15.6027 13.0664C16.8127 11.8664 19.0327 9.6364 19.0327 7.5364V7.3864C19.0327 6.4564 18.5027 5.9464 17.6227 5.9464H10.2627C9.3927 5.9464 8.8627 6.4564 8.8627 7.3864V7.5364C8.8627 9.6364 11.0727 11.8664 12.2927 13.0664C12.8527 13.6064 12.8927 14.2064 12.2927 14.7964C11.0727 16.0064 8.8627 18.2364 8.8627 20.3264V20.5064C8.8627 21.4264 9.3927 21.9264 10.2627 21.9264ZM10.9327 20.7564C10.5527 20.7564 10.4827 20.3164 10.7327 20.0864L13.3327 17.4364C13.4227 17.3364 13.4627 17.2964 13.4627 17.1564V13.3164C13.4627 12.9364 13.3827 12.7464 13.1127 12.4864C12.5127 11.8764 11.8827 11.2664 11.3427 10.6864C11.1027 10.4564 11.2427 10.1964 11.5127 10.1964H16.3927C16.6627 10.1964 16.7927 10.4564 16.5527 10.6864C16.0127 11.2664 15.3827 11.8764 14.7827 12.4864C14.5027 12.7464 14.4227 12.9364 14.4227 13.3164V17.1564C14.4227 17.2964 14.4627 17.3364 14.5627 17.4364L17.1627 20.0864C17.4027 20.3164 17.3327 20.7564 16.9527 20.7564Z"
        fillRule="evenodd"
        clipRule="evenodd"
    />
</svg>
        