
<svg
    viewBox={0 0 20.849609375 29.845703125}
    xmlns="http://www.w3.org/2000/svg"
>
    <path
        fill="inherit"
        d="M2.2237 25.1392H9.2537V23.2792H3.2837C2.6937 23.2792 2.5537 22.5992 2.9537 22.2292L7.3137 18.0692C7.4737 17.9192 7.5437 17.8592 7.5437 17.6392V11.5792C7.5437 10.9492 7.4237 10.6392 6.9637 10.2392C6.0437 9.4592 4.7537 8.3392 3.9137 7.4492C3.5537 7.0992 3.7437 6.6592 4.1737 6.6592H11.8537C12.2737 6.6592 12.4737 7.0992 12.1137 7.4492C11.2837 8.3392 9.9937 9.4592 9.0637 10.2392C8.6037 10.6392 8.4937 10.9492 8.4937 11.5792V17.6392C8.4937 17.8592 8.5437 17.9192 8.7137 18.0692L10.4637 19.7292C10.5237 18.0192 11.1337 16.5692 12.1937 15.5692C11.6237 14.9292 11.1037 14.4092 10.6237 13.9292C9.6937 12.9992 9.7637 12.0492 10.6237 11.1792C12.5337 9.2992 16.0237 5.8092 16.0237 2.4892V2.2592C16.0237 0.7892 15.1737 -0.0008 13.7937 -0.0008H2.2237C0.8437 -0.0008 0.0037 0.7892 0.0037 2.2592V2.4892C0.0037 5.8092 3.5037 9.2992 5.4037 11.1792C6.2737 12.0492 6.3437 12.9992 5.4037 13.9292C3.5037 15.8292 0.0037 19.3292 0.0037 22.6292V22.8992C0.0037 24.3592 0.8437 25.1392 2.2237 25.1392ZM12.8937 29.8492H19.0837C20.2437 29.8492 20.8537 29.2192 20.8537 27.9692V23.2192C20.8537 22.1992 20.4437 21.6192 19.6437 21.4392V19.9792C19.6437 17.5292 18.2237 15.9692 15.9837 15.9692C13.7637 15.9692 12.3137 17.5292 12.3137 19.9792V21.4392C11.5437 21.6192 11.1337 22.1992 11.1337 23.2192V27.9692C11.1337 29.2192 11.7337 29.8492 12.8937 29.8492ZM13.8037 19.7392C13.8037 18.3492 14.6537 17.4492 15.9837 17.4492C17.3237 17.4492 18.1737 18.3492 18.1737 19.7392V21.3692H13.8037Z"
        fillRule="evenodd"
        clipRule="evenodd"
    />
</svg>
        