
<svg
    viewBox={0 0 27.890625 27.890625}
    xmlns="http://www.w3.org/2000/svg"
>
    <path
        fill="inherit"
        d="M13.9427 27.8864C21.6427 27.8864 27.8927 21.6264 27.8927 13.9464C27.8927 6.2464 21.6427 -0.0036 13.9427 -0.0036C6.2627 -0.0036 0.0027 6.2464 0.0027 13.9464C0.0027 21.6264 6.2627 27.8864 13.9427 27.8864ZM10.1627 22.1764C9.2527 22.1764 8.6927 21.6564 8.6927 20.7164V20.5264C8.6927 18.3764 10.9827 16.0764 12.2327 14.8164C12.8527 14.2164 12.8127 13.5864 12.2327 13.0464C10.9827 11.7964 8.6927 9.5064 8.6927 7.3264V7.1764C8.6927 6.2164 9.2527 5.6964 10.1627 5.6964H17.7327C18.6327 5.6964 19.1927 6.2164 19.1927 7.1764V7.3264C19.1927 9.5064 16.9127 11.7964 15.6527 13.0464C15.0827 13.5864 15.0427 14.2164 15.6527 14.8164C16.9127 16.0764 19.1927 18.3764 19.1927 20.5264V20.7164C19.1927 21.6564 18.6327 22.1764 17.7327 22.1764ZM10.8427 20.9564H17.0527C17.4427 20.9564 17.5127 20.5064 17.2527 20.2764L14.5727 17.5364C14.4827 17.4464 14.4327 17.4064 14.4327 17.2564V13.2864C14.4327 12.8964 14.5227 12.6964 14.8027 12.4264C15.4227 11.8164 16.0827 11.1864 16.6427 10.5964C16.8727 10.3464 16.7527 10.0764 16.4627 10.0764H11.4427C11.1527 10.0764 11.0227 10.3464 11.2627 10.5964C11.8127 11.1864 12.4727 11.8164 13.0827 12.4264C13.3727 12.6964 13.4527 12.8964 13.4527 13.2864V17.2564C13.4527 17.4064 13.4127 17.4464 13.3127 17.5364L10.6327 20.2764C10.3727 20.5064 10.4427 20.9564 10.8427 20.9564Z"
        fillRule="evenodd"
        clipRule="evenodd"
    />
</svg>
        