
<svg
    viewBox="0 0 32.6484375 30.8232421875"
    xmlns="http://www.w3.org/2000/svg"
>
    <path
        fill="inherit"
        d="M10.9637 6.7639L15.8437 2.6639C15.9937 2.5439 16.1737 2.4739 16.3237 2.4739C16.4837 2.4739 16.6537 2.5439 16.8037 2.6639L30.5037 14.1639C30.7737 14.3939 31.0937 14.6039 31.4737 14.6039C32.2137 14.6039 32.6437 14.0639 32.6437 13.5039C32.6437 13.1939 32.5237 12.8639 32.2137 12.6239L28.6537 9.6239V4.0739C28.6537 3.4739 28.2737 3.0939 27.6737 3.0939H26.2137C25.6237 3.0939 25.2237 3.4739 25.2237 4.0739V6.7439L17.9637 0.6539C17.4437 0.2139 16.8837 0.0039 16.3237 0.0039C15.7637 0.0039 15.2037 0.2139 14.6837 0.6539L9.3237 5.1539ZM29.0837 30.5139C29.4937 30.9239 30.1737 30.9239 30.5737 30.5139C30.9837 30.0939 30.9837 29.4339 30.5737 29.0239L3.5637 2.0339C3.1537 1.6239 2.4737 1.6139 2.0637 2.0339C1.6637 2.4339 1.6637 3.1339 2.0637 3.5239ZM28.3837 24.2039V14.8839L17.1437 5.4639C16.6237 5.0339 16.0137 5.0439 15.5037 5.4639L12.3137 8.1339ZM4.8237 8.9239L0.4337 12.6239C0.1337 12.8639 0.0037 13.1939 0.0037 13.5039C0.0037 14.0639 0.4337 14.6039 1.1737 14.6039C1.5537 14.6039 1.8737 14.3939 2.1637 14.1639L6.4537 10.5539ZM7.3437 28.7539H24.6937L7.8237 11.9039L4.2637 14.8839V25.7439C4.2637 27.6439 5.4137 28.7539 7.3437 28.7539Z"
        fillRule="evenodd"
        clipRule="evenodd"
    />
</svg>
        