<svg viewBox="0 0 27.890625 27.890625" xmlns="http://www.w3.org/2000/svg"><path d="M13.9427 27.8864C21.6427 27.8864 27.8927 21.6464 27.8927 13.9464C27.8927 6.2464 21.6427 -0.0036 13.9427 -0.0036C6.2527 -0.0036 0.0027 6.2464 0.0027 13.9464C0.0027 21.6464 6.2527 27.8864 13.9427 27.8864ZM13.9427 25.5664C7.5227 25.5664 2.3227 20.3664 2.3227 13.9464C2.3227 7.5164 7.5227 2.3264 13.9427 2.3264C20.3727 2.3264 25.5627 7.5164 25.5627 13.9464C25.5627 20.3664 20.3727 25.5664 13.9427 25.5664ZM5.8927 20.0264H20.3827C20.6327 20.0264 20.8327 19.8264 20.8327 19.5664C20.8327 19.3164 20.6327 19.1164 20.3827 19.1164H18.5827V10.7364C18.6327 10.7164 18.7127 10.7164 18.7827 10.7164C19.7127 10.7164 20.2927 11.1664 21.2027 11.1664C21.5927 11.1664 21.7627 11.1164 21.9527 11.0364C22.1927 10.9264 22.2827 10.7764 22.2827 10.5264V7.9664C22.2827 7.8064 22.1927 7.6864 21.9727 7.6864C21.8027 7.6864 21.6027 7.8064 21.1627 7.8064C20.3027 7.8064 19.7127 7.3464 18.7727 7.3464C18.3727 7.3464 18.1927 7.3964 18.0227 7.4764C17.7827 7.5564 17.6827 7.7364 17.6827 7.9864V12.9864L12.4427 10.2264C11.9627 9.9964 11.5927 9.9964 11.1327 10.2364L5.6427 13.1064C5.1127 13.3964 5.4427 14.2064 6.1227 13.8664L11.5927 11.0764C11.7127 11.0064 11.8527 11.0064 11.9727 11.0764L17.4427 13.8664C17.5227 13.9064 17.6127 13.9364 17.6827 13.9464V19.1164H16.6527C16.6827 19.0164 16.6827 18.9264 16.6827 18.8164V14.2964C16.5927 14.2564 16.5027 14.2064 16.4027 14.1664L11.7827 11.7864L7.1527 14.1664C7.0527 14.2064 6.9727 14.2564 6.8927 14.2964V18.8164C6.8927 18.9264 6.8927 19.0264 6.9327 19.1164H5.8927C5.6627 19.1164 5.4427 19.3164 5.4427 19.5664C5.4427 19.8264 5.6627 20.0264 5.8927 20.0264ZM10.0927 19.1164V15.4864C10.0927 15.2164 10.2627 15.0664 10.5127 15.0664H13.0427C13.3027 15.0664 13.4627 15.2164 13.4627 15.4864V19.1164Z" /></svg>