
<svg
    viewBox="0 0 27.890625 27.890625"
    xmlns="http://www.w3.org/2000/svg"
>
    <path
        fill="inherit"
        d="M13.9427 27.8927C21.6427 27.8927 27.8927 21.6427 27.8927 13.9427C27.8927 6.2627 21.6427 0.0027 13.9427 0.0027C6.2627 0.0027 0.0027 6.2627 0.0027 13.9427C0.0027 21.6427 6.2627 27.8927 13.9427 27.8927ZM6.0327 13.7427C5.3327 14.0827 4.9727 13.2527 5.5227 12.9727L11.1927 9.9927C11.6727 9.7527 12.0627 9.7527 12.5327 9.9927L17.9527 12.8227V7.6727C17.9527 7.4327 18.0627 7.2327 18.2827 7.1527C18.4827 7.0727 18.6527 7.0127 19.0627 7.0127C20.0327 7.0127 20.6427 7.4927 21.5327 7.4927C21.9827 7.4927 22.1927 7.3727 22.3827 7.3727C22.6027 7.3727 22.6927 7.4927 22.6927 7.6727V10.2927C22.6927 10.5527 22.5827 10.7227 22.3527 10.8127C22.1527 10.9227 21.9827 10.9627 21.5727 10.9627C20.6327 10.9627 20.0327 10.5027 19.0827 10.5027C19.0027 10.5027 18.9327 10.5027 18.8827 10.5127V19.1527H20.7227C20.9827 19.1527 21.1927 19.3627 21.1927 19.6227C21.1927 19.8827 20.9827 20.0827 20.7227 20.0827H5.7827C5.5327 20.0827 5.3327 19.8827 5.3327 19.6227C5.3327 19.3627 5.5327 19.1527 5.7827 19.1527H6.8527C6.8227 19.0627 6.8127 18.9627 6.8127 18.8427V14.1927C6.9027 14.1527 6.9827 14.0927 7.0827 14.0527L11.8527 11.5927L16.6227 14.0527C16.7227 14.0927 16.8127 14.1527 16.9127 14.1927V18.8427C16.9127 18.9627 16.9027 19.0627 16.8727 19.1527H17.9527V13.8127C17.8427 13.7927 17.7427 13.7527 17.6227 13.7027L12.0627 10.8527C11.9227 10.8027 11.7827 10.8027 11.6627 10.8527ZM10.1127 19.1527H13.5927V15.4127C13.5927 15.1327 13.4227 14.9727 13.1627 14.9727H10.5527C10.2927 14.9727 10.1127 15.1327 10.1127 15.4127Z"
        fillRule="evenodd"
        clipRule="evenodd"
    />
</svg>
        