<svg viewBox="0 0 27.890625 27.890625" xmlns="http://www.w3.org/2000/svg"><path d="M13.9427 27.8864C21.6427 27.8864 27.8927 21.6264 27.8927 13.9464C27.8927 6.2464 21.6427 -0.0036 13.9427 -0.0036C6.2627 -0.0036 0.0027 6.2464 0.0027 13.9464C0.0027 21.6264 6.2627 27.8864 13.9427 27.8864ZM5.0427 12.8064C5.0427 12.6364 5.1127 12.4364 5.2727 12.2864L12.9427 5.8664C13.5627 5.3464 14.3527 5.3464 14.9527 5.8664L18.6327 8.9564V7.5864C18.6327 7.2764 18.8527 7.0564 19.1827 7.0564H19.9727C20.2927 7.0564 20.5127 7.2764 20.5127 7.5864V10.5264L22.6227 12.2864C22.7927 12.4364 22.8627 12.6064 22.8627 12.8364C22.8627 13.2064 22.5627 13.4664 22.1927 13.4664C21.9727 13.4664 21.8027 13.3264 21.6127 13.1964L14.2827 7.0364C14.0727 6.8664 13.8527 6.8364 13.6127 7.0364L6.2727 13.1964C6.1127 13.3264 5.9427 13.4664 5.7127 13.4664C5.2927 13.4664 5.0427 13.1364 5.0427 12.8064ZM7.3927 19.4564V13.5764L13.5127 8.4464C13.7927 8.2164 14.1127 8.2064 14.3927 8.4464L20.5127 13.5864V19.4564C20.5127 20.4664 19.8827 21.0864 18.8427 21.0864H9.0627C8.0227 21.0864 7.3927 20.4664 7.3927 19.4564ZM12.0427 19.6564H15.8627V15.1164C15.8627 14.7964 15.6727 14.5564 15.3027 14.5564H12.6027C12.2627 14.5564 12.0427 14.7964 12.0427 15.1164Z" /></svg>