
<svg
    viewBox={0 0 27.890625 27.890625}
    xmlns="http://www.w3.org/2000/svg"
>
    <path
        fill="inherit"
        d="M13.9427 27.8864C21.6427 27.8864 27.8927 21.6464 27.8927 13.9464C27.8927 6.2464 21.6427 -0.0036 13.9427 -0.0036C6.2527 -0.0036 0.0027 6.2464 0.0027 13.9464C0.0027 21.6464 6.2527 27.8864 13.9427 27.8864ZM13.9427 25.5664C7.5227 25.5664 2.3227 20.3664 2.3227 13.9464C2.3227 7.5164 7.5227 2.3264 13.9427 2.3264C20.3727 2.3264 25.5627 7.5164 25.5627 13.9464C25.5627 20.3664 20.3727 25.5664 13.9427 25.5664ZM7.7827 14.2564L13.7027 9.6064C13.7527 9.5564 13.8627 9.5264 13.9227 9.5264C13.9827 9.5264 14.0827 9.5564 14.1527 9.6064L20.0727 14.2564C20.6127 14.6964 21.1927 13.9764 20.7227 13.6064L14.6427 8.7864C14.4327 8.6364 14.1627 8.5264 13.9227 8.5264C13.6727 8.5264 13.4227 8.6264 13.2027 8.7864L7.1127 13.6064C6.6427 13.9764 7.2227 14.6964 7.7827 14.2564ZM9.2127 18.0064H18.6227C19.3627 18.0064 19.7927 17.5864 19.7927 16.8264V14.9664C19.6227 14.8864 19.4527 14.7764 19.2327 14.6264L13.9227 10.4464L8.5827 14.6264C8.3827 14.7764 8.2327 14.8864 8.0427 14.9664V16.8264C8.0427 17.5864 8.4727 18.0064 9.2127 18.0064ZM6.6127 12.9764L9.1027 11.0364H7.8727C7.6527 11.0364 7.4527 11.0764 7.2827 11.1964L3.7827 13.6164C3.5027 13.8364 3.6227 14.3464 4.0727 14.3464H6.2527C6.0727 13.8864 6.1127 13.3564 6.6127 12.9764ZM21.2227 12.9764C21.7427 13.3564 21.7827 13.8864 21.6027 14.3464H23.7727C24.2227 14.3464 24.3527 13.8664 24.0327 13.6164L20.5527 11.1964C20.3827 11.0764 20.2027 11.0364 19.9627 11.0364H18.7327ZM12.5127 17.1064L12.4927 14.7564C12.4927 14.5164 12.6627 14.3664 12.8927 14.3664H14.9727C15.1927 14.3664 15.3427 14.5164 15.3427 14.7564V17.1064ZM7.2327 16.8264V15.1064L4.6527 15.1164V16.8264C4.6527 17.5864 5.0827 18.0064 5.8427 18.0064H7.5627C7.3527 17.6764 7.2327 17.2964 7.2327 16.8264ZM20.6027 16.8264C20.6027 17.2964 20.4927 17.6764 20.2727 18.0064H22.0027C22.7527 18.0064 23.1827 17.5864 23.1827 16.8264V15.1164L20.6027 15.1064Z"
        fillRule="evenodd"
        clipRule="evenodd"
    />
</svg>
        