
<svg
    viewBox="0 0 27.890625 27.890625"
    xmlns="http://www.w3.org/2000/svg"
>
    <path
        fill="inherit"
        d="M13.9427 27.8864C21.6427 27.8864 27.8927 21.6464 27.8927 13.9464C27.8927 6.2464 21.6427 -0.0036 13.9427 -0.0036C6.2527 -0.0036 0.0027 6.2464 0.0027 13.9464C0.0027 21.6464 6.2527 27.8864 13.9427 27.8864ZM13.9427 25.5664C7.5227 25.5664 2.3227 20.3664 2.3227 13.9464C2.3227 7.5164 7.5227 2.3264 13.9427 2.3264C20.3727 2.3264 25.5627 7.5164 25.5627 13.9464C25.5627 20.3664 20.3727 25.5664 13.9427 25.5664ZM5.3027 12.8264C5.3027 13.1364 5.5527 13.4564 5.9627 13.4564C6.1827 13.4564 6.3427 13.3264 6.4927 13.1964L13.6127 7.2364C13.8527 7.0264 14.0527 7.0564 14.2727 7.2364L21.3827 13.1964C21.5627 13.3264 21.7127 13.4564 21.9127 13.4564C22.2727 13.4564 22.5727 13.2064 22.5727 12.8564C22.5727 12.6164 22.5027 12.4664 22.3427 12.3164L20.2927 10.5964V7.7664C20.2927 7.4664 20.0927 7.2464 19.7827 7.2464H19.0027C18.7027 7.2464 18.4827 7.4664 18.4827 7.7664V9.0764L14.9327 6.0964C14.3327 5.5964 13.5627 5.5964 12.9727 6.0964L5.5327 12.3164C5.3827 12.4664 5.3027 12.6464 5.3027 12.8264ZM7.5927 19.2664C7.5927 20.2464 8.1927 20.8364 9.2127 20.8364H18.6727C19.7027 20.8364 20.2927 20.2464 20.2927 19.2664V13.5664L14.3727 8.5864C14.0927 8.3564 13.7827 8.3664 13.5127 8.5864L7.5927 13.5464ZM15.8027 19.4664H12.0827V15.0664C12.0827 14.7564 12.3027 14.5164 12.6427 14.5164H15.2427C15.6027 14.5164 15.8027 14.7564 15.8027 15.0664Z"
        fillRule="evenodd"
        clipRule="evenodd"
    />
</svg>
        