<svg viewBox="0 0 27.890625 27.890625" xmlns="http://www.w3.org/2000/svg"><path d="M13.9427 27.8927C21.6427 27.8927 27.8927 21.6427 27.8927 13.9427C27.8927 6.2627 21.6427 0.0027 13.9427 0.0027C6.2627 0.0027 0.0027 6.2627 0.0027 13.9427C0.0027 21.6427 6.2627 27.8927 13.9427 27.8927ZM7.6127 14.2827C7.0427 14.7427 6.4527 13.9827 6.9327 13.6127L13.1927 8.6527C13.4227 8.4727 13.6827 8.3827 13.9427 8.3827C14.2027 8.3827 14.4627 8.4927 14.6827 8.6527L20.9427 13.6127C21.4327 13.9827 20.8527 14.7427 20.2627 14.2827L14.1627 9.5027C14.1127 9.4427 14.0027 9.4227 13.9427 9.4227C13.8727 9.4227 13.7827 9.4427 13.7127 9.5027ZM9.0927 18.1527C8.3427 18.1527 7.8927 17.7327 7.8927 16.9527V15.0227C8.0627 14.9427 8.2327 14.8327 8.4527 14.6927L13.9427 10.3627L19.4327 14.6927C19.6627 14.8327 19.8127 14.9427 20.0027 15.0227V16.9527C20.0027 17.7327 19.5527 18.1527 18.8027 18.1527ZM6.4227 12.9627C5.8827 13.3527 5.8427 13.9027 6.0327 14.3727H3.7827C3.3227 14.3727 3.2027 13.8527 3.5027 13.6427L7.0927 11.1327C7.2727 11.0027 7.4827 10.9527 7.6927 10.9527H8.9927ZM21.4627 12.9627L18.8927 10.9527H20.1827C20.4127 10.9527 20.5927 11.0027 20.7827 11.1327L24.3727 13.6427C24.7027 13.8727 24.5527 14.3727 24.0927 14.3727H21.8427C22.0427 13.9027 22.0027 13.3527 21.4627 12.9627ZM12.4827 17.2427H15.3927V14.7927C15.3927 14.5727 15.2627 14.4127 15.0127 14.4127H12.8827C12.6427 14.4127 12.4827 14.5727 12.4827 14.7927ZM7.0527 16.9527C7.0527 17.4227 7.1627 17.8127 7.3827 18.1527H5.6227C4.8427 18.1527 4.3927 17.7327 4.3927 16.9527V15.1727L7.0527 15.1627ZM20.8327 16.9527V15.1627L23.5027 15.1727V16.9527C23.5027 17.7327 23.0527 18.1527 22.2727 18.1527H20.5127C20.7127 17.8127 20.8327 17.4227 20.8327 16.9527Z" /></svg>