
<svg
    viewBox="0 0 55.93556264890082 23.802734375"
    xmlns="http://www.w3.org/2000/svg"
>
    <path
        fill="inherit"
        d="M1.1339 14.6156H2.6239V20.8756C2.6239 22.7456 3.7239 23.8056 5.6239 23.8056H50.3239C52.2139 23.8056 53.3039 22.7456 53.3039 20.8756V14.6156H54.7939C55.9639 14.6156 56.2839 13.2856 55.5239 12.7556L46.7139 6.6156C46.2839 6.3156 45.7739 6.1656 45.1839 6.1656H36.6639L29.6939 0.6856C29.1339 0.2456 28.5639 -0.0044 27.9639 -0.0044C27.3739 -0.0044 26.7939 0.2456 26.2339 0.6856L19.2639 6.1656H10.7439C10.1539 6.1656 9.6539 6.3156 9.2139 6.6156L0.4239 12.7556C-0.3561 13.2856 -0.0261 14.6156 1.1339 14.6156ZM31.5239 15.5856C31.5239 15.0256 31.1539 14.6456 30.5939 14.6456H25.3439C24.8039 14.6456 24.4039 15.0256 24.4039 15.5856V21.6656H16.5139C15.6839 21.6656 15.2339 21.2156 15.2339 20.3556V12.1156L27.3539 2.6156C27.5239 2.4756 27.7539 2.3756 27.9639 2.3756C28.1739 2.3756 28.4139 2.4756 28.5839 2.6156L40.7039 12.1156V20.3556C40.7039 21.2156 40.2539 21.6656 39.4139 21.6656H31.5239ZM45.1839 8.0356C45.4039 8.0356 45.4739 8.0556 45.6239 8.1456L52.3039 12.7456H45.0339L39.0439 8.0356ZM3.6339 12.7456L10.3039 8.1456C10.4639 8.0556 10.5239 8.0356 10.7439 8.0356H16.8739L10.8839 12.7456ZM42.8339 20.8756V14.6156H51.1739V20.3556C51.1739 21.2156 50.7239 21.6656 49.8739 21.6656H42.7539C42.8039 21.4256 42.8339 21.1656 42.8339 20.8756ZM6.0539 21.6656C5.2139 21.6656 4.7739 21.2156 4.7739 20.3556V14.6156H13.0939V20.8756C13.0939 21.1656 13.1239 21.4256 13.1839 21.6656Z"
        fillRule="evenodd"
        clipRule="evenodd"
    />
</svg>
        