
<svg
    viewBox="0 0 30.529296875 29.17578125"
    xmlns="http://www.w3.org/2000/svg"
>
    <path
        fill="inherit"
        d="M1.8137 25.919H28.7137V25.009C28.7137 24.459 28.3937 24.129 27.8337 24.129H26.9637V9.379H28.1637C28.9137 9.379 29.3537 8.829 29.3537 8.269C29.3537 7.859 29.1237 7.509 28.6137 7.219L16.9437 0.479C16.3937 0.169 15.8137 -0.001 15.2537 -0.001C14.6937 -0.001 14.1137 0.169 13.5937 0.479L1.9137 7.219C1.3937 7.509 1.1737 7.859 1.1737 8.269C1.1737 8.829 1.6137 9.379 2.3637 9.379H3.5637V24.129H2.7037C2.1437 24.129 1.8137 24.459 1.8137 25.009ZM5.6337 24.129V7.629L14.7237 2.529C14.8937 2.429 15.0837 2.379 15.2537 2.379C15.4337 2.379 15.6237 2.429 15.8037 2.529L24.8937 7.629V24.129ZM10.3337 13.019C10.3337 13.289 10.5237 13.469 10.7737 13.469H19.7437C20.0137 13.469 20.2037 13.289 20.2037 13.019C20.2037 12.739 20.0137 12.549 19.7437 12.549H18.5537C18.9337 12.179 19.1637 11.679 19.1637 11.119C19.1637 9.069 17.1837 8.109 15.2037 8.109C14.0637 8.109 12.6637 8.419 11.7837 9.719C11.5937 10.009 11.5137 10.269 11.5137 10.599C11.5137 10.989 11.7737 11.269 12.1937 11.269C12.5537 11.269 12.7437 11.099 12.8937 10.799C13.3737 9.859 14.2637 9.459 15.2337 9.459C16.4337 9.459 17.6237 10.019 17.6237 11.209C17.6237 11.679 17.4137 12.249 16.8937 12.549H10.7737C10.5237 12.549 10.3337 12.739 10.3337 13.019ZM10.3337 15.229C10.3337 15.489 10.5237 15.679 10.7737 15.679H11.9537C11.4437 16.129 11.1437 16.749 11.1437 17.419C11.1437 19.469 13.2937 20.469 15.2737 20.469C16.8537 20.469 18.3237 19.889 19.0337 18.659C19.1937 18.389 19.3337 18.049 19.3337 17.769C19.3337 17.379 19.0337 17.119 18.6037 17.119C18.2537 17.119 18.0437 17.279 17.8837 17.609C17.4037 18.659 16.4437 19.109 15.2537 19.109C13.9637 19.109 12.7137 18.459 12.7137 17.339C12.7137 16.569 13.0837 16.019 13.7137 15.679H19.7437C20.0137 15.679 20.2037 15.489 20.2037 15.229C20.2037 14.959 20.0137 14.769 19.7437 14.769H10.7737C10.5237 14.769 10.3337 14.959 10.3337 15.229ZM1.0937 29.179H29.4237C30.0237 29.179 30.5337 28.669 30.5337 28.069C30.5337 27.469 30.0237 26.979 29.4237 26.979H1.0937C0.4937 26.979 0.0037 27.469 0.0037 28.069C0.0037 28.669 0.4937 29.179 1.0937 29.179Z"
        fillRule="evenodd"
        clipRule="evenodd"
    />
</svg>
        