
<svg
    viewBox={0 0 27.890625 27.890625}
    xmlns="http://www.w3.org/2000/svg"
>
    <path
        fill="inherit"
        d="M13.9427 27.8864C21.6427 27.8864 27.8927 21.6264 27.8927 13.9464C27.8927 6.2464 21.6427 -0.0036 13.9427 -0.0036C6.2627 -0.0036 0.0027 6.2464 0.0027 13.9464C0.0027 21.6264 6.2627 27.8864 13.9427 27.8864ZM13.8727 7.4764C15.9127 7.4764 17.9627 8.4464 17.9627 10.5664C17.9627 11.1464 17.7327 11.6664 17.3327 12.0564H18.5527C18.8427 12.0564 19.0427 12.2464 19.0427 12.5364C19.0427 12.8064 18.8427 13.0064 18.5527 13.0064H9.3127C9.0527 13.0064 8.8427 12.8064 8.8427 12.5364C8.8427 12.2464 9.0527 12.0564 9.3127 12.0564H15.6127C16.1627 11.7264 16.3627 11.1464 16.3627 10.6764C16.3627 9.4364 15.1327 8.8764 13.9027 8.8764C12.9027 8.8764 11.9927 9.2664 11.5027 10.2364C11.3327 10.5664 11.1427 10.7164 10.7727 10.7164C10.3327 10.7164 10.0627 10.4464 10.0627 10.0364C10.0627 9.6964 10.1427 9.4364 10.3527 9.1364C11.2527 7.7964 12.7027 7.4764 13.8727 7.4764ZM13.9427 20.2064C11.8927 20.2064 9.6827 19.1964 9.6827 17.0764C9.6827 16.3964 10.0127 15.7364 10.5227 15.2864H9.3127C9.0527 15.2864 8.8427 15.0964 8.8427 14.8164C8.8427 14.5364 9.0527 14.3464 9.3127 14.3464H18.5527C18.8427 14.3464 19.0427 14.5364 19.0427 14.8164C19.0427 15.0964 18.8427 15.2864 18.5527 15.2864H12.3427C11.7027 15.6364 11.3027 16.2164 11.3027 16.9964C11.3027 18.1464 12.5927 18.8164 13.9427 18.8164C15.1627 18.8164 16.1627 18.3564 16.6427 17.2664C16.8027 16.9264 17.0227 16.7464 17.3927 16.7464C17.8327 16.7464 18.1327 17.0264 18.1327 17.4464C18.1327 17.7364 17.9927 18.0864 17.8327 18.3464C17.0927 19.6364 15.6027 20.2064 13.9427 20.2064Z"
        fillRule="evenodd"
        clipRule="evenodd"
    />
</svg>
        