<svg viewBox="0 0 30.529296875 29.17578125" xmlns="http://www.w3.org/2000/svg"><path d="M1.0937 29.179H29.4237C30.0237 29.179 30.5337 28.669 30.5337 28.069C30.5337 27.469 30.0237 26.979 29.4237 26.979H28.7137V25.979C28.7137 25.429 28.3937 25.099 27.8337 25.099H26.9637V9.379H28.1637C28.9137 9.379 29.3537 8.829 29.3537 8.269C29.3537 7.859 29.1237 7.509 28.6137 7.219L16.9437 0.479C16.3937 0.169 15.8137 -0.001 15.2537 -0.001C14.6937 -0.001 14.1137 0.169 13.5937 0.479L1.9137 7.219C1.3937 7.509 1.1737 7.859 1.1737 8.269C1.1737 8.829 1.6137 9.379 2.3637 9.379H3.5637V25.099H2.7037C2.1437 25.099 1.8137 25.429 1.8137 25.979V26.979H1.0937C0.4937 26.979 0.0037 27.469 0.0037 28.069C0.0037 28.669 0.4937 29.179 1.0937 29.179ZM15.2037 9.149C17.2437 9.149 19.2937 10.119 19.2937 12.239C19.2937 12.809 19.0537 13.329 18.6637 13.729H19.8837C20.1637 13.729 20.3537 13.909 20.3537 14.209C20.3537 14.479 20.1637 14.669 19.8837 14.669H10.6337C10.3737 14.669 10.1737 14.479 10.1737 14.209C10.1737 13.909 10.3737 13.729 10.6337 13.729H16.9437C17.4837 13.399 17.6937 12.809 17.6937 12.349C17.6937 11.099 16.4637 10.539 15.2337 10.539C14.2337 10.539 13.3137 10.939 12.8237 11.909C12.6637 12.239 12.4737 12.389 12.1037 12.389C11.6637 12.389 11.3937 12.109 11.3937 11.699C11.3937 11.359 11.4737 11.089 11.6737 10.799C12.5737 9.449 14.0237 9.149 15.2037 9.149ZM15.2737 21.879C13.2237 21.879 11.0037 20.859 11.0037 18.729C11.0037 18.049 11.3337 17.409 11.8537 16.949H10.6337C10.3737 16.949 10.1737 16.759 10.1737 16.489C10.1737 16.189 10.3737 15.999 10.6337 15.999H19.8837C20.1637 15.999 20.3537 16.189 20.3537 16.489C20.3537 16.759 20.1637 16.949 19.8837 16.949H13.6737C13.0337 17.309 12.6337 17.879 12.6337 18.659C12.6337 19.809 13.9137 20.479 15.2537 20.479C16.4837 20.479 17.4737 20.029 17.9637 18.939C18.1337 18.589 18.3437 18.419 18.7137 18.419C19.1537 18.419 19.4537 18.689 19.4537 19.099C19.4537 19.399 19.3137 19.739 19.1537 20.019C18.4137 21.289 16.9137 21.879 15.2737 21.879Z" /></svg>