
<svg
    viewBox={0 0 25.169921875 25.169921875}
    xmlns="http://www.w3.org/2000/svg"
>
    <path
        fill="inherit"
        d="M4.2937 25.1692H20.8737C23.7437 25.1692 25.1737 23.7592 25.1737 20.9492V4.2392C25.1737 1.4192 23.7437 -0.0008 20.8737 -0.0008H4.2937C1.4337 -0.0008 0.0037 1.4192 0.0037 4.2392V20.9492C0.0037 23.7592 1.4337 25.1692 4.2937 25.1692ZM4.3237 22.9692C2.9537 22.9692 2.2037 22.2392 2.2037 20.8192V4.3592C2.2037 2.9392 2.9537 2.1992 4.3237 2.1992H20.8537C22.2037 2.1992 22.9737 2.9392 22.9737 4.3592V20.8192C22.9737 22.2392 22.2037 22.9692 20.8537 22.9692ZM7.6537 11.2092C7.6537 11.4692 7.8437 11.6592 8.0937 11.6592H17.0737C17.3337 11.6592 17.5237 11.4692 17.5237 11.2092C17.5237 10.9392 17.3337 10.7492 17.0737 10.7492H15.8837C16.2537 10.3592 16.5037 9.8692 16.5037 9.2992C16.5037 7.2492 14.5037 6.2992 12.5237 6.2992C11.3937 6.2992 9.9837 6.6192 9.1037 7.9192C8.9137 8.1992 8.8337 8.4592 8.8337 8.7892C8.8337 9.1892 9.0937 9.4492 9.5137 9.4492C9.8737 9.4492 10.0637 9.2992 10.2237 8.9792C10.6937 8.0392 11.5837 7.6592 12.5537 7.6592C13.7537 7.6592 14.9437 8.1992 14.9437 9.4092C14.9437 9.8592 14.7337 10.4292 14.2237 10.7492H8.0937C7.8437 10.7492 7.6537 10.9392 7.6537 11.2092ZM7.6537 13.4292C7.6537 13.6892 7.8437 13.8792 8.0937 13.8792H9.2737C8.7737 14.3292 8.4637 14.9392 8.4637 15.6092C8.4637 17.6592 10.6137 18.6592 12.5937 18.6592C14.1937 18.6592 15.6437 18.0892 16.3537 16.8392C16.5137 16.5792 16.6537 16.2392 16.6537 15.9692C16.6537 15.5592 16.3537 15.2992 15.9237 15.2992C15.5737 15.2992 15.3637 15.4592 15.2037 15.7892C14.7337 16.8592 13.7637 17.2992 12.5937 17.2992C11.2837 17.2992 10.0337 16.6492 10.0337 15.5292C10.0337 14.7692 10.4037 14.2192 11.0337 13.8792H17.0737C17.3337 13.8792 17.5237 13.6892 17.5237 13.4292C17.5237 13.1492 17.3337 12.9592 17.0737 12.9592H8.0937C7.8437 12.9592 7.6537 13.1492 7.6537 13.4292Z"
        fillRule="evenodd"
        clipRule="evenodd"
    />
</svg>
        