
<svg
    viewBox="0 0 27.890625 27.890625"
    xmlns="http://www.w3.org/2000/svg"
>
    <path
        fill="inherit"
        d="M13.9427 27.8864C21.6427 27.8864 27.8927 21.6464 27.8927 13.9464C27.8927 6.2464 21.6427 -0.0036 13.9427 -0.0036C6.2527 -0.0036 0.0027 6.2464 0.0027 13.9464C0.0027 21.6464 6.2527 27.8864 13.9427 27.8864ZM13.9427 25.5664C7.5227 25.5664 2.3227 20.3664 2.3227 13.9464C2.3227 7.5164 7.5227 2.3264 13.9427 2.3264C20.3727 2.3264 25.5627 7.5164 25.5627 13.9464C25.5627 20.3664 20.3727 25.5664 13.9427 25.5664ZM8.9927 12.5764C8.9927 12.8364 9.1827 13.0264 9.4327 13.0264H18.4027C18.6727 13.0264 18.8627 12.8364 18.8627 12.5764C18.8627 12.3064 18.6727 12.1164 18.4027 12.1164H17.2127C17.5927 11.7264 17.8327 11.2364 17.8327 10.6664C17.8327 8.6164 15.8427 7.6664 13.8627 7.6664C12.7327 7.6664 11.3227 7.9864 10.4427 9.2864C10.2527 9.5664 10.1727 9.8264 10.1727 10.1564C10.1727 10.5564 10.4327 10.8164 10.8527 10.8164C11.2127 10.8164 11.4027 10.6664 11.5527 10.3464C12.0327 9.4064 12.9227 9.0264 13.8927 9.0264C15.0927 9.0264 16.2827 9.5664 16.2827 10.7764C16.2827 11.2264 16.0827 11.7964 15.5627 12.1164H9.4327C9.1827 12.1164 8.9927 12.3064 8.9927 12.5764ZM8.9927 14.7964C8.9927 15.0564 9.1827 15.2464 9.4327 15.2464H10.6127C10.1027 15.6964 9.8027 16.3064 9.8027 16.9764C9.8027 19.0264 11.9527 20.0264 13.9327 20.0264C15.5327 20.0264 16.9827 19.4564 17.6927 18.2064C17.8527 17.9464 17.9927 17.6064 17.9927 17.3364C17.9927 16.9264 17.6927 16.6664 17.2627 16.6664C16.9127 16.6664 16.7027 16.8264 16.5427 17.1564C16.0827 18.2264 15.1027 18.6664 13.9327 18.6664C12.6227 18.6664 11.3727 18.0164 11.3727 16.8964C11.3727 16.1364 11.7427 15.5864 12.3727 15.2464H18.4027C18.6727 15.2464 18.8627 15.0564 18.8627 14.7964C18.8627 14.5164 18.6727 14.3264 18.4027 14.3264H9.4327C9.1827 14.3264 8.9927 14.5164 8.9927 14.7964Z"
        fillRule="evenodd"
        clipRule="evenodd"
    />
</svg>
        