
<svg
    viewBox={0 0 32.935546875 27.33018496744969}
    xmlns="http://www.w3.org/2000/svg"
>
    <path
        fill="inherit"
        d="M16.4627 5.864C18.9327 5.864 21.2027 6.724 23.0227 8.134C23.2927 8.354 23.6527 8.324 23.9127 8.064L27.0827 4.894C27.4027 4.584 27.3827 4.124 27.0527 3.854C24.2027 1.454 20.4927 0.004 16.4627 0.004C12.4427 0.004 8.7327 1.454 5.8827 3.854C5.5527 4.124 5.5327 4.584 5.8527 4.894L9.0227 8.064C9.2827 8.324 9.6527 8.354 9.9527 8.124C11.7627 6.724 14.0127 5.864 16.4627 5.864ZM0.0027 16.464C0.0027 20.494 1.4527 24.204 3.8727 27.074C4.1427 27.414 4.6027 27.414 4.9127 27.094L8.1627 23.844C8.3627 23.624 8.3927 23.324 8.2027 23.094C6.7127 21.194 5.8627 18.924 5.8627 16.464C5.8627 14.014 6.7027 11.744 8.1227 9.944C8.3427 9.654 8.3427 9.284 8.0827 9.024L4.9127 5.854C4.5927 5.534 4.1427 5.534 3.8727 5.864C1.4527 8.734 0.0027 12.444 0.0027 16.464ZM32.9327 16.464C32.9327 12.444 31.4827 8.734 29.0627 5.864C28.7927 5.534 28.3327 5.534 28.0227 5.854L24.8527 9.024C24.5927 9.284 24.5827 9.654 24.8127 9.944C26.2227 11.744 27.0727 14.014 27.0727 16.464C27.0727 18.924 26.2227 21.194 24.7327 23.094C24.5427 23.324 24.5527 23.624 24.7627 23.844L28.0127 27.094C28.3327 27.414 28.7827 27.414 29.0627 27.074C31.4827 24.204 32.9327 20.494 32.9327 16.464ZM11.5127 15.274C11.5127 15.544 11.7027 15.724 11.9627 15.724H20.9327C21.1927 15.724 21.3827 15.544 21.3827 15.274C21.3827 14.994 21.1927 14.804 20.9327 14.804H19.7427C20.1127 14.434 20.3527 13.934 20.3527 13.374C20.3527 11.324 18.3627 10.364 16.3827 10.364C15.2627 10.364 13.8327 10.674 12.9627 11.974C12.7727 12.264 12.6827 12.524 12.6827 12.854C12.6827 13.244 12.9427 13.524 13.3827 13.524C13.7227 13.524 13.9227 13.354 14.0827 13.054C14.5427 12.114 15.4327 11.714 16.4227 11.714C17.6127 11.714 18.8027 12.274 18.8027 13.464C18.8027 13.934 18.5927 14.504 18.0727 14.804H11.9627C11.7027 14.804 11.5127 14.994 11.5127 15.274ZM11.5127 17.484C11.5127 17.744 11.7027 17.934 11.9627 17.934H13.1427C12.6327 18.384 12.3227 19.004 12.3227 19.674C12.3227 21.724 14.4627 22.724 16.4427 22.724C18.0427 22.724 19.4927 22.144 20.2227 20.914C20.3727 20.644 20.5127 20.304 20.5127 20.034C20.5127 19.634 20.2027 19.374 19.7827 19.374C19.4327 19.374 19.2227 19.534 19.0727 19.864C18.5927 20.914 17.6227 21.374 16.4427 21.374C15.1327 21.374 13.8927 20.714 13.8927 19.594C13.8927 18.824 14.2627 18.284 14.8927 17.934H20.9327C21.1927 17.934 21.3827 17.744 21.3827 17.484C21.3827 17.214 21.1927 17.024 20.9327 17.024H11.9627C11.7027 17.024 11.5127 17.214 11.5127 17.484Z"
        fillRule="evenodd"
        clipRule="evenodd"
    />
</svg>
        