
<svg
    viewBox={0 0 32.935546875 27.26189615322232}
    xmlns="http://www.w3.org/2000/svg"
>
    <path
        fill="inherit"
        d="M32.9327 16.3992C32.9327 7.7792 26.3227 0.7192 17.8927 -0.0008C17.4627 -0.0408 17.1327 0.2792 17.1327 0.7192V5.1892C17.1327 5.5592 17.3927 5.8392 17.7627 5.8692C22.9927 6.5092 27.0727 10.9792 27.0727 16.3992C27.0727 18.8592 26.2227 21.1292 24.7327 23.0292C24.5427 23.2592 24.5527 23.5592 24.7627 23.7792L28.0227 27.0292C28.3327 27.3292 28.7927 27.3292 29.0627 27.0092C31.4827 24.1392 32.9327 20.4292 32.9327 16.3992ZM0.0027 16.3992C0.0027 20.4392 1.4527 24.1492 3.8727 27.0192C4.1427 27.3492 4.5927 27.3292 4.9127 27.0292L8.1727 23.7792C8.3827 23.5592 8.3927 23.2592 8.2027 23.0292C6.7027 21.1292 5.8627 18.8592 5.8627 16.3992C5.8627 10.9792 9.9427 6.5092 15.1727 5.8692C15.5427 5.8392 15.8027 5.5592 15.8027 5.1892V0.7192C15.8027 0.2792 15.4727 -0.0408 15.0427 -0.0008C6.6127 0.7192 0.0027 7.7792 0.0027 16.3992ZM11.5127 15.2092C11.5127 15.4792 11.7027 15.6592 11.9627 15.6592H20.9327C21.1927 15.6592 21.3827 15.4792 21.3827 15.2092C21.3827 14.9292 21.1927 14.7392 20.9327 14.7392H19.7427C20.1127 14.3692 20.3527 13.8692 20.3527 13.3092C20.3527 11.2592 18.3627 10.2992 16.3827 10.2992C15.2627 10.2992 13.8327 10.6092 12.9627 11.9092C12.7727 12.1992 12.6827 12.4592 12.6827 12.7892C12.6827 13.1792 12.9427 13.4592 13.3827 13.4592C13.7227 13.4592 13.9227 13.2892 14.0827 12.9892C14.5427 12.0492 15.4327 11.6492 16.4227 11.6492C17.6127 11.6492 18.8027 12.2092 18.8027 13.3992C18.8027 13.8692 18.5927 14.4392 18.0727 14.7392H11.9627C11.7027 14.7392 11.5127 14.9292 11.5127 15.2092ZM11.5127 17.4192C11.5127 17.6792 11.7027 17.8692 11.9627 17.8692H13.1427C12.6327 18.3192 12.3227 18.9392 12.3227 19.6092C12.3227 21.6592 14.4627 22.6592 16.4427 22.6592C18.0427 22.6592 19.4927 22.0792 20.2227 20.8492C20.3727 20.5792 20.5127 20.2392 20.5127 19.9692C20.5127 19.5692 20.2027 19.3092 19.7827 19.3092C19.4327 19.3092 19.2227 19.4692 19.0727 19.7992C18.5927 20.8492 17.6227 21.3092 16.4427 21.3092C15.1327 21.3092 13.8927 20.6492 13.8927 19.5292C13.8927 18.7592 14.2627 18.2192 14.8927 17.8692H20.9327C21.1927 17.8692 21.3827 17.6792 21.3827 17.4192C21.3827 17.1492 21.1927 16.9592 20.9327 16.9592H11.9627C11.7027 16.9592 11.5127 17.1492 11.5127 17.4192Z"
        fillRule="evenodd"
        clipRule="evenodd"
    />
</svg>
        