<svg viewBox="0 0 25.169921875 25.169921875" xmlns="http://www.w3.org/2000/svg"><path d="M4.2937 25.1692H20.8737C23.7437 25.1692 25.1737 23.7592 25.1737 20.9492V4.2392C25.1737 1.4192 23.7437 -0.0008 20.8737 -0.0008H4.2937C1.4337 -0.0008 0.0037 1.4192 0.0037 4.2392V20.9492C0.0037 23.7592 1.4337 25.1692 4.2937 25.1692ZM12.5237 6.1092C14.5637 6.1092 16.6237 7.0792 16.6237 9.1992C16.6237 9.7792 16.3837 10.2992 15.9837 10.6892H17.2137C17.4837 10.6892 17.6937 10.8792 17.6937 11.1692C17.6937 11.4392 17.4837 11.6392 17.2137 11.6392H7.9537C7.6937 11.6392 7.4937 11.4392 7.4937 11.1692C7.4937 10.8792 7.6937 10.6892 7.9537 10.6892H14.2637C14.8037 10.3592 15.0137 9.7792 15.0137 9.3092C15.0137 8.0692 13.7837 7.5092 12.5537 7.5092C11.5537 7.5092 10.6337 7.8992 10.1537 8.8692C9.9837 9.1992 9.7937 9.3492 9.4237 9.3492C8.9837 9.3492 8.7137 9.0792 8.7137 8.6692C8.7137 8.3292 8.7937 8.0692 8.9937 7.7692C9.8937 6.4292 11.3437 6.1092 12.5237 6.1092ZM12.5937 18.8392C10.5437 18.8392 8.3237 17.8292 8.3237 15.7092C8.3237 15.0292 8.6537 14.3692 9.1737 13.9192H7.9537C7.6937 13.9192 7.4937 13.7292 7.4937 13.4492C7.4937 13.1692 7.6937 12.9792 7.9537 12.9792H17.2137C17.4837 12.9792 17.6937 13.1692 17.6937 13.4492C17.6937 13.7292 17.4837 13.9192 17.2137 13.9192H10.9937C10.3537 14.2692 9.9537 14.8492 9.9537 15.6292C9.9537 16.7792 11.2337 17.4492 12.5937 17.4492C13.8037 17.4492 14.8037 16.9892 15.2837 15.8992C15.4537 15.5592 15.6637 15.3792 16.0337 15.3792C16.4737 15.3792 16.7737 15.6592 16.7737 16.0792C16.7737 16.3692 16.6437 16.7192 16.4737 16.9792C15.7337 18.2692 14.2437 18.8392 12.5937 18.8392Z" /></svg>