
<svg
    viewBox="0 0 30.544813437289534 27.890625"
    xmlns="http://www.w3.org/2000/svg"
>
    <path
        fill="inherit"
        d="M0.9769 11.3064C-0.0131 11.3064 -0.2531 11.9764 0.2769 12.7464L3.3369 17.0864C3.7869 17.7164 4.4469 17.7064 4.8869 17.0864L7.9269 12.7264C8.4669 11.9764 8.2069 11.3064 7.2469 11.3064H5.2769C6.4669 6.1564 11.0769 2.3264 16.5969 2.3264C23.0269 2.3264 28.2169 7.5164 28.2169 13.9464C28.2169 20.3664 23.0269 25.5664 16.5969 25.5664C12.7169 25.5664 9.2569 23.6564 7.1969 20.7564C6.7669 20.1964 6.1269 20.0164 5.5569 20.3564C5.0069 20.6964 4.8369 21.4664 5.3069 22.0664C7.8369 25.6064 11.9769 27.8864 16.5969 27.8864C24.2969 27.8864 30.5469 21.6464 30.5469 13.9464C30.5469 6.2464 24.2969 -0.0036 16.5969 -0.0036C9.8069 -0.0036 4.1269 4.8664 2.8969 11.3064ZM11.6669 12.5764C11.6669 12.8364 11.8569 13.0264 12.0969 13.0264H21.0669C21.3469 13.0264 21.5369 12.8364 21.5369 12.5764C21.5369 12.3064 21.3469 12.1164 21.0669 12.1164H19.8769C20.2669 11.7264 20.4969 11.2364 20.4969 10.6664C20.4969 8.6164 18.5169 7.6664 16.5269 7.6664C15.3969 7.6664 13.9869 7.9864 13.1169 9.2864C12.9169 9.5664 12.8369 9.8264 12.8369 10.1564C12.8369 10.5564 13.0969 10.8164 13.5269 10.8164C13.8769 10.8164 14.0669 10.6664 14.2169 10.3464C14.6969 9.4064 15.5869 9.0264 16.5569 9.0264C17.7569 9.0264 18.9469 9.5664 18.9469 10.7764C18.9469 11.2264 18.7469 11.7964 18.2269 12.1164H12.0969C11.8569 12.1164 11.6669 12.3064 11.6669 12.5764ZM11.6669 14.7964C11.6669 15.0564 11.8569 15.2464 12.0969 15.2464H13.2769C12.7669 15.6964 12.4669 16.3064 12.4669 16.9764C12.4669 19.0264 14.6169 20.0264 16.5969 20.0264C18.1969 20.0264 19.6469 19.4564 20.3569 18.2064C20.5269 17.9464 20.6569 17.6064 20.6569 17.3364C20.6569 16.9264 20.3569 16.6664 19.9369 16.6664C19.5769 16.6664 19.3769 16.8264 19.2069 17.1564C18.7469 18.2264 17.7769 18.6664 16.5969 18.6664C15.2869 18.6664 14.0469 18.0164 14.0469 16.8964C14.0469 16.1364 14.4169 15.5864 15.0369 15.2464H21.0669C21.3469 15.2464 21.5369 15.0564 21.5369 14.7964C21.5369 14.5164 21.3469 14.3264 21.0669 14.3264H12.0969C11.8569 14.3264 11.6669 14.5164 11.6669 14.7964Z"
        fillRule="evenodd"
        clipRule="evenodd"
    />
</svg>
        