
<svg
    viewBox={0 0 19.373046875 24.74609375}
    xmlns="http://www.w3.org/2000/svg"
>
    <path
        fill="inherit"
        d="M9.5737 -0.0022C6.7237 -0.0022 4.1037 1.1378 2.7937 3.4278C2.4737 3.9078 2.2537 4.4678 2.2537 5.0178C2.2537 5.6278 2.6437 6.1978 3.4637 6.1978C4.0637 6.1978 4.4137 5.8378 4.6937 5.2878C5.5337 3.3078 7.5237 2.3878 9.6437 2.3878C12.2237 2.3878 14.7637 3.5178 14.7637 6.1378C14.7637 7.1378 14.2837 8.2278 13.3037 8.8778H0.8637C0.3537 8.8778 0.0037 9.2578 0.0037 9.7778C0.0037 10.2778 0.3537 10.6678 0.8637 10.6678H18.4937C19.0137 10.6678 19.3737 10.2778 19.3737 9.7778C19.3737 9.2578 19.0137 8.8778 18.4937 8.8778H16.0937C16.8837 8.0978 17.3637 7.0678 17.3637 5.9578C17.3637 1.8878 13.4237 -0.0022 9.5737 -0.0022ZM9.7037 24.7478C12.9837 24.7478 15.8437 23.4978 17.2137 20.9278C17.4837 20.5078 17.7637 19.9178 17.7637 19.3078C17.7637 18.5978 17.2837 18.1578 16.5337 18.1578C15.8337 18.1578 15.5037 18.5478 15.2737 19.0478C14.3137 21.4078 12.2337 22.3778 9.6437 22.3778C6.5337 22.3778 4.1837 20.8678 4.1837 18.6078C4.1837 17.0578 5.0337 15.8878 6.3137 15.1578H18.4937C19.0137 15.1578 19.3737 14.7978 19.3737 14.2778C19.3737 13.7378 19.0137 13.3678 18.4937 13.3678H0.8637C0.3537 13.3678 0.0037 13.7378 0.0037 14.2778C0.0037 14.7978 0.3537 15.1578 0.8637 15.1578H3.3237C2.2237 16.0078 1.5537 17.2778 1.5537 18.7078C1.5537 22.6778 5.5737 24.7478 9.7037 24.7478Z"
        fillRule="evenodd"
        clipRule="evenodd"
    />
</svg>
        