
<svg
    viewBox={0 0 29.406201880767068 23.884765625}
    xmlns="http://www.w3.org/2000/svg"
>
    <path
        fill="inherit"
        d="M5.5517 7.357C11.6317 7.357 14.9317 2.197 20.6517 2.197C21.9917 2.197 23.1817 2.497 24.5817 3.297C25.1717 3.627 25.7117 3.407 26.0017 2.997C26.3417 2.497 26.3017 1.767 25.5417 1.317C23.9917 0.427 22.4017 -0.003 20.6517 -0.003C14.4517 -0.003 11.1817 5.157 5.5517 5.157C4.1917 5.157 3.0017 4.857 1.6117 4.057C1.0217 3.737 0.4717 3.947 0.1917 4.377C-0.1283 4.867 -0.0983 5.607 0.6517 6.047C2.2017 6.927 3.7817 7.357 5.5517 7.357ZM23.5017 23.887C26.7817 23.887 29.4017 21.327 29.4017 18.117C29.4017 16.337 28.5217 14.587 27.7417 13.137L24.6317 7.357C24.3717 6.867 23.9917 6.647 23.5017 6.647C22.9917 6.647 22.6117 6.867 22.3517 7.357L19.2617 13.137C18.4817 14.587 17.6117 16.337 17.6117 18.117C17.6117 21.327 20.2217 23.887 23.5017 23.887ZM5.5617 14.697C10.9717 14.697 14.2017 10.557 18.9517 9.737C19.3717 8.927 19.8117 8.147 20.2317 7.337C14.1617 7.627 11.0817 12.497 5.5617 12.497C4.2117 12.497 3.0217 12.177 1.6217 11.387C1.0517 11.057 0.4917 11.277 0.2217 11.707C-0.1083 12.197 -0.0883 12.937 0.6717 13.367C2.2117 14.257 3.8117 14.697 5.5617 14.697ZM5.5517 22.027C9.6817 22.027 12.5517 19.587 15.7917 18.097C15.7217 17.497 15.8817 16.417 16.1317 15.617C12.4917 17.077 9.6517 19.827 5.5517 19.827C4.1917 19.827 3.0017 19.527 1.6117 18.717C1.0217 18.387 0.4717 18.607 0.1917 19.027C-0.1283 19.527 -0.0983 20.277 0.6517 20.697C2.2017 21.597 3.7817 22.027 5.5517 22.027Z"
        fillRule="evenodd"
        clipRule="evenodd"
    />
</svg>
        