
<svg
    viewBox={0 0 22.0390625 31.458984375}
    xmlns="http://www.w3.org/2000/svg"
>
    <path
        fill="inherit"
        d="M11.0737 1.9574C11.6037 1.9574 12.0437 1.5174 12.0437 0.9874C12.0437 0.4374 11.6037 -0.0026 11.0737 -0.0026C10.5437 -0.0026 10.1037 0.4374 10.1037 0.9874C10.1037 1.5174 10.5437 1.9574 11.0737 1.9574ZM3.5637 3.3374C4.1037 3.3374 4.5437 2.8974 4.5437 2.3674C4.5437 1.8274 4.1037 1.3974 3.5637 1.3974C3.0337 1.3974 2.5937 1.8274 2.5937 2.3674C2.5937 2.8974 3.0337 3.3374 3.5637 3.3374ZM18.5837 3.3374C19.1137 3.3374 19.5537 2.8974 19.5537 2.3674C19.5537 1.8274 19.1137 1.3974 18.5837 1.3974C18.0437 1.3974 17.6137 1.8274 17.6137 2.3674C17.6137 2.8974 18.0437 3.3374 18.5837 3.3374ZM11.0737 6.0274C11.6037 6.0274 12.0437 5.5874 12.0437 5.0574C12.0437 4.5274 11.6037 4.0874 11.0737 4.0874C10.5437 4.0874 10.1037 4.5274 10.1037 5.0574C10.1037 5.5874 10.5437 6.0274 11.0737 6.0274ZM6.0837 6.5374C6.6137 6.5374 7.0537 6.0974 7.0537 5.5674C7.0537 5.0274 6.6137 4.5974 6.0837 4.5974C5.5337 4.5974 5.1037 5.0274 5.1037 5.5674C5.1037 6.0974 5.5337 6.5374 6.0837 6.5374ZM16.0737 6.5374C16.6137 6.5374 17.0537 6.0974 17.0537 5.5674C17.0537 5.0274 16.6137 4.5974 16.0737 4.5974C15.5337 4.5974 15.1037 5.0274 15.1037 5.5674C15.1037 6.0974 15.5337 6.5374 16.0737 6.5374ZM4.1337 13.9974H17.9137C17.0237 12.6774 16.0637 11.3474 15.0537 9.9974C14.3137 9.0274 13.8337 8.4774 12.4937 8.4774H9.5437C8.2137 8.4774 7.7337 9.0274 6.9837 9.9974C5.9737 11.3474 5.0137 12.6774 4.1337 13.9974ZM0.0937 22.5274H8.0537C8.4737 21.2974 9.6237 20.4374 11.0337 20.4374C12.4137 20.4374 13.5637 21.2974 14.0037 22.5274H21.9437C21.6337 20.6574 20.6737 18.4674 19.3037 16.1574H2.7437C1.3637 18.4674 0.4137 20.6574 0.0937 22.5274ZM11.0337 24.9274C11.7837 24.9274 12.3437 24.3674 12.3437 23.5974C12.3437 22.8474 11.7837 22.2874 11.0337 22.2874C10.2537 22.2874 9.7037 22.8474 9.7037 23.5974C9.7037 24.3674 10.2537 24.9274 11.0337 24.9274ZM8.0537 31.4574H13.9837C19.0037 31.4574 21.7137 28.9574 22.0437 24.6874H13.9837C13.5537 25.9074 12.4037 26.7674 11.0337 26.7674C9.6237 26.7674 8.4937 25.9074 8.0637 24.6874H0.0037C0.3237 28.9574 3.0337 31.4574 8.0537 31.4574Z"
        fillRule="evenodd"
        clipRule="evenodd"
    />
</svg>
        