
<svg
    viewBox="0 0 25.142578125 26.591796875"
    xmlns="http://www.w3.org/2000/svg"
>
    <path
        fill="inherit"
        d="M4.6437 6.4138H20.4837C19.4837 4.8838 18.3437 3.3038 17.1737 1.7238C16.2937 0.5738 15.7737 0.0038 14.3037 0.0038H10.8437C9.3637 0.0038 8.8437 0.5738 7.9737 1.7238C6.7837 3.3038 5.6637 4.8838 4.6437 6.4138ZM12.5737 14.0238C14.2237 14.0238 15.5737 15.0638 16.0537 16.5538H25.0837C24.7737 14.2638 23.6137 11.5638 21.9337 8.6938H3.2037C1.5337 11.5638 0.3737 14.2638 0.0437 16.5538H9.0937C9.5737 15.0638 10.9337 14.0238 12.5737 14.0238ZM12.5737 19.3338C13.5037 19.3338 14.2237 18.6238 14.2237 17.6738C14.2237 16.7638 13.5037 16.0238 12.5737 16.0238C11.6437 16.0238 10.9237 16.7638 10.9237 17.6738C10.9237 18.6238 11.6437 19.3338 12.5737 19.3338ZM9.2537 26.5938H15.8737C21.6437 26.5938 24.7637 23.7338 25.1437 18.8438H16.0537C15.5837 20.2938 14.2337 21.3238 12.5737 21.3238C10.9337 21.3238 9.5537 20.2938 9.0937 18.8438H0.0037C0.3737 23.7338 3.4837 26.5938 9.2537 26.5938Z"
        fillRule="evenodd"
        clipRule="evenodd"
    />
</svg>
        