
<svg
    viewBox={0 0 17.41796875 28.51953125}
    xmlns="http://www.w3.org/2000/svg"
>
    <path
        fill="inherit"
        d="M0.0027 27.4809C0.0027 28.0509 0.4527 28.5209 1.0527 28.5209C9.2527 28.5209 15.6827 22.9409 15.6827 14.2609C15.6827 10.4309 12.5227 7.2709 8.7127 7.2709C7.3127 7.2709 6.0127 7.7409 4.9927 8.5209C6.9827 4.4709 11.2527 2.0609 16.3627 2.0609C16.9627 2.0609 17.4227 1.6009 17.4227 1.0209C17.4227 0.4509 16.9627 0.0009 16.3627 0.0009C8.1627 0.0009 1.7527 5.5609 1.7527 14.2609C1.7527 18.0709 4.9127 21.2309 8.7127 21.2309C10.1127 21.2309 11.4027 20.7709 12.4327 20.0009C10.4327 24.0509 6.1527 26.4509 1.0527 26.4509C0.4527 26.4509 0.0027 26.9109 0.0027 27.4809ZM6.7227 14.2609C6.7227 13.1709 7.6327 12.2809 8.7127 12.2809C9.8027 12.2809 10.6927 13.1709 10.6927 14.2609C10.6927 15.3309 9.8027 16.2409 8.7127 16.2409C7.6327 16.2409 6.7227 15.3409 6.7227 14.2609Z"
        fillRule="evenodd"
        clipRule="evenodd"
    />
</svg>
        