
<svg
    viewBox={0 0 27.890625 27.890625}
    xmlns="http://www.w3.org/2000/svg"
>
    <path
        fill="inherit"
        d="M13.9427 27.8864C21.6427 27.8864 27.8927 21.6464 27.8927 13.9464C27.8927 6.2464 21.6427 -0.0036 13.9427 -0.0036C6.2527 -0.0036 0.0027 6.2464 0.0027 13.9464C0.0027 21.6464 6.2527 27.8864 13.9427 27.8864ZM13.9427 25.5664C7.5227 25.5664 2.3227 20.3664 2.3227 13.9464C2.3227 7.5164 7.5227 2.3264 13.9427 2.3264C20.3727 2.3264 25.5627 7.5164 25.5627 13.9464C25.5627 20.3664 20.3727 25.5664 13.9427 25.5664ZM13.9227 20.2064C14.6327 20.2064 15.0227 19.7264 15.0227 18.9764V8.6564C15.0227 7.9064 14.6327 7.4264 13.9227 7.4264C13.2027 7.4264 12.8427 7.9264 12.8427 8.6564V18.9764C12.8427 19.6964 13.2027 20.2064 13.9227 20.2064Z"
        fillRule="evenodd"
        clipRule="evenodd"
    />
</svg>
        