
<svg
    viewBox={0 0 27.890625 27.890625}
    xmlns="http://www.w3.org/2000/svg"
>
    <path
        fill="inherit"
        d="M13.9427 27.8864C21.6427 27.8864 27.8927 21.6464 27.8927 13.9464C27.8927 6.2464 21.6427 -0.0036 13.9427 -0.0036C6.2527 -0.0036 0.0027 6.2464 0.0027 13.9464C0.0027 21.6464 6.2527 27.8864 13.9427 27.8864ZM13.9427 25.5664C7.5227 25.5664 2.3227 20.3664 2.3227 13.9464C2.3227 7.5164 7.5227 2.3264 13.9427 2.3264C20.3727 2.3264 25.5627 7.5164 25.5627 13.9464C25.5627 20.3664 20.3727 25.5664 13.9427 25.5664ZM9.0527 18.9664H19.4427C21.0727 18.9664 22.3427 17.6664 22.3427 16.0764C22.3427 14.7064 21.4227 13.5764 20.2027 13.2764C20.2227 13.1364 20.2227 13.0064 20.2227 12.8764C20.2227 10.1064 18.0227 7.8464 15.1727 7.8464C13.5127 7.8464 12.0327 8.6364 11.1127 9.8964C10.9327 9.8564 10.7327 9.8264 10.5727 9.8264C9.1627 9.8264 7.9727 10.8564 7.7627 12.2664C6.4927 12.7664 5.5527 14.0164 5.5527 15.5064C5.5527 17.7564 7.0727 18.9664 9.0527 18.9664Z"
        fillRule="evenodd"
        clipRule="evenodd"
    />
</svg>
        