<svg viewBox="0 0 27.890625 27.890625" xmlns="http://www.w3.org/2000/svg"><path d="M13.9427 27.8927C21.6427 27.8927 27.8927 21.6427 27.8927 13.9427C27.8927 6.2627 21.6427 0.0027 13.9427 0.0027C6.2627 0.0027 0.0027 6.2627 0.0027 13.9427C0.0027 21.6427 6.2627 27.8927 13.9427 27.8927ZM8.9127 19.1427C6.8627 19.1427 5.3027 17.9127 5.3027 15.5827C5.3027 14.0227 6.2727 12.7727 7.5927 12.2227C7.7927 10.7827 9.0227 9.7327 10.4827 9.7327C10.6527 9.7327 10.8527 9.7527 11.0427 9.7927C11.9927 8.5027 13.5127 7.6727 15.2327 7.6727C18.1527 7.6727 20.4227 10.0127 20.4227 12.8627C20.4227 12.9927 20.4227 13.1427 20.4127 13.2927C21.6727 13.5927 22.6127 14.7527 22.6127 16.1627C22.6127 17.8127 21.3027 19.1427 19.6227 19.1427Z" /></svg>