
<svg
    viewBox={0 0 34.37109375 29.44921875}
    xmlns="http://www.w3.org/2000/svg"
>
    <path
        fill="inherit"
        d="M20.8227 20.2488V22.4488H27.6627C31.8527 22.4488 34.3727 19.9188 34.3727 16.6088C34.3727 13.8488 32.7127 11.5788 30.0527 10.4988C30.0827 4.3988 25.6927 -0.0012 20.0927 -0.0012C16.3927 -0.0012 13.7527 1.9788 12.1127 4.3788C9.0127 3.5388 5.0827 5.9488 5.0127 9.7888C1.9327 10.2688 0.0027 12.7988 0.0027 16.0188C0.0027 19.5788 2.6627 22.4488 7.1527 22.4488H13.6727V20.2488H7.1327C3.8927 20.2488 2.2027 18.3788 2.2027 16.0188C2.2027 13.4088 3.8527 11.4688 6.7527 11.4688C6.9427 11.4688 7.0127 11.3588 7.0127 11.1788C7.0127 6.9888 10.0327 5.8288 12.8527 6.6488C13.0127 6.6988 13.1127 6.6688 13.1927 6.5188C14.5227 4.1588 16.5527 2.1988 20.0927 2.1988C24.5827 2.1988 27.6827 5.7588 27.9227 9.8288C27.9627 10.4488 27.9227 11.1788 27.8627 11.8288C27.8527 12.0088 27.9227 12.1088 28.0827 12.1388C30.5727 12.6888 32.1727 14.2488 32.1727 16.6088C32.1727 18.7188 30.6427 20.2488 27.6427 20.2488ZM17.2527 29.4488C17.8427 29.4488 18.3327 28.9688 18.3327 28.3988V15.0788L18.2527 13.0388L19.0127 13.8488L21.1227 16.1088C21.3327 16.3288 21.6027 16.4288 21.8727 16.4288C22.4327 16.4288 22.8727 16.0188 22.8727 15.4788C22.8727 15.1788 22.7527 14.9588 22.5427 14.7488L18.0327 10.4088C17.7627 10.1288 17.5227 10.0488 17.2527 10.0488C16.9627 10.0488 16.7327 10.1288 16.4627 10.4088L11.9527 14.7488C11.7427 14.9588 11.6227 15.1788 11.6227 15.4788C11.6227 16.0188 12.0327 16.4288 12.6027 16.4288C12.8827 16.4288 13.1627 16.3288 13.3527 16.1088L15.4727 13.8488L16.2427 13.0388L16.1627 15.0788V28.3988C16.1627 28.9688 16.6627 29.4488 17.2527 29.4488Z"
        fillRule="evenodd"
        clipRule="evenodd"
    />
</svg>
        