
<svg
    viewBox="0 0 25.169921875 25.169921875"
    xmlns="http://www.w3.org/2000/svg"
>
    <path
        fill="inherit"
        d="M4.2937 25.1692H20.8737C23.7437 25.1692 25.1737 23.7592 25.1737 20.9492V4.2392C25.1737 1.4192 23.7437 -0.0008 20.8737 -0.0008H4.2937C1.4337 -0.0008 0.0037 1.4192 0.0037 4.2392V20.9492C0.0037 23.7592 1.4337 25.1692 4.2937 25.1692ZM4.3237 22.9692C2.9537 22.9692 2.2037 22.2392 2.2037 20.8192V4.3592C2.2037 2.9392 2.9537 2.1992 4.3237 2.1992H20.8537C22.2037 2.1992 22.9737 2.9392 22.9737 4.3592V20.8192C22.9737 22.2392 22.2037 22.9692 20.8537 22.9692ZM7.7137 17.5992H18.1037C19.7237 17.5992 21.0037 16.2992 21.0037 14.7092C21.0037 13.3392 20.0837 12.2092 18.8637 11.9092C18.8837 11.7692 18.8937 11.6392 18.8937 11.5092C18.8937 8.7392 16.6837 6.4792 13.8337 6.4792C12.1637 6.4792 10.6937 7.2692 9.7737 8.5292C9.5937 8.4892 9.3937 8.4592 9.2237 8.4592C7.8237 8.4592 6.6337 9.4892 6.4237 10.8992C5.1537 11.3992 4.2137 12.6492 4.2137 14.1392C4.2137 16.3892 5.7237 17.5992 7.7137 17.5992Z"
        fillRule="evenodd"
        clipRule="evenodd"
    />
</svg>
        