
<svg
    viewBox={0 0 34.37109375 29.44921875}
    xmlns="http://www.w3.org/2000/svg"
>
    <path
        fill="inherit"
        d="M0.0027 16.0188C0.0027 19.5788 2.6627 22.4488 7.1527 22.4488H16.1627V28.3988C16.1627 28.9688 16.6627 29.4488 17.2527 29.4488C17.8427 29.4488 18.3327 28.9688 18.3327 28.3988V22.4488H16.1627V15.0788L16.2427 13.0388L15.4727 13.8488L13.3527 16.1088C13.1627 16.3288 12.8827 16.4288 12.6027 16.4288C12.0327 16.4288 11.6227 16.0188 11.6227 15.4788C11.6227 15.1788 11.7427 14.9588 11.9527 14.7488L16.4627 10.4088C16.7327 10.1288 16.9627 10.0488 17.2527 10.0488C17.5227 10.0488 17.7627 10.1288 18.0327 10.4088L22.5427 14.7488C22.7527 14.9588 22.8727 15.1788 22.8727 15.4788C22.8727 16.0188 22.4327 16.4288 21.8727 16.4288C21.6027 16.4288 21.3327 16.3288 21.1227 16.1088L19.0127 13.8488L18.2527 13.0388L18.3327 15.0788V22.4488H27.6627C31.8527 22.4488 34.3727 19.9188 34.3727 16.6088C34.3727 13.8488 32.7127 11.5788 30.0527 10.4988C30.0827 4.3988 25.6927 -0.0012 20.0927 -0.0012C16.3927 -0.0012 13.7527 1.9788 12.1127 4.3788C9.0127 3.5388 5.0827 5.9488 5.0127 9.7888C1.9327 10.2688 0.0027 12.7988 0.0027 16.0188Z"
        fillRule="evenodd"
        clipRule="evenodd"
    />
</svg>
        