<svg viewBox="0 0 34.37109375 27.5419921875" xmlns="http://www.w3.org/2000/svg"><path d="M28.6427 23.5294C32.0227 22.8494 34.3727 20.1894 34.3727 16.9794C34.3727 14.1094 32.7127 11.6194 30.0527 10.4994C30.0827 4.3994 25.6927 -0.0006 20.0927 -0.0006C16.3927 -0.0006 13.7527 1.9794 12.1127 4.3794C11.2827 4.1194 10.3327 4.0994 9.4427 4.3494ZM27.0427 27.2394C27.4527 27.6494 28.1227 27.6494 28.5327 27.2394C28.9427 26.8194 28.9427 26.1494 28.5327 25.7394L5.7127 2.9394C5.3027 2.5194 4.6227 2.5394 4.2127 2.9394C3.8127 3.3394 3.8327 4.0494 4.2127 4.4294ZM8.1927 23.7594H21.2727L5.4027 7.9194C5.1527 8.4794 5.0327 9.1094 5.0127 9.7794C1.9327 10.2694 0.0027 13.0294 0.0027 16.3694C0.0027 20.3894 3.5127 23.7594 8.1927 23.7594Z" /></svg>