
<svg
    viewBox={0 0 25.169921875 25.169921875}
    xmlns="http://www.w3.org/2000/svg"
>
    <path
        fill="inherit"
        d="M4.2937 25.1692H20.8737C23.7437 25.1692 25.1737 23.7592 25.1737 20.9492V4.2392C25.1737 1.4192 23.7437 -0.0008 20.8737 -0.0008H4.2937C1.4337 -0.0008 0.0037 1.4192 0.0037 4.2392V20.9492C0.0037 23.7592 1.4337 25.1692 4.2937 25.1692ZM7.5637 17.7692C5.5137 17.7692 3.9537 16.5292 3.9537 14.2092C3.9537 12.6592 4.9237 11.3892 6.2337 10.8592C6.4437 9.4092 7.6737 8.3492 9.1337 8.3492C9.2937 8.3492 9.5037 8.3792 9.6937 8.4192C10.6337 7.1192 12.1537 6.2992 13.8737 6.2992C16.8037 6.2992 19.0837 8.6392 19.0837 11.4992C19.0837 11.6192 19.0737 11.7592 19.0537 11.9092C20.3137 12.2092 21.2637 13.3892 21.2637 14.7892C21.2637 16.4292 19.9437 17.7692 18.2637 17.7692Z"
        fillRule="evenodd"
        clipRule="evenodd"
    />
</svg>
        