
<svg
    viewBox={0 0 34.37109375 30.5703125}
    xmlns="http://www.w3.org/2000/svg"
>
    <path
        fill="inherit"
        d="M20.9027 20.2488V22.4488H27.6627C31.8527 22.4488 34.3727 19.9188 34.3727 16.6088C34.3727 13.8488 32.7127 11.5788 30.0527 10.4988C30.0827 4.3988 25.6927 -0.0012 20.0927 -0.0012C16.3927 -0.0012 13.7527 1.9788 12.1127 4.3788C9.0127 3.5388 5.0827 5.9488 5.0127 9.7888C1.9327 10.2688 0.0027 12.7988 0.0027 16.0188C0.0027 19.5788 2.6627 22.4488 7.1527 22.4488H13.5927V20.2488H7.1327C3.8927 20.2488 2.2027 18.3788 2.2027 16.0188C2.2027 13.4088 3.8527 11.4688 6.7527 11.4688C6.9427 11.4688 7.0127 11.3588 7.0127 11.1788C7.0127 6.9888 10.0327 5.8288 12.8527 6.6488C13.0127 6.6988 13.1127 6.6688 13.1927 6.5188C14.5227 4.1588 16.5527 2.1988 20.0927 2.1988C24.5827 2.1988 27.6827 5.7588 27.9227 9.8288C27.9627 10.4488 27.9227 11.1788 27.8627 11.8288C27.8527 12.0088 27.9227 12.1088 28.0827 12.1388C30.5727 12.6888 32.1727 14.2488 32.1727 16.6088C32.1727 18.7188 30.6427 20.2488 27.6427 20.2488ZM17.2527 12.7288C16.6627 12.7288 16.1627 13.2188 16.1627 13.7988V25.5288L16.2427 27.5788L15.4727 26.7588L13.3527 24.4988C13.1627 24.2788 12.8827 24.1888 12.6027 24.1888C12.0327 24.1888 11.6227 24.5788 11.6227 25.1388C11.6227 25.4288 11.7427 25.6488 11.9527 25.8488L16.4627 30.1988C16.7327 30.4788 16.9627 30.5688 17.2527 30.5688C17.5227 30.5688 17.7627 30.4788 18.0327 30.1988L22.5427 25.8488C22.7527 25.6488 22.8727 25.4288 22.8727 25.1388C22.8727 24.5788 22.4327 24.1888 21.8727 24.1888C21.6027 24.1888 21.3327 24.2788 21.1227 24.4988L19.0127 26.7588L18.2527 27.5588L18.3327 25.5288V13.7988C18.3327 13.2188 17.8427 12.7288 17.2527 12.7288Z"
        fillRule="evenodd"
        clipRule="evenodd"
    />
</svg>
        