
<svg
    viewBox="0 0 34.37109375 30.5703125"
    xmlns="http://www.w3.org/2000/svg"
>
    <path
        fill="inherit"
        d="M0.0027 16.0188C0.0027 19.5788 2.6627 22.4488 7.1527 22.4488H16.1627V25.5288L16.2427 27.5788L15.3227 26.6088L13.2527 24.5288C13.0427 24.3188 12.7527 24.1988 12.4927 24.1988C11.9227 24.1988 11.5127 24.6088 11.5127 25.1588C11.5127 25.4588 11.6027 25.6888 11.8427 25.8788L16.4627 30.1988C16.7527 30.4588 16.9627 30.5688 17.2527 30.5688C17.5227 30.5688 17.7427 30.4588 18.0327 30.1988L22.6527 25.8788C22.8727 25.6888 22.9827 25.4588 22.9827 25.1588C22.9827 24.6088 22.5427 24.1988 21.9827 24.1988C21.7227 24.1988 21.4527 24.3188 21.2427 24.5288L19.1727 26.6088L18.2527 27.5588L18.3327 25.5288V22.4488H16.1627V13.7988C16.1627 13.2188 16.6627 12.7288 17.2527 12.7288C17.8427 12.7288 18.3327 13.2188 18.3327 13.7988V22.4488H27.6627C31.8527 22.4488 34.3727 19.9188 34.3727 16.6088C34.3727 13.8488 32.7127 11.5788 30.0527 10.4988C30.0827 4.3988 25.6927 -0.0012 20.0927 -0.0012C16.3927 -0.0012 13.7527 1.9788 12.1127 4.3788C9.0127 3.5388 5.0827 5.9488 5.0127 9.7888C1.9327 10.2688 0.0027 12.7988 0.0027 16.0188Z"
        fillRule="evenodd"
        clipRule="evenodd"
    />
</svg>
        