
<svg
    viewBox={0 0 31.609500315483924 23.666015625}
    xmlns="http://www.w3.org/2000/svg"
>
    <path
        fill="inherit"
        d="M13.3838 2.2009H30.5038C31.1138 2.2009 31.6138 1.7209 31.6138 1.1109C31.6138 0.4909 31.1138 0.0009 30.5038 0.0009H13.3838C12.7538 0.0009 12.2738 0.4909 12.2738 1.1109C12.2738 1.7209 12.7538 2.2009 13.3838 2.2009ZM13.3838 9.3609H30.5038C31.1138 9.3609 31.6138 8.8709 31.6138 8.2609C31.6138 7.6409 31.1138 7.1609 30.5038 7.1609H13.3838C12.7538 7.1609 12.2738 7.6409 12.2738 8.2609C12.2738 8.8709 12.7538 9.3609 13.3838 9.3609ZM2.1438 16.0009L6.6738 12.9709C7.4738 12.4309 7.4538 11.2609 6.6738 10.7209L2.1438 7.6409C1.0938 6.9309 -0.0162 7.3309 0.0038 8.5809V15.0709C-0.0162 16.2809 1.1338 16.6509 2.1438 16.0009ZM13.3838 16.5109H30.5038C31.1138 16.5109 31.6138 16.0409 31.6138 15.4209C31.6138 14.7909 31.1138 14.3109 30.5038 14.3109H13.3838C12.7538 14.3109 12.2738 14.7909 12.2738 15.4209C12.2738 16.0409 12.7538 16.5109 13.3838 16.5109ZM13.3838 23.6709H23.5138C24.1338 23.6709 24.6338 23.1909 24.6338 22.5709C24.6338 21.9609 24.1338 21.4609 23.5138 21.4609H13.3838C12.7538 21.4609 12.2738 21.9609 12.2738 22.5709C12.2738 23.1909 12.7538 23.6709 13.3838 23.6709Z"
        fillRule="evenodd"
        clipRule="evenodd"
    />
</svg>
        