
<svg
    viewBox={0 0 32.935546875 27.33018496744969}
    xmlns="http://www.w3.org/2000/svg"
>
    <path
        fill="inherit"
        d="M16.4627 5.864C18.9327 5.864 21.2027 6.724 23.0227 8.134C23.2927 8.354 23.6527 8.324 23.9127 8.064L27.0827 4.894C27.4027 4.584 27.3827 4.124 27.0527 3.854C24.2027 1.454 20.4927 0.004 16.4627 0.004C12.4427 0.004 8.7327 1.454 5.8827 3.854C5.5527 4.124 5.5327 4.584 5.8527 4.894L9.0227 8.064C9.2827 8.324 9.6527 8.354 9.9527 8.124C11.7627 6.724 14.0127 5.864 16.4627 5.864ZM0.0027 16.464C0.0027 20.494 1.4527 24.204 3.8727 27.074C4.1427 27.414 4.6027 27.414 4.9127 27.094L8.1627 23.844C8.3627 23.624 8.3927 23.324 8.2027 23.094C6.7127 21.194 5.8627 18.924 5.8627 16.464C5.8627 14.014 6.7027 11.744 8.1227 9.944C8.3427 9.654 8.3427 9.284 8.0827 9.024L4.9127 5.854C4.5927 5.534 4.1427 5.534 3.8727 5.864C1.4527 8.734 0.0027 12.444 0.0027 16.464ZM32.9327 16.464C32.9327 12.444 31.4827 8.734 29.0627 5.864C28.7927 5.534 28.3327 5.534 28.0227 5.854L24.8527 9.024C24.5927 9.284 24.5827 9.654 24.8127 9.944C26.2227 11.744 27.0727 14.014 27.0727 16.464C27.0727 18.924 26.2227 21.194 24.7327 23.094C24.5427 23.324 24.5527 23.624 24.7627 23.844L28.0127 27.094C28.3327 27.414 28.7827 27.414 29.0627 27.074C31.4827 24.204 32.9327 20.494 32.9327 16.464ZM15.0127 17.814C17.1627 17.814 18.8127 16.684 19.1027 14.584H20.1627C20.4227 14.584 20.6327 14.384 20.6327 14.134C20.6327 13.894 20.4227 13.684 20.1627 13.684H19.1227C19.0427 12.784 18.6727 11.954 17.9627 11.384H20.1627C20.4227 11.384 20.6327 11.184 20.6327 10.934C20.6327 10.664 20.4227 10.474 20.1627 10.474H12.5927C12.2527 10.474 12.0327 10.704 12.0327 11.084V11.184C12.0327 11.564 12.2527 11.794 12.5927 11.794H14.8327C16.1827 11.794 17.2627 12.344 17.4727 13.684H12.5227C12.2627 13.684 12.0627 13.894 12.0627 14.134C12.0627 14.384 12.2627 14.584 12.5227 14.584H17.4627C17.2627 15.984 16.2027 16.474 14.8227 16.474H12.9227C12.4027 16.474 12.0727 16.804 12.0727 17.244V17.294C12.0727 17.674 12.2527 17.914 12.5527 18.184L17.2227 22.574C17.4627 22.794 17.6527 22.954 17.9927 22.954C18.4027 22.954 18.6927 22.624 18.6927 22.244C18.6927 21.984 18.5627 21.804 18.3727 21.614L14.3027 17.814Z"
        fillRule="evenodd"
        clipRule="evenodd"
    />
</svg>
        