
<svg
    viewBox="0 0 30.544813437289534 27.890625"
    xmlns="http://www.w3.org/2000/svg"
>
    <path
        fill="inherit"
        d="M0.9769 11.3064C-0.0131 11.3064 -0.2531 11.9764 0.2769 12.7464L3.3369 17.0864C3.7869 17.7164 4.4469 17.7064 4.8869 17.0864L7.9269 12.7264C8.4669 11.9764 8.2069 11.3064 7.2469 11.3064H5.2769C6.4669 6.1564 11.0769 2.3264 16.5969 2.3264C23.0269 2.3264 28.2169 7.5164 28.2169 13.9464C28.2169 20.3664 23.0269 25.5664 16.5969 25.5664C12.7169 25.5664 9.2569 23.6564 7.1969 20.7564C6.7669 20.1964 6.1269 20.0164 5.5569 20.3564C5.0069 20.6964 4.8369 21.4664 5.3069 22.0664C7.8369 25.6064 11.9769 27.8864 16.5969 27.8864C24.2969 27.8864 30.5469 21.6464 30.5469 13.9464C30.5469 6.2464 24.2969 -0.0036 16.5969 -0.0036C9.8069 -0.0036 4.1269 4.8664 2.8969 11.3064ZM15.1469 15.1064C17.3069 15.1064 18.9469 13.9864 19.2369 11.8964H20.3069C20.5769 11.8964 20.7669 11.6864 20.7669 11.4464C20.7669 11.1964 20.5769 10.9964 20.3069 10.9964H19.2669C19.1969 10.0864 18.8169 9.2564 18.1169 8.6864H20.3069C20.5769 8.6864 20.7669 8.4764 20.7669 8.2264C20.7669 7.9664 20.5769 7.7764 20.3069 7.7764H12.7469C12.3869 7.7764 12.1869 8.0164 12.1869 8.3964V8.4864C12.1869 8.8564 12.3869 9.0964 12.7469 9.0964H14.9769C16.3269 9.0964 17.4069 9.6564 17.6069 10.9964H12.6769C12.4069 10.9964 12.1969 11.1964 12.1969 11.4464C12.1969 11.6864 12.4069 11.8964 12.6769 11.8964H17.6069C17.4169 13.2764 16.3569 13.7764 14.9569 13.7764H13.0769C12.5369 13.7764 12.2269 14.0964 12.2269 14.5464V14.5864C12.2269 14.9864 12.3869 15.2164 12.7069 15.4864L17.3769 19.8664C17.6069 20.0864 17.7869 20.2464 18.1469 20.2464C18.5369 20.2464 18.8369 19.9364 18.8369 19.5464C18.8369 19.2864 18.7169 19.0964 18.5169 18.9264L14.4369 15.1064Z"
        fillRule="evenodd"
        clipRule="evenodd"
    />
</svg>
        