
<svg
    viewBox={0 0 27.890625 27.890625}
    xmlns="http://www.w3.org/2000/svg"
>
    <path
        fill="inherit"
        d="M13.9427 27.8864C21.6427 27.8864 27.8927 21.6464 27.8927 13.9464C27.8927 6.2464 21.6427 -0.0036 13.9427 -0.0036C6.2527 -0.0036 0.0027 6.2464 0.0027 13.9464C0.0027 21.6464 6.2527 27.8864 13.9427 27.8864ZM13.9427 25.5664C7.5227 25.5664 2.3227 20.3664 2.3227 13.9464C2.3227 7.5164 7.5227 2.3264 13.9427 2.3264C20.3727 2.3264 25.5627 7.5164 25.5627 13.9464C25.5627 20.3664 20.3727 25.5664 13.9427 25.5664ZM12.4827 15.1064C14.6427 15.1064 16.2827 13.9864 16.5727 11.8964H17.6327C17.9127 11.8964 18.1027 11.6864 18.1027 11.4464C18.1027 11.1964 17.9127 10.9964 17.6327 10.9964H16.6127C16.5327 10.0864 16.1427 9.2564 15.4527 8.6864H17.6327C17.9127 8.6864 18.1027 8.4764 18.1027 8.2264C18.1027 7.9664 17.9127 7.7764 17.6327 7.7764H10.0727C9.7227 7.7764 9.5127 8.0164 9.5127 8.3964V8.4864C9.5127 8.8564 9.7227 9.0964 10.0727 9.0964H12.3027C13.6627 9.0964 14.7427 9.6564 14.9427 10.9964H10.0127C9.7327 10.9964 9.5327 11.1964 9.5327 11.4464C9.5327 11.6864 9.7327 11.8964 10.0127 11.8964H14.9427C14.7527 13.2764 13.6827 13.7764 12.2927 13.7764H10.4027C9.8727 13.7764 9.5527 14.0964 9.5527 14.5464V14.5864C9.5527 14.9864 9.7227 15.2164 10.0327 15.4864L14.7127 19.8664C14.9427 20.0864 15.1227 20.2464 15.4727 20.2464C15.8727 20.2464 16.1727 19.9364 16.1727 19.5464C16.1727 19.2864 16.0527 19.0964 15.8427 18.9264L11.7727 15.1064Z"
        fillRule="evenodd"
        clipRule="evenodd"
    />
</svg>
        