<svg viewBox="0 0 30.529296875 29.17578125" xmlns="http://www.w3.org/2000/svg"><path d="M1.8137 25.919H28.7137V25.009C28.7137 24.459 28.3937 24.129 27.8337 24.129H26.9637V9.379H28.1637C28.9137 9.379 29.3537 8.829 29.3537 8.269C29.3537 7.859 29.1237 7.509 28.6137 7.219L16.9437 0.479C16.3937 0.169 15.8137 -0.001 15.2537 -0.001C14.6937 -0.001 14.1137 0.169 13.5937 0.479L1.9137 7.219C1.3937 7.509 1.1737 7.859 1.1737 8.269C1.1737 8.829 1.6137 9.379 2.3637 9.379H3.5637V24.129H2.7037C2.1437 24.129 1.8137 24.459 1.8137 25.009ZM5.6337 24.129V7.629L14.7237 2.529C14.8937 2.429 15.0837 2.379 15.2537 2.379C15.4337 2.379 15.6237 2.429 15.8037 2.529L24.8937 7.629V24.129ZM13.8237 15.559C15.9837 15.559 17.6237 14.419 17.9137 12.329H18.9737C19.2337 12.329 19.4437 12.129 19.4437 11.879C19.4437 11.639 19.2337 11.429 18.9737 11.429H17.9337C17.8737 10.529 17.4837 9.689 16.7937 9.129H18.9737C19.2337 9.129 19.4437 8.929 19.4437 8.679C19.4437 8.409 19.2337 8.219 18.9737 8.219H11.4137C11.0637 8.219 10.8537 8.449 10.8537 8.829V8.929C10.8537 9.309 11.0637 9.539 11.4137 9.539H13.6437C14.9937 9.539 16.0737 10.089 16.2837 11.429H11.3337C11.0737 11.429 10.8737 11.639 10.8737 11.879C10.8737 12.129 11.0737 12.329 11.3337 12.329H16.2837C16.0937 13.729 15.0237 14.219 13.6337 14.219H11.7337C11.2137 14.219 10.8937 14.549 10.8937 14.989V15.039C10.8937 15.419 11.0637 15.659 11.3737 15.929L16.0537 20.319C16.2837 20.539 16.4637 20.699 16.8137 20.699C17.2137 20.699 17.5137 20.369 17.5137 19.989C17.5137 19.729 17.3937 19.549 17.1837 19.359L13.1137 15.559ZM1.0937 29.179H29.4237C30.0237 29.179 30.5337 28.669 30.5337 28.069C30.5337 27.469 30.0237 26.979 29.4237 26.979H1.0937C0.4937 26.979 0.0037 27.469 0.0037 28.069C0.0037 28.669 0.4937 29.179 1.0937 29.179Z" /></svg>