
<svg
    viewBox="0 0 30.5703125 30.5703125"
    xmlns="http://www.w3.org/2000/svg"
>
    <path
        fill="inherit"
        d="M15.2827 30.5663C23.6827 30.5663 30.5727 23.6763 30.5727 15.2863C30.5727 6.8863 23.6827 -0.0038 15.2827 -0.0038C6.8927 -0.0038 0.0027 6.8863 0.0027 15.2863C0.0027 23.6763 6.8927 30.5663 15.2827 30.5663ZM15.2827 25.4862C9.6527 25.4862 5.0827 20.9162 5.0827 15.2863C5.0827 9.6363 9.6527 5.0863 15.2827 5.0863C20.9327 5.0863 25.4827 9.6363 25.4827 15.2863C25.4827 20.9162 20.9327 25.4862 15.2827 25.4862ZM13.8327 16.4463C15.9927 16.4463 17.6527 15.3263 17.9227 13.2363H18.9927C19.2627 13.2363 19.4727 13.0262 19.4727 12.7863C19.4727 12.5363 19.2627 12.3363 18.9927 12.3363H17.9627C17.8827 11.4263 17.5027 10.5963 16.8027 10.0262H18.9927C19.2627 10.0262 19.4727 9.8163 19.4727 9.5663C19.4727 9.3063 19.2627 9.1163 18.9927 9.1163H11.4327C11.0727 9.1163 10.8727 9.3563 10.8727 9.7363V9.8263C10.8727 10.1962 11.0727 10.4363 11.4327 10.4363H13.6727C15.0127 10.4363 16.1027 10.9963 16.2927 12.3363H11.3627C11.0927 12.3363 10.8827 12.5363 10.8827 12.7863C10.8827 13.0262 11.0927 13.2363 11.3627 13.2363H16.2927C16.1027 14.6163 15.0427 15.1163 13.6427 15.1163H11.7627C11.2427 15.1163 10.9127 15.4363 10.9127 15.8863V15.9263C10.9127 16.3263 11.0727 16.5563 11.3927 16.8263L16.0627 21.2063C16.2927 21.4263 16.4727 21.5863 16.8327 21.5863C17.2227 21.5863 17.5227 21.2763 17.5227 20.8863C17.5227 20.6263 17.4027 20.4363 17.2127 20.2663L13.1427 16.4463Z"
        fillRule="evenodd"
        clipRule="evenodd"
    />
</svg>
        