
<svg
    viewBox={0 0 25.169921875 25.169921875}
    xmlns="http://www.w3.org/2000/svg"
>
    <path
        fill="inherit"
        d="M4.2937 25.1692H20.8737C23.7437 25.1692 25.1737 23.7592 25.1737 20.9492V4.2392C25.1737 1.4192 23.7437 -0.0008 20.8737 -0.0008H4.2937C1.4337 -0.0008 0.0037 1.4192 0.0037 4.2392V20.9492C0.0037 23.7592 1.4337 25.1692 4.2937 25.1692ZM11.1137 13.7792H10.3937L14.5837 17.7092C14.7837 17.8992 14.9137 18.0892 14.9137 18.3592C14.9137 18.7592 14.6037 19.0892 14.1937 19.0892C13.8237 19.0892 13.6337 18.9092 13.3937 18.6892L8.5737 14.1792C8.2437 13.8892 8.0837 13.6492 8.0837 13.2392V13.1892C8.0837 12.7292 8.4237 12.3992 8.9537 12.3992H10.9137C12.3437 12.3992 13.4437 11.8792 13.6337 10.4592H8.5437C8.2737 10.4592 8.0637 10.2492 8.0637 9.9892C8.0637 9.7392 8.2737 9.5292 8.5437 9.5292H13.6437C13.4437 8.1492 12.3137 7.5692 10.9237 7.5692H8.6137C8.2437 7.5692 8.0437 7.3292 8.0437 6.9492V6.8492C8.0437 6.4492 8.2437 6.2092 8.6137 6.2092H16.4237C16.7037 6.2092 16.9137 6.4092 16.9137 6.6892C16.9137 6.9292 16.7037 7.1492 16.4237 7.1492H14.1637C14.8937 7.7392 15.2737 8.5992 15.3637 9.5292H16.4237C16.7037 9.5292 16.9137 9.7392 16.9137 9.9892C16.9137 10.2492 16.7037 10.4592 16.4237 10.4592H15.3237C15.0437 12.6192 13.3337 13.7792 11.1137 13.7792Z"
        fillRule="evenodd"
        clipRule="evenodd"
    />
</svg>
        