
<svg
    viewBox="0 0 16.84375 24.951171875"
    xmlns="http://www.w3.org/2000/svg"
>
    <path
        fill="inherit"
        d="M12.0037 24.9535C12.7137 24.9535 13.2337 24.4635 13.2337 23.7635C13.2337 23.3235 13.0337 22.9935 12.6737 22.6535L3.8737 14.5035H5.6337C9.8937 14.5035 13.3037 12.4235 13.8537 8.1435H15.9437C16.4637 8.1435 16.8437 7.7635 16.8437 7.2635C16.8437 6.7435 16.4637 6.3535 15.9437 6.3535H13.8737C13.7137 4.4335 12.9037 2.8435 11.5237 1.7735L15.9437 1.7935C16.4637 1.7935 16.8437 1.4035 16.8437 0.9035C16.8437 0.3835 16.4637 0.0135 15.9437 0.0135L0.9737 0.0035C0.3837 0.0035 0.0137 0.4235 0.0137 1.1035V1.3035C0.0137 1.9535 0.3837 2.3635 0.9737 2.3635H5.6037C8.4937 2.3635 10.7037 3.5935 11.0637 6.3535H0.9037C0.3837 6.3535 0.0037 6.7435 0.0037 7.2635C0.0037 7.7635 0.3837 8.1435 0.9037 8.1435H11.0737C10.7237 10.9935 8.3837 12.1035 5.5137 12.1035H1.5737C0.7837 12.1035 0.0837 12.5935 0.0837 13.4835V13.5535C0.0837 14.2235 0.3937 14.6435 0.9037 15.1235L10.7337 24.2935C11.1337 24.6735 11.4737 24.9535 12.0037 24.9535Z"
        fillRule="evenodd"
        clipRule="evenodd"
    />
</svg>
        