
<svg
    viewBox={0 0 27.890625 27.890625}
    xmlns="http://www.w3.org/2000/svg"
>
    <path
        fill="inherit"
        d="M13.9427 27.8864C21.6427 27.8864 27.8927 21.6264 27.8927 13.9464C27.8927 6.2464 21.6427 -0.0036 13.9427 -0.0036C6.2627 -0.0036 0.0027 6.2464 0.0027 13.9464C0.0027 21.6264 6.2627 27.8864 13.9427 27.8864ZM12.4527 15.1464H11.7327L15.9327 19.0764C16.1327 19.2664 16.2727 19.4564 16.2727 19.7264C16.2727 20.1264 15.9527 20.4564 15.5427 20.4564C15.1727 20.4564 14.9827 20.2764 14.7527 20.0564L9.9227 15.5464C9.5927 15.2564 9.4327 15.0164 9.4327 14.6064V14.5564C9.4327 14.0964 9.7627 13.7664 10.3127 13.7664H12.2627C13.7027 13.7664 14.7927 13.2464 14.9827 11.8264H9.9027C9.6227 11.8264 9.4027 11.6164 9.4027 11.3564C9.4027 11.1064 9.6227 10.8964 9.9027 10.8964H14.9827C14.7827 9.5164 13.6627 8.9364 12.2627 8.9364H9.9627C9.5927 8.9364 9.3927 8.6964 9.3927 8.3164V8.2164C9.3927 7.8164 9.5927 7.5764 9.9627 7.5764H17.7727C18.0627 7.5764 18.2527 7.7764 18.2527 8.0564C18.2527 8.2964 18.0627 8.5164 17.7727 8.5164H15.5127C16.2427 9.1064 16.6227 9.9664 16.7027 10.8964H17.7727C18.0627 10.8964 18.2527 11.1064 18.2527 11.3564C18.2527 11.6164 18.0627 11.8264 17.7727 11.8264H16.6827C16.3827 13.9864 14.6827 15.1464 12.4527 15.1464Z"
        fillRule="evenodd"
        clipRule="evenodd"
    />
</svg>
        