<svg viewBox="0 0 27.890625 27.890625" xmlns="http://www.w3.org/2000/svg"><path d="M13.9427 27.8864C21.6427 27.8864 27.8927 21.6264 27.8927 13.9464C27.8927 6.2464 21.6427 -0.0036 13.9427 -0.0036C6.2627 -0.0036 0.0027 6.2464 0.0027 13.9464C0.0027 21.6264 6.2627 27.8864 13.9427 27.8864ZM4.4527 13.9464C4.4527 11.2664 6.1527 9.4764 8.6727 9.4764C10.0227 9.4764 11.1527 10.0464 12.3727 11.2064L13.9627 12.7464L15.5627 11.2064C16.8027 10.0064 17.9227 9.4764 19.2527 9.4764C21.7827 9.4764 23.4727 11.2664 23.4727 13.9464C23.4727 16.6064 21.7827 18.4064 19.2527 18.4064C17.9327 18.4064 16.8127 17.8664 15.5627 16.6664L13.9627 15.1464L12.3727 16.6664C11.1427 17.8464 10.0127 18.4064 8.6727 18.4064C6.1527 18.4064 4.4527 16.6064 4.4527 13.9464ZM6.2027 13.9464C6.2027 15.5964 7.1827 16.6664 8.6727 16.6664C9.4927 16.6664 10.2027 16.2864 11.1327 15.4064L12.7127 13.9464L11.1327 12.4864C10.1727 11.5764 9.4727 11.2064 8.6727 11.2064C7.1827 11.2064 6.2027 12.2864 6.2027 13.9464ZM15.2127 13.9464L16.7927 15.4064C17.7227 16.2864 18.4327 16.6664 19.2527 16.6664C20.7427 16.6664 21.7227 15.5964 21.7227 13.9464C21.7227 12.2864 20.7427 11.2064 19.2527 11.2064C18.4527 11.2064 17.7427 11.5764 16.7927 12.4864Z" /></svg>