
<svg
    viewBox={0 0 27.890625 27.890625}
    xmlns="http://www.w3.org/2000/svg"
>
    <path
        fill="inherit"
        d="M13.9427 27.8864C21.6427 27.8864 27.8927 21.6464 27.8927 13.9464C27.8927 6.2464 21.6427 -0.0036 13.9427 -0.0036C6.2527 -0.0036 0.0027 6.2464 0.0027 13.9464C0.0027 21.6464 6.2527 27.8864 13.9427 27.8864ZM13.9427 25.5664C7.5227 25.5664 2.3227 20.3664 2.3227 13.9464C2.3227 7.5164 7.5227 2.3264 13.9427 2.3264C20.3727 2.3264 25.5627 7.5164 25.5627 13.9464C25.5627 20.3664 20.3727 25.5664 13.9427 25.5664ZM4.7327 13.9464C4.7327 16.5464 6.3727 18.2664 8.8227 18.2664C10.1127 18.2664 11.2127 17.7164 12.4027 16.5864L13.9427 15.1064L15.5027 16.5864C16.7227 17.7464 17.8027 18.2664 19.0727 18.2664C21.5327 18.2664 23.1727 16.5464 23.1727 13.9464C23.1727 11.3464 21.5327 9.6064 19.0727 9.6064C17.7827 9.6064 16.7027 10.1264 15.5027 11.2964L13.9427 12.7864L12.4027 11.2964C11.2227 10.1764 10.1327 9.6064 8.8227 9.6064C6.3727 9.6064 4.7327 11.3464 4.7327 13.9464ZM6.4227 13.9464C6.4227 12.3464 7.3727 11.2964 8.8227 11.2964C9.5927 11.2964 10.2827 11.6464 11.2127 12.5264L12.7427 13.9464L11.2127 15.3664C10.3127 16.2164 9.6127 16.5864 8.8227 16.5864C7.3727 16.5864 6.4227 15.5464 6.4227 13.9464ZM15.1627 13.9464L16.6827 12.5264C17.6127 11.6464 18.3027 11.2964 19.0727 11.2964C20.5227 11.2964 21.4827 12.3464 21.4827 13.9464C21.4827 15.5464 20.5227 16.5864 19.0727 16.5864C18.2827 16.5864 17.5827 16.2164 16.6827 15.3664Z"
        fillRule="evenodd"
        clipRule="evenodd"
    />
</svg>
        