
<svg
    viewBox="0 0 39.64558556644723 20.927259600354034"
    xmlns="http://www.w3.org/2000/svg"
>
    <path
        fill="inherit"
        d="M19.8269 18.7021C22.5169 18.7021 25.6669 19.5221 28.0069 20.7421C28.6369 21.0821 29.3269 20.9421 29.7369 20.4121L39.0469 8.5621C39.9669 7.3821 39.8169 6.1421 38.6569 5.2221C34.8369 2.2821 27.5269 0.0021 19.8269 0.0021C12.1269 0.0021 4.8169 2.2821 0.9869 5.2221C-0.1731 6.1421 -0.3231 7.3821 0.6069 8.5621L9.9169 20.4121C10.3269 20.9421 11.0069 21.0821 11.6369 20.7421C13.9769 19.5221 17.1369 18.7021 19.8269 18.7021ZM19.8269 16.5021C17.3269 16.5021 14.4369 17.1621 11.6569 18.3021C11.3069 18.4421 11.1569 18.4121 10.8869 18.0721L2.7969 7.7621C2.5369 7.4221 2.5769 7.0921 2.9469 6.8521C7.6469 3.8821 13.6769 2.2021 19.8269 2.2021C25.9769 2.2021 32.0069 3.8821 36.7169 6.8521C37.0869 7.0921 37.1269 7.4221 36.8469 7.7621L28.7669 18.0721C28.4969 18.4121 28.3469 18.4421 28.0069 18.3021C25.2169 17.1621 22.3169 16.5021 19.8269 16.5021ZM19.4769 6.2221C20.2569 6.2221 20.8669 5.5821 20.8669 4.8121C20.8669 4.0321 20.2369 3.4021 19.4769 3.4021C18.6969 3.4021 18.0469 4.0321 18.0469 4.8121C18.0469 5.5821 18.6969 6.2221 19.4769 6.2221ZM17.8769 14.8721H21.7669C22.2369 14.8721 22.6169 14.5021 22.6169 14.0321C22.6169 13.5721 22.2469 13.2221 21.7669 13.2221H20.7269V8.5021C20.7269 7.9321 20.4169 7.5021 19.8469 7.5021H18.0369C17.5769 7.5021 17.1869 7.8521 17.1869 8.3121C17.1869 8.8021 17.5769 9.1621 18.0369 9.1621H18.8969V13.2221H17.8769C17.4069 13.2221 17.0269 13.5621 17.0269 14.0321C17.0269 14.5221 17.4069 14.8721 17.8769 14.8721Z"
        fillRule="evenodd"
        clipRule="evenodd"
    />
</svg>
        