
<svg
    viewBox="0 0 25.169921875 25.169921875"
    xmlns="http://www.w3.org/2000/svg"
>
    <path
        fill="inherit"
        d="M4.2937 25.1692H20.8737C23.7437 25.1692 25.1737 23.7592 25.1737 20.9492V4.2392C25.1737 1.4192 23.7437 -0.0008 20.8737 -0.0008H4.2937C1.4337 -0.0008 0.0037 1.4192 0.0037 4.2392V20.9492C0.0037 23.7592 1.4337 25.1692 4.2937 25.1692ZM4.3237 22.9692C2.9537 22.9692 2.2037 22.2392 2.2037 20.8192V4.3592C2.2037 2.9392 2.9537 2.1992 4.3237 2.1992H20.8537C22.2037 2.1992 22.9737 2.9392 22.9737 4.3592V20.8192C22.9737 22.2392 22.2037 22.9692 20.8537 22.9692ZM12.4837 7.8492C13.4837 7.8492 14.2637 7.0592 14.2637 6.0592C14.2637 5.0592 13.4837 4.2692 12.4837 4.2692C11.4937 4.2692 10.7037 5.0592 10.7037 6.0592C10.7037 7.0592 11.4937 7.8492 12.4837 7.8492ZM10.2137 20.2392H15.7737C16.3337 20.2392 16.7737 19.8192 16.7737 19.2592C16.7737 18.7292 16.3337 18.3092 15.7737 18.3092H14.0837V11.3492C14.0837 10.6092 13.7137 10.1192 13.0137 10.1192H10.4437C9.8837 10.1192 9.4437 10.5392 9.4437 11.0692C9.4437 11.6392 9.8837 12.0492 10.4437 12.0492H11.9037V18.3092H10.2137C9.6537 18.3092 9.2137 18.7292 9.2137 19.2592C9.2137 19.8192 9.6537 20.2392 10.2137 20.2392Z"
        fillRule="evenodd"
        clipRule="evenodd"
    />
</svg>
        