
<svg
    viewBox="0 0 30.1328125 28.287109375"
    xmlns="http://www.w3.org/2000/svg"
>
    <path
        fill="inherit"
        d="M8.4037 28.2828C9.0737 28.2828 9.5437 27.9328 10.3737 27.1928L15.0937 22.9928H23.8737C27.9437 22.9928 30.1337 20.7428 30.1337 16.7328V6.2628C30.1337 2.2528 27.9437 0.0028 23.8737 0.0028H6.2637C2.1837 0.0028 0.0037 2.2428 0.0037 6.2628V16.7328C0.0037 20.7528 2.1837 22.9928 6.2637 22.9928H6.9137V26.5528C6.9137 27.6028 7.4537 28.2828 8.4037 28.2828ZM8.9737 25.7828V21.8228C8.9737 21.0828 8.6837 20.7928 7.9437 20.7928H6.2637C3.5037 20.7928 2.2037 19.3828 2.2037 16.7228V6.2628C2.2037 3.5928 3.5037 2.2028 6.2637 2.2028H23.8737C26.6237 2.2028 27.9337 3.5928 27.9337 6.2628V16.7228C27.9337 19.3828 26.6237 20.7928 23.8737 20.7928H15.0137C14.2437 20.7928 13.8637 20.9028 13.3437 21.4328ZM14.9737 7.1228C15.9037 7.1228 16.6237 6.3828 16.6237 5.4728C16.6237 4.5428 15.9037 3.8128 14.9737 3.8128C14.0537 3.8128 13.3137 4.5428 13.3137 5.4728C13.3137 6.3828 14.0537 7.1228 14.9737 7.1228ZM12.8637 18.5928H18.0237C18.5437 18.5928 18.9537 18.2228 18.9537 17.7028C18.9537 17.2028 18.5437 16.8128 18.0237 16.8128H16.4437V10.3628C16.4437 9.6828 16.1037 9.2328 15.4637 9.2328H13.0837C12.5637 9.2328 12.1537 9.6228 12.1537 10.1128C12.1537 10.6328 12.5637 11.0028 13.0837 11.0028H14.4337V16.8128H12.8637C12.3437 16.8128 11.9537 17.2028 11.9537 17.7028C11.9537 18.2228 12.3437 18.5928 12.8637 18.5928Z"
        fillRule="evenodd"
        clipRule="evenodd"
    />
</svg>
        