
<svg
    viewBox="0 0 30.1328125 28.369140625"
    xmlns="http://www.w3.org/2000/svg"
>
    <path
        fill="inherit"
        d="M8.1237 28.3728C8.6537 28.3728 9.0537 28.0928 9.6937 27.4928L14.6337 22.9828H23.8737C27.9437 22.9828 30.1337 20.7428 30.1337 16.7328V6.2628C30.1337 2.2528 27.9437 0.0028 23.8737 0.0028H6.2637C2.1837 0.0028 0.0037 2.2428 0.0037 6.2628V16.7328C0.0037 20.7528 2.1837 22.9828 6.2637 22.9828H6.9037V26.9628C6.9037 27.8128 7.3437 28.3728 8.1237 28.3728ZM14.9537 7.0028C14.0137 7.0028 13.2437 6.2328 13.2437 5.2728C13.2437 4.3228 14.0137 3.5528 14.9537 3.5528C15.9137 3.5528 16.6637 4.3228 16.6637 5.2728C16.6637 6.2328 15.9137 7.0028 14.9537 7.0028ZM12.7937 18.8228C12.2537 18.8228 11.8437 18.4328 11.8437 17.8828C11.8437 17.3728 12.2537 16.9628 12.7937 16.9628H14.4137V11.0028H13.0137C12.4837 11.0028 12.0537 10.6228 12.0537 10.0728C12.0537 9.5728 12.4837 9.1628 13.0137 9.1628H15.4737C16.1337 9.1628 16.4837 9.6428 16.4837 10.3328V16.9628H18.1037C18.6437 16.9628 19.0537 17.3728 19.0537 17.8828C19.0537 18.4328 18.6437 18.8228 18.1037 18.8228Z"
        fillRule="evenodd"
        clipRule="evenodd"
    />
</svg>
        