
<svg
    viewBox="0 0 11.060546875 21.177734375"
    xmlns="http://www.w3.org/2000/svg"
>
    <path
        fill="inherit"
        d="M3.3937 1.9808C3.3937 3.0808 4.2637 3.9508 5.3637 3.9508C6.4637 3.9508 7.3137 3.0808 7.3137 1.9808C7.3137 0.8708 6.4637 0.0008 5.3637 0.0008C4.2637 0.0008 3.3937 0.8708 3.3937 1.9808ZM0.0037 20.0608C0.0037 20.7308 0.4737 21.1808 1.2037 21.1808H9.8537C10.5837 21.1808 11.0637 20.7308 11.0637 20.0608C11.0637 19.4008 10.5837 18.9508 9.8537 18.9508H7.1137V8.5208C7.1137 7.7808 6.6337 7.2908 5.9237 7.2908H1.5837C0.8737 7.2908 0.3837 7.7208 0.3837 8.3808C0.3837 9.0608 0.8737 9.5108 1.5837 9.5108H4.5837V18.9508H1.2037C0.4737 18.9508 0.0037 19.4008 0.0037 20.0608Z"
        fillRule="evenodd"
        clipRule="evenodd"
    />
</svg>
        