
<svg
    viewBox="0 0 25.169921875 25.169921875"
    xmlns="http://www.w3.org/2000/svg"
>
    <path
        fill="inherit"
        d="M4.2937 25.1692H20.8737C23.7437 25.1692 25.1737 23.7592 25.1737 20.9492V4.2392C25.1737 1.4192 23.7437 -0.0008 20.8737 -0.0008H4.2937C1.4337 -0.0008 0.0037 1.4192 0.0037 4.2392V20.9492C0.0037 23.7592 1.4337 25.1692 4.2937 25.1692ZM12.4737 7.7292C11.4437 7.7292 10.6237 6.9092 10.6237 5.8692C10.6237 4.8292 11.4437 4.0092 12.4737 4.0092C13.4937 4.0092 14.3037 4.8292 14.3037 5.8692C14.3037 6.9092 13.4937 7.7292 12.4737 7.7292ZM10.1337 20.4892C9.5437 20.4892 9.0937 20.0692 9.0937 19.4792C9.0937 18.9392 9.5437 18.4892 10.1337 18.4892H11.8637V12.0592H10.3637C9.7937 12.0592 9.3337 11.6392 9.3337 11.0492C9.3337 10.4992 9.7937 10.0492 10.3637 10.0492H13.0137C13.7437 10.0492 14.1237 10.5692 14.1237 11.3292V18.4892H15.8637C16.4437 18.4892 16.8937 18.9392 16.8937 19.4792C16.8937 20.0692 16.4437 20.4892 15.8637 20.4892Z"
        fillRule="evenodd"
        clipRule="evenodd"
    />
</svg>
        