
<svg
    viewBox={0 0 27.890625 27.890625}
    xmlns="http://www.w3.org/2000/svg"
>
    <path
        fill="inherit"
        d="M13.9427 27.8864C21.6427 27.8864 27.8927 21.6264 27.8927 13.9464C27.8927 6.2464 21.6427 -0.0036 13.9427 -0.0036C6.2627 -0.0036 0.0027 6.2464 0.0027 13.9464C0.0027 21.6264 6.2627 27.8864 13.9427 27.8864ZM13.8227 9.0964C12.7927 9.0964 11.9727 8.2764 11.9727 7.2364C11.9727 6.1964 12.7927 5.3764 13.8227 5.3764C14.8427 5.3764 15.6527 6.1964 15.6527 7.2364C15.6527 8.2764 14.8427 9.0964 13.8227 9.0964ZM11.4827 21.8564C10.8927 21.8564 10.4427 21.4364 10.4427 20.8464C10.4427 20.3064 10.8927 19.8564 11.4827 19.8564H13.2227V13.4264H11.7127C11.1427 13.4264 10.6927 13.0064 10.6927 12.4164C10.6927 11.8664 11.1427 11.4164 11.7127 11.4164H14.3727C15.0927 11.4164 15.4727 11.9364 15.4727 12.6964V19.8564H17.2127C17.8027 19.8564 18.2527 20.3064 18.2527 20.8464C18.2527 21.4364 17.8027 21.8564 17.2127 21.8564Z"
        fillRule="evenodd"
        clipRule="evenodd"
    />
</svg>
        