
<svg
    viewBox={0 0 20.86579635955228 31.311221131786997}
    xmlns="http://www.w3.org/2000/svg"
>
    <path
        fill="inherit"
        d="M4.1362 2.593C6.3862 2.003 7.7962 1.203 7.6062 0.473C7.4162 -0.227 5.3662 -0.087 3.3962 0.463C0.9362 1.113 -0.1438 2.003 0.0162 2.543C0.2362 3.213 2.1362 3.123 4.1362 2.593ZM12.7762 30.883L12.5162 26.793C12.4462 25.573 12.6862 24.943 13.4962 24.253L17.3762 20.923L14.9862 20.383C14.7162 20.313 14.5462 20.193 14.4262 19.753L11.0062 6.953C10.6962 5.793 9.9962 5.283 9.0562 5.393L8.1462 2.283C7.2762 3.013 5.9662 3.593 4.5262 3.993C3.0962 4.373 1.6562 4.533 0.5362 4.453L1.4262 7.473C0.7162 7.953 0.3862 8.813 0.7562 10.183L5.5562 27.573C5.9362 28.953 6.8362 29.703 8.4962 30.033ZM14.7662 31.233C15.8862 31.413 16.5362 31.293 17.1362 30.703L20.2662 27.533C20.7062 27.093 20.8662 26.743 20.8662 25.983L20.8562 22.923C20.8562 21.953 20.5062 21.573 19.8262 21.433L19.2662 21.333L14.9962 25.223C14.4162 25.753 14.2462 26.133 14.3162 27.133L14.5762 31.213Z"
        fillRule="evenodd"
        clipRule="evenodd"
    />
</svg>
        