
<svg
    viewBox="0 0 21.938429677522333 31.738374024693893"
    xmlns="http://www.w3.org/2000/svg"
>
    <path
        fill="inherit"
        d="M15.1551 31.6419C16.3751 31.8719 17.0551 31.6919 17.7151 31.0819L21.3051 27.6319C21.7751 27.1919 21.9351 26.8019 21.9351 26.0119V22.4519C21.9351 21.4119 21.6151 21.0319 20.8451 20.8619L15.8651 19.8419C15.5651 19.7719 15.4051 19.6219 15.2851 19.1719L12.0551 7.0219C11.6751 5.6119 10.8351 4.8619 9.7251 4.9519L8.6951 1.3419C8.2651 -0.1381 6.0751 -0.3081 3.4251 0.4119C0.6351 1.2319 -0.3149 2.6419 0.0951 4.0519L1.0851 7.4819C0.2451 8.0719 -0.1649 9.1619 0.1751 10.4319L4.9151 27.6119C5.3251 29.0719 6.1651 29.8719 7.8951 30.2219ZM2.6251 3.3419C2.1951 3.2019 2.3651 2.7619 3.5651 2.3019C4.5051 1.9319 5.8051 1.7019 6.2251 1.8519C6.7051 2.1119 6.0251 2.6319 5.1951 2.9519C4.2751 3.2819 3.0951 3.5719 2.6251 3.3419ZM2.3851 5.3119C3.9751 5.3719 6.2951 4.7719 7.4751 3.9119L7.9751 5.6519C6.1751 6.5819 4.3251 6.9619 2.8651 7.0319ZM8.4551 28.1919C7.4151 27.9919 7.0951 27.6219 6.8551 26.7819L2.3051 10.3819C2.0751 9.5419 2.3051 9.1319 2.9351 9.1319C4.8251 9.1119 7.5151 8.4019 9.0151 7.5319C9.7151 7.1419 10.0351 7.2519 10.2051 7.9419L13.4451 20.3619C13.6651 21.2119 13.9951 21.5319 14.7751 21.6919L17.5451 22.2319L14.5851 24.8719C13.9951 25.3919 13.9451 25.7319 13.9851 26.4619L14.1551 29.2919ZM16.9351 29.3319C16.7151 29.5519 16.5251 29.4619 16.5151 29.1919L16.4151 26.7819C16.3851 26.3619 16.4551 26.1019 16.8351 25.7619L19.6851 23.0719C19.8051 22.9419 20.0151 22.9819 20.0151 23.2019V26.0319C20.0151 26.2519 19.9151 26.4719 19.8051 26.5719Z"
        fillRule="evenodd"
        clipRule="evenodd"
    />
</svg>
        