
<svg
    viewBox="0 0 22.99609375 29.3125"
    xmlns="http://www.w3.org/2000/svg"
>
    <path
        fill="inherit"
        d="M0.0037 25.0373C0.0037 27.8873 1.4037 29.3173 4.2337 29.3173H18.7537C21.5837 29.3173 22.9937 27.8873 22.9937 25.0373V4.2973C22.9937 1.4473 21.5837 -0.0027 18.7537 -0.0027H4.2337C1.4037 -0.0027 0.0037 1.4473 0.0037 4.2973ZM2.2037 24.9873V4.3373C2.2037 2.9673 2.9237 2.1973 4.3437 2.1973H18.6437C20.0737 2.1973 20.7937 2.9673 20.7937 4.3373V24.9873C20.7937 26.3573 20.0737 27.1073 18.6437 27.1073H4.3437C2.9237 27.1073 2.2037 26.3573 2.2037 24.9873ZM5.2937 25.2473H10.2637C11.1437 25.2473 11.4937 24.9073 11.4937 24.0473V5.2773C11.4937 4.4173 11.1437 4.0773 10.2637 4.0773H5.2937C4.4337 4.0773 4.0737 4.4173 4.0737 5.2773V24.0473C4.0737 24.9073 4.4337 25.2473 5.2937 25.2473Z"
        fillRule="evenodd"
        clipRule="evenodd"
    />
</svg>
        