
<svg
    viewBox={0 0 32.23828125 25.169921875}
    xmlns="http://www.w3.org/2000/svg"
>
    <path
        fill="inherit"
        d="M4.2937 25.1692H27.9437C30.8137 25.1692 32.2337 23.7592 32.2337 20.9492V4.2392C32.2337 1.4192 30.8137 -0.0008 27.9437 -0.0008H4.2937C1.4337 -0.0008 0.0037 1.4192 0.0037 4.2392V20.9492C0.0037 23.7592 1.4337 25.1692 4.2937 25.1692ZM4.3237 22.9692C2.9537 22.9692 2.2037 22.2392 2.2037 20.8192V4.3592C2.2037 2.9392 2.9537 2.1992 4.3237 2.1992H27.9137C29.2737 2.1992 30.0337 2.9392 30.0337 4.3592V20.8192C30.0337 22.2392 29.2737 22.9692 27.9137 22.9692ZM5.2637 21.1092H14.9437C15.8037 21.1092 16.1437 20.7492 16.1437 19.8792V5.3092C16.1437 4.4292 15.8037 4.0692 14.9437 4.0692H5.2637C4.4137 4.0692 4.0737 4.4292 4.0737 5.3092V19.8792C4.0737 20.7492 4.4137 21.1092 5.2637 21.1092ZM27.6137 12.5792C27.6337 12.0892 27.1937 11.6592 26.7137 11.6592H22.8837L20.8637 11.7292L21.9937 10.6492L23.4737 9.1992C23.6537 9.0392 23.7437 8.7892 23.7437 8.5592C23.7437 8.0692 23.3937 7.7092 22.9237 7.7092C22.6537 7.7092 22.4537 7.8192 22.2737 8.0292L18.6437 11.9092C18.4137 12.1592 18.3337 12.3492 18.3337 12.5792C18.3337 12.8192 18.4037 12.9992 18.6437 13.2492L22.2737 17.1292C22.4537 17.3492 22.6537 17.4592 22.9237 17.4592C23.3937 17.4592 23.7437 17.0992 23.7437 16.6092C23.7437 16.3792 23.6537 16.1292 23.4737 15.9692L21.9937 14.5092L20.8637 13.4292L22.8837 13.5092H26.7137C27.1937 13.5092 27.6037 13.0692 27.6137 12.5792Z"
        fillRule="evenodd"
        clipRule="evenodd"
    />
</svg>
        