
<svg
    viewBox="0 0 32.23828125 25.169921875"
    xmlns="http://www.w3.org/2000/svg"
>
    <path
        fill="inherit"
        d="M4.2937 25.1692H27.9437C30.8137 25.1692 32.2337 23.7592 32.2337 20.9492V4.2392C32.2337 1.4192 30.8137 -0.0008 27.9437 -0.0008H4.2937C1.4337 -0.0008 0.0037 1.4192 0.0037 4.2392V20.9492C0.0037 23.7592 1.4337 25.1692 4.2937 25.1692ZM4.3237 22.9692C2.9537 22.9692 2.2037 22.2392 2.2037 20.8192V4.3592C2.2037 2.9392 2.9537 2.1992 4.3237 2.1992H27.9137C29.2737 2.1992 30.0337 2.9392 30.0337 4.3592V20.8192C30.0337 22.2392 29.2737 22.9692 27.9137 22.9692ZM26.9737 21.1092C27.8337 21.1092 28.1737 20.7492 28.1737 19.8792V5.3092C28.1737 4.4292 27.8337 4.0692 26.9737 4.0692H18.2537C17.3937 4.0692 17.0537 4.4292 17.0537 5.3092V19.8792C17.0537 20.7492 17.3937 21.1092 18.2537 21.1092ZM13.9837 11.6492C14.8437 11.6492 15.1937 11.2892 15.1937 10.4192V5.3092C15.1937 4.4292 14.8437 4.0692 13.9837 4.0692H5.2637C4.4137 4.0692 4.0737 4.4292 4.0737 5.3092V10.4192C4.0737 11.2892 4.4137 11.6492 5.2637 11.6492ZM13.9837 21.1092C14.8437 21.1092 15.1937 20.7492 15.1937 19.8792V14.7692C15.1937 13.8892 14.8437 13.5392 13.9837 13.5392H5.2637C4.4137 13.5392 4.0737 13.8892 4.0737 14.7692V19.8792C4.0737 20.7492 4.4137 21.1092 5.2637 21.1092Z"
        fillRule="evenodd"
        clipRule="evenodd"
    />
</svg>
        