
<svg
    viewBox={0 0 35.109375 26.1953125}
    xmlns="http://www.w3.org/2000/svg"
>
    <path
        fill="inherit"
        d="M0.0027 13.0988C0.0027 21.0088 5.4527 26.1988 13.6827 26.1988H21.4127C29.6427 26.1988 35.1127 21.0088 35.1127 13.0988C35.1127 5.1788 29.6427 -0.0012 21.4127 -0.0012H13.6827C5.4527 -0.0012 0.0027 5.1788 0.0027 13.0988ZM2.2027 13.0988C2.2027 6.5888 6.8627 2.1988 13.6827 2.1988H21.4127C28.2427 2.1988 32.9127 6.5888 32.9127 13.0988C32.9127 19.6088 28.2427 23.9988 21.4127 23.9988H13.6827C6.8627 23.9988 2.2027 19.6088 2.2027 13.0988ZM13.6827 22.1188H21.4127C27.5127 22.1188 31.0327 18.7987 31.0327 13.0988C31.0327 7.3988 27.5127 4.0588 21.4127 4.0588H13.6827C7.5927 4.0588 4.0727 7.3988 4.0727 13.0988C4.0727 18.7987 7.5927 22.1188 13.6827 22.1188Z"
        fillRule="evenodd"
        clipRule="evenodd"
    />
</svg>
        