
<svg
    viewBox={0 0 22.99609375 29.3125}
    xmlns="http://www.w3.org/2000/svg"
>
    <path
        fill="inherit"
        d="M0.0037 25.0373C0.0037 27.8873 1.4037 29.3173 4.2337 29.3173H18.7537C21.5837 29.3173 22.9937 27.8873 22.9937 25.0373V4.2973C22.9937 1.4473 21.5837 -0.0027 18.7537 -0.0027H4.2337C1.4037 -0.0027 0.0037 1.4473 0.0037 4.2973ZM2.2037 24.9873V4.3373C2.2037 2.9673 2.9237 2.1973 4.3437 2.1973H18.6437C20.0737 2.1973 20.7937 2.9673 20.7937 4.3373V24.9873C20.7937 26.3573 20.0737 27.1073 18.6437 27.1073H4.3437C2.9237 27.1073 2.2037 26.3573 2.2037 24.9873ZM15.2037 25.2473H17.7037C18.5837 25.2473 18.9237 24.9073 18.9237 24.0473V5.2773C18.9237 4.4173 18.5837 4.0773 17.7037 4.0773H15.2037C14.3237 4.0773 13.9737 4.4173 13.9737 5.2773V24.0473C13.9737 24.9073 14.3237 25.2473 15.2037 25.2473Z"
        fillRule="evenodd"
        clipRule="evenodd"
    />
</svg>
        