
<svg
    viewBox="0 0 28.65625 25.9765625"
    xmlns="http://www.w3.org/2000/svg"
>
    <path
        fill="inherit"
        d="M3.7309 25.9777H24.9209C27.2509 25.9777 28.6609 24.3677 28.6609 22.2677C28.6609 21.6277 28.4609 20.9577 28.1209 20.3577L17.5109 1.8777C16.8009 0.6277 15.5909 -0.0023 14.3309 -0.0023C13.0709 -0.0023 11.8409 0.6277 11.1409 1.8777L0.5309 20.3577C0.1609 20.9677 0.0009 21.6277 0.0009 22.2677C0.0009 24.3677 1.4109 25.9777 3.7309 25.9777ZM3.7509 23.8277C2.7909 23.8277 2.2109 23.0877 2.2109 22.2577C2.2109 21.9977 2.2709 21.6677 2.4209 21.3877L13.0109 2.9077C13.3009 2.4077 13.8209 2.1877 14.3309 2.1877C14.8309 2.1877 15.3409 2.4077 15.6309 2.9077L26.2209 21.3977C26.3709 21.6877 26.4409 21.9977 26.4409 22.2577C26.4409 23.0877 25.8409 23.8277 24.9009 23.8277ZM5.7009 21.8077H22.9409C23.5009 21.8077 23.8209 21.2877 23.5409 20.7777L14.9209 5.7277C14.6309 5.2177 14.0309 5.2177 13.7409 5.7277L5.1109 20.7777C4.8309 21.2977 5.1509 21.8077 5.7009 21.8077Z"
        fillRule="evenodd"
        clipRule="evenodd"
    />
</svg>
        