
<svg
    viewBox={0 0 25.169921875 25.169921875}
    xmlns="http://www.w3.org/2000/svg"
>
    <path
        fill="inherit"
        d="M4.2937 25.1692H20.8737C23.7437 25.1692 25.1737 23.7592 25.1737 20.9492V4.2392C25.1737 1.4192 23.7437 -0.0008 20.8737 -0.0008H4.2937C1.4337 -0.0008 0.0037 1.4192 0.0037 4.2392V20.9492C0.0037 23.7592 1.4337 25.1692 4.2937 25.1692ZM4.3237 22.9692C2.9537 22.9692 2.2037 22.2392 2.2037 20.8192V4.3592C2.2037 2.9392 2.9537 2.1992 4.3237 2.1992H20.8537C22.2037 2.1992 22.9737 2.9392 22.9737 4.3592V20.8192C22.9737 22.2392 22.2037 22.9692 20.8537 22.9692ZM16.8937 21.1092H19.8837C20.7537 21.1092 21.1137 20.7692 21.1137 19.9192V5.2792C21.1137 4.4192 20.7537 4.0692 19.8837 4.0692H16.8937C16.0237 4.0692 15.6637 4.4192 15.6637 5.2792V19.9192C15.6637 20.7692 16.0237 21.1092 16.8937 21.1092Z"
        fillRule="evenodd"
        clipRule="evenodd"
    />
</svg>
        