
<svg
    viewBox="0 0 32.23828125 25.169921875"
    xmlns="http://www.w3.org/2000/svg"
>
    <path
        fill="inherit"
        d="M4.2937 25.1692H27.9437C30.8137 25.1692 32.2337 23.7592 32.2337 20.9492V4.2392C32.2337 1.4192 30.8137 -0.0008 27.9437 -0.0008H4.2937C1.4337 -0.0008 0.0037 1.4192 0.0037 4.2392V20.9492C0.0037 23.7592 1.4337 25.1692 4.2937 25.1692ZM4.3237 22.9692C2.9537 22.9692 2.2037 22.2392 2.2037 20.8192V4.3592C2.2037 2.9392 2.9537 2.1992 4.3237 2.1992H27.9137C29.2737 2.1992 30.0337 2.9392 30.0337 4.3592V20.8192C30.0337 22.2392 29.2737 22.9692 27.9137 22.9692ZM23.1237 21.1092H26.9737C27.8337 21.1092 28.1737 20.7492 28.1737 19.8792V5.3092C28.1737 4.4292 27.8337 4.0692 26.9737 4.0692H23.1237C22.2537 4.0692 21.9137 4.4292 21.9137 5.3092V19.8792C21.9137 20.7492 22.2537 21.1092 23.1237 21.1092Z"
        fillRule="evenodd"
        clipRule="evenodd"
    />
</svg>
        