<svg viewBox="0 0 25.169921875 25.169921875" xmlns="http://www.w3.org/2000/svg"><path d="M4.2937 25.1692H20.8737C23.7437 25.1692 25.1737 23.7592 25.1737 20.9492V4.2392C25.1737 1.4192 23.7437 -0.0008 20.8737 -0.0008H4.2937C1.4337 -0.0008 0.0037 1.4192 0.0037 4.2392V20.9492C0.0037 23.7592 1.4337 25.1692 4.2937 25.1692ZM4.3237 22.9692C2.9537 22.9692 2.2037 22.2392 2.2037 20.8192V4.3592C2.2037 2.9392 2.9537 2.1992 4.3237 2.1992H20.8537C22.2037 2.1992 22.9737 2.9392 22.9737 4.3592V20.8192C22.9737 22.2392 22.2037 22.9692 20.8537 22.9692ZM5.2937 21.1092H8.2737C9.1437 21.1092 9.5037 20.7692 9.5037 19.9192V5.2792C9.5037 4.4192 9.1437 4.0692 8.2737 4.0692H5.2937C4.4137 4.0692 4.0637 4.4192 4.0637 5.2792V19.9192C4.0637 20.7692 4.4137 21.1092 5.2937 21.1092Z" /></svg>