
<svg
    viewBox="0 0 25.18359375 32.73046875"
    xmlns="http://www.w3.org/2000/svg"
>
    <path
        fill="inherit"
        d="M12.6027 32.7263C20.0527 32.7263 25.1827 25.9763 25.1827 16.3663C25.1827 6.7563 20.0527 -0.0037 12.6027 -0.0037C5.1527 -0.0037 0.0027 6.7663 0.0027 16.3663C0.0027 25.9663 5.1527 32.7263 12.6027 32.7263ZM12.6027 30.5263C6.4527 30.5263 2.2027 24.6663 2.2027 16.3663C2.2027 8.0563 6.4527 2.1963 12.6027 2.1963C18.7427 2.1963 22.9827 8.0563 22.9827 16.3663C22.9827 24.6763 18.7427 30.5263 12.6027 30.5263ZM12.6027 28.5363C17.5227 28.5363 20.9827 23.6063 20.9827 16.3663C20.9827 9.1063 17.5227 4.1963 12.6027 4.1963C7.6827 4.1963 4.2127 9.1163 4.2127 16.3663C4.2127 23.5963 7.6827 28.5363 12.6027 28.5363Z"
        fillRule="evenodd"
        clipRule="evenodd"
    />
</svg>
        