<svg viewBox="0 0 35.2734375 26.564453125" xmlns="http://www.w3.org/2000/svg"><path d="M0.0027 13.2765C0.0027 21.0165 7.3027 26.5665 17.6327 26.5665C27.9727 26.5665 35.2727 21.0165 35.2727 13.2765C35.2727 5.5265 27.9727 -0.0035 17.6327 -0.0035C7.3027 -0.0035 0.0027 5.5265 0.0027 13.2765ZM2.2027 13.2765C2.2027 6.8265 8.6027 2.1965 17.6327 2.1965C26.6727 2.1965 33.0727 6.8265 33.0727 13.2765C33.0727 19.7265 26.6727 24.3665 17.6327 24.3665C8.6027 24.3665 2.2027 19.7265 2.2027 13.2765ZM4.2127 13.2765C4.2127 18.5565 9.7227 22.3665 17.6327 22.3665C25.5627 22.3665 31.0727 18.5565 31.0727 13.2765C31.0727 8.0165 25.5527 4.1965 17.6327 4.1965C9.7327 4.1965 4.2127 8.0165 4.2127 13.2765Z" /></svg>