
<svg
    viewBox={0 0 38.294921875 25.169921875}
    xmlns="http://www.w3.org/2000/svg"
>
    <path
        fill="inherit"
        d="M4.2937 25.1692H20.1637C19.8837 24.5292 19.8637 23.7492 20.0137 22.9692H4.3337C2.9637 22.9692 2.2037 22.2392 2.2037 20.8192V4.3592C2.2037 2.9392 2.9637 2.1992 4.3337 2.1992H27.9137C29.2737 2.1992 30.0537 2.9392 30.0537 4.3592V5.6692C30.8137 5.6892 31.5037 5.7792 32.2537 6.1092V4.2392C32.2537 1.4192 30.8137 -0.0008 27.9637 -0.0008H4.2937C1.4537 -0.0008 0.0037 1.4192 0.0037 4.2392V20.9492C0.0037 23.7592 1.4537 25.1692 4.2937 25.1692ZM5.2737 21.1092H20.6837C21.6337 19.0492 23.8437 17.3192 26.4937 16.5392C25.1337 15.4592 24.2437 13.7292 24.2437 11.7592C24.2237 9.0892 25.8937 6.7992 28.1737 6.0392V5.3092C28.1737 4.5292 27.7437 4.0692 26.9737 4.0692H5.2737C4.5137 4.0692 4.0737 4.5292 4.0737 5.3092V19.8792C4.0737 20.6592 4.5137 21.1092 5.2737 21.1092ZM30.0337 16.0792C32.1337 16.0792 33.9637 14.1892 33.9637 11.7292C33.9637 9.3092 32.1337 7.5192 30.0337 7.5192C27.9337 7.5192 26.1037 9.3392 26.1037 11.7592C26.1037 14.1892 27.9337 16.0792 30.0337 16.0792ZM23.4337 25.1692H36.6237C37.6537 25.1692 38.2937 24.6892 38.2937 23.8692C38.2937 21.3292 35.1237 17.8292 30.0337 17.8292C24.9237 17.8292 21.7637 21.3292 21.7637 23.8692C21.7637 24.6892 22.3937 25.1692 23.4337 25.1692Z"
        fillRule="evenodd"
        clipRule="evenodd"
    />
</svg>
        