
<svg
    viewBox={0 0 32.23828125 25.169921875}
    xmlns="http://www.w3.org/2000/svg"
>
    <path
        fill="inherit"
        d="M4.2937 25.1692H27.9437C30.8137 25.1692 32.2337 23.7592 32.2337 20.9492V4.2392C32.2337 1.4192 30.8137 -0.0008 27.9437 -0.0008H4.2937C1.4337 -0.0008 0.0037 1.4192 0.0037 4.2392V20.9492C0.0037 23.7592 1.4337 25.1692 4.2937 25.1692ZM4.3237 22.9692C2.9537 22.9692 2.2037 22.2392 2.2037 20.8192V4.3592C2.2037 2.9392 2.9537 2.1992 4.3237 2.1992H27.9137C29.2737 2.1992 30.0337 2.9392 30.0337 4.3592V20.8192C30.0337 22.2392 29.2737 22.9692 27.9137 22.9692ZM5.2637 9.5192H26.9737C27.8337 9.5192 28.1737 9.1592 28.1737 8.2892V5.3092C28.1737 4.4292 27.8337 4.0692 26.9737 4.0692H5.2637C4.4137 4.0692 4.0737 4.4292 4.0737 5.3092V8.2892C4.0737 9.1592 4.4137 9.5192 5.2637 9.5192Z"
        fillRule="evenodd"
        clipRule="evenodd"
    />
</svg>
        