<svg viewBox="0 0 27.890625 27.890625" xmlns="http://www.w3.org/2000/svg"><path d="M13.9327 2.3264C15.1727 2.3264 16.3827 2.5164 17.5127 2.8864L18.3927 0.7564C16.9827 0.2764 15.4727 -0.0036 13.9327 -0.0036C12.3827 -0.0036 10.8727 0.2764 9.4627 0.7564L10.3627 2.8864C11.4827 2.5164 12.6827 2.3264 13.9327 2.3264ZM24.2927 8.6364L26.4127 7.7664C25.0427 5.0564 22.8227 2.8264 20.1127 1.4664L19.2327 3.5864C21.3927 4.6864 23.1827 6.4664 24.2927 8.6364ZM8.6227 3.5864L7.7527 1.4764C5.0427 2.8264 2.8127 5.0564 1.4627 7.7664L3.5927 8.6564C4.6927 6.4764 6.4627 4.7064 8.6227 3.5864ZM13.9327 23.5064C19.2127 23.5064 23.4727 19.2264 23.4727 13.9464C23.4727 8.6864 19.2127 4.4064 13.9327 4.4064C8.6527 4.4064 4.3927 8.6864 4.3927 13.9464C4.3927 19.2264 8.6527 23.5064 13.9327 23.5064ZM25.5627 13.9464C25.5627 15.1864 25.3727 16.3964 25.0227 17.5164L27.1427 18.4164C27.6127 17.0064 27.8927 15.4864 27.8927 13.9464C27.8927 12.3864 27.6127 10.8864 27.1427 9.4764L25.0027 10.3764C25.3727 11.4964 25.5627 12.6964 25.5627 13.9464ZM2.3427 13.9464C2.3427 12.6964 2.5327 11.4964 2.8827 10.3864L0.7427 9.4864C0.2727 10.8964 0.0027 12.3864 0.0027 13.9464C0.0027 15.4864 0.2727 16.9964 0.7527 18.4064L2.8827 17.4964C2.5327 16.3964 2.3427 15.1864 2.3427 13.9464ZM19.2327 24.2964L20.1127 26.4264C22.8327 25.0564 25.0627 22.8364 26.4027 20.1264L24.3127 19.2464C23.2027 21.4264 21.4127 23.1864 19.2327 24.2964ZM3.5927 19.2464L1.4727 20.1264C2.8427 22.8364 5.0427 25.0564 7.7527 26.4164L8.6227 24.2764C6.4627 23.1764 4.6927 21.4064 3.5927 19.2464ZM13.9427 25.5664C12.6827 25.5664 11.4827 25.3764 10.3627 25.0064L9.4727 27.1364C10.8827 27.6164 12.4027 27.8864 13.9427 27.8864C15.4927 27.8864 16.9927 27.6164 18.3927 27.1564L17.5027 25.0164C16.3827 25.3764 15.1927 25.5664 13.9427 25.5664Z" /></svg>