
<svg
    viewBox="0 0 32.23828125 25.169921875"
    xmlns="http://www.w3.org/2000/svg"
>
    <path
        fill="inherit"
        d="M4.2937 25.1692H27.9437C30.8137 25.1692 32.2337 23.7592 32.2337 20.9492V4.2392C32.2337 1.4192 30.8137 -0.0008 27.9437 -0.0008H4.2937C1.4337 -0.0008 0.0037 1.4192 0.0037 4.2392V20.9492C0.0037 23.7592 1.4337 25.1692 4.2937 25.1692ZM4.3237 22.9692C2.9537 22.9692 2.2037 22.2392 2.2037 20.8192V4.3592C2.2037 2.9392 2.9537 2.1992 4.3237 2.1992H27.9137C29.2737 2.1992 30.0337 2.9392 30.0337 4.3592V20.8192C30.0337 22.2392 29.2737 22.9692 27.9137 22.9692ZM17.2937 21.1092H26.9737C27.8337 21.1092 28.1737 20.7492 28.1737 19.8792V5.3092C28.1737 4.4292 27.8337 4.0692 26.9737 4.0692H17.2937C16.4337 4.0692 16.0937 4.4292 16.0937 5.3092V19.8792C16.0937 20.7492 16.4337 21.1092 17.2937 21.1092ZM4.6637 12.5792C4.6737 13.0692 5.0737 13.5092 5.5537 13.5092H9.3837L11.4037 13.4292L10.2637 14.5092L8.7937 15.9692C8.6137 16.1292 8.5337 16.3792 8.5337 16.6092C8.5337 17.0992 8.8737 17.4592 9.3337 17.4592C9.6137 17.4592 9.8137 17.3492 9.9937 17.1292L13.6337 13.2492C13.8637 12.9992 13.9337 12.8192 13.9337 12.5792C13.9337 12.3492 13.8637 12.1592 13.6337 11.9092L9.9937 8.0292C9.8137 7.8192 9.6137 7.7092 9.3337 7.7092C8.8737 7.7092 8.5337 8.0692 8.5337 8.5592C8.5337 8.7892 8.6137 9.0392 8.7937 9.1992L10.2637 10.6492L11.4037 11.7292L9.3837 11.6592H5.5537C5.0737 11.6592 4.6437 12.0892 4.6637 12.5792Z"
        fillRule="evenodd"
        clipRule="evenodd"
    />
</svg>
        