
<svg
    viewBox="0 0 32.279296875 23.337890625"
    xmlns="http://www.w3.org/2000/svg"
>
    <path
        fill="inherit"
        d="M0.0037 17.1695C0.0037 20.6395 2.6937 23.3395 6.4937 23.3395H25.7837C29.5837 23.3395 32.2837 20.6395 32.2837 17.1695C32.2837 16.1495 31.9737 15.2295 31.6237 14.3695L27.0137 3.3095C26.1137 1.1195 24.2537 -0.0005 21.8037 -0.0005H10.4737C8.0237 -0.0005 6.1637 1.1195 5.2637 3.3095L0.6437 14.3695C0.3037 15.2195 0.0037 16.1495 0.0037 17.1695ZM4.4137 11.3595L7.3937 3.8695C7.9137 2.5695 9.0337 1.9095 10.5837 1.9095H21.6937C23.2437 1.9095 24.3737 2.5695 24.8837 3.8695L27.8637 11.3595C27.2237 11.1295 26.5337 11.0095 25.7837 11.0095H6.4937C5.7437 11.0095 5.0437 11.1295 4.4137 11.3595ZM2.2037 17.1695C2.2037 14.9195 3.9137 13.2095 6.4937 13.2095H25.7837C28.3737 13.2095 30.0737 14.9195 30.0737 17.1695C30.0737 19.6995 28.3737 21.1395 25.7837 21.1395H6.4937C3.9137 21.1395 2.2037 19.4295 2.2037 17.1695ZM12.2337 18.5795C12.2337 18.9995 12.5637 19.3495 13.0037 19.3495C13.4137 19.3495 13.7537 18.9995 13.7537 18.5795V15.7495C13.7537 15.3395 13.4137 14.9995 13.0037 14.9995C12.5637 14.9995 12.2337 15.3395 12.2337 15.7495ZM15.3637 18.5795C15.3637 18.9995 15.7137 19.3495 16.1437 19.3495C16.5537 19.3495 16.8937 18.9995 16.8937 18.5795V15.7495C16.8937 15.3395 16.5537 14.9995 16.1437 14.9995C15.7137 14.9995 15.3637 15.3395 15.3637 15.7495ZM18.5137 18.5795C18.5137 18.9995 18.8537 19.3495 19.2737 19.3495C19.7037 19.3495 20.0437 18.9995 20.0437 18.5795V15.7495C20.0437 15.3395 19.7037 14.9995 19.2737 14.9995C18.8537 14.9995 18.5137 15.3395 18.5137 15.7495ZM21.6537 18.5795C21.6537 18.9995 21.9837 19.3495 22.4237 19.3495C22.8437 19.3495 23.1737 18.9995 23.1737 18.5795V15.7495C23.1737 15.3395 22.8437 14.9995 22.4237 14.9995C21.9837 14.9995 21.6537 15.3395 21.6537 15.7495ZM24.8037 18.5795C24.8037 18.9995 25.1337 19.3495 25.5637 19.3495C25.9737 19.3495 26.3137 18.9995 26.3137 18.5795V15.7495C26.3137 15.3395 25.9737 14.9995 25.5637 14.9995C25.1337 14.9995 24.8037 15.3395 24.8037 15.7495Z"
        fillRule="evenodd"
        clipRule="evenodd"
    />
</svg>
        