
<svg
    viewBox="0 0 31.458984375 22.88671875"
    xmlns="http://www.w3.org/2000/svg"
>
    <path
        fill="inherit"
        d="M5.4137 10.2508H26.0437C27.3337 10.2508 28.5037 10.5408 29.5137 11.0608L26.2537 3.1708C25.4037 1.1108 23.6137 0.0008 21.2437 0.0008H10.2137C7.8437 0.0008 6.0537 1.1108 5.2137 3.1708L1.9237 11.0608C2.9537 10.5408 4.1337 10.2508 5.4137 10.2508ZM5.4137 22.8908H26.0437C29.2437 22.8908 31.4637 20.6808 31.4637 17.5108C31.4637 14.3408 29.2437 12.1308 26.0437 12.1308H5.4137C2.2137 12.1308 0.0037 14.3408 0.0037 17.5108C0.0037 20.6808 2.2137 22.8908 5.4137 22.8908ZM11.7037 18.9608V16.0508C11.7037 15.6308 12.0437 15.2708 12.4937 15.2708C12.9237 15.2708 13.2737 15.6308 13.2737 16.0508V18.9608C13.2737 19.4008 12.9237 19.7608 12.4937 19.7608C12.0437 19.7608 11.7037 19.4008 11.7037 18.9608ZM14.9337 18.9608V16.0508C14.9337 15.6308 15.2837 15.2708 15.7337 15.2708C16.1637 15.2708 16.5137 15.6308 16.5137 16.0508V18.9608C16.5137 19.4008 16.1637 19.7608 15.7337 19.7608C15.2837 19.7608 14.9337 19.4008 14.9337 18.9608ZM18.1737 18.9608V16.0508C18.1737 15.6308 18.5237 15.2708 18.9637 15.2708C19.4037 15.2708 19.7537 15.6308 19.7537 16.0508V18.9608C19.7537 19.4008 19.4037 19.7608 18.9637 19.7608C18.5237 19.7608 18.1737 19.4008 18.1737 18.9608ZM21.4137 18.9608V16.0508C21.4137 15.6308 21.7537 15.2708 22.2037 15.2708C22.6437 15.2708 22.9837 15.6308 22.9837 16.0508V18.9608C22.9837 19.4008 22.6437 19.7608 22.2037 19.7608C21.7537 19.7608 21.4137 19.4008 21.4137 18.9608ZM24.6637 18.9608V16.0508C24.6637 15.6308 25.0037 15.2708 25.4537 15.2708C25.8837 15.2708 26.2237 15.6308 26.2237 16.0508V18.9608C26.2237 19.4008 25.8837 19.7608 25.4537 19.7608C25.0037 19.7608 24.6637 19.4008 24.6637 18.9608Z"
        fillRule="evenodd"
        clipRule="evenodd"
    />
</svg>
        