<svg viewBox="0 0 27.712890625 30.802734375" xmlns="http://www.w3.org/2000/svg"><path d="M3.7837 30.7993H7.7937C7.3137 30.2593 6.9737 29.5893 6.8337 28.8193L6.7937 28.5993H4.0637C2.8837 28.5993 2.2037 27.9493 2.2037 26.8193V3.9893C2.2037 2.8693 2.8837 2.1993 4.0637 2.1993H22.5837C22.2537 0.8893 21.0837 -0.0007 19.5237 -0.0007H3.7837C1.5137 -0.0007 0.0037 1.4593 0.0037 3.6193V27.1893C0.0037 29.3493 1.5137 30.7993 3.7837 30.7993ZM8.2337 27.5993C8.2337 29.5193 9.5837 30.7993 11.5637 30.7993H24.3637C26.3737 30.7993 27.7137 29.5193 27.7137 27.5993V7.5093C27.7137 5.5893 26.3737 4.3093 24.3637 4.3093H11.5637C9.5837 4.3093 8.2337 5.5893 8.2337 7.5093ZM10.4337 27.0393V8.0693C10.4337 7.1093 11.0437 6.5093 12.0537 6.5093H23.8837C24.8937 6.5093 25.5137 7.1093 25.5137 8.0693V27.0393C25.5137 28.0093 24.8937 28.5993 23.8837 28.5993H12.0537C11.0437 28.5993 10.4337 28.0093 10.4337 27.0393Z" /></svg>