<svg viewBox="0 0 32.23828125 28.387960462405374" xmlns="http://www.w3.org/2000/svg"><path d="M28.5237 28.0771C28.9337 28.4871 29.6137 28.4871 30.0137 28.0771C30.4237 27.6671 30.4337 26.9971 30.0237 26.5871L3.7637 0.3171C3.3537 -0.0929 2.6837 -0.1129 2.2537 0.3171C1.8637 0.7071 1.8637 1.4071 2.2537 1.8071ZM31.2137 25.5271C31.8937 24.8671 32.2337 23.8671 32.2337 22.5471V5.8471C32.2337 3.0371 30.8137 1.6071 27.9437 1.6071H7.3137L9.5137 3.8171H27.6037V21.9171ZM4.2937 26.7771H24.9637L22.7637 24.5771H4.6337V6.4471L1.0537 2.8571C0.3537 3.5071 0.0037 4.5071 0.0037 5.8471V22.5471C0.0037 25.3771 1.4337 26.7771 4.2937 26.7771ZM29.6837 15.3671C29.0237 15.3671 28.5237 14.8371 28.5237 14.1771C28.5237 13.5371 29.0437 12.9971 29.6937 12.9971C30.3537 12.9971 30.8737 13.5371 30.8737 14.1771C30.8737 14.8371 30.3537 15.3671 29.6837 15.3671ZM2.5037 14.9371C2.0937 14.9571 1.7537 14.5971 1.7337 14.1771C1.7237 13.7771 2.0737 13.4371 2.4837 13.4371C2.9137 13.4371 3.2437 13.7771 3.2437 14.1771C3.2437 14.5971 2.8937 14.9271 2.5037 14.9371Z" /></svg>