
<svg
    viewBox={0 0 32.23828125 28.387960462405374}
    xmlns="http://www.w3.org/2000/svg"
>
    <path
        fill="inherit"
        d="M28.4937 28.0771C28.9137 28.4871 29.5837 28.4871 29.9837 28.0771C30.3937 27.6671 30.4237 26.9971 29.9937 26.5871L3.7337 0.3171C3.3237 -0.0929 2.6537 -0.1129 2.2237 0.3171C1.8337 0.7071 1.8337 1.4071 2.2237 1.8071ZM31.2037 25.5371C31.8937 24.8771 32.2337 23.8871 32.2337 22.5471V5.8471C32.2337 3.0371 30.8137 1.6071 27.9437 1.6071H7.2837L9.4837 3.8171H27.9137C29.2737 3.8171 30.0337 4.5371 30.0337 5.9571V22.4371C30.0337 23.0671 29.8437 23.5271 29.4737 23.7971ZM4.2937 26.7771H24.9337L22.7337 24.5771H4.3237C2.9537 24.5771 2.2037 23.8571 2.2037 22.4371V5.9571C2.2037 5.3171 2.4037 4.8671 2.7637 4.5871L1.0437 2.8671C0.3437 3.5271 0.0037 4.5271 0.0037 5.8471V22.5471C0.0037 25.3771 1.4337 26.7771 4.2937 26.7771ZM10.8437 23.5271H21.4237L20.1537 22.2571H10.8437C10.4737 22.2571 10.2037 22.5171 10.2037 22.8971C10.2037 23.2771 10.4737 23.5271 10.8437 23.5271Z"
        fillRule="evenodd"
        clipRule="evenodd"
    />
</svg>
        