
<svg
    viewBox="0 0 32.23828125 25.169921875"
    xmlns="http://www.w3.org/2000/svg"
>
    <path
        fill="inherit"
        d="M4.2937 25.1655H27.9437C30.8137 25.1655 32.2337 23.7455 32.2337 20.9355V4.2355C32.2337 1.4255 30.8137 -0.0045 27.9437 -0.0045H4.2937C1.4337 -0.0045 0.0037 1.4055 0.0037 4.2355V20.9355C0.0037 23.7655 1.4337 25.1655 4.2937 25.1655ZM4.6337 22.9655V2.2055H27.6037V22.9655ZM29.6837 13.7555C29.0237 13.7555 28.5237 13.2255 28.5237 12.5655C28.5237 11.9255 29.0437 11.3855 29.6937 11.3855C30.3537 11.3855 30.8737 11.9255 30.8737 12.5655C30.8737 13.2255 30.3537 13.7555 29.6837 13.7555ZM2.5037 13.3255C2.0937 13.3455 1.7537 12.9855 1.7337 12.5655C1.7237 12.1655 2.0737 11.8255 2.4837 11.8255C2.9137 11.8255 3.2437 12.1655 3.2437 12.5655C3.2437 12.9855 2.8937 13.3155 2.5037 13.3255Z"
        fillRule="evenodd"
        clipRule="evenodd"
    />
</svg>
        