
<svg
    viewBox="0 0 22.845703125 30.802734375"
    xmlns="http://www.w3.org/2000/svg"
>
    <path
        fill="inherit"
        d="M0.0037 27.1893C0.0037 29.3493 1.5137 30.7993 3.7837 30.7993H19.0537C21.3237 30.7993 22.8437 29.3493 22.8437 27.1893V3.6193C22.8437 1.4593 21.3237 -0.0007 19.0537 -0.0007H3.7837C1.5137 -0.0007 0.0037 1.4593 0.0037 3.6193ZM9.6537 26.6193C9.1637 26.6193 8.7637 26.2093 8.7637 25.7193V5.0993C8.7637 4.6093 9.1637 4.1993 9.6537 4.1993C10.1437 4.1993 10.5537 4.6093 10.5537 5.0993V25.7193C10.5537 26.2093 10.1437 26.6193 9.6537 26.6193ZM16.6237 26.6193C16.1337 26.6193 15.7237 26.2093 15.7237 25.7193V5.0993C15.7237 4.6093 16.1337 4.1993 16.6237 4.1993C17.1137 4.1993 17.5137 4.6093 17.5137 5.0993V25.7193C17.5137 26.2093 17.1137 26.6193 16.6237 26.6193Z"
        fillRule="evenodd"
        clipRule="evenodd"
    />
</svg>
        