<svg viewBox="0 0 28.30078125 30.802734375" xmlns="http://www.w3.org/2000/svg"><path d="M7.6588 19.0593H5.4588V27.1893C5.4588 29.3493 6.9888 30.7993 9.2388 30.7993H24.5088C26.7788 30.7993 28.2988 29.3493 28.2988 27.1893V3.6193C28.2988 1.4593 26.7788 -0.0007 24.5088 -0.0007H9.2388C6.9888 -0.0007 5.4588 1.4593 5.4588 3.6193V11.7393H7.6588V3.9893C7.6588 2.8693 8.3487 2.1993 9.5287 2.1993H24.2388C25.4188 2.1993 26.0988 2.8693 26.0988 3.9893V26.8193C26.0988 27.9493 25.4188 28.5993 24.2388 28.5993H9.5287C8.3487 28.5993 7.6588 27.9493 7.6588 26.8193ZM-0.0012 15.3993C-0.0012 15.9793 0.4888 16.4893 1.0688 16.4893H12.0288L14.0688 16.3893L13.2588 17.1693L11.0087 19.2793C10.7888 19.4693 10.6788 19.7693 10.6788 20.0293C10.6788 20.5993 11.0887 21.0093 11.6388 21.0093C11.9388 21.0093 12.1588 20.8993 12.3588 20.6993L16.7088 16.1893C16.9787 15.9093 17.0588 15.6793 17.0588 15.3993C17.0588 15.1193 16.9787 14.8793 16.7088 14.5993L12.3588 10.0993C12.1588 9.8993 11.9388 9.7793 11.6388 9.7793C11.0887 9.7793 10.6788 10.2093 10.6788 10.7693C10.6788 11.0293 10.7888 11.3193 11.0087 11.5093L13.2588 13.6293L14.0688 14.3993L12.0288 14.3193H1.0688C0.4888 14.3193 -0.0012 14.8093 -0.0012 15.3993Z" /></svg>