
<svg
    viewBox="0 0 27.988226091438243 30.802734375"
    xmlns="http://www.w3.org/2000/svg"
>
    <path
        fill="inherit"
        d="M25.4306 23.1093V3.6193C25.4306 1.4593 23.8906 -0.0007 21.6406 -0.0007H6.3706C5.1206 -0.0007 4.1506 0.4193 3.5206 1.1993L6.9706 4.6493H23.2206V20.8993ZM26.1806 29.1193C26.6006 29.5493 27.2706 29.5493 27.6706 29.1193C28.0806 28.7093 28.1106 28.0593 27.6806 27.6293L1.8006 1.7393C1.3906 1.3293 0.7206 1.3093 0.3006 1.7393C-0.0994 2.1293 -0.0994 2.8193 0.3006 3.2293ZM14.0006 3.2493C13.5906 3.2493 13.2606 2.9093 13.2606 2.4993C13.2606 2.1093 13.5906 1.7493 14.0006 1.7493C14.4106 1.7493 14.7506 2.1093 14.7506 2.4993C14.7506 2.9093 14.4106 3.2493 14.0006 3.2493ZM6.3706 30.7993H21.6406C22.8406 30.7993 23.8106 30.3793 24.4306 29.6293L20.9706 26.1693H4.7806V9.9693L2.5806 7.7693V27.1893C2.5806 29.3493 4.1006 30.7993 6.3706 30.7993ZM14.0206 29.4493C13.3506 29.4493 12.8206 28.9193 12.8206 28.2593C12.8206 27.6193 13.3506 27.0793 14.0206 27.0793C14.6706 27.0793 15.2006 27.6193 15.2006 28.2593C15.2006 28.9193 14.6706 29.4493 14.0206 29.4493Z"
        fillRule="evenodd"
        clipRule="evenodd"
    />
</svg>
        