<svg viewBox="0 0 22.845703125 30.802734375" xmlns="http://www.w3.org/2000/svg"><path d="M3.7837 30.7993H19.0537C21.3237 30.7993 22.8437 29.3493 22.8437 27.1893V3.6193C22.8437 1.4593 21.3237 -0.0007 19.0537 -0.0007H3.7837C1.5137 -0.0007 0.0037 1.4593 0.0037 3.6193V27.1893C0.0037 29.3493 1.5137 30.7993 3.7837 30.7993ZM11.4137 3.2493C11.0037 3.2493 10.6737 2.9093 10.6737 2.4993C10.6737 2.1093 11.0037 1.7493 11.4137 1.7493C11.8237 1.7493 12.1637 2.1093 12.1637 2.4993C12.1637 2.9093 11.8237 3.2493 11.4137 3.2493ZM2.2037 26.1693V4.6493H20.6437V26.1693ZM11.4437 29.4493C10.7737 29.4493 10.2537 28.9193 10.2537 28.2593C10.2537 27.6193 10.7737 27.0793 11.4437 27.0793C12.0837 27.0793 12.6237 27.6193 12.6237 28.2593C12.6237 28.9193 12.0837 29.4493 11.4437 29.4493Z" /></svg>