
<svg
    viewBox="0 0 27.988226091438243 30.802734375"
    xmlns="http://www.w3.org/2000/svg"
>
    <path
        fill="inherit"
        d="M25.4306 23.1193V3.6193C25.4306 1.4593 23.8906 -0.0007 21.6406 -0.0007H6.3706C5.1406 -0.0007 4.1506 0.4193 3.5206 1.1993L5.2106 2.8893C5.4806 2.4493 5.9706 2.1993 6.6406 2.1993H21.3506C22.5306 2.1993 23.2206 2.8693 23.2206 3.9893V20.9193ZM26.1806 29.1193C26.6006 29.5493 27.2706 29.5493 27.6706 29.1193C28.0806 28.7093 28.1106 28.0593 27.6806 27.6293L1.8006 1.7393C1.3906 1.3293 0.7206 1.3093 0.3006 1.7393C-0.0994 2.1293 -0.0994 2.8193 0.3006 3.2293ZM6.3706 30.7993H21.6406C22.8606 30.7993 23.8106 30.3893 24.4406 29.6393L22.7606 27.9593C22.4906 28.3793 22.0206 28.5993 21.3506 28.5993H6.6406C5.4606 28.5993 4.7806 27.9493 4.7806 26.8193V9.9693L2.5806 7.7693V27.1893C2.5806 29.3493 4.1006 30.7993 6.3706 30.7993ZM10.1306 27.5593H17.8806C18.2506 27.5593 18.5206 27.2993 18.5206 26.9193C18.5206 26.5393 18.2506 26.2893 17.8806 26.2893H10.1306C9.7606 26.2893 9.5006 26.5393 9.5006 26.9193C9.5006 27.2993 9.7606 27.5593 10.1306 27.5593Z"
        fillRule="evenodd"
        clipRule="evenodd"
    />
</svg>
        