
<svg
    viewBox={0 0 22.845703125 30.802734375}
    xmlns="http://www.w3.org/2000/svg"
>
    <path
        fill="inherit"
        d="M0.0037 27.1893C0.0037 29.3493 1.5137 30.7993 3.7837 30.7993H19.0537C21.3237 30.7993 22.8437 29.3493 22.8437 27.1893V3.6193C22.8437 1.4593 21.3237 -0.0007 19.0537 -0.0007H3.7837C1.5137 -0.0007 0.0037 1.4593 0.0037 3.6193ZM2.2037 26.8193V3.9893C2.2037 2.8693 2.8837 2.1993 4.0637 2.1993H18.7837C19.9437 2.1993 20.6437 2.8693 20.6437 3.9893V26.8193C20.6437 27.9493 19.9437 28.5993 18.7837 28.5993H4.0637C2.8837 28.5993 2.2037 27.9493 2.2037 26.8193ZM5.7137 7.4393C6.6337 7.4393 7.4337 6.6493 7.4337 5.6693C7.4337 4.7393 6.6337 3.9493 5.7137 3.9493C4.7437 3.9493 3.9537 4.7393 3.9537 5.6693C3.9537 6.6493 4.7437 7.4393 5.7137 7.4393Z"
        fillRule="evenodd"
        clipRule="evenodd"
    />
</svg>
        