
<svg
    viewBox={0 0 32.23828125 25.169921875}
    xmlns="http://www.w3.org/2000/svg"
>
    <path
        fill="inherit"
        d="M4.2937 25.1655H27.9437C30.8137 25.1655 32.2337 23.7455 32.2337 20.9355V4.2355C32.2337 1.4255 30.8137 -0.0045 27.9437 -0.0045H4.2937C1.4337 -0.0045 0.0037 1.4055 0.0037 4.2355V20.9355C0.0037 23.7655 1.4337 25.1655 4.2937 25.1655ZM4.3237 22.9655C2.9537 22.9655 2.2037 22.2455 2.2037 20.8255V4.3455C2.2037 2.9255 2.9537 2.2055 4.3237 2.2055H27.9137C29.2737 2.2055 30.0337 2.9255 30.0337 4.3455V20.8255C30.0337 22.2455 29.2737 22.9655 27.9137 22.9655ZM10.8437 21.9155H21.4137C21.7837 21.9155 22.0437 21.6655 22.0437 21.2855C22.0437 20.9055 21.7837 20.6455 21.4137 20.6455H10.8437C10.4737 20.6455 10.2037 20.9055 10.2037 21.2855C10.2037 21.6655 10.4737 21.9155 10.8437 21.9155Z"
        fillRule="evenodd"
        clipRule="evenodd"
    />
</svg>
        