
<svg
    viewBox="0 0 25.443359375 30.802734375"
    xmlns="http://www.w3.org/2000/svg"
>
    <path
        fill="inherit"
        d="M3.7837 30.7993H13.1137C12.5637 30.1193 12.2737 29.1993 12.2737 28.1593V14.5593C12.2737 12.4293 13.4937 10.8693 15.6137 10.4893H15.7237V5.0993C15.7237 4.6093 16.1337 4.1993 16.6237 4.1993C17.1137 4.1993 17.5137 4.6093 17.5137 5.0993V10.3893H22.8437V3.6193C22.8437 1.4593 21.3237 -0.0007 19.0537 -0.0007H3.7837C1.5137 -0.0007 0.0037 1.4593 0.0037 3.6193V27.1893C0.0037 29.3493 1.5137 30.7993 3.7837 30.7993ZM9.6537 26.6193C9.1637 26.6193 8.7637 26.2093 8.7637 25.7193V5.0993C8.7637 4.6093 9.1637 4.1993 9.6537 4.1993C10.1437 4.1993 10.5537 4.6093 10.5537 5.0993V25.7193C10.5537 26.2093 10.1437 26.6193 9.6537 26.6193ZM16.5437 30.7193H22.7637C24.4637 30.7193 25.4437 29.7893 25.4437 28.1593V14.5593C25.4437 12.9293 24.4637 11.9893 22.7637 11.9893H16.5437C14.8437 11.9893 13.8737 12.9293 13.8737 14.5593V28.1593C13.8737 29.7893 14.8437 30.7193 16.5437 30.7193ZM16.3837 17.3593C15.7137 17.3593 15.3237 17.0093 15.3237 16.3793V14.5293C15.3237 13.9493 15.7137 13.5493 16.3837 13.5493H18.0837C18.7537 13.5493 19.1437 13.9493 19.1437 14.5293V16.3793C19.1437 17.0093 18.7537 17.3593 18.0837 17.3593Z"
        fillRule="evenodd"
        clipRule="evenodd"
    />
</svg>
        