
<svg
    viewBox={0 0 27.890625 27.890625}
    xmlns="http://www.w3.org/2000/svg"
>
    <path
        fill="inherit"
        d="M13.9427 27.8927C21.6427 27.8927 27.8927 21.6427 27.8927 13.9427C27.8927 6.2627 21.6427 0.0027 13.9427 0.0027C6.2627 0.0027 0.0027 6.2627 0.0027 13.9427C0.0027 21.6427 6.2627 27.8927 13.9427 27.8927ZM10.8527 22.8427C9.4727 22.8427 8.5627 21.9527 8.5627 20.6127V7.2727C8.5627 5.9227 9.4727 5.0427 10.8527 5.0427H17.0227C18.4027 5.0427 19.3327 5.9227 19.3327 7.2727V20.6127C19.3327 21.9527 18.4027 22.8427 17.0227 22.8427ZM11.0327 21.4627H16.8527C17.5727 21.4627 17.9627 21.0827 17.9627 20.4127V7.4827C17.9627 6.8127 17.5727 6.4227 16.8527 6.4227H15.8427C15.7227 6.4227 15.6727 6.4827 15.6727 6.6027V6.7927C15.6727 7.1627 15.4227 7.3927 15.0827 7.3927H12.7927C12.4527 7.3927 12.2227 7.1627 12.2227 6.7927V6.6027C12.2227 6.4827 12.1727 6.4227 12.0427 6.4227H11.0327C10.3127 6.4227 9.9227 6.8127 9.9227 7.4827V20.4127C9.9227 21.0827 10.3127 21.4627 11.0327 21.4627ZM12.1827 20.8527C11.9527 20.8527 11.7727 20.6827 11.7727 20.4527C11.7727 20.1927 11.9527 20.0327 12.1827 20.0327H15.7127C15.9427 20.0327 16.1227 20.1927 16.1227 20.4527C16.1227 20.6827 15.9427 20.8527 15.7127 20.8527Z"
        fillRule="evenodd"
        clipRule="evenodd"
    />
</svg>
        