<svg viewBox="0 0 28.970703125 24.756389674810755" xmlns="http://www.w3.org/2000/svg"><path d="M25.0737 24.4478C25.4837 24.8678 26.1537 24.8578 26.5637 24.4478C26.9637 24.0478 26.9737 23.3778 26.5637 22.9578L3.8937 0.3078C3.4837 -0.1022 2.8137 -0.1122 2.3937 0.3078C1.9937 0.7078 1.9937 1.4078 2.3937 1.8078ZM26.6337 20.7778H26.7737C28.1537 20.2978 28.9737 19.0678 28.9737 17.3778V7.2478C28.9737 5.0178 27.5337 3.5278 25.4037 3.5278H9.3837L11.5837 5.7278H24.3237V18.3078H24.1437ZM3.5537 21.1078H19.4737L17.2537 18.9078H4.6337V6.4778H4.8137L2.2237 3.9078H2.0937C0.7637 4.3978 0.0037 5.5878 0.0037 7.2478V17.3778C0.0037 19.6078 1.4237 21.1078 3.5537 21.1078ZM2.3937 14.8978C2.0737 14.8978 1.8837 14.6978 1.8837 14.3978V10.2278C1.8837 9.9278 2.0737 9.7178 2.3937 9.7178C2.7037 9.7178 2.9137 9.9278 2.9137 10.2278V14.3978C2.9137 14.6978 2.7037 14.8978 2.3937 14.8978ZM26.4137 13.4878C25.7737 13.4878 25.2337 12.9578 25.2337 12.3078C25.2337 11.6478 25.7737 11.1278 26.4137 11.1278C27.0837 11.1278 27.6037 11.6478 27.6037 12.3078C27.6037 12.9578 27.0837 13.4878 26.4137 13.4878Z" /></svg>