
<svg
    viewBox={0 0 27.890625 30.54296875}
    xmlns="http://www.w3.org/2000/svg"
>
    <path
        fill="inherit"
        d="M1.0937 6.9426C1.8137 6.9426 2.2037 6.5526 2.2037 5.8226V4.3526C2.2037 2.9226 2.9537 2.2026 4.3237 2.2026H5.8937C6.6037 2.2026 7.0037 1.8026 7.0037 1.0926C7.0037 0.3926 6.6037 0.0026 5.8937 0.0026H4.2937C1.4337 0.0026 0.0037 1.4126 0.0037 4.2226V5.8226C0.0037 6.5526 0.3937 6.9426 1.0937 6.9426ZM26.7837 6.9426C27.4937 6.9426 27.8937 6.5526 27.8937 5.8226V4.2226C27.8937 1.4126 26.4437 0.0026 23.5937 0.0026H21.9937C21.2737 0.0026 20.8737 0.3926 20.8737 1.0926C20.8737 1.8026 21.2737 2.2026 21.9937 2.2026H23.5537C24.9137 2.2026 25.6937 2.9226 25.6937 4.3526V5.8226C25.6937 6.5526 26.0737 6.9426 26.7837 6.9426ZM9.8837 30.5426H18.0237C19.5637 30.5426 20.5337 29.5826 20.5337 28.0926V26.0626C20.5337 24.5526 19.5637 23.6026 18.0237 23.6026H14.9537V16.9026C18.2837 16.4026 20.8037 13.5626 20.8037 10.1026C20.8037 6.3126 17.7637 3.2526 13.9637 3.2526C10.1737 3.2526 7.0937 6.3126 7.0937 10.1026C7.0937 13.5926 9.4637 16.4426 12.9637 16.9026V23.6026H9.8837C8.3537 23.6026 7.3837 24.5526 7.3837 26.0626V28.0926C7.3837 29.5826 8.3537 30.5426 9.8837 30.5426ZM13.9637 15.0426C11.0337 15.0426 9.0237 12.8526 9.0237 10.1026C9.0237 7.3826 11.2237 5.1826 13.9637 5.1826C16.6937 5.1826 18.8837 7.3826 18.8837 10.1026C18.8837 12.8526 16.6937 15.0426 13.9637 15.0426ZM4.2937 20.1926H5.8937C6.6037 20.1926 7.0037 19.7926 7.0037 19.0826C7.0037 18.3926 6.6037 17.9926 5.8937 17.9926H4.3237C2.9537 17.9926 2.2037 17.2526 2.2037 15.8326V14.3526C2.2037 13.6326 1.8137 13.2326 1.0937 13.2326C0.3937 13.2326 0.0037 13.6326 0.0037 14.3526V15.9526C0.0037 18.7726 1.4337 20.1926 4.2937 20.1926ZM21.9937 20.1926H23.5937C26.4437 20.1926 27.8937 18.7726 27.8937 15.9526V14.3526C27.8937 13.6326 27.4937 13.2326 26.7837 13.2326C26.0737 13.2326 25.6937 13.6326 25.6937 14.3526V15.8326C25.6937 17.2526 24.9137 17.9926 23.5537 17.9926H21.9937C21.2737 17.9926 20.8737 18.3926 20.8737 19.0826C20.8737 19.7926 21.2737 20.1926 21.9937 20.1926ZM10.2037 28.5326C9.7037 28.5326 9.3937 28.2026 9.3937 27.7026V26.4426C9.3937 25.9326 9.7037 25.5826 10.2037 25.5826H17.7037C18.1937 25.5826 18.5537 25.9326 18.5537 26.4426V27.7026C18.5537 28.2026 18.1937 28.5326 17.7037 28.5326Z"
        fillRule="evenodd"
        clipRule="evenodd"
    />
</svg>
        