<svg viewBox="0 0 17.568359375 28.943359375" xmlns="http://www.w3.org/2000/svg"><path d="M0.0037 25.3896C0.0037 27.5196 1.4937 28.9396 3.7237 28.9396H13.8537C16.0737 28.9396 17.5637 27.5196 17.5637 25.3896V3.5596C17.5637 1.4196 16.0737 -0.0004 13.8537 -0.0004H3.7237C1.4937 -0.0004 0.0037 1.4196 0.0037 3.5596ZM2.2037 25.0296V3.9096C2.2037 2.8196 2.8437 2.1996 4.0037 2.1996H13.5737C14.7237 2.1996 15.3637 2.8196 15.3637 3.9096V25.0296C15.3637 26.1296 14.7237 26.7396 13.5737 26.7396H4.0037C2.8437 26.7396 2.2037 26.1296 2.2037 25.0296ZM5.7137 7.4196C6.6337 7.4196 7.4237 6.6296 7.4237 5.6596C7.4237 4.7296 6.6337 3.9396 5.7137 3.9396C4.7337 3.9396 3.9537 4.7296 3.9537 5.6596C3.9537 6.6296 4.7337 7.4196 5.7137 7.4196Z" /></svg>