
<svg
    viewBox={0 0 27.890625 27.890625}
    xmlns="http://www.w3.org/2000/svg"
>
    <path
        fill="inherit"
        d="M13.9427 27.8927C21.6427 27.8927 27.8927 21.6427 27.8927 13.9427C27.8927 6.2627 21.6427 0.0027 13.9427 0.0027C6.2627 0.0027 0.0027 6.2627 0.0027 13.9427C0.0027 21.6427 6.2627 27.8927 13.9427 27.8927ZM8.5627 20.6427V7.2627C8.5627 5.9327 9.4727 5.0627 10.8527 5.0627H17.0327C18.4127 5.0627 19.3327 5.9327 19.3327 7.2627V20.6427C19.3327 21.9527 18.4127 22.8427 17.0327 22.8427H10.8527C9.4727 22.8427 8.5627 21.9527 8.5627 20.6427ZM12.3327 6.5527C12.3327 6.7427 12.4827 6.8927 12.6727 6.8927H15.2327C15.4227 6.8927 15.5627 6.7427 15.5627 6.5527C15.5627 6.3327 15.4227 6.2027 15.2327 6.2027H12.6727C12.4827 6.2027 12.3327 6.3327 12.3327 6.5527ZM9.9427 19.9727H17.9527V7.9327H9.9427ZM13.9627 21.9827C14.3427 21.9827 14.6527 21.6527 14.6527 21.2627C14.6527 20.8727 14.3427 20.5327 13.9627 20.5327C13.5627 20.5327 13.2327 20.8727 13.2327 21.2627C13.2327 21.6527 13.5627 21.9827 13.9627 21.9827Z"
        fillRule="evenodd"
        clipRule="evenodd"
    />
</svg>
        