
<svg
    viewBox="0 0 31.978515625 28.95703125"
    xmlns="http://www.w3.org/2000/svg"
>
    <path
        fill="inherit"
        d="M14.4103 25.3996C14.4103 27.5396 15.9003 28.9596 18.1303 28.9596H28.2603C30.4903 28.9596 31.9803 27.5396 31.9803 25.3996V3.5596C31.9803 1.4196 30.4903 -0.0004 28.2603 -0.0004H18.1303C15.9003 -0.0004 14.4103 1.4196 14.4103 3.5596ZM20.6003 2.3896C20.6003 2.0796 20.8203 1.8696 21.1203 1.8696H25.2803C25.5803 1.8696 25.8003 2.0796 25.8003 2.3896C25.8003 2.7096 25.5803 2.8996 25.2803 2.8996H21.1203C20.8203 2.8996 20.6003 2.7096 20.6003 2.3896ZM16.6103 24.3196V4.6396H29.7803V24.3196ZM0.0003 9.1696C0.0003 9.7596 0.4803 10.2296 1.0703 10.2296H6.4403V12.5196C6.4403 13.5396 7.4803 13.9696 8.2303 13.2996L12.0403 9.9396C12.5603 9.4896 12.5603 8.8496 12.0403 8.3896L8.2303 5.0196C7.5203 4.3796 6.4403 4.7396 6.4403 5.8096V8.1096H1.0703C0.4803 8.1096 0.0003 8.5896 0.0003 9.1696ZM23.2103 27.5996C22.5603 27.5996 22.0303 27.0696 22.0303 26.4096C22.0303 25.7696 22.5603 25.2396 23.2103 25.2396C23.8603 25.2396 24.3903 25.7696 24.3903 26.4096C24.3903 27.0696 23.8603 27.5996 23.2103 27.5996Z"
        fillRule="evenodd"
        clipRule="evenodd"
    />
</svg>
        