
<svg
    viewBox={0 0 25.89453125 28.943359375}
    xmlns="http://www.w3.org/2000/svg"
>
    <path
        fill="inherit"
        d="M17.5637 18.1196H15.3637V25.0296C15.3637 26.1296 14.7237 26.7396 13.5737 26.7396H4.0037C2.8437 26.7396 2.2037 26.1296 2.2037 25.0296V3.9096C2.2037 2.8196 2.8437 2.1996 4.0037 2.1996H13.5737C14.7237 2.1996 15.3637 2.8196 15.3637 3.9096V10.8096H17.5637V3.5596C17.5637 1.4196 16.0737 -0.0004 13.8537 -0.0004H3.7237C1.4937 -0.0004 0.0037 1.4196 0.0037 3.5596V25.3896C0.0037 27.5196 1.4937 28.9396 3.7237 28.9396H13.8537C16.0737 28.9396 17.5637 27.5196 17.5637 25.3896ZM8.8137 14.4696C8.8137 15.0496 9.3137 15.5496 9.8837 15.5496H20.8537L22.9037 15.4596L22.0837 16.2396L19.8237 18.3496C19.6037 18.5396 19.4937 18.8396 19.4937 19.0996C19.4937 19.6696 19.9037 20.0796 20.4637 20.0796C20.7537 20.0796 20.9737 19.9696 21.1737 19.7696L25.5237 15.2596C25.8037 14.9796 25.8937 14.7396 25.8937 14.4696C25.8937 14.1796 25.8037 13.9496 25.5237 13.6696L21.1737 9.1596C20.9737 8.9596 20.7537 8.8496 20.4637 8.8496C19.9037 8.8496 19.4937 9.2696 19.4937 9.8396C19.4937 10.0996 19.6037 10.3896 19.8237 10.5796L22.0837 12.6896L22.8837 13.4696L20.8537 13.3696H9.8837C9.3137 13.3696 8.8137 13.8796 8.8137 14.4696Z"
        fillRule="evenodd"
        clipRule="evenodd"
    />
</svg>
        