
<svg
    viewBox="0 0 27.890625 27.890625"
    xmlns="http://www.w3.org/2000/svg"
>
    <path
        fill="inherit"
        d="M13.9427 27.8864C21.6427 27.8864 27.8927 21.6464 27.8927 13.9464C27.8927 6.2464 21.6427 -0.0036 13.9427 -0.0036C6.2527 -0.0036 0.0027 6.2464 0.0027 13.9464C0.0027 21.6464 6.2527 27.8864 13.9427 27.8864ZM13.9427 25.5664C7.5227 25.5664 2.3227 20.3664 2.3227 13.9464C2.3227 7.5164 7.5227 2.3264 13.9427 2.3264C20.3727 2.3264 25.5627 7.5164 25.5627 13.9464C25.5627 20.3664 20.3727 25.5664 13.9427 25.5664ZM8.7227 20.4264C8.7227 21.7064 9.6127 22.5764 10.9527 22.5764H16.9427C18.2827 22.5764 19.1727 21.7064 19.1727 20.4264V7.4664C19.1727 6.1764 18.2827 5.3164 16.9427 5.3164H10.9527C9.6127 5.3164 8.7227 6.1764 8.7227 7.4664ZM12.3827 6.7664C12.3827 6.5664 12.5227 6.4364 12.7127 6.4364H15.1927C15.3827 6.4364 15.5027 6.5664 15.5027 6.7664C15.5027 6.9564 15.3827 7.0964 15.1927 7.0964H12.7127C12.5227 7.0964 12.3827 6.9564 12.3827 6.7664ZM10.0627 19.7864V8.1064H17.8327V19.7864ZM13.9627 21.7364C13.5727 21.7364 13.2627 21.4264 13.2627 21.0364C13.2627 20.6564 13.5727 20.3464 13.9627 20.3464C14.3327 20.3464 14.6327 20.6564 14.6327 21.0364C14.6327 21.4264 14.3327 21.7364 13.9627 21.7364Z"
        fillRule="evenodd"
        clipRule="evenodd"
    />
</svg>
        