
<svg
    viewBox="0 0 27.890625 27.890625"
    xmlns="http://www.w3.org/2000/svg"
>
    <path
        fill="inherit"
        d="M13.9427 27.8927C21.6427 27.8927 27.8927 21.6427 27.8927 13.9427C27.8927 6.2627 21.6427 0.0027 13.9427 0.0027C6.2627 0.0027 0.0027 6.2627 0.0027 13.9427C0.0027 21.6427 6.2627 27.8927 13.9427 27.8927ZM19.3327 16.9027L17.9627 15.5327V7.4827C17.9627 6.8127 17.5827 6.4227 16.8527 6.4227H15.8427C15.7227 6.4227 15.6727 6.4827 15.6727 6.6027V6.7927C15.6727 7.1627 15.4327 7.3927 15.0927 7.3927H12.8227C12.4727 7.3927 12.2227 7.1627 12.2227 6.7927V6.6027C12.2227 6.4827 12.1827 6.4227 12.0427 6.4227H11.0427C10.3727 6.4227 10.0127 6.7527 9.9527 7.3127V7.5227L8.8327 6.3827V6.3427C9.1327 5.5327 9.8427 5.0427 10.8727 5.0427H17.0327C18.4127 5.0427 19.3327 5.9227 19.3327 7.2727ZM20.2327 21.1327L6.7227 7.6427C6.4927 7.4127 6.4927 7.0027 6.7227 6.7427C6.9827 6.4927 7.3927 6.4927 7.6427 6.7427L21.1327 20.2327C21.3827 20.4827 21.3827 20.8627 21.1327 21.1327C20.8727 21.3727 20.4627 21.3727 20.2327 21.1327ZM10.8727 22.8427C9.4927 22.8427 8.5727 21.9527 8.5727 20.6127V11.0227L9.9427 12.4027V20.4127C9.9427 21.0827 10.3227 21.4627 11.0427 21.4627H16.8527C17.5027 21.4627 17.8527 21.1727 17.9527 20.6327V20.4127L19.0427 21.5027V21.5727C18.7327 22.3827 18.0327 22.8427 17.0327 22.8427ZM12.1927 20.8527C11.9627 20.8527 11.7827 20.6827 11.7827 20.4527C11.7827 20.1927 11.9627 20.0327 12.1927 20.0327H15.7227C15.9727 20.0327 16.1227 20.1927 16.1227 20.4527C16.1227 20.6827 15.9727 20.8527 15.7227 20.8527Z"
        fillRule="evenodd"
        clipRule="evenodd"
    />
</svg>
        