
<svg
    viewBox={0 0 17.568359375 28.943359375}
    xmlns="http://www.w3.org/2000/svg"
>
    <path
        fill="inherit"
        d="M3.7237 28.9396H13.8537C16.0737 28.9396 17.5637 27.5196 17.5637 25.3896V3.5596C17.5637 1.4196 16.0737 -0.0004 13.8537 -0.0004H3.7237C1.4937 -0.0004 0.0037 1.4196 0.0037 3.5596V25.3896C0.0037 27.5196 1.4937 28.9396 3.7237 28.9396ZM4.0037 26.7396C2.8437 26.7396 2.2037 26.1296 2.2037 25.0296V3.9096C2.2037 2.8196 2.8437 2.1996 4.0037 2.1996H5.7537C5.9737 2.1996 6.0837 2.3096 6.0837 2.5196V2.8296C6.0837 3.3996 6.4637 3.7896 7.0237 3.7896H10.5537C11.1337 3.7896 11.4937 3.3996 11.4937 2.8296V2.5196C11.4937 2.3096 11.6037 2.1996 11.8237 2.1996H13.5737C14.7237 2.1996 15.3637 2.8196 15.3637 3.9096V25.0296C15.3637 26.1296 14.7237 26.7396 13.5737 26.7396ZM5.8937 25.7396H11.7037C12.0737 25.7396 12.3337 25.4796 12.3337 25.0996C12.3337 24.7196 12.0737 24.4696 11.7037 24.4696H5.8937C5.5237 24.4696 5.2537 24.7196 5.2537 25.0996C5.2537 25.4796 5.5237 25.7396 5.8937 25.7396Z"
        fillRule="evenodd"
        clipRule="evenodd"
    />
</svg>
        