
<svg
    viewBox={0 0 43.72265625 28.95703125}
    xmlns="http://www.w3.org/2000/svg"
>
    <path
        fill="inherit"
        d="M13.0827 25.3996C13.0827 27.5396 14.5727 28.9596 16.8027 28.9596H26.9327C29.1627 28.9596 30.6527 27.5396 30.6527 25.3996V3.5596C30.6527 1.4196 29.1627 -0.0004 26.9327 -0.0004H16.8027C14.5727 -0.0004 13.0827 1.4196 13.0827 3.5596ZM19.2727 2.3896C19.2727 2.0796 19.4927 1.8696 19.7927 1.8696H23.9527C24.2627 1.8696 24.4727 2.0796 24.4727 2.3896C24.4727 2.7096 24.2627 2.8996 23.9527 2.8996H19.7927C19.4927 2.8996 19.2727 2.7096 19.2727 2.3896ZM15.2827 24.3196V4.6396H28.4527V24.3196ZM38.4427 23.8296C38.8827 24.3396 39.6527 24.3396 40.1827 23.7596C42.4527 21.2896 43.7227 18.0196 43.7227 14.4796C43.7227 10.9396 42.4527 7.6596 40.1827 5.1996C39.6527 4.6196 38.8827 4.6096 38.4427 5.1296C38.0127 5.6196 38.1427 6.2596 38.6327 6.8196C40.4727 8.8596 41.4927 11.5396 41.4927 14.4796C41.4927 17.4196 40.4727 20.0996 38.6327 22.1396C38.1427 22.6996 38.0127 23.3396 38.4427 23.8296ZM5.2727 23.8296C5.7127 23.3396 5.5827 22.6996 5.0827 22.1396C3.2527 20.0996 2.2327 17.4196 2.2327 14.4796C2.2327 11.5396 3.2527 8.8596 5.0827 6.8196C5.5827 6.2596 5.7127 5.6196 5.2727 5.1296C4.8427 4.6096 4.0727 4.6196 3.5527 5.1996C1.2827 7.6596 0.0027 10.9396 0.0027 14.4796C0.0027 18.0196 1.2827 21.2896 3.5527 23.7596C4.0727 24.3396 4.8427 24.3396 5.2727 23.8296ZM9.1027 19.9296C9.5427 19.4396 9.3627 18.8296 8.9327 18.2396C8.1027 17.2096 7.7127 15.8996 7.7127 14.4796C7.7127 13.0596 8.1027 11.7296 8.9327 10.7196C9.3627 10.1296 9.5427 9.5196 9.1027 9.0196C8.6527 8.4996 7.8327 8.4996 7.3527 9.1196C6.1627 10.5996 5.4827 12.4696 5.4827 14.4796C5.4827 16.4896 6.1627 18.3596 7.3527 19.8396C7.8327 20.4496 8.6527 20.4396 9.1027 19.9296ZM34.6127 19.9296C35.0727 20.4396 35.8927 20.4496 36.3627 19.8396C37.5527 18.3596 38.2527 16.4896 38.2527 14.4796C38.2527 12.4696 37.5527 10.5996 36.3627 9.1196C35.8927 8.4996 35.0727 8.4996 34.6127 9.0196C34.1827 9.5196 34.3727 10.1296 34.7927 10.7196C35.6127 11.7296 36.0227 13.0596 36.0227 14.4796C36.0227 15.8996 35.6127 17.2096 34.7927 18.2396C34.3727 18.8296 34.1827 19.4396 34.6127 19.9296ZM21.8927 27.5996C21.2327 27.5996 20.7027 27.0696 20.7027 26.4096C20.7027 25.7696 21.2327 25.2396 21.8927 25.2396C22.5327 25.2396 23.0627 25.7696 23.0627 26.4096C23.0627 27.0696 22.5327 27.5996 21.8927 27.5996Z"
        fillRule="evenodd"
        clipRule="evenodd"
    />
</svg>
        