
<svg
    viewBox={0 0 23.0234375 28.943359375}
    xmlns="http://www.w3.org/2000/svg"
>
    <path
        fill="inherit"
        d="M7.6588 18.1196H5.4588V25.3896C5.4588 27.5196 6.9488 28.9396 9.1788 28.9396H19.3088C21.5288 28.9396 23.0188 27.5196 23.0188 25.3896V3.5596C23.0188 1.4196 21.5288 -0.0004 19.3088 -0.0004H9.1788C6.9488 -0.0004 5.4588 1.4196 5.4588 3.5596V10.8096H7.6588V3.9096C7.6588 2.8196 8.2988 2.1996 9.4588 2.1996H19.0288C20.1788 2.1996 20.8188 2.8196 20.8188 3.9096V25.0296C20.8188 26.1296 20.1788 26.7396 19.0288 26.7396H9.4588C8.2988 26.7396 7.6588 26.1296 7.6588 25.0296ZM-0.0013 14.4696C-0.0013 15.0496 0.4788 15.5496 1.0488 15.5496H12.0188L14.0688 15.4596L13.2588 16.2396L11.0087 18.3496C10.7888 18.5396 10.6788 18.8396 10.6788 19.0996C10.6788 19.6696 11.0788 20.0796 11.6388 20.0796C11.9188 20.0796 12.1588 19.9696 12.3588 19.7696L16.6888 15.2596C16.9788 14.9796 17.0588 14.7396 17.0588 14.4696C17.0588 14.1796 16.9788 13.9496 16.6888 13.6696L12.3588 9.1596C12.1588 8.9596 11.9188 8.8496 11.6388 8.8496C11.0788 8.8496 10.6788 9.2696 10.6788 9.8396C10.6788 10.0996 10.7888 10.3896 11.0087 10.5796L13.2588 12.6896L14.0688 13.4696L12.0188 13.3696H1.0488C0.4788 13.3696 -0.0013 13.8796 -0.0013 14.4696Z"
        fillRule="evenodd"
        clipRule="evenodd"
    />
</svg>
        