
<svg
    viewBox="0 0 27.0703125 28.943359375"
    xmlns="http://www.w3.org/2000/svg"
>
    <path
        fill="inherit"
        d="M13.2237 28.9396H23.3537C25.5837 28.9396 27.0737 27.5196 27.0737 25.3896V3.5596C27.0737 1.4196 25.5837 -0.0004 23.3537 -0.0004H13.2237C10.9937 -0.0004 9.5037 1.4196 9.5037 3.5596V25.3896C9.5037 27.5196 10.9937 28.9396 13.2237 28.9396ZM6.5537 24.3096V4.6396C6.5537 3.0796 7.3937 1.8196 8.6537 1.3396C6.0937 1.4096 4.6737 2.8296 4.6737 4.8796V24.0596C4.6737 26.1096 6.0937 27.5196 8.6537 27.5996C7.3937 27.1296 6.5537 25.8496 6.5537 24.3096ZM13.4937 26.7396C12.3437 26.7396 11.7037 26.1296 11.7037 25.0296V3.9096C11.7037 2.8196 12.3437 2.1996 13.4937 2.1996H23.0637C24.2237 2.1996 24.8737 2.8196 24.8737 3.9096V25.0296C24.8737 26.1296 24.2237 26.7396 23.0637 26.7396ZM1.8737 22.4096V6.5396C1.8737 4.9796 2.7037 3.7296 3.9537 3.2396C1.4037 3.3196 0.0037 4.7296 0.0037 6.7796V22.1596C0.0037 24.1996 1.4037 25.6196 3.9537 25.6996C2.7037 25.2096 1.8737 23.9496 1.8737 22.4096Z"
        fillRule="evenodd"
        clipRule="evenodd"
    />
</svg>
        