<svg viewBox="0 0 24.76318359375 28.943359375" xmlns="http://www.w3.org/2000/svg"><path d="M18.976 17.3196L21.176 19.5196V3.5596C21.176 1.4196 19.686 -0.0004 17.456 -0.0004H7.326C5.696 -0.0004 4.486 0.7096 4.026 2.0196L3.936 2.2696L5.806 4.1396V3.8796C5.806 2.7896 6.446 2.1996 7.596 2.1996H9.366C9.576 2.1996 9.686 2.3096 9.686 2.5196V2.8296C9.686 3.3996 10.056 3.7896 10.616 3.7896H14.156C14.726 3.7896 15.106 3.3996 15.106 2.8296V2.5196C15.106 2.3096 15.216 2.1996 15.416 2.1996H17.166C18.316 2.1996 18.976 2.8196 18.976 3.9096ZM22.966 26.6096C23.376 27.0296 24.056 27.0196 24.456 26.6096C24.866 26.2096 24.866 25.5396 24.456 25.1196L1.806 2.4696C1.396 2.0596 0.726 2.0496 0.296 2.4696C-0.104 2.8696 -0.104 3.5696 0.296 3.9696ZM7.326 28.9396H17.456C19.026 28.9396 20.176 28.2496 20.696 26.9996C20.726 26.9296 20.766 26.8396 20.796 26.7696L18.976 24.8996V25.1596C18.916 26.1796 18.266 26.7396 17.166 26.7396H7.596C6.446 26.7396 5.806 26.1296 5.806 25.0296V11.7696L3.606 9.5696V25.3896C3.606 27.5196 5.096 28.9396 7.326 28.9396ZM9.486 25.7396H15.296C15.666 25.7396 15.936 25.4796 15.936 25.0996C15.936 24.7196 15.666 24.4696 15.296 24.4696H9.486C9.116 24.4696 8.856 24.7196 8.856 25.0996C8.856 25.4796 9.116 25.7396 9.486 25.7396Z" /></svg>