
<svg
    viewBox="0 0 23.447265625 28.943359375"
    xmlns="http://www.w3.org/2000/svg"
>
    <path
        fill="inherit"
        d="M3.7237 28.9396H8.9037C8.4237 28.3696 8.0637 27.6696 7.9537 26.8796L7.9437 26.7396H4.0037C2.8437 26.7396 2.2037 26.1296 2.2037 25.0296V3.9096C2.2037 2.8196 2.8437 2.1996 4.0037 2.1996H13.5737C14.6937 2.1996 15.3637 2.7896 15.3637 3.8096V4.0196H17.5637V3.4596C17.5637 1.3896 16.0537 -0.0004 13.8537 -0.0004H3.7237C1.4937 -0.0004 0.0037 1.4196 0.0037 3.5596V25.3896C0.0037 27.5196 1.4937 28.9396 3.7237 28.9396ZM7.1337 5.0996H10.4437C10.9737 5.0996 11.4037 4.6796 11.4037 4.1296C11.4037 3.5996 10.9737 3.1696 10.4437 3.1696H7.1337C6.5937 3.1696 6.1637 3.5996 6.1637 4.1296C6.1637 4.6796 6.5937 5.0996 7.1337 5.0996ZM12.6037 28.9396H20.2437C22.1737 28.9396 23.4437 27.7296 23.4437 25.8796V8.6796C23.4437 6.8396 22.1737 5.6196 20.2437 5.6196H12.6037C10.6937 5.6196 9.4237 6.8396 9.4237 8.6796V25.8796C9.4237 27.7296 10.6937 28.9396 12.6037 28.9396ZM13.0137 26.8796C12.0337 26.8796 11.4837 26.3496 11.4837 25.4196V9.1496C11.4837 8.2196 12.0337 7.6796 13.0137 7.6796H19.8337C20.8037 7.6796 21.3837 8.2196 21.3837 9.1496V25.4196C21.3837 26.3496 20.8037 26.8796 19.8337 26.8796ZM14.9337 10.4996H17.9937C18.4937 10.4996 18.9037 10.0996 18.9037 9.5796C18.9037 9.0596 18.4937 8.6496 17.9937 8.6496H14.9337C14.4237 8.6496 14.0137 9.0596 14.0137 9.5796C14.0137 10.0996 14.4237 10.4996 14.9337 10.4996Z"
        fillRule="evenodd"
        clipRule="evenodd"
    />
</svg>
        