
<svg
    viewBox="0 0 28.970703125 24.756389674810755"
    xmlns="http://www.w3.org/2000/svg"
>
    <path
        fill="inherit"
        d="M25.0737 24.4478C25.4837 24.8678 26.1637 24.8578 26.5637 24.4478C26.9737 24.0478 26.9737 23.3778 26.5637 22.9578L3.9137 0.3078C3.5037 -0.1022 2.8337 -0.1122 2.4037 0.3078C2.0137 0.7078 2.0137 1.4078 2.4037 1.8078ZM26.6237 20.7678H26.7737C28.1637 20.2878 28.9737 19.0578 28.9737 17.3578V7.2278C28.9737 4.9978 27.5537 3.5078 25.4137 3.5078H9.3637L11.5637 5.7178H25.0637C26.1537 5.7178 26.7737 6.3678 26.7737 7.5178V17.0878C26.7737 18.2378 26.1537 18.8978 25.0637 18.8978H24.7437ZM3.5837 21.0978H19.4537L17.2437 18.8978H3.9337C2.8337 18.8978 2.2137 18.2378 2.2137 17.0878V7.5178C2.2137 6.4278 2.7637 5.7778 3.7837 5.7278H4.0737L2.2437 3.8978H2.1037C0.7937 4.3978 0.0037 5.5878 0.0037 7.2278V17.3578C0.0037 19.5878 1.4537 21.0978 3.5837 21.0978ZM4.1437 14.9278C4.6937 14.9278 5.1137 14.4878 5.1137 13.9478V10.6378C5.1137 10.0978 4.6937 9.6778 4.1437 9.6778C3.6137 9.6778 3.1737 10.0978 3.1737 10.6378V13.9478C3.1737 14.4878 3.6137 14.9278 4.1437 14.9278ZM10.8537 17.8778H16.2237L14.9537 16.6078H10.8537C10.4837 16.6078 10.2237 16.8578 10.2237 17.2378C10.2237 17.6178 10.4837 17.8778 10.8537 17.8778Z"
        fillRule="evenodd"
        clipRule="evenodd"
    />
</svg>
        