
<svg
    viewBox={0 0 27.890625 27.890625}
    xmlns="http://www.w3.org/2000/svg"
>
    <path
        fill="inherit"
        d="M13.9427 27.8864C21.6427 27.8864 27.8927 21.6464 27.8927 13.9464C27.8927 6.2464 21.6427 -0.0036 13.9427 -0.0036C6.2527 -0.0036 0.0027 6.2464 0.0027 13.9464C0.0027 21.6464 6.2527 27.8864 13.9427 27.8864ZM13.9427 25.5664C7.5227 25.5664 2.3227 20.3664 2.3227 13.9464C2.3227 7.5164 7.5227 2.3264 13.9427 2.3264C20.3727 2.3264 25.5627 7.5164 25.5627 13.9464C25.5627 20.3664 20.3727 25.5664 13.9427 25.5664ZM9.2027 19.8264C9.2027 20.9864 10.0127 21.7764 11.2227 21.7764H16.6627C17.8827 21.7764 18.6927 20.9864 18.6927 19.8264V8.0664C18.6927 6.9064 17.8827 6.1064 16.6627 6.1064H11.2227C10.0127 6.1064 9.2027 6.9064 9.2027 8.0664ZM12.5327 7.4364C12.5327 7.2564 12.6727 7.1364 12.8227 7.1364H15.0627C15.2327 7.1364 15.3527 7.2564 15.3527 7.4364C15.3527 7.6164 15.2327 7.7264 15.0627 7.7264H12.8227C12.6727 7.7264 12.5327 7.6164 12.5327 7.4364ZM10.4327 19.2464V8.6364H17.4627V19.2464ZM6.0727 18.0064C6.2627 17.7764 6.2027 17.4964 5.9927 17.2364C5.1827 16.3364 4.7627 15.1864 4.7627 13.9464C4.7627 12.6964 5.1827 11.5564 5.9927 10.6464C6.2027 10.3864 6.2627 10.1064 6.0727 9.8864C5.8927 9.6364 5.5327 9.6364 5.2727 9.8964C4.2827 10.9764 3.7427 12.4164 3.7427 13.9464C3.7427 15.4664 4.2827 16.8964 5.2727 17.9964C5.5327 18.2564 5.8927 18.2564 6.0727 18.0064ZM21.8327 18.0064C22.0227 18.2564 22.3827 18.2564 22.6227 17.9964C23.6227 16.8964 24.1727 15.4664 24.1727 13.9464C24.1727 12.4164 23.6227 10.9764 22.6227 9.8964C22.3827 9.6364 22.0227 9.6364 21.8327 9.8864C21.6427 10.1064 21.6927 10.3864 21.9327 10.6464C22.7227 11.5564 23.1627 12.6964 23.1627 13.9464C23.1627 15.1864 22.7227 16.3364 21.9327 17.2364C21.6927 17.4964 21.6427 17.7764 21.8327 18.0064ZM8.0427 16.3264C8.2327 16.0964 8.1627 15.8364 7.9527 15.5564C7.6127 15.1164 7.4527 14.5564 7.4527 13.9464C7.4527 13.3264 7.6127 12.7564 7.9527 12.3364C8.1627 12.0564 8.2327 11.7964 8.0427 11.5664C7.8327 11.3164 7.4527 11.3164 7.2327 11.5964C6.7127 12.2464 6.4127 13.0564 6.4127 13.9464C6.4127 14.8164 6.7127 15.6364 7.2327 16.2864C7.4527 16.5564 7.8327 16.5664 8.0427 16.3264ZM19.8627 16.3264C20.0727 16.5664 20.4527 16.5564 20.6727 16.2864C21.1927 15.6364 21.5027 14.8164 21.5027 13.9464C21.5027 13.0564 21.1927 12.2464 20.6727 11.5964C20.4527 11.3164 20.0727 11.3164 19.8627 11.5664C19.6727 11.7964 19.7427 12.0564 19.9427 12.3364C20.2927 12.7564 20.4627 13.3264 20.4627 13.9464C20.4627 14.5564 20.2927 15.1164 19.9427 15.5564C19.7427 15.8364 19.6727 16.0964 19.8627 16.3264ZM13.9627 21.0164C13.6127 21.0164 13.3327 20.7264 13.3327 20.3864C13.3327 20.0464 13.6127 19.7564 13.9627 19.7564C14.3027 19.7564 14.5627 20.0464 14.5627 20.3864C14.5627 20.7264 14.3027 21.0164 13.9627 21.0164Z"
        fillRule="evenodd"
        clipRule="evenodd"
    />
</svg>
        