<svg viewBox="0 0 27.890625 27.890625" xmlns="http://www.w3.org/2000/svg"><path d="M13.9427 27.8927C21.6427 27.8927 27.8927 21.6427 27.8927 13.9427C27.8927 6.2627 21.6427 0.0027 13.9427 0.0027C6.2627 0.0027 0.0027 6.2627 0.0027 13.9427C0.0027 21.6427 6.2627 27.8927 13.9427 27.8927ZM17.0327 5.0627C18.4127 5.0627 19.3327 5.9327 19.3327 7.2627V16.9027L17.9527 15.5127V7.9327H10.5027V8.0527L8.8427 6.3827V6.3327C9.1627 5.5127 9.8527 5.0627 10.8727 5.0627ZM12.3327 6.5527C12.3327 6.7427 12.4927 6.8927 12.6727 6.8927H15.2327C15.4227 6.8927 15.5727 6.7427 15.5727 6.5527C15.5727 6.3327 15.4227 6.2027 15.2327 6.2027H12.6727C12.4927 6.2027 12.3327 6.3327 12.3327 6.5527ZM20.2327 21.1327L6.7227 7.6427C6.4927 7.4127 6.4927 7.0027 6.7227 6.7427C6.9827 6.4927 7.3927 6.4927 7.6427 6.7427L21.1327 20.2327C21.3827 20.4827 21.3827 20.8627 21.1327 21.1327C20.8727 21.3727 20.4627 21.3727 20.2327 21.1327ZM10.8727 22.8427C9.4727 22.8427 8.5727 21.9527 8.5727 20.6427V11.0227L9.9527 12.4127V19.9727H17.3627V19.8227L19.0427 21.5027V21.5927C18.7427 22.3827 18.0327 22.8427 17.0327 22.8427ZM13.9627 21.9827C14.3527 21.9827 14.6727 21.6527 14.6727 21.2627C14.6727 20.8727 14.3527 20.5327 13.9627 20.5327C13.5627 20.5327 13.2327 20.8727 13.2327 21.2627C13.2327 21.6527 13.5627 21.9827 13.9627 21.9827Z" /></svg>