
<svg
    viewBox={0 0 27.890625 27.890625}
    xmlns="http://www.w3.org/2000/svg"
>
    <path
        fill="inherit"
        d="M13.9427 27.8927C21.6427 27.8927 27.8927 21.6427 27.8927 13.9427C27.8927 6.2627 21.6427 0.0027 13.9427 0.0027C6.2627 0.0027 0.0027 6.2627 0.0027 13.9427C0.0027 21.6427 6.2627 27.8927 13.9427 27.8927ZM11.1527 22.0227C9.9027 22.0227 9.0527 21.2027 9.0527 19.9927V7.9027C9.0527 6.6727 9.9027 5.8627 11.1527 5.8627H16.7327C17.9927 5.8627 18.8427 6.6727 18.8427 7.9027V19.9927C18.8427 21.2027 17.9927 22.0227 16.7327 22.0227ZM11.3027 20.7627H16.5827C17.2227 20.7627 17.5827 20.4127 17.5827 19.8127V8.0627C17.5827 7.4627 17.2227 7.1227 16.5827 7.1227H15.6427C15.5327 7.1227 15.4727 7.1727 15.4727 7.2827V7.4527C15.4727 7.7827 15.2727 8.0227 14.9427 8.0227H12.9427C12.6227 8.0227 12.4127 7.7827 12.4127 7.4527V7.2827C12.4127 7.1927 12.3827 7.1227 12.2327 7.1227H11.3027C10.6627 7.1227 10.3127 7.4627 10.3127 8.0627V19.8127C10.3127 20.4127 10.6627 20.7627 11.3027 20.7627ZM22.1227 18.1327C21.9327 17.9127 21.9827 17.6127 22.2127 17.3327C23.0327 16.4027 23.4927 15.2327 23.4927 13.9427C23.4927 12.6627 23.0327 11.4827 22.2127 10.5527C21.9827 10.2827 21.9327 9.9927 22.1227 9.7627C22.3227 9.5027 22.6827 9.5027 22.9427 9.7727C23.9627 10.8927 24.5227 12.3827 24.5227 13.9427C24.5227 15.5127 23.9627 17.0127 22.9427 18.1127C22.6827 18.3927 22.3227 18.3927 22.1227 18.1327ZM5.7327 18.1327C5.5327 18.3927 5.1827 18.3927 4.9127 18.1127C3.8827 17.0127 3.3327 15.5127 3.3327 13.9427C3.3327 12.3827 3.8827 10.8927 4.9127 9.7727C5.1827 9.5027 5.5327 9.5027 5.7327 9.7627C5.9227 9.9927 5.8627 10.2827 5.6427 10.5527C4.8127 11.4827 4.3727 12.6627 4.3727 13.9427C4.3727 15.2327 4.8127 16.4027 5.6427 17.3327C5.8627 17.6127 5.9227 17.9127 5.7327 18.1327ZM7.7627 16.3927C7.5427 16.6527 7.1627 16.6527 6.9227 16.3627C6.3827 15.6927 6.0827 14.8627 6.0827 13.9427C6.0827 13.0427 6.3827 12.1927 6.9227 11.5427C7.1627 11.2527 7.5427 11.2427 7.7627 11.5027C7.9527 11.7327 7.8927 12.0027 7.6727 12.2927C7.3327 12.7327 7.1527 13.3127 7.1527 13.9427C7.1527 14.5727 7.3327 15.1527 7.6727 15.6027C7.8927 15.8827 7.9527 16.1627 7.7627 16.3927ZM20.0827 16.3927C19.8927 16.1627 19.9627 15.8827 20.1827 15.6027C20.5227 15.1527 20.7127 14.5727 20.7127 13.9427C20.7127 13.3127 20.5227 12.7327 20.1827 12.2927C19.9627 12.0027 19.8927 11.7327 20.0827 11.5027C20.3027 11.2427 20.7027 11.2527 20.9327 11.5427C21.4627 12.1927 21.7827 13.0427 21.7827 13.9427C21.7827 14.8627 21.4627 15.6927 20.9327 16.3627C20.7027 16.6527 20.3027 16.6527 20.0827 16.3927ZM12.3627 20.2227C12.1227 20.2227 11.9727 20.0727 11.9727 19.8427C11.9727 19.6027 12.1227 19.4527 12.3627 19.4527H15.5627C15.7727 19.4527 15.9127 19.6027 15.9127 19.8427C15.9127 20.0727 15.7727 20.2227 15.5627 20.2227Z"
        fillRule="evenodd"
        clipRule="evenodd"
    />
</svg>
        