
<svg
    viewBox={0 0 27.890625 27.890625}
    xmlns="http://www.w3.org/2000/svg"
>
    <path
        fill="inherit"
        d="M13.9427 27.8864C21.6427 27.8864 27.8927 21.6464 27.8927 13.9464C27.8927 6.2464 21.6427 -0.0036 13.9427 -0.0036C6.2527 -0.0036 0.0027 6.2464 0.0027 13.9464C0.0027 21.6464 6.2527 27.8864 13.9427 27.8864ZM13.9427 25.5664C7.5227 25.5664 2.3227 20.3664 2.3227 13.9464C2.3227 7.5164 7.5227 2.3264 13.9427 2.3264C20.3727 2.3264 25.5627 7.5164 25.5627 13.9464C25.5627 20.3664 20.3727 25.5664 13.9427 25.5664ZM10.9327 22.5764H16.9127C18.2527 22.5764 19.1527 21.7064 19.1527 20.4164V7.4664C19.1527 6.1664 18.2527 5.3164 16.9127 5.3164H10.9327C9.6127 5.3164 8.7127 6.1664 8.7127 7.4664V20.4164C8.7127 21.7064 9.6127 22.5764 10.9327 22.5764ZM11.1127 21.2364C10.4227 21.2364 10.0327 20.8764 10.0327 20.2164V7.6564C10.0327 6.9964 10.4227 6.6464 11.1127 6.6464H12.0827C12.2227 6.6464 12.2627 6.6964 12.2627 6.8264V6.9964C12.2627 7.3464 12.4827 7.5864 12.8427 7.5864H15.0227C15.3627 7.5864 15.6027 7.3464 15.6027 6.9964V6.8264C15.6027 6.6964 15.6527 6.6464 15.7727 6.6464H16.7527C17.4427 6.6464 17.8327 6.9964 17.8327 7.6564V20.2164C17.8327 20.8764 17.4427 21.2364 16.7527 21.2364ZM12.2227 20.6464H15.6427C15.8727 20.6464 16.0327 20.4964 16.0327 20.2664C16.0327 20.0164 15.8727 19.8564 15.6427 19.8564H12.2227C11.9927 19.8564 11.8227 20.0164 11.8227 20.2664C11.8227 20.4964 11.9927 20.6464 12.2227 20.6464Z"
        fillRule="evenodd"
        clipRule="evenodd"
    />
</svg>
        