
<svg
    viewBox={0 0 28.95703125 17.58203125}
    xmlns="http://www.w3.org/2000/svg"
>
    <path
        fill="inherit"
        d="M3.5637 17.5858H25.4037C27.5337 17.5858 28.9537 16.0758 28.9537 13.8458V3.7158C28.9537 1.4858 27.5337 -0.0042 25.4037 -0.0042H3.5637C1.4337 -0.0042 0.0037 1.4858 0.0037 3.7158V13.8458C0.0037 16.0758 1.4337 17.5858 3.5637 17.5858ZM3.9237 15.3858C2.8137 15.3858 2.2037 14.7258 2.2037 13.5758V4.0058C2.2037 2.8558 2.8137 2.2058 3.9237 2.2058H25.0437C26.1437 2.2058 26.7537 2.8558 26.7537 4.0058V13.5758C26.7537 14.7258 26.1437 15.3858 25.0437 15.3858ZM4.1437 11.4158C4.6937 11.4158 5.1137 10.9758 5.1137 10.4358V7.1258C5.1137 6.5858 4.6937 6.1658 4.1437 6.1658C3.6137 6.1658 3.1737 6.5858 3.1737 7.1258V10.4358C3.1737 10.9758 3.6137 11.4158 4.1437 11.4158ZM10.8437 14.3658H18.1337C18.4937 14.3658 18.7537 14.1058 18.7537 13.7258C18.7537 13.3458 18.4937 13.0958 18.1337 13.0958H10.8437C10.4737 13.0958 10.2137 13.3458 10.2137 13.7258C10.2137 14.1058 10.4737 14.3658 10.8437 14.3658Z"
        fillRule="evenodd"
        clipRule="evenodd"
    />
</svg>
        