
<svg
    viewBox="0 0 27.890625 27.890625"
    xmlns="http://www.w3.org/2000/svg"
>
    <path
        fill="inherit"
        d="M13.9427 27.8864C21.6427 27.8864 27.8927 21.6464 27.8927 13.9464C27.8927 6.2464 21.6427 -0.0036 13.9427 -0.0036C6.2527 -0.0036 0.0027 6.2464 0.0027 13.9464C0.0027 21.6464 6.2527 27.8864 13.9427 27.8864ZM13.9427 25.5664C7.5227 25.5664 2.3227 20.3664 2.3227 13.9464C2.3227 7.5164 7.5227 2.3264 13.9427 2.3264C20.3727 2.3264 25.5627 7.5164 25.5627 13.9464C25.5627 20.3664 20.3727 25.5664 13.9427 25.5664ZM11.2227 21.7764H16.6427C17.8527 21.7764 18.6727 20.9864 18.6727 19.8064V8.0664C18.6727 6.8864 17.8527 6.0964 16.6427 6.0964H11.2227C10.0127 6.0964 9.1827 6.8864 9.1827 8.0664V19.8064C9.1827 20.9864 10.0127 21.7764 11.2227 21.7764ZM11.3727 20.5664C10.7427 20.5664 10.4027 20.2164 10.4027 19.6364V8.2464C10.4027 7.6564 10.7427 7.3164 11.3727 7.3164H12.2727C12.4127 7.3164 12.4427 7.3664 12.4427 7.4764V7.6464C12.4427 7.9564 12.6427 8.1764 12.9627 8.1764H14.9027C15.2127 8.1764 15.4227 7.9564 15.4227 7.6464V7.4764C15.4227 7.3664 15.4627 7.3164 15.5727 7.3164H16.4927C17.1127 7.3164 17.4627 7.6564 17.4627 8.2464V19.6364C17.4627 20.2164 17.1127 20.5664 16.4927 20.5664ZM5.9627 18.0064C6.1527 17.7764 6.0927 17.4964 5.8827 17.2364C5.0727 16.3364 4.6527 15.1864 4.6527 13.9464C4.6527 12.6964 5.0727 11.5564 5.8827 10.6464C6.0927 10.3864 6.1527 10.1064 5.9627 9.8864C5.7827 9.6364 5.4327 9.6364 5.1727 9.8964C4.1727 10.9764 3.6327 12.4164 3.6327 13.9464C3.6327 15.4664 4.1727 16.8964 5.1727 17.9964C5.4327 18.2564 5.7827 18.2564 5.9627 18.0064ZM21.8627 18.0064C22.0527 18.2564 22.4127 18.2564 22.6527 17.9964C23.6527 16.8964 24.2027 15.4664 24.2027 13.9464C24.2027 12.4164 23.6527 10.9764 22.6527 9.8964C22.4127 9.6364 22.0527 9.6364 21.8627 9.8864C21.6727 10.1064 21.7227 10.3864 21.9527 10.6464C22.7527 11.5564 23.1827 12.6964 23.1827 13.9464C23.1827 15.1864 22.7527 16.3364 21.9527 17.2364C21.7227 17.4964 21.6727 17.7764 21.8627 18.0064ZM7.9327 16.3264C8.1227 16.0964 8.0527 15.8364 7.8427 15.5564C7.5027 15.1164 7.3427 14.5564 7.3427 13.9464C7.3427 13.3264 7.5027 12.7564 7.8427 12.3364C8.0527 12.0564 8.1227 11.7964 7.9327 11.5664C7.7227 11.3164 7.3527 11.3164 7.1227 11.5964C6.6027 12.2464 6.3027 13.0564 6.3027 13.9464C6.3027 14.8164 6.6027 15.6364 7.1227 16.2864C7.3527 16.5564 7.7227 16.5664 7.9327 16.3264ZM19.8927 16.3264C20.0927 16.5664 20.4827 16.5564 20.7027 16.2864C21.2227 15.6364 21.5327 14.8164 21.5327 13.9464C21.5327 13.0564 21.2227 12.2464 20.7027 11.5964C20.4827 11.3164 20.0927 11.3164 19.8927 11.5664C19.7027 11.7964 19.7727 12.0564 19.9727 12.3364C20.3127 12.7564 20.4927 13.3264 20.4927 13.9464C20.4927 14.5564 20.3127 15.1164 19.9727 15.5564C19.7727 15.8364 19.7027 16.0964 19.8927 16.3264ZM12.3827 20.0264H15.4927C15.7127 20.0264 15.8427 19.8964 15.8427 19.6764C15.8427 19.4364 15.7127 19.2864 15.4927 19.2864H12.3827C12.1727 19.2864 12.0127 19.4364 12.0127 19.6764C12.0127 19.8964 12.1727 20.0264 12.3827 20.0264Z"
        fillRule="evenodd"
        clipRule="evenodd"
    />
</svg>
        