
<svg
    viewBox="0 0 27.890625 27.890625"
    xmlns="http://www.w3.org/2000/svg"
>
    <path
        fill="inherit"
        d="M13.9427 27.8927C21.6427 27.8927 27.8927 21.6427 27.8927 13.9427C27.8927 6.2627 21.6427 0.0027 13.9427 0.0027C6.2627 0.0027 0.0027 6.2627 0.0027 13.9427C0.0027 21.6427 6.2627 27.8927 13.9427 27.8927ZM11.1727 22.0127C9.9127 22.0127 9.0627 21.2027 9.0627 19.9927V7.9027C9.0627 6.6727 9.9127 5.8827 11.1727 5.8827H16.7527C18.0027 5.8827 18.8527 6.6727 18.8527 7.9027V19.9927C18.8527 21.2027 18.0027 22.0127 16.7527 22.0127ZM11.3227 20.7527H16.5927C17.2427 20.7527 17.5927 20.4127 17.5927 19.8127V8.0627C17.5927 7.4627 17.2427 7.1327 16.5927 7.1327H11.3227C10.6827 7.1327 10.3227 7.4627 10.3227 8.0627V19.8127C10.3227 20.4127 10.6827 20.7527 11.3227 20.7527ZM13.0127 8.8327C12.7027 8.8327 12.4827 8.5827 12.4827 8.2827C12.4827 7.9827 12.7027 7.7427 13.0127 7.7427H14.8727C15.1927 7.7427 15.4227 7.9827 15.4227 8.2827C15.4227 8.5827 15.1927 8.8327 14.8727 8.8327ZM22.1327 18.1327C21.9427 17.9127 22.0027 17.6127 22.2327 17.3327C23.0527 16.4027 23.5027 15.2327 23.5027 13.9427C23.5027 12.6627 23.0527 11.4827 22.2327 10.5527C22.0027 10.2827 21.9427 9.9927 22.1327 9.7627C22.3427 9.5027 22.6927 9.5027 22.9527 9.7727C23.9827 10.8927 24.5427 12.3827 24.5427 13.9427C24.5427 15.5127 23.9827 17.0127 22.9527 18.1127C22.6927 18.3927 22.3427 18.3927 22.1327 18.1327ZM5.7427 18.1327C5.5527 18.3927 5.1927 18.3927 4.9227 18.1127C3.8927 17.0127 3.3527 15.5127 3.3527 13.9427C3.3527 12.3827 3.8927 10.8927 4.9227 9.7727C5.1927 9.5027 5.5527 9.5027 5.7427 9.7627C5.9327 9.9927 5.8827 10.2827 5.6627 10.5527C4.8227 11.4827 4.3927 12.6627 4.3927 13.9427C4.3927 15.2327 4.8227 16.4027 5.6627 17.3327C5.8827 17.6127 5.9327 17.9127 5.7427 18.1327ZM7.7827 16.3927C7.5627 16.6527 7.1827 16.6527 6.9327 16.3627C6.4027 15.6927 6.0927 14.8627 6.0927 13.9427C6.0927 13.0427 6.4027 12.1927 6.9327 11.5427C7.1827 11.2527 7.5627 11.2427 7.7827 11.5027C7.9727 11.7327 7.9027 12.0027 7.6827 12.2927C7.3427 12.7327 7.1627 13.3127 7.1627 13.9427C7.1627 14.5727 7.3427 15.1527 7.6827 15.6027C7.9027 15.8827 7.9727 16.1627 7.7827 16.3927ZM20.0927 16.3927C19.9027 16.1627 19.9727 15.8827 20.1927 15.6027C20.5327 15.1527 20.7227 14.5727 20.7227 13.9427C20.7227 13.3127 20.5327 12.7327 20.1927 12.2927C19.9727 12.0027 19.9027 11.7327 20.0927 11.5027C20.3127 11.2427 20.7127 11.2527 20.9427 11.5427C21.4827 12.1927 21.7927 13.0427 21.7927 13.9427C21.7927 14.8627 21.4827 15.6927 20.9427 16.3627C20.7127 16.6527 20.3127 16.6527 20.0927 16.3927ZM12.3727 20.2227C12.1427 20.2227 11.9927 20.0527 11.9927 19.8427C11.9927 19.6027 12.1427 19.4527 12.3727 19.4527H15.5727C15.7927 19.4527 15.9327 19.6027 15.9327 19.8427C15.9327 20.0527 15.7927 20.2227 15.5727 20.2227Z"
        fillRule="evenodd"
        clipRule="evenodd"
    />
</svg>
        