
<svg
    viewBox="0 0 27.890625 27.890625"
    xmlns="http://www.w3.org/2000/svg"
>
    <path
        fill="inherit"
        d="M13.9427 27.8927C21.6427 27.8927 27.8927 21.6427 27.8927 13.9427C27.8927 6.2627 21.6427 0.0027 13.9427 0.0027C6.2627 0.0027 0.0027 6.2627 0.0027 13.9427C0.0027 21.6427 6.2627 27.8927 13.9427 27.8927ZM9.0627 20.0127V7.8927C9.0627 6.6827 9.9027 5.8827 11.1527 5.8827H16.7627C18.0227 5.8827 18.8527 6.6827 18.8527 7.8927V20.0127C18.8527 21.2227 18.0227 22.0227 16.7627 22.0227H11.1527C9.9027 22.0227 9.0627 21.2227 9.0627 20.0127ZM12.5127 7.2427C12.5127 7.4227 12.6427 7.5327 12.7927 7.5327H15.1227C15.2827 7.5327 15.4127 7.4227 15.4127 7.2427C15.4127 7.0527 15.2827 6.9327 15.1227 6.9327H12.7927C12.6427 6.9327 12.5127 7.0527 12.5127 7.2427ZM10.3327 19.4127H17.5827V8.4927H10.3327ZM22.0927 18.1327C21.8927 17.9127 21.9427 17.6127 22.1927 17.3327C23.0127 16.4027 23.4627 15.2327 23.4627 13.9427C23.4627 12.6627 23.0127 11.4827 22.1927 10.5527C21.9427 10.2827 21.8927 9.9927 22.0927 9.7627C22.2827 9.5027 22.6527 9.5027 22.9127 9.7727C23.9427 10.8927 24.5027 12.3827 24.5027 13.9427C24.5027 15.5127 23.9427 17.0127 22.9127 18.1127C22.6527 18.3927 22.2827 18.3927 22.0927 18.1327ZM5.8427 18.1327C5.6627 18.3927 5.2927 18.3927 5.0127 18.1127C3.9927 17.0127 3.4427 15.5127 3.4427 13.9427C3.4427 12.3827 3.9927 10.8927 5.0127 9.7727C5.2927 9.5027 5.6627 9.5027 5.8427 9.7627C6.0427 9.9927 5.9927 10.2827 5.7527 10.5527C4.9227 11.4827 4.4827 12.6627 4.4827 13.9427C4.4827 15.2327 4.9227 16.4027 5.7527 17.3327C5.9927 17.6127 6.0427 17.9127 5.8427 18.1327ZM7.8727 16.3927C7.6527 16.6527 7.2727 16.6527 7.0427 16.3627C6.5127 15.6927 6.1927 14.8627 6.1927 13.9427C6.1927 13.0427 6.5127 12.1927 7.0427 11.5427C7.2727 11.2527 7.6527 11.2427 7.8727 11.5027C8.0627 11.7327 8.0027 12.0027 7.7927 12.2927C7.4327 12.7127 7.2627 13.3127 7.2627 13.9427C7.2627 14.5727 7.4327 15.1527 7.7927 15.6027C8.0027 15.8827 8.0627 16.1627 7.8727 16.3927ZM20.0527 16.3927C19.8627 16.1627 19.9327 15.8827 20.1427 15.6027C20.4927 15.1527 20.6827 14.5727 20.6827 13.9427C20.6827 13.3127 20.4927 12.7127 20.1427 12.2927C19.9327 12.0027 19.8627 11.7327 20.0527 11.5027C20.2727 11.2427 20.6727 11.2527 20.8927 11.5427C21.4227 12.1927 21.7527 13.0427 21.7527 13.9427C21.7527 14.8627 21.4227 15.6927 20.8927 16.3627C20.6727 16.6527 20.2727 16.6527 20.0527 16.3927ZM13.9727 21.2327C14.3327 21.2327 14.5927 20.9327 14.5927 20.5727C14.5927 20.2327 14.3327 19.9427 13.9727 19.9427C13.6127 19.9427 13.3327 20.2327 13.3327 20.5727C13.3327 20.9327 13.6127 21.2327 13.9727 21.2327Z"
        fillRule="evenodd"
        clipRule="evenodd"
    />
</svg>
        