
<svg
    viewBox="0 0 27.0703125 28.95703125"
    xmlns="http://www.w3.org/2000/svg"
>
    <path
        fill="inherit"
        d="M9.5037 25.3996C9.5037 27.5396 10.9937 28.9596 13.2237 28.9596H23.3537C25.5837 28.9596 27.0737 27.5396 27.0737 25.3996V3.5596C27.0737 1.4196 25.5837 -0.0004 23.3537 -0.0004H13.2237C10.9937 -0.0004 9.5037 1.4196 9.5037 3.5596ZM0.0037 25.3896C0.0037 27.4296 1.4037 28.8496 3.4637 28.9196H3.9137C2.6537 28.3796 1.8737 27.1696 1.8737 25.6396V3.3096C1.8737 1.7796 2.6537 0.5596 3.9137 0.0296H3.4637C1.4037 0.0996 0.0037 1.5196 0.0037 3.5596ZM4.6737 25.3896C4.6737 27.4296 6.0837 28.8496 8.1437 28.9196H8.6037C7.3437 28.3796 6.5537 27.1696 6.5537 25.6396V3.3096C6.5537 1.7796 7.3437 0.5596 8.6037 0.0296H8.1437C6.0837 0.0996 4.6737 1.5196 4.6737 3.5596ZM15.6937 2.3896C15.6937 2.0796 15.9137 1.8696 16.2137 1.8696H20.3737C20.6737 1.8696 20.8937 2.0796 20.8937 2.3896C20.8937 2.7096 20.6737 2.8996 20.3737 2.8996H16.2137C15.9137 2.8996 15.6937 2.7096 15.6937 2.3896ZM11.7037 24.3196V4.6396H24.8737V24.3196ZM18.3037 27.5996C17.6337 27.5996 17.1037 27.0696 17.1037 26.4096C17.1037 25.7696 17.6337 25.2396 18.3037 25.2396C18.9537 25.2396 19.4837 25.7696 19.4837 26.4096C19.4837 27.0696 18.9537 27.5996 18.3037 27.5996Z"
        fillRule="evenodd"
        clipRule="evenodd"
    />
</svg>
        