
<svg
    viewBox={0 0 46.388671875 28.943359375}
    xmlns="http://www.w3.org/2000/svg"
>
    <path
        fill="inherit"
        d="M18.1303 28.9396H28.2603C30.4903 28.9396 31.9803 27.5196 31.9803 25.3896V3.5596C31.9803 1.4196 30.4903 -0.0004 28.2603 -0.0004H18.1303C15.9003 -0.0004 14.4103 1.4196 14.4103 3.5596V25.3896C14.4103 27.5196 15.9003 28.9396 18.1303 28.9396ZM18.4003 26.7396C17.2503 26.7396 16.6103 26.1296 16.6103 25.0296V3.9096C16.6103 2.8196 17.2503 2.1996 18.4003 2.1996H20.1703C20.3803 2.1996 20.4903 2.3096 20.4903 2.5196V2.8296C20.4903 3.3996 20.8603 3.7896 21.4403 3.7896H24.9603C25.5403 3.7896 25.9103 3.3996 25.9103 2.8296V2.5196C25.9103 2.3096 26.0203 2.1996 26.2403 2.1996H27.9703C29.1303 2.1996 29.7803 2.8196 29.7803 3.9096V25.0296C29.7803 26.1296 29.1303 26.7396 27.9703 26.7396ZM46.3903 9.1696C46.3903 8.5896 45.9103 8.1096 45.3203 8.1096H39.9503V5.8096C39.9503 4.7396 38.8703 4.3796 38.1603 5.0196L34.3403 8.3896C33.8203 8.8496 33.8203 9.4896 34.3403 9.9396L38.1603 13.2996C38.9103 13.9696 39.9503 13.5396 39.9503 12.5196V10.2296H45.3203C45.9103 10.2296 46.3903 9.7596 46.3903 9.1696ZM0.0003 9.1696C0.0003 9.7596 0.4603 10.2296 1.0503 10.2296H6.4403V12.5196C6.4403 13.5396 7.4803 13.9696 8.2303 13.2996L12.0403 9.9396C12.5503 9.4896 12.5603 8.8496 12.0403 8.3896L8.2303 5.0196C7.5203 4.3796 6.4403 4.7396 6.4403 5.8096V8.1096H1.0503C0.4603 8.1096 0.0003 8.5896 0.0003 9.1696ZM20.3003 25.7396H26.1003C26.4703 25.7396 26.7403 25.4796 26.7403 25.0996C26.7403 24.7196 26.4703 24.4696 26.1003 24.4696H20.3003C19.9303 24.4696 19.6603 24.7196 19.6603 25.0996C19.6603 25.4796 19.9303 25.7396 20.3003 25.7396Z"
        fillRule="evenodd"
        clipRule="evenodd"
    />
</svg>
        