
<svg
    viewBox={0 0 27.890625 27.890625}
    xmlns="http://www.w3.org/2000/svg"
>
    <path
        fill="inherit"
        d="M13.9427 27.8864C21.6427 27.8864 27.8927 21.6464 27.8927 13.9464C27.8927 6.2464 21.6427 -0.0036 13.9427 -0.0036C6.2527 -0.0036 0.0027 6.2464 0.0027 13.9464C0.0027 21.6464 6.2527 27.8864 13.9427 27.8864ZM13.9427 25.5664C7.5227 25.5664 2.3227 20.3664 2.3227 13.9464C2.3227 7.5164 7.5227 2.3264 13.9427 2.3264C20.3727 2.3264 25.5627 7.5164 25.5627 13.9464C25.5627 20.3664 20.3727 25.5664 13.9427 25.5664ZM19.1527 16.8164V7.4664C19.1527 6.1664 18.2627 5.3164 16.9227 5.3164H10.9527C9.9527 5.3164 9.2527 5.7864 8.9727 6.5664V6.6164L10.0627 7.7064V7.5064C10.1027 6.9464 10.4727 6.6464 11.1127 6.6464H16.7527C17.4627 6.6464 17.8327 6.9964 17.8327 7.6564V15.4864ZM20.0327 20.9064C20.2627 21.1464 20.6627 21.1464 20.9027 20.9064C21.1527 20.6564 21.1527 20.2864 20.9027 20.0264L7.8227 6.9564C7.5727 6.7164 7.1827 6.7164 6.9327 6.9564C6.7027 7.1864 6.7027 7.6064 6.9327 7.8364ZM12.9327 8.4764H14.9127C15.2427 8.4764 15.5027 8.2164 15.5027 7.8864C15.5027 7.5764 15.2427 7.3164 14.9127 7.3164H12.9327C12.6027 7.3164 12.3427 7.5764 12.3427 7.8864C12.3427 8.2164 12.6027 8.4764 12.9327 8.4764ZM10.9527 22.5764H16.9227C17.8927 22.5764 18.5827 22.1164 18.8827 21.3464V21.2564L17.8127 20.1964V20.4264C17.7327 20.9564 17.3727 21.2364 16.7527 21.2364H11.1127C10.4227 21.2364 10.0527 20.8764 10.0527 20.2164V12.4164L8.7227 11.0864V20.4164C8.7227 21.7064 9.6127 22.5764 10.9527 22.5764ZM12.2327 20.6464H15.6527C15.8827 20.6464 16.0327 20.4964 16.0327 20.2664C16.0327 20.0164 15.8827 19.8564 15.6527 19.8564H12.2327C12.0027 19.8564 11.8427 20.0164 11.8427 20.2664C11.8427 20.4964 12.0027 20.6464 12.2327 20.6464Z"
        fillRule="evenodd"
        clipRule="evenodd"
    />
</svg>
        