
<svg
    viewBox={0 0 27.890625 27.890625}
    xmlns="http://www.w3.org/2000/svg"
>
    <path
        fill="inherit"
        d="M13.9427 27.8864C21.6427 27.8864 27.8927 21.6464 27.8927 13.9464C27.8927 6.2464 21.6427 -0.0036 13.9427 -0.0036C6.2527 -0.0036 0.0027 6.2464 0.0027 13.9464C0.0027 21.6464 6.2527 27.8864 13.9427 27.8864ZM13.9427 25.5664C7.5227 25.5664 2.3227 20.3664 2.3227 13.9464C2.3227 7.5164 7.5227 2.3264 13.9427 2.3264C20.3727 2.3264 25.5627 7.5164 25.5627 13.9464C25.5627 20.3664 20.3727 25.5664 13.9427 25.5664ZM16.9227 5.3164H10.9527C9.9627 5.3164 9.2827 5.7664 8.9827 6.5664V6.6164L10.5827 8.2264V8.1064H17.8127V15.4764L19.1527 16.8164V7.4664C19.1527 6.1764 18.2627 5.3164 16.9227 5.3164ZM12.3727 6.7664C12.3727 6.5664 12.5227 6.4364 12.7027 6.4364H15.1727C15.3627 6.4364 15.5027 6.5664 15.5027 6.7664C15.5027 6.9564 15.3627 7.0964 15.1727 7.0964H12.7027C12.5227 7.0964 12.3727 6.9564 12.3727 6.7664ZM20.0327 20.9064C20.2627 21.1464 20.6627 21.1464 20.9027 20.9064C21.1527 20.6564 21.1527 20.2864 20.9027 20.0264L7.8227 6.9564C7.5727 6.7164 7.1827 6.7164 6.9327 6.9564C6.7027 7.1864 6.7027 7.6064 6.9327 7.8364ZM10.9527 22.5764H16.9227C17.8927 22.5764 18.5927 22.1164 18.8827 21.3464V21.2564L17.2527 19.6364V19.7864H10.0627V12.4264L8.7227 11.1064V20.4264C8.7227 21.7064 9.5927 22.5764 10.9527 22.5764ZM13.9427 21.7364C13.5627 21.7364 13.2527 21.4264 13.2527 21.0364C13.2527 20.6564 13.5627 20.3464 13.9427 20.3464C14.3327 20.3464 14.6327 20.6564 14.6327 21.0364C14.6327 21.4264 14.3327 21.7364 13.9427 21.7364Z"
        fillRule="evenodd"
        clipRule="evenodd"
    />
</svg>
        