
<svg
    viewBox="0 0 28.970703125 17.58203125"
    xmlns="http://www.w3.org/2000/svg"
>
    <path
        fill="inherit"
        d="M28.9737 13.8458V3.7158C28.9737 1.4858 27.5537 -0.0042 25.4137 -0.0042H3.5837C1.4537 -0.0042 0.0037 1.4858 0.0037 3.7158V13.8458C0.0037 16.0758 1.4537 17.5858 3.5837 17.5858H25.4137C27.5537 17.5858 28.9737 16.0758 28.9737 13.8458ZM26.7737 13.5758C26.7737 14.7258 26.1537 15.3858 25.0637 15.3858H3.9337C2.8337 15.3858 2.2137 14.7258 2.2137 13.5758V11.8158C2.2137 11.6058 2.3337 11.4858 2.5437 11.4858H2.8537C3.4137 11.4858 3.8137 11.1158 3.8137 10.5558V7.0158C3.8137 6.4558 3.4137 6.0858 2.8537 6.0858H2.5437C2.3337 6.0858 2.2137 5.9658 2.2137 5.7558V4.0058C2.2137 2.8558 2.8337 2.2058 3.9337 2.2058H25.0637C26.1537 2.2058 26.7737 2.8558 26.7737 4.0058ZM10.8537 14.3658H18.1437C18.5137 14.3658 18.7737 14.1058 18.7737 13.7258C18.7737 13.3458 18.5137 13.0958 18.1437 13.0958H10.8537C10.4837 13.0958 10.2237 13.3458 10.2237 13.7258C10.2237 14.1058 10.4837 14.3658 10.8537 14.3658Z"
        fillRule="evenodd"
        clipRule="evenodd"
    />
</svg>
        