
<svg
    viewBox={0 0 27.0703125 28.943359375}
    xmlns="http://www.w3.org/2000/svg"
>
    <path
        fill="inherit"
        d="M13.2237 28.9396H23.3537C25.5837 28.9396 27.0737 27.5196 27.0737 25.3896V3.5596C27.0737 1.4196 25.5837 -0.0004 23.3537 -0.0004H13.2237C10.9937 -0.0004 9.5037 1.4196 9.5037 3.5596V25.3896C9.5037 27.5196 10.9937 28.9396 13.2237 28.9396ZM0.0037 25.3896C0.0037 27.4296 1.4037 28.8496 3.4637 28.9196H3.9137C2.6537 28.3796 1.8737 27.1696 1.8737 25.6396V3.3096C1.8737 1.7796 2.6537 0.5596 3.9137 0.0296H3.4637C1.4037 0.0996 0.0037 1.5196 0.0037 3.5596ZM4.6737 25.3896C4.6737 27.4296 6.0837 28.8496 8.1437 28.9196H8.6037C7.3437 28.3796 6.5537 27.1696 6.5537 25.6396V3.3096C6.5537 1.7796 7.3437 0.5596 8.6037 0.0296H8.1437C6.0837 0.0996 4.6737 1.5196 4.6737 3.5596ZM13.4937 26.7396C12.3437 26.7396 11.7037 26.1296 11.7037 25.0296V3.9096C11.7037 2.8196 12.3437 2.1996 13.4937 2.1996H23.0637C24.2237 2.1996 24.8737 2.8196 24.8737 3.9096V25.0296C24.8737 26.1296 24.2237 26.7396 23.0637 26.7396ZM16.6437 5.0996H19.9437C20.4837 5.0996 20.9037 4.6796 20.9037 4.1296C20.9037 3.5996 20.4837 3.1696 19.9437 3.1696H16.6437C16.0937 3.1696 15.6637 3.5996 15.6637 4.1296C15.6637 4.6796 16.0937 5.0996 16.6437 5.0996ZM15.3837 25.7396H21.1937C21.5637 25.7396 21.8337 25.4796 21.8337 25.0996C21.8337 24.7196 21.5637 24.4696 21.1937 24.4696H15.3837C15.0137 24.4696 14.7537 24.7196 14.7537 25.0996C14.7537 25.4796 15.0137 25.7396 15.3837 25.7396Z"
        fillRule="evenodd"
        clipRule="evenodd"
    />
</svg>
        