
<svg
    viewBox={0 0 17.568359375 28.943359375}
    xmlns="http://www.w3.org/2000/svg"
>
    <path
        fill="inherit"
        d="M3.7237 28.9396H13.8537C16.0737 28.9396 17.5637 27.5196 17.5637 25.3896V3.5596C17.5637 1.4196 16.0737 -0.0004 13.8537 -0.0004H3.7237C1.4937 -0.0004 0.0037 1.4196 0.0037 3.5596V25.3896C0.0037 27.5196 1.4937 28.9396 3.7237 28.9396ZM4.0037 24.9196C2.8437 24.9196 2.2037 24.3096 2.2037 23.2196V3.9096C2.2037 2.8196 2.8437 2.1996 4.0037 2.1996H13.5737C14.7237 2.1996 15.3637 2.8196 15.3637 3.9096V23.2796C15.3637 24.3896 14.7237 24.9196 13.5737 24.9196H10.9137V24.4596C10.9137 23.8996 10.5437 23.4996 9.9837 23.4996H7.6137C7.0437 23.4996 6.6737 23.8996 6.6737 24.4596V24.9196Z"
        fillRule="evenodd"
        clipRule="evenodd"
    />
</svg>
        