
<svg
    viewBox={0 0 27.890625 27.890625}
    xmlns="http://www.w3.org/2000/svg"
>
    <path
        fill="inherit"
        d="M13.9427 27.8927C21.6427 27.8927 27.8927 21.6427 27.8927 13.9427C27.8927 6.2627 21.6427 0.0027 13.9427 0.0027C6.2627 0.0027 0.0027 6.2627 0.0027 13.9427C0.0027 21.6427 6.2627 27.8927 13.9427 27.8927ZM10.8727 22.8427C9.5027 22.8427 8.5727 21.9527 8.5727 20.6127V7.2727C8.5727 5.9227 9.5027 5.0427 10.8727 5.0427H17.0327C18.4127 5.0427 19.3427 5.9227 19.3427 7.2727V20.6127C19.3427 21.9527 18.4127 22.8427 17.0327 22.8427ZM11.0427 21.4627H16.8727C17.5827 21.4627 17.9827 21.0827 17.9827 20.4127V7.4827C17.9827 6.8127 17.5827 6.4227 16.8727 6.4227H11.0427C10.3327 6.4227 9.9427 6.8127 9.9427 7.4827V20.4127C9.9427 21.0827 10.3327 21.4627 11.0427 21.4627ZM12.9327 8.3127C12.5927 8.3127 12.3227 8.0527 12.3227 7.7127C12.3227 7.3827 12.5927 7.1127 12.9327 7.1127H14.9727C15.3127 7.1127 15.5827 7.3827 15.5827 7.7127C15.5827 8.0527 15.3127 8.3127 14.9727 8.3127ZM12.1927 20.8527C11.9627 20.8527 11.7827 20.6827 11.7827 20.4527C11.7827 20.1927 11.9627 20.0327 12.1927 20.0327H15.7227C15.9527 20.0327 16.1327 20.1927 16.1327 20.4527C16.1327 20.6827 15.9527 20.8527 15.7227 20.8527Z"
        fillRule="evenodd"
        clipRule="evenodd"
    />
</svg>
        