
<svg
    viewBox="0 0 19.0859375 17.896484375"
    xmlns="http://www.w3.org/2000/svg"
>
    <path
        fill="inherit"
        d="M0.0037 14.5925C0.0037 16.6125 1.2337 17.8925 3.1337 17.8925H15.9537C17.8537 17.8925 19.0837 16.6125 19.0837 14.5925V3.3125C19.0837 1.2825 17.8137 0.0025 15.9537 0.0025H3.1337C1.2337 0.0025 0.0037 1.2825 0.0037 3.3125ZM2.2037 14.3125V3.5825C2.2037 2.7225 2.6937 2.2025 3.5037 2.2025H15.5837C16.3837 2.2025 16.8837 2.7225 16.8837 3.5825V14.3125C16.8837 15.1725 16.3837 15.6925 15.5837 15.6925H3.5037C2.6937 15.6925 2.2037 15.1725 2.2037 14.3125ZM9.5437 14.2425C12.4737 14.2425 14.8437 11.8625 14.8437 8.9425C14.8437 6.0125 12.4737 3.6325 9.5437 3.6325C6.6137 3.6325 4.2337 6.0125 4.2337 8.9425C4.2337 11.8625 6.6137 14.2425 9.5437 14.2425ZM9.5437 12.4925C7.5637 12.4925 5.9837 10.9225 5.9837 8.9425C5.9837 6.9625 7.5637 5.3825 9.5437 5.3825C11.5237 5.3825 13.0937 6.9625 13.0937 8.9425C13.0937 10.9225 11.5237 12.4925 9.5437 12.4925Z"
        fillRule="evenodd"
        clipRule="evenodd"
    />
</svg>
        