
<svg
    viewBox={0 0 14.57421875 28.95703125}
    xmlns="http://www.w3.org/2000/svg"
>
    <path
        fill="inherit"
        d="M3.7237 28.9596H10.8537C13.1437 28.9596 14.5737 27.5796 14.5737 25.3996V3.5596C14.5737 1.3796 13.1437 -0.0004 10.8537 -0.0004H3.7237C1.4337 -0.0004 0.0037 1.3796 0.0037 3.5596V25.3996C0.0037 27.5796 1.4337 28.9596 3.7237 28.9596ZM4.0037 26.7596C2.8537 26.7596 2.2037 26.1296 2.2037 25.0496V3.9096C2.2037 2.8296 2.8537 2.1996 4.0037 2.1996H10.5837C11.7137 2.1996 12.3737 2.8296 12.3737 3.9096V25.0496C12.3737 26.1296 11.7137 26.7596 10.5837 26.7596ZM7.2837 13.4696C9.6537 13.4696 11.5637 11.5496 11.5637 9.1896C11.5637 6.8396 9.6537 4.9096 7.2837 4.9096C4.9337 4.9096 3.0337 6.8396 3.0337 9.1896C3.0337 11.5496 4.9337 13.4696 7.2837 13.4696ZM7.2837 11.8796C5.8137 11.8796 4.6237 10.6896 4.6237 9.1896C4.6237 7.6996 5.8137 6.4896 7.2837 6.4896C8.7937 6.4896 9.9837 7.6996 9.9837 9.1896C9.9837 10.6896 8.7937 11.8796 7.2837 11.8796Z"
        fillRule="evenodd"
        clipRule="evenodd"
    />
</svg>
        