
<svg
    viewBox="0 0 18.443359375 27.275390625"
    xmlns="http://www.w3.org/2000/svg"
>
    <path
        fill="inherit"
        d="M0.0037 23.722C0.0037 25.852 1.4937 27.272 3.7237 27.272H14.7137C16.9437 27.272 18.4437 25.852 18.4437 23.722V3.552C18.4437 1.422 16.9437 0.002 14.7137 0.002H3.7237C1.4937 0.002 0.0037 1.422 0.0037 3.552ZM2.2037 10.422V3.912C2.2037 2.812 2.8437 2.202 4.0037 2.202H14.4337C15.5837 2.202 16.2437 2.812 16.2437 3.912V10.422C16.2437 11.522 15.5837 12.142 14.4337 12.142H4.0037C2.8437 12.142 2.2037 11.522 2.2037 10.422ZM9.2237 24.532C6.3837 24.532 4.0637 22.232 4.0637 19.382C4.0637 16.532 6.3837 14.232 9.2237 14.232C12.0537 14.232 14.3837 16.532 14.3837 19.382C14.3837 22.232 12.0537 24.532 9.2237 24.532ZM9.2237 22.602C11.0037 22.602 12.4437 21.152 12.4437 19.382C12.4437 17.612 11.0037 16.162 9.2237 16.162C7.4337 16.162 5.9837 17.612 5.9837 19.382C5.9837 21.152 7.4337 22.602 9.2237 22.602Z"
        fillRule="evenodd"
        clipRule="evenodd"
    />
</svg>
        