<svg viewBox="0 0 24.76318359375 28.95703125" xmlns="http://www.w3.org/2000/svg"><path d="M21.176 19.5396V3.5596C21.176 1.4196 19.686 -0.0004 17.456 -0.0004H7.316C5.616 -0.0004 4.396 0.8096 3.916 2.1896V2.2696L6.396 4.7396V4.6396H18.956V17.3396ZM12.396 3.1196C11.946 3.1196 11.586 2.7496 11.586 2.2996C11.586 1.8596 11.946 1.4996 12.396 1.4996C12.846 1.4996 13.186 1.8596 13.186 2.2996C13.186 2.7496 12.846 3.1196 12.396 3.1196ZM22.966 26.6096C23.376 27.0296 24.056 27.0196 24.456 26.6096C24.866 26.2096 24.866 25.5396 24.456 25.1196L1.806 2.4696C1.396 2.0596 0.726 2.0496 0.296 2.4696C-0.104 2.8696 -0.104 3.5696 0.296 3.9696ZM7.316 28.9596H17.456C19.106 28.9596 20.296 28.1796 20.806 26.8496V26.7796L18.206 24.1996V24.3196H5.796V11.7896L3.596 9.5796V25.3996C3.596 27.5396 5.086 28.9596 7.316 28.9596ZM12.396 27.5996C11.736 27.5996 11.206 27.0696 11.206 26.4096C11.206 25.7696 11.736 25.2396 12.396 25.2396C13.036 25.2396 13.576 25.7696 13.576 26.4096C13.576 27.0696 13.036 27.5996 12.396 27.5996Z" /></svg>