
<svg
    viewBox="0 0 28.970703125 17.568359375"
    xmlns="http://www.w3.org/2000/svg"
>
    <path
        fill="inherit"
        d="M25.4037 17.5721C27.5337 17.5721 28.9737 16.0821 28.9737 13.8521V3.7221C28.9737 1.4921 27.5337 0.0021 25.4037 0.0021H3.5537C1.4237 0.0021 0.0037 1.4921 0.0037 3.7221V13.8521C0.0037 16.0821 1.4237 17.5721 3.5537 17.5721ZM24.3237 15.3721H4.6337V2.2021H24.3237ZM27.6037 8.7821C27.6037 9.4321 27.0837 9.9621 26.4137 9.9621C25.7737 9.9621 25.2337 9.4321 25.2337 8.7821C25.2337 8.1221 25.7737 7.6021 26.4137 7.6021C27.0837 7.6021 27.6037 8.1221 27.6037 8.7821ZM3.1137 8.7821C3.1137 9.2121 2.7437 9.5821 2.3137 9.5821C1.8637 9.5821 1.5037 9.2121 1.5037 8.7821C1.5037 8.3221 1.8637 7.9721 2.3137 7.9721C2.7437 7.9721 3.1137 8.3221 3.1137 8.7821Z"
        fillRule="evenodd"
        clipRule="evenodd"
    />
</svg>
        