
<svg
    viewBox="0 0 17.568359375 28.95703125"
    xmlns="http://www.w3.org/2000/svg"
>
    <path
        fill="inherit"
        d="M0.0037 25.3996C0.0037 27.5396 1.4937 28.9596 3.7237 28.9596H13.8537C16.0737 28.9596 17.5637 27.5396 17.5637 25.3996V3.5596C17.5637 1.4196 16.0737 -0.0004 13.8537 -0.0004H3.7237C1.4937 -0.0004 0.0037 1.4196 0.0037 3.5596ZM8.8037 3.1196C8.3537 3.1196 7.9837 2.7496 7.9837 2.2996C7.9837 1.8596 8.3537 1.4996 8.8037 1.4996C9.2437 1.4996 9.5937 1.8596 9.5937 2.2996C9.5937 2.7496 9.2437 3.1196 8.8037 3.1196ZM2.2037 24.3196V4.6396H15.3637V24.3196ZM8.8037 27.5996C8.1437 27.5996 7.6137 27.0696 7.6137 26.4096C7.6137 25.7696 8.1437 25.2396 8.8037 25.2396C9.4437 25.2396 9.9837 25.7696 9.9837 26.4096C9.9837 27.0696 9.4437 27.5996 8.8037 27.5996Z"
        fillRule="evenodd"
        clipRule="evenodd"
    />
</svg>
        