
<svg
    viewBox={0 0 14.1640625 19.55078125}
    xmlns="http://www.w3.org/2000/svg"
>
    <path
        fill="inherit"
        d="M1.0937 19.5465H9.7337C10.3737 19.5465 10.8437 19.1565 10.8437 18.5165C10.8437 17.8965 10.3937 17.4965 9.7437 17.4965H6.6837L10.0037 2.0465H13.0737C13.7137 2.0465 14.1637 1.6565 14.1637 1.0165C14.1637 0.3965 13.7237 -0.0035 13.0837 -0.0035H4.4037C3.7637 -0.0035 3.3237 0.3965 3.3237 1.0165C3.3237 1.6565 3.7737 2.0465 4.4137 2.0465H7.4737L4.1537 17.4965H1.0837C0.4337 17.4965 0.0037 17.8965 0.0037 18.5165C0.0037 19.1565 0.4537 19.5465 1.0937 19.5465Z"
        fillRule="evenodd"
        clipRule="evenodd"
    />
</svg>
        