
<svg
    viewBox={0 0 20.26171875 36.06640625}
    xmlns="http://www.w3.org/2000/svg"
>
    <path
        fill="inherit"
        d="M3.7737 30.0537H8.9437V31.8437C8.9437 34.5237 10.6337 36.0637 13.3137 36.0637H19.2737C19.8237 36.0637 20.2637 35.6337 20.2637 35.0837C20.2637 34.5237 19.8237 34.0737 19.2737 34.0737H13.3137C11.7437 34.0737 10.9337 33.4137 10.9337 31.8437V30.0537H16.4837C18.8837 30.0537 20.2637 28.6337 20.2637 26.2137V6.6837C20.2637 4.2537 18.8837 2.8437 16.4837 2.8437H12.8837V2.7337C12.8837 1.1237 11.7737 0.0137 10.1337 0.0037C8.4937 0.0137 7.3837 1.1237 7.3837 2.7337V2.8437H3.7737C1.3837 2.8437 0.0037 4.2537 0.0037 6.6837V26.2137C0.0037 28.6337 1.3837 30.0537 3.7737 30.0537ZM10.1337 3.7737C9.5737 3.7737 9.1337 3.3237 9.1337 2.7637C9.1337 2.2137 9.5737 1.7637 10.1337 1.7637C10.6937 1.7637 11.1337 2.2137 11.1337 2.7637C11.1337 3.3237 10.6937 3.7737 10.1337 3.7737ZM3.8837 27.7837C2.8537 27.7837 2.2837 27.1937 2.2837 26.1837V6.7137C2.2837 5.7037 2.8537 5.1137 3.8837 5.1137H16.3837C17.4037 5.1137 17.9737 5.7037 17.9737 6.7137V26.1837C17.9737 27.1937 17.4037 27.7837 16.3837 27.7837ZM5.5937 25.8537H14.6937C15.5337 25.8537 16.0737 25.3237 16.0737 24.5037V9.7737C16.0737 8.9537 15.5337 8.4237 14.6937 8.4237H5.5937C4.7537 8.4237 4.2137 8.9537 4.2137 9.7737V24.5037C4.2137 25.3237 4.7537 25.8537 5.5937 25.8537ZM10.1337 17.0737C8.9537 17.0737 7.9737 16.1637 7.9737 14.9537C7.9737 14.3037 8.3137 13.6437 8.6437 13.0537L9.7437 11.0037C9.9837 10.5637 10.2837 10.5537 10.5137 11.0037L11.6237 13.0537C11.9537 13.6437 12.2937 14.3037 12.2937 14.9537C12.2937 16.1637 11.3237 17.0737 10.1337 17.0737ZM7.4137 20.3137C7.0037 20.3137 6.7237 20.0337 6.7237 19.6437C6.7237 19.2737 7.0037 18.9737 7.4137 18.9737H12.9237C13.3037 18.9737 13.5937 19.2737 13.5937 19.6437C13.5937 20.0337 13.3037 20.3137 12.9237 20.3137ZM8.4537 23.1737C8.0437 23.1737 7.7837 22.8837 7.7837 22.5137C7.7837 22.1337 8.0437 21.8337 8.4537 21.8337H11.8437C12.2337 21.8337 12.5137 22.1337 12.5137 22.5137C12.5137 22.8837 12.2337 23.1737 11.8437 23.1737Z"
        fillRule="evenodd"
        clipRule="evenodd"
    />
</svg>
        