
<svg
    viewBox={0 0 20.26171875 36.052734375}
    xmlns="http://www.w3.org/2000/svg"
>
    <path
        fill="inherit"
        d="M3.7737 30.04H8.9437V31.83C8.9437 34.51 10.6337 36.05 13.3137 36.05H19.2737C19.8237 36.05 20.2637 35.62 20.2637 35.07C20.2637 34.51 19.8237 34.06 19.2737 34.06H13.3137C11.7437 34.06 10.9337 33.4 10.9337 31.83V30.04H16.4837C18.8837 30.04 20.2637 28.62 20.2637 26.2V6.67C20.2637 4.24 18.8837 2.83 16.4837 2.83H12.8837V2.73C12.8837 1.11 11.7537 0 10.1337 0C8.5037 0 7.3837 1.11 7.3837 2.73V2.83H3.7737C1.3837 2.83 0.0037 4.24 0.0037 6.67V26.2C0.0037 28.62 1.3837 30.04 3.7737 30.04ZM10.1337 3.76C9.5737 3.76 9.1337 3.31 9.1337 2.75C9.1337 2.2 9.5737 1.75 10.1337 1.75C10.6937 1.75 11.1337 2.2 11.1337 2.75C11.1337 3.31 10.6937 3.76 10.1337 3.76ZM5.4437 26.1C4.5837 26.1 4.0237 25.57 4.0237 24.72V9.52C4.0237 8.68 4.5837 8.12 5.4437 8.12H14.8437C15.7137 8.12 16.2737 8.68 16.2737 9.52V24.72C16.2737 25.57 15.7137 26.1 14.8437 26.1ZM10.1337 17.05C11.3437 17.05 12.3637 16.11 12.3637 14.87C12.3637 14.19 12.0037 13.52 11.6737 12.91L10.5237 10.8C10.2837 10.34 9.9637 10.35 9.7337 10.8L8.5837 12.91C8.2537 13.52 7.9037 14.19 7.9037 14.87C7.9037 16.11 8.9237 17.05 10.1337 17.05ZM7.3237 20.41H13.0037C13.3937 20.41 13.7037 20.1 13.7037 19.7C13.7037 19.32 13.3937 19.02 13.0037 19.02H7.3237C6.9037 19.02 6.6137 19.32 6.6137 19.7C6.6137 20.1 6.9037 20.41 7.3237 20.41ZM8.4037 23.35H11.8837C12.2937 23.35 12.5937 23.06 12.5937 22.68C12.5937 22.29 12.2937 21.96 11.8837 21.96H8.4037C7.9837 21.96 7.6937 22.29 7.6937 22.68C7.6937 23.06 7.9837 23.35 8.4037 23.35Z"
        fillRule="evenodd"
        clipRule="evenodd"
    />
</svg>
        