
<svg
    viewBox="0 0 27.890625 27.890625"
    xmlns="http://www.w3.org/2000/svg"
>
    <path
        fill="inherit"
        d="M13.9427 27.8864C21.6427 27.8864 27.8927 21.6464 27.8927 13.9464C27.8927 6.2464 21.6427 -0.0036 13.9427 -0.0036C6.2527 -0.0036 0.0027 6.2464 0.0027 13.9464C0.0027 21.6464 6.2527 27.8864 13.9427 27.8864ZM13.9427 25.5664C7.5227 25.5664 2.3227 20.3664 2.3227 13.9464C2.3227 7.5164 7.5227 2.3264 13.9427 2.3264C20.3727 2.3264 25.5627 7.5164 25.5627 13.9464C25.5627 20.3664 20.3727 25.5664 13.9427 25.5664ZM13.2727 20.3464C15.9527 20.3464 17.4027 18.9064 17.4027 16.3064V8.6564C17.4027 7.9064 17.0127 7.4264 16.2927 7.4264C15.6027 7.4264 15.2127 7.9264 15.2127 8.6564V16.2864C15.2127 17.6464 14.5227 18.4664 13.3827 18.4664C12.3627 18.4664 11.6627 17.9664 11.3327 17.0764C11.1027 16.5564 10.8027 16.3364 10.3327 16.3364C9.7327 16.3364 9.3227 16.7664 9.3227 17.3464C9.3227 17.5864 9.3627 17.7864 9.4327 17.9964C9.9127 19.4164 11.3927 20.3464 13.2727 20.3464Z"
        fillRule="evenodd"
        clipRule="evenodd"
    />
</svg>
        