<svg viewBox="0 0 25.169921875 25.169921875" xmlns="http://www.w3.org/2000/svg"><path d="M4.2937 25.1692H20.8737C23.7437 25.1692 25.1737 23.7592 25.1737 20.9492V4.2392C25.1737 1.4192 23.7437 -0.0008 20.8737 -0.0008H4.2937C1.4337 -0.0008 0.0037 1.4192 0.0037 4.2392V20.9492C0.0037 23.7592 1.4337 25.1692 4.2937 25.1692ZM11.9237 19.1792C9.9637 19.1792 8.4537 18.2292 7.9537 16.7592C7.8737 16.5392 7.8337 16.3392 7.8337 16.0892C7.8337 15.4792 8.2537 15.0392 8.8837 15.0392C9.3637 15.0392 9.6837 15.2692 9.9237 15.8092C10.2837 16.7192 10.9737 17.2392 12.0337 17.2392C13.1937 17.2392 13.9137 16.3892 13.9137 14.9892V7.1192C13.9137 6.3692 14.3137 5.8492 15.0437 5.8492C15.7937 5.8492 16.1837 6.3392 16.1837 7.1192V15.0092C16.1837 17.7092 14.6837 19.1792 11.9237 19.1792Z" /></svg>