
<svg
    viewBox={0 0 28.9296875 28.62890625}
    xmlns="http://www.w3.org/2000/svg"
>
    <path
        fill="inherit"
        d="M18.0237 0.0019H4.2937C1.4337 0.0019 0.0037 1.4219 0.0037 4.2419V18.0619C0.0037 20.8819 1.4337 22.3019 4.2937 22.3019H18.0237C20.8737 22.3019 22.3037 20.8919 22.3037 18.0619V4.2419C22.3037 1.4119 20.8737 0.0019 18.0237 0.0019ZM10.4837 17.7419C8.5337 17.7419 7.0137 16.8019 6.5237 15.3219C6.4437 15.1119 6.3937 14.9019 6.3937 14.6719C6.3937 14.0419 6.8237 13.6219 7.4537 13.6219C7.9337 13.6219 8.2437 13.8519 8.4937 14.3719C8.8437 15.2819 9.5437 15.8219 10.5937 15.8219C11.7537 15.8219 12.4837 14.9719 12.4837 13.5619V5.7019C12.4837 4.9319 12.8837 4.4319 13.6037 4.4319C14.3537 4.4319 14.7537 4.9119 14.7537 5.7019V13.5919C14.7537 16.2819 13.2637 17.7419 10.4837 17.7419ZM28.9337 10.5519C28.9337 7.7419 27.5037 6.3319 24.6537 6.3319H24.1737V18.0619C24.1737 21.9319 21.9037 24.1719 18.0237 24.1719H6.6337V24.3919C6.6337 27.2119 8.0637 28.6319 10.9237 28.6319H24.6537C27.5037 28.6319 28.9337 27.2219 28.9337 24.3919Z"
        fillRule="evenodd"
        clipRule="evenodd"
    />
</svg>
        