
<svg
    viewBox="0 0 25.169921875 25.169921875"
    xmlns="http://www.w3.org/2000/svg"
>
    <path
        fill="inherit"
        d="M4.2937 25.1692H20.8737C23.7437 25.1692 25.1737 23.7592 25.1737 20.9492V4.2392C25.1737 1.4192 23.7437 -0.0008 20.8737 -0.0008H4.2937C1.4337 -0.0008 0.0037 1.4192 0.0037 4.2392V20.9492C0.0037 23.7592 1.4337 25.1692 4.2937 25.1692ZM4.3237 22.9692C2.9537 22.9692 2.2037 22.2392 2.2037 20.8192V4.3592C2.2037 2.9392 2.9537 2.1992 4.3237 2.1992H20.8537C22.2037 2.1992 22.9737 2.9392 22.9737 4.3592V20.8192C22.9737 22.2392 22.2037 22.9692 20.8537 22.9692ZM11.9337 18.9792C14.6137 18.9792 16.0637 17.5392 16.0637 14.9392V7.2892C16.0637 6.5392 15.6837 6.0592 14.9537 6.0592C14.2637 6.0592 13.8737 6.5592 13.8737 7.2892V14.9192C13.8737 16.2792 13.1837 17.0992 12.0437 17.0992C11.0237 17.0992 10.3337 16.5992 9.9937 15.7092C9.7637 15.1892 9.4637 14.9692 8.9937 14.9692C8.3937 14.9692 7.9837 15.3992 7.9837 15.9792C7.9837 16.2192 8.0237 16.4192 8.0937 16.6292C8.5737 18.0492 10.0537 18.9792 11.9337 18.9792Z"
        fillRule="evenodd"
        clipRule="evenodd"
    />
</svg>
        