
<svg
    viewBox="0 0 28.9296875 28.62890625"
    xmlns="http://www.w3.org/2000/svg"
>
    <path
        fill="inherit"
        d="M4.2937 22.3019H6.6337V24.3919C6.6337 27.2119 8.0637 28.6319 10.9237 28.6319H24.6537C27.5037 28.6319 28.9337 27.2219 28.9337 24.3919V10.5519C28.9337 7.7419 27.5037 6.3319 24.6537 6.3319H22.3037V4.2419C22.3037 1.4119 20.8737 0.0019 18.0237 0.0019H4.2937C1.4337 0.0019 0.0037 1.4219 0.0037 4.2419V18.0619C0.0037 20.8819 1.4337 22.3019 4.2937 22.3019ZM4.3237 20.1019C2.9837 20.1019 2.2037 19.3719 2.2037 17.9519V4.3519C2.2037 2.9219 2.9837 2.2019 4.3237 2.2019H17.9737C19.3437 2.2019 20.0937 2.9219 20.0937 4.3519V17.9519C20.0937 19.3719 19.3437 20.1019 17.9737 20.1019ZM10.5037 17.5419C13.1937 17.5419 14.6337 16.1219 14.6337 13.5219V5.8619C14.6337 5.1019 14.2437 4.6319 13.5237 4.6319C12.8237 4.6319 12.4437 5.1319 12.4437 5.8619V13.4919C12.4437 14.8619 11.7437 15.6819 10.6137 15.6819C9.5837 15.6819 8.9037 15.1619 8.5537 14.2719C8.3237 13.7719 8.0237 13.5519 7.5637 13.5519C6.9637 13.5519 6.5537 13.9619 6.5537 14.5619C6.5537 14.7819 6.5937 14.9819 6.6537 15.1919C7.1337 16.6219 8.6137 17.5419 10.5037 17.5419ZM10.9537 26.4319C9.6137 26.4319 8.8337 25.7019 8.8337 24.2819V22.3019H18.0237C20.8737 22.3019 22.3037 20.8919 22.3037 18.0619V8.5319H24.6137C25.9737 8.5319 26.7237 9.2519 26.7237 10.6819V24.2819C26.7237 25.7019 25.9737 26.4319 24.6137 26.4319Z"
        fillRule="evenodd"
        clipRule="evenodd"
    />
</svg>
        