
<svg
    viewBox={0 0 39.5006184380429 30.604747375925662}
    xmlns="http://www.w3.org/2000/svg"
>
    <path
        fill="inherit"
        d="M5.7941 30.4193C7.2041 30.8293 8.3941 30.6093 8.7141 29.2193L8.7741 28.9193C9.4441 29.8193 10.5941 30.3493 11.9741 30.3493H27.5241C28.9141 30.3493 30.0541 29.8193 30.7341 28.9193L30.8041 29.2193C31.1041 30.6093 32.3041 30.8293 33.7141 30.4193L37.8041 29.2593C39.2841 28.8493 39.7741 27.6293 39.3641 26.1693L33.8941 6.6293C33.5741 5.5193 32.8541 4.6993 31.4841 4.1793L28.0541 2.8693L25.7741 0.7793C25.2641 0.3193 24.9341 -0.0007 23.8341 -0.0007H15.6941C14.5841 -0.0007 14.2641 0.3193 13.7541 0.7793L11.4841 2.8593L8.0141 4.1793C6.6441 4.6993 5.9241 5.5193 5.6241 6.6293L0.1341 26.1693C-0.2759 27.6293 0.2341 28.8493 1.7141 29.2593ZM22.7541 8.3693L20.7141 6.1093C20.4541 5.8193 20.4441 5.4393 20.7441 5.1393L23.7941 1.9593C24.0041 1.7093 24.3341 1.7093 24.5641 1.9293L26.5641 3.7493C26.7941 3.9493 26.8141 4.2393 26.6241 4.4893L23.7741 8.3093C23.4841 8.6793 23.0541 8.6793 22.7541 8.3693ZM16.7941 8.3693C16.5041 8.6793 16.0541 8.6793 15.7741 8.3093L12.9241 4.4893C12.7541 4.2493 12.7441 3.9393 12.9741 3.7493L14.9841 1.9293C15.2141 1.7193 15.5441 1.7093 15.7641 1.9593L18.8041 5.1393C19.1041 5.4393 19.0841 5.8193 18.8241 6.1093ZM17.5441 9.8293L18.7741 8.4893V28.2093H11.9641C10.7741 28.2093 9.9941 27.3993 10.0241 26.2493L10.3941 15.8293C10.4041 15.4893 10.2141 15.2393 9.9241 15.2393C9.6841 15.2393 9.4741 15.4093 9.4241 15.7193L8.4941 20.9893L6.8741 27.9293C6.7941 28.2893 6.5641 28.3593 6.2741 28.2893L2.6541 27.3293C2.2741 27.2193 2.1741 26.9793 2.2841 26.5493L7.4741 7.5693C7.6941 6.7693 8.0641 6.2093 8.8441 5.9293L11.3241 5.0593L14.6741 9.6093C15.4341 10.6193 16.6841 10.7693 17.5441 9.8293ZM32.6341 27.9293L31.0041 20.9893L30.0741 15.7193C30.0241 15.4093 29.8141 15.2393 29.5841 15.2393C29.3041 15.2393 29.0941 15.4893 29.1041 15.8293L29.4741 26.2493C29.5141 27.3993 28.7241 28.2093 27.5541 28.2093H20.7541V8.4893L21.9841 9.8293C22.8441 10.7693 24.0941 10.6193 24.8541 9.6093L28.2041 5.0693L30.6641 5.9293C31.4441 6.2093 31.8041 6.7693 32.0241 7.5693L37.2141 26.5493C37.3341 26.9793 37.2441 27.2193 36.8441 27.3293L33.2241 28.2893C32.9541 28.3593 32.7141 28.2893 32.6341 27.9293ZM25.9641 22.9693C26.4041 23.2993 26.9841 23.1893 27.3141 22.7493C27.6141 22.3093 27.5341 21.7293 27.0841 21.3993L24.4141 19.4693C23.9941 19.1493 23.3841 19.2493 23.0741 19.6693C22.7641 20.1093 22.8441 20.6993 23.2941 21.0293ZM13.5541 22.9693L16.2241 21.0293C16.6641 20.6993 16.7641 20.1093 16.4441 19.6693C16.1341 19.2493 15.5141 19.1493 15.0941 19.4693L12.4241 21.3993C11.9941 21.7293 11.8941 22.3093 12.2141 22.7493C12.5241 23.1893 13.1141 23.2993 13.5541 22.9693Z"
        fillRule="evenodd"
        clipRule="evenodd"
    />
</svg>
        