
<svg
    viewBox="0 0 36.614576569471495 29.44714833564234"
    xmlns="http://www.w3.org/2000/svg"
>
    <path
        fill="inherit"
        d="M13.9715 6.2141C14.4615 6.8041 14.9415 6.7041 15.4315 6.2141L17.1515 4.4741C17.5415 4.0941 17.5515 3.5841 17.1715 3.1941L14.3915 0.3641C13.9715 -0.0659 13.5615 -0.1359 13.1215 0.2541L11.2815 1.8341C10.8915 2.1541 10.8915 2.5741 11.1915 2.9341ZM22.6815 6.2141L25.4515 2.9341C25.7515 2.5741 25.7515 2.1541 25.3715 1.8341L23.5315 0.2541C23.0915 -0.1359 22.6815 -0.0659 22.2515 0.3641L19.4815 3.1941C19.0815 3.5841 19.1115 4.0941 19.4815 4.4741L21.2215 6.2141C21.6915 6.7041 22.1915 6.8041 22.6815 6.2141ZM10.9515 28.7441H17.2815V6.7141L15.7915 8.2041C14.9915 8.9741 13.8715 8.9441 13.0915 8.0441L9.0515 3.2141L7.9715 3.6241C6.4515 4.1841 5.8315 4.9941 5.4115 6.5441L0.1315 25.5141C-0.2585 26.9641 0.2215 28.0641 1.5815 28.4341L4.7015 29.2741C6.0715 29.6441 7.1315 29.4841 7.4315 28.1141L7.8015 26.5041C8.0815 27.9641 9.0115 28.7441 10.9515 28.7441ZM19.3315 28.7441H25.6715C27.6115 28.7441 28.5315 27.9641 28.8215 26.5041L29.1915 28.1141C29.4915 29.4841 30.5515 29.6441 31.9115 29.2741L35.0215 28.4341C36.3915 28.0641 36.8815 26.9641 36.4715 25.5141L31.2015 6.5441C30.7715 4.9941 30.1615 4.1841 28.6415 3.6241L27.5715 3.2341L23.5315 8.0441C22.7615 8.9441 21.6315 8.9741 20.8315 8.2041L19.3315 6.7041ZM24.8815 22.4541L22.0815 20.4041C21.6315 20.0741 21.5415 19.4741 21.8615 19.0341C22.1715 18.5941 22.7915 18.5141 23.2215 18.8141L26.0115 20.8541C26.4715 21.1841 26.5615 21.7841 26.2515 22.2241C25.9215 22.6741 25.3315 22.7841 24.8815 22.4541ZM11.8115 22.4541C11.3615 22.7841 10.7715 22.6741 10.4415 22.2241C10.1415 21.7841 10.2215 21.1841 10.6715 20.8541L13.4615 18.8141C13.9015 18.5141 14.5215 18.5941 14.8315 19.0341C15.1615 19.4741 15.0615 20.0741 14.6115 20.4041Z"
        fillRule="evenodd"
        clipRule="evenodd"
    />
</svg>
        