
<svg
    viewBox="0 0 27.890625 27.890625"
    xmlns="http://www.w3.org/2000/svg"
>
    <path
        fill="inherit"
        d="M13.9427 27.8864C21.6427 27.8864 27.8927 21.6464 27.8927 13.9464C27.8927 6.2464 21.6427 -0.0036 13.9427 -0.0036C6.2527 -0.0036 0.0027 6.2464 0.0027 13.9464C0.0027 21.6464 6.2527 27.8864 13.9427 27.8864ZM13.9427 25.5664C7.5227 25.5664 2.3227 20.3664 2.3227 13.9464C2.3227 7.5164 7.5227 2.3264 13.9427 2.3264C20.3727 2.3264 25.5627 7.5164 25.5627 13.9464C25.5627 20.3664 20.3727 25.5664 13.9427 25.5664ZM10.3627 20.2064C11.0727 20.2064 11.4727 19.7464 11.4727 18.9764V16.1364L13.1427 14.4064L17.1327 19.6764C17.4027 20.0464 17.6927 20.2064 18.0727 20.2064C18.6927 20.2064 19.1227 19.7664 19.1227 19.1864C19.1227 18.9064 19.0127 18.6064 18.8127 18.3464L14.7427 13.0064L18.4827 9.1464C18.7327 8.8864 18.8227 8.6564 18.8227 8.3564C18.8227 7.8464 18.3927 7.4264 17.8327 7.4264C17.4827 7.4264 17.2527 7.5464 16.9427 7.8564L11.5527 13.3564H11.4727V8.6564C11.4727 7.8864 11.0727 7.4264 10.3627 7.4264C9.6927 7.4264 9.2827 7.8864 9.2827 8.6564V18.9764C9.2827 19.7464 9.6927 20.2064 10.3627 20.2064Z"
        fillRule="evenodd"
        clipRule="evenodd"
    />
</svg>
        