
<svg
    viewBox="0 0 27.890625 27.890625"
    xmlns="http://www.w3.org/2000/svg"
>
    <path
        fill="inherit"
        d="M13.9427 27.8864C21.6427 27.8864 27.8927 21.6264 27.8927 13.9464C27.8927 6.2464 21.6427 -0.0036 13.9427 -0.0036C6.2627 -0.0036 0.0027 6.2464 0.0027 13.9464C0.0027 21.6264 6.2627 27.8864 13.9427 27.8864ZM10.2627 20.4164C9.5727 20.4164 9.1427 19.9364 9.1427 19.1264V8.5064C9.1427 7.6964 9.5727 7.2164 10.2627 7.2164C11.0027 7.2164 11.4127 7.6964 11.4127 8.5064V13.3264H11.5027L17.0527 7.6664C17.3727 7.3564 17.6227 7.2164 17.9627 7.2164C18.5527 7.2164 19.0027 7.6564 19.0027 8.1864C19.0027 8.5064 18.9127 8.7364 18.6527 9.0064L14.7927 12.9764L18.9927 18.4864C19.1927 18.7564 19.3227 19.0564 19.3227 19.3464C19.3227 19.9564 18.8627 20.4164 18.2227 20.4164C17.8327 20.4164 17.5227 20.2364 17.2427 19.8564L13.1427 14.4364L11.4127 16.2164V19.1264C11.4127 19.9364 11.0027 20.4164 10.2627 20.4164Z"
        fillRule="evenodd"
        clipRule="evenodd"
    />
</svg>
        