
<svg
    viewBox={0 0 34.95556640625 34.56091212446269}
    xmlns="http://www.w3.org/2000/svg"
>
    <path
        fill="inherit"
        d="M30.6772 18.9738C31.1772 19.3238 31.8072 19.2138 32.1772 18.6738C33.9272 16.2738 34.9572 12.9638 34.9572 9.5838C34.9572 6.2038 33.9472 2.8738 32.1772 0.4938C31.8072 -0.0262 31.1772 -0.1462 30.6772 0.1938C30.1672 0.5338 30.0872 1.1738 30.4872 1.7338C31.9772 3.8538 32.8372 6.6738 32.8372 9.5838C32.8372 12.5138 31.9472 15.3138 30.4872 17.4338C30.0972 17.9938 30.1672 18.6338 30.6772 18.9738ZM17.0872 17.5738C20.6272 15.8238 22.5872 12.9338 22.5872 9.5338C22.5872 4.7138 18.6972 0.8238 13.8572 0.8238C10.1572 0.8238 7.0472 3.0638 5.7972 6.2738ZM25.6072 15.4238C26.0672 15.7338 26.7072 15.6238 27.0772 15.1038C28.1372 13.7138 28.7672 11.6738 28.7672 9.5838C28.7672 7.4938 28.1372 5.4738 27.0772 4.0738C26.7072 3.5438 26.0672 3.4438 25.6072 3.7738C25.0572 4.1538 24.9572 4.8238 25.3972 5.3838C26.1872 6.4838 26.6472 7.9938 26.6472 9.5838C26.6472 11.1738 26.1772 12.6738 25.3972 13.7838C24.9772 14.3538 25.0572 15.0238 25.6072 15.4238ZM13.8572 8.8338C12.5872 8.8338 11.5772 7.8038 11.5772 6.5538C11.5772 5.2738 12.5772 4.2638 13.8572 4.2638C15.1272 4.2638 16.1572 5.2738 16.1572 6.5538C16.1572 7.8038 15.1272 8.8338 13.8572 8.8338ZM0.2972 6.2638L25.0272 30.9638C25.4372 31.3738 26.1272 31.3738 26.5172 30.9638C26.9172 30.5438 26.9272 29.8838 26.5172 29.4738L1.7972 4.7738C1.3872 4.3638 0.7172 4.3638 0.2972 4.7738C-0.1028 5.1638 -0.1028 5.8638 0.2972 6.2638ZM14.3472 34.3738L18.6872 30.0338C18.9772 29.7338 18.9572 29.3438 18.6872 29.0538L16.0072 26.4038L16.9872 25.4138L10.7272 19.1638V31.2038C10.7272 31.5438 10.8372 31.8038 11.0972 32.0638L13.3772 34.3538C13.5972 34.5938 14.0672 34.6638 14.3472 34.3738Z"
        fillRule="evenodd"
        clipRule="evenodd"
    />
</svg>
        