
<svg
    viewBox={0 0 25.013669540669124 37.94287878196586}
    xmlns="http://www.w3.org/2000/svg"
>
    <path
        fill="inherit"
        d="M2.174 37.4997L7.194 35.1497C7.534 34.9997 7.654 34.6597 7.494 34.3397L6.054 31.2397L10.294 29.2897C10.594 29.1197 10.734 28.7797 10.564 28.4097L9.134 25.2697C9.134 25.1297 9.134 24.9897 9.134 24.8397C7.414 23.8297 6.014 22.1097 5.264 20.0297C3.664 15.6097 5.414 10.7497 9.544 8.4197C8.174 8.4097 6.904 8.7097 5.784 9.2697C5.704 8.8497 5.664 8.4197 5.664 7.9697C5.664 4.6197 8.284 1.9597 11.624 1.9597C14.974 1.9597 17.654 4.6197 17.654 7.9697C17.654 8.4397 17.624 8.9397 17.504 9.3497C18.134 9.5997 18.714 9.9497 19.264 10.3797C19.484 9.6497 19.634 8.7797 19.634 7.9697C19.634 3.6097 16.014 -0.0003 11.634 -0.0003C7.284 -0.0003 3.694 3.6097 3.694 7.9697C3.694 8.8297 3.824 9.6697 4.084 10.4297C3.184 11.2697 2.464 12.3197 2.014 13.5497C0.874 16.6497 1.754 20.0797 4.254 22.2297L0.064 33.6897C-0.026 33.9897 -0.026 34.2597 0.094 34.5397L1.384 37.2197C1.474 37.4497 1.834 37.6797 2.174 37.4997ZM21.804 37.8997C22.044 37.9897 22.454 37.9497 22.624 37.5997L24.934 32.5697C25.114 32.2197 24.964 31.9197 24.654 31.7597L21.564 30.3097L23.544 26.0897C23.694 25.7597 23.554 25.4197 23.184 25.2397L19.004 23.2397C22.054 20.5197 23.094 17.1597 21.934 13.9597C21.384 12.4697 20.454 11.2497 19.264 10.3797C18.644 12.2797 17.364 13.8497 15.664 14.8497C15.654 15.5897 15.174 16.2697 14.434 16.5397C13.414 16.9297 12.274 16.3797 11.904 15.3397C11.524 14.3397 12.044 13.2097 13.084 12.8197C13.704 12.6097 14.384 12.6997 14.874 13.0697C16.174 12.2497 17.154 10.9197 17.504 9.3497C15.734 8.6397 13.744 8.5597 11.824 9.2597C7.684 10.7597 5.624 15.2397 7.094 19.3497C8.234 22.4597 11.084 24.5397 14.384 24.5697L18.554 36.0297C18.664 36.3297 18.824 36.5197 19.124 36.6497Z"
        fillRule="evenodd"
        clipRule="evenodd"
    />
</svg>
        