
<svg
    viewBox={0 0 17.458984375 33.73997228643058}
    xmlns="http://www.w3.org/2000/svg"
>
    <path
        fill="inherit"
        d="M8.7337 0.0028C3.8737 0.0028 0.0037 3.8728 0.0037 8.7128C0.0037 12.3628 2.1837 15.5828 5.6037 16.8828V30.3828C5.6037 30.7228 5.7137 30.9828 5.9637 31.2428L8.2437 33.5328C8.4737 33.7728 8.9437 33.8428 9.2237 33.5528L13.5637 29.2128C13.8537 28.9128 13.8337 28.5228 13.5637 28.2328L10.8737 25.5828L14.5637 21.9028C14.8237 21.6328 14.8237 21.2328 14.5337 20.9328L10.8837 17.2528C15.1037 15.5728 17.4637 12.4528 17.4637 8.7128C17.4637 3.8928 13.5637 0.0028 8.7337 0.0028ZM8.7337 8.0128C7.4637 8.0128 6.4537 6.9828 6.4537 5.7328C6.4537 4.4528 7.4537 3.4428 8.7337 3.4428C9.9937 3.4428 11.0237 4.4528 11.0237 5.7328C11.0237 6.9828 9.9937 8.0128 8.7337 8.0128Z"
        fillRule="evenodd"
        clipRule="evenodd"
    />
</svg>
        