
<svg
    viewBox="0 0 34.37109375 23.76171875"
    xmlns="http://www.w3.org/2000/svg"
>
    <path
        fill="inherit"
        d="M27.0127 23.7594C31.1427 23.7594 34.3727 20.7394 34.3727 16.9794C34.3727 14.1094 32.7127 11.6194 30.0527 10.4994C30.0827 4.3994 25.6927 -0.0006 20.0927 -0.0006C16.3927 -0.0006 13.7527 1.9794 12.1127 4.3794C8.7527 3.3894 5.0827 5.9494 5.0127 9.7794C1.9327 10.2694 0.0027 13.0294 0.0027 16.3694C0.0027 20.3894 3.5127 23.7594 8.1927 23.7594ZM24.9327 13.4694C24.9327 15.7894 23.0627 17.6494 20.7427 17.6494C18.9527 17.6494 17.4327 16.5294 16.6427 14.4894L14.8627 16.2394C14.7127 16.3894 14.5027 16.4094 14.3927 16.2694L12.6327 14.4794L11.3427 15.7794C11.1927 15.9294 11.0027 15.9294 10.8727 15.7794L8.7927 13.6994C8.6727 13.5594 8.6827 13.3594 8.7927 13.2294L9.8827 12.1394C10.0327 11.9994 10.1627 11.9594 10.3127 11.9594H16.8027C17.4327 10.3094 18.9727 9.2694 20.7427 9.2694C23.0627 9.2694 24.9327 11.1294 24.9327 13.4694ZM22.9327 13.4494C22.9327 12.7294 22.3227 12.1694 21.6327 12.1694C20.8927 12.1694 20.3327 12.7394 20.3327 13.4494C20.3327 14.1594 20.8927 14.7394 21.6327 14.7394C22.3227 14.7394 22.9327 14.1594 22.9327 13.4494Z"
        fillRule="evenodd"
        clipRule="evenodd"
    />
</svg>
        