
<svg
    viewBox="0 0 35.77587890625 34.53982352006533"
    xmlns="http://www.w3.org/2000/svg"
>
    <path
        fill="inherit"
        d="M31.4972 18.9738C32.0072 19.3238 32.6272 19.2138 32.9972 18.6738C34.7472 16.2738 35.7772 12.9638 35.7772 9.5838C35.7772 6.2038 34.7672 2.8738 32.9972 0.4938C32.6272 -0.0262 32.0072 -0.1462 31.4972 0.1938C30.9872 0.5338 30.9072 1.1738 31.3072 1.7338C32.7972 3.8538 33.6572 6.6738 33.6572 9.5838C33.6572 12.5138 32.7672 15.3138 31.3072 17.4338C30.9272 17.9938 30.9872 18.6338 31.4972 18.9738ZM14.2672 2.6638C18.1072 2.6638 21.1972 5.7538 21.1972 9.5838C21.1972 12.7138 19.1472 15.4238 15.9072 16.3638L17.5972 18.0438C21.3072 16.2438 23.4072 13.1938 23.4072 9.5838C23.4072 4.5438 19.3272 0.4638 14.2672 0.4638C10.3872 0.4638 7.0972 2.8738 5.7972 6.2638L7.5172 7.9838C8.2372 4.9338 10.9572 2.6638 14.2672 2.6638ZM26.4272 15.4238C26.8872 15.7338 27.5272 15.6238 27.8972 15.1038C28.9572 13.7138 29.5872 11.6738 29.5872 9.5838C29.5872 7.4938 28.9572 5.4738 27.8972 4.0738C27.5272 3.5438 26.8872 3.4438 26.4272 3.7738C25.8772 4.1538 25.7772 4.8238 26.2172 5.3838C27.0172 6.4838 27.4672 7.9938 27.4672 9.5838C27.4672 11.1738 26.9972 12.6738 26.2172 13.7838C25.7972 14.3538 25.8772 15.0238 26.4272 15.4238ZM0.2972 6.2638L25.0272 30.9638C25.4372 31.3738 26.1272 31.3738 26.5172 30.9638C26.9172 30.5438 26.9272 29.8838 26.5172 29.4738L1.7972 4.7738C1.3872 4.3638 0.7172 4.3638 0.2972 4.7738C-0.1028 5.1638 -0.1028 5.8638 0.2972 6.2638ZM14.2672 9.1738C15.4972 9.1738 16.4972 8.1738 16.4972 6.9438C16.4972 5.7338 15.4972 4.7438 14.2672 4.7438C13.0272 4.7438 12.0572 5.7338 12.0572 6.9438C12.0572 8.1738 13.0372 9.1738 14.2672 9.1738ZM15.2172 34.1638L19.4372 29.9438C19.9072 29.4738 19.8372 28.8938 19.4972 28.5438L15.3072 24.3738V27.0538L17.2472 28.9738L14.2672 31.9938L12.7672 30.4938V21.1738L10.5472 18.9738V30.8738C10.5472 31.3238 10.6872 31.8438 11.0972 32.1938L13.3272 34.1538C13.8872 34.6338 14.6772 34.7038 15.2172 34.1638Z"
        fillRule="evenodd"
        clipRule="evenodd"
    />
</svg>
        