<svg viewBox="0 0 25.692830021401424 37.96772293215599" xmlns="http://www.w3.org/2000/svg"><path d="M3.0524 37.5197L7.8924 35.2497C8.5324 34.9497 8.7524 34.2297 8.4524 33.6297L7.3124 31.2097L10.8824 29.5697C11.4824 29.2997 11.7124 28.5897 11.4424 27.9697L9.9124 24.6597C10.4824 24.6097 11.0424 24.5097 11.5924 24.3797C12.4524 24.7697 13.4124 25.0197 14.4124 25.0697L18.3724 35.9397C18.5124 36.3297 18.7824 36.7597 19.2324 36.9297L21.6924 37.8697C22.3424 38.0897 23.0224 37.9497 23.3224 37.2997L25.5824 32.4297C25.8624 31.7997 25.5924 31.1397 24.9624 30.8397L22.5424 29.7197L24.2124 26.1797C24.4824 25.5897 24.2224 24.8797 23.6124 24.5997L20.3124 23.0497C22.9424 20.3897 23.8024 17.1397 22.6924 14.0697C22.0924 12.4397 21.0424 11.1197 19.7224 10.1997C19.9324 9.4897 20.0424 8.7497 20.0424 7.9797C20.0424 3.6097 16.4324 -0.0003 12.0524 -0.0003C7.6924 -0.0003 4.1124 3.6097 4.1124 7.9797C4.1124 8.7597 4.2324 9.5297 4.4524 10.2397C3.4024 11.1297 2.5724 12.2997 2.0624 13.6997C0.9324 16.7797 1.7324 20.1797 4.0724 22.4397L0.1224 33.2897C-0.0176 33.6997 -0.0676 34.1797 0.1324 34.5897L1.4324 36.9097C1.7624 37.5197 2.4024 37.7997 3.0524 37.5197ZM12.5524 8.8197C10.3724 8.0297 8.0924 8.1897 6.1824 9.1197C6.1124 8.7497 6.0724 8.3797 6.0724 7.9797C6.0724 4.6397 8.7124 1.9597 12.0424 1.9597C15.3824 1.9597 18.0724 4.6397 18.0724 7.9797C18.0724 8.4197 18.0324 8.8297 17.9524 9.2397C16.3924 8.6397 14.6424 8.5197 12.9324 8.9697C12.8124 8.9097 12.6824 8.8697 12.5524 8.8197ZM2.1224 33.6497L6.4524 21.7797C3.9324 20.1497 2.9524 17.0997 3.9524 14.3997C4.8924 11.7897 7.4124 10.1997 10.0624 10.3397C7.2224 12.4297 5.9824 16.1897 7.2624 19.6897C7.6824 20.8597 8.3524 21.8897 9.1824 22.7197C9.0224 22.7197 8.8424 22.7097 8.6624 22.6997L7.8424 24.9797L9.2924 28.1197L6.0024 29.6297L5.2924 31.5797L6.3124 33.7697L2.9124 35.3697ZM14.8424 16.5597C15.6224 16.2797 16.1024 15.5697 16.1624 14.7897C17.2624 14.1197 18.2124 13.1797 18.8924 12.0697C19.7224 12.7597 20.3924 13.6697 20.7924 14.7697C21.8024 17.4997 20.7624 20.5497 18.1024 22.3397L18.9324 24.6097L22.0624 26.0897L20.5024 29.3497L21.2224 31.2997L23.4224 32.3197L21.8324 35.7397L20.1424 34.9297L15.8024 23.0497C12.8124 23.4097 10.1424 21.7197 9.1424 18.9997C7.9724 15.7897 9.6424 12.2397 12.8524 11.0597C14.3224 10.5297 15.8724 10.5697 17.2124 11.0997C16.7324 11.8797 16.0924 12.5497 15.3124 13.0397C14.8024 12.6897 14.1224 12.5597 13.4824 12.7997C12.4424 13.1697 11.9324 14.3097 12.3024 15.3397C12.6824 16.3797 13.8024 16.9397 14.8424 16.5597Z" /></svg>