
<svg
    viewBox="0 0 30.65234375 34.53982352006533"
    xmlns="http://www.w3.org/2000/svg"
>
    <path
        fill="inherit"
        d="M26.3737 18.9738C26.8837 19.3238 27.5037 19.2138 27.8637 18.6738C29.6137 16.2738 30.6537 12.9638 30.6537 9.5838C30.6537 6.2038 29.6237 2.8738 27.8637 0.4938C27.5037 -0.0262 26.8837 -0.1462 26.3737 0.1938C25.8637 0.5338 25.7837 1.1738 26.1837 1.7338C27.6737 3.8538 28.5337 6.6738 28.5337 9.5838C28.5337 12.5138 27.6437 15.3138 26.1837 17.4338C25.8037 17.9938 25.8637 18.6338 26.3737 18.9738ZM8.1937 34.1538C8.7637 34.6338 9.5437 34.7038 10.0937 34.1638L14.3137 29.9438C14.8437 29.3938 14.8237 28.5738 14.3037 28.0438L12.1837 25.9338L15.2737 22.8638C15.8037 22.3438 15.7737 21.5038 15.2537 20.9638L12.4037 18.0838C16.1637 16.2838 18.2837 13.2238 18.2837 9.5838C18.2837 4.5438 14.1937 0.4638 9.1437 0.4638C4.0637 0.4638 0.0037 4.5138 0.0037 9.5838C0.0037 13.2438 2.1037 16.5038 5.4237 17.9638V30.8738C5.4237 31.3238 5.5637 31.8438 5.9637 32.1938ZM9.1437 31.9938L7.6337 30.4938V16.3838C4.4137 15.6538 2.1837 12.8838 2.1837 9.5838C2.1837 5.7538 5.2937 2.6638 9.1437 2.6638C12.9837 2.6638 16.0737 5.7538 16.0737 9.5838C16.0737 12.8538 13.8337 15.6538 10.4037 16.4738V19.2338L13.0837 21.9338L10.1837 24.7838V27.0538L12.1237 28.9738ZM21.3037 15.4238C21.7637 15.7338 22.4037 15.6238 22.7737 15.1038C23.8137 13.7138 24.4437 11.6738 24.4437 9.5838C24.4437 7.4938 23.8137 5.4738 22.7737 4.0738C22.4037 3.5438 21.7637 3.4438 21.3037 3.7738C20.7537 4.1538 20.6537 4.8238 21.0837 5.3838C21.8937 6.4838 22.3237 7.9938 22.3237 9.5838C22.3237 11.1738 21.8737 12.6738 21.0837 13.7838C20.6737 14.3538 20.7537 15.0238 21.3037 15.4238ZM9.1437 9.1738C10.3637 9.1738 11.3637 8.1738 11.3637 6.9438C11.3637 5.7338 10.3637 4.7438 9.1437 4.7438C7.9037 4.7438 6.9337 5.7338 6.9337 6.9438C6.9337 8.1738 7.9137 9.1738 9.1437 9.1738Z"
        fillRule="evenodd"
        clipRule="evenodd"
    />
</svg>
        