
<svg
    viewBox={0 0 18.279296875 34.07435243203322}
    xmlns="http://www.w3.org/2000/svg"
>
    <path
        fill="inherit"
        d="M8.1937 33.6883C8.7637 34.1683 9.5437 34.2383 10.0937 33.6983L14.3137 29.4783C14.8437 28.9283 14.8237 28.1083 14.3037 27.5783L12.1837 25.4683L15.2737 22.3983C15.8037 21.8783 15.7737 21.0383 15.2537 20.4983L12.4037 17.6183C16.1637 15.8183 18.2837 12.7583 18.2837 9.1183C18.2837 4.0783 14.1937 -0.0017 9.1437 -0.0017C4.0637 -0.0017 0.0037 4.0483 0.0037 9.1183C0.0037 12.7783 2.1037 16.0383 5.4237 17.4983V30.4083C5.4237 30.8583 5.5637 31.3783 5.9637 31.7283ZM9.1437 31.5283L7.6337 30.0283V15.9183C4.4137 15.1883 2.1837 12.4183 2.1837 9.1183C2.1837 5.2883 5.2937 2.1983 9.1437 2.1983C12.9837 2.1983 16.0737 5.2883 16.0737 9.1183C16.0737 12.3883 13.8337 15.1883 10.4037 16.0083V18.7683L13.0837 21.4683L10.1837 24.3183V26.5883L12.1237 28.5083ZM9.1437 8.7083C10.3637 8.7083 11.3637 7.7083 11.3637 6.4783C11.3637 5.2683 10.3637 4.2783 9.1437 4.2783C7.9037 4.2783 6.9337 5.2683 6.9337 6.4783C6.9337 7.7083 7.9137 8.7083 9.1437 8.7083Z"
        fillRule="evenodd"
        clipRule="evenodd"
    />
</svg>
        