
<svg
    viewBox={0 0 31.71875 29.3125}
    xmlns="http://www.w3.org/2000/svg"
>
    <path
        fill="inherit"
        d="M0.0037 25.1673C0.0037 27.3273 1.3537 29.3173 4.6437 29.3173H13.1137C16.4037 29.3173 17.7637 27.3273 17.7637 25.1673V4.1573C17.7637 1.9973 16.4037 -0.0027 13.1137 -0.0027H4.6437C1.3537 -0.0027 0.0037 1.9973 0.0037 4.1573ZM3.8737 5.2273C3.6737 5.2273 3.5137 5.0473 3.5137 4.8573V4.3873C3.5137 3.8273 3.9937 3.3673 4.5437 3.3673H13.2237C13.7637 3.3673 14.2437 3.8273 14.2437 4.3873V4.8573C14.2437 5.0473 14.0837 5.2273 13.8937 5.2273ZM27.4437 24.0473C27.9437 24.3873 28.5737 24.2673 28.9437 23.7473C30.6937 21.3373 31.7237 18.0373 31.7237 14.6573C31.7237 11.2773 30.7037 7.9473 28.9437 5.5673C28.5737 5.0473 27.9437 4.9173 27.4437 5.2673C26.9337 5.6073 26.8537 6.2473 27.2437 6.8073C28.7337 8.9173 29.6037 11.7473 29.6037 14.6573C29.6037 17.5673 28.7137 20.3673 27.2437 22.5073C26.8637 23.0673 26.9337 23.7073 27.4437 24.0473ZM22.3637 20.4773C22.8337 20.7973 23.4737 20.6973 23.8437 20.1673C24.8937 18.7873 25.5137 16.7473 25.5137 14.6573C25.5137 12.5673 24.8937 10.5373 23.8437 9.1473C23.4737 8.6173 22.8337 8.5073 22.3637 8.8273C21.8237 9.2173 21.7237 9.8973 22.1437 10.4573C22.9537 11.5573 23.3937 13.0673 23.3937 14.6573C23.3937 16.2373 22.9437 17.7473 22.1437 18.8573C21.7337 19.4273 21.8237 20.0873 22.3637 20.4773ZM8.9037 9.0673C11.1537 9.0673 12.9837 10.8973 12.9837 13.1473C12.9837 14.8773 11.9237 16.3273 10.0337 17.1173L11.6237 18.7173C11.7737 18.8773 11.7737 19.1273 11.6237 19.2773L10.0037 20.9173L11.1737 22.0573C11.3337 22.2473 11.3637 22.4773 11.1737 22.6573L9.1737 24.6373C8.9937 24.7873 8.7337 24.7573 8.6037 24.6373L7.5637 23.5673C7.4237 23.4373 7.3737 23.2973 7.3737 23.1173V16.9673C5.7837 16.3473 4.7837 14.8473 4.7837 13.1473C4.7837 10.8873 6.6037 9.0673 8.9037 9.0673ZM8.8837 12.9773C9.5037 12.9773 10.0037 12.4573 10.0037 11.8373C10.0037 11.2073 9.5037 10.7073 8.8837 10.7073C8.2337 10.7073 7.7337 11.2073 7.7337 11.8373C7.7337 12.4573 8.2437 12.9773 8.8837 12.9773Z"
        fillRule="evenodd"
        clipRule="evenodd"
    />
</svg>
        