
<svg
    viewBox={0 0 26.76953125 26.755859375}
    xmlns="http://www.w3.org/2000/svg"
>
    <path
        fill="inherit"
        d="M1.0937 8.6985C1.8137 8.6985 2.2037 8.2885 2.2037 7.5785V4.3485C2.2037 2.9285 2.9537 2.1985 4.3237 2.1985H7.6337C8.3537 2.1985 8.7537 1.8085 8.7537 1.0985C8.7537 0.3785 8.3537 -0.0015 7.6337 -0.0015H4.2937C1.4337 -0.0015 0.0037 1.4085 0.0037 4.2285V7.5785C0.0037 8.2885 0.3937 8.6985 1.0937 8.6985ZM25.6637 8.6985C26.3837 8.6985 26.7737 8.2885 26.7737 7.5785V4.2285C26.7737 1.4085 25.3337 -0.0015 22.4737 -0.0015H19.1237C18.4137 -0.0015 18.0237 0.3785 18.0237 1.0985C18.0237 1.8085 18.4137 2.1985 19.1237 2.1985H22.4337C23.7937 2.1985 24.5637 2.9285 24.5637 4.3485V7.5785C24.5637 8.2885 24.9637 8.6985 25.6637 8.6985ZM13.3937 5.0285C10.8737 5.0285 8.8637 7.0585 8.8637 9.5585C8.8637 11.4685 9.9937 13.1285 11.7437 13.8085V20.8185C11.7537 20.9985 11.8237 21.1385 11.9637 21.2685L13.1437 22.4585C13.2937 22.5985 13.4837 22.6085 13.6337 22.4585L15.8837 20.2185C16.0537 20.0685 16.0537 19.8485 15.8837 19.7185L14.4937 18.3185L16.4237 16.4185C16.5537 16.2985 16.5437 16.0785 16.3937 15.9185L14.4937 13.9985C16.6937 13.1285 17.9137 11.5085 17.9137 9.5585C17.9137 7.0685 15.8837 5.0285 13.3937 5.0285ZM13.3837 7.1685C14.1537 7.1685 14.7637 7.7885 14.7637 8.5585C14.7637 9.3485 14.1537 9.9785 13.3837 9.9785C12.6237 9.9785 11.9737 9.3485 11.9737 8.5585C11.9737 7.7885 12.6037 7.1685 13.3837 7.1685ZM4.2937 26.7585H7.6337C8.3537 26.7585 8.7537 26.3585 8.7537 25.6585C8.7537 24.9485 8.3537 24.5585 7.6337 24.5585H4.3237C2.9537 24.5585 2.2037 23.8285 2.2037 22.4085V19.1785C2.2037 18.4585 1.8037 18.0585 1.0937 18.0585C0.3837 18.0585 0.0037 18.4585 0.0037 19.1785V22.5185C0.0037 25.3485 1.4337 26.7585 4.2937 26.7585ZM19.1237 26.7585H22.4737C25.3337 26.7585 26.7737 25.3385 26.7737 22.5185V19.1785C26.7737 18.4585 26.3737 18.0585 25.6637 18.0585C24.9537 18.0585 24.5637 18.4585 24.5637 19.1785V22.4085C24.5637 23.8285 23.7937 24.5585 22.4337 24.5585H19.1237C18.4137 24.5585 18.0237 24.9485 18.0237 25.6585C18.0237 26.3585 18.4137 26.7585 19.1237 26.7585Z"
        fillRule="evenodd"
        clipRule="evenodd"
    />
</svg>
        