
<svg
    viewBox="0 0 33.741336805555555 17.458984375"
    xmlns="http://www.w3.org/2000/svg"
>
    <path
        fill="inherit"
        d="M33.7428 8.7374C33.7428 3.8874 29.8628 -0.0026 25.0328 -0.0026C21.3728 -0.0026 18.1528 2.1874 16.8528 5.6074H3.3628C3.0028 5.6074 2.7628 5.7174 2.4828 5.9774L0.1928 8.2574C-0.0272 8.4774 -0.0972 8.9374 0.1928 9.2274L4.5228 13.5674C4.8228 13.8474 5.2228 13.8374 5.5128 13.5674L8.1628 10.8874L11.8428 14.5574C12.1128 14.8374 12.5128 14.8374 12.8128 14.5374L16.4828 10.8874C18.1728 15.1074 21.2828 17.4574 25.0328 17.4574C29.8428 17.4574 33.7428 13.5774 33.7428 8.7374ZM25.7128 8.7374C25.7128 7.4674 26.7428 6.4574 28.0128 6.4574C29.2828 6.4574 30.2928 7.4474 30.2928 8.7374C30.2928 10.0074 29.2828 11.0374 28.0128 11.0374C26.7428 11.0374 25.7128 10.0074 25.7128 8.7374Z"
        fillRule="evenodd"
        clipRule="evenodd"
    />
</svg>
        