
<svg
    viewBox="0 0 17.759765625 29.3125"
    xmlns="http://www.w3.org/2000/svg"
>
    <path
        fill="inherit"
        d="M0.0037 25.1673C0.0037 27.3273 1.3537 29.3173 4.6437 29.3173H13.1137C16.4037 29.3173 17.7637 27.3273 17.7637 25.1673V4.1573C17.7637 1.9973 16.4037 -0.0027 13.1137 -0.0027H4.6437C1.3537 -0.0027 0.0037 1.9973 0.0037 4.1573ZM2.2037 25.1273V4.1973C2.2037 3.3673 2.7437 2.1973 4.7537 2.1973H13.0037C15.0137 2.1973 15.5537 3.3673 15.5537 4.1973V25.1273C15.5537 25.9673 15.0137 27.1073 13.0037 27.1073H4.7537C2.7437 27.1073 2.2037 25.9673 2.2037 25.1273ZM4.0237 5.4873H13.7437C13.9337 5.4873 14.0837 5.3173 14.0837 5.1273V4.6773C14.0837 4.1273 13.6337 3.6773 13.0937 3.6773H4.6637C4.1337 3.6773 3.6737 4.1273 3.6737 4.6773V5.1273C3.6737 5.3173 3.8237 5.4873 4.0237 5.4873ZM8.9037 9.2173C6.6737 9.2173 4.9037 10.9773 4.9037 13.1773C4.9037 14.8173 5.8837 16.2873 7.4137 16.8873V22.8473C7.4137 23.0273 7.4637 23.1573 7.6037 23.2973L8.6137 24.3173C8.7337 24.4473 8.9937 24.4773 9.1637 24.3173L11.1037 22.3973C11.2837 22.2273 11.2637 21.9973 11.1037 21.8173L9.9637 20.7173L11.5437 19.1273C11.6937 18.9773 11.6937 18.7473 11.5437 18.5773L9.9937 17.0173C11.8237 16.2573 12.8637 14.8473 12.8637 13.1773C12.8637 10.9873 11.0837 9.2173 8.9037 9.2173ZM8.8837 13.0173C8.2537 13.0173 7.7637 12.5073 7.7637 11.9073C7.7637 11.2973 8.2437 10.7973 8.8837 10.7973C9.4837 10.7973 9.9837 11.2973 9.9837 11.9073C9.9837 12.5073 9.4837 13.0173 8.8837 13.0173Z"
        fillRule="evenodd"
        clipRule="evenodd"
    />
</svg>
        