
<svg
    viewBox="0 0 29.83203125 34.56091212446269"
    xmlns="http://www.w3.org/2000/svg"
>
    <path
        fill="inherit"
        d="M25.5537 18.9738C26.0537 19.3238 26.6837 19.2138 27.0437 18.6738C28.7937 16.2738 29.8337 12.9638 29.8337 9.5838C29.8337 6.2038 28.8037 2.8738 27.0437 0.4938C26.6837 -0.0262 26.0537 -0.1462 25.5537 0.1938C25.0437 0.5338 24.9637 1.1738 25.3637 1.7338C26.8537 3.8538 27.7137 6.6738 27.7137 9.5838C27.7137 12.5138 26.8237 15.3138 25.3637 17.4338C24.9737 17.9938 25.0437 18.6338 25.5537 18.9738ZM8.7337 0.8238C3.8737 0.8238 0.0037 4.6938 0.0037 9.5338C0.0037 13.1838 2.1837 16.4038 5.6037 17.7038V31.2038C5.6037 31.5438 5.7137 31.8038 5.9637 32.0638L8.2437 34.3538C8.4737 34.5938 8.9437 34.6638 9.2237 34.3738L13.5637 30.0338C13.8537 29.7338 13.8337 29.3438 13.5637 29.0538L10.8737 26.4038L14.5637 22.7238C14.8237 22.4538 14.8237 22.0538 14.5337 21.7538L10.8837 18.0738C15.1037 16.3938 17.4637 13.2738 17.4637 9.5338C17.4637 4.7138 13.5637 0.8238 8.7337 0.8238ZM20.4837 15.4238C20.9437 15.7338 21.5837 15.6238 21.9537 15.1038C22.9937 13.7138 23.6237 11.6738 23.6237 9.5838C23.6237 7.4938 22.9937 5.4738 21.9537 4.0738C21.5837 3.5438 20.9437 3.4438 20.4837 3.7738C19.9337 4.1538 19.8337 4.8238 20.2637 5.3838C21.0637 6.4838 21.5037 7.9938 21.5037 9.5838C21.5037 11.1738 21.0537 12.6738 20.2637 13.7838C19.8537 14.3538 19.9337 15.0238 20.4837 15.4238ZM8.7337 8.8338C7.4637 8.8338 6.4537 7.8038 6.4537 6.5538C6.4537 5.2738 7.4537 4.2638 8.7337 4.2638C9.9937 4.2638 11.0237 5.2738 11.0237 6.5538C11.0237 7.8038 9.9937 8.8338 8.7337 8.8338Z"
        fillRule="evenodd"
        clipRule="evenodd"
    />
</svg>
        