
<svg
    viewBox={0 0 26.822531486883236 33.73997228643058}
    xmlns="http://www.w3.org/2000/svg"
>
    <path
        fill="inherit"
        d="M17.0872 16.7528C20.6272 15.0028 22.5872 12.1128 22.5872 8.7128C22.5872 3.8928 18.6972 0.0028 13.8572 0.0028C10.1572 0.0028 7.0472 2.2428 5.7972 5.4528ZM13.8572 8.0128C12.5872 8.0128 11.5772 6.9828 11.5772 5.7328C11.5772 4.4528 12.5772 3.4428 13.8572 3.4428C15.1272 3.4428 16.1572 4.4528 16.1572 5.7328C16.1572 6.9828 15.1272 8.0128 13.8572 8.0128ZM0.2972 5.4428L25.0272 30.1428C25.4372 30.5528 26.1272 30.5528 26.5172 30.1428C26.9172 29.7228 26.9272 29.0628 26.5172 28.6528L1.7972 3.9528C1.3872 3.5428 0.7172 3.5428 0.2972 3.9528C-0.1028 4.3428 -0.1028 5.0428 0.2972 5.4428ZM14.3472 33.5528L18.6872 29.2128C18.9772 28.9128 18.9572 28.5228 18.6872 28.2328L16.0072 25.5828L16.9872 24.5928L10.7272 18.3428V30.3828C10.7272 30.7228 10.8372 30.9828 11.0972 31.2428L13.3772 33.5328C13.5972 33.7728 14.0672 33.8428 14.3472 33.5528Z"
        fillRule="evenodd"
        clipRule="evenodd"
    />
</svg>
        