
<svg
    viewBox={0 0 44.05419921875 21.6015625}
    xmlns="http://www.w3.org/2000/svg"
>
    <path
        fill="inherit"
        d="M13.9371 21.6019H39.7571C42.6071 21.6019 44.0571 20.1819 44.0571 17.3619V4.2219C44.0571 1.4219 42.6071 0.0019 39.7571 0.0019H13.9371C11.0671 0.0019 9.6471 1.4119 9.6471 4.2219V17.3619C9.6471 20.1819 11.0671 21.6019 13.9371 21.6019ZM13.9671 19.4019C12.6071 19.4019 11.8471 18.6619 11.8471 17.2419V4.3519C11.8471 2.9219 12.6071 2.2019 13.9671 2.2019H39.7171C41.0771 2.2019 41.8571 2.9219 41.8571 4.3519V17.2419C41.8571 18.6619 41.0771 19.4019 39.7171 19.4019ZM4.2171 17.1819C5.1971 18.5519 6.8971 17.2719 6.0871 16.1319L2.2871 10.7919L6.0871 5.4719C6.8971 4.3519 5.1971 3.0519 4.2171 4.4119L0.3171 9.8319C-0.1029 10.4319 -0.1029 11.1719 0.3171 11.7619ZM15.2071 7.6119H16.4471C16.8371 7.6119 17.0671 7.3819 17.0671 7.0119V5.7519C17.0671 5.3719 16.8371 5.1419 16.4471 5.1419H15.2071C14.8271 5.1419 14.5871 5.3719 14.5871 5.7519V7.0119C14.5871 7.3819 14.8271 7.6119 15.2071 7.6119ZM19.5971 7.6119H20.8571C21.2371 7.6119 21.4671 7.3819 21.4671 7.0119V5.7519C21.4671 5.3719 21.2371 5.1419 20.8571 5.1419H19.5971C19.2171 5.1419 18.9771 5.3719 18.9771 5.7519V7.0119C18.9771 7.3819 19.2171 7.6119 19.5971 7.6119ZM23.9971 7.6119H25.2371C25.6271 7.6119 25.8571 7.3819 25.8571 7.0119V5.7519C25.8571 5.3719 25.6271 5.1419 25.2371 5.1419H23.9971C23.6171 5.1419 23.3871 5.3719 23.3871 5.7519V7.0119C23.3871 7.3819 23.6171 7.6119 23.9971 7.6119ZM28.3971 7.6119H29.6471C30.0271 7.6119 30.2571 7.3819 30.2571 7.0119V5.7519C30.2571 5.3719 30.0271 5.1419 29.6471 5.1419H28.3971C28.0171 5.1419 27.7871 5.3719 27.7871 5.7519V7.0119C27.7871 7.3819 28.0171 7.6119 28.3971 7.6119ZM32.7871 7.6119H34.0471C34.4171 7.6119 34.6571 7.3819 34.6571 7.0119V5.7519C34.6571 5.3719 34.4171 5.1419 34.0471 5.1419H32.7871C32.4071 5.1419 32.1771 5.3719 32.1771 5.7519V7.0119C32.1771 7.3819 32.4071 7.6119 32.7871 7.6119ZM37.1871 7.6119H38.4371C38.8171 7.6119 39.0471 7.3819 39.0471 7.0119V5.7519C39.0471 5.3719 38.8171 5.1419 38.4371 5.1419H37.1871C36.8071 5.1419 36.5771 5.3719 36.5771 5.7519V7.0119C36.5771 7.3819 36.8071 7.6119 37.1871 7.6119ZM15.2071 12.0219H16.4471C16.8371 12.0219 17.0671 11.7819 17.0671 11.4019V10.1619C17.0671 9.7719 16.8371 9.5419 16.4471 9.5419H15.2071C14.8271 9.5419 14.5871 9.7719 14.5871 10.1619V11.4019C14.5871 11.7819 14.8271 12.0219 15.2071 12.0219ZM19.5971 12.0219H20.8571C21.2371 12.0219 21.4671 11.7819 21.4671 11.4019V10.1619C21.4671 9.7719 21.2371 9.5419 20.8571 9.5419H19.5971C19.2171 9.5419 18.9771 9.7719 18.9771 10.1619V11.4019C18.9771 11.7819 19.2171 12.0219 19.5971 12.0219ZM23.9971 12.0219H25.2371C25.6271 12.0219 25.8571 11.7819 25.8571 11.4019V10.1619C25.8571 9.7719 25.6271 9.5419 25.2371 9.5419H23.9971C23.6171 9.5419 23.3871 9.7719 23.3871 10.1619V11.4019C23.3871 11.7819 23.6171 12.0219 23.9971 12.0219ZM28.3971 12.0219H29.6471C30.0271 12.0219 30.2571 11.7819 30.2571 11.4019V10.1619C30.2571 9.7719 30.0271 9.5419 29.6471 9.5419H28.3971C28.0171 9.5419 27.7871 9.7719 27.7871 10.1619V11.4019C27.7871 11.7819 28.0171 12.0219 28.3971 12.0219ZM32.7871 12.0219H34.0471C34.4171 12.0219 34.6571 11.7819 34.6571 11.4019V10.1619C34.6571 9.7719 34.4171 9.5419 34.0471 9.5419H32.7871C32.4071 9.5419 32.1771 9.7719 32.1771 10.1619V11.4019C32.1771 11.7819 32.4071 12.0219 32.7871 12.0219ZM37.1871 12.0219H38.4371C38.8171 12.0219 39.0471 11.7819 39.0471 11.4019V10.1619C39.0471 9.7719 38.8171 9.5419 38.4371 9.5419H37.1871C36.8071 9.5419 36.5771 9.7719 36.5771 10.1619V11.4019C36.5771 11.7819 36.8071 12.0219 37.1871 12.0219ZM15.2071 16.4219H16.4471C16.8371 16.4219 17.0671 16.1919 17.0671 15.8019V14.5419C17.0671 14.1819 16.8371 13.9419 16.4471 13.9419H15.2071C14.8271 13.9419 14.5871 14.1819 14.5871 14.5419V15.8019C14.5871 16.1919 14.8271 16.4219 15.2071 16.4219ZM19.7271 16.4219H33.9071C34.3771 16.4219 34.6571 16.1419 34.6571 15.6719V14.6819C34.6571 14.2219 34.3771 13.9419 33.9071 13.9419H19.7271C19.2571 13.9419 18.9771 14.2219 18.9771 14.6819V15.6719C18.9771 16.1419 19.2571 16.4219 19.7271 16.4219ZM37.1871 16.4219H38.4371C38.8171 16.4219 39.0471 16.1919 39.0471 15.8019V14.5419C39.0471 14.1819 38.8171 13.9419 38.4371 13.9419H37.1871C36.8071 13.9419 36.5771 14.1819 36.5771 14.5419V15.8019C36.5771 16.1919 36.8071 16.4219 37.1871 16.4219Z"
        fillRule="evenodd"
        clipRule="evenodd"
    />
</svg>
        