
<svg
    viewBox={0 0 44.05419921875 21.6015625}
    xmlns="http://www.w3.org/2000/svg"
>
    <path
        fill="inherit"
        d="M13.9371 21.6019H39.7571C42.6071 21.6019 44.0571 20.1819 44.0571 17.3619V4.2219C44.0571 1.4219 42.6071 0.0019 39.7571 0.0019H13.9371C11.0671 0.0019 9.6471 1.4119 9.6471 4.2219V17.3619C9.6471 20.1819 11.0671 21.6019 13.9371 21.6019ZM4.2171 17.1819C5.1971 18.5519 6.8971 17.2719 6.0871 16.1319L2.2871 10.7919L6.0871 5.4719C6.8971 4.3519 5.1971 3.0519 4.2171 4.4119L0.3171 9.8319C-0.1029 10.4319 -0.1029 11.1719 0.3171 11.7619ZM14.8371 7.5219C14.4371 7.5219 14.2071 7.2719 14.2071 6.8919V5.5919C14.2071 5.2119 14.4371 4.9619 14.8371 4.9619H16.1271C16.5171 4.9619 16.7671 5.2119 16.7671 5.5919V6.8919C16.7671 7.2719 16.5171 7.5219 16.1271 7.5219ZM19.3671 7.5219C18.9671 7.5219 18.7371 7.2719 18.7371 6.8919V5.5919C18.7371 5.2119 18.9671 4.9619 19.3671 4.9619H20.6571C21.0571 4.9619 21.3071 5.2119 21.3071 5.5919V6.8919C21.3071 7.2719 21.0571 7.5219 20.6571 7.5219ZM23.8971 7.5219C23.5171 7.5219 23.2771 7.2719 23.2771 6.8919V5.5919C23.2771 5.2119 23.5171 4.9619 23.8971 4.9619H25.1871C25.5871 4.9619 25.8271 5.2119 25.8271 5.5919V6.8919C25.8271 7.2719 25.5871 7.5219 25.1871 7.5219ZM28.4571 7.5219C28.0571 7.5219 27.8071 7.2719 27.8071 6.8919V5.5919C27.8071 5.2119 28.0571 4.9619 28.4571 4.9619H29.7371C30.1271 4.9619 30.3671 5.2119 30.3671 5.5919V6.8919C30.3671 7.2719 30.1271 7.5219 29.7371 7.5219ZM32.9771 7.5219C32.5871 7.5219 32.3371 7.2719 32.3371 6.8919V5.5919C32.3371 5.2119 32.5871 4.9619 32.9771 4.9619H34.2771C34.6571 4.9619 34.9071 5.2119 34.9071 5.5919V6.8919C34.9071 7.2719 34.6571 7.5219 34.2771 7.5219ZM37.5171 7.5219C37.1271 7.5219 36.8771 7.2719 36.8771 6.8919V5.5919C36.8771 5.2119 37.1271 4.9619 37.5171 4.9619H38.8071C39.1971 4.9619 39.4371 5.2119 39.4371 5.5919V6.8919C39.4371 7.2719 39.1971 7.5219 38.8071 7.5219ZM14.8371 12.0619C14.4371 12.0619 14.2071 11.8119 14.2071 11.4319V10.1319C14.2071 9.7519 14.4371 9.5019 14.8371 9.5019H16.1271C16.5171 9.5019 16.7671 9.7519 16.7671 10.1319V11.4319C16.7671 11.8119 16.5171 12.0619 16.1271 12.0619ZM19.3671 12.0619C18.9671 12.0619 18.7371 11.8119 18.7371 11.4319V10.1319C18.7371 9.7519 18.9671 9.5019 19.3671 9.5019H20.6571C21.0571 9.5019 21.3071 9.7519 21.3071 10.1319V11.4319C21.3071 11.8119 21.0571 12.0619 20.6571 12.0619ZM23.8971 12.0619C23.5171 12.0619 23.2771 11.8119 23.2771 11.4319V10.1319C23.2771 9.7519 23.5171 9.5019 23.8971 9.5019H25.1871C25.5871 9.5019 25.8271 9.7519 25.8271 10.1319V11.4319C25.8271 11.8119 25.5871 12.0619 25.1871 12.0619ZM28.4571 12.0619C28.0571 12.0619 27.8071 11.8119 27.8071 11.4319V10.1319C27.8071 9.7519 28.0571 9.5019 28.4571 9.5019H29.7371C30.1271 9.5019 30.3671 9.7519 30.3671 10.1319V11.4319C30.3671 11.8119 30.1271 12.0619 29.7371 12.0619ZM32.9771 12.0619C32.5871 12.0619 32.3371 11.8119 32.3371 11.4319V10.1319C32.3371 9.7519 32.5871 9.5019 32.9771 9.5019H34.2771C34.6571 9.5019 34.9071 9.7519 34.9071 10.1319V11.4319C34.9071 11.8119 34.6571 12.0619 34.2771 12.0619ZM37.5171 12.0619C37.1271 12.0619 36.8771 11.8119 36.8771 11.4319V10.1319C36.8771 9.7519 37.1271 9.5019 37.5171 9.5019H38.8071C39.1971 9.5019 39.4371 9.7519 39.4371 10.1319V11.4319C39.4371 11.8119 39.1971 12.0619 38.8071 12.0619ZM14.8371 16.6019C14.4371 16.6019 14.2071 16.3519 14.2071 15.9719V14.6719C14.2071 14.2919 14.4371 14.0419 14.8371 14.0419H16.1271C16.5171 14.0419 16.7671 14.2919 16.7671 14.6719V15.9719C16.7671 16.3519 16.5171 16.6019 16.1271 16.6019ZM19.5171 16.6019C19.0171 16.6019 18.7371 16.3119 18.7371 15.8219V14.8019C18.7371 14.3319 19.0171 14.0419 19.5171 14.0419H34.1271C34.6071 14.0419 34.9071 14.3319 34.9071 14.8019V15.8219C34.9071 16.3119 34.6071 16.6019 34.1271 16.6019ZM37.5171 16.6019C37.1271 16.6019 36.8771 16.3519 36.8771 15.9719V14.6719C36.8771 14.2919 37.1271 14.0419 37.5171 14.0419H38.8071C39.1971 14.0419 39.4371 14.2919 39.4371 14.6719V15.9719C39.4371 16.3519 39.1971 16.6019 38.8071 16.6019Z"
        fillRule="evenodd"
        clipRule="evenodd"
    />
</svg>
        