
<svg
    viewBox={0 0 34.412109375 21.6015625}
    xmlns="http://www.w3.org/2000/svg"
>
    <path
        fill="inherit"
        d="M4.2937 21.6019H30.1237C32.9637 21.6019 34.4137 20.1819 34.4137 17.3619V4.2219C34.4137 1.4219 32.9637 0.0019 30.1237 0.0019H4.2937C1.4237 0.0019 0.0037 1.4119 0.0037 4.2219V17.3619C0.0037 20.1819 1.4237 21.6019 4.2937 21.6019ZM12.8837 7.4919C12.6337 7.4919 12.4737 7.3119 12.4737 7.0419V5.4519C12.4737 5.1719 12.6337 5.0019 12.8837 5.0019H13.9337C14.1737 5.0019 14.3437 5.1719 14.3437 5.4519V7.0419C14.3437 7.3119 14.1737 7.4919 13.9337 7.4919ZM15.9837 7.4919C15.7337 7.4919 15.5537 7.3119 15.5537 7.0419V5.4519C15.5537 5.1719 15.7337 5.0019 15.9837 5.0019H17.0237C17.2637 5.0019 17.4337 5.1719 17.4337 5.4519V7.0419C17.4337 7.3119 17.2637 7.4919 17.0237 7.4919ZM19.0837 7.4919C18.8137 7.4919 18.6637 7.3119 18.6637 7.0419V5.4519C18.6637 5.1719 18.8137 5.0019 19.0837 5.0019H20.1237C20.3537 5.0019 20.5337 5.1719 20.5337 5.4519V7.0419C20.5337 7.3119 20.3537 7.4919 20.1237 7.4919ZM22.1737 7.4919C21.9037 7.4919 21.7537 7.3119 21.7537 7.0419V5.4519C21.7537 5.1719 21.9037 5.0019 22.1737 5.0019H23.1837C23.4637 5.0019 23.6137 5.1719 23.6137 5.4519V7.0419C23.6137 7.3119 23.4637 7.4919 23.1837 7.4919ZM25.2537 7.4919C25.0037 7.4919 24.8537 7.3119 24.8537 7.0419V5.4519C24.8537 5.1719 25.0037 5.0019 25.2537 5.0019H26.3037C26.5537 5.0019 26.7137 5.1719 26.7137 5.4519V7.0419C26.7137 7.3119 26.5537 7.4919 26.3037 7.4919ZM28.3737 7.4919C28.0937 7.4919 27.9437 7.3119 27.9437 7.0419V5.4519C27.9437 5.1719 28.0937 5.0019 28.3737 5.0019H29.3837C29.6537 5.0019 29.8037 5.1719 29.8037 5.4519V7.0419C29.8037 7.3119 29.6537 7.4919 29.3837 7.4919ZM10.0237 10.0119C10.5437 10.5019 10.5437 11.0919 10.0237 11.5819L5.8937 15.5219C5.4137 15.9719 4.5937 15.7919 4.5937 15.0219V6.5619C4.5937 5.8119 5.4137 5.6319 5.8937 6.0819ZM12.8837 12.0219C12.6337 12.0219 12.4737 11.8719 12.4737 11.5619V9.9919C12.4737 9.6919 12.6337 9.5419 12.8837 9.5419H13.9337C14.1737 9.5419 14.3437 9.6919 14.3437 9.9919V11.5619C14.3437 11.8719 14.1737 12.0219 13.9337 12.0219ZM15.9837 12.0219C15.7337 12.0219 15.5537 11.8719 15.5537 11.5619V9.9919C15.5537 9.6919 15.7337 9.5419 15.9837 9.5419H17.0237C17.2637 9.5419 17.4337 9.6919 17.4337 9.9919V11.5619C17.4337 11.8719 17.2637 12.0219 17.0237 12.0219ZM19.0837 12.0219C18.8137 12.0219 18.6637 11.8719 18.6637 11.5619V9.9919C18.6637 9.6919 18.8137 9.5419 19.0837 9.5419H20.1237C20.3537 9.5419 20.5337 9.6919 20.5337 9.9919V11.5619C20.5337 11.8719 20.3537 12.0219 20.1237 12.0219ZM22.1737 12.0219C21.9037 12.0219 21.7537 11.8719 21.7537 11.5619V9.9919C21.7537 9.6919 21.9037 9.5419 22.1737 9.5419H23.1837C23.4637 9.5419 23.6137 9.6919 23.6137 9.9919V11.5619C23.6137 11.8719 23.4637 12.0219 23.1837 12.0219ZM25.2537 12.0219C25.0037 12.0219 24.8537 11.8719 24.8537 11.5619V9.9919C24.8537 9.6919 25.0037 9.5419 25.2537 9.5419H26.3037C26.5537 9.5419 26.7137 9.6919 26.7137 9.9919V11.5619C26.7137 11.8719 26.5537 12.0219 26.3037 12.0219ZM28.3737 12.0219C28.0937 12.0219 27.9437 11.8719 27.9437 11.5619V9.9919C27.9437 9.6919 28.0937 9.5419 28.3737 9.5419H29.3837C29.6537 9.5419 29.8037 9.6919 29.8037 9.9919V11.5619C29.8037 11.8719 29.6537 12.0219 29.3837 12.0219ZM12.8837 16.5519C12.6337 16.5519 12.4737 16.3919 12.4737 16.1019V14.5219C12.4737 14.2419 12.6337 14.0719 12.8837 14.0719H13.9337C14.1737 14.0719 14.3437 14.2419 14.3437 14.5219V16.1019C14.3437 16.3919 14.1737 16.5519 13.9337 16.5519ZM15.9837 16.5519C15.7337 16.5519 15.5537 16.3919 15.5537 16.1019V14.5219C15.5537 14.2419 15.7337 14.0719 15.9837 14.0719H26.3037C26.5537 14.0719 26.7137 14.2419 26.7137 14.5219V16.1019C26.7137 16.3919 26.5537 16.5519 26.3037 16.5519ZM28.3737 16.5519C28.0937 16.5519 27.9437 16.3919 27.9437 16.1019V14.5219C27.9437 14.2419 28.0937 14.0719 28.3737 14.0719H29.3837C29.6537 14.0719 29.8037 14.2419 29.8037 14.5219V16.1019C29.8037 16.3919 29.6537 16.5519 29.3837 16.5519Z"
        fillRule="evenodd"
        clipRule="evenodd"
    />
</svg>
        