
<svg
    viewBox="0 0 34.412109375 21.6015625"
    xmlns="http://www.w3.org/2000/svg"
>
    <path
        fill="inherit"
        d="M4.2937 21.6019H30.1237C32.9637 21.6019 34.4137 20.1819 34.4137 17.3619V4.2219C34.4137 1.4219 32.9637 0.0019 30.1237 0.0019H4.2937C1.4237 0.0019 0.0037 1.4119 0.0037 4.2219V17.3619C0.0037 20.1819 1.4237 21.6019 4.2937 21.6019ZM5.0137 7.4919C4.7537 7.4919 4.5937 7.3119 4.5937 7.0419V5.4519C4.5937 5.1719 4.7537 5.0019 5.0137 5.0019H6.0537C6.3037 5.0019 6.4537 5.1719 6.4537 5.4519V7.0419C6.4537 7.3119 6.3037 7.4919 6.0537 7.4919ZM8.1237 7.4919C7.8437 7.4919 7.6937 7.3119 7.6937 7.0419V5.4519C7.6937 5.1719 7.8437 5.0019 8.1237 5.0019H9.1437C9.4037 5.0019 9.5537 5.1719 9.5537 5.4519V7.0419C9.5537 7.3119 9.4037 7.4919 9.1437 7.4919ZM11.2137 7.4919C10.9537 7.4919 10.7837 7.3119 10.7837 7.0419V5.4519C10.7837 5.1719 10.9537 5.0019 11.2137 5.0019H12.2537C12.4937 5.0019 12.6437 5.1719 12.6437 5.4519V7.0419C12.6437 7.3119 12.4937 7.4919 12.2537 7.4919ZM14.3037 7.4919C14.0437 7.4919 13.8937 7.3119 13.8937 7.0419V5.4519C13.8937 5.1719 14.0437 5.0019 14.3037 5.0019H15.3237C15.5837 5.0019 15.7537 5.1719 15.7537 5.4519V7.0419C15.7537 7.3119 15.5837 7.4919 15.3237 7.4919ZM17.3737 7.4919C17.1337 7.4919 16.9637 7.3119 16.9637 7.0419V5.4519C16.9637 5.1719 17.1337 5.0019 17.3737 5.0019H18.4437C18.6737 5.0019 18.8437 5.1719 18.8437 5.4519V7.0419C18.8437 7.3119 18.6737 7.4919 18.4437 7.4919ZM20.4937 7.4919C20.2337 7.4919 20.0737 7.3119 20.0737 7.0419V5.4519C20.0737 5.1719 20.2337 5.0019 20.4937 5.0019H21.5237C21.7637 5.0019 21.9437 5.1719 21.9437 5.4519V7.0419C21.9437 7.3119 21.7637 7.4919 21.5237 7.4919ZM24.3237 10.0119L28.4537 6.0819C28.9337 5.6319 29.7537 5.8119 29.7537 6.5619V15.0219C29.7537 15.7919 28.9337 15.9719 28.4537 15.5219L24.3237 11.5819C23.8037 11.0919 23.8037 10.5019 24.3237 10.0119ZM5.0137 12.0219C4.7537 12.0219 4.5937 11.8719 4.5937 11.5619V9.9919C4.5937 9.6919 4.7537 9.5419 5.0137 9.5419H6.0537C6.3037 9.5419 6.4537 9.6919 6.4537 9.9919V11.5619C6.4537 11.8719 6.3037 12.0219 6.0537 12.0219ZM8.1237 12.0219C7.8437 12.0219 7.6937 11.8719 7.6937 11.5619V9.9919C7.6937 9.6919 7.8437 9.5419 8.1237 9.5419H9.1437C9.4037 9.5419 9.5537 9.6919 9.5537 9.9919V11.5619C9.5537 11.8719 9.4037 12.0219 9.1437 12.0219ZM11.2137 12.0219C10.9537 12.0219 10.7837 11.8719 10.7837 11.5619V9.9919C10.7837 9.6919 10.9537 9.5419 11.2137 9.5419H12.2537C12.4937 9.5419 12.6437 9.6919 12.6437 9.9919V11.5619C12.6437 11.8719 12.4937 12.0219 12.2537 12.0219ZM14.3037 12.0219C14.0437 12.0219 13.8937 11.8719 13.8937 11.5619V9.9919C13.8937 9.6919 14.0437 9.5419 14.3037 9.5419H15.3237C15.5837 9.5419 15.7537 9.6919 15.7537 9.9919V11.5619C15.7537 11.8719 15.5837 12.0219 15.3237 12.0219ZM17.3737 12.0219C17.1337 12.0219 16.9637 11.8719 16.9637 11.5619V9.9919C16.9637 9.6919 17.1337 9.5419 17.3737 9.5419H18.4437C18.6737 9.5419 18.8437 9.6919 18.8437 9.9919V11.5619C18.8437 11.8719 18.6737 12.0219 18.4437 12.0219ZM20.4937 12.0219C20.2337 12.0219 20.0737 11.8719 20.0737 11.5619V9.9919C20.0737 9.6919 20.2337 9.5419 20.4937 9.5419H21.5237C21.7637 9.5419 21.9437 9.6919 21.9437 9.9919V11.5619C21.9437 11.8719 21.7637 12.0219 21.5237 12.0219ZM5.0137 16.5519C4.7537 16.5519 4.5937 16.3919 4.5937 16.1019V14.5219C4.5937 14.2419 4.7537 14.0719 5.0137 14.0719H6.0537C6.3037 14.0719 6.4537 14.2419 6.4537 14.5219V16.1019C6.4537 16.3919 6.3037 16.5519 6.0537 16.5519ZM8.1237 16.5519C7.8437 16.5519 7.6937 16.3919 7.6937 16.1019V14.5219C7.6937 14.2419 7.8437 14.0719 8.1237 14.0719H18.4437C18.6737 14.0719 18.8437 14.2419 18.8437 14.5219V16.1019C18.8437 16.3919 18.6737 16.5519 18.4437 16.5519ZM20.4937 16.5519C20.2337 16.5519 20.0737 16.3919 20.0737 16.1019V14.5219C20.0737 14.2419 20.2337 14.0719 20.4937 14.0719H21.5237C21.7637 14.0719 21.9437 14.2419 21.9437 14.5219V16.1019C21.9437 16.3919 21.7637 16.5519 21.5237 16.5519Z"
        fillRule="evenodd"
        clipRule="evenodd"
    />
</svg>
        