
<svg
    viewBox="0 0 34.412109375 28.998046875"
    xmlns="http://www.w3.org/2000/svg"
>
    <path
        fill="inherit"
        d="M4.2937 21.6019H30.1237C32.9637 21.6019 34.4137 20.1819 34.4137 17.3619V4.2219C34.4137 1.4219 32.9637 0.0019 30.1237 0.0019H4.2937C1.4237 0.0019 0.0037 1.4119 0.0037 4.2219V17.3619C0.0037 20.1819 1.4237 21.6019 4.2937 21.6019ZM5.1837 7.5219C4.8037 7.5219 4.5637 7.2719 4.5637 6.8919V5.5919C4.5637 5.2119 4.8037 4.9619 5.1837 4.9619H6.4837C6.8737 4.9619 7.1237 5.2119 7.1237 5.5919V6.8919C7.1237 7.2719 6.8737 7.5219 6.4837 7.5219ZM9.7237 7.5219C9.3237 7.5219 9.0937 7.2719 9.0937 6.8919V5.5919C9.0937 5.2119 9.3237 4.9619 9.7237 4.9619H11.0237C11.4037 4.9619 11.6437 5.2119 11.6437 5.5919V6.8919C11.6437 7.2719 11.4037 7.5219 11.0237 7.5219ZM14.2637 7.5219C13.8737 7.5219 13.6337 7.2719 13.6337 6.8919V5.5919C13.6337 5.2119 13.8737 4.9619 14.2637 4.9619H15.5437C15.9437 4.9619 16.1837 5.2119 16.1837 5.5919V6.8919C16.1837 7.2719 15.9437 7.5219 15.5437 7.5219ZM18.8037 7.5219C18.4137 7.5219 18.1737 7.2719 18.1737 6.8919V5.5919C18.1737 5.2119 18.4137 4.9619 18.8037 4.9619H20.0937C20.4837 4.9619 20.7237 5.2119 20.7237 5.5919V6.8919C20.7237 7.2719 20.4837 7.5219 20.0937 7.5219ZM23.3337 7.5219C22.9437 7.5219 22.6937 7.2719 22.6937 6.8919V5.5919C22.6937 5.2119 22.9437 4.9619 23.3337 4.9619H24.6337C25.0237 4.9619 25.2537 5.2119 25.2537 5.5919V6.8919C25.2537 7.2719 25.0237 7.5219 24.6337 7.5219ZM27.8737 7.5219C27.4837 7.5219 27.2337 7.2719 27.2337 6.8919V5.5919C27.2337 5.2119 27.4837 4.9619 27.8737 4.9619H29.1637C29.5537 4.9619 29.7937 5.2119 29.7937 5.5919V6.8919C29.7937 7.2719 29.5537 7.5219 29.1637 7.5219ZM5.1837 12.0619C4.8037 12.0619 4.5637 11.8119 4.5637 11.4319V10.1319C4.5637 9.7519 4.8037 9.5019 5.1837 9.5019H6.4837C6.8737 9.5019 7.1237 9.7519 7.1237 10.1319V11.4319C7.1237 11.8119 6.8737 12.0619 6.4837 12.0619ZM9.7237 12.0619C9.3237 12.0619 9.0937 11.8119 9.0937 11.4319V10.1319C9.0937 9.7519 9.3237 9.5019 9.7237 9.5019H11.0237C11.4037 9.5019 11.6437 9.7519 11.6437 10.1319V11.4319C11.6437 11.8119 11.4037 12.0619 11.0237 12.0619ZM14.2637 12.0619C13.8737 12.0619 13.6337 11.8119 13.6337 11.4319V10.1319C13.6337 9.7519 13.8737 9.5019 14.2637 9.5019H15.5437C15.9437 9.5019 16.1837 9.7519 16.1837 10.1319V11.4319C16.1837 11.8119 15.9437 12.0619 15.5437 12.0619ZM18.8037 12.0619C18.4137 12.0619 18.1737 11.8119 18.1737 11.4319V10.1319C18.1737 9.7519 18.4137 9.5019 18.8037 9.5019H20.0937C20.4837 9.5019 20.7237 9.7519 20.7237 10.1319V11.4319C20.7237 11.8119 20.4837 12.0619 20.0937 12.0619ZM23.3337 12.0619C22.9437 12.0619 22.6937 11.8119 22.6937 11.4319V10.1319C22.6937 9.7519 22.9437 9.5019 23.3337 9.5019H24.6337C25.0237 9.5019 25.2537 9.7519 25.2537 10.1319V11.4319C25.2537 11.8119 25.0237 12.0619 24.6337 12.0619ZM27.8737 12.0619C27.4837 12.0619 27.2337 11.8119 27.2337 11.4319V10.1319C27.2337 9.7519 27.4837 9.5019 27.8737 9.5019H29.1637C29.5537 9.5019 29.7937 9.7519 29.7937 10.1319V11.4319C29.7937 11.8119 29.5537 12.0619 29.1637 12.0619ZM5.1837 16.6019C4.8037 16.6019 4.5637 16.3519 4.5637 15.9719V14.6719C4.5637 14.2919 4.8037 14.0419 5.1837 14.0419H6.4837C6.8737 14.0419 7.1237 14.2919 7.1237 14.6719V15.9719C7.1237 16.3519 6.8737 16.6019 6.4837 16.6019ZM9.8737 16.6019C9.3837 16.6019 9.0937 16.3119 9.0937 15.8219V14.8019C9.0937 14.3319 9.3837 14.0419 9.8737 14.0419H24.4837C24.9637 14.0419 25.2537 14.3319 25.2537 14.8019V15.8219C25.2537 16.3119 24.9637 16.6019 24.4837 16.6019ZM27.8737 16.6019C27.4837 16.6019 27.2337 16.3519 27.2337 15.9719V14.6719C27.2337 14.2919 27.4837 14.0419 27.8737 14.0419H29.1637C29.5537 14.0419 29.7937 14.2919 29.7937 14.6719V15.9719C29.7937 16.3519 29.5537 16.6019 29.1637 16.6019ZM17.2037 29.0019C17.7337 29.0019 18.4137 28.7119 18.9637 28.5219L26.0737 25.9119C26.6037 25.7119 26.8137 25.2419 26.8137 24.9219C26.8137 24.2719 26.3437 23.7119 25.6237 23.7119C25.2837 23.7119 24.7837 23.9019 24.4737 24.0219L17.2137 26.7319L9.9437 24.0219C9.6237 23.9019 9.1637 23.7119 8.8037 23.7119C8.1237 23.7119 7.6137 24.2419 7.6137 24.9219C7.6137 25.2419 7.8037 25.7119 8.3537 25.9119L15.4537 28.5219C16.0237 28.7219 16.6837 29.0019 17.2037 29.0019Z"
        fillRule="evenodd"
        clipRule="evenodd"
    />
</svg>
        