
<svg
    viewBox={0 0 34.412109375 21.6015625}
    xmlns="http://www.w3.org/2000/svg"
>
    <path
        fill="inherit"
        d="M4.2937 21.6019H30.1237C32.9637 21.6019 34.4137 20.1819 34.4137 17.3619V4.2219C34.4137 1.4219 32.9637 0.0019 30.1237 0.0019H4.2937C1.4237 0.0019 0.0037 1.4119 0.0037 4.2219V17.3619C0.0037 20.1819 1.4237 21.6019 4.2937 21.6019ZM4.3237 19.4019C2.9537 19.4019 2.2037 18.6619 2.2037 17.2419V4.3519C2.2037 2.9219 2.9537 2.2019 4.3237 2.2019H30.0737C31.4337 2.2019 32.2137 2.9219 32.2137 4.3519V17.2419C32.2137 18.6619 31.4337 19.4019 30.0737 19.4019ZM5.5537 7.6119H6.8037C7.1937 7.6119 7.4237 7.3819 7.4237 7.0119V5.7519C7.4237 5.3719 7.1937 5.1419 6.8037 5.1419H5.5537C5.1837 5.1419 4.9537 5.3719 4.9537 5.7519V7.0119C4.9537 7.3819 5.1837 7.6119 5.5537 7.6119ZM9.9537 7.6119H11.2137C11.5837 7.6119 11.8137 7.3819 11.8137 7.0119V5.7519C11.8137 5.3719 11.5837 5.1419 11.2137 5.1419H9.9537C9.5737 5.1419 9.3337 5.3719 9.3337 5.7519V7.0119C9.3337 7.3819 9.5737 7.6119 9.9537 7.6119ZM14.3537 7.6119H15.6037C15.9837 7.6119 16.2137 7.3819 16.2137 7.0119V5.7519C16.2137 5.3719 15.9837 5.1419 15.6037 5.1419H14.3537C13.9737 5.1419 13.7437 5.3719 13.7437 5.7519V7.0119C13.7437 7.3819 13.9737 7.6119 14.3537 7.6119ZM18.7437 7.6119H20.0037C20.3837 7.6119 20.6137 7.3819 20.6137 7.0119V5.7519C20.6137 5.3719 20.3837 5.1419 20.0037 5.1419H18.7437C18.3737 5.1419 18.1437 5.3719 18.1437 5.7519V7.0119C18.1437 7.3819 18.3737 7.6119 18.7437 7.6119ZM23.1437 7.6119H24.4037C24.7737 7.6119 25.0037 7.3819 25.0037 7.0119V5.7519C25.0037 5.3719 24.7737 5.1419 24.4037 5.1419H23.1437C22.7637 5.1419 22.5337 5.3719 22.5337 5.7519V7.0119C22.5337 7.3819 22.7637 7.6119 23.1437 7.6119ZM27.5537 7.6119H28.7937C29.1737 7.6119 29.4037 7.3819 29.4037 7.0119V5.7519C29.4037 5.3719 29.1737 5.1419 28.7937 5.1419H27.5537C27.1637 5.1419 26.9337 5.3719 26.9337 5.7519V7.0119C26.9337 7.3819 27.1637 7.6119 27.5537 7.6119ZM5.5537 12.0219H6.8037C7.1937 12.0219 7.4237 11.7819 7.4237 11.4019V10.1619C7.4237 9.7719 7.1937 9.5419 6.8037 9.5419H5.5537C5.1837 9.5419 4.9537 9.7719 4.9537 10.1619V11.4019C4.9537 11.7819 5.1837 12.0219 5.5537 12.0219ZM9.9537 12.0219H11.2137C11.5837 12.0219 11.8137 11.7819 11.8137 11.4019V10.1619C11.8137 9.7719 11.5837 9.5419 11.2137 9.5419H9.9537C9.5737 9.5419 9.3337 9.7719 9.3337 10.1619V11.4019C9.3337 11.7819 9.5737 12.0219 9.9537 12.0219ZM14.3537 12.0219H15.6037C15.9837 12.0219 16.2137 11.7819 16.2137 11.4019V10.1619C16.2137 9.7719 15.9837 9.5419 15.6037 9.5419H14.3537C13.9737 9.5419 13.7437 9.7719 13.7437 10.1619V11.4019C13.7437 11.7819 13.9737 12.0219 14.3537 12.0219ZM18.7437 12.0219H20.0037C20.3837 12.0219 20.6137 11.7819 20.6137 11.4019V10.1619C20.6137 9.7719 20.3837 9.5419 20.0037 9.5419H18.7437C18.3737 9.5419 18.1437 9.7719 18.1437 10.1619V11.4019C18.1437 11.7819 18.3737 12.0219 18.7437 12.0219ZM23.1437 12.0219H24.4037C24.7737 12.0219 25.0037 11.7819 25.0037 11.4019V10.1619C25.0037 9.7719 24.7737 9.5419 24.4037 9.5419H23.1437C22.7637 9.5419 22.5337 9.7719 22.5337 10.1619V11.4019C22.5337 11.7819 22.7637 12.0219 23.1437 12.0219ZM27.5537 12.0219H28.7937C29.1737 12.0219 29.4037 11.7819 29.4037 11.4019V10.1619C29.4037 9.7719 29.1737 9.5419 28.7937 9.5419H27.5537C27.1637 9.5419 26.9337 9.7719 26.9337 10.1619V11.4019C26.9337 11.7819 27.1637 12.0219 27.5537 12.0219ZM5.5537 16.4219H6.8037C7.1937 16.4219 7.4237 16.1919 7.4237 15.8019V14.5419C7.4237 14.1819 7.1937 13.9419 6.8037 13.9419H5.5537C5.1837 13.9419 4.9537 14.1819 4.9537 14.5419V15.8019C4.9537 16.1919 5.1837 16.4219 5.5537 16.4219ZM10.0937 16.4219H24.2637C24.7337 16.4219 25.0037 16.1419 25.0037 15.6719V14.6819C25.0037 14.2219 24.7337 13.9419 24.2637 13.9419H10.0937C9.6137 13.9419 9.3337 14.2219 9.3337 14.6819V15.6719C9.3337 16.1419 9.6137 16.4219 10.0937 16.4219ZM27.5537 16.4219H28.7937C29.1737 16.4219 29.4037 16.1919 29.4037 15.8019V14.5419C29.4037 14.1819 29.1737 13.9419 28.7937 13.9419H27.5537C27.1637 13.9419 26.9337 14.1819 26.9337 14.5419V15.8019C26.9337 16.1919 27.1637 16.4219 27.5537 16.4219Z"
        fillRule="evenodd"
        clipRule="evenodd"
    />
</svg>
        