<svg viewBox="0 0 32.23828125 25.169921875" xmlns="http://www.w3.org/2000/svg"><path d="M0.0037 20.9355C0.0037 23.7655 1.4337 25.1655 4.2937 25.1655H27.9437C30.8137 25.1655 32.2337 23.7455 32.2337 20.9355V4.2355C32.2337 1.4255 30.8137 -0.0045 27.9437 -0.0045H4.2937C1.4337 -0.0045 0.0037 1.4055 0.0037 4.2355ZM4.3337 4.6655C3.6637 4.6655 3.1137 4.0855 3.1137 3.4455C3.1137 2.8055 3.6637 2.2255 4.3337 2.2255C5.0037 2.2255 5.5637 2.8055 5.5637 3.4455C5.5637 4.0855 5.0037 4.6655 4.3337 4.6655ZM8.2537 4.6655C7.5837 4.6655 7.0437 4.0855 7.0437 3.4455C7.0437 2.8055 7.5837 2.2255 8.2537 2.2255C8.9237 2.2255 9.4837 2.8055 9.4837 3.4455C9.4837 4.0855 8.9237 4.6655 8.2537 4.6655ZM12.1837 4.6655C11.5137 4.6655 10.9637 4.0855 10.9637 3.4455C10.9637 2.8055 11.5137 2.2255 12.1837 2.2255C12.8537 2.2255 13.3937 2.8055 13.3937 3.4455C13.3937 4.0855 12.8537 4.6655 12.1837 4.6655ZM2.2037 20.8255V6.8955H30.0337V20.8255C30.0337 22.2455 29.2737 22.9655 27.9137 22.9655H4.3237C2.9537 22.9655 2.2037 22.2455 2.2037 20.8255ZM5.9737 12.2455H7.1237C7.4737 12.2455 7.6937 12.0355 7.6937 11.6755V10.5155C7.6937 10.1755 7.4737 9.9555 7.1237 9.9555H5.9737C5.6237 9.9555 5.4037 10.1755 5.4037 10.5155V11.6755C5.4037 12.0355 5.6237 12.2455 5.9737 12.2455ZM9.8037 12.2455H10.9637C11.3237 12.2455 11.5237 12.0355 11.5237 11.6755V10.5155C11.5237 10.1755 11.3237 9.9555 10.9637 9.9555H9.8037C9.4637 9.9555 9.2437 10.1755 9.2437 10.5155V11.6755C9.2437 12.0355 9.4637 12.2455 9.8037 12.2455ZM13.6337 12.2455H14.7837C15.1337 12.2455 15.3537 12.0355 15.3537 11.6755V10.5155C15.3537 10.1755 15.1337 9.9555 14.7837 9.9555H13.6337C13.2737 9.9555 13.0737 10.1755 13.0737 10.5155V11.6755C13.0737 12.0355 13.2737 12.2455 13.6337 12.2455ZM17.4637 12.2455H18.6237C18.9637 12.2455 19.1637 12.0355 19.1637 11.6755V10.5155C19.1637 10.1755 18.9637 9.9555 18.6237 9.9555H17.4637C17.1037 9.9555 16.8837 10.1755 16.8837 10.5155V11.6755C16.8837 12.0355 17.1037 12.2455 17.4637 12.2455ZM21.2737 12.2455H22.4337C22.7937 12.2455 23.0137 12.0355 23.0137 11.6755V10.5155C23.0137 10.1755 22.7937 9.9555 22.4337 9.9555H21.2737C20.9337 9.9555 20.7237 10.1755 20.7237 10.5155V11.6755C20.7237 12.0355 20.9337 12.2455 21.2737 12.2455ZM25.1137 12.2455H26.2637C26.6237 12.2455 26.8337 12.0355 26.8337 11.6755V10.5155C26.8337 10.1755 26.6237 9.9555 26.2637 9.9555H25.1137C24.7637 9.9555 24.5437 10.1755 24.5437 10.5155V11.6755C24.5437 12.0355 24.7637 12.2455 25.1137 12.2455ZM5.9737 16.0755H7.1237C7.4737 16.0755 7.6937 15.8555 7.6937 15.5055V14.3555C7.6937 14.0155 7.4737 13.7955 7.1237 13.7955H5.9737C5.6237 13.7955 5.4037 14.0155 5.4037 14.3555V15.5055C5.4037 15.8555 5.6237 16.0755 5.9737 16.0755ZM9.8037 16.0755H10.9637C11.3237 16.0755 11.5237 15.8555 11.5237 15.5055V14.3555C11.5237 14.0155 11.3237 13.7955 10.9637 13.7955H9.8037C9.4637 13.7955 9.2437 14.0155 9.2437 14.3555V15.5055C9.2437 15.8555 9.4637 16.0755 9.8037 16.0755ZM13.6337 16.0755H14.7837C15.1337 16.0755 15.3537 15.8555 15.3537 15.5055V14.3555C15.3537 14.0155 15.1337 13.7955 14.7837 13.7955H13.6337C13.2737 13.7955 13.0737 14.0155 13.0737 14.3555V15.5055C13.0737 15.8555 13.2737 16.0755 13.6337 16.0755ZM17.4637 16.0755H18.6237C18.9637 16.0755 19.1637 15.8555 19.1637 15.5055V14.3555C19.1637 14.0155 18.9637 13.7955 18.6237 13.7955H17.4637C17.1037 13.7955 16.8837 14.0155 16.8837 14.3555V15.5055C16.8837 15.8555 17.1037 16.0755 17.4637 16.0755ZM21.2737 16.0755H22.4337C22.7937 16.0755 23.0137 15.8555 23.0137 15.5055V14.3555C23.0137 14.0155 22.7937 13.7955 22.4337 13.7955H21.2737C20.9337 13.7955 20.7237 14.0155 20.7237 14.3555V15.5055C20.7237 15.8555 20.9337 16.0755 21.2737 16.0755ZM25.1137 16.0755H26.2637C26.6237 16.0755 26.8337 15.8555 26.8337 15.5055V14.3555C26.8337 14.0155 26.6237 13.7955 26.2637 13.7955H25.1137C24.7637 13.7955 24.5437 14.0155 24.5437 14.3555V15.5055C24.5437 15.8555 24.7637 16.0755 25.1137 16.0755ZM5.9737 19.9155H7.1237C7.4737 19.9155 7.6937 19.7055 7.6937 19.3455V18.1955C7.6937 17.8455 7.4737 17.6255 7.1237 17.6255H5.9737C5.6237 17.6255 5.4037 17.8455 5.4037 18.1955V19.3455C5.4037 19.7055 5.6237 19.9155 5.9737 19.9155ZM9.9237 19.9155H22.3137C22.7637 19.9155 23.0137 19.6555 23.0137 19.2255V18.3155C23.0137 17.8855 22.7637 17.6255 22.3137 17.6255H9.9237C9.4837 17.6255 9.2437 17.8855 9.2437 18.3155V19.2255C9.2437 19.6555 9.4837 19.9155 9.9237 19.9155ZM25.1137 19.9155H26.2637C26.6237 19.9155 26.8337 19.7055 26.8337 19.3455V18.1955C26.8337 17.8455 26.6237 17.6255 26.2637 17.6255H25.1137C24.7637 17.6255 24.5437 17.8455 24.5437 18.1955V19.3455C24.5437 19.7055 24.7637 19.9155 25.1137 19.9155Z" /></svg>