
<svg
    viewBox="0 0 34.412109375 21.6015625"
    xmlns="http://www.w3.org/2000/svg"
>
    <path
        fill="inherit"
        d="M4.2937 21.6019H30.1237C32.9637 21.6019 34.4137 20.1819 34.4137 17.3619V4.2219C34.4137 1.4219 32.9637 0.0019 30.1237 0.0019H4.2937C1.4237 0.0019 0.0037 1.4119 0.0037 4.2219V17.3619C0.0037 20.1819 1.4237 21.6019 4.2937 21.6019ZM4.3237 19.4019C2.9537 19.4019 2.2037 18.6619 2.2037 17.2419V4.3519C2.2037 2.9219 2.9537 2.2019 4.3237 2.2019H30.0737C31.4337 2.2019 32.2137 2.9219 32.2137 4.3519V17.2419C32.2137 18.6619 31.4337 19.4019 30.0737 19.4019ZM5.3837 7.5919H6.3937C6.6337 7.5919 6.7837 7.4219 6.7837 7.1519V5.6219C6.7837 5.3419 6.6337 5.1819 6.3937 5.1819H5.3837C5.1437 5.1819 4.9737 5.3419 4.9737 5.6219V7.1519C4.9737 7.4219 5.1437 7.5919 5.3837 7.5919ZM8.3937 7.5919H9.3937C9.6437 7.5919 9.7937 7.4219 9.7937 7.1519V5.6219C9.7937 5.3419 9.6437 5.1819 9.3937 5.1819H8.3937C8.1337 5.1819 7.9837 5.3419 7.9837 5.6219V7.1519C7.9837 7.4219 8.1337 7.5919 8.3937 7.5919ZM11.3937 7.5919H12.4037C12.6337 7.5919 12.7837 7.4219 12.7837 7.1519V5.6219C12.7837 5.3419 12.6337 5.1819 12.4037 5.1819H11.3937C11.1437 5.1819 10.9737 5.3419 10.9737 5.6219V7.1519C10.9737 7.4219 11.1437 7.5919 11.3937 7.5919ZM14.3837 7.5919H15.3837C15.6237 7.5919 15.7937 7.4219 15.7937 7.1519V5.6219C15.7937 5.3419 15.6237 5.1819 15.3837 5.1819H14.3837C14.1337 5.1819 13.9837 5.3419 13.9837 5.6219V7.1519C13.9837 7.4219 14.1337 7.5919 14.3837 7.5919ZM17.3737 7.5919H18.4037C18.6337 7.5919 18.7837 7.4219 18.7837 7.1519V5.6219C18.7837 5.3419 18.6337 5.1819 18.4037 5.1819H17.3737C17.1337 5.1819 16.9837 5.3419 16.9837 5.6219V7.1519C16.9837 7.4219 17.1337 7.5919 17.3737 7.5919ZM20.3937 7.5919H21.3837C21.6337 7.5919 21.7937 7.4219 21.7937 7.1519V5.6219C21.7937 5.3419 21.6337 5.1819 21.3837 5.1819H20.3937C20.1437 5.1819 19.9837 5.3419 19.9837 5.6219V7.1519C19.9837 7.4219 20.1437 7.5919 20.3937 7.5919ZM24.1037 10.0319C23.5937 10.5119 23.5937 11.0719 24.1037 11.5519L28.1137 15.3819C28.5737 15.8219 29.3637 15.6419 29.3637 14.9019V6.6819C29.3637 5.9619 28.5737 5.7819 28.1137 6.2219ZM5.3837 11.9719H6.3937C6.6337 11.9719 6.7837 11.8219 6.7837 11.5419V10.0219C6.7837 9.7319 6.6337 9.5819 6.3937 9.5819H5.3837C5.1437 9.5819 4.9737 9.7319 4.9737 10.0219V11.5419C4.9737 11.8219 5.1437 11.9719 5.3837 11.9719ZM8.3937 11.9719H9.3937C9.6437 11.9719 9.7937 11.8219 9.7937 11.5419V10.0219C9.7937 9.7319 9.6437 9.5819 9.3937 9.5819H8.3937C8.1337 9.5819 7.9837 9.7319 7.9837 10.0219V11.5419C7.9837 11.8219 8.1337 11.9719 8.3937 11.9719ZM11.3937 11.9719H12.4037C12.6337 11.9719 12.7837 11.8219 12.7837 11.5419V10.0219C12.7837 9.7319 12.6337 9.5819 12.4037 9.5819H11.3937C11.1437 9.5819 10.9737 9.7319 10.9737 10.0219V11.5419C10.9737 11.8219 11.1437 11.9719 11.3937 11.9719ZM14.3837 11.9719H15.3837C15.6237 11.9719 15.7937 11.8219 15.7937 11.5419V10.0219C15.7937 9.7319 15.6237 9.5819 15.3837 9.5819H14.3837C14.1337 9.5819 13.9837 9.7319 13.9837 10.0219V11.5419C13.9837 11.8219 14.1337 11.9719 14.3837 11.9719ZM17.3737 11.9719H18.4037C18.6337 11.9719 18.7837 11.8219 18.7837 11.5419V10.0219C18.7837 9.7319 18.6337 9.5819 18.4037 9.5819H17.3737C17.1337 9.5819 16.9837 9.7319 16.9837 10.0219V11.5419C16.9837 11.8219 17.1337 11.9719 17.3737 11.9719ZM20.3937 11.9719H21.3837C21.6337 11.9719 21.7937 11.8219 21.7937 11.5419V10.0219C21.7937 9.7319 21.6337 9.5819 21.3837 9.5819H20.3937C20.1437 9.5819 19.9837 9.7319 19.9837 10.0219V11.5419C19.9837 11.8219 20.1437 11.9719 20.3937 11.9719ZM5.3837 16.3819H6.3937C6.6337 16.3819 6.7837 16.2119 6.7837 15.9419V14.4119C6.7837 14.1319 6.6337 13.9719 6.3937 13.9719H5.3837C5.1437 13.9719 4.9737 14.1319 4.9737 14.4119V15.9419C4.9737 16.2119 5.1437 16.3819 5.3837 16.3819ZM8.3937 16.3819H18.4037C18.6337 16.3819 18.7837 16.2119 18.7837 15.9419V14.4119C18.7837 14.1319 18.6337 13.9719 18.4037 13.9719H8.3937C8.1337 13.9719 7.9837 14.1319 7.9837 14.4119V15.9419C7.9837 16.2119 8.1337 16.3819 8.3937 16.3819ZM20.3937 16.3819H21.3837C21.6337 16.3819 21.7937 16.2119 21.7937 15.9419V14.4119C21.7937 14.1319 21.6337 13.9719 21.3837 13.9719H20.3937C20.1437 13.9719 19.9837 14.1319 19.9837 14.4119V15.9419C19.9837 16.2119 20.1437 16.3819 20.3937 16.3819Z"
        fillRule="evenodd"
        clipRule="evenodd"
    />
</svg>
        