
<svg
    viewBox={0 0 34.412109375 21.6015625}
    xmlns="http://www.w3.org/2000/svg"
>
    <path
        fill="inherit"
        d="M4.2937 21.6019H30.1237C32.9637 21.6019 34.4137 20.1819 34.4137 17.3619V4.2219C34.4137 1.4219 32.9637 0.0019 30.1237 0.0019H4.2937C1.4237 0.0019 0.0037 1.4119 0.0037 4.2219V17.3619C0.0037 20.1819 1.4237 21.6019 4.2937 21.6019ZM4.3237 19.4019C2.9537 19.4019 2.2037 18.6619 2.2037 17.2419V4.3519C2.2037 2.9219 2.9537 2.2019 4.3237 2.2019H30.0737C31.4337 2.2019 32.2137 2.9219 32.2137 4.3519V17.2419C32.2137 18.6619 31.4337 19.4019 30.0737 19.4019ZM13.0137 7.5919H14.0237C14.2737 7.5919 14.4237 7.4219 14.4237 7.1519V5.6219C14.4237 5.3419 14.2737 5.1819 14.0237 5.1819H13.0137C12.7737 5.1819 12.6237 5.3419 12.6237 5.6219V7.1519C12.6237 7.4219 12.7737 7.5919 13.0137 7.5919ZM16.0237 7.5919H17.0237C17.2637 7.5919 17.4137 7.4219 17.4137 7.1519V5.6219C17.4137 5.3419 17.2637 5.1819 17.0237 5.1819H16.0237C15.7737 5.1819 15.6137 5.3419 15.6137 5.6219V7.1519C15.6137 7.4219 15.7737 7.5919 16.0237 7.5919ZM19.0337 7.5919H20.0337C20.2637 7.5919 20.4237 7.4219 20.4237 7.1519V5.6219C20.4237 5.3419 20.2637 5.1819 20.0337 5.1819H19.0337C18.7737 5.1819 18.6237 5.3419 18.6237 5.6219V7.1519C18.6237 7.4219 18.7737 7.5919 19.0337 7.5919ZM22.0237 7.5919H23.0137C23.2737 7.5919 23.4237 7.4219 23.4237 7.1519V5.6219C23.4237 5.3419 23.2737 5.1819 23.0137 5.1819H22.0237C21.7637 5.1819 21.6137 5.3419 21.6137 5.6219V7.1519C21.6137 7.4219 21.7637 7.5919 22.0237 7.5919ZM25.0037 7.5919H26.0337C26.2637 7.5919 26.4237 7.4219 26.4237 7.1519V5.6219C26.4237 5.3419 26.2637 5.1819 26.0337 5.1819H25.0037C24.7737 5.1819 24.6237 5.3419 24.6237 5.6219V7.1519C24.6237 7.4219 24.7737 7.5919 25.0037 7.5919ZM28.0237 7.5919H29.0137C29.2737 7.5919 29.4237 7.4219 29.4237 7.1519V5.6219C29.4237 5.3419 29.2737 5.1819 29.0137 5.1819H28.0237C27.7637 5.1819 27.6137 5.3419 27.6137 5.6219V7.1519C27.6137 7.4219 27.7637 7.5919 28.0237 7.5919ZM10.2437 10.0319L6.2337 6.2219C5.7737 5.7819 4.9737 5.9619 4.9737 6.6819V14.9019C4.9737 15.6419 5.7737 15.8219 6.2337 15.3819L10.2437 11.5519C10.7437 11.0719 10.7437 10.5119 10.2437 10.0319ZM13.0137 11.9719H14.0237C14.2737 11.9719 14.4237 11.8219 14.4237 11.5419V10.0219C14.4237 9.7319 14.2737 9.5819 14.0237 9.5819H13.0137C12.7737 9.5819 12.6237 9.7319 12.6237 10.0219V11.5419C12.6237 11.8219 12.7737 11.9719 13.0137 11.9719ZM16.0237 11.9719H17.0237C17.2637 11.9719 17.4137 11.8219 17.4137 11.5419V10.0219C17.4137 9.7319 17.2637 9.5819 17.0237 9.5819H16.0237C15.7737 9.5819 15.6137 9.7319 15.6137 10.0219V11.5419C15.6137 11.8219 15.7737 11.9719 16.0237 11.9719ZM19.0337 11.9719H20.0337C20.2637 11.9719 20.4237 11.8219 20.4237 11.5419V10.0219C20.4237 9.7319 20.2637 9.5819 20.0337 9.5819H19.0337C18.7737 9.5819 18.6237 9.7319 18.6237 10.0219V11.5419C18.6237 11.8219 18.7737 11.9719 19.0337 11.9719ZM22.0237 11.9719H23.0137C23.2737 11.9719 23.4237 11.8219 23.4237 11.5419V10.0219C23.4237 9.7319 23.2737 9.5819 23.0137 9.5819H22.0237C21.7637 9.5819 21.6137 9.7319 21.6137 10.0219V11.5419C21.6137 11.8219 21.7637 11.9719 22.0237 11.9719ZM25.0037 11.9719H26.0337C26.2637 11.9719 26.4237 11.8219 26.4237 11.5419V10.0219C26.4237 9.7319 26.2637 9.5819 26.0337 9.5819H25.0037C24.7737 9.5819 24.6237 9.7319 24.6237 10.0219V11.5419C24.6237 11.8219 24.7737 11.9719 25.0037 11.9719ZM28.0237 11.9719H29.0137C29.2737 11.9719 29.4237 11.8219 29.4237 11.5419V10.0219C29.4237 9.7319 29.2737 9.5819 29.0137 9.5819H28.0237C27.7637 9.5819 27.6137 9.7319 27.6137 10.0219V11.5419C27.6137 11.8219 27.7637 11.9719 28.0237 11.9719ZM13.0137 16.3819H14.0237C14.2737 16.3819 14.4237 16.2119 14.4237 15.9419V14.4119C14.4237 14.1319 14.2737 13.9719 14.0237 13.9719H13.0137C12.7737 13.9719 12.6237 14.1319 12.6237 14.4119V15.9419C12.6237 16.2119 12.7737 16.3819 13.0137 16.3819ZM16.0237 16.3819H26.0337C26.2637 16.3819 26.4237 16.2119 26.4237 15.9419V14.4119C26.4237 14.1319 26.2637 13.9719 26.0337 13.9719H16.0237C15.7737 13.9719 15.6137 14.1319 15.6137 14.4119V15.9419C15.6137 16.2119 15.7737 16.3819 16.0237 16.3819ZM28.0237 16.3819H29.0137C29.2737 16.3819 29.4237 16.2119 29.4237 15.9419V14.4119C29.4237 14.1319 29.2737 13.9719 29.0137 13.9719H28.0237C27.7637 13.9719 27.6137 14.1319 27.6137 14.4119V15.9419C27.6137 16.2119 27.7637 16.3819 28.0237 16.3819Z"
        fillRule="evenodd"
        clipRule="evenodd"
    />
</svg>
        