
<svg
    viewBox="0 0 25.169921875 25.169921875"
    xmlns="http://www.w3.org/2000/svg"
>
    <path
        fill="inherit"
        d="M4.2937 25.1692H20.8737C23.7437 25.1692 25.1737 23.7592 25.1737 20.9492V4.2392C25.1737 1.4192 23.7437 -0.0008 20.8737 -0.0008H4.2937C1.4337 -0.0008 0.0037 1.4192 0.0037 4.2392V20.9492C0.0037 23.7592 1.4337 25.1692 4.2937 25.1692ZM4.3237 22.9692C2.9537 22.9692 2.2037 22.2392 2.2037 20.8192V4.3592C2.2037 2.9392 2.9537 2.1992 4.3237 2.1992H20.8537C22.2037 2.1992 22.9737 2.9392 22.9737 4.3592V20.8192C22.9737 22.2392 22.2037 22.9692 20.8537 22.9692ZM9.5137 18.8492C10.0037 18.8492 10.3037 18.5392 10.3037 18.0292V12.9492H11.1837L15.4037 18.4592C15.5837 18.6992 15.7937 18.8492 16.1037 18.8492C16.6237 18.8492 16.8437 18.4592 16.8437 18.1592C16.8437 17.9492 16.7637 17.7892 16.6237 17.6092L12.9337 12.9492H16.7037C16.9637 12.9492 17.1737 12.7392 17.1737 12.4692C17.1737 12.2092 16.9637 12.0192 16.7037 12.0192H12.9637L16.6237 7.4792C16.7637 7.3192 16.8337 7.1392 16.8337 6.9692C16.8337 6.5592 16.5037 6.2592 16.1037 6.2592C15.8337 6.2592 15.5837 6.4492 15.4337 6.6592L11.1937 12.0192H10.3037V7.0692C10.3037 6.5792 10.0037 6.2592 9.5137 6.2592C9.0237 6.2592 8.7137 6.5792 8.7137 7.0692V12.0192H7.7637C7.5037 12.0192 7.3137 12.2092 7.3137 12.4792C7.3137 12.7592 7.5037 12.9492 7.7637 12.9492H8.7137V18.0292C8.7137 18.5392 9.0237 18.8492 9.5137 18.8492Z"
        fillRule="evenodd"
        clipRule="evenodd"
    />
</svg>
        