
<svg
    viewBox={0 0 30.529296875 29.17578125}
    xmlns="http://www.w3.org/2000/svg"
>
    <path
        fill="inherit"
        d="M1.8137 25.919H28.7137V25.009C28.7137 24.459 28.3937 24.129 27.8337 24.129H26.9637V9.379H28.1637C28.9137 9.379 29.3537 8.829 29.3537 8.269C29.3537 7.859 29.1237 7.509 28.6137 7.219L16.9437 0.479C16.3937 0.169 15.8137 -0.001 15.2537 -0.001C14.6937 -0.001 14.1137 0.169 13.5937 0.479L1.9137 7.219C1.3937 7.509 1.1737 7.859 1.1737 8.269C1.1737 8.829 1.6137 9.379 2.3637 9.379H3.5637V24.129H2.7037C2.1437 24.129 1.8137 24.459 1.8137 25.009ZM5.6337 24.129V7.629L14.7237 2.529C14.8937 2.429 15.0837 2.379 15.2537 2.379C15.4337 2.379 15.6237 2.429 15.8037 2.529L24.8937 7.629V24.129ZM12.1937 20.669C12.6737 20.669 12.9837 20.339 12.9837 19.849V14.749H13.8537L18.0737 20.259C18.2637 20.519 18.4737 20.669 18.7837 20.669C19.3037 20.669 19.5237 20.259 19.5237 19.979C19.5237 19.759 19.4437 19.589 19.3037 19.419L15.6037 14.749H19.3837C19.6437 14.749 19.8537 14.549 19.8537 14.289C19.8537 14.029 19.6437 13.839 19.3837 13.839H15.6237L19.3037 9.299C19.4237 9.119 19.5137 8.939 19.5137 8.779C19.5137 8.369 19.1837 8.079 18.7837 8.079C18.5137 8.079 18.2637 8.269 18.1037 8.479L13.8637 13.839H12.9837V8.889C12.9837 8.379 12.6737 8.079 12.1937 8.079C11.7037 8.079 11.3937 8.379 11.3937 8.889V13.839H10.4437C10.1737 13.839 9.9937 14.009 9.9937 14.299C9.9937 14.559 10.1737 14.749 10.4437 14.749H11.3937V19.849C11.3937 20.339 11.7037 20.669 12.1937 20.669ZM1.0937 29.179H29.4237C30.0237 29.179 30.5337 28.669 30.5337 28.069C30.5337 27.469 30.0237 26.979 29.4237 26.979H1.0937C0.4937 26.979 0.0037 27.469 0.0037 28.069C0.0037 28.669 0.4937 29.179 1.0937 29.179Z"
        fillRule="evenodd"
        clipRule="evenodd"
    />
</svg>
        