
<svg
    viewBox="0 0 32.935546875 27.26189615322232"
    xmlns="http://www.w3.org/2000/svg"
>
    <path
        fill="inherit"
        d="M32.9327 16.3992C32.9327 7.7792 26.3227 0.7192 17.8927 -0.0008C17.4627 -0.0408 17.1327 0.2792 17.1327 0.7192V5.1892C17.1327 5.5592 17.3927 5.8392 17.7627 5.8692C22.9927 6.5092 27.0727 10.9792 27.0727 16.3992C27.0727 18.8592 26.2227 21.1292 24.7327 23.0292C24.5427 23.2592 24.5527 23.5592 24.7627 23.7792L28.0227 27.0292C28.3327 27.3292 28.7927 27.3292 29.0627 27.0092C31.4827 24.1392 32.9327 20.4292 32.9327 16.3992ZM0.0027 16.3992C0.0027 20.4392 1.4527 24.1492 3.8727 27.0192C4.1427 27.3492 4.5927 27.3292 4.9127 27.0292L8.1727 23.7792C8.3827 23.5592 8.3927 23.2592 8.2027 23.0292C6.7027 21.1292 5.8627 18.8592 5.8627 16.3992C5.8627 10.9792 9.9427 6.5092 15.1727 5.8692C15.5427 5.8392 15.8027 5.5592 15.8027 5.1892V0.7192C15.8027 0.2792 15.4727 -0.0408 15.0427 -0.0008C6.6127 0.7192 0.0027 7.7792 0.0027 16.3992ZM13.3727 22.8592C13.8627 22.8592 14.1627 22.5392 14.1627 22.0392V16.9392H15.0427L19.2627 22.4492C19.4427 22.7092 19.6427 22.8592 19.9627 22.8592C20.4827 22.8592 20.7027 22.4492 20.7027 22.1692C20.7027 21.9492 20.6127 21.7792 20.4827 21.6092L16.7927 16.9392H20.5627C20.8227 16.9392 21.0227 16.7392 21.0227 16.4792C21.0227 16.2192 20.8227 16.0292 20.5627 16.0292H16.8127L20.4927 11.4892C20.6127 11.3092 20.6827 11.1292 20.6827 10.9692C20.6827 10.5592 20.3527 10.2692 19.9627 10.2692C19.7027 10.2692 19.4427 10.4592 19.2927 10.6692L15.0527 16.0292H14.1627V11.0792C14.1627 10.5692 13.8627 10.2692 13.3727 10.2692C12.8827 10.2692 12.5627 10.5692 12.5627 11.0792V16.0292H11.6227C11.3627 16.0292 11.1727 16.2092 11.1727 16.4892C11.1727 16.7492 11.3627 16.9392 11.6227 16.9392H12.5627V22.0392C12.5627 22.5392 12.8827 22.8592 13.3727 22.8592Z"
        fillRule="evenodd"
        clipRule="evenodd"
    />
</svg>
        