
<svg
    viewBox={0 0 30.544813437289534 27.890625}
    xmlns="http://www.w3.org/2000/svg"
>
    <path
        fill="inherit"
        d="M0.9769 11.3064C-0.0131 11.3064 -0.2531 11.9764 0.2769 12.7464L3.3369 17.0864C3.7869 17.7164 4.4469 17.7064 4.8869 17.0864L7.9269 12.7264C8.4669 11.9764 8.2069 11.3064 7.2469 11.3064H5.2769C6.4669 6.1564 11.0769 2.3264 16.5969 2.3264C23.0269 2.3264 28.2169 7.5164 28.2169 13.9464C28.2169 20.3664 23.0269 25.5664 16.5969 25.5664C12.7169 25.5664 9.2569 23.6564 7.1969 20.7564C6.7669 20.1964 6.1269 20.0164 5.5569 20.3564C5.0069 20.6964 4.8369 21.4664 5.3069 22.0664C7.8369 25.6064 11.9769 27.8864 16.5969 27.8864C24.2969 27.8864 30.5469 21.6464 30.5469 13.9464C30.5469 6.2464 24.2969 -0.0036 16.5969 -0.0036C9.8069 -0.0036 4.1269 4.8664 2.8969 11.3064ZM13.5269 20.2164C13.9969 20.2164 14.3169 19.9064 14.3169 19.3964V14.3164H15.1869L19.4169 19.8264C19.5969 20.0664 19.7969 20.2164 20.1169 20.2164C20.6369 20.2164 20.8469 19.8264 20.8469 19.5264C20.8469 19.3164 20.7669 19.1564 20.6369 18.9764L16.9269 14.3164H20.7169C20.9769 14.3164 21.1769 14.1064 21.1769 13.8364C21.1769 13.5764 20.9769 13.3864 20.7169 13.3864H16.9569L20.6369 8.8464C20.7569 8.6864 20.8369 8.5064 20.8369 8.3364C20.8369 7.9264 20.5069 7.6264 20.1169 7.6264C19.8369 7.6264 19.5969 7.8164 19.4469 8.0264L15.2069 13.3864H14.3169V8.4364C14.3169 7.9464 13.9969 7.6264 13.5269 7.6264C13.0269 7.6264 12.7169 7.9464 12.7169 8.4364V13.3864H11.7769C11.4969 13.3864 11.3269 13.5764 11.3269 13.8464C11.3269 14.1264 11.4969 14.3164 11.7769 14.3164H12.7169V19.3964C12.7169 19.9064 13.0269 20.2164 13.5269 20.2164Z"
        fillRule="evenodd"
        clipRule="evenodd"
    />
</svg>
        