<svg viewBox="0 0 27.890625 27.890625" xmlns="http://www.w3.org/2000/svg"><path d="M13.9427 27.8864C21.6427 27.8864 27.8927 21.6464 27.8927 13.9464C27.8927 6.2464 21.6427 -0.0036 13.9427 -0.0036C6.2527 -0.0036 0.0027 6.2464 0.0027 13.9464C0.0027 21.6464 6.2527 27.8864 13.9427 27.8864ZM13.9427 25.5664C7.5227 25.5664 2.3227 20.3664 2.3227 13.9464C2.3227 7.5164 7.5227 2.3264 13.9427 2.3264C20.3727 2.3264 25.5627 7.5164 25.5627 13.9464C25.5627 20.3664 20.3727 25.5664 13.9427 25.5664ZM10.8527 20.2164C11.3327 20.2164 11.6527 19.9064 11.6527 19.3964V14.3164H12.5227L16.7527 19.8264C16.9227 20.0664 17.1327 20.2164 17.4427 20.2164C17.9627 20.2164 18.1827 19.8264 18.1827 19.5264C18.1827 19.3164 18.1027 19.1564 17.9627 18.9764L14.2627 14.3164H18.0427C18.3027 14.3164 18.5127 14.1064 18.5127 13.8364C18.5127 13.5764 18.3027 13.3864 18.0427 13.3864H14.2827L17.9627 8.8464C18.0927 8.6864 18.1727 8.5064 18.1727 8.3364C18.1727 7.9264 17.8427 7.6264 17.4427 7.6264C17.1727 7.6264 16.9227 7.8164 16.7727 8.0264L12.5327 13.3864H11.6527V8.4364C11.6527 7.9464 11.3327 7.6264 10.8527 7.6264C10.3627 7.6264 10.0527 7.9464 10.0527 8.4364V13.3864H9.1027C8.8327 13.3864 8.6527 13.5764 8.6527 13.8464C8.6527 14.1264 8.8327 14.3164 9.1027 14.3164H10.0527V19.3964C10.0527 19.9064 10.3627 20.2164 10.8527 20.2164Z" /></svg>