
<svg
    viewBox="0 0 30.5703125 30.5703125"
    xmlns="http://www.w3.org/2000/svg"
>
    <path
        fill="inherit"
        d="M15.2827 30.5663C23.6827 30.5663 30.5727 23.6763 30.5727 15.2863C30.5727 6.8863 23.6827 -0.0038 15.2827 -0.0038C6.8927 -0.0038 0.0027 6.8863 0.0027 15.2863C0.0027 23.6763 6.8927 30.5663 15.2827 30.5663ZM15.2827 25.4862C9.6527 25.4862 5.0827 20.9162 5.0827 15.2863C5.0827 9.6363 9.6527 5.0863 15.2827 5.0863C20.9327 5.0863 25.4827 9.6363 25.4827 15.2863C25.4827 20.9162 20.9327 25.4862 15.2827 25.4862ZM12.2127 21.5563C12.7027 21.5563 13.0027 21.2463 13.0027 20.7362V15.6563H13.8727L18.1027 21.1662C18.2827 21.4063 18.4827 21.5563 18.8027 21.5563C19.3227 21.5563 19.5327 21.1662 19.5327 20.8663C19.5327 20.6563 19.4527 20.4963 19.3227 20.3163L15.6227 15.6563H19.4027C19.6627 15.6563 19.8627 15.4463 19.8627 15.1763C19.8627 14.9163 19.6627 14.7263 19.4027 14.7263H15.6527L19.3227 10.1863C19.4527 10.0262 19.5227 9.8463 19.5227 9.6763C19.5227 9.2663 19.1927 8.9662 18.8027 8.9662C18.5227 8.9662 18.2827 9.1563 18.1327 9.3663L13.8927 14.7263H13.0027V9.7762C13.0027 9.2863 12.7027 8.9662 12.2127 8.9662C11.7127 8.9662 11.4027 9.2863 11.4027 9.7762V14.7263H10.4627C10.2027 14.7263 10.0127 14.9163 10.0127 15.1863C10.0127 15.4663 10.2027 15.6563 10.4627 15.6563H11.4027V20.7362C11.4027 21.2463 11.7127 21.5563 12.2127 21.5563Z"
        fillRule="evenodd"
        clipRule="evenodd"
    />
</svg>
        