
<svg
    viewBox="0 0 19.27734375 25.2109375"
    xmlns="http://www.w3.org/2000/svg"
>
    <path
        fill="inherit"
        d="M4.1737 25.2066C4.9637 25.2066 5.5237 24.6266 5.5237 23.8166V13.3966H7.3837L16.2537 24.5366C16.5837 24.9466 16.9137 25.2066 17.3937 25.2066C18.0737 25.2066 18.6437 24.7066 18.6437 24.0066C18.6437 23.6766 18.5437 23.3966 18.2937 23.0966L10.4337 13.3966H18.3637C18.8837 13.3966 19.2737 13.0166 19.2737 12.4966C19.2737 11.9766 18.8837 11.5966 18.3637 11.5966H10.4437L18.2837 2.0966C18.4737 1.8566 18.6337 1.4866 18.6337 1.1766C18.6337 0.5166 18.1037 -0.0034 17.3937 -0.0034C16.9237 -0.0034 16.5437 0.2866 16.2537 0.6566L7.3937 11.5966H5.5237V1.3766C5.5237 0.5766 4.9537 -0.0034 4.1737 -0.0034C3.3937 -0.0034 2.8037 0.5766 2.8037 1.3766V11.5966H0.9037C0.3837 11.5966 0.0037 11.9766 0.0037 12.4966C0.0037 13.0166 0.3837 13.3966 0.9037 13.3966H2.8037V23.8166C2.8037 24.6266 3.3937 25.2066 4.1737 25.2066Z"
        fillRule="evenodd"
        clipRule="evenodd"
    />
</svg>
        