
<svg
    viewBox="0 0 25.169921875 25.169921875"
    xmlns="http://www.w3.org/2000/svg"
>
    <path
        fill="inherit"
        d="M4.2937 25.1692H20.8737C23.7437 25.1692 25.1737 23.7592 25.1737 20.9492V4.2392C25.1737 1.4192 23.7437 -0.0008 20.8737 -0.0008H4.2937C1.4337 -0.0008 0.0037 1.4192 0.0037 4.2392V20.9492C0.0037 23.7592 1.4337 25.1692 4.2937 25.1692ZM9.4237 19.0592C8.9037 19.0592 8.5837 18.7292 8.5837 18.2092V12.9592H7.6137C7.3437 12.9592 7.1337 12.7592 7.1337 12.4792C7.1337 12.1992 7.3437 11.9992 7.6137 11.9992H8.5837V6.8892C8.5837 6.3892 8.9037 6.0592 9.4237 6.0592C9.9237 6.0592 10.2437 6.3892 10.2437 6.8892V11.9992H11.1537L15.5137 6.4692C15.6837 6.2592 15.9237 6.0592 16.2137 6.0592C16.6237 6.0592 16.9637 6.3692 16.9637 6.7992C16.9637 6.9692 16.8937 7.1492 16.7437 7.3192L12.9737 11.9992H16.8337C17.1037 11.9992 17.3237 12.1992 17.3237 12.4692C17.3237 12.7392 17.1037 12.9592 16.8337 12.9592H12.9437L16.7437 17.7592C16.8937 17.9492 16.9837 18.1192 16.9837 18.3292C16.9837 18.6492 16.7437 19.0592 16.2137 19.0592C15.8837 19.0592 15.6837 18.8992 15.4937 18.6492L11.1437 12.9592H10.2437V18.2092C10.2437 18.7292 9.9237 19.0592 9.4237 19.0592Z"
        fillRule="evenodd"
        clipRule="evenodd"
    />
</svg>
        