
<svg
    viewBox="0 0 32.935546875 27.33018496744969"
    xmlns="http://www.w3.org/2000/svg"
>
    <path
        fill="inherit"
        d="M16.4627 5.864C18.9327 5.864 21.2027 6.724 23.0227 8.134C23.2927 8.354 23.6527 8.324 23.9127 8.064L27.0827 4.894C27.4027 4.584 27.3827 4.124 27.0527 3.854C24.2027 1.454 20.4927 0.004 16.4627 0.004C12.4427 0.004 8.7327 1.454 5.8827 3.854C5.5527 4.124 5.5327 4.584 5.8527 4.894L9.0227 8.064C9.2827 8.324 9.6527 8.354 9.9527 8.124C11.7627 6.724 14.0127 5.864 16.4627 5.864ZM0.0027 16.464C0.0027 20.494 1.4527 24.204 3.8727 27.074C4.1427 27.414 4.6027 27.414 4.9127 27.094L8.1627 23.844C8.3627 23.624 8.3927 23.324 8.2027 23.094C6.7127 21.194 5.8627 18.924 5.8627 16.464C5.8627 14.014 6.7027 11.744 8.1227 9.944C8.3427 9.654 8.3427 9.284 8.0827 9.024L4.9127 5.854C4.5927 5.534 4.1427 5.534 3.8727 5.864C1.4527 8.734 0.0027 12.444 0.0027 16.464ZM32.9327 16.464C32.9327 12.444 31.4827 8.734 29.0627 5.864C28.7927 5.534 28.3327 5.534 28.0227 5.854L24.8527 9.024C24.5927 9.284 24.5827 9.654 24.8127 9.944C26.2227 11.744 27.0727 14.014 27.0727 16.464C27.0727 18.924 26.2227 21.194 24.7327 23.094C24.5427 23.324 24.5527 23.624 24.7627 23.844L28.0127 27.094C28.3327 27.414 28.7827 27.414 29.0627 27.074C31.4827 24.204 32.9327 20.494 32.9327 16.464ZM13.3727 22.924C13.8627 22.924 14.1627 22.604 14.1627 22.104V17.004H15.0427L19.2627 22.514C19.4427 22.774 19.6427 22.924 19.9627 22.924C20.4827 22.924 20.7027 22.514 20.7027 22.234C20.7027 22.014 20.6127 21.844 20.4827 21.674L16.7927 17.004H20.5627C20.8227 17.004 21.0227 16.804 21.0227 16.544C21.0227 16.284 20.8227 16.094 20.5627 16.094H16.8127L20.4927 11.554C20.6127 11.374 20.6827 11.194 20.6827 11.034C20.6827 10.624 20.3527 10.334 19.9627 10.334C19.7027 10.334 19.4427 10.524 19.2927 10.734L15.0527 16.094H14.1627V11.144C14.1627 10.634 13.8627 10.334 13.3727 10.334C12.8827 10.334 12.5627 10.634 12.5627 11.144V16.094H11.6227C11.3627 16.094 11.1727 16.274 11.1727 16.554C11.1727 16.814 11.3627 17.004 11.6227 17.004H12.5627V22.104C12.5627 22.604 12.8827 22.924 13.3727 22.924Z"
        fillRule="evenodd"
        clipRule="evenodd"
    />
</svg>
        