
<svg
    viewBox={0 0 27.890625 27.890625}
    xmlns="http://www.w3.org/2000/svg"
>
    <path
        fill="inherit"
        d="M13.9427 27.8864C21.6427 27.8864 27.8927 21.6264 27.8927 13.9464C27.8927 6.2464 21.6427 -0.0036 13.9427 -0.0036C6.2627 -0.0036 0.0027 6.2464 0.0027 13.9464C0.0027 21.6264 6.2627 27.8864 13.9427 27.8864ZM5.9427 18.5564C5.5527 18.5564 5.1527 18.3164 5.1527 17.7064V10.1964C5.1527 9.6764 5.4427 9.3564 5.9427 9.3564C6.4927 9.3564 6.7627 9.6664 6.7627 10.1964V13.6064H6.8627L8.9427 9.8564C9.1027 9.5564 9.2727 9.3664 9.6927 9.3664C10.1627 9.3664 10.4027 9.7464 10.4027 10.1064C10.4027 10.3364 10.3627 10.4864 10.2427 10.6864L8.5727 13.5464L10.4827 17.2164C10.5727 17.3664 10.6227 17.5864 10.6227 17.7764C10.6227 18.2564 10.2527 18.5264 9.9027 18.5264C9.5327 18.5264 9.2327 18.3364 9.0927 18.0364L7.3827 14.6864L6.7827 15.7464V17.7064C6.7827 18.2264 6.4827 18.5564 5.9427 18.5564ZM18.0627 18.5564C17.5127 18.5564 17.2427 18.2064 17.2427 17.6664V10.2164C17.2427 9.6664 17.5127 9.3564 18.0627 9.3564C18.5827 9.3564 18.8527 9.6664 18.8527 10.2164V13.1964H21.0427V10.2164C21.0427 9.6664 21.3327 9.3564 21.8427 9.3564C22.3927 9.3564 22.6727 9.6664 22.6727 10.2164V17.6664C22.6727 18.2064 22.3927 18.5564 21.8427 18.5564C21.3127 18.5564 21.0427 18.2064 21.0427 17.6664V14.5564H18.8527V17.6664C18.8527 18.2064 18.5927 18.5564 18.0627 18.5564ZM12.1527 18.5264C11.6627 18.5264 11.3427 18.1864 11.3427 17.6764V10.3364C11.3427 9.8164 11.6527 9.4864 12.1527 9.4864H14.0127C15.5727 9.4864 16.4027 10.8464 16.4027 12.4864C16.4027 14.0164 15.6027 15.4764 13.9227 15.4764H12.9727V17.6764C12.9727 18.1864 12.6627 18.5264 12.1527 18.5264ZM12.9727 14.1764H13.5727C14.4827 14.1764 14.8027 13.3964 14.8027 12.4864C14.8027 11.5664 14.4927 10.7864 13.5927 10.7864H12.9727Z"
        fillRule="evenodd"
        clipRule="evenodd"
    />
</svg>
        