
<svg
    viewBox="0 0 27.890625 27.890625"
    xmlns="http://www.w3.org/2000/svg"
>
    <path
        fill="inherit"
        d="M13.9427 27.8864C21.6427 27.8864 27.8927 21.6464 27.8927 13.9464C27.8927 6.2464 21.6427 -0.0036 13.9427 -0.0036C6.2527 -0.0036 0.0027 6.2464 0.0027 13.9464C0.0027 21.6464 6.2527 27.8864 13.9427 27.8864ZM13.9427 25.5664C7.5227 25.5664 2.3227 20.3664 2.3227 13.9464C2.3227 7.5164 7.5227 2.3264 13.9427 2.3264C20.3727 2.3264 25.5627 7.5164 25.5627 13.9464C25.5627 20.3664 20.3727 25.5664 13.9427 25.5664ZM6.1827 18.4164C6.6827 18.4164 6.9827 18.1064 6.9827 17.5964V15.6964L7.5627 14.6564L9.2327 17.9064C9.3627 18.1964 9.6527 18.3864 10.0127 18.3864C10.3527 18.3864 10.7027 18.1264 10.7027 17.6664C10.7027 17.4764 10.6527 17.2664 10.5727 17.1164L8.7127 13.5664L10.3327 10.7864C10.4627 10.5864 10.5027 10.4464 10.5027 10.2164C10.5027 9.8664 10.2527 9.5064 9.8027 9.5064C9.3927 9.5064 9.2427 9.6964 9.0827 9.9764L7.0527 13.6164H6.9727V10.3064C6.9727 9.7864 6.7027 9.4864 6.1827 9.4864C5.6827 9.4864 5.4127 9.8064 5.4127 10.3064V17.5964C5.4127 18.1864 5.7927 18.4164 6.1827 18.4164ZM17.9227 18.4164C18.4327 18.4164 18.6927 18.0864 18.6927 17.5564V14.5364H20.8127V17.5564C20.8127 18.0864 21.0827 18.4164 21.5927 18.4164C22.1227 18.4164 22.3827 18.0864 22.3827 17.5564V10.3264C22.3827 9.7864 22.1227 9.4864 21.5927 9.4864C21.0927 9.4864 20.8127 9.7864 20.8127 10.3264V13.2164H18.6927V10.3264C18.6927 9.7864 18.4127 9.4864 17.9227 9.4864C17.3927 9.4864 17.1327 9.7864 17.1327 10.3264V17.5564C17.1327 18.0864 17.3927 18.4164 17.9227 18.4164ZM12.1927 18.3864C12.6827 18.3864 12.9927 18.0564 12.9927 17.5664V15.4264H13.9027C15.5327 15.4264 16.3127 14.0164 16.3127 12.5264C16.3127 10.9364 15.5027 9.6264 14.0027 9.6264H12.1927C11.7027 9.6264 11.4127 9.9364 11.4127 10.4464V17.5664C11.4127 18.0564 11.7127 18.3864 12.1927 18.3864ZM12.9927 14.1764V10.8864H13.5927C14.4627 10.8864 14.7627 11.6364 14.7627 12.5264C14.7627 13.4164 14.4527 14.1764 13.5727 14.1764Z"
        fillRule="evenodd"
        clipRule="evenodd"
    />
</svg>
        