
<svg
    viewBox="0 0 31.541015625 23.84375"
    xmlns="http://www.w3.org/2000/svg"
>
    <path
        fill="inherit"
        d="M11.4737 23.843H20.0737C28.0037 23.843 31.5437 20.193 31.5437 12.733V4.143C31.5437 1.393 30.1237 0.003 27.3437 0.003H4.1937C1.4237 0.003 0.0037 1.393 0.0037 4.143V12.733C0.0037 20.193 3.5437 23.843 11.4737 23.843ZM13.5337 17.743C12.8137 17.743 12.4037 17.243 12.4037 16.493V7.173C12.4037 6.423 12.8137 5.893 13.5337 5.893C14.2637 5.893 14.7237 6.413 14.7237 7.173V15.803H19.0537C19.5937 15.803 20.0737 16.213 20.0737 16.793C20.0737 17.363 19.6037 17.743 19.0537 17.743Z"
        fillRule="evenodd"
        clipRule="evenodd"
    />
</svg>
        