
<svg
    viewBox="0 0 31.4453125 34.27711669769996"
    xmlns="http://www.w3.org/2000/svg"
>
    <path
        fill="inherit"
        d="M31.4427 15.7374C31.4427 7.0574 24.4027 -0.0026 15.7227 -0.0026C7.0427 -0.0026 0.0027 7.0574 0.0027 15.7374C0.0027 22.5474 4.3427 28.3574 10.4227 30.5274C10.3127 29.7474 10.5227 28.9874 10.9927 28.3974C5.8527 26.4674 2.2027 21.5474 2.2027 15.7374C2.2027 8.2474 8.2327 2.1974 15.7227 2.1974C23.2127 2.1974 29.2427 8.2474 29.2427 15.7374C29.2427 21.5574 25.5827 26.4874 20.4227 28.4074C20.8927 28.9874 21.1127 29.7674 21.0027 30.5274C27.0727 28.3874 31.4427 22.5574 31.4427 15.7374ZM4.8127 15.7374C4.8127 21.7774 9.6927 26.6474 15.7227 26.6474C21.7527 26.6474 26.6327 21.7774 26.6327 15.7374C26.6327 9.7074 21.7527 4.8174 15.7227 4.8174C9.6927 4.8174 4.8127 9.7074 4.8127 15.7374ZM13.6327 21.1374C12.9627 21.1374 12.5927 20.6574 12.5927 19.9574V11.3374C12.5927 10.6374 12.9627 10.1474 13.6327 10.1474C14.3027 10.1474 14.7427 10.6274 14.7427 11.3374V19.3274H18.7627C19.2627 19.3274 19.6827 19.7174 19.6827 20.2474C19.6827 20.7774 19.2627 21.1374 18.7627 21.1374ZM18.8927 30.6074C19.4727 29.8574 19.1227 28.8974 18.1727 28.8974H13.2527C12.2627 28.8974 11.9727 29.8774 12.5127 30.5974L14.9827 33.8974C15.3627 34.3974 16.0627 34.4074 16.4627 33.8974Z"
        fillRule="evenodd"
        clipRule="evenodd"
    />
</svg>
        