
<svg
    viewBox="0 0 27.97265625 31.048828125"
    xmlns="http://www.w3.org/2000/svg"
>
    <path
        fill="inherit"
        d="M10.6527 1.6652L13.3727 5.3352C13.7427 5.8352 14.4327 5.8352 14.8027 5.3352L17.5527 1.6652C18.1027 0.9452 17.8127 -0.0048 16.8327 -0.0048H11.3427C10.4227 -0.0048 10.0727 0.9152 10.6527 1.6652ZM13.9827 24.8452C22.7227 24.8452 27.9727 20.9052 27.9727 16.0252C27.9727 11.1552 22.7227 7.2152 13.9727 7.2152C5.2527 7.2152 0.0027 11.1552 0.0027 16.0252C0.0027 20.9052 5.2527 24.8452 13.9827 24.8452ZM12.1127 20.4552C11.4827 20.4552 11.0727 19.9852 11.0727 19.3052V12.2652C11.0727 11.5752 11.5027 11.1252 12.1127 11.1252C12.7527 11.1252 13.1627 11.5652 13.1627 12.2652V18.6252H16.4627C17.0127 18.6252 17.3927 18.9952 17.3927 19.5352C17.3927 20.0752 17.0127 20.4552 16.4627 20.4552ZM13.9827 31.0452C17.3127 31.0452 19.2727 29.4952 19.2727 26.8652V26.1852C17.6227 26.5052 15.8627 26.7052 13.9827 26.7052C12.1127 26.7052 10.3527 26.5052 8.7127 26.1852V26.8652C8.7127 29.4952 10.6827 31.0452 13.9827 31.0452Z"
        fillRule="evenodd"
        clipRule="evenodd"
    />
</svg>
        