
<svg
    viewBox="0 0 27.97265625 23.830078125"
    xmlns="http://www.w3.org/2000/svg"
>
    <path
        fill="inherit"
        d="M13.9827 17.6264C22.7227 17.6264 27.9727 13.6864 27.9727 8.8064C27.9727 3.9364 22.7227 -0.0036 13.9727 -0.0036C5.2527 -0.0036 0.0027 3.9364 0.0027 8.8064C0.0027 13.6864 5.2527 17.6264 13.9827 17.6264ZM12.1127 13.2364C11.4827 13.2364 11.0727 12.7664 11.0727 12.0864V5.0464C11.0727 4.3564 11.5027 3.9064 12.1127 3.9064C12.7527 3.9064 13.1627 4.3464 13.1627 5.0464V11.4064H16.4627C17.0127 11.4064 17.3927 11.7764 17.3927 12.3164C17.3927 12.8564 17.0127 13.2364 16.4627 13.2364ZM13.9827 23.8264C17.3127 23.8264 19.2727 22.2764 19.2727 19.6464V18.9664C17.6227 19.2864 15.8627 19.4864 13.9827 19.4864C12.1127 19.4864 10.3527 19.2864 8.7127 18.9664V19.6464C8.7127 22.2764 10.6827 23.8264 13.9827 23.8264Z"
        fillRule="evenodd"
        clipRule="evenodd"
    />
</svg>
        