<svg viewBox="0 0 31.4453125 34.268622124069026" xmlns="http://www.w3.org/2000/svg"><path d="M18.8927 3.6671L16.4627 0.3871C16.0627 -0.1429 15.3627 -0.1129 14.9827 0.3871L12.5127 3.6871C11.9727 4.4071 12.2627 5.3671 13.2527 5.3671H18.1727C19.1227 5.3671 19.4727 4.4271 18.8927 3.6671ZM31.4427 18.5471C31.4427 11.7271 27.0727 5.8971 21.0027 3.7371C21.1127 4.5171 20.8927 5.2871 20.4227 5.8571C25.5827 7.7971 29.2427 12.7171 29.2427 18.5471C29.2427 26.0371 23.2127 32.0671 15.7227 32.0671C8.2327 32.0671 2.2027 26.0371 2.2027 18.5471C2.2027 12.7371 5.8527 7.8171 10.9927 5.8771C10.5227 5.2871 10.3127 4.5371 10.4227 3.7371C4.3427 5.9271 0.0027 11.7371 0.0027 18.5471C0.0027 27.2271 7.0427 34.2671 15.7227 34.2671C24.4027 34.2671 31.4427 27.2171 31.4427 18.5471ZM4.8127 18.5471C4.8127 24.5771 9.6927 29.4671 15.7227 29.4671C21.7527 29.4671 26.6327 24.5771 26.6327 18.5471C26.6327 12.5071 21.7527 7.6371 15.7227 7.6371C9.6927 7.6371 4.8127 12.5071 4.8127 18.5471ZM7.0127 18.5471C7.0127 13.7071 10.8827 9.8371 15.7227 9.8371C20.5527 9.8371 24.4327 13.7071 24.4327 18.5471C24.4327 23.3771 20.5527 27.2671 15.7227 27.2671C10.8827 27.2671 7.0127 23.3771 7.0127 18.5471ZM13.7027 23.7871H18.6727C19.1727 23.7871 19.5827 23.4371 19.5827 22.9171C19.5827 22.3971 19.1727 22.0371 18.6727 22.0371H14.7627V14.2671C14.7627 13.5871 14.3527 13.1171 13.7027 13.1171C13.0527 13.1171 12.7027 13.5971 12.7027 14.2671V22.6471C12.7027 23.3171 13.0527 23.7871 13.7027 23.7871Z" /></svg>