
<svg
    viewBox={0 0 34.27711669769996 31.4453125}
    xmlns="http://www.w3.org/2000/svg"
>
    <path
        fill="inherit"
        d="M18.5409 -0.0026C11.7209 -0.0026 5.8909 4.3774 3.7509 10.4474C4.5109 10.3474 5.2909 10.5574 5.8709 11.0374C7.7909 5.8674 12.7209 2.1974 18.5409 2.1974C26.0309 2.1974 32.0809 8.2474 32.0809 15.7374C32.0809 23.2274 26.0309 29.2474 18.5409 29.2474C12.7409 29.2474 7.8109 25.6074 5.8809 20.4574C5.2909 20.9174 4.5409 21.1474 3.7509 21.0374C5.9209 27.1074 11.7309 31.4474 18.5409 31.4474C27.2209 31.4474 34.2809 24.4174 34.2809 15.7374C34.2809 7.0574 27.2209 -0.0026 18.5409 -0.0026ZM18.5409 26.6474C24.5709 26.6474 29.4609 21.7674 29.4609 15.7374C29.4609 9.6974 24.5709 4.8174 18.5409 4.8174C12.5109 4.8174 7.6309 9.6974 7.6309 15.7374C7.6309 21.7674 12.5109 26.6474 18.5409 26.6474ZM18.5409 24.4474C13.7109 24.4474 9.8309 20.5674 9.8309 15.7374C9.8309 10.8974 13.7109 7.0174 18.5409 7.0174C23.3809 7.0174 27.2609 10.8974 27.2609 15.7374C27.2609 20.5674 23.3809 24.4474 18.5409 24.4474ZM16.5309 20.9774H21.5109C22.0009 20.9774 22.4109 20.6274 22.4109 20.1074C22.4109 19.5874 22.0009 19.2274 21.5109 19.2274H17.6009V11.4574C17.6009 10.7774 17.1909 10.3074 16.5309 10.3074C15.8909 10.3074 15.5309 10.7874 15.5309 11.4574V19.8374C15.5309 20.5074 15.8909 20.9774 16.5309 20.9774ZM3.6609 12.5474L0.3809 14.9974C-0.1391 15.3774 -0.1191 16.0874 0.3809 16.4774L3.6809 18.9374C4.4009 19.4774 5.3709 19.1774 5.3709 18.2074V13.2774C5.3709 12.3274 4.4209 11.9874 3.6609 12.5474Z"
        fillRule="evenodd"
        clipRule="evenodd"
    />
</svg>
        