
<svg
    viewBox={0 0 28.19140625 31.048828125}
    xmlns="http://www.w3.org/2000/svg"
>
    <path
        fill="inherit"
        d="M10.6527 1.6652L13.3727 5.3352C13.7427 5.8352 14.4327 5.8352 14.8027 5.3352L17.5527 1.6652C18.1027 0.9452 17.8127 -0.0048 16.8327 -0.0048H11.3427C10.4227 -0.0048 10.0727 0.9152 10.6527 1.6652ZM14.0927 25.2552C22.6227 25.2552 28.1927 21.4752 28.1927 16.0252C28.1927 10.5852 22.6127 6.8052 14.0827 6.8052C5.5627 6.8052 0.0027 10.5852 0.0027 16.0252C0.0027 21.4752 5.5627 25.2552 14.0927 25.2552ZM14.0927 22.9052C7.1327 22.9052 2.4727 20.1152 2.4727 16.0252C2.4727 11.9352 7.1327 9.1552 14.0827 9.1552C21.0427 9.1552 25.7127 11.9352 25.7127 16.0252C25.7127 20.1152 21.0527 22.9052 14.0927 22.9052ZM12.1827 20.3052H16.3927C16.9227 20.3052 17.2927 19.9352 17.2927 19.4252C17.2927 18.8952 16.9227 18.5352 16.3927 18.5352H13.1927V12.3752C13.1927 11.6852 12.7927 11.2752 12.1827 11.2752C11.5827 11.2752 11.1727 11.7052 11.1727 12.3752V19.2052C11.1727 19.8652 11.5627 20.3052 12.1827 20.3052ZM14.0927 31.0452C17.4227 31.0452 19.3827 29.4952 19.3827 26.8652V26.3152C17.7627 26.6552 15.9927 26.8352 14.0927 26.8352C12.1927 26.8352 10.4327 26.6552 8.8227 26.3152V26.8652C8.8227 29.4952 10.7827 31.0452 14.0927 31.0452Z"
        fillRule="evenodd"
        clipRule="evenodd"
    />
</svg>
        