<svg viewBox="0 0 34.268622124069026 31.4453125" xmlns="http://www.w3.org/2000/svg"><path d="M15.7227 -0.0026C7.0527 -0.0026 0.0027 7.0574 0.0027 15.7374C0.0027 24.4174 7.0527 31.4474 15.7227 31.4474C22.5427 31.4474 28.3427 27.1074 30.5327 21.0374C29.7327 21.1474 28.9827 20.9174 28.3927 20.4574C26.4727 25.6074 21.5327 29.2474 15.7227 29.2474C8.2327 29.2474 2.2027 23.2274 2.2027 15.7374C2.2027 8.2474 8.2427 2.1974 15.7227 2.1974C21.5427 2.1974 26.4827 5.8674 28.4127 11.0374C28.9827 10.5574 29.7527 10.3474 30.5327 10.4474C28.3727 4.3774 22.5627 -0.0026 15.7227 -0.0026ZM15.7227 26.6474C21.7627 26.6474 26.6327 21.7674 26.6327 15.7374C26.6327 9.6974 21.7627 4.8174 15.7227 4.8174C9.7027 4.8174 4.8027 9.6974 4.8027 15.7374C4.8027 21.7674 9.7027 26.6474 15.7227 26.6474ZM15.7227 24.4474C10.8927 24.4474 7.0027 20.5674 7.0027 15.7374C7.0027 10.8974 10.8927 7.0174 15.7227 7.0174C20.5627 7.0174 24.4327 10.8974 24.4327 15.7374C24.4327 20.5674 20.5627 24.4474 15.7227 24.4474ZM13.7127 20.9774H18.6927C19.1827 20.9774 19.5927 20.6274 19.5927 20.1074C19.5927 19.5874 19.1827 19.2274 18.6927 19.2274H14.7827V11.4574C14.7827 10.7774 14.3727 10.3074 13.7127 10.3074C13.0727 10.3074 12.7127 10.7874 12.7127 11.4574V19.8374C12.7127 20.5074 13.0727 20.9774 13.7127 20.9774ZM30.5927 12.5474C29.8427 11.9874 28.9027 12.3274 28.9027 13.2774V18.2074C28.9027 19.1774 29.8627 19.4774 30.5827 18.9374L33.8827 16.4774C34.3827 16.0874 34.4127 15.3774 33.8827 14.9974Z" /></svg>