
<svg
    viewBox={0 0 28.19140625 24.240234375}
    xmlns="http://www.w3.org/2000/svg"
>
    <path
        fill="inherit"
        d="M14.0927 18.4466C22.6227 18.4466 28.1927 14.6666 28.1927 9.2166C28.1927 3.7766 22.6127 -0.0034 14.0827 -0.0034C5.5627 -0.0034 0.0027 3.7766 0.0027 9.2166C0.0027 14.6666 5.5627 18.4466 14.0927 18.4466ZM14.0927 16.0966C7.1327 16.0966 2.4727 13.3066 2.4727 9.2166C2.4727 5.1266 7.1327 2.3466 14.0827 2.3466C21.0427 2.3466 25.7127 5.1266 25.7127 9.2166C25.7127 13.3066 21.0527 16.0966 14.0927 16.0966ZM12.1827 13.4966H16.3927C16.9227 13.4966 17.2927 13.1266 17.2927 12.6166C17.2927 12.0866 16.9227 11.7266 16.3927 11.7266H13.1927V5.5666C13.1927 4.8766 12.7927 4.4666 12.1827 4.4666C11.5827 4.4666 11.1727 4.8966 11.1727 5.5666V12.3966C11.1727 13.0566 11.5627 13.4966 12.1827 13.4966ZM14.0927 24.2366C17.4227 24.2366 19.3827 22.6866 19.3827 20.0566V19.5066C17.7627 19.8466 15.9927 20.0266 14.0927 20.0266C12.1927 20.0266 10.4327 19.8466 8.8227 19.5066V20.0566C8.8227 22.6866 10.7827 24.2366 14.0927 24.2366Z"
        fillRule="evenodd"
        clipRule="evenodd"
    />
</svg>
        