
<svg
    viewBox={0 0 27.890625 27.890625}
    xmlns="http://www.w3.org/2000/svg"
>
    <path
        fill="inherit"
        d="M13.9427 27.8864C21.6427 27.8864 27.8927 21.6264 27.8927 13.9464C27.8927 6.2464 21.6427 -0.0036 13.9427 -0.0036C6.2627 -0.0036 0.0027 6.2464 0.0027 13.9464C0.0027 21.6264 6.2627 27.8864 13.9427 27.8864ZM17.9827 19.5064C17.4327 19.5064 16.9927 19.0764 16.9927 18.5164V10.4064L15.7627 11.3864C15.6227 11.4964 15.4927 11.5564 15.2827 11.5564C14.8727 11.5564 14.6027 11.2664 14.6027 10.8464C14.6027 10.4964 14.7827 10.2264 15.0227 10.0664L16.4927 8.8964C16.8027 8.6664 17.2627 8.3564 17.8127 8.3564C18.5227 8.3564 18.9627 8.7664 18.9627 9.4564V18.5164C18.9627 19.0764 18.5127 19.5064 17.9827 19.5064ZM9.7327 19.3864C9.1027 19.3864 8.7627 18.9864 8.7627 18.3564V9.3564C8.7627 8.8164 9.2127 8.3764 9.7527 8.3764C10.2827 8.3764 10.7227 8.8164 10.7227 9.3564V17.7364H13.5727C14.0227 17.7364 14.3927 18.1064 14.3927 18.5664C14.3927 19.0064 14.0227 19.3864 13.5727 19.3864Z"
        fillRule="evenodd"
        clipRule="evenodd"
    />
</svg>
        