<svg viewBox="0 0 27.890625 27.890625" xmlns="http://www.w3.org/2000/svg"><path d="M13.9427 27.8864C21.6427 27.8864 27.8927 21.6464 27.8927 13.9464C27.8927 6.2464 21.6427 -0.0036 13.9427 -0.0036C6.2527 -0.0036 0.0027 6.2464 0.0027 13.9464C0.0027 21.6464 6.2527 27.8864 13.9427 27.8864ZM13.9427 25.5664C7.5227 25.5664 2.3227 20.3664 2.3227 13.9464C2.3227 7.5164 7.5227 2.3264 13.9427 2.3264C20.3727 2.3264 25.5627 7.5164 25.5627 13.9464C25.5627 20.3664 20.3727 25.5664 13.9427 25.5664ZM18.0427 19.6164C18.5927 19.6164 19.0427 19.1664 19.0427 18.6164V9.3564C19.0427 8.6564 18.6027 8.2464 17.8927 8.2464C17.3227 8.2464 16.8527 8.5564 16.5327 8.8064L15.0227 9.9664C14.7927 10.1564 14.6027 10.4164 14.6027 10.7764C14.6027 11.1964 14.8927 11.4964 15.3027 11.4964C15.5127 11.4964 15.6527 11.4264 15.7927 11.3364L17.0527 10.3264V18.6164C17.0527 19.1664 17.5027 19.6164 18.0427 19.6164ZM9.6427 19.4864H13.5627C14.0127 19.4864 14.3927 19.1164 14.3927 18.6464C14.3927 18.1964 14.0127 17.8264 13.5627 17.8264H10.6327V9.2464C10.6327 8.7064 10.1827 8.2564 9.6527 8.2564C9.1227 8.2564 8.6527 8.7064 8.6527 9.2464V18.4564C8.6527 19.0964 9.0127 19.4864 9.6427 19.4864Z" /></svg>