
<svg
    viewBox={0 0 31.541015625 23.84375}
    xmlns="http://www.w3.org/2000/svg"
>
    <path
        fill="inherit"
        d="M11.4737 0.003C3.5437 0.003 0.0037 3.653 0.0037 11.113V19.683C0.0037 22.453 1.4237 23.843 4.1937 23.843H27.3437C30.1237 23.843 31.5437 22.433 31.5437 19.683V11.113C31.5437 3.653 28.0037 0.003 20.0737 0.003ZM11.4737 2.203H20.0537C26.5237 2.203 29.3437 5.003 29.3437 10.963V19.583C29.3437 20.943 28.6037 21.643 27.2937 21.643H4.2537C2.9137 21.643 2.2037 20.943 2.2037 19.583V10.963C2.2037 5.003 5.0137 2.203 11.4737 2.203ZM17.2237 17.463H21.9737C22.4537 17.463 22.7537 17.133 22.7537 16.653C22.7537 16.143 22.4337 15.843 21.9737 15.843H18.7337V15.733L20.7137 13.203C22.0937 11.513 22.5337 10.513 22.5337 9.313C22.5337 7.453 21.2837 6.113 19.4037 6.113C17.6537 6.113 16.3237 7.563 16.3237 8.993C16.3237 9.493 16.6137 9.843 17.1437 9.843C17.5937 9.843 17.8737 9.643 18.0037 9.203C18.2637 8.283 18.6037 7.693 19.3837 7.693C20.2037 7.693 20.6737 8.433 20.6737 9.393C20.6737 10.483 19.9037 11.593 19.1837 12.523L16.8137 15.573C16.5537 15.883 16.2937 16.233 16.2937 16.653C16.2937 17.113 16.5937 17.463 17.2237 17.463ZM10.4437 17.473H14.3837C14.8337 17.473 15.2037 17.093 15.2037 16.643C15.2037 16.183 14.8337 15.803 14.3837 15.803H11.4537V7.233C11.4537 6.683 11.0037 6.233 10.4637 6.233C9.9237 6.233 9.4737 6.683 9.4737 7.233V16.433C9.4737 17.073 9.8137 17.473 10.4437 17.473Z"
        fillRule="evenodd"
        clipRule="evenodd"
    />
</svg>
        