
<svg
    viewBox="0 0 24.322265625 29.3671875"
    xmlns="http://www.w3.org/2000/svg"
>
    <path
        fill="inherit"
        d="M8.1337 29.3647H20.1537C22.7537 29.3647 24.3037 27.8347 24.3037 25.2647L24.3237 4.1447C24.3237 1.6647 22.6537 0.0047 20.1937 0.0047H15.9937C13.8537 0.0047 12.0537 0.5647 10.3737 2.1047L1.7337 10.0447C0.5737 11.1147 0.0037 12.6147 0.0037 14.4947V21.2347C0.0037 26.1847 3.1837 29.3647 8.1337 29.3647ZM8.1937 27.1647C4.3637 27.1647 2.2037 25.0147 2.2037 21.1947V14.5147C2.2037 13.1547 2.5137 12.3147 3.2637 11.6347L11.8937 3.7147C13.1137 2.6147 14.3537 2.2047 16.0537 2.2047H20.1537C21.3437 2.2047 22.1237 2.9947 22.1237 4.1747L22.1037 25.2247C22.1037 26.6747 21.5337 27.1647 20.1137 27.1647ZM13.7037 22.5747H18.0737C18.5137 22.5747 18.7837 22.2747 18.7837 21.8347C18.7837 21.3547 18.4937 21.0947 18.0737 21.0947H15.0837V20.9847L16.9137 18.6647C18.1837 17.0947 18.5937 16.1747 18.5937 15.0547C18.5937 13.3547 17.4337 12.1147 15.6937 12.1147C14.0837 12.1147 12.8637 13.4547 12.8637 14.7647C12.8637 15.2347 13.1437 15.5547 13.6137 15.5547C14.0237 15.5547 14.2837 15.3647 14.4237 14.9547C14.6537 14.1047 14.9737 13.5747 15.6837 13.5747C16.4437 13.5747 16.8737 14.2647 16.8737 15.1347C16.8737 16.1447 16.1737 17.1747 15.5037 18.0147L13.3137 20.8347C13.0837 21.1247 12.8537 21.4347 12.8537 21.8347C12.8537 22.2547 13.1237 22.5747 13.7037 22.5747ZM7.4537 22.5847H11.0737C11.4837 22.5847 11.8437 22.2347 11.8437 21.8247C11.8437 21.3947 11.4837 21.0547 11.0737 21.0547H8.3637V13.1347C8.3637 12.6447 7.9537 12.2347 7.4637 12.2347C6.9637 12.2347 6.5537 12.6447 6.5537 13.1347V21.6247C6.5537 22.2147 6.8737 22.5847 7.4537 22.5847Z"
        fillRule="evenodd"
        clipRule="evenodd"
    />
</svg>
        