
<svg
    viewBox="0 0 24.322265625 29.3671875"
    xmlns="http://www.w3.org/2000/svg"
>
    <path
        fill="inherit"
        d="M8.1337 29.3647H20.1537C22.7537 29.3647 24.3037 27.8347 24.3037 25.2647L24.3237 4.1447C24.3237 1.6647 22.6537 0.0047 20.1937 0.0047H15.9937C13.8537 0.0047 12.0537 0.5647 10.3737 2.1047L1.7337 10.0447C0.5737 11.1147 0.0037 12.6147 0.0037 14.4947V21.2347C0.0037 26.1847 3.1837 29.3647 8.1337 29.3647ZM13.8237 23.1747C13.1837 23.1747 12.8637 22.8147 12.8637 22.3547C12.8637 21.9147 13.1237 21.5647 13.3937 21.2147L15.8437 18.1047C16.5837 17.1447 17.3637 15.9947 17.3637 14.8747C17.3637 13.8647 16.8937 13.1147 16.0537 13.1147C15.2437 13.1147 14.9037 13.7147 14.6337 14.6547C14.4737 15.1247 14.2037 15.3447 13.7437 15.3447C13.1937 15.3447 12.8837 14.9747 12.8837 14.4547C12.8837 12.9747 14.2637 11.4847 16.0637 11.4847C18.0037 11.4847 19.3037 12.8647 19.3037 14.7647C19.3037 16.0147 18.8437 17.0447 17.4337 18.8147L15.3837 21.3947V21.5147H18.7137C19.2137 21.5147 19.5237 21.8247 19.5237 22.3547C19.5237 22.8447 19.2237 23.1747 18.7137 23.1747ZM6.8237 23.1847C6.1837 23.1847 5.8137 22.7947 5.8137 22.1247V12.6347C5.8137 12.0747 6.2737 11.6047 6.8337 11.6047C7.3937 11.6047 7.8737 12.0747 7.8737 12.6347V21.4747H10.8837C11.3437 21.4747 11.7437 21.8647 11.7437 22.3247C11.7437 22.8047 11.3437 23.1847 10.8837 23.1847Z"
        fillRule="evenodd"
        clipRule="evenodd"
    />
</svg>
        