
<svg
    viewBox={0 0 27.890625 27.890625}
    xmlns="http://www.w3.org/2000/svg"
>
    <path
        fill="inherit"
        d="M13.9427 27.8864C21.6427 27.8864 27.8927 21.6464 27.8927 13.9464C27.8927 6.2464 21.6427 -0.0036 13.9427 -0.0036C6.2527 -0.0036 0.0027 6.2464 0.0027 13.9464C0.0027 21.6464 6.2527 27.8864 13.9427 27.8864ZM13.9427 25.5664C7.5227 25.5664 2.3227 20.3664 2.3227 13.9464C2.3227 7.5164 7.5227 2.3264 13.9427 2.3264C20.3727 2.3264 25.5627 7.5164 25.5627 13.9464C25.5627 20.3664 20.3727 25.5664 13.9427 25.5664ZM15.3827 19.4664H20.1227C20.6027 19.4664 20.9027 19.1564 20.9027 18.6764C20.9027 18.1564 20.5927 17.8664 20.1227 17.8664H16.8827V17.7564L18.8627 15.2264C20.2527 13.5364 20.7027 12.5264 20.7027 11.3164C20.7027 9.4764 19.4427 8.1364 17.5527 8.1364C15.8027 8.1364 14.4827 9.5864 14.4827 11.0064C14.4827 11.5164 14.7627 11.8664 15.3027 11.8664C15.7527 11.8664 16.0227 11.6664 16.1627 11.2064C16.4227 10.2964 16.7627 9.7164 17.5427 9.7164C18.3627 9.7164 18.8227 10.4464 18.8227 11.4164C18.8227 12.5064 18.0627 13.6164 17.3327 14.5464L14.9727 17.5864C14.7127 17.9064 14.4527 18.2564 14.4527 18.6764C14.4527 19.1364 14.7527 19.4664 15.3827 19.4664ZM8.6027 19.4864H12.5327C12.9927 19.4864 13.3527 19.1164 13.3527 18.6464C13.3527 18.1964 12.9927 17.8264 12.5327 17.8264H9.6127V9.2464C9.6127 8.7064 9.1627 8.2564 8.6127 8.2564C8.0827 8.2564 7.6327 8.7064 7.6327 9.2464V18.4564C7.6327 19.0964 7.9727 19.4864 8.6027 19.4864Z"
        fillRule="evenodd"
        clipRule="evenodd"
    />
</svg>
        