
<svg
    viewBox={0 0 35.3828125 23.450325451140163}
    xmlns="http://www.w3.org/2000/svg"
>
    <path
        fill="inherit"
        d="M35.3837 12.7037V4.1337C35.3837 1.6637 33.7237 0.0037 31.2537 0.0037L4.1037 0.0137C1.6537 0.0137 0.0037 1.6937 0.0037 4.1737V12.7037C0.0037 16.2437 1.5137 18.4137 5.1637 19.4937L17.0037 22.9437C20.1837 23.8737 22.2137 23.5037 25.0437 22.0437L32.7337 18.0837C34.9037 16.9637 35.3837 15.6237 35.3837 12.7037ZM33.1837 12.7037C33.1837 14.7237 32.8037 15.6137 31.3337 16.3537L23.8737 20.1637C21.5237 21.3537 19.8537 21.6037 17.0037 20.7537L5.8137 17.4337C3.2437 16.6837 2.2037 15.1937 2.2037 12.7037V4.2137C2.2037 3.0037 2.9637 2.2137 4.1437 2.2137L31.2237 2.2037C32.4037 2.2037 33.1837 2.9837 33.1837 4.1737ZM21.0837 16.1637C23.0337 16.1637 24.5537 14.9337 24.5537 12.8837C24.5537 11.1837 23.5337 10.3537 22.3837 10.2237V10.1737C23.6137 9.8437 24.2237 8.7537 24.2237 7.6037C24.2237 5.7137 22.8037 4.6337 21.0237 4.6337C19.6237 4.6337 18.3937 5.4237 18.0037 6.6437C17.9237 6.9037 17.8937 7.1537 17.8937 7.3837C17.8937 7.8237 18.1937 8.1937 18.7337 8.1937C19.2137 8.1937 19.4737 7.9937 19.6037 7.5337C19.8237 6.7237 20.2637 6.2037 21.0237 6.2037C21.9337 6.2037 22.3537 6.9137 22.3537 7.8237C22.3537 8.8137 21.8037 9.5437 20.7837 9.5437H20.4537C19.9837 9.5437 19.7037 9.8337 19.7037 10.2637C19.7037 10.7237 20.0037 10.9937 20.4537 10.9937H20.7937C21.9537 10.9937 22.6037 11.6237 22.6037 12.8237C22.6037 13.7637 22.0937 14.5637 21.0837 14.5637C20.0837 14.5637 19.6437 13.8937 19.4737 13.2737C19.3437 12.8337 19.0437 12.6037 18.6037 12.6037C18.0737 12.6037 17.7237 12.9237 17.7237 13.4637C17.7237 13.7137 17.7637 13.9637 17.8237 14.1737C18.2237 15.4537 19.6037 16.1637 21.0837 16.1637ZM11.8237 15.9237H15.7537C16.2037 15.9237 16.5837 15.5437 16.5837 15.0937C16.5837 14.6437 16.2037 14.2637 15.7537 14.2637H12.8237V5.6837C12.8237 5.1537 12.3737 4.7037 11.8437 4.7037C11.2937 4.7037 10.8437 5.1537 10.8437 5.6837V14.8837C10.8437 15.5337 11.1937 15.9237 11.8237 15.9237Z"
        fillRule="evenodd"
        clipRule="evenodd"
    />
</svg>
        