
<svg
    viewBox="0 0 35.3828125 23.450325451140163"
    xmlns="http://www.w3.org/2000/svg"
>
    <path
        fill="inherit"
        d="M35.3837 12.7037V4.1337C35.3837 1.6637 33.7237 0.0037 31.2537 0.0037L4.1037 0.0137C1.6537 0.0137 0.0037 1.6937 0.0037 4.1737V12.7037C0.0037 16.2437 1.5137 18.4137 5.1637 19.4937L17.0037 22.9437C20.1837 23.8737 22.2137 23.5037 25.0437 22.0437L32.7337 18.0837C34.9037 16.9637 35.3837 15.6237 35.3837 12.7037ZM21.1937 16.6137C19.6737 16.6137 18.2337 15.8837 17.8237 14.5737C17.7637 14.3437 17.7237 14.0937 17.7237 13.8337C17.7237 13.2737 18.0837 12.9437 18.6337 12.9437C19.0837 12.9437 19.4037 13.1837 19.5337 13.6437C19.7137 14.2737 20.1637 14.9537 21.1937 14.9537C22.2337 14.9537 22.7537 14.1337 22.7537 13.1637C22.7537 11.9337 22.0937 11.2937 20.8937 11.2937H20.5537C20.0737 11.2937 19.7737 11.0037 19.7737 10.5437C19.7737 10.0737 20.0537 9.7937 20.5537 9.7937H20.8737C21.9337 9.7937 22.5037 9.0337 22.5037 8.0137C22.5037 7.0837 22.0637 6.3537 21.1337 6.3537C20.3437 6.3537 19.8937 6.8937 19.6737 7.7237C19.5337 8.2037 19.2637 8.3937 18.7737 8.3937C18.2137 8.3937 17.8937 8.0137 17.8937 7.5637C17.8937 7.3137 17.9237 7.0637 18.0237 6.7937C18.4037 5.5537 19.6837 4.7337 21.1337 4.7337C22.9737 4.7337 24.4337 5.8337 24.4337 7.7937C24.4337 8.9737 23.8037 10.1037 22.5337 10.4437V10.5037C23.7237 10.6237 24.7737 11.4837 24.7737 13.2337C24.7737 15.3437 23.2137 16.6137 21.1937 16.6137ZM11.6337 16.3837C10.9937 16.3837 10.6237 15.9737 10.6237 15.3037V5.8237C10.6237 5.2637 11.0837 4.8037 11.6437 4.8037C12.2137 4.8037 12.6737 5.2637 12.6737 5.8237V14.6437H15.6837C16.1437 14.6437 16.5437 15.0437 16.5437 15.5037C16.5437 15.9837 16.1437 16.3837 15.6837 16.3837Z"
        fillRule="evenodd"
        clipRule="evenodd"
    />
</svg>
        