
<svg
    viewBox="0 0 32.23828125 24.541015625"
    xmlns="http://www.w3.org/2000/svg"
>
    <path
        fill="inherit"
        d="M10.7737 24.5384H21.4637C29.3937 24.5384 32.2337 21.5984 32.2337 14.2884V10.2684C32.2337 2.9484 29.3937 -0.0016 21.4637 -0.0016H10.7737C2.8437 -0.0016 0.0037 2.9484 0.0037 10.2684V14.2884C0.0037 21.5984 2.8437 24.5384 10.7737 24.5384ZM21.1937 17.9784C20.7537 17.9784 20.2437 17.7284 20.2437 17.0084V15.6384H17.1837C16.5137 15.6384 16.0637 15.1884 16.0637 14.5284C16.0637 14.1084 16.1437 13.7584 16.3837 13.2184L18.8137 7.9184C19.1937 7.0684 19.6437 6.5784 20.6137 6.5784C21.5037 6.5784 22.1237 7.1084 22.1237 8.0484V14.0584H22.6137C23.1637 14.0584 23.3937 14.3984 23.3937 14.8384C23.3937 15.2984 23.1437 15.6384 22.6137 15.6384H22.1237V17.0084C22.1237 17.6684 21.7137 17.9784 21.1937 17.9784ZM10.3337 17.8184C9.7237 17.8184 9.3637 17.4284 9.3637 16.7884V7.5784C9.3637 7.0384 9.8137 6.5884 10.3537 6.5884C10.8937 6.5884 11.3437 7.0384 11.3437 7.5784V16.1584H14.2737C14.7237 16.1584 15.1037 16.5284 15.1037 16.9784C15.1037 17.4484 14.7237 17.8184 14.2737 17.8184ZM20.2937 14.0984V8.2984H20.2337L17.7437 13.9984V14.0984Z"
        fillRule="evenodd"
        clipRule="evenodd"
    />
</svg>
        