
<svg
    viewBox={0 0 27.890625 27.890625}
    xmlns="http://www.w3.org/2000/svg"
>
    <path
        fill="inherit"
        d="M13.9427 27.8927C21.6427 27.8927 27.8927 21.6427 27.8927 13.9427C27.8927 6.2627 21.6427 0.0027 13.9427 0.0027C6.2627 0.0027 0.0027 6.2627 0.0027 13.9427C0.0027 21.6427 6.2627 27.8927 13.9427 27.8927ZM13.9427 5.9227C14.4227 5.9227 14.8927 5.9727 15.3127 6.0727L15.3027 6.0027C15.2727 5.3827 15.6727 4.9327 16.3227 4.7127L16.9427 4.4727C17.7227 4.2127 18.1027 5.3827 17.3327 5.5827L16.8027 5.7727C16.4727 5.8527 16.3827 6.0427 16.4227 6.3027L16.4427 6.5127C17.4627 7.0727 18.0227 7.9527 18.0227 8.9427C18.0227 9.3627 17.8727 9.6827 17.3727 9.9027C16.5327 10.2927 15.2627 10.5227 13.9427 10.5227C13.5527 10.5227 13.1227 10.4827 12.7527 10.4627L10.1427 7.8427C10.3927 7.3127 10.8427 6.8527 11.4427 6.5127L11.4727 6.3027C11.5227 6.0427 11.4127 5.8527 11.0927 5.7727L10.5527 5.5827C9.7927 5.3827 10.1727 4.2127 10.9527 4.4727L11.5627 4.7127C12.2227 4.9527 12.6227 5.4027 12.5927 6.0027V6.0727C13.0127 5.9727 13.4627 5.9227 13.9427 5.9227ZM20.3327 21.2327L6.6727 7.5927C6.4427 7.3527 6.4427 6.9427 6.6727 6.6827C6.9427 6.4427 7.3427 6.4427 7.5927 6.6827L21.2327 20.3327C21.4827 20.5727 21.4827 20.9727 21.2327 21.2327C20.9827 21.4827 20.5627 21.4627 20.3327 21.2327ZM22.0127 14.6827C22.4127 14.6827 22.6527 14.9327 22.6527 15.2727C22.6527 15.6227 22.4127 15.8827 22.0127 15.8827H20.6727C20.6627 16.6427 20.5527 17.3727 20.3427 18.0327L17.6927 15.3827C18.1127 15.2027 18.4127 14.7627 18.4127 14.2827C18.4127 13.6427 17.8727 13.0827 17.2227 13.0827C16.7327 13.0827 16.3127 13.4027 16.1427 13.8227L13.7027 11.4027C13.9427 11.4127 14.1827 11.4127 14.4227 11.4027C15.7227 11.3327 16.9827 11.0427 18.0027 10.5827C18.2627 10.4727 18.5427 10.4827 18.9627 10.8427L20.1427 9.8427C20.4527 9.5827 20.8227 9.5527 21.0527 9.8427C21.3027 10.1427 21.2227 10.5227 20.9227 10.7727L19.7327 11.7827C20.1627 12.6027 20.4827 13.6427 20.6027 14.6727ZM5.8927 15.8827C5.4827 15.8827 5.2527 15.6427 5.2527 15.2827C5.2527 14.9127 5.4827 14.6827 5.8927 14.6827H7.2827C7.4227 13.6427 7.7227 12.5927 8.1727 11.7827L6.9827 10.7727C6.7027 10.5227 6.6027 10.1627 6.8327 9.8527C6.9427 9.7027 7.0927 9.6527 7.2427 9.6627L8.7227 11.0927L8.7527 11.0727L13.4527 15.7727V21.9827C13.4527 22.3827 13.1827 22.5627 12.6627 22.5127C11.0427 22.3227 9.7327 21.5627 8.7927 20.4127L7.7427 21.2827C7.4327 21.5427 7.0527 21.5727 6.8127 21.2627C6.5727 21.0027 6.6627 20.6127 6.9627 20.3727L8.0927 19.4027C7.5627 18.4027 7.2427 17.2127 7.2227 15.8827ZM14.4327 16.7627L18.6227 20.9327C17.7227 21.7927 16.5727 22.3527 15.2327 22.5127C14.7127 22.5627 14.4327 22.3827 14.4327 21.9827ZM9.4727 18.2127C9.4727 18.9327 10.0627 19.5327 10.8027 19.5327C11.5027 19.5327 12.1227 18.9327 12.1227 18.2127C12.1227 17.4827 11.5027 16.8827 10.8027 16.8827C10.0627 16.8827 9.4727 17.4827 9.4727 18.2127Z"
        fillRule="evenodd"
        clipRule="evenodd"
    />
</svg>
        