
<svg
    viewBox="0 0 30.994140625 32.9305261857005"
    xmlns="http://www.w3.org/2000/svg"
>
    <path
        fill="inherit"
        d="M15.4937 12.1833C17.9137 12.1833 20.3037 11.7233 21.8637 11.0233C23.5537 12.7833 25.3637 15.8933 25.3637 19.7733C25.3637 21.0033 25.1937 22.1533 24.8837 23.1933L26.6037 24.9133C27.1637 23.4533 27.4837 21.8233 27.5037 20.0133L29.8637 20.0333C30.5437 20.0333 30.9937 19.6033 30.9937 18.9833C30.9937 18.3633 30.5437 17.9433 29.8737 17.9433L27.3837 17.9233C27.1537 16.1233 26.5737 14.3333 25.7437 12.7333L27.9037 10.9133C28.3937 10.5033 28.5637 9.8333 28.1537 9.3433C27.7237 8.8333 27.0737 8.8933 26.5637 9.3133L24.6237 10.9533C24.0737 10.2033 23.4637 9.5133 22.7937 8.9333C22.7737 6.6833 21.7537 4.9633 20.0137 3.9433L19.8837 3.3233C19.7737 2.8333 20.0037 2.5133 20.5937 2.3133L21.5237 1.9733C22.8337 1.5833 22.1937 -0.3967 20.8337 0.0733L19.7537 0.5033C18.4737 0.9733 17.8437 1.8933 17.9237 3.1233C17.1837 2.9433 16.3637 2.8633 15.4937 2.8633C14.6337 2.8633 13.8037 2.9433 13.0737 3.1233C13.1537 1.8933 12.5237 0.9733 11.2337 0.5033L10.1537 0.0733C8.8037 -0.3967 8.1637 1.5833 9.4737 1.9733L10.4037 2.3133C10.9937 2.5133 11.2237 2.8333 11.1137 3.3233L10.9637 3.9533C9.8137 4.6533 8.9837 5.6433 8.5537 6.8933L13.7437 12.0633C14.3037 12.1433 14.9037 12.1833 15.4937 12.1833ZM0.4137 4.0233L29.0837 32.6233C29.4937 33.0333 30.1637 33.0333 30.5737 32.6233C30.9637 32.2033 30.9837 31.5433 30.5737 31.1333L1.9137 2.5333C1.5037 2.1233 0.8237 2.1033 0.4137 2.5333C0.0137 2.9233 0.0137 3.6133 0.4137 4.0233ZM15.4937 32.1133C18.7337 32.1133 21.4637 31.1233 23.5137 29.3433L21.9437 27.7933C20.4637 29.0433 18.5637 29.8033 16.3337 29.9533V22.1733L14.5437 20.4033V29.9533C9.1637 29.5333 5.6237 25.5633 5.6237 19.7733C5.6237 17.2733 6.3837 15.0233 7.3937 13.3433L3.1137 9.1933C3.0337 9.2033 2.9237 9.2433 2.8437 9.3433C2.4337 9.8333 2.5837 10.5033 3.0937 10.9133L5.2637 12.7333C4.4037 14.3133 3.8437 16.1033 3.6137 17.9233L1.1237 17.9433C0.4337 17.9433 0.0037 18.3633 0.0037 18.9833C0.0037 19.6033 0.4337 20.0333 1.1337 20.0333L3.4837 20.0133C3.5237 22.4333 4.0737 24.5833 5.0537 26.3733L3.0337 28.0733C2.5437 28.4833 2.3937 29.1333 2.8037 29.6433C3.2237 30.1533 3.8737 30.0933 4.3937 29.6733L6.2337 28.1133C8.3437 30.6533 11.5637 32.1133 15.4937 32.1133ZM19.8637 16.9733C20.8037 16.9733 21.5737 16.1733 21.5737 15.2333C21.5737 14.2933 20.8037 13.5133 19.8637 13.5133C18.9037 13.5133 18.1437 14.2933 18.1437 15.2333C18.1437 16.1733 18.9037 16.9733 19.8637 16.9733ZM9.5037 22.3833C10.5937 22.3833 11.4937 21.4833 11.4937 20.3733C11.4937 19.2633 10.5937 18.3633 9.5037 18.3633C8.3837 18.3633 7.4737 19.2633 7.4737 20.3733C7.4737 21.4833 8.3837 22.3833 9.5037 22.3833ZM23.5137 20.3733C23.5137 19.2633 22.6037 18.3633 21.4937 18.3633C21.0837 18.3633 20.7137 18.5233 20.4537 18.7733L23.1037 21.4433C23.3537 21.1533 23.5137 20.7833 23.5137 20.3733ZM11.1337 27.0633C12.0137 27.0633 12.7237 26.3433 12.7237 25.4733C12.7237 24.5833 12.0137 23.8733 11.1337 23.8733C10.2537 23.8733 9.5437 24.5833 9.5437 25.4733C9.5437 26.3433 10.2537 27.0633 11.1337 27.0633Z"
        fillRule="evenodd"
        clipRule="evenodd"
    />
</svg>
        