
<svg
    viewBox={0 0 27.890625 27.890625}
    xmlns="http://www.w3.org/2000/svg"
>
    <path
        fill="inherit"
        d="M13.9427 27.8927C21.6427 27.8927 27.8927 21.6427 27.8927 13.9427C27.8927 6.2627 21.6427 0.0027 13.9427 0.0027C6.2627 0.0027 0.0027 6.2627 0.0027 13.9427C0.0027 21.6427 6.2627 27.8927 13.9427 27.8927ZM13.9427 10.5027C12.6327 10.5027 11.3627 10.2627 10.5127 9.8827C10.0227 9.6527 9.8727 9.3527 9.8727 8.9227C9.8727 7.9427 10.4327 7.0527 11.4427 6.4927L11.4727 6.2927C11.5127 6.0327 11.4027 5.8427 11.0927 5.7427L10.5427 5.5627C9.7927 5.3627 10.1727 4.1727 10.9527 4.4527L11.5627 4.7027C12.2227 4.9327 12.6227 5.3827 12.5927 5.9927L12.5827 6.0527C13.0027 5.9427 13.4527 5.8927 13.9427 5.8927C14.4227 5.8927 14.8727 5.9427 15.3027 6.0527V5.9927C15.2727 5.3727 15.6727 4.9327 16.3127 4.7027L16.9427 4.4527C17.7227 4.1727 18.1027 5.3627 17.3327 5.5627L16.8027 5.7427C16.4727 5.8427 16.3627 6.0327 16.4227 6.2927L16.4427 6.4927C17.4427 7.0527 18.0027 7.9427 18.0027 8.9227C18.0027 9.3527 17.8527 9.6527 17.3627 9.8827C16.5127 10.2627 15.2427 10.5027 13.9427 10.5027ZM13.9427 12.7527C13.6627 12.7527 13.4427 12.9627 13.4427 13.2327V21.9727C13.4427 22.3627 13.1827 22.5427 12.6627 22.5027C11.0427 22.3027 9.7327 21.5427 8.7727 20.4027L7.7427 21.2727C7.4327 21.5327 7.0427 21.5627 6.8127 21.2427C6.5727 20.9827 6.6627 20.6027 6.9627 20.3427L8.0927 19.3827C7.5627 18.3927 7.2427 17.1827 7.2227 15.8727H5.8827C5.4827 15.8727 5.2527 15.6227 5.2527 15.2727C5.2527 14.9027 5.4827 14.6727 5.8827 14.6727L7.2827 14.6527C7.4227 13.6327 7.7227 12.5827 8.1727 11.7727L6.9827 10.7627C6.6827 10.5227 6.6027 10.1327 6.8227 9.8427C7.0727 9.5427 7.4527 9.5827 7.7627 9.8327L8.9327 10.8127C9.3527 10.4627 9.6427 10.4427 9.8827 10.5727C11.0327 11.0727 12.4827 11.3927 13.9427 11.3927C15.4127 11.3927 16.8527 11.0727 17.9927 10.5727C18.2427 10.4627 18.5427 10.4627 18.9627 10.8127L20.1227 9.8327C20.4427 9.5827 20.8127 9.5427 21.0527 9.8427C21.2827 10.1327 21.1927 10.5227 20.9027 10.7627L19.7127 11.7727C20.1527 12.5827 20.4627 13.6327 20.5927 14.6527L22.0027 14.6727C22.4127 14.6727 22.6427 14.9027 22.6427 15.2727C22.6427 15.6227 22.4127 15.8727 22.0027 15.8727H20.6727C20.6427 17.1827 20.3327 18.3927 19.7827 19.3827L20.9327 20.3427C21.2327 20.6027 21.3127 20.9827 21.0827 21.2427C20.8327 21.5627 20.4527 21.5327 20.1527 21.2727L19.1027 20.4027C18.1527 21.5427 16.8327 22.3027 15.2327 22.5027C14.7127 22.5427 14.4327 22.3627 14.4327 21.9727V13.2327C14.4327 12.9627 14.2227 12.7527 13.9427 12.7527ZM9.4427 14.2427C9.4427 14.8727 9.9827 15.4227 10.6227 15.4227C11.2527 15.4227 11.7727 14.8727 11.7727 14.2427C11.7727 13.6127 11.2527 13.0827 10.6227 13.0827C9.9827 13.0827 9.4427 13.6127 9.4427 14.2427ZM18.4427 14.2427C18.4427 13.6127 17.9127 13.0827 17.2627 13.0827C16.6427 13.0827 16.1027 13.6127 16.1027 14.2427C16.1027 14.8727 16.6427 15.4227 17.2627 15.4227C17.9127 15.4227 18.4427 14.8727 18.4427 14.2427ZM9.4627 18.1927C9.4627 18.9227 10.0627 19.5127 10.7827 19.5127C11.5027 19.5127 12.1227 18.9227 12.1227 18.1927C12.1227 17.4727 11.5027 16.8727 10.7827 16.8727C10.0627 16.8727 9.4627 17.4727 9.4627 18.1927ZM18.4127 18.1927C18.4127 17.4727 17.8327 16.8727 17.0927 16.8727C16.3927 16.8727 15.7627 17.4727 15.7627 18.1927C15.7627 18.9227 16.3927 19.5127 17.0927 19.5127C17.8327 19.5127 18.4127 18.9227 18.4127 18.1927Z"
        fillRule="evenodd"
        clipRule="evenodd"
    />
</svg>
        