
<svg
    viewBox={0 0 30.994140625 32.1170496232005}
    xmlns="http://www.w3.org/2000/svg"
>
    <path
        fill="inherit"
        d="M15.4937 32.1133C19.4237 32.1133 22.6537 30.6533 24.7637 28.1133L26.6037 29.6733C27.1137 30.0933 27.7637 30.1533 28.1937 29.6433C28.6037 29.1333 28.4537 28.4833 27.9437 28.0733L25.9337 26.3733C26.9237 24.5833 27.4637 22.4333 27.5037 20.0133L29.8637 20.0333C30.5437 20.0333 30.9937 19.6033 30.9937 18.9833C30.9937 18.3633 30.5437 17.9433 29.8737 17.9433L27.3837 17.9233C27.1537 16.1233 26.5737 14.3333 25.7437 12.7333L27.9037 10.9133C28.3937 10.5033 28.5637 9.8333 28.1537 9.3433C27.7237 8.8333 27.0737 8.8933 26.5637 9.3133L24.6237 10.9533C24.0737 10.2033 23.4637 9.5133 22.7937 8.9333C22.7737 6.6833 21.7537 4.9633 20.0137 3.9433L19.8837 3.3233C19.7737 2.8333 20.0037 2.5133 20.5937 2.3133L21.5237 1.9733C22.8337 1.5833 22.1937 -0.3967 20.8337 0.0733L19.7537 0.5033C18.4737 0.9733 17.8437 1.8933 17.9237 3.1233C17.1837 2.9433 16.3637 2.8633 15.4937 2.8633C14.6337 2.8633 13.8037 2.9433 13.0737 3.1233C13.1537 1.8933 12.5237 0.9733 11.2337 0.5033L10.1537 0.0733C8.8037 -0.3967 8.1637 1.5833 9.4737 1.9733L10.4037 2.3133C10.9937 2.5133 11.2237 2.8333 11.1137 3.3233L10.9637 3.9433C9.2237 4.9833 8.2137 6.6833 8.2037 8.9433C7.5337 9.5333 6.9137 10.2133 6.3737 10.9533L4.4337 9.3133C3.9237 8.8933 3.2637 8.8333 2.8437 9.3433C2.4337 9.8333 2.5837 10.5033 3.0937 10.9133L5.2537 12.7333C4.4037 14.3333 3.8437 16.1033 3.6137 17.9233L1.1237 17.9433C0.4337 17.9433 0.0037 18.3633 0.0037 18.9833C0.0037 19.6033 0.4337 20.0333 1.1337 20.0333L3.4837 20.0133C3.5237 22.4333 4.0737 24.5833 5.0537 26.3733L3.0337 28.0733C2.5437 28.4833 2.3937 29.1333 2.8037 29.6433C3.2237 30.1533 3.8737 30.0933 4.3937 29.6733L6.2337 28.1133C8.3437 30.6533 11.5637 32.1133 15.4937 32.1133ZM15.4937 12.1833C17.9137 12.1833 20.3037 11.7233 21.8637 11.0233C23.5537 12.7833 25.3637 15.8933 25.3637 19.7733C25.3637 25.5933 21.7937 29.5833 16.3337 29.9533V14.7533C16.3337 14.2633 15.9237 13.8633 15.4337 13.8633C14.9437 13.8633 14.5437 14.2633 14.5437 14.7533V29.9533C9.1637 29.5333 5.6237 25.5633 5.6237 19.7733C5.6237 15.9033 7.4137 12.8133 9.1337 11.0233C10.6937 11.7233 13.0837 12.1833 15.4937 12.1833ZM11.1337 16.9733C12.0837 16.9733 12.8537 16.1733 12.8537 15.2333C12.8537 14.2933 12.0837 13.5133 11.1337 13.5133C10.1837 13.5133 9.4237 14.2933 9.4237 15.2333C9.4237 16.1733 10.1837 16.9733 11.1337 16.9733ZM19.8637 16.9733C20.8037 16.9733 21.5737 16.1733 21.5737 15.2333C21.5737 14.2933 20.8037 13.5133 19.8637 13.5133C18.9037 13.5133 18.1437 14.2933 18.1437 15.2333C18.1437 16.1733 18.9037 16.9733 19.8637 16.9733ZM9.5037 22.3833C10.5937 22.3833 11.4937 21.4833 11.4937 20.3733C11.4937 19.2633 10.5937 18.3633 9.5037 18.3633C8.3837 18.3633 7.4737 19.2633 7.4737 20.3733C7.4737 21.4833 8.3837 22.3833 9.5037 22.3833ZM21.4937 22.3833C22.6037 22.3833 23.5137 21.4833 23.5137 20.3733C23.5137 19.2633 22.6037 18.3633 21.4937 18.3633C20.3937 18.3633 19.4837 19.2633 19.4837 20.3733C19.4837 21.4833 20.3937 22.3833 21.4937 22.3833ZM11.1337 27.0633C12.0137 27.0633 12.7237 26.3433 12.7237 25.4733C12.7237 24.5833 12.0137 23.8733 11.1337 23.8733C10.2537 23.8733 9.5437 24.5833 9.5437 25.4733C9.5437 26.3433 10.2537 27.0633 11.1337 27.0633ZM19.8637 27.0633C20.7437 27.0633 21.4537 26.3433 21.4537 25.4733C21.4537 24.5833 20.7437 23.8733 19.8637 23.8733C18.9737 23.8733 18.2637 24.5833 18.2637 25.4733C18.2637 26.3433 18.9737 27.0633 19.8637 27.0633Z"
        fillRule="evenodd"
        clipRule="evenodd"
    />
</svg>
        