
<svg
    viewBox="0 0 20.878612864962072 33.591796875"
    xmlns="http://www.w3.org/2000/svg"
>
    <path
        fill="inherit"
        d="M4.2945 33.5912H16.5845C17.0945 33.5912 17.4345 33.2412 17.4345 32.7012C17.4345 31.6612 16.5845 30.9412 15.2845 30.9412H11.5445V18.5712C14.1545 18.5212 16.6945 18.3512 18.8145 18.0312C20.7045 17.7412 21.2645 16.3612 20.6345 14.4112L17.0245 2.9812C16.3845 0.9312 14.7345 0.0012 12.5145 0.0012H8.3645C6.1445 0.0012 4.4945 0.9312 3.8545 2.9812L0.2445 14.4112C-0.3855 16.3612 0.1745 17.7412 2.0645 18.0312C4.1845 18.3512 6.7245 18.5212 9.3345 18.5712V30.9412H5.5945C4.2945 30.9412 3.4645 31.6612 3.4645 32.7012C3.4645 33.2412 3.7845 33.5912 4.2945 33.5912Z"
        fillRule="evenodd"
        clipRule="evenodd"
    />
</svg>
        