
<svg
    viewBox="0 0 21.13351483357858 33.0859375"
    xmlns="http://www.w3.org/2000/svg"
>
    <path
        fill="inherit"
        d="M8.4632 33.0841H12.6632C16.1832 33.0841 18.2632 31.2641 18.2632 28.1941C18.2632 26.2641 17.6632 23.3941 16.6132 20.4941C15.9932 18.8141 14.6732 17.8241 12.7832 17.8241H11.7032V16.1441C14.3132 16.1041 16.8732 15.9241 19.0132 15.6041C20.9132 15.3241 21.6132 13.8741 20.7932 11.9941L16.7332 2.8441C15.8832 0.9141 14.4732 0.0041 12.3332 0.0041H8.7932C6.6532 0.0041 5.2532 0.9141 4.4032 2.8441L0.3432 11.9941C-0.4768 13.8741 0.2032 15.3241 2.1232 15.6041C4.2532 15.9241 6.8032 16.1041 9.4232 16.1441V17.8241H8.3432C6.4532 17.8241 5.1232 18.8141 4.5132 20.4941C3.4732 23.3941 2.8532 26.2641 2.8532 28.1941C2.8532 31.2641 4.9332 33.0841 8.4632 33.0841ZM10.5632 14.1541C8.0832 14.1541 5.6032 14.0141 2.8832 13.7041C2.1232 13.6141 1.9932 13.1641 2.3232 12.4241L6.2032 3.6641C6.7132 2.5341 7.5432 1.9941 8.7932 1.9941H12.3332C13.5732 1.9941 14.4232 2.5341 14.9332 3.6641L18.8132 12.4241C19.1432 13.1641 19.0032 13.6141 18.2532 13.7041C15.5332 14.0141 13.0432 14.1541 10.5632 14.1541ZM8.4632 31.0941C6.1832 31.0941 4.8432 30.0141 4.8432 28.1941C4.8432 26.4641 5.4132 23.8541 6.3732 21.1741C6.6732 20.3341 7.3132 19.8241 8.3432 19.8241H12.7832C13.8032 19.8241 14.4532 20.3341 14.7532 21.1741C15.7132 23.8541 16.2832 26.4641 16.2832 28.1941C16.2832 30.0141 14.9432 31.0941 12.6632 31.0941Z"
        fillRule="evenodd"
        clipRule="evenodd"
    />
</svg>
        