<svg viewBox="0 0 25.78515625 31.61962890625" xmlns="http://www.w3.org/2000/svg"><path d="M12.8937 19.804C17.9537 19.804 22.2437 20.734 24.8537 22.394C23.6237 19.904 21.2737 17.484 18.4937 16.114C17.8237 13.864 16.0737 12.314 14.0037 11.914V6.984C16.7037 6.624 18.8237 4.904 19.2737 2.554C19.4537 1.564 18.9937 0.844 18.0237 0.584C15.1037 -0.196 10.6737 -0.196 7.7837 0.584C6.8037 0.844 6.3437 1.564 6.5237 2.554C6.9637 4.904 9.0737 6.624 11.8037 6.984V11.914C9.7237 12.314 7.9537 13.864 7.2837 16.114C4.5137 17.484 2.1637 19.904 0.9337 22.394C3.5437 20.734 7.8337 19.804 12.8937 19.804ZM12.8937 31.624C20.6337 31.624 25.7837 29.474 25.7837 26.264C25.7837 23.324 19.5937 21.534 12.8937 21.534C6.1937 21.534 0.0037 23.294 0.0037 26.264C0.0037 29.474 5.1537 31.624 12.8937 31.624ZM12.8937 27.244C10.3237 27.244 8.0837 25.724 7.9937 23.744C9.4837 23.494 11.1537 23.344 12.8937 23.344C14.6137 23.344 16.2937 23.494 17.7837 23.744C17.6937 25.724 15.5037 27.244 12.8937 27.244Z" /></svg>