
<svg
    viewBox="0 0 21.13351483357858 33.0859375"
    xmlns="http://www.w3.org/2000/svg"
>
    <path
        fill="inherit"
        d="M8.4632 33.0841H12.6632C16.1832 33.0841 18.2632 31.2641 18.2632 28.1941C18.2632 26.2641 17.6632 23.3941 16.6132 20.4941C15.9932 18.8141 14.6732 17.8241 12.7832 17.8241H11.7032V16.1441C14.3132 16.1041 16.8732 15.9241 19.0132 15.6041C20.9132 15.3241 21.6132 13.8741 20.7932 11.9941L16.7332 2.8441C15.8832 0.9141 14.4732 0.0041 12.3332 0.0041H8.7932C6.6532 0.0041 5.2532 0.9141 4.4032 2.8441L0.3432 11.9941C-0.4768 13.8741 0.2032 15.3241 2.1232 15.6041C4.2532 15.9241 6.8032 16.1041 9.4232 16.1441V17.8241H8.3432C6.4532 17.8241 5.1232 18.8141 4.5132 20.4941C3.4732 23.3941 2.8532 26.2641 2.8532 28.1941C2.8532 31.2641 4.9332 33.0841 8.4632 33.0841Z"
        fillRule="evenodd"
        clipRule="evenodd"
    />
</svg>
        