
<svg
    viewBox="0 0 26.35984977839844 32.2177734375"
    xmlns="http://www.w3.org/2000/svg"
>
    <path
        fill="inherit"
        d="M13.1839 32.2214C21.1239 32.2214 26.4039 29.8214 26.3639 26.2714C26.3639 26.2014 26.3639 26.1514 26.3639 26.0914C26.2639 22.5414 23.0239 18.2214 18.9939 16.2314C18.3439 14.0214 16.5039 12.3814 14.3039 11.9714V7.5814C17.1339 7.2114 19.3739 5.4214 19.8539 2.9314C20.0539 1.8014 19.4939 0.9514 18.3739 0.6314C15.1439 -0.2086 11.2339 -0.2086 8.0239 0.6314C6.9039 0.9514 6.3439 1.8014 6.5539 2.9314C7.0139 5.4214 9.2539 7.2114 12.1039 7.5814V11.9514C9.8739 12.3614 8.0139 14.0114 7.3739 16.2314C3.3539 18.2014 0.1539 22.4814 0.0039 26.0214C0.0039 26.1114 0.0039 26.1914 0.0039 26.2714C-0.0361 29.8214 5.2339 32.2214 13.1839 32.2214ZM13.1939 5.8714C10.6639 5.8714 8.6539 4.4914 8.3139 2.5814C8.3039 2.4814 8.3639 2.4014 8.4939 2.3614C11.4339 1.5814 14.9739 1.5814 17.8939 2.3614C18.0339 2.4014 18.1039 2.4814 18.0839 2.5814C17.7439 4.4914 15.7339 5.8714 13.1939 5.8714ZM13.1839 20.3114C9.1839 20.3114 5.8839 20.9114 3.5639 21.9614C4.9039 20.1014 6.9139 18.4414 9.0739 17.5714C9.3239 15.3914 11.0739 13.8014 13.1839 13.8014C15.2839 13.8014 17.0339 15.3914 17.2839 17.5714C19.4139 18.4214 21.4539 20.1014 22.7939 21.9614C20.4839 20.9114 17.1739 20.3114 13.1839 20.3114ZM13.1839 22.2214C19.9439 22.2214 24.4339 23.8114 24.4439 26.2714C24.4339 28.7214 19.9439 30.3014 13.1839 30.3014C6.4239 30.3014 1.9239 28.7214 1.9139 26.2714C1.9239 23.8114 6.4239 22.2214 13.1839 22.2214ZM13.1839 27.2914C15.6539 27.2914 18.0439 25.7614 18.0439 23.9014C16.6439 23.6914 14.9839 23.5514 13.1839 23.5514C11.3739 23.5514 9.7239 23.6914 8.3139 23.9014C8.3139 25.7614 10.7039 27.2914 13.1839 27.2914Z"
        fillRule="evenodd"
        clipRule="evenodd"
    />
</svg>
        