
<svg
    viewBox={0 0 25.2708909544446 32.2861328125}
    xmlns="http://www.w3.org/2000/svg"
>
    <path
        fill="inherit"
        d="M1.5737 32.2824H16.1237C16.6237 32.2824 16.9637 31.9124 16.9637 31.3824C16.9637 30.3624 16.0737 29.6324 14.6937 29.6324H9.1837V25.5324C9.8137 25.1624 10.2237 24.4924 10.2237 23.7024C10.2237 22.5124 9.2737 21.5624 8.0937 21.5624C8.0437 21.5624 7.9937 21.5624 7.9437 21.5624L4.2237 17.8624C4.2537 17.7224 4.2637 17.5724 4.2637 17.4224C4.2637 17.2724 4.2537 17.1424 4.2237 17.0024L10.9937 10.7824C11.0837 12.6524 11.3637 14.3224 11.8637 15.9324C12.2337 17.0824 13.2237 17.5624 14.0837 16.7024L24.8537 5.9224C25.6737 5.1224 25.2137 4.1224 24.0737 3.7624C21.4737 2.9324 18.6737 2.7024 15.0137 2.9224L14.2837 2.1524C13.3737 1.1824 12.1537 0.9624 11.0837 1.4924L9.8737 0.3124C9.4637 -0.0976 8.8337 -0.0976 8.4237 0.3124C8.0237 0.7024 8.0137 1.3324 8.4237 1.7424L9.6437 2.9624C9.1037 4.0524 9.2937 5.2824 10.2837 6.1624L11.0437 6.8524C11.0337 7.1724 11.0237 7.4824 11.0037 7.8024L2.7437 15.3924C2.5537 15.3224 2.3537 15.2924 2.1337 15.2924C0.9337 15.2924 0.0037 16.2324 0.0037 17.4224C0.0037 18.6324 0.9337 19.5624 2.1337 19.5624C2.3337 19.5624 2.5437 19.5324 2.7337 19.4724L6.1237 22.8524C6.0137 23.1124 5.9637 23.4024 5.9637 23.7024C5.9637 24.4924 6.3537 25.1724 6.9837 25.5324V29.6324H2.9937C1.6137 29.6324 0.7237 30.3624 0.7237 31.3824C0.7237 31.9124 1.0637 32.2824 1.5737 32.2824ZM20.2637 15.8424C22.2837 15.8424 23.9537 14.1524 23.9537 12.1624C23.9537 11.2824 23.6437 10.4424 23.0237 9.7724L17.8737 14.9224C18.5437 15.5224 19.3837 15.8424 20.2637 15.8424Z"
        fillRule="evenodd"
        clipRule="evenodd"
    />
</svg>
        