
<svg
    viewBox={0 0 26.10967898901378 32.6962890625}
    xmlns="http://www.w3.org/2000/svg"
>
    <path
        fill="inherit"
        d="M1.5737 32.6948H16.1237C16.6237 32.6948 16.9637 32.3248 16.9637 31.7948C16.9637 30.7648 16.0737 30.0448 14.6937 30.0448H9.1837V25.9548C9.8137 25.6048 10.2237 24.9448 10.2237 24.1148C10.2237 22.9248 9.2737 21.9748 8.0937 21.9748C8.0437 21.9748 7.9937 21.9748 7.9437 21.9748L4.2237 18.2748C4.2537 18.1348 4.2637 17.9848 4.2637 17.8348C4.2637 17.6848 4.2537 17.5448 4.2237 17.4148L10.1537 11.9548C10.2937 13.6148 10.5837 15.1848 11.0637 16.7248C11.5837 18.3848 13.4537 19.0148 14.7637 17.6848L16.8937 15.5548C17.6537 16.0548 18.5437 16.3048 19.4437 16.3048C21.9537 16.3048 24.0237 14.2548 24.0237 11.7548C24.0237 10.8448 23.7637 9.9748 23.2437 9.2048L25.4037 7.0448C26.7137 5.7448 26.0837 3.8748 24.4637 3.3748C21.6737 2.4648 18.7137 2.2248 15.3537 2.4148L14.9337 1.9648C13.6537 0.6348 11.9037 0.3748 10.4137 1.2648L9.4637 0.3048C9.0537 -0.1052 8.4237 -0.1052 8.0137 0.3048C7.6137 0.7048 7.6037 1.3348 8.0137 1.7448L8.9837 2.7148C8.0937 4.2148 8.3537 6.0048 9.6837 7.2248L10.1337 7.6448C10.1037 8.1248 10.0937 8.5948 10.0737 9.0448L2.7437 15.7948C2.5537 15.7248 2.3537 15.7048 2.1337 15.7048C0.9337 15.7048 0.0037 16.6448 0.0037 17.8348C0.0037 19.0348 0.9337 19.9648 2.1337 19.9648C2.3337 19.9648 2.5437 19.9448 2.7337 19.8848L6.1237 23.2648C6.0137 23.5248 5.9637 23.8048 5.9637 24.1148C5.9637 24.9048 6.3537 25.5848 6.9837 25.9448V30.0448H2.9937C1.6137 30.0448 0.7237 30.7648 0.7237 31.7948C0.7237 32.3248 1.0637 32.6948 1.5737 32.6948ZM13.4137 16.3148C13.1937 16.5348 13.0037 16.5048 12.8137 15.8848C12.0537 13.4848 11.8537 10.8048 12.0837 7.5448C12.1137 7.0848 11.9237 6.6548 11.5837 6.3548L10.9737 5.8048C10.2137 5.0948 10.1737 4.0948 10.9737 3.2448C11.8237 2.4448 12.8137 2.4648 13.5337 3.2648L14.0837 3.8648C14.3937 4.2048 14.8637 4.3948 15.3437 4.3548C18.5437 4.1448 21.2337 4.3548 23.6237 5.1248C24.2137 5.3148 24.2437 5.4848 24.0537 5.6848ZM22.0837 11.7548C22.0837 13.2048 20.8737 14.3748 19.4437 14.3748C19.0537 14.3748 18.6737 14.2848 18.3337 14.1148L21.8037 10.6448C21.9837 10.9848 22.0837 11.3548 22.0837 11.7548Z"
        fillRule="evenodd"
        clipRule="evenodd"
    />
</svg>
        