
<svg
    viewBox={0 0 27.890625 27.890625}
    xmlns="http://www.w3.org/2000/svg"
>
    <path
        fill="inherit"
        d="M13.9427 27.8864C21.6427 27.8864 27.8927 21.6264 27.8927 13.9464C27.8927 6.2464 21.6427 -0.0036 13.9427 -0.0036C6.2627 -0.0036 0.0027 6.2464 0.0027 13.9464C0.0027 21.6264 6.2627 27.8864 13.9427 27.8864ZM8.6527 20.2464C8.2427 20.2464 7.9527 19.9564 7.9527 19.5664C7.9527 19.1664 8.2427 18.9064 8.6527 18.9064H11.1827V18.8664C9.0827 17.8264 7.9727 15.5964 7.9727 13.3464C7.9727 10.6664 9.6927 8.6364 12.1527 7.9564V6.5264C12.1527 6.2464 12.3427 6.0564 12.6227 6.0564C12.9027 6.0564 13.0927 6.2464 13.0927 6.5264V7.7664C13.4127 7.7264 13.7127 7.7064 14.0227 7.7064C14.3527 7.7064 14.6827 7.7264 15.0027 7.7664V6.5264C15.0027 6.2464 15.2027 6.0564 15.4627 6.0564C15.7527 6.0564 15.9527 6.2464 15.9527 6.5264V7.9864C18.2227 8.6964 19.9427 10.6064 19.9627 12.9864C19.9627 13.4664 19.6627 13.8064 19.1927 13.8064C18.7327 13.8064 18.4427 13.4764 18.4327 12.9864C18.3727 11.4264 17.3927 10.1464 15.9527 9.5464V13.1564C15.9527 13.4364 15.7527 13.6264 15.4627 13.6264C15.2027 13.6264 15.0027 13.4364 15.0027 13.1564V9.2464C14.6827 9.1864 14.3527 9.1464 14.0227 9.1464C13.7127 9.1464 13.4127 9.1864 13.0927 9.2264V13.1564C13.0927 13.4364 12.9027 13.6264 12.6227 13.6264C12.3427 13.6264 12.1527 13.4364 12.1527 13.1564V9.5064C10.6227 10.1064 9.5927 11.5364 9.5927 13.6064C9.5927 16.4364 11.8427 18.8964 15.1627 18.8964H18.3327C18.7427 18.8964 19.0427 19.1664 19.0427 19.5664C19.0427 19.9564 18.7427 20.2464 18.3327 20.2464Z"
        fillRule="evenodd"
        clipRule="evenodd"
    />
</svg>
        