
<svg
    viewBox={0 0 32.935546875 27.33018496744969}
    xmlns="http://www.w3.org/2000/svg"
>
    <path
        fill="inherit"
        d="M16.4627 5.864C18.9327 5.864 21.2027 6.724 23.0227 8.134C23.2927 8.354 23.6527 8.324 23.9127 8.064L27.0827 4.894C27.4027 4.584 27.3827 4.124 27.0527 3.854C24.2027 1.454 20.4927 0.004 16.4627 0.004C12.4427 0.004 8.7327 1.454 5.8827 3.854C5.5527 4.124 5.5327 4.584 5.8527 4.894L9.0227 8.064C9.2827 8.324 9.6527 8.354 9.9527 8.124C11.7627 6.724 14.0127 5.864 16.4627 5.864ZM0.0027 16.464C0.0027 20.494 1.4527 24.204 3.8727 27.074C4.1427 27.414 4.6027 27.414 4.9127 27.094L8.1627 23.844C8.3627 23.624 8.3927 23.324 8.2027 23.094C6.7127 21.194 5.8627 18.924 5.8627 16.464C5.8627 14.014 6.7027 11.744 8.1227 9.944C8.3427 9.654 8.3427 9.284 8.0827 9.024L4.9127 5.854C4.5927 5.534 4.1427 5.534 3.8727 5.864C1.4527 8.734 0.0027 12.444 0.0027 16.464ZM32.9327 16.464C32.9327 12.444 31.4827 8.734 29.0627 5.864C28.7927 5.534 28.3327 5.534 28.0227 5.854L24.8527 9.024C24.5927 9.284 24.5827 9.654 24.8127 9.944C26.2227 11.744 27.0727 14.014 27.0727 16.464C27.0727 18.924 26.2227 21.194 24.7327 23.094C24.5427 23.324 24.5527 23.624 24.7627 23.844L28.0127 27.094C28.3327 27.414 28.7827 27.414 29.0627 27.074C31.4827 24.204 32.9327 20.494 32.9327 16.464ZM11.3227 22.724H20.7027C21.0927 22.724 21.3827 22.454 21.3827 22.064C21.3827 21.684 21.0927 21.414 20.7027 21.414H17.6327C14.4127 21.414 12.2227 19.044 12.2227 16.294C12.2227 14.284 13.2327 12.904 14.7127 12.304V15.844C14.7127 16.134 14.9027 16.324 15.1627 16.324C15.4527 16.324 15.6427 16.134 15.6427 15.844V12.044C15.9327 11.994 16.2327 11.964 16.5327 11.964C16.8527 11.964 17.1727 12.004 17.4727 12.054V15.844C17.4727 16.134 17.6627 16.324 17.9327 16.324C18.2127 16.324 18.4027 16.134 18.4027 15.844V12.344C19.7927 12.934 20.7427 14.194 20.7927 15.694C20.8127 16.164 21.0827 16.484 21.5427 16.484C21.9827 16.484 22.2727 16.144 22.2727 15.694C22.2727 13.394 20.5927 11.544 18.4027 10.854V9.424C18.4027 9.164 18.2127 8.964 17.9327 8.964C17.6627 8.964 17.4727 9.164 17.4727 9.424V10.634C17.1727 10.594 16.8527 10.564 16.5327 10.564C16.2327 10.564 15.9327 10.584 15.6427 10.624V9.424C15.6427 9.164 15.4527 8.964 15.1627 8.964C14.9027 8.964 14.7127 9.164 14.7127 9.424V10.814C12.3327 11.484 10.6827 13.454 10.6827 16.034C10.6827 18.224 11.7327 20.384 13.7927 21.384V21.424H11.3227C10.9227 21.424 10.6527 21.684 10.6527 22.064C10.6527 22.454 10.9227 22.724 11.3227 22.724Z"
        fillRule="evenodd"
        clipRule="evenodd"
    />
</svg>
        