
<svg
    viewBox="0 0 30.5703125 30.5703125"
    xmlns="http://www.w3.org/2000/svg"
>
    <path
        fill="inherit"
        d="M15.2827 30.5663C23.6827 30.5663 30.5727 23.6763 30.5727 15.2863C30.5727 6.8863 23.6827 -0.0038 15.2827 -0.0038C6.8927 -0.0038 0.0027 6.8863 0.0027 15.2863C0.0027 23.6763 6.8927 30.5663 15.2827 30.5663ZM15.2827 25.4862C9.6527 25.4862 5.0827 20.9162 5.0827 15.2863C5.0827 9.6363 9.6527 5.0863 15.2827 5.0863C20.9327 5.0863 25.4827 9.6363 25.4827 15.2863C25.4827 20.9162 20.9327 25.4862 15.2827 25.4862ZM10.1627 21.3663H19.5327C19.9327 21.3663 20.2227 21.0963 20.2227 20.7163C20.2227 20.3263 19.9327 20.0563 19.5327 20.0563H16.4727C13.2527 20.0563 11.0627 17.6763 11.0627 14.9263C11.0627 12.9163 12.0627 11.5363 13.5527 10.9462V14.4963C13.5527 14.7663 13.7427 14.9563 14.0027 14.9563C14.2727 14.9563 14.4627 14.7663 14.4627 14.4963V10.6962C14.7627 10.6363 15.0627 10.6063 15.3627 10.6063C15.6927 10.6063 16.0127 10.6363 16.3127 10.7063V14.4963C16.3127 14.7663 16.5027 14.9563 16.7627 14.9563C17.0527 14.9563 17.2227 14.7663 17.2227 14.4963V10.9763C18.6227 11.5763 19.5827 12.8263 19.6327 14.3463C19.6427 14.8063 19.9227 15.1163 20.3727 15.1163C20.8227 15.1163 21.1127 14.7963 21.1127 14.3463C21.0927 12.0262 19.4327 10.1763 17.2227 9.4863V8.0663C17.2227 7.8062 17.0527 7.6163 16.7627 7.6163C16.5027 7.6163 16.3127 7.8062 16.3127 8.0663V9.2863C16.0127 9.2263 15.6927 9.2163 15.3627 9.2163C15.0627 9.2163 14.7627 9.2263 14.4627 9.2663V8.0663C14.4627 7.8062 14.2727 7.6163 14.0027 7.6163C13.7427 7.6163 13.5527 7.8062 13.5527 8.0663V9.4462C11.1727 10.1163 9.5027 12.0863 9.5027 14.6863C9.5027 16.8663 10.5727 19.0263 12.6327 20.0263V20.0663H10.1627C9.7627 20.0663 9.4927 20.3263 9.4927 20.7163C9.4927 21.0963 9.7627 21.3663 10.1627 21.3663Z"
        fillRule="evenodd"
        clipRule="evenodd"
    />
</svg>
        