<svg viewBox="0 0 27.890625 27.890625" xmlns="http://www.w3.org/2000/svg"><path d="M13.9427 27.8864C21.6427 27.8864 27.8927 21.6464 27.8927 13.9464C27.8927 6.2464 21.6427 -0.0036 13.9427 -0.0036C6.2527 -0.0036 0.0027 6.2464 0.0027 13.9464C0.0027 21.6464 6.2527 27.8864 13.9427 27.8864ZM13.9427 25.5664C7.5227 25.5664 2.3227 20.3664 2.3227 13.9464C2.3227 7.5164 7.5227 2.3264 13.9427 2.3264C20.3727 2.3264 25.5627 7.5164 25.5627 13.9464C25.5627 20.3664 20.3727 25.5664 13.9427 25.5664ZM8.8027 20.0264H18.1827C18.5827 20.0264 18.8627 19.7564 18.8627 19.3764C18.8627 18.9864 18.5827 18.7164 18.1827 18.7164H15.1027C11.8927 18.7164 9.7027 16.3364 9.7027 13.5864C9.7027 11.5764 10.7027 10.1964 12.1927 9.6064V13.1564C12.1927 13.4264 12.3827 13.6164 12.6427 13.6164C12.9227 13.6164 13.1127 13.4264 13.1127 13.1564V9.3564C13.4027 9.2964 13.7027 9.2664 14.0127 9.2664C14.3427 9.2664 14.6527 9.2964 14.9527 9.3664V13.1564C14.9527 13.4264 15.1527 13.6164 15.4127 13.6164C15.6827 13.6164 15.8727 13.4264 15.8727 13.1564V9.6364C17.2627 10.2364 18.2227 11.4864 18.2827 13.0064C18.2927 13.4664 18.5627 13.7764 19.0127 13.7764C19.4727 13.7764 19.7527 13.4564 19.7527 13.0064C19.7427 10.6864 18.0727 8.8364 15.8727 8.1464V6.7264C15.8727 6.4664 15.6827 6.2764 15.4127 6.2764C15.1527 6.2764 14.9527 6.4664 14.9527 6.7264V7.9464C14.6527 7.8864 14.3327 7.8764 14.0127 7.8764C13.7127 7.8764 13.4127 7.8864 13.1127 7.9264V6.7264C13.1127 6.4664 12.9227 6.2764 12.6427 6.2764C12.3827 6.2764 12.1927 6.4664 12.1927 6.7264V8.1064C9.8127 8.7764 8.1527 10.7464 8.1527 13.3464C8.1527 15.5264 9.2127 17.6864 11.2627 18.6864V18.7264H8.8027C8.4127 18.7264 8.1227 18.9864 8.1227 19.3764C8.1227 19.7564 8.4127 20.0264 8.8027 20.0264Z" /></svg>