
<svg
    viewBox={0 0 23.1328125 27.603515625}
    xmlns="http://www.w3.org/2000/svg"
>
    <path
        fill="inherit"
        d="M1.2316 27.604H20.1016C20.7816 27.604 21.2716 27.124 21.2716 26.464C21.2716 25.794 20.7816 25.344 20.1016 25.344H13.6416C7.6316 25.344 2.7216 20.894 2.7216 14.734C2.7216 10.694 4.7216 7.654 8.0016 6.394V13.824C8.0016 14.354 8.3716 14.724 8.9016 14.724C9.4216 14.724 9.8016 14.354 9.8016 13.824V5.904C10.3916 5.794 11.0216 5.744 11.6716 5.744C12.3416 5.744 13.0016 5.814 13.6316 5.934V13.824C13.6316 14.354 14.0016 14.724 14.5316 14.724C15.0516 14.724 15.4316 14.354 15.4316 13.824V6.454C18.3716 7.644 20.4716 10.224 20.5716 13.674C20.6016 14.584 21.0716 15.084 21.8916 15.084C22.6916 15.084 23.1316 14.574 23.1316 13.684C23.1016 8.964 19.8616 5.234 15.4316 3.874V0.904C15.4316 0.374 15.0516 0.004 14.5316 0.004C14.0016 0.004 13.6316 0.374 13.6316 0.904V3.454C12.9916 3.364 12.3416 3.304 11.6716 3.304C11.0316 3.304 10.4016 3.354 9.8016 3.444V0.904C9.8016 0.374 9.4216 0.004 8.9016 0.004C8.3716 0.004 8.0016 0.374 8.0016 0.904V3.824C3.3916 5.164 0.0016 9.024 0.0016 14.324C0.0016 19.224 2.7516 23.484 6.5916 25.284V25.344H1.2316C0.4816 25.344 0.0416 25.864 0.0416 26.484C0.0416 27.154 0.5316 27.604 1.2316 27.604Z"
        fillRule="evenodd"
        clipRule="evenodd"
    />
</svg>
        