
<svg
    viewBox={0 0 30.529296875 29.17578125}
    xmlns="http://www.w3.org/2000/svg"
>
    <path
        fill="inherit"
        d="M1.0937 29.179H29.4237C30.0237 29.179 30.5337 28.669 30.5337 28.069C30.5337 27.469 30.0237 26.979 29.4237 26.979H28.7137V25.979C28.7137 25.429 28.3937 25.099 27.8337 25.099H26.9637V9.379H28.1637C28.9137 9.379 29.3537 8.829 29.3537 8.269C29.3537 7.859 29.1237 7.509 28.6137 7.219L16.9437 0.479C16.3937 0.169 15.8137 -0.001 15.2537 -0.001C14.6937 -0.001 14.1137 0.169 13.5937 0.479L1.9137 7.219C1.3937 7.509 1.1737 7.859 1.1737 8.269C1.1737 8.829 1.6137 9.379 2.3637 9.379H3.5637V25.099H2.7037C2.1437 25.099 1.8137 25.429 1.8137 25.979V26.979H1.0937C0.4937 26.979 0.0037 27.469 0.0037 28.069C0.0037 28.669 0.4937 29.179 1.0937 29.179ZM9.9837 21.919C9.5737 21.919 9.2737 21.629 9.2737 21.229C9.2737 20.839 9.5737 20.579 9.9837 20.579H12.5137V20.539C10.4037 19.479 9.2937 17.249 9.2937 14.999C9.2937 12.329 11.0237 10.299 13.4837 9.629V8.189C13.4837 7.899 13.6737 7.729 13.9437 7.729C14.2337 7.729 14.4237 7.899 14.4237 8.189V9.429C14.7337 9.389 15.0437 9.369 15.3537 9.369C15.6837 9.369 16.0137 9.389 16.3237 9.429V8.189C16.3237 7.899 16.5337 7.729 16.7937 7.729C17.0737 7.729 17.2837 7.899 17.2837 8.189V9.649C19.5537 10.359 21.2737 12.279 21.2837 14.659C21.2837 15.139 20.9837 15.479 20.5237 15.479C20.0537 15.479 19.7737 15.149 19.7537 14.659C19.7037 13.099 18.7137 11.809 17.2837 11.209V14.819C17.2837 15.109 17.0737 15.299 16.7937 15.299C16.5337 15.299 16.3237 15.109 16.3237 14.819V10.909C16.0137 10.839 15.6837 10.819 15.3537 10.819C15.0437 10.819 14.7337 10.839 14.4237 10.879V14.819C14.4237 15.109 14.2337 15.299 13.9437 15.299C13.6737 15.299 13.4837 15.109 13.4837 14.819V11.169C11.9537 11.769 10.9237 13.209 10.9237 15.269C10.9237 18.099 13.1637 20.559 16.4837 20.559H19.6637C20.0737 20.559 20.3737 20.839 20.3737 21.229C20.3737 21.629 20.0737 21.919 19.6637 21.919Z"
        fillRule="evenodd"
        clipRule="evenodd"
    />
</svg>
        