
<svg
    viewBox={0 0 25.169921875 25.169921875}
    xmlns="http://www.w3.org/2000/svg"
>
    <path
        fill="inherit"
        d="M4.2937 25.1692H20.8737C23.7437 25.1692 25.1737 23.7592 25.1737 20.9492V4.2392C25.1737 1.4192 23.7437 -0.0008 20.8737 -0.0008H4.2937C1.4337 -0.0008 0.0037 1.4192 0.0037 4.2392V20.9492C0.0037 23.7592 1.4337 25.1692 4.2937 25.1692ZM4.3237 22.9692C2.9537 22.9692 2.2037 22.2392 2.2037 20.8192V4.3592C2.2037 2.9392 2.9537 2.1992 4.3237 2.1992H20.8537C22.2037 2.1992 22.9737 2.9392 22.9737 4.3592V20.8192C22.9737 22.2392 22.2037 22.9692 20.8537 22.9692ZM7.4637 18.6592H16.8437C17.2437 18.6592 17.5237 18.3892 17.5237 18.0092C17.5237 17.6192 17.2437 17.3492 16.8437 17.3492H13.7837C10.5537 17.3492 8.3637 14.9692 8.3637 12.2192C8.3637 10.2092 9.3637 8.8292 10.8537 8.2392V11.7892C10.8537 12.0592 11.0437 12.2492 11.3037 12.2492C11.5837 12.2492 11.7737 12.0592 11.7737 11.7892V7.9892C12.0737 7.9292 12.3737 7.8992 12.6737 7.8992C13.0037 7.8992 13.3137 7.9292 13.6137 7.9992V11.7892C13.6137 12.0592 13.8037 12.2492 14.0637 12.2492C14.3537 12.2492 14.5337 12.0592 14.5337 11.7892V8.2692C15.9237 8.8692 16.8837 10.1192 16.9437 11.6392C16.9537 12.0992 17.2237 12.4092 17.6737 12.4092C18.1337 12.4092 18.4137 12.0892 18.4137 11.6392C18.4037 9.3192 16.7337 7.4692 14.5337 6.7792V5.3592C14.5337 5.0992 14.3537 4.9092 14.0637 4.9092C13.8037 4.9092 13.6137 5.0992 13.6137 5.3592V6.5792C13.3137 6.5192 13.0037 6.5092 12.6737 6.5092C12.3737 6.5092 12.0737 6.5192 11.7737 6.5592V5.3592C11.7737 5.0992 11.5837 4.9092 11.3037 4.9092C11.0437 4.9092 10.8537 5.0992 10.8537 5.3592V6.7392C8.4737 7.4092 6.8037 9.3792 6.8037 11.9792C6.8037 14.1592 7.8737 16.3192 9.9437 17.3192V17.3592H7.4637C7.0637 17.3592 6.7937 17.6192 6.7937 18.0092C6.7937 18.3892 7.0637 18.6592 7.4637 18.6592Z"
        fillRule="evenodd"
        clipRule="evenodd"
    />
</svg>
        