
<svg
    viewBox="0 0 30.529296875 29.17578125"
    xmlns="http://www.w3.org/2000/svg"
>
    <path
        fill="inherit"
        d="M1.8137 25.919H28.7137V25.009C28.7137 24.459 28.3937 24.129 27.8337 24.129H26.9637V9.379H28.1637C28.9137 9.379 29.3537 8.829 29.3537 8.269C29.3537 7.859 29.1237 7.509 28.6137 7.219L16.9437 0.479C16.3937 0.169 15.8137 -0.001 15.2537 -0.001C14.6937 -0.001 14.1137 0.169 13.5937 0.479L1.9137 7.219C1.3937 7.509 1.1737 7.859 1.1737 8.269C1.1737 8.829 1.6137 9.379 2.3637 9.379H3.5637V24.129H2.7037C2.1437 24.129 1.8137 24.459 1.8137 25.009ZM5.6337 24.129V7.629L14.7237 2.529C14.8937 2.429 15.0837 2.379 15.2537 2.379C15.4337 2.379 15.6237 2.429 15.8037 2.529L24.8937 7.629V24.129ZM10.1437 20.469H19.5237C19.9237 20.469 20.2037 20.189 20.2037 19.809C20.2037 19.429 19.9237 19.159 19.5237 19.159H16.4437C13.2337 19.159 11.0437 16.789 11.0437 14.039C11.0437 12.029 12.0437 10.649 13.5337 10.049V13.589C13.5337 13.879 13.7237 14.059 13.9837 14.059C14.2637 14.059 14.4537 13.879 14.4537 13.589V9.789C14.7337 9.739 15.0437 9.709 15.3537 9.709C15.6837 9.709 15.9937 9.749 16.2937 9.799V13.589C16.2937 13.879 16.4837 14.059 16.7437 14.059C17.0237 14.059 17.2137 13.879 17.2137 13.589V10.089C18.6037 10.679 19.5637 11.939 19.6237 13.439C19.6337 13.909 19.9037 14.229 20.3537 14.229C20.8037 14.229 21.0937 13.889 21.0937 13.439C21.0837 11.139 19.4137 9.279 17.2137 8.599V7.169C17.2137 6.909 17.0237 6.709 16.7437 6.709C16.4837 6.709 16.2937 6.909 16.2937 7.169V8.379C15.9837 8.339 15.6637 8.309 15.3537 8.309C15.0537 8.309 14.7537 8.329 14.4537 8.369V7.169C14.4537 6.909 14.2637 6.709 13.9837 6.709C13.7237 6.709 13.5337 6.909 13.5337 7.169V8.559C11.1537 9.219 9.4837 11.199 9.4837 13.779C9.4837 15.969 10.5537 18.129 12.6037 19.129V19.169H10.1437C9.7437 19.169 9.4637 19.429 9.4637 19.809C9.4637 20.189 9.7437 20.469 10.1437 20.469ZM1.0937 29.179H29.4237C30.0237 29.179 30.5337 28.669 30.5337 28.069C30.5337 27.469 30.0237 26.979 29.4237 26.979H1.0937C0.4937 26.979 0.0037 27.469 0.0037 28.069C0.0037 28.669 0.4937 29.179 1.0937 29.179Z"
        fillRule="evenodd"
        clipRule="evenodd"
    />
</svg>
        