
<svg
    viewBox="0 0 30.544813437289534 27.890625"
    xmlns="http://www.w3.org/2000/svg"
>
    <path
        fill="inherit"
        d="M0.9769 11.3064C-0.0131 11.3064 -0.2531 11.9764 0.2769 12.7464L3.3369 17.0864C3.7869 17.7164 4.4469 17.7064 4.8869 17.0864L7.9269 12.7264C8.4669 11.9764 8.2069 11.3064 7.2469 11.3064H5.2769C6.4669 6.1564 11.0769 2.3264 16.5969 2.3264C23.0269 2.3264 28.2169 7.5164 28.2169 13.9464C28.2169 20.3664 23.0269 25.5664 16.5969 25.5664C12.7169 25.5664 9.2569 23.6564 7.1969 20.7564C6.7669 20.1964 6.1269 20.0164 5.5569 20.3564C5.0069 20.6964 4.8369 21.4664 5.3069 22.0664C7.8369 25.6064 11.9769 27.8864 16.5969 27.8864C24.2969 27.8864 30.5469 21.6464 30.5469 13.9464C30.5469 6.2464 24.2969 -0.0036 16.5969 -0.0036C9.8069 -0.0036 4.1269 4.8664 2.8969 11.3064ZM11.4769 20.0264H20.8469C21.2469 20.0264 21.5369 19.7564 21.5369 19.3764C21.5369 18.9864 21.2469 18.7164 20.8469 18.7164H17.7769C14.5669 18.7164 12.3769 16.3364 12.3769 13.5864C12.3769 11.5764 13.3769 10.1964 14.8669 9.6064V13.1564C14.8669 13.4264 15.0569 13.6164 15.3169 13.6164C15.5869 13.6164 15.7769 13.4264 15.7769 13.1564V9.3564C16.0669 9.2964 16.3669 9.2664 16.6769 9.2664C17.0069 9.2664 17.3269 9.2964 17.6269 9.3664V13.1564C17.6269 13.4264 17.8169 13.6164 18.0769 13.6164C18.3469 13.6164 18.5369 13.4264 18.5369 13.1564V9.6364C19.9369 10.2364 20.8969 11.4864 20.9469 13.0064C20.9569 13.4664 21.2369 13.7764 21.6869 13.7764C22.1369 13.7764 22.4269 13.4564 22.4269 13.0064C22.4069 10.6864 20.7469 8.8364 18.5369 8.1464V6.7264C18.5369 6.4664 18.3469 6.2764 18.0769 6.2764C17.8169 6.2764 17.6269 6.4664 17.6269 6.7264V7.9464C17.3269 7.8864 16.9969 7.8764 16.6769 7.8764C16.3769 7.8764 16.0769 7.8864 15.7769 7.9264V6.7264C15.7769 6.4664 15.5869 6.2764 15.3169 6.2764C15.0569 6.2764 14.8669 6.4664 14.8669 6.7264V8.1064C12.4869 8.7764 10.8169 10.7464 10.8169 13.3464C10.8169 15.5264 11.8869 17.6864 13.9369 18.6864V18.7264H11.4769C11.0769 18.7264 10.7869 18.9864 10.7869 19.3764C10.7869 19.7564 11.0769 20.0264 11.4769 20.0264Z"
        fillRule="evenodd"
        clipRule="evenodd"
    />
</svg>
        