
<svg
    viewBox="0 0 32.935546875 27.26189615322232"
    xmlns="http://www.w3.org/2000/svg"
>
    <path
        fill="inherit"
        d="M32.9327 16.3992C32.9327 7.7792 26.3227 0.7192 17.8927 -0.0008C17.4627 -0.0408 17.1327 0.2792 17.1327 0.7192V5.1892C17.1327 5.5592 17.3927 5.8392 17.7627 5.8692C22.9927 6.5092 27.0727 10.9792 27.0727 16.3992C27.0727 18.8592 26.2227 21.1292 24.7327 23.0292C24.5427 23.2592 24.5527 23.5592 24.7627 23.7792L28.0227 27.0292C28.3327 27.3292 28.7927 27.3292 29.0627 27.0092C31.4827 24.1392 32.9327 20.4292 32.9327 16.3992ZM0.0027 16.3992C0.0027 20.4392 1.4527 24.1492 3.8727 27.0192C4.1427 27.3492 4.5927 27.3292 4.9127 27.0292L8.1727 23.7792C8.3827 23.5592 8.3927 23.2592 8.2027 23.0292C6.7027 21.1292 5.8627 18.8592 5.8627 16.3992C5.8627 10.9792 9.9427 6.5092 15.1727 5.8692C15.5427 5.8392 15.8027 5.5592 15.8027 5.1892V0.7192C15.8027 0.2792 15.4727 -0.0408 15.0427 -0.0008C6.6127 0.7192 0.0027 7.7792 0.0027 16.3992ZM11.3227 22.6592H20.7027C21.0927 22.6592 21.3827 22.3892 21.3827 21.9992C21.3827 21.6192 21.0927 21.3492 20.7027 21.3492H17.6327C14.4127 21.3492 12.2227 18.9792 12.2227 16.2292C12.2227 14.2192 13.2327 12.8392 14.7127 12.2392V15.7792C14.7127 16.0692 14.9027 16.2592 15.1627 16.2592C15.4527 16.2592 15.6427 16.0692 15.6427 15.7792V11.9792C15.9327 11.9292 16.2327 11.8992 16.5327 11.8992C16.8527 11.8992 17.1727 11.9392 17.4727 11.9892V15.7792C17.4727 16.0692 17.6627 16.2592 17.9327 16.2592C18.2127 16.2592 18.4027 16.0692 18.4027 15.7792V12.2792C19.7927 12.8692 20.7427 14.1292 20.7927 15.6292C20.8127 16.0992 21.0827 16.4192 21.5427 16.4192C21.9827 16.4192 22.2727 16.0792 22.2727 15.6292C22.2727 13.3292 20.5927 11.4792 18.4027 10.7892V9.3592C18.4027 9.0992 18.2127 8.8992 17.9327 8.8992C17.6627 8.8992 17.4727 9.0992 17.4727 9.3592V10.5692C17.1727 10.5292 16.8527 10.4992 16.5327 10.4992C16.2327 10.4992 15.9327 10.5192 15.6427 10.5592V9.3592C15.6427 9.0992 15.4527 8.8992 15.1627 8.8992C14.9027 8.8992 14.7127 9.0992 14.7127 9.3592V10.7492C12.3327 11.4192 10.6827 13.3892 10.6827 15.9692C10.6827 18.1592 11.7327 20.3192 13.7927 21.3192V21.3592H11.3227C10.9227 21.3592 10.6527 21.6192 10.6527 21.9992C10.6527 22.3892 10.9227 22.6592 11.3227 22.6592Z"
        fillRule="evenodd"
        clipRule="evenodd"
    />
</svg>
        