
<svg
    viewBox="0 0 28.177734375 27.6171875"
    xmlns="http://www.w3.org/2000/svg"
>
    <path
        fill="inherit"
        d="M0.0027 12.1964C0.0027 18.4664 5.3827 21.9964 12.1127 21.9964C12.6427 21.9964 13.1827 21.9664 13.7127 21.9464C14.2627 22.1764 14.9327 22.3164 15.6827 22.3164C17.7427 22.3164 19.8127 21.7364 21.6727 20.7564C21.6927 20.9564 21.7127 21.1764 21.7127 21.3964C21.7127 23.0364 20.7827 24.6364 19.2627 25.6064C18.8627 25.8964 18.5627 26.1864 18.5627 26.6764C18.5627 27.1764 18.9727 27.6164 19.6327 27.6164C19.9227 27.6164 20.0927 27.5364 20.3727 27.3664C22.4627 26.0064 23.7727 23.7164 23.7727 21.3564C23.7727 20.7264 23.6827 20.1364 23.5127 19.5764C26.2627 17.4864 28.1827 14.4064 28.1827 11.0364C28.1827 4.5264 22.3627 -0.0036 15.4327 -0.0036C7.8427 -0.0036 0.0027 4.9764 0.0027 12.1964ZM2.0627 12.2064C2.0627 6.2464 8.9027 2.0664 15.4527 2.0664C21.1827 2.0664 26.1127 5.6164 26.1127 11.0164C26.1127 13.6064 24.6627 15.9964 22.5727 17.7064C21.4227 16.1864 19.5527 15.2264 17.4227 15.2264C14.2727 15.2264 11.9227 16.8664 11.9227 19.2864C11.9227 19.5264 11.9527 19.7464 11.9927 19.9464C6.5527 19.8764 2.0627 17.3064 2.0627 12.2064ZM14.0027 19.2264C14.0027 18.0764 15.5827 17.3064 17.5727 17.3064C18.9327 17.3064 20.1227 17.8964 20.8627 18.8564C19.2627 19.7464 17.4627 20.2664 15.6827 20.2664C14.7127 20.2664 14.0027 19.8764 14.0027 19.2264Z"
        fillRule="evenodd"
        clipRule="evenodd"
    />
</svg>
        