
<svg
    viewBox={0 0 31.650390625 26.49609375}
    xmlns="http://www.w3.org/2000/svg"
>
    <path
        fill="inherit"
        d="M27.4237 4.8491C30.2537 4.8491 31.6537 6.2191 31.6537 9.0191V11.5491H25.8537V11.1991C25.8537 10.2391 25.3037 9.6891 24.3337 9.6891H20.9437C19.9737 9.6891 19.4237 10.2391 19.4237 11.1991V11.5491H12.2137V11.1991C12.2137 10.2391 11.6637 9.6891 10.6937 9.6891H7.3037C6.3437 9.6891 5.7937 10.2391 5.7937 11.1991V11.5491H0.0037V9.0191C0.0037 6.2191 1.4037 4.8491 4.2237 4.8491H8.8837V3.7691C8.8837 1.1991 10.3737 -0.0009 12.7137 -0.0009H18.9237C21.3937 -0.0009 22.7537 1.1991 22.7537 3.7691V4.8491ZM11.0037 3.6191V4.8491H20.6337V3.6191C20.6337 2.5791 20.0337 1.9991 18.9637 1.9991H12.6837C11.6237 1.9991 11.0037 2.5791 11.0037 3.6191ZM4.2237 26.4991C1.4037 26.4991 0.0037 25.1291 0.0037 22.3291V13.6191H5.7937V13.9991C5.7937 14.9591 6.3437 15.4891 7.3037 15.4891H10.6937C11.6637 15.4891 12.2137 14.9591 12.2137 13.9991V13.6191H19.4237V13.9991C19.4237 14.9591 19.9737 15.4891 20.9437 15.4891H24.3337C25.3037 15.4891 25.8537 14.9591 25.8537 13.9991V13.6191H31.6537V22.3291C31.6537 25.1291 30.2537 26.4991 27.4237 26.4991Z"
        fillRule="evenodd"
        clipRule="evenodd"
    />
</svg>
        