
<svg
    viewBox={0 0 14.133583836054228 29.76688662848408}
    xmlns="http://www.w3.org/2000/svg"
>
    <path
        fill="inherit"
        d="M11.8094 0.0029C11.0194 0.1329 10.1094 0.6029 9.5394 1.1629C8.9694 1.7329 8.5094 2.6729 8.4194 3.4629C8.3894 3.7429 8.5394 3.9029 8.8194 3.8929C9.6494 3.8429 10.5794 3.4129 11.1494 2.7629C11.6994 2.1929 12.1494 1.2729 12.2694 0.4529C12.2994 0.1429 12.1394 -0.0371 11.8094 0.0029ZM4.7594 1.3829C4.2894 2.0829 4.0194 3.0829 4.0694 3.8729C4.0894 4.7129 4.4994 5.6529 5.0994 6.2529C5.2994 6.4429 5.5294 6.4129 5.6794 6.2029C6.1394 5.5029 6.4094 4.5029 6.3394 3.7129C6.2894 2.9329 5.9194 2.0029 5.3994 1.3629C5.1794 1.1129 4.9294 1.1429 4.7594 1.3829ZM8.7894 5.5929C7.9794 5.7529 7.0894 6.2629 6.5894 6.8929C6.4194 7.0829 6.4594 7.3229 6.6794 7.4729C7.4094 7.8929 8.4294 8.0329 9.2394 7.8129C10.0494 7.6329 10.9294 7.1029 11.4494 6.5029C11.6594 6.2529 11.5994 6.0029 11.3194 5.8829C10.5894 5.5529 9.5894 5.4329 8.7894 5.5929ZM1.7194 5.9529C1.3594 6.7029 1.2294 7.7129 1.3794 8.5129C1.5294 9.3429 2.0594 10.2229 2.7494 10.7129C2.9494 10.8729 3.1694 10.8029 3.3094 10.5629C3.6594 9.8529 3.7794 8.8329 3.6094 8.0329C3.4394 7.2429 2.9194 6.3629 2.3494 5.8129C2.1294 5.6229 1.8694 5.6829 1.7194 5.9529ZM6.3094 9.5329C5.5294 9.8129 4.7294 10.4229 4.2894 11.1329C4.1394 11.3529 4.2194 11.5829 4.4694 11.6929C5.2494 12.0129 6.2694 12.0129 7.0494 11.6929C7.8394 11.3929 8.6694 10.7429 9.0594 10.0429C9.2294 9.7929 9.1394 9.5629 8.8394 9.4629C8.0594 9.2529 7.0494 9.2629 6.3094 9.5329ZM0.0194 12.3329C-0.0606 13.1429 0.1594 14.1429 0.5994 14.8529C1.0094 15.5929 1.8194 16.2329 2.6094 16.4529C2.8494 16.5329 3.0694 16.4029 3.0994 16.1229C3.1794 15.3429 2.9494 14.3429 2.5094 13.6329C2.0794 12.9529 1.2994 12.2929 0.5694 12.0129C0.2794 11.8829 0.0494 12.0129 0.0194 12.3329ZM5.5594 14.1329C4.9194 14.6529 4.3894 15.5229 4.2194 16.3329C4.1794 16.5729 4.3194 16.7629 4.5794 16.7829C5.4294 16.8129 6.3994 16.4429 7.0094 15.8929C7.6294 15.3629 8.1694 14.4729 8.3494 13.6729C8.3894 13.3729 8.2294 13.1729 7.9294 13.1829C7.1094 13.2529 6.1594 13.6129 5.5594 14.1329ZM7.8394 17.3329C7.0894 17.5829 6.2894 18.1929 5.8194 18.8329C5.3294 19.4729 5.0394 20.4429 5.0694 21.2929C5.0994 21.5529 5.2694 21.6929 5.5494 21.6529C6.3694 21.4529 7.2294 20.8729 7.6694 20.1629C8.1194 19.4629 8.4194 18.4929 8.3594 17.6829C8.3594 17.3529 8.1594 17.2229 7.8394 17.3329ZM0.0094 18.5029C0.1194 19.2929 0.5994 20.2229 1.1894 20.8029C1.7594 21.4029 2.6994 21.8129 3.5494 21.8429C3.8294 21.8529 3.9794 21.6729 3.9294 21.4029C3.7994 20.5729 3.3194 19.6829 2.7294 19.1429C2.1394 18.5829 1.2394 18.1529 0.4494 18.0529C0.1194 18.0129 -0.0406 18.1929 0.0094 18.5029ZM9.6994 20.0729C9.1194 20.6129 8.6094 21.4829 8.4594 22.2629C8.2794 23.0829 8.4094 24.1129 8.7694 24.8029C8.8794 25.0629 9.0994 25.1029 9.3394 24.9429C9.9894 24.4629 10.5194 23.5729 10.6594 22.7329C10.8294 21.9529 10.6894 20.9229 10.3194 20.1829C10.1994 19.8829 9.9394 19.8429 9.6994 20.0729ZM12.4894 22.8829C12.0594 23.5529 11.8094 24.5329 11.8394 25.3229C11.8894 26.1629 12.2694 27.1129 12.8094 27.7029C12.9894 27.9129 13.1994 27.9129 13.3794 27.6929C13.9194 27.0629 14.1994 26.0629 14.1194 25.2129C14.0694 24.4229 13.6694 23.4829 13.1194 22.8529C12.9194 22.6029 12.6694 22.6229 12.4894 22.8829ZM5.7694 23.7929C5.0094 23.5229 3.9894 23.4929 3.2194 23.7229C2.9194 23.8229 2.8394 24.0529 3.0094 24.3329C3.4594 25.0229 4.2594 25.6729 5.0094 25.9429C5.7794 26.2529 6.8194 26.2529 7.5994 25.9229C7.8594 25.8329 7.9294 25.6229 7.7794 25.3829C7.3394 24.6829 6.5294 24.0529 5.7694 23.7929ZM9.6194 27.5029C8.8294 27.4329 7.8394 27.6529 7.1794 28.0629C6.8894 28.2229 6.8494 28.4829 7.0894 28.7029C7.7094 29.2629 8.6494 29.6829 9.4594 29.7429C10.2894 29.8529 11.2894 29.5929 11.9594 29.0829C12.1794 28.9329 12.1894 28.7029 11.9894 28.5129C11.3894 27.9529 10.4394 27.5529 9.6194 27.5029Z"
        fillRule="evenodd"
        clipRule="evenodd"
    />
</svg>
        