
<svg
    viewBox="0 0 14.133583836054235 29.766886628484073"
    xmlns="http://www.w3.org/2000/svg"
>
    <path
        fill="inherit"
        d="M2.3229 0.0029C1.9929 -0.0371 1.8329 0.1429 1.8629 0.4529C1.9829 1.2729 2.4329 2.1929 2.9829 2.7629C3.5529 3.4129 4.4829 3.8429 5.3229 3.8929C5.5929 3.9029 5.7429 3.7429 5.7129 3.4629C5.6229 2.6729 5.1729 1.7329 4.5829 1.1629C4.0229 0.6029 3.1129 0.1329 2.3229 0.0029ZM9.3829 1.3829C9.2029 1.1429 8.9429 1.1129 8.7329 1.3629C8.2129 2.0029 7.8329 2.9329 7.7929 3.7129C7.7129 4.5029 7.9829 5.5029 8.4529 6.2029C8.6029 6.4129 8.8329 6.4429 9.0329 6.2529C9.6429 5.6529 10.0529 4.7129 10.0629 3.8729C10.1129 3.0829 9.8429 2.0829 9.3829 1.3829ZM5.3329 5.5929C4.5429 5.4329 3.5429 5.5529 2.8129 5.8829C2.5329 6.0029 2.4629 6.2529 2.6629 6.5029C3.2029 7.1029 4.0929 7.6329 4.8829 7.8129C5.7029 8.0329 6.7229 7.8929 7.4329 7.4729C7.6729 7.3229 7.7129 7.0829 7.5429 6.8929C7.0229 6.2629 6.1529 5.7529 5.3329 5.5929ZM12.4029 5.9529C12.2629 5.6829 12.0029 5.6229 11.7729 5.8129C11.2129 6.3629 10.6929 7.2429 10.5229 8.0329C10.3529 8.8329 10.4629 9.8529 10.8329 10.5629C10.9529 10.8029 11.1829 10.8729 11.3929 10.7129C12.0629 10.2229 12.5929 9.3429 12.7429 8.5129C12.9029 7.7129 12.7729 6.7029 12.4029 5.9529ZM7.8229 9.5329C7.0829 9.2629 6.0729 9.2529 5.2929 9.4629C4.9929 9.5629 4.9129 9.7929 5.0629 10.0429C5.4729 10.7429 6.2729 11.3929 7.0829 11.6929C7.8429 12.0129 8.8829 12.0129 9.6629 11.6929C9.9129 11.5829 9.9829 11.3529 9.8429 11.1329C9.4029 10.4229 8.6029 9.8129 7.8229 9.5329ZM14.1129 12.3329C14.0729 12.0129 13.8529 11.8829 13.5629 12.0129C12.8229 12.2929 12.0429 12.9529 11.6229 13.6329C11.1829 14.3429 10.9329 15.3429 11.0329 16.1229C11.0629 16.4029 11.2629 16.5329 11.5229 16.4529C12.3229 16.2329 13.1229 15.5929 13.5329 14.8529C13.9729 14.1429 14.1929 13.1429 14.1129 12.3329ZM8.5629 14.1329C7.9729 13.6129 7.0229 13.2529 6.2029 13.1829C5.8929 13.1729 5.7429 13.3729 5.7829 13.6729C5.9629 14.4729 6.4929 15.3629 7.1229 15.8929C7.7229 16.4429 8.7129 16.8129 9.5529 16.7829C9.8029 16.7629 9.9529 16.5729 9.9129 16.3329C9.7529 15.5229 9.2129 14.6529 8.5629 14.1329ZM6.2729 17.3329C5.9729 17.2229 5.7729 17.3529 5.7729 17.6829C5.7129 18.4929 6.0029 19.4629 6.4629 20.1629C6.9029 20.8729 7.7629 21.4529 8.5829 21.6529C8.8429 21.6929 9.0329 21.5529 9.0529 21.2929C9.0929 20.4429 8.7929 19.4729 8.3129 18.8329C7.8429 18.1929 7.0429 17.5829 6.2729 17.3329ZM14.1229 18.5029C14.1829 18.1929 14.0129 18.0129 13.6829 18.0529C12.8929 18.1529 11.9929 18.5829 11.4029 19.1429C10.8129 19.6829 10.3329 20.5729 10.2029 21.4029C10.1629 21.6729 10.3129 21.8529 10.5829 21.8429C11.4329 21.8129 12.3729 21.4029 12.9429 20.8029C13.5329 20.2229 14.0129 19.2929 14.1229 18.5029ZM4.4329 20.0729C4.1829 19.8429 3.9329 19.8829 3.8129 20.1829C3.4429 20.9229 3.3129 21.9529 3.4629 22.7329C3.6129 23.5729 4.1429 24.4629 4.8029 24.9429C5.0129 25.1029 5.2529 25.0629 5.3629 24.8029C5.7329 24.1129 5.8429 23.0829 5.6729 22.2629C5.5129 21.4829 5.0129 20.6129 4.4329 20.0729ZM1.6429 22.8829C1.4629 22.6229 1.2129 22.6029 1.0129 22.8529C0.4629 23.4829 0.0729 24.4229 0.0129 25.2129C-0.0671 26.0629 0.2229 27.0629 0.7529 27.6929C0.9329 27.9129 1.1529 27.9129 1.3229 27.7029C1.8629 27.1129 2.2429 26.1629 2.2829 25.3229C2.3229 24.5329 2.0629 23.5529 1.6429 22.8829ZM8.3629 23.7929C7.6029 24.0529 6.7929 24.6829 6.3529 25.3829C6.2029 25.6229 6.2729 25.8329 6.5329 25.9229C7.3129 26.2529 8.3529 26.2529 9.1229 25.9429C9.8729 25.6729 10.6829 25.0229 11.1329 24.3329C11.2929 24.0529 11.2129 23.8229 10.9129 23.7229C10.1429 23.4929 9.1229 23.5229 8.3629 23.7929ZM4.5129 27.5029C3.6929 27.5529 2.7529 27.9529 2.1429 28.5129C1.9429 28.7029 1.9529 28.9329 2.1729 29.0829C2.8429 29.5929 3.8429 29.8529 4.6729 29.7429C5.4729 29.6829 6.4129 29.2629 7.0429 28.7029C7.2829 28.4829 7.2429 28.2229 6.9629 28.0629C6.2929 27.6529 5.3029 27.4329 4.5129 27.5029Z"
        fillRule="evenodd"
        clipRule="evenodd"
    />
</svg>
        