
<svg
    viewBox="0 0 31.541015625 23.84375"
    xmlns="http://www.w3.org/2000/svg"
>
    <path
        fill="inherit"
        d="M11.4737 23.843H20.0737C28.0037 23.843 31.5437 20.193 31.5437 12.733V4.143C31.5437 1.393 30.1237 0.003 27.3437 0.003H4.1937C1.4237 0.003 0.0037 1.393 0.0037 4.143V12.733C0.0037 20.193 3.5437 23.843 11.4737 23.843ZM11.4737 21.643C5.0137 21.643 2.2037 18.843 2.2037 12.863V4.263C2.2037 2.903 2.9137 2.203 4.2537 2.203H27.2937C28.6037 2.203 29.3437 2.903 29.3437 4.263V12.863C29.3437 18.843 26.5237 21.643 20.0537 21.643ZM10.0737 17.473H14.0137C14.4637 17.473 14.8437 17.093 14.8437 16.643C14.8437 16.183 14.4637 15.803 14.0137 15.803H11.0837V7.233C11.0837 6.683 10.6337 6.233 10.0937 6.233C9.5537 6.233 9.1037 6.683 9.1037 7.233V16.433C9.1037 17.073 9.4637 17.473 10.0737 17.473ZM17.2437 17.473H20.1437C22.0837 17.473 23.1837 16.183 23.1837 14.353C23.1837 13.013 22.3837 11.803 21.0837 11.663V11.593C22.1337 11.413 22.8437 10.253 22.8437 9.173C22.8437 7.413 21.6737 6.413 20.0537 6.413H17.2437C16.5937 6.413 16.2537 6.863 16.2537 7.453V16.433C16.2537 17.063 16.6137 17.473 17.2437 17.473ZM18.2137 11.103V7.933H19.4937C20.5237 7.933 20.9337 8.583 20.9337 9.473C20.9337 10.483 20.3437 11.103 19.3337 11.103ZM18.2137 15.953V12.443H19.4837C20.4937 12.443 21.1737 12.993 21.1737 14.193C21.1737 15.303 20.6437 15.953 19.5337 15.953Z"
        fillRule="evenodd"
        clipRule="evenodd"
    />
</svg>
        