
<svg
    viewBox={0 0 31.541015625 23.84375}
    xmlns="http://www.w3.org/2000/svg"
>
    <path
        fill="inherit"
        d="M11.4737 23.843H20.0737C28.0037 23.843 31.5437 20.193 31.5437 12.733V4.143C31.5437 1.393 30.1237 0.003 27.3437 0.003H4.1937C1.4237 0.003 0.0037 1.393 0.0037 4.143V12.733C0.0037 20.193 3.5437 23.843 11.4737 23.843ZM10.1337 17.413C9.5137 17.413 9.1637 17.033 9.1637 16.393V7.283C9.1637 6.743 9.6237 6.293 10.1537 6.293C10.6737 6.293 11.1437 6.743 11.1437 7.283V15.763H14.0237C14.4737 15.763 14.8637 16.133 14.8637 16.593C14.8637 17.053 14.4737 17.413 14.0237 17.413ZM17.2437 17.433C16.6137 17.433 16.2537 17.023 16.2537 16.393V7.503C16.2537 6.913 16.5937 6.463 17.2437 6.463H20.0337C21.6337 6.463 22.7937 7.463 22.7937 9.203C22.7937 10.263 22.0837 11.413 21.0537 11.593V11.673C22.3437 11.803 23.1437 13.013 23.1437 14.343C23.1437 16.143 22.0237 17.433 20.1237 17.433ZM18.1937 11.113H19.3037C20.3137 11.113 20.8937 10.503 20.8937 9.503C20.8937 8.623 20.4937 7.983 19.4737 7.983H18.1937ZM18.1937 15.923H19.5137C20.6037 15.923 21.1337 15.273 21.1337 14.163C21.1337 12.993 20.4537 12.453 19.4737 12.453H18.1937Z"
        fillRule="evenodd"
        clipRule="evenodd"
    />
</svg>
        