
<svg
    viewBox={0 0 27.890625 27.890625}
    xmlns="http://www.w3.org/2000/svg"
>
    <path
        fill="inherit"
        d="M13.9427 27.8864C21.6427 27.8864 27.8927 21.6464 27.8927 13.9464C27.8927 6.2464 21.6427 -0.0036 13.9427 -0.0036C6.2527 -0.0036 0.0027 6.2464 0.0027 13.9464C0.0027 21.6464 6.2527 27.8864 13.9427 27.8864ZM13.9427 25.5664C7.5227 25.5664 2.3227 20.3664 2.3227 13.9464C2.3227 7.5164 7.5227 2.3264 13.9427 2.3264C20.3727 2.3264 25.5627 7.5164 25.5627 13.9464C25.5627 20.3664 20.3727 25.5664 13.9427 25.5664ZM8.2327 19.4864H12.1727C12.6227 19.4864 13.0027 19.1164 13.0027 18.6464C13.0027 18.1964 12.6227 17.8264 12.1727 17.8264H9.2427V9.2464C9.2427 8.7064 8.7927 8.2564 8.2627 8.2564C7.7127 8.2564 7.2627 8.7064 7.2627 9.2464V18.4564C7.2627 19.0964 7.6127 19.4864 8.2327 19.4864ZM15.3927 19.4964H18.2927C20.2327 19.4964 21.3427 18.2064 21.3427 16.3664C21.3427 15.0364 20.5327 13.8064 19.2327 13.6864V13.6164C20.2927 13.4264 21.0027 12.2764 21.0027 11.1864C21.0027 9.4364 19.8227 8.4364 18.2127 8.4364H15.3927C14.7527 8.4364 14.4127 8.8764 14.4127 9.4764V18.4564C14.4127 19.0864 14.7627 19.4964 15.3927 19.4964ZM16.3627 13.1264V9.9564H17.6527C18.6727 9.9564 19.0827 10.6064 19.0827 11.4964C19.0827 12.5064 18.5027 13.1264 17.4827 13.1264ZM16.3627 17.9764V14.4664H17.6327C18.6527 14.4664 19.3427 14.9964 19.3427 16.2164C19.3427 17.3064 18.8027 17.9764 17.6927 17.9764Z"
        fillRule="evenodd"
        clipRule="evenodd"
    />
</svg>
        