
<svg
    viewBox={0 0 27.890625 27.890625}
    xmlns="http://www.w3.org/2000/svg"
>
    <path
        fill="inherit"
        d="M13.9427 27.8864C21.6427 27.8864 27.8927 21.6264 27.8927 13.9464C27.8927 6.2464 21.6427 -0.0036 13.9427 -0.0036C6.2627 -0.0036 0.0027 6.2464 0.0027 13.9464C0.0027 21.6264 6.2627 27.8864 13.9427 27.8864ZM8.3527 19.3864C7.7427 19.3864 7.3927 18.9864 7.3927 18.3564V9.3564C7.3927 8.8164 7.8427 8.3764 8.3627 8.3764C8.9027 8.3764 9.3527 8.8164 9.3527 9.3564V17.7364H12.2127C12.6427 17.7364 13.0327 18.1064 13.0327 18.5664C13.0327 19.0064 12.6427 19.3864 12.2127 19.3864ZM15.3827 19.3864C14.7527 19.3864 14.4127 18.9764 14.4127 18.3564V9.5664C14.4127 8.9864 14.7427 8.5464 15.3827 8.5464H18.1427C19.7127 8.5464 20.8727 9.5264 20.8727 11.2564C20.8727 12.3064 20.1627 13.4364 19.1527 13.6164V13.6964C20.4227 13.8264 21.2227 15.0264 21.2227 16.3264C21.2227 18.1264 20.1127 19.3864 18.2227 19.3864ZM16.3227 13.1364H17.4227C18.4127 13.1364 18.9927 12.5364 18.9927 11.5564C18.9927 10.6864 18.5927 10.0464 17.5827 10.0464H16.3227ZM16.3227 17.8964H17.6227C18.7027 17.8964 19.2327 17.2564 19.2327 16.1564C19.2327 14.9964 18.5527 14.4664 17.5827 14.4664H16.3227Z"
        fillRule="evenodd"
        clipRule="evenodd"
    />
</svg>
        