
<svg
    viewBox="0 0 28.970703125 25.399051081677182"
    xmlns="http://www.w3.org/2000/svg"
>
    <path
        fill="inherit"
        d="M0.0027 5.6255C0.0027 15.8255 6.1127 22.5255 15.5127 22.5255C19.1427 22.5255 22.1927 21.2255 24.1827 19.0555C25.0027 20.6255 25.3727 22.4455 26.0127 24.5055C26.2227 25.1655 26.6727 25.3955 27.1527 25.3955C28.1627 25.3955 28.9727 24.4555 28.9727 23.3255C28.9727 21.5955 27.1627 18.7155 25.7627 16.7155C26.3827 15.4055 26.7327 13.9155 26.7327 12.3055C26.7327 6.5455 22.0427 2.3855 15.5727 2.3855C13.3427 2.3855 11.0927 3.0155 8.5827 3.0155C6.4827 3.0155 4.6627 2.3755 3.1627 0.6655C2.3627 -0.2645 0.7927 -0.3445 0.4127 1.2255C0.0827 2.5555 0.0027 4.8955 0.0027 5.6255ZM8.0027 8.8155C8.8627 11.4855 11.4427 12.5455 14.6727 13.3355C19.0427 14.3755 21.1827 15.2455 22.9727 17.3055C21.3727 19.2755 18.7427 20.4655 15.5127 20.4655C7.2727 20.4655 2.0627 14.6955 2.0627 5.6255C2.0627 4.7255 2.0827 3.7155 2.2027 2.9755C2.2327 2.7955 2.3227 2.7855 2.4427 2.8955C3.9827 4.2855 6.3827 5.0855 8.5827 5.0855C10.0627 5.0855 11.4027 4.8955 12.6027 4.7255C13.7027 4.5755 14.6527 4.4555 15.5727 4.4555C20.9027 4.4555 24.6627 7.7255 24.6627 12.3055C24.6627 13.2555 24.5127 14.1455 24.2427 14.9655C22.3227 13.2755 19.4727 12.2155 15.3627 11.5455C12.7727 11.1155 10.4727 10.4255 8.9027 8.3755C8.4627 7.7855 7.7927 8.1955 8.0027 8.8155Z"
        fillRule="evenodd"
        clipRule="evenodd"
    />
</svg>
        