
<svg
    viewBox={0 0 27.890625 27.890625}
    xmlns="http://www.w3.org/2000/svg"
>
    <path
        fill="inherit"
        d="M13.9427 27.8864C21.6427 27.8864 27.8927 21.6464 27.8927 13.9464C27.8927 6.2464 21.6427 -0.0036 13.9427 -0.0036C6.2527 -0.0036 0.0027 6.2464 0.0027 13.9464C0.0027 21.6464 6.2527 27.8864 13.9427 27.8864ZM13.9427 25.5664C7.5227 25.5664 2.3227 20.3664 2.3227 13.9464C2.3227 7.5164 7.5227 2.3264 13.9427 2.3264C20.3727 2.3264 25.5627 7.5164 25.5627 13.9464C25.5627 20.3664 20.3727 25.5664 13.9427 25.5664ZM7.2727 8.7464C7.1527 9.3764 7.0727 10.1964 7.0727 10.7464C7.0727 15.3664 9.8127 18.4464 14.0127 18.4464C16.1227 18.4464 17.3527 17.4864 17.9327 16.8064C18.4527 17.4964 18.7627 18.2764 19.0827 19.3364C19.1727 19.6164 19.3827 19.7264 19.5927 19.7264C20.0427 19.7264 20.4227 19.3364 20.4227 18.7864C20.4227 17.9364 19.2127 16.4464 18.5527 15.8564C15.8327 13.3664 11.7327 14.8364 10.6627 12.0764C10.5827 11.8664 10.8027 11.6864 11.0327 11.8764C13.2327 13.8064 15.8727 12.2464 18.5527 14.6664C18.7727 14.8764 19.0027 14.7664 19.0627 14.5564C19.0827 14.3664 19.1027 14.0864 19.1027 13.8064C19.1027 10.7964 16.9927 9.3564 14.0427 9.3564C13.0427 9.3564 11.9127 9.5964 10.9927 9.5964C9.9927 9.5964 8.8827 9.4764 7.9827 8.5564C7.7227 8.2964 7.3527 8.3264 7.2727 8.7464Z"
        fillRule="evenodd"
        clipRule="evenodd"
    />
</svg>
        