
<svg
    viewBox={0 0 27.890625 27.890625}
    xmlns="http://www.w3.org/2000/svg"
>
    <path
        fill="inherit"
        d="M13.9427 27.8864C21.6427 27.8864 27.8927 21.6264 27.8927 13.9464C27.8927 6.2464 21.6427 -0.0036 13.9427 -0.0036C6.2627 -0.0036 0.0027 6.2464 0.0027 13.9464C0.0027 21.6264 6.2627 27.8864 13.9427 27.8864ZM7.0827 8.5864C7.1627 8.1464 7.5427 8.1164 7.8227 8.3964C8.7527 9.3364 9.9027 9.4564 10.9227 9.4564C11.8627 9.4564 13.0327 9.1964 14.0727 9.1964C17.1027 9.1964 19.2727 10.6864 19.2727 13.7964C19.2727 14.0864 19.2627 14.3864 19.2327 14.5764C19.1827 14.7764 18.9327 14.9064 18.7127 14.6864C15.9527 12.1964 13.2327 13.7964 10.9627 11.8164C10.7227 11.6164 10.5027 11.7964 10.5827 12.0064C11.6727 14.8564 15.9127 13.3464 18.7127 15.9164C19.3827 16.5164 20.6427 18.0564 20.6427 18.9364C20.6427 19.4964 20.2527 19.9064 19.7827 19.9064C19.5827 19.9064 19.3427 19.7964 19.2627 19.4964C18.9227 18.4064 18.6227 17.6064 18.0727 16.8864C17.4627 17.6664 16.1427 18.5764 14.0427 18.5764C9.7027 18.5764 6.8727 15.4064 6.8727 10.6464C6.8727 10.0764 6.9627 9.2264 7.0827 8.5864Z"
        fillRule="evenodd"
        clipRule="evenodd"
    />
</svg>
        