
<svg
    viewBox={0 0 29.517578125 25.08091594642488}
    xmlns="http://www.w3.org/2000/svg"
>
    <path
        fill="inherit"
        d="M0.3927 0.7974C0.1127 2.1974 0.0027 4.0174 0.0027 5.2274C0.0027 15.4574 6.0827 22.2074 15.3827 22.2074C20.0027 22.2074 22.7527 20.1074 24.0327 18.6174C25.1827 20.1874 25.8427 21.9274 26.5627 24.1874C26.7727 24.8474 27.2227 25.0774 27.7027 25.0774C28.7127 25.0774 29.5127 24.2074 29.5127 23.0074C29.5127 21.1174 26.8127 17.8374 25.4027 16.5074C19.4127 10.9874 10.2927 14.2574 7.9427 8.1574C7.7627 7.6874 8.2627 7.2774 8.7127 7.7474C13.4227 12.4574 19.4927 8.4874 25.4027 13.9274C25.8627 14.3374 26.4127 14.1174 26.4927 13.6274C26.5627 13.2274 26.6027 12.5974 26.6027 11.9974C26.6027 5.3274 21.9527 2.1074 15.4227 2.1074C13.2327 2.1074 10.6827 2.6474 8.6727 2.6474C6.4627 2.6474 3.9927 2.4674 2.0227 0.3574C1.4627 -0.2126 0.6127 -0.1326 0.3927 0.7974Z"
        fillRule="evenodd"
        clipRule="evenodd"
    />
</svg>
        