
<svg
    viewBox="0 0 27.890625 27.890625"
    xmlns="http://www.w3.org/2000/svg"
>
    <path
        fill="inherit"
        d="M13.9427 27.8864C21.6427 27.8864 27.8927 21.6264 27.8927 13.9464C27.8927 6.2464 21.6427 -0.0036 13.9427 -0.0036C6.2627 -0.0036 0.0027 6.2464 0.0027 13.9464C0.0027 21.6264 6.2627 27.8864 13.9427 27.8864ZM11.3227 20.2364C10.5927 20.2364 10.2027 19.7164 10.2027 18.9664V8.4864C10.2027 7.7364 10.5927 7.2064 11.3227 7.2064C12.0727 7.2064 12.4727 7.7064 12.4727 8.4864V18.3764H17.8127C18.3627 18.3764 18.7627 18.7264 18.7627 19.3064C18.7627 19.8764 18.3627 20.2364 17.8127 20.2364Z"
        fillRule="evenodd"
        clipRule="evenodd"
    />
</svg>
        