
<svg
    viewBox="0 0 25.169921875 25.169921875"
    xmlns="http://www.w3.org/2000/svg"
>
    <path
        fill="inherit"
        d="M4.2937 25.1692H20.8737C23.7437 25.1692 25.1737 23.7592 25.1737 20.9492V4.2392C25.1737 1.4192 23.7437 -0.0008 20.8737 -0.0008H4.2937C1.4337 -0.0008 0.0037 1.4192 0.0037 4.2392V20.9492C0.0037 23.7592 1.4337 25.1692 4.2937 25.1692ZM15.8337 15.1992C15.6637 15.1992 15.5037 15.1592 15.1937 15.0092L8.2037 11.8992C7.5037 11.6092 7.2737 11.1692 7.2737 10.5592C7.2737 10.0092 7.5237 9.5392 8.2037 9.2292L15.1937 6.1092C15.5037 5.9792 15.6637 5.9492 15.8337 5.9492C16.4437 5.9492 16.8837 6.4292 16.8837 6.9492C16.8837 7.3592 16.6437 7.7392 16.2237 7.9392L10.3537 10.5392V10.5792L16.2237 13.2092C16.6437 13.3692 16.8837 13.7492 16.8837 14.1792C16.8837 14.6992 16.4437 15.1992 15.8337 15.1992ZM7.1137 18.3892C7.1137 17.8292 7.5737 17.3592 8.1637 17.3592H16.3137C16.8937 17.3592 17.3537 17.8292 17.3537 18.3892C17.3537 18.9092 16.8937 19.4092 16.3137 19.4092H8.1637C7.5737 19.4092 7.1137 18.9092 7.1137 18.3892Z"
        fillRule="evenodd"
        clipRule="evenodd"
    />
</svg>
        