<svg viewBox="0 0 25.169921875 25.169921875" xmlns="http://www.w3.org/2000/svg"><path d="M4.2937 25.1692H20.8737C23.7437 25.1692 25.1737 23.7592 25.1737 20.9492V4.2392C25.1737 1.4192 23.7437 -0.0008 20.8737 -0.0008H4.2937C1.4337 -0.0008 0.0037 1.4192 0.0037 4.2392V20.9492C0.0037 23.7592 1.4337 25.1692 4.2937 25.1692ZM4.3237 22.9692C2.9537 22.9692 2.2037 22.2392 2.2037 20.8192V4.3592C2.2037 2.9392 2.9537 2.1992 4.3237 2.1992H20.8537C22.2037 2.1992 22.9737 2.9392 22.9737 4.3592V20.8192C22.9737 22.2392 22.2037 22.9692 20.8537 22.9692ZM16.1237 18.1692C16.7737 18.1692 17.2537 17.7092 17.2537 17.0792C17.2537 16.5592 17.0337 16.2592 16.4637 15.9792L9.5337 12.5792V12.4992L16.4637 9.0092C17.0237 8.7392 17.2537 8.4092 17.2537 7.8992C17.2537 7.2892 16.7937 6.8192 16.1437 6.8192C15.8637 6.8192 15.6837 6.8792 15.4637 6.9892L7.3137 11.3792C6.7637 11.6792 6.5037 12.0592 6.5037 12.5792C6.5037 13.1392 6.7437 13.4792 7.3137 13.7792L15.4637 18.0192C15.6637 18.1192 15.8637 18.1692 16.1237 18.1692Z" /></svg>