
<svg
    viewBox="0 0 25.169921875 25.169921875"
    xmlns="http://www.w3.org/2000/svg"
>
    <path
        fill="inherit"
        d="M4.2937 25.1692H20.8737C23.7437 25.1692 25.1737 23.7592 25.1737 20.9492V4.2392C25.1737 1.4192 23.7437 -0.0008 20.8737 -0.0008H4.2937C1.4337 -0.0008 0.0037 1.4192 0.0037 4.2392V20.9492C0.0037 23.7592 1.4337 25.1692 4.2937 25.1692ZM4.3237 22.9692C2.9537 22.9692 2.2037 22.2392 2.2037 20.8192V4.3592C2.2037 2.9392 2.9537 2.1992 4.3237 2.1992H20.8537C22.2037 2.1992 22.9737 2.9392 22.9737 4.3592V20.8192C22.9737 22.2392 22.2037 22.9692 20.8537 22.9692ZM15.7337 15.1192C16.3337 15.1192 16.7437 14.6392 16.7437 14.1392C16.7437 13.7292 16.5137 13.3592 16.1237 13.1892L10.4037 10.6492V10.6092L16.1237 8.0792C16.5137 7.8892 16.7437 7.5192 16.7437 7.1192C16.7437 6.6192 16.3337 6.1492 15.7337 6.1492C15.5837 6.1492 15.4237 6.1792 15.1237 6.3192L8.3437 9.3392C7.6837 9.6392 7.4337 10.0892 7.4337 10.6192C7.4337 11.2092 7.6737 11.6392 8.3437 11.9092L15.1237 14.9392C15.4237 15.0792 15.5837 15.1192 15.7337 15.1192ZM7.2837 18.2092C7.2837 18.7192 7.7337 19.2092 8.3037 19.2092H16.2037C16.7637 19.2092 17.2037 18.7192 17.2037 18.2092C17.2037 17.6792 16.7637 17.2292 16.2037 17.2292H8.3037C7.7337 17.2292 7.2837 17.6792 7.2837 18.2092Z"
        fillRule="evenodd"
        clipRule="evenodd"
    />
</svg>
        