
<svg
    viewBox="0 0 27.890625 27.890625"
    xmlns="http://www.w3.org/2000/svg"
>
    <path
        fill="inherit"
        d="M13.9427 27.8864C21.6427 27.8864 27.8927 21.6264 27.8927 13.9464C27.8927 6.2464 21.6427 -0.0036 13.9427 -0.0036C6.2627 -0.0036 0.0027 6.2464 0.0027 13.9464C0.0027 21.6264 6.2627 27.8864 13.9427 27.8864ZM17.6127 19.7264C17.3227 19.7264 17.1427 19.6564 16.9227 19.5664L8.5127 15.1864C7.9327 14.8864 7.6827 14.5364 7.6827 13.9464C7.6827 13.4164 7.9527 13.0164 8.5127 12.6964L16.9227 8.1764C17.1627 8.0664 17.3227 7.9964 17.6327 7.9964C18.3027 7.9964 18.7827 8.4864 18.7827 9.1164C18.7827 9.6564 18.5427 9.9964 17.9627 10.2664L10.8127 13.8664V13.9464L17.9627 17.4564C18.5527 17.7364 18.7827 18.0464 18.7827 18.5964C18.7827 19.2364 18.2927 19.7264 17.6127 19.7264Z"
        fillRule="evenodd"
        clipRule="evenodd"
    />
</svg>
        