
<svg
    viewBox={0 0 16.556640625 22.75}
    xmlns="http://www.w3.org/2000/svg"
>
    <path
        fill="inherit"
        d="M14.6837 15.7914C15.3637 15.7914 15.8437 15.3114 15.8437 14.5614C15.8437 13.9314 15.4937 13.5914 14.9537 13.3414L3.2237 7.8714V7.7214L14.9537 2.4614C15.5037 2.2114 15.8437 1.8414 15.8437 1.2214C15.8437 0.4914 15.3537 0.0014 14.6337 0.0014C14.2737 0.0014 14.0137 0.0914 13.7637 0.2214L1.3937 6.1014C0.6037 6.4714 0.0037 7.0414 0.0037 7.9014C0.0037 8.7814 0.6037 9.3214 1.3937 9.7114L13.7637 15.5614C14.0437 15.6914 14.3037 15.7914 14.6837 15.7914ZM0.0037 21.5214C0.0037 22.2014 0.5637 22.7514 1.2137 22.7514H15.3437C15.9937 22.7514 16.5537 22.2014 16.5537 21.5214C16.5537 20.8514 15.9937 20.3014 15.3437 20.3014H1.2137C0.5637 20.3014 0.0037 20.8514 0.0037 21.5214Z"
        fillRule="evenodd"
        clipRule="evenodd"
    />
</svg>
        