
<svg
    viewBox={0 0 25.169921875 25.169921875}
    xmlns="http://www.w3.org/2000/svg"
>
    <path
        fill="inherit"
        d="M4.2937 25.1692H20.8737C23.7437 25.1692 25.1737 23.7592 25.1737 20.9492V4.2392C25.1737 1.4192 23.7437 -0.0008 20.8737 -0.0008H4.2937C1.4337 -0.0008 0.0037 1.4192 0.0037 4.2392V20.9492C0.0037 23.7592 1.4337 25.1692 4.2937 25.1692ZM16.2537 18.3592C15.9837 18.3592 15.7937 18.2892 15.5737 18.1992L7.1637 13.8192C6.5737 13.5192 6.3337 13.1692 6.3337 12.5792C6.3337 12.0492 6.6037 11.6492 7.1637 11.3292L15.5737 6.8092C15.8037 6.6992 15.9837 6.6292 16.2837 6.6292C16.9537 6.6292 17.4337 7.1192 17.4337 7.7492C17.4337 8.2892 17.1837 8.6292 16.6137 8.8992L9.4637 12.4992V12.5792L16.6137 16.0892C17.2037 16.3692 17.4337 16.6792 17.4337 17.2292C17.4337 17.8692 16.9437 18.3592 16.2537 18.3592Z"
        fillRule="evenodd"
        clipRule="evenodd"
    />
</svg>
        