
<svg
    viewBox="0 0 27.890625 27.890625"
    xmlns="http://www.w3.org/2000/svg"
>
    <path
        fill="inherit"
        d="M13.9427 27.8864C21.6427 27.8864 27.8927 21.6464 27.8927 13.9464C27.8927 6.2464 21.6427 -0.0036 13.9427 -0.0036C6.2527 -0.0036 0.0027 6.2464 0.0027 13.9464C0.0027 21.6464 6.2527 27.8864 13.9427 27.8864ZM13.9427 25.5664C7.5227 25.5664 2.3227 20.3664 2.3227 13.9464C2.3227 7.5164 7.5227 2.3264 13.9427 2.3264C20.3727 2.3264 25.5627 7.5164 25.5627 13.9464C25.5627 20.3664 20.3727 25.5664 13.9427 25.5664ZM17.4627 19.5364C18.1127 19.5364 18.5927 19.0764 18.5927 18.4464C18.5927 17.9264 18.3727 17.6264 17.8027 17.3464L10.8727 13.9464V13.8664L17.8027 10.3764C18.3627 10.1064 18.5927 9.7764 18.5927 9.2664C18.5927 8.6564 18.1327 8.1864 17.4827 8.1864C17.1827 8.1864 17.0227 8.2464 16.8027 8.3564L8.6527 12.7464C8.1027 13.0464 7.8427 13.4264 7.8427 13.9464C7.8427 14.5064 8.0827 14.8464 8.6527 15.1464L16.8027 19.3864C17.0127 19.4864 17.1827 19.5364 17.4627 19.5364Z"
        fillRule="evenodd"
        clipRule="evenodd"
    />
</svg>
        