
<svg
    viewBox={0 0 27.890625 27.890625}
    xmlns="http://www.w3.org/2000/svg"
>
    <path
        fill="inherit"
        d="M13.9427 27.8864C21.6427 27.8864 27.8927 21.6464 27.8927 13.9464C27.8927 6.2464 21.6427 -0.0036 13.9427 -0.0036C6.2527 -0.0036 0.0027 6.2464 0.0027 13.9464C0.0027 21.6464 6.2527 27.8864 13.9427 27.8864ZM13.9427 25.5664C7.5227 25.5664 2.3227 20.3664 2.3227 13.9464C2.3227 7.5164 7.5227 2.3264 13.9427 2.3264C20.3727 2.3264 25.5627 7.5164 25.5627 13.9464C25.5627 20.3664 20.3727 25.5664 13.9427 25.5664ZM17.0727 16.4864C17.6827 16.4864 18.0927 16.0064 18.0927 15.5064C18.0927 15.0964 17.8527 14.7264 17.4627 14.5564L11.7327 12.0164V11.9764L17.4627 9.4464C17.8527 9.2564 18.0927 8.8864 18.0927 8.4864C18.0927 7.9864 17.6827 7.5164 17.0727 7.5164C16.9227 7.5164 16.7627 7.5464 16.4427 7.6864L9.6627 10.7064C9.0227 11.0064 8.7727 11.4564 8.7727 11.9864C8.7727 12.5764 9.0127 13.0064 9.6627 13.2764L16.4427 16.3064C16.7627 16.4464 16.9227 16.4864 17.0727 16.4864ZM8.6227 19.5764C8.6227 20.0864 9.0827 20.5764 9.6427 20.5764H17.5427C18.1027 20.5764 18.5427 20.0864 18.5427 19.5764C18.5427 19.0464 18.1027 18.5964 17.5427 18.5964H9.6427C9.0827 18.5964 8.6227 19.0464 8.6227 19.5764Z"
        fillRule="evenodd"
        clipRule="evenodd"
    />
</svg>
        