
<svg
    viewBox={0 0 33.44140625 14.8203125}
    xmlns="http://www.w3.org/2000/svg"
>
    <path
        fill="inherit"
        d="M3.7037 14.8176H29.7337C32.1837 14.8176 33.4437 13.5576 33.4437 11.1376V3.6776C33.4437 1.2576 32.1737 -0.0024 29.7237 -0.0024H3.6937C1.2437 -0.0024 0.0037 1.2576 0.0037 3.6776V11.1376C0.0037 13.5576 1.2537 14.8176 3.7037 14.8176ZM4.0337 12.6176C2.8737 12.6176 2.2037 11.9776 2.2037 10.7476V4.0776C2.2037 2.8476 2.8737 2.1976 4.0437 2.1976H5.5637V12.6176ZM16.7237 8.0376C20.6137 8.0376 23.5437 5.7376 24.1137 2.1976H26.5637V12.6176H6.8737V2.1976H9.3237C9.8937 5.7376 12.8237 8.0376 16.7237 8.0376ZM16.7237 4.7676C18.4537 4.7676 19.7537 3.7576 20.0437 2.1976H22.6537C22.1637 4.9876 19.8137 6.7976 16.7237 6.7976C13.6337 6.7976 11.2837 4.9876 10.7837 2.1976H13.3837C13.6737 3.7576 14.9837 4.7676 16.7237 4.7676ZM29.3937 2.1976C30.5737 2.1976 31.2237 2.8476 31.2237 4.0776V10.7476C31.2237 11.9776 30.5737 12.6176 29.3837 12.6176H27.8737V2.1976Z"
        fillRule="evenodd"
        clipRule="evenodd"
    />
</svg>
        