
<svg
    viewBox={0 0 34.685546875 22.55859375}
    xmlns="http://www.w3.org/2000/svg"
>
    <path
        fill="inherit"
        d="M4.2937 22.5567H30.3937C33.2637 22.5567 34.6837 21.1367 34.6837 18.3167V4.2367C34.6837 1.4267 33.2637 -0.0033 30.3937 -0.0033H4.2937C1.4337 -0.0033 0.0037 1.4067 0.0037 4.2367V18.3167C0.0037 21.1367 1.4337 22.5567 4.2937 22.5567ZM21.2037 15.8367C20.7637 15.8367 20.4237 15.5467 20.4237 15.0767C20.4237 14.8567 20.4837 14.6567 20.7537 14.2767L22.4237 11.7867C23.0737 10.8467 23.5037 10.0067 23.5037 9.1967C23.5037 8.5167 23.2837 7.9867 22.7337 7.9867C22.2537 7.9867 22.0537 8.4267 21.9337 9.0267C21.8237 9.5267 21.5737 9.7567 21.1537 9.7567C20.7037 9.7567 20.4137 9.4167 20.4137 8.9967C20.4137 7.9867 21.3237 6.5367 22.7537 6.5367C24.2537 6.5367 25.1337 7.6167 25.1337 9.1767C25.1337 10.3467 24.4837 11.4267 23.7937 12.4167L22.4537 14.3667H24.5537C24.9237 14.3667 25.2537 14.6867 25.2537 15.0967C25.2537 15.4867 24.9237 15.8367 24.5537 15.8367ZM28.4937 15.9967C26.7037 15.9967 25.9337 14.5567 25.9337 13.6767C25.9337 13.3167 26.1837 12.9067 26.7137 12.9067C27.1637 12.9067 27.3737 13.2367 27.4637 13.5067C27.6437 14.2167 28.0037 14.5367 28.4937 14.5367C29.1337 14.5367 29.4037 14.0167 29.4037 13.2067C29.4037 12.3067 29.0937 11.8567 28.2437 11.8567H28.0037C27.6037 11.8567 27.3137 11.5567 27.3137 11.1567C27.3137 10.7767 27.6037 10.4867 28.0037 10.4867H28.2437C28.9537 10.4867 29.2437 9.8467 29.2437 9.1867C29.2437 8.4667 28.9437 7.9967 28.4337 7.9967C27.9837 7.9967 27.7437 8.3767 27.5737 9.0067C27.4537 9.4167 27.1837 9.6267 26.7837 9.6267C26.3637 9.6267 26.0537 9.3067 26.0537 8.8867C26.0537 7.5867 27.0837 6.5667 28.4337 6.5667C30.0637 6.5667 30.8437 7.7967 30.8437 9.0467C30.8437 9.8667 30.4637 10.6767 29.8837 11.0767C30.6637 11.3767 31.0637 12.2667 31.0637 13.2467C31.0637 14.8067 30.0537 15.9967 28.4937 15.9967ZM4.2237 15.9567C3.6737 15.9567 3.4037 15.5967 3.4037 15.1367C3.4037 14.9867 3.4437 14.7967 3.4737 14.6667L5.1137 7.6167C5.2637 6.9467 5.6737 6.6067 6.2737 6.6067C6.9737 6.6067 7.3837 6.9867 7.5037 7.5967L9.1637 14.6867C9.1837 14.7967 9.2037 14.9967 9.2037 15.1367C9.2037 15.5967 8.8837 15.9567 8.4037 15.9567C7.9337 15.9567 7.6437 15.6767 7.5637 15.2167L7.2637 13.7167H5.3737L5.0537 15.2067C4.9937 15.6367 4.6937 15.9567 4.2237 15.9567ZM18.5137 15.9267C18.0237 15.9267 17.6737 15.5467 17.6737 15.0267V8.6267L17.0237 9.1767C16.9137 9.2567 16.7337 9.3267 16.5837 9.3267C16.2137 9.3267 15.9237 9.0467 15.9237 8.6667C15.9237 8.4367 16.0737 8.2067 16.3137 7.9967L17.3337 7.1067C17.7437 6.7767 18.0437 6.6167 18.4337 6.6167C18.9737 6.6167 19.3737 7.0167 19.3737 7.5467V15.0267C19.3737 15.5467 19.0137 15.9267 18.5137 15.9267ZM10.8737 15.9567C10.3637 15.9567 10.0637 15.6367 10.0637 15.1067V7.5867C10.0637 7.1267 10.3337 6.7367 10.8737 6.7367H12.7437C14.3837 6.7367 15.1937 8.2667 15.1937 9.8167C15.1937 11.5567 14.2237 12.8767 12.6337 12.8767H11.6937V15.1067C11.6937 15.6367 11.3737 15.9567 10.8737 15.9567ZM11.6937 11.5767H12.3137C13.2037 11.5767 13.5337 10.7567 13.5337 9.8167C13.5337 8.8867 13.2337 8.0567 12.3137 8.0567H11.6937ZM5.5637 12.3867H7.0537L6.3037 8.8067Z"
        fillRule="evenodd"
        clipRule="evenodd"
    />
</svg>
        