<svg viewBox="0 0 34.685546875 22.55859375" xmlns="http://www.w3.org/2000/svg"><path d="M4.2937 22.5567H30.3937C33.2637 22.5567 34.6837 21.1367 34.6837 18.3167V4.2367C34.6837 1.4267 33.2637 -0.0033 30.3937 -0.0033H4.2937C1.4337 -0.0033 0.0037 1.4067 0.0037 4.2367V18.3167C0.0037 21.1367 1.4337 22.5567 4.2937 22.5567ZM4.3237 20.3567C2.9537 20.3567 2.2037 19.6167 2.2037 18.1967V4.3467C2.2037 2.9267 2.9537 2.1967 4.3237 2.1967H30.3637C31.7037 2.1967 32.4837 2.9267 32.4837 4.3467V18.1967C32.4837 19.6167 31.7037 20.3567 30.3637 20.3567ZM21.0837 15.6967H24.3337C24.6937 15.6967 25.0037 15.3667 25.0037 14.9867C25.0037 14.5867 24.6937 14.2867 24.3337 14.2867H22.2837L23.5837 12.3767C24.2637 11.4167 24.8837 10.3767 24.8837 9.2267C24.8837 7.7267 24.0337 6.6767 22.5837 6.6767C21.2037 6.6767 20.3137 8.0767 20.3137 9.0667C20.3137 9.4767 20.5937 9.8067 21.0237 9.8067C21.4337 9.8067 21.6737 9.5667 21.7837 9.0967C21.9037 8.5067 22.0937 8.0667 22.5737 8.0667C23.1037 8.0667 23.3237 8.5867 23.3237 9.2567C23.3237 10.0367 22.9037 10.8567 22.2737 11.7667L20.6437 14.1867C20.3837 14.5567 20.3337 14.7667 20.3337 14.9667C20.3337 15.4267 20.6537 15.6967 21.0837 15.6967ZM28.1537 15.8567C29.6637 15.8567 30.6537 14.6967 30.6537 13.1967C30.6537 12.2367 30.2537 11.3767 29.5037 11.0767C30.0637 10.6867 30.4337 9.9167 30.4337 9.1167C30.4337 7.8867 29.6837 6.6967 28.0937 6.6967C26.7837 6.6967 25.8037 7.6967 25.8037 8.9567C25.8037 9.3667 26.0837 9.6667 26.4937 9.6667C26.8837 9.6667 27.1437 9.4767 27.2637 9.0767C27.4137 8.4667 27.6537 8.0767 28.0937 8.0767C28.6037 8.0767 28.8937 8.5267 28.8937 9.2467C28.8937 9.8867 28.6137 10.5167 27.9137 10.5167H27.6737C27.2937 10.5167 27.0137 10.7867 27.0137 11.1567C27.0137 11.5367 27.2937 11.8267 27.6737 11.8267H27.9137C28.7337 11.8267 29.0537 12.2767 29.0537 13.1567C29.0537 13.9267 28.7837 14.4467 28.1537 14.4467C27.6737 14.4467 27.3337 14.1367 27.1537 13.4367C27.0537 13.1767 26.8637 12.8667 26.4237 12.8667C25.9037 12.8667 25.6737 13.2567 25.6737 13.6067C25.6737 14.4667 26.4137 15.8567 28.1537 15.8567ZM4.6037 15.8167C5.0537 15.8167 5.3437 15.5167 5.4137 15.0967L5.7237 13.6267H7.5637L7.8637 15.1067C7.9437 15.5567 8.2137 15.8167 8.6837 15.8167C9.1337 15.8167 9.4437 15.4767 9.4437 15.0267C9.4437 14.9067 9.4337 14.6967 9.4037 14.5867L7.7937 7.6967C7.6737 7.1067 7.2737 6.7367 6.6037 6.7367C6.0337 6.7367 5.6337 7.0667 5.4837 7.7067L3.8837 14.5767C3.8537 14.6967 3.8137 14.8867 3.8137 15.0267C3.8137 15.4767 4.0837 15.8167 4.6037 15.8167ZM18.4737 15.7867C18.9637 15.7867 19.3037 15.4267 19.3037 14.9267V7.6467C19.3037 7.1367 18.9237 6.7567 18.4037 6.7567C18.0337 6.7567 17.7337 6.9067 17.3337 7.2167L16.3337 8.0967C16.1237 8.2867 15.9737 8.5167 15.9737 8.7367C15.9737 9.1067 16.2537 9.3767 16.6137 9.3767C16.7437 9.3767 16.9237 9.3067 17.0337 9.2267L17.6737 8.6967V14.9267C17.6737 15.4267 18.0037 15.7867 18.4737 15.7867ZM11.0637 15.8167C11.5537 15.8167 11.8537 15.5167 11.8537 14.9967V12.8267H12.7737C14.3137 12.8267 15.2537 11.5367 15.2537 9.8567C15.2537 8.3567 14.4637 6.8667 12.8837 6.8667H11.0637C10.5437 6.8667 10.2837 7.2367 10.2837 7.6867V14.9967C10.2837 15.5167 10.5637 15.8167 11.0637 15.8167ZM11.8537 11.5667V8.1367H12.4737C13.3537 8.1367 13.6537 8.9567 13.6537 9.8567C13.6537 10.7767 13.3337 11.5667 12.4737 11.5667ZM5.9037 12.3567L6.6337 8.8567L7.3737 12.3567Z" /></svg>