
<svg
    viewBox="0 0 27.890625 27.890625"
    xmlns="http://www.w3.org/2000/svg"
>
    <path
        fill="inherit"
        d="M13.9427 27.8927C21.6427 27.8927 27.8927 21.6427 27.8927 13.9427C27.8927 6.2627 21.6427 0.0027 13.9427 0.0027C6.2627 0.0027 0.0027 6.2627 0.0027 13.9427C0.0027 21.6427 6.2627 27.8927 13.9427 27.8927ZM4.5627 7.0827C5.2627 6.0927 6.0927 5.2527 7.0727 4.5527L9.7727 7.2627C8.7727 7.9027 7.8927 8.7627 7.2627 9.7727ZM23.3227 7.0927L20.6127 9.7927C20.0027 8.7727 19.1127 7.9127 18.1127 7.2727L20.8227 4.5627C21.7927 5.2627 22.6227 6.1227 23.3227 7.0927ZM13.9627 19.0027C11.1427 19.0027 8.8827 16.7327 8.8827 13.9327C8.8827 11.1327 11.1427 8.8627 13.9627 8.8627C16.7627 8.8627 19.0127 11.1327 19.0127 13.9327C19.0127 16.7327 16.7627 19.0027 13.9627 19.0027ZM23.3227 20.7427C22.6427 21.7127 21.7927 22.5727 20.8327 23.2727L18.1127 20.5627C19.1227 19.9227 20.0027 19.0627 20.6327 18.0427ZM4.5827 20.7527L7.2727 18.0627C7.9027 19.0727 8.7727 19.9327 9.7727 20.5727L7.0727 23.2827C6.1127 22.5827 5.2627 21.7427 4.5827 20.7527Z"
        fillRule="evenodd"
        clipRule="evenodd"
    />
</svg>
        