
<svg
    viewBox="0 0 27.890625 27.890625"
    xmlns="http://www.w3.org/2000/svg"
>
    <path
        fill="inherit"
        d="M13.9427 27.8864C21.6427 27.8864 27.8927 21.6464 27.8927 13.9464C27.8927 6.2464 21.6427 -0.0036 13.9427 -0.0036C6.2527 -0.0036 0.0027 6.2464 0.0027 13.9464C0.0027 21.6464 6.2527 27.8864 13.9427 27.8864ZM13.9427 6.6264C12.6727 6.6264 11.4827 6.9564 10.4427 7.5364L7.3127 4.3864C9.1827 3.0864 11.4827 2.3264 13.9427 2.3264C16.4327 2.3264 18.7327 3.0864 20.6127 4.4164L17.4827 7.5464C16.4327 6.9564 15.2327 6.6264 13.9427 6.6264ZM2.3227 13.9464C2.3227 11.4964 3.0727 9.2164 4.3727 7.3464L7.5027 10.4764C6.9427 11.5164 6.6327 12.6864 6.6327 13.9464C6.6327 15.2264 6.9727 16.4464 7.5427 17.4864L4.4327 20.6164C3.1027 18.7264 2.3227 16.4364 2.3227 13.9464ZM21.2627 13.9464C21.2627 12.6964 20.9427 11.5364 20.4027 10.5164L23.5427 7.3864C24.8127 9.2464 25.5627 11.4964 25.5627 13.9464C25.5627 16.4164 24.8027 18.7064 23.4927 20.5864L20.3527 17.4564C20.9327 16.4164 21.2627 15.2164 21.2627 13.9464ZM13.9427 18.9464C11.1827 18.9464 8.9427 16.7064 8.9427 13.9464C8.9427 11.1864 11.1827 8.9364 13.9427 8.9364C16.7027 8.9364 18.9527 11.1864 18.9527 13.9464C18.9527 16.7064 16.7027 18.9464 13.9427 18.9464ZM13.9427 25.5664C11.5127 25.5664 9.2527 24.8164 7.3827 23.5464L10.5227 20.3964C11.5427 20.9464 12.7127 21.2564 13.9427 21.2564C15.1927 21.2564 16.3827 20.9464 17.4027 20.3864L20.5327 23.5164C18.6627 24.8164 16.3927 25.5664 13.9427 25.5664Z"
        fillRule="evenodd"
        clipRule="evenodd"
    />
</svg>
        