
<svg
    viewBox={0 0 33.60213345970649 23.43359375}
    xmlns="http://www.w3.org/2000/svg"
>
    <path
        fill="inherit"
        d="M32.5403 2.1462C33.1103 2.1363 33.6003 1.6563 33.6003 1.0763C33.6003 0.5162 33.1203 0.0162 32.5403 0.0162L6.1203 -0.0038C5.5303 -0.0038 5.0503 0.5063 5.0503 1.0763C5.0503 1.6563 5.5503 2.1363 6.1203 2.1363H8.9803C9.3803 7.7663 13.4903 11.6063 19.3403 11.6063C25.1703 11.6063 29.2803 7.7663 29.6903 2.1462ZM0.3103 13.1663C0.7803 13.6163 1.3803 13.6263 1.8303 13.1763L8.3203 6.6863C8.0103 5.9763 7.7603 5.2263 7.5803 4.4063L0.3203 11.6663C-0.0997 12.1163 -0.1097 12.7263 0.3103 13.1663ZM3.6203 16.4763C4.0803 16.9263 4.7003 16.9563 5.1503 16.4862L11.1403 10.4863C10.6103 10.0262 10.1303 9.4863 9.6903 8.9163L3.6303 14.9663C3.2103 15.4263 3.1803 16.0363 3.6203 16.4763ZM6.9403 19.7963C7.3903 20.2362 8.0103 20.2362 8.4603 19.7963L15.4303 12.8063C14.6803 12.5963 13.9403 12.3063 13.2903 11.9462L6.9403 18.2763C6.5203 18.7263 6.5003 19.3363 6.9403 19.7963ZM10.2503 23.1063C10.7003 23.5463 11.3203 23.5463 11.7703 23.1063L21.6903 13.1663C20.4903 13.3863 19.9603 13.3463 18.5403 13.3463L10.2503 21.6063C9.8103 22.0363 9.8103 22.6563 10.2503 23.1063Z"
        fillRule="evenodd"
        clipRule="evenodd"
    />
</svg>
        