<svg viewBox="0 0 32.59375 18.169921875" xmlns="http://www.w3.org/2000/svg"><path d="M16.2927 3.4955C17.2627 3.4955 18.0427 2.7255 18.0427 1.7455C18.0427 0.7755 17.2627 -0.0045 16.2927 -0.0045C15.3227 -0.0045 14.5427 0.7755 14.5427 1.7455C14.5427 2.7255 15.3227 3.4955 16.2927 3.4955ZM5.4727 8.2155C6.4427 8.2155 7.2227 7.4355 7.2227 6.4655C7.2227 5.4955 6.4427 4.7155 5.4727 4.7155C4.5127 4.7155 3.7327 5.4955 3.7327 6.4655C3.7327 7.4355 4.5127 8.2155 5.4727 8.2155ZM27.1227 8.2155C28.0927 8.2155 28.8727 7.4355 28.8727 6.4655C28.8727 5.4955 28.0927 4.7155 27.1227 4.7155C26.1527 4.7155 25.3727 5.4955 25.3727 6.4655C25.3727 7.4355 26.1527 8.2155 27.1227 8.2155ZM1.7527 18.1655C2.7227 18.1655 3.5027 17.3955 3.5027 16.4155C3.5027 15.4455 2.7227 14.6655 1.7527 14.6655C0.7827 14.6655 0.0027 15.4455 0.0027 16.4155C0.0027 17.3955 0.7827 18.1655 1.7527 18.1655ZM30.8427 18.1655C31.8127 18.1655 32.5927 17.3955 32.5927 16.4155C32.5927 15.4455 31.8127 14.6655 30.8427 14.6655C29.8727 14.6655 29.0927 15.4455 29.0927 16.4155C29.0927 17.3955 29.8727 18.1655 30.8427 18.1655ZM10.8327 17.7455H21.7627C22.4327 17.7455 22.9927 17.1855 22.9927 16.5255C22.9927 15.8555 22.4327 15.3255 21.7627 15.3255H10.8327C10.1427 15.3255 9.5927 15.8755 9.5927 16.5255C9.5927 17.1855 10.1627 17.7455 10.8327 17.7455Z" /></svg>