
<svg
    viewBox="0 0 33.994505625797814 30.91025841711852"
    xmlns="http://www.w3.org/2000/svg"
>
    <path
        fill="inherit"
        d="M2.2826 17.5795C3.0726 18.9495 4.2726 19.2295 5.6126 18.4695L23.4026 8.1995C24.5126 7.5595 24.9526 6.6295 24.6326 5.5695L26.2326 4.6395C26.6526 4.4095 26.7526 4.0195 26.5026 3.5895C26.2926 3.2095 25.8526 3.0995 25.4726 3.3195L23.9326 4.1895L22.8526 2.3195L24.3926 1.4295C24.7726 1.2095 24.8826 0.7595 24.6626 0.3895C24.4526 0.0195 23.9926 -0.1105 23.6226 0.1095L22.0126 1.0395C21.2526 0.1995 20.2426 0.1195 19.1426 0.7795L1.3226 11.0595C-0.0274 11.8195 -0.3674 12.9995 0.4226 14.3795ZM18.4726 6.0895C18.1626 5.5695 18.3426 4.8995 18.8626 4.5995C19.3926 4.2995 20.0626 4.4795 20.3726 5.0095C20.6726 5.5295 20.4926 6.1995 19.9626 6.4995C19.4426 6.7995 18.7726 6.6295 18.4726 6.0895ZM14.9426 8.1295C14.6426 7.6095 14.8126 6.9395 15.3326 6.6395C15.8726 6.3395 16.5426 6.5195 16.8426 7.0395C17.1426 7.5595 16.9626 8.2395 16.4326 8.5395C15.9126 8.8395 15.2426 8.6495 14.9426 8.1295ZM11.4126 10.1695C11.1126 9.6495 11.3026 8.9795 11.8226 8.6595C12.3426 8.3595 13.0126 8.5495 13.3126 9.0695C13.6126 9.5895 13.4326 10.2595 12.9126 10.5595C12.3926 10.8695 11.7326 10.6895 11.4126 10.1695ZM7.9026 12.1895C7.6026 11.6695 7.7726 11.0195 8.3126 10.7095C8.8326 10.3995 9.5126 10.5795 9.8126 11.0995C10.1126 11.6295 9.9226 12.2895 9.4026 12.5895C8.8726 12.8895 8.2026 12.7195 7.9026 12.1895ZM7.0826 19.1495H14.0626L26.5026 11.9595H19.5226ZM10.3926 30.7895L12.0126 29.8395C12.7626 30.6295 13.7926 30.7295 14.9026 30.0995L32.6826 19.8295C34.0226 19.0495 34.3526 17.8395 33.5926 16.4795L31.7326 13.2895C30.9326 11.8995 29.7426 11.6195 28.4026 12.4095L10.5926 22.6895C9.4826 23.3195 9.0526 24.2395 9.3726 25.3195L7.7726 26.2295C7.3926 26.4495 7.2826 26.9195 7.5026 27.2895C7.7226 27.6495 8.1626 27.7795 8.5326 27.5595L10.0726 26.6695L11.1526 28.5595L9.6126 29.4495C9.2226 29.6595 9.1326 30.0995 9.3526 30.4795C9.5926 30.9095 9.9926 31.0295 10.3926 30.7895ZM4.3726 14.2295C4.0726 13.7095 4.2526 13.0395 4.7826 12.7395C5.3026 12.4395 5.9726 12.6195 6.2726 13.1295C6.5826 13.6695 6.3926 14.3195 5.8726 14.6195C5.3426 14.9295 4.6726 14.7595 4.3726 14.2295ZM27.7326 17.7295C27.4326 17.2095 27.6026 16.5495 28.1326 16.2495C28.6626 15.9395 29.3226 16.1195 29.6226 16.6295C29.9226 17.1695 29.7626 17.8195 29.2326 18.1195C28.6926 18.4395 28.0426 18.2595 27.7326 17.7295ZM24.2126 19.7695C23.8926 19.2495 24.0826 18.5895 24.6226 18.2895C25.1426 17.9695 25.8126 18.1495 26.1126 18.6695C26.4126 19.1995 26.2326 19.8595 25.7126 20.1595C25.1826 20.4795 24.5126 20.2995 24.2126 19.7695ZM20.6926 21.7995C20.3926 21.2795 20.5726 20.6095 21.0926 20.3095C21.6126 19.9995 22.2926 20.1895 22.5926 20.7095C22.8926 21.2295 22.7026 21.8995 22.1826 22.1995C21.6626 22.5095 20.9926 22.3195 20.6926 21.7995ZM17.1726 23.8295C16.8726 23.3095 17.0626 22.6395 17.5826 22.3395C18.1026 22.0395 18.7726 22.2095 19.0726 22.7495C19.3726 23.2695 19.1926 23.9195 18.6726 24.2395C18.1526 24.5395 17.4726 24.3595 17.1726 23.8295ZM13.6426 25.8595C13.3426 25.3395 13.5326 24.6695 14.0526 24.3595C14.5726 24.0595 15.2426 24.2495 15.5426 24.7695C15.8426 25.2895 15.6626 25.9695 15.1426 26.2695C14.6226 26.5695 13.9426 26.3795 13.6426 25.8595Z"
        fillRule="evenodd"
        clipRule="evenodd"
    />
</svg>
        