
<svg
    viewBox={0 0 32.168532631416355 30.791623272865472}
    xmlns="http://www.w3.org/2000/svg"
>
    <path
        fill="inherit"
        d="M1.3226 10.8983C-0.0274 11.6783 -0.3674 12.8883 0.4226 14.2583L2.3926 17.6783C2.9526 18.6483 3.7426 18.9883 4.6826 18.9883H14.7126L8.6426 22.4983C7.4926 23.1683 7.0926 24.1483 7.4626 25.2483L5.8926 26.1583C5.4626 26.3983 5.3526 26.7983 5.6126 27.2183C5.8226 27.5983 6.2726 27.7283 6.6526 27.5083L8.1826 26.6183L9.2526 28.4783L7.7226 29.3783C7.3526 29.5983 7.2126 30.0383 7.4526 30.4183C7.6526 30.7783 8.1226 30.8983 8.4826 30.6883L10.0726 29.7883C10.8526 30.7083 11.8926 30.8283 13.0526 30.1583L30.8526 19.9083C32.1926 19.1283 32.5326 17.8983 31.7526 16.5383L29.7726 13.1283C29.2426 12.1983 28.4726 11.8083 27.5426 11.8083H17.4426L23.5226 8.2983C24.6726 7.6283 25.0726 6.6583 24.7026 5.5483L26.2726 4.6383C26.7026 4.3983 26.8126 4.0083 26.5526 3.5783C26.3426 3.1883 25.8926 3.0783 25.5126 3.2983L23.9826 4.1683L22.9126 2.3083L24.4426 1.4183C24.8126 1.1983 24.9526 0.7483 24.7126 0.3783C24.5126 0.0083 24.0426 -0.1117 23.6726 0.1083L22.0926 0.9983C21.3226 0.0983 20.2726 -0.0417 19.1226 0.6383ZM2.3326 12.3483L19.8726 2.2283C20.3226 1.9583 20.7326 2.0783 21.0226 2.5683L22.8426 5.6883C23.1126 6.1483 22.9926 6.5883 22.5126 6.8583L5.0026 16.9683C4.5326 17.2383 4.1026 17.1183 3.8226 16.6383L2.0326 13.5483C1.7626 13.0583 1.8526 12.6183 2.3326 12.3483ZM18.3426 6.1783C18.6226 6.6983 19.2626 6.8583 19.7626 6.5883C20.2826 6.2883 20.4526 5.6483 20.1626 5.1283C19.8626 4.6183 19.2326 4.4583 18.7326 4.7283C18.2126 5.0583 18.0626 5.6683 18.3426 6.1783ZM14.9426 8.1483C15.2126 8.6483 15.8426 8.8283 16.3526 8.5583C16.8826 8.2583 17.0726 7.5983 16.7426 7.1183C16.4726 6.5883 15.8126 6.4383 15.3126 6.7283C14.7926 7.0283 14.6426 7.6383 14.9426 8.1483ZM11.5126 10.1483C11.8126 10.6383 12.4626 10.7883 12.9626 10.5283C13.4526 10.2083 13.6326 9.5683 13.3426 9.0883C13.0426 8.5683 12.3826 8.3983 11.9226 8.6783C11.4026 8.9983 11.2126 9.6283 11.5126 10.1483ZM8.0926 12.1083C8.3926 12.6083 9.0326 12.7683 9.5526 12.4983C10.0626 12.1983 10.2326 11.5383 9.9126 11.0583C9.6626 10.5383 9.0026 10.3583 8.4826 10.6583C7.9826 10.9383 7.8026 11.6083 8.0926 12.1083ZM4.6826 14.0783C4.9726 14.5883 5.6026 14.7383 6.1526 14.4683C6.6326 14.1583 6.7926 13.5183 6.5226 13.0283C6.2226 12.5083 5.5926 12.3483 5.0826 12.6183C4.5526 12.9083 4.4026 13.5783 4.6826 14.0783ZM8.1026 17.2283L14.3926 13.5783H24.0326L17.7526 17.2283ZM9.6526 23.9383L27.1626 13.8183C27.6326 13.5483 28.0626 13.6683 28.3426 14.1483L30.1326 17.2483C30.4026 17.7483 30.3126 18.1783 29.8326 18.4583L12.3026 28.5583C11.8326 28.8283 11.4226 28.7083 11.1426 28.2283L9.3326 25.0983C9.0526 24.6383 9.1726 24.2083 9.6526 23.9383ZM25.6426 17.7683C25.9426 18.2883 26.5726 18.4583 27.0826 18.1683C27.6126 17.8783 27.7626 17.2283 27.4826 16.7183C27.1926 16.2183 26.5626 16.0483 26.0126 16.3383C25.5326 16.6383 25.3726 17.2783 25.6426 17.7683ZM22.2726 19.7383C22.5126 20.2583 23.1526 20.4383 23.6926 20.1383C24.1826 19.8683 24.3626 19.1983 24.0726 18.6883C23.7726 18.1983 23.1326 18.0183 22.6226 18.3083C22.1026 18.6083 21.9226 19.2583 22.2726 19.7383ZM18.8226 21.7083C19.1226 22.2283 19.7826 22.3983 20.2426 22.1083C20.7626 21.8083 20.9526 21.1783 20.6526 20.6583C20.3726 20.1683 19.7026 19.9983 19.2026 20.2783C18.7126 20.5883 18.5326 21.2283 18.8226 21.7083ZM15.4226 23.6683C15.6926 24.2083 16.3626 24.3583 16.8526 24.0783C17.3726 23.7783 17.5226 23.1583 17.2226 22.6483C16.9526 22.1383 16.3226 21.9683 15.8126 22.2383C15.2926 22.5483 15.0926 23.1883 15.4226 23.6683ZM12.0026 25.6783C12.3026 26.1683 12.9426 26.3483 13.4326 26.0683C13.9526 25.7383 14.1026 25.1183 13.8226 24.6083C13.5426 24.0983 12.9026 23.9383 12.3926 24.2083C11.8926 24.5083 11.7126 25.1583 12.0026 25.6783Z"
        fillRule="evenodd"
        clipRule="evenodd"
    />
</svg>
        