
<svg
    viewBox={0 0 24.662375998802162 31.814453125}
    xmlns="http://www.w3.org/2000/svg"
>
    <path
        fill="inherit"
        d="M12.9696 -0.0047C10.0296 -0.0047 7.4696 1.2153 5.7896 3.1353L7.2496 4.5953C8.5596 3.0253 10.6596 2.0653 12.9696 2.0653C16.8096 2.0653 20.0496 4.7353 20.0496 8.4253C20.0496 10.9053 18.9996 12.2053 17.9196 15.2453L19.5996 16.9353C20.7696 13.5853 22.1096 11.8553 22.1096 8.4253C22.1096 3.7053 18.0796 -0.0047 12.9696 -0.0047ZM22.8596 25.4253C23.2896 25.8653 23.9496 25.8553 24.3596 25.4253C24.7696 25.0153 24.7696 24.3653 24.3596 23.9353L1.7996 1.3853C1.3896 0.9553 0.6996 0.9853 0.2896 1.3853C-0.1004 1.7753 -0.0904 2.4853 0.2896 2.8753ZM8.6896 24.8953H17.2296C17.7696 24.8953 18.0796 24.5953 18.0896 24.0853L18.1996 23.2153L16.7396 21.8653L16.6196 22.8353H9.7096C8.9996 16.9353 7.6096 14.6153 6.9896 12.2753C6.9396 12.0853 6.8996 11.8953 6.8696 11.7053L3.8696 8.7053C3.8496 9.0553 3.8596 9.3753 3.8896 9.7053C4.3296 13.9453 7.0296 15.7253 7.8296 24.0853C7.8796 24.5853 8.1496 24.8953 8.6896 24.8953ZM8.6296 27.8453H17.2896C17.7396 27.8453 18.0896 27.4953 18.0896 27.0453C18.0896 26.6053 17.7396 26.2453 17.2896 26.2453H8.6296C8.1796 26.2453 7.8396 26.6053 7.8396 27.0453C7.8396 27.4953 8.1796 27.8453 8.6296 27.8453ZM12.9696 31.8153C15.0696 31.8153 16.8496 30.7753 16.9696 29.2053H8.9496C9.0396 30.7753 10.8296 31.8153 12.9696 31.8153Z"
        fillRule="evenodd"
        clipRule="evenodd"
    />
</svg>
        