
<svg
    viewBox="0 0 28.505859375 25.716796875"
    xmlns="http://www.w3.org/2000/svg"
>
    <path
        fill="inherit"
        d="M14.2637 2.8409C15.0437 2.8409 15.6637 2.2109 15.6637 1.4209C15.6637 0.6409 15.0437 0.0009 14.2637 0.0009C13.4637 0.0009 12.8337 0.6409 12.8337 1.4209C12.8337 2.2109 13.4637 2.8409 14.2637 2.8409ZM4.6437 6.0709C5.4437 6.0709 6.0737 5.4309 6.0737 4.6509C6.0737 3.8509 5.4437 3.2309 4.6437 3.2309C3.8737 3.2309 3.2237 3.8509 3.2237 4.6509C3.2237 5.4309 3.8737 6.0709 4.6437 6.0709ZM23.8537 6.0709C24.6537 6.0709 25.2837 5.4309 25.2837 4.6509C25.2837 3.8509 24.6537 3.2309 23.8537 3.2309C23.0637 3.2309 22.4337 3.8509 22.4337 4.6509C22.4337 5.4309 23.0637 6.0709 23.8537 6.0709ZM24.7637 25.7209C25.3637 25.7209 25.8837 25.2209 25.8837 24.6209C25.8837 24.0109 25.3637 23.5009 24.7637 23.5009H23.0937V14.4409C23.0937 9.4509 19.2337 5.5909 14.2637 5.5909C9.2737 5.5909 5.4437 9.4509 5.4437 14.4409V23.5009H3.7437C3.1437 23.5009 2.6637 24.0109 2.6637 24.6209C2.6637 25.2209 3.1437 25.7209 3.7437 25.7209ZM1.4237 15.6509C2.2137 15.6509 2.8437 15.0209 2.8437 14.2509C2.8437 13.4509 2.2137 12.8209 1.4237 12.8209C0.6337 12.8209 0.0037 13.4509 0.0037 14.2509C0.0037 15.0209 0.6337 15.6509 1.4237 15.6509ZM27.0937 15.6509C27.8737 15.6509 28.5037 15.0209 28.5037 14.2509C28.5037 13.4509 27.8737 12.8209 27.0937 12.8209C26.3037 12.8209 25.6737 13.4509 25.6737 14.2509C25.6737 15.0209 26.3037 15.6509 27.0937 15.6509ZM15.4037 14.4809V23.5009H13.1237V14.4809C13.1237 13.8509 13.6337 13.3309 14.2637 13.3309C14.8937 13.3309 15.4037 13.8509 15.4037 14.4809Z"
        fillRule="evenodd"
        clipRule="evenodd"
    />
</svg>
        