
<svg
    viewBox={0 0 44.611328125 26.71484375}
    xmlns="http://www.w3.org/2000/svg"
>
    <path
        fill="inherit"
        d="M10.5237 13.0664C16.5037 13.0664 21.0237 10.2764 21.0237 6.5464C21.0237 2.8064 16.5037 -0.0036 10.5237 -0.0036C4.5437 -0.0036 0.0037 2.7864 0.0037 6.5464C0.0037 10.2964 4.5437 13.0664 10.5237 13.0664ZM34.1137 13.0664C40.0537 13.0664 44.6137 10.2764 44.6137 6.5464C44.6137 2.8064 40.0537 -0.0036 34.1137 -0.0036C28.1137 -0.0036 23.5837 2.7864 23.5837 6.5464C23.5837 10.2964 28.1137 13.0664 34.1137 13.0664ZM10.5137 10.3864C6.7137 10.3864 3.9237 8.8164 3.9237 6.7164C3.9237 4.5664 6.7137 2.9964 10.5137 2.9964C14.3437 2.9964 17.1337 4.5664 17.1337 6.7164C17.1337 8.8164 14.3437 10.3864 10.5137 10.3864ZM34.0837 10.3864C30.2837 10.3864 27.4937 8.8164 27.4937 6.7164C27.4937 4.5664 30.2837 2.9964 34.0837 2.9964C37.9137 2.9964 40.6837 4.5664 40.6837 6.7164C40.6837 8.8164 37.9137 10.3864 34.0837 10.3864ZM10.5137 7.3464C12.4837 7.3464 14.2737 6.5364 15.1637 5.3364C14.1937 4.6164 12.4137 4.1464 10.5137 4.1464C8.5837 4.1464 6.8237 4.6164 5.8537 5.3764C6.7537 6.5364 8.5537 7.3464 10.5137 7.3464ZM34.0937 7.3464C36.0537 7.3464 37.8537 6.5364 38.7437 5.3364C37.7637 4.6164 35.9837 4.1464 34.0937 4.1464C32.1537 4.1464 30.3937 4.6164 29.4337 5.3764C30.3237 6.5364 32.1337 7.3464 34.0937 7.3464ZM22.3037 26.7164C28.2737 26.7164 32.8037 23.9164 32.8037 20.1764C32.8037 16.4364 28.2737 13.6464 22.3037 13.6464C16.3137 13.6464 11.7737 16.4164 11.7737 20.1764C11.7737 23.9264 16.3137 26.7164 22.3037 26.7164ZM22.2837 24.0364C18.4837 24.0364 15.6937 22.4664 15.6937 20.3264C15.6937 18.2064 18.4837 16.6264 22.2837 16.6264C26.1037 16.6264 28.9037 18.2064 28.9037 20.3264C28.9037 22.4664 26.1037 24.0364 22.2837 24.0364ZM22.2837 20.9564C24.2537 20.9564 26.0537 20.1764 26.9337 18.9764C25.9637 18.2564 24.1837 17.7864 22.2837 17.7864C20.3737 17.7864 18.5937 18.2564 17.6237 19.0164C18.5137 20.1764 20.3337 20.9564 22.2837 20.9564Z"
        fillRule="evenodd"
        clipRule="evenodd"
    />
</svg>
        