<svg viewBox="0 0 38.759765625 23.392578125" xmlns="http://www.w3.org/2000/svg"><path d="M19.3627 23.3942C30.9027 23.3942 38.7627 18.1042 38.7627 11.7042C38.7627 5.3042 30.9027 0.0042 19.3627 0.0042C7.8427 0.0042 0.0027 5.3042 0.0027 11.7042C0.0027 18.1042 7.8427 23.3942 19.3627 23.3942ZM19.3627 21.3442C9.1027 21.3442 2.0527 16.8842 2.0527 11.7042C2.0527 6.5242 9.1027 2.0642 19.3627 2.0642C29.6427 2.0642 36.7127 6.5242 36.7127 11.7042C36.7127 16.8842 29.6427 21.3442 19.3627 21.3442ZM19.3627 19.2742C26.6627 19.2742 32.2227 16.2242 32.2227 12.0742C32.2227 7.9342 26.6727 4.8942 19.3627 4.8942C12.0827 4.8942 6.5527 7.9342 6.5527 12.0742C6.5527 16.2442 12.0827 19.2742 19.3627 19.2742ZM19.3627 17.2142C13.3527 17.2142 8.6127 14.8642 8.6127 12.0742C8.6127 10.9942 9.3227 9.9842 10.5427 9.1442C12.1927 11.3742 15.5327 12.9042 19.3427 12.9042C23.1427 12.9042 26.4927 11.3642 28.1327 9.0942C29.4127 9.9442 30.1627 10.9742 30.1627 12.0742C30.1627 14.8642 25.3727 17.2142 19.3627 17.2142Z" /></svg>