<svg viewBox="0 0 24.662375998802162 31.814453125" xmlns="http://www.w3.org/2000/svg"><path d="M12.9696 -0.0047C10.0296 -0.0047 7.4696 1.2153 5.7896 3.1353L19.5996 16.9353C20.7696 13.5853 22.1096 11.8553 22.1096 8.4253C22.1096 3.7053 18.0796 -0.0047 12.9696 -0.0047ZM22.8596 25.4253C23.2896 25.8653 23.9496 25.8553 24.3596 25.4253C24.7696 25.0153 24.7696 24.3653 24.3596 23.9353L1.7996 1.3853C1.3896 0.9553 0.6996 0.9853 0.2896 1.3853C-0.1004 1.7753 -0.0904 2.4853 0.2896 2.8753ZM8.6896 24.8953H17.2296C17.7696 24.8953 18.0396 24.5853 18.0896 24.0853C18.1196 23.7053 18.1796 23.3653 18.2196 23.0653L3.8696 8.7053C3.8596 9.1453 3.8696 9.5653 3.9296 9.9853C4.4396 14.0453 7.0496 15.9053 7.8296 24.0853C7.8796 24.5853 8.1496 24.8953 8.6896 24.8953ZM8.6296 27.8453H17.2896C17.7396 27.8453 18.0896 27.4953 18.0896 27.0453C18.0896 26.6053 17.7396 26.2453 17.2896 26.2453H8.6296C8.1796 26.2453 7.8396 26.6053 7.8396 27.0453C7.8396 27.4953 8.1796 27.8453 8.6296 27.8453ZM12.9696 31.8153C15.0696 31.8153 16.8496 30.7753 16.9696 29.2053H8.9496C9.0396 30.7753 10.8296 31.8153 12.9696 31.8153Z" /></svg>