<svg viewBox="0 0 22.271484375 30.966796875" xmlns="http://www.w3.org/2000/svg"><path d="M0.0037 5.4677C0.0037 10.2277 7.3237 14.1477 7.3237 22.2077V23.3777C7.3237 23.8577 7.5837 24.1177 8.0837 24.1177H14.1937C14.6837 24.1177 14.9437 23.8577 14.9437 23.3777V22.2077C14.9437 14.1077 22.2737 10.3377 22.2737 5.4677C22.2737 1.9577 18.1837 -0.0023 11.1437 -0.0023C4.0837 -0.0023 0.0037 1.9577 0.0037 5.4677ZM2.0637 5.4677C2.0637 3.5677 5.1537 2.0677 11.1437 2.0677C17.1137 2.0677 20.2037 3.5677 20.2037 5.4677C20.2037 5.7677 20.1537 6.0677 20.0437 6.3977H2.2237C2.1237 6.0677 2.0637 5.7677 2.0637 5.4677ZM9.3837 21.5577C9.3837 15.6777 5.2137 11.3477 3.1737 8.1877H19.1137C17.0637 11.3477 12.8937 15.6677 12.8937 21.5577V22.0577H9.3837ZM7.7837 27.0677H14.5037C14.9437 27.0677 15.3037 26.7277 15.3037 26.2777C15.3037 25.8277 14.9437 25.4877 14.5037 25.4877H7.7837C7.3237 25.4877 6.9737 25.8277 6.9737 26.2777C6.9737 26.7277 7.3237 27.0677 7.7837 27.0677ZM11.1437 30.9677C12.9837 30.9677 14.3037 29.9777 14.5837 28.4277H7.6837C7.9437 29.9777 9.2537 30.9677 11.1437 30.9677Z" /></svg>