
<svg
    viewBox={0 0 27.275390625 28.765625}
    xmlns="http://www.w3.org/2000/svg"
>
    <path
        fill="inherit"
        d="M13.6337 28.7639C21.8337 28.7639 27.2737 25.9639 27.2737 21.6139V7.6739C27.2737 3.0039 21.8237 0.0039 13.6337 0.0039C5.4537 0.0039 0.0037 3.0039 0.0037 7.6739V21.6139C0.0037 25.9639 5.4437 28.7639 13.6337 28.7639ZM2.2037 21.6139C2.2037 18.7439 6.8237 16.6639 13.6337 16.6639C20.4437 16.6639 25.0737 18.7439 25.0737 21.6139C25.0737 24.4839 20.4437 26.5639 13.6337 26.5639C6.8237 26.5639 2.2037 24.4839 2.2037 21.6139ZM7.9437 18.6039C8.0237 20.6139 10.5237 22.2739 13.6337 22.2739C16.7337 22.2739 19.2537 20.6139 19.3337 18.6039C17.7337 18.2139 15.7937 17.9739 13.6337 17.9739C11.4837 17.9739 9.5337 18.2139 7.9437 18.6039Z"
        fillRule="evenodd"
        clipRule="evenodd"
    />
</svg>
        