
<svg
    viewBox={0 0 44.611328125 26.71484375}
    xmlns="http://www.w3.org/2000/svg"
>
    <path
        fill="inherit"
        d="M10.5237 13.0664C16.5037 13.0664 21.0237 10.2764 21.0237 6.5464C21.0237 2.8064 16.5037 -0.0036 10.5237 -0.0036C4.5437 -0.0036 0.0037 2.7864 0.0037 6.5464C0.0037 10.2964 4.5437 13.0664 10.5237 13.0664ZM34.1137 13.0864C40.0537 13.0864 44.6137 10.2964 44.6137 6.5664C44.6137 2.8164 40.0537 0.0164 34.1137 0.0164C28.1137 0.0164 23.5837 2.8064 23.5837 6.5664C23.5837 10.3064 28.1137 13.0864 34.1137 13.0864ZM10.5137 10.5664C6.5737 10.5664 3.6937 8.9364 3.6937 6.7364C3.6937 4.5164 6.5737 2.8864 10.5137 2.8864C14.4637 2.8864 17.3637 4.5164 17.3637 6.7364C17.3637 8.9264 14.4637 10.5664 10.5137 10.5664ZM34.0837 10.5864C30.1437 10.5864 27.2637 8.9564 27.2637 6.7564C27.2637 4.5264 30.1437 2.8964 34.0837 2.8964C38.0337 2.8964 40.9237 4.5264 40.9237 6.7564C40.9237 8.9364 38.0337 10.5864 34.0837 10.5864ZM4.9337 6.7364C4.9337 8.1464 7.4237 9.3364 10.5037 9.3364C13.6037 9.3364 16.1237 8.1464 16.1237 6.7364C16.1237 6.1664 15.7637 5.6864 15.1637 5.2864C14.2737 6.4664 12.5137 7.2464 10.5037 7.2464C8.4937 7.2464 6.7237 6.4764 5.7937 5.3064C5.2637 5.6964 4.9337 6.1764 4.9337 6.7364ZM28.5037 6.7564C28.5037 8.1664 30.9937 9.3564 34.0737 9.3564C37.1737 9.3564 39.6937 8.1664 39.6937 6.7564C39.6937 6.1764 39.3337 5.6964 38.7337 5.2864C37.8437 6.4764 36.0937 7.2564 34.0737 7.2564C32.0637 7.2564 30.2937 6.4964 29.3537 5.3164C28.8337 5.7164 28.5037 6.1964 28.5037 6.7564ZM22.3237 26.7164C28.3037 26.7164 32.8237 23.9164 32.8237 20.1764C32.8237 16.4364 28.3037 13.6464 22.3237 13.6464C16.3337 13.6464 11.8037 16.4164 11.8037 20.1764C11.8037 23.9264 16.3337 26.7164 22.3237 26.7164ZM22.3137 24.2164C18.3637 24.2164 15.4937 22.5764 15.4937 20.3564C15.4937 18.1464 18.3637 16.5164 22.3137 16.5164C26.2637 16.5164 29.1637 18.1464 29.1637 20.3564C29.1637 22.5564 26.2637 24.2164 22.3137 24.2164ZM16.7337 20.3564C16.7337 21.7964 19.2137 22.9664 22.3037 22.9664C25.4037 22.9664 27.9137 21.7964 27.9137 20.3564C27.9137 19.8064 27.5537 19.3364 26.9637 18.9264C26.0737 20.1064 24.3037 20.8664 22.3037 20.8664C20.2937 20.8664 18.5137 20.1264 17.5837 18.9464C17.0637 19.3364 16.7337 19.8264 16.7337 20.3564Z"
        fillRule="evenodd"
        clipRule="evenodd"
    />
</svg>
        