
<svg
    viewBox={0 0 32.361328125 27.658203125}
    xmlns="http://www.w3.org/2000/svg"
>
    <path
        fill="inherit"
        d="M14.9937 3.8123C14.9937 4.4523 15.5337 5.0023 16.1737 5.0023C16.8337 5.0023 17.3637 4.4523 17.3637 3.8123V1.1923C17.3637 0.5423 16.8137 0.0023 16.1737 0.0023C15.5337 0.0023 14.9937 0.5423 14.9937 1.1923ZM6.5937 8.2723C7.0437 8.7223 7.7937 8.7323 8.2437 8.2723C8.7137 7.8023 8.6937 7.0723 8.2437 6.6123L6.3937 4.7623C5.9637 4.2923 5.1937 4.2923 4.7337 4.7623C4.2837 5.2223 4.2837 5.9423 4.7337 6.4123ZM24.0937 6.6123C23.6437 7.0723 23.6237 7.8023 24.0937 8.2723C24.5637 8.7323 25.2937 8.7223 25.7437 8.2723L27.6137 6.4123C28.0637 5.9423 28.0637 5.2223 27.6137 4.7623C27.1437 4.2923 26.4137 4.2923 25.9637 4.7623ZM26.6737 27.6623C27.2937 27.6623 27.7937 27.1623 27.7937 26.5623C27.7937 25.9523 27.2937 25.4423 26.6737 25.4423H25.0037V16.3823C25.0037 11.3923 21.1637 7.5323 16.1737 7.5323C11.1937 7.5323 7.3537 11.3923 7.3537 16.3823V25.4423H5.6637C5.0537 25.4423 4.5837 25.9523 4.5837 26.5623C4.5837 27.1623 5.0537 27.6623 5.6637 27.6623ZM17.2837 16.6823C17.2837 16.0823 16.7737 15.5723 16.1737 15.5723C15.5737 15.5723 15.0937 16.0823 15.0937 16.6823V25.4423H9.5537V16.3823C9.5537 12.6023 12.4137 9.7323 16.1737 9.7323C19.9437 9.7323 22.8037 12.6023 22.8037 16.3823V25.4423H17.2837ZM3.7837 17.3623C4.4337 17.3623 4.9937 16.8323 4.9937 16.2023C4.9937 15.5423 4.4337 15.0123 3.7837 15.0123H1.1637C0.5337 15.0123 0.0037 15.5623 0.0037 16.2023C0.0037 16.8123 0.5337 17.3623 1.1637 17.3623ZM31.1737 17.3623C31.8137 17.3623 32.3637 16.8123 32.3637 16.2023C32.3637 15.5623 31.8137 15.0123 31.1737 15.0123H28.5437C27.9137 15.0123 27.3737 15.5423 27.3737 16.2023C27.3737 16.8323 27.9137 17.3623 28.5437 17.3623Z"
        fillRule="evenodd"
        clipRule="evenodd"
    />
</svg>
        