
<svg
    viewBox="0 0 27.890625 27.890625"
    xmlns="http://www.w3.org/2000/svg"
>
    <path
        fill="inherit"
        d="M13.9427 27.8864C21.6427 27.8864 27.8927 21.6464 27.8927 13.9464C27.8927 6.2464 21.6427 -0.0036 13.9427 -0.0036C6.2527 -0.0036 0.0027 6.2464 0.0027 13.9464C0.0027 21.6464 6.2527 27.8864 13.9427 27.8864ZM13.9427 25.5664C7.5227 25.5664 2.3227 20.3664 2.3227 13.9464C2.3227 7.5164 7.5227 2.3264 13.9427 2.3264C20.3727 2.3264 25.5627 7.5164 25.5627 13.9464C25.5627 20.3664 20.3727 25.5664 13.9427 25.5664ZM9.1727 9.9964C9.1727 12.7164 10.9827 13.3864 11.2627 18.1064C11.2927 18.3764 11.4427 18.5364 11.6927 18.5364H16.1427C16.4227 18.5364 16.5827 18.3764 16.5927 18.1064C16.8727 13.3864 18.6927 12.7864 18.6927 10.0664C18.6927 7.6064 16.5827 5.6764 13.9227 5.6764C11.2627 5.6764 9.1727 7.5364 9.1727 9.9964ZM11.8527 20.3564H16.0127C16.3127 20.3564 16.5727 20.0964 16.5727 19.7964C16.5727 19.4964 16.3127 19.2464 16.0127 19.2464H11.8527C11.5527 19.2464 11.3027 19.4964 11.3027 19.7964C11.3027 20.0964 11.5527 20.3564 11.8527 20.3564ZM13.9327 22.2064C14.9127 22.2064 15.6427 21.7564 15.7227 21.0564H12.1427C12.2127 21.7564 12.9427 22.2064 13.9327 22.2064Z"
        fillRule="evenodd"
        clipRule="evenodd"
    />
</svg>
        