
<svg
    viewBox="0 0 28.505859375 35.615234375"
    xmlns="http://www.w3.org/2000/svg"
>
    <path
        fill="inherit"
        d="M14.2637 2.8471C15.0437 2.8471 15.6637 2.2171 15.6637 1.4171C15.6637 0.6271 15.0437 -0.0029 14.2637 -0.0029C13.4637 -0.0029 12.8337 0.6271 12.8337 1.4171C12.8337 2.2171 13.4637 2.8471 14.2637 2.8471ZM4.6437 6.0571C5.4437 6.0571 6.0737 5.4271 6.0737 4.6371C6.0737 3.8571 5.4437 3.2271 4.6437 3.2271C3.8737 3.2271 3.2237 3.8571 3.2237 4.6371C3.2237 5.4271 3.8737 6.0571 4.6437 6.0571ZM23.8537 6.0571C24.6537 6.0571 25.2837 5.4271 25.2837 4.6371C25.2837 3.8571 24.6537 3.2271 23.8537 3.2271C23.0637 3.2271 22.4337 3.8571 22.4337 4.6371C22.4337 5.4271 23.0637 6.0571 23.8537 6.0571ZM14.2637 5.5871C9.4237 5.5871 5.6237 9.1071 5.6237 13.5771C5.6237 18.5271 8.5837 19.7571 9.4037 28.2971C9.4637 28.7771 9.7037 29.0771 10.2237 29.0771H18.2937C18.8037 29.0771 19.0537 28.7771 19.1037 28.2971C19.9237 19.7571 22.9037 18.5271 22.9037 13.5771C22.9037 9.1071 19.0837 5.5871 14.2637 5.5871ZM14.2637 7.5971C17.8437 7.5971 20.8937 10.1071 20.8937 13.5771C20.8937 17.2371 18.4537 18.0871 17.2837 27.0671H11.2337C10.0537 18.0871 7.6337 17.2371 7.6337 13.5771C7.6337 10.1071 10.6637 7.5971 14.2637 7.5971ZM1.4237 15.6571C2.2137 15.6571 2.8437 15.0271 2.8437 14.2371C2.8437 13.4571 2.2137 12.8271 1.4237 12.8271C0.6337 12.8271 0.0037 13.4571 0.0037 14.2371C0.0037 15.0271 0.6337 15.6571 1.4237 15.6571ZM27.0937 15.6571C27.8737 15.6571 28.5037 15.0271 28.5037 14.2371C28.5037 13.4571 27.8737 12.8271 27.0937 12.8271C26.3037 12.8271 25.6737 13.4571 25.6737 14.2371C25.6737 15.0271 26.3037 15.6571 27.0937 15.6571ZM10.1837 31.8671H18.3337C18.7837 31.8671 19.1237 31.5371 19.1237 31.0871C19.1237 30.6371 18.7837 30.3071 18.3337 30.3071H10.1837C9.7337 30.3071 9.4037 30.6371 9.4037 31.0871C9.4037 31.5371 9.7337 31.8671 10.1837 31.8671ZM14.2637 35.6171C16.2737 35.6171 17.9737 34.6071 18.0737 33.0971H10.4437C10.5237 34.6071 12.2337 35.6171 14.2637 35.6171Z"
        fillRule="evenodd"
        clipRule="evenodd"
    />
</svg>
        