
<svg
    viewBox={0 0 18.29296875 31.814453125}
    xmlns="http://www.w3.org/2000/svg"
>
    <path
        fill="inherit"
        d="M0.0037 8.4253C0.0037 13.6753 3.4637 14.9753 4.0237 24.0853C4.0437 24.5853 4.3437 24.8953 4.8637 24.8953H13.4237C13.9637 24.8953 14.2437 24.5853 14.2837 24.0853C14.8437 14.9753 18.2937 13.6753 18.2937 8.4253C18.2937 3.7053 14.2637 -0.0047 9.1437 -0.0047C4.0337 -0.0047 0.0037 3.7053 0.0037 8.4253ZM4.8237 27.8453H13.4837C13.9337 27.8453 14.2737 27.4953 14.2737 27.0453C14.2737 26.6053 13.9337 26.2453 13.4837 26.2453H4.8237C4.3737 26.2453 4.0237 26.6053 4.0237 27.0453C4.0237 27.4953 4.3737 27.8453 4.8237 27.8453ZM9.1437 31.8153C11.2637 31.8153 13.0337 30.7753 13.1637 29.2053H5.1437C5.2337 30.7753 7.0137 31.8153 9.1437 31.8153Z"
        fillRule="evenodd"
        clipRule="evenodd"
    />
</svg>
        