
<svg
    viewBox="0 0 32.34765625 37.556640625"
    xmlns="http://www.w3.org/2000/svg"
>
    <path
        fill="inherit"
        d="M14.9937 3.8185C14.9937 4.4385 15.5337 4.9885 16.1737 4.9885C16.8337 4.9885 17.3637 4.4385 17.3637 3.8185V1.1885C17.3637 0.5485 16.8137 -0.0015 16.1737 -0.0015C15.5337 -0.0015 14.9937 0.5485 14.9937 1.1885ZM6.5937 8.2685C7.0437 8.7185 7.7937 8.7385 8.2437 8.2685C8.7137 7.8085 8.6937 7.0685 8.2437 6.6185L6.3937 4.7485C5.9637 4.2885 5.1937 4.2885 4.7337 4.7485C4.2837 5.2185 4.2837 5.9485 4.7337 6.3985ZM24.0937 6.6185C23.6437 7.0685 23.6237 7.8085 24.0937 8.2685C24.5637 8.7385 25.2937 8.7185 25.7437 8.2685L27.6137 6.3985C28.0637 5.9485 28.0637 5.2185 27.6137 4.7485C27.1437 4.2885 26.4137 4.2885 25.9637 4.7485ZM16.1737 7.5285C11.3337 7.5285 7.5437 11.0485 7.5437 15.5185C7.5437 20.4685 10.5037 21.6985 11.3237 30.2385C11.3737 30.7185 11.6337 31.0185 12.1437 31.0185H20.2037C20.7137 31.0185 20.9737 30.7185 21.0137 30.2385C21.8437 21.6985 24.8137 20.4685 24.8137 15.5185C24.8137 11.0485 21.0037 7.5285 16.1737 7.5285ZM3.7837 17.3585C4.4337 17.3585 4.9937 16.8285 4.9937 16.1885C4.9937 15.5285 4.4337 14.9985 3.7837 14.9985H1.1637C0.5337 14.9985 0.0037 15.5485 0.0037 16.1885C0.0037 16.8185 0.5337 17.3585 1.1637 17.3585ZM31.1537 17.3585C31.8037 17.3585 32.3437 16.8185 32.3437 16.1885C32.3437 15.5485 31.8037 14.9985 31.1537 14.9985H28.5337C27.9037 14.9985 27.3537 15.5285 27.3537 16.1885C27.3537 16.8285 27.9037 17.3585 28.5337 17.3585ZM12.1037 33.8085H20.2437C20.7037 33.8085 21.0437 33.4785 21.0437 33.0285C21.0437 32.5785 20.7037 32.2485 20.2437 32.2485H12.1037C11.6637 32.2485 11.3237 32.5785 11.3237 33.0285C11.3237 33.4785 11.6637 33.8085 12.1037 33.8085ZM16.1737 37.5585C18.1837 37.5585 19.8937 36.5485 19.9837 35.0385H12.3637C12.4437 36.5485 14.1537 37.5585 16.1737 37.5585Z"
        fillRule="evenodd"
        clipRule="evenodd"
    />
</svg>
        