
<svg
    viewBox="0 0 38.759765625 23.392578125"
    xmlns="http://www.w3.org/2000/svg"
>
    <path
        fill="inherit"
        d="M19.3727 23.3942C30.9027 23.3942 38.7627 18.1042 38.7627 11.7042C38.7627 5.3042 30.9027 0.0042 19.3727 0.0042C7.8427 0.0042 0.0027 5.3042 0.0027 11.7042C0.0027 18.1042 7.8427 23.3942 19.3727 23.3942ZM19.3727 19.5542C11.8527 19.5542 6.2727 16.3742 6.2727 12.0742C6.2727 7.7942 11.8627 4.6242 19.3727 4.6242C26.8927 4.6242 32.5027 7.7942 32.5027 12.0742C32.5027 16.3642 26.8827 19.5542 19.3727 19.5542ZM19.3727 17.7642C25.7727 17.7642 30.7027 15.2042 30.7027 12.0742C30.7027 10.7842 29.8727 9.5942 28.4327 8.6542C26.9227 11.1542 23.3827 12.9042 19.3227 12.9042C15.2727 12.9042 11.7727 11.1842 10.2427 8.7042C8.8627 9.6542 8.0627 10.8042 8.0627 12.0742C8.0627 15.2042 12.9427 17.7642 19.3727 17.7642Z"
        fillRule="evenodd"
        clipRule="evenodd"
    />
</svg>
        