
<svg
    viewBox={0 0 23.802734375 34.138671875}
    xmlns="http://www.w3.org/2000/svg"
>
    <path
        fill="inherit"
        d="M0.0037 28.3173C0.0037 30.1373 1.0237 31.1573 2.8337 31.1573H7.5237C9.3237 31.1573 10.3637 30.1373 10.3637 28.2973V5.8073C10.3637 4.2273 9.5837 3.2373 8.2037 3.0073V0.9073C8.2037 0.3973 7.8037 -0.0027 7.3037 -0.0027C6.7937 -0.0027 6.3937 0.3973 6.3937 0.9073V2.9573H3.9637V0.9073C3.9637 0.3973 3.5537 -0.0027 3.0537 -0.0027C2.5437 -0.0027 2.1637 0.3973 2.1637 0.9073V3.0073C0.7637 3.2373 0.0037 4.2273 0.0037 5.7973ZM13.4237 28.3573C13.4237 29.9273 14.2037 30.9073 15.5837 31.1473V33.2473C15.5837 33.7573 15.9837 34.1373 16.4837 34.1373C16.9937 34.1373 17.3937 33.7573 17.3937 33.2473V31.1973H19.8337V33.2473C19.8337 33.7573 20.2237 34.1373 20.7237 34.1373C21.2337 34.1373 21.6437 33.7573 21.6437 33.2473V31.1473C23.0237 30.8973 23.8037 29.9273 23.8037 28.3373V5.8473C23.8037 4.0173 22.7637 2.9973 20.9437 2.9973H16.2737C14.4537 2.9973 13.4237 4.0173 13.4237 5.8373ZM2.0637 28.1273V5.9873C2.0637 5.3573 2.4337 5.0173 3.0637 5.0173H7.3137C7.9437 5.0173 8.3037 5.3573 8.3037 5.9873V28.1273C8.3037 28.7373 7.9437 29.0973 7.3137 29.0973H3.0637C2.4337 29.0973 2.0637 28.7373 2.0637 28.1273ZM15.4937 28.1673V6.0273C15.4937 5.3973 15.8637 5.0573 16.4837 5.0573H20.7537C21.3837 5.0573 21.7337 5.3973 21.7337 6.0273V28.1673C21.7337 28.7773 21.3837 29.1373 20.7537 29.1373H16.4837C15.8637 29.1373 15.4937 28.7773 15.4937 28.1673ZM5.1837 9.5973C5.8637 9.5973 6.4237 9.0373 6.4237 8.3573C6.4237 7.6673 5.8637 7.1073 5.1837 7.1073C4.4937 7.1073 3.9537 7.6673 3.9537 8.3573C3.9537 9.0373 4.4937 9.5973 5.1837 9.5973ZM18.6037 9.6073C19.3037 9.6073 19.8537 9.0473 19.8537 8.3673C19.8537 7.6873 19.3037 7.1273 18.6037 7.1273C17.9237 7.1273 17.3737 7.6873 17.3737 8.3673C17.3737 9.0473 17.9237 9.6073 18.6037 9.6073ZM5.1837 13.9473C5.8637 13.9473 6.4237 13.3973 6.4237 12.7173C6.4237 12.0173 5.8637 11.4673 5.1837 11.4673C4.4937 11.4673 3.9537 12.0173 3.9537 12.7173C3.9537 13.3973 4.4937 13.9473 5.1837 13.9473ZM18.6037 13.9773C19.3037 13.9773 19.8537 13.4073 19.8537 12.7273C19.8537 12.0473 19.3037 11.4873 18.6037 11.4873C17.9237 11.4873 17.3737 12.0473 17.3737 12.7273C17.3737 13.4073 17.9237 13.9773 18.6037 13.9773ZM5.1837 18.2973C5.8637 18.2973 6.4237 17.7473 6.4237 17.0673C6.4237 16.3773 5.8637 15.8273 5.1837 15.8273C4.4937 15.8273 3.9537 16.3773 3.9537 17.0673C3.9537 17.7473 4.4937 18.2973 5.1837 18.2973ZM18.6037 18.3173C19.3037 18.3173 19.8537 17.7773 19.8537 17.0873C19.8537 16.4073 19.3037 15.8473 18.6037 15.8473C17.9237 15.8473 17.3737 16.4073 17.3737 17.0873C17.3737 17.7773 17.9237 18.3173 18.6037 18.3173ZM5.1837 22.6673C5.8637 22.6673 6.4237 22.1073 6.4237 21.4273C6.4237 20.7373 5.8637 20.1773 5.1837 20.1773C4.4937 20.1773 3.9537 20.7373 3.9537 21.4273C3.9537 22.1073 4.4937 22.6673 5.1837 22.6673ZM18.6037 22.6773C19.3037 22.6773 19.8537 22.1173 19.8537 21.4373C19.8537 20.7573 19.3037 20.2073 18.6037 20.2073C17.9237 20.2073 17.3737 20.7573 17.3737 21.4373C17.3737 22.1173 17.9237 22.6773 18.6037 22.6773ZM5.1837 27.0173C5.8637 27.0173 6.4237 26.4673 6.4237 25.7873C6.4237 25.0873 5.8637 24.5373 5.1837 24.5373C4.4937 24.5373 3.9537 25.0873 3.9537 25.7873C3.9537 26.4673 4.4937 27.0173 5.1837 27.0173ZM18.6037 27.0473C19.3037 27.0473 19.8537 26.4873 19.8537 25.7973C19.8537 25.1173 19.3037 24.5573 18.6037 24.5573C17.9237 24.5573 17.3737 25.1173 17.3737 25.7973C17.3737 26.4873 17.9237 27.0473 18.6037 27.0473Z"
        fillRule="evenodd"
        clipRule="evenodd"
    />
</svg>
        