
<svg
    viewBox="0 0 20.04296875 30.2421875"
    xmlns="http://www.w3.org/2000/svg"
>
    <path
        fill="inherit"
        d="M4.2337 30.2422H15.8037C18.6237 30.2422 20.0437 28.8022 20.0437 25.9622V4.2922C20.0437 1.4322 18.6237 0.0022 15.8037 0.0022H4.2337C1.4037 0.0022 0.0037 1.4322 0.0037 4.2922V25.9622C0.0037 28.8022 1.4037 30.2422 4.2337 30.2422ZM4.3437 28.0422C2.9237 28.0422 2.2037 27.2922 2.2037 25.9222V4.3322C2.2037 2.9622 2.9237 2.2022 4.3437 2.2022H15.6837C17.1037 2.2022 17.8437 2.9622 17.8437 4.3322V25.9222C17.8437 27.2922 17.1037 28.0422 15.6837 28.0422ZM5.2637 12.6922H14.7137C15.5837 12.6922 15.9437 12.3422 15.9437 11.4822V5.2822C15.9437 4.4122 15.5837 4.0722 14.7137 4.0722H5.2637C4.4037 4.0722 4.0437 4.4122 4.0437 5.2822V11.4822C4.0437 12.3422 4.4037 12.6922 5.2637 12.6922Z"
        fillRule="evenodd"
        clipRule="evenodd"
    />
</svg>
        