
<svg
    viewBox="0 0 27.904296875 30.0234375"
    xmlns="http://www.w3.org/2000/svg"
>
    <path
        fill="inherit"
        d="M19.2537 0.0028C14.4237 0.0028 10.6237 3.5128 10.6237 7.9828C10.6237 12.9328 13.5937 14.1628 14.4137 22.7128C14.4537 23.1828 14.7137 23.4928 15.2137 23.4928H23.2937C23.8037 23.4928 24.0637 23.1828 24.1037 22.7128C24.9237 14.1628 27.9037 12.9328 27.9037 7.9828C27.9037 3.5128 24.0937 0.0028 19.2537 0.0028ZM7.4937 2.0228C3.3237 2.0228 0.0037 5.0828 0.0037 8.9828C0.0037 13.3028 2.5437 14.3728 3.2537 21.6328C3.2837 22.0628 3.5537 22.3828 4.0337 22.3828H10.9637C11.4437 22.3828 11.7037 22.0628 11.7437 21.6328C11.8437 20.6128 11.9737 19.7428 12.1437 18.9228C10.9637 14.5628 9.0337 12.7828 9.0337 7.9828C9.0337 6.0028 9.6537 4.1828 10.7237 2.6828C9.7437 2.2528 8.6537 2.0228 7.4937 2.0228ZM4.0037 24.9828H10.9937C11.4337 24.9828 11.7837 24.6528 11.7837 24.2128C11.7837 23.7628 11.4337 23.4328 10.9937 23.4328H4.0037C3.5637 23.4328 3.2437 23.7728 3.2437 24.2128C3.2437 24.6328 3.5637 24.9828 4.0037 24.9828ZM15.1937 26.2728H23.3337C23.7737 26.2728 24.1337 25.9528 24.1337 25.5028C24.1337 25.0428 23.7737 24.7228 23.3337 24.7228H15.1937C14.7337 24.7228 14.4137 25.0428 14.4137 25.5028C14.4137 25.9528 14.7337 26.2728 15.1937 26.2728ZM7.5037 28.3928C9.3137 28.3928 10.8737 27.4228 10.8937 26.0328H4.1337C4.1537 27.4228 5.6837 28.3928 7.5037 28.3928ZM19.2637 30.0228C21.2737 30.0228 22.9737 29.0128 23.0737 27.5128H15.4537C15.5337 29.0128 17.2437 30.0228 19.2637 30.0228Z"
        fillRule="evenodd"
        clipRule="evenodd"
    />
</svg>
        