<svg viewBox="0 0 27.904296875 30.0234375" xmlns="http://www.w3.org/2000/svg"><path d="M4.0437 22.3828H10.9537C11.4537 22.3828 11.7037 22.0628 11.7437 21.6328C11.9937 19.1128 12.4737 17.3528 12.9737 15.9428C13.5637 17.6128 14.1237 19.7028 14.4137 22.7128C14.4537 23.1828 14.7137 23.4928 15.2137 23.4928H23.2937C23.8037 23.4928 24.0637 23.1828 24.1037 22.7128C24.9237 14.1628 27.9037 12.9328 27.9037 7.9828C27.9037 3.5128 24.0937 0.0028 19.2537 0.0028C16.2437 0.0028 13.6337 1.3628 12.1037 3.4728C10.8437 2.5728 9.2437 2.0228 7.4937 2.0228C3.3237 2.0228 0.0037 5.0828 0.0037 8.9828C0.0037 13.3028 2.5437 14.3728 3.2537 21.6328C3.2837 22.0628 3.5437 22.3828 4.0437 22.3828ZM19.2537 2.0128C22.8437 2.0128 25.8937 4.5228 25.8937 7.9828C25.8937 11.6628 23.4637 12.4928 22.2737 21.4828H16.2437C15.0537 12.4928 12.6337 11.6628 12.6337 7.9828C12.6337 4.5228 15.6637 2.0128 19.2537 2.0128ZM4.9937 20.4628C3.9637 12.7128 1.9237 12.1228 1.9237 8.9828C1.9237 6.0728 4.4537 3.9528 7.4937 3.9528C8.9037 3.9528 10.1837 4.4028 11.1537 5.1828C10.8137 6.0528 10.6237 6.9828 10.6237 7.9828C10.6237 10.1128 11.1837 11.5628 11.8637 13.2028C11.2637 14.6828 10.5237 16.6828 9.9937 20.4628ZM4.0037 24.9828H10.9937C11.4337 24.9828 11.7837 24.6528 11.7837 24.2128C11.7837 23.7628 11.4337 23.4328 10.9937 23.4328H4.0037C3.5637 23.4328 3.2437 23.7728 3.2437 24.2128C3.2437 24.6328 3.5637 24.9828 4.0037 24.9828ZM15.1937 26.2728H23.3337C23.7737 26.2728 24.1337 25.9528 24.1337 25.5028C24.1337 25.0428 23.7737 24.7228 23.3337 24.7228H15.1937C14.7337 24.7228 14.4137 25.0428 14.4137 25.5028C14.4137 25.9528 14.7337 26.2728 15.1937 26.2728ZM7.5037 28.3928C9.3137 28.3928 10.8737 27.4228 10.8937 26.0328H4.1337C4.1537 27.4228 5.6837 28.3928 7.5037 28.3928ZM19.2637 30.0228C21.2737 30.0228 22.9737 29.0128 23.0737 27.5128H15.4537C15.5337 29.0128 17.2437 30.0228 19.2637 30.0228Z" /></svg>