
<svg
    viewBox={0 0 24.650390625 36.01171875}
    xmlns="http://www.w3.org/2000/svg"
>
    <path
        fill="inherit"
        d="M4.9237 31.8733H4.9337L3.0937 34.8333C2.7337 35.3933 3.0637 36.0133 3.7037 36.0133H4.4737C4.8537 36.0133 5.0537 35.8933 5.2637 35.5633L7.5437 31.8733H17.1137L19.4037 35.5633C19.6037 35.8933 19.8137 36.0133 20.1937 36.0133H20.9637C21.6037 36.0133 21.8937 35.3833 21.5337 34.8333L19.7137 31.8733C22.6837 31.8733 24.6537 29.8033 24.6537 26.7033V19.7933C24.6537 16.4433 24.2837 12.8933 23.6637 10.3533C22.9537 7.2433 20.8537 5.2233 17.9737 4.9233C17.7337 4.8933 17.2937 4.8633 16.7037 4.8233L19.1237 1.8833C20.4437 1.9433 21.1937 2.3233 21.8937 3.2033C22.1237 3.4833 22.4037 3.6233 22.6837 3.6233C23.1837 3.6233 23.6137 3.2833 23.6137 2.7233C23.6137 2.3133 23.3137 1.8833 22.9237 1.5133C21.7537 0.3833 20.4137 0.0033 18.7337 0.0033H5.9237C4.2337 0.0033 2.8837 0.3833 1.7237 1.5133C1.3237 1.8833 1.0437 2.3133 1.0437 2.7233C1.0437 3.2833 1.4637 3.6233 1.9737 3.6233C2.2437 3.6233 2.5137 3.4833 2.7637 3.2033C3.4637 2.3233 4.2137 1.9433 5.5237 1.8833L7.9437 4.8133C7.3537 4.8533 6.9337 4.8933 6.6737 4.9233C3.8037 5.2233 1.6937 7.2433 0.9837 10.3533C0.3737 12.9033 0.0037 16.3133 0.0037 19.6333V26.7033C0.0037 29.8033 1.9737 31.8733 4.9237 31.8733ZM12.3137 4.6633C11.6237 4.6633 10.9637 4.6733 10.3637 4.6933L8.0537 1.8733H16.5937L14.2837 4.7033C13.6537 4.6733 13.0037 4.6633 12.3137 4.6633ZM5.2637 30.0733C2.9637 30.0733 1.7937 28.7433 1.7937 26.7033V19.6333C1.7937 16.4333 2.1337 13.1933 2.7237 10.7633C3.2837 8.3833 4.7737 6.9333 6.8537 6.7133C7.5237 6.6433 9.4737 6.4533 12.3137 6.4533C14.8337 6.4533 17.1337 6.6433 17.8037 6.7133C19.8837 6.9333 21.3737 8.3833 21.9337 10.7633C22.5137 13.1933 22.8637 16.5733 22.8637 19.7933V26.7033C22.8637 28.7433 21.6837 30.0733 19.3737 30.0733ZM8.8737 10.0533H15.7737C16.2837 10.0533 16.6137 9.7233 16.6137 9.2133C16.6137 8.7133 16.2837 8.3933 15.7737 8.3933H8.8737C8.3637 8.3933 8.0437 8.7133 8.0437 9.2133C8.0437 9.7233 8.3637 10.0533 8.8737 10.0533ZM12.3137 22.3633C15.7637 22.3533 18.3937 22.2033 19.8637 22.0233C20.6837 21.9333 21.0137 21.3933 21.0137 20.6333V18.7533C21.0137 16.0233 20.7237 14.0033 20.5237 13.0833C20.3837 12.4833 20.0137 12.0433 19.3837 11.9733C17.8837 11.8033 16.2137 11.6933 12.3137 11.6733C8.4337 11.6933 6.7637 11.8033 5.2637 11.9733C4.6337 12.0433 4.2637 12.4833 4.1337 13.0833C3.9237 14.0033 3.6337 16.0233 3.6337 18.7533V20.6333C3.6337 21.3933 3.9537 21.9333 4.7837 22.0233C6.2637 22.2033 8.8837 22.3533 12.3137 22.3633ZM18.5237 28.0233C19.5737 28.0233 20.4137 27.2033 20.4137 26.1233C20.4137 25.0633 19.5937 24.2433 18.5237 24.2433C17.4437 24.2433 16.6237 25.0633 16.6237 26.1233C16.6237 27.2033 17.4437 28.0233 18.5237 28.0233ZM6.0937 28.0133C7.1637 28.0133 7.9737 27.2233 7.9737 26.1233C7.9737 25.0433 7.1937 24.2533 6.0937 24.2533C5.0137 24.2533 4.2237 25.0433 4.2237 26.1233C4.2237 27.2233 5.0137 28.0133 6.0937 28.0133Z"
        fillRule="evenodd"
        clipRule="evenodd"
    />
</svg>
        