
<svg
    viewBox={0 0 22.271484375 30.966796875}
    xmlns="http://www.w3.org/2000/svg"
>
    <path
        fill="inherit"
        d="M0.1137 6.3977H22.1637C22.2337 6.0977 22.2737 5.7877 22.2737 5.4677C22.2737 1.9577 18.1837 -0.0023 11.1437 -0.0023C4.0837 -0.0023 0.0037 1.9577 0.0037 5.4677C0.0037 5.7877 0.0437 6.0877 0.1137 6.3977ZM8.0837 24.0477H14.1937C14.6837 24.0477 14.9437 23.7877 14.9437 23.3077V22.2077C14.9437 15.5077 19.7237 11.9077 21.5737 8.1877H0.7237C2.5837 11.8777 7.3237 15.5577 7.3237 22.2077V23.3077C7.3237 23.7877 7.5837 24.0477 8.0837 24.0477ZM7.7837 27.0677H14.5037C14.9437 27.0677 15.3037 26.7277 15.3037 26.2777C15.3037 25.8277 14.9437 25.4877 14.5037 25.4877H7.7837C7.3237 25.4877 6.9737 25.8277 6.9737 26.2777C6.9737 26.7277 7.3237 27.0677 7.7837 27.0677ZM11.1437 30.9677C12.9837 30.9677 14.3037 29.9777 14.5837 28.4277H7.6837C7.9437 29.9777 9.2537 30.9677 11.1437 30.9677Z"
        fillRule="evenodd"
        clipRule="evenodd"
    />
</svg>
        