
<svg
    viewBox="0 0 34.357421875 18.416015625"
    xmlns="http://www.w3.org/2000/svg"
>
    <path
        fill="inherit"
        d="M17.1827 6.7857C17.8327 6.7857 18.3927 6.2357 18.3927 5.5957V1.2157C18.3927 0.5557 17.8327 -0.0043 17.1827 -0.0043C16.5327 -0.0043 15.9727 0.5557 15.9727 1.2157V5.5957C15.9727 6.2357 16.5327 6.7857 17.1827 6.7857ZM24.6627 9.7357C25.1127 10.2157 25.9127 10.2157 26.3627 9.7357L29.4527 6.6357C29.9127 6.1557 29.9127 5.3857 29.4527 4.9257C28.9827 4.4557 28.1927 4.4657 27.7427 4.9357L24.6627 8.0357C24.1827 8.5057 24.1827 9.2657 24.6627 9.7357ZM9.7027 9.7357C10.1727 9.2657 10.1627 8.5057 9.6927 8.0357L6.6327 4.9257C6.1627 4.4657 5.3727 4.4657 4.9227 4.9257C4.4527 5.3857 4.4527 6.1557 4.9227 6.6357L8.0027 9.7457C8.4527 10.2157 9.2427 10.2157 9.7027 9.7357ZM1.2027 18.4057H5.5827C6.2527 18.4057 6.8127 17.8457 6.8127 17.1857C6.8127 16.5457 6.2327 15.9857 5.5827 15.9857H1.2027C0.5627 15.9857 0.0027 16.5457 0.0027 17.1857C0.0027 17.8257 0.5627 18.4057 1.2027 18.4057ZM28.7827 18.4057H33.1727C33.8127 18.4057 34.3527 17.8257 34.3527 17.1857C34.3527 16.5457 33.8127 15.9857 33.1727 15.9857H28.7827C28.1227 15.9857 27.5627 16.5457 27.5627 17.1857C27.5627 17.8457 28.1127 18.4057 28.7827 18.4057ZM11.9727 18.4157H22.3927C23.0627 18.4157 23.6227 17.8557 23.6227 17.2157C23.6227 16.5557 23.0827 15.9957 22.3927 15.9957H11.9727C11.2927 15.9957 10.7327 16.5557 10.7327 17.2157C10.7327 17.8557 11.3027 18.4157 11.9727 18.4157Z"
        fillRule="evenodd"
        clipRule="evenodd"
    />
</svg>
        