
<svg
    viewBox={0 0 38.759765625 23.392578125}
    xmlns="http://www.w3.org/2000/svg"
>
    <path
        fill="inherit"
        d="M19.3627 23.3942C30.9027 23.3942 38.7627 18.1042 38.7627 11.7042C38.7627 5.3042 30.9027 0.0042 19.3627 0.0042C7.8427 0.0042 0.0027 5.3042 0.0027 11.7042C0.0027 18.1042 7.8427 23.3942 19.3627 23.3942ZM19.3627 19.2742C12.0827 19.2742 6.5527 16.2442 6.5527 12.0742C6.5527 7.9342 12.0827 4.8942 19.3627 4.8942C26.6727 4.8942 32.2227 7.9342 32.2227 12.0742C32.2227 16.2242 26.6627 19.2742 19.3627 19.2742ZM19.3427 12.9042C23.5327 12.9042 27.1827 11.0242 28.5927 8.3942C26.5827 7.0442 23.3827 6.2042 19.3627 6.2042C15.3227 6.2042 12.1027 7.0542 10.0927 8.4442C11.5227 11.0642 15.1627 12.9042 19.3427 12.9042Z"
        fillRule="evenodd"
        clipRule="evenodd"
    />
</svg>
        