
<svg
    viewBox={0 0 27.890625 27.890625}
    xmlns="http://www.w3.org/2000/svg"
>
    <path
        fill="inherit"
        d="M13.9427 27.8864C21.6427 27.8864 27.8927 21.6464 27.8927 13.9464C27.8927 6.2464 21.6427 -0.0036 13.9427 -0.0036C6.2527 -0.0036 0.0027 6.2464 0.0027 13.9464C0.0027 21.6464 6.2527 27.8864 13.9427 27.8864ZM13.9427 25.5664C7.5227 25.5664 2.3227 20.3664 2.3227 13.9464C2.3227 7.5164 7.5227 2.3264 13.9427 2.3264C20.3727 2.3264 25.5627 7.5164 25.5627 13.9464C25.5627 20.3664 20.3727 25.5664 13.9427 25.5664ZM6.5127 13.1764H21.4127C22.0127 13.1764 22.4527 12.7864 22.4527 12.2064C22.4527 11.6364 22.0127 11.2564 21.4127 11.2564H6.5127C5.8927 11.2564 5.4727 11.6364 5.4727 12.2064C5.4727 12.7864 5.8927 13.1764 6.5127 13.1764ZM8.5327 17.7064H19.3827C19.9927 17.7064 20.4127 17.3064 20.4127 16.7364C20.4127 16.1564 19.9927 15.7764 19.3827 15.7764H8.5327C7.9127 15.7764 7.4927 16.1564 7.4927 16.7364C7.4927 17.3064 7.9127 17.7064 8.5327 17.7064Z"
        fillRule="evenodd"
        clipRule="evenodd"
    />
</svg>
        