
<svg
    viewBox={0 0 27.658203125 16.283203125}
    xmlns="http://www.w3.org/2000/svg"
>
    <path
        fill="inherit"
        d="M1.0937 2.1995H26.5637C27.1837 2.1995 27.6537 1.7195 27.6537 1.1095C27.6537 0.4895 27.1837 -0.0005 26.5637 -0.0005H1.0937C0.4737 -0.0005 0.0037 0.4895 0.0037 1.1095C0.0037 1.7195 0.4737 2.1995 1.0937 2.1995ZM3.9737 9.2395H23.7637C24.3737 9.2395 24.8537 8.7595 24.8537 8.1495C24.8537 7.5295 24.3737 7.0395 23.7637 7.0395H3.9737C3.3637 7.0395 2.8737 7.5295 2.8737 8.1495C2.8737 8.7595 3.3637 9.2395 3.9737 9.2395ZM6.7837 16.2795H20.9437C21.5637 16.2795 22.0537 15.8095 22.0537 15.1895C22.0537 14.5695 21.5637 14.0795 20.9437 14.0795H6.7837C6.1637 14.0795 5.6837 14.5695 5.6837 15.1895C5.6837 15.8095 6.1637 16.2795 6.7837 16.2795Z"
        fillRule="evenodd"
        clipRule="evenodd"
    />
</svg>
        