
<svg
    viewBox="0 0 27.658203125 14"
    xmlns="http://www.w3.org/2000/svg"
>
    <path
        fill="inherit"
        d="M1.0237 2.0638H26.6237C27.1937 2.0638 27.6537 1.6137 27.6537 1.0437C27.6537 0.4638 27.1937 0.0038 26.6237 0.0038H1.0237C0.4537 0.0038 0.0037 0.4638 0.0037 1.0437C0.0037 1.6137 0.4537 2.0638 1.0237 2.0638ZM1.0237 8.0238H26.6237C27.1937 8.0238 27.6537 7.5738 27.6537 7.0038C27.6537 6.4138 27.1937 5.9438 26.6237 5.9438H1.0237C0.4537 5.9438 0.0037 6.4138 0.0037 7.0038C0.0037 7.5738 0.4537 8.0238 1.0237 8.0238ZM1.0237 14.0038H26.6237C27.1937 14.0038 27.6537 13.5338 27.6537 12.9438C27.6537 12.3738 27.1937 11.9238 26.6237 11.9238H1.0237C0.4537 11.9238 0.0037 12.3738 0.0037 12.9438C0.0037 13.5338 0.4537 14.0038 1.0237 14.0038Z"
        fillRule="evenodd"
        clipRule="evenodd"
    />
</svg>
        