
<svg
    viewBox="0 0 24.52734375 28.546875"
    xmlns="http://www.w3.org/2000/svg"
>
    <path
        fill="inherit"
        d="M5.4437 1.3945C5.4437 2.2945 5.9237 2.7745 6.8237 2.7745H17.6937C18.6037 2.7745 19.0837 2.2945 19.0837 1.3945C19.0837 0.4745 18.6037 0.0045 17.6937 0.0045H6.8237C5.9237 0.0045 5.4437 0.4745 5.4437 1.3945ZM8.9037 7.8345C8.9037 8.7345 9.3637 9.2145 10.2837 9.2145H14.2437C15.1437 9.2145 15.6237 8.7345 15.6237 7.8345C15.6237 6.9345 15.1437 6.4545 14.2437 6.4545H10.2837C9.3637 6.4545 8.9037 6.9345 8.9037 7.8345ZM0.0037 14.2745C0.0037 15.1845 0.4737 15.6545 1.3937 15.6545H23.1337C24.0537 15.6545 24.5237 15.1845 24.5237 14.2745C24.5237 13.3545 24.0537 12.8745 23.1337 12.8745H1.3937C0.4737 12.8745 0.0037 13.3545 0.0037 14.2745ZM8.9037 20.6945C8.9037 21.6145 9.3637 22.0945 10.2837 22.0945H14.2437C15.1437 22.0945 15.6237 21.6145 15.6237 20.6945C15.6237 19.8145 15.1437 19.3345 14.2437 19.3345H10.2837C9.3637 19.3345 8.9037 19.8145 8.9037 20.6945ZM5.4437 27.1545C5.4437 28.0645 5.9237 28.5445 6.8237 28.5445H17.6937C18.6037 28.5445 19.0837 28.0645 19.0837 27.1545C19.0837 26.2345 18.6037 25.7545 17.6937 25.7545H6.8237C5.9237 25.7545 5.4437 26.2345 5.4437 27.1545Z"
        fillRule="evenodd"
        clipRule="evenodd"
    />
</svg>
        