
<svg
    viewBox="0 0 34.2890625 26.00390625"
    xmlns="http://www.w3.org/2000/svg"
>
    <path
        fill="inherit"
        d="M0.0037 1.103C0.0037 1.713 0.4937 2.203 1.0937 2.203H33.1937C33.7937 2.203 34.2937 1.713 34.2937 1.103C34.2937 0.503 33.7937 0.003 33.1937 0.003H1.0937C0.4937 0.003 0.0037 0.503 0.0037 1.103ZM13.6137 19.263L17.1537 16.683L20.6837 19.263C21.3737 19.773 22.1737 19.303 21.8737 18.403L20.4937 14.263L24.1037 11.653C24.8437 11.133 24.5137 10.263 23.6837 10.263H19.2137L17.8937 6.153C17.6337 5.343 16.6837 5.343 16.4337 6.153L15.0937 10.263H10.6137C9.7737 10.263 9.4437 11.133 10.1837 11.653L13.8237 14.263L12.4237 18.403C12.1237 19.303 12.9337 19.773 13.6137 19.263ZM0.0037 24.893C0.0037 25.503 0.4937 26.003 1.0937 26.003H33.1937C33.7937 26.003 34.2937 25.503 34.2937 24.893C34.2937 24.293 33.7937 23.803 33.1937 23.803H1.0937C0.4937 23.803 0.0037 24.293 0.0037 24.893Z"
        fillRule="evenodd"
        clipRule="evenodd"
    />
</svg>
        