
<svg
    viewBox="0 0 27.890625 27.890625"
    xmlns="http://www.w3.org/2000/svg"
>
    <path
        fill="inherit"
        d="M13.9427 27.8864C21.6427 27.8864 27.8927 21.6264 27.8927 13.9464C27.8927 6.2464 21.6427 -0.0036 13.9427 -0.0036C6.2627 -0.0036 0.0027 6.2464 0.0027 13.9464C0.0027 21.6264 6.2627 27.8864 13.9427 27.8864ZM6.2927 13.1364C5.6627 13.1364 5.2127 12.7264 5.2127 12.1364C5.2127 11.5364 5.6627 11.1464 6.2927 11.1464H21.6527C22.2727 11.1464 22.7327 11.5364 22.7327 12.1364C22.7327 12.7264 22.2727 13.1364 21.6527 13.1364ZM8.3827 17.8164C7.7427 17.8164 7.3027 17.4064 7.3027 16.8064C7.3027 16.2164 7.7427 15.8164 8.3827 15.8164H19.5627C20.1927 15.8164 20.6327 16.2164 20.6327 16.8064C20.6327 17.4064 20.1927 17.8164 19.5627 17.8164Z"
        fillRule="evenodd"
        clipRule="evenodd"
    />
</svg>
        