
<svg
    viewBox={0 0 24.322265625 29.3671875}
    xmlns="http://www.w3.org/2000/svg"
>
    <path
        fill="inherit"
        d="M16.1737 29.3647C21.1237 29.3647 24.3237 26.1847 24.3237 21.2347V14.4947C24.3237 12.6147 23.7337 11.1147 22.5737 10.0447L13.9437 2.1047C12.2537 0.5647 10.4637 0.0047 8.3237 0.0047H4.1037C1.6437 0.0047 0.0037 1.6647 0.0037 4.1447V25.2647C0.0037 27.8347 1.5537 29.3647 4.1437 29.3647ZM6.3137 15.7047C5.7937 15.7047 5.4237 15.3847 5.4237 14.8747C5.4237 14.3847 5.7937 14.0547 6.3137 14.0547H17.7437C18.2637 14.0547 18.6237 14.3847 18.6237 14.8747C18.6237 15.3847 18.2637 15.7047 17.7437 15.7047ZM6.3137 19.6747C5.7937 19.6747 5.4237 19.3447 5.4237 18.8547C5.4237 18.3447 5.7937 18.0147 6.3137 18.0147H17.7437C18.2637 18.0147 18.6237 18.3447 18.6237 18.8547C18.6237 19.3447 18.2637 19.6747 17.7437 19.6747ZM6.3137 23.6547C5.7937 23.6547 5.4237 23.3247 5.4237 22.8147C5.4237 22.3247 5.7937 21.9947 6.3137 21.9947H17.7437C18.2637 21.9947 18.6237 22.3247 18.6237 22.8147C18.6237 23.3247 18.2637 23.6547 17.7437 23.6547Z"
        fillRule="evenodd"
        clipRule="evenodd"
    />
</svg>
        