
<svg
    viewBox="0 0 27.890625 27.890625"
    xmlns="http://www.w3.org/2000/svg"
>
    <path
        fill="inherit"
        d="M14.9127 11.9264C15.9327 11.1864 16.5927 10.4364 17.1727 9.4564C18.7427 6.7764 18.4727 3.5964 16.4027 0.2464C15.6127 0.0864 14.7827 -0.0036 13.9327 -0.0036C10.8027 -0.0036 7.8727 1.0764 5.5327 2.8664C9.1327 3.2964 11.9527 4.9764 13.6027 7.8464C14.3527 9.1764 14.7527 10.4564 14.9127 11.9264ZM19.4727 14.6064C22.5627 14.6064 25.1927 12.8064 27.0527 9.3964C25.8027 5.6964 22.9527 2.6564 19.3427 1.1164C20.7827 4.4464 20.7227 7.7064 19.0727 10.5364C18.2627 11.9464 17.2527 12.9464 16.0227 13.8264C17.1027 14.2964 18.1527 14.6064 19.4727 14.6064ZM0.1227 15.7664C2.3127 12.8264 5.1927 11.2064 8.5027 11.2064C10.0327 11.2064 11.3627 11.5264 12.7127 12.1264C12.5827 10.8864 12.2627 9.9264 11.6927 8.9264C10.1427 6.2364 7.2427 4.8664 3.3327 4.9864C1.2627 7.4064 0.0027 10.5364 0.0027 13.9464C0.0027 14.5564 0.0527 15.1664 0.1227 15.7664ZM24.4427 22.9964C26.5827 20.5664 27.8927 17.3864 27.8927 13.9464C27.8927 13.4164 27.8627 12.9064 27.7927 12.3864C25.6027 15.2464 22.7327 16.8064 19.4727 16.8064C17.8527 16.8064 16.4727 16.4464 15.1027 15.8364C15.2427 16.9364 15.5327 17.9464 16.1427 19.0164C17.6827 21.6964 20.5727 23.0764 24.4427 22.9964ZM8.4327 26.7264C7.0127 23.3964 7.0927 20.0864 8.7527 17.2364C9.5327 15.9164 10.4727 14.9164 11.6527 14.0364C10.5727 13.6064 9.6127 13.4164 8.5027 13.4164C5.4027 13.4164 2.7527 15.2464 0.8727 18.7564C2.2027 22.3164 4.9627 25.2264 8.4327 26.7264ZM13.9427 27.8864C17.0227 27.8864 19.8927 26.8564 22.2127 25.1164C18.6527 24.6664 15.8727 22.9364 14.2327 20.0964C13.4427 18.7064 13.0527 17.3464 12.9027 15.8464C12.0027 16.5264 11.2827 17.2964 10.6627 18.3364C9.0827 21.0364 9.3527 24.2564 11.3927 27.6164C12.2227 27.7964 13.0727 27.8864 13.9427 27.8864Z"
        fillRule="evenodd"
        clipRule="evenodd"
    />
</svg>
        