
<svg
    viewBox={0 0 27.890625 27.890625}
    xmlns="http://www.w3.org/2000/svg"
>
    <path
        fill="inherit"
        d="M13.9427 27.8864C21.6427 27.8864 27.8927 21.6464 27.8927 13.9464C27.8927 6.2464 21.6427 -0.0036 13.9427 -0.0036C6.2527 -0.0036 0.0027 6.2464 0.0027 13.9464C0.0027 21.6464 6.2527 27.8864 13.9427 27.8864ZM13.9427 25.5664C7.5227 25.5664 2.3227 20.3664 2.3227 13.9464C2.3227 7.5164 7.5227 2.3264 13.9427 2.3264C20.3727 2.3264 25.5627 7.5164 25.5627 13.9464C25.5627 20.3664 20.3727 25.5664 13.9427 25.5664ZM7.0527 10.3764H20.8627C21.4627 10.3764 21.9027 9.9964 21.9027 9.4064C21.9027 8.8364 21.4627 8.4464 20.8627 8.4464H7.0527C6.4427 8.4464 6.0127 8.8364 6.0127 9.4064C6.0127 9.9964 6.4427 10.3764 7.0527 10.3764ZM7.0527 14.9064H20.8627C21.4627 14.9064 21.9027 14.5164 21.9027 13.9364C21.9027 13.3564 21.4627 12.9764 20.8627 12.9764H7.0527C6.4427 12.9764 6.0127 13.3564 6.0127 13.9364C6.0127 14.5164 6.4427 14.9064 7.0527 14.9064ZM7.0527 19.4364H20.8627C21.4627 19.4364 21.9027 19.0464 21.9027 18.4664C21.9027 17.8964 21.4627 17.5164 20.8627 17.5164H7.0527C6.4427 17.5164 6.0127 17.8964 6.0127 18.4664C6.0127 19.0464 6.4427 19.4364 7.0527 19.4364Z"
        fillRule="evenodd"
        clipRule="evenodd"
    />
</svg>
        