
<svg
    viewBox="0 0 27.890625 27.890625"
    xmlns="http://www.w3.org/2000/svg"
>
    <path
        fill="inherit"
        d="M13.9427 27.8864C21.6427 27.8864 27.8927 21.6264 27.8927 13.9464C27.8927 6.2464 21.6427 -0.0036 13.9427 -0.0036C6.2627 -0.0036 0.0027 6.2464 0.0027 13.9464C0.0027 21.6264 6.2627 27.8864 13.9427 27.8864ZM6.8627 10.2664C6.2227 10.2664 5.7827 9.8664 5.7827 9.2664C5.7827 8.6664 6.2227 8.2764 6.8627 8.2764H21.0827C21.7127 8.2764 22.1627 8.6664 22.1627 9.2664C22.1627 9.8664 21.7127 10.2664 21.0827 10.2664ZM6.8627 14.9464C6.2227 14.9464 5.7827 14.5464 5.7827 13.9364C5.7827 13.3264 6.2227 12.9364 6.8627 12.9364H21.0827C21.7127 12.9364 22.1627 13.3264 22.1627 13.9364C22.1627 14.5464 21.7127 14.9464 21.0827 14.9464ZM6.8627 19.6164C6.2227 19.6164 5.7827 19.2064 5.7827 18.6064C5.7827 18.0164 6.2227 17.6264 6.8627 17.6264H21.0827C21.7127 17.6264 22.1627 18.0164 22.1627 18.6064C22.1627 19.2064 21.7127 19.6164 21.0827 19.6164Z"
        fillRule="evenodd"
        clipRule="evenodd"
    />
</svg>
        