
<svg
    viewBox={0 0 34.37109375 23.76171875}
    xmlns="http://www.w3.org/2000/svg"
>
    <path
        fill="inherit"
        d="M27.0127 23.7594C31.1427 23.7594 34.3727 20.7394 34.3727 16.9794C34.3727 14.1094 32.7127 11.6194 30.0527 10.4994C30.0827 4.3994 25.6927 -0.0006 20.0927 -0.0006C16.3927 -0.0006 13.7527 1.9794 12.1127 4.3794C8.7527 3.3894 5.0827 5.9494 5.0127 9.7794C1.9327 10.2694 0.0027 13.0294 0.0027 16.3694C0.0027 20.3894 3.5127 23.7594 8.1927 23.7594ZM23.3827 6.4094C24.8527 7.8894 24.8727 10.0194 23.3827 11.5094L21.0427 13.8494C21.3327 13.0994 21.3527 12.3994 21.1827 11.7394L22.3427 10.5994C23.2727 9.6794 23.2827 8.3694 22.3427 7.4394C21.4127 6.5194 20.1227 6.5094 19.1827 7.4494L16.5427 10.0894C15.6027 11.0294 15.5727 12.3594 16.5327 13.2494C16.9927 13.6894 17.5127 13.8994 18.0327 13.8994C17.9127 14.1094 17.8727 14.1794 17.6327 14.4494L16.9227 15.1494C16.5427 15.0394 15.9927 14.7494 15.5027 14.2894C13.9827 12.8094 14.0027 10.6494 15.4927 9.1594L18.2527 6.3994C19.7527 4.9094 21.8727 4.9094 23.3827 6.4094ZM11.7027 18.0594C10.2127 16.5694 10.2127 14.4394 11.7027 12.9494L14.0427 10.6194C13.7527 11.3794 13.7227 12.0694 13.9027 12.7194L12.7427 13.8794C11.8127 14.8094 11.8027 16.1094 12.7427 17.0394C13.6727 17.9494 14.9727 17.9694 15.9027 17.0394L18.5527 14.3794C19.4927 13.4294 19.5127 12.1094 18.5527 11.2294C18.0627 10.7594 17.5227 10.5394 16.9527 10.6194C17.1427 10.3594 17.3327 10.1594 17.4627 10.0194L18.1727 9.3194C18.5827 9.4294 19.1127 9.7194 19.5927 10.1894C21.1227 11.6594 21.0927 13.8194 19.5927 15.3094L16.8327 18.0594C15.3227 19.5494 13.2027 19.5494 11.7027 18.0594Z"
        fillRule="evenodd"
        clipRule="evenodd"
    />
</svg>
        