
<svg
    viewBox={0 0 34.37109375 23.76171875}
    xmlns="http://www.w3.org/2000/svg"
>
    <path
        fill="inherit"
        d="M27.0127 23.7594C31.1427 23.7594 34.3727 20.7394 34.3727 16.9794C34.3727 14.1094 32.7127 11.6194 30.0527 10.4994C30.0827 4.3994 25.6927 -0.0006 20.0927 -0.0006C16.3927 -0.0006 13.7527 1.9794 12.1127 4.3794C8.7527 3.3894 5.0827 5.9494 5.0127 9.7794C1.9327 10.2694 0.0027 13.0294 0.0027 16.3694C0.0027 20.3894 3.5127 23.7594 8.1927 23.7594ZM27.0127 21.5594H8.1927C4.7427 21.5594 2.2027 19.1494 2.2027 16.3694C2.2027 13.6294 3.8527 11.4594 6.7527 11.4594C6.9427 11.4594 7.0127 11.3594 7.0127 11.1794C7.0127 6.9694 10.0527 5.7294 12.8527 6.6494C13.0127 6.6994 13.1127 6.6594 13.1927 6.5094C14.5227 4.1394 16.5527 2.1994 20.0927 2.1994C24.5827 2.1994 27.6827 5.7594 27.9227 9.8194C27.9627 10.4494 27.9227 11.1794 27.8627 11.8294C27.8527 11.9994 27.9227 12.0994 28.0827 12.1394C30.5727 12.6894 32.1727 14.5094 32.1727 16.9794C32.1727 19.5194 29.9327 21.5594 27.0127 21.5594ZM23.3827 6.4794C21.8927 4.9794 19.7527 4.9794 18.2527 6.4694L15.4927 9.2294C14.0027 10.7194 14.0127 12.8494 15.5027 14.3594C15.9827 14.8494 16.5427 15.1094 16.9127 15.2294L17.6327 14.5194C17.8727 14.2494 17.9127 14.1794 18.0327 13.9694C17.5127 13.9894 16.9627 13.7494 16.5327 13.3194C15.6027 12.3894 15.5827 11.1194 16.5427 10.1694L19.1827 7.5194C20.1227 6.5794 21.4227 6.5794 22.3427 7.5094C23.2527 8.4494 23.2727 9.7494 22.3427 10.6794L21.1827 11.8094C21.3527 12.4694 21.3327 13.1794 21.0427 13.9294L23.3827 11.5894C24.8727 10.0894 24.8527 7.9694 23.3827 6.4794ZM11.7027 18.1394C13.2027 19.6294 15.3127 19.6294 16.8327 18.1394L19.5927 15.3794C21.0927 13.8894 21.0827 11.7694 19.5927 10.2694C19.1127 9.7794 18.5827 9.5194 18.1727 9.3894L17.4627 10.0894C17.3227 10.2394 17.1427 10.4294 16.9527 10.7094C17.5227 10.6094 18.0927 10.8294 18.5527 11.3094C19.4827 12.2194 19.4927 13.5094 18.5427 14.4494L15.9027 17.0994C14.9727 18.0294 13.6627 18.0294 12.7427 17.1194C11.8127 16.1694 11.8127 14.8794 12.7427 13.9494L13.9027 12.7794C13.7227 12.1494 13.7527 11.4394 14.0427 10.6894L11.7027 13.0194C10.2127 14.5094 10.2127 16.6394 11.7027 18.1394Z"
        fillRule="evenodd"
        clipRule="evenodd"
    />
</svg>
        