
<svg
    viewBox={0 0 27.890625 27.890625}
    xmlns="http://www.w3.org/2000/svg"
>
    <path
        fill="inherit"
        d="M13.9427 27.8927C21.6427 27.8927 27.8927 21.6427 27.8927 13.9427C27.8927 6.2627 21.6427 0.0027 13.9427 0.0027C6.2627 0.0027 0.0027 6.2627 0.0027 13.9427C0.0027 21.6427 6.2627 27.8927 13.9427 27.8927ZM20.3527 7.2627C22.1527 9.0327 21.9827 11.2427 19.9327 13.3027L17.4327 15.7727C17.6527 15.0827 17.6327 14.2627 17.4027 13.7227L18.8527 12.2927C20.2727 10.8927 20.4127 9.4327 19.3027 8.3427C18.1927 7.2427 16.7527 7.4127 15.3527 8.7927L13.3327 10.8327C11.8827 12.2527 11.7127 13.7127 12.8127 14.8327C13.1527 15.1527 13.6427 15.3827 14.2827 15.4727C14.0727 15.9727 13.5727 16.5027 13.1827 16.7727C12.7927 16.7027 12.2327 16.3627 11.7727 15.8727C9.9627 14.0927 10.1427 11.8827 12.2327 9.8027L14.3327 7.7127C16.3927 5.6427 18.5927 5.5127 20.3527 7.2627ZM7.0727 20.5927C5.2727 18.8127 5.4427 16.6127 7.4827 14.5627L9.9927 12.0727C9.7727 12.7827 9.7927 13.5927 10.0227 14.1327L8.5727 15.5627C7.1527 16.9527 7.0027 18.4127 8.1227 19.5127C9.2327 20.6027 10.6827 20.4427 12.0727 19.0627L14.0927 17.0227C15.5327 15.6127 15.7127 14.1327 14.6127 13.0327C14.2727 12.7027 13.7827 12.4727 13.1427 12.3827C13.3527 11.8927 13.8327 11.3627 14.2327 11.0927C14.6327 11.1527 15.1927 11.4827 15.6527 11.9927C17.4627 13.7627 17.2827 15.9727 15.1927 18.0627L13.0827 20.1427C11.0327 22.2027 8.8227 22.3427 7.0727 20.5927Z"
        fillRule="evenodd"
        clipRule="evenodd"
    />
</svg>
        