
<svg
    viewBox="0 0 28.994634235696225 29.057863981814176"
    xmlns="http://www.w3.org/2000/svg"
>
    <path
        fill="inherit"
        d="M14.3238 20.1585L16.1438 18.3185C14.3438 18.1785 13.1638 17.6285 12.2738 16.7385C9.8838 14.3485 9.8938 10.9585 12.2638 8.5985L16.7238 4.1385C19.1138 1.7585 22.4738 1.7485 24.8638 4.1385C27.2638 6.5285 27.2338 9.9085 24.8638 12.2685L22.1838 14.9485C22.5738 15.8285 22.6538 16.8385 22.5138 17.7285L26.5338 13.7185C29.8038 10.4385 29.8338 5.8085 26.5238 2.4785C23.2038 -0.8415 18.5538 -0.8115 15.2738 2.4685L10.6038 7.1485C7.3238 10.4285 7.3038 15.0785 10.6238 18.3785C11.4838 19.2485 12.5738 19.8585 14.3238 20.1585ZM14.6638 8.8985L12.8538 10.7385C14.6538 10.8885 15.8338 11.4285 16.7238 12.3085C19.1138 14.7085 19.0938 18.0985 16.7338 20.4585L12.2638 24.9185C9.8838 27.2985 6.5238 27.3085 4.1238 24.9285C1.7338 22.5285 1.7438 19.1585 4.1238 16.7885L6.8038 14.1085C6.4238 13.2385 6.3238 12.2185 6.4838 11.3285L2.4638 15.3385C-0.8062 18.6185 -0.8362 23.2685 2.4738 26.5685C5.7938 29.8985 10.4438 29.8685 13.7138 26.5985L18.3838 21.9085C21.6638 18.6285 21.6938 13.9785 18.3738 10.6685C17.5138 9.8085 16.4138 9.1985 14.6638 8.8985Z"
        fillRule="evenodd"
        clipRule="evenodd"
    />
</svg>
        