<svg viewBox="0 0 27.890625 27.890625" xmlns="http://www.w3.org/2000/svg"><path d="M13.9427 27.8864C21.6427 27.8864 27.8927 21.6464 27.8927 13.9464C27.8927 6.2464 21.6427 -0.0036 13.9427 -0.0036C6.2527 -0.0036 0.0027 6.2464 0.0027 13.9464C0.0027 21.6464 6.2527 27.8864 13.9427 27.8864ZM13.9427 25.5664C7.5227 25.5664 2.3227 20.3664 2.3227 13.9464C2.3227 7.5164 7.5227 2.3264 13.9427 2.3264C20.3727 2.3264 25.5627 7.5164 25.5627 13.9464C25.5627 20.3664 20.3727 25.5664 13.9427 25.5664ZM20.1427 7.4664C18.4327 5.7664 16.2927 5.9064 14.3127 7.9064L12.2627 9.9264C10.2427 11.9464 10.0727 14.0864 11.8127 15.8064C12.2727 16.2964 12.8127 16.6064 13.1927 16.6964C13.5727 16.4064 14.0427 15.8964 14.2627 15.4364C13.6327 15.3364 13.1527 15.1164 12.8227 14.7964C11.7627 13.7264 11.9227 12.2864 13.3127 10.9264L15.3027 8.9364C16.6427 7.6064 18.0427 7.4464 19.1227 8.5064C20.1927 9.5664 20.0727 10.9964 18.6927 12.3364L17.2827 13.7264C17.5027 14.2564 17.5127 15.0364 17.2927 15.7264L19.7327 13.3064C21.7127 11.3164 21.8727 9.1864 20.1427 7.4664ZM7.2627 20.3864C8.9727 22.0764 11.1027 21.9464 13.0827 19.9464L15.1327 17.9064C17.1627 15.8964 17.3227 13.7564 15.5827 12.0264C15.1227 11.5564 14.5927 11.2264 14.2027 11.1564C13.8227 11.4264 13.3527 11.9364 13.1427 12.4164C13.7627 12.5064 14.2427 12.7264 14.5727 13.0464C15.6427 14.1264 15.4727 15.5464 14.0827 16.9264L12.1027 18.9064C10.7627 20.2464 9.3527 20.3964 8.2727 19.3464C7.2027 18.2764 7.3327 16.8564 8.7127 15.5164L10.1127 14.1064C9.9027 13.5864 9.8827 12.7964 10.1027 12.1264L7.6727 14.5364C5.6827 16.5264 5.5227 18.6664 7.2627 20.3864Z" /></svg>