
<svg
    viewBox={0 0 27.890625 27.890625}
    xmlns="http://www.w3.org/2000/svg"
>
    <path
        fill="inherit"
        d="M13.9427 27.8864C21.6427 27.8864 27.8927 21.6464 27.8927 13.9464C27.8927 6.2464 21.6427 -0.0036 13.9427 -0.0036C6.2527 -0.0036 0.0027 6.2464 0.0027 13.9464C0.0027 21.6464 6.2527 27.8864 13.9427 27.8864ZM13.9427 25.5664C7.5227 25.5664 2.3227 20.3664 2.3227 13.9464C2.3227 7.5164 7.5227 2.3264 13.9427 2.3264C20.3727 2.3264 25.5627 7.5164 25.5627 13.9464C25.5627 20.3664 20.3727 25.5664 13.9427 25.5664ZM9.7927 19.8664H17.9327C18.3327 19.8664 18.6227 19.5764 18.6227 19.1964C18.6227 18.8164 18.3327 18.5264 17.9327 18.5264H11.5627V18.4564C12.5127 18.1064 13.0327 17.1264 13.1427 16.0464C13.1527 15.9164 13.1627 15.7764 13.1627 15.6364H16.5427C16.8427 15.6364 17.0727 15.4064 17.0727 15.1164C17.0727 14.8164 16.8427 14.6064 16.5427 14.6064H13.0727C12.9727 14.0364 12.7927 13.5464 12.6727 13.0264H16.5427C16.8427 13.0264 17.0727 12.8064 17.0727 12.5064C17.0727 12.2264 16.8427 12.0064 16.5427 12.0064H12.5127C12.4827 11.8664 12.4827 11.7064 12.4827 11.5364C12.4827 9.9264 13.7827 9.0964 15.4127 9.0964C15.9327 9.0964 16.5427 9.1864 16.9227 9.2664C17.1127 9.3264 17.3127 9.3564 17.4427 9.3564C17.8827 9.3564 18.0427 9.0964 18.0427 8.7764C18.0427 8.4064 17.8127 8.2064 17.4727 8.0564C16.7727 7.7664 15.9427 7.7264 15.2427 7.7264C12.6427 7.7264 10.8527 9.1164 10.8527 11.5764C10.8527 11.7264 10.8527 11.8664 10.8727 12.0064H9.5927C9.3127 12.0064 9.0827 12.2264 9.0827 12.5064C9.0827 12.8064 9.3127 13.0264 9.5927 13.0264H11.0327C11.1527 13.5864 11.3327 14.0864 11.4727 14.6064H9.5927C9.3127 14.6064 9.0827 14.8164 9.0827 15.1164C9.0827 15.4064 9.3127 15.6364 9.5927 15.6364H11.5827C11.5827 15.7864 11.5627 16.0064 11.5427 16.1864C11.3627 17.3464 10.5727 18.1064 9.7227 18.3764C9.3427 18.5164 9.0927 18.7264 9.0927 19.1564C9.0927 19.6164 9.4227 19.8664 9.7927 19.8664Z"
        fillRule="evenodd"
        clipRule="evenodd"
    />
</svg>
        