<svg viewBox="0 0 30.5703125 30.5703125" xmlns="http://www.w3.org/2000/svg"><path d="M15.2827 30.5663C23.6827 30.5663 30.5727 23.6763 30.5727 15.2863C30.5727 6.8863 23.6827 -0.0038 15.2827 -0.0038C6.8927 -0.0038 0.0027 6.8863 0.0027 15.2863C0.0027 23.6763 6.8927 30.5663 15.2827 30.5663ZM15.2827 25.4862C9.6527 25.4862 5.0827 20.9162 5.0827 15.2863C5.0827 9.6363 9.6527 5.0863 15.2827 5.0863C20.9327 5.0863 25.4827 9.6363 25.4827 15.2863C25.4827 20.9162 20.9327 25.4862 15.2827 25.4862ZM11.1427 21.2063H19.2927C19.6827 21.2063 19.9927 20.9162 19.9927 20.5363C19.9927 20.1563 19.6827 19.8663 19.2927 19.8663H12.9227V19.7963C13.8627 19.4463 14.3827 18.4663 14.4927 17.3863C14.5027 17.2563 14.5227 17.1163 14.5227 16.9763H17.8927C18.1927 16.9763 18.4327 16.7463 18.4327 16.4563C18.4327 16.1563 18.1927 15.9463 17.8927 15.9463H14.4227C14.3427 15.3763 14.1527 14.8863 14.0227 14.3663H17.8927C18.1927 14.3663 18.4327 14.1463 18.4327 13.8463C18.4327 13.5663 18.1927 13.3463 17.8927 13.3463H13.8627C13.8327 13.2063 13.8327 13.0463 13.8327 12.8763C13.8327 11.2663 15.1327 10.4363 16.7627 10.4363C17.2827 10.4363 17.8927 10.5262 18.2827 10.6063C18.4727 10.6663 18.6627 10.6962 18.8027 10.6962C19.2327 10.6962 19.4027 10.4363 19.4027 10.1163C19.4027 9.7463 19.1727 9.5463 18.8227 9.3963C18.1327 9.1063 17.2927 9.0663 16.5927 9.0663C14.0027 9.0663 12.2127 10.4563 12.2127 12.9163C12.2127 13.0663 12.2127 13.2063 12.2227 13.3463H10.9627C10.6627 13.3463 10.4327 13.5663 10.4327 13.8463C10.4327 14.1463 10.6627 14.3663 10.9627 14.3663H12.3827C12.5127 14.9263 12.6827 15.4263 12.8227 15.9463H10.9627C10.6627 15.9463 10.4327 16.1563 10.4327 16.4563C10.4327 16.7463 10.6627 16.9763 10.9627 16.9763H12.9327C12.9427 17.1263 12.9227 17.3463 12.8927 17.5263C12.7127 18.6863 11.9227 19.4463 11.0727 19.7163C10.6927 19.8563 10.4427 20.0663 10.4427 20.4963C10.4427 20.9563 10.7727 21.2063 11.1427 21.2063Z" /></svg>