
<svg
    viewBox="0 0 25.169921875 25.169921875"
    xmlns="http://www.w3.org/2000/svg"
>
    <path
        fill="inherit"
        d="M4.2937 25.1692H20.8737C23.7437 25.1692 25.1737 23.7592 25.1737 20.9492V4.2392C25.1737 1.4192 23.7437 -0.0008 20.8737 -0.0008H4.2937C1.4337 -0.0008 0.0037 1.4192 0.0037 4.2392V20.9492C0.0037 23.7592 1.4337 25.1692 4.2937 25.1692ZM4.3237 22.9692C2.9537 22.9692 2.2037 22.2392 2.2037 20.8192V4.3592C2.2037 2.9392 2.9537 2.1992 4.3237 2.1992H20.8537C22.2037 2.1992 22.9737 2.9392 22.9737 4.3592V20.8192C22.9737 22.2392 22.2037 22.9692 20.8537 22.9692ZM8.4537 18.4992H16.5937C16.9937 18.4992 17.2937 18.2092 17.2937 17.8292C17.2937 17.4492 16.9937 17.1592 16.5937 17.1592H10.2237V17.0892C11.1737 16.7392 11.6937 15.7592 11.8037 14.6792C11.8137 14.5492 11.8237 14.4092 11.8237 14.2692H15.2037C15.5037 14.2692 15.7337 14.0392 15.7337 13.7492C15.7337 13.4492 15.5037 13.2392 15.2037 13.2392H11.7337C11.6437 12.6692 11.4537 12.1792 11.3337 11.6592H15.2037C15.5037 11.6592 15.7337 11.4392 15.7337 11.1392C15.7337 10.8592 15.5037 10.6392 15.2037 10.6392H11.1737C11.1437 10.4992 11.1437 10.3392 11.1437 10.1692C11.1437 8.5592 12.4437 7.7292 14.0637 7.7292C14.5837 7.7292 15.2037 7.8192 15.5837 7.8992C15.7737 7.9592 15.9737 7.9892 16.1037 7.9892C16.5537 7.9892 16.7037 7.7292 16.7037 7.4092C16.7037 7.0392 16.4737 6.8392 16.1337 6.6892C15.4337 6.3992 14.6037 6.3592 13.9037 6.3592C11.3037 6.3592 9.5137 7.7492 9.5137 10.2092C9.5137 10.3592 9.5137 10.4992 9.5337 10.6392H8.2737C7.9737 10.6392 7.7337 10.8592 7.7337 11.1392C7.7337 11.4392 7.9737 11.6592 8.2737 11.6592H9.6937C9.8137 12.2192 9.9937 12.7192 10.1337 13.2392H8.2737C7.9737 13.2392 7.7337 13.4492 7.7337 13.7492C7.7337 14.0392 7.9737 14.2692 8.2737 14.2692H10.2437C10.2537 14.4192 10.2237 14.6392 10.2037 14.8192C10.0237 15.9792 9.2237 16.7392 8.3837 17.0092C7.9937 17.1492 7.7537 17.3592 7.7537 17.7892C7.7537 18.2492 8.0837 18.4992 8.4537 18.4992Z"
        fillRule="evenodd"
        clipRule="evenodd"
    />
</svg>
        