
<svg
    viewBox="0 0 30.544813437289534 27.890625"
    xmlns="http://www.w3.org/2000/svg"
>
    <path
        fill="inherit"
        d="M0.9769 11.3064C-0.0131 11.3064 -0.2531 11.9764 0.2769 12.7464L3.3369 17.0864C3.7869 17.7164 4.4469 17.7064 4.8869 17.0864L7.9269 12.7264C8.4669 11.9764 8.2069 11.3064 7.2469 11.3064H5.2769C6.4669 6.1564 11.0769 2.3264 16.5969 2.3264C23.0269 2.3264 28.2169 7.5164 28.2169 13.9464C28.2169 20.3664 23.0269 25.5664 16.5969 25.5664C12.7169 25.5664 9.2569 23.6564 7.1969 20.7564C6.7669 20.1964 6.1269 20.0164 5.5569 20.3564C5.0069 20.6964 4.8369 21.4664 5.3069 22.0664C7.8369 25.6064 11.9769 27.8864 16.5969 27.8864C24.2969 27.8864 30.5469 21.6464 30.5469 13.9464C30.5469 6.2464 24.2969 -0.0036 16.5969 -0.0036C9.8069 -0.0036 4.1269 4.8664 2.8969 11.3064ZM12.4569 19.8664H20.6069C20.9969 19.8664 21.2869 19.5764 21.2869 19.1964C21.2869 18.8164 20.9969 18.5264 20.6069 18.5264H14.2369V18.4564C15.1769 18.1064 15.6969 17.1264 15.8069 16.0464C15.8169 15.9164 15.8369 15.7764 15.8369 15.6364H19.2069C19.5069 15.6364 19.7469 15.4064 19.7469 15.1164C19.7469 14.8164 19.5069 14.6064 19.2069 14.6064H15.7369C15.6469 14.0364 15.4669 13.5464 15.3369 13.0264H19.2069C19.5069 13.0264 19.7469 12.8064 19.7469 12.5064C19.7469 12.2264 19.5069 12.0064 19.2069 12.0064H15.1769C15.1469 11.8664 15.1469 11.7064 15.1469 11.5364C15.1469 9.9264 16.4469 9.0964 18.0769 9.0964C18.5969 9.0964 19.2069 9.1864 19.5969 9.2664C19.7869 9.3264 19.9769 9.3564 20.1169 9.3564C20.5469 9.3564 20.7169 9.0964 20.7169 8.7764C20.7169 8.4064 20.4869 8.2064 20.1369 8.0564C19.4469 7.7664 18.6069 7.7264 17.9169 7.7264C15.3169 7.7264 13.5269 9.1164 13.5269 11.5764C13.5269 11.7264 13.5269 11.8664 13.5369 12.0064H12.2669C11.9769 12.0064 11.7469 12.2264 11.7469 12.5064C11.7469 12.8064 11.9769 13.0264 12.2669 13.0264H13.6869C13.8269 13.5864 13.9969 14.0864 14.1369 14.6064H12.2669C11.9769 14.6064 11.7469 14.8164 11.7469 15.1164C11.7469 15.4064 11.9769 15.6364 12.2669 15.6364H14.2469C14.2469 15.7864 14.2369 16.0064 14.2069 16.1864C14.0269 17.3464 13.2369 18.1064 12.3869 18.3764C12.0069 18.5164 11.7569 18.7264 11.7569 19.1564C11.7569 19.6164 12.0869 19.8664 12.4569 19.8664Z"
        fillRule="evenodd"
        clipRule="evenodd"
    />
</svg>
        