
<svg
    viewBox={0 0 32.935546875 27.26189615322232}
    xmlns="http://www.w3.org/2000/svg"
>
    <path
        fill="inherit"
        d="M32.9327 16.3992C32.9327 7.7792 26.3227 0.7192 17.8927 -0.0008C17.4627 -0.0408 17.1327 0.2792 17.1327 0.7192V5.1892C17.1327 5.5592 17.3927 5.8392 17.7627 5.8692C22.9927 6.5092 27.0727 10.9792 27.0727 16.3992C27.0727 18.8592 26.2227 21.1292 24.7327 23.0292C24.5427 23.2592 24.5527 23.5592 24.7627 23.7792L28.0227 27.0292C28.3327 27.3292 28.7927 27.3292 29.0627 27.0092C31.4827 24.1392 32.9327 20.4292 32.9327 16.3992ZM0.0027 16.3992C0.0027 20.4392 1.4527 24.1492 3.8727 27.0192C4.1427 27.3492 4.5927 27.3292 4.9127 27.0292L8.1727 23.7792C8.3827 23.5592 8.3927 23.2592 8.2027 23.0292C6.7027 21.1292 5.8627 18.8592 5.8627 16.3992C5.8627 10.9792 9.9427 6.5092 15.1727 5.8692C15.5427 5.8392 15.8027 5.5592 15.8027 5.1892V0.7192C15.8027 0.2792 15.4727 -0.0408 15.0427 -0.0008C6.6127 0.7192 0.0027 7.7792 0.0027 16.3992ZM12.3027 22.4892H20.4627C20.8627 22.4892 21.1527 22.2092 21.1527 21.8192C21.1527 21.4392 20.8627 21.1492 20.4627 21.1492H14.0827V21.0892C15.0227 20.7292 15.5627 19.7692 15.6727 18.6792C15.6827 18.5392 15.6827 18.4192 15.6827 18.2692H19.0727C19.3627 18.2692 19.5927 18.0492 19.5927 17.7492C19.5927 17.4592 19.3627 17.2392 19.0727 17.2392H15.6027C15.5027 16.6792 15.3127 16.1892 15.1927 15.6592H19.0727C19.3627 15.6592 19.5927 15.4392 19.5927 15.1492C19.5927 14.8492 19.3627 14.6292 19.0727 14.6292H15.0227C15.0027 14.4992 15.0027 14.3292 15.0027 14.1792C15.0027 12.5592 16.2927 11.7192 17.9227 11.7192C18.4427 11.7192 19.0627 11.8192 19.4527 11.8992C19.6327 11.9492 19.8227 11.9892 19.9627 11.9892C20.4127 11.9892 20.5627 11.7192 20.5627 11.4192C20.5627 11.0492 20.3327 10.8292 19.9927 10.6992C19.2927 10.3892 18.4527 10.3692 17.7727 10.3692C15.1627 10.3692 13.3727 11.7492 13.3727 14.2092C13.3727 14.3592 13.3727 14.4992 13.3827 14.6292H12.1227C11.8227 14.6292 11.5927 14.8492 11.5927 15.1492C11.5927 15.4392 11.8227 15.6592 12.1227 15.6592H13.5527C13.6727 16.2192 13.8627 16.7092 13.9827 17.2392H12.1227C11.8227 17.2392 11.5927 17.4592 11.5927 17.7492C11.5927 18.0492 11.8227 18.2692 12.1227 18.2692H14.0927C14.1127 18.4192 14.0827 18.6392 14.0527 18.8192C13.8727 19.9892 13.0827 20.7292 12.2327 21.0192C11.8527 21.1392 11.6027 21.3592 11.6027 21.7992C11.6027 22.2492 11.9327 22.4892 12.3027 22.4892Z"
        fillRule="evenodd"
        clipRule="evenodd"
    />
</svg>
        