
<svg
    viewBox="0 0 30.529296875 29.17578125"
    xmlns="http://www.w3.org/2000/svg"
>
    <path
        fill="inherit"
        d="M1.0937 29.179H29.4237C30.0237 29.179 30.5337 28.669 30.5337 28.069C30.5337 27.469 30.0237 26.979 29.4237 26.979H28.7137V25.979C28.7137 25.429 28.3937 25.099 27.8337 25.099H26.9637V9.379H28.1637C28.9137 9.379 29.3537 8.829 29.3537 8.269C29.3537 7.859 29.1237 7.509 28.6137 7.219L16.9437 0.479C16.3937 0.169 15.8137 -0.001 15.2537 -0.001C14.6937 -0.001 14.1137 0.169 13.5937 0.479L1.9137 7.219C1.3937 7.509 1.1737 7.859 1.1737 8.269C1.1737 8.829 1.6137 9.379 2.3637 9.379H3.5637V25.099H2.7037C2.1437 25.099 1.8137 25.429 1.8137 25.979V26.979H1.0937C0.4937 26.979 0.0037 27.469 0.0037 28.069C0.0037 28.669 0.4937 29.179 1.0937 29.179ZM11.0037 21.709C10.6237 21.709 10.2837 21.479 10.2837 20.989C10.2837 20.549 10.5437 20.329 10.9337 20.179C11.8037 19.909 12.6237 19.129 12.7937 17.919C12.8337 17.729 12.8537 17.509 12.8537 17.349H10.8037C10.5037 17.349 10.2637 17.129 10.2637 16.829C10.2637 16.519 10.5037 16.299 10.8037 16.299H12.7137C12.5937 15.759 12.4137 15.259 12.2637 14.669H10.8037C10.5037 14.669 10.2637 14.439 10.2637 14.139C10.2637 13.819 10.5037 13.619 10.8037 13.619H12.1137C12.1037 13.449 12.1037 13.319 12.1037 13.179C12.1037 10.639 13.9437 9.199 16.6237 9.199C17.3537 9.199 18.2137 9.239 18.9337 9.539C19.2737 9.689 19.5237 9.899 19.5237 10.279C19.5237 10.599 19.3637 10.879 18.8937 10.879C18.7537 10.879 18.5537 10.859 18.3637 10.799C17.9637 10.709 17.3337 10.599 16.8037 10.599C15.1237 10.599 13.7837 11.459 13.7837 13.139C13.7837 13.299 13.7837 13.449 13.8037 13.619H17.9637C18.2837 13.619 18.5237 13.819 18.5237 14.139C18.5237 14.439 18.2837 14.669 17.9637 14.669H13.9837C14.1137 15.199 14.2837 15.719 14.3937 16.299H17.9637C18.2837 16.299 18.5237 16.519 18.5237 16.829C18.5237 17.129 18.2837 17.349 17.9637 17.349H14.4937C14.4937 17.509 14.4737 17.649 14.4637 17.789C14.3437 18.909 13.8037 19.909 12.8337 20.279V20.329H19.4137C19.8237 20.329 20.1137 20.619 20.1137 21.009C20.1137 21.409 19.8237 21.709 19.4137 21.709Z"
        fillRule="evenodd"
        clipRule="evenodd"
    />
</svg>
        