
<svg
    viewBox="0 0 32.935546875 27.33018496744969"
    xmlns="http://www.w3.org/2000/svg"
>
    <path
        fill="inherit"
        d="M16.4627 5.864C18.9327 5.864 21.2027 6.724 23.0227 8.134C23.2927 8.354 23.6527 8.324 23.9127 8.064L27.0827 4.894C27.4027 4.584 27.3827 4.124 27.0527 3.854C24.2027 1.454 20.4927 0.004 16.4627 0.004C12.4427 0.004 8.7327 1.454 5.8827 3.854C5.5527 4.124 5.5327 4.584 5.8527 4.894L9.0227 8.064C9.2827 8.324 9.6527 8.354 9.9527 8.124C11.7627 6.724 14.0127 5.864 16.4627 5.864ZM0.0027 16.464C0.0027 20.494 1.4527 24.204 3.8727 27.074C4.1427 27.414 4.6027 27.414 4.9127 27.094L8.1627 23.844C8.3627 23.624 8.3927 23.324 8.2027 23.094C6.7127 21.194 5.8627 18.924 5.8627 16.464C5.8627 14.014 6.7027 11.744 8.1227 9.944C8.3427 9.654 8.3427 9.284 8.0827 9.024L4.9127 5.854C4.5927 5.534 4.1427 5.534 3.8727 5.864C1.4527 8.734 0.0027 12.444 0.0027 16.464ZM32.9327 16.464C32.9327 12.444 31.4827 8.734 29.0627 5.864C28.7927 5.534 28.3327 5.534 28.0227 5.854L24.8527 9.024C24.5927 9.284 24.5827 9.654 24.8127 9.944C26.2227 11.744 27.0727 14.014 27.0727 16.464C27.0727 18.924 26.2227 21.194 24.7327 23.094C24.5427 23.324 24.5527 23.624 24.7627 23.844L28.0127 27.094C28.3327 27.414 28.7827 27.414 29.0627 27.074C31.4827 24.204 32.9327 20.494 32.9327 16.464ZM12.3027 22.554H20.4627C20.8627 22.554 21.1527 22.274 21.1527 21.884C21.1527 21.504 20.8627 21.214 20.4627 21.214H14.0827V21.154C15.0227 20.794 15.5627 19.834 15.6727 18.744C15.6827 18.604 15.6827 18.484 15.6827 18.334H19.0727C19.3627 18.334 19.5927 18.114 19.5927 17.814C19.5927 17.524 19.3627 17.304 19.0727 17.304H15.6027C15.5027 16.744 15.3127 16.254 15.1927 15.724H19.0727C19.3627 15.724 19.5927 15.504 19.5927 15.214C19.5927 14.914 19.3627 14.694 19.0727 14.694H15.0227C15.0027 14.564 15.0027 14.394 15.0027 14.244C15.0027 12.624 16.2927 11.784 17.9227 11.784C18.4427 11.784 19.0627 11.884 19.4527 11.964C19.6327 12.014 19.8227 12.054 19.9627 12.054C20.4127 12.054 20.5627 11.784 20.5627 11.484C20.5627 11.114 20.3327 10.894 19.9927 10.764C19.2927 10.454 18.4527 10.434 17.7727 10.434C15.1627 10.434 13.3727 11.814 13.3727 14.274C13.3727 14.424 13.3727 14.564 13.3827 14.694H12.1227C11.8227 14.694 11.5927 14.914 11.5927 15.214C11.5927 15.504 11.8227 15.724 12.1227 15.724H13.5527C13.6727 16.284 13.8627 16.774 13.9827 17.304H12.1227C11.8227 17.304 11.5927 17.524 11.5927 17.814C11.5927 18.114 11.8227 18.334 12.1227 18.334H14.0927C14.1127 18.484 14.0827 18.704 14.0527 18.884C13.8727 20.054 13.0827 20.794 12.2327 21.084C11.8527 21.204 11.6027 21.424 11.6027 21.864C11.6027 22.314 11.9327 22.554 12.3027 22.554Z"
        fillRule="evenodd"
        clipRule="evenodd"
    />
</svg>
        