
<svg
    viewBox={0 0 25.169921875 25.169921875}
    xmlns="http://www.w3.org/2000/svg"
>
    <path
        fill="inherit"
        d="M4.2937 25.1692H20.8737C23.7437 25.1692 25.1737 23.7592 25.1737 20.9492V4.2392C25.1737 1.4192 23.7437 -0.0008 20.8737 -0.0008H4.2937C1.4337 -0.0008 0.0037 1.4192 0.0037 4.2392V20.9492C0.0037 23.7592 1.4337 25.1692 4.2937 25.1692ZM8.3237 18.6892C7.9437 18.6892 7.6037 18.4392 7.6037 17.9492C7.6037 17.5092 7.8637 17.2992 8.2537 17.1492C9.1237 16.8692 9.9437 16.0892 10.1137 14.8992C10.1537 14.7092 10.1837 14.4892 10.1737 14.3292H8.1337C7.8237 14.3292 7.5837 14.0992 7.5837 13.7992C7.5837 13.4792 7.8237 13.2592 8.1337 13.2592H10.0537C9.9137 12.7292 9.7337 12.2192 9.5937 11.6392H8.1337C7.8237 11.6392 7.5837 11.4192 7.5837 11.0992C7.5837 10.7992 7.8237 10.5792 8.1337 10.5792H9.4337C9.4237 10.4292 9.4237 10.2992 9.4237 10.1492C9.4237 7.5992 11.2637 6.1692 13.9437 6.1692C14.6737 6.1692 15.5337 6.2092 16.2537 6.5092C16.5937 6.6592 16.8437 6.8592 16.8437 7.2492C16.8437 7.5692 16.6937 7.8492 16.2137 7.8492C16.0737 7.8492 15.8837 7.8192 15.6837 7.7692C15.2837 7.6792 14.6537 7.5692 14.1237 7.5692C12.4437 7.5692 11.1037 8.4392 11.1037 10.0992C11.1037 10.2692 11.1037 10.4292 11.1337 10.5792H15.2837C15.6037 10.5792 15.8437 10.7992 15.8437 11.0992C15.8437 11.4192 15.6037 11.6392 15.2837 11.6392H11.3037C11.4337 12.1692 11.6237 12.6892 11.7337 13.2592H15.2837C15.6037 13.2592 15.8437 13.4792 15.8437 13.7992C15.8437 14.0992 15.6037 14.3292 15.2837 14.3292H11.8137C11.8137 14.4792 11.8037 14.6192 11.7837 14.7492C11.6637 15.8692 11.1337 16.8692 10.1537 17.2392V17.3092H16.7337C17.1437 17.3092 17.4437 17.5992 17.4437 17.9792C17.4437 18.3892 17.1437 18.6892 16.7337 18.6892Z"
        fillRule="evenodd"
        clipRule="evenodd"
    />
</svg>
        