
<svg
    viewBox={0 0 18.880859375 24.28125}
    xmlns="http://www.w3.org/2000/svg"
>
    <path
        fill="inherit"
        d="M1.2153 24.2854H17.6553C18.3653 24.2854 18.8853 23.8554 18.8853 23.1454C18.8853 22.4054 18.3453 21.9754 17.6553 21.9754H4.4253V21.9054C6.7253 21.1254 7.8353 18.4254 7.8353 16.0354C7.8353 15.5954 7.8053 15.2054 7.7753 14.8354H14.7753C15.3653 14.8354 15.8053 14.4054 15.8053 13.8354C15.8053 13.2654 15.3653 12.8254 14.7753 12.8254H7.3953C7.2853 12.4154 7.1753 12.0154 7.0553 11.6254H14.7753C15.3653 11.6254 15.8053 11.1854 15.8053 10.6054C15.8053 10.0354 15.3653 9.6154 14.7753 9.6154H6.5453C6.4353 8.9954 6.3553 8.3254 6.3553 7.5454C6.3553 4.1554 8.9953 2.3754 12.4453 2.3754C13.2853 2.3754 14.0253 2.4754 14.6953 2.6354C15.2053 2.7354 16.1153 2.9854 16.5853 2.9854C17.2353 2.9854 17.6353 2.5954 17.6353 1.9454C17.6353 1.2954 17.1153 0.9054 16.5753 0.6854C15.2153 0.0954 13.6753 -0.0046 12.2253 -0.0046C7.1753 -0.0046 3.5853 2.7454 3.5853 7.7254C3.5853 8.3954 3.6553 9.0254 3.7453 9.6154H1.0953C0.5053 9.6154 0.0853 10.0354 0.0853 10.6054C0.0853 11.1954 0.5053 11.6254 1.0953 11.6254H4.2353C4.3453 12.0354 4.4753 12.4254 4.5953 12.8254H1.0953C0.5053 12.8254 0.0853 13.2654 0.0853 13.8354C0.0853 14.4054 0.5053 14.8354 1.0953 14.8354H5.0453C5.1153 15.2554 5.1553 15.6954 5.1553 16.1454C5.1553 18.7054 3.7453 20.9154 1.1053 21.7254C0.4353 21.9454 -0.0047 22.3254 -0.0047 23.0954C-0.0047 23.7354 0.4353 24.2854 1.2153 24.2854Z"
        fillRule="evenodd"
        clipRule="evenodd"
    />
</svg>
        