
<svg
    viewBox="0 0 33.099609375 23.666015625"
    xmlns="http://www.w3.org/2000/svg"
>
    <path
        fill="inherit"
        d="M1.0937 2.2009H26.4237C27.0437 2.2009 27.5537 1.7209 27.5537 1.1109C27.5537 0.4909 27.0437 0.0009 26.4237 0.0009H1.0937C0.4737 0.0009 0.0037 0.4909 0.0037 1.1109C0.0037 1.7209 0.4737 2.2009 1.0937 2.2009ZM1.0937 9.3609H9.5037C10.1337 9.3609 10.6237 8.8709 10.6237 8.2609C10.6237 7.6409 10.1337 7.1609 9.5037 7.1609H1.0937C0.4737 7.1609 0.0037 7.6409 0.0037 8.2609C0.0037 8.8709 0.4737 9.3609 1.0937 9.3609ZM15.0537 23.4309H31.2437C32.3737 23.4309 33.1037 22.7209 33.1037 21.6009V9.1609C33.1037 8.0709 32.3737 7.3409 31.2437 7.3409H15.0537C13.9137 7.3409 13.1937 8.0709 13.1937 9.1609V21.6009C13.1937 22.7209 13.9137 23.4309 15.0537 23.4309ZM15.1637 11.2509C14.8937 11.2509 14.7137 11.0609 14.7137 10.8009V9.3009C14.7137 9.0209 14.8937 8.8309 15.1637 8.8309H16.4437C16.7337 8.8309 16.9137 9.0209 16.9137 9.3009V10.8009C16.9137 11.0609 16.7337 11.2509 16.4437 11.2509ZM29.8437 11.2509C29.5537 11.2509 29.3837 11.0609 29.3837 10.8009V9.3009C29.3837 9.0209 29.5537 8.8309 29.8437 8.8309H31.1337C31.4037 8.8309 31.5837 9.0209 31.5837 9.3009V10.8009C31.5837 11.0609 31.4037 11.2509 31.1337 11.2509ZM18.8137 14.3709C18.5537 14.3709 18.3937 14.2009 18.3937 13.9309V9.8209C18.3937 9.5409 18.5537 9.3809 18.8137 9.3809H27.4837C27.7437 9.3809 27.9037 9.5409 27.9037 9.8209V13.9309C27.9037 14.2009 27.7437 14.3709 27.4837 14.3709ZM15.1637 14.8109C14.8937 14.8109 14.7137 14.6109 14.7137 14.3809V12.8609C14.7137 12.5909 14.8937 12.4009 15.1637 12.4009H16.4437C16.7337 12.4009 16.9137 12.5909 16.9137 12.8609V14.3809C16.9137 14.6109 16.7337 14.8109 16.4437 14.8109ZM29.8437 14.8109C29.5537 14.8109 29.3837 14.6109 29.3837 14.3809V12.8609C29.3837 12.5909 29.5537 12.4009 29.8437 12.4009H31.1337C31.4037 12.4009 31.5837 12.5909 31.5837 12.8609V14.3809C31.5837 14.6109 31.4037 14.8109 31.1337 14.8109ZM1.0937 16.5109H9.5037C10.1337 16.5109 10.6237 16.0409 10.6237 15.4209C10.6237 14.7909 10.1337 14.3109 9.5037 14.3109H1.0937C0.4737 14.3109 0.0037 14.7909 0.0037 15.4209C0.0037 16.0409 0.4737 16.5109 1.0937 16.5109ZM15.1637 18.3609C14.8937 18.3609 14.7137 18.1809 14.7137 17.9409V16.4209C14.7137 16.1509 14.8937 15.9509 15.1637 15.9509H16.4437C16.7337 15.9509 16.9137 16.1509 16.9137 16.4209V17.9409C16.9137 18.1809 16.7337 18.3609 16.4437 18.3609ZM29.8437 18.3609C29.5537 18.3609 29.3837 18.1809 29.3837 17.9409V16.4209C29.3837 16.1509 29.5537 15.9509 29.8437 15.9509H31.1337C31.4037 15.9509 31.5837 16.1509 31.5837 16.4209V17.9409C31.5837 18.1809 31.4037 18.3609 31.1337 18.3609ZM18.8137 21.3809C18.5537 21.3809 18.3937 21.2209 18.3937 20.9409V16.8709C18.3937 16.5809 18.5537 16.4209 18.8137 16.4209H27.4837C27.7437 16.4209 27.9037 16.5809 27.9037 16.8709V20.9409C27.9037 21.2209 27.7437 21.3809 27.4837 21.3809ZM15.1637 21.9309C14.8937 21.9309 14.7137 21.7509 14.7137 21.4909V19.9709C14.7137 19.7009 14.8937 19.5109 15.1637 19.5109H16.4437C16.7337 19.5109 16.9137 19.7009 16.9137 19.9709V21.4909C16.9137 21.7509 16.7337 21.9309 16.4437 21.9309ZM29.8437 21.9309C29.5537 21.9309 29.3837 21.7509 29.3837 21.4909V19.9709C29.3837 19.7009 29.5537 19.5109 29.8437 19.5109H31.1337C31.4037 19.5109 31.5837 19.7009 31.5837 19.9709V21.4909C31.5837 21.7509 31.4037 21.9309 31.1337 21.9309ZM1.0937 23.6709H9.5037C10.1337 23.6709 10.6237 23.1909 10.6237 22.5709C10.6237 21.9609 10.1337 21.4609 9.5037 21.4609H1.0937C0.4737 21.4609 0.0037 21.9609 0.0037 22.5709C0.0037 23.1909 0.4737 23.6709 1.0937 23.6709Z"
        fillRule="evenodd"
        clipRule="evenodd"
    />
</svg>
        