<svg viewBox="0 0 27.548828125 19.974609375" xmlns="http://www.w3.org/2000/svg"><path d="M1.7237 3.4416C2.6837 3.4416 3.4437 2.6816 3.4437 1.7216C3.4437 0.7816 2.6837 0.0016 1.7237 0.0016C0.7637 0.0016 0.0037 0.7816 0.0037 1.7216C0.0037 2.6816 0.7637 3.4416 1.7237 3.4416ZM7.7637 2.8316H26.4237C27.0437 2.8316 27.5537 2.3516 27.5537 1.7216C27.5537 1.1116 27.0437 0.6316 26.4237 0.6316H7.7637C7.1337 0.6316 6.6537 1.1116 6.6537 1.7216C6.6537 2.3516 7.1337 2.8316 7.7637 2.8316ZM1.7237 11.7216C2.6837 11.7216 3.4437 10.9516 3.4437 9.9916C3.4437 9.0416 2.6837 8.2716 1.7237 8.2716C0.7637 8.2716 0.0037 9.0416 0.0037 9.9916C0.0037 10.9516 0.7637 11.7216 1.7237 11.7216ZM7.7637 11.0916H26.4237C27.0437 11.0916 27.5537 10.6116 27.5537 9.9916C27.5537 9.3816 27.0437 8.8916 26.4237 8.8916H7.7637C7.1337 8.8916 6.6537 9.3816 6.6537 9.9916C6.6537 10.6116 7.1337 11.0916 7.7637 11.0916ZM1.7237 19.9716C2.6837 19.9716 3.4437 19.2116 3.4437 18.2516C3.4437 17.3116 2.6837 16.5416 1.7237 16.5416C0.7637 16.5416 0.0037 17.3116 0.0037 18.2516C0.0037 19.2116 0.7637 19.9716 1.7237 19.9716ZM7.7637 19.3616H26.4237C27.0437 19.3616 27.5537 18.8816 27.5537 18.2516C27.5537 17.6416 27.0437 17.1616 26.4237 17.1616H7.7637C7.1337 17.1616 6.6537 17.6416 6.6537 18.2516C6.6537 18.8816 7.1337 19.3616 7.7637 19.3616Z" /></svg>