<svg viewBox="0 0 27.548828125 23.037109375" xmlns="http://www.w3.org/2000/svg"><path d="M2.9837 6.2726C3.5037 6.2726 3.8737 5.9726 3.8737 5.3626V0.9426C3.8737 0.3726 3.4637 0.0026 2.8537 0.0026C2.3837 0.0026 2.0737 0.1626 1.7337 0.3926L0.7637 1.0626C0.4937 1.2626 0.3437 1.4326 0.3437 1.7226C0.3437 2.0826 0.6137 2.3226 0.9337 2.3226C1.1037 2.3226 1.1937 2.2926 1.4237 2.1326L2.0537 1.7126H2.0737V5.3626C2.0737 5.9726 2.4337 6.2726 2.9837 6.2726ZM8.7637 4.6226H26.4237C27.0437 4.6226 27.5537 4.1426 27.5537 3.5226C27.5537 2.9026 27.0437 2.4226 26.4237 2.4226H8.7637C8.1337 2.4226 7.6537 2.9026 7.6537 3.5226C7.6537 4.1426 8.1337 4.6226 8.7637 4.6226ZM0.7837 14.5226H4.2937C4.6637 14.5226 4.9537 14.2626 4.9537 13.8726C4.9537 13.4626 4.6737 13.2026 4.2937 13.2026H2.3337V13.1626L3.4637 12.2626C4.3937 11.5026 4.7537 11.0626 4.7537 10.2526C4.7537 9.1626 3.8437 8.4226 2.3637 8.4226C1.0537 8.4226 0.1137 9.1026 0.1137 9.9826C0.1137 10.4226 0.3937 10.6526 0.8637 10.6526C1.1737 10.6526 1.3837 10.5526 1.5737 10.2426C1.7637 9.9126 2.0137 9.7326 2.3937 9.7326C2.7937 9.7326 3.0737 9.9926 3.0737 10.3726C3.0737 10.7026 2.9137 10.9926 2.2037 11.5526L0.4137 13.0326C0.1337 13.2526 0.0237 13.4926 0.0237 13.7926C0.0237 14.2226 0.3237 14.5226 0.7837 14.5226ZM8.7637 12.8926H26.4237C27.0437 12.8926 27.5537 12.4026 27.5537 11.7826C27.5537 11.1726 27.0437 10.6926 26.4237 10.6926H8.7637C8.1337 10.6926 7.6537 11.1726 7.6537 11.7826C7.6537 12.4026 8.1337 12.8926 8.7637 12.8926ZM2.3937 23.0326C4.0237 23.0326 4.9737 22.3126 4.9737 21.1626C4.9737 20.4126 4.4537 19.8926 3.5137 19.8126V19.7726C4.1937 19.6426 4.7437 19.1826 4.7437 18.3926C4.7437 17.3526 3.7337 16.7726 2.3837 16.7726C1.3137 16.7726 0.1537 17.2826 0.1537 18.1826C0.1537 18.5626 0.4237 18.8426 0.8437 18.8426C1.1437 18.8426 1.2837 18.7126 1.4737 18.5126C1.7937 18.1726 2.0337 18.0626 2.3837 18.0626C2.8037 18.0626 3.1137 18.2626 3.1137 18.6726C3.1137 19.0626 2.7937 19.2526 2.2237 19.2526H2.0737C1.6937 19.2526 1.4537 19.4426 1.4537 19.8426C1.4537 20.2026 1.6837 20.4226 2.0737 20.4226H2.2537C2.8737 20.4226 3.2037 20.6326 3.2037 21.0526C3.2037 21.4226 2.8537 21.6926 2.3937 21.6926C1.9137 21.6926 1.5737 21.4226 1.3137 21.1626C1.1437 21.0126 1.0137 20.9026 0.7537 20.9026C0.3137 20.9026 0.0037 21.1626 0.0037 21.5926C0.0037 22.5326 1.2837 23.0326 2.3937 23.0326ZM8.7637 21.1526H26.4237C27.0437 21.1526 27.5537 20.6726 27.5537 20.0526C27.5537 19.4326 27.0437 18.9526 26.4237 18.9526H8.7637C8.1337 18.9526 7.6537 19.4326 7.6537 20.0526C7.6537 20.6726 8.1337 21.1526 8.7637 21.1526Z" /></svg>