
<svg
    viewBox="0 0 22.99609375 29.3125"
    xmlns="http://www.w3.org/2000/svg"
>
    <path
        fill="inherit"
        d="M0.0037 25.0373C0.0037 27.8873 1.4037 29.3173 4.2337 29.3173H18.7537C21.5837 29.3173 22.9937 27.8873 22.9937 25.0373V4.2973C22.9937 1.4473 21.5837 -0.0027 18.7537 -0.0027H4.2337C1.4037 -0.0027 0.0037 1.4473 0.0037 4.2973ZM2.2037 24.9873V4.3373C2.2037 2.9673 2.9237 2.1973 4.3437 2.1973H18.6437C20.0737 2.1973 20.7937 2.9673 20.7937 4.3373V24.9873C20.7937 26.3573 20.0737 27.1073 18.6437 27.1073H4.3437C2.9237 27.1073 2.2037 26.3573 2.2037 24.9873ZM5.5537 7.4873C6.2637 7.4873 6.8237 6.9273 6.8237 6.2173C6.8237 5.5273 6.2637 4.9473 5.5537 4.9473C4.8637 4.9473 4.2837 5.5373 4.2837 6.2173C4.2837 6.9173 4.8637 7.4873 5.5537 7.4873ZM9.4037 7.0773H17.8737C18.3337 7.0773 18.7137 6.6973 18.7137 6.2173C18.7137 5.7573 18.3337 5.3773 17.8737 5.3773H9.4037C8.9437 5.3773 8.5537 5.7573 8.5537 6.2173C8.5537 6.6973 8.9437 7.0773 9.4037 7.0773ZM5.5537 11.6773C6.2637 11.6773 6.8237 11.0973 6.8237 10.4073C6.8237 9.6973 6.2637 9.1473 5.5537 9.1473C4.8537 9.1473 4.2837 9.7073 4.2837 10.4073C4.2837 11.0973 4.8537 11.6773 5.5537 11.6773ZM9.4037 11.2473H17.8737C18.3437 11.2473 18.7137 10.8873 18.7137 10.4073C18.7137 9.9273 18.3437 9.5573 17.8737 9.5573H9.4037C8.9237 9.5573 8.5537 9.9273 8.5537 10.4073C8.5537 10.8873 8.9237 11.2473 9.4037 11.2473ZM5.5537 16.0473C6.2637 16.0473 6.8237 15.4773 6.8237 14.7773C6.8237 14.0673 6.2637 13.5073 5.5537 13.5073C4.8637 13.5073 4.2837 14.0773 4.2837 14.7773C4.2837 15.4673 4.8637 16.0473 5.5537 16.0473ZM9.4037 15.6273H17.8737C18.3337 15.6273 18.7137 15.2473 18.7137 14.7773C18.7137 14.3173 18.3437 13.9273 17.8737 13.9273H9.4037C8.9237 13.9273 8.5537 14.3173 8.5537 14.7773C8.5537 15.2473 8.9437 15.6273 9.4037 15.6273Z"
        fillRule="evenodd"
        clipRule="evenodd"
    />
</svg>
        