
<svg
    viewBox={0 0 22.99609375 33.126953125}
    xmlns="http://www.w3.org/2000/svg"
>
    <path
        fill="inherit"
        d="M7.2737 6.9407H15.7237C16.5137 6.9407 16.9937 6.4407 16.9937 5.5907V4.1607C16.9937 3.3107 16.5137 2.8007 15.7237 2.8007H14.4637C14.3737 1.2607 13.0837 0.0007 11.4937 0.0007C9.9137 0.0007 8.6237 1.2607 8.5337 2.8007H7.2737C6.4837 2.8007 6.0037 3.3107 6.0037 4.1607V5.5907C6.0037 6.4407 6.4837 6.9407 7.2737 6.9407ZM11.4937 4.1007C10.8437 4.1007 10.3037 3.5507 10.3037 2.9107C10.3037 2.2407 10.8437 1.7107 11.4937 1.7107C12.1537 1.7107 12.6837 2.2407 12.6837 2.9107C12.6837 3.5507 12.1537 4.1007 11.4937 4.1007ZM4.2337 33.1307H18.7537C21.5837 33.1307 22.9937 31.7007 22.9937 28.8307V8.1107C22.9937 5.3007 21.6437 3.8107 18.9037 3.8107H18.5837C18.5937 3.9207 18.5937 4.0507 18.5937 4.1607V5.3907C18.5937 5.6007 18.5837 5.8207 18.5437 6.0107H18.8637C20.1537 6.0107 20.7937 6.8507 20.7937 8.1307V28.8107C20.7937 30.1707 20.0737 30.9307 18.6437 30.9307H4.3437C2.9237 30.9307 2.2037 30.1707 2.2037 28.8107V8.1307C2.2037 6.8507 2.8437 6.0107 4.1337 6.0107H4.4537C4.4137 5.8207 4.4037 5.6007 4.4037 5.3907V4.1607C4.4037 4.0507 4.4037 3.9207 4.4137 3.8107H4.0837C1.3537 3.8107 0.0037 5.3007 0.0037 8.1107V28.8307C0.0037 31.7007 1.4037 33.1307 4.2337 33.1307ZM5.4737 14.5707H17.5237C17.9937 14.5707 18.3937 14.1907 18.3937 13.7307C18.3937 13.2607 17.9937 12.8607 17.5237 12.8607H5.4737C5.0037 12.8607 4.6037 13.2607 4.6037 13.7307C4.6037 14.1907 5.0037 14.5707 5.4737 14.5707ZM5.4737 19.4307H17.5237C18.0037 19.4307 18.3937 19.0407 18.3937 18.5707C18.3937 18.1007 18.0037 17.7307 17.5237 17.7307H5.4737C4.9937 17.7307 4.6037 18.1007 4.6037 18.5707C4.6037 19.0407 4.9937 19.4307 5.4737 19.4307ZM5.4737 24.5407H11.5437C12.0037 24.5407 12.3837 24.1607 12.3837 23.6907C12.3837 23.2307 12.0137 22.8407 11.5437 22.8407H5.4737C4.9937 22.8407 4.6037 23.2307 4.6037 23.6907C4.6037 24.1607 5.0037 24.5407 5.4737 24.5407Z"
        fillRule="evenodd"
        clipRule="evenodd"
    />
</svg>
        