
<svg
    viewBox="0 0 27.548828125 20.932723205678307"
    xmlns="http://www.w3.org/2000/svg"
>
    <path
        fill="inherit"
        d="M1.1037 4.2524L3.5437 2.8024C3.9637 2.5424 3.9537 1.8924 3.5437 1.6524L1.1037 0.1724C0.5637 -0.1676 0.0037 -0.0076 0.0037 0.6524V3.7724C0.0037 4.4024 0.5737 4.5624 1.1037 4.2524ZM8.7637 3.2924H26.4237C27.0437 3.2924 27.5537 2.8124 27.5537 2.1924C27.5537 1.5724 27.0437 1.0924 26.4237 1.0924H8.7637C8.1337 1.0924 7.6537 1.5724 7.6537 2.1924C7.6537 2.8124 8.1337 3.2924 8.7637 3.2924ZM1.1037 12.4924L3.5437 11.0424C3.9637 10.7824 3.9537 10.1424 3.5437 9.8924L1.1037 8.4224C0.5637 8.0924 0.0037 8.2524 0.0037 8.8924V12.0124C0.0037 12.6424 0.5737 12.8024 1.1037 12.4924ZM8.7637 11.5624H26.4237C27.0437 11.5624 27.5537 11.0724 27.5537 10.4524C27.5537 9.8424 27.0437 9.3624 26.4237 9.3624H8.7637C8.1337 9.3624 7.6537 9.8424 7.6537 10.4524C7.6537 11.0724 8.1337 11.5624 8.7637 11.5624ZM1.1037 20.7724L3.5437 19.3324C3.9637 19.0724 3.9537 18.4224 3.5437 18.1824L1.1037 16.7024C0.5637 16.3724 0.0037 16.5224 0.0037 17.1824V20.3024C0.0037 20.9324 0.5737 21.0924 1.1037 20.7724ZM8.7637 19.8224H26.4237C27.0437 19.8224 27.5537 19.3424 27.5537 18.7224C27.5537 18.1024 27.0437 17.6224 26.4237 17.6224H8.7637C8.1337 17.6224 7.6537 18.1024 7.6537 18.7224C7.6537 19.3424 8.1337 19.8224 8.7637 19.8224Z"
        fillRule="evenodd"
        clipRule="evenodd"
    />
</svg>
        