
<svg
    viewBox={0 0 34.37109375 19.974609375}
    xmlns="http://www.w3.org/2000/svg"
>
    <path
        fill="inherit"
        d="M1.7237 3.4416C2.6837 3.4416 3.4437 2.6816 3.4437 1.7216C3.4437 0.7816 2.6837 0.0016 1.7237 0.0016C0.7637 0.0016 0.0037 0.7816 0.0037 1.7216C0.0037 2.6816 0.7637 3.4416 1.7237 3.4416ZM7.7637 2.8316H26.4237C27.0437 2.8316 27.5537 2.3516 27.5537 1.7216C27.5537 1.1116 27.0437 0.6316 26.4237 0.6316H7.7637C7.1337 0.6316 6.6537 1.1116 6.6537 1.7216C6.6537 2.3516 7.1337 2.8316 7.7637 2.8316ZM5.1437 11.7216C6.0837 11.7216 6.8637 10.9516 6.8637 9.9916C6.8637 9.0416 6.0837 8.2716 5.1437 8.2716C4.1837 8.2716 3.4137 9.0416 3.4137 9.9916C3.4137 10.9516 4.1837 11.7216 5.1437 11.7216ZM11.1737 11.0916H29.8437C30.4637 11.0916 30.9537 10.6116 30.9537 9.9916C30.9537 9.3816 30.4637 8.8916 29.8437 8.8916H11.1737C10.5537 8.8916 10.0737 9.3816 10.0737 9.9916C10.0737 10.6116 10.5537 11.0916 11.1737 11.0916ZM8.5437 19.9716C9.5037 19.9716 10.2637 19.2116 10.2637 18.2516C10.2637 17.3116 9.5037 16.5416 8.5437 16.5416C7.6037 16.5416 6.8237 17.3116 6.8237 18.2516C6.8237 19.2116 7.6037 19.9716 8.5437 19.9716ZM14.5837 19.3616H33.2637C33.8837 19.3616 34.3737 18.8816 34.3737 18.2516C34.3737 17.6416 33.8837 17.1616 33.2637 17.1616H14.5837C13.9737 17.1616 13.4937 17.6416 13.4937 18.2516C13.4937 18.8816 13.9737 19.3616 14.5837 19.3616Z"
        fillRule="evenodd"
        clipRule="evenodd"
    />
</svg>
        