
<svg
    viewBox="0 0 32.23828125 25.169921875"
    xmlns="http://www.w3.org/2000/svg"
>
    <path
        fill="inherit"
        d="M4.2937 25.1692H27.9437C30.8137 25.1692 32.2337 23.7592 32.2337 20.9492V4.2392C32.2337 1.4192 30.8137 -0.0008 27.9437 -0.0008H4.2937C1.4337 -0.0008 0.0037 1.4192 0.0037 4.2392V20.9492C0.0037 23.7592 1.4337 25.1692 4.2937 25.1692ZM4.3237 22.9692C2.9537 22.9692 2.2037 22.2392 2.2037 20.8192V4.3592C2.2037 2.9392 2.9537 2.1992 4.3237 2.1992H27.9137C29.2737 2.1992 30.0337 2.9392 30.0337 4.3592V20.8192C30.0337 22.2392 29.2737 22.9692 27.9137 22.9692ZM6.8337 7.7892H8.4937C9.0637 7.7892 9.5437 7.3192 9.5437 6.7392C9.5437 6.1692 9.0537 5.6892 8.4937 5.6892H6.8337C6.2437 5.6892 5.7937 6.1692 5.7937 6.7392C5.7937 7.3192 6.2637 7.7892 6.8337 7.7892ZM12.3137 7.5992H25.5837C26.0537 7.5992 26.4237 7.2192 26.4237 6.7392C26.4237 6.2592 26.0537 5.8892 25.5837 5.8892H12.3137C11.8437 5.8892 11.4737 6.2592 11.4737 6.7392C11.4737 7.2192 11.8437 7.5992 12.3137 7.5992ZM6.8337 12.3492H8.4937C9.0537 12.3492 9.5437 11.8792 9.5437 11.3092C9.5437 10.7292 9.0637 10.2692 8.4937 10.2692H6.8337C6.2437 10.2692 5.7937 10.7292 5.7937 11.3092C5.7937 11.8792 6.2437 12.3492 6.8337 12.3492ZM12.3137 12.1692H25.5837C26.0537 12.1692 26.4237 11.7992 26.4237 11.3092C26.4237 10.8292 26.0537 10.4492 25.5837 10.4492H12.3137C11.8537 10.4492 11.4737 10.8192 11.4737 11.3092C11.4737 11.7892 11.8437 12.1692 12.3137 12.1692Z"
        fillRule="evenodd"
        clipRule="evenodd"
    />
</svg>
        