
<svg
    viewBox={0 0 22.99609375 33.126953125}
    xmlns="http://www.w3.org/2000/svg"
>
    <path
        fill="inherit"
        d="M7.2737 6.9407H15.7237C16.5137 6.9407 16.9937 6.4407 16.9937 5.5907V4.1607C16.9937 3.3107 16.5137 2.8007 15.7237 2.8007H14.4637C14.3737 1.2607 13.0837 0.0007 11.4937 0.0007C9.9137 0.0007 8.6237 1.2607 8.5337 2.8007H7.2737C6.4837 2.8007 6.0037 3.3107 6.0037 4.1607V5.5907C6.0037 6.4407 6.4837 6.9407 7.2737 6.9407ZM11.4937 4.1007C10.8437 4.1007 10.3037 3.5507 10.3037 2.9107C10.3037 2.2407 10.8437 1.7107 11.4937 1.7107C12.1537 1.7107 12.6837 2.2407 12.6837 2.9107C12.6837 3.5507 12.1537 4.1007 11.4937 4.1007ZM4.2337 33.1307H18.7537C21.5837 33.1307 22.9937 31.7007 22.9937 28.8307V8.0907C22.9937 5.2207 21.5837 3.8007 18.8937 3.8007H18.5837V5.5907C18.5837 7.3107 17.4137 8.5307 15.7237 8.5307H7.2737C5.5737 8.5307 4.4137 7.3107 4.4137 5.5907V3.8007H4.1037C1.4037 3.8007 0.0037 5.2207 0.0037 8.0907V28.8307C0.0037 31.7007 1.4037 33.1307 4.2337 33.1307ZM5.2737 15.5407C4.8037 15.5407 4.3937 15.1507 4.3937 14.6707C4.3937 14.1807 4.8037 13.7707 5.2737 13.7707H17.7237C18.1937 13.7707 18.6037 14.1807 18.6037 14.6707C18.6037 15.1507 18.1937 15.5407 17.7237 15.5407ZM5.2737 20.5507C4.7837 20.5507 4.3937 20.1507 4.3937 19.6607C4.3937 19.1707 4.7837 18.7807 5.2737 18.7807H17.7237C18.2137 18.7807 18.6037 19.1707 18.6037 19.6607C18.6037 20.1507 18.2137 20.5507 17.7237 20.5507ZM5.2737 25.8307C4.8037 25.8307 4.3937 25.4207 4.3937 24.9407C4.3937 24.4607 4.7837 24.0607 5.2737 24.0607H11.5437C12.0337 24.0607 12.4137 24.4607 12.4137 24.9407C12.4137 25.4207 12.0137 25.8307 11.5437 25.8307Z"
        fillRule="evenodd"
        clipRule="evenodd"
    />
</svg>
        