
<svg
    viewBox="0 0 27.548828125 19.25"
    xmlns="http://www.w3.org/2000/svg"
>
    <path
        fill="inherit"
        d="M1.3537 2.7224H3.6937C4.4437 2.7224 5.0537 2.1024 5.0537 1.3624C5.0537 0.6024 4.4437 0.0024 3.6937 0.0024H1.3537C0.6037 0.0024 0.0037 0.6024 0.0037 1.3624C0.0037 2.1024 0.6037 2.7224 1.3537 2.7224ZM9.1337 2.4624H26.4237C27.0437 2.4624 27.5537 1.9824 27.5537 1.3624C27.5537 0.7424 27.0437 0.2624 26.4237 0.2624H9.1337C8.5037 0.2624 8.0237 0.7424 8.0237 1.3624C8.0237 1.9824 8.5037 2.4624 9.1337 2.4624ZM1.3537 10.9924H3.6937C4.4437 10.9924 5.0537 10.3724 5.0537 9.6224C5.0537 8.8724 4.4437 8.2724 3.6937 8.2724H1.3537C0.6037 8.2724 0.0037 8.8724 0.0037 9.6224C0.0037 10.3724 0.6037 10.9924 1.3537 10.9924ZM9.1337 10.7324H26.4237C27.0437 10.7324 27.5537 10.2424 27.5537 9.6224C27.5537 9.0124 27.0437 8.5324 26.4237 8.5324H9.1337C8.5037 8.5324 8.0237 9.0124 8.0237 9.6224C8.0237 10.2424 8.5037 10.7324 9.1337 10.7324ZM1.3537 19.2524H3.6937C4.4437 19.2524 5.0537 18.6324 5.0537 17.8924C5.0537 17.1324 4.4437 16.5324 3.6937 16.5324H1.3537C0.6037 16.5324 0.0037 17.1324 0.0037 17.8924C0.0037 18.6324 0.6037 19.2524 1.3537 19.2524ZM9.1337 18.9924H26.4237C27.0437 18.9924 27.5537 18.5124 27.5537 17.8924C27.5537 17.2724 27.0437 16.7924 26.4237 16.7924H9.1337C8.5037 16.7924 8.0237 17.2724 8.0237 17.8924C8.0237 18.5124 8.5037 18.9924 9.1337 18.9924Z"
        fillRule="evenodd"
        clipRule="evenodd"
    />
</svg>
        