
<svg
    viewBox="0 0 32.23828125 25.169921875"
    xmlns="http://www.w3.org/2000/svg"
>
    <path
        fill="inherit"
        d="M4.2937 25.1692H27.9437C30.8137 25.1692 32.2337 23.7592 32.2337 20.9492V4.2392C32.2337 1.4192 30.8137 -0.0008 27.9437 -0.0008H4.2937C1.4337 -0.0008 0.0037 1.4192 0.0037 4.2392V20.9492C0.0037 23.7592 1.4337 25.1692 4.2937 25.1692ZM6.1837 7.3392C5.4837 7.3392 4.8837 6.7292 4.8837 6.0292C4.8837 5.3092 5.4837 4.7192 6.1837 4.7192C6.9137 4.7192 7.5037 5.2892 7.5037 6.0292C7.5037 6.7392 6.9137 7.3392 6.1837 7.3392ZM10.4337 6.8892C9.9237 6.8892 9.5437 6.5092 9.5437 6.0292C9.5437 5.5192 9.9437 5.1292 10.4337 5.1292H26.5537C27.0437 5.1292 27.4437 5.5192 27.4437 6.0292C27.4437 6.5092 27.0537 6.8892 26.5537 6.8892ZM6.1837 11.6492C5.4837 11.6492 4.8837 11.0492 4.8837 10.3392C4.8837 9.6092 5.4837 9.0192 6.1837 9.0192C6.9137 9.0192 7.5037 9.5992 7.5037 10.3392C7.5037 11.0592 6.9137 11.6492 6.1837 11.6492ZM10.4337 11.2092C9.9437 11.2092 9.5437 10.8192 9.5437 10.3392C9.5437 9.8592 9.9437 9.4492 10.4337 9.4492H19.3637C19.8337 9.4492 20.2337 9.8592 20.2337 10.3392C20.2337 10.8192 19.8337 11.2092 19.3637 11.2092ZM6.1837 15.9392C5.4737 15.9392 4.8837 15.3692 4.8837 14.6292C4.8837 13.9292 5.4737 13.3292 6.1837 13.3292C6.9137 13.3292 7.5037 13.9192 7.5037 14.6292C7.5037 15.3692 6.9137 15.9392 6.1837 15.9392ZM10.4337 15.5292C9.9237 15.5292 9.5437 15.1492 9.5437 14.6292C9.5437 14.1492 9.9237 13.7692 10.4337 13.7692H26.5537C27.0537 13.7692 27.4437 14.1492 27.4437 14.6292C27.4437 15.1492 27.0537 15.5292 26.5537 15.5292ZM6.1837 20.4692C5.4837 20.4692 4.8837 19.8692 4.8837 19.1592C4.8837 18.4392 5.4837 17.8292 6.1837 17.8292C6.9137 17.8292 7.5037 18.4292 7.5037 19.1592C7.5037 19.8792 6.9137 20.4692 6.1837 20.4692ZM10.4337 20.0392C9.9437 20.0392 9.5437 19.6492 9.5437 19.1592C9.5437 18.6592 9.9237 18.2792 10.4337 18.2792H19.3637C19.8537 18.2792 20.2337 18.6592 20.2337 19.1592C20.2337 19.6492 19.8337 20.0392 19.3637 20.0392Z"
        fillRule="evenodd"
        clipRule="evenodd"
    />
</svg>
        