
<svg
    viewBox={0 0 27.890625 27.890625}
    xmlns="http://www.w3.org/2000/svg"
>
    <path
        fill="inherit"
        d="M13.9427 27.8864C21.6427 27.8864 27.8927 21.6464 27.8927 13.9464C27.8927 6.2464 21.6427 -0.0036 13.9427 -0.0036C6.2527 -0.0036 0.0027 6.2464 0.0027 13.9464C0.0027 21.6464 6.2527 27.8864 13.9427 27.8864ZM13.9427 25.5664C7.5227 25.5664 2.3227 20.3664 2.3227 13.9464C2.3227 7.5164 7.5227 2.3264 13.9427 2.3264C20.3727 2.3264 25.5627 7.5164 25.5627 13.9464C25.5627 20.3664 20.3727 25.5664 13.9427 25.5664ZM7.3127 10.6064C7.9527 10.6064 8.4927 10.0664 8.4927 9.4364C8.4927 8.7764 7.9727 8.2564 7.3127 8.2564C6.6627 8.2564 6.1427 8.7764 6.1427 9.4364C6.1427 10.0764 6.6627 10.6064 7.3127 10.6064ZM10.6127 10.2564H20.8627C21.3327 10.2564 21.6927 9.8964 21.6927 9.4364C21.6927 8.9564 21.3327 8.5964 20.8627 8.5964H10.6127C10.1427 8.5964 9.7927 8.9664 9.7927 9.4364C9.7927 9.8864 10.1627 10.2564 10.6127 10.2564ZM7.3127 15.1364C7.9527 15.1364 8.4927 14.5864 8.4927 13.9564C8.4927 13.3164 7.9527 12.7864 7.3127 12.7864C6.6627 12.7864 6.1427 13.3064 6.1427 13.9564C6.1427 14.6064 6.6627 15.1364 7.3127 15.1364ZM10.6127 14.7764H20.8627C21.3327 14.7764 21.6927 14.4264 21.6927 13.9564C21.6927 13.4764 21.3327 13.1264 20.8627 13.1264H10.6127C10.1627 13.1264 9.7927 13.5064 9.7927 13.9564C9.7927 14.4064 10.1627 14.7764 10.6127 14.7764ZM7.3127 19.6564C7.9727 19.6564 8.4927 19.1264 8.4927 18.4864C8.4927 17.8464 7.9527 17.3064 7.3127 17.3064C6.6627 17.3064 6.1427 17.8264 6.1427 18.4864C6.1427 19.1264 6.6627 19.6564 7.3127 19.6564ZM10.6127 19.3064H20.8627C21.3327 19.3064 21.6927 18.9464 21.6927 18.4864C21.6927 18.0064 21.3327 17.6464 20.8627 17.6464H10.6127C10.1627 17.6464 9.7927 18.0364 9.7927 18.4864C9.7927 18.9464 10.1427 19.3064 10.6127 19.3064Z"
        fillRule="evenodd"
        clipRule="evenodd"
    />
</svg>
        