<svg viewBox="0 0 22.99609375 33.126953125" xmlns="http://www.w3.org/2000/svg"><path d="M7.2737 6.9407H15.7237C16.5137 6.9407 16.9937 6.4407 16.9937 5.5907V4.1607C16.9937 3.3107 16.5137 2.8007 15.7237 2.8007H14.4637C14.3737 1.2607 13.0837 0.0007 11.4937 0.0007C9.9137 0.0007 8.6237 1.2607 8.5337 2.8007H7.2737C6.4837 2.8007 6.0037 3.3107 6.0037 4.1607V5.5907C6.0037 6.4407 6.4837 6.9407 7.2737 6.9407ZM11.4937 4.1007C10.8437 4.1007 10.3037 3.5507 10.3037 2.9107C10.3037 2.2407 10.8437 1.7107 11.4937 1.7107C12.1537 1.7107 12.6837 2.2407 12.6837 2.9107C12.6837 3.5507 12.1537 4.1007 11.4937 4.1007ZM4.2337 33.1307H18.7537C21.5837 33.1307 22.9937 31.7007 22.9937 28.8307V8.0907C22.9937 5.2207 21.5837 3.8007 18.8937 3.8007H18.5837V5.5907C18.5837 7.3107 17.4137 8.5307 15.7237 8.5307H7.2737C5.5737 8.5307 4.4137 7.3107 4.4137 5.5907V3.8007H4.1037C1.4037 3.8007 0.0037 5.2207 0.0037 8.0907V28.8307C0.0037 31.7007 1.4037 33.1307 4.2337 33.1307ZM5.5537 15.3707C4.8937 15.3707 4.3437 14.8107 4.3437 14.1607C4.3437 13.5107 4.8937 12.9607 5.5537 12.9607C6.2037 12.9607 6.7537 13.4907 6.7537 14.1607C6.7537 14.8207 6.2037 15.3707 5.5537 15.3707ZM9.3237 15.0407C8.8337 15.0407 8.4237 14.6407 8.4237 14.1607C8.4237 13.6807 8.8337 13.2607 9.3237 13.2607H17.7737C18.2537 13.2607 18.6437 13.6807 18.6437 14.1607C18.6437 14.6407 18.2537 15.0407 17.7737 15.0407ZM5.5537 20.3607C4.8837 20.3607 4.3437 19.8107 4.3437 19.1507C4.3437 18.5007 4.8837 17.9607 5.5537 17.9607C6.2037 17.9607 6.7537 18.4807 6.7537 19.1507C6.7537 19.8107 6.2037 20.3607 5.5537 20.3607ZM9.3237 20.0407C8.8137 20.0407 8.4237 19.6507 8.4237 19.1507C8.4237 18.6607 8.8137 18.2807 9.3237 18.2807H17.7737C18.2637 18.2807 18.6437 18.6607 18.6437 19.1507C18.6437 19.6507 18.2637 20.0407 17.7737 20.0407ZM5.5537 25.6307C4.8937 25.6307 4.3437 25.0907 4.3437 24.4307C4.3437 23.7907 4.8937 23.2307 5.5537 23.2307C6.2037 23.2307 6.7537 23.7707 6.7537 24.4307C6.7537 25.1007 6.2037 25.6307 5.5537 25.6307ZM9.3237 25.3207C8.8337 25.3207 8.4237 24.9107 8.4237 24.4307C8.4237 23.9507 8.8137 23.5607 9.3237 23.5607H17.7737C18.2637 23.5607 18.6437 23.9507 18.6437 24.4307C18.6437 24.9107 18.2537 25.3207 17.7737 25.3207Z" /></svg>