
<svg
    viewBox={0 0 32.23828125 25.169921875}
    xmlns="http://www.w3.org/2000/svg"
>
    <path
        fill="inherit"
        d="M4.2937 25.1692H27.9437C30.8137 25.1692 32.2337 23.7592 32.2337 20.9492V4.2392C32.2337 1.4192 30.8137 -0.0008 27.9437 -0.0008H4.2937C1.4337 -0.0008 0.0037 1.4192 0.0037 4.2392V20.9492C0.0037 23.7592 1.4337 25.1692 4.2937 25.1692ZM4.3237 22.9692C2.9537 22.9692 2.2037 22.2392 2.2037 20.8192V4.3592C2.2037 2.9392 2.9537 2.1992 4.3237 2.1992H27.9137C29.2737 2.1992 30.0337 2.9392 30.0337 4.3592V20.8192C30.0337 22.2392 29.2737 22.9692 27.9137 22.9692ZM6.4837 7.4792C7.1937 7.4792 7.7537 6.9092 7.7537 6.2092C7.7537 5.4992 7.1937 4.9392 6.4837 4.9392C5.7937 4.9392 5.2137 5.5092 5.2137 6.2092C5.2137 6.8892 5.7937 7.4792 6.4837 7.4792ZM10.6137 7.0392H26.2537C26.7437 7.0392 27.1137 6.6692 27.1137 6.2092C27.1137 5.7292 26.7237 5.3492 26.2537 5.3492H10.6137C10.1337 5.3492 9.7437 5.7292 9.7437 6.2092C9.7437 6.6692 10.1137 7.0392 10.6137 7.0392ZM6.4837 11.6592C7.1937 11.6592 7.7537 11.0892 7.7537 10.3892C7.7537 9.6792 7.1937 9.1192 6.4837 9.1192C5.7937 9.1192 5.2137 9.6892 5.2137 10.3892C5.2137 11.0692 5.7937 11.6592 6.4837 11.6592ZM10.6137 11.2392H19.2737C19.7437 11.2392 20.1237 10.8592 20.1237 10.3892C20.1237 9.9292 19.7437 9.5292 19.2737 9.5292H10.6137C10.1337 9.5292 9.7437 9.9292 9.7437 10.3892C9.7437 10.8592 10.1337 11.2392 10.6137 11.2392ZM6.4837 15.8292C7.1937 15.8292 7.7537 15.2692 7.7537 14.5592C7.7537 13.8592 7.1937 13.2992 6.4837 13.2992C5.7837 13.2992 5.2137 13.8792 5.2137 14.5592C5.2137 15.2692 5.7837 15.8292 6.4837 15.8292ZM10.6137 15.4192H26.2537C26.7437 15.4192 27.1137 15.0492 27.1137 14.5592C27.1137 14.0992 26.7437 13.7292 26.2537 13.7292H10.6137C10.1137 13.7292 9.7437 14.0992 9.7437 14.5592C9.7437 15.0492 10.1137 15.4192 10.6137 15.4192ZM6.4837 20.2192C7.1937 20.2192 7.7537 19.6492 7.7537 18.9492C7.7537 18.2392 7.1937 17.6592 6.4837 17.6592C5.7937 17.6592 5.2137 18.2492 5.2137 18.9492C5.2137 19.6292 5.7937 20.2192 6.4837 20.2192ZM10.6137 19.7992H19.2737C19.7437 19.7992 20.1237 19.4092 20.1237 18.9492C20.1237 18.4692 19.7537 18.0992 19.2737 18.0992H10.6137C10.1137 18.0992 9.7437 18.4692 9.7437 18.9492C9.7437 19.4092 10.1337 19.7992 10.6137 19.7992Z"
        fillRule="evenodd"
        clipRule="evenodd"
    />
</svg>
        