<svg viewBox="0 0 27.70196282460441 21.941338231992997" xmlns="http://www.w3.org/2000/svg"><path d="M1.5864 5.2906L2.7664 4.4306L3.8964 5.2906C4.3064 5.5906 4.7464 5.2706 4.5964 4.8206L4.1464 3.4306L5.2964 2.5706C5.6464 2.2906 5.5164 1.7906 5.0564 1.7906H3.6264L3.1464 0.3006C3.0264 -0.0994 2.4864 -0.0994 2.3664 0.3006L1.8864 1.7906H0.4364C-0.0136 1.7906 -0.1636 2.2906 0.2064 2.5706L1.3664 3.4306L0.9164 4.8206C0.7564 5.2706 1.1964 5.5706 1.5864 5.2906ZM9.3264 4.1406H26.5764C27.1964 4.1406 27.7064 3.6606 27.7064 3.0406C27.7064 2.4206 27.1964 1.9406 26.5764 1.9406H9.3264C8.6964 1.9406 8.2164 2.4206 8.2164 3.0406C8.2164 3.6606 8.6964 4.1406 9.3264 4.1406ZM1.5864 13.5306L2.7664 12.6706L3.8964 13.5306C4.3064 13.8506 4.7464 13.5206 4.5964 13.0706L4.1464 11.6706L5.2964 10.8106C5.6464 10.5406 5.5164 10.0406 5.0564 10.0406H3.6264L3.1464 8.5406C3.0264 8.1606 2.4864 8.1606 2.3664 8.5406L1.8864 10.0406H0.4364C-0.0136 10.0406 -0.1636 10.5406 0.2064 10.8106L1.3664 11.6706L0.9164 13.0706C0.7664 13.5206 1.1964 13.8206 1.5864 13.5306ZM9.3264 12.4106H26.5764C27.1964 12.4106 27.7064 11.9206 27.7064 11.3006C27.7064 10.6906 27.1964 10.2106 26.5764 10.2106H9.3264C8.6964 10.2106 8.2164 10.6906 8.2164 11.3006C8.2164 11.9206 8.6964 12.4106 9.3264 12.4106ZM1.5864 21.8206L2.7664 20.9506L3.8964 21.8206C4.3064 22.1306 4.7464 21.8006 4.5964 21.3506L4.1464 19.9606L5.2964 19.1006C5.6464 18.8206 5.5164 18.3306 5.0564 18.3306H3.6264L3.1464 16.8306C3.0264 16.4406 2.4864 16.4306 2.3664 16.8306L1.8864 18.3306H0.4364C-0.0136 18.3306 -0.1636 18.8206 0.2064 19.1006L1.3664 19.9606L0.9164 21.3506C0.7664 21.8006 1.1964 22.1006 1.5864 21.8206ZM9.3264 20.6706H26.5764C27.1964 20.6706 27.7064 20.1906 27.7064 19.5706C27.7064 18.9506 27.1964 18.4706 26.5764 18.4706H9.3264C8.6964 18.4706 8.2164 18.9506 8.2164 19.5706C8.2164 20.1906 8.6964 20.6706 9.3264 20.6706Z" /></svg>