
<svg
    viewBox="0 0 27.890625 27.890625"
    xmlns="http://www.w3.org/2000/svg"
>
    <path
        fill="inherit"
        d="M13.9427 27.8864C21.6427 27.8864 27.8927 21.6264 27.8927 13.9464C27.8927 6.2464 21.6427 -0.0036 13.9427 -0.0036C6.2627 -0.0036 0.0027 6.2464 0.0027 13.9464C0.0027 21.6264 6.2627 27.8864 13.9427 27.8864ZM7.1127 10.5164C6.4427 10.5164 5.9027 9.9664 5.9027 9.2964C5.9027 8.6164 6.4427 8.0764 7.1127 8.0764C7.7927 8.0764 8.3227 8.6164 8.3227 9.2964C8.3227 9.9564 7.7827 10.5164 7.1127 10.5164ZM10.5127 10.1564C10.0527 10.1564 9.6627 9.7664 9.6627 9.2964C9.6627 8.8164 10.0227 8.4464 10.5127 8.4464H21.0727C21.5627 8.4464 21.9427 8.8164 21.9427 9.2964C21.9427 9.7764 21.5627 10.1564 21.0727 10.1564ZM7.1127 15.1764C6.4427 15.1764 5.9027 14.6464 5.9027 13.9564C5.9027 13.2764 6.4427 12.7464 7.1127 12.7464C7.7827 12.7464 8.3227 13.2864 8.3227 13.9564C8.3227 14.6264 7.7827 15.1764 7.1127 15.1764ZM10.5127 14.8164C10.0527 14.8164 9.6627 14.4264 9.6627 13.9564C9.6627 13.4964 10.0527 13.1064 10.5127 13.1064H21.0727C21.5627 13.1064 21.9427 13.4764 21.9427 13.9564C21.9427 14.4364 21.5627 14.8164 21.0727 14.8164ZM7.1127 19.8364C6.4427 19.8364 5.9027 19.3064 5.9027 18.6164C5.9027 17.9464 6.4427 17.4064 7.1127 17.4064C7.7827 17.4064 8.3227 17.9664 8.3227 18.6164C8.3227 19.3064 7.7927 19.8364 7.1127 19.8364ZM10.5127 19.4864C10.0227 19.4864 9.6627 19.0964 9.6627 18.6164C9.6627 18.1564 10.0527 17.7764 10.5127 17.7764H21.0727C21.5627 17.7764 21.9427 18.1464 21.9427 18.6164C21.9427 19.0964 21.5627 19.4864 21.0727 19.4864Z"
        fillRule="evenodd"
        clipRule="evenodd"
    />
</svg>
        