
<svg
    viewBox={0 0 30.3515625 30.32421875}
    xmlns="http://www.w3.org/2000/svg"
>
    <path
        fill="inherit"
        d="M15.1727 1.3932C15.5727 1.3932 15.8727 1.0932 15.8727 0.6932C15.8727 0.3032 15.5727 0.0032 15.1727 0.0032C14.7827 0.0032 14.4827 0.3032 14.4827 0.6932C14.4827 1.0932 14.7827 1.3932 15.1727 1.3932ZM17.6927 1.6232C18.0927 1.6232 18.4027 1.3132 18.4027 0.9332C18.4027 0.5332 18.0927 0.2232 17.6927 0.2232C17.3127 0.2232 16.9927 0.5332 16.9927 0.9332C16.9927 1.3132 17.3127 1.6232 17.6927 1.6232ZM12.6627 1.6232C13.0427 1.6232 13.3527 1.3132 13.3527 0.9332C13.3527 0.5332 13.0427 0.2232 12.6627 0.2232C12.2627 0.2232 11.9527 0.5332 11.9527 0.9332C11.9527 1.3132 12.2627 1.6232 12.6627 1.6232ZM20.1227 2.2732C20.5227 2.2732 20.8227 1.9732 20.8227 1.5732C20.8227 1.1732 20.5227 0.8732 20.1227 0.8732C19.7327 0.8732 19.4327 1.1732 19.4327 1.5732C19.4327 1.9732 19.7327 2.2732 20.1227 2.2732ZM10.2227 2.2732C10.6227 2.2732 10.9227 1.9732 10.9227 1.5732C10.9227 1.1732 10.6227 0.8732 10.2227 0.8732C9.8327 0.8732 9.5327 1.1732 9.5327 1.5732C9.5327 1.9732 9.8327 2.2732 10.2227 2.2732ZM22.4227 3.3632C22.8027 3.3632 23.1227 3.0532 23.1227 2.6632C23.1227 2.2732 22.8027 1.9532 22.4227 1.9532C22.0227 1.9532 21.7127 2.2732 21.7127 2.6632C21.7127 3.0532 22.0227 3.3632 22.4227 3.3632ZM7.9327 3.3632C8.3227 3.3632 8.6427 3.0532 8.6427 2.6632C8.6427 2.2732 8.3227 1.9532 7.9327 1.9532C7.5427 1.9532 7.2327 2.2732 7.2327 2.6632C7.2327 3.0532 7.5427 3.3632 7.9327 3.3632ZM24.4827 4.8032C24.8827 4.8032 25.1827 4.4932 25.1827 4.1032C25.1827 3.7032 24.8827 3.4032 24.4827 3.4032C24.0927 3.4032 23.7927 3.7032 23.7927 4.1032C23.7927 4.4932 24.0927 4.8032 24.4827 4.8032ZM5.8627 4.8032C6.2627 4.8032 6.5627 4.4932 6.5627 4.1032C6.5627 3.7032 6.2627 3.4032 5.8627 3.4032C5.4727 3.4032 5.1727 3.7032 5.1727 4.1032C5.1727 4.4932 5.4727 4.8032 5.8627 4.8032ZM15.1727 26.1932C21.2727 26.1932 26.2227 21.2732 26.2227 15.1632C26.2227 9.0932 21.2427 4.1132 15.1727 4.1132C9.0527 4.1132 4.1327 9.0532 4.1327 15.1632C4.1327 21.3032 9.0327 26.1932 15.1727 26.1932ZM26.2727 6.5932C26.6627 6.5932 26.9727 6.2732 26.9727 5.8932C26.9727 5.4932 26.6627 5.1832 26.2727 5.1832C25.8827 5.1832 25.5627 5.4932 25.5627 5.8932C25.5627 6.2732 25.8827 6.5932 26.2727 6.5932ZM4.0727 6.5932C4.4727 6.5932 4.7827 6.2732 4.7827 5.8932C4.7827 5.4932 4.4727 5.1832 4.0727 5.1832C3.6927 5.1832 3.3727 5.4932 3.3727 5.8932C3.3727 6.2732 3.6927 6.5932 4.0727 6.5932ZM15.1727 24.8732C9.7627 24.8732 5.4727 20.5732 5.4727 15.1632C5.4727 9.7932 9.8027 5.4532 15.1727 5.4532C20.5327 5.4532 24.8827 9.8032 24.8827 15.1632C24.8827 20.5332 20.5527 24.8732 15.1727 24.8732ZM27.7227 8.6632C28.1227 8.6632 28.4227 8.3532 28.4227 7.9732C28.4227 7.5732 28.1227 7.2632 27.7227 7.2632C27.3327 7.2632 27.0327 7.5732 27.0327 7.9732C27.0327 8.3532 27.3327 8.6632 27.7227 8.6632ZM2.6227 8.6632C3.0227 8.6632 3.3227 8.3532 3.3227 7.9732C3.3227 7.5732 3.0227 7.2632 2.6227 7.2632C2.2327 7.2632 1.9327 7.5732 1.9327 7.9732C1.9327 8.3532 2.2327 8.6632 2.6227 8.6632ZM28.7827 10.9532C29.1727 10.9532 29.4927 10.6332 29.4927 10.2432C29.4927 9.8532 29.1727 9.5432 28.7827 9.5432C28.3927 9.5432 28.0827 9.8532 28.0827 10.2432C28.0827 10.6332 28.3927 10.9532 28.7827 10.9532ZM1.5727 10.9532C1.9527 10.9532 2.2727 10.6332 2.2727 10.2432C2.2727 9.8532 1.9527 9.5432 1.5727 9.5432C1.1727 9.5432 0.8627 9.8532 0.8627 10.2432C0.8627 10.6332 1.1727 10.9532 1.5727 10.9532ZM11.9227 18.8032C11.9227 19.6032 12.4327 19.8632 13.2027 19.4132L19.4027 15.8732C20.0827 15.4732 20.0827 14.8732 19.4027 14.4932L13.2027 10.9232C12.4427 10.4832 11.9227 10.7332 11.9227 11.5432ZM0.9127 13.3732C1.3127 13.3732 1.6227 13.0732 1.6227 12.6732C1.6227 12.2732 1.3127 11.9732 0.9127 11.9732C0.5327 11.9732 0.2227 12.2732 0.2227 12.6732C0.2227 13.0732 0.5327 13.3732 0.9127 13.3732ZM29.4327 13.3732C29.8227 13.3732 30.1327 13.0732 30.1327 12.6732C30.1327 12.2732 29.8227 11.9732 29.4327 11.9732C29.0427 11.9732 28.7227 12.2732 28.7227 12.6732C28.7227 13.0732 29.0427 13.3732 29.4327 13.3732ZM0.6927 15.8632C1.0927 15.8632 1.4127 15.5632 1.4127 15.1632C1.4127 14.7632 1.0927 14.4632 0.6927 14.4632C0.3127 14.4632 0.0027 14.7632 0.0027 15.1632C0.0027 15.5632 0.3127 15.8632 0.6927 15.8632ZM29.6527 15.8632C30.0327 15.8632 30.3527 15.5632 30.3527 15.1632C30.3527 14.7632 30.0327 14.4632 29.6527 14.4632C29.2627 14.4632 28.9427 14.7632 28.9427 15.1632C28.9427 15.5632 29.2627 15.8632 29.6527 15.8632ZM0.9127 18.3432C1.3127 18.3432 1.6227 18.0432 1.6227 17.6532C1.6227 17.2532 1.3127 16.9532 0.9127 16.9532C0.5327 16.9532 0.2227 17.2532 0.2227 17.6532C0.2227 18.0432 0.5327 18.3432 0.9127 18.3432ZM29.4327 18.3432C29.8227 18.3432 30.1327 18.0432 30.1327 17.6532C30.1327 17.2532 29.8227 16.9532 29.4327 16.9532C29.0427 16.9532 28.7227 17.2532 28.7227 17.6532C28.7227 18.0432 29.0427 18.3432 29.4327 18.3432ZM1.5727 20.7832C1.9527 20.7832 2.2727 20.4632 2.2727 20.0732C2.2727 19.6832 1.9527 19.3732 1.5727 19.3732C1.1727 19.3732 0.8627 19.6832 0.8627 20.0732C0.8627 20.4632 1.1727 20.7832 1.5727 20.7832ZM28.7827 20.7832C29.1727 20.7832 29.4927 20.4632 29.4927 20.0732C29.4927 19.6832 29.1727 19.3732 28.7827 19.3732C28.3927 19.3732 28.0827 19.6832 28.0827 20.0732C28.0827 20.4632 28.3927 20.7832 28.7827 20.7832ZM2.6227 23.0532C3.0227 23.0532 3.3227 22.7532 3.3227 22.3532C3.3227 21.9532 3.0227 21.6532 2.6227 21.6532C2.2327 21.6532 1.9327 21.9532 1.9327 22.3532C1.9327 22.7532 2.2327 23.0532 2.6227 23.0532ZM27.7227 23.0532C28.1227 23.0532 28.4227 22.7532 28.4227 22.3532C28.4227 21.9532 28.1227 21.6532 27.7227 21.6532C27.3327 21.6532 27.0327 21.9532 27.0327 22.3532C27.0327 22.7532 27.3327 23.0532 27.7227 23.0532ZM4.0727 25.1332C4.4727 25.1332 4.7827 24.8232 4.7827 24.4332C4.7827 24.0332 4.4727 23.7332 4.0727 23.7332C3.6927 23.7332 3.3727 24.0332 3.3727 24.4332C3.3727 24.8232 3.6927 25.1332 4.0727 25.1332ZM26.2727 25.1332C26.6627 25.1332 26.9727 24.8232 26.9727 24.4332C26.9727 24.0332 26.6627 23.7332 26.2727 23.7332C25.8827 23.7332 25.5627 24.0332 25.5627 24.4332C25.5627 24.8232 25.8827 25.1332 26.2727 25.1332ZM5.8627 26.9232C6.2627 26.9232 6.5627 26.6032 6.5627 26.2232C6.5627 25.8232 6.2627 25.5132 5.8627 25.5132C5.4727 25.5132 5.1727 25.8232 5.1727 26.2232C5.1727 26.6032 5.4727 26.9232 5.8627 26.9232ZM24.4827 26.9232C24.8827 26.9232 25.1827 26.6032 25.1827 26.2232C25.1827 25.8232 24.8827 25.5132 24.4827 25.5132C24.0927 25.5132 23.7927 25.8232 23.7927 26.2232C23.7927 26.6032 24.0927 26.9232 24.4827 26.9232ZM22.4227 28.3532C22.8027 28.3532 23.1227 28.0532 23.1227 27.6632C23.1227 27.2632 22.8027 26.9632 22.4227 26.9632C22.0227 26.9632 21.7127 27.2632 21.7127 27.6632C21.7127 28.0532 22.0227 28.3532 22.4227 28.3532ZM7.9327 28.3532C8.3227 28.3532 8.6427 28.0532 8.6427 27.6632C8.6427 27.2632 8.3227 26.9632 7.9327 26.9632C7.5427 26.9632 7.2327 27.2632 7.2327 27.6632C7.2327 28.0532 7.5427 28.3532 7.9327 28.3532ZM20.1227 29.4532C20.5227 29.4532 20.8227 29.1332 20.8227 28.7532C20.8227 28.3532 20.5227 28.0432 20.1227 28.0432C19.7327 28.0432 19.4327 28.3532 19.4327 28.7532C19.4327 29.1332 19.7327 29.4532 20.1227 29.4532ZM10.2227 29.4532C10.6227 29.4532 10.9227 29.1332 10.9227 28.7532C10.9227 28.3532 10.6227 28.0432 10.2227 28.0432C9.8327 28.0432 9.5327 28.3532 9.5327 28.7532C9.5327 29.1332 9.8327 29.4532 10.2227 29.4532ZM12.6627 30.0932C13.0427 30.0932 13.3527 29.7932 13.3527 29.3932C13.3527 28.9932 13.0427 28.6932 12.6627 28.6932C12.2627 28.6932 11.9527 28.9932 11.9527 29.3932C11.9527 29.7932 12.2627 30.0932 12.6627 30.0932ZM17.6927 30.0932C18.0927 30.0932 18.4027 29.7932 18.4027 29.3932C18.4027 28.9932 18.0927 28.6932 17.6927 28.6932C17.3127 28.6932 16.9927 28.9932 16.9927 29.3932C16.9927 29.7932 17.3127 30.0932 17.6927 30.0932ZM15.1727 30.3232C15.5727 30.3232 15.8727 30.0132 15.8727 29.6232C15.8727 29.2332 15.5727 28.9132 15.1727 28.9132C14.7827 28.9132 14.4827 29.2332 14.4827 29.6232C14.4827 30.0132 14.7827 30.3232 15.1727 30.3232Z"
        fillRule="evenodd"
        clipRule="evenodd"
    />
</svg>
        