
<svg
    viewBox="0 0 27.890625 27.890625"
    xmlns="http://www.w3.org/2000/svg"
>
    <path
        fill="inherit"
        d="M13.9427 27.8927C21.6427 27.8927 27.8927 21.6427 27.8927 13.9427C27.8927 6.2627 21.6427 0.0027 13.9427 0.0027C6.2627 0.0027 0.0027 6.2627 0.0027 13.9427C0.0027 21.6427 6.2627 27.8927 13.9427 27.8927ZM15.1227 21.6727C12.2627 21.6727 9.9827 20.4427 8.8327 18.4727L7.3527 17.4627L6.6727 18.1327L7.1127 19.3427C7.2827 19.8527 6.4627 20.1527 6.3127 19.4727C6.2527 19.1427 5.8627 19.1127 5.7327 19.4027C5.4327 19.9327 4.6927 19.3627 5.0627 18.9527C5.2727 18.7127 5.0727 18.4027 4.7427 18.4327C4.1927 18.4827 4.1127 17.6327 4.7127 17.6527L5.8627 17.6727L6.6727 16.4027C6.9027 16.0327 7.3427 15.9027 7.7227 16.1227L8.0627 16.3127C8.0027 15.9427 7.9527 15.5627 7.9527 15.1627C7.9527 12.7427 9.3227 10.7027 11.3327 9.6827L10.6827 9.2827C10.2827 9.0627 10.2027 8.6027 10.3927 8.2427L11.0627 6.8927L10.4827 5.9227C10.1827 5.4027 10.9327 5.0727 11.1727 5.5527C11.3227 5.8527 11.6927 5.8627 11.7827 5.5827C11.9527 5.0727 12.7827 5.4127 12.4927 5.9227C12.3327 6.1927 12.5527 6.5127 12.8627 6.4027C13.4927 6.1827 13.6427 7.0427 13.1227 7.1227L11.8527 7.3727L11.6527 8.3027L13.2227 9.0627C13.5627 9.0127 13.9227 8.9827 14.2727 8.9827C14.7627 8.9827 15.0427 8.7227 15.0927 8.2127C15.1927 7.5427 15.7227 7.1627 17.1827 7.1627C19.1827 7.1627 20.4527 7.6727 20.4527 8.4727C20.4527 9.7327 18.0227 11.4327 16.9027 11.4327C16.1027 11.4327 16.1227 11.0027 15.4327 11.0027C14.9827 11.0027 14.5927 11.0927 14.2227 11.2227L14.0827 12.8527L15.0127 13.1127L15.8627 12.1227C16.1827 11.7327 16.8427 12.2627 16.3527 12.7327C16.1227 12.9427 16.2727 13.2927 16.5927 13.2927C17.1827 13.2727 17.0527 14.1727 16.5327 14.0727C16.2327 14.0127 16.0327 14.3427 16.2427 14.6327C16.5527 15.0627 15.8727 15.5427 15.5827 15.0227L15.0227 14.0227L13.5127 13.9427C13.0827 13.9327 12.7427 13.6127 12.7427 13.1827L12.7327 12.3627C12.0027 13.2627 11.5827 14.4827 11.5827 15.6927C11.5827 16.0927 11.6327 16.4727 11.7427 16.8527L12.4327 15.9427C12.6627 15.5827 13.1227 15.5327 13.4827 15.7627L14.7827 16.6127L15.8027 16.1227C16.3127 15.8727 16.5927 16.6627 16.0827 16.8327C15.7527 16.9427 15.7127 17.3227 16.0127 17.4427C16.4727 17.6627 16.0527 18.4827 15.6027 18.1327C15.3227 17.9327 14.9827 18.1127 15.0627 18.4427C15.1927 19.0727 14.3427 19.1427 14.2827 18.6227L14.2227 17.3527L13.3027 17.0227L12.5227 18.2627C13.3327 19.2327 14.6027 19.8627 16.0327 19.8627C18.4127 19.8627 20.5627 17.9527 20.8927 15.2427C20.9827 14.5027 21.9427 14.5227 21.9427 15.3127C21.9427 17.5527 19.6827 21.6727 15.1227 21.6727Z"
        fillRule="evenodd"
        clipRule="evenodd"
    />
</svg>
        