
<svg
    viewBox="0 0 32.23828125 24.541015625"
    xmlns="http://www.w3.org/2000/svg"
>
    <path
        fill="inherit"
        d="M10.7737 24.5384H21.4637C29.3937 24.5384 32.2337 21.5984 32.2337 14.2884V10.2684C32.2337 2.9484 29.3937 -0.0016 21.4637 -0.0016H10.7737C2.8437 -0.0016 0.0037 2.9484 0.0037 10.2684V14.2884C0.0037 21.5984 2.8437 24.5384 10.7737 24.5384ZM8.4937 17.9884C7.8337 17.9884 7.4637 17.5984 7.4637 16.9284V7.4384C7.4637 6.8784 7.9437 6.4084 8.5037 6.4084C9.0537 6.4084 9.5337 6.8784 9.5337 7.4384V16.2684H12.5337C13.0037 16.2684 13.3937 16.6484 13.3937 17.1184C13.3937 17.6084 13.0037 17.9884 12.5337 17.9884ZM15.7937 18.1884C15.2337 18.1884 14.8637 17.7984 14.8637 17.1984V7.8584C14.8637 6.9584 15.4337 6.4084 16.3237 6.4084C17.1037 6.4084 17.5637 6.8084 17.7737 7.5984L19.7037 15.2684H19.7737L21.6837 7.5984C21.8737 6.8084 22.3437 6.4084 23.1437 6.4084C24.0537 6.4084 24.6137 6.9284 24.6137 7.8584V17.1984C24.6137 17.7984 24.2837 18.1884 23.6837 18.1884C23.1037 18.1884 22.7637 17.7984 22.7637 17.1984V9.5984H22.6937L20.7837 17.0184C20.6337 17.5984 20.3337 17.9784 19.7437 17.9784C19.1837 17.9784 18.8437 17.5784 18.7037 17.0384L16.7937 9.5984H16.7037V17.1984C16.7037 17.7984 16.3537 18.1884 15.7937 18.1884Z"
        fillRule="evenodd"
        clipRule="evenodd"
    />
</svg>
        