
<svg
    viewBox="0 0 32.23828125 24.541015625"
    xmlns="http://www.w3.org/2000/svg"
>
    <path
        fill="inherit"
        d="M10.7737 24.5384H21.4637C29.3937 24.5384 32.2337 21.5984 32.2337 14.2884V10.2684C32.2337 2.9484 29.3937 -0.0016 21.4637 -0.0016H10.7737C2.8437 -0.0016 0.0037 2.9484 0.0037 10.2684V14.2884C0.0037 21.5984 2.8437 24.5384 10.7737 24.5384ZM10.7737 22.3384C4.3237 22.3384 2.2037 20.2484 2.2037 14.2884V10.2684C2.2037 4.3084 4.3237 2.1984 10.7737 2.1984H21.4637C27.9137 2.1984 30.0337 4.3084 30.0337 10.2684V14.2884C30.0337 20.2484 27.9137 22.3384 21.4637 22.3384ZM8.7237 17.8184H12.6437C13.0937 17.8184 13.4837 17.4484 13.4837 16.9784C13.4837 16.5284 13.0937 16.1584 12.6437 16.1584H9.7237V7.5784C9.7237 7.0384 9.2737 6.5884 8.7337 6.5884C8.1937 6.5884 7.7337 7.0384 7.7337 7.5784V16.7884C7.7337 17.4284 8.0937 17.8184 8.7237 17.8184ZM15.7937 18.0084C16.3337 18.0084 16.6837 17.6384 16.6837 17.0484V9.6684H16.7637L18.6237 16.8984C18.7537 17.4184 19.0837 17.7984 19.6337 17.7984C20.1937 17.7984 20.4837 17.4284 20.6337 16.8884L22.4937 9.6684H22.5537V17.0484C22.5537 17.6384 22.8837 18.0084 23.4437 18.0084C24.0237 18.0084 24.3337 17.6384 24.3337 17.0484V7.9884C24.3337 7.0984 23.8037 6.5884 22.9237 6.5884C22.1437 6.5884 21.6937 6.9684 21.5237 7.7384L19.6637 15.1884H19.5937L17.7037 7.7384C17.5137 6.9684 17.0637 6.5884 16.3137 6.5884C15.4537 6.5884 14.9037 7.1184 14.9037 7.9884V17.0484C14.9037 17.6384 15.2537 18.0084 15.7937 18.0084Z"
        fillRule="evenodd"
        clipRule="evenodd"
    />
</svg>
        