
<svg
    viewBox="0 0 25.169921875 25.169921875"
    xmlns="http://www.w3.org/2000/svg"
>
    <path
        fill="inherit"
        d="M4.2937 25.1692H20.8737C23.7437 25.1692 25.1737 23.7592 25.1737 20.9492V4.2392C25.1737 1.4192 23.7437 -0.0008 20.8737 -0.0008H4.2937C1.4337 -0.0008 0.0037 1.4192 0.0037 4.2392V20.9492C0.0037 23.7592 1.4337 25.1692 4.2937 25.1692ZM4.3237 22.9692C2.9537 22.9692 2.2037 22.2392 2.2037 20.8192V4.3592C2.2037 2.9392 2.9537 2.1992 4.3237 2.1992H20.8537C22.2037 2.1992 22.9737 2.9392 22.9737 4.3592V20.8192C22.9737 22.2392 22.2037 22.9692 20.8537 22.9692ZM5.4137 13.7292L11.1437 13.7392C11.4037 13.7392 11.5837 13.9092 11.5837 14.1792V19.8392C11.5837 21.0592 12.8637 21.1792 13.2737 20.2992L19.3437 7.3592C19.8537 6.2992 18.9337 5.3992 17.8737 5.9092L4.9637 12.0292C4.0737 12.4592 4.2137 13.7292 5.4137 13.7292Z"
        fillRule="evenodd"
        clipRule="evenodd"
    />
</svg>
        