
<svg
    viewBox="0 0 18.67578125 33.5234375"
    xmlns="http://www.w3.org/2000/svg"
>
    <path
        fill="inherit"
        d="M9.3409 8.3425C9.9909 8.3425 10.4309 7.8725 10.4309 7.1525V1.1725C10.4309 0.4525 9.9909 0.0025 9.3409 0.0025C8.6809 0.0025 8.2309 0.4525 8.2309 1.1725V7.1525C8.2309 7.8725 8.6809 8.3425 9.3409 8.3425ZM1.6409 33.5225C2.2809 33.5225 2.9509 33.1525 3.4909 32.6525L8.9709 27.4525C9.1209 27.3025 9.2309 27.2325 9.3409 27.2325C9.4509 27.2325 9.5609 27.3025 9.7109 27.4525L15.1909 32.6525C15.7209 33.1525 16.3809 33.5225 17.0309 33.5225C17.9609 33.5225 18.6709 32.6625 18.6709 31.7425C18.6709 31.2025 18.4609 30.6025 18.1709 29.8325L11.2209 11.9125C10.7609 10.7225 10.1209 10.2125 9.3409 10.2125C8.5609 10.2125 7.9209 10.7225 7.4509 11.9125L0.5009 29.8325C0.2209 30.6025 0.0009 31.2025 0.0009 31.7425C0.0009 32.6625 0.7009 33.5225 1.6409 33.5225ZM2.5109 30.5425C2.4709 30.4925 2.4609 30.4325 2.4909 30.3425L9.1309 13.3025C9.1709 13.1925 9.2409 13.1025 9.3409 13.1025C9.4509 13.1025 9.4909 13.2025 9.5409 13.3025L16.1909 30.3425C16.2109 30.4325 16.2109 30.5025 16.1609 30.5425C16.1309 30.5525 16.0809 30.6025 16.0009 30.5125L10.4009 25.4425C10.0109 25.0725 9.6809 24.8725 9.3409 24.8725C9.0009 24.8725 8.6709 25.0725 8.2709 25.4425L2.6809 30.5125C2.6409 30.5525 2.5609 30.6025 2.5109 30.5425Z"
        fillRule="evenodd"
        clipRule="evenodd"
    />
</svg>
        