
<svg
    viewBox={0 0 26.17303958105164 25.86691499237353}
    xmlns="http://www.w3.org/2000/svg"
>
    <path
        fill="inherit"
        d="M24.3808 22.8525C24.7908 23.2625 25.4708 23.2625 25.8708 22.8525C26.2708 22.4425 26.2808 21.7725 25.8708 21.3625L4.8208 0.3125C4.4008 -0.1075 3.7208 -0.1075 3.3108 0.3125C2.9108 0.7025 2.9108 1.4025 3.3108 1.8025ZM20.5108 13.6825L25.5408 2.8825C26.4608 0.8825 24.8908 -0.4475 22.9708 0.4625L12.2508 5.4325ZM7.0608 7.8225L1.1208 10.5925C-0.6292 11.3925 -0.2792 13.8525 1.8108 13.8725L11.7708 13.9125C11.9808 13.9125 12.0508 13.9825 12.0508 14.1825L12.0708 24.0725C12.0708 26.1025 14.5208 26.5825 15.4408 24.6025L18.1008 18.8925Z"
        fillRule="evenodd"
        clipRule="evenodd"
    />
</svg>
        