<svg viewBox="0 0 25.169921875 25.169921875" xmlns="http://www.w3.org/2000/svg"><path d="M4.2937 25.1692H20.8737C23.7437 25.1692 25.1737 23.7592 25.1737 20.9492V4.2392C25.1737 1.4192 23.7437 -0.0008 20.8737 -0.0008H4.2937C1.4337 -0.0008 0.0037 1.4192 0.0037 4.2392V20.9492C0.0037 23.7592 1.4337 25.1692 4.2937 25.1692ZM5.1637 13.7492C3.9337 13.7492 3.8037 12.4292 4.7037 11.9992L18.0237 5.6692C19.1237 5.1592 20.0537 6.0992 19.5537 7.1892L13.2937 20.5192C12.8637 21.4392 11.5437 21.3192 11.5437 20.0392L11.5237 14.2192C11.5237 13.9492 11.3437 13.7492 11.0837 13.7492Z" /></svg>