
<svg
    viewBox={0 0 27.890625 27.890625}
    xmlns="http://www.w3.org/2000/svg"
>
    <path
        fill="inherit"
        d="M13.9427 27.8864C21.6427 27.8864 27.8927 21.6464 27.8927 13.9464C27.8927 6.2464 21.6427 -0.0036 13.9427 -0.0036C6.2527 -0.0036 0.0027 6.2464 0.0027 13.9464C0.0027 21.6464 6.2527 27.8864 13.9427 27.8864ZM13.9427 25.5664C7.5227 25.5664 2.3227 20.3664 2.3227 13.9464C2.3227 7.5164 7.5227 2.3264 13.9427 2.3264C20.3727 2.3264 25.5627 7.5164 25.5627 13.9464C25.5627 20.3664 20.3727 25.5664 13.9427 25.5664ZM6.4427 15.0964L12.1727 15.1064C12.4327 15.1064 12.6027 15.2764 12.6027 15.5464V21.2064C12.6027 22.4264 13.8927 22.5464 14.3027 21.6664L20.3727 8.7264C20.8727 7.6664 19.9627 6.7664 18.8927 7.2764L5.9927 13.3964C5.1027 13.8264 5.2327 15.0964 6.4427 15.0964Z"
        fillRule="evenodd"
        clipRule="evenodd"
    />
</svg>
        