
<svg
    viewBox={0 0 25.953123413861874 25.82983599739685}
    xmlns="http://www.w3.org/2000/svg"
>
    <path
        fill="inherit"
        d="M1.1641 10.4293C-0.7159 11.2993 -0.1959 13.8293 1.8741 13.8493L11.8441 13.8893C12.0041 13.8893 12.0541 13.9293 12.0541 14.0893L12.0741 23.9793C12.0941 26.1393 14.6641 26.5193 15.5741 24.5393L25.6841 2.8093C26.6141 0.7893 25.0241 -0.6507 23.0141 0.2993ZM3.5441 11.7093C3.4941 11.7093 3.4741 11.6593 3.5441 11.6293L23.1941 2.6293C23.2841 2.5893 23.3241 2.6193 23.2841 2.7293L14.2341 22.3593C14.2241 22.4193 14.1641 22.3993 14.1641 22.3493L14.2341 12.6793C14.2341 12.0793 13.8141 11.6593 13.1941 11.6593Z"
        fillRule="evenodd"
        clipRule="evenodd"
    />
</svg>
        