
<svg
    viewBox="0 0 25.2109375 25.2109375"
    xmlns="http://www.w3.org/2000/svg"
>
    <path
        fill="inherit"
        d="M23.6137 1.6166C22.2137 0.2166 20.2437 -0.0034 17.9137 -0.0034H7.2637C4.9637 -0.0034 2.9937 0.2166 1.6037 1.6166C0.2037 3.0066 0.0037 4.9666 0.0037 7.2566V17.9066C0.0037 20.2466 0.2037 22.2066 1.6037 23.5966C2.9937 24.9966 4.9637 25.2066 7.2837 25.2066H17.9137C20.2437 25.2066 22.2137 24.9966 23.6137 23.5966C25.0037 22.2066 25.2137 20.2466 25.2137 17.9066V7.2866C25.2137 4.9466 25.0037 3.0066 23.6137 1.6166ZM4.8837 13.7666C3.6337 13.7666 3.5037 12.4566 4.4037 12.0166L17.7237 5.6966C18.8237 5.1866 19.7537 6.1066 19.2537 7.2066L12.9837 20.5466C12.5637 21.4466 11.2337 21.3266 11.2337 20.0666L11.2237 14.2366C11.2237 13.9566 11.0437 13.7766 10.7837 13.7766Z"
        fillRule="evenodd"
        clipRule="evenodd"
    />
</svg>
        