
<svg
    viewBox={0 0 27.890625 27.890625}
    xmlns="http://www.w3.org/2000/svg"
>
    <path
        fill="inherit"
        d="M13.9427 27.8927C21.6427 27.8927 27.8927 21.6427 27.8927 13.9427C27.8927 6.2627 21.6427 0.0027 13.9427 0.0027C6.2627 0.0027 0.0027 6.2627 0.0027 13.9427C0.0027 21.6427 6.2627 27.8927 13.9427 27.8927ZM7.4827 20.0427L12.9227 6.1827C13.3027 5.2227 14.5727 5.1927 14.9527 6.1527L20.4027 20.0427C20.7627 20.9627 19.7527 21.7527 18.8927 20.8927L14.3027 16.2927C14.0827 16.0627 13.8127 16.0627 13.5927 16.2927L8.9927 20.8927C8.1227 21.7527 7.1127 20.9627 7.4827 20.0427Z"
        fillRule="evenodd"
        clipRule="evenodd"
    />
</svg>
        