
<svg
    viewBox="0 0 18.662109375 26.810546875"
    xmlns="http://www.w3.org/2000/svg"
>
    <path
        fill="inherit"
        d="M3.0782 26.815H15.5882C17.5982 26.815 18.6582 25.715 18.6582 23.555V14.135C18.6582 12.245 17.8382 11.165 16.2682 10.935V7.625C16.2682 2.485 12.9082 -0.005 9.3282 -0.005C5.7582 -0.005 2.3882 2.485 2.3882 7.625V10.935C0.8382 11.165 -0.0018 12.235 -0.0018 14.135V23.555C-0.0018 25.715 1.0682 26.815 3.0782 26.815ZM4.5682 7.345C4.5682 3.885 6.7682 2.065 9.3282 2.065C11.8782 2.065 14.1082 3.885 14.1082 7.345V10.895H4.5682ZM3.1482 24.745C2.5582 24.745 2.2182 24.375 2.2182 23.705V13.985C2.2182 13.315 2.5582 12.965 3.1482 12.965H15.5182C16.1182 12.965 16.4482 13.315 16.4482 13.985V23.705C16.4482 24.375 16.1182 24.745 15.5182 24.745Z"
        fillRule="evenodd"
        clipRule="evenodd"
    />
</svg>
        