
<svg
    viewBox="0 0 17.568359375 28.943359375"
    xmlns="http://www.w3.org/2000/svg"
>
    <path
        fill="inherit"
        d="M0.0037 25.3896C0.0037 27.5196 1.4937 28.9396 3.7237 28.9396H13.8537C16.0737 28.9396 17.5637 27.5196 17.5637 25.3896V3.5596C17.5637 1.4196 16.0737 -0.0004 13.8537 -0.0004H3.7237C1.4937 -0.0004 0.0037 1.4196 0.0037 3.5596ZM2.2037 25.0296V3.9096C2.2037 2.8196 2.8437 2.1996 4.0037 2.1996H13.5737C14.7237 2.1996 15.3637 2.8196 15.3637 3.9096V25.0296C15.3637 26.1296 14.7237 26.7396 13.5737 26.7396H4.0037C2.8437 26.7396 2.2037 26.1296 2.2037 25.0296ZM3.8837 17.9496C3.8837 18.7296 4.2537 19.1096 4.9937 19.1096H9.6237C10.3737 19.1096 10.7437 18.7296 10.7437 17.9496V14.3996C10.7437 13.7296 10.4737 13.3396 9.9237 13.2496V12.0696C9.9237 11.0596 10.4737 10.3996 11.4037 10.3996C12.3337 10.3996 12.8637 11.0596 12.8637 12.0696V13.0396C12.8637 13.4096 13.1837 13.7296 13.5537 13.7296C13.9137 13.7296 14.2237 13.4096 14.2237 13.0396V12.0696C14.2237 10.3496 13.1137 9.0896 11.4037 9.0896C9.6937 9.0896 8.5737 10.3496 8.5737 12.1996V13.2196H4.9937C4.2537 13.2196 3.8837 13.6196 3.8837 14.3996Z"
        fillRule="evenodd"
        clipRule="evenodd"
    />
</svg>
        