
<svg
    viewBox="0 0 17.568359375 28.943359375"
    xmlns="http://www.w3.org/2000/svg"
>
    <path
        fill="inherit"
        d="M0.0037 25.3896C0.0037 27.5196 1.4937 28.9396 3.7237 28.9396H13.8537C16.0737 28.9396 17.5637 27.5196 17.5637 25.3896V3.5596C17.5637 1.4196 16.0737 -0.0004 13.8537 -0.0004H3.7237C1.4937 -0.0004 0.0037 1.4196 0.0037 3.5596ZM2.2037 25.0296V3.9096C2.2037 2.8196 2.8437 2.1996 4.0037 2.1996H13.5737C14.7237 2.1996 15.3637 2.8196 15.3637 3.9096V25.0296C15.3637 26.1296 14.7237 26.7396 13.5737 26.7396H4.0037C2.8437 26.7396 2.2037 26.1296 2.2037 25.0296ZM6.4637 19.1296H11.1137C11.8637 19.1296 12.2537 18.7196 12.2537 17.9196V14.2996C12.2537 13.6696 12.0037 13.2896 11.5237 13.1496V12.3096C11.5237 10.4896 10.4137 9.2396 8.7937 9.2396C7.1637 9.2396 6.0537 10.4896 6.0537 12.3096V13.1696C5.5737 13.2896 5.3337 13.6696 5.3337 14.2996V17.9196C5.3337 18.7196 5.7037 19.1296 6.4637 19.1296ZM7.4137 13.0996V12.1796C7.4137 11.1796 7.9437 10.5396 8.7937 10.5396C9.6137 10.5396 10.1737 11.1796 10.1737 12.1796V13.0996Z"
        fillRule="evenodd"
        clipRule="evenodd"
    />
</svg>
        