<svg viewBox="0 0 32.23828125 25.169921875" xmlns="http://www.w3.org/2000/svg"><path d="M4.2937 25.1692H27.9437C30.8137 25.1692 32.2337 23.7592 32.2337 20.9492V4.2392C32.2337 1.4192 30.8137 -0.0008 27.9437 -0.0008H4.2937C1.4337 -0.0008 0.0037 1.4192 0.0037 4.2392V20.9492C0.0037 23.7592 1.4337 25.1692 4.2937 25.1692ZM4.3237 22.9692C2.9537 22.9692 2.2037 22.2392 2.2037 20.8192V4.3592C2.2037 2.9392 2.9537 2.1992 4.3237 2.1992H27.9137C29.2737 2.1992 30.0337 2.9392 30.0337 4.3592V20.8192C30.0337 22.2392 29.2737 22.9692 27.9137 22.9692ZM11.1837 17.9692C11.1837 18.9892 11.6337 19.4692 12.5937 19.4692H19.6737C20.6137 19.4692 21.0637 18.9892 21.0637 17.9692V12.5192C21.0637 11.5692 20.6737 11.0992 19.8637 11.0492V9.4192C19.8637 6.9092 18.3637 5.2192 16.1337 5.2192C13.9037 5.2192 12.4037 6.9092 12.4037 9.4192V11.0492C11.5837 11.0992 11.1837 11.5692 11.1837 12.5192ZM13.8237 11.0292V9.2692C13.8237 7.6692 14.7337 6.5992 16.1337 6.5992C17.5137 6.5992 18.4437 7.6692 18.4437 9.2692V11.0292Z" /></svg>