
<svg
    viewBox="0 0 19.82421875 29.271484375"
    xmlns="http://www.w3.org/2000/svg"
>
    <path
        fill="inherit"
        d="M-0.0005 20.17C-0.0005 22.29 0.8295 23.84 2.3795 24.69C3.1295 25.09 3.5695 25.59 3.8395 26.51L4.2795 27.97C4.5395 28.85 5.1495 29.27 6.0695 29.27H12.3895C13.3295 29.27 13.8995 28.86 14.1595 27.97L14.6195 26.51C14.8895 25.59 15.3295 25.09 16.0795 24.69C17.6195 23.84 18.4595 22.29 18.4595 20.17V13.67H18.6495C19.3595 13.67 19.8195 13.19 19.8195 12.41V10.57C19.8195 9.79 19.3595 9.31 18.6495 9.31H18.4595V9.11C18.4595 6.99 17.6195 5.44 16.0795 4.58C15.3295 4.18 14.8895 3.68 14.6195 2.78L14.1595 1.3C13.9295 0.44 13.3195 0 12.3895 0H6.0695C5.1495 0 4.5395 0.42 4.2795 1.3L3.8395 2.78C3.5795 3.66 3.1495 4.2 2.3795 4.58C0.8495 5.4 -0.0005 6.96 -0.0005 9.11ZM1.9995 19.88V9.41C1.9995 7.37 3.1895 6.14 5.1795 6.14H13.2795C15.2695 6.14 16.4595 7.37 16.4595 9.41V19.88C16.4595 21.9 15.2695 23.13 13.2795 23.13H5.1795C3.1895 23.13 1.9995 21.9 1.9995 19.88ZM6.9295 19.28H11.5895C12.3595 19.28 12.7395 18.88 12.7395 18.09V14.45C12.7395 13.82 12.4795 13.44 12.0195 13.29V12.44C12.0195 10.62 10.9095 9.37 9.2695 9.37C7.6295 9.37 6.5195 10.62 6.5195 12.44V13.3C6.0595 13.44 5.7995 13.82 5.7995 14.45V18.09C5.7995 18.88 6.1795 19.28 6.9295 19.28ZM7.8895 13.25V12.32C7.8895 11.33 8.4195 10.68 9.2695 10.68C10.0995 10.68 10.6495 11.33 10.6495 12.32V13.25Z"
        fillRule="evenodd"
        clipRule="evenodd"
    />
</svg>
        