<svg viewBox="0 0 34.37109375 23.76171875" xmlns="http://www.w3.org/2000/svg"><path d="M27.0127 23.7594C31.1427 23.7594 34.3727 20.7394 34.3727 16.9794C34.3727 14.1094 32.7127 11.6194 30.0527 10.4994C30.0827 4.3994 25.6927 -0.0006 20.0927 -0.0006C16.3927 -0.0006 13.7527 1.9794 12.1127 4.3794C8.7527 3.3894 5.0827 5.9494 5.0127 9.7794C1.9327 10.2694 0.0027 13.0294 0.0027 16.3694C0.0027 20.3894 3.5127 23.7594 8.1927 23.7594ZM13.9427 19.4094C13.0827 19.4094 12.6427 18.9594 12.6427 18.0194V13.0394C12.6427 12.1794 13.0127 11.7394 13.7527 11.6794V10.2294C13.7527 7.8994 15.1527 6.3394 17.1827 6.3394C19.2327 6.3394 20.6327 7.8994 20.6327 10.2294V11.6794C21.3527 11.7394 21.7227 12.1794 21.7227 13.0394V18.0194C21.7227 18.9594 21.3127 19.4094 20.4427 19.4094ZM15.0927 11.6594H19.2727V10.0794C19.2727 8.6094 18.4427 7.6594 17.1827 7.6594C15.9427 7.6594 15.0927 8.6094 15.0927 10.0794Z" /></svg>