
<svg
    viewBox={0 0 32.59375 27.548828125}
    xmlns="http://www.w3.org/2000/svg"
>
    <path
        fill="inherit"
        d="M3.1437 22.7002H11.9737V25.3302H11.8937C11.2937 25.3302 10.7837 25.8302 10.7837 26.4402C10.7837 27.0602 11.2937 27.5502 11.8937 27.5502H20.7037C21.3037 27.5502 21.7937 27.0602 21.7937 26.4402C21.7937 25.8302 21.3037 25.3302 20.7037 25.3302H20.6137V22.7002H29.4337C31.4037 22.7002 32.5937 21.5102 32.5937 19.5402V3.1402C32.5937 1.1802 31.4037 0.0002 29.4337 0.0002H3.1437C1.1937 0.0002 0.0037 1.1802 0.0037 3.1402V19.5402C0.0037 21.5102 1.1937 22.7002 3.1437 22.7002ZM3.1837 20.4902C2.5837 20.4902 2.2037 20.1102 2.2037 19.5102V3.1902C2.2037 2.5702 2.5837 2.2002 3.1837 2.2002H29.4037C30.0137 2.2002 30.3937 2.5702 30.3937 3.1902V19.5102C30.3937 20.1102 30.0137 20.4902 29.4037 20.4902ZM13.9737 16.0002H18.6237C19.3737 16.0002 19.7737 15.5902 19.7737 14.7902V11.1702C19.7737 10.5402 19.5137 10.1602 19.0337 10.0102V9.1702C19.0337 7.3402 17.9337 6.1002 16.2937 6.1002C14.6737 6.1002 13.5637 7.3402 13.5637 9.1702V10.0202C13.0937 10.1602 12.8337 10.5402 12.8337 11.1702V14.7902C12.8337 15.5902 13.2237 16.0002 13.9737 16.0002ZM14.9137 9.9702V9.0502C14.9137 8.0502 15.4637 7.4102 16.2937 7.4102C17.1337 7.4102 17.6737 8.0502 17.6737 9.0502V9.9702Z"
        fillRule="evenodd"
        clipRule="evenodd"
    />
</svg>
        