
<svg
    viewBox="0 0 27.890625 27.890625"
    xmlns="http://www.w3.org/2000/svg"
>
    <path
        fill="inherit"
        d="M13.9427 27.8864C21.6427 27.8864 27.8927 21.6464 27.8927 13.9464C27.8927 6.2464 21.6427 -0.0036 13.9427 -0.0036C6.2527 -0.0036 0.0027 6.2464 0.0027 13.9464C0.0027 21.6464 6.2527 27.8864 13.9427 27.8864ZM13.9427 25.5664C7.5227 25.5664 2.3227 20.3664 2.3227 13.9464C2.3227 7.5164 7.5227 2.3264 13.9427 2.3264C20.3727 2.3264 25.5627 7.5164 25.5627 13.9464C25.5627 20.3664 20.3727 25.5664 13.9427 25.5664ZM8.9927 19.3364C8.9927 20.3564 9.4427 20.8364 10.3927 20.8364H17.4727C18.4127 20.8364 18.8627 20.3564 18.8627 19.3364V13.8864C18.8627 12.9364 18.4727 12.4664 17.6627 12.4164V10.7864C17.6627 8.2764 16.1627 6.5864 13.9327 6.5864C11.7027 6.5864 10.2027 8.2764 10.2027 10.7864V12.4164C9.3927 12.4664 8.9927 12.9364 8.9927 13.8864ZM11.6227 12.3964V10.6364C11.6227 9.0364 12.5527 7.9664 13.9327 7.9664C15.3127 7.9664 16.2427 9.0364 16.2427 10.6364V12.3964Z"
        fillRule="evenodd"
        clipRule="evenodd"
    />
</svg>
        