
<svg
    viewBox={0 0 32.59375 27.548828125}
    xmlns="http://www.w3.org/2000/svg"
>
    <path
        fill="inherit"
        d="M3.1437 22.7002H11.9737V25.3302H11.8937C11.2937 25.3302 10.7837 25.8302 10.7837 26.4402C10.7837 27.0602 11.2937 27.5502 11.8937 27.5502H20.7037C21.3037 27.5502 21.7937 27.0602 21.7937 26.4402C21.7937 25.8302 21.3037 25.3302 20.7037 25.3302H20.6137V22.7002H29.4337C31.4037 22.7002 32.5937 21.5102 32.5937 19.5402V3.1402C32.5937 1.1802 31.4037 0.0002 29.4337 0.0002H3.1437C1.1937 0.0002 0.0037 1.1802 0.0037 3.1402V19.5402C0.0037 21.5102 1.1937 22.7002 3.1437 22.7002ZM2.7937 16.6702C2.3837 16.6702 2.2037 16.5202 2.2037 16.0802V3.1902C2.2037 2.5702 2.5837 2.2002 3.1837 2.2002H29.4037C30.0137 2.2002 30.3937 2.5702 30.3937 3.1902V16.0802C30.3937 16.5202 30.2037 16.6702 29.7937 16.6702ZM13.9737 14.2202H18.6237C19.3737 14.2202 19.7737 13.8202 19.7737 13.0202V9.3902C19.7737 8.7602 19.5137 8.3902 19.0337 8.2402V7.4002C19.0337 5.5802 17.9337 4.3302 16.2937 4.3302C14.6737 4.3302 13.5637 5.5802 13.5637 7.4002V8.2602C13.0937 8.3902 12.8337 8.7602 12.8337 9.3902V13.0202C12.8337 13.8202 13.2237 14.2202 13.9737 14.2202ZM14.9137 8.1902V7.2702C14.9137 6.2902 15.4637 5.6502 16.2937 5.6502C17.1337 5.6502 17.6737 6.2902 17.6737 7.2702V8.1902Z"
        fillRule="evenodd"
        clipRule="evenodd"
    />
</svg>
        