<svg viewBox="0 0 28.642578125 30.26953125" xmlns="http://www.w3.org/2000/svg"><path d="M5.7037 1.7595H22.9537C22.8737 0.5995 22.2137 -0.0005 20.9437 -0.0005H7.6937C6.4437 -0.0005 5.7837 0.5995 5.7037 1.7595ZM2.8837 5.5495H25.7737C25.5637 4.3095 24.9737 3.6195 23.6137 3.6195H5.0437C3.6737 3.6195 3.0937 4.3095 2.8837 5.5495ZM4.2937 30.2695H24.3537C27.1937 30.2695 28.6437 28.8495 28.6437 26.0295V11.9895C28.6437 9.1695 27.1937 7.7495 24.3537 7.7495H4.2937C1.4237 7.7495 0.0037 9.1695 0.0037 11.9895V26.0295C0.0037 28.8495 1.4237 30.2695 4.2937 30.2695ZM4.3237 28.0695C2.9537 28.0695 2.2037 27.3295 2.2037 25.9095V12.1095C2.2037 10.6895 2.9537 9.9495 4.3237 9.9495H24.3037C25.6637 9.9495 26.4437 10.6895 26.4437 12.1095V25.9095C26.4437 27.3295 25.6637 28.0695 24.3037 28.0695ZM9.3937 24.3995C9.3937 25.4295 9.8437 25.9095 10.7837 25.9095H17.8737C18.8137 25.9095 19.2637 25.4295 19.2637 24.3995V18.9595C19.2637 18.0095 18.8637 17.5295 18.0637 17.4695V15.8595C18.0637 13.3395 16.5537 11.6595 14.3237 11.6595C12.1037 11.6595 10.5937 13.3395 10.5937 15.8595V17.4695C9.7937 17.5295 9.3937 18.0095 9.3937 18.9595ZM12.0137 17.4595V15.7095C12.0137 14.0995 12.9437 13.0395 14.3237 13.0395C15.7137 13.0395 16.6437 14.0995 16.6437 15.7095V17.4595Z" /></svg>