
<svg
    viewBox={0 0 32.23828125 25.169921875}
    xmlns="http://www.w3.org/2000/svg"
>
    <path
        fill="inherit"
        d="M4.2937 25.1692H27.9437C30.8137 25.1692 32.2337 23.7592 32.2337 20.9492V4.2392C32.2337 1.4192 30.8137 -0.0008 27.9437 -0.0008H4.2937C1.4337 -0.0008 0.0037 1.4192 0.0037 4.2392V20.9492C0.0037 23.7592 1.4337 25.1692 4.2937 25.1692ZM11.0337 18.1692V12.5692C11.0337 11.5692 11.4437 11.0692 12.2737 11.0192V9.3692C12.2737 6.7692 13.8337 5.0292 16.1337 5.0292C18.4337 5.0292 19.9837 6.7692 19.9837 9.3692V11.0192C20.8037 11.0692 21.2237 11.5692 21.2237 12.5692V18.1692C21.2237 19.2192 20.7537 19.7192 19.7837 19.7192H12.4837C11.4937 19.7192 11.0337 19.2192 11.0337 18.1692ZM13.7537 11.0092H18.5137V9.1992C18.5137 7.5592 17.5537 6.4492 16.1337 6.4492C14.6937 6.4492 13.7537 7.5592 13.7537 9.1992Z"
        fillRule="evenodd"
        clipRule="evenodd"
    />
</svg>
        