
<svg
    viewBox="0 0 22.845703125 30.802734375"
    xmlns="http://www.w3.org/2000/svg"
>
    <path
        fill="inherit"
        d="M0.0037 27.1893C0.0037 29.3493 1.5137 30.7993 3.7837 30.7993H19.0537C21.3237 30.7993 22.8437 29.3493 22.8437 27.1893V3.6193C22.8437 1.4593 21.3237 -0.0007 19.0537 -0.0007H3.7837C1.5137 -0.0007 0.0037 1.4593 0.0037 3.6193ZM2.2037 26.8193V3.9893C2.2037 2.8693 2.8837 2.1993 4.0637 2.1993H18.7837C19.9437 2.1993 20.6437 2.8693 20.6437 3.9893V26.8193C20.6437 27.9493 19.9437 28.5993 18.7837 28.5993H4.0637C2.8837 28.5993 2.2037 27.9493 2.2037 26.8193ZM9.1037 20.0593H13.7537C14.5037 20.0593 14.8937 19.6493 14.8937 18.8493V15.2293C14.8937 14.5993 14.6437 14.2193 14.1637 14.0793V13.2393C14.1637 11.4193 13.0537 10.1693 11.4337 10.1693C9.8037 10.1693 8.6937 11.4193 8.6937 13.2393V14.0993C8.2137 14.2193 7.9737 14.5993 7.9737 15.2293V18.8493C7.9737 19.6493 8.3537 20.0593 9.1037 20.0593ZM10.0537 14.0293V13.1093C10.0537 12.1093 10.5837 11.4693 11.4337 11.4693C12.2637 11.4693 12.8137 12.1093 12.8137 13.1093V14.0293Z"
        fillRule="evenodd"
        clipRule="evenodd"
    />
</svg>
        