
<svg
    viewBox={0 0 30.537212302418432 27.890625}
    xmlns="http://www.w3.org/2000/svg"
>
    <path
        fill="inherit"
        d="M13.9427 27.8864C18.5527 27.8864 22.6927 25.6064 25.2427 22.0664C25.7027 21.4664 25.5427 20.6964 24.9827 20.3564C24.4027 20.0164 23.7627 20.1964 23.3527 20.7564C21.2727 23.6564 17.8327 25.5664 13.9427 25.5664C7.5227 25.5664 2.3227 20.3664 2.3227 13.9464C2.3227 7.5164 7.5227 2.3264 13.9427 2.3264C19.4527 2.3264 24.0727 6.1564 25.2627 11.3064H23.2927C22.3227 11.3064 22.0627 11.9764 22.6027 12.7264L25.6627 17.0864C26.1027 17.7064 26.7527 17.7164 27.1927 17.0864L30.2527 12.7464C30.8027 11.9764 30.5427 11.3064 29.5627 11.3064H27.6427C26.4027 4.8664 20.7427 -0.0036 13.9427 -0.0036C6.2527 -0.0036 0.0027 6.2464 0.0027 13.9464C0.0027 21.6464 6.2527 27.8864 13.9427 27.8864ZM9.0127 19.3364C9.0127 20.3564 9.4627 20.8364 10.4027 20.8364H17.4827C18.4327 20.8364 18.8827 20.3564 18.8827 19.3364V13.8864C18.8827 12.9364 18.4827 12.4664 17.6827 12.4164V10.7864C17.6827 8.2764 16.1727 6.5864 13.9427 6.5864C11.7127 6.5864 10.2127 8.2764 10.2127 10.7864V12.4164C9.4027 12.4664 9.0127 12.9364 9.0127 13.8864ZM11.6327 12.3964V10.6364C11.6327 9.0364 12.5627 7.9664 13.9427 7.9664C15.3227 7.9664 16.2527 9.0364 16.2527 10.6364V12.3964Z"
        fillRule="evenodd"
        clipRule="evenodd"
    />
</svg>
        