
<svg
    viewBox={0 0 25.169921875 25.169921875}
    xmlns="http://www.w3.org/2000/svg"
>
    <path
        fill="inherit"
        d="M4.2937 25.1692H20.8737C23.7437 25.1692 25.1737 23.7592 25.1737 20.9492V4.2392C25.1737 1.4192 23.7437 -0.0008 20.8737 -0.0008H4.2937C1.4337 -0.0008 0.0037 1.4192 0.0037 4.2392V20.9492C0.0037 23.7592 1.4337 25.1692 4.2937 25.1692ZM7.5037 18.1592V12.5492C7.5037 11.5492 7.9137 11.0592 8.7337 11.0092V9.3492C8.7337 6.7492 10.2937 5.0192 12.5937 5.0192C14.8937 5.0192 16.4437 6.7492 16.4437 9.3492V11.0092C17.2837 11.0592 17.6937 11.5492 17.6937 12.5492V18.1592C17.6937 19.2092 17.2237 19.6992 16.2437 19.6992H8.9437C7.9737 19.6992 7.5037 19.2092 7.5037 18.1592ZM10.2137 10.9892H14.9737V9.1892C14.9737 7.5492 14.0137 6.4392 12.5937 6.4392C11.1737 6.4392 10.2137 7.5492 10.2137 9.1892Z"
        fillRule="evenodd"
        clipRule="evenodd"
    />
</svg>
        