<svg viewBox="0 0 22.845703125 30.802734375" xmlns="http://www.w3.org/2000/svg"><path d="M0.0037 27.1893C0.0037 29.3493 1.5137 30.7993 3.7837 30.7993H19.0537C21.3237 30.7993 22.8437 29.3493 22.8437 27.1893V3.6193C22.8437 1.4593 21.3237 -0.0007 19.0537 -0.0007H3.7837C1.5137 -0.0007 0.0037 1.4593 0.0037 3.6193ZM2.2037 26.8193V3.9893C2.2037 2.8693 2.8837 2.1993 4.0637 2.1993H18.7837C19.9437 2.1993 20.6437 2.8693 20.6437 3.9893V26.8193C20.6437 27.9493 19.9437 28.5993 18.7837 28.5993H4.0637C2.8837 28.5993 2.2037 27.9493 2.2037 26.8193ZM6.5237 18.8793C6.5237 19.6593 6.8937 20.0393 7.6337 20.0393H12.2737C13.0137 20.0393 13.3837 19.6593 13.3837 18.8793V15.3293C13.3837 14.6593 13.1137 14.2693 12.5737 14.1793V12.9993C12.5737 11.9893 13.1137 11.3293 14.0437 11.3293C14.9737 11.3293 15.5137 11.9893 15.5137 12.9993V13.9693C15.5137 14.3393 15.8137 14.6593 16.2037 14.6593C16.5537 14.6593 16.8737 14.3393 16.8737 13.9693V12.9993C16.8737 11.2793 15.7537 10.0193 14.0437 10.0193C12.3337 10.0193 11.2237 11.2793 11.2237 13.1293V14.1493H7.6337C6.8937 14.1493 6.5237 14.5493 6.5237 15.3293Z" /></svg>