
<svg
    viewBox={0 0 22.3671875 27.1796875}
    xmlns="http://www.w3.org/2000/svg"
>
    <path
        fill="inherit"
        d="M11.1837 27.1822C11.4037 27.1822 11.7437 27.1022 12.0837 26.9222C19.8637 22.8422 22.3637 20.8122 22.3637 15.9022V5.5922C22.3637 4.1822 21.7637 3.7322 20.6137 3.2522C19.0137 2.6022 13.9037 0.7422 12.3137 0.1922C11.9537 0.0722 11.5637 0.0022 11.1837 0.0022C10.8037 0.0022 10.4137 0.0822 10.0637 0.1922C8.4637 0.7122 3.3537 2.6122 1.7537 3.2522C0.6137 3.7222 0.0037 4.1822 0.0037 5.5922V15.9022C0.0037 20.8122 2.6437 22.6122 10.2837 26.9222C10.6337 27.1122 10.9637 27.1822 11.1837 27.1822ZM6.1137 18.6622V13.0522C6.1137 12.0622 6.5237 11.5622 7.3437 11.5122V9.8622C7.3437 7.2622 8.9037 5.5122 11.1937 5.5122C13.4937 5.5122 15.0537 7.2622 15.0537 9.8622V11.5122C15.8737 11.5622 16.2837 12.0622 16.2837 13.0522V18.6622C16.2837 19.7122 15.8137 20.2022 14.8437 20.2022H7.5437C6.5737 20.2022 6.1137 19.7122 6.1137 18.6622ZM8.8137 11.5022H13.5737V9.6922C13.5737 8.0422 12.6237 6.9422 11.1937 6.9422C9.7737 6.9422 8.8137 8.0422 8.8137 9.6922Z"
        fillRule="evenodd"
        clipRule="evenodd"
    />
</svg>
        