<svg viewBox="0 0 22.99609375 29.3125" xmlns="http://www.w3.org/2000/svg"><path d="M4.2337 29.3173H18.7537C21.5837 29.3173 22.9937 27.8773 22.9937 25.0373V12.6173H13.0937C11.3437 12.6173 10.5137 11.7873 10.5137 10.0373V-0.0027H4.2337C1.4237 -0.0027 0.0037 1.4473 0.0037 4.2973V25.0373C0.0037 27.8873 1.4037 29.3173 4.2337 29.3173ZM13.1437 10.7473H22.8337C22.7537 10.1873 22.3537 9.6373 21.6937 8.9673L14.1637 1.2973C13.5237 0.6473 12.9637 0.2473 12.3837 0.1473V10.0073C12.3837 10.4973 12.6337 10.7473 13.1437 10.7473ZM8.5137 26.4173C7.7237 26.4173 7.3137 25.9873 7.3137 25.1273V20.5173C7.3137 19.7173 7.6537 19.2873 8.3237 19.2473V17.8973C8.3237 15.7673 9.6237 14.3273 11.5137 14.3273C13.3937 14.3273 14.6937 15.7673 14.6937 17.8973V19.2473C15.3637 19.2873 15.7137 19.7173 15.7137 20.5173V25.1273C15.7137 25.9873 15.3237 26.4173 14.5037 26.4173ZM9.5737 19.2373H13.4537V17.7773C13.4537 16.4173 12.6737 15.5173 11.5137 15.5173C10.3537 15.5173 9.5737 16.4173 9.5737 17.7773Z" /></svg>