
<svg
    viewBox={0 0 34.37109375 23.76171875}
    xmlns="http://www.w3.org/2000/svg"
>
    <path
        fill="inherit"
        d="M27.0127 23.7594C31.1427 23.7594 34.3727 20.7394 34.3727 16.9794C34.3727 14.1094 32.7127 11.6194 30.0527 10.4994C30.0827 4.3994 25.6927 -0.0006 20.0927 -0.0006C16.3927 -0.0006 13.7527 1.9794 12.1127 4.3794C8.7527 3.3894 5.0827 5.9494 5.0127 9.7794C1.9327 10.2694 0.0027 13.0294 0.0027 16.3694C0.0027 20.3894 3.5127 23.7594 8.1927 23.7594ZM27.0127 21.5594H8.1927C4.7427 21.5594 2.2027 19.1494 2.2027 16.3694C2.2027 13.6294 3.8527 11.4594 6.7527 11.4594C6.9427 11.4594 7.0127 11.3594 7.0127 11.1794C7.0127 6.9694 10.0527 5.7294 12.8527 6.6494C13.0127 6.6994 13.1127 6.6594 13.1927 6.5094C14.5227 4.1394 16.5527 2.1994 20.0927 2.1994C24.5827 2.1994 27.6827 5.7594 27.9227 9.8194C27.9627 10.4494 27.9227 11.1794 27.8627 11.8294C27.8527 11.9994 27.9227 12.0994 28.0827 12.1394C30.5727 12.6894 32.1727 14.5094 32.1727 16.9794C32.1727 19.5194 29.9327 21.5594 27.0127 21.5594ZM14.0527 19.2094H20.3327C21.1827 19.2094 21.5927 18.7694 21.5927 17.8694V13.0394C21.5927 12.1994 21.2327 11.7694 20.5227 11.7194V10.2994C20.5227 8.0494 19.1827 6.5494 17.1827 6.5494C15.2027 6.5494 13.8627 8.0494 13.8627 10.2994V11.7194C13.1527 11.7694 12.7927 12.1994 12.7927 13.0394V17.8694C12.7927 18.7694 13.2027 19.2094 14.0527 19.2094ZM15.1627 11.6994V10.1594C15.1627 8.7494 15.9727 7.8094 17.1827 7.8094C18.4127 7.8094 19.2227 8.7494 19.2227 10.1594V11.6994Z"
        fillRule="evenodd"
        clipRule="evenodd"
    />
</svg>
        