
<svg
    viewBox="0 0 32.59375 27.548828125"
    xmlns="http://www.w3.org/2000/svg"
>
    <path
        fill="inherit"
        d="M3.1437 22.7002H11.9737V25.3302H11.8937C11.2937 25.3302 10.7837 25.8302 10.7837 26.4402C10.7837 27.0602 11.2937 27.5502 11.8937 27.5502H20.7037C21.3037 27.5502 21.7937 27.0602 21.7937 26.4402C21.7937 25.8302 21.3037 25.3302 20.7037 25.3302H20.6137V22.7002H29.4337C31.4037 22.7002 32.5937 21.5102 32.5937 19.5402V3.1402C32.5937 1.1802 31.4037 0.0002 29.4337 0.0002H3.1437C1.1937 0.0002 0.0037 1.1802 0.0037 3.1402V19.5402C0.0037 21.5102 1.1937 22.7002 3.1437 22.7002ZM2.7937 16.6702C2.3837 16.6702 2.2037 16.5202 2.2037 16.0802V3.1902C2.2037 2.5702 2.5837 2.2002 3.1837 2.2002H29.4037C30.0137 2.2002 30.3937 2.5702 30.3937 3.1902V16.0802C30.3937 16.5202 30.2037 16.6702 29.7937 16.6702ZM11.3937 13.0402C11.3937 13.8202 11.7737 14.2002 12.5137 14.2002H17.1437C17.8837 14.2002 18.2537 13.8202 18.2537 13.0402V9.4902C18.2537 8.8202 17.9737 8.4402 17.4437 8.3402V7.1602C17.4437 6.1502 17.9737 5.5102 18.9037 5.5102C19.8337 5.5102 20.3837 6.1502 20.3837 7.1602V8.1302C20.3837 8.5002 20.6837 8.8202 21.0637 8.8202C21.4237 8.8202 21.7337 8.5002 21.7337 8.1302V7.1602C21.7337 5.4402 20.6337 4.1802 18.9037 4.1802C17.2037 4.1802 16.0937 5.4402 16.0937 7.2902V8.3102H12.5137C11.7737 8.3102 11.3937 8.7102 11.3937 9.4902Z"
        fillRule="evenodd"
        clipRule="evenodd"
    />
</svg>
        