<svg viewBox="0 0 28.13671875 26.796875" xmlns="http://www.w3.org/2000/svg"><path d="M3.0737 26.8013H15.5837C17.5937 26.8013 18.6637 25.7013 18.6637 23.5413V14.1213C18.6637 12.2913 17.8837 11.2213 16.4237 10.9513V7.3413C16.4237 3.8813 18.6337 2.0613 21.1937 2.0613C23.7437 2.0613 25.9637 3.8813 25.9637 7.3413V10.3813C25.9637 11.1813 26.4437 11.5913 27.0537 11.5913C27.6437 11.5913 28.1337 11.2213 28.1337 10.3813V7.6313C28.1337 2.4913 24.7637 0.0013 21.1937 0.0013C17.6137 0.0013 14.2637 2.4913 14.2637 7.6313V10.8813H3.0737C1.0637 10.8813 0.0037 11.9813 0.0037 14.1213V23.5413C0.0037 25.7013 1.0637 26.8013 3.0737 26.8013ZM3.1437 24.7313C2.5537 24.7313 2.2137 24.3613 2.2137 23.6913V13.9713C2.2137 13.3013 2.5537 12.9513 3.1437 12.9513H15.5137C16.1237 12.9513 16.4437 13.3013 16.4437 13.9713V23.6913C16.4437 24.3613 16.1237 24.7313 15.5137 24.7313Z" /></svg>