<svg viewBox="0 0 23.98046875 31.732421875" xmlns="http://www.w3.org/2000/svg"><path d="M5.3637 1.7668H18.6237C18.5437 0.5968 17.8737 -0.0032 16.6137 -0.0032H7.3537C6.0937 -0.0032 5.4437 0.5968 5.3637 1.7668ZM2.9837 5.5468H20.9837C20.7837 4.3068 20.1937 3.6268 18.8237 3.6268H5.1437C3.7737 3.6268 3.1837 4.3068 2.9837 5.5468ZM4.2937 31.7368H20.0937C22.5437 31.7368 23.9837 30.3068 23.9837 27.4968V11.9868C23.9837 9.1768 22.5337 7.7568 19.6837 7.7568H4.2937C1.4337 7.7568 0.0037 9.1568 0.0037 11.9868V27.4968C0.0037 30.3068 1.4337 31.7368 4.2937 31.7368ZM4.3237 29.5268C2.9537 29.5268 2.2037 28.7968 2.2037 27.3668V12.0968C2.2037 10.6868 2.9537 9.9568 4.3237 9.9568H19.6437C21.0037 9.9568 21.7837 10.6868 21.7837 12.0968V27.3668C21.7837 28.7968 21.0037 29.5268 20.0537 29.5268ZM7.0537 25.1968C7.0537 26.2268 7.5037 26.6968 8.4537 26.6968H15.5337C16.4837 26.6968 16.9437 26.2268 16.9437 25.1968V19.7568C16.9437 18.7968 16.5437 18.3368 15.7237 18.2768V16.6568C15.7237 14.1368 14.2237 12.4568 11.9937 12.4568C9.7737 12.4568 8.2537 14.1368 8.2537 16.6568V18.2768C7.4537 18.3368 7.0537 18.7968 7.0537 19.7568ZM9.6837 18.2668V16.5068C9.6837 14.9068 10.6137 13.8368 11.9937 13.8368C13.3837 13.8368 14.3037 14.9068 14.3037 16.5068V18.2668Z" /></svg>