
<svg
    viewBox="0 0 25.551047111883236 27.8427734375"
    xmlns="http://www.w3.org/2000/svg"
>
    <path
        fill="inherit"
        d="M12.5103 2.065C15.0603 2.065 17.2903 3.885 17.2903 7.345V10.895H12.3303L14.4103 12.965H18.7003C19.3003 12.965 19.6303 13.315 19.6303 13.985V18.185L21.8403 20.385V14.135C21.8403 12.245 21.0103 11.165 19.4503 10.955V7.625C19.4503 2.485 16.0903 -0.005 12.5103 -0.005C9.6903 -0.005 7.0603 1.555 6.0703 4.625L7.8203 6.385C8.1703 3.565 10.1803 2.065 12.5103 2.065ZM23.7603 27.535C24.1703 27.945 24.8503 27.945 25.2503 27.535C25.6403 27.125 25.6603 26.455 25.2503 26.045L1.8003 2.615C1.3903 2.205 0.7103 2.205 0.3003 2.615C-0.0997 3.025 -0.0997 3.705 0.3003 4.105ZM6.2603 26.815H18.7703C19.4103 26.815 19.9603 26.665 20.3503 26.405L18.5103 24.555C18.4003 24.665 18.2303 24.745 18.0403 24.745H6.3303C5.7403 24.745 5.4003 24.375 5.4003 23.705V13.985C5.4003 13.315 5.7403 12.965 6.3303 12.965H6.9003L5.0703 11.125H4.9503C3.8203 11.495 3.1803 12.535 3.1803 14.135V23.555C3.1803 25.715 4.2503 26.815 6.2603 26.815Z"
        fillRule="evenodd"
        clipRule="evenodd"
    />
</svg>
        