
<svg
    viewBox={0 0 23.98046875 31.732421875}
    xmlns="http://www.w3.org/2000/svg"
>
    <path
        fill="inherit"
        d="M5.3637 1.7668H18.6237C18.5437 0.5968 17.8737 -0.0032 16.6137 -0.0032H7.3537C6.0937 -0.0032 5.4437 0.5968 5.3637 1.7668ZM2.9837 5.5468H20.9837C20.7837 4.3068 20.1937 3.6268 18.8237 3.6268H5.1437C3.7737 3.6268 3.1837 4.3068 2.9837 5.5468ZM4.2937 31.7368H20.0937C22.5437 31.7368 23.9837 30.3068 23.9837 27.4968V11.9868C23.9837 9.1768 22.5337 7.7568 19.6837 7.7568H4.2937C1.4337 7.7568 0.0037 9.1568 0.0037 11.9868V27.4968C0.0037 30.3068 1.4337 31.7368 4.2937 31.7368ZM6.9037 25.3868V19.7868C6.9037 18.7868 7.3137 18.2968 8.1337 18.2368V16.5868C8.1337 13.9868 9.7037 12.2468 11.9937 12.2468C14.2837 12.2468 15.8437 13.9868 15.8437 16.5868V18.2368C16.6837 18.2968 17.0937 18.7868 17.0937 19.7868V25.3868C17.0937 26.4368 16.6237 26.9368 15.6437 26.9368H8.3437C7.3737 26.9368 6.9037 26.4368 6.9037 25.3868ZM9.6137 18.2268H14.3737V16.4168C14.3737 14.7768 13.4237 13.6768 11.9937 13.6768C10.5637 13.6768 9.6137 14.7768 9.6137 16.4168Z"
        fillRule="evenodd"
        clipRule="evenodd"
    />
</svg>
        