<svg viewBox="0 0 25.169921875 25.169921875" xmlns="http://www.w3.org/2000/svg"><path d="M4.2937 25.1692H20.8737C23.7437 25.1692 25.1737 23.7592 25.1737 20.9492V4.2392C25.1737 1.4192 23.7437 -0.0008 20.8737 -0.0008H4.2937C1.4337 -0.0008 0.0037 1.4192 0.0037 4.2392V20.9492C0.0037 23.7592 1.4337 25.1692 4.2937 25.1692ZM4.3237 22.9692C2.9537 22.9692 2.2037 22.2392 2.2037 20.8192V4.3592C2.2037 2.9392 2.9537 2.1992 4.3237 2.1992H20.8537C22.2037 2.1992 22.9737 2.9392 22.9737 4.3592V20.8192C22.9737 22.2392 22.2037 22.9692 20.8537 22.9692ZM7.6537 17.9692C7.6537 18.9892 8.1037 19.4692 9.0537 19.4692H16.1337C17.0937 19.4692 17.5437 18.9892 17.5437 17.9692V12.5192C17.5437 11.5692 17.1437 11.0992 16.3237 11.0492V9.4192C16.3237 6.9092 14.8237 5.2192 12.5937 5.2192C10.3637 5.2192 8.8637 6.9092 8.8637 9.4192V11.0492C8.0537 11.0992 7.6537 11.5692 7.6537 12.5192ZM10.2837 11.0292V9.2692C10.2837 7.6692 11.2137 6.5992 12.5937 6.5992C13.9737 6.5992 14.9037 7.6692 14.9037 9.2692V11.0292Z" /></svg>