
<svg
    viewBox={0 0 39.4296875 22.244140625}
    xmlns="http://www.w3.org/2000/svg"
>
    <path
        fill="inherit"
        d="M0.0037 20.6827C0.0037 21.5427 0.6937 22.2427 1.5437 22.2427H37.8837C38.7337 22.2427 39.4337 21.5427 39.4337 20.6827C39.4337 19.8227 38.7337 19.1227 37.8837 19.1227H34.8937V2.9027C34.8937 0.9827 33.8637 0.0027 31.9637 0.0027H7.4637C5.6637 0.0027 4.5437 0.9827 4.5437 2.9027V19.1227H1.5437C0.6937 19.1227 0.0037 19.8227 0.0037 20.6827ZM6.7437 19.1227V3.5127C6.7437 2.6427 7.1737 2.2027 8.0537 2.2027H31.3737C32.2537 2.2027 32.6937 2.6427 32.6937 3.5127V19.1227ZM14.8237 14.2727C14.8237 15.0527 15.1937 15.4327 15.9237 15.4327H20.5637C21.3037 15.4327 21.6737 15.0527 21.6737 14.2727V10.7227C21.6737 10.0527 21.4137 9.6627 20.8637 9.5727V8.3927C20.8637 7.3827 21.4137 6.7227 22.3437 6.7227C23.2737 6.7227 23.8037 7.3827 23.8037 8.3927V9.3627C23.8037 9.7327 24.1137 10.0527 24.4837 10.0527C24.8537 10.0527 25.1537 9.7327 25.1537 9.3627V8.3927C25.1537 6.6727 24.0537 5.4127 22.3437 5.4127C20.6137 5.4127 19.5137 6.6727 19.5137 8.5127V9.5427H15.9237C15.1937 9.5427 14.8237 9.9427 14.8237 10.7227Z"
        fillRule="evenodd"
        clipRule="evenodd"
    />
</svg>
        