
<svg
    viewBox={0 0 35.3828125 23.450325451140163}
    xmlns="http://www.w3.org/2000/svg"
>
    <path
        fill="inherit"
        d="M35.3837 12.7037V4.1337C35.3837 1.6637 33.7237 0.0037 31.2537 0.0037L4.1037 0.0137C1.6537 0.0137 0.0037 1.6937 0.0037 4.1737V12.7037C0.0037 16.2437 1.5137 18.4137 5.1637 19.4937L17.0037 22.9437C20.1837 23.8737 22.2137 23.5037 25.0437 22.0437L32.7337 18.0837C34.9037 16.9637 35.3837 15.6237 35.3837 12.7037ZM33.1837 12.7037C33.1837 14.7237 32.8037 15.6137 31.3337 16.3537L23.8737 20.1637C21.5237 21.3537 19.8537 21.6037 17.0037 20.7537L5.8137 17.4337C3.2437 16.6837 2.2037 15.1937 2.2037 12.7037V4.2137C2.2037 3.0037 2.9637 2.2137 4.1437 2.2137L31.2237 2.2037C32.4037 2.2037 33.1837 2.9837 33.1837 4.1737ZM16.9437 15.8337C18.9737 15.8337 20.2337 14.6737 20.2337 12.6737C20.2337 10.9737 19.3737 10.1837 17.8437 9.5937L17.1037 9.3237C16.2437 8.9937 15.6237 8.5437 15.6237 7.6337C15.6237 6.8237 16.1237 6.2637 16.8837 6.2637C17.7037 6.2637 18.1437 6.8637 18.2937 7.5437C18.4337 7.9937 18.7437 8.1637 19.1637 8.1637C19.6737 8.1637 19.9837 7.8437 19.9837 7.3537C19.9837 7.2437 19.9837 7.1337 19.9237 6.8737C19.5237 5.4837 18.3437 4.7037 16.8837 4.7037C15.0637 4.7037 13.7537 5.8837 13.7537 7.7837C13.7537 9.4337 14.7637 10.3037 16.1037 10.8237L16.8337 11.1137C17.6937 11.4437 18.3637 11.8637 18.3637 12.8337C18.3637 13.6837 17.8237 14.2737 16.9537 14.2737C16.0937 14.2737 15.5737 13.7037 15.4237 12.9837C15.3137 12.5237 14.9837 12.3137 14.5437 12.3137C14.0437 12.3137 13.7137 12.6837 13.7137 13.1937C13.7137 13.4237 13.7237 13.5037 13.7937 13.7437C14.1937 15.1237 15.4537 15.8337 16.9437 15.8337ZM8.0437 15.6037H11.8137C12.2537 15.6037 12.6037 15.2337 12.6037 14.7937C12.6037 14.3737 12.2537 14.0037 11.8137 14.0037H8.9937V5.7537C8.9937 5.2537 8.5537 4.8137 8.0537 4.8137C7.5337 4.8137 7.0937 5.2537 7.0937 5.7537V14.6037C7.0937 15.2137 7.4337 15.6037 8.0437 15.6037ZM22.8337 15.6037H25.6237C27.4837 15.6037 28.5437 14.3737 28.5437 12.6037C28.5437 11.3237 27.7637 10.1437 26.5237 10.0237V9.9537C27.5237 9.7737 28.2237 8.6637 28.2237 7.6337C28.2237 5.9337 27.0837 4.9737 25.5437 4.9737H22.8337C22.2137 4.9737 21.8737 5.4037 21.8737 5.9737V14.6037C21.8737 15.2137 22.2337 15.6037 22.8337 15.6037ZM23.7637 9.4837V6.4437H24.9937C25.9937 6.4437 26.3737 7.0637 26.3737 7.9137C26.3737 8.8837 25.8137 9.4837 24.8437 9.4837ZM23.7637 14.1537V10.7737H24.9937C25.9537 10.7737 26.6237 11.2937 26.6237 12.4537C26.6237 13.5037 26.1037 14.1537 25.0337 14.1537Z"
        fillRule="evenodd"
        clipRule="evenodd"
    />
</svg>
        