
<svg
    viewBox={0 0 35.3828125 23.450325451140163}
    xmlns="http://www.w3.org/2000/svg"
>
    <path
        fill="inherit"
        d="M35.3837 12.7037V4.1337C35.3837 1.6637 33.7237 0.0037 31.2537 0.0037L4.1037 0.0137C1.6537 0.0137 0.0037 1.6937 0.0037 4.1737V12.7037C0.0037 16.2437 1.5137 18.4137 5.1637 19.4937L17.0037 22.9437C20.1837 23.8737 22.2137 23.5037 25.0437 22.0437L32.7337 18.0837C34.9037 16.9637 35.3837 15.6237 35.3837 12.7037ZM16.9137 16.2837C15.3637 16.2837 14.0637 15.5437 13.6737 14.1137C13.5937 13.8737 13.5737 13.7937 13.5737 13.5537C13.5737 13.0437 13.9137 12.6637 14.4337 12.6637C14.8937 12.6637 15.2337 12.8637 15.3637 13.3337C15.5037 14.0837 16.0337 14.6737 16.9237 14.6737C17.8237 14.6737 18.3737 14.0537 18.3737 13.1937C18.3737 12.1937 17.6737 11.7537 16.7937 11.4137L16.0537 11.1337C14.6537 10.5837 13.6137 9.6837 13.6137 7.9737C13.6137 6.0137 14.9837 4.8137 16.8537 4.8137C18.3637 4.8137 19.5737 5.6037 19.9837 7.0437C20.0437 7.3137 20.0537 7.4337 20.0537 7.5437C20.0537 8.0437 19.7437 8.3837 19.2137 8.3837C18.7737 8.3837 18.4437 8.2037 18.3037 7.7337C18.1437 7.0237 17.6937 6.4237 16.8537 6.4237C16.0637 6.4237 15.5537 7.0037 15.5537 7.8237C15.5537 8.7637 16.2037 9.2237 17.0737 9.5737L17.8437 9.8437C19.4237 10.4637 20.3137 11.2837 20.3137 13.0137C20.3137 15.0937 19.0037 16.2837 16.9137 16.2837ZM7.7137 16.0537C7.1137 16.0537 6.7537 15.6537 6.7537 15.0137V5.9037C6.7537 5.3637 7.2037 4.9037 7.7337 4.9037C8.2737 4.9037 8.7237 5.3637 8.7237 5.9037V14.3837H11.6037C12.0537 14.3837 12.4437 14.7537 12.4437 15.2137C12.4437 15.6637 12.0537 16.0537 11.6037 16.0537ZM22.9837 16.0537C22.3637 16.0537 22.0137 15.6437 22.0137 15.0137V6.1237C22.0137 5.5337 22.3537 5.0737 22.9837 5.0737H25.7837C27.3837 5.0737 28.5637 6.0837 28.5637 7.8237C28.5637 8.8837 27.8337 10.0337 26.7937 10.2137V10.2837C28.0937 10.4137 28.8937 11.6237 28.8937 12.9437C28.8937 14.7837 27.7937 16.0537 25.8637 16.0537ZM23.9637 9.7337H25.0637C26.0537 9.7337 26.6337 9.1237 26.6337 8.1237C26.6337 7.2437 26.2537 6.5937 25.2137 6.5937H23.9637ZM23.9637 14.5437H25.2837C26.3637 14.5437 26.8937 13.8737 26.8937 12.7837C26.8937 11.5937 26.1937 11.0637 25.2137 11.0637H23.9637Z"
        fillRule="evenodd"
        clipRule="evenodd"
    />
</svg>
        