
<svg
    viewBox={0 0 31.541015625 23.84375}
    xmlns="http://www.w3.org/2000/svg"
>
    <path
        fill="inherit"
        d="M11.4737 0.003C3.5437 0.003 0.0037 3.653 0.0037 11.113V19.683C0.0037 22.453 1.4237 23.843 4.1937 23.843H27.3437C30.1237 23.843 31.5437 22.433 31.5437 19.683V11.113C31.5437 3.653 28.0037 0.003 20.0737 0.003ZM11.4737 2.203H20.0537C26.5237 2.203 29.3437 5.003 29.3437 10.963V19.583C29.3437 20.943 28.6037 21.643 27.2937 21.643H4.2537C2.9137 21.643 2.2037 20.943 2.2037 19.583V10.963C2.2037 5.003 5.0137 2.203 11.4737 2.203ZM10.9137 17.473H14.8437C15.3037 17.473 15.6637 17.093 15.6637 16.643C15.6637 16.183 15.3037 15.803 14.8437 15.803H11.9237V7.233C11.9237 6.683 11.4737 6.233 10.9237 6.233C10.3937 6.233 9.9437 6.683 9.9437 7.233V16.433C9.9437 17.073 10.2837 17.473 10.9137 17.473ZM18.9037 17.633C19.4537 17.633 19.8937 17.183 19.8937 16.623V8.053H21.5637C22.0137 8.053 22.3637 7.693 22.3637 7.223C22.3637 6.763 22.0137 6.413 21.5637 6.413H16.2037C15.7237 6.413 15.3637 6.763 15.3637 7.223C15.3637 7.693 15.7237 8.053 16.2037 8.053H17.9137V16.623C17.9137 17.183 18.3437 17.633 18.9037 17.633Z"
        fillRule="evenodd"
        clipRule="evenodd"
    />
</svg>
        