
<svg
    viewBox={0 0 31.541015625 23.84375}
    xmlns="http://www.w3.org/2000/svg"
>
    <path
        fill="inherit"
        d="M11.4737 0.003C3.5437 0.003 0.0037 3.653 0.0037 11.113V19.683C0.0037 22.453 1.4237 23.843 4.1937 23.843H27.3437C30.1237 23.843 31.5437 22.433 31.5437 19.683V11.113C31.5437 3.653 28.0037 0.003 20.0737 0.003ZM10.9537 17.413C10.3237 17.413 9.9837 17.033 9.9837 16.393V7.283C9.9837 6.743 10.4137 6.293 10.9637 6.293C11.4937 6.293 11.9537 6.743 11.9537 7.283V15.763H14.8437C15.3037 15.763 15.6637 16.133 15.6637 16.583C15.6637 17.053 15.3037 17.413 14.8437 17.413ZM18.8837 17.583C18.3337 17.583 17.8837 17.133 17.8837 16.583V8.103H16.1837C15.7237 8.103 15.3637 7.743 15.3637 7.263C15.3637 6.813 15.7237 6.453 16.1837 6.453H21.5037C21.9537 6.453 22.3237 6.813 22.3237 7.263C22.3237 7.743 21.9537 8.103 21.5037 8.103H19.8637V16.583C19.8637 17.133 19.4137 17.583 18.8837 17.583Z"
        fillRule="evenodd"
        clipRule="evenodd"
    />
</svg>
        