
<svg
    viewBox={0 0 27.890625 27.890625}
    xmlns="http://www.w3.org/2000/svg"
>
    <path
        fill="inherit"
        d="M13.9427 27.8864C21.6427 27.8864 27.8927 21.6264 27.8927 13.9464C27.8927 6.2464 21.6427 -0.0036 13.9427 -0.0036C6.2627 -0.0036 0.0027 6.2464 0.0027 13.9464C0.0027 21.6264 6.2627 27.8864 13.9427 27.8864ZM9.1627 19.3864C8.5427 19.3864 8.2027 18.9864 8.2027 18.3564V9.3564C8.2027 8.8164 8.6427 8.3764 9.1727 8.3764C9.7027 8.3764 10.1427 8.8164 10.1427 9.3564V17.7364H13.0127C13.4527 17.7364 13.8327 18.1064 13.8327 18.5564C13.8327 19.0064 13.4527 19.3864 13.0127 19.3864ZM17.0127 19.5364C16.4627 19.5364 16.0127 19.0964 16.0127 18.5364V10.1564H14.3427C13.8727 10.1564 13.5227 9.8064 13.5227 9.3364C13.5227 8.8864 13.8727 8.5264 14.3427 8.5264H19.6027C20.0427 8.5264 20.4027 8.8864 20.4027 9.3364C20.4027 9.8064 20.0427 10.1564 19.6027 10.1564H17.9827V18.5364C17.9827 19.0964 17.5427 19.5364 17.0127 19.5364Z"
        fillRule="evenodd"
        clipRule="evenodd"
    />
</svg>
        