
<svg
    viewBox="0 0 27.890625 27.890625"
    xmlns="http://www.w3.org/2000/svg"
>
    <path
        fill="inherit"
        d="M13.9427 27.8864C21.6427 27.8864 27.8927 21.6464 27.8927 13.9464C27.8927 6.2464 21.6427 -0.0036 13.9427 -0.0036C6.2527 -0.0036 0.0027 6.2464 0.0027 13.9464C0.0027 21.6464 6.2527 27.8864 13.9427 27.8864ZM13.9427 25.5664C7.5227 25.5664 2.3227 20.3664 2.3227 13.9464C2.3227 7.5164 7.5227 2.3264 13.9427 2.3264C20.3727 2.3264 25.5627 7.5164 25.5627 13.9464C25.5627 20.3664 20.3727 25.5664 13.9427 25.5664ZM9.0627 19.4864H13.0027C13.4527 19.4864 13.8227 19.1164 13.8227 18.6464C13.8227 18.1964 13.4527 17.8264 13.0027 17.8264H10.0727V9.2464C10.0727 8.7064 9.6227 8.2564 9.0827 8.2564C8.5427 8.2564 8.0927 8.7064 8.0927 9.2464V18.4564C8.0927 19.0964 8.4327 19.4864 9.0627 19.4864ZM17.0627 19.6464C17.6127 19.6464 18.0427 19.2064 18.0427 18.6464V10.0764H19.7127C20.1627 10.0764 20.5227 9.7064 20.5227 9.2464C20.5227 8.7864 20.1627 8.4264 19.7127 8.4264H14.3527C13.8927 8.4264 13.5227 8.7864 13.5227 9.2464C13.5227 9.7064 13.8927 10.0764 14.3527 10.0764H16.0627V18.6464C16.0627 19.2064 16.5027 19.6464 17.0627 19.6464Z"
        fillRule="evenodd"
        clipRule="evenodd"
    />
</svg>
        