
<svg
    viewBox="0 0 36.04262151797953 25.839411453847607"
    xmlns="http://www.w3.org/2000/svg"
>
    <path
        fill="inherit"
        d="M4.9555 25.7145L10.3255 24.6745C13.2255 24.1145 14.5055 22.5445 14.5055 19.4645V18.0345L18.0255 17.3045L21.5355 18.0345V19.4645C21.5355 22.5445 22.8155 24.1145 25.7155 24.6745L31.0955 25.7145C34.6555 26.4045 36.7555 24.1545 35.8255 20.6745L31.5055 4.2945C30.8155 1.7345 28.7555 0.0045 26.3155 0.0045C23.4655 0.0045 21.5355 1.8445 21.5355 4.5945V15.7945L19.1055 15.2745V1.7245C19.1055 1.1245 18.6255 0.6245 18.0255 0.6245C17.4155 0.6245 16.9255 1.1245 16.9255 1.7245V15.2745L14.5055 15.7945V4.5945C14.5055 1.8445 12.5755 0.0045 9.7255 0.0045C7.2855 0.0045 5.2255 1.7345 4.5455 4.2945L0.2255 20.6745C-0.7045 24.1545 1.3855 26.4045 4.9555 25.7145ZM7.0555 19.6145L12.3055 18.5145V19.4645C12.3055 21.5045 11.7755 22.1445 9.9255 22.5145L4.5155 23.5745C2.9555 23.8545 1.9155 22.9145 2.3855 21.1645L6.6755 4.8545C7.1155 3.2445 8.3155 2.2045 9.7255 2.2045C11.2655 2.2045 12.3055 3.1445 12.3055 4.5945V15.6245L8.7155 12.3745C8.2855 11.9945 7.5455 12.0045 7.1355 12.4445C6.7555 12.8945 6.8055 13.6145 7.2455 14.0145L10.2555 16.7045L6.5755 17.4845C6.0355 17.5945 5.6355 18.1945 5.7455 18.7745C5.8555 19.3545 6.4855 19.7445 7.0555 19.6145ZM28.9855 19.6145C29.5555 19.7445 30.1855 19.3545 30.2955 18.7745C30.4055 18.1945 30.0155 17.5945 29.4655 17.4845L25.7855 16.7045L28.7955 14.0145C29.2355 13.6145 29.2855 12.8945 28.9055 12.4445C28.4955 12.0045 27.7555 11.9945 27.3355 12.3745L23.7355 15.6245V4.5945C23.7355 3.1445 24.7655 2.2045 26.3155 2.2045C27.7255 2.2045 28.9355 3.2445 29.3655 4.8545L33.6655 21.1645C34.1255 22.9145 33.0855 23.8545 31.5255 23.5745L26.1155 22.5145C24.2655 22.1445 23.7355 21.5045 23.7355 19.4645V18.5145Z"
        fillRule="evenodd"
        clipRule="evenodd"
    />
</svg>
        