
<svg
    viewBox={0 0 27.890625 27.890625}
    xmlns="http://www.w3.org/2000/svg"
>
    <path
        fill="inherit"
        d="M13.9427 27.8864C21.6427 27.8864 27.8927 21.6264 27.8927 13.9464C27.8927 6.2464 21.6427 -0.0036 13.9427 -0.0036C6.2627 -0.0036 0.0027 6.2464 0.0027 13.9464C0.0027 21.6264 6.2627 27.8864 13.9427 27.8864ZM8.4627 20.4964C7.8327 20.4964 7.4327 20.0564 7.4327 19.3364V8.5264C7.4327 7.7564 7.9827 7.2164 8.7727 7.2164C9.4627 7.2164 9.9127 7.5364 10.1627 8.1364L13.9227 17.4964H13.9827L17.7227 8.1364C17.9827 7.5364 18.4327 7.2164 19.1127 7.2164C19.8927 7.2164 20.4427 7.7564 20.4427 8.5264V19.3364C20.4427 20.0664 20.0527 20.4964 19.3827 20.4964C18.7727 20.4964 18.3927 20.0564 18.3927 19.3364V11.2264H18.2627L15.0127 19.3164C14.8027 19.8264 14.4527 20.0564 13.9327 20.0564C13.4027 20.0564 13.0727 19.8264 12.8527 19.3164L9.6227 11.2264H9.4927V19.3364C9.4927 20.0664 9.1027 20.4964 8.4627 20.4964Z"
        fillRule="evenodd"
        clipRule="evenodd"
    />
</svg>
        