
<svg
    viewBox="0 0 27.890625 27.890625"
    xmlns="http://www.w3.org/2000/svg"
>
    <path
        fill="inherit"
        d="M13.9427 27.8864C21.6427 27.8864 27.8927 21.6464 27.8927 13.9464C27.8927 6.2464 21.6427 -0.0036 13.9427 -0.0036C6.2527 -0.0036 0.0027 6.2464 0.0027 13.9464C0.0027 21.6464 6.2527 27.8864 13.9427 27.8864ZM13.9427 25.5664C7.5227 25.5664 2.3227 20.3664 2.3227 13.9464C2.3227 7.5164 7.5227 2.3264 13.9427 2.3264C20.3727 2.3264 25.5627 7.5164 25.5627 13.9464C25.5627 20.3664 20.3727 25.5664 13.9427 25.5664ZM8.6127 20.2864C9.2427 20.2864 9.6127 19.8764 9.6127 19.1664V11.2764H9.7327L12.8827 19.1564C13.0827 19.6464 13.4027 19.8764 13.9227 19.8764C14.4227 19.8764 14.7627 19.6464 14.9527 19.1564L18.1327 11.2764H18.2427V19.1664C18.2427 19.8664 18.6027 20.2864 19.2127 20.2864C19.8527 20.2864 20.2227 19.8764 20.2227 19.1664V8.6964C20.2227 7.9464 19.6827 7.4264 18.9327 7.4264C18.2827 7.4264 17.8427 7.7264 17.5927 8.3164L13.9727 17.4064H13.9027L10.2527 8.3164C10.0227 7.7264 9.5827 7.4264 8.9327 7.4264C8.1627 7.4264 7.6327 7.9464 7.6327 8.6964V19.1664C7.6327 19.8664 8.0127 20.2864 8.6127 20.2864Z"
        fillRule="evenodd"
        clipRule="evenodd"
    />
</svg>
        