
<svg
    viewBox={0 0 25.169921875 25.169921875}
    xmlns="http://www.w3.org/2000/svg"
>
    <path
        fill="inherit"
        d="M4.2937 25.1692H20.8737C23.7437 25.1692 25.1737 23.7592 25.1737 20.9492V4.2392C25.1737 1.4192 23.7437 -0.0008 20.8737 -0.0008H4.2937C1.4337 -0.0008 0.0037 1.4192 0.0037 4.2392V20.9492C0.0037 23.7592 1.4337 25.1692 4.2937 25.1692ZM4.3237 22.9692C2.9537 22.9692 2.2037 22.2392 2.2037 20.8192V4.3592C2.2037 2.9392 2.9537 2.1992 4.3237 2.1992H20.8537C22.2037 2.1992 22.9737 2.9392 22.9737 4.3592V20.8192C22.9737 22.2392 22.2037 22.9692 20.8537 22.9692ZM7.2737 18.9192C7.9037 18.9192 8.2837 18.5092 8.2837 17.7992V9.9092H8.3937L11.5437 17.7892C11.7437 18.2792 12.0737 18.5092 12.5737 18.5092C13.0837 18.5092 13.4237 18.2792 13.6137 17.7892L16.7937 9.9092H16.8937V17.7992C16.8937 18.4992 17.2637 18.9192 17.8737 18.9192C18.5137 18.9192 18.8837 18.5092 18.8837 17.7992V7.3292C18.8837 6.5792 18.3437 6.0592 17.5937 6.0592C16.9437 6.0592 16.5037 6.3592 16.2537 6.9492L12.6337 16.0392H12.5637L8.9137 6.9492C8.6837 6.3592 8.2437 6.0592 7.5837 6.0592C6.8237 6.0592 6.3037 6.5792 6.3037 7.3292V17.7992C6.3037 18.4992 6.6737 18.9192 7.2737 18.9192Z"
        fillRule="evenodd"
        clipRule="evenodd"
    />
</svg>
        