
<svg
    viewBox="0 0 25.169921875 25.169921875"
    xmlns="http://www.w3.org/2000/svg"
>
    <path
        fill="inherit"
        d="M4.2937 25.1692H20.8737C23.7437 25.1692 25.1737 23.7592 25.1737 20.9492V4.2392C25.1737 1.4192 23.7437 -0.0008 20.8737 -0.0008H4.2937C1.4337 -0.0008 0.0037 1.4192 0.0037 4.2392V20.9492C0.0037 23.7592 1.4337 25.1692 4.2937 25.1692ZM7.1137 19.1292C6.4837 19.1292 6.0937 18.6892 6.0937 17.9692V7.1592C6.0937 6.3892 6.6337 5.8492 7.4237 5.8492C8.1037 5.8492 8.5537 6.1692 8.8037 6.7692L12.5637 16.1292H12.6337L16.3637 6.7692C16.6237 6.1692 17.0737 5.8492 17.7637 5.8492C18.5437 5.8492 19.0837 6.3892 19.0837 7.1592V17.9692C19.0837 18.6992 18.7037 19.1292 18.0337 19.1292C17.4137 19.1292 17.0337 18.6892 17.0337 17.9692V9.8592H16.9137L13.6537 17.9492C13.4537 18.4592 13.0937 18.6892 12.5737 18.6892C12.0537 18.6892 11.7137 18.4592 11.4937 17.9492L8.2737 9.8592H8.1437V17.9692C8.1437 18.6992 7.7537 19.1292 7.1137 19.1292Z"
        fillRule="evenodd"
        clipRule="evenodd"
    />
</svg>
        