
<svg
    viewBox="0 0 32.23828125 24.541015625"
    xmlns="http://www.w3.org/2000/svg"
>
    <path
        fill="inherit"
        d="M10.7737 24.5384H21.4637C29.3937 24.5384 32.2337 21.5984 32.2337 14.2884V10.2684C32.2337 2.9484 29.3937 -0.0016 21.4637 -0.0016H10.7737C2.8437 -0.0016 0.0037 2.9484 0.0037 10.2684V14.2884C0.0037 21.5984 2.8437 24.5384 10.7737 24.5384ZM22.7537 18.1284C22.1737 18.1284 21.7137 17.6684 21.7137 17.0884V8.5484L20.4237 9.5884C20.2737 9.6884 20.1437 9.7584 19.9037 9.7584C19.4837 9.7584 19.1837 9.4484 19.1837 9.0084C19.1837 8.6384 19.3837 8.3684 19.6337 8.1784L21.1737 6.9684C21.5237 6.7284 21.9937 6.3984 22.5837 6.3984C23.3237 6.3984 23.7737 6.8184 23.7737 7.5484V17.0884C23.7737 17.6684 23.3137 18.1284 22.7537 18.1284ZM8.8037 18.1884C8.2437 18.1884 7.8937 17.7984 7.8937 17.1984V7.8584C7.8937 6.9584 8.4337 6.4084 9.3337 6.4084C10.1037 6.4084 10.5937 6.8084 10.7837 7.5984L12.7237 15.2684H12.7837L14.6937 7.5984C14.8937 6.8084 15.3437 6.4084 16.1637 6.4084C17.0637 6.4084 17.6137 6.9284 17.6137 7.8584V17.1984C17.6137 17.7984 17.2937 18.1884 16.6937 18.1884C16.1237 18.1884 15.7737 17.7984 15.7737 17.1984V9.5984H15.6937L13.7837 17.0184C13.6437 17.5984 13.3437 17.9784 12.7737 17.9784C12.1937 17.9784 11.8537 17.5784 11.7137 17.0384L9.8137 9.5984H9.7237V17.1984C9.7237 17.7984 9.3537 18.1884 8.8037 18.1884Z"
        fillRule="evenodd"
        clipRule="evenodd"
    />
</svg>
        