
<svg
    viewBox="0 0 32.23828125 24.541015625"
    xmlns="http://www.w3.org/2000/svg"
>
    <path
        fill="inherit"
        d="M10.7737 24.5384H21.4637C29.3937 24.5384 32.2337 21.5984 32.2337 14.2884V10.2684C32.2337 2.9484 29.3937 -0.0016 21.4637 -0.0016H10.7737C2.8437 -0.0016 0.0037 2.9484 0.0037 10.2684V14.2884C0.0037 21.5984 2.8437 24.5384 10.7737 24.5384ZM10.7737 22.3384C4.3237 22.3384 2.2037 20.2484 2.2037 14.2884V10.2684C2.2037 4.3084 4.3237 2.1984 10.7737 2.1984H21.4637C27.9137 2.1984 30.0337 4.3084 30.0337 10.2684V14.2884C30.0337 20.2484 27.9137 22.3384 21.4637 22.3384ZM22.5337 17.9484C23.0737 17.9484 23.5337 17.4984 23.5337 16.9484V7.6884C23.5337 6.9884 23.0937 6.5784 22.3837 6.5784C21.8037 6.5784 21.3437 6.8884 21.0137 7.1384L19.5137 8.2984C19.2737 8.4884 19.0837 8.7484 19.0837 9.1084C19.0837 9.5284 19.3737 9.8284 19.7837 9.8284C20.0037 9.8284 20.1437 9.7584 20.2737 9.6684L21.5337 8.6584V16.9484C21.5337 17.4984 21.9837 17.9484 22.5337 17.9484ZM9.0237 18.0084C9.5537 18.0084 9.9137 17.6384 9.9137 17.0484V9.6684H9.9937L11.8537 16.8984C11.9737 17.4184 12.3037 17.7984 12.8637 17.7984C13.4237 17.7984 13.7137 17.4284 13.8537 16.8884L15.7137 9.6684H15.7937V17.0484C15.7937 17.6384 16.1237 18.0084 16.6637 18.0084C17.2537 18.0084 17.5537 17.6384 17.5537 17.0484V7.9884C17.5537 7.0984 17.0237 6.5884 16.1637 6.5884C15.3637 6.5884 14.9337 6.9684 14.7337 7.7384L12.8837 15.1884H12.8237L10.9337 7.7384C10.7437 6.9684 10.2837 6.5884 9.5437 6.5884C8.6637 6.5884 8.1337 7.1184 8.1337 7.9884V17.0484C8.1337 17.6384 8.4737 18.0084 9.0237 18.0084Z"
        fillRule="evenodd"
        clipRule="evenodd"
    />
</svg>
        