
<svg
    viewBox={0 0 32.23828125 24.541015625}
    xmlns="http://www.w3.org/2000/svg"
>
    <path
        fill="inherit"
        d="M10.7737 24.5384H21.4637C29.3937 24.5384 32.2337 21.5984 32.2337 14.2884V10.2684C32.2337 2.9484 29.3937 -0.0016 21.4637 -0.0016H10.7737C2.8437 -0.0016 0.0037 2.9484 0.0037 10.2684V14.2884C0.0037 21.5984 2.8437 24.5384 10.7737 24.5384ZM10.7737 22.3384C4.3237 22.3384 2.2037 20.2484 2.2037 14.2884V10.2684C2.2037 4.3084 4.3237 2.1984 10.7737 2.1984H21.4637C27.9137 2.1984 30.0337 4.3084 30.0337 10.2684V14.2884C30.0337 20.2484 27.9137 22.3384 21.4637 22.3384ZM19.5337 17.7984H24.2837C24.7637 17.7984 25.0437 17.4884 25.0437 17.0084C25.0437 16.4884 24.7437 16.1984 24.2837 16.1984H21.0237V16.0884L23.0237 13.5584C24.3937 11.8684 24.8437 10.8584 24.8437 9.6484C24.8437 7.8084 23.5837 6.4684 21.6937 6.4684C19.9637 6.4684 18.6237 7.9184 18.6237 9.3384C18.6237 9.8484 18.9237 10.1984 19.4437 10.1984C19.8937 10.1984 20.1837 9.9984 20.3137 9.5384C20.5737 8.6284 20.9037 8.0484 21.6937 8.0484C22.5137 8.0484 22.9837 8.7784 22.9837 9.7484C22.9837 10.8384 22.2137 11.9484 21.4937 12.8784L19.1137 15.9184C18.8637 16.2384 18.6037 16.5884 18.6037 17.0084C18.6037 17.4684 18.9037 17.7984 19.5337 17.7984ZM8.2837 18.0084C8.8337 18.0084 9.1737 17.6384 9.1737 17.0484V9.6684H9.2537L11.1137 16.8984C11.2337 17.4184 11.5837 17.7984 12.1237 17.7984C12.6837 17.7984 12.9737 17.4284 13.1237 16.8884L14.9837 9.6684H15.0537V17.0484C15.0537 17.6384 15.3837 18.0084 15.9437 18.0084C16.5137 18.0084 16.8337 17.6384 16.8337 17.0484V7.9884C16.8337 7.0984 16.2837 6.5884 15.4237 6.5884C14.6337 6.5884 14.1937 6.9684 14.0037 7.7384L12.1537 15.1884H12.0837L10.2037 7.7384C10.0037 6.9684 9.5537 6.5884 8.8037 6.5884C7.9437 6.5884 7.3937 7.1184 7.3937 7.9884V17.0484C7.3937 17.6384 7.7337 18.0084 8.2837 18.0084Z"
        fillRule="evenodd"
        clipRule="evenodd"
    />
</svg>
        