
<svg
    viewBox={0 0 32.23828125 24.541015625}
    xmlns="http://www.w3.org/2000/svg"
>
    <path
        fill="inherit"
        d="M10.7737 24.5384H21.4637C29.3937 24.5384 32.2337 21.5984 32.2337 14.2884V10.2684C32.2337 2.9484 29.3937 -0.0016 21.4637 -0.0016H10.7737C2.8437 -0.0016 0.0037 2.9484 0.0037 10.2684V14.2884C0.0037 21.5984 2.8437 24.5384 10.7737 24.5384ZM22.0137 18.2284C20.5037 18.2284 19.0537 17.4984 18.6437 16.1884C18.5837 15.9584 18.5437 15.7084 18.5437 15.4484C18.5437 14.8984 18.9237 14.5584 19.4837 14.5584C19.9337 14.5584 20.2337 14.7884 20.3737 15.2584C20.5337 15.8984 21.0037 16.5884 22.0237 16.5884C23.0637 16.5884 23.5837 15.7484 23.5837 14.7784C23.5837 13.5584 22.9237 12.9084 21.7237 12.9084H21.3837C20.9037 12.9084 20.5937 12.6284 20.5937 12.1684C20.5937 11.6984 20.9037 11.3984 21.3837 11.3984H21.6937C22.7637 11.3984 23.3337 10.6484 23.3337 9.6284C23.3337 8.6984 22.9037 7.9884 21.9737 7.9884C21.1637 7.9884 20.7437 8.5084 20.5037 9.3384C20.3737 9.8284 20.0837 10.0084 19.6037 10.0084C19.0337 10.0084 18.7437 9.6384 18.7437 9.1784C18.7437 8.9284 18.7737 8.6784 18.8437 8.4084C19.2537 7.1684 20.5037 6.3484 21.9737 6.3484C23.8037 6.3484 25.2637 7.4484 25.2637 9.4084C25.2637 10.5784 24.6337 11.7284 23.3537 12.0684V12.1084C24.5537 12.2384 25.5937 13.0984 25.5937 14.8484C25.5937 16.9484 24.0537 18.2284 22.0137 18.2284ZM7.8437 18.1884C7.3037 18.1884 6.9337 17.7984 6.9337 17.1984V7.8584C6.9337 6.9584 7.4937 6.4084 8.3837 6.4084C9.1637 6.4084 9.6437 6.8084 9.8337 7.5984L11.7837 15.2684H11.8437L13.7537 7.5984C13.9337 6.8084 14.3937 6.4084 15.2037 6.4084C16.1237 6.4084 16.6637 6.9284 16.6637 7.8584V17.1984C16.6637 17.7984 16.3337 18.1884 15.7537 18.1884C15.1637 18.1884 14.8237 17.7984 14.8237 17.1984V9.5984H14.7537L12.8337 17.0184C12.7037 17.5984 12.3837 17.9784 11.8137 17.9784C11.2337 17.9784 10.9137 17.5784 10.7637 17.0384L8.8637 9.5984H8.7637V17.1984C8.7637 17.7984 8.4037 18.1884 7.8437 18.1884Z"
        fillRule="evenodd"
        clipRule="evenodd"
    />
</svg>
        