<svg viewBox="0 0 32.23828125 24.541015625" xmlns="http://www.w3.org/2000/svg"><path d="M10.7737 24.5384H21.4637C29.3937 24.5384 32.2337 21.5984 32.2337 14.2884V10.2684C32.2337 2.9484 29.3937 -0.0016 21.4637 -0.0016H10.7737C2.8437 -0.0016 0.0037 2.9484 0.0037 10.2684V14.2884C0.0037 21.5984 2.8437 24.5384 10.7737 24.5384ZM10.7737 22.3384C4.3237 22.3384 2.2037 20.2484 2.2037 14.2884V10.2684C2.2037 4.3084 4.3237 2.1984 10.7737 2.1984H21.4637C27.9137 2.1984 30.0337 4.3084 30.0337 10.2684V14.2884C30.0337 20.2484 27.9137 22.3384 21.4637 22.3384ZM21.8337 18.0484C23.8037 18.0484 25.3037 16.8184 25.3037 14.7684C25.3037 13.0684 24.2937 12.2384 23.1437 12.1084V12.0684C24.3737 11.7484 24.9737 10.6384 24.9737 9.4884C24.9737 7.5984 23.5737 6.5184 21.7937 6.5184C20.3737 6.5184 19.1537 7.3184 18.7537 8.5284C18.6937 8.7884 18.6637 9.0384 18.6637 9.2684C18.6637 9.7184 18.9537 10.0784 19.4937 10.0784C19.9637 10.0784 20.2337 9.8984 20.3737 9.4184C20.5937 8.6084 21.0137 8.1084 21.7937 8.1084C22.6937 8.1084 23.1237 8.8084 23.1237 9.7084C23.1237 10.7084 22.5537 11.4284 21.5337 11.4284H21.2237C20.7537 11.4284 20.4537 11.7184 20.4537 12.1684C20.4537 12.6184 20.7637 12.8784 21.2237 12.8784H21.5637C22.7237 12.8784 23.3637 13.5184 23.3637 14.7084C23.3637 15.6584 22.8637 16.4584 21.8437 16.4584C20.8537 16.4584 20.3937 15.7884 20.2337 15.1584C20.1137 14.7284 19.8137 14.4884 19.3737 14.4884C18.8437 14.4884 18.4837 14.8184 18.4837 15.3584C18.4837 15.5984 18.5137 15.8484 18.5837 16.0684C18.9737 17.3384 20.3737 18.0484 21.8337 18.0484ZM8.1037 18.0084C8.6537 18.0084 8.9937 17.6384 8.9937 17.0484V9.6684H9.0737L10.9337 16.8984C11.0737 17.4184 11.4037 17.7984 11.9537 17.7984C12.5137 17.7984 12.8137 17.4284 12.9437 16.8884L14.8037 9.6684H14.8737V17.0484C14.8737 17.6384 15.2037 18.0084 15.7637 18.0084C16.3337 18.0084 16.6537 17.6384 16.6537 17.0484V7.9884C16.6537 7.0984 16.1237 6.5884 15.2437 6.5884C14.4637 6.5884 14.0137 6.9684 13.8337 7.7384L11.9737 15.1884H11.9237L10.0237 7.7384C9.8337 6.9684 9.3837 6.5884 8.6237 6.5884C7.7637 6.5884 7.2237 7.1184 7.2237 7.9884V17.0484C7.2237 17.6384 7.5737 18.0084 8.1037 18.0084Z" /></svg>