
<svg
    viewBox="0 0 32.23828125 24.541015625"
    xmlns="http://www.w3.org/2000/svg"
>
    <path
        fill="inherit"
        d="M10.7737 24.5384H21.4637C29.3937 24.5384 32.2337 21.5984 32.2337 14.2884V10.2684C32.2337 2.9484 29.3937 -0.0016 21.4637 -0.0016H10.7737C2.8437 -0.0016 0.0037 2.9484 0.0037 10.2684V14.2884C0.0037 21.5984 2.8437 24.5384 10.7737 24.5384ZM23.5837 18.1584C23.1337 18.1584 22.6037 17.8984 22.6037 17.1484V15.7484H19.4437C18.7537 15.7484 18.2837 15.2884 18.2837 14.5984C18.2837 14.1684 18.3737 13.7984 18.6037 13.2484L21.1137 7.7784C21.5037 6.9084 21.9737 6.3984 22.9837 6.3984C23.8937 6.3984 24.5437 6.9484 24.5437 7.9284V14.1084H25.0437C25.6037 14.1084 25.8537 14.4684 25.8537 14.9184C25.8537 15.3984 25.5937 15.7484 25.0437 15.7484H24.5437V17.1484C24.5437 17.8284 24.1137 18.1584 23.5837 18.1584ZM7.6737 18.1884C7.1137 18.1884 6.7537 17.7984 6.7537 17.1984V7.8584C6.7537 6.9584 7.3137 6.4084 8.2137 6.4084C8.9837 6.4084 9.4637 6.8084 9.6637 7.5984L11.5937 15.2684H11.6437L13.5637 7.5984C13.7637 6.8084 14.2237 6.4084 15.0437 6.4084C15.9237 6.4084 16.4837 6.9284 16.4837 7.8584V17.1984C16.4837 17.7984 16.1737 18.1884 15.5537 18.1884C14.9937 18.1884 14.6537 17.7984 14.6537 17.1984V9.5984H14.5737L12.6637 17.0184C12.5237 17.5984 12.2237 17.9784 11.6337 17.9784C11.0637 17.9784 10.7237 17.5784 10.5937 17.0384L8.6837 9.5984H8.6037V17.1984C8.6037 17.7984 8.2337 18.1884 7.6737 18.1884ZM22.6437 14.1484V8.1784H22.5837L20.0337 14.0584V14.1484Z"
        fillRule="evenodd"
        clipRule="evenodd"
    />
</svg>
        