
<svg
    viewBox={0 0 41.234375 22.88671875}
    xmlns="http://www.w3.org/2000/svg"
>
    <path
        fill="inherit"
        d="M1.5437 22.2427H17.7837C17.4637 21.5427 17.2837 20.8727 17.2637 19.1227H6.7437V3.5127C6.7437 2.6427 7.1737 2.2027 8.0537 2.2027H31.3737C32.2537 2.2027 32.6937 2.6427 32.6937 3.4227V3.8727H34.8937V2.9027C34.8937 0.9827 33.7737 0.0027 31.9637 0.0027H7.4637C5.6637 0.0027 4.5437 0.9827 4.5437 2.9027V19.1227H1.5437C0.6937 19.1227 0.0037 19.8227 0.0037 20.6827C0.0037 21.5427 0.6937 22.2427 1.5437 22.2427ZM22.2037 22.8827H38.1437C40.1837 22.8827 41.2337 21.8327 41.2337 19.8227V8.5427C41.2337 6.5227 40.1837 5.4727 38.1437 5.4727H22.2037C20.1837 5.4727 19.1237 6.5127 19.1237 8.5427V19.8227C19.1237 21.8327 20.1837 22.8827 22.2037 22.8827ZM22.2337 20.9627C21.4237 20.9627 21.0537 20.6327 21.0537 19.7727V8.5727C21.0537 7.7427 21.4237 7.3827 22.2337 7.3827H38.1337C38.9137 7.3827 39.3037 7.7427 39.3037 8.5727V19.7727C39.3037 20.6327 38.9137 20.9627 38.1337 20.9627ZM26.6637 19.7527H33.7137C34.0837 19.7527 34.3437 19.5127 34.3437 19.1227C34.3437 18.7427 34.0837 18.4827 33.7137 18.4827H26.6637C26.2737 18.4827 26.0137 18.7427 26.0137 19.1227C26.0137 19.5127 26.2737 19.7527 26.6637 19.7527Z"
        fillRule="evenodd"
        clipRule="evenodd"
    />
</svg>
        