
<svg
    viewBox="0 0 38.076171875 22.421875"
    xmlns="http://www.w3.org/2000/svg"
>
    <path
        fill="inherit"
        d="M1.5437 22.2427H25.5637C25.1837 21.6327 24.9637 20.9027 24.9337 20.0527C24.9337 19.7427 24.9237 19.4427 24.9237 19.1227H6.7437V3.5127C6.7437 2.6427 7.1737 2.2027 8.0537 2.2027H34.7537C34.6537 0.7527 33.7737 0.0027 32.2537 0.0027H7.4637C5.6637 0.0027 4.5437 0.9827 4.5437 2.9027V19.1227H1.5437C0.6937 19.1227 0.0037 19.8227 0.0037 20.6827C0.0037 21.5427 0.6937 22.2427 1.5437 22.2427ZM29.1737 22.4227H35.4137C37.1037 22.4227 38.0737 21.4927 38.0737 19.8627V6.2527C38.0737 4.6227 37.0937 3.6827 35.4137 3.6827H29.1737C27.4837 3.6827 26.5137 4.6227 26.5137 6.2527V19.8627C26.5137 21.4927 27.4837 22.4227 29.1737 22.4227ZM29.2037 20.6327C28.6037 20.6327 28.3037 20.3027 28.3037 19.6827V6.4227C28.3037 5.7927 28.6037 5.4727 29.2037 5.4727H35.3737C35.9737 5.4727 36.2837 5.7927 36.2837 6.4227V19.6827C36.2837 20.3027 35.9737 20.6327 35.3737 20.6327ZM31.2037 7.4227H33.3437C33.7037 7.4227 33.9737 7.1327 33.9737 6.7827C33.9737 6.4427 33.7037 6.1627 33.3437 6.1627H31.2037C30.8337 6.1627 30.5737 6.4427 30.5737 6.7827C30.5737 7.1327 30.8337 7.4227 31.2037 7.4227ZM30.4237 19.9327H34.1437C34.4137 19.9327 34.6137 19.7427 34.6137 19.4527C34.6137 19.1827 34.4137 18.9927 34.1437 18.9927H30.4237C30.1437 18.9927 29.9737 19.1827 29.9737 19.4527C29.9737 19.7527 30.1337 19.9327 30.4237 19.9327Z"
        fillRule="evenodd"
        clipRule="evenodd"
    />
</svg>
        