
<svg
    viewBox="0 0 40.55078125 22.88671875"
    xmlns="http://www.w3.org/2000/svg"
>
    <path
        fill="inherit"
        d="M1.5437 22.2427H29.1337L29.0537 22.0227C28.1237 21.4227 27.3937 20.4427 27.1237 19.1227H6.7437V3.5127C6.7437 2.6427 7.1737 2.2027 8.0537 2.2027H31.3737C32.1337 2.2027 32.5537 2.5127 32.6637 3.1727H34.8937C34.8937 0.9727 33.8637 0.0027 31.9637 0.0027H7.4637C5.6637 0.0027 4.5437 0.9827 4.5437 2.9027V19.1227H1.5437C0.6937 19.1227 0.0037 19.8227 0.0037 20.6827C0.0037 21.5427 0.6937 22.2427 1.5437 22.2427ZM32.1337 22.8827H35.9937C36.5137 22.8827 36.9237 22.6827 37.1237 22.0527L37.3937 21.1627C37.5437 20.6727 37.7937 20.3427 38.2437 20.0927C39.0837 19.6627 39.7337 18.7727 39.7337 17.3327V13.3827H39.8237C40.2737 13.3827 40.5537 13.0727 40.5537 12.5827V11.4427C40.5537 10.9827 40.2737 10.6827 39.8237 10.6827H39.7337V10.6127C39.7337 9.1827 39.1037 8.3027 38.2437 7.8327C37.7737 7.5727 37.5437 7.2727 37.3937 6.7627L37.1237 5.8627C36.9537 5.2527 36.5137 5.0427 35.9937 5.0427H32.1337C31.6137 5.0427 31.1437 5.2527 30.9837 5.8627L30.7337 6.7627C30.5937 7.3027 30.2937 7.6027 29.8637 7.8327C29.0437 8.2727 28.4137 9.1827 28.4137 10.6127V17.3327C28.4137 18.7727 29.0237 19.6427 29.8637 20.0927C30.3137 20.3427 30.5937 20.6627 30.7337 21.1627L30.9837 22.0527C31.1537 22.6927 31.6137 22.8827 32.1337 22.8827ZM31.6537 18.6227C30.6237 18.6227 30.1437 18.1327 30.1437 17.0627V10.8427C30.1437 9.8027 30.6237 9.3127 31.6537 9.3127H36.4737C37.5137 9.3127 37.9637 9.8027 37.9637 10.8427V17.0627C37.9637 18.1327 37.4837 18.6227 36.4737 18.6227Z"
        fillRule="evenodd"
        clipRule="evenodd"
    />
</svg>
        