
<svg
    viewBox={0 0 39.4296875 28.015401868655378}
    xmlns="http://www.w3.org/2000/svg"
>
    <path
        fill="inherit"
        d="M31.8437 27.6957C32.2537 28.1257 32.9337 28.1257 33.3337 27.6957C33.7437 27.2857 33.7537 26.6357 33.3437 26.2057L7.4637 0.3157C7.0537 -0.0943 6.3737 -0.1143 5.9637 0.3157C5.5537 0.7057 5.5537 1.3957 5.9637 1.8057ZM16.8137 6.5157H22.2537C22.8137 6.5157 23.1737 6.1357 23.1737 5.5657V5.4157C23.1737 5.1757 23.2837 5.0857 23.5137 5.0857H31.3737C32.2537 5.0857 32.6937 5.5257 32.6937 6.3957V22.0057H31.4837L34.5937 25.1257H37.8837C38.7337 25.1257 39.4337 24.4257 39.4337 23.5657C39.4337 22.7057 38.7337 22.0057 37.8837 22.0057H34.8937V5.7857C34.8937 3.8657 33.8637 2.8857 31.9637 2.8857H12.3437L14.5437 5.0857H15.3837ZM23.8337 22.0057H6.7437V6.3957C6.7437 5.9057 6.9137 5.5757 7.2837 5.4357L5.4737 3.6257C4.8537 4.0457 4.5437 4.7657 4.5437 5.7857V22.0057H1.5437C0.6937 22.0057 0.0037 22.7057 0.0037 23.5657C0.0037 24.4257 0.6937 25.1257 1.5437 25.1257H26.9437Z"
        fillRule="evenodd"
        clipRule="evenodd"
    />
</svg>
        