
<svg
    viewBox="0 0 42.396484375 22.572265625"
    xmlns="http://www.w3.org/2000/svg"
>
    <path
        fill="inherit"
        d="M1.5437 22.2427H19.2537C18.4737 21.3827 17.8137 20.3327 17.4137 19.1227H6.7437V3.5127C6.7437 2.6427 7.1737 2.2027 8.0537 2.2027H31.3737C32.2537 2.2027 32.6937 2.6427 32.6937 3.5127V7.2727C33.4237 7.3027 34.1537 7.3427 34.8937 7.4227V2.9027C34.8937 0.9827 33.8637 0.0027 31.9637 0.0027H7.4637C5.6637 0.0027 4.5437 0.9827 4.5437 2.9027V19.1227H1.5437C0.6937 19.1227 0.0037 19.8227 0.0037 20.6827C0.0037 21.5427 0.6937 22.2427 1.5437 22.2427ZM30.5737 19.9727C31.8937 19.9727 33.5137 22.5727 36.7937 22.5727C39.9737 22.5727 42.3937 19.6827 42.3937 15.9427C42.3937 9.7927 36.9537 9.0927 30.5737 9.0927C24.1837 9.0927 18.7437 9.8027 18.7437 15.9427C18.7437 19.6827 21.1337 22.5727 24.3537 22.5727C27.6337 22.5727 29.2337 19.9727 30.5737 19.9727ZM30.5737 17.9227C27.9837 17.9227 26.9237 20.5127 24.3537 20.5127C22.1437 20.5127 20.8037 18.8827 20.8037 15.9427C20.8037 11.5927 24.4137 11.1527 30.5737 11.1527C36.7337 11.1527 40.3337 11.5827 40.3337 15.9427C40.3337 18.8827 38.9937 20.5127 36.7937 20.5127C34.2237 20.5127 33.1437 17.9227 30.5737 17.9227Z"
        fillRule="evenodd"
        clipRule="evenodd"
    />
</svg>
        