<svg viewBox="0 0 28.24609375 32.29296875" xmlns="http://www.w3.org/2000/svg"><path d="M0.0037 29.9139C0.0037 31.3539 0.8737 32.2939 2.2237 32.2939H5.1537C5.9637 32.2939 6.5537 31.8739 6.7837 31.1139L7.4537 28.8039H20.7937L21.4637 31.1139C21.6937 31.8739 22.3037 32.2939 23.1037 32.2939H26.0137C27.3737 32.2939 28.2437 31.3539 28.2437 29.9139V2.3739C28.2437 0.9439 27.3737 0.0039 26.0137 0.0039H23.1037C22.3037 0.0039 21.6937 0.4239 21.4637 1.1739L20.7937 3.4839H7.4537L6.7837 1.1739C6.5537 0.4239 5.9637 0.0039 5.1537 0.0039H2.2237C0.8737 0.0039 0.0037 0.9439 0.0037 2.3739ZM14.2737 12.7739C14.2037 12.7739 14.1637 12.7539 14.1337 12.7239C14.1237 12.7139 14.1237 12.6339 14.1237 12.5539C14.1237 12.0039 14.3737 11.4439 14.6837 11.1039C15.0837 10.6639 15.7237 10.3239 16.2537 10.3039C16.2737 10.3639 16.2737 10.4339 16.2737 10.5139C16.2737 11.0639 16.0337 11.6039 15.7237 12.0039C15.3637 12.4439 14.7537 12.7739 14.2737 12.7739ZM12.5737 20.9039C11.9237 20.9039 11.4737 20.2939 10.9537 19.5539C10.3337 18.6739 9.8437 17.3339 9.8437 16.0539C9.8437 13.9739 11.1737 12.8939 12.4937 12.8939C13.2037 12.8939 13.7637 13.3439 14.2037 13.3439C14.6337 13.3439 15.2837 12.8639 16.0737 12.8639C16.3937 12.8639 17.4637 12.8939 18.1837 13.9139C18.1137 13.9639 17.0337 14.5839 17.0337 15.9439C17.0337 17.5139 18.4137 18.0639 18.4537 18.0739C18.4437 18.1239 18.2537 18.8539 17.7337 19.5939C17.2837 20.2239 16.8037 20.9039 16.0737 20.9039C15.3637 20.9039 15.1637 20.4839 14.3237 20.4839C13.5537 20.4839 13.2337 20.9039 12.5737 20.9039Z" /></svg>