
<svg
    viewBox={0 0 28.24609375 34.357421875}
    xmlns="http://www.w3.org/2000/svg"
>
    <path
        fill="inherit"
        d="M4.2937 30.2923H5.1437V32.2823H3.6737C3.1137 32.2823 2.6537 32.7423 2.6537 33.3223C2.6537 33.8923 3.1137 34.3623 3.6737 34.3623H8.6637C9.2437 34.3623 9.6937 33.8923 9.6937 33.3223C9.6937 32.7423 9.2437 32.2823 8.6637 32.2823H7.2037V30.2923H21.0437V32.2823H19.5737C19.0137 32.2823 18.5537 32.7423 18.5537 33.3223C18.5537 33.8923 19.0137 34.3623 19.5737 34.3623H24.5637C25.1437 34.3623 25.5937 33.8923 25.5937 33.3223C25.5937 32.7423 25.1437 32.2823 24.5637 32.2823H23.1037V30.2923H23.9537C26.8137 30.2923 28.2437 28.8723 28.2437 26.0723V8.1223C28.2437 5.2923 26.8137 3.8823 23.9537 3.8823H23.1037V1.0223C23.1037 0.4623 22.6537 0.0023 22.0837 0.0023C21.4937 0.0023 21.0437 0.4623 21.0437 1.0223V3.8823H7.2037V1.0223C7.2037 0.4623 6.7537 0.0023 6.1837 0.0023C5.6037 0.0023 5.1437 0.4623 5.1437 1.0223V3.8823H4.2937C1.4237 3.8823 0.0037 5.2923 0.0037 8.1223V26.0723C0.0037 28.8923 1.4237 30.2923 4.2937 30.2923ZM14.2737 13.7223C14.2037 13.7223 14.1637 13.7023 14.1337 13.6723C14.1237 13.6623 14.1237 13.5723 14.1237 13.4923C14.1237 12.9423 14.3537 12.3823 14.6737 12.0423C15.0837 11.6123 15.7137 11.2823 16.2437 11.2523C16.2737 11.3023 16.2737 11.3723 16.2737 11.4523C16.2737 12.0223 16.0337 12.5523 15.7137 12.9423C15.3637 13.3823 14.7337 13.7223 14.2737 13.7223ZM12.5737 21.8523C11.9237 21.8523 11.4737 21.2323 10.9537 20.5123C10.3237 19.6323 9.8437 18.2823 9.8437 16.9923C9.8437 14.9123 11.1737 13.8323 12.4937 13.8323C13.1937 13.8323 13.7637 14.3023 14.2037 14.3023C14.6337 14.3023 15.2737 13.8123 16.0637 13.8123C16.3837 13.8123 17.4637 13.8323 18.1837 14.8623C18.1137 14.9023 17.0337 15.5323 17.0337 16.9023C17.0337 18.4523 18.4137 19.0023 18.4537 19.0323C18.4337 19.0723 18.2537 19.7923 17.7337 20.5323C17.2837 21.1823 16.8037 21.8523 16.0637 21.8523C15.3637 21.8523 15.1637 21.4223 14.3237 21.4223C13.5537 21.4223 13.2337 21.8523 12.5737 21.8523Z"
        fillRule="evenodd"
        clipRule="evenodd"
    />
</svg>
        