
<svg
    viewBox="0 0 28.24609375 32.29296875"
    xmlns="http://www.w3.org/2000/svg"
>
    <path
        fill="inherit"
        d="M2.7637 32.2939H4.7437C5.8537 32.2939 6.5737 31.7739 6.8737 30.7439L7.4537 28.8039H20.7937L21.3737 30.7439C21.6737 31.7739 22.4037 32.2939 23.5137 32.2939H25.4937C27.2737 32.2939 28.2437 31.2639 28.2437 29.3939V2.8939C28.2437 1.0239 27.2737 0.0039 25.4937 0.0039H23.5137C22.4037 0.0039 21.6737 0.5239 21.3737 1.5439L20.7937 3.4839H7.4537L6.8737 1.5439C6.5737 0.5239 5.8537 0.0039 4.7437 0.0039H2.7637C0.9837 0.0039 0.0037 1.0239 0.0037 2.8939V29.3939C0.0037 31.2639 0.9837 32.2939 2.7637 32.2939ZM2.8937 30.0939C2.4637 30.0939 2.2037 29.8139 2.2037 29.3839V2.9139C2.2037 2.4739 2.4637 2.2039 2.8937 2.2039H4.4037C4.6437 2.2039 4.8637 2.3539 4.9537 2.6139L5.5937 4.8139C5.7737 5.4039 6.1137 5.6839 6.8337 5.6839H21.4237C22.1337 5.6839 22.4737 5.4039 22.6537 4.8139L23.2937 2.6139C23.3837 2.3539 23.5937 2.2039 23.8437 2.2039H25.3437C25.7837 2.2039 26.0437 2.4739 26.0437 2.9139V29.3839C26.0437 29.8139 25.7837 30.0939 25.3437 30.0939H23.8437C23.5937 30.0939 23.3837 29.9439 23.2937 29.6839L22.6537 27.4639C22.4737 26.8939 22.1337 26.6039 21.4237 26.6039H6.8337C6.1137 26.6039 5.7737 26.8939 5.5937 27.4639L4.9537 29.6839C4.8637 29.9439 4.6437 30.0939 4.4037 30.0939ZM14.2737 12.8539C14.7337 12.8539 15.3237 12.5339 15.6637 12.1139C15.9837 11.7339 16.2037 11.1939 16.2037 10.6739C16.2037 10.5939 16.2037 10.5239 16.1837 10.4739C15.6637 10.4839 15.0537 10.8139 14.6737 11.2339C14.3737 11.5839 14.1237 12.1139 14.1237 12.6439C14.1237 12.7239 14.1237 12.8139 14.1337 12.8239C14.1637 12.8539 14.2037 12.8539 14.2737 12.8539ZM12.6337 20.7439C13.2637 20.7439 13.5637 20.3339 14.3237 20.3339C15.1337 20.3339 15.3237 20.7439 16.0237 20.7439C16.7237 20.7439 17.1837 20.0739 17.6237 19.4639C18.1337 18.7539 18.3037 18.0439 18.3237 17.9939C18.2837 17.9739 16.9537 17.4639 16.9537 15.9239C16.9537 14.6139 17.9937 14.0139 18.0637 13.9739C17.3537 12.9739 16.3237 12.9439 16.0237 12.9439C15.2437 12.9439 14.6137 13.4139 14.2037 13.4139C13.7837 13.4139 13.2337 12.9739 12.5537 12.9739C11.2637 12.9739 9.9837 14.0239 9.9837 16.0339C9.9837 17.2839 10.4637 18.5839 11.0437 19.4239C11.5537 20.1339 11.9937 20.7439 12.6337 20.7439Z"
        fillRule="evenodd"
        clipRule="evenodd"
    />
</svg>
        