<svg viewBox="0 0 34.78125 21.232421875" xmlns="http://www.w3.org/2000/svg"><path d="M4.2937 21.2341H30.4837C33.3437 21.2341 34.7837 19.8141 34.7837 16.9941V4.2341C34.7837 1.4241 33.3437 0.0041 30.4837 0.0041H4.2937C1.4237 0.0041 0.0037 1.4241 0.0037 4.2341V16.9941C0.0037 19.8141 1.4237 21.2341 4.2937 21.2341ZM4.3237 19.0341C2.9537 19.0341 2.2037 18.2941 2.2037 16.8741V4.3641C2.2037 2.9441 2.9537 2.2041 4.3237 2.2041H30.4637C31.8237 2.2041 32.5837 2.9441 32.5837 4.3641V16.8741C32.5837 18.2941 31.8137 19.0341 30.4637 19.0341ZM5.7537 16.7241C6.3437 16.7241 6.8037 16.2441 6.8037 15.6441V5.5341C6.8037 4.9641 6.3437 4.4841 5.7537 4.4841C5.1537 4.4841 4.6937 4.9641 4.6937 5.5341V15.6441C4.6937 16.2441 5.1537 16.7241 5.7537 16.7241ZM28.9837 16.7241C29.5737 16.7241 30.0537 16.2441 30.0537 15.6441V5.5341C30.0537 4.9641 29.5737 4.4841 28.9837 4.4841C28.3937 4.4841 27.9137 4.9641 27.9137 5.5341V15.6441C27.9137 16.2441 28.3937 16.7241 28.9837 16.7241ZM10.0337 7.5341C10.6537 7.5341 11.1437 7.0241 11.1437 6.4241C11.1437 5.8141 10.6537 5.3041 10.0337 5.3041C9.4337 5.3041 8.9137 5.8141 8.9137 6.4241C8.9137 7.0241 9.4337 7.5341 10.0337 7.5341ZM13.7137 7.5341C14.3137 7.5341 14.8237 7.0241 14.8237 6.4241C14.8237 5.8141 14.3137 5.3041 13.7137 5.3041C13.0937 5.3041 12.5937 5.8141 12.5937 6.4241C12.5937 7.0241 13.0937 7.5341 13.7137 7.5341ZM17.3937 7.5341C17.9937 7.5341 18.4937 7.0241 18.4937 6.4241C18.4937 5.8141 17.9937 5.3041 17.3937 5.3041C16.7737 5.3041 16.2737 5.8141 16.2737 6.4241C16.2737 7.0241 16.7737 7.5341 17.3937 7.5341ZM21.0537 7.5341C21.6437 7.5341 22.1437 7.0241 22.1437 6.4241C22.1437 5.8141 21.6437 5.3041 21.0537 5.3041C20.4437 5.3041 19.9437 5.8141 19.9437 6.4241C19.9437 7.0241 20.4437 7.5341 21.0537 7.5341ZM24.7037 7.5341C25.3037 7.5341 25.8137 7.0241 25.8137 6.4241C25.8137 5.8141 25.3037 5.3041 24.7037 5.3041C24.0937 5.3041 23.5937 5.8141 23.5937 6.4241C23.5937 7.0241 24.0937 7.5341 24.7037 7.5341ZM11.8637 11.7141C12.4837 11.7141 12.9737 11.2141 12.9737 10.5941C12.9737 9.9841 12.4837 9.4741 11.8637 9.4741C11.2637 9.4741 10.7637 9.9841 10.7637 10.5941C10.7637 11.2141 11.2637 11.7141 11.8637 11.7141ZM15.5437 11.7141C16.1637 11.7141 16.6537 11.2141 16.6537 10.5941C16.6537 9.9841 16.1637 9.4741 15.5437 9.4741C14.9337 9.4741 14.4237 9.9841 14.4237 10.5941C14.4237 11.2141 14.9337 11.7141 15.5437 11.7141ZM19.2137 11.7141C19.8137 11.7141 20.3137 11.2141 20.3137 10.5941C20.3137 9.9841 19.8137 9.4741 19.2137 9.4741C18.6037 9.4741 18.1037 9.9841 18.1037 10.5941C18.1037 11.2141 18.6037 11.7141 19.2137 11.7141ZM22.8737 11.7141C23.4637 11.7141 23.9637 11.2141 23.9637 10.5941C23.9637 9.9841 23.4637 9.4741 22.8737 9.4741C22.2537 9.4741 21.7637 9.9841 21.7637 10.5941C21.7637 11.2141 22.2537 11.7141 22.8737 11.7141ZM10.0337 15.9041C10.6537 15.9041 11.1437 15.3941 11.1437 14.7841C11.1437 14.1741 10.6537 13.6541 10.0337 13.6541C9.4337 13.6541 8.9137 14.1741 8.9137 14.7841C8.9137 15.3941 9.4337 15.9041 10.0337 15.9041ZM13.7137 15.9041C14.3137 15.9041 14.8237 15.3941 14.8237 14.7841C14.8237 14.1741 14.3137 13.6541 13.7137 13.6541C13.0937 13.6541 12.5937 14.1741 12.5937 14.7841C12.5937 15.3941 13.0937 15.9041 13.7137 15.9041ZM17.3937 15.9041C17.9937 15.9041 18.4937 15.3941 18.4937 14.7841C18.4937 14.1741 17.9937 13.6541 17.3937 13.6541C16.7737 13.6541 16.2737 14.1741 16.2737 14.7841C16.2737 15.3941 16.7737 15.9041 17.3937 15.9041ZM21.0537 15.9041C21.6437 15.9041 22.1437 15.3941 22.1437 14.7841C22.1437 14.1741 21.6437 13.6541 21.0537 13.6541C20.4437 13.6541 19.9437 14.1741 19.9437 14.7841C19.9437 15.3941 20.4437 15.9041 21.0537 15.9041ZM24.7037 15.9041C25.3037 15.9041 25.8137 15.3941 25.8137 14.7841C25.8137 14.1741 25.3037 13.6541 24.7037 13.6541C24.0937 13.6541 23.5937 14.1741 23.5937 14.7841C23.5937 15.3941 24.0937 15.9041 24.7037 15.9041Z" /></svg>