
<svg
    viewBox="0 0 28.24609375 34.357421875"
    xmlns="http://www.w3.org/2000/svg"
>
    <path
        fill="inherit"
        d="M4.2937 30.2923H5.1437V32.2823H3.6737C3.1137 32.2823 2.6537 32.7423 2.6537 33.3223C2.6537 33.8923 3.1137 34.3623 3.6737 34.3623H8.6637C9.2437 34.3623 9.6937 33.8923 9.6937 33.3223C9.6937 32.7423 9.2437 32.2823 8.6637 32.2823H7.2037V30.2923H21.0437V32.2823H19.5737C19.0137 32.2823 18.5537 32.7423 18.5537 33.3223C18.5537 33.8923 19.0137 34.3623 19.5737 34.3623H24.5637C25.1437 34.3623 25.5937 33.8923 25.5937 33.3223C25.5937 32.7423 25.1437 32.2823 24.5637 32.2823H23.1037V30.2923H23.9537C26.8137 30.2923 28.2437 28.8723 28.2437 26.0723V8.1223C28.2437 5.2923 26.8137 3.8823 23.9537 3.8823H23.1037V1.0223C23.1037 0.4623 22.6537 0.0023 22.0837 0.0023C21.4937 0.0023 21.0437 0.4623 21.0437 1.0223V3.8823H7.2037V1.0223C7.2037 0.4623 6.7537 0.0023 6.1837 0.0023C5.6037 0.0023 5.1437 0.4623 5.1437 1.0223V3.8823H4.2937C1.4237 3.8823 0.0037 5.2923 0.0037 8.1223V26.0723C0.0037 28.8923 1.4237 30.2923 4.2937 30.2923ZM4.3237 28.0923C2.9537 28.0923 2.2037 27.3723 2.2037 25.9523V8.2323C2.2037 6.8123 2.9537 6.0823 4.3237 6.0823H23.9237C25.2937 6.0823 26.0437 6.8123 26.0437 8.2323V25.9523C26.0437 27.3723 25.2837 28.0923 23.9237 28.0923ZM14.2737 13.8123C14.7237 13.8123 15.3237 13.4823 15.6537 13.0523C15.9837 12.6723 16.2037 12.1523 16.2037 11.6223C16.2037 11.5423 16.2037 11.4723 16.1737 11.4123C15.6537 11.4423 15.0537 11.7623 14.6537 12.1823C14.3537 12.5223 14.1237 13.0523 14.1237 13.5923C14.1237 13.6723 14.1237 13.7523 14.1337 13.7723C14.1637 13.7923 14.2037 13.8123 14.2737 13.8123ZM12.6337 21.6823C13.2637 21.6823 13.5637 21.2723 14.3237 21.2723C15.1337 21.2723 15.3237 21.6823 16.0137 21.6823C16.7237 21.6823 17.1837 21.0323 17.6237 20.4123C18.1337 19.7023 18.2937 18.9923 18.3237 18.9523C18.2837 18.9223 16.9437 18.4023 16.9437 16.8823C16.9437 15.5623 17.9937 14.9523 18.0637 14.9123C17.3537 13.9223 16.3137 13.8923 16.0137 13.8923C15.2337 13.8923 14.6137 14.3723 14.2037 14.3723C13.7837 14.3723 13.2237 13.9223 12.5537 13.9223C11.2637 13.9223 9.9837 14.9723 9.9837 16.9823C9.9837 18.2223 10.4437 19.5323 11.0437 20.3823C11.5537 21.0823 11.9937 21.6823 12.6337 21.6823Z"
        fillRule="evenodd"
        clipRule="evenodd"
    />
</svg>
        