
<svg
    viewBox="0 0 34.015625 27.69921875"
    xmlns="http://www.w3.org/2000/svg"
>
    <path
        fill="inherit"
        d="M4.2937 21.3707H6.7537V23.4607C6.7537 26.2907 8.1737 27.7007 11.0437 27.7007H29.7237C32.5637 27.7007 34.0137 26.2807 34.0137 23.4607V10.5707C34.0137 7.7507 32.5637 6.3307 29.7237 6.3307H27.2637V4.2407C27.2637 1.4207 25.8137 0.0007 22.9737 0.0007H4.2937C1.4237 0.0007 0.0037 1.4207 0.0037 4.2407V17.1307C0.0037 19.9607 1.4237 21.3707 4.2937 21.3707ZM4.3237 19.1707C2.9537 19.1707 2.2037 18.4407 2.2037 17.0207V4.3607C2.2037 2.9407 2.9537 2.2007 4.3237 2.2007H22.9237C24.2837 2.2007 25.0637 2.9407 25.0637 4.3607V6.3307H11.0437C8.1737 6.3307 6.7537 7.7507 6.7537 10.5707V19.1707ZM11.0837 11.0107C10.4137 11.0107 9.8737 10.4207 9.8737 9.7907C9.8737 9.1307 10.4137 8.5607 11.0837 8.5607C11.7537 8.5607 12.3037 9.1307 12.3037 9.7907C12.3037 10.4207 11.7537 11.0107 11.0837 11.0107ZM15.0137 11.0107C14.3437 11.0107 13.7937 10.4307 13.7937 9.7907C13.7937 9.1307 14.3437 8.5607 15.0137 8.5607C15.6837 8.5607 16.2237 9.1307 16.2237 9.7907C16.2237 10.4307 15.6837 11.0107 15.0137 11.0107ZM18.9337 11.0107C18.2637 11.0107 17.7237 10.4307 17.7237 9.7907C17.7237 9.1307 18.2637 8.5607 18.9337 8.5607C19.6037 8.5607 20.1537 9.1307 20.1537 9.7907C20.1537 10.4307 19.6037 11.0107 18.9337 11.0107ZM8.9537 13.2307H31.8137V23.3507C31.8137 24.7707 31.0337 25.5007 29.6837 25.5007H11.0737C9.7037 25.5007 8.9537 24.7707 8.9537 23.3507Z"
        fillRule="evenodd"
        clipRule="evenodd"
    />
</svg>
        