
<svg
    viewBox="0 0 23.939453125 32.046875"
    xmlns="http://www.w3.org/2000/svg"
>
    <path
        fill="inherit"
        d="M21.9037 29.9645C23.5437 29.1845 23.9437 28.4645 23.9437 26.7745V5.7845C23.9437 3.5645 22.9537 2.5545 20.8237 2.5545H19.5337V2.0145C19.5337 0.6545 18.8537 0.0045 17.6537 0.0045C17.2437 0.0045 16.7437 0.0945 16.1637 0.2845C12.0337 1.6445 8.2537 2.5045 3.4137 2.5045H2.3237C0.8437 2.5045 0.0037 3.3645 0.0037 4.7045V28.1645C0.0037 29.2345 0.2337 29.8745 1.2437 30.3645C3.5837 31.3745 7.0837 32.0445 10.6737 32.0445C14.5037 32.0445 18.8137 31.4745 21.9037 29.9645ZM2.2037 27.1345V5.2945C2.2037 4.9045 2.4037 4.6745 2.7637 4.6745H3.5137C8.3037 4.6745 12.7737 3.7145 16.5837 2.5145C17.0537 2.3645 17.3337 2.4845 17.3337 2.9145V23.3345C17.3337 24.0745 17.2437 24.3745 16.5437 24.8245C13.7037 26.7245 9.0937 27.9045 2.6837 27.6345C2.3337 27.6145 2.2037 27.4645 2.2037 27.1345ZM18.2837 26.2545C19.2537 25.5145 19.5337 25.0145 19.5337 23.8145V4.7545H20.8337C21.4337 4.7545 21.7337 5.0845 21.7337 5.7845V26.6145C21.7337 27.4345 21.6137 27.7445 20.8337 28.0845C18.1137 29.2745 14.2837 30.0345 10.6737 30.0345C8.9537 30.0345 7.2837 29.9445 5.5937 29.7245C10.9537 29.5845 15.9237 28.0445 18.2837 26.2545ZM4.9937 8.2845V12.7645C4.9937 12.9845 5.1437 13.0845 5.3137 13.0845C8.5337 13.0845 11.7837 12.5145 14.2437 11.5245C14.3737 11.4745 14.4337 11.3445 14.4337 11.2245V6.5445C14.4337 6.2345 14.1537 6.1645 14.0037 6.2345C11.1737 7.2645 8.4037 7.8045 5.3137 7.9345C5.1237 7.9445 4.9937 8.0945 4.9937 8.2845Z"
        fillRule="evenodd"
        clipRule="evenodd"
    />
</svg>
        