<svg viewBox="0 0 23.939453125 32.046875" xmlns="http://www.w3.org/2000/svg"><path d="M0.0037 28.1645C0.0037 29.2345 0.2337 29.8745 1.2437 30.3645C3.5837 31.3745 6.8037 32.0445 10.6737 32.0445C14.5037 32.0445 18.8137 31.4745 21.9037 29.9645C23.5437 29.1845 23.9437 28.4645 23.9437 26.7745V5.7845C23.9437 3.5645 22.9537 2.5545 20.8237 2.5545H19.5337V2.0145C19.5337 0.6545 18.8537 0.0045 17.6537 0.0045C17.2437 0.0045 16.7437 0.0945 16.1637 0.2845C12.0337 1.6445 8.2537 2.5045 3.4137 2.5045H2.3237C0.8437 2.5045 0.0037 3.3645 0.0037 4.7045ZM5.5537 29.7045C10.9237 29.5545 15.9137 28.0545 18.6237 25.9945C19.2537 25.5145 19.5337 25.0145 19.5337 23.8145V4.7545H20.8337C21.4337 4.7545 21.7337 5.0845 21.7337 5.7845V26.6145C21.7337 27.4345 21.6137 27.7445 20.8337 28.0845C18.1137 29.2745 14.2837 30.0345 10.6737 30.0345C8.9537 30.0345 7.3237 29.9445 5.5537 29.7045ZM4.8537 12.8645V8.2445C4.8537 8.0545 4.9937 7.8845 5.1837 7.8745C8.3637 7.7545 11.2137 7.1945 14.1237 6.1245C14.2837 6.0545 14.5737 6.1245 14.5737 6.4545V11.2745C14.5737 11.4045 14.5037 11.5245 14.3837 11.5645C11.8437 12.6045 8.4937 13.1945 5.1837 13.1945C5.0037 13.1945 4.8537 13.0845 4.8537 12.8645Z" /></svg>