
<svg
    viewBox={0 0 16.82013180859921 30.912109375}
    xmlns="http://www.w3.org/2000/svg"
>
    <path
        fill="inherit"
        d="M8.4055 30.914C13.1655 30.914 16.0155 28.614 16.4455 23.954C16.9555 18.384 16.9455 12.744 16.4255 6.704C16.0255 2.314 13.1655 0.004 8.4055 0.004C3.6555 0.004 0.7955 2.314 0.3955 6.704C-0.1245 12.744 -0.1345 18.384 0.3755 23.954C0.8055 28.614 3.6555 30.914 8.4055 30.914ZM8.4055 28.714C4.9355 28.714 2.8755 27.234 2.5755 23.954C2.0755 18.374 2.0955 12.724 2.5955 6.704C2.8555 3.674 4.9355 2.204 8.4055 2.204C11.8855 2.204 13.9655 3.674 14.2255 6.704C14.7255 12.724 14.7355 18.374 14.2455 23.954C13.9455 27.234 11.8855 28.714 8.4055 28.714ZM9.3355 20.244C8.8155 20.244 8.3055 20.764 8.3055 21.464C8.9155 21.504 9.4455 20.824 9.3355 20.244ZM8.4055 25.284C8.8355 25.284 8.9155 25.484 9.2555 25.484C9.6255 25.484 9.8555 25.154 10.0755 24.844C10.3355 24.474 10.4355 24.114 10.4355 24.104C10.4155 24.094 9.7355 23.814 9.7355 23.034C9.7355 22.354 10.2655 22.064 10.3055 22.024C9.9655 21.534 9.4255 21.534 9.2555 21.534C8.8755 21.534 8.5555 21.754 8.3555 21.754C8.1255 21.754 7.8355 21.534 7.4955 21.534C6.8555 21.534 6.1855 22.084 6.1855 23.094C6.1855 23.744 6.4255 24.394 6.7255 24.814C6.9855 25.194 7.2255 25.484 7.5455 25.484C7.8755 25.484 8.0155 25.284 8.4055 25.284Z"
        fillRule="evenodd"
        clipRule="evenodd"
    />
</svg>
        