
<svg
    viewBox={0 0 16.82013180859921 30.912109375}
    xmlns="http://www.w3.org/2000/svg"
>
    <path
        fill="inherit"
        d="M8.4055 30.914C13.1655 30.914 16.0155 28.614 16.4455 23.954C16.9555 18.384 16.9455 12.744 16.4255 6.704C16.0255 2.314 13.1655 0.004 8.4055 0.004C3.6555 0.004 0.7955 2.314 0.3955 6.704C-0.1245 12.744 -0.1345 18.384 0.3755 23.954C0.8055 28.614 3.6555 30.914 8.4055 30.914ZM8.2755 21.414C8.2755 20.674 8.8055 20.124 9.3655 20.124C9.4755 20.744 8.9255 21.434 8.2755 21.414ZM8.3955 25.384C7.9755 25.384 7.8255 25.604 7.4755 25.604C7.1355 25.604 6.9155 25.294 6.6455 24.914C6.3155 24.444 6.0755 23.764 6.0755 23.104C6.0755 22.044 6.7655 21.494 7.4555 21.494C7.7855 21.494 8.0455 21.714 8.3255 21.714C8.6155 21.714 8.8655 21.494 9.2955 21.494C9.4455 21.494 10.0055 21.494 10.3655 21.994C10.3355 22.024 9.7955 22.344 9.7955 23.054C9.7955 23.844 10.4855 24.114 10.5055 24.144C10.5055 24.154 10.4055 24.544 10.1355 24.924C9.8955 25.264 9.6555 25.604 9.2955 25.604C8.9255 25.604 8.8155 25.384 8.3955 25.384Z"
        fillRule="evenodd"
        clipRule="evenodd"
    />
</svg>
        