
<svg
    viewBox={0 0 27.890625 27.890625}
    xmlns="http://www.w3.org/2000/svg"
>
    <path
        fill="inherit"
        d="M13.9427 27.8864C21.6427 27.8864 27.8927 21.6464 27.8927 13.9464C27.8927 6.2464 21.6427 -0.0036 13.9427 -0.0036C6.2527 -0.0036 0.0027 6.2464 0.0027 13.9464C0.0027 21.6464 6.2527 27.8864 13.9427 27.8864ZM13.9427 25.5664C7.5227 25.5664 2.3227 20.3664 2.3227 13.9464C2.3227 7.5164 7.5227 2.3264 13.9427 2.3264C20.3727 2.3264 25.5627 7.5164 25.5627 13.9464C25.5627 20.3664 20.3727 25.5664 13.9427 25.5664ZM12.4527 18.0564C13.5627 18.0564 14.6027 17.7364 15.4727 17.1864L18.9727 20.6764C19.2527 20.9564 19.5527 21.0864 19.9427 21.0864C20.6027 21.0864 21.0527 20.6064 21.0527 19.9164C21.0527 19.6064 20.9027 19.3164 20.6827 19.0864L17.1627 15.5464C17.7727 14.6464 18.1427 13.5464 18.1427 12.3764C18.1427 9.2464 15.5827 6.6864 12.4527 6.6864C9.3227 6.6864 6.7627 9.2564 6.7627 12.3764C6.7627 15.4864 9.3227 18.0564 12.4527 18.0564ZM12.4527 16.1964C10.3627 16.1964 8.6227 14.4664 8.6227 12.3764C8.6227 10.2764 10.3627 8.5464 12.4527 8.5464C14.5427 8.5464 16.2727 10.2664 16.2727 12.3764C16.2727 14.4664 14.5427 16.1964 12.4527 16.1964Z"
        fillRule="evenodd"
        clipRule="evenodd"
    />
</svg>
        