
<svg
    viewBox={0 0 27.890625 27.890625}
    xmlns="http://www.w3.org/2000/svg"
>
    <path
        fill="inherit"
        d="M13.9427 27.8864C21.6427 27.8864 27.8927 21.6264 27.8927 13.9464C27.8927 6.2464 21.6427 -0.0036 13.9427 -0.0036C6.2627 -0.0036 0.0027 6.2464 0.0027 13.9464C0.0027 21.6264 6.2627 27.8864 13.9427 27.8864ZM12.4327 18.1964C9.2027 18.1964 6.5627 15.5464 6.5627 12.3364C6.5627 9.1064 9.2027 6.4564 12.4327 6.4564C15.6527 6.4564 18.2927 9.0964 18.2927 12.3364C18.2927 13.5364 17.9127 14.6664 17.2827 15.5864L20.9027 19.2364C21.1327 19.4864 21.2827 19.7864 21.2827 20.0964C21.2827 20.8064 20.8227 21.3164 20.1427 21.3164C19.7327 21.3164 19.4327 21.1764 19.1427 20.8764L15.5327 17.2764C14.6327 17.8464 13.5627 18.1964 12.4327 18.1964ZM12.4327 16.2664C14.5727 16.2664 16.3527 14.4764 16.3527 12.3364C16.3527 10.1564 14.5727 8.3764 12.4327 8.3764C10.2627 8.3764 8.4927 10.1764 8.4927 12.3364C8.4927 14.4764 10.2627 16.2664 12.4327 16.2664Z"
        fillRule="evenodd"
        clipRule="evenodd"
    />
</svg>
        