<svg viewBox="0 0 19.4140625 28.0546875" xmlns="http://www.w3.org/2000/svg"><path d="M3.8037 28.0584H15.6137C17.8937 28.0584 19.4137 26.6084 19.4137 24.4584V3.5984C19.4137 1.4384 17.8937 -0.0016 15.6137 -0.0016H3.8037C1.5137 -0.0016 0.0037 1.4384 0.0037 3.5984V24.4584C0.0037 26.6084 1.5137 28.0584 3.8037 28.0584ZM4.0737 25.8584C2.9437 25.8584 2.2037 25.1584 2.2037 24.1084V3.9484C2.2037 2.8984 2.9437 2.1984 4.0737 2.1984H15.3437C16.4737 2.1984 17.2137 2.8984 17.2137 3.9484V24.1084C17.2137 25.1584 16.4737 25.8584 15.3437 25.8584ZM9.7237 16.1184C13.1637 16.1184 15.9837 13.3184 15.9837 9.8584C15.9837 6.3884 13.1637 3.5784 9.7237 3.5784C6.2437 3.5784 3.4437 6.3884 3.4437 9.8584C3.4437 13.3184 6.2437 16.1184 9.7237 16.1184ZM9.7237 14.3984C7.1937 14.3984 5.1637 12.3684 5.1637 9.8584C5.1637 7.3284 7.1937 5.3084 9.7237 5.3084C12.2237 5.3084 14.2637 7.3384 14.2637 9.8584C14.2637 12.3684 12.2237 14.3984 9.7237 14.3984ZM9.7237 22.8584C10.2137 22.8584 10.6137 22.4484 10.6137 21.9584V19.3484C10.6137 18.8584 10.2137 18.4384 9.7237 18.4384C9.2237 18.4384 8.8137 18.8584 8.8137 19.3484V21.9584C8.8137 22.4484 9.2237 22.8584 9.7237 22.8584Z" /></svg>