
<svg
    viewBox="0 0 19.4140625 28.0546875"
    xmlns="http://www.w3.org/2000/svg"
>
    <path
        fill="inherit"
        d="M3.8037 28.0584H15.6137C17.8937 28.0584 19.4137 26.6084 19.4137 24.4584V3.5984C19.4137 1.4384 17.8937 -0.0016 15.6137 -0.0016H3.8037C1.5137 -0.0016 0.0037 1.4384 0.0037 3.5984V24.4584C0.0037 26.6084 1.5137 28.0584 3.8037 28.0584ZM9.7237 16.6684C5.6837 16.6684 2.4237 13.3884 2.4237 9.3684C2.4237 5.3484 5.6837 2.0784 9.7237 2.0784C13.7237 2.0784 17.0037 5.3484 17.0037 9.3684C17.0037 13.3884 13.7237 16.6684 9.7237 16.6684ZM9.7237 14.9384C12.7837 14.9384 15.2837 12.4384 15.2837 9.3684C15.2837 6.2884 12.7837 3.7984 9.7237 3.7984C6.6337 3.7984 4.1437 6.2884 4.1437 9.3684C4.1437 12.4384 6.6337 14.9384 9.7237 14.9384ZM9.7237 23.3284C9.2237 23.3284 8.8137 22.9284 8.8137 22.4384V19.8084C8.8137 19.3184 9.2237 18.9184 9.7237 18.9184C10.2137 18.9184 10.6137 19.3184 10.6137 19.8084V22.4384C10.6137 22.9284 10.2137 23.3284 9.7237 23.3284Z"
        fillRule="evenodd"
        clipRule="evenodd"
    />
</svg>
        