
<svg
    viewBox={0 0 28.642578125 30.26953125}
    xmlns="http://www.w3.org/2000/svg"
>
    <path
        fill="inherit"
        d="M5.7037 1.7595H22.9537C22.8737 0.5995 22.2137 -0.0005 20.9437 -0.0005H7.6937C6.4437 -0.0005 5.7837 0.5995 5.7037 1.7595ZM2.8837 5.5495H25.7737C25.5637 4.3095 24.9737 3.6195 23.6137 3.6195H5.0437C3.6737 3.6195 3.0937 4.3095 2.8837 5.5495ZM4.2937 30.2695H24.3537C27.1937 30.2695 28.6437 28.8495 28.6437 26.0295V11.9895C28.6437 9.1695 27.1937 7.7495 24.3537 7.7495H4.2937C1.4237 7.7495 0.0037 9.1695 0.0037 11.9895V26.0295C0.0037 28.8495 1.4237 30.2695 4.2937 30.2695ZM4.3237 28.0695C2.9537 28.0695 2.2037 27.3295 2.2037 25.9095V12.1095C2.2037 10.6895 2.9537 9.9495 4.3237 9.9495H24.3037C25.6637 9.9495 26.4437 10.6895 26.4437 12.1095V25.9095C26.4437 27.3295 25.6637 28.0695 24.3037 28.0695ZM20.6337 19.0895C22.3937 19.0895 23.8337 17.6495 23.8337 15.8595C23.8337 14.0695 22.3937 12.6295 20.6337 12.6295C18.8437 12.6295 17.3937 14.0695 17.3937 15.8595C17.3937 17.6495 18.8437 19.0895 20.6337 19.0895ZM5.7237 15.1395H14.4137C14.9337 15.1395 15.3437 14.7095 15.3437 14.1895C15.3437 13.6695 14.9337 13.2495 14.4137 13.2495H5.7237C5.1837 13.2495 4.7837 13.6695 4.7837 14.1895C4.7837 14.7095 5.1837 15.1395 5.7237 15.1395ZM5.7237 18.7195H11.9237C12.4437 18.7195 12.8637 18.3095 12.8637 17.7895C12.8637 17.2495 12.4437 16.8395 11.9237 16.8395H5.7237C5.1837 16.8395 4.7837 17.2495 4.7837 17.7895C4.7837 18.3095 5.1837 18.7195 5.7237 18.7195Z"
        fillRule="evenodd"
        clipRule="evenodd"
    />
</svg>
        