
<svg
    viewBox={0 0 35.46484375 27.794921875}
    xmlns="http://www.w3.org/2000/svg"
>
    <path
        fill="inherit"
        d="M7.5466 23.9909C6.1766 23.9909 5.4166 23.2709 5.4166 21.8509V20.3309C7.0266 21.2709 8.9166 21.8209 10.9066 21.8209C13.2866 21.8209 15.4666 21.0509 17.2566 19.7709L24.8166 27.3309C25.1466 27.6609 25.5366 27.7909 25.9666 27.7909C26.8966 27.7909 27.5366 27.1009 27.5366 26.1809C27.5366 25.7409 27.3666 25.3309 27.0966 25.0609L19.5766 17.5109C20.9866 15.6809 21.8166 13.4009 21.8166 10.9109C21.8166 7.9209 20.6166 5.1909 18.6466 3.2309H31.1266C32.4866 3.2309 33.2666 3.9509 33.2666 5.3709V21.8509C33.2666 23.2709 32.4866 23.9909 31.1266 23.9909H28.1366C28.7066 24.5809 29.0266 25.3509 29.0266 26.1909H31.1766C34.0266 26.1909 35.4666 24.7709 35.4666 21.9609V5.2609C35.4666 2.4509 34.0266 1.0209 31.1766 1.0209H15.5266C14.1266 0.3709 12.5666 0.0009 10.9066 0.0009C4.8966 0.0009 -0.0034 4.8909 -0.0034 10.9109C-0.0034 13.9309 1.2266 16.6709 3.2166 18.6309V21.9609C3.2166 24.7909 4.6666 26.1909 7.5066 26.1909H21.6466L19.4366 23.9909ZM2.3366 10.9109C2.3366 6.1809 6.1766 2.3409 10.9066 2.3409C15.6566 2.3409 19.4866 6.1809 19.4866 10.9109C19.4866 15.6409 15.6566 19.4809 10.9066 19.4809C6.1766 19.4809 2.3366 15.6409 2.3366 10.9109ZM26.7166 13.9709C28.5066 13.9709 29.9666 12.5109 29.9666 10.6909C29.9666 8.8709 28.5066 7.4109 26.7166 7.4109C24.8966 7.4109 23.4366 8.8709 23.4366 10.6909C23.4366 12.5109 24.8966 13.9709 26.7166 13.9709ZM6.5766 10.0509H15.2466C15.7766 10.0509 16.1966 9.6109 16.1966 9.0809C16.1966 8.5409 15.7766 8.1309 15.2466 8.1309H6.5766C6.0266 8.1309 5.6366 8.5409 5.6366 9.0809C5.6366 9.6109 6.0266 10.0509 6.5766 10.0509ZM6.5766 13.6809H12.8766C13.4166 13.6809 13.8366 13.2709 13.8366 12.7409C13.8366 12.2109 13.4166 11.7709 12.8766 11.7709H6.5766C6.0266 11.7709 5.6366 12.2109 5.6366 12.7409C5.6366 13.2709 6.0266 13.6809 6.5766 13.6809Z"
        fillRule="evenodd"
        clipRule="evenodd"
    />
</svg>
        