
<svg
    viewBox="0 0 28.095703125 29.72265625"
    xmlns="http://www.w3.org/2000/svg"
>
    <path
        fill="inherit"
        d="M5.4237 1.7624H22.6837C22.6037 0.6024 21.9437 0.0024 20.6737 0.0024H7.4237C6.1637 0.0024 5.5137 0.6024 5.4237 1.7624ZM2.6137 5.5524H25.4937C25.2937 4.3024 24.7037 3.6224 23.3337 3.6224H4.7737C3.4037 3.6224 2.8137 4.3024 2.6137 5.5524ZM4.1537 29.7224H23.9437C26.6837 29.7224 28.0937 28.3324 28.0937 25.6124V11.8524C28.0937 9.1324 26.6837 7.7524 23.9437 7.7524H4.1537C1.3837 7.7524 0.0037 9.1324 0.0037 11.8524V25.6124C0.0037 28.3324 1.3837 29.7224 4.1537 29.7224ZM20.8237 18.8924C18.9737 18.8924 17.4837 17.4224 17.4837 15.5724C17.4837 13.7224 18.9737 12.2524 20.8237 12.2524C22.6437 12.2524 24.1337 13.7224 24.1337 15.5724C24.1337 17.4224 22.6437 18.8924 20.8237 18.8924ZM5.4737 14.8324C4.8937 14.8324 4.4837 14.3824 4.4837 13.8524C4.4837 13.3124 4.8937 12.8624 5.4737 12.8624H14.4137C14.9437 12.8624 15.3637 13.3124 15.3637 13.8524C15.3637 14.3824 14.9437 14.8324 14.4137 14.8324ZM5.4737 18.5224C4.8937 18.5224 4.4837 18.1024 4.4837 17.5724C4.4837 17.0124 4.8937 16.5824 5.4737 16.5824H11.8537C12.3837 16.5824 12.8237 17.0124 12.8237 17.5724C12.8237 18.1024 12.3837 18.5224 11.8537 18.5224Z"
        fillRule="evenodd"
        clipRule="evenodd"
    />
</svg>
        