
<svg
    viewBox={0 0 32.23828125 25.169921875}
    xmlns="http://www.w3.org/2000/svg"
>
    <path
        fill="inherit"
        d="M4.2937 25.1692H27.9437C30.8137 25.1692 32.2337 23.7592 32.2337 20.9492V4.2392C32.2337 1.4192 30.8137 -0.0008 27.9437 -0.0008H4.2937C1.4337 -0.0008 0.0037 1.4192 0.0037 4.2392V20.9492C0.0037 23.7592 1.4337 25.1692 4.2937 25.1692ZM23.4237 12.3092C21.6137 12.3092 20.1437 10.8392 20.1437 9.0192C20.1437 7.2092 21.6137 5.7392 23.4237 5.7392C25.2237 5.7392 26.6837 7.2092 26.6837 9.0192C26.6837 10.8392 25.2237 12.3092 23.4237 12.3092ZM6.4937 8.2892C5.9437 8.2892 5.5537 7.8492 5.5537 7.3192C5.5537 6.7792 5.9437 6.3692 6.4937 6.3692H15.3137C15.8437 6.3692 16.2737 6.7792 16.2737 7.3192C16.2737 7.8492 15.8437 8.2892 15.3137 8.2892ZM6.4937 11.9392C5.9437 11.9392 5.5537 11.5092 5.5537 10.9792C5.5537 10.4492 5.9437 10.0192 6.4937 10.0192H12.9437C13.4837 10.0192 13.9037 10.4492 13.9037 10.9792C13.9037 11.5092 13.4837 11.9392 12.9437 11.9392Z"
        fillRule="evenodd"
        clipRule="evenodd"
    />
</svg>
        