
<svg
    viewBox="0 0 32.23828125 25.169921875"
    xmlns="http://www.w3.org/2000/svg"
>
    <path
        fill="inherit"
        d="M4.2937 25.1692H27.9437C30.8137 25.1692 32.2337 23.7592 32.2337 20.9492V4.2392C32.2337 1.4192 30.8137 -0.0008 27.9437 -0.0008H4.2937C1.4337 -0.0008 0.0037 1.4192 0.0037 4.2392V20.9492C0.0037 23.7592 1.4337 25.1692 4.2937 25.1692ZM4.3237 22.9692C2.9537 22.9692 2.2037 22.2392 2.2037 20.8192V4.3592C2.2037 2.9392 2.9537 2.1992 4.3237 2.1992H27.9137C29.2737 2.1992 30.0337 2.9392 30.0337 4.3592V20.8192C30.0337 22.2392 29.2737 22.9692 27.9137 22.9692ZM23.4237 12.3092C25.2237 12.3092 26.6837 10.8392 26.6837 9.0192C26.6837 7.2092 25.2237 5.7392 23.4237 5.7392C21.6137 5.7392 20.1437 7.2092 20.1437 9.0192C20.1437 10.8392 21.6137 12.3092 23.4237 12.3092ZM6.4937 8.2892H15.3137C15.8437 8.2892 16.2737 7.8492 16.2737 7.3192C16.2737 6.7792 15.8437 6.3692 15.3137 6.3692H6.4937C5.9437 6.3692 5.5537 6.7792 5.5537 7.3192C5.5537 7.8492 5.9437 8.2892 6.4937 8.2892ZM6.4937 11.9392H12.9437C13.4837 11.9392 13.9037 11.5092 13.9037 10.9792C13.9037 10.4492 13.4837 10.0192 12.9437 10.0192H6.4937C5.9437 10.0192 5.5537 10.4492 5.5537 10.9792C5.5537 11.5092 5.9437 11.9392 6.4937 11.9392Z"
        fillRule="evenodd"
        clipRule="evenodd"
    />
</svg>
        