<svg viewBox="0 0 32.935546875 27.26189615322232" xmlns="http://www.w3.org/2000/svg"><path d="M32.9327 16.3992C32.9327 7.7792 26.3227 0.7192 17.8927 -0.0008C17.4627 -0.0408 17.1327 0.2792 17.1327 0.7192V5.1892C17.1327 5.5592 17.3927 5.8392 17.7627 5.8692C22.9927 6.5092 27.0727 10.9792 27.0727 16.3992C27.0727 18.8592 26.2227 21.1292 24.7327 23.0292C24.5427 23.2592 24.5527 23.5592 24.7627 23.7792L28.0227 27.0292C28.3327 27.3292 28.7927 27.3292 29.0627 27.0092C31.4827 24.1392 32.9327 20.4292 32.9327 16.3992ZM0.0027 16.3992C0.0027 20.4392 1.4527 24.1492 3.8727 27.0192C4.1427 27.3492 4.5927 27.3292 4.9127 27.0292L8.1727 23.7792C8.3827 23.5592 8.3927 23.2592 8.2027 23.0292C6.7027 21.1292 5.8627 18.8592 5.8627 16.3992C5.8627 10.9792 9.9427 6.5092 15.1727 5.8692C15.5427 5.8392 15.8027 5.5592 15.8027 5.1892V0.7192C15.8027 0.2792 15.4727 -0.0408 15.0427 -0.0008C6.6127 0.7192 0.0027 7.7792 0.0027 16.3992ZM16.5927 21.6492C16.9827 21.6492 17.2227 21.3892 17.2227 20.9892V13.7692H17.2927L19.2727 20.7992C19.3827 21.1692 19.6227 21.4792 20.0727 21.4792C20.5127 21.4792 20.7427 21.2092 20.8627 20.7692L22.8427 13.7692H22.9127V20.9892C22.9127 21.3892 23.1727 21.6492 23.5527 21.6492C23.9227 21.6492 24.1827 21.3892 24.1827 20.9892V12.4992C24.1827 11.8892 23.8027 11.5192 23.1827 11.5192C22.6727 11.5192 22.3027 11.8292 22.1627 12.3492L20.1427 19.6392H20.0327L17.9827 12.3392C17.8427 11.8292 17.4727 11.5192 16.9627 11.5192C16.3527 11.5192 15.9527 11.8992 15.9527 12.4992V20.9892C15.9527 21.3892 16.2127 21.6492 16.5927 21.6492ZM9.4427 21.6492C9.8827 21.6492 10.1427 21.3492 10.1427 20.9192V17.5892H11.6627L13.1627 21.1292C13.3027 21.4692 13.5327 21.6492 13.8627 21.6492C14.3127 21.6492 14.5627 21.3492 14.5627 20.9992C14.5627 20.8392 14.5227 20.7192 14.4127 20.4692L13.0127 17.2892C13.9327 16.8792 14.5927 15.9592 14.5927 14.5892C14.5927 12.7592 13.4827 11.6492 11.5927 11.6492H9.4327C9.0127 11.6492 8.7327 11.9292 8.7327 12.3592V20.9192C8.7327 21.3492 9.0127 21.6492 9.4427 21.6492ZM10.1427 16.4492V12.8092H11.4527C12.5627 12.8092 13.1827 13.5092 13.1827 14.6192C13.1827 15.7292 12.6027 16.4492 11.4727 16.4492Z" /></svg>