
<svg
    viewBox={0 0 30.529296875 29.17578125}
    xmlns="http://www.w3.org/2000/svg"
>
    <path
        fill="inherit"
        d="M1.0937 29.179H29.4237C30.0237 29.179 30.5337 28.669 30.5337 28.069C30.5337 27.469 30.0237 26.979 29.4237 26.979H28.7137V25.979C28.7137 25.429 28.3937 25.099 27.8337 25.099H26.9637V9.379H28.1637C28.9137 9.379 29.3537 8.829 29.3537 8.269C29.3537 7.859 29.1237 7.509 28.6137 7.219L16.9437 0.479C16.3937 0.169 15.8137 -0.001 15.2537 -0.001C14.6937 -0.001 14.1137 0.169 13.5937 0.479L1.9137 7.219C1.3937 7.509 1.1737 7.859 1.1737 8.269C1.1737 8.829 1.6137 9.379 2.3637 9.379H3.5637V25.099H2.7037C2.1437 25.099 1.8137 25.429 1.8137 25.979V26.979H1.0937C0.4937 26.979 0.0037 27.469 0.0037 28.069C0.0037 28.669 0.4937 29.179 1.0937 29.179ZM15.4237 21.139C14.9937 21.139 14.7237 20.839 14.7237 20.409V11.169C14.7237 10.499 15.1637 10.089 15.8337 10.089C16.3837 10.089 16.7937 10.449 16.9437 11.009L19.1637 18.919H19.2937L21.4737 11.009C21.6337 10.449 22.0437 10.089 22.6037 10.089C23.2737 10.089 23.6937 10.499 23.6937 11.169V20.409C23.6937 20.839 23.4037 21.139 22.9937 21.139C22.5837 21.139 22.3037 20.839 22.3037 20.409V12.569H22.2337L20.0737 20.169C19.9437 20.629 19.6837 20.949 19.2137 20.949C18.7137 20.949 18.4537 20.589 18.3437 20.189L16.1837 12.569H16.1237V20.409C16.1237 20.839 15.8337 21.139 15.4237 21.139ZM7.6437 21.119C7.1637 21.119 6.8637 20.799 6.8637 20.329V11.019C6.8637 10.539 7.1737 10.239 7.6337 10.239H9.9937C12.0437 10.239 13.2437 11.459 13.2437 13.439C13.2437 14.919 12.5337 15.939 11.5437 16.379L13.0537 19.839C13.1637 20.109 13.2037 20.239 13.2037 20.429C13.2037 20.799 12.9437 21.119 12.4537 21.119C12.0837 21.119 11.8537 20.919 11.6937 20.549L10.0637 16.709H8.4037V20.329C8.4037 20.799 8.1237 21.119 7.6437 21.119ZM8.4037 15.479H9.8437C11.0837 15.479 11.7037 14.679 11.7037 13.469C11.7037 12.279 11.0437 11.509 9.8337 11.509H8.4037Z"
        fillRule="evenodd"
        clipRule="evenodd"
    />
</svg>
        