<svg viewBox="0 0 27.890625 27.890625" xmlns="http://www.w3.org/2000/svg"><path d="M13.9427 27.8864C21.6427 27.8864 27.8927 21.6264 27.8927 13.9464C27.8927 6.2464 21.6427 -0.0036 13.9427 -0.0036C6.2627 -0.0036 0.0027 6.2464 0.0027 13.9464C0.0027 21.6264 6.2627 27.8864 13.9427 27.8864ZM14.0927 19.7564C13.6627 19.7564 13.3727 19.4564 13.3727 19.0064V9.2664C13.3727 8.5764 13.8227 8.1364 14.5327 8.1364C15.1027 8.1364 15.5427 8.5064 15.6927 9.0964L18.0427 17.4364H18.1727L20.4827 9.1064C20.6327 8.5064 21.0727 8.1364 21.6527 8.1364C22.3627 8.1364 22.8027 8.5764 22.8027 9.2664V19.0064C22.8027 19.4564 22.5027 19.7564 22.0827 19.7564C21.6427 19.7564 21.3427 19.4564 21.3427 19.0064V10.7464H21.2627L19.0027 18.7464C18.8527 19.2364 18.5827 19.5464 18.0927 19.5464C17.5727 19.5464 17.2927 19.1964 17.1727 18.7764L14.9127 10.7464H14.8327V19.0064C14.8327 19.4564 14.5327 19.7564 14.0927 19.7564ZM5.9227 19.7464C5.4027 19.7464 5.1027 19.4164 5.1027 18.9064V9.1164C5.1027 8.6164 5.4127 8.2964 5.8927 8.2964H8.3827C10.5427 8.2964 11.8127 9.5664 11.8127 11.6664C11.8127 13.2164 11.0627 14.2864 10.0127 14.7564L11.6027 18.3864C11.7327 18.6764 11.7727 18.8164 11.7727 19.0164C11.7727 19.3964 11.5027 19.7464 10.9827 19.7464C10.5927 19.7464 10.3327 19.5364 10.1727 19.1364L8.4527 15.0964H6.7227V18.9064C6.7227 19.4164 6.4127 19.7464 5.9227 19.7464ZM6.7227 13.8064H8.2327C9.5327 13.8064 10.1827 12.9564 10.1827 11.6864C10.1827 10.4464 9.4927 9.6264 8.2127 9.6264H6.7227Z" /></svg>