
<svg
    viewBox={0 0 32.935546875 27.33018496744969}
    xmlns="http://www.w3.org/2000/svg"
>
    <path
        fill="inherit"
        d="M16.4627 5.864C18.9327 5.864 21.2027 6.724 23.0227 8.134C23.2927 8.354 23.6527 8.324 23.9127 8.064L27.0827 4.894C27.4027 4.584 27.3827 4.124 27.0527 3.854C24.2027 1.454 20.4927 0.004 16.4627 0.004C12.4427 0.004 8.7327 1.454 5.8827 3.854C5.5527 4.124 5.5327 4.584 5.8527 4.894L9.0227 8.064C9.2827 8.324 9.6527 8.354 9.9527 8.124C11.7627 6.724 14.0127 5.864 16.4627 5.864ZM0.0027 16.464C0.0027 20.494 1.4527 24.204 3.8727 27.074C4.1427 27.414 4.6027 27.414 4.9127 27.094L8.1627 23.844C8.3627 23.624 8.3927 23.324 8.2027 23.094C6.7127 21.194 5.8627 18.924 5.8627 16.464C5.8627 14.014 6.7027 11.744 8.1227 9.944C8.3427 9.654 8.3427 9.284 8.0827 9.024L4.9127 5.854C4.5927 5.534 4.1427 5.534 3.8727 5.864C1.4527 8.734 0.0027 12.444 0.0027 16.464ZM32.9327 16.464C32.9327 12.444 31.4827 8.734 29.0627 5.864C28.7927 5.534 28.3327 5.534 28.0227 5.854L24.8527 9.024C24.5927 9.284 24.5827 9.654 24.8127 9.944C26.2227 11.744 27.0727 14.014 27.0727 16.464C27.0727 18.924 26.2227 21.194 24.7327 23.094C24.5427 23.324 24.5527 23.624 24.7627 23.844L28.0127 27.094C28.3327 27.414 28.7827 27.414 29.0627 27.074C31.4827 24.204 32.9327 20.494 32.9327 16.464ZM16.5927 21.714C16.9827 21.714 17.2227 21.454 17.2227 21.054V13.834H17.2927L19.2727 20.864C19.3827 21.234 19.6227 21.544 20.0727 21.544C20.5127 21.544 20.7427 21.274 20.8627 20.834L22.8427 13.834H22.9127V21.054C22.9127 21.454 23.1727 21.714 23.5527 21.714C23.9227 21.714 24.1827 21.454 24.1827 21.054V12.564C24.1827 11.954 23.8027 11.584 23.1827 11.584C22.6727 11.584 22.3027 11.894 22.1627 12.414L20.1427 19.704H20.0327L17.9827 12.404C17.8427 11.894 17.4727 11.584 16.9627 11.584C16.3527 11.584 15.9527 11.964 15.9527 12.564V21.054C15.9527 21.454 16.2127 21.714 16.5927 21.714ZM9.4427 21.714C9.8827 21.714 10.1427 21.414 10.1427 20.984V17.654H11.6627L13.1627 21.194C13.3027 21.534 13.5327 21.714 13.8627 21.714C14.3127 21.714 14.5627 21.414 14.5627 21.064C14.5627 20.904 14.5227 20.784 14.4127 20.534L13.0127 17.354C13.9327 16.944 14.5927 16.024 14.5927 14.654C14.5927 12.824 13.4827 11.714 11.5927 11.714H9.4327C9.0127 11.714 8.7327 11.994 8.7327 12.424V20.984C8.7327 21.414 9.0127 21.714 9.4427 21.714ZM10.1427 16.514V12.874H11.4527C12.5627 12.874 13.1827 13.574 13.1827 14.684C13.1827 15.794 12.6027 16.514 11.4727 16.514Z"
        fillRule="evenodd"
        clipRule="evenodd"
    />
</svg>
        