
<svg
    viewBox={0 0 25.169921875 25.169921875}
    xmlns="http://www.w3.org/2000/svg"
>
    <path
        fill="inherit"
        d="M4.2937 25.1692H20.8737C23.7437 25.1692 25.1737 23.7592 25.1737 20.9492V4.2392C25.1737 1.4192 23.7437 -0.0008 20.8737 -0.0008H4.2937C1.4337 -0.0008 0.0037 1.4192 0.0037 4.2392V20.9492C0.0037 23.7592 1.4337 25.1692 4.2937 25.1692ZM12.7437 18.3892C12.3037 18.3892 12.0137 18.0892 12.0137 17.6392V7.8992C12.0137 7.2092 12.4737 6.7692 13.1837 6.7692C13.7537 6.7692 14.1937 7.1392 14.3437 7.7292L16.6937 16.0692H16.8137L19.1237 7.7392C19.2737 7.1392 19.7137 6.7692 20.3037 6.7692C21.0137 6.7692 21.4537 7.2092 21.4537 7.8992V17.6392C21.4537 18.0892 21.1637 18.3892 20.7237 18.3892C20.2937 18.3892 19.9837 18.0892 19.9837 17.6392V9.3792H19.9037L17.6537 17.3792C17.5137 17.8692 17.2437 18.1792 16.7337 18.1792C16.2137 18.1792 15.9437 17.8292 15.8337 17.4092L13.5637 9.3792H13.4837V17.6392C13.4837 18.0892 13.1837 18.3892 12.7437 18.3892ZM4.5637 18.3792C4.0637 18.3792 3.7437 18.0492 3.7437 17.5392V7.7492C3.7437 7.2492 4.0737 6.9292 4.5537 6.9292H7.0237C9.1837 6.9292 10.4637 8.1992 10.4637 10.2992C10.4637 11.8492 9.7237 12.9192 8.6537 13.3892L10.2537 17.0192C10.3737 17.3092 10.4137 17.4492 10.4137 17.6492C10.4137 18.0292 10.1437 18.3792 9.6237 18.3792C9.2437 18.3792 8.9837 18.1692 8.8137 17.7692L7.0937 13.7292H5.3737V17.5392C5.3737 18.0492 5.0537 18.3792 4.5637 18.3792ZM5.3737 12.4392H6.8937C8.1937 12.4392 8.8337 11.5892 8.8337 10.3192C8.8337 9.0792 8.1337 8.2592 6.8637 8.2592H5.3737Z"
        fillRule="evenodd"
        clipRule="evenodd"
    />
</svg>
        