
<svg
    viewBox={0 0 41.138671875 25.798828125}
    xmlns="http://www.w3.org/2000/svg"
>
    <path
        fill="inherit"
        d="M20.8637 25.7973C21.6737 25.7973 22.1337 25.2973 22.1337 24.4873V4.8573H22.2837L28.6337 23.9573C28.9137 24.8373 29.4937 25.3873 30.3837 25.3873C31.2837 25.3873 31.8437 24.7973 32.1037 23.9273L38.4737 4.8573H38.5937V24.4873C38.5937 25.3473 39.1137 25.7973 39.8537 25.7973C40.6737 25.7973 41.1437 25.3073 41.1437 24.4873V1.9173C41.1437 0.7473 40.3637 -0.0027 39.1937 -0.0027C38.1337 -0.0027 37.4737 0.6273 37.1637 1.6573L30.5437 21.8073H30.2737L23.5537 1.6373C23.2137 0.5973 22.6137 -0.0027 21.5337 -0.0027C20.3137 -0.0027 19.6037 0.8773 19.6037 1.8973V24.4873C19.6037 25.2673 20.0737 25.7973 20.8637 25.7973ZM1.3637 25.7573C2.2037 25.7573 2.7237 25.2073 2.7237 24.3673V15.1573H7.3537C7.5037 15.1573 7.6737 15.1473 7.8237 15.1473L12.4437 24.8973C12.7237 25.5373 13.1237 25.7673 13.8037 25.7673C14.5737 25.7673 15.1437 25.2373 15.1437 24.5173C15.1437 24.2173 14.9937 23.8573 14.8637 23.5873L10.5137 14.5873C13.5337 13.5073 15.1337 10.8973 15.1337 7.6573C15.1337 3.0873 12.0837 0.3273 7.4637 0.3273H1.3437C0.5037 0.3273 0.0037 0.8773 0.0037 1.7373V24.3673C0.0037 25.2973 0.6037 25.7573 1.3637 25.7573ZM2.7237 12.7873V2.7473H7.1337C10.2637 2.7473 12.3737 4.4473 12.3737 7.7373C12.3737 10.9773 10.4837 12.7873 7.2337 12.7873Z"
        fillRule="evenodd"
        clipRule="evenodd"
    />
</svg>
        