
<svg
    viewBox={0 0 30.5703125 30.5703125}
    xmlns="http://www.w3.org/2000/svg"
>
    <path
        fill="inherit"
        d="M15.2827 30.5663C23.6827 30.5663 30.5727 23.6763 30.5727 15.2863C30.5727 6.8863 23.6827 -0.0038 15.2827 -0.0038C6.8927 -0.0038 0.0027 6.8863 0.0027 15.2863C0.0027 23.6763 6.8927 30.5663 15.2827 30.5663ZM15.2827 25.4862C9.6527 25.4862 5.0827 20.9162 5.0827 15.2863C5.0827 9.6363 9.6527 5.0863 15.2827 5.0863C20.9327 5.0863 25.4827 9.6363 25.4827 15.2863C25.4827 20.9162 20.9327 25.4862 15.2827 25.4862ZM15.4227 20.0863C15.7927 20.0863 16.0227 19.8263 16.0227 19.4563V12.6363H16.0927L17.9627 19.2763C18.0627 19.6163 18.2827 19.9162 18.7127 19.9162C19.1227 19.9162 19.3427 19.6563 19.4727 19.2463L21.3327 12.6363H21.3927V19.4563C21.3927 19.8263 21.6327 20.0863 22.0027 20.0863C22.3527 20.0863 22.5827 19.8263 22.5827 19.4563V11.4263C22.5827 10.8563 22.2327 10.4963 21.6527 10.4963C21.1627 10.4963 20.8227 10.7963 20.6827 11.2963L18.7827 18.1662H18.6727L16.7327 11.2762C16.6127 10.8163 16.2527 10.4963 15.7727 10.4963C15.1927 10.4963 14.8227 10.8563 14.8227 11.4263V19.4563C14.8227 19.8263 15.0627 20.0863 15.4227 20.0863ZM8.6827 20.0663C9.0927 20.0663 9.3427 19.7963 9.3427 19.3863V16.2263H10.7627L12.1927 19.5763C12.3227 19.9063 12.5327 20.0663 12.8527 20.0663C13.2627 20.0663 13.5127 19.7963 13.5127 19.4663C13.5127 19.3063 13.4627 19.1963 13.3527 18.9663L12.0427 15.9563C12.9227 15.5763 13.5327 14.6963 13.5327 13.4163C13.5327 11.6863 12.4827 10.6263 10.7027 10.6263H8.6727C8.2727 10.6263 8.0127 10.8963 8.0127 11.3063V19.3863C8.0127 19.7963 8.2627 20.0663 8.6827 20.0663ZM9.3427 15.1763V11.7263H10.5827C11.6227 11.7263 12.2127 12.3863 12.2127 13.4363C12.2127 14.4763 11.6627 15.1763 10.5927 15.1763Z"
        fillRule="evenodd"
        clipRule="evenodd"
    />
</svg>
        