<svg viewBox="0 0 27.890625 27.890625" xmlns="http://www.w3.org/2000/svg"><path d="M13.9427 27.8864C21.6427 27.8864 27.8927 21.6464 27.8927 13.9464C27.8927 6.2464 21.6427 -0.0036 13.9427 -0.0036C6.2527 -0.0036 0.0027 6.2464 0.0027 13.9464C0.0027 21.6464 6.2527 27.8864 13.9427 27.8864ZM13.9427 25.5664C7.5227 25.5664 2.3227 20.3664 2.3227 13.9464C2.3227 7.5164 7.5227 2.3264 13.9427 2.3264C20.3727 2.3264 25.5627 7.5164 25.5627 13.9464C25.5627 20.3664 20.3727 25.5664 13.9427 25.5664ZM14.0827 19.5764C14.5027 19.5764 14.7927 19.2864 14.7927 18.8564V10.8264H14.8727L17.0627 18.6364C17.1827 19.0464 17.4427 19.3864 17.9527 19.3864C18.4327 19.3864 18.6927 19.0864 18.8427 18.6064L21.0227 10.8264H21.1127V18.8564C21.1127 19.2864 21.3927 19.5764 21.8227 19.5764C22.2427 19.5764 22.5127 19.2864 22.5127 18.8564V9.4064C22.5127 8.7364 22.0927 8.3164 21.4127 8.3164C20.8327 8.3164 20.4227 8.6664 20.2727 9.2464L18.0327 17.3364H17.9127L15.6227 9.2264C15.4727 8.6664 15.0527 8.3164 14.5027 8.3164C13.8127 8.3164 13.3827 8.7364 13.3827 9.4064V18.8564C13.3827 19.2864 13.6627 19.5764 14.0827 19.5764ZM6.1527 19.5664C6.6327 19.5664 6.9227 19.2464 6.9227 18.7564V15.0564H8.6027L10.2827 18.9864C10.4327 19.3764 10.6927 19.5664 11.0627 19.5664C11.5527 19.5664 11.8227 19.2364 11.8227 18.8664C11.8227 18.6764 11.7827 18.5364 11.6627 18.2664L10.1027 14.7264C11.1327 14.2764 11.8627 13.2464 11.8627 11.7264C11.8627 9.7064 10.6227 8.4664 8.5327 8.4664H6.1227C5.6627 8.4664 5.3627 8.7764 5.3627 9.2564V18.7564C5.3627 19.2464 5.6427 19.5664 6.1527 19.5664ZM6.9227 13.8064V9.7464H8.3827C9.6127 9.7464 10.2927 10.5364 10.2927 11.7564C10.2927 12.9864 9.6527 13.8064 8.3927 13.8064Z" /></svg>