
<svg
    viewBox={0 0 30.529296875 29.17578125}
    xmlns="http://www.w3.org/2000/svg"
>
    <path
        fill="inherit"
        d="M1.8137 25.919H28.7137V25.009C28.7137 24.459 28.3937 24.129 27.8337 24.129H26.9637V9.379H28.1637C28.9137 9.379 29.3537 8.829 29.3537 8.269C29.3537 7.859 29.1237 7.509 28.6137 7.219L16.9437 0.479C16.3937 0.169 15.8137 -0.001 15.2537 -0.001C14.6937 -0.001 14.1137 0.169 13.5937 0.479L1.9137 7.219C1.3937 7.509 1.1737 7.859 1.1737 8.269C1.1737 8.829 1.6137 9.379 2.3637 9.379H3.5637V24.129H2.7037C2.1437 24.129 1.8137 24.459 1.8137 25.009ZM5.6337 24.129V7.629L14.7237 2.529C14.8937 2.429 15.0837 2.379 15.2537 2.379C15.4337 2.379 15.6237 2.429 15.8037 2.529L24.8937 7.629V24.129ZM15.4237 19.739C15.8137 19.739 16.0937 19.469 16.0937 19.049V11.429H16.1637L18.2537 18.839C18.3637 19.219 18.6237 19.569 19.1037 19.569C19.5537 19.569 19.7937 19.259 19.9337 18.809L22.0237 11.429H22.0937V19.049C22.0937 19.469 22.3637 19.739 22.7637 19.739C23.1637 19.739 23.4337 19.469 23.4337 19.049V10.079C23.4337 9.429 23.0237 9.039 22.3837 9.039C21.8337 9.039 21.4537 9.379 21.3037 9.909L19.1637 17.609H19.0437L16.8837 9.909C16.7337 9.379 16.3337 9.039 15.8137 9.039C15.1637 9.039 14.7537 9.429 14.7537 10.079V19.049C14.7537 19.469 15.0137 19.739 15.4237 19.739ZM7.8737 19.729C8.3437 19.729 8.6137 19.429 8.6137 18.959V15.439H10.2137L11.8137 19.179C11.9537 19.549 12.1937 19.729 12.5337 19.729C13.0037 19.729 13.2737 19.429 13.2737 19.059C13.2737 18.879 13.2337 18.759 13.1137 18.499L11.6437 15.139C12.6237 14.699 13.3037 13.729 13.3037 12.289C13.3037 10.359 12.1237 9.169 10.1437 9.169H7.8637C7.4237 9.169 7.1237 9.479 7.1237 9.939V18.959C7.1237 19.429 7.4137 19.729 7.8737 19.729ZM8.6137 14.259V10.409H10.0037C11.1737 10.409 11.8237 11.159 11.8237 12.319C11.8237 13.479 11.2137 14.259 10.0237 14.259ZM1.0937 29.179H29.4237C30.0237 29.179 30.5337 28.669 30.5337 28.069C30.5337 27.469 30.0237 26.979 29.4237 26.979H1.0937C0.4937 26.979 0.0037 27.469 0.0037 28.069C0.0037 28.669 0.4937 29.179 1.0937 29.179Z"
        fillRule="evenodd"
        clipRule="evenodd"
    />
</svg>
        