
<svg
    viewBox={0 0 32.935546875 27.26189615322232}
    xmlns="http://www.w3.org/2000/svg"
>
    <path
        fill="inherit"
        d="M32.9327 16.3992C32.9327 7.7792 26.3227 0.7192 17.8927 -0.0008C17.4627 -0.0408 17.1327 0.2792 17.1327 0.7192V5.1892C17.1327 5.5592 17.3927 5.8392 17.7627 5.8692C22.9927 6.5092 27.0727 10.9792 27.0727 16.3992C27.0727 18.8592 26.2227 21.1292 24.7327 23.0292C24.5427 23.2592 24.5527 23.5592 24.7627 23.7792L28.0227 27.0292C28.3327 27.3292 28.7927 27.3292 29.0627 27.0092C31.4827 24.1392 32.9327 20.4292 32.9327 16.3992ZM0.0027 16.3992C0.0027 20.4392 1.4527 24.1492 3.8727 27.0192C4.1427 27.3492 4.5927 27.3292 4.9127 27.0292L8.1727 23.7792C8.3827 23.5592 8.3927 23.2592 8.2027 23.0292C6.7027 21.1292 5.8627 18.8592 5.8627 16.3992C5.8627 10.9792 9.9427 6.5092 15.1727 5.8692C15.5427 5.8392 15.8027 5.5592 15.8027 5.1892V0.7192C15.8027 0.2792 15.4727 -0.0408 15.0427 -0.0008C6.6127 0.7192 0.0027 7.7792 0.0027 16.3992ZM12.4827 22.5392C12.9927 22.5392 13.2927 22.2192 13.2927 21.7192V17.5692C13.2927 15.3592 14.0027 13.4792 15.8727 13.1692V21.9592C15.8727 22.3192 16.0927 22.5392 16.4427 22.5392C16.7927 22.5392 17.0127 22.3192 17.0127 21.9592V13.1592C18.9727 13.4392 19.6627 15.3392 19.6627 17.5692V21.7192C19.6627 22.2192 19.9627 22.5392 20.4627 22.5392C20.9627 22.5392 21.2627 22.2192 21.2627 21.7192V17.4892C21.2627 14.3292 19.8927 11.9492 17.0127 11.6892V10.1792C17.0127 9.8292 16.7927 9.6192 16.4427 9.6192C16.0927 9.6192 15.8727 9.8292 15.8727 10.1792V11.6892C13.0327 11.9792 11.6927 14.3692 11.6927 17.4892V21.7192C11.6927 22.2192 12.0027 22.5392 12.4827 22.5392Z"
        fillRule="evenodd"
        clipRule="evenodd"
    />
</svg>
        