
<svg
    viewBox="0 0 25.169921875 25.169921875"
    xmlns="http://www.w3.org/2000/svg"
>
    <path
        fill="inherit"
        d="M4.2937 25.1692H20.8737C23.7437 25.1692 25.1737 23.7592 25.1737 20.9492V4.2392C25.1737 1.4192 23.7437 -0.0008 20.8737 -0.0008H4.2937C1.4337 -0.0008 0.0037 1.4192 0.0037 4.2392V20.9492C0.0037 23.7592 1.4337 25.1692 4.2937 25.1692ZM8.5037 18.7292C7.9937 18.7292 7.6837 18.3892 7.6837 17.8792V13.5192C7.6837 10.2992 9.0637 7.8492 11.9937 7.5492V5.9792C11.9937 5.6192 12.2237 5.3992 12.5937 5.3992C12.9437 5.3992 13.1637 5.6192 13.1637 5.9792V7.5492C16.1437 7.8092 17.5537 10.2492 17.5537 13.5192V17.8792C17.5537 18.3892 17.2437 18.7292 16.7337 18.7292C16.2137 18.7292 15.9037 18.3892 15.9037 17.8792V13.6192C15.9037 11.3092 15.1937 9.3392 13.1637 9.0492V18.1392C13.1637 18.5092 12.9437 18.7292 12.5937 18.7292C12.2237 18.7292 11.9937 18.5092 11.9937 18.1392V9.0692C10.0637 9.3892 9.3337 11.3192 9.3337 13.6192V17.8792C9.3337 18.3892 9.0237 18.7292 8.5037 18.7292Z"
        fillRule="evenodd"
        clipRule="evenodd"
    />
</svg>
        