
<svg
    viewBox="0 0 30.529296875 29.17578125"
    xmlns="http://www.w3.org/2000/svg"
>
    <path
        fill="inherit"
        d="M1.8137 25.919H28.7137V25.009C28.7137 24.459 28.3937 24.129 27.8337 24.129H26.9637V9.379H28.1637C28.9137 9.379 29.3537 8.829 29.3537 8.269C29.3537 7.859 29.1237 7.509 28.6137 7.219L16.9437 0.479C16.3937 0.169 15.8137 -0.001 15.2537 -0.001C14.6937 -0.001 14.1137 0.169 13.5937 0.479L1.9137 7.219C1.3937 7.509 1.1737 7.859 1.1737 8.269C1.1737 8.829 1.6137 9.379 2.3637 9.379H3.5637V24.129H2.7037C2.1437 24.129 1.8137 24.459 1.8137 25.009ZM5.6337 24.129V7.629L14.7237 2.529C14.8937 2.429 15.0837 2.379 15.2537 2.379C15.4337 2.379 15.6237 2.429 15.8037 2.529L24.8937 7.629V24.129ZM11.3037 20.339C11.8137 20.339 12.1137 20.029 12.1137 19.519V15.379C12.1137 13.169 12.8137 11.289 14.6937 10.979V19.769C14.6937 20.129 14.9137 20.339 15.2737 20.339C15.6137 20.339 15.8337 20.129 15.8337 19.769V10.969C17.8037 11.249 18.4837 13.149 18.4837 15.379V19.519C18.4837 20.029 18.7837 20.339 19.2737 20.339C19.7737 20.339 20.0837 20.029 20.0837 19.519V15.299C20.0837 12.139 18.7037 9.759 15.8337 9.499V7.989C15.8337 7.639 15.6137 7.419 15.2737 7.419C14.9137 7.419 14.6937 7.639 14.6937 7.989V9.499C11.8537 9.789 10.5137 12.179 10.5137 15.299V19.519C10.5137 20.029 10.8137 20.339 11.3037 20.339ZM1.0937 29.179H29.4237C30.0237 29.179 30.5337 28.669 30.5337 28.069C30.5337 27.469 30.0237 26.979 29.4237 26.979H1.0937C0.4937 26.979 0.0037 27.469 0.0037 28.069C0.0037 28.669 0.4937 29.179 1.0937 29.179Z"
        fillRule="evenodd"
        clipRule="evenodd"
    />
</svg>
        