
<svg
    viewBox={0 0 18.62109375 25.798828125}
    xmlns="http://www.w3.org/2000/svg"
>
    <path
        fill="inherit"
        d="M1.3637 25.7973C2.1637 25.7973 2.7237 25.3073 2.7237 24.3773V15.8073C2.7237 11.3373 4.1937 7.3273 8.1737 6.6973V24.7473C8.1737 25.3573 8.6437 25.7973 9.2737 25.7973C9.8337 25.7973 10.3037 25.3773 10.3037 24.7473V6.6673C14.3737 7.2173 15.9137 11.1673 15.9137 15.8073V24.3773C15.9137 25.2373 16.4637 25.7973 17.2837 25.7973C18.0337 25.7973 18.6237 25.3173 18.6237 24.3773V15.6173C18.6237 9.4073 16.0237 4.6573 10.3037 4.1673V1.0273C10.3037 0.3573 9.8437 -0.0027 9.2737 -0.0027C8.6937 -0.0027 8.1737 0.2973 8.1737 1.0273V4.1873C2.6437 4.7473 0.0037 9.4373 0.0037 15.6173V24.3773C0.0037 25.2373 0.5337 25.7973 1.3637 25.7973Z"
        fillRule="evenodd"
        clipRule="evenodd"
    />
</svg>
        