
<svg
    viewBox="0 0 30.544813437289534 27.890625"
    xmlns="http://www.w3.org/2000/svg"
>
    <path
        fill="inherit"
        d="M0.9769 11.3064C-0.0131 11.3064 -0.2531 11.9764 0.2769 12.7464L3.3369 17.0864C3.7869 17.7164 4.4469 17.7064 4.8869 17.0864L7.9269 12.7264C8.4669 11.9764 8.2069 11.3064 7.2469 11.3064H5.2769C6.4669 6.1564 11.0769 2.3264 16.5969 2.3264C23.0269 2.3264 28.2169 7.5164 28.2169 13.9464C28.2169 20.3664 23.0269 25.5664 16.5969 25.5664C12.7169 25.5664 9.2569 23.6564 7.1969 20.7564C6.7669 20.1964 6.1269 20.0164 5.5569 20.3564C5.0069 20.6964 4.8369 21.4664 5.3069 22.0664C7.8369 25.6064 11.9769 27.8864 16.5969 27.8864C24.2969 27.8864 30.5469 21.6464 30.5469 13.9464C30.5469 6.2464 24.2969 -0.0036 16.5969 -0.0036C9.8069 -0.0036 4.1269 4.8664 2.8969 11.3064ZM12.6369 19.9064C13.1369 19.9064 13.4369 19.5764 13.4369 19.0864V14.9464C13.4369 12.7164 14.1369 10.8464 16.0269 10.5264V19.3364C16.0269 19.6864 16.2469 19.9064 16.5969 19.9064C16.9369 19.9064 17.1569 19.6864 17.1569 19.3364V10.5164C19.1269 10.7964 19.8169 12.7164 19.8169 14.9464V19.0864C19.8169 19.5764 20.1169 19.9064 20.6169 19.9064C21.0969 19.9064 21.4169 19.5764 21.4169 19.0864V14.8564C21.4169 11.6864 20.0269 9.3264 17.1569 9.0664V7.5464C17.1569 7.2064 16.9369 6.9864 16.5969 6.9864C16.2469 6.9864 16.0269 7.2064 16.0269 7.5464V9.0664C13.1769 9.3564 11.8369 11.7464 11.8369 14.8564V19.0864C11.8369 19.5764 12.1469 19.9064 12.6369 19.9064Z"
        fillRule="evenodd"
        clipRule="evenodd"
    />
</svg>
        