
<svg
    viewBox="0 0 27.890625 27.890625"
    xmlns="http://www.w3.org/2000/svg"
>
    <path
        fill="inherit"
        d="M13.9427 27.8864C21.6427 27.8864 27.8927 21.6264 27.8927 13.9464C27.8927 6.2464 21.6427 -0.0036 13.9427 -0.0036C6.2627 -0.0036 0.0027 6.2464 0.0027 13.9464C0.0027 21.6264 6.2627 27.8864 13.9427 27.8864ZM9.8527 20.0964C9.3427 20.0964 9.0327 19.7564 9.0327 19.2464V14.8864C9.0327 11.6664 10.4227 9.2164 13.3427 8.9164V7.3464C13.3427 6.9864 13.5727 6.7664 13.9427 6.7664C14.3027 6.7664 14.5227 6.9864 14.5227 7.3464V8.9164C17.4827 9.1764 18.9127 11.6164 18.9127 14.8864V19.2464C18.9127 19.7564 18.5927 20.0964 18.0927 20.0964C17.5727 20.0964 17.2527 19.7564 17.2527 19.2464V14.9864C17.2527 12.6764 16.5427 10.7064 14.5227 10.4164V19.5064C14.5227 19.8764 14.3027 20.0964 13.9427 20.0964C13.5727 20.0964 13.3427 19.8764 13.3427 19.5064V10.4364C11.4127 10.7564 10.6927 12.6864 10.6927 14.9864V19.2464C10.6927 19.7564 10.3727 20.0964 9.8527 20.0964Z"
        fillRule="evenodd"
        clipRule="evenodd"
    />
</svg>
        