
<svg
    viewBox={0 0 27.890625 27.890625}
    xmlns="http://www.w3.org/2000/svg"
>
    <path
        fill="inherit"
        d="M13.9427 27.8864C21.6427 27.8864 27.8927 21.6464 27.8927 13.9464C27.8927 6.2464 21.6427 -0.0036 13.9427 -0.0036C6.2527 -0.0036 0.0027 6.2464 0.0027 13.9464C0.0027 21.6464 6.2527 27.8864 13.9427 27.8864ZM13.9427 25.5664C7.5227 25.5664 2.3227 20.3664 2.3227 13.9464C2.3227 7.5164 7.5227 2.3264 13.9427 2.3264C20.3727 2.3264 25.5627 7.5164 25.5627 13.9464C25.5627 20.3664 20.3727 25.5664 13.9427 25.5664ZM9.9627 19.9064C10.4727 19.9064 10.7727 19.5764 10.7727 19.0864V14.9464C10.7727 12.7164 11.4727 10.8464 13.3527 10.5264V19.3364C13.3527 19.6864 13.5727 19.9064 13.9327 19.9064C14.2727 19.9064 14.4927 19.6864 14.4927 19.3364V10.5164C16.4627 10.7964 17.1427 12.7164 17.1427 14.9464V19.0864C17.1427 19.5764 17.4427 19.9064 17.9527 19.9064C18.4327 19.9064 18.7427 19.5764 18.7427 19.0864V14.8564C18.7427 11.6864 17.3627 9.3264 14.4927 9.0664V7.5464C14.4927 7.2064 14.2727 6.9864 13.9327 6.9864C13.5727 6.9864 13.3527 7.2064 13.3527 7.5464V9.0664C10.5127 9.3564 9.1727 11.7464 9.1727 14.8564V19.0864C9.1727 19.5764 9.4727 19.9064 9.9627 19.9064Z"
        fillRule="evenodd"
        clipRule="evenodd"
    />
</svg>
        