
<svg
    viewBox="0 0 30.5703125 30.5703125"
    xmlns="http://www.w3.org/2000/svg"
>
    <path
        fill="inherit"
        d="M15.2827 30.5663C23.6827 30.5663 30.5727 23.6763 30.5727 15.2863C30.5727 6.8863 23.6827 -0.0038 15.2827 -0.0038C6.8927 -0.0038 0.0027 6.8863 0.0027 15.2863C0.0027 23.6763 6.8927 30.5663 15.2827 30.5663ZM15.2827 25.4862C9.6527 25.4862 5.0827 20.9162 5.0827 15.2863C5.0827 9.6363 9.6527 5.0863 15.2827 5.0863C20.9327 5.0863 25.4827 9.6363 25.4827 15.2863C25.4827 20.9162 20.9327 25.4862 15.2827 25.4862ZM11.3227 21.2463C11.8227 21.2463 12.1227 20.9162 12.1227 20.4263V16.2863C12.1227 14.0563 12.8227 12.1863 14.7127 11.8663V20.6763C14.7127 21.0263 14.9327 21.2463 15.2827 21.2463C15.6227 21.2463 15.8427 21.0263 15.8427 20.6763V11.8563C17.8127 12.1363 18.5027 14.0563 18.5027 16.2863V20.4263C18.5027 20.9162 18.8027 21.2463 19.3027 21.2463C19.7827 21.2463 20.0927 20.9162 20.0927 20.4263V16.1963C20.0927 13.0262 18.7327 10.6663 15.8427 10.4063V8.8863C15.8427 8.5463 15.6227 8.3263 15.2827 8.3263C14.9327 8.3263 14.7127 8.5463 14.7127 8.8863V10.4063C11.8627 10.6962 10.5227 13.0863 10.5227 16.1963V20.4263C10.5227 20.9162 10.8327 21.2463 11.3227 21.2463Z"
        fillRule="evenodd"
        clipRule="evenodd"
    />
</svg>
        