
<svg
    viewBox={0 0 27.890625 27.890625}
    xmlns="http://www.w3.org/2000/svg"
>
    <path
        fill="inherit"
        d="M13.9427 27.8864C21.6427 27.8864 27.8927 21.6464 27.8927 13.9464C27.8927 6.2464 21.6427 -0.0036 13.9427 -0.0036C6.2527 -0.0036 0.0027 6.2464 0.0027 13.9464C0.0027 21.6464 6.2527 27.8864 13.9427 27.8864ZM13.9427 25.5664C7.5227 25.5664 2.3227 20.3664 2.3227 13.9464C2.3227 7.5164 7.5227 2.3264 13.9427 2.3264C20.3727 2.3264 25.5627 7.5164 25.5627 13.9464C25.5627 20.3664 20.3727 25.5664 13.9427 25.5664ZM11.8827 18.7264L15.4727 20.7564C15.5827 20.8264 15.7127 20.8664 15.8027 20.8864V9.2564L12.2927 7.1064C12.1527 7.0264 12.0327 6.9764 11.8827 6.9464ZM6.5127 19.8564C6.5127 20.3864 6.7927 20.6864 7.3127 20.6864C7.5027 20.6864 7.6827 20.6164 7.9127 20.4964L10.9127 18.8664V7.0664C10.7827 7.1264 10.6527 7.1864 10.5027 7.2764L7.1227 9.1964C6.6727 9.4564 6.5127 9.7664 6.5127 10.2664ZM16.7727 20.8664C16.8427 20.8464 16.9127 20.8264 16.9927 20.7764L20.7027 18.6764C21.1527 18.4164 21.3327 18.1164 21.3327 17.6264V7.9964C21.3327 7.4764 21.0227 7.1864 20.5227 7.1864C20.3327 7.1864 20.1527 7.2564 19.9227 7.3864L16.7727 9.1164Z"
        fillRule="evenodd"
        clipRule="evenodd"
    />
</svg>
        