
<svg
    viewBox="0 0 28.4375 26.974609375"
    xmlns="http://www.w3.org/2000/svg"
>
    <path
        fill="inherit"
        d="M1.5437 26.4416C1.8837 26.4416 2.2437 26.3216 2.6837 26.0716L9.6437 22.3216L17.2037 26.5616C17.6937 26.8416 18.2237 26.9716 18.7337 26.9716C19.2137 26.9716 19.6837 26.8516 20.0937 26.6216L27.2437 22.5616C28.0637 22.1116 28.4337 21.4516 28.4337 20.5316V2.1216C28.4337 1.1116 27.8737 0.5516 26.8937 0.5516C26.5537 0.5516 26.1937 0.6516 25.7437 0.9016L18.4937 4.9316L11.0737 0.3816C10.6537 0.1416 10.1737 0.0016 9.6937 0.0016C9.2037 0.0016 8.7137 0.1416 8.2837 0.3816L1.1737 4.4316C0.3737 4.8916 0.0037 5.5516 0.0037 6.4716V24.8516C0.0037 25.8716 0.5637 26.4416 1.5437 26.4416ZM8.7537 20.1516L2.5837 23.5416C2.5137 23.5716 2.4437 23.6116 2.3837 23.6116C2.2737 23.6116 2.2037 23.5316 2.2037 23.3916V7.0016C2.2037 6.6716 2.3237 6.4416 2.6537 6.2516L8.2537 2.9716C8.4337 2.8716 8.5837 2.7916 8.7537 2.6916ZM10.9537 20.3716V2.9816C11.0837 3.0616 11.2537 3.1416 11.3937 3.2216L17.4837 6.9416V24.0316C17.2937 23.9216 17.0937 23.8316 16.8837 23.7216ZM19.6837 24.2816V6.8116L25.8537 3.4416C25.9237 3.4016 25.9937 3.3816 26.0437 3.3816C26.1637 3.3816 26.2337 3.4616 26.2337 3.5916V19.9916C26.2337 20.3316 26.1037 20.5616 25.7837 20.7516L20.3037 23.9416C20.0937 24.0616 19.8937 24.1816 19.6837 24.2816Z"
        fillRule="evenodd"
        clipRule="evenodd"
    />
</svg>
        