
<svg
    viewBox={0 0 27.890625 27.890625}
    xmlns="http://www.w3.org/2000/svg"
>
    <path
        fill="inherit"
        d="M13.9427 27.8864C21.6427 27.8864 27.8927 21.6264 27.8927 13.9464C27.8927 6.2464 21.6427 -0.0036 13.9427 -0.0036C6.2627 -0.0036 0.0027 6.2464 0.0027 13.9464C0.0027 21.6264 6.2627 27.8864 13.9427 27.8864ZM11.8127 18.8964V6.7264C11.9727 6.7564 12.1027 6.8064 12.2327 6.8864L15.8627 9.1064V21.1064C15.7627 21.0864 15.6427 21.0364 15.5127 20.9864ZM6.2727 20.0464V10.1564C6.2727 9.6664 6.4627 9.3064 6.9027 9.0664L10.3927 7.0664C10.5427 6.9964 10.6927 6.9164 10.8127 6.8464V19.0264L7.7227 20.6964C7.4927 20.8264 7.3027 20.9064 7.1127 20.9064C6.5727 20.9064 6.2727 20.5864 6.2727 20.0464ZM16.8727 21.0964V8.9664L20.1127 7.1764C20.3427 7.0364 20.5327 6.9864 20.7227 6.9864C21.2427 6.9864 21.5627 7.2764 21.5627 7.8364V17.7364C21.5627 18.2064 21.3527 18.5664 20.9227 18.8264L17.0927 20.9964C17.0127 21.0364 16.9427 21.0664 16.8727 21.0964Z"
        fillRule="evenodd"
        clipRule="evenodd"
    />
</svg>
        