
<svg
    viewBox={0 0 28.4375 26.755859375}
    xmlns="http://www.w3.org/2000/svg"
>
    <path
        fill="inherit"
        d="M10.3237 22.6295L17.2137 26.4995C17.4137 26.6095 17.6337 26.6995 17.8437 26.7595V4.4395L11.0837 0.3095C10.8537 0.1595 10.5837 0.0595 10.3237 -0.0005ZM0.0037 24.7695C0.0037 25.7695 0.5737 26.3495 1.5537 26.3495C1.9137 26.3495 2.2537 26.2395 2.7037 25.9895L8.4537 22.8895V0.2295C8.2037 0.3595 7.9337 0.4895 7.6837 0.6295L1.2037 4.3495C0.3837 4.7995 0.0037 5.4595 0.0037 6.3695ZM19.7037 26.7195C19.8337 26.6695 19.9837 26.6195 20.1137 26.5395L27.2337 22.4895C28.0537 22.0395 28.4337 21.3795 28.4337 20.4695V2.0495C28.4337 1.0395 27.8637 0.4795 26.8837 0.4795C26.5237 0.4795 26.1837 0.5895 25.7337 0.8295L19.7037 4.1795Z"
        fillRule="evenodd"
        clipRule="evenodd"
    />
</svg>
        