
<svg
    viewBox="0 0 27.890625 27.890625"
    xmlns="http://www.w3.org/2000/svg"
>
    <path
        fill="inherit"
        d="M13.9427 27.8864C21.6427 27.8864 27.8927 21.6464 27.8927 13.9464C27.8927 6.2464 21.6427 -0.0036 13.9427 -0.0036C6.2527 -0.0036 0.0027 6.2464 0.0027 13.9464C0.0027 21.6464 6.2527 27.8864 13.9427 27.8864ZM13.9427 25.5664C7.5227 25.5664 2.3227 20.3664 2.3227 13.9464C2.3227 7.5164 7.5227 2.3264 13.9427 2.3264C20.3727 2.3264 25.5627 7.5164 25.5627 13.9464C25.5627 20.3664 20.3727 25.5664 13.9427 25.5664ZM14.8727 11.8564C16.1427 11.4564 17.0627 10.2664 17.0627 8.8564C17.0627 7.1264 15.6527 5.7164 13.9227 5.7164C12.5127 5.7164 11.3227 6.6464 10.9327 7.9164ZM20.3127 21.1864C20.5527 21.4264 20.9427 21.4264 21.1927 21.1864C21.4327 20.9464 21.4327 20.5664 21.1927 20.3164L7.5627 6.6864C7.3127 6.4364 6.9327 6.4364 6.6727 6.6864C6.4427 6.9364 6.4427 7.3264 6.6727 7.5564ZM12.1227 8.0264C12.1227 7.4964 12.5927 7.0264 13.1227 7.0264C13.6727 7.0264 14.1227 7.4964 14.1127 8.0264C14.1127 8.5564 13.6727 9.0264 13.1227 9.0264C12.5927 9.0264 12.1227 8.5564 12.1227 8.0264ZM12.9727 15.3364V18.6664C12.9727 20.6564 13.3027 22.4364 13.9227 22.4364C14.5427 22.4364 14.8627 20.6864 14.8627 18.6664V17.2164Z"
        fillRule="evenodd"
        clipRule="evenodd"
    />
</svg>
        