
<svg
    viewBox="0 0 21.176047111883236 29.052734375"
    xmlns="http://www.w3.org/2000/svg"
>
    <path
        fill="inherit"
        d="M5.9548 5.1528C5.9548 7.5628 7.5848 9.5728 9.8148 10.1328V11.8028L12.3548 14.3428V10.1328C14.5848 9.5828 16.2248 7.5628 16.2248 5.1528C16.2248 2.3228 13.9448 0.0028 11.0848 0.0028C8.2448 0.0028 5.9548 2.3228 5.9548 5.1528ZM9.6248 5.4428C8.6748 5.4428 7.8548 4.6228 7.8548 3.6628C7.8548 2.7228 8.6748 1.9128 9.6248 1.9128C10.5748 1.9128 11.3748 2.7228 11.3748 3.6628C11.3748 4.6228 10.5748 5.4428 9.6248 5.4428ZM19.3848 26.5828C19.7948 26.9928 20.4748 26.9928 20.8748 26.5828C21.2748 26.1728 21.2848 25.5128 20.8748 25.0928L1.8048 6.0328C1.3948 5.6328 0.7048 5.6228 0.2948 6.0328C-0.0952 6.4228 -0.0952 7.1228 0.2948 7.5228ZM9.8148 22.8228C9.8148 26.8528 10.5348 29.0528 11.0848 29.0528C11.6048 29.0528 12.3448 27.0928 12.3448 23.7028V21.8028L9.8148 19.2728Z"
        fillRule="evenodd"
        clipRule="evenodd"
    />
</svg>
        