<svg viewBox="0 0 25.962890625 30.0234375" xmlns="http://www.w3.org/2000/svg"><path d="M7.8427 5.1528C7.8427 7.5628 9.4727 9.5728 11.7027 10.1328V18.7828C11.7027 22.8228 12.4327 25.0228 12.9727 25.0228C13.5327 25.0228 14.2427 22.8328 14.2427 18.7828V10.1328C16.4727 9.5828 18.1127 7.5628 18.1127 5.1528C18.1127 2.3228 15.8327 0.0028 12.9727 0.0028C10.1327 0.0028 7.8427 2.3228 7.8427 5.1528ZM11.5127 5.4428C10.5827 5.4428 9.7627 4.6228 9.7627 3.6628C9.7627 2.7228 10.5827 1.9128 11.5127 1.9128C12.4827 1.9128 13.2727 2.7228 13.2727 3.6628C13.2727 4.6228 12.4827 5.4428 11.5127 5.4428ZM12.9927 30.0228C21.2327 30.0228 25.9627 27.1828 25.9627 24.1728C25.9627 20.5628 20.2327 18.3628 16.4727 18.3228V20.3128C19.1127 20.3528 23.2027 21.7928 23.2027 23.8428C23.2027 26.1928 18.8627 27.8628 12.9927 27.8628C7.0827 27.8628 2.7727 26.2228 2.7727 23.8428C2.7727 21.7928 6.8527 20.3528 9.4927 20.3128V18.3228C5.7327 18.3628 0.0027 20.5628 0.0027 24.1728C0.0027 27.1828 4.7427 30.0228 12.9927 30.0228Z" /></svg>