
<svg
    viewBox={0 0 10.267578125 29.052734375}
    xmlns="http://www.w3.org/2000/svg"
>
    <path
        fill="inherit"
        d="M-0.0027 5.1528C-0.0027 7.5628 1.6273 9.5728 3.8573 10.1328V22.8228C3.8573 26.8528 4.5773 29.0528 5.1273 29.0528C5.6873 29.0528 6.3973 26.8628 6.3973 22.8228V10.1328C8.6273 9.5828 10.2673 7.5628 10.2673 5.1528C10.2673 2.3228 7.9873 0.0028 5.1273 0.0028C2.2873 0.0028 -0.0027 2.3228 -0.0027 5.1528ZM3.6673 5.4428C2.7173 5.4428 1.8973 4.6228 1.8973 3.6628C1.8973 2.7228 2.7173 1.9128 3.6673 1.9128C4.6173 1.9128 5.4173 2.7228 5.4173 3.6628C5.4173 4.6228 4.6173 5.4428 3.6673 5.4428Z"
        fillRule="evenodd"
        clipRule="evenodd"
    />
</svg>
        