<svg viewBox="0 0 27.890625 27.890625" xmlns="http://www.w3.org/2000/svg"><path d="M13.9427 27.8927C21.6427 27.8927 27.8927 21.6427 27.8927 13.9427C27.8927 6.2627 21.6427 0.0027 13.9427 0.0027C6.2627 0.0027 0.0027 6.2627 0.0027 13.9427C0.0027 21.6427 6.2627 27.8927 13.9427 27.8927ZM11.0027 8.0627C11.0027 6.4427 12.3027 5.1227 13.9427 5.1227C15.5827 5.1227 16.8827 6.4427 16.8827 8.0627C16.8827 9.4027 15.9827 10.5527 14.7527 10.9227V15.6527C14.7527 17.9127 14.3727 19.1727 13.9427 19.1727C13.5327 19.1727 13.1527 17.8927 13.1527 15.6527V10.9227C11.9127 10.5527 11.0027 9.4027 11.0027 8.0627ZM13.1227 8.2127C13.6627 8.2127 14.0827 7.7827 14.0827 7.2427C14.0827 6.7227 13.6627 6.3027 13.1227 6.3027C12.6427 6.3027 12.1827 6.7227 12.1827 7.2427C12.1827 7.7827 12.6427 8.2127 13.1227 8.2127ZM13.9427 21.9327C9.3627 21.9327 6.6727 20.3327 6.6727 18.5927C6.6727 16.4727 10.0227 15.2427 12.1427 15.2627V16.5527C10.6827 16.5427 8.3927 17.3227 8.3927 18.4127C8.3927 19.6427 10.6927 20.5327 13.9427 20.5327C17.1827 20.5327 19.5127 19.6327 19.5127 18.4127C19.5127 17.3227 17.2127 16.5427 15.7527 16.5527V15.2627C17.8727 15.2427 21.2227 16.4727 21.2227 18.5927C21.2227 20.3327 18.5227 21.9327 13.9427 21.9327Z" /></svg>