
<svg
    viewBox={0 0 25.169921875 25.169921875}
    xmlns="http://www.w3.org/2000/svg"
>
    <path
        fill="inherit"
        d="M4.2937 25.1692H20.8737C23.7437 25.1692 25.1737 23.7592 25.1737 20.9492V4.2392C25.1737 1.4192 23.7437 -0.0008 20.8737 -0.0008H4.2937C1.4337 -0.0008 0.0037 1.4192 0.0037 4.2392V20.9492C0.0037 23.7592 1.4337 25.1692 4.2937 25.1692ZM4.3237 22.9692C2.9537 22.9692 2.2037 22.2392 2.2037 20.8192V4.3592C2.2037 2.9392 2.9537 2.1992 4.3237 2.1992H20.8537C22.2037 2.1992 22.9737 2.9392 22.9737 4.3592V20.8192C22.9737 22.2392 22.2037 22.9692 20.8537 22.9692ZM9.4737 7.4692C9.4737 8.8492 10.3937 10.0192 11.6437 10.4192V17.2992C11.6437 19.2892 11.9737 21.0692 12.5937 21.0692C13.2237 21.0692 13.5237 19.3192 13.5237 17.2992V10.4192C14.8037 10.0392 15.7137 8.8592 15.7137 7.4692C15.7137 5.7392 14.3137 4.3492 12.5937 4.3492C10.8837 4.3492 9.4737 5.7392 9.4737 7.4692ZM10.8037 6.6592C10.7837 6.1292 11.2637 5.6592 11.7837 5.6592C12.3337 5.6592 12.7937 6.1292 12.7837 6.6592C12.7837 7.1892 12.3337 7.6592 11.7837 7.6592C11.2637 7.6592 10.8037 7.1892 10.8037 6.6592Z"
        fillRule="evenodd"
        clipRule="evenodd"
    />
</svg>
        