
<svg
    viewBox={0 0 27.890625 27.890625}
    xmlns="http://www.w3.org/2000/svg"
>
    <path
        fill="inherit"
        d="M13.9427 27.8927C21.6427 27.8927 27.8927 21.6427 27.8927 13.9427C27.8927 6.2627 21.6427 0.0027 13.9427 0.0027C6.2627 0.0027 0.0027 6.2627 0.0027 13.9427C0.0027 21.6427 6.2627 27.8927 13.9427 27.8927ZM14.8727 11.8527L10.9327 7.9327C11.3227 6.6427 12.5127 5.7127 13.9227 5.7127C15.6527 5.7127 17.0627 7.1227 17.0627 8.8627C17.0627 10.2627 16.1427 11.4527 14.8727 11.8527ZM20.3127 21.1927L6.6727 7.5727C6.4427 7.3427 6.4427 6.9327 6.6727 6.7027C6.9327 6.4527 7.3127 6.4527 7.5627 6.7027L21.1927 20.3127C21.4327 20.5627 21.4327 20.9427 21.1927 21.1927C20.9427 21.4327 20.5527 21.4227 20.3127 21.1927ZM12.1227 8.0427C12.1227 8.5627 12.5927 9.0227 13.1227 9.0227C13.6727 9.0227 14.1127 8.5627 14.1127 8.0427C14.1227 7.4927 13.6727 7.0227 13.1227 7.0227C12.5927 7.0227 12.1227 7.4927 12.1227 8.0427ZM12.9727 15.3427L14.8627 17.2227V18.6627C14.8627 20.7027 14.5427 22.4527 13.9227 22.4527C13.3027 22.4527 12.9727 20.6627 12.9727 18.6627Z"
        fillRule="evenodd"
        clipRule="evenodd"
    />
</svg>
        