
<svg
    viewBox={0 0 27.890625 27.890625}
    xmlns="http://www.w3.org/2000/svg"
>
    <path
        fill="inherit"
        d="M13.9427 27.8864C21.6427 27.8864 27.8927 21.6464 27.8927 13.9464C27.8927 6.2464 21.6427 -0.0036 13.9427 -0.0036C6.2527 -0.0036 0.0027 6.2464 0.0027 13.9464C0.0027 21.6464 6.2527 27.8864 13.9427 27.8864ZM13.9427 25.5664C7.5227 25.5664 2.3227 20.3664 2.3227 13.9464C2.3227 7.5164 7.5227 2.3264 13.9427 2.3264C20.3727 2.3264 25.5627 7.5164 25.5627 13.9464C25.5627 20.3664 20.3727 25.5664 13.9427 25.5664ZM10.8127 8.8364C10.8127 10.2164 11.7327 11.3864 12.9927 11.7864V18.6664C12.9927 20.6564 13.3127 22.4364 13.9327 22.4364C14.5627 22.4364 14.8627 20.6864 14.8627 18.6664V11.7864C16.1327 11.4064 17.0527 10.2264 17.0527 8.8364C17.0527 7.1064 15.6527 5.7164 13.9327 5.7164C12.2227 5.7164 10.8127 7.1064 10.8127 8.8364ZM12.1427 8.0264C12.1227 7.4964 12.6027 7.0264 13.1227 7.0264C13.6727 7.0264 14.1227 7.4964 14.1227 8.0264C14.1227 8.5564 13.6727 9.0264 13.1227 9.0264C12.6027 9.0264 12.1427 8.5564 12.1427 8.0264Z"
        fillRule="evenodd"
        clipRule="evenodd"
    />
</svg>
        