
<svg
    viewBox={0 0 27.890625 27.890625}
    xmlns="http://www.w3.org/2000/svg"
>
    <path
        fill="inherit"
        d="M13.9427 27.8864C21.6427 27.8864 27.8927 21.6464 27.8927 13.9464C27.8927 6.2464 21.6427 -0.0036 13.9427 -0.0036C6.2527 -0.0036 0.0027 6.2464 0.0027 13.9464C0.0027 21.6464 6.2527 27.8864 13.9427 27.8864ZM13.9427 25.5664C7.5227 25.5664 2.3227 20.3664 2.3227 13.9464C2.3227 7.5164 7.5227 2.3264 13.9427 2.3264C20.3727 2.3264 25.5627 7.5164 25.5627 13.9464C25.5627 20.3664 20.3727 25.5664 13.9427 25.5664ZM11.0927 8.2264C11.0927 9.5264 11.9627 10.6364 13.1627 10.9764V15.6164C13.1627 17.7564 13.5327 18.9864 13.9327 18.9864C14.3427 18.9864 14.7127 17.7864 14.7127 15.6164V10.9764C15.9027 10.6364 16.7727 9.5264 16.7727 8.2264C16.7727 6.6564 15.5127 5.3864 13.9327 5.3864C12.3427 5.3864 11.0927 6.6564 11.0927 8.2264ZM13.1427 8.3564C12.6727 8.3564 12.2227 7.9464 12.2227 7.4364C12.2227 6.9364 12.6727 6.5264 13.1427 6.5264C13.6627 6.5264 14.0727 6.9364 14.0727 7.4364C14.0727 7.9464 13.6627 8.3564 13.1427 8.3564ZM13.9327 21.6664C18.3727 21.6664 20.9827 20.1064 20.9827 18.4264C20.9827 16.3764 17.7327 15.1864 15.6827 15.2064V16.4564C17.1027 16.4464 19.3327 17.2164 19.3327 18.2564C19.3327 19.4564 17.0727 20.3264 13.9327 20.3264C10.7727 20.3264 8.5427 19.4564 8.5427 18.2564C8.5427 17.2164 10.7627 16.4464 12.1827 16.4564V15.2064C10.1327 15.1864 6.8727 16.3764 6.8727 18.4264C6.8727 20.1064 9.4927 21.6664 13.9327 21.6664Z"
        fillRule="evenodd"
        clipRule="evenodd"
    />
</svg>
        