
<svg
    viewBox="0 0 25.169921875 25.169921875"
    xmlns="http://www.w3.org/2000/svg"
>
    <path
        fill="inherit"
        d="M4.2937 25.1692H20.8737C23.7437 25.1692 25.1737 23.7592 25.1737 20.9492V4.2392C25.1737 1.4192 23.7437 -0.0008 20.8737 -0.0008H4.2937C1.4337 -0.0008 0.0037 1.4192 0.0037 4.2392V20.9492C0.0037 23.7592 1.4337 25.1692 4.2937 25.1692ZM9.3637 7.2992C9.3637 5.5192 10.8237 4.0892 12.5937 4.0892C14.3737 4.0892 15.8137 5.5192 15.8137 7.2992C15.8137 8.7492 14.8737 9.9492 13.5637 10.3492V17.4192C13.5637 19.5092 13.2437 21.3292 12.5937 21.3292C11.9537 21.3292 11.6037 19.4792 11.6037 17.4192V10.3492C10.3237 9.9392 9.3637 8.7392 9.3637 7.2992ZM10.7437 6.4692C10.7437 7.0292 11.2237 7.5092 11.7537 7.5092C12.3137 7.5092 12.7837 7.0292 12.7837 6.4692C12.7937 5.9192 12.3137 5.4392 11.7537 5.4392C11.2237 5.4392 10.7337 5.9192 10.7437 6.4692Z"
        fillRule="evenodd"
        clipRule="evenodd"
    />
</svg>
        