
<svg
    viewBox="0 0 31.267578125 30.556640625"
    xmlns="http://www.w3.org/2000/svg"
>
    <path
        fill="inherit"
        d="M9.2737 7.8463C10.5537 8.8762 12.1237 9.6263 13.8237 9.9263V1.0263L15.6437 -0.0038L17.4437 1.0263V9.9263C19.1437 9.6263 20.7137 8.8762 21.9837 7.8463L25.2937 9.7363C22.8037 12.1962 19.3837 13.7263 15.6437 13.7263C11.8637 13.7263 8.4637 12.1962 5.9737 9.7363ZM13.2737 30.5563L9.9837 28.6563C10.2437 27.0163 10.0937 25.2963 9.5137 23.6763L1.8137 28.1063L0.0037 27.0563V24.9963L7.7137 20.5363C6.5737 19.2063 5.1637 18.2362 3.6237 17.6463V13.8363C6.9837 14.7563 9.9937 16.9363 11.8837 20.2063C13.7637 23.4563 14.1537 27.1763 13.2737 30.5563ZM27.6437 13.8363V17.6463C26.1037 18.2362 24.6937 19.2063 23.5537 20.5363L31.2637 24.9963V27.0563L29.4637 28.1063L21.7637 23.6763C21.1637 25.2963 21.0237 27.0163 21.2837 28.6563L17.9937 30.5563C17.1037 27.1763 17.5037 23.4563 19.3837 20.2063C21.2637 16.9363 24.2937 14.7563 27.6437 13.8363Z"
        fillRule="evenodd"
        clipRule="evenodd"
    />
</svg>
        