<svg viewBox="0 0 27.603515625 31.944364875117586" xmlns="http://www.w3.org/2000/svg"><path d="M14.2637 16.2569L27.5637 8.6269V8.4769C27.4237 7.3969 26.9237 6.8369 25.9337 6.2669L16.2537 0.7169C14.6037 -0.2431 13.0037 -0.2331 11.3437 0.7169L1.6837 6.2269C0.6937 6.7869 0.1737 7.3669 0.0237 8.5469V8.6969L13.3837 16.2669C13.6337 16.4169 14.0137 16.4069 14.2637 16.2569ZM14.1537 13.5669C13.9437 13.6769 13.6737 13.6769 13.4537 13.5669L3.6137 7.9269C3.4637 7.8469 3.4437 7.6969 3.5937 7.6169L12.2637 2.6769C13.3137 2.0769 14.2837 2.0669 15.3537 2.6769L24.0037 7.6469C24.1737 7.7269 24.1737 7.9069 24.0237 7.9869ZM1.9137 25.5169L12.6737 31.6069C13.4437 32.0469 14.1637 32.0669 14.9437 31.6069L25.6937 25.4569C26.9437 24.7369 27.6037 24.0769 27.6037 22.1269V10.4869L14.5637 17.9269C14.1137 18.1869 13.5337 18.1869 13.0837 17.9369L0.0037 10.5169V22.1269C0.0037 24.0769 0.6737 24.8069 1.9137 25.5169ZM26.5337 14.6169L23.9437 16.0969V14.7969L26.5337 13.3169ZM1.7137 15.1269C1.2837 14.8769 0.9437 14.3569 0.9437 13.9369C0.9437 13.5269 1.2737 13.3869 1.6837 13.6169C2.0937 13.8669 2.4437 14.3969 2.4437 14.8069C2.4437 15.2169 2.1037 15.3569 1.7137 15.1269ZM5.7937 17.2969L3.2037 15.8069V14.4969L5.7937 15.9869ZM22.2837 17.1769C21.8737 17.4069 21.5437 17.2869 21.5437 16.8769C21.5437 16.4669 21.8937 15.9169 22.3137 15.6669C22.7237 15.4369 23.0537 15.5769 23.0537 15.9869C23.0537 16.3969 22.6937 16.9369 22.2837 17.1769ZM7.4937 18.4269C7.0637 18.1869 6.7437 17.6569 6.7437 17.2469C6.7437 16.8269 7.0637 16.6769 7.4737 16.9269C7.8937 17.1569 8.2337 17.6969 8.2337 18.1069C8.2337 18.5169 7.9037 18.6669 7.4937 18.4269ZM17.4637 27.2769V19.0769C17.4637 18.6469 17.5237 18.4769 17.8837 18.2669L20.1137 16.9969C20.4437 16.8169 20.7637 16.9669 20.7637 17.3269V25.3869ZM11.5837 20.6169L8.9837 19.1269V17.8169L11.5837 19.3069ZM15.7937 20.8969C15.3837 21.1269 15.0537 20.9869 15.0537 20.5769C15.0537 20.1669 15.4237 19.6169 15.8137 19.3869C16.2237 19.1469 16.5537 19.2769 16.5537 19.6869C16.5537 20.0969 16.2137 20.6469 15.7937 20.8969Z" /></svg>