
<svg
    viewBox={0 0 19.701171875 31.422026300218334}
    xmlns="http://www.w3.org/2000/svg"
>
    <path
        fill="inherit"
        d="M17.4437 0.0025H2.2537C0.9437 0.0025 0.0037 0.9425 0.0037 2.2525V10.4825C0.0037 11.6225 0.3437 12.2625 1.1937 12.8525L7.2337 17.0325L7.4737 16.2325C7.6337 15.7625 7.8937 15.3825 8.1937 15.0925L7.9737 14.9325V2.0525H11.7337V14.9325L11.5237 15.0825C11.8437 15.3825 12.0737 15.7625 12.2337 16.2325L12.4937 17.0225L18.5137 12.8525C19.3737 12.2625 19.7037 11.6025 19.7037 10.4825V2.2525C19.7037 0.9425 18.7437 0.0025 17.4437 0.0025ZM5.9037 13.6025L2.3637 11.0625C2.1737 10.9225 2.0637 10.7225 2.0637 10.4625V2.6925C2.0637 2.3425 2.3337 2.0525 2.6937 2.0525H5.9037ZM13.7937 13.6025V2.0525H17.0037C17.3637 2.0525 17.6337 2.3425 17.6337 2.6925V10.4625C17.6337 10.7225 17.5137 10.9225 17.3337 11.0625ZM5.9337 31.1825L9.8537 28.3025L13.7837 31.1825C14.5737 31.7825 15.4237 31.1625 15.1237 30.2325L13.5637 25.5925L17.5237 22.7625C18.2537 22.2325 18.0337 21.1625 17.0237 21.1825L12.1537 21.2225L10.6637 16.5525C10.3737 15.6525 9.3337 15.6525 9.0537 16.5525L7.5637 21.2225L2.6937 21.1825C1.6837 21.1625 1.4537 22.2125 2.1837 22.7625L6.1537 25.5925L4.5937 30.2325C4.2937 31.1625 5.1437 31.7825 5.9337 31.1825Z"
        fillRule="evenodd"
        clipRule="evenodd"
    />
</svg>
        