
<svg
    viewBox={0 0 25.994704718338816 31.1171875}
    xmlns="http://www.w3.org/2000/svg"
>
    <path
        fill="inherit"
        d="M13.0008 31.113C17.9508 31.113 21.9508 27.113 21.9508 22.163C21.9508 20.413 21.4608 18.783 20.6008 17.413L25.8108 7.643C26.0708 7.193 26.0508 6.673 25.7708 6.253L22.0608 0.573C21.7808 0.173 21.4308 0.003 20.9008 0.003H5.1008C4.5508 0.003 4.2108 0.173 3.9308 0.573L0.2208 6.253C-0.0592 6.673 -0.0692 7.193 0.1708 7.643L5.3808 17.413C4.5208 18.783 4.0308 20.413 4.0308 22.163C4.0308 27.113 8.0408 31.113 13.0008 31.113ZM5.7908 2.063H20.1908L17.9308 6.273H8.0608ZM2.2708 6.893L4.4708 3.513L9.6908 13.813C8.6008 14.243 7.6008 14.903 6.7608 15.713ZM21.5208 3.513L23.7308 6.893L19.2308 15.713C18.3908 14.903 17.4008 14.243 16.2908 13.813ZM13.0008 13.193C12.5908 13.193 12.1908 13.223 11.8108 13.263L9.1708 8.343H16.8308L14.1708 13.263C13.7908 13.223 13.3908 13.193 13.0008 13.193ZM13.0008 29.053C9.1808 29.053 6.0908 25.973 6.0908 22.163C6.0908 18.343 9.1708 15.253 13.0008 15.253C16.8008 15.253 19.8908 18.333 19.8908 22.163C19.8908 25.963 16.8108 29.053 13.0008 29.053ZM10.5908 26.483L13.0108 24.723L15.4008 26.483C15.9208 26.853 16.4408 26.473 16.2508 25.893L15.2808 23.033L17.7308 21.283C18.1808 20.973 18.0608 20.313 17.4108 20.313L14.4208 20.343L13.5008 17.473C13.3308 16.903 12.6708 16.903 12.4908 17.473L11.5808 20.343L8.5808 20.313C7.9508 20.313 7.8008 20.963 8.2808 21.303L10.7208 23.033L9.7608 25.893C9.5708 26.473 10.0908 26.853 10.5908 26.483Z"
        fillRule="evenodd"
        clipRule="evenodd"
    />
</svg>
        