
<svg
    viewBox={0 0 29.743242455511236 29.719967400231056}
    xmlns="http://www.w3.org/2000/svg"
>
    <path
        fill="inherit"
        d="M20.6589 1.4712L28.2489 9.0712L28.3189 9.0012C30.3689 6.9712 30.1389 3.7312 28.0689 1.6712C26.0089 -0.3888 22.7689 -0.6188 20.7289 1.4012ZM2.6389 24.4912L5.2289 27.0812L6.9389 25.3712C10.3789 21.9412 14.4089 22.9212 18.0089 19.3212L27.1589 10.1812L19.5389 2.5612L10.3989 11.7212C6.6389 15.4812 7.7989 19.3412 4.3489 22.7812ZM14.8389 14.9512C13.9489 14.0612 13.9789 12.6712 14.8389 11.8112L18.9689 7.6512C19.8289 6.7912 21.2189 6.7612 22.0689 7.6512C22.9589 8.4812 22.9589 9.8612 22.0689 10.7512L17.9389 14.9212C17.0789 15.7812 15.6889 15.8012 14.8389 14.9512ZM15.8189 13.9412C16.1589 14.2812 16.6689 14.3812 17.0389 14.0212L21.1789 9.8512C21.5489 9.4812 21.4389 8.9812 21.0989 8.6512C20.7289 8.3112 20.2089 8.2612 19.8389 8.6312L15.8189 12.6712C15.4689 13.0212 15.4689 13.5812 15.8189 13.9412ZM11.8689 16.2912C11.4889 15.9312 11.5689 15.4312 11.8689 15.1112C12.1889 14.7912 12.6589 14.7612 13.0289 15.1112L14.6189 16.6912C14.9889 17.0412 14.9289 17.5512 14.6189 17.8812C14.3189 18.1812 13.8289 18.2212 13.4389 17.8512ZM0.6089 29.1112C1.3889 29.9212 2.4189 29.9212 3.2189 29.1112L3.9289 28.4212L1.3189 25.8112L0.6089 26.5212C-0.2011 27.3212 -0.2011 28.3512 0.6089 29.1112Z"
        fillRule="evenodd"
        clipRule="evenodd"
    />
</svg>
        