
<svg
    viewBox="0 0 29.924359124927257 29.9208984375"
    xmlns="http://www.w3.org/2000/svg"
>
    <path
        fill="inherit"
        d="M2.6155 24.7106L5.2055 27.3106L6.7555 25.7506C10.2355 22.2306 14.4955 23.4306 18.1855 19.7406L28.2355 9.6906C30.4855 7.4206 30.4855 3.9306 28.2355 1.6906C25.9855 -0.5594 22.4855 -0.5594 20.2355 1.6906L10.1855 11.7406C6.3055 15.6206 7.6955 19.6706 4.1855 23.1606ZM26.7855 3.1406C28.1955 4.5606 28.2155 6.7606 26.7955 8.2006L21.7255 3.1306C23.1355 1.7006 25.3455 1.7206 26.7855 3.1406ZM8.3855 19.5206C9.1155 17.4106 9.6255 15.2306 11.6455 13.2006L20.6555 4.1806L25.7355 9.2706L16.7255 18.2806C14.6855 20.3106 12.5755 20.8706 10.5255 21.6706ZM14.9255 15.0306C15.7455 15.8706 17.1055 15.8606 17.9355 15.0206L21.9555 10.9706C22.8155 10.1106 22.8055 8.7706 21.9555 7.9706C21.1255 7.1106 19.7855 7.1506 18.9455 7.9706L14.9255 12.0006C14.0955 12.8206 14.0855 14.1906 14.9255 15.0306ZM15.8055 14.1506C15.4455 13.7906 15.4455 13.2406 15.8055 12.8706L19.8255 8.8406C20.1355 8.5306 20.6155 8.5006 20.9555 8.7706C21.4255 9.0906 21.4755 9.7006 21.0855 10.1006L17.0755 14.1306C16.7055 14.4906 16.1455 14.4906 15.8055 14.1506ZM12.0455 16.3306L13.5855 17.8706C13.9455 18.2206 14.4355 18.1706 14.7255 17.8806C15.0355 17.5606 15.0755 17.0906 14.7255 16.7306L13.1755 15.2006C12.8355 14.8706 12.3455 14.8806 12.0455 15.2006C11.7555 15.5006 11.7055 16.0106 12.0455 16.3306ZM0.6155 26.7106C-0.2145 27.5406 -0.1945 28.5306 0.6155 29.3206C1.3955 30.1206 2.4055 30.1306 3.2255 29.3106L3.9355 28.6106L1.3155 26.0106Z"
        fillRule="evenodd"
        clipRule="evenodd"
    />
</svg>
        