
<svg
    viewBox={0 0 30.447265625 28.885705793397886}
    xmlns="http://www.w3.org/2000/svg"
>
    <path
        fill="inherit"
        d="M0.0037 14.3823C0.0037 17.5823 1.5837 19.4723 4.5937 19.8423L7.5837 26.4723C8.7137 28.9723 10.6537 29.1223 11.9737 28.7123C13.3137 28.2823 14.1337 27.0423 13.7837 25.2223L12.8237 20.2523C16.5737 20.9423 20.3737 22.2723 23.7937 24.2523C24.1537 25.7323 25.3937 26.6623 27.0537 26.6623C29.0937 26.6623 30.4437 25.3023 30.4437 23.2823V3.3723C30.4437 1.3523 29.0937 0.0023 27.0537 0.0023C25.3437 0.0023 24.1037 0.9823 23.7637 2.5323C19.7437 4.9123 14.6137 6.4123 10.5537 6.8523H5.7237C1.9837 6.8523 0.0037 8.7823 0.0037 12.3723ZM25.8937 23.2823V3.3723C25.8937 2.6623 26.3437 2.2023 27.0537 2.2023C27.7637 2.2023 28.2437 2.6623 28.2437 3.3723V23.2823C28.2437 23.9923 27.7637 24.4623 27.0537 24.4623C26.3437 24.4623 25.8937 23.9923 25.8937 23.2823ZM10.8437 17.7423V8.9923C15.4737 8.4623 19.8937 7.1523 23.6837 4.9923V21.7623C19.7937 19.5523 15.4337 18.2823 10.8437 17.7423ZM5.7237 17.7023C3.2237 17.7023 2.2037 16.7323 2.2037 14.3823V12.3723C2.2037 10.0123 3.2237 9.0523 5.7237 9.0523H8.6237V17.7023ZM9.7637 26.0723L6.8737 19.9023H10.4737C10.5437 19.9023 10.6137 19.9223 10.6737 19.9223L11.7837 25.5523C11.8937 26.1723 11.5837 26.5623 11.1437 26.7123C10.6737 26.8823 10.0737 26.7323 9.7637 26.0723Z"
        fillRule="evenodd"
        clipRule="evenodd"
    />
</svg>
        