
<svg
    viewBox="0 0 30.447265625 29.17578125"
    xmlns="http://www.w3.org/2000/svg"
>
    <path
        fill="inherit"
        d="M27.6537 26.669C29.3237 26.669 30.4437 25.539 30.4437 23.899V2.789C30.4437 1.139 29.3237 -0.001 27.6537 -0.001C26.0137 -0.001 24.8837 1.139 24.8837 2.789V23.899C24.8837 25.539 26.0137 26.669 27.6537 26.669ZM10.5437 19.929C14.4137 20.359 19.2537 21.489 23.0137 23.339V3.429C19.2137 5.289 14.0637 6.469 10.5437 6.849ZM5.7237 19.919H8.6637V6.849H5.7237C1.9937 6.849 0.0037 8.789 0.0037 12.389V14.379C0.0037 17.969 1.9937 19.919 5.7237 19.919ZM11.1737 29.179C12.8637 29.179 14.1137 27.989 13.6737 25.879L12.9037 22.199C11.8637 22.029 10.3237 21.899 6.8637 21.809C6.6137 21.809 6.1937 21.779 5.7537 21.779L8.0537 26.799C8.7337 28.289 9.5837 29.179 11.1737 29.179Z"
        fillRule="evenodd"
        clipRule="evenodd"
    />
</svg>
        