
<svg
    viewBox={0 0 31.0625 27.890625}
    xmlns="http://www.w3.org/2000/svg"
>
    <path
        fill="inherit"
        d="M17.1146 27.8864C24.8146 27.8864 31.0646 21.6264 31.0646 13.9464C31.0646 6.2464 24.8146 -0.0036 17.1146 -0.0036C10.0646 -0.0036 4.2246 5.2464 3.2946 12.0464L2.0646 10.2964C1.8446 9.9764 1.5346 9.7764 1.1246 9.7764C0.4946 9.7764 0.0046 10.2264 0.0046 10.8564C0.0046 11.1264 0.0846 11.3864 0.2446 11.5964L3.1346 15.1364C3.5546 15.6864 3.9146 15.8764 4.4546 15.8764C4.8146 15.8764 5.0846 15.7764 5.4246 15.5264L8.9946 12.8964C9.2946 12.6764 9.4646 12.3464 9.4646 11.9864C9.4646 11.3464 8.9546 10.8864 8.3846 10.8864C8.1246 10.8864 7.8846 10.9664 7.6846 11.1164L5.5546 12.7864C6.1246 6.9064 11.0746 2.3264 17.1146 2.3264C23.5446 2.3264 28.7346 7.5164 28.7346 13.9464C28.7346 20.3664 23.5446 25.5664 17.1146 25.5664C12.8646 25.5664 9.8346 23.3064 8.3446 21.5764C8.0346 21.2164 7.6846 21.0864 7.3446 21.0864C6.7846 21.0864 6.2646 21.5164 6.2646 22.1464C6.2646 22.4664 6.3546 22.8064 6.6546 23.1564C8.2146 24.9964 11.8446 27.8864 17.1146 27.8864ZM13.6046 18.4264C13.6046 19.0464 14.2846 19.3364 14.8846 18.9764L22.2046 14.6464C22.7346 14.3264 22.7246 13.5764 22.2046 13.2664L14.8846 8.9264C14.3246 8.5964 13.6046 8.8464 13.6046 9.4764Z"
        fillRule="evenodd"
        clipRule="evenodd"
    />
</svg>
        