
<svg
    viewBox={0 0 29.298828125 23.775390625}
    xmlns="http://www.w3.org/2000/svg"
>
    <path
        fill="inherit"
        d="M4.2937 21.0983H4.7137V22.6683C4.7137 23.3283 5.1537 23.7783 5.8137 23.7783C6.4637 23.7783 6.9137 23.3283 6.9137 22.6683V21.0983H9.1337V22.6683C9.1337 23.3283 9.5737 23.7783 10.2237 23.7783C10.8837 23.7783 11.3337 23.3283 11.3337 22.6683V21.0983H13.5537V22.6683C13.5537 23.3283 13.9837 23.7783 14.6437 23.7783C15.3037 23.7783 15.7537 23.3283 15.7537 22.6683V21.0983H17.9637V22.6683C17.9637 23.3283 18.4137 23.7783 19.0737 23.7783C19.7237 23.7783 20.1637 23.3283 20.1637 22.6683V21.0983H22.3837V22.6683C22.3837 23.3283 22.8337 23.7783 23.4837 23.7783C24.1437 23.7783 24.5837 23.3283 24.5837 22.6683V21.0983H25.0037C27.8737 21.0983 29.3037 19.6783 29.3037 16.8583V6.9183C29.3037 4.0983 27.8737 2.6783 25.0037 2.6783H24.5837V1.0983C24.5837 0.4383 24.1437 -0.0017 23.4837 -0.0017C22.8337 -0.0017 22.3837 0.4383 22.3837 1.0983V2.6783H20.1637V1.0983C20.1637 0.4383 19.7237 -0.0017 19.0737 -0.0017C18.4137 -0.0017 17.9637 0.4383 17.9637 1.0983V2.6783H15.7537V1.0983C15.7537 0.4383 15.3037 -0.0017 14.6437 -0.0017C13.9837 -0.0017 13.5537 0.4383 13.5537 1.0983V2.6783H11.3337V1.0983C11.3337 0.4383 10.8837 -0.0017 10.2237 -0.0017C9.5737 -0.0017 9.1337 0.4383 9.1337 1.0983V2.6783H6.9137V1.0983C6.9137 0.4383 6.4637 -0.0017 5.8137 -0.0017C5.1537 -0.0017 4.7137 0.4383 4.7137 1.0983V2.6783H4.2937C1.4337 2.6783 0.0037 4.0883 0.0037 6.9183V16.8583C0.0037 19.6883 1.4337 21.0983 4.2937 21.0983Z"
        fillRule="evenodd"
        clipRule="evenodd"
    />
</svg>
        