
<svg
    viewBox={0 0 22.72265625 30.706433532195256}
    xmlns="http://www.w3.org/2000/svg"
>
    <path
        fill="inherit"
        d="M2.6937 27.8721L18.2337 30.6121C21.0237 31.1121 22.7237 29.5621 22.7237 26.5121V9.6021C22.7237 8.1121 22.3137 7.1321 21.5037 6.4621V3.8021C21.5037 0.9321 19.5737 -0.4479 16.3337 0.1321L2.2737 2.6121C0.8737 2.7821 0.0037 3.8321 0.0037 5.4721V24.7621C0.0037 26.5321 0.9037 27.5521 2.6937 27.8721ZM18.5137 5.3221L8.6937 3.5821L17.1137 2.1921C18.4837 1.9621 19.3037 2.5321 19.3037 3.7221V5.4921C19.0437 5.4221 18.7837 5.3621 18.5137 5.3221ZM3.2237 25.6921C2.5337 25.5821 2.2037 25.1721 2.2037 24.4521V5.8421C2.2037 5.1021 2.6937 4.7321 3.5037 4.8721L18.4037 7.4821C19.7837 7.7421 20.5237 8.3021 20.5237 9.5721V26.2821C20.5237 27.8321 19.6237 28.6021 18.1437 28.3321ZM5.6237 10.8921L16.1637 12.7521C16.8037 12.8521 17.2037 12.4621 17.2037 11.8821C17.2037 11.3621 16.9437 11.0921 16.4637 11.0021L5.9737 9.1621C5.3437 9.0521 4.9037 9.4221 4.9037 9.9821C4.9037 10.4621 5.1637 10.8021 5.6237 10.8921ZM5.6237 16.2221L16.1637 18.0821C16.8037 18.1921 17.2037 17.7921 17.2037 17.2221C17.2037 16.7021 16.9437 16.4221 16.4637 16.3321L5.9737 14.5021C5.3437 14.3921 4.9037 14.7521 4.9037 15.3221C4.9037 15.7921 5.1637 16.1421 5.6237 16.2221Z"
        fillRule="evenodd"
        clipRule="evenodd"
    />
</svg>
        