
<svg
    viewBox={0 0 32.23828125 25.169921875}
    xmlns="http://www.w3.org/2000/svg"
>
    <path
        fill="inherit"
        d="M4.2937 25.1692H27.9437C30.8137 25.1692 32.2337 23.7592 32.2337 20.9492V4.2392C32.2337 1.4192 30.8137 -0.0008 27.9437 -0.0008H4.2937C1.4337 -0.0008 0.0037 1.4192 0.0037 4.2392V20.9492C0.0037 23.7592 1.4337 25.1692 4.2937 25.1692ZM2.2037 4.3592C2.2037 2.9392 2.9537 2.1992 4.3237 2.1992H27.9137C29.2737 2.1992 30.0337 2.9392 30.0337 4.3592V4.6092H2.2037ZM4.3237 22.9692C2.9537 22.9692 2.2037 22.2392 2.2037 20.8192V6.5392H30.0337V20.8192C30.0337 22.2392 29.2737 22.9692 27.9137 22.9692ZM16.1337 9.1692C15.5437 9.1692 15.0437 9.6492 15.0437 10.2292V14.7392L15.1337 17.0392L13.9637 15.8092L12.1837 14.0292C11.9637 13.8192 11.6937 13.6992 11.4137 13.6992C10.8437 13.6992 10.4337 14.0992 10.4337 14.6692C10.4337 14.9892 10.5537 15.2192 10.7837 15.4392L15.3437 19.6692C15.6237 19.9292 15.8437 20.0392 16.1337 20.0392C16.4037 20.0392 16.6437 19.9292 16.9237 19.6692L21.4637 15.4392C21.7137 15.2192 21.8337 14.9892 21.8337 14.6692C21.8337 14.0992 21.4137 13.6992 20.8237 13.6992C20.5537 13.6992 20.2937 13.8192 20.0837 14.0292L18.3037 15.8092L17.1337 17.0392L17.2137 14.7392V10.2292C17.2137 9.6492 16.7237 9.1692 16.1337 9.1692Z"
        fillRule="evenodd"
        clipRule="evenodd"
    />
</svg>
        