
<svg
    viewBox="0 0 32.23828125 25.169921875"
    xmlns="http://www.w3.org/2000/svg"
>
    <path
        fill="inherit"
        d="M4.2937 25.1692H27.9437C30.8137 25.1692 32.2337 23.7592 32.2337 20.9492V4.2392C32.2337 1.4192 30.8137 -0.0008 27.9437 -0.0008H4.2937C1.4337 -0.0008 0.0037 1.4192 0.0037 4.2392V20.9492C0.0037 23.7592 1.4337 25.1692 4.2937 25.1692ZM2.2037 4.3592C2.2037 2.9392 2.9537 2.1992 4.3237 2.1992H27.9137C29.2737 2.1992 30.0337 2.9392 30.0337 4.3592V4.6092H2.2037ZM4.3237 22.9692C2.9537 22.9692 2.2037 22.2392 2.2037 20.8192V6.5392H30.0337V20.8192C30.0337 22.2392 29.2737 22.9692 27.9137 22.9692ZM16.1337 20.0392C16.7237 20.0392 17.2137 19.5492 17.2137 18.9792V14.4692L17.1337 12.1692L18.3037 13.3992L20.0837 15.1792C20.2937 15.3792 20.5537 15.4992 20.8237 15.4992C21.4137 15.4992 21.8337 15.1092 21.8337 14.5292C21.8337 14.2192 21.7137 13.9892 21.4637 13.7792L16.9237 9.5392C16.6437 9.2692 16.4037 9.1692 16.1337 9.1692C15.8437 9.1692 15.6237 9.2692 15.3437 9.5392L10.7837 13.7792C10.5537 13.9892 10.4337 14.2192 10.4337 14.5292C10.4337 15.1092 10.8437 15.4992 11.4137 15.4992C11.6937 15.4992 11.9637 15.3792 12.1837 15.1792L13.9637 13.3992L15.1337 12.1692L15.0437 14.4692V18.9792C15.0437 19.5492 15.5437 20.0392 16.1337 20.0392Z"
        fillRule="evenodd"
        clipRule="evenodd"
    />
</svg>
        