
<svg
    viewBox={0 0 31.0078125 28.642578125}
    xmlns="http://www.w3.org/2000/svg"
>
    <path
        fill="inherit"
        d="M5.9327 28.6455C7.7827 28.6455 11.5527 26.7855 14.3327 24.8055C23.8527 25.0655 31.0127 19.5955 31.0127 12.4255C31.0127 5.5555 24.1127 -0.0045 15.5027 -0.0045C6.8927 -0.0045 0.0027 5.5555 0.0027 12.4255C0.0027 16.9155 2.8727 20.8955 7.1927 22.8855C6.5727 24.0755 5.4327 25.6855 4.8127 26.4955C4.0927 27.4555 4.5227 28.6455 5.9327 28.6455ZM7.3727 26.3755C7.2627 26.4155 7.2227 26.3355 7.2827 26.2355C8.0527 25.2955 9.1427 23.8755 9.6127 22.9955C9.9927 22.2855 9.9027 21.6555 9.0227 21.2455C4.7327 19.2455 2.2727 16.0655 2.2727 12.4255C2.2727 6.8255 8.1327 2.2555 15.5027 2.2555C22.8827 2.2555 28.7527 6.8255 28.7527 12.4255C28.7527 18.0155 22.8827 22.5855 15.5027 22.5855C15.2327 22.5855 14.8027 22.5755 14.2627 22.5555C13.6827 22.5555 13.2527 22.7355 12.7327 23.1455C11.0427 24.3655 8.6127 25.8655 7.3727 26.3755Z"
        fillRule="evenodd"
        clipRule="evenodd"
    />
</svg>
        