
<svg
    viewBox="0 0 27.890625 27.890625"
    xmlns="http://www.w3.org/2000/svg"
>
    <path
        fill="inherit"
        d="M13.9427 27.8927C21.6427 27.8927 27.8927 21.6427 27.8927 13.9427C27.8927 6.2627 21.6427 0.0027 13.9427 0.0027C6.2627 0.0027 0.0027 6.2627 0.0027 13.9427C0.0027 21.6427 6.2627 27.8927 13.9427 27.8927ZM13.9427 19.8927C13.6327 19.8927 13.3427 19.8827 13.0727 19.8627C12.9227 19.8527 12.8427 19.8927 12.6827 20.0027C11.2927 20.8327 9.8827 21.4227 9.1027 21.4227C8.4927 21.4227 8.3827 20.9427 8.7727 20.4827C9.0627 20.1527 9.4727 19.7127 9.7027 19.2527C9.7927 19.1027 9.7927 18.9327 9.6127 18.8427C7.5427 17.6327 6.1527 15.7327 6.1527 13.5227C6.1527 10.0127 9.5727 7.1627 13.9427 7.1627C18.3227 7.1627 21.7427 10.0127 21.7427 13.5227C21.7427 17.0327 18.3227 19.8927 13.9427 19.8927Z"
        fillRule="evenodd"
        clipRule="evenodd"
    />
</svg>
        