
<svg
    viewBox={0 0 31.0078125 28.505859375}
    xmlns="http://www.w3.org/2000/svg"
>
    <path
        fill="inherit"
        d="M5.4127 28.5072C7.0527 28.5072 11.1427 26.7172 13.4627 25.0472C13.7027 24.8872 13.8927 24.8172 14.0827 24.8172C14.2627 24.8272 14.4327 24.8372 14.6127 24.8372C24.4727 24.8372 31.0127 19.2372 31.0127 12.4272C31.0127 5.5472 24.1127 -0.0028 15.5027 -0.0028C6.8927 -0.0028 0.0027 5.5472 0.0027 12.4272C0.0027 16.8072 2.6927 20.6472 7.0827 22.9972C7.2827 23.1072 7.3527 23.3072 7.2427 23.5172C6.4827 24.7772 5.1127 26.2772 4.5927 26.9572C4.0627 27.6472 4.3627 28.5072 5.4127 28.5072Z"
        fillRule="evenodd"
        clipRule="evenodd"
    />
</svg>
        