
<svg
    viewBox={0 0 27.890625 27.890625}
    xmlns="http://www.w3.org/2000/svg"
>
    <path
        fill="inherit"
        d="M13.9427 27.8864C21.6427 27.8864 27.8927 21.6464 27.8927 13.9464C27.8927 6.2464 21.6427 -0.0036 13.9427 -0.0036C6.2527 -0.0036 0.0027 6.2464 0.0027 13.9464C0.0027 21.6464 6.2527 27.8864 13.9427 27.8864ZM13.9427 25.5664C7.5227 25.5664 2.3227 20.3664 2.3227 13.9464C2.3227 7.5164 7.5227 2.3264 13.9427 2.3264C20.3727 2.3264 25.5627 7.5164 25.5627 13.9464C25.5627 20.3664 20.3727 25.5664 13.9427 25.5664ZM13.9327 19.7164C18.1727 19.7164 21.4927 16.9364 21.4927 13.5364C21.4927 10.1264 18.1727 7.3564 13.9327 7.3564C9.6927 7.3564 6.3727 10.1264 6.3727 13.5364C6.3727 15.6864 7.7227 17.5264 9.7327 18.6864C9.9027 18.7864 9.9027 18.9364 9.8127 19.0864C9.5927 19.5364 9.2027 19.9564 8.9127 20.2764C8.5327 20.7164 8.6427 21.1864 9.2427 21.1864C9.9927 21.1864 11.3627 20.6264 12.7127 19.7964C12.8527 19.7164 12.9327 19.6764 13.0827 19.6864C13.3427 19.6964 13.6327 19.7164 13.9327 19.7164Z"
        fillRule="evenodd"
        clipRule="evenodd"
    />
</svg>
        