
<svg
    viewBox={0 0 28.65625 25.9765625}
    xmlns="http://www.w3.org/2000/svg"
>
    <path
        fill="inherit"
        d="M13.2209 13.0177V6.1677C13.2209 5.4777 13.6309 5.0477 14.3109 5.0477C15.0009 5.0477 15.3909 5.4777 15.3909 6.1677V15.1877L17.8309 17.6277H26.5509L17.5109 1.8777C16.8009 0.6277 15.5909 -0.0023 14.3309 -0.0023C13.0709 -0.0023 11.8409 0.6277 11.1409 1.8777L7.8309 7.6377ZM12.0909 17.6277H15.1709L3.3609 5.7977C2.9009 5.3477 2.3009 5.3277 1.8009 5.7977C1.3309 6.2777 1.3509 6.9077 1.8209 7.3677ZM4.7709 12.9577L2.1009 17.6277H9.4309ZM28.1209 20.3577L27.5909 19.4177H1.0709L0.5309 20.3577C0.1609 20.9677 0.0009 21.6277 0.0009 22.2677C0.0009 24.3677 1.4109 25.9777 3.7309 25.9777H24.9209C27.2509 25.9777 28.6609 24.3677 28.6609 22.2677C28.6609 21.6277 28.4609 20.9577 28.1209 20.3577Z"
        fillRule="evenodd"
        clipRule="evenodd"
    />
</svg>
        