<svg viewBox="0 0 19.564453125 29.2578125" xmlns="http://www.w3.org/2000/svg"><path d="M4.8138 13.9607C4.8138 17.1007 6.8338 19.3207 9.7938 19.3207C12.7237 19.3207 14.7538 17.1007 14.7538 13.9607V5.3607C14.7538 2.2007 12.7237 0.0007 9.7938 0.0007C6.8338 0.0007 4.8138 2.2007 4.8138 5.3607ZM6.8738 13.9607V5.3607C6.8738 3.3407 8.0438 2.0407 9.7938 2.0407C11.5438 2.0407 12.6838 3.3407 12.6838 5.3607V13.9607C12.6838 15.9807 11.5438 17.2807 9.7938 17.2807C8.0438 17.2807 6.8738 15.9807 6.8738 13.9607ZM0.0038 14.4507C0.0038 19.8107 3.5438 23.5707 8.7538 24.0107V27.1907H3.6738C3.1037 27.1907 2.6338 27.6607 2.6338 28.2307C2.6338 28.8107 3.1037 29.2607 3.6738 29.2607H15.8838C16.4638 29.2607 16.9237 28.8107 16.9237 28.2307C16.9237 27.6607 16.4638 27.1907 15.8838 27.1907H10.8138V24.0107C16.0338 23.5707 19.5638 19.8107 19.5638 14.4507V11.6807C19.5638 11.1007 19.1138 10.6507 18.5438 10.6507C17.9638 10.6507 17.5038 11.1007 17.5038 11.6807V14.3707C17.5038 19.0307 14.4638 22.1207 9.7938 22.1207C5.1038 22.1207 2.0637 19.0307 2.0637 14.3707V11.6807C2.0637 11.1007 1.6137 10.6507 1.0237 10.6507C0.4538 10.6507 0.0038 11.1007 0.0038 11.6807Z" /></svg>