
<svg
    viewBox={0 0 23.254172111883236 29.2578125}
    xmlns="http://www.w3.org/2000/svg"
>
    <path
        fill="inherit"
        d="M16.391 5.3607C16.391 2.2007 14.361 0.0007 11.431 0.0007C8.721 0.0007 6.801 1.8607 6.501 4.5907V5.1407L8.511 7.1407V5.3607C8.511 3.3407 9.681 2.0407 11.431 2.0407C13.181 2.0407 14.321 3.3407 14.321 5.3607V12.6207C14.321 12.7307 14.321 12.8407 14.311 12.9307L16.311 14.9307C16.361 14.6107 16.391 14.2907 16.391 13.9607ZM21.461 25.3607C21.871 25.7707 22.541 25.7707 22.951 25.3607C23.351 24.9407 23.361 24.2807 22.951 23.8707L1.801 2.7307C1.391 2.3407 0.711 2.3207 0.301 2.7307C-0.099 3.1407 -0.099 3.8307 0.301 4.2207ZM1.641 14.4507C1.641 19.8107 5.181 23.5707 10.391 24.0107V27.1907H5.311C4.741 27.1907 4.271 27.6607 4.271 28.2307C4.271 28.8107 4.741 29.2607 5.311 29.2607H17.521C18.101 29.2607 18.561 28.8107 18.561 28.2307C18.561 27.6607 18.101 27.1907 17.521 27.1907H12.451V24.0107C14.001 23.8807 15.381 23.4607 16.581 22.7907L15.101 21.3307C14.051 21.8307 12.821 22.1207 11.431 22.1207C6.741 22.1207 3.701 19.0307 3.701 14.3707V11.6807C3.701 11.1007 3.251 10.6507 2.661 10.6507C2.091 10.6507 1.641 11.1007 1.641 11.6807ZM18.661 17.2707L20.261 18.8707C20.871 17.5807 21.201 16.0907 21.201 14.4507V11.6807C21.201 11.1007 20.751 10.6507 20.181 10.6507C19.601 10.6507 19.141 11.1007 19.141 11.6807V14.3707C19.141 15.4207 18.971 16.3907 18.661 17.2707ZM11.431 19.3207C11.941 19.3207 12.421 19.2407 12.861 19.0907L10.771 16.9807C10.661 17.0307 10.541 17.0507 10.411 17.0507C9.611 16.8707 9.031 16.2307 8.841 15.3907L8.831 15.0507L6.451 12.6707V13.9607C6.451 17.1007 8.471 19.3207 11.431 19.3207Z"
        fillRule="evenodd"
        clipRule="evenodd"
    />
</svg>
        