
<svg
    viewBox="0 0 27.890625 27.890625"
    xmlns="http://www.w3.org/2000/svg"
>
    <path
        fill="inherit"
        d="M13.9427 27.8864C21.6427 27.8864 27.8927 21.6264 27.8927 13.9464C27.8927 6.2464 21.6427 -0.0036 13.9427 -0.0036C6.2627 -0.0036 0.0027 6.2464 0.0027 13.9464C0.0027 21.6264 6.2627 27.8864 13.9427 27.8864ZM16.2827 13.3864L11.5927 8.6964V8.1064C11.5927 6.6864 12.5627 5.6364 13.9427 5.6364C15.3227 5.6364 16.2827 6.6864 16.2827 8.1064ZM20.7527 21.2064L6.5927 7.0564C6.3427 6.8064 6.3427 6.3864 6.5927 6.1564C6.8327 5.8964 7.2427 5.8964 7.5027 6.1564L21.6527 20.3064C21.9127 20.5664 21.9127 20.9564 21.6527 21.2064C21.4127 21.4764 21.0227 21.4764 20.7527 21.2064ZM15.6927 17.6864L16.8027 18.7964C16.1827 19.1564 15.4927 19.3864 14.7227 19.4664V20.8864H17.5427C17.9527 20.8864 18.3027 21.2464 18.3027 21.6564C18.3027 22.0564 17.9327 22.4064 17.5427 22.4064H10.3527C9.9427 22.4064 9.5927 22.0664 9.5927 21.6564C9.5927 21.2464 9.9427 20.8864 10.3527 20.8864H13.1927V19.4664C10.3727 19.1564 8.4927 17.0264 8.4927 14.1464V12.3364C8.4927 11.9364 8.8327 11.5964 9.2427 11.5964C9.6527 11.5964 9.9927 11.9364 9.9927 12.3364V14.1464C9.9927 16.4564 11.6227 18.0864 13.9427 18.0864C14.6127 18.0864 15.2027 17.9364 15.6927 17.6864ZM19.0427 16.1464L17.8027 14.9064C17.8527 14.6664 17.8927 14.4064 17.8927 14.1464V12.3364C17.8927 11.9364 18.2427 11.5964 18.6527 11.5964C19.0427 11.5964 19.4027 11.9364 19.4027 12.3364V14.1464C19.4027 14.8764 19.2727 15.5264 19.0427 16.1464ZM11.5927 13.6064L14.5427 16.5464C14.3727 16.6064 14.1827 16.6664 13.9427 16.6664C12.5627 16.6664 11.5927 15.5864 11.5927 14.1464Z"
        fillRule="evenodd"
        clipRule="evenodd"
    />
</svg>
        