
<svg
    viewBox="0 0 25.169921875 25.169921875"
    xmlns="http://www.w3.org/2000/svg"
>
    <path
        fill="inherit"
        d="M4.2937 25.1692H20.8737C23.7437 25.1692 25.1737 23.7592 25.1737 20.9492V4.2392C25.1737 1.4192 23.7437 -0.0008 20.8737 -0.0008H4.2937C1.4337 -0.0008 0.0037 1.4192 0.0037 4.2392V20.9492C0.0037 23.7592 1.4337 25.1692 4.2937 25.1692ZM12.5937 15.2992C11.2137 15.2992 10.2537 14.2192 10.2537 12.7792V6.7392C10.2537 5.3192 11.2137 4.2692 12.5937 4.2692C13.9737 4.2692 14.9337 5.3192 14.9337 6.7392V12.7792C14.9337 14.2192 13.9737 15.2992 12.5937 15.2992ZM9.0137 21.0392C8.6037 21.0392 8.2437 20.6992 8.2437 20.2892C8.2437 19.8792 8.6037 19.5192 9.0137 19.5192H11.8437V18.0992C9.0337 17.7892 7.1537 15.6592 7.1537 12.7792V10.9692C7.1537 10.5692 7.5037 10.2292 7.9037 10.2292C8.3137 10.2292 8.6437 10.5692 8.6437 10.9692V12.7792C8.6437 15.0892 10.2637 16.7192 12.5937 16.7192C14.9337 16.7192 16.5537 15.0892 16.5537 12.7792V10.9692C16.5537 10.5692 16.8837 10.2292 17.2937 10.2292C17.6937 10.2292 18.0437 10.5692 18.0437 10.9692V12.7792C18.0437 15.6592 16.1737 17.7692 13.3737 18.0992V19.5192H16.1837C16.5937 19.5192 16.9537 19.8792 16.9537 20.2892C16.9537 20.6892 16.5837 21.0392 16.1837 21.0392Z"
        fillRule="evenodd"
        clipRule="evenodd"
    />
</svg>
        