
<svg
    viewBox="0 0 23.254172111883236 29.12109375"
    xmlns="http://www.w3.org/2000/svg"
>
    <path
        fill="inherit"
        d="M11.431 0.004C8.731 0.004 6.931 1.954 6.861 4.794V5.344L15.941 14.424C15.961 14.324 15.981 14.204 15.981 14.094V4.954C15.981 2.024 14.151 0.004 11.431 0.004ZM21.461 25.224C21.871 25.634 22.541 25.634 22.951 25.224C23.351 24.804 23.361 24.144 22.951 23.734L1.801 2.594C1.391 2.204 0.711 2.184 0.301 2.594C-0.099 3.004 -0.099 3.694 0.301 4.084ZM1.641 14.314C1.641 19.674 5.181 23.434 10.391 23.874V27.054H5.311C4.741 27.054 4.271 27.524 4.271 28.094C4.271 28.674 4.741 29.124 5.311 29.124H17.521C18.101 29.124 18.561 28.674 18.561 28.094C18.561 27.524 18.101 27.054 17.521 27.054H12.451V23.874C14.001 23.744 15.381 23.334 16.571 22.664L15.101 21.194C14.051 21.694 12.821 21.984 11.431 21.984C6.741 21.984 3.701 18.894 3.701 14.234V11.544C3.701 10.964 3.251 10.514 2.661 10.514C2.091 10.514 1.641 10.964 1.641 11.544ZM18.661 17.134L20.261 18.734C20.871 17.444 21.201 15.954 21.201 14.314V11.544C21.201 10.964 20.751 10.514 20.181 10.514C19.601 10.514 19.141 10.964 19.141 11.544V14.234C19.141 15.284 18.971 16.254 18.661 17.134ZM11.431 19.044C11.891 19.044 12.341 18.974 12.741 18.824L6.861 12.944V14.094C6.861 17.004 8.691 19.044 11.431 19.044Z"
        fillRule="evenodd"
        clipRule="evenodd"
    />
</svg>
        