
<svg
    viewBox="0 0 28.765625 29.2578125"
    xmlns="http://www.w3.org/2000/svg"
>
    <path
        fill="inherit"
        d="M14.0137 13.9607C14.0137 17.1007 16.0337 19.3207 18.9737 19.3207C21.9337 19.3207 23.9537 17.1007 23.9537 13.9607V5.3607C23.9537 2.2007 21.9337 0.0007 18.9737 0.0007C16.0337 0.0007 14.0137 2.2007 14.0137 5.3607ZM16.0737 13.9607V5.3607C16.0737 3.3407 17.2237 2.0407 18.9737 2.0407C20.7237 2.0407 21.8937 3.3407 21.8937 5.3607V13.9607C21.8937 15.9807 20.7237 17.2807 18.9737 17.2807C17.2237 17.2807 16.0737 15.9807 16.0737 13.9607ZM2.2937 7.2007C3.5537 7.2007 4.5837 6.1807 4.5837 4.9207C4.5837 3.6507 3.5537 2.6207 2.2937 2.6207C1.0237 2.6207 0.0037 3.6507 0.0037 4.9207C0.0037 6.1807 1.0237 7.2007 2.2937 7.2007ZM2.2937 14.3107C3.5537 14.3107 4.5837 13.2907 4.5837 12.0307C4.5837 10.7607 3.5537 9.7307 2.2937 9.7307C1.0237 9.7307 0.0037 10.7607 0.0037 12.0307C0.0037 13.2907 1.0237 14.3107 2.2937 14.3107ZM9.2037 14.4507C9.2037 19.8107 12.7237 23.5707 17.9537 24.0107V27.1907H12.8837C12.3037 27.1907 11.8437 27.6607 11.8437 28.2307C11.8437 28.8107 12.3037 29.2607 12.8837 29.2607H25.0837C25.6637 29.2607 26.1237 28.8107 26.1237 28.2307C26.1237 27.6607 25.6637 27.1907 25.0837 27.1907H20.0137V24.0107C25.2237 23.5707 28.7637 19.8107 28.7637 14.4507V11.6807C28.7637 11.1007 28.3137 10.6507 27.7237 10.6507C27.1537 10.6507 26.7037 11.1007 26.7037 11.6807V14.3707C26.7037 19.0307 23.6637 22.1207 18.9737 22.1207C14.3037 22.1207 11.2637 19.0307 11.2637 14.3707V11.6807C11.2637 11.1007 10.8037 10.6507 10.2237 10.6507C9.6537 10.6507 9.2037 11.1007 9.2037 11.6807ZM2.2937 21.4507C3.5537 21.4507 4.5837 20.4307 4.5837 19.1707C4.5837 17.9007 3.5537 16.8707 2.2937 16.8707C1.0237 16.8707 0.0037 17.9007 0.0037 19.1707C0.0037 20.4307 1.0237 21.4507 2.2937 21.4507ZM2.2937 28.5607C3.5537 28.5607 4.5837 27.5307 4.5837 26.2807C4.5837 25.0107 3.5537 23.9807 2.2937 23.9807C1.0237 23.9807 0.0037 25.0107 0.0037 26.2807C0.0037 27.5307 1.0237 28.5607 2.2937 28.5607Z"
        fillRule="evenodd"
        clipRule="evenodd"
    />
</svg>
        