
<svg
    viewBox="0 0 19.564453125 29.12109375"
    xmlns="http://www.w3.org/2000/svg"
>
    <path
        fill="inherit"
        d="M9.7938 19.044C12.5138 19.044 14.3438 17.004 14.3438 14.094V4.954C14.3438 2.024 12.5138 0.004 9.7938 0.004C7.0538 0.004 5.2238 2.024 5.2238 4.954V14.094C5.2238 17.004 7.0538 19.044 9.7938 19.044ZM0.0038 14.314C0.0038 19.674 3.5438 23.434 8.7538 23.874V27.054H3.6738C3.1037 27.054 2.6338 27.524 2.6338 28.094C2.6338 28.674 3.1037 29.124 3.6738 29.124H15.8838C16.4638 29.124 16.9237 28.674 16.9237 28.094C16.9237 27.524 16.4638 27.054 15.8838 27.054H10.8138V23.874C16.0338 23.434 19.5638 19.674 19.5638 14.314V11.544C19.5638 10.964 19.1138 10.514 18.5438 10.514C17.9638 10.514 17.5038 10.964 17.5038 11.544V14.234C17.5038 18.894 14.4638 21.984 9.7938 21.984C5.1038 21.984 2.0637 18.894 2.0637 14.234V11.544C2.0637 10.964 1.6137 10.514 1.0237 10.514C0.4538 10.514 0.0038 10.964 0.0038 11.544Z"
        fillRule="evenodd"
        clipRule="evenodd"
    />
</svg>
        