
<svg
    viewBox="0 0 28.888671875 29.12109375"
    xmlns="http://www.w3.org/2000/svg"
>
    <path
        fill="inherit"
        d="M19.1037 19.044C21.8337 19.044 23.6637 17.004 23.6637 14.094V4.954C23.6637 2.024 21.8337 0.004 19.1037 0.004C16.3837 0.004 14.5437 2.024 14.5437 4.954V14.094C14.5437 17.004 16.3837 19.044 19.1037 19.044ZM2.2937 7.064C3.5537 7.064 4.5837 6.044 4.5837 4.784C4.5837 3.514 3.5537 2.484 2.2937 2.484C1.0237 2.484 0.0037 3.514 0.0037 4.784C0.0037 6.044 1.0237 7.064 2.2937 7.064ZM2.2937 14.174C3.5537 14.174 4.5837 13.154 4.5837 11.894C4.5837 10.624 3.5537 9.594 2.2937 9.594C1.0237 9.594 0.0037 10.624 0.0037 11.894C0.0037 13.154 1.0237 14.174 2.2937 14.174ZM9.3237 14.314C9.3237 19.674 12.8537 23.434 18.0737 23.874V27.054H13.0037C12.4237 27.054 11.9637 27.524 11.9637 28.094C11.9637 28.674 12.4237 29.124 13.0037 29.124H25.2137C25.7837 29.124 26.2537 28.674 26.2537 28.094C26.2537 27.524 25.7837 27.054 25.2137 27.054H20.1437V23.874C25.3437 23.434 28.8937 19.674 28.8937 14.314V11.544C28.8937 10.964 28.4337 10.514 27.8537 10.514C27.2737 10.514 26.8237 10.964 26.8237 11.544V14.234C26.8237 18.894 23.7937 21.984 19.1037 21.984C14.4237 21.984 11.3937 18.894 11.3937 14.234V11.544C11.3937 10.964 10.9237 10.514 10.3537 10.514C9.7737 10.514 9.3237 10.964 9.3237 11.544ZM2.2937 21.314C3.5537 21.314 4.5837 20.294 4.5837 19.034C4.5837 17.764 3.5537 16.734 2.2937 16.734C1.0237 16.734 0.0037 17.764 0.0037 19.034C0.0037 20.294 1.0237 21.314 2.2937 21.314ZM2.2937 28.424C3.5537 28.424 4.5837 27.394 4.5837 26.144C4.5837 24.874 3.5537 23.844 2.2937 23.844C1.0237 23.844 0.0037 24.874 0.0037 26.144C0.0037 27.394 1.0237 28.424 2.2937 28.424Z"
        fillRule="evenodd"
        clipRule="evenodd"
    />
</svg>
        