
<svg
    viewBox={0 0 25.169921875 25.169921875}
    xmlns="http://www.w3.org/2000/svg"
>
    <path
        fill="inherit"
        d="M4.2937 25.1692H20.8737C23.7437 25.1692 25.1737 23.7592 25.1737 20.9492V4.2392C25.1737 1.4192 23.7437 -0.0008 20.8737 -0.0008H4.2937C1.4337 -0.0008 0.0037 1.4192 0.0037 4.2392V20.9492C0.0037 23.7592 1.4337 25.1692 4.2937 25.1692ZM4.3237 22.9692C2.9537 22.9692 2.2037 22.2392 2.2037 20.8192V4.3592C2.2037 2.9392 2.9537 2.1992 4.3237 2.1992H20.8537C22.2037 2.1992 22.9737 2.9392 22.9737 4.3592V20.8192C22.9737 22.2392 22.2037 22.9692 20.8537 22.9692ZM12.5937 15.2192C13.9337 15.2192 14.8637 14.1792 14.8637 12.7792V6.9192C14.8637 5.5392 13.9337 4.5092 12.5937 4.5092C11.2537 4.5092 10.3237 5.5392 10.3237 6.9192V12.7792C10.3237 14.1792 11.2537 15.2192 12.5937 15.2192ZM9.1237 20.7992H16.0737C16.4637 20.7992 16.8137 20.4392 16.8137 20.0592C16.8137 19.6592 16.4737 19.3192 16.0737 19.3192H13.3437V17.9392C16.0637 17.6192 17.8837 15.5592 17.8837 12.7792V11.0192C17.8837 10.6392 17.5437 10.3092 17.1537 10.3092C16.7637 10.3092 16.4337 10.6392 16.4337 11.0192V12.7792C16.4337 15.0292 14.8637 16.5992 12.5937 16.5992C10.3337 16.5992 8.7637 15.0292 8.7637 12.7792V11.0192C8.7637 10.6392 8.4337 10.3092 8.0437 10.3092C7.6437 10.3092 7.3137 10.6392 7.3137 11.0192V12.7792C7.3137 15.5592 9.1437 17.6392 11.8637 17.9392V19.3192H9.1237C8.7237 19.3192 8.3837 19.6592 8.3837 20.0592C8.3837 20.4492 8.7237 20.7992 9.1237 20.7992Z"
        fillRule="evenodd"
        clipRule="evenodd"
    />
</svg>
        