
<svg
    viewBox="0 0 27.890625 27.890625"
    xmlns="http://www.w3.org/2000/svg"
>
    <path
        fill="inherit"
        d="M13.9427 27.8864C21.6427 27.8864 27.8927 21.6464 27.8927 13.9464C27.8927 6.2464 21.6427 -0.0036 13.9427 -0.0036C6.2527 -0.0036 0.0027 6.2464 0.0027 13.9464C0.0027 21.6464 6.2527 27.8864 13.9427 27.8864ZM13.9427 25.5664C7.5227 25.5664 2.3227 20.3664 2.3227 13.9464C2.3227 7.5164 7.5227 2.3264 13.9427 2.3264C20.3727 2.3264 25.5627 7.5164 25.5627 13.9464C25.5627 20.3664 20.3727 25.5664 13.9427 25.5664ZM13.9627 7.9864C14.5227 7.9864 14.9327 7.5764 14.9327 6.9964C14.9327 6.4364 14.5227 6.0264 13.9627 6.0264C13.4027 6.0264 12.9927 6.4364 12.9927 6.9964C12.9927 7.5764 13.4027 7.9864 13.9627 7.9864ZM17.4327 8.8964C17.9927 8.8964 18.4027 8.4864 18.4027 7.9264C18.4027 7.3664 17.9927 6.9564 17.4327 6.9564C16.8727 6.9564 16.4627 7.3664 16.4627 7.9264C16.4627 8.4864 16.8727 8.8964 17.4327 8.8964ZM10.4827 8.8964C11.0427 8.8964 11.4527 8.4864 11.4527 7.9264C11.4527 7.3664 11.0427 6.9564 10.4827 6.9564C9.9227 6.9564 9.5127 7.3664 9.5127 7.9264C9.5127 8.4864 9.9227 8.8964 10.4827 8.8964ZM13.9427 18.6664C16.5427 18.6664 18.6627 16.5464 18.6627 13.9464C18.6627 11.3464 16.5427 9.2264 13.9427 9.2264C11.3427 9.2264 9.2327 11.3464 9.2327 13.9464C9.2327 16.5464 11.3427 18.6664 13.9427 18.6664ZM19.9727 11.4464C20.5327 11.4464 20.9427 11.0364 20.9427 10.4764C20.9427 9.9164 20.5327 9.5064 19.9727 9.5064C19.4127 9.5064 19.0027 9.9164 19.0027 10.4764C19.0027 11.0364 19.4127 11.4464 19.9727 11.4464ZM7.9427 11.4464C8.5027 11.4464 8.9127 11.0364 8.9127 10.4764C8.9127 9.9164 8.5027 9.5064 7.9427 9.5064C7.3827 9.5064 6.9727 9.9164 6.9727 10.4764C6.9727 11.0364 7.3827 11.4464 7.9427 11.4464ZM20.9027 14.9164C21.4627 14.9164 21.8727 14.5064 21.8727 13.9464C21.8727 13.3864 21.4627 12.9764 20.9027 12.9764C20.3427 12.9764 19.9327 13.3864 19.9327 13.9464C19.9327 14.5064 20.3427 14.9164 20.9027 14.9164ZM7.0127 14.9164C7.5927 14.9164 7.9827 14.5064 7.9827 13.9464C7.9827 13.3864 7.5927 12.9764 7.0127 12.9764C6.4527 12.9764 6.0427 13.3864 6.0427 13.9464C6.0427 14.5064 6.4527 14.9164 7.0127 14.9164ZM19.9727 18.3864C20.5327 18.3864 20.9427 17.9764 20.9427 17.4164C20.9427 16.8564 20.5327 16.4464 19.9727 16.4464C19.4127 16.4464 19.0027 16.8564 19.0027 17.4164C19.0027 17.9764 19.4127 18.3864 19.9727 18.3864ZM7.9427 18.3864C8.5027 18.3864 8.9127 17.9764 8.9127 17.4164C8.9127 16.8564 8.5027 16.4464 7.9427 16.4464C7.3827 16.4464 6.9727 16.8564 6.9727 17.4164C6.9727 17.9764 7.3827 18.3864 7.9427 18.3864ZM17.4327 20.9364C17.9927 20.9364 18.4027 20.5264 18.4027 19.9464C18.4027 19.3864 17.9927 18.9764 17.4327 18.9764C16.8727 18.9764 16.4627 19.3864 16.4627 19.9464C16.4627 20.5264 16.8727 20.9364 17.4327 20.9364ZM10.4827 20.9364C11.0427 20.9364 11.4527 20.5264 11.4527 19.9464C11.4527 19.3864 11.0427 18.9764 10.4827 18.9764C9.9227 18.9764 9.5127 19.3864 9.5127 19.9464C9.5127 20.5264 9.9227 20.9364 10.4827 20.9364ZM13.9627 21.8464C14.5227 21.8464 14.9327 21.4364 14.9327 20.8764C14.9327 20.3164 14.5227 19.9064 13.9627 19.9064C13.4027 19.9064 12.9927 20.3164 12.9927 20.8764C12.9927 21.4364 13.4027 21.8464 13.9627 21.8464Z"
        fillRule="evenodd"
        clipRule="evenodd"
    />
</svg>
        