
<svg
    viewBox={0 0 32.443359375 21.13671875}
    xmlns="http://www.w3.org/2000/svg"
>
    <path
        fill="inherit"
        d="M3.2137 21.1358H29.2337C31.1537 21.1358 32.4437 19.8558 32.4437 17.9258V3.2158C32.4437 1.2858 31.1537 -0.0042 29.2337 -0.0042H3.2137C1.2837 -0.0042 0.0037 1.2858 0.0037 3.2158V17.9258C0.0037 19.8558 1.2837 21.1358 3.2137 21.1358ZM3.2437 18.9358C2.6137 18.9358 2.2037 18.4958 2.2037 17.8258V3.3058C2.2037 2.6358 2.6137 2.2058 3.2437 2.2058H21.6037V18.9358ZM29.2037 2.2058C29.8337 2.2058 30.2437 2.6358 30.2437 3.3058V13.9058H23.1237V2.2058ZM5.1037 17.3258H18.5537C19.3337 17.3258 19.8337 16.8158 19.8337 16.0358V5.0958C19.8337 4.3158 19.3337 3.8158 18.5537 3.8158H5.1037C4.3237 3.8158 3.8137 4.3158 3.8137 5.0958V16.0358C3.8137 16.8158 4.3237 17.3258 5.1037 17.3258ZM24.7037 6.4758H28.6537C28.7937 6.4758 28.9137 6.3758 28.9137 6.2358V4.0758C28.9137 3.9358 28.7937 3.8158 28.6537 3.8158H24.7037C24.5637 3.8158 24.4437 3.9358 24.4437 4.0758V6.2358C24.4437 6.3758 24.5637 6.4758 24.7037 6.4758ZM5.7037 15.8058C5.4937 15.8058 5.3337 15.6558 5.3337 15.4358V5.7058C5.3337 5.4858 5.4937 5.3358 5.7037 5.3358H17.9537C18.1537 5.3358 18.3237 5.4858 18.3237 5.7058V15.4358C18.3237 15.6558 18.1537 15.8058 17.9537 15.8058ZM25.1437 8.7658H28.2237C28.6337 8.7658 28.9137 8.4858 28.9137 8.0758C28.9137 7.6558 28.6337 7.3858 28.2237 7.3858H25.1437C24.7337 7.3858 24.4437 7.6558 24.4437 8.0758C24.4437 8.4858 24.7337 8.7658 25.1437 8.7658ZM25.1437 11.0758H28.2237C28.6337 11.0758 28.9137 10.7858 28.9137 10.3758C28.9137 9.9658 28.6337 9.6958 28.2237 9.6958H25.1437C24.7337 9.6958 24.4437 9.9658 24.4437 10.3758C24.4437 10.7858 24.7337 11.0758 25.1437 11.0758ZM30.2437 17.8258C30.2437 18.4958 29.8337 18.9358 29.2037 18.9358H23.1237V15.4258H30.2437Z"
        fillRule="evenodd"
        clipRule="evenodd"
    />
</svg>
        