
<svg
    viewBox="0 0 27.890625 27.890625"
    xmlns="http://www.w3.org/2000/svg"
>
    <path
        fill="inherit"
        d="M13.9427 27.8864C21.6427 27.8864 27.8927 21.6264 27.8927 13.9464C27.8927 6.2464 21.6427 -0.0036 13.9427 -0.0036C6.2627 -0.0036 0.0027 6.2464 0.0027 13.9464C0.0027 21.6264 6.2627 27.8864 13.9427 27.8864ZM13.9727 7.8064C13.4027 7.8064 12.9727 7.3864 12.9727 6.7764C12.9727 6.2064 13.4027 5.7864 13.9727 5.7864C14.5427 5.7864 14.9727 6.2064 14.9727 6.7764C14.9727 7.3864 14.5427 7.8064 13.9727 7.8064ZM17.5527 8.7464C16.9627 8.7464 16.5427 8.3264 16.5427 7.7364C16.5427 7.1664 16.9627 6.7364 17.5527 6.7364C18.1327 6.7364 18.5527 7.1664 18.5527 7.7364C18.5527 8.3264 18.1327 8.7464 17.5527 8.7464ZM10.3927 8.7464C9.8127 8.7464 9.3927 8.3264 9.3927 7.7364C9.3927 7.1664 9.8127 6.7364 10.3927 6.7364C10.9827 6.7364 11.4027 7.1664 11.4027 7.7364C11.4027 8.3264 10.9827 8.7464 10.3927 8.7464ZM13.9627 18.8164C11.2827 18.8164 9.0927 16.6264 9.0927 13.9464C9.0927 11.2664 11.2827 9.0764 13.9627 9.0764C16.6427 9.0764 18.8227 11.2664 18.8227 13.9464C18.8227 16.6264 16.6427 18.8164 13.9627 18.8164ZM20.1827 11.3764C19.5927 11.3764 19.1727 10.9464 19.1727 10.3664C19.1727 9.7864 19.5927 9.3664 20.1827 9.3664C20.7527 9.3664 21.1827 9.7864 21.1827 10.3664C21.1827 10.9464 20.7527 11.3764 20.1827 11.3764ZM7.7627 11.3764C7.1927 11.3764 6.7627 10.9464 6.7627 10.3664C6.7627 9.7864 7.1927 9.3664 7.7627 9.3664C8.3527 9.3664 8.7727 9.7864 8.7727 10.3664C8.7727 10.9464 8.3527 11.3764 7.7627 11.3764ZM21.1327 14.9464C20.5527 14.9464 20.1227 14.5164 20.1227 13.9464C20.1227 13.3664 20.5527 12.9464 21.1327 12.9464C21.7127 12.9464 22.1327 13.3664 22.1327 13.9464C22.1327 14.5164 21.7127 14.9464 21.1327 14.9464ZM6.8127 14.9464C6.2327 14.9464 5.8127 14.5164 5.8127 13.9464C5.8127 13.3664 6.2327 12.9464 6.8127 12.9464C7.4127 12.9464 7.8227 13.3664 7.8227 13.9464C7.8227 14.5164 7.4127 14.9464 6.8127 14.9464ZM20.1827 18.5264C19.5927 18.5264 19.1727 18.1064 19.1727 17.5264C19.1727 16.9364 19.5927 16.5164 20.1827 16.5164C20.7527 16.5164 21.1827 16.9364 21.1827 17.5264C21.1827 18.1064 20.7527 18.5264 20.1827 18.5264ZM7.7627 18.5264C7.1927 18.5264 6.7627 18.1064 6.7627 17.5264C6.7627 16.9364 7.1927 16.5164 7.7627 16.5164C8.3527 16.5164 8.7727 16.9364 8.7727 17.5264C8.7727 18.1064 8.3527 18.5264 7.7627 18.5264ZM17.5527 21.1464C16.9627 21.1464 16.5427 20.7264 16.5427 20.1364C16.5427 19.5464 16.9627 19.1264 17.5527 19.1264C18.1327 19.1264 18.5527 19.5464 18.5527 20.1364C18.5527 20.7264 18.1327 21.1464 17.5527 21.1464ZM10.3927 21.1464C9.8127 21.1464 9.3927 20.7264 9.3927 20.1364C9.3927 19.5464 9.8127 19.1264 10.3927 19.1264C10.9827 19.1264 11.4027 19.5464 11.4027 20.1364C11.4027 20.7264 10.9827 21.1464 10.3927 21.1464ZM13.9727 22.0964C13.4027 22.0964 12.9727 21.6664 12.9727 21.0964C12.9727 20.5064 13.4027 20.0864 13.9727 20.0864C14.5427 20.0864 14.9727 20.5064 14.9727 21.0964C14.9727 21.6664 14.5427 22.0964 13.9727 22.0964Z"
        fillRule="evenodd"
        clipRule="evenodd"
    />
</svg>
        