
<svg
    viewBox={0 0 28.642578125 28.65625}
    xmlns="http://www.w3.org/2000/svg"
>
    <path
        fill="inherit"
        d="M14.3327 2.8392C15.1027 2.8392 15.7327 2.2192 15.7327 1.4192C15.7327 0.6292 15.1027 -0.0008 14.3327 -0.0008C13.5327 -0.0008 12.9027 0.6292 12.9027 1.4192C12.9027 2.2192 13.5327 2.8392 14.3327 2.8392ZM20.7627 4.5792C21.5427 4.5792 22.1727 3.9492 22.1727 3.1592C22.1727 2.3692 21.5427 1.7392 20.7627 1.7392C19.9727 1.7392 19.3427 2.3692 19.3427 3.1592C19.3427 3.9492 19.9727 4.5792 20.7627 4.5792ZM7.8927 4.5792C8.6727 4.5792 9.3127 3.9492 9.3127 3.1592C9.3127 2.3692 8.6727 1.7392 7.8927 1.7392C7.0927 1.7392 6.4627 2.3692 6.4627 3.1592C6.4627 3.9492 7.0927 4.5792 7.8927 4.5792ZM14.3027 22.9792C19.0827 22.9792 22.9727 19.0992 22.9727 14.3192C22.9727 9.5392 19.0827 5.6592 14.3027 5.6592C9.5327 5.6592 5.6427 9.5392 5.6427 14.3192C5.6427 19.0992 9.5327 22.9792 14.3027 22.9792ZM25.5027 9.2992C26.2727 9.2992 26.9027 8.6692 26.9027 7.8792C26.9027 7.0792 26.2727 6.4492 25.5027 6.4492C24.7027 6.4492 24.0727 7.0792 24.0727 7.8792C24.0727 8.6692 24.7027 9.2992 25.5027 9.2992ZM3.1627 9.2992C3.9327 9.2992 4.5827 8.6692 4.5827 7.8792C4.5827 7.0792 3.9327 6.4492 3.1627 6.4492C2.3627 6.4492 1.7327 7.0792 1.7327 7.8792C1.7327 8.6692 2.3627 9.2992 3.1627 9.2992ZM27.2327 15.7492C28.0127 15.7492 28.6427 15.1192 28.6427 14.3292C28.6427 13.5392 28.0127 12.9092 27.2327 12.9092C26.4427 12.9092 25.8127 13.5392 25.8127 14.3292C25.8127 15.1192 26.4427 15.7492 27.2327 15.7492ZM1.4227 15.7492C2.2127 15.7492 2.8427 15.1192 2.8427 14.3292C2.8427 13.5392 2.2127 12.9092 1.4227 12.9092C0.6327 12.9092 0.0027 13.5392 0.0027 14.3292C0.0027 15.1192 0.6327 15.7492 1.4227 15.7492ZM25.5027 22.1992C26.2727 22.1992 26.9027 21.5692 26.9027 20.7792C26.9027 19.9892 26.2727 19.3592 25.5027 19.3592C24.7027 19.3592 24.0727 19.9892 24.0727 20.7792C24.0727 21.5692 24.7027 22.1992 25.5027 22.1992ZM3.1627 22.1992C3.9327 22.1992 4.5827 21.5692 4.5827 20.7792C4.5827 19.9892 3.9327 19.3592 3.1627 19.3592C2.3627 19.3592 1.7327 19.9892 1.7327 20.7792C1.7327 21.5692 2.3627 22.1992 3.1627 22.1992ZM20.7627 26.9192C21.5427 26.9192 22.1727 26.2892 22.1727 25.4992C22.1727 24.7092 21.5427 24.0792 20.7627 24.0792C19.9727 24.0792 19.3427 24.7092 19.3427 25.4992C19.3427 26.2892 19.9727 26.9192 20.7627 26.9192ZM7.8927 26.9192C8.6727 26.9192 9.3127 26.2892 9.3127 25.4992C9.3127 24.7092 8.6727 24.0792 7.8927 24.0792C7.0927 24.0792 6.4627 24.7092 6.4627 25.4992C6.4627 26.2892 7.0927 26.9192 7.8927 26.9192ZM14.3327 28.6592C15.1027 28.6592 15.7327 28.0092 15.7327 27.2392C15.7327 26.4392 15.1027 25.8092 14.3327 25.8092C13.5327 25.8092 12.9027 26.4392 12.9027 27.2392C12.9027 28.0092 13.5327 28.6592 14.3327 28.6592Z"
        fillRule="evenodd"
        clipRule="evenodd"
    />
</svg>
        