
<svg
    viewBox={0 0 19.947265625 31.69140625}
    xmlns="http://www.w3.org/2000/svg"
>
    <path
        fill="inherit"
        d="M1.2737 24.6505C2.0637 24.6505 2.5437 24.1205 2.5437 23.3805V13.3305C2.5437 11.1705 3.5937 8.9505 5.8237 8.9505C7.8737 8.9505 8.6937 10.5405 8.6937 12.4705V13.2105L1.3637 30.3605C1.2837 30.5705 1.2537 30.7605 1.2537 30.8805C1.2537 31.4205 1.6437 31.6905 2.1037 31.6905C2.6137 31.6905 2.8137 31.4305 3.0037 30.9805L8.6937 17.6605V23.3805C8.6937 24.0205 9.0637 24.6505 9.9537 24.6505C10.8037 24.6505 11.2237 24.0805 11.2237 23.3805V13.0705C11.2237 10.9205 12.2937 8.9505 14.4737 8.9505C16.6937 8.9505 17.3937 10.6205 17.3937 12.7105V23.3805C17.3937 23.9905 17.7337 24.6505 18.6637 24.6505C19.4537 24.6505 19.9437 24.1205 19.9437 23.3805V12.1405C19.9437 9.0405 18.3437 6.7105 15.1437 6.7105C14.4537 6.7105 13.7937 6.8505 13.2237 7.0805L15.6637 1.3505C15.7537 1.1805 15.7937 0.9705 15.7937 0.7905C15.7937 0.3005 15.4237 0.0005 14.9337 0.0005C14.4637 0.0005 14.2237 0.3005 14.0437 0.6805L10.3537 9.3205C9.7737 7.7205 8.5137 6.7105 6.4637 6.7105C4.2337 6.7105 2.9137 8.2005 2.4837 10.0205H2.4037V8.0405C2.4037 7.3005 1.9237 6.7805 1.2037 6.7805C0.4637 6.7805 0.0037 7.3005 0.0037 8.0405V23.3805C0.0037 24.0805 0.4237 24.6505 1.2737 24.6505Z"
        fillRule="evenodd"
        clipRule="evenodd"
    />
</svg>
        