
<svg
    viewBox="0 0 27.890625 27.890625"
    xmlns="http://www.w3.org/2000/svg"
>
    <path
        fill="inherit"
        d="M13.9427 27.8864C21.6427 27.8864 27.8927 21.6464 27.8927 13.9464C27.8927 6.2464 21.6427 -0.0036 13.9427 -0.0036C6.2527 -0.0036 0.0027 6.2464 0.0027 13.9464C0.0027 21.6464 6.2527 27.8864 13.9427 27.8864ZM13.9427 25.5664C7.5227 25.5664 2.3227 20.3664 2.3227 13.9464C2.3227 7.5164 7.5227 2.3264 13.9427 2.3264C20.3727 2.3264 25.5627 7.5164 25.5627 13.9464C25.5627 20.3664 20.3727 25.5664 13.9427 25.5664ZM10.0227 21.8464C10.2527 21.8464 10.3627 21.7364 10.4727 21.4964L13.2627 15.1164V17.6664C13.2627 18.0864 13.5527 18.4064 13.9427 18.4064C14.3827 18.4064 14.6727 18.0864 14.6727 17.6664V12.6064C14.6727 11.6064 15.1627 10.6464 16.2027 10.6464C17.2127 10.6464 17.5827 11.4264 17.5827 12.4364V17.6664C17.5827 18.0864 17.8727 18.4064 18.2927 18.4064C18.7327 18.4064 19.0127 18.0864 19.0127 17.6664V12.0864C19.0127 10.5864 18.2827 9.3564 16.6227 9.3564C16.2927 9.3564 15.9827 9.4064 15.7127 9.5164L16.9227 6.7264C16.9627 6.6464 16.9827 6.5464 16.9827 6.4664C16.9827 6.2064 16.8027 6.0464 16.5427 6.0464C16.3127 6.0464 16.1827 6.1964 16.0927 6.3964L14.2327 10.6464C13.9327 9.8064 13.2727 9.3564 12.3027 9.3564C11.2427 9.3564 10.5727 10.0264 10.3327 10.9964H10.2827V10.0864C10.2827 9.6564 10.0227 9.3664 9.5927 9.3664C9.1727 9.3664 8.9127 9.6564 8.9127 10.0864V17.6664C8.9127 18.0764 9.1627 18.4064 9.6227 18.4064C10.1027 18.4064 10.3527 18.0764 10.3527 17.6664V12.6964C10.3527 11.6664 10.8327 10.6464 11.8927 10.6464C12.8627 10.6464 13.2627 11.3864 13.2627 12.3164V12.8964L9.6427 21.1664C9.5927 21.2564 9.5827 21.3464 9.5827 21.4364C9.5827 21.6864 9.7627 21.8464 10.0227 21.8464Z"
        fillRule="evenodd"
        clipRule="evenodd"
    />
</svg>
        