
<svg
    viewBox={0 0 25.169921875 25.169921875}
    xmlns="http://www.w3.org/2000/svg"
>
    <path
        fill="inherit"
        d="M4.2937 25.1692H20.8737C23.7437 25.1692 25.1737 23.7592 25.1737 20.9492V4.2392C25.1737 1.4192 23.7437 -0.0008 20.8737 -0.0008H4.2937C1.4337 -0.0008 0.0037 1.4192 0.0037 4.2392V20.9492C0.0037 23.7592 1.4337 25.1692 4.2937 25.1692ZM4.3237 22.9692C2.9537 22.9692 2.2037 22.2392 2.2037 20.8192V4.3592C2.2037 2.9392 2.9537 2.1992 4.3237 2.1992H20.8537C22.2037 2.1992 22.9737 2.9392 22.9737 4.3592V20.8192C22.9737 22.2392 22.2037 22.9692 20.8537 22.9692ZM8.6837 20.4792C8.9137 20.4792 9.0237 20.3692 9.1337 20.1292L11.9237 13.7492V16.2992C11.9237 16.7192 12.2137 17.0392 12.6237 17.0392C13.0437 17.0392 13.3337 16.7192 13.3337 16.2992V11.2392C13.3337 10.2392 13.8237 9.2792 14.8637 9.2792C15.8837 9.2792 16.2437 10.0592 16.2437 11.0692V16.2992C16.2437 16.7192 16.5337 17.0392 16.9537 17.0392C17.3937 17.0392 17.6737 16.7192 17.6737 16.2992V10.7192C17.6737 9.2192 16.9437 7.9892 15.2837 7.9892C14.9537 7.9892 14.6437 8.0392 14.3737 8.1492L15.5837 5.3592C15.6237 5.2792 15.6537 5.1792 15.6537 5.0992C15.6537 4.8392 15.4637 4.6792 15.2037 4.6792C14.9737 4.6792 14.8437 4.8292 14.7537 5.0292L12.8937 9.2792C12.5937 8.4392 11.9337 7.9892 10.9637 7.9892C9.9137 7.9892 9.2237 8.6592 8.9937 9.6292H8.9437V8.7192C8.9437 8.2892 8.6837 7.9992 8.2537 7.9992C7.8337 7.9992 7.5737 8.2892 7.5737 8.7192V16.2992C7.5737 16.7092 7.8237 17.0392 8.2837 17.0392C8.7637 17.0392 9.0137 16.7092 9.0137 16.2992V11.3292C9.0137 10.2992 9.5037 9.2792 10.5537 9.2792C11.5237 9.2792 11.9237 10.0192 11.9237 10.9492V11.5292L8.3037 19.7992C8.2537 19.8892 8.2437 19.9792 8.2437 20.0692C8.2437 20.3192 8.4337 20.4792 8.6837 20.4792Z"
        fillRule="evenodd"
        clipRule="evenodd"
    />
</svg>
        