<svg viewBox="0 0 25.169921875 25.169921875" xmlns="http://www.w3.org/2000/svg"><path d="M4.2937 25.1692H20.8737C23.7437 25.1692 25.1737 23.7592 25.1737 20.9492V4.2392C25.1737 1.4192 23.7437 -0.0008 20.8737 -0.0008H4.2937C1.4337 -0.0008 0.0037 1.4192 0.0037 4.2392V20.9492C0.0037 23.7592 1.4337 25.1692 4.2937 25.1692ZM8.1437 17.1692C7.6737 17.1692 7.4137 16.8392 7.4137 16.4192V8.5992C7.4137 8.1492 7.6837 7.8492 8.1237 7.8492C8.5537 7.8492 8.8337 8.1492 8.8337 8.5992V9.5292H8.8837C9.1237 8.5292 9.8337 7.8292 10.9137 7.8292C11.9337 7.8292 12.6037 8.3292 12.9237 9.1892L14.8237 4.7892C14.9137 4.5792 15.0537 4.4292 15.2837 4.4292C15.5537 4.4292 15.7537 4.5892 15.7537 4.8692C15.7537 4.9492 15.7237 5.0492 15.6837 5.1292L14.4337 8.0092C14.7137 7.8992 15.0237 7.8292 15.3637 7.8292C17.0737 7.8292 17.8437 9.1092 17.8437 10.6592V16.4192C17.8437 16.8592 17.5437 17.1692 17.0937 17.1692C16.6537 17.1692 16.3537 16.8592 16.3537 16.4192V11.0192C16.3537 9.9792 15.9837 9.1892 14.9337 9.1892C13.8637 9.1892 13.3537 10.1692 13.3537 11.1992V16.4192C13.3537 16.8592 13.0537 17.1692 12.6237 17.1692C12.1937 17.1692 11.8937 16.8592 11.8937 16.4192V13.7692L9.0237 20.3692C8.9037 20.6192 8.8037 20.7292 8.5537 20.7292C8.3037 20.7292 8.0937 20.5592 8.0937 20.2992C8.0937 20.2092 8.1037 20.1292 8.1637 20.0292L11.8937 11.4692V10.8992C11.8937 9.9292 11.4837 9.1892 10.4837 9.1892C9.4037 9.1892 8.9037 10.2292 8.9037 11.2892V16.4192C8.9037 16.8392 8.6437 17.1692 8.1437 17.1692Z" /></svg>