
<svg
    viewBox={0 0 30.529296875 29.17578125}
    xmlns="http://www.w3.org/2000/svg"
>
    <path
        fill="inherit"
        d="M1.8137 25.919H28.7137V25.009C28.7137 24.459 28.3937 24.129 27.8337 24.129H26.9637V9.379H28.1637C28.9137 9.379 29.3537 8.829 29.3537 8.269C29.3537 7.859 29.1237 7.509 28.6137 7.219L16.9437 0.479C16.3937 0.169 15.8137 -0.001 15.2537 -0.001C14.6937 -0.001 14.1137 0.169 13.5937 0.479L1.9137 7.219C1.3937 7.509 1.1737 7.859 1.1737 8.269C1.1737 8.829 1.6137 9.379 2.3637 9.379H3.5637V24.129H2.7037C2.1437 24.129 1.8137 24.459 1.8137 25.009ZM5.6337 24.129V7.629L14.7237 2.529C14.8937 2.429 15.0837 2.379 15.2537 2.379C15.4337 2.379 15.6237 2.429 15.8037 2.529L24.8937 7.629V24.129ZM11.3637 22.289C11.5937 22.289 11.7037 22.179 11.8137 21.929L14.6037 15.569V18.119C14.6037 18.539 14.8937 18.839 15.2837 18.839C15.7237 18.839 16.0137 18.539 16.0137 18.119V13.039C16.0137 12.059 16.5037 11.099 17.5437 11.099C18.5537 11.099 18.9237 11.869 18.9237 12.889V18.119C18.9237 18.539 19.2137 18.839 19.6337 18.839C20.0737 18.839 20.3537 18.539 20.3537 18.119V12.539C20.3537 11.019 19.6237 9.789 17.9637 9.789C17.6337 9.789 17.3237 9.839 17.0537 9.949L18.2637 7.179C18.3037 7.079 18.3237 6.989 18.3237 6.909C18.3237 6.659 18.1437 6.479 17.8837 6.479C17.6537 6.479 17.5237 6.649 17.4337 6.849L15.5737 11.089C15.2737 10.249 14.6137 9.789 13.6437 9.789C12.5737 9.789 11.9037 10.469 11.6637 11.429H11.6237V10.529C11.6237 10.089 11.3637 9.819 10.9337 9.819C10.5137 9.819 10.2537 10.089 10.2537 10.529V18.119C10.2537 18.529 10.5037 18.839 10.9637 18.839C11.4337 18.839 11.6937 18.529 11.6937 18.119V13.149C11.6937 12.109 12.1637 11.099 13.2337 11.099C14.2037 11.099 14.6037 11.829 14.6037 12.769V13.339L10.9737 21.599C10.9337 21.699 10.9237 21.779 10.9237 21.879C10.9237 22.119 11.1037 22.289 11.3637 22.289ZM1.0937 29.179H29.4237C30.0237 29.179 30.5337 28.669 30.5337 28.069C30.5337 27.469 30.0237 26.979 29.4237 26.979H1.0937C0.4937 26.979 0.0037 27.469 0.0037 28.069C0.0037 28.669 0.4937 29.179 1.0937 29.179Z"
        fillRule="evenodd"
        clipRule="evenodd"
    />
</svg>
        