
<svg
    viewBox="0 0 30.5703125 30.5703125"
    xmlns="http://www.w3.org/2000/svg"
>
    <path
        fill="inherit"
        d="M15.2827 30.5663C23.6827 30.5663 30.5727 23.6763 30.5727 15.2863C30.5727 6.8863 23.6827 -0.0038 15.2827 -0.0038C6.8927 -0.0038 0.0027 6.8863 0.0027 15.2863C0.0027 23.6763 6.8927 30.5663 15.2827 30.5663ZM15.2827 25.4862C9.6527 25.4862 5.0827 20.9162 5.0827 15.2863C5.0827 9.6363 9.6527 5.0863 15.2827 5.0863C20.9327 5.0863 25.4827 9.6363 25.4827 15.2863C25.4827 20.9162 20.9327 25.4862 15.2827 25.4862ZM11.3727 23.1863C11.6027 23.1863 11.7127 23.0763 11.8227 22.8363L14.6127 16.4563V19.0063C14.6127 19.4263 14.9027 19.7463 15.3027 19.7463C15.7327 19.7463 16.0227 19.4263 16.0227 19.0063V13.9463C16.0227 12.9462 16.5127 11.9863 17.5527 11.9863C18.5827 11.9863 18.9327 12.7663 18.9327 13.7763V19.0063C18.9327 19.4263 19.2227 19.7463 19.6427 19.7463C20.0827 19.7463 20.3727 19.4263 20.3727 19.0063V13.4263C20.3727 11.9263 19.6327 10.6962 17.9827 10.6962C17.6527 10.6962 17.3327 10.7463 17.0627 10.8563L18.2827 8.0663C18.3227 7.9862 18.3327 7.8863 18.3327 7.8062C18.3327 7.5463 18.1527 7.3863 17.8927 7.3863C17.6627 7.3863 17.5427 7.5362 17.4427 7.7362L15.5827 11.9863C15.2827 11.1463 14.6327 10.6962 13.6627 10.6962C12.5927 10.6962 11.9227 11.3663 11.6927 12.3363H11.6327V11.4263C11.6327 10.9963 11.3727 10.7063 10.9527 10.7063C10.5227 10.7063 10.2627 10.9963 10.2627 11.4263V19.0063C10.2627 19.4162 10.5127 19.7463 10.9827 19.7463C11.4527 19.7463 11.7027 19.4162 11.7027 19.0063V14.0363C11.7027 13.0063 12.1927 11.9863 13.2527 11.9863C14.2227 11.9863 14.6127 12.7263 14.6127 13.6563V14.2363L10.9927 22.5063C10.9527 22.5963 10.9327 22.6863 10.9327 22.7763C10.9327 23.0263 11.1327 23.1863 11.3727 23.1863Z"
        fillRule="evenodd"
        clipRule="evenodd"
    />
</svg>
        