<svg viewBox="0 0 27.890625 27.890625" xmlns="http://www.w3.org/2000/svg"><path d="M13.9427 27.8864C21.6427 27.8864 27.8927 21.6264 27.8927 13.9464C27.8927 6.2464 21.6427 -0.0036 13.9427 -0.0036C6.2627 -0.0036 0.0027 6.2464 0.0027 13.9464C0.0027 21.6264 6.2627 27.8864 13.9427 27.8864ZM9.5027 18.5364C9.0227 18.5364 8.7627 18.2064 8.7627 17.7864V9.9664C8.7627 9.5164 9.0327 9.2164 9.4727 9.2164C9.9127 9.2164 10.1827 9.5164 10.1827 9.9664V10.8964H10.2427C10.4727 9.8964 11.1727 9.1964 12.2627 9.1964C13.2727 9.1964 13.9627 9.6964 14.2627 10.5564L16.1727 6.1564C16.2727 5.9464 16.4027 5.7964 16.6427 5.7964C16.9127 5.7964 17.0927 5.9564 17.0927 6.2364C17.0927 6.3164 17.0727 6.4164 17.0327 6.4964L15.7927 9.3764C16.0627 9.2664 16.3827 9.1964 16.7227 9.1964C18.4327 9.1964 19.1927 10.4764 19.1927 12.0264V17.7864C19.1927 18.2264 18.8927 18.5364 18.4427 18.5364C18.0027 18.5364 17.7027 18.2264 17.7027 17.7864V12.3864C17.7027 11.3464 17.3227 10.5564 16.2827 10.5564C15.2127 10.5564 14.7127 11.5364 14.7127 12.5664V17.7864C14.7127 18.2264 14.4127 18.5364 13.9627 18.5364C13.5527 18.5364 13.2527 18.2264 13.2527 17.7864V15.1364L10.3727 21.7364C10.2527 21.9864 10.1427 22.0964 9.9127 22.0964C9.6427 22.0964 9.4427 21.9264 9.4427 21.6664C9.4427 21.5764 9.4627 21.4964 9.5127 21.3964L13.2527 12.8364V12.2664C13.2527 11.2964 12.8427 10.5564 11.8427 10.5564C10.7427 10.5564 10.2527 11.5964 10.2527 12.6564V17.7864C10.2527 18.2064 9.9927 18.5364 9.5027 18.5364Z" /></svg>