
<svg
    viewBox="0 0 32.935546875 27.26189615322232"
    xmlns="http://www.w3.org/2000/svg"
>
    <path
        fill="inherit"
        d="M32.9327 16.3992C32.9327 7.7792 26.3227 0.7192 17.8927 -0.0008C17.4627 -0.0408 17.1327 0.2792 17.1327 0.7192V5.1892C17.1327 5.5592 17.3927 5.8392 17.7627 5.8692C22.9927 6.5092 27.0727 10.9792 27.0727 16.3992C27.0727 18.8592 26.2227 21.1292 24.7327 23.0292C24.5427 23.2592 24.5527 23.5592 24.7627 23.7792L28.0227 27.0292C28.3327 27.3292 28.7927 27.3292 29.0627 27.0092C31.4827 24.1392 32.9327 20.4292 32.9327 16.3992ZM0.0027 16.3992C0.0027 20.4392 1.4527 24.1492 3.8727 27.0192C4.1427 27.3492 4.5927 27.3292 4.9127 27.0292L8.1727 23.7792C8.3827 23.5592 8.3927 23.2592 8.2027 23.0292C6.7027 21.1292 5.8627 18.8592 5.8627 16.3992C5.8627 10.9792 9.9427 6.5092 15.1727 5.8692C15.5427 5.8392 15.8027 5.5592 15.8027 5.1892V0.7192C15.8027 0.2792 15.4727 -0.0408 15.0427 -0.0008C6.6127 0.7192 0.0027 7.7792 0.0027 16.3992ZM12.1527 21.0292C12.6227 21.0292 12.8627 20.7192 12.8627 20.3092V15.3392C12.8627 14.3092 13.3527 13.2892 14.4227 13.2892C15.3827 13.2892 15.7727 14.0192 15.7727 14.9592V15.5392L12.1727 23.7892C12.1127 23.8892 12.1027 23.9692 12.1027 24.0692C12.1027 24.3092 12.2927 24.4792 12.5327 24.4792C12.7827 24.4792 12.8827 24.3692 12.9927 24.1192L15.7727 17.7592V20.3092C15.7727 20.7292 16.0627 21.0292 16.4727 21.0292C16.9027 21.0292 17.1827 20.7292 17.1827 20.3092V15.2292C17.1827 14.2492 17.6827 13.2892 18.7127 13.2892C19.7427 13.2892 20.0927 14.0592 20.0927 15.0792V20.3092C20.0927 20.7292 20.3827 21.0292 20.8227 21.0292C21.2427 21.0292 21.5327 20.7292 21.5327 20.3092V14.7292C21.5327 13.2092 20.7927 11.9792 19.1427 11.9792C18.8127 11.9792 18.5027 12.0392 18.2227 12.1392L19.4427 9.3692C19.4827 9.2692 19.5127 9.1792 19.5127 9.0992C19.5127 8.8492 19.3227 8.6692 19.0727 8.6692C18.8427 8.6692 18.7027 8.8392 18.6027 9.0392L16.7627 13.2792C16.4427 12.4492 15.8027 11.9792 14.8227 11.9792C13.7627 11.9792 13.0827 12.6592 12.8527 13.6192H12.7927V12.7192C12.7927 12.2792 12.5327 12.0092 12.1127 12.0092C11.6927 12.0092 11.4327 12.2792 11.4327 12.7192V20.3092C11.4327 20.7192 11.6727 21.0292 12.1527 21.0292Z"
        fillRule="evenodd"
        clipRule="evenodd"
    />
</svg>
        