<svg viewBox="0 0 32.935546875 27.33018496744969" xmlns="http://www.w3.org/2000/svg"><path d="M16.4627 5.864C18.9327 5.864 21.2027 6.724 23.0227 8.134C23.2927 8.354 23.6527 8.324 23.9127 8.064L27.0827 4.894C27.4027 4.584 27.3827 4.124 27.0527 3.854C24.2027 1.454 20.4927 0.004 16.4627 0.004C12.4427 0.004 8.7327 1.454 5.8827 3.854C5.5527 4.124 5.5327 4.584 5.8527 4.894L9.0227 8.064C9.2827 8.324 9.6527 8.354 9.9527 8.124C11.7627 6.724 14.0127 5.864 16.4627 5.864ZM0.0027 16.464C0.0027 20.494 1.4527 24.204 3.8727 27.074C4.1427 27.414 4.6027 27.414 4.9127 27.094L8.1627 23.844C8.3627 23.624 8.3927 23.324 8.2027 23.094C6.7127 21.194 5.8627 18.924 5.8627 16.464C5.8627 14.014 6.7027 11.744 8.1227 9.944C8.3427 9.654 8.3427 9.284 8.0827 9.024L4.9127 5.854C4.5927 5.534 4.1427 5.534 3.8727 5.864C1.4527 8.734 0.0027 12.444 0.0027 16.464ZM32.9327 16.464C32.9327 12.444 31.4827 8.734 29.0627 5.864C28.7927 5.534 28.3327 5.534 28.0227 5.854L24.8527 9.024C24.5927 9.284 24.5827 9.654 24.8127 9.944C26.2227 11.744 27.0727 14.014 27.0727 16.464C27.0727 18.924 26.2227 21.194 24.7327 23.094C24.5427 23.324 24.5527 23.624 24.7627 23.844L28.0127 27.094C28.3327 27.414 28.7827 27.414 29.0627 27.074C31.4827 24.204 32.9327 20.494 32.9327 16.464ZM12.1527 21.094C12.6227 21.094 12.8627 20.784 12.8627 20.374V15.404C12.8627 14.374 13.3527 13.354 14.4227 13.354C15.3827 13.354 15.7727 14.084 15.7727 15.024V15.604L12.1727 23.854C12.1127 23.954 12.1027 24.034 12.1027 24.134C12.1027 24.374 12.2927 24.544 12.5327 24.544C12.7827 24.544 12.8827 24.434 12.9927 24.184L15.7727 17.824V20.374C15.7727 20.794 16.0627 21.094 16.4727 21.094C16.9027 21.094 17.1827 20.794 17.1827 20.374V15.294C17.1827 14.314 17.6827 13.354 18.7127 13.354C19.7427 13.354 20.0927 14.124 20.0927 15.144V20.374C20.0927 20.794 20.3827 21.094 20.8227 21.094C21.2427 21.094 21.5327 20.794 21.5327 20.374V14.794C21.5327 13.274 20.7927 12.044 19.1427 12.044C18.8127 12.044 18.5027 12.104 18.2227 12.204L19.4427 9.434C19.4827 9.334 19.5127 9.244 19.5127 9.164C19.5127 8.914 19.3227 8.734 19.0727 8.734C18.8427 8.734 18.7027 8.904 18.6027 9.104L16.7627 13.344C16.4427 12.514 15.8027 12.044 14.8227 12.044C13.7627 12.044 13.0827 12.724 12.8527 13.684H12.7927V12.784C12.7927 12.344 12.5327 12.074 12.1127 12.074C11.6927 12.074 11.4327 12.344 11.4327 12.784V20.374C11.4327 20.784 11.6727 21.094 12.1527 21.094Z" /></svg>