
<svg
    viewBox="0 0 32.23828125 23.43359375"
    xmlns="http://www.w3.org/2000/svg"
>
    <path
        fill="inherit"
        d="M4.2937 23.4342H27.9437C30.8137 23.4342 32.2337 22.0142 32.2337 19.1942V7.7242C32.2337 4.9242 30.8137 3.5042 27.9437 3.5042H26.4237V1.6642C26.4237 0.6242 25.8237 0.0042 24.7737 0.0042H22.0437C21.0037 0.0042 20.3937 0.6242 20.3937 1.6642V3.5042H11.8537V1.6642C11.8537 0.6242 11.2537 0.0042 10.2037 0.0042H7.4637C6.4137 0.0042 5.8137 0.6242 5.8137 1.6642V3.5042H4.2937C1.4337 3.5042 0.0037 4.9042 0.0037 7.7242V19.1942C0.0037 22.0242 1.4337 23.4342 4.2937 23.4342ZM2.2037 19.0842V7.8442C2.2037 6.4242 2.9537 5.7042 4.3237 5.7042H27.9137C29.2737 5.7042 30.0337 6.4242 30.0337 7.8442V19.0842C30.0337 20.4942 29.2737 21.2342 27.9137 21.2342H4.3237C2.9537 21.2342 2.2037 20.4942 2.2037 19.0842ZM22.3837 17.5642C22.9437 17.5642 23.3837 17.1342 23.3837 16.5742V14.4542H25.4937C26.0537 14.4542 26.5137 14.0142 26.5137 13.4542C26.5137 12.8742 26.0537 12.4442 25.4937 12.4442H23.3837V10.3242C23.3837 9.7642 22.9437 9.3142 22.3837 9.3142C21.8237 9.3142 21.3737 9.7642 21.3737 10.3242V12.4442H19.2537C18.6937 12.4442 18.2537 12.8742 18.2537 13.4542C18.2537 14.0142 18.6937 14.4542 19.2537 14.4542H21.3737V16.5742C21.3737 17.1342 21.8237 17.5642 22.3837 17.5642ZM6.9837 14.4542H12.6837C13.2437 14.4542 13.6837 14.0142 13.6837 13.4542C13.6837 12.8742 13.2437 12.4442 12.6837 12.4442H6.9837C6.4237 12.4442 5.9737 12.8742 5.9737 13.4542C5.9737 14.0142 6.4237 14.4542 6.9837 14.4542Z"
        fillRule="evenodd"
        clipRule="evenodd"
    />
</svg>
        