<svg viewBox="0 0 32.23828125 27.854757337405378" xmlns="http://www.w3.org/2000/svg"><path d="M27.6137 27.5437C28.0237 27.9537 28.6937 27.9537 29.1037 27.5437C29.5037 27.1237 29.5137 26.4637 29.1037 26.0537L3.3537 0.3137C2.9437 -0.0963 2.2537 -0.1063 1.8437 0.3137C1.4337 0.7137 1.4337 1.3937 1.8437 1.8037ZM30.6437 24.9937C31.7037 24.3237 32.2337 23.1137 32.2337 21.3937V9.9337C32.2337 7.1237 30.8137 5.7037 27.9437 5.7037H26.4237V3.8837C26.4237 2.8237 25.8237 2.2137 24.7737 2.2137H22.0437C21.0037 2.2137 20.3937 2.8237 20.3937 3.8837V5.7037H11.8537V3.8837C11.8537 2.8237 11.2537 2.2137 10.2037 2.2137H7.8637L20.2237 14.6437H21.2037V12.4537C21.2037 11.8837 21.6537 11.4237 22.2437 11.4237C22.8137 11.4237 23.2837 11.8837 23.2837 12.4537V14.6437H25.4737C26.0437 14.6437 26.4937 15.1037 26.4937 15.6837C26.4937 16.2637 26.0437 16.7237 25.4737 16.7237H23.2837V17.7037ZM4.2937 25.6337H23.0737L14.2037 16.6937H7.2037C6.6337 16.6937 6.1837 16.2437 6.1837 15.6537C6.1837 15.0537 6.6337 14.6037 7.2037 14.6037H12.1237L3.2437 5.8137H3.1037C1.0437 6.1637 0.0037 7.5337 0.0037 9.9337V21.3937C0.0037 24.2237 1.4337 25.6337 4.2937 25.6337Z" /></svg>