
<svg
    viewBox={0 0 39.34765625 34.75390625}
    xmlns="http://www.w3.org/2000/svg"
>
    <path
        fill="inherit"
        d="M4.2937 27.26H27.5537C30.8737 27.26 31.8437 26.32 31.8437 23.02V11.98C31.8437 9.16 30.3837 7.74 27.5337 7.74H27.1437V6.21C27.1437 5.28 26.6037 4.73 25.6637 4.73H22.9737C22.0237 4.73 21.4937 5.28 21.4937 6.21V7.74H17.4737L17.6337 1.59C17.6637 0.63 17.0237 0 16.0337 0C15.0537 0 14.4237 0.63 14.4537 1.59L14.6037 7.74H17.4737L17.3237 13.82C17.2937 14.57 16.7737 15.11 16.0337 15.11C15.3137 15.11 14.7937 14.57 14.7537 13.82L14.6037 7.74H10.3037V6.21C10.3037 5.28 9.7737 4.73 8.8337 4.73H6.1237C5.1937 4.73 4.6637 5.28 4.6637 6.21V7.74H4.2937C1.4337 7.74 0.0037 9.16 0.0037 11.98V23.02C0.0037 25.85 1.4337 27.26 4.2937 27.26ZM6.1137 31.27H33.7237C35.0637 31.27 35.8437 30.57 35.8437 29.34V15.04C35.8437 14.07 35.3437 13.26 33.8937 13.23V28.62C33.8937 29.09 33.6337 29.33 33.1637 29.33H4.1037C4.1337 30.88 5.0437 31.27 6.1137 31.27ZM24.9237 20.81C24.4437 20.81 24.0737 20.44 24.0737 19.93V18.33H22.4637C21.9837 18.33 21.5837 17.94 21.5837 17.46C21.5837 16.99 21.9737 16.61 22.4637 16.61H24.0737V15.01C24.0737 14.51 24.4437 14.12 24.9237 14.12C25.4137 14.12 25.8037 14.51 25.8037 15.01V16.61H27.3937C27.8737 16.61 28.2737 16.99 28.2737 17.46C28.2737 17.94 27.8737 18.33 27.3937 18.33H25.8037V19.93C25.8037 20.44 25.4137 20.81 24.9237 20.81ZM4.5937 18.33C4.1137 18.33 3.7437 17.94 3.7437 17.46C3.7437 16.99 4.1137 16.61 4.5937 16.61H9.0637C9.5337 16.61 9.9137 16.99 9.9137 17.46C9.9137 17.94 9.5337 18.33 9.0637 18.33ZM16.0337 21.25C14.9737 21.25 14.0837 20.37 14.0837 19.37C14.0837 18.32 14.9537 17.49 16.0337 17.49C17.1337 17.49 18.0037 18.32 18.0037 19.37C18.0037 20.37 17.1137 21.25 16.0337 21.25ZM10.4837 34.75H37.2237C38.5637 34.75 39.3437 34.06 39.3437 32.83V19.96C39.3437 18.87 38.6937 18.21 37.5537 18.14V32.27C37.5537 32.74 37.2937 32.98 36.8337 32.98H8.4937C8.5137 34.44 9.5737 34.75 10.4837 34.75Z"
        fillRule="evenodd"
        clipRule="evenodd"
    />
</svg>
        