<svg viewBox="0 0 32.23828125 26.93359375" xmlns="http://www.w3.org/2000/svg"><path d="M16.1437 14.9342C15.4537 14.9342 14.9437 14.4142 14.9137 13.6842L14.7537 7.0442H10.3037V5.5242C10.3037 4.5842 9.7737 4.0442 8.8337 4.0442H6.1237C5.1937 4.0442 4.6637 4.5842 4.6637 5.5242V7.0442H4.2937C1.4337 7.0442 0.0037 8.4642 0.0037 11.2842V22.6942C0.0037 25.5242 1.4337 26.9342 4.2937 26.9342H27.9437C30.8037 26.9342 32.2337 25.5142 32.2337 22.6942V11.2842C32.2337 8.4642 30.7937 7.0442 27.9337 7.0442H27.5337V5.5242C27.5337 4.5842 27.0037 4.0442 26.0737 4.0442H23.3637C22.4337 4.0442 21.9037 4.5842 21.9037 5.5242V7.0442H17.5537L17.6937 1.5342C17.7237 0.6142 17.1037 0.0042 16.1437 0.0042C15.2037 0.0042 14.5837 0.6142 14.6137 1.5342L14.7537 7.0442H17.5537L17.3937 13.6842C17.3637 14.4142 16.8537 14.9342 16.1437 14.9342ZM24.2637 20.4842C23.7937 20.4842 23.4237 20.1142 23.4237 19.6042V18.0042H21.8037C21.3137 18.0042 20.9137 17.6242 20.9137 17.1442C20.9137 16.6842 21.3037 16.2842 21.8037 16.2842H23.4237V14.6842C23.4237 14.1742 23.7937 13.8042 24.2637 13.8042C24.7437 13.8042 25.1337 14.1742 25.1337 14.6842V16.2842H26.7237C27.2237 16.2842 27.6137 16.6842 27.6137 17.1442C27.6137 17.6242 27.2237 18.0042 26.7237 18.0042H25.1337V19.6042C25.1337 20.1142 24.7437 20.4842 24.2637 20.4842ZM5.1237 18.0042C4.6437 18.0042 4.2837 17.6142 4.2837 17.1342C4.2837 16.6642 4.6437 16.2842 5.1237 16.2842H9.5837C10.0637 16.2842 10.4437 16.6642 10.4437 17.1342C10.4437 17.6142 10.0637 18.0042 9.5837 18.0042ZM16.1437 20.8742C15.1237 20.8742 14.2637 20.0342 14.2637 19.0542C14.2637 18.0442 15.1037 17.2542 16.1437 17.2542C17.2037 17.2542 18.0437 18.0442 18.0437 19.0542C18.0437 20.0342 17.1837 20.8742 16.1437 20.8742Z" /></svg>