
<svg
    viewBox={0 0 32.23828125 27.854757337405378}
    xmlns="http://www.w3.org/2000/svg"
>
    <path
        fill="inherit"
        d="M27.6137 27.5437C28.0237 27.9537 28.6937 27.9537 29.1037 27.5437C29.5037 27.1237 29.5137 26.4637 29.1037 26.0537L3.3537 0.3137C2.9437 -0.0963 2.2537 -0.1063 1.8437 0.3137C1.4337 0.7137 1.4337 1.3937 1.8437 1.8037ZM30.6437 24.9937C31.7037 24.3237 32.2337 23.1137 32.2337 21.3937V9.9337C32.2337 7.1237 30.8137 5.7037 27.9437 5.7037H26.4237V3.8837C26.4237 2.8237 25.8237 2.2137 24.7737 2.2137H22.0437C21.0037 2.2137 20.3937 2.8237 20.3937 3.8837V5.7037H11.8537V3.8837C11.8537 2.8237 11.2537 2.2137 10.2037 2.2137H7.8637L13.5637 7.9037H27.9137C29.2737 7.9037 30.0337 8.6237 30.0337 10.0437V21.2837C30.0337 22.2937 29.6437 22.9537 28.9337 23.2537ZM4.2937 25.6337H23.0737L20.8737 23.4337H4.3237C2.9537 23.4337 2.2037 22.7037 2.2037 21.2837V10.0437C2.2037 8.6237 2.9537 7.9037 4.3237 7.9037H5.3137L3.2437 5.8137H3.1037C1.0437 6.1637 0.0037 7.5337 0.0037 9.9337V21.3937C0.0037 24.2237 1.4337 25.6337 4.2937 25.6337ZM25.4037 16.6537C25.9637 16.6537 26.4037 16.2137 26.4037 15.6537C26.4037 15.0937 25.9637 14.6437 25.4037 14.6437H23.2837V12.5237C23.2837 11.9637 22.8337 11.5237 22.2737 11.5237C21.7137 11.5237 21.2737 11.9637 21.2737 12.5237V14.6437H20.3137L23.2837 17.6037V16.6537ZM7.3037 16.6537H14.0837L12.0737 14.6437H7.3037C6.7437 14.6437 6.3037 15.0737 6.3037 15.6537C6.3037 16.2137 6.7437 16.6537 7.3037 16.6537Z"
        fillRule="evenodd"
        clipRule="evenodd"
    />
</svg>
        