
<svg
    viewBox={0 0 25.8671875 25.826171875}
    xmlns="http://www.w3.org/2000/svg"
>
    <path
        fill="inherit"
        d="M4.9237 25.8273C5.3737 25.8273 5.6337 25.6373 5.9837 25.1273L14.0037 13.2473L21.7937 1.7373C21.9837 1.4773 22.0537 1.2473 22.0537 0.9673C22.0537 0.4273 21.5737 -0.0027 21.0137 -0.0027C20.5337 -0.0027 20.2737 0.1473 19.8937 0.7073L12.0737 12.3173L4.1037 24.0673C3.9237 24.3173 3.8237 24.5373 3.8237 24.8373C3.8237 25.4273 4.3237 25.8273 4.9237 25.8273ZM0.9737 7.7473H8.4637C8.9937 7.7473 9.4337 7.3273 9.4337 6.7973C9.4337 6.2573 8.9937 5.8273 8.4637 5.8273H0.9737C0.4237 5.8273 0.0037 6.2573 0.0037 6.7973C0.0037 7.3273 0.4237 7.7473 0.9737 7.7473ZM16.4337 19.8473C16.4337 20.3873 16.8537 20.8073 17.3937 20.8073H20.1937V23.6073C20.1937 24.1473 20.6137 24.5673 21.1537 24.5673C21.6837 24.5673 22.1237 24.1473 22.1237 23.6073V20.8073H24.8937C25.4337 20.8073 25.8637 20.3873 25.8637 19.8473C25.8637 19.3173 25.4337 18.8773 24.8937 18.8773H22.1237V16.1073C22.1237 15.5573 21.6737 15.1373 21.1537 15.1373C20.6037 15.1373 20.1937 15.5673 20.1937 16.1073V18.8773H17.3937C16.8537 18.8773 16.4337 19.3173 16.4337 19.8473Z"
        fillRule="evenodd"
        clipRule="evenodd"
    />
</svg>
        