
<svg
    viewBox={0 0 32.23828125 26.93359375}
    xmlns="http://www.w3.org/2000/svg"
>
    <path
        fill="inherit"
        d="M16.1437 14.9342C16.8537 14.9342 17.3637 14.4142 17.3937 13.6842L17.6937 1.5342C17.7237 0.6142 17.1037 0.0042 16.1437 0.0042C15.2037 0.0042 14.5837 0.6142 14.6137 1.5342L14.9137 13.6842C14.9437 14.4142 15.4537 14.9342 16.1437 14.9342ZM4.2937 26.9342H27.9437C30.8037 26.9342 32.2337 25.5142 32.2337 22.6942V11.2842C32.2337 8.4642 30.7937 7.0442 27.9337 7.0442H27.5337V5.5242C27.5337 4.5842 27.0037 4.0442 26.0737 4.0442H23.3637C22.4337 4.0442 21.9037 4.5842 21.9037 5.5242V7.0442H19.4237L19.3637 9.2442H27.9037C29.2537 9.2442 30.0237 9.9842 30.0237 11.4042V22.5842C30.0237 24.0042 29.2537 24.7342 27.9037 24.7342H4.3237C2.9537 24.7342 2.2037 24.0042 2.2037 22.5842V11.4042C2.2037 9.9842 2.9837 9.2442 4.3237 9.2442H12.9837L12.9237 7.0442H10.3037V5.5242C10.3037 4.5842 9.7737 4.0442 8.8337 4.0442H6.1237C5.1937 4.0442 4.6637 4.5842 4.6637 5.5242V7.0442H4.2937C1.4337 7.0442 0.0037 8.4642 0.0037 11.2842V22.6942C0.0037 25.5242 1.4337 26.9342 4.2937 26.9342ZM23.9937 20.3742C24.4637 20.3742 24.8237 20.0142 24.8237 19.5342V17.9742H26.3837C26.8537 17.9742 27.2337 17.6142 27.2337 17.1442C27.2337 16.6942 26.8537 16.3142 26.3837 16.3142H24.8237V14.7542C24.8237 14.2742 24.4637 13.9142 23.9937 13.9142C23.5337 13.9142 23.1737 14.2742 23.1737 14.7542V16.3142H21.6037C21.1237 16.3142 20.7537 16.6942 20.7537 17.1442C20.7537 17.6142 21.1337 17.9742 21.6037 17.9742H23.1737V19.5342C23.1737 20.0142 23.5337 20.3742 23.9937 20.3742ZM5.4737 17.9742H9.7937C10.2437 17.9742 10.6237 17.5942 10.6237 17.1342C10.6237 16.6842 10.2437 16.3142 9.7937 16.3142H5.4737C5.0037 16.3142 4.6437 16.6842 4.6437 17.1342C4.6437 17.5942 5.0037 17.9742 5.4737 17.9742ZM16.1437 20.8742C17.1837 20.8742 18.0437 20.0342 18.0437 19.0542C18.0437 18.0442 17.2037 17.2542 16.1437 17.2542C15.1037 17.2542 14.2637 18.0442 14.2637 19.0542C14.2637 20.0342 15.1237 20.8742 16.1437 20.8742Z"
        fillRule="evenodd"
        clipRule="evenodd"
    />
</svg>
        