
<svg
    viewBox={0 0 31.006281888857306 31.006281888857306}
    xmlns="http://www.w3.org/2000/svg"
>
    <path
        fill="inherit"
        d="M1.5328 18.5268L12.4828 29.4768C14.5028 31.5068 16.5028 31.5168 18.5128 29.5168L29.5228 18.4968C31.5128 16.5068 31.5028 14.4968 29.4828 12.4668L18.5428 1.5368C16.5128 -0.4932 14.5228 -0.5132 12.5128 1.4968L1.4928 12.4968C-0.5172 14.5068 -0.4872 16.5068 1.5328 18.5268ZM9.9928 16.7068C9.2028 16.7068 8.6428 16.2868 8.6428 15.5368C8.6428 14.7668 9.1728 14.3268 9.9928 14.3268H21.0428C21.8728 14.3268 22.3828 14.7668 22.3828 15.5368C22.3828 16.2868 21.8328 16.7068 21.0428 16.7068Z"
        fillRule="evenodd"
        clipRule="evenodd"
    />
</svg>
        