
<svg
    viewBox={0 0 39.34765625 30.0234375}
    xmlns="http://www.w3.org/2000/svg"
>
    <path
        fill="inherit"
        d="M4.2937 22.5295H27.5537C30.8737 22.5295 31.8437 21.5895 31.8437 18.2895V7.2495C31.8437 4.4295 30.3837 3.0095 27.5337 3.0095H26.3437V1.4795C26.3437 0.5495 25.8037 -0.0005 24.8737 -0.0005H22.0237C21.0937 -0.0005 20.5637 0.5495 20.5637 1.4795V3.0095H11.2837V1.4795C11.2837 0.5495 10.7437 -0.0005 9.8037 -0.0005H6.9637C6.0337 -0.0005 5.4937 0.5495 5.4937 1.4795V3.0095H4.2937C1.4337 3.0095 0.0037 4.4295 0.0037 7.2495V18.2895C0.0037 21.1195 1.4337 22.5295 4.2937 22.5295ZM4.3237 20.3295C2.9537 20.3295 2.2037 19.5895 2.2037 18.1795V7.3595C2.2037 5.9495 2.9837 5.2095 4.3237 5.2095H27.4937C28.8437 5.2095 29.6237 5.9495 29.6237 7.3595V18.1795C29.6237 19.8395 29.1437 20.3295 27.5037 20.3295ZM6.1137 26.5395H33.7237C35.0637 26.5395 35.8437 25.8395 35.8437 24.6095V10.3095C35.8437 9.3395 35.3437 8.5295 33.8937 8.4995V23.8895C33.8937 24.3595 33.6337 24.5995 33.1637 24.5995H4.1037C4.1337 26.1495 5.0437 26.5395 6.1137 26.5395ZM22.6637 16.4095C23.1737 16.4095 23.5737 16.0095 23.5737 15.4995V13.6395H25.4437C25.9337 13.6395 26.3437 13.2295 26.3437 12.7295C26.3437 12.2395 25.9337 11.8395 25.4437 11.8395H23.5737V9.9695C23.5737 9.4595 23.1737 9.0795 22.6637 9.0795C22.1637 9.0795 21.7837 9.4595 21.7837 9.9695V11.8395H19.8937C19.4037 11.8395 19.0037 12.2395 19.0037 12.7295C19.0037 13.2295 19.4037 13.6395 19.8937 13.6395H21.7837V15.4995C21.7837 16.0095 22.1637 16.4095 22.6637 16.4095ZM6.7137 13.6395H11.6237C12.1137 13.6395 12.5237 13.2295 12.5237 12.7295C12.5237 12.2395 12.1137 11.8395 11.6237 11.8395H6.7137C6.2037 11.8395 5.8137 12.2395 5.8137 12.7295C5.8137 13.2295 6.2037 13.6395 6.7137 13.6395ZM10.4837 30.0195H37.2237C38.5637 30.0195 39.3437 29.3295 39.3437 28.0995V15.2295C39.3437 14.1395 38.6937 13.4795 37.5537 13.4095V27.5395C37.5537 28.0095 37.2937 28.2495 36.8337 28.2495H8.4937C8.5137 29.7095 9.5737 30.0195 10.4837 30.0195Z"
        fillRule="evenodd"
        clipRule="evenodd"
    />
</svg>
        