
<svg
    viewBox={0 0 31.006281888857306 31.006281888857306}
    xmlns="http://www.w3.org/2000/svg"
>
    <path
        fill="inherit"
        d="M1.5328 18.5268L12.4828 29.4768C14.5028 31.5068 16.5028 31.5168 18.5128 29.5168L29.5228 18.4968C31.5128 16.5068 31.5028 14.4968 29.4828 12.4668L18.5428 1.5368C16.5128 -0.4932 14.5228 -0.5132 12.5128 1.4968L1.4928 12.4968C-0.5172 14.5068 -0.4872 16.5068 1.5328 18.5268ZM3.1228 17.0068C2.1328 16.0268 2.1228 14.9968 3.1328 13.9868L13.9928 3.1368C15.0028 2.1168 16.0228 2.1368 17.0128 3.1168L27.8928 13.9968C28.8628 14.9768 28.8928 16.0068 27.8828 17.0268L17.0228 27.8768C16.0128 28.8868 14.9728 28.8668 14.0028 27.9068ZM10.1628 16.6668H20.8828C21.6428 16.6668 22.1728 16.2568 22.1728 15.5368C22.1728 14.7968 21.6828 14.3668 20.8828 14.3668H10.1628C9.3628 14.3668 8.8428 14.7968 8.8428 15.5368C8.8428 16.2568 9.3928 16.6668 10.1628 16.6668Z"
        fillRule="evenodd"
        clipRule="evenodd"
    />
</svg>
        