
<svg
    viewBox={0 0 27.890625 27.890625}
    xmlns="http://www.w3.org/2000/svg"
>
    <path
        fill="inherit"
        d="M13.9427 27.8864C21.6427 27.8864 27.8927 21.6464 27.8927 13.9464C27.8927 6.2464 21.6427 -0.0036 13.9427 -0.0036C6.2527 -0.0036 0.0027 6.2464 0.0027 13.9464C0.0027 21.6464 6.2527 27.8864 13.9427 27.8864ZM13.9427 25.5664C7.5227 25.5664 2.3227 20.3664 2.3227 13.9464C2.3227 7.5164 7.5227 2.3264 13.9427 2.3264C20.3727 2.3264 25.5627 7.5164 25.5627 13.9464C25.5627 20.3664 20.3727 25.5664 13.9427 25.5664ZM8.5727 15.1064H19.3027C20.0727 15.1064 20.5927 14.6964 20.5927 13.9764C20.5927 13.2364 20.0927 12.8064 19.3027 12.8064H8.5727C7.7827 12.8064 7.2727 13.2364 7.2727 13.9764C7.2727 14.6964 7.8027 15.1064 8.5727 15.1064Z"
        fillRule="evenodd"
        clipRule="evenodd"
    />
</svg>
        