
<svg
    viewBox={0 0 32.23828125 23.43359375}
    xmlns="http://www.w3.org/2000/svg"
>
    <path
        fill="inherit"
        d="M4.2937 23.4342H27.9437C30.8137 23.4342 32.2337 22.0142 32.2337 19.1942V7.7242C32.2337 4.9242 30.8137 3.5042 27.9437 3.5042H26.4237V1.6642C26.4237 0.6242 25.8237 0.0042 24.7737 0.0042H22.0437C21.0037 0.0042 20.3937 0.6242 20.3937 1.6642V3.5042H11.8537V1.6642C11.8537 0.6242 11.2537 0.0042 10.2037 0.0042H7.4637C6.4137 0.0042 5.8137 0.6242 5.8137 1.6642V3.5042H4.2937C1.4337 3.5042 0.0037 4.9042 0.0037 7.7242V19.1942C0.0037 22.0242 1.4337 23.4342 4.2937 23.4342ZM20.4637 17.7642C20.1637 17.4342 19.8237 17.4142 19.5237 17.7642C18.7437 18.6442 17.5037 19.1942 16.1237 19.1942C14.7337 19.1942 13.4937 18.6442 12.7137 17.7642C12.4137 17.4142 12.0837 17.4342 11.7737 17.7642C10.9537 18.6942 9.7237 19.1942 8.3937 19.1942C7.0637 19.1942 5.8537 18.6942 5.0137 17.7642C4.7137 17.4342 4.3737 17.4142 4.0737 17.7642C3.5937 18.3042 2.9637 18.7142 2.2037 18.9642V7.8442C2.2037 6.4242 2.9537 5.7042 4.3237 5.7042H27.9137C29.2737 5.7042 30.0337 6.4242 30.0337 7.8442V18.9642C29.2837 18.7142 28.6437 18.3042 28.1637 17.7642C27.8637 17.4142 27.5237 17.4342 27.2237 17.7642C26.4037 18.6942 25.1737 19.1942 23.8437 19.1942C22.5137 19.1942 21.2837 18.6942 20.4637 17.7642ZM22.3837 16.8542C22.9437 16.8542 23.3837 16.4242 23.3837 15.8642V13.7442H25.4937C26.0537 13.7442 26.5137 13.2842 26.5137 12.7242C26.5137 12.1642 26.0537 11.7342 25.4937 11.7342H23.3837V9.6142C23.3837 9.0542 22.9437 8.6042 22.3837 8.6042C21.8237 8.6042 21.3737 9.0542 21.3737 9.6142V11.7342H19.2537C18.6937 11.7342 18.2537 12.1642 18.2537 12.7242C18.2537 13.2842 18.6937 13.7442 19.2537 13.7442H21.3737V15.8642C21.3737 16.4242 21.8237 16.8542 22.3837 16.8542ZM6.9837 13.7442H12.6837C13.2437 13.7442 13.6837 13.2842 13.6837 12.7242C13.6837 12.1642 13.2437 11.7342 12.6837 11.7342H6.9837C6.4237 11.7342 5.9737 12.1642 5.9737 12.7242C5.9737 13.2842 6.4237 13.7442 6.9837 13.7442Z"
        fillRule="evenodd"
        clipRule="evenodd"
    />
</svg>
        