
<svg
    viewBox={0 0 38.1171875 25.14411070853337}
    xmlns="http://www.w3.org/2000/svg"
>
    <path
        fill="inherit"
        d="M17.0037 23.9231C16.4637 23.1831 16.2437 22.7331 16.2437 21.8931C16.2437 21.2431 16.4437 20.6831 16.7037 20.1531H21.6337C21.4237 20.6731 21.2737 21.2731 21.2737 21.9931C21.2737 23.0931 21.6137 23.9131 22.3237 24.8131C22.9537 25.6231 24.1837 24.8031 23.5337 23.9231C22.9737 23.1831 22.7637 22.7331 22.7637 21.8931C22.7637 21.2431 22.9737 20.6831 23.2237 20.1531H28.1337C27.9337 20.6731 27.7837 21.2731 27.7837 21.9931C27.7837 23.0931 28.1237 23.9131 28.8337 24.8131C29.4637 25.6231 30.7037 24.8031 30.0537 23.9231C29.5037 23.1831 29.2837 22.7331 29.2837 21.8931C29.2837 21.2331 29.4937 20.6731 29.7637 20.1231C35.0237 19.8231 38.1137 16.7931 38.1137 11.3731C38.1137 5.2731 34.6037 1.4731 28.3937 0.7131C23.8437 0.1731 15.9037 0.0131 11.6037 0.0031C7.8937 0.0031 5.9837 2.0231 6.3137 5.3631L6.7237 9.3631C6.8537 10.4331 6.2937 10.9231 5.1437 10.9231H1.6137C0.6737 10.9231 0.0037 11.6031 0.0037 12.5331V19.0831C0.0037 20.5531 1.1237 21.1331 2.5537 20.7831C4.2337 20.3531 6.0337 20.1531 8.1337 20.1531H15.0937C14.8937 20.6731 14.7337 21.2731 14.7337 21.9931C14.7337 23.0931 15.0837 23.9131 15.7937 24.8131C16.4237 25.6231 17.6737 24.8031 17.0037 23.9231ZM13.1637 9.5931C12.9237 9.9631 13.1437 10.4831 13.6337 10.4831H14.8737C14.9337 13.8931 16.6537 14.3131 16.6537 16.1231C16.6537 16.8331 16.4637 17.4031 16.2137 17.9531H13.3337C10.8237 17.9531 9.8437 17.1131 9.5837 14.8231L8.4937 5.1131C8.2837 3.1631 9.2237 2.2031 11.6037 2.2031C15.9037 2.2031 23.7237 2.4231 28.2037 2.9231C33.1637 3.5031 35.9137 6.5531 35.9137 11.3731C35.9137 14.9531 34.0737 17.1431 30.9137 17.7631C31.0737 17.2831 31.1837 16.7431 31.1837 16.1231C31.1837 13.7831 29.4737 13.1631 29.4037 10.4831H30.6437C31.1437 10.4831 31.3737 9.9631 31.1137 9.5931L29.1937 6.7431C29.0437 6.5331 28.8737 6.4431 28.6537 6.4431C28.4237 6.4431 28.2737 6.5231 28.1237 6.7431L26.2137 9.5931C25.9637 9.9631 26.1837 10.4831 26.6737 10.4831H27.9037C27.9637 13.8931 29.6837 14.3131 29.6837 16.1231C29.6837 16.8331 29.5037 17.4031 29.2537 17.9331C29.1437 17.9531 29.0437 17.9531 28.9437 17.9531H24.3337C24.5237 17.4131 24.6637 16.8331 24.6637 16.1231C24.6637 13.7831 22.9737 13.1631 22.9037 10.4831H24.1037C24.6137 10.4831 24.8437 9.9631 24.5937 9.5931L22.6637 6.7431C22.5137 6.5331 22.3537 6.4431 22.1337 6.4431C21.9137 6.4431 21.7537 6.5331 21.6037 6.7431L19.6737 9.5931C19.4237 9.9631 19.6637 10.4831 20.1637 10.4831H21.3937C21.4537 13.8931 23.1637 14.3131 23.1637 16.1231C23.1637 16.8331 22.9837 17.4031 22.7337 17.9531H17.8137C18.0237 17.4131 18.1537 16.8331 18.1537 16.1231C18.1537 13.7831 16.4437 13.1631 16.3837 10.4831H17.5937C18.0837 10.4831 18.3237 9.9831 18.0637 9.5931L16.1437 6.7431C15.9937 6.5231 15.8437 6.4431 15.6137 6.4431C15.3937 6.4431 15.2337 6.5331 15.0837 6.7431Z"
        fillRule="evenodd"
        clipRule="evenodd"
    />
</svg>
        