
<svg
    viewBox={0 0 38.1171875 25.14411070853337}
    xmlns="http://www.w3.org/2000/svg"
>
    <path
        fill="inherit"
        d="M0.0037 11.3731C0.0037 16.9131 3.1137 19.9231 8.5537 20.1431C8.3537 20.6731 8.2037 21.2731 8.2037 21.9931C8.2037 23.0931 8.5437 23.9131 9.2537 24.8131C9.8837 25.6231 11.1437 24.8031 10.4737 23.9231C9.9237 23.1831 9.7037 22.7331 9.7037 21.8931C9.7037 21.2431 9.9137 20.6831 10.1837 20.1531H15.0937C14.8937 20.6731 14.7337 21.2731 14.7337 21.9931C14.7337 23.0931 15.0837 23.9131 15.7937 24.8131C16.4237 25.6231 17.6537 24.8031 16.9937 23.9231C16.4337 23.1831 16.2237 22.7331 16.2237 21.8931C16.2237 21.2431 16.4337 20.6831 16.6937 20.1531H21.6037C21.3937 20.6731 21.2437 21.2731 21.2437 21.9931C21.2437 23.0931 21.5837 23.9131 22.3037 24.8131C22.9237 25.6231 24.1737 24.8031 23.5337 23.9231C22.9737 23.1831 22.7637 22.7331 22.7637 21.8931C22.7637 21.2431 22.9537 20.6831 23.2137 20.1531H29.9837C32.0837 20.1531 33.8837 20.3531 35.5437 20.7831C36.9837 21.1331 38.1137 20.5531 38.1137 19.0831V12.5331C38.1137 11.6031 37.4437 10.9231 36.5037 10.9231H32.9637C31.8237 10.9231 31.2637 10.4331 31.3737 9.3631L31.7837 5.3631C32.1337 2.0231 30.2237 0.0031 26.5137 0.0031C22.2037 0.0131 14.2637 0.1731 9.7237 0.7131C3.5037 1.4731 0.0037 5.2731 0.0037 11.3731ZM2.2037 11.3731C2.2037 6.5531 4.9537 3.5031 9.9137 2.9231C14.3937 2.4231 22.2137 2.2031 26.5137 2.2031C28.8737 2.2031 29.8337 3.1631 29.6137 5.1131L28.5337 14.8231C28.2737 17.1131 27.2937 17.9531 24.7737 17.9531H24.3237C24.5137 17.4131 24.6537 16.8331 24.6537 16.1231C24.6537 13.7831 22.9437 13.1631 22.8737 10.4831H24.1037C24.6237 10.4831 24.8437 9.9631 24.5837 9.5931L22.6537 6.7431C22.5137 6.5331 22.3437 6.4431 22.1237 6.4431C21.8937 6.4431 21.7537 6.5231 21.6037 6.7431L19.6737 9.5931C19.4237 9.9631 19.6437 10.4831 20.1437 10.4831H21.3737C21.4237 13.8931 23.1437 14.3131 23.1437 16.1231C23.1437 16.8331 22.9737 17.4031 22.7237 17.9531H17.8037C17.9937 17.4131 18.1337 16.8331 18.1337 16.1231C18.1337 13.7831 16.4337 13.1631 16.3637 10.4831H17.5637C18.0837 10.4831 18.3237 9.9631 18.0637 9.5931L16.1337 6.7431C15.9837 6.5331 15.8337 6.4431 15.6037 6.4431C15.3837 6.4431 15.2137 6.5331 15.0637 6.7431L13.1437 9.5931C12.8937 9.9631 13.1237 10.4831 13.6337 10.4831H14.8637C14.9137 13.8931 16.6237 14.3131 16.6237 16.1231C16.6237 16.8331 16.4437 17.4031 16.2037 17.9531H11.2937C11.4837 17.4131 11.6237 16.8331 11.6237 16.1231C11.6237 13.7831 9.9137 13.1631 9.8437 10.4831H11.0637C11.5637 10.4831 11.8037 9.9831 11.5237 9.5931L9.6137 6.7431C9.4637 6.5231 9.3137 6.4431 9.0737 6.4431C8.8637 6.4431 8.6937 6.5331 8.5437 6.7431L6.6337 9.5931C6.3837 9.9631 6.6037 10.4831 7.0937 10.4831H8.3437C8.3937 13.8931 10.1137 14.3131 10.1137 16.1231C10.1137 16.8331 9.9437 17.4031 9.6837 17.9531H9.1737C4.7837 17.9531 2.2037 15.6831 2.2037 11.3731Z"
        fillRule="evenodd"
        clipRule="evenodd"
    />
</svg>
        