
<svg
    viewBox={0 0 42.546875 20.882170479240457}
    xmlns="http://www.w3.org/2000/svg"
>
    <path
        fill="inherit"
        d="M28.9037 20.1531C33.8537 20.1531 37.0237 17.9831 37.8537 13.8331H35.5337C34.7137 16.5331 32.3937 17.9531 28.9437 17.9531H13.3437C10.8237 17.9531 9.8437 17.1131 9.5837 14.8231L8.5037 5.1131C8.2837 3.1631 9.2437 2.2031 11.6037 2.2031C15.9037 2.2031 23.7237 2.4231 28.2037 2.9231C31.8237 3.3531 34.2037 5.0331 35.2237 7.8331H37.6137C36.4937 3.7831 33.3137 1.3131 28.3937 0.7131C23.8437 0.1531 15.9137 0.0131 11.6037 0.0031C7.8937 0.0031 5.9837 2.0231 6.3337 5.3631L6.7437 9.3631C6.8537 10.4331 6.2937 10.9231 5.1437 10.9231H1.6137C0.6737 10.9231 0.0037 11.6031 0.0037 12.5331V19.0831C0.0037 20.5531 1.1337 21.1331 2.5537 20.7831C4.2337 20.3531 6.0337 20.1531 8.1337 20.1531ZM42.5437 7.6931V5.8931C42.5437 5.2531 42.0237 4.7131 41.3837 4.7131C40.7437 4.7131 40.2237 5.2531 40.2237 5.8931V7.6931C40.2237 8.9531 39.4137 9.6931 38.0537 9.6931H30.7937V8.2031C30.7937 7.2731 30.1337 6.9131 29.3437 7.4831L25.5537 10.0731C24.9237 10.5031 24.9237 11.2531 25.5537 11.6731L29.3637 14.2731C30.1337 14.8031 30.7937 14.4831 30.7937 13.5531V11.9731H38.0537C40.8837 11.9731 42.5437 10.3731 42.5437 7.6931Z"
        fillRule="evenodd"
        clipRule="evenodd"
    />
</svg>
        