
<svg
    viewBox="0 0 38.1171875 20.882170479240457"
    xmlns="http://www.w3.org/2000/svg"
>
    <path
        fill="inherit"
        d="M0.0037 11.3731C0.0037 17.1331 3.3637 20.1531 9.2137 20.1531H29.9837C32.0837 20.1531 33.8837 20.3531 35.5437 20.7831C36.9837 21.1331 38.1137 20.5531 38.1137 19.0831V12.5331C38.1137 11.6031 37.4437 10.9231 36.5037 10.9231H32.9637C31.8237 10.9231 31.2637 10.4331 31.3737 9.3631L31.7837 5.3631C32.1337 2.0231 30.2237 0.0031 26.5137 0.0031C22.2037 0.0131 14.2637 0.1731 9.7237 0.7131C3.5037 1.4731 0.0037 5.2731 0.0037 11.3731ZM2.2037 11.3731C2.2037 6.5531 4.9537 3.5031 9.9137 2.9231C14.3937 2.4231 22.2137 2.2031 26.5137 2.2031C28.8737 2.2031 29.8337 3.1631 29.6137 5.1131L28.5337 14.8231C28.2737 17.1131 27.2937 17.9531 24.7737 17.9531H9.1737C4.7837 17.9531 2.2037 15.6831 2.2037 11.3731Z"
        fillRule="evenodd"
        clipRule="evenodd"
    />
</svg>
        