
<svg
    viewBox="0 0 42.546875 20.882170479240457"
    xmlns="http://www.w3.org/2000/svg"
>
    <path
        fill="inherit"
        d="M13.649 20.1531H34.409C36.519 20.1531 38.309 20.3531 39.989 20.7831C41.409 21.1331 42.549 20.5531 42.549 19.0831V12.5331C42.549 11.6031 41.879 10.9231 40.929 10.9231H37.409C36.259 10.9231 35.699 10.4331 35.809 9.3631L36.219 5.3631C36.559 2.0231 34.659 0.0031 30.939 0.0031C26.629 0.0131 18.699 0.1531 14.149 0.7131C9.229 1.3131 6.059 3.7831 4.939 7.8331H7.339C8.339 5.0331 10.719 3.3531 14.339 2.9231C18.829 2.4231 26.649 2.2031 30.939 2.2031C33.309 2.2031 34.259 3.1631 34.039 5.1131L32.959 14.8231C32.699 17.1131 31.719 17.9531 29.199 17.9531H13.599C10.159 17.9531 7.839 16.5331 7.009 13.8331H4.689C5.519 17.9831 8.699 20.1531 13.649 20.1531ZM-0.001 7.6931C-0.001 10.3731 1.669 11.9731 4.499 11.9731H11.759V13.5531C11.759 14.4831 12.419 14.8031 13.179 14.2731L16.999 11.6731C17.619 11.2531 17.619 10.5031 16.999 10.0731L13.209 7.4831C12.419 6.9131 11.759 7.2731 11.759 8.2031V9.6931H4.499C3.129 9.6931 2.329 8.9531 2.329 7.6931V5.8931C2.329 5.2531 1.809 4.7131 1.159 4.7131C0.519 4.7131 -0.001 5.2531 -0.001 5.8931Z"
        fillRule="evenodd"
        clipRule="evenodd"
    />
</svg>
        