
<svg
    viewBox={0 0 27.357421875 28.396484375}
    xmlns="http://www.w3.org/2000/svg"
>
    <path
        fill="inherit"
        d="M15.5537 6.6399C15.7237 6.6399 15.8037 6.5499 15.8337 6.3999C16.2537 4.1199 16.2437 4.0599 18.6237 3.6099C18.7737 3.5799 18.8837 3.4899 18.8837 3.3199C18.8837 3.1599 18.7737 3.0599 18.6237 3.0399C16.2437 2.5599 16.3237 2.4999 15.8337 0.2499C15.8037 0.0999 15.7237 -0.0001 15.5537 -0.0001C15.3937 -0.0001 15.3037 0.0999 15.2737 0.2499C14.7937 2.4999 14.8737 2.5599 12.4937 3.0399C12.3337 3.0599 12.2337 3.1599 12.2337 3.3199C12.2337 3.4899 12.3337 3.5799 12.4937 3.6099C14.8737 4.0899 14.8437 4.1199 15.2737 6.3999C15.3037 6.5499 15.3937 6.6399 15.5537 6.6399ZM22.0937 15.8999C22.3537 15.8999 22.5337 15.7199 22.5537 15.4499C23.0137 11.7999 23.1837 11.6999 26.8937 11.0999C27.1837 11.0599 27.3537 10.9099 27.3537 10.6499C27.3537 10.3899 27.1837 10.2299 26.9437 10.1899C23.2137 9.4699 23.0137 9.4899 22.5537 5.8399C22.5337 5.5599 22.3537 5.3899 22.0937 5.3899C21.8437 5.3899 21.6737 5.5599 21.6337 5.8199C21.1637 9.5299 21.0237 9.6499 17.2437 10.1899C17.0037 10.2099 16.8337 10.3899 16.8337 10.6499C16.8337 10.8999 17.0037 11.0599 17.2437 11.0999C21.0237 11.8299 21.1537 11.8299 21.6337 15.4799C21.6737 15.7199 21.8437 15.8999 22.0937 15.8999ZM11.6237 28.3999C16.4737 28.3999 20.4537 25.6599 22.2437 21.7799C22.4637 21.2999 22.4037 20.8899 22.1637 20.6399C21.9737 20.4499 21.6037 20.4299 21.1937 20.5599C20.0737 21.0099 18.8137 21.2299 17.3537 21.2299C11.2537 21.2299 7.3137 17.3999 7.3137 11.4299C7.3137 9.9099 7.7137 8.1299 8.1637 7.2099C8.3937 6.7299 8.3937 6.3199 8.1737 6.0699C7.9537 5.7999 7.5337 5.7399 7.0137 5.9599C2.8137 7.7799 0.0037 11.9999 0.0037 16.7499C0.0037 23.1899 5.0437 28.3999 11.6237 28.3999Z"
        fillRule="evenodd"
        clipRule="evenodd"
    />
</svg>
        