
<svg
    viewBox={0 0 27.890625 27.890625}
    xmlns="http://www.w3.org/2000/svg"
>
    <path
        fill="inherit"
        d="M13.9427 27.8927C21.6427 27.8927 27.8927 21.6427 27.8927 13.9427C27.8927 6.2627 21.6427 0.0027 13.9427 0.0027C6.2627 0.0027 0.0027 6.2627 0.0027 13.9427C0.0027 21.6427 6.2627 27.8927 13.9427 27.8927ZM8.3827 15.3927C7.5727 14.3127 7.1527 12.9927 7.1527 11.5127C7.1527 8.7227 8.7127 6.3027 11.0227 5.3627C11.3627 5.2127 11.7027 5.2527 11.8527 5.4427C11.9927 5.6427 12.0127 5.9327 11.8527 6.2227C11.6027 6.7027 11.4827 7.6027 11.4827 8.4727C11.4827 11.6727 13.5527 13.7127 16.8527 13.7127C17.6627 13.7127 18.3627 13.6027 18.9227 13.3727C19.2227 13.2627 19.4727 13.3027 19.6027 13.4227C19.7927 13.6127 19.8227 13.9027 19.6727 14.2427C19.4827 14.6727 19.2927 15.0527 19.0027 15.3927ZM6.0427 17.9627C5.6227 17.9627 5.2227 17.6227 5.2227 17.1827C5.2227 16.7527 5.6027 16.4227 6.0427 16.4227H21.8327C22.2827 16.4227 22.6727 16.7527 22.6727 17.1827C22.6727 17.6227 22.2727 17.9627 21.8327 17.9627ZM7.0427 20.4827C6.6727 20.4827 6.3527 20.1627 6.3527 19.7927C6.3527 19.4227 6.6727 19.1227 7.0427 19.1227C7.4127 19.1227 7.7127 19.4227 7.7127 19.7927C7.7127 20.1627 7.4127 20.4827 7.0427 20.4827ZM10.5027 20.4827C10.1327 20.4827 9.8327 20.1627 9.8327 19.7927C9.8327 19.4227 10.1327 19.1227 10.5027 19.1227C10.8727 19.1227 11.1727 19.4227 11.1727 19.7927C11.1727 20.1627 10.8727 20.4827 10.5027 20.4827ZM13.9627 20.4827C13.5927 20.4827 13.2727 20.1627 13.2727 19.7927C13.2727 19.4227 13.5927 19.1227 13.9627 19.1227C14.3327 19.1227 14.6427 19.4227 14.6427 19.7927C14.6427 20.1627 14.3327 20.4827 13.9627 20.4827ZM17.4227 20.4827C17.0527 20.4827 16.7527 20.1627 16.7527 19.7927C16.7527 19.4227 17.0527 19.1227 17.4227 19.1227C17.7827 19.1227 18.0927 19.4227 18.0927 19.7927C18.0927 20.1627 17.7827 20.4827 17.4227 20.4827ZM20.8727 20.4827C20.5227 20.4827 20.2027 20.1627 20.2027 19.7927C20.2027 19.4227 20.5227 19.1227 20.8727 19.1227C21.2427 19.1227 21.5427 19.4227 21.5427 19.7927C21.5427 20.1627 21.2427 20.4827 20.8727 20.4827ZM8.7527 22.3627C8.3927 22.3627 8.0827 22.0627 8.0827 21.6927C8.0827 21.3427 8.3927 21.0227 8.7527 21.0227C9.1227 21.0227 9.4327 21.3427 9.4327 21.6927C9.4327 22.0627 9.1227 22.3627 8.7527 22.3627ZM12.2227 22.3627C11.8527 22.3627 11.5527 22.0627 11.5527 21.6927C11.5527 21.3427 11.8527 21.0227 12.2227 21.0227C12.5927 21.0227 12.8927 21.3427 12.8927 21.6927C12.8927 22.0627 12.5927 22.3627 12.2227 22.3627ZM15.6827 22.3627C15.3127 22.3627 15.0027 22.0627 15.0027 21.6927C15.0027 21.3427 15.3127 21.0227 15.6827 21.0227C16.0527 21.0227 16.3527 21.3427 16.3527 21.6927C16.3527 22.0627 16.0527 22.3627 15.6827 22.3627ZM19.1427 22.3627C18.7727 22.3627 18.4527 22.0627 18.4527 21.6927C18.4527 21.3427 18.7727 21.0227 19.1427 21.0227C19.4927 21.0227 19.8127 21.3427 19.8127 21.6927C19.8127 22.0627 19.4927 22.3627 19.1427 22.3627Z"
        fillRule="evenodd"
        clipRule="evenodd"
    />
</svg>
        