
<svg
    viewBox="0 0 27.357421875 28.478515625"
    xmlns="http://www.w3.org/2000/svg"
>
    <path
        fill="inherit"
        d="M15.5537 6.6399C15.7237 6.6399 15.8037 6.5499 15.8337 6.3999C16.2537 4.1199 16.2437 4.0599 18.6237 3.6099C18.7737 3.5799 18.8837 3.4899 18.8837 3.3199C18.8837 3.1599 18.7737 3.0599 18.6237 3.0399C16.2437 2.5599 16.3237 2.4999 15.8337 0.2499C15.8037 0.0999 15.7237 -0.0001 15.5537 -0.0001C15.3937 -0.0001 15.3037 0.0999 15.2737 0.2499C14.7937 2.4999 14.8737 2.5599 12.4937 3.0399C12.3337 3.0599 12.2337 3.1599 12.2337 3.3199C12.2337 3.4899 12.3337 3.5799 12.4937 3.6099C14.8737 4.0899 14.8437 4.1199 15.2737 6.3999C15.3037 6.5499 15.3937 6.6399 15.5537 6.6399ZM22.0937 15.8999C22.3537 15.8999 22.5337 15.7199 22.5537 15.4499C23.0137 11.7999 23.1837 11.6999 26.8937 11.0999C27.1837 11.0599 27.3537 10.9099 27.3537 10.6499C27.3537 10.3899 27.1837 10.2299 26.9437 10.1899C23.2137 9.4699 23.0137 9.4899 22.5537 5.8399C22.5337 5.5599 22.3537 5.3899 22.0937 5.3899C21.8437 5.3899 21.6737 5.5599 21.6337 5.8199C21.1637 9.5299 21.0237 9.6499 17.2437 10.1899C17.0037 10.2099 16.8337 10.3899 16.8337 10.6499C16.8337 10.8999 17.0037 11.0599 17.2437 11.0999C21.0237 11.8299 21.1537 11.8299 21.6337 15.4799C21.6737 15.7199 21.8437 15.8999 22.0937 15.8999ZM11.7737 28.4799C16.2537 28.4799 20.6737 25.9599 22.5337 21.6699C22.7737 21.0999 22.6937 20.6299 22.4337 20.3699C22.2037 20.1299 21.7837 20.0799 21.3037 20.2599C20.2637 20.6699 19.0137 20.9199 17.4437 20.9199C11.3237 20.9199 7.7137 17.3899 7.7137 11.3999C7.7137 9.7499 8.0237 8.0899 8.4537 7.2299C8.7137 6.6999 8.6937 6.2199 8.4537 5.9499C8.1937 5.6499 7.7237 5.5199 7.0937 5.7699C2.8937 7.5099 0.0037 11.9199 0.0037 16.6099C0.0037 23.2099 5.1037 28.4799 11.7737 28.4799ZM11.7737 26.3899C6.2737 26.3899 2.0937 22.0399 2.0937 16.6899C2.0937 13.4399 3.6537 10.6899 6.1437 8.7499C5.8537 9.6299 5.7037 10.8299 5.7037 11.9799C5.7037 18.7199 10.0337 22.9299 16.9237 22.9299C17.9237 22.9299 18.8437 22.7999 19.4837 22.6499C17.8137 24.8599 15.1437 26.3899 11.7737 26.3899Z"
        fillRule="evenodd"
        clipRule="evenodd"
    />
</svg>
        