
<svg
    viewBox={0 0 27.890625 27.890625}
    xmlns="http://www.w3.org/2000/svg"
>
    <path
        fill="inherit"
        d="M13.9427 27.8927C21.6427 27.8927 27.8927 21.6427 27.8927 13.9427C27.8927 6.2627 21.6427 0.0027 13.9427 0.0027C6.2627 0.0027 0.0027 6.2627 0.0027 13.9427C0.0027 21.6427 6.2627 27.8927 13.9427 27.8927ZM9.1427 15.1927C8.4127 14.1627 7.9727 12.9027 7.9727 11.5027C7.9727 8.8627 9.4427 6.5727 11.6327 5.6727C11.9727 5.5327 12.2727 5.5827 12.4327 5.7527C12.5527 5.9427 12.5827 6.2027 12.4327 6.4927C12.1927 6.9427 12.0627 7.8027 12.0627 8.6227C12.0627 11.6627 14.0527 13.6027 17.1727 13.6027C17.9327 13.6027 18.5927 13.4927 19.1227 13.2727C19.4127 13.1627 19.6327 13.2027 19.7827 13.3327C19.9427 13.5127 19.9727 13.7827 19.8527 14.0827C19.6727 14.4927 19.4727 14.8727 19.1927 15.1927ZM7.0227 17.2127C6.7427 17.2127 6.5327 17.0127 6.5327 16.7227C6.5327 16.4327 6.7427 16.2327 7.0227 16.2327H22.1627C22.4527 16.2327 22.6527 16.4327 22.6527 16.7227C22.6527 17.0127 22.4527 17.2127 22.1627 17.2127ZM5.7127 19.1527C5.4327 19.1527 5.2127 18.9327 5.2127 18.6527C5.2127 18.3727 5.4327 18.1527 5.7127 18.1527H20.8327C21.1227 18.1527 21.3327 18.3727 21.3327 18.6527C21.3327 18.9327 21.1227 19.1527 20.8327 19.1527ZM7.0227 21.0827C6.7427 21.0827 6.5327 20.8727 6.5327 20.5927C6.5327 20.3027 6.7427 20.0927 7.0227 20.0927H22.1627C22.4527 20.0927 22.6527 20.3027 22.6527 20.5927C22.6527 20.8727 22.4527 21.0827 22.1627 21.0827Z"
        fillRule="evenodd"
        clipRule="evenodd"
    />
</svg>
        