
<svg
    viewBox="0 0 27.890625 27.890625"
    xmlns="http://www.w3.org/2000/svg"
>
    <path
        fill="inherit"
        d="M13.9437 27.8864C21.6437 27.8864 27.8937 21.6464 27.8937 13.9464C27.8937 6.2464 21.6437 -0.0036 13.9437 -0.0036C6.2437 -0.0036 0.0037 6.2464 0.0037 13.9464C0.0037 21.6464 6.2437 27.8864 13.9437 27.8864ZM13.9437 25.5664C7.5237 25.5664 2.3237 20.3664 2.3237 13.9464C2.3237 7.5164 7.5237 2.3264 13.9437 2.3264C20.3737 2.3264 25.5637 7.5164 25.5637 13.9464C25.5637 20.3664 20.3737 25.5664 13.9437 25.5664ZM17.2237 5.8364C16.8137 5.8364 16.5137 6.1764 16.5137 6.5864V9.6264L16.5437 10.0864L16.4737 10.0064L15.5437 9.1064C15.4037 8.9864 15.2337 8.8964 15.0637 8.8964C14.7137 8.8964 14.4337 9.1564 14.4337 9.5064C14.4337 9.6764 14.4937 9.8464 14.6537 9.9964L16.7437 11.9364C16.9137 12.0864 17.0537 12.1664 17.2237 12.1664C17.3937 12.1664 17.5437 12.0864 17.6937 11.9364L19.7837 9.9964C19.9437 9.8264 20.0037 9.6764 20.0037 9.5064C20.0037 9.1564 19.7437 8.8964 19.3737 8.8964C19.2237 8.8964 19.0037 8.9664 18.8937 9.0964L18.0637 9.9564L17.8937 10.1264L17.9237 9.6264V6.5864C17.9237 6.1764 17.6237 5.8364 17.2237 5.8364ZM9.2837 17.7964H19.0137C19.2937 17.4764 19.4837 17.1064 19.6637 16.7064C19.7837 16.4064 19.7537 16.1564 19.5937 15.9664C19.4537 15.8564 19.2337 15.8164 18.9637 15.9264C18.4437 16.1364 17.8037 16.2464 17.0637 16.2464C14.0237 16.2464 12.1037 14.3664 12.1037 11.4064C12.1037 10.6264 12.2237 9.7764 12.4537 9.3364C12.6037 9.0664 12.5737 8.8064 12.4537 8.6264C12.3037 8.4464 12.0137 8.4064 11.6937 8.5564C9.5737 9.4164 8.1337 11.6364 8.1337 14.1864C8.1337 15.5764 8.5537 16.8064 9.2837 17.7964ZM6.7837 20.1964H21.0837C21.4737 20.1964 21.8337 19.8764 21.8337 19.4864C21.8337 19.0864 21.4937 18.7864 21.0837 18.7864H6.7837C6.3837 18.7864 6.0337 19.0864 6.0337 19.4864C6.0337 19.8764 6.3937 20.1964 6.7837 20.1964Z"
        fillRule="evenodd"
        clipRule="evenodd"
    />
</svg>
        