
<svg
    viewBox={0 0 35.041015625 28.533203125}
    xmlns="http://www.w3.org/2000/svg"
>
    <path
        fill="inherit"
        d="M24.4437 12.9445C25.0437 12.9445 25.5537 12.4045 25.5537 11.7345V4.8245L25.3937 2.7645L26.4037 3.9245L28.1137 5.6645C28.3137 5.8545 28.5737 5.9745 28.8337 5.9745C29.3837 5.9745 29.7737 5.5945 29.7737 5.0545C29.7737 4.7745 29.6837 4.5545 29.4537 4.3345L25.1837 0.3545C24.8937 0.0945 24.6937 0.0045 24.4437 0.0045C24.1837 0.0045 23.9937 0.0945 23.6937 0.3545L19.4237 4.3345C19.1937 4.5545 19.1037 4.7745 19.1037 5.0545C19.1037 5.5945 19.4937 5.9745 20.0437 5.9745C20.3037 5.9745 20.5737 5.8545 20.7637 5.6645L22.6137 3.7845L23.4837 2.7645L23.3237 4.8245V11.7345C23.3237 12.4045 23.8437 12.9445 24.4437 12.9445ZM1.1937 28.5345H33.8537C34.4937 28.5345 35.0437 28.0445 35.0437 27.4345C35.0437 26.8345 34.4937 26.3445 33.8537 26.3445H24.6137C25.8937 25.3045 26.9037 23.9845 27.5537 22.4645C27.9737 21.3945 27.1237 20.6045 26.0737 21.0645C25.2237 21.4345 23.6137 21.7345 22.1437 21.7345C16.3337 21.7345 12.9237 18.3045 12.9237 12.5145C12.9237 11.0345 13.1937 9.4045 13.5937 8.5745C14.1737 7.3445 13.2937 6.6545 12.2137 7.0945C8.1637 8.7645 5.4237 12.9845 5.4237 17.8245C5.4237 21.3445 6.8537 24.3345 9.2037 26.3445H1.1937C0.5437 26.3445 0.0037 26.8345 0.0037 27.4345C0.0037 28.0445 0.5437 28.5345 1.1937 28.5345ZM7.5637 17.6645C7.5637 14.5145 8.9737 11.7145 11.2637 9.8545C10.9737 10.6945 10.8837 11.8445 10.8837 13.0545C10.8837 19.4245 15.2137 23.7745 21.5837 23.7745C22.7937 23.7745 23.9537 23.6845 24.7837 23.3945C23.7637 24.6945 22.4237 25.7145 20.8737 26.3445H13.1637C9.7937 24.9345 7.5637 21.6745 7.5637 17.6645Z"
        fillRule="evenodd"
        clipRule="evenodd"
    />
</svg>
        