
<svg
    viewBox="0 0 31.5546875 30.102883515535602"
    xmlns="http://www.w3.org/2000/svg"
>
    <path
        fill="inherit"
        d="M7.6037 16.2636H24.6637C25.1037 15.7236 25.4537 15.1036 25.7537 14.4236C25.9937 13.8836 25.9337 13.4236 25.6637 13.1336C25.4137 12.8936 25.0037 12.8536 24.5237 13.0236C23.6137 13.3836 22.5337 13.5636 21.2037 13.5636C15.9237 13.5636 12.5637 10.2936 12.5637 5.1336C12.5637 3.7736 12.8137 2.3036 13.1937 1.5436C13.4437 1.0636 13.4137 0.6036 13.1637 0.2836C12.9237 -0.0164 12.4137 -0.0964 11.8537 0.1336C8.1237 1.6536 5.5937 5.5436 5.5937 10.0236C5.5937 12.3936 6.3037 14.5536 7.6037 16.2636ZM2.9237 19.5936H30.6937C31.1737 19.5936 31.5537 19.2236 31.5537 18.7236C31.5537 18.2336 31.1737 17.8636 30.6937 17.8636H2.9237C2.4337 17.8636 2.0637 18.2336 2.0637 18.7236C2.0637 19.2236 2.4337 19.5936 2.9237 19.5936ZM0.8637 24.8536H28.6337C29.1037 24.8536 29.4937 24.4736 29.4937 23.9736C29.4937 23.4836 29.1037 23.1136 28.6337 23.1136H0.8637C0.3837 23.1136 0.0037 23.4836 0.0037 23.9736C0.0037 24.4736 0.3837 24.8536 0.8637 24.8536ZM2.9237 30.1036H30.6937C31.1737 30.1036 31.5537 29.7336 31.5537 29.2436C31.5537 28.7336 31.1737 28.3636 30.6937 28.3636H2.9237C2.4337 28.3636 2.0637 28.7336 2.0637 29.2436C2.0637 29.7336 2.4337 30.1036 2.9237 30.1036Z"
        fillRule="evenodd"
        clipRule="evenodd"
    />
</svg>
        