
<svg
    viewBox={0 0 27.890625 27.890625}
    xmlns="http://www.w3.org/2000/svg"
>
    <path
        fill="inherit"
        d="M13.9427 27.8927C21.6427 27.8927 27.8927 21.6427 27.8927 13.9427C27.8927 6.2627 21.6427 0.0027 13.9427 0.0027C6.2627 0.0027 0.0027 6.2627 0.0027 13.9427C0.0027 21.6427 6.2627 27.8927 13.9427 27.8927ZM17.9527 13.1227C17.7827 13.1227 17.6627 12.9927 17.6327 12.8227C17.3227 10.3227 17.2027 10.2827 14.5927 9.7927C14.4127 9.7727 14.3027 9.6527 14.3027 9.4627C14.3027 9.2927 14.4127 9.1727 14.5927 9.1627C17.2027 8.7927 17.2827 8.6527 17.6327 6.1227C17.6627 5.9427 17.7827 5.8227 17.9527 5.8227C18.1127 5.8227 18.2427 5.9427 18.2627 6.1227C18.6327 8.6127 18.7327 8.6527 21.3127 9.1627C21.4827 9.1727 21.6027 9.2927 21.6027 9.4627C21.6027 9.6627 21.4827 9.7727 21.2827 9.7927C18.7127 10.1727 18.5827 10.2927 18.2627 12.8227C18.2427 12.9927 18.1127 13.1227 17.9527 13.1227ZM13.7427 22.1027C9.4027 22.1027 6.0927 19.0027 6.0927 14.6527C6.0927 11.5627 7.9327 8.6127 10.6627 7.5327C11.2827 7.2827 11.6527 7.6827 11.4127 8.2027C11.1927 8.8427 10.9627 9.9927 10.9627 10.8327C10.9627 14.8327 13.5327 17.3527 17.5227 17.3527C18.4327 17.3527 19.3727 17.1627 19.9327 16.9627C20.5127 16.7727 20.8227 17.2127 20.5727 17.7727C19.6427 20.1627 16.9127 22.1027 13.7427 22.1027Z"
        fillRule="evenodd"
        clipRule="evenodd"
    />
</svg>
        