<svg viewBox="0 0 27.890625 27.890625" xmlns="http://www.w3.org/2000/svg"><path d="M13.9427 27.8927C21.6427 27.8927 27.8927 21.6427 27.8927 13.9427C27.8927 6.2627 21.6427 0.0027 13.9427 0.0027C6.2627 0.0027 0.0027 6.2627 0.0027 13.9427C0.0027 21.6427 6.2627 27.8927 13.9427 27.8927ZM14.0827 22.1727C9.6827 22.1727 6.1127 18.6027 6.1127 14.2027C6.1127 10.8927 8.1627 8.0427 11.0927 6.8227C11.1927 6.7627 11.3627 6.7427 11.5027 6.7427C11.7827 6.7427 11.9927 6.9327 11.9927 7.2027C11.9927 7.3127 11.9627 7.4127 11.9127 7.5327C11.5427 8.4727 11.3227 9.5027 11.3227 10.4727C11.3227 14.4827 13.9427 17.0927 18.0727 17.0927C19.0027 17.0927 19.8827 16.8727 20.4927 16.7027C20.6827 16.6527 20.8227 16.6227 20.9327 16.6227C21.1527 16.6227 21.3927 16.8127 21.3927 17.1027C21.3927 17.1727 21.3827 17.3527 21.3127 17.5227C20.1927 20.0427 17.4727 22.1727 14.0827 22.1727Z" /></svg>