
<svg
    viewBox={0 0 27.890625 27.890625}
    xmlns="http://www.w3.org/2000/svg"
>
    <path
        fill="inherit"
        d="M13.9437 27.8864C21.6437 27.8864 27.8937 21.6464 27.8937 13.9464C27.8937 6.2464 21.6437 -0.0036 13.9437 -0.0036C6.2437 -0.0036 0.0037 6.2464 0.0037 13.9464C0.0037 21.6464 6.2437 27.8864 13.9437 27.8864ZM13.9437 25.5664C7.5237 25.5664 2.3237 20.3664 2.3237 13.9464C2.3237 7.5164 7.5237 2.3264 13.9437 2.3264C20.3737 2.3264 25.5637 7.5164 25.5637 13.9464C25.5637 20.3664 20.3737 25.5664 13.9437 25.5664ZM17.2237 12.1664C17.6237 12.1664 17.9237 11.8164 17.9237 11.4064V8.3764L17.8937 7.8764L18.0637 8.0364L18.8937 8.8964C19.0037 9.0364 19.2237 9.1064 19.3737 9.1064C19.7437 9.1064 20.0037 8.8464 20.0037 8.4864C20.0037 8.3264 19.9437 8.1664 19.7837 8.0164L17.6937 6.0564C17.5437 5.9064 17.3937 5.8364 17.2237 5.8364C17.0537 5.8364 16.9137 5.9064 16.7437 6.0564L14.6537 8.0164C14.4937 8.1664 14.4337 8.3264 14.4337 8.4864C14.4337 8.8464 14.7137 9.1064 15.0637 9.1064C15.2337 9.1064 15.4037 9.0264 15.5437 8.8964L16.4737 7.9864L16.5437 7.9164L16.5137 8.3764V11.4064C16.5137 11.8164 16.8137 12.1664 17.2237 12.1664ZM9.2837 17.7964H19.0137C19.2937 17.4764 19.4837 17.1064 19.6637 16.7064C19.7837 16.4064 19.7537 16.1564 19.5937 15.9664C19.4537 15.8564 19.2337 15.8164 18.9637 15.9264C18.4437 16.1364 17.8037 16.2464 17.0637 16.2464C14.0237 16.2464 12.1037 14.3664 12.1037 11.4064C12.1037 10.6264 12.2237 9.7764 12.4537 9.3364C12.6037 9.0664 12.5737 8.8064 12.4537 8.6264C12.3037 8.4464 12.0137 8.4064 11.6937 8.5564C9.5737 9.4164 8.1337 11.6364 8.1337 14.1864C8.1337 15.5764 8.5537 16.8064 9.2837 17.7964ZM6.7837 20.1964H21.0837C21.4737 20.1964 21.8337 19.8764 21.8337 19.4864C21.8337 19.0864 21.4937 18.7864 21.0837 18.7864H6.7837C6.3837 18.7864 6.0337 19.0864 6.0337 19.4864C6.0337 19.8764 6.3937 20.1964 6.7837 20.1964Z"
        fillRule="evenodd"
        clipRule="evenodd"
    />
</svg>
        