<svg viewBox="0 0 26.8515625 27.15234375" xmlns="http://www.w3.org/2000/svg"><path d="M21.1527 18.3479C13.7527 18.3479 9.0227 13.7079 9.0227 6.2979C9.0227 4.6079 9.3927 2.5479 9.8827 1.4079C10.0127 1.0979 10.0327 0.8879 10.0327 0.7679C10.0327 0.4079 9.7627 -0.0021 9.2127 -0.0021C9.0627 -0.0021 8.7327 0.0279 8.4227 0.1479C3.3927 2.1579 0.0027 7.4679 0.0027 13.0179C0.0027 20.8179 6.3327 27.1479 14.1327 27.1479C20.0327 27.1479 24.9627 23.5879 26.7027 19.1579C26.8227 18.8279 26.8527 18.4879 26.8527 18.3579C26.8527 17.8379 26.4427 17.5179 26.0627 17.5179C25.8827 17.5179 25.7327 17.5579 25.4727 17.6379C24.4027 17.9779 22.8327 18.3479 21.1527 18.3479Z" /></svg>