
<svg
    viewBox={0 0 27.890625 27.890625}
    xmlns="http://www.w3.org/2000/svg"
>
    <path
        fill="inherit"
        d="M13.9427 27.8864C21.6427 27.8864 27.8927 21.6464 27.8927 13.9464C27.8927 6.2464 21.6427 -0.0036 13.9427 -0.0036C6.2527 -0.0036 0.0027 6.2464 0.0027 13.9464C0.0027 21.6464 6.2527 27.8864 13.9427 27.8864ZM13.9427 25.5664C7.5227 25.5664 2.3227 20.3664 2.3227 13.9464C2.3227 7.5164 7.5227 2.3264 13.9427 2.3264C20.3727 2.3264 25.5627 7.5164 25.5627 13.9464C25.5627 20.3664 20.3727 25.5664 13.9427 25.5664ZM17.8327 13.1364C17.9927 13.1364 18.1027 13.0064 18.1327 12.8364C18.4327 10.4064 18.5627 10.2764 21.0527 9.9164C21.2427 9.8864 21.3727 9.7864 21.3727 9.5964C21.3727 9.4364 21.2427 9.3064 21.0827 9.2964C18.5827 8.8164 18.4827 8.7764 18.1327 6.3564C18.1027 6.1964 17.9927 6.0664 17.8327 6.0664C17.6627 6.0664 17.5527 6.1964 17.5227 6.3564C17.1727 8.8064 17.1027 8.9364 14.5727 9.2964C14.3927 9.3064 14.2827 9.4364 14.2827 9.5964C14.2827 9.7764 14.3927 9.8864 14.5727 9.9164C17.1027 10.3864 17.2127 10.4364 17.5227 12.8364C17.5527 13.0064 17.6627 13.1364 17.8327 13.1364ZM13.7527 21.8564C16.8327 21.8564 19.4827 19.9764 20.3827 17.6364C20.6127 17.1164 20.3127 16.6764 19.7527 16.8664C19.2227 17.0664 18.3027 17.2564 17.4227 17.2564C13.5527 17.2564 11.0627 14.8064 11.0627 10.9264C11.0627 10.1064 11.2827 8.9864 11.5027 8.3664C11.7127 7.8464 11.3627 7.4764 10.7627 7.7264C8.1027 8.7464 6.3327 11.6164 6.3327 14.6264C6.3327 18.8364 9.5427 21.8564 13.7527 21.8564Z"
        fillRule="evenodd"
        clipRule="evenodd"
    />
</svg>
        