<svg viewBox="0 0 27.453125 27.64453125" xmlns="http://www.w3.org/2000/svg"><path d="M21.4227 18.5707C13.8927 18.5707 9.2727 14.0307 9.2727 6.7407C9.2727 4.6607 9.6827 2.8307 10.1827 1.8407C10.3927 1.4507 10.4327 1.2607 10.4327 0.9807C10.4327 0.5307 10.0127 0.0007 9.4327 0.0007C9.3227 0.0007 9.0627 0.0407 8.6827 0.1907C3.6227 2.2407 0.0027 7.4507 0.0027 13.3207C0.0027 21.2307 6.4227 27.6407 14.3327 27.6407C19.8527 27.6407 24.8427 24.5407 27.2627 19.4307C27.4427 19.0707 27.4527 18.7707 27.4527 18.6207C27.4527 18.0607 26.9727 17.6807 26.5527 17.6807C26.3327 17.6807 26.1727 17.6907 25.8427 17.8107C24.7327 18.2607 23.0627 18.5707 21.4227 18.5707ZM2.1427 13.2207C2.1427 8.9707 4.3627 4.9507 7.9027 2.6907C7.4627 3.9607 7.2327 5.3707 7.2327 6.9307C7.2327 15.4807 12.3827 20.5607 21.1127 20.5607C22.5127 20.5607 23.7027 20.4007 24.8427 20.0007C22.7627 23.4307 18.8127 25.5207 14.4227 25.5207C7.3927 25.5207 2.1427 20.2907 2.1427 13.2207Z" /></svg>