
<svg
    viewBox="0 0 35.461760452362604 33.4140625"
    xmlns="http://www.w3.org/2000/svg"
>
    <path
        fill="inherit"
        d="M22.8712 11.0745C25.2812 11.0745 27.3312 9.6145 28.0512 7.8045C28.1612 7.5445 28.1212 7.2045 27.8112 7.2045C27.6712 7.1645 27.5812 7.1745 27.3812 7.2345C26.9912 7.3445 26.3712 7.4745 25.7312 7.4745C22.7512 7.4745 20.7812 5.5945 20.7812 2.5545C20.7812 1.9445 20.9712 1.0345 21.1512 0.5745C21.2612 0.3045 21.1912 0.0045 20.8212 0.0045C20.7412 0.0045 20.6212 0.0245 20.4712 0.0945C18.4612 0.9345 17.0912 3.1445 17.0912 5.4445C17.0912 8.7545 19.6212 11.0745 22.8712 11.0745ZM1.0012 33.4145H2.6112C3.3512 33.4145 3.7212 33.0545 3.9212 32.5245C6.1812 26.9445 8.4512 21.3445 10.7212 15.7645C10.8812 15.3445 10.6912 14.9945 10.2712 14.9945H9.4612C9.0412 14.9945 8.7612 15.2045 8.5912 15.5745C5.7612 21.0545 2.9712 26.5545 0.1412 32.0445C-0.1888 32.6745 0.0512 33.4145 1.0012 33.4145ZM32.8512 33.4145H34.4512C35.4112 33.4145 35.6612 32.6745 35.3112 32.0445C32.5112 26.5545 29.7012 21.0545 26.8912 15.5745C26.7012 15.2045 26.4312 14.9945 26.0012 14.9945H25.2012C24.7712 14.9945 24.5812 15.3445 24.7512 15.7645C27.0012 21.3445 29.2912 26.9445 31.5412 32.5245C31.7512 33.0545 32.1212 33.4145 32.8512 33.4145ZM17.4512 18.3445H17.9912C18.5012 18.3445 18.8812 17.9745 18.8812 17.4545V15.8845C18.8812 15.3645 18.5012 14.9945 17.9912 14.9945H17.4512C16.9412 14.9945 16.5612 15.3645 16.5612 15.8845V17.4545C16.5612 17.9745 16.9412 18.3445 17.4512 18.3445ZM17.4512 25.3745H17.9912C18.5012 25.3745 18.8812 24.9945 18.8812 24.4845V21.8745C18.8812 21.3545 18.5012 20.9845 17.9912 20.9845H17.4512C16.9412 20.9845 16.5612 21.3545 16.5612 21.8745V24.4845C16.5612 24.9945 16.9412 25.3745 17.4512 25.3745ZM17.4512 33.4145H17.9912C18.5012 33.4145 18.8812 33.0345 18.8812 32.5245V28.9845C18.8812 28.4745 18.5012 28.0945 17.9912 28.0945H17.4512C16.9412 28.0945 16.5612 28.4745 16.5612 28.9845V32.5245C16.5612 33.0345 16.9412 33.4145 17.4512 33.4145Z"
        fillRule="evenodd"
        clipRule="evenodd"
    />
</svg>
        