<svg viewBox="0 0 30.283203125 30.649758515535602" xmlns="http://www.w3.org/2000/svg"><path d="M5.8937 16.2636H22.9737C23.4037 15.7236 23.7637 15.1036 24.0537 14.4236C24.2837 13.8836 24.2437 13.4236 23.9537 13.1336C23.7237 12.8936 23.3137 12.8536 22.8337 13.0236C21.9137 13.3836 20.8337 13.5636 19.5137 13.5636C14.2237 13.5636 10.8537 10.2936 10.8537 5.1336C10.8537 3.7736 11.1137 2.3036 11.4837 1.5436C11.7337 1.0636 11.7037 0.6036 11.4537 0.2836C11.2137 -0.0164 10.7237 -0.0964 10.1537 0.1336C6.4237 1.6536 3.8937 5.5436 3.8937 10.0236C3.8937 12.3936 4.6037 14.5536 5.8937 16.2636ZM1.2137 19.5936H28.9837C29.4737 19.5936 29.8437 19.2236 29.8437 18.7236C29.8437 18.2336 29.4737 17.8636 28.9837 17.8636H1.2137C0.7337 17.8636 0.3537 18.2336 0.3537 18.7236C0.3537 19.2236 0.7337 19.5936 1.2137 19.5936ZM2.4437 24.0236C2.8437 24.0236 3.1437 23.7036 3.1437 23.3236C3.1437 22.9236 2.8437 22.6136 2.4437 22.6136C2.0537 22.6136 1.7537 22.9236 1.7537 23.3236C1.7537 23.7036 2.0537 24.0236 2.4437 24.0236ZM8.2137 24.0236C8.6137 24.0236 8.9237 23.7036 8.9237 23.3236C8.9237 22.9236 8.6137 22.6136 8.2137 22.6136C7.8337 22.6136 7.5237 22.9236 7.5237 23.3236C7.5237 23.7036 7.8337 24.0236 8.2137 24.0236ZM14.0037 24.0236C14.3937 24.0236 14.6937 23.7036 14.6937 23.3236C14.6937 22.9236 14.3937 22.6136 14.0037 22.6136C13.6037 22.6136 13.3037 22.9236 13.3037 23.3236C13.3037 23.7036 13.6037 24.0236 14.0037 24.0236ZM19.7737 24.0236C20.1637 24.0236 20.4837 23.7036 20.4837 23.3236C20.4837 22.9236 20.1637 22.6136 19.7737 22.6136C19.3837 22.6136 19.0737 22.9236 19.0737 23.3236C19.0737 23.7036 19.3837 24.0236 19.7737 24.0236ZM25.5537 24.0236C25.9537 24.0236 26.2537 23.7036 26.2537 23.3236C26.2537 22.9236 25.9537 22.6136 25.5537 22.6136C25.1537 22.6136 24.8537 22.9236 24.8537 23.3236C24.8537 23.7036 25.1537 24.0236 25.5537 24.0236ZM0.6937 27.3236C1.0937 27.3236 1.4037 27.0236 1.4037 26.6336C1.4037 26.2336 1.0937 25.9336 0.6937 25.9336C0.3137 25.9336 0.0037 26.2336 0.0037 26.6336C0.0037 27.0236 0.3137 27.3236 0.6937 27.3236ZM6.4837 27.3236C6.8637 27.3236 7.1737 27.0236 7.1737 26.6336C7.1737 26.2336 6.8637 25.9336 6.4837 25.9336C6.0837 25.9336 5.7737 26.2336 5.7737 26.6336C5.7737 27.0236 6.0837 27.3236 6.4837 27.3236ZM12.2537 27.3236C12.6437 27.3236 12.9637 27.0236 12.9637 26.6336C12.9637 26.2336 12.6437 25.9336 12.2537 25.9336C11.8637 25.9336 11.5537 26.2336 11.5537 26.6336C11.5537 27.0236 11.8637 27.3236 12.2537 27.3236ZM18.0337 27.3236C18.4137 27.3236 18.7337 27.0236 18.7337 26.6336C18.7337 26.2336 18.4137 25.9336 18.0337 25.9336C17.6337 25.9336 17.3237 26.2336 17.3237 26.6336C17.3237 27.0236 17.6337 27.3236 18.0337 27.3236ZM23.8037 27.3236C24.2037 27.3236 24.5137 27.0236 24.5137 26.6336C24.5137 26.2336 24.2037 25.9336 23.8037 25.9336C23.4237 25.9336 23.1037 26.2336 23.1037 26.6336C23.1037 27.0236 23.4237 27.3236 23.8037 27.3236ZM29.5837 27.3236C29.9737 27.3236 30.2837 27.0236 30.2837 26.6336C30.2837 26.2336 29.9737 25.9336 29.5837 25.9336C29.1937 25.9336 28.8737 26.2336 28.8737 26.6336C28.8737 27.0236 29.1937 27.3236 29.5837 27.3236ZM4.7337 30.6536C5.1237 30.6536 5.4237 30.3336 5.4237 29.9536C5.4237 29.5536 5.1237 29.2436 4.7337 29.2436C4.3337 29.2436 4.0337 29.5536 4.0337 29.9536C4.0337 30.3336 4.3337 30.6536 4.7337 30.6536ZM10.5137 30.6536C10.8937 30.6536 11.2137 30.3336 11.2137 29.9536C11.2137 29.5536 10.8937 29.2436 10.5137 29.2436C10.1137 29.2436 9.8037 29.5536 9.8037 29.9536C9.8037 30.3336 10.1137 30.6536 10.5137 30.6536ZM16.2837 30.6536C16.6837 30.6536 16.9837 30.3336 16.9837 29.9536C16.9837 29.5536 16.6837 29.2436 16.2837 29.2436C15.8837 29.2436 15.5837 29.5536 15.5837 29.9536C15.5837 30.3336 15.8837 30.6536 16.2837 30.6536ZM22.0637 30.6536C22.4537 30.6536 22.7637 30.3336 22.7637 29.9536C22.7637 29.5536 22.4537 29.2436 22.0637 29.2436C21.6737 29.2436 21.3537 29.5536 21.3537 29.9536C21.3537 30.3336 21.6737 30.6536 22.0637 30.6536ZM27.8337 30.6536C28.2337 30.6536 28.5337 30.3336 28.5337 29.9536C28.5337 29.5536 28.2337 29.2436 27.8337 29.2436C27.4437 29.2436 27.1437 29.5536 27.1437 29.9536C27.1437 30.3336 27.4437 30.6536 27.8337 30.6536Z" /></svg>