
<svg
    viewBox="0 0 26.400390625 31.185546875"
    xmlns="http://www.w3.org/2000/svg"
>
    <path
        fill="inherit"
        d="M19.3226 5.8114H16.2126V5.7414L19.4026 1.5414C19.6826 1.1614 19.7926 0.9414 19.7926 0.7014C19.7926 0.2614 19.4726 0.0014 19.0026 0.0014H14.6326C14.2026 0.0014 13.9026 0.2914 13.9026 0.7114C13.9026 1.1514 14.2026 1.4214 14.6326 1.4214H17.5526V1.4914L14.3326 5.6714C14.0426 6.0414 13.9426 6.2514 13.9426 6.5314C13.9426 6.9314 14.2426 7.2214 14.7126 7.2214H19.3226C19.7426 7.2214 20.0426 6.9614 20.0426 6.5114C20.0426 6.0814 19.7426 5.8114 19.3226 5.8114ZM25.7126 11.0514H23.5326V10.9914L25.8026 8.0114C26.0626 7.6714 26.1726 7.4614 26.1726 7.2014C26.1726 6.8114 25.8526 6.5614 25.4326 6.5614H22.0826C21.6926 6.5614 21.4126 6.8314 21.4126 7.2214C21.4126 7.6514 21.6926 7.9114 22.0826 7.9114H24.0526V7.9714L21.8026 10.9214C21.5426 11.2514 21.4526 11.4714 21.4526 11.7414C21.4526 12.1114 21.7426 12.3914 22.1626 12.3914H25.7126C26.1226 12.3914 26.4026 12.1414 26.4026 11.7214C26.4026 11.3114 26.1226 11.0514 25.7126 11.0514ZM11.6226 31.1814C16.4726 31.1814 20.4426 28.4514 22.2426 24.5714C22.4626 24.0914 22.4126 23.6814 22.1626 23.4314C21.9526 23.2414 21.6026 23.2114 21.1826 23.3514C20.0726 23.8014 18.8026 24.0214 17.3326 24.0214C11.2526 24.0214 7.3026 20.1914 7.3026 14.2214C7.3026 12.7014 7.6926 10.9214 8.1526 9.9914C8.3926 9.5114 8.3826 9.1014 8.1726 8.8614C7.9526 8.5814 7.5326 8.5314 7.0026 8.7514C2.8026 10.5714 0.0026 14.7914 0.0026 19.5414C0.0026 25.9814 5.0326 31.1814 11.6226 31.1814ZM19.6826 15.7114H17.8326V15.6514L19.7526 13.1014C20.0026 12.7514 20.1126 12.5614 20.1126 12.3314C20.1126 11.9514 19.8126 11.7214 19.4026 11.7214H16.4626C16.0926 11.7214 15.8226 11.9614 15.8226 12.3414C15.8226 12.7514 16.0926 12.9914 16.4626 12.9914H18.1026V13.0614L16.2026 15.6014C15.9526 15.9114 15.8626 16.1214 15.8626 16.3814C15.8626 16.7314 16.1326 16.9914 16.5326 16.9914H19.6826C20.0726 16.9914 20.3326 16.7314 20.3326 16.3514C20.3326 15.9714 20.0726 15.7114 19.6826 15.7114Z"
        fillRule="evenodd"
        clipRule="evenodd"
    />
</svg>
        