<svg viewBox="0 0 27.890625 27.890625" xmlns="http://www.w3.org/2000/svg"><path d="M13.9437 27.8927C21.6437 27.8927 27.8937 21.6427 27.8937 13.9427C27.8937 6.2627 21.6437 0.0027 13.9437 0.0027C6.2637 0.0027 0.0037 6.2627 0.0037 13.9427C0.0037 21.6427 6.2637 27.8927 13.9437 27.8927ZM17.3537 5.6227C17.7637 5.6227 18.0637 5.9927 18.0637 6.4127V9.5127L18.0337 10.0327L18.1937 9.8727L19.0537 8.9827C19.1637 8.8427 19.4037 8.7727 19.5537 8.7727C19.9337 8.7727 20.2037 9.0327 20.2037 9.4027C20.2037 9.5827 20.1537 9.7527 19.9737 9.9127L17.8237 11.9227C17.6637 12.0727 17.5137 12.1427 17.3537 12.1427C17.1537 12.1427 17.0237 12.0727 16.8437 11.9227L14.6937 9.9127C14.5237 9.7527 14.4637 9.5827 14.4637 9.4027C14.4637 9.0327 14.7537 8.7727 15.1237 8.7727C15.2837 8.7727 15.4737 8.8627 15.6137 8.9827L16.5737 9.9227L16.6437 9.9927L16.6137 9.5127V6.4127C16.6137 5.9927 16.9137 5.6227 17.3537 5.6227ZM9.1437 17.9327C8.4037 16.9127 7.9737 15.6527 7.9737 14.2327C7.9737 11.5927 9.4437 9.3227 11.6337 8.4227C11.9737 8.2827 12.2737 8.3227 12.4237 8.5027C12.5537 8.6927 12.5737 8.9427 12.4237 9.2327C12.1937 9.6927 12.0537 10.5527 12.0537 11.3627C12.0537 14.4127 14.0437 16.3427 17.1737 16.3427C17.9337 16.3427 18.5937 16.2427 19.1237 16.0127C19.4137 15.9127 19.6337 15.9427 19.7837 16.0627C19.9437 16.2527 19.9737 16.5327 19.8537 16.8127C19.6737 17.2427 19.4737 17.6127 19.1937 17.9327ZM6.5737 20.4127C6.1837 20.4127 5.7937 20.1127 5.7937 19.7027C5.7937 19.2927 6.1637 18.9627 6.5737 18.9627H21.3137C21.7337 18.9627 22.0937 19.2727 22.0937 19.7027C22.0937 20.1127 21.7237 20.4127 21.3137 20.4127Z" /></svg>