
<svg
    viewBox="0 0 26.208984375 31.185546875"
    xmlns="http://www.w3.org/2000/svg"
>
    <path
        fill="inherit"
        d="M19.1238 5.8105H16.0238V5.7405L19.2138 1.5405C19.4938 1.1605 19.6038 0.9405 19.6038 0.7005C19.6038 0.2605 19.2738 0.0005 18.8138 0.0005H14.4338C14.0138 0.0005 13.7138 0.2905 13.7138 0.7105C13.7138 1.1505 14.0138 1.4205 14.4338 1.4205H17.3638V1.4905L14.1338 5.6705C13.8538 6.0405 13.7538 6.2505 13.7538 6.5305C13.7538 6.9305 14.0538 7.2205 14.5238 7.2205H19.1238C19.5538 7.2205 19.8538 6.9605 19.8538 6.5105C19.8538 6.0805 19.5538 5.8105 19.1238 5.8105ZM25.5238 11.0505H23.3338V10.9905L25.6038 8.0105C25.8638 7.6705 25.9738 7.4605 25.9738 7.2005C25.9738 6.8105 25.6638 6.5605 25.2338 6.5605H21.8838C21.5038 6.5605 21.2138 6.8405 21.2138 7.2205C21.2138 7.6605 21.5038 7.9205 21.8838 7.9205H23.8538V7.9705L21.6138 10.9205C21.3538 11.2505 21.2638 11.4705 21.2638 11.7405C21.2638 12.1105 21.5438 12.3905 21.9738 12.3905H25.5238C25.9338 12.3905 26.2138 12.1405 26.2138 11.7205C26.2138 11.3105 25.9338 11.0505 25.5238 11.0505ZM11.7538 31.1905C16.2538 31.1905 20.6538 28.6705 22.5338 24.3805C22.7738 23.8005 22.6938 23.3405 22.4338 23.0805C22.1938 22.8305 21.7838 22.7905 21.2838 22.9805C20.2638 23.3805 19.0038 23.6205 17.4338 23.6205C11.3238 23.6205 7.6938 20.1005 7.6938 14.1105C7.6938 12.4505 8.0138 10.8005 8.4338 9.9405C8.7138 9.4105 8.6838 8.9305 8.4538 8.6505C8.1938 8.3505 7.7238 8.2305 7.0838 8.4805C2.8838 10.2105 0.0038 14.6305 0.0038 19.3205C0.0038 25.9205 5.0838 31.1905 11.7538 31.1905ZM11.7538 29.0905C6.2638 29.0905 2.0738 24.7505 2.0738 19.4005C2.0738 16.1505 3.6338 13.4005 6.1238 11.4605C5.8538 12.3305 5.7038 13.5305 5.7038 14.6805C5.7038 21.4205 10.0338 25.6305 16.9138 25.6305C17.9138 25.6305 18.8438 25.5105 19.4638 25.3605C17.8038 27.5605 15.1338 29.0905 11.7538 29.0905ZM19.4938 15.7105H17.6338V15.6505L19.5638 13.1005C19.8138 12.7605 19.9238 12.5605 19.9238 12.3305C19.9238 11.9505 19.6238 11.7205 19.2138 11.7205H16.2738C15.9038 11.7205 15.6238 11.9605 15.6238 12.3505C15.6238 12.7605 15.9038 12.9905 16.2738 12.9905H17.9138V13.0605L16.0138 15.6005C15.7638 15.9105 15.6638 16.1205 15.6638 16.3805C15.6638 16.7305 15.9438 16.9905 16.3338 16.9905H19.4938C19.8838 16.9905 20.1338 16.7305 20.1338 16.3505C20.1338 15.9705 19.8838 15.7105 19.4938 15.7105Z"
        fillRule="evenodd"
        clipRule="evenodd"
    />
</svg>
        