
<svg
    viewBox="0 0 38.45795239057651 27.466796875"
    xmlns="http://www.w3.org/2000/svg"
>
    <path
        fill="inherit"
        d="M1.4326 21.8077H2.0726C2.7226 25.0477 5.5726 27.4677 9.0226 27.4677C12.4226 27.4677 15.2726 25.0377 15.9126 21.8077H24.4726C25.1326 25.0477 27.9726 27.4677 31.4126 27.4677C35.3126 27.4677 38.4626 24.3077 38.4626 20.4277C38.4626 16.5177 35.3126 13.3477 31.4126 13.3477C31.2926 13.3477 31.1526 13.3477 31.0326 13.3577L28.3826 0.9177C28.2426 0.2477 27.7026 -0.0023 26.9026 -0.0023H24.0726C23.4826 -0.0023 23.0226 0.4777 23.0226 1.0677C23.0226 1.6577 23.4826 2.1177 24.0726 2.1177H26.5126C26.6226 2.1177 26.6726 2.1477 26.6826 2.2177L27.7826 7.4377H24.9626C23.9526 7.4377 23.4626 7.9577 23.4626 9.0277V19.5877H17.2626V12.4377C17.2626 11.3577 16.7926 10.8677 15.7626 10.8677H8.5126C2.4326 10.8677 -0.6674 15.6377 0.1226 20.8377C0.2226 21.4377 0.5826 21.8077 1.4326 21.8077ZM32.9626 9.4977C33.4526 9.5577 33.6826 9.1577 33.5926 8.6777L32.8226 5.0177C32.7326 4.5377 32.3726 4.3077 31.9226 4.5577C31.5626 4.7477 31.2426 5.0477 31.0026 5.3977C30.1826 6.6077 30.5426 8.2977 31.7426 9.0777C32.0826 9.3077 32.5226 9.4777 32.9626 9.4977ZM8.2026 9.8277H16.2526C16.8426 9.8277 17.3026 9.3477 17.3026 8.7677C17.3026 8.1877 16.8326 7.7077 16.2526 7.7077H8.2026C7.6326 7.7077 7.1326 8.1877 7.1326 8.7677C7.1326 9.3477 7.6126 9.8277 8.2026 9.8277ZM31.3726 22.1877C32.3626 22.1877 33.1526 21.3977 33.1526 20.4077C33.1526 19.6977 32.7726 19.1177 32.1926 18.8077L31.5026 15.5677C34.1226 15.6277 36.2426 17.7577 36.2426 20.4077C36.2426 23.0777 34.0726 25.2377 31.4026 25.2377C28.7126 25.2377 26.5526 23.0877 26.5526 20.4077C26.5526 18.3877 27.7826 16.6477 29.5426 15.9377L30.2026 19.0677C29.8626 19.3977 29.6526 19.8677 29.6426 20.4077C29.6226 21.3977 30.3626 22.1877 31.3726 22.1877ZM9.0126 25.2377C6.8026 25.2377 4.9626 23.8077 4.3626 21.8077H13.6326C13.0326 23.8077 11.1826 25.2377 9.0126 25.2377Z"
        fillRule="evenodd"
        clipRule="evenodd"
    />
</svg>
        