<svg viewBox="0 0 26.3046875 31.9716796875" xmlns="http://www.w3.org/2000/svg"><path d="M2.0537 11.5269H24.2537C26.1437 11.5269 26.3137 9.4269 25.1837 8.5769L15.0537 0.8069C13.6137 -0.2731 12.6837 -0.2731 11.2537 0.8069L1.1237 8.5769C-0.0163 9.4269 0.1637 11.5269 2.0537 11.5269ZM4.2337 9.4869C3.9137 9.4869 3.8137 9.1069 4.0737 8.9069L12.3137 2.5869C12.7737 2.2469 13.5337 2.2569 13.9737 2.5869L22.2337 8.9069C22.4937 9.1069 22.3937 9.4869 22.0637 9.4869ZM1.1637 17.1769H25.1437C25.7737 17.1769 26.3037 16.6269 26.3037 15.9869C26.3037 15.3469 25.7737 14.7869 25.1437 14.7869H1.1637C0.5337 14.7869 0.0037 15.3469 0.0037 15.9869C0.0037 16.6269 0.5337 17.1769 1.1637 17.1769ZM2.0537 20.4469C0.1637 20.4469 -0.0163 22.5369 1.1237 23.3969L11.2537 31.1569C12.6837 32.2369 13.6137 32.2369 15.0537 31.1569L25.1837 23.3969C26.3137 22.5369 26.1437 20.4469 24.2537 20.4469ZM4.2337 22.4769H22.0637C22.3937 22.4769 22.4937 22.8469 22.2337 23.0669L13.9737 29.3869C13.5337 29.7169 12.7737 29.7269 12.3137 29.3869L4.0737 23.0669C3.8137 22.8469 3.9137 22.4769 4.2337 22.4769Z" /></svg>