<svg viewBox="0 0 48.08713605729464 24.16505878096712" xmlns="http://www.w3.org/2000/svg"><path d="M26.2216 10.6178C27.4516 10.6178 28.5616 8.7578 30.8016 8.7578C33.0616 8.7578 34.1716 10.6178 35.4016 10.6178C36.4116 10.6178 37.3516 9.3178 38.9516 8.9178L33.1816 1.3378C31.8416 -0.4322 29.7916 -0.4622 28.4216 1.3378L22.6516 8.9178C24.2716 9.3278 25.2216 10.6178 26.2216 10.6178ZM9.4116 14.0978C10.4716 14.0978 11.4416 12.4778 13.4016 12.4778C15.0216 12.4778 16.0416 13.6278 16.4316 13.6278C16.5716 13.6278 16.6916 13.5678 16.8316 13.4778L18.8116 10.8778L15.7616 7.0978C14.3516 5.3478 12.4716 5.3678 11.0516 7.0978L6.5116 12.7378C7.8316 13.0678 8.6116 14.0978 9.4116 14.0978ZM16.0116 24.1678H45.6116C48.1016 24.1678 48.7016 21.7078 47.4716 20.0878L40.3016 10.6878C40.1016 10.5978 39.8916 10.5478 39.6716 10.5478C38.5516 10.6678 37.6016 12.3278 35.4016 12.3278C33.0616 12.3278 32.1116 10.4678 30.8016 10.4678C29.5016 10.4678 28.5616 12.3278 26.2216 12.3278C23.9516 12.3278 22.9116 10.5378 21.8916 10.5378C21.6816 10.5378 21.4916 10.6178 21.2916 10.7278L14.1516 20.1078C12.9216 21.7178 13.5216 24.1678 16.0116 24.1678ZM2.5316 24.1678H12.3016C11.3616 22.6878 11.4216 20.6278 12.6616 18.9678L15.7116 14.9678C14.7116 14.7478 14.2516 13.9778 13.4016 13.9778C12.2616 13.9778 11.4616 15.6078 9.4116 15.6078C7.5516 15.6078 6.7816 14.1578 5.8616 14.1578C5.6016 14.1578 5.3616 14.2778 5.1316 14.4578L0.7816 19.8278C-0.6784 21.6478 -0.0784 24.1678 2.5316 24.1678Z" /></svg>