
<svg
    viewBox={0 0 27.890625 27.890625}
    xmlns="http://www.w3.org/2000/svg"
>
    <path
        fill="inherit"
        d="M13.9427 27.8864C21.6427 27.8864 27.8927 21.6464 27.8927 13.9464C27.8927 6.2464 21.6427 -0.0036 13.9427 -0.0036C6.2527 -0.0036 0.0027 6.2464 0.0027 13.9464C0.0027 21.6464 6.2527 27.8864 13.9427 27.8864ZM13.9427 25.5664C7.5227 25.5664 2.3227 20.3664 2.3227 13.9464C2.3227 7.5164 7.5227 2.3264 13.9427 2.3264C20.3727 2.3264 25.5627 7.5164 25.5627 13.9464C25.5627 20.3664 20.3727 25.5664 13.9427 25.5664ZM12.4827 11.8364C13.1127 12.0164 13.5527 12.5264 13.9727 12.5264C14.4927 12.5264 14.9527 11.7264 15.9327 11.7264C16.8827 11.7264 17.3627 12.5264 17.8827 12.5264C18.2927 12.5264 18.7327 12.0264 19.3727 11.8364L16.9427 8.6264C16.3627 7.8864 15.5127 7.8564 14.9427 8.6264ZM5.6627 18.3164H7.8027C7.4527 17.6464 7.4827 16.7164 8.0227 16.0064L11.5627 11.4064L11.2827 11.0564C10.6927 10.3464 9.9127 10.3464 9.3227 11.0564L4.9327 16.5164C4.3327 17.2764 4.5927 18.3164 5.6627 18.3164ZM9.6227 18.3164H22.2327C23.2727 18.3164 23.5327 17.3064 22.9927 16.6264L19.9627 12.6364C19.4827 12.3864 18.8027 13.3164 17.8827 13.3164C16.8527 13.3164 16.4727 12.5264 15.9327 12.5264C15.3827 12.5264 14.9827 13.3164 13.9727 13.3164C13.0427 13.3164 12.3727 12.3864 11.8927 12.6364L8.8427 16.6264C8.3127 17.2964 8.5827 18.3164 9.6227 18.3164Z"
        fillRule="evenodd"
        clipRule="evenodd"
    />
</svg>
        