
<svg
    viewBox="0 0 48.08713605729464 24.16505878096712"
    xmlns="http://www.w3.org/2000/svg"
>
    <path
        fill="inherit"
        d="M47.4716 20.0878L33.1816 1.3378C31.8416 -0.4322 29.7916 -0.4622 28.4216 1.3378L20.0116 12.3778L15.7616 7.0978C14.3516 5.3478 12.4716 5.3678 11.0516 7.0978L0.7816 19.8278C-0.6784 21.6478 -0.0784 24.1678 2.5316 24.1678H45.6116C48.1016 24.1678 48.7016 21.7078 47.4716 20.0878ZM30.8016 8.8078C28.6316 8.8078 27.5616 10.6178 26.3616 10.6178C25.8716 10.6178 25.4216 10.1678 24.9016 9.6078L30.1316 2.7178C30.5016 2.2378 31.1316 2.2478 31.4616 2.6978L36.7216 9.6078C36.2016 10.1678 35.7416 10.6178 35.2616 10.6178C34.0616 10.6178 32.9916 8.8078 30.8016 8.8078ZM13.4016 12.4778C11.4416 12.4778 10.4716 14.0978 9.4116 14.0978C9.1516 14.0978 8.8716 13.9278 8.6016 13.6478L12.7516 8.4978C13.1416 8.0178 13.6816 8.0178 14.0516 8.4878L18.2216 13.6678C17.9516 13.9278 17.6916 14.0978 17.4216 14.0978C16.3416 14.0978 15.3816 12.4778 13.4016 12.4778ZM16.4616 21.9678C15.9516 21.9678 15.8216 21.5378 16.0816 21.1878L23.8716 10.9478C24.5316 11.6178 25.3116 12.2678 26.3616 12.2678C28.6316 12.2678 29.5416 10.4678 30.8016 10.4678C32.0716 10.4678 32.9916 12.2678 35.2616 12.2678C36.3116 12.2678 37.0916 11.6178 37.7316 10.9478L45.5316 21.1678C45.8016 21.5278 45.6516 21.9678 45.1416 21.9678ZM9.4116 15.6078C11.4616 15.6078 12.2616 13.9778 13.4016 13.9778C14.5316 13.9778 15.3716 15.6078 17.4216 15.6078C17.4716 15.6078 17.5316 15.6078 17.5716 15.5878L14.1516 20.1078C13.7116 20.6778 13.5116 21.3378 13.5316 21.9678H2.8616C2.3916 21.9678 2.2416 21.5278 2.5116 21.1878L7.6416 14.8278C8.1216 15.2678 8.6916 15.6078 9.4116 15.6078Z"
        fillRule="evenodd"
        clipRule="evenodd"
    />
</svg>
        