
<svg
    viewBox="0 0 35.07838998060896 17.322265625"
    xmlns="http://www.w3.org/2000/svg"
>
    <path
        fill="inherit"
        d="M0.7629 7.3117C5.9729 13.8117 10.8529 17.3217 17.5429 17.3217C24.2129 17.3217 29.1029 13.8117 34.3029 7.3117C35.7129 5.5517 35.0729 3.9517 33.4429 3.7617C28.5029 3.1717 27.1929 0.0017 23.1429 0.0017C19.9429 0.0017 18.0429 2.5117 17.5429 2.5117C17.0229 2.5117 15.1229 0.0017 11.9229 0.0017C7.8729 0.0017 6.5729 3.1717 1.6229 3.7617C0.0129 3.9517 -0.6271 5.5517 0.7629 7.3117ZM3.8929 6.9817C3.2029 6.5617 3.6229 5.7817 4.2629 6.0817C6.1929 7.0017 8.1929 6.9017 10.7029 6.6317C11.3729 6.5517 12.0429 6.4517 12.7129 6.4517C14.7929 6.4517 15.9129 7.1817 16.6629 7.6317C17.1629 7.9117 17.3229 7.9717 17.5429 7.9717C17.7629 7.9717 17.9229 7.9117 18.4129 7.6317C19.1729 7.1917 20.2729 6.4517 22.3529 6.4517C23.0229 6.4517 23.6929 6.5517 24.3729 6.6317C26.8829 6.9717 28.8929 7.0017 30.8129 6.0817C31.4629 5.7817 31.8829 6.5617 31.1729 6.9817C28.0129 8.9117 24.4229 8.2717 22.9029 8.2617C19.7129 8.2617 19.3729 9.9117 17.5429 9.9117C15.7129 9.9117 15.3629 8.2617 12.1729 8.2617C10.6629 8.2717 7.0529 8.9417 3.8929 6.9817Z"
        fillRule="evenodd"
        clipRule="evenodd"
    />
</svg>
        