
<svg
    viewBox={0 0 28.66406777403776 25.097910977867247}
    xmlns="http://www.w3.org/2000/svg"
>
    <path
        fill="inherit"
        d="M0.1548 22.9229C-0.2252 23.7929 0.1148 24.3529 1.0448 24.4629L6.7048 25.0829C7.9648 25.2329 8.6948 24.4529 8.0248 23.3029L7.0748 21.6329L14.3348 17.9829L21.6048 21.6329L20.6348 23.3029C19.9648 24.4529 20.7148 25.2329 21.9648 25.0829L27.6248 24.4629C28.5548 24.3529 28.8948 23.7929 28.5048 22.9229L26.2148 17.7129C25.7048 16.5629 24.6648 16.3329 24.0248 17.4529L22.6948 19.7429L15.4348 16.0929V7.2129H17.6948C19.0348 7.2129 19.3248 6.1829 18.5748 5.1629L15.2048 0.5829C14.6348 -0.1871 14.0048 -0.1971 13.4248 0.5829L10.0848 5.1629C9.3248 6.1729 9.6448 7.2129 10.9548 7.2129H13.2348V16.0929L5.9748 19.7429L4.6548 17.4529C4.0048 16.3329 2.9548 16.5629 2.4648 17.7129Z"
        fillRule="evenodd"
        clipRule="evenodd"
    />
</svg>
        