
<svg
    viewBox="0 0 42.1640625 20.78125"
    xmlns="http://www.w3.org/2000/svg"
>
    <path
        fill="inherit"
        d="M1.1637 20.7817C1.9137 20.7817 2.3237 20.2717 2.3237 19.5517V4.0317L5.6337 18.9717C5.8137 19.8217 6.3337 20.4717 7.2237 20.4717C8.0937 20.4717 8.6037 19.8117 8.7937 18.9317L12.0837 4.0917V19.5517C12.0837 20.2517 12.4737 20.7817 13.2437 20.7817C14.0037 20.7817 14.4237 20.3117 14.4237 19.5517V1.9017C14.4237 0.8317 13.6837 0.0017 12.4937 0.0017C11.4437 0.0017 10.8137 0.5717 10.5837 1.6517L7.2337 17.0317L3.8237 1.6517C3.5837 0.5717 2.9837 0.0017 1.9037 0.0017C0.7137 0.0017 0.0037 0.8517 0.0037 1.9017V19.5517C0.0037 20.2217 0.3737 20.7817 1.1637 20.7817ZM32.4337 20.7817C33.2737 20.7817 33.6737 20.1517 33.6737 19.3817V11.2817H39.6337V19.3817C39.6337 20.2117 40.0737 20.7817 40.9037 20.7817C41.7237 20.7817 42.1637 20.2117 42.1637 19.3817V1.3917C42.1637 0.5617 41.7237 0.0017 40.9037 0.0017C40.0737 0.0017 39.6337 0.5617 39.6337 1.3917V9.0517H33.6737V1.3917C33.6737 0.6117 33.2737 0.0017 32.4337 0.0017C31.5937 0.0017 31.1537 0.5617 31.1537 1.3917V19.3817C31.1537 20.2117 31.5937 20.7817 32.4337 20.7817ZM19.2937 20.7117C20.0437 20.7117 20.5537 20.2617 20.5537 19.4017V13.2117H23.0237C26.4737 13.2117 28.2637 10.1717 28.2637 6.7217C28.2637 3.3117 26.4837 0.2617 23.1337 0.2617H19.2637C18.4737 0.2617 18.0337 0.8017 18.0337 1.5817V19.4017C18.0337 20.2217 18.4737 20.7117 19.2937 20.7117ZM20.5537 11.0217V2.4717H22.5437C24.8237 2.4717 25.7537 4.3617 25.7537 6.7217C25.7537 9.0917 24.8537 11.0217 22.5437 11.0217Z"
        fillRule="evenodd"
        clipRule="evenodd"
    />
</svg>
        