
<svg
    viewBox={0 0 27.890625 27.890625}
    xmlns="http://www.w3.org/2000/svg"
>
    <path
        fill="inherit"
        d="M13.9427 27.8864C21.6427 27.8864 27.8927 21.6464 27.8927 13.9464C27.8927 6.2464 21.6427 -0.0036 13.9427 -0.0036C6.2527 -0.0036 0.0027 6.2464 0.0027 13.9464C0.0027 21.6464 6.2527 27.8864 13.9427 27.8864ZM13.9427 25.5664C7.5227 25.5664 2.3227 20.3664 2.3227 13.9464C2.3227 7.5164 7.5227 2.3264 13.9427 2.3264C20.3727 2.3264 25.5627 7.5164 25.5627 13.9464C25.5627 20.3664 20.3727 25.5664 13.9427 25.5664ZM5.2127 18.4064C5.6627 18.4064 5.9027 18.1164 5.9027 17.6464V11.8364H5.9627L7.1327 17.4464C7.2327 17.9064 7.4927 18.2364 7.9527 18.2364C8.4327 18.2364 8.6827 17.9064 8.7727 17.4464L9.9527 11.8364H10.0127V17.6464C10.0127 18.1064 10.2527 18.4064 10.6927 18.4064C11.1427 18.4064 11.4027 18.1164 11.4027 17.6464V10.5864C11.4027 9.8864 10.9527 9.4764 10.2527 9.4764C9.6227 9.4764 9.2527 9.7464 9.1327 10.3864L7.9727 16.1464H7.9527L6.7527 10.3864C6.6127 9.7064 6.2227 9.4764 5.6427 9.4764C4.8427 9.4764 4.5027 10.0064 4.5027 10.5864V17.6464C4.5027 18.1064 4.7627 18.4064 5.2127 18.4064ZM18.9727 18.4064C19.4927 18.4064 19.7727 18.0464 19.7727 17.5364V14.5164H21.8727V17.5364C21.8727 17.9964 22.1227 18.4064 22.6727 18.4064C23.1727 18.4064 23.4427 18.0764 23.4427 17.5364V10.3064C23.4427 9.7764 23.1627 9.4764 22.6727 9.4764C22.1327 9.4764 21.8727 9.8164 21.8727 10.3064V13.2064H19.7727V10.3064C19.7727 9.8064 19.4927 9.4764 18.9727 9.4764C18.4727 9.4764 18.1927 9.8064 18.1927 10.3064V17.5364C18.1927 18.0464 18.4727 18.4064 18.9727 18.4064ZM13.2627 18.3764C13.7227 18.3764 14.0527 18.1164 14.0527 17.5564V15.4064H14.9727C16.5727 15.4064 17.3727 14.0264 17.3727 12.5064C17.3727 10.9664 16.5927 9.6064 15.0627 9.6064H13.2627C12.8227 9.6064 12.4927 9.8564 12.4927 10.4364V17.5564C12.4927 18.1564 12.8827 18.3764 13.2627 18.3764ZM14.0527 14.1664V10.8664H14.6527C15.5327 10.8664 15.8327 11.6364 15.8327 12.5064C15.8327 13.3864 15.5327 14.1664 14.6427 14.1664Z"
        fillRule="evenodd"
        clipRule="evenodd"
    />
</svg>
        