
<svg
    viewBox="0 0 27.890625 27.890625"
    xmlns="http://www.w3.org/2000/svg"
>
    <path
        fill="inherit"
        d="M13.9427 27.8864C21.6427 27.8864 27.8927 21.6264 27.8927 13.9464C27.8927 6.2464 21.6427 -0.0036 13.9427 -0.0036C6.2627 -0.0036 0.0027 6.2464 0.0027 13.9464C0.0027 21.6264 6.2627 27.8864 13.9427 27.8864ZM4.9527 18.5364C4.4827 18.5364 4.2127 18.2264 4.2127 17.7564V10.4864C4.2127 9.8864 4.5627 9.3364 5.4027 9.3364C5.9927 9.3364 6.4027 9.5664 6.5527 10.2764L7.7827 16.1964H7.7927L8.9827 10.2764C9.1227 9.6264 9.5027 9.3364 10.1427 9.3364C10.8727 9.3364 11.3327 9.7664 11.3327 10.4864V17.7564C11.3327 18.2364 11.0727 18.5364 10.6127 18.5364C10.1427 18.5364 9.9027 18.2264 9.9027 17.7564V11.7864H9.8427L8.6227 17.5564C8.5327 18.0364 8.2727 18.3764 7.7827 18.3764C7.3027 18.3764 7.0227 18.0364 6.9327 17.5564L5.7327 11.7864H5.6727V17.7564C5.6727 18.2364 5.4127 18.5364 4.9527 18.5364ZM19.1527 18.5364C18.6227 18.5364 18.3427 18.1664 18.3427 17.6464V10.1964C18.3427 9.6764 18.6227 9.3364 19.1527 9.3364C19.6827 9.3364 19.9727 9.6764 19.9727 10.1964V13.1764H22.1327V10.1964C22.1327 9.6964 22.4127 9.3364 22.9527 9.3364C23.4627 9.3364 23.7627 9.6564 23.7627 10.1964V17.6464C23.7627 18.1964 23.4727 18.5364 22.9527 18.5364C22.3927 18.5364 22.1327 18.1164 22.1327 17.6464V14.5464H19.9727V17.6464C19.9727 18.1664 19.6827 18.5364 19.1527 18.5364ZM13.2527 18.5164C12.8527 18.5164 12.4527 18.2964 12.4527 17.6664V10.3264C12.4527 9.7364 12.7927 9.4764 13.2527 9.4764H15.1227C16.6927 9.4764 17.5027 10.8664 17.5027 12.4664C17.5027 14.0264 16.6627 15.4664 15.0127 15.4664H14.0827V17.6664C14.0827 18.2364 13.7427 18.5164 13.2527 18.5164ZM14.0827 14.1664H14.6827C15.5827 14.1664 15.9027 13.3664 15.9027 12.4664C15.9027 11.5664 15.5827 10.7764 14.6927 10.7764H14.0827Z"
        fillRule="evenodd"
        clipRule="evenodd"
    />
</svg>
        