<svg viewBox="0 0 26.22265625 28.90234375" xmlns="http://www.w3.org/2000/svg"><path d="M9.3937 28.9023H12.0137C17.8037 28.9023 21.4137 25.8623 21.4137 21.0023V20.7523H22.2337C24.6637 20.7523 26.2237 19.1123 26.2237 16.6623V11.1923C26.2237 8.7323 24.6637 7.1123 22.2337 7.1123H21.4137V3.7823C21.4137 1.3423 16.8437 0.0023 10.7037 0.0023C4.5637 0.0023 0.0037 1.3423 0.0037 3.7823V21.0023C0.0037 25.8623 3.6237 28.9023 9.3937 28.9023ZM10.7037 4.5423C5.9237 4.5423 2.6137 4.0223 2.6137 3.2423C2.6137 2.4623 5.9237 1.9323 10.7037 1.9323C15.4937 1.9323 18.8037 2.4623 18.8037 3.2423C18.8037 4.0223 15.4937 4.5423 10.7037 4.5423ZM22.2337 9.1723C23.6137 9.1723 24.1537 9.7323 24.1537 11.1923V16.6623C24.1537 18.1123 23.6137 18.6923 22.2337 18.6923H21.4137V9.1723Z" /></svg>