
<svg
    viewBox="0 0 25.169921875 25.169921875"
    xmlns="http://www.w3.org/2000/svg"
>
    <path
        fill="inherit"
        d="M4.2937 25.1692H20.8737C23.7437 25.1692 25.1737 23.7592 25.1737 20.9492V4.2392C25.1737 1.4192 23.7437 -0.0008 20.8737 -0.0008H4.2937C1.4337 -0.0008 0.0037 1.4192 0.0037 4.2392V20.9492C0.0037 23.7592 1.4337 25.1692 4.2937 25.1692ZM7.9937 18.3192C7.3737 18.3192 6.8737 17.8192 6.8737 17.1892C6.8737 16.8892 6.9837 16.5992 7.2037 16.3892L10.9937 12.5892L7.2037 8.8092C6.9837 8.5892 6.8737 8.3092 6.8737 8.0092C6.8737 7.3692 7.3737 6.8892 7.9937 6.8892C8.3137 6.8892 8.5537 6.9992 8.7737 7.2092L12.5937 11.0092L16.4337 7.1892C16.6637 6.9592 16.9237 6.8592 17.2137 6.8592C17.8437 6.8592 18.3437 7.3592 18.3437 7.9892C18.3437 8.2992 18.2537 8.5492 18.0237 8.7892L14.2037 12.5892L18.0037 16.3792C18.2237 16.5792 18.3337 16.8692 18.3337 17.1892C18.3337 17.8192 17.8237 18.3192 17.1837 18.3192C16.8837 18.3192 16.5837 18.2092 16.3837 17.9892L12.5937 14.1892L8.8137 17.9892C8.6037 18.2092 8.3137 18.3192 7.9937 18.3192Z"
        fillRule="evenodd"
        clipRule="evenodd"
    />
</svg>
        