
<svg
    viewBox="0 0 18.190466312328404 18.19388480418348"
    xmlns="http://www.w3.org/2000/svg"
>
    <path
        fill="inherit"
        d="M0.352 17.8375C0.822 18.3175 1.622 18.3075 2.092 17.8375L9.092 10.8275L16.102 17.8375C16.572 18.3075 17.362 18.3175 17.822 17.8375C18.322 17.3575 18.302 16.5675 17.822 16.1075L10.822 9.0875L17.822 2.0875C18.302 1.6275 18.322 0.8175 17.822 0.3575C17.362 -0.1225 16.572 -0.1125 16.102 0.3575L9.092 7.3675L2.092 0.3575C1.622 -0.1125 0.822 -0.1225 0.352 0.3575C-0.128 0.8175 -0.108 1.6275 0.352 2.0875L7.372 9.0875L0.352 16.1075C-0.108 16.5675 -0.128 17.3575 0.352 17.8375Z"
        fillRule="evenodd"
        clipRule="evenodd"
    />
</svg>
        