
<svg
    viewBox="0 0 27.890625 27.890625"
    xmlns="http://www.w3.org/2000/svg"
>
    <path
        fill="inherit"
        d="M13.9427 27.8864C21.6427 27.8864 27.8927 21.6464 27.8927 13.9464C27.8927 6.2464 21.6427 -0.0036 13.9427 -0.0036C6.2527 -0.0036 0.0027 6.2464 0.0027 13.9464C0.0027 21.6464 6.2527 27.8864 13.9427 27.8864ZM13.9427 25.5664C7.5227 25.5664 2.3227 20.3664 2.3227 13.9464C2.3227 7.5164 7.5227 2.3264 13.9427 2.3264C20.3727 2.3264 25.5627 7.5164 25.5627 13.9464C25.5627 20.3664 20.3727 25.5664 13.9427 25.5664ZM9.2727 19.7264C9.5827 19.7264 9.8527 19.6064 10.0627 19.3864L13.9327 15.5064L17.8327 19.3864C18.0327 19.5964 18.2927 19.7264 18.6027 19.7264C19.2127 19.7264 19.7027 19.2364 19.7027 18.6164C19.7027 18.3064 19.5927 18.0564 19.3727 17.8464L15.4927 13.9564L19.3827 10.0464C19.6227 9.8164 19.7127 9.5864 19.7127 9.2864C19.7127 8.6864 19.2227 8.1864 18.6227 8.1864C18.3327 8.1864 18.1027 8.2964 17.8727 8.5264L13.9327 12.4264L10.0327 8.5464C9.8327 8.3264 9.5827 8.2164 9.2727 8.2164C8.6727 8.2164 8.1727 8.6964 8.1727 9.2964C8.1727 9.5964 8.3027 9.8564 8.5027 10.0664L12.3827 13.9564L8.5027 17.8564C8.3027 18.0564 8.1727 18.3164 8.1727 18.6164C8.1727 19.2364 8.6727 19.7264 9.2727 19.7264Z"
        fillRule="evenodd"
        clipRule="evenodd"
    />
</svg>
        