
<svg
    viewBox="0 0 27.890625 27.890625"
    xmlns="http://www.w3.org/2000/svg"
>
    <path
        fill="inherit"
        d="M13.9427 27.8864C21.6427 27.8864 27.8927 21.6264 27.8927 13.9464C27.8927 6.2464 21.6427 -0.0036 13.9427 -0.0036C6.2627 -0.0036 0.0027 6.2464 0.0027 13.9464C0.0027 21.6264 6.2627 27.8864 13.9427 27.8864ZM9.3527 19.6864C8.7227 19.6864 8.2327 19.1864 8.2327 18.5564C8.2327 18.2564 8.3427 17.9664 8.5627 17.7564L12.3427 13.9564L8.5627 10.1764C8.3427 9.9564 8.2327 9.6764 8.2327 9.3764C8.2327 8.7364 8.7227 8.2564 9.3527 8.2564C9.6627 8.2564 9.9127 8.3664 10.1327 8.5764L13.9427 12.3764L17.7827 8.5564C18.0227 8.3264 18.2627 8.2264 18.5627 8.2264C19.1927 8.2264 19.7027 8.7264 19.7027 9.3564C19.7027 9.6664 19.6027 9.9164 19.3627 10.1564L15.5627 13.9564L19.3427 17.7464C19.5827 17.9464 19.6827 18.2364 19.6827 18.5564C19.6827 19.1864 19.1827 19.6864 18.5427 19.6864C18.2227 19.6864 17.9327 19.5764 17.7327 19.3564L13.9427 15.5564L10.1727 19.3564C9.9527 19.5764 9.6627 19.6864 9.3527 19.6864Z"
        fillRule="evenodd"
        clipRule="evenodd"
    />
</svg>
        