
<svg
    viewBox="0 0 27.890625 27.890625"
    xmlns="http://www.w3.org/2000/svg"
>
    <path
        fill="inherit"
        d="M13.9427 27.8864C21.6427 27.8864 27.8927 21.6464 27.8927 13.9464C27.8927 6.2464 21.6427 -0.0036 13.9427 -0.0036C6.2527 -0.0036 0.0027 6.2464 0.0027 13.9464C0.0027 21.6464 6.2527 27.8864 13.9427 27.8864ZM13.9427 25.5664C7.5227 25.5664 2.3227 20.3664 2.3227 13.9464C2.3227 7.5164 7.5227 2.3264 13.9427 2.3264C20.3727 2.3264 25.5627 7.5164 25.5627 13.9464C25.5627 20.3664 20.3727 25.5664 13.9427 25.5664ZM20.0327 7.2764C18.7827 6.0264 17.1127 6.0864 15.8327 7.3664L19.9327 11.4664C21.2327 10.1864 21.2727 8.5164 20.0327 7.2764ZM14.1327 10.5264L7.6327 17.5264C7.3027 17.8864 7.2827 18.3164 7.5627 18.6664L6.7227 19.7264C6.5927 19.9164 6.6027 20.1664 6.7827 20.3264L6.9827 20.5364C7.1527 20.6964 7.3827 20.7264 7.5927 20.5764L8.6727 19.7464C8.9927 20.0164 9.4327 20.0064 9.7727 19.6864L13.1827 16.5264V20.2164C13.1827 20.6564 13.5227 21.0164 13.9727 21.0164C14.4127 21.0164 14.7627 20.6564 14.7627 20.2164V15.0564L16.7627 13.1964C17.6327 13.2864 18.5027 12.9364 19.2327 12.1664L15.1327 8.0664C14.3827 8.8364 14.0427 9.6664 14.1327 10.5264ZM8.6727 18.2064L14.6527 11.8564C14.7527 12.0064 14.8627 12.1364 15.0127 12.3064C15.1327 12.4364 15.2827 12.5664 15.4327 12.6564L9.1027 18.6664Z"
        fillRule="evenodd"
        clipRule="evenodd"
    />
</svg>
        