
<svg
    viewBox="0 0 34.1796875 27.34375"
    xmlns="http://www.w3.org/2000/svg"
>
    <path
        fill="inherit"
        d="M3.5137 22.713H30.6637C32.8537 22.713 34.1837 21.373 34.1837 19.193V3.513C34.1837 1.343 32.8537 0.003 30.6637 0.003H3.5137C1.3437 0.003 0.0037 1.343 0.0037 3.513V19.193C0.0037 21.373 1.3437 22.713 3.5137 22.713ZM3.5537 20.503C2.7037 20.503 2.2037 20.003 2.2037 19.163V3.543C2.2037 2.703 2.7037 2.203 3.5537 2.203H30.6237C31.4737 2.203 31.9737 2.703 31.9737 3.543V19.163C31.9737 20.003 31.4737 20.503 30.6237 20.503ZM21.2237 8.873C21.8737 8.693 22.0637 8.563 22.0637 7.763V5.083C22.0637 4.563 21.8937 4.333 21.1637 4.513L17.1537 5.513C16.4837 5.673 16.3337 5.813 16.3337 6.613V12.783C16.3337 13.383 16.2837 13.493 15.6037 13.683L14.3437 14.013C13.0937 14.343 12.0537 15.083 12.0537 16.423C12.0537 17.583 12.9337 18.433 14.3037 18.433C16.2537 18.433 17.5837 17.023 17.5837 15.043V10.353C17.5837 9.843 17.7037 9.703 18.0037 9.643ZM10.2137 27.343H23.9637C24.5637 27.343 25.0737 26.853 25.0737 26.233C25.0737 25.623 24.5637 25.133 23.9637 25.133H10.2137C9.6137 25.133 9.1037 25.623 9.1037 26.233C9.1037 26.853 9.6137 27.343 10.2137 27.343Z"
        fillRule="evenodd"
        clipRule="evenodd"
    />
</svg>
        