
<svg
    viewBox="0 0 27.890625 27.890625"
    xmlns="http://www.w3.org/2000/svg"
>
    <path
        fill="inherit"
        d="M13.9427 27.8864C21.6427 27.8864 27.8927 21.6264 27.8927 13.9464C27.8927 6.2464 21.6427 -0.0036 13.9427 -0.0036C6.2627 -0.0036 0.0027 6.2464 0.0027 13.9464C0.0027 21.6264 6.2627 27.8864 13.9427 27.8864ZM20.2227 7.0864C21.5227 8.3564 21.4627 10.0764 20.1227 11.4064L15.9027 7.1764C17.2227 5.8564 18.9327 5.7964 20.2227 7.0864ZM14.1527 10.4364C14.0427 9.5464 14.3927 8.6864 15.1927 7.8864L19.4127 12.1264C18.6527 12.9064 17.7627 13.2764 16.8727 13.1764L14.7927 15.0964V20.4164C14.7927 20.8764 14.4327 21.2364 13.9827 21.2364C13.5127 21.2364 13.1627 20.8764 13.1627 20.4164V16.6264L9.6527 19.8664C9.3127 20.1764 8.8627 20.2064 8.5127 19.9364L7.3927 20.7764C7.1927 20.9364 6.9727 20.9064 6.7827 20.7364L6.5627 20.5364C6.3727 20.3664 6.3727 20.1064 6.5227 19.9064L7.3727 18.8164C7.0827 18.4564 7.0927 18.0064 7.4327 17.6364ZM8.5127 18.3464L8.9827 18.8164L15.4727 12.6364C15.3427 12.5264 15.1927 12.3964 15.0527 12.2664C14.8927 12.0964 14.7827 11.9664 14.6927 11.7964Z"
        fillRule="evenodd"
        clipRule="evenodd"
    />
</svg>
        