
<svg
    viewBox={0 0 27.14270661784396 27.785882309418753}
    xmlns="http://www.w3.org/2000/svg"
>
    <path
        fill="inherit"
        d="M17.7427 1.8459L25.2727 9.3859C27.6827 7.0059 27.7827 3.9559 25.4727 1.6559C23.1727 -0.6141 20.1527 -0.5541 17.7427 1.8459ZM13.9327 27.7859C14.6227 27.7859 15.1727 27.2359 15.1727 26.5559V16.4059L19.2627 12.6359C20.8227 12.8459 22.4627 12.1959 23.8927 10.7659L16.3727 3.2359C14.9227 4.6659 14.3227 6.2759 14.5427 7.8559L1.8327 21.5359C1.3127 22.0959 1.2327 22.8759 1.8727 23.5159L0.1227 25.7759C-0.0473 25.9959 -0.0573 26.3059 0.1927 26.5559L0.5827 26.9659C0.8127 27.1959 1.1327 27.2159 1.3827 27.0159L3.6327 25.2559C4.2527 25.8959 5.0427 25.8159 5.5927 25.2959L12.6827 18.7359V26.5559C12.6827 27.2359 13.2327 27.7859 13.9327 27.7859ZM3.2327 22.6559L15.2927 9.8659C15.5327 10.2559 15.8027 10.6259 16.1427 10.9959C16.4727 11.3359 16.8527 11.6559 17.2127 11.8759L4.4927 23.9159Z"
        fillRule="evenodd"
        clipRule="evenodd"
    />
</svg>
        