
<svg
    viewBox={0 0 16.6796875 27.463284998857244}
    xmlns="http://www.w3.org/2000/svg"
>
    <path
        fill="inherit"
        d="M16.6837 6.2197V1.0797C16.6837 0.3497 16.0937 -0.1103 15.3937 0.0197L8.3637 1.5597C7.4937 1.7497 7.0137 2.2297 7.0137 2.9897L7.0437 18.1897C7.1137 18.8597 6.7937 19.2997 6.1937 19.4197L4.0237 19.8797C1.2837 20.4497 0.0037 21.8397 0.0037 23.9097C0.0037 25.9997 1.6137 27.4597 3.8837 27.4597C5.8937 27.4597 8.9037 25.9897 8.9037 22.0097V9.4997C8.9037 8.7697 9.0337 8.6197 9.6837 8.4897L15.9237 7.1197C16.3937 7.0197 16.6837 6.6697 16.6837 6.2197Z"
        fillRule="evenodd"
        clipRule="evenodd"
    />
</svg>
        