
<svg
    viewBox="0 0 27.876953125 27.463284998857244"
    xmlns="http://www.w3.org/2000/svg"
>
    <path
        fill="inherit"
        d="M27.8737 6.2197V1.0797C27.8737 0.3497 27.2937 -0.1103 26.5937 0.0197L19.5637 1.5597C18.6937 1.7497 18.2137 2.2297 18.2137 2.9897L18.2337 18.1897C18.3037 18.8597 17.9937 19.2997 17.3937 19.4197L15.2137 19.8797C12.4837 20.4497 11.1937 21.8397 11.1937 23.9097C11.1937 25.9997 12.8137 27.4597 15.0837 27.4597C17.0937 27.4597 20.0937 25.9897 20.0937 22.0097V9.4997C20.0937 8.7697 20.2337 8.6197 20.8737 8.4897L27.1237 7.1197C27.5937 7.0197 27.8737 6.6697 27.8737 6.2197ZM0.9337 6.8597H13.1537C13.6537 6.8597 14.0837 6.4397 14.0837 5.9297C14.0837 5.4197 13.6537 5.0097 13.1537 5.0097H0.9337C0.4137 5.0097 0.0037 5.4197 0.0037 5.9297C0.0037 6.4397 0.4137 6.8597 0.9337 6.8597ZM0.9337 11.7297H13.1537C13.6737 11.7297 14.0837 11.2997 14.0837 10.7797C14.0837 10.2797 13.6537 9.8797 13.1537 9.8797H0.9337C0.4137 9.8797 0.0037 10.2797 0.0037 10.7797C0.0037 11.2997 0.3937 11.7297 0.9337 11.7297ZM0.9337 16.5897H13.1537C13.6737 16.5897 14.0837 16.1797 14.0837 15.6597C14.0837 15.1597 13.6537 14.7497 13.1537 14.7497H0.9337C0.4137 14.7497 0.0037 15.1597 0.0037 15.6597C0.0037 16.1797 0.3937 16.5897 0.9337 16.5897Z"
        fillRule="evenodd"
        clipRule="evenodd"
    />
</svg>
        