
<svg
    viewBox={0 0 31.47265625 27.275390625}
    xmlns="http://www.w3.org/2000/svg"
>
    <path
        fill="inherit"
        d="M12.4137 16.7356C12.4137 18.8256 14.0437 20.3056 16.3137 20.3056C18.3337 20.3056 21.3437 18.8156 21.3437 14.8056V0.9156C21.3437 0.4256 20.9337 -0.0044 20.4237 -0.0044C19.9237 -0.0044 19.4937 0.4256 19.4937 0.9156V10.9956C19.4937 11.6656 19.2337 12.0956 18.6337 12.2256L16.4637 12.6756C13.7037 13.2456 12.4137 14.6456 12.4137 16.7356ZM0.0037 23.7056C0.0037 25.8156 1.6237 27.2756 3.8937 27.2756C5.9237 27.2756 8.9237 25.7856 8.9237 21.7956V7.9056C8.9237 7.3956 8.5137 6.9856 8.0137 6.9856C7.5037 6.9856 7.0837 7.3956 7.0837 7.9056V17.9656C7.0837 18.6356 6.8237 19.0856 6.2237 19.1956L4.0437 19.6456C1.2837 20.2356 0.0037 21.6156 0.0037 23.7056ZM22.5437 23.7056C22.5437 25.8156 24.1537 27.2756 26.4437 27.2756C28.4537 27.2756 31.4737 25.7856 31.4737 21.7956V7.9056C31.4737 7.4056 31.0537 6.9856 30.5537 6.9856C30.0537 6.9856 29.6237 7.4056 29.6237 7.9056V17.9656C29.6237 18.6456 29.3537 19.0856 28.7637 19.1956L26.5737 19.6556C23.8337 20.2356 22.5437 21.6256 22.5437 23.7056Z"
        fillRule="evenodd"
        clipRule="evenodd"
    />
</svg>
        