
<svg
    viewBox="0 0 38.71875 14.24609375"
    xmlns="http://www.w3.org/2000/svg"
>
    <path
        fill="inherit"
        d="M10.5727 14.2432C14.2427 14.2432 17.3927 13.0432 19.3627 10.8832C21.3327 13.0432 24.4727 14.2432 28.1527 14.2432C34.0927 14.2432 38.7227 10.6332 38.7227 5.9932C38.7227 4.0432 37.9127 2.9032 36.4927 2.9032C35.9027 2.9032 35.3927 3.1432 34.9327 3.6532C34.3527 4.2832 33.4827 4.7132 32.4827 4.7132C29.0527 4.7132 28.2627 0.0032 22.6427 0.0032C21.3827 0.0032 20.2627 0.3532 19.3627 0.9932C18.4527 0.3532 17.3327 0.0032 16.0827 0.0032C10.4627 0.0032 9.6627 4.7132 6.2327 4.7132C5.2327 4.7132 4.3627 4.2832 3.7827 3.6532C3.3227 3.1432 2.8127 2.9032 2.2327 2.9032C0.8027 2.9032 0.0027 4.0432 0.0027 5.9932C0.0027 10.6332 4.6227 14.2432 10.5727 14.2432ZM10.5727 12.0432C5.8627 12.0432 2.2027 9.3632 2.2027 5.9732C2.2027 5.5932 2.5427 5.5632 2.7627 5.7132C3.5827 6.4932 4.8927 6.9132 6.2327 6.9132C8.6227 6.9132 10.2127 5.5732 11.5627 4.4132C12.9627 3.2432 14.1327 2.2032 16.0827 2.2032C17.3727 2.2032 18.3927 2.7732 18.9127 3.7232C19.1127 4.1132 19.6027 4.1332 19.7927 3.7232C20.3127 2.7732 21.3427 2.2032 22.6427 2.2032C24.5827 2.2032 25.7627 3.2432 27.1527 4.4132C28.5027 5.5732 30.0927 6.9132 32.4827 6.9132C33.8227 6.9132 35.1327 6.4832 36.0027 5.6632C36.2327 5.4932 36.5127 5.5132 36.5127 5.9732C36.5127 9.3632 32.8527 12.0432 28.1527 12.0432C24.0927 12.0432 21.0527 10.4132 19.9027 7.7832C19.6827 7.2732 19.0327 7.2632 18.8127 7.7832C17.6827 10.4132 14.6427 12.0432 10.5727 12.0432Z"
        fillRule="evenodd"
        clipRule="evenodd"
    />
</svg>
        