
<svg
    viewBox={0 0 27.890625 27.890625}
    xmlns="http://www.w3.org/2000/svg"
>
    <path
        fill="inherit"
        d="M13.9427 27.8864C21.6427 27.8864 27.8927 21.6264 27.8927 13.9464C27.8927 6.2464 21.6427 -0.0036 13.9427 -0.0036C6.2627 -0.0036 0.0027 6.2464 0.0027 13.9464C0.0027 21.6264 6.2627 27.8864 13.9427 27.8864ZM9.6927 20.4164C9.0327 20.4164 8.6527 19.9764 8.6527 19.2764V8.4064C8.6527 7.6864 9.0527 7.2164 9.7527 7.2164C10.2127 7.2164 10.5227 7.3964 10.8827 7.9064L17.0127 16.6964H17.1127V8.3564C17.1127 7.6664 17.5027 7.2164 18.1527 7.2164C18.8427 7.2164 19.2327 7.6464 19.2327 8.3564V19.2364C19.2327 19.9864 18.8127 20.4164 18.1127 20.4164C17.6527 20.4164 17.3627 20.2464 16.9927 19.7264L10.8527 11.0864H10.7627V19.2764C10.7627 20.0064 10.3627 20.4164 9.6927 20.4164Z"
        fillRule="evenodd"
        clipRule="evenodd"
    />
</svg>
        