
<svg
    viewBox={0 0 25.169921875 25.169921875}
    xmlns="http://www.w3.org/2000/svg"
>
    <path
        fill="inherit"
        d="M4.2937 25.1692H20.8737C23.7437 25.1692 25.1737 23.7592 25.1737 20.9492V4.2392C25.1737 1.4192 23.7437 -0.0008 20.8737 -0.0008H4.2937C1.4337 -0.0008 0.0037 1.4192 0.0037 4.2392V20.9492C0.0037 23.7592 1.4337 25.1692 4.2937 25.1692ZM4.3237 22.9692C2.9537 22.9692 2.2037 22.2392 2.2037 20.8192V4.3592C2.2037 2.9392 2.9537 2.1992 4.3237 2.1992H20.8537C22.2037 2.1992 22.9737 2.9392 22.9737 4.3592V20.8192C22.9737 22.2392 22.2037 22.9692 20.8537 22.9692ZM8.4637 18.8392C9.1237 18.8392 9.5037 18.4392 9.5037 17.7492V9.7892H9.5837L15.5437 18.1792C15.9137 18.6892 16.1837 18.8392 16.6437 18.8392C17.3037 18.8392 17.7237 18.4292 17.7237 17.7092V7.1492C17.7237 6.4692 17.3337 6.0592 16.6837 6.0592C16.0537 6.0592 15.6637 6.4892 15.6637 7.1492V15.2592H15.5837L9.6237 6.7092C9.2737 6.2192 8.9737 6.0592 8.5137 6.0592C7.8437 6.0592 7.4637 6.5092 7.4637 7.2092V17.7492C7.4637 18.4192 7.8337 18.8392 8.4637 18.8392Z"
        fillRule="evenodd"
        clipRule="evenodd"
    />
</svg>
        