
<svg
    viewBox="0 0 25.169921875 25.169921875"
    xmlns="http://www.w3.org/2000/svg"
>
    <path
        fill="inherit"
        d="M4.2937 25.1692H20.8737C23.7437 25.1692 25.1737 23.7592 25.1737 20.9492V4.2392C25.1737 1.4192 23.7437 -0.0008 20.8737 -0.0008H4.2937C1.4337 -0.0008 0.0037 1.4192 0.0037 4.2392V20.9492C0.0037 23.7592 1.4337 25.1692 4.2937 25.1692ZM8.3437 19.0492C7.6837 19.0492 7.3037 18.6092 7.3037 17.9092V7.0392C7.3037 6.3192 7.6937 5.8492 8.3937 5.8492C8.8637 5.8492 9.1737 6.0292 9.5337 6.5392L15.6637 15.3292H15.7637V6.9892C15.7637 6.2992 16.1637 5.8492 16.8037 5.8492C17.4837 5.8492 17.8837 6.2792 17.8837 6.9892V17.8692C17.8837 18.6192 17.4637 19.0492 16.7637 19.0492C16.2937 19.0492 16.0137 18.8792 15.6437 18.3592L9.5037 9.7192H9.4037V17.9092C9.4037 18.6392 9.0137 19.0492 8.3437 19.0492Z"
        fillRule="evenodd"
        clipRule="evenodd"
    />
</svg>
        