<svg viewBox="0 0 25.169921875 25.169921875" xmlns="http://www.w3.org/2000/svg"><path d="M4.2937 25.1692H20.8737C23.7437 25.1692 25.1737 23.7592 25.1737 20.9492V4.2392C25.1737 1.4192 23.7437 -0.0008 20.8737 -0.0008H4.2937C1.4337 -0.0008 0.0037 1.4192 0.0037 4.2392V20.9492C0.0037 23.7592 1.4337 25.1692 4.2937 25.1692ZM4.3237 22.9692C2.9537 22.9692 2.2037 22.2392 2.2037 20.8192V4.3592C2.2037 2.9392 2.9537 2.1992 4.3237 2.1992H20.8537C22.2037 2.1992 22.9737 2.9392 22.9737 4.3592V20.8192C22.9737 22.2392 22.2037 22.9692 20.8537 22.9692ZM9.0737 18.8792C9.5437 18.8792 9.8537 18.5492 9.8537 18.0692V13.0592H11.9237L14.4237 18.0892C14.6537 18.5792 15.0237 18.8792 15.5737 18.8792C16.3237 18.8792 16.6237 18.3592 16.6237 17.8592V13.0592H17.3337C17.6137 13.0592 17.8137 12.8492 17.8137 12.5892C17.8137 12.3292 17.6137 12.1292 17.3337 12.1292H16.6237V7.0592C16.6237 6.5792 16.3237 6.2592 15.8437 6.2592C15.3837 6.2592 15.0837 6.5792 15.0837 7.0592V12.1292H13.0137L10.5137 7.0692C10.2837 6.5592 9.8937 6.2592 9.3537 6.2592C8.7337 6.2592 8.3037 6.6892 8.3037 7.2892V12.1292H7.6037C7.3437 12.1292 7.1337 12.3292 7.1337 12.5892C7.1337 12.8492 7.3437 13.0592 7.6037 13.0592H8.3037V18.0692C8.3037 18.5492 8.6237 18.8792 9.0737 18.8792ZM9.8537 9.0692H9.9437L11.4537 12.1292H9.8537ZM14.9937 16.1092L13.4837 13.0592H15.0837V16.1092Z" /></svg>