
<svg
    viewBox={0 0 30.544813437289534 27.890625}
    xmlns="http://www.w3.org/2000/svg"
>
    <path
        fill="inherit"
        d="M0.9769 11.3064C-0.0131 11.3064 -0.2531 11.9764 0.2769 12.7464L3.3369 17.0864C3.7869 17.7164 4.4469 17.7064 4.8869 17.0864L7.9269 12.7264C8.4669 11.9764 8.2069 11.3064 7.2469 11.3064H5.2769C6.4669 6.1564 11.0769 2.3264 16.5969 2.3264C23.0269 2.3264 28.2169 7.5164 28.2169 13.9464C28.2169 20.3664 23.0269 25.5664 16.5969 25.5664C12.7169 25.5664 9.2569 23.6564 7.1969 20.7564C6.7669 20.1964 6.1269 20.0164 5.5569 20.3564C5.0069 20.6964 4.8369 21.4664 5.3069 22.0664C7.8369 25.6064 11.9769 27.8864 16.5969 27.8864C24.2969 27.8864 30.5469 21.6464 30.5469 13.9464C30.5469 6.2464 24.2969 -0.0036 16.5969 -0.0036C9.8069 -0.0036 4.1269 4.8664 2.8969 11.3064ZM13.0869 20.2464C13.5369 20.2464 13.8669 19.9164 13.8669 19.4364V14.4264H15.9269L18.4169 19.4564C18.6669 19.9464 19.0369 20.2464 19.5769 20.2464C20.3369 20.2464 20.6369 19.7264 20.6369 19.2264V14.4264H21.3469C21.6069 14.4264 21.8069 14.2164 21.8069 13.9564C21.8069 13.6964 21.6069 13.4964 21.3469 13.4964H20.6369V8.4264C20.6369 7.9464 20.3369 7.6264 19.8569 7.6264C19.3869 7.6264 19.0869 7.9464 19.0869 8.4264V13.4964H17.0269L14.5169 8.4364C14.2869 7.9264 13.9069 7.6264 13.3569 7.6264C12.7469 7.6264 12.3069 8.0564 12.3069 8.6564V13.4964H11.6069C11.3469 13.4964 11.1469 13.6964 11.1469 13.9564C11.1469 14.2164 11.3469 14.4264 11.6069 14.4264H12.3069V19.4364C12.3069 19.9164 12.6369 20.2464 13.0869 20.2464ZM13.8669 10.4364H13.9469L15.4669 13.4964H13.8669ZM19.0069 17.4764L17.4869 14.4264H19.0869V17.4764Z"
        fillRule="evenodd"
        clipRule="evenodd"
    />
</svg>
        