
<svg
    viewBox={0 0 32.935546875 27.26189615322232}
    xmlns="http://www.w3.org/2000/svg"
>
    <path
        fill="inherit"
        d="M32.9327 16.3992C32.9327 7.7792 26.3227 0.7192 17.8927 -0.0008C17.4627 -0.0408 17.1327 0.2792 17.1327 0.7192V5.1892C17.1327 5.5592 17.3927 5.8392 17.7627 5.8692C22.9927 6.5092 27.0727 10.9792 27.0727 16.3992C27.0727 18.8592 26.2227 21.1292 24.7327 23.0292C24.5427 23.2592 24.5527 23.5592 24.7627 23.7792L28.0227 27.0292C28.3327 27.3292 28.7927 27.3292 29.0627 27.0092C31.4827 24.1392 32.9327 20.4292 32.9327 16.3992ZM0.0027 16.3992C0.0027 20.4392 1.4527 24.1492 3.8727 27.0192C4.1427 27.3492 4.5927 27.3292 4.9127 27.0292L8.1727 23.7792C8.3827 23.5592 8.3927 23.2592 8.2027 23.0292C6.7027 21.1292 5.8627 18.8592 5.8627 16.3992C5.8627 10.9792 9.9427 6.5092 15.1727 5.8692C15.5427 5.8392 15.8027 5.5592 15.8027 5.1892V0.7192C15.8027 0.2792 15.4727 -0.0408 15.0427 -0.0008C6.6127 0.7192 0.0027 7.7792 0.0027 16.3992ZM10.9927 16.5892C10.9927 16.8492 11.1927 17.0492 11.4527 17.0492H12.1727V22.0792C12.1727 22.5492 12.4827 22.8792 12.9327 22.8792C13.4027 22.8792 13.7127 22.5492 13.7127 22.0792V17.0492H15.7727L18.2827 22.0992C18.5127 22.5792 18.8927 22.8792 19.4327 22.8792C20.1827 22.8792 20.4827 22.3592 20.4827 21.8492V17.0492H21.2027C21.4627 17.0492 21.6727 16.8492 21.6727 16.5892C21.6727 16.3292 21.4627 16.1192 21.2027 16.1192H20.4827V11.0592C20.4827 10.5692 20.1827 10.2692 19.7027 10.2692C19.2327 10.2692 18.9527 10.5692 18.9527 11.0592V16.1192H16.8727L14.3727 11.0592C14.1527 10.5692 13.7527 10.2692 13.2227 10.2692C12.5927 10.2692 12.1727 10.6992 12.1727 11.2992V16.1192H11.4527C11.1927 16.1192 10.9927 16.3292 10.9927 16.5892ZM13.7127 13.0592H13.7927L15.3127 16.1192H13.7127ZM18.8527 20.1192L17.3327 17.0492H18.9527V20.1192Z"
        fillRule="evenodd"
        clipRule="evenodd"
    />
</svg>
        