
<svg
    viewBox="0 0 27.890625 27.890625"
    xmlns="http://www.w3.org/2000/svg"
>
    <path
        fill="inherit"
        d="M13.9427 27.8864C21.6427 27.8864 27.8927 21.6264 27.8927 13.9464C27.8927 6.2464 21.6427 -0.0036 13.9427 -0.0036C6.2627 -0.0036 0.0027 6.2464 0.0027 13.9464C0.0027 21.6264 6.2627 27.8864 13.9427 27.8864ZM10.3227 20.4564C9.8527 20.4564 9.5127 20.1064 9.5127 19.6164V14.4364H8.8027C8.5327 14.4364 8.3127 14.2364 8.3127 13.9564C8.3127 13.6864 8.5327 13.4764 8.8027 13.4764H9.5127V8.4864C9.5127 7.8564 9.9527 7.4264 10.6127 7.4264C11.1827 7.4264 11.5827 7.7564 11.8127 8.2564L14.3927 13.4764H16.5127V8.2464C16.5127 7.7564 16.8327 7.4264 17.3127 7.4264C17.8027 7.4264 18.1127 7.7564 18.1127 8.2464V13.4764H18.8427C19.1127 13.4764 19.3327 13.6864 19.3327 13.9564C19.3327 14.2364 19.1127 14.4364 18.8427 14.4364H18.1127V19.3864C18.1127 19.9064 17.8027 20.4564 17.0227 20.4564C16.4427 20.4564 16.0827 20.1264 15.8227 19.6364L13.2627 14.4364H11.1327V19.6164C11.1327 20.1064 10.7827 20.4564 10.3227 20.4564ZM11.1327 13.4764H12.7827L11.2127 10.3364H11.1327ZM14.8627 14.4364L16.4327 17.5864H16.5127V14.4364Z"
        fillRule="evenodd"
        clipRule="evenodd"
    />
</svg>
        