
<svg
    viewBox="0 0 30.529296875 29.17578125"
    xmlns="http://www.w3.org/2000/svg"
>
    <path
        fill="inherit"
        d="M1.0937 29.179H29.4237C30.0237 29.179 30.5337 28.669 30.5337 28.069C30.5337 27.469 30.0237 26.979 29.4237 26.979H28.7137V25.979C28.7137 25.429 28.3937 25.099 27.8337 25.099H26.9637V9.379H28.1637C28.9137 9.379 29.3537 8.829 29.3537 8.269C29.3537 7.859 29.1237 7.509 28.6137 7.219L16.9437 0.479C16.3937 0.169 15.8137 -0.001 15.2537 -0.001C14.6937 -0.001 14.1137 0.169 13.5937 0.479L1.9137 7.219C1.3937 7.509 1.1737 7.859 1.1737 8.269C1.1737 8.829 1.6137 9.379 2.3637 9.379H3.5637V25.099H2.7037C2.1437 25.099 1.8137 25.429 1.8137 25.979V26.979H1.0937C0.4937 26.979 0.0037 27.469 0.0037 28.069C0.0037 28.669 0.4937 29.179 1.0937 29.179ZM11.6437 22.109C11.1837 22.109 10.8437 21.779 10.8437 21.289V16.109H10.1337C9.8537 16.109 9.6437 15.899 9.6437 15.629C9.6437 15.339 9.8537 15.139 10.1337 15.139H10.8437V10.159C10.8437 9.529 11.2837 9.089 11.9337 9.089C12.5137 9.089 12.8937 9.409 13.1437 9.909L15.7137 15.139H17.8437V9.909C17.8437 9.419 18.1537 9.089 18.6337 9.089C19.1237 9.089 19.4437 9.419 19.4437 9.909V15.139H20.1637C20.4437 15.139 20.6537 15.339 20.6537 15.629C20.6537 15.899 20.4437 16.109 20.1637 16.109H19.4437V21.039C19.4437 21.559 19.1237 22.109 18.3437 22.109C17.7737 22.109 17.4037 21.789 17.1437 21.299L14.5737 16.109H12.4537V21.289C12.4537 21.779 12.1137 22.109 11.6437 22.109ZM12.4537 15.139H14.1137L12.5337 11.989H12.4537ZM16.1837 16.109L17.7637 19.249H17.8437V16.109Z"
        fillRule="evenodd"
        clipRule="evenodd"
    />
</svg>
        