
<svg
    viewBox={0 0 30.5703125 30.5703125}
    xmlns="http://www.w3.org/2000/svg"
>
    <path
        fill="inherit"
        d="M15.2827 30.5663C23.6827 30.5663 30.5727 23.6763 30.5727 15.2863C30.5727 6.8863 23.6827 -0.0038 15.2827 -0.0038C6.8927 -0.0038 0.0027 6.8863 0.0027 15.2863C0.0027 23.6763 6.8927 30.5663 15.2827 30.5663ZM15.2827 25.4862C9.6527 25.4862 5.0827 20.9162 5.0827 15.2863C5.0827 9.6363 9.6527 5.0863 15.2827 5.0863C20.9327 5.0863 25.4827 9.6363 25.4827 15.2863C25.4827 20.9162 20.9327 25.4862 15.2827 25.4862ZM11.7727 21.5863C12.2327 21.5863 12.5527 21.2563 12.5527 20.7763V15.7663H14.6127L17.1127 20.7963C17.3527 21.2863 17.7227 21.5863 18.2627 21.5863C19.0127 21.5863 19.3227 21.0663 19.3227 20.5663V15.7663H20.0327C20.3027 15.7663 20.5127 15.5563 20.5127 15.2963C20.5127 15.0363 20.3027 14.8363 20.0327 14.8363H19.3227V9.7663C19.3227 9.2863 19.0127 8.9662 18.5427 8.9662C18.0727 8.9662 17.7727 9.2863 17.7727 9.7663V14.8363H15.7127L13.2027 9.7762C12.9727 9.2663 12.5927 8.9662 12.0427 8.9662C11.4327 8.9662 10.9927 9.3963 10.9927 9.9963V14.8363H10.2927C10.0327 14.8363 9.8327 15.0363 9.8327 15.2963C9.8327 15.5563 10.0327 15.7663 10.2927 15.7663H10.9927V20.7763C10.9927 21.2563 11.3227 21.5863 11.7727 21.5863ZM12.5527 11.7762H12.6327L14.1527 14.8363H12.5527ZM17.6927 18.8163L16.1727 15.7663H17.7727V18.8163Z"
        fillRule="evenodd"
        clipRule="evenodd"
    />
</svg>
        