
<svg
    viewBox="0 0 30.529296875 29.17578125"
    xmlns="http://www.w3.org/2000/svg"
>
    <path
        fill="inherit"
        d="M1.8137 25.919H28.7137V25.009C28.7137 24.459 28.3937 24.129 27.8337 24.129H26.9637V9.379H28.1637C28.9137 9.379 29.3537 8.829 29.3537 8.269C29.3537 7.859 29.1237 7.509 28.6137 7.219L16.9437 0.479C16.3937 0.169 15.8137 -0.001 15.2537 -0.001C14.6937 -0.001 14.1137 0.169 13.5937 0.479L1.9137 7.219C1.3937 7.509 1.1737 7.859 1.1737 8.269C1.1737 8.829 1.6137 9.379 2.3637 9.379H3.5637V24.129H2.7037C2.1437 24.129 1.8137 24.459 1.8137 25.009ZM5.6337 24.129V7.629L14.7237 2.529C14.8937 2.429 15.0837 2.379 15.2537 2.379C15.4337 2.379 15.6237 2.429 15.8037 2.529L24.8937 7.629V24.129ZM11.7537 20.689C12.2137 20.689 12.5337 20.359 12.5337 19.889V14.859H14.6037L17.0937 19.909C17.3337 20.389 17.7037 20.689 18.2537 20.689C18.9937 20.689 19.3037 20.169 19.3037 19.659V14.859H20.0137C20.2737 14.859 20.4837 14.659 20.4837 14.399C20.4837 14.139 20.2737 13.929 20.0137 13.929H19.3037V8.869C19.3037 8.379 19.0037 8.079 18.5237 8.079C18.0637 8.079 17.7637 8.379 17.7637 8.869V13.929H15.6937L13.1937 8.869C12.9637 8.379 12.5737 8.079 12.0337 8.079C11.4137 8.079 10.9737 8.499 10.9737 9.109V13.929H10.2837C10.0237 13.929 9.8137 14.139 9.8137 14.399C9.8137 14.659 10.0237 14.859 10.2837 14.859H10.9737V19.889C10.9737 20.359 11.3037 20.689 11.7537 20.689ZM12.5337 10.869H12.6237L14.1337 13.929H12.5337ZM17.6737 17.919L16.1637 14.859H17.7637V17.919ZM1.0937 29.179H29.4237C30.0237 29.179 30.5337 28.669 30.5337 28.069C30.5337 27.469 30.0237 26.979 29.4237 26.979H1.0937C0.4937 26.979 0.0037 27.469 0.0037 28.069C0.0037 28.669 0.4937 29.179 1.0937 29.179Z"
        fillRule="evenodd"
        clipRule="evenodd"
    />
</svg>
        