<svg viewBox="0 0 20.91796875 25.224609375" xmlns="http://www.w3.org/2000/svg"><path d="M3.6337 25.2202C4.4737 25.2202 4.9937 24.6802 4.9937 23.8302V13.5302H9.5437L14.8037 23.8702C15.1737 24.6202 15.7937 25.2202 16.8037 25.2202C17.9337 25.2202 18.6337 24.5002 18.6337 23.4502V13.5302H20.0337C20.5237 13.5302 20.9137 13.1402 20.9137 12.6502C20.9137 12.1502 20.5237 11.7602 20.0337 11.7602H18.6337V1.3702C18.6337 0.5202 18.1137 0.0002 17.2937 0.0002C16.4637 0.0002 15.9537 0.5202 15.9537 1.3702V11.7602H11.4337L6.1437 1.3702C5.7037 0.4902 5.1037 0.0002 4.1137 0.0002C3.0637 0.0002 2.3137 0.6802 2.3137 1.7802V11.7602H0.8937C0.3937 11.7602 0.0037 12.1502 0.0037 12.6502C0.0037 13.1402 0.3937 13.5302 0.8937 13.5302H2.3137V23.8302C2.3137 24.6802 2.8137 25.2202 3.6337 25.2202ZM4.9937 4.9102H5.1437L8.6237 11.7602H4.9937ZM15.8037 20.3402L12.3337 13.5302H15.9537V20.3402Z" /></svg>