
<svg
    viewBox={0 0 27.890625 27.890625}
    xmlns="http://www.w3.org/2000/svg"
>
    <path
        fill="inherit"
        d="M13.9427 27.8864C21.6427 27.8864 27.8927 21.6464 27.8927 13.9464C27.8927 6.2464 21.6427 -0.0036 13.9427 -0.0036C6.2527 -0.0036 0.0027 6.2464 0.0027 13.9464C0.0027 21.6464 6.2527 27.8864 13.9427 27.8864ZM10.1327 11.3064C10.0727 10.7764 9.8427 10.2964 9.4727 9.9564C10.6827 6.9064 12.5927 4.1464 15.0927 1.9164C15.2827 1.9264 15.4727 1.9564 15.6727 1.9864C13.8727 5.0064 12.7927 8.3964 12.5327 11.9064C11.7127 11.7764 10.9127 11.5664 10.1327 11.3064ZM3.8027 7.3664C5.7527 4.3764 8.9827 2.2964 12.7127 1.9164C10.6327 4.0864 9.0227 6.6164 7.9327 9.3664C7.5427 9.3664 7.1327 9.5064 6.7827 9.7364C5.7127 9.0764 4.7027 8.2764 3.8027 7.3664ZM16.5027 7.5464C16.5127 8.7864 16.6627 10.0264 16.9527 11.2064C16.7027 11.4564 16.5327 11.7764 16.4327 12.1164C16.0927 12.1364 15.7527 12.1564 15.3927 12.1564C14.9827 12.1564 14.5727 12.1364 14.1827 12.1164C14.4127 8.7664 15.4327 5.5664 17.1427 2.7364C16.6927 4.2764 16.4927 5.8964 16.5027 7.5464ZM18.1527 7.5364C18.1427 5.9464 18.3627 4.3764 18.8227 2.8864C21.5327 4.0864 23.7227 6.2464 24.9527 8.9364C23.5027 10.0364 21.8727 10.8664 20.1527 11.4164C19.7827 10.9064 19.1827 10.5864 18.5027 10.5664C18.2927 9.5864 18.1727 8.5764 18.1527 7.5364ZM1.8627 13.9464C1.8627 12.1364 2.2527 10.4364 2.9527 8.8964C3.8527 9.7464 4.8427 10.4964 5.8927 11.1464C5.8627 11.2564 5.8627 11.3764 5.8627 11.4964C5.8627 12.2264 6.2227 12.8664 6.7827 13.2664C6.4927 14.6864 6.3427 16.1564 6.3427 17.6464C4.7727 16.8864 3.2627 15.9164 1.8827 14.7564C1.8727 14.4764 1.8627 14.2164 1.8627 13.9464ZM26.0327 13.9464C26.0327 15.1164 25.8627 16.2664 25.5527 17.3364C24.7427 17.7764 23.9127 18.1464 23.0627 18.4564C21.7527 17.2664 20.6627 15.8464 19.8427 14.2764C20.2027 13.9564 20.4527 13.5264 20.5527 13.0264C22.3227 12.4864 24.0227 11.6464 25.5527 10.5664C25.8627 11.6364 26.0327 12.7664 26.0327 13.9464ZM12.4727 13.6564C12.4727 15.4364 12.6727 17.1864 13.0727 18.8964C12.8427 19.0764 12.6427 19.3064 12.5127 19.5664C10.9827 19.3364 9.4627 18.9364 8.0027 18.3764C7.9527 16.7464 8.0827 15.1464 8.3927 13.6064C8.8827 13.5064 9.3127 13.2464 9.6227 12.8764C10.5427 13.1964 11.5027 13.4264 12.4727 13.5764C12.4727 13.6064 12.4727 13.6264 12.4727 13.6564ZM15.3927 13.8064C15.8327 13.8064 16.2527 13.7964 16.6627 13.7564C16.9927 14.2964 17.5727 14.6864 18.2427 14.7664C19.0127 16.3364 20.0527 17.7864 21.3027 19.0264C19.6827 19.4864 18.0427 19.7264 16.3927 19.7864C16.1027 19.0564 15.4527 18.5364 14.6527 18.4464C14.3127 16.9264 14.1227 15.3564 14.1227 13.7664C14.5427 13.7964 14.9727 13.8064 15.3927 13.8064ZM2.2927 17.1764C3.5927 18.1064 4.9627 18.8664 6.4027 19.4964C6.4527 20.9764 6.6827 22.4364 7.0727 23.8864C4.7727 22.2864 3.0627 19.9364 2.2927 17.1764ZM24.5727 19.6464C24.5827 19.6464 24.5927 19.6364 24.6127 19.6364C24.6127 19.6464 24.5927 19.6564 24.5927 19.6764ZM13.9427 26.0264C12.2527 26.0264 10.6527 25.6764 9.1827 25.0564C8.6027 23.4764 8.2327 21.8364 8.0927 20.1664C9.4927 20.6464 10.9127 20.9964 12.3727 21.2064C12.6327 22.0364 13.4027 22.6364 14.3127 22.6864C14.7827 23.7764 15.3427 24.8464 15.9827 25.8564C15.3127 25.9764 14.6427 26.0264 13.9427 26.0264ZM15.8727 22.1064C16.0627 21.9164 16.2327 21.6864 16.3427 21.4364C18.5027 21.3664 20.6627 21.0164 22.7327 20.3264C23.0527 20.5864 23.3827 20.8264 23.7227 21.0564C22.2327 23.0964 20.1227 24.6464 17.6827 25.4464C16.9827 24.3764 16.3627 23.2664 15.8727 22.1064Z"
        fillRule="evenodd"
        clipRule="evenodd"
    />
</svg>
        