<svg viewBox="0 0 27.890625 27.890625" xmlns="http://www.w3.org/2000/svg"><path d="M13.9327 -0.0036C11.0627 -0.0036 8.3927 0.9064 6.1627 2.4164L7.5227 3.7764C9.0327 2.7664 10.8127 2.1164 12.7027 1.9164C11.5227 3.1564 10.5027 4.4864 9.6527 5.9064L10.8327 7.0964C11.9527 5.1664 13.3827 3.4164 15.0627 1.9264C15.2727 1.9264 15.4727 1.9564 15.6727 1.9864C14.3427 4.2064 13.4227 6.6464 12.9327 9.1864L14.3427 10.6064C14.7227 7.9264 15.5827 5.4164 16.9227 3.1464L17.0627 3.1764C16.2427 6.2664 16.2527 9.4164 17.1327 12.6164L16.4027 12.6564L20.4227 16.6764C20.0727 15.8364 19.6827 14.8564 19.3027 13.8464C21.5427 13.2164 23.6827 12.1564 25.5527 10.6264C25.8627 11.6764 26.0327 12.7964 26.0327 13.9464C26.0327 15.3964 25.7127 16.8464 25.1027 18.1564L22.9327 19.1964L25.4527 21.7064C26.9927 19.4964 27.8927 16.8164 27.8927 13.9464C27.8927 6.3164 21.5627 -0.0036 13.9327 -0.0036ZM25.7427 27.2464C26.1527 27.6564 26.8227 27.6464 27.2327 27.2364C27.6327 26.8264 27.6427 26.1564 27.2327 25.7464L2.1427 0.6664C1.7327 0.2564 1.0627 0.2464 0.6427 0.6664C0.2427 1.0664 0.2427 1.7464 0.6427 2.1564ZM24.9227 9.0064C23.1227 10.5864 21.0227 11.6864 18.7627 12.2864C17.8927 9.2564 17.8827 5.9164 18.8227 2.9264C21.5327 4.1264 23.7327 6.3164 24.9227 9.0064ZM13.9427 27.8864C16.8127 27.8864 19.4827 26.9864 21.7227 25.4664L20.3527 24.1164C19.5227 24.6764 18.6227 25.1264 17.6527 25.4264C16.8327 24.1764 16.1427 22.8364 15.6027 21.4364C16.2727 21.4364 16.9227 21.4364 17.5927 21.3564L15.6927 19.4564C15.4127 19.4664 15.1227 19.4564 14.8427 19.4264C14.7427 19.0864 14.6727 18.7464 14.6327 18.3864L12.6727 16.4464C12.7727 17.5264 12.9727 18.5964 13.2627 19.6564C11.4427 19.4564 9.6427 19.0164 7.9127 18.3364C7.9027 15.9964 8.1627 14.1764 8.6427 12.3964L7.3027 11.0764C6.6427 13.1564 6.2927 15.3564 6.2727 17.6064C4.7127 16.8464 3.2527 15.8864 1.9027 14.7564C1.8727 14.4764 1.8627 14.2164 1.8627 13.9464C1.8627 11.5964 2.5527 9.3964 3.7427 7.5164L2.4227 6.1764C0.9027 8.4064 0.0027 11.0764 0.0027 13.9464C0.0027 21.5564 6.3327 27.8864 13.9427 27.8864ZM7.0427 23.8164C4.7827 22.2264 3.0927 19.8964 2.3427 17.1964C3.5927 18.1064 4.9327 18.8564 6.3327 19.4664C6.4227 20.9764 6.6627 22.3264 7.0427 23.8164ZM15.9727 25.8564C15.3027 25.9764 14.6427 26.0264 13.9427 26.0264C12.2527 26.0264 10.6327 25.6664 9.1727 25.0164C8.6227 23.5064 8.2127 21.8364 8.0527 20.1364C9.9127 20.7964 11.8427 21.2164 13.7927 21.3664C14.3527 22.9364 15.0827 24.4364 15.9727 25.8564Z" /></svg>