
<svg
    viewBox="0 0 31.08984375 29.3125"
    xmlns="http://www.w3.org/2000/svg"
>
    <path
        fill="inherit"
        d="M0.0037 25.1873C0.0037 27.9073 1.3537 29.3173 4.1337 29.3173H26.7937C29.6637 29.3173 31.0937 27.9073 31.0937 25.0873V4.2373C31.0937 1.4173 29.6637 -0.0027 26.7937 -0.0027H10.3237C7.4637 -0.0027 6.0337 1.4173 6.0337 4.2373V10.7573H2.7637C1.0237 10.7573 0.0037 11.7073 0.0037 13.3273ZM7.7637 27.1073C8.0637 26.5273 8.2337 25.8373 8.2337 25.0473V4.3573C8.2337 2.9373 8.9937 2.1973 10.3637 2.1973H26.7537C28.1237 2.1973 28.8937 2.9373 28.8937 4.3573V24.9673C28.8937 26.3873 28.1237 27.1073 26.7537 27.1073ZM11.7837 8.1473H25.3637C25.8437 8.1473 26.2137 7.7673 26.2137 7.2873C26.2137 6.8173 25.8437 6.4673 25.3637 6.4673H11.7837C11.2937 6.4673 10.9237 6.8173 10.9237 7.2873C10.9237 7.7673 11.2937 8.1473 11.7837 8.1473ZM11.7837 12.9573H25.3637C25.8437 12.9573 26.2137 12.5873 26.2137 12.1273C26.2137 11.6473 25.8437 11.2773 25.3637 11.2773H11.7837C11.2937 11.2773 10.9237 11.6473 10.9237 12.1273C10.9237 12.5873 11.2937 12.9573 11.7837 12.9573ZM2.2037 25.1873V13.7573C2.2037 13.2473 2.5037 12.9573 3.0037 12.9573H6.0337V25.1873C6.0337 26.3173 5.1937 27.1073 4.1337 27.1073C3.0537 27.1073 2.2037 26.2773 2.2037 25.1873ZM12.5937 22.7073H16.1337C17.1737 22.7073 17.8037 22.0773 17.8037 21.0373V17.7873C17.8037 16.7373 17.1737 16.1073 16.1337 16.1073H12.5937C11.5437 16.1073 10.9137 16.7373 10.9137 17.7873V21.0373C10.9137 22.0773 11.5437 22.7073 12.5937 22.7073ZM20.2637 17.7873H25.3437C25.8437 17.7873 26.1937 17.4273 26.1937 16.9673C26.1937 16.4773 25.8437 16.1073 25.3437 16.1073H20.2637C19.7737 16.1073 19.4137 16.4773 19.4137 16.9673C19.4137 17.4273 19.7737 17.7873 20.2637 17.7873ZM20.2637 22.7073H25.3437C25.8437 22.7073 26.1937 22.3573 26.1937 21.8873C26.1937 21.4073 25.8437 21.0273 25.3437 21.0273H20.2637C19.7737 21.0273 19.4137 21.4073 19.4137 21.8873C19.4137 22.3573 19.7737 22.7073 20.2637 22.7073Z"
        fillRule="evenodd"
        clipRule="evenodd"
    />
</svg>
        