
<svg
    viewBox="0 0 30.54296875 29.3125"
    xmlns="http://www.w3.org/2000/svg"
>
    <path
        fill="inherit"
        d="M4.6237 29.3173H26.2537C29.1237 29.3173 30.5437 27.9073 30.5437 25.0873V4.2373C30.5437 1.4173 29.1237 -0.0027 26.2537 -0.0027H10.3237C7.4637 -0.0027 6.0337 1.4173 6.0337 4.2373V26.4373C6.0337 27.9073 5.6837 28.7273 4.6237 29.3173ZM11.5137 8.1473C11.0237 8.1473 10.6537 7.7673 10.6537 7.2873C10.6537 6.8173 11.0237 6.4673 11.5137 6.4673H25.0837C25.5637 6.4673 25.9337 6.8173 25.9337 7.2873C25.9337 7.7673 25.5637 8.1473 25.0837 8.1473ZM0.0037 13.3273V25.5373C0.0037 26.5373 0.7237 27.1773 1.6837 27.1773C2.6437 27.1673 3.3637 26.5373 3.3637 25.5373V10.7573H2.6937C1.0237 10.7573 0.0037 11.7073 0.0037 13.3273ZM11.5137 12.9573C11.0237 12.9573 10.6537 12.5873 10.6537 12.1273C10.6537 11.6473 11.0237 11.2773 11.5137 11.2773H25.0837C25.5637 11.2773 25.9337 11.6473 25.9337 12.1273C25.9337 12.5873 25.5637 12.9573 25.0837 12.9573ZM19.9837 17.7873C19.4937 17.7873 19.1437 17.4273 19.1437 16.9673C19.1437 16.4773 19.4937 16.1073 19.9837 16.1073H25.0837C25.5637 16.1073 25.9237 16.4773 25.9237 16.9673C25.9237 17.4273 25.5637 17.7873 25.0837 17.7873ZM12.2537 22.7773C11.2337 22.7773 10.6337 22.1773 10.6337 21.1773V17.7173C10.6337 16.7073 11.2337 16.1073 12.2537 16.1073H15.6637C16.6637 16.1073 17.2637 16.7073 17.2637 17.7173V21.1773C17.2637 22.1773 16.6637 22.7773 15.6637 22.7773ZM19.9837 22.7073C19.4937 22.7073 19.1437 22.3573 19.1437 21.8873C19.1437 21.4073 19.4937 21.0273 19.9837 21.0273H25.0837C25.5637 21.0273 25.9237 21.4073 25.9237 21.8873C25.9237 22.3573 25.5637 22.7073 25.0837 22.7073Z"
        fillRule="evenodd"
        clipRule="evenodd"
    />
</svg>
        