
<svg
    viewBox={0 0 27.890625 27.890625}
    xmlns="http://www.w3.org/2000/svg"
>
    <path
        fill="inherit"
        d="M13.9427 27.8864C21.6427 27.8864 27.8927 21.6464 27.8927 13.9464C27.8927 6.2464 21.6427 -0.0036 13.9427 -0.0036C6.2527 -0.0036 0.0027 6.2464 0.0027 13.9464C0.0027 21.6464 6.2527 27.8864 13.9427 27.8864ZM13.9427 25.5664C7.5227 25.5664 2.3227 20.3664 2.3227 13.9464C2.3227 7.5164 7.5227 2.3264 13.9427 2.3264C20.3727 2.3264 25.5627 7.5164 25.5627 13.9464C25.5627 20.3664 20.3727 25.5664 13.9427 25.5664ZM8.9027 20.8464H19.1027C20.4527 20.8464 21.1227 20.1964 21.1227 18.8664V9.0364C21.1227 7.6964 20.4527 7.0564 19.1027 7.0564H11.5927C10.2427 7.0564 9.5727 7.6964 9.5727 9.0364V19.5064C9.5727 20.1964 9.4027 20.5764 8.9027 20.8464ZM12.1927 10.9064C11.9327 10.9064 11.7427 10.7364 11.7427 10.4764C11.7427 10.2364 11.9227 10.0664 12.1927 10.0664H18.5127C18.7627 10.0664 18.9327 10.2364 18.9327 10.4764C18.9327 10.7364 18.7627 10.9064 18.5127 10.9064ZM6.7227 13.3264V19.0764C6.7227 19.5664 7.0727 19.8564 7.5227 19.8564C7.9727 19.8364 8.3227 19.5464 8.3227 19.0764V12.1164H8.0127C7.2327 12.1164 6.7227 12.5664 6.7227 13.3264ZM12.1927 13.1764C11.9327 13.1764 11.7427 13.0064 11.7427 12.7564C11.7427 12.5064 11.9227 12.3364 12.1927 12.3364H18.5127C18.7627 12.3364 18.9327 12.5064 18.9327 12.7564C18.9327 13.0064 18.7627 13.1764 18.5127 13.1764ZM16.1827 15.4864C15.9327 15.4864 15.7527 15.3164 15.7527 15.0764C15.7527 14.8364 15.9327 14.6264 16.1827 14.6264H18.5127C18.7627 14.6264 18.9327 14.8364 18.9327 15.0764C18.9327 15.3164 18.7627 15.4864 18.5127 15.4864ZM12.4927 17.7764C12.0127 17.7764 11.7427 17.4964 11.7427 17.0264V15.3964C11.7427 14.9264 12.0127 14.6264 12.4927 14.6264H14.1127C14.5927 14.6264 14.8727 14.9264 14.8727 15.3964V17.0264C14.8727 17.4964 14.5927 17.7764 14.1127 17.7764ZM16.1827 17.7764C15.9327 17.7764 15.7527 17.5964 15.7527 17.3464C15.7527 17.1064 15.9327 16.9264 16.1827 16.9264H18.5127C18.7627 16.9264 18.9327 17.1064 18.9327 17.3464C18.9327 17.5964 18.7627 17.7764 18.5127 17.7764Z"
        fillRule="evenodd"
        clipRule="evenodd"
    />
</svg>
        