
<svg
    viewBox={0 0 30.529296875 29.17578125}
    xmlns="http://www.w3.org/2000/svg"
>
    <path
        fill="inherit"
        d="M1.0937 29.179H29.4237C30.0237 29.179 30.5337 28.669 30.5337 28.069C30.5337 27.469 30.0237 26.979 29.4237 26.979H28.7137V25.979C28.7137 25.429 28.3937 25.099 27.8337 25.099H26.9637V9.379H28.1637C28.9137 9.379 29.3537 8.829 29.3537 8.269C29.3537 7.859 29.1237 7.509 28.6137 7.219L16.9437 0.479C16.3937 0.169 15.8137 -0.001 15.2537 -0.001C14.6937 -0.001 14.1137 0.169 13.5937 0.479L1.9137 7.219C1.3937 7.509 1.1737 7.859 1.1737 8.269C1.1737 8.829 1.6137 9.379 2.3637 9.379H3.5637V25.099H2.7037C2.1437 25.099 1.8137 25.429 1.8137 25.979V26.979H1.0937C0.4937 26.979 0.0037 27.469 0.0037 28.069C0.0037 28.669 0.4937 29.179 1.0937 29.179ZM10.5837 21.399C10.1137 21.399 9.7937 21.069 9.7937 20.579V10.049C9.7937 9.539 10.1137 9.229 10.5837 9.229C11.0337 9.229 11.3437 9.559 11.3437 10.059V16.539H11.3937L14.7637 12.849C14.9137 12.689 15.1437 12.549 15.3837 12.549C15.7737 12.549 16.0737 12.879 16.0737 13.239C16.0737 13.479 15.9737 13.599 15.7937 13.799L13.2937 16.419L15.9737 20.149C16.1037 20.329 16.1837 20.509 16.1837 20.709C16.1837 21.109 15.8637 21.399 15.4537 21.399C15.1437 21.399 14.9337 21.249 14.7537 20.989L12.1837 17.389L11.3437 18.199V20.579C11.3437 21.069 11.0337 21.399 10.5837 21.399ZM18.5237 21.399C18.0437 21.399 17.7737 21.069 17.7737 20.579V13.339C17.7737 12.909 18.0837 12.549 18.4937 12.549C18.8937 12.549 19.2137 12.909 19.2137 13.339V14.259H19.2937C19.4937 13.339 20.1237 12.549 21.0237 12.549C21.5437 12.549 21.9437 12.839 21.9437 13.359C21.9437 13.599 21.8337 13.799 21.6437 13.889C21.4337 14.029 21.1537 14.059 20.8637 14.059C19.6637 14.059 19.2737 15.159 19.2737 16.159V20.579C19.2737 21.179 18.8837 21.399 18.5237 21.399Z"
        fillRule="evenodd"
        clipRule="evenodd"
    />
</svg>
        