
<svg
    viewBox="0 0 25.169921875 25.169921875"
    xmlns="http://www.w3.org/2000/svg"
>
    <path
        fill="inherit"
        d="M4.2937 25.1692H20.8737C23.7437 25.1692 25.1737 23.7592 25.1737 20.9492V4.2392C25.1737 1.4192 23.7437 -0.0008 20.8737 -0.0008H4.2937C1.4337 -0.0008 0.0037 1.4192 0.0037 4.2392V20.9492C0.0037 23.7592 1.4337 25.1692 4.2937 25.1692ZM7.9037 18.3592C7.4337 18.3592 7.1137 18.0292 7.1137 17.5392V7.0092C7.1137 6.5192 7.4337 6.1892 7.9037 6.1892C8.3537 6.1892 8.6637 6.5392 8.6637 7.0292V13.5092H8.7137L12.0837 9.8292C12.2337 9.6492 12.4837 9.5292 12.7037 9.5292C13.0937 9.5292 13.3937 9.8392 13.3937 10.1992C13.3937 10.4492 13.2937 10.5692 13.1137 10.7592L10.6237 13.3992L13.2937 17.1192C13.4237 17.2992 13.5237 17.4692 13.5237 17.6792C13.5237 18.0692 13.1837 18.3592 12.7737 18.3592C12.4737 18.3592 12.2537 18.2092 12.0737 17.9692L9.5037 14.3692L8.6637 15.1792V17.5392C8.6637 18.0292 8.3537 18.3592 7.9037 18.3592ZM15.8437 18.3592C15.3637 18.3592 15.0937 18.0492 15.0937 17.5392V10.3092C15.0937 9.8692 15.4037 9.5292 15.8137 9.5292C16.2137 9.5292 16.5337 9.8692 16.5337 10.3092V11.2292H16.6137C16.8137 10.3092 17.4437 9.5292 18.3437 9.5292C18.8637 9.5292 19.2637 9.8192 19.2637 10.3192C19.2637 10.5692 19.1537 10.7592 18.9637 10.8592C18.7537 10.9892 18.4837 11.0192 18.1837 11.0192C16.9837 11.0192 16.5937 12.1292 16.5937 13.1292V17.5392C16.5937 18.1592 16.2037 18.3592 15.8437 18.3592Z"
        fillRule="evenodd"
        clipRule="evenodd"
    />
</svg>
        