
<svg
    viewBox={0 0 32.935546875 27.33018496744969}
    xmlns="http://www.w3.org/2000/svg"
>
    <path
        fill="inherit"
        d="M16.4627 5.864C18.9327 5.864 21.2027 6.724 23.0227 8.134C23.2927 8.354 23.6527 8.324 23.9127 8.064L27.0827 4.894C27.4027 4.584 27.3827 4.124 27.0527 3.854C24.2027 1.454 20.4927 0.004 16.4627 0.004C12.4427 0.004 8.7327 1.454 5.8827 3.854C5.5527 4.124 5.5327 4.584 5.8527 4.894L9.0227 8.064C9.2827 8.324 9.6527 8.354 9.9527 8.124C11.7627 6.724 14.0127 5.864 16.4627 5.864ZM0.0027 16.464C0.0027 20.494 1.4527 24.204 3.8727 27.074C4.1427 27.414 4.6027 27.414 4.9127 27.094L8.1627 23.844C8.3627 23.624 8.3927 23.324 8.2027 23.094C6.7127 21.194 5.8627 18.924 5.8627 16.464C5.8627 14.014 6.7027 11.744 8.1227 9.944C8.3427 9.654 8.3427 9.284 8.0827 9.024L4.9127 5.854C4.5927 5.534 4.1427 5.534 3.8727 5.864C1.4527 8.734 0.0027 12.444 0.0027 16.464ZM32.9327 16.464C32.9327 12.444 31.4827 8.734 29.0627 5.864C28.7927 5.534 28.3327 5.534 28.0227 5.854L24.8527 9.024C24.5927 9.284 24.5827 9.654 24.8127 9.944C26.2227 11.744 27.0727 14.014 27.0727 16.464C27.0727 18.924 26.2227 21.194 24.7327 23.094C24.5427 23.324 24.5527 23.624 24.7627 23.844L28.0127 27.094C28.3327 27.414 28.7827 27.414 29.0627 27.074C31.4827 24.204 32.9327 20.494 32.9327 16.464ZM11.9227 22.244C12.3627 22.244 12.6627 21.934 12.6627 21.454V19.144L13.4627 18.364L15.9727 21.864C16.1327 22.094 16.3527 22.244 16.6527 22.244C17.0527 22.244 17.3627 21.954 17.3627 21.574C17.3627 21.384 17.2827 21.214 17.1427 21.044L14.5427 17.434L16.9827 14.874C17.1627 14.674 17.2427 14.564 17.2427 14.324C17.2427 13.974 16.9527 13.674 16.5727 13.674C16.3627 13.674 16.1227 13.804 15.9827 13.954L12.7127 17.554H12.6627V11.254C12.6627 10.774 12.3627 10.444 11.9227 10.444C11.4827 10.444 11.1527 10.764 11.1527 11.234V21.454C11.1527 21.934 11.4827 22.244 11.9227 22.244ZM19.6327 22.244C19.9627 22.244 20.3427 22.044 20.3427 21.454V17.174C20.3427 16.184 20.7127 15.124 21.8927 15.124C22.1727 15.124 22.4327 15.084 22.6427 14.954C22.8227 14.864 22.9327 14.694 22.9327 14.454C22.9327 13.944 22.5427 13.674 22.0427 13.674C21.1627 13.674 20.5627 14.434 20.3527 15.314H20.2727V14.434C20.2727 14.004 19.9727 13.674 19.5927 13.674C19.1927 13.674 18.8927 14.004 18.8927 14.434V21.454C18.8927 21.934 19.1527 22.244 19.6327 22.244Z"
        fillRule="evenodd"
        clipRule="evenodd"
    />
</svg>
        