
<svg
    viewBox="0 0 25.169921875 25.169921875"
    xmlns="http://www.w3.org/2000/svg"
>
    <path
        fill="inherit"
        d="M4.2937 25.1692H20.8737C23.7437 25.1692 25.1737 23.7592 25.1737 20.9492V4.2392C25.1737 1.4192 23.7437 -0.0008 20.8737 -0.0008H4.2937C1.4337 -0.0008 0.0037 1.4192 0.0037 4.2392V20.9492C0.0037 23.7592 1.4337 25.1692 4.2937 25.1692ZM4.3237 22.9692C2.9537 22.9692 2.2037 22.2392 2.2037 20.8192V4.3592C2.2037 2.9392 2.9537 2.1992 4.3237 2.1992H20.8537C22.2037 2.1992 22.9737 2.9392 22.9737 4.3592V20.8192C22.9737 22.2392 22.2037 22.9692 20.8537 22.9692ZM8.0637 18.1792C8.5037 18.1792 8.8037 17.8592 8.8037 17.3892V15.0792L9.6137 14.2992L12.1137 17.7992C12.2737 18.0292 12.4937 18.1792 12.7837 18.1792C13.1837 18.1792 13.5037 17.8992 13.5037 17.5092C13.5037 17.3192 13.4137 17.1492 13.2937 16.9792L10.6937 13.3692L13.1137 10.7992C13.2937 10.6092 13.3837 10.4992 13.3837 10.2492C13.3837 9.9092 13.0937 9.6092 12.7137 9.6092C12.5137 9.6092 12.2637 9.7392 12.1237 9.8992L8.8437 13.4792H8.8037V7.1792C8.8037 6.7092 8.5037 6.3692 8.0637 6.3692C7.6137 6.3692 7.3037 6.6992 7.3037 7.1592V17.3892C7.3037 17.8592 7.6137 18.1792 8.0637 18.1792ZM15.7637 18.1792C16.1037 18.1792 16.4837 17.9792 16.4837 17.3892V13.0992C16.4837 12.1292 16.8537 11.0492 18.0337 11.0492C18.3237 11.0492 18.5837 11.0192 18.7837 10.8992C18.9637 10.7992 19.0737 10.6192 19.0737 10.3792C19.0737 9.8892 18.6937 9.6092 18.1837 9.6092C17.3037 9.6092 16.7037 10.3592 16.5037 11.2492H16.4237V10.3592C16.4237 9.9392 16.1237 9.6092 15.7337 9.6092C15.3437 9.6092 15.0437 9.9392 15.0437 10.3592V17.3892C15.0437 17.8692 15.3037 18.1792 15.7637 18.1792Z"
        fillRule="evenodd"
        clipRule="evenodd"
    />
</svg>
        