
<svg
    viewBox="0 0 27.890625 27.890625"
    xmlns="http://www.w3.org/2000/svg"
>
    <path
        fill="inherit"
        d="M13.9427 27.8864C21.6427 27.8864 27.8927 21.6264 27.8927 13.9464C27.8927 6.2464 21.6427 -0.0036 13.9427 -0.0036C6.2627 -0.0036 0.0027 6.2464 0.0027 13.9464C0.0027 21.6264 6.2627 27.8864 13.9427 27.8864ZM9.2527 19.7264C8.7927 19.7264 8.4627 19.3964 8.4627 18.9064V8.3764C8.4627 7.8864 8.7927 7.5564 9.2527 7.5564C9.7027 7.5564 10.0227 7.9064 10.0227 8.3964V14.8764H10.0627L13.4427 11.1964C13.5927 11.0164 13.8327 10.8964 14.0527 10.8964C14.4527 10.8964 14.7527 11.2064 14.7527 11.5664C14.7527 11.8164 14.6427 11.9364 14.4627 12.1264L11.9627 14.7664L14.6427 18.4864C14.7827 18.6664 14.8727 18.8364 14.8727 19.0464C14.8727 19.4364 14.5327 19.7264 14.1227 19.7264C13.8227 19.7264 13.6027 19.5764 13.4227 19.3364L10.8527 15.7364L10.0227 16.5464V18.9064C10.0227 19.3964 9.7027 19.7264 9.2527 19.7264ZM17.2027 19.7264C16.7227 19.7264 16.4427 19.4164 16.4427 18.9064V11.6764C16.4427 11.2364 16.7627 10.8964 17.1727 10.8964C17.5727 10.8964 17.8827 11.2364 17.8827 11.6764V12.5964H17.9627C18.1727 11.6764 18.8027 10.8964 19.7027 10.8964C20.2227 10.8964 20.6127 11.1864 20.6127 11.6864C20.6127 11.9364 20.5127 12.1264 20.3127 12.2264C20.1127 12.3564 19.8227 12.3864 19.5327 12.3864C18.3327 12.3864 17.9527 13.4964 17.9527 14.4964V18.9064C17.9527 19.5264 17.5527 19.7264 17.2027 19.7264Z"
        fillRule="evenodd"
        clipRule="evenodd"
    />
</svg>
        