<svg viewBox="0 0 27.5078125 26.837890625" xmlns="http://www.w3.org/2000/svg"><path d="M6.0427 26.4279C7.0927 26.4279 8.1727 26.0679 9.1427 25.4279C10.2427 26.2479 11.7027 26.8379 13.7527 26.8379C15.8027 26.8379 17.2527 26.2479 18.3627 25.4279C19.3327 26.0679 20.4127 26.4279 21.4627 26.4279C25.1027 26.4279 27.5127 24.1279 27.5127 20.6679C27.5127 17.3779 25.1327 14.9179 21.5027 14.5179C20.2627 11.2679 19.2727 7.6879 18.4827 4.2479C17.8527 1.4779 16.2927 -0.0021 13.7527 -0.0021C11.2127 -0.0021 9.6527 1.4779 9.0227 4.2479C8.2327 7.6879 7.2427 11.2679 6.0027 14.5179C2.3827 14.9179 0.0027 17.3779 0.0027 20.6679C0.0027 24.1279 2.4027 26.4279 6.0427 26.4279ZM8.1627 21.9279C7.5427 21.2579 7.1227 20.8679 6.3827 20.8679C5.3427 20.8679 4.7727 21.6279 4.7727 22.4179C4.7727 23.2179 5.4027 23.9779 6.4827 23.9779C6.8327 23.9779 7.1527 23.8879 7.4227 23.7079C7.5027 23.7979 7.5727 23.8879 7.6527 23.9779C7.1527 24.2179 6.6127 24.3379 6.0527 24.3379C3.8927 24.3379 2.2827 22.8779 2.2827 20.8079C2.2827 17.8179 4.7827 16.3079 7.6427 16.7479C9.2927 13.1079 10.1427 8.7179 11.0927 4.7979C11.5027 3.1179 12.2627 2.1979 13.7527 2.1979C15.2427 2.1979 16.0127 3.1179 16.4027 4.7979C17.3627 8.7179 18.2127 13.1079 19.8627 16.7479C22.7227 16.3079 25.2227 17.8179 25.2227 20.8079C25.2227 22.8779 23.6127 24.3379 21.4527 24.3379C20.8927 24.3379 20.3527 24.2179 19.8527 23.9779C19.9327 23.8879 20.0027 23.7979 20.0727 23.7079C20.3527 23.8879 20.6727 23.9779 21.0127 23.9779C22.1027 23.9779 22.7327 23.2179 22.7327 22.4179C22.7327 21.6279 22.1527 20.8679 21.1227 20.8679C20.3827 20.8679 19.9627 21.2579 19.3427 21.9279C17.6527 23.7479 16.1227 24.5379 13.7527 24.5379C11.3927 24.5379 9.8427 23.7579 8.1627 21.9279Z" /></svg>