
<svg
    viewBox={0 0 27.5078125 26.427734375}
    xmlns="http://www.w3.org/2000/svg"
>
    <path
        fill="inherit"
        d="M0.0027 20.6679C0.0027 24.1279 2.4027 26.4279 6.0427 26.4279C7.1527 26.4279 8.3427 26.0479 9.1027 25.4679C8.5127 25.0479 8.0127 24.5779 7.3027 23.6979C6.9827 23.8279 6.5627 23.9279 6.1427 23.9279C5.0027 23.9279 4.2427 23.2679 4.2427 22.3379C4.2427 21.4479 4.8927 20.8379 5.8827 20.8379C6.7427 20.8379 7.3327 21.3379 7.9727 22.0479C9.3627 23.5679 10.6927 25.3379 13.7527 25.3379C16.8127 25.3379 18.1427 23.5679 19.5327 22.0479C20.1827 21.3379 20.7627 20.8379 21.6327 20.8379C22.6027 20.8379 23.2727 21.4479 23.2727 22.3379C23.2727 23.2679 22.5027 23.9279 21.3527 23.9279C20.9427 23.9279 20.5227 23.8279 20.1927 23.6979C19.4927 24.5779 18.9927 25.0479 18.4027 25.4679C19.1727 26.0479 20.3527 26.4279 21.4627 26.4279C25.1027 26.4279 27.5127 24.1279 27.5127 20.6679C27.5127 17.3779 25.1327 14.9179 21.5027 14.5179C20.1227 11.2679 19.1427 7.6879 18.3427 4.2479C17.7227 1.4779 16.2927 -0.0021 13.7527 -0.0021C11.2127 -0.0021 9.7927 1.4779 9.1627 4.2479C8.3627 7.6879 7.3827 11.2679 6.0027 14.5179C2.3827 14.9179 0.0027 17.3779 0.0027 20.6679Z"
        fillRule="evenodd"
        clipRule="evenodd"
    />
</svg>
        