
<svg
    viewBox={0 0 27.890625 27.890625}
    xmlns="http://www.w3.org/2000/svg"
>
    <path
        fill="inherit"
        d="M13.9427 27.8864C21.6427 27.8864 27.8927 21.6464 27.8927 13.9464C27.8927 6.2464 21.6427 -0.0036 13.9427 -0.0036C6.2527 -0.0036 0.0027 6.2464 0.0027 13.9464C0.0027 21.6464 6.2527 27.8864 13.9427 27.8864ZM13.9427 2.3264C20.3727 2.3264 25.5627 7.5164 25.5627 13.9464C25.5627 16.7864 24.5527 19.3964 22.8627 21.4064L6.4827 5.0264C8.4927 3.3364 11.1027 2.3264 13.9427 2.3264ZM13.9427 25.5664C7.5227 25.5664 2.3227 20.3664 2.3227 13.9464C2.3227 11.1064 3.3327 8.5064 5.0127 6.4964L21.3927 22.8764C19.3827 24.5564 16.7927 25.5664 13.9427 25.5664Z"
        fillRule="evenodd"
        clipRule="evenodd"
    />
</svg>
        