
<svg
    viewBox={0 0 25.2109375 25.2109375}
    xmlns="http://www.w3.org/2000/svg"
>
    <path
        fill="inherit"
        d="M23.6137 1.6166C22.2137 0.2166 20.2437 -0.0034 17.9137 -0.0034H7.2637C4.9637 -0.0034 2.9937 0.2166 1.6037 1.6166C0.2037 3.0066 0.0037 4.9666 0.0037 7.2566V17.9066C0.0037 20.2466 0.2037 22.2066 1.6037 23.5966C2.9937 24.9966 4.9637 25.2066 7.2837 25.2066H17.9137C20.2437 25.2066 22.2137 24.9966 23.6137 23.5966C25.0037 22.2066 25.2137 20.2466 25.2137 17.9066V7.2866C25.2137 4.9466 25.0037 3.0066 23.6137 1.6166ZM23.0137 6.9166V18.2966C23.0137 19.6966 22.8337 21.1666 21.9937 21.9866C21.1737 22.8166 19.7037 23.0066 18.2937 23.0066H6.9137C5.5137 23.0066 4.0337 22.8166 3.2037 21.9866C2.3837 21.1666 2.2037 19.6966 2.2037 18.2966V6.9566C2.2037 5.5066 2.3837 4.0466 3.2037 3.2166C4.0337 2.3966 5.5237 2.1966 6.9637 2.1966H18.2937C19.7037 2.1966 21.1737 2.3966 21.9937 3.2266C22.8337 4.0466 23.0137 5.5066 23.0137 6.9166ZM12.6037 19.9366C16.6637 19.9366 19.9337 16.6566 19.9337 12.6066C19.9337 8.5566 16.6637 5.2766 12.6037 5.2766C8.5537 5.2766 5.2937 8.5566 5.2937 12.6066C5.2937 16.6566 8.5537 19.9366 12.6037 19.9366ZM12.6237 7.2566C15.5837 7.2566 17.9637 9.6566 17.9637 12.6066C17.9637 13.7166 17.6337 14.7366 17.0637 15.5966L9.6437 8.1766C10.4837 7.5966 11.5137 7.2566 12.6237 7.2566ZM12.6237 17.9466C9.6637 17.9466 7.2837 15.5566 7.2837 12.6066C7.2837 11.4966 7.6137 10.4866 8.1737 9.6366L15.6037 17.0466C14.7537 17.6066 13.7237 17.9466 12.6237 17.9466Z"
        fillRule="evenodd"
        clipRule="evenodd"
    />
</svg>
        