
<svg
    viewBox={0 0 19.03125 19.553723448993047}
    xmlns="http://www.w3.org/2000/svg"
>
    <path
        fill="inherit"
        d="M2.5037 19.2996C3.1037 19.7296 3.8737 19.6096 4.3037 18.9896L6.9737 15.3496H17.8137C18.4737 15.3496 19.0337 14.8096 19.0337 14.1396C19.0337 13.4696 18.4737 12.9096 17.8137 12.9096H8.7737L13.3337 6.7096H17.8137C18.4737 6.7096 19.0337 6.1496 19.0337 5.4796C19.0337 4.8096 18.4737 4.2696 17.8137 4.2696H15.1237L16.8037 1.9696C17.2137 1.4196 17.1137 0.6796 16.5137 0.2696C15.9037 -0.1504 15.2437 -0.1104 14.7237 0.5996L12.0337 4.2696H1.2137C0.5637 4.2696 0.0037 4.8096 0.0037 5.4796C0.0037 6.1496 0.5637 6.7096 1.2137 6.7096H10.2437L5.6837 12.9096H1.2137C0.5637 12.9096 0.0037 13.4696 0.0037 14.1396C0.0037 14.8096 0.5637 15.3496 1.2137 15.3496H3.8937L2.3237 17.4996C1.8737 18.1296 1.8437 18.8696 2.5037 19.2996Z"
        fillRule="evenodd"
        clipRule="evenodd"
    />
</svg>
        