
<svg
    viewBox="0 0 27.890625 27.890625"
    xmlns="http://www.w3.org/2000/svg"
>
    <path
        fill="inherit"
        d="M13.9427 27.8864C21.6427 27.8864 27.8927 21.6464 27.8927 13.9464C27.8927 6.2464 21.6427 -0.0036 13.9427 -0.0036C6.2527 -0.0036 0.0027 6.2464 0.0027 13.9464C0.0027 21.6464 6.2527 27.8864 13.9427 27.8864ZM13.9427 25.5664C7.5227 25.5664 2.3227 20.3664 2.3227 13.9464C2.3227 7.5164 7.5227 2.3264 13.9427 2.3264C20.3727 2.3264 25.5627 7.5164 25.5627 13.9464C25.5627 20.3664 20.3727 25.5664 13.9427 25.5664ZM9.3527 20.2364C9.9027 20.6464 10.4827 20.4564 10.8927 19.8964L12.6227 17.5264H19.0727C19.7727 17.5264 20.2627 17.1864 20.2627 16.5064C20.2627 15.8064 19.7927 15.4464 19.0727 15.4464H14.1527L16.3227 12.4864H19.0727C19.7727 12.4864 20.2627 12.1364 20.2627 11.4464C20.2627 10.7464 19.7927 10.3864 19.0727 10.3864H17.8527L18.6327 9.3064C19.0627 8.7364 19.0727 8.1464 18.5127 7.7364C17.9527 7.3264 17.3927 7.4764 16.9627 8.0664L15.2627 10.3864H8.7727C8.0527 10.3864 7.5927 10.7464 7.5927 11.4464C7.5927 12.1364 8.0827 12.4864 8.7727 12.4864H13.7227L11.5527 15.4464H8.7727C8.0527 15.4464 7.5927 15.8064 7.5927 16.5064C7.5927 17.1864 8.0827 17.5264 8.7727 17.5264H10.0227L9.2027 18.6464C8.7727 19.2364 8.7927 19.8264 9.3527 20.2364Z"
        fillRule="evenodd"
        clipRule="evenodd"
    />
</svg>
        