
<svg
    viewBox={0 0 25.169921875 25.169921875}
    xmlns="http://www.w3.org/2000/svg"
>
    <path
        fill="inherit"
        d="M4.2937 25.1692H20.8737C23.7437 25.1692 25.1737 23.7592 25.1737 20.9492V4.2392C25.1737 1.4192 23.7437 -0.0008 20.8737 -0.0008H4.2937C1.4337 -0.0008 0.0037 1.4192 0.0037 4.2392V20.9492C0.0037 23.7592 1.4337 25.1692 4.2937 25.1692ZM17.8837 14.1092C18.6337 14.1092 19.1237 14.4892 19.1237 15.2192C19.1237 15.9292 18.6037 16.2792 17.8837 16.2792H11.2337L9.4637 18.7192C9.0337 19.3092 8.4337 19.4992 7.8637 19.0692C7.2837 18.6492 7.2637 18.0292 7.7137 17.4292L8.5337 16.2792H7.2837C6.5637 16.2792 6.0437 15.9292 6.0437 15.2192C6.0437 14.4892 6.5337 14.1092 7.2837 14.1092H10.1337L12.3737 11.0692H7.2837C6.5637 11.0692 6.0437 10.7192 6.0437 9.9892C6.0437 9.2692 6.5337 8.8992 7.2837 8.8992H13.9637L15.7237 6.5092C16.1637 5.8892 16.7337 5.7392 17.3237 6.1692C17.9137 6.5892 17.8937 7.2092 17.4637 7.7892L16.6537 8.8992H17.8837C18.6337 8.8992 19.1237 9.2692 19.1237 9.9892C19.1237 10.7192 18.6037 11.0692 17.8837 11.0692H15.0637L12.8237 14.1092Z"
        fillRule="evenodd"
        clipRule="evenodd"
    />
</svg>
        