<svg viewBox="0 0 41.740234375 20.234375" xmlns="http://www.w3.org/2000/svg"><path d="M13.2037 19.932H24.5637C25.2537 19.932 25.7037 19.492 25.7037 18.842C25.7037 18.182 25.2537 17.732 24.5637 17.732H15.4637V17.662L20.8037 12.432C24.0337 9.272 25.0237 7.632 25.0237 5.542C25.0237 2.392 22.2437 0.002 18.5437 0.002C15.6237 0.002 13.1437 1.582 12.3037 3.992C12.1437 4.442 12.0737 4.842 12.0737 5.182C12.0737 5.862 12.4837 6.312 13.1537 6.312C13.7937 6.312 14.0637 6.012 14.2737 5.332C14.3837 4.912 14.5337 4.512 14.7537 4.172C15.4737 2.942 16.8337 2.172 18.5437 2.172C20.7437 2.172 22.5137 3.732 22.5137 5.672C22.5137 7.242 21.8637 8.302 19.1637 10.982L12.7737 17.372C12.1937 17.942 12.0037 18.292 12.0037 18.782C12.0037 19.492 12.4837 19.932 13.2037 19.932ZM34.5537 20.232C38.7337 20.232 41.7437 17.792 41.7437 14.452C41.7437 11.742 39.7837 9.962 36.6837 9.762V9.712C39.2837 9.272 40.8937 7.532 40.8937 5.102C40.8937 2.142 38.2137 0.002 34.4837 0.002C31.6637 0.002 29.3937 1.242 28.4237 3.282C28.1637 3.792 28.0537 4.252 28.0537 4.782C28.0537 5.432 28.4937 5.862 29.1237 5.862C29.7337 5.862 30.0137 5.602 30.2137 4.972C30.8037 3.182 32.3237 2.162 34.3937 2.162C36.8437 2.162 38.4137 3.442 38.4137 5.412C38.4137 7.462 36.7337 8.822 34.2937 8.822H32.7837C32.1337 8.822 31.7037 9.212 31.7037 9.842C31.7037 10.462 32.1337 10.872 32.7837 10.872H34.3137C37.3537 10.872 39.1537 12.152 39.1537 14.442C39.1537 16.542 37.2737 18.022 34.5637 18.022C32.1937 18.022 30.5137 16.982 29.9037 15.172C29.6837 14.592 29.3537 14.312 28.7637 14.312C28.0637 14.312 27.6037 14.762 27.6037 15.472C27.6037 15.952 27.7237 16.392 27.9837 16.872C29.1237 19.032 31.5037 20.232 34.5537 20.232ZM6.9737 20.212C7.7237 20.212 8.2137 19.712 8.2137 18.962V1.492C8.2137 0.602 7.6537 0.112 6.8037 0.112C6.1837 0.112 5.8337 0.302 5.2637 0.672L0.7137 3.622C0.1737 3.982 0.0037 4.292 0.0037 4.742C0.0037 5.302 0.4137 5.712 1.0137 5.712C1.3837 5.712 1.5537 5.602 1.8037 5.442L5.7037 2.992H5.7537V18.962C5.7537 19.712 6.2237 20.212 6.9737 20.212Z" /></svg>