
<svg
    viewBox={0 0 32.23828125 25.169921875}
    xmlns="http://www.w3.org/2000/svg"
>
    <path
        fill="inherit"
        d="M4.2937 25.1692H27.9437C30.8137 25.1692 32.2337 23.7592 32.2337 20.9492V4.2392C32.2337 1.4192 30.8137 -0.0008 27.9437 -0.0008H4.2937C1.4337 -0.0008 0.0037 1.4192 0.0037 4.2392V20.9492C0.0037 23.7592 1.4337 25.1692 4.2937 25.1692ZM4.3237 22.9692C2.9537 22.9692 2.2037 22.2392 2.2037 20.8192V4.3592C2.2037 2.9392 2.9537 2.1992 4.3237 2.1992H27.9137C29.2737 2.1992 30.0337 2.9392 30.0337 4.3592V20.8192C30.0337 22.2392 29.2737 22.9692 27.9137 22.9692ZM23.7937 18.1792C26.2537 18.1792 27.9037 16.8992 27.9037 14.9592C27.9037 13.5492 26.8537 12.4392 25.4137 12.2892V12.2592C26.6037 12.0692 27.5237 10.9792 27.5237 9.7192C27.5237 8.0492 26.0037 6.8492 23.8837 6.8492C21.9537 6.8492 20.4937 7.7792 20.1637 9.1892C20.1437 9.3692 20.1237 9.4792 20.1237 9.6692C20.1237 10.1192 20.4537 10.4492 20.9437 10.4492C21.3737 10.4492 21.6337 10.2492 21.7637 9.8292C22.0237 8.9092 22.8037 8.3992 23.8537 8.3992C25.0237 8.3992 25.7537 8.9792 25.7537 9.9292C25.7537 10.8992 24.9237 11.6092 23.8037 11.6092H23.0537C22.6237 11.6092 22.3137 11.9092 22.3137 12.3492C22.3137 12.7792 22.6237 13.0992 23.0537 13.0992H23.8837C25.2137 13.0992 26.1237 13.8092 26.1237 14.8892C26.1237 15.9392 25.1937 16.6492 23.8137 16.6492C22.6837 16.6492 21.8737 16.1292 21.5637 15.1992C21.3837 14.7892 21.1337 14.5992 20.7237 14.5992C20.2237 14.5992 19.9037 14.9392 19.9037 15.4192C19.9037 15.5892 19.9237 15.6692 19.9437 15.8292C20.2437 17.2092 21.8637 18.1792 23.7937 18.1792ZM11.9537 18.0092H18.0837C18.5537 18.0092 18.8837 17.6592 18.8837 17.1992C18.8837 16.7392 18.5537 16.4192 18.0837 16.4192H13.7137V16.3692L16.5437 13.3292C17.6137 12.1792 18.3637 11.2392 18.3637 9.9292C18.3637 8.0792 16.8937 6.8592 14.6837 6.8592C13.0037 6.8592 11.4837 7.8892 11.1037 9.2692C11.0637 9.4592 11.0337 9.5792 11.0337 9.7492C11.0337 10.2092 11.3337 10.5292 11.8237 10.5292C12.2537 10.5292 12.4837 10.2692 12.6837 9.9292C12.9737 9.1892 13.6137 8.4192 14.7637 8.4192C15.8837 8.4192 16.6437 9.0792 16.6437 10.0592C16.6437 10.9092 15.9237 11.6492 15.2337 12.3892L11.4037 16.4992C11.1937 16.7092 11.0837 16.9292 11.0837 17.2092C11.0837 17.6892 11.4337 18.0092 11.9537 18.0092ZM8.0537 18.1692C8.6537 18.1692 8.9937 17.7892 8.9937 17.1492V7.9192C8.9937 7.2492 8.6237 6.8792 8.0137 6.8792C7.5637 6.8792 7.2737 6.9892 6.7637 7.3392L4.5837 8.8192C4.3237 8.9992 4.2237 9.1892 4.2237 9.4592C4.2237 9.8292 4.5237 10.1492 4.8637 10.1492C5.0437 10.1492 5.1837 10.1192 5.4737 9.9092L7.0237 8.8892H7.1537V17.1492C7.1537 17.7692 7.4937 18.1692 8.0537 18.1692Z"
        fillRule="evenodd"
        clipRule="evenodd"
    />
</svg>
        