<svg viewBox="0 0 24.513671875 26.6328125" xmlns="http://www.w3.org/2000/svg"><path d="M1.0237 18.9765H5.1937L3.9537 25.1565C3.9237 25.2965 3.8937 25.4565 3.8937 25.5965C3.8937 26.2665 4.3637 26.6365 5.0137 26.6365C5.6737 26.6365 6.1537 26.2765 6.2937 25.6065L7.6337 18.9765H14.0937L12.8337 25.1565C12.8137 25.2965 12.7937 25.4565 12.7937 25.5965C12.7937 26.2665 13.2637 26.6365 13.9037 26.6365C14.5737 26.6365 15.0437 26.2765 15.1737 25.6065L16.5137 18.9765H21.3937C22.1337 18.9765 22.6637 18.4265 22.6637 17.6865C22.6637 17.0865 22.2437 16.5965 21.6437 16.5965H16.9937L18.4537 9.3765H23.2437C23.9937 9.3765 24.5137 8.8365 24.5137 8.0965C24.5137 7.4965 24.1037 6.9965 23.4837 6.9965H18.9337L20.0537 1.4865C20.0737 1.4065 20.0937 1.2265 20.0937 1.0565C20.0937 0.3865 19.6037 -0.0035 18.9637 -0.0035C18.1837 -0.0035 17.8437 0.4265 17.7237 1.0665L16.5137 6.9965H10.0537L11.1537 1.4865C11.1837 1.4065 11.2137 1.2265 11.2137 1.0565C11.2137 0.3865 10.7237 -0.0035 10.0637 -0.0035C9.2937 -0.0035 8.9437 0.4265 8.8137 1.0665L7.6137 6.9965H3.1137C2.3837 6.9965 1.8437 7.5765 1.8437 8.3265C1.8437 8.9365 2.2737 9.3765 2.8737 9.3765H7.1337L5.6737 16.5965H1.2737C0.5237 16.5965 0.0037 17.1765 0.0037 17.9265C0.0037 18.5365 0.4137 18.9765 1.0237 18.9765ZM8.1037 16.5965L9.5737 9.3765H16.0337L14.5737 16.5965Z" /></svg>