<svg viewBox="0 0 25.169921875 25.169921875" xmlns="http://www.w3.org/2000/svg"><path d="M4.2937 25.1692H20.8737C23.7437 25.1692 25.1737 23.7592 25.1737 20.9492V4.2392C25.1737 1.4192 23.7437 -0.0008 20.8737 -0.0008H4.2937C1.4337 -0.0008 0.0037 1.4192 0.0037 4.2392V20.9492C0.0037 23.7592 1.4337 25.1692 4.2937 25.1692ZM8.9737 19.4692C8.3837 19.4692 7.9537 18.9792 8.0637 18.3892L8.6537 15.6092H7.3737C6.9037 15.6092 6.5637 15.2692 6.5637 14.7792C6.5637 14.2492 6.9637 13.8392 7.5237 13.8392H9.0237L9.6137 10.9792H8.3837C7.9037 10.9792 7.5637 10.6192 7.5637 10.1492C7.5637 9.5992 7.9737 9.1892 8.5137 9.1892H10.0037L10.5937 6.2992C10.7037 5.7692 11.0637 5.4792 11.6337 5.4792C12.2137 5.4792 12.6237 5.9892 12.4937 6.5592L11.9637 9.1892H14.5737L15.1937 6.2992C15.3037 5.7692 15.6537 5.4792 16.2037 5.4792C16.7937 5.4792 17.2137 5.9792 17.1037 6.5592L16.5437 9.1892H17.8037C18.2637 9.1892 18.6037 9.5392 18.6037 10.0192C18.6037 10.5692 18.2137 10.9792 17.6537 10.9792H16.1737L15.5737 13.8392H16.8037C17.2637 13.8392 17.6137 14.1892 17.6137 14.6692C17.6137 15.1992 17.2137 15.6092 16.6537 15.6092H15.1937L14.5637 18.6592C14.4537 19.1792 14.0837 19.4692 13.5037 19.4692C12.9337 19.4692 12.5237 18.9792 12.6437 18.3892L13.2237 15.6292H10.6137L9.9637 18.6592C9.8537 19.1792 9.5137 19.4692 8.9737 19.4692ZM10.8537 13.9992H13.6837L14.3537 10.8292H11.5137Z" /></svg>