<svg viewBox="0 0 26.03125 19.810546875" xmlns="http://www.w3.org/2000/svg"><path d="M21.2737 9.3538C24.0737 9.3538 26.0337 7.4338 26.0337 4.6738C26.0337 1.9238 24.0737 0.0038 21.2737 0.0038C18.5537 0.0038 16.6637 1.9238 16.6637 4.6738C16.6637 7.4338 18.5637 9.3538 21.2737 9.3538ZM1.1637 19.8138C1.9037 19.8138 2.3337 19.3438 2.3337 18.6038V4.4038L12.1237 18.8938C12.6037 19.5738 12.9737 19.8138 13.5737 19.8138C14.3737 19.8138 14.8337 19.3138 14.8337 18.4738V1.2938C14.8337 0.5438 14.3937 0.0638 13.6537 0.0638C12.9437 0.0638 12.4937 0.5438 12.4937 1.2938V15.4938L2.7037 0.9838C2.2237 0.2838 1.8837 0.0638 1.2537 0.0638C0.4937 0.0638 0.0037 0.6038 0.0037 1.4038V18.6038C0.0037 19.3438 0.4637 19.8138 1.1637 19.8138ZM21.2737 7.5338C19.8237 7.5338 18.8137 6.3538 18.8137 4.6738C18.8137 2.9938 19.8237 1.8338 21.2737 1.8338C22.8137 1.8338 23.8737 2.9938 23.8737 4.6738C23.8737 6.3538 22.8037 7.5338 21.2737 7.5338ZM18.0037 12.7738H24.7037C25.3637 12.7738 25.8637 12.3638 25.8637 11.6938C25.8637 11.0238 25.3637 10.5838 24.7037 10.5838H18.0037C17.3537 10.5838 16.8737 11.0238 16.8737 11.6938C16.8737 12.3638 17.3537 12.7738 18.0037 12.7738Z" /></svg>