
<svg
    viewBox={0 0 27.890625 27.890625}
    xmlns="http://www.w3.org/2000/svg"
>
    <path
        fill="inherit"
        d="M13.9427 27.8864C21.6427 27.8864 27.8927 21.6264 27.8927 13.9464C27.8927 6.2464 21.6427 -0.0036 13.9427 -0.0036C6.2627 -0.0036 0.0027 6.2464 0.0027 13.9464C0.0027 21.6264 6.2627 27.8864 13.9427 27.8864ZM13.9427 20.5664C10.3527 20.5664 7.8427 17.7964 7.8427 13.8264C7.8427 9.8264 10.3527 7.0664 13.9427 7.0664C17.5527 7.0664 20.0527 9.8264 20.0527 13.8264C20.0527 17.7964 17.5527 20.5664 13.9427 20.5664ZM13.9427 18.7864C16.2727 18.7864 17.7827 16.8164 17.7827 13.8264C17.7827 10.8164 16.2727 8.8464 13.9427 8.8464C11.6227 8.8464 10.1027 10.8164 10.1027 13.8264C10.1027 16.8164 11.6227 18.7864 13.9427 18.7864Z"
        fillRule="evenodd"
        clipRule="evenodd"
    />
</svg>
        