
<svg
    viewBox="0 0 27.890625 27.890625"
    xmlns="http://www.w3.org/2000/svg"
>
    <path
        fill="inherit"
        d="M13.9427 27.8864C21.6427 27.8864 27.8927 21.6464 27.8927 13.9464C27.8927 6.2464 21.6427 -0.0036 13.9427 -0.0036C6.2527 -0.0036 0.0027 6.2464 0.0027 13.9464C0.0027 21.6464 6.2527 27.8864 13.9427 27.8864ZM13.9427 25.5664C7.5227 25.5664 2.3227 20.3664 2.3227 13.9464C2.3227 7.5164 7.5227 2.3264 13.9427 2.3264C20.3727 2.3264 25.5627 7.5164 25.5627 13.9464C25.5627 20.3664 20.3727 25.5664 13.9427 25.5664ZM13.9327 20.3564C17.4327 20.3564 19.8527 17.6764 19.8527 13.8264C19.8527 9.9564 17.4327 7.2764 13.9327 7.2764C10.4427 7.2764 8.0227 9.9564 8.0227 13.8264C8.0227 17.6764 10.4427 20.3564 13.9327 20.3564ZM13.9327 18.6364C11.6727 18.6364 10.2027 16.7364 10.2027 13.8264C10.2027 10.8964 11.6727 8.9964 13.9327 8.9964C16.1827 8.9964 17.6627 10.8964 17.6627 13.8264C17.6627 16.7364 16.1827 18.6364 13.9327 18.6364Z"
        fillRule="evenodd"
        clipRule="evenodd"
    />
</svg>
        