
<svg
    viewBox={0 0 25.169921875 25.169921875}
    xmlns="http://www.w3.org/2000/svg"
>
    <path
        fill="inherit"
        d="M4.2937 25.1692H20.8737C23.7437 25.1692 25.1737 23.7592 25.1737 20.9492V4.2392C25.1737 1.4192 23.7437 -0.0008 20.8737 -0.0008H4.2937C1.4337 -0.0008 0.0037 1.4192 0.0037 4.2392V20.9492C0.0037 23.7592 1.4337 25.1692 4.2937 25.1692ZM12.5937 19.1992C8.9937 19.1992 6.4937 16.4292 6.4937 12.4592C6.4937 8.4592 8.9937 5.6992 12.5937 5.6992C16.2037 5.6992 18.7037 8.4592 18.7037 12.4592C18.7037 16.4292 16.2037 19.1992 12.5937 19.1992ZM12.5937 17.4192C14.9137 17.4192 16.4337 15.4492 16.4337 12.4592C16.4337 9.4492 14.9137 7.4792 12.5937 7.4792C10.2637 7.4792 8.7537 9.4492 8.7537 12.4592C8.7537 15.4492 10.2637 17.4192 12.5937 17.4192Z"
        fillRule="evenodd"
        clipRule="evenodd"
    />
</svg>
        