
<svg
    viewBox="0 0 25.169921875 25.169921875"
    xmlns="http://www.w3.org/2000/svg"
>
    <path
        fill="inherit"
        d="M4.2937 25.1692H20.8737C23.7437 25.1692 25.1737 23.7592 25.1737 20.9492V4.2392C25.1737 1.4192 23.7437 -0.0008 20.8737 -0.0008H4.2937C1.4337 -0.0008 0.0037 1.4192 0.0037 4.2392V20.9492C0.0037 23.7592 1.4337 25.1692 4.2937 25.1692ZM4.3237 22.9692C2.9537 22.9692 2.2037 22.2392 2.2037 20.8192V4.3592C2.2037 2.9392 2.9537 2.1992 4.3237 2.1992H20.8537C22.2037 2.1992 22.9737 2.9392 22.9737 4.3592V20.8192C22.9737 22.2392 22.2037 22.9692 20.8537 22.9692ZM12.5937 18.9892C16.0937 18.9892 18.5137 16.3092 18.5137 12.4592C18.5137 8.5892 16.0937 5.9092 12.5937 5.9092C9.1037 5.9092 6.6837 8.5892 6.6837 12.4592C6.6837 16.3092 9.1037 18.9892 12.5937 18.9892ZM12.5937 17.2692C10.3337 17.2692 8.8637 15.3692 8.8637 12.4592C8.8637 9.5292 10.3337 7.6292 12.5937 7.6292C14.8437 7.6292 16.3237 9.5292 16.3237 12.4592C16.3237 15.3692 14.8437 17.2692 12.5937 17.2692Z"
        fillRule="evenodd"
        clipRule="evenodd"
    />
</svg>
        