
<svg
    viewBox="0 0 27.890625 27.890625"
    xmlns="http://www.w3.org/2000/svg"
>
    <path
        fill="inherit"
        d="M13.9427 27.8864C21.6427 27.8864 27.8927 21.6264 27.8927 13.9464C27.8927 6.2464 21.6427 -0.0036 13.9427 -0.0036C6.2627 -0.0036 0.0027 6.2464 0.0027 13.9464C0.0027 21.6264 6.2627 27.8864 13.9427 27.8864ZM20.0027 7.9864C20.2027 8.1664 20.1927 8.4464 20.0027 8.6364C19.7927 8.8464 19.4927 8.8564 19.3027 8.6364L18.9627 8.3164L14.6127 12.6564L16.0927 14.1264L17.1327 14.2964C17.6127 14.3864 18.0427 14.6264 18.5227 15.1064L21.5027 18.0564C21.9427 18.4864 21.8027 19.2464 21.1527 19.8764C20.5227 20.5364 19.7527 20.6764 19.3427 20.2364L16.3627 17.2664C15.8827 16.7764 15.6527 16.3364 15.5727 15.8564L15.4127 14.8364L13.9327 13.3464L12.4427 14.8364L12.2727 15.8564C12.1927 16.3364 11.9627 16.7764 11.4827 17.2664L8.5127 20.2364C8.0927 20.6764 7.3327 20.5364 6.7027 19.8764C6.0427 19.2464 5.9027 18.4864 6.3527 18.0564L9.3227 15.1064C9.8027 14.6264 10.2427 14.3864 10.7227 14.2964L11.7627 14.1264L13.2327 12.6564L8.8827 8.3164L8.5427 8.6364C8.3527 8.8564 8.0527 8.8464 7.8427 8.6364C7.6727 8.4464 7.6527 8.1664 7.8427 7.9864L9.2527 6.5864C9.4327 6.3864 9.7327 6.3964 9.9127 6.5864C10.1127 6.7764 10.1327 7.0864 9.9127 7.2764L9.5827 7.6264L13.9327 11.9664L18.2827 7.6264L17.9327 7.2764C17.7227 7.0864 17.7327 6.7764 17.9327 6.5864C18.1127 6.3964 18.4127 6.3864 18.6227 6.5864Z"
        fillRule="evenodd"
        clipRule="evenodd"
    />
</svg>
        