
<svg
    viewBox="0 0 27.50947211938874 24.574272451556194"
    xmlns="http://www.w3.org/2000/svg"
>
    <path
        fill="inherit"
        d="M1.0545 23.5261C2.1845 24.6461 3.5045 24.9061 4.2645 24.1161L9.4445 18.9061C10.3045 18.0761 10.7245 17.2761 10.8545 16.4361L11.1845 14.4761L13.7545 11.9061L16.3345 14.4761L16.6545 16.4361C16.7945 17.2761 17.2045 18.0761 18.0645 18.9061L23.2445 24.1161C24.0045 24.9061 25.3345 24.6461 26.4545 23.5261C27.5945 22.3961 27.8345 21.0761 27.0545 20.3161L21.8445 15.1161C21.0045 14.2761 20.2245 13.8461 19.3745 13.7261L17.4045 13.3961L14.8345 10.8261L22.6045 3.0561L23.2745 3.7261C23.5845 4.0361 24.0545 4.0161 24.3545 3.7261C24.6545 3.4161 24.6645 2.9561 24.3545 2.6461L21.9345 0.2261C21.6145 -0.0839 21.1545 -0.0739 20.8545 0.2261C20.5545 0.5361 20.5345 0.9961 20.8545 1.2961L21.5245 1.9761L13.7545 9.7461L5.9845 1.9761L6.6545 1.2961C6.9745 0.9961 6.9645 0.5361 6.6545 0.2261C6.3545 -0.0739 5.8945 -0.0839 5.5745 0.2261L3.1545 2.6461C2.8545 2.9561 2.8745 3.4161 3.1545 3.7261C3.4745 4.0161 3.9345 4.0361 4.2345 3.7261L4.9045 3.0561L12.6745 10.8261L10.1045 13.3961L8.1345 13.7261C7.3045 13.8461 6.5045 14.2761 5.6645 15.1161L0.4545 20.3161C-0.3255 21.0761 -0.0855 22.3961 1.0545 23.5261Z"
        fillRule="evenodd"
        clipRule="evenodd"
    />
</svg>
        