<svg viewBox="0 0 27.548828125 26.49609375" xmlns="http://www.w3.org/2000/svg"><path d="M9.6237 26.4991H17.9237C19.6637 26.4991 20.4837 25.9391 21.3837 24.9691L26.4137 19.3891C27.3137 18.3891 27.5537 17.7291 27.5537 16.3791V10.1291C27.5537 8.7591 27.3137 8.1191 26.4137 7.1191L21.3837 1.5491C20.4837 0.5791 19.6637 -0.0009 17.9237 -0.0009H9.6237C7.8937 -0.0009 7.0537 0.5791 6.1637 1.5491L1.1337 7.1191C0.2337 8.1191 0.0037 8.7591 0.0037 10.1291V16.3791C0.0037 17.7291 0.2337 18.3891 1.1337 19.3891L6.1637 24.9691C7.0537 25.9391 7.8937 26.4991 9.6237 26.4991ZM13.7637 2.1991H17.1837C18.5537 2.1991 18.9337 2.4891 19.7037 3.3191L24.3537 8.4491C24.8937 9.0491 25.0237 9.3891 25.0237 10.3891V16.1191C25.0237 17.1191 24.8937 17.4591 24.3537 18.0591L19.7037 23.1891C18.9337 24.0091 18.5537 24.3091 17.1837 24.3091H13.7637Z" /></svg>