
<svg
    viewBox={0 0 27.548828125 26.49609375}
    xmlns="http://www.w3.org/2000/svg"
>
    <path
        fill="inherit"
        d="M17.9237 26.4991C19.6637 26.4991 20.4837 25.9391 21.3837 24.9691L26.4137 19.3891C27.3137 18.3891 27.5537 17.7291 27.5537 16.3791V10.1291C27.5537 8.7591 27.3137 8.1191 26.4137 7.1191L21.3837 1.5491C20.4837 0.5791 19.6637 -0.0009 17.9237 -0.0009H9.6237C7.8937 -0.0009 7.0537 0.5791 6.1637 1.5491L1.1337 7.1191C0.2337 8.1191 0.0037 8.7591 0.0037 10.1291V16.3791C0.0037 17.7291 0.2337 18.3891 1.1337 19.3891L6.1637 24.9691C7.0537 25.9391 7.8937 26.4991 9.6237 26.4991ZM13.7637 2.1991V24.3091H10.3637C8.9937 24.3091 8.6037 24.0091 7.8437 23.1891L3.1837 18.0591C2.6537 17.4591 2.5337 17.1191 2.5337 16.1191V10.3891C2.5337 9.3891 2.6537 9.0491 3.1837 8.4491L7.8437 3.3191C8.6037 2.4891 8.9937 2.1991 10.3637 2.1991Z"
        fillRule="evenodd"
        clipRule="evenodd"
    />
</svg>
        