
<svg
    viewBox="0 0 28.095703125 27.04296875"
    xmlns="http://www.w3.org/2000/svg"
>
    <path
        fill="inherit"
        d="M9.8937 27.0426H18.1937C19.9337 27.0426 20.7537 26.4826 21.6537 25.5126L26.9637 19.6626C27.8537 18.6726 28.0937 18.0026 28.0937 16.6526V10.4026C28.0937 9.0326 27.8537 8.3826 26.9637 7.3926L21.6537 1.5426C20.7537 0.5726 19.9337 0.0026 18.1937 0.0026H9.8937C8.1637 0.0026 7.3237 0.5726 6.4437 1.5426L1.1337 7.3926C0.2337 8.3826 0.0037 9.0326 0.0037 10.4026V16.6526C0.0037 18.0026 0.2337 18.6726 1.1337 19.6626L6.4437 25.5126C7.3237 26.4826 8.1637 27.0426 9.8937 27.0426ZM10.6337 24.8526C9.2737 24.8526 8.8737 24.5526 8.1237 23.7326L3.1837 18.3326C2.6537 17.7326 2.5337 17.3926 2.5337 16.3926V10.6626C2.5337 9.6626 2.6537 9.3226 3.1837 8.7226L8.1237 3.3226C8.8737 2.4926 9.2737 2.2026 10.6337 2.2026H17.4637C18.8237 2.2026 19.2137 2.4926 19.9737 3.3226L24.8937 8.7226C25.4437 9.3226 25.5637 9.6626 25.5637 10.6626V16.3926C25.5637 17.3926 25.4437 17.7326 24.8937 18.3326L19.9737 23.7326C19.2137 24.5526 18.8237 24.8526 17.4637 24.8526Z"
        fillRule="evenodd"
        clipRule="evenodd"
    />
</svg>
        