
<svg
    viewBox="0 0 48.29086776662531 21.546875"
    xmlns="http://www.w3.org/2000/svg"
>
    <path
        fill="inherit"
        d="M0.7855 7.7645L7.7955 18.5545C8.6255 19.8245 9.7455 20.2745 11.4355 20.2745H23.2455C25.3255 20.2745 26.6655 19.7445 27.6155 18.5345L36.8155 6.7445L42.1255 5.3445L44.0155 6.9545C45.1355 7.9345 46.5955 6.4945 45.4655 5.4845L43.3955 3.6745C42.9555 3.2945 42.5655 3.1445 41.6855 3.3745L25.1855 7.7645L22.9455 5.5945C22.3255 5.0045 21.6755 4.8545 20.8355 4.8545H17.2255V1.9945H20.2755C20.8255 1.9945 21.2855 1.5445 21.2855 0.9945C21.2855 0.4545 20.8255 0.0045 20.2755 0.0045H12.1955C11.6455 0.0045 11.1855 0.4545 11.1855 0.9945C11.1855 1.5445 11.6455 1.9945 12.1955 1.9945H15.2355V4.8545H11.4355C11.0355 4.8545 10.6755 4.8845 10.3555 4.9445L4.2955 2.6645C1.0455 1.4345 -1.2845 4.6345 0.7855 7.7645ZM2.1055 6.2245C1.4255 5.1445 2.2155 4.0345 3.4155 4.4745L8.0255 6.2445C7.5455 6.9045 7.2855 7.8045 7.2855 8.9545V14.1945ZM9.2855 16.0645V9.0645C9.2855 7.6245 10.0555 6.8545 11.4755 6.8545H20.3455C20.9655 6.8545 21.3855 6.9045 21.8955 7.3845L23.9955 9.4245C24.3955 9.8345 24.8155 9.9545 25.4555 9.7745L33.6255 7.6145L26.5255 16.6845C25.6455 17.8045 24.6355 18.2745 23.2455 18.2745H11.4755C10.0555 18.2745 9.2855 17.5045 9.2855 16.0645ZM44.9155 21.5445C46.7555 21.5445 48.2955 20.0845 48.2955 18.2245C48.2955 17.1745 47.7755 16.1745 47.2555 15.2145L45.2255 11.4545C45.1555 11.3245 45.0355 11.2545 44.9155 11.2545C44.7655 11.2545 44.6855 11.3245 44.6155 11.4745L42.5655 15.2145C42.0555 16.1745 41.5355 17.1745 41.5355 18.2245C41.5355 20.0845 43.0555 21.5445 44.9155 21.5445Z"
        fillRule="evenodd"
        clipRule="evenodd"
    />
</svg>
        