
<svg
    viewBox={0 0 48.29086776662531 31.021484375}
    xmlns="http://www.w3.org/2000/svg"
>
    <path
        fill="inherit"
        d="M19.2655 22.085C21.7855 22.085 23.8055 20.075 23.8055 17.555C23.8055 15.805 22.7955 14.415 21.4655 13.675C20.9755 13.415 20.7555 13.005 20.7555 12.295V1.475C20.7555 0.665 20.0855 -0.005 19.2755 -0.005C18.4555 -0.005 17.8055 0.665 17.8055 1.475V12.295C17.8055 12.975 17.5555 13.375 17.0555 13.645C15.7355 14.385 14.7555 15.805 14.7555 17.555C14.7555 20.075 16.7655 22.085 19.2655 22.085ZM24.4755 2.965H27.4455C27.9155 2.965 28.2455 2.595 28.2455 2.175C28.2455 1.745 27.9155 1.365 27.4455 1.365H24.4755C23.9955 1.365 23.6655 1.745 23.6655 2.175C23.6655 2.595 23.9955 2.965 24.4755 2.965ZM24.4755 6.575H27.4455C27.9155 6.575 28.2455 6.205 28.2455 5.785C28.2455 5.355 27.9155 4.995 27.4455 4.995H24.4755C23.9955 4.995 23.6655 5.355 23.6655 5.785C23.6655 6.205 23.9955 6.575 24.4755 6.575ZM24.4755 10.185H27.4455C27.9155 10.185 28.2455 9.815 28.2455 9.395C28.2455 8.965 27.9155 8.595 27.4455 8.595H24.4755C23.9955 8.595 23.6655 8.965 23.6655 9.395C23.6655 9.815 23.9955 10.185 24.4755 10.185ZM11.4355 29.755H23.2455C25.3255 29.755 26.6655 29.235 27.6155 28.015L36.8155 16.225L42.1355 14.825L44.0155 16.435C45.1355 17.405 46.5955 15.965 45.4655 14.955L43.3955 13.155C42.9555 12.765 42.5655 12.635 41.7055 12.865L25.5955 17.135C25.6655 17.805 25.6055 18.525 25.4455 19.235L33.6255 17.085L26.5255 26.155C25.6355 27.275 24.6355 27.755 23.2455 27.755H11.4755C10.0555 27.755 9.2855 26.985 9.2855 25.535V18.535C9.2855 17.105 10.0555 16.325 11.4755 16.325H13.0155C13.1555 15.585 13.4155 14.925 13.7555 14.325H11.4355C11.0355 14.325 10.6755 14.365 10.3555 14.425L4.2955 12.145C1.0455 10.915 -1.2845 14.105 0.7855 17.245L7.7955 28.045C8.6255 29.295 9.7455 29.755 11.4355 29.755ZM7.2855 23.665L2.1255 15.705C1.4255 14.615 2.2155 13.505 3.4155 13.945L8.0255 15.725C7.5455 16.375 7.2855 17.285 7.2855 18.425ZM44.9155 31.025C46.7555 31.025 48.2955 29.555 48.2955 27.715C48.2955 26.645 47.7755 25.645 47.2555 24.695L45.2255 20.935C45.1555 20.795 45.0355 20.725 44.9155 20.725C44.7655 20.725 44.6955 20.795 44.6155 20.945L42.5655 24.695C42.0455 25.645 41.5355 26.645 41.5355 27.715C41.5355 29.555 43.0555 31.025 44.9155 31.025Z"
        fillRule="evenodd"
        clipRule="evenodd"
    />
</svg>
        