
<svg
    viewBox={0 0 33.33203125 23.4609375}
    xmlns="http://www.w3.org/2000/svg"
>
    <path
        fill="inherit"
        d="M16.6709 23.4616C25.6109 23.4616 33.3309 17.1216 33.3309 11.7316C33.3309 6.3416 25.6109 0.0016 16.6709 0.0016C7.7409 0.0016 0.0009 6.3416 0.0009 11.7316C0.0009 17.1216 7.7409 23.4616 16.6709 23.4616ZM16.6709 3.2816C22.2409 3.2816 24.9109 8.3016 24.9509 10.2416C24.9509 10.6816 24.5909 11.0516 24.1409 11.0516C23.7609 11.0516 23.4109 10.7416 23.3409 10.3916C22.6809 7.2416 19.9609 4.9216 16.6709 4.9216C15.2809 4.9216 13.9909 5.3316 12.9209 6.0616C12.7809 6.1516 12.6009 6.2116 12.4509 6.2116C11.9809 6.2116 11.6309 5.8216 11.6309 5.3616C11.6309 5.1016 11.7309 4.8516 11.9909 4.6916C13.3209 3.7916 14.9309 3.2816 16.6709 3.2816ZM16.6709 17.1316C13.6209 17.1316 11.2509 14.7216 11.2509 11.7616C11.2509 8.7616 13.8609 6.5916 15.1509 6.5916C15.5909 6.5916 15.9709 6.9416 15.9709 7.4216C15.9709 7.7216 15.7409 8.0616 15.4209 8.1616C13.9309 8.6916 12.8909 10.0616 12.8909 11.7216C12.8909 13.7516 14.5309 15.4916 16.7309 15.4916C17.6609 15.4916 18.5109 15.1616 19.1009 14.6016C19.2509 14.4516 19.4409 14.3916 19.6509 14.3916C20.0809 14.3916 20.4709 14.7516 20.4709 15.2016C20.4709 15.4316 20.3609 15.6716 20.1209 15.8616C19.2109 16.6416 18.0009 17.1316 16.6709 17.1316ZM22.0409 11.7316C22.0409 12.0416 22.0409 12.3916 22.0009 12.6416C21.9209 13.0616 21.7109 13.3816 21.1809 13.3816C20.7109 13.3816 20.3309 13.1116 20.3409 12.5516C20.3409 12.3716 20.4109 11.9516 20.4109 11.7316C20.4109 10.0616 19.3709 8.6916 17.9109 8.1616C17.5809 8.0616 17.3509 7.7216 17.3509 7.4216C17.3509 6.9416 17.7309 6.5916 18.2009 6.5916C19.4409 6.5916 22.0409 8.7116 22.0409 11.7316ZM8.2209 11.7316C8.2209 9.9916 8.7109 8.3916 9.6109 7.0416C9.7909 6.8116 10.0309 6.7016 10.2809 6.7016C10.7309 6.7016 11.1009 7.0316 11.1009 7.5016C11.1009 7.6516 11.0609 7.8316 10.9609 7.9816C10.2409 9.0516 9.8609 10.3316 9.8609 11.7316C9.8609 13.1216 10.2309 14.4216 10.9609 15.4616C11.0609 15.6116 11.1009 15.7616 11.1009 15.9416C11.1009 16.4716 10.6809 16.7516 10.2809 16.7516C10.0209 16.7516 9.7709 16.6416 9.6109 16.4016C8.7109 15.0616 8.2209 13.4516 8.2209 11.7316ZM16.6509 14.0716C15.3509 14.0716 14.3109 13.0316 14.3109 11.7316C14.3109 10.4316 15.3509 9.3916 16.6509 9.3916C17.9509 9.3916 19.0009 10.4316 19.0009 11.7316C19.0009 13.0316 17.9509 14.0716 16.6509 14.0716ZM16.6709 20.1616C14.9309 20.1616 13.3209 19.6716 11.9909 18.7716C11.7409 18.6116 11.6309 18.3616 11.6309 18.1016C11.6309 17.6516 11.9609 17.2816 12.4309 17.2816C12.5909 17.2816 12.7309 17.3216 12.8809 17.4016C13.9709 18.1516 15.2709 18.5216 16.6709 18.5216C19.9609 18.5216 22.6909 16.2116 23.3209 13.0716C23.3909 12.7116 23.7609 12.4116 24.1409 12.4116C24.5809 12.4116 24.9409 12.8016 24.9409 13.2216C24.9209 15.1216 22.2709 20.1616 16.6709 20.1616Z"
        fillRule="evenodd"
        clipRule="evenodd"
    />
</svg>
        