
<svg
    viewBox={0 0 27.91796875 25.060546875}
    xmlns="http://www.w3.org/2000/svg"
>
    <path
        fill="inherit"
        d="M7.8737 0.0045H1.2837C0.5637 0.0045 0.0037 0.5345 0.0037 1.2345C0.0037 1.9245 0.5637 2.4745 1.2837 2.4745H7.3037C7.7937 2.4745 8.1437 2.6945 8.3537 3.1445L17.3637 23.3745C17.8737 24.5245 18.7037 25.0645 19.9637 25.0645H26.6337C27.3437 25.0645 27.9137 24.5145 27.9137 23.8345C27.9137 23.1445 27.3437 22.5845 26.6337 22.5845H20.5737C20.0337 22.5845 19.6837 22.3845 19.4737 21.9345L10.5037 1.7045C10.0337 0.6445 9.0537 0.0045 7.8737 0.0045ZM26.6337 0.0045H17.7837C17.0637 0.0045 16.5037 0.5145 16.5037 1.2145C16.5037 1.9145 17.0637 2.4445 17.7837 2.4445H26.6337C27.3537 2.4445 27.9037 1.9145 27.9037 1.2145C27.9037 0.5145 27.3537 0.0045 26.6337 0.0045Z"
        fillRule="evenodd"
        clipRule="evenodd"
    />
</svg>
        