<svg viewBox="0 0 27.890625 27.890625" xmlns="http://www.w3.org/2000/svg"><path d="M17.7027 0.5564C16.5027 0.2064 15.2427 -0.0036 13.9427 -0.0036C6.2527 -0.0036 0.0027 6.2464 0.0027 13.9464C0.0027 15.2564 0.2027 16.5564 0.5727 17.7564L7.8327 15.3964C7.7127 14.9264 7.6527 14.4464 7.6527 13.9464C7.6527 10.5164 10.5127 7.6864 13.9727 7.6864C14.4327 7.6864 14.8927 7.7564 15.3227 7.8464ZM24.8427 5.2864C23.2827 3.2964 21.2327 1.7864 18.8227 0.9264L16.4427 8.2264C17.3127 8.5764 18.0927 9.1364 18.6727 9.8564ZM27.0127 9.1964C26.6427 8.1464 26.1527 7.1764 25.5527 6.2364L19.3827 10.7964C19.5327 11.0464 19.6627 11.3064 19.7427 11.5764ZM13.9427 18.8364C16.6527 18.8364 18.8427 16.6364 18.8427 13.9464C18.8427 11.2364 16.6527 9.0464 13.9427 9.0464C11.2527 9.0464 9.0527 11.2364 9.0527 13.9464C9.0527 16.6364 11.2527 18.8364 13.9427 18.8364ZM10.2627 27.3564C11.4427 27.6964 12.6827 27.8864 13.9427 27.8864C21.6427 27.8864 27.8927 21.6464 27.8927 13.9464C27.8927 12.6864 27.7127 11.4864 27.3827 10.3364L20.1127 12.6864C20.2027 13.0964 20.2527 13.5064 20.2527 13.9464C20.2527 17.4364 17.4327 20.2464 13.9627 20.2664C13.4927 20.2664 13.0527 20.2164 12.6227 20.1064ZM13.9427 17.2664C12.1027 17.2664 10.6227 15.7864 10.6227 13.9464C10.6227 12.0964 12.1027 10.6264 13.9427 10.6264C15.7927 10.6264 17.2627 12.0964 17.2627 13.9464C17.2627 15.7864 15.7927 17.2664 13.9427 17.2664ZM13.9427 15.7464C14.9427 15.7464 15.7527 14.9264 15.7527 13.9464C15.7527 12.9464 14.9427 12.1364 13.9427 12.1364C12.9427 12.1364 12.1427 12.9464 12.1427 13.9464C12.1427 14.9264 12.9427 15.7464 13.9427 15.7464ZM0.9527 18.8764C1.3427 19.8964 1.8427 20.8664 2.4327 21.7764L8.5827 17.2364C8.4527 17.0064 8.3427 16.7664 8.2327 16.5064ZM3.1627 22.7364C4.7027 24.6664 6.7927 26.1964 9.1427 26.9864L11.5027 19.7464C10.6627 19.4164 9.9027 18.8664 9.3227 18.1864Z" /></svg>