
<svg
    viewBox="0 0 33.33203125 23.4609375"
    xmlns="http://www.w3.org/2000/svg"
>
    <path
        fill="inherit"
        d="M16.6709 23.4616C25.6109 23.4616 33.3309 17.1216 33.3309 11.7316C33.3309 6.3416 25.6109 0.0016 16.6709 0.0016C7.7409 0.0016 0.0009 6.3416 0.0009 11.7316C0.0009 17.1216 7.7409 23.4616 16.6709 23.4616ZM16.6709 21.4516C8.2609 21.4516 2.0209 15.5416 2.0209 11.7316C2.0209 7.9016 8.2609 2.0116 16.6709 2.0116C25.0709 2.0116 31.3409 7.9016 31.3409 11.7316C31.3409 15.5416 25.0709 21.4516 16.6709 21.4516ZM16.6709 3.5416C14.9809 3.5416 13.4109 4.0316 12.1309 4.9116C11.8809 5.0616 11.7809 5.3016 11.7809 5.5516C11.7809 6.0016 12.1109 6.3716 12.5809 6.3716C12.7309 6.3716 12.8809 6.3116 13.0309 6.2216C14.0709 5.5216 15.3309 5.1316 16.6709 5.1316C19.8609 5.1316 22.5009 7.3816 23.1309 10.4316C23.2009 10.7716 23.5409 11.0616 23.9109 11.0616C24.3509 11.0616 24.6909 10.7016 24.6909 10.2816C24.6509 8.4116 22.0709 3.5416 16.6709 3.5416ZM16.6709 16.9716C17.9609 16.9716 19.1309 16.4916 20.0109 15.7316C20.2309 15.5416 20.3409 15.3216 20.3409 15.0916C20.3409 14.6516 19.9709 14.3116 19.5509 14.3116C19.3609 14.3116 19.1709 14.3716 19.0309 14.5216C18.4609 15.0616 17.6409 15.3816 16.7309 15.3816C14.5909 15.3816 13.0009 13.7016 13.0009 11.7216C13.0009 10.1216 14.0109 8.7916 15.4509 8.2716C15.7609 8.1716 15.9809 7.8516 15.9809 7.5616C15.9809 7.0916 15.6109 6.7516 15.1909 6.7516C13.9409 6.7516 11.4209 8.8616 11.4209 11.7616C11.4209 14.6316 13.7109 16.9716 16.6709 16.9716ZM21.8709 11.7316C21.8709 8.8016 19.3609 6.7516 18.1409 6.7516C17.7009 6.7516 17.3409 7.0916 17.3409 7.5616C17.3409 7.8516 17.5509 8.1716 17.8709 8.2716C19.2909 8.7916 20.3209 10.1216 20.3209 11.7316C20.3209 11.9516 20.2309 12.3616 20.2309 12.5216C20.2209 13.0716 20.5909 13.3316 21.0409 13.3316C21.5509 13.3316 21.7509 13.0116 21.8309 12.6216C21.8709 12.3716 21.8709 12.0316 21.8709 11.7316ZM8.4809 11.7316C8.4809 13.4016 8.9509 14.9616 9.8309 16.2516C9.9809 16.4916 10.2309 16.6016 10.4709 16.6016C10.8509 16.6016 11.2609 16.3216 11.2609 15.8216C11.2609 15.6416 11.2209 15.4916 11.1309 15.3516C10.4209 14.3416 10.0609 13.0816 10.0609 11.7316C10.0609 10.3816 10.4309 9.1316 11.1309 8.0916C11.2209 7.9616 11.2609 7.7816 11.2609 7.6316C11.2609 7.1816 10.9109 6.8516 10.4709 6.8516C10.2409 6.8516 9.9909 6.9616 9.8309 7.1916C8.9509 8.5016 8.4809 10.0516 8.4809 11.7316ZM16.6509 14.0016C17.9109 14.0016 18.9209 12.9916 18.9209 11.7316C18.9209 10.4716 17.9109 9.4616 16.6509 9.4616C15.3909 9.4616 14.3809 10.4716 14.3809 11.7316C14.3809 12.9916 15.3909 14.0016 16.6509 14.0016ZM16.6709 19.9016C22.0909 19.9016 24.6609 15.0116 24.6809 13.1816C24.6809 12.7716 24.3409 12.4016 23.9109 12.4016C23.5409 12.4016 23.1909 12.6916 23.1209 13.0316C22.5209 16.0816 19.8609 18.3216 16.6709 18.3216C15.3109 18.3216 14.0509 17.9616 12.9909 17.2416C12.8409 17.1616 12.7109 17.1216 12.5509 17.1216C12.1009 17.1216 11.7809 17.4716 11.7809 17.9116C11.7809 18.1516 11.8909 18.4016 12.1309 18.5516C13.4109 19.4316 14.9809 19.9016 16.6709 19.9016Z"
        fillRule="evenodd"
        clipRule="evenodd"
    />
</svg>
        