
<svg
    viewBox="0 0 27.890625 27.890625"
    xmlns="http://www.w3.org/2000/svg"
>
    <path
        fill="inherit"
        d="M13.9427 27.8864C21.6427 27.8864 27.8927 21.6464 27.8927 13.9464C27.8927 6.2464 21.6427 -0.0036 13.9427 -0.0036C6.2527 -0.0036 0.0027 6.2464 0.0027 13.9464C0.0027 21.6464 6.2527 27.8864 13.9427 27.8864ZM2.3227 13.9464C2.3227 7.5164 7.5227 2.3264 13.9427 2.3264C15.0027 2.3264 16.0127 2.4564 16.9827 2.7164L15.3427 7.7964C14.8927 7.6964 14.4227 7.6464 13.9427 7.6464C10.4627 7.6464 7.6427 10.4564 7.6427 13.9464C7.6427 14.4364 7.6927 14.9264 7.8027 15.3964L2.7327 17.0364C2.4727 16.0464 2.3227 15.0164 2.3227 13.9464ZM16.4627 8.1664L18.1127 3.0864C20.0427 3.8264 21.7427 5.0764 23.0127 6.6564L18.7327 9.8264C18.1127 9.1164 17.3327 8.5464 16.4627 8.1664ZM19.4027 10.7864L23.6927 7.6164C24.1727 8.3364 24.5527 9.1064 24.8527 9.9264L19.7827 11.5764C19.6727 11.3064 19.5527 11.0464 19.4027 10.7864ZM13.9427 18.8364C11.2527 18.8364 9.0527 16.6364 9.0527 13.9464C9.0527 11.2364 11.2527 9.0464 13.9427 9.0464C16.6527 9.0464 18.8427 11.2364 18.8427 13.9464C18.8427 16.6364 16.6527 18.8364 13.9427 18.8364ZM13.9427 17.2664C15.7927 17.2664 17.2627 15.7764 17.2627 13.9464C17.2627 12.0964 15.7927 10.6264 13.9427 10.6264C12.1027 10.6264 10.6227 12.0964 10.6227 13.9464C10.6227 15.7764 12.1027 17.2664 13.9427 17.2664ZM13.9427 25.5664C12.9227 25.5664 11.9327 25.4264 10.9827 25.1864L12.6327 20.1064C13.0527 20.1964 13.4927 20.2464 13.9427 20.2464C17.4327 20.2464 20.2527 17.4364 20.2527 13.9464C20.2527 13.5064 20.2027 13.0964 20.1227 12.6864L25.2127 11.0464C25.4427 11.9764 25.5627 12.9464 25.5627 13.9464C25.5627 20.3664 20.3727 25.5664 13.9427 25.5664ZM13.9427 15.7364C12.9427 15.7364 12.1527 14.9264 12.1527 13.9464C12.1527 12.9464 12.9427 12.1564 13.9427 12.1564C14.9427 12.1564 15.7327 12.9464 15.7327 13.9464C15.7327 14.9264 14.9427 15.7364 13.9427 15.7364ZM3.1127 18.1564L8.1927 16.5064C8.3027 16.7664 8.4327 17.0064 8.5727 17.2564L4.2927 20.4164C3.8127 19.7164 3.4227 18.9664 3.1127 18.1564ZM5.0027 21.3664L9.2927 18.1964C9.9127 18.8664 10.6627 19.3964 11.5127 19.7564L9.8527 24.8264C7.9427 24.1164 6.2727 22.9164 5.0027 21.3664Z"
        fillRule="evenodd"
        clipRule="evenodd"
    />
</svg>
        