
<svg
    viewBox="0 0 27.330078125 23.59765625"
    xmlns="http://www.w3.org/2000/svg"
>
    <path
        fill="inherit"
        d="M0.0037 6.6599H27.3337V2.8599C27.3337 1.1499 26.2237 -0.0001 24.5837 -0.0001H2.7437C1.1037 -0.0001 0.0037 1.1499 0.0037 2.8599ZM5.0737 4.8399C4.3737 4.8399 3.8237 4.2899 3.8237 3.6099C3.8237 2.9299 4.3737 2.3799 5.0737 2.3799C5.7437 2.3799 6.3037 2.9299 6.3037 3.6099C6.3037 4.2899 5.7437 4.8399 5.0737 4.8399ZM8.6937 4.8399C8.0137 4.8399 7.4637 4.2899 7.4637 3.6099C7.4637 2.9299 8.0137 2.3799 8.6937 2.3799C9.3837 2.3799 9.9437 2.9299 9.9437 3.6099C9.9437 4.2899 9.3837 4.8399 8.6937 4.8399ZM12.3337 4.8399C11.6337 4.8399 11.0837 4.2899 11.0837 3.6099C11.0837 2.9299 11.6337 2.3799 12.3337 2.3799C13.0037 2.3799 13.5637 2.9299 13.5637 3.6099C13.5637 4.2899 13.0037 4.8399 12.3337 4.8399ZM19.4937 4.3199C19.0737 4.3199 18.7737 4.0199 18.7737 3.5999C18.7737 3.1699 19.0737 2.8999 19.4937 2.8999H23.3137C23.7337 2.8999 24.0037 3.1699 24.0037 3.5999C24.0037 4.0199 23.7337 4.3199 23.3137 4.3199ZM2.7437 23.5999H24.5837C26.2237 23.5999 27.3337 22.4499 27.3337 20.7399V8.1799H0.0037V20.7399C0.0037 22.4499 1.1037 23.5999 2.7437 23.5999ZM4.9337 20.6199C4.1437 20.6199 3.6337 20.0999 3.6337 19.3199V11.6499C3.6337 10.8399 4.1437 10.3199 4.9337 10.3199H22.4037C23.2037 10.3199 23.7037 10.8399 23.7037 11.6499V19.3199C23.7037 20.0999 23.2037 20.6199 22.4037 20.6199ZM5.1537 13.4699H22.1937V12.2199C22.1937 11.9899 22.0437 11.8399 21.8237 11.8399H5.5237C5.3037 11.8399 5.1537 11.9899 5.1537 12.2199ZM5.5237 19.0999H21.8237C22.0437 19.0999 22.1937 18.9499 22.1937 18.7299V14.9799H5.1537V18.7299C5.1537 18.9499 5.3037 19.0999 5.5237 19.0999Z"
        fillRule="evenodd"
        clipRule="evenodd"
    />
</svg>
        