<svg viewBox="0 0 28.423828125 23.59765625" xmlns="http://www.w3.org/2000/svg"><path d="M3.2137 23.5999H25.2137C27.1437 23.5999 28.4237 22.2999 28.4237 20.3799V3.2099C28.4237 1.2999 27.1437 -0.0001 25.2137 -0.0001H3.2137C1.2837 -0.0001 0.0037 1.2999 0.0037 3.2099V20.3799C0.0037 22.2999 1.2837 23.5999 3.2137 23.5999ZM2.2037 3.3199C2.2037 2.6499 2.6137 2.1999 3.2437 2.1999H25.1937C25.8137 2.1999 26.2237 2.6499 26.2237 3.3199V6.3799H2.2037ZM6.0137 5.5099C6.6737 5.5099 7.2037 4.9799 7.2037 4.3099C7.2037 3.6499 6.6737 3.1199 6.0137 3.1199C5.3437 3.1199 4.8137 3.6499 4.8137 4.3099C4.8137 4.9799 5.3437 5.5099 6.0137 5.5099ZM9.5337 5.5099C10.2037 5.5099 10.7337 4.9799 10.7337 4.3099C10.7337 3.6499 10.2037 3.1199 9.5337 3.1199C8.8737 3.1199 8.3437 3.6499 8.3437 4.3099C8.3437 4.9799 8.8737 5.5099 9.5337 5.5099ZM13.0537 5.5099C13.7137 5.5099 14.2437 4.9799 14.2437 4.3099C14.2437 3.6499 13.7137 3.1199 13.0537 3.1199C12.3837 3.1199 11.8537 3.6499 11.8537 4.3099C11.8537 4.9799 12.3837 5.5099 13.0537 5.5099ZM19.4737 4.9999H23.1637C23.5737 4.9999 23.8437 4.7199 23.8437 4.3099C23.8437 3.8999 23.5737 3.6199 23.1637 3.6199H19.4737C19.0537 3.6199 18.7737 3.8999 18.7737 4.3099C18.7737 4.7199 19.0537 4.9999 19.4737 4.9999ZM3.2437 21.3999C2.6137 21.3999 2.2037 20.9499 2.2037 20.2799V8.1799H26.2237V20.2799C26.2237 20.9499 25.8137 21.3999 25.1937 21.3999ZM5.7537 19.6999H22.6837C23.4637 19.6999 23.9537 19.2099 23.9537 18.4299V11.0099C23.9537 10.2299 23.4637 9.7199 22.6837 9.7199H5.7537C4.9737 9.7199 4.4737 10.2299 4.4737 11.0099V18.4299C4.4737 19.2099 4.9737 19.6999 5.7537 19.6999ZM6.0037 11.6099C6.0037 11.3899 6.1537 11.2399 6.3537 11.2399H22.0837C22.2837 11.2399 22.4337 11.3899 22.4337 11.6099V12.7699H6.0037ZM6.3537 18.1799C6.1537 18.1799 6.0037 18.0299 6.0037 17.8299V14.2899H22.4337V17.8299C22.4337 18.0299 22.2837 18.1799 22.0837 18.1799Z" /></svg>