
<svg
    viewBox={0 0 25.169921875 25.169921875}
    xmlns="http://www.w3.org/2000/svg"
>
    <path
        fill="inherit"
        d="M4.2937 25.1692H20.8737C23.7437 25.1692 25.1737 23.7592 25.1737 20.9492V4.2392C25.1737 1.4192 23.7437 -0.0008 20.8737 -0.0008H4.2937C1.4337 -0.0008 0.0037 1.4192 0.0037 4.2392V20.9492C0.0037 23.7592 1.4337 25.1692 4.2937 25.1692ZM9.5737 19.0492C8.8437 19.0492 8.4537 18.5092 8.4537 17.7592V7.2992C8.4537 6.5392 8.8337 6.0192 9.5737 6.0192H13.4937C16.2237 6.0192 18.0837 7.7692 18.0837 10.3592C18.0837 12.9592 16.2537 14.6792 13.4837 14.6792H10.7237V17.7592C10.7237 18.5392 10.3237 19.0492 9.5737 19.0492ZM10.7237 12.9592H13.1837C14.8337 12.9592 15.8437 11.9592 15.8437 10.3592C15.8437 8.7492 14.8237 7.7492 13.1837 7.7492H10.7237Z"
        fillRule="evenodd"
        clipRule="evenodd"
    />
</svg>
        