
<svg
    viewBox={0 0 32.23828125 24.541015625}
    xmlns="http://www.w3.org/2000/svg"
>
    <path
        fill="inherit"
        d="M10.7737 24.5384H21.4637C29.3937 24.5384 32.2337 21.5984 32.2337 14.2884V10.2684C32.2337 2.9484 29.3937 -0.0016 21.4637 -0.0016H10.7737C2.8437 -0.0016 0.0037 2.9484 0.0037 10.2684V14.2884C0.0037 21.5984 2.8437 24.5384 10.7737 24.5384ZM10.7737 22.3384C4.3237 22.3384 2.2037 20.2484 2.2037 14.2884V10.2684C2.2037 4.3084 4.3237 2.1984 10.7737 2.1984H21.4637C27.9137 2.1984 30.0337 4.3084 30.0337 10.2684V14.2884C30.0337 20.2484 27.9137 22.3384 21.4637 22.3384ZM20.9337 17.9484C21.4637 17.9484 21.9137 17.4984 21.9137 16.9484V7.6884C21.9137 6.9884 21.4737 6.5784 20.7637 6.5784C20.1937 6.5784 19.7237 6.8884 19.4137 7.1384L17.9137 8.2984C17.6637 8.4884 17.4737 8.7484 17.4737 9.1084C17.4737 9.5284 17.7637 9.8284 18.1737 9.8284C18.3937 9.8284 18.5237 9.7584 18.6637 9.6684L19.9237 8.6584V16.9484C19.9237 17.4984 20.3737 17.9484 20.9337 17.9484ZM10.6237 17.9384C11.2837 17.9384 11.6237 17.5384 11.6237 16.9084V14.1384H13.0537C15.1437 14.1384 16.3537 12.5484 16.3537 10.4484C16.3537 8.3684 15.1737 6.7284 13.1837 6.7284H10.6137C10.0337 6.7284 9.6237 7.1084 9.6237 7.7784V16.9084C9.6237 17.5584 9.9837 17.9384 10.6237 17.9384ZM11.6237 12.5684V8.3384H12.6737C13.8237 8.3384 14.3737 9.1584 14.3737 10.4484C14.3737 11.6584 13.8737 12.5684 12.6637 12.5684Z"
        fillRule="evenodd"
        clipRule="evenodd"
    />
</svg>
        