
<svg
    viewBox="0 0 32.23828125 24.541015625"
    xmlns="http://www.w3.org/2000/svg"
>
    <path
        fill="inherit"
        d="M10.7737 24.5384H21.4637C29.3937 24.5384 32.2337 21.5984 32.2337 14.2884V10.2684C32.2337 2.9484 29.3937 -0.0016 21.4637 -0.0016H10.7737C2.8437 -0.0016 0.0037 2.9484 0.0037 10.2684V14.2884C0.0037 21.5984 2.8437 24.5384 10.7737 24.5384ZM10.7737 22.3384C4.3237 22.3384 2.2037 20.2484 2.2037 14.2884V10.2684C2.2037 4.3084 4.3237 2.1984 10.7737 2.1984H21.4637C27.9137 2.1984 30.0337 4.3084 30.0337 10.2684V14.2884C30.0337 20.2484 27.9137 22.3384 21.4637 22.3384ZM17.8937 17.7984H22.6437C23.1237 17.7984 23.4237 17.4884 23.4237 17.0084C23.4237 16.4884 23.1037 16.1984 22.6437 16.1984H19.4037V16.0884L21.3937 13.5584C22.7637 11.8684 23.2137 10.8584 23.2137 9.6484C23.2137 7.8084 21.9537 6.4684 20.0737 6.4684C18.3237 6.4684 16.9937 7.9184 16.9937 9.3384C16.9937 9.8484 17.2937 10.1984 17.8137 10.1984C18.2637 10.1984 18.5437 9.9984 18.6737 9.5384C18.9337 8.6284 19.2737 8.0484 20.0537 8.0484C20.8937 8.0484 21.3437 8.7784 21.3437 9.7484C21.3437 10.8384 20.5937 11.9484 19.8637 12.8784L17.4837 15.9184C17.2237 16.2384 16.9837 16.5884 16.9837 17.0084C16.9837 17.4684 17.2637 17.7984 17.8937 17.7984ZM9.8837 17.9384C10.5437 17.9384 10.8737 17.5384 10.8737 16.9084V14.1384H12.3137C14.4137 14.1384 15.6137 12.5484 15.6137 10.4484C15.6137 8.3684 14.4337 6.7284 12.4437 6.7284H9.8737C9.2937 6.7284 8.8837 7.1084 8.8837 7.7784V16.9084C8.8837 17.5584 9.2437 17.9384 9.8837 17.9384ZM10.8737 12.5684V8.3384H11.9337C13.0837 8.3384 13.6337 9.1584 13.6337 10.4484C13.6337 11.6584 13.1437 12.5684 11.9237 12.5684Z"
        fillRule="evenodd"
        clipRule="evenodd"
    />
</svg>
        