
<svg
    viewBox="0 0 32.23828125 24.541015625"
    xmlns="http://www.w3.org/2000/svg"
>
    <path
        fill="inherit"
        d="M10.7737 24.5384H21.4637C29.3937 24.5384 32.2337 21.5984 32.2337 14.2884V10.2684C32.2337 2.9484 29.3937 -0.0016 21.4637 -0.0016H10.7737C2.8437 -0.0016 0.0037 2.9484 0.0037 10.2684V14.2884C0.0037 21.5984 2.8437 24.5384 10.7737 24.5384ZM17.9537 17.9784C17.3037 17.9784 17.0037 17.6384 17.0037 17.1584C17.0037 16.7184 17.2637 16.3684 17.5237 16.0184L19.9737 12.9084C20.7237 11.9484 21.5037 10.7984 21.5037 9.6684C21.5037 8.6684 21.0437 7.9284 20.1837 7.9284C19.3837 7.9284 19.0337 8.5184 18.7537 9.4584C18.6237 9.9284 18.3337 10.1484 17.8737 10.1484C17.3337 10.1484 17.0237 9.7784 17.0237 9.2384C17.0237 7.7784 18.3937 6.2884 20.1937 6.2884C22.1437 6.2884 23.4437 7.6684 23.4437 9.5684C23.4437 10.8184 22.9837 11.8584 21.5637 13.6084L19.5137 16.1984V16.3284H22.8437C23.3237 16.3284 23.6537 16.6084 23.6537 17.1584C23.6537 17.6484 23.3537 17.9784 22.8437 17.9784ZM9.6837 18.1184C9.0237 18.1184 8.6537 17.7184 8.6537 17.0484V7.6384C8.6537 6.9484 9.0737 6.5484 9.6637 6.5484H12.3137C14.3837 6.5484 15.6037 8.2484 15.6037 10.3884C15.6037 12.5684 14.3537 14.2084 12.1937 14.2084H10.7037V17.0484C10.7037 17.7084 10.3637 18.1184 9.6837 18.1184ZM10.7037 12.5784H11.7837C13.0437 12.5784 13.5537 11.6484 13.5537 10.3884C13.5537 9.0684 12.9737 8.2284 11.8037 8.2284H10.7037Z"
        fillRule="evenodd"
        clipRule="evenodd"
    />
</svg>
        