
<svg
    viewBox={0 0 32.23828125 24.541015625}
    xmlns="http://www.w3.org/2000/svg"
>
    <path
        fill="inherit"
        d="M10.7737 24.5384H21.4637C29.3937 24.5384 32.2337 21.5984 32.2337 14.2884V10.2684C32.2337 2.9484 29.3937 -0.0016 21.4637 -0.0016H10.7737C2.8437 -0.0016 0.0037 2.9484 0.0037 10.2684V14.2884C0.0037 21.5984 2.8437 24.5384 10.7737 24.5384ZM20.3937 18.2284C18.8837 18.2284 17.4437 17.4984 17.0537 16.1884C16.9837 15.9584 16.9237 15.7084 16.9237 15.4484C16.9237 14.8984 17.2937 14.5584 17.8537 14.5584C18.3037 14.5584 18.6237 14.7884 18.7437 15.2584C18.9337 15.8984 19.3737 16.5884 20.3937 16.5884C21.4537 16.5884 21.9737 15.7484 21.9737 14.7784C21.9737 13.5584 21.3037 12.9084 20.1137 12.9084H19.7537C19.2937 12.9084 18.9737 12.6284 18.9737 12.1684C18.9737 11.6984 19.2737 11.3984 19.7537 11.3984H20.0937C21.1537 11.3984 21.7137 10.6484 21.7137 9.6284C21.7137 8.6984 21.2737 7.9884 20.3437 7.9884C19.5637 7.9884 19.1137 8.5084 18.8837 9.3384C18.7437 9.8284 18.4537 10.0084 17.9737 10.0084C17.4337 10.0084 17.1137 9.6384 17.1137 9.1784C17.1137 8.9284 17.1437 8.6784 17.2137 8.4084C17.6237 7.1684 18.8837 6.3484 20.3437 6.3484C22.1937 6.3484 23.6437 7.4484 23.6437 9.4084C23.6437 10.5784 23.0237 11.7284 21.7537 12.0684V12.1084C22.9237 12.2384 23.9837 13.0984 23.9837 14.8484C23.9837 16.9484 22.4237 18.2284 20.3937 18.2284ZM9.5537 18.1184C8.8837 18.1184 8.5137 17.7184 8.5137 17.0484V7.6384C8.5137 6.9484 8.9437 6.5484 9.5437 6.5484H12.1937C14.2737 6.5484 15.4737 8.2484 15.4737 10.3884C15.4737 12.5684 14.2337 14.2084 12.0837 14.2084H10.5937V17.0484C10.5937 17.7084 10.2437 18.1184 9.5537 18.1184ZM10.5937 12.5684H11.6637C12.9037 12.5684 13.4237 11.6484 13.4237 10.3884C13.4237 9.0684 12.8537 8.2184 11.6737 8.2184H10.5937Z"
        fillRule="evenodd"
        clipRule="evenodd"
    />
</svg>
        