
<svg
    viewBox="0 0 32.23828125 24.541015625"
    xmlns="http://www.w3.org/2000/svg"
>
    <path
        fill="inherit"
        d="M10.7737 24.5384H21.4637C29.3937 24.5384 32.2337 21.5984 32.2337 14.2884V10.2684C32.2337 2.9484 29.3937 -0.0016 21.4637 -0.0016H10.7737C2.8437 -0.0016 0.0037 2.9484 0.0037 10.2684V14.2884C0.0037 21.5984 2.8437 24.5384 10.7737 24.5384ZM10.7737 22.3384C4.3237 22.3384 2.2037 20.2484 2.2037 14.2884V10.2684C2.2037 4.3084 4.3237 2.1984 10.7737 2.1984H21.4637C27.9137 2.1984 30.0337 4.3084 30.0337 10.2684V14.2884C30.0337 20.2484 27.9137 22.3384 21.4637 22.3384ZM20.2737 18.0484C22.2337 18.0484 23.7337 16.8184 23.7337 14.7684C23.7337 13.0684 22.7237 12.2384 21.5737 12.1084V12.0684C22.8037 11.7484 23.4037 10.6384 23.4037 9.4884C23.4037 7.5984 21.9937 6.5184 20.2237 6.5184C18.8037 6.5184 17.5837 7.3184 17.1837 8.5284C17.1137 8.7884 17.0937 9.0384 17.0937 9.2684C17.0937 9.7184 17.3937 10.0784 17.9237 10.0784C18.3937 10.0784 18.6637 9.8984 18.8037 9.4184C19.0137 8.6084 19.4537 8.1084 20.2237 8.1084C21.1237 8.1084 21.5437 8.8084 21.5437 9.7084C21.5437 10.7084 21.0037 11.4284 19.9737 11.4284H19.6437C19.1837 11.4284 18.8937 11.7184 18.8937 12.1684C18.8937 12.6184 19.1937 12.8784 19.6437 12.8784H19.9837C21.1537 12.8784 21.7937 13.5184 21.7937 14.7084C21.7937 15.6584 21.2837 16.4584 20.2737 16.4584C19.2737 16.4584 18.8437 15.7884 18.6637 15.1584C18.5437 14.7284 18.2337 14.4884 17.8037 14.4884C17.2637 14.4884 16.9137 14.8184 16.9137 15.3584C16.9137 15.5984 16.9537 15.8484 17.0237 16.0684C17.4037 17.3384 18.8037 18.0484 20.2737 18.0484ZM9.7637 17.9384C10.4137 17.9384 10.7637 17.5384 10.7637 16.9084V14.1384H12.2137C14.2837 14.1384 15.5037 12.5484 15.5037 10.4484C15.5037 8.3684 14.3237 6.7284 12.3137 6.7284H9.7437C9.1737 6.7284 8.7637 7.1084 8.7637 7.7784V16.9084C8.7637 17.5584 9.1237 17.9384 9.7637 17.9384ZM10.7637 12.5684V8.3384H11.8137C12.9637 8.3384 13.5237 9.1584 13.5237 10.4484C13.5237 11.6584 13.0137 12.5684 11.8037 12.5684Z"
        fillRule="evenodd"
        clipRule="evenodd"
    />
</svg>
        