
<svg
    viewBox="0 0 32.23828125 24.541015625"
    xmlns="http://www.w3.org/2000/svg"
>
    <path
        fill="inherit"
        d="M10.7737 24.5384H21.4637C29.3937 24.5384 32.2337 21.5984 32.2337 14.2884V10.2684C32.2337 2.9484 29.3937 -0.0016 21.4637 -0.0016H10.7737C2.8437 -0.0016 0.0037 2.9484 0.0037 10.2684V14.2884C0.0037 21.5984 2.8437 24.5384 10.7737 24.5384ZM10.7737 22.3384C4.3237 22.3384 2.2037 20.2484 2.2037 14.2884V10.2684C2.2037 4.3084 4.3237 2.1984 10.7737 2.1984H21.4637C27.9137 2.1984 30.0337 4.3084 30.0337 10.2684V14.2884C30.0337 20.2484 27.9137 22.3384 21.4637 22.3384ZM21.8237 17.9784C22.3437 17.9784 22.7537 17.6684 22.7537 17.0084V15.6384H23.2437C23.7737 15.6384 24.0237 15.2984 24.0237 14.8384C24.0237 14.3984 23.7937 14.0584 23.2437 14.0584H22.7537V8.0484C22.7537 7.1084 22.1337 6.5784 21.2437 6.5784C20.2737 6.5784 19.8237 7.0684 19.4437 7.9184L17.0037 13.2184C16.7737 13.7584 16.6937 14.1084 16.6937 14.5284C16.6937 15.1884 17.1437 15.6384 17.8137 15.6384H20.8737V17.0084C20.8737 17.7284 21.3837 17.9784 21.8237 17.9784ZM9.8737 17.9384C10.5137 17.9384 10.8537 17.5384 10.8537 16.9084V14.1384H12.3037C14.3837 14.1384 15.6037 12.5484 15.6037 10.4484C15.6037 8.3684 14.4237 6.7284 12.4137 6.7284H9.8537C9.2837 6.7284 8.8637 7.1084 8.8637 7.7784V16.9084C8.8637 17.5584 9.2237 17.9384 9.8737 17.9384ZM20.9137 14.0984H18.3737V13.9984L20.8637 8.2984H20.9137ZM10.8537 12.5684V8.3384H11.9237C13.0737 8.3384 13.6137 9.1584 13.6137 10.4484C13.6137 11.6584 13.1237 12.5684 11.9037 12.5684Z"
        fillRule="evenodd"
        clipRule="evenodd"
    />
</svg>
        