
<svg
    viewBox={0 0 32.23828125 24.541015625}
    xmlns="http://www.w3.org/2000/svg"
>
    <path
        fill="inherit"
        d="M10.7737 24.5384H21.4637C29.3937 24.5384 32.2337 21.5984 32.2337 14.2884V10.2684C32.2337 2.9484 29.3937 -0.0016 21.4637 -0.0016H10.7737C2.8437 -0.0016 0.0037 2.9484 0.0037 10.2684V14.2884C0.0037 21.5984 2.8437 24.5384 10.7737 24.5384ZM21.9937 18.1584C21.5437 18.1584 21.0137 17.8984 21.0137 17.1484V15.7484H17.8737C17.1737 15.7484 16.7037 15.2884 16.7037 14.5984C16.7037 14.1684 16.7937 13.7984 17.0237 13.2484L19.5237 7.7784C19.9237 6.9084 20.3937 6.3984 21.3937 6.3984C22.3237 6.3984 22.9537 6.9484 22.9537 7.9284V14.1084H23.4637C24.0237 14.1084 24.2637 14.4684 24.2637 14.9184C24.2637 15.3984 24.0037 15.7484 23.4637 15.7484H22.9537V17.1484C22.9537 17.8284 22.5337 18.1584 21.9937 18.1584ZM9.6637 18.1184C8.9937 18.1184 8.6137 17.7184 8.6137 17.0484V7.6384C8.6137 6.9484 9.0537 6.5484 9.6537 6.5484H12.2937C14.3537 6.5484 15.5737 8.2484 15.5737 10.3884C15.5737 12.5684 14.3137 14.2084 12.1637 14.2084H10.6737V17.0484C10.6737 17.7084 10.3237 18.1184 9.6637 18.1184ZM21.0537 14.1484V8.1784H21.0037L18.4437 14.0584V14.1484ZM10.6737 12.5684H11.7537C13.0137 12.5684 13.5237 11.6484 13.5237 10.3884C13.5237 9.0684 12.9637 8.2184 11.7737 8.2184H10.6737Z"
        fillRule="evenodd"
        clipRule="evenodd"
    />
</svg>
        