
<svg
    viewBox="0 0 20.75390625 36.27061732538321"
    xmlns="http://www.w3.org/2000/svg"
>
    <path
        fill="inherit"
        d="M0.0037 21.1186C0.0037 26.1486 1.0237 30.0986 3.4137 34.0486C4.7537 36.2086 7.0237 36.8486 9.3637 35.7186L12.0737 34.4086C14.5237 33.2286 15.6837 31.6686 15.6837 29.5386C15.6837 28.5786 15.3437 27.8386 15.3437 27.2186C15.3437 26.4786 15.8437 26.0286 16.7237 26.0286H19.2637C20.1237 26.0286 20.7537 25.3186 20.7537 24.3886V21.0986C20.7537 20.0686 20.0337 19.3086 19.0437 19.3086H15.6837C14.3737 19.3086 13.7437 18.5586 13.7437 17.3186C13.7437 14.2686 14.2837 10.7286 16.4337 5.8486C17.4637 3.5086 16.7337 1.8086 14.2737 0.8386L12.9337 0.3186C10.8537 -0.5014 9.0637 0.3586 7.8437 1.6186C2.2437 7.5086 0.0037 15.4186 0.0037 21.1186ZM2.2037 21.1186C2.2037 15.8986 4.1337 8.6886 9.5137 3.0386C10.3037 2.2386 10.8937 1.9086 12.2737 2.4286L13.6437 2.9486C14.5837 3.2986 14.8437 4.0086 14.4137 4.9686C12.0037 10.3386 11.5137 14.2986 11.5137 16.5386C11.5137 22.6986 13.6037 27.3486 13.6037 29.1586C13.6037 30.7286 13.0437 31.5086 11.0437 32.5086L8.5837 33.7486C7.2737 34.4086 6.0437 34.0786 5.3037 32.8986C3.0737 29.2286 2.2037 25.8786 2.2037 21.1186Z"
        fillRule="evenodd"
        clipRule="evenodd"
    />
</svg>
        