<svg viewBox="0 0 32.935546875 27.384765625" xmlns="http://www.w3.org/2000/svg"><path d="M17.6927 27.3834C23.4427 27.3834 27.2927 25.3434 27.2927 22.3434C27.2927 19.6434 24.9927 19.0434 24.9927 17.4634C24.9927 15.2734 32.9327 14.8334 32.9327 9.2134C32.9327 3.6634 27.2027 0.0034 18.7027 0.0034C7.5327 0.0034 0.0027 5.5734 0.0027 13.9334C0.0027 21.9734 7.1527 27.3834 17.6927 27.3834ZM17.6927 25.0434C8.4327 25.0434 2.3427 20.5934 2.3427 13.9334C2.3427 6.9634 8.8227 2.3334 18.7027 2.3334C25.8827 2.3334 30.5927 5.1234 30.5927 9.2134C30.5927 13.9834 22.6027 13.3434 22.6027 17.4734C22.6027 19.8134 24.9527 20.5534 24.9527 22.1634C24.9527 23.9034 22.0927 25.0434 17.6927 25.0434ZM18.8227 9.2134C20.1127 9.2134 21.1227 8.1934 21.1227 6.9034C21.1227 5.6334 20.1127 4.6034 18.8227 4.6034C17.5727 4.6034 16.5127 5.6334 16.5127 6.9034C16.5127 8.1934 17.5727 9.2134 18.8227 9.2134ZM11.8927 11.4334C13.4827 11.4334 14.7627 10.1534 14.7627 8.5434C14.7627 6.9734 13.4627 5.7134 11.8927 5.7134C10.2927 5.7134 9.0127 6.9734 9.0127 8.5434C9.0127 10.1534 10.2927 11.4334 11.8927 11.4334ZM25.0727 10.0934C26.1027 10.0934 26.9227 9.2534 26.9227 8.2134C26.9227 7.1934 26.1027 6.3534 25.0727 6.3534C24.0327 6.3534 23.1827 7.1934 23.1827 8.2134C23.1827 9.2534 24.0327 10.0934 25.0727 10.0934ZM6.9027 15.8034C8.1627 15.8034 9.1727 14.7634 9.1727 13.5034C9.1727 12.2534 8.1627 11.2334 6.9027 11.2334C5.6627 11.2334 4.6327 12.2534 4.6327 13.5034C4.6327 14.7634 5.6627 15.8034 6.9027 15.8034ZM16.5727 21.8234C18.6527 21.8234 20.3527 20.1134 20.3527 18.0234C20.3527 15.9534 18.6527 14.2434 16.5727 14.2434C14.4927 14.2434 12.7827 15.9534 12.7827 18.0234C12.7827 20.1134 14.4927 21.8234 16.5727 21.8234ZM16.5727 20.2334C15.3527 20.2334 14.3727 19.2534 14.3727 18.0234C14.3727 16.6634 15.4127 15.8634 16.5427 15.8434C17.7027 15.8334 18.7727 16.6234 18.7727 18.0234C18.7727 19.2534 17.8027 20.2334 16.5727 20.2334Z" /></svg>