
<svg
    viewBox={0 0 32.935546875 27.384765625}
    xmlns="http://www.w3.org/2000/svg"
>
    <path
        fill="inherit"
        d="M17.6927 27.3834C23.4427 27.3834 27.2927 25.3434 27.2927 22.3434C27.2927 19.6434 24.9927 19.0434 24.9927 17.4634C24.9927 15.2734 32.9327 14.8334 32.9327 9.2134C32.9327 3.6634 27.2027 0.0034 18.7027 0.0034C7.5327 0.0034 0.0027 5.5734 0.0027 13.9334C0.0027 21.9734 7.1527 27.3834 17.6927 27.3834ZM19.0027 8.6034C17.7427 8.6034 16.6827 7.5734 16.6827 6.3034C16.6827 5.0334 17.7427 4.0034 19.0027 4.0034C20.2927 4.0034 21.3027 5.0334 21.3027 6.3034C21.3027 7.5734 20.2927 8.6034 19.0027 8.6034ZM11.7127 10.7634C10.1027 10.7634 8.8227 9.5034 8.8227 7.8934C8.8227 6.3134 10.1027 5.0634 11.7127 5.0634C13.2727 5.0634 14.5727 6.3134 14.5727 7.8934C14.5727 9.5034 13.2927 10.7634 11.7127 10.7634ZM25.4427 9.8034C24.4027 9.8034 23.5527 8.9834 23.5527 7.9434C23.5527 6.9134 24.4027 6.0734 25.4427 6.0734C26.4727 6.0734 27.2927 6.9134 27.2927 7.9434C27.2927 8.9834 26.4727 9.8034 25.4427 9.8034ZM6.4627 15.6034C5.2227 15.6034 4.1827 14.5634 4.1827 13.3034C4.1827 12.1034 5.2627 11.0434 6.4627 11.0434C7.7227 11.0434 8.7327 12.0434 8.7327 13.3034C8.7327 14.5634 7.7227 15.6034 6.4627 15.6034ZM17.3927 22.1634C15.3927 22.1634 13.7527 20.5334 13.7527 18.5234C13.7527 16.5334 15.3927 14.8934 17.3927 14.8934C19.4027 14.8934 21.0427 16.5334 21.0427 18.5234C21.0427 20.5334 19.4027 22.1634 17.3927 22.1634Z"
        fillRule="evenodd"
        clipRule="evenodd"
    />
</svg>
        