
<svg
    viewBox={0 0 28.86526111589542 32.4664280354715}
    xmlns="http://www.w3.org/2000/svg"
>
    <path
        fill="inherit"
        d="M22.4422 21.8928L27.7522 16.5928C29.2722 15.0728 29.2322 13.2728 27.6822 11.6928L26.9822 10.9828C25.5622 12.8328 21.5022 14.9928 20.7222 14.2128C20.6022 14.0928 20.5822 13.8428 20.7622 13.6528C22.4222 11.9928 23.5022 10.3828 23.7422 7.7628L16.7222 0.7228C15.4222 -0.5772 13.1622 -0.1572 12.5522 2.3028C11.6822 5.8028 10.9022 7.8428 10.0622 9.5228ZM1.6222 30.8328C3.7522 32.9828 6.5222 33.0128 8.6222 30.9028C10.3022 29.2228 11.9322 25.4228 13.1722 23.5228L16.4822 26.8428C17.4922 27.8728 18.7322 27.8728 19.6822 26.8828L20.8622 25.7128C21.8622 24.7028 21.8422 23.5528 20.8222 22.5228L9.9522 11.6428C8.9122 10.6128 7.7522 10.6028 6.7522 11.6028L5.5722 12.7728C4.5922 13.7628 4.5922 14.9528 5.6122 15.9728L8.9222 19.2828C7.0422 20.5328 3.2522 22.1528 1.5522 23.8328C-0.5378 25.9428 -0.5178 28.7228 1.6222 30.8328ZM5.2722 29.0628C4.3322 29.0628 3.5822 28.2928 3.5822 27.3628C3.5822 26.4328 4.3322 25.6828 5.2722 25.6828C6.2022 25.6828 6.9522 26.4328 6.9522 27.3628C6.9522 28.2928 6.2022 29.0628 5.2722 29.0628Z"
        fillRule="evenodd"
        clipRule="evenodd"
    />
</svg>
        