
<svg
    viewBox={0 0 29.68109971462878 27.50957549612823}
    xmlns="http://www.w3.org/2000/svg"
>
    <path
        fill="inherit"
        d="M25.826 0.4846C25.126 0.9946 17.526 6.2046 12.866 10.3146C15.956 11.2846 18.376 13.6946 19.356 16.8246C23.506 12.1646 28.696 4.5746 29.206 3.8646C30.816 1.6046 27.996 -1.1254 25.826 0.4846ZM12.936 16.7446C13.936 17.7446 14.686 19.0646 14.866 20.1446C15.966 19.9646 16.856 19.4446 17.786 18.5146C17.936 18.3846 18.076 18.2346 18.216 18.0646C17.606 14.7746 14.866 12.0646 11.626 11.4646C11.456 11.6046 11.306 11.7546 11.156 11.9046C10.226 12.8346 9.726 13.7446 9.546 14.8246C10.606 15.0046 11.946 15.7446 12.936 16.7446ZM0.306 24.1746C2.586 27.4646 7.626 28.5846 10.856 26.3346C13.646 24.3946 14.256 21.3946 12.416 18.7646C10.756 16.3846 7.766 15.7146 5.796 17.1246C3.526 18.7346 4.446 20.9546 3.046 21.9346C1.886 22.7746 1.076 22.2546 0.406 22.7046C-0.024 22.9746 -0.194 23.4946 0.306 24.1746Z"
        fillRule="evenodd"
        clipRule="evenodd"
    />
</svg>
        