<svg viewBox="0 0 30.09881956557248 27.96901953835602" xmlns="http://www.w3.org/2000/svg"><path d="M0.4233 24.6825C2.9633 28.1125 8.2933 29.0425 11.6033 26.5825C13.4633 25.2025 14.3633 23.3025 14.1633 21.3725C15.4733 21.1425 16.6333 20.4225 17.9033 19.1325C22.2933 14.7525 28.9933 4.9525 29.5833 4.1325C31.3033 1.7425 28.3533 -1.1875 25.9433 0.5025C25.1433 1.0725 15.3233 7.7525 10.9533 12.1725C9.6733 13.4625 8.9433 14.6225 8.6933 15.9325C7.7133 15.8925 6.7133 16.2025 5.8233 16.8725C3.6933 18.4725 4.4433 20.7725 3.2533 21.6625C2.2133 22.4425 1.2433 22.0025 0.4933 22.5825C-0.0567 23.0125 -0.2367 23.8125 0.4233 24.6825ZM27.0033 2.4425C27.4633 2.0925 27.9833 2.5925 27.6333 3.0925C27.3133 3.5625 21.8633 11.5125 17.6633 16.1925C17.0333 14.5225 15.5533 13.0325 13.9033 12.4025C18.6233 8.2225 26.4633 2.8225 27.0033 2.4425ZM12.9433 18.4325C12.3133 17.5825 11.5933 16.9425 10.8233 16.5325C10.9333 15.6725 11.4133 14.8225 12.3433 13.8825C13.9733 14.0725 15.9933 16.0925 16.2033 17.7425C15.1733 18.7225 14.3633 19.1425 13.4833 19.2525C13.3233 18.9825 13.1533 18.7125 12.9433 18.4325ZM3.2133 24.4625C3.0333 24.2725 3.0433 24.0825 3.1733 23.9625C3.3633 23.7825 4.1233 23.7225 4.7133 23.1425C6.0433 21.8225 5.5933 19.9025 7.1233 18.7125C8.3933 17.6925 10.1533 18.0625 11.3433 19.5925C12.6833 21.3325 12.2233 23.4525 10.3733 24.8725C8.3133 26.5025 5.1233 26.4925 3.2133 24.4625Z" /></svg>