
<svg
    viewBox={0 0 34.64453125 23.419921875}
    xmlns="http://www.w3.org/2000/svg"
>
    <path
        fill="inherit"
        d="M2.2937 23.4205C4.8237 23.4205 8.6837 20.4105 17.3237 20.4105C25.9537 20.4105 29.8337 23.4105 32.3437 23.4105C33.8537 23.4105 34.6437 22.4905 34.6437 20.9705V2.4505C34.6437 0.9205 33.8537 0.0005 32.3437 0.0005C29.8337 0.0005 25.9537 3.0105 17.3237 3.0105C8.7137 3.0105 4.8237 0.0005 2.2937 0.0005C0.7937 0.0005 0.0037 0.9205 0.0037 2.4305V20.9905C0.0037 22.5005 0.7937 23.4205 2.2937 23.4205ZM2.5837 21.1505C2.3337 21.1505 2.2037 21.0105 2.2037 20.7505V2.6705C2.2037 2.4105 2.3337 2.2705 2.5837 2.2705C3.9237 2.2705 8.6237 5.0905 17.3237 5.0905C26.0137 5.0905 31.0237 2.2605 32.0737 2.2605C32.3037 2.2605 32.4437 2.3905 32.4437 2.6705V20.7505C32.4437 21.0105 32.3037 21.1505 32.0737 21.1505C30.7337 21.1505 26.0137 18.3305 17.3237 18.3305C8.6037 18.3305 3.6337 21.1505 2.5837 21.1505Z"
        fillRule="evenodd"
        clipRule="evenodd"
    />
</svg>
        