
<svg
    viewBox="0 0 28.642578125 28.642578125"
    xmlns="http://www.w3.org/2000/svg"
>
    <path
        fill="inherit"
        d="M17.1182 28.6393C18.0982 28.6393 18.7982 27.7993 19.3082 26.4793L28.2582 3.0893C28.5082 2.4593 28.6382 1.8993 28.6382 1.4393C28.6382 0.5493 28.0982 -0.0007 27.2082 -0.0007C26.7382 -0.0007 26.1782 0.1393 25.5482 0.3793L2.0382 9.3893C0.8882 9.8293 -0.0018 10.5293 -0.0018 11.5293C-0.0018 12.7793 0.9582 13.2093 2.2682 13.5993L9.6482 15.8493C10.5282 16.1193 11.0182 16.0893 11.6082 15.5493L26.6082 1.5293C26.7882 1.3693 26.9882 1.3993 27.1282 1.5193C27.2582 1.6493 27.2782 1.8593 27.1082 2.0393L13.1482 17.0893C12.6182 17.6493 12.5782 18.1193 12.8382 19.0293L15.0082 26.2493C15.4182 27.6293 15.8482 28.6393 17.1182 28.6393Z"
        fillRule="evenodd"
        clipRule="evenodd"
    />
</svg>
        