
<svg
    viewBox={0 0 27.890625 27.890625}
    xmlns="http://www.w3.org/2000/svg"
>
    <path
        fill="inherit"
        d="M13.9427 27.8927C21.6427 27.8927 27.8927 21.6427 27.8927 13.9427C27.8927 6.2627 21.6427 0.0027 13.9427 0.0027C6.2627 0.0027 0.0027 6.2627 0.0027 13.9427C0.0027 21.6427 6.2627 27.8927 13.9427 27.8927ZM7.7227 21.0527C5.8427 19.1827 5.8427 16.2927 7.7827 14.3527L15.6027 6.5327C17.0927 5.0427 19.1227 5.0327 20.5527 6.4127C21.9427 7.8227 21.9027 9.8427 20.4027 11.3327L12.7727 18.9627C11.8827 19.8527 10.5827 19.9027 9.7627 19.0427C8.9527 18.2127 8.9827 16.8527 9.8427 16.0127L15.1327 10.6927C15.4627 10.3727 15.9127 10.3527 16.2427 10.6727C16.5827 10.9927 16.5427 11.4427 16.2127 11.7727L10.9127 17.0627C10.6527 17.3227 10.6327 17.6627 10.8927 17.8927C11.1527 18.1327 11.4427 18.1327 11.7127 17.8527L19.3027 10.2827C20.1527 9.4227 20.2227 8.2827 19.4527 7.5327C18.7127 6.7927 17.5427 6.8327 16.7027 7.6827L8.9427 15.4527C7.6327 16.7727 7.5927 18.6227 8.9027 19.9027C10.1727 21.1727 12.0327 21.1627 13.3427 19.8527L19.0327 14.1627C19.3327 13.8627 19.8627 13.8527 20.1827 14.1527C20.4827 14.4227 20.4527 14.9827 20.1627 15.2727L14.3927 21.0227C12.4727 22.9427 9.7327 23.0127 7.7227 21.0527Z"
        fillRule="evenodd"
        clipRule="evenodd"
    />
</svg>
        