<svg viewBox="0 0 27.890625 27.890625" xmlns="http://www.w3.org/2000/svg"><path d="M13.9427 27.8864C21.6427 27.8864 27.8927 21.6264 27.8927 13.9464C27.8927 6.2464 21.6427 -0.0036 13.9427 -0.0036C6.2627 -0.0036 0.0027 6.2464 0.0027 13.9464C0.0027 21.6264 6.2627 27.8864 13.9427 27.8864ZM14.2627 22.8364C13.5327 22.8364 13.3127 22.2564 13.0727 21.4464L11.8027 17.3064C11.6627 16.7664 11.6927 16.5164 12.0027 16.1864L20.0327 7.5364C20.1227 7.4264 20.1227 7.2964 20.0327 7.2364C19.9427 7.1664 19.8427 7.1364 19.7327 7.2364L11.1127 15.3164C10.7727 15.6164 10.5027 15.6264 9.9927 15.4664L5.7327 14.1764C4.9627 13.9464 4.4327 13.6964 4.4327 12.9864C4.4327 12.4164 4.9327 12.0064 5.5927 11.7764L19.1427 6.5764C19.5127 6.4364 19.8127 6.3664 20.0827 6.3664C20.5927 6.3664 20.8927 6.6764 20.8927 7.1764C20.8927 7.4464 20.8227 7.7564 20.6827 8.1164L15.5327 21.6064C15.2427 22.3564 14.8327 22.8364 14.2627 22.8364Z" /></svg>