
<svg
    viewBox={0 0 27.890625 27.890625}
    xmlns="http://www.w3.org/2000/svg"
>
    <path
        fill="inherit"
        d="M13.9427 27.8864C21.6427 27.8864 27.8927 21.6464 27.8927 13.9464C27.8927 6.2464 21.6427 -0.0036 13.9427 -0.0036C6.2527 -0.0036 0.0027 6.2464 0.0027 13.9464C0.0027 21.6464 6.2527 27.8864 13.9427 27.8864ZM13.9427 25.5664C7.5227 25.5664 2.3227 20.3664 2.3227 13.9464C2.3227 7.5164 7.5227 2.3264 13.9427 2.3264C20.3727 2.3264 25.5627 7.5164 25.5627 13.9464C25.5627 20.3664 20.3727 25.5664 13.9427 25.5664ZM7.8927 20.8264C9.8327 22.7264 12.4827 22.6564 14.3527 20.7964L19.9427 15.2164C20.2227 14.9464 20.2527 14.4064 19.9427 14.1364C19.6627 13.8464 19.1427 13.8464 18.8527 14.1464L13.3327 19.6564C12.0627 20.9464 10.2527 20.9464 9.0227 19.7264C7.7527 18.4864 7.7927 16.6964 9.0627 15.3964L16.5927 7.8564C17.4027 7.0564 18.5427 7.0164 19.2627 7.7264C20.0027 8.4664 19.9327 9.5564 19.1127 10.3764L11.7627 17.7364C11.5127 18.0064 11.2127 17.9964 10.9627 17.7764C10.7027 17.5564 10.7227 17.2164 10.9827 16.9664L16.1227 11.8264C16.4327 11.5164 16.4627 11.0764 16.1427 10.7764C15.8327 10.4564 15.3927 10.4764 15.0827 10.7864L9.9427 15.9364C9.1027 16.7764 9.0627 18.0764 9.8527 18.8764C10.6627 19.6964 11.9127 19.6764 12.7727 18.8164L20.1627 11.4164C21.6127 9.9664 21.6727 7.9964 20.3127 6.6464C18.9327 5.2864 16.9627 5.3164 15.5127 6.7664L7.9327 14.3464C6.0527 16.2164 6.0527 19.0164 7.8927 20.8264Z"
        fillRule="evenodd"
        clipRule="evenodd"
    />
</svg>
        