<svg viewBox="0 0 26.05936238973981 29.29600588690183" xmlns="http://www.w3.org/2000/svg"><path d="M22.2826 15.2789L12.2326 25.3289C9.6226 27.9589 6.1126 27.6989 3.8626 25.4289C1.6126 23.1889 1.3526 19.6989 3.9626 17.0689L17.6726 3.3689C19.2426 1.7989 21.5626 1.5789 23.0626 3.0689C24.5526 4.5889 24.3326 6.8889 22.7726 8.4589L9.3726 21.8589C8.7026 22.5589 7.8826 22.3489 7.4226 21.8889C6.9526 21.4089 6.7626 20.6089 7.4326 19.9189L16.8026 10.5789C17.2126 10.1589 17.2326 9.5489 16.8426 9.1589C16.4426 8.7789 15.8426 8.7989 15.4326 9.2089L6.0426 18.6089C4.6426 19.9989 4.7026 22.1289 5.9326 23.3589C7.2726 24.6989 9.2926 24.6789 10.7026 23.2689L24.1526 9.8089C26.7126 7.2589 26.6026 3.8889 24.3726 1.6689C22.2026 -0.5111 18.7826 -0.6711 16.2226 1.8789L2.4426 15.6789C-0.9374 19.0589 -0.6774 23.8789 2.3726 26.9289C5.4226 29.9689 10.2526 30.2289 13.6326 26.8589L23.7426 16.7489C24.1426 16.3489 24.1426 15.6189 23.7326 15.2589C23.3326 14.8289 22.6926 14.8889 22.2826 15.2789Z" /></svg>