
<svg
    viewBox="0 0 27.890625 27.890625"
    xmlns="http://www.w3.org/2000/svg"
>
    <path
        fill="inherit"
        d="M13.9427 27.8864C21.6427 27.8864 27.8927 21.6464 27.8927 13.9464C27.8927 6.2464 21.6427 -0.0036 13.9427 -0.0036C6.2527 -0.0036 0.0027 6.2464 0.0027 13.9464C0.0027 21.6464 6.2527 27.8864 13.9427 27.8864ZM13.9427 25.5664C7.5227 25.5664 2.3227 20.3664 2.3227 13.9464C2.3227 7.5164 7.5227 2.3264 13.9427 2.3264C20.3727 2.3264 25.5627 7.5164 25.5627 13.9464C25.5627 20.3664 20.3727 25.5664 13.9427 25.5664ZM14.2027 22.5864C14.7527 22.5864 15.1527 22.1164 15.4227 21.3964L20.4227 8.3164C20.5627 7.9564 20.6327 7.6564 20.6327 7.3964C20.6327 6.9064 20.3427 6.6164 19.8527 6.6164C19.5927 6.6164 19.2927 6.6864 18.9327 6.8264L5.7827 11.8564C5.1527 12.0864 4.6627 12.4864 4.6627 13.0264C4.6627 13.7264 5.1827 13.9564 5.9227 14.1864L10.0627 15.4364C10.5527 15.5964 10.8327 15.5864 11.1527 15.2864L19.5127 7.4464C19.6027 7.3564 19.7127 7.3864 19.7927 7.4464C19.8927 7.5164 19.8927 7.6464 19.7927 7.7364L12.0027 16.1364C11.7027 16.4464 11.6727 16.6964 11.8127 17.2164L13.0427 21.2464C13.2927 22.0264 13.4927 22.5864 14.2027 22.5864Z"
        fillRule="evenodd"
        clipRule="evenodd"
    />
</svg>
        