
<svg
    viewBox="0 0 28.642578125 28.642578125"
    xmlns="http://www.w3.org/2000/svg"
>
    <path
        fill="inherit"
        d="M17.1182 28.6426C18.0982 28.6426 18.7982 27.7926 19.3082 26.4826L28.2582 3.0926C28.5082 2.4626 28.6382 1.9026 28.6382 1.4326C28.6382 0.5426 28.0982 0.0026 27.2082 0.0026C26.7382 0.0026 26.1782 0.1326 25.5482 0.3826L2.0382 9.3926C0.8882 9.8326 -0.0018 10.5226 -0.0018 11.5226C-0.0018 12.7826 0.9582 13.2026 2.2682 13.6026L12.1382 16.5026L15.0082 26.2526C15.4182 27.6326 15.8482 28.6426 17.1182 28.6426ZM12.7582 14.4226L3.3182 11.5426C3.1082 11.4726 3.0382 11.4126 3.0382 11.3226C3.0382 11.2226 3.0882 11.1526 3.2982 11.0726L21.7782 4.0726C22.8682 3.6626 23.9282 3.1126 24.9382 2.6526C24.0382 3.3926 22.9182 4.2626 22.1582 5.0126ZM17.3382 25.6326C17.2282 25.6326 17.1682 25.5426 17.1082 25.3226L14.2182 15.8826L23.6282 6.4826C24.3682 5.7426 25.2782 4.5926 26.0082 3.6626C25.5382 4.7026 24.9782 5.7526 24.5682 6.8626L17.5682 25.3526C17.4882 25.5526 17.4282 25.6326 17.3382 25.6326Z"
        fillRule="evenodd"
        clipRule="evenodd"
    />
</svg>
        