
<svg
    viewBox="0 0 20.357421875 30.255859375"
    xmlns="http://www.w3.org/2000/svg"
>
    <path
        fill="inherit"
        d="M5.7437 30.2559C6.2337 30.2559 6.6337 29.9159 6.6337 29.4759C6.6337 29.1859 6.5337 28.9259 6.3137 28.5859C3.9537 24.6459 2.6837 19.7559 2.6837 15.1359C2.6837 10.5159 3.9537 5.6159 6.3137 1.6859C6.5337 1.3259 6.6337 1.0759 6.6337 0.7959C6.6337 0.3559 6.2337 -0.0041 5.7437 -0.0041C5.2537 -0.0041 4.8937 0.2859 4.4537 0.9459C1.5137 5.1259 0.0037 10.2159 0.0037 15.1359C0.0037 20.0559 1.5137 25.1459 4.4537 29.3159C4.8937 29.9859 5.2537 30.2559 5.7437 30.2559ZM14.6137 30.2559C15.1037 30.2559 15.4537 29.9859 15.9037 29.3159C18.8437 25.1459 20.3537 20.0559 20.3537 15.1359C20.3537 10.2159 18.8437 5.1259 15.9037 0.9459C15.4537 0.2859 15.1037 -0.0041 14.6137 -0.0041C14.1237 -0.0041 13.7237 0.3559 13.7237 0.7959C13.7237 1.0759 13.8237 1.3259 14.0437 1.6859C16.4037 5.6159 17.6737 10.5159 17.6737 15.1359C17.6737 19.7559 16.4037 24.6459 14.0437 28.5859C13.8237 28.9259 13.7237 29.1859 13.7237 29.4759C13.7237 29.9159 14.1237 30.2559 14.6137 30.2559Z"
        fillRule="evenodd"
        clipRule="evenodd"
    />
</svg>
        