
<svg
    viewBox={0 0 27.890625 27.890625}
    xmlns="http://www.w3.org/2000/svg"
>
    <path
        fill="inherit"
        d="M13.9427 27.8864C21.6427 27.8864 27.8927 21.6464 27.8927 13.9464C27.8927 6.2464 21.6427 -0.0036 13.9427 -0.0036C6.2527 -0.0036 0.0027 6.2464 0.0027 13.9464C0.0027 21.6464 6.2527 27.8864 13.9427 27.8864ZM13.9427 25.5664C7.5227 25.5664 2.3227 20.3664 2.3227 13.9464C2.3227 7.5164 7.5227 2.3264 13.9427 2.3264C20.3727 2.3264 25.5627 7.5164 25.5627 13.9464C25.5627 20.3664 20.3727 25.5664 13.9427 25.5664ZM10.9927 20.2064C11.7127 20.2064 12.1027 19.7264 12.1027 18.9764V15.9864H14.7927C17.4627 15.9864 19.2527 14.3164 19.2527 11.7964C19.2527 9.2864 17.4427 7.5864 14.8027 7.5864H10.9827C10.2827 7.5864 9.9127 8.0764 9.9127 8.8164V18.9764C9.9127 19.6964 10.2927 20.2064 10.9927 20.2064ZM12.1027 14.3164V9.2564H14.4927C16.0927 9.2564 17.0927 10.2264 17.0927 11.7964C17.0927 13.3464 16.1027 14.3164 14.4927 14.3164Z"
        fillRule="evenodd"
        clipRule="evenodd"
    />
</svg>
        