
<svg
    viewBox="0 0 43.3125 19.300312651599068"
    xmlns="http://www.w3.org/2000/svg"
>
    <path
        fill="inherit"
        d="M38.7727 3.8926L42.1827 1.9226C42.6827 1.6326 42.8327 1.0326 42.5427 0.5526C42.2427 0.0226 41.6627 -0.1574 41.1527 0.1426L37.7327 2.1126C37.2427 2.4026 37.0827 3.0326 37.3827 3.5126C37.6627 4.0426 38.2627 4.1926 38.7727 3.8926ZM4.5427 3.8926C5.0427 4.1926 5.6427 4.0426 5.9427 3.5126C6.2527 3.0326 6.0827 2.4026 5.5827 2.1126L2.1627 0.1426C1.6727 -0.1574 1.0627 0.0226 0.7827 0.5526C0.4827 1.0326 0.6327 1.6326 1.1527 1.9226ZM20.6127 9.6626C20.6127 5.7226 16.4227 1.9326 12.1827 1.9326H11.7727C9.7927 1.9326 8.8827 2.6926 8.3627 4.6826C8.0427 6.0626 7.8627 7.6126 7.8627 9.6626C7.8627 11.7026 8.0427 13.2426 8.3627 14.6526C8.8827 16.6326 9.7927 17.3726 11.7727 17.3726H12.1827C16.4227 17.3726 20.6127 13.6026 20.6127 9.6626ZM22.6927 9.6626C22.6927 13.6026 26.8927 17.3726 31.1427 17.3726H31.5427C33.5327 17.3726 34.4427 16.6326 34.9627 14.6526C35.2727 13.2426 35.4527 11.7026 35.4527 9.6626C35.4527 7.6126 35.2727 6.0626 34.9627 4.6826C34.4427 2.6926 33.5327 1.9326 31.5427 1.9326H31.1427C26.8927 1.9326 22.6927 5.7226 22.6927 9.6626ZM4.9527 8.6226H1.0127C0.4227 8.6226 0.0027 9.0626 0.0027 9.6526C0.0027 10.2326 0.4227 10.6726 1.0127 10.6726H4.9527C5.5327 10.6726 5.9727 10.2326 5.9727 9.6526C5.9727 9.0626 5.5327 8.6226 4.9527 8.6226ZM38.3727 8.6226C37.7927 8.6226 37.3427 9.0626 37.3427 9.6526C37.3427 10.2326 37.7927 10.6726 38.3727 10.6726H42.3027C42.8927 10.6726 43.3127 10.2326 43.3127 9.6526C43.3127 9.0626 42.8927 8.6226 42.3027 8.6226ZM4.5427 15.4026L1.1527 17.3726C0.6327 17.6726 0.4827 18.2626 0.7827 18.7526C1.0627 19.2726 1.6727 19.4526 2.1627 19.1626L5.5827 17.1926C6.0827 16.8926 6.2527 16.2826 5.9427 15.7826C5.6427 15.2626 5.0427 15.1126 4.5427 15.4026ZM38.7727 15.4026C38.2627 15.1126 37.6627 15.2626 37.3827 15.7826C37.0827 16.2826 37.2427 16.8926 37.7327 17.1926L41.1527 19.1626C41.6627 19.4526 42.2427 19.2726 42.5427 18.7526C42.8327 18.2626 42.6827 17.6726 42.1827 17.3726Z"
        fillRule="evenodd"
        clipRule="evenodd"
    />
</svg>
        