
<svg
    viewBox="0 0 19.05859375 28.65625"
    xmlns="http://www.w3.org/2000/svg"
>
    <path
        fill="inherit"
        d="M1.65 17.0445C2.37 17.0445 2.84 16.5745 2.84 15.8445V10.8945H6.37C9.67 10.8945 11.92 8.6645 11.92 5.4445C11.92 2.2445 9.68 0.0045 6.38 0.0045H1.65C0.94 0.0045 0.46 0.4745 0.46 1.2145V15.8445C0.46 16.5745 0.94 17.0445 1.65 17.0445ZM2.84 8.6945V2.2045H5.97C8.23 2.2045 9.49 3.3545 9.49 5.4445C9.49 7.5345 8.23 8.6945 5.97 8.6945ZM10.02 17.5945C12.22 17.5145 14.37 16.5545 16.01 14.9145C17.64 13.2845 18.58 11.1545 18.65 8.9545C18.69 8.3945 18.31 7.9845 17.81 8.0245C17.32 8.0545 17.08 8.4645 17.05 8.9845C16.94 10.7745 16.19 12.4245 14.85 13.7645C13.51 15.1245 11.84 15.8445 10.08 15.9545C9.54 15.9845 9.11 16.2445 9.11 16.7745C9.09 17.2945 9.46 17.6245 10.02 17.5945ZM10.1 14.0245C11.33 13.9045 12.55 13.3145 13.49 12.4145C14.42 11.4745 14.98 10.2445 15.12 9.0245C15.19 8.4445 14.75 8.0245 14.26 8.0545C13.78 8.0845 13.55 8.5045 13.47 9.0145C13.36 9.8345 12.96 10.6045 12.3 11.2345C11.68 11.8945 10.91 12.3045 10.09 12.4045C9.58 12.4845 9.13 12.6845 9.13 13.2445C9.12 13.7845 9.49 14.0945 10.1 14.0245ZM3.45 28.6545C5.76 28.6545 6.89 26.9645 6.89 24.7045C6.89 22.4045 5.73 20.7445 3.45 20.7445C1.22 20.7445 0 22.3645 0 24.7045C0 26.9245 1.11 28.6545 3.45 28.6545ZM9 28.5745C9.63 28.5745 9.87 28.1645 9.87 27.6845V25.5645H12.04C12.5 25.5645 12.78 25.3245 12.78 24.8845C12.78 24.4445 12.51 24.1845 12.04 24.1845H9.87V22.3645H12.28C12.77 22.3645 13.04 22.1245 13.04 21.6545C13.04 21.1745 12.77 20.9145 12.28 20.9145H8.98C8.48 20.9145 8.13 21.2445 8.13 21.8345V27.6845C8.13 28.1645 8.38 28.5745 9 28.5745ZM15.01 28.5745C15.63 28.5745 15.87 28.1645 15.87 27.6845V25.5645H18.05C18.5 25.5645 18.8 25.3245 18.8 24.8845C18.8 24.4445 18.51 24.1845 18.05 24.1845H15.87V22.3645H18.28C18.79 22.3645 19.06 22.1245 19.06 21.6545C19.06 21.1745 18.79 20.9145 18.28 20.9145H15C14.49 20.9145 14.14 21.2445 14.14 21.8345V27.6845C14.14 28.1645 14.4 28.5745 15.01 28.5745ZM3.45 27.2045C2.2 27.2045 1.78 25.9045 1.78 24.7045C1.78 23.4245 2.26 22.2045 3.45 22.2045C4.72 22.2045 5.11 23.5045 5.11 24.7045C5.11 26.0145 4.63 27.2045 3.45 27.2045Z"
        fillRule="evenodd"
        clipRule="evenodd"
    />
</svg>
        