
<svg
    viewBox={0 0 41.91796875 27.41952227509787}
    xmlns="http://www.w3.org/2000/svg"
>
    <path
        fill="inherit"
        d="M36.6427 19.0787C37.0827 19.5887 37.8427 19.5887 38.3627 19.0087C40.6427 16.5487 41.9227 13.2687 41.9227 9.7287C41.9227 6.1887 40.6427 2.9087 38.3627 0.4487C37.8427 -0.1313 37.0827 -0.1413 36.6427 0.3787C36.2027 0.8687 36.3427 1.5087 36.8327 2.0687C38.6627 4.1087 39.6927 6.7887 39.6927 9.7287C39.6927 12.6687 38.6627 15.3487 36.8327 17.3887C36.3427 17.9487 36.2027 18.5887 36.6427 19.0787ZM5.2727 19.0787C5.7127 18.5887 5.5827 17.9487 5.0827 17.3887C3.2527 15.3487 2.2327 12.6687 2.2327 9.7287C2.2327 6.7887 3.2527 4.1087 5.0827 2.0687C5.5827 1.5087 5.7127 0.8687 5.2727 0.3787C4.8427 -0.1413 4.0727 -0.1313 3.5527 0.4487C1.2827 2.9087 0.0027 6.1887 0.0027 9.7287C0.0027 13.2687 1.2827 16.5487 3.5527 19.0087C4.0727 19.5887 4.8427 19.5887 5.2727 19.0787ZM14.3527 27.4187C15.3627 27.4187 16.0327 26.7187 16.0327 25.6787V17.9587H21.6127C26.5627 17.9587 29.9827 14.5687 29.9827 9.7287C29.9827 4.8587 26.5827 1.5087 21.6327 1.5087H14.3527C13.3427 1.5087 12.6727 2.1987 12.6727 3.2487V25.6787C12.6727 26.7387 13.3427 27.4187 14.3527 27.4187ZM9.1027 15.1787C9.5427 14.6887 9.3627 14.0787 8.9327 13.4887C8.1027 12.4587 7.7127 11.1487 7.7127 9.7287C7.7127 8.3087 8.1027 6.9787 8.9327 5.9687C9.3627 5.3787 9.5427 4.7687 9.1027 4.2687C8.6527 3.7487 7.8327 3.7487 7.3527 4.3687C6.1627 5.8487 5.4827 7.7187 5.4827 9.7287C5.4827 11.7387 6.1627 13.6087 7.3527 15.0887C7.8327 15.6987 8.6527 15.6887 9.1027 15.1787ZM32.8127 15.1787C33.2627 15.6887 34.0827 15.6987 34.5627 15.0887C35.7527 13.6087 36.4327 11.7387 36.4327 9.7287C36.4327 7.7187 35.7527 5.8487 34.5627 4.3687C34.0827 3.7487 33.2627 3.7487 32.8127 4.2687C32.3727 4.7687 32.5527 5.3787 32.9927 5.9687C33.8127 6.9787 34.2027 8.3087 34.2027 9.7287C34.2027 11.1487 33.8127 12.4587 32.9927 13.4887C32.5527 14.0787 32.3727 14.6887 32.8127 15.1787ZM16.0327 14.8387V4.5987H21.0027C24.5227 4.5987 26.5327 6.4587 26.5327 9.7287C26.5327 12.9687 24.5127 14.8387 21.0027 14.8387Z"
        fillRule="evenodd"
        clipRule="evenodd"
    />
</svg>
        