
<svg
    viewBox="0 0 27.890625 27.890625"
    xmlns="http://www.w3.org/2000/svg"
>
    <path
        fill="inherit"
        d="M13.9427 27.8864C21.6427 27.8864 27.8927 21.6264 27.8927 13.9464C27.8927 6.2464 21.6427 -0.0036 13.9427 -0.0036C6.2627 -0.0036 0.0027 6.2464 0.0027 13.9464C0.0027 21.6264 6.2627 27.8864 13.9427 27.8864ZM10.9227 20.4164C10.2027 20.4164 9.8027 19.8764 9.8027 19.1264V8.6664C9.8027 7.9064 10.1827 7.3864 10.9127 7.3864H14.8427C17.5827 7.3864 19.4427 9.1364 19.4427 11.7264C19.4427 14.3264 17.5927 16.0464 14.8327 16.0464H12.0727V19.1264C12.0727 19.9064 11.6727 20.4164 10.9227 20.4164ZM12.0727 14.3264H14.5327C16.1827 14.3264 17.2027 13.3264 17.2027 11.7264C17.2027 10.1164 16.1727 9.1164 14.5327 9.1164H12.0727Z"
        fillRule="evenodd"
        clipRule="evenodd"
    />
</svg>
        