<svg viewBox="0 0 47.017578125 28.19140625" xmlns="http://www.w3.org/2000/svg"><path d="M1.6837 25.9073C2.7037 25.9073 3.3737 25.2073 3.3737 24.1673V16.4473H8.9537C13.8937 16.4473 17.3237 13.0573 17.3237 8.2173C17.3237 3.3473 13.9037 -0.0027 8.9737 -0.0027H1.6837C0.6737 -0.0027 0.0037 0.6873 0.0037 1.7373V24.1673C0.0037 25.2273 0.6737 25.9073 1.6837 25.9073ZM33.0737 28.1873C40.7737 28.1873 47.0137 21.9473 47.0137 14.2473C47.0137 6.5473 40.7737 0.2973 33.0737 0.2973C25.3737 0.2973 19.1237 6.5473 19.1237 14.2473C19.1237 21.9473 25.3737 28.1873 33.0737 28.1873ZM23.4637 7.8173C25.4737 4.6873 29.0137 2.6273 33.0437 2.6273C37.0737 2.6273 40.6337 4.6873 42.6537 7.8073C43.2037 8.5673 42.9437 9.4473 42.0137 9.4473H24.0937C23.1837 9.4473 22.9037 8.5673 23.4637 7.8173ZM3.3737 13.3273V3.0873H8.3437C11.8537 3.0873 13.8737 4.9473 13.8737 8.2173C13.8737 11.4573 11.8537 13.3273 8.3437 13.3273ZM33.0537 17.9673C31.3637 17.9673 30.0237 16.6273 30.0237 14.9273C30.0237 13.2473 31.3637 11.9073 33.0537 11.9073C34.7437 11.9073 36.0937 13.2473 36.0937 14.9273C36.0937 16.6273 34.7437 17.9673 33.0537 17.9673ZM21.8637 17.3073C21.6137 16.4573 22.0937 16.0673 22.8037 16.1573C26.7137 16.6073 29.7537 20.0473 29.6237 24.0773C29.6137 24.7773 29.0937 25.2273 28.3537 24.8673C25.1337 23.4373 22.7537 20.6573 21.8637 17.3073ZM44.2537 17.3073C43.3637 20.6573 41.0037 23.4373 37.7637 24.8673C37.0337 25.2273 36.5037 24.7773 36.4937 24.0773C36.3637 20.0573 39.3937 16.6073 43.3137 16.1573C44.0237 16.0673 44.5037 16.4573 44.2537 17.3073Z" /></svg>