
<svg
    viewBox="0 0 25.169921875 25.169921875"
    xmlns="http://www.w3.org/2000/svg"
>
    <path
        fill="inherit"
        d="M4.2937 25.1692H20.8737C23.7437 25.1692 25.1737 23.7592 25.1737 20.9492V4.2392C25.1737 1.4192 23.7437 -0.0008 20.8737 -0.0008H4.2937C1.4337 -0.0008 0.0037 1.4192 0.0037 4.2392V20.9492C0.0037 23.7592 1.4337 25.1692 4.2937 25.1692ZM4.3237 22.9692C2.9537 22.9692 2.2037 22.2392 2.2037 20.8192V4.3592C2.2037 2.9392 2.9537 2.1992 4.3237 2.1992H20.8537C22.2037 2.1992 22.9737 2.9392 22.9737 4.3592V20.8192C22.9737 22.2392 22.2037 22.9692 20.8537 22.9692ZM9.6537 18.8392C10.3737 18.8392 10.7637 18.3592 10.7637 17.6092V14.6192H13.4537C16.1337 14.6192 17.9137 12.9492 17.9137 10.4292C17.9137 7.9192 16.1037 6.2192 13.4637 6.2192H9.6537C8.9437 6.2192 8.5737 6.7092 8.5737 7.4492V17.6092C8.5737 18.3292 8.9537 18.8392 9.6537 18.8392ZM10.7637 12.9492V7.8892H13.1537C14.7537 7.8892 15.7537 8.8592 15.7537 10.4292C15.7537 11.9792 14.7637 12.9492 13.1537 12.9492Z"
        fillRule="evenodd"
        clipRule="evenodd"
    />
</svg>
        