
<svg
    viewBox={0 0 39.01953125 31.710226087405378}
    xmlns="http://www.w3.org/2000/svg"
>
    <path
        fill="inherit"
        d="M33.6427 31.3978C34.0527 31.8178 34.7427 31.8178 35.1327 31.3978C35.5427 30.9878 35.5427 30.3178 35.1327 29.9078L5.5327 0.3078C5.1227 -0.1022 4.4527 -0.1122 4.0327 0.3078C3.6327 0.7078 3.6327 1.3978 4.0327 1.8078ZM19.4927 4.7978C25.6027 4.7978 30.5127 9.6878 30.5327 15.8178C30.5327 17.7878 29.9927 19.6278 29.0927 21.2178L30.7527 22.8878C32.0727 20.8478 32.8527 18.3978 32.8527 15.8178C32.8527 8.5278 26.7927 2.4878 19.4927 2.4878C16.9127 2.4878 14.4827 3.2478 12.4427 4.5678L14.1127 6.2478C15.6927 5.3278 17.5227 4.7978 19.4927 4.7978ZM33.5327 4.0478C33.0327 4.4678 32.9927 5.1378 33.3727 5.6678C35.4627 8.5178 36.6827 12.0178 36.6827 15.8178C36.6827 19.4578 35.5427 22.8278 33.6227 25.6078L35.3027 27.2878C37.7027 23.9478 39.0227 20.0578 39.0227 15.8178C39.0227 11.4778 37.6227 7.4878 35.2327 4.2478C34.8127 3.6778 34.0827 3.5978 33.5327 4.0478ZM5.4827 27.5778C5.9727 27.1478 6.0427 26.4978 5.6427 25.9478C3.5727 23.1178 2.3427 19.6078 2.3427 15.8178C2.3427 12.1378 3.4827 8.7578 5.4427 5.9778L3.7627 4.2878C1.3527 7.5878 0.0027 11.5778 0.0027 15.8178C0.0027 20.1478 1.4127 24.1278 3.7827 27.3678C4.2127 27.9578 4.9327 28.0078 5.4827 27.5778ZM19.5127 29.1478C22.1227 29.1478 24.5727 28.3678 26.6327 27.0278L24.9627 25.3778C23.3627 26.2878 21.5027 26.8178 19.5127 26.8178C13.4127 26.8178 8.5127 21.9278 8.5127 15.8178C8.5127 13.8178 9.0327 11.9578 9.9627 10.3778L8.2827 8.6778C6.9627 10.7578 6.1827 13.2078 6.1827 15.8178C6.1827 23.1078 12.2227 29.1478 19.5127 29.1478ZM24.1027 16.2278C24.6627 15.5678 24.9927 14.6778 24.9927 13.6678C24.9927 11.1578 23.1827 9.4578 20.5527 9.4578H17.4627L19.1227 11.1278H20.2327C21.8327 11.1278 22.8327 12.0978 22.8327 13.6678C22.8327 14.0578 22.6927 14.3778 22.4627 14.5878ZM16.7327 22.0778C17.4627 22.0778 17.8427 21.5978 17.8427 20.8478V18.3878L15.6527 16.2178V20.8478C15.6527 21.5678 16.0327 22.0778 16.7327 22.0778Z"
        fillRule="evenodd"
        clipRule="evenodd"
    />
</svg>
        