
<svg
    viewBox={0 0 41.91796875 30.161886243655378}
    xmlns="http://www.w3.org/2000/svg"
>
    <path
        fill="inherit"
        d="M33.2127 29.8478C33.6227 30.2678 34.3027 30.2678 34.7027 29.8478C35.1127 29.4378 35.1127 28.7778 34.7027 28.3578L6.6627 0.3078C6.2527 -0.1022 5.5827 -0.1122 5.1527 0.3078C4.7627 0.7078 4.7627 1.3978 5.1527 1.8078ZM36.6427 20.4778C37.0827 20.9878 37.8427 20.9878 38.3627 20.4078C40.6427 17.9478 41.9227 14.6678 41.9227 11.1278C41.9227 7.5878 40.6427 4.3078 38.3627 1.8478C37.8427 1.2678 37.0827 1.2578 36.6427 1.7778C36.2027 2.2678 36.3427 2.9078 36.8327 3.4678C38.6627 5.5078 39.6927 8.1878 39.6927 11.1278C39.6927 14.0678 38.6627 16.7478 36.8327 18.7878C36.3427 19.3478 36.2027 19.9878 36.6427 20.4778ZM5.2727 20.4778C5.7127 19.9878 5.5827 19.3478 5.0827 18.7878C3.2527 16.7478 2.2327 14.0678 2.2327 11.1278C2.2327 8.3078 3.1627 5.7378 4.8427 3.7478L3.2627 2.1578C1.1727 4.5878 0.0027 7.7278 0.0027 11.1278C0.0027 14.6678 1.2827 17.9478 3.5527 20.4078C4.0727 20.9878 4.8427 20.9878 5.2727 20.4778ZM29.9827 11.1278C29.9827 6.2578 26.5827 2.9078 21.6327 2.9078H14.3527C13.7127 2.9078 13.2027 3.1978 12.9327 3.6878V4.3178L16.0327 7.4378V5.9978H21.0027C24.5227 5.9978 26.5327 7.8578 26.5327 11.1278C26.5327 13.2178 25.6727 14.7378 24.1127 15.5178L26.4827 17.8978C28.6727 16.5178 29.9827 14.1078 29.9827 11.1278ZM32.8127 16.5778C33.2627 17.0878 34.0827 17.0978 34.5627 16.4878C35.7527 15.0078 36.4327 13.1378 36.4327 11.1278C36.4327 9.1178 35.7527 7.2478 34.5627 5.7678C34.0827 5.1478 33.2627 5.1478 32.8127 5.6678C32.3727 6.1678 32.5527 6.7778 32.9927 7.3678C33.8127 8.3778 34.2027 9.7078 34.2027 11.1278C34.2027 12.5478 33.8127 13.8578 32.9927 14.8878C32.5527 15.4778 32.3727 16.0878 32.8127 16.5778ZM9.1027 16.5778C9.5427 16.0878 9.3627 15.4778 8.9327 14.8878C8.1027 13.8578 7.7127 12.5478 7.7127 11.1278C7.7127 9.8278 8.0527 8.6078 8.7227 7.6278L7.1327 6.0278C6.0827 7.4778 5.4827 9.2378 5.4827 11.1278C5.4827 13.1378 6.1627 15.0078 7.3527 16.4878C7.8327 17.0978 8.6527 17.0878 9.1027 16.5778ZM14.3527 28.8178C15.3627 28.8178 16.0327 28.1178 16.0327 27.0778V19.3578H20.4527L17.3927 16.2778L16.0327 16.2378L15.9927 14.8978L12.6727 11.5678V27.0778C12.6727 28.1378 13.3427 28.8178 14.3527 28.8178Z"
        fillRule="evenodd"
        clipRule="evenodd"
    />
</svg>
        