<svg viewBox="0 0 41.78125 27.419522275097865" xmlns="http://www.w3.org/2000/svg"><path d="M23.9627 19.0787C24.4227 19.5887 25.1727 19.5887 25.7027 19.0087C27.9727 16.5487 29.2627 13.2687 29.2627 9.7287C29.2627 6.1887 27.9727 2.9087 25.7027 0.4487C25.1727 -0.1313 24.4227 -0.1413 23.9627 0.3787C23.5327 0.8687 23.6627 1.5087 24.1627 2.0687C26.0027 4.1087 27.0327 6.7887 27.0327 9.7287C27.0327 12.6687 26.0027 15.3487 24.1627 17.3887C23.6627 17.9487 23.5327 18.5887 23.9627 19.0787ZM1.6827 27.4187C2.7027 27.4187 3.3727 26.7187 3.3727 25.6787V17.9587H8.9527C13.8927 17.9587 17.3227 14.5687 17.3227 9.7287C17.3227 4.8587 13.9027 1.5087 8.9727 1.5087H1.6827C0.6727 1.5087 0.0027 2.1987 0.0027 3.2487V25.6787C0.0027 26.7387 0.6727 27.4187 1.6827 27.4187ZM20.1427 15.1787C20.5927 15.6887 21.4127 15.6987 21.9027 15.0887C23.0927 13.6087 23.7727 11.7387 23.7727 9.7287C23.7727 7.7187 23.0927 5.8487 21.9027 4.3687C21.4127 3.7487 20.5927 3.7487 20.1427 4.2687C19.7027 4.7687 19.8927 5.3787 20.3127 5.9687C21.1327 6.9787 21.5427 8.3087 21.5427 9.7287C21.5427 11.1487 21.1327 12.4587 20.3127 13.4887C19.8927 14.0787 19.7027 14.6887 20.1427 15.1787ZM3.3727 14.8387V4.5987H8.3427C11.8527 4.5987 13.8727 6.4587 13.8727 9.7287C13.8727 12.9687 11.8527 14.8387 8.3427 14.8387ZM29.2127 27.4187H40.7427C41.3127 27.4187 41.7827 26.9587 41.7827 26.3787C41.7827 25.8087 41.3127 25.3587 40.7427 25.3587H40.4527L37.5527 11.4487C37.3427 10.3387 36.7127 9.8287 35.6727 9.8287H34.3027C33.2527 9.8287 32.6227 10.3387 32.3927 11.4487L29.5427 25.3587H29.2127C28.6427 25.3587 28.1927 25.8087 28.1927 26.3787C28.1927 26.9587 28.6427 27.4187 29.2127 27.4187Z" /></svg>