
<svg
    viewBox="0 0 34.63128905275122 33.619079607054225"
    xmlns="http://www.w3.org/2000/svg"
>
    <path
        fill="inherit"
        d="M12.2741 2.992C13.0941 2.992 13.7841 2.322 13.7841 1.492C13.7841 0.672 13.0941 0.002 12.2741 0.002C11.4341 0.002 10.7741 0.672 10.7741 1.492C10.7741 2.322 11.4341 2.992 12.2741 2.992ZM20.7241 5.362C22.1641 5.362 23.2941 4.212 23.2941 2.792C23.2941 1.342 22.1641 0.222 20.7241 0.222C19.2941 0.222 18.1541 1.342 18.1541 2.792C18.1541 4.212 19.2941 5.362 20.7241 5.362ZM31.8841 3.772C32.5441 3.772 33.0741 3.242 33.0741 2.572C33.0741 1.902 32.5441 1.352 31.8841 1.352C31.2141 1.352 30.6841 1.902 30.6841 2.572C30.6841 3.242 31.2141 3.772 31.8841 3.772ZM27.9341 4.662L25.3741 7.222C25.0041 7.592 25.0241 8.192 25.3741 8.562C25.7541 8.932 26.3641 8.942 26.7241 8.562L29.2841 6.012C29.6541 5.642 29.6441 5.032 29.2841 4.662C28.9141 4.302 28.3041 4.292 27.9341 4.662ZM21.8041 25.652C23.5141 24.942 23.6541 23.212 22.9841 21.292C24.7841 21.242 26.5941 21.392 28.3841 21.742C28.9041 21.852 29.3441 21.342 29.3541 20.822C29.3641 20.292 28.9341 19.962 28.4341 19.862C26.3141 19.472 24.2441 19.322 22.1341 19.432C21.4241 18.142 20.4841 16.842 19.5141 15.782L24.2041 11.092C24.5441 10.732 24.5541 10.122 24.2041 9.752C23.8441 9.382 23.2141 9.402 22.8641 9.752L18.1741 14.442C17.0941 13.462 15.8041 12.522 14.5241 11.822C14.6341 9.732 14.4741 7.642 14.0841 5.552C13.9841 5.042 13.6541 4.622 13.1241 4.622C12.6241 4.632 12.1041 5.062 12.2141 5.602C12.5541 7.382 12.7041 9.192 12.6641 11.002C10.8041 10.372 9.1641 10.542 8.4041 12.192L0.2341 30.322C-0.6659 32.332 1.2041 34.262 3.2241 33.412ZM18.1341 9.662C18.8041 9.662 19.3341 9.122 19.3341 8.452C19.3341 7.792 18.8041 7.242 18.1341 7.242C17.4741 7.242 16.9141 7.792 16.9141 8.452C16.9141 9.122 17.4741 9.662 18.1341 9.662ZM27.2441 16.602C28.4641 16.602 29.4341 15.652 29.4341 14.442C29.4341 13.232 28.4641 12.262 27.2441 12.262C26.0441 12.262 25.1041 13.232 25.1041 14.442C25.1041 15.652 26.0441 16.602 27.2441 16.602ZM13.9641 20.072C10.6741 16.802 9.3541 13.672 10.2641 12.772C10.6641 12.362 11.4841 12.402 12.5641 12.842C12.4841 13.682 12.3641 14.542 12.2141 15.392C12.0841 15.932 12.6241 16.342 13.1141 16.352C13.6341 16.352 13.9741 15.942 14.0641 15.432C14.1741 14.892 14.2641 14.342 14.3241 13.812C15.1241 14.312 15.9541 14.972 16.8141 15.782L15.8841 16.712C15.5141 17.062 15.5341 17.692 15.8841 18.062C16.2541 18.412 16.8841 18.432 17.2441 18.062L18.1741 17.122C18.9941 17.982 19.6441 18.822 20.1841 19.602C19.6341 19.692 19.0841 19.772 18.5441 19.862C18.0441 19.972 17.6241 20.312 17.6341 20.822C17.6341 21.332 18.0441 21.862 18.5941 21.752C19.4441 21.592 20.3041 21.462 21.1541 21.392C21.6341 22.522 21.6841 23.382 21.2741 23.772C20.3541 24.702 17.2441 23.362 13.9641 20.072ZM33.1241 16.042C33.9641 16.042 34.6341 15.372 34.6341 14.522C34.6341 13.702 33.9641 13.032 33.1241 13.032C32.2841 13.032 31.6241 13.702 31.6241 14.522C31.6241 15.372 32.2841 16.042 33.1241 16.042ZM32.6041 23.042C33.4441 23.042 34.1141 22.382 34.1141 21.532C34.1141 20.702 33.4441 20.032 32.6041 20.032C31.7741 20.032 31.1041 20.702 31.1041 21.532C31.1041 22.382 31.7741 23.042 32.6041 23.042Z"
        fillRule="evenodd"
        clipRule="evenodd"
    />
</svg>
        