<svg viewBox="0 0 27.890625 27.890625" xmlns="http://www.w3.org/2000/svg"><path d="M13.9427 27.8864C21.6427 27.8864 27.8927 21.6264 27.8927 13.9464C27.8927 6.2464 21.6427 -0.0036 13.9427 -0.0036C6.2627 -0.0036 0.0027 6.2464 0.0027 13.9464C0.0027 21.6264 6.2627 27.8864 13.9427 27.8864ZM9.9627 19.4364C9.2727 19.4364 8.9527 19.0564 8.9527 18.5164V9.3564C8.9527 8.8164 9.2727 8.4364 9.9627 8.4364H11.3427C12.0627 8.4364 12.3727 8.8164 12.3727 9.3564V18.5164C12.3727 19.0564 12.0627 19.4364 11.3427 19.4364ZM16.5727 19.4364C15.8627 19.4364 15.5427 19.0564 15.5427 18.5164V9.3564C15.5427 8.8164 15.8627 8.4364 16.5727 8.4364H17.9527C18.6327 8.4364 18.9527 8.8164 18.9527 9.3564V18.5164C18.9527 19.0564 18.6327 19.4364 17.9527 19.4364Z" /></svg>