
<svg
    viewBox={0 0 16.6796875 22.61328125}
    xmlns="http://www.w3.org/2000/svg"
>
    <path
        fill="inherit"
        d="M1.8137 22.6177H4.9337C6.1237 22.6177 6.7537 21.9877 6.7537 20.7777V1.8177C6.7537 0.5577 6.1237 -0.0023 4.9337 -0.0023H1.8137C0.6337 -0.0023 0.0037 0.6177 0.0037 1.8177V20.7777C0.0037 21.9877 0.6337 22.6177 1.8137 22.6177ZM11.7537 22.6177H14.8637C16.0637 22.6177 16.6837 21.9877 16.6837 20.7777V1.8177C16.6837 0.5577 16.0637 -0.0023 14.8637 -0.0023H11.7537C10.5537 -0.0023 9.9237 0.6177 9.9237 1.8177V20.7777C9.9237 21.9877 10.5537 22.6177 11.7537 22.6177Z"
        fillRule="evenodd"
        clipRule="evenodd"
    />
</svg>
        