
<svg
    viewBox="0 0 27.890625 27.890625"
    xmlns="http://www.w3.org/2000/svg"
>
    <path
        fill="inherit"
        d="M13.9427 27.8864C21.6427 27.8864 27.8927 21.6464 27.8927 13.9464C27.8927 6.2464 21.6427 -0.0036 13.9427 -0.0036C6.2527 -0.0036 0.0027 6.2464 0.0027 13.9464C0.0027 21.6464 6.2527 27.8864 13.9427 27.8864ZM13.9427 25.5664C7.5227 25.5664 2.3227 20.3664 2.3227 13.9464C2.3227 7.5164 7.5227 2.3264 13.9427 2.3264C20.3727 2.3264 25.5627 7.5164 25.5627 13.9464C25.5627 20.3664 20.3727 25.5664 13.9427 25.5664ZM10.0727 19.2764H11.4127C12.1027 19.2764 12.4127 18.9064 12.4127 18.3764V9.4864C12.4127 8.9664 12.1027 8.5964 11.4127 8.5964H10.0727C9.4027 8.5964 9.0927 8.9664 9.0927 9.4864V18.3764C9.0927 18.9064 9.4027 19.2764 10.0727 19.2764ZM16.4727 19.2764H17.8127C18.4727 19.2764 18.7827 18.9064 18.7827 18.3764V9.4864C18.7827 8.9664 18.4727 8.5964 17.8127 8.5964H16.4727C15.7927 8.5964 15.4727 8.9664 15.4727 9.4864V18.3764C15.4727 18.9064 15.7927 19.2764 16.4727 19.2764Z"
        fillRule="evenodd"
        clipRule="evenodd"
    />
</svg>
        