<svg viewBox="0 0 32.23828125 25.169921875" xmlns="http://www.w3.org/2000/svg"><path d="M4.2937 25.1692H27.9437C30.8137 25.1692 32.2337 23.7592 32.2337 20.9492V4.2392C32.2337 1.4192 30.8137 -0.0008 27.9437 -0.0008H4.2937C1.4337 -0.0008 0.0037 1.4192 0.0037 4.2392V20.9492C0.0037 23.7592 1.4337 25.1692 4.2937 25.1692ZM4.3237 22.9692C2.9537 22.9692 2.2037 22.2392 2.2037 20.8192V4.3592C2.2037 2.9392 2.9537 2.1992 4.3237 2.1992H27.9137C29.2737 2.1992 30.0337 2.9392 30.0337 4.3592V20.8192C30.0337 22.2392 29.2737 22.9692 27.9137 22.9692ZM12.2737 17.9092H13.6137C14.2837 17.9092 14.6037 17.5392 14.6037 17.0092V8.1192C14.6037 7.5992 14.2837 7.2292 13.6137 7.2292H12.2737C11.5937 7.2292 11.2837 7.5992 11.2837 8.1192V17.0092C11.2837 17.5392 11.5937 17.9092 12.2737 17.9092ZM18.6637 17.9092H20.0137C20.6737 17.9092 20.9837 17.5392 20.9837 17.0092V8.1192C20.9837 7.5992 20.6737 7.2292 20.0137 7.2292H18.6637C17.9937 7.2292 17.6637 7.5992 17.6637 8.1192V17.0092C17.6637 17.5392 17.9937 17.9092 18.6637 17.9092Z" /></svg>