
<svg
    viewBox="0 0 32.23828125 25.169921875"
    xmlns="http://www.w3.org/2000/svg"
>
    <path
        fill="inherit"
        d="M4.2937 25.1692H27.9437C30.8137 25.1692 32.2337 23.7592 32.2337 20.9492V4.2392C32.2337 1.4192 30.8137 -0.0008 27.9437 -0.0008H4.2937C1.4337 -0.0008 0.0037 1.4192 0.0037 4.2392V20.9492C0.0037 23.7592 1.4337 25.1692 4.2937 25.1692ZM12.1537 18.0892C11.4437 18.0892 11.1337 17.7092 11.1337 17.1592V7.9992C11.1337 7.4692 11.4437 7.0792 12.1537 7.0792H13.5337C14.2337 7.0792 14.5437 7.4692 14.5437 7.9992V17.1592C14.5437 17.7092 14.2337 18.0892 13.5337 18.0892ZM18.7437 18.0892C18.0437 18.0892 17.7237 17.7092 17.7237 17.1592V7.9992C17.7237 7.4692 18.0437 7.0792 18.7437 7.0792H20.1437C20.8237 7.0792 21.1337 7.4692 21.1337 7.9992V17.1592C21.1337 17.7092 20.8237 18.0892 20.1437 18.0892Z"
        fillRule="evenodd"
        clipRule="evenodd"
    />
</svg>
        