
<svg
    viewBox="0 0 27.890625 27.890625"
    xmlns="http://www.w3.org/2000/svg"
>
    <path
        fill="inherit"
        d="M13.9427 27.8864C21.6427 27.8864 27.8927 21.6264 27.8927 13.9464C27.8927 6.2464 21.6427 -0.0036 13.9427 -0.0036C6.2627 -0.0036 0.0027 6.2464 0.0027 13.9464C0.0027 21.6264 6.2627 27.8864 13.9427 27.8864ZM9.8827 8.7364C9.8827 7.3264 10.6527 6.2664 11.6027 6.2664C12.5827 6.2664 13.3327 7.3464 13.3327 8.7364C13.3327 10.1464 12.5827 11.2564 11.6027 11.2564C10.6527 11.2564 9.8827 10.1464 9.8827 8.7364ZM14.5427 8.7364C14.5427 7.3464 15.3027 6.2664 16.2527 6.2664C17.2227 6.2664 17.9927 7.3264 17.9927 8.7364C17.9927 10.1464 17.2227 11.2564 16.2527 11.2564C15.3027 11.2564 14.5427 10.1464 14.5427 8.7364ZM6.4127 12.8764C6.4127 11.4564 7.1627 10.3664 8.1327 10.3664C9.0927 10.3664 9.8527 11.4564 9.8527 12.8764C9.8527 14.2864 9.0927 15.3664 8.1327 15.3664C7.1627 15.3664 6.4127 14.2864 6.4127 12.8764ZM18.0227 12.8764C18.0227 11.4564 18.7827 10.3664 19.7427 10.3664C20.7027 10.3664 21.4527 11.4564 21.4527 12.8764C21.4527 14.2864 20.7027 15.3664 19.7427 15.3664C18.7827 15.3664 18.0227 14.2864 18.0227 12.8764ZM8.5727 18.3864C8.5727 17.1764 9.3127 16.5464 10.0127 15.9564C10.3927 15.6564 10.7727 15.3564 11.0627 14.9264C11.2527 14.6164 11.4127 14.2764 11.5927 13.9464C12.0827 12.8564 12.4927 11.8264 13.9327 11.8264C15.3827 11.8264 15.7727 12.8364 16.2827 13.9464C16.4427 14.2764 16.6127 14.6264 16.8127 14.9464C17.1027 15.3564 17.4827 15.6564 17.8727 15.9564C18.5627 16.5464 19.3027 17.1764 19.3027 18.3864C19.3027 19.8364 18.3327 20.8464 16.9027 20.8464C16.2027 20.8464 15.6927 20.6764 15.1927 20.4964C14.7927 20.3464 14.3927 20.2364 13.9327 20.2364C13.4627 20.2364 13.0827 20.3464 12.6727 20.4964C12.1827 20.6764 11.6727 20.8464 10.9627 20.8464C9.5327 20.8464 8.5727 19.8364 8.5727 18.3864Z"
        fillRule="evenodd"
        clipRule="evenodd"
    />
</svg>
        