
<svg
    viewBox="0 0 27.890625 27.890625"
    xmlns="http://www.w3.org/2000/svg"
>
    <path
        fill="inherit"
        d="M13.9427 27.8864C21.6427 27.8864 27.8927 21.6464 27.8927 13.9464C27.8927 6.2464 21.6427 -0.0036 13.9427 -0.0036C6.2527 -0.0036 0.0027 6.2464 0.0027 13.9464C0.0027 21.6464 6.2527 27.8864 13.9427 27.8864ZM13.9427 25.5664C7.5227 25.5664 2.3227 20.3664 2.3227 13.9464C2.3227 7.5164 7.5227 2.3264 13.9427 2.3264C20.3727 2.3264 25.5627 7.5164 25.5627 13.9464C25.5627 20.3664 20.3727 25.5664 13.9427 25.5664ZM10.0127 8.8864C10.0127 10.2564 10.7427 11.3164 11.6727 11.3164C12.6227 11.3164 13.3427 10.2564 13.3427 8.8864C13.3427 7.5364 12.6227 6.4764 11.6727 6.4764C10.7427 6.4764 10.0127 7.5164 10.0127 8.8864ZM14.5327 8.8864C14.5327 10.2564 15.2627 11.3164 16.1827 11.3164C17.1327 11.3164 17.8727 10.2564 17.8727 8.8864C17.8727 7.5164 17.1327 6.4764 16.1827 6.4764C15.2627 6.4764 14.5327 7.5364 14.5327 8.8864ZM6.6427 12.8964C6.6427 14.2564 7.3727 15.3164 8.3127 15.3164C9.2427 15.3164 9.9827 14.2564 9.9827 12.8964C9.9827 11.5264 9.2427 10.4564 8.3127 10.4564C7.3727 10.4564 6.6427 11.5264 6.6427 12.8964ZM17.8927 12.8964C17.8927 14.2564 18.6327 15.3164 19.5627 15.3164C20.4927 15.3164 21.2227 14.2564 21.2227 12.8964C21.2227 11.5264 20.4927 10.4564 19.5627 10.4564C18.6327 10.4564 17.8927 11.5264 17.8927 12.8964ZM8.7327 18.2364C8.7327 19.6464 9.6627 20.6264 11.0627 20.6264C11.7427 20.6264 12.2327 20.4564 12.7127 20.2764C13.1127 20.1364 13.4827 20.0264 13.9327 20.0264C14.3827 20.0264 14.7627 20.1364 15.1527 20.2764C15.6427 20.4564 16.1327 20.6264 16.8027 20.6264C18.1927 20.6264 19.1427 19.6464 19.1427 18.2364C19.1427 17.0664 18.4327 16.4464 17.7427 15.8864C17.3727 15.5864 17.0127 15.2964 16.7327 14.9064C16.5327 14.6064 16.3627 14.2464 16.2127 13.9364C15.7227 12.8664 15.3427 11.8764 13.9327 11.8764C12.5327 11.8764 12.1427 12.8764 11.6627 13.9364C11.5027 14.2464 11.3327 14.5864 11.1427 14.8864C10.8727 15.2964 10.5027 15.5864 10.1327 15.8864C9.4427 16.4464 8.7327 17.0664 8.7327 18.2364Z"
        fillRule="evenodd"
        clipRule="evenodd"
    />
</svg>
        