<svg viewBox="0 0 28.765625 27.986328125" xmlns="http://www.w3.org/2000/svg"><path d="M6.6337 4.7811C6.6337 7.4811 8.0837 9.5611 9.9137 9.5611C11.7737 9.5611 13.2037 7.4611 13.2037 4.7811C13.2037 2.0811 11.7737 0.0011 9.9137 0.0011C8.0837 0.0011 6.6337 2.0811 6.6337 4.7811ZM15.5737 4.7811C15.5737 7.4611 16.9937 9.5611 18.8537 9.5611C20.6837 9.5611 22.1337 7.4811 22.1337 4.7811C22.1337 2.0811 20.6837 0.0011 18.8537 0.0011C16.9937 0.0011 15.5737 2.0811 15.5737 4.7811ZM0.0037 12.6711C0.0037 15.3811 1.4237 17.4611 3.2637 17.4611C5.1137 17.4611 6.5537 15.3811 6.5537 12.6711C6.5537 9.9811 5.1137 7.8911 3.2637 7.8911C1.4237 7.8911 0.0037 9.9811 0.0037 12.6711ZM22.2137 12.6711C22.2137 15.3811 23.6537 17.4611 25.4937 17.4611C27.3437 17.4611 28.7637 15.3811 28.7637 12.6711C28.7637 9.9811 27.3437 7.8911 25.4937 7.8911C23.6537 7.8911 22.2137 9.9811 22.2137 12.6711ZM4.1037 23.2511C4.1037 26.0211 5.9637 27.9911 8.6937 27.9911C10.0537 27.9911 11.0337 27.6011 11.9737 27.2711C12.7437 27.0011 13.4837 26.7511 14.3837 26.7511C15.2737 26.7511 16.0137 27.0011 16.7937 27.2711C17.7337 27.6011 18.7037 27.9911 20.0537 27.9911C22.8037 27.9911 24.6637 26.0211 24.6637 23.2511C24.6637 20.9011 23.2537 19.7111 21.9037 18.6111C21.1537 18.0011 20.4237 17.4311 19.9337 16.6611C19.5237 16.0511 19.1837 15.3811 18.8937 14.7511C17.9137 12.6511 17.1337 10.6611 14.3837 10.6611C11.6237 10.6611 10.8537 12.6511 9.8737 14.7411C9.5737 15.3811 9.2437 16.0411 8.8437 16.6411C8.3437 17.4011 7.6037 18.0011 6.8637 18.6111C5.5137 19.7111 4.1037 20.9211 4.1037 23.2511Z" /></svg>