
<svg
    viewBox="0 0 29.55859375 28.95703125"
    xmlns="http://www.w3.org/2000/svg"
>
    <path
        fill="inherit"
        d="M6.6437 5.167C6.6437 8.287 8.1037 10.337 10.3037 10.337C12.5237 10.337 13.9837 8.257 13.9837 5.167C13.9837 2.067 12.5237 -0.003 10.3037 -0.003C8.1037 -0.003 6.6437 2.067 6.6437 5.167ZM15.5737 5.167C15.5737 8.257 17.0337 10.337 19.2537 10.337C21.4537 10.337 22.9137 8.287 22.9137 5.167C22.9137 2.067 21.4537 -0.003 19.2537 -0.003C17.0337 -0.003 15.5737 2.067 15.5737 5.167ZM8.5437 5.167C8.5437 3.217 9.2437 1.897 10.3037 1.897C11.3737 1.897 12.0837 3.217 12.0837 5.167C12.0837 7.137 11.3737 8.437 10.3037 8.437C9.2437 8.437 8.5437 7.137 8.5437 5.167ZM17.4737 5.167C17.4737 3.217 18.1837 1.897 19.2537 1.897C20.3137 1.897 21.0137 3.217 21.0137 5.167C21.0137 7.137 20.3137 8.437 19.2537 8.437C18.1837 8.437 17.4737 7.137 17.4737 5.167ZM0.0037 13.067C0.0037 16.177 1.4537 18.247 3.6637 18.247C5.8637 18.247 7.3437 16.177 7.3437 13.067C7.3437 9.967 5.8637 7.887 3.6637 7.887C1.4537 7.887 0.0037 9.967 0.0037 13.067ZM22.2137 13.067C22.2137 16.177 23.6937 18.247 25.8937 18.247C28.1137 18.247 29.5537 16.177 29.5537 13.067C29.5537 9.967 28.1137 7.887 25.8937 7.887C23.6937 7.887 22.2137 9.967 22.2137 13.067ZM1.9037 13.067C1.9037 11.097 2.5937 9.787 3.6637 9.787C4.7337 9.787 5.4437 11.097 5.4437 13.067C5.4437 15.037 4.7337 16.347 3.6637 16.347C2.5937 16.347 1.9037 15.037 1.9037 13.067ZM24.1137 13.067C24.1137 11.097 24.8237 9.787 25.8937 9.787C26.9637 9.787 27.6537 11.097 27.6537 13.067C27.6537 15.037 26.9637 16.347 25.8937 16.347C24.8237 16.347 24.1137 15.037 24.1137 13.067ZM9.4837 28.957C10.8537 28.957 11.8037 28.627 12.5737 28.297C13.3837 27.957 14.0037 27.607 14.7637 27.607C15.5137 27.607 16.1337 27.957 16.9537 28.297C17.7337 28.627 18.6637 28.957 20.0337 28.957C22.9837 28.957 25.2237 26.827 25.2237 24.017C25.2237 21.247 23.6537 19.947 22.2737 18.837C21.5437 18.277 20.9037 17.777 20.5337 17.147C20.1837 16.557 19.8937 15.897 19.6037 15.247C18.7137 13.177 17.7637 11.047 14.7637 11.047C11.7537 11.047 10.8137 13.177 9.9237 15.227C9.6237 15.897 9.3537 16.547 9.0137 17.117C8.6237 17.747 7.9737 18.277 7.2637 18.837C5.8837 19.947 4.3037 21.257 4.3037 24.017C4.3037 26.827 6.5537 28.957 9.4837 28.957ZM9.4837 26.977C7.6337 26.977 6.2937 25.747 6.2937 24.017C6.2937 20.827 8.9237 21.097 10.6137 18.227C11.8537 16.117 12.2737 13.027 14.7637 13.027C17.2537 13.027 17.6637 16.117 18.9237 18.247C20.6037 21.097 23.2437 20.827 23.2437 24.017C23.2437 25.747 21.9037 26.977 20.0337 26.977C18.1337 26.977 16.8837 25.637 14.7637 25.637C12.6437 25.637 11.4037 26.977 9.4837 26.977Z"
        fillRule="evenodd"
        clipRule="evenodd"
    />
</svg>
        