
<svg
    viewBox={0 0 26.49609375 27.166015625}
    xmlns="http://www.w3.org/2000/svg"
>
    <path
        fill="inherit"
        d="M0.0037 19.9423C0.0037 22.3223 1.1637 23.4623 3.4837 23.4623H6.0037C6.5337 23.8723 7.3037 24.2223 8.2437 24.5023L6.1937 25.4423C5.3737 25.8123 5.4537 27.1623 6.6837 27.1623H19.8137C21.0437 27.1623 21.1237 25.8123 20.3037 25.4423L18.2537 24.5023C19.1937 24.2223 19.9637 23.8723 20.4937 23.4623H23.0137C25.3337 23.4623 26.4937 22.3223 26.4937 19.9423V3.5123C26.4937 1.1223 25.3237 0.0023 22.9837 0.0023H3.5137C1.1737 0.0023 0.0037 1.1223 0.0037 3.5123ZM2.2037 17.7023V3.5523C2.2037 2.5823 2.6137 2.2023 3.5537 2.2023H22.9437C23.8837 2.2023 24.2937 2.5823 24.2937 3.5523V17.7023C24.2937 18.6623 23.8837 19.0423 22.9437 19.0423H3.5537C2.6137 19.0423 2.2037 18.6623 2.2037 17.7023ZM7.3537 8.0423C7.3537 8.8823 7.8237 9.7223 8.2337 10.0723C8.3437 10.1723 8.4637 10.2123 8.5837 10.2123C8.8137 10.2123 8.9937 10.0323 8.9937 9.8123C8.9937 9.6423 8.9037 9.5423 8.7737 9.4223C8.3837 9.0223 8.2137 8.5323 8.2137 8.0423C8.2137 7.5323 8.4037 7.0723 8.7737 6.6623C8.9037 6.5223 8.9937 6.4223 8.9937 6.2523C8.9937 6.0323 8.8137 5.8523 8.5837 5.8523C8.4737 5.8523 8.3437 5.9023 8.2337 6.0023C7.6937 6.4523 7.3537 7.1923 7.3537 8.0423ZM5.7237 7.5323C6.0937 7.5323 6.3837 7.2323 6.3837 6.8723C6.3837 6.5123 6.0937 6.2023 5.7237 6.2023C5.3637 6.2023 5.0737 6.5123 5.0737 6.8723C5.0737 7.2323 5.3637 7.5323 5.7237 7.5323ZM5.7237 9.9923C6.0937 9.9923 6.3837 9.6923 6.3837 9.3223C6.3837 8.9723 6.0937 8.6723 5.7237 8.6723C5.3637 8.6723 5.0737 8.9723 5.0737 9.3223C5.0737 9.6923 5.3637 9.9923 5.7237 9.9923ZM5.5737 13.0723H14.5637C14.8437 13.0723 15.0437 12.8823 15.0437 12.5623C15.0437 12.2723 14.8437 12.1023 14.5637 12.1023H5.5737C5.2737 12.1023 5.0737 12.2723 5.0737 12.5623C5.0737 12.8823 5.2737 13.0723 5.5737 13.0723ZM5.5737 15.3823H11.9737C12.2537 15.3823 12.4737 15.1723 12.4737 14.8723C12.4737 14.5923 12.2537 14.4123 11.9737 14.4123H5.5737C5.2737 14.4123 5.0737 14.5923 5.0737 14.8723C5.0737 15.1723 5.2737 15.3823 5.5737 15.3823ZM20.9737 22.0423C20.4837 22.0423 20.0437 21.6023 20.0437 21.0823C20.0437 20.5923 20.4837 20.1523 20.9737 20.1523C21.5037 20.1523 21.9337 20.5923 21.9337 21.0823C21.9337 21.6023 21.5037 22.0423 20.9737 22.0423Z"
        fillRule="evenodd"
        clipRule="evenodd"
    />
</svg>
        