<svg viewBox="0 0 27.890625 27.890625" xmlns="http://www.w3.org/2000/svg"><path d="M13.9427 27.8864C21.6427 27.8864 27.8927 21.6464 27.8927 13.9464C27.8927 6.2464 21.6427 -0.0036 13.9427 -0.0036C6.2527 -0.0036 0.0027 6.2464 0.0027 13.9464C0.0027 21.6464 6.2527 27.8864 13.9427 27.8864ZM2.3227 13.9464C2.3227 7.8864 6.9427 2.9264 12.8527 2.3764V13.2164L4.5927 20.8464C3.1627 18.9064 2.3227 16.5264 2.3227 13.9464ZM15.0527 13.2664V2.3764C20.9627 2.9264 25.5627 7.8864 25.5627 13.9464C25.5627 16.5264 24.7227 18.9264 23.2927 20.8664ZM12.8527 16.3064V25.5164C10.2427 25.2664 7.8927 24.1764 6.0727 22.4864ZM15.0527 16.3564L21.8027 22.5064C20.0027 24.1764 17.6527 25.2664 15.0527 25.5164Z" /></svg>