
<svg
    viewBox={0 0 23.21484375 29.3671875}
    xmlns="http://www.w3.org/2000/svg"
>
    <path
        fill="inherit"
        d="M7.9537 29.3647H19.0437C21.6437 29.3647 23.2037 27.8347 23.2037 25.2647L23.2137 4.1447C23.2137 1.6847 21.5637 0.0047 19.0837 0.0047H5.9037C2.2737 0.0047 0.0037 2.2947 0.0037 5.9247V8.0147C0.0037 11.6647 0.8637 14.1047 2.8437 16.6747L3.8037 17.9347V25.2647C3.8037 27.8347 5.3637 29.3647 7.9537 29.3647ZM7.9537 27.1647C6.7837 27.1647 6.0037 26.4147 6.0037 25.2547V17.1947L4.5837 15.3247C2.9437 13.1747 2.2037 11.0747 2.2037 7.9447V5.9347C2.2037 3.6547 3.6237 2.2047 5.9237 2.2047H19.0837C20.2437 2.2047 21.0137 2.9647 21.0137 4.1447L21.0037 25.2547C21.0037 26.4147 20.2237 27.1647 19.0437 27.1647ZM5.8637 8.6247H17.8137C18.3037 8.6247 18.7037 8.2347 18.7037 7.7347C18.7037 7.2447 18.3037 6.8347 17.8137 6.8347H5.8637C5.3737 6.8347 4.9737 7.2447 4.9737 7.7347C4.9737 8.2347 5.3737 8.6247 5.8637 8.6247ZM7.0937 13.6947H17.8137C18.3037 13.6947 18.7037 13.2847 18.7037 12.7947C18.7037 12.3047 18.3037 11.9047 17.8137 11.9047H7.0937C6.6037 11.9047 6.1937 12.3047 6.1937 12.7947C6.1937 13.2847 6.6037 13.6947 7.0937 13.6947ZM9.1837 18.7347H17.8137C18.3037 18.7347 18.7037 18.3347 18.7037 17.8447C18.7037 17.3447 18.3037 16.9347 17.8137 16.9347H9.1837C8.6937 16.9347 8.2837 17.3447 8.2837 17.8447C8.2837 18.3347 8.6937 18.7347 9.1837 18.7347ZM9.1837 23.8047H17.8137C18.3037 23.8047 18.7037 23.3947 18.7037 22.9047C18.7037 22.4047 18.3037 22.0147 17.8137 22.0147H9.1837C8.6937 22.0147 8.2837 22.4047 8.2837 22.9047C8.2837 23.3947 8.6937 23.8047 9.1837 23.8047Z"
        fillRule="evenodd"
        clipRule="evenodd"
    />
</svg>
        