
<svg
    viewBox={0 0 23.268811169723914 29.331925589288613}
    xmlns="http://www.w3.org/2000/svg"
>
    <path
        fill="inherit"
        d="M6.313 29.3294H19.113C21.693 29.3294 23.253 27.7994 23.253 25.2294L23.273 6.1894C23.273 3.6794 21.823 2.0194 19.103 1.3494C15.843 0.5394 12.533 0.0894 9.023 0.0094C4.253 -0.1206 1.173 1.7294 0.583 6.0094C-0.167 11.5694 -0.197 19.2994 0.493 24.3294C0.893 27.4194 3.103 29.3294 6.313 29.3294ZM5.823 11.8894C5.303 11.8894 4.883 11.4794 4.883 10.9694C4.883 10.4494 5.303 10.0294 5.823 10.0294H17.773C18.293 10.0294 18.713 10.4494 18.713 10.9694C18.713 11.4794 18.293 11.8894 17.773 11.8894ZM5.823 16.5594C5.303 16.5594 4.883 16.1494 4.883 15.6494C4.883 15.1394 5.303 14.7194 5.823 14.7194H17.773C18.293 14.7194 18.713 15.1394 18.713 15.6494C18.713 16.1494 18.293 16.5594 17.773 16.5594ZM5.823 21.2494C5.303 21.2494 4.883 20.8394 4.883 20.3094C4.883 19.7994 5.303 19.3894 5.823 19.3894H17.773C18.293 19.3894 18.713 19.7994 18.713 20.3094C18.713 20.8394 18.293 21.2494 17.773 21.2494Z"
        fillRule="evenodd"
        clipRule="evenodd"
    />
</svg>
        