
<svg
    viewBox="0 0 23.268811169723914 29.331925589288613"
    xmlns="http://www.w3.org/2000/svg"
>
    <path
        fill="inherit"
        d="M6.313 29.3294H19.113C21.693 29.3294 23.253 27.7994 23.253 25.2294L23.273 6.1894C23.273 3.6794 21.823 2.0194 19.103 1.3494C15.843 0.5394 12.533 0.0894 9.023 0.0094C4.253 -0.1206 1.173 1.7294 0.583 6.0094C-0.167 11.5694 -0.197 19.2994 0.493 24.3294C0.893 27.4194 3.103 29.3294 6.313 29.3294ZM6.383 27.1294C4.323 27.1294 2.913 26.0794 2.693 24.3394C2.013 19.2794 2.033 11.6694 2.763 6.2994C3.173 3.3594 5.363 2.1294 8.813 2.2094C12.373 2.2894 15.733 2.7394 19.043 3.5294C20.393 3.8794 21.083 4.7794 21.083 6.2294L21.063 25.1894C21.063 26.6394 20.493 27.1294 19.073 27.1294ZM6.003 11.9994H17.593C18.083 11.9994 18.493 11.5994 18.493 11.1094C18.493 10.6194 18.083 10.2094 17.593 10.2094H6.003C5.513 10.2094 5.103 10.6194 5.103 11.1094C5.103 11.5994 5.513 11.9994 6.003 11.9994ZM6.003 16.5394H17.593C18.083 16.5394 18.493 16.1394 18.493 15.6494C18.493 15.1494 18.083 14.7394 17.593 14.7394H6.003C5.513 14.7394 5.103 15.1494 5.103 15.6494C5.103 16.1394 5.513 16.5394 6.003 16.5394ZM6.003 21.0694H17.593C18.083 21.0694 18.493 20.6794 18.493 20.1694C18.493 19.6794 18.083 19.2794 17.593 19.2794H6.003C5.513 19.2794 5.103 19.6794 5.103 20.1694C5.103 20.6794 5.513 21.0694 6.003 21.0694Z"
        fillRule="evenodd"
        clipRule="evenodd"
    />
</svg>
        