
<svg
    viewBox="0 0 27.282225784309365 23.703296244170055"
    xmlns="http://www.w3.org/2000/svg"
>
    <path
        fill="inherit"
        d="M4.3337 23.6985H20.3337C24.8937 23.6985 26.4837 21.4485 27.0337 16.6985C27.3837 13.6985 27.3837 10.7185 26.9037 6.6685C26.3437 1.6185 23.5337 -0.4815 18.1437 0.0885L4.8937 1.5985C1.6937 1.9485 0.0037 3.7585 0.0037 6.7485V19.4085C0.0037 22.1185 1.6137 23.6985 4.3337 23.6985ZM4.3437 21.5185C3.0337 21.5185 2.1737 20.6985 2.1737 19.4085V6.7485C2.1737 5.0285 3.2137 3.9885 5.1137 3.7685L18.3737 2.2785C22.3237 1.8385 24.3537 3.2385 24.7337 6.6785C25.2137 10.7285 25.2137 13.6985 24.8537 16.6885C24.4137 20.4385 23.8037 21.5185 20.3337 21.5185ZM6.3537 8.9685H20.7237C21.2237 8.9685 21.6137 8.5685 21.6137 8.0785C21.6137 7.5885 21.2237 7.1785 20.7237 7.1785H6.3537C5.8637 7.1785 5.4737 7.5885 5.4737 8.0785C5.4737 8.5685 5.8637 8.9685 6.3537 8.9685ZM6.3537 13.5085H20.7237C21.2237 13.5085 21.6137 13.1085 21.6137 12.6185C21.6137 12.1185 21.2237 11.7085 20.7237 11.7085H6.3537C5.8637 11.7085 5.4737 12.1185 5.4737 12.6185C5.4737 13.1085 5.8637 13.5085 6.3537 13.5085ZM6.3537 18.0385H20.7237C21.2237 18.0385 21.6137 17.6485 21.6137 17.1385C21.6137 16.6485 21.2237 16.2485 20.7237 16.2485H6.3537C5.8637 16.2485 5.4737 16.6485 5.4737 17.1385C5.4737 17.6485 5.8637 18.0385 6.3537 18.0385Z"
        fillRule="evenodd"
        clipRule="evenodd"
    />
</svg>
        