
<svg
    viewBox={0 0 27.282225784309365 23.703296244170055}
    xmlns="http://www.w3.org/2000/svg"
>
    <path
        fill="inherit"
        d="M4.3337 23.6985H20.3337C24.8937 23.6985 26.4837 21.4485 27.0337 16.6985C27.3837 13.6985 27.3837 10.7185 26.9037 6.6685C26.3437 1.6185 23.5337 -0.4815 18.1437 0.0885L4.8937 1.5985C1.6937 1.9485 0.0037 3.7585 0.0037 6.7485V19.4085C0.0037 22.1185 1.6137 23.6985 4.3337 23.6985ZM6.1437 8.8585C5.6237 8.8585 5.2137 8.4485 5.2137 7.9385C5.2137 7.4185 5.6237 6.9985 6.1437 6.9985H20.9437C21.4637 6.9985 21.8737 7.4185 21.8737 7.9385C21.8737 8.4485 21.4637 8.8585 20.9437 8.8585ZM6.1437 13.5285C5.6237 13.5285 5.2137 13.1185 5.2137 12.6185C5.2137 12.1085 5.6237 11.6885 6.1437 11.6885H20.9437C21.4637 11.6885 21.8737 12.1085 21.8737 12.6185C21.8737 13.1185 21.4637 13.5285 20.9437 13.5285ZM6.1437 18.2185C5.6237 18.2185 5.2137 17.8085 5.2137 17.2785C5.2137 16.7685 5.6237 16.3585 6.1437 16.3585H20.9437C21.4637 16.3585 21.8737 16.7685 21.8737 17.2785C21.8737 17.8085 21.4637 18.2185 20.9437 18.2185Z"
        fillRule="evenodd"
        clipRule="evenodd"
    />
</svg>
        