<svg viewBox="0 0 32.826171875 29.01171875" xmlns="http://www.w3.org/2000/svg"><path d="M1.1037 29.007C1.7137 29.007 2.2037 28.517 2.2037 27.917V1.097C2.2037 0.497 1.7137 -0.003 1.1037 -0.003C0.4937 -0.003 0.0037 0.497 0.0037 1.097V27.917C0.0037 28.517 0.4937 29.007 1.1037 29.007ZM4.7837 26.877H28.0437C28.6437 26.877 29.0237 26.497 29.0237 25.917V25.127H30.6237V27.917C30.6237 28.517 31.1137 29.007 31.7337 29.007C32.3337 29.007 32.8237 28.517 32.8237 27.917V1.097C32.8237 0.497 32.3337 -0.003 31.7337 -0.003C31.1137 -0.003 30.6237 0.497 30.6237 1.097V3.927H29.0237V3.147C29.0237 2.567 28.6437 2.177 28.0437 2.177H4.7837C4.1837 2.177 3.8037 2.567 3.8037 3.147V6.507C3.8037 7.087 4.1837 7.467 4.7837 7.467H28.0437C28.6437 7.467 29.0237 7.087 29.0237 6.507V5.717H30.6237V10.407H29.0237V9.607C29.0237 9.037 28.6437 8.657 28.0437 8.657H4.7837C4.1837 8.657 3.8037 9.037 3.8037 9.607V12.977C3.8037 13.547 4.1837 13.947 4.7837 13.947H28.0437C28.6437 13.947 29.0237 13.547 29.0237 12.977V12.197H30.6237V16.867H29.0237V16.077C29.0237 15.507 28.6437 15.117 28.0437 15.117H4.7837C4.1837 15.117 3.8037 15.507 3.8037 16.077V19.437C3.8037 20.027 4.1837 20.417 4.7837 20.417H28.0437C28.6437 20.417 29.0237 20.027 29.0237 19.437V18.667H30.6237V23.337H29.0237V22.557C29.0237 21.987 28.6437 21.587 28.0437 21.587H4.7837C4.1837 21.587 3.8037 21.987 3.8037 22.557V25.917C3.8037 26.497 4.1837 26.877 4.7837 26.877Z" /></svg>