<svg viewBox="0 0 23.92578125 30.556640625" xmlns="http://www.w3.org/2000/svg"><path d="M0.0037 3.502H3.4337V1.542C3.4337 0.562 2.9237 0.002 2.0337 0.002H1.3637C0.4937 0.002 0.0037 0.592 0.0037 1.542ZM13.7937 30.552H20.5737C22.5537 30.552 23.9237 29.192 23.9237 27.212V3.572C23.9237 1.572 22.5537 0.192 20.5737 0.192H13.7937C11.8137 0.192 10.4637 1.562 10.4637 3.552V27.192C10.4637 29.192 11.8137 30.552 13.7937 30.552ZM14.1637 28.562C13.1237 28.562 12.4537 27.892 12.4537 26.892V3.872C12.4537 2.872 13.1237 2.202 14.1637 2.202H20.2237C21.2437 2.202 21.9137 2.872 21.9137 3.872V3.912H16.0937C15.8137 3.912 15.5837 4.132 15.5837 4.432C15.5837 4.702 15.8037 4.952 16.0737 4.952H21.9137V6.112H18.2637C17.9737 6.112 17.7737 6.312 17.7737 6.632C17.7737 6.902 17.9637 7.122 18.2537 7.122H21.9137V8.312H18.2637C17.9737 8.312 17.7737 8.522 17.7737 8.832C17.7737 9.102 17.9637 9.322 18.2537 9.322H21.9137V10.482H18.2637C17.9737 10.482 17.7737 10.692 17.7737 10.992C17.7737 11.292 17.9637 11.512 18.2537 11.512H21.9137V12.672H18.2637C17.9737 12.672 17.7737 12.892 17.7737 13.212C17.7737 13.462 17.9637 13.702 18.2537 13.702H21.9137V14.872H16.0937C15.8137 14.872 15.5837 15.082 15.5837 15.382C15.5837 15.672 15.8037 15.872 16.0737 15.872H21.9137V17.062H18.2637C17.9737 17.062 17.7737 17.272 17.7737 17.572C17.7737 17.852 17.9637 18.092 18.2537 18.092H21.9137V19.262H18.2637C17.9737 19.262 17.7737 19.452 17.7737 19.772C17.7737 20.042 17.9637 20.272 18.2537 20.272H21.9137V21.442H18.2637C17.9737 21.442 17.7737 21.652 17.7737 21.942C17.7737 22.212 17.9637 22.452 18.2537 22.452H21.9137V23.622H18.2637C17.9737 23.622 17.7737 23.812 17.7737 24.122C17.7737 24.422 17.9637 24.632 18.2537 24.632H21.9137V25.802H16.0937C15.8137 25.802 15.5837 26.022 15.5837 26.322C15.5837 26.592 15.8037 26.822 16.0737 26.822H21.9137V26.882C21.9137 27.882 21.2437 28.562 20.2237 28.562ZM0.0037 27.192L1.2437 30.252C1.3837 30.572 1.8837 30.602 2.0337 30.272L3.4337 27.192V5.102H0.0037Z" /></svg>