
<svg
    viewBox={0 0 27.890625 27.890625}
    xmlns="http://www.w3.org/2000/svg"
>
    <path
        fill="inherit"
        d="M13.9427 27.8927C21.6427 27.8927 27.8927 21.6427 27.8927 13.9427C27.8927 6.2627 21.6427 0.0027 13.9427 0.0027C6.2627 0.0027 0.0027 6.2627 0.0027 13.9427C0.0027 21.6427 6.2627 27.8927 13.9427 27.8927ZM19.5227 10.0127L17.8427 8.3427L18.8827 7.3027C19.3427 6.8627 19.8627 6.8127 20.2927 7.2327L20.6027 7.5627C21.0427 7.9827 21.0127 8.5127 20.5527 8.9827ZM9.4327 20.0527L7.4827 20.7927C7.1827 20.9027 6.8327 20.6027 6.9827 20.2527L7.7827 18.3927L16.9927 9.1727L18.6727 10.8527Z"
        fillRule="evenodd"
        clipRule="evenodd"
    />
</svg>
        