
<svg
    viewBox="0 0 37.361690146950714 24.44292889162181"
    xmlns="http://www.w3.org/2000/svg"
>
    <path
        fill="inherit"
        d="M35.4261 4.322L36.8061 2.972C37.5061 2.272 37.5461 1.522 36.9161 0.892L36.4561 0.432C35.8261 -0.188 35.0761 -0.128 34.3861 0.552L32.9961 1.922ZM19.6761 20.032L34.2261 5.502L31.8361 3.092L17.2861 17.622L15.9861 20.662C15.8461 20.992 16.1861 21.372 16.5361 21.232ZM0.2861 20.932C1.5061 24.932 7.5461 25.572 14.0861 22.562L13.3761 21.062C7.8661 23.612 2.7361 23.292 1.8861 20.462C-0.2739 13.392 14.9361 12.592 13.1861 6.652C12.3061 3.722 5.5561 4.202 0.7261 7.452C-0.2439 8.082 0.6861 9.482 1.6461 8.822C5.1461 6.502 11.1161 5.582 11.5861 7.112C11.9261 8.262 10.9661 9.112 7.1961 11.212C3.5161 13.252 -1.2239 15.942 0.2861 20.932Z"
        fillRule="evenodd"
        clipRule="evenodd"
    />
</svg>
        