<svg viewBox="0 0 17.22927311597454 25.826171875" xmlns="http://www.w3.org/2000/svg"><path d="M1.1051 25.8273C1.7451 25.8273 2.0551 25.4873 2.1651 24.9273L4.6551 12.2473H12.5551L15.0451 24.9273C15.1551 25.4873 15.4751 25.8273 16.1151 25.8273C17.0251 25.8273 17.3451 25.1973 17.1951 24.4573L14.6351 11.4473C14.4751 10.5773 13.7451 9.9573 12.9151 9.9573H12.8451L9.8151 0.8973C9.6051 0.3273 9.2251 -0.0027 8.6351 -0.0027C8.0151 -0.0027 7.5951 0.3273 7.4051 0.8973L4.3651 9.9573H4.3151C3.4851 9.9573 2.7551 10.5773 2.5951 11.4473L0.0351 24.4573C-0.1149 25.1973 0.2151 25.8273 1.1051 25.8273Z" /></svg>