<svg viewBox="0 0 23.65234375 30.5703125" xmlns="http://www.w3.org/2000/svg"><path d="M0.0037 3.502H3.4337V1.542C3.4337 0.562 2.9237 0.002 2.0337 0.002H1.3637C0.4937 0.002 0.0037 0.592 0.0037 1.542ZM13.5237 30.572H20.3037C22.2837 30.572 23.6537 29.202 23.6537 27.212V3.572C23.6537 1.572 22.2837 0.192 20.3037 0.192H13.5237C11.5437 0.192 10.1837 1.572 10.1837 3.582V27.212C10.1837 29.202 11.5437 30.572 13.5237 30.572ZM21.5837 3.912H15.8337C15.5437 3.912 15.3137 3.692 15.3137 3.392C15.3137 3.122 15.5337 2.902 15.8137 2.902H21.5837ZM0.0037 27.192L1.2437 30.252C1.3837 30.572 1.8837 30.602 2.0337 30.272L3.4337 27.192V5.102H0.0037ZM21.5837 6.302H17.9937C17.7037 6.302 17.5037 6.102 17.5037 5.792C17.5037 5.512 17.6937 5.292 17.9737 5.292H21.5837ZM21.5837 8.712H17.9937C17.7037 8.712 17.5037 8.502 17.5037 8.202C17.5037 7.912 17.6937 7.702 17.9737 7.702H21.5837ZM21.5837 11.102H17.9937C17.7037 11.102 17.5037 10.912 17.5037 10.592C17.5037 10.312 17.6937 10.072 17.9737 10.072H21.5837ZM21.5837 13.492H17.9937C17.7037 13.492 17.5037 13.302 17.5037 13.002C17.5037 12.732 17.6937 12.482 17.9737 12.482H21.5837ZM21.5837 15.902H15.8337C15.5437 15.902 15.3137 15.692 15.3137 15.392C15.3137 15.122 15.5337 14.872 15.8137 14.872H21.5837ZM21.5837 18.302H17.9937C17.7037 18.302 17.5037 18.102 17.5037 17.802C17.5037 17.512 17.6937 17.282 17.9737 17.282H21.5837ZM21.5837 20.712H17.9937C17.7037 20.712 17.5037 20.492 17.5037 20.192C17.5037 19.922 17.6937 19.702 17.9737 19.702H21.5837ZM21.5837 23.092H17.9937C17.7037 23.092 17.5037 22.882 17.5037 22.582C17.5037 22.302 17.6937 22.082 17.9737 22.082H21.5837ZM21.5837 25.502H17.9937C17.7037 25.502 17.5037 25.292 17.5037 24.982C17.5037 24.702 17.6937 24.482 17.9737 24.482H21.5837ZM21.5837 27.882H15.8337C15.5437 27.882 15.3137 27.682 15.3137 27.382C15.3137 27.102 15.5337 26.862 15.8137 26.862H21.5837Z" /></svg>