
<svg
    viewBox="0 0 21.78873385943198 21.645615138171554"
    xmlns="http://www.w3.org/2000/svg"
>
    <path
        fill="inherit"
        d="M19.8582 4.3265L21.2382 2.9665C21.9282 2.2665 21.9782 1.5365 21.3482 0.8865L20.8782 0.4365C20.2482 -0.1935 19.4982 -0.1335 18.8182 0.5465L17.4182 1.9165ZM19.7682 19.4865C20.1782 19.8965 20.8682 19.8965 21.2582 19.4865C21.6582 19.0565 21.6682 18.4065 21.2582 17.9965L4.0782 0.8065C3.6682 0.3965 2.9682 0.3865 2.5682 0.8065C2.1582 1.2065 2.1582 1.9065 2.5682 2.2965ZM14.8382 9.3165L18.6482 5.4965L16.2582 3.0965L12.4482 6.9065ZM3.7382 20.3965L11.1082 13.0265L8.6982 10.6365L1.3282 17.9965L0.0282 21.0465C-0.1018 21.3665 0.2482 21.7565 0.5782 21.6165Z"
        fillRule="evenodd"
        clipRule="evenodd"
    />
</svg>
        