
<svg
    viewBox="0 0 27.890625 27.890625"
    xmlns="http://www.w3.org/2000/svg"
>
    <path
        fill="inherit"
        d="M13.9427 27.8864C21.6427 27.8864 27.8927 21.6464 27.8927 13.9464C27.8927 6.2464 21.6427 -0.0036 13.9427 -0.0036C6.2527 -0.0036 0.0027 6.2464 0.0027 13.9464C0.0027 21.6464 6.2527 27.8864 13.9427 27.8864ZM13.9427 25.5664C7.5227 25.5664 2.3227 20.3664 2.3227 13.9464C2.3227 7.5164 7.5227 2.3264 13.9427 2.3264C20.3727 2.3264 25.5627 7.5164 25.5627 13.9464C25.5627 20.3664 20.3727 25.5664 13.9427 25.5664ZM19.3427 10.1164L20.3327 9.1164C20.7627 8.6564 20.8127 8.1664 20.4027 7.7564L20.0827 7.4364C19.6727 7.0264 19.1727 7.0664 18.7327 7.5064L17.7327 8.4864ZM9.5527 19.8664L18.5227 10.9264L16.9127 9.3064L7.9527 18.2364L7.1827 20.0564C7.0427 20.3964 7.3727 20.6864 7.6727 20.5764Z"
        fillRule="evenodd"
        clipRule="evenodd"
    />
</svg>
        