
<svg
    viewBox={0 0 27.890625 27.890625}
    xmlns="http://www.w3.org/2000/svg"
>
    <path
        fill="inherit"
        d="M13.9427 27.8864C21.6427 27.8864 27.8927 21.6264 27.8927 13.9464C27.8927 6.2464 21.6427 -0.0036 13.9427 -0.0036C6.2627 -0.0036 0.0027 6.2464 0.0027 13.9464C0.0027 21.6264 6.2627 27.8864 13.9427 27.8864ZM11.1027 16.3264L9.5827 23.5064C9.3527 24.6264 7.5927 24.3664 7.8627 23.0764L9.4227 15.7264C9.5427 15.0764 10.0727 14.6064 10.6927 14.5564H10.7827L13.0527 7.7364C13.3527 6.8364 14.5427 6.8464 14.8427 7.7364L17.1127 14.5564H17.2127C17.8427 14.6064 18.3627 15.0764 18.4827 15.7364L20.0527 23.0764C20.3127 24.3664 18.5527 24.6264 18.3327 23.5064L16.8127 16.3264Z"
        fillRule="evenodd"
        clipRule="evenodd"
    />
</svg>
        