
<svg
    viewBox="0 0 27.890625 27.890625"
    xmlns="http://www.w3.org/2000/svg"
>
    <path
        fill="inherit"
        d="M13.9427 27.8864C21.6427 27.8864 27.8927 21.6464 27.8927 13.9464C27.8927 6.2464 21.6427 -0.0036 13.9427 -0.0036C6.2527 -0.0036 0.0027 6.2464 0.0027 13.9464C0.0027 21.6464 6.2527 27.8864 13.9427 27.8864ZM13.0527 7.7364L10.7727 14.5564H10.7627C10.1127 14.5564 9.5527 15.0564 9.4227 15.7264L7.7127 23.7664C4.4727 21.6964 2.3227 18.0764 2.3227 13.9464C2.3227 7.5164 7.5227 2.3264 13.9427 2.3264C20.3727 2.3264 25.5627 7.5164 25.5627 13.9464C25.5627 18.0764 23.4227 21.6864 20.1927 23.7464L18.4827 15.7364C18.3427 15.0564 17.8027 14.5564 17.1427 14.5564H17.1327L14.8427 7.7364C14.5427 6.8464 13.3527 6.8464 13.0527 7.7364ZM13.9427 25.5664C12.3027 25.5664 10.7627 25.2264 9.3427 24.6264L11.1027 16.3264H16.8027L18.5627 24.6064C17.1427 25.2264 15.5827 25.5664 13.9427 25.5664Z"
        fillRule="evenodd"
        clipRule="evenodd"
    />
</svg>
        