
<svg
    viewBox="0 0 29.600411724407543 28.91259765625"
    xmlns="http://www.w3.org/2000/svg"
>
    <path
        fill="inherit"
        d="M0.2653 13.4248L4.2953 25.9548C4.9053 27.9148 6.2653 28.9148 8.3453 28.9148H21.2753C23.3553 28.9148 24.7053 27.9148 25.3253 25.9548L29.3253 13.4748C29.9753 11.4548 29.4753 9.8548 27.8353 8.6548L17.3653 0.9548C15.6453 -0.3152 13.9753 -0.3152 12.2553 0.9548L1.7753 8.6548C0.1353 9.8548 -0.3647 11.4448 0.2653 13.4248ZM2.3353 12.7548C1.9953 11.7148 2.2153 11.0848 3.1053 10.4148L13.5653 2.7048C14.4753 2.0348 15.1353 2.0348 16.0353 2.7048L26.4953 10.4148C27.3953 11.0848 27.6053 11.7248 27.2653 12.7948L23.2553 25.2848C22.9153 26.3248 22.3853 26.7148 21.2753 26.7148H8.3453C7.2353 26.7148 6.7053 26.3248 6.3553 25.2848Z"
        fillRule="evenodd"
        clipRule="evenodd"
    />
</svg>
        