<svg viewBox="0 0 29.600411724407543 28.91259765625" xmlns="http://www.w3.org/2000/svg"><path d="M0.2626 13.4248L4.2926 25.9548C4.9126 27.9148 6.2626 28.9148 8.3426 28.9148H21.2726C23.3526 28.9148 24.7026 27.9148 25.3226 25.9548L29.3326 13.4748C29.9726 11.4548 29.4826 9.8548 27.8426 8.6548L17.3626 0.9548C15.6426 -0.3152 13.9726 -0.3152 12.2526 0.9548L1.7826 8.6548C0.1426 9.8548 -0.3674 11.4448 0.2626 13.4248ZM14.8126 2.2148C15.1926 2.2148 15.5926 2.3648 16.0426 2.7048L26.5026 10.4148C27.4026 11.0848 27.6026 11.7248 27.2626 12.7948L23.2526 25.2848C22.9126 26.3248 22.3826 26.7148 21.2726 26.7148H14.8126Z" /></svg>