
<svg
    viewBox="0 0 29.602701492071233 28.91259765625"
    xmlns="http://www.w3.org/2000/svg"
>
    <path
        fill="inherit"
        d="M29.3401 13.4248C29.9701 11.4448 29.4801 9.8548 27.8201 8.6548L17.3501 0.9548C15.6401 -0.3152 13.9601 -0.3152 12.2401 0.9548L1.7601 8.6548C0.1201 9.8548 -0.3699 11.4548 0.2701 13.4748L4.2801 25.9548C4.8901 27.9148 6.2601 28.9148 8.3401 28.9148H21.2601C23.3401 28.9148 24.6901 27.9148 25.3201 25.9548ZM14.8101 2.2148V26.7148H8.3401C7.2301 26.7148 6.6801 26.3248 6.3401 25.2848L2.3501 12.7948C2.0001 11.7248 2.2001 11.0848 3.1001 10.4148L13.5601 2.7048C14.0101 2.3648 14.4201 2.2148 14.8101 2.2148Z"
        fillRule="evenodd"
        clipRule="evenodd"
    />
</svg>
        