<svg viewBox="0 0 24.978515625 26.127119618484947" xmlns="http://www.w3.org/2000/svg"><path d="M3.7437 25.9547C4.2537 26.2447 4.9937 26.2047 5.4237 25.5747L21.4937 1.8247C21.9737 1.1447 21.6837 0.4447 21.1737 0.1447C20.7037 -0.1153 20.0337 -0.0653 19.5537 0.6247L3.4837 24.3047C2.9937 24.9947 3.2437 25.6547 3.7437 25.9547ZM4.7337 12.7447C7.6737 12.7447 9.4437 10.3247 9.4437 6.4747C9.4437 2.6147 7.6537 0.2347 4.7337 0.2347C1.7937 0.2347 0.0037 2.6347 0.0037 6.4747C0.0037 10.3447 1.7737 12.7447 4.7337 12.7447ZM4.7337 10.8347C3.1437 10.8347 2.2037 9.2347 2.2037 6.4747C2.2037 3.7547 3.1537 2.1447 4.7337 2.1447C6.3037 2.1447 7.2437 3.7347 7.2437 6.4747C7.2437 9.2347 6.3137 10.8347 4.7337 10.8347ZM20.2637 25.9047C23.2037 25.9047 24.9737 23.4847 24.9737 19.6447C24.9737 15.7747 23.1837 13.3947 20.2637 13.3947C17.3237 13.3947 15.5337 15.7847 15.5337 19.6447C15.5337 23.4947 17.3037 25.9047 20.2637 25.9047ZM20.2637 24.0047C18.6737 24.0047 17.7337 22.3847 17.7337 19.6447C17.7337 16.9047 18.6937 15.3047 20.2637 15.3047C21.8337 15.3047 22.7737 16.8947 22.7737 19.6447C22.7737 22.3847 21.8437 24.0047 20.2637 24.0047Z" /></svg>