<svg viewBox="0 0 27.890625 27.890625" xmlns="http://www.w3.org/2000/svg"><path d="M13.9427 27.8864C21.6427 27.8864 27.8927 21.6264 27.8927 13.9464C27.8927 6.2464 21.6427 -0.0036 13.9427 -0.0036C6.2627 -0.0036 0.0027 6.2464 0.0027 13.9464C0.0027 21.6264 6.2627 27.8864 13.9427 27.8864ZM13.9327 6.8364C13.1127 6.8364 12.3327 6.9764 11.5927 7.2364L10.9227 5.6164C11.8427 5.2764 12.9027 5.0564 13.9327 5.0564C14.9827 5.0564 16.0127 5.2764 16.9227 5.6164L16.2827 7.2364C15.5427 6.9764 14.7527 6.8364 13.9327 6.8364ZM20.3327 10.8464C19.6427 9.4064 18.4727 8.2264 17.0527 7.5464L17.7027 5.9064C19.5527 6.8064 21.0727 8.3364 21.9727 10.1764ZM10.8527 7.5464C9.4027 8.2464 8.2327 9.4064 7.5627 10.8464L5.9227 10.1764C6.8127 8.3364 8.3227 6.8064 10.1627 5.9164ZM13.9427 15.5764C12.2127 15.5564 10.8527 14.0964 10.8527 12.1864C10.8327 10.3664 12.2227 8.8564 13.9427 8.8564C15.6727 8.8564 17.0527 10.3664 17.0527 12.1864C17.0527 14.0964 15.6727 15.5864 13.9427 15.5764ZM6.8627 13.9464C6.8627 14.7664 6.9827 15.5464 7.2327 16.2864L5.6227 16.9564C5.2727 16.0264 5.0727 14.9864 5.0727 13.9464C5.0727 12.8964 5.2727 11.8564 5.6227 10.9364L7.2327 11.6064C6.9827 12.3464 6.8627 13.1064 6.8627 13.9464ZM21.0527 13.9464C21.0527 13.1064 20.9227 12.3464 20.6627 11.6064L22.2727 10.9364C22.6127 11.8664 22.8327 12.8964 22.8327 13.9464C22.8327 14.9864 22.6127 16.0264 22.2727 16.9564L20.6627 16.2864C20.9227 15.5464 21.0527 14.7664 21.0527 13.9464ZM13.9427 22.8164C10.4727 22.8164 7.3827 20.7164 5.9327 17.7164L7.5727 17.0364C7.8327 17.6064 8.1527 18.1164 8.5427 18.5564C9.5027 17.5864 11.4427 16.6764 13.9427 16.6764C16.4427 16.6764 18.4027 17.5864 19.3427 18.5664C19.7427 18.1164 20.0527 17.6064 20.3327 17.0364L21.9827 17.7164C20.5127 20.7164 17.4327 22.8164 13.9427 22.8164Z" /></svg>