
<svg
    viewBox={0 0 53.689453125 24.58203125}
    xmlns="http://www.w3.org/2000/svg"
>
    <path
        fill="inherit"
        d="M11.5137 11.9174C14.4337 11.9174 16.9837 9.2974 16.9837 5.8774C16.9837 2.4974 14.4337 -0.0026 11.5137 -0.0026C8.5837 -0.0026 6.0437 2.5574 6.0437 5.9074C6.0437 9.2974 8.5737 11.9174 11.5137 11.9174ZM26.8537 11.9174C29.7937 11.9174 32.3237 9.2974 32.3237 5.8774C32.3237 2.4974 29.7737 -0.0026 26.8537 -0.0026C23.9437 -0.0026 21.3837 2.5574 21.3937 5.9074C21.3937 9.2974 23.9237 11.9174 26.8537 11.9174ZM42.1937 11.9174C45.1337 11.9174 47.6637 9.2974 47.6637 5.8774C47.6637 2.4974 45.1137 -0.0026 42.1937 -0.0026C39.2637 -0.0026 36.7237 2.5574 36.7237 5.9074C36.7237 9.2974 39.2537 11.9174 42.1937 11.9174ZM2.9137 24.5774H20.0837C22.2437 24.5774 23.0137 23.9674 23.0137 22.7674C23.0137 19.2374 18.5937 14.3674 11.4937 14.3674C4.4137 14.3674 0.0037 19.2374 0.0037 22.7674C0.0037 23.9674 0.7637 24.5774 2.9137 24.5774ZM26.8537 14.3674C24.5237 14.3674 22.4737 14.8974 20.7937 15.7474C23.1837 17.6074 24.7337 20.0974 24.7337 22.7674C24.7337 23.4774 24.5837 24.0874 24.2637 24.5774H35.4337C37.5837 24.5774 38.3537 23.9674 38.3537 22.7674C38.3537 19.2374 33.9337 14.3674 26.8537 14.3674ZM42.1737 14.3674C39.8537 14.3674 37.8137 14.8974 36.1337 15.7374C38.5437 17.5974 40.0837 20.0974 40.0837 22.7674C40.0837 23.4774 39.9237 24.0874 39.6237 24.5774H50.7637C52.9237 24.5774 53.6937 23.9674 53.6937 22.7674C53.6937 19.2374 49.2737 14.3674 42.1737 14.3674Z"
        fillRule="evenodd"
        clipRule="evenodd"
    />
</svg>
        