<svg viewBox="0 0 51.54296875 24.58203125" xmlns="http://www.w3.org/2000/svg"><path d="M25.7837 11.9221C28.7137 11.9221 31.2537 9.2921 31.2537 5.8821C31.2537 2.5021 28.7137 0.0021 25.7837 0.0021C22.8637 0.0021 20.3137 2.5521 20.3137 5.9021C20.3137 9.2921 22.8437 11.9221 25.7837 11.9221ZM10.0237 12.2321C12.5737 12.2321 14.7837 9.9421 14.7837 6.9721C14.7837 4.0221 12.5637 1.8621 10.0237 1.8621C7.4937 1.8621 5.2537 4.0721 5.2637 7.0021C5.2637 9.9421 7.4737 12.2321 10.0237 12.2321ZM41.5037 12.2321C44.0637 12.2321 46.2837 9.9421 46.2837 7.0021C46.2837 4.0721 44.0537 1.8621 41.5037 1.8621C38.9737 1.8621 36.7537 4.0221 36.7537 6.9721C36.7537 9.9421 38.9637 12.2321 41.5037 12.2321ZM2.4037 24.5821H12.7837C11.3637 22.5221 13.0937 18.3621 16.0537 16.0921C14.5237 15.0821 12.5637 14.3321 10.0237 14.3321C3.8537 14.3321 0.0037 18.8821 0.0037 22.6521C0.0037 23.9021 0.6737 24.5821 2.4037 24.5821ZM49.1337 24.5821C50.8737 24.5821 51.5437 23.9021 51.5437 22.6521C51.5437 18.8821 47.6837 14.3321 41.5237 14.3321C38.9637 14.3321 37.0137 15.0821 35.4937 16.0921C38.4337 18.3621 40.1637 22.5221 38.7437 24.5821ZM17.1837 24.5821H34.3537C36.5137 24.5821 37.2837 23.9621 37.2837 22.7621C37.2837 19.2321 32.8637 14.3721 25.7737 14.3721C18.6937 14.3721 14.2737 19.2321 14.2737 22.7621C14.2737 23.9621 15.0437 24.5821 17.1837 24.5821Z" /></svg>