<svg viewBox="0 0 28.642578125 30.26953125" xmlns="http://www.w3.org/2000/svg"><path d="M5.7037 1.7595H22.9537C22.8737 0.5995 22.2137 -0.0005 20.9437 -0.0005H7.6937C6.4437 -0.0005 5.7837 0.5995 5.7037 1.7595ZM2.8837 5.5495H25.7737C25.5637 4.3095 24.9737 3.6195 23.6137 3.6195H5.0437C3.6737 3.6195 3.0937 4.3095 2.8837 5.5495ZM4.2937 30.2695H24.3537C27.1937 30.2695 28.6437 28.8495 28.6437 26.0295V11.9895C28.6437 9.1695 27.1937 7.7495 24.3537 7.7495H4.2937C1.4237 7.7495 0.0037 9.1695 0.0037 11.9895V26.0295C0.0037 28.8495 1.4237 30.2695 4.2937 30.2695ZM4.3237 28.0695C2.9537 28.0695 2.2037 27.3295 2.2037 25.9095V12.1095C2.2037 10.6895 2.9537 9.9495 4.3237 9.9495H24.3037C25.6637 9.9495 26.4437 10.6895 26.4437 12.1095V25.9095C26.4437 27.3295 25.6637 28.0695 24.3037 28.0695H22.5337C21.3737 25.1595 18.1737 23.1495 14.3237 23.1495C10.4837 23.1495 7.2737 25.1595 6.1237 28.0695ZM14.3237 21.0695C16.6937 21.0995 18.5637 19.0895 18.5637 16.4295C18.5637 13.9295 16.6937 11.8795 14.3237 11.8795C11.9537 11.8795 10.0737 13.9295 10.0937 16.4295C10.1037 19.0895 11.9537 21.0395 14.3237 21.0695Z" /></svg>