
<svg
    viewBox={0 0 48.521484375 22.44921875}
    xmlns="http://www.w3.org/2000/svg"
>
    <path
        fill="inherit"
        d="M10.1337 11.2257C13.0037 11.2257 15.3837 8.6657 15.3837 5.5357C15.3837 2.4457 13.0337 -0.0043 10.1337 -0.0043C7.2437 -0.0043 4.8937 2.4857 4.8937 5.5557C4.8937 8.6857 7.2637 11.2257 10.1337 11.2257ZM38.4137 11.2957C41.2937 11.2957 43.6537 8.7357 43.6537 5.6057C43.6537 2.5157 41.3137 0.0657 38.4137 0.0657C35.5337 0.0657 33.1637 2.5557 33.1637 5.6157C33.1637 8.7457 35.5337 11.2957 38.4137 11.2957ZM19.7437 11.3457C20.3837 11.3457 20.9137 10.8157 20.9137 10.1757C20.9137 9.5257 20.3837 8.9957 19.7437 8.9957C19.1037 8.9957 18.5637 9.5257 18.5637 10.1757C18.5637 10.8157 19.1037 11.3457 19.7437 11.3457ZM24.2837 11.3457C24.9237 11.3457 25.4537 10.8157 25.4537 10.1757C25.4537 9.5257 24.9237 8.9957 24.2837 8.9957C23.6437 8.9957 23.1037 9.5257 23.1037 10.1757C23.1037 10.8157 23.6437 11.3457 24.2837 11.3457ZM28.7937 11.3457C29.4337 11.3457 29.9737 10.8157 29.9737 10.1757C29.9737 9.5257 29.4337 8.9957 28.7937 8.9957C28.1537 8.9957 27.6137 9.5257 27.6137 10.1757C27.6137 10.8157 28.1537 11.3457 28.7937 11.3457ZM3.0037 22.3857H17.2437C19.2237 22.3857 20.2437 21.7357 20.2437 20.3457C20.2437 17.1957 16.5937 12.6357 10.1137 12.6357C3.6537 12.6357 0.0037 17.1957 0.0037 20.3457C0.0037 21.7357 1.0137 22.3857 3.0037 22.3857ZM31.2937 22.4457H45.5137C47.5137 22.4457 48.5237 21.8057 48.5237 20.4157C48.5237 17.2657 44.8837 12.7057 38.4037 12.7057C31.9237 12.7057 28.2837 17.2657 28.2837 20.4157C28.2837 21.8057 29.3037 22.4457 31.2937 22.4457Z"
        fillRule="evenodd"
        clipRule="evenodd"
    />
</svg>
        