
<svg
    viewBox={0 0 23.98046875 31.732421875}
    xmlns="http://www.w3.org/2000/svg"
>
    <path
        fill="inherit"
        d="M5.3637 1.7595H18.6237C18.5437 0.5995 17.8737 -0.0005 16.6137 -0.0005H7.3537C6.0937 -0.0005 5.4437 0.5995 5.3637 1.7595ZM2.9837 5.5495H20.9837C20.7837 4.3095 20.1937 3.6195 18.8237 3.6195H5.1437C3.7737 3.6195 3.1837 4.3095 2.9837 5.5495ZM4.2937 31.7295H20.0937C22.5437 31.7295 23.9837 30.3095 23.9837 27.4895V11.9895C23.9837 9.1695 22.5337 7.7495 19.6837 7.7495H4.2937C1.4337 7.7495 0.0037 9.1595 0.0037 11.9895V27.4895C0.0037 30.3095 1.4337 31.7295 4.2937 31.7295ZM16.0937 21.8095C14.4637 21.8095 13.0537 20.3395 13.0537 18.4795C13.0437 16.6295 14.4737 15.1995 16.1037 15.1995C17.7337 15.1995 19.1137 16.5795 19.1137 18.4595C19.1137 20.3395 17.7237 21.8095 16.0937 21.8095ZM7.3537 21.9995C5.9337 21.9995 4.7137 20.7295 4.7037 19.0695C4.7037 17.4595 5.9337 16.2295 7.3537 16.2295C8.7637 16.2295 9.9937 17.4295 9.9937 19.0595C9.9937 20.7295 8.7737 21.9995 7.3537 21.9995ZM4.3337 29.5595C2.9637 29.5595 2.2137 28.8195 2.2137 27.3995V26.0595C3.0337 24.5995 4.8937 23.2995 7.3537 23.2995C8.5537 23.2995 9.4837 23.5695 10.3637 24.1295C9.0237 25.1195 8.0837 27.0595 8.0837 28.5095C8.0837 28.9195 8.1437 29.2695 8.3037 29.5595ZM10.4037 29.5595C10.1837 29.4995 9.8337 29.1395 9.8337 28.5095C9.8337 26.1495 12.2337 23.3195 16.0937 23.3195C18.5837 23.3195 20.7537 24.5795 21.7837 26.3495V27.3995C21.7837 28.8195 20.8637 29.5595 19.6637 29.5595Z"
        fillRule="evenodd"
        clipRule="evenodd"
    />
</svg>
        