
<svg
    viewBox="0 0 34.37109375 23.76171875"
    xmlns="http://www.w3.org/2000/svg"
>
    <path
        fill="inherit"
        d="M27.0127 23.7594C31.1427 23.7594 34.3727 20.7394 34.3727 16.9794C34.3727 14.1094 32.7127 11.6194 30.0527 10.4994C30.0827 4.3994 25.6927 -0.0006 20.0927 -0.0006C16.3927 -0.0006 13.7527 1.9794 12.1127 4.3794C8.7527 3.3894 5.0827 5.9494 5.0127 9.7794C1.9327 10.2694 0.0027 13.0294 0.0027 16.3694C0.0027 20.3894 3.5127 23.7594 8.1927 23.7594ZM18.1427 14.9694C16.0827 14.9394 14.4327 13.0994 14.4227 10.8994C14.4227 8.7194 16.0827 6.9294 18.1427 6.9294C20.1927 6.9294 21.8627 8.7194 21.8627 10.8994C21.8627 13.0994 20.1927 14.9994 18.1427 14.9694ZM10.4427 21.3394C11.4327 19.1294 14.0127 16.6694 18.1427 16.6694C22.2727 16.6694 24.8527 19.1294 25.8427 21.3394Z"
        fillRule="evenodd"
        clipRule="evenodd"
    />
</svg>
        