
<svg
    viewBox="0 0 30.355824154820553 30.039445856876043"
    xmlns="http://www.w3.org/2000/svg"
>
    <path
        fill="inherit"
        d="M2.7279 21.9711C3.0779 23.9511 4.0879 25.0211 5.7579 25.1411V11.1411C5.7579 7.5311 7.9079 5.4411 11.4979 5.4411H22.8779L22.4779 3.2011C22.0279 0.6811 20.5579 -0.3389 18.0079 0.1011L3.2579 2.6911C0.7279 3.1511 -0.3521 4.6211 0.0979 7.1411ZM11.4979 30.0411H26.4879C29.0679 30.0411 30.3579 28.7511 30.3579 26.2111V11.1411C30.3579 8.6011 29.0679 7.3211 26.4879 7.3211H11.4979C8.9279 7.3211 7.6379 8.5911 7.6379 11.1411V26.2111C7.6379 28.7711 8.9279 30.0411 11.4979 30.0411ZM18.9979 20.7411C16.6479 20.7411 14.7679 18.7611 14.7679 16.1211C14.7679 13.6311 16.6479 11.5911 18.9979 11.5911C21.3479 11.5911 23.2179 13.6311 23.2179 16.1211C23.2179 18.7611 21.3479 20.7411 18.9979 20.7411ZM10.6779 27.9711C11.6279 25.0511 14.9579 22.7911 18.9979 22.7911C23.0379 22.7911 26.3779 25.0511 27.3179 27.9711Z"
        fillRule="evenodd"
        clipRule="evenodd"
    />
</svg>
        