
<svg
    viewBox={0 0 27.890625 27.890625}
    xmlns="http://www.w3.org/2000/svg"
>
    <path
        fill="inherit"
        d="M13.9427 27.8864C21.6427 27.8864 27.8927 21.6264 27.8927 13.9464C27.8927 6.2464 21.6427 -0.0036 13.9427 -0.0036C6.2627 -0.0036 0.0027 6.2464 0.0027 13.9464C0.0027 21.6264 6.2627 27.8864 13.9427 27.8864ZM13.9327 10.7164C12.4827 10.7164 11.3027 9.4864 11.3027 7.8464C11.3027 6.3064 12.4827 5.0264 13.9327 5.0264C15.3927 5.0264 16.5527 6.3064 16.5527 7.8464C16.5527 9.4864 15.3927 10.7364 13.9327 10.7164ZM9.3227 16.3764C8.8427 16.3764 8.5727 16.0764 8.5727 15.6564C8.5727 14.3964 10.3727 11.6664 13.9327 11.6664C17.4827 11.6664 19.2927 14.3964 19.2927 15.6564C19.2927 16.0764 19.0127 16.3764 18.5427 16.3764ZM8.0527 21.7564C7.6927 21.7564 7.4227 21.4664 7.4227 21.1064C7.4227 20.7564 7.6927 20.4664 8.0527 20.4664H8.2027V18.6764C8.2027 17.8664 8.5627 17.4364 9.4427 17.4364H18.4327C19.3227 17.4364 19.6727 17.8664 19.6727 18.6764V20.4664H19.8227C20.1827 20.4664 20.4527 20.7564 20.4527 21.1064C20.4527 21.4664 20.1827 21.7564 19.8227 21.7564ZM12.3727 20.0564H15.5027C15.7727 20.0564 15.9827 19.8564 15.9827 19.6064C15.9827 19.3464 15.7727 19.1564 15.5027 19.1564H12.3727C12.1027 19.1564 11.9227 19.3464 11.9227 19.6064C11.9227 19.8564 12.1027 20.0564 12.3727 20.0564Z"
        fillRule="evenodd"
        clipRule="evenodd"
    />
</svg>
        