<svg viewBox="0 0 27.890625 27.890625" xmlns="http://www.w3.org/2000/svg"><path d="M13.9427 27.8927C21.6427 27.8927 27.8927 21.6427 27.8927 13.9427C27.8927 6.2627 21.6427 0.0027 13.9427 0.0027C6.2627 0.0027 0.0027 6.2627 0.0027 13.9427C0.0027 21.6427 6.2627 27.8927 13.9427 27.8927ZM4.4527 12.5127C4.4527 10.2027 6.1227 8.5127 8.4327 8.5127H14.2727C16.5927 8.5127 18.2527 10.2027 18.2527 12.5127C18.2527 14.8327 16.5927 16.4927 14.2727 16.4927H12.4127C11.9727 16.0827 11.9327 15.3827 12.0827 14.9527H14.2027C15.6527 14.9527 16.6527 13.9727 16.6527 12.5127C16.6527 11.0627 15.6527 10.0527 14.2027 10.0527H8.5127C7.0827 10.0527 6.0727 11.0627 6.0727 12.5127C6.0727 13.9727 7.0727 14.9527 8.5127 14.9527H8.8327C8.7727 15.4227 8.8227 16.1227 8.9027 16.4927H8.4327C6.1127 16.4927 4.4527 14.8327 4.4527 12.5127ZM9.6127 15.4927C9.6127 13.1827 11.2627 11.5127 13.5727 11.5127H15.4527C15.8727 11.8927 15.9327 12.6427 15.7527 13.0427H13.6627C12.2127 13.0427 11.2127 14.0427 11.2127 15.4927C11.2127 16.9427 12.2127 17.9527 13.6627 17.9527H19.3327C20.7827 17.9527 21.7827 16.9427 21.7827 15.4927C21.7827 14.0427 20.7927 13.0427 19.3327 13.0427H19.0327C19.1027 12.3727 19.0327 11.9227 18.9627 11.5127H19.4327C21.7427 11.5127 23.3927 13.1827 23.3927 15.4927C23.3927 17.8127 21.7427 19.4827 19.4327 19.4827H13.5727C11.2627 19.4827 9.6127 17.8127 9.6127 15.4927Z" /></svg>