
<svg
    viewBox={0 0 30.35223293623854 30.03940038249315}
    xmlns="http://www.w3.org/2000/svg"
>
    <path
        fill="inherit"
        d="M7.1943 25.081L7.6443 24.991V26.211C7.6443 28.771 8.9243 30.041 11.5143 30.041H26.4743C29.0543 30.041 30.3543 28.751 30.3543 26.211V11.161C30.3543 8.601 29.0543 7.321 26.4743 7.321H23.1843L22.4643 3.211C22.0243 0.681 20.5343 -0.339 17.9743 0.101L3.2443 2.691C0.7143 3.151 -0.3457 4.621 0.0943 7.151L2.7243 21.991C3.1543 24.491 4.6443 25.531 7.1943 25.081ZM4.7343 21.521L2.1443 6.911C1.9543 5.811 2.5543 4.941 3.6343 4.751L18.2943 2.151C19.3743 1.971 20.2443 2.591 20.4543 3.671L21.0943 7.321H11.5143C8.9243 7.321 7.6443 8.601 7.6443 11.161V22.901L6.8643 23.041C5.7943 23.231 4.9243 22.611 4.7343 21.521ZM9.7043 26.111V11.251C9.7043 10.161 10.4643 9.391 11.5443 9.391H26.4443C27.5043 9.391 28.2843 10.161 28.2843 11.251V26.111C28.2843 26.921 27.8643 27.551 27.2243 27.821C26.1043 24.861 22.8743 22.791 18.9943 22.791C15.1043 22.791 11.8843 24.861 10.7643 27.821C10.1143 27.551 9.7043 26.921 9.7043 26.111ZM18.9943 20.741C21.3443 20.741 23.2143 18.761 23.2143 16.121C23.2143 13.621 21.3443 11.581 18.9943 11.581C16.6243 11.581 14.7543 13.621 14.7543 16.121C14.7543 18.761 16.6243 20.741 18.9943 20.741Z"
        fillRule="evenodd"
        clipRule="evenodd"
    />
</svg>
        