
<svg
    viewBox="0 0 32.78515625 25.265625"
    xmlns="http://www.w3.org/2000/svg"
>
    <path
        fill="inherit"
        d="M1.0937 2.1972H31.6937C32.2937 2.1972 32.7837 1.7072 32.7837 1.1072C32.7837 0.5072 32.2937 -0.0028 31.6937 -0.0028H1.0937C0.4937 -0.0028 0.0037 0.5072 0.0037 1.1072C0.0037 1.7072 0.4937 2.1972 1.0937 2.1972ZM16.3937 14.9172C18.8937 14.9172 21.1137 12.6372 21.1137 9.7172C21.1137 6.8072 18.8937 4.6872 16.3937 4.6872C13.9037 4.6872 11.6737 6.8672 11.6737 9.7472C11.6737 12.6372 13.9037 14.9172 16.3937 14.9172ZM1.0937 7.8772H10.0937C10.2837 7.0672 10.6337 6.3272 11.0737 5.6772H1.0937C0.4937 5.6772 0.0037 6.1772 0.0037 6.7772C0.0037 7.3872 0.4937 7.8772 1.0937 7.8772ZM22.7137 7.8772H31.6937C32.2937 7.8772 32.7837 7.3872 32.7837 6.7772C32.7837 6.1772 32.2937 5.6772 31.6937 5.6772H21.7337C22.1737 6.3272 22.5137 7.0672 22.7137 7.8772ZM1.0937 13.5672H10.8837C10.4737 12.8972 10.1737 12.1672 10.0037 11.3572H1.0937C0.4937 11.3572 0.0037 11.8572 0.0037 12.4572C0.0037 13.0572 0.4937 13.5672 1.0937 13.5672ZM21.8937 13.5672H31.6937C32.2937 13.5672 32.7837 13.0572 32.7837 12.4572C32.7837 11.8572 32.2937 11.3572 31.6937 11.3572H22.7637C22.6137 12.1672 22.3137 12.8972 21.8937 13.5672ZM9.3937 25.2672H23.3937C25.4137 25.2672 26.0337 24.6872 26.0337 23.6772C26.0337 20.7272 22.3437 16.6572 16.3937 16.6572C10.4437 16.6572 6.7637 20.7272 6.7637 23.6772C6.7637 24.6872 7.3737 25.2672 9.3937 25.2672ZM1.0937 19.2372H6.6137C7.2237 18.4272 7.9937 17.6772 8.9237 17.0372H1.0937C0.4937 17.0372 0.0037 17.5272 0.0037 18.1272C0.0037 18.7272 0.4937 19.2372 1.0937 19.2372ZM26.1637 19.2372H31.6937C32.2937 19.2372 32.7837 18.7272 32.7837 18.1272C32.7837 17.5272 32.2937 17.0372 31.6937 17.0372H23.8537C24.8037 17.6772 25.5637 18.4272 26.1637 19.2372ZM1.0937 24.9072H5.0837C4.8437 24.1872 4.8637 23.4372 5.0037 22.7072H1.0937C0.4937 22.7072 0.0037 23.2172 0.0037 23.8172C0.0037 24.4172 0.4937 24.9072 1.0937 24.9072ZM27.7037 24.9072H31.6937C32.2937 24.9072 32.7837 24.4172 32.7837 23.8172C32.7837 23.2172 32.2937 22.7072 31.6937 22.7072H27.7837C27.9137 23.4372 27.9437 24.1872 27.7037 24.9072Z"
        fillRule="evenodd"
        clipRule="evenodd"
    />
</svg>
        