
<svg
    viewBox={0 0 37.26953125 30.97194483740537}
    xmlns="http://www.w3.org/2000/svg"
>
    <path
        fill="inherit"
        d="M34.3337 30.6651C34.7437 31.0751 35.4237 31.0751 35.8237 30.6651C36.2137 30.2551 36.2437 29.5951 35.8237 29.1751L6.9637 0.3151C6.5337 -0.1149 5.8637 -0.0949 5.4537 0.3151C5.0537 0.7051 5.0537 1.4051 5.4537 1.8051ZM25.7737 13.7751C28.6937 13.7751 31.2237 11.1551 31.2237 7.7351C31.2237 4.3551 28.6837 1.8551 25.7737 1.8551C22.8437 1.8551 20.3037 4.4151 20.3037 7.7651C20.3037 11.1551 22.8337 13.7751 25.7737 13.7751ZM10.0237 14.0951C11.4437 14.0951 12.7437 13.3951 13.6437 12.2451L6.6437 5.2451C5.7937 6.1651 5.2637 7.4351 5.2637 8.8551C5.2637 11.7951 7.4737 14.0951 10.0237 14.0951ZM2.4037 26.4351H12.7837C11.3637 24.3751 13.0937 20.2151 16.0537 17.9451C14.5237 16.9351 12.5637 16.1851 10.0237 16.1851C3.8537 16.1851 0.0037 20.7351 0.0037 24.5251C0.0037 25.7551 0.6737 26.4351 2.4037 26.4351ZM37.2737 24.6251C37.2737 21.1451 32.8537 16.2251 26.0337 16.2251C25.7437 16.2251 25.4737 16.2651 25.2337 16.3351L35.1337 26.2351H35.9037C36.8637 26.0051 37.2737 25.4851 37.2737 24.6251ZM17.1737 26.4351H27.8337L19.2237 17.8251C16.0637 19.5651 14.2637 22.3651 14.2637 24.6251C14.2637 25.8251 15.0237 26.4351 17.1737 26.4351Z"
        fillRule="evenodd"
        clipRule="evenodd"
    />
</svg>
        