<svg viewBox="0 0 27.890625 27.890625" xmlns="http://www.w3.org/2000/svg"><path d="M13.9427 27.8864C21.6427 27.8864 27.8927 21.6464 27.8927 13.9464C27.8927 6.2464 21.6427 -0.0036 13.9427 -0.0036C6.2527 -0.0036 0.0027 6.2464 0.0027 13.9464C0.0027 21.6464 6.2527 27.8864 13.9427 27.8864ZM13.9427 25.5664C7.5227 25.5664 2.3227 20.3664 2.3227 13.9464C2.3227 7.5164 7.5227 2.3264 13.9427 2.3264C20.3727 2.3264 25.5627 7.5164 25.5627 13.9464C25.5627 20.3664 20.3727 25.5664 13.9427 25.5664ZM13.9327 13.5264C15.8727 13.5364 17.4427 11.8664 17.4427 9.6764C17.4427 7.6264 15.8727 5.9364 13.9327 5.9364C11.9927 5.9364 10.4227 7.6264 10.4227 9.6764C10.4227 11.8664 11.9927 13.5064 13.9327 13.5264ZM7.6827 20.8764H20.1827C20.7227 20.8764 20.9827 20.5064 20.9827 20.0164C20.9827 18.5164 18.7327 14.6264 13.9327 14.6264C9.1327 14.6264 6.8727 18.5164 6.8727 20.0164C6.8727 20.5064 7.1327 20.8764 7.6827 20.8764Z" /></svg>