
<svg
    viewBox={0 0 24.048828125 29.298828125}
    xmlns="http://www.w3.org/2000/svg"
>
    <path
        fill="inherit"
        d="M12.0137 9.9137C14.6137 9.9137 16.6537 7.6937 16.6537 4.8837C16.6537 2.1637 14.6037 0.0037 12.0137 0.0037C9.4337 0.0037 7.3837 2.1737 7.3937 4.9037C7.3937 7.7137 9.4237 9.9137 12.0137 9.9137ZM12.0137 7.9837C10.5237 7.9837 9.4337 6.7037 9.4337 4.9037C9.4337 3.1837 10.5437 1.9237 12.0137 1.9237C13.4937 1.9237 14.6137 3.1837 14.6137 4.8837C14.6137 6.6837 13.5037 7.9837 12.0137 7.9837ZM4.4737 19.8237H19.5637C20.7037 19.8237 21.3537 19.1637 21.3537 18.1137C21.3537 15.3137 17.8037 11.2337 12.0137 11.2337C6.2237 11.2337 2.6837 15.3137 2.6837 18.1137C2.6837 19.1637 3.3237 19.8237 4.4737 19.8237ZM5.1237 17.8937C4.8437 17.8937 4.7137 17.8037 4.7437 17.5937C5.0037 15.9837 7.5337 13.1637 12.0137 13.1637C16.4837 13.1637 19.0337 15.9837 19.2937 17.5937C19.3137 17.8037 19.1837 17.8937 18.9037 17.8937ZM1.0937 29.3037H22.9537C23.5537 29.3037 24.0537 28.8037 24.0537 28.2037C24.0537 27.6037 23.5537 27.0937 22.9537 27.0937H22.1037V23.9137C22.1037 22.4737 21.4337 21.6937 19.8937 21.6937H4.1537C2.6237 21.6937 1.9437 22.4737 1.9437 23.9137V27.0937H1.0937C0.4937 27.0937 0.0037 27.6037 0.0037 28.2037C0.0037 28.8037 0.4937 29.3037 1.0937 29.3037ZM9.3337 26.3337C8.8737 26.3337 8.5437 25.9737 8.5437 25.5137C8.5437 25.0637 8.8737 24.7237 9.3337 24.7237H14.7337C15.1937 24.7237 15.5337 25.0637 15.5337 25.5137C15.5337 25.9737 15.1937 26.3337 14.7337 26.3337Z"
        fillRule="evenodd"
        clipRule="evenodd"
    />
</svg>
        