
<svg
    viewBox="0 0 27.890625 27.890625"
    xmlns="http://www.w3.org/2000/svg"
>
    <path
        fill="inherit"
        d="M13.9427 27.8864C21.6427 27.8864 27.8927 21.6464 27.8927 13.9464C27.8927 6.2464 21.6427 -0.0036 13.9427 -0.0036C6.2527 -0.0036 0.0027 6.2464 0.0027 13.9464C0.0027 21.6464 6.2527 27.8864 13.9427 27.8864ZM13.9427 25.5664C7.5227 25.5664 2.3227 20.3664 2.3227 13.9464C2.3227 7.5164 7.5227 2.3264 13.9427 2.3264C20.3727 2.3264 25.5627 7.5164 25.5627 13.9464C25.5627 20.3664 20.3727 25.5664 13.9427 25.5664ZM13.9327 10.7964C15.3527 10.8164 16.4727 9.6064 16.4727 8.0164C16.4727 6.5264 15.3527 5.2764 13.9327 5.2764C12.5227 5.2764 11.3927 6.5264 11.3927 8.0164C11.3927 9.6064 12.5227 10.7964 13.9327 10.7964ZM9.4627 16.2964H18.4027C18.8627 16.2964 19.1227 15.9964 19.1227 15.5864C19.1227 14.3664 17.3727 11.7164 13.9327 11.7164C10.4827 11.7164 8.7327 14.3664 8.7327 15.5864C8.7327 15.9964 8.9927 16.2964 9.4627 16.2964ZM8.2327 21.5064H19.6427C19.9927 21.5064 20.2627 21.2164 20.2627 20.8764C20.2627 20.5364 19.9927 20.2664 19.6427 20.2664H19.5127V18.5164C19.5127 17.7364 19.1527 17.3064 18.3027 17.3064H9.5727C8.7227 17.3064 8.3627 17.7364 8.3627 18.5164V20.2664H8.2327C7.8927 20.2664 7.6127 20.5364 7.6127 20.8764C7.6127 21.2164 7.8927 21.5064 8.2327 21.5064ZM12.4127 19.8564C12.1527 19.8564 11.9727 19.6564 11.9727 19.4164C11.9727 19.1664 12.1527 18.9764 12.4127 18.9764H15.4627C15.7227 18.9764 15.9327 19.1664 15.9327 19.4164C15.9327 19.6564 15.7227 19.8564 15.4627 19.8564Z"
        fillRule="evenodd"
        clipRule="evenodd"
    />
</svg>
        