<svg viewBox="0 0 23.884765625 25.3203125" xmlns="http://www.w3.org/2000/svg"><path d="M11.9537 12.6613C15.2037 12.6613 17.8537 9.7713 17.8537 6.2512C17.8537 2.7512 15.2137 0.0012 11.9537 0.0012C8.7137 0.0012 6.0437 2.8012 6.0437 6.2712C6.0437 9.7913 8.6937 12.6613 11.9537 12.6613ZM11.9537 10.5913C9.9537 10.5913 8.2437 8.6913 8.2437 6.2712C8.2437 3.9013 9.9237 2.0613 11.9537 2.0613C13.9837 2.0613 15.6537 3.8513 15.6537 6.2512C15.6537 8.6713 13.9637 10.5913 11.9537 10.5913ZM3.3537 25.3213H20.5337C22.8037 25.3213 23.8837 24.6413 23.8837 23.1313C23.8837 19.5513 19.3637 14.3713 11.9537 14.3713C4.5237 14.3713 0.0037 19.5513 0.0037 23.1313C0.0037 24.6413 1.0837 25.3213 3.3537 25.3213ZM2.7037 23.2513C2.3537 23.2513 2.2037 23.1613 2.2037 22.8713C2.2037 20.6213 5.6737 16.4313 11.9537 16.4313C18.2137 16.4313 21.6837 20.6213 21.6837 22.8713C21.6837 23.1613 21.5437 23.2513 21.1937 23.2513Z" /></svg>