
<svg
    viewBox="0 0 32.4296875 25.703125"
    xmlns="http://www.w3.org/2000/svg"
>
    <path
        fill="inherit"
        d="M14.0537 2.2247C14.6537 2.2247 15.1637 1.7247 15.1637 1.1247C15.1637 0.5047 14.6537 0.0047 14.0537 0.0047C13.4437 0.0047 12.9337 0.5047 12.9337 1.1247C12.9337 1.7247 13.4437 2.2247 14.0537 2.2247ZM18.3637 2.2247C18.9637 2.2247 19.4737 1.7247 19.4737 1.1247C19.4737 0.5047 18.9637 0.0047 18.3637 0.0047C17.7437 0.0047 17.2437 0.5047 17.2437 1.1247C17.2437 1.7247 17.7437 2.2247 18.3637 2.2247ZM1.1237 1.8847C1.5337 1.8847 1.8837 1.5347 1.8837 1.1247C1.8837 0.6947 1.5337 0.3547 1.1237 0.3547C0.6937 0.3547 0.3537 0.6947 0.3537 1.1247C0.3537 1.5347 0.6937 1.8847 1.1237 1.8847ZM5.4237 1.8847C5.8537 1.8847 6.1937 1.5347 6.1937 1.1247C6.1937 0.6947 5.8537 0.3547 5.4237 0.3547C5.0037 0.3547 4.6637 0.6947 4.6637 1.1247C4.6637 1.5347 5.0037 1.8847 5.4237 1.8847ZM9.7337 1.8847C10.1537 1.8847 10.5037 1.5347 10.5037 1.1247C10.5037 0.6947 10.1537 0.3547 9.7337 0.3547C9.3237 0.3547 8.9737 0.6947 8.9737 1.1247C8.9737 1.5347 9.3237 1.8847 9.7337 1.8847ZM22.6837 1.8847C23.1037 1.8847 23.4437 1.5347 23.4437 1.1247C23.4437 0.6947 23.1037 0.3547 22.6837 0.3547C22.2737 0.3547 21.9137 0.6947 21.9137 1.1247C21.9137 1.5347 22.2737 1.8847 22.6837 1.8847ZM27.0037 1.8847C27.4137 1.8847 27.7637 1.5347 27.7637 1.1247C27.7637 0.6947 27.4137 0.3547 27.0037 0.3547C26.5737 0.3547 26.2237 0.6947 26.2237 1.1247C26.2237 1.5347 26.5737 1.8847 27.0037 1.8847ZM31.3037 1.8847C31.7237 1.8847 32.0737 1.5347 32.0737 1.1247C32.0737 0.6947 31.7237 0.3547 31.3037 0.3547C30.8837 0.3547 30.5437 0.6947 30.5437 1.1247C30.5437 1.5347 30.8837 1.8847 31.3037 1.8847ZM5.4237 6.9447C6.0437 6.9447 6.5537 6.4347 6.5537 5.8247C6.5537 5.2247 6.0437 4.7147 5.4237 4.7147C4.8137 4.7147 4.3037 5.2247 4.3037 5.8247C4.3037 6.4347 4.8137 6.9447 5.4237 6.9447ZM9.7337 6.9447C9.9137 6.9447 10.0937 6.8947 10.2437 6.8247C10.4137 6.4847 10.6237 6.1347 10.8537 5.8247C10.8537 5.2247 10.3537 4.7147 9.7337 4.7147C9.1337 4.7147 8.6237 5.2247 8.6237 5.8247C8.6237 6.4347 9.1337 6.9447 9.7337 6.9447ZM22.6837 6.9447C23.2937 6.9447 23.8037 6.4347 23.8037 5.8247C23.8037 5.2247 23.2937 4.7147 22.6837 4.7147C22.1037 4.7147 21.6437 5.1547 21.5737 5.7047C21.8437 6.0747 22.0937 6.4547 22.3037 6.8747C22.4237 6.9347 22.5437 6.9447 22.6837 6.9447ZM27.0037 6.9447C27.6037 6.9447 28.1137 6.4347 28.1137 5.8247C28.1137 5.2247 27.6037 4.7147 27.0037 4.7147C26.3837 4.7147 25.8837 5.2247 25.8837 5.8247C25.8837 6.4347 26.3837 6.9447 27.0037 6.9447ZM31.3037 6.6047C31.7237 6.6047 32.0737 6.2447 32.0737 5.8247C32.0737 5.4147 31.7237 5.0547 31.3037 5.0547C30.8837 5.0547 30.5437 5.4147 30.5437 5.8247C30.5437 6.2447 30.8837 6.6047 31.3037 6.6047ZM1.1237 6.6047C1.5337 6.6047 1.8837 6.2447 1.8837 5.8247C1.8837 5.4147 1.5337 5.0547 1.1237 5.0547C0.6937 5.0547 0.3537 5.4147 0.3537 5.8247C0.3537 6.2447 0.6937 6.6047 1.1237 6.6047ZM16.2437 15.3547C18.7437 15.3547 20.9637 13.0747 20.9637 10.1547C20.9637 7.2447 18.7437 5.1247 16.2437 5.1247C13.7537 5.1247 11.5437 7.3047 11.5437 10.1847C11.5437 13.0747 13.7537 15.3547 16.2437 15.3547ZM5.4237 12.0047C6.2337 12.0047 6.8937 11.3447 6.8937 10.5447C6.8937 9.7347 6.2337 9.0747 5.4237 9.0747C4.6237 9.0747 3.9637 9.7347 3.9637 10.5447C3.9637 11.3447 4.6237 12.0047 5.4237 12.0047ZM27.0037 12.0047C27.7937 12.0047 28.4637 11.3447 28.4637 10.5447C28.4637 9.7347 27.7937 9.0747 27.0037 9.0747C26.1937 9.0747 25.5237 9.7347 25.5237 10.5447C25.5237 11.3447 26.1937 12.0047 27.0037 12.0047ZM8.2737 10.5447C8.2737 11.3247 8.9037 11.9747 9.6637 12.0047C9.5137 11.4247 9.4437 10.8147 9.4437 10.1847C9.4437 9.8047 9.4737 9.4447 9.5337 9.0947C8.8137 9.2047 8.2737 9.8047 8.2737 10.5447ZM24.1537 10.5447C24.1537 9.8447 23.6537 9.2547 22.9837 9.1047C23.0337 9.4447 23.0537 9.7847 23.0537 10.1547C23.0537 10.8047 22.9837 11.4147 22.8337 12.0047C23.5537 11.9247 24.1537 11.2947 24.1537 10.5447ZM1.1237 11.6647C1.7237 11.6647 2.2237 11.1547 2.2237 10.5447C2.2237 9.9247 1.7237 9.4247 1.1237 9.4247C0.5037 9.4247 0.0037 9.9247 0.0037 10.5447C0.0037 11.1547 0.5037 11.6647 1.1237 11.6647ZM31.3037 11.6647C31.9237 11.6647 32.4337 11.1547 32.4337 10.5447C32.4337 9.9247 31.9237 9.4247 31.3037 9.4247C30.6937 9.4247 30.1837 9.9247 30.1837 10.5447C30.1837 11.1547 30.6937 11.6647 31.3037 11.6647ZM5.4237 16.7247C6.2337 16.7247 6.8937 16.0547 6.8937 15.2547C6.8937 14.4547 6.2337 13.7847 5.4237 13.7847C4.6237 13.7847 3.9637 14.4547 3.9637 15.2547C3.9637 16.0547 4.6237 16.7247 5.4237 16.7247ZM9.1037 16.5847C9.7337 16.1747 10.4337 15.8447 11.1737 15.5447C11.3437 14.6447 10.6637 13.7847 9.7337 13.7847C8.9437 13.7847 8.2737 14.4547 8.2737 15.2547C8.2737 15.8347 8.6237 16.3347 9.1037 16.5847ZM23.3637 16.5447C23.8137 16.2947 24.1537 15.8047 24.1537 15.2547C24.1537 14.4547 23.4837 13.7847 22.6837 13.7847C21.7637 13.7847 21.0837 14.6247 21.2637 15.5347C22.0137 15.8047 22.7137 16.1647 23.3637 16.5447ZM27.0037 16.7247C27.7937 16.7247 28.4637 16.0547 28.4637 15.2547C28.4637 14.4547 27.7937 13.7847 27.0037 13.7847C26.1937 13.7847 25.5237 14.4547 25.5237 15.2547C25.5237 16.0547 26.1937 16.7247 27.0037 16.7247ZM1.1237 16.3647C1.7237 16.3647 2.2237 15.8547 2.2237 15.2547C2.2237 14.6447 1.7237 14.1347 1.1237 14.1347C0.5037 14.1347 0.0037 14.6447 0.0037 15.2547C0.0037 15.8547 0.5037 16.3647 1.1237 16.3647ZM31.3037 16.3647C31.9237 16.3647 32.4337 15.8547 32.4337 15.2547C32.4337 14.6447 31.9237 14.1347 31.3037 14.1347C30.6937 14.1347 30.1837 14.6447 30.1837 15.2547C30.1837 15.8547 30.6937 16.3647 31.3037 16.3647ZM9.2437 25.7047H23.2437C25.2637 25.7047 25.8837 25.1247 25.8837 24.1147C25.8837 21.1647 22.2037 17.0947 16.2437 17.0947C10.2937 17.0947 6.6137 21.1647 6.6137 24.1147C6.6137 25.1247 7.2237 25.7047 9.2437 25.7047ZM4.9537 20.9547C5.2637 20.3347 5.6737 19.7047 6.1437 19.1147C5.9437 18.9447 5.7037 18.8547 5.4237 18.8547C4.8137 18.8547 4.3037 19.3547 4.3037 19.9647C4.3037 20.3947 4.5637 20.7847 4.9537 20.9547ZM27.5337 20.9447C27.8637 20.7547 28.1137 20.3847 28.1137 19.9647C28.1137 19.3547 27.6037 18.8547 27.0037 18.8547C26.7237 18.8547 26.5137 18.9347 26.3137 19.0747C26.8137 19.6747 27.2037 20.3047 27.5337 20.9447ZM1.1237 20.7247C1.5337 20.7247 1.8837 20.3847 1.8837 19.9647C1.8837 19.5547 1.5337 19.1947 1.1237 19.1947C0.6937 19.1947 0.3537 19.5547 0.3537 19.9647C0.3537 20.3847 0.6937 20.7247 1.1237 20.7247ZM31.3037 20.7247C31.7237 20.7247 32.0737 20.3847 32.0737 19.9647C32.0737 19.5547 31.7237 19.1947 31.3037 19.1947C30.8837 19.1947 30.5437 19.5547 30.5437 19.9647C30.5437 20.3847 30.8837 20.7247 31.3037 20.7247ZM1.1237 25.4447C1.5337 25.4447 1.8837 25.1047 1.8837 24.6747C1.8837 24.2547 1.5337 23.9147 1.1237 23.9147C0.6937 23.9147 0.3537 24.2547 0.3537 24.6747C0.3537 25.1047 0.6937 25.4447 1.1237 25.4447ZM31.3037 25.4447C31.7237 25.4447 32.0737 25.1047 32.0737 24.6747C32.0737 24.2547 31.7237 23.9147 31.3037 23.9147C30.8837 23.9147 30.5437 24.2547 30.5437 24.6747C30.5437 25.1047 30.8837 25.4447 31.3037 25.4447Z"
        fillRule="evenodd"
        clipRule="evenodd"
    />
</svg>
        