
<svg
    viewBox={0 0 30.98046875 28.482824429559592}
    xmlns="http://www.w3.org/2000/svg"
>
    <path
        fill="inherit"
        d="M26.7037 18.9829C27.2037 19.3229 27.8337 19.2029 28.2037 18.6829C29.9537 16.2729 30.9837 12.9629 30.9837 9.5929C30.9837 6.2129 29.9737 2.8729 28.2037 0.4929C27.8337 -0.0371 27.2037 -0.1471 26.7037 0.1929C26.1937 0.5329 26.1137 1.1829 26.5137 1.7429C28.0137 3.8429 28.8637 6.6729 28.8637 9.5929C28.8637 12.5029 27.9837 15.3029 26.5137 17.4329C26.1237 17.9929 26.1937 18.6429 26.7037 18.9829ZM21.6437 15.4129C22.0937 15.7229 22.7337 15.6329 23.1037 15.1029C24.1537 13.7129 24.7837 11.6829 24.7837 9.5929C24.7837 7.4929 24.1537 5.4729 23.1037 4.0629C22.7337 3.5429 22.0937 3.4329 21.6437 3.7629C21.0837 4.1429 21.0037 4.8329 21.4237 5.3929C22.2137 6.4829 22.6637 8.0029 22.6637 9.5929C22.6637 11.1729 22.2037 12.6829 21.4237 13.7829C21.0137 14.3629 21.0837 15.0129 21.6437 15.4129ZM11.5137 15.8229C14.4537 15.8229 16.9837 13.1929 16.9837 9.7829C16.9837 6.4029 14.4337 3.9029 11.5137 3.9029C8.5837 3.9029 6.0437 6.4529 6.0437 9.8029C6.0437 13.1929 8.5837 15.8229 11.5137 15.8229ZM2.9237 28.4829H20.0937C22.2437 28.4829 23.0137 27.8629 23.0137 26.6629C23.0137 23.1329 18.5937 18.2729 11.5137 18.2729C4.4137 18.2729 0.0037 23.1329 0.0037 26.6629C0.0037 27.8629 0.7637 28.4829 2.9237 28.4829Z"
        fillRule="evenodd"
        clipRule="evenodd"
    />
</svg>
        