
<svg
    viewBox="0 0 54.55078125 25.3203125"
    xmlns="http://www.w3.org/2000/svg"
>
    <path
        fill="inherit"
        d="M11.9537 12.6613C15.1937 12.6613 17.8537 9.7713 17.8537 6.2512C17.8537 2.7512 15.2337 0.0012 11.9537 0.0012C8.6937 0.0012 6.0337 2.8012 6.0437 6.2712C6.0437 9.7913 8.6937 12.6613 11.9537 12.6613ZM27.2737 12.6613C30.5337 12.6613 33.1837 9.7713 33.1837 6.2512C33.1837 2.7512 30.5537 0.0012 27.2737 0.0012C24.0237 0.0012 21.3537 2.8012 21.3737 6.2712C21.3837 9.7913 24.0237 12.6613 27.2737 12.6613ZM42.6037 12.6613C45.8537 12.6613 48.5037 9.7713 48.5037 6.2512C48.5037 2.7512 45.8837 0.0012 42.6037 0.0012C39.3637 0.0012 36.6937 2.8012 36.6937 6.2712C36.7137 9.7913 39.3637 12.6613 42.6037 12.6613ZM11.9537 10.5913C9.9437 10.5913 8.2437 8.6913 8.2437 6.2712C8.2337 3.9013 9.9137 2.0613 11.9537 2.0613C13.9837 2.0613 15.6537 3.8513 15.6537 6.2512C15.6537 8.6713 13.9637 10.5913 11.9537 10.5913ZM27.2737 10.5913C25.2837 10.5913 23.5737 8.6913 23.5737 6.2712C23.5537 3.9013 25.2337 2.0613 27.2737 2.0613C29.3137 2.0613 30.9837 3.8513 30.9837 6.2512C30.9837 8.6713 29.2837 10.5913 27.2737 10.5913ZM42.6037 10.5913C40.6037 10.5913 38.8937 8.6913 38.8937 6.2712C38.8937 3.9013 40.5737 2.0613 42.6037 2.0613C44.6437 2.0613 46.3037 3.8513 46.3037 6.2512C46.3037 8.6713 44.6237 10.5913 42.6037 10.5913ZM3.3537 25.3213H20.5337C22.8037 25.3213 23.8837 24.6413 23.8837 23.1313C23.8837 19.5513 19.3637 14.3713 11.9537 14.3713C4.5237 14.3713 0.0037 19.5513 0.0037 23.1313C0.0037 24.6413 1.0837 25.3213 3.3537 25.3213ZM27.2637 14.3713C24.9737 14.3713 22.9737 14.8713 21.2737 15.6713C21.9037 16.1313 22.4937 16.6513 22.9937 17.2013C24.2137 16.7313 25.6437 16.4313 27.2637 16.4313C33.5337 16.4313 37.0137 20.6213 37.0137 22.8713C37.0137 23.1613 36.8637 23.2513 36.5037 23.2513H25.5837C25.5637 23.9913 25.4337 24.6913 24.9937 25.3213H35.8437C38.1337 25.3213 39.2137 24.6413 39.2137 23.1313C39.2137 19.5513 34.6837 14.3713 27.2637 14.3713ZM42.6037 14.3713C40.3137 14.3713 38.2937 14.8713 36.6037 15.6813C37.2437 16.1513 37.8137 16.6513 38.3237 17.2113C39.5437 16.7313 40.9837 16.4313 42.6037 16.4313C48.8737 16.4313 52.3537 20.6213 52.3537 22.8713C52.3537 23.1613 52.2037 23.2513 51.8437 23.2513H40.9037C40.8937 23.9913 40.7537 24.6913 40.3037 25.3213H51.1837C53.4737 25.3213 54.5537 24.6413 54.5537 23.1313C54.5537 19.5513 50.0237 14.3713 42.6037 14.3713ZM2.7037 23.2513C2.3537 23.2513 2.2037 23.1613 2.2037 22.8713C2.2037 20.6213 5.6737 16.4313 11.9537 16.4313C18.2137 16.4313 21.6837 20.6213 21.6837 22.8713C21.6837 23.1613 21.5437 23.2513 21.1937 23.2513Z"
        fillRule="evenodd"
        clipRule="evenodd"
    />
</svg>
        