
<svg
    viewBox={0 0 31.404296875 28.851965054559592}
    xmlns="http://www.w3.org/2000/svg"
>
    <path
        fill="inherit"
        d="M27.1237 18.9829C27.6337 19.3229 28.2637 19.2029 28.6337 18.6829C30.3837 16.2729 31.4037 12.9629 31.4037 9.5929C31.4037 6.2129 30.3937 2.8729 28.6337 0.4929C28.2637 -0.0371 27.6337 -0.1471 27.1237 0.1929C26.6337 0.5329 26.5337 1.1829 26.9437 1.7429C28.4337 3.8429 29.2837 6.6729 29.2837 9.5929C29.2837 12.5029 28.4137 15.3029 26.9437 17.4329C26.5537 17.9929 26.6337 18.6429 27.1237 18.9829ZM11.9537 16.1929C15.2037 16.1929 17.8537 13.3029 17.8537 9.7829C17.8537 6.2829 15.2337 3.5329 11.9537 3.5329C8.7137 3.5329 6.0437 6.3329 6.0437 9.8029C6.0537 13.3229 8.7137 16.1929 11.9537 16.1929ZM22.0637 15.4129C22.5137 15.7229 23.1737 15.6329 23.5337 15.1029C24.5837 13.7129 25.2137 11.6829 25.2137 9.5929C25.2137 7.4929 24.5837 5.4729 23.5337 4.0629C23.1737 3.5429 22.5137 3.4329 22.0637 3.7629C21.5037 4.1429 21.4237 4.8329 21.8437 5.3929C22.6537 6.4829 23.0937 8.0029 23.0937 9.5929C23.0937 11.1729 22.6437 12.6829 21.8437 13.7829C21.4337 14.3629 21.5037 15.0129 22.0637 15.4129ZM11.9537 14.1229C9.9537 14.1229 8.2437 12.2229 8.2437 9.8029C8.2437 7.4329 9.9237 5.5929 11.9537 5.5929C14.0037 5.5929 15.6537 7.3829 15.6537 9.7829C15.6537 12.2029 13.9737 14.1229 11.9537 14.1229ZM3.3637 28.8529H20.5337C22.8037 28.8529 23.8837 28.1729 23.8837 26.6629C23.8837 23.0829 19.3737 17.9029 11.9537 17.9029C4.5237 17.9029 0.0037 23.0829 0.0037 26.6629C0.0037 28.1729 1.0837 28.8529 3.3637 28.8529ZM2.7037 26.7829C2.3537 26.7829 2.2037 26.6929 2.2037 26.4029C2.2037 24.1529 5.6737 19.9629 11.9537 19.9629C18.2237 19.9629 21.6837 24.1529 21.6837 26.4029C21.6837 26.6929 21.5437 26.7829 21.1937 26.7829Z"
        fillRule="evenodd"
        clipRule="evenodd"
    />
</svg>
        