
<svg
    viewBox="0 0 30.1328125 28.369140625"
    xmlns="http://www.w3.org/2000/svg"
>
    <path
        fill="inherit"
        d="M8.1237 28.3728C8.6537 28.3728 9.0537 28.0928 9.6937 27.4928L14.6337 22.9828H23.8737C27.9437 22.9828 30.1337 20.7428 30.1337 16.7328V6.2628C30.1337 2.2528 27.9437 0.0028 23.8737 0.0028H6.2637C2.1837 0.0028 0.0037 2.2428 0.0037 6.2628V16.7328C0.0037 20.7528 2.1837 22.9828 6.2637 22.9828H6.9037V26.9628C6.9037 27.8128 7.3437 28.3728 8.1237 28.3728ZM15.0837 11.3228C13.1537 11.3028 11.5937 9.6928 11.5937 7.5228C11.5937 5.4928 13.1537 3.8028 15.0837 3.8028C16.9937 3.8028 18.5537 5.4928 18.5537 7.5228C18.5537 9.6928 16.9937 11.3328 15.0837 11.3228ZM8.8837 18.6028C8.3437 18.6028 8.0937 18.2528 8.0937 17.7628C8.0937 16.2828 10.3237 12.4228 15.0837 12.4228C19.8337 12.4228 22.0637 16.2828 22.0637 17.7628C22.0637 18.2528 21.8037 18.6028 21.2637 18.6028Z"
        fillRule="evenodd"
        clipRule="evenodd"
    />
</svg>
        