
<svg
    viewBox="0 0 27.890625 27.890625"
    xmlns="http://www.w3.org/2000/svg"
>
    <path
        fill="inherit"
        d="M13.9427 27.8864C21.6427 27.8864 27.8927 21.6464 27.8927 13.9464C27.8927 6.2464 21.6427 -0.0036 13.9427 -0.0036C6.2527 -0.0036 0.0027 6.2464 0.0027 13.9464C0.0027 21.6464 6.2527 27.8864 13.9427 27.8864ZM13.9427 25.5664C7.5227 25.5664 2.3227 20.3664 2.3227 13.9464C2.3227 7.5164 7.5227 2.3264 13.9427 2.3264C20.3727 2.3264 25.5627 7.5164 25.5627 13.9464C25.5627 20.3664 20.3727 25.5664 13.9427 25.5664ZM13.9327 7.0364C14.7227 7.0364 15.5027 7.1764 16.2127 7.4264L16.8427 5.8664C15.9527 5.5364 14.9527 5.3364 13.9327 5.3364C12.9327 5.3364 11.9127 5.5364 11.0227 5.8664L11.6627 7.4264C12.3727 7.1764 13.1427 7.0364 13.9327 7.0364ZM20.1527 10.9364L21.7227 10.2764C20.8527 8.5064 19.3827 7.0264 17.5927 6.1564L16.9527 7.7264C18.3327 8.3964 19.4827 9.5464 20.1527 10.9364ZM10.9527 7.7264L10.2627 6.1664C8.4927 7.0264 7.0227 8.5064 6.1627 10.2764L7.7427 10.9364C8.3927 9.5464 9.5427 8.4064 10.9527 7.7264ZM13.9427 15.5164C15.6127 15.5264 16.9527 14.0964 16.9527 12.2364C16.9527 10.4764 15.6127 9.0064 13.9427 9.0064C12.2727 9.0064 10.9227 10.4764 10.9527 12.2364C10.9527 14.0964 12.2627 15.5064 13.9427 15.5164ZM7.0727 13.9464C7.0727 13.1364 7.1927 12.3864 7.4227 11.6764L5.8627 11.0364C5.5327 11.9264 5.3327 12.9164 5.3327 13.9464C5.3327 14.9564 5.5327 15.9564 5.8627 16.8564L7.4227 16.2164C7.1927 15.5064 7.0727 14.7364 7.0727 13.9464ZM20.8527 13.9464C20.8527 14.7364 20.7127 15.5064 20.4627 16.2164L22.0227 16.8564C22.3527 15.9564 22.5627 14.9564 22.5627 13.9464C22.5627 12.9164 22.3527 11.9364 22.0227 11.0364L20.4627 11.6764C20.7127 12.3864 20.8527 13.1364 20.8527 13.9464ZM13.9427 22.5464C17.3227 22.5464 20.3127 20.5064 21.7427 17.6064L20.1527 16.9364C19.8827 17.4964 19.5827 17.9964 19.1827 18.4264C18.2827 17.4764 16.3827 16.5964 13.9427 16.5964C11.5127 16.5964 9.6227 17.4764 8.7127 18.4164C8.3127 17.9964 8.0127 17.4964 7.7527 16.9364L6.1827 17.6064C7.5727 20.5064 10.5827 22.5464 13.9427 22.5464Z"
        fillRule="evenodd"
        clipRule="evenodd"
    />
</svg>
        