
<svg
    viewBox={0 0 32.23828125 25.169921875}
    xmlns="http://www.w3.org/2000/svg"
>
    <path
        fill="inherit"
        d="M4.2937 25.1692H27.9437C30.8137 25.1692 32.2337 23.7592 32.2337 20.9492V4.2392C32.2337 1.4192 30.8137 -0.0008 27.9437 -0.0008H4.2937C1.4337 -0.0008 0.0037 1.4192 0.0037 4.2392V20.9492C0.0037 23.7592 1.4337 25.1692 4.2937 25.1692ZM5.6437 18.5092C4.2937 18.5092 3.6337 17.8392 3.6337 16.5292V8.6692C3.6337 7.3392 4.2937 6.6892 5.6437 6.6892H13.4437C14.7937 6.6892 15.4637 7.3592 15.4637 8.6692V16.5292C15.4637 17.8392 14.7937 18.5092 13.4437 18.5092ZM23.4837 18.3592C20.0437 18.3592 17.7337 16.0692 17.7337 12.6092C17.7337 9.1592 20.0537 6.8092 23.4437 6.8092C26.7137 6.8092 29.0137 8.9392 29.0137 12.0192C29.0137 14.2592 27.9737 15.7192 26.3837 15.7192C25.6937 15.7192 25.0837 15.4192 24.7837 14.8892C24.3737 15.4192 23.7937 15.7192 23.1037 15.7192C21.5737 15.7192 20.5037 14.4692 20.5037 12.6192C20.5037 10.8292 21.5737 9.5292 23.0637 9.5292C23.7337 9.5292 24.2037 9.7592 24.5437 10.1492V10.0392C24.6237 9.7592 24.9137 9.5292 25.2237 9.5292C25.6337 9.5292 25.9337 9.8592 25.9337 10.2792V13.7792C25.9337 14.1792 26.1037 14.3592 26.5237 14.3592C27.1937 14.3592 27.6137 13.4892 27.6137 12.0992C27.6137 9.7592 25.9337 8.1892 23.4437 8.1892C20.9437 8.1892 19.2237 9.9892 19.2237 12.6192C19.2237 15.2992 20.9037 16.9392 23.6537 16.9392C24.5237 16.9392 24.9237 16.7792 25.3437 16.7092C25.5437 16.6792 25.6637 16.6392 25.8037 16.6392C26.1637 16.6392 26.4237 16.9292 26.4237 17.2792C26.4237 17.6492 26.1937 17.8792 25.8137 18.0492C25.2637 18.2692 24.3937 18.3592 23.4837 18.3592ZM9.5437 13.7392C10.7737 13.7392 11.7537 12.6892 11.7537 11.3192C11.7537 10.0192 10.7737 8.9692 9.5437 8.9692C8.3137 8.9692 7.3437 10.0192 7.3437 11.3192C7.3437 12.6892 8.3137 13.7392 9.5437 13.7392ZM23.3237 14.2892C24.0937 14.2892 24.5837 13.6292 24.5837 12.5492C24.5837 11.5392 24.1037 10.9192 23.3337 10.9192C22.5737 10.9192 22.0937 11.5392 22.0937 12.5892C22.0937 13.6592 22.5537 14.2892 23.3237 14.2892ZM5.2737 17.1892H13.8237C13.3937 15.9092 11.8137 14.7392 9.5537 14.7392C7.2737 14.7392 5.7037 15.9092 5.2737 17.1892Z"
        fillRule="evenodd"
        clipRule="evenodd"
    />
</svg>
        