
<svg
    viewBox="0 0 27.890625 27.890625"
    xmlns="http://www.w3.org/2000/svg"
>
    <path
        fill="inherit"
        d="M13.9427 27.8864C21.6427 27.8864 27.8927 21.6264 27.8927 13.9464C27.8927 6.2464 21.6427 -0.0036 13.9427 -0.0036C6.2627 -0.0036 0.0027 6.2464 0.0027 13.9464C0.0027 21.6264 6.2627 27.8864 13.9427 27.8864ZM13.9327 16.2864C11.3027 16.2564 9.2427 14.0664 9.2427 11.1264C9.2327 8.3664 11.3227 6.0664 13.9327 6.0664C16.5527 6.0664 18.6227 8.3664 18.6227 11.1264C18.6227 14.0664 16.5727 16.3064 13.9327 16.2864ZM13.9327 25.8164C10.8027 25.8164 7.6327 24.5264 5.5327 22.2964C7.0127 19.9764 10.2227 18.6064 13.9327 18.6064C17.6127 18.6064 20.8527 19.9464 22.3427 22.2964C20.2327 24.5264 17.0727 25.8164 13.9327 25.8164Z"
        fillRule="evenodd"
        clipRule="evenodd"
    />
</svg>
        