
<svg
    viewBox={0 0 30.1328125 28.287109375}
    xmlns="http://www.w3.org/2000/svg"
>
    <path
        fill="inherit"
        d="M8.4037 28.2828C9.0737 28.2828 9.5437 27.9328 10.3737 27.1928L15.0937 22.9928H23.8737C27.9437 22.9928 30.1337 20.7428 30.1337 16.7328V6.2628C30.1337 2.2528 27.9437 0.0028 23.8737 0.0028H6.2637C2.1837 0.0028 0.0037 2.2428 0.0037 6.2628V16.7328C0.0037 20.7528 2.1837 22.9928 6.2637 22.9928H6.9137V26.5528C6.9137 27.6028 7.4537 28.2828 8.4037 28.2828ZM8.9737 25.7828V21.8228C8.9737 21.0828 8.6837 20.7928 7.9437 20.7928H6.2637C3.5037 20.7928 2.2037 19.3828 2.2037 16.7228V6.2628C2.2037 3.5928 3.5037 2.2028 6.2637 2.2028H23.8737C26.6237 2.2028 27.9337 3.5928 27.9337 6.2628V16.7228C27.9337 19.3828 26.6237 20.7928 23.8737 20.7928H15.0137C14.2437 20.7928 13.8637 20.9028 13.3437 21.4328ZM15.0637 11.4728C16.8737 11.4828 18.3037 9.9528 18.3037 7.9328C18.3037 6.0328 16.8737 4.4528 15.0637 4.4528C13.2737 4.4528 11.8237 6.0328 11.8237 7.9328C11.8237 9.9528 13.2737 11.4528 15.0637 11.4728ZM9.2937 18.2628H20.8337C21.3437 18.2628 21.5837 17.9228 21.5837 17.4628C21.5837 16.0828 19.4937 12.4928 15.0637 12.4928C10.6337 12.4928 8.5537 16.0828 8.5537 17.4628C8.5537 17.9228 8.8037 18.2628 9.2937 18.2628Z"
        fillRule="evenodd"
        clipRule="evenodd"
    />
</svg>
        