
<svg
    viewBox="0 0 32.23828125 25.169921875"
    xmlns="http://www.w3.org/2000/svg"
>
    <path
        fill="inherit"
        d="M4.2937 25.1692H27.9437C30.8137 25.1692 32.2337 23.7592 32.2337 20.9492V4.2392C32.2337 1.4192 30.8137 -0.0008 27.9437 -0.0008H4.2937C1.4337 -0.0008 0.0037 1.4192 0.0037 4.2392V20.9492C0.0037 23.7592 1.4337 25.1692 4.2937 25.1692ZM4.3237 22.9692C2.9537 22.9692 2.2037 22.2392 2.2037 20.8192V4.3592C2.2037 2.9392 2.9537 2.1992 4.3237 2.1992H27.9137C29.2737 2.1992 30.0337 2.9392 30.0337 4.3592V20.8192C30.0337 22.2392 29.2737 22.9692 27.9137 22.9692ZM10.4337 12.5192C12.1037 12.5392 13.4237 11.1292 13.4237 9.2592C13.4237 7.5092 12.1037 6.0592 10.4337 6.0592C8.7737 6.0592 7.4337 7.5092 7.4337 9.2592C7.4337 11.1292 8.7737 12.5192 10.4337 12.5192ZM19.3437 8.0792H26.8137C27.2937 8.0792 27.6537 7.7092 27.6537 7.2292C27.6537 6.7692 27.2937 6.3992 26.8137 6.3992H19.3437C18.8537 6.3992 18.4837 6.7692 18.4837 7.2292C18.4837 7.7092 18.8537 8.0792 19.3437 8.0792ZM19.3437 13.4392H26.8137C27.2937 13.4392 27.6537 13.0592 27.6537 12.5792C27.6537 12.1092 27.2937 11.7592 26.8137 11.7592H19.3437C18.8537 11.7592 18.4837 12.1092 18.4837 12.5792C18.4837 13.0592 18.8537 13.4392 19.3437 13.4392ZM5.1037 18.7892H15.7737C16.2237 18.7892 16.4437 18.4892 16.4437 18.0692C16.4437 16.7892 14.5237 13.4792 10.4337 13.4792C6.3437 13.4792 4.4337 16.7892 4.4337 18.0692C4.4337 18.4892 4.6437 18.7892 5.1037 18.7892ZM19.3437 18.7892H26.8137C27.2937 18.7892 27.6537 18.4292 27.6537 17.9692C27.6537 17.4892 27.2937 17.0992 26.8137 17.0992H19.3437C18.8537 17.0992 18.4837 17.4892 18.4837 17.9692C18.4837 18.4292 18.8537 18.7892 19.3437 18.7892Z"
        fillRule="evenodd"
        clipRule="evenodd"
    />
</svg>
        