
<svg
    viewBox="0 0 35.91259765625 25.3203125"
    xmlns="http://www.w3.org/2000/svg"
>
    <path
        fill="inherit"
        d="M17.9609 12.6613C21.2209 12.6613 23.8709 9.7713 23.8709 6.2512C23.8709 2.7512 21.2309 0.0012 17.9609 0.0012C14.7209 0.0012 12.0609 2.8012 12.0609 6.2712C12.0609 9.7913 14.7209 12.6613 17.9609 12.6613ZM17.9609 10.5913C15.9709 10.5913 14.2609 8.6913 14.2609 6.2712C14.2609 3.9013 15.9409 2.0613 17.9609 2.0613C20.0009 2.0613 21.6709 3.8513 21.6709 6.2512C21.6709 8.6713 19.9909 10.5913 17.9609 10.5913ZM25.6109 6.2512C25.6109 6.8513 26.0709 7.3113 26.6709 7.3113H30.2009V8.9913C30.2009 9.9413 31.1209 10.2813 31.8709 9.7113L35.5309 6.9913C36.0409 6.6213 36.0409 5.9213 35.5309 5.5413L31.8709 2.8012C31.1409 2.2512 30.2009 2.5413 30.2009 3.5313V5.1812H26.6709C26.0709 5.1812 25.6109 5.6612 25.6109 6.2512ZM0.3709 6.9913L4.0309 9.7113C4.8009 10.2813 5.7009 9.9413 5.7009 8.9913V7.3113H9.2309C9.8309 7.3113 10.3109 6.8513 10.3109 6.2512C10.3109 5.6612 9.8309 5.1812 9.2309 5.1812H5.7009V3.5313C5.7009 2.5413 4.7709 2.2512 4.0309 2.8012L0.3709 5.5413C-0.1191 5.9213 -0.1191 6.6213 0.3709 6.9913ZM9.3809 25.3213H26.5509C28.8209 25.3213 29.9009 24.6413 29.9009 23.1313C29.9009 19.5513 25.3709 14.3713 17.9609 14.3713C10.5409 14.3713 6.0109 19.5513 6.0109 23.1313C6.0109 24.6413 7.0909 25.3213 9.3809 25.3213ZM8.7209 23.2513C8.3709 23.2513 8.2209 23.1613 8.2209 22.8713C8.2209 20.6213 11.6909 16.4313 17.9609 16.4313C24.2309 16.4313 27.7009 20.6213 27.7009 22.8713C27.7009 23.1613 27.5609 23.2513 27.2109 23.2513Z"
        fillRule="evenodd"
        clipRule="evenodd"
    />
</svg>
        