<svg viewBox="0 0 33.46875 24.58203125" xmlns="http://www.w3.org/2000/svg"><path d="M11.5137 11.9221C14.4337 11.9221 16.9837 9.2921 16.9837 5.8821C16.9837 2.5021 14.4337 0.0021 11.5137 0.0021C8.5837 0.0021 6.0437 2.5521 6.0437 5.9021C6.0437 9.2921 8.5737 11.9221 11.5137 11.9221ZM25.7837 12.7321C26.2537 12.7321 26.6237 12.5121 26.8937 12.1021L33.1437 2.2521C33.3037 1.9921 33.4737 1.6821 33.4737 1.3821C33.4737 0.7821 32.9237 0.3821 32.3637 0.3821C32.0037 0.3821 31.6637 0.5921 31.4137 1.0021L25.7337 10.0921L23.0337 6.6221C22.7237 6.1821 22.4037 6.0521 22.0437 6.0521C21.4337 6.0521 20.9737 6.5321 20.9737 7.1521C20.9737 7.4421 21.0937 7.7421 21.2837 8.0021L24.6237 12.1021C24.9737 12.5321 25.3337 12.7321 25.7837 12.7321ZM2.3337 24.5821H20.6737C22.1337 24.5821 23.0137 23.9021 23.0137 22.7621C23.0137 19.2321 18.5937 14.3721 11.4937 14.3721C4.4137 14.3721 0.0037 19.2321 0.0037 22.7621C0.0037 23.9021 0.8737 24.5821 2.3337 24.5821Z" /></svg>