
<svg
    viewBox={0 0 27.890625 27.890625}
    xmlns="http://www.w3.org/2000/svg"
>
    <path
        fill="inherit"
        d="M13.9427 27.8864C21.6427 27.8864 27.8927 21.6464 27.8927 13.9464C27.8927 6.2464 21.6427 -0.0036 13.9427 -0.0036C6.2527 -0.0036 0.0027 6.2464 0.0027 13.9464C0.0027 21.6464 6.2527 27.8864 13.9427 27.8864ZM13.9427 25.5664C7.5227 25.5664 2.3227 20.3664 2.3227 13.9464C2.3227 7.5164 7.5227 2.3264 13.9427 2.3264C20.3727 2.3264 25.5627 7.5164 25.5627 13.9464C25.5627 20.3664 20.3727 25.5664 13.9427 25.5664ZM17.4327 13.2464C18.8627 13.2464 20.0827 11.9464 20.0827 10.2764C20.0827 8.6364 18.8527 7.4364 17.4327 7.4364C15.9927 7.4364 14.7627 8.6864 14.7627 10.2964C14.7827 11.9464 15.9927 13.2464 17.4327 13.2464ZM9.7627 13.3864C11.0027 13.3864 12.0727 12.2664 12.0727 10.8164C12.0727 9.3964 11.0027 8.3264 9.7627 8.3264C8.5327 8.3264 7.4327 9.4164 7.4327 10.8264C7.4527 12.2664 8.5127 13.3864 9.7627 13.3864ZM6.0427 19.3864H11.1127C10.4227 18.4064 11.2627 16.3664 12.7027 15.2764C11.9527 14.7764 10.9927 14.4064 9.7627 14.4064C6.7527 14.4064 4.8827 16.6264 4.8827 18.4564C4.8827 19.0564 5.2127 19.3864 6.0427 19.3864ZM13.2527 19.3864H21.6027C22.6527 19.3864 23.0227 19.0864 23.0227 18.4964C23.0227 16.7864 20.8727 14.4264 17.4327 14.4264C13.9727 14.4264 11.8127 16.7864 11.8127 18.4964C11.8127 19.0864 12.1927 19.3864 13.2527 19.3864Z"
        fillRule="evenodd"
        clipRule="evenodd"
    />
</svg>
        