
<svg
    viewBox="0 0 27.890625 27.890625"
    xmlns="http://www.w3.org/2000/svg"
>
    <path
        fill="inherit"
        d="M13.9427 27.8927C21.6427 27.8927 27.8927 21.6427 27.8927 13.9427C27.8927 6.2627 21.6427 0.0027 13.9427 0.0027C6.2627 0.0027 0.0027 6.2627 0.0027 13.9427C0.0027 21.6427 6.2627 27.8927 13.9427 27.8927ZM13.9427 13.5227C11.9527 13.5127 10.3227 11.8227 10.3227 9.5527C10.3227 7.4527 11.9527 5.7027 13.9427 5.7027C15.9427 5.7027 17.5727 7.4527 17.5727 9.5527C17.5727 11.8227 15.9427 13.5327 13.9427 13.5227ZM7.5027 21.1127C6.9327 21.1127 6.6727 20.7427 6.6727 20.2227C6.6727 18.6927 8.9927 14.6827 13.9427 14.6827C18.8927 14.6827 21.2227 18.6927 21.2227 20.2227C21.2227 20.7427 20.9627 21.1127 20.3827 21.1127Z"
        fillRule="evenodd"
        clipRule="evenodd"
    />
</svg>
        