
<svg
    viewBox={0 0 25.169921875 25.169921875}
    xmlns="http://www.w3.org/2000/svg"
>
    <path
        fill="inherit"
        d="M4.2937 25.1692H20.8737C23.7437 25.1692 25.1737 23.7592 25.1737 20.9492V4.2392C25.1737 1.4192 23.7437 -0.0008 20.8737 -0.0008H4.2937C1.4337 -0.0008 0.0037 1.4192 0.0037 4.2392V20.9492C0.0037 23.7592 1.4337 25.1692 4.2937 25.1692ZM2.2037 20.8192V4.3592C2.2037 2.9392 2.9537 2.1992 4.3237 2.1992H20.8537C22.2037 2.1992 22.9737 2.9392 22.9737 4.3592V20.8192C22.9737 21.8892 22.5337 22.5692 21.7337 22.8492C20.5537 19.4992 16.9537 17.1592 12.6037 17.1592C8.2437 17.1592 4.6337 19.4992 3.4637 22.8492C2.6437 22.5892 2.2037 21.8992 2.2037 20.8192ZM12.5937 14.8792C15.2037 14.8992 17.2637 12.6692 17.2637 9.7492C17.2637 6.9992 15.2037 4.7292 12.5937 4.7292C9.9837 4.7292 7.9037 6.9992 7.9137 9.7492C7.9337 12.6692 9.9837 14.8492 12.5937 14.8792Z"
        fillRule="evenodd"
        clipRule="evenodd"
    />
</svg>
        