<svg viewBox="0 0 32.23828125 25.169921875" xmlns="http://www.w3.org/2000/svg"><path d="M4.2937 25.1692H27.9437C30.8137 25.1692 32.2337 23.7592 32.2337 20.9492V4.2392C32.2337 1.4192 30.8137 -0.0008 27.9437 -0.0008H4.2937C1.4337 -0.0008 0.0037 1.4192 0.0037 4.2392V20.9492C0.0037 23.7592 1.4337 25.1692 4.2937 25.1692ZM4.3237 22.9692C2.9537 22.9692 2.2037 22.2392 2.2037 20.8192V4.3592C2.2037 2.9392 2.9537 2.1992 4.3237 2.1992H27.9137C29.2737 2.1992 30.0337 2.9392 30.0337 4.3592V20.8192C30.0337 22.2392 29.2737 22.9692 27.9137 22.9692H25.3237C24.1737 19.5692 20.5337 17.1592 16.1337 17.1592C11.7137 17.1592 8.0837 19.5692 6.9437 22.9692ZM16.1337 14.8792C18.7437 14.8992 20.8037 12.6692 20.8037 9.7492C20.8037 6.9992 18.7437 4.7292 16.1337 4.7292C13.5237 4.7292 11.4437 6.9992 11.4537 9.7492C11.4737 12.6692 13.5237 14.8492 16.1337 14.8792Z" /></svg>