
<svg
    viewBox="0 0 45.595703125 28.851965054559592"
    xmlns="http://www.w3.org/2000/svg"
>
    <path
        fill="inherit"
        d="M41.3137 18.9829C41.8237 19.3229 42.4537 19.2029 42.8237 18.6829C44.5737 16.2729 45.5937 12.9629 45.5937 9.5929C45.5937 6.2129 44.5837 2.8729 42.8237 0.4929C42.4537 -0.0371 41.8237 -0.1471 41.3137 0.1929C40.8237 0.5329 40.7237 1.1829 41.1237 1.7429C42.6337 3.8429 43.4737 6.6729 43.4737 9.5929C43.4737 12.5029 42.6037 15.3029 41.1237 17.4329C40.7437 17.9929 40.8237 18.6429 41.3137 18.9829ZM26.1437 16.1929C29.3937 16.1929 32.0437 13.3029 32.0437 9.7829C32.0437 6.2829 29.4037 3.5329 26.1437 3.5329C22.9037 3.5329 20.2337 6.3329 20.2337 9.8029C20.2337 13.3229 22.9037 16.1929 26.1437 16.1929ZM36.2537 15.4129C36.7137 15.7229 37.3537 15.6329 37.7237 15.1029C38.7737 13.7129 39.4037 11.6829 39.4037 9.5929C39.4037 7.4929 38.7737 5.4729 37.7237 4.0629C37.3537 3.5429 36.7137 3.4329 36.2537 3.7629C35.6937 4.1429 35.6137 4.8329 36.0437 5.3929C36.8337 6.4829 37.2837 8.0029 37.2837 9.5929C37.2837 11.1729 36.8137 12.6829 36.0437 13.7829C35.6337 14.3629 35.6937 15.0129 36.2537 15.4129ZM10.3937 16.3129C13.2037 16.3129 15.5137 13.7829 15.5137 10.6829C15.5137 7.6429 13.2337 5.2029 10.3937 5.2029C7.5737 5.2029 5.2637 7.6829 5.2637 10.7129C5.2637 13.8029 7.5737 16.3129 10.3937 16.3129ZM26.1437 14.1229C24.1437 14.1229 22.4337 12.2229 22.4337 9.8029C22.4337 7.4329 24.1137 5.5929 26.1437 5.5929C28.1737 5.5929 29.8437 7.3829 29.8437 9.7829C29.8437 12.2029 28.1637 14.1229 26.1437 14.1229ZM10.3937 14.2729C8.7237 14.2729 7.3037 12.6829 7.3037 10.7129C7.3037 8.7829 8.7137 7.2329 10.3937 7.2329C12.1137 7.2329 13.4937 8.7529 13.4937 10.6829C13.4937 12.6829 12.0737 14.2729 10.3937 14.2729ZM2.7937 28.8529H13.5237C12.8637 28.4829 12.3637 27.6629 12.4537 26.8329H2.4437C2.1737 26.8329 2.0337 26.7229 2.0337 26.4429C2.0337 23.0529 5.9037 19.8929 10.3737 19.8929C12.1037 19.8929 13.6437 20.3029 14.9737 21.0829C15.4037 20.5429 15.9037 20.0629 16.5137 19.6229C14.7537 18.4729 12.6337 17.8729 10.3737 17.8729C4.6437 17.8729 0.0037 22.0329 0.0037 26.5729C0.0037 28.1029 0.9337 28.8529 2.7937 28.8529ZM17.5537 28.8529H34.7237C36.9937 28.8529 38.0737 28.1729 38.0737 26.6629C38.0737 23.0829 33.5537 17.9029 26.1437 17.9029C18.7137 17.9029 14.1937 23.0829 14.1937 26.6629C14.1937 28.1729 15.2737 28.8529 17.5537 28.8529ZM16.8937 26.7829C16.5437 26.7829 16.3937 26.6929 16.3937 26.4029C16.3937 24.1529 19.8637 19.9629 26.1437 19.9629C32.4037 19.9629 35.8737 24.1529 35.8737 26.4029C35.8737 26.6929 35.7337 26.7829 35.3837 26.7829Z"
        fillRule="evenodd"
        clipRule="evenodd"
    />
</svg>
        