
<svg
    viewBox={0 0 32.23828125 25.169921875}
    xmlns="http://www.w3.org/2000/svg"
>
    <path
        fill="inherit"
        d="M4.2937 25.1692H27.9437C30.8137 25.1692 32.2337 23.7592 32.2337 20.9492V4.2392C32.2337 1.4192 30.8137 -0.0008 27.9437 -0.0008H4.2937C1.4337 -0.0008 0.0037 1.4192 0.0037 4.2392V20.9492C0.0037 23.7592 1.4337 25.1692 4.2937 25.1692ZM10.4337 12.6192C8.7737 12.6192 7.4337 11.2292 7.4337 9.3492C7.4337 7.5992 8.7737 6.1492 10.4337 6.1492C12.1037 6.1492 13.4237 7.5992 13.4237 9.3492C13.4237 11.2292 12.1037 12.6292 10.4337 12.6192ZM19.3437 8.0792C18.8537 8.0792 18.4837 7.7092 18.4837 7.2292C18.4837 6.7692 18.8537 6.3992 19.3437 6.3992H26.8137C27.2937 6.3992 27.6537 6.7692 27.6537 7.2292C27.6537 7.7092 27.2937 8.0792 26.8137 8.0792ZM19.3437 13.4392C18.8537 13.4392 18.4837 13.0592 18.4837 12.5792C18.4837 12.1092 18.8537 11.7592 19.3437 11.7592H26.8137C27.2937 11.7592 27.6537 12.1092 27.6537 12.5792C27.6537 13.0592 27.2937 13.4392 26.8137 13.4392ZM5.1037 18.8792C4.6437 18.8792 4.4337 18.5792 4.4337 18.1692C4.4337 16.8892 6.3437 13.5792 10.4337 13.5792C14.5237 13.5792 16.4437 16.8892 16.4437 18.1692C16.4437 18.5792 16.2237 18.8792 15.7737 18.8792ZM19.3437 18.7892C18.8537 18.7892 18.4837 18.4292 18.4837 17.9692C18.4837 17.4892 18.8537 17.0992 19.3437 17.0992H26.8137C27.2937 17.0992 27.6537 17.4892 27.6537 17.9692C27.6537 18.4292 27.2937 18.7892 26.8137 18.7892Z"
        fillRule="evenodd"
        clipRule="evenodd"
    />
</svg>
        