
<svg
    viewBox="0 0 27.193359375 27.20028074590141"
    xmlns="http://www.w3.org/2000/svg"
>
    <path
        fill="inherit"
        d="M25.3953 26.9039C25.8053 27.3139 26.4853 27.2939 26.8853 26.8839C27.2953 26.4639 27.2953 25.8039 26.8853 25.3939L1.8153 0.3039C1.4053 -0.1061 0.7153 -0.1061 0.3053 0.3039C-0.1047 0.7039 -0.1047 1.4039 0.3053 1.7939ZM18.1253 7.4339C18.1253 4.0539 15.5753 1.5539 12.6553 1.5539C10.8053 1.5539 9.1253 2.5939 8.1453 4.1739L16.0853 12.1239C17.3153 11.0239 18.1253 9.3539 18.1253 7.4339ZM1.1453 24.3139C1.1453 25.4539 2.0153 26.1339 3.4753 26.1339H21.8153C21.9353 26.1339 22.0453 26.1239 22.1453 26.1039L11.9653 15.9339C5.2753 16.2339 1.1453 20.9139 1.1453 24.3139Z"
        fillRule="evenodd"
        clipRule="evenodd"
    />
</svg>
        