
<svg
    viewBox="0 0 27.890625 27.890625"
    xmlns="http://www.w3.org/2000/svg"
>
    <path
        fill="inherit"
        d="M13.9427 27.8864C21.6427 27.8864 27.8927 21.6464 27.8927 13.9464C27.8927 6.2464 21.6427 -0.0036 13.9427 -0.0036C6.2527 -0.0036 0.0027 6.2464 0.0027 13.9464C0.0027 21.6464 6.2527 27.8864 13.9427 27.8864ZM13.9427 25.5664C7.5227 25.5664 2.3227 20.3664 2.3227 13.9464C2.3227 7.5164 7.5227 2.3264 13.9427 2.3264C20.3727 2.3264 25.5627 7.5164 25.5627 13.9464C25.5627 20.3664 20.3727 25.5664 13.9427 25.5664ZM4.7627 12.5464C4.7627 14.8064 6.3527 16.4064 8.6027 16.4064H9.0627C8.9827 16.0364 8.9427 15.3664 8.9927 14.9264H8.6927C7.2827 14.9264 6.3127 13.9764 6.3127 12.5464C6.3127 11.1464 7.2827 10.1564 8.6927 10.1564H14.1927C15.6027 10.1564 16.5727 11.1464 16.5727 12.5464C16.5727 13.9764 15.6127 14.9264 14.1927 14.9264H12.1427C11.9927 15.3364 12.0427 16.0064 12.4527 16.4064H14.2727C16.5127 16.4064 18.1127 14.8064 18.1127 12.5464C18.1127 10.2964 16.5127 8.6864 14.2727 8.6864H8.6027C6.3527 8.6864 4.7627 10.2964 4.7627 12.5464ZM9.7527 15.4464C9.7527 17.7064 11.3427 19.3164 13.6027 19.3164H19.2627C21.5027 19.3164 23.1227 17.7064 23.1227 15.4464C23.1227 13.1964 21.5227 11.5964 19.2627 11.5964H18.8027C18.8627 11.9864 18.9527 12.4264 18.8627 13.0664H19.1827C20.5927 13.0664 21.5627 14.0364 21.5627 15.4464C21.5627 16.8564 20.5927 17.8464 19.1827 17.8464H13.6727C12.2627 17.8464 11.2927 16.8564 11.2927 15.4464C11.2927 14.0364 12.2627 13.0664 13.6727 13.0664H15.7127C15.8827 12.6764 15.8327 11.9664 15.4127 11.5964H13.6027C11.3427 11.5964 9.7527 13.1964 9.7527 15.4464Z"
        fillRule="evenodd"
        clipRule="evenodd"
    />
</svg>
        