
<svg
    viewBox={0 0 37.26953125 24.58203125}
    xmlns="http://www.w3.org/2000/svg"
>
    <path
        fill="inherit"
        d="M25.7737 11.9221C28.6937 11.9221 31.2237 9.2921 31.2237 5.8821C31.2237 2.5021 28.6837 0.0021 25.7737 0.0021C22.8437 0.0021 20.3037 2.5521 20.3037 5.9021C20.3037 9.2921 22.8337 11.9221 25.7737 11.9221ZM10.0237 12.2321C12.5737 12.2321 14.7837 9.9421 14.7837 6.9721C14.7837 4.0221 12.5637 1.8621 10.0237 1.8621C7.4937 1.8621 5.2637 4.0721 5.2637 7.0021C5.2637 9.9421 7.4737 12.2321 10.0237 12.2321ZM2.4037 24.5821H12.7837C11.3637 22.5221 13.0937 18.3621 16.0537 16.0921C14.5237 15.0821 12.5637 14.3321 10.0237 14.3321C3.8537 14.3321 0.0037 18.8821 0.0037 22.6521C0.0037 23.9021 0.6737 24.5821 2.4037 24.5821ZM17.1737 24.5821H34.3437C36.5037 24.5821 37.2737 23.9621 37.2737 22.7621C37.2737 19.2321 32.8537 14.3721 25.7537 14.3721C18.6737 14.3721 14.2637 19.2321 14.2637 22.7621C14.2637 23.9621 15.0237 24.5821 17.1737 24.5821Z"
        fillRule="evenodd"
        clipRule="evenodd"
    />
</svg>
        