
<svg
    viewBox="0 0 32.23828125 25.169921875"
    xmlns="http://www.w3.org/2000/svg"
>
    <path
        fill="inherit"
        d="M4.2937 25.1692H27.9437C30.8137 25.1692 32.2337 23.7592 32.2337 20.9492V4.2392C32.2337 1.4192 30.8137 -0.0008 27.9437 -0.0008H4.2937C1.4337 -0.0008 0.0037 1.4192 0.0037 4.2392V20.9492C0.0037 23.7592 1.4337 25.1692 4.2937 25.1692ZM4.3237 22.9692C2.9537 22.9692 2.2037 22.2392 2.2037 20.8192V4.3592C2.2037 2.9392 2.9537 2.1992 4.3237 2.1992H27.9137C29.2737 2.1992 30.0337 2.9392 30.0337 4.3592V20.8192C30.0337 22.2392 29.2737 22.9692 27.9137 22.9692ZM6.0537 18.3292H13.6137C14.9437 18.3292 15.5737 17.6892 15.5737 16.4192V8.7792C15.5737 7.5092 14.9437 6.8592 13.6137 6.8592H6.0537C4.7537 6.8592 4.1037 7.4892 4.1037 8.7792V16.4192C4.1037 17.6892 4.7537 18.3292 6.0537 18.3292ZM22.8337 18.1792C23.7237 18.1792 24.5537 18.0992 25.0837 17.8792C25.4537 17.7292 25.6737 17.4992 25.6737 17.1492C25.6737 16.7992 25.4337 16.5292 25.0737 16.5292C24.9337 16.5292 24.8137 16.5692 24.6337 16.5992C24.2237 16.6492 23.8337 16.8192 22.9837 16.8192C20.3337 16.8192 18.6937 15.2192 18.6937 12.6192C18.6937 10.0592 20.3537 8.3092 22.7937 8.3092C25.2137 8.3092 26.8337 9.8392 26.8337 12.1092C26.8337 13.4692 26.4237 14.3192 25.7737 14.3192C25.3637 14.3192 25.1937 14.1392 25.1937 13.7392V10.3492C25.1937 9.9392 24.9137 9.6292 24.5137 9.6292C24.2137 9.6292 23.9437 9.8392 23.8537 10.1192V10.2292C23.5337 9.8392 23.0737 9.6292 22.4237 9.6292C20.9737 9.6292 19.9637 10.8792 19.9637 12.6192C19.9637 14.4092 20.9737 15.6292 22.4637 15.6292C23.1237 15.6292 23.6937 15.3392 24.0937 14.8192C24.3937 15.3392 24.9637 15.6292 25.6437 15.6292C27.1837 15.6292 28.1937 14.2092 28.1937 12.0292C28.1937 9.0492 25.9737 6.9892 22.7937 6.9892C19.4937 6.9892 17.2437 9.2692 17.2437 12.6092C17.2437 15.9592 19.4837 18.1792 22.8337 18.1792ZM9.8437 13.6992C8.6437 13.6992 7.6937 12.6892 7.6937 11.3592C7.6937 10.0892 8.6437 9.0792 9.8437 9.0792C11.0337 9.0792 11.9737 10.0892 11.9737 11.3592C11.9737 12.6892 11.0337 13.6992 9.8437 13.6992ZM22.6637 14.2492C21.9337 14.2492 21.4737 13.6292 21.4737 12.5892C21.4737 11.5692 21.9437 10.9692 22.6837 10.9692C23.4337 10.9692 23.8937 11.5692 23.8937 12.5492C23.8937 13.5992 23.4337 14.2492 22.6637 14.2492ZM5.6837 17.0492C6.0937 15.8192 7.6437 14.6692 9.8437 14.6692C12.0437 14.6692 13.5937 15.8192 14.0037 17.0492Z"
        fillRule="evenodd"
        clipRule="evenodd"
    />
</svg>
        