
<svg
    viewBox="0 0 33.072265625 32.689453125"
    xmlns="http://www.w3.org/2000/svg"
>
    <path
        fill="inherit"
        d="M1.0937 17.3747H4.9037V21.5747C4.9037 23.8547 6.3537 25.2147 9.0737 25.6847L15.5037 26.8147V31.6047C15.5037 32.2747 15.8837 32.6847 16.5437 32.6847C17.1737 32.6847 17.5637 32.2747 17.5637 31.6047V27.1847L23.9937 28.3047C26.6037 28.7647 28.1637 27.1247 28.1637 24.1947V17.3747H31.9737C32.6637 17.3747 33.0737 16.9847 33.0737 16.3547C33.0737 15.6947 32.6637 15.3147 31.9737 15.3147H28.1637V8.5047C28.1637 5.4247 26.7137 3.9147 23.9937 4.3847L17.5637 5.5247V1.0947C17.5637 0.4147 17.1737 0.0047 16.5437 0.0047C15.8837 0.0047 15.5037 0.4147 15.5037 1.0947V5.8747L9.0737 7.0147C6.3537 7.4947 4.9037 8.8147 4.9037 11.1147V15.3147H1.0937C0.4137 15.3147 0.0037 15.6947 0.0037 16.3547C0.0037 16.9847 0.4137 17.3747 1.0937 17.3747ZM24.1037 6.4547C25.4037 6.2347 26.1037 6.9547 26.1037 8.4747V15.3147H17.5637V7.5747ZM6.9737 11.0847C6.9737 9.9347 7.6737 9.2847 8.9737 9.0647L15.5037 7.9247V15.3147H6.9737ZM8.9737 23.6247C7.6737 23.4047 6.9737 22.7547 6.9737 21.6047V17.3747H15.5037V24.7647ZM24.1037 26.2547L17.5637 25.1147V17.3747H26.1037V24.2247C26.1037 25.6747 25.3637 26.4547 24.1037 26.2547Z"
        fillRule="evenodd"
        clipRule="evenodd"
    />
</svg>
        