
<svg
    viewBox={0 0 27.890625 27.890625}
    xmlns="http://www.w3.org/2000/svg"
>
    <path
        fill="inherit"
        d="M13.9427 27.8864C21.6427 27.8864 27.8927 21.6464 27.8927 13.9464C27.8927 6.2464 21.6427 -0.0036 13.9427 -0.0036C6.2527 -0.0036 0.0027 6.2464 0.0027 13.9464C0.0027 21.6464 6.2527 27.8864 13.9427 27.8864ZM13.9427 18.5964C9.8427 18.5964 6.6727 20.0664 5.2927 21.6964C3.4427 19.6464 2.3227 16.9264 2.3227 13.9464C2.3227 7.5164 7.5227 2.3264 13.9427 2.3264C20.3727 2.3264 25.5627 7.5164 25.5627 13.9464C25.5627 16.9264 24.4427 19.6464 22.6027 21.6964C21.2227 20.0664 18.0627 18.5964 13.9427 18.5964ZM13.9427 16.2664C16.5827 16.2964 18.6327 14.0564 18.6327 11.1164C18.6327 8.3564 16.5727 6.0664 13.9427 6.0664C11.3227 6.0664 9.2427 8.3564 9.2527 11.1164C9.2727 14.0564 11.3227 16.2464 13.9427 16.2664Z"
        fillRule="evenodd"
        clipRule="evenodd"
    />
</svg>
        