
<svg
    viewBox="0 0 27.193359375 27.20028074590141"
    xmlns="http://www.w3.org/2000/svg"
>
    <path
        fill="inherit"
        d="M25.3953 26.9039C25.8053 27.3139 26.4853 27.2939 26.8853 26.8839C27.2953 26.4639 27.2953 25.8039 26.8853 25.3939L1.8153 0.3039C1.4053 -0.1061 0.7153 -0.1061 0.3053 0.3039C-0.1047 0.7039 -0.1047 1.4039 0.3053 1.7939ZM13.0953 3.2439C15.1453 3.2439 16.7953 5.0339 16.7953 7.4339C16.7953 8.9739 16.0953 10.3339 15.0553 11.0939L16.5653 12.5939C18.0353 11.4339 18.9953 9.5539 18.9953 7.4339C18.9953 3.9339 16.3753 1.1839 13.0953 1.1839C10.9853 1.1839 9.1353 2.3539 8.1053 4.1339L9.6953 5.7339C10.2753 4.2439 11.5853 3.2439 13.0953 3.2439ZM20.4553 24.4339H3.8453C3.4953 24.4339 3.3453 24.3439 3.3453 24.0539C3.3453 21.8039 6.8153 17.6139 13.0953 17.6139C13.2653 17.6139 13.4753 17.6139 13.6553 17.6339L11.6553 15.6339C5.0953 16.2339 1.1453 20.9839 1.1453 24.3139C1.1453 25.8239 2.2253 26.5039 4.5053 26.5039H21.6753C21.9653 26.5039 22.2353 26.4939 22.4953 26.4639Z"
        fillRule="evenodd"
        clipRule="evenodd"
    />
</svg>
        