
<svg
    viewBox={0 0 25.169921875 25.169921875}
    xmlns="http://www.w3.org/2000/svg"
>
    <path
        fill="inherit"
        d="M4.2937 25.1692H20.8737C23.7437 25.1692 25.1737 23.7592 25.1737 20.9492V4.2392C25.1737 1.4192 23.7437 -0.0008 20.8737 -0.0008H4.2937C1.4337 -0.0008 0.0037 1.4192 0.0037 4.2392V20.9492C0.0037 23.7592 1.4337 25.1692 4.2937 25.1692ZM12.5937 14.8792C9.9837 14.8492 7.9337 12.6692 7.9137 9.7492C7.9037 6.9992 9.9837 4.7292 12.5937 4.7292C15.2037 4.7292 17.2637 6.9992 17.2637 9.7492C17.2637 12.6692 15.2037 14.8992 12.5937 14.8792ZM3.3737 23.1292C4.4337 19.6592 8.1237 17.1592 12.6037 17.1592C17.0737 17.1592 20.7637 19.6592 21.8237 23.1292Z"
        fillRule="evenodd"
        clipRule="evenodd"
    />
</svg>
        