
<svg
    viewBox="0 0 27.890625 30.544813437289537"
    xmlns="http://www.w3.org/2000/svg"
>
    <path
        fill="inherit"
        d="M13.9427 30.5406C21.6427 30.5406 27.8927 24.3006 27.8927 16.6006C27.8927 9.7806 22.9827 4.1206 16.5827 2.9106V0.9706C16.5827 -0.0094 15.9127 -0.2594 15.1527 0.2706L10.8027 3.3406C10.1727 3.7906 10.1827 4.4406 10.8027 4.8806L15.1627 7.9406C15.9127 8.4606 16.5827 8.2206 16.5827 7.2506V5.2806C21.7227 6.4706 25.5627 11.0506 25.5627 16.6006C25.5627 23.0206 20.3727 28.2206 13.9427 28.2206C7.5227 28.2206 2.3227 23.0206 2.3227 16.6006C2.3227 12.7006 4.2427 9.2706 7.1327 7.1906C7.6927 6.7706 7.8727 6.1306 7.5327 5.5506C7.1927 5.0106 6.4127 4.8406 5.8127 5.3106C2.2827 7.8506 0.0027 11.9106 0.0027 16.6006C0.0027 24.3006 6.2527 30.5406 13.9427 30.5406ZM17.4427 15.9006C18.8827 15.9006 20.0927 14.6006 20.0927 12.9306C20.0927 11.2906 18.8627 10.0906 17.4427 10.0906C16.0127 10.0906 14.7827 11.3406 14.7827 12.9506C14.7927 14.6006 16.0127 15.9006 17.4427 15.9006ZM9.7727 16.0406C11.0227 16.0406 12.0827 14.9206 12.0827 13.4706C12.0827 12.0506 11.0227 10.9806 9.7727 10.9806C8.5427 10.9806 7.4527 12.0706 7.4527 13.4806C7.4627 14.9206 8.5327 16.0406 9.7727 16.0406ZM6.0527 22.0406H11.1327C10.4327 21.0606 11.2827 19.0206 12.7127 17.9306C11.9627 17.4306 11.0027 17.0606 9.7727 17.0606C6.7627 17.0606 4.8927 19.2806 4.8927 21.1106C4.8927 21.7106 5.2227 22.0406 6.0527 22.0406ZM13.2627 22.0406H21.6127C22.6727 22.0406 23.0327 21.7406 23.0327 21.1506C23.0327 19.4406 20.8927 17.0806 17.4427 17.0806C13.9827 17.0806 11.8227 19.4406 11.8227 21.1506C11.8227 21.7406 12.2127 22.0406 13.2627 22.0406Z"
        fillRule="evenodd"
        clipRule="evenodd"
    />
</svg>
        