
<svg
    viewBox={0 0 30.478756490755373 30.49482171047532}
    xmlns="http://www.w3.org/2000/svg"
>
    <path
        fill="inherit"
        d="M11.1738 5.896C12.0838 5.486 13.0538 5.226 14.0838 5.106C14.3738 5.076 14.5738 4.856 14.5738 4.566V0.556C14.5738 0.206 14.3138 -0.034 13.9738 0.006C12.1138 0.156 10.3338 0.656 8.7138 1.426C8.4138 1.576 8.3138 1.936 8.4738 2.216L10.4738 5.666C10.6138 5.906 10.8938 6.006 11.1738 5.896ZM16.3938 5.106C17.4338 5.216 18.3938 5.486 19.3038 5.896C19.5838 6.006 19.8638 5.906 20.0038 5.666L22.0038 2.216C22.1638 1.936 22.0538 1.576 21.7438 1.426C20.1238 0.656 18.3738 0.156 16.5038 0.006C16.1638 -0.024 15.9038 0.226 15.9038 0.566V4.566C15.9038 4.856 16.1038 5.076 16.3938 5.106ZM7.0438 9.166C7.6438 8.356 8.3538 7.646 9.1738 7.046C9.4038 6.866 9.4638 6.566 9.3238 6.316L7.3338 2.876C7.1638 2.586 6.8138 2.506 6.5238 2.696C5.0338 3.746 3.7438 5.036 2.7138 6.536C2.5138 6.826 2.5838 7.166 2.8838 7.346L6.3438 9.316C6.5938 9.466 6.8638 9.406 7.0438 9.166ZM21.3138 7.046C22.1238 7.646 22.8338 8.346 23.4538 9.166C23.6238 9.396 23.9138 9.476 24.1438 9.326L27.5938 7.346C27.8938 7.166 27.9738 6.826 27.7938 6.536C26.7438 5.036 25.4438 3.736 23.9538 2.696C23.6638 2.506 23.3138 2.586 23.1438 2.886L21.1638 6.316C21.0138 6.576 21.0738 6.866 21.3138 7.046ZM24.5938 11.176C24.9838 12.076 25.2638 13.066 25.3738 14.076C25.4038 14.376 25.6238 14.566 25.9138 14.566H29.9138C30.2538 14.566 30.5038 14.316 30.4738 13.976C30.3238 12.116 29.8238 10.336 29.0638 8.726C28.9138 8.416 28.5638 8.316 28.2738 8.496L24.8138 10.486C24.5738 10.646 24.4838 10.916 24.5938 11.176ZM5.1038 14.076C5.2238 13.066 5.4838 12.076 5.8838 11.186C6.0038 10.916 5.9238 10.626 5.6638 10.476L2.2038 8.496C1.9038 8.316 1.5638 8.426 1.4238 8.726C0.6538 10.356 0.1638 12.106 0.0038 13.976C-0.0162 14.316 0.2238 14.566 0.5638 14.566H4.5838C4.8738 14.566 5.0838 14.376 5.1038 14.076ZM12.0738 20.366C14.3538 20.366 15.4238 18.956 15.4238 17.176C15.4238 15.306 14.3038 14.606 12.8438 14.046L12.0438 13.746C11.0738 13.376 10.4038 12.936 10.4038 11.886C10.4038 10.956 10.9638 10.246 12.0038 10.246C12.9238 10.246 13.5338 10.776 13.7838 11.776C13.8938 12.156 14.1538 12.326 14.5238 12.326C14.9138 12.326 15.1738 12.036 15.1738 11.636C15.1738 11.526 15.1538 11.376 15.1238 11.256C14.7838 9.816 13.5938 8.936 12.0238 8.936C9.9838 8.936 8.8738 10.316 8.8738 11.976C8.8738 13.636 9.8438 14.536 11.4038 15.096L12.1838 15.386C13.1838 15.736 13.8938 16.256 13.8938 17.326C13.8938 18.286 13.2638 19.046 12.1038 19.046C11.0738 19.046 10.4038 18.486 10.1738 17.466C10.0638 17.076 9.8338 16.906 9.4538 16.906C9.0538 16.906 8.7638 17.206 8.7638 17.626C8.7638 17.806 8.7938 18.006 8.8438 18.146C9.3038 19.586 10.4638 20.366 12.0738 20.366ZM16.4738 22.946C16.8838 22.946 17.1038 22.716 17.1738 22.266L19.2838 10.026C19.2938 9.926 19.3338 9.776 19.3338 9.586C19.3338 9.206 19.0738 8.936 18.6738 8.936C18.2538 8.936 18.0538 9.176 17.9638 9.626L15.8638 21.856C15.8438 21.946 15.8238 22.096 15.8238 22.286C15.8238 22.676 16.0838 22.946 16.4738 22.946ZM25.3938 16.396C25.2638 17.426 25.0038 18.406 24.5938 19.306C24.4838 19.566 24.5738 19.846 24.8338 19.996L28.2738 21.976C28.5738 22.156 28.9138 22.066 29.0638 21.746C29.8238 20.126 30.3238 18.366 30.4738 16.496C30.4938 16.146 30.2538 15.906 29.9138 15.906H25.9138C25.6238 15.906 25.4038 16.096 25.3938 16.396ZM5.8838 19.306C5.4938 18.406 5.2338 17.426 5.1138 16.396C5.0838 16.096 4.8738 15.906 4.5838 15.906H0.5638C0.2238 15.906 -0.0262 16.146 0.0038 16.496C0.1538 18.376 0.6538 20.146 1.4338 21.766C1.5738 22.086 1.9038 22.196 2.2138 22.016L5.6638 20.006C5.9238 19.856 6.0038 19.566 5.8838 19.306ZM21.1438 20.236C21.7038 20.236 22.1138 19.826 22.1138 19.296C22.1138 18.766 21.7038 18.336 21.1438 18.336C20.6038 18.336 20.1938 18.766 20.1938 19.296C20.1938 19.826 20.6038 20.236 21.1438 20.236ZM23.4538 21.316C22.8438 22.126 22.1238 22.826 21.3138 23.436C21.0838 23.616 21.0138 23.916 21.1538 24.146L23.1438 27.596C23.3138 27.886 23.6638 27.976 23.9538 27.786C25.4638 26.736 26.7338 25.436 27.7838 23.956C27.9738 23.666 27.8838 23.316 27.5938 23.136L24.1438 21.156C23.9138 21.006 23.6238 21.086 23.4538 21.316ZM9.1738 23.436C8.3738 22.846 7.6438 22.136 7.0538 21.316C6.8838 21.086 6.5938 21.016 6.3338 21.166L2.8838 23.136C2.5838 23.316 2.5138 23.666 2.6938 23.956C3.7438 25.446 5.0438 26.736 6.5338 27.786C6.8238 27.976 7.1838 27.896 7.3438 27.606L9.3238 24.146C9.4638 23.906 9.4038 23.616 9.1738 23.436ZM19.3038 24.596C18.4138 24.996 17.4338 25.256 16.3938 25.376C16.1038 25.406 15.9038 25.626 15.9038 25.916V29.936C15.9038 30.276 16.1638 30.516 16.5038 30.496C18.3638 30.346 20.1538 29.826 21.7638 29.056C22.0638 28.916 22.1638 28.566 22.0038 28.266L20.0038 24.816C19.8638 24.576 19.5838 24.476 19.3038 24.596ZM14.0838 25.376C13.0738 25.256 12.0838 24.996 11.1838 24.616C10.9238 24.476 10.6238 24.576 10.4838 24.816L8.4938 28.266C8.3238 28.566 8.4238 28.916 8.7338 29.056C10.3538 29.826 12.1138 30.326 13.9738 30.496C14.3138 30.506 14.5738 30.276 14.5738 29.936V25.916C14.5738 25.626 14.3738 25.406 14.0838 25.376Z"
        fillRule="evenodd"
        clipRule="evenodd"
    />
</svg>
        