
<svg
    viewBox={0 0 25.169921875 25.169921875}
    xmlns="http://www.w3.org/2000/svg"
>
    <path
        fill="inherit"
        d="M4.2937 25.1692H20.8737C23.7437 25.1692 25.1737 23.7592 25.1737 20.9492V4.2392C25.1737 1.4192 23.7437 -0.0008 20.8737 -0.0008H4.2937C1.4337 -0.0008 0.0037 1.4192 0.0037 4.2392V20.9492C0.0037 23.7592 1.4337 25.1692 4.2937 25.1692ZM9.3137 17.8392C7.6437 17.8392 6.4537 17.0392 5.9837 15.5592C5.9437 15.4192 5.8937 15.1992 5.8937 15.0292C5.8937 14.5892 6.1937 14.2692 6.6137 14.2692C7.0037 14.2692 7.2637 14.4492 7.3537 14.8492C7.6037 15.9092 8.2837 16.4892 9.3537 16.4892C10.5437 16.4892 11.1837 15.6992 11.1837 14.7092C11.1837 13.6192 10.4437 13.0792 9.4237 12.7192L8.6137 12.4092C7.0237 11.8392 6.0137 10.9092 6.0137 9.1992C6.0137 7.4792 7.1537 6.0592 9.2737 6.0592C10.8837 6.0592 12.1237 6.9692 12.4537 8.4492C12.4937 8.5892 12.5137 8.7392 12.5137 8.8492C12.5137 9.2592 12.2537 9.5592 11.8437 9.5592C11.4537 9.5592 11.1837 9.3892 11.0837 8.9992C10.8237 7.9692 10.1837 7.4192 9.2437 7.4192C8.1737 7.4192 7.6037 8.1492 7.6037 9.1092C7.6037 10.1892 8.2837 10.6392 9.2937 11.0192L10.1037 11.3292C11.6037 11.9092 12.7837 12.6192 12.7837 14.5592C12.7837 16.3892 11.6737 17.8392 9.3137 17.8392ZM13.8537 20.5092C13.4437 20.5092 13.1837 20.2192 13.1837 19.8192C13.1837 19.6292 13.2037 19.4692 13.2337 19.3692L15.3937 6.7792C15.4737 6.3192 15.6937 6.0592 16.1237 6.0592C16.5337 6.0592 16.8037 6.3392 16.8037 6.7392C16.8037 6.9292 16.7737 7.0992 16.7637 7.1892L14.5837 19.7792C14.5037 20.2592 14.2837 20.5092 13.8537 20.5092ZM18.6637 17.7192C18.1137 17.7192 17.6937 17.2992 17.6937 16.7392C17.6937 16.1892 18.1137 15.7492 18.6637 15.7492C19.2537 15.7492 19.6837 16.1892 19.6837 16.7392C19.6837 17.2992 19.2537 17.7192 18.6637 17.7192Z"
        fillRule="evenodd"
        clipRule="evenodd"
    />
</svg>
        