<svg viewBox="0 0 29.955078125 32.224609375" xmlns="http://www.w3.org/2000/svg"><path d="M18.5637 32.2248C19.2937 32.2248 19.6637 31.8148 19.8137 31.0448L25.7437 1.7248C25.8037 1.5048 25.8237 1.3248 25.8237 1.0148C25.8237 0.4748 25.2937 0.0048 24.6537 0.0048C23.8937 0.0048 23.5437 0.3548 23.4037 1.0348L17.5037 30.0948C17.4337 30.4648 17.3637 30.7848 17.3637 31.0948C17.3637 31.5948 17.7637 32.2248 18.5637 32.2248ZM7.9337 26.3848C12.5337 26.3848 15.8437 23.8048 15.8437 19.1648C15.8437 15.0348 13.1837 13.3048 9.4637 12.1548L7.3837 11.5148C4.9737 10.7748 3.0537 9.5248 3.0537 6.9448C3.0537 4.1748 5.2337 2.6348 7.7237 2.6348C10.0937 2.6348 12.2137 3.8848 12.7737 6.5748C12.9337 7.2748 13.3537 7.6248 14.0537 7.6248C14.7337 7.6248 15.2837 7.1948 15.2837 6.3948C15.2837 6.1948 15.2337 5.9048 15.1737 5.6348C14.3737 2.1448 11.2837 0.2148 7.7637 0.2148C3.5537 0.2148 0.3537 2.9548 0.3537 7.0948C0.3537 10.9748 2.8337 12.9348 6.5537 14.0848L8.6237 14.7248C11.1937 15.5048 13.1437 16.7348 13.1437 19.4448C13.1437 22.2448 10.8937 23.9548 8.0437 23.9548C5.1937 23.9548 3.0337 22.5048 2.4737 19.7548C2.2837 18.9948 1.8637 18.6848 1.2137 18.6848C0.4937 18.6848 0.0037 19.2048 0.0037 19.9448C0.0037 20.4248 0.0637 20.7648 0.1637 21.1248C1.0537 24.4448 4.1937 26.3848 7.9337 26.3848ZM28.0837 26.3848C29.1037 26.3848 29.9537 25.5548 29.9537 24.5048C29.9537 23.4648 29.1037 22.6248 28.0837 22.6248C27.0337 22.6248 26.1937 23.4648 26.1937 24.5048C26.1937 25.5548 27.0337 26.3848 28.0837 26.3848Z" /></svg>