
<svg
    viewBox="0 0 30.529296875 29.17578125"
    xmlns="http://www.w3.org/2000/svg"
>
    <path
        fill="inherit"
        d="M1.0937 29.179H29.4237C30.0237 29.179 30.5337 28.669 30.5337 28.069C30.5337 27.469 30.0237 26.979 29.4237 26.979H28.7137V25.979C28.7137 25.429 28.3937 25.099 27.8337 25.099H26.9637V9.379H28.1637C28.9137 9.379 29.3537 8.829 29.3537 8.269C29.3537 7.859 29.1237 7.509 28.6137 7.219L16.9437 0.479C16.3937 0.169 15.8137 -0.001 15.2537 -0.001C14.6937 -0.001 14.1137 0.169 13.5937 0.479L1.9137 7.219C1.3937 7.509 1.1737 7.859 1.1737 8.269C1.1737 8.829 1.6137 9.379 2.3637 9.379H3.5637V25.099H2.7037C2.1437 25.099 1.8137 25.429 1.8137 25.979V26.979H1.0937C0.4937 26.979 0.0037 27.469 0.0037 28.069C0.0037 28.669 0.4937 29.179 1.0937 29.179ZM11.9937 20.879C10.3237 20.879 9.1337 20.069 8.6637 18.589C8.6137 18.439 8.5737 18.229 8.5737 18.059C8.5737 17.619 8.8737 17.309 9.2837 17.309C9.6837 17.309 9.9237 17.489 10.0337 17.879C10.2837 18.939 10.9637 19.519 12.0137 19.519C13.2237 19.519 13.8637 18.729 13.8637 17.749C13.8637 16.649 13.1237 16.119 12.1037 15.749L11.2937 15.449C9.6937 14.879 8.6937 13.929 8.6937 12.239C8.6937 10.509 9.8337 9.079 11.9337 9.079C13.5637 9.079 14.7937 10.009 15.1337 11.489C15.1737 11.619 15.1937 11.769 15.1937 11.879C15.1937 12.289 14.9337 12.579 14.5237 12.579C14.1337 12.579 13.8637 12.429 13.7637 12.019C13.5037 10.989 12.8637 10.459 11.9237 10.459C10.8537 10.459 10.2837 11.179 10.2837 12.129C10.2837 13.209 10.9637 13.669 11.9737 14.059L12.7837 14.369C14.2837 14.939 15.4537 15.659 15.4537 17.599C15.4537 19.429 14.3537 20.879 11.9937 20.879ZM16.5337 23.529C16.1237 23.529 15.8637 23.259 15.8637 22.859C15.8637 22.669 15.8837 22.489 15.9037 22.409L18.0637 9.799C18.1537 9.339 18.3637 9.089 18.8037 9.089C19.2137 9.089 19.4837 9.379 19.4837 9.779C19.4837 9.969 19.4537 10.129 19.4237 10.229L17.2537 22.819C17.1837 23.279 16.9537 23.529 16.5337 23.529ZM21.3437 20.749C20.7937 20.749 20.3737 20.329 20.3737 19.769C20.3737 19.209 20.7937 18.769 21.3437 18.769C21.9337 18.769 22.3637 19.209 22.3637 19.769C22.3637 20.329 21.9337 20.749 21.3437 20.749Z"
        fillRule="evenodd"
        clipRule="evenodd"
    />
</svg>
        