<svg viewBox="0 0 32.935546875 27.26189615322232" xmlns="http://www.w3.org/2000/svg"><path d="M32.9327 16.3992C32.9327 7.7792 26.3227 0.7192 17.8927 -0.0008C17.4627 -0.0408 17.1327 0.2792 17.1327 0.7192V5.1892C17.1327 5.5592 17.3927 5.8392 17.7627 5.8692C22.9927 6.5092 27.0727 10.9792 27.0727 16.3992C27.0727 18.8592 26.2227 21.1292 24.7327 23.0292C24.5427 23.2592 24.5527 23.5592 24.7627 23.7792L28.0227 27.0292C28.3327 27.3292 28.7927 27.3292 29.0627 27.0092C31.4827 24.1392 32.9327 20.4292 32.9327 16.3992ZM0.0027 16.3992C0.0027 20.4392 1.4527 24.1492 3.8727 27.0192C4.1427 27.3492 4.5927 27.3292 4.9127 27.0292L8.1727 23.7792C8.3827 23.5592 8.3927 23.2592 8.2027 23.0292C6.7027 21.1292 5.8627 18.8592 5.8627 16.3992C5.8627 10.9792 9.9427 6.5092 15.1727 5.8692C15.5427 5.8392 15.8027 5.5592 15.8027 5.1892V0.7192C15.8027 0.2792 15.4727 -0.0408 15.0427 -0.0008C6.6127 0.7192 0.0027 7.7792 0.0027 16.3992ZM13.2927 21.7192C15.5727 21.7192 16.6527 20.3092 16.6527 18.5192C16.6527 16.6592 15.5127 15.9492 14.0527 15.3992L13.2727 15.0992C12.3027 14.7292 11.6327 14.2792 11.6327 13.2292C11.6327 12.2992 12.1827 11.5992 13.2327 11.5992C14.1327 11.5992 14.7627 12.1192 15.0127 13.1192C15.1027 13.4992 15.3627 13.6592 15.7327 13.6592C16.1327 13.6592 16.3927 13.3892 16.3927 12.9792C16.3927 12.8692 16.3827 12.7292 16.3527 12.5992C16.0127 11.1592 14.8027 10.2692 13.2527 10.2692C11.2127 10.2692 10.0927 11.6692 10.0927 13.3292C10.0927 14.9792 11.0727 15.8892 12.6227 16.4492L13.4127 16.7292C14.4127 17.0792 15.1027 17.6092 15.1027 18.6692C15.1027 19.6192 14.4827 20.3892 13.3327 20.3892C12.2927 20.3892 11.6327 19.8292 11.3927 18.7992C11.2927 18.4192 11.0427 18.2392 10.6827 18.2392C10.2627 18.2392 9.9927 18.5592 9.9927 18.9792C9.9927 19.1392 10.0227 19.3492 10.0627 19.4992C10.5127 20.9192 11.6727 21.7192 13.2927 21.7192ZM17.6927 24.2892C18.1127 24.2892 18.3227 24.0492 18.4027 23.5992L20.5127 11.3692C20.5227 11.2792 20.5527 11.1192 20.5527 10.9392C20.5527 10.5592 20.2927 10.2892 19.8927 10.2892C19.4827 10.2892 19.2627 10.5192 19.1927 10.9692L17.0927 23.2092C17.0727 23.2892 17.0327 23.4492 17.0327 23.6292C17.0327 24.0092 17.2927 24.2892 17.6927 24.2892ZM22.3527 21.5892C22.9127 21.5892 23.3427 21.1792 23.3427 20.6392C23.3427 20.0992 22.9127 19.6792 22.3527 19.6792C21.8227 19.6792 21.4127 20.0992 21.4127 20.6392C21.4127 21.1792 21.8227 21.5892 22.3527 21.5892Z" /></svg>