<svg viewBox="0 0 27.890625 27.890625" xmlns="http://www.w3.org/2000/svg"><path d="M13.9427 27.8864C21.6427 27.8864 27.8927 21.6464 27.8927 13.9464C27.8927 6.2464 21.6427 -0.0036 13.9427 -0.0036C6.2527 -0.0036 0.0027 6.2464 0.0027 13.9464C0.0027 21.6464 6.2527 27.8864 13.9427 27.8864ZM13.9427 25.5664C7.5227 25.5664 2.3227 20.3664 2.3227 13.9464C2.3227 7.5164 7.5227 2.3264 13.9427 2.3264C20.3727 2.3264 25.5627 7.5164 25.5627 13.9464C25.5627 20.3664 20.3727 25.5664 13.9427 25.5664ZM10.7727 19.0764C13.0527 19.0764 14.1227 17.6664 14.1227 15.8864C14.1227 14.0164 13.0027 13.3164 11.5427 12.7564L10.7627 12.4564C9.7727 12.0864 9.1027 11.6464 9.1027 10.5964C9.1027 9.6664 9.6627 8.9564 10.7027 8.9564C11.6227 8.9564 12.2527 9.4864 12.4927 10.4864C12.5927 10.8664 12.8527 11.0364 13.2227 11.0364C13.6127 11.0364 13.8727 10.7464 13.8727 10.3464C13.8727 10.2364 13.8627 10.0864 13.8227 9.9664C13.4827 8.5264 12.2927 7.6464 10.7327 7.6464C8.6827 7.6464 7.5727 9.0264 7.5727 10.6864C7.5727 12.3464 8.5427 13.2464 10.1027 13.8064L10.8827 14.0964C11.8827 14.4464 12.5927 14.9664 12.5927 16.0364C12.5927 16.9964 11.9627 17.7564 10.8027 17.7564C9.7727 17.7564 9.1027 17.1964 8.8727 16.1764C8.7627 15.7864 8.5327 15.6164 8.1527 15.6164C7.7527 15.6164 7.4627 15.9164 7.4627 16.3364C7.4627 16.5164 7.5027 16.7164 7.5427 16.8564C8.0027 18.2964 9.1627 19.0764 10.7727 19.0764ZM15.1727 21.6564C15.5827 21.6564 15.8027 21.4264 15.8727 20.9764L17.9827 8.7364C18.0027 8.6364 18.0327 8.4864 18.0327 8.2964C18.0327 7.9164 17.7727 7.6464 17.3727 7.6464C16.9527 7.6464 16.7527 7.8864 16.6627 8.3364L14.5627 20.5664C14.5427 20.6564 14.5227 20.8064 14.5227 20.9964C14.5227 21.3864 14.7827 21.6564 15.1727 21.6564ZM19.8427 18.9464C20.4027 18.9464 20.8227 18.5364 20.8227 18.0064C20.8227 17.4764 20.4027 17.0464 19.8427 17.0464C19.3027 17.0464 18.8927 17.4764 18.8927 18.0064C18.8927 18.5364 19.3027 18.9464 19.8427 18.9464Z" /></svg>