
<svg
    viewBox="0 0 30.5703125 30.5703125"
    xmlns="http://www.w3.org/2000/svg"
>
    <path
        fill="inherit"
        d="M15.2827 30.5663C23.6827 30.5663 30.5727 23.6763 30.5727 15.2863C30.5727 6.8863 23.6827 -0.0038 15.2827 -0.0038C6.8927 -0.0038 0.0027 6.8863 0.0027 15.2863C0.0027 23.6763 6.8927 30.5663 15.2827 30.5663ZM15.2827 25.4862C9.6527 25.4862 5.0827 20.9162 5.0827 15.2863C5.0827 9.6363 9.6527 5.0863 15.2827 5.0863C20.9327 5.0863 25.4827 9.6363 25.4827 15.2863C25.4827 20.9162 20.9327 25.4862 15.2827 25.4862ZM12.1227 20.4162C14.4127 20.4162 15.4927 19.0063 15.4927 17.2263C15.4927 15.3563 14.3527 14.6563 12.8927 14.0963L12.1127 13.7963C11.1327 13.4263 10.4627 12.9863 10.4627 11.9363C10.4627 11.0063 11.0227 10.2963 12.0627 10.2963C12.9727 10.2963 13.6027 10.8263 13.8527 11.8263C13.9427 12.2063 14.2027 12.3763 14.5727 12.3763C14.9727 12.3763 15.2327 12.0863 15.2327 11.6863C15.2327 11.5763 15.2127 11.4263 15.1727 11.3063C14.8427 9.8663 13.6427 8.9862 12.0827 8.9862C10.0327 8.9862 8.9327 10.3663 8.9327 12.0262C8.9327 13.6863 9.9127 14.5863 11.4527 15.1463L12.2327 15.4363C13.2327 15.7863 13.9427 16.3063 13.9427 17.3763C13.9427 18.3363 13.3127 19.0963 12.1727 19.0963C11.1327 19.0963 10.4627 18.5363 10.2227 17.5163C10.1327 17.1263 9.8827 16.9563 9.5127 16.9563C9.1027 16.9563 8.8227 17.2563 8.8227 17.6763C8.8227 17.8563 8.8627 18.0563 8.9027 18.1963C9.3527 19.6363 10.5127 20.4162 12.1227 20.4162ZM16.5327 22.9963C16.9527 22.9963 17.1627 22.7663 17.2427 22.3163L19.3327 10.0763C19.3627 9.9763 19.3827 9.8263 19.3827 9.6363C19.3827 9.2563 19.1227 8.9862 18.7327 8.9862C18.3227 8.9862 18.1027 9.2263 18.0327 9.6763L15.9327 21.9063C15.9027 21.9963 15.8727 22.1463 15.8727 22.3363C15.8727 22.7263 16.1327 22.9963 16.5327 22.9963ZM21.1927 20.2863C21.7527 20.2863 22.1727 19.8763 22.1727 19.3463C22.1727 18.8163 21.7527 18.3863 21.1927 18.3863C20.6627 18.3863 20.2527 18.8163 20.2527 19.3463C20.2527 19.8763 20.6627 20.2863 21.1927 20.2863Z"
        fillRule="evenodd"
        clipRule="evenodd"
    />
</svg>
        