
<svg
    viewBox="0 0 27.890625 27.890625"
    xmlns="http://www.w3.org/2000/svg"
>
    <path
        fill="inherit"
        d="M13.9427 27.8864C21.6427 27.8864 27.8927 21.6264 27.8927 13.9464C27.8927 6.2464 21.6427 -0.0036 13.9427 -0.0036C6.2627 -0.0036 0.0027 6.2464 0.0027 13.9464C0.0027 21.6264 6.2627 27.8864 13.9427 27.8864ZM10.6627 19.2064C8.9927 19.2064 7.8027 18.4064 7.3427 16.9264C7.3027 16.7864 7.2427 16.5664 7.2427 16.3964C7.2427 15.9564 7.5427 15.6364 7.9727 15.6364C8.3527 15.6364 8.6027 15.8164 8.7127 16.2164C8.9527 17.2764 9.6427 17.8564 10.6927 17.8564C11.8927 17.8564 12.5327 17.0664 12.5327 16.0764C12.5327 14.9864 11.8027 14.4464 10.7727 14.0864L9.9627 13.7764C8.3627 13.2064 7.3727 12.2764 7.3727 10.5664C7.3727 8.8464 8.5027 7.4264 10.6227 7.4264C12.2327 7.4264 13.4627 8.3364 13.8127 9.8164C13.8527 9.9564 13.8627 10.1064 13.8627 10.2164C13.8627 10.6264 13.6027 10.9264 13.1927 10.9264C12.8127 10.9264 12.5327 10.7564 12.4427 10.3664C12.1827 9.3364 11.5427 8.7864 10.5927 8.7864C9.5327 8.7864 8.9527 9.5164 8.9527 10.4764C8.9527 11.5564 9.6427 12.0064 10.6527 12.3864L11.4527 12.6964C12.9627 13.2764 14.1227 13.9864 14.1227 15.9264C14.1227 17.7564 13.0327 19.2064 10.6627 19.2064ZM15.2027 21.8764C14.7927 21.8764 14.5327 21.5864 14.5327 21.1864C14.5327 20.9964 14.5627 20.8364 14.5727 20.7364L16.7327 8.1464C16.8327 7.6864 17.0327 7.4264 17.4727 7.4264C17.8827 7.4264 18.1527 7.7064 18.1527 8.1064C18.1527 8.2964 18.1327 8.4664 18.1027 8.5564L15.9327 21.1464C15.8627 21.6264 15.6227 21.8764 15.2027 21.8764ZM20.0127 19.0864C19.4727 19.0864 19.0427 18.6664 19.0427 18.1064C19.0427 17.5564 19.4727 17.1164 20.0127 17.1164C20.6027 17.1164 21.0427 17.5564 21.0427 18.1064C21.0427 18.6664 20.6027 19.0864 20.0127 19.0864Z"
        fillRule="evenodd"
        clipRule="evenodd"
    />
</svg>
        