
<svg
    viewBox="0 0 27.890625 27.890625"
    xmlns="http://www.w3.org/2000/svg"
>
    <path
        fill="inherit"
        d="M13.9427 27.8864C21.6427 27.8864 27.8927 21.6464 27.8927 13.9464C27.8927 6.2464 21.6427 -0.0036 13.9427 -0.0036C6.2527 -0.0036 0.0027 6.2464 0.0027 13.9464C0.0027 21.6464 6.2527 27.8864 13.9427 27.8864ZM13.9427 25.5664C7.5227 25.5664 2.3227 20.3664 2.3227 13.9464C2.3227 7.5164 7.5227 2.3264 13.9427 2.3264C20.3727 2.3264 25.5627 7.5164 25.5627 13.9464C25.5627 20.3664 20.3727 25.5664 13.9427 25.5664ZM11.1927 20.2164C11.6927 20.2164 12.0027 19.9164 12.0027 19.4164V15.7364H14.5027C16.7627 15.7364 18.3627 14.2964 18.5227 12.1264H19.1827C19.4527 12.1264 19.6627 11.9264 19.6627 11.6664C19.6627 11.4164 19.4527 11.2064 19.1827 11.2064H18.5127C18.2927 9.0964 16.6827 7.7764 14.5327 7.7764H11.2127C10.7027 7.7764 10.3927 8.0964 10.3927 8.5964V11.2064H9.5127C9.2527 11.2064 9.0527 11.4164 9.0527 11.6664C9.0527 11.9364 9.2527 12.1264 9.5127 12.1264H10.3927V19.4164C10.3927 19.9164 10.7027 20.2164 11.1927 20.2164ZM12.0027 9.1064H14.1227C15.6027 9.1064 16.6627 9.7864 16.8727 11.2064H12.0027ZM12.0027 14.4064V12.1264H16.8827C16.7527 13.6264 15.7227 14.4064 14.1127 14.4064Z"
        fillRule="evenodd"
        clipRule="evenodd"
    />
</svg>
        