
<svg
    viewBox="0 0 20.876953125 24.9375"
    xmlns="http://www.w3.org/2000/svg"
>
    <path
        fill="inherit"
        d="M4.1037 24.9335C4.8837 24.9335 5.4537 24.3535 5.4537 23.5535V15.6035H10.6337C15.1737 15.6035 18.3037 12.6835 18.6337 8.5135H19.9637C20.4837 8.5135 20.8737 8.1335 20.8737 7.6335C20.8737 7.1235 20.4837 6.7235 19.9637 6.7235H18.6037C18.1437 2.6435 14.9437 0.0035 10.6637 0.0035H4.1037C3.2937 0.0035 2.7337 0.5835 2.7337 1.4035V6.7235H0.9137C0.3837 6.7235 0.0037 7.1235 0.0037 7.6335C0.0037 8.1435 0.3837 8.5135 0.9137 8.5135H2.7337V23.5535C2.7337 24.3535 3.3037 24.9335 4.1037 24.9335ZM5.4537 2.3635H10.0037C13.2337 2.3635 15.3637 3.9135 15.7937 6.7235H5.4537ZM5.4537 13.2435V8.5135H15.8337C15.5337 11.6235 13.3337 13.2435 10.0037 13.2435Z"
        fillRule="evenodd"
        clipRule="evenodd"
    />
</svg>
        