<svg viewBox="0 0 30.529296875 29.17578125" xmlns="http://www.w3.org/2000/svg"><path d="M1.8137 25.919H28.7137V25.009C28.7137 24.459 28.3937 24.129 27.8337 24.129H26.9637V9.379H28.1637C28.9137 9.379 29.3537 8.829 29.3537 8.269C29.3537 7.859 29.1237 7.509 28.6137 7.219L16.9437 0.479C16.3937 0.169 15.8137 -0.001 15.2537 -0.001C14.6937 -0.001 14.1137 0.169 13.5937 0.479L1.9137 7.219C1.3937 7.509 1.1737 7.859 1.1737 8.269C1.1737 8.829 1.6137 9.379 2.3637 9.379H3.5637V24.129H2.7037C2.1437 24.129 1.8137 24.459 1.8137 25.009ZM5.6337 24.129V7.629L14.7237 2.529C14.8937 2.429 15.0837 2.379 15.2537 2.379C15.4337 2.379 15.6237 2.429 15.8037 2.529L24.8937 7.629V24.129ZM12.5337 20.659C13.0337 20.659 13.3437 20.359 13.3437 19.869V16.189H15.8437C18.1037 16.189 19.7037 14.739 19.8637 12.569H20.5237C20.7937 12.569 21.0037 12.359 21.0037 12.109C21.0037 11.849 20.7937 11.649 20.5237 11.649H19.8537C19.6337 9.529 18.0237 8.219 15.8737 8.219H12.5537C12.0437 8.219 11.7337 8.549 11.7337 9.039V11.649H10.8537C10.5937 11.649 10.3937 11.849 10.3937 12.109C10.3937 12.369 10.5937 12.569 10.8537 12.569H11.7337V19.869C11.7337 20.359 12.0437 20.659 12.5337 20.659ZM13.3437 9.559H15.4637C16.9437 9.559 18.0037 10.239 18.2137 11.649H13.3437ZM13.3437 14.849V12.569H18.2237C18.0737 14.069 17.0537 14.849 15.4537 14.849ZM1.0937 29.179H29.4237C30.0237 29.179 30.5337 28.669 30.5337 28.069C30.5337 27.469 30.0237 26.979 29.4237 26.979H1.0937C0.4937 26.979 0.0037 27.469 0.0037 28.069C0.0037 28.669 0.4937 29.179 1.0937 29.179Z" /></svg>