
<svg
    viewBox={0 0 27.890625 27.890625}
    xmlns="http://www.w3.org/2000/svg"
>
    <path
        fill="inherit"
        d="M13.9427 27.8864C21.6427 27.8864 27.8927 21.6264 27.8927 13.9464C27.8927 6.2464 21.6427 -0.0036 13.9427 -0.0036C6.2627 -0.0036 0.0027 6.2464 0.0027 13.9464C0.0027 21.6264 6.2627 27.8864 13.9427 27.8864ZM11.1127 20.4264C10.5927 20.4264 10.2827 20.1064 10.2827 19.5764V12.0764H9.3827C9.1027 12.0764 8.8827 11.8664 8.8827 11.5964C8.8827 11.3364 9.1027 11.1164 9.3827 11.1164H10.2827V8.4364C10.2827 7.9064 10.5927 7.5764 11.1327 7.5764H14.5627C16.7927 7.5764 18.4327 8.9264 18.6627 11.1164H19.3427C19.6327 11.1164 19.8527 11.3364 19.8527 11.5964C19.8527 11.8564 19.6327 12.0764 19.3427 12.0764H18.6927C18.5127 14.3164 16.8527 15.7864 14.5327 15.7864H11.9527V19.5764C11.9527 20.1064 11.6227 20.4264 11.1127 20.4264ZM11.9527 11.1164H16.9527C16.7527 9.6664 15.6727 8.9564 14.1327 8.9564H11.9527ZM11.9527 14.4264H14.1127C15.7727 14.4264 16.8327 13.6064 16.9627 12.0764H11.9527Z"
        fillRule="evenodd"
        clipRule="evenodd"
    />
</svg>
        