
<svg
    viewBox={0 0 25.169921875 25.169921875}
    xmlns="http://www.w3.org/2000/svg"
>
    <path
        fill="inherit"
        d="M4.2937 25.1692H20.8737C23.7437 25.1692 25.1737 23.7592 25.1737 20.9492V4.2392C25.1737 1.4192 23.7437 -0.0008 20.8737 -0.0008H4.2937C1.4337 -0.0008 0.0037 1.4192 0.0037 4.2392V20.9492C0.0037 23.7592 1.4337 25.1692 4.2937 25.1692ZM4.3237 22.9692C2.9537 22.9692 2.2037 22.2392 2.2037 20.8192V4.3592C2.2037 2.9392 2.9537 2.1992 4.3237 2.1992H20.8537C22.2037 2.1992 22.9737 2.9392 22.9737 4.3592V20.8192C22.9737 22.2392 22.2037 22.9692 20.8537 22.9692ZM9.8537 18.8492C10.3537 18.8492 10.6637 18.5492 10.6637 18.0492V14.3692H13.1637C15.4237 14.3692 17.0237 12.9292 17.2037 10.7592H17.8437C18.1137 10.7592 18.3237 10.5592 18.3237 10.2992C18.3237 10.0492 18.1137 9.8392 17.8437 9.8392H17.1837C16.9537 7.7292 15.3437 6.4092 13.1937 6.4092H9.8737C9.3637 6.4092 9.0537 6.7292 9.0537 7.2292V9.8392H8.1737C7.9137 9.8392 7.7137 10.0492 7.7137 10.2992C7.7137 10.5692 7.9137 10.7592 8.1737 10.7592H9.0537V18.0492C9.0537 18.5492 9.3637 18.8492 9.8537 18.8492ZM10.6637 7.7392H12.7837C14.2737 7.7392 15.3237 8.4192 15.5337 9.8392H10.6637ZM10.6637 13.0392V10.7592H15.5437C15.4037 12.2592 14.3837 13.0392 12.7737 13.0392Z"
        fillRule="evenodd"
        clipRule="evenodd"
    />
</svg>
        