
<svg
    viewBox={0 0 25.169921875 25.169921875}
    xmlns="http://www.w3.org/2000/svg"
>
    <path
        fill="inherit"
        d="M4.2937 25.1692H20.8737C23.7437 25.1692 25.1737 23.7592 25.1737 20.9492V4.2392C25.1737 1.4192 23.7437 -0.0008 20.8737 -0.0008H4.2937C1.4337 -0.0008 0.0037 1.4192 0.0037 4.2392V20.9492C0.0037 23.7592 1.4337 25.1692 4.2937 25.1692ZM9.7637 19.0592C9.2437 19.0592 8.9237 18.7392 8.9237 18.2092V10.7092H8.0237C7.7537 10.7092 7.5337 10.4992 7.5337 10.2292C7.5337 9.9692 7.7537 9.7492 8.0237 9.7492H8.9237V7.0692C8.9237 6.5392 9.2437 6.2092 9.7737 6.2092H13.2037C15.4337 6.2092 17.0737 7.5592 17.3037 9.7492H17.9937C18.2837 9.7492 18.4937 9.9692 18.4937 10.2292C18.4937 10.4892 18.2837 10.7092 17.9937 10.7092H17.3337C17.1537 12.9492 15.5037 14.4192 13.1837 14.4192H10.5937V18.2092C10.5937 18.7392 10.2637 19.0592 9.7637 19.0592ZM10.5937 9.7492H15.6037C15.3937 8.2992 14.3137 7.5892 12.7837 7.5892H10.5937ZM10.5937 13.0592H12.7537C14.4237 13.0592 15.4737 12.2392 15.6237 10.7092H10.5937Z"
        fillRule="evenodd"
        clipRule="evenodd"
    />
</svg>
        