
<svg
    viewBox={0 0 32.935546875 27.26189615322232}
    xmlns="http://www.w3.org/2000/svg"
>
    <path
        fill="inherit"
        d="M32.9327 16.3992C32.9327 7.7792 26.3227 0.7192 17.8927 -0.0008C17.4627 -0.0408 17.1327 0.2792 17.1327 0.7192V5.1892C17.1327 5.5592 17.3927 5.8392 17.7627 5.8692C22.9927 6.5092 27.0727 10.9792 27.0727 16.3992C27.0727 18.8592 26.2227 21.1292 24.7327 23.0292C24.5427 23.2592 24.5527 23.5592 24.7627 23.7792L28.0227 27.0292C28.3327 27.3292 28.7927 27.3292 29.0627 27.0092C31.4827 24.1392 32.9327 20.4292 32.9327 16.3992ZM0.0027 16.3992C0.0027 20.4392 1.4527 24.1492 3.8727 27.0192C4.1427 27.3492 4.5927 27.3292 4.9127 27.0292L8.1727 23.7792C8.3827 23.5592 8.3927 23.2592 8.2027 23.0292C6.7027 21.1292 5.8627 18.8592 5.8627 16.3992C5.8627 10.9792 9.9427 6.5092 15.1727 5.8692C15.5427 5.8392 15.8027 5.5592 15.8027 5.1892V0.7192C15.8027 0.2792 15.4727 -0.0408 15.0427 -0.0008C6.6127 0.7192 0.0027 7.7792 0.0027 16.3992ZM13.7127 22.8492C14.2027 22.8492 14.5227 22.5492 14.5227 22.0592V18.3792H17.0227C19.2727 18.3792 20.8927 16.9292 21.0527 14.7592H21.7127C21.9727 14.7592 22.1727 14.5492 22.1727 14.3092C22.1727 14.0492 21.9727 13.8392 21.7127 13.8392H21.0427C20.8127 11.7192 19.2127 10.4092 17.0527 10.4092H13.7227C13.2327 10.4092 12.9027 10.7392 12.9027 11.2392V13.8392H12.0327C11.7727 13.8392 11.5627 14.0492 11.5627 14.3092C11.5627 14.5592 11.7727 14.7592 12.0327 14.7592H12.9027V22.0592C12.9027 22.5492 13.2227 22.8492 13.7127 22.8492ZM14.5227 11.7492H16.6427C18.1327 11.7492 19.1827 12.4292 19.3827 13.8392H14.5227ZM14.5227 17.0392V14.7592H19.4027C19.2627 16.2592 18.2427 17.0392 16.6227 17.0392Z"
        fillRule="evenodd"
        clipRule="evenodd"
    />
</svg>
        