
<svg
    viewBox={0 0 30.5703125 30.5703125}
    xmlns="http://www.w3.org/2000/svg"
>
    <path
        fill="inherit"
        d="M15.2827 30.5663C23.6827 30.5663 30.5727 23.6763 30.5727 15.2863C30.5727 6.8863 23.6827 -0.0038 15.2827 -0.0038C6.8927 -0.0038 0.0027 6.8863 0.0027 15.2863C0.0027 23.6763 6.8927 30.5663 15.2827 30.5663ZM15.2827 25.4862C9.6527 25.4862 5.0827 20.9162 5.0827 15.2863C5.0827 9.6363 9.6527 5.0863 15.2827 5.0863C20.9327 5.0863 25.4827 9.6363 25.4827 15.2863C25.4827 20.9162 20.9327 25.4862 15.2827 25.4862ZM12.5527 21.5563C13.0427 21.5563 13.3527 21.2563 13.3527 20.7563V17.0763H15.8627C18.1127 17.0763 19.7127 15.6363 19.8927 13.4663H20.5327C20.8127 13.4663 21.0127 13.2663 21.0127 13.0063C21.0127 12.7563 20.8127 12.5463 20.5327 12.5463H19.8827C19.6427 10.4363 18.0327 9.1163 15.8827 9.1163H12.5627C12.0627 9.1163 11.7427 9.4363 11.7427 9.9363V12.5463H10.8727C10.6127 12.5463 10.4027 12.7563 10.4027 13.0063C10.4027 13.2763 10.6127 13.4663 10.8727 13.4663H11.7427V20.7563C11.7427 21.2563 12.0627 21.5563 12.5527 21.5563ZM13.3527 10.4462H15.4727C16.9627 10.4462 18.0227 11.1263 18.2227 12.5463H13.3527ZM13.3527 15.7463V13.4663H18.2427C18.1027 14.9663 17.0727 15.7463 15.4627 15.7463Z"
        fillRule="evenodd"
        clipRule="evenodd"
    />
</svg>
        