
<svg
    viewBox="0 0 32.935546875 27.33018496744969"
    xmlns="http://www.w3.org/2000/svg"
>
    <path
        fill="inherit"
        d="M16.4627 5.864C18.9327 5.864 21.2027 6.724 23.0227 8.134C23.2927 8.354 23.6527 8.324 23.9127 8.064L27.0827 4.894C27.4027 4.584 27.3827 4.124 27.0527 3.854C24.2027 1.454 20.4927 0.004 16.4627 0.004C12.4427 0.004 8.7327 1.454 5.8827 3.854C5.5527 4.124 5.5327 4.584 5.8527 4.894L9.0227 8.064C9.2827 8.324 9.6527 8.354 9.9527 8.124C11.7627 6.724 14.0127 5.864 16.4627 5.864ZM0.0027 16.464C0.0027 20.494 1.4527 24.204 3.8727 27.074C4.1427 27.414 4.6027 27.414 4.9127 27.094L8.1627 23.844C8.3627 23.624 8.3927 23.324 8.2027 23.094C6.7127 21.194 5.8627 18.924 5.8627 16.464C5.8627 14.014 6.7027 11.744 8.1227 9.944C8.3427 9.654 8.3427 9.284 8.0827 9.024L4.9127 5.854C4.5927 5.534 4.1427 5.534 3.8727 5.864C1.4527 8.734 0.0027 12.444 0.0027 16.464ZM32.9327 16.464C32.9327 12.444 31.4827 8.734 29.0627 5.864C28.7927 5.534 28.3327 5.534 28.0227 5.854L24.8527 9.024C24.5927 9.284 24.5827 9.654 24.8127 9.944C26.2227 11.744 27.0727 14.014 27.0727 16.464C27.0727 18.924 26.2227 21.194 24.7327 23.094C24.5427 23.324 24.5527 23.624 24.7627 23.844L28.0127 27.094C28.3327 27.414 28.7827 27.414 29.0627 27.074C31.4827 24.204 32.9327 20.494 32.9327 16.464ZM13.7127 22.914C14.2027 22.914 14.5227 22.614 14.5227 22.124V18.444H17.0227C19.2727 18.444 20.8927 16.994 21.0527 14.824H21.7127C21.9727 14.824 22.1727 14.614 22.1727 14.374C22.1727 14.114 21.9727 13.904 21.7127 13.904H21.0427C20.8127 11.784 19.2127 10.474 17.0527 10.474H13.7227C13.2327 10.474 12.9027 10.804 12.9027 11.304V13.904H12.0327C11.7727 13.904 11.5627 14.114 11.5627 14.374C11.5627 14.624 11.7727 14.824 12.0327 14.824H12.9027V22.124C12.9027 22.614 13.2227 22.914 13.7127 22.914ZM14.5227 11.814H16.6427C18.1327 11.814 19.1827 12.494 19.3827 13.904H14.5227ZM14.5227 17.104V14.824H19.4027C19.2627 16.324 18.2427 17.104 16.6227 17.104Z"
        fillRule="evenodd"
        clipRule="evenodd"
    />
</svg>
        