
<svg
    viewBox="0 0 30.544813437289534 27.890625"
    xmlns="http://www.w3.org/2000/svg"
>
    <path
        fill="inherit"
        d="M0.9769 11.3064C-0.0131 11.3064 -0.2531 11.9764 0.2769 12.7464L3.3369 17.0864C3.7869 17.7164 4.4469 17.7064 4.8869 17.0864L7.9269 12.7264C8.4669 11.9764 8.2069 11.3064 7.2469 11.3064H5.2769C6.4669 6.1564 11.0769 2.3264 16.5969 2.3264C23.0269 2.3264 28.2169 7.5164 28.2169 13.9464C28.2169 20.3664 23.0269 25.5664 16.5969 25.5664C12.7169 25.5664 9.2569 23.6564 7.1969 20.7564C6.7669 20.1964 6.1269 20.0164 5.5569 20.3564C5.0069 20.6964 4.8369 21.4664 5.3069 22.0664C7.8369 25.6064 11.9769 27.8864 16.5969 27.8864C24.2969 27.8864 30.5469 21.6464 30.5469 13.9464C30.5469 6.2464 24.2969 -0.0036 16.5969 -0.0036C9.8069 -0.0036 4.1269 4.8664 2.8969 11.3064ZM13.8669 20.2164C14.3569 20.2164 14.6669 19.9164 14.6669 19.4164V15.7364H17.1769C19.4269 15.7364 21.0269 14.2964 21.1969 12.1264H21.8469C22.1269 12.1264 22.3269 11.9264 22.3269 11.6664C22.3269 11.4164 22.1269 11.2064 21.8469 11.2064H21.1769C20.9569 9.0964 19.3469 7.7764 17.1969 7.7764H13.8769C13.3769 7.7764 13.0569 8.0964 13.0569 8.5964V11.2064H12.1869C11.9269 11.2064 11.7169 11.4164 11.7169 11.6664C11.7169 11.9364 11.9269 12.1264 12.1869 12.1264H13.0569V19.4164C13.0569 19.9164 13.3769 20.2164 13.8669 20.2164ZM14.6669 9.1064H16.7869C18.2669 9.1064 19.3369 9.7864 19.5369 11.2064H14.6669ZM14.6669 14.4064V12.1264H19.5569C19.4169 13.6264 18.3869 14.4064 16.7769 14.4064Z"
        fillRule="evenodd"
        clipRule="evenodd"
    />
</svg>
        