
<svg
    viewBox={0 0 30.529296875 29.17578125}
    xmlns="http://www.w3.org/2000/svg"
>
    <path
        fill="inherit"
        d="M1.0937 29.179H29.4237C30.0237 29.179 30.5337 28.669 30.5337 28.069C30.5337 27.469 30.0237 26.979 29.4237 26.979H28.7137V25.979C28.7137 25.429 28.3937 25.099 27.8337 25.099H26.9637V9.379H28.1637C28.9137 9.379 29.3537 8.829 29.3537 8.269C29.3537 7.859 29.1237 7.509 28.6137 7.219L16.9437 0.479C16.3937 0.169 15.8137 -0.001 15.2537 -0.001C14.6937 -0.001 14.1137 0.169 13.5937 0.479L1.9137 7.219C1.3937 7.509 1.1737 7.859 1.1737 8.269C1.1737 8.829 1.6137 9.379 2.3637 9.379H3.5637V25.099H2.7037C2.1437 25.099 1.8137 25.429 1.8137 25.979V26.979H1.0937C0.4937 26.979 0.0037 27.469 0.0037 28.069C0.0037 28.669 0.4937 29.179 1.0937 29.179ZM12.4437 22.089C11.9237 22.089 11.6037 21.769 11.6037 21.249V13.729H10.7037C10.4337 13.729 10.2137 13.519 10.2137 13.259C10.2137 12.989 10.4337 12.779 10.7037 12.779H11.6037V10.099C11.6037 9.569 11.9237 9.239 12.4537 9.239H15.8837C18.1137 9.239 19.7537 10.599 19.9837 12.779H20.6737C20.9637 12.779 21.1737 12.989 21.1737 13.259C21.1737 13.509 20.9637 13.729 20.6737 13.729H20.0037C19.8337 15.969 18.1837 17.459 15.8637 17.459H13.2737V21.249C13.2737 21.769 12.9437 22.089 12.4437 22.089ZM13.2737 12.779H18.2837C18.0737 11.329 16.9937 10.619 15.4637 10.619H13.2737ZM13.2737 16.089H15.4337C17.1037 16.089 18.1537 15.269 18.2937 13.729H13.2737Z"
        fillRule="evenodd"
        clipRule="evenodd"
    />
</svg>
        