
<svg
    viewBox="0 0 30.544813437289534 27.890625"
    xmlns="http://www.w3.org/2000/svg"
>
    <path
        fill="inherit"
        d="M0.9769 11.3064C-0.0131 11.3064 -0.2531 11.9764 0.2769 12.7464L3.3369 17.0864C3.7869 17.7164 4.4469 17.7064 4.8869 17.0864L7.9269 12.7264C8.4669 11.9764 8.2069 11.3064 7.2469 11.3064H5.2769C6.4669 6.1564 11.0769 2.3264 16.5969 2.3264C23.0269 2.3264 28.2169 7.5164 28.2169 13.9464C28.2169 20.3664 23.0269 25.5664 16.5969 25.5664C12.7169 25.5664 9.2569 23.6564 7.1969 20.7564C6.7669 20.1964 6.1269 20.0164 5.5569 20.3564C5.0069 20.6964 4.8369 21.4664 5.3069 22.0664C7.8369 25.6064 11.9769 27.8864 16.5969 27.8864C24.2969 27.8864 30.5469 21.6464 30.5469 13.9464C30.5469 6.2464 24.2969 -0.0036 16.5969 -0.0036C9.8069 -0.0036 4.1269 4.8664 2.8969 11.3064ZM13.8769 20.2064C14.3869 20.2064 14.6969 19.9064 14.6969 19.3964V16.0664H17.1869C19.0869 16.0664 20.4569 14.9964 20.9869 13.4564H21.8769C22.1369 13.4564 22.3369 13.2464 22.3369 13.0064C22.3369 12.7564 22.1369 12.5464 21.8769 12.5464H21.2069C21.2369 12.3364 21.2469 12.1264 21.2469 11.8964C21.2469 11.6864 21.2369 11.4864 21.2069 11.2964H21.8769C22.1369 11.2964 22.3369 11.0864 22.3369 10.8264C22.3369 10.5864 22.1369 10.3764 21.8769 10.3764H20.9969C20.4869 8.8564 19.1569 7.7664 17.2169 7.7664H13.8969C13.3969 7.7664 13.0869 8.0764 13.0869 8.5864V10.3764H12.1869C11.9269 10.3764 11.7169 10.5864 11.7169 10.8264C11.7169 11.1064 11.9269 11.2964 12.1869 11.2964H13.0869V12.5464H12.1869C11.9269 12.5464 11.7169 12.7564 11.7169 13.0064C11.7169 13.2664 11.9269 13.4564 12.1869 13.4564H13.0869V19.3964C13.0869 19.9064 13.3969 20.2064 13.8769 20.2064ZM14.6969 9.0964H16.8369C17.9769 9.0964 18.8369 9.5464 19.2769 10.3764H14.6969ZM19.6169 11.8964C19.6169 12.1264 19.6069 12.3464 19.5669 12.5464H14.6969V11.2964H19.5769C19.6069 11.4864 19.6169 11.6864 19.6169 11.8964ZM14.6969 14.7364V13.4564H19.2669C18.8169 14.2764 17.9769 14.7364 16.8369 14.7364Z"
        fillRule="evenodd"
        clipRule="evenodd"
    />
</svg>
        