
<svg
    viewBox={0 0 27.890625 27.890625}
    xmlns="http://www.w3.org/2000/svg"
>
    <path
        fill="inherit"
        d="M13.9427 27.8864C21.6427 27.8864 27.8927 21.6264 27.8927 13.9464C27.8927 6.2464 21.6427 -0.0036 13.9427 -0.0036C6.2627 -0.0036 0.0027 6.2464 0.0027 13.9464C0.0027 21.6264 6.2627 27.8864 13.9427 27.8864ZM11.1327 20.4164C10.6227 20.4164 10.3127 20.0964 10.3127 19.5664V13.4364H9.3827C9.1027 13.4364 8.8827 13.2464 8.8827 12.9764C8.8827 12.7164 9.1027 12.5064 9.3827 12.5064H10.3127V11.2064H9.3827C9.1027 11.2064 8.8827 11.0064 8.8827 10.7364C8.8827 10.4764 9.1027 10.2664 9.3827 10.2664H10.3127V8.4264C10.3127 7.8864 10.6227 7.5564 11.1427 7.5564H14.5727C16.5727 7.5564 17.9327 8.6964 18.4827 10.2664H19.3727C19.6427 10.2664 19.8627 10.4764 19.8627 10.7364C19.8627 10.9964 19.6427 11.2064 19.3727 11.2064H18.6927C18.7127 11.4064 18.7327 11.6164 18.7327 11.8264C18.7327 12.0764 18.7127 12.2864 18.6927 12.5064H19.3727C19.6427 12.5064 19.8627 12.7164 19.8627 12.9764C19.8627 13.2164 19.6427 13.4364 19.3727 13.4364H18.4727C17.9127 15.0364 16.5027 16.1364 14.5427 16.1364H11.9727V19.5664C11.9727 20.0964 11.6527 20.4164 11.1327 20.4164ZM11.9727 10.2664H16.6927C16.2427 9.4064 15.3527 8.9364 14.1827 8.9364H11.9727ZM11.9727 12.5064H16.9927C17.0227 12.2864 17.0527 12.0764 17.0527 11.8264C17.0527 11.6064 17.0327 11.4064 16.9927 11.2064H11.9727ZM11.9727 14.7664H14.1827C15.3527 14.7664 16.2327 14.2864 16.6827 13.4364H11.9727Z"
        fillRule="evenodd"
        clipRule="evenodd"
    />
</svg>
        