
<svg
    viewBox={0 0 27.890625 27.890625}
    xmlns="http://www.w3.org/2000/svg"
>
    <path
        fill="inherit"
        d="M13.9427 27.8864C21.6427 27.8864 27.8927 21.6464 27.8927 13.9464C27.8927 6.2464 21.6427 -0.0036 13.9427 -0.0036C6.2527 -0.0036 0.0027 6.2464 0.0027 13.9464C0.0027 21.6464 6.2527 27.8864 13.9427 27.8864ZM13.9427 25.5664C7.5227 25.5664 2.3227 20.3664 2.3227 13.9464C2.3227 7.5164 7.5227 2.3264 13.9427 2.3264C20.3727 2.3264 25.5627 7.5164 25.5627 13.9464C25.5627 20.3664 20.3727 25.5664 13.9427 25.5664ZM11.2127 20.2064C11.7127 20.2064 12.0327 19.9064 12.0327 19.3964V16.0664H14.5227C16.4227 16.0664 17.7827 14.9964 18.3227 13.4564H19.2127C19.4727 13.4564 19.6727 13.2464 19.6727 13.0064C19.6727 12.7564 19.4727 12.5464 19.2127 12.5464H18.5427C18.5627 12.3364 18.5827 12.1264 18.5827 11.8964C18.5827 11.6864 18.5627 11.4864 18.5427 11.2964H19.2127C19.4727 11.2964 19.6727 11.0864 19.6727 10.8264C19.6727 10.5864 19.4727 10.3764 19.2127 10.3764H18.3327C17.8127 8.8564 16.4927 7.7664 14.5427 7.7664H11.2227C10.7327 7.7664 10.4227 8.0764 10.4227 8.5864V10.3764H9.5127C9.2527 10.3764 9.0527 10.5864 9.0527 10.8264C9.0527 11.1064 9.2527 11.2964 9.5127 11.2964H10.4227V12.5464H9.5127C9.2527 12.5464 9.0527 12.7564 9.0527 13.0064C9.0527 13.2664 9.2527 13.4564 9.5127 13.4564H10.4227V19.3964C10.4227 19.9064 10.7327 20.2064 11.2127 20.2064ZM12.0327 9.0964H14.1627C15.3127 9.0964 16.1727 9.5464 16.6127 10.3764H12.0327ZM16.9527 11.8964C16.9527 12.1264 16.9427 12.3464 16.9027 12.5464H12.0327V11.2964H16.9127C16.9427 11.4864 16.9527 11.6864 16.9527 11.8964ZM12.0327 14.7364V13.4564H16.5927C16.1427 14.2764 15.3127 14.7364 14.1627 14.7364Z"
        fillRule="evenodd"
        clipRule="evenodd"
    />
</svg>
        