
<svg
    viewBox="0 0 30.529296875 29.17578125"
    xmlns="http://www.w3.org/2000/svg"
>
    <path
        fill="inherit"
        d="M1.8137 25.919H28.7137V25.009C28.7137 24.459 28.3937 24.129 27.8337 24.129H26.9637V9.379H28.1637C28.9137 9.379 29.3537 8.829 29.3537 8.269C29.3537 7.859 29.1237 7.509 28.6137 7.219L16.9437 0.479C16.3937 0.169 15.8137 -0.001 15.2537 -0.001C14.6937 -0.001 14.1137 0.169 13.5937 0.479L1.9137 7.219C1.3937 7.509 1.1737 7.859 1.1737 8.269C1.1737 8.829 1.6137 9.379 2.3637 9.379H3.5637V24.129H2.7037C2.1437 24.129 1.8137 24.459 1.8137 25.009ZM5.6337 24.129V7.629L14.7237 2.529C14.8937 2.429 15.0837 2.379 15.2537 2.379C15.4337 2.379 15.6237 2.429 15.8037 2.529L24.8937 7.629V24.129ZM12.5537 20.659C13.0537 20.659 13.3737 20.339 13.3737 19.849V16.499H15.8637C17.7637 16.499 19.1237 15.449 19.6637 13.909H20.5537C20.8037 13.909 21.0137 13.699 21.0137 13.439C21.0137 13.189 20.8037 12.989 20.5537 12.989H19.8837C19.9037 12.779 19.9237 12.569 19.9237 12.349C19.9237 12.139 19.9037 11.939 19.8837 11.729H20.5537C20.8037 11.729 21.0137 11.529 21.0137 11.279C21.0137 11.029 20.8037 10.829 20.5537 10.829H19.6737C19.1537 9.299 17.8237 8.199 15.8837 8.199H12.5637C12.0737 8.199 11.7537 8.529 11.7537 9.019V10.829H10.8537C10.5937 10.829 10.3937 11.029 10.3937 11.279C10.3937 11.539 10.5937 11.729 10.8537 11.729H11.7537V12.989H10.8537C10.5937 12.989 10.3937 13.189 10.3937 13.439C10.3937 13.709 10.5937 13.909 10.8537 13.909H11.7537V19.849C11.7537 20.339 12.0737 20.659 12.5537 20.659ZM13.3737 9.539H15.5037C16.6537 9.539 17.5137 9.999 17.9537 10.829H13.3737ZM18.2937 12.349C18.2937 12.569 18.2837 12.779 18.2337 12.989H13.3737V11.729H18.2537C18.2837 11.919 18.2937 12.129 18.2937 12.349ZM13.3737 15.179V13.909H17.9337C17.4837 14.709 16.6537 15.179 15.5037 15.179ZM1.0937 29.179H29.4237C30.0237 29.179 30.5337 28.669 30.5337 28.069C30.5337 27.469 30.0237 26.979 29.4237 26.979H1.0937C0.4937 26.979 0.0037 27.469 0.0037 28.069C0.0037 28.669 0.4937 29.179 1.0937 29.179Z"
        fillRule="evenodd"
        clipRule="evenodd"
    />
</svg>
        