
<svg
    viewBox="0 0 32.935546875 27.33018496744969"
    xmlns="http://www.w3.org/2000/svg"
>
    <path
        fill="inherit"
        d="M16.4627 5.864C18.9327 5.864 21.2027 6.724 23.0227 8.134C23.2927 8.354 23.6527 8.324 23.9127 8.064L27.0827 4.894C27.4027 4.584 27.3827 4.124 27.0527 3.854C24.2027 1.454 20.4927 0.004 16.4627 0.004C12.4427 0.004 8.7327 1.454 5.8827 3.854C5.5527 4.124 5.5327 4.584 5.8527 4.894L9.0227 8.064C9.2827 8.324 9.6527 8.354 9.9527 8.124C11.7627 6.724 14.0127 5.864 16.4627 5.864ZM0.0027 16.464C0.0027 20.494 1.4527 24.204 3.8727 27.074C4.1427 27.414 4.6027 27.414 4.9127 27.094L8.1627 23.844C8.3627 23.624 8.3927 23.324 8.2027 23.094C6.7127 21.194 5.8627 18.924 5.8627 16.464C5.8627 14.014 6.7027 11.744 8.1227 9.944C8.3427 9.654 8.3427 9.284 8.0827 9.024L4.9127 5.854C4.5927 5.534 4.1427 5.534 3.8727 5.864C1.4527 8.734 0.0027 12.444 0.0027 16.464ZM32.9327 16.464C32.9327 12.444 31.4827 8.734 29.0627 5.864C28.7927 5.534 28.3327 5.534 28.0227 5.854L24.8527 9.024C24.5927 9.284 24.5827 9.654 24.8127 9.944C26.2227 11.744 27.0727 14.014 27.0727 16.464C27.0727 18.924 26.2227 21.194 24.7327 23.094C24.5427 23.324 24.5527 23.624 24.7627 23.844L28.0127 27.094C28.3327 27.414 28.7827 27.414 29.0627 27.074C31.4827 24.204 32.9327 20.494 32.9327 16.464ZM11.5627 15.694C11.5627 15.964 11.7727 16.164 12.0427 16.164H12.9427V22.104C12.9427 22.604 13.2527 22.914 13.7427 22.914C14.2327 22.914 14.5627 22.604 14.5627 22.104V18.754H17.0327C18.9327 18.754 20.3027 17.704 20.8527 16.164H21.7227C22.0027 16.164 22.2027 15.954 22.2027 15.694C22.2027 15.454 22.0027 15.244 21.7227 15.244H21.0527C21.0827 15.044 21.0927 14.824 21.0927 14.604C21.0927 14.394 21.0827 14.194 21.0527 13.984H21.7227C22.0027 13.984 22.2027 13.784 22.2027 13.534C22.2027 13.294 22.0027 13.084 21.7227 13.084H20.8527C20.3327 11.554 19.0027 10.454 17.0727 10.454H13.7427C13.2527 10.454 12.9427 10.784 12.9427 11.294V13.084H12.0427C11.7727 13.084 11.5627 13.294 11.5627 13.534C11.5627 13.794 11.7727 13.984 12.0427 13.984H12.9427V15.244H12.0427C11.7727 15.244 11.5627 15.454 11.5627 15.694ZM14.5627 11.794H16.6827C17.8327 11.794 18.6927 12.254 19.1427 13.084H14.5627ZM19.4727 14.604C19.4727 14.824 19.4527 15.044 19.4327 15.244H14.5627V13.984H19.4327C19.4527 14.174 19.4727 14.384 19.4727 14.604ZM14.5627 17.434V16.164H19.1127C18.6727 16.964 17.8327 17.434 16.6827 17.434Z"
        fillRule="evenodd"
        clipRule="evenodd"
    />
</svg>
        