
<svg
    viewBox="0 0 25.169921875 25.169921875"
    xmlns="http://www.w3.org/2000/svg"
>
    <path
        fill="inherit"
        d="M4.2937 25.1692H20.8737C23.7437 25.1692 25.1737 23.7592 25.1737 20.9492V4.2392C25.1737 1.4192 23.7437 -0.0008 20.8737 -0.0008H4.2937C1.4337 -0.0008 0.0037 1.4192 0.0037 4.2392V20.9492C0.0037 23.7592 1.4337 25.1692 4.2937 25.1692ZM4.3237 22.9692C2.9537 22.9692 2.2037 22.2392 2.2037 20.8192V4.3592C2.2037 2.9392 2.9537 2.1992 4.3237 2.1992H20.8537C22.2037 2.1992 22.9737 2.9392 22.9737 4.3592V20.8192C22.9737 22.2392 22.2037 22.9692 20.8537 22.9692ZM9.8837 18.8392C10.3737 18.8392 10.6937 18.5392 10.6937 18.0292V14.6992H13.1837C15.0837 14.6992 16.4437 13.6292 16.9837 12.0892H17.8737C18.1337 12.0892 18.3337 11.8792 18.3337 11.6392C18.3337 11.3892 18.1337 11.1792 17.8737 11.1792H17.2037C17.2237 10.9692 17.2437 10.7592 17.2437 10.5292C17.2437 10.3192 17.2237 10.1192 17.2037 9.9292H17.8737C18.1337 9.9292 18.3337 9.7192 18.3337 9.4592C18.3337 9.2192 18.1337 9.0092 17.8737 9.0092H16.9937C16.4737 7.4892 15.1437 6.3992 13.2037 6.3992H9.8837C9.3937 6.3992 9.0937 6.7092 9.0937 7.2192V9.0092H8.1737C7.9137 9.0092 7.7137 9.2192 7.7137 9.4592C7.7137 9.7392 7.9137 9.9292 8.1737 9.9292H9.0937V11.1792H8.1737C7.9137 11.1792 7.7137 11.3892 7.7137 11.6392C7.7137 11.8992 7.9137 12.0892 8.1737 12.0892H9.0937V18.0292C9.0937 18.5392 9.3937 18.8392 9.8837 18.8392ZM10.6937 7.7292H12.8237C13.9737 7.7292 14.8337 8.1792 15.2737 9.0092H10.6937ZM15.6137 10.5292C15.6137 10.7592 15.6037 10.9792 15.5537 11.1792H10.6937V9.9292H15.5737C15.6037 10.1192 15.6137 10.3192 15.6137 10.5292ZM10.6937 13.3692V12.0892H15.2537C14.8237 12.9092 13.9737 13.3692 12.8237 13.3692Z"
        fillRule="evenodd"
        clipRule="evenodd"
    />
</svg>
        