<svg viewBox="0 0 20.794921875 24.9375" xmlns="http://www.w3.org/2000/svg"><path d="M4.0637 24.9335C4.8437 24.9335 5.4137 24.3535 5.4137 23.5535V16.2835H10.5937C14.2337 16.2835 17.0037 14.2835 18.1037 11.2235H19.8937C20.4137 11.2235 20.7937 10.8435 20.7937 10.3335C20.7937 9.8335 20.4137 9.4435 19.8937 9.4435H18.5437C18.5937 9.0235 18.6237 8.5735 18.6237 8.1235C18.6237 7.6935 18.5937 7.2735 18.5537 6.8635H19.8937C20.4137 6.8635 20.7937 6.4835 20.7937 5.9735C20.7937 5.4735 20.4137 5.0835 19.8937 5.0835H18.1337C17.0537 2.0235 14.3037 0.0035 10.6237 0.0035H4.0637C3.2537 0.0035 2.6937 0.5835 2.6937 1.4035V5.0835H0.9037C0.3837 5.0835 0.0037 5.4735 0.0037 5.9735C0.0037 6.4935 0.3837 6.8635 0.9037 6.8635H2.6937V9.4435H0.9037C0.3837 9.4435 0.0037 9.8335 0.0037 10.3335C0.0037 10.8535 0.3837 11.2235 0.9037 11.2235H2.6937V23.5535C2.6937 24.3535 3.2637 24.9335 4.0637 24.9335ZM5.4137 2.3635H9.9837C12.4837 2.3635 14.2837 3.3535 15.1937 5.0835H5.4137ZM15.8737 8.1235C15.8737 8.5835 15.8337 9.0235 15.7637 9.4435H5.4137V6.8635H15.7737C15.8437 7.2635 15.8737 7.6835 15.8737 8.1235ZM5.4137 13.9135V11.2235H15.1737C14.2437 12.9435 12.4537 13.9135 9.9837 13.9135Z" /></svg>