
<svg
    viewBox="0 0 30.529296875 29.17578125"
    xmlns="http://www.w3.org/2000/svg"
>
    <path
        fill="inherit"
        d="M1.0937 29.179H29.4237C30.0237 29.179 30.5337 28.669 30.5337 28.069C30.5337 27.469 30.0237 26.979 29.4237 26.979H28.7137V25.979C28.7137 25.429 28.3937 25.099 27.8337 25.099H26.9637V9.379H28.1637C28.9137 9.379 29.3537 8.829 29.3537 8.269C29.3537 7.859 29.1237 7.509 28.6137 7.219L16.9437 0.479C16.3937 0.169 15.8137 -0.001 15.2537 -0.001C14.6937 -0.001 14.1137 0.169 13.5937 0.479L1.9137 7.219C1.3937 7.509 1.1737 7.859 1.1737 8.269C1.1737 8.829 1.6137 9.379 2.3637 9.379H3.5637V25.099H2.7037C2.1437 25.099 1.8137 25.429 1.8137 25.979V26.979H1.0937C0.4937 26.979 0.0037 27.469 0.0037 28.069C0.0037 28.669 0.4937 29.179 1.0937 29.179ZM12.4537 22.079C11.9537 22.079 11.6337 21.749 11.6337 21.229V15.109H10.7037C10.4337 15.109 10.2137 14.919 10.2137 14.639C10.2137 14.379 10.4337 14.179 10.7037 14.179H11.6337V12.869H10.7037C10.4337 12.869 10.2137 12.669 10.2137 12.399C10.2137 12.139 10.4337 11.939 10.7037 11.939H11.6337V10.089C11.6337 9.559 11.9537 9.229 12.4737 9.229H15.9037C17.8937 9.229 19.2637 10.359 19.8137 11.939H20.7037C20.9737 11.939 21.1937 12.139 21.1937 12.399C21.1937 12.649 20.9737 12.869 20.7037 12.869H20.0137C20.0437 13.069 20.0537 13.289 20.0537 13.499C20.0537 13.739 20.0437 13.959 20.0137 14.179H20.7037C20.9737 14.179 21.1937 14.379 21.1937 14.639C21.1937 14.889 20.9737 15.109 20.7037 15.109H19.7837C19.2337 16.709 17.8237 17.799 15.8737 17.799H13.3037V21.229C13.3037 21.749 12.9737 22.079 12.4537 22.079ZM13.3037 11.939H18.0237C17.5637 11.079 16.6837 10.609 15.5037 10.609H13.3037ZM13.3037 14.179H18.3237C18.3437 13.959 18.3737 13.739 18.3737 13.499C18.3737 13.279 18.3637 13.069 18.3237 12.869H13.3037ZM13.3037 16.419H15.5037C16.6837 16.419 17.5537 15.939 18.0037 15.109H13.3037Z"
        fillRule="evenodd"
        clipRule="evenodd"
    />
</svg>
        