<svg viewBox="0 0 30.5703125 30.5703125" xmlns="http://www.w3.org/2000/svg"><path d="M15.2827 30.5663C23.6827 30.5663 30.5727 23.6763 30.5727 15.2863C30.5727 6.8863 23.6827 -0.0038 15.2827 -0.0038C6.8927 -0.0038 0.0027 6.8863 0.0027 15.2863C0.0027 23.6763 6.8927 30.5663 15.2827 30.5663ZM15.2827 25.4862C9.6527 25.4862 5.0827 20.9162 5.0827 15.2863C5.0827 9.6363 9.6527 5.0863 15.2827 5.0863C20.9327 5.0863 25.4827 9.6363 25.4827 15.2863C25.4827 20.9162 20.9327 25.4862 15.2827 25.4862ZM12.5827 21.5463C13.0727 21.5463 13.3827 21.2463 13.3827 20.7362V17.4063H15.8727C17.7727 17.4063 19.1427 16.3363 19.6727 14.7963H20.5627C20.8227 14.7963 21.0227 14.5863 21.0227 14.3463C21.0227 14.0963 20.8227 13.8863 20.5627 13.8863H19.8927C19.9227 13.6763 19.9327 13.4663 19.9327 13.2363C19.9327 13.0262 19.9227 12.8263 19.8927 12.6363H20.5627C20.8227 12.6363 21.0227 12.4263 21.0227 12.1663C21.0227 11.9263 20.8227 11.7163 20.5627 11.7163H19.6827C19.1727 10.1962 17.8427 9.1063 15.9027 9.1063H12.5827C12.0827 9.1063 11.7827 9.4163 11.7827 9.9263V11.7163H10.8727C10.6127 11.7163 10.4027 11.9263 10.4027 12.1663C10.4027 12.4462 10.6127 12.6363 10.8727 12.6363H11.7827V13.8863H10.8727C10.6127 13.8863 10.4027 14.0963 10.4027 14.3463C10.4027 14.6063 10.6127 14.7963 10.8727 14.7963H11.7827V20.7362C11.7827 21.2463 12.0827 21.5463 12.5827 21.5463ZM13.3827 10.4363H15.5127C16.6627 10.4363 17.5227 10.8863 17.9627 11.7163H13.3827ZM18.3027 13.2363C18.3027 13.4663 18.2927 13.6863 18.2527 13.8863H13.3827V12.6363H18.2627C18.2927 12.8263 18.3027 13.0262 18.3027 13.2363ZM13.3827 16.0763V14.7963H17.9527C17.5127 15.6163 16.6627 16.0763 15.5127 16.0763Z" /></svg>