
<svg
    viewBox="0 0 32.935546875 27.26189615322232"
    xmlns="http://www.w3.org/2000/svg"
>
    <path
        fill="inherit"
        d="M32.9327 16.3992C32.9327 7.7792 26.3227 0.7192 17.8927 -0.0008C17.4627 -0.0408 17.1327 0.2792 17.1327 0.7192V5.1892C17.1327 5.5592 17.3927 5.8392 17.7627 5.8692C22.9927 6.5092 27.0727 10.9792 27.0727 16.3992C27.0727 18.8592 26.2227 21.1292 24.7327 23.0292C24.5427 23.2592 24.5527 23.5592 24.7627 23.7792L28.0227 27.0292C28.3327 27.3292 28.7927 27.3292 29.0627 27.0092C31.4827 24.1392 32.9327 20.4292 32.9327 16.3992ZM0.0027 16.3992C0.0027 20.4392 1.4527 24.1492 3.8727 27.0192C4.1427 27.3492 4.5927 27.3292 4.9127 27.0292L8.1727 23.7792C8.3827 23.5592 8.3927 23.2592 8.2027 23.0292C6.7027 21.1292 5.8627 18.8592 5.8627 16.3992C5.8627 10.9792 9.9427 6.5092 15.1727 5.8692C15.5427 5.8392 15.8027 5.5592 15.8027 5.1892V0.7192C15.8027 0.2792 15.4727 -0.0408 15.0427 -0.0008C6.6127 0.7192 0.0027 7.7792 0.0027 16.3992ZM11.5627 15.6292C11.5627 15.8992 11.7727 16.0992 12.0427 16.0992H12.9427V22.0392C12.9427 22.5392 13.2527 22.8492 13.7427 22.8492C14.2327 22.8492 14.5627 22.5392 14.5627 22.0392V18.6892H17.0327C18.9327 18.6892 20.3027 17.6392 20.8527 16.0992H21.7227C22.0027 16.0992 22.2027 15.8892 22.2027 15.6292C22.2027 15.3892 22.0027 15.1792 21.7227 15.1792H21.0527C21.0827 14.9792 21.0927 14.7592 21.0927 14.5392C21.0927 14.3292 21.0827 14.1292 21.0527 13.9192H21.7227C22.0027 13.9192 22.2027 13.7192 22.2027 13.4692C22.2027 13.2292 22.0027 13.0192 21.7227 13.0192H20.8527C20.3327 11.4892 19.0027 10.3892 17.0727 10.3892H13.7427C13.2527 10.3892 12.9427 10.7192 12.9427 11.2292V13.0192H12.0427C11.7727 13.0192 11.5627 13.2292 11.5627 13.4692C11.5627 13.7292 11.7727 13.9192 12.0427 13.9192H12.9427V15.1792H12.0427C11.7727 15.1792 11.5627 15.3892 11.5627 15.6292ZM14.5627 11.7292H16.6827C17.8327 11.7292 18.6927 12.1892 19.1427 13.0192H14.5627ZM19.4727 14.5392C19.4727 14.7592 19.4527 14.9792 19.4327 15.1792H14.5627V13.9192H19.4327C19.4527 14.1092 19.4727 14.3192 19.4727 14.5392ZM14.5627 17.3692V16.0992H19.1127C18.6727 16.8992 17.8327 17.3692 16.6827 17.3692Z"
        fillRule="evenodd"
        clipRule="evenodd"
    />
</svg>
        