
<svg
    viewBox={0 0 27.890625 27.890625}
    xmlns="http://www.w3.org/2000/svg"
>
    <path
        fill="inherit"
        d="M13.9427 27.8864C21.6427 27.8864 27.8927 21.6464 27.8927 13.9464C27.8927 6.2464 21.6427 -0.0036 13.9427 -0.0036C6.2527 -0.0036 0.0027 6.2464 0.0027 13.9464C0.0027 21.6464 6.2527 27.8864 13.9427 27.8864ZM13.9427 25.5664C7.5227 25.5664 2.3227 20.3664 2.3227 13.9464C2.3227 7.5164 7.5227 2.3264 13.9427 2.3264C20.3727 2.3264 25.5627 7.5164 25.5627 13.9464C25.5627 20.3664 20.3727 25.5664 13.9427 25.5664ZM14.6727 14.0864C14.8627 14.0864 15.0527 14.0264 15.1727 13.9064L18.5127 10.5564L19.3827 9.5864L19.2927 11.4164V12.5664C19.2927 12.9464 19.5627 13.2464 19.9427 13.2864C20.3727 13.3064 20.7027 12.9764 20.7027 12.5664V8.1064C20.7027 7.6164 20.4227 7.3464 19.9327 7.3464H15.4527C15.0527 7.3464 14.7227 7.6864 14.7527 8.0764C14.7627 8.4664 15.0527 8.7464 15.4527 8.7464H16.6527L18.4527 8.6564L17.5027 9.5264L14.1827 12.8664C14.0127 13.0164 13.9627 13.1964 13.9627 13.4164C13.9627 13.8064 14.2627 14.0864 14.6727 14.0864ZM9.7927 18.1164C12.0027 20.3264 14.6727 22.0264 16.8027 22.0264C17.8127 22.0264 18.6727 21.6264 19.2627 20.9864C19.8227 20.3664 20.0027 19.9064 20.0027 19.4964C20.0027 19.1864 19.7927 18.8964 19.2927 18.5364L17.4627 17.2164C16.9927 16.8864 16.7927 16.8264 16.5127 16.8264C16.2827 16.8264 16.1027 16.8664 15.6927 17.0864L14.4927 17.7564C14.3527 17.8264 14.2827 17.8464 14.1827 17.8464C14.0427 17.8464 13.9427 17.8164 13.7927 17.7564C13.2027 17.4764 12.4127 16.8464 11.6927 16.1364C10.9927 15.4364 10.4327 14.6864 10.1327 14.1264C10.1027 14.0364 10.0527 13.9164 10.0527 13.7964C10.0527 13.6964 10.1027 13.6164 10.1627 13.5064L10.8727 12.3064C11.0727 11.9764 11.1327 11.7964 11.1327 11.5264C11.1327 11.2364 11.0327 10.9064 10.7327 10.5164L9.4727 8.7464C9.1227 8.2264 8.8427 7.9464 8.4327 7.9464C7.9327 7.9464 7.3327 8.3264 6.8727 8.7464C6.2527 9.3564 5.9227 10.1964 5.9227 11.1464C5.9227 13.2864 7.5727 15.8964 9.7927 18.1164Z"
        fillRule="evenodd"
        clipRule="evenodd"
    />
</svg>
        