
<svg
    viewBox={0 0 54.16796875 19.450934019059478}
    xmlns="http://www.w3.org/2000/svg"
>
    <path
        fill="inherit"
        d="M54.1727 9.7292C54.1727 6.1892 52.8927 2.9092 50.6227 0.4492C50.0927 -0.1308 49.3327 -0.1408 48.8927 0.3792C48.4527 0.8692 48.5927 1.5092 49.0827 2.0692C50.9127 4.1092 51.9427 6.7892 51.9427 9.7292C51.9427 12.6692 50.9127 15.3492 49.0827 17.3892C48.5927 17.9492 48.4527 18.5892 48.8927 19.0792C49.3327 19.5892 50.0927 19.5892 50.6227 19.0092C52.8927 16.5392 54.1727 13.2692 54.1727 9.7292ZM0.0027 9.7292C0.0027 13.2692 1.2827 16.5392 3.5527 19.0092C4.0727 19.5892 4.8427 19.5892 5.2727 19.0792C5.7127 18.5892 5.5827 17.9492 5.0827 17.3892C3.2527 15.3492 2.2327 12.6692 2.2327 9.7292C2.2327 6.7892 3.2527 4.1092 5.0827 2.0692C5.5827 1.5092 5.7127 0.8692 5.2727 0.3792C4.8427 -0.1408 4.0727 -0.1308 3.5527 0.4492C1.2827 2.9092 0.0027 6.1892 0.0027 9.7292ZM27.0827 2.1692C21.7627 2.1692 15.6927 3.1292 12.7427 6.1692C11.6227 7.3192 10.9327 8.7592 10.9327 10.5792C10.9327 11.8192 11.3227 13.6692 12.7827 13.7992C13.1827 13.9092 13.5627 13.8692 14.0527 13.7892L18.0927 13.1192C19.4827 12.8892 20.1227 12.3692 20.5127 11.0292L21.1827 8.6192C21.3127 8.1292 21.4327 7.9692 22.0427 7.7492C23.1327 7.3492 24.9327 7.1292 27.0827 7.1292C29.2327 7.1292 31.0327 7.3492 32.1327 7.7492C32.7327 7.9692 32.8527 8.1292 32.9927 8.6192L33.6727 11.0292C34.0427 12.3692 34.6827 12.8892 36.0927 13.1192L40.1127 13.7892C40.6027 13.8692 40.9927 13.9092 41.3827 13.7992C42.8427 13.6692 43.2327 11.8192 43.2327 10.5792C43.2327 8.7592 42.5627 7.3192 41.4227 6.1692C38.4727 3.1292 32.4127 2.1692 27.0827 2.1692ZM5.4827 9.7292C5.4827 11.7392 6.1627 13.6092 7.3527 15.0892C7.8327 15.6992 8.6527 15.6892 9.1027 15.1792C9.5427 14.6892 9.3627 14.0792 8.9327 13.4892C8.1027 12.4592 7.7127 11.1492 7.7127 9.7292C7.7127 8.2892 8.1227 6.9692 8.9327 5.9692C9.3627 5.3792 9.5427 4.7692 9.1027 4.2692C8.6527 3.7492 7.8327 3.7492 7.3527 4.3692C6.1627 5.8492 5.4827 7.7192 5.4827 9.7292ZM48.7027 9.7292C48.7027 7.7192 48.0027 5.8492 46.8127 4.3692C46.3327 3.7492 45.5127 3.7492 45.0627 4.2692C44.6227 4.7692 44.8027 5.3792 45.2427 5.9692C46.0627 6.9792 46.4727 8.3092 46.4727 9.7292C46.4727 11.1492 46.0627 12.4592 45.2427 13.4892C44.8027 14.0792 44.6227 14.6892 45.0627 15.1792C45.5127 15.6892 46.3327 15.6992 46.8127 15.0892C48.0027 13.6092 48.7027 11.7392 48.7027 9.7292Z"
        fillRule="evenodd"
        clipRule="evenodd"
    />
</svg>
        