
<svg
    viewBox="0 0 24.951171875 31.25390625"
    xmlns="http://www.w3.org/2000/svg"
>
    <path
        fill="inherit"
        d="M0.0027 15.628C0.0027 20.428 0.9527 26.478 3.9927 29.438C5.1427 30.568 6.5927 31.258 8.3927 31.258C9.6527 31.258 11.4827 30.858 11.6227 29.408C11.7327 29.008 11.6927 28.628 11.6027 28.138L10.9327 24.108C10.7027 22.708 10.1827 22.048 8.8427 21.688L6.4427 21.018C5.9627 20.878 5.7827 20.738 5.5627 20.148C5.1727 19.058 4.9527 17.258 4.9527 15.628C4.9527 13.998 5.1727 12.198 5.5627 11.098C5.7827 10.518 5.9627 10.378 6.4427 10.238L8.8427 9.568C10.1827 9.188 10.7027 8.548 10.9327 7.148L11.6027 3.118C11.6927 2.628 11.7327 2.238 11.6227 1.848C11.4827 0.378 9.6527 -0.002 8.3927 -0.002C6.5927 -0.002 5.1427 0.688 3.9927 1.808C0.9527 4.768 0.0027 10.828 0.0027 15.628ZM11.8027 16.598H19.1527L22.0227 16.458L19.0427 19.138L17.6127 20.578C17.4227 20.768 17.3227 21.028 17.3227 21.318C17.3227 21.878 17.7227 22.258 18.2527 22.258C18.5227 22.258 18.7827 22.148 18.9727 21.958L24.5927 16.348C24.8327 16.118 24.9527 15.858 24.9527 15.628C24.9527 15.398 24.8327 15.118 24.5927 14.888L18.9727 9.298C18.7827 9.108 18.5227 8.998 18.2527 8.998C17.7227 8.998 17.3227 9.378 17.3227 9.928C17.3227 10.228 17.4227 10.468 17.6127 10.668L19.0427 12.118L22.0227 14.778L19.1527 14.638H11.8027C11.1827 14.638 10.8127 15.118 10.8127 15.628C10.8127 16.128 11.1827 16.598 11.8027 16.598Z"
        fillRule="evenodd"
        clipRule="evenodd"
    />
</svg>
        