
<svg
    viewBox={0 0 27.890625 27.890625}
    xmlns="http://www.w3.org/2000/svg"
>
    <path
        fill="inherit"
        d="M13.9427 27.8864C21.6427 27.8864 27.8927 21.6464 27.8927 13.9464C27.8927 6.2464 21.6427 -0.0036 13.9427 -0.0036C6.2527 -0.0036 0.0027 6.2464 0.0027 13.9464C0.0027 21.6464 6.2527 27.8864 13.9427 27.8864ZM13.9427 25.5664C7.5227 25.5664 2.3227 20.3664 2.3227 13.9464C2.3227 7.5164 7.5227 2.3264 13.9427 2.3264C20.3727 2.3264 25.5627 7.5164 25.5627 13.9464C25.5627 20.3664 20.3727 25.5664 13.9427 25.5664ZM13.9627 10.4864C10.8127 10.4864 7.8027 11.1664 6.2927 12.6864C5.6227 13.3664 5.2527 14.2064 5.2727 15.0664C5.2927 15.6864 5.4427 16.3764 5.7927 16.7364C6.0827 17.0264 6.4927 17.0064 7.1127 16.8964L9.2427 16.5564C9.7527 16.4564 10.0327 16.3064 10.2427 16.1064C10.4227 15.9164 10.5027 15.7464 10.5927 15.3664L10.9627 14.0164C11.0027 13.9064 11.0227 13.8064 11.0927 13.7564C11.1827 13.6564 11.2927 13.6064 11.3727 13.5664C11.9727 13.3664 12.9027 13.2464 13.9027 13.2464C14.9127 13.2464 15.9127 13.3664 16.5427 13.5864C16.6827 13.6564 16.7627 13.6964 16.8727 13.7964C16.9427 13.8664 16.9627 13.9364 17.0227 14.0864L17.4027 15.3964C17.5427 15.8464 17.6327 15.9964 17.8027 16.1764C17.9927 16.3664 18.1827 16.4564 18.7427 16.5564L20.9727 16.9264C21.5927 17.0364 21.9127 16.9764 22.1527 16.7464C22.4527 16.4464 22.6427 15.9964 22.6827 15.1664C22.7227 14.2964 22.3927 13.3964 21.6827 12.6964C20.1627 11.1964 17.0927 10.4864 13.9627 10.4864Z"
        fillRule="evenodd"
        clipRule="evenodd"
    />
</svg>
        