
<svg
    viewBox={0 0 28.97412109375 28.72802734375}
    xmlns="http://www.w3.org/2000/svg"
>
    <path
        fill="inherit"
        d="M22.4255 0.3217C21.9955 0.7417 21.9955 1.4517 22.4255 1.8717L27.0855 6.5517C27.5055 6.9717 28.2355 6.9717 28.6555 6.5517C29.0755 6.1117 29.0755 5.4217 28.6555 4.9917L23.9855 0.3217C23.5555 -0.1083 22.8355 -0.1083 22.4255 0.3217ZM19.8555 28.7317C22.2355 28.7317 23.8055 28.0817 25.1855 26.5417C25.2955 26.4217 25.3855 26.3117 25.4855 26.1817C26.3055 25.2817 26.7055 24.3917 26.7055 23.5417C26.7055 22.5617 26.1455 21.6017 24.9255 20.7717L21.4955 18.4217C20.4355 17.7117 19.5555 17.6717 18.2355 18.2917L16.1055 19.3317C15.7055 19.5317 15.3555 19.5317 14.9555 19.2817C14.3555 18.9017 12.8355 17.6817 11.7955 16.6317C10.7755 15.5917 9.7655 14.3417 9.3155 13.5617C9.1355 13.2517 9.1555 12.9917 9.3955 12.6217L10.6255 10.6917C11.1555 9.8517 11.3155 8.6817 10.6255 7.7017L7.9255 3.8217C7.0855 2.6017 6.1555 2.0417 5.1855 2.0317C4.3355 2.0117 3.4455 2.4117 2.5255 3.2317C2.4155 3.3217 2.2955 3.4317 2.1855 3.5417C0.6455 4.9117 -0.0045 6.4817 -0.0045 8.8517C-0.0045 12.7617 2.4055 17.5417 6.7955 21.9217C11.1655 26.2817 15.9455 28.7317 19.8555 28.7317ZM19.8655 26.6517C16.3755 26.7217 11.9055 24.0417 8.3655 20.5117C4.8155 16.9517 2.0055 12.3317 2.0755 8.8317C2.1055 7.3317 2.6255 6.0417 3.7055 5.1017C3.7855 5.0317 3.8655 4.9617 3.9555 4.9017C4.3655 4.5417 4.8155 4.3517 5.1955 4.3517C5.6055 4.3517 5.9455 4.5017 6.2255 4.9117L8.6855 8.6017C8.9155 8.9417 8.8955 9.2417 8.6155 9.7217L7.2555 11.9117C6.6555 12.8817 6.7555 13.6217 7.3655 14.4417C8.1455 15.4917 9.3555 17.0117 10.4055 18.0517C11.4455 19.0917 13.1755 20.5617 14.1055 21.2217C14.9455 21.8217 15.6855 21.9617 16.9355 21.3417L19.2455 20.2517C19.7655 20.0217 20.1755 20.0917 20.6155 20.3617L23.8155 22.5117C24.2155 22.7717 24.3755 23.1217 24.3755 23.5317C24.3755 23.9117 24.1855 24.3617 23.8255 24.7817C23.7455 24.8617 23.6955 24.9417 23.6155 25.0217C22.6855 26.1017 21.3855 26.6217 19.8655 26.6517ZM21.0655 7.9017C21.8155 8.6017 22.9855 8.6117 23.7255 7.8917C24.4355 7.1517 24.4355 5.9817 23.7255 5.2717C22.9855 4.5317 21.8055 4.5317 21.0655 5.2417C20.3255 5.9817 20.3255 7.1417 21.0655 7.9017ZM16.1455 6.5917C15.7255 7.0217 15.7255 7.7117 16.1455 8.1417L20.8055 12.8117C21.2455 13.2417 21.9455 13.2417 22.3655 12.8117C22.7955 12.3917 22.7955 11.6917 22.3655 11.2517L17.7055 6.5917C17.2655 6.1517 16.5655 6.1517 16.1455 6.5917ZM14.8055 14.1517C15.5355 14.8917 16.7255 14.8917 17.4455 14.1517C18.1855 13.4317 18.1855 12.2417 17.4455 11.5317C16.7255 10.7817 15.5355 10.7817 14.8055 11.5117C14.0655 12.2417 14.0655 13.4317 14.8055 14.1517Z"
        fillRule="evenodd"
        clipRule="evenodd"
    />
</svg>
        