
<svg
    viewBox="0 0 28.09912109375 27.41552734375"
    xmlns="http://www.w3.org/2000/svg"
>
    <path
        fill="inherit"
        d="M21.5455 0.3208C21.1255 0.7408 21.1255 1.4508 21.5455 1.8808L26.2055 6.5508C26.6355 6.9808 27.3555 6.9808 27.7855 6.5508C28.2055 6.1108 28.2055 5.4208 27.7855 4.9908L23.1055 0.3208C22.6855 -0.1092 21.9555 -0.1092 21.5455 0.3208ZM6.9955 20.3208C11.0155 24.3508 15.8355 27.4108 19.7055 27.4108C21.5155 27.4108 23.1055 26.6908 24.1455 25.5308C25.1455 24.4108 25.4855 23.5708 25.4855 22.8308C25.4855 22.2608 25.1255 21.7308 24.2255 21.1008L20.8955 18.7108C20.0555 18.1208 19.6855 18.0108 19.1955 18.0108C18.7755 18.0108 18.4155 18.0908 17.7055 18.4708L15.5155 19.6808C15.2555 19.8308 15.1455 19.8508 14.9555 19.8508C14.6955 19.8508 14.5155 19.7908 14.2555 19.6808C13.2255 19.2008 11.7555 18.0508 10.4555 16.7508C9.1555 15.4508 8.1455 14.1308 7.6255 13.1008C7.5655 12.9608 7.4755 12.7408 7.4755 12.5308C7.4755 12.3508 7.5755 12.2008 7.6855 12.0108L8.9655 9.8108C9.3255 9.2008 9.4155 8.8808 9.4155 8.4108C9.4155 7.8808 9.2455 7.3008 8.7355 6.5808L6.4355 3.3808C5.7855 2.4608 5.2955 1.9008 4.5555 1.9008C3.6355 1.9008 2.5255 2.6008 1.7355 3.3708C0.6055 4.4608 -0.0045 5.9908 -0.0045 7.7108C-0.0045 11.6108 2.9955 16.3308 6.9955 20.3208ZM20.1955 7.9008C20.9455 8.6008 22.1055 8.6208 22.8455 7.8908C23.5555 7.1508 23.5555 5.9808 22.8455 5.2708C22.1055 4.5308 20.9355 4.5308 20.1955 5.2408C19.4555 5.9808 19.4555 7.1408 20.1955 7.9008ZM15.2755 6.5908C14.8455 7.0208 14.8455 7.7108 15.2755 8.1408L19.9455 12.8108C20.3755 13.2408 21.0655 13.2408 21.4955 12.8108C21.9155 12.3908 21.9155 11.6908 21.4955 11.2508L16.8255 6.5908C16.4055 6.1508 15.6955 6.1508 15.2755 6.5908ZM13.9355 14.1508C14.6555 14.8908 15.8455 14.8908 16.5655 14.1508C17.3055 13.4308 17.3055 12.2408 16.5655 11.5308C15.8455 10.7808 14.6555 10.7808 13.9355 11.5108C13.1955 12.2408 13.1955 13.4308 13.9355 14.1508Z"
        fillRule="evenodd"
        clipRule="evenodd"
    />
</svg>
        