
<svg
    viewBox={0 0 27.890625 27.890625}
    xmlns="http://www.w3.org/2000/svg"
>
    <path
        fill="inherit"
        d="M13.9427 27.8927C21.6427 27.8927 27.8927 21.6427 27.8927 13.9427C27.8927 6.2627 21.6427 0.0027 13.9427 0.0027C6.2627 0.0027 0.0027 6.2627 0.0027 13.9427C0.0027 21.6427 6.2627 27.8927 13.9427 27.8927ZM13.9727 10.3927C17.2027 10.3927 20.3727 11.1127 21.9427 12.6727C22.6727 13.4027 23.0127 14.3327 22.9727 15.2027C22.9327 16.0627 22.7227 16.5327 22.4227 16.8427C22.1727 17.0727 21.8327 17.1427 21.2027 17.0327L18.9127 16.6427C18.3327 16.5527 18.1327 16.4427 17.9327 16.2527C17.7627 16.0827 17.6627 15.9127 17.5227 15.4627L17.1327 14.0927C17.0727 13.9327 17.0527 13.8727 16.9827 13.7927C16.8527 13.7027 16.7727 13.6627 16.6427 13.5927C15.9827 13.3727 14.9527 13.2527 13.9227 13.2327C12.8927 13.2327 11.9227 13.3527 11.3027 13.5627C11.2227 13.6027 11.1127 13.6627 11.0027 13.7527C10.9327 13.8127 10.9227 13.9027 10.8827 14.0427L10.5027 15.4227C10.4027 15.8227 10.3227 15.9827 10.1427 16.1727C9.9227 16.3927 9.6227 16.5527 9.1027 16.6427L6.9027 16.9927C6.2727 17.1027 5.8527 17.1127 5.5527 16.8327C5.1927 16.4727 5.0327 15.7327 5.0127 15.1027C4.9927 14.2227 5.3727 13.3527 6.0727 12.6627C7.6327 11.1027 10.7327 10.3927 13.9727 10.3927Z"
        fillRule="evenodd"
        clipRule="evenodd"
    />
</svg>
        