
<svg
    viewBox="0 0 26.701171875 26.701513608605637"
    xmlns="http://www.w3.org/2000/svg"
>
    <path
        fill="inherit"
        d="M19.8555 26.7052C22.2355 26.7052 23.8055 26.0552 25.1855 24.5152C25.2955 24.3952 25.3855 24.2852 25.4955 24.1552C26.3155 23.2552 26.7055 22.3652 26.7055 21.5152C26.7055 20.5352 26.1455 19.5752 24.9255 18.7452L21.4955 16.3952C20.4355 15.6852 19.5555 15.6452 18.2355 16.2652L16.1155 17.3052C15.7055 17.5052 15.3555 17.5052 14.9555 17.2552C14.3555 16.8752 12.8355 15.6552 11.8155 14.6052C10.7755 13.5652 9.7655 12.3152 9.3155 11.5352C9.1355 11.2252 9.1555 10.9652 9.3955 10.5952L10.6255 8.6652C11.1555 7.8252 11.3155 6.6552 10.6355 5.6752L7.9255 1.7952C7.0855 0.5752 6.1655 0.0152 5.1855 0.0052C4.3355 -0.0148 3.4455 0.3852 2.5255 1.2052C2.4155 1.2952 2.2955 1.4052 2.1855 1.5152C0.6455 2.8852 -0.0045 4.4552 -0.0045 6.8252C-0.0045 10.7352 2.4155 15.5152 6.8055 19.8952C11.1655 24.2552 15.9455 26.7052 19.8555 26.7052ZM19.8655 24.6252C16.3755 24.6952 11.9255 22.0152 8.3855 18.4852C4.8155 14.9252 2.0055 10.3052 2.0755 6.8052C2.1055 5.3052 2.6255 4.0152 3.7055 3.0752C3.7855 3.0052 3.8655 2.9352 3.9555 2.8752C4.3655 2.5152 4.8155 2.3252 5.1955 2.3252C5.6055 2.3252 5.9455 2.4752 6.2255 2.8852L8.6855 6.5752C8.9155 6.9152 8.8955 7.2152 8.6255 7.6952L7.2555 9.8852C6.6555 10.8552 6.7655 11.5952 7.3655 12.4152C8.1655 13.4652 9.3555 14.9852 10.4055 16.0252C11.4455 17.0652 13.1755 18.5352 14.1255 19.1952C14.9455 19.7952 15.6855 19.9352 16.9555 19.3152L19.2455 18.2252C19.7655 17.9952 20.1755 18.0652 20.6155 18.3352L23.8155 20.4852C24.2255 20.7452 24.3755 21.0952 24.3755 21.5052C24.3755 21.8852 24.1855 22.3352 23.8255 22.7552C23.7655 22.8352 23.6955 22.9152 23.6255 22.9952C22.6855 24.0752 21.3855 24.5952 19.8655 24.6252Z"
        fillRule="evenodd"
        clipRule="evenodd"
    />
</svg>
        