
<svg
    viewBox={0 0 27.890625 27.890625}
    xmlns="http://www.w3.org/2000/svg"
>
    <path
        fill="inherit"
        d="M13.9427 27.8927C21.6427 27.8927 27.8927 21.6427 27.8927 13.9427C27.8927 6.2627 21.6427 0.0027 13.9427 0.0027C6.2627 0.0027 0.0027 6.2627 0.0027 13.9427C0.0027 21.6427 6.2627 27.8927 13.9427 27.8927ZM10.6827 17.1727C8.3927 14.8927 6.6827 12.1927 6.6827 9.9827C6.6827 9.0127 7.0427 8.1327 7.6827 7.5227C8.1327 7.0927 8.7627 6.6827 9.2827 6.6827C9.7027 6.6827 9.9827 7.0027 10.3527 7.5227L11.6627 9.3427C11.9727 9.7627 12.0627 10.0727 12.0627 10.3927C12.0627 10.6627 12.0027 10.8427 11.7827 11.1827L11.0727 12.4427C11.0227 12.5327 10.9527 12.6327 10.9527 12.7327C10.9527 12.8527 11.0027 12.9727 11.0327 13.0727C11.3327 13.6427 11.9227 14.4127 12.6427 15.1527C13.4027 15.8727 14.2227 16.5327 14.8227 16.8027C14.9527 16.8527 15.0527 16.9127 15.2027 16.9127C15.3127 16.9127 15.3827 16.8727 15.5127 16.8027L16.7727 16.1227C17.1827 15.8827 17.3927 15.8427 17.6127 15.8427C17.9127 15.8427 18.1127 15.9027 18.5927 16.2527L20.4827 17.6127C21.0127 17.9827 21.2027 18.2827 21.2027 18.5927C21.2027 19.0327 21.0227 19.4927 20.4427 20.1427C19.8527 20.7927 18.9527 21.2027 17.9227 21.2027C15.7127 21.2027 12.9727 19.4527 10.6827 17.1727Z"
        fillRule="evenodd"
        clipRule="evenodd"
    />
</svg>
        