
<svg
    viewBox={0 0 30.1328125 28.369140625}
    xmlns="http://www.w3.org/2000/svg"
>
    <path
        fill="inherit"
        d="M8.1237 28.3728C8.6537 28.3728 9.0537 28.0928 9.6937 27.4928L14.6337 22.9828H23.8737C27.9437 22.9828 30.1337 20.7428 30.1337 16.7328V6.2628C30.1337 2.2528 27.9437 0.0028 23.8737 0.0028H6.2637C2.1837 0.0028 0.0037 2.2428 0.0037 6.2628V16.7328C0.0037 20.7528 2.1837 22.9828 6.2637 22.9828H6.9037V26.9628C6.9037 27.8128 7.3437 28.3728 8.1237 28.3728ZM11.8137 14.7128C9.5337 12.4228 7.8237 9.7328 7.8237 7.5228C7.8237 6.5528 8.1637 5.6728 8.8037 5.0628C9.2737 4.6228 9.8937 4.2228 10.4137 4.2228C10.8237 4.2228 11.1137 4.5428 11.4837 5.0628L12.7837 6.8728C13.0937 7.3028 13.1937 7.6128 13.1937 7.9328C13.1937 8.2028 13.1437 8.3828 12.9237 8.7228L12.1937 9.9828C12.1437 10.0728 12.0737 10.1728 12.0737 10.2528C12.0737 10.3928 12.1437 10.5128 12.1637 10.6128C12.4737 11.1828 13.0537 11.9528 13.7637 12.6728C14.5237 13.4128 15.3437 14.0728 15.9437 14.3428C16.0937 14.3928 16.1837 14.4528 16.3337 14.4528C16.4337 14.4528 16.5137 14.4128 16.6537 14.3428L17.8937 13.6628C18.3037 13.4228 18.5137 13.3828 18.7437 13.3828C19.0337 13.3828 19.2337 13.4428 19.7137 13.7828L21.6037 15.1528C22.1337 15.5128 22.3437 15.8228 22.3437 16.1328C22.3437 16.5728 22.1637 17.0328 21.5637 17.6728C20.9737 18.3328 20.0837 18.7428 19.0437 18.7428C16.8437 18.7428 14.0937 16.9928 11.8137 14.7128Z"
        fillRule="evenodd"
        clipRule="evenodd"
    />
</svg>
        