
<svg
    viewBox="0 0 30.1328125 28.287109375"
    xmlns="http://www.w3.org/2000/svg"
>
    <path
        fill="inherit"
        d="M8.4037 28.2828C9.0737 28.2828 9.5437 27.9328 10.3737 27.1928L15.0937 22.9928H23.8737C27.9437 22.9928 30.1337 20.7428 30.1337 16.7328V6.2628C30.1337 2.2528 27.9437 0.0028 23.8737 0.0028H6.2637C2.1837 0.0028 0.0037 2.2428 0.0037 6.2628V16.7328C0.0037 20.7528 2.1837 22.9928 6.2637 22.9928H6.9137V26.5528C6.9137 27.6028 7.4537 28.2828 8.4037 28.2828ZM8.9737 25.7828V21.8228C8.9737 21.0828 8.6837 20.7928 7.9437 20.7928H6.2637C3.5037 20.7928 2.2037 19.3828 2.2037 16.7228V6.2628C2.2037 3.5928 3.5037 2.2028 6.2637 2.2028H23.8737C26.6237 2.2028 27.9337 3.5928 27.9337 6.2628V16.7228C27.9337 19.3828 26.6237 20.7928 23.8737 20.7928H15.0137C14.2437 20.7928 13.8637 20.9028 13.3437 21.4328ZM11.9037 14.6328C14.1237 16.8428 16.7937 18.5428 18.9237 18.5428C19.9337 18.5428 20.7937 18.1428 21.3737 17.5028C21.9437 16.8828 22.1237 16.4328 22.1237 16.0128C22.1237 15.6928 21.9137 15.4128 21.4137 15.0528L19.5737 13.7228C19.1137 13.4028 18.9037 13.3428 18.6337 13.3428C18.4037 13.3428 18.2237 13.3828 17.8137 13.6028L16.6137 14.2728C16.4737 14.3428 16.3937 14.3728 16.2937 14.3728C16.1637 14.3728 16.0637 14.3328 15.9137 14.2728C15.3237 14.0028 14.5337 13.3728 13.8037 12.6428C13.1137 11.9528 12.5537 11.2128 12.2537 10.6528C12.2237 10.5528 12.1637 10.4328 12.1637 10.3128C12.1637 10.2228 12.2237 10.1328 12.2737 10.0328L12.9837 8.8228C13.1937 8.4928 13.2437 8.3128 13.2437 8.0528C13.2437 7.7528 13.1537 7.4328 12.8537 7.0228L11.5937 5.2628C11.2337 4.7528 10.9537 4.4528 10.5537 4.4528C10.0537 4.4528 9.4437 4.8428 8.9937 5.2628C8.3637 5.8628 8.0437 6.7128 8.0437 7.6528C8.0437 9.8028 9.6937 12.4128 11.9037 14.6328Z"
        fillRule="evenodd"
        clipRule="evenodd"
    />
</svg>
        