
<svg
    viewBox="0 0 27.890625 27.890625"
    xmlns="http://www.w3.org/2000/svg"
>
    <path
        fill="inherit"
        d="M13.9427 27.8864C21.6427 27.8864 27.8927 21.6464 27.8927 13.9464C27.8927 6.2464 21.6427 -0.0036 13.9427 -0.0036C6.2527 -0.0036 0.0027 6.2464 0.0027 13.9464C0.0027 21.6464 6.2527 27.8864 13.9427 27.8864ZM13.9427 25.5664C7.5227 25.5664 2.3227 20.3664 2.3227 13.9464C2.3227 7.5164 7.5227 2.3264 13.9427 2.3264C20.3727 2.3264 25.5627 7.5164 25.5627 13.9464C25.5627 20.3664 20.3727 25.5664 13.9427 25.5664ZM10.7627 17.0764C12.9927 19.2864 15.6427 20.9864 17.7827 20.9864C18.7827 20.9864 19.6627 20.5864 20.2327 19.9464C20.7927 19.3364 20.9727 18.8764 20.9727 18.4564C20.9727 18.1464 20.7827 17.8564 20.2727 17.4964L18.4427 16.1764C17.9827 15.8464 17.7727 15.7864 17.4827 15.7864C17.2627 15.7864 17.0727 15.8364 16.6827 16.0464L15.4627 16.7164C15.3227 16.7864 15.2627 16.8164 15.1527 16.8164C15.0127 16.8164 14.9127 16.7764 14.7827 16.7164C14.1927 16.4364 13.4027 15.8164 12.6727 15.0964C11.9627 14.3964 11.4027 13.6464 11.1027 13.0864C11.0727 13.0064 11.0327 12.8764 11.0327 12.7564C11.0327 12.6764 11.0927 12.5764 11.1427 12.4864L11.8427 11.2664C12.0427 10.9364 12.1027 10.7564 12.1027 10.4864C12.1027 10.1964 12.0127 9.8864 11.7127 9.4764L10.4427 7.7064C10.0927 7.2064 9.8127 6.9064 9.4027 6.9064C8.9027 6.9064 8.3027 7.2864 7.8627 7.7064C7.2327 8.3164 6.8927 9.1564 6.8927 10.1064C6.8927 12.2464 8.5427 14.8564 10.7627 17.0764Z"
        fillRule="evenodd"
        clipRule="evenodd"
    />
</svg>
        