
<svg
    viewBox="0 0 26.017578125 31.25390625"
    xmlns="http://www.w3.org/2000/svg"
>
    <path
        fill="inherit"
        d="M0.0027 15.628C0.0027 21.548 1.5827 26.438 4.2227 29.108C5.5627 30.418 7.2827 31.258 9.2427 31.258C11.0327 31.258 12.9327 30.668 13.0727 28.408C13.1827 28.038 13.2027 27.608 13.1127 27.108L12.3427 23.068C12.1127 21.818 11.5227 21.248 10.2527 20.818L8.0927 20.128C7.6327 19.978 7.4127 19.738 7.2727 19.208C7.1527 18.658 7.0227 17.498 7.0227 15.628C7.0227 13.758 7.1527 12.578 7.2727 12.028C7.4127 11.508 7.6327 11.278 8.0927 11.128L10.2527 10.428C11.5227 9.998 12.1127 9.418 12.3427 8.188L13.1127 4.128C13.2027 3.648 13.1827 3.198 13.0727 2.828C12.9327 0.588 11.0327 -0.002 9.2427 -0.002C7.2827 -0.002 5.5627 0.818 4.2227 2.148C1.5827 4.798 0.0027 9.708 0.0027 15.628ZM2.0627 15.628C2.0627 10.758 3.2527 5.888 5.6727 3.568C6.6027 2.678 7.8327 2.118 9.0127 2.118C10.0327 2.118 10.9827 2.448 11.0927 3.228C11.1727 3.368 11.2127 3.528 11.1727 3.728L10.4027 7.508C10.3227 7.958 10.0727 8.248 9.5827 8.408L7.3327 9.148C6.1127 9.558 5.6227 10.078 5.4127 11.158C5.2227 12.198 5.0727 13.768 5.0727 15.628C5.0727 17.488 5.2227 19.058 5.4127 20.098C5.6227 21.168 6.1127 21.688 7.3327 22.098L9.5827 22.848C10.0727 23.008 10.3227 23.298 10.4027 23.738L11.1727 27.518C11.2127 27.728 11.1727 27.888 11.0927 28.028C10.9827 28.808 10.0327 29.138 9.0127 29.138C7.8327 29.138 6.6027 28.578 5.6727 27.688C3.2527 25.348 2.0627 20.478 2.0627 15.628ZM12.8627 16.598H20.2227L23.0927 16.458L20.1127 19.138L18.6727 20.578C18.4827 20.768 18.3727 21.028 18.3727 21.318C18.3727 21.878 18.7827 22.258 19.3227 22.258C19.5927 22.258 19.8527 22.148 20.0427 21.958L25.6527 16.348C25.8927 16.118 26.0127 15.858 26.0127 15.628C26.0127 15.398 25.8927 15.118 25.6527 14.888L20.0427 9.298C19.8527 9.108 19.5927 8.998 19.3227 8.998C18.7827 8.998 18.3727 9.378 18.3727 9.928C18.3727 10.228 18.4827 10.468 18.6727 10.668L20.1127 12.118L23.0927 14.778L20.2227 14.638H12.8627C12.2527 14.638 11.8827 15.118 11.8827 15.628C11.8827 16.128 12.2527 16.598 12.8627 16.598Z"
        fillRule="evenodd"
        clipRule="evenodd"
    />
</svg>
        