
<svg
    viewBox="0 0 28.642578125 30.26953125"
    xmlns="http://www.w3.org/2000/svg"
>
    <path
        fill="inherit"
        d="M5.7037 1.7595H22.9537C22.8737 0.5995 22.2137 -0.0005 20.9437 -0.0005H7.6937C6.4437 -0.0005 5.7837 0.5995 5.7037 1.7595ZM2.8837 5.5495H25.7737C25.5637 4.3095 24.9737 3.6195 23.6137 3.6195H5.0437C3.6737 3.6195 3.0937 4.3095 2.8837 5.5495ZM4.2937 30.2695H24.3537C27.1937 30.2695 28.6437 28.8495 28.6437 26.0295V11.9895C28.6437 9.1695 27.1937 7.7495 24.3537 7.7495H4.2937C1.4237 7.7495 0.0037 9.1695 0.0037 11.9895V26.0295C0.0037 28.8495 1.4237 30.2695 4.2937 30.2695ZM2.2037 12.1095C2.2037 10.6895 2.9537 9.9495 4.3237 9.9495H24.3037C25.6637 9.9495 26.4437 10.6895 26.4437 12.1095V23.4795L21.2837 18.6095C20.7137 18.0695 20.0037 17.8095 19.2937 17.8095C18.5637 17.8095 17.9237 18.0495 17.3037 18.5895L11.3637 23.8395L8.9837 21.7295C8.4237 21.2195 7.8337 20.9595 7.2037 20.9595C6.6137 20.9595 6.0737 21.2295 5.5137 21.7095L2.2037 24.5795ZM10.2937 18.9395C12.0137 18.9395 13.4237 17.4995 13.4237 15.7895C13.4237 14.0795 12.0137 12.6695 10.2937 12.6695C8.5737 12.6695 7.1737 14.0795 7.1737 15.7895C7.1737 17.4995 8.5737 18.9395 10.2937 18.9395Z"
        fillRule="evenodd"
        clipRule="evenodd"
    />
</svg>
        