
<svg
    viewBox="0 0 34.86296508236284 28.712350873390946"
    xmlns="http://www.w3.org/2000/svg"
>
    <path
        fill="inherit"
        d="M2.3534 20.9738C2.8534 23.7538 4.4834 24.8838 7.3134 24.4038L7.6034 24.3538V24.4738C7.6034 27.3038 9.0234 28.7138 11.8934 28.7138H30.5734C33.4134 28.7138 34.8634 27.2938 34.8634 24.4738V11.5838C34.8634 8.7638 33.4134 7.3438 30.5734 7.3438H27.6334L26.9634 3.5438C26.4534 0.7638 24.8134 -0.3862 21.9934 0.1138L3.5934 3.3538C0.7934 3.8538 -0.3866 5.4938 0.1134 8.2738ZM4.4934 20.4838L2.2934 8.0138C2.0534 6.6038 2.6634 5.7438 4.0234 5.5138L22.3434 2.2838C23.6634 2.0638 24.5634 2.6438 24.8134 4.0338L25.4034 7.3438H11.8934C9.0234 7.3438 7.6034 8.7638 7.6034 11.5838V22.1238L6.9734 22.2338C5.6234 22.4638 4.7434 21.8738 4.4934 20.4838ZM9.8034 11.7038C9.8034 10.2838 10.5534 9.5438 11.9234 9.5438H30.5334C31.8834 9.5438 32.6634 10.2838 32.6634 11.7038V22.3538L27.5534 17.5238C27.0134 17.0338 26.3734 16.7938 25.7034 16.7938C25.0234 16.7938 24.4334 17.0138 23.8534 17.5138L18.3334 22.4138L16.1434 20.4238C15.6134 19.9438 15.0534 19.7338 14.4634 19.7338C13.9334 19.7338 13.4234 19.9438 12.8934 20.4038L9.8034 23.0938ZM17.3534 17.8338C18.9534 17.8338 20.2434 16.5038 20.2434 14.9038C20.2434 13.3338 18.9534 12.0038 17.3534 12.0038C15.7534 12.0038 14.4534 13.3338 14.4534 14.9038C14.4534 16.5038 15.7534 17.8338 17.3534 17.8338Z"
        fillRule="evenodd"
        clipRule="evenodd"
    />
</svg>
        