
<svg
    viewBox="0 0 34.1796875 27.34375"
    xmlns="http://www.w3.org/2000/svg"
>
    <path
        fill="inherit"
        d="M3.5137 22.713H30.6637C32.8537 22.713 34.1837 21.373 34.1837 19.193V3.513C34.1837 1.343 32.8537 0.003 30.6637 0.003H3.5137C1.3437 0.003 0.0037 1.343 0.0037 3.513V19.193C0.0037 21.373 1.3437 22.713 3.5137 22.713ZM2.2037 3.543C2.2037 2.703 2.7037 2.203 3.5537 2.203H30.6237C31.4737 2.203 31.9737 2.703 31.9737 3.543V17.593L24.4737 10.553C23.8737 9.993 23.1637 9.723 22.4037 9.723C21.6737 9.723 20.9837 9.983 20.3537 10.543L13.6337 16.543L10.5537 13.763C9.9937 13.253 9.3637 12.993 8.7237 12.993C8.0937 12.993 7.5037 13.253 6.9637 13.753L2.2037 18.043ZM11.1437 10.723C12.8937 10.723 14.3437 9.273 14.3437 7.463C14.3437 5.703 12.8937 4.253 11.1437 4.253C9.3637 4.253 7.9037 5.703 7.9037 7.463C7.9037 9.273 9.3637 10.723 11.1437 10.723ZM10.2137 27.343H23.9637C24.5637 27.343 25.0737 26.853 25.0737 26.233C25.0737 25.623 24.5637 25.133 23.9637 25.133H10.2137C9.6137 25.133 9.1037 25.623 9.1037 26.233C9.1037 26.853 9.6137 27.343 10.2137 27.343Z"
        fillRule="evenodd"
        clipRule="evenodd"
    />
</svg>
        