
<svg
    viewBox="0 0 32.23828125 25.169921875"
    xmlns="http://www.w3.org/2000/svg"
>
    <path
        fill="inherit"
        d="M4.2937 25.1692H27.9437C30.8137 25.1692 32.2337 23.7592 32.2337 20.9492V4.2392C32.2337 1.4192 30.8137 -0.0008 27.9437 -0.0008H4.2937C1.4337 -0.0008 0.0037 1.4192 0.0037 4.2392V20.9492C0.0037 23.7592 1.4337 25.1692 4.2937 25.1692ZM22.7137 12.5792C22.1037 12.0192 21.3837 11.7292 20.6437 11.7292C19.8937 11.7292 19.2237 11.9892 18.5937 12.5492L12.4137 18.0692L9.8837 15.7892C9.3137 15.2692 8.6837 15.0092 8.0437 15.0092C7.4237 15.0092 6.8337 15.2592 6.2737 15.7792L2.2037 19.4592V4.3592C2.2037 2.9392 2.9537 2.1992 4.3237 2.1992H27.9137C29.2737 2.1992 30.0337 2.9392 30.0337 4.3592V19.4592ZM10.1837 12.7192C11.9537 12.7192 13.3937 11.2692 13.3937 9.4892C13.3937 7.7292 11.9537 6.2592 10.1837 6.2592C8.4037 6.2592 6.9637 7.7292 6.9637 9.4892C6.9637 11.2692 8.4037 12.7192 10.1837 12.7192Z"
        fillRule="evenodd"
        clipRule="evenodd"
    />
</svg>
        