
<svg
    viewBox={0 0 27.890625 27.890625}
    xmlns="http://www.w3.org/2000/svg"
>
    <path
        fill="inherit"
        d="M13.9427 27.8864C21.6427 27.8864 27.8927 21.6464 27.8927 13.9464C27.8927 6.2464 21.6427 -0.0036 13.9427 -0.0036C6.2527 -0.0036 0.0027 6.2464 0.0027 13.9464C0.0027 21.6464 6.2527 27.8864 13.9427 27.8864ZM13.9427 25.5664C7.5227 25.5664 2.3227 20.3664 2.3227 13.9464C2.3227 7.5164 7.5227 2.3264 13.9427 2.3264C20.3727 2.3264 25.5627 7.5164 25.5627 13.9464C25.5627 20.3664 20.3727 25.5664 13.9427 25.5664ZM8.2327 20.0264H19.6327C21.0027 20.0264 21.6827 19.3364 21.6827 17.9964V9.9564C21.6827 8.5964 21.0027 7.9264 19.6327 7.9264H8.2327C6.8727 7.9264 6.1827 8.5964 6.1827 9.9564V17.9964C6.1827 19.3464 6.8727 20.0264 8.2327 20.0264ZM11.1127 14.1364C10.2127 14.1364 9.4727 13.4164 9.4727 12.5064C9.4727 11.6364 10.2127 10.8964 11.1127 10.8964C11.9927 10.8964 12.7127 11.6364 12.7127 12.5064C12.7127 13.4164 11.9927 14.1364 11.1127 14.1364ZM8.2827 18.7864C7.7427 18.7864 7.4227 18.4564 7.4227 17.9264V17.3264L9.2527 15.7764C9.5427 15.5264 9.8527 15.3964 10.1627 15.3964C10.4727 15.3964 10.8027 15.5264 11.1027 15.7864L12.3627 16.9264L15.5027 14.1364C15.8227 13.8664 16.1727 13.7164 16.5527 13.7164C16.9127 13.7164 17.2927 13.8664 17.5927 14.1464L20.4427 16.7364V17.9264C20.4427 18.4564 20.1227 18.7864 19.5827 18.7864Z"
        fillRule="evenodd"
        clipRule="evenodd"
    />
</svg>
        