
<svg
    viewBox={0 0 34.015625 27.69921875}
    xmlns="http://www.w3.org/2000/svg"
>
    <path
        fill="inherit"
        d="M11.0437 4.4707H27.2637V4.2407C27.2637 1.4207 25.8137 0.0007 22.9737 0.0007H4.2937C1.4237 0.0007 0.0037 1.4207 0.0037 4.2407V17.1307C0.0037 19.9607 1.4237 21.3707 4.2937 21.3707H4.8837V10.5707C4.8837 6.7107 7.1537 4.4707 11.0437 4.4707ZM11.0437 27.7007H29.7237C32.5637 27.7007 34.0137 26.2807 34.0137 23.4607V10.5707C34.0137 7.7507 32.5637 6.3307 29.7237 6.3307H11.0437C8.1737 6.3307 6.7537 7.7507 6.7537 10.5707V23.4607C6.7537 26.2907 8.1737 27.7007 11.0437 27.7007ZM15.8337 17.2707C14.2337 17.2707 12.9237 15.9407 12.9237 14.3407C12.9237 12.7607 14.2337 11.4207 15.8337 11.4207C17.4137 11.4207 18.7337 12.7607 18.7337 14.3407C18.7337 15.9407 17.4137 17.2707 15.8337 17.2707ZM10.5237 25.7807C9.3537 25.7807 8.6137 25.0307 8.6137 23.8607V23.2407L12.1037 20.1107C12.6237 19.6507 13.1537 19.4307 13.6837 19.4307C14.2837 19.4307 14.8637 19.6607 15.3537 20.1207L17.5937 22.1307L23.1337 17.2007C23.7037 16.6907 24.3037 16.4707 25.0037 16.4707C25.6637 16.4707 26.3037 16.7207 26.8537 17.2107L32.1737 22.1807V23.8707C32.1737 25.0507 31.4037 25.7807 30.2537 25.7807Z"
        fillRule="evenodd"
        clipRule="evenodd"
    />
</svg>
        