
<svg
    viewBox="0 0 34.86296508236284 28.712350873390946"
    xmlns="http://www.w3.org/2000/svg"
>
    <path
        fill="inherit"
        d="M2.3534 20.9738C2.7434 23.1938 3.8734 24.3538 5.7234 24.4838V11.5838C5.7234 7.7238 7.9934 5.4838 11.8934 5.4838H27.3034L26.9634 3.5438C26.4534 0.7638 24.8134 -0.3862 21.9934 0.1138L3.5934 3.3538C0.7934 3.8538 -0.3866 5.4938 0.1134 8.2738ZM11.8934 28.7138H30.5734C33.4134 28.7138 34.8634 27.2938 34.8634 24.4738V11.5838C34.8634 8.7638 33.4134 7.3438 30.5734 7.3438H11.8934C9.0234 7.3438 7.6034 8.7638 7.6034 11.5838V24.4738C7.6034 27.3038 9.0234 28.7138 11.8934 28.7138ZM16.6834 18.2838C15.0834 18.2838 13.7634 16.9538 13.7634 15.3538C13.7634 13.7738 15.0834 12.4338 16.6834 12.4338C18.2834 12.4338 19.5934 13.7738 19.5934 15.3538C19.5934 16.9538 18.2834 18.2838 16.6834 18.2838ZM11.3934 26.7938C10.2134 26.7938 9.4634 26.0438 9.4634 24.8738V24.2538L12.9434 21.1238C13.4634 20.6638 14.0034 20.4438 14.5334 20.4438C15.1334 20.4438 15.6934 20.6838 16.2134 21.1338L18.4434 23.1438L23.9834 18.2138C24.5634 17.7038 25.1534 17.4838 25.8534 17.4838C26.5234 17.4838 27.1534 17.7338 27.7034 18.2238L33.0134 23.1938V24.8838C33.0134 26.0638 32.2534 26.7938 31.1134 26.7938Z"
        fillRule="evenodd"
        clipRule="evenodd"
    />
</svg>
        