
<svg
    viewBox="0 0 28.095703125 29.72265625"
    xmlns="http://www.w3.org/2000/svg"
>
    <path
        fill="inherit"
        d="M5.4237 1.7624H22.6837C22.6037 0.6024 21.9437 0.0024 20.6737 0.0024H7.4237C6.1637 0.0024 5.5137 0.6024 5.4237 1.7624ZM2.6137 5.5524H25.4937C25.2937 4.3024 24.7037 3.6224 23.3337 3.6224H4.7737C3.4037 3.6224 2.8137 4.3024 2.6137 5.5524ZM4.1537 29.7224H23.9437C26.6837 29.7224 28.0937 28.3324 28.0937 25.6124V11.8524C28.0937 9.1324 26.6837 7.7524 23.9437 7.7524H4.1537C1.3837 7.7524 0.0037 9.1324 0.0037 11.8524V25.6124C0.0037 28.3324 1.3837 29.7224 4.1537 29.7224ZM9.9937 18.5424C8.3237 18.5424 6.9837 17.1624 6.9837 15.5024C6.9837 13.8624 8.3237 12.5124 9.9937 12.5124C11.6437 12.5124 13.0037 13.8624 13.0037 15.5024C13.0037 17.1624 11.6437 18.5424 9.9937 18.5424ZM4.2337 27.5224C2.9237 27.5224 2.2037 26.8124 2.2037 25.4424V24.1124L5.4037 21.3124C5.9437 20.8524 6.4637 20.5924 7.0437 20.5924C7.6437 20.5924 8.2137 20.8524 8.7537 21.3324L11.0337 23.3624L16.7637 18.3224C17.3637 17.7824 17.9737 17.5724 18.6737 17.5724C19.3637 17.5724 20.0437 17.8124 20.6037 18.3324L25.8937 23.3124V25.4424C25.8937 26.8124 25.1437 27.5224 23.8437 27.5224Z"
        fillRule="evenodd"
        clipRule="evenodd"
    />
</svg>
        