
<svg
    viewBox="0 0 27.890625 27.890625"
    xmlns="http://www.w3.org/2000/svg"
>
    <path
        fill="inherit"
        d="M13.9427 27.8864C21.6427 27.8864 27.8927 21.6264 27.8927 13.9464C27.8927 6.2464 21.6427 -0.0036 13.9427 -0.0036C6.2627 -0.0036 0.0027 6.2464 0.0027 13.9464C0.0027 21.6264 6.2627 27.8864 13.9427 27.8864ZM6.1927 7.3164H21.6927C22.0827 7.3164 22.3427 7.6064 22.3427 7.9864V19.9164C22.3427 20.3164 22.0827 20.5864 21.6927 20.5864H6.1927C5.8127 20.5864 5.5627 20.3164 5.5627 19.9164V7.9864C5.5627 7.6064 5.8127 7.3164 6.1927 7.3164ZM6.7027 19.2764C6.7027 19.3964 6.7227 19.4164 6.8527 19.4164H21.0427C21.1827 19.4164 21.1927 19.3964 21.1927 19.2764V8.6264C21.1927 8.5164 21.1827 8.5064 21.0427 8.5064H6.8527C6.7227 8.5064 6.7027 8.5164 6.7027 8.6264ZM7.5427 18.0564V9.8464C7.5427 9.5464 7.7527 9.3364 8.0627 9.3364H19.8227C20.1527 9.3364 20.3427 9.5464 20.3427 9.8464V18.0564C20.3427 18.3764 20.1527 18.5764 19.8227 18.5764H8.0627C7.7527 18.5764 7.5427 18.3764 7.5427 18.0564ZM8.4627 16.4164L9.9827 15.0264C10.2127 14.8364 10.4627 14.7064 10.7327 14.7064C11.0027 14.7064 11.2927 14.8364 11.5227 15.0364L12.4727 15.8864L14.8327 13.7364C15.0927 13.5264 15.3827 13.4264 15.7227 13.4264C16.0227 13.4264 16.3427 13.5464 16.5827 13.7664L19.4327 16.4364V10.3064C19.4327 10.2364 19.4427 10.2364 19.3827 10.2364H8.5027C8.4727 10.2364 8.4627 10.2364 8.4627 10.3064ZM10.2027 12.6364C10.2027 11.8664 10.8127 11.2564 11.5827 11.2564C12.3427 11.2564 12.9627 11.8664 12.9627 12.6364C12.9627 13.3864 12.3427 13.9964 11.5827 13.9964C10.8127 13.9964 10.2027 13.3864 10.2027 12.6364Z"
        fillRule="evenodd"
        clipRule="evenodd"
    />
</svg>
        