<svg viewBox="0 0 27.890625 27.890625" xmlns="http://www.w3.org/2000/svg"><path d="M13.9427 27.8864C21.6427 27.8864 27.8927 21.6264 27.8927 13.9464C27.8927 6.2464 21.6427 -0.0036 13.9427 -0.0036C6.2627 -0.0036 0.0027 6.2464 0.0027 13.9464C0.0027 21.6264 6.2627 27.8864 13.9427 27.8864ZM8.0527 20.2164C6.6627 20.2164 5.9327 19.5064 5.9327 18.1164V9.8264C5.9327 8.4364 6.6627 7.7364 8.0527 7.7364H19.8127C21.2227 7.7364 21.9327 8.4364 21.9327 9.8264V18.1164C21.9327 19.4964 21.2227 20.2164 19.8127 20.2164ZM11.0227 14.1464C11.9327 14.1464 12.6827 13.3964 12.6827 12.4664C12.6827 11.5564 11.9327 10.7964 11.0227 10.7964C10.0927 10.7964 9.3427 11.5564 9.3427 12.4664C9.3427 13.3964 10.0927 14.1464 11.0227 14.1464ZM8.1027 18.9364H19.7527C20.3127 18.9364 20.6427 18.5964 20.6427 18.0464V16.8164L17.7227 14.1464C17.4027 13.8664 17.0127 13.6964 16.6427 13.7164C16.2427 13.6964 15.8727 13.8664 15.5427 14.1464L12.3227 17.0264L11.0027 15.8464C10.7027 15.5864 10.3627 15.4464 10.0327 15.4464C9.7327 15.4464 9.4027 15.5864 9.1027 15.8364L7.2227 17.4364V18.0464C7.2227 18.5964 7.5427 18.9364 8.1027 18.9364Z" /></svg>