
<svg
    viewBox="0 0 34.015625 27.69921875"
    xmlns="http://www.w3.org/2000/svg"
>
    <path
        fill="inherit"
        d="M4.2937 21.3707H6.7537V23.4607C6.7537 26.2907 8.1737 27.7007 11.0437 27.7007H29.7237C32.5637 27.7007 34.0137 26.2807 34.0137 23.4607V10.5707C34.0137 7.7507 32.5637 6.3307 29.7237 6.3307H27.2637V4.2407C27.2637 1.4207 25.8137 0.0007 22.9737 0.0007H4.2937C1.4237 0.0007 0.0037 1.4207 0.0037 4.2407V17.1307C0.0037 19.9607 1.4237 21.3707 4.2937 21.3707ZM4.3237 19.1707C2.9537 19.1707 2.2037 18.4407 2.2037 17.0207V4.3607C2.2037 2.9407 2.9537 2.2007 4.3237 2.2007H22.9237C24.2837 2.2007 25.0637 2.9407 25.0637 4.3607V6.3307H11.0437C8.1737 6.3307 6.7537 7.7507 6.7537 10.5707V19.1707ZM8.9537 10.6907C8.9537 9.2707 9.7037 8.5307 11.0737 8.5307H29.6837C31.0337 8.5307 31.8137 9.2707 31.8137 10.6907V21.3407L26.7037 16.5107C26.1637 16.0207 25.5137 15.7807 24.8537 15.7807C24.1737 15.7807 23.5737 16.0007 23.0137 16.5007L17.4837 21.4007L15.2837 19.4107C14.7637 18.9307 14.2037 18.7207 13.6137 18.7207C13.0837 18.7207 12.5737 18.9307 12.0437 19.3907L8.9537 22.0807ZM16.5037 16.8207C18.0837 16.8207 19.3837 15.4907 19.3837 13.8907C19.3837 12.3207 18.0837 10.9907 16.5037 10.9907C14.9037 10.9907 13.6037 12.3207 13.6037 13.8907C13.6037 15.4907 14.9037 16.8207 16.5037 16.8207Z"
        fillRule="evenodd"
        clipRule="evenodd"
    />
</svg>
        