
<svg
    viewBox={0 0 32.359622540465274 28.299075665465274}
    xmlns="http://www.w3.org/2000/svg"
>
    <path
        fill="inherit"
        d="M1.9438 20.697C4.5538 23.277 7.9538 23.297 10.5238 20.727L20.7238 10.527C23.2938 7.957 23.2938 4.507 20.6938 1.937C18.1038 -0.643 14.6838 -0.643 12.1138 1.927L1.9238 12.107C-0.6462 14.677 -0.6462 18.127 1.9438 20.697ZM13.5338 3.637C15.2338 1.927 17.4938 1.867 19.1238 3.507C20.7638 5.157 20.7138 7.407 19.0038 9.117L14.8638 13.257L9.3738 7.787ZM3.5138 19.127C1.8838 17.497 1.9438 15.227 3.6338 13.537L7.8038 9.367L13.2838 14.837L9.1138 19.007C7.4038 20.707 5.1538 20.767 3.5138 19.127ZM24.8838 28.297C29.0238 28.297 32.3638 24.967 32.3638 20.837C32.3638 16.747 29.0138 13.397 24.8838 13.397C20.7838 13.397 17.4338 16.747 17.4338 20.837C17.4338 24.947 20.7838 28.297 24.8838 28.297ZM24.8838 15.597C27.4138 15.597 29.5338 17.377 30.0338 19.727H19.7538C20.2638 17.377 22.3838 15.597 24.8838 15.597ZM24.8838 26.097C22.3638 26.097 20.2638 24.317 19.7538 21.957H30.0338C29.5338 24.337 27.4238 26.097 24.8838 26.097Z"
        fillRule="evenodd"
        clipRule="evenodd"
    />
</svg>
        