
<svg
    viewBox={0 0 27.890625 27.890625}
    xmlns="http://www.w3.org/2000/svg"
>
    <path
        fill="inherit"
        d="M13.9427 27.8927C21.6427 27.8927 27.8927 21.6427 27.8927 13.9427C27.8927 6.2627 21.6427 0.0027 13.9427 0.0027C6.2627 0.0027 0.0027 6.2627 0.0027 13.9427C0.0027 21.6427 6.2627 27.8927 13.9427 27.8927ZM13.7527 14.0427L9.4027 9.6927L11.6727 7.3927C13.0427 6.0327 14.8027 6.0027 16.1327 7.3327C17.4627 8.6127 17.4427 10.4027 16.0627 11.7627ZM12.9427 14.8727L10.6327 17.1727C9.2727 18.5227 7.5227 18.5627 6.1927 17.2627C4.8927 15.9527 4.9327 14.1927 6.3027 12.8227L8.5827 10.5027ZM22.1727 16.7027H14.5427C14.8227 14.8727 16.4227 13.4227 18.3427 13.4227C20.3027 13.4227 21.9127 14.8727 22.1727 16.7027ZM22.1727 17.8527C21.9127 19.6827 20.3127 21.1327 18.3427 21.1327C16.4027 21.1327 14.8227 19.6827 14.5427 17.8527Z"
        fillRule="evenodd"
        clipRule="evenodd"
    />
</svg>
        