
<svg
    viewBox={0 0 27.890625 27.890625}
    xmlns="http://www.w3.org/2000/svg"
>
    <path
        fill="inherit"
        d="M13.9427 27.8864C21.6427 27.8864 27.8927 21.6464 27.8927 13.9464C27.8927 6.2464 21.6427 -0.0036 13.9427 -0.0036C6.2527 -0.0036 0.0027 6.2464 0.0027 13.9464C0.0027 21.6464 6.2527 27.8864 13.9427 27.8864ZM13.9427 25.5664C7.5227 25.5664 2.3227 20.3664 2.3227 13.9464C2.3227 7.5164 7.5227 2.3264 13.9427 2.3264C20.3727 2.3264 25.5627 7.5164 25.5627 13.9464C25.5627 20.3664 20.3727 25.5664 13.9427 25.5664ZM19.8227 8.0664C18.2427 6.5064 16.1627 6.5064 14.5627 8.1364L11.7427 10.9464L16.9127 16.1364L19.7427 13.3164C21.3827 11.6864 21.4127 9.5864 19.8227 8.0664ZM8.0427 19.8564C9.6127 21.3864 11.7027 21.3564 13.3127 19.7264L16.1327 16.9164L10.9627 11.7464L8.1527 14.5764C6.5227 16.2164 6.4927 18.2964 8.0427 19.8564Z"
        fillRule="evenodd"
        clipRule="evenodd"
    />
</svg>
        