
<svg
    viewBox="0 0 32.21001867274974 27.46952624084051"
    xmlns="http://www.w3.org/2000/svg"
>
    <path
        fill="inherit"
        d="M15.7945 14.3333L20.0845 10.0333C22.6445 7.4933 22.6845 4.2033 20.2445 1.7833C17.8045 -0.6567 14.5145 -0.5867 11.9845 1.9433L7.6945 6.2333ZM14.3545 15.7833L6.2445 7.6733L1.9545 11.9833C-0.6055 14.5233 -0.6455 17.8133 1.7945 20.2333C4.2345 22.6733 7.5145 22.6133 10.0445 20.0833ZM32.2145 19.2933C31.7345 15.8233 28.7345 13.1233 25.1145 13.1233C21.4945 13.1233 18.5145 15.8233 18.0345 19.2933ZM32.2145 21.2933H18.0345C18.5245 24.7733 21.4945 27.4733 25.1145 27.4733C28.7645 27.4733 31.7345 24.7733 32.2145 21.2933Z"
        fillRule="evenodd"
        clipRule="evenodd"
    />
</svg>
        