
<svg
    viewBox="0 0 27.02636024444047 27.01975484423999"
    xmlns="http://www.w3.org/2000/svg"
>
    <path
        fill="inherit"
        d="M2.14 24.8821C5.04 27.7721 9.1 27.7921 12.31 24.5821L24.6 12.2921C27.8 9.0921 27.77 5.0321 24.89 2.1321C21.99 -0.7479 17.93 -0.7679 14.73 2.4321L2.44 14.7121C-0.77 17.9221 -0.75 21.9821 2.14 24.8821ZM16.27 4.0021C18.49 1.7721 21.37 1.5321 23.45 3.5821C25.52 5.6221 25.28 8.5021 23.01 10.7621L17.63 16.1421L10.87 9.4021ZM3.59 23.4421C1.52 21.3921 1.78 18.5221 4.01 16.2721L9.42 10.8521L16.18 17.6121L10.76 23.0221C8.55 25.2421 5.65 25.5021 3.59 23.4421Z"
        fillRule="evenodd"
        clipRule="evenodd"
    />
</svg>
        