<svg viewBox="0 0 27.890625 27.890625" xmlns="http://www.w3.org/2000/svg"><path d="M13.9427 27.8927C21.6427 27.8927 27.8927 21.6427 27.8927 13.9427C27.8927 6.2627 21.6427 0.0027 13.9427 0.0027C6.2627 0.0027 0.0027 6.2627 0.0027 13.9427C0.0027 21.6427 6.2627 27.8927 13.9427 27.8927ZM20.0027 7.8927C21.6427 9.4627 21.6127 11.6227 19.9227 13.3027L17.0127 16.2127L11.6727 10.8727L14.5727 7.9727C16.2327 6.2727 18.3727 6.2927 20.0027 7.8927ZM7.8627 20.0327C6.2627 18.4427 6.2927 16.2827 7.9727 14.6027L10.8727 11.6927L16.2027 17.0127L13.3027 19.9227C11.6327 21.5927 9.4727 21.6127 7.8627 20.0327Z" /></svg>