
<svg
    viewBox="0 0 25.169921875 25.169921875"
    xmlns="http://www.w3.org/2000/svg"
>
    <path
        fill="inherit"
        d="M4.2937 25.1692H20.8737C23.7437 25.1692 25.1737 23.7592 25.1737 20.9492V4.2392C25.1737 1.4192 23.7437 -0.0008 20.8737 -0.0008H4.2937C1.4337 -0.0008 0.0037 1.4192 0.0037 4.2392V20.9492C0.0037 23.7592 1.4337 25.1692 4.2937 25.1692ZM4.3237 22.9692C2.9537 22.9692 2.2037 22.2392 2.2037 20.8192V4.3592C2.2037 2.9392 2.9537 2.1992 4.3237 2.1992H20.8537C22.2037 2.1992 22.9737 2.9392 22.9737 4.3592V20.8192C22.9737 22.2392 22.2037 22.9692 20.8537 22.9692ZM7.2237 15.1792C7.2237 15.7792 7.6137 16.1492 8.2337 16.1492H11.7537V18.5892C11.7537 20.0792 12.3637 21.3192 12.6037 21.3192C12.8537 21.3192 13.4537 20.0792 13.4537 18.5892V16.1492H16.9837C17.6137 16.1492 17.9937 15.7792 17.9937 15.1792C17.9937 13.7292 16.8137 12.1692 14.8737 11.4692L14.6437 8.2592C15.6437 7.6992 16.4637 7.0592 16.8337 6.5892C17.0037 6.3392 17.1037 6.0992 17.1037 5.8792C17.1037 5.4592 16.7737 5.1592 16.2837 5.1592H8.9237C8.4337 5.1592 8.1037 5.4592 8.1037 5.8792C8.1037 6.0992 8.2037 6.3592 8.4037 6.5992C8.7737 7.0692 9.5837 7.7092 10.5637 8.2592L10.3537 11.4692C8.3937 12.1692 7.2237 13.7292 7.2237 15.1792Z"
        fillRule="evenodd"
        clipRule="evenodd"
    />
</svg>
        