
<svg
    viewBox={0 0 26.819112806155378 31.869140625}
    xmlns="http://www.w3.org/2000/svg"
>
    <path
        fill="inherit"
        d="M5.0648 1.445C5.0648 1.845 5.2348 2.315 5.5848 2.775C6.2848 3.705 7.9448 4.995 9.6648 6.125L9.5548 7.625L11.5748 9.655L11.8548 5.115C11.8648 4.925 11.8348 4.855 11.6948 4.785C9.6448 3.735 8.0648 2.485 7.9548 2.215C7.8448 2.035 7.9548 1.925 8.1048 1.925H19.7948C19.9448 1.925 20.0548 2.035 19.9448 2.215C19.8348 2.485 18.2448 3.735 16.1948 4.785C16.0748 4.855 16.0348 4.925 16.0648 5.115L16.4748 11.895C15.6648 11.735 14.8348 11.645 13.9548 11.645H13.5848L15.7048 13.795C19.4948 14.175 22.2648 17.265 22.2648 19.455C22.2648 19.525 22.2648 19.595 22.2648 19.665L23.7448 21.355C24.1948 21.085 24.5648 20.525 24.5648 19.725C24.5648 16.845 22.2548 13.935 18.6848 12.535L18.2348 6.125C19.9748 4.995 21.6148 3.705 22.3048 2.775C22.6748 2.315 22.8448 1.845 22.8448 1.445C22.8448 0.615 22.1948 -0.005 21.2448 -0.005H6.6648C5.6948 -0.005 5.0648 0.615 5.0648 1.445ZM0.2948 3.775L25.0148 28.465C25.4448 28.875 26.1148 28.875 26.5048 28.465C26.9148 28.055 26.9348 27.385 26.5048 26.975L1.8048 2.285C1.3948 1.875 0.7048 1.855 0.2948 2.285C-0.0952 2.675 -0.0952 3.365 0.2948 3.775ZM3.3348 19.725C3.3348 20.895 4.1148 21.655 5.3448 21.655H12.7348V28.045C12.7348 30.135 13.6148 31.865 13.9548 31.865C14.2848 31.865 15.1548 30.135 15.1548 28.045V21.825H15.9348L13.7048 19.595H5.8848C5.5748 19.595 5.4348 19.415 5.4948 19.045C5.6548 17.515 6.9448 15.885 8.9648 14.845L7.5348 13.415C4.9448 14.925 3.3348 17.325 3.3348 19.725Z"
        fillRule="evenodd"
        clipRule="evenodd"
    />
</svg>
        