
<svg
    viewBox={0 0 27.890625 27.890625}
    xmlns="http://www.w3.org/2000/svg"
>
    <path
        fill="inherit"
        d="M13.9427 27.8927C21.6427 27.8927 27.8927 21.6427 27.8927 13.9427C27.8927 6.2627 21.6427 0.0027 13.9427 0.0027C6.2627 0.0027 0.0027 6.2627 0.0027 13.9427C0.0027 21.6427 6.2627 27.8927 13.9427 27.8927ZM8.4127 16.6127C8.4127 15.1027 9.6127 13.4927 11.6227 12.7827L11.8527 9.4727C10.8427 8.9027 9.9927 8.2427 9.6227 7.7627C9.4227 7.5027 9.3127 7.2427 9.3127 7.0127C9.3127 6.5727 9.6527 6.2627 10.1627 6.2627H17.7627C18.2627 6.2627 18.6027 6.5727 18.6027 7.0127C18.6027 7.2427 18.5027 7.5027 18.3027 7.7527C17.9327 8.2327 17.0927 8.9027 16.0627 9.4727L16.2827 12.7827C18.3027 13.4927 19.5127 15.1027 19.5127 16.6127C19.5127 17.2227 19.1027 17.6227 18.4727 17.6227H14.8327V20.1227C14.8327 21.6527 14.2227 22.9427 13.9627 22.9427C13.7027 22.9427 13.0827 21.6527 13.0827 20.1227V17.6227H9.4327C8.8027 17.6227 8.4127 17.2227 8.4127 16.6127Z"
        fillRule="evenodd"
        clipRule="evenodd"
    />
</svg>
        