
<svg
    viewBox="0 0 21.232421875 31.869140625"
    xmlns="http://www.w3.org/2000/svg"
>
    <path
        fill="inherit"
        d="M2.0123 21.655H9.4023V28.045C9.4023 30.135 10.2823 31.865 10.6223 31.865C10.9523 31.865 11.8223 30.135 11.8223 28.045V21.655H19.2223C20.4523 21.655 21.2323 20.895 21.2323 19.725C21.2323 16.845 18.9223 13.945 15.3523 12.535L14.9023 6.125C16.6423 4.995 18.2823 3.705 18.9723 2.775C19.3423 2.315 19.5123 1.845 19.5123 1.445C19.5123 0.615 18.8623 -0.005 17.9123 -0.005H3.3323C2.3623 -0.005 1.7323 0.615 1.7323 1.445C1.7323 1.845 1.9023 2.315 2.2523 2.775C2.9523 3.705 4.6123 4.995 6.3323 6.125L5.8823 12.535C2.3123 13.945 0.0023 16.845 0.0023 19.725C0.0023 20.895 0.7823 21.655 2.0123 21.655ZM10.6223 11.645C9.7523 11.645 8.9023 11.735 8.1123 11.895L8.5223 5.115C8.5323 4.925 8.5023 4.855 8.3623 4.785C6.3123 3.735 4.7323 2.485 4.6223 2.215C4.5123 2.035 4.6223 1.925 4.7723 1.925H16.4623C16.6123 1.925 16.7223 2.035 16.6123 2.215C16.5023 2.485 14.9123 3.735 12.8623 4.785C12.7423 4.855 12.7023 4.925 12.7323 5.115L13.1423 11.895C12.3323 11.735 11.5023 11.645 10.6223 11.645ZM2.5523 19.595C2.2423 19.595 2.1023 19.415 2.1623 19.045C2.4623 16.585 5.6023 13.645 10.6223 13.645C15.6223 13.645 18.7723 16.585 19.0723 19.045C19.1223 19.415 18.9923 19.595 18.6723 19.595Z"
        fillRule="evenodd"
        clipRule="evenodd"
    />
</svg>
        