
<svg
    viewBox="0 0 27.890625 27.890625"
    xmlns="http://www.w3.org/2000/svg"
>
    <path
        fill="inherit"
        d="M13.9427 27.8864C21.6427 27.8864 27.8927 21.6464 27.8927 13.9464C27.8927 6.2464 21.6427 -0.0036 13.9427 -0.0036C6.2527 -0.0036 0.0027 6.2464 0.0027 13.9464C0.0027 21.6464 6.2527 27.8864 13.9427 27.8864ZM13.9427 25.5664C7.5227 25.5664 2.3227 20.3664 2.3227 13.9464C2.3227 7.5164 7.5227 2.3264 13.9427 2.3264C20.3727 2.3264 25.5627 7.5164 25.5627 13.9464C25.5627 20.3664 20.3727 25.5664 13.9427 25.5664ZM8.5627 16.5464C8.5627 17.1464 8.9427 17.5164 9.5527 17.5164H13.0927V19.9564C13.0927 21.4464 13.7027 22.6864 13.9427 22.6864C14.1927 22.6864 14.7927 21.4464 14.7927 19.9564V17.5164H18.3227C18.9327 17.5164 19.3327 17.1464 19.3327 16.5464C19.3327 15.0964 18.1527 13.5364 16.2027 12.8364L15.9827 9.6264C16.9827 9.0664 17.8027 8.4264 18.1527 7.9564C18.3427 7.7064 18.4427 7.4664 18.4427 7.2464C18.4427 6.8264 18.1127 6.5264 17.6227 6.5264H10.2627C9.7727 6.5264 9.4427 6.8264 9.4427 7.2464C9.4427 7.4664 9.5427 7.7264 9.7527 7.9664C10.1027 8.4364 10.9227 9.0764 11.9127 9.6264L11.6727 12.8364C9.7327 13.5364 8.5627 15.0964 8.5627 16.5464Z"
        fillRule="evenodd"
        clipRule="evenodd"
    />
</svg>
        