<svg viewBox="0 0 25.169921875 25.169921875" xmlns="http://www.w3.org/2000/svg"><path d="M4.2937 25.1692H20.8737C23.7437 25.1692 25.1737 23.7592 25.1737 20.9492V4.2392C25.1737 1.4192 23.7437 -0.0008 20.8737 -0.0008H4.2937C1.4337 -0.0008 0.0037 1.4192 0.0037 4.2392V20.9492C0.0037 23.7592 1.4337 25.1692 4.2937 25.1692ZM7.0537 15.2292C7.0537 13.7392 8.2537 12.1292 10.2837 11.4192L10.5037 8.1092C9.4837 7.5292 8.6537 6.8792 8.2737 6.3992C8.0637 6.1392 7.9537 5.8792 7.9537 5.6492C7.9537 5.2092 8.3037 4.8992 8.8037 4.8992H16.4037C16.9137 4.8992 17.2537 5.2092 17.2537 5.6492C17.2537 5.8792 17.1437 6.1292 16.9637 6.3892C16.5837 6.8592 15.7337 7.5192 14.7137 8.1092L14.9437 11.4192C16.9537 12.1292 18.1537 13.7392 18.1537 15.2292C18.1537 15.8592 17.7637 16.2392 17.1137 16.2392H13.4837V18.7592C13.4837 20.2892 12.8637 21.5592 12.6037 21.5592C12.3437 21.5592 11.7337 20.2892 11.7337 18.7592V16.2392H8.0937C7.4637 16.2392 7.0537 15.8592 7.0537 15.2292Z" /></svg>