
<svg
    viewBox={0 0 26.819112806155378 31.869140625}
    xmlns="http://www.w3.org/2000/svg"
>
    <path
        fill="inherit"
        d="M6.6648 -0.005C5.6948 -0.005 5.0648 0.615 5.0648 1.445C5.0648 1.845 5.2148 2.295 5.5748 2.765C6.2748 3.695 7.9248 4.995 9.9348 6.125L9.8148 7.915L23.4148 21.505C24.1448 21.215 24.5648 20.585 24.5648 19.725C24.5648 16.845 22.2548 13.795 18.4148 12.405L17.9648 6.125C19.9548 4.995 21.5848 3.715 22.2948 2.805C22.6648 2.325 22.8448 1.855 22.8448 1.445C22.8448 0.615 22.1948 -0.005 21.2448 -0.005ZM0.2948 3.775L25.0148 28.465C25.4448 28.875 26.1148 28.875 26.5048 28.465C26.9148 28.055 26.9348 27.385 26.5048 26.975L1.8048 2.285C1.3948 1.875 0.7048 1.855 0.2948 2.285C-0.0952 2.675 -0.0952 3.365 0.2948 3.775ZM3.3348 19.725C3.3348 20.895 4.1148 21.655 5.3448 21.655H12.7348V28.045C12.7348 30.135 13.6148 31.865 13.9548 31.865C14.2848 31.865 15.1548 30.135 15.1548 28.045V21.845H15.9548L7.5348 13.395C4.8948 14.945 3.3348 17.375 3.3348 19.725Z"
        fillRule="evenodd"
        clipRule="evenodd"
    />
</svg>
        