
<svg
    viewBox="0 0 35.423828125 28.642578125"
    xmlns="http://www.w3.org/2000/svg"
>
    <path
        fill="inherit"
        d="M4.2937 22.3119H13.4137V24.4019C13.4137 27.2219 14.8437 28.6419 17.7037 28.6419H31.1437C33.9837 28.6419 35.4237 27.2219 35.4237 24.4019V15.5419C35.4237 12.7319 33.9837 11.3019 31.1437 11.3019H28.5237V4.2419C28.5237 1.4219 27.0837 0.0019 24.2437 0.0019H4.2937C1.4237 0.0019 0.0037 1.4219 0.0037 4.2419V18.0719C0.0037 20.8919 1.4237 22.3119 4.2937 22.3119ZM4.3237 20.1119C2.9537 20.1119 2.2037 19.3719 2.2037 17.9519V4.3619C2.2037 2.9419 2.9537 2.2019 4.3237 2.2019H24.2037C25.5537 2.2019 26.3137 2.9419 26.3137 4.3619V11.3019H17.7037C14.8437 11.3019 13.4137 12.7119 13.4137 15.5419V20.1119ZM5.2237 10.2719C5.2737 10.6819 5.8137 11.1419 6.3437 10.6119L7.8637 9.1019L10.0937 11.3519C10.4137 11.6719 10.9637 11.6719 11.2937 11.3519C11.6237 11.0219 11.6237 10.4719 11.2937 10.1419L9.0537 7.9019L10.5537 6.3819C11.0837 5.8619 10.6337 5.3319 10.2137 5.2819L5.2737 4.5119C5.0337 4.4719 4.8137 4.5519 4.6437 4.7019C4.4937 4.8519 4.4137 5.0819 4.4537 5.3219Z"
        fillRule="evenodd"
        clipRule="evenodd"
    />
</svg>
        