
<svg
    viewBox="0 0 35.423828125 28.642578125"
    xmlns="http://www.w3.org/2000/svg"
>
    <path
        fill="inherit"
        d="M4.2937 22.3119H13.4137V24.4019C13.4137 27.2219 14.8437 28.6419 17.7037 28.6419H31.1437C33.9837 28.6419 35.4237 27.2219 35.4237 24.4019V15.5419C35.4237 12.7319 33.9837 11.3019 31.1437 11.3019H28.5237V4.2419C28.5237 1.4219 27.0837 0.0019 24.2437 0.0019H4.2937C1.4237 0.0019 0.0037 1.4219 0.0037 4.2419V18.0719C0.0037 20.8919 1.4237 22.3119 4.2937 22.3119ZM4.3237 20.1119C2.9537 20.1119 2.2037 19.3719 2.2037 17.9519V4.3619C2.2037 2.9419 2.9537 2.2019 4.3237 2.2019H24.2037C25.5537 2.2019 26.3137 2.9419 26.3137 4.3619V11.3019H17.7037C14.8437 11.3019 13.4137 12.7119 13.4137 15.5419V20.1119ZM20.7037 24.7919C20.0937 24.7919 19.6037 24.2919 19.6037 23.6819C19.6037 23.3919 19.7437 23.1319 19.9337 22.9319L22.8737 19.9719L19.9337 17.0219C19.7437 16.8019 19.6037 16.5519 19.6037 16.2519C19.6037 15.6519 20.0937 15.1719 20.7037 15.1719C21.0137 15.1719 21.2437 15.3019 21.4637 15.5019L24.4137 18.4419L27.3937 15.4919C27.6337 15.2719 27.8637 15.1519 28.1537 15.1519C28.7637 15.1519 29.2537 15.6419 29.2537 16.2419C29.2537 16.5419 29.1437 16.7719 28.9137 17.0119L25.9737 19.9719L28.9037 22.9119C29.1237 23.1219 29.2437 23.3819 29.2437 23.6819C29.2437 24.2919 28.7537 24.7919 28.1337 24.7919C27.8237 24.7919 27.5637 24.6619 27.3537 24.4619L24.4137 21.5219L21.4937 24.4619C21.2837 24.6819 21.0137 24.7919 20.7037 24.7919Z"
        fillRule="evenodd"
        clipRule="evenodd"
    />
</svg>
        