
<svg
    viewBox={0 0 35.423828125 28.642578125}
    xmlns="http://www.w3.org/2000/svg"
>
    <path
        fill="inherit"
        d="M4.2937 22.3119H13.4137V24.4019C13.4137 27.2219 14.8437 28.6419 17.7037 28.6419H31.1437C33.9837 28.6419 35.4237 27.2219 35.4237 24.4019V15.5419C35.4237 12.7319 33.9837 11.3019 31.1437 11.3019H28.5237V4.2419C28.5237 1.4219 27.0837 0.0019 24.2437 0.0019H4.2937C1.4237 0.0019 0.0037 1.4219 0.0037 4.2419V18.0719C0.0037 20.8919 1.4237 22.3119 4.2937 22.3119ZM4.3237 20.1119C2.9537 20.1119 2.2037 19.3719 2.2037 17.9519V4.3619C2.2037 2.9419 2.9537 2.2019 4.3237 2.2019H24.2037C25.5537 2.2019 26.3137 2.9419 26.3137 4.3619V11.3019H17.7037C14.8437 11.3019 13.4137 12.7119 13.4137 15.5419V20.1119ZM10.7637 5.8219C10.7037 5.4019 10.1737 4.9319 9.6437 5.4819L8.1237 6.9819L5.8937 4.7419C5.5637 4.4119 5.0137 4.4119 4.6937 4.7419C4.3637 5.0719 4.3637 5.6219 4.6937 5.9519L6.9337 8.1719L5.4237 9.6919C4.8837 10.2219 5.3437 10.7619 5.7737 10.8119L10.7037 11.5819C10.9537 11.6219 11.1737 11.5419 11.3337 11.3919C11.4837 11.2219 11.5637 11.0019 11.5237 10.7619Z"
        fillRule="evenodd"
        clipRule="evenodd"
    />
</svg>
        