
<svg
    viewBox="0 0 35.423828125 28.642578125"
    xmlns="http://www.w3.org/2000/svg"
>
    <path
        fill="inherit"
        d="M4.2937 22.3119H13.4137V24.4019C13.4137 27.2219 14.8437 28.6419 17.7037 28.6419H31.1437C33.9837 28.6419 35.4237 27.2219 35.4237 24.4019V15.5419C35.4237 12.7319 33.9837 11.3019 31.1437 11.3019H28.5237V4.2419C28.5237 1.4219 27.0837 0.0019 24.2437 0.0019H4.2937C1.4237 0.0019 0.0037 1.4219 0.0037 4.2419V18.0719C0.0037 20.8919 1.4237 22.3119 4.2937 22.3119ZM4.3237 20.1119C2.9537 20.1119 2.2037 19.3719 2.2037 17.9519V4.3619C2.2037 2.9419 2.9537 2.2019 4.3237 2.2019H24.2037C25.5537 2.2019 26.3137 2.9419 26.3137 4.3619V11.3019H17.7037C14.8437 11.3019 13.4137 12.7119 13.4137 15.5419V20.1119ZM17.7337 26.4419C16.3637 26.4419 15.6137 25.7019 15.6137 24.2819V15.6519C15.6137 14.2319 16.3637 13.5119 17.7337 13.5119H31.1037C32.4537 13.5119 33.2237 14.2319 33.2237 15.6519V24.2819C33.2237 25.7019 32.4537 26.4419 31.1037 26.4419Z"
        fillRule="evenodd"
        clipRule="evenodd"
    />
</svg>
        