<svg viewBox="0 0 35.423828125 28.642578125" xmlns="http://www.w3.org/2000/svg"><path d="M17.7037 9.4319H28.5237V4.2419C28.5237 1.4219 27.0837 0.0019 24.2437 0.0019H4.2937C1.4237 0.0019 0.0037 1.4219 0.0037 4.2419V18.0719C0.0037 20.8919 1.4237 22.3119 4.2937 22.3119H11.5437V15.5419C11.5437 11.6919 13.8037 9.4319 17.7037 9.4319ZM17.7037 28.6419H31.1437C33.9837 28.6419 35.4237 27.2219 35.4237 24.4019V15.5419C35.4237 12.7319 33.9837 11.3019 31.1437 11.3019H17.7037C14.8437 11.3019 13.4137 12.7119 13.4137 15.5419V24.4019C13.4137 27.2219 14.8437 28.6419 17.7037 28.6419Z" /></svg>