
<svg
    viewBox={0 0 33.00390625 26.181640625}
    xmlns="http://www.w3.org/2000/svg"
>
    <path
        fill="inherit"
        d="M2.8037 14.6251H4.5237C6.3837 14.6251 7.3137 13.7251 7.3137 11.9051V11.3351H12.0337L13.0937 9.3351H7.3137V5.2051H25.6937V9.3351H19.9337L21.0137 11.3351H25.6937V11.9051C25.6937 13.7251 26.6237 14.6251 28.4937 14.6251H30.2037C32.0837 14.6251 33.0037 13.7251 33.0037 11.9051V2.7251C33.0037 0.9051 32.0837 -0.0049 30.2037 -0.0049H28.4937C26.6237 -0.0049 25.6937 0.9051 25.6937 2.7251V3.2151H7.3137V2.7251C7.3137 0.9051 6.3837 -0.0049 4.5237 -0.0049H2.8037C0.9337 -0.0049 0.0037 0.9051 0.0037 2.7251V11.9051C0.0037 13.7251 0.9337 14.6251 2.8037 14.6251ZM2.8037 12.5651C2.3137 12.5651 2.0637 12.3151 2.0637 11.8151V2.8151C2.0637 2.3151 2.3137 2.0651 2.8037 2.0651H4.5237C5.0037 2.0651 5.2537 2.3151 5.2537 2.8151V11.8151C5.2537 12.3151 5.0037 12.5651 4.5237 12.5651ZM28.4937 12.5651C28.0037 12.5651 27.7537 12.3151 27.7537 11.8151V2.8151C27.7537 2.3151 28.0037 2.0651 28.4937 2.0651H30.2037C30.6937 2.0651 30.9437 2.3151 30.9437 2.8151V11.8151C30.9437 12.3151 30.6937 12.5651 30.2037 12.5651ZM16.5137 26.1851C19.9237 26.1851 22.6237 23.5251 22.6237 20.2051C22.6237 18.3851 21.7137 16.5851 20.9437 15.1651L17.8737 9.4351C17.5137 8.7751 17.1137 8.4751 16.5137 8.4751C15.9137 8.4751 15.5137 8.7751 15.1637 9.4151L12.1037 15.1651C11.3337 16.5851 10.4137 18.3851 10.4137 20.2051C10.4137 23.5251 13.1237 26.1851 16.5137 26.1851ZM16.5137 24.2451C14.2037 24.2451 12.3637 22.4651 12.3637 20.2051C12.3637 18.8251 13.0537 17.4951 13.8237 16.0651L16.3837 11.2951C16.4637 11.1551 16.5937 11.1551 16.6837 11.2951L19.2237 16.0651C19.9737 17.4951 20.6837 18.8251 20.6837 20.2051C20.6837 22.4651 18.8437 24.2451 16.5137 24.2451Z"
        fillRule="evenodd"
        clipRule="evenodd"
    />
</svg>
        