
<svg
    viewBox="0 0 17.568359375 28.943359375"
    xmlns="http://www.w3.org/2000/svg"
>
    <path
        fill="inherit"
        d="M0.0037 25.3896C0.0037 27.5196 1.4937 28.9396 3.7237 28.9396H13.8537C16.0737 28.9396 17.5637 27.5196 17.5637 25.3896V3.5596C17.5637 1.4196 16.0737 -0.0004 13.8537 -0.0004H3.7237C1.4937 -0.0004 0.0037 1.4196 0.0037 3.5596ZM2.2037 25.0296V3.9096C2.2037 2.8196 2.8437 2.1996 4.0037 2.1996H13.5737C14.7237 2.1996 15.3637 2.8196 15.3637 3.9096V25.0296C15.3637 26.1296 14.7237 26.7396 13.5737 26.7396H4.0037C2.8437 26.7396 2.2037 26.1296 2.2037 25.0296ZM5.1437 16.1196C5.1437 16.3096 5.1837 16.4996 5.3137 16.6396L8.2137 19.5096C8.3837 19.6696 8.5837 19.7696 8.7937 19.7696C8.9837 19.7696 9.1837 19.6696 9.3537 19.5096L12.2537 16.6396C12.3837 16.4996 12.4437 16.3096 12.4437 16.1196C12.4437 15.6796 12.1437 15.3896 11.7137 15.3896C11.4937 15.3796 11.3337 15.4796 11.1837 15.6096L10.2237 16.5696L9.4737 17.5096L9.5337 15.7596V11.9096C9.5337 11.4796 9.2237 11.1696 8.7937 11.1696C8.3537 11.1696 8.0437 11.4796 8.0437 11.9096V15.7596L8.1037 17.5096L7.3537 16.5696L6.3837 15.6096C6.2337 15.4796 6.0737 15.3796 5.8537 15.3896C5.4437 15.3896 5.1437 15.6796 5.1437 16.1196ZM5.1637 25.0096H12.4137C13.1437 25.0096 13.6337 24.5096 13.6337 23.7596V22.1396C13.6337 21.3696 13.1437 20.8896 12.4137 20.8896H5.1637C4.4337 20.8896 3.9537 21.3696 3.9537 22.1396V23.7596C3.9537 24.5096 4.4337 25.0096 5.1637 25.0096Z"
        fillRule="evenodd"
        clipRule="evenodd"
    />
</svg>
        