
<svg
    viewBox={0 0 22.845703125 30.802734375}
    xmlns="http://www.w3.org/2000/svg"
>
    <path
        fill="inherit"
        d="M0.0037 27.1893C0.0037 29.3493 1.5137 30.7993 3.7837 30.7993H19.0537C21.3237 30.7993 22.8437 29.3493 22.8437 27.1893V3.6193C22.8437 1.4593 21.3237 -0.0007 19.0537 -0.0007H3.7837C1.5137 -0.0007 0.0037 1.4593 0.0037 3.6193ZM2.2037 26.8193V3.9893C2.2037 2.8693 2.8837 2.1993 4.0637 2.1993H18.7837C19.9437 2.1993 20.6437 2.8693 20.6437 3.9893V26.8193C20.6437 27.9493 19.9437 28.5993 18.7837 28.5993H4.0637C2.8837 28.5993 2.2037 27.9493 2.2037 26.8193ZM6.1837 12.5893H16.6837C17.4037 12.5893 17.8937 12.1093 17.8937 11.3493V8.3993C17.8937 7.6293 17.4037 7.1493 16.6837 7.1493H6.1837C5.4537 7.1493 4.9637 7.6293 4.9637 8.3993V11.3493C4.9637 12.1093 5.4537 12.5893 6.1837 12.5893ZM6.1837 23.6293H16.6837C17.4037 23.6293 17.8937 23.1293 17.8937 22.3793V19.4093C17.8937 18.6593 17.4037 18.1693 16.6837 18.1693H6.1837C5.4537 18.1693 4.9637 18.6593 4.9637 19.4093V22.3793C4.9637 23.1293 5.4537 23.6293 6.1837 23.6293Z"
        fillRule="evenodd"
        clipRule="evenodd"
    />
</svg>
        