
<svg
    viewBox="0 0 24.5 26.11328125"
    xmlns="http://www.w3.org/2000/svg"
>
    <path
        fill="inherit"
        d="M6.1437 26.1104H16.5537C20.3937 26.1104 22.6937 23.7804 22.6937 19.8604V11.6204H23.0637C23.9437 11.6204 24.5037 11.0204 24.5037 10.0804V7.7904C24.5037 6.8204 23.9437 6.2204 23.0637 6.2204H22.6937C22.6937 2.3204 20.3937 0.0004 16.5537 0.0004H6.1437C2.2937 0.0004 0.0037 2.3204 0.0037 6.2304V19.8604C0.0037 23.7804 2.2937 26.1104 6.1437 26.1104ZM6.0437 23.9804C3.5937 23.9804 2.1337 22.4904 2.1337 19.9604V6.2104C2.1337 3.6904 3.5937 2.2004 6.0437 2.2004H16.6537C19.1137 2.2004 20.5637 3.6904 20.5637 6.2104V19.9604C20.5637 22.4904 19.1137 23.9804 16.6537 23.9804ZM4.0237 20.1404C4.0237 21.3404 4.7137 22.0804 5.8637 22.0804H16.8437C17.9737 22.0804 18.6737 21.3404 18.6737 20.1404V17.7304C18.6737 16.5304 17.9737 15.7804 16.8437 15.7804H5.8637C4.7137 15.7804 4.0237 16.5304 4.0237 17.7304ZM5.5337 20.0604V17.8104C5.5337 17.5004 5.7237 17.2904 6.0437 17.2904H16.6637C16.9837 17.2904 17.1537 17.5004 17.1537 17.8104V20.0604C17.1537 20.3704 16.9837 20.5604 16.6637 20.5604H6.0437C5.7237 20.5604 5.5337 20.3704 5.5337 20.0604Z"
        fillRule="evenodd"
        clipRule="evenodd"
    />
</svg>
        