<svg viewBox="0 0 17.568359375 28.943359375" xmlns="http://www.w3.org/2000/svg"><path d="M0.0037 25.3896C0.0037 27.5196 1.4937 28.9396 3.7237 28.9396H13.8537C16.0737 28.9396 17.5637 27.5196 17.5637 25.3896V3.5596C17.5637 1.4196 16.0737 -0.0004 13.8537 -0.0004H3.7237C1.4937 -0.0004 0.0037 1.4196 0.0037 3.5596ZM2.2037 25.0296V3.9096C2.2037 2.8196 2.8437 2.1996 4.0037 2.1996H13.5737C14.7237 2.1996 15.3637 2.8196 15.3637 3.9096V25.0296C15.3637 26.1296 14.7237 26.7396 13.5737 26.7396H4.0037C2.8437 26.7396 2.2037 26.1296 2.2037 25.0296ZM5.1637 8.0496H12.4137C13.1437 8.0496 13.6337 7.5696 13.6337 6.8096V5.1796C13.6337 4.4296 13.1437 3.9396 12.4137 3.9396H5.1637C4.4337 3.9396 3.9537 4.4296 3.9537 5.1796V6.8096C3.9537 7.5696 4.4337 8.0496 5.1637 8.0496ZM5.0037 12.9596C5.0037 13.3996 5.3037 13.6896 5.7137 13.6896C5.9337 13.6996 6.0937 13.5996 6.2437 13.4696L7.3537 12.3696L8.1037 11.4296L8.0437 13.1796V17.0396C8.0437 17.4596 8.3537 17.7696 8.7937 17.7696C9.2237 17.7696 9.5337 17.4596 9.5337 17.0396V13.1796L9.4737 11.4296L10.2237 12.3696L11.3237 13.4696C11.4737 13.5996 11.6337 13.6996 11.8537 13.6896C12.2737 13.6896 12.5737 13.3996 12.5737 12.9596C12.5737 12.7696 12.5237 12.5796 12.3837 12.4396L9.3537 9.4296C9.1837 9.2696 8.9837 9.1696 8.7937 9.1696C8.5837 9.1696 8.3837 9.2696 8.2137 9.4296L5.1837 12.4396C5.0437 12.5796 5.0037 12.7696 5.0037 12.9596Z" /></svg>