
<svg
    viewBox={0 0 28.95703125 17.595703125}
    xmlns="http://www.w3.org/2000/svg"
>
    <path
        fill="inherit"
        d="M3.5537 17.5958H25.3937C27.5237 17.5958 28.9537 16.0958 28.9537 13.8658V3.7158C28.9537 1.4858 27.5337 -0.0042 25.4037 -0.0042H3.5637C1.4337 -0.0042 0.0037 1.4858 0.0037 3.7158V13.8658C0.0037 16.0958 1.4237 17.5958 3.5537 17.5958ZM3.9137 15.3958C2.8137 15.3958 2.2037 14.7358 2.2037 13.5858V4.0058C2.2037 2.8558 2.8137 2.2058 3.9137 2.2058H25.0437C26.1437 2.2058 26.7537 2.8558 26.7537 4.0058V13.5858C26.7537 14.7358 26.1437 15.3958 25.0337 15.3958ZM6.0737 11.3858H12.1137C12.8537 11.3858 13.3337 10.9058 13.3337 10.1458V7.4258C13.3337 6.6758 12.8537 6.1758 12.1137 6.1758H6.0737C5.3437 6.1758 4.8537 6.6758 4.8537 7.4258V10.1458C4.8537 10.9058 5.3437 11.3858 6.0737 11.3858ZM16.8437 11.3858H22.8837C23.6137 11.3858 24.1037 10.9058 24.1037 10.1458V7.4258C24.1037 6.6758 23.6137 6.1758 22.8837 6.1758H16.8437C16.1237 6.1758 15.6237 6.6758 15.6237 7.4258V10.1458C15.6237 10.9058 16.1237 11.3858 16.8437 11.3858Z"
        fillRule="evenodd"
        clipRule="evenodd"
    />
</svg>
        