
<svg
    viewBox={0 0 32.59375 27.548828125}
    xmlns="http://www.w3.org/2000/svg"
>
    <path
        fill="inherit"
        d="M3.1437 22.7002H11.9737V25.3302H11.8937C11.2937 25.3302 10.7837 25.8302 10.7837 26.4402C10.7837 27.0602 11.2937 27.5502 11.8937 27.5502H20.7037C21.3037 27.5502 21.7937 27.0602 21.7937 26.4402C21.7937 25.8302 21.3037 25.3302 20.7037 25.3302H20.6137V22.7002H29.4337C31.4037 22.7002 32.5937 21.5102 32.5937 19.5402V3.1402C32.5937 1.1802 31.4037 0.0002 29.4337 0.0002H3.1437C1.1937 0.0002 0.0037 1.1802 0.0037 3.1402V19.5402C0.0037 21.5102 1.1937 22.7002 3.1437 22.7002ZM2.7937 16.6702C2.3837 16.6702 2.2037 16.5202 2.2037 16.0802V3.1902C2.2037 2.5702 2.5837 2.2002 3.1837 2.2002H29.4037C30.0137 2.2002 30.3937 2.5702 30.3937 3.1902V16.0802C30.3937 16.5202 30.2037 16.6702 29.7937 16.6702ZM12.9037 13.9502C12.9037 14.5102 13.4937 14.7202 13.9637 14.4502L21.2837 10.1402C21.7337 9.8702 21.7237 9.2702 21.2737 9.0102L13.9637 4.7002C13.4937 4.4302 12.9037 4.6302 12.9037 5.2102Z"
        fillRule="evenodd"
        clipRule="evenodd"
    />
</svg>
        