
<svg
    viewBox="0 0 20.412109375 22.96875"
    xmlns="http://www.w3.org/2000/svg"
>
    <path
        fill="inherit"
        d="M0.0037 20.9755C0.0037 22.3255 0.7837 22.9655 1.7137 22.9655C2.1237 22.9655 2.5437 22.8355 2.9637 22.6155L18.8937 13.3055C20.0337 12.6455 20.4137 12.1955 20.4137 11.4855C20.4137 10.7555 20.0337 10.3255 18.8937 9.6655L2.9637 0.3555C2.5437 0.1255 2.1237 -0.0045 1.7137 -0.0045C0.7837 -0.0045 0.0037 0.6455 0.0037 1.9955ZM2.2037 20.0055V2.9655C2.2037 2.7255 2.4237 2.6155 2.6237 2.7355L17.2437 11.2655C17.3337 11.3055 17.3937 11.4055 17.3937 11.4855C17.3937 11.5655 17.3337 11.6455 17.2437 11.7055L2.6237 20.2355C2.4237 20.3555 2.2037 20.2455 2.2037 20.0055Z"
        fillRule="evenodd"
        clipRule="evenodd"
    />
</svg>
        