<svg viewBox="0 0 34.849609375 20.890625" xmlns="http://www.w3.org/2000/svg"><path d="M0.0037 18.9864C0.0037 20.2764 0.7337 20.8864 1.6237 20.8864C2.0137 20.8864 2.4237 20.7664 2.8137 20.5464L17.1737 12.1864C18.2137 11.5764 18.6037 11.1264 18.6037 10.4464C18.6037 9.7664 18.2137 9.3064 17.1737 8.7064L2.8137 0.3464C2.4237 0.1064 2.0137 -0.0036 1.6237 -0.0036C0.7337 -0.0036 0.0037 0.6064 0.0037 1.8864ZM24.6337 20.8864C25.2937 20.8864 25.8137 20.3864 25.8137 19.7464V1.1464C25.8137 0.5064 25.2937 -0.0036 24.6337 -0.0036C23.9837 -0.0036 23.4737 0.5064 23.4737 1.1464V19.7464C23.4737 20.3864 23.9837 20.8864 24.6337 20.8864ZM33.6737 20.8864C34.3337 20.8864 34.8537 20.3864 34.8537 19.7464V1.1464C34.8537 0.5064 34.3337 -0.0036 33.6737 -0.0036C33.0137 -0.0036 32.5137 0.5064 32.5137 1.1464V19.7464C32.5137 20.3864 33.0137 20.8864 33.6737 20.8864ZM2.2037 17.9064V2.9764C2.2037 2.8164 2.2937 2.7064 2.4437 2.7064C2.5037 2.7064 2.5537 2.7164 2.5937 2.7664L15.3637 10.2364C15.4637 10.2964 15.5037 10.3664 15.5037 10.4464C15.5037 10.5164 15.4637 10.5964 15.3637 10.6464L2.5937 18.1264C2.5537 18.1564 2.5037 18.1864 2.4437 18.1864C2.2937 18.1864 2.2037 18.0564 2.2037 17.9064Z" /></svg>