
<svg
    viewBox={0 0 39.853515625 20.890625}
    xmlns="http://www.w3.org/2000/svg"
>
    <path
        fill="inherit"
        d="M0.0037 18.9864C0.0037 20.2764 0.7337 20.8864 1.6237 20.8864C2.0137 20.8864 2.4237 20.7664 2.8137 20.5464L17.1737 12.1864C18.2137 11.5764 18.6037 11.1264 18.6037 10.4464C18.6037 9.7664 18.2137 9.3064 17.1737 8.7064L2.8137 0.3464C2.4237 0.1064 2.0137 -0.0036 1.6237 -0.0036C0.7337 -0.0036 0.0037 0.6064 0.0037 1.8864ZM24.9937 20.8064H28.0937C29.3037 20.8064 29.9137 20.1764 29.9137 18.9764V1.8964C29.9137 0.6464 29.3037 0.0664 28.0937 0.0664H24.9937C23.7937 0.0664 23.1637 0.6964 23.1637 1.8964V18.9764C23.1637 20.1764 23.7937 20.8064 24.9937 20.8064ZM34.9137 20.8064H38.0237C39.2237 20.8064 39.8537 20.1764 39.8537 18.9764V1.8964C39.8537 0.6464 39.2237 0.0664 38.0237 0.0664H34.9137C33.7137 0.0664 33.1037 0.6964 33.1037 1.8964V18.9764C33.1037 20.1764 33.7137 20.8064 34.9137 20.8064Z"
        fillRule="evenodd"
        clipRule="evenodd"
    />
</svg>
        