<svg viewBox="0 0 23.98046875 31.732421875" xmlns="http://www.w3.org/2000/svg"><path d="M5.3637 1.7668H18.6237C18.5437 0.5968 17.8737 -0.0032 16.6137 -0.0032H7.3537C6.0937 -0.0032 5.4437 0.5968 5.3637 1.7668ZM2.9837 5.5468H20.9837C20.7837 4.3068 20.1937 3.6268 18.8237 3.6268H5.1437C3.7737 3.6268 3.1837 4.3068 2.9837 5.5468ZM4.2937 31.7368H20.0937C22.5437 31.7368 23.9837 30.3068 23.9837 27.4968V11.9868C23.9837 9.1768 22.5337 7.7568 19.6837 7.7568H4.2937C1.4337 7.7568 0.0037 9.1568 0.0037 11.9868V27.4968C0.0037 30.3068 1.4337 31.7368 4.2937 31.7368ZM9.3937 25.3168C8.7337 25.7168 7.9837 25.4068 7.9837 24.7168V14.9168C7.9837 14.2468 8.7937 13.9568 9.3937 14.3168L17.4137 19.0768C18.0037 19.4168 18.0237 20.2368 17.4137 20.5868Z" /></svg>