
<svg
    viewBox={0 0 34.1796875 27.34375}
    xmlns="http://www.w3.org/2000/svg"
>
    <path
        fill="inherit"
        d="M3.5137 22.713H30.6637C32.8537 22.713 34.1837 21.373 34.1837 19.193V3.513C34.1837 1.343 32.8537 0.003 30.6637 0.003H3.5137C1.3437 0.003 0.0037 1.343 0.0037 3.513V19.193C0.0037 21.373 1.3437 22.713 3.5137 22.713ZM3.5537 20.503C2.7037 20.503 2.2037 20.003 2.2037 19.163V3.543C2.2037 2.703 2.7037 2.203 3.5537 2.203H30.6237C31.4737 2.203 31.9737 2.703 31.9737 3.543V19.163C31.9737 20.003 31.4737 20.503 30.6237 20.503ZM12.6637 17.023C12.6637 17.763 13.4437 18.023 14.0237 17.673L23.5137 12.083C24.0937 11.743 24.0737 10.963 23.5037 10.633L14.0237 5.063C13.4437 4.713 12.6637 4.973 12.6637 5.713ZM10.2137 27.343H23.9637C24.5637 27.343 25.0737 26.853 25.0737 26.233C25.0737 25.623 24.5637 25.133 23.9637 25.133H10.2137C9.6137 25.133 9.1037 25.623 9.1037 26.233C9.1037 26.853 9.6137 27.343 10.2137 27.343Z"
        fillRule="evenodd"
        clipRule="evenodd"
    />
</svg>
        