
<svg
    viewBox={0 0 36.220726322923426 28.013671875}
    xmlns="http://www.w3.org/2000/svg"
>
    <path
        fill="inherit"
        d="M13.5928 0.0048C16.0928 0.5348 19.6628 1.6248 21.6428 2.2848C26.6328 3.9648 28.3928 6.0848 28.3928 10.9148C28.3928 14.3948 26.7828 16.2448 24.3628 16.2448C23.5728 16.2448 22.6928 16.0348 21.7528 15.5848V6.8748C21.7528 5.8748 21.6428 4.9948 20.6728 4.6848C19.8628 4.4248 19.4728 5.1248 19.4728 6.0848V28.0148L13.5928 26.1548ZM2.1728 23.5948C-0.1472 22.7748 -0.6072 21.2748 0.7828 20.3348C2.0328 19.4648 3.1328 19.1548 4.2228 18.7548L12.4028 15.8048V19.1848L6.4528 21.3048C5.2228 21.7348 5.0328 22.3548 5.9628 22.6648C6.6028 22.8748 8.4528 22.8048 9.6128 22.3948L12.4028 21.3548V24.3948C8.2128 25.3048 4.8228 24.5448 2.1728 23.5948ZM20.5628 24.1948L30.0328 20.8248C31.1528 20.3948 31.2428 19.9048 30.3828 19.6148C29.4528 19.3048 27.9428 19.3448 26.8828 19.7448L20.5628 22.0248V18.4148C21.9328 17.9548 23.7928 17.4448 25.3428 17.3248C27.8628 17.1348 30.9928 17.4348 33.6828 18.3648C36.2828 19.2548 36.5828 20.6048 35.9128 21.4648C35.5028 22.0248 34.3828 22.6548 32.5928 23.2848L20.5628 27.5748Z"
        fillRule="evenodd"
        clipRule="evenodd"
    />
</svg>
        