
<svg
    viewBox={0 0 24.00439453125 23.3173828125}
    xmlns="http://www.w3.org/2000/svg"
>
    <path
        fill="inherit"
        d="M20.536 22.0041C20.946 22.4141 21.626 22.4141 22.026 22.0041C22.416 21.5941 22.436 20.9241 22.026 20.5141L1.806 0.3041C1.396 -0.1059 0.706 -0.1059 0.296 0.3041C-0.104 0.7041 -0.104 1.4041 0.296 1.7941ZM19.276 15.5341L22.486 13.6541C23.626 12.9941 24.006 12.5441 24.006 11.8341C24.006 11.1041 23.626 10.6741 22.486 10.0141L6.556 0.7041C6.136 0.4741 5.716 0.3441 5.306 0.3441C5.026 0.3441 4.756 0.4141 4.536 0.5841L8.566 4.6241C8.606 4.5441 8.716 4.5341 8.826 4.5841L20.836 11.6141C20.926 11.6641 20.986 11.7541 20.986 11.8341C20.986 11.9141 20.926 11.9941 20.836 12.0541L17.676 13.9141ZM12.926 16.6741L6.216 20.5841C6.016 20.7041 5.796 20.5941 5.796 20.3541V9.5541L3.596 7.3641V21.3241C3.596 22.6741 4.376 23.3141 5.306 23.3141C5.716 23.3141 6.136 23.1841 6.556 22.9641L14.556 18.2841Z"
        fillRule="evenodd"
        clipRule="evenodd"
    />
</svg>
        