
<svg
    viewBox="0 0 27.890625 27.890625"
    xmlns="http://www.w3.org/2000/svg"
>
    <path
        fill="inherit"
        d="M13.9427 27.8864C21.6427 27.8864 27.8927 21.6464 27.8927 13.9464C27.8927 6.2464 21.6427 -0.0036 13.9427 -0.0036C6.2527 -0.0036 0.0027 6.2464 0.0027 13.9464C0.0027 21.6464 6.2527 27.8864 13.9427 27.8864ZM13.9427 25.5664C7.5227 25.5664 2.3227 20.3664 2.3227 13.9464C2.3227 7.5164 7.5227 2.3264 13.9427 2.3264C20.3727 2.3264 25.5627 7.5164 25.5627 13.9464C25.5627 20.3664 20.3727 25.5664 13.9427 25.5664ZM6.5527 19.0864L13.3727 14.6664C13.9027 14.2964 13.9027 13.6064 13.3727 13.2664L6.5527 8.8164C5.9927 8.4664 5.2327 8.7664 5.2327 9.3964V18.5264C5.2327 19.1664 5.9427 19.4664 6.5527 19.0864ZM15.7227 19.0764H17.0127C17.6627 19.0764 17.9527 18.7164 17.9527 18.2064V9.6764C17.9527 9.1564 17.6627 8.8164 17.0127 8.8164H15.7227C15.0827 8.8164 14.7627 9.1564 14.7627 9.6764V18.2064C14.7627 18.7164 15.0827 19.0764 15.7227 19.0764ZM20.4627 19.0764H21.7527C22.3827 19.0764 22.6827 18.7164 22.6827 18.2064V9.6764C22.6827 9.1564 22.3827 8.8164 21.7527 8.8164H20.4627C19.8227 8.8164 19.5127 9.1564 19.5127 9.6764V18.2064C19.5127 18.7164 19.8227 19.0764 20.4627 19.0764Z"
        fillRule="evenodd"
        clipRule="evenodd"
    />
</svg>
        