
<svg
    viewBox={0 0 34.1796875 27.330078125}
    xmlns="http://www.w3.org/2000/svg"
>
    <path
        fill="inherit"
        d="M3.5137 22.693H30.6637C33.0037 22.693 34.1837 21.563 34.1837 19.183V3.513C34.1837 1.133 33.0037 0.003 30.6637 0.003H3.5137C1.1937 0.003 0.0037 1.133 0.0037 3.513V19.183C0.0037 21.563 1.1937 22.693 3.5137 22.693ZM12.4937 17.143V5.563C12.4937 4.823 13.2737 4.563 13.8637 4.913L23.3337 10.483C24.0037 10.883 24.0337 11.813 23.3537 12.213L13.8637 17.803C13.2737 18.143 12.4937 17.883 12.4937 17.143ZM10.2137 27.333H23.9637C24.5637 27.333 25.0737 26.833 25.0737 26.223C25.0737 25.603 24.5637 25.113 23.9637 25.113H10.2137C9.6137 25.113 9.1037 25.603 9.1037 26.223C9.1037 26.833 9.6137 27.333 10.2137 27.333Z"
        fillRule="evenodd"
        clipRule="evenodd"
    />
</svg>
        