
<svg
    viewBox="0 0 23.88134765625 23.3173828125"
    xmlns="http://www.w3.org/2000/svg"
>
    <path
        fill="inherit"
        d="M20.5329 22.0041C20.9429 22.4141 21.6229 22.4141 22.0229 22.0041C22.4229 21.5941 22.4329 20.9241 22.0229 20.5141L1.8029 0.3041C1.3929 -0.1059 0.7029 -0.1059 0.2929 0.3041C-0.0971 0.7041 -0.0971 1.4041 0.2929 1.7941ZM19.2429 15.4841L22.3629 13.6541C23.5029 12.9941 23.8829 12.5441 23.8829 11.8341C23.8829 11.1041 23.5029 10.6741 22.3629 10.0141L6.4329 0.7041C6.0129 0.4741 5.5929 0.3441 5.1829 0.3441C4.8729 0.3441 4.5929 0.4441 4.4029 0.6341ZM14.5029 18.2441L3.4729 7.2441V21.3241C3.4729 22.6741 4.2529 23.3141 5.1829 23.3141C5.5929 23.3141 6.0129 23.1841 6.4329 22.9641Z"
        fillRule="evenodd"
        clipRule="evenodd"
    />
</svg>
        