<svg viewBox="0 0 32.23828125 25.169921875" xmlns="http://www.w3.org/2000/svg"><path d="M4.2937 25.1692H27.9437C30.8137 25.1692 32.2337 23.7592 32.2337 20.9492V4.2392C32.2337 1.4192 30.8137 -0.0008 27.9437 -0.0008H4.2937C1.4337 -0.0008 0.0037 1.4192 0.0037 4.2392V20.9492C0.0037 23.7592 1.4337 25.1692 4.2937 25.1692ZM9.4437 12.6092C9.4437 11.8992 9.9537 11.3992 10.6637 11.3992H14.9437V7.1192C14.9437 6.4092 15.4237 5.9092 16.1037 5.9092C16.8337 5.9092 17.3237 6.4092 17.3237 7.1192V11.3992H21.6037C22.3137 11.3992 22.8037 11.8992 22.8037 12.6092C22.8037 13.2992 22.3137 13.7692 21.6037 13.7692H17.3237V18.0592C17.3237 18.7692 16.8337 19.2592 16.1037 19.2592C15.4237 19.2592 14.9437 18.7592 14.9437 18.0592V13.7692H10.6637C9.9537 13.7692 9.4437 13.2992 9.4437 12.6092Z" /></svg>