<svg viewBox="0 0 27.890625 27.890625" xmlns="http://www.w3.org/2000/svg"><path d="M13.9427 27.8864C21.6427 27.8864 27.8927 21.6464 27.8927 13.9464C27.8927 6.2464 21.6427 -0.0036 13.9427 -0.0036C6.2527 -0.0036 0.0027 6.2464 0.0027 13.9464C0.0027 21.6464 6.2527 27.8864 13.9427 27.8864ZM13.9427 25.5664C7.5227 25.5664 2.3227 20.3664 2.3227 13.9464C2.3227 7.5164 7.5227 2.3264 13.9427 2.3264C20.3727 2.3264 25.5627 7.5164 25.5627 13.9464C25.5627 20.3664 20.3727 25.5664 13.9427 25.5664ZM9.1827 11.3164C9.1827 11.8364 9.6127 12.2664 10.1427 12.2664H13.0127V15.1364C13.0127 15.6364 13.4427 16.0764 13.9627 16.0764C14.4827 16.0764 14.9127 15.6364 14.9127 15.1364V12.2664H17.7627C18.2827 12.2664 18.7127 11.8364 18.7127 11.3164C18.7127 10.7964 18.2827 10.3664 17.7627 10.3664H14.9127V7.4964C14.9127 6.9764 14.4827 6.5464 13.9627 6.5464C13.4427 6.5464 13.0127 6.9764 13.0127 7.4964V10.3664H10.1427C9.6127 10.3664 9.1827 10.7964 9.1827 11.3164ZM9.1827 19.4864C9.1827 19.9564 9.6127 20.4364 10.1627 20.4364H17.7427C18.2827 20.4364 18.7127 19.9564 18.7127 19.4864C18.7127 18.9764 18.2827 18.5364 17.7427 18.5364H10.1627C9.6127 18.5364 9.1827 18.9764 9.1827 19.4864Z" /></svg>