
<svg
    viewBox="0 0 27.890625 27.890625"
    xmlns="http://www.w3.org/2000/svg"
>
    <path
        fill="inherit"
        d="M13.9427 27.8927C21.6427 27.8927 27.8927 21.6427 27.8927 13.9427C27.8927 6.2627 21.6427 0.0027 13.9427 0.0027C6.2627 0.0027 0.0027 6.2627 0.0027 13.9427C0.0027 21.6427 6.2627 27.8927 13.9427 27.8927ZM10.0327 12.2327C9.4927 12.2327 9.0527 11.7827 9.0527 11.2527C9.0527 10.7227 9.4927 10.2627 10.0327 10.2627H12.9927V7.3027C12.9927 6.7827 13.4427 6.3327 13.9727 6.3327C14.5027 6.3327 14.9727 6.7627 14.9727 7.3027V10.2627H17.8927C18.4327 10.2627 18.8827 10.7227 18.8827 11.2527C18.8827 11.7827 18.4327 12.2327 17.8927 12.2327H14.9727V15.1927C14.9727 15.7227 14.5027 16.1727 13.9727 16.1727C13.4427 16.1727 12.9927 15.7127 12.9927 15.1927V12.2327ZM10.0527 20.6627C9.4927 20.6627 9.0527 20.1827 9.0527 19.6827C9.0527 19.1527 9.4927 18.6927 10.0527 18.6927H17.8827C18.4327 18.6927 18.8827 19.1527 18.8827 19.6827C18.8827 20.1827 18.4327 20.6627 17.8827 20.6627Z"
        fillRule="evenodd"
        clipRule="evenodd"
    />
</svg>
        