
<svg
    viewBox={0 0 16.556640625 22.845703125}
    xmlns="http://www.w3.org/2000/svg"
>
    <path
        fill="inherit"
        d="M0.0037 7.9971C0.0037 8.6671 0.5437 9.2171 1.2137 9.2171H7.0537V14.8471C7.0537 15.5071 7.6037 16.0371 8.2737 16.0371C8.9437 16.0371 9.5037 15.5071 9.5037 14.8471V9.2171H15.3437C16.0137 9.2171 16.5537 8.6671 16.5537 7.9971C16.5537 7.3271 16.0137 6.7671 15.3437 6.7671H9.5037V1.2071C9.5037 0.5371 8.9437 -0.0029 8.2737 -0.0029C7.6037 -0.0029 7.0537 0.5371 7.0537 1.2071V6.7671H1.2137C0.5437 6.7671 0.0037 7.3271 0.0037 7.9971ZM0.0037 21.6171C0.0037 22.2971 0.5637 22.8471 1.2137 22.8471H15.3437C15.9937 22.8471 16.5537 22.2971 16.5537 21.6171C16.5537 20.9471 15.9937 20.3971 15.3437 20.3971H1.2137C0.5637 20.3971 0.0037 20.9471 0.0037 21.6171Z"
        fillRule="evenodd"
        clipRule="evenodd"
    />
</svg>
        