<svg viewBox="0 0 31.006281888857306 31.006281888857306" xmlns="http://www.w3.org/2000/svg"><path d="M1.5328 18.5268L12.4828 29.4768C14.5028 31.5068 16.5028 31.5168 18.5128 29.5168L29.5228 18.4968C31.5128 16.5068 31.5028 14.4968 29.4828 12.4668L18.5428 1.5368C16.5128 -0.4932 14.5228 -0.5132 12.5128 1.4968L1.4928 12.4968C-0.5172 14.5068 -0.4872 16.5068 1.5328 18.5268ZM8.8328 15.5168C8.8328 14.8068 9.3428 14.3168 10.0528 14.3168H14.3328V10.0368C14.3328 9.3268 14.8128 8.8168 15.4928 8.8168C16.2128 8.8168 16.6928 9.3268 16.6928 10.0368V14.3168H20.9928C21.7028 14.3168 22.1928 14.8068 22.1928 15.5168C22.1928 16.2168 21.6828 16.6768 20.9928 16.6768H16.6928V20.9768C16.6928 21.6868 16.2128 22.1768 15.4928 22.1768C14.8128 22.1768 14.3328 21.6668 14.3328 20.9768V16.6768H10.0528C9.3428 16.6768 8.8328 16.2168 8.8328 15.5168Z" /></svg>