
<svg
    viewBox={0 0 30.1328125 28.287109375}
    xmlns="http://www.w3.org/2000/svg"
>
    <path
        fill="inherit"
        d="M8.4037 28.2828C9.0737 28.2828 9.5437 27.9328 10.3737 27.1928L15.0937 22.9928H23.8737C27.9437 22.9928 30.1337 20.7428 30.1337 16.7328V6.2628C30.1337 2.2528 27.9437 0.0028 23.8737 0.0028H6.2637C2.1837 0.0028 0.0037 2.2428 0.0037 6.2628V16.7328C0.0037 20.7528 2.1837 22.9928 6.2637 22.9928H6.9137V26.5528C6.9137 27.6028 7.4537 28.2828 8.4037 28.2828ZM8.9737 25.7828V21.8228C8.9737 21.0828 8.6837 20.7928 7.9437 20.7928H6.2637C3.5037 20.7928 2.2037 19.3828 2.2037 16.7228V6.2628C2.2037 3.5928 3.5037 2.2028 6.2637 2.2028H23.8737C26.6237 2.2028 27.9337 3.5928 27.9337 6.2628V16.7228C27.9337 19.3828 26.6237 20.7928 23.8737 20.7928H15.0137C14.2437 20.7928 13.8637 20.9028 13.3437 21.4328ZM8.7337 11.5028C8.7337 12.1728 9.2137 12.6228 9.9137 12.6228H13.9337V16.6528C13.9337 17.3328 14.3937 17.8128 15.0537 17.8128C15.7537 17.8128 16.2137 17.3528 16.2137 16.6528V12.6228H20.2437C20.9337 12.6228 21.4137 12.1728 21.4137 11.5028C21.4137 10.8128 20.9437 10.3328 20.2437 10.3328H16.2137V6.3128C16.2137 5.6228 15.7537 5.1428 15.0537 5.1428C14.3937 5.1428 13.9337 5.6228 13.9337 6.3128V10.3328H9.9137C9.2137 10.3328 8.7337 10.8128 8.7337 11.5028Z"
        fillRule="evenodd"
        clipRule="evenodd"
    />
</svg>
        