
<svg
    viewBox="0 0 25.169921875 25.169921875"
    xmlns="http://www.w3.org/2000/svg"
>
    <path
        fill="inherit"
        d="M4.2937 25.1692H20.8737C23.7437 25.1692 25.1737 23.7592 25.1737 20.9492V4.2392C25.1737 1.4192 23.7437 -0.0008 20.8737 -0.0008H4.2937C1.4337 -0.0008 0.0037 1.4192 0.0037 4.2392V20.9492C0.0037 23.7592 1.4337 25.1692 4.2937 25.1692ZM4.3237 22.9692C2.9537 22.9692 2.2037 22.2392 2.2037 20.8192V4.3592C2.2037 2.9392 2.9537 2.1992 4.3237 2.1992H20.8537C22.2037 2.1992 22.9737 2.9392 22.9737 4.3592V20.8192C22.9737 22.2392 22.2037 22.9692 20.8537 22.9692ZM6.2637 12.5792C6.2637 13.2492 6.7237 13.6992 7.4237 13.6992H11.4437V17.7292C11.4437 18.4192 11.9037 18.8992 12.5737 18.8992C13.2637 18.8992 13.7437 18.4292 13.7437 17.7292V13.6992H17.7737C18.4537 13.6992 18.9337 13.2492 18.9337 12.5792C18.9337 11.8992 18.4537 11.4192 17.7737 11.4192H13.7437V7.3992C13.7437 6.6992 13.2637 6.2192 12.5737 6.2192C11.9037 6.2192 11.4437 6.6992 11.4437 7.3992V11.4192H7.4237C6.7237 11.4192 6.2637 11.8992 6.2637 12.5792Z"
        fillRule="evenodd"
        clipRule="evenodd"
    />
</svg>
        