
<svg
    viewBox={0 0 22.99609375 29.3125}
    xmlns="http://www.w3.org/2000/svg"
>
    <path
        fill="inherit"
        d="M0.0037 25.0373C0.0037 27.8873 1.4037 29.3173 4.2337 29.3173H18.7537C21.5837 29.3173 22.9937 27.8873 22.9937 25.0373V4.2973C22.9937 1.4473 21.5837 -0.0027 18.7537 -0.0027H4.2337C1.4037 -0.0027 0.0037 1.4473 0.0037 4.2973ZM4.8237 14.6673C4.8237 13.9573 5.3337 13.4673 6.0437 13.4673H10.3237V9.1873C10.3237 8.4773 10.8037 7.9873 11.4837 7.9873C12.2137 7.9873 12.6837 8.4773 12.6837 9.1873V13.4673H16.9837C17.6937 13.4673 18.1837 13.9573 18.1837 14.6673C18.1837 15.3673 17.6737 15.8473 16.9837 15.8473H12.6837V20.1373C12.6837 20.8373 12.2137 21.3373 11.4837 21.3373C10.8037 21.3373 10.3237 20.8373 10.3237 20.1373V15.8473H6.0437C5.3337 15.8473 4.8237 15.3673 4.8237 14.6673Z"
        fillRule="evenodd"
        clipRule="evenodd"
    />
</svg>
        