
<svg
    viewBox={0 0 25.169921875 25.169921875}
    xmlns="http://www.w3.org/2000/svg"
>
    <path
        fill="inherit"
        d="M0.0037 7.2055H2.2037V4.3455C2.2037 2.9255 2.9537 2.2055 4.3237 2.2055H7.1537V-0.0045H4.2937C1.4337 -0.0045 0.0037 1.4055 0.0037 4.2355ZM9.0237 2.2055H16.1437V-0.0045H9.0237ZM22.9737 7.2055H25.1737V4.2355C25.1737 1.4255 23.7337 -0.0045 20.8737 -0.0045H18.0237V2.2055H20.8537C22.2037 2.2055 22.9737 2.9255 22.9737 4.3455ZM6.2637 12.5655C6.2637 13.2355 6.7237 13.6855 7.4237 13.6855H11.4437V17.7155C11.4437 18.4055 11.9037 18.8855 12.5737 18.8855C13.2637 18.8855 13.7437 18.4155 13.7437 17.7155V13.6855H17.7737C18.4537 13.6855 18.9337 13.2355 18.9337 12.5655C18.9337 11.8855 18.4537 11.4055 17.7737 11.4055H13.7437V7.3855C13.7437 6.6855 13.2637 6.2055 12.5737 6.2055C11.9037 6.2055 11.4437 6.6855 11.4437 7.3855V11.4055H7.4237C6.7237 11.4055 6.2637 11.8855 6.2637 12.5655ZM22.9737 16.0955H25.1737V9.0755H22.9737ZM0.0037 16.0955H2.2037V9.0755H0.0037ZM18.0237 25.1655H20.8737C23.7337 25.1655 25.1737 23.7455 25.1737 20.9355V17.9655H22.9737V20.8255C22.9737 22.2455 22.2037 22.9655 20.8537 22.9655H18.0237ZM4.2937 25.1655H7.1537V22.9655H4.3237C2.9537 22.9655 2.2037 22.2455 2.2037 20.8255V17.9655H0.0037V20.9355C0.0037 23.7655 1.4337 25.1655 4.2937 25.1655ZM9.0237 25.1655H16.1437V22.9655H9.0237Z"
        fillRule="evenodd"
        clipRule="evenodd"
    />
</svg>
        