
<svg
    viewBox="0 0 34.015625 27.69921875"
    xmlns="http://www.w3.org/2000/svg"
>
    <path
        fill="inherit"
        d="M11.0437 4.4707H27.2637V4.2407C27.2637 1.4207 25.8137 0.0007 22.9737 0.0007H4.2937C1.4237 0.0007 0.0037 1.4207 0.0037 4.2407V17.1307C0.0037 19.9607 1.4237 21.3707 4.2937 21.3707H4.8837V10.5707C4.8837 6.7107 7.1537 4.4707 11.0437 4.4707ZM11.0437 27.7007H29.7237C32.5637 27.7007 34.0137 26.2807 34.0137 23.4607V10.5707C34.0137 7.7507 32.5637 6.3307 29.7237 6.3307H11.0437C8.1737 6.3307 6.7537 7.7507 6.7537 10.5707V23.4607C6.7537 26.2907 8.1737 27.7007 11.0437 27.7007ZM13.7137 17.0307C13.7137 16.3107 14.2037 15.8307 14.9337 15.8307H19.2137V11.5507C19.2137 10.8407 19.6737 10.3407 20.3737 10.3407C21.0837 10.3407 21.5737 10.8307 21.5737 11.5507V15.8307H25.8637C26.5637 15.8307 27.0737 16.3107 27.0737 17.0307C27.0737 17.7207 26.5637 18.2007 25.8637 18.2007H21.5737V22.4907C21.5737 23.1907 21.0837 23.6907 20.3737 23.6907C19.6737 23.6907 19.2137 23.1907 19.2137 22.4907V18.2007H14.9337C14.2237 18.2007 13.7137 17.7207 13.7137 17.0307Z"
        fillRule="evenodd"
        clipRule="evenodd"
    />
</svg>
        