
<svg
    viewBox="0 0 22.99609375 29.3125"
    xmlns="http://www.w3.org/2000/svg"
>
    <path
        fill="inherit"
        d="M0.0037 25.0373C0.0037 27.8873 1.4037 29.3173 4.2337 29.3173H18.7537C21.5837 29.3173 22.9937 27.8873 22.9937 25.0373V4.2973C22.9937 1.4473 21.5837 -0.0027 18.7537 -0.0027H4.2337C1.4037 -0.0027 0.0037 1.4473 0.0037 4.2973ZM2.2037 24.9873V4.3373C2.2037 2.9673 2.9237 2.1973 4.3437 2.1973H18.6437C20.0737 2.1973 20.7937 2.9673 20.7937 4.3373V24.9873C20.7937 26.3573 20.0737 27.1073 18.6437 27.1073H4.3437C2.9237 27.1073 2.2037 26.3573 2.2037 24.9873ZM5.1637 14.6573C5.1637 15.3273 5.6437 15.7773 6.3437 15.7773H10.3637V19.8073C10.3637 20.4973 10.8237 20.9773 11.4837 20.9773C12.1837 20.9773 12.6437 20.5073 12.6437 19.8073V15.7773H16.6837C17.3637 15.7773 17.8437 15.3273 17.8437 14.6573C17.8437 13.9773 17.3737 13.4973 16.6837 13.4973H12.6437V9.4773C12.6437 8.7773 12.1837 8.2973 11.4837 8.2973C10.8237 8.2973 10.3637 8.7773 10.3637 9.4773V13.4973H6.3437C5.6437 13.4973 5.1637 13.9773 5.1637 14.6573Z"
        fillRule="evenodd"
        clipRule="evenodd"
    />
</svg>
        