<svg viewBox="0 0 25.2109375 25.2109375" xmlns="http://www.w3.org/2000/svg"><path d="M23.6137 1.6166C22.2137 0.2166 20.2437 -0.0034 17.9137 -0.0034H7.2637C4.9637 -0.0034 2.9937 0.2166 1.6037 1.6166C0.2037 3.0066 0.0037 4.9666 0.0037 7.2566V17.9066C0.0037 20.2466 0.2037 22.2066 1.6037 23.5966C2.9937 24.9966 4.9637 25.2066 7.2837 25.2066H17.9137C20.2437 25.2066 22.2137 24.9966 23.6137 23.5966C25.0037 22.2066 25.2137 20.2466 25.2137 17.9066V7.2866C25.2137 4.9466 25.0037 3.0066 23.6137 1.6166ZM23.0137 6.9166V18.2966C23.0137 19.6966 22.8337 21.1666 21.9937 21.9866C21.1737 22.8166 19.7037 23.0066 18.2937 23.0066H6.9137C5.5137 23.0066 4.0337 22.8166 3.2037 21.9866C2.3837 21.1666 2.2037 19.6966 2.2037 18.2966V6.9566C2.2037 5.5066 2.3837 4.0466 3.2037 3.2166C4.0337 2.3966 5.5237 2.1966 6.9637 2.1966H18.2937C19.7037 2.1966 21.1737 2.3966 21.9937 3.2266C22.8337 4.0466 23.0137 5.5066 23.0137 6.9166ZM6.2737 12.6066C6.2737 13.2766 6.7537 13.7266 7.4537 13.7266H11.4737V17.7566C11.4737 18.4466 11.9237 18.9266 12.5937 18.9266C13.2737 18.9266 13.7537 18.4566 13.7537 17.7566V13.7266H17.7837C18.4737 13.7266 18.9537 13.2766 18.9537 12.6066C18.9537 11.9266 18.4737 11.4466 17.7837 11.4466H13.7537V7.4266C13.7537 6.7266 13.2737 6.2466 12.5937 6.2466C11.9237 6.2466 11.4737 6.7266 11.4737 7.4266V11.4466H7.4537C6.7437 11.4466 6.2737 11.9266 6.2737 12.6066Z" /></svg>