<svg viewBox="0 0 32.23828125 25.169921875" xmlns="http://www.w3.org/2000/svg"><path d="M4.2937 25.1692H27.9437C30.8137 25.1692 32.2337 23.7592 32.2337 20.9492V4.2392C32.2337 1.4192 30.8137 -0.0008 27.9437 -0.0008H4.2937C1.4337 -0.0008 0.0037 1.4192 0.0037 4.2392V20.9492C0.0037 23.7592 1.4337 25.1692 4.2937 25.1692ZM4.3237 22.9692C2.9537 22.9692 2.2037 22.2392 2.2037 20.8192V4.3592C2.2037 2.9392 2.9537 2.1992 4.3237 2.1992H27.9137C29.2737 2.1992 30.0337 2.9392 30.0337 4.3592V20.8192C30.0337 22.2392 29.2737 22.9692 27.9137 22.9692ZM9.7937 12.5792C9.7937 13.2492 10.2637 13.6992 10.9637 13.6992H14.9837V17.7292C14.9837 18.4192 15.4537 18.8992 16.1037 18.8992C16.8037 18.8992 17.2837 18.4292 17.2837 17.7292V13.6992H21.3137C21.9937 13.6992 22.4637 13.2492 22.4637 12.5792C22.4637 11.8992 21.9937 11.4192 21.3137 11.4192H17.2837V7.3992C17.2837 6.6992 16.8037 6.2192 16.1037 6.2192C15.4537 6.2192 14.9837 6.6992 14.9837 7.3992V11.4192H10.9637C10.2637 11.4192 9.7937 11.8992 9.7937 12.5792Z" /></svg>