
<svg
    viewBox="0 0 36.9140625 26.46875"
    xmlns="http://www.w3.org/2000/svg"
>
    <path
        fill="inherit"
        d="M4.2937 26.4721H27.1637C29.6137 26.4721 31.0537 25.0421 31.0537 22.2321V16.5821H32.6237C35.4737 16.5821 36.9137 15.1621 36.9137 12.3421V4.2421C36.9137 1.4121 35.4737 0.0021 32.6237 0.0021H20.8737C18.1137 0.0021 16.6937 1.3121 16.5937 3.9521H13.6337C12.7037 3.9521 12.1437 3.7321 11.4537 3.1421L10.6237 2.4621C9.7237 1.6921 9.0237 1.4521 7.6737 1.4521H3.7737C1.3837 1.4521 0.0037 2.8121 0.0037 5.5621V22.2321C0.0037 25.0621 1.4337 26.4721 4.2937 26.4721ZM20.8037 14.5221C19.4237 14.5221 18.6637 13.7821 18.6637 12.3321V4.2421C18.6637 2.8021 19.4237 2.0621 20.8037 2.0621H32.7037C34.0737 2.0621 34.8537 2.8021 34.8537 4.2421V12.3321C34.8537 13.7821 34.0737 14.5221 32.7337 14.5221ZM2.2037 5.6921C2.2037 4.3321 2.9137 3.6321 4.2237 3.6321H7.1137C8.0137 3.6321 8.5537 3.8721 9.2537 4.4521L10.0937 5.1521C10.9737 5.8921 11.7037 6.1521 13.0537 6.1521H16.5937V9.0921H2.2037ZM26.7537 12.6621C27.2637 12.6621 27.5937 12.3321 27.5937 11.8221V9.1621H30.2537C30.7637 9.1621 31.1037 8.8321 31.1037 8.3121C31.1037 7.8021 30.7637 7.4821 30.2537 7.4821H27.5937V4.8121C27.5937 4.3021 27.2637 3.9621 26.7537 3.9621C26.2537 3.9621 25.9237 4.3021 25.9237 4.8121V7.4821H23.2437C22.7537 7.4821 22.4037 7.8021 22.4037 8.3121C22.4037 8.8321 22.7537 9.1621 23.2437 9.1621H25.9237V11.8221C25.9237 12.3321 26.2537 12.6621 26.7537 12.6621ZM20.8737 16.5821H28.8437V22.1321C28.8437 23.5421 28.0637 24.2721 26.7137 24.2721H4.3237C2.9537 24.2721 2.2037 23.5421 2.2037 22.1221V11.1521H16.5937V12.3421C16.5937 15.1621 18.0237 16.5821 20.8737 16.5821Z"
        fillRule="evenodd"
        clipRule="evenodd"
    />
</svg>
        