
<svg
    viewBox="0 0 36.9140625 26.46875"
    xmlns="http://www.w3.org/2000/svg"
>
    <path
        fill="inherit"
        d="M20.8737 16.5821H32.6237C35.4737 16.5821 36.9137 15.1621 36.9137 12.3421V4.2421C36.9137 1.4121 35.4737 0.0021 32.6237 0.0021H20.8737C18.0237 0.0021 16.5937 1.4121 16.5937 4.2421V12.3421C16.5937 15.1621 18.0237 16.5821 20.8737 16.5821ZM0.0037 9.2321H14.7137V3.9521H13.6337C12.7037 3.9521 12.1437 3.7321 11.4537 3.1421L10.6237 2.4621C9.7237 1.6921 9.0237 1.4521 7.6737 1.4521H3.7737C1.3837 1.4521 0.0037 2.8121 0.0037 5.5621ZM26.7537 12.6321C26.2537 12.6321 25.9237 12.3021 25.9237 11.8021V9.1321H23.2437C22.7537 9.1321 22.4037 8.8021 22.4037 8.2821C22.4037 7.7821 22.7537 7.4521 23.2437 7.4521H25.9237V4.7821C25.9237 4.2821 26.2537 3.9421 26.7537 3.9421C27.2637 3.9421 27.5937 4.2821 27.5937 4.7821V7.4521H30.2537C30.7637 7.4521 31.1037 7.7821 31.1037 8.2821C31.1037 8.8021 30.7637 9.1321 30.2537 9.1321H27.5937V11.8021C27.5937 12.3021 27.2637 12.6321 26.7537 12.6321ZM4.2937 26.4721H27.1637C29.6137 26.4721 31.0537 24.7721 31.0537 21.9521V18.4421H20.8737C16.9937 18.4421 14.7137 16.2021 14.7137 12.3421V11.0221H0.0037V22.2321C0.0037 25.0621 1.4337 26.4721 4.2937 26.4721Z"
        fillRule="evenodd"
        clipRule="evenodd"
    />
</svg>
        