
<svg
    viewBox={0 0 31.006281888857306 31.006281888857306}
    xmlns="http://www.w3.org/2000/svg"
>
    <path
        fill="inherit"
        d="M1.5328 18.5268L12.4828 29.4768C14.5028 31.5068 16.5028 31.5168 18.5128 29.5168L29.5228 18.4968C31.5128 16.5068 31.5028 14.4968 29.4828 12.4668L18.5428 1.5368C16.5128 -0.4932 14.5228 -0.5132 12.5128 1.4968L1.4928 12.4968C-0.5172 14.5068 -0.4872 16.5068 1.5328 18.5268ZM3.1228 17.0068C2.1328 16.0268 2.1228 14.9968 3.1328 13.9868L13.9928 3.1368C15.0028 2.1168 16.0228 2.1368 17.0128 3.1168L27.8928 13.9968C28.8628 14.9768 28.8928 16.0068 27.8828 17.0268L17.0228 27.8768C16.0128 28.8868 14.9728 28.8668 14.0028 27.9068ZM9.1728 15.5068C9.1728 16.1768 9.6528 16.6268 10.3528 16.6268H14.3728V20.6568C14.3728 21.3468 14.8328 21.8268 15.4928 21.8268C16.1928 21.8268 16.6528 21.3568 16.6528 20.6568V16.6268H20.6828C21.3728 16.6268 21.8528 16.1768 21.8528 15.5068C21.8528 14.8268 21.3828 14.3468 20.6828 14.3468H16.6528V10.3268C16.6528 9.6268 16.1928 9.1468 15.4928 9.1468C14.8328 9.1468 14.3728 9.6268 14.3728 10.3268V14.3468H10.3528C9.6528 14.3468 9.1728 14.8268 9.1728 15.5068Z"
        fillRule="evenodd"
        clipRule="evenodd"
    />
</svg>
        