
<svg
    viewBox={0 0 30.1328125 28.369140625}
    xmlns="http://www.w3.org/2000/svg"
>
    <path
        fill="inherit"
        d="M8.1237 28.3728C8.6537 28.3728 9.0537 28.0928 9.6937 27.4928L14.6337 22.9828H23.8737C27.9437 22.9828 30.1337 20.7428 30.1337 16.7328V6.2628C30.1337 2.2528 27.9437 0.0028 23.8737 0.0028H6.2637C2.1837 0.0028 0.0037 2.2428 0.0037 6.2628V16.7328C0.0037 20.7528 2.1837 22.9828 6.2637 22.9828H6.9037V26.9628C6.9037 27.8128 7.3437 28.3728 8.1237 28.3728ZM8.3937 11.5028C8.3937 10.7828 8.9037 10.2928 9.6137 10.2928H13.8937V6.0128C13.8937 5.3028 14.3737 4.8028 15.0537 4.8028C15.7737 4.8028 16.2537 5.3028 16.2537 6.0128V10.2928H20.5537C21.2637 10.2928 21.7537 10.7828 21.7537 11.5028C21.7537 12.1928 21.2437 12.6628 20.5537 12.6628H16.2537V16.9528C16.2537 17.6628 15.7737 18.1528 15.0537 18.1528C14.3737 18.1528 13.8937 17.6528 13.8937 16.9528V12.6628H9.6137C8.9037 12.6628 8.3937 12.1928 8.3937 11.5028Z"
        fillRule="evenodd"
        clipRule="evenodd"
    />
</svg>
        