
<svg
    viewBox="0 0 31.0078125 28.505859375"
    xmlns="http://www.w3.org/2000/svg"
>
    <path
        fill="inherit"
        d="M5.4127 28.5072C7.0527 28.5072 11.1427 26.7172 13.4627 25.0472C13.7027 24.8872 13.8927 24.8172 14.0827 24.8172C14.2627 24.8272 14.4327 24.8372 14.6127 24.8372C24.4727 24.8372 31.0127 19.2372 31.0127 12.4272C31.0127 5.5472 24.1127 -0.0028 15.5027 -0.0028C6.8927 -0.0028 0.0027 5.5472 0.0027 12.4272C0.0027 16.8072 2.6927 20.6472 7.0827 22.9972C7.2827 23.1072 7.3527 23.3072 7.2427 23.5172C6.4827 24.7772 5.1127 26.2772 4.5927 26.9572C4.0627 27.6472 4.3627 28.5072 5.4127 28.5072ZM8.8327 12.5772C8.8327 11.8572 9.3227 11.3572 10.0327 11.3572H14.3127V7.0972C14.3127 6.3872 14.7927 5.8772 15.4927 5.8772C16.2027 5.8772 16.6927 6.3672 16.6927 7.0972V11.3572H20.9827C21.6827 11.3572 22.1927 11.8572 22.1927 12.5772C22.1927 13.2572 21.6827 13.7372 20.9827 13.7372H16.6927V18.0372C16.6927 18.7272 16.2027 19.2372 15.4927 19.2372C14.7927 19.2372 14.3127 18.7272 14.3127 18.0372V13.7372H10.0327C9.3227 13.7372 8.8327 13.2572 8.8327 12.5772Z"
        fillRule="evenodd"
        clipRule="evenodd"
    />
</svg>
        