
<svg
    viewBox="0 0 34.521484375 22.955078125"
    xmlns="http://www.w3.org/2000/svg"
>
    <path
        fill="inherit"
        d="M9.7737 22.9513H24.7437C30.6237 22.9513 34.5237 19.1013 34.5237 13.1913C34.5237 7.2913 30.6237 3.3912 24.7437 3.3912H22.2737C21.8237 1.4513 20.0737 0.0012 17.9737 0.0012C15.5537 0.0012 13.5737 1.9713 13.5737 4.3912C13.5737 6.8313 15.5537 8.8013 17.9737 8.8013C20.0037 8.8013 21.7137 7.4513 22.2337 5.5912H24.7437C29.2337 5.5912 32.3237 8.6813 32.3237 13.1913C32.3237 17.7013 29.2337 20.7513 24.7437 20.7513H9.7737C5.2537 20.7513 2.2037 17.7013 2.2037 13.1913C2.2037 8.6813 5.2537 5.5912 9.7737 5.5912H11.8437C11.7537 5.2113 11.7137 4.8113 11.7137 4.4013C11.7137 4.0712 11.7437 3.7312 11.8037 3.4013L9.7737 3.3912C3.8737 3.3313 0.0037 7.2913 0.0037 13.1913C0.0037 19.1013 3.8737 22.9513 9.7737 22.9513ZM17.9737 6.6613C16.7237 6.6613 15.7237 5.6612 15.7237 4.3912C15.7237 3.1313 16.7337 2.1513 17.9737 2.1513C19.2637 2.1513 20.2437 3.1313 20.2437 4.3912C20.2437 5.6612 19.2637 6.6613 17.9737 6.6613Z"
        fillRule="evenodd"
        clipRule="evenodd"
    />
</svg>
        