
<svg
    viewBox={0 0 29.216796875 23.84375}
    xmlns="http://www.w3.org/2000/svg"
>
    <path
        fill="inherit"
        d="M4.4037 8.823C6.8337 8.823 8.8037 6.853 8.8037 4.403C8.8037 1.983 6.8337 0.003 4.4037 0.003C1.9737 0.003 0.0037 1.983 0.0037 4.403C0.0037 6.853 1.9737 8.823 4.4037 8.823ZM24.8037 8.823C27.2437 8.823 29.2137 6.853 29.2137 4.403C29.2137 1.983 27.2437 0.003 24.8037 0.003C22.3837 0.003 20.3937 1.983 20.3937 4.403C20.3937 6.853 22.3837 8.823 24.8037 8.823ZM11.1137 5.603C11.7537 5.603 12.2937 5.073 12.2937 4.433C12.2937 3.783 11.7537 3.253 11.1137 3.253C10.4737 3.253 9.9437 3.783 9.9437 4.433C9.9437 5.073 10.4737 5.603 11.1137 5.603ZM14.6137 5.603C15.2537 5.603 15.7937 5.073 15.7937 4.433C15.7937 3.783 15.2537 3.253 14.6137 3.253C13.9637 3.253 13.4437 3.783 13.4437 4.433C13.4437 5.073 13.9637 5.603 14.6137 5.603ZM18.0837 5.603C18.7437 5.603 19.2737 5.073 19.2737 4.433C19.2737 3.783 18.7437 3.253 18.0837 3.253C17.4437 3.253 16.9137 3.783 16.9137 4.433C16.9137 5.073 17.4437 5.603 18.0837 5.603ZM21.3037 11.803C21.9437 11.803 22.4737 11.263 22.4737 10.623C22.4737 9.983 21.9437 9.443 21.3037 9.443C20.6537 9.443 20.1237 9.983 20.1237 10.623C20.1237 11.263 20.6537 11.803 21.3037 11.803ZM7.9037 11.803C8.5437 11.803 9.0737 11.263 9.0737 10.623C9.0737 9.983 8.5437 9.443 7.9037 9.443C7.2637 9.443 6.7237 9.983 6.7237 10.623C6.7237 11.263 7.2637 11.803 7.9037 11.803ZM18.7537 14.603C19.4037 14.603 19.9337 14.073 19.9337 13.423C19.9337 12.783 19.4037 12.253 18.7537 12.253C18.1137 12.253 17.5837 12.783 17.5837 13.423C17.5837 14.073 18.1137 14.603 18.7537 14.603ZM10.4437 14.603C11.1037 14.603 11.6337 14.073 11.6337 13.423C11.6337 12.783 11.1037 12.253 10.4437 12.253C9.8037 12.253 9.2737 12.783 9.2737 13.423C9.2737 14.073 9.8037 14.603 10.4437 14.603ZM14.6137 23.843C17.0537 23.843 19.0137 21.863 19.0137 19.423C19.0137 16.993 17.0537 15.023 14.6137 15.023C12.1837 15.023 10.2137 16.993 10.2137 19.423C10.2137 21.863 12.1837 23.843 14.6137 23.843Z"
        fillRule="evenodd"
        clipRule="evenodd"
    />
</svg>
        