
<svg
    viewBox={0 0 24.486328125 32.62268564623868}
    xmlns="http://www.w3.org/2000/svg"
>
    <path
        fill="inherit"
        d="M16.9837 5.0853H19.4937C21.2337 5.0853 22.5537 6.0453 22.5537 7.8753C22.5537 9.7453 21.2737 10.8853 19.4837 10.8853H17.7837C17.2537 10.8853 16.8037 11.2253 16.8037 11.8253C16.8037 12.4153 17.2537 12.7553 17.8237 12.7553H19.4837C22.3537 12.7553 24.4837 10.9253 24.4837 7.9553C24.4837 5.0153 22.3637 3.2153 19.4937 3.2153H16.9837V0.9353C16.9837 0.1653 16.2837 -0.2947 15.6437 0.2153L11.8437 3.3653C11.2537 3.8553 11.2337 4.4453 11.8437 4.9553L15.6437 8.0653C16.2737 8.5853 16.9837 8.1653 16.9837 7.3753ZM4.4037 32.6253C6.4537 32.6253 8.1737 31.2253 8.6637 29.3253H17.2837C21.7137 29.3253 24.4837 27.0353 24.4837 23.3953C24.4837 19.6753 21.7537 17.2453 16.4437 16.7053L8.6437 15.8853C4.5437 15.4653 2.4637 13.8953 2.4637 11.5653C2.4637 9.2853 4.3937 7.8353 7.4737 7.8353H12.4537L10.9537 6.6053C10.6137 6.3153 10.3537 5.9853 10.1537 5.6353H7.4737C3.0537 5.6353 0.2637 7.9353 0.2637 11.5653C0.2637 15.2853 3.0037 17.7153 8.2837 18.2553L16.1037 19.0753C20.2237 19.4953 22.2837 21.0653 22.2837 23.3953C22.2837 25.6753 20.3537 27.1253 17.2837 27.1253H8.6837C8.1937 25.2153 6.4637 23.8053 4.4037 23.8053C1.9837 23.8053 0.0037 25.7853 0.0037 28.2053C0.0037 30.6353 1.9837 32.6253 4.4037 32.6253ZM4.4037 30.4753C3.1437 30.4753 2.1437 29.4753 2.1437 28.2053C2.1437 26.9353 3.1537 25.9553 4.4037 25.9553C5.6837 25.9553 6.6737 26.9353 6.6737 28.2053C6.6737 29.4753 5.6837 30.4753 4.4037 30.4753Z"
        fillRule="evenodd"
        clipRule="evenodd"
    />
</svg>
        