
<svg
    viewBox={0 0 24.2265625 30.011610312289534}
    xmlns="http://www.w3.org/2000/svg"
>
    <path
        fill="inherit"
        d="M4.4137 30.0143C6.4637 30.0143 8.1937 28.6143 8.6837 26.7143H17.0237C21.4337 26.7143 24.2237 24.4243 24.2237 20.7843C24.2237 17.0643 21.4737 14.6343 16.1737 14.0943L8.3837 13.2743C4.2637 12.8543 2.2037 11.2843 2.2037 8.9543C2.2037 6.6743 4.1337 5.2243 7.2037 5.2243H17.6237V7.2843C17.6237 8.2443 18.2937 8.5043 19.0337 7.9743L23.3937 4.8943C24.0237 4.4543 24.0337 3.8043 23.3937 3.3543L19.0437 0.2743C18.2937 -0.2557 17.6237 -0.0157 17.6237 0.9743V3.0243H7.2037C2.7937 3.0243 0.0037 5.3243 0.0037 8.9543C0.0037 12.6743 2.7337 15.1043 8.0237 15.6443L15.8437 16.4643C19.9437 16.8843 22.0237 18.4543 22.0237 20.7843C22.0237 23.0643 20.0937 24.5143 17.0237 24.5143H8.6937C8.2037 22.6043 6.4837 21.1943 4.4137 21.1943C1.9837 21.1943 0.0137 23.1743 0.0137 25.5943C0.0137 28.0243 1.9837 30.0143 4.4137 30.0143Z"
        fillRule="evenodd"
        clipRule="evenodd"
    />
</svg>
        