
<svg
    viewBox={0 0 24.048828125 29.5859375}
    xmlns="http://www.w3.org/2000/svg"
>
    <path
        fill="inherit"
        d="M3.2937 9.3267C3.2937 12.0567 5.0037 13.9767 8.2537 14.8767L15.1337 16.8167C17.3937 17.4567 18.5437 18.6167 18.5437 20.2567V20.9167C16.6437 21.4067 15.2337 23.1367 15.2337 25.1967C15.2337 27.6167 17.2137 29.5867 19.6437 29.5867C22.0837 29.5867 24.0537 27.6167 24.0537 25.1967C24.0537 23.1367 22.6437 21.4067 20.7437 20.9167V20.2567C20.7437 17.5367 19.0437 15.6267 15.7937 14.7267L8.9137 12.7867C6.6737 12.1567 5.4937 10.9667 5.4937 9.3267V8.6767C7.4137 8.1867 8.8037 6.4667 8.8037 4.4067C8.8037 1.9867 6.8337 -0.0033 4.4037 -0.0033C1.9737 -0.0033 0.0037 1.9867 0.0037 4.4067C0.0037 6.4667 1.4037 8.1867 3.2937 8.6767ZM4.4037 6.6767C3.1437 6.6767 2.1437 5.6767 2.1437 4.4067C2.1437 3.1267 3.1437 2.1467 4.4037 2.1467C5.6737 2.1467 6.6537 3.1267 6.6537 4.4067C6.6537 5.6767 5.6837 6.6767 4.4037 6.6767ZM19.6437 22.9267C20.9037 22.9267 21.9037 23.9267 21.9037 25.1967C21.9037 26.4567 20.9037 27.4367 19.6437 27.4367C18.3637 27.4367 17.3737 26.4567 17.3737 25.1967C17.3737 23.9267 18.3637 22.9267 19.6437 22.9267Z"
        fillRule="evenodd"
        clipRule="evenodd"
    />
</svg>
        