
<svg
    viewBox={0 0 24.2265625 30.283203125}
    xmlns="http://www.w3.org/2000/svg"
>
    <path
        fill="inherit"
        d="M4.4137 30.2859C6.4637 30.2859 8.1937 28.8859 8.6837 26.9859H17.0237C21.4337 26.9859 24.2237 24.6959 24.2237 21.0559C24.2237 17.3359 21.4737 14.9059 16.1737 14.3659L8.3837 13.5459C4.2637 13.1259 2.2037 11.5559 2.2037 9.2259C2.2037 6.9459 4.1337 5.4959 7.2037 5.4959H15.5437C16.0337 7.4059 17.7637 8.8159 19.8137 8.8159C22.2537 8.8159 24.2237 6.8359 24.2237 4.4059C24.2237 1.9859 22.2537 -0.0041 19.8137 -0.0041C17.7637 -0.0041 16.0337 1.4059 15.5537 3.2959H7.2037C2.7937 3.2959 0.0037 5.5959 0.0037 9.2259C0.0037 12.9459 2.7337 15.3759 8.0237 15.9159L15.8437 16.7359C19.9437 17.1559 22.0237 18.7259 22.0237 21.0559C22.0237 23.3359 20.0937 24.7859 17.0237 24.7859H8.6937C8.2037 22.8759 6.4837 21.4659 4.4137 21.4659C1.9837 21.4659 0.0137 23.4459 0.0137 25.8659C0.0137 28.2959 1.9837 30.2859 4.4137 30.2859ZM19.8137 6.6759C18.5537 6.6759 17.5537 5.6759 17.5537 4.4059C17.5537 3.1259 18.5637 2.1459 19.8137 2.1459C21.0937 2.1459 22.0837 3.1259 22.0837 4.4059C22.0837 5.6759 21.0937 6.6759 19.8137 6.6759ZM4.4137 28.1359C3.1537 28.1359 2.1637 27.1359 2.1637 25.8659C2.1637 24.5959 3.1537 23.6159 4.4137 23.6159C5.6837 23.6159 6.6737 24.5959 6.6737 25.8659C6.6737 27.1359 5.7037 28.1359 4.4137 28.1359Z"
        fillRule="evenodd"
        clipRule="evenodd"
    />
</svg>
        