
<svg
    viewBox={0 0 27.890625 27.890625}
    xmlns="http://www.w3.org/2000/svg"
>
    <path
        fill="inherit"
        d="M13.9427 27.8864C21.6427 27.8864 27.8927 21.6464 27.8927 13.9464C27.8927 6.2464 21.6427 -0.0036 13.9427 -0.0036C6.2527 -0.0036 0.0027 6.2464 0.0027 13.9464C0.0027 21.6464 6.2527 27.8864 13.9427 27.8864ZM13.9427 25.5664C7.5227 25.5664 2.3227 20.3664 2.3227 13.9464C2.3227 7.5164 7.5227 2.3264 13.9427 2.3264C20.3727 2.3264 25.5627 7.5164 25.5627 13.9464C25.5627 20.3664 20.3727 25.5664 13.9427 25.5664ZM17.1127 19.6864C17.5827 19.6864 17.8727 19.3764 17.8727 18.8764V13.8864L19.0427 13.2764C19.3327 13.1264 19.4427 12.9064 19.4427 12.6864C19.4427 12.2864 19.0127 11.9064 18.5427 12.1564L17.8727 12.5064V8.6864C17.8727 8.1764 17.5827 7.8564 17.1127 7.8564C16.6427 7.8564 16.3527 8.1764 16.3527 8.6664V13.3164L15.2827 13.8864C15.0227 14.0264 14.8927 14.2564 14.8927 14.4764C14.8927 14.8864 15.3127 15.2464 15.8427 14.9664L16.3527 14.6964V18.8764C16.3527 19.3764 16.6427 19.6864 17.1127 19.6864ZM9.4027 19.5364H13.7527C14.1227 19.5364 14.3927 19.2764 14.3927 18.9364C14.3927 18.5964 14.1227 18.3364 13.7527 18.3364H10.6527V18.1864L14.0727 12.6964C14.2227 12.4364 14.3327 12.2464 14.3327 11.9864C14.3327 11.6064 14.1227 11.2664 13.5627 11.2664H9.3427C8.9927 11.2664 8.7227 11.5164 8.7227 11.8564C8.7227 12.2064 8.9927 12.4564 9.3427 12.4564H12.5327V12.6064L8.9527 18.2364C8.8227 18.4564 8.7227 18.6364 8.7227 18.8564C8.7227 19.2664 9.0127 19.5364 9.4027 19.5364Z"
        fillRule="evenodd"
        clipRule="evenodd"
    />
</svg>
        