<svg viewBox="0 0 32.935546875 27.33018496744969" xmlns="http://www.w3.org/2000/svg"><path d="M16.4627 5.864C18.9327 5.864 21.2027 6.724 23.0227 8.134C23.2927 8.354 23.6527 8.324 23.9127 8.064L27.0827 4.894C27.4027 4.584 27.3827 4.124 27.0527 3.854C24.2027 1.454 20.4927 0.004 16.4627 0.004C12.4427 0.004 8.7327 1.454 5.8827 3.854C5.5527 4.124 5.5327 4.584 5.8527 4.894L9.0227 8.064C9.2827 8.324 9.6527 8.354 9.9527 8.124C11.7627 6.724 14.0127 5.864 16.4627 5.864ZM0.0027 16.464C0.0027 20.494 1.4527 24.204 3.8727 27.074C4.1427 27.414 4.6027 27.414 4.9127 27.094L8.1627 23.844C8.3627 23.624 8.3927 23.324 8.2027 23.094C6.7127 21.194 5.8627 18.924 5.8627 16.464C5.8627 14.014 6.7027 11.744 8.1227 9.944C8.3427 9.654 8.3427 9.284 8.0827 9.024L4.9127 5.854C4.5927 5.534 4.1427 5.534 3.8727 5.864C1.4527 8.734 0.0027 12.444 0.0027 16.464ZM32.9327 16.464C32.9327 12.444 31.4827 8.734 29.0627 5.864C28.7927 5.534 28.3327 5.534 28.0227 5.854L24.8527 9.024C24.5927 9.284 24.5827 9.654 24.8127 9.944C26.2227 11.744 27.0727 14.014 27.0727 16.464C27.0727 18.924 26.2227 21.194 24.7327 23.094C24.5427 23.324 24.5527 23.624 24.7627 23.844L28.0127 27.094C28.3327 27.414 28.7827 27.414 29.0627 27.074C31.4827 24.204 32.9327 20.494 32.9327 16.464ZM18.3627 17.664L18.8627 17.394V21.584C18.8627 22.084 19.1527 22.384 19.6327 22.384C20.0927 22.384 20.3827 22.084 20.3827 21.584V16.594L21.5627 15.964C21.8427 15.814 21.9527 15.604 21.9527 15.384C21.9527 14.984 21.5327 14.604 21.0527 14.864L20.3827 15.214V11.374C20.3827 10.874 20.0927 10.564 19.6327 10.564C19.1527 10.564 18.8627 10.874 18.8627 11.364V16.024L17.8027 16.584C17.5427 16.734 17.4027 16.964 17.4027 17.174C17.4027 17.584 17.8327 17.934 18.3627 17.664ZM11.9327 22.234H16.2827C16.6427 22.234 16.9127 21.984 16.9127 21.624C16.9127 21.284 16.6427 21.044 16.2827 21.044H13.1627V20.894L16.5827 15.394C16.7527 15.144 16.8527 14.954 16.8527 14.684C16.8527 14.304 16.6427 13.954 16.0927 13.954H11.8627C11.5127 13.954 11.2427 14.214 11.2427 14.564C11.2427 14.904 11.5127 15.164 11.8627 15.164H15.0527V15.314L11.4827 20.934C11.3427 21.154 11.2427 21.344 11.2427 21.564C11.2427 21.954 11.5227 22.234 11.9327 22.234Z" /></svg>