
<svg
    viewBox={0 0 30.529296875 29.17578125}
    xmlns="http://www.w3.org/2000/svg"
>
    <path
        fill="inherit"
        d="M1.0937 29.179H29.4237C30.0237 29.179 30.5337 28.669 30.5337 28.069C30.5337 27.469 30.0237 26.979 29.4237 26.979H28.7137V25.979C28.7137 25.429 28.3937 25.099 27.8337 25.099H26.9637V9.379H28.1637C28.9137 9.379 29.3537 8.829 29.3537 8.269C29.3537 7.859 29.1237 7.509 28.6137 7.219L16.9437 0.479C16.3937 0.169 15.8137 -0.001 15.2537 -0.001C14.6937 -0.001 14.1137 0.169 13.5937 0.479L1.9137 7.219C1.3937 7.509 1.1737 7.859 1.1737 8.269C1.1737 8.829 1.6137 9.379 2.3637 9.379H3.5637V25.099H2.7037C2.1437 25.099 1.8137 25.429 1.8137 25.979V26.979H1.0937C0.4937 26.979 0.0037 27.469 0.0037 28.069C0.0037 28.669 0.4937 29.179 1.0937 29.179ZM16.2537 16.169C16.2537 15.939 16.3937 15.709 16.6637 15.559L17.7637 14.969V10.189C17.7637 9.649 18.0637 9.349 18.5537 9.349C19.0337 9.349 19.3337 9.649 19.3337 10.199V14.139L20.0137 13.769C20.5037 13.519 20.9637 13.909 20.9637 14.329C20.9637 14.549 20.8337 14.769 20.5537 14.929L19.3337 15.569V20.699C19.3337 21.219 19.0337 21.529 18.5537 21.529C18.0637 21.529 17.7637 21.219 17.7637 20.699V16.389L17.2437 16.669C16.6937 16.969 16.2537 16.579 16.2537 16.169ZM10.5937 21.369C10.1837 21.369 9.8837 21.099 9.8837 20.669C9.8837 20.449 9.9937 20.249 10.1337 20.029L13.8237 14.249V14.079H10.5237C10.1737 14.079 9.8837 13.839 9.8837 13.469C9.8837 13.109 10.1737 12.849 10.5237 12.849H14.8937C15.4637 12.849 15.6637 13.209 15.6637 13.589C15.6637 13.879 15.5537 14.069 15.4037 14.339L11.8837 19.989V20.139H15.0837C15.4637 20.139 15.7537 20.399 15.7537 20.739C15.7537 21.109 15.4637 21.369 15.0837 21.369Z"
        fillRule="evenodd"
        clipRule="evenodd"
    />
</svg>
        