
<svg
    viewBox={0 0 27.890625 27.890625}
    xmlns="http://www.w3.org/2000/svg"
>
    <path
        fill="inherit"
        d="M13.9427 27.8864C21.6427 27.8864 27.8927 21.6264 27.8927 13.9464C27.8927 6.2464 21.6427 -0.0036 13.9427 -0.0036C6.2627 -0.0036 0.0027 6.2464 0.0027 13.9464C0.0027 21.6264 6.2627 27.8864 13.9427 27.8864ZM14.9327 14.5064C14.9327 14.2764 15.0627 14.0364 15.3427 13.8864L16.4327 13.3164V8.5164C16.4327 7.9964 16.7327 7.6864 17.2227 7.6864C17.7027 7.6864 18.0027 7.9964 18.0027 8.5264V12.4864L18.6927 12.0964C19.1827 11.8564 19.6327 12.2464 19.6327 12.6564C19.6327 12.8764 19.5127 13.1064 19.2227 13.2664L18.0027 13.9064V19.0264C18.0027 19.5464 17.7027 19.8664 17.2227 19.8664C16.7327 19.8664 16.4327 19.5464 16.4327 19.0264V14.7264L15.9127 15.0164C15.3627 15.2964 14.9327 14.9264 14.9327 14.5064ZM9.2727 19.7164C8.8627 19.7164 8.5627 19.4264 8.5627 19.0064C8.5627 18.7864 8.6727 18.5964 8.8027 18.3764L12.4927 12.5764V12.4164H9.2027C8.8427 12.4164 8.5627 12.1664 8.5627 11.7964C8.5627 11.4464 8.8427 11.1864 9.2027 11.1864H13.5627C14.1327 11.1864 14.3427 11.5364 14.3427 11.9364C14.3427 12.2064 14.2327 12.3964 14.0827 12.6764L10.5527 18.3164V18.4664H13.7527C14.1327 18.4664 14.4227 18.7464 14.4227 19.0764C14.4227 19.4364 14.1327 19.7164 13.7527 19.7164Z"
        fillRule="evenodd"
        clipRule="evenodd"
    />
</svg>
        