<svg viewBox="0 0 30.529296875 29.17578125" xmlns="http://www.w3.org/2000/svg"><path d="M1.8137 25.919H28.7137V25.009C28.7137 24.459 28.3937 24.129 27.8337 24.129H26.9637V9.379H28.1637C28.9137 9.379 29.3537 8.829 29.3537 8.269C29.3537 7.859 29.1237 7.509 28.6137 7.219L16.9437 0.479C16.3937 0.169 15.8137 -0.001 15.2537 -0.001C14.6937 -0.001 14.1137 0.169 13.5937 0.479L1.9137 7.219C1.3937 7.509 1.1737 7.859 1.1737 8.269C1.1737 8.829 1.6137 9.379 2.3637 9.379H3.5637V24.129H2.7037C2.1437 24.129 1.8137 24.459 1.8137 25.009ZM5.6337 24.129V7.629L14.7237 2.529C14.8937 2.429 15.0837 2.379 15.2537 2.379C15.4337 2.379 15.6237 2.429 15.8037 2.529L24.8937 7.629V24.129ZM18.4537 20.129C18.9237 20.129 19.2137 19.829 19.2137 19.329V14.339L20.3837 13.709C20.6737 13.559 20.7837 13.339 20.7837 13.129C20.7837 12.729 20.3537 12.349 19.8837 12.609L19.2137 12.959V9.119C19.2137 8.609 18.9237 8.309 18.4537 8.309C17.9737 8.309 17.6937 8.609 17.6937 9.109V13.769L16.6237 14.329C16.3637 14.479 16.2237 14.709 16.2237 14.919C16.2237 15.329 16.6537 15.679 17.1837 15.409L17.6937 15.139V19.329C17.6937 19.829 17.9737 20.129 18.4537 20.129ZM10.7437 19.979H15.0937C15.4637 19.979 15.7337 19.729 15.7337 19.369C15.7337 19.029 15.4637 18.789 15.0937 18.789H11.9937V18.639L15.4037 13.139C15.5537 12.889 15.6637 12.699 15.6637 12.429C15.6637 12.049 15.4637 11.699 14.9037 11.699H10.6737C10.3337 11.699 10.0637 11.959 10.0637 12.309C10.0637 12.649 10.3337 12.909 10.6737 12.909H13.8737V13.059L10.2937 18.679C10.1537 18.899 10.0637 19.089 10.0637 19.309C10.0637 19.699 10.3537 19.979 10.7437 19.979ZM1.0937 29.179H29.4237C30.0237 29.179 30.5337 28.669 30.5337 28.069C30.5337 27.469 30.0237 26.979 29.4237 26.979H1.0937C0.4937 26.979 0.0037 27.469 0.0037 28.069C0.0037 28.669 0.4937 29.179 1.0937 29.179Z" /></svg>