
<svg
    viewBox="0 0 30.544813437289534 27.890625"
    xmlns="http://www.w3.org/2000/svg"
>
    <path
        fill="inherit"
        d="M0.9769 11.3064C-0.0131 11.3064 -0.2531 11.9764 0.2769 12.7464L3.3369 17.0864C3.7869 17.7164 4.4469 17.7064 4.8869 17.0864L7.9269 12.7264C8.4669 11.9764 8.2069 11.3064 7.2469 11.3064H5.2769C6.4669 6.1564 11.0769 2.3264 16.5969 2.3264C23.0269 2.3264 28.2169 7.5164 28.2169 13.9464C28.2169 20.3664 23.0269 25.5664 16.5969 25.5664C12.7169 25.5664 9.2569 23.6564 7.1969 20.7564C6.7669 20.1964 6.1269 20.0164 5.5569 20.3564C5.0069 20.6964 4.8369 21.4664 5.3069 22.0664C7.8369 25.6064 11.9769 27.8864 16.5969 27.8864C24.2969 27.8864 30.5469 21.6464 30.5469 13.9464C30.5469 6.2464 24.2969 -0.0036 16.5969 -0.0036C9.8069 -0.0036 4.1269 4.8664 2.8969 11.3064ZM19.7869 19.6864C20.2469 19.6864 20.5369 19.3764 20.5369 18.8764V13.8864L21.7169 13.2764C21.9969 13.1264 22.1069 12.9064 22.1069 12.6864C22.1069 12.2864 21.6869 11.9064 21.2069 12.1564L20.5369 12.5064V8.6864C20.5369 8.1764 20.2469 7.8564 19.7869 7.8564C19.3069 7.8564 19.0169 8.1764 19.0169 8.6664V13.3164L17.9569 13.8864C17.6969 14.0264 17.5569 14.2564 17.5569 14.4764C17.5569 14.8864 17.9769 15.2464 18.5169 14.9664L19.0169 14.6964V18.8764C19.0169 19.3764 19.3069 19.6864 19.7869 19.6864ZM12.0769 19.5364H16.4169C16.7869 19.5364 17.0669 19.2764 17.0669 18.9364C17.0669 18.5964 16.7869 18.3364 16.4169 18.3364H13.3169V18.1864L16.7369 12.6964C16.8869 12.4364 16.9969 12.2464 16.9969 11.9864C16.9969 11.6064 16.7869 11.2664 16.2269 11.2664H12.0069C11.6669 11.2664 11.3869 11.5164 11.3869 11.8564C11.3869 12.2064 11.6669 12.4564 12.0069 12.4564H15.2069V12.6064L11.6269 18.2364C11.4869 18.4564 11.3869 18.6364 11.3869 18.8564C11.3869 19.2664 11.6769 19.5364 12.0769 19.5364Z"
        fillRule="evenodd"
        clipRule="evenodd"
    />
</svg>
        