
<svg
    viewBox={0 0 22.708984375 26.90625}
    xmlns="http://www.w3.org/2000/svg"
>
    <path
        fill="inherit"
        d="M16.4837 14.6442L17.3337 14.1942V25.5142C17.3337 26.3142 17.8837 26.9042 18.6437 26.9042C19.4137 26.9042 19.9637 26.3142 19.9637 25.5142V12.7742L21.9537 11.6942C22.5037 11.4142 22.7137 11.0042 22.7137 10.6342C22.7137 9.9242 21.9537 9.3142 21.0937 9.7642L19.9637 10.3642V1.3842C19.9637 0.5742 19.4137 0.0042 18.6437 0.0042C17.8837 0.0042 17.3337 0.5742 17.3337 1.3842V11.7742L15.4737 12.7742C14.9937 13.0342 14.7637 13.4442 14.7637 13.8242C14.7637 14.5442 15.5037 15.1642 16.4837 14.6442ZM1.3137 26.5742H11.8837C12.5737 26.5742 13.0037 26.1442 13.0037 25.4842C13.0037 24.8242 12.5737 24.4142 11.8837 24.4142H3.2137V24.1342L12.4137 10.5542C12.7537 10.0442 12.9337 9.7242 12.9337 9.1442C12.9337 8.1742 12.2637 7.7842 11.4937 7.7842H1.1037C0.4537 7.7842 0.0037 8.2442 0.0037 8.8742C0.0037 9.5042 0.4537 9.9542 1.1037 9.9542H9.8137V10.2542L0.3937 24.0942C0.1337 24.4742 0.0037 24.8042 0.0037 25.2842C0.0037 26.0342 0.5337 26.5742 1.3137 26.5742Z"
        fillRule="evenodd"
        clipRule="evenodd"
    />
</svg>
        