
<svg
    viewBox={0 0 32.935546875 27.26189615322232}
    xmlns="http://www.w3.org/2000/svg"
>
    <path
        fill="inherit"
        d="M32.9327 16.3992C32.9327 7.7792 26.3227 0.7192 17.8927 -0.0008C17.4627 -0.0408 17.1327 0.2792 17.1327 0.7192V5.1892C17.1327 5.5592 17.3927 5.8392 17.7627 5.8692C22.9927 6.5092 27.0727 10.9792 27.0727 16.3992C27.0727 18.8592 26.2227 21.1292 24.7327 23.0292C24.5427 23.2592 24.5527 23.5592 24.7627 23.7792L28.0227 27.0292C28.3327 27.3292 28.7927 27.3292 29.0627 27.0092C31.4827 24.1392 32.9327 20.4292 32.9327 16.3992ZM0.0027 16.3992C0.0027 20.4392 1.4527 24.1492 3.8727 27.0192C4.1427 27.3492 4.5927 27.3292 4.9127 27.0292L8.1727 23.7792C8.3827 23.5592 8.3927 23.2592 8.2027 23.0292C6.7027 21.1292 5.8627 18.8592 5.8627 16.3992C5.8627 10.9792 9.9427 6.5092 15.1727 5.8692C15.5427 5.8392 15.8027 5.5592 15.8027 5.1892V0.7192C15.8027 0.2792 15.4727 -0.0408 15.0427 -0.0008C6.6127 0.7192 0.0027 7.7792 0.0027 16.3992ZM18.3627 17.5992L18.8627 17.3292V21.5192C18.8627 22.0192 19.1527 22.3192 19.6327 22.3192C20.0927 22.3192 20.3827 22.0192 20.3827 21.5192V16.5292L21.5627 15.8992C21.8427 15.7492 21.9527 15.5392 21.9527 15.3192C21.9527 14.9192 21.5327 14.5392 21.0527 14.7992L20.3827 15.1492V11.3092C20.3827 10.8092 20.0927 10.4992 19.6327 10.4992C19.1527 10.4992 18.8627 10.8092 18.8627 11.2992V15.9592L17.8027 16.5192C17.5427 16.6692 17.4027 16.8992 17.4027 17.1092C17.4027 17.5192 17.8327 17.8692 18.3627 17.5992ZM11.9327 22.1692H16.2827C16.6427 22.1692 16.9127 21.9192 16.9127 21.5592C16.9127 21.2192 16.6427 20.9792 16.2827 20.9792H13.1627V20.8292L16.5827 15.3292C16.7527 15.0792 16.8527 14.8892 16.8527 14.6192C16.8527 14.2392 16.6427 13.8892 16.0927 13.8892H11.8627C11.5127 13.8892 11.2427 14.1492 11.2427 14.4992C11.2427 14.8392 11.5127 15.0992 11.8627 15.0992H15.0527V15.2492L11.4827 20.8692C11.3427 21.0892 11.2427 21.2792 11.2427 21.4992C11.2427 21.8892 11.5227 22.1692 11.9327 22.1692Z"
        fillRule="evenodd"
        clipRule="evenodd"
    />
</svg>
        