
<svg
    viewBox={0 0 25.169921875 25.169921875}
    xmlns="http://www.w3.org/2000/svg"
>
    <path
        fill="inherit"
        d="M4.2937 25.1692H20.8737C23.7437 25.1692 25.1737 23.7592 25.1737 20.9492V4.2392C25.1737 1.4192 23.7437 -0.0008 20.8737 -0.0008H4.2937C1.4337 -0.0008 0.0037 1.4192 0.0037 4.2392V20.9492C0.0037 23.7592 1.4337 25.1692 4.2937 25.1692ZM13.5737 13.1392C13.5737 12.9092 13.7137 12.6692 13.9837 12.5192L15.0837 11.9492V7.1492C15.0837 6.6292 15.3837 6.3192 15.8737 6.3192C16.3537 6.3192 16.6537 6.6292 16.6537 7.1592V11.1192L17.3337 10.7292C17.8237 10.4892 18.2837 10.8792 18.2837 11.2892C18.2837 11.5092 18.1537 11.7392 17.8737 11.8992L16.6537 12.5392V17.6592C16.6537 18.1792 16.3537 18.4992 15.8737 18.4992C15.3837 18.4992 15.0837 18.1792 15.0837 17.6592V13.3592L14.5637 13.6492C14.0137 13.9292 13.5737 13.5592 13.5737 13.1392ZM7.9337 18.3492C7.5037 18.3492 7.2037 18.0592 7.2037 17.6392C7.2037 17.4192 7.3137 17.2292 7.4537 17.0092L11.1437 11.2092V11.0492H7.8437C7.4937 11.0492 7.2037 10.7992 7.2037 10.4292C7.2037 10.0792 7.4937 9.8192 7.8437 9.8192H12.2237C12.7837 9.8192 13.0037 10.1692 13.0037 10.5692C13.0037 10.8392 12.8837 11.0292 12.7237 11.3092L9.2037 16.9492V17.0992H12.4137C12.7837 17.0992 13.0737 17.3792 13.0737 17.7092C13.0737 18.0692 12.7837 18.3492 12.4137 18.3492Z"
        fillRule="evenodd"
        clipRule="evenodd"
    />
</svg>
        