
<svg
    viewBox={0 0 25.169921875 25.169921875}
    xmlns="http://www.w3.org/2000/svg"
>
    <path
        fill="inherit"
        d="M4.2937 25.1692H20.8737C23.7437 25.1692 25.1737 23.7592 25.1737 20.9492V4.2392C25.1737 1.4192 23.7437 -0.0008 20.8737 -0.0008H4.2937C1.4337 -0.0008 0.0037 1.4192 0.0037 4.2392V20.9492C0.0037 23.7592 1.4337 25.1692 4.2937 25.1692ZM4.3237 22.9692C2.9537 22.9692 2.2037 22.2392 2.2037 20.8192V4.3592C2.2037 2.9392 2.9537 2.1992 4.3237 2.1992H20.8537C22.2037 2.1992 22.9737 2.9392 22.9737 4.3592V20.8192C22.9737 22.2392 22.2037 22.9692 20.8537 22.9692ZM15.7737 18.3192C16.2437 18.3192 16.5337 18.0092 16.5337 17.5092V12.5192L17.7037 11.9092C17.9937 11.7592 18.1037 11.5392 18.1037 11.3192C18.1037 10.9192 17.6737 10.5392 17.2037 10.7892L16.5337 11.1392V7.3192C16.5337 6.8092 16.2437 6.4892 15.7737 6.4892C15.3037 6.4892 15.0137 6.8092 15.0137 7.2992V11.9492L13.9437 12.5192C13.6837 12.6592 13.5537 12.8892 13.5537 13.1092C13.5537 13.5192 13.9737 13.8792 14.5037 13.5992L15.0137 13.3292V17.5092C15.0137 18.0092 15.3037 18.3192 15.7737 18.3192ZM8.0837 18.1692H12.4237C12.7837 18.1692 13.0537 17.9092 13.0537 17.5692C13.0537 17.2292 12.7837 16.9692 12.4237 16.9692H9.3137V16.8192L12.7237 11.3292C12.8837 11.0692 13.0037 10.8792 13.0037 10.6192C13.0037 10.2392 12.7837 9.8992 12.2337 9.8992H7.9937C7.6537 9.8992 7.3837 10.1492 7.3837 10.4892C7.3837 10.8392 7.6537 11.0892 7.9937 11.0892H11.1937V11.2392L7.6137 16.8692C7.4737 17.0892 7.3837 17.2692 7.3837 17.4892C7.3837 17.8992 7.6737 18.1692 8.0837 18.1692Z"
        fillRule="evenodd"
        clipRule="evenodd"
    />
</svg>
        