
<svg
    viewBox={0 0 27.890625 27.890625}
    xmlns="http://www.w3.org/2000/svg"
>
    <path
        fill="inherit"
        d="M13.9427 27.8927C21.6427 27.8927 27.8927 21.6427 27.8927 13.9427C27.8927 6.2627 21.6427 0.0027 13.9427 0.0027C6.2627 0.0027 0.0027 6.2627 0.0027 13.9427C0.0027 21.6427 6.2627 27.8927 13.9427 27.8927ZM11.6627 11.1327C11.1927 10.5727 10.4727 10.2427 9.7227 10.2427C9.2427 10.2427 8.7727 10.3727 8.3927 10.5827C8.2127 10.2627 8.1527 9.9627 8.1527 9.6227C8.1527 8.5627 9.0127 7.7227 10.0627 7.7527C10.0627 7.2727 10.5027 6.7827 11.0327 6.8327C11.1727 6.2227 11.8027 5.6427 12.7827 5.6427C13.5227 5.6427 14.1827 6.0527 14.4627 6.7227C14.6727 6.6827 14.9027 6.7027 15.0627 6.7527C15.4127 6.4527 15.8327 6.2727 16.3127 6.2727C17.0627 6.2727 17.5927 6.7227 17.8827 7.4127C18.9727 7.4227 19.7427 8.2727 19.7427 9.4627C19.7427 9.8527 19.6227 10.2527 19.4027 10.5827C19.0127 10.3627 18.5627 10.2427 18.1027 10.2427C17.3527 10.2427 16.6127 10.5727 16.1427 11.1327C15.6527 10.4227 14.7827 10.0227 13.9027 10.0227C13.0427 10.0227 12.1727 10.4227 11.6627 11.1327ZM13.0527 21.9827L12.2227 12.7727C12.1227 11.5127 13.1527 11.0227 13.9027 11.0227C14.6527 11.0227 15.6927 11.5127 15.6027 12.7727L14.7627 21.9827ZM11.2127 21.9827C10.2127 21.9827 9.7527 21.4127 9.5527 20.4427L8.1927 13.2627C7.9427 11.9327 8.8227 11.2527 9.7227 11.2527C10.4627 11.2527 11.1727 11.7127 11.2427 12.6227L12.0827 21.9827ZM16.6127 21.9827H15.7327L16.5827 12.6227C16.6527 11.7127 17.3627 11.2527 18.1027 11.2527C19.0027 11.2527 19.8827 11.9327 19.6327 13.2627L18.2627 20.4427C18.0727 21.4127 17.6127 21.9827 16.6127 21.9827Z"
        fillRule="evenodd"
        clipRule="evenodd"
    />
</svg>
        