
<svg
    viewBox="0 0 25.02711107967108 34.576171875"
    xmlns="http://www.w3.org/2000/svg"
>
    <path
        fill="inherit"
        d="M6.2976 32.386H14.5676C14.9876 32.606 15.4676 32.756 15.9776 32.796C16.6076 33.856 17.8176 34.576 19.1476 34.576C20.4776 34.576 21.7076 33.826 22.2776 32.676C23.9076 32.296 25.0276 30.856 25.0276 29.186C25.0276 27.686 24.0976 26.416 22.8376 25.776C22.7976 24.706 22.3076 23.826 21.5376 23.256L23.2876 14.036C23.5876 12.456 23.1176 11.146 22.1976 10.236C22.7976 9.516 23.1676 8.586 23.1676 7.556C23.1676 5.206 21.6676 3.556 19.4876 3.496C18.9276 2.176 17.8676 1.286 16.3876 1.286C15.4476 1.286 14.5776 1.616 13.9276 2.216C13.5876 2.116 13.1176 2.096 12.7376 2.176C12.1376 0.846 10.8376 -0.004 9.3876 -0.004C7.4276 -0.004 6.1576 1.186 5.9176 2.376C4.8776 2.286 3.9976 3.236 3.9976 4.166C1.9176 4.106 0.1976 5.826 0.1976 7.916C0.1976 8.846 0.5276 9.696 1.0576 10.366C0.2276 11.256 -0.2024 12.506 0.0876 14.036L2.9876 29.316C3.3576 31.286 4.3376 32.386 6.2976 32.386ZM11.6876 8.276C9.8676 8.276 8.3876 9.096 7.6076 10.346C6.8476 9.456 5.7676 8.966 4.5376 8.966C3.9076 8.966 3.3176 9.076 2.7676 9.266C2.3876 8.956 2.1576 8.466 2.1576 7.916C2.1576 6.626 3.5576 5.766 5.0276 6.236C4.8376 4.836 6.2676 3.796 7.6676 4.486C7.2276 2.886 8.2376 1.986 9.3876 1.986C10.4776 1.986 11.5976 2.826 11.3876 4.456C12.2676 3.866 13.7576 3.996 14.5176 4.566C14.8676 3.746 15.6076 3.266 16.4776 3.266C17.7176 3.266 18.3376 4.256 18.2976 5.616C19.9976 5.346 21.2176 6.116 21.2176 7.696C21.2176 8.296 20.9076 8.846 20.4376 9.216C19.9376 9.066 19.3976 8.966 18.8476 8.966C17.6076 8.966 16.5276 9.456 15.7576 10.346C14.9876 9.096 13.5176 8.276 11.6876 8.276ZM10.4576 30.356L8.9076 13.246C8.7276 11.466 9.8376 10.306 11.6876 10.306C13.5476 10.306 14.6376 11.466 14.4676 13.246L13.2176 27.196C12.8276 27.766 12.6176 28.456 12.6176 29.176C12.6176 29.586 12.6776 29.986 12.8076 30.356ZM16.4976 13.326C16.6376 11.816 17.6176 11.006 18.8476 11.006C20.3276 11.006 21.6376 12.096 21.2776 13.936L19.6276 22.516C19.4676 22.506 19.3076 22.486 19.1476 22.486C17.1976 22.486 15.5976 23.746 15.4676 25.636C15.4476 25.636 15.4176 25.646 15.3776 25.666ZM6.3676 30.356C5.6276 30.356 5.1776 29.966 5.0376 29.216L2.0876 13.936C1.7276 12.096 3.0576 11.006 4.5376 11.006C5.7676 11.006 6.7476 11.816 6.8876 13.326L8.4176 30.356ZM19.1476 32.816C18.1076 32.816 17.1276 32.156 17.1776 30.926C15.7976 31.366 14.3676 30.636 14.3676 29.176C14.3676 27.686 15.5376 26.856 17.2576 27.136C16.8076 25.866 17.4976 24.256 19.1476 24.256C20.7576 24.256 21.5276 25.796 21.0876 27.236C22.3576 27.096 23.2176 27.916 23.2176 29.256C23.2176 30.436 22.3876 31.126 21.0176 31.006C21.0576 32.056 20.1176 32.816 19.1476 32.816Z"
        fillRule="evenodd"
        clipRule="evenodd"
    />
</svg>
        