<svg viewBox="0 0 27.890625 27.890625" xmlns="http://www.w3.org/2000/svg"><path d="M13.9427 27.8864C21.6427 27.8864 27.8927 21.6464 27.8927 13.9464C27.8927 6.2464 21.6427 -0.0036 13.9427 -0.0036C6.2527 -0.0036 0.0027 6.2464 0.0027 13.9464C0.0027 21.6464 6.2527 27.8864 13.9427 27.8864ZM13.9427 25.5664C7.5227 25.5664 2.3227 20.3664 2.3227 13.9464C2.3227 7.5164 7.5227 2.3264 13.9427 2.3264C20.3727 2.3264 25.5627 7.5164 25.5627 13.9464C25.5627 20.3664 20.3727 25.5664 13.9427 25.5664ZM11.7327 11.2064C12.2227 10.5164 13.0727 10.1264 13.9027 10.1264C14.7527 10.1264 15.6027 10.5164 16.0827 11.2064C16.5427 10.6664 17.2427 10.3464 17.9827 10.3464C18.4327 10.3464 18.8627 10.4564 19.2327 10.6764C19.4427 10.3664 19.5627 9.9764 19.5627 9.5864C19.5627 8.4364 18.8227 7.6164 17.7627 7.6064C17.4827 6.9464 16.9627 6.5064 16.2427 6.5064C15.7727 6.5064 15.3627 6.6564 15.0527 6.9564C14.8727 6.9164 14.6427 6.9064 14.4527 6.9464C14.1627 6.2864 13.5327 5.8764 12.8227 5.8764C11.8627 5.8764 11.2527 6.4564 11.1327 7.0364C10.6227 6.9864 10.1727 7.4664 10.1727 7.9164C9.1627 7.8864 8.3227 8.7264 8.3227 9.7464C8.3227 10.0764 8.3927 10.3664 8.5627 10.6764C8.9327 10.4764 9.3827 10.3464 9.8427 10.3464C10.5827 10.3464 11.2827 10.6664 11.7327 11.2064ZM13.0827 21.7364H14.7427L15.5427 12.7964C15.6427 11.5764 14.6327 11.1064 13.9027 11.1064C13.1927 11.1064 12.1827 11.5764 12.2727 12.7964ZM11.2927 21.7364H12.1427L11.3227 12.6464C11.2527 11.7764 10.5727 11.3164 9.8427 11.3164C8.9727 11.3164 8.1227 11.9864 8.3627 13.2764L9.6927 20.2364C9.8727 21.1764 10.3227 21.7364 11.2927 21.7364ZM16.5327 21.7364C17.5027 21.7364 17.9527 21.1764 18.1327 20.2364L19.4527 13.2764C19.7027 11.9864 18.8527 11.3164 17.9827 11.3164C17.2527 11.3164 16.5727 11.7764 16.5027 12.6464L15.6827 21.7364Z" /></svg>