
<svg
    viewBox={0 0 36.71584544341549 19.126953125}
    xmlns="http://www.w3.org/2000/svg"
>
    <path
        fill="inherit"
        d="M10.0609 0.0014C8.1909 0.0014 7.0909 0.7914 5.7509 2.1914L1.0509 7.1814C-0.3591 8.6414 -0.3391 10.3814 1.0409 11.8514L5.7409 16.9214C6.9609 18.2214 8.3109 19.1314 10.0609 19.1314H26.6609C28.4109 19.1314 29.7509 18.2214 30.9809 16.9214L35.6709 11.8514C37.0509 10.3814 37.0809 8.6414 35.6709 7.1814L30.9709 2.1914C29.6109 0.7914 28.5309 0.0014 26.6609 0.0014ZM10.0609 2.2014H26.6609C27.8509 2.2014 28.3409 2.6014 29.2309 3.5114L33.9309 8.4614C34.6609 9.2114 34.6609 9.8414 33.9509 10.5814L29.2309 15.6014C28.4509 16.4014 27.7309 16.9214 26.6609 16.9214H10.0609C8.9809 16.9214 8.2709 16.4014 7.4909 15.6014L2.7709 10.5814C2.0509 9.8414 2.0509 9.2114 2.7909 8.4614L7.4909 3.5114C8.3809 2.6014 8.8609 2.2014 10.0609 2.2014ZM9.2709 7.1814C7.9709 7.1814 6.9009 8.2614 6.9009 9.5614C6.9009 10.8514 7.9709 11.9314 9.2709 11.9314C10.5809 11.9314 11.6509 10.8514 11.6509 9.5614C11.6509 8.2614 10.5809 7.1814 9.2709 7.1814ZM27.4709 7.1814C26.1709 7.1814 25.0909 8.2614 25.0909 9.5614C25.0909 10.8514 26.1709 11.9314 27.4709 11.9314C28.7609 11.9314 29.8409 10.8514 29.8409 9.5614C29.8409 8.2614 28.7609 7.1814 27.4709 7.1814ZM18.3709 9.6114C17.0609 9.6114 16.0009 10.6914 16.0009 11.9914C16.0009 13.2914 17.0609 14.3714 18.3709 14.3714C19.6709 14.3714 20.7409 13.2914 20.7409 11.9914C20.7409 10.6914 19.6709 9.6114 18.3709 9.6114Z"
        fillRule="evenodd"
        clipRule="evenodd"
    />
</svg>
        