
<svg
    viewBox="0 0 25.169921875 25.169921875"
    xmlns="http://www.w3.org/2000/svg"
>
    <path
        fill="inherit"
        d="M4.2937 25.1692H20.8737C23.7437 25.1692 25.1737 23.7592 25.1737 20.9492V4.2392C25.1737 1.4192 23.7437 -0.0008 20.8737 -0.0008H4.2937C1.4337 -0.0008 0.0037 1.4192 0.0037 4.2392V20.9492C0.0037 23.7592 1.4337 25.1692 4.2937 25.1692ZM4.3237 22.9692C2.9537 22.9692 2.2037 22.2392 2.2037 20.8192V4.3592C2.2037 2.9392 2.9537 2.1992 4.3237 2.1992H20.8537C22.2037 2.1992 22.9737 2.9392 22.9737 4.3592V20.8192C22.9737 22.2392 22.2037 22.9692 20.8537 22.9692ZM4.7737 13.8492C4.7737 14.3692 5.1237 14.7092 5.6437 14.7092H6.2437V15.3692C6.2437 17.7192 9.2937 19.8792 12.5937 19.8792C15.8737 19.8792 18.9237 17.7192 18.9237 15.3692V14.7092H19.5237C20.0437 14.7092 20.3937 14.3692 20.3937 13.8492V11.3192C20.3937 10.7992 20.0437 10.4592 19.5237 10.4592H18.9237V9.7892C18.9237 7.4492 15.8737 5.2892 12.5937 5.2892C9.2937 5.2892 6.2437 7.4492 6.2437 9.7892V10.4592H5.6437C5.1237 10.4592 4.7737 10.7992 4.7737 11.3192ZM9.1837 14.1792C8.3137 14.1792 7.5837 13.4692 7.5837 12.5792C7.5837 11.6992 8.3137 10.9892 9.1837 10.9892C10.0737 10.9892 10.7837 11.6992 10.7837 12.5792C10.7837 13.4692 10.0737 14.1792 9.1837 14.1792ZM15.9837 14.1792C15.1037 14.1792 14.3837 13.4692 14.3837 12.5792C14.3837 11.6992 15.1037 10.9892 15.9837 10.9892C16.8537 10.9892 17.5837 11.6992 17.5837 12.5792C17.5837 13.4692 16.8537 14.1792 15.9837 14.1792Z"
        fillRule="evenodd"
        clipRule="evenodd"
    />
</svg>
        