
<svg
    viewBox="0 0 15.17578125 29.83203125"
    xmlns="http://www.w3.org/2000/svg"
>
    <path
        fill="inherit"
        d="M4.2137 29.8271H10.9637C13.7437 29.8271 15.1737 28.4071 15.1737 25.6771V4.1671C15.1737 1.4371 13.7437 -0.0029 10.9637 -0.0029H4.2137C1.4537 -0.0029 0.0037 1.4371 0.0037 4.1671V25.6771C0.0037 28.4071 1.4537 29.8271 4.2137 29.8271ZM4.2537 27.6271C2.9637 27.6271 2.2037 26.8971 2.2037 25.5671V4.2771C2.2037 2.9371 2.9637 2.1971 4.2537 2.1971H10.9237C12.2137 2.1971 12.9737 2.9371 12.9737 4.2771V25.5671C12.9737 26.8971 12.2137 27.6271 10.9237 27.6271ZM7.6037 9.5971C8.7237 9.5971 9.6537 8.6771 9.6537 7.5371C9.6537 6.4071 8.7237 5.4971 7.6037 5.4971C6.4637 5.4971 5.5337 6.4071 5.5337 7.5371C5.5337 8.6771 6.4637 9.5971 7.6037 9.5971ZM7.6037 16.9671C8.7237 16.9671 9.6537 16.0471 9.6537 14.9171C9.6537 13.7971 8.7237 12.8671 7.6037 12.8671C6.4637 12.8671 5.5337 13.7971 5.5337 14.9171C5.5337 16.0471 6.4637 16.9671 7.6037 16.9671ZM7.6037 24.3471C8.7237 24.3471 9.6537 23.4171 9.6537 22.2871C9.6537 21.1671 8.7237 20.2471 7.6037 20.2471C6.4637 20.2471 5.5337 21.1671 5.5337 22.2871C5.5337 23.4171 6.4637 24.3471 7.6037 24.3471Z"
        fillRule="evenodd"
        clipRule="evenodd"
    />
</svg>
        