<svg viewBox="0 0 25.169921875 25.169921875" xmlns="http://www.w3.org/2000/svg"><path d="M4.2937 25.1692H20.8737C23.7437 25.1692 25.1737 23.7592 25.1737 20.9492V4.2392C25.1737 1.4192 23.7437 -0.0008 20.8737 -0.0008H4.2937C1.4337 -0.0008 0.0037 1.4192 0.0037 4.2392V20.9492C0.0037 23.7592 1.4337 25.1692 4.2937 25.1692ZM7.8237 8.2292H17.3537C18.2537 8.2292 18.5937 8.6292 19.0537 9.1092L21.5637 11.6392C22.0637 12.1392 22.0637 12.9892 21.5637 13.4892L19.0537 16.0492C18.5937 16.5292 18.1137 16.9292 17.3537 16.9292H7.8237C7.0537 16.9292 6.5737 16.5292 6.1137 16.0492L3.6137 13.4892C3.1037 12.9892 3.1137 12.1392 3.6137 11.6392L6.1137 9.1092C6.5737 8.6292 6.9137 8.2292 7.8237 8.2292ZM7.5037 11.1792C6.7537 11.1792 6.1137 11.8292 6.1137 12.5792C6.1137 13.3292 6.7537 13.9592 7.5037 13.9592C8.2537 13.9592 8.9037 13.3292 8.9037 12.5792C8.9037 11.8292 8.2537 11.1792 7.5037 11.1792ZM17.6637 11.1792C16.9137 11.1792 16.2837 11.8292 16.2837 12.5792C16.2837 13.3292 16.9137 13.9592 17.6637 13.9592C18.4137 13.9592 19.0537 13.3292 19.0537 12.5792C19.0537 11.8292 18.4137 11.1792 17.6637 11.1792ZM12.5937 12.1992C11.8237 12.1992 11.1937 12.8392 11.1937 13.5892C11.1937 14.3392 11.8237 14.9892 12.5937 14.9892C13.3437 14.9892 13.9737 14.3392 13.9737 13.5892C13.9737 12.8392 13.3437 12.1992 12.5937 12.1992Z" /></svg>