
<svg
    viewBox={0 0 35.90234375 21.369140625}
    xmlns="http://www.w3.org/2000/svg"
>
    <path
        fill="inherit"
        d="M9.6709 0.0025C7.7909 0.0025 6.5509 0.6725 5.3609 2.1725L0.9309 7.9725C-0.3191 9.5825 -0.2991 11.7125 0.9209 13.3125L5.3409 19.1725C6.4409 20.6025 7.9209 21.3725 9.6709 21.3725H26.2409C27.9909 21.3725 29.4609 20.6025 30.5609 19.1725L34.9909 13.3125C36.2009 11.7125 36.2209 9.5825 34.9709 7.9725L30.5409 2.1725C29.3509 0.6725 28.1109 0.0025 26.2409 0.0025ZM8.5709 8.1725C9.9109 8.1725 11.0209 9.2825 11.0209 10.6225C11.0209 11.9625 9.9109 13.0825 8.5709 13.0825C7.2209 13.0825 6.1209 11.9625 6.1209 10.6225C6.1209 9.2825 7.2209 8.1725 8.5709 8.1725ZM27.3309 8.1725C28.6809 8.1725 29.7809 9.2825 29.7809 10.6225C29.7809 11.9625 28.6809 13.0825 27.3309 13.0825C25.9909 13.0825 24.8809 11.9625 24.8809 10.6225C24.8809 9.2825 25.9909 8.1725 27.3309 8.1725ZM17.9509 11.5225C19.2909 11.5225 20.4009 12.6325 20.4009 13.9725C20.4009 15.3225 19.2909 16.4225 17.9509 16.4225C16.6109 16.4225 15.5009 15.3225 15.5009 13.9725C15.5009 12.6325 16.6109 11.5225 17.9509 11.5225Z"
        fillRule="evenodd"
        clipRule="evenodd"
    />
</svg>
        