
<svg
    viewBox={0 0 25.169921875 25.169921875}
    xmlns="http://www.w3.org/2000/svg"
>
    <path
        fill="inherit"
        d="M4.2937 25.1692H20.8737C23.7437 25.1692 25.1737 23.7592 25.1737 20.9492V4.2392C25.1737 1.4192 23.7437 -0.0008 20.8737 -0.0008H4.2937C1.4337 -0.0008 0.0037 1.4192 0.0037 4.2392V20.9492C0.0037 23.7592 1.4337 25.1692 4.2937 25.1692ZM7.0837 19.1992C6.3137 19.1992 5.7537 18.6392 5.7537 17.8692V7.2892C5.7537 6.5192 6.3137 5.9592 7.0837 5.9592H18.0837C18.8537 5.9592 19.4137 6.5192 19.4137 7.2892V17.8692C19.4137 18.6392 18.8537 19.1992 18.0837 19.1992ZM9.8937 12.6192C10.3237 12.6192 10.6637 12.3092 10.6637 11.8692V9.4592C10.6637 9.0392 10.3237 8.6992 9.8937 8.6992C9.4837 8.6992 9.1637 9.0392 9.1637 9.4592V11.8692C9.1637 12.3092 9.4837 12.6192 9.8937 12.6192ZM15.2537 12.6192C15.6637 12.6192 16.0137 12.3092 16.0137 11.8692V9.4592C16.0137 9.0392 15.6637 8.6992 15.2537 8.6992C14.8337 8.6992 14.5037 9.0392 14.5037 9.4592V11.8692C14.5037 12.3092 14.8337 12.6192 15.2537 12.6192ZM11.6937 16.9092H13.4837C13.7537 16.9092 13.8737 16.7792 13.8737 16.5192V15.6692C13.8737 14.9292 13.3137 14.3692 12.5937 14.3692C11.8437 14.3692 11.2937 14.9292 11.2937 15.6692V16.5192C11.2937 16.7792 11.4137 16.9092 11.6937 16.9092Z"
        fillRule="evenodd"
        clipRule="evenodd"
    />
</svg>
        