
<svg
    viewBox={0 0 25.169921875 25.169921875}
    xmlns="http://www.w3.org/2000/svg"
>
    <path
        fill="inherit"
        d="M4.2937 25.1692H20.8737C23.7437 25.1692 25.1737 23.7592 25.1737 20.9492V4.2392C25.1737 1.4192 23.7437 -0.0008 20.8737 -0.0008H4.2937C1.4337 -0.0008 0.0037 1.4192 0.0037 4.2392V20.9492C0.0037 23.7592 1.4337 25.1692 4.2937 25.1692ZM7.2037 19.2092C6.4437 19.2092 5.8837 18.6492 5.8837 17.8792V7.2992C5.8837 6.5392 6.4437 5.9792 7.2037 5.9792H18.0437C18.8137 5.9792 19.3737 6.5392 19.3737 7.2992V17.8792C19.3737 18.6492 18.8137 19.2092 18.0437 19.2092ZM16.7937 12.3892L17.2937 11.8992C17.5237 11.6492 17.5237 11.3592 17.2937 11.1292L15.2737 9.1092C15.0537 8.8692 14.7337 8.8592 14.5037 9.0892L14.0037 9.5992C13.7537 9.8392 13.7537 10.1592 14.0037 10.3892L16.0237 12.3892C16.2537 12.6292 16.5737 12.6492 16.7937 12.3892ZM7.9537 11.8992L8.4637 12.3892C8.6837 12.6492 8.9837 12.6492 9.2237 12.3892L11.2337 10.3892C11.4837 10.1592 11.4937 9.8392 11.2337 9.5992L10.7437 9.1092C10.5137 8.8692 10.2137 8.8692 9.9837 9.1192L7.9537 11.1292C7.7237 11.3592 7.7237 11.6492 7.9537 11.8992ZM12.2637 17.1592H12.9737C13.3037 17.1592 13.5337 16.9492 13.5337 16.6292V14.1192C13.5337 13.7992 13.2937 13.5592 12.9737 13.5592H12.2637C11.9537 13.5592 11.7137 13.7992 11.7137 14.1192V16.6292C11.7137 16.9392 11.9537 17.1592 12.2637 17.1592Z"
        fillRule="evenodd"
        clipRule="evenodd"
    />
</svg>
        