<svg viewBox="0 0 25.169921875 25.169921875" xmlns="http://www.w3.org/2000/svg"><path d="M4.2937 25.1692H20.8737C23.7437 25.1692 25.1737 23.7592 25.1737 20.9492V4.2392C25.1737 1.4192 23.7437 -0.0008 20.8737 -0.0008H4.2937C1.4337 -0.0008 0.0037 1.4192 0.0037 4.2392V20.9492C0.0037 23.7592 1.4337 25.1692 4.2937 25.1692ZM4.3237 22.9692C2.9537 22.9692 2.2037 22.2392 2.2037 20.8192V4.3592C2.2037 2.9392 2.9537 2.1992 4.3237 2.1992H20.8537C22.2037 2.1992 22.9737 2.9392 22.9737 4.3592V20.8192C22.9737 22.2392 22.2037 22.9692 20.8537 22.9692ZM10.2037 20.5192H14.9737C15.7237 20.5192 16.2537 19.9892 16.2537 19.2392V5.9192C16.2537 5.1792 15.7237 4.6492 14.9737 4.6492H10.2037C9.4437 4.6492 8.9137 5.1792 8.9137 5.9192V19.2392C8.9137 19.9892 9.4437 20.5192 10.2037 20.5192ZM12.5937 9.4992C11.8237 9.4992 11.1937 8.8892 11.1937 8.1192C11.1937 7.3592 11.8237 6.7392 12.5937 6.7392C13.3437 6.7392 13.9737 7.3592 13.9737 8.1192C13.9737 8.8892 13.3437 9.4992 12.5937 9.4992ZM12.5937 13.9592C11.8237 13.9592 11.1937 13.3392 11.1937 12.5792C11.1937 11.8092 11.8237 11.1992 12.5937 11.1992C13.3437 11.1992 13.9737 11.8092 13.9737 12.5792C13.9737 13.3392 13.3437 13.9592 12.5937 13.9592ZM12.5937 18.4192C11.8237 18.4192 11.1937 17.7992 11.1937 17.0392C11.1937 16.2592 11.8237 15.6592 12.5937 15.6592C13.3437 15.6592 13.9737 16.2592 13.9737 17.0392C13.9737 17.7992 13.3437 18.4192 12.5937 18.4192Z" /></svg>