
<svg
    viewBox={0 0 25.169921875 25.169921875}
    xmlns="http://www.w3.org/2000/svg"
>
    <path
        fill="inherit"
        d="M4.2937 25.1692H20.8737C23.7437 25.1692 25.1737 23.7592 25.1737 20.9492V4.2392C25.1737 1.4192 23.7437 -0.0008 20.8737 -0.0008H4.2937C1.4337 -0.0008 0.0037 1.4192 0.0037 4.2392V20.9492C0.0037 23.7592 1.4337 25.1692 4.2937 25.1692ZM7.0837 19.1992C6.3137 19.1992 5.7537 18.6392 5.7537 17.8692V7.2892C5.7537 6.5192 6.3137 5.9592 7.0837 5.9592H18.0837C18.8537 5.9592 19.4137 6.5192 19.4137 7.2892V17.8692C19.4137 18.6392 18.8537 19.1992 18.0837 19.1992ZM12.6037 11.6192C13.3837 11.6192 14.0237 10.9892 14.0237 10.1992C14.0237 9.4092 13.3837 8.7792 12.6037 8.7792C11.8137 8.7792 11.1737 9.4092 11.1737 10.1992C11.1737 10.9892 11.8137 11.6192 12.6037 11.6192ZM9.5137 16.3792C10.3037 16.3792 10.9537 15.7492 10.9537 14.9592C10.9537 14.1592 10.3037 13.5192 9.5137 13.5192C8.7337 13.5192 8.0937 14.1592 8.0937 14.9592C8.0937 15.7492 8.7337 16.3792 9.5137 16.3792ZM15.6837 16.3792C16.4737 16.3792 17.1037 15.7492 17.1037 14.9592C17.1037 14.1592 16.4737 13.5192 15.6837 13.5192C14.8937 13.5192 14.2437 14.1592 14.2437 14.9592C14.2437 15.7492 14.8937 16.3792 15.6837 16.3792Z"
        fillRule="evenodd"
        clipRule="evenodd"
    />
</svg>
        