
<svg
    viewBox="0 0 31.08984375 29.080078125"
    xmlns="http://www.w3.org/2000/svg"
>
    <path
        fill="inherit"
        d="M15.5427 29.078C22.1027 29.078 28.1627 24.788 28.1627 20.088V18.788H29.3527C30.3927 18.788 31.0927 18.088 31.0927 17.058V12.028C31.0927 10.988 30.3927 10.298 29.3527 10.298H28.1627V9.008C28.1627 4.308 22.1027 -0.002 15.5427 -0.002C8.9827 -0.002 2.9227 4.308 2.9227 9.008V10.298H1.7327C0.6927 10.298 0.0027 10.988 0.0027 12.028V17.058C0.0027 18.088 0.6927 18.788 1.7327 18.788H2.9227V20.088C2.9227 24.788 8.9827 29.078 15.5427 29.078ZM15.5427 26.878C10.1027 26.878 5.1227 23.438 5.1227 20.088V9.008C5.1227 5.658 10.1027 2.198 15.5427 2.198C20.9827 2.198 25.9627 5.658 25.9627 9.008V20.088C25.9627 23.438 20.9827 26.878 15.5427 26.878ZM9.2027 17.128C10.6327 17.128 11.7827 15.968 11.7827 14.548C11.7827 13.128 10.6327 11.958 9.2027 11.958C7.7827 11.958 6.6327 13.128 6.6327 14.548C6.6327 15.968 7.7827 17.128 9.2027 17.128ZM21.8727 17.128C23.3127 17.128 24.4627 15.968 24.4627 14.548C24.4627 13.128 23.3127 11.958 21.8727 11.958C20.4527 11.958 19.3027 13.128 19.3027 14.548C19.3027 15.968 20.4527 17.128 21.8727 17.128Z"
        fillRule="evenodd"
        clipRule="evenodd"
    />
</svg>
        