
<svg
    viewBox="0 0 19.701171875 31.212890625"
    xmlns="http://www.w3.org/2000/svg"
>
    <path
        fill="inherit"
        d="M8.2137 31.2144H11.4737C13.2237 31.2144 14.2237 30.2244 14.2237 28.4644V23.0744C14.2237 21.7544 14.8437 21.0944 16.1337 20.1344C18.4737 18.4144 19.7037 15.7344 19.7037 12.9444V9.4844C19.7037 7.7644 18.7137 7.0044 16.9937 7.0044H15.7337V1.7544C15.7337 0.7744 14.9837 0.0044 14.0237 0.0044C13.0537 0.0044 12.2737 0.7744 12.2737 1.7544V7.0044H7.4237V1.7544C7.4237 0.7744 6.6437 0.0044 5.7037 0.0044C4.7337 0.0044 3.9537 0.7744 3.9537 1.7544V7.0044H2.6837C0.9437 7.0044 0.0037 7.7644 0.0037 9.4844V12.9444C0.0037 15.7344 1.2037 18.4144 3.5637 20.1344C4.8537 21.0944 5.4937 21.7544 5.4937 23.0744V28.4644C5.4937 30.2144 6.4437 31.2144 8.2137 31.2144ZM8.2137 29.0144C7.9037 29.0144 7.6937 28.7944 7.6937 28.4644V23.0744C7.6937 21.0044 6.7137 19.7244 4.8637 18.3644C2.9937 16.9844 2.2037 15.2344 2.2037 12.9444V9.7344C2.2037 9.4244 2.3837 9.2144 2.6837 9.2144H16.9937C17.2937 9.2144 17.5037 9.4244 17.5037 9.7344V12.9444C17.5037 15.2144 16.6937 16.9844 14.8237 18.3644C12.9837 19.7144 12.0137 21.0044 12.0137 23.0744V28.4644C12.0137 28.7944 11.8037 29.0144 11.4737 29.0144Z"
        fillRule="evenodd"
        clipRule="evenodd"
    />
</svg>
        