
<svg
    viewBox="0 0 25.169921875 25.169921875"
    xmlns="http://www.w3.org/2000/svg"
>
    <path
        fill="inherit"
        d="M4.2937 25.1692H20.8737C23.7437 25.1692 25.1737 23.7592 25.1737 20.9492V4.2392C25.1737 1.4192 23.7437 -0.0008 20.8737 -0.0008H4.2937C1.4337 -0.0008 0.0037 1.4192 0.0037 4.2392V20.9492C0.0037 23.7592 1.4337 25.1692 4.2937 25.1692ZM4.3237 22.9692C2.9537 22.9692 2.2037 22.2392 2.2037 20.8192V4.3592C2.2037 2.9392 2.9537 2.1992 4.3237 2.1992H20.8537C22.2037 2.1992 22.9737 2.9392 22.9737 4.3592V20.8192C22.9737 22.2392 22.2037 22.9692 20.8537 22.9692ZM12.5937 19.7592C16.5737 19.7592 19.7537 16.5592 19.7537 12.5792C19.7537 8.5992 16.5737 5.3992 12.5937 5.3992C8.6037 5.3992 5.4137 8.5992 5.4137 12.5792C5.4137 16.5592 8.6037 19.7592 12.5937 19.7592ZM12.5937 10.0092C12.0037 10.0092 11.5537 9.5392 11.5537 8.9692C11.5537 8.3792 12.0037 7.9192 12.5937 7.9192C13.1637 7.9192 13.6337 8.3792 13.6337 8.9692C13.6337 9.5392 13.1637 10.0092 12.5937 10.0092ZM16.2037 14.1792C15.3237 14.1792 14.5837 13.4492 14.5837 12.5792C14.5837 11.6992 15.3237 10.9792 16.2037 10.9792C17.0637 10.9792 17.8037 11.6992 17.8037 12.5792C17.8037 13.4492 17.0637 14.1792 16.2037 14.1792ZM8.9837 14.2092C8.1037 14.2092 7.3737 13.4792 7.3737 12.6092C7.3737 11.7292 8.1037 11.0092 8.9837 11.0092C9.8537 11.0092 10.5837 11.7292 10.5837 12.6092C10.5837 13.4792 9.8537 14.2092 8.9837 14.2092Z"
        fillRule="evenodd"
        clipRule="evenodd"
    />
</svg>
        