
<svg
    viewBox="0 0 27.890625 28.68359375"
    xmlns="http://www.w3.org/2000/svg"
>
    <path
        fill="inherit"
        d="M13.9427 14.5994C14.6027 14.5994 15.0527 14.1194 15.0527 13.4394V1.1594C15.0527 0.4694 14.6027 -0.0006 13.9427 -0.0006C13.2927 -0.0006 12.8527 0.4694 12.8527 1.1594V13.4394C12.8527 14.1194 13.2927 14.5994 13.9427 14.5994ZM13.9427 28.6794C21.6427 28.6794 27.8927 22.4394 27.8927 14.7394C27.8927 10.4194 26.0027 6.8794 23.3627 4.4794C22.1627 3.3794 20.6027 5.0494 21.8027 6.1694C24.1327 8.2994 25.5627 11.3294 25.5627 14.7394C25.5627 21.1594 20.3727 26.3594 13.9427 26.3594C7.5227 26.3594 2.3227 21.1594 2.3227 14.7394C2.3227 11.3094 3.7727 8.2894 6.0827 6.1494C7.3027 5.0194 5.7527 3.4194 4.5427 4.4994C1.8727 6.8394 0.0027 10.5394 0.0027 14.7394C0.0027 22.4394 6.2527 28.6794 13.9427 28.6794Z"
        fillRule="evenodd"
        clipRule="evenodd"
    />
</svg>
        