
<svg
    viewBox="0 0 26.03125 25.169921875"
    xmlns="http://www.w3.org/2000/svg"
>
    <path
        fill="inherit"
        d="M4.2937 25.1655H21.7337C24.5937 25.1655 26.0337 23.7455 26.0337 20.9355V4.2355C26.0337 1.4255 24.5937 -0.0045 21.7337 -0.0045H4.2937C1.4337 -0.0045 0.0037 1.4055 0.0037 4.2355V20.9355C0.0037 23.7655 1.4337 25.1655 4.2937 25.1655ZM4.3237 22.9655C2.9537 22.9655 2.2037 22.2455 2.2037 20.8255V4.3455C2.2037 2.9255 2.9537 2.2055 4.3237 2.2055H21.6937C23.0537 2.2055 23.8337 2.9255 23.8337 4.3455V20.8255C23.8337 22.2455 23.0537 22.9655 21.6937 22.9655ZM19.2737 12.1255L20.0737 11.3355C20.3837 11.0155 20.3837 10.5955 20.0437 10.2555L16.8437 7.0555C16.5137 6.7255 16.0937 6.7255 15.7637 7.0455L14.9837 7.8355C14.6437 8.1655 14.6437 8.5855 14.9837 8.9255L18.1837 12.1255C18.5137 12.4555 18.9337 12.4555 19.2737 12.1255ZM5.9637 11.3455L6.7537 12.1255C7.0837 12.4555 7.5237 12.4555 7.8437 12.1255L11.0437 8.9255C11.3937 8.5855 11.3937 8.1655 11.0437 7.8355L10.2637 7.0455C9.9437 6.7255 9.5337 6.7255 9.1837 7.0555L5.9737 10.2555C5.6437 10.5855 5.6437 11.0155 5.9637 11.3455ZM12.4537 19.4255H13.5637C14.0237 19.4255 14.3237 19.1255 14.3237 18.6455V14.6555C14.3237 14.1955 14.0237 13.8755 13.5637 13.8755H12.4537C12.0037 13.8755 11.6937 14.1955 11.6937 14.6555V18.6455C11.6937 19.1155 11.9937 19.4255 12.4537 19.4255Z"
        fillRule="evenodd"
        clipRule="evenodd"
    />
</svg>
        