<svg viewBox="0 0 25.169921875 25.169921875" xmlns="http://www.w3.org/2000/svg"><path d="M4.2937 25.1692H20.8737C23.7437 25.1692 25.1737 23.7592 25.1737 20.9492V4.2392C25.1737 1.4192 23.7437 -0.0008 20.8737 -0.0008H4.2937C1.4337 -0.0008 0.0037 1.4192 0.0037 4.2392V20.9492C0.0037 23.7592 1.4337 25.1692 4.2937 25.1692ZM12.5937 19.9892C8.4737 19.9892 5.1837 16.6792 5.1837 12.5792C5.1837 8.4792 8.4737 5.1692 12.5937 5.1692C16.6937 5.1692 19.9837 8.4792 19.9837 12.5792C19.9837 16.6792 16.6937 19.9892 12.5937 19.9892ZM12.5937 9.9092C13.1837 9.9092 13.6537 9.4192 13.6537 8.8292C13.6537 8.2292 13.1837 7.7492 12.5937 7.7492C11.9937 7.7492 11.5137 8.2292 11.5137 8.8292C11.5137 9.4192 11.9937 9.9092 12.5937 9.9092ZM16.3137 14.2292C17.2137 14.2292 17.9637 13.4792 17.9637 12.5792C17.9637 11.6792 17.2137 10.9192 16.3137 10.9192C15.4037 10.9192 14.6537 11.6792 14.6537 12.5792C14.6537 13.4792 15.4037 14.2292 16.3137 14.2292ZM8.8637 14.2592C9.7737 14.2592 10.5137 13.5092 10.5137 12.6092C10.5137 11.6992 9.7737 10.9492 8.8637 10.9492C7.9537 10.9492 7.2037 11.6992 7.2037 12.6092C7.2037 13.5092 7.9537 14.2592 8.8637 14.2592Z" /></svg>