<svg viewBox="0 0 31.08984375 29.080078125" xmlns="http://www.w3.org/2000/svg"><path d="M0.0027 17.058C0.0027 18.088 0.6927 18.788 1.7327 18.788H2.9227V20.088C2.9227 24.788 8.9827 29.078 15.5427 29.078C22.1027 29.078 28.1627 24.788 28.1627 20.088V18.788H29.3527C30.3927 18.788 31.0927 18.088 31.0927 17.058V12.028C31.0927 10.988 30.3927 10.298 29.3527 10.298H28.1627V9.008C28.1627 4.308 22.1027 -0.002 15.5427 -0.002C8.9827 -0.002 2.9227 4.308 2.9227 9.008V10.298H1.7327C0.6927 10.298 0.0027 10.988 0.0027 12.028ZM8.9927 17.208C7.5327 17.208 6.3427 16.008 6.3427 14.548C6.3427 13.088 7.5327 11.878 8.9927 11.878C10.4827 11.878 11.6627 13.088 11.6627 14.548C11.6627 16.008 10.4827 17.208 8.9927 17.208ZM22.0827 17.208C20.6027 17.208 19.4327 16.008 19.4327 14.548C19.4327 13.088 20.6027 11.878 22.0827 11.878C23.5527 11.878 24.7427 13.088 24.7427 14.548C24.7427 16.008 23.5527 17.208 22.0827 17.208Z" /></svg>