<svg viewBox="0 0 36.71584544341549 19.126953125" xmlns="http://www.w3.org/2000/svg"><path d="M10.0609 0.0014C8.1909 0.0014 7.0909 0.7914 5.7509 2.1914L1.0509 7.1814C-0.3591 8.6414 -0.3391 10.3814 1.0409 11.8514L5.7409 16.9214C6.9609 18.2214 8.3109 19.1314 10.0609 19.1314H26.6609C28.4109 19.1314 29.7509 18.2214 30.9809 16.9214L35.6709 11.8514C37.0509 10.3814 37.0809 8.6414 35.6709 7.1814L30.9709 2.1914C29.6109 0.7914 28.5309 0.0014 26.6609 0.0014ZM8.9809 7.0714C10.3409 7.0714 11.4409 8.1714 11.4409 9.5114C11.4409 10.8514 10.3409 11.9814 8.9809 11.9814C7.6409 11.9814 6.5509 10.8514 6.5509 9.5114C6.5509 8.1714 7.6409 7.0714 8.9809 7.0714ZM27.7509 7.0714C29.0909 7.0714 30.2009 8.1714 30.2009 9.5114C30.2009 10.8514 29.0909 11.9814 27.7509 11.9814C26.4109 11.9814 25.2909 10.8514 25.2909 9.5114C25.2909 8.1714 26.4109 7.0714 27.7509 7.0714ZM18.3709 9.5714C19.7109 9.5714 20.8109 10.6914 20.8109 12.0314C20.8109 13.3714 19.7109 14.4814 18.3709 14.4814C17.0209 14.4814 15.9309 13.3714 15.9309 12.0314C15.9309 10.6914 17.0209 9.5714 18.3709 9.5714Z" /></svg>