
<svg
    viewBox={0 0 25.169921875 25.169921875}
    xmlns="http://www.w3.org/2000/svg"
>
    <path
        fill="inherit"
        d="M4.2937 25.1692H20.8737C23.7437 25.1692 25.1737 23.7592 25.1737 20.9492V4.2392C25.1737 1.4192 23.7437 -0.0008 20.8737 -0.0008H4.2937C1.4337 -0.0008 0.0037 1.4192 0.0037 4.2392V20.9492C0.0037 23.7592 1.4337 25.1692 4.2937 25.1692ZM4.3237 22.9692C2.9537 22.9692 2.2037 22.2392 2.2037 20.8192V4.3592C2.2037 2.9392 2.9537 2.1992 4.3237 2.1992H20.8537C22.2037 2.1992 22.9737 2.9392 22.9737 4.3592V20.8192C22.9737 22.2392 22.2037 22.9692 20.8537 22.9692ZM7.2437 18.9892H17.9237C18.6637 18.9892 19.2137 18.4392 19.2137 17.7092V7.4492C19.2137 6.7092 18.6637 6.1692 17.9237 6.1692H7.2437C6.5037 6.1692 5.9637 6.7092 5.9637 7.4492V17.7092C5.9637 18.4392 6.5037 18.9892 7.2437 18.9892ZM12.6037 11.1792C11.8437 11.1792 11.2137 10.5692 11.2137 9.7892C11.2137 9.0392 11.8437 8.4192 12.6037 8.4192C13.3537 8.4192 13.9837 9.0392 13.9837 9.7892C13.9837 10.5692 13.3537 11.1792 12.6037 11.1792ZM9.6137 16.7392C8.8637 16.7392 8.2337 16.1192 8.2337 15.3492C8.2337 14.5892 8.8637 13.9692 9.6137 13.9692C10.3737 13.9692 11.0037 14.5892 11.0037 15.3492C11.0037 16.1192 10.3737 16.7392 9.6137 16.7392ZM15.5837 16.7392C14.8237 16.7392 14.1937 16.1192 14.1937 15.3492C14.1937 14.5892 14.8237 13.9692 15.5837 13.9692C16.3537 13.9692 16.9637 14.5892 16.9637 15.3492C16.9637 16.1192 16.3537 16.7392 15.5837 16.7392Z"
        fillRule="evenodd"
        clipRule="evenodd"
    />
</svg>
        