
<svg
    viewBox="0 0 26.03125 25.169921875"
    xmlns="http://www.w3.org/2000/svg"
>
    <path
        fill="inherit"
        d="M4.2937 25.1655H21.7337C24.5937 25.1655 26.0337 23.7455 26.0337 20.9355V4.2355C26.0337 1.4255 24.5937 -0.0045 21.7337 -0.0045H4.2937C1.4337 -0.0045 0.0037 1.4055 0.0037 4.2355V20.9355C0.0037 23.7655 1.4337 25.1655 4.2937 25.1655ZM4.3237 22.9655C2.9537 22.9655 2.2037 22.2455 2.2037 20.8255V4.3455C2.2037 2.9255 2.9537 2.2055 4.3237 2.2055H21.6937C23.0537 2.2055 23.8337 2.9255 23.8337 4.3455V20.8255C23.8337 22.2455 23.0537 22.9655 21.6937 22.9655ZM13.0137 10.9055C14.4237 10.9055 15.5537 9.7755 15.5537 8.3655C15.5537 6.9555 14.4237 5.8255 13.0137 5.8255C11.6037 5.8255 10.4737 6.9555 10.4737 8.3655C10.4737 9.7755 11.6037 10.9055 13.0137 10.9055ZM8.3437 19.3155C9.4637 19.3155 10.3737 18.4055 10.3737 17.2555C10.3737 16.1355 9.4637 15.2155 8.3437 15.2155C7.1937 15.2155 6.2737 16.1355 6.2737 17.2555C6.2737 18.4055 7.1937 19.3155 8.3437 19.3155ZM17.7037 19.3155C18.8237 19.3155 19.7537 18.4055 19.7537 17.2555C19.7537 16.1355 18.8237 15.2155 17.7037 15.2155C16.5737 15.2155 15.6537 16.1355 15.6537 17.2555C15.6537 18.4055 16.5737 19.3155 17.7037 19.3155Z"
        fillRule="evenodd"
        clipRule="evenodd"
    />
</svg>
        