<svg viewBox="0 0 27.890625 27.890625" xmlns="http://www.w3.org/2000/svg"><path d="M13.9427 27.8864C21.6427 27.8864 27.8927 21.6264 27.8927 13.9464C27.8927 6.2464 21.6427 -0.0036 13.9427 -0.0036C6.2627 -0.0036 0.0027 6.2464 0.0027 13.9464C0.0027 21.6264 6.2627 27.8864 13.9427 27.8864ZM8.2027 16.5164C6.7227 16.5164 5.5527 15.3164 5.5527 13.8464C5.5527 12.3764 6.7227 11.1864 8.2027 11.1864C9.6827 11.1864 10.8727 12.3764 10.8727 13.8464C10.8727 15.3164 9.6827 16.5164 8.2027 16.5164ZM19.6827 16.5164C18.2127 16.5164 17.0227 15.3164 17.0227 13.8464C17.0227 12.3764 18.2127 11.1864 19.6827 11.1864C21.1627 11.1864 22.3427 12.3764 22.3427 13.8464C22.3427 15.3164 21.1627 16.5164 19.6827 16.5164ZM12.2627 19.0864H15.6227C16.0627 19.0864 16.2827 19.3064 16.2827 19.7464V20.7664C16.2827 22.0664 15.2627 23.1064 13.9427 23.1064C12.6227 23.1064 11.6027 22.0764 11.6027 20.7664V19.7464C11.6027 19.3064 11.8227 19.0864 12.2627 19.0864Z" /></svg>