
<svg
    viewBox={0 0 25.169921875 25.169921875}
    xmlns="http://www.w3.org/2000/svg"
>
    <path
        fill="inherit"
        d="M4.2937 25.1692H20.8737C23.7437 25.1692 25.1737 23.7592 25.1737 20.9492V4.2392C25.1737 1.4192 23.7437 -0.0008 20.8737 -0.0008H4.2937C1.4337 -0.0008 0.0037 1.4192 0.0037 4.2392V20.9492C0.0037 23.7592 1.4337 25.1692 4.2937 25.1692ZM4.3237 22.9692C2.9537 22.9692 2.2037 22.2392 2.2037 20.8192V4.3592C2.2037 2.9392 2.9537 2.1992 4.3237 2.1992H20.8537C22.2037 2.1992 22.9737 2.9392 22.9737 4.3592V20.8192C22.9737 22.2392 22.2037 22.9692 20.8537 22.9692ZM7.2437 18.9892H17.9237C18.6637 18.9892 19.2137 18.4392 19.2137 17.7092V7.4492C19.2137 6.7092 18.6637 6.1692 17.9237 6.1692H7.2437C6.5037 6.1692 5.9637 6.7092 5.9637 7.4492V17.7092C5.9637 18.4392 6.5037 18.9892 7.2437 18.9892ZM9.9837 12.6192C9.5837 12.6192 9.2737 12.3192 9.2737 11.8992V9.5592C9.2737 9.1492 9.5837 8.8192 9.9837 8.8192C10.3937 8.8192 10.7237 9.1492 10.7237 9.5592V11.8992C10.7237 12.3192 10.3937 12.6192 9.9837 12.6192ZM15.1737 12.6192C14.7637 12.6192 14.4537 12.3192 14.4537 11.8992V9.5592C14.4537 9.1492 14.7637 8.8192 15.1737 8.8192C15.5737 8.8192 15.9037 9.1492 15.9037 9.5592V11.8992C15.9037 12.3192 15.5737 12.6192 15.1737 12.6192ZM11.7137 16.7792C11.4537 16.7792 11.3337 16.6492 11.3337 16.3892V15.5692C11.3337 14.8592 11.8637 14.3192 12.5937 14.3192C13.2937 14.3192 13.8337 14.8592 13.8337 15.5692V16.3892C13.8337 16.6492 13.7137 16.7792 13.4537 16.7792Z"
        fillRule="evenodd"
        clipRule="evenodd"
    />
</svg>
        