
<svg
    viewBox={0 0 26.03125 25.169921875}
    xmlns="http://www.w3.org/2000/svg"
>
    <path
        fill="inherit"
        d="M4.2937 25.1655H21.7337C24.5937 25.1655 26.0337 23.7455 26.0337 20.9355V4.2355C26.0337 1.4255 24.5937 -0.0045 21.7337 -0.0045H4.2937C1.4337 -0.0045 0.0037 1.4055 0.0037 4.2355V20.9355C0.0037 23.7655 1.4337 25.1655 4.2937 25.1655ZM13.0137 10.0855C11.8437 10.0855 10.8837 9.1355 10.8837 7.9555C10.8837 6.7955 11.8437 5.8555 13.0137 5.8555C14.1737 5.8555 15.1337 6.7955 15.1337 7.9555C15.1337 9.1355 14.1737 10.0855 13.0137 10.0855ZM8.1937 19.2755C7.0137 19.2755 6.0537 18.3155 6.0537 17.1455C6.0537 15.9955 7.0137 15.0255 8.1937 15.0255C9.3537 15.0255 10.2937 15.9955 10.2937 17.1455C10.2937 18.3155 9.3537 19.2755 8.1937 19.2755ZM17.8537 19.2755C16.6837 19.2755 15.7337 18.3155 15.7337 17.1455C15.7337 15.9955 16.6837 15.0255 17.8537 15.0255C19.0037 15.0255 19.9737 15.9955 19.9737 17.1455C19.9737 18.3155 19.0037 19.2755 17.8537 19.2755Z"
        fillRule="evenodd"
        clipRule="evenodd"
    />
</svg>
        