
<svg
    viewBox={0 0 27.890625 27.890625}
    xmlns="http://www.w3.org/2000/svg"
>
    <path
        fill="inherit"
        d="M13.9427 27.8864C21.6427 27.8864 27.8927 21.6264 27.8927 13.9464C27.8927 6.2464 21.6427 -0.0036 13.9427 -0.0036C6.2627 -0.0036 0.0027 6.2464 0.0027 13.9464C0.0027 21.6264 6.2627 27.8864 13.9427 27.8864ZM13.9427 9.2664C12.9627 9.2664 12.1427 8.4464 12.1427 7.4664C12.1427 6.4764 12.9627 5.6564 13.9427 5.6564C14.9327 5.6564 15.7527 6.4764 15.7527 7.4664C15.7527 8.4464 14.9327 9.2664 13.9427 9.2664ZM7.7627 16.7064C6.3027 16.7064 5.1127 15.5064 5.1127 14.0364C5.1127 12.5764 6.3027 11.3764 7.7627 11.3764C9.2527 11.3764 10.4327 12.5764 10.4327 14.0364C10.4327 15.5064 9.2527 16.7064 7.7627 16.7064ZM20.1227 16.7064C18.6327 16.7064 17.4627 15.5064 17.4627 14.0364C17.4627 12.5764 18.6327 11.3764 20.1227 11.3764C21.5927 11.3764 22.7727 12.5764 22.7727 14.0364C22.7727 15.5064 21.5927 16.7064 20.1227 16.7064Z"
        fillRule="evenodd"
        clipRule="evenodd"
    />
</svg>
        