
<svg
    viewBox={0 0 26.03125 25.169921875}
    xmlns="http://www.w3.org/2000/svg"
>
    <path
        fill="inherit"
        d="M4.2937 25.1655H21.7337C24.5937 25.1655 26.0337 23.7455 26.0337 20.9355V4.2355C26.0337 1.4255 24.5937 -0.0045 21.7337 -0.0045H4.2937C1.4337 -0.0045 0.0037 1.4055 0.0037 4.2355V20.9355C0.0037 23.7655 1.4337 25.1655 4.2937 25.1655ZM13.0137 10.9355C11.8437 10.9355 10.8837 9.9755 10.8837 8.8055C10.8837 7.6455 11.8437 6.6855 13.0137 6.6855C14.1737 6.6855 15.1337 7.6455 15.1337 8.8055C15.1337 9.9755 14.1737 10.9355 13.0137 10.9355ZM8.1937 18.4555C7.0137 18.4555 6.0537 17.4955 6.0537 16.3255C6.0537 15.1655 7.0137 14.2055 8.1937 14.2055C9.3537 14.2055 10.2937 15.1655 10.2937 16.3255C10.2937 17.4955 9.3537 18.4555 8.1937 18.4555ZM17.8537 18.4555C16.6837 18.4555 15.7337 17.4955 15.7337 16.3255C15.7337 15.1655 16.6837 14.2055 17.8537 14.2055C19.0037 14.2055 19.9737 15.1655 19.9737 16.3255C19.9737 17.4955 19.0037 18.4555 17.8537 18.4555Z"
        fillRule="evenodd"
        clipRule="evenodd"
    />
</svg>
        