
<svg
    viewBox="0 0 25.169921875 25.169921875"
    xmlns="http://www.w3.org/2000/svg"
>
    <path
        fill="inherit"
        d="M4.2937 25.1692H20.8737C23.7437 25.1692 25.1737 23.7592 25.1737 20.9492V4.2392C25.1737 1.4192 23.7437 -0.0008 20.8737 -0.0008H4.2937C1.4337 -0.0008 0.0037 1.4192 0.0037 4.2392V20.9492C0.0037 23.7592 1.4337 25.1692 4.2937 25.1692ZM7.2037 19.2092C6.4437 19.2092 5.8837 18.6492 5.8837 17.8792V7.2992C5.8837 6.5392 6.4437 5.9792 7.2037 5.9792H18.0437C18.8137 5.9792 19.3737 6.5392 19.3737 7.2992V17.8792C19.3737 18.6492 18.8137 19.2092 18.0437 19.2092ZM12.2937 11.5692H12.9337C13.2737 11.5692 13.5337 11.3492 13.5337 10.9892V8.6792C13.5337 8.3392 13.2737 8.1092 12.9337 8.1092H12.2937C11.9537 8.1092 11.7137 8.3392 11.7137 8.6792V10.9892C11.7137 11.3492 11.9537 11.5692 12.2937 11.5692ZM8.5337 16.9492H10.7337C11.0637 16.9492 11.2937 16.7192 11.2937 16.3792V15.7192C11.2937 15.3792 11.0637 15.1392 10.7337 15.1392H8.5337C8.1737 15.1392 7.9437 15.3792 7.9437 15.7192V16.3792C7.9437 16.7192 8.1737 16.9492 8.5337 16.9492ZM14.5437 16.9492H16.7237C17.0737 16.9492 17.3037 16.7192 17.3037 16.3792V15.7192C17.3037 15.3792 17.0737 15.1392 16.7237 15.1392H14.5437C14.1937 15.1392 13.9637 15.3792 13.9637 15.7192V16.3792C13.9637 16.7192 14.1937 16.9492 14.5437 16.9492Z"
        fillRule="evenodd"
        clipRule="evenodd"
    />
</svg>
        