
<svg
    viewBox="0 0 26.03125 25.169921875"
    xmlns="http://www.w3.org/2000/svg"
>
    <path
        fill="inherit"
        d="M4.2937 25.1655H21.7337C24.5937 25.1655 26.0337 23.7455 26.0337 20.9355V4.2355C26.0337 1.4255 24.5937 -0.0045 21.7337 -0.0045H4.2937C1.4337 -0.0045 0.0037 1.4055 0.0037 4.2355V20.9355C0.0037 23.7655 1.4337 25.1655 4.2937 25.1655ZM13.0137 10.8555C11.5637 10.8555 10.3937 9.6955 10.3937 8.2255C10.3937 6.7855 11.5637 5.6055 13.0137 5.6055C14.4637 5.6055 15.6437 6.7855 15.6437 8.2255C15.6437 9.6955 14.4637 10.8555 13.0137 10.8555ZM8.1937 19.5355C7.0137 19.5355 6.0537 18.5755 6.0537 17.4055C6.0537 16.2455 7.0137 15.2955 8.1937 15.2955C9.3537 15.2955 10.2937 16.2455 10.2937 17.4055C10.2937 18.5755 9.3537 19.5355 8.1937 19.5355ZM17.8537 19.5355C16.6837 19.5355 15.7337 18.5755 15.7337 17.4055C15.7337 16.2455 16.6837 15.2955 17.8537 15.2955C19.0037 15.2955 19.9737 16.2455 19.9737 17.4055C19.9737 18.5755 19.0037 19.5355 17.8537 19.5355Z"
        fillRule="evenodd"
        clipRule="evenodd"
    />
</svg>
        