
<svg
    viewBox="0 0 25.169921875 25.169921875"
    xmlns="http://www.w3.org/2000/svg"
>
    <path
        fill="inherit"
        d="M4.2937 25.1692H20.8737C23.7437 25.1692 25.1737 23.7592 25.1737 20.9492V4.2392C25.1737 1.4192 23.7437 -0.0008 20.8737 -0.0008H4.2937C1.4337 -0.0008 0.0037 1.4192 0.0037 4.2392V20.9492C0.0037 23.7592 1.4337 25.1692 4.2937 25.1692ZM4.3237 22.9692C2.9537 22.9692 2.2037 22.2392 2.2037 20.8192V4.3592C2.2037 2.9392 2.9537 2.1992 4.3237 2.1992H20.8537C22.2037 2.1992 22.9737 2.9392 22.9737 4.3592V20.8192C22.9737 22.2392 22.2037 22.9692 20.8537 22.9692ZM7.2437 18.9892H17.9237C18.6637 18.9892 19.2137 18.4392 19.2137 17.7092V7.4492C19.2137 6.7092 18.6637 6.1692 17.9237 6.1692H7.2437C6.5037 6.1692 5.9637 6.7092 5.9637 7.4492V17.7092C5.9637 18.4392 6.5037 18.9892 7.2437 18.9892ZM12.6037 11.5792C11.6937 11.5792 10.9537 10.8392 10.9537 9.9292C10.9537 9.0092 11.6937 8.2692 12.6037 8.2692C13.5037 8.2692 14.2437 9.0092 14.2437 9.9292C14.2437 10.8392 13.5037 11.5792 12.6037 11.5792ZM9.6137 16.8592C8.8637 16.8592 8.2337 16.2392 8.2337 15.4792C8.2337 14.7092 8.8637 14.0992 9.6137 14.0992C10.3737 14.0992 11.0037 14.7092 11.0037 15.4792C11.0037 16.2392 10.3737 16.8592 9.6137 16.8592ZM15.5837 16.8592C14.8237 16.8592 14.1937 16.2392 14.1937 15.4792C14.1937 14.7092 14.8237 14.0992 15.5837 14.0992C16.3537 14.0992 16.9637 14.7092 16.9637 15.4792C16.9637 16.2392 16.3537 16.8592 15.5837 16.8592Z"
        fillRule="evenodd"
        clipRule="evenodd"
    />
</svg>
        