
<svg
    viewBox="0 0 26.03125 25.169921875"
    xmlns="http://www.w3.org/2000/svg"
>
    <path
        fill="inherit"
        d="M4.2937 25.1655H21.7337C24.5937 25.1655 26.0337 23.7455 26.0337 20.9355V4.2355C26.0337 1.4255 24.5937 -0.0045 21.7337 -0.0045H4.2937C1.4337 -0.0045 0.0037 1.4055 0.0037 4.2355V20.9355C0.0037 23.7655 1.4337 25.1655 4.2937 25.1655ZM4.3237 22.9655C2.9537 22.9655 2.2037 22.2455 2.2037 20.8255V4.3455C2.2037 2.9255 2.9537 2.2055 4.3237 2.2055H21.6937C23.0537 2.2055 23.8337 2.9255 23.8337 4.3455V20.8255C23.8337 22.2455 23.0537 22.9655 21.6937 22.9655ZM13.0137 10.1555C14.1337 10.1555 15.0637 9.2455 15.0637 8.0955C15.0637 6.9755 14.1337 6.0555 13.0137 6.0555C11.8837 6.0555 10.9537 6.9755 10.9537 8.0955C10.9537 9.2455 11.8837 10.1555 13.0137 10.1555ZM8.3437 19.0755C9.4637 19.0755 10.3737 18.1455 10.3737 17.0055C10.3737 15.8855 9.4637 14.9555 8.3437 14.9555C7.1937 14.9555 6.2737 15.8855 6.2737 17.0055C6.2737 18.1455 7.1937 19.0755 8.3437 19.0755ZM17.7037 19.0755C18.8237 19.0755 19.7537 18.1455 19.7537 17.0055C19.7537 15.8855 18.8237 14.9555 17.7037 14.9555C16.5737 14.9555 15.6537 15.8855 15.6537 17.0055C15.6537 18.1455 16.5737 19.0755 17.7037 19.0755Z"
        fillRule="evenodd"
        clipRule="evenodd"
    />
</svg>
        