
<svg
    viewBox={0 0 29.298828125 23.501953125}
    xmlns="http://www.w3.org/2000/svg"
>
    <path
        fill="inherit"
        d="M7.2437 23.4989H22.0437C23.0337 23.4989 23.9637 23.1589 24.6537 22.5089C27.5737 19.7289 29.3037 15.7089 29.3037 11.7589C29.3037 7.8089 27.5737 3.7889 24.6537 1.0089C23.9637 0.3589 23.0337 -0.0011 22.0437 -0.0011H7.2437C6.2037 -0.0011 5.2237 0.3989 4.5137 1.1189C1.6937 3.8789 0.0037 7.8589 0.0037 11.7589C0.0037 15.7089 1.7237 19.7289 4.6437 22.5089C5.3337 23.1589 6.2437 23.4989 7.2437 23.4989ZM7.2437 21.3689C6.7837 21.3689 6.4437 21.2489 6.1637 20.9689C3.6937 18.6389 2.2037 15.1989 2.2037 11.8289C2.2037 8.4489 3.7037 4.9789 6.1937 2.6489C6.4637 2.3889 6.7937 2.2689 7.2437 2.2689H22.0437C22.5037 2.2689 22.8637 2.4089 23.1337 2.6789C25.5937 5.0189 27.0937 8.4489 27.0937 11.8289C27.0937 15.1989 25.5937 18.6389 23.1337 20.9689C22.8637 21.2489 22.5037 21.3689 22.0437 21.3689ZM8.9437 17.2789C9.6137 17.2789 10.1537 16.7789 10.1537 16.0889V7.5789C10.1537 6.8889 9.6137 6.3389 8.9437 6.3389C8.2537 6.3389 7.7537 6.8889 7.7537 7.5789V16.0889C7.7537 16.7789 8.2537 17.2789 8.9437 17.2789ZM20.3437 17.2789C21.0237 17.2789 21.5437 16.7589 21.5437 16.0789V7.5789C21.5437 6.8889 21.0237 6.3389 20.3437 6.3389C19.6637 6.3389 19.1437 6.8889 19.1437 7.5789V16.0789C19.1437 16.7489 19.6637 17.2789 20.3437 17.2789Z"
        fillRule="evenodd"
        clipRule="evenodd"
    />
</svg>
        