
<svg
    viewBox="0 0 27.890625 27.890625"
    xmlns="http://www.w3.org/2000/svg"
>
    <path
        fill="inherit"
        d="M13.9427 27.8864C21.6427 27.8864 27.8927 21.6264 27.8927 13.9464C27.8927 6.2464 21.6427 -0.0036 13.9427 -0.0036C6.2627 -0.0036 0.0027 6.2464 0.0027 13.9464C0.0027 21.6264 6.2627 27.8864 13.9427 27.8864ZM7.8427 15.8564C6.3727 15.8564 5.1927 14.6564 5.1927 13.1964C5.1927 11.7164 6.3727 10.5264 7.8427 10.5264C9.3227 10.5264 10.5127 11.7164 10.5127 13.1964C10.5127 14.6564 9.3227 15.8564 7.8427 15.8564ZM20.0427 15.8564C18.5627 15.8564 17.3727 14.6564 17.3727 13.1964C17.3727 11.7164 18.5627 10.5264 20.0427 10.5264C21.5227 10.5264 22.6927 11.7164 22.6927 13.1964C22.6927 14.6564 21.5227 15.8564 20.0427 15.8564ZM13.9427 22.4264C12.4827 22.4264 11.2827 21.2464 11.2827 19.7664C11.2827 18.2964 12.4827 17.1064 13.9427 17.1064C15.4127 17.1064 16.6127 18.2964 16.6127 19.7664C16.6127 21.2464 15.4127 22.4264 13.9427 22.4264Z"
        fillRule="evenodd"
        clipRule="evenodd"
    />
</svg>
        