<svg viewBox="0 0 26.03125 25.169921875" xmlns="http://www.w3.org/2000/svg"><path d="M4.2937 25.1655H21.7337C24.5937 25.1655 26.0337 23.7455 26.0337 20.9355V4.2355C26.0337 1.4255 24.5937 -0.0045 21.7337 -0.0045H4.2937C1.4337 -0.0045 0.0037 1.4055 0.0037 4.2355V20.9355C0.0037 23.7655 1.4337 25.1655 4.2937 25.1655ZM19.4737 12.0955C19.1237 12.4455 18.6937 12.4455 18.3437 12.0955L15.0437 8.8055C14.6937 8.4455 14.6937 8.0155 15.0437 7.6655L15.8437 6.8455C16.1837 6.5255 16.6237 6.5255 16.9637 6.8655L20.2637 10.1555C20.6137 10.5155 20.6137 10.9555 20.2937 11.2755ZM5.7437 11.2955C5.4137 10.9555 5.4137 10.4955 5.7537 10.1555L9.0637 6.8655C9.4237 6.5255 9.8437 6.5255 10.1837 6.8455L10.9937 7.6655C11.3337 8.0155 11.3337 8.4455 10.9937 8.8055L7.6837 12.0955C7.3437 12.4455 6.8937 12.4455 6.5637 12.0955ZM12.4437 19.6155C11.9637 19.6155 11.6437 19.3055 11.6437 18.8255V14.7155C11.6437 14.2355 11.9737 13.9055 12.4437 13.9055H13.5737C14.0537 13.9055 14.3737 14.2355 14.3737 14.7155V18.8255C14.3737 19.3155 14.0537 19.6155 13.5737 19.6155Z" /></svg>