
<svg
    viewBox="0 0 25.169921875 25.169921875"
    xmlns="http://www.w3.org/2000/svg"
>
    <path
        fill="inherit"
        d="M4.2937 25.1692H20.8737C23.7437 25.1692 25.1737 23.7592 25.1737 20.9492V4.2392C25.1737 1.4192 23.7437 -0.0008 20.8737 -0.0008H4.2937C1.4337 -0.0008 0.0037 1.4192 0.0037 4.2392V20.9492C0.0037 23.7592 1.4337 25.1692 4.2937 25.1692ZM12.5937 19.9892C8.4737 19.9892 5.1837 16.6792 5.1837 12.5792C5.1837 8.4792 8.4737 5.1692 12.5937 5.1692C16.6937 5.1692 19.9837 8.4792 19.9837 12.5792C19.9837 16.6792 16.6937 19.9892 12.5937 19.9892ZM9.0737 14.2292C9.9937 14.2292 10.7337 13.4792 10.7337 12.5792C10.7337 11.6792 9.9937 10.9192 9.0737 10.9192C8.1737 10.9192 7.4237 11.6792 7.4237 12.5792C7.4237 13.4792 8.1737 14.2292 9.0737 14.2292ZM16.0937 14.2292C16.9937 14.2292 17.7437 13.4792 17.7437 12.5792C17.7437 11.6792 16.9937 10.9192 16.0937 10.9192C15.1937 10.9192 14.4337 11.6792 14.4337 12.5792C14.4337 13.4792 15.1937 14.2292 16.0937 14.2292Z"
        fillRule="evenodd"
        clipRule="evenodd"
    />
</svg>
        