<svg viewBox="0 0 26.03125 25.169921875" xmlns="http://www.w3.org/2000/svg"><path d="M4.2937 25.1655H21.7337C24.5937 25.1655 26.0337 23.7455 26.0337 20.9355V4.2355C26.0337 1.4255 24.5937 -0.0045 21.7337 -0.0045H4.2937C1.4337 -0.0045 0.0037 1.4055 0.0037 4.2355V20.9355C0.0037 23.7655 1.4337 25.1655 4.2937 25.1655ZM4.3237 22.9655C2.9537 22.9655 2.2037 22.2455 2.2037 20.8255V4.3455C2.2037 2.9255 2.9537 2.2055 4.3237 2.2055H21.6937C23.0537 2.2055 23.8337 2.9255 23.8337 4.3455V20.8255C23.8337 22.2455 23.0537 22.9655 21.6937 22.9655ZM13.0137 10.9655C14.1337 10.9655 15.0637 10.0455 15.0637 8.9155C15.0637 7.7755 14.1337 6.8655 13.0137 6.8655C11.8837 6.8655 10.9537 7.7755 10.9537 8.9155C10.9537 10.0455 11.8837 10.9655 13.0137 10.9655ZM8.3437 18.2655C9.4637 18.2655 10.3737 17.3455 10.3737 16.2155C10.3737 15.0955 9.4637 14.1655 8.3437 14.1655C7.1937 14.1655 6.2737 15.0955 6.2737 16.2155C6.2737 17.3455 7.1937 18.2655 8.3437 18.2655ZM17.7037 18.2655C18.8237 18.2655 19.7537 17.3455 19.7537 16.2155C19.7537 15.0955 18.8237 14.1655 17.7037 14.1655C16.5737 14.1655 15.6537 15.0955 15.6537 16.2155C15.6537 17.3455 16.5737 18.2655 17.7037 18.2655Z" /></svg>