
<svg
    viewBox={0 0 27.890625 27.890625}
    xmlns="http://www.w3.org/2000/svg"
>
    <path
        fill="inherit"
        d="M13.9427 27.8864C21.6427 27.8864 27.8927 21.6464 27.8927 13.9464C27.8927 6.2464 21.6427 -0.0036 13.9427 -0.0036C6.2527 -0.0036 0.0027 6.2464 0.0027 13.9464C0.0027 21.6464 6.2527 27.8864 13.9427 27.8864ZM13.9427 25.5664C7.5227 25.5664 2.3227 20.3664 2.3227 13.9464C2.3227 7.5164 7.5227 2.3264 13.9427 2.3264C20.3727 2.3264 25.5627 7.5164 25.5627 13.9464C25.5627 20.3664 20.3727 25.5664 13.9427 25.5664ZM13.9427 9.3364C14.9027 9.3364 15.6927 8.5464 15.6927 7.5864C15.6927 6.6264 14.9027 5.8364 13.9427 5.8364C12.9927 5.8364 12.1927 6.6264 12.1927 7.5864C12.1927 8.5464 12.9927 9.3364 13.9427 9.3364ZM7.9527 16.5264C9.3927 16.5264 10.5427 15.3664 10.5427 13.9464C10.5427 12.5264 9.3927 11.3564 7.9527 11.3564C6.5327 11.3564 5.3827 12.5264 5.3827 13.9464C5.3827 15.3664 6.5327 16.5264 7.9527 16.5264ZM19.9327 16.5264C21.3527 16.5264 22.5027 15.3664 22.5027 13.9464C22.5027 12.5264 21.3527 11.3564 19.9327 11.3564C18.5027 11.3564 17.3527 12.5264 17.3527 13.9464C17.3527 15.3664 18.5027 16.5264 19.9327 16.5264Z"
        fillRule="evenodd"
        clipRule="evenodd"
    />
</svg>
        