
<svg
    viewBox="0 0 25.169921875 25.169921875"
    xmlns="http://www.w3.org/2000/svg"
>
    <path
        fill="inherit"
        d="M4.2937 25.1692H20.8737C23.7437 25.1692 25.1737 23.7592 25.1737 20.9492V4.2392C25.1737 1.4192 23.7437 -0.0008 20.8737 -0.0008H4.2937C1.4337 -0.0008 0.0037 1.4192 0.0037 4.2392V20.9492C0.0037 23.7592 1.4337 25.1692 4.2937 25.1692ZM7.8237 7.4892H17.3537C18.2537 7.4892 18.6437 7.8292 19.0537 8.3692L21.5637 11.6392C21.9937 12.1992 21.9937 12.9192 21.5637 13.4892L19.0537 16.7892C18.6437 17.3192 18.1137 17.6492 17.3537 17.6492H7.8237C7.0537 17.6492 6.5237 17.3192 6.1137 16.7892L3.6137 13.4892C3.1737 12.9192 3.1737 12.1992 3.6137 11.6392L6.1137 8.3692C6.5237 7.8292 6.9137 7.4892 7.8237 7.4892ZM7.5037 11.1792C6.7537 11.1792 6.1137 11.8292 6.1137 12.5792C6.1137 13.3292 6.7537 13.9592 7.5037 13.9592C8.2537 13.9592 8.9037 13.3292 8.9037 12.5792C8.9037 11.8292 8.2537 11.1792 7.5037 11.1792ZM17.6637 11.1792C16.9137 11.1792 16.2837 11.8292 16.2837 12.5792C16.2837 13.3292 16.9137 13.9592 17.6637 13.9592C18.4137 13.9592 19.0537 13.3292 19.0537 12.5792C19.0537 11.8292 18.4137 11.1792 17.6637 11.1792ZM12.5937 12.8892C11.8237 12.8892 11.1937 13.5392 11.1937 14.2892C11.1937 15.0392 11.8237 15.6792 12.5937 15.6792C13.3437 15.6792 13.9737 15.0392 13.9737 14.2892C13.9737 13.5392 13.3437 12.8892 12.5937 12.8892Z"
        fillRule="evenodd"
        clipRule="evenodd"
    />
</svg>
        