<svg viewBox="0 0 27.890625 27.890625" xmlns="http://www.w3.org/2000/svg"><path d="M13.9427 27.8864C21.6427 27.8864 27.8927 21.6464 27.8927 13.9464C27.8927 6.2464 21.6427 -0.0036 13.9427 -0.0036C6.2527 -0.0036 0.0027 6.2464 0.0027 13.9464C0.0027 21.6464 6.2527 27.8864 13.9427 27.8864ZM13.9427 25.5664C7.5227 25.5664 2.3227 20.3664 2.3227 13.9464C2.3227 7.5164 7.5227 2.3264 13.9427 2.3264C20.3727 2.3264 25.5627 7.5164 25.5627 13.9464C25.5627 20.3664 20.3727 25.5664 13.9427 25.5664ZM8.0227 15.8764C9.4627 15.8764 10.6127 14.7064 10.6127 13.2864C10.6127 11.8664 9.4627 10.7064 8.0227 10.7064C6.6027 10.7064 5.4527 11.8664 5.4527 13.2864C5.4527 14.7064 6.6027 15.8764 8.0227 15.8764ZM19.8627 15.8764C21.2827 15.8764 22.4327 14.7064 22.4327 13.2864C22.4327 11.8664 21.2827 10.7064 19.8627 10.7064C18.4327 10.7064 17.2827 11.8664 17.2827 13.2864C17.2827 14.7064 18.4327 15.8764 19.8627 15.8764ZM13.9427 22.2464C15.3627 22.2464 16.5327 21.0964 16.5327 19.6764C16.5327 18.2364 15.3627 17.0864 13.9427 17.0864C12.5227 17.0864 11.3627 18.2364 11.3627 19.6764C11.3627 21.0964 12.5227 22.2464 13.9427 22.2464Z" /></svg>