<svg viewBox="0 0 18.78515625 31.212890625" xmlns="http://www.w3.org/2000/svg"><path d="M7.7537 31.2144H11.0337C12.5237 31.2144 13.2937 30.4344 13.2937 28.9344V23.5244C13.2937 22.0144 14.0937 21.1744 15.3937 20.2244C17.6237 18.5644 18.7837 16.0344 18.7837 13.3944V9.8044C18.7837 8.3444 18.0237 7.5844 16.5537 7.5644L15.3037 7.5444V1.7544C15.3037 0.7744 14.5337 0.0044 13.5737 0.0044C12.6037 0.0044 11.8237 0.7744 11.8237 1.7544V7.5444H6.9637V1.7544C6.9637 0.7744 6.2037 0.0044 5.2537 0.0044C4.2837 0.0044 3.5037 0.7744 3.5037 1.7544V7.5444L2.2137 7.5644C0.7337 7.5844 0.0037 8.3444 0.0037 9.8044V13.3944C0.0037 16.0344 1.1637 18.5644 3.4037 20.2244C4.7037 21.1744 5.5137 22.0144 5.5137 23.5244V28.9344C5.5137 30.4344 6.2437 31.2144 7.7537 31.2144Z" /></svg>