
<svg
    viewBox="0 0 15.17578125 29.83203125"
    xmlns="http://www.w3.org/2000/svg"
>
    <path
        fill="inherit"
        d="M4.2137 29.8271H10.9637C13.7437 29.8271 15.1737 28.4071 15.1737 25.6771V4.1671C15.1737 1.4371 13.7437 -0.0029 10.9637 -0.0029H4.2137C1.4537 -0.0029 0.0037 1.4371 0.0037 4.1671V25.6771C0.0037 28.4071 1.4537 29.8271 4.2137 29.8271ZM7.6037 9.4371C6.4237 9.4371 5.4737 8.4871 5.4737 7.2971C5.4737 6.1571 6.4237 5.2071 7.6037 5.2071C8.7637 5.2071 9.7237 6.1571 9.7237 7.2971C9.7237 8.4871 8.7637 9.4371 7.6037 9.4371ZM7.6037 17.0371C6.4237 17.0371 5.4737 16.0871 5.4737 14.9171C5.4737 13.7571 6.4237 12.7971 7.6037 12.7971C8.7637 12.7971 9.7237 13.7571 9.7237 14.9171C9.7237 16.0871 8.7637 17.0371 7.6037 17.0371ZM7.6037 24.6371C6.4237 24.6371 5.4737 23.6771 5.4737 22.5171C5.4737 21.3571 6.4237 20.4071 7.6037 20.4071C8.7637 20.4071 9.7237 21.3571 9.7237 22.5171C9.7237 23.6771 8.7637 24.6371 7.6037 24.6371Z"
        fillRule="evenodd"
        clipRule="evenodd"
    />
</svg>
        