
<svg
    viewBox="0 0 26.03125 25.169921875"
    xmlns="http://www.w3.org/2000/svg"
>
    <path
        fill="inherit"
        d="M4.2937 25.1655H21.7337C24.5937 25.1655 26.0337 23.7455 26.0337 20.9355V4.2355C26.0337 1.4255 24.5937 -0.0045 21.7337 -0.0045H4.2937C1.4337 -0.0045 0.0037 1.4055 0.0037 4.2355V20.9355C0.0037 23.7655 1.4337 25.1655 4.2937 25.1655ZM4.3237 22.9655C2.9537 22.9655 2.2037 22.2455 2.2037 20.8255V4.3455C2.2037 2.9255 2.9537 2.2055 4.3237 2.2055H21.6937C23.0537 2.2055 23.8337 2.9255 23.8337 4.3455V20.8255C23.8337 22.2455 23.0537 22.9655 21.6937 22.9655ZM12.4537 10.9555H13.5637C14.0237 10.9555 14.3237 10.6355 14.3237 10.1755V6.1755C14.3237 5.7155 14.0237 5.3955 13.5637 5.3955H12.4537C12.0037 5.3955 11.6937 5.7155 11.6937 6.1755V10.1755C11.6937 10.6355 12.0037 10.9555 12.4537 10.9555ZM6.4437 19.0155H10.0037C10.4737 19.0155 10.7737 18.7155 10.7737 18.2555V17.1455C10.7737 16.6755 10.4737 16.3755 10.0037 16.3755H6.4437C5.9737 16.3755 5.6737 16.6955 5.6737 17.1455V18.2555C5.6737 18.7155 5.9737 19.0155 6.4437 19.0155ZM16.0237 19.0155H19.5737C20.0537 19.0155 20.3537 18.7155 20.3537 18.2555V17.1455C20.3537 16.6955 20.0437 16.3755 19.5737 16.3755H16.0237C15.5537 16.3755 15.2437 16.6755 15.2437 17.1455V18.2555C15.2437 18.7155 15.5537 19.0155 16.0237 19.0155Z"
        fillRule="evenodd"
        clipRule="evenodd"
    />
</svg>
        