
<svg
    viewBox={0 0 25.169921875 25.169921875}
    xmlns="http://www.w3.org/2000/svg"
>
    <path
        fill="inherit"
        d="M4.2937 25.1692H20.8737C23.7437 25.1692 25.1737 23.7592 25.1737 20.9492V4.2392C25.1737 1.4192 23.7437 -0.0008 20.8737 -0.0008H4.2937C1.4337 -0.0008 0.0037 1.4192 0.0037 4.2392V20.9492C0.0037 23.7592 1.4337 25.1692 4.2937 25.1692ZM4.3237 22.9692C2.9537 22.9692 2.2037 22.2392 2.2037 20.8192V4.3592C2.2037 2.9392 2.9537 2.1992 4.3237 2.1992H20.8537C22.2037 2.1992 22.9737 2.9392 22.9737 4.3592V20.8192C22.9737 22.2392 22.2037 22.9692 20.8537 22.9692ZM8.1037 7.7892C7.2637 7.7892 6.8937 8.1192 6.5037 8.6092L4.1537 11.6992C3.7437 12.2192 3.7437 12.8892 4.1537 13.4292L6.5037 16.5392C6.8937 17.0392 7.3837 17.3492 8.1037 17.3492H17.0637C17.7837 17.3492 18.2837 17.0392 18.6637 16.5392L21.0137 13.4292C21.4237 12.8892 21.4237 12.2192 21.0137 11.6992L18.6637 8.6092C18.2837 8.1192 17.9137 7.7892 17.0637 7.7892ZM7.8037 11.2692C8.5137 11.2692 9.1237 11.8692 9.1237 12.5792C9.1237 13.2892 8.5137 13.8792 7.8037 13.8792C7.1137 13.8792 6.5037 13.2892 6.5037 12.5792C6.5037 11.8692 7.1137 11.2692 7.8037 11.2692ZM17.3637 11.2692C18.0637 11.2692 18.6637 11.8692 18.6637 12.5792C18.6637 13.2892 18.0637 13.8792 17.3637 13.8792C16.6537 13.8792 16.0637 13.2892 16.0637 12.5792C16.0637 11.8692 16.6537 11.2692 17.3637 11.2692ZM12.5937 12.8792C13.3037 12.8792 13.8937 13.4792 13.8937 14.1792C13.8937 14.8892 13.3037 15.4892 12.5937 15.4892C11.8637 15.4892 11.2837 14.8892 11.2837 14.1792C11.2837 13.4792 11.8637 12.8792 12.5937 12.8792Z"
        fillRule="evenodd"
        clipRule="evenodd"
    />
</svg>
        