
<svg
    viewBox="0 0 34.09765625 20.5625"
    xmlns="http://www.w3.org/2000/svg"
>
    <path
        fill="inherit"
        d="M0.0037 8.5007V12.0607C0.0037 13.6807 0.8637 14.5307 2.4837 14.5307H8.4037C10.0737 14.5307 10.9737 15.4207 12.0437 16.8607C13.8337 19.2907 16.6137 20.5607 19.5137 20.5607H23.3937C25.0237 20.5607 25.8637 19.7307 25.8637 18.1007V16.7507H32.1837C33.2537 16.7507 34.0937 15.9007 34.0937 14.8607C34.0937 13.7807 33.2537 12.9307 32.1837 12.9307H25.8637V7.6307H32.1837C33.2537 7.6307 34.0937 6.7707 34.0937 5.7307C34.0937 4.6807 33.2537 3.8107 32.1837 3.8107H25.8637V2.4307C25.8637 0.8107 25.0237 0.0007 23.3937 0.0007H19.5137C16.6137 0.0007 13.8337 1.2407 12.0437 3.7007C10.9737 5.1507 10.0737 6.0307 8.4037 6.0307H2.4837C0.8637 6.0307 0.0037 6.8407 0.0037 8.5007Z"
        fillRule="evenodd"
        clipRule="evenodd"
    />
</svg>
        