<svg viewBox="0 0 27.890625 27.890625" xmlns="http://www.w3.org/2000/svg"><path d="M13.9427 27.8864C21.6427 27.8864 27.8927 21.6264 27.8927 13.9464C27.8927 6.2464 21.6427 -0.0036 13.9427 -0.0036C6.2627 -0.0036 0.0027 6.2464 0.0027 13.9464C0.0027 21.6264 6.2627 27.8864 13.9427 27.8864ZM8.2027 16.6064C6.7227 16.6064 5.5527 15.4064 5.5527 13.9464C5.5527 12.4864 6.7227 11.2764 8.2027 11.2764C9.6827 11.2764 10.8727 12.4864 10.8727 13.9464C10.8727 15.4064 9.6827 16.6064 8.2027 16.6064ZM19.6827 16.6064C18.2127 16.6064 17.0227 15.4064 17.0227 13.9464C17.0227 12.4864 18.2127 11.2764 19.6827 11.2764C21.1627 11.2764 22.3427 12.4864 22.3427 13.9464C22.3427 15.4064 21.1627 16.6064 19.6827 16.6064Z" /></svg>