
<svg
    viewBox="0 0 53.51171875 15.94140625"
    xmlns="http://www.w3.org/2000/svg"
>
    <path
        fill="inherit"
        d="M3.9937 15.9435H38.1737C40.1837 15.9435 41.7137 14.6535 42.0837 12.8135H43.6637C44.6137 12.8135 45.3037 12.1235 45.3037 11.1835V9.1235H53.5137V6.9135H45.3037V4.7535C45.3037 3.8135 44.6137 3.1335 43.6637 3.1335H42.0837C41.7137 1.2835 40.1837 0.0035 38.1737 0.0035H3.9937C1.6837 0.0035 0.0037 1.6935 0.0037 4.0035V11.9535C0.0037 14.2635 1.6837 15.9435 3.9937 15.9435ZM3.9937 13.8735C2.8437 13.8735 2.0637 13.0835 2.0637 11.9535V4.0035C2.0637 2.8535 2.8437 2.0635 3.9937 2.0635H38.1737C39.3037 2.0635 40.1037 2.8535 40.1037 4.0035V11.9535C40.1037 13.0835 39.3037 13.8735 38.1737 13.8735ZM13.5937 12.1835C15.9137 12.1835 17.8037 10.3135 17.8037 7.9735C17.8037 5.6635 15.9137 3.7635 13.5937 3.7635C11.2637 3.7635 9.3837 5.6635 9.3837 7.9735C9.3837 10.3135 11.2637 12.1835 13.5937 12.1835ZM23.7337 12.1835C26.0537 12.1835 27.9637 10.3135 27.9637 7.9735C27.9637 5.6635 26.0537 3.7635 23.7337 3.7635C21.4137 3.7635 19.5337 5.6635 19.5337 7.9735C19.5337 10.3135 21.4137 12.1835 23.7337 12.1835ZM33.8837 12.1835C36.2037 12.1835 38.0937 10.3135 38.0937 7.9735C38.0937 5.6635 36.2037 3.7635 33.8837 3.7635C31.5537 3.7635 29.6837 5.6635 29.6837 7.9735C29.6837 10.3135 31.5537 12.1835 33.8837 12.1835ZM5.3737 11.0735H6.3037C6.6837 11.0735 6.9637 10.8035 6.9637 10.4035V5.5235C6.9637 5.1035 6.6837 4.8435 6.3037 4.8435H5.3737C4.9637 4.8435 4.7037 5.1035 4.7037 5.5235V10.4035C4.7037 10.8035 4.9637 11.0735 5.3737 11.0735ZM42.9337 4.9235C43.2737 4.9235 43.5137 5.1535 43.5137 5.4935V10.4335C43.5137 10.7835 43.2737 11.0235 42.9337 11.0235H42.1637V4.9235ZM12.0437 10.1835C11.7137 10.1835 11.4437 9.9135 11.4437 9.5935V6.3535C11.4437 6.0435 11.7137 5.7535 12.0437 5.7535C12.3637 5.7535 12.6237 6.0335 12.6237 6.3535V9.5935C12.6237 9.9235 12.3637 10.1835 12.0437 10.1835ZM15.1337 10.1835C14.8037 10.1835 14.5337 9.9235 14.5337 9.5935V6.3535C14.5337 6.0335 14.7937 5.7535 15.1337 5.7535C15.4637 5.7535 15.7137 6.0335 15.7137 6.3535V9.5935C15.7137 9.9235 15.4637 10.1835 15.1337 10.1835ZM22.1737 10.1835C21.8637 10.1835 21.5837 9.9235 21.5837 9.5935V6.3535C21.5837 6.0435 21.8637 5.7535 22.1737 5.7535C22.5137 5.7535 22.7737 6.0335 22.7737 6.3535V9.5935C22.7737 9.9235 22.5137 10.1835 22.1737 10.1835ZM25.2837 10.1835C24.9537 10.1835 24.6737 9.9235 24.6737 9.5935V6.3535C24.6737 6.0335 24.9537 5.7535 25.2837 5.7535C25.6037 5.7535 25.8637 6.0335 25.8637 6.3535V9.5935C25.8637 9.9235 25.5937 10.1835 25.2837 10.1835ZM32.3337 10.1835C32.0037 10.1835 31.7337 9.9235 31.7337 9.5935V6.3535C31.7337 6.0435 32.0037 5.7535 32.3337 5.7535C32.6637 5.7535 32.9237 6.0335 32.9237 6.3535V9.5935C32.9237 9.9235 32.6437 10.1835 32.3337 10.1835ZM35.4237 10.1835C35.0937 10.1835 34.8237 9.9235 34.8237 9.5935V6.3535C34.8237 6.0335 35.0837 5.7535 35.4237 5.7535C35.7537 5.7535 35.9937 6.0335 35.9937 6.3535V9.5935C35.9937 9.9235 35.7537 10.1835 35.4237 10.1835Z"
        fillRule="evenodd"
        clipRule="evenodd"
    />
</svg>
        