<svg viewBox="0 0 25.169921875 25.169921875" xmlns="http://www.w3.org/2000/svg"><path d="M4.2937 25.1692H20.8737C23.7437 25.1692 25.1737 23.7592 25.1737 20.9492V4.2392C25.1737 1.4192 23.7437 -0.0008 20.8737 -0.0008H4.2937C1.4337 -0.0008 0.0037 1.4192 0.0037 4.2392V20.9492C0.0037 23.7592 1.4337 25.1692 4.2937 25.1692ZM10.1137 20.7792C9.3537 20.7792 8.7937 20.2192 8.7937 19.4392V5.7192C8.7937 4.9492 9.3537 4.3892 10.1137 4.3892H15.0537C15.8137 4.3892 16.3837 4.9492 16.3837 5.7192V19.4392C16.3837 20.2192 15.8137 20.7792 15.0537 20.7792ZM12.5937 9.4092C13.3737 9.4092 14.0137 8.7592 14.0137 7.9892C14.0137 7.1892 13.3737 6.5492 12.5937 6.5492C11.8037 6.5492 11.1537 7.1892 11.1537 7.9892C11.1537 8.7592 11.8037 9.4092 12.5937 9.4092ZM12.5937 13.9992C13.3737 13.9992 14.0137 13.3692 14.0137 12.5792C14.0137 11.7892 13.3737 11.1592 12.5937 11.1592C11.8037 11.1592 11.1537 11.7892 11.1537 12.5792C11.1537 13.3692 11.8037 13.9992 12.5937 13.9992ZM12.5937 18.6092C13.3737 18.6092 14.0137 17.9692 14.0137 17.1692C14.0137 16.3792 13.3737 15.7492 12.5937 15.7492C11.8037 15.7492 11.1537 16.3792 11.1537 17.1692C11.1537 17.9692 11.8037 18.6092 12.5937 18.6092Z" /></svg>