
<svg
    viewBox={0 0 25.169921875 25.169921875}
    xmlns="http://www.w3.org/2000/svg"
>
    <path
        fill="inherit"
        d="M4.2937 25.1692H20.8737C23.7437 25.1692 25.1737 23.7592 25.1737 20.9492V4.2392C25.1737 1.4192 23.7437 -0.0008 20.8737 -0.0008H4.2937C1.4337 -0.0008 0.0037 1.4192 0.0037 4.2392V20.9492C0.0037 23.7592 1.4337 25.1692 4.2937 25.1692ZM4.3237 22.9692C2.9537 22.9692 2.2037 22.2392 2.2037 20.8192V4.3592C2.2037 2.9392 2.9537 2.1992 4.3237 2.1992H20.8537C22.2037 2.1992 22.9737 2.9392 22.9737 4.3592V20.8192C22.9737 22.2392 22.2037 22.9692 20.8537 22.9692ZM7.3737 18.9992H17.8837C18.6237 18.9992 19.1637 18.4592 19.1637 17.7192V7.4692C19.1637 6.7292 18.6237 6.1792 17.8837 6.1792H7.3737C6.6337 6.1792 6.0837 6.7292 6.0837 7.4692V17.7192C6.0837 18.4592 6.6337 18.9992 7.3737 18.9992ZM16.6537 12.3892C16.4437 12.6492 16.1437 12.6292 15.9137 12.3892L13.9637 10.4592C13.7137 10.2292 13.7137 9.9292 13.9637 9.6892L14.4537 9.1992C14.6737 8.9692 14.9737 8.9792 15.1937 9.2192L17.1437 11.1692C17.3737 11.3992 17.3737 11.6792 17.1437 11.9092ZM8.1037 11.9092C7.8737 11.6792 7.8737 11.3992 8.1037 11.1692L10.0637 9.2292C10.2937 8.9792 10.5837 8.9792 10.8037 9.2192L11.2837 9.6892C11.5437 9.9292 11.5237 10.2292 11.2837 10.4592L9.3337 12.3892C9.0937 12.6492 8.8037 12.6492 8.6037 12.3892ZM12.2737 17.0092C11.9737 17.0092 11.7437 16.7992 11.7437 16.4992V14.0692C11.7437 13.7492 11.9737 13.5192 12.2737 13.5192H12.9637C13.2637 13.5192 13.5037 13.7492 13.5037 14.0692V16.4992C13.5037 16.8192 13.2737 17.0092 12.9637 17.0092Z"
        fillRule="evenodd"
        clipRule="evenodd"
    />
</svg>
        