
<svg
    viewBox="0 0 53.51171875 15.66796875"
    xmlns="http://www.w3.org/2000/svg"
>
    <path
        fill="inherit"
        d="M3.8537 15.6668H38.0337C40.0737 15.6668 41.5937 14.3268 41.8537 12.3968H43.3937C44.3337 12.3968 45.0337 11.7168 45.0337 10.7768V8.9868H53.5137V6.7768H45.0337V4.8968C45.0337 3.9468 44.3337 3.2668 43.3937 3.2668H41.8537C41.5937 1.3368 40.0737 -0.0032 38.0337 -0.0032H3.8537C1.6137 -0.0032 0.0037 1.6268 0.0037 3.8668V11.8168C0.0037 14.0568 1.6137 15.6668 3.8537 15.6668ZM13.2037 12.1768C10.8137 12.1768 8.8637 10.2368 8.8637 7.8368C8.8637 5.4568 10.8137 3.4868 13.2037 3.4868C15.6037 3.4868 17.5537 5.4568 17.5537 7.8368C17.5537 10.2368 15.6037 12.1768 13.2037 12.1768ZM23.6637 12.1768C21.2737 12.1768 19.3437 10.2368 19.3437 7.8368C19.3437 5.4568 21.2737 3.4868 23.6637 3.4868C26.0737 3.4868 28.0237 5.4568 28.0237 7.8368C28.0237 10.2368 26.0737 12.1768 23.6637 12.1768ZM34.1437 12.1768C31.7337 12.1768 29.8037 10.2368 29.8037 7.8368C29.8037 5.4568 31.7337 3.4868 34.1437 3.4868C36.5337 3.4868 38.4837 5.4568 38.4837 7.8368C38.4837 10.2368 36.5337 12.1768 34.1437 12.1768ZM4.7337 11.0368C4.3037 11.0368 4.0337 10.7568 4.0337 10.3468V5.3068C4.0337 4.8668 4.3037 4.6068 4.7337 4.6068H5.6837C6.0837 4.6068 6.3737 4.8668 6.3737 5.3068V10.3468C6.3737 10.7568 6.0837 11.0368 5.6837 11.0368ZM11.6037 10.1168C11.9537 10.1168 12.2137 9.8468 12.2137 9.5168V6.1668C12.2137 5.8368 11.9537 5.5468 11.6037 5.5468C11.2837 5.5468 10.9937 5.8468 10.9937 6.1668V9.5168C10.9937 9.8268 11.2837 10.1168 11.6037 10.1168ZM14.8037 10.1168C15.1337 10.1168 15.3937 9.8468 15.3937 9.5168V6.1668C15.3937 5.8368 15.1337 5.5468 14.8037 5.5468C14.4537 5.5468 14.1737 5.8368 14.1737 6.1668V9.5168C14.1737 9.8468 14.4637 10.1168 14.8037 10.1168ZM22.0637 10.1168C22.4237 10.1168 22.6837 9.8468 22.6837 9.5168V6.1668C22.6837 5.8368 22.4237 5.5468 22.0637 5.5468C21.7337 5.5468 21.4537 5.8468 21.4537 6.1668V9.5168C21.4537 9.8468 21.7337 10.1168 22.0637 10.1168ZM25.2637 10.1168C25.5937 10.1168 25.8637 9.8468 25.8637 9.5168V6.1668C25.8637 5.8368 25.6037 5.5468 25.2637 5.5468C24.9237 5.5468 24.6537 5.8368 24.6537 6.1668V9.5168C24.6537 9.8468 24.9237 10.1168 25.2637 10.1168ZM32.5437 10.1168C32.8637 10.1168 33.1537 9.8468 33.1537 9.5168V6.1668C33.1537 5.8368 32.8837 5.5468 32.5437 5.5468C32.1937 5.5468 31.9237 5.8468 31.9237 6.1668V9.5168C31.9237 9.8468 32.1937 10.1168 32.5437 10.1168ZM35.7337 10.1168C36.0637 10.1168 36.3237 9.8468 36.3237 9.5168V6.1668C36.3237 5.8368 36.0637 5.5468 35.7337 5.5468C35.3837 5.5468 35.1137 5.8368 35.1137 6.1668V9.5168C35.1137 9.8468 35.3937 10.1168 35.7337 10.1168Z"
        fillRule="evenodd"
        clipRule="evenodd"
    />
</svg>
        