
<svg
    viewBox="0 0 25.169921875 25.169921875"
    xmlns="http://www.w3.org/2000/svg"
>
    <path
        fill="inherit"
        d="M4.2937 25.1692H20.8737C23.7437 25.1692 25.1737 23.7592 25.1737 20.9492V4.2392C25.1737 1.4192 23.7437 -0.0008 20.8737 -0.0008H4.2937C1.4337 -0.0008 0.0037 1.4192 0.0037 4.2392V20.9492C0.0037 23.7592 1.4337 25.1692 4.2937 25.1692ZM4.3237 22.9692C2.9537 22.9692 2.2037 22.2392 2.2037 20.8192V4.3592C2.2037 2.9392 2.9537 2.1992 4.3237 2.1992H20.8537C22.2037 2.1992 22.9737 2.9392 22.9737 4.3592V20.8192C22.9737 22.2392 22.2037 22.9692 20.8537 22.9692ZM7.9537 8.3692C7.0937 8.3692 6.7637 8.7492 6.3137 9.2192L3.8837 11.6592C3.4037 12.1592 3.3937 12.9792 3.8837 13.4692L6.3137 15.9392C6.7637 16.4092 7.2237 16.7892 7.9537 16.7892H17.2137C17.9537 16.7892 18.4037 16.4092 18.8537 15.9392L21.2837 13.4692C21.7837 12.9792 21.7837 12.1592 21.2837 11.6592L18.8537 9.2192C18.4037 8.7492 18.0737 8.3692 17.2137 8.3692ZM7.6537 11.2292C8.3937 11.2292 9.0137 11.8492 9.0137 12.5792C9.0137 13.2992 8.3937 13.9192 7.6537 13.9192C6.9337 13.9192 6.3137 13.2992 6.3137 12.5792C6.3137 11.8492 6.9337 11.2292 7.6537 11.2292ZM17.5137 11.2292C18.2337 11.2292 18.8537 11.8492 18.8537 12.5792C18.8537 13.2992 18.2337 13.9192 17.5137 13.9192C16.7737 13.9192 16.1737 13.2992 16.1737 12.5792C16.1737 11.8492 16.7737 11.2292 17.5137 11.2292ZM12.5937 12.2092C13.3137 12.2092 13.9337 12.8192 13.9337 13.5592C13.9337 14.2892 13.3137 14.8992 12.5937 14.8992C11.8537 14.8992 11.2337 14.2892 11.2337 13.5592C11.2337 12.8192 11.8537 12.2092 12.5937 12.2092Z"
        fillRule="evenodd"
        clipRule="evenodd"
    />
</svg>
        