
<svg
    viewBox="0 0 30.720703125 29.3671875"
    xmlns="http://www.w3.org/2000/svg"
>
    <path
        fill="inherit"
        d="M5.4137 3.1612H25.3037V2.9213C25.3037 0.9013 23.7337 0.0012 21.5237 0.0012H9.2037C7.0837 0.0012 5.4137 0.9013 5.4137 2.9213ZM4.0637 24.1313H4.3737V16.5412C4.3737 14.5913 5.5737 13.3813 7.5337 13.3813H23.1837C25.1437 13.3813 26.3437 14.5913 26.3437 16.5412V24.1313H26.6437C29.3137 24.1313 30.7237 22.7913 30.7237 20.1213V8.9913C30.7237 6.3313 29.3137 4.9812 26.6437 4.9812H4.0637C1.5437 4.9812 0.0037 6.3313 0.0037 8.9913V20.1213C0.0037 22.7913 1.4037 24.1313 4.0637 24.1313ZM25.6337 11.4313C24.6937 11.4313 23.9437 10.6613 23.9437 9.7313C23.9437 8.7913 24.6937 8.0413 25.6337 8.0413C26.5637 8.0413 27.3337 8.7913 27.3337 9.7313C27.3337 10.6613 26.5637 11.4313 25.6337 11.4313ZM6.2437 27.5213C6.2437 28.6313 6.9837 29.3713 8.0837 29.3713H22.6437C23.7437 29.3713 24.4737 28.6313 24.4737 27.5213V16.5412C24.4737 15.7613 23.9637 15.2613 23.1837 15.2613H7.5337C6.7637 15.2613 6.2437 15.7613 6.2437 16.5412ZM10.9137 20.7413C10.4037 20.7413 10.0237 20.3413 10.0237 19.8413C10.0237 19.3612 10.4037 18.9913 10.9137 18.9913H19.8337C20.3437 18.9913 20.7137 19.3612 20.7137 19.8413C20.7137 20.3413 20.3437 20.7413 19.8337 20.7413ZM10.9137 25.6313C10.4037 25.6313 10.0237 25.2513 10.0237 24.7712C10.0237 24.2712 10.4037 23.8813 10.9137 23.8813H19.8337C20.3437 23.8813 20.7137 24.2712 20.7137 24.7712C20.7137 25.2513 20.3437 25.6313 19.8337 25.6313Z"
        fillRule="evenodd"
        clipRule="evenodd"
    />
</svg>
        