
<svg
    viewBox="0 0 30.884765625 29.44921875"
    xmlns="http://www.w3.org/2000/svg"
>
    <path
        fill="inherit"
        d="M4.0737 25.3933H5.5137V26.8333C5.5137 28.6533 6.3837 29.4533 8.1237 29.4533H22.7637C24.5037 29.4533 25.3737 28.6533 25.3737 26.8333V25.3933H26.8237C29.4737 25.3933 30.8837 24.0533 30.8837 21.3833V8.5833C30.8837 5.9333 29.4737 4.5833 26.8237 4.5833H25.4737V3.8533C25.4737 1.1933 24.1437 0.0033 21.6037 0.0033H9.2837C6.8737 0.0033 5.4137 1.1933 5.4137 3.8533V4.5833H4.0737C1.5437 4.5833 0.0037 5.9333 0.0037 8.5833V21.3833C0.0037 24.0533 1.4037 25.3933 4.0737 25.3933ZM7.5337 3.7033C7.5337 2.5533 8.1237 1.9933 9.2537 1.9933H21.6337C22.7737 1.9933 23.3537 2.5533 23.3537 3.7033V4.5833H7.5337ZM22.7637 13.0733H8.1237C6.4637 13.0733 5.5137 13.8633 5.5137 15.6833V23.3233H4.0437C2.8337 23.3233 2.2137 22.6933 2.2137 21.4933V8.4733C2.2137 7.2733 2.8337 6.6433 4.0437 6.6433H26.8537C28.0537 6.6433 28.6837 7.2733 28.6837 8.4733V21.4933C28.6837 22.6933 28.0537 23.3233 26.8537 23.3233H25.3737V15.6833C25.3737 13.8633 24.5037 13.0733 22.7637 13.0733ZM22.0637 9.8833C22.0637 10.8433 22.8637 11.5933 23.7937 11.5933C24.7037 11.5933 25.4837 10.8433 25.4837 9.8833C25.4837 8.9833 24.7037 8.1933 23.7937 8.1933C22.8637 8.1933 22.0637 8.9833 22.0637 9.8833ZM10.4337 19.4033C9.9137 19.4033 9.5337 19.0133 9.5337 18.5233C9.5337 18.0233 9.9137 17.6533 10.4337 17.6533H20.4937C21.0037 17.6533 21.3737 18.0233 21.3737 18.5233C21.3737 19.0133 21.0037 19.4033 20.4937 19.4033ZM10.4337 24.8733C9.9137 24.8733 9.5337 24.4833 9.5337 23.9933C9.5337 23.5033 9.9137 23.1233 10.4337 23.1233H20.4937C21.0037 23.1233 21.3737 23.5033 21.3737 23.9933C21.3737 24.4833 21.0037 24.8733 20.4937 24.8733Z"
        fillRule="evenodd"
        clipRule="evenodd"
    />
</svg>
        