
<svg
    viewBox="0 0 30.720703125 29.353515625"
    xmlns="http://www.w3.org/2000/svg"
>
    <path
        fill="inherit"
        d="M5.4137 3.1612H25.3037V2.9213C25.3037 0.9013 23.7337 0.0012 21.5237 0.0012H9.2037C7.0837 0.0012 5.4137 0.9013 5.4137 2.9213ZM7.6337 29.3513H23.0937C24.8237 29.3513 25.7037 28.5713 25.7037 26.7513V24.1313H26.6437C29.3137 24.1313 30.7237 22.7913 30.7237 20.1213V8.9913C30.7237 6.3313 29.3137 4.9812 26.6437 4.9812H4.0637C1.5437 4.9812 0.0037 6.3313 0.0037 8.9913V20.1213C0.0037 22.7913 1.4037 24.1313 4.0637 24.1313H5.0137V26.7513C5.0137 28.5713 5.8937 29.3513 7.6337 29.3513ZM22.0137 9.5013C22.0137 8.5613 22.8137 7.7413 23.7937 7.7413C24.7237 7.7413 25.5437 8.5613 25.5437 9.5013C25.5437 10.4713 24.7237 11.2413 23.7937 11.2513C22.8137 11.2513 22.0137 10.4913 22.0137 9.5013ZM8.7237 27.3013C7.9837 27.3013 7.6337 26.9513 7.6337 26.2113V16.0513C7.6337 15.3213 7.9937 14.9713 8.7237 14.9713H22.0137C22.7337 14.9713 23.0937 15.3213 23.0937 16.0513V26.2113C23.0937 26.9513 22.7337 27.3013 22.0137 27.3013ZM10.9937 18.6313C11.6737 18.6313 12.2337 18.1013 12.2337 17.4013C12.2337 16.7213 11.6737 16.1913 10.9937 16.1913C10.3237 16.1913 9.7637 16.7213 9.7637 17.4013C9.7637 18.1013 10.3237 18.6313 10.9937 18.6313ZM19.7437 18.6313C20.4237 18.6313 20.9737 18.1013 20.9737 17.4013C20.9737 16.7213 20.4237 16.1913 19.7437 16.1913C19.0537 16.1913 18.5137 16.7213 18.5137 17.4013C18.5137 18.1013 19.0537 18.6313 19.7437 18.6313ZM10.9937 22.3913C11.6737 22.3913 12.2337 21.8612 12.2337 21.1813C12.2337 20.4913 11.6737 19.9513 10.9937 19.9513C10.3237 19.9513 9.7637 20.4913 9.7637 21.1813C9.7637 21.8612 10.3237 22.3913 10.9937 22.3913ZM19.7437 22.3913C20.4237 22.3913 20.9737 21.8612 20.9737 21.1813C20.9737 20.4913 20.4237 19.9513 19.7437 19.9513C19.0537 19.9513 18.5137 20.4913 18.5137 21.1813C18.5137 21.8612 19.0537 22.3913 19.7437 22.3913ZM10.9937 26.1713C11.6737 26.1713 12.2337 25.6313 12.2337 24.9413C12.2337 24.2513 11.6737 23.7213 10.9937 23.7213C10.3237 23.7213 9.7637 24.2513 9.7637 24.9413C9.7637 25.6313 10.3237 26.1713 10.9937 26.1713ZM19.7437 26.1713C20.4237 26.1713 20.9737 25.6313 20.9737 24.9413C20.9737 24.2513 20.4237 23.7213 19.7437 23.7213C19.0537 23.7213 18.5137 24.2513 18.5137 24.9413C18.5137 25.6313 19.0537 26.1713 19.7437 26.1713Z"
        fillRule="evenodd"
        clipRule="evenodd"
    />
</svg>
        