<svg viewBox="0 0 30.884765625 29.44921875" xmlns="http://www.w3.org/2000/svg"><path d="M4.0737 25.3933H5.5137V26.8333C5.5137 28.6533 6.3837 29.4533 8.1237 29.4533H22.7637C24.5037 29.4533 25.3737 28.6533 25.3737 26.8333V25.3933H26.8237C29.4737 25.3933 30.8837 24.0533 30.8837 21.3833V8.5833C30.8837 5.9333 29.4737 4.5833 26.8237 4.5833H25.4737V3.8533C25.4737 1.1933 24.1437 0.0033 21.6037 0.0033H9.2837C6.8737 0.0033 5.4137 1.1933 5.4137 3.8533V4.5833H4.0737C1.5437 4.5833 0.0037 5.9333 0.0037 8.5833V21.3833C0.0037 24.0533 1.4037 25.3933 4.0737 25.3933ZM7.5337 3.7033C7.5337 2.5533 8.1237 1.9933 9.2537 1.9933H21.6337C22.7737 1.9933 23.3537 2.5533 23.3537 3.7033V4.5833H7.5337ZM22.7637 13.0733H8.1237C6.4637 13.0733 5.5137 13.8633 5.5137 15.6833V23.3233H4.0437C2.8337 23.3233 2.2137 22.6933 2.2137 21.4933V8.4733C2.2137 7.2733 2.8337 6.6433 4.0437 6.6433H26.8537C28.0537 6.6433 28.6837 7.2733 28.6837 8.4733V21.4933C28.6837 22.6933 28.0537 23.3233 26.8537 23.3233H25.3737V15.6833C25.3737 13.8633 24.5037 13.0733 22.7637 13.0733ZM22.0637 9.8833C22.0637 10.8433 22.8637 11.5933 23.7937 11.5933C24.7037 11.5933 25.4837 10.8433 25.4837 9.8833C25.4837 8.9833 24.7037 8.1933 23.7937 8.1933C22.8637 8.1933 22.0637 8.9833 22.0637 9.8833ZM8.8037 27.3833C8.0837 27.3833 7.7137 27.0333 7.7137 26.2933V16.2133C7.7137 15.4733 8.0837 15.1333 8.8037 15.1333H22.0937C22.8337 15.1333 23.1737 15.4733 23.1737 16.2133V26.2933C23.1737 27.0333 22.8337 27.3833 22.0937 27.3833ZM11.0737 18.7133C11.7537 18.7133 12.3137 18.1833 12.3137 17.4833C12.3137 16.8033 11.7537 16.2733 11.0737 16.2733C10.4037 16.2733 9.8437 16.8033 9.8437 17.4833C9.8437 18.1833 10.4037 18.7133 11.0737 18.7133ZM19.8237 18.7133C20.5037 18.7133 21.0537 18.1833 21.0537 17.4833C21.0537 16.8033 20.5037 16.2733 19.8237 16.2733C19.1437 16.2733 18.5937 16.8033 18.5937 17.4833C18.5937 18.1833 19.1437 18.7133 19.8237 18.7133ZM11.0737 22.4733C11.7537 22.4733 12.3137 21.9433 12.3137 21.2633C12.3137 20.5733 11.7537 20.0333 11.0737 20.0333C10.4037 20.0333 9.8437 20.5733 9.8437 21.2633C9.8437 21.9433 10.4037 22.4733 11.0737 22.4733ZM19.8237 22.4733C20.5037 22.4733 21.0537 21.9433 21.0537 21.2633C21.0537 20.5733 20.5037 20.0333 19.8237 20.0333C19.1437 20.0333 18.5937 20.5733 18.5937 21.2633C18.5937 21.9433 19.1437 22.4733 19.8237 22.4733ZM11.0737 26.2533C11.7537 26.2533 12.3137 25.7133 12.3137 25.0233C12.3137 24.3333 11.7537 23.8033 11.0737 23.8033C10.4037 23.8033 9.8437 24.3333 9.8437 25.0233C9.8437 25.7133 10.4037 26.2533 11.0737 26.2533ZM19.8237 26.2533C20.5037 26.2533 21.0537 25.7133 21.0537 25.0233C21.0537 24.3333 20.5037 23.8033 19.8237 23.8033C19.1437 23.8033 18.5937 24.3333 18.5937 25.0233C18.5937 25.7133 19.1437 26.2533 19.8237 26.2533Z" /></svg>