
<svg
    viewBox="0 0 30.884765625 29.44921875"
    xmlns="http://www.w3.org/2000/svg"
>
    <path
        fill="inherit"
        d="M4.0737 25.3933H5.5137V26.8333C5.5137 28.6533 6.3837 29.4533 8.1237 29.4533H22.7637C24.5037 29.4533 25.3737 28.6533 25.3737 26.8333V25.3933H26.8237C29.4737 25.3933 30.8837 24.0533 30.8837 21.3833V8.5833C30.8837 5.9333 29.4737 4.5833 26.8237 4.5833H25.4737V3.8533C25.4737 1.1933 24.1437 0.0033 21.6037 0.0033H9.2837C6.8737 0.0033 5.4137 1.1933 5.4137 3.8533V4.5833H4.0737C1.5437 4.5833 0.0037 5.9333 0.0037 8.5833V21.3833C0.0037 24.0533 1.4037 25.3933 4.0737 25.3933ZM7.5337 3.7033C7.5337 2.5533 8.1237 1.9933 9.2537 1.9933H21.6337C22.7737 1.9933 23.3537 2.5533 23.3537 3.7033V4.5833H7.5337ZM22.7637 13.0733H8.1237C6.4637 13.0733 5.5137 13.8633 5.5137 15.6833V23.3233H4.0437C2.8337 23.3233 2.2137 22.6933 2.2137 21.4933V8.4733C2.2137 7.2733 2.8337 6.6433 4.0437 6.6433H26.8537C28.0537 6.6433 28.6837 7.2733 28.6837 8.4733V21.4933C28.6837 22.6933 28.0537 23.3233 26.8537 23.3233H25.3737V15.6833C25.3737 13.8633 24.5037 13.0733 22.7637 13.0733ZM22.0637 9.8833C22.0637 10.8433 22.8437 11.5933 23.7937 11.5933C24.6937 11.5833 25.4837 10.8433 25.4837 9.8833C25.4837 8.9833 24.6937 8.1933 23.7937 8.1933C22.8437 8.1933 22.0637 8.9833 22.0637 9.8833ZM10.9337 18.6533C10.2537 18.6533 9.6637 18.0833 9.6637 17.3733C9.6637 16.6633 10.2537 16.1233 10.9337 16.1233C11.6437 16.1233 12.2237 16.6633 12.2237 17.3733C12.2237 18.0833 11.6437 18.6533 10.9337 18.6533ZM19.9637 18.6533C19.2537 18.6533 18.6937 18.0833 18.6937 17.3733C18.6937 16.6633 19.2537 16.1233 19.9637 16.1233C20.6537 16.1233 21.2337 16.6633 21.2337 17.3733C21.2337 18.0833 20.6537 18.6533 19.9637 18.6533ZM10.9337 22.5133C10.2537 22.5133 9.6637 21.9733 9.6637 21.2633C9.6637 20.5533 10.2537 19.9833 10.9337 19.9833C11.6437 19.9833 12.2237 20.5533 12.2237 21.2633C12.2237 21.9733 11.6437 22.5133 10.9337 22.5133ZM19.9637 22.5133C19.2537 22.5133 18.6937 21.9733 18.6937 21.2633C18.6937 20.5533 19.2537 19.9833 19.9637 19.9833C20.6537 19.9833 21.2337 20.5533 21.2337 21.2633C21.2337 21.9733 20.6537 22.5133 19.9637 22.5133ZM10.9337 26.4033C10.2537 26.4033 9.6637 25.8533 9.6637 25.1333C9.6637 24.4333 10.2537 23.8733 10.9337 23.8733C11.6437 23.8733 12.2237 24.4333 12.2237 25.1333C12.2237 25.8533 11.6437 26.4033 10.9337 26.4033ZM19.9637 26.4033C19.2537 26.4033 18.6937 25.8533 18.6937 25.1333C18.6937 24.4333 19.2537 23.8733 19.9637 23.8733C20.6537 23.8733 21.2337 24.4333 21.2337 25.1333C21.2337 25.8533 20.6537 26.4033 19.9637 26.4033Z"
        fillRule="evenodd"
        clipRule="evenodd"
    />
</svg>
        