
<svg
    viewBox="0 0 30.720703125 29.353515625"
    xmlns="http://www.w3.org/2000/svg"
>
    <path
        fill="inherit"
        d="M5.4137 3.1612H25.3037V2.9213C25.3037 0.9013 23.7337 0.0012 21.5237 0.0012H9.2037C7.0837 0.0012 5.4137 0.9013 5.4137 2.9213ZM7.6337 29.3513H23.0937C24.8237 29.3513 25.7037 28.5713 25.7037 26.7513V24.1313H26.6437C29.3137 24.1313 30.7237 22.7913 30.7237 20.1213V8.9913C30.7237 6.3313 29.3137 4.9812 26.6437 4.9812H4.0637C1.5437 4.9812 0.0037 6.3313 0.0037 8.9913V20.1213C0.0037 22.7913 1.4037 24.1313 4.0637 24.1313H5.0137V26.7513C5.0137 28.5713 5.8937 29.3513 7.6337 29.3513ZM22.0137 9.5013C22.0137 8.5613 22.8137 7.7413 23.7937 7.7413C24.7237 7.7413 25.5437 8.5613 25.5437 9.5013C25.5437 10.4713 24.7237 11.2413 23.7937 11.2513C22.8137 11.2513 22.0137 10.4913 22.0137 9.5013ZM8.3137 27.3013C7.5737 27.3013 7.2237 26.9513 7.2237 26.2113V16.0513C7.2237 15.3213 7.5837 14.9713 8.3137 14.9713H22.4237C23.1437 14.9713 23.5037 15.3213 23.5037 16.0513V26.2113C23.5037 26.9513 23.1437 27.3013 22.4237 27.3013ZM10.6237 19.6313H20.1237C20.6037 19.6313 20.9737 19.2613 20.9737 18.7713C20.9737 18.3113 20.6037 17.9513 20.1237 17.9513H10.6237C10.1137 17.9513 9.7637 18.3113 9.7637 18.7713C9.7637 19.2613 10.1137 19.6313 10.6237 19.6313ZM10.6237 24.4013H20.1237C20.6037 24.4013 20.9737 24.0313 20.9737 23.5713C20.9737 23.0913 20.6037 22.7213 20.1237 22.7213H10.6237C10.1137 22.7213 9.7637 23.0913 9.7637 23.5713C9.7637 24.0313 10.1137 24.4013 10.6237 24.4013Z"
        fillRule="evenodd"
        clipRule="evenodd"
    />
</svg>
        