
<svg
    viewBox="0 0 30.720703125 29.3671875"
    xmlns="http://www.w3.org/2000/svg"
>
    <path
        fill="inherit"
        d="M5.4137 3.1612H25.3037V2.9213C25.3037 0.9013 23.7337 0.0012 21.5237 0.0012H9.2037C7.0837 0.0012 5.4137 0.9013 5.4137 2.9213ZM4.0637 24.1313H4.3737V16.5412C4.3737 14.5613 5.5537 13.3813 7.5337 13.3813H23.1837C25.1737 13.3813 26.3437 14.5613 26.3437 16.5412V24.1313H26.6437C29.3137 24.1313 30.7237 22.7913 30.7237 20.1213V8.9913C30.7237 6.3313 29.3137 4.9812 26.6437 4.9812H4.0637C1.5437 4.9812 0.0037 6.3313 0.0037 8.9913V20.1213C0.0037 22.7913 1.4037 24.1313 4.0637 24.1313ZM22.0137 9.5013C22.0137 8.5613 22.8137 7.7413 23.7937 7.7413C24.7237 7.7413 25.5437 8.5613 25.5437 9.5013C25.5437 10.4713 24.7237 11.2413 23.7937 11.2513C22.8137 11.2513 22.0137 10.4913 22.0137 9.5013ZM6.2437 27.5213C6.2437 28.6313 6.9837 29.3713 8.0837 29.3713H22.6437C23.7437 29.3713 24.4737 28.6313 24.4737 27.5213V16.5412C24.4737 15.7613 23.9637 15.2613 23.1837 15.2613H7.5337C6.7637 15.2613 6.2437 15.7613 6.2437 16.5412ZM10.9937 19.7713C10.3237 19.7713 9.7637 19.2413 9.7637 18.5412C9.7637 17.8513 10.3237 17.3213 10.9937 17.3213C11.6737 17.3213 12.2337 17.8513 12.2337 18.5412C12.2337 19.2413 11.6737 19.7713 10.9937 19.7713ZM19.7437 19.7713C19.0537 19.7713 18.5137 19.2413 18.5137 18.5412C18.5137 17.8513 19.0537 17.3213 19.7437 17.3213C20.4237 17.3213 20.9737 17.8513 20.9737 18.5412C20.9737 19.2413 20.4237 19.7713 19.7437 19.7713ZM10.9937 23.5313C10.3237 23.5313 9.7637 22.9913 9.7637 22.3113C9.7637 21.6112 10.3237 21.0813 10.9937 21.0813C11.6737 21.0813 12.2337 21.6112 12.2337 22.3113C12.2337 22.9913 11.6737 23.5313 10.9937 23.5313ZM19.7437 23.5313C19.0537 23.5313 18.5137 22.9913 18.5137 22.3113C18.5137 21.6112 19.0537 21.0813 19.7437 21.0813C20.4237 21.0813 20.9737 21.6112 20.9737 22.3113C20.9737 22.9913 20.4237 23.5313 19.7437 23.5313ZM10.9937 27.3013C10.3237 27.3013 9.7637 26.7713 9.7637 26.0713C9.7637 25.3913 10.3237 24.8513 10.9937 24.8513C11.6737 24.8513 12.2337 25.3913 12.2337 26.0713C12.2337 26.7713 11.6737 27.3013 10.9937 27.3013ZM19.7437 27.3013C19.0537 27.3013 18.5137 26.7713 18.5137 26.0713C18.5137 25.3913 19.0537 24.8513 19.7437 24.8513C20.4237 24.8513 20.9737 25.3913 20.9737 26.0713C20.9737 26.7713 20.4237 27.3013 19.7437 27.3013Z"
        fillRule="evenodd"
        clipRule="evenodd"
    />
</svg>
        