
<svg
    viewBox={0 0 29.5859375 29.5859375}
    xmlns="http://www.w3.org/2000/svg"
>
    <path
        fill="inherit"
        d="M14.7927 8.7587C15.4527 8.7587 15.9827 8.2188 15.9827 7.5788V1.1887C15.9827 0.5487 15.4327 -0.0012 14.7927 -0.0012C14.1327 -0.0012 13.6027 0.5487 13.6027 1.1887V7.5788C13.6027 8.2188 14.1527 8.7587 14.7927 8.7587ZM10.5427 10.5388C11.0027 10.0588 10.9927 9.2988 10.5427 8.8488L6.0127 4.3388C5.5627 3.8788 4.8027 3.8788 4.3327 4.3388C3.8827 4.7888 3.8827 5.5688 4.3327 6.0188L8.8427 10.5388C9.2927 10.9888 10.0627 11.0087 10.5427 10.5388ZM19.0427 10.5388C19.5227 11.0087 20.2927 10.9888 20.7427 10.5388L25.2527 6.0188C25.7127 5.5688 25.7027 4.7888 25.2527 4.3388C24.7827 3.8788 24.0227 3.8788 23.5727 4.3388L19.0427 8.8488C18.5927 9.2988 18.5827 10.0588 19.0427 10.5388ZM20.8127 14.7888C20.8127 15.4588 21.3727 15.9788 22.0227 15.9788H28.3927C29.0427 15.9788 29.5827 15.4388 29.5827 14.7888C29.5827 14.1388 29.0427 13.5988 28.3927 13.5988H22.0227C21.3727 13.5988 20.8127 14.1388 20.8127 14.7888ZM8.7727 14.7888C8.7727 14.1388 8.2127 13.5988 7.5727 13.5988H1.1927C0.5427 13.5988 0.0027 14.1388 0.0027 14.7888C0.0027 15.4388 0.5427 15.9788 1.1927 15.9788H7.5727C8.2127 15.9788 8.7727 15.4588 8.7727 14.7888ZM19.0427 19.0487C18.5827 19.5188 18.5927 20.2888 19.0427 20.7388L23.5727 25.2488C24.0227 25.7188 24.8027 25.6988 25.2527 25.2488C25.7127 24.7888 25.7027 24.0188 25.2527 23.5688L20.7427 19.0487C20.2927 18.5888 19.5227 18.5788 19.0427 19.0487ZM10.5427 19.0487C10.0627 18.5788 9.2927 18.5888 8.8427 19.0487L4.3327 23.5688C3.8827 24.0188 3.8827 24.7888 4.3327 25.2488C4.8027 25.6988 5.5627 25.7188 6.0127 25.2488L10.5427 20.7388C10.9927 20.2888 11.0027 19.5188 10.5427 19.0487ZM14.7927 20.8188C14.1527 20.8188 13.6027 21.3688 13.6027 22.0088V28.3988C13.6027 29.0388 14.1327 29.5888 14.7927 29.5888C15.4327 29.5888 15.9827 29.0388 15.9827 28.3988V22.0088C15.9827 21.3688 15.4527 20.8188 14.7927 20.8188Z"
        fillRule="evenodd"
        clipRule="evenodd"
    />
</svg>
        