
<svg
    viewBox={0 0 23.748046875 15.77734375}
    xmlns="http://www.w3.org/2000/svg"
>
    <path
        fill="inherit"
        d="M1.2437 15.7792C1.6037 15.7792 1.9037 15.6692 2.1337 15.4192L11.8837 5.4592L21.6137 15.4192C21.8437 15.6592 22.1437 15.7792 22.5037 15.7792C23.2237 15.7792 23.7437 15.2392 23.7437 14.5292C23.7437 14.1792 23.6137 13.8892 23.3837 13.6492L12.7937 2.7992C12.6237 2.6292 12.4137 2.4992 12.1637 2.4492H22.1237C22.8337 2.4492 23.3237 1.9292 23.3237 1.2192C23.3237 0.5092 22.8337 -0.0008 22.1237 -0.0008H1.6037C0.9037 -0.0008 0.4237 0.5092 0.4237 1.2192C0.4237 1.9292 0.9037 2.4492 1.6037 2.4492H11.5837C11.3437 2.4992 11.1437 2.6292 10.9537 2.7992L0.3737 13.6492C0.1237 13.8892 0.0037 14.1792 0.0037 14.5292C0.0037 15.2392 0.5337 15.7792 1.2437 15.7792Z"
        fillRule="evenodd"
        clipRule="evenodd"
    />
</svg>
        