<svg viewBox="0 0 32.580078125 26.427734375" xmlns="http://www.w3.org/2000/svg"><path d="M0.0037 22.2955C0.0037 25.0055 1.3937 26.4255 4.0837 26.4255H21.0037C23.7237 26.4255 25.1437 25.0355 25.1437 22.3555V16.5855C25.1437 16.3155 25.3637 16.1855 25.6337 16.4055C26.3837 16.9755 27.2737 17.4455 28.4537 17.4455C30.7737 17.4455 32.5837 15.6155 32.5837 13.2655C32.5837 10.9255 30.7737 9.0955 28.4537 9.0955C27.2737 9.0955 26.3837 9.5555 25.6337 10.1355C25.3637 10.3455 25.1437 10.2255 25.1437 9.9555V4.0755C25.1437 1.3955 23.7237 -0.0045 21.0037 -0.0045H4.0837C1.3937 -0.0045 0.0037 1.4255 0.0037 4.1255V9.9955C0.0037 10.8855 0.6937 11.4755 1.5137 11.4755C1.9737 11.4755 2.4437 11.2755 2.8737 10.8655C3.5137 10.2655 4.3037 9.5055 5.8937 9.5055C7.9537 9.5055 9.5837 11.1455 9.5837 13.2355C9.5837 15.3255 7.9537 16.9655 5.8937 16.9655C4.3037 16.9655 3.5137 16.1855 2.8737 15.5855C2.4437 15.1855 1.9737 14.9955 1.5137 14.9955C0.6937 14.9955 0.0037 15.5855 0.0037 16.4755Z" /></svg>