
<svg
    viewBox={0 0 33.46875 26.427734375}
    xmlns="http://www.w3.org/2000/svg"
>
    <path
        fill="inherit"
        d="M0.0037 22.3155C0.0037 25.0155 1.4337 26.4255 4.1837 26.4255H20.9837C23.7237 26.4255 25.1537 25.0155 25.1537 22.3155V17.4855C25.1537 17.2655 25.3037 17.1555 25.5637 17.3355C26.4237 17.9555 27.4237 18.3855 28.5737 18.3855C31.1537 18.3855 33.4737 16.3155 33.4737 13.2655C33.4737 10.2255 31.1537 8.1455 28.5737 8.1455C27.4237 8.1455 26.4237 8.5855 25.5637 9.2055C25.3037 9.3755 25.1537 9.2655 25.1537 9.0555V4.1155C25.1537 1.4055 23.7237 -0.0045 20.9837 -0.0045H4.1837C1.4337 -0.0045 0.0037 1.4055 0.0037 4.1155V10.1555C0.0037 11.3055 0.7537 11.9855 1.6937 11.9855C2.2137 11.9855 2.7437 11.7755 3.2837 11.2755C3.9537 10.6755 4.7037 10.3055 5.5137 10.3055C7.0637 10.3055 8.3837 11.4755 8.3837 13.2355C8.3837 14.9955 7.0637 16.1555 5.5137 16.1555C4.7037 16.1555 3.9537 15.7755 3.2837 15.1755C2.7437 14.6955 2.2137 14.4755 1.6937 14.4755C0.7537 14.4755 0.0037 15.1655 0.0037 16.2955ZM2.2037 22.2055V17.6455C2.2037 17.0055 2.5337 17.2555 2.7937 17.4155C3.6237 17.9555 4.5437 18.3455 5.6237 18.3455C8.1937 18.3455 10.5137 16.2855 10.5137 13.2355C10.5137 10.1855 8.1937 8.1255 5.6237 8.1255C4.5437 8.1255 3.6237 8.5155 2.7937 9.0555C2.5337 9.2155 2.2037 9.4655 2.2037 8.8155V4.2255C2.2037 2.9255 2.9537 2.2055 4.2237 2.2055H20.9437C22.2137 2.2055 22.9537 2.9255 22.9537 4.2255V10.1555C22.9537 11.3055 23.7037 12.0355 24.6537 12.0355C25.1737 12.0355 25.7037 11.8155 26.2337 11.3155C26.9037 10.7155 27.6537 10.3355 28.4637 10.3355C30.0237 10.3355 31.3337 11.4955 31.3337 13.2655C31.3337 15.0355 30.0237 16.2055 28.4637 16.2055C27.6537 16.2055 26.9037 15.8155 26.2337 15.2155C25.7037 14.7255 25.1737 14.5055 24.6537 14.5055C23.7037 14.5055 22.9537 15.2255 22.9537 16.3755V22.2055C22.9537 23.5155 22.2137 24.2255 20.9437 24.2255H4.2237C2.9537 24.2255 2.2037 23.5155 2.2037 22.2055Z"
        fillRule="evenodd"
        clipRule="evenodd"
    />
</svg>
        