<svg viewBox="0 0 28.08072752025466 30.640413728061283" xmlns="http://www.w3.org/2000/svg"><path d="M0.3403 22.463C-0.2897 23.553 -0.0597 24.773 1.1103 25.283L13.1203 30.443C13.7303 30.703 14.3303 30.703 14.9703 30.433L26.9703 25.283C28.1403 24.773 28.3703 23.553 27.7403 22.463L15.3303 0.793C14.9403 0.123 14.4803 0.003 14.0403 0.003C13.5903 0.003 13.1203 0.123 12.7403 0.793ZM2.5603 22.873L13.0003 4.743V28.313L2.7903 23.693C2.4703 23.543 2.3503 23.243 2.5603 22.873ZM25.5203 22.873C25.7303 23.243 25.6103 23.543 25.2803 23.693L15.0703 28.313V4.743Z" /></svg>