
<svg
    viewBox="0 0 27.890625 27.890625"
    xmlns="http://www.w3.org/2000/svg"
>
    <path
        fill="inherit"
        d="M13.9427 27.8864C21.6427 27.8864 27.8927 21.6264 27.8927 13.9464C27.8927 6.2464 21.6427 -0.0036 13.9427 -0.0036C6.2627 -0.0036 0.0027 6.2464 0.0027 13.9464C0.0027 21.6264 6.2627 27.8864 13.9427 27.8864ZM13.9427 20.5664C10.3327 20.5664 7.8327 17.7764 7.8327 13.8064C7.8327 9.8264 10.3327 7.0564 13.9427 7.0564C17.5527 7.0564 20.0527 9.8264 20.0527 13.8064C20.0527 16.1564 19.1827 18.0764 17.7327 19.2364L18.5827 20.3664C18.8427 20.7264 18.9127 20.8864 18.9127 21.1464C18.9127 21.6464 18.5827 21.9864 18.0727 21.9864C17.7227 21.9864 17.4627 21.8464 17.1827 21.4664L16.2027 20.1564C15.5127 20.4164 14.7627 20.5664 13.9427 20.5664ZM13.9427 18.7764C14.3527 18.7764 14.7227 18.7164 15.0627 18.6064L14.3827 17.6664C14.1827 17.4064 14.1127 17.1964 14.1127 16.9564C14.1127 16.5064 14.4927 16.1464 14.9527 16.1464C15.2827 16.1464 15.5027 16.2564 15.7227 16.5464L16.5327 17.6264C17.3327 16.7764 17.8027 15.4464 17.8027 13.8064C17.8027 10.7964 16.2727 8.8464 13.9427 8.8464C11.6227 8.8464 10.1027 10.7964 10.1027 13.8064C10.1027 16.8164 11.6227 18.7764 13.9427 18.7764Z"
        fillRule="evenodd"
        clipRule="evenodd"
    />
</svg>
        