
<svg
    viewBox={0 0 27.890625 27.890625}
    xmlns="http://www.w3.org/2000/svg"
>
    <path
        fill="inherit"
        d="M13.9427 27.8864C21.6427 27.8864 27.8927 21.6464 27.8927 13.9464C27.8927 6.2464 21.6427 -0.0036 13.9427 -0.0036C6.2527 -0.0036 0.0027 6.2464 0.0027 13.9464C0.0027 21.6464 6.2527 27.8864 13.9427 27.8864ZM13.9427 25.5664C7.5227 25.5664 2.3227 20.3664 2.3227 13.9464C2.3227 7.5164 7.5227 2.3264 13.9427 2.3264C20.3727 2.3264 25.5627 7.5164 25.5627 13.9464C25.5627 20.3664 20.3727 25.5664 13.9427 25.5664ZM13.9327 20.3564C14.7227 20.3564 15.4627 20.2164 16.1227 19.9564L17.0727 21.2464C17.3327 21.6164 17.5927 21.7364 17.9327 21.7364C18.4127 21.7364 18.7427 21.4064 18.7427 20.9364C18.7427 20.6864 18.6727 20.5264 18.4127 20.1764L17.5927 19.0864C19.0027 17.9464 19.8527 16.0964 19.8527 13.8264C19.8527 9.9664 17.4327 7.2764 13.9327 7.2764C10.4327 7.2764 8.0127 9.9664 8.0127 13.8264C8.0127 17.6664 10.4327 20.3564 13.9327 20.3564ZM13.9327 18.6364C11.6727 18.6364 10.2027 16.7364 10.2027 13.8264C10.2027 10.8964 11.6727 8.9964 13.9327 8.9964C16.1827 8.9964 17.6827 10.8964 17.6827 13.8264C17.6827 15.4064 17.2227 16.7064 16.4327 17.5264L15.6527 16.4764C15.4327 16.1864 15.2327 16.0964 14.9127 16.0964C14.4627 16.0964 14.0927 16.4364 14.0927 16.8664C14.0927 17.1064 14.1627 17.2964 14.3527 17.5564L15.0227 18.4664C14.6927 18.5764 14.3327 18.6364 13.9327 18.6364Z"
        fillRule="evenodd"
        clipRule="evenodd"
    />
</svg>
        