<svg viewBox="0 0 25.169921875 25.169921875" xmlns="http://www.w3.org/2000/svg"><path d="M4.2937 25.1692H20.8737C23.7437 25.1692 25.1737 23.7592 25.1737 20.9492V4.2392C25.1737 1.4192 23.7437 -0.0008 20.8737 -0.0008H4.2937C1.4337 -0.0008 0.0037 1.4192 0.0037 4.2392V20.9492C0.0037 23.7592 1.4337 25.1692 4.2937 25.1692ZM4.3237 22.9692C2.9537 22.9692 2.2037 22.2392 2.2037 20.8192V4.3592C2.2037 2.9392 2.9537 2.1992 4.3237 2.1992H20.8537C22.2037 2.1992 22.9737 2.9392 22.9737 4.3592V20.8192C22.9737 22.2392 22.2037 22.9692 20.8537 22.9692ZM12.5937 18.9892C13.3837 18.9892 14.1337 18.8492 14.7837 18.5892L15.7337 19.8792C15.9937 20.2492 16.2537 20.3692 16.5937 20.3692C17.0737 20.3692 17.4137 20.0392 17.4137 19.5692C17.4137 19.3192 17.3337 19.1592 17.0737 18.8092L16.2537 17.7192C17.6637 16.5792 18.5137 14.7292 18.5137 12.4592C18.5137 8.5992 16.0937 5.9092 12.5937 5.9092C9.0937 5.9092 6.6737 8.5992 6.6737 12.4592C6.6737 16.2992 9.0937 18.9892 12.5937 18.9892ZM12.5937 17.2692C10.3337 17.2692 8.8637 15.3692 8.8637 12.4592C8.8637 9.5292 10.3337 7.6292 12.5937 7.6292C14.8637 7.6292 16.3337 9.5292 16.3337 12.4592C16.3337 14.0392 15.8837 15.3392 15.0937 16.1592L14.3137 15.1092C14.0937 14.8192 13.8937 14.7292 13.5737 14.7292C13.1237 14.7292 12.7537 15.0692 12.7537 15.4992C12.7537 15.7392 12.8337 15.9292 13.0137 16.1892L13.6837 17.0992C13.3537 17.2092 13.0037 17.2692 12.5937 17.2692Z" /></svg>