
<svg
    viewBox="0 0 25.169921875 25.169921875"
    xmlns="http://www.w3.org/2000/svg"
>
    <path
        fill="inherit"
        d="M2.6137 11.4555H8.8437C10.5837 11.4555 11.4537 10.5855 11.4537 8.7755V2.6655C11.4537 0.8655 10.5837 -0.0045 8.8437 -0.0045H2.6137C0.8737 -0.0045 0.0037 0.8655 0.0037 2.6655V8.7755C0.0037 10.5855 0.8737 11.4555 2.6137 11.4555ZM16.3337 11.4555H22.5537C24.2937 11.4555 25.1737 10.5855 25.1737 8.7755V2.6655C25.1737 0.8655 24.2937 -0.0045 22.5537 -0.0045H16.3337C14.5837 -0.0045 13.7137 0.8655 13.7137 2.6655V8.7755C13.7137 10.5855 14.5837 11.4555 16.3337 11.4555ZM2.6437 9.5255C2.1637 9.5255 1.9237 9.2855 1.9237 8.7755V2.6655C1.9237 2.1755 2.1637 1.9255 2.6437 1.9255H8.8037C9.2837 1.9255 9.5337 2.1755 9.5337 2.6655V8.7755C9.5337 9.2855 9.2837 9.5255 8.8037 9.5255ZM16.3637 9.5255C15.8737 9.5255 15.6437 9.2855 15.6437 8.7755V2.6655C15.6437 2.1755 15.8737 1.9255 16.3637 1.9255H22.5337C23.0137 1.9255 23.2437 2.1755 23.2437 2.6655V8.7755C23.2437 9.2855 23.0137 9.5255 22.5337 9.5255ZM4.5537 7.1655H6.8937C7.0837 7.1655 7.1637 7.0855 7.1637 6.8455V4.5755C7.1637 4.3655 7.0837 4.2755 6.8937 4.2755H4.5537C4.3437 4.2755 4.2837 4.3655 4.2837 4.5755V6.8455C4.2837 7.0855 4.3437 7.1655 4.5537 7.1655ZM18.3437 7.1655H20.6837C20.8937 7.1655 20.9737 7.0855 20.9737 6.8455V4.5755C20.9737 4.3655 20.8937 4.2755 20.6837 4.2755H18.3437C18.1537 4.2755 18.0837 4.3655 18.0837 4.5755V6.8455C18.0837 7.0855 18.1537 7.1655 18.3437 7.1655ZM2.6137 25.1655H8.8437C10.5837 25.1655 11.4537 24.3055 11.4537 22.5055V16.3755C11.4537 14.5855 10.5837 13.7155 8.8437 13.7155H2.6137C0.8737 13.7155 0.0037 14.5855 0.0037 16.3755V22.5055C0.0037 24.3055 0.8737 25.1655 2.6137 25.1655ZM14.6437 17.2555H16.9837C17.1737 17.2555 17.2537 17.1755 17.2537 16.9355V14.6655C17.2537 14.4555 17.1737 14.3655 16.9837 14.3655H14.6437C14.4337 14.3655 14.3737 14.4555 14.3737 14.6655V16.9355C14.3737 17.1755 14.4337 17.2555 14.6437 17.2555ZM21.9037 17.2555H24.2437C24.4337 17.2555 24.5137 17.1755 24.5137 16.9355V14.6655C24.5137 14.4555 24.4337 14.3655 24.2437 14.3655H21.9037C21.6937 14.3655 21.6337 14.4555 21.6337 14.6655V16.9355C21.6337 17.1755 21.6937 17.2555 21.9037 17.2555ZM2.6437 23.2455C2.1637 23.2455 1.9237 22.9955 1.9237 22.5055V16.3955C1.9237 15.8855 2.1637 15.6455 2.6437 15.6455H8.8037C9.2837 15.6455 9.5337 15.8855 9.5337 16.3955V22.5055C9.5337 22.9955 9.2837 23.2455 8.8037 23.2455ZM4.5537 20.8955H6.8937C7.0837 20.8955 7.1637 20.8055 7.1637 20.5655V18.3055C7.1637 18.0855 7.0837 18.0055 6.8937 18.0055H4.5537C4.3437 18.0055 4.2837 18.0855 4.2837 18.3055V20.5655C4.2837 20.8055 4.3437 20.8955 4.5537 20.8955ZM18.3037 20.8955H20.6437C20.8337 20.8955 20.9137 20.8055 20.9137 20.5655V18.3055C20.9137 18.0855 20.8337 18.0055 20.6437 18.0055H18.3037C18.1037 18.0055 18.0337 18.0855 18.0337 18.3055V20.5655C18.0337 20.8055 18.1037 20.8955 18.3037 20.8955ZM14.6437 24.5155H16.9837C17.1737 24.5155 17.2537 24.4355 17.2537 24.1955V21.9255C17.2537 21.7155 17.1737 21.6255 16.9837 21.6255H14.6437C14.4337 21.6255 14.3737 21.7155 14.3737 21.9255V24.1955C14.3737 24.4355 14.4337 24.5155 14.6437 24.5155ZM21.9037 24.5155H24.2437C24.4337 24.5155 24.5137 24.4355 24.5137 24.1955V21.9255C24.5137 21.7155 24.4337 21.6255 24.2437 21.6255H21.9037C21.6937 21.6255 21.6337 21.7155 21.6337 21.9255V24.1955C21.6337 24.4355 21.6937 24.5155 21.9037 24.5155Z"
        fillRule="evenodd"
        clipRule="evenodd"
    />
</svg>
        