
<svg
    viewBox="0 0 31.048828125 25.01953125"
    xmlns="http://www.w3.org/2000/svg"
>
    <path
        fill="inherit"
        d="M4.2937 25.0229H27.1637C29.6137 25.0229 31.0537 23.5929 31.0537 20.7829V6.7429C31.0537 3.9229 29.6037 2.5029 26.7537 2.5029H13.6337C12.7037 2.5029 12.1437 2.2829 11.4537 1.6929L10.6237 1.0129C9.7237 0.2429 9.0237 0.0029 7.6737 0.0029H3.7737C1.3837 0.0029 0.0037 1.3629 0.0037 4.1129V20.7829C0.0037 23.6129 1.4337 25.0229 4.2937 25.0229ZM15.2737 16.3929C14.6037 16.3929 14.2237 16.0529 14.2237 15.3529V15.1929C14.2237 13.8929 14.9337 13.2029 15.8637 12.5529C17.0237 11.7429 17.5637 11.3229 17.5637 10.4329C17.5637 9.4329 16.7937 8.7629 15.6037 8.7629C14.7337 8.7629 14.0537 9.1829 13.5937 9.9629L13.3537 10.2829C13.1137 10.5829 12.8237 10.8029 12.3837 10.8029C11.9537 10.8029 11.4737 10.4829 11.4737 9.9029C11.4737 9.6629 11.5237 9.4429 11.5937 9.2429C11.9537 8.0429 13.4237 6.9829 15.6837 6.9829C17.9237 6.9829 19.8637 8.1529 19.8637 10.3329C19.8637 11.8929 18.9537 12.6729 17.6737 13.5029C16.7637 14.0929 16.3337 14.5629 16.3337 15.3029V15.4529C16.3337 15.9829 15.9437 16.3929 15.2737 16.3929ZM15.2437 20.3029C14.4937 20.3029 13.8237 19.6829 13.8237 18.9329C13.8237 18.1829 14.4737 17.5729 15.2437 17.5729C16.0237 17.5729 16.6637 18.1729 16.6637 18.9329C16.6637 19.7029 16.0137 20.3029 15.2437 20.3029Z"
        fillRule="evenodd"
        clipRule="evenodd"
    />
</svg>
        