<svg viewBox="0 0 25.169921875 25.169921875" xmlns="http://www.w3.org/2000/svg"><path d="M4.2937 25.1692H20.8737C23.7437 25.1692 25.1737 23.7592 25.1737 20.9492V4.2392C25.1737 1.4192 23.7437 -0.0008 20.8737 -0.0008H4.2937C1.4337 -0.0008 0.0037 1.4192 0.0037 4.2392V20.9492C0.0037 23.7592 1.4337 25.1692 4.2937 25.1692ZM4.3237 22.9692C2.9537 22.9692 2.2037 22.2392 2.2037 20.8192V4.3592C2.2037 2.9392 2.9537 2.1992 4.3237 2.1992H20.8537C22.2037 2.1992 22.9737 2.9392 22.9737 4.3592V20.8192C22.9737 22.2392 22.2037 22.9692 20.8537 22.9692ZM12.3137 15.4092C13.0137 15.4092 13.4237 14.9692 13.4237 14.4392V14.2692C13.4237 13.5092 13.8737 13.0192 14.8237 12.3892C16.1437 11.5092 17.0937 10.7192 17.0937 9.0792C17.0937 6.8092 15.0637 5.5792 12.7437 5.5792C10.4037 5.5792 8.8637 6.6992 8.4737 7.9592C8.4037 8.1792 8.3637 8.3992 8.3637 8.6292C8.3637 9.2392 8.8437 9.5692 9.2937 9.5692C9.7737 9.5692 10.0637 9.3492 10.3037 9.0192L10.5537 8.6992C11.0337 7.8992 11.7537 7.4392 12.6637 7.4392C13.9037 7.4392 14.7137 8.1492 14.7137 9.1892C14.7137 10.1192 14.1337 10.5692 12.9437 11.3992C11.9637 12.0892 11.2237 12.8092 11.2237 14.1492V14.3292C11.2237 15.0392 11.6237 15.4092 12.3137 15.4092ZM12.2937 19.4792C13.0837 19.4792 13.7637 18.8492 13.7637 18.0592C13.7637 17.2692 13.0937 16.6392 12.2937 16.6392C11.4837 16.6392 10.8137 17.2792 10.8137 18.0592C10.8137 18.8392 11.4937 19.4792 12.2937 19.4792Z" /></svg>