
<svg
    viewBox={0 0 25.169921875 25.169921875}
    xmlns="http://www.w3.org/2000/svg"
>
    <path
        fill="inherit"
        d="M0.0037 7.2055H2.2037V4.3455C2.2037 2.9255 2.9537 2.2055 4.3237 2.2055H7.1537V-0.0045H4.2937C1.4337 -0.0045 0.0037 1.4055 0.0037 4.2355ZM9.0237 2.2055H16.1437V-0.0045H9.0237ZM22.9737 7.2055H25.1737V4.2355C25.1737 1.4255 23.7337 -0.0045 20.8737 -0.0045H18.0237V2.2055H20.8537C22.2037 2.2055 22.9737 2.9255 22.9737 4.3455ZM12.3137 15.3955C13.0137 15.3955 13.4237 14.9555 13.4237 14.4255V14.2555C13.4237 13.4955 13.8737 13.0055 14.8237 12.3755C16.1437 11.4955 17.0937 10.7055 17.0937 9.0655C17.0937 6.7955 15.0637 5.5655 12.7437 5.5655C10.4037 5.5655 8.8637 6.6855 8.4737 7.9455C8.4037 8.1655 8.3637 8.3855 8.3637 8.6155C8.3637 9.2255 8.8437 9.5555 9.2937 9.5555C9.7737 9.5555 10.0637 9.3355 10.3037 9.0055L10.5537 8.6855C11.0337 7.8855 11.7537 7.4255 12.6637 7.4255C13.9037 7.4255 14.7137 8.1355 14.7137 9.1755C14.7137 10.1055 14.1337 10.5555 12.9437 11.3855C11.9637 12.0755 11.2237 12.7955 11.2237 14.1355V14.3155C11.2237 15.0255 11.6237 15.3955 12.3137 15.3955ZM22.9737 16.0955H25.1737V9.0755H22.9737ZM0.0037 16.0955H2.2037V9.0755H0.0037ZM12.2937 19.4655C13.0837 19.4655 13.7637 18.8355 13.7637 18.0455C13.7637 17.2555 13.0937 16.6255 12.2937 16.6255C11.4837 16.6255 10.8137 17.2655 10.8137 18.0455C10.8137 18.8255 11.4937 19.4655 12.2937 19.4655ZM18.0237 25.1655H20.8737C23.7337 25.1655 25.1737 23.7455 25.1737 20.9355V17.9655H22.9737V20.8255C22.9737 22.2455 22.2037 22.9655 20.8537 22.9655H18.0237ZM4.2937 25.1655H7.1537V22.9655H4.3237C2.9537 22.9655 2.2037 22.2455 2.2037 20.8255V17.9655H0.0037V20.9355C0.0037 23.7655 1.4337 25.1655 4.2937 25.1655ZM9.0237 25.1655H16.1437V22.9655H9.0237Z"
        fillRule="evenodd"
        clipRule="evenodd"
    />
</svg>
        