<svg viewBox="0 0 25.2109375 25.2109375" xmlns="http://www.w3.org/2000/svg"><path d="M23.6137 1.6166C22.2137 0.2166 20.2437 -0.0034 17.9137 -0.0034H7.2637C4.9637 -0.0034 2.9937 0.2166 1.6037 1.6166C0.2037 3.0066 0.0037 4.9666 0.0037 7.2566V17.9066C0.0037 20.2466 0.2037 22.2066 1.6037 23.5966C2.9937 24.9966 4.9637 25.2066 7.2837 25.2066H17.9137C20.2437 25.2066 22.2137 24.9966 23.6137 23.5966C25.0037 22.2066 25.2137 20.2466 25.2137 17.9066V7.2866C25.2137 4.9466 25.0037 3.0066 23.6137 1.6166ZM12.3037 15.5266C11.5637 15.5266 11.1737 15.1466 11.1737 14.4066V14.2366C11.1737 12.8366 11.9237 12.0966 12.9337 11.3866C14.1637 10.5266 14.7637 10.0666 14.7637 9.1066C14.7637 8.0366 13.9137 7.3166 12.6437 7.3166C11.7137 7.3166 10.9737 7.7766 10.4737 8.5966L10.2237 8.9366C9.9637 9.2666 9.6637 9.5066 9.1837 9.5066C8.7137 9.5066 8.2037 9.1566 8.2037 8.5266C8.2037 8.2866 8.2537 8.0566 8.3237 7.8366C8.7237 6.5366 10.3037 5.3966 12.7437 5.3966C15.1437 5.3966 17.2237 6.6466 17.2237 8.9966C17.2237 10.6866 16.2437 11.5166 14.8737 12.4166C13.9037 13.0566 13.4437 13.5666 13.4437 14.3566V14.5166C13.4437 15.0766 13.0137 15.5266 12.3037 15.5266ZM12.2637 19.7266C11.4537 19.7266 10.7337 19.0766 10.7337 18.2666C10.7337 17.4566 11.4437 16.7866 12.2637 16.7866C13.0937 16.7866 13.7937 17.4466 13.7937 18.2666C13.7937 19.0866 13.0837 19.7266 12.2637 19.7266Z" /></svg>