
<svg
    viewBox={0 0 30.1328125 28.287109375}
    xmlns="http://www.w3.org/2000/svg"
>
    <path
        fill="inherit"
        d="M8.4037 28.2828C9.0737 28.2828 9.5437 27.9328 10.3737 27.1928L15.0937 22.9928H23.8737C27.9437 22.9928 30.1337 20.7428 30.1337 16.7328V6.2628C30.1337 2.2528 27.9437 0.0028 23.8737 0.0028H6.2637C2.1837 0.0028 0.0037 2.2428 0.0037 6.2628V16.7328C0.0037 20.7528 2.1837 22.9928 6.2637 22.9928H6.9137V26.5528C6.9137 27.6028 7.4537 28.2828 8.4037 28.2828ZM8.9737 25.7828V21.8228C8.9737 21.0828 8.6837 20.7928 7.9437 20.7928H6.2637C3.5037 20.7928 2.2037 19.3828 2.2037 16.7228V6.2628C2.2037 3.5928 3.5037 2.2028 6.2637 2.2028H23.8737C26.6237 2.2028 27.9337 3.5928 27.9337 6.2628V16.7228C27.9337 19.3828 26.6237 20.7928 23.8737 20.7928H15.0137C14.2437 20.7928 13.8637 20.9028 13.3437 21.4328ZM14.8037 14.3328C15.4937 14.3328 15.9037 13.8928 15.9037 13.3528V13.1928C15.9037 12.4228 16.3537 11.9328 17.3037 11.3028C18.6337 10.4328 19.5737 9.6428 19.5737 8.0028C19.5737 5.7328 17.5537 4.5128 15.2337 4.5128C12.8837 4.5128 11.3337 5.6228 10.9537 6.8728C10.8837 7.0928 10.8437 7.3128 10.8437 7.5428C10.8437 8.1628 11.3237 8.4928 11.7837 8.4928C12.2537 8.4928 12.5337 8.2728 12.7837 7.9428L13.0337 7.6128C13.5037 6.8228 14.2337 6.3528 15.1337 6.3528C16.3937 6.3528 17.2037 7.0728 17.2037 8.1028C17.2037 9.0328 16.6237 9.4928 15.4237 10.3228C14.4537 11.0028 13.7137 11.7328 13.7137 13.0728V13.2528C13.7137 13.9628 14.0937 14.3328 14.8037 14.3328ZM14.7637 18.4028C15.5537 18.4028 16.2437 17.7828 16.2437 16.9828C16.2437 16.1828 15.5737 15.5728 14.7637 15.5728C13.9737 15.5728 13.3037 16.2028 13.3037 16.9828C13.3037 17.7728 13.9837 18.4028 14.7637 18.4028Z"
        fillRule="evenodd"
        clipRule="evenodd"
    />
</svg>
        