
<svg
    viewBox={0 0 33.564453125 22.203125}
    xmlns="http://www.w3.org/2000/svg"
>
    <path
        fill="inherit"
        d="M4.3907 22.2027H19.0707C21.8207 22.2027 23.4607 20.6127 23.4607 17.8727V4.3227C23.4607 1.5827 21.9607 0.0027 19.2107 0.0027H4.3907C1.7607 0.0027 0.0007 1.5827 0.0007 4.3227V17.8727C0.0007 20.6127 1.6407 22.2027 4.3907 22.2027ZM25.3207 15.1327L30.3007 19.4427C30.7607 19.8527 31.3107 20.1127 31.8007 20.1127C32.8707 20.1127 33.5607 19.3327 33.5607 18.2127V3.9927C33.5607 2.8727 32.8707 2.0927 31.8007 2.0927C31.3107 2.0927 30.7607 2.3527 30.3007 2.7627L25.3207 7.0527ZM11.3607 13.8127C10.6907 13.8127 10.3407 13.4627 10.3407 12.7827V12.6227C10.3407 11.3727 11.0207 10.7027 11.9307 10.0527C13.0407 9.2827 13.5907 8.8627 13.5907 7.9827C13.5907 7.0127 12.8407 6.3727 11.6807 6.3727C10.8307 6.3727 10.2107 6.7827 9.7907 7.4627C9.3807 7.9527 9.2607 8.3527 8.5307 8.3527C8.1107 8.3527 7.6407 8.0427 7.6407 7.4627C7.6407 7.2427 7.6807 7.0227 7.7507 6.8227C8.1307 5.6427 9.5407 4.6227 11.7407 4.6227C13.9307 4.6227 15.8307 5.7527 15.8307 7.8927C15.8307 9.4227 14.9407 10.1727 13.7107 10.9927C12.8107 11.5827 12.4007 12.0127 12.4007 12.7427V12.8927C12.4007 13.4127 12.0007 13.8127 11.3607 13.8127ZM11.3207 17.6227C10.5807 17.6227 9.9507 17.0227 9.9507 16.2927C9.9507 15.5627 10.5707 14.9527 11.3207 14.9527C12.0707 14.9527 12.7007 15.5627 12.7007 16.2927C12.7007 17.0327 12.0607 17.6227 11.3207 17.6227Z"
        fillRule="evenodd"
        clipRule="evenodd"
    />
</svg>
        