<svg viewBox="0 0 27.890625 27.890625" xmlns="http://www.w3.org/2000/svg"><path d="M13.9427 27.8864C21.6427 27.8864 27.8927 21.6464 27.8927 13.9464C27.8927 6.2464 21.6427 -0.0036 13.9427 -0.0036C6.2527 -0.0036 0.0027 6.2464 0.0027 13.9464C0.0027 21.6464 6.2527 27.8864 13.9427 27.8864ZM13.9427 25.5664C7.5227 25.5664 2.3227 20.3664 2.3227 13.9464C2.3227 7.5164 7.5227 2.3264 13.9427 2.3264C20.3727 2.3264 25.5627 7.5164 25.5627 13.9464C25.5627 20.3664 20.3727 25.5664 13.9427 25.5664ZM13.6627 16.7764C14.3427 16.7764 14.7627 16.3364 14.7627 15.8064V15.6364C14.7627 14.8764 15.2027 14.3864 16.1627 13.7564C17.4827 12.8764 18.4327 12.0864 18.4327 10.4464C18.4327 8.1764 16.4027 6.9464 14.0827 6.9464C11.7327 6.9464 10.1827 8.0664 9.8127 9.3264C9.7527 9.5464 9.7027 9.7664 9.7027 9.9964C9.7027 10.6064 10.1827 10.9364 10.6327 10.9364C11.1027 10.9364 11.4027 10.7164 11.6527 10.3864L11.8927 10.0664C12.3727 9.2664 13.0827 8.8064 14.0027 8.8064C15.2427 8.8064 16.0527 9.5164 16.0527 10.5564C16.0527 11.4864 15.4727 11.9364 14.2827 12.7664C13.3027 13.4564 12.5627 14.1764 12.5627 15.5164V15.6964C12.5627 16.4064 12.9627 16.7764 13.6627 16.7764ZM13.6327 20.8464C14.4227 20.8464 15.1027 20.2164 15.1027 19.4264C15.1027 18.6364 14.4327 18.0064 13.6327 18.0064C12.8227 18.0064 12.1527 18.6464 12.1527 19.4264C12.1527 20.2064 12.8427 20.8464 13.6327 20.8464Z" /></svg>