
<svg
    viewBox="0 0 22.99609375 29.3125"
    xmlns="http://www.w3.org/2000/svg"
>
    <path
        fill="inherit"
        d="M0.0037 25.0373C0.0037 27.8873 1.4037 29.3173 4.2337 29.3173H18.7537C21.5837 29.3173 22.9937 27.8873 22.9937 25.0373V4.2973C22.9937 1.4473 21.5837 -0.0027 18.7537 -0.0027H4.2337C1.4037 -0.0027 0.0037 1.4473 0.0037 4.2973ZM11.1837 12.2373C10.5937 12.2373 10.2537 11.9173 10.2537 11.3173V11.1673C10.2537 10.0673 10.8537 9.4573 11.6437 8.8973C12.6037 8.2473 13.0437 7.8873 13.0437 7.1873C13.0437 6.3873 12.4437 5.8473 11.4437 5.8473C10.7037 5.8473 10.1537 6.2173 9.8037 6.8673L9.6137 7.1073C9.4037 7.3973 9.1737 7.5773 8.7637 7.5773C8.3837 7.5773 7.9537 7.2873 7.9537 6.7673C7.9537 6.6073 7.9737 6.4573 8.0137 6.3073C8.3137 5.0573 9.8937 4.2473 11.5237 4.2473C13.3937 4.2473 15.0537 5.2673 15.0537 7.1073C15.0537 8.4373 14.2737 9.1173 13.2037 9.8173C12.4537 10.3173 12.1237 10.6773 12.1237 11.2473V11.3973C12.1237 11.8673 11.7537 12.2373 11.1837 12.2373ZM11.1737 15.4873C10.4837 15.4873 9.9137 14.9473 9.9137 14.2973C9.9137 13.6273 10.4737 13.0873 11.1737 13.0873C11.8437 13.0873 12.4037 13.6173 12.4037 14.2973C12.4037 14.9573 11.8137 15.4873 11.1737 15.4873ZM6.2937 19.0273C5.7937 19.0273 5.4237 18.6473 5.4237 18.1673C5.4237 17.7073 5.7937 17.3473 6.2937 17.3473H16.7337C17.2237 17.3473 17.5837 17.7073 17.5837 18.1673C17.5837 18.6473 17.2237 19.0273 16.7337 19.0273ZM6.2937 23.1373C5.7937 23.1373 5.4237 22.7773 5.4237 22.3173C5.4237 21.8373 5.7937 21.4473 6.2937 21.4473H11.2237C11.7137 21.4473 12.0737 21.8373 12.0737 22.3173C12.0737 22.7773 11.7137 23.1373 11.2237 23.1373Z"
        fillRule="evenodd"
        clipRule="evenodd"
    />
</svg>
        