<svg viewBox="0 0 31.006281888857306 31.006281888857306" xmlns="http://www.w3.org/2000/svg"><path d="M1.5328 18.5268L12.4828 29.4768C14.5028 31.5068 16.5028 31.5168 18.5128 29.5168L29.5228 18.4968C31.5128 16.5068 31.5028 14.4968 29.4828 12.4668L18.5428 1.5368C16.5128 -0.4932 14.5228 -0.5132 12.5128 1.4968L1.4928 12.4968C-0.5172 14.5068 -0.4872 16.5068 1.5328 18.5268ZM15.2328 18.4268C14.4928 18.4268 14.0928 18.0468 14.0928 17.3068V17.1368C14.0928 15.7368 14.8628 14.9968 15.8628 14.2868C17.1028 13.4268 17.6928 12.9668 17.6928 12.0068C17.6928 10.9368 16.8628 10.2168 15.5728 10.2168C14.6428 10.2168 13.9228 10.6768 13.4128 11.4968L13.1728 11.8368C12.9128 12.1668 12.5928 12.4068 12.1128 12.4068C11.6328 12.4068 11.1328 12.0568 11.1328 11.4268C11.1328 11.1868 11.1828 10.9568 11.2628 10.7368C11.6528 9.4368 13.2328 8.2968 15.6728 8.2968C18.0728 8.2968 20.1728 9.5468 20.1728 11.8968C20.1728 13.5868 19.1828 14.4168 17.8128 15.3168C16.8328 15.9568 16.3628 16.4668 16.3628 17.2568V17.4168C16.3628 17.9768 15.9428 18.4268 15.2328 18.4268ZM15.1928 22.6268C14.3828 22.6268 13.6728 21.9768 13.6728 21.1668C13.6728 20.3568 14.3728 19.6868 15.1928 19.6868C16.0228 19.6868 16.7228 20.3468 16.7228 21.1668C16.7228 21.9868 16.0128 22.6268 15.1928 22.6268Z" /></svg>