
<svg
    viewBox="0 0 25.2109375 25.2109375"
    xmlns="http://www.w3.org/2000/svg"
>
    <path
        fill="inherit"
        d="M23.6137 1.6166C22.2137 0.2166 20.2437 -0.0034 17.9137 -0.0034H7.2637C4.9637 -0.0034 2.9937 0.2166 1.6037 1.6166C0.2037 3.0066 0.0037 4.9666 0.0037 7.2566V17.9066C0.0037 20.2466 0.2037 22.2066 1.6037 23.5966C2.9937 24.9966 4.9637 25.2066 7.2837 25.2066H17.9137C20.2437 25.2066 22.2137 24.9966 23.6137 23.5966C25.0037 22.2066 25.2137 20.2466 25.2137 17.9066V7.2866C25.2137 4.9466 25.0037 3.0066 23.6137 1.6166ZM23.0137 6.9166V18.2966C23.0137 19.6966 22.8337 21.1666 21.9937 21.9866C21.1737 22.8166 19.7037 23.0066 18.2937 23.0066H6.9137C5.5137 23.0066 4.0337 22.8166 3.2037 21.9866C2.3837 21.1666 2.2037 19.6966 2.2037 18.2966V6.9566C2.2037 5.5066 2.3837 4.0466 3.2037 3.2166C4.0337 2.3966 5.5237 2.1966 6.9637 2.1966H18.2937C19.7037 2.1966 21.1737 2.3966 21.9937 3.2266C22.8337 4.0466 23.0137 5.5066 23.0137 6.9166ZM12.3437 15.4366C13.0337 15.4366 13.4437 14.9966 13.4437 14.4666V14.2966C13.4437 13.5366 13.8937 13.0466 14.8337 12.4166C16.1637 11.5366 17.1037 10.7466 17.1037 9.1066C17.1037 6.8366 15.0937 5.6066 12.7737 5.6066C10.4137 5.6066 8.8737 6.7266 8.4937 7.9866C8.4237 8.2066 8.3837 8.4266 8.3837 8.6566C8.3837 9.2666 8.8637 9.5966 9.3237 9.5966C9.7937 9.5966 10.0737 9.3766 10.3237 9.0466L10.5637 8.7266C11.0437 7.9266 11.7737 7.4666 12.6737 7.4666C13.9137 7.4666 14.7337 8.1766 14.7337 9.2166C14.7337 10.1466 14.1537 10.5966 12.9637 11.4266C11.9737 12.1166 11.2537 12.8366 11.2537 14.1766V14.3566C11.2537 15.0666 11.6337 15.4366 12.3437 15.4366ZM12.3037 19.5066C13.0937 19.5066 13.7837 18.8766 13.7837 18.0866C13.7837 17.2966 13.1137 16.6666 12.3037 16.6666C11.4937 16.6666 10.8237 17.3066 10.8237 18.0866C10.8237 18.8666 11.5137 19.5066 12.3037 19.5066Z"
        fillRule="evenodd"
        clipRule="evenodd"
    />
</svg>
        