
<svg
    viewBox={0 0 31.048828125 25.01953125}
    xmlns="http://www.w3.org/2000/svg"
>
    <path
        fill="inherit"
        d="M4.2937 25.0229H27.1637C29.6137 25.0229 31.0537 23.5929 31.0537 20.7829V6.7429C31.0537 3.9229 29.6037 2.5029 26.7537 2.5029H13.6337C12.7037 2.5029 12.1437 2.2829 11.4537 1.6929L10.6237 1.0129C9.7237 0.2429 9.0237 0.0029 7.6737 0.0029H3.7737C1.3837 0.0029 0.0037 1.3629 0.0037 4.1129V20.7829C0.0037 23.6129 1.4337 25.0229 4.2937 25.0229ZM4.3237 22.8229C2.9537 22.8229 2.2037 22.0929 2.2037 20.6729V4.2429C2.2037 2.8829 2.9137 2.1829 4.2237 2.1829H7.1137C8.0137 2.1829 8.5537 2.4229 9.2537 3.0029L10.0937 3.7029C10.9737 4.4429 11.7037 4.7029 13.0537 4.7029H26.7137C28.0637 4.7029 28.8437 5.4429 28.8437 6.8629V20.6829C28.8437 22.0929 28.0637 22.8229 26.7137 22.8229ZM15.2837 16.3129C15.9237 16.3129 16.3137 15.9029 16.3137 15.4129V15.2429C16.3137 14.5329 16.7237 14.0929 17.6137 13.5029C18.8437 12.6829 19.7137 11.9529 19.7137 10.4329C19.7137 8.3229 17.8437 7.1929 15.6837 7.1929C13.5037 7.1929 12.0737 8.2129 11.7137 9.3829C11.6437 9.5929 11.6037 9.7929 11.6037 10.0029C11.6037 10.5829 12.0537 10.8829 12.4837 10.8829C12.9237 10.8829 13.1937 10.6929 13.4237 10.3729L13.6437 10.0729C14.0937 9.3329 14.7637 8.9129 15.6037 8.9129C16.7637 8.9129 17.5137 9.5729 17.5137 10.5229C17.5137 11.3929 16.9837 11.8129 15.8637 12.5929C14.9537 13.2229 14.2737 13.8929 14.2737 15.1329V15.3029C14.2737 15.9729 14.6437 16.3129 15.2837 16.3129ZM15.2537 20.0929C15.9937 20.0929 16.6237 19.5129 16.6237 18.7729C16.6237 18.0329 16.0137 17.4629 15.2537 17.4629C14.5237 17.4629 13.8937 18.0429 13.8937 18.7729C13.8937 19.4929 14.5337 20.0929 15.2537 20.0929Z"
        fillRule="evenodd"
        clipRule="evenodd"
    />
</svg>
        