
<svg
    viewBox="0 0 25.2109375 25.087890625"
    xmlns="http://www.w3.org/2000/svg"
>
    <path
        fill="inherit"
        d="M1.6037 1.6145C0.2637 2.9545 0.0037 4.8145 0.0037 7.0245V7.1645H2.2037V6.9445C2.2037 5.5145 2.3837 4.0345 3.2037 3.2145C4.0337 2.3745 5.5237 2.2045 6.9637 2.2045H7.2037V0.0045H7.0437C4.8237 0.0045 2.9537 0.2645 1.6037 1.6145ZM9.0737 2.2045H16.1337V0.0045H9.0737ZM23.6137 1.6145C22.2537 0.2645 20.3837 0.0045 18.1337 0.0045H17.9937V2.2045H18.2937C19.7037 2.2045 21.1737 2.3945 21.9937 3.2145C22.8337 4.0445 23.0137 5.4945 23.0137 6.9045V7.1645H25.2137V7.0645C25.2137 4.7945 24.9537 2.9345 23.6137 1.6145ZM12.3437 15.3545C13.0337 15.3545 13.4437 14.9145 13.4437 14.3845V14.2145C13.4437 13.4545 13.8937 12.9645 14.8337 12.3345C16.1637 11.4545 17.1037 10.6645 17.1037 9.0245C17.1037 6.7545 15.0937 5.5245 12.7737 5.5245C10.4137 5.5245 8.8737 6.6445 8.4937 7.9045C8.4237 8.1245 8.3837 8.3445 8.3837 8.5745C8.3837 9.1845 8.8637 9.5145 9.3237 9.5145C9.7937 9.5145 10.0737 9.2945 10.3237 8.9645L10.5637 8.6445C11.0437 7.8445 11.7737 7.3845 12.6737 7.3845C13.9137 7.3845 14.7337 8.0945 14.7337 9.1345C14.7337 10.0645 14.1537 10.5145 12.9637 11.3445C11.9737 12.0345 11.2537 12.7545 11.2537 14.0945V14.2745C11.2537 14.9845 11.6337 15.3545 12.3437 15.3545ZM23.0137 16.0545H25.2137V9.0345H23.0137ZM0.0037 16.0545H2.2037V9.0345H0.0037ZM12.3037 19.4245C13.0937 19.4245 13.7837 18.7945 13.7837 18.0045C13.7837 17.2145 13.1137 16.5845 12.3037 16.5845C11.4937 16.5845 10.8237 17.2245 10.8237 18.0045C10.8237 18.7845 11.5137 19.4245 12.3037 19.4245ZM23.6137 23.4745C24.9537 22.1345 25.2137 20.2845 25.2137 18.0145V17.9245H23.0137V18.1745C23.0137 19.5945 22.8337 21.0445 21.9937 21.8745C21.1737 22.6945 19.7037 22.8845 18.2937 22.8845H17.9937V25.0845H18.1337C20.3837 25.0845 22.2537 24.8245 23.6137 23.4745ZM1.6037 23.4745C2.9537 24.8245 4.8237 25.0845 7.0637 25.0845H7.2037V22.8845H6.9137C5.5137 22.8845 4.0337 22.6945 3.2037 21.8745C2.3837 21.0445 2.2037 19.5945 2.2037 18.1745V17.9245H0.0037V18.0145C0.0037 20.2845 0.2637 22.1345 1.6037 23.4745ZM9.0737 25.0845H16.1337V22.8845H9.0737Z"
        fillRule="evenodd"
        clipRule="evenodd"
    />
</svg>
        