
<svg
    viewBox="0 0 30.091796875 18.94921875"
    xmlns="http://www.w3.org/2000/svg"
>
    <path
        fill="inherit"
        d="M13.6737 12.372C13.6737 8.732 10.9737 5.842 7.5037 5.842C5.8837 5.842 4.3337 6.482 3.2037 7.742H2.8337C3.6237 5.152 6.0337 2.992 9.0237 2.102C9.4437 1.972 9.7637 1.842 9.9537 1.682C10.1737 1.502 10.2937 1.282 10.2937 0.972C10.2937 0.392 9.8537 0.002 9.2137 0.002C8.7937 0.002 8.4637 0.082 7.8737 0.272C5.9837 0.892 4.2937 1.972 2.9837 3.352C1.1337 5.262 0.0037 7.822 0.0037 10.852C0.0037 15.982 3.2537 18.952 7.0637 18.952C10.8237 18.952 13.6737 16.082 13.6737 12.372ZM30.0937 12.372C30.0937 8.732 27.3837 5.842 23.9237 5.842C22.3037 5.842 20.7437 6.482 19.6237 7.742H19.2537C20.0437 5.152 22.4537 2.992 25.4337 2.102C25.8537 1.972 26.1837 1.842 26.3737 1.682C26.5937 1.502 26.7037 1.282 26.7037 0.972C26.7037 0.392 26.2737 0.002 25.6337 0.002C25.1937 0.002 24.8837 0.082 24.2837 0.272C22.4037 0.892 20.7037 1.972 19.3837 3.352C17.5537 5.262 16.4237 7.822 16.4237 10.852C16.4237 15.982 19.6737 18.952 23.4837 18.952C27.2437 18.952 30.0937 16.082 30.0937 12.372Z"
        fillRule="evenodd"
        clipRule="evenodd"
    />
</svg>
        