
<svg
    viewBox={0 0 30.091796875 18.94921875}
    xmlns="http://www.w3.org/2000/svg"
>
    <path
        fill="inherit"
        d="M0.0037 6.572C0.0037 10.212 2.7037 13.112 6.1637 13.112C7.7937 13.112 9.3337 12.472 10.4737 11.212H10.8437C10.0537 13.792 7.6437 15.952 4.6637 16.842C4.2237 16.982 3.9137 17.102 3.7237 17.272C3.5037 17.442 3.3937 17.662 3.3937 17.982C3.3937 18.552 3.8137 18.952 4.4437 18.952C4.8937 18.952 5.2137 18.872 5.8137 18.672C7.6837 18.062 9.3937 16.982 10.7037 15.602C12.5337 13.682 13.6737 11.132 13.6737 8.092C13.6737 2.962 10.4137 0.002 6.6037 0.002C2.8437 0.002 0.0037 2.872 0.0037 6.572ZM16.4237 6.572C16.4237 10.212 19.1137 13.112 22.5837 13.112C24.2137 13.112 25.7437 12.472 26.8937 11.212H27.2437C26.4737 13.792 24.0637 15.952 21.0637 16.842C20.6337 16.982 20.3337 17.102 20.1437 17.272C19.9237 17.442 19.7937 17.662 19.7937 17.982C19.7937 18.552 20.2337 18.952 20.8737 18.952C21.3037 18.952 21.6337 18.872 22.2137 18.672C24.1037 18.062 25.8037 16.982 27.0937 15.602C28.9537 13.682 30.0937 11.132 30.0937 8.092C30.0937 2.962 26.8337 0.002 23.0237 0.002C19.2637 0.002 16.4237 2.872 16.4237 6.572Z"
        fillRule="evenodd"
        clipRule="evenodd"
    />
</svg>
        