
<svg
    viewBox="0 0 33.63808220729474 25.634765625"
    xmlns="http://www.w3.org/2000/svg"
>
    <path
        fill="inherit"
        d="M13.4121 25.6327C14.0221 25.6327 14.5021 25.1327 14.5021 24.5127V1.1027C14.5021 0.4927 14.0221 0.0027 13.4121 0.0027C12.7921 0.0027 12.3021 0.4927 12.3021 1.1027V24.5127C12.3021 25.1327 12.7921 25.6327 13.4121 25.6327ZM20.2321 25.6327C20.8521 25.6327 21.3221 25.1327 21.3221 24.5127V1.1027C21.3221 0.4927 20.8521 0.0027 20.2321 0.0027C19.6221 0.0027 19.1221 0.4927 19.1221 1.1027V24.5127C19.1221 25.1327 19.6221 25.6327 20.2321 25.6327ZM28.5221 17.0127L33.0421 13.9827C33.8521 13.4427 33.8221 12.2627 33.0421 11.7327L28.5221 8.6527C27.4621 7.9427 26.3821 8.3427 26.3821 9.5927V16.0827C26.3821 17.2927 27.5221 17.6827 28.5221 17.0127ZM5.1121 17.0127C6.1221 17.6627 7.2721 17.2927 7.2621 16.0827V9.5927C7.2721 8.3427 6.1621 7.9427 5.1121 8.6527L0.6021 11.7327C-0.1779 12.2727 -0.2179 13.4427 0.6021 13.9827Z"
        fillRule="evenodd"
        clipRule="evenodd"
    />
</svg>
        