
<svg
    viewBox={0 0 30.1328125 28.287109375}
    xmlns="http://www.w3.org/2000/svg"
>
    <path
        fill="inherit"
        d="M8.4037 28.2828C9.0737 28.2828 9.5437 27.9328 10.3737 27.1928L15.0937 22.9928H23.8737C27.9437 22.9928 30.1337 20.7428 30.1337 16.7328V6.2628C30.1337 2.2528 27.9437 0.0028 23.8737 0.0028H6.2637C2.1837 0.0028 0.0037 2.2428 0.0037 6.2628V16.7328C0.0037 20.7528 2.1837 22.9928 6.2637 22.9928H6.9137V26.5528C6.9137 27.6028 7.4537 28.2828 8.4037 28.2828ZM8.9737 25.7828V21.8228C8.9737 21.0828 8.6837 20.7928 7.9437 20.7928H6.2637C3.5037 20.7928 2.2037 19.3828 2.2037 16.7228V6.2628C2.2037 3.5928 3.5037 2.2028 6.2637 2.2028H23.8737C26.6237 2.2028 27.9337 3.5928 27.9337 6.2628V16.7228C27.9337 19.3828 26.6237 20.7928 23.8737 20.7928H15.0137C14.2437 20.7928 13.8637 20.9028 13.3437 21.4328ZM8.4637 10.0328C8.4637 11.5928 9.4337 12.7928 10.9737 12.7928C11.5537 12.7928 12.1237 12.7028 12.4837 12.2528H12.5937C12.0837 13.3828 11.0337 14.1128 10.1437 14.3428C9.6437 14.4828 9.4837 14.6928 9.4837 15.0228C9.4837 15.3628 9.7737 15.6528 10.1537 15.6528C11.5437 15.6528 14.3137 14.0128 14.3137 10.5428C14.3137 8.6828 13.1137 7.2728 11.3337 7.2728C9.6937 7.2728 8.4637 8.4128 8.4637 10.0328ZM15.8437 10.0328C15.8437 11.5928 16.8137 12.7928 18.3637 12.7928C18.9337 12.7928 19.5137 12.7028 19.8637 12.2528H19.9737C19.4737 13.3828 18.4137 14.1128 17.5237 14.3428C17.0337 14.4828 16.8737 14.6928 16.8737 15.0228C16.8737 15.3628 17.1537 15.6528 17.5437 15.6528C18.9237 15.6528 21.6937 14.0128 21.6937 10.5428C21.6937 8.6828 20.4937 7.2728 18.7137 7.2728C17.0737 7.2728 15.8437 8.4128 15.8437 10.0328Z"
        fillRule="evenodd"
        clipRule="evenodd"
    />
</svg>
        