
<svg
    viewBox={0 0 31.541015625 23.84375}
    xmlns="http://www.w3.org/2000/svg"
>
    <path
        fill="inherit"
        d="M11.4737 23.843H20.0737C28.0037 23.843 31.5437 20.193 31.5437 12.733V4.143C31.5437 1.393 30.1237 0.003 27.3437 0.003H4.1937C1.4237 0.003 0.0037 1.393 0.0037 4.143V12.733C0.0037 20.193 3.5437 23.843 11.4737 23.843ZM12.6237 17.743C11.8937 17.743 11.4837 17.243 11.4837 16.493V7.193C11.4837 6.443 11.8837 5.893 12.6237 5.893H16.1837C18.8137 5.893 20.5237 7.423 20.5237 9.753C20.5237 11.293 19.5737 12.633 18.1837 13.183L19.9337 15.923C20.1237 16.173 20.2237 16.443 20.2237 16.733C20.2237 17.323 19.7437 17.743 19.1037 17.743C18.6037 17.743 18.2537 17.543 17.9337 17.033L15.8737 13.553H13.8337V16.493C13.8337 17.253 13.3837 17.743 12.6237 17.743ZM13.8337 11.733H15.9137C17.3537 11.733 18.1937 11.083 18.1937 9.803C18.1937 8.503 17.3037 7.763 15.9537 7.763H13.8337Z"
        fillRule="evenodd"
        clipRule="evenodd"
    />
</svg>
        