
<svg
    viewBox="0 0 31.541015625 23.84375"
    xmlns="http://www.w3.org/2000/svg"
>
    <path
        fill="inherit"
        d="M11.4737 23.843H20.0737C28.0037 23.843 31.5437 20.193 31.5437 12.733V4.143C31.5437 1.393 30.1237 0.003 27.3437 0.003H4.1937C1.4237 0.003 0.0037 1.393 0.0037 4.143V12.733C0.0037 20.193 3.5437 23.843 11.4737 23.843ZM11.4737 21.643C5.0137 21.643 2.2037 18.843 2.2037 12.863V4.263C2.2037 2.903 2.9137 2.203 4.2537 2.203H27.2937C28.6037 2.203 29.3437 2.903 29.3437 4.263V12.863C29.3437 18.843 26.5237 21.643 20.0537 21.643ZM12.7237 17.573C13.4537 17.573 13.9037 17.093 13.9037 16.353V13.493H15.8737L17.8937 16.873C18.1937 17.363 18.5237 17.573 19.0137 17.573C19.6337 17.573 20.0837 17.163 20.0837 16.583C20.0837 16.313 19.9837 16.063 19.8237 15.803L18.1137 13.143C19.4737 12.593 20.3737 11.303 20.3737 9.813C20.3737 7.543 18.7337 6.073 16.2037 6.073H12.7237C12.0137 6.073 11.6337 6.603 11.6337 7.333V16.353C11.6337 17.073 12.0137 17.573 12.7237 17.573ZM13.9037 11.733V7.893H15.9537C17.2837 7.893 18.1337 8.583 18.1337 9.853C18.1337 11.103 17.3037 11.733 15.9137 11.733Z"
        fillRule="evenodd"
        clipRule="evenodd"
    />
</svg>
        