
<svg
    viewBox={0 0 27.890625 27.890625}
    xmlns="http://www.w3.org/2000/svg"
>
    <path
        fill="inherit"
        d="M13.9427 27.8864C21.6427 27.8864 27.8927 21.6464 27.8927 13.9464C27.8927 6.2464 21.6427 -0.0036 13.9427 -0.0036C6.2527 -0.0036 0.0027 6.2464 0.0027 13.9464C0.0027 21.6464 6.2527 27.8864 13.9427 27.8864ZM13.9427 25.5664C7.5227 25.5664 2.3227 20.3664 2.3227 13.9464C2.3227 7.5164 7.5227 2.3264 13.9427 2.3264C20.3727 2.3264 25.5627 7.5164 25.5627 13.9464C25.5627 20.3664 20.3727 25.5664 13.9427 25.5664ZM10.4327 20.2064C11.1427 20.2064 11.5427 19.7464 11.5427 18.9864V15.5864H14.0827L16.4427 19.4864C16.7727 20.0164 17.0627 20.2064 17.5427 20.2064C18.1327 20.2064 18.5427 19.8264 18.5427 19.2764C18.5427 18.9764 18.4527 18.7564 18.2827 18.4864L16.2327 15.2764C17.8427 14.7364 18.8827 13.3064 18.8827 11.6064C18.8827 9.1464 17.1127 7.5864 14.3427 7.5864H10.4227C9.7227 7.5864 9.3527 8.0764 9.3527 8.8164V18.9864C9.3527 19.7164 9.7327 20.2064 10.4327 20.2064ZM11.5427 13.9864V9.2564H14.0827C15.6527 9.2564 16.7227 10.1264 16.7227 11.6664C16.7227 13.1564 15.6827 13.9864 14.0227 13.9864Z"
        fillRule="evenodd"
        clipRule="evenodd"
    />
</svg>
        