<svg viewBox="0 0 34.27711669769996 31.4453125" xmlns="http://www.w3.org/2000/svg"><path d="M18.5409 -0.0026C11.7209 -0.0026 5.8909 4.3774 3.7509 10.4474C4.5109 10.3474 5.2909 10.5574 5.8709 11.0374C7.7909 5.8674 12.7209 2.1974 18.5409 2.1974C26.0309 2.1974 32.0809 8.2474 32.0809 15.7374C32.0809 23.2274 26.0309 29.2474 18.5409 29.2474C12.7409 29.2474 7.8109 25.6074 5.8809 20.4574C5.2909 20.9174 4.5409 21.1474 3.7509 21.0374C5.9209 27.1074 11.7309 31.4474 18.5409 31.4474C27.2209 31.4474 34.2809 24.4174 34.2809 15.7374C34.2809 7.0574 27.2209 -0.0026 18.5409 -0.0026ZM18.5409 26.6474C24.5709 26.6474 29.4609 21.7674 29.4609 15.7374C29.4609 9.6974 24.5709 4.8174 18.5409 4.8174C12.5109 4.8174 7.6309 9.6974 7.6309 15.7374C7.6309 21.7674 12.5109 26.6474 18.5409 26.6474ZM15.6409 21.1374C14.9609 21.1374 14.5809 20.6674 14.5809 19.9774V11.3474C14.5809 10.6474 14.9409 10.1474 15.6309 10.1474H18.9509C21.3809 10.1474 22.9609 11.5674 22.9609 13.7274C22.9609 15.1474 22.0909 16.3974 20.8009 16.8974L22.4209 19.4374C22.5909 19.6874 22.6809 19.9374 22.6809 20.2074C22.6809 20.7374 22.2509 21.1374 21.6409 21.1374C21.1809 21.1374 20.8609 20.9474 20.5609 20.4674L18.6509 17.2574H16.7609V19.9774C16.7609 20.6874 16.3409 21.1374 15.6409 21.1374ZM16.7609 15.5574H18.6909C20.0309 15.5574 20.8009 14.9574 20.8009 13.7674C20.8009 12.5674 19.9909 11.8774 18.7309 11.8774H16.7609ZM3.6609 12.5474L0.3809 14.9974C-0.1391 15.3774 -0.1191 16.0874 0.3809 16.4774L3.6809 18.9374C4.4009 19.4774 5.3709 19.1774 5.3709 18.2074V13.2774C5.3709 12.3274 4.4209 11.9874 3.6609 12.5474Z" /></svg>