<svg viewBox="0 0 27.97265625 23.830078125" xmlns="http://www.w3.org/2000/svg"><path d="M13.9827 17.6264C22.7227 17.6264 27.9727 13.6864 27.9727 8.8064C27.9727 3.9364 22.7227 -0.0036 13.9727 -0.0036C5.2527 -0.0036 0.0027 3.9364 0.0027 8.8064C0.0027 13.6864 5.2527 17.6264 13.9827 17.6264ZM11.7427 13.0164C11.2227 13.0164 10.8927 12.6464 10.8927 12.0764V5.4164C10.8927 4.8164 11.2227 4.4464 11.7427 4.4464H14.3127C16.1827 4.4464 17.4227 5.5364 17.4227 7.2364C17.4227 8.3364 16.7927 9.2864 15.7627 9.6964L17.0327 11.6764C17.1627 11.8664 17.2227 12.0464 17.2227 12.2764C17.2227 12.7264 16.8527 13.0464 16.4227 13.0464C16.0627 13.0464 15.8327 12.8964 15.6027 12.4964L14.0527 9.9764H12.6227V12.0764C12.6227 12.6464 12.2727 13.0164 11.7427 13.0164ZM12.6227 8.6364H14.1127C15.1327 8.6364 15.7127 8.1364 15.7127 7.2564C15.7127 6.3864 15.1227 5.8364 14.1327 5.8364H12.6227ZM13.9827 23.8264C17.3127 23.8264 19.2727 22.2764 19.2727 19.6464V18.9664C17.6227 19.2864 15.8627 19.4864 13.9827 19.4864C12.1127 19.4864 10.3527 19.2864 8.7127 18.9664V19.6464C8.7127 22.2764 10.6827 23.8264 13.9827 23.8264Z" /></svg>