<svg viewBox="0 0 31.4453125 34.268622124069026" xmlns="http://www.w3.org/2000/svg"><path d="M18.8927 3.6671L16.4627 0.3871C16.0627 -0.1429 15.3627 -0.1129 14.9827 0.3871L12.5127 3.6871C11.9727 4.4071 12.2627 5.3671 13.2527 5.3671H18.1727C19.1227 5.3671 19.4727 4.4271 18.8927 3.6671ZM31.4427 18.5471C31.4427 11.7271 27.0727 5.8971 21.0027 3.7371C21.1127 4.5171 20.8927 5.2871 20.4227 5.8571C25.5827 7.7971 29.2427 12.7171 29.2427 18.5471C29.2427 26.0371 23.2127 32.0671 15.7227 32.0671C8.2327 32.0671 2.2027 26.0371 2.2027 18.5471C2.2027 12.7371 5.8527 7.8171 10.9927 5.8771C10.5227 5.2871 10.3127 4.5371 10.4227 3.7371C4.3427 5.9271 0.0027 11.7371 0.0027 18.5471C0.0027 27.2271 7.0427 34.2671 15.7227 34.2671C24.4027 34.2671 31.4427 27.2171 31.4427 18.5471ZM4.8127 18.5471C4.8127 24.5771 9.6927 29.4671 15.7227 29.4671C21.7527 29.4671 26.6327 24.5771 26.6327 18.5471C26.6327 12.5071 21.7527 7.6371 15.7227 7.6371C9.6927 7.6371 4.8127 12.5071 4.8127 18.5471ZM12.8127 23.9471C12.1227 23.9471 11.7427 23.4771 11.7427 22.7871V14.1571C11.7427 13.4571 12.1127 12.9571 12.7927 12.9571H16.1227C18.5527 12.9571 20.1227 14.3771 20.1227 16.5371C20.1227 17.9571 19.2627 19.2071 17.9627 19.7071L19.5927 22.2471C19.7527 22.4971 19.8527 22.7471 19.8527 23.0171C19.8527 23.5471 19.4127 23.9471 18.8127 23.9471C18.3427 23.9471 18.0327 23.7571 17.7327 23.2771L15.8227 20.0671H13.9327V22.7871C13.9327 23.4971 13.5127 23.9471 12.8127 23.9471ZM13.9327 18.3671H15.8627C17.2027 18.3671 17.9627 17.7671 17.9627 16.5771C17.9627 15.3771 17.1627 14.6871 15.9027 14.6871H13.9327Z" /></svg>