
<svg
    viewBox="0 0 31.4453125 34.268622124069026"
    xmlns="http://www.w3.org/2000/svg"
>
    <path
        fill="inherit"
        d="M18.8927 3.6671L16.4627 0.3871C16.0627 -0.1429 15.3627 -0.1129 14.9827 0.3871L12.5127 3.6871C11.9727 4.4071 12.2627 5.3671 13.2527 5.3671H18.1727C19.1227 5.3671 19.4727 4.4271 18.8927 3.6671ZM31.4427 18.5471C31.4427 11.7271 27.0727 5.8971 21.0027 3.7371C21.1127 4.5171 20.8927 5.2871 20.4227 5.8571C25.5827 7.7971 29.2427 12.7171 29.2427 18.5471C29.2427 26.0371 23.2127 32.0671 15.7227 32.0671C8.2327 32.0671 2.2027 26.0371 2.2027 18.5471C2.2027 12.7371 5.8527 7.8171 10.9927 5.8771C10.5227 5.2871 10.3127 4.5371 10.4227 3.7371C4.3427 5.9271 0.0027 11.7371 0.0027 18.5471C0.0027 27.2271 7.0427 34.2671 15.7227 34.2671C24.4027 34.2671 31.4427 27.2171 31.4427 18.5471ZM4.8127 18.5471C4.8127 24.5771 9.6927 29.4671 15.7227 29.4671C21.7527 29.4671 26.6327 24.5771 26.6327 18.5471C26.6327 12.5071 21.7527 7.6371 15.7227 7.6371C9.6927 7.6371 4.8127 12.5071 4.8127 18.5471ZM7.0127 18.5471C7.0127 13.7071 10.8827 9.8371 15.7227 9.8371C20.5527 9.8371 24.4327 13.7071 24.4327 18.5471C24.4327 23.3771 20.5527 27.2671 15.7227 27.2671C10.8827 27.2671 7.0127 23.3771 7.0127 18.5471ZM12.9027 23.7871C13.5727 23.7871 13.9827 23.3471 13.9827 22.6571V20.0071H15.8227L17.6927 23.1271C17.9827 23.5871 18.2827 23.7871 18.7327 23.7871C19.3027 23.7871 19.7327 23.3971 19.7327 22.8771C19.7327 22.6171 19.6327 22.3871 19.4827 22.1371L17.8927 19.6671C19.1527 19.1771 19.9927 17.9671 19.9927 16.5871C19.9927 14.4971 18.4727 13.1171 16.1227 13.1171H12.8927C12.2327 13.1171 11.8827 13.6071 11.8827 14.2771V22.6571C11.8827 23.3271 12.2527 23.7871 12.9027 23.7871ZM13.9827 18.3671V14.7971H15.9027C17.1327 14.7971 17.9127 15.4571 17.9127 16.6271C17.9127 17.7771 17.1627 18.3671 15.8627 18.3671Z"
        fillRule="evenodd"
        clipRule="evenodd"
    />
</svg>
        