
<svg
    viewBox="0 0 31.4453125 34.27711669769996"
    xmlns="http://www.w3.org/2000/svg"
>
    <path
        fill="inherit"
        d="M31.4427 15.7374C31.4427 7.0574 24.4027 -0.0026 15.7227 -0.0026C7.0427 -0.0026 0.0027 7.0574 0.0027 15.7374C0.0027 22.5474 4.3427 28.3574 10.4227 30.5274C10.3127 29.7474 10.5227 28.9874 10.9927 28.3974C5.8527 26.4674 2.2027 21.5474 2.2027 15.7374C2.2027 8.2474 8.2327 2.1974 15.7227 2.1974C23.2127 2.1974 29.2427 8.2474 29.2427 15.7374C29.2427 21.5574 25.5827 26.4874 20.4227 28.4074C20.8927 28.9874 21.1127 29.7674 21.0027 30.5274C27.0727 28.3874 31.4427 22.5574 31.4427 15.7374ZM4.8127 15.7374C4.8127 21.7774 9.6927 26.6474 15.7227 26.6474C21.7527 26.6474 26.6327 21.7774 26.6327 15.7374C26.6327 9.7074 21.7527 4.8174 15.7227 4.8174C9.6927 4.8174 4.8127 9.7074 4.8127 15.7374ZM12.8127 21.1374C12.1227 21.1374 11.7427 20.6674 11.7427 19.9774V11.3474C11.7427 10.6474 12.1127 10.1474 12.7927 10.1474H16.1227C18.5527 10.1474 20.1227 11.5674 20.1227 13.7274C20.1227 15.1474 19.2627 16.3974 17.9627 16.8974L19.5927 19.4374C19.7527 19.6874 19.8527 19.9374 19.8527 20.2074C19.8527 20.7374 19.4127 21.1374 18.8127 21.1374C18.3427 21.1374 18.0327 20.9474 17.7327 20.4674L15.8227 17.2574H13.9327V19.9774C13.9327 20.6874 13.5127 21.1374 12.8127 21.1374ZM13.9327 15.5574H15.8627C17.2027 15.5574 17.9627 14.9574 17.9627 13.7674C17.9627 12.5674 17.1627 11.8774 15.9027 11.8774H13.9327ZM18.8927 30.6074C19.4727 29.8574 19.1227 28.8974 18.1727 28.8974H13.2527C12.2627 28.8974 11.9727 29.8774 12.5127 30.5974L14.9827 33.8974C15.3627 34.3974 16.0627 34.4074 16.4627 33.8974Z"
        fillRule="evenodd"
        clipRule="evenodd"
    />
</svg>
        