
<svg
    viewBox={0 0 27.97265625 31.048828125}
    xmlns="http://www.w3.org/2000/svg"
>
    <path
        fill="inherit"
        d="M10.6527 1.6652L13.3727 5.3352C13.7427 5.8352 14.4327 5.8352 14.8027 5.3352L17.5527 1.6652C18.1027 0.9452 17.8127 -0.0048 16.8327 -0.0048H11.3427C10.4227 -0.0048 10.0727 0.9152 10.6527 1.6652ZM13.9827 24.8452C22.7227 24.8452 27.9727 20.9052 27.9727 16.0252C27.9727 11.1552 22.7227 7.2152 13.9727 7.2152C5.2527 7.2152 0.0027 11.1552 0.0027 16.0252C0.0027 20.9052 5.2527 24.8452 13.9827 24.8452ZM11.7427 20.2352C11.2227 20.2352 10.8927 19.8652 10.8927 19.2952V12.6352C10.8927 12.0352 11.2227 11.6652 11.7427 11.6652H14.3127C16.1827 11.6652 17.4227 12.7552 17.4227 14.4552C17.4227 15.5552 16.7927 16.5052 15.7627 16.9152L17.0327 18.8952C17.1627 19.0852 17.2227 19.2652 17.2227 19.4952C17.2227 19.9452 16.8527 20.2652 16.4227 20.2652C16.0627 20.2652 15.8327 20.1152 15.6027 19.7152L14.0527 17.1952H12.6227V19.2952C12.6227 19.8652 12.2727 20.2352 11.7427 20.2352ZM12.6227 15.8552H14.1127C15.1327 15.8552 15.7127 15.3552 15.7127 14.4752C15.7127 13.6052 15.1227 13.0552 14.1327 13.0552H12.6227ZM13.9827 31.0452C17.3127 31.0452 19.2727 29.4952 19.2727 26.8652V26.1852C17.6227 26.5052 15.8627 26.7052 13.9827 26.7052C12.1127 26.7052 10.3527 26.5052 8.7127 26.1852V26.8652C8.7127 29.4952 10.6827 31.0452 13.9827 31.0452Z"
        fillRule="evenodd"
        clipRule="evenodd"
    />
</svg>
        