<svg viewBox="0 0 25.169921875 25.169921875" xmlns="http://www.w3.org/2000/svg"><path d="M4.2937 25.1692H20.8737C23.7437 25.1692 25.1737 23.7592 25.1737 20.9492V4.2392C25.1737 1.4192 23.7437 -0.0008 20.8737 -0.0008H4.2937C1.4337 -0.0008 0.0037 1.4192 0.0037 4.2392V20.9492C0.0037 23.7592 1.4337 25.1692 4.2937 25.1692ZM4.3237 22.9692C2.9537 22.9692 2.2037 22.2392 2.2037 20.8192V4.3592C2.2037 2.9392 2.9537 2.1992 4.3237 2.1992H20.8537C22.2037 2.1992 22.9737 2.9392 22.9737 4.3592V20.8192C22.9737 22.2392 22.2037 22.9692 20.8537 22.9692ZM9.0937 18.8392C9.8137 18.8392 10.2037 18.3792 10.2037 17.6192V14.2192H12.7437L15.1037 18.1192C15.4337 18.6492 15.7237 18.8392 16.2037 18.8392C16.7937 18.8392 17.2037 18.4592 17.2037 17.9092C17.2037 17.6092 17.1137 17.3892 16.9537 17.1192L14.9037 13.9092C16.5037 13.3692 17.5437 11.9392 17.5437 10.2392C17.5437 7.7792 15.7937 6.2192 13.0137 6.2192H9.0737C8.3837 6.2192 8.0137 6.7092 8.0137 7.4492V17.6192C8.0137 18.3492 8.3937 18.8392 9.0937 18.8392ZM10.2037 12.6192V7.8892H12.7437C14.3137 7.8892 15.3837 8.7592 15.3837 10.2992C15.3837 11.7892 14.3437 12.6192 12.6837 12.6192Z" /></svg>