<svg viewBox="0 0 25.169921875 25.169921875" xmlns="http://www.w3.org/2000/svg"><path d="M4.2937 25.1692H20.8737C23.7437 25.1692 25.1737 23.7592 25.1737 20.9492V4.2392C25.1737 1.4192 23.7437 -0.0008 20.8737 -0.0008H4.2937C1.4337 -0.0008 0.0037 1.4192 0.0037 4.2392V20.9492C0.0037 23.7592 1.4337 25.1692 4.2937 25.1692ZM8.9737 19.0492C8.2537 19.0492 7.8637 18.5292 7.8637 17.7692V7.2992C7.8637 6.5392 8.2437 6.0192 8.9537 6.0192H13.0337C15.8837 6.0192 17.6937 7.6292 17.6937 10.1692C17.6937 11.9192 16.6237 13.3992 14.9737 13.9492L17.0937 17.2492C17.2537 17.5392 17.3337 17.7592 17.3337 18.0692C17.3337 18.6492 16.9137 19.0492 16.3137 19.0492C15.8037 19.0492 15.5137 18.8392 15.1737 18.2892L12.7437 14.2692H10.1137V17.7692C10.1137 18.5492 9.7237 19.0492 8.9737 19.0492ZM10.1137 12.6192H12.6837C14.3837 12.6192 15.4637 11.7592 15.4637 10.2292C15.4637 8.6592 14.3537 7.7492 12.7437 7.7492H10.1137Z" /></svg>