<svg viewBox="0 0 31.541015625 23.84375" xmlns="http://www.w3.org/2000/svg"><path d="M11.4737 23.843H20.0737C28.0037 23.843 31.5437 20.193 31.5437 12.733V4.143C31.5437 1.393 30.1237 0.003 27.3437 0.003H4.1937C1.4237 0.003 0.0037 1.393 0.0037 4.143V12.733C0.0037 20.193 3.5437 23.843 11.4737 23.843ZM20.8737 17.553C20.3337 17.553 19.8937 17.103 19.8937 16.543V8.343L18.6437 9.333C18.5137 9.443 18.3637 9.503 18.1537 9.503C17.7437 9.503 17.4637 9.213 17.4637 8.793C17.4637 8.433 17.6537 8.163 17.8837 8.003L19.3737 6.823C19.7037 6.593 20.1537 6.273 20.7237 6.273C21.4337 6.273 21.8737 6.683 21.8737 7.383V16.543C21.8737 17.103 21.4237 17.553 20.8737 17.553ZM10.5137 17.593C9.8537 17.593 9.5037 17.173 9.5037 16.543V7.493C9.5037 6.853 9.8537 6.463 10.5037 6.463H12.7937C14.9037 6.463 16.2137 7.643 16.2137 9.843C16.2137 11.073 15.7537 12.253 14.6537 12.823L15.9437 15.883C16.0937 16.183 16.1637 16.473 16.1637 16.643C16.1637 17.323 15.6837 17.593 15.2337 17.593C14.6837 17.593 14.3737 17.293 14.1937 16.773L12.7837 13.233H11.4937V16.543C11.4937 17.183 11.1137 17.593 10.5137 17.593ZM11.4937 11.773H12.6237C13.7137 11.773 14.2037 10.963 14.2037 9.903C14.2037 8.803 13.6537 8.053 12.6237 8.053H11.4937Z" /></svg>