
<svg
    viewBox={0 0 27.890625 27.890625}
    xmlns="http://www.w3.org/2000/svg"
>
    <path
        fill="inherit"
        d="M13.9427 27.8864C21.6427 27.8864 27.8927 21.6264 27.8927 13.9464C27.8927 6.2464 21.6427 -0.0036 13.9427 -0.0036C6.2627 -0.0036 0.0027 6.2464 0.0027 13.9464C0.0027 21.6264 6.2627 27.8864 13.9427 27.8864ZM18.9927 19.5064C18.4427 19.5064 18.0027 19.0764 18.0027 18.5164V10.4064L16.7627 11.3864C16.6427 11.4964 16.5027 11.5564 16.2927 11.5564C15.8827 11.5564 15.6027 11.2664 15.6027 10.8464C15.6027 10.4964 15.7727 10.2264 16.0227 10.0664L17.4827 8.8964C17.8127 8.6664 18.2627 8.3564 18.8427 8.3564C19.5327 8.3564 19.9627 8.7664 19.9627 9.4564V18.5164C19.9627 19.0764 19.5227 19.5064 18.9927 19.5064ZM8.7327 19.5464C8.0927 19.5464 7.7227 19.1364 7.7227 18.5164V9.5664C7.7227 8.9264 8.0827 8.5464 8.7227 8.5464H10.9827C13.0727 8.5464 14.3727 9.7064 14.3727 11.8964C14.3727 13.1064 13.9027 14.2764 12.8427 14.8364L14.0927 17.8664C14.2427 18.1664 14.3127 18.4464 14.3127 18.5964C14.3127 19.2764 13.8327 19.5464 13.4027 19.5464C12.8527 19.5464 12.5327 19.2464 12.3727 18.7464L10.9627 15.2264H9.7027V18.5164C9.7027 19.1564 9.3427 19.5464 8.7327 19.5464ZM9.7027 13.7964H10.8127C11.8927 13.7964 12.3827 13.0064 12.3827 11.9464C12.3827 10.8664 11.8427 10.1164 10.8127 10.1164H9.7027Z"
        fillRule="evenodd"
        clipRule="evenodd"
    />
</svg>
        