
<svg
    viewBox={0 0 27.890625 27.890625}
    xmlns="http://www.w3.org/2000/svg"
>
    <path
        fill="inherit"
        d="M13.9427 27.8864C21.6427 27.8864 27.8927 21.6464 27.8927 13.9464C27.8927 6.2464 21.6427 -0.0036 13.9427 -0.0036C6.2527 -0.0036 0.0027 6.2464 0.0027 13.9464C0.0027 21.6464 6.2527 27.8864 13.9427 27.8864ZM13.9427 25.5664C7.5227 25.5664 2.3227 20.3664 2.3227 13.9464C2.3227 7.5164 7.5227 2.3264 13.9427 2.3264C20.3727 2.3264 25.5627 7.5164 25.5627 13.9464C25.5627 20.3664 20.3727 25.5664 13.9427 25.5664ZM19.0727 19.6164C19.6227 19.6164 20.0727 19.1664 20.0727 18.6164V9.3564C20.0727 8.6564 19.6327 8.2464 18.9227 8.2464C18.3427 8.2464 17.8827 8.5564 17.5727 8.8064L16.0627 9.9664C15.8227 10.1564 15.6227 10.4164 15.6227 10.7764C15.6227 11.1964 15.9127 11.4964 16.3227 11.4964C16.5427 11.4964 16.6827 11.4264 16.8127 11.3364L18.0727 10.3264V18.6164C18.0727 19.1664 18.5227 19.6164 19.0727 19.6164ZM8.6127 19.6564C9.2327 19.6564 9.6127 19.2664 9.6127 18.6164V15.2564H10.9127L12.3327 18.8364C12.5127 19.3564 12.8227 19.6564 13.3727 19.6564C13.8227 19.6564 14.3127 19.3964 14.3127 18.6864C14.3127 18.5364 14.2327 18.2664 14.0927 17.9464L12.7927 14.8464C13.9027 14.2764 14.3727 13.0864 14.3727 11.8564C14.3727 9.6264 13.0527 8.4364 10.9227 8.4364H8.6027C7.9527 8.4364 7.6027 8.8364 7.6027 9.4764V18.6164C7.6027 19.2464 7.9727 19.6564 8.6127 19.6564ZM9.6127 13.7964V10.0264H10.7327C11.7827 10.0264 12.3427 10.7964 12.3427 11.8964C12.3427 12.9764 11.8527 13.7964 10.7327 13.7964Z"
        fillRule="evenodd"
        clipRule="evenodd"
    />
</svg>
        