
<svg
    viewBox={0 0 31.541015625 23.84375}
    xmlns="http://www.w3.org/2000/svg"
>
    <path
        fill="inherit"
        d="M11.4737 0.003C3.5437 0.003 0.0037 3.653 0.0037 11.113V19.683C0.0037 22.453 1.4237 23.843 4.1937 23.843H27.3437C30.1237 23.843 31.5437 22.433 31.5437 19.683V11.113C31.5437 3.653 28.0037 0.003 20.0737 0.003ZM17.8737 17.413C17.2537 17.413 16.9637 17.073 16.9637 16.613C16.9637 16.173 17.2137 15.863 17.4637 15.533L19.8137 12.523C20.5337 11.603 21.2837 10.503 21.2837 9.423C21.2837 8.463 20.8337 7.743 20.0137 7.743C19.2537 7.743 18.9037 8.323 18.6637 9.233C18.5137 9.663 18.2337 9.883 17.7837 9.883C17.2837 9.883 16.9837 9.513 16.9837 9.013C16.9837 7.603 18.2937 6.163 20.0337 6.163C21.9037 6.163 23.1437 7.493 23.1437 9.323C23.1437 10.523 22.7137 11.523 21.3437 13.203L19.3637 15.693V15.823H22.5737C23.0537 15.823 23.3537 16.093 23.3537 16.613C23.3537 17.093 23.0637 17.413 22.5737 17.413ZM9.7737 17.593C9.1337 17.593 8.7737 17.173 8.7737 16.543V7.493C8.7737 6.863 9.1337 6.483 9.7637 6.483H12.0737C14.1737 6.483 15.4937 7.643 15.4937 9.853C15.4937 11.073 15.0237 12.253 13.9137 12.823L15.2137 15.883C15.3437 16.203 15.4337 16.473 15.4337 16.643C15.4337 17.333 14.9437 17.593 14.4937 17.593C13.9637 17.593 13.6537 17.293 13.4537 16.773L12.0437 13.233H10.7737V16.543C10.7737 17.183 10.3937 17.593 9.7737 17.593ZM10.7737 11.773H11.8837C12.9737 11.773 13.4637 10.963 13.4637 9.903C13.4637 8.803 12.9237 8.053 11.8837 8.053H10.7737Z"
        fillRule="evenodd"
        clipRule="evenodd"
    />
</svg>
        