
<svg
    viewBox="0 0 27.890625 27.890625"
    xmlns="http://www.w3.org/2000/svg"
>
    <path
        fill="inherit"
        d="M13.9427 27.8864C21.6427 27.8864 27.8927 21.6464 27.8927 13.9464C27.8927 6.2464 21.6427 -0.0036 13.9427 -0.0036C6.2527 -0.0036 0.0027 6.2464 0.0027 13.9464C0.0027 21.6464 6.2527 27.8864 13.9427 27.8864ZM13.9427 25.5664C7.5227 25.5664 2.3227 20.3664 2.3227 13.9464C2.3227 7.5164 7.5227 2.3264 13.9427 2.3264C20.3727 2.3264 25.5627 7.5164 25.5627 13.9464C25.5627 20.3664 20.3727 25.5664 13.9427 25.5664ZM16.0327 19.4664H20.7827C21.2727 19.4664 21.5627 19.1564 21.5627 18.6764C21.5627 18.1564 21.2627 17.8664 20.7827 17.8664H17.5427V17.7564L19.5327 15.2264C20.9027 13.5364 21.3527 12.5264 21.3527 11.3164C21.3527 9.4764 20.0927 8.1364 18.2127 8.1364C16.4627 8.1364 15.1327 9.5864 15.1327 11.0064C15.1327 11.5164 15.4327 11.8664 15.9527 11.8664C16.4027 11.8664 16.6827 11.6664 16.8327 11.2064C17.0727 10.2964 17.4227 9.7164 18.1927 9.7164C19.0327 9.7164 19.4827 10.4464 19.4827 11.4164C19.4827 12.5064 18.7327 13.6164 18.0027 14.5464L15.6227 17.5864C15.3827 17.9064 15.1227 18.2564 15.1227 18.6764C15.1227 19.1364 15.4227 19.4664 16.0327 19.4664ZM7.8727 19.6564C8.4927 19.6564 8.8727 19.2664 8.8727 18.6164V15.2564H10.1627L11.5927 18.8364C11.7827 19.3564 12.0827 19.6564 12.6327 19.6564C13.0827 19.6564 13.5727 19.3964 13.5727 18.6864C13.5727 18.5364 13.4827 18.2664 13.3527 17.9464L12.0627 14.8464C13.1627 14.2764 13.6327 13.0864 13.6327 11.8564C13.6327 9.6264 12.3027 8.4364 10.1727 8.4364H7.8627C7.2227 8.4364 6.8627 8.8364 6.8627 9.4764V18.6164C6.8627 19.2464 7.2227 19.6564 7.8727 19.6564ZM8.8727 13.7964V10.0264H9.9927C11.0427 10.0264 11.6027 10.7964 11.6027 11.8964C11.6027 12.9764 11.1127 13.7964 9.9927 13.7964Z"
        fillRule="evenodd"
        clipRule="evenodd"
    />
</svg>
        