
<svg
    viewBox={0 0 27.890625 27.890625}
    xmlns="http://www.w3.org/2000/svg"
>
    <path
        fill="inherit"
        d="M13.9427 27.8864C21.6427 27.8864 27.8927 21.6264 27.8927 13.9464C27.8927 6.2464 21.6427 -0.0036 13.9427 -0.0036C6.2627 -0.0036 0.0027 6.2464 0.0027 13.9464C0.0027 21.6264 6.2627 27.8864 13.9427 27.8864ZM16.0127 19.3764C15.3927 19.3764 15.1027 19.0264 15.1027 18.5764C15.1027 18.1564 15.3527 17.8264 15.6027 17.5164L17.9227 14.5364C18.6327 13.6264 19.3827 12.5364 19.3827 11.4664C19.3827 10.5264 18.9327 9.8164 18.1327 9.8164C17.3627 9.8164 17.0327 10.3764 16.7927 11.2764C16.6427 11.7164 16.3627 11.9264 15.9327 11.9264C15.4227 11.9264 15.1227 11.5664 15.1227 11.0764C15.1227 9.6764 16.4227 8.2564 18.1327 8.2564C19.9927 8.2564 21.2227 9.5664 21.2227 11.3764C21.2227 12.5664 20.7827 13.5464 19.4427 15.2064L17.4827 17.6764V17.7864H20.6627C21.1227 17.7864 21.4227 18.0764 21.4227 18.5764C21.4227 19.0464 21.1327 19.3764 20.6627 19.3764ZM8.0027 19.5464C7.3727 19.5464 7.0127 19.1364 7.0127 18.5164V9.5664C7.0127 8.9364 7.3727 8.5564 7.9827 8.5564H10.2627C12.3627 8.5564 13.6627 9.7064 13.6627 11.9064C13.6627 13.1064 13.1927 14.2764 12.1027 14.8364L13.3727 17.8664C13.4927 18.1864 13.5927 18.4464 13.5927 18.5964C13.5927 19.2864 13.1127 19.5464 12.6627 19.5464C12.1227 19.5464 11.8427 19.2464 11.6327 18.7464L10.2427 15.2264H8.9827V18.5164C8.9827 19.1564 8.6127 19.5464 8.0027 19.5464ZM8.9827 13.7964H10.0727C11.1727 13.7964 11.6527 13.0064 11.6527 11.9464C11.6527 10.8664 11.1027 10.1164 10.0727 10.1164H8.9827Z"
        fillRule="evenodd"
        clipRule="evenodd"
    />
</svg>
        