
<svg
    viewBox="0 0 35.3828125 23.450325451140163"
    xmlns="http://www.w3.org/2000/svg"
>
    <path
        fill="inherit"
        d="M0.0037 12.7037C0.0037 15.6237 0.4737 16.9637 2.6537 18.0837L10.3537 22.0437C13.1837 23.5037 15.2037 23.8737 18.3737 22.9437L30.2137 19.4937C33.8637 18.4137 35.3837 16.2437 35.3837 12.7037V4.1737C35.3837 1.6937 33.7437 0.0137 31.2837 0.0137L4.1337 0.0037C1.6637 0.0037 0.0037 1.6637 0.0037 4.1337ZM21.7937 16.3337C20.2637 16.3337 18.8437 15.6137 18.4337 14.3037C18.3637 14.0637 18.3237 13.8237 18.3237 13.5637C18.3237 13.0037 18.6937 12.6737 19.2537 12.6737C19.7037 12.6737 20.0037 12.9037 20.1437 13.3737C20.3137 14.0037 20.7637 14.6837 21.7937 14.6837C22.8437 14.6837 23.3537 13.8637 23.3537 12.8937C23.3537 11.6637 22.6837 11.0237 21.4937 11.0237H21.1337C20.6737 11.0237 20.3537 10.7337 20.3537 10.2637C20.3537 9.8137 20.6537 9.5137 21.1337 9.5137H21.4737C22.5337 9.5137 23.1037 8.7637 23.1037 7.7337C23.1037 6.8037 22.6537 6.0837 21.7337 6.0837C20.9437 6.0837 20.4937 6.6137 20.2737 7.4537C20.1437 7.9337 19.8537 8.1237 19.3737 8.1237C18.8137 8.1237 18.4937 7.7337 18.4937 7.2837C18.4937 7.0437 18.5237 6.7937 18.6037 6.5237C19.0137 5.2737 20.2737 4.4537 21.7337 4.4537C23.5737 4.4537 25.0337 5.5637 25.0337 7.5237C25.0337 8.6937 24.4137 9.8337 23.1337 10.1737V10.2237C24.3037 10.3537 25.3737 11.2137 25.3737 12.9637C25.3737 15.0637 23.8037 16.3337 21.7937 16.3337ZM10.8037 16.2837C10.1137 16.2837 9.7337 15.8437 9.7337 15.1937V5.7737C9.7337 5.1037 10.1137 4.7037 10.7837 4.7037H13.1637C15.3637 4.7037 16.7337 5.9337 16.7337 8.2137C16.7337 9.5037 16.2437 10.7337 15.1237 11.3237L16.4437 14.5037C16.5837 14.8237 16.6637 15.1237 16.6637 15.2837C16.6637 15.9937 16.1737 16.2837 15.7137 16.2837C15.1337 16.2837 14.8237 15.9737 14.6337 15.4337L13.1537 11.7437H11.8137V15.1937C11.8137 15.8637 11.4337 16.2837 10.8037 16.2837ZM11.8137 10.2237H12.9837C14.1337 10.2237 14.6437 9.3937 14.6437 8.2837C14.6437 7.1337 14.0637 6.3437 12.9837 6.3437H11.8137Z"
        fillRule="evenodd"
        clipRule="evenodd"
    />
</svg>
        