
<svg
    viewBox="0 0 35.3828125 23.450325451140163"
    xmlns="http://www.w3.org/2000/svg"
>
    <path
        fill="inherit"
        d="M0.0037 12.7037C0.0037 15.6237 0.4737 16.9637 2.6537 18.0837L10.3537 22.0437C13.1837 23.5037 15.2037 23.8737 18.3737 22.9437L30.2137 19.4937C33.8637 18.4137 35.3837 16.2437 35.3837 12.7037V4.1737C35.3837 1.6937 33.7437 0.0137 31.2837 0.0137L4.1337 0.0037C1.6637 0.0037 0.0037 1.6637 0.0037 4.1337ZM2.2037 12.7037V4.1737C2.2037 2.9837 2.9837 2.2037 4.1737 2.2037L31.2537 2.2137C32.4137 2.2137 33.1837 3.0037 33.1837 4.2137V12.7037C33.1837 15.1937 32.1537 16.6837 29.5837 17.4337L18.3737 20.7537C15.5337 21.6037 13.8737 21.3537 11.5237 20.1637L4.0437 16.3537C2.5837 15.6137 2.2037 14.7237 2.2037 12.7037ZM21.6537 16.1237C23.6137 16.1237 25.1337 14.8837 25.1337 12.8337C25.1337 11.1437 24.1037 10.3037 22.9537 10.1837V10.1437C24.2037 9.8137 24.8037 8.7137 24.8037 7.5637C24.8037 5.6737 23.3837 4.5937 21.6037 4.5937C20.1937 4.5937 18.9737 5.3837 18.5837 6.6037C18.4937 6.8637 18.4737 7.1137 18.4737 7.3437C18.4737 7.7937 18.7737 8.1437 19.3137 8.1437C19.7837 8.1437 20.0537 7.9737 20.1837 7.4937C20.3937 6.6837 20.8337 6.1837 21.6037 6.1837C22.5037 6.1837 22.9437 6.8737 22.9437 7.7837C22.9437 8.7737 22.3837 9.5037 21.3537 9.5037H21.0237C20.5637 9.5037 20.2737 9.7937 20.2737 10.2237C20.2737 10.6937 20.5737 10.9537 21.0237 10.9537H21.3737C22.5337 10.9537 23.1737 11.5937 23.1737 12.7837C23.1737 13.7237 22.6837 14.5337 21.6537 14.5337C20.6537 14.5337 20.2237 13.8637 20.0537 13.2337C19.9237 12.7937 19.6337 12.5637 19.1937 12.5637C18.6437 12.5637 18.2937 12.8837 18.2937 13.4237C18.2937 13.6737 18.3337 13.9137 18.4037 14.1337C18.8037 15.4037 20.1837 16.1237 21.6537 16.1237ZM11.0037 16.0637C11.6237 16.0637 11.9937 15.6537 11.9937 15.0237V11.6637H13.2937L14.7237 15.2437C14.9137 15.7637 15.2137 16.0637 15.7637 16.0637C16.2137 16.0637 16.6937 15.7937 16.6937 15.0937C16.6937 14.9437 16.6137 14.6737 16.4837 14.3537L15.1937 11.2537C16.2837 10.6737 16.7637 9.4837 16.7637 8.2537C16.7637 6.0337 15.4337 4.8437 13.3037 4.8437H10.9937C10.3537 4.8437 9.9837 5.2337 9.9837 5.8837V15.0237C9.9837 15.6437 10.3537 16.0637 11.0037 16.0637ZM11.9937 10.2037V6.4237H13.1237C14.1737 6.4237 14.7337 7.2037 14.7337 8.3037C14.7337 9.3837 14.2437 10.2037 13.1237 10.2037Z"
        fillRule="evenodd"
        clipRule="evenodd"
    />
</svg>
        