<svg viewBox="0 0 32.23828125 24.541015625" xmlns="http://www.w3.org/2000/svg"><path d="M10.7737 24.5384H21.4637C29.3937 24.5384 32.2337 21.5984 32.2337 14.2884V10.2684C32.2337 2.9484 29.3937 -0.0016 21.4637 -0.0016H10.7737C2.8437 -0.0016 0.0037 2.9484 0.0037 10.2684V14.2884C0.0037 21.5984 2.8437 24.5384 10.7737 24.5384ZM22.0237 18.1584C21.5737 18.1584 21.0437 17.8984 21.0437 17.1484V15.7484H17.8937C17.2037 15.7484 16.7337 15.2884 16.7337 14.5984C16.7337 14.1684 16.8037 13.7984 17.0537 13.2484L19.5637 7.7784C19.9637 6.9084 20.4237 6.3984 21.4137 6.3984C22.3537 6.3984 22.9937 6.9484 22.9937 7.9284V14.1084H23.4737C24.0537 14.1084 24.2837 14.4684 24.2837 14.9184C24.2837 15.3984 24.0337 15.7484 23.4737 15.7484H22.9937V17.1484C22.9937 17.8284 22.5437 18.1584 22.0237 18.1584ZM9.3537 18.1684C8.6837 18.1684 8.3037 17.7484 8.3037 17.0884V7.6684C8.3037 6.9984 8.6837 6.5884 9.3337 6.5884H11.7337C13.9337 6.5884 15.3037 7.8184 15.3037 10.1184C15.3037 11.3884 14.8037 12.6184 13.6737 13.2084L14.9937 16.3884C15.1337 16.7184 15.2337 17.0084 15.2337 17.1684C15.2337 17.8984 14.7237 18.1684 14.2637 18.1684C13.7037 18.1684 13.3837 17.8584 13.1837 17.3184L11.7037 13.6284H10.3737V17.0884C10.3737 17.7584 9.9937 18.1684 9.3537 18.1684ZM21.0837 14.1484V8.1784H21.0437L18.4737 14.0584V14.1484ZM10.3737 12.1084H11.5437C12.6837 12.1084 13.1937 11.2784 13.1937 10.1584C13.1937 9.0384 12.6237 8.2484 11.5437 8.2484H10.3737Z" /></svg>