
<svg
    viewBox={0 0 32.23828125 24.541015625}
    xmlns="http://www.w3.org/2000/svg"
>
    <path
        fill="inherit"
        d="M10.7737 24.5384H21.4637C29.3937 24.5384 32.2337 21.5984 32.2337 14.2884V10.2684C32.2337 2.9484 29.3937 -0.0016 21.4637 -0.0016H10.7737C2.8437 -0.0016 0.0037 2.9484 0.0037 10.2684V14.2884C0.0037 21.5984 2.8437 24.5384 10.7737 24.5384ZM10.7737 22.3384C4.3237 22.3384 2.2037 20.2484 2.2037 14.2884V10.2684C2.2037 4.3084 4.3237 2.1984 10.7737 2.1984H21.4637C27.9137 2.1984 30.0337 4.3084 30.0337 10.2684V14.2884C30.0337 20.2484 27.9137 22.3384 21.4637 22.3384ZM21.8437 17.9784C22.3537 17.9784 22.7737 17.6684 22.7737 17.0084V15.6384H23.2537C23.7937 15.6384 24.0337 15.2984 24.0337 14.8384C24.0337 14.3984 23.8037 14.0584 23.2537 14.0584H22.7737V8.0484C22.7737 7.1084 22.1637 6.5784 21.2637 6.5784C20.3037 6.5784 19.8537 7.0684 19.4737 7.9184L17.0237 13.2184C16.7937 13.7584 16.7237 14.1084 16.7237 14.5284C16.7237 15.1884 17.1737 15.6384 17.8437 15.6384H20.8937V17.0084C20.8937 17.7284 21.4137 17.9784 21.8437 17.9784ZM9.5737 17.9884C10.1837 17.9884 10.5537 17.5984 10.5537 16.9484V13.5884H11.8537L13.2937 17.1684C13.4837 17.6884 13.7837 17.9884 14.3237 17.9884C14.7837 17.9884 15.2537 17.7284 15.2537 17.0184C15.2537 16.8684 15.1737 16.5984 15.0437 16.2784L13.7537 13.1784C14.8437 12.6084 15.3237 11.4184 15.3237 10.1884C15.3237 7.9584 14.0037 6.7684 11.8637 6.7684H9.5537C8.9137 6.7684 8.5437 7.1684 8.5437 7.8084V16.9484C8.5437 17.5784 8.9137 17.9884 9.5737 17.9884ZM20.9337 14.0984H18.4037V13.9984L20.8937 8.2984H20.9337ZM10.5537 12.1284V8.3584H11.6937C12.7437 8.3584 13.3037 9.1284 13.3037 10.2284C13.3037 11.3084 12.8137 12.1284 11.6937 12.1284Z"
        fillRule="evenodd"
        clipRule="evenodd"
    />
</svg>
        