
<svg
    viewBox={0 0 32.23828125 31.240282573164496}
    xmlns="http://www.w3.org/2000/svg"
>
    <path
        fill="inherit"
        d="M4.2937 31.2396H27.9437C30.8137 31.2396 32.2337 29.8296 32.2337 27.0196V10.3096C32.2337 7.4896 30.8137 6.0696 27.9437 6.0696H26.4437L7.9137 0.0596C7.3437 -0.1404 6.7137 0.1896 6.5337 0.7696C6.3437 1.3396 6.6737 1.9696 7.2437 2.1596L19.3037 6.0696H4.2937C1.4337 6.0696 0.0037 7.4896 0.0037 10.3096V27.0196C0.0037 29.8296 1.4337 31.2396 4.2937 31.2396ZM4.3237 29.0396C2.9537 29.0396 2.2037 28.3096 2.2037 26.8896V10.4296C2.2037 9.0096 2.9537 8.2696 4.3237 8.2696H26.0837L26.1137 8.2896V8.2696H27.9137C29.2737 8.2696 30.0337 9.0096 30.0337 10.4296V26.8896C30.0337 28.3096 29.2737 29.0396 27.9137 29.0396ZM12.9037 12.9096C13.4537 12.9096 13.8937 12.4396 13.8937 11.8696C13.8937 11.3196 13.4537 10.8696 12.9037 10.8696C12.3637 10.8696 11.9037 11.3196 11.9037 11.8696C11.9037 12.4396 12.3637 12.9096 12.9037 12.9096ZM25.1137 15.5696C26.2937 15.5496 27.2437 14.6196 27.2437 13.4496C27.2437 12.2796 26.2937 11.3196 25.1137 11.3096C23.9437 11.2896 22.9737 12.2796 22.9737 13.4496C22.9737 14.6196 23.9437 15.5896 25.1137 15.5696ZM16.2837 13.8596C16.8537 13.8596 17.2837 13.3996 17.2837 12.8496C17.2837 12.2796 16.8537 11.8396 16.2837 11.8396C15.7337 11.8396 15.3137 12.2796 15.3137 12.8496C15.3137 13.3996 15.7337 13.8596 16.2837 13.8596ZM9.5137 13.8596C10.0637 13.8596 10.4837 13.3996 10.4837 12.8496C10.4837 12.2796 10.0637 11.8396 9.5137 11.8396C8.9437 11.8396 8.5137 12.2796 8.5137 12.8496C8.5137 13.3996 8.9437 13.8596 9.5137 13.8596ZM18.8437 16.2996C19.3837 16.2996 19.8537 15.8596 19.8537 15.3096C19.8537 14.7396 19.3837 14.2696 18.8437 14.2696C18.2937 14.2696 17.8537 14.7396 17.8537 15.3096C17.8537 15.8596 18.2937 16.2996 18.8437 16.2996ZM6.9737 16.2996C7.5237 16.2996 7.9437 15.8596 7.9437 15.3096C7.9437 14.7396 7.5237 14.2696 6.9737 14.2696C6.4137 14.2696 5.9437 14.7396 5.9437 15.3096C5.9437 15.8596 6.4137 16.2996 6.9737 16.2996ZM12.9037 16.3796C13.4537 16.3796 13.8937 15.9296 13.8937 15.3796C13.8937 14.8196 13.4537 14.3596 12.9037 14.3596C12.3637 14.3596 11.9037 14.8196 11.9037 15.3796C11.9037 15.9296 12.3637 16.3796 12.9037 16.3796ZM16.0737 17.7496C16.6437 17.7496 17.0637 17.2796 17.0637 16.7496C17.0637 16.1996 16.6437 15.7496 16.0737 15.7496C15.5337 15.7496 15.0637 16.1996 15.0637 16.7496C15.0637 17.2796 15.5337 17.7496 16.0737 17.7496ZM9.7237 17.7496C10.2637 17.7496 10.7337 17.2796 10.7337 16.7496C10.7337 16.1996 10.2637 15.7496 9.7237 15.7496C9.1737 15.7496 8.7337 16.1996 8.7337 16.7496C8.7337 17.2796 9.1737 17.7496 9.7237 17.7496ZM25.1137 21.7896C26.2937 21.7896 27.2437 20.8196 27.2437 19.6496C27.2437 18.4696 26.2937 17.5096 25.1137 17.5096C23.9437 17.5096 22.9737 18.4696 22.9737 19.6496C22.9737 20.8196 23.9437 21.7896 25.1137 21.7896ZM19.7037 19.5796C20.2437 19.5796 20.6837 19.1296 20.6837 18.5796C20.6837 18.0196 20.2437 17.5796 19.7037 17.5796C19.1437 17.5796 18.7037 18.0196 18.7037 18.5796C18.7037 19.1296 19.1437 19.5796 19.7037 19.5796ZM6.1137 19.5796C6.6537 19.5796 7.0937 19.1296 7.0937 18.5796C7.0937 18.0196 6.6537 17.5796 6.1137 17.5796C5.5637 17.5796 5.1137 18.0196 5.1137 18.5796C5.1137 19.1296 5.5637 19.5796 6.1137 19.5796ZM12.9037 19.6496C13.4537 19.6496 13.8937 19.1996 13.8937 18.6496C13.8937 18.0996 13.4537 17.6496 12.9037 17.6496C12.3637 17.6496 11.9037 18.0996 11.9037 18.6496C11.9037 19.1996 12.3637 19.6496 12.9037 19.6496ZM16.0737 21.5496C16.6437 21.5496 17.0637 21.1096 17.0637 20.5596C17.0637 19.9896 16.6437 19.5396 16.0737 19.5396C15.5337 19.5396 15.0637 19.9896 15.0637 20.5596C15.0637 21.1096 15.5337 21.5496 16.0737 21.5496ZM9.7237 21.5496C10.2637 21.5496 10.7337 21.1096 10.7337 20.5596C10.7337 19.9896 10.2637 19.5396 9.7237 19.5396C9.1737 19.5396 8.7337 19.9896 8.7337 20.5596C8.7337 21.1096 9.1737 21.5496 9.7237 21.5496ZM18.8437 22.8696C19.3837 22.8696 19.8537 22.4096 19.8537 21.8496C19.8537 21.2896 19.3837 20.8496 18.8437 20.8496C18.2937 20.8496 17.8537 21.2896 17.8537 21.8496C17.8537 22.4096 18.2937 22.8696 18.8437 22.8696ZM6.9737 22.8696C7.5237 22.8696 7.9437 22.4096 7.9437 21.8496C7.9437 21.2896 7.5237 20.8496 6.9737 20.8496C6.4137 20.8496 5.9437 21.2896 5.9437 21.8496C5.9437 22.4096 6.4137 22.8696 6.9737 22.8696ZM12.9037 22.9396C13.4537 22.9396 13.8937 22.4796 13.8937 21.9196C13.8937 21.3696 13.4537 20.9196 12.9037 20.9196C12.3637 20.9196 11.9037 21.3696 11.9037 21.9196C11.9037 22.4796 12.3637 22.9396 12.9037 22.9396ZM16.2837 25.3896C16.8537 25.3896 17.2837 24.9396 17.2837 24.3796C17.2837 23.8296 16.8537 23.3696 16.2837 23.3696C15.7337 23.3696 15.3137 23.8296 15.3137 24.3796C15.3137 24.9396 15.7337 25.3896 16.2837 25.3896ZM9.5137 25.3896C10.0637 25.3896 10.4837 24.9396 10.4837 24.3796C10.4837 23.8296 10.0637 23.3696 9.5137 23.3696C8.9437 23.3696 8.5137 23.8296 8.5137 24.3796C8.5137 24.9396 8.9437 25.3896 9.5137 25.3896ZM12.9037 26.4296C13.4537 26.4296 13.8937 25.9796 13.8937 25.4296C13.8937 24.8596 13.4537 24.3896 12.9037 24.3896C12.3637 24.3896 11.9037 24.8596 11.9037 25.4296C11.9037 25.9796 12.3637 26.4296 12.9037 26.4296Z"
        fillRule="evenodd"
        clipRule="evenodd"
    />
</svg>
        