
<svg
    viewBox={0 0 32.23828125 31.240282573164496}
    xmlns="http://www.w3.org/2000/svg"
>
    <path
        fill="inherit"
        d="M4.2937 31.2396H27.9437C30.8137 31.2396 32.2337 29.8296 32.2337 27.0196V10.3096C32.2337 7.4896 30.8137 6.0696 27.9437 6.0696H26.4437L7.9137 0.0596C7.3437 -0.1404 6.7137 0.1896 6.5337 0.7696C6.3437 1.3396 6.6737 1.9696 7.2437 2.1596L19.3037 6.0696H4.2937C1.4337 6.0696 0.0037 7.4896 0.0037 10.3096V27.0196C0.0037 29.8296 1.4337 31.2396 4.2937 31.2396ZM12.8137 12.7296C12.2337 12.7296 11.7737 12.2496 11.7737 11.6596C11.7737 11.0896 12.2337 10.6196 12.8137 10.6196C13.3737 10.6196 13.8237 11.0896 13.8237 11.6596C13.8237 12.2496 13.3737 12.7296 12.8137 12.7296ZM25.3937 15.4796C24.1737 15.4896 23.1737 14.4896 23.1737 13.2896C23.1737 12.0896 24.1737 11.0596 25.3937 11.0696C26.6037 11.0896 27.5937 12.0896 27.5937 13.2896C27.5937 14.4896 26.6037 15.4496 25.3937 15.4796ZM16.2837 13.7096C15.7237 13.7096 15.2837 13.2296 15.2837 12.6696C15.2837 12.0896 15.7237 11.6196 16.2837 11.6196C16.8837 11.6196 17.3237 12.0896 17.3237 12.6696C17.3237 13.2296 16.8837 13.7096 16.2837 13.7096ZM9.3137 13.7096C8.7237 13.7096 8.2837 13.2296 8.2837 12.6696C8.2837 12.0896 8.7237 11.6196 9.3137 11.6196C9.8737 11.6196 10.3037 12.0896 10.3037 12.6696C10.3037 13.2296 9.8737 13.7096 9.3137 13.7096ZM18.9237 16.2296C18.3637 16.2296 17.9137 15.7796 17.9137 15.2196C17.9137 14.6196 18.3637 14.1396 18.9237 14.1396C19.4837 14.1396 19.9637 14.6196 19.9637 15.2196C19.9637 15.7796 19.4837 16.2296 18.9237 16.2296ZM6.6837 16.2296C6.1137 16.2296 5.6337 15.7796 5.6337 15.2196C5.6337 14.6196 6.1137 14.1396 6.6837 14.1396C7.2437 14.1396 7.6837 14.6196 7.6837 15.2196C7.6837 15.7796 7.2437 16.2296 6.6837 16.2296ZM12.8137 16.3096C12.2337 16.3096 11.7737 15.8496 11.7737 15.2896C11.7737 14.6996 12.2337 14.2196 12.8137 14.2196C13.3737 14.2196 13.8237 14.6996 13.8237 15.2896C13.8237 15.8496 13.3737 16.3096 12.8137 16.3096ZM16.0737 17.7196C15.5137 17.7196 15.0437 17.2396 15.0437 16.6896C15.0437 16.1196 15.5137 15.6496 16.0737 15.6496C16.6537 15.6496 17.0937 16.1196 17.0937 16.6896C17.0937 17.2396 16.6537 17.7196 16.0737 17.7196ZM9.5137 17.7196C8.9537 17.7196 8.5037 17.2396 8.5037 16.6896C8.5037 16.1196 8.9537 15.6496 9.5137 15.6496C10.0937 15.6496 10.5637 16.1196 10.5637 16.6896C10.5637 17.2396 10.0937 17.7196 9.5137 17.7196ZM25.3937 21.8996C24.1737 21.8996 23.1737 20.8996 23.1737 19.6896C23.1737 18.4696 24.1737 17.4896 25.3937 17.4896C26.6037 17.4896 27.5937 18.4696 27.5937 19.6896C27.5937 20.8996 26.6037 21.8996 25.3937 21.8996ZM19.8137 19.6096C19.2337 19.6096 18.7837 19.1396 18.7837 18.5796C18.7837 18.0096 19.2337 17.5596 19.8137 17.5596C20.3737 17.5596 20.8237 18.0096 20.8237 18.5796C20.8237 19.1396 20.3737 19.6096 19.8137 19.6096ZM5.7937 19.6096C5.2337 19.6096 4.7737 19.1396 4.7737 18.5796C4.7737 18.0096 5.2337 17.5596 5.7937 17.5596C6.3537 17.5596 6.8237 18.0096 6.8237 18.5796C6.8237 19.1396 6.3537 19.6096 5.7937 19.6096ZM12.8137 19.6696C12.2337 19.6696 11.7737 19.2096 11.7737 18.6496C11.7737 18.0896 12.2337 17.6196 12.8137 17.6196C13.3737 17.6196 13.8237 18.0896 13.8237 18.6496C13.8237 19.2096 13.3737 19.6696 12.8137 19.6696ZM16.0737 21.6396C15.5137 21.6396 15.0437 21.1896 15.0437 20.6196C15.0437 20.0296 15.5137 19.5596 16.0737 19.5596C16.6537 19.5596 17.0937 20.0296 17.0937 20.6196C17.0937 21.1896 16.6537 21.6396 16.0737 21.6396ZM9.5137 21.6396C8.9537 21.6396 8.5037 21.1896 8.5037 20.6196C8.5037 20.0296 8.9537 19.5596 9.5137 19.5596C10.0937 19.5596 10.5637 20.0296 10.5637 20.6196C10.5637 21.1896 10.0937 21.6396 9.5137 21.6396ZM18.9237 23.0096C18.3637 23.0096 17.9137 22.5296 17.9137 21.9396C17.9137 21.3696 18.3637 20.9196 18.9237 20.9196C19.4837 20.9196 19.9637 21.3696 19.9637 21.9396C19.9637 22.5296 19.4837 23.0096 18.9237 23.0096ZM6.6837 23.0096C6.1137 23.0096 5.6337 22.5296 5.6337 21.9396C5.6337 21.3696 6.1137 20.9196 6.6837 20.9196C7.2437 20.9196 7.6837 21.3696 7.6837 21.9396C7.6837 22.5296 7.2437 23.0096 6.6837 23.0096ZM12.8137 23.0796C12.2337 23.0796 11.7737 22.5896 11.7737 22.0096C11.7737 21.4496 12.2337 20.9896 12.8137 20.9896C13.3737 20.9896 13.8237 21.4496 13.8237 22.0096C13.8237 22.5896 13.3737 23.0796 12.8137 23.0796ZM16.2837 25.6096C15.7237 25.6096 15.2837 25.1296 15.2837 24.5596C15.2837 23.9896 15.7237 23.5196 16.2837 23.5196C16.8837 23.5196 17.3237 23.9896 17.3237 24.5596C17.3237 25.1296 16.8837 25.6096 16.2837 25.6096ZM9.3137 25.6096C8.7237 25.6096 8.2837 25.1296 8.2837 24.5596C8.2837 23.9896 8.7237 23.5196 9.3137 23.5196C9.8737 23.5196 10.3037 23.9896 10.3037 24.5596C10.3037 25.1296 9.8737 25.6096 9.3137 25.6096ZM12.8137 26.6696C12.2337 26.6696 11.7737 26.2096 11.7737 25.6396C11.7737 25.0496 12.2337 24.5696 12.8137 24.5696C13.3737 24.5696 13.8237 25.0496 13.8237 25.6396C13.8237 26.2096 13.3737 26.6696 12.8137 26.6696Z"
        fillRule="evenodd"
        clipRule="evenodd"
    />
</svg>
        