<svg viewBox="0 0 39.962890625 20.890625" xmlns="http://www.w3.org/2000/svg"><path d="M19.9727 -0.0036C8.9127 -0.0036 0.0027 8.9264 0.0027 19.9864C0.0027 20.4964 0.3927 20.8864 0.8927 20.8864C1.3927 20.8864 1.7927 20.4964 1.7927 19.9864C1.7927 9.9564 9.9227 1.7864 19.9727 1.7864C30.0227 1.7864 38.1727 9.9564 38.1727 19.9864C38.1727 20.4964 38.5727 20.8864 39.0727 20.8864C39.5627 20.8864 39.9627 20.4964 39.9627 19.9864C39.9627 8.9264 31.0327 -0.0036 19.9727 -0.0036ZM19.9727 2.9964C10.5727 2.9964 2.9927 10.5864 2.9927 19.9864C2.9927 20.4964 3.3727 20.8864 3.8727 20.8864C4.3727 20.8864 4.7827 20.4964 4.7827 19.9864C4.7827 11.6064 11.5827 4.7864 19.9727 4.7864C28.3727 4.7864 35.1927 11.6064 35.1927 19.9864C35.1927 20.4964 35.5727 20.8864 36.0827 20.8864C36.5727 20.8864 36.9827 20.4964 36.9827 19.9864C36.9827 10.5864 29.3927 2.9964 19.9727 2.9964ZM19.9727 5.9764C12.2227 5.9764 5.9927 12.2364 5.9927 19.9864C5.9927 20.4964 6.3727 20.8864 6.8627 20.8864C7.3727 20.8864 7.7827 20.4964 7.7827 19.9864C7.7827 13.2664 13.2327 7.7664 19.9727 7.7664C26.7327 7.7664 32.1927 13.2664 32.1927 19.9864C32.1927 20.4964 32.5827 20.8864 33.0827 20.8864C33.5827 20.8864 33.9927 20.4964 33.9927 19.9864C33.9927 12.2364 27.7227 5.9764 19.9727 5.9764ZM19.9727 8.9664C13.8627 8.9664 8.9727 13.8764 8.9727 19.9864C8.9727 20.4964 9.3627 20.8864 9.8527 20.8864C10.3627 20.8864 10.7627 20.4964 10.7627 19.9864C10.7627 14.9064 14.8927 10.7564 19.9727 10.7564C25.0627 10.7564 29.2027 14.9064 29.2027 19.9864C29.2027 20.4964 29.5827 20.8864 30.1027 20.8864C30.5927 20.8864 30.9927 20.4964 30.9927 19.9864C30.9927 13.8764 26.0827 8.9664 19.9727 8.9664ZM19.9727 11.9664C15.5327 11.9664 11.9627 15.5464 11.9627 19.9864C11.9627 20.4964 12.3427 20.8864 12.8527 20.8864C13.3527 20.8864 13.7527 20.4964 13.7527 19.9864C13.7527 16.5564 16.5327 13.7564 19.9727 13.7564C23.4227 13.7564 26.2127 16.5564 26.2127 19.9864C26.2127 20.4964 26.6027 20.8864 27.1127 20.8864C27.6027 20.8864 28.0027 20.4964 28.0027 19.9864C28.0027 15.5464 24.4327 11.9664 19.9727 11.9664Z" /></svg>