
<svg
    viewBox="0 0 29.681640625 29.681640625"
    xmlns="http://www.w3.org/2000/svg"
>
    <path
        fill="inherit"
        d="M14.8327 6.6187C15.4927 6.6187 16.0327 6.0688 16.0327 5.4187V1.1988C16.0327 0.5487 15.4927 -0.0012 14.8327 -0.0012C14.1927 -0.0012 13.6427 0.5487 13.6427 1.1988V5.4187C13.6427 6.0688 14.1927 6.6187 14.8327 6.6187ZM20.6627 9.0188C21.1127 9.4888 21.9027 9.4888 22.3527 9.0188L25.3327 6.0388C25.7827 5.5787 25.7827 4.8088 25.3327 4.3588C24.8727 3.8988 24.1027 3.8988 23.6527 4.3588L20.6627 7.3288C20.2027 7.7888 20.2027 8.5688 20.6627 9.0188ZM9.0227 9.0188C9.4727 8.5688 9.4727 7.7888 9.0227 7.3288L6.0327 4.3588C5.5827 3.8988 4.8127 3.8988 4.3427 4.3588C3.8927 4.8088 3.8927 5.5787 4.3427 6.0388L7.3327 9.0188C7.7827 9.4888 8.5727 9.4888 9.0227 9.0188ZM23.0827 14.8488C23.0827 15.4888 23.6227 16.0388 24.2627 16.0388H28.4827C29.1327 16.0388 29.6827 15.4888 29.6827 14.8488C29.6827 14.2088 29.1327 13.6588 28.4827 13.6588H24.2627C23.6227 13.6588 23.0827 14.2088 23.0827 14.8488ZM6.6027 14.8488C6.6027 14.2088 6.0527 13.6588 5.4127 13.6588H1.1927C0.5427 13.6588 0.0027 14.2088 0.0027 14.8488C0.0027 15.4888 0.5427 16.0388 1.1927 16.0388H5.4127C6.0527 16.0388 6.6027 15.4888 6.6027 14.8488ZM20.6627 20.6588C20.2027 21.1188 20.2027 21.8988 20.6627 22.3488L23.6527 25.3388C24.1027 25.7888 24.8727 25.7888 25.3327 25.3388C25.7827 24.8788 25.7827 24.0988 25.3327 23.6488L22.3527 20.6588C21.9027 20.2088 21.1127 20.2088 20.6627 20.6588ZM9.0227 20.6588C8.5727 20.2088 7.7827 20.2088 7.3327 20.6588L4.3427 23.6488C3.8927 24.0988 3.8927 24.8788 4.3427 25.3388C4.8127 25.7888 5.5827 25.7888 6.0327 25.3388L9.0227 22.3488C9.4727 21.8988 9.4727 21.1188 9.0227 20.6588ZM14.8327 23.0788C14.1927 23.0788 13.6427 23.6288 13.6427 24.2688V28.4888C13.6427 29.1388 14.1927 29.6788 14.8327 29.6788C15.4927 29.6788 16.0327 29.1388 16.0327 28.4888V24.2688C16.0327 23.6288 15.4927 23.0788 14.8327 23.0788Z"
        fillRule="evenodd"
        clipRule="evenodd"
    />
</svg>
        