
<svg
    viewBox="0 0 27.890625 27.890625"
    xmlns="http://www.w3.org/2000/svg"
>
    <path
        fill="inherit"
        d="M13.9427 27.8864C21.6427 27.8864 27.8927 21.6264 27.8927 13.9464C27.8927 6.2464 21.6427 -0.0036 13.9427 -0.0036C6.2627 -0.0036 0.0027 6.2464 0.0027 13.9464C0.0027 21.6264 6.2627 27.8864 13.9427 27.8864ZM16.0127 19.3764C15.3927 19.3764 15.0427 18.9764 15.0427 18.3564V9.5664C15.0427 8.9864 15.3827 8.5264 16.0127 8.5264H18.7827C20.3527 8.5264 21.5027 9.5164 21.5027 11.2364C21.5027 12.3064 20.8127 13.4364 19.7827 13.6164V13.6864C21.0527 13.8064 21.8427 15.0164 21.8427 16.3064C21.8427 18.1164 20.7527 19.3764 18.8527 19.3764ZM7.6127 19.5464C6.9727 19.5464 6.6127 19.1364 6.6127 18.5164V9.5664C6.6127 8.9264 6.9727 8.5464 7.6027 8.5464H9.8727C11.9627 8.5464 13.2627 9.7064 13.2627 11.8964C13.2627 13.1064 12.7927 14.2764 11.7027 14.8364L12.9927 17.8564C13.1127 18.1664 13.2027 18.4464 13.2027 18.5964C13.2027 19.2764 12.7127 19.5464 12.2727 19.5464C11.7427 19.5464 11.4427 19.2464 11.2427 18.7464L9.8427 15.2264H8.5827V18.5164C8.5827 19.1564 8.2127 19.5464 7.6127 19.5464ZM16.9627 13.1364H18.0627C19.0427 13.1364 19.6327 12.5264 19.6327 11.5364C19.6327 10.6764 19.2327 10.0364 18.2227 10.0364H16.9627ZM8.5827 13.7764H9.6927C10.7727 13.7764 11.2627 13.0064 11.2627 11.9364C11.2627 10.8664 10.7027 10.1064 9.6927 10.1064H8.5827ZM16.9627 17.8864H18.2627C19.3427 17.8864 19.8627 17.2364 19.8627 16.1564C19.8627 14.9864 19.1927 14.4464 18.2227 14.4464H16.9627Z"
        fillRule="evenodd"
        clipRule="evenodd"
    />
</svg>
        