
<svg
    viewBox="0 0 27.890625 27.890625"
    xmlns="http://www.w3.org/2000/svg"
>
    <path
        fill="inherit"
        d="M13.9427 27.8864C21.6427 27.8864 27.8927 21.6464 27.8927 13.9464C27.8927 6.2464 21.6427 -0.0036 13.9427 -0.0036C6.2527 -0.0036 0.0027 6.2464 0.0027 13.9464C0.0027 21.6464 6.2527 27.8864 13.9427 27.8864ZM13.9427 25.5664C7.5227 25.5664 2.3227 20.3664 2.3227 13.9464C2.3227 7.5164 7.5227 2.3264 13.9427 2.3264C20.3727 2.3264 25.5627 7.5164 25.5627 13.9464C25.5627 20.3664 20.3727 25.5664 13.9427 25.5664ZM5.1927 13.9464C5.1927 16.1464 6.9727 17.9364 9.1727 17.9364H18.7027C20.9027 17.9364 22.6827 16.1464 22.6827 13.9464C22.6827 11.7464 20.9027 9.9564 18.7027 9.9564C16.5027 9.9564 14.7127 11.7464 14.7127 13.9464C14.7127 14.8564 15.0227 15.7364 15.6127 16.4164H12.2627C12.8527 15.7364 13.1627 14.8564 13.1627 13.9464C13.1627 11.7464 11.3927 9.9564 9.1727 9.9564C6.9727 9.9564 5.1927 11.7464 5.1927 13.9464ZM6.7127 13.9364C6.7127 12.5764 7.8327 11.4664 9.1827 11.4664C10.5427 11.4664 11.6527 12.5764 11.6527 13.9364C11.6527 15.3164 10.5527 16.4164 9.1827 16.4164C7.8227 16.4164 6.7127 15.2964 6.7127 13.9364ZM16.2327 13.9364C16.2327 12.5764 17.3327 11.4664 18.6927 11.4664C20.0427 11.4664 21.1627 12.5764 21.1627 13.9364C21.1627 15.2964 20.0527 16.4164 18.6927 16.4164C17.3227 16.4164 16.2327 15.3164 16.2327 13.9364Z"
        fillRule="evenodd"
        clipRule="evenodd"
    />
</svg>
        