<svg viewBox="0 0 40.646484375 17.828125" xmlns="http://www.w3.org/2000/svg"><path d="M0.0027 8.9152C0.0027 13.8352 3.9927 17.8252 8.9127 17.8252H31.7327C36.6727 17.8252 40.6427 13.8352 40.6427 8.9152C40.6427 3.9752 36.6727 -0.0048 31.7327 -0.0048C26.8127 -0.0048 22.8227 3.9952 22.8227 8.9152C22.8227 11.5552 23.9927 13.9152 25.8927 15.4952H14.7527C16.6527 13.9152 17.8327 11.5552 17.8327 8.9152C17.8327 3.9752 13.8327 -0.0048 8.9127 -0.0048C3.9827 -0.0048 0.0027 3.9952 0.0027 8.9152ZM2.3427 8.9052C2.3427 5.2752 5.2927 2.3252 8.9327 2.3252C12.5527 2.3252 15.4927 5.2752 15.4927 8.9052C15.4927 12.5352 12.5527 15.4952 8.9327 15.4952C5.2927 15.4952 2.3427 12.5352 2.3427 8.9052ZM25.1527 8.9052C25.1527 5.2752 28.0927 2.3252 31.7227 2.3252C35.3527 2.3252 38.3127 5.2752 38.3127 8.9052C38.3127 12.5352 35.3527 15.4952 31.7227 15.4952C28.0927 15.4952 25.1527 12.5352 25.1527 8.9052Z" /></svg>