
<svg
    viewBox="0 0 27.890625 27.890625"
    xmlns="http://www.w3.org/2000/svg"
>
    <path
        fill="inherit"
        d="M13.9427 27.8864C21.6427 27.8864 27.8927 21.6464 27.8927 13.9464C27.8927 6.2464 21.6427 -0.0036 13.9427 -0.0036C6.2527 -0.0036 0.0027 6.2464 0.0027 13.9464C0.0027 21.6464 6.2527 27.8864 13.9427 27.8864ZM13.9427 25.5664C7.5227 25.5664 2.3227 20.3664 2.3227 13.9464C2.3227 7.5164 7.5227 2.3264 13.9427 2.3264C20.3727 2.3264 25.5627 7.5164 25.5627 13.9464C25.5627 20.3664 20.3727 25.5664 13.9427 25.5664ZM13.9327 19.2764C16.8827 19.2764 19.2927 16.8664 19.2927 13.9164C19.2927 10.9664 16.8827 8.5764 13.9327 8.5764C10.9827 8.5764 8.5827 10.9664 8.5827 13.9164C8.5827 16.8664 10.9827 19.2764 13.9327 19.2764Z"
        fillRule="evenodd"
        clipRule="evenodd"
    />
</svg>
        