
<svg
    viewBox={0 0 29.544921875 25.169921875}
    xmlns="http://www.w3.org/2000/svg"
>
    <path
        fill="inherit"
        d="M3.1437 11.4555H26.4037C28.4937 11.4555 29.5437 10.4355 29.5437 8.3255V3.1055C29.5437 1.0155 28.4937 -0.0045 26.4037 -0.0045H3.1437C1.0537 -0.0045 0.0037 1.0155 0.0037 3.1055V8.3255C0.0037 10.4355 1.0537 11.4555 3.1437 11.4555ZM3.3037 9.3955C2.5037 9.3955 2.0637 8.9655 2.0637 8.1255V3.3355C2.0637 2.4755 2.5037 2.0655 3.3037 2.0655H26.2237C27.0437 2.0655 27.4837 2.4755 27.4837 3.3355V8.1255C27.4837 8.9655 27.0437 9.3955 26.2237 9.3955ZM3.1437 25.1655H26.4037C28.4937 25.1655 29.5437 24.1555 29.5437 22.0555V16.8155C29.5437 14.7355 28.4937 13.7155 26.4037 13.7155H3.1437C1.0537 13.7155 0.0037 14.7355 0.0037 16.8155V22.0555C0.0037 24.1555 1.0537 25.1655 3.1437 25.1655ZM3.3037 23.1055C2.5037 23.1055 2.0637 22.6855 2.0637 21.8355V17.0455C2.0637 16.1855 2.5037 15.7755 3.3037 15.7755H26.2237C27.0437 15.7755 27.4837 16.1855 27.4837 17.0455V21.8355C27.4837 22.6855 27.0437 23.1055 26.2237 23.1055Z"
        fillRule="evenodd"
        clipRule="evenodd"
    />
</svg>
        