
<svg
    viewBox="0 0 34.248046875 26.564453125"
    xmlns="http://www.w3.org/2000/svg"
>
    <path
        fill="inherit"
        d="M12.4837 26.5665H21.7637C24.5837 26.5665 26.0037 25.1465 26.0037 22.2665V4.2965C26.0037 1.4265 24.5837 -0.0035 21.7637 -0.0035H12.4837C9.6537 -0.0035 8.2437 1.4265 8.2437 4.2965V22.2665C8.2437 25.1465 9.6637 26.5665 12.4837 26.5665ZM12.5937 24.3665C11.1737 24.3665 10.4437 23.5865 10.4437 22.2465V4.3165C10.4437 2.9565 11.1737 2.1965 12.5937 2.1965H21.6437C23.0637 2.1965 23.8037 2.9565 23.8037 4.3165V22.2465C23.8037 23.5865 23.0637 24.3665 21.6437 24.3665ZM34.2437 16.3265V10.2365C34.2437 9.5165 33.6437 9.1765 33.0037 9.5665L28.1537 12.5465C27.5337 12.9165 27.5237 13.6465 28.1537 14.0265L33.0037 16.9765C33.6437 17.3765 34.2437 17.0665 34.2437 16.3265ZM0.0037 16.3265C0.0037 17.0665 0.5837 17.3665 1.2437 16.9765L6.0937 14.0265C6.7037 13.6265 6.7037 12.9365 6.0937 12.5465L1.2337 9.5665C0.5737 9.1865 0.0037 9.5165 0.0037 10.2365Z"
        fillRule="evenodd"
        clipRule="evenodd"
    />
</svg>
        