
<svg
    viewBox="0 0 27.890625 27.890625"
    xmlns="http://www.w3.org/2000/svg"
>
    <path
        fill="inherit"
        d="M13.9427 27.8864C21.6427 27.8864 27.8927 21.6464 27.8927 13.9464C27.8927 6.2464 21.6427 -0.0036 13.9427 -0.0036C6.2527 -0.0036 0.0027 6.2464 0.0027 13.9464C0.0027 21.6464 6.2527 27.8864 13.9427 27.8864ZM13.9427 25.5664C7.5227 25.5664 2.3227 20.3664 2.3227 13.9464C2.3227 7.5164 7.5227 2.3264 13.9427 2.3264C20.3727 2.3264 25.5627 7.5164 25.5627 13.9464C25.5627 20.3664 20.3727 25.5664 13.9427 25.5664ZM8.1627 11.9764C8.1627 10.2664 9.0527 9.3764 10.7727 9.3764H18.8627V9.2264C18.8627 7.9864 18.2527 7.3664 16.9927 7.3664H7.8427C6.6027 7.3664 5.9727 7.9864 5.9727 9.2264V15.5764C5.9727 16.8064 6.6027 17.4364 7.8427 17.4364H8.1627ZM10.8527 20.3164H19.9927C21.2427 20.3164 21.8627 19.6964 21.8627 18.4564V12.0564C21.8627 10.8464 21.2427 10.1964 19.9927 10.1964H10.8527C9.5927 10.1964 8.9727 10.8464 8.9727 12.0564V18.4564C8.9727 19.6964 9.5927 20.3164 10.8527 20.3164Z"
        fillRule="evenodd"
        clipRule="evenodd"
    />
</svg>
        