<svg viewBox="0 0 27.69921875 34.015625" xmlns="http://www.w3.org/2000/svg"><path d="M4.4537 11.0489C4.4537 7.1489 6.7037 4.8989 10.5637 4.8989H21.3737V4.2889C21.3737 1.4389 19.9637 -0.0011 17.1337 -0.0011H4.2337C1.4037 -0.0011 0.0037 1.4389 0.0037 4.2889V22.9689C0.0037 25.8289 1.4237 27.2589 4.2337 27.2589H4.4537ZM27.7037 11.0489C27.7037 8.1889 26.2937 6.7489 23.4637 6.7489H10.5637C7.7337 6.7489 6.3337 8.1889 6.3337 11.0489V29.7189C6.3337 32.5789 7.7537 34.0189 10.5637 34.0189H23.4637C26.2737 34.0189 27.7037 32.5789 27.7037 29.7189Z" /></svg>