<svg viewBox="0 0 32.23828125 25.18359375" xmlns="http://www.w3.org/2000/svg"><path d="M27.9437 -0.0008C30.8137 -0.0008 32.2337 1.4192 32.2337 4.2392V6.9292H22.9537V0.0092H20.7537V6.9292H11.4937V0.0092H9.2937V6.9292H0.0037V4.2392C0.0037 1.4192 1.4337 -0.0008 4.2937 -0.0008ZM11.4937 16.0692V9.1292H20.7537V16.0692ZM20.7537 18.2692V25.1692H22.9537V25.1792H20.7537V25.1692H11.4937V18.2692ZM22.9537 9.1292H32.2337V16.0692H22.9537ZM9.2937 16.0692H0.0037V9.1292H9.2937ZM27.9437 25.1692H22.9537V18.2692H32.2337V20.9492C32.2337 23.7592 30.8137 25.1692 27.9437 25.1692ZM0.0037 18.2692H9.2937V25.1692H11.4937V25.1792H9.2937V25.1692H4.2937C1.4337 25.1692 0.0037 23.7592 0.0037 20.9492Z" /></svg>