
<svg
    viewBox="0 0 30.1328125 28.369140625"
    xmlns="http://www.w3.org/2000/svg"
>
    <path
        fill="inherit"
        d="M8.1237 28.3728C8.6537 28.3728 9.0537 28.0928 9.6937 27.4928L14.6337 22.9828H23.8737C27.9437 22.9828 30.1337 20.7428 30.1337 16.7328V6.2628C30.1337 2.2528 27.9437 0.0028 23.8737 0.0028H6.2637C2.1837 0.0028 0.0037 2.2428 0.0037 6.2628V16.7328C0.0037 20.7528 2.1837 22.9828 6.2637 22.9828H6.9037V26.9628C6.9037 27.8128 7.3437 28.3728 8.1237 28.3728ZM6.9737 11.1528C5.9337 11.1528 5.4137 10.6628 5.4137 9.6428V6.8328C5.4137 5.8228 5.9337 5.3328 6.9737 5.3328H13.1537C14.1637 5.3328 14.6837 5.8228 14.6837 6.8328V9.6428C14.6837 10.6628 14.1637 11.1528 13.1537 11.1528ZM18.6237 16.8028C17.5937 16.8028 17.0737 16.3128 17.0737 15.2828V7.8028C17.0737 6.7928 17.5937 6.2928 18.6237 6.2928H23.0137C24.0337 6.2928 24.5437 6.7928 24.5437 7.8028V15.2828C24.5437 16.3128 24.0337 16.8028 23.0137 16.8028ZM8.6637 17.6528C7.6537 17.6528 7.1537 17.1428 7.1537 16.1228V14.2228C7.1537 13.2028 7.6537 12.7028 8.6637 12.7028H13.9837C14.9937 12.7028 15.5037 13.2028 15.5037 14.2228V16.1228C15.5037 17.1428 14.9937 17.6528 13.9837 17.6528Z"
        fillRule="evenodd"
        clipRule="evenodd"
    />
</svg>
        