
<svg
    viewBox="0 0 32.23828125 29.596233424810748"
    xmlns="http://www.w3.org/2000/svg"
>
    <path
        fill="inherit"
        d="M29.1737 29.2787C29.6037 29.6887 30.2737 29.7087 30.6637 29.2787C31.0737 28.8687 31.0937 28.1987 30.6637 27.7887L3.1737 0.3087C2.7637 -0.1013 2.0937 -0.1113 1.6637 0.3087C1.2737 0.7087 1.2737 1.3887 1.6637 1.7987ZM27.9437 2.1987H7.3237L9.5337 4.3987H15.0237V9.8987L17.2237 12.0987V4.3987H27.9137C29.2737 4.3987 30.0337 5.1387 30.0337 6.5587V23.0187C30.0337 23.6387 29.8437 24.0887 29.4937 24.3587L31.2437 26.0987C31.8937 25.4387 32.2337 24.4387 32.2337 23.1487V6.4387C32.2337 3.6187 30.8137 2.1987 27.9437 2.1987ZM4.2937 27.3687H25.0237L22.8137 25.1687H17.2237V19.6087L15.0237 17.3987V25.1687H4.3237C2.9537 25.1687 2.2037 24.4387 2.2037 23.0187V6.5587C2.2037 5.9087 2.4037 5.4387 2.7737 5.1687L1.0537 3.4387C0.3537 4.0987 0.0037 5.0987 0.0037 6.4387V23.1487C0.0037 25.9587 1.4337 27.3687 4.2937 27.3687Z"
        fillRule="evenodd"
        clipRule="evenodd"
    />
</svg>
        