<svg viewBox="0 0 27.890625 27.890625" xmlns="http://www.w3.org/2000/svg"><path d="M13.9427 27.8864C21.6427 27.8864 27.8927 21.6464 27.8927 13.9464C27.8927 6.2464 21.6427 -0.0036 13.9427 -0.0036C6.2527 -0.0036 0.0027 6.2464 0.0027 13.9464C0.0027 21.6464 6.2527 27.8864 13.9427 27.8864ZM13.9427 25.5664C7.5227 25.5664 2.3227 20.3664 2.3227 13.9464C2.3227 7.5164 7.5227 2.3264 13.9427 2.3264C20.3727 2.3264 25.5627 7.5164 25.5627 13.9464C25.5627 20.3664 20.3727 25.5664 13.9427 25.5664ZM20.6727 20.8764C20.9227 21.1264 21.3027 21.1264 21.5427 20.8764C21.7927 20.6264 21.7927 20.2464 21.5427 20.0064L8.1627 6.6164C7.9127 6.3664 7.5227 6.3664 7.2827 6.6164C7.0227 6.8464 7.0427 7.2464 7.2827 7.4964ZM12.4327 9.3964H18.9127V9.2464C18.9127 7.9964 18.2927 7.3864 17.0327 7.3864H10.4227ZM6.0127 15.5864C6.0127 16.8164 6.6427 17.4364 7.8927 17.4364H8.2027V11.9764C8.2027 11.2964 8.3527 10.7464 8.6427 10.3364L6.3427 8.0564C6.1227 8.3364 6.0127 8.7364 6.0127 9.2464ZM21.7827 18.7464C21.8627 18.5264 21.9127 18.2364 21.9127 17.9364V12.0564C21.9127 10.8464 21.2827 10.2164 20.0327 10.2164H13.2527ZM10.8927 20.3264H18.6327L9.2827 10.9764C9.1027 11.2564 9.0127 11.6164 9.0127 12.0564V18.4564C9.0127 19.7164 9.6427 20.3264 10.8927 20.3264Z" /></svg>