
<svg
    viewBox={0 0 25.8671875 34.63430551212146}
    xmlns="http://www.w3.org/2000/svg"
>
    <path
        fill="inherit"
        d="M9.8837 6.5514H15.9837C16.7037 6.5514 17.0537 5.9614 16.6537 5.3214L13.6737 0.4714C13.3037 -0.1486 12.5637 -0.1586 12.1937 0.4714L9.2237 5.3014C8.8337 5.9514 9.1437 6.5514 9.8837 6.5514ZM4.2937 26.2614H21.5737C24.4437 26.2614 25.8637 24.8414 25.8637 22.0314V12.6114C25.8637 9.7914 24.4437 8.3714 21.5737 8.3714H4.2937C1.4237 8.3714 0.0037 9.7814 0.0037 12.6114V22.0314C0.0037 24.8614 1.4237 26.2614 4.2937 26.2614ZM4.3237 24.0614C2.9537 24.0614 2.2037 23.3214 2.2037 21.9214V12.7214C2.2037 11.2914 2.9537 10.5714 4.3237 10.5714H21.5437C22.9037 10.5714 23.6637 11.2914 23.6637 12.7214V21.9214C23.6637 23.3214 22.9037 24.0614 21.5437 24.0614ZM9.8837 28.0814C9.1437 28.0814 8.8337 28.6714 9.2237 29.3114L12.1937 34.1714C12.5637 34.8014 13.3037 34.7814 13.6737 34.1714L16.6537 29.3114C17.0537 28.6714 16.7037 28.0814 15.9837 28.0814Z"
        fillRule="evenodd"
        clipRule="evenodd"
    />
</svg>
        