
<svg
    viewBox="0 0 29.544921875 33.8515625"
    xmlns="http://www.w3.org/2000/svg"
>
    <path
        fill="inherit"
        d="M14.7837 10.8736C15.0537 10.8736 15.2837 10.7636 15.5737 10.5036L20.1137 6.2636C20.3437 6.0536 20.4837 5.8136 20.4837 5.4936C20.4837 4.9336 20.0437 4.5236 19.4737 4.5236C19.1937 4.5236 18.9337 4.6436 18.7337 4.8536L16.9537 6.6336L15.7737 7.8636L15.8637 5.5636V1.0536C15.8637 0.4736 15.3637 0.0036 14.7837 0.0036C14.1937 0.0036 13.6837 0.4736 13.6837 1.0536V5.5636L13.7837 7.8636L12.6037 6.6336L10.8137 4.8536C10.6137 4.6436 10.3337 4.5236 10.0637 4.5236C9.4837 4.5236 9.0637 4.9336 9.0637 5.4936C9.0637 5.8136 9.2037 6.0536 9.4337 6.2636L13.9737 10.5036C14.2737 10.7636 14.4937 10.8736 14.7837 10.8736ZM3.8737 21.2736H25.6737C27.9637 21.2736 29.5437 19.7236 29.5437 17.6236V16.2236C29.5437 14.1236 27.9637 12.5736 25.6737 12.5736H3.8737C1.5837 12.5736 0.0037 14.1236 0.0037 16.2236V17.6236C0.0037 19.7236 1.5837 21.2736 3.8737 21.2736ZM4.1537 19.2136C2.9237 19.2136 2.1737 18.3936 2.1737 17.2836V16.5736C2.1737 15.4636 2.9237 14.6436 4.1537 14.6436H25.3937C26.6237 14.6436 27.3737 15.4636 27.3737 16.5736V17.2836C27.3737 18.3936 26.6237 19.2136 25.3937 19.2136ZM14.7837 33.8536C15.3637 33.8536 15.8637 33.3736 15.8637 32.8036V28.2836L15.7737 25.9936L16.9537 27.2236L18.7337 28.9936C18.9337 29.2036 19.1937 29.3236 19.4737 29.3236C20.0437 29.3236 20.4837 28.9336 20.4837 28.3536C20.4837 28.0436 20.3437 27.8136 20.1137 27.5936L15.5737 23.3536C15.2837 23.0936 15.0537 22.9936 14.7837 22.9936C14.4937 22.9936 14.2737 23.0936 13.9737 23.3536L9.4337 27.5936C9.2037 27.8136 9.0637 28.0436 9.0637 28.3536C9.0637 28.9336 9.4837 29.3236 10.0637 29.3236C10.3337 29.3236 10.6137 29.2036 10.8137 28.9936L12.6037 27.2236L13.7837 25.9936L13.6837 28.2836V32.8036C13.6837 33.3736 14.1937 33.8536 14.7837 33.8536Z"
        fillRule="evenodd"
        clipRule="evenodd"
    />
</svg>
        