<svg viewBox="0 0 32.26904296875 34.015625" xmlns="http://www.w3.org/2000/svg"><path d="M5.4935 2.6089C5.7435 2.3489 6.1235 2.1989 6.6235 2.1989H19.3035C20.7235 2.1989 21.4435 2.9689 21.4435 4.3389V6.7489H12.8435C11.7835 6.7489 10.9335 6.9689 10.3035 7.4089L12.1135 9.2189C12.3035 9.0489 12.5835 8.9589 12.9535 8.9589H25.6335C27.0535 8.9589 27.7735 9.7189 27.7735 11.0889V24.8789L29.9835 27.0689V11.0489C29.9835 8.1889 28.5735 6.7489 25.7435 6.7489H23.6535V4.2889C23.6535 1.4389 22.2435 -0.0011 19.4135 -0.0011H6.5135C5.3135 -0.0011 4.3835 0.2889 3.7335 0.8489ZM30.4735 32.8689C30.8835 33.2789 31.5635 33.2789 31.9635 32.8689C32.3735 32.4389 32.3735 31.7889 31.9635 31.3789L1.8035 1.1889C1.3935 0.7889 0.7235 0.7789 0.2935 1.1889C-0.0965 1.5989 -0.0965 2.2789 0.2935 2.6789ZM2.2835 6.9689V22.8189C2.2835 25.6789 3.7035 27.1089 6.5135 27.1089H8.6135V29.7189C8.6135 32.5789 10.0335 34.0189 12.8435 34.0189H25.7435C26.9335 34.0189 27.8435 33.7389 28.4935 33.1989L26.7435 31.4189C26.4935 31.6689 26.1235 31.8189 25.6335 31.8189H12.9535C11.5335 31.8189 10.8135 31.0389 10.8135 29.6989V15.4989L8.6135 13.2989V24.9089H6.6235C5.2035 24.9089 4.4835 24.1289 4.4835 22.7889V9.1689Z" /></svg>