
<svg
    viewBox="0 0 38.5 24.85546875"
    xmlns="http://www.w3.org/2000/svg"
>
    <path
        fill="inherit"
        d="M3.1437 11.8962H15.7237C17.8137 11.8962 18.8637 10.8862 18.8637 8.7762V3.1062C18.8637 1.0162 17.8137 -0.0038 15.7237 -0.0038H3.1437C1.0537 -0.0038 0.0037 1.0162 0.0037 3.1062V8.7762C0.0037 10.8862 1.0537 11.8962 3.1437 11.8962ZM26.4237 23.2562H35.3537C37.4437 23.2562 38.5037 22.2462 38.5037 20.1362V4.9462C38.5037 2.8562 37.4437 1.8462 35.3537 1.8462H26.4237C24.3337 1.8462 23.2837 2.8562 23.2837 4.9462V20.1362C23.2837 22.2462 24.3337 23.2562 26.4237 23.2562ZM3.3037 9.8262C2.5037 9.8262 2.0637 9.4062 2.0637 8.5562V3.3362C2.0637 2.4762 2.5037 2.0662 3.3037 2.0662H15.5537C16.3637 2.0662 16.8037 2.4762 16.8037 3.3362V8.5562C16.8037 9.4062 16.3637 9.8262 15.5537 9.8262ZM26.5737 21.1962C25.7837 21.1962 25.3437 20.7662 25.3437 19.9162V5.1862C25.3437 4.3162 25.7837 3.9062 26.5737 3.9062H35.1737C35.9937 3.9062 36.4337 4.3162 36.4337 5.1862V19.9162C36.4337 20.7662 35.9937 21.1962 35.1737 21.1962ZM6.6337 24.8562H17.4137C19.5137 24.8562 20.5637 23.8262 20.5637 21.7362V17.8862C20.5637 15.7862 19.5137 14.7762 17.4137 14.7762H6.6337C4.5437 14.7762 3.4837 15.7862 3.4837 17.8862V21.7362C3.4837 23.8262 4.5437 24.8562 6.6337 24.8562ZM6.7937 22.7862C5.9837 22.7862 5.5537 22.3662 5.5537 21.5162V18.1062C5.5537 17.2562 5.9837 16.8462 6.7937 16.8462H17.2437C18.0637 16.8462 18.4937 17.2562 18.4937 18.1062V21.5162C18.4937 22.3662 18.0637 22.7862 17.2437 22.7862Z"
        fillRule="evenodd"
        clipRule="evenodd"
    />
</svg>
        