
<svg
    viewBox="0 0 34.26171875 26.263671875"
    xmlns="http://www.w3.org/2000/svg"
>
    <path
        fill="inherit"
        d="M2.3637 7.7534H7.8737C9.3637 7.7534 10.2437 6.8734 10.2437 5.3334V2.4234C10.2437 0.8734 9.3637 0.0034 7.8737 0.0034H2.3637C0.8737 0.0034 0.0037 0.8734 0.0037 2.4234V5.3334C0.0037 6.8734 0.8737 7.7534 2.3637 7.7534ZM14.3737 7.7534H19.8837C21.3737 7.7534 22.2337 6.8734 22.2337 5.3334V2.4234C22.2337 0.8734 21.3737 0.0034 19.8837 0.0034H14.3737C12.8637 0.0034 12.0037 0.8734 12.0037 2.4234V5.3334C12.0037 6.8734 12.8637 7.7534 14.3737 7.7534ZM26.3837 7.7534H31.8937C33.3837 7.7534 34.2637 6.8734 34.2637 5.3334V2.4234C34.2637 0.8734 33.3837 0.0034 31.8937 0.0034H26.3837C24.8937 0.0034 24.0237 0.8734 24.0237 2.4234V5.3334C24.0237 6.8734 24.8937 7.7534 26.3837 7.7534ZM2.3637 17.0034H7.8737C9.3637 17.0034 10.2437 16.1434 10.2437 14.6034V11.6734C10.2437 10.1334 9.3637 9.2534 7.8737 9.2534H2.3637C0.8737 9.2534 0.0037 10.1334 0.0037 11.6734V14.6034C0.0037 16.1434 0.8737 17.0034 2.3637 17.0034ZM14.3737 17.0034H19.8837C21.3737 17.0034 22.2337 16.1434 22.2337 14.6034V11.6734C22.2337 10.1334 21.3737 9.2534 19.8837 9.2534H14.3737C12.8637 9.2534 12.0037 10.1334 12.0037 11.6734V14.6034C12.0037 16.1434 12.8637 17.0034 14.3737 17.0034ZM26.3837 17.0034H31.8937C33.3837 17.0034 34.2637 16.1434 34.2637 14.6034V11.6734C34.2637 10.1334 33.3837 9.2534 31.8937 9.2534H26.3837C24.8937 9.2534 24.0237 10.1334 24.0237 11.6734V14.6034C24.0237 16.1434 24.8937 17.0034 26.3837 17.0034ZM2.3637 26.2634H7.8737C9.3637 26.2634 10.2437 25.3934 10.2437 23.8434V20.9334C10.2437 19.3834 9.3637 18.5134 7.8737 18.5134H2.3637C0.8737 18.5134 0.0037 19.3834 0.0037 20.9334V23.8434C0.0037 25.3934 0.8737 26.2634 2.3637 26.2634ZM14.3737 26.2634H19.8837C21.3737 26.2634 22.2337 25.3934 22.2337 23.8434V20.9334C22.2337 19.3834 21.3737 18.5134 19.8837 18.5134H14.3737C12.8637 18.5134 12.0037 19.3834 12.0037 20.9334V23.8434C12.0037 25.3934 12.8637 26.2634 14.3737 26.2634ZM26.3837 26.2634H31.8937C33.3837 26.2634 34.2637 25.3934 34.2637 23.8434V20.9334C34.2637 19.3834 33.3837 18.5134 31.8937 18.5134H26.3837C24.8937 18.5134 24.0237 19.3834 24.0237 20.9334V23.8434C24.0237 25.3934 24.8937 26.2634 26.3837 26.2634Z"
        fillRule="evenodd"
        clipRule="evenodd"
    />
</svg>
        