
<svg
    viewBox={0 0 34.015625 32.287863518133236}
    xmlns="http://www.w3.org/2000/svg"
>
    <path
        fill="inherit"
        d="M31.9637 31.982C32.3737 32.392 33.0537 32.392 33.4537 31.982C33.8637 31.552 33.8637 30.902 33.4537 30.492L3.2937 0.302C2.8837 -0.098 2.2137 -0.108 1.7937 0.302C1.3937 0.712 1.3937 1.392 1.7937 1.792ZM22.8137 2.272H7.5037L9.7037 4.472H22.7737C24.1337 4.472 24.9137 5.212 24.9137 6.632V8.602H13.8337L16.0237 10.802H29.6837C31.0337 10.802 31.8137 11.542 31.8137 12.962V25.622C31.8137 25.922 31.6737 26.132 31.4637 26.222L33.3437 28.112C33.7837 27.522 34.0137 26.742 34.0137 25.732V12.842C34.0137 10.022 32.5637 8.602 29.7237 8.602H27.1137V6.512C27.1137 3.692 25.6637 2.272 22.8137 2.272ZM11.0437 29.972H27.7137L25.5137 27.772H11.0737C9.7037 27.772 8.9537 27.042 8.9537 25.622V12.962C8.9537 12.392 9.1037 11.922 9.3837 11.632L7.6537 9.912C7.0537 10.582 6.7537 11.572 6.7537 12.842V21.442H4.3237C2.9537 21.442 2.2037 20.712 2.2037 19.292V6.632C2.2037 5.912 2.4237 5.372 2.8337 5.072L1.1337 3.392C0.3837 4.052 0.0037 5.092 0.0037 6.512V19.402C0.0037 22.232 1.4237 23.642 4.2937 23.642H6.7537V25.732C6.7537 28.562 8.1737 29.972 11.0437 29.972Z"
        fillRule="evenodd"
        clipRule="evenodd"
    />
</svg>
        