<svg viewBox="0 0 30.1328125 28.287109375" xmlns="http://www.w3.org/2000/svg"><path d="M8.4037 28.2828C9.0737 28.2828 9.5437 27.9328 10.3737 27.1928L15.0937 22.9928H23.8737C27.9437 22.9928 30.1337 20.7428 30.1337 16.7328V6.2628C30.1337 2.2528 27.9437 0.0028 23.8737 0.0028H6.2637C2.1837 0.0028 0.0037 2.2428 0.0037 6.2628V16.7328C0.0037 20.7528 2.1837 22.9928 6.2637 22.9928H6.9137V26.5528C6.9137 27.6028 7.4537 28.2828 8.4037 28.2828ZM8.9737 25.7828V21.8228C8.9737 21.0828 8.6837 20.7928 7.9437 20.7928H6.2637C3.5037 20.7928 2.2037 19.3828 2.2037 16.7228V6.2628C2.2037 3.5928 3.5037 2.2028 6.2637 2.2028H23.8737C26.6237 2.2028 27.9337 3.5928 27.9337 6.2628V16.7228C27.9337 19.3828 26.6237 20.7928 23.8737 20.7928H15.0137C14.2437 20.7928 13.8637 20.9028 13.3437 21.4328ZM7.2037 11.1528H13.2037C14.1937 11.1528 14.6837 10.6728 14.6837 9.6828V6.9628C14.6837 5.9728 14.1937 5.5128 13.2037 5.5128H7.2037C6.2037 5.5128 5.7037 5.9728 5.7037 6.9628V9.6828C5.7037 10.6728 6.2037 11.1528 7.2037 11.1528ZM18.5137 16.6228H22.7737C23.7637 16.6228 24.2537 16.1428 24.2537 15.1628V7.9028C24.2537 6.9228 23.7637 6.4428 22.7737 6.4428H18.5137C17.5137 6.4428 17.0237 6.9228 17.0237 7.9028V15.1628C17.0237 16.1428 17.5137 16.6228 18.5137 16.6228ZM8.8637 17.4428H14.0137C14.9937 17.4428 15.4937 16.9628 15.4937 15.9728V14.1228C15.4937 13.1428 14.9937 12.6628 14.0137 12.6628H8.8637C7.8737 12.6628 7.3837 13.1428 7.3837 14.1228V15.9728C7.3837 16.9628 7.8737 17.4428 8.8637 17.4428Z" /></svg>