
<svg
    viewBox="0 0 30.76171875 32.62109375"
    xmlns="http://www.w3.org/2000/svg"
>
    <path
        fill="inherit"
        d="M15.3837 10.8684C15.9737 10.8684 16.4637 10.3884 16.4637 9.8184V5.2884L16.3837 3.0084L17.5537 4.2284L19.3337 6.0184C19.5337 6.2184 19.8137 6.3484 20.0737 6.3484C20.6537 6.3484 21.0837 5.9384 21.0837 5.3684C21.0837 5.0584 20.9637 4.8084 20.7237 4.6084L16.1737 0.3684C15.8837 0.1084 15.6637 -0.0016 15.3837 -0.0016C15.0937 -0.0016 14.8737 0.1084 14.5837 0.3684L10.0337 4.6084C9.8037 4.8084 9.6837 5.0584 9.6837 5.3684C9.6837 5.9384 10.0937 6.3484 10.6737 6.3484C10.9337 6.3484 11.2237 6.2184 11.4337 6.0184L13.2037 4.2284L14.3837 3.0084L14.2837 5.2884V9.8184C14.2837 10.3884 14.7937 10.8684 15.3837 10.8684ZM3.8737 25.4884H8.3437V23.4184H4.1537C2.9237 23.4184 2.1737 22.5984 2.1737 21.4784V11.1384C2.1737 10.0184 2.9237 9.2184 4.1537 9.2184H8.3437V7.1484H3.8737C1.5837 7.1484 0.0037 8.6984 0.0037 10.7984V21.8384C0.0037 23.9284 1.5837 25.4884 3.8737 25.4884ZM26.8937 25.4884C29.1737 25.4884 30.7637 23.9284 30.7637 21.8384V10.7984C30.7637 8.6984 29.1737 7.1484 26.8937 7.1484H22.4237V9.2184H26.6037C27.8337 9.2184 28.5837 10.0184 28.5837 11.1384V21.4784C28.5837 22.5984 27.8337 23.4184 26.6037 23.4184H22.4237V25.4884ZM15.3837 32.6184C15.6637 32.6184 15.8837 32.5084 16.1737 32.2484L20.7237 28.0184C20.9637 27.8084 21.0837 27.5584 21.0837 27.2484C21.0837 26.6884 20.6737 26.2884 20.0837 26.2884C19.8237 26.2884 19.5337 26.3984 19.3337 26.6084L17.5537 28.3984L16.3837 29.6084L16.4637 27.3284V22.8184C16.4637 22.2284 15.9737 21.7484 15.3837 21.7484C14.7937 21.7484 14.2837 22.2284 14.2837 22.8184V27.3284L14.3837 29.6084L13.2037 28.3984L11.4337 26.6084C11.2237 26.3984 10.9537 26.2884 10.6937 26.2884C10.1037 26.2884 9.6837 26.6884 9.6837 27.2484C9.6837 27.5584 9.8037 27.8084 10.0337 28.0184L14.5837 32.2484C14.8737 32.5084 15.0937 32.6184 15.3837 32.6184Z"
        fillRule="evenodd"
        clipRule="evenodd"
    />
</svg>
        