
<svg
    viewBox="0 0 24.322265625 29.3671875"
    xmlns="http://www.w3.org/2000/svg"
>
    <path
        fill="inherit"
        d="M8.1337 29.3647H20.1537C22.7537 29.3647 24.3037 27.8347 24.3037 25.2647L24.3237 4.1447C24.3237 1.6647 22.6537 0.0047 20.1937 0.0047H15.9937C13.8537 0.0047 12.0537 0.5647 10.3737 2.1047L1.7337 10.0447C0.5737 11.1147 0.0037 12.6147 0.0037 14.4947V21.2347C0.0037 26.1847 3.1837 29.3647 8.1337 29.3647ZM8.1937 27.1647C4.3637 27.1647 2.2037 25.0147 2.2037 21.1947V14.5147C2.2037 13.1547 2.5137 12.3147 3.2637 11.6347L11.8937 3.7147C13.1137 2.6147 14.3537 2.2047 16.0537 2.2047H20.1537C21.3437 2.2047 22.1237 2.9947 22.1237 4.1747L22.1037 25.2247C22.1037 26.6747 21.5337 27.1647 20.1137 27.1647ZM5.5737 19.8647C5.5737 20.9147 6.1237 21.4647 7.1937 21.4647H7.3037V16.8147C7.3037 15.2847 8.2037 14.3447 9.8037 14.3447H16.7337V14.2847C16.7037 13.2747 16.1737 12.7547 15.1037 12.7547H7.1937C6.1237 12.7547 5.5737 13.2847 5.5737 14.3647ZM9.8037 23.9547H17.7237C18.7837 23.9547 19.3337 23.4247 19.3337 22.3447V16.8147C19.3337 15.7647 18.7837 15.2147 17.7237 15.2147H9.8037C8.7137 15.2147 8.1737 15.7647 8.1737 16.8147V22.3447C8.1737 23.4247 8.7137 23.9547 9.8037 23.9547Z"
        fillRule="evenodd"
        clipRule="evenodd"
    />
</svg>
        