
<svg
    viewBox={0 0 36.681640625 31.28125}
    xmlns="http://www.w3.org/2000/svg"
>
    <path
        fill="inherit"
        d="M4.2937 13.6717H14.0437C16.8937 13.6717 18.3337 12.2517 18.3337 9.4317V4.2217C18.3337 1.4117 16.8937 0.0017 14.0437 0.0017H4.2937C1.4337 0.0017 0.0037 1.4117 0.0037 4.2217V9.4317C0.0037 12.2517 1.4337 13.6717 4.2937 13.6717ZM4.3237 11.4717C2.9537 11.4717 2.2037 10.7317 2.2037 9.3117V4.3517C2.2037 2.9217 2.9537 2.2017 4.3237 2.2017H14.0137C15.3637 2.2017 16.1337 2.9217 16.1337 4.3517V9.3117C16.1337 10.7317 15.3637 11.4717 14.0137 11.4717ZM29.2437 15.0517C29.6637 15.6417 30.1437 15.6317 30.5737 15.0517L33.1137 11.5917C33.6737 10.8417 33.4537 10.0717 32.4437 10.0717H30.6437V9.7917C30.6437 5.8617 28.0037 3.2517 24.0937 3.2517H22.0437C21.5737 3.2517 21.1937 3.6517 21.1937 4.1117C21.1937 4.5817 21.5737 4.9617 22.0437 4.9617H24.0737C26.9837 4.9617 29.0537 6.8317 29.0537 9.8017V10.0717H27.3837C26.4037 10.0717 26.1637 10.8417 26.7237 11.5917ZM12.5737 28.0317H14.6337C15.0937 28.0317 15.4937 27.6317 15.4937 27.1617C15.4937 26.7017 15.0937 26.3217 14.6337 26.3217H12.5937C9.6837 26.3217 7.6137 24.4317 7.6137 21.4617V21.2017H9.2937C10.2637 21.2017 10.5037 20.4417 9.9537 19.6717L7.4237 16.2317C7.0037 15.6417 6.5237 15.6517 6.0937 16.2317L3.5637 19.6717C2.9937 20.4417 3.2237 21.2017 4.2237 21.2017H6.0337V21.4817C6.0337 25.4117 8.6637 28.0317 12.5737 28.0317ZM22.6237 31.2817H32.3937C35.2337 31.2817 36.6837 29.8617 36.6837 27.0417V21.8517C36.6837 19.0317 35.2337 17.6117 32.3937 17.6117H22.6237C19.7837 17.6117 18.3337 19.0217 18.3337 21.8517V27.0417C18.3337 29.8717 19.7837 31.2817 22.6237 31.2817ZM22.6637 29.0817C21.3037 29.0817 20.5337 28.3517 20.5337 26.9317V21.9617C20.5337 20.5517 21.3037 19.8117 22.6637 19.8117H32.3437C33.7037 19.8117 34.4837 20.5517 34.4837 21.9617V26.9317C34.4837 28.3517 33.7037 29.0817 32.3437 29.0817Z"
        fillRule="evenodd"
        clipRule="evenodd"
    />
</svg>
        