
<svg
    viewBox="0 0 33.64719559784379 30.541943966505936"
    xmlns="http://www.w3.org/2000/svg"
>
    <path
        fill="inherit"
        d="M4.1537 22.0111H11.9237L15.2137 26.0011C18.6937 30.2011 22.7537 31.5011 27.2937 29.8411C32.7137 27.8811 35.0037 22.9011 32.8437 16.8811L31.8237 14.0711C30.7737 11.1611 28.7837 9.9411 26.4137 10.6911V4.1011C26.4137 1.3411 25.0437 0.0011 22.2737 0.0011H4.1537C1.3837 0.0011 0.0037 1.3411 0.0037 4.1011V17.9111C0.0037 20.6611 1.3837 22.0111 4.1537 22.0111ZM26.7037 28.0511C23.1237 29.3711 19.7737 28.6811 16.5937 24.8811L12.0037 19.3711C11.8837 19.2111 11.7837 19.0611 11.6937 18.8311C11.5437 18.3711 11.7337 17.9011 12.2537 17.6911C12.6837 17.5411 13.0337 17.7011 13.3737 18.0711L16.5437 21.3311C17.0737 21.8711 17.5437 21.9411 17.9937 21.7811C18.5237 21.5711 18.7537 21.0111 18.5437 20.4211L13.7037 7.1111C13.4937 6.5611 13.7237 6.0411 14.2637 5.8511C14.7937 5.6611 15.2837 5.9111 15.4937 6.4711L18.9537 15.9711C19.1137 16.4211 19.6237 16.6111 20.0737 16.4511C20.5037 16.3011 20.7537 15.8211 20.5737 15.3711L19.3337 11.9511C19.5237 11.7711 19.7837 11.5811 20.0337 11.5111C20.6737 11.2611 21.2237 11.5411 21.4637 12.2211L22.5437 15.2011C22.7237 15.6811 23.2237 15.8411 23.6637 15.6911C24.0937 15.5411 24.3337 15.0911 24.1837 14.6111L23.2937 12.1811C23.4737 12.0011 23.7437 11.8311 23.9937 11.7311C24.6537 11.5011 25.1737 11.7711 25.4137 12.4511L26.1537 14.4611C26.3337 14.9311 26.8237 15.1111 27.2637 14.9411C27.7037 14.7911 27.9637 14.3311 27.7937 13.8611L27.2637 12.3911C28.3937 11.9611 29.4637 12.9111 30.2137 14.9611L31.0637 17.2911C32.9337 22.4611 31.2537 26.3911 26.7037 28.0511Z"
        fillRule="evenodd"
        clipRule="evenodd"
    />
</svg>
        