
<svg
    viewBox={0 0 30.40625 25.169921875}
    xmlns="http://www.w3.org/2000/svg"
>
    <path
        fill="inherit"
        d="M2.6137 11.4555H11.4537C13.1937 11.4555 14.0637 10.5855 14.0637 8.7755V2.6655C14.0637 0.8655 13.1937 -0.0045 11.4537 -0.0045H2.6137C0.8737 -0.0045 0.0037 0.8655 0.0037 2.6655V8.7755C0.0037 10.5855 0.8737 11.4555 2.6137 11.4555ZM18.9537 11.4555H27.7937C29.5337 11.4555 30.4037 10.5855 30.4037 8.7755V2.6655C30.4037 0.8655 29.5337 -0.0045 27.7937 -0.0045H18.9537C17.2137 -0.0045 16.3337 0.8655 16.3337 2.6655V8.7755C16.3337 10.5855 17.2137 11.4555 18.9537 11.4555ZM2.6437 9.5255C2.1637 9.5255 1.9237 9.2855 1.9237 8.7755V2.6655C1.9237 2.1755 2.1637 1.9255 2.6437 1.9255H11.4137C11.8937 1.9255 12.1437 2.1755 12.1437 2.6655V8.7755C12.1437 9.2855 11.8937 9.5255 11.4137 9.5255ZM18.9937 9.5255C18.4937 9.5255 18.2637 9.2855 18.2637 8.7755V2.6655C18.2637 2.1755 18.4937 1.9255 18.9937 1.9255H27.7637C28.2437 1.9255 28.4737 2.1755 28.4737 2.6655V8.7755C28.4737 9.2855 28.2437 9.5255 27.7637 9.5255ZM2.6137 25.1655H11.4537C13.1937 25.1655 14.0637 24.3055 14.0637 22.5055V16.3755C14.0637 14.5855 13.1937 13.7155 11.4537 13.7155H2.6137C0.8737 13.7155 0.0037 14.5855 0.0037 16.3755V22.5055C0.0037 24.3055 0.8737 25.1655 2.6137 25.1655ZM18.9537 25.1655H27.7937C29.5337 25.1655 30.4037 24.3055 30.4037 22.5055V16.3755C30.4037 14.5855 29.5337 13.7155 27.7937 13.7155H18.9537C17.2137 13.7155 16.3337 14.5855 16.3337 16.3755V22.5055C16.3337 24.3055 17.2137 25.1655 18.9537 25.1655ZM2.6437 23.2455C2.1637 23.2455 1.9237 22.9955 1.9237 22.5055V16.3955C1.9237 15.8855 2.1637 15.6455 2.6437 15.6455H11.4137C11.8937 15.6455 12.1437 15.8855 12.1437 16.3955V22.5055C12.1437 22.9955 11.8937 23.2455 11.4137 23.2455ZM18.9937 23.2455C18.4937 23.2455 18.2637 22.9955 18.2637 22.5055V16.3955C18.2637 15.8855 18.4937 15.6455 18.9937 15.6455H27.7637C28.2437 15.6455 28.4737 15.8855 28.4737 16.3955V22.5055C28.4737 22.9955 28.2437 23.2455 27.7637 23.2455Z"
        fillRule="evenodd"
        clipRule="evenodd"
    />
</svg>
        