
<svg
    viewBox="0 0 27.890625 27.890625"
    xmlns="http://www.w3.org/2000/svg"
>
    <path
        fill="inherit"
        d="M13.9427 27.8864C21.6427 27.8864 27.8927 21.6264 27.8927 13.9464C27.8927 6.2464 21.6427 -0.0036 13.9427 -0.0036C6.2627 -0.0036 0.0027 6.2464 0.0027 13.9464C0.0027 21.6264 6.2627 27.8864 13.9427 27.8864ZM20.8727 21.0964L7.0827 7.2964C6.8327 7.0564 6.8227 6.6564 7.0827 6.3964C7.3327 6.1364 7.7427 6.1364 7.9827 6.3964L21.7827 20.1964C22.0427 20.4564 22.0427 20.8464 21.7827 21.0964C21.5327 21.3664 21.1327 21.3664 20.8727 21.0964ZM12.3827 9.2564L10.3227 7.1764H17.1327C18.4327 7.1764 19.0627 7.8164 19.0627 9.1164V9.2564ZM5.7727 15.6364V9.1164C5.7727 8.5964 5.8827 8.1764 6.0927 7.8764L8.4727 10.2364C8.1727 10.6464 8.0227 11.2264 8.0227 11.9364V17.5564H7.6927C6.4127 17.5564 5.7727 16.9264 5.7727 15.6364ZM22.0227 18.8964L13.2327 10.1164H20.2227C21.5227 10.1164 22.1627 10.7764 22.1627 12.0164V18.0764C22.1627 18.3864 22.1027 18.6664 22.0227 18.8964ZM10.8027 20.5364C9.5027 20.5364 8.8627 19.9064 8.8627 18.6164V12.0164C8.8627 11.5564 8.9527 11.1964 9.1327 10.9064L18.7827 20.5364Z"
        fillRule="evenodd"
        clipRule="evenodd"
    />
</svg>
        