
<svg
    viewBox="0 0 29.462890625 25.169921875"
    xmlns="http://www.w3.org/2000/svg"
>
    <path
        fill="inherit"
        d="M2.6137 11.4555H5.7037C7.4337 11.4555 8.3137 10.5855 8.3137 8.7755V2.6655C8.3137 0.8655 7.4337 -0.0045 5.7037 -0.0045H2.6137C0.8737 -0.0045 0.0037 0.8655 0.0037 2.6655V8.7755C0.0037 10.5855 0.8737 11.4555 2.6137 11.4555ZM13.1937 11.4555H16.2837C18.0237 11.4555 18.8937 10.5855 18.8937 8.7755V2.6655C18.8937 0.8655 18.0237 -0.0045 16.2837 -0.0045H13.1937C11.4537 -0.0045 10.5837 0.8655 10.5837 2.6655V8.7755C10.5837 10.5855 11.4537 11.4555 13.1937 11.4555ZM23.7737 11.4555H26.8537C28.5837 11.4555 29.4637 10.5855 29.4637 8.7755V2.6655C29.4637 0.8655 28.5837 -0.0045 26.8537 -0.0045H23.7737C22.0237 -0.0045 21.1537 0.8655 21.1537 2.6655V8.7755C21.1537 10.5855 22.0237 11.4555 23.7737 11.4555ZM2.6437 9.5255C2.1637 9.5255 1.9237 9.2855 1.9237 8.7755V2.6655C1.9237 2.1755 2.1637 1.9255 2.6437 1.9255H5.6637C6.1437 1.9255 6.3837 2.1755 6.3837 2.6655V8.7755C6.3837 9.2855 6.1437 9.5255 5.6637 9.5255ZM13.2237 9.5255C12.7437 9.5255 12.5137 9.2855 12.5137 8.7755V2.6655C12.5137 2.1755 12.7437 1.9255 13.2237 1.9255H16.2537C16.7337 1.9255 16.9637 2.1755 16.9637 2.6655V8.7755C16.9637 9.2855 16.7337 9.5255 16.2537 9.5255ZM23.7937 9.5255C23.3137 9.5255 23.0737 9.2855 23.0737 8.7755V2.6655C23.0737 2.1755 23.3137 1.9255 23.7937 1.9255H26.8237C27.3037 1.9255 27.5337 2.1755 27.5337 2.6655V8.7755C27.5337 9.2855 27.3037 9.5255 26.8237 9.5255ZM2.6137 25.1655H5.7037C7.4337 25.1655 8.3137 24.3055 8.3137 22.5055V16.3755C8.3137 14.5855 7.4337 13.7155 5.7037 13.7155H2.6137C0.8737 13.7155 0.0037 14.5855 0.0037 16.3755V22.5055C0.0037 24.3055 0.8737 25.1655 2.6137 25.1655ZM13.1937 25.1655H16.2837C18.0237 25.1655 18.8937 24.3055 18.8937 22.5055V16.3755C18.8937 14.5855 18.0237 13.7155 16.2837 13.7155H13.1937C11.4537 13.7155 10.5837 14.5855 10.5837 16.3755V22.5055C10.5837 24.3055 11.4537 25.1655 13.1937 25.1655ZM23.7737 25.1655H26.8537C28.5837 25.1655 29.4637 24.3055 29.4637 22.5055V16.3755C29.4637 14.5855 28.5837 13.7155 26.8537 13.7155H23.7737C22.0237 13.7155 21.1537 14.5855 21.1537 16.3755V22.5055C21.1537 24.3055 22.0237 25.1655 23.7737 25.1655ZM2.6437 23.2455C2.1637 23.2455 1.9237 22.9955 1.9237 22.5055V16.3955C1.9237 15.8855 2.1637 15.6455 2.6437 15.6455H5.6637C6.1437 15.6455 6.3837 15.8855 6.3837 16.3955V22.5055C6.3837 22.9955 6.1437 23.2455 5.6637 23.2455ZM13.2237 23.2455C12.7437 23.2455 12.5137 22.9955 12.5137 22.5055V16.3955C12.5137 15.8855 12.7437 15.6455 13.2237 15.6455H16.2537C16.7337 15.6455 16.9637 15.8855 16.9637 16.3955V22.5055C16.9637 22.9955 16.7337 23.2455 16.2537 23.2455ZM23.7937 23.2455C23.3137 23.2455 23.0737 22.9955 23.0737 22.5055V16.3955C23.0737 15.8855 23.3137 15.6455 23.7937 15.6455H26.8237C27.3037 15.6455 27.5337 15.8855 27.5337 16.3955V22.5055C27.5337 22.9955 27.3037 23.2455 26.8237 23.2455Z"
        fillRule="evenodd"
        clipRule="evenodd"
    />
</svg>
        