<svg viewBox="0 0 27.74365234375 29.3125" xmlns="http://www.w3.org/2000/svg"><path d="M14.9555 11.9773V2.1973H21.0055C22.4355 2.1973 23.1555 2.9673 23.1555 4.3373V20.1773L25.3555 22.3773V4.2973C25.3555 1.4473 23.9455 -0.0027 21.1155 -0.0027H6.5955C5.4155 -0.0027 4.4855 0.2873 3.8355 0.8373L5.6055 2.5973C5.8455 2.3373 6.2155 2.1973 6.7055 2.1973H12.7655V9.7773ZM25.9455 28.2173C26.3655 28.6473 27.0355 28.6473 27.4355 28.2173C27.8455 27.8073 27.8455 27.1373 27.4355 26.7173L1.8055 1.0973C1.3955 0.6873 0.7255 0.6873 0.2955 1.0973C-0.0945 1.5073 -0.0945 2.1873 0.2955 2.5873ZM6.5955 29.3173H21.1155C22.3055 29.3173 23.2355 29.0573 23.8855 28.5073L22.1155 26.7273C21.8755 26.9773 21.5055 27.1073 21.0055 27.1073H14.9555V19.5673L12.7655 17.3673V27.1073H6.7055C5.2855 27.1073 4.5655 26.3573 4.5655 24.9873V9.1773L2.3655 6.9773V25.0373C2.3655 27.8873 3.7655 29.3173 6.5955 29.3173Z" /></svg>