
<svg
    viewBox={0 0 33.65056620913437 30.523337159792323}
    xmlns="http://www.w3.org/2000/svg"
>
    <path
        fill="inherit"
        d="M4.1537 22.0111H10.0237L9.4737 21.2311C9.0637 20.5311 8.8737 19.8211 8.8737 19.1511C8.8737 17.2911 10.4637 15.9111 12.2337 15.9111C12.7437 15.9111 13.2337 16.0511 13.7037 16.3211L14.0137 16.6611L10.8837 8.0811C10.1737 6.1511 11.0437 4.1311 13.0737 3.5411C14.7937 2.9911 16.6137 3.9111 17.2837 5.7511L18.9037 10.1711C19.2637 9.9911 19.7537 9.8611 20.5037 9.8611C21.3037 9.8611 22.0437 10.0811 22.6837 10.5411C23.2737 10.1011 24.1037 9.8611 24.8937 9.8611C25.4337 9.8611 25.9537 9.9711 26.4137 10.2011V4.1011C26.4137 1.3511 25.0437 0.0011 22.2737 0.0011H4.1537C1.3837 0.0011 0.0037 1.3411 0.0037 4.1011V17.9111C0.0037 20.6611 1.3837 22.0111 4.1537 22.0111ZM27.5037 29.8611C33.0837 27.8311 34.9337 23.2111 32.7737 17.2411L31.8737 14.7611C31.0537 12.5111 29.4637 11.5111 28.2337 11.9611C27.9637 12.0711 27.8637 12.2611 27.9637 12.5211L28.3537 13.6311C28.5337 14.1411 28.3737 14.5011 28.0637 14.6111C27.7237 14.7411 27.3537 14.5711 27.1837 14.0511L26.9237 13.3311C26.4237 12.0011 25.2837 11.4411 24.1137 11.8711C23.5937 12.0611 23.4337 12.3611 23.5937 12.8111L24.1437 14.2911C24.3337 14.8111 24.1537 15.1511 23.8537 15.2611C23.5337 15.3811 23.1637 15.2311 22.9837 14.7211L22.4937 13.3311C21.9537 11.8411 20.8037 11.4711 19.6837 11.8711C19.2137 12.0411 19.0337 12.3711 19.1837 12.8011L20.2337 15.7111C20.4237 16.2311 20.2437 16.5811 19.9637 16.6911C19.6237 16.8211 19.2637 16.6511 19.0737 16.1311L15.5337 6.3811C15.1737 5.4311 14.3237 5.0411 13.5337 5.3311C12.6637 5.6611 12.2937 6.4811 12.6337 7.4411L17.8437 21.7111C17.9637 22.0711 17.8037 22.3411 17.5837 22.4111C17.3637 22.4811 17.1437 22.4211 16.8537 22.1211L13.3437 18.3611C12.8237 17.8011 12.2937 17.6611 11.7137 17.8811C10.8437 18.2111 10.4837 19.0011 10.7637 19.7411C10.8537 20.0311 11.0037 20.2511 11.1537 20.4411L15.5037 25.8711C19.1637 30.4611 23.3937 31.3511 27.5037 29.8611Z"
        fillRule="evenodd"
        clipRule="evenodd"
    />
</svg>
        