
<svg
    viewBox={0 0 32.56854982514972 26.94419835384836}
    xmlns="http://www.w3.org/2000/svg"
>
    <path
        fill="inherit"
        d="M17.4037 17.2598C19.5237 19.3798 22.7337 19.4398 24.9537 17.2198L31.6637 10.5098C32.0037 10.1698 31.9737 9.6398 31.6537 9.3298C31.3037 9.0198 30.8437 9.0198 30.5037 9.3598L23.8537 16.0198C22.2737 17.5898 20.0537 17.5898 18.6037 16.0898C17.1037 14.5598 17.0737 12.3798 18.6437 10.8098L27.0437 2.4398C28.0837 1.4098 29.4937 1.3898 30.3637 2.2398C31.2237 3.0898 31.2037 4.4798 30.1637 5.5498L21.9937 13.7598C21.6537 14.1098 21.2237 14.0898 20.9137 13.7598C20.5737 13.4398 20.5937 13.0098 20.9337 12.6698L26.7137 6.8898C27.0537 6.5498 27.0437 6.0798 26.7537 5.7698C26.4437 5.4698 25.9937 5.4498 25.6437 5.8098L19.8137 11.6298C18.8637 12.5798 18.8537 14.0498 19.7437 14.9298C20.6737 15.8598 22.0637 15.8598 23.0537 14.8698L31.2637 6.6598C32.9937 4.9298 32.9637 2.6898 31.4137 1.1298C29.9037 -0.3902 27.5737 -0.4102 25.8937 1.2698L17.4637 9.6998C15.2437 11.9198 15.3137 15.1698 17.4037 17.2598ZM4.2937 26.9398H27.9437C30.8137 26.9398 32.2337 25.5198 32.2337 22.7098V13.2598L30.0337 15.4598V22.5998C30.0337 24.0198 29.2737 24.7398 27.9137 24.7398H4.3237C2.9537 24.7398 2.2037 24.0198 2.2037 22.5998V6.1198C2.2037 4.6998 2.9537 3.9798 4.3237 3.9798H19.7837L21.9837 1.7698H4.2937C1.4337 1.7698 0.0037 3.1798 0.0037 6.0098V22.7098C0.0037 25.5398 1.4337 26.9398 4.2937 26.9398Z"
        fillRule="evenodd"
        clipRule="evenodd"
    />
</svg>
        