
<svg
    viewBox="0 0 27.91796875 38.63775492154828"
    xmlns="http://www.w3.org/2000/svg"
>
    <path
        fill="inherit"
        d="M27.1437 10.69C27.5537 10.69 27.9137 10.32 27.9137 9.9V8.23C27.9137 4.77 25.6237 2.49 22.1637 2.49H21.9137V0.88C21.9137 -0.04 21.2337 -0.23 20.5537 0.27L17.4437 2.54C16.9237 2.93 16.9137 3.36 17.4437 3.75L20.5537 6.02C21.2337 6.52 21.9137 6.32 21.9137 5.44V3.92H22.1437C24.6937 3.92 26.3637 5.65 26.3637 8.24V9.9C26.3637 10.32 26.7137 10.69 27.1437 10.69ZM8.4937 30.16H19.4137C21.0637 30.16 22.3037 29.03 22.3037 27.44V11.2C22.3037 9.61 21.0637 8.46 19.4137 8.46H8.4937C6.8337 8.46 5.6337 9.61 5.6337 11.2V27.44C5.6337 29.03 6.8337 30.16 8.4937 30.16ZM8.6837 28.1C8.1037 28.1 7.6937 27.73 7.6937 27.19V11.44C7.6937 10.9 8.1037 10.51 8.6837 10.51H19.2237C19.8237 10.51 20.2437 10.9 20.2437 11.44V27.19C20.2437 27.73 19.8237 28.1 19.2237 28.1ZM0.7837 27.95C0.3737 27.95 0.0037 28.3 0.0037 28.73V30.41C0.0037 33.87 2.2837 36.15 5.7437 36.15H5.9837V37.76C5.9837 38.68 6.6837 38.87 7.3737 38.36L10.4737 36.08C10.9937 35.71 11.0037 35.27 10.4737 34.88L7.3737 32.62C6.6837 32.12 5.9837 32.32 5.9837 33.2V34.71H5.7537C3.2237 34.71 1.5537 32.99 1.5537 30.39V28.73C1.5537 28.3 1.2037 27.95 0.7837 27.95Z"
        fillRule="evenodd"
        clipRule="evenodd"
    />
</svg>
        