<svg viewBox="0 0 34.015625 27.69921875" xmlns="http://www.w3.org/2000/svg"><path d="M0.0037 6.3807H2.2037V4.3607C2.2037 2.9407 2.9537 2.2007 4.3237 2.2007H6.3337V0.0007H4.2937C1.4237 0.0007 0.0037 1.4207 0.0037 4.2407ZM11.0437 27.7007H29.7237C32.5637 27.7007 34.0137 26.2807 34.0137 23.4607V10.5707C34.0137 7.7507 32.5637 6.3307 29.7237 6.3307H27.2437V4.2407C27.2437 1.4207 25.8137 0.0007 22.9537 0.0007H20.9137V2.2007H22.9137C24.2837 2.2007 25.0437 2.9407 25.0437 4.3607V6.3307H11.0437C8.1737 6.3307 6.7537 7.7507 6.7537 10.5707V19.1707H4.3237C2.9537 19.1707 2.2037 18.4407 2.2037 17.0207V15.0007H0.0037V17.1307C0.0037 19.9607 1.4237 21.3707 4.2937 21.3707H6.7537V23.4607C6.7537 26.2907 8.1737 27.7007 11.0437 27.7007ZM14.2237 2.2007H19.7137V0.0007H14.2237ZM7.5237 2.2007H13.0337V0.0007H7.5237ZM0.0037 13.8107H2.2037V7.5707H0.0037ZM11.0737 25.5007C9.7037 25.5007 8.9537 24.7707 8.9537 23.3507V10.6907C8.9537 9.2707 9.7037 8.5307 11.0737 8.5307H29.6837C31.0337 8.5307 31.8137 9.2707 31.8137 10.6907V23.3507C31.8137 24.7707 31.0337 25.5007 29.6837 25.5007Z" /></svg>