
<svg
    viewBox={0 0 27.69921875 34.015625}
    xmlns="http://www.w3.org/2000/svg"
>
    <path
        fill="inherit"
        d="M21.3737 4.2889C21.3737 1.4389 19.9637 -0.0011 17.1337 -0.0011H4.2337C1.4037 -0.0011 0.0037 1.4389 0.0037 4.2889V22.9689C0.0037 25.8289 1.4237 27.2589 4.2337 27.2589H6.3337V29.7189C6.3337 32.5789 7.7537 34.0189 10.5637 34.0189H23.4637C26.2737 34.0189 27.7037 32.5789 27.7037 29.7189V11.0489C27.7037 8.1889 26.2937 6.7489 23.4637 6.7489H21.3737ZM4.3437 25.0589C2.9237 25.0589 2.2037 24.2789 2.2037 22.9389V4.3389C2.2037 2.9689 2.9237 2.1989 4.3437 2.1989H17.0237C18.4437 2.1989 19.1637 2.9689 19.1637 4.3389V6.7489H10.5637C7.7337 6.7489 6.3337 8.1889 6.3337 11.0489V25.0589ZM25.4937 11.0889V29.6989C25.4937 31.0389 24.7737 31.8189 23.3537 31.8189H10.6737C9.2537 31.8189 8.5337 31.0389 8.5337 29.6989V11.0889C8.5337 9.7189 9.2537 8.9589 10.6737 8.9589H23.3537C24.7737 8.9589 25.4937 9.7189 25.4937 11.0889Z"
        fillRule="evenodd"
        clipRule="evenodd"
    />
</svg>
        