
<svg
    viewBox={0 0 25.169921875 25.169921875}
    xmlns="http://www.w3.org/2000/svg"
>
    <path
        fill="inherit"
        d="M4.2937 25.1692H20.8737C23.7437 25.1692 25.1737 23.7592 25.1737 20.9492V4.2392C25.1737 1.4192 23.7437 -0.0008 20.8737 -0.0008H4.2937C1.4337 -0.0008 0.0037 1.4192 0.0037 4.2392V20.9492C0.0037 23.7592 1.4337 25.1692 4.2937 25.1692ZM6.6437 10.5592V16.1692H6.3137C5.0337 16.1692 4.3937 15.5292 4.3937 14.2592V7.7092C4.3937 6.4292 5.0337 5.7992 6.3137 5.7992H15.7537C17.0537 5.7992 17.6737 6.4292 17.6737 7.7092V7.8792H9.3337C7.5637 7.8792 6.6437 8.7892 6.6437 10.5592ZM9.4237 19.1592C8.1237 19.1592 7.4737 18.5292 7.4737 17.2392V10.6392C7.4737 9.3792 8.1237 8.7192 9.4237 8.7192H18.8437C20.1437 8.7192 20.7837 9.3792 20.7837 10.6392V17.2392C20.7837 18.5292 20.1437 19.1592 18.8437 19.1592Z"
        fillRule="evenodd"
        clipRule="evenodd"
    />
</svg>
        