
<svg
    viewBox={0 0 24.9375 29.94140625}
    xmlns="http://www.w3.org/2000/svg"
>
    <path
        fill="inherit"
        d="M1.0937 27.8481H9.4737C9.9237 29.0681 11.1037 29.9381 12.4737 29.9381C13.8337 29.9381 15.0137 29.0681 15.4537 27.8481H23.8337C24.4337 27.8481 24.9337 27.3481 24.9337 26.7381C24.9337 26.1381 24.4337 25.6481 23.8337 25.6481H15.4337C15.1037 24.7881 14.4237 24.1081 13.5637 23.7881V20.4681H20.6437C23.5037 20.4681 24.9337 19.0481 24.9337 16.2281V4.2381C24.9337 1.4181 23.5037 -0.0019 20.6437 -0.0019H4.2937C1.4237 -0.0019 0.0037 1.4181 0.0037 4.2381V16.2281C0.0037 19.0481 1.4237 20.4681 4.2937 20.4681H11.3637V23.7881C10.5137 24.1081 9.8137 24.7881 9.4837 25.6481H1.0937C0.4937 25.6481 0.0037 26.1381 0.0037 26.7381C0.0037 27.3481 0.4937 27.8481 1.0937 27.8481ZM4.3237 18.2681C2.9837 18.2681 2.2037 17.5381 2.2037 16.1181V4.3481C2.2037 2.9381 2.9837 2.1981 4.3237 2.1981H20.6037C21.9537 2.1981 22.7337 2.9381 22.7337 4.3481V16.1181C22.7337 17.5381 21.9537 18.2681 20.6037 18.2681Z"
        fillRule="evenodd"
        clipRule="evenodd"
    />
</svg>
        