
<svg
    viewBox="0 0 33.55078125 23.447265625"
    xmlns="http://www.w3.org/2000/svg"
>
    <path
        fill="inherit"
        d="M8.3837 9.593C9.0737 9.593 9.5937 9.123 9.5937 8.433C9.5937 8.103 9.4637 7.833 9.2437 7.603L6.9637 5.303L3.4737 1.993L6.6437 2.203H8.4737C9.1337 2.203 9.6237 1.763 9.6237 1.093C9.6237 0.433 9.1337 0.003 8.4737 0.003H1.9737C0.7237 0.003 0.0037 0.723 0.0037 1.973V8.453C0.0037 9.103 0.4637 9.593 1.1037 9.593C1.7637 9.593 2.2037 9.123 2.2037 8.453V6.613L1.9937 3.463L5.3137 6.933L7.6037 9.253C7.8237 9.473 8.0937 9.593 8.3837 9.593ZM29.9837 10.053H32.1537V5.183C32.1537 3.073 30.5737 1.533 28.2837 1.533H13.4137V3.703H28.0037C29.2337 3.703 29.9837 4.513 29.9837 5.633ZM20.1437 22.053V19.883H5.5537C4.3237 19.883 3.5637 19.063 3.5637 17.933V13.523H1.3937V18.403C1.3937 20.493 2.9837 22.053 5.2637 22.053ZM25.1737 13.853C24.4737 13.853 23.9537 14.313 23.9537 15.003C23.9537 15.323 24.0937 15.603 24.3037 15.833L26.5937 18.133L30.0937 21.453L26.9037 21.243H25.0737C24.4137 21.243 23.9237 21.683 23.9237 22.343C23.9237 22.993 24.4137 23.443 25.0737 23.443H31.5837C32.8237 23.443 33.5537 22.723 33.5537 21.483V14.983C33.5537 14.343 33.0837 13.833 32.4437 13.833C31.7837 13.833 31.3537 14.313 31.3537 14.983V16.813L31.5537 19.973L28.2437 16.503L25.9537 14.173C25.7337 13.963 25.4537 13.853 25.1737 13.853Z"
        fillRule="evenodd"
        clipRule="evenodd"
    />
</svg>
        