
<svg
    viewBox={0 0 21.2734375 29.50390625}
    xmlns="http://www.w3.org/2000/svg"
>
    <path
        fill="inherit"
        d="M1.3685 13.7402H3.4285V3.7702C3.4285 2.6702 4.0585 2.0002 5.2785 2.0002H15.9785C17.1985 2.0002 17.8385 2.6702 17.8385 3.7702V4.8402H19.9085V3.4902C19.9085 1.4402 18.4885 0.0002 16.2585 0.0002H5.0085C2.7785 0.0002 1.3585 1.4402 1.3585 3.4902ZM14.5085 6.5202C13.9485 6.5202 13.6485 6.9602 13.6485 7.4002C13.6485 7.8302 13.9585 8.2802 14.5485 8.2802H16.6785L18.3085 8.1902L16.7385 9.6702L14.5985 11.7802C14.3985 12.0002 14.2985 12.2402 14.2985 12.4502C14.2985 13.0002 14.8085 13.4902 15.3585 13.4902C15.5685 13.4902 15.8085 13.4102 16.0085 13.2102L18.1285 11.0702L19.5885 9.5002L19.5085 11.1202V13.3002C19.5085 13.9002 19.9585 14.2002 20.3985 14.2002C20.8385 14.2002 21.2685 13.9202 21.2685 13.3402V7.6602C21.2685 6.9202 20.8585 6.5202 20.1385 6.5202ZM1.1385 22.9802H6.7685C7.3385 22.9802 7.6285 22.5302 7.6285 22.0902C7.6285 21.6402 7.3285 21.2002 6.7285 21.2002H4.5985L2.9685 21.3002L4.5385 19.8202L6.6685 17.7002C6.8785 17.5002 6.9685 17.2702 6.9685 17.0302C6.9685 16.4902 6.4685 16.0102 5.9185 16.0102C5.6985 16.0102 5.4685 16.0802 5.2685 16.2802L3.1485 18.4302L1.6785 19.9902L1.7685 18.3702V16.1902C1.7685 15.5902 1.3085 15.2802 0.8785 15.2802C0.4385 15.2802 -0.0015 15.5702 -0.0015 16.1502V21.8302C-0.0015 22.5702 0.4085 22.9802 1.1385 22.9802ZM5.0185 29.5002H16.2685C18.4985 29.5002 19.9185 28.0502 19.9185 26.0002V15.7502H17.8585V25.7202C17.8585 26.8402 17.2085 27.5102 15.9985 27.5102H5.2885C4.0785 27.5102 3.4285 26.8402 3.4285 25.7202V24.6502H1.3685V26.0002C1.3685 28.0502 2.7885 29.5002 5.0185 29.5002Z"
        fillRule="evenodd"
        clipRule="evenodd"
    />
</svg>
        