
<svg
    viewBox={0 0 32.26904296875 34.015625}
    xmlns="http://www.w3.org/2000/svg"
>
    <path
        fill="inherit"
        d="M8.9535 6.0389C9.9535 5.2789 11.2635 4.8989 12.8435 4.8989H23.6535V4.2889C23.6535 1.4389 22.2435 -0.0011 19.4135 -0.0011H6.5135C5.3435 -0.0011 4.4235 0.2689 3.7335 0.8389ZM30.4735 32.8689C30.8835 33.2789 31.5635 33.2789 31.9635 32.8689C32.3735 32.4389 32.3735 31.7889 31.9635 31.3789L1.8035 1.1889C1.3935 0.7889 0.7235 0.7789 0.2935 1.1889C-0.0965 1.5989 -0.0965 2.2789 0.2935 2.6789ZM29.9835 27.0889V11.0489C29.9835 8.1889 28.5735 6.7489 25.7435 6.7489H12.8435C11.7935 6.7489 10.9435 6.9689 10.3035 7.4089ZM2.2835 6.9689V22.8189C2.2835 25.6789 3.7035 27.1089 6.5135 27.1089H6.7335V11.4289ZM8.6135 13.2989V29.7189C8.6135 32.5789 10.0335 34.0189 12.8435 34.0189H25.7435C26.9335 34.0189 27.8635 33.7289 28.4935 33.1789Z"
        fillRule="evenodd"
        clipRule="evenodd"
    />
</svg>
        