<svg viewBox="0 0 26.617453361883236 29.50390625" xmlns="http://www.w3.org/2000/svg"><path d="M7.6848 0.0002C6.3148 0.0002 5.3248 0.5502 4.8048 1.5302V1.5402L6.3848 3.1202V2.9502C6.6048 2.3102 7.1048 2.0002 7.9548 2.0002H18.6548C19.8748 2.0002 20.5348 2.6702 20.5348 3.7702V4.8402H22.5848V3.4902C22.5848 1.4402 21.1648 0.0002 18.9348 0.0002ZM24.8248 27.1802C25.2248 27.5802 25.9148 27.5902 26.3148 27.1802C26.7148 26.7602 26.7248 26.1002 26.3148 25.6902L1.8048 1.1502C1.3948 0.7402 0.7048 0.7402 0.2948 1.1502C-0.0952 1.5602 -0.0952 2.2402 0.2948 2.6402ZM17.1848 6.5202C16.6248 6.5202 16.3348 6.9602 16.3348 7.4002C16.3348 7.8302 16.6348 8.2802 17.2248 8.2802H19.3548L20.9848 8.1902L19.4148 9.6702L17.2748 11.7802C17.0748 12.0002 16.9748 12.2402 16.9748 12.4502C16.9748 13.0002 17.4848 13.4902 18.0348 13.4902C18.2448 13.4902 18.4848 13.4102 18.6848 13.2102L20.8048 11.0702L22.2648 9.5002L22.1848 11.1202V13.3002C22.1848 13.9002 22.6348 14.2002 23.0848 14.2002C23.5148 14.2002 23.9448 13.9202 23.9448 13.3402V7.6602C23.9448 6.9202 23.5348 6.5202 22.8148 6.5202ZM4.0448 13.7402H6.1048V11.0602L4.0448 9.0102ZM3.8148 22.9802H9.4448C10.0148 22.9802 10.3048 22.5302 10.3048 22.0902C10.3048 21.6402 10.0048 21.2002 9.4048 21.2002H7.2748L5.6448 21.3002L7.2148 19.8202L9.3448 17.7002C9.5548 17.5002 9.6448 17.2702 9.6448 17.0302C9.6448 16.4902 9.1448 16.0102 8.5948 16.0102C8.3748 16.0102 8.1448 16.0802 7.9448 16.2802L5.8248 18.4302L4.3548 19.9902L4.4448 18.3702V16.1902C4.4448 15.5902 3.9848 15.2802 3.5548 15.2802C3.1148 15.2802 2.6748 15.5702 2.6748 16.1502V21.8302C2.6748 22.5702 3.0848 22.9802 3.8148 22.9802ZM22.5948 15.7502H20.5448V17.2902L22.5948 19.3502ZM7.6948 29.5002H18.9448C20.6548 29.5002 21.8448 28.6602 22.2948 27.2902V27.2802L20.5448 25.5002V25.7202C20.5448 26.8402 19.8848 27.5102 18.6748 27.5102H7.9648C6.7548 27.5102 6.1048 26.8402 6.1048 25.7202V24.6502H4.0448V26.0002C4.0448 28.0502 5.4648 29.5002 7.6948 29.5002Z" /></svg>