
<svg
    viewBox={0 0 27.74365234375 29.3125}
    xmlns="http://www.w3.org/2000/svg"
>
    <path
        fill="inherit"
        d="M25.3555 22.3773V4.2973C25.3555 1.4473 23.9455 -0.0027 21.1155 -0.0027H6.5955C5.3955 -0.0027 4.4655 0.2873 3.8255 0.8373ZM25.9455 28.2173C26.3655 28.6473 27.0355 28.6473 27.4355 28.2173C27.8455 27.8073 27.8455 27.1373 27.4355 26.7173L1.8055 1.0973C1.3955 0.6873 0.7255 0.6873 0.2955 1.0973C-0.0945 1.5073 -0.0945 2.1873 0.2955 2.5873ZM2.3655 6.9873V25.0373C2.3655 27.8873 3.7655 29.3173 6.5955 29.3173H21.1155C22.3255 29.3173 23.2555 29.0373 23.8855 28.4873Z"
        fillRule="evenodd"
        clipRule="evenodd"
    />
</svg>
        