
<svg
    viewBox="0 0 37.8984375 24.828125"
    xmlns="http://www.w3.org/2000/svg"
>
    <path
        fill="inherit"
        d="M2.7337 11.8715H15.8137C17.6337 11.8715 18.5537 10.9515 18.5537 9.0615V2.7915C18.5537 0.9015 17.6337 0.0015 15.8137 0.0015H2.7337C0.9137 0.0015 0.0037 0.9015 0.0037 2.7915V9.0615C0.0037 10.9515 0.9137 11.8715 2.7337 11.8715ZM25.6637 23.0415H35.1537C36.9837 23.0415 37.8937 22.1215 37.8937 20.2315V4.7415C37.8937 2.8615 36.9837 1.9415 35.1537 1.9415H25.6637C23.8337 1.9415 22.9137 2.8615 22.9137 4.7415V20.2315C22.9137 22.1215 23.8337 23.0415 25.6637 23.0415ZM6.0437 24.8315H17.4837C19.3137 24.8315 20.2337 23.9115 20.2337 22.0415V17.5115C20.2337 15.6315 19.3137 14.7115 17.4837 14.7115H6.0437C4.2137 14.7115 3.2937 15.6315 3.2937 17.5115V22.0415C3.2937 23.9115 4.2137 24.8315 6.0437 24.8315Z"
        fillRule="evenodd"
        clipRule="evenodd"
    />
</svg>
        