
<svg
    viewBox={0 0 19.6875 30.939453125}
    xmlns="http://www.w3.org/2000/svg"
>
    <path
        fill="inherit"
        d="M3.1537 30.9377H16.5137C18.4137 30.9377 19.6837 29.6377 19.6837 27.6677V3.2677C19.6837 1.2977 18.4137 -0.0023 16.5137 -0.0023H3.1537C1.2737 -0.0023 0.0037 1.2977 0.0037 3.2677V27.6677C0.0037 29.6377 1.2737 30.9377 3.1537 30.9377ZM2.2037 3.2977C2.2037 2.6377 2.6237 2.1977 3.2637 2.1977H16.4237C17.0537 2.1977 17.4837 2.6377 17.4837 3.2977V10.3177H2.2037ZM4.7437 8.2177C5.1537 8.2177 5.4237 7.9277 5.4237 7.5177V4.4977C5.4237 4.0877 5.1537 3.7977 4.7437 3.7977C4.3337 3.7977 4.0437 4.0877 4.0437 4.4977V7.5177C4.0437 7.9277 4.3337 8.2177 4.7437 8.2177ZM2.2037 24.9477V12.1177H17.4837V24.9477ZM4.7437 17.8277C5.1537 17.8277 5.4237 17.5577 5.4237 17.1477V14.1077C5.4237 13.6977 5.1537 13.4277 4.7437 13.4277C4.3337 13.4277 4.0437 13.6977 4.0437 14.1077V17.1477C4.0437 17.5577 4.3337 17.8277 4.7437 17.8277ZM3.2637 28.7377C2.6237 28.7377 2.2037 28.3177 2.2037 27.6577V26.7377H17.4837V27.6577C17.4837 28.3177 17.0537 28.7377 16.4237 28.7377Z"
        fillRule="evenodd"
        clipRule="evenodd"
    />
</svg>
        