
<svg
    viewBox="0 0 19.00390625 30.939453125"
    xmlns="http://www.w3.org/2000/svg"
>
    <path
        fill="inherit"
        d="M0.0037 10.284H19.0037V2.854C19.0037 1.134 17.8937 0.004 16.2437 0.004H2.7437C1.1037 0.004 0.0037 1.134 0.0037 2.854ZM3.7837 7.714C3.3937 7.714 3.0937 7.424 3.0937 7.014V3.894C3.0937 3.504 3.3737 3.214 3.7837 3.214C4.1837 3.214 4.4737 3.484 4.4737 3.894V7.014C4.4737 7.414 4.1937 7.714 3.7837 7.714ZM0.0037 25.454H19.0037V11.884H0.0037ZM3.7837 18.414C3.3937 18.414 3.0937 18.144 3.0937 17.734V14.614C3.0937 14.214 3.3737 13.934 3.7837 13.934C4.1837 13.934 4.4737 14.204 4.4737 14.614V17.734C4.4737 18.124 4.1937 18.414 3.7837 18.414ZM0.0037 27.054V28.084C0.0037 29.804 1.1037 30.944 2.7437 30.944H16.2437C17.8937 30.944 19.0037 29.804 19.0037 28.084V27.054Z"
        fillRule="evenodd"
        clipRule="evenodd"
    />
</svg>
        