<svg viewBox="0 0 29.189453125 24.349609375" xmlns="http://www.w3.org/2000/svg"><path d="M1.1637 12.6417C1.8137 12.6417 2.3237 12.1417 2.3237 11.4817V10.1817C2.3237 7.8317 3.9237 6.3017 6.3937 6.3017H17.0637V9.5117C17.0637 10.0617 17.3937 10.3817 17.9537 10.3817C18.1937 10.3817 18.4537 10.2817 18.6437 10.1217L23.8137 5.8417C24.2537 5.4817 24.2837 4.9217 23.8137 4.5417L18.6437 0.2417C18.4537 0.0817 18.1937 0.0017 17.9537 0.0017C17.3937 0.0017 17.0637 0.3017 17.0637 0.8617V4.0317H6.6137C2.6137 4.0317 0.0037 6.3117 0.0037 10.0217V11.4817C0.0037 12.1417 0.4937 12.6417 1.1637 12.6417ZM28.0237 11.6717C27.3537 11.6717 26.8637 12.1717 26.8637 12.8417V14.1317C26.8637 16.4917 25.2637 18.0017 22.7737 18.0017H12.1137V14.8317C12.1137 14.2717 11.8037 13.9717 11.2337 13.9717C10.9737 13.9717 10.7337 14.0517 10.5237 14.2217L5.3637 18.5017C4.9237 18.8817 4.9037 19.4317 5.3637 19.8017L10.5237 24.0917C10.7337 24.2517 10.9737 24.3517 11.2337 24.3517C11.8037 24.3517 12.1137 24.0317 12.1137 23.4917V20.2917H22.5537C26.5737 20.2917 29.1937 18.0017 29.1937 14.3017V12.8417C29.1937 12.1717 28.6837 11.6717 28.0237 11.6717Z" /></svg>