
<svg
    viewBox="0 0 27.890625 27.890625"
    xmlns="http://www.w3.org/2000/svg"
>
    <path
        fill="inherit"
        d="M13.9427 27.8864C21.6427 27.8864 27.8927 21.6264 27.8927 13.9464C27.8927 6.2464 21.6427 -0.0036 13.9427 -0.0036C6.2627 -0.0036 0.0027 6.2464 0.0027 13.9464C0.0027 21.6264 6.2627 27.8864 13.9427 27.8864ZM4.8827 13.9064V13.0664C4.8827 10.7764 6.4927 9.3264 9.0127 9.3264H12.4427V7.6064C12.4427 7.1864 12.7027 6.9364 13.1227 6.9364C13.3127 6.9364 13.4927 6.9864 13.6427 7.1064L16.7227 9.6664C17.0927 9.9564 17.0927 10.3864 16.7227 10.6864L13.6427 13.2464C13.4927 13.3564 13.3127 13.4264 13.1227 13.4264C12.7027 13.4264 12.4427 13.1764 12.4427 12.7664V11.0064H8.8427C7.4627 11.0064 6.5627 11.8964 6.5627 13.1964V13.9064C6.5627 14.3664 6.1827 14.7564 5.7127 14.7564C5.2527 14.7564 4.8827 14.3664 4.8827 13.9064ZM20.8727 12.4264C20.3327 12.4264 19.9727 12.0764 19.9727 11.5264V8.6964L20.0927 8.5964H19.9727V8.6964L19.2627 9.2664C19.1227 9.3764 18.9727 9.4164 18.8227 9.4164C18.4727 9.4164 18.2127 9.1564 18.2127 8.8364C18.2127 8.5964 18.2827 8.4364 18.4827 8.2764L19.5827 7.4464C19.9927 7.1264 20.2927 7.0164 20.7127 7.0164C21.3327 7.0164 21.7527 7.4264 21.7527 8.0664V11.5264C21.7527 12.0764 21.4127 12.4264 20.8727 12.4264ZM21.7227 14.7564V15.5864C21.7227 17.8664 20.1127 19.3364 17.5827 19.3364H12.4027V21.0864C12.4027 21.4964 12.1527 21.7364 11.7127 21.7364C11.5227 21.7364 11.3427 21.6864 11.1927 21.5564L8.1227 19.0164C7.7627 18.7264 7.7527 18.2664 8.1027 17.9964L11.1927 15.4364C11.3427 15.3164 11.5227 15.2564 11.7127 15.2564C12.1427 15.2564 12.4027 15.5064 12.4027 15.9164V17.6464H17.7427C19.1227 17.6464 20.0327 16.7764 20.0327 15.4664V14.7564C20.0327 14.2864 20.4127 13.9164 20.8727 13.9164C21.3427 13.9164 21.7227 14.2864 21.7227 14.7564Z"
        fillRule="evenodd"
        clipRule="evenodd"
    />
</svg>
        