
<svg
    viewBox="0 0 29.244140625 24.74609375"
    xmlns="http://www.w3.org/2000/svg"
>
    <path
        fill="inherit"
        d="M28.0437 9.1182C28.7937 9.1182 29.2437 8.6582 29.2437 7.8882V1.5182C29.2437 0.5982 28.6437 -0.0018 27.7637 -0.0018C27.0537 -0.0018 26.6237 0.2282 26.0537 0.6682L24.2237 2.0682C23.9437 2.2982 23.8537 2.4982 23.8537 2.7782C23.8537 3.1882 24.1737 3.4982 24.6537 3.4982C24.8437 3.4982 25.0337 3.4482 25.2137 3.2982L26.6737 2.1282H26.8137V7.8882C26.8137 8.6582 27.2737 9.1182 28.0437 9.1182ZM1.1637 13.0382C1.8137 13.0382 2.3237 12.5382 2.3237 11.8782V10.5782C2.3237 8.2282 3.9237 6.6982 6.3937 6.6982H14.1337V9.9082C14.1337 10.4582 14.4637 10.7782 15.0237 10.7782C15.2737 10.7782 15.5137 10.6782 15.7237 10.5182L20.8937 6.2382C21.3437 5.8682 21.3537 5.3182 20.8937 4.9382L15.7237 0.6382C15.5137 0.4782 15.2737 0.3982 15.0237 0.3982C14.4637 0.3982 14.1337 0.6982 14.1337 1.2582V4.4282H6.6137C2.6137 4.4282 0.0037 6.7082 0.0037 10.4182V11.8782C0.0037 12.5382 0.4937 13.0382 1.1637 13.0382ZM28.0237 12.0682C27.3537 12.0682 26.8637 12.5682 26.8637 13.2382V14.5282C26.8637 16.8882 25.2637 18.3982 22.7737 18.3982H12.1137V15.2282C12.1137 14.6682 11.8037 14.3682 11.2337 14.3682C10.9737 14.3682 10.7337 14.4482 10.5237 14.6182L5.3637 18.8982C4.9237 19.2782 4.9037 19.8282 5.3637 20.1982L10.5237 24.4882C10.7337 24.6482 10.9737 24.7482 11.2337 24.7482C11.8037 24.7482 12.1137 24.4282 12.1137 23.8882V20.6882H22.5537C26.5737 20.6882 29.1937 18.3982 29.1937 14.6982V13.2382C29.1937 12.5682 28.6837 12.0682 28.0237 12.0682Z"
        fillRule="evenodd"
        clipRule="evenodd"
    />
</svg>
        