
<svg
    viewBox={0 0 27.890625 27.890625}
    xmlns="http://www.w3.org/2000/svg"
>
    <path
        fill="inherit"
        d="M13.9427 27.8864C21.6427 27.8864 27.8927 21.6464 27.8927 13.9464C27.8927 6.2464 21.6427 -0.0036 13.9427 -0.0036C6.2527 -0.0036 0.0027 6.2464 0.0027 13.9464C0.0027 21.6464 6.2527 27.8864 13.9427 27.8864ZM13.9427 25.5664C7.5227 25.5664 2.3227 20.3664 2.3227 13.9464C2.3227 7.5164 7.5227 2.3264 13.9427 2.3264C20.3727 2.3264 25.5627 7.5164 25.5627 13.9464C25.5627 20.3664 20.3727 25.5664 13.9427 25.5664ZM5.1227 13.9164C5.1227 14.3664 5.4827 14.7364 5.9327 14.7364C6.3827 14.7364 6.7527 14.3664 6.7527 13.9164V13.2364C6.7527 11.9664 7.6327 11.1064 8.9727 11.1064H12.4527V12.8064C12.4527 13.2064 12.7127 13.4564 13.1127 13.4564C13.3027 13.4564 13.4827 13.3864 13.6127 13.2764L16.5927 10.7964C16.9527 10.5164 16.9527 10.0864 16.5927 9.8164L13.6127 7.3264C13.4827 7.2164 13.3027 7.1664 13.1127 7.1664C12.7127 7.1664 12.4527 7.4064 12.4527 7.8064V9.4864H9.1327C6.6827 9.4864 5.1227 10.8864 5.1227 13.1064ZM20.6327 12.4864C21.1527 12.4864 21.4827 12.1364 21.4827 11.6064V8.2564C21.4827 7.6464 21.0727 7.2364 20.4627 7.2364C20.0527 7.2364 19.7727 7.3464 19.3727 7.6564L18.3227 8.4664C18.1127 8.6164 18.0427 8.7764 18.0427 8.9964C18.0427 9.3064 18.3027 9.5664 18.6527 9.5664C18.7827 9.5664 18.9327 9.5264 19.0727 9.4164L19.7527 8.8764V11.6064C19.7527 12.1364 20.0927 12.4864 20.6327 12.4864ZM21.4527 14.7364C21.4527 14.2864 21.0827 13.9364 20.6327 13.9364C20.1827 13.9364 19.8127 14.2864 19.8127 14.7364V15.4264C19.8127 16.7064 18.9327 17.5564 17.5927 17.5564H12.4127V15.8764C12.4127 15.4764 12.1527 15.2264 11.7627 15.2264C11.5627 15.2264 11.3927 15.2864 11.2527 15.4064L8.2627 17.8864C7.9127 18.1464 7.9327 18.5964 8.2727 18.8664L11.2527 21.3464C11.3927 21.4464 11.5627 21.5064 11.7627 21.5064C12.1727 21.5064 12.4127 21.2764 12.4127 20.8764V19.1664H17.4327C19.8927 19.1664 21.4527 17.7564 21.4527 15.5464Z"
        fillRule="evenodd"
        clipRule="evenodd"
    />
</svg>
        