
<svg
    viewBox={0 0 27.890625 27.890625}
    xmlns="http://www.w3.org/2000/svg"
>
    <path
        fill="inherit"
        d="M13.9427 27.8864C21.6427 27.8864 27.8927 21.6264 27.8927 13.9464C27.8927 6.2464 21.6427 -0.0036 13.9427 -0.0036C6.2627 -0.0036 0.0027 6.2464 0.0027 13.9464C0.0027 21.6264 6.2627 27.8864 13.9427 27.8864ZM5.1127 12.6564C5.1127 10.2664 6.8227 8.7064 9.4427 8.7064H14.8327V6.9564C14.8327 6.4964 15.1327 6.1964 15.6027 6.1964C15.7927 6.1964 16.0227 6.2764 16.1827 6.4164L19.3727 9.0764C19.7727 9.4064 19.7727 9.9164 19.3727 10.2364L16.1827 12.8964C16.0227 13.0264 15.7927 13.0964 15.6027 13.0964C15.1327 13.0964 14.8327 12.8064 14.8327 12.3164V10.5864H9.2927C7.9327 10.5864 7.0027 11.4464 7.0027 12.7564V13.5364C7.0027 14.0364 6.5927 14.4664 6.0427 14.4664C5.5327 14.4664 5.1127 14.0364 5.1127 13.5364ZM22.7927 15.2764C22.7927 17.6764 21.0827 19.2364 18.4527 19.2364H13.0727V20.9864C13.0727 21.4664 12.7827 21.7664 12.3027 21.7664C12.1127 21.7664 11.8927 21.6864 11.7327 21.5464L8.5327 18.8764C8.1327 18.5564 8.1327 18.0364 8.5327 17.7064L11.7327 15.0664C11.8827 14.9464 12.1127 14.8564 12.3027 14.8564C12.7827 14.8564 13.0727 15.1464 13.0727 15.6264V17.3664H18.6027C19.9727 17.3664 20.9027 16.5064 20.9027 15.1764V14.4064C20.9027 13.8764 21.3027 13.4764 21.8627 13.4764C22.3927 13.4764 22.7927 13.8764 22.7927 14.4064Z"
        fillRule="evenodd"
        clipRule="evenodd"
    />
</svg>
        