
<svg
    viewBox="0 0 27.890625 27.890625"
    xmlns="http://www.w3.org/2000/svg"
>
    <path
        fill="inherit"
        d="M13.9427 27.8927C21.6427 27.8927 27.8927 21.6427 27.8927 13.9427C27.8927 6.2627 21.6427 0.0027 13.9427 0.0027C6.2627 0.0027 0.0027 6.2627 0.0027 13.9427C0.0027 21.6427 6.2627 27.8927 13.9427 27.8927ZM7.5327 12.4727L15.9527 7.4527C17.0227 6.8327 18.4827 7.2427 18.4827 8.7527V19.1227C18.4827 20.6327 17.0227 21.0427 15.9527 20.4227L7.5027 15.4327C6.4127 14.7627 6.3827 13.1627 7.5327 12.4727ZM9.7227 13.8327C9.6427 13.8927 9.6127 14.0127 9.7327 14.0827L15.9427 17.7427C16.0927 17.8427 16.2027 17.7727 16.2027 17.6327V10.2427C16.2027 10.1027 16.0927 10.0527 15.9427 10.1327Z"
        fillRule="evenodd"
        clipRule="evenodd"
    />
</svg>
        