
<svg
    viewBox="0 0 20.658203125 23.146484375"
    xmlns="http://www.w3.org/2000/svg"
>
    <path
        fill="inherit"
        d="M19.0325 23.1438C20.0325 23.1438 20.6625 22.3638 20.6625 21.1738V1.9538C20.6625 0.7638 20.0325 0.0038 19.0325 0.0038C18.4725 0.0038 18.0225 0.2038 17.4625 0.5238L1.5325 9.7438C0.3825 10.4038 0.0025 10.8438 0.0025 11.5638C0.0025 12.2938 0.3825 12.7238 1.5325 13.3938L17.4625 22.6138C18.0225 22.9238 18.4725 23.1438 19.0325 23.1438ZM18.3225 20.5338C18.2625 20.5338 18.2125 20.5038 18.1525 20.4838L3.0325 11.7138C2.9625 11.6938 2.9025 11.6338 2.9025 11.5638C2.9025 11.4938 2.9625 11.4538 3.0325 11.4138L18.1525 2.6638C18.2125 2.6238 18.2625 2.5938 18.3225 2.5938C18.4025 2.5938 18.4525 2.6538 18.4525 2.7638V20.3738C18.4525 20.4838 18.4025 20.5338 18.3225 20.5338Z"
        fillRule="evenodd"
        clipRule="evenodd"
    />
</svg>
        