
<svg
    viewBox={0 0 27.890625 27.890625}
    xmlns="http://www.w3.org/2000/svg"
>
    <path
        fill="inherit"
        d="M13.9427 27.8864C21.6427 27.8864 27.8927 21.6464 27.8927 13.9464C27.8927 6.2464 21.6427 -0.0036 13.9427 -0.0036C6.2527 -0.0036 0.0027 6.2464 0.0027 13.9464C0.0027 21.6464 6.2527 27.8864 13.9427 27.8864ZM13.9427 25.5664C7.5227 25.5664 2.3227 20.3664 2.3227 13.9464C2.3227 7.5164 7.5227 2.3264 13.9427 2.3264C20.3727 2.3264 25.5627 7.5164 25.5627 13.9464C25.5627 20.3664 20.3727 25.5664 13.9427 25.5664ZM7.6827 12.5264C6.5627 13.1964 6.5927 14.7364 7.6527 15.3664L15.8627 20.2164C16.8727 20.8264 18.2927 20.4264 18.2927 18.9664V8.9164C18.2927 7.4464 16.8727 7.0364 15.8627 7.6564ZM9.8027 13.8264L15.8327 10.2364C15.9927 10.1464 16.0927 10.2164 16.0927 10.3364V17.5364C16.0927 17.6664 15.9927 17.7164 15.8327 17.6364L9.8127 14.0864C9.6827 14.0164 9.7027 13.8864 9.8027 13.8264Z"
        fillRule="evenodd"
        clipRule="evenodd"
    />
</svg>
        