
<svg
    viewBox="0 0 39.01953125 26.66015625"
    xmlns="http://www.w3.org/2000/svg"
>
    <path
        fill="inherit"
        d="M19.5127 26.6612C26.8827 26.6612 32.8527 20.6812 32.8527 13.3312C32.8527 5.9612 26.8827 0.0012 19.5127 0.0012C12.1527 0.0012 6.1827 5.9612 6.1827 13.3312C6.1827 20.6812 12.1527 26.6612 19.5127 26.6612ZM39.0227 13.3312C39.0227 8.9912 37.6227 5.0012 35.2327 1.7612C34.8127 1.1912 34.0827 1.1212 33.5327 1.5612C33.0327 1.9812 32.9927 2.6512 33.3727 3.1712C35.4627 6.0312 36.6827 9.5312 36.6827 13.3312C36.6827 17.1212 35.4627 20.6312 33.3727 23.4612C32.9927 24.0112 33.0427 24.6612 33.5327 25.0912C34.0827 25.5212 34.8127 25.4712 35.2327 24.8812C37.6227 21.6412 39.0227 17.6612 39.0227 13.3312ZM0.0027 13.3312C0.0027 17.6612 1.4127 21.6412 3.7827 24.8812C4.2127 25.4712 4.9327 25.5212 5.4827 25.0912C5.9727 24.6612 6.0427 24.0112 5.6427 23.4612C3.5727 20.6312 2.3427 17.1212 2.3427 13.3312C2.3427 9.5312 3.5727 6.0312 5.6427 3.1712C6.0427 2.6512 5.9927 1.9812 5.4827 1.5612C4.9327 1.1212 4.2127 1.1912 3.7827 1.7612C1.4127 5.0012 0.0027 8.9912 0.0027 13.3312ZM19.5127 24.3312C13.4427 24.3312 8.5027 19.4012 8.5027 13.3312C8.5027 7.2412 13.4427 2.3112 19.5127 2.3112C25.5927 2.3112 30.5327 7.2412 30.5327 13.3312C30.5327 19.4012 25.5927 24.3312 19.5127 24.3312ZM10.6827 13.3312C10.6827 15.8212 12.2527 17.4912 14.6127 17.4912C15.8627 17.4912 16.9027 16.9512 18.0427 15.8712L19.5327 14.4512L21.0227 15.8712C22.2027 16.9912 23.2427 17.4912 24.4627 17.4912C26.8227 17.4912 28.4127 15.8212 28.4127 13.3312C28.4127 10.8412 26.8227 9.1612 24.4627 9.1612C23.2327 9.1612 22.1927 9.6612 21.0227 10.7912L19.5327 12.2112L18.0427 10.7912C16.9127 9.7112 15.8727 9.1712 14.6127 9.1612C12.2527 9.1612 10.6827 10.8412 10.6827 13.3312ZM12.3027 13.3312C12.3027 11.8012 13.2227 10.7912 14.6127 10.7912C15.3527 10.7912 16.0127 11.1112 16.9127 11.9612L18.3727 13.3312L16.9127 14.7012C16.0327 15.5012 15.3627 15.8712 14.6127 15.8712C13.2227 15.8712 12.3027 14.8612 12.3027 13.3312ZM20.7027 13.3312L22.1627 11.9612C23.0627 11.1112 23.7227 10.7912 24.4627 10.7912C25.8527 10.7912 26.7827 11.8012 26.7827 13.3312C26.7827 14.8612 25.8527 15.8712 24.4627 15.8712C23.6927 15.8712 23.0327 15.5012 22.1627 14.7012Z"
        fillRule="evenodd"
        clipRule="evenodd"
    />
</svg>
        