
<svg
    viewBox="0 0 39.01953125 31.710226087405378"
    xmlns="http://www.w3.org/2000/svg"
>
    <path
        fill="inherit"
        d="M35.1327 31.3978C35.5427 30.9878 35.5427 30.3178 35.1327 29.9078L5.5327 0.3078C5.1227 -0.1022 4.4527 -0.1122 4.0327 0.3078C3.6327 0.7078 3.6327 1.3978 4.0327 1.8078L33.6427 31.3978C34.0527 31.8178 34.7427 31.8178 35.1327 31.3978ZM19.4927 2.4878C16.9127 2.4878 14.4827 3.2478 12.4427 4.5678L14.1127 6.2278C15.6927 5.3278 17.5227 4.7978 19.4927 4.7978C25.6027 4.7978 30.5327 9.6878 30.5327 15.8178C30.5327 17.7878 29.9927 19.6278 29.0927 21.2178L30.7527 22.8878C32.0727 20.8478 32.8527 18.3978 32.8527 15.8178C32.8527 8.5278 26.7927 2.4878 19.4927 2.4878ZM35.3027 27.2878C37.6527 24.0578 39.0227 20.1078 39.0227 15.8178C39.0227 11.4778 37.6227 7.4878 35.2327 4.2478C34.8127 3.6778 34.0827 3.5978 33.5327 4.0478C33.0327 4.4678 32.9927 5.1378 33.3727 5.6678C35.4627 8.5178 36.6827 12.0178 36.6827 15.8178C36.6827 19.4578 35.5627 22.8278 33.6227 25.6078ZM5.4827 27.5778C5.9727 27.1478 6.0427 26.4978 5.6427 25.9478C3.5727 23.1178 2.3427 19.6078 2.3427 15.8178C2.3427 12.1378 3.4827 8.7578 5.4427 5.9778L3.7627 4.2878C1.3527 7.5878 0.0027 11.5778 0.0027 15.8178C0.0027 20.1478 1.4127 24.1278 3.7827 27.3678C4.2127 27.9578 4.9327 28.0078 5.4827 27.5778ZM19.5127 29.1478C22.1227 29.1478 24.5827 28.3678 26.6327 27.0278L24.9527 25.3578C23.3627 26.2878 21.5027 26.8178 19.5127 26.8178C13.4127 26.8178 8.5127 21.9278 8.5127 15.8178C8.5127 13.8378 9.0527 11.9578 9.9627 10.3778L8.3027 8.6978C6.9627 10.7478 6.1827 13.2078 6.1827 15.8178C6.1827 23.1078 12.2227 29.1478 19.5127 29.1478ZM28.3927 15.8178C28.3927 13.3278 26.7927 11.6578 24.4427 11.6578C23.3127 11.6578 22.3527 12.0678 21.0827 13.2178L22.2327 14.3678C23.2027 13.5178 23.7927 13.2578 24.4427 13.2578C25.8427 13.2578 26.7527 14.2878 26.7527 15.8178C26.7527 16.7478 26.3427 17.4678 25.6627 17.7878L26.8627 18.9878C27.7927 18.3778 28.3927 17.2378 28.3927 15.8178ZM10.6627 15.8178C10.6627 18.3078 12.2327 19.9578 14.5927 19.9578C15.7327 19.9578 16.7227 19.5078 17.9827 18.3878L16.8327 17.2278C15.8727 18.0678 15.2727 18.3578 14.5927 18.3578C13.1927 18.3578 12.2727 17.3578 12.2727 15.8178C12.2727 14.8578 12.6827 14.1078 13.3727 13.7778L12.1827 12.5778C11.2427 13.2078 10.6627 14.3678 10.6627 15.8178Z"
        fillRule="evenodd"
        clipRule="evenodd"
    />
</svg>
        