<svg viewBox="0 0 28.84765625 25.1015625" xmlns="http://www.w3.org/2000/svg"><path d="M19.5137 25.0981C19.8137 25.0981 20.1637 24.9681 20.3937 24.7281L28.4337 16.8481C28.7137 16.5881 28.8437 16.2581 28.8437 15.9281C28.8437 15.5881 28.7137 15.2681 28.4337 15.0081L20.3937 7.1181C20.1637 6.8881 19.8137 6.7381 19.5137 6.7381C18.7837 6.7381 18.3037 7.2481 18.3037 7.9481C18.3037 8.2981 18.4137 8.5681 18.6337 8.7881L22.5737 12.6281L25.1737 14.8481L21.9537 14.7081H4.5137C3.0637 14.7081 2.4337 14.0781 2.4337 12.5881V4.5081C2.4337 3.0581 3.0637 2.4381 4.5137 2.4381H12.1637C12.9237 2.4381 13.4137 1.8881 13.4137 1.2181C13.4137 0.5481 12.9237 -0.0019 12.1637 -0.0019H4.5137C1.3237 -0.0019 0.0037 1.3281 0.0037 4.5081V12.5881C0.0037 15.6781 1.3237 17.1481 4.5137 17.1481H21.9537L25.1737 17.0081L22.5737 19.2181L18.6337 23.0681C18.4137 23.2881 18.3037 23.5381 18.3037 23.8981C18.3037 24.6081 18.7837 25.0981 19.5137 25.0981Z" /></svg>