
<svg
    viewBox={0 0 21.287109375 28}
    xmlns="http://www.w3.org/2000/svg"
>
    <path
        fill="inherit"
        d="M10.6409 28.0011C11.3909 28.0011 11.7609 27.4911 12.5409 26.4511L20.7009 15.5611C21.0709 15.0511 21.2909 14.5511 21.2909 14.0011C21.2909 13.4411 21.0709 12.9511 20.7009 12.4411L12.5409 1.5311C11.7609 0.5011 11.3909 0.0011 10.6409 0.0011C9.8809 0.0011 9.5109 0.5011 8.7509 1.5311L0.5909 12.4411C0.2009 12.9511 0.0009 13.4411 0.0009 14.0011C0.0009 14.5511 0.2009 15.0511 0.5909 15.5611L8.7509 26.4511C9.5109 27.4911 9.8809 28.0011 10.6409 28.0011ZM10.6409 25.1111C10.5709 25.1111 10.5409 25.0711 10.5009 25.0011L2.6009 14.3711C2.4709 14.2211 2.4609 14.1111 2.4609 14.0011C2.4609 13.8911 2.4709 13.7811 2.6009 13.6311L10.5009 2.9811C10.5409 2.9211 10.5709 2.8811 10.6409 2.8811C10.7009 2.8811 10.7309 2.9211 10.7709 2.9811L18.6909 13.6311C18.8009 13.7811 18.8309 13.8911 18.8309 14.0011C18.8309 14.1111 18.8009 14.2211 18.6909 14.3711L10.7709 25.0011C10.7309 25.0711 10.7009 25.1111 10.6409 25.1111Z"
        fillRule="evenodd"
        clipRule="evenodd"
    />
</svg>
        