
<svg
    viewBox="0 0 22.99609375 29.3125"
    xmlns="http://www.w3.org/2000/svg"
>
    <path
        fill="inherit"
        d="M0.0037 25.0373C0.0037 27.8873 1.4037 29.3173 4.2337 29.3173H18.7537C21.5837 29.3173 22.9937 27.8873 22.9937 25.0373V4.2973C22.9937 1.4473 21.5837 -0.0027 18.7537 -0.0027H4.2337C1.4037 -0.0027 0.0037 1.4473 0.0037 4.2973ZM2.2037 24.9873V4.3373C2.2037 2.9673 2.9237 2.1973 4.3437 2.1973H18.6437C20.0737 2.1973 20.7937 2.9673 20.7937 4.3373V24.9873C20.7937 26.3573 20.0737 27.1073 18.6437 27.1073H4.3437C2.9237 27.1073 2.2037 26.3573 2.2037 24.9873ZM5.3337 13.0573C5.7037 13.0573 5.9337 12.8673 6.0537 12.3973L6.5237 11.0473H9.0937L9.5837 12.3973C9.7037 12.8473 9.9437 13.0573 10.2937 13.0573C10.7637 13.0573 11.0237 12.7973 11.0237 12.3573C11.0237 12.2673 10.9937 12.0873 10.9337 11.9073L8.9237 6.3473C8.7237 5.7673 8.3837 5.4973 7.7937 5.4973C7.2437 5.4973 6.9137 5.7673 6.7137 6.3473L4.7037 11.9073C4.6337 12.0673 4.6037 12.2673 4.6037 12.3573C4.6037 12.7973 4.8837 13.0573 5.3337 13.0573ZM13.3937 7.8573H17.5637C18.0437 7.8573 18.4137 7.4873 18.4137 7.0173C18.4137 6.5473 18.0437 6.1773 17.5637 6.1773H13.3937C12.8937 6.1773 12.5337 6.5473 12.5337 7.0173C12.5337 7.4873 12.8937 7.8573 13.3937 7.8573ZM6.8337 9.9073L7.7637 7.0373H7.8437L8.7937 9.9073ZM13.3937 12.6373H17.5637C18.0437 12.6373 18.4137 12.2673 18.4137 11.7873C18.4137 11.3173 18.0437 10.9473 17.5637 10.9473H13.3937C12.8937 10.9473 12.5337 11.3173 12.5337 11.7873C12.5337 12.2673 12.8937 12.6373 13.3937 12.6373ZM4.5437 23.9373H5.4937L7.3037 22.1173C7.5637 21.8773 7.8337 21.7773 8.1037 21.7773C8.3837 21.7773 8.6837 21.8873 8.9437 22.1173L10.0637 23.1473L12.8637 20.6573C13.1837 20.3873 13.5037 20.2573 13.8237 20.2573C14.1637 20.2573 14.5237 20.3673 14.7637 20.6573L17.5037 23.8073H18.4537V17.2673C18.4537 16.0673 17.8237 15.4473 16.6237 15.4473H6.3837C5.2237 15.4473 4.5437 16.0673 4.5437 17.2673ZM9.0537 20.6573C8.2337 20.6573 7.5737 19.9773 7.5737 19.1773C7.5737 18.3573 8.2337 17.6773 9.0537 17.7073C9.8537 17.7373 10.5237 18.3573 10.5237 19.1773C10.5237 19.9773 9.8537 20.6573 9.0537 20.6573Z"
        fillRule="evenodd"
        clipRule="evenodd"
    />
</svg>
        