
<svg
    viewBox="0 0 13.58984375 19.892578125"
    xmlns="http://www.w3.org/2000/svg"
>
    <path
        fill="inherit"
        d="M1.2037 19.8965C1.9237 19.8965 2.3937 19.4165 2.3937 18.6665V11.9365H6.7637C6.8737 11.9365 7.0137 11.9365 7.1237 11.9365L11.1537 19.1565C11.4437 19.6865 11.7837 19.8965 12.2937 19.8965C12.9737 19.8965 13.5037 19.4265 13.5037 18.7665C13.5037 18.5165 13.4137 18.2665 13.2637 17.9765L9.5837 11.5365C12.1037 10.7565 13.5937 8.6365 13.5937 5.9065C13.5937 2.2965 11.0637 -0.0035 7.1937 -0.0035H1.2037C0.5037 -0.0035 0.0037 0.5065 0.0037 1.2165V18.6665C0.0037 19.4165 0.4637 19.8965 1.2037 19.8965ZM2.3937 9.7765V2.1765H6.9337C9.5937 2.1765 11.1337 3.5565 11.1337 5.9765C11.1337 8.4065 9.6637 9.7765 7.0137 9.7765Z"
        fillRule="evenodd"
        clipRule="evenodd"
    />
</svg>
        