
<svg
    viewBox="0 0 27.890625 27.890625"
    xmlns="http://www.w3.org/2000/svg"
>
    <path
        fill="inherit"
        d="M13.9427 27.8864C21.6427 27.8864 27.8927 21.6264 27.8927 13.9464C27.8927 6.2464 21.6427 -0.0036 13.9427 -0.0036C6.2627 -0.0036 0.0027 6.2464 0.0027 13.9464C0.0027 21.6264 6.2627 27.8864 13.9427 27.8864ZM10.3227 20.4164C9.6127 20.4164 9.2127 19.8964 9.2127 19.1364V8.6664C9.2127 7.9064 9.5927 7.3864 10.3127 7.3864H14.3727C17.2227 7.3864 19.0427 8.9964 19.0427 11.5364C19.0427 13.2864 17.9827 14.7664 16.3227 15.3164L18.4327 18.6164C18.6027 18.9064 18.6927 19.1264 18.6927 19.4364C18.6927 20.0164 18.2627 20.4164 17.6627 20.4164C17.1627 20.4164 16.8727 20.2064 16.5327 19.6564L14.0927 15.6364H11.4727V19.1364C11.4727 19.9164 11.0627 20.4164 10.3227 20.4164ZM11.4727 13.9864H14.0427C15.7327 13.9864 16.8127 13.1264 16.8127 11.5964C16.8127 10.0264 15.7127 9.1164 14.0927 9.1164H11.4727Z"
        fillRule="evenodd"
        clipRule="evenodd"
    />
</svg>
        