
<svg
    viewBox="0 0 32.23828125 24.541015625"
    xmlns="http://www.w3.org/2000/svg"
>
    <path
        fill="inherit"
        d="M10.7737 24.5384H21.4637C29.3937 24.5384 32.2337 21.5984 32.2337 14.2884V10.2684C32.2337 2.9484 29.3937 -0.0016 21.4637 -0.0016H10.7737C2.8437 -0.0016 0.0037 2.9484 0.0037 10.2684V14.2884C0.0037 21.5984 2.8437 24.5384 10.7737 24.5384ZM16.4837 18.1884C15.9237 18.1884 15.5737 17.7984 15.5737 17.1984V7.8584C15.5737 6.9584 16.1237 6.4084 17.0337 6.4084C17.8037 6.4084 18.2937 6.8084 18.4537 7.5984L20.4137 15.2684H20.4637L22.3837 7.5984C22.5537 6.8084 23.0337 6.4084 23.8537 6.4084C24.7437 6.4084 25.2937 6.9284 25.2937 7.8584V17.1984C25.2937 17.7984 24.9937 18.1884 24.3737 18.1884C23.8037 18.1884 23.4737 17.7984 23.4737 17.1984V9.5984H23.3837L21.4737 17.0184C21.3237 17.5984 21.0437 17.9784 20.4437 17.9784C19.8837 17.9784 19.5537 17.5784 19.4137 17.0384L17.5037 9.5984H17.4137V17.1984C17.4137 17.7984 17.0537 18.1884 16.4837 18.1884ZM7.7537 18.1684C7.0937 18.1684 6.7137 17.7484 6.7137 17.0884V7.6684C6.7137 6.9984 7.0837 6.5884 7.7337 6.5884H10.1437C12.3437 6.5884 13.7037 7.8184 13.7037 10.1184C13.7037 11.3884 13.2237 12.6184 12.0837 13.2084L13.4137 16.3884C13.5337 16.7184 13.6437 17.0084 13.6437 17.1684C13.6437 17.8984 13.1237 18.1684 12.6637 18.1684C12.1037 18.1684 11.7837 17.8584 11.5837 17.3184L10.1137 13.6284H8.7937V17.0884C8.7937 17.7584 8.3937 18.1684 7.7537 18.1684ZM8.7937 12.1084H9.9437C11.1037 12.1084 11.6037 11.2784 11.6037 10.1584C11.6037 9.0384 11.0237 8.2484 9.9437 8.2484H8.7937Z"
        fillRule="evenodd"
        clipRule="evenodd"
    />
</svg>
        