<svg viewBox="0 0 34.49543198470447 20.466796875" xmlns="http://www.w3.org/2000/svg"><path d="M13.4157 3.554H13.9457C14.5657 3.554 14.7957 2.984 14.4557 2.474C13.8557 1.574 13.2357 0.804 12.7557 0.314C12.5257 0.064 12.3157 0.004 11.9357 0.004H11.5257C11.0657 0.004 10.7657 0.394 11.0657 0.844C11.7457 1.884 12.1257 2.544 12.3857 3.004C12.6257 3.434 12.8957 3.554 13.4157 3.554ZM0.9057 20.464H2.5557C3.2557 20.464 3.5857 20.134 3.6957 19.664C5.2757 13.394 5.3857 6.944 3.3057 0.574C3.1757 0.154 2.8857 0.004 2.4357 0.004H1.9057C1.4757 0.004 1.1457 0.264 1.2757 0.804C2.8057 7.504 2.3557 13.204 0.0857 19.234C-0.1643 19.924 0.1357 20.464 0.9057 20.464ZM31.9757 20.464H33.4957C34.3457 20.464 34.6057 19.874 34.4557 19.234C32.5257 10.354 27.4957 4.304 22.6257 0.464C22.1357 0.064 21.8657 0.004 21.5257 0.004H20.9057C20.4957 0.004 20.2257 0.494 20.5657 0.844C26.5757 6.974 29.4057 12.534 30.6457 19.344C30.7457 19.974 31.0257 20.464 31.9757 20.464ZM15.9557 10.254H17.0557C17.7057 10.254 17.8957 9.814 17.7257 9.294C17.3957 8.344 17.0257 7.394 16.7357 6.724C16.5157 6.294 16.2957 6.124 15.7757 6.124H14.9457C14.4257 6.124 14.0557 6.424 14.2857 7.064C14.5857 7.974 14.8357 8.844 14.9757 9.474C15.1057 9.964 15.3657 10.254 15.9557 10.254ZM17.3257 20.464H18.4057C19.0157 20.464 19.3357 20.134 19.3157 19.494C19.2657 17.654 19.0357 15.274 18.6457 13.754C18.5157 13.204 18.1557 13.004 17.6657 13.004H16.8457C16.2057 13.004 15.9057 13.234 16.0157 14.024C16.1857 15.394 16.3257 17.404 16.3657 19.514C16.3657 20.164 16.7057 20.464 17.3257 20.464Z" /></svg>