<svg viewBox="0 0 34.49543198470446 20.466796875" xmlns="http://www.w3.org/2000/svg"><path d="M21.083 3.554C21.603 3.554 21.873 3.434 22.103 3.004C22.363 2.544 22.753 1.884 23.433 0.844C23.733 0.394 23.433 0.004 22.973 0.004H22.553C22.173 0.004 21.973 0.064 21.733 0.314C21.263 0.804 20.643 1.574 20.043 2.474C19.703 2.984 19.933 3.554 20.553 3.554ZM2.513 20.464C3.473 20.464 3.743 19.974 3.853 19.344C5.083 12.534 7.913 6.974 13.933 0.844C14.273 0.494 14.003 0.004 13.593 0.004H12.973C12.633 0.004 12.363 0.064 11.863 0.464C7.003 4.304 1.973 10.354 0.043 19.234C-0.107 19.874 0.153 20.464 0.993 20.464ZM33.593 20.464C34.353 20.464 34.653 19.924 34.413 19.234C32.143 13.204 31.693 7.504 33.223 0.804C33.343 0.264 33.013 0.004 32.593 0.004H32.063C31.613 0.004 31.323 0.154 31.183 0.574C29.103 6.944 29.213 13.394 30.803 19.664C30.913 20.134 31.243 20.464 31.933 20.464ZM18.543 10.254C19.123 10.254 19.383 9.964 19.523 9.474C19.663 8.844 19.903 7.974 20.203 7.064C20.443 6.424 20.073 6.124 19.553 6.124H18.713C18.193 6.124 17.973 6.294 17.763 6.724C17.473 7.394 17.103 8.344 16.763 9.294C16.593 9.814 16.793 10.254 17.443 10.254ZM17.173 20.464C17.783 20.464 18.133 20.164 18.133 19.514C18.173 17.404 18.303 15.394 18.483 14.024C18.593 13.234 18.293 13.004 17.653 13.004H16.833C16.333 13.004 15.983 13.204 15.843 13.754C15.463 15.274 15.233 17.654 15.173 19.494C15.163 20.134 15.473 20.464 16.093 20.464Z" /></svg>