
<svg
    viewBox="0 0 44.283203125 20.466796875"
    xmlns="http://www.w3.org/2000/svg"
>
    <path
        fill="inherit"
        d="M6.1537 20.464H7.9437C8.7637 20.464 9.1637 20.074 9.3937 19.484L16.9437 0.844C17.1337 0.394 16.9137 0.004 16.4437 0.004H15.5437C15.0837 0.004 14.7637 0.234 14.5737 0.644L5.1937 18.954C4.8237 19.644 5.0837 20.464 6.1537 20.464ZM36.3437 20.464H38.1337C39.1837 20.464 39.4537 19.644 39.0837 18.954L29.7237 0.644C29.5037 0.234 29.2037 0.004 28.7337 0.004H27.8337C27.3537 0.004 27.1537 0.394 27.3437 0.844L34.8737 19.484C35.1137 20.074 35.5237 20.464 36.3437 20.464ZM1.2437 11.474L6.0937 8.514C6.7137 8.134 6.7037 7.414 6.0937 7.044L1.2337 4.064C0.5837 3.664 0.0037 4.004 0.0037 4.734V10.814C0.0037 11.554 0.6037 11.864 1.2437 11.474ZM43.0437 11.474C43.6937 11.854 44.2837 11.554 44.2837 10.814V4.734C44.2837 4.004 43.6937 3.674 43.0437 4.064L38.1837 7.044C37.5837 7.424 37.5737 8.124 38.1837 8.514Z"
        fillRule="evenodd"
        clipRule="evenodd"
    />
</svg>
        