
<svg
    viewBox="0 0 30.7890625 23.343257471843252"
    xmlns="http://www.w3.org/2000/svg"
>
    <path
        fill="inherit"
        d="M15.3927 10.9642C22.5827 10.9642 30.5827 8.5142 30.5827 5.4642C30.5827 2.4442 23.7927 0.0042 15.3927 0.0042C7.0027 0.0042 0.2027 2.4442 0.2027 5.4642C0.2027 8.5142 8.2127 10.9642 15.3927 10.9642ZM15.3927 5.6742C12.6327 5.6742 11.0927 4.9442 11.0927 3.8642C11.0927 2.8142 12.5927 2.0542 15.3927 2.0542C18.2127 2.0542 19.7127 2.8142 19.7127 3.8642C19.7127 4.9442 18.1727 5.6742 15.3927 5.6742ZM15.3927 4.5842C17.1427 4.5842 18.0427 4.2642 18.0427 3.8642C18.0427 3.4742 17.2027 3.1342 15.3927 3.1342C13.5927 3.1342 12.7327 3.4742 12.7327 3.8642C12.7327 4.2642 13.6427 4.5842 15.3927 4.5842ZM10.5827 8.5842C9.7927 8.5842 9.1327 8.2742 9.1327 7.8842C9.1327 7.4942 9.7927 7.1742 10.5827 7.1742C11.3727 7.1742 12.0327 7.4942 12.0327 7.8842C12.0327 8.2742 11.3727 8.5842 10.5827 8.5842ZM20.2227 8.5842C19.4327 8.5842 18.7727 8.2742 18.7727 7.8842C18.7727 7.4942 19.4327 7.1742 20.2227 7.1742C21.0127 7.1742 21.6727 7.4942 21.6727 7.8842C21.6727 8.2742 21.0127 8.5842 20.2227 8.5842ZM15.3927 9.1442C14.6127 9.1442 13.9627 8.8342 13.9627 8.4342C13.9627 8.0542 14.6127 7.7242 15.3927 7.7242C16.1827 7.7242 16.8427 8.0542 16.8427 8.4342C16.8427 8.8342 16.1827 9.1442 15.3927 9.1442ZM8.4227 23.2242L15.3927 19.2942L22.3927 23.2242C22.8027 23.4742 23.3427 23.3142 23.5727 22.8742C23.8027 22.4942 23.6527 21.9442 23.2427 21.7242L18.6727 19.1642C25.5527 18.5942 30.7927 16.2442 30.7927 12.7242V8.2442C28.6827 10.6742 22.7727 12.6842 15.3927 12.6842C8.0127 12.6842 2.1027 10.6742 0.0027 8.2442V12.7242C0.0027 16.2442 5.2327 18.5942 12.1227 19.1642L7.5627 21.7242C7.1527 21.9442 7.0027 22.4942 7.2327 22.8742C7.4627 23.3142 8.0027 23.4742 8.4227 23.2242Z"
        fillRule="evenodd"
        clipRule="evenodd"
    />
</svg>
        