
<svg
    viewBox={0 0 30.529296875 27.91796875}
    xmlns="http://www.w3.org/2000/svg"
>
    <path
        fill="inherit"
        d="M0.0037 2.6001C0.0037 4.0301 1.1637 5.2001 2.5937 5.2001C4.0337 5.2001 5.1937 4.0301 5.1937 2.6001C5.1937 1.1601 4.0337 0.0001 2.5937 0.0001C1.1637 0.0001 0.0037 1.1601 0.0037 2.6001ZM9.3937 27.9201H27.9337C29.3537 27.9201 30.5337 26.7601 30.5337 25.3201V2.6001C30.5337 1.1601 29.3537 0.0001 27.9337 0.0001H5.8937C6.5037 0.6301 6.7937 1.4501 6.7937 2.6001V25.3201C6.7937 26.7601 7.9537 27.9201 9.3937 27.9201ZM1.6637 7.3601C1.6637 7.8501 2.0937 8.2901 2.5937 8.2901C3.1137 8.2901 3.5437 7.8501 3.5437 7.3601C3.5437 6.8401 3.1137 6.4101 2.5937 6.4101C2.0937 6.4101 1.6637 6.8401 1.6637 7.3601ZM1.6637 10.4501C1.6637 10.9401 2.0937 11.3701 2.5937 11.3701C3.1137 11.3701 3.5437 10.9401 3.5437 10.4501C3.5437 9.9301 3.1137 9.5001 2.5937 9.5001C2.0937 9.5001 1.6637 9.9301 1.6637 10.4501ZM1.5037 16.9101C1.5037 17.5101 2.0137 18.0201 2.5937 18.0201C3.2037 18.0201 3.7037 17.5101 3.7037 16.9101V13.7001C3.7037 13.1001 3.2037 12.5901 2.5937 12.5901C1.9937 12.5901 1.5037 13.1001 1.5037 13.7001Z"
        fillRule="evenodd"
        clipRule="evenodd"
    />
</svg>
        