
<svg
    viewBox="0 0 29.025390625 27.91796875"
    xmlns="http://www.w3.org/2000/svg"
>
    <path
        fill="inherit"
        d="M0.0027 1.0901C0.0027 1.7001 0.5027 2.2001 1.1027 2.2001H27.9227C28.5227 2.2001 29.0227 1.7001 29.0227 1.0901C29.0227 0.4901 28.5227 0.0001 27.9227 0.0001H1.1027C0.5027 0.0001 0.0027 0.4901 0.0027 1.0901ZM1.1027 5.3701C1.6127 5.3701 2.0327 4.9501 2.0327 4.4401C2.0327 3.9201 1.6127 3.5101 1.1027 3.5101C0.5927 3.5101 0.1627 3.9201 0.1627 4.4401C0.1627 4.9501 0.5927 5.3701 1.1027 5.3701ZM4.6927 7.9801H26.9327C27.5127 7.9801 27.9227 7.5701 27.9227 7.0001V4.6501C27.9227 4.0901 27.5127 3.6601 26.9327 3.6601H4.6927C4.1127 3.6601 3.6927 4.0901 3.6927 4.6501V7.0001C3.6927 7.5701 4.1127 7.9801 4.6927 7.9801ZM1.1027 8.5401C1.6127 8.5401 2.0327 8.1101 2.0327 7.6001C2.0327 7.1001 1.6127 6.6701 1.1027 6.6701C0.5927 6.6701 0.1627 7.1001 0.1627 7.6001C0.1627 8.1101 0.5927 8.5401 1.1027 8.5401ZM1.1027 11.7001C1.6127 11.7001 2.0327 11.2801 2.0327 10.7701C2.0327 10.2501 1.6127 9.8401 1.1027 9.8401C0.5927 9.8401 0.1627 10.2501 0.1627 10.7701C0.1627 11.2801 0.5927 11.7001 1.1027 11.7001ZM6.0027 13.8901H25.6027C26.1827 13.8901 26.6027 13.4701 26.6027 12.9101V9.8401H5.0127V12.9101C5.0127 13.4701 5.4327 13.8901 6.0027 13.8901ZM1.1027 14.8701C1.6127 14.8701 2.0327 14.4401 2.0327 13.9301C2.0327 13.4301 1.6127 13.0001 1.1027 13.0001C0.5927 13.0001 0.1627 13.4301 0.1627 13.9301C0.1627 14.4401 0.5927 14.8701 1.1027 14.8701ZM1.1027 18.0301C1.6127 18.0301 2.0327 17.6101 2.0327 17.1001C2.0327 16.5801 1.6127 16.1701 1.1027 16.1701C0.5927 16.1701 0.1627 16.5801 0.1627 17.1001C0.1627 17.6101 0.5927 18.0301 1.1027 18.0301ZM1.1027 21.2001C1.6127 21.2001 2.0327 20.7701 2.0327 20.2601C2.0327 19.7601 1.6127 19.3301 1.1027 19.3301C0.5927 19.3301 0.1627 19.7601 0.1627 20.2601C0.1627 20.7701 0.5927 21.2001 1.1027 21.2001ZM1.1027 27.9201C1.6927 27.9201 2.2027 27.4301 2.2027 26.8201V23.6001C2.2027 23.0001 1.7127 22.5001 1.1027 22.5001C0.5027 22.5001 0.0027 23.0001 0.0027 23.6001V26.8201C0.0027 27.4301 0.5027 27.9201 1.1027 27.9201Z"
        fillRule="evenodd"
        clipRule="evenodd"
    />
</svg>
        