
<svg
    viewBox={0 0 29.025390625 27.91796875}
    xmlns="http://www.w3.org/2000/svg"
>
    <path
        fill="inherit"
        d="M0.0027 1.0901C0.0027 1.7001 0.5027 2.2001 1.1027 2.2001H27.9227C28.5227 2.2001 29.0227 1.7001 29.0227 1.0901C29.0227 0.4901 28.5227 0.0001 27.9227 0.0001H1.1027C0.5027 0.0001 0.0027 0.4901 0.0027 1.0901ZM1.1027 5.3701C1.6127 5.3701 2.0327 4.9501 2.0327 4.4401C2.0327 3.9201 1.6127 3.5101 1.1027 3.5101C0.5927 3.5101 0.1627 3.9201 0.1627 4.4401C0.1627 4.9501 0.5927 5.3701 1.1027 5.3701ZM4.6927 10.5101H26.9327C27.5127 10.5101 27.9227 10.1001 27.9227 9.5301V4.6501C27.9227 4.0901 27.5127 3.6601 26.9327 3.6601H4.6927C4.1127 3.6601 3.6927 4.0901 3.6927 4.6501V9.5301C3.6927 10.1001 4.1127 10.5101 4.6927 10.5101ZM1.1027 8.5401C1.6127 8.5401 2.0327 8.1101 2.0327 7.6001C2.0327 7.1001 1.6127 6.6701 1.1027 6.6701C0.5927 6.6701 0.1627 7.1001 0.1627 7.6001C0.1627 8.1101 0.5927 8.5401 1.1027 8.5401ZM1.1027 11.7001C1.6127 11.7001 2.0327 11.2801 2.0327 10.7701C2.0327 10.2501 1.6127 9.8401 1.1027 9.8401C0.5927 9.8401 0.1627 10.2501 0.1627 10.7701C0.1627 11.2801 0.5927 11.7001 1.1027 11.7001ZM4.6927 19.2201H26.9327C27.5127 19.2201 27.9227 18.8001 27.9227 18.2401V13.3601C27.9227 12.7801 27.5127 12.3701 26.9327 12.3701H4.6927C4.1127 12.3701 3.6927 12.7801 3.6927 13.3601V18.2401C3.6927 18.8001 4.1127 19.2201 4.6927 19.2201ZM1.1027 18.4201C1.6927 18.4201 2.2027 17.9201 2.2027 17.3201V14.1101C2.2027 13.5101 1.7127 13.0001 1.1027 13.0001C0.5027 13.0001 0.0027 13.5101 0.0027 14.1101V17.3201C0.0027 17.9201 0.5027 18.4201 1.1027 18.4201ZM4.6927 27.9201H26.9327C27.5127 27.9201 27.9227 27.5101 27.9227 26.9501V22.0501C27.9227 21.4901 27.5127 21.0801 26.9327 21.0801H4.6927C4.1127 21.0801 3.6927 21.4901 3.6927 22.0501V26.9501C3.6927 27.5101 4.1127 27.9201 4.6927 27.9201Z"
        fillRule="evenodd"
        clipRule="evenodd"
    />
</svg>
        