
<svg
    viewBox={0 0 21.738309664533826 30.529296875}
    xmlns="http://www.w3.org/2000/svg"
>
    <path
        fill="inherit"
        d="M0.0037 10.9226C0.0037 14.1326 1.4237 17.0526 3.6637 19.0426L3.6737 29.3826C3.6737 30.1826 4.1037 30.5326 4.6637 30.5326C5.1437 30.5326 5.4937 30.2526 5.8637 29.8826L10.3037 25.4726C10.5537 25.2426 10.7237 25.1526 10.8837 25.1526C11.0437 25.1526 11.2237 25.2426 11.4537 25.4726L15.9037 29.8826C16.2837 30.2726 16.6537 30.5326 17.1037 30.5326C17.6937 30.5326 18.1037 30.1826 18.1037 29.3826V19.0026C20.3137 17.0226 21.7237 14.1226 21.7337 10.9226C21.7537 4.9126 16.8337 0.0026 10.8737 0.0026C4.8937 0.0026 0.0037 4.9126 0.0037 10.9226ZM2.2237 10.9226C2.2237 6.0526 6.0137 2.1726 10.8837 2.1726C15.7337 2.1726 19.5237 6.0526 19.5337 10.9226C19.5537 15.7626 15.7337 19.6626 10.8837 19.6426C6.0137 19.6326 2.2237 15.7626 2.2237 10.9226Z"
        fillRule="evenodd"
        clipRule="evenodd"
    />
</svg>
        