
<svg
    viewBox="0 0 27.384765625 29.89375620245656"
    xmlns="http://www.w3.org/2000/svg"
>
    <path
        fill="inherit"
        d="M0.8523 12.1431C1.3123 12.1431 1.7123 11.7631 1.7123 11.3031V9.2531C1.7123 6.3331 3.5823 4.2831 6.5523 4.2831H6.8123V6.0331C6.8123 7.0231 7.5723 7.2531 8.3423 6.6931L11.7823 4.1731C12.3723 3.7531 12.3623 3.2631 11.7823 2.8331L8.3423 0.3031C7.5723 -0.2669 6.8123 -0.0369 6.8123 0.9731V2.7031H6.5323C2.6023 2.7031 0.0023 5.3431 0.0023 9.2531V11.3031C0.0023 11.7631 0.3823 12.1431 0.8523 12.1431ZM23.8723 29.8931C26.2123 29.8931 27.3823 28.7831 27.3823 26.3931V12.8731C27.3823 10.4831 26.2123 9.3631 23.8723 9.3631H10.3223C7.9823 9.3631 6.8123 10.4831 6.8123 12.8731V26.3931C6.8123 28.7831 7.9823 29.8931 10.3223 29.8931Z"
        fillRule="evenodd"
        clipRule="evenodd"
    />
</svg>
        