
<svg
    viewBox="0 0 27.890625 27.890625"
    xmlns="http://www.w3.org/2000/svg"
>
    <path
        fill="inherit"
        d="M13.9427 27.8864C21.6427 27.8864 27.8927 21.6464 27.8927 13.9464C27.8927 6.2464 21.6427 -0.0036 13.9427 -0.0036C6.2527 -0.0036 0.0027 6.2464 0.0027 13.9464C0.0027 21.6464 6.2527 27.8864 13.9427 27.8864ZM13.9427 25.5664C7.5227 25.5664 2.3227 20.3664 2.3227 13.9464C2.3227 7.5164 7.5227 2.3264 13.9427 2.3264C20.3727 2.3264 25.5627 7.5164 25.5627 13.9464C25.5627 20.3664 20.3727 25.5664 13.9427 25.5664ZM12.2927 15.5964C12.8127 15.5964 13.3727 15.6264 13.9427 15.6264C18.6327 15.6264 21.8627 14.8864 21.8727 13.9464C21.8727 9.6064 18.2627 6.0164 13.9327 6.0164C12.9727 6.0264 12.2627 9.2564 12.2627 13.9464C12.2627 14.5164 12.2727 15.0564 12.2927 15.5964ZM11.0327 15.5264C11.0027 15.0164 10.9927 14.4764 10.9927 13.9464C10.9927 10.5264 11.5027 7.7364 12.3027 6.1764C8.7527 6.9464 6.0327 10.1564 6.0127 13.9364C6.0127 14.6864 7.9527 15.2864 11.0327 15.5264ZM11.1127 16.7664C8.9927 16.5664 7.2827 16.1364 6.1827 15.5764C6.8327 18.6164 9.2727 21.0564 12.3027 21.7064C11.7427 20.6064 11.3027 18.8764 11.1127 16.7664ZM12.3627 16.8464C12.5827 19.9164 13.1927 21.8764 13.9427 21.8764C17.7327 21.8564 20.9327 19.1364 21.7127 15.5764C20.1527 16.3764 17.3627 16.8864 13.9427 16.8864C13.4027 16.8864 12.8627 16.8664 12.3627 16.8464Z"
        fillRule="evenodd"
        clipRule="evenodd"
    />
</svg>
        