
<svg
    viewBox="0 0 27.890625 27.890625"
    xmlns="http://www.w3.org/2000/svg"
>
    <path
        fill="inherit"
        d="M13.9427 27.8864C21.6427 27.8864 27.8927 21.6464 27.8927 13.9464C27.8927 6.2464 21.6427 -0.0036 13.9427 -0.0036C6.2527 -0.0036 0.0027 6.2464 0.0027 13.9464C0.0027 21.6464 6.2527 27.8864 13.9427 27.8864ZM11.4427 13.9464C11.4427 6.1964 12.7827 2.3364 13.9327 2.3264H13.9427C20.3727 2.3264 25.5627 7.5164 25.5627 13.9464C25.5627 14.0364 25.5627 14.0564 25.5627 14.0664C25.3027 15.1664 21.4527 16.4164 13.9627 16.4164C13.0827 16.4164 12.2627 16.4064 11.4827 16.3664C11.4527 15.6164 11.4427 14.8064 11.4427 13.9464ZM9.2427 13.9464C9.2427 14.7264 9.2527 15.4864 9.2927 16.2264C4.6527 15.8164 2.3427 14.8164 2.3427 13.9464H2.3227C2.3227 8.5064 6.0427 3.9464 11.0927 2.6764C9.9427 5.0964 9.2427 9.0964 9.2427 13.9464ZM2.6627 16.7664C4.2927 17.5364 6.6327 18.1064 9.4427 18.4064C9.7527 21.2364 10.3127 23.5864 11.0927 25.2064C6.9427 24.1764 3.6927 20.9064 2.6627 16.7664ZM13.9427 25.5664H13.9327C13.0427 25.5664 12.0327 23.2464 11.6227 18.5664C12.3727 18.6064 13.1527 18.6164 13.9627 18.6164C18.8127 18.6164 22.7927 17.9264 25.2227 16.7764C23.9527 21.8364 19.4027 25.5664 13.9427 25.5664Z"
        fillRule="evenodd"
        clipRule="evenodd"
    />
</svg>
        