
<svg
    viewBox={0 0 27.3984375 29.893756202456558}
    xmlns="http://www.w3.org/2000/svg"
>
    <path
        fill="inherit"
        d="M26.5337 12.1431C27.0037 12.1431 27.3937 11.7631 27.3937 11.3031V9.2531C27.3937 5.3431 24.7837 2.7031 20.8637 2.7031H20.5737V0.9731C20.5737 -0.0369 19.8137 -0.2669 19.0437 0.3031L15.6037 2.8331C15.0237 3.2631 15.0137 3.7531 15.6037 4.1731L19.0437 6.6931C19.8137 7.2531 20.5737 7.0231 20.5737 6.0331V4.2831H20.8537C23.8137 4.2831 25.6937 6.3331 25.6937 9.2531V11.3031C25.6937 11.7631 26.0737 12.1431 26.5337 12.1431ZM3.5137 29.8931H17.0637C19.4037 29.8931 20.5737 28.7831 20.5737 26.3931V12.8731C20.5737 10.4831 19.4037 9.3631 17.0637 9.3631H3.5137C1.1737 9.3631 0.0037 10.4831 0.0037 12.8731V26.3931C0.0037 28.7831 1.1737 29.8931 3.5137 29.8931Z"
        fillRule="evenodd"
        clipRule="evenodd"
    />
</svg>
        