
<svg
    viewBox={0 0 35.3828125 23.450325451140163}
    xmlns="http://www.w3.org/2000/svg"
>
    <path
        fill="inherit"
        d="M0.0037 12.7037C0.0037 15.6237 0.4737 16.9637 2.6537 18.0837L10.3537 22.0437C13.1837 23.5037 15.2037 23.8737 18.3737 22.9437L30.2137 19.4937C33.8637 18.4137 35.3837 16.2437 35.3837 12.7037V4.1737C35.3837 1.6937 33.7437 0.0137 31.2837 0.0137L4.1337 0.0037C1.6637 0.0037 0.0037 1.6637 0.0037 4.1337ZM2.2037 12.7037V4.1737C2.2037 2.9837 2.9837 2.2037 4.1737 2.2037L31.2537 2.2137C32.4137 2.2137 33.1837 3.0037 33.1837 4.2137V12.7037C33.1837 15.1937 32.1537 16.6837 29.5837 17.4337L18.3737 20.7537C15.5337 21.6037 13.8737 21.3537 11.5237 20.1637L4.0437 16.3537C2.5837 15.6137 2.2037 14.7237 2.2037 12.7037ZM18.0337 15.7937C20.0737 15.7937 21.3237 14.6437 21.3237 12.6337C21.3237 10.9337 20.4837 10.1437 18.9337 9.5737L18.2137 9.2837C17.3537 8.9537 16.7337 8.5037 16.7337 7.5837C16.7337 6.7937 17.2137 6.2337 17.9937 6.2337C18.8137 6.2337 19.2337 6.8237 19.4037 7.5037C19.5237 7.9537 19.8337 8.1337 20.2637 8.1337C20.7837 8.1337 21.0937 7.8037 21.0937 7.3237C21.0937 7.2037 21.0837 7.0937 21.0237 6.8337C20.6337 5.4437 19.4437 4.6737 17.9937 4.6737C16.1737 4.6737 14.8637 5.8337 14.8637 7.7337C14.8637 9.3937 15.8637 10.2837 17.2037 10.8037L17.9237 11.0737C18.8037 11.4137 19.4537 11.8237 19.4537 12.7937C19.4537 13.6437 18.9337 14.2337 18.0637 14.2337C17.2037 14.2337 16.6837 13.6537 16.5337 12.9437C16.4237 12.4837 16.0737 12.2737 15.6537 12.2737C15.1337 12.2737 14.8037 12.6437 14.8037 13.1537C14.8037 13.3837 14.8237 13.4637 14.9037 13.7037C15.3037 15.0837 16.5437 15.7937 18.0337 15.7937ZM23.9237 15.5737H26.7137C28.5737 15.5737 29.6537 14.3237 29.6537 12.5637C29.6537 11.2837 28.8737 10.1037 27.6337 9.9837V9.9137C28.6337 9.7437 29.3137 8.6237 29.3137 7.5837C29.3137 5.9037 28.1937 4.9337 26.6437 4.9337H23.9237C23.3137 4.9337 22.9837 5.3737 22.9837 5.9437V14.5737C22.9837 15.1737 23.3237 15.5737 23.9237 15.5737ZM7.7937 15.7337C8.3937 15.7337 8.7537 15.3437 8.7537 14.7237V11.4937H9.9937L11.3637 14.9437C11.5537 15.4337 11.8437 15.7337 12.3737 15.7337C12.7937 15.7337 13.2637 15.4737 13.2637 14.7937C13.2637 14.6537 13.1837 14.3837 13.0537 14.0837L11.8137 11.1037C12.8837 10.5537 13.3337 9.4237 13.3337 8.2137C13.3337 6.0837 12.0537 4.9537 10.0037 4.9537H7.7837C7.1637 4.9537 6.8237 5.3137 6.8237 5.9337V14.7237C6.8237 15.3237 7.1637 15.7337 7.7937 15.7337ZM24.8737 9.4437V6.3937H26.1037C27.0837 6.3937 27.4837 7.0237 27.4837 7.8737C27.4837 8.8637 26.9237 9.4437 25.9537 9.4437ZM8.7537 10.0937V6.4637H9.8337C10.8437 6.4637 11.3937 7.2037 11.3937 8.2537C11.3937 9.3137 10.9137 10.0937 9.8337 10.0937ZM24.8737 14.1137V10.7337H26.0837C27.0537 10.7337 27.7237 11.2537 27.7237 12.4137C27.7237 13.4637 27.1937 14.1137 26.1437 14.1137Z"
        fillRule="evenodd"
        clipRule="evenodd"
    />
</svg>
        