
<svg
    viewBox={0 0 35.3828125 23.450325451140163}
    xmlns="http://www.w3.org/2000/svg"
>
    <path
        fill="inherit"
        d="M0.0037 12.7037C0.0037 15.6237 0.4737 16.9637 2.6537 18.0837L10.3537 22.0437C13.1837 23.5037 15.2037 23.8737 18.3737 22.9437L30.2137 19.4937C33.8637 18.4137 35.3837 16.2437 35.3837 12.7037V4.1737C35.3837 1.6937 33.7437 0.0137 31.2837 0.0137L4.1337 0.0037C1.6637 0.0037 0.0037 1.6637 0.0037 4.1337ZM18.0437 16.0137C16.5037 16.0137 15.2137 15.2737 14.8037 13.8337C14.7337 13.6037 14.7237 13.5237 14.7237 13.2737C14.7237 12.7737 15.0637 12.3837 15.5837 12.3837C16.0237 12.3837 16.3837 12.5937 16.4837 13.0537C16.6537 13.8037 17.1837 14.3937 18.0737 14.3937C18.9637 14.3937 19.5137 13.7837 19.5137 12.9237C19.5137 11.9237 18.8237 11.4837 17.9237 11.1437L17.1737 10.8537C15.7937 10.3037 14.7637 9.4037 14.7637 7.6937C14.7637 5.7437 16.1237 4.5437 17.9937 4.5437C19.4937 4.5437 20.7237 5.3337 21.1337 6.7637C21.1937 7.0437 21.1937 7.1637 21.1937 7.2737C21.1937 7.7637 20.8637 8.1037 20.3437 8.1037C19.9037 8.1037 19.5737 7.9337 19.4437 7.4637C19.2737 6.7537 18.8437 6.1537 17.9937 6.1537C17.2037 6.1537 16.7037 6.7237 16.7037 7.5437C16.7037 8.4937 17.3337 8.9537 18.2137 9.2937L18.9737 9.5737C20.5637 10.1837 21.4537 11.0037 21.4537 12.7437C21.4537 14.8237 20.1537 16.0137 18.0437 16.0137ZM24.1337 15.7737C23.5037 15.7737 23.1437 15.3637 23.1437 14.7337V5.8537C23.1437 5.2637 23.4837 4.8037 24.1337 4.8037H26.9337C28.5237 4.8037 29.6837 5.8137 29.6837 7.5437C29.6837 8.6137 28.9837 9.7637 27.9437 9.9437V10.0037C29.2337 10.1437 30.0337 11.3437 30.0337 12.6737C30.0337 14.5037 28.9137 15.7737 27.0037 15.7737ZM7.4737 15.9437C6.8237 15.9437 6.4637 15.5137 6.4637 14.8837V5.8337C6.4637 5.1937 6.8237 4.8137 7.4637 4.8137H9.7637C11.8637 4.8137 13.1837 5.9837 13.1837 8.1937C13.1837 9.4237 12.7137 10.6137 11.6237 11.1737L12.9037 14.2337C13.0437 14.5437 13.1237 14.8237 13.1237 14.9837C13.1237 15.6837 12.6437 15.9437 12.1937 15.9437C11.6437 15.9437 11.3437 15.6437 11.1537 15.1237L9.7437 11.5837H8.4637V14.8837C8.4637 15.5337 8.0837 15.9437 7.4737 15.9437ZM25.1037 9.4637H26.2137C27.2037 9.4637 27.7837 8.8437 27.7837 7.8437C27.7837 6.9737 27.3737 6.3137 26.3637 6.3137H25.1037ZM8.4637 10.1337H9.5837C10.6737 10.1337 11.1737 9.3237 11.1737 8.2437C11.1737 7.1537 10.6237 6.3937 9.5837 6.3937H8.4637ZM25.1037 14.2737H26.4037C27.4937 14.2737 28.0437 13.6037 28.0437 12.5137C28.0437 11.3237 27.3437 10.7837 26.3637 10.7837H25.1037Z"
        fillRule="evenodd"
        clipRule="evenodd"
    />
</svg>
        