<svg viewBox="0 0 31.541015625 23.84375" xmlns="http://www.w3.org/2000/svg"><path d="M11.4737 0.003C3.5437 0.003 0.0037 3.653 0.0037 11.113V19.683C0.0037 22.453 1.4237 23.843 4.1937 23.843H27.3437C30.1237 23.843 31.5437 22.433 31.5437 19.683V11.113C31.5437 3.653 28.0037 0.003 20.0737 0.003ZM19.9637 17.583C19.4137 17.583 18.9737 17.133 18.9737 16.583V8.093H17.2837C16.8137 8.093 16.4637 7.723 16.4637 7.263C16.4637 6.813 16.8137 6.453 17.2837 6.453H22.6037C23.0537 6.453 23.4037 6.813 23.4037 7.263C23.4037 7.723 23.0537 8.093 22.6037 8.093H20.9637V16.583C20.9637 17.133 20.5037 17.583 19.9637 17.583ZM9.6437 17.593C8.9837 17.593 8.6137 17.173 8.6137 16.543V7.493C8.6137 6.853 8.9737 6.463 9.6237 6.463H11.9037C14.0237 6.463 15.3537 7.643 15.3537 9.843C15.3537 11.073 14.8737 12.253 13.7837 12.823L15.0637 15.873C15.1937 16.183 15.2737 16.473 15.2737 16.623C15.2737 17.323 14.7937 17.593 14.3537 17.593C13.7937 17.593 13.5037 17.293 13.3037 16.773L11.8937 13.233H10.6237V16.543C10.6237 17.183 10.2537 17.593 9.6437 17.593ZM10.6237 11.753H11.7337C12.8337 11.753 13.3337 10.963 13.3337 9.883C13.3337 8.803 12.7737 8.043 11.7337 8.043H10.6237Z" /></svg>