<svg viewBox="0 0 31.541015625 23.84375" xmlns="http://www.w3.org/2000/svg"><path d="M11.4737 0.003C3.5437 0.003 0.0037 3.653 0.0037 11.113V19.683C0.0037 22.453 1.4237 23.843 4.1937 23.843H27.3437C30.1237 23.843 31.5437 22.433 31.5437 19.683V11.113C31.5437 3.653 28.0037 0.003 20.0737 0.003ZM11.4737 2.203H20.0537C26.5237 2.203 29.3437 5.003 29.3437 10.963V19.583C29.3437 20.943 28.6037 21.643 27.2937 21.643H4.2537C2.9137 21.643 2.2037 20.943 2.2037 19.583V10.963C2.2037 5.003 5.0137 2.203 11.4737 2.203ZM20.0037 17.633C20.5537 17.633 21.0037 17.183 21.0037 16.623V8.053H22.6537C23.1037 8.053 23.4737 7.693 23.4737 7.223C23.4737 6.763 23.1037 6.413 22.6537 6.413H17.2937C16.8337 6.413 16.4637 6.763 16.4637 7.223C16.4637 7.693 16.8337 8.053 17.2937 8.053H19.0037V16.623C19.0037 17.183 19.4537 17.633 20.0037 17.633ZM9.5837 17.653C10.2037 17.653 10.5637 17.243 10.5637 16.593V13.233H11.8637L13.2937 16.813C13.4937 17.333 13.7937 17.653 14.3437 17.653C14.7937 17.653 15.2737 17.373 15.2737 16.683C15.2737 16.513 15.1937 16.243 15.0537 15.923L13.7537 12.823C14.8637 12.253 15.3437 11.073 15.3437 9.833C15.3437 7.603 14.0137 6.413 11.8837 6.413H9.5737C8.9137 6.413 8.5537 6.813 8.5537 7.453V16.593C8.5537 17.223 8.9237 17.653 9.5837 17.653ZM10.5637 11.773V8.003H11.7037C12.7437 8.003 13.3137 8.773 13.3137 9.873C13.3137 10.963 12.8137 11.773 11.7037 11.773Z" /></svg>