
<svg
    viewBox="0 0 27.890625 27.890625"
    xmlns="http://www.w3.org/2000/svg"
>
    <path
        fill="inherit"
        d="M13.9427 27.8864C21.6427 27.8864 27.8927 21.6264 27.8927 13.9464C27.8927 6.2464 21.6427 -0.0036 13.9427 -0.0036C6.2627 -0.0036 0.0027 6.2464 0.0027 13.9464C0.0027 21.6264 6.2627 27.8864 13.9427 27.8864ZM18.0727 19.5364C17.5427 19.5364 17.1027 19.0964 17.1027 18.5364V10.1564H15.4227C14.9727 10.1564 14.6027 9.7864 14.6027 9.3364C14.6027 8.8864 14.9727 8.5264 15.4227 8.5264H20.6827C21.1227 8.5264 21.4827 8.8864 21.4827 9.3364C21.4827 9.7864 21.1227 10.1564 20.6827 10.1564H19.0627V18.5364C19.0627 19.0964 18.6227 19.5364 18.0727 19.5364ZM7.8627 19.5464C7.2227 19.5464 6.8527 19.1364 6.8527 18.5164V9.5664C6.8527 8.9264 7.2027 8.5464 7.8427 8.5464H10.1027C12.1927 8.5464 13.5127 9.7064 13.5127 11.8964C13.5127 13.1064 13.0427 14.2764 11.9627 14.8364L13.2327 17.8564C13.3527 18.1664 13.4427 18.4464 13.4427 18.5964C13.4427 19.2764 12.9627 19.5464 12.5227 19.5464C11.9727 19.5464 11.6927 19.2464 11.5027 18.7464L10.0927 15.2264H8.8327V18.5164C8.8327 19.1564 8.4627 19.5464 7.8627 19.5464ZM8.8327 13.7764H9.9427C11.0227 13.7764 11.5127 13.0064 11.5127 11.9364C11.5127 10.8664 10.9627 10.1064 9.9427 10.1064H8.8327Z"
        fillRule="evenodd"
        clipRule="evenodd"
    />
</svg>
        