
<svg
    viewBox="0 0 27.890625 27.890625"
    xmlns="http://www.w3.org/2000/svg"
>
    <path
        fill="inherit"
        d="M13.9427 27.8864C21.6427 27.8864 27.8927 21.6464 27.8927 13.9464C27.8927 6.2464 21.6427 -0.0036 13.9427 -0.0036C6.2527 -0.0036 0.0027 6.2464 0.0027 13.9464C0.0027 21.6464 6.2527 27.8864 13.9427 27.8864ZM13.9427 25.5664C7.5227 25.5664 2.3227 20.3664 2.3227 13.9464C2.3227 7.5164 7.5227 2.3264 13.9427 2.3264C20.3727 2.3264 25.5627 7.5164 25.5627 13.9464C25.5627 20.3664 20.3727 25.5664 13.9427 25.5664ZM18.1527 19.6464C18.7027 19.6464 19.1527 19.2064 19.1527 18.6464V10.0764H20.8127C21.2627 10.0764 21.6327 9.7064 21.6327 9.2464C21.6327 8.7864 21.2627 8.4264 20.8127 8.4264H15.4527C14.9827 8.4264 14.6127 8.7864 14.6127 9.2464C14.6127 9.7064 14.9827 10.0764 15.4527 10.0764H17.1627V18.6464C17.1627 19.2064 17.6127 19.6464 18.1527 19.6464ZM7.7427 19.6564C8.3527 19.6564 8.7227 19.2664 8.7227 18.6164V15.2564H10.0227L11.4427 18.8364C11.6527 19.3564 11.9527 19.6564 12.4927 19.6564C12.9427 19.6564 13.4227 19.3964 13.4227 18.6864C13.4227 18.5364 13.3427 18.2664 13.2027 17.9464L11.9127 14.8464C13.0127 14.2764 13.4927 13.0864 13.4927 11.8564C13.4927 9.6264 12.1727 8.4364 10.0327 8.4364H7.7227C7.0727 8.4364 6.7127 8.8364 6.7127 9.4764V18.6164C6.7127 19.2464 7.0827 19.6564 7.7427 19.6564ZM8.7227 13.7964V10.0264H9.8527C10.8927 10.0264 11.4727 10.7964 11.4727 11.8964C11.4727 12.9764 10.9627 13.7964 9.8527 13.7964Z"
        fillRule="evenodd"
        clipRule="evenodd"
    />
</svg>
        