
<svg
    viewBox={0 0 25.169921875 25.169921875}
    xmlns="http://www.w3.org/2000/svg"
>
    <path
        fill="inherit"
        d="M4.2937 25.1692H20.8737C23.7437 25.1692 25.1737 23.7592 25.1737 20.9492V4.2392C25.1737 1.4192 23.7437 -0.0008 20.8737 -0.0008H4.2937C1.4337 -0.0008 0.0037 1.4192 0.0037 4.2392V20.9492C0.0037 23.7592 1.4337 25.1692 4.2937 25.1692ZM4.3237 22.9692C2.9537 22.9692 2.2037 22.2392 2.2037 20.8192V4.3592C2.2037 2.9392 2.9537 2.1992 4.3237 2.1992H20.8537C22.2037 2.1992 22.9737 2.9392 22.9737 4.3592V20.8192C22.9737 22.2392 22.2037 22.9692 20.8537 22.9692ZM10.2537 18.8692C10.7637 18.8692 11.0637 18.5492 11.0637 18.0492V16.7092H14.3437C14.6037 16.7092 14.7837 16.5292 14.7837 16.2392C14.7837 15.9692 14.6037 15.8092 14.3437 15.8092H11.0637V14.0292H13.5037C16.0737 14.0292 17.4837 12.3192 17.4837 10.2492C17.4837 8.1192 16.0237 6.4492 13.5537 6.4492H10.2637C9.8037 6.4492 9.4637 6.8092 9.4637 7.2992V13.1092H8.0537C7.7637 13.1092 7.5837 13.2992 7.5837 13.5792C7.5837 13.8492 7.7637 14.0292 8.0537 14.0292H9.4637V15.8092H8.0537C7.7637 15.8092 7.5837 15.9692 7.5837 16.2392C7.5837 16.5292 7.7637 16.7092 8.0537 16.7092H9.4637V18.0492C9.4637 18.5492 9.7737 18.8692 10.2537 18.8692ZM11.0637 12.6992V7.8292H13.1237C15.0637 7.8292 15.8437 8.9092 15.8437 10.2492C15.8437 11.8392 14.7937 12.6992 13.1237 12.6992Z"
        fillRule="evenodd"
        clipRule="evenodd"
    />
</svg>
        