<svg viewBox="0 0 27.890625 27.890625" xmlns="http://www.w3.org/2000/svg"><path d="M13.9427 27.8864C21.6427 27.8864 27.8927 21.6264 27.8927 13.9464C27.8927 6.2464 21.6427 -0.0036 13.9427 -0.0036C6.2627 -0.0036 0.0027 6.2464 0.0027 13.9464C0.0027 21.6264 6.2627 27.8864 13.9427 27.8864ZM11.5427 20.4264C11.0227 20.4264 10.7227 20.1064 10.7227 19.5764V18.2064H9.2527C8.9727 18.2064 8.7727 18.0164 8.7727 17.7164C8.7727 17.4464 8.9727 17.2664 9.2527 17.2664H10.7227V15.4364H9.2527C8.9727 15.4364 8.7727 15.2564 8.7727 14.9664C8.7727 14.6864 8.9727 14.4964 9.2527 14.4964H10.7227V8.5064C10.7227 7.9864 11.0627 7.6164 11.5527 7.6164H14.9127C17.4827 7.6164 19.0027 9.3564 19.0027 11.5364C19.0027 13.6764 17.5227 15.4364 14.8927 15.4364H12.3727V17.2664H15.7527C16.0227 17.2664 16.2027 17.4464 16.2027 17.7164C16.2027 18.0164 16.0227 18.2064 15.7527 18.2064H12.3727V19.5764C12.3727 20.1064 12.0627 20.4264 11.5427 20.4264ZM12.3727 14.0664H14.4927C16.2127 14.0664 17.2927 13.1764 17.2927 11.5364C17.2927 10.1764 16.5027 9.0464 14.4927 9.0464H12.3727Z" /></svg>