
<svg
    viewBox={0 0 19.400390625 24.80078125}
    xmlns="http://www.w3.org/2000/svg"
>
    <path
        fill="inherit"
        d="M5.1137 24.8015C5.9437 24.8015 6.4637 24.2515 6.4637 23.4015V20.3715H13.2037C13.7437 20.3715 14.0637 20.0315 14.0637 19.4815C14.0637 18.9315 13.7437 18.5815 13.2037 18.5815H6.4637V15.0215H11.5537C16.1737 15.0215 19.4037 12.0815 19.4037 7.5215C19.4037 2.9415 16.2037 0.0015 11.5837 0.0015H5.1137C4.2837 0.0015 3.7437 0.5315 3.7437 1.4115V13.2215H0.8937C0.3437 13.2215 0.0037 13.5715 0.0037 14.1215C0.0037 14.6715 0.3437 15.0215 0.8937 15.0215H3.7437V18.5815H0.8937C0.3437 18.5815 0.0137 18.9315 0.0137 19.4815C0.0137 20.0315 0.3437 20.3715 0.8937 20.3715H3.7437V23.4015C3.7437 24.2515 4.2837 24.8015 5.1137 24.8015ZM6.4637 12.6915V2.3815H10.8937C14.4637 2.3815 16.6237 4.1315 16.6237 7.5215C16.6237 10.9115 14.4637 12.6915 10.8937 12.6915Z"
        fillRule="evenodd"
        clipRule="evenodd"
    />
</svg>
        