
<svg
    viewBox="0 0 32.935546875 27.33018496744969"
    xmlns="http://www.w3.org/2000/svg"
>
    <path
        fill="inherit"
        d="M16.4627 5.864C18.9327 5.864 21.2027 6.724 23.0227 8.134C23.2927 8.354 23.6527 8.324 23.9127 8.064L27.0827 4.894C27.4027 4.584 27.3827 4.124 27.0527 3.854C24.2027 1.454 20.4927 0.004 16.4627 0.004C12.4427 0.004 8.7327 1.454 5.8827 3.854C5.5527 4.124 5.5327 4.584 5.8527 4.894L9.0227 8.064C9.2827 8.324 9.6527 8.354 9.9527 8.124C11.7627 6.724 14.0127 5.864 16.4627 5.864ZM0.0027 16.464C0.0027 20.494 1.4527 24.204 3.8727 27.074C4.1427 27.414 4.6027 27.414 4.9127 27.094L8.1627 23.844C8.3627 23.624 8.3927 23.324 8.2027 23.094C6.7127 21.194 5.8627 18.924 5.8627 16.464C5.8627 14.014 6.7027 11.744 8.1227 9.944C8.3427 9.654 8.3427 9.284 8.0827 9.024L4.9127 5.854C4.5927 5.534 4.1427 5.534 3.8727 5.864C1.4527 8.734 0.0027 12.444 0.0027 16.464ZM32.9327 16.464C32.9327 12.444 31.4827 8.734 29.0627 5.864C28.7927 5.534 28.3327 5.534 28.0227 5.854L24.8527 9.024C24.5927 9.284 24.5827 9.654 24.8127 9.944C26.2227 11.744 27.0727 14.014 27.0727 16.464C27.0727 18.924 26.2227 21.194 24.7327 23.094C24.5427 23.324 24.5527 23.624 24.7627 23.844L28.0127 27.094C28.3327 27.414 28.7827 27.414 29.0627 27.074C31.4827 24.204 32.9327 20.494 32.9327 16.464ZM14.1127 22.944C14.6127 22.944 14.9127 22.614 14.9127 22.124V20.764H18.1927C18.4727 20.764 18.6327 20.604 18.6327 20.314C18.6327 20.044 18.4727 19.864 18.1927 19.864H14.9127V18.104H17.3627C19.9327 18.104 21.3427 16.374 21.3427 14.324C21.3427 12.194 19.8827 10.524 17.4027 10.524H14.1227C13.6627 10.524 13.3327 10.874 13.3327 11.364V17.174H11.9127C11.6227 17.174 11.4527 17.364 11.4527 17.634C11.4527 17.924 11.6227 18.104 11.9127 18.104H13.3327V19.864H11.9127C11.6227 19.864 11.4527 20.044 11.4527 20.314C11.4527 20.604 11.6227 20.764 11.9127 20.764H13.3327V22.124C13.3327 22.614 13.6327 22.944 14.1127 22.944ZM14.9127 16.764V11.894H16.9827C18.9227 11.894 19.7027 12.974 19.7027 14.324C19.7027 15.904 18.6527 16.764 16.9827 16.764Z"
        fillRule="evenodd"
        clipRule="evenodd"
    />
</svg>
        