
<svg
    viewBox={0 0 27.890625 27.890625}
    xmlns="http://www.w3.org/2000/svg"
>
    <path
        fill="inherit"
        d="M13.9427 27.8864C21.6427 27.8864 27.8927 21.6464 27.8927 13.9464C27.8927 6.2464 21.6427 -0.0036 13.9427 -0.0036C6.2527 -0.0036 0.0027 6.2464 0.0027 13.9464C0.0027 21.6464 6.2527 27.8864 13.9427 27.8864ZM13.9427 25.5664C7.5227 25.5664 2.3227 20.3664 2.3227 13.9464C2.3227 7.5164 7.5227 2.3264 13.9427 2.3264C20.3727 2.3264 25.5627 7.5164 25.5627 13.9464C25.5627 20.3664 20.3727 25.5664 13.9427 25.5664ZM11.5927 20.2364C12.1027 20.2364 12.4027 19.9164 12.4027 19.4164V18.0764H15.6827C15.9427 18.0764 16.1227 17.8964 16.1227 17.6064C16.1227 17.3364 15.9427 17.1764 15.6827 17.1764H12.4027V15.3964H14.8427C17.4027 15.3964 18.8227 13.6864 18.8227 11.6164C18.8227 9.4864 17.3627 7.8164 14.8727 7.8164H11.6027C11.1327 7.8164 10.8027 8.1764 10.8027 8.6664V14.4764H9.3927C9.1027 14.4764 8.9327 14.6664 8.9327 14.9464C8.9327 15.2164 9.1027 15.3964 9.3927 15.3964H10.8027V17.1764H9.3927C9.1027 17.1764 8.9327 17.3364 8.9327 17.6064C8.9327 17.8964 9.1027 18.0764 9.3927 18.0764H10.8027V19.4164C10.8027 19.9164 11.1027 20.2364 11.5927 20.2364ZM12.4027 14.0664V9.1964H14.4627C16.4027 9.1964 17.1827 10.2764 17.1827 11.6164C17.1827 13.2064 16.1327 14.0664 14.4627 14.0664Z"
        fillRule="evenodd"
        clipRule="evenodd"
    />
</svg>
        