
<svg
    viewBox={0 0 30.529296875 29.17578125}
    xmlns="http://www.w3.org/2000/svg"
>
    <path
        fill="inherit"
        d="M1.8137 25.919H28.7137V25.009C28.7137 24.459 28.3937 24.129 27.8337 24.129H26.9637V9.379H28.1637C28.9137 9.379 29.3537 8.829 29.3537 8.269C29.3537 7.859 29.1237 7.509 28.6137 7.219L16.9437 0.479C16.3937 0.169 15.8137 -0.001 15.2537 -0.001C14.6937 -0.001 14.1137 0.169 13.5937 0.479L1.9137 7.219C1.3937 7.509 1.1737 7.859 1.1737 8.269C1.1737 8.829 1.6137 9.379 2.3637 9.379H3.5637V24.129H2.7037C2.1437 24.129 1.8137 24.459 1.8137 25.009ZM5.6337 24.129V7.629L14.7237 2.529C14.8937 2.429 15.0837 2.379 15.2537 2.379C15.4337 2.379 15.6237 2.429 15.8037 2.529L24.8937 7.629V24.129ZM12.9337 20.689C13.4437 20.689 13.7437 20.359 13.7437 19.869V18.509H17.0237C17.2837 18.509 17.4637 18.349 17.4637 18.059C17.4637 17.789 17.2837 17.609 17.0237 17.609H13.7437V15.849H16.1837C18.7437 15.849 20.1637 14.119 20.1637 12.069C20.1637 9.939 18.7037 8.269 16.2137 8.269H12.9437C12.4737 8.269 12.1437 8.609 12.1437 9.109V14.919H10.7337C10.4437 14.919 10.2637 15.109 10.2637 15.379C10.2637 15.669 10.4437 15.849 10.7337 15.849H12.1437V17.609H10.7337C10.4437 17.609 10.2637 17.789 10.2637 18.059C10.2637 18.349 10.4437 18.509 10.7337 18.509H12.1437V19.869C12.1437 20.359 12.4437 20.689 12.9337 20.689ZM13.7437 14.509V9.639H15.8037C17.7437 9.639 18.5237 10.719 18.5237 12.069C18.5237 13.649 17.4737 14.509 15.8037 14.509ZM1.0937 29.179H29.4237C30.0237 29.179 30.5337 28.669 30.5337 28.069C30.5337 27.469 30.0237 26.979 29.4237 26.979H1.0937C0.4937 26.979 0.0037 27.469 0.0037 28.069C0.0037 28.669 0.4937 29.179 1.0937 29.179Z"
        fillRule="evenodd"
        clipRule="evenodd"
    />
</svg>
        