
<svg
    viewBox="0 0 30.529296875 29.17578125"
    xmlns="http://www.w3.org/2000/svg"
>
    <path
        fill="inherit"
        d="M1.0937 29.179H29.4237C30.0237 29.179 30.5337 28.669 30.5337 28.069C30.5337 27.469 30.0237 26.979 29.4237 26.979H28.7137V25.979C28.7137 25.429 28.3937 25.099 27.8337 25.099H26.9637V9.379H28.1637C28.9137 9.379 29.3537 8.829 29.3537 8.269C29.3537 7.859 29.1237 7.509 28.6137 7.219L16.9437 0.479C16.3937 0.169 15.8137 -0.001 15.2537 -0.001C14.6937 -0.001 14.1137 0.169 13.5937 0.479L1.9137 7.219C1.3937 7.509 1.1737 7.859 1.1737 8.269C1.1737 8.829 1.6137 9.379 2.3637 9.379H3.5637V25.099H2.7037C2.1437 25.099 1.8137 25.429 1.8137 25.979V26.979H1.0937C0.4937 26.979 0.0037 27.469 0.0037 28.069C0.0037 28.669 0.4937 29.179 1.0937 29.179ZM12.8637 22.089C12.3437 22.089 12.0437 21.779 12.0437 21.249V19.879H10.5837C10.2937 19.879 10.1037 19.689 10.1037 19.389C10.1037 19.109 10.2937 18.919 10.5837 18.919H12.0437V17.099H10.5837C10.2937 17.099 10.1037 16.929 10.1037 16.639C10.1037 16.339 10.2937 16.159 10.5837 16.159H12.0437V10.159C12.0437 9.649 12.3837 9.279 12.8837 9.279H16.2437C18.8137 9.279 20.3337 11.019 20.3337 13.209C20.3337 15.339 18.8537 17.099 16.2137 17.099H13.7037V18.919H17.0737C17.3537 18.919 17.5237 19.109 17.5237 19.389C17.5237 19.689 17.3537 19.879 17.0737 19.879H13.7037V21.249C13.7037 21.779 13.3837 22.089 12.8637 22.089ZM13.7037 15.739H15.8137C17.5437 15.739 18.6237 14.849 18.6237 13.209C18.6237 11.829 17.8237 10.719 15.8137 10.719H13.7037Z"
        fillRule="evenodd"
        clipRule="evenodd"
    />
</svg>
        