
<svg
    viewBox="0 0 30.544813437289534 27.890625"
    xmlns="http://www.w3.org/2000/svg"
>
    <path
        fill="inherit"
        d="M0.9769 11.3064C-0.0131 11.3064 -0.2531 11.9764 0.2769 12.7464L3.3369 17.0864C3.7869 17.7164 4.4469 17.7064 4.8869 17.0864L7.9269 12.7264C8.4669 11.9764 8.2069 11.3064 7.2469 11.3064H5.2769C6.4669 6.1564 11.0769 2.3264 16.5969 2.3264C23.0269 2.3264 28.2169 7.5164 28.2169 13.9464C28.2169 20.3664 23.0269 25.5664 16.5969 25.5664C12.7169 25.5664 9.2569 23.6564 7.1969 20.7564C6.7669 20.1964 6.1269 20.0164 5.5569 20.3564C5.0069 20.6964 4.8369 21.4664 5.3069 22.0664C7.8369 25.6064 11.9769 27.8864 16.5969 27.8864C24.2969 27.8864 30.5469 21.6464 30.5469 13.9464C30.5469 6.2464 24.2969 -0.0036 16.5969 -0.0036C9.8069 -0.0036 4.1269 4.8664 2.8969 11.3064ZM14.2569 20.2364C14.7669 20.2364 15.0669 19.9164 15.0669 19.4164V18.0764H18.3469C18.6069 18.0764 18.7869 17.8964 18.7869 17.6064C18.7869 17.3364 18.6069 17.1764 18.3469 17.1764H15.0669V15.3964H17.5169C20.0769 15.3964 21.4969 13.6864 21.4969 11.6164C21.4969 9.4864 20.0269 7.8164 17.5469 7.8164H14.2769C13.7969 7.8164 13.4669 8.1764 13.4669 8.6664V14.4764H12.0569C11.7769 14.4764 11.5969 14.6664 11.5969 14.9464C11.5969 15.2164 11.7769 15.3964 12.0569 15.3964H13.4669V17.1764H12.0569C11.7769 17.1764 11.5969 17.3364 11.5969 17.6064C11.5969 17.8964 11.7769 18.0764 12.0569 18.0764H13.4669V19.4164C13.4669 19.9164 13.7669 20.2364 14.2569 20.2364ZM15.0669 14.0664V9.1964H17.1369C19.0769 9.1964 19.8569 10.2764 19.8569 11.6164C19.8569 13.2064 18.7969 14.0664 17.1369 14.0664Z"
        fillRule="evenodd"
        clipRule="evenodd"
    />
</svg>
        