
<svg
    viewBox={0 0 27.7917258193935 27.785777042308496}
    xmlns="http://www.w3.org/2000/svg"
>
    <path
        fill="inherit"
        d="M27.1677 3.124C27.0277 2.654 26.8777 2.274 26.7077 1.984L18.5977 10.064L19.5577 11.034C19.7977 11.294 19.7977 11.674 19.5577 11.914C19.3077 12.174 18.9077 12.174 18.6677 11.914L15.8777 9.124C15.6177 8.874 15.6177 8.474 15.8777 8.224C16.1077 7.984 16.5077 7.984 16.7477 8.224L17.7177 9.204L25.8177 1.094C25.5177 0.914 25.1477 0.764 24.6677 0.634C18.8877 -1.106 11.3477 0.754 6.0477 6.044C0.7577 11.354 -1.1023 18.884 0.6277 24.664C0.7777 25.144 0.9177 25.504 1.1077 25.804L9.2677 17.654L8.2977 16.684C8.0577 16.424 8.0677 16.044 8.2977 15.784C8.5477 15.544 8.9577 15.544 9.2077 15.784L11.9877 18.584C12.2377 18.824 12.2377 19.234 11.9877 19.484C11.7577 19.734 11.3677 19.734 11.1177 19.484L10.1477 18.524L1.9977 26.694C2.2977 26.864 2.6677 27.014 3.1177 27.154C8.9177 28.894 16.4377 27.034 21.7377 21.744C27.0277 16.434 28.8877 8.914 27.1677 3.124ZM13.9777 11.004C13.7277 10.764 13.7277 10.364 13.9777 10.124C14.2177 9.884 14.6077 9.864 14.8677 10.124L17.6677 12.934C17.9277 13.184 17.9077 13.564 17.6677 13.814C17.4177 14.054 17.0277 14.054 16.7777 13.814ZM12.0777 12.884C11.8377 12.644 11.8377 12.254 12.0777 12.004C12.3177 11.774 12.7177 11.744 12.9677 12.004L15.7777 14.824C16.0277 15.064 16.0077 15.454 15.7777 15.694C15.5377 15.944 15.1377 15.944 14.8877 15.694ZM10.1877 14.784C9.9377 14.534 9.9577 14.134 10.1877 13.894C10.4377 13.664 10.8477 13.644 11.0877 13.894L13.8977 16.694C14.1377 16.944 14.1277 17.354 13.8977 17.594C13.6477 17.834 13.2477 17.844 13.0077 17.594Z"
        fillRule="evenodd"
        clipRule="evenodd"
    />
</svg>
        