<svg viewBox="0 0 27.890625 27.890625" xmlns="http://www.w3.org/2000/svg"><path d="M13.9427 27.8864C21.6427 27.8864 27.8927 21.6464 27.8927 13.9464C27.8927 6.2464 21.6427 -0.0036 13.9427 -0.0036C6.2527 -0.0036 0.0027 6.2464 0.0027 13.9464C0.0027 21.6464 6.2527 27.8864 13.9427 27.8864ZM13.9427 25.5664C7.5227 25.5664 2.3227 20.3664 2.3227 13.9464C2.3227 7.5164 7.5227 2.3264 13.9427 2.3264C20.3727 2.3264 25.5627 7.5164 25.5627 13.9464C25.5627 20.3664 20.3727 25.5664 13.9427 25.5664ZM20.4527 7.9064L16.3627 11.9864L16.8427 12.4664C16.9627 12.5764 16.9527 12.8064 16.8427 12.9364C16.7027 13.0564 16.5027 13.0664 16.3627 12.9364L14.9327 11.4964C14.7927 11.3564 14.7927 11.1564 14.9327 11.0364C15.0627 10.8964 15.2727 10.8964 15.3927 11.0364L15.8727 11.5164L19.9927 7.4264C19.8427 7.3464 19.6627 7.2864 19.4127 7.2064C16.3427 6.2864 12.4127 7.5364 9.9627 9.9764C7.5227 12.4264 6.2627 16.3564 7.2027 19.4264C7.2627 19.6464 7.3327 19.8264 7.4127 19.9764L11.5427 15.8564L11.0427 15.3764C10.9227 15.2464 10.9227 15.0264 11.0427 14.9164C11.1827 14.7764 11.3927 14.7764 11.5227 14.9164L12.9627 16.3364C13.0927 16.4564 13.0827 16.6964 12.9627 16.8064C12.8427 16.9364 12.6227 16.9364 12.4827 16.8064L12.0027 16.3264L7.8927 20.4664C8.0227 20.5464 8.2027 20.6064 8.4327 20.6764C11.5227 21.5864 15.4627 20.3664 17.9127 17.9064C20.3527 15.4664 21.5927 11.5364 20.6627 8.4464C20.6027 8.2264 20.5327 8.0564 20.4527 7.9064ZM15.8627 13.4264C15.9927 13.5464 15.9827 13.7764 15.8627 13.8864C15.7327 14.0264 15.5127 14.0264 15.3827 13.8864L13.9627 12.4564C13.8227 12.3364 13.8227 12.1164 13.9627 11.9864C14.0827 11.8664 14.2827 11.8664 14.4227 11.9864ZM14.9127 14.3964C15.0427 14.5164 15.0227 14.7564 14.9127 14.8564C14.7827 14.9964 14.5727 14.9964 14.4327 14.8564L13.0027 13.4364C12.8627 13.3064 12.8627 13.0864 13.0027 12.9764C13.1427 12.8364 13.3427 12.8364 13.4627 12.9764ZM13.9327 15.3664C14.0727 15.4864 14.0527 15.7264 13.9327 15.8364C13.8127 15.9664 13.5927 15.9664 13.4527 15.8364L12.0327 14.3964C11.8927 14.2764 11.8927 14.0564 12.0327 13.9364C12.1527 13.8064 12.3627 13.8064 12.4927 13.9364Z" /></svg>