
<svg
    viewBox="0 0 27.890625 27.890625"
    xmlns="http://www.w3.org/2000/svg"
>
    <path
        fill="inherit"
        d="M13.9427 27.8864C21.6427 27.8864 27.8927 21.6264 27.8927 13.9464C27.8927 6.2464 21.6427 -0.0036 13.9427 -0.0036C6.2627 -0.0036 0.0027 6.2464 0.0027 13.9464C0.0027 21.6264 6.2627 27.8864 13.9427 27.8864ZM20.6827 7.7064C20.7627 7.8764 20.8227 8.0564 20.8927 8.2864C21.8427 11.4564 20.5727 15.5164 18.0427 18.0364C15.5327 20.5764 11.4727 21.8364 8.3027 20.8764C8.0527 20.8064 7.8727 20.7564 7.7127 20.6764L11.9727 16.3964L12.4727 16.8864C12.6027 17.0364 12.8227 17.0364 12.9627 16.8864C13.0727 16.7764 13.0827 16.5464 12.9627 16.4064L11.4727 14.9464C11.3327 14.8064 11.1327 14.8064 10.9927 14.9464C10.8427 15.0564 10.8427 15.2864 10.9927 15.4264L11.5027 15.9164L7.2227 20.1664C7.1527 20.0064 7.0827 19.8264 7.0027 19.5964C6.0427 16.4364 7.3427 12.3764 9.8727 9.8564C12.3827 7.3264 16.4327 6.0464 19.6027 6.9864C19.8527 7.0864 20.0327 7.1364 20.2027 7.2164L15.9427 11.4264L15.4627 10.9464C15.3227 10.7964 15.1227 10.7964 14.9827 10.9464C14.8427 11.0764 14.8427 11.2764 14.9827 11.4264L16.4427 12.9064C16.5927 13.0464 16.8127 13.0264 16.9427 12.9064C17.0727 12.7664 17.0927 12.5364 16.9427 12.4264L16.4427 11.9364ZM15.9427 13.4164L14.4527 11.9364C14.3327 11.7964 14.1127 11.7964 13.9727 11.9364C13.8527 12.0564 13.8527 12.2764 13.9727 12.4164L15.4527 13.8864C15.5827 14.0264 15.8027 14.0264 15.9427 13.8864C16.0827 13.7764 16.0927 13.5364 15.9427 13.4164ZM14.9527 14.4064L13.4827 12.9464C13.3427 12.7964 13.1227 12.7964 13.0027 12.9464C12.8627 13.0564 12.8627 13.2864 13.0027 13.4264L14.4627 14.8864C14.6027 15.0264 14.8327 15.0264 14.9527 14.8864C15.0827 14.7764 15.1027 14.5364 14.9527 14.4064ZM13.9627 15.4064L12.4727 13.9364C12.3427 13.8064 12.1227 13.8064 11.9927 13.9364C11.8527 14.0564 11.8527 14.2864 11.9927 14.4064L13.4627 15.8864C13.6027 16.0364 13.8227 16.0364 13.9627 15.8864C14.0827 15.7764 14.0927 15.5264 13.9627 15.4064Z"
        fillRule="evenodd"
        clipRule="evenodd"
    />
</svg>
        