<svg viewBox="0 0 27.7917258193935 27.785777042308496" xmlns="http://www.w3.org/2000/svg"><path d="M21.7377 21.744C27.0277 16.434 28.8877 8.914 27.1677 3.124C26.6877 1.584 26.2077 1.094 24.6677 0.634C18.8877 -1.106 11.3477 0.754 6.0477 6.044C0.7577 11.354 -1.1023 18.884 0.6277 24.664C1.0977 26.194 1.5877 26.694 3.1177 27.154C8.9177 28.894 16.4377 27.034 21.7377 21.744ZM8.4677 16.604L9.4077 17.544L2.8477 24.104C2.8177 24.024 2.7877 23.944 2.7777 23.864C1.3277 18.264 3.0477 12.264 7.6577 7.654C12.2777 3.054 18.2677 1.314 23.8577 2.764C23.9377 2.794 24.0277 2.814 24.1077 2.844L17.5977 9.354L16.6577 8.394C16.4177 8.164 16.0377 8.164 15.8077 8.394C15.5577 8.644 15.5577 9.024 15.8077 9.274L18.5177 11.974C18.7577 12.224 19.1477 12.224 19.3777 11.974C19.6177 11.744 19.6177 11.374 19.3777 11.134L18.4477 10.204L24.9377 3.694C24.9677 3.744 24.9777 3.814 24.9977 3.884C26.4977 9.494 24.7377 15.524 20.1277 20.124C15.5177 24.734 9.5077 26.484 3.8877 24.994C3.8177 24.984 3.7577 24.954 3.6977 24.944L10.2577 18.394L11.1977 19.324C11.4277 19.564 11.7977 19.564 12.0477 19.324C12.2777 19.084 12.2777 18.704 12.0477 18.464L9.3277 15.734C9.0977 15.504 8.6977 15.504 8.4677 15.734C8.2377 15.984 8.2177 16.354 8.4677 16.604ZM13.9577 11.104L16.6777 13.824C16.9277 14.054 17.3077 14.054 17.5477 13.824C17.7877 13.574 17.7877 13.214 17.5477 12.974L14.8177 10.244C14.5777 9.994 14.2077 10.014 13.9577 10.244C13.7277 10.474 13.7277 10.874 13.9577 11.104ZM12.1277 12.924L14.8677 15.654C15.0977 15.884 15.4777 15.884 15.7077 15.654C15.9477 15.414 15.9477 15.044 15.7077 14.804L12.9777 12.074C12.7477 11.844 12.3577 11.844 12.1277 12.074C11.8977 12.304 11.8977 12.694 12.1277 12.924ZM10.2977 14.754L13.0277 17.484C13.2677 17.724 13.6477 17.724 13.8777 17.484C14.1077 17.254 14.1077 16.864 13.8777 16.624L11.1577 13.904C10.9277 13.674 10.5277 13.674 10.2977 13.904C10.0677 14.134 10.0677 14.524 10.2977 14.754Z" /></svg>