
<svg
    viewBox={0 0 33.44140625 14.8203125}
    xmlns="http://www.w3.org/2000/svg"
>
    <path
        fill="inherit"
        d="M33.4437 3.6776C33.4437 1.2576 32.1837 -0.0024 29.7337 -0.0024H3.7037C1.2537 -0.0024 0.0037 1.2476 0.0037 3.6776V11.1376C0.0037 13.5576 1.2737 14.8176 3.7237 14.8176H29.7337C32.1937 14.8176 33.4437 13.5576 33.4437 11.1376ZM4.0637 2.2576V8.6276C4.0637 8.9376 3.8437 9.1876 3.5137 9.1876C3.2037 9.1876 2.9537 8.9576 2.9537 8.6376V2.2576ZM6.7137 2.2576V6.2176C6.7137 6.5476 6.4937 6.7776 6.1537 6.7776C5.8537 6.7776 5.6037 6.5576 5.6037 6.2376V2.2576ZM9.3637 2.2576V6.2176C9.3637 6.5476 9.1337 6.7776 8.8037 6.7776C8.5037 6.7776 8.2537 6.5576 8.2537 6.2376V2.2576ZM11.9937 2.2576V6.2176C11.9937 6.5476 11.7737 6.7776 11.4437 6.7776C11.1337 6.7776 10.8837 6.5576 10.8837 6.2376V2.2576ZM14.6437 2.2576V6.2176C14.6437 6.5476 14.4237 6.7776 14.0837 6.7776C13.7837 6.7776 13.5337 6.5576 13.5337 6.2376V2.2576ZM17.2837 2.2576V8.6276C17.2837 8.9376 17.0637 9.1876 16.7237 9.1876C16.4237 9.1876 16.1737 8.9576 16.1737 8.6376V2.2576ZM19.9337 2.2576V6.2176C19.9337 6.5476 19.7037 6.7776 19.3737 6.7776C19.0737 6.7776 18.8237 6.5576 18.8237 6.2376V2.2576ZM22.5737 2.2576V6.2176C22.5737 6.5476 22.3537 6.7776 22.0237 6.7776C21.7137 6.7776 21.4637 6.5576 21.4637 6.2376V2.2576ZM25.2137 2.2576V6.2176C25.2137 6.5476 24.9937 6.7776 24.6537 6.7776C24.3537 6.7776 24.1037 6.5576 24.1037 6.2376V2.2576ZM27.8637 2.2576V6.2176C27.8637 6.5476 27.6337 6.7776 27.3037 6.7776C27.0037 6.7776 26.7537 6.5576 26.7537 6.2376V2.2576ZM30.4837 2.2576V8.6276C30.4837 8.9376 30.2737 9.1876 29.9437 9.1876C29.6237 9.1876 29.3837 8.9576 29.3837 8.6376V2.2576Z"
        fillRule="evenodd"
        clipRule="evenodd"
    />
</svg>
        