
<svg
    viewBox="0 0 33.44140625 14.8203125"
    xmlns="http://www.w3.org/2000/svg"
>
    <path
        fill="inherit"
        d="M33.4437 3.6776C33.4437 1.2576 32.1737 -0.0024 29.7237 -0.0024H3.6937C1.2437 -0.0024 0.0037 1.2576 0.0037 3.6776V11.1376C0.0037 13.5576 1.2537 14.8176 3.7037 14.8176H29.7337C32.1837 14.8176 33.4437 13.5576 33.4437 11.1376ZM31.2237 4.0776V10.7476C31.2237 11.9776 30.5737 12.6176 29.3837 12.6176H4.0337C2.8737 12.6176 2.2037 11.9776 2.2037 10.7476V4.0776C2.2037 2.8476 2.8737 2.1976 4.0437 2.1976H4.1137V8.6376C4.1137 8.9576 4.3637 9.1876 4.6737 9.1876C5.0037 9.1876 5.2237 8.9376 5.2237 8.6276V2.1976H6.5337V6.2376C6.5337 6.5576 6.7837 6.7776 7.0837 6.7776C7.4237 6.7776 7.6437 6.5476 7.6437 6.2176V2.1976H8.9237V6.2376C8.9237 6.5576 9.1837 6.7776 9.4837 6.7776C9.8137 6.7776 10.0537 6.5476 10.0537 6.2176V2.1976H11.3337V6.2376C11.3337 6.5576 11.5837 6.7776 11.8937 6.7776C12.2237 6.7776 12.4437 6.5476 12.4437 6.2176V2.1976H13.7537V6.2376C13.7537 6.5576 14.0037 6.7776 14.3037 6.7776C14.6437 6.7776 14.8637 6.5476 14.8637 6.2176V2.1976H16.1737V8.6376C16.1737 8.9576 16.4237 9.1876 16.7237 9.1876C17.0637 9.1876 17.2837 8.9376 17.2837 8.6276V2.1976H18.5837V6.2376C18.5837 6.5576 18.8237 6.7776 19.1237 6.7776C19.4537 6.7776 19.6837 6.5476 19.6837 6.2176V2.1976H20.9837V6.2376C20.9837 6.5576 21.2337 6.7776 21.5437 6.7776C21.8737 6.7776 22.0937 6.5476 22.0937 6.2176V2.1976H23.3937V6.2376C23.3937 6.5576 23.6437 6.7776 23.9437 6.7776C24.2837 6.7776 24.5037 6.5476 24.5037 6.2176V2.1976H25.8137V6.2376C25.8137 6.5576 26.0537 6.7776 26.3637 6.7776C26.6837 6.7776 26.9237 6.5476 26.9237 6.2176V2.1976H28.2237V8.6376C28.2237 8.9576 28.4637 9.1876 28.7837 9.1876C29.1037 9.1876 29.3237 8.9376 29.3237 8.6276V2.1976H29.3937C30.5737 2.1976 31.2237 2.8476 31.2237 4.0776Z"
        fillRule="evenodd"
        clipRule="evenodd"
    />
</svg>
        