
<svg
    viewBox="0 0 30.529296875 29.17578125"
    xmlns="http://www.w3.org/2000/svg"
>
    <path
        fill="inherit"
        d="M1.0937 29.179H29.4237C30.0237 29.179 30.5337 28.669 30.5337 28.069C30.5337 27.469 30.0237 26.979 29.4237 26.979H28.7137V25.979C28.7137 25.429 28.3937 25.099 27.8337 25.099H26.9637V9.379H28.1637C28.9137 9.379 29.3537 8.829 29.3537 8.269C29.3537 7.859 29.1237 7.509 28.6137 7.219L16.9437 0.479C16.3937 0.169 15.8137 -0.001 15.2537 -0.001C14.6937 -0.001 14.1137 0.169 13.5937 0.479L1.9137 7.219C1.3937 7.509 1.1737 7.859 1.1737 8.269C1.1737 8.829 1.6137 9.379 2.3637 9.379H3.5637V25.099H2.7037C2.1437 25.099 1.8137 25.429 1.8137 25.979V26.979H1.0937C0.4937 26.979 0.0037 27.469 0.0037 28.069C0.0037 28.669 0.4937 29.179 1.0937 29.179ZM9.7737 21.369C9.2737 21.369 8.9537 21.039 8.9537 20.519V10.729C8.9537 10.229 9.2737 9.909 9.7637 9.909H12.2537C14.5837 9.909 15.6837 11.399 15.6837 13.289C15.6837 14.619 15.1037 15.819 13.8737 16.379L15.4637 20.019C15.5537 20.249 15.6537 20.399 15.6537 20.619C15.6537 21.069 15.3037 21.369 14.8437 21.369C14.4337 21.369 14.1937 21.169 14.0437 20.769L12.3137 16.719H10.5937V20.519C10.5937 21.039 10.2937 21.369 9.7737 21.369ZM10.5937 15.419H12.1137C13.3837 15.419 14.0637 14.599 14.0637 13.319C14.0637 12.049 13.3537 11.249 12.1037 11.249H10.5937ZM19.8237 21.379C18.5237 21.379 17.1837 20.819 16.8037 19.619C16.7637 19.479 16.7337 19.359 16.7337 19.249C16.7337 18.879 16.9937 18.639 17.3637 18.639C17.6137 18.639 17.8537 18.769 18.0337 19.069C18.4837 19.889 18.9637 20.209 19.8937 20.209C20.7437 20.209 21.3037 19.699 21.3037 18.939C21.3037 18.239 20.8537 17.879 20.1437 17.709L18.9937 17.409C17.7337 17.059 16.8737 16.379 16.8737 15.069C16.8737 13.549 18.0337 12.549 19.8237 12.549C21.0937 12.549 22.1937 13.239 22.4937 14.249C22.5337 14.359 22.5537 14.519 22.5537 14.629C22.5537 14.919 22.3937 15.189 21.9437 15.189C21.7137 15.189 21.4937 15.049 21.3937 14.829C21.0937 14.179 20.5937 13.729 19.7737 13.729C19.0037 13.729 18.3937 14.209 18.3937 14.989C18.3937 15.659 18.9037 15.999 19.5337 16.159L20.6837 16.459C22.0437 16.819 22.8437 17.419 22.8437 18.789C22.8437 20.449 21.4537 21.379 19.8237 21.379Z"
        fillRule="evenodd"
        clipRule="evenodd"
    />
</svg>
        