
<svg
    viewBox="0 0 25.169921875 25.169921875"
    xmlns="http://www.w3.org/2000/svg"
>
    <path
        fill="inherit"
        d="M4.2937 25.1692H20.8737C23.7437 25.1692 25.1737 23.7592 25.1737 20.9492V4.2392C25.1737 1.4192 23.7437 -0.0008 20.8737 -0.0008H4.2937C1.4337 -0.0008 0.0037 1.4192 0.0037 4.2392V20.9492C0.0037 23.7592 1.4337 25.1692 4.2937 25.1692ZM4.3237 22.9692C2.9537 22.9692 2.2037 22.2392 2.2037 20.8192V4.3592C2.2037 2.9392 2.9537 2.1992 4.3237 2.1992H20.8537C22.2037 2.1992 22.9737 2.9392 22.9737 4.3592V20.8192C22.9737 22.2392 22.2037 22.9692 20.8537 22.9692ZM7.2837 18.1592C7.7837 18.1592 8.0637 17.8392 8.0637 17.3492V13.6492H9.7437L11.4137 17.5992C11.5837 17.9692 11.8037 18.1592 12.1937 18.1592C12.6337 18.1592 12.9737 17.8692 12.9737 17.4292C12.9737 17.2392 12.8937 17.0792 12.7937 16.8592L11.2537 13.3192C12.4437 12.7992 13.0037 11.6092 13.0037 10.3192C13.0037 8.4892 11.9537 7.0592 9.6837 7.0592H7.2737C6.8037 7.0592 6.5037 7.3692 6.5037 7.8492V17.3492C6.5037 17.8392 6.7937 18.1592 7.2837 18.1592ZM8.0637 12.3992V8.3492H9.5337C10.7637 8.3492 11.4437 9.1292 11.4437 10.3492C11.4437 11.5892 10.8037 12.3992 9.5437 12.3992ZM17.0237 18.1692C18.6037 18.1692 19.9437 17.2792 19.9437 15.6592C19.9437 14.3292 19.1637 13.7692 17.8537 13.4092L16.7637 13.1092C16.1337 12.9492 15.6437 12.6192 15.6437 11.9792C15.6437 11.2292 16.2237 10.7592 16.9837 10.7592C17.7737 10.7592 18.2637 11.1992 18.5537 11.8392C18.6437 12.0292 18.8537 12.1692 19.0837 12.1692C19.5137 12.1692 19.6737 11.9092 19.6737 11.6192C19.6737 11.5292 19.6437 11.3792 19.6037 11.2492C19.3137 10.2792 18.2637 9.6292 17.0237 9.6292C15.3037 9.6292 14.1637 10.5792 14.1637 12.0492C14.1637 13.3192 15.0137 13.9992 16.2237 14.3192L17.3337 14.5992C18.0237 14.7792 18.4537 15.1192 18.4537 15.8092C18.4537 16.5392 17.9137 17.0392 17.0937 17.0392C16.1837 17.0392 15.7237 16.7392 15.2837 15.9392C15.1237 15.6392 14.8737 15.5192 14.6437 15.5192C14.2837 15.5192 14.0237 15.7592 14.0237 16.1192C14.0237 16.2192 14.0637 16.3392 14.0937 16.4792C14.4637 17.6392 15.7737 18.1692 17.0237 18.1692Z"
        fillRule="evenodd"
        clipRule="evenodd"
    />
</svg>
        