
<svg
    viewBox="0 0 31.30859375 25.361328125"
    xmlns="http://www.w3.org/2000/svg"
>
    <path
        fill="inherit"
        d="M1.3837 25.3623C2.2237 25.3623 2.7337 24.7823 2.7337 23.9523V14.8023H7.0637C7.2337 14.8023 7.4137 14.8023 7.5637 14.8023L12.2637 24.4723C12.5637 25.1123 12.9637 25.3623 13.6337 25.3623C14.4537 25.3623 14.9737 24.7823 14.9737 24.1123C14.9737 23.8023 14.8237 23.4623 14.6737 23.1723L10.2437 14.2423C13.2037 13.2323 14.9437 10.5723 14.9437 7.3123C14.9437 2.8823 12.0137 0.0023 7.1737 0.0023H1.3837C0.5237 0.0023 0.0037 0.5723 0.0037 1.4223V23.9523C0.0037 24.8123 0.5437 25.3623 1.3837 25.3623ZM2.7337 12.4323V2.4223H6.8637C10.1037 2.4223 12.1937 4.1723 12.1937 7.3923C12.1937 10.6523 10.2537 12.4323 6.9637 12.4323ZM24.7337 25.3323C28.3137 25.3323 31.3037 23.4023 31.3037 19.8623C31.3037 16.7223 29.3837 15.5723 26.4137 14.7823L23.9437 14.1123C22.3537 13.6723 20.9437 12.9323 20.9437 11.2623C20.9437 9.3223 22.6537 8.2123 24.6337 8.2123C26.6837 8.2123 27.9737 9.1723 28.6737 11.0423C28.8937 11.5223 29.2137 11.7623 29.7637 11.7623C30.4037 11.7623 30.7637 11.3523 30.7637 10.7423C30.7637 10.6123 30.7437 10.4323 30.7037 10.2723C30.1337 7.5623 27.5237 6.0523 24.7437 6.0523C21.3437 6.0523 18.3437 7.8923 18.3437 11.4023C18.3437 14.2423 20.3437 15.6723 23.2037 16.4223L25.7037 17.0723C27.4637 17.5323 28.7137 18.2423 28.7137 20.0723C28.7137 22.0923 27.0537 23.2023 24.8837 23.2023C22.6037 23.2023 21.0537 22.3823 20.2337 20.2923C19.9637 19.7423 19.5637 19.4723 19.0837 19.4723C18.4137 19.4723 17.9537 19.8623 17.9537 20.5723C17.9537 20.7723 17.9937 20.9723 18.0637 21.1923C18.9037 23.9423 21.6737 25.3323 24.7337 25.3323Z"
        fillRule="evenodd"
        clipRule="evenodd"
    />
</svg>
        