
<svg
    viewBox="0 0 30.5703125 30.5703125"
    xmlns="http://www.w3.org/2000/svg"
>
    <path
        fill="inherit"
        d="M15.2827 30.5663C23.6827 30.5663 30.5727 23.6763 30.5727 15.2863C30.5727 6.8863 23.6827 -0.0038 15.2827 -0.0038C6.8927 -0.0038 0.0027 6.8863 0.0027 15.2863C0.0027 23.6763 6.8927 30.5663 15.2827 30.5663ZM15.2827 25.4862C9.6527 25.4862 5.0827 20.9162 5.0827 15.2863C5.0827 9.6363 9.6527 5.0863 15.2827 5.0863C20.9327 5.0863 25.4827 9.6363 25.4827 15.2863C25.4827 20.9162 20.9327 25.4862 15.2827 25.4862ZM9.9827 20.8663C10.4727 20.8663 10.7627 20.5463 10.7627 20.0563V16.3563H12.4427L14.1127 20.3063C14.2727 20.6763 14.4927 20.8663 14.8927 20.8663C15.3227 20.8663 15.6727 20.5763 15.6727 20.1363C15.6727 19.9463 15.5827 19.7863 15.4927 19.5663L13.9427 16.0262C15.1327 15.5063 15.6927 14.3163 15.6927 13.0262C15.6927 11.1962 14.6427 9.7663 12.3727 9.7663H9.9627C9.5027 9.7663 9.2027 10.0763 9.2027 10.5563V20.0563C9.2027 20.5463 9.4927 20.8663 9.9827 20.8663ZM10.7627 15.1063V11.0563H12.2227C13.4527 11.0563 14.1327 11.8363 14.1327 13.0563C14.1327 14.2963 13.4927 15.1063 12.2327 15.1063ZM19.7127 20.8763C21.3027 20.8763 22.6427 19.9862 22.6427 18.3663C22.6427 17.0363 21.8627 16.4763 20.5527 16.1163L19.4527 15.8163C18.8227 15.6563 18.3327 15.3263 18.3327 14.6863C18.3327 13.9363 18.9227 13.4663 19.6727 13.4663C20.4627 13.4663 20.9627 13.9063 21.2427 14.5463C21.3427 14.7363 21.5427 14.8763 21.7827 14.8763C22.2027 14.8763 22.3627 14.6163 22.3627 14.3263C22.3627 14.2363 22.3427 14.0863 22.3027 13.9563C22.0127 12.9863 20.9627 12.3363 19.7127 12.3363C17.9927 12.3363 16.8527 13.2863 16.8527 14.7563C16.8527 16.0262 17.7027 16.7063 18.9227 17.0262L20.0327 17.3063C20.7127 17.4862 21.1527 17.8263 21.1527 18.5163C21.1527 19.2463 20.6027 19.7463 19.7827 19.7463C18.8827 19.7463 18.4127 19.4463 17.9827 18.6463C17.8127 18.3463 17.5727 18.2263 17.3327 18.2263C16.9827 18.2263 16.7227 18.4663 16.7227 18.8263C16.7227 18.9263 16.7627 19.0463 16.7927 19.1863C17.1627 20.3463 18.4727 20.8763 19.7127 20.8763Z"
        fillRule="evenodd"
        clipRule="evenodd"
    />
</svg>
        