
<svg
    viewBox="0 0 25.169921875 25.169921875"
    xmlns="http://www.w3.org/2000/svg"
>
    <path
        fill="inherit"
        d="M4.2937 25.1692H20.8737C23.7437 25.1692 25.1737 23.7592 25.1737 20.9492V4.2392C25.1737 1.4192 23.7437 -0.0008 20.8737 -0.0008H4.2937C1.4337 -0.0008 0.0037 1.4192 0.0037 4.2392V20.9492C0.0037 23.7592 1.4337 25.1692 4.2937 25.1692ZM7.0937 18.3292C6.5937 18.3292 6.2937 18.0092 6.2937 17.4892V7.6992C6.2937 7.2092 6.6037 6.8792 7.0837 6.8792H9.5737C11.9037 6.8792 13.0037 8.3692 13.0037 10.2492C13.0037 11.5792 12.4237 12.7992 11.1937 13.3392L12.7837 16.9792C12.8837 17.2092 12.9737 17.3792 12.9737 17.5792C12.9737 18.0292 12.6237 18.3292 12.1637 18.3292C11.7537 18.3292 11.5237 18.1292 11.3637 17.7492L9.6437 13.6892H7.9137V17.4892C7.9137 18.0092 7.6137 18.3292 7.0937 18.3292ZM7.9137 12.3892H9.4337C10.7237 12.3892 11.3937 11.5692 11.3937 10.2792C11.3937 9.0192 10.6737 8.2292 9.4237 8.2292H7.9137ZM17.1437 18.3492C15.8637 18.3492 14.5037 17.7892 14.1237 16.5992C14.0937 16.4492 14.0537 16.3192 14.0537 16.2292C14.0537 15.8592 14.3137 15.5992 14.6837 15.5992C14.9337 15.5992 15.1937 15.7392 15.3537 16.0392C15.8037 16.8592 16.2837 17.1692 17.2137 17.1692C18.0637 17.1692 18.6237 16.6692 18.6237 15.8992C18.6237 15.1992 18.1737 14.8492 17.4637 14.6692L16.3237 14.3692C15.0637 14.0392 14.1937 13.3392 14.1937 12.0292C14.1937 10.5092 15.3637 9.5292 17.1437 9.5292C18.4137 9.5292 19.5137 10.1992 19.8137 11.2092C19.8537 11.3292 19.8837 11.4892 19.8837 11.5892C19.8837 11.8792 19.7137 12.1592 19.2637 12.1592C19.0337 12.1592 18.8137 12.0192 18.7137 11.8092C18.4137 11.1592 17.9137 10.7092 17.1037 10.7092C16.3237 10.7092 15.7237 11.1792 15.7237 11.9592C15.7237 12.6192 16.2237 12.9592 16.8737 13.1292L18.0037 13.4392C19.3637 13.7992 20.1637 14.3792 20.1637 15.7492C20.1637 17.4292 18.7737 18.3492 17.1437 18.3492Z"
        fillRule="evenodd"
        clipRule="evenodd"
    />
</svg>
        