<svg viewBox="0 0 32.935546875 27.26189615322232" xmlns="http://www.w3.org/2000/svg"><path d="M32.9327 16.3992C32.9327 7.7792 26.3227 0.7192 17.8927 -0.0008C17.4627 -0.0408 17.1327 0.2792 17.1327 0.7192V5.1892C17.1327 5.5592 17.3927 5.8392 17.7627 5.8692C22.9927 6.5092 27.0727 10.9792 27.0727 16.3992C27.0727 18.8592 26.2227 21.1292 24.7327 23.0292C24.5427 23.2592 24.5527 23.5592 24.7627 23.7792L28.0227 27.0292C28.3327 27.3292 28.7927 27.3292 29.0627 27.0092C31.4827 24.1392 32.9327 20.4292 32.9327 16.3992ZM0.0027 16.3992C0.0027 20.4392 1.4527 24.1492 3.8727 27.0192C4.1427 27.3492 4.5927 27.3292 4.9127 27.0292L8.1727 23.7792C8.3827 23.5592 8.3927 23.2592 8.2027 23.0292C6.7027 21.1292 5.8627 18.8592 5.8627 16.3992C5.8627 10.9792 9.9427 6.5092 15.1727 5.8692C15.5427 5.8392 15.8027 5.5592 15.8027 5.1892V0.7192C15.8027 0.2792 15.4727 -0.0408 15.0427 -0.0008C6.6127 0.7192 0.0027 7.7792 0.0027 16.3992ZM11.1427 22.1692C11.6327 22.1692 11.9227 21.8392 11.9227 21.3492V17.6492H13.6027L15.2827 21.5892C15.4327 21.9592 15.6727 22.1692 16.0527 22.1692C16.4927 22.1692 16.8327 21.8792 16.8327 21.4292C16.8327 21.2392 16.7527 21.0892 16.6627 20.8692L15.1027 17.3092C16.3127 16.7892 16.8727 15.5992 16.8727 14.3292C16.8727 12.4992 15.8227 11.0492 13.5327 11.0492H11.1327C10.6627 11.0492 10.3627 11.3692 10.3627 11.8392V21.3492C10.3627 21.8392 10.6527 22.1692 11.1427 22.1692ZM11.9227 16.3992V12.3492H13.3827C14.6127 12.3492 15.3027 13.1292 15.3027 14.3592C15.3027 15.5892 14.6527 16.3992 13.4027 16.3992ZM20.8727 22.1792C22.4627 22.1792 23.8027 21.2792 23.8027 19.6492C23.8027 18.3392 23.0227 17.7592 21.7227 17.4092L20.6127 17.1092C20.0027 16.9392 19.4927 16.6292 19.4927 15.9692C19.4927 15.2192 20.0827 14.7592 20.8327 14.7592C21.6327 14.7592 22.1227 15.1892 22.4127 15.8392C22.5027 16.0392 22.7127 16.1792 22.9427 16.1792C23.3627 16.1792 23.5327 15.9192 23.5327 15.6192C23.5327 15.5192 23.5027 15.3692 23.4627 15.2492C23.1727 14.2892 22.1227 13.6192 20.8727 13.6192C19.1527 13.6192 18.0227 14.5792 18.0227 16.0592C18.0227 17.3292 18.8627 17.9992 20.0827 18.3092L21.2027 18.6092C21.8727 18.7892 22.3227 19.1192 22.3227 19.7992C22.3227 20.5392 21.7827 21.0292 20.9427 21.0292C20.0527 21.0292 19.5827 20.7292 19.1427 19.9392C18.9727 19.6392 18.7327 19.5092 18.5027 19.5092C18.1427 19.5092 17.8827 19.7592 17.8827 20.1192C17.8827 20.2292 17.9227 20.3492 17.9627 20.4692C18.3227 21.6492 19.6327 22.1792 20.8727 22.1792Z" /></svg>