
<svg
    viewBox="0 0 27.890625 27.890625"
    xmlns="http://www.w3.org/2000/svg"
>
    <path
        fill="inherit"
        d="M13.9427 27.8864C21.6427 27.8864 27.8927 21.6464 27.8927 13.9464C27.8927 6.2464 21.6427 -0.0036 13.9427 -0.0036C6.2527 -0.0036 0.0027 6.2464 0.0027 13.9464C0.0027 21.6464 6.2527 27.8864 13.9427 27.8864ZM13.9427 25.5664C7.5227 25.5664 2.3227 20.3664 2.3227 13.9464C2.3227 7.5164 7.5227 2.3264 13.9427 2.3264C20.3727 2.3264 25.5627 7.5164 25.5627 13.9464C25.5627 20.3664 20.3727 25.5664 13.9427 25.5664ZM8.6227 19.5264C9.1227 19.5264 9.4027 19.2064 9.4027 18.7164V15.0164H11.0927L12.7527 18.9664C12.9027 19.3364 13.1427 19.5264 13.5327 19.5264C13.9727 19.5264 14.3127 19.2364 14.3127 18.7964C14.3127 18.6064 14.2327 18.4464 14.1327 18.2264L12.5927 14.6864C13.7827 14.1664 14.3427 12.9764 14.3427 11.6864C14.3427 9.8564 13.2927 8.4264 11.0227 8.4264H8.6127C8.1327 8.4264 7.8427 8.7364 7.8427 9.2164V18.7164C7.8427 19.2064 8.1327 19.5264 8.6227 19.5264ZM9.4027 13.7664V9.7164H10.8727C12.1027 9.7164 12.7827 10.4964 12.7827 11.7164C12.7827 12.9564 12.1227 13.7664 10.8827 13.7664ZM18.3627 19.5364C19.9427 19.5364 21.2827 18.6464 21.2827 17.0264C21.2827 15.6964 20.5127 15.1364 19.1927 14.7764L18.1027 14.4764C17.4727 14.3164 16.9627 13.9864 16.9627 13.3464C16.9627 12.5964 17.5727 12.1264 18.3227 12.1264C19.1127 12.1264 19.6027 12.5664 19.8927 13.2064C19.9927 13.3964 20.1927 13.5364 20.4227 13.5364C20.8527 13.5364 21.0127 13.2764 21.0127 12.9864C21.0127 12.8964 20.9827 12.7464 20.9427 12.6164C20.6627 11.6464 19.6027 10.9964 18.3627 10.9964C16.6427 10.9964 15.5027 11.9464 15.5027 13.4164C15.5027 14.6864 16.3427 15.3664 17.5727 15.6864L18.6727 15.9664C19.3627 16.1464 19.7927 16.4864 19.7927 17.1764C19.7927 17.9064 19.2527 18.4064 18.4327 18.4064C17.5227 18.4064 17.0627 18.1064 16.6227 17.3064C16.4627 17.0064 16.2127 16.8864 15.9827 16.8864C15.6227 16.8864 15.3627 17.1264 15.3627 17.4864C15.3627 17.5864 15.4127 17.7064 15.4327 17.8464C15.8027 19.0064 17.1027 19.5364 18.3627 19.5364Z"
        fillRule="evenodd"
        clipRule="evenodd"
    />
</svg>
        