<svg viewBox="0 0 27.890625 27.890625" xmlns="http://www.w3.org/2000/svg"><path d="M13.9427 27.8864C21.6427 27.8864 27.8927 21.6264 27.8927 13.9464C27.8927 6.2464 21.6427 -0.0036 13.9427 -0.0036C6.2627 -0.0036 0.0027 6.2464 0.0027 13.9464C0.0027 21.6264 6.2627 27.8864 13.9427 27.8864ZM8.4527 19.6964C7.9427 19.6964 7.6427 19.3764 7.6427 18.8564V9.0664C7.6427 8.5764 7.9427 8.2464 8.4327 8.2464H10.9227C13.2627 8.2464 14.3527 9.7364 14.3527 11.6164C14.3527 12.9464 13.7827 14.1664 12.5527 14.7064L14.1327 18.3464C14.2327 18.5764 14.3327 18.7464 14.3327 18.9464C14.3327 19.3964 13.9727 19.6964 13.5227 19.6964C13.1127 19.6964 12.8627 19.4964 12.7127 19.1164L10.9927 15.0564H9.2727V18.8564C9.2727 19.3764 8.9727 19.6964 8.4527 19.6964ZM9.2727 13.7564H10.7827C12.0627 13.7564 12.7427 12.9364 12.7427 11.6464C12.7427 10.3864 12.0327 9.5964 10.7727 9.5964H9.2727ZM18.5027 19.7164C17.2027 19.7164 15.8627 19.1564 15.4727 17.9664C15.4527 17.8164 15.4127 17.6864 15.4127 17.5964C15.4127 17.2264 15.6727 16.9664 16.0327 16.9664C16.2827 16.9664 16.5427 17.1064 16.7027 17.4064C17.1627 18.2264 17.6327 18.5364 18.5627 18.5364C19.4127 18.5364 19.9727 18.0364 19.9727 17.2664C19.9727 16.5664 19.5227 16.2164 18.8127 16.0364L17.6827 15.7364C16.4027 15.4064 15.5427 14.7064 15.5427 13.3964C15.5427 11.8764 16.7227 10.8964 18.5027 10.8964C19.7727 10.8964 20.8627 11.5664 21.1627 12.5764C21.2027 12.6964 21.2327 12.8564 21.2327 12.9564C21.2327 13.2464 21.0727 13.5264 20.6127 13.5264C20.3827 13.5264 20.1627 13.3864 20.0727 13.1764C19.7727 12.5264 19.2627 12.0764 18.4527 12.0764C17.6827 12.0764 17.0627 12.5464 17.0627 13.3264C17.0627 13.9864 17.5827 14.3264 18.2227 14.4964L19.3627 14.8064C20.7127 15.1664 21.5227 15.7464 21.5227 17.1164C21.5227 18.7964 20.1227 19.7164 18.5027 19.7164Z" /></svg>