
<svg
    viewBox={0 0 30.529296875 29.17578125}
    xmlns="http://www.w3.org/2000/svg"
>
    <path
        fill="inherit"
        d="M1.8137 25.919H28.7137V25.009C28.7137 24.459 28.3937 24.129 27.8337 24.129H26.9637V9.379H28.1637C28.9137 9.379 29.3537 8.829 29.3537 8.269C29.3537 7.859 29.1237 7.509 28.6137 7.219L16.9437 0.479C16.3937 0.169 15.8137 -0.001 15.2537 -0.001C14.6937 -0.001 14.1137 0.169 13.5937 0.479L1.9137 7.219C1.3937 7.509 1.1737 7.859 1.1737 8.269C1.1737 8.829 1.6137 9.379 2.3637 9.379H3.5637V24.129H2.7037C2.1437 24.129 1.8137 24.459 1.8137 25.009ZM5.6337 24.129V7.629L14.7237 2.529C14.8937 2.429 15.0837 2.379 15.2537 2.379C15.4337 2.379 15.6237 2.429 15.8037 2.529L24.8937 7.629V24.129ZM9.9637 19.979C10.4637 19.979 10.7437 19.649 10.7437 19.159V15.459H12.4237L14.0937 19.399C14.2437 19.769 14.4737 19.979 14.8737 19.979C15.3137 19.979 15.6537 19.689 15.6537 19.239C15.6537 19.049 15.5737 18.899 15.4737 18.679L13.9337 15.119C15.1237 14.599 15.6837 13.409 15.6837 12.139C15.6837 10.309 14.6337 8.859 12.3637 8.859H9.9537C9.4737 8.859 9.1737 9.169 9.1737 9.649V19.159C9.1737 19.649 9.4737 19.979 9.9637 19.979ZM10.7437 14.209V10.159H12.2137C13.4437 10.159 14.1237 10.939 14.1237 12.169C14.1237 13.399 13.4637 14.209 12.2237 14.209ZM19.7037 19.989C21.2837 19.989 22.6237 19.089 22.6237 17.459C22.6237 16.149 21.8437 15.569 20.5337 15.219L19.4237 14.919C18.8137 14.749 18.3037 14.439 18.3037 13.779C18.3037 13.029 18.9037 12.569 19.6437 12.569C20.4537 12.569 20.9437 12.999 21.2337 13.649C21.3237 13.849 21.5337 13.989 21.7637 13.989C22.1937 13.989 22.3537 13.729 22.3537 13.429C22.3537 13.329 22.3237 13.179 22.2837 13.059C21.9937 12.099 20.9437 11.429 19.7037 11.429C17.9637 11.429 16.8437 12.389 16.8437 13.859C16.8437 15.139 17.6737 15.809 18.8937 16.119L20.0137 16.419C20.7037 16.599 21.1337 16.929 21.1337 17.609C21.1337 18.349 20.5937 18.839 19.7737 18.839C18.8637 18.839 18.4037 18.539 17.9637 17.749C17.7837 17.449 17.5537 17.319 17.3237 17.319C16.9637 17.319 16.7037 17.569 16.7037 17.919C16.7037 18.029 16.7337 18.159 16.7737 18.279C17.1437 19.459 18.4437 19.989 19.7037 19.989ZM1.0937 29.179H29.4237C30.0237 29.179 30.5337 28.669 30.5337 28.069C30.5337 27.469 30.0237 26.979 29.4237 26.979H1.0937C0.4937 26.979 0.0037 27.469 0.0037 28.069C0.0037 28.669 0.4937 29.179 1.0937 29.179Z"
        fillRule="evenodd"
        clipRule="evenodd"
    />
</svg>
        