
<svg
    viewBox="0 0 32.935546875 27.33018496744969"
    xmlns="http://www.w3.org/2000/svg"
>
    <path
        fill="inherit"
        d="M16.4627 5.864C18.9327 5.864 21.2027 6.724 23.0227 8.134C23.2927 8.354 23.6527 8.324 23.9127 8.064L27.0827 4.894C27.4027 4.584 27.3827 4.124 27.0527 3.854C24.2027 1.454 20.4927 0.004 16.4627 0.004C12.4427 0.004 8.7327 1.454 5.8827 3.854C5.5527 4.124 5.5327 4.584 5.8527 4.894L9.0227 8.064C9.2827 8.324 9.6527 8.354 9.9527 8.124C11.7627 6.724 14.0127 5.864 16.4627 5.864ZM0.0027 16.464C0.0027 20.494 1.4527 24.204 3.8727 27.074C4.1427 27.414 4.6027 27.414 4.9127 27.094L8.1627 23.844C8.3627 23.624 8.3927 23.324 8.2027 23.094C6.7127 21.194 5.8627 18.924 5.8627 16.464C5.8627 14.014 6.7027 11.744 8.1227 9.944C8.3427 9.654 8.3427 9.284 8.0827 9.024L4.9127 5.854C4.5927 5.534 4.1427 5.534 3.8727 5.864C1.4527 8.734 0.0027 12.444 0.0027 16.464ZM32.9327 16.464C32.9327 12.444 31.4827 8.734 29.0627 5.864C28.7927 5.534 28.3327 5.534 28.0227 5.854L24.8527 9.024C24.5927 9.284 24.5827 9.654 24.8127 9.944C26.2227 11.744 27.0727 14.014 27.0727 16.464C27.0727 18.924 26.2227 21.194 24.7327 23.094C24.5427 23.324 24.5527 23.624 24.7627 23.844L28.0127 27.094C28.3327 27.414 28.7827 27.414 29.0627 27.074C31.4827 24.204 32.9327 20.494 32.9327 16.464ZM11.1427 22.234C11.6327 22.234 11.9227 21.904 11.9227 21.414V17.714H13.6027L15.2827 21.654C15.4327 22.024 15.6727 22.234 16.0527 22.234C16.4927 22.234 16.8327 21.944 16.8327 21.494C16.8327 21.304 16.7527 21.154 16.6627 20.934L15.1027 17.374C16.3127 16.854 16.8727 15.664 16.8727 14.394C16.8727 12.564 15.8227 11.114 13.5327 11.114H11.1327C10.6627 11.114 10.3627 11.434 10.3627 11.904V21.414C10.3627 21.904 10.6527 22.234 11.1427 22.234ZM11.9227 16.464V12.414H13.3827C14.6127 12.414 15.3027 13.194 15.3027 14.424C15.3027 15.654 14.6527 16.464 13.4027 16.464ZM20.8727 22.244C22.4627 22.244 23.8027 21.344 23.8027 19.714C23.8027 18.404 23.0227 17.824 21.7227 17.474L20.6127 17.174C20.0027 17.004 19.4927 16.694 19.4927 16.034C19.4927 15.284 20.0827 14.824 20.8327 14.824C21.6327 14.824 22.1227 15.254 22.4127 15.904C22.5027 16.104 22.7127 16.244 22.9427 16.244C23.3627 16.244 23.5327 15.984 23.5327 15.684C23.5327 15.584 23.5027 15.434 23.4627 15.314C23.1727 14.354 22.1227 13.684 20.8727 13.684C19.1527 13.684 18.0227 14.644 18.0227 16.124C18.0227 17.394 18.8627 18.064 20.0827 18.374L21.2027 18.674C21.8727 18.854 22.3227 19.184 22.3227 19.864C22.3227 20.604 21.7827 21.094 20.9427 21.094C20.0527 21.094 19.5827 20.794 19.1427 20.004C18.9727 19.704 18.7327 19.574 18.5027 19.574C18.1427 19.574 17.8827 19.824 17.8827 20.184C17.8827 20.294 17.9227 20.414 17.9627 20.534C18.3227 21.714 19.6327 22.244 20.8727 22.244Z"
        fillRule="evenodd"
        clipRule="evenodd"
    />
</svg>
        