
<svg
    viewBox={0 0 27.890625 27.890625}
    xmlns="http://www.w3.org/2000/svg"
>
    <path
        fill="inherit"
        d="M13.9427 27.8864C21.6427 27.8864 27.8927 21.6264 27.8927 13.9464C27.8927 6.2464 21.6427 -0.0036 13.9427 -0.0036C6.2627 -0.0036 0.0027 6.2464 0.0027 13.9464C0.0027 21.6264 6.2627 27.8864 13.9427 27.8864ZM13.8127 20.5664C11.2427 20.5664 9.5327 19.3164 9.0227 17.9764C8.9027 17.7164 8.8627 17.4864 8.8627 17.2664C8.8627 16.6564 9.2527 16.2564 9.8827 16.2564C10.3927 16.2564 10.6927 16.5064 10.9527 17.0264C11.4427 18.1464 12.4727 18.7164 13.9427 18.7164C15.4927 18.7164 16.6827 18.0364 16.6827 16.7864C16.6827 15.8064 16.1027 15.3764 14.4327 14.9164L12.3827 14.3264C10.2027 13.7264 9.0527 12.7164 9.0527 10.9364C9.0527 8.6864 11.0627 7.0864 13.9427 7.0864C16.3427 7.0864 18.0327 8.1764 18.5527 9.6764C18.6627 9.9264 18.7027 10.1764 18.7027 10.3464C18.7027 11.0064 18.2827 11.3364 17.6927 11.3364C17.1627 11.3364 16.8527 11.0764 16.6527 10.6064C16.1727 9.4364 15.2827 8.8764 13.8627 8.8764C12.3727 8.8764 11.4027 9.6264 11.4027 10.7964C11.4027 11.6664 11.9627 12.1864 13.3127 12.5364L15.2027 13.0464C17.6827 13.6964 19.0427 14.7364 19.0427 16.5964C19.0427 19.0264 16.9627 20.5664 13.8127 20.5664Z"
        fillRule="evenodd"
        clipRule="evenodd"
    />
</svg>
        