<svg viewBox="0 0 27.890625 27.890625" xmlns="http://www.w3.org/2000/svg"><path d="M13.9427 27.8864C21.6427 27.8864 27.8927 21.6464 27.8927 13.9464C27.8927 6.2464 21.6427 -0.0036 13.9427 -0.0036C6.2527 -0.0036 0.0027 6.2464 0.0027 13.9464C0.0027 21.6464 6.2527 27.8864 13.9427 27.8864ZM13.9427 25.5664C7.5227 25.5664 2.3227 20.3664 2.3227 13.9464C2.3227 7.5164 7.5227 2.3264 13.9427 2.3264C20.3727 2.3264 25.5627 7.5164 25.5627 13.9464C25.5627 20.3664 20.3727 25.5664 13.9427 25.5664ZM13.7927 20.3564C16.8527 20.3564 18.8627 18.8664 18.8627 16.5164C18.8627 14.7064 17.5527 13.7164 15.1527 13.0664L13.3127 12.5764C12.0027 12.2364 11.4527 11.7264 11.4527 10.8964C11.4527 9.7464 12.4027 9.0264 13.8527 9.0264C15.2327 9.0264 16.1027 9.5664 16.5527 10.7064C16.7627 11.1564 17.0527 11.4064 17.5727 11.4064C18.1327 11.4064 18.5427 11.0864 18.5427 10.4564C18.5427 10.2764 18.5027 10.0464 18.4027 9.8064C17.8927 8.3564 16.2527 7.2864 13.9327 7.2864C11.1427 7.2864 9.1827 8.8464 9.1827 11.0164C9.1827 12.7464 10.3127 13.7264 12.4327 14.3164L14.4127 14.8764C16.0327 15.3264 16.5927 15.7364 16.5927 16.6964C16.5927 17.9064 15.4327 18.5764 13.9327 18.5764C12.4927 18.5764 11.5027 18.0164 11.0227 16.9264C10.7727 16.4164 10.4827 16.1864 9.9927 16.1864C9.3927 16.1864 9.0127 16.5664 9.0127 17.1764C9.0127 17.3764 9.0527 17.5964 9.1627 17.8464C9.6527 19.1564 11.3027 20.3564 13.7927 20.3564Z" /></svg>