
<svg
    viewBox={0 0 25.169921875 25.169921875}
    xmlns="http://www.w3.org/2000/svg"
>
    <path
        fill="inherit"
        d="M4.2937 25.1692H20.8737C23.7437 25.1692 25.1737 23.7592 25.1737 20.9492V4.2392C25.1737 1.4192 23.7437 -0.0008 20.8737 -0.0008H4.2937C1.4337 -0.0008 0.0037 1.4192 0.0037 4.2392V20.9492C0.0037 23.7592 1.4337 25.1692 4.2937 25.1692ZM4.3237 22.9692C2.9537 22.9692 2.2037 22.2392 2.2037 20.8192V4.3592C2.2037 2.9392 2.9537 2.1992 4.3237 2.1992H20.8537C22.2037 2.1992 22.9737 2.9392 22.9737 4.3592V20.8192C22.9737 22.2392 22.2037 22.9692 20.8537 22.9692ZM12.4537 18.9892C15.5137 18.9892 17.5237 17.4992 17.5237 15.1492C17.5237 13.3392 16.2137 12.3492 13.8037 11.6992L11.9737 11.2092C10.6637 10.8692 10.1137 10.3592 10.1137 9.5292C10.1137 8.3792 11.0637 7.6592 12.5137 7.6592C13.8937 7.6592 14.7637 8.1992 15.2337 9.3392C15.4237 9.7892 15.7137 10.0392 16.2437 10.0392C16.7937 10.0392 17.2037 9.7192 17.2037 9.0892C17.2037 8.9092 17.1537 8.6792 17.0737 8.4392C16.5537 6.9892 14.9137 5.9192 12.6037 5.9192C9.8037 5.9192 7.8437 7.4792 7.8437 9.6492C7.8437 11.3792 8.9737 12.3592 11.0837 12.9492L13.0737 13.5092C14.6937 13.9592 15.2537 14.3692 15.2537 15.3292C15.2537 16.5392 14.0937 17.2092 12.5937 17.2092C11.1537 17.2092 10.1537 16.6492 9.6837 15.5592C9.4337 15.0492 9.1437 14.8192 8.6537 14.8192C8.0637 14.8192 7.6737 15.1992 7.6737 15.8092C7.6737 16.0092 7.7237 16.2292 7.8237 16.4792C8.3137 17.7892 9.9637 18.9892 12.4537 18.9892Z"
        fillRule="evenodd"
        clipRule="evenodd"
    />
</svg>
        