
<svg
    viewBox={0 0 25.169921875 25.169921875}
    xmlns="http://www.w3.org/2000/svg"
>
    <path
        fill="inherit"
        d="M4.2937 25.1692H20.8737C23.7437 25.1692 25.1737 23.7592 25.1737 20.9492V4.2392C25.1737 1.4192 23.7437 -0.0008 20.8737 -0.0008H4.2937C1.4337 -0.0008 0.0037 1.4192 0.0037 4.2392V20.9492C0.0037 23.7592 1.4337 25.1692 4.2937 25.1692ZM12.4537 19.1992C9.8837 19.1992 8.1737 17.9492 7.6737 16.6092C7.5637 16.3492 7.5037 16.1192 7.5037 15.8992C7.5037 15.2892 7.9137 14.8892 8.5337 14.8892C9.0337 14.8892 9.3337 15.1392 9.5937 15.6592C10.0937 16.7792 11.1137 17.3492 12.5937 17.3492C14.1337 17.3492 15.3237 16.6692 15.3237 15.4192C15.3237 14.4392 14.7537 14.0092 13.0837 13.5492L11.0337 12.9592C8.8437 12.3592 7.6937 11.3492 7.6937 9.5692C7.6937 7.3192 9.7037 5.7192 12.6037 5.7192C14.9837 5.7192 16.6837 6.8092 17.2137 8.3092C17.3037 8.5592 17.3537 8.8092 17.3537 8.9792C17.3537 9.6392 16.9237 9.9692 16.3537 9.9692C15.8037 9.9692 15.5037 9.7092 15.3137 9.2392C14.8237 8.0692 13.9337 7.5092 12.5137 7.5092C11.0237 7.5092 10.0537 8.2592 10.0537 9.4292C10.0537 10.2992 10.6137 10.8192 11.9637 11.1692L13.8537 11.6792C16.3237 12.3292 17.6937 13.3692 17.6937 15.2292C17.6937 17.6592 15.6137 19.1992 12.4537 19.1992Z"
        fillRule="evenodd"
        clipRule="evenodd"
    />
</svg>
        