
<svg
    viewBox="0 0 27.890625 27.890625"
    xmlns="http://www.w3.org/2000/svg"
>
    <path
        fill="inherit"
        d="M13.9427 27.8864C21.6427 27.8864 27.8927 21.6264 27.8927 13.9464C27.8927 6.2464 21.6427 -0.0036 13.9427 -0.0036C6.2627 -0.0036 0.0027 6.2464 0.0027 13.9464C0.0027 21.6264 6.2627 27.8864 13.9427 27.8864ZM8.0627 21.0664C7.1227 21.5164 6.4027 20.7764 6.8327 19.8564L10.8027 11.7564C11.0327 11.2764 11.3327 10.9764 11.7727 10.7764L19.8427 6.8364C20.8327 6.3564 21.5327 7.0964 21.0727 8.0564L17.1327 16.1364C16.9127 16.5664 16.5927 16.8964 16.1427 17.1064ZM13.9627 15.6964C14.9127 15.6964 15.6927 14.9164 15.6927 13.9564C15.6927 13.0064 14.9127 12.2364 13.9627 12.2364C13.0127 12.2364 12.2327 13.0064 12.2327 13.9564C12.2327 14.9164 13.0127 15.6964 13.9627 15.6964Z"
        fillRule="evenodd"
        clipRule="evenodd"
    />
</svg>
        