
<svg
    viewBox={0 0 27.890625 27.890625}
    xmlns="http://www.w3.org/2000/svg"
>
    <path
        fill="inherit"
        d="M13.9427 27.8864C21.6427 27.8864 27.8927 21.6464 27.8927 13.9464C27.8927 6.2464 21.6427 -0.0036 13.9427 -0.0036C6.2527 -0.0036 0.0027 6.2464 0.0027 13.9464C0.0027 21.6464 6.2527 27.8864 13.9427 27.8864ZM13.9427 25.5664C7.5227 25.5664 2.3227 20.3664 2.3227 13.9464C2.3227 7.5164 7.5227 2.3264 13.9427 2.3264C20.3727 2.3264 25.5627 7.5164 25.5627 13.9464C25.5627 20.3664 20.3727 25.5664 13.9427 25.5664ZM8.2127 20.8364L16.0627 17.0064C16.5027 16.7864 16.8027 16.4864 17.0227 16.0664L20.8327 8.2264C21.2727 7.2964 20.6027 6.5764 19.6427 7.0564L11.8227 10.8664C11.4027 11.0564 11.1127 11.3464 10.8827 11.8164L7.0427 19.6564C6.6027 20.5664 7.3127 21.2764 8.2127 20.8364ZM13.9427 15.6264C13.0127 15.6264 12.2727 14.8764 12.2727 13.9564C12.2727 13.0264 13.0127 12.2764 13.9427 12.2764C14.8727 12.2764 15.6227 13.0264 15.6227 13.9564C15.6227 14.8764 14.8727 15.6264 13.9427 15.6264Z"
        fillRule="evenodd"
        clipRule="evenodd"
    />
</svg>
        