
<svg
    viewBox={0 0 27.890625 27.890625}
    xmlns="http://www.w3.org/2000/svg"
>
    <path
        fill="inherit"
        d="M13.9427 27.8864C21.6427 27.8864 27.8927 21.6464 27.8927 13.9464C27.8927 6.2464 21.6427 -0.0036 13.9427 -0.0036C6.2527 -0.0036 0.0027 6.2464 0.0027 13.9464C0.0027 21.6464 6.2527 27.8864 13.9427 27.8864ZM13.9427 25.5664C7.5227 25.5664 2.3227 20.3664 2.3227 13.9464C2.3227 7.5164 7.5227 2.3264 13.9427 2.3264C20.3727 2.3264 25.5627 7.5164 25.5627 13.9464C25.5627 20.3664 20.3727 25.5664 13.9427 25.5664ZM9.6527 21.6964H16.7727C17.2827 21.6964 17.6327 21.5564 18.0227 21.2164C18.6527 20.6564 19.6027 19.2364 19.6027 18.7064C19.6027 18.3564 19.3727 18.0764 18.8627 18.1464C17.2227 18.3564 15.4527 18.4864 13.6727 18.5364L13.7627 17.3664C15.4727 17.5164 17.1727 17.4564 18.2827 17.2764C19.1527 17.1464 19.5927 16.7864 19.8827 16.0064C20.2227 15.1464 20.3427 14.2164 20.3427 13.2064C20.3427 10.5664 19.1827 7.5864 15.5827 5.6964C15.2727 5.5264 14.9827 5.4564 14.7227 5.4564C14.1627 5.4564 13.6727 5.7964 13.6327 6.3964L13.3827 9.1464L8.2727 16.2664C7.9027 16.8064 8.0927 17.2764 8.6927 17.3464C9.9627 17.4864 11.3627 17.4864 12.6627 17.3864L12.5527 18.5664C11.2127 18.5964 9.8827 18.5964 8.5827 18.5964C8.0427 18.5964 7.7527 19.0064 7.9427 19.4964L8.4527 20.8664C8.6727 21.4664 9.0227 21.6964 9.6527 21.6964ZM14.6927 6.6064C14.6927 6.5264 14.7827 6.5264 14.8027 6.6064C15.2827 7.9664 15.5427 9.6664 15.5427 11.1964C15.5427 13.2364 14.9327 14.9964 13.8727 16.1364Z"
        fillRule="evenodd"
        clipRule="evenodd"
    />
</svg>
        