
<svg
    viewBox="0 0 30.05078125 37.720703125"
    xmlns="http://www.w3.org/2000/svg"
>
    <path
        fill="inherit"
        d="M3.6637 26.5683C6.6137 26.8883 9.8137 26.9183 12.7937 26.6483L12.5637 29.2683C9.4837 29.3283 6.4137 29.3283 3.4437 29.3283C2.2137 29.3283 1.5737 30.2583 1.9837 31.3783L3.3537 35.1383C2.6937 35.5283 2.0137 35.7883 1.0437 35.7883H0.9737C0.4237 35.7883 0.0037 36.2283 0.0037 36.7683C0.0037 37.2983 0.4237 37.7183 0.9737 37.7183H1.0437C5.2937 37.7183 5.6637 34.9483 7.8737 34.9483C10.0537 34.9483 10.6337 37.7183 14.3737 37.7183C18.0837 37.7183 18.6937 34.9483 20.8637 34.9483C23.0737 34.9483 23.4337 37.7183 27.7037 37.7183H29.0937C29.6237 37.7183 30.0537 37.2983 30.0537 36.7683C30.0537 36.2283 29.6237 35.7883 29.0937 35.7883H27.7037C26.3637 35.7883 25.5637 35.2983 24.6537 34.6583C26.4837 33.3683 28.0537 30.9683 28.0537 29.6183C28.0537 28.7883 27.5037 28.1683 26.3637 28.3283C22.6537 28.8483 18.6637 29.0983 14.6437 29.2183L14.8637 26.5883C18.7437 26.9583 22.5837 26.8383 25.0737 26.4383C27.0737 26.1383 28.0437 25.3483 28.6937 23.5883C29.4237 21.6683 29.7337 19.5683 29.7337 17.3183C29.7337 11.4283 27.1237 4.7883 19.1037 0.5483C18.4137 0.1783 17.7337 -0.0017 17.1437 -0.0017C15.9537 -0.0017 15.0837 0.7283 14.9737 2.0683L14.4637 7.7783L2.7237 24.1483C1.8737 25.3183 2.3237 26.4283 3.6637 26.5683ZM16.9537 2.3683C16.9837 2.1983 17.1837 2.1783 17.2437 2.3283C18.4337 5.2683 19.1537 8.8183 19.1537 12.3183C19.1537 16.7383 17.9937 21.0683 15.0837 24.0183ZM19.6237 2.9683C25.6337 6.0883 27.6437 12.0683 27.6437 17.2683C27.6437 19.3583 27.3337 21.2783 26.7537 22.8983C26.4437 23.7883 25.9637 24.1883 25.0237 24.3483C23.0937 24.6683 20.1837 24.8283 17.2537 24.6783C20.0737 21.2783 21.2237 16.8283 21.2237 12.3683C21.2237 9.1283 20.6137 5.8683 19.6237 2.9683ZM5.0537 24.5283C4.9937 24.4983 4.9637 24.4483 5.0137 24.3783L14.1237 11.6783L12.9737 24.5783C10.3037 24.8583 7.5637 24.8283 5.0537 24.5283ZM11.4537 34.5183C10.5637 33.8683 9.4437 33.0183 7.8737 33.0183C6.6437 33.0183 5.6737 33.5483 4.8837 34.0983L3.8537 31.2783C3.8437 31.1983 3.8837 31.1183 3.9637 31.1183C11.0037 31.1183 18.7837 31.1183 25.7437 30.1283C25.8537 30.1083 25.9337 30.1883 25.8937 30.2783C25.5137 31.2383 24.5237 32.6583 22.8437 33.4983C22.2737 33.2183 21.6137 33.0183 20.8637 33.0183C19.2937 33.0183 18.1737 33.8683 17.2837 34.5183C16.3337 35.2483 15.5837 35.7883 14.3737 35.7883C13.1437 35.7883 12.4037 35.2483 11.4537 34.5183Z"
        fillRule="evenodd"
        clipRule="evenodd"
    />
</svg>
        