
<svg
    viewBox={0 0 27.890625 27.890625}
    xmlns="http://www.w3.org/2000/svg"
>
    <path
        fill="inherit"
        d="M13.9427 27.8927C21.6427 27.8927 27.8927 21.6427 27.8927 13.9427C27.8927 6.2627 21.6427 0.0027 13.9427 0.0027C6.2627 0.0027 0.0027 6.2627 0.0027 13.9427C0.0027 21.6427 6.2627 27.8927 13.9427 27.8927ZM9.5327 21.9527C8.8727 21.9527 8.5127 21.7127 8.2827 21.0927L7.7627 19.6727C7.5727 19.1727 7.8627 18.7427 8.4327 18.7427C9.7627 18.7427 11.1427 18.7427 12.5127 18.7127L12.6227 17.5127C11.2827 17.6227 9.8427 17.6127 8.5427 17.4627C7.9127 17.4027 7.7227 16.9027 8.1027 16.3527L13.3727 9.0127L13.6327 6.1927C13.6727 5.5627 14.1827 5.2127 14.7427 5.2127C15.0227 5.2127 15.3227 5.2727 15.6527 5.4527C19.3627 7.4127 20.5527 10.4827 20.5527 13.1927C20.5527 14.2327 20.4227 15.1927 20.0727 16.0827C19.7727 16.9027 19.3227 17.2527 18.4127 17.3927C17.2927 17.5727 15.5327 17.6527 13.7827 17.4827L13.6727 18.6927C15.5027 18.6227 17.3227 18.5127 19.0127 18.2827C19.5527 18.2127 19.7827 18.5127 19.7827 18.8527C19.7827 19.4127 18.8027 20.8727 18.1427 21.4627C17.7427 21.8227 17.3927 21.9527 16.8527 21.9527ZM13.8927 16.2127C14.9727 15.0527 15.6027 13.2227 15.6027 11.1327C15.6027 9.5527 15.3427 7.8027 14.8427 6.4027C14.8027 6.3127 14.7227 6.3127 14.7227 6.4127Z"
        fillRule="evenodd"
        clipRule="evenodd"
    />
</svg>
        