
<svg
    viewBox="0 0 27.033766901547295 28.888671875"
    xmlns="http://www.w3.org/2000/svg"
>
    <path
        fill="inherit"
        d="M0.1991 24.4023C-0.5109 27.2523 0.6891 28.8923 3.4391 28.8923H23.5891C26.3391 28.8923 27.5491 27.2523 26.8291 24.4023L23.8091 12.1923C23.3091 10.1823 21.8591 9.0223 19.8191 9.0223H14.6091V7.6323C16.2191 7.1523 17.4291 5.6623 17.4291 3.9123C17.4291 1.7823 15.6391 0.0023 13.5191 0.0023C11.3891 0.0023 9.6091 1.7823 9.6091 3.9123C9.6091 5.6623 10.8091 7.1523 12.4091 7.6323V9.0223H7.2191C5.1791 9.0223 3.7191 10.1823 3.2191 12.1923ZM13.5191 5.8923C12.4391 5.8923 11.5191 4.9923 11.5191 3.9123C11.5191 2.8323 12.4191 1.9023 13.5191 1.9023C14.5991 1.9023 15.5091 2.8323 15.5091 3.9123C15.5091 4.9923 14.6091 5.8923 13.5191 5.8923Z"
        fillRule="evenodd"
        clipRule="evenodd"
    />
</svg>
        