
<svg
    viewBox="0 0 28.6015625 25.881001426173473"
    xmlns="http://www.w3.org/2000/svg"
>
    <path
        fill="inherit"
        d="M0.0309 22.842C0.0309 23.402 0.2609 23.812 0.7509 24.092L3.4909 25.692C3.8409 25.912 4.0909 25.952 4.5709 25.672L7.2309 24.132C7.7209 23.862 7.8209 23.622 7.8109 23.172L7.8209 21.162L14.3409 17.882L20.7809 21.122L20.7909 23.192C20.7809 23.642 20.8809 23.872 21.3709 24.142L24.0309 25.692C24.5109 25.962 24.7609 25.922 25.1109 25.702L27.8509 24.102C28.3409 23.832 28.5709 23.422 28.5709 22.862L28.6009 19.692C28.6009 19.302 28.5309 19.032 28.0709 18.772L25.3609 17.202C24.9009 16.942 24.5909 17.012 24.2409 17.202L21.4909 18.802C21.4209 18.842 21.3509 18.882 21.3009 18.932L15.4509 15.992V8.122L17.7609 6.792C18.1409 6.572 18.3109 6.372 18.3109 5.812V2.722C18.3109 2.172 18.1409 1.982 17.7909 1.782L15.0209 0.202C14.5309 -0.068 14.0709 -0.068 13.5909 0.202L10.8309 1.782C10.4909 1.972 10.2909 2.172 10.2909 2.722V5.812C10.2909 6.372 10.5009 6.592 10.8509 6.792L13.2509 8.162V15.992L7.3509 18.952C7.2709 18.892 7.2009 18.842 7.1109 18.782L4.3609 17.182C4.0009 16.992 3.7009 16.922 3.2409 17.182L0.5309 18.762C0.0709 19.022 0.0009 19.292 0.0009 19.672Z"
        fillRule="evenodd"
        clipRule="evenodd"
    />
</svg>
        