<svg viewBox="0 0 32.12890625 25.18359375" xmlns="http://www.w3.org/2000/svg"><path d="M0.0037 20.9629C0.0037 23.7729 1.4337 25.1829 4.2937 25.1829H27.8337C30.6837 25.1829 32.1337 23.7629 32.1337 20.9629V16.4729C32.1337 15.5729 31.8537 14.5629 31.1337 13.7829L25.9537 8.2729C25.5537 7.8429 25.1837 7.4929 24.8137 7.1929C25.1137 6.9629 25.4337 6.6629 25.7837 6.2929L30.0737 1.9529C30.7737 1.2529 30.4337 0.0029 29.2137 0.0029H2.9137C1.6937 0.0029 1.3537 1.2529 2.0537 1.9529L6.3437 6.2929C6.7037 6.6629 7.0137 6.9629 7.3137 7.1929C6.9437 7.4929 6.5737 7.8429 6.1837 8.2729L0.9937 13.7829C0.2737 14.5629 0.0037 15.5729 0.0037 16.4729ZM4.7137 1.9829H27.4137L23.7637 5.6429C23.3837 6.0429 22.9937 6.2029 22.3537 6.2029H9.7737C9.1237 6.2029 8.7537 6.0429 8.3637 5.6429ZM3.0537 14.9129L7.9837 9.4229C8.6837 8.6529 9.1837 8.2329 10.0037 8.2329H22.1037C22.9237 8.2329 23.4437 8.6429 24.1437 9.4229L29.0837 14.9129C29.4537 15.3429 29.2437 15.9729 28.5637 15.9729H3.5637C2.8837 15.9729 2.6837 15.3429 3.0537 14.9129ZM8.0137 11.5029C8.1337 11.8529 8.4937 11.9929 8.8337 11.8629L13.1637 10.2929C13.5037 10.1729 13.7037 9.8329 13.5637 9.4929C13.4437 9.1329 13.0837 9.0129 12.7537 9.1329L8.4037 10.7029C8.0537 10.8329 7.8937 11.1729 8.0137 11.5029ZM7.8037 14.0029C7.9137 14.3329 8.2837 14.4829 8.6237 14.3529L14.9137 12.0629C15.2737 11.9329 15.4337 11.6029 15.3137 11.2529C15.1937 10.9129 14.8437 10.7629 14.4937 10.8929L8.2037 13.1929C7.8437 13.3129 7.6837 13.6429 7.8037 14.0029ZM2.2037 20.8329V18.1729H29.9237V20.8329C29.9237 22.2529 29.1437 22.9829 27.7937 22.9829H4.3237C2.9537 22.9829 2.2037 22.2529 2.2037 20.8329ZM21.9137 20.5729C21.9137 21.0029 22.2537 21.2829 22.6637 21.2829H26.3337C26.7537 21.2829 27.0737 21.0029 27.0737 20.5729C27.0737 20.1529 26.7537 19.8529 26.3337 19.8529H22.6637C22.2337 19.8529 21.9137 20.1529 21.9137 20.5729Z" /></svg>