
<svg
    viewBox="0 0 32.12890625 25.18359375"
    xmlns="http://www.w3.org/2000/svg"
>
    <path
        fill="inherit"
        d="M0.0037 20.9592C0.0037 23.7792 1.4337 25.1792 4.2937 25.1792H27.8337C30.6837 25.1792 32.1337 23.7592 32.1337 20.9592V16.4792C32.1337 15.5692 31.8537 14.5592 31.1337 13.7792L25.9537 8.2692C25.5537 7.8492 25.1837 7.4892 24.8137 7.1892C25.1137 6.9592 25.4337 6.6592 25.7837 6.2892L30.0737 1.9592C30.7737 1.2592 30.4337 -0.0008 29.2137 -0.0008H2.9137C1.6937 -0.0008 1.3537 1.2592 2.0537 1.9592L6.3437 6.2892C6.7037 6.6592 7.0137 6.9592 7.3137 7.1892C6.9437 7.4892 6.5737 7.8492 6.1837 8.2692L0.9937 13.7792C0.2737 14.5592 0.0037 15.5692 0.0037 16.4792ZM3.0537 14.9192L7.9837 9.4192C8.6837 8.6592 9.1837 8.2292 10.0037 8.2292H22.1037C22.9237 8.2292 23.4437 8.6392 24.1437 9.4192L29.0837 14.9192C29.4537 15.3392 29.2437 15.9692 28.5637 15.9692H3.5637C2.8837 15.9692 2.6837 15.3392 3.0537 14.9192ZM8.0137 11.4992C8.1337 11.8492 8.4937 11.9892 8.8337 11.8692L13.1637 10.2992C13.5037 10.1692 13.7037 9.8292 13.5637 9.4892C13.4437 9.1292 13.0837 9.0092 12.7537 9.1292L8.4037 10.7092C8.0537 10.8292 7.8937 11.1692 8.0137 11.4992ZM7.8037 13.9992C7.9137 14.3292 8.2837 14.4792 8.6237 14.3592L14.9137 12.0592C15.2737 11.9392 15.4337 11.6092 15.3137 11.2492C15.1937 10.9092 14.8437 10.7592 14.4937 10.8992L8.2037 13.1892C7.8437 13.3192 7.6837 13.6492 7.8037 13.9992ZM21.8337 20.5592C21.8337 20.1292 22.1637 19.8092 22.6137 19.8092H26.3837C26.8237 19.8092 27.1537 20.1292 27.1537 20.5592C27.1537 20.9992 26.8237 21.2992 26.3837 21.2992H22.6137C22.1937 21.2992 21.8337 20.9992 21.8337 20.5592Z"
        fillRule="evenodd"
        clipRule="evenodd"
    />
</svg>
        