
<svg
    viewBox={0 0 27.890625 27.890625}
    xmlns="http://www.w3.org/2000/svg"
>
    <path
        fill="inherit"
        d="M13.9427 27.8927C21.6427 27.8927 27.8927 21.6427 27.8927 13.9427C27.8927 6.2627 21.6427 0.0027 13.9427 0.0027C6.2627 0.0027 0.0027 6.2627 0.0027 13.9427C0.0027 21.6427 6.2627 27.8927 13.9427 27.8927ZM12.9027 11.8927C12.5127 12.1927 12.2227 12.5827 12.0327 13.0927L10.8327 12.4827C10.6827 12.4027 10.5827 12.3727 10.4727 12.3727C9.9127 12.3727 9.7027 12.8627 8.4727 12.8627C6.9827 12.8627 5.7927 11.6927 5.7927 10.2027C5.7927 8.7127 6.9827 7.5027 8.4727 7.5027C9.9627 7.5027 11.1527 8.6927 11.1527 10.2027C11.1527 10.7827 11.1927 10.9627 11.6527 11.2227ZM8.4727 11.7727C9.3527 11.7727 10.0627 11.0727 10.0627 10.2027C10.0627 9.3127 9.3527 8.6127 8.4727 8.6127C7.6127 8.6127 6.9027 9.3127 6.9027 10.2027C6.9027 11.0727 7.6127 11.7727 8.4727 11.7727ZM8.4727 20.3827C6.9827 20.3827 5.7927 19.1827 5.7927 17.6927C5.7927 16.2127 6.9827 15.0227 8.4727 15.0227C9.7027 15.0227 9.9127 15.5327 10.4727 15.5327C10.5827 15.5327 10.6827 15.5027 10.8327 15.4327L11.8627 14.8727C12.3727 14.6127 12.5327 14.4527 12.6227 14.1127L12.7527 13.6327C12.9327 12.9027 13.3327 12.4927 14.1127 12.2127L19.7527 10.1827C21.4527 9.5827 22.5027 9.7927 22.7627 10.7827L11.5627 16.7227C11.1827 16.9227 11.1527 17.1327 11.1527 17.6927C11.1527 19.1927 9.9627 20.3827 8.4727 20.3827ZM14.2627 14.1227C14.5427 14.1227 14.8027 13.8927 14.8027 13.5927C14.8027 13.2927 14.5427 13.0727 14.2627 13.0727C13.9727 13.0727 13.7227 13.2927 13.7227 13.5927C13.7227 13.8927 13.9727 14.1227 14.2627 14.1227ZM14.9327 15.9127L17.7027 14.4527L22.7627 17.1127C22.5027 18.1327 21.4327 18.3427 19.7527 17.7227ZM8.4727 19.2727C9.3527 19.2727 10.0627 18.5827 10.0627 17.6927C10.0627 16.8127 9.3527 16.1227 8.4727 16.1227C7.6127 16.1227 6.9027 16.8127 6.9027 17.6927C6.9027 18.5827 7.6127 19.2727 8.4727 19.2727Z"
        fillRule="evenodd"
        clipRule="evenodd"
    />
</svg>
        