
<svg
    viewBox="0 0 27.890625 27.890625"
    xmlns="http://www.w3.org/2000/svg"
>
    <path
        fill="inherit"
        d="M13.9427 27.8864C21.6427 27.8864 27.8927 21.6464 27.8927 13.9464C27.8927 6.2464 21.6427 -0.0036 13.9427 -0.0036C6.2527 -0.0036 0.0027 6.2464 0.0027 13.9464C0.0027 21.6464 6.2527 27.8864 13.9427 27.8864ZM13.9427 25.5664C7.5227 25.5664 2.3227 20.3664 2.3227 13.9464C2.3227 7.5164 7.5227 2.3264 13.9427 2.3264C20.3727 2.3264 25.5627 7.5164 25.5627 13.9464C25.5627 20.3664 20.3727 25.5664 13.9427 25.5664ZM12.9427 11.9464L11.7327 11.2964C11.2927 11.0564 11.2527 10.8864 11.2527 10.3064C11.2527 8.8464 10.0927 7.6964 8.6527 7.6964C7.2027 7.6964 6.0527 8.8564 6.0527 10.3064C6.0527 11.7464 7.2027 12.8964 8.6527 12.8964C9.8427 12.8964 10.0527 12.3964 10.5827 12.3964C10.6927 12.3964 10.7827 12.4364 10.9327 12.5064L12.1027 13.1064C12.2927 12.6164 12.5627 12.2364 12.9427 11.9464ZM8.6527 11.8364C7.8027 11.8364 7.1227 11.1564 7.1227 10.3064C7.1227 9.4464 7.8027 8.7664 8.6527 8.7664C9.5027 8.7664 10.1827 9.4464 10.1827 10.3064C10.1827 11.1564 9.5027 11.8364 8.6527 11.8364ZM8.6527 20.1964C10.0927 20.1964 11.2527 19.0464 11.2527 17.5864C11.2527 17.0364 11.2827 16.8264 11.6527 16.6264L22.5027 10.8664C22.2627 9.9164 21.2327 9.7064 19.5927 10.2964L14.1227 12.2664C13.3527 12.5364 12.9927 12.9164 12.8127 13.6464L12.6727 14.1064C12.5927 14.4364 12.4427 14.5864 11.9527 14.8464L10.9327 15.3764C10.7827 15.4664 10.6927 15.4764 10.5827 15.4764C10.0527 15.4764 9.8427 14.9964 8.6527 14.9964C7.2027 14.9964 6.0527 16.1364 6.0527 17.5864C6.0527 19.0264 7.2027 20.1964 8.6527 20.1964ZM14.2627 14.1264C13.9827 14.1264 13.7527 13.8864 13.7527 13.6064C13.7527 13.3164 13.9827 13.0864 14.2627 13.0864C14.5427 13.0864 14.7927 13.3164 14.7927 13.6064C14.7927 13.8864 14.5427 14.1264 14.2627 14.1264ZM14.9127 15.8464L19.5927 17.6064C21.2227 18.2064 22.2627 17.9964 22.5027 17.0064L17.5927 14.4264ZM8.6527 19.1264C7.8027 19.1264 7.1227 18.4464 7.1227 17.5864C7.1227 16.7364 7.8027 16.0464 8.6527 16.0464C9.5027 16.0464 10.1827 16.7364 10.1827 17.5864C10.1827 18.4464 9.5027 19.1264 8.6527 19.1264Z"
        fillRule="evenodd"
        clipRule="evenodd"
    />
</svg>
        