
<svg
    viewBox={0 0 35.0546875 27.439453125}
    xmlns="http://www.w3.org/2000/svg"
>
    <path
        fill="inherit"
        d="M5.0737 27.4403C7.5037 27.4403 9.5437 25.7203 10.0237 23.4103H19.8237C20.3937 23.4103 20.7537 23.2403 21.2637 22.6903L27.2737 16.1103L27.7037 17.8603C26.0437 18.6903 24.9137 20.4003 24.9137 22.3803C24.9137 25.1703 27.1937 27.4403 29.9837 27.4403C32.7837 27.4403 35.0537 25.1703 35.0537 22.3803C35.0537 19.5803 32.7837 17.3103 29.9837 17.3103C29.8637 17.3103 29.7537 17.3103 29.6237 17.3203L25.5437 0.8903C25.3937 0.3003 24.9337 0.0003 24.0937 0.0003H20.1637C19.5937 0.0003 19.1237 0.4603 19.1237 1.0403C19.1237 1.6103 19.5937 2.0603 20.1637 2.0603H23.7037C23.8337 2.0603 23.8837 2.1103 23.9137 2.2003L26.6437 13.5203L19.8337 21.1803C19.7137 21.3103 19.6437 21.3403 19.4937 21.3403H10.0237C9.5437 19.0403 7.5037 17.3103 5.0737 17.3103C2.2737 17.3103 0.0037 19.5803 0.0037 22.3803C0.0037 25.1703 2.2737 27.4403 5.0737 27.4403ZM5.0737 23.8203C5.4537 23.8203 5.8137 23.6703 6.0737 23.4103H8.1237C7.6837 24.6903 6.4937 25.5803 5.0737 25.5903C3.2837 25.5903 1.8437 24.1603 1.8437 22.3803C1.8437 20.5903 3.2837 19.1503 5.0737 19.1503C6.4937 19.1503 7.6837 20.0703 8.1237 21.3403H6.0837C5.8237 21.1003 5.4737 20.9303 5.0737 20.9303C4.2537 20.9303 3.6337 21.5703 3.6237 22.3803C3.6137 23.1703 4.2337 23.8203 5.0737 23.8203ZM29.9837 23.8203C30.7737 23.8203 31.4337 23.1703 31.4337 22.3803C31.4337 21.7803 31.0737 21.2703 30.5737 21.0503L30.0937 19.1503C31.8237 19.2103 33.2137 20.6303 33.2137 22.3803C33.2137 24.1603 31.7737 25.5903 29.9837 25.5903C28.2037 25.5903 26.7537 24.1603 26.7537 22.3803C26.7537 21.2703 27.3137 20.3003 28.1537 19.7303L28.6537 21.8103C28.5837 21.9803 28.5437 22.1803 28.5337 22.3803C28.5237 23.1703 29.1637 23.8203 29.9837 23.8203Z"
        fillRule="evenodd"
        clipRule="evenodd"
    />
</svg>
        