
<svg
    viewBox={0 0 27.810122499259073 25.16882879264643}
    xmlns="http://www.w3.org/2000/svg"
>
    <path
        fill="inherit"
        d="M0.3027 16.5015C0.7227 16.9215 1.3527 16.9115 1.7627 16.5015L4.1727 14.0915C12.5627 5.7015 17.3427 0.8115 19.0227 2.4815C20.1927 3.6615 17.3127 6.9815 13.7527 11.1815C10.0527 15.5515 5.9627 20.0915 8.7427 22.8815C11.1427 25.3015 15.0427 22.2115 18.6627 18.7015C21.4127 16.0315 23.5427 13.9715 24.2727 14.6815C24.8827 15.2915 24.0127 16.5115 22.9727 18.3015C21.6627 20.5715 19.9927 23.0015 21.5727 24.5915C22.7927 25.8115 24.8527 25.1015 27.4027 22.4815C27.9227 21.9815 27.9327 21.3515 27.5127 20.9315C27.0827 20.5215 26.4727 20.5315 26.0427 20.9415C24.0627 22.7915 23.2127 23.2915 22.8927 22.9615C22.5027 22.5815 23.0527 21.7615 24.5127 19.3515C26.3627 16.3315 27.0327 14.5315 25.7727 13.2715C24.0527 11.5315 21.4927 13.1115 17.1827 17.2115C12.9627 21.2115 11.0927 22.2915 10.2027 21.4215C9.1227 20.3715 10.5427 17.9915 15.3027 12.5215C20.6327 6.3715 22.6927 3.2315 20.4727 1.0215C17.7227 -1.7085 14.6627 0.6815 2.7227 12.6315L0.3027 15.0315C-0.1073 15.4415 -0.0973 16.0715 0.3027 16.5015Z"
        fillRule="evenodd"
        clipRule="evenodd"
    />
</svg>
        