
<svg
    viewBox={0 0 28.99929233808528 26.175784525607977}
    xmlns="http://www.w3.org/2000/svg"
>
    <path
        fill="inherit"
        d="M0.5997 17.5868C1.3097 18.3068 2.7497 18.4768 3.8497 17.4868C4.2197 17.1568 4.9897 16.3368 6.4497 14.8668C13.4397 7.7868 18.0497 3.1368 19.0297 4.0268C19.8197 4.7268 17.3997 8.1468 15.1097 11.3168C10.7997 17.3168 7.3697 21.4768 9.9097 24.0168C11.9497 26.0568 15.1197 24.0068 19.9997 19.7268C22.7497 17.3068 24.8097 15.3468 25.4197 15.9668C25.8697 16.4068 25.1697 17.5668 24.1397 19.3368C22.8197 21.6068 21.1597 24.0468 22.7497 25.6268C23.8397 26.7068 25.9597 26.2468 28.5697 23.6868C29.0397 23.2268 29.1497 22.7068 28.7797 22.3368C28.4197 21.9968 27.9297 22.0468 27.5597 22.3868C25.6597 24.2468 24.4197 24.8368 24.0997 24.5068C23.7297 24.1568 24.3997 22.9368 25.7997 20.4868C27.5597 17.3968 28.4997 15.4568 27.0097 14.0068C25.0197 12.0668 22.6497 14.1468 18.2797 17.9868C14.1597 21.6068 12.9597 22.1968 12.4397 21.6968C11.7397 20.9868 12.8097 19.7268 17.4197 13.2868C21.7197 7.2568 24.2297 3.4968 21.8897 1.2368C18.6997 -1.8632 14.5997 0.5868 3.3597 11.6968C1.8697 13.1768 1.0497 13.9568 0.7197 14.3068C-0.3303 15.4768 -0.1103 16.8768 0.5997 17.5868Z"
        fillRule="evenodd"
        clipRule="evenodd"
    />
</svg>
        