<svg viewBox="0 0 29.025390625 29.0390625" xmlns="http://www.w3.org/2000/svg"><path d="M3.5437 0.0006C4.6037 0.6006 4.9537 1.4106 4.9537 2.8706V25.4706C4.9537 27.4006 6.0537 28.5106 7.7337 28.5106C9.2937 28.5106 10.3337 27.4406 10.3337 25.5806V21.8106C10.3337 19.9506 11.1837 18.9906 13.0537 18.9906H26.2237V4.2906C26.2237 1.4306 24.8037 0.0006 21.9837 0.0006ZM0.0037 6.6206C0.0037 7.4406 0.5437 7.9706 1.3937 7.9706H3.0937V3.5506C3.0937 2.6906 2.3637 2.0506 1.5437 2.0506C0.7237 2.0406 0.0037 2.6806 0.0037 3.5506ZM10.2237 7.1406C10.2237 6.6706 10.5937 6.3006 11.0837 6.3006H20.4937C20.9837 6.3006 21.3437 6.6706 21.3437 7.1406C21.3437 7.6106 20.9837 7.9806 20.4937 7.9806H11.0837C10.5937 7.9806 10.2237 7.6106 10.2237 7.1406ZM10.2237 11.9306C10.2237 11.4606 10.5937 11.0706 11.0837 11.0706H15.9937C16.4837 11.0706 16.8437 11.4606 16.8437 11.9306C16.8437 12.4006 16.4837 12.7606 15.9937 12.7606H11.0837C10.5937 12.7606 10.2237 12.4006 10.2237 11.9306ZM10.8937 29.0406H24.7237C27.3137 29.0406 29.0237 27.2606 29.0237 24.5706V22.2206C29.0237 21.4006 28.4737 20.8506 27.6337 20.8506H13.6037C12.7537 20.8506 12.1937 21.4006 12.1937 22.2206V24.9006C12.1937 26.4706 11.9937 27.8606 10.8937 29.0406Z" /></svg>