
<svg
    viewBox="0 0 29.162109375 29.0390625"
    xmlns="http://www.w3.org/2000/svg"
>
    <path
        fill="inherit"
        d="M0.0037 6.6206C0.0037 7.4406 0.5437 7.9706 1.3937 7.9706H4.9537V24.7506C4.9537 27.6206 6.3537 29.0406 9.2237 29.0406H24.8537C27.4537 29.0406 29.1637 27.2606 29.1637 24.5706V20.8506C29.1637 20.0306 28.6137 19.5006 27.7637 19.5006H26.6337V4.2906C26.6337 1.4306 25.2137 0.0006 22.3937 0.0006H3.5837C1.4537 0.0006 0.0037 1.4506 0.0037 3.7306ZM7.1537 24.7606V3.7306C7.1537 3.1706 7.0937 2.6506 6.9837 2.2006H22.2737C23.6937 2.2006 24.4337 2.9506 24.4337 4.3206V19.5006H12.6837C11.8437 19.5006 11.2837 20.0306 11.2837 20.8506V24.7606C11.2837 26.0006 10.4137 26.8406 9.2237 26.8406C8.0137 26.8406 7.1537 25.9606 7.1537 24.7606ZM2.2037 5.7706V3.7306C2.2037 2.7706 2.7937 2.2006 3.5837 2.2006C4.4037 2.2006 4.9537 2.7706 4.9537 3.7306V5.7706ZM11.0837 7.9806H20.4937C20.9837 7.9806 21.3437 7.6106 21.3437 7.1406C21.3437 6.6706 20.9837 6.3006 20.4937 6.3006H11.0837C10.5937 6.3006 10.2237 6.6706 10.2237 7.1406C10.2237 7.6106 10.5937 7.9806 11.0837 7.9806ZM11.0837 12.7606H15.9937C16.4837 12.7606 16.8437 12.4006 16.8437 11.9306C16.8437 11.4606 16.4837 11.0706 15.9937 11.0706H11.0837C10.5937 11.0706 10.2237 11.4606 10.2237 11.9306C10.2237 12.4006 10.5937 12.7606 11.0837 12.7606ZM12.9437 26.8406C13.2937 26.2406 13.4837 25.5006 13.4837 24.6106V21.7006H26.9637V24.5706C26.9637 25.9206 26.1137 26.8406 24.8537 26.8406Z"
        fillRule="evenodd"
        clipRule="evenodd"
    />
</svg>
        