
<svg
    viewBox={0 0 33.22265625 23.70703125}
    xmlns="http://www.w3.org/2000/svg"
>
    <path
        fill="inherit"
        d="M4.2937 23.7046H19.0437C21.9137 23.7046 23.3337 22.2846 23.3337 19.4646V4.2346C23.3337 1.4246 21.9137 0.0046 19.0437 0.0046H4.2937C1.4337 0.0046 0.0037 1.4046 0.0037 4.2346V19.4646C0.0037 22.2846 1.4337 23.7046 4.2937 23.7046ZM29.1237 15.5746C29.4937 16.0146 30.1437 16.0146 30.5837 15.5146C32.2937 13.6046 33.2237 11.1246 33.2237 8.4246C33.2237 5.7146 32.2937 3.2246 30.5837 1.3146C30.1637 0.8346 29.5137 0.8346 29.1437 1.2446C28.7637 1.6646 28.8637 2.2046 29.2737 2.6846C30.6437 4.2346 31.3537 6.2346 31.3537 8.4246C31.3537 10.5946 30.6437 12.6046 29.2737 14.1546C28.8637 14.6246 28.7637 15.1446 29.1237 15.5746ZM4.3237 21.5046C2.9537 21.5046 2.2037 20.7646 2.2037 19.3446V4.3446C2.2037 2.9346 2.9537 2.2046 4.3237 2.2046H19.0137C20.3537 2.2046 21.1337 2.9346 21.1337 4.3446V19.3446C21.1337 20.7646 20.3537 21.5046 19.0137 21.5046ZM25.9937 12.6146C26.3637 13.0446 27.0537 13.0746 27.4637 12.5246C28.3437 11.3746 28.8637 9.9546 28.8637 8.4246C28.8637 6.8946 28.3437 5.4546 27.4637 4.3246C27.0537 3.7746 26.3737 3.7846 26.0037 4.2146C25.6037 4.6246 25.7537 5.1246 26.1137 5.6146C26.7037 6.4546 26.9837 7.3946 26.9837 8.4246C26.9837 9.4346 26.7037 10.3946 26.1137 11.2246C25.7737 11.7046 25.6037 12.2046 25.9937 12.6146ZM11.0337 12.4846C11.4937 12.4846 11.8637 12.1246 11.8637 11.6646V5.1946C11.8637 4.7346 11.4937 4.3746 11.0337 4.3746C10.5637 4.3746 10.2137 4.7346 10.2137 5.1946V11.6646C10.2137 12.1246 10.5637 12.4846 11.0337 12.4846ZM14.5037 12.4846C14.9737 12.4846 15.3437 12.1246 15.3437 11.6646V5.1946C15.3437 4.7346 14.9737 4.3746 14.5037 4.3746C14.0437 4.3746 13.6837 4.7346 13.6837 5.1946V11.6646C13.6837 12.1246 14.0437 12.4846 14.5037 12.4846ZM17.9937 12.4846C18.4537 12.4846 18.8137 12.1246 18.8137 11.6646V5.1946C18.8137 4.7346 18.4537 4.3746 17.9937 4.3746C17.5237 4.3746 17.1537 4.7346 17.1537 5.1946V11.6646C17.1537 12.1246 17.5237 12.4846 17.9937 12.4846Z"
        fillRule="evenodd"
        clipRule="evenodd"
    />
</svg>
        