
<svg
    viewBox={0 0 33.22265625 23.70703125}
    xmlns="http://www.w3.org/2000/svg"
>
    <path
        fill="inherit"
        d="M4.2937 23.7046H19.0437C21.9137 23.7046 23.3337 22.2846 23.3337 19.4646V4.2346C23.3337 1.4246 21.9137 0.0046 19.0437 0.0046H4.2937C1.4337 0.0046 0.0037 1.4046 0.0037 4.2346V19.4646C0.0037 22.2846 1.4337 23.7046 4.2937 23.7046ZM29.1237 15.5746C29.4937 16.0146 30.1437 16.0146 30.5837 15.5146C32.2937 13.6046 33.2237 11.1246 33.2237 8.4246C33.2237 5.7146 32.2937 3.2246 30.5837 1.3146C30.1637 0.8346 29.5137 0.8346 29.1437 1.2446C28.7637 1.6646 28.8637 2.2046 29.2737 2.6846C30.6437 4.2346 31.3537 6.2346 31.3537 8.4246C31.3537 10.5946 30.6437 12.6046 29.2737 14.1546C28.8637 14.6246 28.7637 15.1446 29.1237 15.5746ZM25.9937 12.6146C26.3637 13.0446 27.0537 13.0746 27.4637 12.5246C28.3437 11.3746 28.8637 9.9546 28.8637 8.4246C28.8637 6.8946 28.3437 5.4546 27.4637 4.3246C27.0537 3.7746 26.3737 3.7846 26.0037 4.2146C25.6037 4.6246 25.7537 5.1246 26.1137 5.6146C26.7037 6.4546 26.9837 7.3946 26.9837 8.4246C26.9837 9.4346 26.7037 10.3946 26.1137 11.2246C25.7737 11.7046 25.6037 12.2046 25.9937 12.6146ZM10.9237 12.6146C10.4337 12.6146 10.0637 12.2546 10.0637 11.7546V5.0946C10.0637 4.6046 10.4337 4.2346 10.9237 4.2346C11.4037 4.2346 11.7837 4.6046 11.7837 5.0946V11.7546C11.7837 12.2546 11.4037 12.6146 10.9237 12.6146ZM14.5037 12.6146C14.0237 12.6146 13.6537 12.2546 13.6537 11.7546V5.0946C13.6537 4.6046 14.0237 4.2346 14.5037 4.2346C14.9837 4.2346 15.3637 4.6046 15.3637 5.0946V11.7546C15.3637 12.2546 14.9837 12.6146 14.5037 12.6146ZM18.1037 12.6146C17.6237 12.6146 17.2437 12.2546 17.2437 11.7546V5.0946C17.2437 4.6046 17.6237 4.2346 18.1037 4.2346C18.5937 4.2346 18.9637 4.6046 18.9637 5.0946V11.7546C18.9637 12.2546 18.5937 12.6146 18.1037 12.6146Z"
        fillRule="evenodd"
        clipRule="evenodd"
    />
</svg>
        