
<svg
    viewBox={0 0 36.462890625 23.994140625}
    xmlns="http://www.w3.org/2000/svg"
>
    <path
        fill="inherit"
        d="M12.0027 23.995C18.6227 23.995 23.9927 18.635 23.9927 12.005C23.9927 5.375 18.6227 -0.005 12.0027 -0.005C5.3727 -0.005 0.0027 5.375 0.0027 12.005C0.0027 18.635 5.3727 23.995 12.0027 23.995ZM12.0027 21.795C6.5927 21.795 2.2027 17.415 2.2027 12.005C2.2027 6.585 6.5927 2.205 12.0027 2.205C17.4027 2.205 21.7927 6.585 21.7927 12.005C21.7927 17.415 17.4027 21.795 12.0027 21.795ZM31.1727 21.355C31.6227 21.865 32.3727 21.865 32.9127 21.285C35.1827 18.815 36.4627 15.545 36.4627 12.005C36.4627 8.465 35.1827 5.185 32.9127 2.725C32.3727 2.145 31.6227 2.135 31.1727 2.655C30.7327 3.145 30.8727 3.785 31.3727 4.345C33.2127 6.385 34.2327 9.065 34.2327 12.005C34.2327 14.945 33.2127 17.625 31.3727 19.665C30.8727 20.225 30.7327 20.865 31.1727 21.355ZM12.0027 8.475C13.1927 8.475 14.1527 7.515 14.1527 6.335C14.1527 5.145 13.1927 4.185 12.0027 4.185C10.8127 4.185 9.8527 5.145 9.8527 6.335C9.8527 7.515 10.8127 8.475 12.0027 8.475ZM27.3427 17.455C27.7927 17.965 28.6127 17.975 29.1027 17.365C30.2927 15.885 30.9827 14.015 30.9827 12.005C30.9827 9.995 30.2927 8.125 29.1027 6.645C28.6127 6.025 27.7927 6.025 27.3427 6.545C26.9027 7.045 27.0927 7.655 27.5227 8.245C28.3427 9.255 28.7527 10.585 28.7527 12.005C28.7527 13.425 28.3427 14.735 27.5227 15.765C27.0927 16.355 26.9027 16.965 27.3427 17.455Z"
        fillRule="evenodd"
        clipRule="evenodd"
    />
</svg>
        