<svg viewBox="0 0 32.23828125 25.169921875" xmlns="http://www.w3.org/2000/svg"><path d="M4.2937 25.1692H27.9437C30.8137 25.1692 32.2337 23.7592 32.2337 20.9492V4.2392C32.2337 1.4192 30.8137 -0.0008 27.9437 -0.0008H4.2937C1.4337 -0.0008 0.0037 1.4192 0.0037 4.2392V20.9492C0.0037 23.7592 1.4337 25.1692 4.2937 25.1692ZM2.2037 4.3592C2.2037 2.9392 2.9537 2.1992 4.3237 2.1992H27.9137C29.2737 2.1992 30.0337 2.9392 30.0337 4.3592V7.7692H2.2037ZM25.2237 6.7392C26.1637 6.7092 26.9637 5.9292 26.9637 4.9892C26.9637 4.0292 26.1637 3.2292 25.2237 3.2292C24.2937 3.2292 23.4837 4.0292 23.4837 4.9892C23.4837 5.9292 24.2937 6.7492 25.2237 6.7392ZM2.2037 15.3692V9.8292H30.0337V15.3692ZM25.2237 14.3192C26.1637 14.2892 26.9637 13.5092 26.9637 12.5692C26.9637 11.6092 26.1637 10.7992 25.2237 10.7992C24.2937 10.7992 23.4837 11.6092 23.4837 12.5692C23.4837 13.5092 24.2937 14.3292 25.2237 14.3192ZM4.3237 22.9692C2.9537 22.9692 2.2037 22.2392 2.2037 20.8192V17.4292H30.0337V20.8192C30.0337 22.2392 29.2737 22.9692 27.9137 22.9692ZM25.2237 21.8892C26.1637 21.8592 26.9637 21.0792 26.9637 20.1392C26.9637 19.1792 26.1637 18.3792 25.2237 18.3792C24.2937 18.3792 23.4837 19.1792 23.4837 20.1392C23.4837 21.0792 24.2937 21.8992 25.2237 21.8892Z" /></svg>