
<svg
    viewBox="0 0 18.89453125 21.089374037211932"
    xmlns="http://www.w3.org/2000/svg"
>
    <path
        fill="inherit"
        d="M1.2837 8.5769H5.7737V3.0769C5.7737 1.7869 5.1837 1.1869 4.0237 0.8769L0.7537 -0.0031C1.0837 0.2169 1.2837 0.5769 1.2837 1.0669ZM13.1237 20.0569L16.5737 20.9769C18.0237 21.3669 18.8937 20.7369 18.8937 19.3169V3.0769C18.8937 1.7869 18.2937 1.1769 17.1337 0.8569L13.8737 -0.0031C14.2037 0.2169 14.4137 0.5769 14.4137 1.0669V18.7869C14.4137 19.5669 13.9037 20.0569 13.1237 20.0569ZM0.0037 20.0569L3.4437 20.9769C4.8937 21.3669 5.7737 20.7369 5.7737 19.3169V14.6569H11.8837V10.8369H1.2837V18.7869C1.2837 19.5669 0.7837 20.0569 0.0037 20.0569Z"
        fillRule="evenodd"
        clipRule="evenodd"
    />
</svg>
        