<svg viewBox="0 0 33.7421875 29.23561671240537" xmlns="http://www.w3.org/2000/svg"><path d="M29.7337 28.9316C30.1437 29.3416 30.8137 29.3416 31.2237 28.9316C31.6237 28.5016 31.6337 27.8616 31.2237 27.4416L4.1337 0.3116C3.7037 -0.1084 3.0537 -0.0984 2.6237 0.3116C2.2237 0.7116 2.2237 1.4016 2.6237 1.8016ZM13.3837 7.3716C14.4337 6.2316 15.8737 5.4516 17.4837 5.3416V3.4416C17.4837 2.1716 16.8337 1.5316 15.5137 1.5316H7.5337ZM3.6337 5.0316V10.0916C3.6337 11.3716 4.2937 12.0016 5.5937 12.0016H10.6137ZM21.3037 15.2816C21.9937 14.4316 22.4237 13.2916 22.4237 12.0316C22.4237 9.2516 20.3337 7.1916 17.9237 7.1916C16.6837 7.1916 15.5337 7.7816 14.7137 8.6916ZM27.7437 19.2716H31.7737C33.0837 19.2716 33.7437 18.6316 33.7437 17.3616V9.3916C33.7437 8.1216 33.0837 7.4816 31.7737 7.4816H27.7437C26.4437 7.4816 25.7837 8.1216 25.7837 9.3916V17.3616C25.7837 18.6316 26.4437 19.2716 27.7437 19.2716ZM1.9537 21.8716H4.7137C6.0137 21.8716 6.6737 21.2316 6.6737 19.9416V17.1116C6.6737 15.8416 6.0137 15.2016 4.7137 15.2016H1.9537C0.6537 15.2016 0.0037 15.8316 0.0037 17.1116V19.9416C0.0037 21.2316 0.6537 21.8716 1.9537 21.8716ZM17.6137 19.0116C12.3437 19.2216 8.4337 22.8016 8.4337 25.9516C8.4337 26.8816 9.1637 27.4416 10.3637 27.4416H25.4737C25.6437 27.4416 25.8137 27.4216 25.9737 27.4016Z" /></svg>