
<svg
    viewBox="0 0 40.783203125 23.3515625"
    xmlns="http://www.w3.org/2000/svg"
>
    <path
        fill="inherit"
        d="M1.1027 23.0223C1.7127 23.0223 2.2027 22.5423 2.2027 21.9323C2.2027 11.0623 10.3527 2.2023 20.3827 2.2023C30.4027 2.2023 38.5827 11.0623 38.5827 21.9323C38.5827 22.5423 39.0627 23.0223 39.6627 23.0223C40.2727 23.0223 40.7827 22.5423 40.7827 21.9323C40.7827 9.8623 31.6127 0.0023 20.3827 0.0023C9.1427 0.0023 0.0027 9.8623 0.0027 21.9323C0.0027 22.5423 0.4927 23.0223 1.1027 23.0223ZM20.4127 13.8323C22.6727 13.8323 24.6327 11.8123 24.6327 9.1923C24.6327 6.5923 22.6427 4.6523 20.4127 4.6523C18.1427 4.6523 16.1727 6.6323 16.1827 9.2123C16.1827 11.8123 18.1427 13.8323 20.4127 13.8323ZM7.4327 23.0223C8.0427 23.0223 8.5727 22.5423 8.5727 21.9423C8.5727 17.3623 10.8927 13.2323 14.5427 10.9823C14.3327 10.1623 14.2727 9.3923 14.3927 8.5623C9.5427 10.9623 6.3427 16.1723 6.3427 21.9423C6.3427 22.5423 6.8227 23.0223 7.4327 23.0223ZM33.3427 23.0223C33.9427 23.0223 34.4527 22.5423 34.4527 21.9423C34.4527 16.1923 31.2827 11.0223 26.4527 8.5823C26.5327 9.3823 26.4827 10.2023 26.2727 11.0023C29.9027 13.2623 32.2227 17.3723 32.2227 21.9423C32.2227 22.5423 32.7427 23.0223 33.3427 23.0223ZM13.5127 23.3523H27.2927C28.4327 23.3523 29.1627 22.8023 29.1627 21.8923C29.1627 19.1523 25.7827 15.4523 20.4127 15.4523C15.0127 15.4523 11.6527 19.1523 11.6527 21.8923C11.6527 22.8023 12.3427 23.3523 13.5127 23.3523Z"
        fillRule="evenodd"
        clipRule="evenodd"
    />
</svg>
        