
<svg
    viewBox="0 0 40.783203125 27.677022962405374"
    xmlns="http://www.w3.org/2000/svg"
>
    <path
        fill="inherit"
        d="M32.6227 27.3657C33.0327 27.7757 33.7127 27.7757 34.1127 27.3657C34.5127 26.9457 34.5227 26.3057 34.1127 25.8757L8.5727 0.3157C8.1527 -0.1143 7.4927 -0.0943 7.0727 0.3157C6.6727 0.7057 6.6727 1.4057 7.0727 1.8057ZM39.6627 23.2257C40.2727 23.2257 40.7827 22.7457 40.7827 22.1357C40.7827 10.0657 31.6127 0.2057 20.3827 0.2057C17.5727 0.2057 14.8927 0.8157 12.4527 1.9357L14.1327 3.6257C16.0827 2.8457 18.1827 2.4057 20.3827 2.4057C30.4027 2.4057 38.5827 11.2657 38.5827 22.1357C38.5827 22.7457 39.0627 23.2257 39.6627 23.2257ZM23.2527 12.7557C24.1027 11.9657 24.6327 10.7457 24.6327 9.3957C24.6327 6.7957 22.6427 4.8557 20.4127 4.8557C19.0827 4.8557 17.8827 5.5457 17.1327 6.6257ZM1.1027 23.2257C1.7127 23.2257 2.2027 22.7457 2.2027 22.1357C2.2027 15.7257 5.0427 10.0157 9.4227 6.4257L7.8727 4.8657C3.0927 8.8757 0.0027 15.1157 0.0027 22.1357C0.0027 22.7457 0.4927 23.2257 1.1027 23.2257ZM33.9427 23.0457C34.2527 22.8757 34.4527 22.5257 34.4527 22.1457C34.4527 16.3957 31.2827 11.2257 26.4527 8.7857C26.5327 9.5857 26.4827 10.4057 26.2727 11.2057C29.6827 13.3257 31.9327 17.0657 32.1927 21.2857ZM7.4327 23.2257C8.0427 23.2257 8.5727 22.7457 8.5727 22.1457C8.5727 17.6457 10.8327 13.6057 14.3427 11.3357L12.7827 9.7757C8.8627 12.4257 6.3427 17.0657 6.3427 22.1457C6.3427 22.7457 6.8227 23.2257 7.4327 23.2257ZM13.5127 23.5557H26.5527L18.8027 15.8057C14.3427 16.4157 11.6527 19.6457 11.6527 22.0957C11.6527 23.0057 12.3427 23.5557 13.5127 23.5557Z"
        fillRule="evenodd"
        clipRule="evenodd"
    />
</svg>
        