<svg viewBox="0 0 27.890625 27.890625" xmlns="http://www.w3.org/2000/svg"><path d="M13.9427 27.8927C21.6427 27.8927 27.8927 21.6427 27.8927 13.9427C27.8927 6.2627 21.6427 0.0027 13.9427 0.0027C6.2627 0.0027 0.0027 6.2627 0.0027 13.9427C0.0027 21.6427 6.2627 27.8927 13.9427 27.8927ZM7.7927 12.5927C7.0927 12.5927 6.7227 12.2327 6.7227 11.5527V7.9327C6.7227 7.2227 7.0927 6.8627 7.7927 6.8627H13.2227C13.9327 6.8627 14.3027 7.2227 14.3027 7.9327V8.9227C12.4727 9.0627 11.0427 10.6527 11.0327 12.5927ZM14.5327 15.3127C13.2027 15.3127 12.0727 14.1327 12.0727 12.6027C12.0727 11.1027 13.2027 9.9627 14.5327 9.9627C15.8427 9.9627 16.9927 11.0927 16.9927 12.6027C16.9927 14.1327 15.8427 15.3127 14.5327 15.3127ZM19.8927 16.5727C19.1827 16.5727 18.8227 16.2027 18.8227 15.5027V11.1527C18.8227 10.4727 19.1827 10.1127 19.8927 10.1127H22.1027C22.8027 10.1127 23.1627 10.4727 23.1627 11.1527V15.5027C23.1627 16.2027 22.8027 16.5727 22.1027 16.5727ZM5.8127 17.9827C5.1127 17.9827 4.7627 17.6227 4.7627 16.9227V15.3827C4.7627 14.6827 5.1127 14.3327 5.8127 14.3327H7.3127C8.0227 14.3327 8.3927 14.6827 8.3927 15.3827V16.9227C8.3927 17.6227 8.0227 17.9827 7.3127 17.9827ZM10.4027 21.0227C9.7527 21.0227 9.3627 20.7227 9.3627 20.2027C9.3627 18.6227 11.3327 16.4227 14.5327 16.4227C17.7227 16.4227 19.7027 18.6227 19.7027 20.2027C19.7027 20.7227 19.3227 21.0227 18.6627 21.0227Z" /></svg>