
<svg
    viewBox="0 0 27.890625 27.890625"
    xmlns="http://www.w3.org/2000/svg"
>
    <path
        fill="inherit"
        d="M13.9427 27.8864C21.6427 27.8864 27.8927 21.6464 27.8927 13.9464C27.8927 6.2464 21.6427 -0.0036 13.9427 -0.0036C6.2527 -0.0036 0.0027 6.2464 0.0027 13.9464C0.0027 21.6464 6.2527 27.8864 13.9427 27.8864ZM13.9427 25.5664C7.5227 25.5664 2.3227 20.3664 2.3227 13.9464C2.3227 7.5164 7.5227 2.3264 13.9427 2.3264C20.3727 2.3264 25.5627 7.5164 25.5627 13.9464C25.5627 20.3664 20.3727 25.5664 13.9427 25.5664ZM12.8627 8.2064C13.4227 7.6464 13.4427 6.7964 12.8827 6.2464C12.3627 5.6964 11.4827 5.6564 10.9227 6.1764C10.8527 6.2864 8.8227 8.2164 7.6827 9.4764C6.6427 10.5964 6.1427 12.0464 6.2327 13.5264C6.3327 15.0664 7.0527 16.4864 8.2727 17.5264C9.2427 18.3764 10.5227 18.7964 11.8127 18.7964C13.1527 18.7964 14.4627 18.3564 15.4627 17.4364C16.1827 16.8064 17.0127 15.9164 17.0327 15.8964C17.5527 15.3264 17.5127 14.4464 16.9627 13.9464C16.4027 13.3964 15.5127 13.4364 15.0127 14.0164C14.9827 14.0164 14.2627 14.8364 13.6127 15.3964C12.5827 16.3064 10.9227 16.1564 10.0627 15.4464C9.4327 14.8764 9.0827 14.1464 9.0227 13.3664C8.9527 12.6164 9.2327 11.9064 9.7327 11.3564C10.7827 10.1564 12.8427 8.2164 12.8627 8.2064ZM15.0127 19.9764C14.4527 20.5364 14.4327 21.3964 14.9827 21.9264C15.5127 22.4864 16.3827 22.5264 16.9427 22.0164C17.0327 21.9064 19.0627 19.9564 20.1927 18.7064C21.2227 17.5964 21.7227 16.1564 21.6427 14.6564C21.5427 13.1264 20.8227 11.6864 19.6327 10.6664C18.6227 9.8064 17.3527 9.3964 16.0527 9.3964C14.7127 9.3964 13.4227 9.8264 12.4027 10.7464C11.6727 11.3764 10.8527 12.2664 10.8427 12.2864C10.3127 12.8764 10.3527 13.7564 10.9127 14.2464C11.4727 14.7764 12.3627 14.7564 12.8627 14.1864C12.8827 14.1664 13.6127 13.3264 14.2627 12.7964C15.2827 11.8664 16.9427 12.0464 17.8027 12.7464C18.4327 13.3164 18.8027 14.0264 18.8427 14.8364C18.9227 15.5764 18.6327 16.2864 18.1327 16.8564C17.0927 18.0364 15.0227 19.9564 15.0127 19.9764Z"
        fillRule="evenodd"
        clipRule="evenodd"
    />
</svg>
        