<svg viewBox="0 0 32.935546875 27.33018496744969" xmlns="http://www.w3.org/2000/svg"><path d="M16.4627 5.864C18.9327 5.864 21.2027 6.724 23.0227 8.134C23.2927 8.354 23.6527 8.324 23.9127 8.064L27.0827 4.894C27.4027 4.584 27.3827 4.124 27.0527 3.854C24.2027 1.454 20.4927 0.004 16.4627 0.004C12.4427 0.004 8.7327 1.454 5.8827 3.854C5.5527 4.124 5.5327 4.584 5.8527 4.894L9.0227 8.064C9.2827 8.324 9.6527 8.354 9.9527 8.124C11.7627 6.724 14.0127 5.864 16.4627 5.864ZM0.0027 16.464C0.0027 20.494 1.4527 24.204 3.8727 27.074C4.1427 27.414 4.6027 27.414 4.9127 27.094L8.1627 23.844C8.3627 23.624 8.3927 23.324 8.2027 23.094C6.7127 21.194 5.8627 18.924 5.8627 16.464C5.8627 14.014 6.7027 11.744 8.1227 9.944C8.3427 9.654 8.3427 9.284 8.0827 9.024L4.9127 5.854C4.5927 5.534 4.1427 5.534 3.8727 5.864C1.4527 8.734 0.0027 12.444 0.0027 16.464ZM32.9327 16.464C32.9327 12.444 31.4827 8.734 29.0627 5.864C28.7927 5.534 28.3327 5.534 28.0227 5.854L24.8527 9.024C24.5927 9.284 24.5827 9.654 24.8127 9.944C26.2227 11.744 27.0727 14.014 27.0727 16.464C27.0727 18.924 26.2227 21.194 24.7327 23.094C24.5427 23.324 24.5527 23.624 24.7627 23.844L28.0127 27.094C28.3327 27.414 28.7827 27.414 29.0627 27.074C31.4827 24.204 32.9327 20.494 32.9327 16.464ZM15.0827 22.654H19.0627C21.4127 22.654 22.1927 21.384 22.1927 19.014V11.254C22.1927 10.804 21.9327 10.514 21.5027 10.514C21.0827 10.514 20.8127 10.804 20.8127 11.254V18.964C20.8127 20.714 20.4427 21.154 18.6727 21.154H15.4527V14.844C15.4527 14.414 15.1927 14.134 14.7827 14.134C14.3527 14.134 14.0827 14.414 14.0827 14.844V21.674C14.0827 22.294 14.5027 22.654 15.0827 22.654ZM11.4127 22.774C11.8127 22.774 12.0727 22.504 12.0727 22.064V12.144H15.1027C16.6627 12.144 17.4627 12.534 17.4627 14.314V18.434C17.4627 18.884 17.7227 19.154 18.1427 19.154C18.5627 19.154 18.8227 18.884 18.8227 18.434V14.044C18.8227 11.794 17.8327 10.634 15.5727 10.634H11.7627C11.1027 10.634 10.7227 11.034 10.7227 11.674V22.064C10.7227 22.504 10.9927 22.774 11.4127 22.774Z" /></svg>