
<svg
    viewBox={0 0 22.572265625 24.52734375}
    xmlns="http://www.w3.org/2000/svg"
>
    <path
        fill="inherit"
        d="M8.4537 24.2848H16.4037C21.0637 24.2848 22.5737 21.7348 22.5737 17.0948V1.2448C22.5737 0.4748 22.1237 0.0048 21.3937 0.0048C20.6337 0.0048 20.1637 0.4748 20.1637 1.2448V17.0748C20.1637 20.6348 19.3437 21.6048 15.7337 21.6048H9.1337V8.3848C9.1337 7.6048 8.6837 7.1048 7.9537 7.1048C7.1937 7.1048 6.7237 7.6048 6.7237 8.3848V22.5448C6.7237 23.5748 7.4137 24.2848 8.4537 24.2848ZM1.2337 24.5248C1.9937 24.5248 2.4337 23.9248 2.4337 23.2648V2.8948H8.7137C12.0837 2.8948 13.4437 3.9648 13.4437 7.3948V16.0748C13.4437 16.8548 13.9037 17.3448 14.6737 17.3448C15.4037 17.3448 15.8637 16.8548 15.8637 16.0748V6.9348C15.8637 2.4448 13.9637 0.2448 9.5137 0.2448H1.7537C0.6937 0.2448 0.0037 0.9048 0.0037 1.9848V23.2648C0.0037 24.0048 0.4937 24.5248 1.2337 24.5248Z"
        fillRule="evenodd"
        clipRule="evenodd"
    />
</svg>
        