<svg viewBox="0 0 30.5703125 30.5703125" xmlns="http://www.w3.org/2000/svg"><path d="M15.2827 30.5663C23.6827 30.5663 30.5727 23.6763 30.5727 15.2863C30.5727 6.8863 23.6827 -0.0038 15.2827 -0.0038C6.8927 -0.0038 0.0027 6.8863 0.0027 15.2863C0.0027 23.6763 6.8927 30.5663 15.2827 30.5663ZM15.2827 25.4862C9.6527 25.4862 5.0827 20.9162 5.0827 15.2863C5.0827 9.6363 9.6527 5.0863 15.2827 5.0863C20.9327 5.0863 25.4827 9.6363 25.4827 15.2863C25.4827 20.9162 20.9327 25.4862 15.2827 25.4862ZM13.9227 21.2963H17.8827C20.2527 21.2963 21.0227 20.0163 21.0227 17.6662V9.8963C21.0227 9.4462 20.7627 9.1563 20.3427 9.1563C19.9227 9.1563 19.6427 9.4462 19.6427 9.8963V17.5963C19.6427 19.3563 19.2627 19.7963 17.5127 19.7963H14.2827V13.4963C14.2827 13.0563 14.0227 12.7863 13.6127 12.7863C13.1927 12.7863 12.9227 13.0563 12.9227 13.4963V20.3163C12.9227 20.9463 13.3427 21.2963 13.9227 21.2963ZM10.2427 21.4263C10.6527 21.4263 10.9127 21.1463 10.9127 20.7163V10.7762H13.9427C15.5027 10.7762 16.2927 11.1863 16.2927 12.9563V17.0763C16.2927 17.5163 16.5527 17.7963 16.9827 17.7963C17.3927 17.7963 17.6527 17.5163 17.6527 17.0763V12.6863C17.6527 10.4363 16.6627 9.2863 14.3927 9.2863H10.5827C9.9427 9.2863 9.5527 9.6763 9.5527 10.3263V20.7163C9.5527 21.1463 9.8127 21.4263 10.2427 21.4263Z" /></svg>