
<svg
    viewBox="0 0 30.544813437289534 27.890625"
    xmlns="http://www.w3.org/2000/svg"
>
    <path
        fill="inherit"
        d="M0.9769 11.3064C-0.0131 11.3064 -0.2531 11.9764 0.2769 12.7464L3.3369 17.0864C3.7869 17.7164 4.4469 17.7064 4.8869 17.0864L7.9269 12.7264C8.4669 11.9764 8.2069 11.3064 7.2469 11.3064H5.2769C6.4669 6.1564 11.0769 2.3264 16.5969 2.3264C23.0269 2.3264 28.2169 7.5164 28.2169 13.9464C28.2169 20.3664 23.0269 25.5664 16.5969 25.5664C12.7169 25.5664 9.2569 23.6564 7.1969 20.7564C6.7669 20.1964 6.1269 20.0164 5.5569 20.3564C5.0069 20.6964 4.8369 21.4664 5.3069 22.0664C7.8369 25.6064 11.9769 27.8864 16.5969 27.8864C24.2969 27.8864 30.5469 21.6464 30.5469 13.9464C30.5469 6.2464 24.2969 -0.0036 16.5969 -0.0036C9.8069 -0.0036 4.1269 4.8664 2.8969 11.3064ZM15.2369 19.9564H19.1969C21.5669 19.9564 22.3369 18.6764 22.3369 16.3264V8.5564C22.3369 8.1064 22.0869 7.8164 21.6569 7.8164C21.2369 7.8164 20.9569 8.1064 20.9569 8.5564V16.2564C20.9569 18.0164 20.5769 18.4564 18.8269 18.4564H15.5969V12.1564C15.5969 11.7164 15.3369 11.4464 14.9269 11.4464C14.5069 11.4464 14.2369 11.7164 14.2369 12.1564V18.9764C14.2369 19.6064 14.6469 19.9564 15.2369 19.9564ZM11.5569 20.0864C11.9669 20.0864 12.2269 19.8064 12.2269 19.3764V9.4364H15.2569C16.8169 9.4364 17.6069 9.8464 17.6069 11.6164V15.7364C17.6069 16.1764 17.8569 16.4564 18.2969 16.4564C18.7069 16.4564 18.9669 16.1764 18.9669 15.7364V11.3464C18.9669 9.0964 17.9769 7.9464 15.7069 7.9464H11.8969C11.2569 7.9464 10.8569 8.3364 10.8569 8.9864V19.3764C10.8569 19.8064 11.1269 20.0864 11.5569 20.0864Z"
        fillRule="evenodd"
        clipRule="evenodd"
    />
</svg>
        