
<svg
    viewBox="0 0 30.529296875 29.17578125"
    xmlns="http://www.w3.org/2000/svg"
>
    <path
        fill="inherit"
        d="M1.0937 29.179H29.4237C30.0237 29.179 30.5337 28.669 30.5337 28.069C30.5337 27.469 30.0237 26.979 29.4237 26.979H28.7137V25.979C28.7137 25.429 28.3937 25.099 27.8337 25.099H26.9637V9.379H28.1637C28.9137 9.379 29.3537 8.829 29.3537 8.269C29.3537 7.859 29.1237 7.509 28.6137 7.219L16.9437 0.479C16.3937 0.169 15.8137 -0.001 15.2537 -0.001C14.6937 -0.001 14.1137 0.169 13.5937 0.479L1.9137 7.219C1.3937 7.509 1.1737 7.859 1.1737 8.269C1.1737 8.829 1.6137 9.379 2.3637 9.379H3.5637V25.099H2.7037C2.1437 25.099 1.8137 25.429 1.8137 25.979V26.979H1.0937C0.4937 26.979 0.0037 27.469 0.0037 28.069C0.0037 28.669 0.4937 29.179 1.0937 29.179ZM13.8637 21.809C13.2437 21.809 12.8237 21.449 12.8237 20.779V13.769C12.8237 13.299 13.1137 13.019 13.5537 13.019C13.9737 13.019 14.2437 13.299 14.2437 13.769V20.259H17.5537C19.3737 20.259 19.7737 19.809 19.7737 17.989V10.059C19.7737 9.569 20.0537 9.279 20.4937 9.279C20.9337 9.279 21.2037 9.569 21.2037 10.059V18.059C21.2037 20.499 20.3937 21.809 17.9537 21.809ZM10.0637 21.929C9.6237 21.929 9.3337 21.659 9.3337 21.189V10.499C9.3337 9.819 9.7437 9.419 10.4137 9.419H14.3537C16.6937 9.419 17.7237 10.609 17.7237 12.919V17.459C17.7237 17.909 17.4437 18.209 17.0037 18.209C16.5737 18.209 16.3137 17.909 16.3137 17.459V13.219C16.3137 11.389 15.4937 10.969 13.8937 10.969H10.7637V21.189C10.7637 21.659 10.4837 21.929 10.0637 21.929Z"
        fillRule="evenodd"
        clipRule="evenodd"
    />
</svg>
        