
<svg
    viewBox={0 0 25.169921875 25.169921875}
    xmlns="http://www.w3.org/2000/svg"
>
    <path
        fill="inherit"
        d="M4.2937 25.1692H20.8737C23.7437 25.1692 25.1737 23.7592 25.1737 20.9492V4.2392C25.1737 1.4192 23.7437 -0.0008 20.8737 -0.0008H4.2937C1.4337 -0.0008 0.0037 1.4192 0.0037 4.2392V20.9492C0.0037 23.7592 1.4337 25.1692 4.2937 25.1692ZM4.3237 22.9692C2.9537 22.9692 2.2037 22.2392 2.2037 20.8192V4.3592C2.2037 2.9392 2.9537 2.1992 4.3237 2.1992H20.8537C22.2037 2.1992 22.9737 2.9392 22.9737 4.3592V20.8192C22.9737 22.2392 22.2037 22.9692 20.8537 22.9692ZM11.2237 18.5892H15.1937C17.5537 18.5892 18.3337 17.3092 18.3337 14.9592V7.1892C18.3337 6.7392 18.0737 6.4492 17.6537 6.4492C17.2237 6.4492 16.9537 6.7392 16.9537 7.1892V14.8892C16.9537 16.6492 16.5737 17.0892 14.8237 17.0892H11.5937V10.7892C11.5937 10.3492 11.3337 10.0792 10.9237 10.0792C10.5037 10.0792 10.2237 10.3492 10.2237 10.7892V17.6092C10.2237 18.2392 10.6537 18.5892 11.2237 18.5892ZM7.5637 18.7192C7.9537 18.7192 8.2137 18.4392 8.2137 18.0092V8.0692H11.2537C12.8137 8.0692 13.6037 8.4792 13.6037 10.2492V14.3692C13.6037 14.8092 13.8637 15.0892 14.2837 15.0892C14.6937 15.0892 14.9537 14.8092 14.9537 14.3692V9.9792C14.9537 7.7292 13.9737 6.5792 11.7037 6.5792H7.8937C7.2437 6.5792 6.8637 6.9692 6.8637 7.6192V18.0092C6.8637 18.4392 7.1237 18.7192 7.5637 18.7192Z"
        fillRule="evenodd"
        clipRule="evenodd"
    />
</svg>
        