
<svg
    viewBox={0 0 27.890625 27.890625}
    xmlns="http://www.w3.org/2000/svg"
>
    <path
        fill="inherit"
        d="M13.9427 27.8864C21.6427 27.8864 27.8927 21.6264 27.8927 13.9464C27.8927 6.2464 21.6427 -0.0036 13.9427 -0.0036C6.2627 -0.0036 0.0027 6.2464 0.0027 13.9464C0.0027 21.6264 6.2627 27.8864 13.9427 27.8864ZM12.5327 20.1564C11.9227 20.1564 11.5027 19.7864 11.5027 19.1264V12.0964C11.5027 11.6464 11.7827 11.3564 12.2227 11.3564C12.6427 11.3564 12.9227 11.6464 12.9227 12.0964V18.5964H16.2427C18.0427 18.5964 18.4427 18.1464 18.4427 16.3264V8.3964C18.4427 7.9164 18.7327 7.6264 19.1727 7.6264C19.6027 7.6264 19.8827 7.9164 19.8827 8.3964V16.3964C19.8827 18.8264 19.0727 20.1564 16.6227 20.1564ZM8.7327 20.2764C8.3027 20.2764 8.0127 20.0064 8.0127 19.5364V8.8364C8.0127 8.1664 8.4227 7.7564 9.0927 7.7564H13.0327C15.3627 7.7564 16.3927 8.9364 16.3927 11.2664V15.7864C16.3927 16.2464 16.1227 16.5464 15.6927 16.5464C15.2427 16.5464 14.9827 16.2464 14.9827 15.7864V11.5564C14.9827 9.7164 14.1627 9.2964 12.5627 9.2964H9.4327V19.5364C9.4327 20.0064 9.1627 20.2764 8.7327 20.2764Z"
        fillRule="evenodd"
        clipRule="evenodd"
    />
</svg>
        