
<svg
    viewBox="0 0 30.529296875 29.17578125"
    xmlns="http://www.w3.org/2000/svg"
>
    <path
        fill="inherit"
        d="M1.8137 25.919H28.7137V25.009C28.7137 24.459 28.3937 24.129 27.8337 24.129H26.9637V9.379H28.1637C28.9137 9.379 29.3537 8.829 29.3537 8.269C29.3537 7.859 29.1237 7.509 28.6137 7.219L16.9437 0.479C16.3937 0.169 15.8137 -0.001 15.2537 -0.001C14.6937 -0.001 14.1137 0.169 13.5937 0.479L1.9137 7.219C1.3937 7.509 1.1737 7.859 1.1737 8.269C1.1737 8.829 1.6137 9.379 2.3637 9.379H3.5637V24.129H2.7037C2.1437 24.129 1.8137 24.459 1.8137 25.009ZM5.6337 24.129V7.629L14.7237 2.529C14.8937 2.429 15.0837 2.379 15.2537 2.379C15.4337 2.379 15.6237 2.429 15.8037 2.529L24.8937 7.629V24.129ZM13.9037 20.399H17.8737C20.2337 20.399 21.0137 19.129 21.0137 16.759V8.999C21.0137 8.549 20.7537 8.259 20.3337 8.259C19.9037 8.259 19.6337 8.549 19.6337 8.999V16.709C19.6337 18.459 19.2537 18.899 17.4837 18.899H14.2737V12.589C14.2737 12.159 14.0137 11.879 13.6037 11.879C13.1837 11.879 12.9037 12.159 12.9037 12.589V19.419C12.9037 20.039 13.3137 20.399 13.9037 20.399ZM10.2237 20.519C10.6337 20.519 10.8937 20.249 10.8937 19.809V9.889H13.9337C15.4937 9.889 16.2837 10.279 16.2837 12.059V16.169C16.2837 16.629 16.5337 16.899 16.9537 16.899C17.3737 16.899 17.6337 16.629 17.6337 16.169V11.789C17.6337 9.539 16.6537 8.379 14.3837 8.379H10.5637C9.9237 8.379 9.5337 8.779 9.5337 9.419V19.809C9.5337 20.249 9.8037 20.519 10.2237 20.519ZM1.0937 29.179H29.4237C30.0237 29.179 30.5337 28.669 30.5337 28.069C30.5337 27.469 30.0237 26.979 29.4237 26.979H1.0937C0.4937 26.979 0.0037 27.469 0.0037 28.069C0.0037 28.669 0.4937 29.179 1.0937 29.179Z"
        fillRule="evenodd"
        clipRule="evenodd"
    />
</svg>
        