<svg viewBox="0 0 32.935546875 27.26189615322232" xmlns="http://www.w3.org/2000/svg"><path d="M32.9327 16.3992C32.9327 7.7792 26.3227 0.7192 17.8927 -0.0008C17.4627 -0.0408 17.1327 0.2792 17.1327 0.7192V5.1892C17.1327 5.5592 17.3927 5.8392 17.7627 5.8692C22.9927 6.5092 27.0727 10.9792 27.0727 16.3992C27.0727 18.8592 26.2227 21.1292 24.7327 23.0292C24.5427 23.2592 24.5527 23.5592 24.7627 23.7792L28.0227 27.0292C28.3327 27.3292 28.7927 27.3292 29.0627 27.0092C31.4827 24.1392 32.9327 20.4292 32.9327 16.3992ZM0.0027 16.3992C0.0027 20.4392 1.4527 24.1492 3.8727 27.0192C4.1427 27.3492 4.5927 27.3292 4.9127 27.0292L8.1727 23.7792C8.3827 23.5592 8.3927 23.2592 8.2027 23.0292C6.7027 21.1292 5.8627 18.8592 5.8627 16.3992C5.8627 10.9792 9.9427 6.5092 15.1727 5.8692C15.5427 5.8392 15.8027 5.5592 15.8027 5.1892V0.7192C15.8027 0.2792 15.4727 -0.0408 15.0427 -0.0008C6.6127 0.7192 0.0027 7.7792 0.0027 16.3992ZM15.0827 22.5892H19.0627C21.4127 22.5892 22.1927 21.3192 22.1927 18.9492V11.1892C22.1927 10.7392 21.9327 10.4492 21.5027 10.4492C21.0827 10.4492 20.8127 10.7392 20.8127 11.1892V18.8992C20.8127 20.6492 20.4427 21.0892 18.6727 21.0892H15.4527V14.7792C15.4527 14.3492 15.1927 14.0692 14.7827 14.0692C14.3527 14.0692 14.0827 14.3492 14.0827 14.7792V21.6092C14.0827 22.2292 14.5027 22.5892 15.0827 22.5892ZM11.4127 22.7092C11.8127 22.7092 12.0727 22.4392 12.0727 21.9992V12.0792H15.1027C16.6627 12.0792 17.4627 12.4692 17.4627 14.2492V18.3692C17.4627 18.8192 17.7227 19.0892 18.1427 19.0892C18.5627 19.0892 18.8227 18.8192 18.8227 18.3692V13.9792C18.8227 11.7292 17.8327 10.5692 15.5727 10.5692H11.7627C11.1027 10.5692 10.7227 10.9692 10.7227 11.6092V21.9992C10.7227 22.4392 10.9927 22.7092 11.4127 22.7092Z" /></svg>