<svg viewBox="0 0 27.642843986883236 27.9521484375" xmlns="http://www.w3.org/2000/svg"><path d="M25.8468 27.3055C26.2568 27.7155 26.9268 27.7155 27.3368 27.3055C27.7368 26.8955 27.7468 26.2255 27.3368 25.8155L1.7968 0.3055C1.3868 -0.1045 0.7168 -0.1045 0.2968 0.3055C-0.1032 0.7055 -0.1032 1.3855 0.2968 1.7955ZM24.7868 20.9155C25.6068 19.6655 25.9468 18.2855 25.9468 16.4855V6.0255C25.9468 4.5855 25.3268 4.1355 24.1668 3.6455C22.5568 2.9755 17.3468 1.1055 15.7368 0.5355C15.3668 0.4155 14.9668 0.3355 14.5868 0.3355C14.1968 0.3355 13.8068 0.4455 13.4468 0.5355C12.1968 0.9255 9.1568 2.0255 6.8168 2.9355L14.5968 10.7155V2.5355C14.7468 2.5355 14.9168 2.5755 15.1268 2.6555C17.1968 3.4755 21.1968 4.9255 23.3168 5.6555C23.6868 5.7855 23.7768 5.9855 23.7768 6.4455V15.9755C23.7768 17.2855 23.5668 18.2955 23.0768 19.1855ZM3.2268 6.9655V16.4855C3.2268 21.4755 5.9168 23.3055 13.6668 27.6755C14.0268 27.8655 14.3668 27.9555 14.5868 27.9555C14.8068 27.9555 15.1568 27.8655 15.4968 27.6755C17.6468 26.4755 19.3868 25.4655 20.7868 24.5455L19.1268 22.8655C18.0968 23.5255 16.8768 24.2455 15.4368 25.1455C15.0468 25.3955 14.8168 25.4755 14.5968 25.4755V18.3455Z" /></svg>