
<svg
    viewBox={0 0 27.64453125 27.6171875}
    xmlns="http://www.w3.org/2000/svg"
>
    <path
        fill="inherit"
        d="M25.8491 27.3055C26.2591 27.7155 26.9291 27.7155 27.3391 27.3055C27.7491 26.8955 27.7491 26.2255 27.3391 25.8155L1.7991 0.3055C1.3991 -0.1045 0.7191 -0.1045 0.3091 0.3055C-0.1009 0.7055 -0.1009 1.3855 0.3091 1.7955ZM24.5391 20.7655C25.3591 19.5055 25.6791 18.0955 25.6791 16.3055V5.9955C25.6791 4.5855 25.0791 4.1355 23.9291 3.6555C22.3291 3.0055 17.2191 1.1455 15.6291 0.5955C15.2691 0.4755 14.8791 0.4055 14.4991 0.4055C14.1191 0.4055 13.7291 0.4855 13.3791 0.5955C12.1191 1.0155 9.0591 2.1255 6.7791 2.9855ZM3.3191 7.1455V16.3055C3.3191 21.2155 5.9591 23.0155 13.5991 27.3255C13.9491 27.5155 14.2791 27.5855 14.4991 27.5855C14.7191 27.5855 15.0591 27.5055 15.3991 27.3255C17.4791 26.2255 19.1791 25.2755 20.5391 24.3955Z"
        fillRule="evenodd"
        clipRule="evenodd"
    />
</svg>
        