
<svg
    viewBox="0 0 22.72265625 27.6171875"
    xmlns="http://www.w3.org/2000/svg"
>
    <path
        fill="inherit"
        d="M0.0037 16.1505C0.0037 21.1405 2.6837 22.9705 10.4437 27.3405C10.8037 27.5305 11.1437 27.6205 11.3637 27.6205C11.5837 27.6205 11.9337 27.5305 12.2737 27.3405C20.0537 22.9805 22.7237 21.1405 22.7237 16.1505V5.6905C22.7237 4.2505 22.1037 3.8005 20.9437 3.3105C19.3337 2.6405 14.1237 0.7705 12.5137 0.2005C12.1437 0.0805 11.7437 0.0005 11.3637 0.0005C10.9737 0.0005 10.5837 0.1105 10.2237 0.2005C8.6137 0.6705 3.3937 2.6505 1.7737 3.3105C0.6337 3.7905 0.0037 4.2505 0.0037 5.6905ZM11.6437 25.0905V2.2405C11.7137 2.2605 11.8037 2.2805 11.9037 2.3205C13.9737 3.1405 17.9737 4.5905 20.0937 5.3205C20.4637 5.4505 20.5537 5.6505 20.5537 6.1105V15.6405C20.5537 19.8605 18.5237 20.9705 12.2137 24.8105C12.0037 24.9505 11.8137 25.0505 11.6437 25.0905Z"
        fillRule="evenodd"
        clipRule="evenodd"
    />
</svg>
        