
<svg
    viewBox={0 0 22.72265625 27.6171875}
    xmlns="http://www.w3.org/2000/svg"
>
    <path
        fill="inherit"
        d="M22.7237 16.1505V5.6905C22.7237 4.2505 22.1037 3.7905 20.9437 3.3105C19.3337 2.6505 14.1237 0.6705 12.5137 0.2005C12.1437 0.1105 11.7437 0.0005 11.3637 0.0005C10.9737 0.0005 10.5837 0.0805 10.2237 0.2005C8.6037 0.7705 3.3937 2.6405 1.7737 3.3105C0.6337 3.8005 0.0037 4.2505 0.0037 5.6905V16.1505C0.0037 21.1405 2.6637 22.9805 10.4437 27.3405C10.8037 27.5305 11.1437 27.6205 11.3637 27.6205C11.5837 27.6205 11.9337 27.5305 12.2737 27.3405C20.0437 22.9705 22.7237 21.1405 22.7237 16.1505ZM11.0737 25.0905C10.9137 25.0505 10.7337 24.9505 10.5137 24.8105C4.2137 20.9705 2.1737 19.8605 2.1737 15.6405V6.1105C2.1737 5.6505 2.2537 5.4505 2.6437 5.3205C4.7537 4.5905 8.7537 3.1405 10.8137 2.3205C10.9237 2.2805 11.0037 2.2605 11.0737 2.2405Z"
        fillRule="evenodd"
        clipRule="evenodd"
    />
</svg>
        