
<svg
    viewBox={0 0 27.64794921875 27.9521484375}
    xmlns="http://www.w3.org/2000/svg"
>
    <path
        fill="inherit"
        d="M25.8521 27.3055C26.2621 27.7155 26.9321 27.7155 27.3421 27.3055C27.7521 26.8955 27.7521 26.2255 27.3421 25.8155L1.8021 0.3055C1.4021 -0.1045 0.7221 -0.1045 0.3021 0.3055C-0.0979 0.7055 -0.0979 1.3855 0.3021 1.7955ZM24.7321 20.9155C25.5521 19.6655 25.8921 18.2855 25.8921 16.4855V6.0255C25.8921 4.5855 25.2721 4.1355 24.1121 3.6455C22.5021 2.9755 17.2921 1.1055 15.6821 0.5355C15.3121 0.4155 14.9121 0.3355 14.5321 0.3355C14.1421 0.3355 13.7521 0.4455 13.3921 0.5355C12.1421 0.9355 9.0721 2.0455 6.7621 2.9355L8.4721 4.6555C10.3421 3.9555 12.6421 3.1355 13.9821 2.6555C14.2021 2.5655 14.3821 2.5355 14.5321 2.5355C14.6821 2.5355 14.8621 2.5755 15.0721 2.6555C17.1721 3.4155 21.1421 4.9255 23.2621 5.6555C23.6321 5.7855 23.7221 5.9855 23.7221 6.4455V15.9755C23.7221 17.3055 23.5121 18.3255 23.0221 19.2055ZM3.1721 16.4855C3.1721 21.4755 5.8521 23.3055 13.6121 27.6755C13.9721 27.8655 14.3121 27.9555 14.5321 27.9555C14.7521 27.9555 15.1021 27.8655 15.4421 27.6755C17.5921 26.4755 19.3321 25.4655 20.7321 24.5355L19.0721 22.8555C18.0421 23.5255 16.8221 24.2455 15.3821 25.1455C14.9821 25.3955 14.7521 25.4755 14.5321 25.4755C14.3121 25.4755 14.0921 25.3955 13.6821 25.1455C7.3621 21.3255 5.3421 20.1955 5.3421 15.9755V9.1255L3.1721 6.9655Z"
        fillRule="evenodd"
        clipRule="evenodd"
    />
</svg>
        