
<svg
    viewBox="0 0 39.224609375 29.75"
    xmlns="http://www.w3.org/2000/svg"
>
    <path
        fill="inherit"
        d="M33.1009 9.692L20.1009 2.312L22.8709 0.742C23.7109 0.262 24.5409 0.002 25.3609 0.002C26.1709 0.002 27.0009 0.262 27.8409 0.742L37.4709 6.232C37.7909 6.402 38.0209 6.562 38.2409 6.772ZM25.3609 14.082L12.4709 6.772C12.6909 6.562 12.9309 6.402 13.2309 6.232L18.2509 3.372L31.2009 10.772ZM26.2909 29.752V15.722L39.1109 8.392C39.2009 8.692 39.2209 9.022 39.2209 9.432V20.082C39.2209 22.062 38.5409 22.802 37.2709 23.532L26.5609 29.622C26.4709 29.682 26.3909 29.722 26.2909 29.752ZM17.3609 16.402C17.3609 15.822 16.8709 15.322 16.3009 15.322H11.4809V9.432C11.4809 9.022 11.5109 8.692 11.5909 8.392L24.4209 15.722V29.752C24.3209 29.722 24.2409 29.682 24.1609 29.622L13.4409 23.532C12.1809 22.802 11.4809 22.062 11.4809 20.082V17.502H5.0409L3.0109 17.422L3.8109 18.182L6.0709 20.292C6.2909 20.482 6.3809 20.772 6.3809 21.032C6.3809 21.602 5.9909 22.022 5.4309 22.022C5.1409 22.022 4.9209 21.912 4.7209 21.712L0.3709 17.202C0.0909 16.922 0.0009 16.692 0.0009 16.402C0.0009 16.132 0.0909 15.902 0.3709 15.612L4.7209 11.112C4.9209 10.912 5.1409 10.792 5.4309 10.792C5.9909 10.792 6.3809 11.202 6.3809 11.772C6.3809 12.032 6.2909 12.332 6.0709 12.522L3.8109 14.642L2.9909 15.412L5.0409 15.322H11.4809V17.502H16.3009C16.8709 17.502 17.3609 16.992 17.3609 16.402Z"
        fillRule="evenodd"
        clipRule="evenodd"
    />
</svg>
        