
<svg
    viewBox={0 0 27.603515625 29.81494140625}
    xmlns="http://www.w3.org/2000/svg"
>
    <path
        fill="inherit"
        d="M1.9137 23.3933L12.6737 29.4833C13.4437 29.9233 14.1637 29.9233 14.9437 29.4833L25.6937 23.3933C26.9437 22.6733 27.6037 21.9533 27.6037 20.0033V9.1733C27.6037 7.7533 27.0837 6.8633 25.9337 6.2033L16.2537 0.7033C14.6037 -0.2367 13.0037 -0.2367 11.3437 0.7033L1.6837 6.2033C0.5237 6.8633 0.0037 7.7533 0.0037 9.1733V20.0033C0.0037 21.9533 0.6737 22.6733 1.9137 23.3933ZM20.2337 10.1433L9.6437 4.1533L12.2637 2.6633C13.3137 2.0633 14.2837 2.0433 15.3537 2.6633L24.3637 7.8033ZM13.8037 13.7733L3.2537 7.8033L7.4737 5.3833L18.0337 11.3833ZM3.1437 21.5833C2.3537 21.1433 2.0737 20.6833 2.0737 19.9333V9.6033L12.7237 15.6933V27.0433ZM24.4737 21.5833L14.8737 27.0433V15.6933L25.5237 9.6033V19.9333C25.5237 20.6833 25.2537 21.1433 24.4737 21.5833Z"
        fillRule="evenodd"
        clipRule="evenodd"
    />
</svg>
        