
<svg
    viewBox="0 0 27.890625 27.890625"
    xmlns="http://www.w3.org/2000/svg"
>
    <path
        fill="inherit"
        d="M13.9427 27.8864C21.6427 27.8864 27.8927 21.6464 27.8927 13.9464C27.8927 6.2464 21.6427 -0.0036 13.9427 -0.0036C6.2527 -0.0036 0.0027 6.2464 0.0027 13.9464C0.0027 21.6464 6.2527 27.8864 13.9427 27.8864ZM13.9427 25.5664C7.5227 25.5664 2.3227 20.3664 2.3227 13.9464C2.3227 7.5164 7.5227 2.3264 13.9427 2.3264C20.3727 2.3264 25.5627 7.5164 25.5627 13.9464C25.5627 20.3664 20.3727 25.5664 13.9427 25.5664ZM17.9927 11.2364L20.6727 9.7164C20.5727 9.6064 20.4427 9.5164 20.2727 9.4464L15.2427 6.5664C14.8027 6.3064 14.3727 6.1764 13.9427 6.1764C13.5327 6.1764 13.0927 6.3064 12.6627 6.5664L11.1927 7.3864ZM13.9427 13.5364L16.9927 11.7964L10.2427 7.9464L7.6127 9.4464C7.4527 9.5164 7.3127 9.6064 7.2227 9.7164ZM14.4327 21.7064C14.4927 21.6964 14.5327 21.6664 14.5727 21.6464L20.1827 18.4564C20.8227 18.0764 21.2027 17.6864 21.2027 16.6664V11.0864C21.2027 10.8964 21.1927 10.7064 21.1327 10.5564L14.4327 14.3864ZM13.4527 21.7064V14.3864L6.7527 10.5564C6.7127 10.7064 6.7127 10.8964 6.7127 11.0864V16.6664C6.7127 17.6864 7.0727 18.0764 7.7127 18.4564L13.3127 21.6464C13.3527 21.6664 13.4027 21.6964 13.4527 21.7064Z"
        fillRule="evenodd"
        clipRule="evenodd"
    />
</svg>
        