
<svg
    viewBox={0 0 39.15625 29.81494140625}
    xmlns="http://www.w3.org/2000/svg"
>
    <path
        fill="inherit"
        d="M13.4709 23.3933L24.2309 29.4833C24.9909 29.9233 25.7209 29.9233 26.4809 29.4833L37.2409 23.3933C38.5009 22.6733 39.1609 21.9533 39.1609 20.0033V9.1733C39.1609 7.7533 38.6409 6.8633 37.4909 6.2033L27.8109 0.7033C26.1509 -0.2367 24.5509 -0.2367 22.9009 0.7033L13.2309 6.2033C12.0709 6.8633 11.5509 7.7533 11.5509 9.1733V13.3533H13.6309V9.6033L24.2809 15.6933V27.0433L14.6809 21.5833C14.0009 21.2033 13.7109 20.8033 13.6409 20.2033L13.6309 19.5633H11.5509V20.1733C11.5509 21.9933 12.2509 22.6933 13.4709 23.3933ZM31.7909 10.1433L21.1909 4.1533L23.8009 2.6633C24.8709 2.0633 25.8409 2.0433 26.9109 2.6633L35.9009 7.8033ZM25.3609 13.7733L14.8109 7.8033L19.0309 5.3833L29.5909 11.3833ZM36.0209 21.5833L26.4309 27.0433V15.6933L37.0809 9.6033V19.9333C37.0809 20.6833 36.8009 21.1433 36.0209 21.5833ZM17.3609 16.4533C17.3609 15.8733 16.8709 15.3733 16.3009 15.3733H5.0409L2.9909 15.4633L3.8109 14.6933L6.0709 12.5733C6.2909 12.3833 6.3809 12.0833 6.3809 11.8233C6.3809 11.2533 5.9909 10.8433 5.4309 10.8433C5.1409 10.8433 4.9209 10.9633 4.7209 11.1633L0.3709 15.6633C0.0909 15.9533 0.0009 16.1833 0.0009 16.4533C0.0009 16.7433 0.0909 16.9733 0.3709 17.2533L4.7209 21.7633C4.9209 21.9633 5.1409 22.0733 5.4309 22.0733C5.9909 22.0733 6.3809 21.6533 6.3809 21.0833C6.3809 20.8233 6.2909 20.5333 6.0709 20.3433L3.8109 18.2333L3.0109 17.4733L5.0409 17.5533H16.3009C16.8709 17.5533 17.3609 17.0433 17.3609 16.4533Z"
        fillRule="evenodd"
        clipRule="evenodd"
    />
</svg>
        