
<svg
    viewBox="0 0 41.48046875 18.8697007156424"
    xmlns="http://www.w3.org/2000/svg"
>
    <path
        fill="inherit"
        d="M3.5437 14.6301H27.3437C30.7637 14.6301 32.3237 14.2201 34.2737 13.1801L38.2637 11.0801C40.5137 9.8701 41.1137 8.3101 40.0837 7.2201C39.3037 6.3101 37.9537 5.5001 36.1037 5.5001C34.6137 5.5001 31.2637 6.0301 30.0137 6.0301C29.1337 6.0301 28.7337 6.0001 28.0837 5.7001L25.7737 8.8501C25.4937 9.2001 25.0037 9.2701 24.6537 8.9601C24.3237 8.7001 24.2837 8.2501 24.5537 7.8601L26.6737 4.9401L24.9637 3.9401L22.5837 7.2801C22.3037 7.6701 21.8237 7.7001 21.4537 7.3701C21.1137 7.1301 21.0537 6.6701 21.3437 6.2801L23.6137 3.1501L21.9037 2.1501L19.3437 5.7001C19.0837 6.0501 18.5637 6.0701 18.2337 5.8101C17.8937 5.5501 17.8737 5.0301 18.1137 4.7101L20.5337 1.3401L19.8537 0.9501C17.2237 -0.5599 14.8237 -0.3699 12.8237 2.2301C11.2537 4.2401 9.6437 5.1001 7.9737 5.1001C6.4937 5.1001 5.4837 4.8701 4.3937 4.3601C2.2837 3.4501 0.0037 4.3901 0.0037 6.8901V13.0201C0.0037 13.1301 0.0037 13.2401 0.0137 13.3301C0.8737 14.3201 1.8037 14.6301 3.5437 14.6301ZM38.9937 12.4801L35.0237 14.5601C32.7737 15.7701 30.9137 16.2201 27.3437 16.2201H3.5437C2.2837 16.2201 1.3137 16.0301 0.2637 15.2501C1.0237 18.0401 3.2537 18.8701 5.4037 18.8701H27.1537C31.5437 18.8701 34.0837 18.2001 37.5137 16.3001C40.2237 14.7801 41.4837 12.9101 41.4837 10.7501C41.4837 10.4601 41.4537 10.1901 41.4237 9.9301C41.1637 10.9701 40.5537 11.6501 38.9937 12.4801Z"
        fillRule="evenodd"
        clipRule="evenodd"
    />
</svg>
        