<svg viewBox="0 0 48.138671875 24.05720438420774" xmlns="http://www.w3.org/2000/svg"><path d="M5.4037 18.8736H6.6737C6.9337 22.9236 9.5437 24.0536 12.0537 24.0536H33.7937C38.2037 24.0536 40.7237 23.3836 44.1637 21.4836C46.8837 19.9736 48.1437 18.0936 48.1437 15.9336C48.1437 12.8236 45.9537 10.6836 42.7537 10.6836C42.4137 10.6836 41.9737 10.7136 41.4837 10.7536C41.4837 7.6336 39.3037 5.5036 36.1037 5.5036C34.6137 5.5036 31.2637 6.0336 30.0137 6.0336C28.7537 6.0336 28.4737 5.9836 27.1837 5.2436L19.8537 0.9536C17.2437 -0.5664 14.8237 -0.3564 12.8237 2.2336C11.2537 4.2436 9.6437 5.1036 7.9737 5.1036C6.4937 5.1036 5.4837 4.8736 4.3937 4.3736C2.2837 3.4536 0.0037 4.3936 0.0037 6.9036V13.0236C0.0037 17.6136 2.7637 18.8736 5.4037 18.8736ZM4.5137 13.8036C3.2837 13.8036 2.5937 13.6636 2.2037 13.2936C2.2037 13.2136 2.2037 13.1236 2.2037 13.0236V6.8836C2.2037 6.2436 2.7437 6.0336 3.2537 6.2836C4.5937 6.8736 6.0437 7.3136 7.9737 7.3136C10.2837 7.3136 12.6437 6.0536 14.5637 3.5736C15.9137 1.8436 16.8137 1.7536 18.7337 2.8636L22.8037 5.2336C21.6037 5.3936 20.4937 6.1036 19.4737 7.4136C17.8937 9.4236 16.2837 10.2936 14.6137 10.2936C13.1437 10.2936 12.1437 10.0536 11.0337 9.5536C8.9437 8.6336 6.6537 9.5836 6.6537 12.0836V13.8036ZM8.8737 18.5036C8.8637 18.4136 8.8637 18.3136 8.8637 18.2036V12.0636C8.8637 11.4236 9.4037 11.2236 9.9137 11.4636C11.2537 12.0536 12.6837 12.4936 14.6137 12.4936C16.9437 12.4936 19.3037 11.2336 21.2237 8.7536C22.5737 7.0236 23.4737 6.9436 25.3937 8.0436L26.0037 8.4136L24.1837 10.9136C23.9237 11.2436 23.9637 11.7436 24.2837 11.9836C24.6137 12.2436 25.1137 12.2136 25.3637 11.8936L27.3337 9.1836L28.9937 10.1436L27.3037 12.4536C27.0337 12.8236 27.0837 13.2536 27.3937 13.5036C27.7837 13.8036 28.2237 13.7936 28.4937 13.4036L30.3137 10.9036L31.9637 11.8636L30.4237 13.9836C30.1437 14.3336 30.1837 14.7836 30.5037 15.0336C30.8537 15.3336 31.3037 15.2936 31.5837 14.9336L33.2737 12.6136C34.5937 13.3136 35.3237 13.4236 36.6537 13.4236C38.0637 13.4236 41.4237 12.8836 42.7337 12.8836C43.8437 12.8836 45.0037 13.2336 45.0037 14.2236C45.0037 14.7836 44.4337 15.5436 42.9437 16.3336L40.4937 17.5936C38.5937 18.6036 37.1237 18.9836 33.7937 18.9836H11.1537C9.9537 18.9836 9.2737 18.8436 8.8737 18.5036ZM33.8337 10.4236L30.1037 8.2436C31.5637 8.2236 34.8037 7.7036 36.0937 7.7036C38.2137 7.7036 39.2637 8.7336 39.2637 10.7536C39.2637 10.8336 39.2637 10.9136 39.2537 11.0036C38.2137 11.1236 37.2237 11.2236 36.6537 11.2236C35.4137 11.2236 35.1237 11.1636 33.8337 10.4236ZM4.5137 15.3336H6.6537V16.6736H5.3837C3.9237 16.6736 2.8937 16.3336 2.4637 14.9836C3.0337 15.2436 3.6537 15.3336 4.5137 15.3336ZM9.1037 20.1636C9.6937 20.4236 10.2937 20.5136 11.1537 20.5136H33.7937C37.2537 20.5136 39.0637 20.0536 41.2337 18.9136L43.6637 17.6836C45.1137 16.9236 45.6337 16.3636 45.8237 15.4136C45.8737 15.6536 45.8937 15.9136 45.8837 16.1636C45.8137 17.5036 44.9637 18.5336 43.1037 19.5736C39.9737 21.3136 37.8937 21.8536 33.7937 21.8536H12.0437C10.5837 21.8536 9.5537 21.5136 9.1037 20.1636Z" /></svg>