
<svg
    viewBox="0 0 41.48046875 18.87556375920774"
    xmlns="http://www.w3.org/2000/svg"
>
    <path
        fill="inherit"
        d="M19.8537 0.956C17.2437 -0.564 14.8237 -0.364 12.8237 2.236C11.2537 4.246 9.6437 5.106 7.9737 5.106C6.4937 5.106 5.4837 4.876 4.3937 4.366C2.2837 3.456 0.0037 4.396 0.0037 6.896V13.026C0.0037 17.616 2.7637 18.876 5.4037 18.876H27.1537C31.5437 18.876 34.0837 18.206 37.5137 16.306C40.2237 14.786 41.4837 12.916 41.4837 10.756C41.4837 7.636 39.3037 5.506 36.1037 5.506C34.6137 5.506 31.2637 6.036 30.0137 6.036C28.7537 6.036 28.4737 5.986 27.1837 5.246ZM2.2137 13.326C2.2037 13.226 2.2037 13.136 2.2037 13.026V6.886C2.2037 6.246 2.7437 6.036 3.2537 6.286C4.5937 6.876 6.0437 7.306 7.9737 7.306C10.2837 7.306 12.6437 6.056 14.5637 3.576C15.9137 1.836 16.8137 1.756 18.7337 2.866L19.3637 3.236L17.5237 5.736C17.2837 6.066 17.3037 6.556 17.6337 6.806C17.9537 7.066 18.4537 7.036 18.7037 6.706L20.6837 3.996L22.3437 4.956L20.6537 7.266C20.3837 7.636 20.4237 8.076 20.7537 8.316C21.1237 8.626 21.5737 8.596 21.8437 8.226L23.6637 5.726L25.3237 6.676L23.7737 8.796C23.5037 9.156 23.5337 9.606 23.8537 9.856C24.2037 10.156 24.6637 10.116 24.9337 9.756L26.6337 7.436C27.9337 8.126 28.6737 8.236 30.0137 8.236C31.4137 8.236 34.7837 7.706 36.0937 7.706C37.1837 7.706 38.3637 8.046 38.3637 9.046C38.3637 9.606 37.7937 10.356 36.2837 11.146L33.8537 12.406C31.9537 13.416 30.4637 13.806 27.1537 13.806H4.5137C3.2937 13.806 2.6237 13.666 2.2137 13.326ZM2.4637 14.976C3.0337 15.236 3.6537 15.336 4.5137 15.336H27.1537C30.5937 15.336 32.4137 14.866 34.5737 13.736L37.0137 12.506C38.4737 11.726 38.9937 11.176 39.1837 10.236C39.2237 10.466 39.2337 10.726 39.2337 10.986C39.1737 12.326 38.3237 13.356 36.4537 14.396C33.3337 16.126 31.2537 16.676 27.1537 16.676H5.3837C3.9337 16.676 2.8937 16.336 2.4637 14.976Z"
        fillRule="evenodd"
        clipRule="evenodd"
    />
</svg>
        