
<svg
    viewBox={0 0 27.890625 27.890625}
    xmlns="http://www.w3.org/2000/svg"
>
    <path
        fill="inherit"
        d="M13.9427 27.8864C21.6427 27.8864 27.8927 21.6264 27.8927 13.9464C27.8927 6.2464 21.6427 -0.0036 13.9427 -0.0036C6.2627 -0.0036 0.0027 6.2464 0.0027 13.9464C0.0027 21.6264 6.2627 27.8864 13.9427 27.8864ZM5.5227 16.6064C4.6927 16.6064 4.2527 16.4864 3.8127 15.9964C3.8127 15.9664 3.8327 15.9164 3.8327 15.8764L3.8127 12.6364C3.8127 11.5164 4.7627 10.9064 5.9427 11.5564C6.4827 11.8364 6.9627 12.0264 7.6927 12.0264C8.5127 12.0264 9.2927 11.6164 10.2527 10.3864C11.0327 9.3764 12.0727 9.1964 13.1927 9.8564L13.7927 10.1864L12.6027 11.8264C12.4927 11.9764 12.5127 12.2664 12.6827 12.3864C12.8527 12.5264 13.1227 12.5064 13.2627 12.3364L14.5027 10.5964L15.2827 11.0764L14.1827 12.5964C14.0127 12.7864 14.0727 13.0264 14.2427 13.1664C14.4327 13.3164 14.6827 13.3064 14.8227 13.0964L15.9927 11.4664L16.7927 11.9364L15.7527 13.3564C15.6127 13.5664 15.6427 13.7764 15.8027 13.9364C15.9927 14.0864 16.2427 14.0564 16.3927 13.8664L17.5127 12.3364C17.8327 12.4864 18.0227 12.4964 18.4327 12.4864C19.0627 12.4864 20.6827 12.2264 21.4127 12.2264C22.3227 12.2364 22.9827 12.6364 23.3527 13.0664C23.8527 13.6164 23.5427 14.3164 22.4527 14.9064L20.4927 15.9164C19.5327 16.4064 18.8127 16.5964 17.1427 16.5964ZM6.4427 18.7164C5.4027 18.7164 4.3227 18.3064 3.9327 16.9664C4.4427 17.3364 4.9227 17.4164 5.5327 17.4164H17.1427C18.8627 17.4164 19.7727 17.2164 20.8627 16.6364L22.8227 15.6264C23.5727 15.2264 23.8727 14.9064 23.9927 14.4064C24.0127 14.5064 24.0227 14.6464 24.0127 14.7764C24.0227 15.8364 23.4227 16.7464 22.0827 17.4764C20.4127 18.4064 19.1827 18.7164 17.0527 18.7164Z"
        fillRule="evenodd"
        clipRule="evenodd"
    />
</svg>
        