
<svg
    viewBox="0 0 48.138671875 24.05903963372823"
    xmlns="http://www.w3.org/2000/svg"
>
    <path
        fill="inherit"
        d="M0.0137 13.3354C0.8737 14.3254 1.8037 14.6354 3.5437 14.6354H4.7837V12.0854C4.7837 8.4454 8.2337 6.2854 11.7837 7.8554C12.7137 8.2654 13.3337 8.4354 14.6137 8.4354C15.8137 8.4354 16.6637 7.9654 17.9937 6.2754C19.7137 4.0454 21.7637 3.1554 23.9137 3.3354L19.8537 0.9554C17.2437 -0.5746 14.8337 -0.3446 12.8237 2.2354C11.2537 4.2454 9.6437 5.1054 7.9737 5.1054C6.4937 5.1054 5.4837 4.8754 4.3937 4.3754C2.2837 3.4554 0.0037 4.3954 0.0037 6.9054V13.0854C0.0037 13.1754 0.0037 13.2554 0.0137 13.3354ZM10.1837 19.8254H33.9837C37.4237 19.8254 38.9637 19.4154 40.9237 18.3754L44.9137 16.2654C47.1637 15.0654 47.7537 13.5054 46.7437 12.4154C45.9637 11.4954 44.6137 10.6854 42.7537 10.6854C41.2737 10.6854 37.9237 11.2254 36.6537 11.2254C35.7837 11.2254 35.3837 11.1954 34.7437 10.8954L32.4137 14.0354C32.1437 14.4054 31.6637 14.4654 31.2937 14.1454C30.9837 13.8854 30.9237 13.4354 31.2137 13.0554L33.3337 10.1254L31.6237 9.1254L29.2337 12.4654C28.9437 12.8654 28.4737 12.8854 28.0937 12.5654C27.7637 12.3154 27.7037 11.8754 28.0037 11.4654L30.2537 8.3354L28.5637 7.3354L26.0037 10.8954C25.7437 11.2354 25.2237 11.2654 24.8837 11.0054C24.5537 10.7454 24.5237 10.2254 24.7737 9.8954L27.1937 6.5454L26.4937 6.1354C23.8737 4.6354 21.4737 4.8254 19.4737 7.4154C17.8937 9.4254 16.2837 10.2954 14.6137 10.2954C13.1437 10.2954 12.1437 10.0554 11.0337 9.5554C8.9437 8.6354 6.6537 9.5854 6.6537 12.0854V18.2054C6.6537 18.3154 6.6537 18.4254 6.6537 18.5254C7.5337 19.5054 8.4637 19.8254 10.1837 19.8254ZM41.1937 8.9154C40.5937 6.9554 38.7037 5.5054 36.1037 5.5054C34.4237 5.5054 31.7637 5.9954 30.0237 6.0354L35.0537 8.9654C35.5337 9.2554 35.9337 9.3654 36.6537 9.3654C37.4737 9.3654 39.4937 9.0654 41.1937 8.9154ZM45.6537 17.6754L41.6837 19.7554C39.4137 20.9554 37.5737 21.4054 33.9837 21.4054H10.1837C8.9237 21.4054 7.9737 21.2154 6.9137 20.4354C7.6737 23.2254 9.9137 24.0554 12.0537 24.0554H33.7937C38.2037 24.0554 40.7237 23.3854 44.1637 21.4854C46.8837 19.9754 48.1437 18.0954 48.1437 15.9354C48.1437 15.6554 48.1137 15.3754 48.0837 15.1154C47.8237 16.1554 47.2137 16.8354 45.6537 17.6754ZM4.7837 18.8254V16.2254H3.5437C2.2837 16.2254 1.3137 16.0354 0.2637 15.2554C0.8737 17.4854 2.4037 18.4954 4.2137 18.7554C4.4037 18.7854 4.5937 18.8054 4.7837 18.8254Z"
        fillRule="evenodd"
        clipRule="evenodd"
    />
</svg>
        