
<svg
    viewBox="0 0 32.826171875 18.73046875"
    xmlns="http://www.w3.org/2000/svg"
>
    <path
        fill="inherit"
        d="M30.3837 1.94C30.9137 1.94 31.3537 1.5 31.3537 0.97C31.3537 0.44 30.9137 0 30.3837 0C29.8437 0 29.4037 0.44 29.4037 0.97C29.4037 1.5 29.8437 1.94 30.3837 1.94ZM2.5337 15.15C4.4337 15.15 5.5737 14.05 5.7737 12.07H7.5337C7.5337 15.56 9.7437 17.77 13.2937 17.77H15.2137C16.4337 17.77 17.2137 16.99 17.2137 15.78V2.98C17.2137 1.76 16.4337 0.98 15.2137 0.98H13.2937C9.8137 0.98 7.6137 3.12 7.5337 6.55H5.7537C5.5237 4.66 4.3937 3.61 2.5337 3.61H1.2737C0.4637 3.61 0.0037 4.07 0.0037 4.88V13.88C0.0037 14.68 0.4637 15.15 1.2737 15.15ZM27.0737 3.68C27.6037 3.68 28.0437 3.24 28.0437 2.71C28.0437 2.16 27.6037 1.74 27.0737 1.74C26.5337 1.74 26.1037 2.16 26.1037 2.71C26.1037 3.24 26.5337 3.68 27.0737 3.68ZM18.4537 15.41C20.0337 15.38 21.0237 14.25 21.0237 12.44V6.33C21.0237 4.51 20.0337 3.38 18.4537 3.34ZM23.7437 5.41C24.2937 5.41 24.7237 4.98 24.7237 4.44C24.7237 3.91 24.2937 3.47 23.7437 3.47C23.2137 3.47 22.7737 3.91 22.7737 4.44C22.7737 4.98 23.2137 5.41 23.7437 5.41ZM23.6937 10.34C24.2437 10.34 24.6637 9.9 24.6637 9.37C24.6637 8.83 24.2437 8.39 23.6937 8.39C23.1637 8.39 22.7237 8.83 22.7237 9.37C22.7237 9.9 23.1637 10.34 23.6937 10.34ZM27.7837 10.34C28.3137 10.34 28.7537 9.9 28.7537 9.37C28.7537 8.83 28.3137 8.39 27.7837 8.39C27.2437 8.39 26.8137 8.83 26.8137 9.37C26.8137 9.9 27.2437 10.34 27.7837 10.34ZM31.8537 10.34C32.3937 10.34 32.8237 9.9 32.8237 9.37C32.8237 8.83 32.3937 8.39 31.8537 8.39C31.3237 8.39 30.8837 8.83 30.8837 9.37C30.8837 9.9 31.3237 10.34 31.8537 10.34ZM23.7637 15.26C24.3037 15.26 24.7337 14.82 24.7337 14.29C24.7337 13.75 24.3037 13.32 23.7637 13.32C23.2237 13.32 22.7937 13.75 22.7937 14.29C22.7937 14.82 23.2237 15.26 23.7637 15.26ZM27.0837 16.99C27.6137 16.99 28.0537 16.56 28.0537 16.02C28.0537 15.49 27.6137 15.05 27.0837 15.05C26.5537 15.05 26.1137 15.49 26.1137 16.02C26.1137 16.56 26.5537 16.99 27.0837 16.99ZM30.3937 18.73C30.9237 18.73 31.3637 18.29 31.3637 17.75C31.3637 17.21 30.9237 16.78 30.3937 16.78C29.8637 16.78 29.4237 17.21 29.4237 17.75C29.4237 18.29 29.8637 18.73 30.3937 18.73Z"
        fillRule="evenodd"
        clipRule="evenodd"
    />
</svg>
        