
<svg
    viewBox="0 0 22.17578125 29.572265625"
    xmlns="http://www.w3.org/2000/svg"
>
    <path
        fill="inherit"
        d="M0.0037 16.7041C0.0037 17.2041 0.4137 17.5941 0.9037 17.5941H16.7237C17.2137 17.5941 17.6137 17.2041 17.6137 16.7041C17.6137 16.2141 17.2237 15.8041 16.7437 15.8041H16.6637C16.5537 12.8641 14.6837 10.3241 12.1037 9.1241V8.0641C12.1037 6.5341 11.1937 5.3341 9.8437 4.9341V3.6941C9.8437 2.6941 10.4837 2.0741 11.5537 2.0741H15.2537C18.2137 2.0741 20.1137 4.1241 20.1137 7.3041V28.5241C20.1137 29.1341 20.5337 29.5741 21.1337 29.5741C21.7337 29.5741 22.1737 29.1341 22.1737 28.5241V7.3041C22.1737 2.8541 19.4837 0.0041 15.2537 0.0041H11.5537C9.2237 0.0041 7.7837 1.4241 7.7837 3.6941V4.9341C6.4137 5.3341 5.5137 6.5341 5.5137 8.0641V9.1241C2.9237 10.3241 1.0537 12.8641 0.9437 15.8041H0.8737C0.3937 15.8041 0.0037 16.2141 0.0037 16.7041ZM4.2237 21.2441C4.7537 21.2441 5.1937 20.8241 5.1937 20.2741C5.1937 19.7441 4.7537 19.3041 4.2237 19.3041C3.6937 19.3041 3.2537 19.7441 3.2537 20.2741C3.2537 20.8241 3.6937 21.2441 4.2237 21.2441ZM8.7937 21.2441C9.3237 21.2441 9.7637 20.8241 9.7637 20.2741C9.7637 19.7441 9.3237 19.3041 8.7937 19.3041C8.2537 19.3041 7.8237 19.7441 7.8237 20.2741C7.8237 20.8241 8.2537 21.2441 8.7937 21.2441ZM13.3437 21.2441C13.8737 21.2441 14.3137 20.8241 14.3137 20.2741C14.3137 19.7441 13.8737 19.3041 13.3437 19.3041C12.8137 19.3041 12.3737 19.7441 12.3737 20.2741C12.3737 20.8241 12.8137 21.2441 13.3437 21.2441ZM4.2237 25.3341C4.7537 25.3341 5.1937 24.8941 5.1937 24.3641C5.1937 23.8341 4.7537 23.3941 4.2237 23.3941C3.6937 23.3941 3.2537 23.8341 3.2537 24.3641C3.2537 24.8941 3.6937 25.3341 4.2237 25.3341ZM8.7937 25.3341C9.3237 25.3341 9.7637 24.8941 9.7637 24.3641C9.7637 23.8341 9.3237 23.3941 8.7937 23.3941C8.2537 23.3941 7.8237 23.8341 7.8237 24.3641C7.8237 24.8941 8.2537 25.3341 8.7937 25.3341ZM13.3437 25.3341C13.8737 25.3341 14.3137 24.8941 14.3137 24.3641C14.3137 23.8341 13.8737 23.3941 13.3437 23.3941C12.8137 23.3941 12.3737 23.8341 12.3737 24.3641C12.3737 24.8941 12.8137 25.3341 13.3437 25.3341ZM4.2237 29.4041C4.7537 29.4041 5.1937 28.9741 5.1937 28.4341C5.1937 27.9041 4.7537 27.4641 4.2237 27.4641C3.6937 27.4641 3.2537 27.9041 3.2537 28.4341C3.2537 28.9741 3.6937 29.4041 4.2237 29.4041ZM8.7937 29.4041C9.3237 29.4041 9.7637 28.9741 9.7637 28.4341C9.7637 27.9041 9.3237 27.4641 8.7937 27.4641C8.2537 27.4641 7.8237 27.9041 7.8237 28.4341C7.8237 28.9741 8.2537 29.4041 8.7937 29.4041ZM13.3437 29.4041C13.8737 29.4041 14.3137 28.9741 14.3137 28.4341C14.3137 27.9041 13.8737 27.4641 13.3437 27.4641C12.8137 27.4641 12.3737 27.9041 12.3737 28.4341C12.3737 28.9741 12.8137 29.4041 13.3437 29.4041Z"
        fillRule="evenodd"
        clipRule="evenodd"
    />
</svg>
        