
<svg
    viewBox={0 0 31.25390625 29.674595266567692}
    xmlns="http://www.w3.org/2000/svg"
>
    <path
        fill="inherit"
        d="M19.3637 0.6523L19.2937 0.8223C16.3237 -0.1977 13.4637 0.2823 11.4137 2.0823L11.1737 1.9923C9.4837 1.3923 7.8637 2.3023 7.1337 4.2723L1.2037 20.5823C0.7937 21.7023 1.1637 22.8423 2.0637 23.4923L0.0037 29.1723L1.4237 29.6723L3.4837 24.0123C4.5937 24.0923 5.5737 23.4523 5.9837 22.3423L9.9637 11.4623C10.8237 12.9923 12.2737 14.2823 14.1737 14.9123L14.1237 15.0723C13.9337 15.5823 14.1937 16.1423 14.7137 16.3323C15.2137 16.5223 15.7737 16.2523 15.9737 15.7523L21.2237 1.3323C21.3937 0.8123 21.1337 0.2523 20.6337 0.0623C20.1137 -0.1277 19.5337 0.1423 19.3637 0.6523ZM3.2837 22.1523C2.8837 21.9923 2.6237 21.5923 2.8137 21.0923L8.7337 4.8423C9.0737 3.8723 10.1137 3.3923 11.0737 3.7423L11.8637 4.0223C13.5037 2.1123 15.9837 1.5523 18.6937 2.4723L14.7837 13.2523C12.1537 12.2423 10.6237 10.3123 10.5537 7.8423L10.0237 7.6523C9.7937 7.5523 9.5137 7.6723 9.4337 7.9223L4.4437 21.6123C4.2337 22.1723 3.7237 22.3223 3.2837 22.1523ZM30.2837 4.7623C30.8137 4.7623 31.2537 4.3223 31.2537 3.7923C31.2537 3.2623 30.8137 2.8223 30.2837 2.8223C29.7537 2.8223 29.3137 3.2623 29.3137 3.7923C29.3137 4.3223 29.7537 4.7623 30.2837 4.7623ZM26.5937 5.2523C27.1237 5.2523 27.5637 4.8223 27.5637 4.2823C27.5637 3.7523 27.1237 3.3123 26.5937 3.3123C26.0537 3.3123 25.6237 3.7523 25.6237 4.2823C25.6237 4.8223 26.0537 5.2523 26.5937 5.2523ZM22.8637 5.7523C23.4037 5.7523 23.8437 5.3123 23.8437 4.7823C23.8437 4.2423 23.4037 3.8123 22.8637 3.8123C22.3237 3.8123 21.8937 4.2423 21.8937 4.7823C21.8937 5.3123 22.3237 5.7523 22.8637 5.7523ZM21.1637 10.3023C21.7137 10.3023 22.1337 9.8623 22.1337 9.3323C22.1337 8.8023 21.7137 8.3623 21.1637 8.3623C20.6337 8.3623 20.1937 8.8023 20.1937 9.3323C20.1937 9.8623 20.6337 10.3023 21.1637 10.3023ZM25.0237 11.6823C25.5537 11.6823 25.9937 11.2423 25.9937 10.7123C25.9937 10.1823 25.5537 9.7423 25.0237 9.7423C24.4837 9.7423 24.0537 10.1823 24.0537 10.7123C24.0537 11.2423 24.4837 11.6823 25.0237 11.6823ZM28.8437 13.0923C29.3837 13.0923 29.8137 12.6523 29.8137 12.1223C29.8137 11.5823 29.3837 11.1523 28.8437 11.1523C28.3137 11.1523 27.8737 11.5823 27.8737 12.1223C27.8737 12.6523 28.3137 13.0923 28.8437 13.0923ZM19.5737 14.8723C20.1137 14.8723 20.5537 14.4323 20.5537 13.8923C20.5537 13.3623 20.1137 12.9223 19.5737 12.9223C19.0437 12.9223 18.6037 13.3623 18.6037 13.8923C18.6037 14.4323 19.0437 14.8723 19.5737 14.8723ZM22.0937 17.6423C22.6237 17.6423 23.0637 17.2023 23.0637 16.6723C23.0637 16.1423 22.6237 15.7023 22.0937 15.7023C21.5637 15.7023 21.1237 16.1423 21.1237 16.6723C21.1237 17.2023 21.5637 17.6423 22.0937 17.6423ZM24.6237 20.4023C25.1537 20.4023 25.5937 19.9723 25.5937 19.4323C25.5937 18.9023 25.1537 18.4623 24.6237 18.4623C24.0737 18.4623 23.6537 18.9023 23.6537 19.4323C23.6537 19.9723 24.0737 20.4023 24.6237 20.4023Z"
        fillRule="evenodd"
        clipRule="evenodd"
    />
</svg>
        