
<svg
    viewBox="0 0 31.6640625 29.660923391567692"
    xmlns="http://www.w3.org/2000/svg"
>
    <path
        fill="inherit"
        d="M19.7737 0.646L14.5337 15.076C14.3437 15.576 14.6037 16.136 15.1237 16.326C15.6237 16.526 16.1837 16.246 16.3837 15.756L21.6337 1.336C21.8037 0.816 21.5437 0.256 21.0437 0.066C20.5237 -0.134 19.9437 0.146 19.7737 0.646ZM13.7637 14.536L18.8437 0.566C16.2037 -0.104 13.6837 0.426 11.8237 2.076L11.5637 1.976C9.8737 1.356 8.2837 2.246 7.5437 4.256L1.5737 20.696C1.2337 21.646 1.4737 22.536 2.2037 23.096L0.0037 29.146L1.4237 29.656L3.6237 23.606C4.5437 23.646 5.3037 23.136 5.6437 22.196L9.8537 10.576C10.5537 12.246 11.9037 13.636 13.7637 14.536ZM30.6937 4.766C31.2237 4.766 31.6637 4.326 31.6637 3.796C31.6637 3.256 31.2237 2.826 30.6937 2.826C30.1637 2.826 29.7237 3.256 29.7237 3.796C29.7237 4.326 30.1637 4.766 30.6937 4.766ZM27.0037 5.256C27.5337 5.256 27.9737 4.816 27.9737 4.286C27.9737 3.756 27.5337 3.316 27.0037 3.316C26.4737 3.316 26.0337 3.756 26.0337 4.286C26.0337 4.816 26.4737 5.256 27.0037 5.256ZM23.2737 5.746C23.8137 5.746 24.2537 5.316 24.2537 4.776C24.2537 4.246 23.8137 3.806 23.2737 3.806C22.7337 3.806 22.3037 4.246 22.3037 4.776C22.3037 5.316 22.7337 5.746 23.2737 5.746ZM21.5737 10.306C22.1237 10.306 22.5437 9.866 22.5437 9.326C22.5437 8.796 22.1237 8.356 21.5737 8.356C21.0437 8.356 20.6037 8.796 20.6037 9.326C20.6037 9.866 21.0437 10.306 21.5737 10.306ZM25.4337 11.686C25.9637 11.686 26.4037 11.246 26.4037 10.716C26.4037 10.176 25.9637 9.736 25.4337 9.736C24.8937 9.736 24.4637 10.176 24.4637 10.716C24.4637 11.246 24.8937 11.686 25.4337 11.686ZM29.2537 13.086C29.7937 13.086 30.2237 12.656 30.2237 12.116C30.2237 11.586 29.7937 11.146 29.2537 11.146C28.7237 11.146 28.2837 11.586 28.2837 12.116C28.2837 12.656 28.7237 13.086 29.2537 13.086ZM19.9837 14.866C20.5237 14.866 20.9637 14.426 20.9637 13.896C20.9637 13.366 20.5237 12.926 19.9837 12.926C19.4537 12.926 19.0137 13.366 19.0137 13.896C19.0137 14.426 19.4537 14.866 19.9837 14.866ZM22.5037 17.646C23.0337 17.646 23.4737 17.206 23.4737 16.676C23.4737 16.136 23.0337 15.706 22.5037 15.706C21.9737 15.706 21.5337 16.136 21.5337 16.676C21.5337 17.206 21.9737 17.646 22.5037 17.646ZM25.0337 20.406C25.5637 20.406 26.0037 19.966 26.0037 19.436C26.0037 18.906 25.5637 18.466 25.0337 18.466C24.4837 18.466 24.0637 18.906 24.0637 19.436C24.0637 19.966 24.4837 20.406 25.0337 20.406Z"
        fillRule="evenodd"
        clipRule="evenodd"
    />
</svg>
        