<svg viewBox="0 0 27.890625 27.890625" xmlns="http://www.w3.org/2000/svg"><path d="M13.9427 27.8864C21.6427 27.8864 27.8927 21.6464 27.8927 13.9464C27.8927 6.2464 21.6427 -0.0036 13.9427 -0.0036C6.2527 -0.0036 0.0027 6.2464 0.0027 13.9464C0.0027 21.6464 6.2527 27.8864 13.9427 27.8864ZM13.9427 25.5664C7.5227 25.5664 2.3227 20.3664 2.3227 13.9464C2.3227 7.5164 7.5227 2.3264 13.9427 2.3264C20.3727 2.3264 25.5627 7.5164 25.5627 13.9464C25.5627 20.3664 20.3727 25.5664 13.9427 25.5664ZM5.4827 17.6064C5.4827 18.0764 5.8527 18.4164 6.3527 18.4164H7.9827C9.2127 18.4164 9.9627 18.0564 10.8727 17.0264L12.4327 15.2064L13.9827 17.0264C14.8927 18.0564 15.6527 18.4164 16.8827 18.4164H18.1427V19.9564C18.1427 20.3664 18.4027 20.6264 18.8127 20.6264C19.0027 20.6264 19.1827 20.5664 19.3227 20.4564L22.0127 18.2264C22.3427 17.9464 22.3427 17.4864 22.0227 17.2264L19.3327 14.9964C19.2127 14.8564 19.0127 14.7964 18.8127 14.7964C18.4127 14.7964 18.1427 15.0664 18.1427 15.4764V16.8064H16.9427C16.1827 16.8064 15.7527 16.5664 15.1727 15.8964L13.5127 13.9464L15.1727 11.9864C15.7527 11.3164 16.1827 11.0864 16.9427 11.0864H18.1427V12.4564C18.1427 12.8664 18.4127 13.1364 18.8127 13.1364C19.0127 13.1364 19.2127 13.0664 19.3327 12.9364L22.0127 10.7364C22.3227 10.4764 22.3427 9.9964 22.0227 9.7164L19.3227 7.4764C19.1827 7.3664 19.0027 7.2964 18.8127 7.2964C18.4027 7.2964 18.1427 7.5564 18.1427 7.9664V9.4764H16.8827C15.6527 9.4764 14.8927 9.8264 13.9827 10.8664L12.4327 12.6864L10.8727 10.8664C9.9627 9.8264 9.2127 9.4764 7.9827 9.4764H6.3527C5.8527 9.4764 5.4827 9.8164 5.4827 10.2764C5.4827 10.7364 5.8627 11.0864 6.3527 11.0864H8.0127C8.6827 11.0864 9.1227 11.3164 9.6927 11.9864L11.3627 13.9464L9.6927 15.8964C9.1027 16.5864 8.6827 16.8064 8.0127 16.8064H6.3527C5.8627 16.8064 5.4827 17.1564 5.4827 17.6064Z" /></svg>