
<svg
    viewBox="0 0 32.23828125 25.169921875"
    xmlns="http://www.w3.org/2000/svg"
>
    <path
        fill="inherit"
        d="M4.2937 25.1655H27.9437C30.8137 25.1655 32.2337 23.7455 32.2337 20.9355V4.2355C32.2337 1.4255 30.8137 -0.0045 27.9437 -0.0045H4.2937C1.4337 -0.0045 0.0037 1.4055 0.0037 4.2355V20.9355C0.0037 23.7655 1.4337 25.1655 4.2937 25.1655ZM4.3237 22.9655C2.9537 22.9655 2.2037 22.2455 2.2037 20.8255V4.3455C2.2037 2.9255 2.9537 2.2055 4.3237 2.2055H10.4137V22.9655ZM27.9137 2.2055C29.2737 2.2055 30.0337 2.9255 30.0337 4.3455V20.8255C30.0337 22.2455 29.2737 22.9655 27.9137 22.9655H12.5637V2.2055ZM7.7937 7.2755C8.2037 7.2755 8.5737 6.9055 8.5737 6.5055C8.5737 6.0955 8.2037 5.7455 7.7937 5.7455H4.8537C4.4437 5.7455 4.0837 6.0955 4.0837 6.5055C4.0837 6.9055 4.4437 7.2755 4.8537 7.2755ZM7.7937 10.8155C8.2037 10.8155 8.5737 10.4455 8.5737 10.0355C8.5737 9.6255 8.2037 9.2855 7.7937 9.2855H4.8537C4.4437 9.2855 4.0837 9.6255 4.0837 10.0355C4.0837 10.4455 4.4437 10.8155 4.8537 10.8155ZM7.7937 14.3455C8.2037 14.3455 8.5737 13.9955 8.5737 13.5855C8.5737 13.1755 8.2037 12.8255 7.7937 12.8255H4.8537C4.4437 12.8255 4.0837 13.1755 4.0837 13.5855C4.0837 13.9955 4.4437 14.3455 4.8537 14.3455Z"
        fillRule="evenodd"
        clipRule="evenodd"
    />
</svg>
        