
<svg
    viewBox="0 0 32.23828125 25.169921875"
    xmlns="http://www.w3.org/2000/svg"
>
    <path
        fill="inherit"
        d="M4.2937 25.1655H27.9437C30.8137 25.1655 32.2337 23.7455 32.2337 20.9355V4.2355C32.2337 1.4255 30.8137 -0.0045 27.9437 -0.0045H4.2937C1.4337 -0.0045 0.0037 1.4055 0.0037 4.2355V20.9355C0.0037 23.7655 1.4337 25.1655 4.2937 25.1655ZM4.3237 22.9655C2.9537 22.9655 2.2037 22.2455 2.2037 20.8255V4.3455C2.2037 2.9255 2.9537 2.2055 4.3237 2.2055H19.7137V22.9655ZM27.9137 2.2055C29.2737 2.2055 30.0337 2.9255 30.0337 4.3455V20.8255C30.0337 22.2455 29.2737 22.9655 27.9137 22.9655H21.8637V2.2055ZM24.4837 7.2755H27.4137C27.8337 7.2755 28.1937 6.9055 28.1937 6.5055C28.1937 6.0955 27.8337 5.7455 27.4137 5.7455H24.4837C24.0737 5.7455 23.7037 6.0955 23.7037 6.5055C23.7037 6.9055 24.0737 7.2755 24.4837 7.2755ZM24.4837 10.8155H27.4137C27.8337 10.8155 28.1937 10.4455 28.1937 10.0355C28.1937 9.6255 27.8337 9.2855 27.4137 9.2855H24.4837C24.0737 9.2855 23.7037 9.6255 23.7037 10.0355C23.7037 10.4455 24.0737 10.8155 24.4837 10.8155ZM24.4837 14.3455H27.4137C27.8337 14.3455 28.1937 13.9955 28.1937 13.5855C28.1937 13.1755 27.8337 12.8255 27.4137 12.8255H24.4837C24.0737 12.8255 23.7037 13.1755 23.7037 13.5855C23.7037 13.9955 24.0737 14.3455 24.4837 14.3455Z"
        fillRule="evenodd"
        clipRule="evenodd"
    />
</svg>
        