
<svg
    viewBox="0 0 32.23828125 25.169921875"
    xmlns="http://www.w3.org/2000/svg"
>
    <path
        fill="inherit"
        d="M4.2937 25.1655H27.9437C30.8137 25.1655 32.2337 23.7455 32.2337 20.9355V4.2355C32.2337 1.4255 30.8137 -0.0045 27.9437 -0.0045H4.2937C1.4337 -0.0045 0.0037 1.4055 0.0037 4.2355V20.9355C0.0037 23.7655 1.4337 25.1655 4.2937 25.1655ZM4.3237 22.9655C2.9537 22.9655 2.2037 22.2455 2.2037 20.8255V4.3455C2.2037 2.9255 2.9537 2.2055 4.3237 2.2055H10.4137V22.9655ZM27.9137 2.2055C29.2737 2.2055 30.0337 2.9255 30.0337 4.3455V20.8255C30.0337 22.2455 29.2737 22.9655 27.9137 22.9655H12.5637V2.2055ZM5.0337 8.7355H7.6137C7.9537 8.7355 8.2337 8.4855 8.2337 8.1255V5.5655C8.2337 5.1855 7.9737 4.9355 7.6137 4.9355H5.0337C4.6437 4.9355 4.3937 5.1855 4.3937 5.5655V8.1255C4.3937 8.4855 4.6637 8.7355 5.0337 8.7355ZM5.0337 14.4755H7.6137C7.9537 14.4755 8.2337 14.2055 8.2337 13.8655V11.2755C8.2337 10.9255 7.9737 10.6455 7.6137 10.6455H5.0337C4.6437 10.6455 4.3937 10.9255 4.3937 11.2755V13.8655C4.3937 14.2055 4.6637 14.4755 5.0337 14.4755ZM5.0337 20.1955H7.6137C7.9537 20.1955 8.2337 19.9455 8.2337 19.5755V17.0255C8.2337 16.6555 7.9737 16.3955 7.6137 16.3955H5.0337C4.6437 16.3955 4.3937 16.6555 4.3937 17.0255V19.5755C4.3937 19.9455 4.6637 20.1955 5.0337 20.1955Z"
        fillRule="evenodd"
        clipRule="evenodd"
    />
</svg>
        