
<svg
    viewBox={0 0 27.890625 27.890625}
    xmlns="http://www.w3.org/2000/svg"
>
    <path
        fill="inherit"
        d="M13.9427 27.8864C21.6427 27.8864 27.8927 21.6464 27.8927 13.9464C27.8927 6.2464 21.6427 -0.0036 13.9427 -0.0036C6.2527 -0.0036 0.0027 6.2464 0.0027 13.9464C0.0027 21.6464 6.2527 27.8864 13.9427 27.8864ZM13.9427 25.5664C7.5227 25.5664 2.3227 20.3664 2.3227 13.9464C2.3227 7.5164 7.5227 2.3264 13.9427 2.3264C20.3727 2.3264 25.5627 7.5164 25.5627 13.9464C25.5627 20.3664 20.3727 25.5664 13.9427 25.5664ZM7.1127 14.0164C7.1127 15.0264 7.6727 15.5864 8.6927 15.5864H13.1827V20.5864H11.0027C10.5927 20.5864 10.2427 20.9464 10.2427 21.3564C10.2427 21.7664 10.5927 22.1064 11.0027 22.1064H16.8527C17.2627 22.1064 17.6227 21.7564 17.6227 21.3564C17.6227 20.9464 17.2627 20.5864 16.8527 20.5864H14.6927V15.5864H19.1727C20.1927 15.5864 20.7627 15.0264 20.7627 14.0164V9.3664C20.7627 8.3564 20.1927 7.7964 19.1727 7.7964H14.6927V6.5364C14.6927 6.1264 14.3427 5.7864 13.9327 5.7864C13.5227 5.7864 13.1827 6.1264 13.1827 6.5364V7.7964H8.6927C7.6727 7.7964 7.1127 8.3564 7.1127 9.3664ZM11.7027 12.5764L13.5127 10.0064C13.7427 9.6664 14.1327 9.6564 14.3827 10.0064L16.1727 12.5764C16.4727 13.0164 16.3227 13.3864 15.7927 13.3864H12.1127C11.5427 13.3864 11.4027 13.0164 11.7027 12.5764Z"
        fillRule="evenodd"
        clipRule="evenodd"
    />
</svg>
        