<svg viewBox="0 0 27.890625 27.890625" xmlns="http://www.w3.org/2000/svg"><path d="M13.9427 27.8927C21.6427 27.8927 27.8927 21.6427 27.8927 13.9427C27.8927 6.2627 21.6427 0.0027 13.9427 0.0027C6.2627 0.0027 0.0027 6.2627 0.0027 13.9427C0.0027 21.6427 6.2627 27.8927 13.9427 27.8927ZM18.9727 15.4727H14.7527V20.0327H16.6827C17.1127 20.0327 17.4727 20.3827 17.4727 20.8227C17.4727 21.2427 17.1127 21.6027 16.6827 21.6027H11.2427C10.8127 21.6027 10.4627 21.2427 10.4627 20.8227C10.4627 20.3827 10.8127 20.0327 11.2427 20.0327H13.1827V15.4727H9.7727C9.1427 15.4727 8.8427 15.2827 8.5027 14.9427L6.6127 13.1527C5.8627 12.4227 5.8227 11.7027 6.6327 10.9627L8.5027 9.1827C8.8427 8.8327 9.1427 8.6527 9.7727 8.6527H13.1827V7.0827C13.1827 6.6327 13.5327 6.2727 13.9627 6.2727C14.4127 6.2727 14.7527 6.6327 14.7527 7.0827V8.6527H18.9727C19.9427 8.6527 20.4827 9.1627 20.4827 10.0927V14.0227C20.4827 14.9527 19.9427 15.4727 18.9727 15.4727Z" /></svg>