
<svg
    viewBox={0 0 41.083984375 30.10546875}
    xmlns="http://www.w3.org/2000/svg"
>
    <path
        fill="inherit"
        d="M1.0937 25.1029H10.0037C9.9237 25.5229 9.8837 25.9329 9.8837 26.3329C9.8837 28.5329 11.1337 30.1029 13.7037 30.1029C16.6237 30.1029 19.0337 28.1929 20.6737 25.1029H39.9737C40.5737 25.1029 41.0837 24.5929 41.0837 23.9929C41.0837 23.3929 40.5737 22.9029 39.9737 22.9029H21.6437C22.4637 20.6129 22.9537 17.9129 23.0537 14.9729C23.9137 14.7829 24.8137 14.6829 25.7437 14.6829C26.2237 14.6829 26.4937 14.8929 26.4937 15.2429C26.4937 16.4329 25.8537 17.3629 25.8537 18.5529C25.8537 19.5929 26.6037 20.2229 27.6137 20.2229C30.3937 20.2229 33.7237 15.4729 34.8537 15.4729C35.8637 15.4729 34.6037 19.7429 38.0337 19.7429C38.6137 19.7429 39.3337 19.5929 39.8937 19.2229C40.2237 19.0029 40.4537 18.6729 40.4537 18.2529C40.4537 17.7329 40.1137 17.3129 39.5837 17.3129C39.1037 17.3129 38.7037 17.7029 38.2437 17.7029C36.7637 17.7029 38.1737 13.1629 35.4537 13.1629C33.0537 13.1629 29.3537 17.7829 28.3937 17.7829C28.2837 17.7829 28.1937 17.7229 28.1937 17.5529C28.1937 17.0629 28.7937 15.9429 28.7937 14.8429C28.7937 13.4829 27.6537 12.6029 25.8937 12.6029C24.9137 12.6029 23.9637 12.7029 23.0537 12.8829C22.7537 5.6629 19.3337 0.0029 14.1137 0.0029C10.5937 0.0029 7.8737 2.9929 7.8737 6.8129C7.8737 11.2629 10.7837 15.0829 14.3937 17.6129C12.7237 19.2529 11.4437 21.1229 10.6937 22.9029H1.0937C0.4937 22.9029 0.0037 23.3929 0.0037 23.9929C0.0037 24.5929 0.4937 25.1029 1.0937 25.1029ZM9.9637 6.8129C9.9637 4.1429 11.7737 2.0829 14.1137 2.0829C18.2137 2.0829 20.8637 7.1729 20.9837 13.4429C19.1037 14.0929 17.3737 15.0929 15.8837 16.2829C13.0337 14.3129 9.9637 11.0629 9.9637 6.8129ZM0.7137 19.7729C1.0637 20.1229 1.6037 20.1129 1.9537 19.7729L3.6737 18.0629L5.3837 19.7729C5.7437 20.1229 6.2737 20.1229 6.6337 19.7729C7.0037 19.4129 7.0037 18.8629 6.6337 18.5129L4.9237 16.8129L6.6337 15.1029C7.0037 14.7529 7.0037 14.2229 6.6337 13.8629C6.2737 13.4929 5.7437 13.5029 5.3837 13.8629L3.6737 15.5629L1.9537 13.8629C1.6037 13.4929 1.0637 13.4929 0.7137 13.8629C0.3437 14.2229 0.3437 14.7629 0.7137 15.1029L2.4237 16.8129L0.7137 18.5129C0.3437 18.8829 0.3437 19.4129 0.7137 19.7729ZM17.3637 19.3329C17.5537 19.4129 17.7237 19.4529 17.8837 19.4529C18.4337 19.4529 18.8437 19.0129 18.8437 18.5429C18.8437 18.2129 18.6637 17.8829 18.2637 17.6929C18.0837 17.5929 17.8837 17.5029 17.6937 17.3929C18.6737 16.6929 19.7537 16.0829 20.9337 15.6129C20.7837 18.3429 20.2337 20.8629 19.4137 22.9029H12.8837C13.5737 21.4929 14.6837 20.0029 16.1037 18.6729C16.5337 18.9129 16.9537 19.1229 17.3637 19.3329ZM12.0137 25.9329C12.0137 25.6729 12.0437 25.3929 12.1037 25.1029H18.2837C17.1037 26.9329 15.6137 28.0229 13.9437 28.0229C12.6337 28.0229 12.0137 27.1629 12.0137 25.9329Z"
        fillRule="evenodd"
        clipRule="evenodd"
    />
</svg>
        