
<svg
    viewBox={0 0 28.008597588914355 28.779296875}
    xmlns="http://www.w3.org/2000/svg"
>
    <path
        fill="inherit"
        d="M21.7359 27.6876C21.7359 27.0876 21.2459 26.5776 20.6359 26.5776H16.4859V17.4276H25.1059C26.9659 17.4276 28.0059 16.4076 28.0059 14.5776V6.9576C28.0059 5.1276 26.9659 4.1176 25.1059 4.1176H16.4859V1.1076C16.4859 0.5076 15.9759 -0.0024 15.3759 -0.0024C14.7759 -0.0024 14.2859 0.5076 14.2859 1.1076V4.1176H7.2559C6.0359 4.1176 5.4659 4.4876 4.7659 5.1676L1.1259 8.6276C-0.4041 10.1076 -0.3441 11.4876 1.1159 12.8876L4.7659 16.3776C5.4659 17.0476 6.0359 17.4276 7.2659 17.4276H14.2859V26.5776H10.0959C9.4959 26.5776 9.0059 27.0876 9.0059 27.6876C9.0059 28.2876 9.4959 28.7776 10.0959 28.7776H20.6359C21.2459 28.7776 21.7359 28.2876 21.7359 27.6876Z"
        fillRule="evenodd"
        clipRule="evenodd"
    />
</svg>
        