
<svg
    viewBox="0 0 27.890625 27.890625"
    xmlns="http://www.w3.org/2000/svg"
>
    <path
        fill="inherit"
        d="M13.9427 27.8864C21.6427 27.8864 27.8927 21.6464 27.8927 13.9464C27.8927 6.2464 21.6427 -0.0036 13.9427 -0.0036C6.2527 -0.0036 0.0027 6.2464 0.0027 13.9464C0.0027 21.6464 6.2527 27.8864 13.9427 27.8864ZM13.9427 25.5664C7.5227 25.5664 2.3227 20.3664 2.3227 13.9464C2.3227 7.5164 7.5227 2.3264 13.9427 2.3264C20.3727 2.3264 25.5627 7.5164 25.5627 13.9464C25.5627 20.3664 20.3727 25.5664 13.9427 25.5664ZM9.0327 15.4264H13.1627V19.8564H11.2927C10.8727 19.8564 10.5227 20.1764 10.5227 20.6064C10.5227 21.0264 10.8727 21.3664 11.2927 21.3664H16.5527C16.9827 21.3664 17.3227 21.0264 17.3227 20.6064C17.3227 20.1764 16.9827 19.8564 16.5527 19.8564H14.6827V15.4264H17.9927C18.5927 15.4264 18.8827 15.2264 19.2227 14.9064L21.0527 13.1664C21.7827 12.4664 21.8027 11.7764 21.0427 11.0464L19.2227 9.3064C18.8827 8.9864 18.5927 8.8064 17.9927 8.8064H14.6827V7.2764C14.6827 6.8464 14.3427 6.5064 13.9327 6.5064C13.4927 6.5064 13.1627 6.8464 13.1627 7.2764V8.8064H9.0327C8.1227 8.8064 7.6027 9.2964 7.6027 10.1964V13.9964C7.6027 14.9164 8.1227 15.4264 9.0327 15.4264Z"
        fillRule="evenodd"
        clipRule="evenodd"
    />
</svg>
        