
<svg
    viewBox={0 0 26.70641088944415 30.802734375}
    xmlns="http://www.w3.org/2000/svg"
>
    <path
        fill="inherit"
        d="M5.192 23.9766H12.262V28.5966H8.622C8.022 28.5966 7.532 29.1066 7.532 29.7066C7.532 30.3066 8.022 30.8066 8.622 30.8066H18.072C18.672 30.8066 19.162 30.3066 19.162 29.7066C19.162 29.1066 18.672 28.5966 18.072 28.5966H14.462V23.9766H17.912C19.142 23.9766 19.852 23.2966 19.852 22.0566V16.6066C19.852 15.3666 19.142 14.6866 17.912 14.6866H14.462V12.5366H21.502C22.282 12.5366 22.832 12.3166 23.332 11.8266L25.962 9.3266C26.962 8.3666 26.962 7.4666 25.932 6.4566L23.332 3.9366C22.842 3.4566 22.302 3.2566 21.522 3.2566H14.462V1.1066C14.462 0.5066 13.962 -0.0034 13.352 -0.0034C12.752 -0.0034 12.262 0.5066 12.262 1.1066V3.2566H8.792C7.572 3.2566 6.852 3.9266 6.852 5.1766V10.6066C6.852 11.8566 7.572 12.5366 8.792 12.5366H12.262V14.6866H5.182C4.412 14.6866 3.872 14.9066 3.362 15.3766L0.782 17.8966C-0.248 18.8966 -0.258 19.8066 0.752 20.7766L3.362 23.2666C3.882 23.7666 4.432 23.9766 5.192 23.9766ZM9.252 10.5866C9.012 10.5866 8.802 10.3766 8.802 10.1266V5.6566C8.802 5.4166 9.012 5.2066 9.252 5.2066H21.472C21.692 5.2066 21.932 5.2766 22.062 5.3966L24.262 7.5566C24.472 7.7366 24.482 8.0366 24.262 8.2466L22.042 10.3666C21.892 10.4966 21.672 10.5866 21.462 10.5866ZM5.232 22.0266C5.032 22.0266 4.822 21.9466 4.672 21.8066L2.432 19.6966C2.222 19.4966 2.242 19.1766 2.432 19.0066L4.642 16.8466C4.782 16.7166 5.012 16.6366 5.222 16.6366H17.442C17.692 16.6366 17.892 16.8466 17.892 17.0866V21.5766C17.892 21.8166 17.692 22.0266 17.442 22.0266Z"
        fillRule="evenodd"
        clipRule="evenodd"
    />
</svg>
        