
<svg
    viewBox="0 0 24.6640625 28.779296875"
    xmlns="http://www.w3.org/2000/svg"
>
    <path
        fill="inherit"
        d="M5.9637 27.6876C5.9637 28.2876 6.4637 28.7776 7.0637 28.7776H17.5937C18.2137 28.7776 18.7037 28.2876 18.7037 27.6876C18.7037 27.0876 18.2137 26.5776 17.5937 26.5776H13.4237V17.4276H21.7637C23.6237 17.4276 24.6637 16.4076 24.6637 14.5776V6.1376C24.6637 4.3076 23.6237 3.2976 21.7637 3.2976H13.4237V1.1076C13.4237 0.5076 12.9337 -0.0024 12.3337 -0.0024C11.7337 -0.0024 11.2237 0.5076 11.2237 1.1076V3.2976H2.8937C1.0437 3.2976 0.0037 4.3076 0.0037 6.1376V14.5776C0.0037 16.4076 1.0437 17.4276 2.8937 17.4276H11.2237V26.5776H7.0637C6.4637 26.5776 5.9637 27.0876 5.9637 27.6876ZM2.9537 5.4976H21.7137C22.1337 5.4976 22.4037 5.7676 22.4037 6.2076V14.5076C22.4037 14.9476 22.1337 15.2276 21.7137 15.2276H2.9537C2.5337 15.2276 2.2537 14.9476 2.2537 14.5076V6.2076C2.2537 5.7676 2.5337 5.4976 2.9537 5.4976ZM9.1437 13.3276H15.5437C16.5037 13.3276 16.7737 12.6476 16.2437 11.8976L13.1237 7.4376C12.6737 6.8076 12.0037 6.8076 11.5637 7.4376L8.4537 11.8776C7.8937 12.6576 8.1437 13.3276 9.1437 13.3276Z"
        fillRule="evenodd"
        clipRule="evenodd"
    />
</svg>
        