
<svg
    viewBox={0 0 27.890625 27.890625}
    xmlns="http://www.w3.org/2000/svg"
>
    <path
        fill="inherit"
        d="M13.9427 27.8864C21.6427 27.8864 27.8927 21.6464 27.8927 13.9464C27.8927 6.2464 21.6427 -0.0036 13.9427 -0.0036C6.2527 -0.0036 0.0027 6.2464 0.0027 13.9464C0.0027 21.6464 6.2527 27.8864 13.9427 27.8864ZM13.9427 25.5664C7.5227 25.5664 2.3227 20.3664 2.3227 13.9464C2.3227 7.5164 7.5227 2.3264 13.9427 2.3264C20.3727 2.3264 25.5627 7.5164 25.5627 13.9464C25.5627 20.3664 20.3727 25.5664 13.9427 25.5664ZM11.5927 12.1664H13.1627V13.2864H9.7527C9.3527 13.2864 9.0827 13.3964 8.8227 13.6264L7.4927 14.9164C6.9727 15.4064 6.9727 15.8864 7.4927 16.3764L8.8227 17.6464C9.0827 17.8964 9.3627 18.0064 9.7527 18.0064H13.1627V20.2364H11.4727C11.0627 20.2364 10.7327 20.5664 10.7327 20.9864C10.7327 21.4064 11.0627 21.7564 11.4727 21.7564H16.3527C16.7727 21.7564 17.1127 21.4064 17.1127 20.9864C17.1127 20.5664 16.7727 20.2364 16.3527 20.2364H14.6827V18.0064H16.2427C16.8527 18.0064 17.2227 17.6464 17.2227 17.0264V14.2564C17.2227 13.6264 16.8527 13.2864 16.2427 13.2864H14.6827V12.1664H18.0927C18.4727 12.1664 18.7627 12.0564 19.0127 11.8164L20.3527 10.5364C20.8627 10.0664 20.8627 9.5864 20.3427 9.0764L19.0127 7.7964C18.7627 7.5564 18.4827 7.4464 18.0927 7.4464H14.6827V6.3164C14.6827 5.9064 14.3427 5.5464 13.9227 5.5464C13.4927 5.5464 13.1627 5.9064 13.1627 6.3164V7.4464H11.5927C10.9827 7.4464 10.6127 7.7964 10.6127 8.4364V11.1964C10.6127 11.8164 10.9827 12.1664 11.5927 12.1664Z"
        fillRule="evenodd"
        clipRule="evenodd"
    />
</svg>
        