
<svg
    viewBox={0 0 28.008597588914355 28.779296875}
    xmlns="http://www.w3.org/2000/svg"
>
    <path
        fill="inherit"
        d="M21.7359 27.6876C21.7359 27.0876 21.2459 26.5776 20.6359 26.5776H16.4859V17.4176L25.1059 17.4276C26.9659 17.4276 28.0059 16.4076 28.0059 14.5776V6.9576C28.0059 5.1276 26.9659 4.1176 25.1059 4.1176H16.4859V1.1076C16.4859 0.5076 15.9759 -0.0024 15.3759 -0.0024C14.7759 -0.0024 14.2859 0.5076 14.2859 1.1076V4.1176H7.2559C6.0359 4.1176 5.4659 4.4876 4.7659 5.1676L1.1259 8.6276C-0.4041 10.1076 -0.3441 11.4876 1.1159 12.8876L4.7659 16.3776C5.4659 17.0476 6.0359 17.4176 7.2659 17.4176H14.2859V26.5776H10.0959C9.4959 26.5776 9.0059 27.0876 9.0059 27.6876C9.0059 28.2876 9.4959 28.7776 10.0959 28.7776H20.6359C21.2459 28.7776 21.7359 28.2876 21.7359 27.6876ZM25.0559 15.2276H7.3359C6.8059 15.2276 6.6259 15.1076 6.3659 14.8776L2.6059 11.2976C2.2359 10.9676 2.2359 10.5576 2.5959 10.2276L6.3559 6.6676C6.6159 6.4376 6.8059 6.3176 7.3259 6.3176H25.0559C25.4959 6.3176 25.7559 6.5876 25.7559 7.0276V14.5076C25.7559 14.9476 25.4959 15.2276 25.0559 15.2276Z"
        fillRule="evenodd"
        clipRule="evenodd"
    />
</svg>
        