
<svg
    viewBox="0 0 27.890625 27.890625"
    xmlns="http://www.w3.org/2000/svg"
>
    <path
        fill="inherit"
        d="M13.9427 27.8927C21.6427 27.8927 27.8927 21.6427 27.8927 13.9427C27.8927 6.2627 21.6427 0.0027 13.9427 0.0027C6.2627 0.0027 0.0027 6.2627 0.0027 13.9427C0.0027 21.6427 6.2627 27.8927 13.9427 27.8927ZM8.8827 15.4727C7.9327 15.4727 7.3927 14.9527 7.3927 14.0227V10.0927C7.3927 9.1627 7.9327 8.6527 8.8827 8.6527H13.1227V7.0827C13.1227 6.6327 13.4627 6.2727 13.9227 6.2727C14.3427 6.2727 14.6927 6.6327 14.6927 7.0827V8.6527H18.1027C18.7327 8.6527 19.0327 8.8327 19.3727 9.1827L21.2427 10.9627C22.0427 11.7027 22.0127 12.4227 21.2627 13.1527L19.3727 14.9427C19.0327 15.2827 18.7327 15.4727 18.1027 15.4727H14.6927V20.0327H16.6227C17.0627 20.0327 17.4227 20.3827 17.4227 20.8227C17.4227 21.2427 17.0627 21.6027 16.6227 21.6027H11.1927C10.7627 21.6027 10.4027 21.2427 10.4027 20.8227C10.4027 20.3827 10.7627 20.0327 11.1927 20.0327H13.1227V15.4727Z"
        fillRule="evenodd"
        clipRule="evenodd"
    />
</svg>
        