
<svg
    viewBox="0 0 27.890625 27.890625"
    xmlns="http://www.w3.org/2000/svg"
>
    <path
        fill="inherit"
        d="M13.9427 27.8864C21.6427 27.8864 27.8927 21.6464 27.8927 13.9464C27.8927 6.2464 21.6427 -0.0036 13.9427 -0.0036C6.2527 -0.0036 0.0027 6.2464 0.0027 13.9464C0.0027 21.6464 6.2527 27.8864 13.9427 27.8864ZM13.9427 25.5664C7.5227 25.5664 2.3227 20.3664 2.3227 13.9464C2.3227 7.5164 7.5227 2.3264 13.9427 2.3264C20.3727 2.3264 25.5627 7.5164 25.5627 13.9464C25.5627 20.3664 20.3727 25.5664 13.9427 25.5664ZM18.8227 15.4264C19.7427 15.4264 20.2627 14.9164 20.2627 13.9964V10.1964C20.2627 9.2964 19.7427 8.8064 18.8227 8.8064H14.7127V7.2764C14.7127 6.8464 14.3727 6.5064 13.9327 6.5064C13.5227 6.5064 13.1927 6.8464 13.1927 7.2764V8.8064H9.8827C9.2727 8.8064 8.9827 8.9864 8.6427 9.3064L6.8227 11.0464C6.0527 11.7764 6.0827 12.4664 6.8127 13.1664L8.6427 14.9064C8.9827 15.2264 9.2727 15.4264 9.8827 15.4264H13.1927V19.8564H11.3027C10.8827 19.8564 10.5427 20.1764 10.5427 20.6064C10.5427 21.0264 10.8827 21.3664 11.3027 21.3664H16.5727C16.9927 21.3664 17.3527 21.0264 17.3527 20.6064C17.3527 20.1764 16.9927 19.8564 16.5727 19.8564H14.7127V15.4264Z"
        fillRule="evenodd"
        clipRule="evenodd"
    />
</svg>
        