
<svg
    viewBox={0 0 22.99609375 29.3125}
    xmlns="http://www.w3.org/2000/svg"
>
    <path
        fill="inherit"
        d="M4.2337 29.3137H18.7537C21.5837 29.3137 22.9937 27.8737 22.9937 25.0337V9.7037C22.9937 8.3537 22.7537 7.6837 21.9837 6.9037L16.1737 1.1037C15.3837 0.3037 14.6037 0.0037 13.3737 0.0037H4.2337C1.4237 0.0037 0.0037 1.4537 0.0037 4.2937V25.0337C0.0037 27.8937 1.4037 29.3137 4.2337 29.3137ZM4.9737 16.2937V14.5837C4.9737 13.3937 5.7037 12.6737 6.8637 12.6737H12.8637V24.8037H10.2437V17.1137C10.2437 16.6137 9.9437 16.2937 9.4237 16.2937ZM14.3837 24.8037V12.6737H16.1437C17.3037 12.6737 18.0437 13.3937 18.0437 14.5837V22.9037C18.0437 24.0737 17.3037 24.8037 16.1437 24.8037ZM4.9737 22.9037V17.8137H8.5037C8.6437 17.8137 8.7237 17.8837 8.7237 18.0237V24.8037H6.8637C5.7037 24.8037 4.9737 24.0737 4.9737 22.9037Z"
        fillRule="evenodd"
        clipRule="evenodd"
    />
</svg>
        