
<svg
    viewBox="0 0 34.20703125 30.81640625"
    xmlns="http://www.w3.org/2000/svg"
>
    <path
        fill="inherit"
        d="M26.5237 30.8193C27.0137 30.8193 27.4137 30.4193 27.4137 29.9293V27.5193C31.2437 27.2593 34.2037 25.0893 34.2037 21.1193C34.2037 17.3893 31.6937 15.8893 28.3937 14.5593L27.4137 14.1593V5.5793C29.4937 5.8693 30.7737 7.2293 31.2537 9.4793C31.4437 10.1693 31.8737 10.5993 32.5837 10.5993C33.3437 10.5993 33.8237 10.0993 33.8237 9.3493C33.8237 9.1693 33.8137 8.8593 33.7537 8.5293C33.0837 5.2793 30.5437 3.4893 27.4137 3.2293V0.8893C27.4137 0.3993 27.0137 -0.0007 26.5237 -0.0007C26.0337 -0.0007 25.6337 0.3993 25.6337 0.8893V3.2293C22.1237 3.5593 19.2937 5.7593 19.2937 9.4193C19.2937 12.8393 21.6837 14.6193 24.9337 15.9093L25.6337 16.1993V25.1393C23.3637 24.8693 21.8937 23.5693 21.4737 21.1093C21.3237 20.4093 20.8637 19.9593 20.1437 19.9593C19.4537 19.9593 18.8837 20.4093 18.8837 21.2193C18.8837 21.3793 18.9037 21.5493 18.9237 21.6993C19.5337 25.3793 22.2737 27.2093 25.6337 27.5093V29.9293C25.6337 30.4193 26.0337 30.8193 26.5237 30.8193ZM7.9337 28.4493C12.5337 28.4493 15.8437 25.8693 15.8437 21.2293C15.8437 17.0993 13.1837 15.3693 9.4637 14.2193L7.3837 13.5793C4.9737 12.8393 3.0537 11.5893 3.0537 9.0093C3.0537 6.2393 5.2337 4.6993 7.7237 4.6993C10.0937 4.6993 12.2137 5.9493 12.7737 8.6393C12.9337 9.3393 13.3537 9.6893 14.0537 9.6893C14.7337 9.6893 15.2837 9.2593 15.2837 8.4593C15.2837 8.2593 15.2337 7.9693 15.1737 7.6993C14.3737 4.2093 11.2837 2.2793 7.7637 2.2793C3.5537 2.2793 0.3537 5.0193 0.3537 9.1593C0.3537 13.0393 2.8337 14.9993 6.5537 16.1493L8.6237 16.7893C11.1937 17.5693 13.1437 18.7993 13.1437 21.5093C13.1437 24.3093 10.8937 26.0193 8.0437 26.0193C5.1937 26.0193 3.0337 24.5693 2.4737 21.8193C2.2837 21.0593 1.8637 20.7493 1.2137 20.7493C0.4937 20.7493 0.0037 21.2693 0.0037 22.0093C0.0037 22.4893 0.0637 22.8293 0.1637 23.1893C1.0537 26.5093 4.1937 28.4493 7.9337 28.4493ZM21.9137 9.2693C21.9137 7.1493 23.5837 5.8793 25.6337 5.5893V13.4493C23.7337 12.6593 21.9137 11.4693 21.9137 9.2693ZM31.5837 21.3593C31.5837 23.7093 29.8737 24.9693 27.4137 25.1693V16.9093C29.6837 17.7993 31.5837 18.8993 31.5837 21.3593Z"
        fillRule="evenodd"
        clipRule="evenodd"
    />
</svg>
        