
<svg
    viewBox={0 0 30.544813437289534 27.890625}
    xmlns="http://www.w3.org/2000/svg"
>
    <path
        fill="inherit"
        d="M0.9769 11.3064C-0.0131 11.3064 -0.2531 11.9764 0.2769 12.7464L3.3369 17.0864C3.7869 17.7164 4.4469 17.7064 4.8869 17.0864L7.9269 12.7264C8.4669 11.9764 8.2069 11.3064 7.2469 11.3064H5.2769C6.4669 6.1564 11.0769 2.3264 16.5969 2.3264C23.0269 2.3264 28.2169 7.5164 28.2169 13.9464C28.2169 20.3664 23.0269 25.5664 16.5969 25.5664C12.7169 25.5664 9.2569 23.6564 7.1969 20.7564C6.7669 20.1964 6.1269 20.0164 5.5569 20.3564C5.0069 20.6964 4.8369 21.4664 5.3069 22.0664C7.8369 25.6064 11.9769 27.8864 16.5969 27.8864C24.2969 27.8864 30.5469 21.6464 30.5469 13.9464C30.5469 6.2464 24.2969 -0.0036 16.5969 -0.0036C9.8069 -0.0036 4.1269 4.8664 2.8969 11.3064ZM20.4869 20.5264C20.6969 20.5264 20.8669 20.3464 20.8669 20.1364V19.0864C22.5869 18.9664 23.7669 17.9464 23.7669 16.2864C23.7669 14.6564 22.7469 13.9964 21.3969 13.3664L20.8669 13.1264V9.7464C21.6569 9.8964 22.0169 10.5164 22.1669 11.2764C22.2369 11.6064 22.4469 11.8264 22.8869 11.8264C23.2969 11.8264 23.5769 11.5964 23.5769 11.1664C23.5769 10.9964 23.5569 10.8864 23.5269 10.7564C23.1869 9.2664 22.1469 8.5964 20.8669 8.4864V7.4464C20.8669 7.2464 20.6969 7.0664 20.4869 7.0664C20.2769 7.0664 20.0969 7.2464 20.0969 7.4464V8.4864C18.5669 8.6264 17.3469 9.5564 17.3469 11.2064C17.3469 12.7464 18.2569 13.4664 19.6669 14.1364L20.0969 14.3464V17.8264C19.2069 17.7064 18.7969 17.1464 18.6669 16.2264C18.5969 15.9364 18.3669 15.6664 17.9569 15.6664C17.5469 15.6664 17.2469 15.9364 17.2469 16.3664C17.2469 16.4564 17.2569 16.6064 17.2969 16.7464C17.6269 18.2964 18.7569 18.9764 20.0969 19.0864V20.1364C20.0969 20.3464 20.2769 20.5264 20.4869 20.5264ZM12.8369 19.4964C15.1269 19.4964 16.1869 18.1064 16.1869 16.3064C16.1869 14.4364 15.0669 13.7364 13.6069 13.1764L12.8169 12.8764C11.8369 12.5064 11.1669 12.0764 11.1669 11.0164C11.1669 10.0864 11.7369 9.3764 12.7669 9.3764C13.6869 9.3764 14.3069 9.9164 14.5469 10.9064C14.6569 11.2964 14.9169 11.4564 15.2869 11.4564C15.6869 11.4564 15.9469 11.1664 15.9469 10.7764C15.9469 10.6664 15.9169 10.5164 15.8869 10.3864C15.5469 8.9564 14.3569 8.0664 12.7869 8.0664C10.7469 8.0664 9.6369 9.4464 9.6369 11.1164C9.6369 12.7664 10.6069 13.6764 12.1669 14.2364L12.9469 14.5164C13.9469 14.8764 14.6569 15.3964 14.6569 16.4564C14.6569 17.4164 14.0269 18.1864 12.8669 18.1864C11.8369 18.1864 11.1669 17.6264 10.9369 16.5964C10.8269 16.2164 10.5969 16.0364 10.2169 16.0364C9.8169 16.0364 9.5269 16.3364 9.5269 16.7664C9.5269 16.9364 9.5569 17.1464 9.6169 17.2764C10.0669 18.7164 11.2269 19.4964 12.8369 19.4964ZM18.8269 11.1264C18.8269 10.3064 19.3469 9.8464 20.0969 9.7364V12.7564C19.3769 12.3564 18.8269 11.8764 18.8269 11.1264ZM22.2769 16.4164C22.2769 17.2364 21.7669 17.7364 20.8669 17.8464V14.7064C21.6469 15.1064 22.2769 15.5264 22.2769 16.4164Z"
        fillRule="evenodd"
        clipRule="evenodd"
    />
</svg>
        