
<svg
    viewBox="0 0 25.169921875 25.169921875"
    xmlns="http://www.w3.org/2000/svg"
>
    <path
        fill="inherit"
        d="M4.2937 25.1692H20.8737C23.7437 25.1692 25.1737 23.7592 25.1737 20.9492V4.2392C25.1737 1.4192 23.7437 -0.0008 20.8737 -0.0008H4.2937C1.4337 -0.0008 0.0037 1.4192 0.0037 4.2392V20.9492C0.0037 23.7592 1.4337 25.1692 4.2937 25.1692ZM4.3237 22.9692C2.9537 22.9692 2.2037 22.2392 2.2037 20.8192V4.3592C2.2037 2.9392 2.9537 2.1992 4.3237 2.1992H20.8537C22.2037 2.1992 22.9737 2.9392 22.9737 4.3592V20.8192C22.9737 22.2392 22.2037 22.9692 20.8537 22.9692ZM16.4737 19.1592C16.6937 19.1592 16.8737 18.9792 16.8737 18.7692V17.7192C18.5837 17.5992 19.7537 16.5792 19.7537 14.9192C19.7537 13.2892 18.7437 12.6292 17.3937 11.9992L16.8737 11.7592V8.3792C17.6537 8.5292 18.0037 9.1492 18.1537 9.9092C18.2237 10.2392 18.4437 10.4592 18.8837 10.4592C19.2937 10.4592 19.5637 10.2292 19.5637 9.7992C19.5637 9.6292 19.5537 9.5192 19.5237 9.3892C19.1937 7.8992 18.1437 7.2292 16.8737 7.1192V6.0792C16.8737 5.8792 16.6937 5.6992 16.4737 5.6992C16.2737 5.6992 16.0937 5.8792 16.0937 6.0792V7.1192C14.5637 7.2592 13.3437 8.1892 13.3437 9.8392C13.3437 11.3792 14.2637 12.0992 15.6537 12.7692L16.0937 12.9792V16.4592C15.2137 16.3392 14.7937 15.7792 14.6537 14.8592C14.5837 14.5692 14.3537 14.2992 13.9437 14.2992C13.5337 14.2992 13.2337 14.5692 13.2337 14.9992C13.2337 15.0892 13.2437 15.2392 13.2937 15.3792C13.6137 16.9292 14.7537 17.6092 16.0937 17.7192V18.7692C16.0937 18.9792 16.2737 19.1592 16.4737 19.1592ZM8.8337 18.1292C11.1137 18.1292 12.1837 16.7392 12.1837 14.9392C12.1837 13.0692 11.0637 12.3692 9.5937 11.8092L8.8137 11.5092C7.8337 11.1392 7.1637 10.7092 7.1637 9.6492C7.1637 8.7192 7.7237 8.0092 8.7637 8.0092C9.6837 8.0092 10.3037 8.5492 10.5537 9.5392C10.6537 9.9292 10.9137 10.0892 11.2837 10.0892C11.6737 10.0892 11.9337 9.7992 11.9337 9.4092C11.9337 9.2992 11.9237 9.1492 11.8837 9.0192C11.5437 7.5892 10.3537 6.6992 8.7737 6.6992C6.7437 6.6992 5.6337 8.0792 5.6337 9.7492C5.6337 11.3992 6.6037 12.3092 8.1637 12.8692L8.9437 13.1492C9.9437 13.5092 10.6537 14.0292 10.6537 15.0892C10.6537 16.0492 10.0237 16.8192 8.8637 16.8192C7.8337 16.8192 7.1637 16.2592 6.9337 15.2292C6.8237 14.8492 6.5937 14.6692 6.2037 14.6692C5.8137 14.6692 5.5237 14.9692 5.5237 15.3992C5.5237 15.5692 5.5537 15.7792 5.6037 15.9092C6.0537 17.3492 7.2237 18.1292 8.8337 18.1292ZM14.8237 9.7592C14.8237 8.9392 15.3537 8.4792 16.0937 8.3692V11.3892C15.3637 10.9892 14.8237 10.5092 14.8237 9.7592ZM18.2637 15.0492C18.2637 15.8692 17.7637 16.3692 16.8737 16.4792V13.3392C17.6337 13.7392 18.2637 14.1592 18.2637 15.0492Z"
        fillRule="evenodd"
        clipRule="evenodd"
    />
</svg>
        