
<svg
    viewBox={0 0 32.935546875 27.33018496744969}
    xmlns="http://www.w3.org/2000/svg"
>
    <path
        fill="inherit"
        d="M16.4627 5.864C18.9327 5.864 21.2027 6.724 23.0227 8.134C23.2927 8.354 23.6527 8.324 23.9127 8.064L27.0827 4.894C27.4027 4.584 27.3827 4.124 27.0527 3.854C24.2027 1.454 20.4927 0.004 16.4627 0.004C12.4427 0.004 8.7327 1.454 5.8827 3.854C5.5527 4.124 5.5327 4.584 5.8527 4.894L9.0227 8.064C9.2827 8.324 9.6527 8.354 9.9527 8.124C11.7627 6.724 14.0127 5.864 16.4627 5.864ZM0.0027 16.464C0.0027 20.494 1.4527 24.204 3.8727 27.074C4.1427 27.414 4.6027 27.414 4.9127 27.094L8.1627 23.844C8.3627 23.624 8.3927 23.324 8.2027 23.094C6.7127 21.194 5.8627 18.924 5.8627 16.464C5.8627 14.014 6.7027 11.744 8.1227 9.944C8.3427 9.654 8.3427 9.284 8.0827 9.024L4.9127 5.854C4.5927 5.534 4.1427 5.534 3.8727 5.864C1.4527 8.734 0.0027 12.444 0.0027 16.464ZM32.9327 16.464C32.9327 12.444 31.4827 8.734 29.0627 5.864C28.7927 5.534 28.3327 5.534 28.0227 5.854L24.8527 9.024C24.5927 9.284 24.5827 9.654 24.8127 9.944C26.2227 11.744 27.0727 14.014 27.0727 16.464C27.0727 18.924 26.2227 21.194 24.7327 23.094C24.5427 23.324 24.5527 23.624 24.7627 23.844L28.0127 27.094C28.3327 27.414 28.7827 27.414 29.0627 27.074C31.4827 24.204 32.9327 20.494 32.9327 16.464ZM20.3427 23.224C20.5527 23.224 20.7227 23.054 20.7227 22.844V21.784C22.4327 21.654 23.6127 20.644 23.6127 18.974C23.6127 17.364 22.6027 16.694 21.2427 16.064L20.7227 15.814V12.444C21.5227 12.594 21.8627 13.204 22.0127 13.984C22.0927 14.304 22.3027 14.534 22.7327 14.534C23.1427 14.534 23.4227 14.284 23.4227 13.864C23.4227 13.704 23.4027 13.594 23.3827 13.454C23.0527 11.964 22.0027 11.304 20.7227 11.194V10.144C20.7227 9.944 20.5527 9.764 20.3427 9.764C20.1227 9.764 19.9627 9.944 19.9627 10.144V11.194C18.4127 11.324 17.2127 12.254 17.2127 13.914C17.2127 15.434 18.1127 16.164 19.5127 16.834L19.9627 17.044V20.524C19.0727 20.394 18.6627 19.854 18.5127 18.934C18.4527 18.634 18.2127 18.374 17.8027 18.374C17.3927 18.374 17.1027 18.634 17.1027 19.054C17.1027 19.164 17.1127 19.304 17.1427 19.454C17.4727 20.984 18.6227 21.674 19.9627 21.784V22.844C19.9627 23.054 20.1227 23.224 20.3427 23.224ZM12.6827 22.204C14.9727 22.204 16.0527 20.794 16.0527 19.004C16.0527 17.144 14.9127 16.434 13.4527 15.884L12.6727 15.584C11.6927 15.214 11.0227 14.764 11.0227 13.714C11.0227 12.784 11.5827 12.084 12.6227 12.084C13.5327 12.084 14.1627 12.604 14.4127 13.604C14.5027 13.984 14.7627 14.154 15.1327 14.154C15.5327 14.154 15.7927 13.874 15.7927 13.464C15.7927 13.374 15.7727 13.224 15.7327 13.084C15.4127 11.644 14.2027 10.764 12.6427 10.764C10.5927 10.764 9.4927 12.154 9.4927 13.824C9.4927 15.464 10.4727 16.374 12.0127 16.944L12.7927 17.214C13.7927 17.564 14.5027 18.104 14.5027 19.154C14.5027 20.114 13.8727 20.874 12.7327 20.874C11.6927 20.874 11.0227 20.314 10.7827 19.294C10.6927 18.904 10.4427 18.744 10.0727 18.744C9.6627 18.744 9.3827 19.044 9.3827 19.464C9.3827 19.634 9.4227 19.834 9.4627 19.984C9.9127 21.414 11.0727 22.204 12.6827 22.204ZM18.6727 13.824C18.6727 13.004 19.2127 12.554 19.9627 12.444V15.454C19.2227 15.054 18.6727 14.574 18.6727 13.824ZM22.1327 19.114C22.1327 19.934 21.6127 20.444 20.7227 20.534V17.414C21.5027 17.804 22.1327 18.224 22.1327 19.114Z"
        fillRule="evenodd"
        clipRule="evenodd"
    />
</svg>
        