
<svg
    viewBox={0 0 30.529296875 29.17578125}
    xmlns="http://www.w3.org/2000/svg"
>
    <path
        fill="inherit"
        d="M1.0937 29.179H29.4237C30.0237 29.179 30.5337 28.669 30.5337 28.069C30.5337 27.469 30.0237 26.979 29.4237 26.979H28.7137V25.979C28.7137 25.429 28.3937 25.099 27.8337 25.099H26.9637V9.379H28.1637C28.9137 9.379 29.3537 8.829 29.3537 8.269C29.3537 7.859 29.1237 7.509 28.6137 7.219L16.9437 0.479C16.3937 0.169 15.8137 -0.001 15.2537 -0.001C14.6937 -0.001 14.1137 0.169 13.5937 0.479L1.9137 7.219C1.3937 7.509 1.1737 7.859 1.1737 8.269C1.1737 8.829 1.6137 9.379 2.3637 9.379H3.5637V25.099H2.7037C2.1437 25.099 1.8137 25.429 1.8137 25.979V26.979H1.0937C0.4937 26.979 0.0037 27.469 0.0037 28.069C0.0037 28.669 0.4937 29.179 1.0937 29.179ZM19.2737 22.399C19.0537 22.399 18.8837 22.219 18.8837 21.999V20.909C17.5037 20.799 16.3237 20.079 15.9737 18.509C15.9437 18.379 15.9237 18.209 15.9237 18.099C15.9237 17.679 16.2437 17.389 16.6637 17.389C17.0737 17.389 17.3337 17.679 17.4037 17.979C17.5537 18.909 17.9737 19.479 18.8837 19.609V16.039L18.4337 15.809C16.9837 15.109 16.0537 14.379 16.0537 12.799C16.0537 11.089 17.3037 10.129 18.8837 9.999V8.929C18.8837 8.699 19.0537 8.519 19.2737 8.519C19.4837 8.519 19.6737 8.699 19.6737 8.929V9.999C21.0037 10.119 22.0637 10.789 22.4037 12.319C22.4537 12.459 22.4637 12.579 22.4637 12.739C22.4637 13.179 22.1737 13.439 21.7537 13.439C21.3037 13.439 21.0837 13.209 21.0037 12.869C20.8537 12.069 20.4837 11.439 19.6737 11.289V14.749L20.2237 15.009C21.6137 15.669 22.6637 16.349 22.6637 18.009C22.6637 19.739 21.4337 20.779 19.6737 20.919V21.999C19.6737 22.219 19.4837 22.399 19.2737 22.399ZM11.3937 21.339C9.7237 21.339 8.5337 20.539 8.0637 19.059C8.0137 18.919 7.9737 18.689 7.9737 18.529C7.9737 18.089 8.2737 17.769 8.6837 17.769C9.0737 17.769 9.3237 17.949 9.4337 18.349C9.6837 19.389 10.3637 19.989 11.4137 19.989C12.6237 19.989 13.2637 19.199 13.2637 18.209C13.2637 17.119 12.5237 16.579 11.4937 16.219L10.6737 15.919C9.0937 15.339 8.0937 14.399 8.0937 12.699C8.0937 10.979 9.2237 9.539 11.3337 9.539C12.9637 9.539 14.1937 10.469 14.5337 11.949C14.5637 12.089 14.5837 12.239 14.5837 12.349C14.5837 12.759 14.3237 13.039 13.9137 13.039C13.5337 13.039 13.2637 12.889 13.1537 12.479C12.8937 11.439 12.2637 10.909 11.3237 10.909C10.2537 10.909 9.6837 11.649 9.6837 12.589C9.6837 13.689 10.3637 14.139 11.3637 14.519L12.1837 14.819C13.6837 15.409 14.8437 16.119 14.8437 18.059C14.8437 19.889 13.7537 21.339 11.3937 21.339ZM17.5637 12.699C17.5637 13.479 18.1337 13.969 18.8837 14.379V11.279C18.1137 11.389 17.5637 11.879 17.5637 12.699ZM19.6737 19.619C20.6037 19.509 21.1237 18.999 21.1237 18.159C21.1237 17.249 20.4837 16.819 19.6737 16.419Z"
        fillRule="evenodd"
        clipRule="evenodd"
    />
</svg>
        