
<svg
    viewBox="0 0 27.890625 27.890625"
    xmlns="http://www.w3.org/2000/svg"
>
    <path
        fill="inherit"
        d="M13.9427 27.8864C21.6427 27.8864 27.8927 21.6264 27.8927 13.9464C27.8927 6.2464 21.6427 -0.0036 13.9427 -0.0036C6.2627 -0.0036 0.0027 6.2464 0.0027 13.9464C0.0027 21.6264 6.2627 27.8864 13.9427 27.8864ZM17.9527 20.7264C17.7327 20.7264 17.5527 20.5464 17.5527 20.3264V19.2464C16.1727 19.1264 15.0027 18.4164 14.6527 16.8464C14.6127 16.7064 14.6027 16.5464 14.6027 16.4464C14.6027 16.0064 14.9127 15.7264 15.3427 15.7264C15.7627 15.7264 16.0127 16.0064 16.0827 16.3064C16.2327 17.2564 16.6527 17.8264 17.5527 17.9464V14.3664L17.1027 14.1464C15.6527 13.4564 14.7227 12.7164 14.7227 11.1264C14.7227 9.4164 15.9827 8.4664 17.5527 8.3264V7.2564C17.5527 7.0364 17.7327 6.8664 17.9527 6.8664C18.1727 6.8664 18.3427 7.0364 18.3427 7.2564V8.3364C19.6727 8.4464 20.7427 9.1164 21.0927 10.6664C21.1227 10.7864 21.1327 10.9064 21.1327 11.0864C21.1327 11.5264 20.8527 11.7764 20.4227 11.7764C19.9727 11.7764 19.7527 11.5364 19.6727 11.1964C19.5227 10.4064 19.1527 9.7764 18.3427 9.6264V13.0964L18.8927 13.3564C20.2927 13.9964 21.3427 14.6864 21.3427 16.3564C21.3427 18.0764 20.1127 19.1164 18.3427 19.2464V20.3264C18.3427 20.5464 18.1727 20.7264 17.9527 20.7264ZM10.0627 19.6764C8.3927 19.6764 7.2027 18.8664 6.7427 17.3864C6.6827 17.2564 6.6427 17.0364 6.6427 16.8564C6.6427 16.4164 6.9427 16.1064 7.3527 16.1064C7.7527 16.1064 8.0027 16.2864 8.1027 16.6764C8.3527 17.7364 9.0327 18.3164 10.0927 18.3164C11.2927 18.3164 11.9327 17.5264 11.9327 16.5464C11.9327 15.4464 11.1927 14.9164 10.1727 14.5464L9.3627 14.2464C7.7627 13.6764 6.7627 12.7464 6.7627 11.0364C6.7627 9.3064 7.9027 7.8864 10.0127 7.8864C11.6327 7.8864 12.8627 8.8064 13.2027 10.2764C13.2327 10.4164 13.2627 10.5664 13.2627 10.6764C13.2627 11.0864 13.0027 11.3864 12.5927 11.3864C12.2127 11.3864 11.9327 11.2264 11.8227 10.8264C11.5627 9.7864 10.9327 9.2464 9.9927 9.2464C8.9327 9.2464 8.3527 9.9764 8.3527 10.9364C8.3527 12.0164 9.0327 12.4664 10.0327 12.8564L10.8527 13.1564C12.3627 13.7364 13.5227 14.4464 13.5227 16.3964C13.5227 18.2364 12.4327 19.6764 10.0627 19.6764ZM16.2427 11.0464C16.2427 11.8264 16.8027 12.3064 17.5527 12.7164V9.6064C16.7927 9.7364 16.2427 10.2164 16.2427 11.0464ZM18.3427 17.9464C19.2727 17.8564 19.7927 17.3364 19.7927 16.5064C19.7927 15.5864 19.1527 15.1464 18.3427 14.7564Z"
        fillRule="evenodd"
        clipRule="evenodd"
    />
</svg>
        