
<svg
    viewBox={0 0 25.169921875 25.169921875}
    xmlns="http://www.w3.org/2000/svg"
>
    <path
        fill="inherit"
        d="M4.2937 25.1692H20.8737C23.7437 25.1692 25.1737 23.7592 25.1737 20.9492V4.2392C25.1737 1.4192 23.7437 -0.0008 20.8737 -0.0008H4.2937C1.4337 -0.0008 0.0037 1.4192 0.0037 4.2392V20.9492C0.0037 23.7592 1.4337 25.1692 4.2937 25.1692ZM16.5937 19.3592C16.3837 19.3592 16.2037 19.1792 16.2037 18.9592V17.8792C14.8237 17.7592 13.6437 17.0492 13.3037 15.4792C13.2637 15.3392 13.2437 15.1792 13.2437 15.0792C13.2437 14.6392 13.5637 14.3592 13.9837 14.3592C14.4137 14.3592 14.6537 14.6392 14.7237 14.9392C14.8737 15.8892 15.3037 16.4592 16.2037 16.5792V12.9992L15.7537 12.7792C14.3137 12.0892 13.3737 11.3492 13.3737 9.7592C13.3737 8.0492 14.6337 7.0992 16.2037 6.9592V5.8892C16.2037 5.6692 16.3837 5.4992 16.5937 5.4992C16.8137 5.4992 17.0037 5.6692 17.0037 5.8892V6.9692C18.3237 7.0792 19.3837 7.7492 19.7437 9.2992C19.7737 9.4192 19.7837 9.5392 19.7837 9.7192C19.7837 10.1592 19.4937 10.4092 19.0737 10.4092C18.6237 10.4092 18.4037 10.1692 18.3237 9.8292C18.1737 9.0392 17.8137 8.4092 17.0037 8.2592V11.7292L17.5437 11.9892C18.9337 12.6292 19.9837 13.3192 19.9837 14.9892C19.9837 16.7092 18.7537 17.7492 17.0037 17.8792V18.9592C17.0037 19.1792 16.8137 19.3592 16.5937 19.3592ZM8.7137 18.3092C7.0437 18.3092 5.8537 17.4992 5.3837 16.0192C5.3337 15.8892 5.2937 15.6692 5.2937 15.4892C5.2937 15.0492 5.5937 14.7392 6.0037 14.7392C6.3937 14.7392 6.6437 14.9192 6.7537 15.3092C7.0037 16.3692 7.6837 16.9492 8.7337 16.9492C9.9437 16.9492 10.5837 16.1592 10.5837 15.1792C10.5837 14.0792 9.8437 13.5492 8.8137 13.1792L8.0137 12.8792C6.4137 12.3092 5.4137 11.3792 5.4137 9.6692C5.4137 7.9392 6.5537 6.5192 8.6537 6.5192C10.2837 6.5192 11.5137 7.4392 11.8537 8.9092C11.8937 9.0492 11.9037 9.1992 11.9037 9.3092C11.9037 9.7192 11.6437 10.0192 11.2337 10.0192C10.8537 10.0192 10.5837 9.8592 10.4837 9.4592C10.2237 8.4192 9.5837 7.8792 8.6437 7.8792C7.5737 7.8792 7.0037 8.6092 7.0037 9.5692C7.0037 10.6492 7.6837 11.0992 8.6937 11.4892L9.5037 11.7892C11.0037 12.3692 12.1637 13.0792 12.1637 15.0292C12.1637 16.8692 11.0737 18.3092 8.7137 18.3092ZM14.8937 9.6792C14.8937 10.4592 15.4537 10.9392 16.2037 11.3492V8.2392C15.4337 8.3692 14.8937 8.8492 14.8937 9.6792ZM17.0037 16.5792C17.9237 16.4892 18.4437 15.9692 18.4437 15.1392C18.4437 14.2192 17.8037 13.7792 17.0037 13.3892Z"
        fillRule="evenodd"
        clipRule="evenodd"
    />
</svg>
        