
<svg
    viewBox="0 0 27.890625 27.890625"
    xmlns="http://www.w3.org/2000/svg"
>
    <path
        fill="inherit"
        d="M13.9427 27.8864C21.6427 27.8864 27.8927 21.6464 27.8927 13.9464C27.8927 6.2464 21.6427 -0.0036 13.9427 -0.0036C6.2527 -0.0036 0.0027 6.2464 0.0027 13.9464C0.0027 21.6464 6.2527 27.8864 13.9427 27.8864ZM13.9427 25.5664C7.5227 25.5664 2.3227 20.3664 2.3227 13.9464C2.3227 7.5164 7.5227 2.3264 13.9427 2.3264C20.3727 2.3264 25.5627 7.5164 25.5627 13.9464C25.5627 20.3664 20.3727 25.5664 13.9427 25.5664ZM17.8127 20.5264C18.0327 20.5264 18.1927 20.3464 18.1927 20.1364V19.0864C19.9227 18.9664 21.0927 17.9464 21.0927 16.2864C21.0927 14.6564 20.0827 13.9964 18.7327 13.3664L18.1927 13.1264V9.7464C18.9927 9.8964 19.3427 10.5164 19.4927 11.2764C19.5627 11.6064 19.7827 11.8264 20.2227 11.8264C20.6327 11.8264 20.9027 11.5964 20.9027 11.1664C20.9027 10.9964 20.8927 10.8864 20.8627 10.7564C20.5227 9.2664 19.4827 8.5964 18.1927 8.4864V7.4464C18.1927 7.2464 18.0327 7.0664 17.8127 7.0664C17.6127 7.0664 17.4327 7.2464 17.4327 7.4464V8.4864C15.9027 8.6264 14.6827 9.5564 14.6827 11.2064C14.6827 12.7464 15.5827 13.4664 16.9927 14.1364L17.4327 14.3464V17.8264C16.5427 17.7064 16.1327 17.1464 15.9927 16.2264C15.9327 15.9364 15.6927 15.6664 15.2827 15.6664C14.8727 15.6664 14.5727 15.9364 14.5727 16.3664C14.5727 16.4564 14.5927 16.6064 14.6327 16.7464C14.9527 18.2964 16.0927 18.9764 17.4327 19.0864V20.1364C17.4327 20.3464 17.6127 20.5264 17.8127 20.5264ZM10.1727 19.4964C12.4527 19.4964 13.5227 18.1064 13.5227 16.3064C13.5227 14.4364 12.4027 13.7364 10.9327 13.1764L10.1427 12.8764C9.1727 12.5064 8.5027 12.0764 8.5027 11.0164C8.5027 10.0864 9.0627 9.3764 10.1027 9.3764C11.0227 9.3764 11.6327 9.9164 11.8827 10.9064C11.9927 11.2964 12.2527 11.4564 12.6227 11.4564C13.0127 11.4564 13.2727 11.1664 13.2727 10.7764C13.2727 10.6664 13.2527 10.5164 13.2227 10.3864C12.8827 8.9564 11.6927 8.0664 10.1127 8.0664C8.0827 8.0664 6.9727 9.4464 6.9727 11.1164C6.9727 12.7664 7.9427 13.6764 9.5027 14.2364L10.2827 14.5164C11.2827 14.8764 11.9927 15.3964 11.9927 16.4564C11.9927 17.4164 11.3627 18.1864 10.2027 18.1864C9.1727 18.1864 8.5027 17.6264 8.2727 16.5964C8.1627 16.2164 7.9327 16.0364 7.5427 16.0364C7.1527 16.0364 6.8627 16.3364 6.8627 16.7664C6.8627 16.9364 6.8927 17.1464 6.9427 17.2764C7.3927 18.7164 8.5627 19.4964 10.1727 19.4964ZM16.1627 11.1264C16.1627 10.3064 16.6827 9.8464 17.4327 9.7364V12.7564C16.7027 12.3564 16.1627 11.8764 16.1627 11.1264ZM19.6027 16.4164C19.6027 17.2364 19.1027 17.7364 18.1927 17.8464V14.7064C18.9727 15.1064 19.6027 15.5264 19.6027 16.4164Z"
        fillRule="evenodd"
        clipRule="evenodd"
    />
</svg>
        