
<svg
    viewBox={0 0 30.5703125 30.5703125}
    xmlns="http://www.w3.org/2000/svg"
>
    <path
        fill="inherit"
        d="M15.2827 30.5663C23.6827 30.5663 30.5727 23.6763 30.5727 15.2863C30.5727 6.8863 23.6827 -0.0038 15.2827 -0.0038C6.8927 -0.0038 0.0027 6.8863 0.0027 15.2863C0.0027 23.6763 6.8927 30.5663 15.2827 30.5663ZM15.2827 25.4862C9.6527 25.4862 5.0827 20.9162 5.0827 15.2863C5.0827 9.6363 9.6527 5.0863 15.2827 5.0863C20.9327 5.0863 25.4827 9.6363 25.4827 15.2863C25.4827 20.9162 20.9327 25.4862 15.2827 25.4862ZM19.1727 21.8663C19.3827 21.8663 19.5627 21.6863 19.5627 21.4763V20.4263C21.2727 20.3063 22.4527 19.2863 22.4527 17.6263C22.4527 15.9963 21.4327 15.3363 20.0827 14.7063L19.5627 14.4663V11.0863C20.3427 11.2363 20.7027 11.8563 20.8527 12.6163C20.9227 12.9462 21.1327 13.1663 21.5727 13.1663C21.9827 13.1663 22.2627 12.9363 22.2627 12.5063C22.2627 12.3363 22.2427 12.2263 22.2127 12.0963C21.8727 10.6063 20.8327 9.9363 19.5627 9.8263V8.7862C19.5627 8.5863 19.3827 8.4063 19.1727 8.4063C18.9627 8.4063 18.7827 8.5863 18.7827 8.7862V9.8263C17.2527 9.9663 16.0327 10.8963 16.0327 12.5463C16.0327 14.0863 16.9527 14.8063 18.3427 15.4763L18.7827 15.6863V19.1662C17.8927 19.0463 17.4827 18.4862 17.3527 17.5663C17.2827 17.2763 17.0527 17.0063 16.6427 17.0063C16.2327 17.0063 15.9327 17.2763 15.9327 17.7063C15.9327 17.7963 15.9427 17.9463 15.9827 18.0863C16.3127 19.6363 17.4427 20.3163 18.7827 20.4263V21.4763C18.7827 21.6863 18.9627 21.8663 19.1727 21.8663ZM11.5227 20.8363C13.8127 20.8363 14.8727 19.4463 14.8727 17.6463C14.8727 15.7763 13.7527 15.0763 12.2927 14.5163L11.5127 14.2163C10.5227 13.8463 9.8527 13.4163 9.8527 12.3563C9.8527 11.4263 10.4227 10.7163 11.4527 10.7163C12.3727 10.7163 13.0027 11.2563 13.2527 12.2463C13.3427 12.6363 13.6027 12.7963 13.9727 12.7963C14.3727 12.7963 14.6327 12.5063 14.6327 12.1163C14.6327 12.0063 14.6027 11.8563 14.5727 11.7263C14.2327 10.2963 13.0427 9.4063 11.4727 9.4063C9.4327 9.4063 8.3227 10.7863 8.3227 12.4563C8.3227 14.1063 9.2927 15.0163 10.8527 15.5763L11.6327 15.8563C12.6327 16.2163 13.3427 16.7362 13.3427 17.7963C13.3427 18.7563 12.7127 19.5263 11.5527 19.5263C10.5227 19.5263 9.8527 18.9663 9.6227 17.9363C9.5127 17.5563 9.2827 17.3763 8.9027 17.3763C8.5027 17.3763 8.2127 17.6763 8.2127 18.1063C8.2127 18.2763 8.2427 18.4862 8.3027 18.6163C8.7527 20.0563 9.9127 20.8363 11.5227 20.8363ZM17.5127 12.4663C17.5127 11.6463 18.0327 11.1863 18.7827 11.0763V14.0963C18.0627 13.6963 17.5127 13.2163 17.5127 12.4663ZM20.9627 17.7563C20.9627 18.5763 20.4527 19.0763 19.5627 19.1863V16.0463C20.3327 16.4463 20.9627 16.8663 20.9627 17.7563Z"
        fillRule="evenodd"
        clipRule="evenodd"
    />
</svg>
        