
<svg
    viewBox="0 0 32.935546875 27.26189615322232"
    xmlns="http://www.w3.org/2000/svg"
>
    <path
        fill="inherit"
        d="M32.9327 16.3992C32.9327 7.7792 26.3227 0.7192 17.8927 -0.0008C17.4627 -0.0408 17.1327 0.2792 17.1327 0.7192V5.1892C17.1327 5.5592 17.3927 5.8392 17.7627 5.8692C22.9927 6.5092 27.0727 10.9792 27.0727 16.3992C27.0727 18.8592 26.2227 21.1292 24.7327 23.0292C24.5427 23.2592 24.5527 23.5592 24.7627 23.7792L28.0227 27.0292C28.3327 27.3292 28.7927 27.3292 29.0627 27.0092C31.4827 24.1392 32.9327 20.4292 32.9327 16.3992ZM0.0027 16.3992C0.0027 20.4392 1.4527 24.1492 3.8727 27.0192C4.1427 27.3492 4.5927 27.3292 4.9127 27.0292L8.1727 23.7792C8.3827 23.5592 8.3927 23.2592 8.2027 23.0292C6.7027 21.1292 5.8627 18.8592 5.8627 16.3992C5.8627 10.9792 9.9427 6.5092 15.1727 5.8692C15.5427 5.8392 15.8027 5.5592 15.8027 5.1892V0.7192C15.8027 0.2792 15.4727 -0.0408 15.0427 -0.0008C6.6127 0.7192 0.0027 7.7792 0.0027 16.3992ZM20.3427 23.1592C20.5527 23.1592 20.7227 22.9892 20.7227 22.7792V21.7192C22.4327 21.5892 23.6127 20.5792 23.6127 18.9092C23.6127 17.2992 22.6027 16.6292 21.2427 15.9992L20.7227 15.7492V12.3792C21.5227 12.5292 21.8627 13.1392 22.0127 13.9192C22.0927 14.2392 22.3027 14.4692 22.7327 14.4692C23.1427 14.4692 23.4227 14.2192 23.4227 13.7992C23.4227 13.6392 23.4027 13.5292 23.3827 13.3892C23.0527 11.8992 22.0027 11.2392 20.7227 11.1292V10.0792C20.7227 9.8792 20.5527 9.6992 20.3427 9.6992C20.1227 9.6992 19.9627 9.8792 19.9627 10.0792V11.1292C18.4127 11.2592 17.2127 12.1892 17.2127 13.8492C17.2127 15.3692 18.1127 16.0992 19.5127 16.7692L19.9627 16.9792V20.4592C19.0727 20.3292 18.6627 19.7892 18.5127 18.8692C18.4527 18.5692 18.2127 18.3092 17.8027 18.3092C17.3927 18.3092 17.1027 18.5692 17.1027 18.9892C17.1027 19.0992 17.1127 19.2392 17.1427 19.3892C17.4727 20.9192 18.6227 21.6092 19.9627 21.7192V22.7792C19.9627 22.9892 20.1227 23.1592 20.3427 23.1592ZM12.6827 22.1392C14.9727 22.1392 16.0527 20.7292 16.0527 18.9392C16.0527 17.0792 14.9127 16.3692 13.4527 15.8192L12.6727 15.5192C11.6927 15.1492 11.0227 14.6992 11.0227 13.6492C11.0227 12.7192 11.5827 12.0192 12.6227 12.0192C13.5327 12.0192 14.1627 12.5392 14.4127 13.5392C14.5027 13.9192 14.7627 14.0892 15.1327 14.0892C15.5327 14.0892 15.7927 13.8092 15.7927 13.3992C15.7927 13.3092 15.7727 13.1592 15.7327 13.0192C15.4127 11.5792 14.2027 10.6992 12.6427 10.6992C10.5927 10.6992 9.4927 12.0892 9.4927 13.7592C9.4927 15.3992 10.4727 16.3092 12.0127 16.8792L12.7927 17.1492C13.7927 17.4992 14.5027 18.0392 14.5027 19.0892C14.5027 20.0492 13.8727 20.8092 12.7327 20.8092C11.6927 20.8092 11.0227 20.2492 10.7827 19.2292C10.6927 18.8392 10.4427 18.6792 10.0727 18.6792C9.6627 18.6792 9.3827 18.9792 9.3827 19.3992C9.3827 19.5692 9.4227 19.7692 9.4627 19.9192C9.9127 21.3492 11.0727 22.1392 12.6827 22.1392ZM18.6727 13.7592C18.6727 12.9392 19.2127 12.4892 19.9627 12.3792V15.3892C19.2227 14.9892 18.6727 14.5092 18.6727 13.7592ZM22.1327 19.0492C22.1327 19.8692 21.6127 20.3792 20.7227 20.4692V17.3492C21.5027 17.7392 22.1327 18.1592 22.1327 19.0492Z"
        fillRule="evenodd"
        clipRule="evenodd"
    />
</svg>
        