
<svg
    viewBox={0 0 30.529296875 29.17578125}
    xmlns="http://www.w3.org/2000/svg"
>
    <path
        fill="inherit"
        d="M1.8137 25.919H28.7137V25.009C28.7137 24.459 28.3937 24.129 27.8337 24.129H26.9637V9.379H28.1637C28.9137 9.379 29.3537 8.829 29.3537 8.269C29.3537 7.859 29.1237 7.509 28.6137 7.219L16.9437 0.479C16.3937 0.169 15.8137 -0.001 15.2537 -0.001C14.6937 -0.001 14.1137 0.169 13.5937 0.479L1.9137 7.219C1.3937 7.509 1.1737 7.859 1.1737 8.269C1.1737 8.829 1.6137 9.379 2.3637 9.379H3.5637V24.129H2.7037C2.1437 24.129 1.8137 24.459 1.8137 25.009ZM5.6337 24.129V7.629L14.7237 2.529C14.8937 2.429 15.0837 2.379 15.2537 2.379C15.4337 2.379 15.6237 2.429 15.8037 2.529L24.8937 7.629V24.129ZM19.1537 20.969C19.3737 20.969 19.5337 20.799 19.5337 20.589V19.519C21.2637 19.399 22.4337 18.389 22.4337 16.719C22.4337 15.109 21.4237 14.439 20.0737 13.809L19.5337 13.559V10.189C20.3337 10.339 20.6837 10.949 20.8337 11.729C20.9037 12.049 21.1237 12.279 21.5637 12.279C21.9737 12.279 22.2437 12.029 22.2437 11.609C22.2437 11.439 22.2337 11.329 22.2037 11.199C21.8637 9.709 20.8237 9.049 19.5337 8.939V7.889C19.5337 7.679 19.3737 7.509 19.1537 7.509C18.9537 7.509 18.7737 7.679 18.7737 7.889V8.939C17.2437 9.069 16.0237 9.999 16.0237 11.659C16.0237 13.179 16.9237 13.909 18.3337 14.579L18.7737 14.789V18.269C17.8837 18.139 17.4737 17.599 17.3337 16.679C17.2637 16.379 17.0237 16.119 16.6237 16.119C16.2137 16.119 15.9137 16.379 15.9137 16.799C15.9137 16.909 15.9237 17.049 15.9537 17.199C16.2937 18.729 17.4337 19.419 18.7737 19.519V20.589C18.7737 20.799 18.9537 20.969 19.1537 20.969ZM11.5137 19.949C13.7937 19.949 14.8637 18.539 14.8637 16.749C14.8637 14.889 13.7437 14.179 12.2737 13.629L11.4837 13.329C10.5137 12.959 9.8437 12.509 9.8437 11.459C9.8437 10.529 10.4037 9.829 11.4437 9.829C12.3637 9.829 12.9737 10.349 13.2237 11.349C13.3337 11.729 13.5937 11.899 13.9637 11.899C14.3537 11.899 14.6137 11.619 14.6137 11.209C14.6137 11.119 14.5837 10.969 14.5637 10.829C14.2237 9.389 13.0337 8.499 11.4537 8.499C9.4237 8.499 8.3137 9.899 8.3137 11.569C8.3137 13.209 9.2837 14.119 10.8237 14.679L11.6237 14.959C12.6237 15.309 13.3337 15.849 13.3337 16.899C13.3337 17.859 12.7037 18.619 11.5437 18.619C10.5137 18.619 9.8437 18.059 9.5937 17.039C9.5037 16.649 9.2737 16.489 8.8837 16.489C8.4937 16.489 8.2037 16.789 8.2037 17.209C8.2037 17.379 8.2337 17.579 8.2837 17.729C8.7337 19.159 9.8937 19.949 11.5137 19.949ZM17.5037 11.569C17.5037 10.749 18.0237 10.299 18.7737 10.189V13.189C18.0437 12.799 17.5037 12.319 17.5037 11.569ZM20.9437 16.859C20.9437 17.679 20.4437 18.179 19.5337 18.279V15.159C20.3137 15.549 20.9437 15.969 20.9437 16.859ZM1.0937 29.179H29.4237C30.0237 29.179 30.5337 28.669 30.5337 28.069C30.5337 27.469 30.0237 26.979 29.4237 26.979H1.0937C0.4937 26.979 0.0037 27.469 0.0037 28.069C0.0037 28.669 0.4937 29.179 1.0937 29.179Z"
        fillRule="evenodd"
        clipRule="evenodd"
    />
</svg>
        