
<svg
    viewBox="0 0 28.341796875 26.82421875"
    xmlns="http://www.w3.org/2000/svg"
>
    <path
        fill="inherit"
        d="M1.0937 16.2969H1.4537V20.8269C1.4537 24.6369 3.7837 26.8269 7.8737 26.8269H20.4637C24.5537 26.8269 26.9037 24.6369 26.9037 20.8269V16.2969H27.2437C27.8537 16.2969 28.3437 15.7869 28.3437 15.1869C28.3437 14.5869 27.8537 14.0969 27.2437 14.0969H19.1037V12.3169C19.1037 12.1669 19.1937 12.0569 19.3637 12.0569H22.4637C22.9537 12.0569 23.3537 11.6669 23.3537 11.1669C23.3537 10.6769 22.9537 10.2669 22.4637 10.2669H18.4037C17.7337 10.2669 17.3037 10.6869 17.3037 11.3569V14.0969H15.2037V3.7769C15.2037 2.8169 15.8137 2.1969 16.7737 2.1969C17.7337 2.1969 18.3437 2.8169 18.3437 3.7769V6.0669C18.3437 6.6669 18.8537 7.1769 19.4537 7.1769C20.0537 7.1769 20.5537 6.6669 20.5537 6.0669V3.7769C20.5537 1.5069 19.0437 -0.0031 16.7737 -0.0031C14.5037 -0.0031 13.0037 1.5069 13.0037 3.7769V14.0969H10.8937V11.3569C10.8937 10.6869 10.4637 10.2669 9.8037 10.2669H5.7437C5.2537 10.2669 4.8437 10.6769 4.8437 11.1669C4.8437 11.6669 5.2537 12.0569 5.7437 12.0569H8.8437C9.0137 12.0569 9.1037 12.1669 9.1037 12.3169V14.0969H1.0937C0.4937 14.0969 0.0037 14.5869 0.0037 15.1869C0.0037 15.7869 0.4937 16.2969 1.0937 16.2969ZM7.8737 24.6269C5.0037 24.6269 3.6537 23.3769 3.6537 20.8269V16.2969H24.7037V20.8269C24.7037 23.3769 23.3537 24.6269 20.4637 24.6269Z"
        fillRule="evenodd"
        clipRule="evenodd"
    />
</svg>
        