
<svg
    viewBox={0 0 30.164441592783493 30.157713767394466}
    xmlns="http://www.w3.org/2000/svg"
>
    <path
        fill="inherit"
        d="M2.0589 28.0954C4.7789 30.8254 8.9589 30.8454 11.6689 28.1554L11.6789 28.1454C11.6389 28.4954 11.7589 28.8554 12.0389 29.1354L12.4289 29.5254C12.9389 30.0254 13.6889 30.0254 14.1789 29.5354L16.4489 27.2654C16.9589 26.7454 16.9589 26.0054 16.4489 25.5054L16.0689 25.1054C15.7989 24.8354 15.4289 24.6954 15.0789 24.7354L24.8689 14.9454C24.8289 15.2854 24.9589 15.6454 25.2389 15.9354L25.6289 16.3154C26.1489 16.8054 26.8789 16.8054 27.3889 16.3154L29.6589 14.0454C30.1589 13.5554 30.1589 12.8054 29.6589 12.2954L29.2789 11.8954C28.9889 11.6254 28.6189 11.5054 28.2789 11.5254C30.8489 8.8054 30.7889 4.7054 28.1089 2.0454C25.4489 -0.6246 21.3289 -0.6746 18.6289 1.8754C18.6489 1.5354 18.5289 1.1654 18.2389 0.8754L17.8489 0.4854C17.3489 -0.0046 16.5989 -0.0046 16.0989 0.4954L13.8289 2.7554C13.3189 3.2554 13.3189 4.0054 13.8289 4.5154L14.2189 4.8954C14.5089 5.1854 14.8689 5.3054 15.2189 5.2654L5.4189 15.0854C5.4489 14.7254 5.3189 14.3754 5.0489 14.0754L4.6489 13.7054C4.1489 13.1854 3.3989 13.1854 2.8989 13.7054L0.6289 15.9454C0.1289 16.4554 0.1289 17.2154 0.6289 17.7054L1.0289 18.1054C1.3189 18.3754 1.6689 18.5054 2.0289 18.4754C-0.6811 21.1654 -0.6811 25.3754 2.0589 28.0954ZM20.9989 6.6754C20.6089 6.2754 20.6089 5.6354 20.9989 5.2454C21.3989 4.8254 22.0689 4.8254 22.4689 5.2454C22.8789 5.6354 22.8789 6.2754 22.4689 6.6754C22.0689 7.0854 21.3989 7.0854 20.9989 6.6754ZM18.5689 9.1354C18.1689 8.7454 18.1689 8.0754 18.5789 7.6654C18.9789 7.2654 19.6189 7.2654 20.0189 7.6654C20.4189 8.0754 20.4189 8.7454 20.0189 9.1354C19.6189 9.5354 18.9789 9.5354 18.5689 9.1354ZM23.4689 9.1354C23.0689 8.7454 23.0689 8.0754 23.4689 7.6754C23.8589 7.2754 24.4989 7.2754 24.9089 7.6754C25.3089 8.0754 25.3089 8.7454 24.9089 9.1354C24.4989 9.5454 23.8589 9.5454 23.4689 9.1354ZM20.9989 11.5754C20.6089 11.1754 20.6089 10.5154 20.9989 10.1254C21.4089 9.7154 22.0789 9.7154 22.4789 10.1254C22.8789 10.5154 22.8789 11.1754 22.4789 11.5754C22.0789 11.9654 21.4089 11.9654 20.9989 11.5754ZM7.8089 19.8854C7.4089 19.4854 7.4089 18.8254 7.8089 18.4354C8.2089 18.0354 8.8589 18.0354 9.2589 18.4354C9.6689 18.8254 9.6689 19.4854 9.2589 19.8854C8.8589 20.2954 8.2089 20.2954 7.8089 19.8854ZM5.3589 22.3254C4.9689 21.9354 4.9689 21.2754 5.3589 20.8654C5.7689 20.4554 6.4189 20.4554 6.8289 20.8654C7.2189 21.2754 7.2189 21.9354 6.8289 22.3254C6.4189 22.7254 5.7589 22.7254 5.3589 22.3254ZM10.2589 22.3454C9.8589 21.9354 9.8589 21.2754 10.2589 20.8654C10.6489 20.4754 11.3089 20.4754 11.7089 20.8654C12.1189 21.2754 12.1189 21.9354 11.7089 22.3454C11.3089 22.7454 10.6489 22.7454 10.2589 22.3454ZM7.8089 24.7754C7.4089 24.3854 7.4089 23.7254 7.8089 23.3254C8.2089 22.9154 8.8789 22.9154 9.2689 23.3254C9.6689 23.7254 9.6689 24.3854 9.2689 24.7754C8.8789 25.1754 8.2089 25.1754 7.8089 24.7754Z"
        fillRule="evenodd"
        clipRule="evenodd"
    />
</svg>
        