
<svg
    viewBox={0 0 30.164441592783493 30.157713767394466}
    xmlns="http://www.w3.org/2000/svg"
>
    <path
        fill="inherit"
        d="M2.0589 28.0954C4.7789 30.8254 8.9589 30.8454 11.6689 28.1554L11.6789 28.1454C11.6389 28.4954 11.7589 28.8554 12.0389 29.1354L12.4289 29.5254C12.9389 30.0254 13.6889 30.0254 14.1789 29.5354L16.4489 27.2654C16.9589 26.7454 16.9589 26.0054 16.4489 25.5054L16.0689 25.1054C15.7989 24.8354 15.4289 24.6954 15.0789 24.7354L24.8689 14.9454C24.8289 15.2854 24.9589 15.6454 25.2389 15.9354L25.6289 16.3154C26.1489 16.8054 26.8789 16.8054 27.3889 16.3154L29.6589 14.0454C30.1589 13.5554 30.1589 12.8054 29.6589 12.2954L29.2789 11.8954C28.9889 11.6254 28.6189 11.5054 28.2789 11.5254C30.8489 8.8054 30.7889 4.7054 28.1089 2.0454C25.4489 -0.6246 21.3289 -0.6746 18.6289 1.8754C18.6489 1.5354 18.5289 1.1654 18.2389 0.8754L17.8489 0.4854C17.3489 -0.0046 16.5989 -0.0046 16.0989 0.4954L13.8289 2.7554C13.3189 3.2554 13.3189 4.0054 13.8289 4.5154L14.2189 4.8954C14.5089 5.1854 14.8689 5.3054 15.2189 5.2654L5.4189 15.0854C5.4489 14.7254 5.3189 14.3754 5.0489 14.0754L4.6489 13.7054C4.1489 13.1854 3.3989 13.1854 2.8989 13.7054L0.6289 15.9454C0.1289 16.4554 0.1289 17.2154 0.6289 17.7054L1.0289 18.1054C1.3189 18.3754 1.6689 18.5054 2.0289 18.4754C-0.6811 21.1654 -0.6811 25.3754 2.0589 28.0954ZM3.6089 26.5454C1.7789 24.7054 1.7789 21.8354 3.6089 19.9954L20.0189 3.5854C21.8489 1.7554 24.7389 1.7654 26.5589 3.5954C28.3889 5.4354 28.3889 8.3054 26.5589 10.1454L10.1089 26.5854C8.2989 28.4054 5.4289 28.3754 3.6089 26.5454ZM21.0289 6.7354C21.4089 7.1254 22.0589 7.1254 22.4389 6.7354C22.8389 6.3454 22.8389 5.7154 22.4389 5.3354C22.0589 4.9354 21.4089 4.9354 21.0289 5.3354C20.6489 5.7154 20.6489 6.3454 21.0289 6.7354ZM18.6689 9.1054C19.0589 9.4954 19.6889 9.4954 20.0689 9.1054C20.4589 8.7254 20.4589 8.0854 20.0689 7.6854C19.6889 7.3054 19.0589 7.3054 18.6789 7.6854C18.2789 8.0854 18.2789 8.7254 18.6689 9.1054ZM23.4089 9.1054C23.7889 9.5054 24.4189 9.5054 24.8189 9.1054C25.1989 8.7254 25.1989 8.0854 24.8189 7.7054C24.4189 7.3154 23.7889 7.3154 23.4089 7.7054C23.0289 8.0854 23.0289 8.7254 23.4089 9.1054ZM21.0289 11.4754C21.4289 11.8554 22.0689 11.8554 22.4489 11.4754C22.8389 11.0954 22.8389 10.4454 22.4489 10.0654C22.0689 9.6654 21.4289 9.6654 21.0289 10.0654C20.6489 10.4454 20.6489 11.0954 21.0289 11.4754ZM7.8389 19.9354C8.2189 20.3354 8.8489 20.3354 9.2289 19.9354C9.6289 19.5554 9.6289 18.9154 9.2289 18.5254C8.8489 18.1454 8.2189 18.1454 7.8389 18.5254C7.4589 18.9154 7.4589 19.5554 7.8389 19.9354ZM5.4589 22.3054C5.8389 22.6854 6.4889 22.6854 6.8789 22.3054C7.2589 21.9154 7.2589 21.2954 6.8789 20.8954C6.4889 20.4954 5.8589 20.4954 5.4589 20.8954C5.0789 21.2954 5.0789 21.9154 5.4589 22.3054ZM10.1989 22.3154C10.5889 22.6954 11.2289 22.6954 11.6089 22.3154C12.0089 21.9154 12.0089 21.2954 11.6089 20.8954C11.2289 20.5154 10.5889 20.5154 10.1989 20.8954C9.8189 21.2954 9.8189 21.9154 10.1989 22.3154ZM7.8389 24.6854C8.2189 25.0654 8.8589 25.0654 9.2489 24.6854C9.6289 24.2954 9.6289 23.6554 9.2489 23.2754C8.8589 22.8754 8.2189 22.8754 7.8389 23.2754C7.4589 23.6554 7.4589 24.2954 7.8389 24.6854Z"
        fillRule="evenodd"
        clipRule="evenodd"
    />
</svg>
        