
<svg
    viewBox={0 0 37.7958984375 37.7958984375}
    xmlns="http://www.w3.org/2000/svg"
>
    <path
        fill="inherit"
        d="M1.3689 22.019C-0.4611 23.849 -0.4511 26.719 1.3589 28.559C3.1889 30.359 6.0689 30.369 7.9089 28.539L28.5489 7.909C30.3789 6.059 30.3589 3.189 28.5689 1.359C26.7289 -0.451 23.8489 -0.461 22.0189 1.369ZM2.8489 23.489L23.4889 2.849C24.5189 1.819 26.0989 1.819 27.0889 2.829C28.0989 3.819 28.0889 5.399 27.0689 6.429L6.4289 27.059C5.3989 28.089 3.8189 28.089 2.8289 27.089C1.8189 26.089 1.8189 24.519 2.8489 23.489ZM9.2589 29.889C7.4289 31.719 7.4389 34.609 9.2289 36.439C11.0789 38.239 13.9489 38.259 15.7789 36.429L36.4289 15.779C38.2589 13.949 38.2389 11.059 36.4389 9.229C34.6089 7.439 31.7389 7.409 29.8889 9.249ZM10.7389 31.369L31.3689 10.719C32.3889 9.709 33.9789 9.699 34.9589 10.709C35.9789 11.689 35.9789 13.279 34.9489 14.309L14.3089 34.949C13.2789 35.979 11.7089 35.979 10.7089 34.959C9.7089 33.979 9.7089 32.389 10.7389 31.369ZM14.5089 14.199L15.7389 15.399C16.1489 15.799 16.7689 15.809 17.1589 15.399C17.5589 15.029 17.5589 14.409 17.1589 13.999L15.9189 12.769C15.5389 12.389 14.9089 12.379 14.5089 12.769C14.1089 13.139 14.0989 13.789 14.5089 14.199ZM10.2589 18.419L11.4889 19.679C11.8689 20.069 12.5089 20.049 12.9089 19.679C13.2889 19.279 13.3089 18.649 12.9089 18.259L11.6789 17.009C11.2789 16.629 10.6389 16.629 10.2589 17.009C9.8589 17.419 9.8789 18.039 10.2589 18.419ZM22.3989 22.069L23.6189 23.269C24.0289 23.679 24.6489 23.679 25.0389 23.269C25.4489 22.899 25.4289 22.279 25.0389 21.889L23.8089 20.649C23.4089 20.269 22.7789 20.239 22.3989 20.649C21.9989 21.019 21.9889 21.669 22.3989 22.069ZM18.1289 26.309L19.3789 27.549C19.7589 27.949 20.3889 27.919 20.7989 27.549C21.1789 27.169 21.1989 26.539 20.7989 26.129L19.5589 24.899C19.1689 24.499 18.5289 24.499 18.1289 24.899C17.7489 25.299 17.7589 25.909 18.1289 26.309Z"
        fillRule="evenodd"
        clipRule="evenodd"
    />
</svg>
        