
<svg
    viewBox="0 0 37.43706818244358 37.43018707406177"
    xmlns="http://www.w3.org/2000/svg"
>
    <path
        fill="inherit"
        d="M1.1472 29.1191C2.6972 30.6591 5.1272 30.6491 6.6572 29.1191L29.1072 6.6391C30.6672 5.0991 30.6672 2.6891 29.1272 1.1591C27.6072 -0.3909 25.1972 -0.3909 23.6372 1.1691L1.1772 23.6491C-0.3828 25.2191 -0.3928 27.5691 1.1472 29.1191ZM8.2972 36.2691C9.8472 37.8291 12.2772 37.8091 13.8072 36.2691L36.2772 13.7891C37.8172 12.2491 37.8272 9.8391 36.2772 8.2891C34.7572 6.7791 32.3472 6.7591 30.7872 8.3191L8.3372 30.7791C6.7672 32.3591 6.7672 34.7391 8.2972 36.2691ZM14.3472 13.9991C13.9172 13.5391 13.9072 12.8691 14.3472 12.4491C14.7572 12.0091 15.4472 12.0291 15.8772 12.4491L17.8472 14.4091C18.2772 14.8591 18.2772 15.5291 17.8472 15.9491C17.4172 16.3691 16.7272 16.3691 16.2972 15.9491ZM9.7372 18.5891C9.3172 18.1691 9.2972 17.4991 9.7372 17.0391C10.1472 16.6191 10.8472 16.6191 11.2672 17.0391L13.2372 19.0091C13.6772 19.4491 13.6572 20.1291 13.2372 20.5691C12.8172 20.9791 12.1172 20.9991 11.6872 20.5691ZM21.5072 21.1491C21.0572 20.7091 21.0572 20.0091 21.5072 19.5991C21.9172 19.1791 22.5972 19.1591 23.0572 19.5991L25.0072 21.5691C25.4272 21.9891 25.4272 22.6791 25.0072 23.0991C24.5872 23.5391 23.8972 23.5391 23.4672 23.0991ZM16.8772 25.7491C16.4672 25.3291 16.4672 24.6491 16.8772 24.2191C17.3072 23.7691 17.9972 23.7791 18.4272 24.2191L20.3872 26.1591C20.8372 26.6091 20.8372 27.2991 20.3872 27.7191C19.9672 28.1491 19.2772 28.1491 18.8572 27.7191Z"
        fillRule="evenodd"
        clipRule="evenodd"
    />
</svg>
        