
<svg
    viewBox="0 0 27.890625 27.890625"
    xmlns="http://www.w3.org/2000/svg"
>
    <path
        fill="inherit"
        d="M13.9427 27.8864C21.6427 27.8864 27.8927 21.6264 27.8927 13.9464C27.8927 6.2464 21.6427 -0.0036 13.9427 -0.0036C6.2627 -0.0036 0.0027 6.2464 0.0027 13.9464C0.0027 21.6264 6.2627 27.8864 13.9427 27.8864ZM9.0527 20.0664C8.3627 20.0664 7.9027 19.5364 7.9027 18.8964C7.9027 18.5664 8.0627 18.2264 8.3827 17.8964L17.8327 8.3164C18.1327 7.9964 18.4527 7.8364 18.8027 7.8364C19.4527 7.8364 19.9927 8.3564 19.9927 9.0264C19.9927 9.3364 19.8127 9.6964 19.5127 9.9964L10.0527 19.5964C9.7327 19.9064 9.4427 20.0664 9.0527 20.0664Z"
        fillRule="evenodd"
        clipRule="evenodd"
    />
</svg>
        