
<svg
    viewBox="0 0 27.890625 27.890625"
    xmlns="http://www.w3.org/2000/svg"
>
    <path
        fill="inherit"
        d="M13.9427 27.8864C21.6427 27.8864 27.8927 21.6464 27.8927 13.9464C27.8927 6.2464 21.6427 -0.0036 13.9427 -0.0036C6.2527 -0.0036 0.0027 6.2464 0.0027 13.9464C0.0027 21.6464 6.2527 27.8864 13.9427 27.8864ZM13.9427 25.5664C7.5227 25.5664 2.3227 20.3664 2.3227 13.9464C2.3227 7.5164 7.5227 2.3264 13.9427 2.3264C20.3727 2.3264 25.5627 7.5164 25.5627 13.9464C25.5627 20.3664 20.3727 25.5664 13.9427 25.5664ZM9.1727 19.8764C9.5527 19.8764 9.8427 19.7264 10.1427 19.4264L19.3327 10.1064C19.6227 9.8164 19.7927 9.4764 19.7927 9.1564C19.7927 8.5164 19.2727 8.0264 18.6527 8.0264C18.3227 8.0264 18.0027 8.1764 17.7027 8.4764L8.5327 17.7964C8.2327 18.1064 8.0627 18.4264 8.0627 18.7564C8.0627 19.3764 8.5127 19.8764 9.1727 19.8764Z"
        fillRule="evenodd"
        clipRule="evenodd"
    />
</svg>
        