
<svg
    viewBox={0 0 27.890625 27.890625}
    xmlns="http://www.w3.org/2000/svg"
>
    <path
        fill="inherit"
        d="M13.9427 27.8927C21.6427 27.8927 27.8927 21.6427 27.8927 13.9427C27.8927 6.2627 21.6427 0.0027 13.9427 0.0027C6.2627 0.0027 0.0027 6.2627 0.0027 13.9427C0.0027 21.6427 6.2627 27.8927 13.9427 27.8927ZM13.9627 22.6527C9.1427 22.6527 5.2527 18.7627 5.2527 13.9427C5.2527 9.1327 9.1427 5.2327 13.9627 5.2327C18.7727 5.2327 22.6727 9.1327 22.6727 13.9427C22.6727 18.7627 18.7727 22.6527 13.9627 22.6527ZM7.3027 13.9427C7.3027 14.7427 7.4327 15.5027 7.6827 16.2027H20.2627C20.5127 15.5027 20.6427 14.7427 20.6427 13.9427C20.6427 10.2527 17.6627 7.2727 13.9727 7.2727C10.2827 7.2727 7.3027 10.2527 7.3027 13.9427ZM8.7527 18.0727C9.9527 19.6227 11.8527 20.6127 13.9727 20.6127C16.0927 20.6127 17.9927 19.6227 19.2127 18.0727Z"
        fillRule="evenodd"
        clipRule="evenodd"
    />
</svg>
        