
<svg
    viewBox="0 0 39.56528244580058 27.75390625"
    xmlns="http://www.w3.org/2000/svg"
>
    <path
        fill="inherit"
        d="M4.2937 25.1655H22.9737C22.1737 24.4855 21.8737 23.7455 21.6837 22.9655H4.3237C2.9837 22.9655 2.2037 22.2455 2.2037 20.8255V4.3455C2.2037 2.9255 2.9837 2.2055 4.3237 2.2055H27.9137C29.2837 2.2055 30.0337 2.9255 30.0337 4.3455V12.0555C30.7637 11.9755 31.4637 11.9755 32.2337 12.0555V4.2355C32.2337 1.4055 30.8137 -0.0045 27.9437 -0.0045H4.2937C1.4337 -0.0045 0.0037 1.4255 0.0037 4.2355V20.9355C0.0037 23.7455 1.4337 25.1655 4.2937 25.1655ZM20.0937 9.8855C21.2637 9.8855 22.2737 9.1355 22.6537 8.0755H26.6437C27.0937 8.0755 27.4937 7.6855 27.4937 7.1955C27.4937 6.6855 27.0937 6.2855 26.6437 6.2855H22.6537C22.2837 5.2355 21.2637 4.4755 20.0937 4.4755C18.9237 4.4755 17.9237 5.2355 17.5537 6.2855H5.6437C5.1537 6.2855 4.7437 6.6855 4.7437 7.1955C4.7437 7.6855 5.1537 8.0755 5.6437 8.0755H17.5537C17.9237 9.1355 18.9237 9.8855 20.0937 9.8855ZM20.0937 8.5155C19.3337 8.5155 18.7737 7.9255 18.7737 7.1755C18.7737 6.4155 19.3337 5.8555 20.0937 5.8555C20.8637 5.8555 21.4337 6.4255 21.4337 7.1755C21.4337 7.9255 20.8637 8.5155 20.0937 8.5155ZM5.6037 13.0455C5.1537 13.0455 4.7437 13.4555 4.7437 13.9455C4.7437 14.4355 5.1537 14.8355 5.6037 14.8355H9.6437C10.0037 15.8855 11.0037 16.6355 12.1837 16.6355C13.3537 16.6355 14.3737 15.8855 14.7337 14.8355H24.7337C25.3937 14.1255 26.1437 13.5055 27.0037 13.0455H14.7337C14.3737 11.9855 13.3537 11.2255 12.1837 11.2255C11.0037 11.2255 10.0037 11.9855 9.6437 13.0455ZM12.1837 15.2755C11.4337 15.2755 10.8537 14.6955 10.8537 13.9455C10.8537 13.1655 11.4337 12.6055 12.1837 12.6055C12.9437 12.6055 13.5237 13.1655 13.5237 13.9455C13.5237 14.6855 12.9437 15.2755 12.1837 15.2755ZM27.0537 17.5655C28.0137 16.3555 29.4937 15.5555 31.1437 15.5555C33.4037 15.5555 35.3537 17.0355 36.0837 19.0555H35.3037C34.5937 19.0555 34.2637 19.6855 34.7137 20.2055L36.5037 22.4055C36.8737 22.8555 37.3537 22.8755 37.7037 22.4055L39.3637 20.2055C39.8037 19.6455 39.4937 19.0555 38.7837 19.0555H37.8537C37.0737 16.0955 34.3437 13.8655 31.1437 13.8655C28.9837 13.8655 27.0537 14.8755 25.8037 16.4155C24.9937 17.3755 26.3337 18.4255 27.0537 17.5655ZM24.5837 19.2055L22.9137 21.4055C22.4937 21.9755 22.7937 22.5555 23.5037 22.5555H24.4137C25.2137 25.5355 27.9437 27.7555 31.1437 27.7555C33.2937 27.7555 35.2337 26.7555 36.4937 25.1955C37.2937 24.2355 35.9437 23.1855 35.2337 24.0455C34.2737 25.2655 32.8037 26.0555 31.1437 26.0555C28.8737 26.0555 26.9337 24.5955 26.1937 22.5555H26.9737C27.6837 22.5555 28.0137 21.9255 27.5737 21.4055L25.7737 19.2055C25.4037 18.7755 24.9337 18.7555 24.5837 19.2055Z"
        fillRule="evenodd"
        clipRule="evenodd"
    />
</svg>
        