
<svg
    viewBox={0 0 33.359375 24.923828125}
    xmlns="http://www.w3.org/2000/svg"
>
    <path
        fill="inherit"
        d="M21.0137 15.5964H30.0137C32.1437 15.5964 33.3637 14.3964 33.3637 12.3164V3.2964C33.3637 1.2064 32.1437 -0.0036 30.0137 -0.0036H21.0137C18.8937 -0.0036 17.6737 1.2064 17.6737 3.2964V12.3164C17.6737 14.3964 18.8937 15.5964 21.0137 15.5964ZM3.2437 15.4264H12.0537C14.1237 15.4264 15.3237 14.2464 15.3237 12.2064V3.3864C15.3237 1.3564 14.1237 0.1764 12.0537 0.1764H3.2437C1.1937 0.1764 0.0037 1.3364 0.0037 3.3864V12.2064C0.0037 14.2564 1.1937 15.4264 3.2437 15.4264ZM21.0437 13.4364C20.2337 13.4364 19.8337 13.0464 19.8337 12.2264V3.3764C19.8337 2.5564 20.2337 2.1564 21.0437 2.1564H29.9837C30.8137 2.1564 31.2037 2.5564 31.2037 3.3764V12.2264C31.2037 13.0464 30.8137 13.4364 29.9837 13.4364ZM1.0437 20.5364C0.4737 20.5364 0.0037 21.0264 0.0037 21.6464C0.0037 22.2564 0.4737 22.7364 1.0437 22.7364H4.7437C5.1937 24.0064 6.4137 24.9264 7.8337 24.9264C9.2537 24.9264 10.4737 24.0064 10.9237 22.7364H32.2537C32.8637 22.7364 33.3637 22.2564 33.3637 21.6464C33.3637 21.0264 32.8637 20.5364 32.2537 20.5364H10.9237C10.4737 19.2664 9.2537 18.3464 7.8337 18.3464C6.4137 18.3464 5.1937 19.2664 4.7437 20.5364ZM7.8337 23.2464C6.9337 23.2464 6.2337 22.5264 6.2337 21.6264C6.2337 20.7264 6.9337 20.0264 7.8337 20.0264C8.7237 20.0264 9.4337 20.7264 9.4337 21.6264C9.4337 22.5264 8.7237 23.2464 7.8337 23.2464Z"
        fillRule="evenodd"
        clipRule="evenodd"
    />
</svg>
        