
<svg
    viewBox="0 0 26.0859375 30.59765625"
    xmlns="http://www.w3.org/2000/svg"
>
    <path
        fill="inherit"
        d="M13.1437 0.0036C12.5537 0.0036 12.0437 0.5236 12.0437 1.1036V3.2936C12.0437 3.8836 12.5537 4.3936 13.1437 4.3936C13.7237 4.3936 14.2437 3.8836 14.2437 3.2936V1.1036C14.2437 0.5236 13.7237 0.0036 13.1437 0.0036ZM21.1237 3.3036C20.6837 2.8836 19.9837 2.8836 19.5737 3.3036L18.0037 4.8936C17.5837 5.3136 17.6137 6.0336 18.0037 6.4436C18.4337 6.8536 19.1437 6.8636 19.5637 6.4436L21.1237 4.8536C21.5337 4.4136 21.5437 3.7336 21.1237 3.3036ZM5.1637 3.3036C4.7737 3.7336 4.7437 4.4336 5.1537 4.8536L6.7137 6.4436C7.1337 6.8636 7.8337 6.8536 8.2737 6.4436C8.6637 6.0036 8.6837 5.3036 8.2737 4.8936L6.7037 3.3036C6.3037 2.9136 5.5937 2.8936 5.1637 3.3036ZM13.1437 16.7236C16.0937 16.7236 18.5437 14.2636 18.5437 11.3036C18.5437 8.3236 16.0937 5.8636 13.1437 5.8636C10.1737 5.8636 7.7237 8.3236 7.7237 11.3036C7.7237 14.2636 10.1737 16.7236 13.1437 16.7236ZM24.3937 11.3036C24.3937 10.6736 23.9137 10.2036 23.3237 10.2036H21.1237C20.5337 10.2036 20.0437 10.7036 20.0437 11.3036C20.0437 11.8936 20.5337 12.3836 21.1237 12.3836H23.3237C23.9137 12.3836 24.3937 11.9236 24.3937 11.3036ZM1.8837 11.3036C1.8837 11.9236 2.3637 12.3836 2.9537 12.3836H5.1537C5.7437 12.3836 6.2437 11.8936 6.2437 11.3036C6.2437 10.7036 5.7437 10.2036 5.1537 10.2036H2.9537C2.3637 10.2036 1.8837 10.6736 1.8837 11.3036ZM21.1237 19.2936C21.5637 18.8236 21.5437 18.1736 21.1237 17.7436L19.5537 16.1736C19.1137 15.7336 18.4337 15.7636 18.0037 16.1736C17.5937 16.5936 17.5837 17.2936 18.0037 17.7236L19.5737 19.2936C20.0037 19.7036 20.6837 19.6836 21.1237 19.2936ZM5.1537 19.2736C5.5637 19.6836 6.2937 19.7036 6.7037 19.2936L8.2737 17.7236C8.6837 17.3036 8.6637 16.6136 8.2737 16.1736C7.8437 15.7636 7.1337 15.7536 6.7137 16.1736L5.1537 17.7436C4.7437 18.1536 4.7437 18.8236 5.1537 19.2736ZM13.1437 22.6036C13.7237 22.6036 14.2437 22.0836 14.2437 21.4736V19.3036C14.2437 18.7136 13.7237 18.2136 13.1437 18.2136C12.5537 18.2136 12.0437 18.7136 12.0437 19.3036V21.4736C12.0437 22.0836 12.5537 22.6036 13.1437 22.6036ZM18.2537 30.5936C19.6737 30.5936 20.8937 29.6836 21.3437 28.4136H25.0337C25.5937 28.4136 26.0837 27.9336 26.0837 27.3136C26.0837 26.7036 25.5937 26.2136 25.0337 26.2136H21.3437C20.8937 24.9336 19.6737 24.0236 18.2537 24.0236C16.8337 24.0236 15.6137 24.9336 15.1437 26.2136H1.0937C0.4737 26.2136 0.0037 26.7036 0.0037 27.3136C0.0037 27.9336 0.4737 28.4136 1.0937 28.4136H15.1437C15.6137 29.6836 16.8337 30.5936 18.2537 30.5936ZM18.2537 28.9136C17.3537 28.9136 16.6537 28.2036 16.6537 27.3036C16.6537 26.4036 17.3537 25.7036 18.2537 25.7036C19.1537 25.7036 19.8537 26.4036 19.8537 27.3036C19.8537 28.2036 19.1537 28.9136 18.2537 28.9136Z"
        fillRule="evenodd"
        clipRule="evenodd"
    />
</svg>
        