
<svg
    viewBox={0 0 28.9296875 28.642578125}
    xmlns="http://www.w3.org/2000/svg"
>
    <path
        fill="inherit"
        d="M4.2937 22.3119H6.6337V24.4019C6.6337 27.2219 8.0537 28.6419 10.9237 28.6419H24.6537C27.4937 28.6419 28.9337 27.2219 28.9337 24.4019V10.5719C28.9337 7.7519 27.4937 6.3319 24.6537 6.3319H22.3037V4.2419C22.3037 1.4219 20.8637 0.0019 18.0237 0.0019H4.2937C1.4237 0.0019 0.0037 1.4219 0.0037 4.2419V18.0719C0.0037 20.8919 1.4237 22.3119 4.2937 22.3119ZM4.3237 20.1119C2.9537 20.1119 2.2037 19.3719 2.2037 17.9519V4.3619C2.2037 2.9419 2.9537 2.2019 4.3237 2.2019H17.9737C19.3337 2.2019 20.0937 2.9419 20.0937 4.3619V6.3319H10.9237C8.0537 6.3319 6.6337 7.7419 6.6337 10.5719V20.1119ZM10.9537 26.4419C9.5937 26.4419 8.8337 25.7019 8.8337 24.2819V10.6919C8.8337 9.2719 9.5937 8.5319 10.9537 8.5319H24.6137C25.9637 8.5319 26.7237 9.2719 26.7237 10.6919V24.2819C26.7237 25.7019 25.9637 26.4419 24.6137 26.4419ZM11.8137 14.7819H17.3237C17.6937 15.8619 18.7337 16.6419 19.9337 16.6419C21.1337 16.6419 22.1637 15.8619 22.5437 14.7819H23.8137C24.2837 14.7819 24.6737 14.3719 24.6737 13.8619C24.6737 13.3719 24.2837 12.9719 23.8137 12.9719H22.5437C22.1737 11.8819 21.1337 11.1019 19.9337 11.1019C18.7137 11.1019 17.6737 11.8819 17.3037 12.9719H11.8137C11.2937 12.9719 10.8937 13.3719 10.8937 13.8619C10.8937 14.3719 11.2937 14.7819 11.8137 14.7819ZM19.9337 15.2319C19.1537 15.2319 18.5837 14.6319 18.5837 13.8619C18.5837 13.0819 19.1537 12.5119 19.9337 12.5119C20.6837 12.5119 21.2837 13.0819 21.2837 13.8619C21.2837 14.6319 20.6837 15.2319 19.9337 15.2319ZM11.7537 22.0919H13.0337C13.4137 23.1719 14.4337 23.9519 15.6437 23.9519C16.8537 23.9519 17.8937 23.1719 18.2637 22.0919H23.7637C24.2837 22.0919 24.6737 21.7019 24.6737 21.1819C24.6737 20.6819 24.2837 20.2919 23.7637 20.2919H18.2837C17.9137 19.1919 16.8737 18.4119 15.6437 18.4119C14.4337 18.4119 13.3937 19.1919 13.0337 20.2919H11.7537C11.2937 20.2919 10.8937 20.6819 10.8937 21.1819C10.8937 21.7019 11.2937 22.0919 11.7537 22.0919ZM15.6437 22.5419C14.8937 22.5419 14.2837 21.9419 14.2837 21.1819C14.2837 20.4019 14.8937 19.8219 15.6437 19.8219C16.4237 19.8219 17.0037 20.4019 17.0037 21.1819C17.0037 21.9419 16.4237 22.5419 15.6437 22.5419Z"
        fillRule="evenodd"
        clipRule="evenodd"
    />
</svg>
        