
<svg
    viewBox="0 0 27.890625 30.544813437289537"
    xmlns="http://www.w3.org/2000/svg"
>
    <path
        fill="inherit"
        d="M13.9427 30.5406C21.6427 30.5406 27.8927 24.3006 27.8927 16.6006C27.8927 9.7806 22.9827 4.1206 16.5827 2.9106V0.9706C16.5827 -0.0094 15.9127 -0.2594 15.1527 0.2706L10.8027 3.3406C10.1727 3.7906 10.1827 4.4406 10.8027 4.8806L15.1627 7.9406C15.9127 8.4606 16.5827 8.2206 16.5827 7.2506V5.2806C21.7227 6.4706 25.5627 11.0506 25.5627 16.6006C25.5627 23.0206 20.3727 28.2206 13.9427 28.2206C7.5227 28.2206 2.3227 23.0206 2.3227 16.6006C2.3227 12.7006 4.2427 9.2706 7.1327 7.1906C7.6927 6.7706 7.8727 6.1306 7.5327 5.5506C7.1927 5.0106 6.4127 4.8406 5.8127 5.3106C2.2827 7.8506 0.0027 11.9106 0.0027 16.6006C0.0027 24.3006 6.2527 30.5406 13.9427 30.5406ZM7.4327 14.5206H13.5727C13.9427 15.6006 14.9827 16.3806 16.1827 16.3806C17.3927 16.3806 18.4127 15.6006 18.8027 14.5206H20.5127C20.9727 14.5206 21.3827 14.1206 21.3827 13.6206C21.3827 13.1306 20.9727 12.7206 20.5127 12.7206H18.8027C18.4327 11.6406 17.3927 10.8406 16.1827 10.8406C14.9727 10.8406 13.9327 11.6206 13.5627 12.7206H7.4327C6.9227 12.7206 6.5127 13.1306 6.5127 13.6206C6.5127 14.1206 6.9227 14.5206 7.4327 14.5206ZM16.1827 14.9706C15.4127 14.9706 14.8327 14.3706 14.8327 13.6006C14.8327 12.8406 15.4127 12.2506 16.1827 12.2506C16.9427 12.2506 17.5427 12.8406 17.5427 13.6006C17.5427 14.3706 16.9427 14.9706 16.1827 14.9706ZM7.3827 21.8406H9.1027C9.4727 22.9306 10.5127 23.6906 11.7027 23.6906C12.9227 23.6906 13.9627 22.9306 14.3327 21.8406H20.4527C20.9727 21.8406 21.3827 21.4406 21.3827 20.9306C21.3827 20.4406 20.9727 20.0306 20.4527 20.0306H14.3427C13.9727 18.9506 12.9327 18.1606 11.7027 18.1606C10.5027 18.1606 9.4627 18.9506 9.0927 20.0306H7.3827C6.9227 20.0306 6.5127 20.4406 6.5127 20.9306C6.5127 21.4406 6.9227 21.8406 7.3827 21.8406ZM11.7027 22.2906C10.9527 22.2906 10.3527 21.6806 10.3527 20.9206C10.3527 20.1506 10.9527 19.5706 11.7027 19.5706C12.4827 19.5706 13.0827 20.1506 13.0827 20.9206C13.0827 21.6806 12.4827 22.2906 11.7027 22.2906Z"
        fillRule="evenodd"
        clipRule="evenodd"
    />
</svg>
        