
<svg
    viewBox={0 0 25.169921875 25.169921875}
    xmlns="http://www.w3.org/2000/svg"
>
    <path
        fill="inherit"
        d="M4.2937 25.1692H20.8737C23.7437 25.1692 25.1737 23.7592 25.1737 20.9492V4.2392C25.1737 1.4192 23.7437 -0.0008 20.8737 -0.0008H4.2937C1.4337 -0.0008 0.0037 1.4192 0.0037 4.2392V20.9492C0.0037 23.7592 1.4337 25.1692 4.2937 25.1692ZM4.3237 22.9692C2.9537 22.9692 2.2037 22.2392 2.2037 20.8192V4.3592C2.2037 2.9392 2.9537 2.1992 4.3237 2.1992H20.8537C22.2037 2.1992 22.9737 2.9392 22.9737 4.3592V20.8192C22.9737 22.2392 22.2037 22.9692 20.8537 22.9692ZM6.0737 9.6692H12.2137C12.5937 10.7492 13.6137 11.5292 14.8237 11.5292C16.0237 11.5292 17.0537 10.7492 17.4337 9.6692H19.1537C19.6237 9.6692 20.0337 9.2692 20.0337 8.7592C20.0337 8.2692 19.6237 7.8592 19.1537 7.8592H17.4437C17.0637 6.7692 16.0337 5.9892 14.8237 5.9892C13.6137 5.9892 12.5737 6.7692 12.2137 7.8592H6.0737C5.5537 7.8592 5.1537 8.2692 5.1537 8.7592C5.1537 9.2692 5.5537 9.6692 6.0737 9.6692ZM14.8237 10.1192C14.0537 10.1192 13.4637 9.5192 13.4637 8.7492C13.4637 7.9692 14.0537 7.3992 14.8237 7.3992C15.5737 7.3992 16.1737 7.9692 16.1737 8.7492C16.1737 9.5192 15.5737 10.1192 14.8237 10.1192ZM10.3537 13.3592C9.1437 13.3592 8.1237 14.1392 7.7337 15.2292H6.0137C5.5537 15.2292 5.1537 15.6292 5.1537 16.1292C5.1537 16.6292 5.5537 17.0392 6.0137 17.0392H7.7337C8.1037 18.1192 9.1437 18.9092 10.3537 18.9092C11.5637 18.9092 12.5937 18.1192 12.9737 17.0392H19.1037C19.6237 17.0392 20.0337 16.6292 20.0337 16.1292C20.0337 15.6292 19.6237 15.2292 19.1037 15.2292H12.9637C12.5737 14.1392 11.5537 13.3592 10.3537 13.3592ZM10.3537 14.7792C11.1137 14.7792 11.7037 15.3792 11.7037 16.1492C11.7037 16.9092 11.1137 17.4992 10.3537 17.4992C9.5937 17.4992 8.9937 16.9092 8.9937 16.1492C8.9937 15.3792 9.5937 14.7792 10.3537 14.7792Z"
        fillRule="evenodd"
        clipRule="evenodd"
    />
</svg>
        