
<svg
    viewBox={0 0 25.01953125 24.0625}
    xmlns="http://www.w3.org/2000/svg"
>
    <path
        fill="inherit"
        d="M3.2937 24.0586C3.9137 24.0586 4.3937 23.5686 4.3937 23.0086V18.9586C5.6637 18.5086 6.5737 17.2986 6.5737 15.8686C6.5737 14.4486 5.6637 13.2386 4.3937 12.7786V1.1086C4.3937 0.4886 3.9137 -0.0014 3.2937 -0.0014C2.6837 -0.0014 2.1837 0.4886 2.1837 1.1086V12.7686C0.9137 13.2386 0.0037 14.4486 0.0037 15.8686C0.0037 17.2986 0.9137 18.5086 2.1837 18.9586V23.0086C2.1837 23.5686 2.6837 24.0586 3.2937 24.0586ZM12.5137 24.0586C13.1237 24.0586 13.6137 23.5686 13.6137 22.9586V11.0586C14.8737 10.6086 15.7937 9.3886 15.7937 7.9686C15.7937 6.5486 14.8737 5.3286 13.6137 4.8786V1.0486C13.6137 0.4886 13.1237 -0.0014 12.5137 -0.0014C11.8937 -0.0014 11.4137 0.4886 11.4137 1.0486V4.8686C10.1337 5.3286 9.2137 6.5486 9.2137 7.9686C9.2137 9.3886 10.1337 10.6086 11.4137 11.0586V22.9586C11.4137 23.5686 11.8937 24.0586 12.5137 24.0586ZM18.4537 15.8686C18.4537 17.2986 19.3637 18.5086 20.6337 18.9586V23.0086C20.6337 23.5686 21.1237 24.0586 21.7337 24.0586C22.3537 24.0586 22.8337 23.5686 22.8337 23.0086V18.9586C24.1037 18.5086 25.0237 17.2986 25.0237 15.8686C25.0237 14.4486 24.1037 13.2186 22.8337 12.7686V1.1086C22.8337 0.4886 22.3537 -0.0014 21.7337 -0.0014C21.1237 -0.0014 20.6337 0.4886 20.6337 1.1086V12.7786C19.3637 13.2386 18.4537 14.4486 18.4537 15.8686ZM10.9137 7.9686C10.9137 7.0786 11.6237 6.3686 12.5137 6.3686C13.4137 6.3686 14.1137 7.0786 14.1137 7.9686C14.1137 8.8686 13.4137 9.5686 12.5137 9.5686C11.6237 9.5686 10.9137 8.8686 10.9137 7.9686ZM1.6837 15.8686C1.6837 14.9686 2.3937 14.2686 3.2937 14.2686C4.1937 14.2686 4.8937 14.9686 4.8937 15.8686C4.8937 16.7786 4.1937 17.4686 3.2937 17.4686C2.3937 17.4686 1.6837 16.7786 1.6837 15.8686ZM20.1437 15.8686C20.1437 14.9686 20.8537 14.2686 21.7337 14.2686C22.6537 14.2686 23.3337 14.9686 23.3337 15.8686C23.3337 16.7786 22.6537 17.4686 21.7337 17.4686C20.8537 17.4686 20.1437 16.7786 20.1437 15.8686Z"
        fillRule="evenodd"
        clipRule="evenodd"
    />
</svg>
        