
<svg
    viewBox={0 0 30.830078125 30.830078125}
    xmlns="http://www.w3.org/2000/svg"
>
    <path
        fill="inherit"
        d="M15.4127 -0.0044C14.8627 -0.0044 14.4327 0.4356 14.4327 0.9856V5.8356C14.4327 6.3856 14.8627 6.8256 15.4127 6.8256C15.9727 6.8256 16.3927 6.3856 16.3927 5.8356V0.9856C16.3927 0.4356 15.9727 -0.0044 15.4127 -0.0044ZM7.7127 2.0556C7.2227 2.3356 7.0827 2.9256 7.3527 3.4056L9.7727 7.6156C10.0627 8.0956 10.6327 8.2556 11.1127 7.9756C11.6027 7.6956 11.7427 7.1056 11.4827 6.6456L9.0527 2.4156C8.7627 1.9556 8.1927 1.7956 7.7127 2.0556ZM23.1327 2.0656C22.6427 1.7956 22.0627 1.9556 21.7827 2.4156L19.3627 6.6456C19.0827 7.1056 19.2227 7.6956 19.7127 7.9856C20.1927 8.2456 20.7627 8.0956 21.0527 7.6156L23.4927 3.4056C23.7527 2.9256 23.6127 2.3356 23.1327 2.0656ZM2.0827 7.6956C1.7927 8.1856 1.9527 8.7656 2.4327 9.0556L6.6427 11.4856C7.1227 11.7456 7.6927 11.6056 7.9827 11.1256C8.2427 10.6356 8.0927 10.0656 7.6127 9.7756L3.4027 7.3456C2.9227 7.0856 2.3427 7.2156 2.0827 7.6956ZM28.7827 7.7156C28.4927 7.2156 27.9027 7.0856 27.4227 7.3456L23.2127 9.7756C22.7327 10.0656 22.5727 10.6356 22.8727 11.1256C23.1327 11.5956 23.7227 11.7456 24.1827 11.4856L28.4127 9.0556C28.8727 8.7656 29.0427 8.1856 28.7827 7.7156ZM30.8327 15.4056C30.8327 14.8656 30.4027 14.4356 29.8427 14.4356H24.9927C24.4427 14.4356 24.0127 14.8656 24.0127 15.4056C24.0127 15.9656 24.4427 16.3956 24.9927 16.3956H29.8427C30.4027 16.3956 30.8327 15.9656 30.8327 15.4056ZM0.0027 15.4056C0.0027 15.9656 0.4327 16.3956 0.9827 16.3956H5.8427C6.4027 16.3956 6.8227 15.9656 6.8227 15.4056C6.8227 14.8656 6.4027 14.4356 5.8427 14.4356H0.9827C0.4327 14.4356 0.0027 14.8656 0.0027 15.4056ZM28.7627 23.1156C29.0527 22.6356 28.8727 22.0656 28.4127 21.7756L24.1827 19.3456C23.7227 19.0856 23.1327 19.2256 22.8627 19.7056C22.5827 20.1956 22.7327 20.7656 23.2127 21.0556L27.4227 23.4856C27.9027 23.7456 28.4927 23.6156 28.7627 23.1156ZM2.0827 23.1156C2.3427 23.6156 2.9227 23.7456 3.4027 23.4856L7.6127 21.0556C8.0927 20.7656 8.2627 20.1956 7.9827 19.7156C7.6927 19.2256 7.1227 19.0856 6.6427 19.3456L2.4327 21.7756C1.9527 22.0656 1.7927 22.6356 2.0827 23.1156ZM23.1227 28.7656C23.6127 28.4956 23.7527 27.9056 23.4927 27.4256L21.0527 23.2156C20.7827 22.7356 20.1927 22.5756 19.7127 22.8456C19.2227 23.1356 19.0827 23.7056 19.3627 24.1856L21.7827 28.3956C22.0627 28.8756 22.6427 29.0356 23.1227 28.7656ZM7.7127 28.7656C8.1927 29.0356 8.7627 28.8756 9.0527 28.3956L11.4827 24.1856C11.7427 23.7056 11.6027 23.1356 11.1327 22.8556C10.6327 22.5856 10.0627 22.7356 9.7727 23.2156L7.3527 27.4256C7.0827 27.9056 7.2227 28.4956 7.7127 28.7656ZM15.4127 30.8256C15.9727 30.8256 16.3927 30.3956 16.3927 29.8456V24.9956C16.3927 24.4456 15.9727 24.0056 15.4127 24.0056C14.8627 24.0056 14.4327 24.4456 14.4327 24.9956V29.8456C14.4327 30.3956 14.8627 30.8256 15.4127 30.8256Z"
        fillRule="evenodd"
        clipRule="evenodd"
    />
</svg>
        