
<svg
    viewBox="0 0 27.890625 27.890625"
    xmlns="http://www.w3.org/2000/svg"
>
    <path
        fill="inherit"
        d="M13.9427 27.8864C21.6427 27.8864 27.8927 21.6264 27.8927 13.9464C27.8927 6.2464 21.6427 -0.0036 13.9427 -0.0036C6.2627 -0.0036 0.0027 6.2464 0.0027 13.9464C0.0027 21.6264 6.2627 27.8864 13.9427 27.8864ZM13.9427 19.3464C10.9627 19.3464 8.5427 16.9264 8.5427 13.9464C8.5427 10.9664 10.9627 8.5464 13.9427 8.5464C16.9227 8.5464 19.3427 10.9664 19.3427 13.9464C19.3427 16.9264 16.9227 19.3464 13.9427 19.3464ZM13.9427 17.0864C15.6927 17.0864 17.0927 15.6864 17.0927 13.9464C17.0927 12.1964 15.6927 10.7964 13.9427 10.7964C12.2127 10.7964 10.8027 12.1964 10.8027 13.9464C10.8027 15.6864 12.2127 17.0864 13.9427 17.0864Z"
        fillRule="evenodd"
        clipRule="evenodd"
    />
</svg>
        