
<svg
    viewBox="0 0 27.890625 27.890625"
    xmlns="http://www.w3.org/2000/svg"
>
    <path
        fill="inherit"
        d="M13.9427 27.8864C21.6427 27.8864 27.8927 21.6464 27.8927 13.9464C27.8927 6.2464 21.6427 -0.0036 13.9427 -0.0036C6.2527 -0.0036 0.0027 6.2464 0.0027 13.9464C0.0027 21.6464 6.2527 27.8864 13.9427 27.8864ZM13.9427 25.5664C7.5227 25.5664 2.3227 20.3664 2.3227 13.9464C2.3227 7.5164 7.5227 2.3264 13.9427 2.3264C20.3727 2.3264 25.5627 7.5164 25.5627 13.9464C25.5627 20.3664 20.3727 25.5664 13.9427 25.5664ZM4.6327 13.1564C4.6327 14.4364 5.4327 15.5464 6.7627 15.9864C7.1627 14.7964 8.1627 13.8664 9.4027 13.5764C9.9427 12.0864 11.3327 11.0364 13.0027 11.0364C13.1927 11.0364 13.3827 11.0564 13.5727 11.0864C14.3427 10.2164 15.4127 9.7164 16.6127 9.6764C16.4027 8.9564 15.6227 8.2864 14.3727 8.2864C14.0127 8.2864 13.7227 8.3564 13.4127 8.4464C12.7727 7.4964 11.7327 6.8864 10.5427 6.8864C8.6927 6.8864 7.1827 8.3664 7.0827 10.1764C5.6627 10.4764 4.6327 11.6864 4.6327 13.1564ZM10.3327 19.8664H19.5927C21.4527 19.8664 22.7227 18.5564 22.7227 16.8664C22.7227 15.4264 21.6827 14.1864 20.2927 13.9164C20.1827 12.0964 18.7027 10.6264 16.8427 10.6264C15.6227 10.6264 14.5727 11.2264 13.9427 12.1664C13.6127 12.0564 13.3427 12.0064 13.0027 12.0064C11.5627 12.0064 10.4027 13.0564 10.1827 14.4464C8.7127 14.4964 7.5427 15.6964 7.5427 17.1464C7.5427 18.6764 8.6727 19.8664 10.3327 19.8664Z"
        fillRule="evenodd"
        clipRule="evenodd"
    />
</svg>
        