
<svg
    viewBox="0 0 32.67578125 24.0078125"
    xmlns="http://www.w3.org/2000/svg"
>
    <path
        fill="inherit"
        d="M0 11.5987C0 14.2987 1.9 16.6387 4.94 17.1587C4.77 17.6687 4.68 18.2087 4.68 18.7887C4.68 21.7887 6.95 24.0087 10.08 24.0087H26.55C30.23 24.0087 32.68 21.4787 32.68 18.2687C32.66 15.5887 30.86 13.3287 28.26 12.6487C27.97 9.7587 25.85 7.4287 23.12 6.8387C22.74 4.3787 20.63 2.5287 18.1 2.5287C17.42 2.5287 16.82 2.6087 16.3 2.7487C14.72 0.8787 13.03 -0.0013 10.95 -0.0013C7.56 0.0087 4.73 2.6287 4.36 5.9887C1.78 6.6587 0 8.9387 0 11.5987ZM2.06 11.5987C2.06 9.6787 3.5 8.1087 5.26 7.8987C6.1 7.8087 6.41 7.4287 6.41 6.5487C6.37 4.1287 8.45 2.0687 10.95 2.0687C12.62 2.0787 13.99 2.9087 14.9 4.3887C15.23 4.9387 15.72 5.0587 16.42 4.8387C16.79 4.7187 17.35 4.5987 17.95 4.5987C19.33 4.5987 20.54 5.4787 20.95 6.7387C19.13 6.9587 17.51 7.9187 16.42 9.3787C15.93 9.2687 15.38 9.1787 14.85 9.1787C12.21 9.1887 9.99 11.0487 9.49 13.5887C8.16 13.7387 7 14.3187 6.14 15.1887C3.66 15.0487 2.06 13.5587 2.06 11.5987ZM10.08 21.9387C8.09 21.9387 6.74 20.6587 6.74 18.7887C6.74 17.0087 8.18 15.6087 10.02 15.5887C10.96 15.5587 11.36 15.2687 11.43 14.4687C11.58 12.5887 13 11.2387 14.85 11.2387C15.38 11.2387 15.7 11.3187 16.26 11.5387C16.99 11.8287 17.43 11.6987 17.73 11.0987C18.44 9.6787 20 8.7587 21.75 8.7487C24.23 8.7487 26.22 10.7887 26.22 13.2787C26.22 14.2187 26.5 14.5187 27.43 14.6287C29.23 14.8387 30.61 16.4187 30.61 18.2687C30.61 20.4687 28.97 21.9387 26.55 21.9387Z"
        fillRule="evenodd"
        clipRule="evenodd"
    />
</svg>
        