
<svg
    viewBox={0 0 24.219506241856255 27.64453125}
    xmlns="http://www.w3.org/2000/svg"
>
    <path
        fill="inherit"
        d="M12.1122 27.6434C12.7122 27.6434 13.0722 27.2234 13.0722 26.6334V23.6634L15.4222 25.0034C15.9322 25.2834 16.4422 25.2334 16.7322 24.7334C16.9822 24.3134 16.8322 23.7734 16.3122 23.4834L13.0722 21.6434V19.9034L12.7922 15.0234L16.9122 17.6934L18.4322 18.5534L18.4022 22.2834C18.4022 22.8734 18.7722 23.2934 19.2522 23.2934C19.8422 23.2934 20.1422 22.8634 20.1422 22.2834L20.1522 19.5534L22.7322 21.0534C23.2722 21.3734 23.7722 21.2334 24.0622 20.7434C24.3522 20.2234 24.2022 19.6834 23.6922 19.4034L21.1122 17.9134L23.4622 16.5334C23.9522 16.2334 24.1722 15.7634 23.8822 15.2734C23.6122 14.8334 23.0922 14.7134 22.5822 15.0134L19.3722 16.9034L17.8522 16.0334L13.4422 13.8234L17.8722 11.6034L19.3622 10.7334L22.5722 12.6234C23.0822 12.9234 23.6422 12.7934 23.9022 12.3734C24.1722 11.8834 23.9522 11.4034 23.4622 11.1034L21.1122 9.7334L23.6922 8.2434C24.2122 7.9434 24.3622 7.4234 24.0722 6.9034C23.7922 6.4134 23.2722 6.2934 22.7522 6.5934L20.1522 8.0634L20.1222 5.3434C20.1222 4.7534 19.8422 4.3434 19.2622 4.3434C18.7622 4.3434 18.4022 4.7534 18.4022 5.3434L18.4122 9.0634L16.9122 9.9434L12.7922 12.6234L13.0722 7.7234V5.9834L16.3122 4.1534C16.8322 3.8534 16.9822 3.3334 16.7322 2.9034C16.4422 2.4034 15.9322 2.3534 15.4222 2.6434L13.0722 3.9834V0.9934C13.0722 0.4134 12.7122 0.0034 12.1122 0.0034C11.5422 0.0034 11.1722 0.4134 11.1722 0.9934V3.9834L8.7722 2.6434C8.2722 2.3534 7.7822 2.4034 7.4822 2.9034C7.2322 3.3334 7.3922 3.8534 7.9122 4.1434L11.1722 5.9834V7.7234L11.4322 12.6234L7.3122 9.9434L5.7922 9.0634L5.8222 5.3434C5.8222 4.7534 5.4722 4.3434 4.9722 4.3434C4.3922 4.3434 4.0922 4.7734 4.0922 5.3434L4.0722 8.0634L1.4722 6.5934C0.9722 6.3034 0.4222 6.4134 0.1522 6.9034C-0.1478 7.4234 0.0122 7.9534 0.5322 8.2434L3.1022 9.7334L0.7622 11.1034C0.2722 11.4034 0.0522 11.8434 0.3322 12.3734C0.5722 12.8134 1.1322 12.9234 1.6522 12.6234L4.8522 10.7434L6.3522 11.6034L10.7722 13.8234L6.3522 16.0334L4.8522 16.9134L1.6422 15.0134C1.1322 14.7134 0.5922 14.8334 0.3522 15.2534C0.0722 15.7934 0.2722 16.2334 0.7622 16.5334L3.1122 17.9134L0.5322 19.4034C0.0222 19.6834 -0.1378 20.2334 0.1522 20.7234C0.4522 21.2434 0.9722 21.3434 1.4722 21.0534L4.0722 19.5734L4.0922 22.2834C4.0922 22.8634 4.3922 23.2934 4.9622 23.2934C5.4522 23.2934 5.8222 22.8734 5.8222 22.2834L5.8122 18.5534L7.3122 17.7034L11.4322 15.0234L11.1722 19.9034V21.6434L7.9122 23.4834C7.3922 23.7734 7.2322 24.3134 7.4822 24.7334C7.7822 25.2334 8.2722 25.2834 8.7722 25.0034L11.1722 23.6534V26.6334C11.1722 27.2234 11.5422 27.6434 12.1122 27.6434Z"
        fillRule="evenodd"
        clipRule="evenodd"
    />
</svg>
        