
<svg
    viewBox="0 0 33.218474062262466 33.21847406226247"
    xmlns="http://www.w3.org/2000/svg"
>
    <path
        fill="inherit"
        d="M2.1459 31.0802C5.1159 34.0302 8.8159 33.9202 11.9459 30.8002C13.3559 29.3902 16.1559 25.2802 20.7259 20.7302C25.2759 16.1602 29.3959 13.3602 30.8059 11.9502C33.9159 8.8202 34.0259 5.1102 31.0759 2.1502C28.1059 -0.8098 24.4059 -0.7098 21.2559 2.4202C19.8659 3.8302 17.0659 7.9302 12.4959 12.5002C7.9259 17.0602 3.8259 19.8702 2.4159 21.2602C-0.7141 24.4002 -0.8041 28.1102 2.1459 31.0802ZM17.0259 14.3602C16.3959 13.7502 16.3759 12.7802 16.9959 12.1802C17.5959 11.5802 18.5559 11.5802 19.1859 12.1802L21.0259 14.0402C21.6459 14.6602 21.6459 15.6102 21.0459 16.2002C20.4159 16.8302 19.4659 16.8302 18.8659 16.2002ZM12.1559 19.2102C11.5559 18.5902 11.5359 17.6402 12.1559 17.0202C12.7559 16.4202 13.7159 16.4202 14.3159 17.0502L16.1759 18.9102C16.7859 19.5102 16.8059 20.4402 16.1759 21.0702C15.5859 21.6702 14.6159 21.6802 14.0159 21.0502Z"
        fillRule="evenodd"
        clipRule="evenodd"
    />
</svg>
        