<svg viewBox="0 0 33.69532110691583 33.696875012619174" xmlns="http://www.w3.org/2000/svg"><path d="M2.2061 31.4894C5.2361 34.5294 9.1761 34.4194 12.3861 31.2194C13.7861 29.8094 16.5961 25.6794 21.1361 21.1394C25.6861 16.5894 29.8061 13.7894 31.2161 12.3794C34.4261 9.1794 34.5261 5.2394 31.4861 2.2094C28.4561 -0.8306 24.5261 -0.7306 21.3161 2.4794C19.9061 3.8894 17.1061 8.0094 12.5561 12.5594C8.0161 17.1094 3.8861 19.9094 2.4861 21.3094C-0.7239 24.5194 -0.8339 28.4594 2.2061 31.4894ZM3.7061 29.9894C1.5761 27.8794 1.6861 25.0994 3.9661 22.7994C5.2961 21.4694 9.3961 18.6794 14.0261 14.0194C18.6761 9.3994 21.4761 5.2894 22.8061 3.9694C25.0861 1.6794 27.8761 1.5694 29.9961 3.6994C32.1261 5.8194 32.0161 8.6094 29.7361 10.8994C28.4061 12.2294 24.3061 15.0194 19.6761 19.6794C15.0161 24.2994 12.2261 28.3994 10.8961 29.7294C8.5961 32.0294 5.8161 32.1394 3.7061 29.9894ZM17.2361 14.6594L19.0361 16.4594C19.6461 17.0594 20.5461 17.0594 21.1261 16.4594C21.6961 15.8794 21.7161 14.9594 21.1261 14.3794L19.3161 12.5694C18.7361 11.9794 17.8061 11.9994 17.2261 12.5694C16.6361 13.1494 16.6561 14.0794 17.2361 14.6594ZM12.5561 19.3694L14.3461 21.1394C14.9261 21.7494 15.8461 21.7294 16.4361 21.1594C17.0261 20.5594 17.0261 19.6794 16.4361 19.0894L14.6061 17.2794C14.0161 16.6694 13.1261 16.6694 12.5561 17.2494C11.9461 17.8494 11.9661 18.7694 12.5561 19.3694Z" /></svg>