
<svg
    viewBox={0 0 27.18310546875 27.64453125}
    xmlns="http://www.w3.org/2000/svg"
>
    <path
        fill="inherit"
        d="M14.3896 10.4834L14.5296 7.7234V5.9834L17.7696 4.1534C18.2896 3.8534 18.4396 3.3334 18.2096 2.9034C17.9096 2.4034 17.3996 2.3534 16.8796 2.6434L14.5296 3.9834V0.9934C14.5296 0.4134 14.1696 0.0034 13.5896 0.0034C13.0096 0.0034 12.6296 0.4134 12.6296 0.9934V3.9834L10.2496 2.6434C9.7496 2.3534 9.2396 2.4034 8.9496 2.9034C8.7096 3.3334 8.8696 3.8534 9.3896 4.1434L12.6296 5.9834V7.7234L12.6696 8.7634ZM25.3896 27.1234C25.7996 27.5334 26.4796 27.5234 26.8796 27.1134C27.2896 26.7034 27.2896 26.0334 26.8796 25.6234L1.7996 0.5434C1.3896 0.1334 0.7196 0.1234 0.2996 0.5434C-0.1004 0.9434 -0.1004 1.6234 0.2996 2.0334ZM16.7896 12.8934L19.3396 11.6034L20.8296 10.7334L24.0496 12.6234C24.5496 12.9234 25.1096 12.7934 25.3596 12.3734C25.6496 11.8834 25.4296 11.4034 24.9296 11.1034L22.5796 9.7334L25.1696 8.2434C25.6896 7.9434 25.8396 7.4234 25.5396 6.9034C25.2596 6.4134 24.7396 6.2934 24.2096 6.5934L21.6096 8.0634L21.5996 5.3434C21.5996 4.7534 21.3096 4.3434 20.7396 4.3434C20.2296 4.3434 19.8596 4.7534 19.8596 5.3434L19.8896 9.0634L18.3896 9.9434L15.6196 11.7334ZM3.1296 12.6234L6.3496 10.7334L2.7496 7.1234L1.8396 6.7234C1.7596 6.7434 1.6796 6.7934 1.6196 6.9034C1.3096 7.4234 1.4896 7.9534 1.9896 8.2434L4.6896 9.6634L2.2396 11.1034C1.7296 11.4034 1.5296 11.8434 1.7996 12.3734C2.0496 12.8134 2.5896 12.9234 3.1296 12.6234ZM10.3696 14.7534L7.8296 16.0334L6.3096 16.9134L3.1096 15.0134C2.6096 14.7134 2.0596 14.8334 1.8296 15.2534C1.5396 15.7934 1.7296 16.2334 2.2296 16.5334L4.5796 17.9134L2.0096 19.4034C1.4996 19.6834 1.3196 20.2334 1.6196 20.7234C1.9096 21.2434 2.4396 21.3434 2.9496 21.0534L5.5496 19.5734L5.5596 22.2834C5.5596 22.8634 5.8496 23.2934 6.4396 23.2934C6.9296 23.2934 7.2996 22.8734 7.2996 22.2834L7.2796 18.5534L8.7896 17.7034L11.5396 15.9134ZM20.8096 16.9034L24.4196 20.5034L25.2996 20.9034C25.3896 20.8734 25.4496 20.8234 25.5196 20.7434C25.8396 20.2434 25.6496 19.6734 25.1396 19.3834L22.4496 17.9634L24.9096 16.5334C25.3996 16.2334 25.6196 15.7634 25.3296 15.2734C25.0696 14.8334 24.5196 14.7134 24.0196 15.0134ZM12.7796 17.1534L12.6296 19.9034V21.6434L9.3896 23.4834C8.8696 23.7734 8.7096 24.3134 8.9496 24.7334C9.2496 25.2334 9.7496 25.2834 10.2496 25.0034L12.6296 23.6534V26.6334C12.6296 27.2234 13.0096 27.6434 13.5896 27.6434C14.1696 27.6434 14.5296 27.2234 14.5296 26.6334V23.6634L16.8796 25.0034C17.3996 25.2834 17.9096 25.2334 18.2096 24.7334C18.4396 24.3134 18.2896 23.7734 17.7696 23.4834L14.5296 21.6434V19.9034L14.4996 18.8834Z"
        fillRule="evenodd"
        clipRule="evenodd"
    />
</svg>
        