
<svg
    viewBox="0 0 39.39019636459362 20.466796875"
    xmlns="http://www.w3.org/2000/svg"
>
    <path
        fill="inherit"
        d="M9.0233 3.634H10.0033C10.6233 3.634 10.8833 3.404 11.0833 2.884L11.8933 0.844C12.0833 0.394 11.8833 0.004 11.4033 0.004H10.5033C10.0333 0.004 9.7433 0.234 9.5333 0.644L8.4533 2.724C8.2333 3.134 8.4533 3.634 9.0233 3.634ZM29.3833 3.634H30.3633C30.9433 3.634 31.1533 3.134 30.9433 2.724L29.8633 0.644C29.6533 0.234 29.3533 0.004 28.8933 0.004H27.9833C27.5033 0.004 27.3033 0.394 27.4933 0.844L28.3033 2.884C28.5033 3.404 28.7633 3.634 29.3833 3.634ZM19.7033 19.454C20.1433 19.454 20.4433 19.144 20.4433 18.674V17.174L21.6133 17.844C22.0233 18.074 22.4333 17.974 22.6433 17.614C22.8433 17.264 22.7133 16.844 22.3233 16.614L20.4433 15.554V14.604L20.2933 11.964L22.5433 13.394L23.3333 13.874V16.054C23.3333 16.484 23.6133 16.814 24.0233 16.814C24.4433 16.814 24.7233 16.514 24.7233 16.054L24.7333 14.674L26.0433 15.434C26.4233 15.664 26.8533 15.574 27.0833 15.194C27.3033 14.794 27.1933 14.374 26.7933 14.134L25.4833 13.384L26.6433 12.704C27.0433 12.454 27.1933 12.074 26.9833 11.714C26.7733 11.364 26.3333 11.264 25.9533 11.484L24.0933 12.574L23.2733 12.104L20.8733 10.914L23.2733 9.724L24.0933 9.224L25.9533 10.334C26.3333 10.544 26.7833 10.454 26.9833 10.114C27.1933 9.734 27.0433 9.364 26.6433 9.104L25.4833 8.424L26.7933 7.684C27.1933 7.454 27.3033 7.044 27.0833 6.634C26.8833 6.244 26.4233 6.154 26.0433 6.374L24.7333 7.134L24.7233 5.774C24.7233 5.314 24.4433 4.994 24.0333 4.994C23.6133 4.994 23.3333 5.334 23.3333 5.774V7.934L22.5433 8.404L20.2933 9.854L20.4433 7.214V6.264L22.3233 5.204C22.7133 4.974 22.8433 4.554 22.6433 4.214C22.4333 3.844 22.0233 3.744 21.6133 3.974L20.4433 4.644V3.144C20.4433 2.664 20.1433 2.364 19.7033 2.364C19.2633 2.364 18.9533 2.684 18.9533 3.144V4.664L17.7633 3.974C17.3533 3.764 16.9533 3.844 16.7433 4.214C16.5433 4.554 16.6833 4.974 17.0633 5.194L18.9533 6.264V7.214L19.1033 9.854L16.8733 8.424L16.0533 7.934L16.0633 5.774C16.0633 5.334 15.7733 4.994 15.3633 4.994C14.9433 4.994 14.6733 5.304 14.6733 5.774L14.6533 7.134L13.3433 6.374C12.9433 6.134 12.5133 6.264 12.3033 6.634C12.0733 7.024 12.2133 7.454 12.5933 7.684L13.9033 8.424L12.7433 9.104C12.3433 9.354 12.2133 9.724 12.4033 10.114C12.6033 10.454 13.0533 10.554 13.4533 10.334L15.3033 9.244L16.1333 9.724L18.5133 10.914L16.1333 12.104L15.3033 12.574L13.4533 11.484C13.0533 11.264 12.6033 11.344 12.4133 11.694C12.2233 12.074 12.3333 12.464 12.7433 12.704L13.9033 13.384L12.5933 14.134C12.2133 14.374 12.0833 14.794 12.3033 15.194C12.5233 15.574 12.9433 15.664 13.3433 15.434L14.6533 14.684L14.6733 16.054C14.6733 16.514 14.9433 16.814 15.3633 16.814C15.7733 16.814 16.0633 16.484 16.0633 16.054L16.0533 13.874L16.8733 13.394L19.1033 11.964L18.9533 14.604V15.554L17.0633 16.624C16.6833 16.844 16.5433 17.264 16.7433 17.614C16.9533 17.974 17.3533 18.064 17.7633 17.844L18.9533 17.154V18.674C18.9533 19.124 19.2633 19.454 19.7033 19.454ZM5.2733 11.234H6.7933C7.4233 11.234 7.7933 11.024 8.0233 10.434L9.2133 7.504C9.4033 7.024 9.1033 6.564 8.5733 6.564H7.2233C6.7533 6.564 6.3733 6.794 6.1533 7.214L4.6333 10.174C4.3633 10.694 4.6933 11.234 5.2733 11.234ZM32.6033 11.234H34.1133C34.7033 11.234 35.0233 10.694 34.7633 10.174L33.2533 7.214C33.0133 6.794 32.6333 6.564 32.1733 6.564H30.8133C30.2833 6.564 29.9833 7.024 30.1733 7.504L31.3633 10.434C31.6133 11.024 31.9633 11.234 32.6033 11.234ZM1.1033 20.464H2.8933C3.7233 20.464 4.1333 20.074 4.3433 19.484L6.0133 15.394C6.2633 14.794 5.8833 14.204 5.2233 14.204H3.6733C2.8133 14.204 2.3933 14.534 2.0933 15.104L0.1533 18.954C-0.2067 19.644 0.0533 20.464 1.1033 20.464ZM36.4933 20.464H38.2833C39.3433 20.464 39.5933 19.644 39.2333 18.954L37.2933 15.104C36.9933 14.534 36.5733 14.204 35.7133 14.204H34.1833C33.5133 14.204 33.1233 14.794 33.3733 15.394L35.0433 19.484C35.2733 20.074 35.6733 20.464 36.4933 20.464Z"
        fillRule="evenodd"
        clipRule="evenodd"
    />
</svg>
        