
<svg
    viewBox={0 0 27.890625 27.890625}
    xmlns="http://www.w3.org/2000/svg"
>
    <path
        fill="inherit"
        d="M13.9427 27.8864C21.6427 27.8864 27.8927 21.6464 27.8927 13.9464C27.8927 6.2464 21.6427 -0.0036 13.9427 -0.0036C6.2527 -0.0036 0.0027 6.2464 0.0027 13.9464C0.0027 21.6464 6.2527 27.8864 13.9427 27.8864ZM13.9427 25.5664C7.5227 25.5664 2.3227 20.3664 2.3227 13.9464C2.3227 7.5164 7.5227 2.3264 13.9427 2.3264C20.3727 2.3264 25.5627 7.5164 25.5627 13.9464C25.5627 20.3664 20.3727 25.5664 13.9427 25.5664ZM13.9227 22.4864C14.3727 22.4864 14.6727 22.1764 14.6727 21.7064V20.2064L15.8427 20.8764C16.2527 21.0964 16.6627 21.0164 16.8727 20.6464C17.0727 20.3064 16.9427 19.8764 16.5527 19.6464L14.6727 18.5964V17.6364L14.5227 14.9964L16.7727 16.4364L17.5727 16.9164V19.0864C17.5727 19.5264 17.8427 19.8564 18.2427 19.8564C18.6727 19.8564 18.9527 19.5464 18.9527 19.0864L18.9627 17.6864L20.2727 18.4664C20.6627 18.7064 21.0827 18.6064 21.3127 18.2264C21.5327 17.8264 21.4227 17.4064 21.0227 17.1764L19.7127 16.4164L20.8727 15.7364C21.2727 15.4864 21.4127 15.1064 21.2227 14.7564C21.0027 14.3964 20.5627 14.2964 20.1827 14.5164L18.3227 15.6164L17.5027 15.1164L15.1027 13.9464L17.5027 12.7564L18.3227 12.2664L20.1827 13.3664C20.5627 13.5764 21.0127 13.4964 21.2227 13.1564C21.4127 12.7664 21.2727 12.3964 20.8727 12.1364L19.7127 11.4564L21.0227 10.7164C21.4227 10.4864 21.5327 10.0764 21.3127 9.6664C21.1127 9.2864 20.6627 9.1864 20.2727 9.4064L18.9627 10.1764L18.9527 8.8064C18.9527 8.3564 18.6727 8.0264 18.2527 8.0264C17.8427 8.0264 17.5727 8.3664 17.5727 8.8064V10.9664L16.7627 11.4464L14.5227 12.8764L14.6727 10.2564V9.2964L16.5527 8.2464C16.9427 8.0164 17.0727 7.5864 16.8727 7.2464C16.6627 6.8764 16.2527 6.7764 15.8427 7.0164L14.6727 7.6864V6.1764C14.6727 5.6964 14.3727 5.3964 13.9227 5.3964C13.4927 5.3964 13.1827 5.7164 13.1827 6.1764V7.6964L11.9927 7.0164C11.5627 6.7964 11.1827 6.8764 10.9627 7.2464C10.7727 7.5864 10.9127 8.0164 11.2927 8.2264L13.1827 9.2964V10.2564L13.3327 12.8764L11.1027 11.4564L10.2827 10.9664L10.2927 8.8064C10.2927 8.3664 10.0127 8.0264 9.5927 8.0264C9.1727 8.0264 8.9027 8.3364 8.9027 8.8064L8.8827 10.1764L7.5727 9.4064C7.1827 9.1764 6.7427 9.2964 6.5327 9.6664C6.3027 10.0664 6.4227 10.4864 6.8227 10.7164L8.1327 11.4564L6.9727 12.1364C6.5727 12.3864 6.4427 12.7564 6.6327 13.1564C6.8327 13.4964 7.2827 13.5864 7.6827 13.3664L9.5327 12.2764L10.3527 12.7564L12.7427 13.9464L10.3527 15.1164L9.5327 15.6164L7.6827 14.5164C7.2827 14.2964 6.8327 14.3864 6.6427 14.7264C6.4527 15.1064 6.5627 15.4864 6.9727 15.7364L8.1327 16.4164L6.8227 17.1764C6.4227 17.4064 6.3127 17.8264 6.5327 18.2264C6.7527 18.6064 7.1827 18.7064 7.5727 18.4664L8.8827 17.7164L8.9027 19.0864C8.9027 19.5464 9.1727 19.8564 9.5927 19.8564C10.0127 19.8564 10.2927 19.5264 10.2927 19.0864L10.2827 16.9164L11.1027 16.4364L13.3327 14.9964L13.1827 17.6364V18.5964L11.2927 19.6464C10.9127 19.8764 10.7727 20.3064 10.9627 20.6464C11.1827 21.0164 11.5627 21.0864 11.9927 20.8764L13.1827 20.1964V21.7064C13.1827 22.1664 13.4927 22.4864 13.9227 22.4864Z"
        fillRule="evenodd"
        clipRule="evenodd"
    />
</svg>
        