
<svg
    viewBox="0 0 39.40299900449957 20.466796875"
    xmlns="http://www.w3.org/2000/svg"
>
    <path
        fill="inherit"
        d="M1.1238 20.464H2.8938C3.7238 20.464 4.1338 20.074 4.3638 19.484L11.9038 0.844C12.1038 0.394 11.8838 0.004 11.4038 0.004H10.5138C10.0338 0.004 9.7338 0.234 9.5338 0.644L0.1638 18.954C-0.2162 19.644 0.0538 20.464 1.1238 20.464ZM36.5038 20.464H38.2938C39.3438 20.464 39.6238 19.644 39.2338 18.954L29.8838 0.644C29.6638 0.234 29.3638 0.004 28.8938 0.004H28.0038C27.5238 0.004 27.3138 0.394 27.4938 0.844L35.0438 19.484C35.2738 20.074 35.6838 20.464 36.5038 20.464ZM19.6838 19.454C20.1238 19.454 20.4438 19.144 20.4438 18.674V17.174L21.6138 17.844C22.0238 18.074 22.4238 17.974 22.6438 17.614C22.8338 17.264 22.7138 16.844 22.3238 16.614L20.4438 15.554V14.604L20.2938 11.964L22.5338 13.394L23.3338 13.874L23.3238 16.054C23.3238 16.484 23.6138 16.814 24.0038 16.814C24.4438 16.814 24.7238 16.514 24.7238 16.054L24.7338 14.674L26.0438 15.434C26.4238 15.664 26.8338 15.574 27.0838 15.194C27.3038 14.794 27.1838 14.374 26.7838 14.134L25.4738 13.384L26.6438 12.704C27.0438 12.454 27.1838 12.074 26.9738 11.714C26.7538 11.364 26.3138 11.264 25.9338 11.484L24.0738 12.574L23.2538 12.104L20.8738 10.914L23.2538 9.724L24.0738 9.224L25.9338 10.334C26.3138 10.544 26.7738 10.454 26.9738 10.114C27.1838 9.734 27.0438 9.364 26.6438 9.104L25.4738 8.424L26.7838 7.684C27.1838 7.454 27.3038 7.044 27.0838 6.634C26.8638 6.244 26.4238 6.154 26.0438 6.374L24.7338 7.134L24.7238 5.774C24.7238 5.314 24.4438 4.994 24.0238 4.994C23.6138 4.994 23.3238 5.334 23.3238 5.774L23.3338 7.934L22.5338 8.404L20.2938 9.854L20.4438 7.214V6.264L22.3238 5.204C22.7138 4.974 22.8338 4.554 22.6438 4.214C22.4238 3.844 22.0238 3.744 21.6138 3.974L20.4438 4.644V3.144C20.4438 2.664 20.1238 2.364 19.6838 2.364C19.2638 2.364 18.9538 2.684 18.9538 3.144V4.664L17.7638 3.974C17.3338 3.764 16.9538 3.844 16.7338 4.214C16.5438 4.554 16.6838 4.974 17.0538 5.194L18.9538 6.264V7.214L19.1038 9.854L16.8738 8.424L16.0338 7.934L16.0538 5.774C16.0538 5.334 15.7638 4.994 15.3638 4.994C14.9338 4.994 14.6738 5.304 14.6738 5.774L14.6538 7.134L13.3438 6.374C12.9438 6.134 12.5138 6.264 12.2938 6.634C12.0738 7.024 12.1938 7.454 12.5938 7.684L13.9038 8.424L12.7238 9.104C12.3338 9.354 12.1938 9.724 12.4038 10.114C12.6038 10.454 13.0538 10.554 13.4438 10.334L15.3038 9.244L16.1238 9.724L18.4938 10.914L16.1238 12.104L15.3038 12.574L13.4438 11.484C13.0538 11.264 12.6038 11.344 12.4138 11.694C12.2138 12.074 12.3138 12.464 12.7238 12.704L13.9038 13.384L12.5938 14.134C12.1938 14.374 12.0838 14.794 12.2938 15.194C12.5238 15.574 12.9438 15.664 13.3438 15.434L14.6538 14.684L14.6738 16.054C14.6738 16.514 14.9338 16.814 15.3638 16.814C15.7638 16.814 16.0538 16.484 16.0538 16.054L16.0338 13.874L16.8738 13.394L19.1038 11.964L18.9538 14.604V15.554L17.0538 16.624C16.6838 16.844 16.5438 17.264 16.7338 17.614C16.9538 17.974 17.3338 18.064 17.7638 17.844L18.9538 17.154V18.674C18.9538 19.124 19.2638 19.454 19.6838 19.454Z"
        fillRule="evenodd"
        clipRule="evenodd"
    />
</svg>
        