<svg viewBox="0 0 27.890625 27.890625" xmlns="http://www.w3.org/2000/svg"><path d="M13.9427 27.8864C21.6427 27.8864 27.8927 21.6264 27.8927 13.9464C27.8927 6.2464 21.6427 -0.0036 13.9427 -0.0036C6.2627 -0.0036 0.0027 6.2464 0.0027 13.9464C0.0027 21.6264 6.2627 27.8864 13.9427 27.8864ZM13.9427 21.5064C9.7727 21.5064 6.4027 18.1264 6.4027 13.9564C6.4027 9.7864 9.7727 6.3964 13.9427 6.3964C18.1127 6.3964 21.5027 9.7864 21.5027 13.9564C21.5027 18.1264 18.1127 21.5064 13.9427 21.5064ZM8.9027 9.9664L9.4927 11.8764L11.5427 12.7164L13.3527 11.3364V9.1764L11.7627 7.9164C10.6227 8.3164 9.6527 9.0464 8.9027 9.9664ZM19.0027 9.9664C18.2827 9.0464 17.2827 8.3164 16.1427 7.9164L14.5927 9.1464V11.3364L16.3827 12.7164L18.4327 11.8764ZM8.5727 17.4464L10.7427 17.4064L11.8527 15.9564L11.1927 13.9064L9.1627 13.0664L7.5427 13.9964C7.5627 15.2764 7.9327 16.4364 8.5727 17.4464ZM19.3327 17.4764C19.9727 16.4764 20.3527 15.2764 20.3727 13.9964L18.7627 13.0664L16.7227 13.9064L16.0627 15.9664L17.1727 17.4364ZM13.9627 20.3564C14.5727 20.3564 15.1727 20.2764 15.7327 20.0964L16.2027 18.1664L15.1927 16.8564H12.7027L11.7127 18.1264L12.1827 20.0964C12.7427 20.2664 13.3427 20.3564 13.9627 20.3564Z" /></svg>