
<svg
    viewBox={0 0 27.890625 27.890625}
    xmlns="http://www.w3.org/2000/svg"
>
    <path
        fill="inherit"
        d="M13.9427 27.8864C21.6427 27.8864 27.8927 21.6264 27.8927 13.9464C27.8927 6.2464 21.6427 -0.0036 13.9427 -0.0036C6.2627 -0.0036 0.0027 6.2464 0.0027 13.9464C0.0027 21.6264 6.2627 27.8864 13.9427 27.8864ZM13.9627 21.2464C9.9627 21.2464 6.6627 17.9364 6.6627 13.9464C6.6627 9.9564 9.9527 6.6264 13.9427 6.6264C17.9527 6.6264 21.2727 9.9564 21.2727 13.9464C21.2727 17.9364 17.9527 21.2464 13.9627 21.2464ZM13.9627 7.7364C13.2027 7.7364 12.4427 7.8764 11.7627 8.1464L13.5327 9.5464V11.4564L11.6027 12.9164L9.8027 12.1964L9.1427 10.0364C8.2727 11.1064 7.7227 12.4564 7.7227 13.9564L9.4727 12.9864L11.3727 13.7564L12.1027 15.9864L11.0727 17.2664L8.7327 17.2964C9.5427 18.5564 10.7727 19.4864 12.2227 19.9064L11.7327 17.8164L12.6727 16.6064H15.2327L16.1727 17.8164L15.6927 19.9064C17.1327 19.4864 18.3627 18.5564 19.1727 17.2964L16.8427 17.2664L15.8027 15.9664L16.5327 13.7564L18.4327 12.9864L20.1827 13.9564C20.1827 12.4564 19.6327 11.1064 18.7727 10.0364L18.1027 12.1964L16.2927 12.9164L14.3827 11.4564V9.5464L16.1427 8.1464C15.4627 7.8764 14.7227 7.7364 13.9627 7.7364Z"
        fillRule="evenodd"
        clipRule="evenodd"
    />
</svg>
        