
<svg
    viewBox={0 0 27.890625 27.890625}
    xmlns="http://www.w3.org/2000/svg"
>
    <path
        fill="inherit"
        d="M13.9427 27.8864C21.6427 27.8864 27.8927 21.6464 27.8927 13.9464C27.8927 6.2464 21.6427 -0.0036 13.9427 -0.0036C6.2527 -0.0036 0.0027 6.2464 0.0027 13.9464C0.0027 21.6464 6.2527 27.8864 13.9427 27.8864ZM13.9427 25.5664C7.5227 25.5664 2.3227 20.3664 2.3227 13.9464C2.3227 7.5164 7.5227 2.3264 13.9427 2.3264C20.3727 2.3264 25.5627 7.5164 25.5627 13.9464C25.5627 20.3664 20.3727 25.5664 13.9427 25.5664ZM13.9327 21.2564C17.9827 21.2564 21.2627 17.9964 21.2627 13.9464C21.2627 9.8964 17.9827 6.6164 13.9327 6.6164C9.8827 6.6164 6.6127 9.8964 6.6127 13.9464C6.6127 17.9964 9.8827 21.2564 13.9327 21.2564ZM9.0327 10.0864C9.7627 9.1964 10.7027 8.4764 11.8127 8.0964L13.3527 9.3264V11.4164L11.5927 12.7564L9.6127 11.9464ZM18.8427 10.0864L18.2827 11.9464L16.2927 12.7564L14.5427 11.4164V9.2964L16.0627 8.0964C17.1727 8.4764 18.1327 9.1964 18.8427 10.0864ZM8.7227 17.3364C8.0927 16.3664 7.7427 15.2264 7.7227 13.9964L9.2927 13.0964L11.2627 13.9064L11.9127 15.8964L10.8327 17.2964ZM19.1527 17.3664L17.0627 17.3264L15.9827 15.9164L16.6227 13.9064L18.5927 13.0964L20.1627 13.9964C20.1527 15.2264 19.7827 16.3964 19.1527 17.3664ZM13.9427 20.1664C13.3427 20.1664 12.7727 20.0664 12.2227 19.9164L11.7727 18.0064L12.7327 16.7764H15.1327L16.1227 18.0464L15.6727 19.9164C15.1227 20.0864 14.5427 20.1664 13.9427 20.1664Z"
        fillRule="evenodd"
        clipRule="evenodd"
    />
</svg>
        