
<svg
    viewBox="0 0 27.890625 27.890625"
    xmlns="http://www.w3.org/2000/svg"
>
    <path
        fill="inherit"
        d="M13.9427 27.8864C21.6427 27.8864 27.8927 21.6464 27.8927 13.9464C27.8927 6.2464 21.6427 -0.0036 13.9427 -0.0036C6.2527 -0.0036 0.0027 6.2464 0.0027 13.9464C0.0027 21.6464 6.2527 27.8864 13.9427 27.8864ZM14.7127 9.0364V5.4364L18.1927 2.6264C20.2027 3.3764 21.9527 4.6464 23.2927 6.2864L21.9827 10.6064L18.5427 12.0064ZM5.9027 10.6064L4.5927 6.2864C5.9327 4.6664 7.6727 3.3864 9.6827 2.6364L13.1927 5.4664V9.0364L9.3527 12.0064ZM1.8627 13.9864L5.3627 12.0264L8.9127 13.4664L10.3527 17.9064L8.4327 20.3564L3.7427 20.4264C2.5527 18.5664 1.8727 16.3564 1.8627 13.9864ZM19.4427 20.4164L17.5227 17.9464L18.9727 13.4664L22.5327 12.0264L26.0327 13.9864C26.0327 16.3564 25.3227 18.5964 24.1127 20.4764ZM13.9427 26.0264C12.7827 26.0264 11.6627 25.8664 10.5927 25.5664L9.6127 21.3164L11.3227 19.1264H16.5127L18.2627 21.3664L17.2927 25.5664C16.2327 25.8664 15.1027 26.0264 13.9427 26.0264Z"
        fillRule="evenodd"
        clipRule="evenodd"
    />
</svg>
        