
<svg
    viewBox="0 0 27.890625 27.890625"
    xmlns="http://www.w3.org/2000/svg"
>
    <path
        fill="inherit"
        d="M13.9427 27.8864C21.6427 27.8864 27.8927 21.6464 27.8927 13.9464C27.8927 6.2464 21.6427 -0.0036 13.9427 -0.0036C6.2527 -0.0036 0.0027 6.2464 0.0027 13.9464C0.0027 21.6464 6.2527 27.8864 13.9427 27.8864ZM13.9427 25.5664C7.5227 25.5664 2.3227 20.3664 2.3227 13.9464C2.3227 7.5164 7.5227 2.3264 13.9427 2.3264C20.3727 2.3264 25.5627 7.5164 25.5627 13.9464C25.5627 20.3664 20.3727 25.5664 13.9427 25.5664ZM13.9327 21.2464C17.9627 21.2464 21.2427 17.9764 21.2427 13.9464C21.2427 9.9164 17.9627 6.6264 13.9327 6.6264C9.9027 6.6264 6.6327 9.9164 6.6327 13.9464C6.6327 17.9764 9.9027 21.2464 13.9327 21.2464ZM13.9327 7.7364C14.6927 7.7364 15.4327 7.8764 16.1227 8.1464L14.3527 9.5464V11.4564L16.2727 12.9164L18.0727 12.1964L18.7427 10.0364C19.6027 11.1064 20.1527 12.4564 20.1527 13.9564L18.4027 12.9864L16.5027 13.7564L15.7727 15.9664L16.8127 17.2664L19.1427 17.2964C18.3327 18.5564 17.1027 19.4864 15.6727 19.9064L16.1427 17.8164L15.2027 16.6064H12.6427L11.7027 17.8164L12.1927 19.9064C10.7427 19.4864 9.5127 18.5564 8.7127 17.2964L11.0427 17.2664L12.0727 15.9864L11.3427 13.7564L9.4427 12.9864L7.6927 13.9564C7.6927 12.4564 8.2427 11.1064 9.1227 10.0364L9.7727 12.1964L11.5827 12.9164L13.5127 11.4564V9.5464L11.7327 8.1464C12.4127 7.8764 13.1827 7.7364 13.9327 7.7364Z"
        fillRule="evenodd"
        clipRule="evenodd"
    />
</svg>
        