
<svg
    viewBox="0 0 27.890625 27.890625"
    xmlns="http://www.w3.org/2000/svg"
>
    <path
        fill="inherit"
        d="M13.9427 27.8864C21.6427 27.8864 27.8927 21.6264 27.8927 13.9464C27.8927 6.2464 21.6427 -0.0036 13.9427 -0.0036C6.2627 -0.0036 0.0027 6.2464 0.0027 13.9464C0.0027 21.6264 6.2627 27.8864 13.9427 27.8864ZM7.4227 18.5664C5.5627 18.5664 4.5927 17.5964 4.5827 15.9864C4.5627 15.7864 4.7027 15.6564 4.9127 15.6564H6.1927C6.3527 15.6564 6.4627 15.7464 6.4927 15.9264C6.5727 16.5864 6.8727 16.8864 7.4327 16.8864C8.0027 16.8864 8.2427 16.6564 8.2427 16.1164C8.2427 15.5864 7.9727 15.3364 7.1127 14.9064L6.5927 14.6264C5.2227 13.9364 4.6927 13.1764 4.6927 11.8964C4.6927 10.3464 5.7027 9.2664 7.4227 9.2664C9.2127 9.2664 10.0727 10.3664 10.0927 11.8364C10.0927 12.0464 9.9627 12.1664 9.7627 12.1664H8.5627C8.3627 12.1664 8.2827 12.0764 8.2427 11.8764C8.1227 11.2564 7.8727 10.9464 7.4227 10.9464C6.9727 10.9464 6.6727 11.2564 6.6727 11.6864C6.6727 12.1864 6.9227 12.5064 7.7227 12.9364L8.2627 13.2164C9.6927 13.9864 10.2127 14.6064 10.2127 15.9164C10.2127 17.4964 9.1727 18.5664 7.4227 18.5664ZM20.4927 18.5664C18.6327 18.5664 17.6627 17.5964 17.6327 15.9864C17.6327 15.7864 17.7727 15.6564 17.9527 15.6564H19.2527C19.4327 15.6564 19.5327 15.7464 19.5627 15.9264C19.6427 16.5864 19.9427 16.8864 20.5127 16.8864C21.0827 16.8864 21.3127 16.6564 21.3127 16.1164C21.3127 15.5864 21.0427 15.3564 20.1827 14.9064L19.6627 14.6264C18.2927 13.9364 17.7627 13.1764 17.7627 11.8964C17.7627 10.3464 18.7727 9.2664 20.4927 9.2664C22.2827 9.2664 23.1427 10.3664 23.1627 11.8364C23.1627 12.0464 23.0327 12.1664 22.8327 12.1664H21.6127C21.4327 12.1664 21.3527 12.0764 21.3127 11.8764C21.1927 11.2564 20.9427 10.9464 20.4927 10.9464C20.0427 10.9464 19.7327 11.2564 19.7327 11.6864C19.7327 12.1864 19.9927 12.5064 20.7927 12.9364L21.3327 13.2164C22.7727 13.9864 23.2827 14.6064 23.2827 15.9164C23.2827 17.4964 22.2427 18.5664 20.4927 18.5664ZM13.9427 18.5664C11.8227 18.5664 10.7227 17.0064 10.7227 13.9464C10.7227 10.9064 11.8127 9.2664 13.9427 9.2664C16.0527 9.2664 17.1427 10.9064 17.1427 13.9464C17.1427 17.0064 16.0327 18.5664 13.9427 18.5664ZM13.9427 16.8164C14.7127 16.8164 15.0827 15.9964 15.0827 13.9464C15.0827 11.8964 14.7127 11.0464 13.9427 11.0464C13.1427 11.0464 12.7527 11.8964 12.7527 13.9464C12.7527 15.9964 13.1427 16.8164 13.9427 16.8164Z"
        fillRule="evenodd"
        clipRule="evenodd"
    />
</svg>
        