
<svg
    viewBox={0 0 28.095703125 29.72265625}
    xmlns="http://www.w3.org/2000/svg"
>
    <path
        fill="inherit"
        d="M5.4237 1.7624H22.6837C22.6037 0.6024 21.9437 0.0024 20.6737 0.0024H7.4237C6.1637 0.0024 5.5137 0.6024 5.4237 1.7624ZM2.6137 5.5524H25.4937C25.2937 4.3024 24.7037 3.6224 23.3337 3.6224H4.7737C3.4037 3.6224 2.8137 4.3024 2.6137 5.5524ZM4.1537 29.7224H23.9437C26.6837 29.7224 28.0937 28.3324 28.0937 25.6124V11.8524C28.0937 9.1324 26.6837 7.7524 23.9437 7.7524H4.1537C1.3837 7.7524 0.0037 9.1324 0.0037 11.8524V25.6124C0.0037 28.3324 1.3837 29.7224 4.1537 29.7224ZM14.7537 24.3924C14.4637 24.3924 14.2637 24.2124 14.2237 23.9224C13.6137 19.8124 13.0837 18.8924 8.7637 18.4524C8.4737 18.4124 8.3037 18.2124 8.3037 17.9424C8.3037 17.6824 8.4737 17.4724 8.7637 17.4224C13.0737 16.8424 13.4537 16.0924 14.2237 11.9324C14.2837 11.6624 14.4937 11.4824 14.7537 11.4824C15.0137 11.4824 15.2137 11.6724 15.2537 11.9524C15.8737 16.0224 16.4337 16.8424 20.7237 17.4224C21.0037 17.4724 21.2037 17.6824 21.2037 17.9424C21.2037 18.2124 21.0037 18.4124 20.7237 18.4524C16.4237 19.0324 16.0337 19.8124 15.2537 23.9424C15.2037 24.2124 15.0137 24.3924 14.7537 24.3924ZM9.2037 26.7024C8.9937 26.7024 8.8737 26.5524 8.8037 26.3424C8.3937 24.3224 8.5737 24.2224 6.3537 23.9024C6.1237 23.8524 6.0037 23.7224 6.0037 23.5024C6.0037 23.3124 6.1237 23.1424 6.3337 23.1224C8.5737 22.7524 8.3937 22.6524 8.8037 20.6624C8.8737 20.4424 9.0137 20.2924 9.2037 20.2924C9.4237 20.2924 9.5437 20.4524 9.5937 20.6624C9.9837 22.6524 9.8437 22.7524 12.0837 23.1224C12.2737 23.1424 12.4137 23.3124 12.4137 23.5024C12.4137 23.6924 12.2737 23.8524 12.0837 23.9024C9.8437 24.2224 9.9837 24.3224 9.5937 26.3824C9.5437 26.5624 9.4037 26.7024 9.2037 26.7024Z"
        fillRule="evenodd"
        clipRule="evenodd"
    />
</svg>
        