
<svg
    viewBox={0 0 28.9296875 28.642578125}
    xmlns="http://www.w3.org/2000/svg"
>
    <path
        fill="inherit"
        d="M4.2937 22.3119H6.6337V24.4019C6.6337 27.2219 8.0537 28.6419 10.9237 28.6419H24.6537C27.4937 28.6419 28.9337 27.2219 28.9337 24.4019V10.5719C28.9337 7.7519 27.4937 6.3319 24.6537 6.3319H22.3037V4.2419C22.3037 1.4219 20.8637 0.0019 18.0237 0.0019H4.2937C1.4237 0.0019 0.0037 1.4219 0.0037 4.2419V18.0719C0.0037 20.8919 1.4237 22.3119 4.2937 22.3119ZM4.3237 20.1119C2.9537 20.1119 2.2037 19.3719 2.2037 17.9519V4.3619C2.2037 2.9419 2.9537 2.2019 4.3237 2.2019H17.9737C19.3337 2.2019 20.0937 2.9419 20.0937 4.3619V6.3319H10.9237C8.0537 6.3319 6.6337 7.7419 6.6337 10.5719V20.1119ZM18.4937 23.1619C18.1937 23.1619 18.0037 22.9719 17.9537 22.6919C17.3637 18.5619 16.8137 17.6519 12.5137 17.2119C12.2237 17.1719 12.0337 16.9619 12.0337 16.6919C12.0337 16.4319 12.2237 16.2319 12.5137 16.1919C16.8037 15.6019 17.1837 14.8619 17.9537 10.7019C18.0337 10.4319 18.2237 10.2419 18.4937 10.2419C18.7437 10.2419 18.9537 10.4419 19.0037 10.7219C19.6037 14.7819 20.1837 15.6019 24.4737 16.1919C24.7437 16.2319 24.9337 16.4319 24.9337 16.6919C24.9337 16.9619 24.7437 17.1819 24.4737 17.2119C20.1637 17.7919 19.7837 18.5619 19.0037 22.7119C18.9337 22.9719 18.7437 23.1619 18.4937 23.1619ZM12.9337 25.4619C12.7237 25.4619 12.6037 25.3219 12.5337 25.1019C12.1437 23.0819 12.3137 22.9919 10.1037 22.6519C9.8737 22.6119 9.7337 22.4919 9.7337 22.2719C9.7337 22.0619 9.8737 21.9119 10.0737 21.8919C12.3137 21.5019 12.1437 21.4119 12.5337 19.4119C12.6037 19.1919 12.7437 19.0619 12.9337 19.0619C13.1537 19.0619 13.2937 19.2119 13.3437 19.4119C13.7137 21.4119 13.5937 21.5019 15.8137 21.8919C16.0137 21.9119 16.1637 22.0619 16.1637 22.2719C16.1637 22.4619 16.0137 22.6119 15.8137 22.6519C13.5737 22.9919 13.7137 23.0819 13.3437 25.1419C13.2937 25.3319 13.1437 25.4619 12.9337 25.4619Z"
        fillRule="evenodd"
        clipRule="evenodd"
    />
</svg>
        