
<svg
    viewBox={0 0 25.29296875 31.185546875}
    xmlns="http://www.w3.org/2000/svg"
>
    <path
        fill="inherit"
        d="M11.8809 6.6548C12.0609 6.6548 12.1509 6.5448 12.1809 6.3848C12.5909 4.1748 12.5509 4.0648 14.9309 3.6348C15.0909 3.5948 15.2009 3.5048 15.2009 3.3248C15.2009 3.1548 15.0909 3.0448 14.9309 3.0248C12.5509 2.5948 12.5909 2.4848 12.1809 0.2748C12.1509 0.1048 12.0609 0.0048 11.8809 0.0048C11.7009 0.0048 11.6109 0.1048 11.5809 0.2748C11.1709 2.4848 11.2109 2.5948 8.8309 3.0248C8.6509 3.0448 8.5609 3.1548 8.5609 3.3248C8.5609 3.5048 8.6509 3.5948 8.8309 3.6348C11.2109 4.0648 11.1709 4.1748 11.5809 6.3848C11.6109 6.5448 11.7009 6.6548 11.8809 6.6548ZM5.2609 16.0648C5.5209 16.0648 5.7009 15.8848 5.7309 15.6448C6.2209 11.9948 6.3409 11.9948 10.1209 11.2648C10.3509 11.2248 10.5309 11.0648 10.5309 10.8048C10.5309 10.5548 10.3509 10.3748 10.1209 10.3448C6.3409 9.8148 6.2109 9.6948 5.7309 5.9848C5.7009 5.7248 5.5209 5.5548 5.2609 5.5548C5.0209 5.5548 4.8409 5.7248 4.8009 6.0048C4.3609 9.6548 4.1609 9.6348 0.4109 10.3448C0.1809 10.3948 0.0009 10.5548 0.0009 10.8048C0.0009 11.0748 0.1809 11.2248 0.4609 11.2648C4.1809 11.8648 4.3609 11.9648 4.8009 15.6148C4.8409 15.8848 5.0209 16.0648 5.2609 16.0648ZM14.5309 31.1848C14.8909 31.1848 15.1509 30.9248 15.2209 30.5548C16.1909 23.0748 17.2409 21.9248 24.6509 21.1048C25.0309 21.0648 25.2909 20.7948 25.2909 20.4248C25.2909 20.0748 25.0309 19.7948 24.6509 19.7548C17.2409 18.9348 16.1909 17.7848 15.2209 10.2948C15.1509 9.9248 14.8909 9.6748 14.5309 9.6748C14.1809 9.6748 13.9209 9.9248 13.8609 10.2948C12.8909 17.7848 11.8309 18.9348 4.4309 19.7548C4.0309 19.7948 3.7709 20.0748 3.7709 20.4248C3.7709 20.7948 4.0309 21.0648 4.4309 21.1048C11.8109 22.0848 12.8409 23.0748 13.8609 30.5548C13.9209 30.9248 14.1809 31.1848 14.5309 31.1848Z"
        fillRule="evenodd"
        clipRule="evenodd"
    />
</svg>
        