
<svg
    viewBox={0 0 26.6328125 26.60546875}
    xmlns="http://www.w3.org/2000/svg"
>
    <path
        fill="inherit"
        d="M13.3209 26.6038C13.8209 26.6038 14.2309 26.2338 14.3109 25.6938C15.4909 16.5838 16.7709 15.2838 25.6709 14.3038C26.2409 14.2438 26.6309 13.8338 26.6309 13.3038C26.6309 12.7738 26.2409 12.3638 25.6709 12.2938C16.7709 11.3238 15.4909 10.0238 14.3109 0.9038C14.2309 0.3538 13.8209 0.0038 13.3209 0.0038C12.8109 0.0038 12.4009 0.3538 12.3209 0.9038C11.1409 10.0238 9.8609 11.3238 0.9609 12.2938C0.4009 12.3638 0.0009 12.7738 0.0009 13.3038C0.0009 13.8338 0.4009 14.2438 0.9609 14.3038C9.8609 15.4738 11.0609 16.5938 12.3209 25.6938C12.4009 26.2338 12.8109 26.6038 13.3209 26.6038Z"
        fillRule="evenodd"
        clipRule="evenodd"
    />
</svg>
        