
<svg
    viewBox={0 0 28.642578125 30.26953125}
    xmlns="http://www.w3.org/2000/svg"
>
    <path
        fill="inherit"
        d="M5.7037 1.7595H22.9537C22.8737 0.5995 22.2137 -0.0005 20.9437 -0.0005H7.6937C6.4437 -0.0005 5.7837 0.5995 5.7037 1.7595ZM2.8837 5.5495H25.7737C25.5637 4.3095 24.9737 3.6195 23.6137 3.6195H5.0437C3.6737 3.6195 3.0937 4.3095 2.8837 5.5495ZM4.2937 30.2695H24.3537C27.1937 30.2695 28.6437 28.8495 28.6437 26.0295V11.9895C28.6437 9.1695 27.1937 7.7495 24.3537 7.7495H4.2937C1.4237 7.7495 0.0037 9.1695 0.0037 11.9895V26.0295C0.0037 28.8495 1.4237 30.2695 4.2937 30.2695ZM4.3237 28.0695C2.9537 28.0695 2.2037 27.3295 2.2037 25.9095V12.1095C2.2037 10.6895 2.9537 9.9495 4.3237 9.9495H24.3037C25.6637 9.9495 26.4437 10.6895 26.4437 12.1095V25.9095C26.4437 27.3295 25.6637 28.0695 24.3037 28.0695ZM14.9837 24.5295C15.2437 24.5295 15.4237 24.3495 15.4737 24.0895C16.2237 20.0695 16.5937 19.3195 20.7837 18.7595C21.0537 18.7195 21.2437 18.5295 21.2437 18.2695C21.2437 18.0095 21.0537 17.8095 20.7837 17.7595C16.6137 17.1995 16.0737 16.4095 15.4737 12.4595C15.4337 12.1795 15.2437 11.9995 14.9837 11.9995C14.7337 11.9995 14.5337 12.1695 14.4737 12.4395C13.7237 16.4795 13.3537 17.1995 9.1737 17.7595C8.9037 17.8095 8.7237 18.0095 8.7237 18.2695C8.7237 18.5295 8.9037 18.7195 9.1737 18.7595C13.3737 19.1795 13.8937 20.0695 14.4737 24.0795C14.5237 24.3495 14.7137 24.5295 14.9837 24.5295ZM9.6137 26.7595C9.7937 26.7595 9.9437 26.6295 9.9837 26.4595C10.3637 24.4595 10.2237 24.3595 12.4037 24.0395C12.5937 24.0095 12.7137 23.8395 12.7137 23.6495C12.7137 23.4795 12.5937 23.3095 12.4037 23.2795C10.2237 22.9295 10.3637 22.8295 9.9837 20.8995C9.9437 20.6995 9.8037 20.5495 9.6137 20.5495C9.4237 20.5495 9.2837 20.6895 9.2237 20.8995C8.8337 22.8295 8.9937 22.9295 6.8237 23.2795C6.6137 23.3095 6.5037 23.4795 6.5037 23.6495C6.5037 23.8695 6.6137 24.0095 6.8537 24.0395C8.9937 24.3595 8.8337 24.4595 9.2237 26.4095C9.2837 26.6195 9.4037 26.7595 9.6137 26.7595Z"
        fillRule="evenodd"
        clipRule="evenodd"
    />
</svg>
        