
<svg
    viewBox={0 0 26.71484375 26.974609375}
    xmlns="http://www.w3.org/2000/svg"
>
    <path
        fill="inherit"
        d="M-0.0045 10.9116C-0.0045 16.9216 4.8955 21.8216 10.9055 21.8216C13.2855 21.8216 15.4655 21.0516 17.2555 19.7716L23.9855 26.5116C24.2955 26.8216 24.7055 26.9716 25.1455 26.9716C26.0755 26.9716 26.7155 26.2816 26.7155 25.3616C26.7155 24.9216 26.5555 24.5316 26.2655 24.2416L19.5755 17.5116C20.9855 15.6816 21.8155 13.4016 21.8155 10.9116C21.8155 4.8916 16.9255 0.0016 10.9055 0.0016C4.8955 0.0016 -0.0045 4.8916 -0.0045 10.9116ZM2.3355 10.9116C2.3355 6.1816 6.1755 2.3416 10.9055 2.3416C15.6455 2.3416 19.4855 6.1816 19.4855 10.9116C19.4855 15.6416 15.6455 19.4816 10.9055 19.4816C6.1755 19.4816 2.3355 15.6416 2.3355 10.9116ZM10.9255 16.6516C11.1455 16.6516 11.3155 16.4716 11.3755 16.2516C12.0555 12.5516 12.3955 11.8716 16.2455 11.3516C16.4855 11.3216 16.6555 11.1416 16.6555 10.9116C16.6555 10.6816 16.4855 10.5016 16.2455 10.4416C12.4155 9.9216 11.9255 9.2116 11.3755 5.5816C11.3355 5.3316 11.1455 5.1716 10.9255 5.1716C10.6955 5.1716 10.5155 5.3216 10.4555 5.5616C9.7655 9.2816 9.4355 9.9216 5.5955 10.4416C5.3455 10.5016 5.1855 10.6816 5.1855 10.9116C5.1855 11.1416 5.3455 11.3116 5.5955 11.3516C9.4355 11.7316 9.9255 12.5516 10.4555 16.2416C10.4955 16.4716 10.6755 16.6516 10.9255 16.6516Z"
        fillRule="evenodd"
        clipRule="evenodd"
    />
</svg>
        