<svg viewBox="0 0 30.515625 24.1171875" xmlns="http://www.w3.org/2000/svg"><path d="M14.7401 24.116C15.6401 24.116 16.2801 23.476 16.2801 22.586V1.616C16.2801 0.726 15.6401 -0.004 14.7101 -0.004C14.0701 -0.004 13.6401 0.286 12.9501 0.946L7.1101 6.416C7.0301 6.496 6.9001 6.536 6.7701 6.536H2.8601C1.0001 6.536 0.0001 7.556 0.0001 9.526V14.616C0.0001 16.596 1.0001 17.606 2.8601 17.606H6.7701C6.9001 17.606 7.0301 17.646 7.1101 17.736L12.9501 23.256C13.5601 23.856 14.1001 24.116 14.7401 24.116ZM26.2401 21.436C26.7401 21.776 27.3701 21.656 27.7401 21.136C29.4901 18.726 30.5201 15.426 30.5201 12.046C30.5201 8.666 29.5001 5.336 27.7401 2.956C27.3701 2.436 26.7401 2.306 26.2401 2.656C25.7301 2.996 25.6501 3.636 26.0401 4.196C27.5401 6.306 28.4001 9.136 28.4001 12.046C28.4001 14.956 27.5101 17.756 26.0401 19.896C25.6601 20.456 25.7301 21.096 26.2401 21.436ZM21.1801 17.866C21.6301 18.186 22.2701 18.086 22.6401 17.556C23.6901 16.176 24.3201 14.136 24.3201 12.046C24.3201 9.956 23.6901 7.926 22.6401 6.536C22.2701 6.006 21.6301 5.896 21.1801 6.216C20.6201 6.606 20.5401 7.286 20.9601 7.846C21.7501 8.946 22.2001 10.456 22.2001 12.046C22.2001 13.626 21.7401 15.136 20.9601 16.246C20.5501 16.816 20.6201 17.476 21.1801 17.866Z" /></svg>