
<svg
    viewBox="0 0 27.890625 27.890625"
    xmlns="http://www.w3.org/2000/svg"
>
    <path
        fill="inherit"
        d="M13.9427 27.8864C21.6427 27.8864 27.8927 21.6464 27.8927 13.9464C27.8927 6.2464 21.6427 -0.0036 13.9427 -0.0036C6.2527 -0.0036 0.0027 6.2464 0.0027 13.9464C0.0027 21.6464 6.2527 27.8864 13.9427 27.8864ZM13.9427 25.5664C7.5227 25.5664 2.3227 20.3664 2.3227 13.9464C2.3227 7.5164 7.5227 2.3264 13.9427 2.3264C20.3727 2.3264 25.5627 7.5164 25.5627 13.9464C25.5627 20.3664 20.3727 25.5664 13.9427 25.5664ZM16.4327 20.4964C16.9127 20.4964 17.2627 20.1564 17.2627 19.6564V8.2764C17.2627 7.8064 16.9127 7.4064 16.4227 7.4064C16.0627 7.4064 15.8327 7.5564 15.4527 7.9164L12.3027 10.8864C12.2627 10.9364 12.1727 10.9464 12.1027 10.9464H9.9827C8.9527 10.9464 8.4227 11.5164 8.4227 12.5764V15.3364C8.4227 16.4064 8.9527 16.9664 9.9827 16.9664H12.1027C12.1727 16.9664 12.2627 16.9964 12.3027 17.0364L15.4527 20.0264C15.7927 20.3564 16.0827 20.4964 16.4327 20.4964Z"
        fillRule="evenodd"
        clipRule="evenodd"
    />
</svg>
        