
<svg
    viewBox="0 0 33.00390625 24.1171875"
    xmlns="http://www.w3.org/2000/svg"
>
    <path
        fill="inherit"
        d="M14.7401 24.116C15.6401 24.116 16.2801 23.476 16.2801 22.586V1.616C16.2801 0.726 15.6401 -0.004 14.7101 -0.004C14.0701 -0.004 13.6401 0.286 12.9501 0.946L7.1101 6.416C7.0301 6.496 6.9001 6.536 6.7701 6.536H2.8601C1.0001 6.536 0.0001 7.556 0.0001 9.526V14.616C0.0001 16.596 1.0001 17.606 2.8601 17.606H6.7701C6.9001 17.606 7.0301 17.646 7.1101 17.736L12.9501 23.256C13.5601 23.856 14.1001 24.116 14.7401 24.116ZM32.2401 8.806H29.0001V8.726L32.3301 4.336C32.6301 3.956 32.7401 3.716 32.7401 3.456C32.7401 3.006 32.3901 2.736 31.9201 2.736H27.3301C26.8801 2.736 26.5601 3.026 26.5601 3.476C26.5601 3.936 26.8801 4.226 27.3301 4.226H30.3901V4.276L27.0201 8.666C26.7101 9.046 26.6201 9.286 26.6201 9.586C26.6201 9.996 26.9501 10.296 27.4301 10.296H32.2401C32.6901 10.296 33.0001 10.006 33.0001 9.546C33.0001 9.106 32.6901 8.806 32.2401 8.806ZM24.2001 14.276H21.9201V14.216L24.2801 11.126C24.5501 10.776 24.6801 10.536 24.6801 10.286C24.6801 9.856 24.3401 9.616 23.8801 9.616H20.4001C19.9701 9.616 19.6901 9.886 19.6901 10.296C19.6901 10.756 19.9701 11.016 20.4001 11.016H22.4501V11.076L20.1001 14.146C19.8401 14.506 19.7301 14.726 19.7301 15.016C19.7301 15.406 20.0301 15.696 20.4701 15.696H24.2001C24.6201 15.696 24.9101 15.436 24.9101 14.986C24.9101 14.556 24.6201 14.276 24.2001 14.276ZM30.3801 19.306H28.4401V19.246L30.4301 16.586C30.7101 16.216 30.8001 16.026 30.8001 15.776C30.8001 15.366 30.4901 15.126 30.0801 15.126H27.0001C26.5901 15.126 26.3201 15.376 26.3201 15.786C26.3201 16.216 26.5901 16.456 27.0001 16.456H28.7001V16.516L26.7101 19.186C26.4701 19.526 26.3501 19.726 26.3501 19.986C26.3501 20.376 26.6601 20.646 27.0701 20.646H30.3801C30.7601 20.646 31.0401 20.386 31.0401 19.956C31.0401 19.566 30.7601 19.306 30.3801 19.306Z"
        fillRule="evenodd"
        clipRule="evenodd"
    />
</svg>
        