<svg viewBox="0 0 25.525390625 25.8603515625" xmlns="http://www.w3.org/2000/svg"><path d="M19.0076 15.616V1.616C19.0076 0.726 18.3676 -0.004 17.4376 -0.004C16.7976 -0.004 16.3676 0.286 15.6576 0.946L10.1676 6.046C10.0976 6.096 10.0176 6.156 9.9376 6.156H9.5176ZM23.7276 25.556C24.1376 25.966 24.8176 25.966 25.2176 25.556C25.6276 25.126 25.6276 24.476 25.2176 24.066L1.8076 0.656C1.3976 0.246 0.7176 0.246 0.3076 0.656C-0.1024 1.056 -0.1024 1.746 0.3076 2.146ZM5.5176 17.606H9.4176C9.5476 17.606 9.6576 17.646 9.7576 17.736L15.6576 23.256C16.3076 23.856 16.8276 24.116 17.4476 24.116C18.1676 24.116 18.6976 23.766 18.9176 22.986L3.3276 7.406C2.9376 7.866 2.7276 8.546 2.7276 9.456V14.696C2.7276 16.676 3.6576 17.606 5.5176 17.606Z" /></svg>