
<svg
    viewBox="0 0 33.82421875 24.1171875"
    xmlns="http://www.w3.org/2000/svg"
>
    <path
        fill="inherit"
        d="M14.7337 24.116C15.6437 24.116 16.2837 23.476 16.2837 22.586V1.616C16.2837 0.726 15.6437 -0.004 14.7137 -0.004C14.0637 -0.004 13.6337 0.276 12.9437 0.946L7.1137 6.416C7.0237 6.496 6.9037 6.536 6.7637 6.536H2.8537C0.9937 6.536 0.0037 7.556 0.0037 9.526V14.616C0.0037 16.596 0.9937 17.606 2.8537 17.606H6.7637C6.9037 17.606 7.0237 17.646 7.1137 17.736L12.9437 23.256C13.5637 23.856 14.0937 24.116 14.7337 24.116ZM21.8037 13.196H32.5237C33.2937 13.196 33.8237 12.786 33.8237 12.056C33.8237 11.316 33.3337 10.896 32.5237 10.896H21.8037C21.0137 10.896 20.4937 11.316 20.4937 12.056C20.4937 12.786 21.0437 13.196 21.8037 13.196Z"
        fillRule="evenodd"
        clipRule="evenodd"
    />
</svg>
        