
<svg
    viewBox={0 0 25.169921875 25.169921875}
    xmlns="http://www.w3.org/2000/svg"
>
    <path
        fill="inherit"
        d="M4.2937 25.1692H20.8737C23.7437 25.1692 25.1737 23.7592 25.1737 20.9492V4.2392C25.1737 1.4192 23.7437 -0.0008 20.8737 -0.0008H4.2937C1.4337 -0.0008 0.0037 1.4192 0.0037 4.2392V20.9492C0.0037 23.7592 1.4337 25.1692 4.2937 25.1692ZM4.3237 22.9692C2.9537 22.9692 2.2037 22.2392 2.2037 20.8192V4.3592C2.2037 2.9392 2.9537 2.1992 4.3237 2.1992H20.8537C22.2037 2.1992 22.9737 2.9392 22.9737 4.3592V20.8192C22.9737 22.2392 22.2037 22.9692 20.8537 22.9692ZM15.1037 19.1292C15.5837 19.1292 15.9237 18.7892 15.9237 18.2892V6.9092C15.9237 6.4392 15.5837 6.0392 15.0937 6.0392C14.7337 6.0392 14.5037 6.1892 14.1137 6.5492L10.9637 9.5192C10.9237 9.5692 10.8237 9.5792 10.7637 9.5792H8.6437C7.6337 9.5792 7.0837 10.1492 7.0837 11.2092V13.9692C7.0837 15.0392 7.6337 15.5992 8.6437 15.5992H10.7637C10.8237 15.5992 10.9237 15.6292 10.9637 15.6692L14.1137 18.6592C14.4637 18.9892 14.7537 19.1292 15.1037 19.1292Z"
        fillRule="evenodd"
        clipRule="evenodd"
    />
</svg>
        