
<svg
    viewBox="0 0 25.169921875 25.169921875"
    xmlns="http://www.w3.org/2000/svg"
>
    <path
        fill="inherit"
        d="M4.2937 25.1692H20.8737C23.7437 25.1692 25.1737 23.7592 25.1737 20.9492V4.2392C25.1737 1.4192 23.7437 -0.0008 20.8737 -0.0008H4.2937C1.4337 -0.0008 0.0037 1.4192 0.0037 4.2392V20.9492C0.0037 23.7592 1.4337 25.1692 4.2937 25.1692ZM15.2137 19.3292C14.8437 19.3292 14.5437 19.2092 14.1937 18.8492L10.9537 15.7592C10.9137 15.7192 10.8037 15.6992 10.7337 15.6992H8.5537C7.5037 15.6992 6.9437 15.1392 6.9437 14.0292V11.1692C6.9437 10.0592 7.5037 9.4992 8.5537 9.4992H10.7337C10.8037 9.4992 10.9137 9.4792 10.9537 9.4292L14.1937 6.3592C14.6037 5.9892 14.8337 5.8392 15.2037 5.8392C15.7137 5.8392 16.0637 6.2492 16.0637 6.7392V18.4892C16.0637 18.9892 15.7137 19.3292 15.2137 19.3292Z"
        fillRule="evenodd"
        clipRule="evenodd"
    />
</svg>
        