
<svg
    viewBox="0 0 16.556640625 24.1171875"
    xmlns="http://www.w3.org/2000/svg"
>
    <path
        fill="inherit"
        d="M2.7901 17.606H6.7001C6.8201 17.606 6.9301 17.646 7.0301 17.736L13.1901 23.256C13.8501 23.846 14.3601 24.116 15.0101 24.116C15.9001 24.116 16.5601 23.476 16.5601 22.586V1.616C16.5601 0.726 15.9001 -0.004 14.9801 -0.004C14.3301 -0.004 13.9201 0.296 13.1901 0.946L7.0301 6.416C6.9301 6.496 6.8201 6.536 6.7001 6.536H2.7901C0.9301 6.536 0.0001 7.476 0.0001 9.456V14.696C0.0001 16.676 0.9301 17.606 2.7901 17.606ZM2.8801 15.616C2.3701 15.616 2.1301 15.376 2.1301 14.876V9.286C2.1301 8.766 2.3701 8.536 2.8801 8.536H7.2601C7.6201 8.536 7.8701 8.466 8.1901 8.176L14.0101 2.886C14.0801 2.816 14.1601 2.776 14.2501 2.776C14.3401 2.776 14.4201 2.846 14.4201 2.966V21.136C14.4201 21.256 14.3401 21.346 14.2501 21.346C14.1801 21.346 14.1001 21.296 14.0301 21.236L8.1901 15.966C7.8701 15.696 7.6201 15.616 7.2601 15.616Z"
        fillRule="evenodd"
        clipRule="evenodd"
    />
</svg>
        