
<svg
    viewBox={0 0 33.318359375 24.1171875}
    xmlns="http://www.w3.org/2000/svg"
>
    <path
        fill="inherit"
        d="M14.7337 24.116C15.6437 24.116 16.2837 23.476 16.2837 22.586V1.616C16.2837 0.726 15.6437 -0.004 14.7137 -0.004C14.0637 -0.004 13.6337 0.276 12.9437 0.946L7.1137 6.416C7.0237 6.496 6.9037 6.536 6.7637 6.536H2.8537C0.9937 6.536 0.0037 7.556 0.0037 9.526V14.616C0.0037 16.596 0.9937 17.606 2.8537 17.606H6.7637C6.9037 17.606 7.0237 17.646 7.1137 17.736L12.9437 23.256C13.5637 23.856 14.0937 24.116 14.7337 24.116ZM20.6437 12.046C20.6437 12.716 21.1237 13.166 21.8237 13.166H25.8437V17.196C25.8437 17.886 26.3037 18.366 26.9737 18.366C27.6537 18.366 28.1337 17.896 28.1337 17.196V13.166H32.1737C32.8537 13.166 33.3137 12.716 33.3137 12.046C33.3137 11.366 32.8537 10.886 32.1737 10.886H28.1337V6.866C28.1337 6.166 27.6537 5.686 26.9737 5.686C26.3037 5.686 25.8437 6.166 25.8437 6.866V10.886H21.8237C21.1237 10.886 20.6437 11.366 20.6437 12.046Z"
        fillRule="evenodd"
        clipRule="evenodd"
    />
</svg>
        