
<svg
    viewBox={0 0 27.890625 27.890625}
    xmlns="http://www.w3.org/2000/svg"
>
    <path
        fill="inherit"
        d="M13.9427 27.8927C21.6427 27.8927 27.8927 21.6427 27.8927 13.9427C27.8927 6.2627 21.6427 0.0027 13.9427 0.0027C6.2627 0.0027 0.0027 6.2627 0.0027 13.9427C0.0027 21.6427 6.2627 27.8927 13.9427 27.8927ZM16.5527 20.7127C16.1827 20.7127 15.8827 20.5727 15.5427 20.2327L12.3027 17.1327C12.2627 17.0927 12.1527 17.0727 12.0827 17.0727H9.9127C8.8427 17.0727 8.3027 16.5027 8.3027 15.3927V12.5527C8.3027 11.4327 8.8427 10.8727 9.9127 10.8727H12.0827C12.1527 10.8727 12.2627 10.8527 12.3027 10.8027L15.5427 7.7427C15.9427 7.3527 16.1727 7.2227 16.5427 7.2227C17.0527 7.2227 17.4227 7.6127 17.4227 8.1027V19.8527C17.4227 20.3527 17.0527 20.7127 16.5527 20.7127Z"
        fillRule="evenodd"
        clipRule="evenodd"
    />
</svg>
        