
<svg
    viewBox={0 0 27.890625 27.890625}
    xmlns="http://www.w3.org/2000/svg"
>
    <path
        fill="inherit"
        d="M13.9427 27.8927C21.6427 27.8927 27.8927 21.6427 27.8927 13.9427C27.8927 6.2627 21.6427 0.0027 13.9427 0.0027C6.2627 0.0027 0.0027 6.2627 0.0027 13.9427C0.0027 21.6427 6.2627 27.8927 13.9427 27.8927ZM20.5927 21.4927L6.3827 7.3027C6.1527 7.0427 6.1427 6.6327 6.3827 6.3827C6.6427 6.1227 7.0527 6.1227 7.3127 6.3827L21.5027 20.5727C21.7527 20.8327 21.7527 21.2327 21.5027 21.4927C21.2627 21.7427 20.8327 21.7227 20.5927 21.4927ZM12.9627 10.5027L15.5127 8.0827C15.8827 7.7427 16.1227 7.5927 16.4627 7.5927C16.9427 7.5927 17.2827 7.9727 17.2827 8.4327V14.8227ZM10.2027 16.8727C9.2427 16.8727 8.6927 16.3227 8.6927 15.3027V12.6027C8.6927 12.1727 8.8727 11.8127 9.0927 11.6027H9.2027L17.1627 19.5527L17.0127 20.0427C16.8827 20.1827 16.7027 20.3027 16.4727 20.3027C16.1327 20.3027 15.8427 20.1627 15.5127 19.8527L12.4527 16.9227C12.4027 16.8827 12.3427 16.8727 12.2627 16.8727Z"
        fillRule="evenodd"
        clipRule="evenodd"
    />
</svg>
        