
<svg
    viewBox="0 0 30.1328125 28.287109375"
    xmlns="http://www.w3.org/2000/svg"
>
    <path
        fill="inherit"
        d="M8.4037 28.2828C9.0737 28.2828 9.5437 27.9328 10.3737 27.1928L15.0937 22.9928H23.8737C27.9437 22.9928 30.1337 20.7428 30.1337 16.7328V6.2628C30.1337 2.2528 27.9437 0.0028 23.8737 0.0028H6.2637C2.1837 0.0028 0.0037 2.2428 0.0037 6.2628V16.7328C0.0037 20.7528 2.1837 22.9928 6.2637 22.9928H6.9137V26.5528C6.9137 27.6028 7.4537 28.2828 8.4037 28.2828ZM8.9737 25.7828V21.8228C8.9737 21.0828 8.6837 20.7928 7.9437 20.7928H6.2637C3.5037 20.7928 2.2037 19.3828 2.2037 16.7228V6.2628C2.2037 3.5928 3.5037 2.2028 6.2637 2.2028H23.8737C26.6237 2.2028 27.9337 3.5928 27.9337 6.2628V16.7228C27.9337 19.3828 26.6237 20.7928 23.8737 20.7928H15.0137C14.2437 20.7928 13.8637 20.9028 13.3437 21.4328ZM14.6437 17.6628C15.0837 17.6628 15.4237 17.3228 15.4237 16.8728V6.1528C15.4237 5.7028 15.0837 5.3328 14.6337 5.3328C14.2837 5.3328 14.0837 5.4828 13.7237 5.8128L10.7437 8.6228C10.6937 8.6728 10.6337 8.6828 10.5637 8.6828H8.5537C7.6137 8.6828 7.0937 9.2028 7.0937 10.2028V12.8128C7.0937 13.8128 7.6137 14.3328 8.5537 14.3328H10.5637C10.6337 14.3328 10.6937 14.3428 10.7437 14.3828L13.7237 17.2228C14.0437 17.5228 14.3037 17.6628 14.6437 17.6628ZM20.1637 16.3828C20.5037 16.5928 20.9137 16.5328 21.1337 16.2028C22.0637 14.9028 22.5837 13.2328 22.5837 11.4828C22.5837 9.7728 22.0837 8.1028 21.1537 6.7828C20.9037 6.4428 20.4837 6.3528 20.1637 6.5728C19.8337 6.8328 19.7737 7.2428 20.0337 7.6028C20.7637 8.6428 21.1737 10.0228 21.1737 11.4828C21.1737 12.9328 20.7637 14.3728 20.0137 15.3628C19.7537 15.7228 19.8137 16.1628 20.1637 16.3828ZM17.7337 14.5728C18.0437 14.8028 18.4737 14.7128 18.7137 14.3928C19.2737 13.6728 19.5937 12.6028 19.5937 11.4828C19.5937 10.4028 19.2637 9.3428 18.7137 8.5828C18.4837 8.2528 18.0437 8.1728 17.7337 8.4128C17.3937 8.6728 17.3337 9.0928 17.5837 9.4428C17.9537 9.9228 18.1737 10.6928 18.1737 11.4828C18.1737 12.2528 17.9337 13.0128 17.5837 13.5328C17.3337 13.9028 17.3937 14.3128 17.7337 14.5728Z"
        fillRule="evenodd"
        clipRule="evenodd"
    />
</svg>
        