
<svg
    viewBox="0 0 24.30859375 24.1171875"
    xmlns="http://www.w3.org/2000/svg"
>
    <path
        fill="inherit"
        d="M2.7801 17.606H6.7001C6.8201 17.606 6.9301 17.646 7.0301 17.736L13.1901 23.256C13.8401 23.846 14.3601 24.116 15.0001 24.116C15.8901 24.116 16.5401 23.476 16.5401 22.586V1.616C16.5401 0.726 15.8901 -0.004 14.9701 -0.004C14.3301 -0.004 13.9001 0.296 13.1901 0.946L7.0301 6.416C6.9301 6.496 6.8201 6.536 6.7001 6.536H2.7801C0.9201 6.536 0.0001 7.476 0.0001 9.456V14.696C0.0001 16.676 0.9301 17.606 2.7801 17.606ZM2.8701 15.616C2.3701 15.616 2.1301 15.376 2.1301 14.876V9.286C2.1301 8.766 2.3701 8.536 2.8701 8.536H7.2501C7.6001 8.536 7.8701 8.466 8.1901 8.176L14.0101 2.886C14.0801 2.816 14.1501 2.776 14.2501 2.776C14.3401 2.776 14.4201 2.846 14.4201 2.966V21.136C14.4201 21.256 14.3401 21.346 14.2501 21.346C14.1801 21.346 14.1001 21.296 14.0101 21.236L8.1901 15.966C7.8701 15.696 7.6001 15.616 7.2501 15.616ZM21.1601 17.886C21.6201 18.196 22.2601 18.106 22.6301 17.566C23.6801 16.186 24.3101 14.146 24.3101 12.056C24.3101 9.966 23.6801 7.946 22.6301 6.546C22.2601 6.016 21.6201 5.906 21.1601 6.236C20.6001 6.616 20.5201 7.296 20.9501 7.866C21.7401 8.956 22.1901 10.476 22.1901 12.056C22.1901 13.646 21.7201 15.146 20.9501 16.256C20.5401 16.826 20.6001 17.486 21.1601 17.886Z"
        fillRule="evenodd"
        clipRule="evenodd"
    />
</svg>
        