
<svg
    viewBox="0 0 36.6953125 26.407467372755637"
    xmlns="http://www.w3.org/2000/svg"
>
    <path
        fill="inherit"
        d="M31.3601 26.2166C31.8301 26.5666 32.5001 26.4266 32.8701 25.8766C35.2601 22.4166 36.7001 18.0366 36.7001 13.2066C36.7001 8.3666 35.2201 4.0066 32.8701 0.5366C32.5001 -0.0334 31.8301 -0.1534 31.3601 0.1866C30.8401 0.5466 30.7801 1.1866 31.1401 1.7466C33.2601 4.8766 34.6001 8.8166 34.6001 13.2066C34.6001 17.5766 33.2601 21.5466 31.1401 24.6666C30.7801 25.2266 30.8401 25.8666 31.3601 26.2166ZM2.7801 18.7666H6.7001C6.8201 18.7666 6.9301 18.8066 7.0301 18.8966L13.1901 24.4166C13.8501 25.0066 14.3601 25.2766 15.0101 25.2766C15.8901 25.2766 16.5601 24.6366 16.5601 23.7466V2.7766C16.5601 1.8866 15.8901 1.1566 14.9801 1.1566C14.3301 1.1566 13.9001 1.4566 13.1901 2.1066L7.0301 7.5766C6.9301 7.6566 6.8201 7.6966 6.7001 7.6966H2.7801C0.9201 7.6966 0.0001 8.6366 0.0001 10.6166V15.8566C0.0001 17.8366 0.9301 18.7666 2.7801 18.7666ZM26.2401 22.5966C26.7401 22.9366 27.3701 22.8166 27.7401 22.2966C29.4901 19.8866 30.5201 16.5866 30.5201 13.2066C30.5201 9.8266 29.5001 6.4966 27.7401 4.1166C27.3701 3.5966 26.7401 3.4666 26.2401 3.8166C25.7301 4.1566 25.6501 4.7966 26.0401 5.3566C27.5401 7.4666 28.4001 10.2966 28.4001 13.2066C28.4001 16.1166 27.5101 18.9166 26.0401 21.0566C25.6601 21.6166 25.7301 22.2566 26.2401 22.5966ZM2.8701 16.7766C2.3701 16.7766 2.1301 16.5366 2.1301 16.0366V10.4466C2.1301 9.9266 2.3701 9.6966 2.8701 9.6966H7.2501C7.6001 9.6966 7.8701 9.6266 8.1901 9.3366L14.0101 4.0466C14.0801 3.9766 14.1501 3.9366 14.2501 3.9366C14.3401 3.9366 14.4201 4.0066 14.4201 4.1266V22.2966C14.4201 22.4166 14.3401 22.5066 14.2501 22.5066C14.1801 22.5066 14.1001 22.4566 14.0101 22.3966L8.1901 17.1266C7.8701 16.8566 7.6001 16.7766 7.2501 16.7766ZM21.1801 19.0266C21.6301 19.3466 22.2701 19.2466 22.6401 18.7166C23.6901 17.3366 24.3201 15.2966 24.3201 13.2066C24.3201 11.1166 23.6901 9.0866 22.6401 7.6966C22.2701 7.1666 21.6301 7.0566 21.1801 7.3766C20.6201 7.7666 20.5401 8.4466 20.9601 9.0066C21.7501 10.1066 22.2001 11.6166 22.2001 13.2066C22.2001 14.7866 21.7401 16.2966 20.9601 17.4066C20.5501 17.9766 20.6201 18.6366 21.1801 19.0266Z"
        fillRule="evenodd"
        clipRule="evenodd"
    />
</svg>
        