
<svg
    viewBox="0 0 30.337890625 30.337890625"
    xmlns="http://www.w3.org/2000/svg"
>
    <path
        fill="inherit"
        d="M10.7609 4.0369C10.4709 4.3169 10.3609 4.6169 10.3609 4.9069C10.3609 5.4269 10.7909 5.8469 11.4309 5.8469H18.9109C19.5509 5.8469 19.9709 5.4269 19.9709 4.9069C19.9709 4.6169 19.8509 4.3169 19.5809 4.0369L16.1209 0.4369C15.8309 0.1369 15.5009 -0.0031 15.1609 -0.0031C14.8509 -0.0031 14.5009 0.1369 14.2209 0.4369ZM16.5709 21.2069C17.0109 21.2069 17.3409 20.8769 17.3409 20.4369V9.9669C17.3409 9.5169 17.0109 9.1469 16.5609 9.1469C16.2309 9.1469 16.0109 9.2969 15.6509 9.6269L12.7509 12.3769C12.7009 12.4169 12.6509 12.4169 12.5909 12.4169H10.6209C9.7109 12.4169 9.2009 12.9169 9.2009 13.9169V16.4569C9.2009 17.4469 9.7109 17.9469 10.6209 17.9469H12.5909C12.6509 17.9469 12.7009 17.9669 12.7509 18.0069L15.6509 20.7769C15.9709 21.0669 16.2409 21.2069 16.5709 21.2069ZM26.3009 10.7869C26.0209 10.4969 25.7209 10.3869 25.4309 10.3869C24.9209 10.3869 24.4909 10.8169 24.4909 11.4469V18.9369C24.4909 19.5769 24.9209 19.9869 25.4309 19.9869C25.7209 19.9869 26.0209 19.8769 26.3009 19.5869L29.9109 16.1369C30.2009 15.8569 30.3409 15.5169 30.3409 15.1869C30.3409 14.8569 30.2009 14.5169 29.9109 14.2469ZM4.0309 10.7869L0.4209 14.2469C0.1409 14.5169 0.0009 14.8569 0.0009 15.1869C0.0009 15.5169 0.1409 15.8569 0.4209 16.1369L4.0309 19.5869C4.3109 19.8769 4.6109 19.9869 4.8909 19.9869C5.4109 19.9869 5.8409 19.5769 5.8409 18.9369V11.4469C5.8409 10.8169 5.4109 10.3869 4.8909 10.3869C4.6109 10.3869 4.3109 10.4969 4.0309 10.7869ZM19.5909 18.1969C19.8909 18.4269 20.3209 18.3469 20.5809 18.0169C21.1209 17.3069 21.4209 16.2569 21.4209 15.1769C21.4209 14.1069 21.1109 13.0569 20.5809 12.3369C20.3309 12.0069 19.8909 11.9169 19.5909 12.1369C19.2409 12.3969 19.1709 12.8269 19.4409 13.2069C19.7809 13.6669 20.0009 14.4069 20.0009 15.1769C20.0009 15.9169 19.7809 16.6569 19.4409 17.1469C19.1709 17.5269 19.2409 17.9469 19.5909 18.1969ZM10.7609 26.3169L14.2209 29.9169C14.5009 30.2169 14.8509 30.3369 15.1609 30.3369C15.5009 30.3369 15.8309 30.2169 16.1209 29.9169L19.5809 26.3169C19.8509 26.0269 19.9709 25.7269 19.9709 25.4469C19.9709 24.9269 19.5509 24.4969 18.9109 24.4969H11.4309C10.7909 24.4969 10.3609 24.9269 10.3609 25.4469C10.3609 25.7269 10.4709 26.0269 10.7609 26.3169Z"
        fillRule="evenodd"
        clipRule="evenodd"
    />
</svg>
        