
<svg
    viewBox="0 0 33.318359375 24.1171875"
    xmlns="http://www.w3.org/2000/svg"
>
    <path
        fill="inherit"
        d="M2.7737 17.606H6.7037C6.8237 17.606 6.9337 17.646 7.0237 17.736L13.1937 23.256C13.8537 23.846 14.3537 24.116 15.0137 24.116C15.8837 24.116 16.5537 23.476 16.5537 22.586V1.616C16.5537 0.726 15.8837 -0.004 14.9837 -0.004C14.3237 -0.004 13.9037 0.296 13.1937 0.946L7.0237 6.416C6.9337 6.496 6.8237 6.536 6.7037 6.536H2.7737C0.9137 6.536 0.0037 7.476 0.0037 9.456V14.696C0.0037 16.676 0.9337 17.606 2.7737 17.606ZM2.8737 15.616C2.3637 15.616 2.1337 15.376 2.1337 14.876V9.286C2.1337 8.766 2.3637 8.536 2.8737 8.536H7.2437C7.6037 8.536 7.8737 8.466 8.1937 8.176L14.0137 2.886C14.0837 2.816 14.1537 2.776 14.2437 2.776C14.3437 2.776 14.4237 2.846 14.4237 2.966V21.136C14.4237 21.256 14.3437 21.346 14.2437 21.346C14.1737 21.346 14.0937 21.296 14.0137 21.236L8.1937 15.966C7.8737 15.696 7.6037 15.616 7.2437 15.616ZM20.6437 12.046C20.6437 12.716 21.1237 13.166 21.8237 13.166H25.8437V17.196C25.8437 17.886 26.3037 18.366 26.9737 18.366C27.6537 18.366 28.1337 17.896 28.1337 17.196V13.166H32.1737C32.8537 13.166 33.3137 12.716 33.3137 12.046C33.3137 11.366 32.8537 10.886 32.1737 10.886H28.1337V6.866C28.1337 6.166 27.6537 5.686 26.9737 5.686C26.3037 5.686 25.8437 6.166 25.8437 6.866V10.886H21.8237C21.1237 10.886 20.6437 11.366 20.6437 12.046Z"
        fillRule="evenodd"
        clipRule="evenodd"
    />
</svg>
        