
<svg
    viewBox="0 0 32.59375 25.853515625"
    xmlns="http://www.w3.org/2000/svg"
>
    <path
        fill="inherit"
        d="M1.0937 23.6798C1.7137 23.6798 2.2037 23.1698 2.2037 22.5698V20.2298H8.8437C9.6937 20.2298 10.1137 20.3398 10.7237 21.0398C12.0537 22.4998 13.8537 23.5798 16.1437 23.5798C18.4337 23.5798 19.8137 22.6498 21.3437 21.2498C21.9537 20.6298 22.7637 20.3198 23.4737 20.3198C24.8237 20.3198 25.9037 21.3098 25.9037 23.1198V25.0198C25.9037 25.5898 26.1637 25.8498 26.7437 25.8498H31.7437C32.3237 25.8498 32.5937 25.5898 32.5937 25.0198V23.7498C32.5937 15.9698 28.0037 13.3598 23.5737 13.3598H22.9837C22.6037 13.3598 22.3437 13.1398 22.2337 12.8398L21.3937 10.5798C21.1537 9.8998 20.9137 9.7198 20.3137 9.7198H19.9437V8.1598C19.9437 7.0798 19.2737 6.4098 18.1937 6.4098H17.3737V4.7598C17.8137 4.5298 18.1837 4.1598 18.4137 3.7098L24.4637 4.3798C25.6937 4.5098 26.5637 3.7198 26.5637 2.5298C26.5637 1.3498 25.6937 0.5698 24.4637 0.7098L18.4137 1.3698C17.9937 0.5598 17.1437 -0.0002 16.1637 -0.0002C15.1937 -0.0002 14.3437 0.5598 13.9137 1.3698L7.8737 0.7098C6.6337 0.5698 5.7537 1.3498 5.7537 2.5298C5.7537 3.7198 6.6337 4.5098 7.8737 4.3798L13.9137 3.7098C14.1537 4.1598 14.5237 4.5298 14.9537 4.7698V6.4098H14.0837C13.0137 6.4098 12.3437 7.0798 12.3437 8.1598V9.7198H11.9637C11.3637 9.7198 11.1437 9.8998 10.8837 10.5798L10.0637 12.8398C9.9437 13.1398 9.6837 13.3598 9.3137 13.3598H2.2037V11.3998C2.2037 10.7998 1.7137 10.2998 1.0937 10.2998C0.4937 10.2998 0.0037 10.7998 0.0037 11.3998V22.5698C0.0037 23.1698 0.4937 23.6798 1.0937 23.6798Z"
        fillRule="evenodd"
        clipRule="evenodd"
    />
</svg>
        