
<svg
    viewBox={0 0 33.00390625 26.263671875}
    xmlns="http://www.w3.org/2000/svg"
>
    <path
        fill="inherit"
        d="M1.0937 23.6798C1.7137 23.6798 2.2037 23.1698 2.2037 22.5698V20.6398H8.8437C9.6137 20.6398 9.8937 20.7298 10.4037 21.2998C11.8037 22.8298 13.7537 23.9798 16.1437 23.9798C18.5437 23.9798 20.0537 22.9698 21.6337 21.5198C22.1737 20.9998 22.8637 20.7098 23.4737 20.7098C24.6137 20.7098 25.4937 21.5498 25.4937 23.1098V25.0198C25.4937 25.7598 26.0037 26.2598 26.7437 26.2598H31.7437C32.4837 26.2598 33.0037 25.7598 33.0037 25.0198V23.7298C33.0037 15.7098 28.0837 12.9298 23.5737 12.9298H22.9837C22.8037 12.9298 22.6637 12.8398 22.6137 12.6898L21.7837 10.4498C21.4937 9.6398 21.0537 9.2998 20.3137 9.2998H20.2337V8.1598C20.2337 6.9698 19.4037 6.1398 18.2237 6.1398H17.3737V4.7598C17.8137 4.5298 18.1837 4.1598 18.4137 3.7098L24.4637 4.3598C25.6937 4.5098 26.5637 3.7198 26.5637 2.5298C26.5637 1.3498 25.6937 0.5598 24.4637 0.6998L18.4137 1.3698C17.9937 0.5598 17.1437 -0.0002 16.1637 -0.0002C15.1937 -0.0002 14.3437 0.5598 13.9137 1.3698L7.8737 0.6998C6.6337 0.5598 5.7537 1.3498 5.7537 2.5298C5.7537 3.7198 6.6337 4.5098 7.8737 4.3598L13.9137 3.7098C14.1537 4.1598 14.5237 4.5298 14.9537 4.7598V6.1398H14.0637C12.8837 6.1398 12.0437 6.9698 12.0437 8.1598V9.2998H11.9637C11.2237 9.2998 10.8037 9.6398 10.5037 10.4498L9.6837 12.6898C9.6137 12.8398 9.4737 12.9298 9.3137 12.9298H2.2037V11.3998C2.2037 10.7998 1.7137 10.2998 1.0937 10.2998C0.4937 10.2998 0.0037 10.7998 0.0037 11.3998V22.5698C0.0037 23.1698 0.4937 23.6798 1.0937 23.6798ZM13.9037 8.3698C13.9037 7.9798 14.1737 7.7198 14.5437 7.7198H17.7437C18.1137 7.7198 18.3737 7.9798 18.3737 8.3698V9.2998H13.9037ZM27.4937 24.2698V23.1098C27.4937 19.5398 25.3437 18.6898 23.5937 18.6898C22.2337 18.6898 21.2037 19.2398 20.2337 20.1698C19.3437 20.9698 18.2137 21.9798 16.1437 21.9798C14.0537 21.9798 12.8337 21.0398 11.8637 19.9598C11.0237 18.9498 10.3537 18.6498 8.9537 18.6498H2.2037V14.9298H9.4437C10.7437 14.9298 11.1837 14.3998 11.5237 13.4698L12.3137 11.2898H19.9737L20.7637 13.4698C21.1137 14.3998 21.5337 14.9298 22.8437 14.9298H23.5537C27.5637 14.9298 31.0237 17.1998 31.0237 23.7298V24.2698Z"
        fillRule="evenodd"
        clipRule="evenodd"
    />
</svg>
        