
<svg
    viewBox={0 0 27.890625 27.890625}
    xmlns="http://www.w3.org/2000/svg"
>
    <path
        fill="inherit"
        d="M13.9427 27.8864C21.6427 27.8864 27.8927 21.6264 27.8927 13.9464C27.8927 6.2464 21.6427 -0.0036 13.9427 -0.0036C6.2627 -0.0036 0.0027 6.2464 0.0027 13.9464C0.0027 21.6264 6.2627 27.8864 13.9427 27.8864ZM7.6327 19.8964C6.0527 19.8964 5.1927 19.0464 5.1927 17.4564V17.1464H6.7627C7.8727 17.1464 8.4927 16.5264 8.4927 15.4264V12.4964C8.4927 11.3764 7.8727 10.7564 6.7627 10.7564H5.1927V10.4364C5.1927 8.8564 6.0527 7.9964 7.6327 7.9964H13.4427V10.7764C11.8927 11.0164 10.7327 12.3464 10.7327 13.9464C10.7327 15.5564 11.8927 16.8564 13.4427 17.1164V19.8964ZM14.4627 19.8964V17.1164C15.9927 16.8564 17.1727 15.5564 17.1727 13.9464C17.1727 12.3464 15.9927 11.0164 14.4627 10.7764V7.9964H20.2627C21.8427 7.9964 22.6927 8.8564 22.6927 10.4364V10.7564H21.1227C20.0127 10.7564 19.4027 11.3764 19.4027 12.4964V15.4264C19.4027 16.5264 20.0127 17.1464 21.1227 17.1464H22.6927V17.4564C22.6927 19.0464 21.8427 19.8964 20.2627 19.8964ZM13.4427 16.1464C12.4127 15.9164 11.6927 15.0264 11.6927 13.9464C11.6927 12.8664 12.4127 11.9664 13.4427 11.7464ZM14.4627 16.1464V11.7464C15.4727 11.9664 16.2127 12.8664 16.2127 13.9464C16.2127 15.0264 15.4727 15.9164 14.4627 16.1464ZM5.1927 16.1564V11.7564H6.7627C7.2627 11.7564 7.4927 12.0064 7.4927 12.4964V15.4264C7.4927 15.8964 7.2627 16.1564 6.7627 16.1564ZM22.6927 16.1564H21.1227C20.6327 16.1564 20.4027 15.8964 20.4027 15.4264V12.4964C20.4027 12.0064 20.6327 11.7564 21.1227 11.7564H22.6927Z"
        fillRule="evenodd"
        clipRule="evenodd"
    />
</svg>
        