
<svg
    viewBox="0 0 27.890625 27.890625"
    xmlns="http://www.w3.org/2000/svg"
>
    <path
        fill="inherit"
        d="M13.9427 27.8864C21.6427 27.8864 27.8927 21.6464 27.8927 13.9464C27.8927 6.2464 21.6427 -0.0036 13.9427 -0.0036C6.2527 -0.0036 0.0027 6.2464 0.0027 13.9464C0.0027 21.6464 6.2527 27.8864 13.9427 27.8864ZM13.9427 25.5664C7.5227 25.5664 2.3227 20.3664 2.3227 13.9464C2.3227 7.5164 7.5227 2.3264 13.9427 2.3264C20.3727 2.3264 25.5627 7.5164 25.5627 13.9464C25.5627 20.3664 20.3727 25.5664 13.9427 25.5664ZM7.8027 19.7164H13.4427V17.0264C11.9527 16.7764 10.8127 15.5064 10.8127 13.9464C10.8127 12.3964 11.9527 11.1064 13.4427 10.8664V8.1764H7.8027C6.2927 8.1764 5.4527 9.0064 5.4527 10.5364V10.8564H6.9727C8.0527 10.8564 8.6427 11.4564 8.6427 12.5364V15.3764C8.6427 16.4464 8.0527 17.0464 6.9727 17.0464H5.4527V17.3464C5.4527 18.8964 6.2927 19.7164 7.8027 19.7164ZM14.4327 19.7164H20.0527C21.5927 19.7164 22.4127 18.8964 22.4127 17.3464V17.0464H20.8927C19.8127 17.0464 19.2227 16.4464 19.2227 15.3764V12.5364C19.2227 11.4564 19.8127 10.8564 20.8927 10.8564H22.4127V10.5364C22.4127 9.0064 21.5927 8.1764 20.0527 8.1764H14.4327V10.8664C15.9127 11.1064 17.0627 12.3964 17.0627 13.9464C17.0627 15.5064 15.9127 16.7764 14.4327 17.0264ZM13.4427 16.0764V11.8164C12.4427 12.0164 11.7427 12.8964 11.7427 13.9464C11.7427 14.9964 12.4427 15.8564 13.4427 16.0764ZM14.4327 16.0764C15.4227 15.8564 16.1327 14.9964 16.1327 13.9464C16.1327 12.8964 15.4227 12.0164 14.4327 11.8164ZM5.4527 16.0964H6.9727C7.4527 16.0964 7.6827 15.8464 7.6827 15.3764V12.5364C7.6827 12.0564 7.4527 11.8264 6.9727 11.8264H5.4527ZM22.4127 16.0964V11.8264H20.8927C20.4127 11.8264 20.1827 12.0564 20.1827 12.5364V15.3764C20.1827 15.8464 20.4127 16.0964 20.8927 16.0964Z"
        fillRule="evenodd"
        clipRule="evenodd"
    />
</svg>
        