
<svg
    viewBox="0 0 24.5 26.8515625"
    xmlns="http://www.w3.org/2000/svg"
>
    <path
        fill="inherit"
        d="M12.2537 1.9438C12.7837 1.9438 13.2237 1.5038 13.2237 0.9737C13.2237 0.4337 12.7837 0.0038 12.2537 0.0038C11.7137 0.0038 11.2837 0.4337 11.2837 0.9737C11.2837 1.5038 11.7137 1.9438 12.2537 1.9438ZM3.8237 4.3238C4.3637 4.3238 4.8037 3.8837 4.8037 3.3538C4.8037 2.8137 4.3637 2.3837 3.8237 2.3837C3.2937 2.3837 2.8537 2.8137 2.8537 3.3538C2.8537 3.8837 3.2937 4.3238 3.8237 4.3238ZM20.6737 4.3238C21.2037 4.3238 21.6437 3.8837 21.6437 3.3538C21.6437 2.8137 21.2037 2.3837 20.6737 2.3837C20.1437 2.3837 19.7037 2.8137 19.7037 3.3538C19.7037 3.8837 20.1437 4.3238 20.6737 4.3238ZM12.2537 6.0338C12.7837 6.0338 13.2237 5.5938 13.2237 5.0538C13.2237 4.5238 12.7837 4.0837 12.2537 4.0837C11.7137 4.0837 11.2837 4.5238 11.2837 5.0538C11.2837 5.5938 11.7137 6.0338 12.2537 6.0338ZM6.7137 7.2038C7.2437 7.2038 7.6837 6.7638 7.6837 6.2338C7.6837 5.7037 7.2437 5.2638 6.7137 5.2638C6.1837 5.2638 5.7437 5.7037 5.7437 6.2338C5.7437 6.7638 6.1837 7.2038 6.7137 7.2038ZM17.7837 7.2038C18.3237 7.2038 18.7537 6.7638 18.7537 6.2338C18.7537 5.7037 18.3237 5.2638 17.7837 5.2638C17.2437 5.2638 16.8137 5.7037 16.8137 6.2338C16.8137 6.7638 17.2437 7.2038 17.7837 7.2038ZM1.3237 26.8538H23.1737C23.7637 26.8538 24.2537 26.3638 24.2537 25.7738C24.2537 25.1737 23.7637 24.6737 23.1737 24.6737H14.8437V19.8238C15.7337 19.8238 16.3837 19.1938 16.3837 18.2838V16.2438C16.3837 15.3238 15.7337 14.6938 14.8337 14.6938H14.5737V13.2738H14.8337C15.7337 13.2738 16.3837 12.6337 16.3837 11.7338V10.7738C16.3837 9.2938 15.3037 8.2538 13.7437 8.2538H10.7437C9.2037 8.2538 8.1237 9.2938 8.1237 10.7738V11.7338C8.1237 12.6337 8.7637 13.2738 9.6537 13.2738H9.9237V14.6938H9.6537C8.7637 14.6938 8.1237 15.3238 8.1237 16.2438V18.2838C8.1237 19.1838 8.7537 19.8138 9.6537 19.8238V24.6737H1.3237C0.7337 24.6737 0.2337 25.1737 0.2337 25.7738C0.2337 26.3638 0.7337 26.8538 1.3237 26.8538ZM10.2437 11.5638C10.0337 11.5638 9.8937 11.4338 9.8937 11.2137V10.7738C9.8937 10.2137 10.2037 9.9637 10.8137 9.9637H13.6737C14.2837 9.9637 14.6037 10.2137 14.6037 10.7738V11.2137C14.6037 11.4338 14.4637 11.5638 14.2437 11.5638ZM5.0437 12.3837C5.5737 12.3837 6.0137 11.9538 6.0137 11.4138C6.0137 10.8837 5.5737 10.4438 5.0437 10.4438C4.5137 10.4438 4.0737 10.8837 4.0737 11.4138C4.0737 11.9538 4.5137 12.3837 5.0437 12.3837ZM0.9737 12.3837C1.5037 12.3837 1.9437 11.9538 1.9437 11.4138C1.9437 10.8837 1.5037 10.4438 0.9737 10.4438C0.4337 10.4438 0.0037 10.8837 0.0037 11.4138C0.0037 11.9538 0.4337 12.3837 0.9737 12.3837ZM19.4437 12.3837C19.9737 12.3837 20.4137 11.9538 20.4137 11.4138C20.4137 10.8837 19.9737 10.4438 19.4437 10.4438C18.9037 10.4438 18.4737 10.8837 18.4737 11.4138C18.4737 11.9538 18.9037 12.3837 19.4437 12.3837ZM23.5337 12.3837C24.0637 12.3837 24.5037 11.9538 24.5037 11.4138C24.5037 10.8837 24.0637 10.4438 23.5337 10.4438C22.9937 10.4438 22.5537 10.8837 22.5537 11.4138C22.5537 11.9538 22.9937 12.3837 23.5337 12.3837ZM11.7537 14.6938V13.2738H12.7437V14.6938ZM10.1737 18.1037C9.9637 18.1037 9.8337 17.9738 9.8337 17.7638V16.7638C9.8337 16.5438 9.9637 16.4038 10.1737 16.4038H14.3137C14.5337 16.4038 14.6737 16.5438 14.6737 16.7638V17.7638C14.6737 17.9738 14.5337 18.1037 14.3137 18.1037ZM11.4837 24.6737V19.8238H13.0137V24.6737Z"
        fillRule="evenodd"
        clipRule="evenodd"
    />
</svg>
        