
<svg
    viewBox={0 0 27.890625 27.890625}
    xmlns="http://www.w3.org/2000/svg"
>
    <path
        fill="inherit"
        d="M13.9427 27.8927C21.6427 27.8927 27.8927 21.6427 27.8927 13.9427C27.8927 6.2627 21.6427 0.0027 13.9427 0.0027C6.2627 0.0027 0.0027 6.2627 0.0027 13.9427C0.0027 21.6427 6.2627 27.8927 13.9427 27.8927ZM20.7827 8.3527L19.5627 7.1527L20.1827 6.5527C20.4827 6.2327 20.9327 6.2327 21.2227 6.5227L21.3927 6.7027C21.6727 6.9727 21.6827 7.3827 21.3727 7.6927ZM9.6127 20.6727C8.0527 20.6727 7.2327 19.8627 7.2327 18.3227V10.1027C7.2327 8.5627 8.0527 7.7427 9.6127 7.7427H16.9927L15.5127 9.2127H9.6427C9.0227 9.2127 8.7127 9.5127 8.7127 10.1727V18.2427C8.7127 18.8927 9.0227 19.1927 9.6427 19.1927H17.9627C18.3727 19.1927 18.6927 18.8927 18.6927 18.2427V12.4427L20.1527 10.9827V18.3227C20.1527 19.8627 19.3327 20.6727 17.9827 20.6727ZM12.2727 16.0327C12.0027 16.1427 11.7127 15.8727 11.8427 15.6027L12.4927 14.2427L18.9527 7.7827L20.1827 8.9727L13.7027 15.4527Z"
        fillRule="evenodd"
        clipRule="evenodd"
    />
</svg>
        