
<svg
    viewBox="0 0 25.115234375 25.115234375"
    xmlns="http://www.w3.org/2000/svg"
>
    <path
        fill="inherit"
        d="M1.1637 2.3282C1.8037 2.3282 2.3237 1.8082 2.3237 1.1582C2.3237 0.5182 1.8037 -0.0018 1.1637 -0.0018C0.5237 -0.0018 0.0037 0.5182 0.0037 1.1582C0.0037 1.8082 0.5237 2.3282 1.1637 2.3282ZM4.9637 2.3282C5.6037 2.3282 6.1237 1.8082 6.1237 1.1582C6.1237 0.5182 5.6037 -0.0018 4.9637 -0.0018C4.3237 -0.0018 3.8037 0.5182 3.8037 1.1582C3.8037 1.8082 4.3237 2.3282 4.9637 2.3282ZM8.7537 2.3282C9.3937 2.3282 9.9137 1.8082 9.9137 1.1582C9.9137 0.5182 9.3937 -0.0018 8.7537 -0.0018C8.1037 -0.0018 7.5837 0.5182 7.5837 1.1582C7.5837 1.8082 8.1037 2.3282 8.7537 2.3282ZM12.5537 2.3282C13.1937 2.3282 13.7137 1.8082 13.7137 1.1582C13.7137 0.5182 13.1937 -0.0018 12.5537 -0.0018C11.9237 -0.0018 11.3937 0.5182 11.3937 1.1582C11.3937 1.8082 11.9237 2.3282 12.5537 2.3282ZM16.3637 2.3282C16.9937 2.3282 17.5237 1.8082 17.5237 1.1582C17.5237 0.5182 16.9937 -0.0018 16.3637 -0.0018C15.7237 -0.0018 15.2037 0.5182 15.2037 1.1582C15.2037 1.8082 15.7237 2.3282 16.3637 2.3282ZM20.1537 2.3282C20.7837 2.3282 21.3037 1.8082 21.3037 1.1582C21.3037 0.5182 20.7837 -0.0018 20.1537 -0.0018C19.5137 -0.0018 18.9937 0.5182 18.9937 1.1582C18.9937 1.8082 19.5137 2.3282 20.1537 2.3282ZM23.9537 2.3282C24.5937 2.3282 25.1137 1.8082 25.1137 1.1582C25.1137 0.5182 24.5937 -0.0018 23.9537 -0.0018C23.3137 -0.0018 22.7937 0.5182 22.7937 1.1582C22.7937 1.8082 23.3137 2.3282 23.9537 2.3282ZM1.1637 6.1282C1.8037 6.1282 2.3237 5.6082 2.3237 4.9582C2.3237 4.3182 1.8037 3.7982 1.1637 3.7982C0.5237 3.7982 0.0037 4.3182 0.0037 4.9582C0.0037 5.6082 0.5237 6.1282 1.1637 6.1282ZM23.9537 6.1382C24.5937 6.1382 25.1137 5.6182 25.1137 4.9782C25.1137 4.3382 24.5937 3.8182 23.9537 3.8182C23.3137 3.8182 22.7937 4.3382 22.7937 4.9782C22.7937 5.6182 23.3137 6.1382 23.9537 6.1382ZM4.9037 19.0482C4.9037 19.6982 5.3337 20.1382 5.9837 20.1382H19.1437C19.7937 20.1382 20.2237 19.6982 20.2237 19.0482V6.0182C20.2237 5.3582 19.7937 4.9382 19.1437 4.9382H5.9837C5.3337 4.9382 4.9037 5.3582 4.9037 6.0182ZM7.1137 17.5382V7.5282C7.1137 7.2282 7.2037 7.1382 7.5037 7.1382H17.6237C17.9237 7.1382 18.0237 7.2282 18.0237 7.5282V17.5382C18.0237 17.8282 17.9237 17.9382 17.6237 17.9382H7.5037C7.2037 17.9382 7.1137 17.8282 7.1137 17.5382ZM1.1637 9.8882C1.8037 9.8882 2.3237 9.3682 2.3237 8.7382C2.3237 8.0982 1.8037 7.5782 1.1637 7.5782C0.5237 7.5782 0.0037 8.0982 0.0037 8.7382C0.0037 9.3682 0.5237 9.8882 1.1637 9.8882ZM23.9537 9.8982C24.5937 9.8982 25.1137 9.3782 25.1137 8.7482C25.1137 8.1082 24.5937 7.5882 23.9537 7.5882C23.3137 7.5882 22.7937 8.1082 22.7937 8.7482C22.7937 9.3782 23.3137 9.8982 23.9537 9.8982ZM1.1637 13.6982C1.8037 13.6982 2.3237 13.1782 2.3237 12.5382C2.3237 11.8982 1.8037 11.3782 1.1637 11.3782C0.5237 11.3782 0.0037 11.8982 0.0037 12.5382C0.0037 13.1782 0.5237 13.6982 1.1637 13.6982ZM23.9537 13.7082C24.5937 13.7082 25.1137 13.1982 25.1137 12.5482C25.1137 11.9082 24.5937 11.3882 23.9537 11.3882C23.3137 11.3882 22.7937 11.9082 22.7937 12.5482C22.7937 13.1982 23.3137 13.7082 23.9537 13.7082ZM1.1637 17.4982C1.8037 17.4982 2.3237 16.9782 2.3237 16.3382C2.3237 15.6982 1.8037 15.1782 1.1637 15.1782C0.5237 15.1782 0.0037 15.6982 0.0037 16.3382C0.0037 16.9782 0.5237 17.4982 1.1637 17.4982ZM23.9537 17.5182C24.5937 17.5182 25.1137 16.9982 25.1137 16.3482C25.1137 15.7082 24.5937 15.1882 23.9537 15.1882C23.3137 15.1882 22.7937 15.7082 22.7937 16.3482C22.7937 16.9982 23.3137 17.5182 23.9537 17.5182ZM1.1637 21.2882C1.8037 21.2882 2.3237 20.7682 2.3237 20.1282C2.3237 19.4782 1.8037 18.9582 1.1637 18.9582C0.5237 18.9582 0.0037 19.4782 0.0037 20.1282C0.0037 20.7682 0.5237 21.2882 1.1637 21.2882ZM23.9537 21.2982C24.5937 21.2982 25.1137 20.7782 25.1137 20.1382C25.1137 19.4982 24.5937 18.9782 23.9537 18.9782C23.3137 18.9782 22.7937 19.4982 22.7937 20.1382C22.7937 20.7782 23.3137 21.2982 23.9537 21.2982ZM1.1637 25.1182C1.8037 25.1182 2.3237 24.5782 2.3237 23.9482C2.3237 23.3082 1.8037 22.7882 1.1637 22.7882C0.5237 22.7882 0.0037 23.3082 0.0037 23.9482C0.0037 24.5782 0.5237 25.1182 1.1637 25.1182ZM23.9537 25.1182C24.5937 25.1182 25.1137 24.5782 25.1137 23.9482C25.1137 23.3082 24.5937 22.7882 23.9537 22.7882C23.3137 22.7882 22.7937 23.3082 22.7937 23.9482C22.7937 24.5782 23.3137 25.1182 23.9537 25.1182ZM20.1537 25.1182C20.7837 25.1182 21.3037 24.5782 21.3037 23.9482C21.3037 23.3082 20.7837 22.7882 20.1537 22.7882C19.5137 22.7882 18.9937 23.3082 18.9937 23.9482C18.9937 24.5782 19.5137 25.1182 20.1537 25.1182ZM16.3637 25.1182C16.9937 25.1182 17.5237 24.5782 17.5237 23.9482C17.5237 23.3082 16.9937 22.7882 16.3637 22.7882C15.7237 22.7882 15.2037 23.3082 15.2037 23.9482C15.2037 24.5782 15.7237 25.1182 16.3637 25.1182ZM12.5537 25.1182C13.1937 25.1182 13.7137 24.5782 13.7137 23.9482C13.7137 23.3082 13.1937 22.7882 12.5537 22.7882C11.9237 22.7882 11.3937 23.3082 11.3937 23.9482C11.3937 24.5782 11.9237 25.1182 12.5537 25.1182ZM8.7537 25.1182C9.3937 25.1182 9.9137 24.5782 9.9137 23.9482C9.9137 23.3082 9.3937 22.7882 8.7537 22.7882C8.1037 22.7882 7.5837 23.3082 7.5837 23.9482C7.5837 24.5782 8.1037 25.1182 8.7537 25.1182ZM4.9637 25.1182C5.6037 25.1182 6.1237 24.5782 6.1237 23.9482C6.1237 23.3082 5.6037 22.7882 4.9637 22.7882C4.3237 22.7882 3.8037 23.3082 3.8037 23.9482C3.8037 24.5782 4.3237 25.1182 4.9637 25.1182Z"
        fillRule="evenodd"
        clipRule="evenodd"
    />
</svg>
        