
<svg
    viewBox="0 0 31.08984375 35.587890625"
    xmlns="http://www.w3.org/2000/svg"
>
    <path
        fill="inherit"
        d="M4.2937 29.2454H19.9737C22.8337 29.2454 24.2637 27.8254 24.2637 25.0054V11.5154C24.2637 8.6954 22.8337 7.2754 19.9737 7.2754H13.2237V1.0554C13.2237 0.4754 12.7237 -0.0046 12.1437 -0.0046C11.5537 -0.0046 11.0437 0.4754 11.0437 1.0554V7.2754H13.2237V14.9554L13.1437 17.0054L13.9037 16.2054L16.0237 13.9454C16.2137 13.7254 16.4837 13.6154 16.7637 13.6154C17.3237 13.6154 17.7637 14.0254 17.7637 14.5754C17.7637 14.8754 17.6337 15.0954 17.4337 15.2954L12.9237 19.6454C12.6437 19.9154 12.4137 20.0054 12.1437 20.0054C11.8537 20.0054 11.6237 19.9154 11.3437 19.6454L6.8337 15.2954C6.6337 15.0954 6.5037 14.8754 6.5037 14.5754C6.5037 14.0254 6.9137 13.6154 7.4937 13.6154C7.7637 13.6154 8.0537 13.7254 8.2437 13.9454L10.3637 16.2054L11.1337 17.0054L11.0437 14.9554V7.2754H4.2937C1.4337 7.2754 0.0037 8.6854 0.0037 11.5154V25.0054C0.0037 27.8354 1.4337 29.2454 4.2937 29.2454ZM11.1137 35.5854H26.7937C29.6637 35.5854 31.0937 34.1654 31.0937 31.3454V17.8554C31.0937 15.0354 29.6637 13.6154 26.7937 13.6154H26.1237V25.0054C26.1237 28.8654 23.8737 31.1154 19.9737 31.1154H6.8237V31.3454C6.8237 34.1754 8.2737 35.5854 11.1137 35.5854Z"
        fillRule="evenodd"
        clipRule="evenodd"
    />
</svg>
        