
<svg
    viewBox="0 0 28.555441643133236 30.3515625"
    xmlns="http://www.w3.org/2000/svg"
>
    <path
        fill="inherit"
        d="M18.8172 15.0424L21.7572 13.3324L25.1172 15.2624C25.1872 15.2824 25.2272 15.3224 25.2272 15.3924C25.2272 15.4624 25.1872 15.4924 25.1172 15.5324L21.4472 17.6324L23.0972 19.2924L23.3672 19.1424L27.5272 22.8424C28.4972 21.8324 28.1972 20.7524 26.5572 19.7924L24.3972 18.5424L26.5572 17.2824C27.6472 16.6424 28.0872 16.1424 28.0872 15.3924C28.0872 14.6424 27.6472 14.1524 26.5572 13.4924L24.0172 12.0324L26.5572 10.5524C27.6472 9.9124 28.0872 9.4024 28.0872 8.6524C28.0872 7.9124 27.6472 7.4124 26.5572 6.7724L15.8572 0.5624C15.1972 0.1824 14.6672 0.0024 14.1172 0.0024C13.5672 0.0024 13.0372 0.1824 12.3772 0.5624L7.2772 3.5124L8.9572 5.1824L13.5172 2.5724C13.7372 2.4424 13.9272 2.3824 14.1172 2.3824C14.3072 2.3824 14.4972 2.4424 14.7172 2.5724L25.1172 8.5324C25.1872 8.5624 25.2272 8.6024 25.2272 8.6524C25.2272 8.7224 25.1872 8.7624 25.1172 8.7924L17.1472 13.3524ZM26.7672 28.2624C27.1772 28.6724 27.8472 28.6724 28.2572 28.2624C28.6472 27.8524 28.6672 27.1824 28.2572 26.7724L1.8072 0.3424C1.3972 -0.0676 0.7172 -0.0676 0.3072 0.3424C-0.1028 0.7424 -0.1028 1.4324 0.3072 1.8324ZM1.6772 10.5524L4.2172 12.0324L1.6772 13.4924C0.5772 14.1524 0.1472 14.6424 0.1472 15.3924C0.1472 16.1424 0.5772 16.6424 1.6772 17.2824L3.8472 18.5424L1.6772 19.7924C0.5772 20.4424 0.1472 20.9424 0.1472 21.6824C0.1472 22.4324 0.5772 22.9424 1.6772 23.5824L12.3772 29.7924C13.0372 30.1724 13.5672 30.3524 14.1172 30.3524C14.6672 30.3524 15.1972 30.1724 15.8572 29.7924L22.2472 26.0824L20.5872 24.4324L14.7172 27.7824C14.4972 27.9024 14.3072 27.9724 14.1172 27.9724C13.9272 27.9724 13.7372 27.9024 13.5172 27.7824L3.1072 21.8224C3.0372 21.7924 2.9972 21.7524 2.9972 21.6824C2.9972 21.6324 3.0372 21.5924 3.1072 21.5624L6.1072 19.8524L12.3772 23.5024C13.0372 23.8824 13.5672 24.0624 14.1172 24.0624C14.6672 24.0624 15.1972 23.8824 15.8572 23.5024L18.2572 22.0924L16.5772 20.4124L14.7172 21.4824C14.4972 21.6024 14.3072 21.6724 14.1172 21.6724C13.9272 21.6724 13.7372 21.6024 13.5172 21.4824L3.1072 15.5324C3.0372 15.4924 2.9972 15.4624 2.9972 15.3924C2.9972 15.3224 3.0372 15.2824 3.1072 15.2624L6.4772 13.3324L11.5072 16.2524C12.0672 16.6024 12.5572 16.7924 13.0472 16.8824L7.4272 11.2624C5.9772 10.4424 4.5572 9.6124 3.1072 8.7924C2.9572 8.7124 2.9872 8.6024 3.1072 8.5324C3.4372 8.3424 3.7672 8.1324 4.1072 7.9524L2.4572 6.3124L1.6772 6.7724C0.5772 7.4224 0.1472 7.9124 0.1472 8.6524C0.1472 9.4024 0.5772 9.9124 1.6772 10.5524Z"
        fillRule="evenodd"
        clipRule="evenodd"
    />
</svg>
        