<svg viewBox="0 0 26.11328125 24.541015625" xmlns="http://www.w3.org/2000/svg"><path d="M5.1837 24.5391C6.4637 24.5391 7.1337 23.6391 7.5037 22.4591L13.7237 2.4291H24.8037C25.5837 2.4291 26.1137 1.9591 26.1137 1.1991C26.1137 0.4791 25.5837 -0.0009 24.8037 -0.0009H13.7037C12.3037 -0.0009 11.6737 0.5191 11.3037 1.7191L5.3337 21.3391H5.1037L2.5337 12.2791C2.3137 11.5291 1.9037 11.1691 1.2537 11.1691C0.5337 11.1691 0.0037 11.6891 0.0037 12.3591C0.0037 12.6291 0.0637 12.8791 0.1237 13.0791L3.0237 22.6091C3.3637 23.7191 3.9737 24.5391 5.1837 24.5391Z" /></svg>