
<svg
    viewBox={0 0 28.9296875 28.642578125}
    xmlns="http://www.w3.org/2000/svg"
>
    <path
        fill="inherit"
        d="M4.2937 22.3119H6.6337V24.4019C6.6337 27.2219 8.0537 28.6419 10.9237 28.6419H24.6537C27.4937 28.6419 28.9337 27.2219 28.9337 24.4019V10.5719C28.9337 7.7519 27.4937 6.3319 24.6537 6.3319H22.3037V4.2419C22.3037 1.4219 20.8637 0.0019 18.0237 0.0019H4.2937C1.4237 0.0019 0.0037 1.4219 0.0037 4.2419V18.0719C0.0037 20.8919 1.4237 22.3119 4.2937 22.3119ZM4.3237 20.1119C2.9537 20.1119 2.2037 19.3719 2.2037 17.9519V4.3619C2.2037 2.9419 2.9537 2.2019 4.3237 2.2019H17.9737C19.3337 2.2019 20.0937 2.9419 20.0937 4.3619V6.3319H10.9237C8.0537 6.3319 6.6337 7.7419 6.6337 10.5719V20.1119ZM10.9537 26.4419C9.5937 26.4419 8.8337 25.7019 8.8337 24.2819V10.6919C8.8337 9.2719 9.5937 8.5319 10.9537 8.5319H24.6137C25.9637 8.5319 26.7237 9.2719 26.7237 10.6919V24.2819C26.7237 25.7019 25.9637 26.4419 24.6137 26.4419ZM20.0937 10.5019V15.2719H22.3037V10.5019ZM16.8337 22.3119H18.0237C20.8737 22.3119 22.3037 20.8919 22.3037 18.0719V17.1419H20.0937V17.9519C20.0937 19.3719 19.3437 20.1119 17.9737 20.1119H16.8337ZM10.8037 22.3119H14.9537V20.1119H10.8037Z"
        fillRule="evenodd"
        clipRule="evenodd"
    />
</svg>
        