
<svg
    viewBox="0 0 31.08984375 37.064453125"
    xmlns="http://www.w3.org/2000/svg"
>
    <path
        fill="inherit"
        d="M4.2937 30.722H19.9737C22.8337 30.722 24.2637 29.302 24.2637 26.482V12.992C24.2637 10.172 22.8337 8.752 19.9737 8.752H13.2237V5.042L13.1437 2.992L14.0637 3.982L16.0237 6.052C16.2137 6.272 16.4837 6.382 16.7637 6.382C17.3237 6.382 17.7637 5.972 17.7637 5.432C17.7637 5.122 17.6337 4.912 17.4337 4.702L12.9237 0.352C12.6437 0.082 12.4137 0.002 12.1437 0.002C11.8537 0.002 11.6237 0.082 11.3437 0.352L6.8337 4.702C6.6337 4.912 6.5037 5.122 6.5037 5.432C6.5037 5.972 6.9137 6.382 7.4937 6.382C7.7637 6.382 8.0537 6.272 8.2437 6.052L10.1837 3.982L11.1337 2.992L11.0437 5.042V8.752H13.2237V18.952C13.2237 19.522 12.7237 20.002 12.1437 20.002C11.5537 20.002 11.0437 19.522 11.0437 18.952V8.752H4.2937C1.4337 8.752 0.0037 10.162 0.0037 12.992V26.482C0.0037 29.312 1.4337 30.722 4.2937 30.722ZM11.1137 37.062H26.7937C29.6637 37.062 31.0937 35.642 31.0937 32.822V19.342C31.0937 16.532 29.6637 15.112 26.7937 15.112H26.1237V26.482C26.1237 30.342 23.8737 32.592 19.9737 32.592H6.8237V32.822C6.8237 35.652 8.2737 37.062 11.1137 37.062Z"
        fillRule="evenodd"
        clipRule="evenodd"
    />
</svg>
        