
<svg
    viewBox="0 0 42.328125 28.587890625"
    xmlns="http://www.w3.org/2000/svg"
>
    <path
        fill="inherit"
        d="M21.1637 28.5845C21.7637 28.5845 22.1737 28.2045 22.1737 27.6345V0.9445C22.1737 0.3845 21.7637 0.0045 21.1637 0.0045C20.5637 0.0045 20.1637 0.3845 20.1637 0.9445V27.6345C20.1637 28.2045 20.5637 28.5845 21.1637 28.5845ZM3.2637 22.2945H12.7537C14.8037 22.2945 16.0237 21.0945 16.0237 19.0845V9.4845C16.0237 7.4945 14.8037 6.2745 12.7537 6.2745H3.2637C1.2137 6.2745 0.0037 7.4945 0.0037 9.4845V19.0845C0.0037 21.0945 1.2137 22.2945 3.2637 22.2945ZM29.5737 22.2945H39.0637C41.1137 22.2945 42.3237 21.0945 42.3237 19.0845V9.4845C42.3237 7.4945 41.1137 6.2745 39.0637 6.2745H29.5737C27.5237 6.2745 26.3037 7.4945 26.3037 9.4845V19.0845C26.3037 21.0945 27.5237 22.2945 29.5737 22.2945ZM3.3037 20.2345C2.5337 20.2345 2.0637 19.7545 2.0637 18.9745V9.6145C2.0637 8.8345 2.5337 8.3445 3.3037 8.3445H12.7137C13.4937 8.3445 13.9637 8.8345 13.9637 9.6145V18.9745C13.9637 19.7545 13.4937 20.2345 12.7137 20.2345Z"
        fillRule="evenodd"
        clipRule="evenodd"
    />
</svg>
        