
<svg
    viewBox={0 0 27.9453125 28.546875}
    xmlns="http://www.w3.org/2000/svg"
>
    <path
        fill="inherit"
        d="M15.7137 27.9901L26.4037 21.7701C27.5037 21.1201 27.9437 20.6301 27.9437 19.8801C27.9437 19.1301 27.5037 18.6301 26.4037 17.9801L20.0137 14.2701L26.4037 10.5701C27.5037 9.9101 27.9437 9.4201 27.9437 8.6701C27.9437 7.9201 27.5037 7.4201 26.4037 6.7801L15.7137 0.5601C15.0537 0.1801 14.5237 0.0001 13.9737 0.0001C13.4137 0.0001 12.8937 0.1801 12.2337 0.5601L1.5337 6.7801C0.4237 7.4201 0.0037 7.9201 0.0037 8.6701C0.0037 9.4201 0.4237 9.9101 1.5337 10.5701L7.9337 14.2701L1.5337 17.9801C0.4237 18.6301 0.0037 19.1301 0.0037 19.8801C0.0037 20.6301 0.4237 21.1201 1.5337 21.7701L12.2337 27.9901C12.8937 28.3701 13.4137 28.5501 13.9737 28.5501C14.5237 28.5501 15.0537 28.3701 15.7137 27.9901ZM13.9737 14.9401C13.7837 14.9401 13.5937 14.8901 13.3537 14.7501L2.9537 8.8001C2.8937 8.7801 2.8537 8.7401 2.8537 8.6701C2.8537 8.6001 2.8937 8.5701 2.9537 8.5301L13.3537 2.5801C13.5937 2.4601 13.7837 2.3901 13.9737 2.3901C14.1637 2.3901 14.3537 2.4601 14.5737 2.5801L24.9737 8.5301C25.0437 8.5701 25.0837 8.6001 25.0837 8.6701C25.0837 8.7401 25.0437 8.7801 24.9737 8.8001L14.5737 14.7501C14.3537 14.8901 14.1637 14.9401 13.9737 14.9401Z"
        fillRule="evenodd"
        clipRule="evenodd"
    />
</svg>
        