
<svg
    viewBox={0 0 32.23828125 25.169921875}
    xmlns="http://www.w3.org/2000/svg"
>
    <path
        fill="inherit"
        d="M4.2937 25.1692H27.9437C30.8137 25.1692 32.2337 23.7592 32.2337 20.9492V4.2392C32.2337 1.4192 30.8137 -0.0008 27.9437 -0.0008H4.2937C1.4337 -0.0008 0.0037 1.4192 0.0037 4.2392V20.9492C0.0037 23.7592 1.4337 25.1692 4.2937 25.1692ZM5.5937 18.5092C4.2537 18.5092 3.5837 17.8392 3.5837 16.5292V8.6692C3.5837 7.3392 4.2537 6.6892 5.5937 6.6892H13.3837C14.7537 6.6892 15.4037 7.3592 15.4037 8.6692V16.5292C15.4037 17.8392 14.7537 18.5092 13.3837 18.5092ZM23.4037 18.3592C19.9637 18.3592 17.6537 16.0692 17.6537 12.6092C17.6537 9.1592 19.9737 6.8092 23.3637 6.8092C26.6437 6.8092 28.9337 8.9392 28.9337 12.0192C28.9337 14.2592 27.8937 15.7192 26.3037 15.7192C25.6037 15.7192 25.0037 15.4192 24.7037 14.8892C24.3037 15.4192 23.7037 15.7192 23.0337 15.7192C21.4937 15.7192 20.4437 14.4692 20.4437 12.6192C20.4437 10.8292 21.4937 9.5292 22.9937 9.5292C23.6537 9.5292 24.1337 9.7592 24.4637 10.1492V10.0392C24.5437 9.7592 24.8237 9.5292 25.1437 9.5292C25.5537 9.5292 25.8537 9.8592 25.8537 10.2792V13.7792C25.8537 14.1792 26.0137 14.3592 26.4437 14.3592C27.1137 14.3592 27.5337 13.4892 27.5337 12.0992C27.5337 9.7592 25.8537 8.1892 23.3637 8.1892C20.8637 8.1892 19.1437 9.9892 19.1437 12.6192C19.1437 15.2992 20.8337 16.9392 23.5737 16.9392C24.4437 16.9392 24.8537 16.7792 25.2637 16.7092C25.4737 16.6792 25.5837 16.6392 25.7337 16.6392C26.0837 16.6392 26.3637 16.9292 26.3637 17.2792C26.3637 17.6492 26.1137 17.8792 25.7337 18.0492C25.1837 18.2692 24.3237 18.3592 23.4037 18.3592ZM5.7437 16.9392H13.2437C13.6337 16.9392 13.8337 16.7592 13.8337 16.3892V8.8092C13.8337 8.4392 13.6337 8.2592 13.2437 8.2592H5.7437C5.3437 8.2592 5.1537 8.4192 5.1537 8.8092V16.3892C5.1537 16.7592 5.3437 16.9392 5.7437 16.9392ZM23.2537 14.2892C24.0237 14.2892 24.5037 13.6292 24.5037 12.5492C24.5037 11.5392 24.0237 10.9192 23.2737 10.9192C22.4937 10.9192 22.0137 11.5392 22.0137 12.5892C22.0137 13.6592 22.4937 14.2892 23.2537 14.2892Z"
        fillRule="evenodd"
        clipRule="evenodd"
    />
</svg>
        