<svg viewBox="0 0 25.169921875 25.169921875" xmlns="http://www.w3.org/2000/svg"><path d="M0.0037 7.2055H2.2037V4.3455C2.2037 2.9255 2.9537 2.2055 4.3237 2.2055H7.1537V-0.0045H4.2937C1.4337 -0.0045 0.0037 1.4055 0.0037 4.2355ZM9.0237 2.2055H16.1437V-0.0045H9.0237ZM22.9737 7.2055H25.1737V4.2355C25.1737 1.4255 23.7337 -0.0045 20.8737 -0.0045H18.0237V2.2055H20.8537C22.2037 2.2055 22.9737 2.9255 22.9737 4.3455ZM22.9737 16.0955H25.1737V9.0755H22.9737ZM0.0037 16.0955H2.2037V9.0755H0.0037ZM18.0237 25.1655H20.8737C23.7337 25.1655 25.1737 23.7455 25.1737 20.9355V17.9655H22.9737V20.8255C22.9737 22.2455 22.2037 22.9655 20.8537 22.9655H18.0237ZM4.2937 25.1655H7.1537V22.9655H4.3237C2.9537 22.9655 2.2037 22.2455 2.2037 20.8255V17.9655H0.0037V20.9355C0.0037 23.7655 1.4337 25.1655 4.2937 25.1655ZM9.0237 25.1655H16.1437V22.9655H9.0237Z" /></svg>