
<svg
    viewBox={0 0 27.890625 27.890625}
    xmlns="http://www.w3.org/2000/svg"
>
    <path
        fill="inherit"
        d="M13.9427 27.8864C21.6427 27.8864 27.8927 21.6464 27.8927 13.9464C27.8927 6.2464 21.6427 -0.0036 13.9427 -0.0036C6.2527 -0.0036 0.0027 6.2464 0.0027 13.9464C0.0027 21.6464 6.2527 27.8864 13.9427 27.8864ZM13.9427 25.5664C7.5227 25.5664 2.3227 20.3664 2.3227 13.9464C2.3227 7.5164 7.5227 2.3264 13.9427 2.3264C20.3727 2.3264 25.5627 7.5164 25.5627 13.9464C25.5627 20.3664 20.3727 25.5664 13.9427 25.5664ZM13.9327 15.2164C14.3027 15.2164 14.6127 14.9264 14.6127 14.5564V7.6464L14.5727 6.9964L15.1727 7.6464L15.8027 8.2864C15.9127 8.4064 16.0827 8.4764 16.2827 8.4764C16.6527 8.4764 16.9127 8.2264 16.9127 7.8764C16.9127 7.7064 16.8527 7.5464 16.7027 7.4264L14.4127 5.2064C14.2427 5.0464 14.0927 4.9764 13.9327 4.9764C13.7527 4.9764 13.6027 5.0564 13.4427 5.2064L11.1527 7.4064C11.0027 7.5564 10.9627 7.7064 10.9627 7.8764C10.9627 8.2264 11.2227 8.4764 11.5627 8.4764C11.7727 8.4764 11.9327 8.4064 12.0627 8.2864L12.6727 7.6464L13.2927 6.9964L13.2627 7.6464V14.5564C13.2627 14.9264 13.5627 15.2164 13.9327 15.2164ZM10.0627 20.5864H17.8027C19.2927 20.5864 20.0727 19.8264 20.0727 18.3464V11.6064C20.0727 10.1264 19.2927 9.3764 17.8027 9.3764H15.6527V10.7564H17.7827C18.3927 10.7564 18.6927 11.0564 18.6927 11.6764V18.3064C18.6927 18.9064 18.3927 19.2264 17.7827 19.2264H10.0727C9.4727 19.2264 9.1727 18.9264 9.1727 18.3064V11.6764C9.1727 11.0564 9.4727 10.7564 10.0727 10.7564H12.2127V9.3764H10.0627C8.5827 9.3764 7.7927 10.1464 7.7927 11.6064V18.3464C7.7927 19.8064 8.5827 20.5864 10.0627 20.5864Z"
        fillRule="evenodd"
        clipRule="evenodd"
    />
</svg>
        