
<svg
    viewBox="0 0 25.23828125 25.265625"
    xmlns="http://www.w3.org/2000/svg"
>
    <path
        fill="inherit"
        d="M4.9637 2.3513C5.6037 2.3513 6.1437 1.8212 6.1437 1.1713C6.1437 0.5313 5.6037 0.0012 4.9637 0.0012C4.3237 0.0012 3.7837 0.5313 3.7837 1.1713C3.7837 1.8212 4.3237 2.3513 4.9637 2.3513ZM8.7737 2.3513C9.4237 2.3513 9.9537 1.8212 9.9537 1.1713C9.9537 0.5313 9.4237 0.0012 8.7737 0.0012C8.1337 0.0012 7.6037 0.5313 7.6037 1.1713C7.6037 1.8212 8.1337 2.3513 8.7737 2.3513ZM12.6037 2.3513C13.2437 2.3513 13.7837 1.8212 13.7837 1.1713C13.7837 0.5313 13.2437 0.0012 12.6037 0.0012C11.9637 0.0012 11.4337 0.5313 11.4337 1.1713C11.4337 1.8212 11.9637 2.3513 12.6037 2.3513ZM16.4237 2.3513C17.0637 2.3513 17.5937 1.8212 17.5937 1.1713C17.5937 0.5313 17.0637 0.0012 16.4237 0.0012C15.7737 0.0012 15.2437 0.5313 15.2437 1.1713C15.2437 1.8212 15.7737 2.3513 16.4237 2.3513ZM20.2437 2.3513C20.8937 2.3513 21.4237 1.8212 21.4237 1.1713C21.4237 0.5313 20.8937 0.0012 20.2437 0.0012C19.6037 0.0012 19.0737 0.5313 19.0737 1.1713C19.0737 1.8212 19.6037 2.3513 20.2437 2.3513ZM24.0637 2.3513C24.7037 2.3513 25.2337 1.8212 25.2337 1.1713C25.2337 0.5313 24.7037 0.0012 24.0637 0.0012C23.4237 0.0012 22.8837 0.5313 22.8837 1.1713C22.8837 1.8212 23.4237 2.3513 24.0637 2.3513ZM1.0937 25.2613H24.1437C24.7637 25.2613 25.2337 24.7912 25.2337 24.1713C25.2337 23.5613 24.7637 23.0813 24.1437 23.0813H2.5837C2.2937 23.0813 2.1837 22.9713 2.1837 22.6813V1.0813C2.1837 0.4812 1.7137 0.0012 1.0837 0.0012C0.4737 0.0012 0.0037 0.4812 0.0037 1.0813V24.1713C0.0037 24.8313 0.4337 25.2613 1.0937 25.2613ZM24.0637 6.1612C24.7037 6.1612 25.2337 5.6313 25.2337 4.9913C25.2337 4.3513 24.7037 3.8113 24.0637 3.8113C23.4237 3.8113 22.8837 4.3513 22.8837 4.9913C22.8837 5.6313 23.4237 6.1612 24.0637 6.1612ZM5.1537 19.1313C5.0137 19.7113 5.4937 20.1513 6.0837 20.0313L10.4837 19.1013C11.1137 18.9813 11.3437 18.3513 10.9237 17.9213L9.6837 16.6813L16.7237 9.7313L17.9337 10.9813C18.3737 11.4012 19.0337 11.1713 19.1537 10.5413L20.0937 6.1213C20.2337 5.5512 19.7437 5.1013 19.1537 5.2213L14.7637 6.1513C14.1237 6.2712 13.9037 6.9012 14.3237 7.3313L15.5737 8.5712L8.5137 15.5213L7.3137 14.2713C6.8737 13.8513 6.2237 14.0913 6.0937 14.7113ZM24.0637 9.9913C24.7037 9.9913 25.2337 9.4613 25.2337 8.8212C25.2337 8.1713 24.7037 7.6413 24.0637 7.6413C23.4237 7.6413 22.8837 8.1713 22.8837 8.8212C22.8837 9.4613 23.4237 9.9913 24.0637 9.9913ZM24.0637 13.8113C24.7037 13.8113 25.2337 13.2713 25.2337 12.6313C25.2337 11.9913 24.7037 11.4613 24.0637 11.4613C23.4237 11.4613 22.8837 11.9913 22.8837 12.6313C22.8837 13.2713 23.4237 13.8113 24.0637 13.8113ZM24.0637 17.6413C24.7037 17.6413 25.2337 17.1013 25.2337 16.4613C25.2337 15.8213 24.7037 15.2813 24.0637 15.2813C23.4237 15.2813 22.8837 15.8213 22.8837 16.4613C22.8837 17.1013 23.4237 17.6413 24.0637 17.6413ZM24.0637 21.4513C24.7037 21.4513 25.2337 20.9213 25.2337 20.2713C25.2337 19.6313 24.7037 19.1013 24.0637 19.1013C23.4237 19.1013 22.8837 19.6313 22.8837 20.2713C22.8837 20.9213 23.4237 21.4513 24.0637 21.4513Z"
        fillRule="evenodd"
        clipRule="evenodd"
    />
</svg>
        