
<svg
    viewBox={0 0 32.23828125 25.169921875}
    xmlns="http://www.w3.org/2000/svg"
>
    <path
        fill="inherit"
        d="M4.2937 25.1692H27.9437C30.8137 25.1692 32.2337 23.7592 32.2337 20.9492V4.2392C32.2337 1.4192 30.8137 -0.0008 27.9437 -0.0008H4.2937C1.4337 -0.0008 0.0037 1.4192 0.0037 4.2392V20.9492C0.0037 23.7592 1.4337 25.1692 4.2937 25.1692ZM4.3237 22.9692C2.9537 22.9692 2.2037 22.2392 2.2037 20.8192V4.3592C2.2037 2.9392 2.9537 2.1992 4.3237 2.1992H27.9137C29.2737 2.1992 30.0337 2.9392 30.0337 4.3592V20.8192C30.0337 22.2392 29.2737 22.9692 27.9137 22.9692ZM6.1237 18.3292H13.6837C14.9937 18.3292 15.6437 17.6892 15.6437 16.4192V8.7792C15.6437 7.5092 14.9937 6.8592 13.6837 6.8592H6.1237C4.8237 6.8592 4.1737 7.4892 4.1737 8.7792V16.4192C4.1737 17.6892 4.8237 18.3292 6.1237 18.3292ZM22.8637 18.1792C23.7437 18.1792 24.5837 18.0992 25.1137 17.8792C25.4837 17.7292 25.7137 17.4992 25.7137 17.1492C25.7137 16.7992 25.4537 16.5292 25.1137 16.5292C24.9637 16.5292 24.8537 16.5692 24.6737 16.5992C24.2637 16.6492 23.8537 16.8192 23.0137 16.8192C20.3537 16.8192 18.7137 15.2192 18.7137 12.6192C18.7137 10.0592 20.3837 8.3092 22.8137 8.3092C25.2337 8.3092 26.8637 9.8392 26.8637 12.1092C26.8637 13.4692 26.4537 14.3192 25.8037 14.3192C25.3937 14.3192 25.2337 14.1392 25.2337 13.7392V10.3492C25.2337 9.9392 24.9337 9.6292 24.5437 9.6292C24.2537 9.6292 23.9637 9.8392 23.8837 10.1192V10.2292C23.5737 9.8392 23.1037 9.6292 22.4637 9.6292C21.0137 9.6292 19.9837 10.8792 19.9837 12.6192C19.9837 14.4092 21.0137 15.6292 22.5037 15.6292C23.1437 15.6292 23.7337 15.3392 24.1137 14.8192C24.4137 15.3392 24.9937 15.6292 25.6737 15.6292C27.2037 15.6292 28.2237 14.2092 28.2237 12.0292C28.2237 9.0492 26.0037 6.9892 22.8137 6.9892C19.5237 6.9892 17.2637 9.2692 17.2637 12.6092C17.2637 15.9592 19.5137 18.1792 22.8637 18.1792ZM6.5337 16.5392C6.1537 16.5392 5.9637 16.3692 5.9637 16.0092V9.1892C5.9637 8.8192 6.1537 8.6592 6.5337 8.6592H13.2737C13.6537 8.6592 13.8537 8.8292 13.8537 9.1892V16.0092C13.8537 16.3692 13.6537 16.5392 13.2737 16.5392ZM22.7137 14.2492C21.9737 14.2492 21.5037 13.6292 21.5037 12.5892C21.5037 11.5692 21.9737 10.9692 22.7237 10.9692C23.4637 10.9692 23.9237 11.5692 23.9237 12.5492C23.9237 13.5992 23.4637 14.2492 22.7137 14.2492Z"
        fillRule="evenodd"
        clipRule="evenodd"
    />
</svg>
        