<svg viewBox="0 0 25.279296875 25.279296875" xmlns="http://www.w3.org/2000/svg"><path d="M1.1737 2.3539C1.8137 2.3539 2.3537 1.8139 2.3537 1.1739C2.3537 0.5339 1.8137 0.0039 1.1737 0.0039C0.5337 0.0039 0.0037 0.5339 0.0037 1.1739C0.0037 1.8139 0.5337 2.3539 1.1737 2.3539ZM5.0037 2.3539C5.6437 2.3539 6.1837 1.8139 6.1837 1.1739C6.1837 0.5339 5.6437 0.0039 5.0037 0.0039C4.3637 0.0039 3.8237 0.5339 3.8237 1.1739C3.8237 1.8139 4.3637 2.3539 5.0037 2.3539ZM8.8137 2.3539C9.4637 2.3539 9.9937 1.8139 9.9937 1.1739C9.9937 0.5339 9.4637 0.0039 8.8137 0.0039C8.1737 0.0039 7.6437 0.5339 7.6437 1.1739C7.6437 1.8139 8.1737 2.3539 8.8137 2.3539ZM12.6437 2.3539C13.2937 2.3539 13.8237 1.8139 13.8237 1.1739C13.8237 0.5339 13.2937 0.0039 12.6437 0.0039C12.0037 0.0039 11.4737 0.5339 11.4737 1.1739C11.4737 1.8139 12.0037 2.3539 12.6437 2.3539ZM16.4637 2.3539C17.1037 2.3539 17.6337 1.8139 17.6337 1.1739C17.6337 0.5339 17.1037 0.0039 16.4637 0.0039C15.8137 0.0039 15.2837 0.5339 15.2837 1.1739C15.2837 1.8139 15.8137 2.3539 16.4637 2.3539ZM20.2937 2.3539C20.9337 2.3539 21.4637 1.8139 21.4637 1.1739C21.4637 0.5339 20.9337 0.0039 20.2937 0.0039C19.6437 0.0039 19.1137 0.5339 19.1137 1.1739C19.1137 1.8139 19.6437 2.3539 20.2937 2.3539ZM24.1037 2.3539C24.7437 2.3539 25.2837 1.8139 25.2837 1.1739C25.2837 0.5339 24.7437 0.0039 24.1037 0.0039C23.4637 0.0039 22.9237 0.5339 22.9237 1.1739C22.9237 1.8139 23.4637 2.3539 24.1037 2.3539ZM1.1737 6.1639C1.8137 6.1639 2.3537 5.6339 2.3537 4.9939C2.3537 4.3439 1.8137 3.8139 1.1737 3.8139C0.5337 3.8139 0.0037 4.3439 0.0037 4.9939C0.0037 5.6339 0.5337 6.1639 1.1737 6.1639ZM24.1037 6.1639C24.7437 6.1639 25.2837 5.6339 25.2837 4.9939C25.2837 4.3439 24.7437 3.8139 24.1037 3.8139C23.4637 3.8139 22.9237 4.3439 22.9237 4.9939C22.9237 5.6339 23.4637 6.1639 24.1037 6.1639ZM10.6537 14.4639C10.9737 14.8239 11.4937 14.7939 11.8237 14.4639L16.7637 9.6139L17.9737 10.8539C18.4037 11.2839 19.0537 11.0339 19.1937 10.4139L20.1437 6.0039C20.2637 5.4239 19.7737 4.9639 19.1937 5.1039L14.7937 6.0139C14.1637 6.1539 13.9337 6.7639 14.3737 7.2039L15.6037 8.4539L10.6537 13.3039C10.3337 13.6339 10.3537 14.1339 10.6537 14.4639ZM1.1737 9.9939C1.8137 9.9939 2.3537 9.4639 2.3537 8.8139C2.3537 8.1739 1.8137 7.6439 1.1737 7.6439C0.5337 7.6439 0.0037 8.1739 0.0037 8.8139C0.0037 9.4639 0.5337 9.9939 1.1737 9.9939ZM24.1037 9.9939C24.7437 9.9939 25.2837 9.4639 25.2837 8.8139C25.2837 8.1739 24.7437 7.6439 24.1037 7.6439C23.4637 7.6439 22.9237 8.1739 22.9237 8.8139C22.9237 9.4639 23.4637 9.9939 24.1037 9.9939ZM1.0937 25.2239H12.7237C13.3837 25.2239 13.8037 24.8039 13.8037 24.1439V14.7339L12.9337 15.6039C12.6237 15.9139 12.2537 16.1239 11.8537 16.2239V22.8739C11.8537 23.1739 11.7537 23.2739 11.4537 23.2739H2.3537C2.0637 23.2739 1.9537 23.1739 1.9537 22.8739V13.7839C1.9537 13.4839 2.0637 13.3839 2.3537 13.3839H8.8837C8.9737 12.9439 9.1837 12.5239 9.5337 12.1839L10.2937 11.4339H1.0937C0.4337 11.4339 0.0037 11.8539 0.0037 12.5139V24.1439C0.0037 24.8039 0.4337 25.2239 1.0937 25.2239ZM24.1037 13.8039C24.7437 13.8039 25.2837 13.2739 25.2837 12.6339C25.2837 11.9939 24.7437 11.4539 24.1037 11.4539C23.4637 11.4539 22.9237 11.9939 22.9237 12.6339C22.9237 13.2739 23.4637 13.8039 24.1037 13.8039ZM24.1037 17.6339C24.7437 17.6339 25.2837 17.1039 25.2837 16.4639C25.2837 15.8139 24.7437 15.2839 24.1037 15.2839C23.4637 15.2839 22.9237 15.8139 22.9237 16.4639C22.9237 17.1039 23.4637 17.6339 24.1037 17.6339ZM24.1037 21.4539C24.7437 21.4539 25.2837 20.9139 25.2837 20.2739C25.2837 19.6339 24.7437 19.1039 24.1037 19.1039C23.4637 19.1039 22.9237 19.6339 22.9237 20.2739C22.9237 20.9139 23.4637 21.4539 24.1037 21.4539ZM24.1037 25.2839C24.7437 25.2839 25.2837 24.7439 25.2837 24.1039C25.2837 23.4639 24.7437 22.9239 24.1037 22.9239C23.4637 22.9239 22.9237 23.4639 22.9237 24.1039C22.9237 24.7439 23.4637 25.2839 24.1037 25.2839ZM20.2937 25.2839C20.9337 25.2839 21.4637 24.7439 21.4637 24.1039C21.4637 23.4639 20.9337 22.9239 20.2937 22.9239C19.6437 22.9239 19.1137 23.4639 19.1137 24.1039C19.1137 24.7439 19.6437 25.2839 20.2937 25.2839ZM16.4637 25.2839C17.1037 25.2839 17.6337 24.7439 17.6337 24.1039C17.6337 23.4639 17.1037 22.9239 16.4637 22.9239C15.8137 22.9239 15.2837 23.4639 15.2837 24.1039C15.2837 24.7439 15.8137 25.2839 16.4637 25.2839Z" /></svg>