
<svg
    viewBox={0 0 38.896484375 25.169921875}
    xmlns="http://www.w3.org/2000/svg"
>
    <path
        fill="inherit"
        d="M2.6137 11.4555H8.8437C10.5837 11.4555 11.4537 10.5855 11.4537 8.7755V2.6655C11.4537 0.8655 10.5837 -0.0045 8.8437 -0.0045H2.6137C0.8737 -0.0045 0.0037 0.8655 0.0037 2.6655V8.7755C0.0037 10.5855 0.8737 11.4555 2.6137 11.4555ZM16.3337 11.4555H22.5537C24.2937 11.4555 25.1737 10.5855 25.1737 8.7755V2.6655C25.1737 0.8655 24.2937 -0.0045 22.5537 -0.0045H16.3337C14.5837 -0.0045 13.7137 0.8655 13.7137 2.6655V8.7755C13.7137 10.5855 14.5837 11.4555 16.3337 11.4555ZM30.0537 11.4555H36.2837C38.0237 11.4555 38.8937 10.5855 38.8937 8.7755V2.6655C38.8937 0.8655 38.0237 -0.0045 36.2837 -0.0045H30.0537C28.3137 -0.0045 27.4437 0.8655 27.4437 2.6655V8.7755C27.4437 10.5855 28.3137 11.4555 30.0537 11.4555ZM2.6137 25.1655H8.8437C10.5837 25.1655 11.4537 24.3055 11.4537 22.5055V16.3755C11.4537 14.5855 10.5837 13.7155 8.8437 13.7155H2.6137C0.8737 13.7155 0.0037 14.5855 0.0037 16.3755V22.5055C0.0037 24.3055 0.8737 25.1655 2.6137 25.1655ZM16.3337 25.1655H22.5537C24.2937 25.1655 25.1737 24.3055 25.1737 22.5055V16.3755C25.1737 14.5855 24.2937 13.7155 22.5537 13.7155H16.3337C14.5837 13.7155 13.7137 14.5855 13.7137 16.3755V22.5055C13.7137 24.3055 14.5837 25.1655 16.3337 25.1655ZM30.0537 25.1655H36.2837C38.0237 25.1655 38.8937 24.3055 38.8937 22.5055V16.3755C38.8937 14.5855 38.0237 13.7155 36.2837 13.7155H30.0537C28.3137 13.7155 27.4437 14.5855 27.4437 16.3755V22.5055C27.4437 24.3055 28.3137 25.1655 30.0537 25.1655Z"
        fillRule="evenodd"
        clipRule="evenodd"
    />
</svg>
        