
<svg
    viewBox="0 0 25.279296875 25.279296875"
    xmlns="http://www.w3.org/2000/svg"
>
    <path
        fill="inherit"
        d="M4.1037 2.3476C4.7437 2.3476 5.2737 1.8276 5.2737 1.1776C5.2737 0.5376 4.7437 -0.0024 4.1037 -0.0024C3.4637 -0.0024 2.9237 0.5376 2.9237 1.1776C2.9237 1.8276 3.4637 2.3476 4.1037 2.3476ZM8.3637 2.3476C9.0137 2.3476 9.5437 1.8276 9.5437 1.1776C9.5437 0.5376 9.0137 -0.0024 8.3637 -0.0024C7.7237 -0.0024 7.1937 0.5376 7.1937 1.1776C7.1937 1.8276 7.7237 2.3476 8.3637 2.3476ZM12.6337 2.3476C13.2937 2.3476 13.8037 1.8276 13.8037 1.1776C13.8037 0.5376 13.2937 -0.0024 12.6337 -0.0024C11.9937 -0.0024 11.4537 0.5376 11.4537 1.1776C11.4537 1.8276 11.9937 2.3476 12.6337 2.3476ZM16.9137 2.3476C17.5537 2.3476 18.0837 1.8276 18.0837 1.1776C18.0837 0.5376 17.5537 -0.0024 16.9137 -0.0024C16.2537 -0.0024 15.7337 0.5376 15.7337 1.1776C15.7337 1.8276 16.2537 2.3476 16.9137 2.3476ZM21.1737 2.3476C21.8237 2.3476 22.3537 1.8276 22.3537 1.1776C22.3537 0.5376 21.8237 -0.0024 21.1737 -0.0024C20.5337 -0.0024 20.0037 0.5376 20.0037 1.1776C20.0037 1.8276 20.5337 2.3476 21.1737 2.3476ZM24.1037 5.2876C24.7437 5.2876 25.2837 4.7576 25.2837 4.1176C25.2837 3.4776 24.7437 2.9376 24.1037 2.9376C23.4637 2.9376 22.9237 3.4776 22.9237 4.1176C22.9237 4.7576 23.4637 5.2876 24.1037 5.2876ZM1.1737 5.2876C1.8137 5.2876 2.3537 4.7576 2.3537 4.1176C2.3537 3.4776 1.8137 2.9376 1.1737 2.9376C0.5337 2.9376 0.0037 3.4776 0.0037 4.1176C0.0037 4.7576 0.5337 5.2876 1.1737 5.2876ZM24.1037 9.5576C24.7437 9.5576 25.2837 9.0276 25.2837 8.3776C25.2837 7.7376 24.7437 7.2076 24.1037 7.2076C23.4637 7.2076 22.9237 7.7376 22.9237 8.3776C22.9237 9.0276 23.4637 9.5576 24.1037 9.5576ZM1.1737 9.5576C1.8137 9.5576 2.3537 9.0276 2.3537 8.3776C2.3537 7.7376 1.8137 7.2076 1.1737 7.2076C0.5337 7.2076 0.0037 7.7376 0.0037 8.3776C0.0037 9.0276 0.5337 9.5576 1.1737 9.5576ZM24.1037 13.8176C24.7437 13.8176 25.2837 13.2876 25.2837 12.6476C25.2837 12.0076 24.7437 11.4676 24.1037 11.4676C23.4637 11.4676 22.9237 12.0076 22.9237 12.6476C22.9237 13.2876 23.4637 13.8176 24.1037 13.8176ZM1.1737 13.8176C1.8137 13.8176 2.3537 13.2876 2.3537 12.6476C2.3537 12.0076 1.8137 11.4676 1.1737 11.4676C0.5337 11.4676 0.0037 12.0076 0.0037 12.6476C0.0037 13.2876 0.5337 13.8176 1.1737 13.8176ZM24.1037 18.0876C24.7437 18.0876 25.2837 17.5576 25.2837 16.9076C25.2837 16.2676 24.7437 15.7376 24.1037 15.7376C23.4637 15.7376 22.9237 16.2676 22.9237 16.9076C22.9237 17.5576 23.4637 18.0876 24.1037 18.0876ZM1.1737 18.0876C1.8137 18.0876 2.3537 17.5576 2.3537 16.9076C2.3537 16.2676 1.8137 15.7376 1.1737 15.7376C0.5337 15.7376 0.0037 16.2676 0.0037 16.9076C0.0037 17.5576 0.5337 18.0876 1.1737 18.0876ZM24.1037 22.3576C24.7437 22.3576 25.2837 21.8176 25.2837 21.1776C25.2837 20.5376 24.7437 19.9976 24.1037 19.9976C23.4637 19.9976 22.9237 20.5376 22.9237 21.1776C22.9237 21.8176 23.4637 22.3576 24.1037 22.3576ZM1.1737 22.3576C1.8137 22.3576 2.3537 21.8176 2.3537 21.1776C2.3537 20.5376 1.8137 19.9976 1.1737 19.9976C0.5337 19.9976 0.0037 20.5376 0.0037 21.1776C0.0037 21.8176 0.5337 22.3576 1.1737 22.3576ZM21.1737 25.2776C21.8237 25.2776 22.3537 24.7476 22.3537 24.1076C22.3537 23.4576 21.8237 22.9276 21.1737 22.9276C20.5337 22.9276 20.0037 23.4576 20.0037 24.1076C20.0037 24.7476 20.5337 25.2776 21.1737 25.2776ZM16.9137 25.2776C17.5537 25.2776 18.0837 24.7476 18.0837 24.1076C18.0837 23.4576 17.5537 22.9276 16.9137 22.9276C16.2537 22.9276 15.7337 23.4576 15.7337 24.1076C15.7337 24.7476 16.2537 25.2776 16.9137 25.2776ZM12.6337 25.2776C13.2937 25.2776 13.8037 24.7476 13.8037 24.1076C13.8037 23.4576 13.2937 22.9276 12.6337 22.9276C11.9937 22.9276 11.4537 23.4576 11.4537 24.1076C11.4537 24.7476 11.9937 25.2776 12.6337 25.2776ZM8.3637 25.2776C9.0137 25.2776 9.5437 24.7476 9.5437 24.1076C9.5437 23.4576 9.0137 22.9276 8.3637 22.9276C7.7237 22.9276 7.1937 23.4576 7.1937 24.1076C7.1937 24.7476 7.7237 25.2776 8.3637 25.2776ZM4.1037 25.2776C4.7437 25.2776 5.2737 24.7476 5.2737 24.1076C5.2737 23.4576 4.7437 22.9276 4.1037 22.9276C3.4637 22.9276 2.9237 23.4576 2.9237 24.1076C2.9237 24.7476 3.4637 25.2776 4.1037 25.2776Z"
        fillRule="evenodd"
        clipRule="evenodd"
    />
</svg>
        