
<svg
    viewBox={0 0 25.169921875 25.169921875}
    xmlns="http://www.w3.org/2000/svg"
>
    <path
        fill="inherit"
        d="M4.2937 25.1692H20.8737C23.7437 25.1692 25.1737 23.7592 25.1737 20.9492V4.2392C25.1737 1.4192 23.7437 -0.0008 20.8737 -0.0008H4.2937C1.4337 -0.0008 0.0037 1.4192 0.0037 4.2392V20.9492C0.0037 23.7592 1.4337 25.1692 4.2937 25.1692ZM4.3237 22.9692C2.9537 22.9692 2.2037 22.2392 2.2037 20.8192V4.3592C2.2037 2.9392 2.9537 2.1992 4.3237 2.1992H20.8537C22.2037 2.1992 22.9737 2.9392 22.9737 4.3592V20.8192C22.9737 22.2392 22.2037 22.9692 20.8537 22.9692ZM4.9737 5.9092V9.2392C4.9737 10.0892 5.4837 10.5992 6.3337 10.5992H9.6637C10.5137 10.5992 11.0237 10.0892 11.0237 9.2392V5.9092C11.0237 5.0592 10.5137 4.5492 9.6637 4.5492H6.3337C5.4837 4.5492 4.9737 5.0592 4.9737 5.9092ZM5.7937 15.3092H19.2637C19.7437 15.3092 20.0937 14.9392 20.0937 14.4692C20.0937 13.9992 19.7437 13.6292 19.2637 13.6292H5.7937C5.2937 13.6292 4.9337 13.9992 4.9337 14.4692C4.9337 14.9392 5.2937 15.3092 5.7937 15.3092ZM5.7937 19.9892H15.6537C16.1437 19.9892 16.5037 19.6192 16.5037 19.1592C16.5037 18.6792 16.1437 18.3092 15.6537 18.3092H5.7937C5.2937 18.3092 4.9337 18.6792 4.9337 19.1592C4.9337 19.6192 5.2937 19.9892 5.7937 19.9892Z"
        fillRule="evenodd"
        clipRule="evenodd"
    />
</svg>
        