
<svg
    viewBox="0 0 25.169921875 25.169921875"
    xmlns="http://www.w3.org/2000/svg"
>
    <path
        fill="inherit"
        d="M2.6137 11.4592H8.8437C10.5837 11.4592 11.4537 10.5992 11.4537 8.7892V2.6692C11.4537 0.8792 10.5837 -0.0008 8.8437 -0.0008H2.6137C0.8737 -0.0008 0.0037 0.8792 0.0037 2.6692V8.7892C0.0037 10.5992 0.8737 11.4592 2.6137 11.4592ZM16.3337 11.4592H22.5537C24.2937 11.4592 25.1737 10.5992 25.1737 8.7892V2.6692C25.1737 0.8792 24.2937 -0.0008 22.5537 -0.0008H16.3337C14.5837 -0.0008 13.7137 0.8792 13.7137 2.6692V8.7892C13.7137 10.5992 14.5837 11.4592 16.3337 11.4592ZM2.6437 9.5292C2.1637 9.5292 1.9237 9.2792 1.9237 8.7792V2.6692C1.9237 2.1692 2.1637 1.9292 2.6437 1.9292H8.8037C9.2837 1.9292 9.5337 2.1692 9.5337 2.6692V8.7792C9.5337 9.2792 9.2837 9.5292 8.8037 9.5292ZM16.3637 9.5292C15.8737 9.5292 15.6437 9.2792 15.6437 8.7792V2.6692C15.6437 2.1692 15.8737 1.9292 16.3637 1.9292H22.5337C23.0137 1.9292 23.2437 2.1692 23.2437 2.6692V8.7792C23.2437 9.2792 23.0137 9.5292 22.5337 9.5292ZM2.6137 25.1692H8.8437C10.5837 25.1692 11.4537 24.3092 11.4537 22.4992V16.3892C11.4537 14.5892 10.5837 13.7292 8.8437 13.7292H2.6137C0.8737 13.7292 0.0037 14.5892 0.0037 16.3892V22.4992C0.0037 24.3092 0.8737 25.1692 2.6137 25.1692ZM16.3337 25.1692H22.5537C24.2937 25.1692 25.1737 24.3092 25.1737 22.4992V16.3892C25.1737 14.5892 24.2937 13.7292 22.5537 13.7292H16.3337C14.5837 13.7292 13.7137 14.5892 13.7137 16.3892V22.4992C13.7137 24.3092 14.5837 25.1692 16.3337 25.1692ZM2.6437 23.2392C2.1637 23.2392 1.9237 22.9992 1.9237 22.5192V16.3892C1.9237 15.8992 2.1637 15.6592 2.6437 15.6592H8.8037C9.2837 15.6592 9.5337 15.8992 9.5337 16.3892V22.5192C9.5337 22.9992 9.2837 23.2392 8.8037 23.2392ZM16.3637 23.2392C15.8737 23.2392 15.6437 22.9992 15.6437 22.5192V16.3892C15.6437 15.8992 15.8737 15.6592 16.3637 15.6592H22.5337C23.0137 15.6592 23.2437 15.8992 23.2437 16.3892V22.5192C23.2437 22.9992 23.0137 23.2392 22.5337 23.2392Z"
        fillRule="evenodd"
        clipRule="evenodd"
    />
</svg>
        