
<svg
    viewBox="0 0 28.736593274905374 31.008165590141104"
    xmlns="http://www.w3.org/2000/svg"
>
    <path
        fill="inherit"
        d="M12.5637 9.3295L18.7037 5.7895C18.8437 5.6995 18.9337 5.7895 18.9337 5.9095V9.7795L15.1737 11.9395L16.8737 13.6195L24.5237 9.1995C24.6537 9.1395 24.7437 9.1995 24.7437 9.3295V20.3495C24.7437 20.5195 24.7337 20.6295 24.6637 20.7395C24.5837 20.8795 24.5037 21.0195 24.4137 21.1695L26.3737 23.1195C26.5137 22.9295 26.6037 22.7295 26.7137 22.5095C26.9237 22.1695 26.9737 21.8095 26.9737 21.3195V8.5795C26.9737 6.6495 25.2637 6.1595 23.9137 6.9195L21.1637 8.4895V5.1595C21.1637 3.2295 19.4437 2.7195 18.0837 3.4995L15.7137 4.8695V2.0095C15.7137 0.0695 14.0037 -0.4205 12.6437 0.3395L6.8937 3.6695L8.5737 5.3495L13.2437 2.6395C13.3837 2.5595 13.4837 2.6295 13.4837 2.7595V6.1595L10.8837 7.6495ZM26.9337 28.9895C27.3537 29.3995 28.0237 29.3995 28.4237 28.9895C28.8337 28.5795 28.8437 27.9095 28.4237 27.4995L1.9837 1.0695C1.5737 0.6595 0.9037 0.6595 0.4737 1.0695C0.0837 1.4695 0.0837 2.1595 0.4737 2.5595ZM3.2937 23.9295L5.4537 22.6795V25.1595C5.4537 27.4395 6.8337 28.1895 8.7537 27.0895L11.2637 25.6195V28.5795C11.2637 30.8595 12.6437 31.6095 14.5637 30.4995L21.9137 26.2495L20.2337 24.5795L13.7137 28.3595C13.5737 28.4295 13.4937 28.3695 13.4937 28.2395V17.8595L11.2637 15.6595V22.9895L7.8937 24.9295C7.7637 24.9995 7.6837 24.9495 7.6837 24.8195V12.8395C7.6837 12.6795 7.7137 12.4295 7.8637 12.2395L6.1937 10.5795C5.6837 11.0395 5.4537 11.8595 5.4537 12.7595V20.0495L2.4437 21.7795C2.3137 21.8495 2.2237 21.8095 2.2237 21.6695V9.7595C2.2237 9.1995 2.4337 8.8795 2.8537 8.5895C3.1337 8.4095 3.4037 8.2295 3.6737 8.0695L2.0337 6.4395C1.8137 6.5795 1.5737 6.7295 1.3537 6.8795C0.3937 7.5095 0.0037 8.2495 0.0037 9.6095V21.9995C0.0037 24.2995 1.4037 25.0195 3.2937 23.9295Z"
        fillRule="evenodd"
        clipRule="evenodd"
    />
</svg>
        