
<svg
    viewBox={0 0 26.974609375 31.008165590141104}
    xmlns="http://www.w3.org/2000/svg"
>
    <path
        fill="inherit"
        d="M14.5637 30.4995L25.2637 24.3095C26.6037 23.5495 26.9737 22.7695 26.9737 21.3195V8.5795C26.9737 6.6495 25.2537 6.1595 23.8937 6.9195L21.1637 8.5095V5.1595C21.1637 3.2295 19.4437 2.7195 18.0837 3.4995L15.7137 4.8695V2.0095C15.7137 0.0695 13.9837 -0.4205 12.6337 0.3395L1.6837 6.6695C0.4637 7.3895 0.0037 8.1895 0.0037 9.6095V21.9995C0.0037 24.2995 1.3837 25.0395 3.2937 23.9295L5.4537 22.6795V25.1595C5.4537 27.4395 6.8237 28.1795 8.7537 27.0895L11.2637 25.6195V28.5795C11.2637 30.8595 12.6437 31.6095 14.5637 30.4995ZM2.2237 21.6695V9.6995C2.2237 9.1095 2.3937 8.9195 2.8337 8.6595L13.2437 2.6395C13.3837 2.5595 13.4837 2.6295 13.4837 2.7595V6.1595L7.1337 9.8195C5.9037 10.5395 5.4537 11.3495 5.4537 12.7595V20.0495L2.4337 21.7795C2.3137 21.8495 2.2237 21.8095 2.2237 21.6695ZM11.2637 16.1795V22.9895L7.8937 24.9295C7.7637 24.9995 7.6837 24.9495 7.6837 24.8195V12.8395C7.6837 12.2495 7.8437 12.0595 8.2837 11.7995L18.7037 5.7895C18.8437 5.6995 18.9337 5.7895 18.9337 5.9095V9.7895L12.9437 13.2495C11.7337 13.9595 11.2637 14.7695 11.2637 16.1795ZM14.0937 15.2195L24.5137 9.1995C24.6537 9.1395 24.7437 9.1995 24.7437 9.3295V21.2795C24.7437 21.8195 24.6337 22.0395 24.1737 22.3195L13.7037 28.3595C13.5737 28.4295 13.4937 28.3695 13.4937 28.2395V16.2595C13.4937 15.6695 13.6537 15.4795 14.0937 15.2195Z"
        fillRule="evenodd"
        clipRule="evenodd"
    />
</svg>
        