
<svg
    viewBox={0 0 27.9453125 30.3515625}
    xmlns="http://www.w3.org/2000/svg"
>
    <path
        fill="inherit"
        d="M15.7137 29.7924L26.4037 23.5824C27.5037 22.9424 27.9437 22.4324 27.9437 21.6824C27.9437 20.9424 27.5037 20.4424 26.4037 19.7924L24.2537 18.5424L26.4037 17.2824C27.5037 16.6424 27.9437 16.1424 27.9437 15.3924C27.9437 14.6424 27.5037 14.1524 26.4037 13.4924L23.8737 12.0324L26.4037 10.5524C27.5037 9.9124 27.9437 9.4024 27.9437 8.6524C27.9437 7.9124 27.5037 7.4124 26.4037 6.7724L15.7137 0.5624C15.0537 0.1824 14.5237 0.0024 13.9737 0.0024C13.4137 0.0024 12.8937 0.1824 12.2337 0.5624L1.5337 6.7724C0.4237 7.4124 0.0037 7.9124 0.0037 8.6524C0.0037 9.4024 0.4237 9.9124 1.5337 10.5524L4.0737 12.0324L1.5337 13.4924C0.4237 14.1524 0.0037 14.6424 0.0037 15.3924C0.0037 16.1424 0.4237 16.6424 1.5337 17.2824L3.7037 18.5424L1.5337 19.7924C0.4237 20.4424 0.0037 20.9424 0.0037 21.6824C0.0037 22.4324 0.4237 22.9424 1.5337 23.5824L12.2337 29.7924C12.8937 30.1724 13.4137 30.3524 13.9737 30.3524C14.5237 30.3524 15.0537 30.1724 15.7137 29.7924ZM13.9737 14.9424C13.7837 14.9424 13.5937 14.8724 13.3537 14.7524L2.9537 8.7924C2.8937 8.7624 2.8537 8.7224 2.8537 8.6524C2.8537 8.6024 2.8937 8.5624 2.9537 8.5324L13.3537 2.5724C13.5937 2.4424 13.7837 2.3824 13.9737 2.3824C14.1637 2.3824 14.3537 2.4424 14.5737 2.5724L24.9737 8.5324C25.0437 8.5624 25.0837 8.6024 25.0837 8.6524C25.0837 8.7224 25.0437 8.7624 24.9737 8.7924L14.5737 14.7524C14.3537 14.8724 14.1637 14.9424 13.9737 14.9424ZM13.3537 27.7824L2.9537 21.8224C2.8937 21.7924 2.8537 21.7524 2.8537 21.6824C2.8537 21.6324 2.8937 21.5924 2.9537 21.5624L5.9437 19.8524L12.2337 23.5024C12.8937 23.8824 13.4137 24.0624 13.9737 24.0624C14.5237 24.0624 15.0537 23.8824 15.7137 23.5024L21.9837 19.8524L24.9737 21.5624C25.0437 21.5924 25.0837 21.6324 25.0837 21.6824C25.0837 21.7524 25.0437 21.7924 24.9737 21.8224L14.5737 27.7824C14.3537 27.9024 14.1637 27.9724 13.9737 27.9724C13.7837 27.9724 13.5937 27.9024 13.3537 27.7824Z"
        fillRule="evenodd"
        clipRule="evenodd"
    />
</svg>
        