
<svg
    viewBox="0 0 31.103515625 37.064453125"
    xmlns="http://www.w3.org/2000/svg"
>
    <path
        fill="inherit"
        d="M12.1437 20.002C12.7237 20.002 13.2237 19.522 13.2237 18.952V5.042L13.1437 2.992L13.9037 3.802L16.0237 6.052C16.2137 6.272 16.4837 6.382 16.7637 6.382C17.3237 6.382 17.7637 5.972 17.7637 5.432C17.7637 5.122 17.6337 4.912 17.4337 4.702L12.9237 0.352C12.6437 0.082 12.4137 0.002 12.1437 0.002C11.8537 0.002 11.6237 0.082 11.3437 0.352L6.8337 4.702C6.6337 4.912 6.5037 5.122 6.5037 5.432C6.5037 5.972 6.9137 6.382 7.4937 6.382C7.7637 6.382 8.0537 6.272 8.2437 6.052L10.3637 3.802L11.1337 2.992L11.0437 5.042V18.952C11.0437 19.522 11.5537 20.002 12.1437 20.002ZM4.2937 30.722H6.8237V32.822C6.8237 35.652 8.2737 37.062 11.1137 37.062H26.7937C29.6637 37.062 31.0937 35.642 31.0937 32.822L31.1037 19.332C31.1037 16.512 29.6637 15.092 26.8137 15.092H24.2637V12.992C24.2637 10.172 22.8437 8.752 19.9737 8.752H15.7937V10.952H19.9437C21.3037 10.952 22.0637 11.672 22.0637 13.102V26.372C22.0637 27.792 21.2837 28.522 19.9337 28.522H4.3237C2.9537 28.522 2.2037 27.792 2.2037 26.372L2.2137 13.102C2.2137 11.672 2.9637 10.952 4.3337 10.952H8.4737V8.752H4.2937C1.4537 8.752 0.0137 10.162 0.0137 12.992L0.0037 26.482C0.0037 29.312 1.4337 30.722 4.2937 30.722ZM11.1537 34.862C9.7937 34.862 9.0237 34.142 9.0237 32.712V30.722H19.9737C22.8337 30.722 24.2637 29.302 24.2637 26.482V17.292H26.7737C28.1237 17.292 28.9037 18.022 28.9037 19.442L28.8937 32.712C28.8937 34.142 28.1137 34.862 26.7737 34.862Z"
        fillRule="evenodd"
        clipRule="evenodd"
    />
</svg>
        