<svg viewBox="0 0 24.267578125 29.244140625" xmlns="http://www.w3.org/2000/svg"><path d="M12.1237 -0.0047C11.5437 -0.0047 11.0437 0.4753 11.0437 1.0553V14.9553L11.1337 17.0053L10.3637 16.2053L8.2437 13.9453C8.0537 13.7253 7.7537 13.6153 7.4937 13.6153C6.9137 13.6153 6.5037 14.0153 6.5037 14.5753C6.5037 14.8753 6.6337 15.0953 6.8337 15.2953L11.3337 19.6453C11.6237 19.9153 11.8537 20.0053 12.1237 20.0053C12.4137 20.0053 12.6437 19.9153 12.9237 19.6453L17.4337 15.2953C17.6337 15.0953 17.7437 14.8753 17.7437 14.5753C17.7437 14.0153 17.3237 13.6153 16.7437 13.6153C16.4837 13.6153 16.2037 13.7253 16.0137 13.9453L13.9037 16.2053L13.1437 17.0053L13.2237 14.9553V1.0553C13.2237 0.4753 12.7137 -0.0047 12.1237 -0.0047ZM4.2937 29.2453H19.9737C22.8337 29.2453 24.2637 27.8253 24.2637 25.0053V11.5153C24.2637 8.6953 22.8337 7.2753 19.9737 7.2753H15.7737V9.4753H19.9337C21.2837 9.4753 22.0637 10.1953 22.0637 11.6253V24.8953C22.0637 26.3153 21.2837 27.0453 19.9337 27.0453H4.3237C2.9537 27.0453 2.2037 26.3153 2.2037 24.8953V11.6253C2.2037 10.1953 2.9537 9.4753 4.3237 9.4753H8.4737V7.2753H4.2937C1.4337 7.2753 0.0037 8.6853 0.0037 11.5153V25.0053C0.0037 27.8353 1.4337 29.2453 4.2937 29.2453Z" /></svg>