
<svg
    viewBox={0 0 34.302734375 23.474609375}
    xmlns="http://www.w3.org/2000/svg"
>
    <path
        fill="inherit"
        d="M0.7637 5.3452H4.5637C5.0537 5.3452 5.3437 5.0452 5.3437 4.5652V0.7952C5.3437 0.2852 5.0537 -0.0048 4.5637 -0.0048H0.7637C0.3037 -0.0048 0.0037 0.3152 0.0037 0.7952V4.5652C0.0037 5.0152 0.3037 5.3452 0.7637 5.3452ZM13.5537 23.0952H30.1437C32.9237 23.0952 34.3037 21.7252 34.3037 19.0052V4.4852C34.3037 1.7652 32.9237 0.3952 30.1437 0.3952H13.5537C10.8037 0.3952 9.4037 1.7652 9.4037 4.4852V19.0052C9.4037 21.7252 10.8037 23.0952 13.5537 23.0952ZM13.5737 20.9152C12.2937 20.9152 11.5837 20.2252 11.5837 18.8852V4.6052C11.5837 3.2552 12.2937 2.5752 13.5737 2.5752H30.1237C31.3937 2.5752 32.1337 3.2552 32.1337 4.6052V18.8852C32.1337 20.2252 31.3937 20.9152 30.1237 20.9152ZM0.7637 14.4052H4.5637C5.0537 14.4052 5.3437 14.1252 5.3437 13.6452V9.8752C5.3437 9.3552 5.0537 9.0652 4.5637 9.0652H0.7637C0.3037 9.0652 0.0037 9.3752 0.0037 9.8752V13.6452C0.0037 14.0952 0.3037 14.4052 0.7637 14.4052ZM0.7637 23.4752H4.5837C5.0537 23.4752 5.3437 23.1852 5.3437 22.7052V18.9352C5.3437 18.4152 5.0537 18.1252 4.5837 18.1252H0.7637C0.3037 18.1252 0.0037 18.4452 0.0037 18.9352V22.7052C0.0037 23.1552 0.3037 23.4752 0.7637 23.4752Z"
        fillRule="evenodd"
        clipRule="evenodd"
    />
</svg>
        