
<svg
    viewBox={0 0 26.892578125 31.076171875}
    xmlns="http://www.w3.org/2000/svg"
>
    <path
        fill="inherit"
        d="M1.4037 24.5826C1.6537 24.5826 1.9437 24.5026 2.2137 24.3126V9.6826C2.2137 9.1826 2.3137 8.9926 2.7337 8.7626L15.4037 1.4626C15.4637 0.5626 14.8737 0.0026 14.1137 0.0026C13.7537 0.0026 13.3737 0.0926 12.9637 0.3426L1.4937 6.9326C0.1537 7.7126 0.0037 7.9526 0.0037 9.5126V22.6026C0.0037 23.7726 0.5637 24.5826 1.4037 24.5826ZM6.8637 27.7426C7.1237 27.7426 7.3937 27.6626 7.6737 27.4626V12.8426C7.6737 12.3026 7.7537 12.1726 8.2037 11.9226L20.8737 4.6026C20.9137 3.7226 20.3537 3.1426 19.5537 3.1426C19.2137 3.1426 18.8237 3.2526 18.4137 3.4726L6.9437 10.0726C5.6037 10.8426 5.4437 11.1326 5.4437 12.6626V25.7626C5.4437 26.9326 6.0437 27.7426 6.8637 27.7426ZM12.7237 31.0726C13.2037 31.0726 13.7837 30.8826 14.4637 30.5026L25.1837 24.3526C26.4437 23.6226 26.8937 22.8726 26.8937 21.3426V8.9526C26.8937 7.3126 26.3137 6.4826 25.2937 6.4826C24.8237 6.4826 24.2637 6.6626 23.6237 7.0226L12.8837 13.2226C11.5937 13.9726 11.1437 14.7426 11.1437 16.2326V28.6126C11.1437 30.2026 11.6937 31.0726 12.7237 31.0726ZM13.4637 28.4126C13.3837 28.3926 13.3737 28.3526 13.3737 28.2626L13.4637 16.2726C13.4637 15.7526 13.6137 15.4726 14.0637 15.2126L24.4137 9.1326C24.4737 9.1026 24.5137 9.1026 24.5537 9.1226C24.6237 9.1326 24.6537 9.1726 24.6537 9.2726L24.6137 21.3026C24.6137 21.7526 24.4637 22.0926 24.0037 22.3626L13.6037 28.3926C13.5537 28.4226 13.5037 28.4226 13.4637 28.4126Z"
        fillRule="evenodd"
        clipRule="evenodd"
    />
</svg>
        