
<svg
    viewBox="0 0 27.890625 27.890625"
    xmlns="http://www.w3.org/2000/svg"
>
    <path
        fill="inherit"
        d="M13.9427 27.888C21.6427 27.888 27.8927 21.628 27.8927 13.948C27.8927 6.248 21.6427 -0.002 13.9427 -0.002C6.2627 -0.002 0.0027 6.248 0.0027 13.948C0.0027 21.628 6.2627 27.888 13.9427 27.888ZM8.7227 21.038C7.6127 21.038 6.8627 20.178 6.8627 18.918V8.678C6.8627 7.598 7.6127 6.848 8.7227 6.848H19.1927C20.4827 6.848 21.0527 7.428 21.0527 8.678V18.918C21.0527 20.348 20.4827 21.038 19.1927 21.038ZM9.6127 18.958H18.3027C18.7027 18.958 18.9727 18.708 18.9727 18.278V9.608C18.9727 9.198 18.7027 8.928 18.3027 8.928H9.6127C9.2127 8.928 8.9427 9.198 8.9427 9.608V18.278C8.9427 18.708 9.2127 18.958 9.6127 18.958Z"
        fillRule="evenodd"
        clipRule="evenodd"
    />
</svg>
        