
<svg
    viewBox="0 0 25.169921875 25.169921875"
    xmlns="http://www.w3.org/2000/svg"
>
    <path
        fill="inherit"
        d="M0.0037 24.0929C0.0037 24.7429 0.4337 25.1729 1.0937 25.1729H24.0937C24.7437 25.1729 25.1737 24.7429 25.1737 24.0929V1.0929C25.1737 0.4329 24.7437 0.0029 24.0937 0.0029H1.0937C0.4337 0.0029 0.0037 0.4329 0.0037 1.0929ZM2.2037 22.5729V2.5929C2.2037 2.3129 2.3137 2.2029 2.5937 2.2029H22.5737C22.8737 2.2029 22.9737 2.3129 22.9737 2.5929V22.5729C22.9737 22.8729 22.8737 22.9729 22.5737 22.9729H2.5937C2.3137 22.9729 2.2037 22.8729 2.2037 22.5729ZM5.7137 6.8929C6.3837 6.8929 6.8937 6.3829 6.8937 5.7129C6.8937 5.0429 6.3837 4.5429 5.7137 4.5429C5.0437 4.5429 4.5437 5.0429 4.5437 5.7129C4.5437 6.3829 5.0437 6.8929 5.7137 6.8929ZM9.1637 6.8929C9.8337 6.8929 10.3337 6.3829 10.3337 5.7129C10.3337 5.0429 9.8337 4.5429 9.1637 4.5429C8.4937 4.5429 7.9837 5.0429 7.9837 5.7129C7.9837 6.3829 8.4937 6.8929 9.1637 6.8929ZM12.5937 6.8929C13.2637 6.8929 13.7637 6.3829 13.7637 5.7129C13.7637 5.0429 13.2637 4.5429 12.5937 4.5429C11.9237 4.5429 11.4137 5.0429 11.4137 5.7129C11.4137 6.3829 11.9237 6.8929 12.5937 6.8929ZM16.0337 6.8929C16.7037 6.8929 17.2137 6.3829 17.2137 5.7129C17.2137 5.0429 16.7037 4.5429 16.0337 4.5429C15.3637 4.5429 14.8637 5.0429 14.8637 5.7129C14.8637 6.3829 15.3637 6.8929 16.0337 6.8929ZM19.4737 6.8929C20.1537 6.8929 20.6537 6.3829 20.6537 5.7129C20.6537 5.0429 20.1537 4.5429 19.4737 4.5429C18.8037 4.5429 18.2937 5.0429 18.2937 5.7129C18.2937 6.3829 18.8037 6.8929 19.4737 6.8929ZM19.4737 10.3229C20.1537 10.3229 20.6537 9.8129 20.6537 9.1429C20.6537 8.4729 20.1537 7.9729 19.4737 7.9729C18.8037 7.9729 18.2937 8.4729 18.2937 9.1429C18.2937 9.8129 18.8037 10.3229 19.4737 10.3229ZM5.7137 10.3229C6.3837 10.3229 6.8937 9.8129 6.8937 9.1429C6.8937 8.4729 6.3837 7.9729 5.7137 7.9729C5.0437 7.9729 4.5437 8.4729 4.5437 9.1429C4.5437 9.8129 5.0437 10.3229 5.7137 10.3229ZM19.4737 13.7629C20.1537 13.7629 20.6537 13.2629 20.6537 12.5929C20.6537 11.9229 20.1537 11.4129 19.4737 11.4129C18.8037 11.4129 18.2937 11.9229 18.2937 12.5929C18.2937 13.2629 18.8037 13.7629 19.4737 13.7629ZM5.7137 13.7629C6.3837 13.7629 6.8937 13.2629 6.8937 12.5929C6.8937 11.9229 6.3837 11.4129 5.7137 11.4129C5.0437 11.4129 4.5437 11.9229 4.5437 12.5929C4.5437 13.2629 5.0437 13.7629 5.7137 13.7629ZM19.4737 17.2029C20.1537 17.2029 20.6537 16.6929 20.6537 16.0229C20.6537 15.3529 20.1537 14.8429 19.4737 14.8429C18.8037 14.8429 18.2937 15.3529 18.2937 16.0229C18.2937 16.6929 18.8037 17.2029 19.4737 17.2029ZM5.7137 17.2029C6.3837 17.2029 6.8937 16.6929 6.8937 16.0229C6.8937 15.3529 6.3837 14.8429 5.7137 14.8429C5.0437 14.8429 4.5437 15.3529 4.5437 16.0229C4.5437 16.6929 5.0437 17.2029 5.7137 17.2029ZM19.4737 20.6429C20.1537 20.6429 20.6537 20.1429 20.6537 19.4729C20.6537 18.8029 20.1537 18.2929 19.4737 18.2929C18.8037 18.2929 18.2937 18.8029 18.2937 19.4729C18.2937 20.1429 18.8037 20.6429 19.4737 20.6429ZM16.0337 20.6429C16.7037 20.6429 17.2137 20.1429 17.2137 19.4729C17.2137 18.8029 16.7037 18.2929 16.0337 18.2929C15.3637 18.2929 14.8637 18.8029 14.8637 19.4729C14.8637 20.1429 15.3637 20.6429 16.0337 20.6429ZM12.5937 20.6429C13.2637 20.6429 13.7637 20.1429 13.7637 19.4729C13.7637 18.8029 13.2637 18.2929 12.5937 18.2929C11.9237 18.2929 11.4137 18.8029 11.4137 19.4729C11.4137 20.1429 11.9237 20.6429 12.5937 20.6429ZM9.1637 20.6429C9.8337 20.6429 10.3337 20.1429 10.3337 19.4729C10.3337 18.8029 9.8337 18.2929 9.1637 18.2929C8.4937 18.2929 7.9837 18.8029 7.9837 19.4729C7.9837 20.1429 8.4937 20.6429 9.1637 20.6429ZM5.7137 20.6429C6.3837 20.6429 6.8937 20.1429 6.8937 19.4729C6.8937 18.8029 6.3837 18.2929 5.7137 18.2929C5.0437 18.2929 4.5437 18.8029 4.5437 19.4729C4.5437 20.1429 5.0437 20.6429 5.7137 20.6429Z"
        fillRule="evenodd"
        clipRule="evenodd"
    />
</svg>
        