<svg viewBox="0 0 27.548828125 23.666015625" xmlns="http://www.w3.org/2000/svg"><path d="M2.3837 9.2309H6.8537C8.3537 9.2309 9.2237 8.3709 9.2237 6.9209V2.3209C9.2237 0.8709 8.3537 0.0009 6.8537 0.0009H2.3837C0.8737 0.0009 0.0037 0.8709 0.0037 2.3209V6.9209C0.0037 8.3709 0.8737 9.2309 2.3837 9.2309ZM13.2637 2.2009H26.4237C27.0437 2.2009 27.5537 1.7209 27.5537 1.1109C27.5537 0.4909 27.0437 0.0009 26.4237 0.0009H13.2637C12.6337 0.0009 12.1537 0.4909 12.1537 1.1109C12.1537 1.7209 12.6337 2.2009 13.2637 2.2009ZM13.2637 9.3609H26.4237C27.0437 9.3609 27.5537 8.8709 27.5537 8.2609C27.5537 7.6409 27.0437 7.1609 26.4237 7.1609H13.2637C12.6337 7.1609 12.1537 7.6409 12.1537 8.2609C12.1537 8.8709 12.6337 9.3609 13.2637 9.3609ZM13.2637 16.5109H26.4237C27.0437 16.5109 27.5537 16.0409 27.5537 15.4209C27.5537 14.7909 27.0437 14.3109 26.4237 14.3109H13.2637C12.6337 14.3109 12.1537 14.7909 12.1537 15.4209C12.1537 16.0409 12.6337 16.5109 13.2637 16.5109ZM2.3837 23.6709H6.8537C8.3537 23.6709 9.2237 22.8009 9.2237 21.3509V16.7609C9.2237 15.3109 8.3537 14.4409 6.8537 14.4409H2.3837C0.8737 14.4409 0.0037 15.3109 0.0037 16.7609V21.3509C0.0037 22.8009 0.8737 23.6709 2.3837 23.6709ZM13.2637 23.6709H26.4237C27.0437 23.6709 27.5537 23.1909 27.5537 22.5709C27.5537 21.9609 27.0437 21.4609 26.4237 21.4609H13.2637C12.6337 21.4609 12.1537 21.9609 12.1537 22.5709C12.1537 23.1909 12.6337 23.6709 13.2637 23.6709Z" /></svg>