
<svg
    viewBox="0 0 31.103515625 30.255859375"
    xmlns="http://www.w3.org/2000/svg"
>
    <path
        fill="inherit"
        d="M0.0027 11.2148C0.0027 16.5748 3.7627 21.0648 8.7927 22.1748V26.0148C8.7927 28.8348 10.2227 30.2548 13.0827 30.2548H26.8127C29.6527 30.2548 31.1027 28.8348 31.1027 26.0148V12.1848C31.1027 9.3648 29.6527 7.9448 26.8127 7.9448H21.9327C20.5327 3.3448 16.2527 0.0048 11.2127 0.0048C5.0127 0.0048 0.0027 5.0148 0.0027 11.2148ZM2.0827 11.2148C2.0827 6.1548 6.1427 2.0748 11.2127 2.0748C15.1227 2.0748 18.4427 4.5148 19.7427 7.9448H13.0827C10.2227 7.9448 8.7927 9.3648 8.7927 12.1848V20.0248C4.9127 18.9748 2.0827 15.4448 2.0827 11.2148ZM13.1227 28.0548C11.7627 28.0548 10.9927 27.3148 10.9927 25.8948V12.3048C10.9927 10.8848 11.7627 10.1448 13.1227 10.1448H26.7727C28.1327 10.1448 28.9027 10.8848 28.9027 12.3048V25.8948C28.9027 27.3148 28.1327 28.0548 26.7727 28.0548Z"
        fillRule="evenodd"
        clipRule="evenodd"
    />
</svg>
        