
<svg
    viewBox={0 0 25.279296875 25.265625}
    xmlns="http://www.w3.org/2000/svg"
>
    <path
        fill="inherit"
        d="M1.1737 2.3539C1.8137 2.3539 2.3537 1.8139 2.3537 1.1739C2.3537 0.5339 1.8137 0.0039 1.1737 0.0039C0.5337 0.0039 0.0037 0.5339 0.0037 1.1739C0.0037 1.8139 0.5337 2.3539 1.1737 2.3539ZM4.9937 2.3539C5.6437 2.3539 6.1637 1.8139 6.1637 1.1739C6.1637 0.5339 5.6437 0.0039 4.9937 0.0039C4.3437 0.0039 3.8137 0.5339 3.8137 1.1739C3.8137 1.8139 4.3437 2.3539 4.9937 2.3539ZM8.8137 2.3539C9.4637 2.3539 9.9937 1.8139 9.9937 1.1739C9.9937 0.5339 9.4637 0.0039 8.8137 0.0039C8.1737 0.0039 7.6437 0.5339 7.6437 1.1739C7.6437 1.8139 8.1737 2.3539 8.8137 2.3539ZM12.6337 2.3539C13.2737 2.3539 13.8037 1.8139 13.8037 1.1739C13.8037 0.5339 13.2737 0.0039 12.6337 0.0039C11.9937 0.0039 11.4537 0.5339 11.4537 1.1739C11.4537 1.8139 11.9937 2.3539 12.6337 2.3539ZM16.4637 2.3539C17.1037 2.3539 17.6337 1.8139 17.6337 1.1739C17.6337 0.5339 17.1037 0.0039 16.4637 0.0039C15.8137 0.0039 15.2837 0.5339 15.2837 1.1739C15.2837 1.8139 15.8137 2.3539 16.4637 2.3539ZM20.2737 2.3539C20.9137 2.3539 21.4537 1.8139 21.4537 1.1739C21.4537 0.5339 20.9137 0.0039 20.2737 0.0039C19.6337 0.0039 19.1037 0.5339 19.1037 1.1739C19.1037 1.8139 19.6337 2.3539 20.2737 2.3539ZM24.1037 2.3539C24.7437 2.3539 25.2837 1.8139 25.2837 1.1739C25.2837 0.5339 24.7437 0.0039 24.1037 0.0039C23.4637 0.0039 22.9237 0.5339 22.9237 1.1739C22.9237 1.8139 23.4637 2.3539 24.1037 2.3539ZM24.1037 6.1639C24.7437 6.1639 25.2837 5.6339 25.2837 4.9939C25.2837 4.3439 24.7437 3.8139 24.1037 3.8139C23.4637 3.8139 22.9237 4.3439 22.9237 4.9939C22.9237 5.6339 23.4637 6.1639 24.1037 6.1639ZM12.6337 6.1639C13.2737 6.1639 13.8037 5.6339 13.8037 4.9939C13.8037 4.3439 13.2737 3.8139 12.6337 3.8139C11.9937 3.8139 11.4537 4.3439 11.4537 4.9939C11.4537 5.6339 11.9937 6.1639 12.6337 6.1639ZM1.1737 6.1639C1.8137 6.1639 2.3537 5.6339 2.3537 4.9939C2.3537 4.3439 1.8137 3.8139 1.1737 3.8139C0.5337 3.8139 0.0037 4.3439 0.0037 4.9939C0.0037 5.6339 0.5337 6.1639 1.1737 6.1639ZM24.1037 9.9839C24.7437 9.9839 25.2837 9.4639 25.2837 8.8039C25.2837 8.1639 24.7437 7.6239 24.1037 7.6239C23.4637 7.6239 22.9237 8.1639 22.9237 8.8039C22.9237 9.4639 23.4637 9.9839 24.1037 9.9839ZM12.6337 9.9839C13.2737 9.9839 13.8037 9.4639 13.8037 8.8039C13.8037 8.1639 13.2737 7.6239 12.6337 7.6239C11.9937 7.6239 11.4537 8.1639 11.4537 8.8039C11.4537 9.4639 11.9937 9.9839 12.6337 9.9839ZM1.1737 9.9839C1.8137 9.9839 2.3537 9.4639 2.3537 8.8039C2.3537 8.1639 1.8137 7.6239 1.1737 7.6239C0.5337 7.6239 0.0037 8.1639 0.0037 8.8039C0.0037 9.4639 0.5337 9.9839 1.1737 9.9839ZM20.2737 13.8039C20.9137 13.8039 21.4537 13.2739 21.4537 12.6339C21.4537 11.9939 20.9137 11.4539 20.2737 11.4539C19.6337 11.4539 19.1037 11.9939 19.1037 12.6339C19.1037 13.2739 19.6337 13.8039 20.2737 13.8039ZM1.1737 13.8039C1.8137 13.8039 2.3537 13.2739 2.3537 12.6339C2.3537 11.9939 1.8137 11.4539 1.1737 11.4539C0.5337 11.4539 0.0037 11.9939 0.0037 12.6339C0.0037 13.2739 0.5337 13.8039 1.1737 13.8039ZM24.1037 13.8039C24.7437 13.8039 25.2837 13.2739 25.2837 12.6339C25.2837 11.9939 24.7437 11.4539 24.1037 11.4539C23.4637 11.4539 22.9237 11.9939 22.9237 12.6339C22.9237 13.2739 23.4637 13.8039 24.1037 13.8039ZM12.6337 13.8039C13.2737 13.8039 13.8037 13.2739 13.8037 12.6339C13.8037 11.9939 13.2737 11.4539 12.6337 11.4539C11.9937 11.4539 11.4537 11.9939 11.4537 12.6339C11.4537 13.2739 11.9937 13.8039 12.6337 13.8039ZM4.9937 13.8039C5.6437 13.8039 6.1637 13.2739 6.1637 12.6339C6.1637 11.9939 5.6437 11.4539 4.9937 11.4539C4.3437 11.4539 3.8137 11.9939 3.8137 12.6339C3.8137 13.2739 4.3437 13.8039 4.9937 13.8039ZM8.8137 13.8039C9.4637 13.8039 9.9937 13.2739 9.9937 12.6339C9.9937 11.9939 9.4637 11.4539 8.8137 11.4539C8.1737 11.4539 7.6437 11.9939 7.6437 12.6339C7.6437 13.2739 8.1737 13.8039 8.8137 13.8039ZM16.4637 13.8039C17.1037 13.8039 17.6337 13.2739 17.6337 12.6339C17.6337 11.9939 17.1037 11.4539 16.4637 11.4539C15.8137 11.4539 15.2837 11.9939 15.2837 12.6339C15.2837 13.2739 15.8137 13.8039 16.4637 13.8039ZM1.1737 17.6239C1.8137 17.6239 2.3537 17.0939 2.3537 16.4439C2.3537 15.8039 1.8137 15.2739 1.1737 15.2739C0.5337 15.2739 0.0037 15.8039 0.0037 16.4439C0.0037 17.0939 0.5337 17.6239 1.1737 17.6239ZM24.1037 17.6239C24.7437 17.6239 25.2837 17.0939 25.2837 16.4439C25.2837 15.8039 24.7437 15.2739 24.1037 15.2739C23.4637 15.2739 22.9237 15.8039 22.9237 16.4439C22.9237 17.0939 23.4637 17.6239 24.1037 17.6239ZM12.6337 17.6239C13.2737 17.6239 13.8037 17.0939 13.8037 16.4439C13.8037 15.8039 13.2737 15.2739 12.6337 15.2739C11.9937 15.2739 11.4537 15.8039 11.4537 16.4439C11.4537 17.0939 11.9937 17.6239 12.6337 17.6239ZM1.1737 21.4539C1.8137 21.4539 2.3537 20.9139 2.3537 20.2739C2.3537 19.6339 1.8137 19.1039 1.1737 19.1039C0.5337 19.1039 0.0037 19.6339 0.0037 20.2739C0.0037 20.9139 0.5337 21.4539 1.1737 21.4539ZM24.1037 21.4539C24.7437 21.4539 25.2837 20.9139 25.2837 20.2739C25.2837 19.6339 24.7437 19.1039 24.1037 19.1039C23.4637 19.1039 22.9237 19.6339 22.9237 20.2739C22.9237 20.9139 23.4637 21.4539 24.1037 21.4539ZM12.6337 21.4539C13.2737 21.4539 13.8037 20.9139 13.8037 20.2739C13.8037 19.6339 13.2737 19.1039 12.6337 19.1039C11.9937 19.1039 11.4537 19.6339 11.4537 20.2739C11.4537 20.9139 11.9937 21.4539 12.6337 21.4539ZM16.4637 25.2639C17.1037 25.2639 17.6337 24.7339 17.6337 24.0939C17.6337 23.4439 17.1037 22.9139 16.4637 22.9139C15.8137 22.9139 15.2837 23.4439 15.2837 24.0939C15.2837 24.7339 15.8137 25.2639 16.4637 25.2639ZM12.6337 25.2639C13.2737 25.2639 13.8037 24.7339 13.8037 24.0939C13.8037 23.4439 13.2737 22.9139 12.6337 22.9139C11.9937 22.9139 11.4537 23.4439 11.4537 24.0939C11.4537 24.7339 11.9937 25.2639 12.6337 25.2639ZM20.2737 25.2639C20.9137 25.2639 21.4537 24.7339 21.4537 24.0939C21.4537 23.4439 20.9137 22.9139 20.2737 22.9139C19.6337 22.9139 19.1037 23.4439 19.1037 24.0939C19.1037 24.7339 19.6337 25.2639 20.2737 25.2639ZM4.9937 25.2639C5.6437 25.2639 6.1637 24.7339 6.1637 24.0939C6.1637 23.4439 5.6437 22.9139 4.9937 22.9139C4.3437 22.9139 3.8137 23.4439 3.8137 24.0939C3.8137 24.7339 4.3437 25.2639 4.9937 25.2639ZM1.1737 25.2639C1.8137 25.2639 2.3537 24.7339 2.3537 24.0939C2.3537 23.4439 1.8137 22.9139 1.1737 22.9139C0.5337 22.9139 0.0037 23.4439 0.0037 24.0939C0.0037 24.7339 0.5337 25.2639 1.1737 25.2639ZM24.1037 25.2639C24.7437 25.2639 25.2837 24.7339 25.2837 24.0939C25.2837 23.4439 24.7437 22.9139 24.1037 22.9139C23.4637 22.9139 22.9237 23.4439 22.9237 24.0939C22.9237 24.7339 23.4637 25.2639 24.1037 25.2639ZM8.8137 25.2639C9.4637 25.2639 9.9937 24.7339 9.9937 24.0939C9.9937 23.4439 9.4637 22.9139 8.8137 22.9139C8.1737 22.9139 7.6437 23.4439 7.6437 24.0939C7.6437 24.7339 8.1737 25.2639 8.8137 25.2639Z"
        fillRule="evenodd"
        clipRule="evenodd"
    />
</svg>
        