
<svg
    viewBox="0 0 26.974609375 31.008165590141097"
    xmlns="http://www.w3.org/2000/svg"
>
    <path
        fill="inherit"
        d="M15.7137 28.5795V25.6195L18.2237 27.0895C20.1537 28.1795 21.5237 27.4395 21.5237 25.1595V22.6795L23.6837 23.9295C25.6037 25.0395 26.9737 24.2995 26.9737 21.9995V9.6095C26.9737 8.1895 26.5137 7.3895 25.2937 6.6695L14.3437 0.3395C12.9837 -0.4205 11.2637 0.0695 11.2637 2.0095V4.8695L8.8837 3.4995C7.5337 2.7195 5.8137 3.2295 5.8137 5.1595V8.5095L3.0737 6.9195C1.7237 6.1595 0.0037 6.6495 0.0037 8.5795V21.3195C0.0037 22.7695 0.3737 23.5495 1.7137 24.3095L12.4137 30.4995C14.3437 31.6095 15.7137 30.8595 15.7137 28.5795ZM24.5437 21.7795L21.5237 20.0495V12.7595C21.5237 11.3495 21.0637 10.5395 19.8337 9.8195L13.4937 6.1595V2.7595C13.4937 2.6295 13.5937 2.5595 13.7237 2.6395L24.1437 8.6595C24.5837 8.9195 24.7437 9.1095 24.7437 9.6995V21.6695C24.7437 21.8095 24.6637 21.8495 24.5437 21.7795ZM15.7137 16.1795C15.7137 14.7695 15.2437 13.9595 14.0237 13.2495L8.0437 9.7895V5.9095C8.0437 5.7895 8.1437 5.6995 8.2737 5.7895L18.6937 11.7995C19.1237 12.0595 19.2937 12.2495 19.2937 12.8395V24.8195C19.2937 24.9495 19.2137 24.9995 19.0837 24.9295L15.7137 22.9895ZM12.8837 15.2195C13.3137 15.4795 13.4837 15.6695 13.4837 16.2595V28.2395C13.4837 28.3695 13.3937 28.4295 13.2737 28.3595L2.8137 22.3195C2.3537 22.0395 2.2237 21.8195 2.2237 21.2795V9.3295C2.2237 9.1995 2.3237 9.1395 2.4637 9.1995Z"
        fillRule="evenodd"
        clipRule="evenodd"
    />
</svg>
        