
<svg
    viewBox="0 0 25.169921875 25.169921875"
    xmlns="http://www.w3.org/2000/svg"
>
    <path
        fill="inherit"
        d="M4.2937 25.1692H20.8737C23.7437 25.1692 25.1737 23.7592 25.1737 20.9492V4.2392C25.1737 1.4192 23.7437 -0.0008 20.8737 -0.0008H4.2937C1.4337 -0.0008 0.0037 1.4192 0.0037 4.2392V20.9492C0.0037 23.7592 1.4337 25.1692 4.2937 25.1692ZM4.3237 22.9692C2.9537 22.9692 2.2037 22.2392 2.2037 20.8192V4.3592C2.2037 2.9392 2.9537 2.1992 4.3237 2.1992H20.8537C22.2037 2.1992 22.9737 2.9392 22.9737 4.3592V20.8192C22.9737 22.2392 22.2037 22.9692 20.8537 22.9692ZM4.2637 7.5192C4.2637 8.1092 4.6337 8.4792 5.2237 8.4792H7.5037C8.0937 8.4792 8.4637 8.1092 8.4637 7.5192V5.2192C8.4637 4.6392 8.0937 4.2692 7.5037 4.2692H5.2237C4.6337 4.2692 4.2637 4.6392 4.2637 5.2192ZM10.5037 7.5192C10.5037 8.1092 10.8737 8.4792 11.4537 8.4792H13.7437C14.3437 8.4792 14.7137 8.1092 14.7137 7.5192V5.2192C14.7137 4.6392 14.3437 4.2692 13.7437 4.2692H11.4537C10.8737 4.2692 10.5037 4.6392 10.5037 5.2192ZM16.7237 7.5192C16.7237 8.1092 17.0937 8.4792 17.6737 8.4792H19.9637C20.5537 8.4792 20.9137 8.1092 20.9137 7.5192V5.2192C20.9137 4.6392 20.5537 4.2692 19.9637 4.2692H17.6737C17.0937 4.2692 16.7237 4.6392 16.7237 5.2192ZM4.2637 13.7392C4.2637 14.3292 4.6337 14.6992 5.2237 14.6992H7.5037C8.0937 14.6992 8.4637 14.3292 8.4637 13.7392V11.4392C8.4637 10.8592 8.0937 10.4892 7.5037 10.4892H5.2237C4.6337 10.4892 4.2637 10.8592 4.2637 11.4392ZM10.5037 13.7392C10.5037 14.3292 10.8737 14.6992 11.4537 14.6992H13.7437C14.3437 14.6992 14.7137 14.3292 14.7137 13.7392V11.4392C14.7137 10.8592 14.3437 10.4892 13.7437 10.4892H11.4537C10.8737 10.4892 10.5037 10.8592 10.5037 11.4392ZM16.7237 13.7392C16.7237 14.3292 17.0937 14.6992 17.6737 14.6992H19.9637C20.5537 14.6992 20.9137 14.3292 20.9137 13.7392V11.4392C20.9137 10.8592 20.5537 10.4892 19.9637 10.4892H17.6737C17.0937 10.4892 16.7237 10.8592 16.7237 11.4392ZM4.2637 19.9592C4.2637 20.5492 4.6337 20.9192 5.2237 20.9192H7.5037C8.0937 20.9192 8.4637 20.5492 8.4637 19.9592V17.6592C8.4637 17.0792 8.0937 16.7092 7.5037 16.7092H5.2237C4.6337 16.7092 4.2637 17.0792 4.2637 17.6592ZM10.5037 19.9592C10.5037 20.5492 10.8737 20.9192 11.4537 20.9192H13.7437C14.3437 20.9192 14.7137 20.5492 14.7137 19.9592V17.6592C14.7137 17.0792 14.3437 16.7092 13.7437 16.7092H11.4537C10.8737 16.7092 10.5037 17.0792 10.5037 17.6592ZM16.7237 19.9592C16.7237 20.5492 17.0937 20.9192 17.6737 20.9192H19.9637C20.5537 20.9192 20.9137 20.5492 20.9137 19.9592V17.6592C20.9137 17.0792 20.5537 16.7092 19.9637 16.7092H17.6737C17.0937 16.7092 16.7237 17.0792 16.7237 17.6592Z"
        fillRule="evenodd"
        clipRule="evenodd"
    />
</svg>
        