
<svg
    viewBox="0 0 31.677734375 24.513671875"
    xmlns="http://www.w3.org/2000/svg"
>
    <path
        fill="inherit"
        d="M4.2237 17.5858H27.4537C30.2837 17.5858 31.6737 16.2058 31.6737 13.4158V4.1658C31.6737 1.3658 30.2837 -0.0042 27.4537 -0.0042H4.2237C1.4037 -0.0042 0.0037 1.3658 0.0037 4.1658V13.4158C0.0037 16.2058 1.4037 17.5858 4.2237 17.5858ZM4.2537 15.3858C2.9137 15.3858 2.2037 14.6958 2.2037 13.3058V4.2758C2.2037 2.8858 2.9137 2.1858 4.2537 2.1858H27.4237C28.7637 2.1858 29.4737 2.8858 29.4737 4.2758V13.3058C29.4737 14.6958 28.7637 15.3858 27.4237 15.3858ZM1.3637 24.5158H4.2537C4.6437 24.5158 4.9637 24.2158 4.9637 23.8158V20.9558C4.9637 20.5358 4.6637 20.2358 4.2537 20.2358H1.3637C0.9337 20.2358 0.6437 20.5358 0.6437 20.9558V23.8158C0.6437 24.2158 0.9437 24.5158 1.3637 24.5158ZM7.8937 24.5158H10.7737C11.1737 24.5158 11.4837 24.2158 11.4837 23.8158V20.9558C11.4837 20.5358 11.1837 20.2358 10.7737 20.2358H7.8937C7.4537 20.2358 7.1637 20.5358 7.1637 20.9558V23.8158C7.1637 24.2158 7.4637 24.5158 7.8937 24.5158ZM14.4137 24.5158H17.2937C17.6937 24.5158 18.0037 24.2158 18.0037 23.8158V20.9558C18.0037 20.5358 17.7037 20.2358 17.2937 20.2358H14.4137C13.9737 20.2358 13.6837 20.5358 13.6837 20.9558V23.8158C13.6837 24.2158 13.9837 24.5158 14.4137 24.5158ZM20.9337 24.5158H23.8137C24.2137 24.5158 24.5237 24.2158 24.5237 23.8158V20.9558C24.5237 20.5358 24.2237 20.2358 23.8137 20.2358H20.9337C20.4937 20.2358 20.2037 20.5358 20.2037 20.9558V23.8158C20.2037 24.2158 20.5037 24.5158 20.9337 24.5158ZM27.4537 24.5158H30.3337C30.7337 24.5158 31.0537 24.2158 31.0537 23.8158V20.9558C31.0537 20.5358 30.7437 20.2358 30.3337 20.2358H27.4537C27.0137 20.2358 26.7237 20.5358 26.7237 20.9558V23.8158C26.7237 24.2158 27.0337 24.5158 27.4537 24.5158Z"
        fillRule="evenodd"
        clipRule="evenodd"
    />
</svg>
        