
<svg
    viewBox={0 0 29.490234375 28.642578125}
    xmlns="http://www.w3.org/2000/svg"
>
    <path
        fill="inherit"
        d="M0.9537 2.0623H28.5337C29.0937 2.0623 29.4937 1.6223 29.4937 1.0223C29.4937 0.4223 29.0937 0.0023 28.5337 0.0023H0.9537C0.3837 0.0023 0.0037 0.4223 0.0037 1.0223C0.0037 1.6223 0.3837 2.0623 0.9537 2.0623ZM2.6637 12.9423H5.6437C7.3137 12.9423 8.1437 12.1123 8.1437 10.3723V7.5223C8.1437 5.7823 7.3137 4.9623 5.6437 4.9623H2.6637C0.9937 4.9623 0.1637 5.7823 0.1637 7.5223V10.3723C0.1637 12.1123 0.9937 12.9423 2.6637 12.9423ZM13.2437 12.9423H16.2237C17.8937 12.9423 18.7337 12.1123 18.7337 10.3723V7.5223C18.7337 5.7823 17.8937 4.9623 16.2237 4.9623H13.2437C11.5837 4.9623 10.7437 5.7823 10.7437 7.5223V10.3723C10.7437 12.1123 11.5837 12.9423 13.2437 12.9423ZM23.8337 12.9423H26.7937C28.4637 12.9423 29.3037 12.1123 29.3037 10.3723V7.5223C29.3037 5.7823 28.4637 4.9623 26.7937 4.9623H23.8337C22.1437 4.9623 21.3137 5.7823 21.3137 7.5223V10.3723C21.3137 12.1123 22.1437 12.9423 23.8337 12.9423ZM0.9537 17.7623H28.5337C29.0937 17.7623 29.4937 17.3323 29.4937 16.7323C29.4937 16.1323 29.0937 15.6923 28.5337 15.6923H0.9537C0.3837 15.6923 0.0037 16.1323 0.0037 16.7323C0.0037 17.3323 0.3837 17.7623 0.9537 17.7623ZM2.6837 28.6423H5.6637C7.3237 28.6423 8.1637 27.8223 8.1637 26.0823V23.2123C8.1637 21.4823 7.3237 20.6623 5.6637 20.6623H2.6837C1.0137 20.6623 0.1737 21.4823 0.1737 23.2123V26.0823C0.1737 27.8223 1.0137 28.6423 2.6837 28.6423ZM13.2637 28.6423H16.2437C17.9137 28.6423 18.7437 27.8223 18.7437 26.0823V23.2123C18.7437 21.4823 17.9137 20.6623 16.2437 20.6623H13.2637C11.5937 20.6623 10.7637 21.4823 10.7637 23.2123V26.0823C10.7637 27.8223 11.5937 28.6423 13.2637 28.6423ZM23.8437 28.6423H26.8137C28.4937 28.6423 29.3237 27.8223 29.3237 26.0823V23.2123C29.3237 21.4823 28.4937 20.6623 26.8137 20.6623H23.8437C22.1737 20.6623 21.3437 21.4823 21.3437 23.2123V26.0823C21.3437 27.8223 22.1737 28.6423 23.8437 28.6423Z"
        fillRule="evenodd"
        clipRule="evenodd"
    />
</svg>
        