<svg viewBox="0 0 30.912109375 30.8984375" xmlns="http://www.w3.org/2000/svg"><path d="M3.1737 23.3366C4.5937 23.3366 5.7137 22.4766 6.1537 21.2566H9.6137V24.7566C8.4037 25.2066 7.5437 26.3766 7.5437 27.7366C7.5437 29.4866 8.9537 30.8966 10.7237 30.8966C12.0737 30.8966 13.2337 30.0466 13.6837 28.8366H24.7737C25.2137 30.0466 26.3737 30.8966 27.7437 30.8966C29.4937 30.8966 30.9137 29.4866 30.9137 27.7366C30.9137 26.3766 30.0537 25.2066 28.8437 24.7566V13.7166C30.0537 13.2666 30.9137 12.0966 30.9137 10.7366C30.9137 8.9866 29.4937 7.5766 27.7437 7.5766C26.3737 7.5766 25.2137 8.4266 24.7737 9.6366H21.3037V6.1366C22.5037 5.6866 23.3637 4.5266 23.3637 3.1566C23.3637 1.4066 21.9437 -0.0034 20.1937 -0.0034C18.8237 -0.0034 17.6637 0.8566 17.2237 2.0666H6.1437C5.6837 0.8566 4.5437 -0.0034 3.1737 -0.0034C1.4037 -0.0034 0.0037 1.4066 0.0037 3.1566C0.0037 4.5266 0.8637 5.6866 2.0637 6.1366V17.1966C0.8637 17.6366 0.0037 18.7966 0.0037 20.1666C0.0037 21.9166 1.4037 23.3366 3.1737 23.3366ZM10.7237 7.5766C8.9537 7.5766 7.5437 8.9866 7.5437 10.7366C7.5437 12.0966 8.4037 13.2666 9.6137 13.7166V19.0566H6.1437C5.8237 18.1966 5.1237 17.5166 4.2637 17.1966V6.1366C5.1237 5.8066 5.8237 5.1266 6.1437 4.2666H17.2237C17.5437 5.1266 18.2237 5.8066 19.1037 6.1366V9.6366H13.6837C13.2337 8.4266 12.0837 7.5766 10.7237 7.5766ZM13.6837 26.6366C13.3737 25.7666 12.6737 25.0866 11.8137 24.7566V13.7166C12.6737 13.3866 13.3737 12.6966 13.6837 11.8366H24.7737C25.0837 12.6966 25.7737 13.3866 26.6437 13.7166V24.7566C25.7737 25.0866 25.0837 25.7666 24.7737 26.6366Z" /></svg>