
<svg
    viewBox={0 0 25.169921875 25.169921875}
    xmlns="http://www.w3.org/2000/svg"
>
    <path
        fill="inherit"
        d="M0.0037 24.0929C0.0037 24.7429 0.4337 25.1729 1.0937 25.1729H24.0937C24.7437 25.1729 25.1737 24.7429 25.1737 24.0929V1.0929C25.1737 0.4329 24.7437 0.0029 24.0937 0.0029H1.0937C0.4337 0.0029 0.0037 0.4329 0.0037 1.0929ZM2.2037 22.5729V2.5929C2.2037 2.3129 2.3137 2.2029 2.5937 2.2029H22.5737C22.8737 2.2029 22.9737 2.3129 22.9737 2.5929V22.5729C22.9737 22.8729 22.8737 22.9729 22.5737 22.9729H2.5937C2.3137 22.9729 2.2037 22.8729 2.2037 22.5729ZM12.5937 5.8929C13.2337 5.8929 13.7637 5.3629 13.7637 4.7129C13.7637 4.0729 13.2337 3.5429 12.5937 3.5429C11.9537 3.5429 11.4137 4.0729 11.4137 4.7129C11.4137 5.3629 11.9537 5.8929 12.5937 5.8929ZM12.5937 9.8329C13.2337 9.8329 13.7637 9.2929 13.7637 8.6529C13.7637 8.0129 13.2337 7.4829 12.5937 7.4829C11.9537 7.4829 11.4137 8.0129 11.4137 8.6529C11.4137 9.2929 11.9537 9.8329 12.5937 9.8329ZM12.5937 13.7629C13.2337 13.7629 13.7637 13.2329 13.7637 12.5929C13.7637 11.9529 13.2337 11.4129 12.5937 11.4129C11.9537 11.4129 11.4137 11.9529 11.4137 12.5929C11.4137 13.2329 11.9537 13.7629 12.5937 13.7629ZM4.7137 13.7629C5.3637 13.7629 5.8937 13.2329 5.8937 12.5929C5.8937 11.9529 5.3637 11.4129 4.7137 11.4129C4.0737 11.4129 3.5437 11.9529 3.5437 12.5929C3.5437 13.2329 4.0737 13.7629 4.7137 13.7629ZM8.6537 13.7629C9.2937 13.7629 9.8337 13.2329 9.8337 12.5929C9.8337 11.9529 9.2937 11.4129 8.6537 11.4129C8.0137 11.4129 7.4737 11.9529 7.4737 12.5929C7.4737 13.2329 8.0137 13.7629 8.6537 13.7629ZM16.5137 13.7629C17.1537 13.7629 17.6937 13.2329 17.6937 12.5929C17.6937 11.9529 17.1537 11.4129 16.5137 11.4129C15.8737 11.4129 15.3437 11.9529 15.3437 12.5929C15.3437 13.2329 15.8737 13.7629 16.5137 13.7629ZM20.4537 13.7629C21.0937 13.7629 21.6337 13.2329 21.6337 12.5929C21.6337 11.9529 21.0937 11.4129 20.4537 11.4129C19.8137 11.4129 19.2737 11.9529 19.2737 12.5929C19.2737 13.2329 19.8137 13.7629 20.4537 13.7629ZM12.5937 17.7029C13.2337 17.7029 13.7637 17.1729 13.7637 16.5329C13.7637 15.8829 13.2337 15.3529 12.5937 15.3529C11.9537 15.3529 11.4137 15.8829 11.4137 16.5329C11.4137 17.1729 11.9537 17.7029 12.5937 17.7029ZM12.5937 21.6329C13.2337 21.6329 13.7637 21.0929 13.7637 20.4529C13.7637 19.8129 13.2337 19.2729 12.5937 19.2729C11.9537 19.2729 11.4137 19.8129 11.4137 20.4529C11.4137 21.0929 11.9537 21.6329 12.5937 21.6329Z"
        fillRule="evenodd"
        clipRule="evenodd"
    />
</svg>
        