
<svg
    viewBox={0 0 29.517578125 29.435546875}
    xmlns="http://www.w3.org/2000/svg"
>
    <path
        fill="inherit"
        d="M1.4337 6.4357L6.4637 1.4257C7.0237 0.8657 6.8537 -0.0043 5.9737 -0.0043H1.1237C0.3237 -0.0043 0.0037 0.3657 0.0037 1.1357V5.9757C0.0037 6.8257 0.8437 7.0157 1.4337 6.4357ZM28.0837 6.4357C28.6737 7.0157 29.5137 6.8257 29.5137 5.9757V1.1257C29.5137 0.3657 29.1937 -0.0043 28.3937 -0.0043H23.5337C22.6637 -0.0043 22.4937 0.8657 23.0537 1.4257ZM9.6537 24.1157H19.8637C22.7237 24.1157 24.1437 22.6957 24.1437 19.8757V9.5657C24.1437 6.7357 22.7237 5.3357 19.8637 5.3357H9.6537C6.7937 5.3357 5.3637 6.7557 5.3637 9.5657V19.8757C5.3637 22.6957 6.7937 24.1157 9.6537 24.1157ZM9.6937 21.9157C8.3237 21.9157 7.5637 21.1757 7.5637 19.7557V9.6757C7.5637 8.2557 8.3237 7.5357 9.6937 7.5357H19.8237C21.1737 7.5357 21.9437 8.2557 21.9437 9.6757V19.7557C21.9437 21.1757 21.1737 21.9157 19.8237 21.9157ZM28.0837 23.0057L23.0537 28.0257C22.4937 28.5857 22.6637 29.4357 23.5337 29.4357H28.3937C29.1937 29.4357 29.5137 29.0657 29.5137 28.3257V23.4757C29.5137 22.6257 28.6737 22.4257 28.0837 23.0057ZM1.4337 23.0057C0.8437 22.4257 0.0037 22.6257 0.0037 23.4757V28.3257C0.0037 29.0657 0.3237 29.4357 1.1037 29.4357H5.9737C6.8537 29.4357 7.0237 28.5857 6.4637 28.0257Z"
        fillRule="evenodd"
        clipRule="evenodd"
    />
</svg>
        