<svg viewBox="0 0 28.55029296875 31.008165590141097" xmlns="http://www.w3.org/2000/svg"><path d="M20.3803 18.1495L22.6103 20.3895V12.7595C22.6103 11.3495 22.1403 10.5395 20.9303 9.8195L14.5703 6.1595V2.7595C14.5703 2.6295 14.6803 2.5595 14.8003 2.6395L25.2203 8.6595C25.6603 8.9195 25.8203 9.1095 25.8203 9.6995V22.4095C25.8203 22.4895 25.8103 22.5795 25.7803 22.6195L27.3003 24.1295C27.7803 23.7495 28.0503 23.0395 28.0503 21.9995V9.6095C28.0503 8.1895 27.6003 7.3895 26.3703 6.6695L15.4203 0.3395C14.0603 -0.4205 12.3403 0.0695 12.3403 2.0095V4.8695L9.9603 3.4995C8.8603 2.8595 7.5603 3.1095 7.1103 4.1995V4.3795L8.3803 5.6795V5.3795C8.4603 5.3295 8.6103 5.3495 8.7603 5.4295L19.7703 11.7995C20.2003 12.0495 20.3803 12.2495 20.3803 12.8395ZM26.7503 29.8195C27.1803 30.2295 27.8503 30.2295 28.2403 29.8195C28.6503 29.4095 28.6503 28.7395 28.2403 28.3295L1.8003 1.8995C1.3903 1.4895 0.7203 1.4895 0.3003 1.8995C-0.0997 2.2995 -0.0997 2.9995 0.3003 3.3895ZM2.8003 24.3095L13.4903 30.4995C15.4203 31.6095 16.7903 30.8595 16.7903 28.5795V25.6195L19.3103 27.0895C20.3803 27.6995 21.3003 27.7395 21.8803 27.2495L18.5403 23.9195C18.3603 23.8595 18.1403 23.7595 17.9303 23.6295L16.7903 22.9895V22.1695L14.5603 19.9395V28.2395C14.5603 28.3695 14.4703 28.4295 14.3503 28.3595L3.8903 22.3195C3.4303 22.0395 3.3003 21.8195 3.3003 21.2795V10.3395C3.3003 9.7895 3.4003 9.3095 3.4803 8.8595L1.7103 7.0695C1.3403 7.3695 1.0803 7.8895 1.0803 8.5795V21.3195C1.0803 22.7695 1.4503 23.5495 2.8003 24.3095Z" /></svg>