<svg viewBox="0 0 26.810546875 26.263671875" xmlns="http://www.w3.org/2000/svg"><path d="M2.3637 7.7534H5.3837C6.8737 7.7534 7.7537 6.8734 7.7537 5.3334V2.4234C7.7537 0.8734 6.8737 0.0034 5.3837 0.0034H2.3637C0.8737 0.0034 0.0037 0.8734 0.0037 2.4234V5.3334C0.0037 6.8734 0.8737 7.7534 2.3637 7.7534ZM11.8837 7.7534H14.9037C16.3937 7.7534 17.2637 6.8734 17.2637 5.3334V2.4234C17.2637 0.8734 16.3937 0.0034 14.9037 0.0034H11.8837C10.3937 0.0034 9.5137 0.8734 9.5137 2.4234V5.3334C9.5137 6.8734 10.3937 7.7534 11.8837 7.7534ZM21.4237 7.7534H24.4437C25.9337 7.7534 26.8137 6.8734 26.8137 5.3334V2.4234C26.8137 0.8734 25.9337 0.0034 24.4437 0.0034H21.4237C19.9337 0.0034 19.0537 0.8734 19.0537 2.4234V5.3334C19.0537 6.8734 19.9337 7.7534 21.4237 7.7534ZM2.6237 5.8834C2.1337 5.8834 1.8837 5.6234 1.8837 5.1034V2.6534C1.8837 2.1434 2.1337 1.8834 2.6237 1.8834H5.1237C5.6037 1.8834 5.8837 2.1434 5.8837 2.6534V5.1034C5.8837 5.6234 5.6037 5.8834 5.1237 5.8834ZM21.6837 5.8834C21.1937 5.8834 20.9337 5.6234 20.9337 5.1034V2.6534C20.9337 2.1434 21.1937 1.8834 21.6837 1.8834H24.1837C24.6637 1.8834 24.9237 2.1434 24.9237 2.6534V5.1034C24.9237 5.6234 24.6637 5.8834 24.1837 5.8834ZM2.3637 17.0034H5.3837C6.8737 17.0034 7.7537 16.1434 7.7537 14.6034V11.6734C7.7537 10.1334 6.8737 9.2534 5.3837 9.2534H2.3637C0.8737 9.2534 0.0037 10.1334 0.0037 11.6734V14.6034C0.0037 16.1434 0.8737 17.0034 2.3637 17.0034ZM11.8837 17.0034H14.9137C16.4037 17.0034 17.2637 16.1434 17.2637 14.6034V11.6734C17.2637 10.1334 16.4037 9.2534 14.9137 9.2534H11.8837C10.3937 9.2534 9.5337 10.1334 9.5337 11.6734V14.6034C9.5337 16.1434 10.3937 17.0034 11.8837 17.0034ZM21.4237 17.0034H24.4437C25.9337 17.0034 26.8137 16.1434 26.8137 14.6034V11.6734C26.8137 10.1334 25.9337 9.2534 24.4437 9.2534H21.4237C19.9337 9.2534 19.0537 10.1334 19.0537 11.6734V14.6034C19.0537 16.1434 19.9337 17.0034 21.4237 17.0034ZM2.6237 15.1334C2.1337 15.1334 1.8837 14.8734 1.8837 14.3534V11.8934C1.8837 11.3934 2.1337 11.1334 2.6237 11.1334H5.1237C5.6037 11.1334 5.8837 11.3934 5.8837 11.8934V14.3534C5.8837 14.8734 5.6037 15.1334 5.1237 15.1334ZM12.1437 15.1334C11.6437 15.1334 11.4037 14.8734 11.4037 14.3534V11.8934C11.4037 11.3934 11.6437 11.1334 12.1437 11.1334H14.6537C15.1337 11.1334 15.3937 11.3934 15.3937 11.8934V14.3534C15.3937 14.8734 15.1337 15.1334 14.6537 15.1334ZM21.6837 15.1334C21.1937 15.1334 20.9337 14.8734 20.9337 14.3534V11.8934C20.9337 11.3934 21.1937 11.1334 21.6837 11.1334H24.1837C24.6637 11.1334 24.9237 11.3934 24.9237 11.8934V14.3534C24.9237 14.8734 24.6637 15.1334 24.1837 15.1334ZM2.3637 26.2634H5.3837C6.8737 26.2634 7.7537 25.3934 7.7537 23.8434V20.9334C7.7537 19.3834 6.8737 18.5134 5.3837 18.5134H2.3637C0.8737 18.5134 0.0037 19.3834 0.0037 20.9334V23.8434C0.0037 25.3934 0.8737 26.2634 2.3637 26.2634ZM11.8837 26.2634H14.9137C16.4037 26.2634 17.2637 25.3934 17.2637 23.8434V20.9334C17.2637 19.3834 16.4037 18.5134 14.9137 18.5134H11.8837C10.3937 18.5134 9.5337 19.3834 9.5337 20.9334V23.8434C9.5337 25.3934 10.3937 26.2634 11.8837 26.2634ZM21.4237 26.2634H24.4437C25.9337 26.2634 26.8137 25.3934 26.8137 23.8434V20.9334C26.8137 19.3834 25.9337 18.5134 24.4437 18.5134H21.4237C19.9337 18.5134 19.0537 19.3834 19.0537 20.9334V23.8434C19.0537 25.3934 19.9337 26.2634 21.4237 26.2634ZM2.6237 24.3734C2.1337 24.3734 1.8837 24.1134 1.8837 23.6134V21.1634C1.8837 20.6434 2.1337 20.3834 2.6237 20.3834H5.1237C5.6037 20.3834 5.8837 20.6434 5.8837 21.1634V23.6134C5.8837 24.1134 5.6037 24.3734 5.1237 24.3734ZM12.1437 24.3734C11.6437 24.3734 11.4037 24.1134 11.4037 23.6134V21.1634C11.4037 20.6434 11.6437 20.3834 12.1437 20.3834H14.6537C15.1337 20.3834 15.3937 20.6434 15.3937 21.1634V23.6134C15.3937 24.1134 15.1337 24.3734 14.6537 24.3734ZM21.6837 24.3734C21.1937 24.3734 20.9337 24.1134 20.9337 23.6134V21.1634C20.9337 20.6434 21.1937 20.3834 21.6837 20.3834H24.1837C24.6637 20.3834 24.9237 20.6434 24.9237 21.1634V23.6134C24.9237 24.1134 24.6637 24.3734 24.1837 24.3734Z" /></svg>