
<svg
    viewBox={0 0 28.998046875 29.01171875}
    xmlns="http://www.w3.org/2000/svg"
>
    <path
        fill="inherit"
        d="M3.1737 29.0133C4.5437 29.0133 5.6837 28.1533 6.1437 26.9433H22.8637C23.3137 28.1533 24.4737 29.0133 25.8437 29.0133C27.5937 29.0133 28.9937 27.5933 28.9937 25.8433C28.9937 24.4733 28.1537 23.3133 26.9337 22.8733V6.1533C28.1537 5.7033 28.9937 4.5433 28.9937 3.1733C28.9937 1.4233 27.5937 0.0033 25.8437 0.0033C24.4737 0.0033 23.3137 0.8633 22.8637 2.0733H6.1437C5.6837 0.8633 4.5437 0.0033 3.1737 0.0033C1.4037 0.0033 0.0037 1.4233 0.0037 3.1733C0.0037 4.5433 0.8637 5.7033 2.0637 6.1433V22.8733C0.8637 23.3133 0.0037 24.4733 0.0037 25.8433C0.0037 27.5933 1.4037 29.0133 3.1737 29.0133ZM6.1437 24.7433C5.8237 23.8733 5.1237 23.1833 4.2637 22.8733V6.1533C5.1237 5.8233 5.8237 5.1433 6.1437 4.2833H22.8637C23.1837 5.1433 23.8737 5.8233 24.7337 6.1433V22.8733C23.8737 23.1833 23.1837 23.8733 22.8637 24.7433ZM8.7137 18.6733H10.2837V20.2633C10.2837 21.3533 10.9137 21.9733 11.9937 21.9733H20.3737C21.4537 21.9733 22.0837 21.3533 22.0837 20.2633V12.0433C22.0837 10.9633 21.4337 10.3533 20.3337 10.3533H18.8037V8.7533C18.8037 7.6733 18.1737 7.0433 17.0737 7.0433H8.7137C7.6337 7.0433 7.0037 7.6733 7.0037 8.7533V16.9633C7.0037 18.0433 7.6337 18.6733 8.7137 18.6733ZM9.2537 16.8833C8.9537 16.8833 8.7937 16.7233 8.7937 16.4233V9.2933C8.7937 9.0133 8.9537 8.8333 9.2537 8.8333H16.5437C16.8437 8.8333 17.0037 9.0133 17.0037 9.2933V10.3533H11.9937C10.9137 10.3533 10.2837 10.9633 10.2837 12.0433V16.8833ZM12.5337 20.1833C12.2337 20.1833 12.0737 20.0133 12.0737 19.7333V12.5933C12.0737 12.3033 12.2337 12.1433 12.5337 12.1433H19.7837C20.1137 12.1433 20.2937 12.3033 20.2937 12.5933V19.7333C20.2937 20.0133 20.1237 20.1833 19.8237 20.1833Z"
        fillRule="evenodd"
        clipRule="evenodd"
    />
</svg>
        