
<svg
    viewBox="0 0 27.0498046875 27.005305724685982"
    xmlns="http://www.w3.org/2000/svg"
>
    <path
        fill="inherit"
        d="M25.7155 3.2319L26.7055 2.2219C27.1655 1.7219 27.1655 1.0719 26.7055 0.6219L26.3855 0.2919C25.9655 -0.1381 25.2955 -0.0781 24.8455 0.3619L23.8455 1.3419ZM9.2655 18.1419L11.9355 16.9819L24.7055 4.2319L22.8355 2.3819L10.0755 15.1419L8.8455 17.7119C8.7355 17.9419 9.0055 18.2519 9.2655 18.1419ZM4.2955 27.0019H20.3455C22.8055 27.0019 24.2255 25.6019 24.2255 22.7719V7.3319L22.0255 9.5319V22.6619C22.0255 24.0819 21.2755 24.8019 20.3155 24.8019H4.3355C2.9655 24.8019 2.2055 24.0819 2.2055 22.6619V7.1419C2.2055 5.7219 2.9655 4.9819 4.3355 4.9819H17.5855L19.7855 2.7819H4.2955C1.4455 2.7819 -0.0045 4.2019 -0.0045 7.0219V22.7719C-0.0045 25.6019 1.4455 27.0019 4.2955 27.0019Z"
        fillRule="evenodd"
        clipRule="evenodd"
    />
</svg>
        