<svg viewBox="0 0 31.08984375 35.587890625" xmlns="http://www.w3.org/2000/svg"><path d="M12.1237 -0.0046C11.5437 -0.0046 11.0437 0.4754 11.0437 1.0554V14.9554L11.1337 17.0054L10.3637 16.2054L8.2437 13.9454C8.0537 13.7254 7.7537 13.6154 7.4937 13.6154C6.9137 13.6154 6.5037 14.0254 6.5037 14.5754C6.5037 14.8754 6.6337 15.0954 6.8337 15.2954L11.3337 19.6454C11.6237 19.9154 11.8537 20.0054 12.1237 20.0054C12.4137 20.0054 12.6437 19.9154 12.9237 19.6454L17.4337 15.2954C17.6337 15.0954 17.7437 14.8754 17.7437 14.5754C17.7437 14.0254 17.3237 13.6154 16.7437 13.6154C16.4837 13.6154 16.2037 13.7254 16.0137 13.9454L13.9037 16.2054L13.1437 17.0054L13.2237 14.9554V1.0554C13.2237 0.4754 12.7137 -0.0046 12.1237 -0.0046ZM4.2937 29.2454H6.8237V31.3454C6.8237 34.1754 8.2737 35.5854 11.1137 35.5854H26.7937C29.6637 35.5854 31.0937 34.1654 31.0937 31.3454V17.8554C31.0937 15.0354 29.6637 13.6154 26.7937 13.6154H24.2637V11.5154C24.2637 8.6954 22.8337 7.2754 19.9737 7.2754H15.7737V9.4754H19.9337C21.2837 9.4754 22.0637 10.1954 22.0637 11.6254V24.8954C22.0637 26.3154 21.2837 27.0454 19.9337 27.0454H4.3237C2.9537 27.0454 2.2037 26.3154 2.2037 24.8954V11.6254C2.2037 10.1954 2.9537 9.4754 4.3237 9.4754H8.4737V7.2754H4.2937C1.4337 7.2754 0.0037 8.6854 0.0037 11.5154V25.0054C0.0037 27.8354 1.4337 29.2454 4.2937 29.2454ZM11.1537 33.3854C9.7937 33.3854 9.0237 32.6654 9.0237 31.2354V29.2454H19.9737C22.8337 29.2454 24.2637 27.8254 24.2637 25.0054V15.8154H26.7737C28.1137 15.8154 28.8937 16.5454 28.8937 17.9654V31.2354C28.8937 32.6654 28.1137 33.3854 26.7737 33.3854Z" /></svg>