
<svg
    viewBox="0 0 27.9453125 28.546875"
    xmlns="http://www.w3.org/2000/svg"
>
    <path
        fill="inherit"
        d="M13.9737 17.3401C14.5237 17.3401 15.0537 17.1601 15.7137 16.7801L26.4037 10.5701C27.5037 9.9101 27.9437 9.4201 27.9437 8.6701C27.9437 7.9201 27.5037 7.4201 26.4037 6.7801L15.7137 0.5601C15.0537 0.1801 14.5237 0.0001 13.9737 0.0001C13.4137 0.0001 12.8937 0.1801 12.2337 0.5601L1.5337 6.7801C0.4237 7.4201 0.0037 7.9201 0.0037 8.6701C0.0037 9.4201 0.4237 9.9101 1.5337 10.5701L12.2337 16.7801C12.8937 17.1601 13.4137 17.3401 13.9737 17.3401ZM13.9737 28.5501C14.5237 28.5501 15.0537 28.3701 15.7137 27.9901L26.4037 21.7701C27.5037 21.1201 27.9437 20.6301 27.9437 19.8801C27.9437 19.1301 27.5037 18.6301 26.4037 17.9801L21.8737 15.3701L16.6437 18.3901C15.6137 18.9901 14.7637 19.2001 13.9737 19.2001C13.1637 19.2001 12.3137 18.9901 11.2937 18.3901L6.0737 15.3701L1.5337 17.9801C0.4237 18.6301 0.0037 19.1301 0.0037 19.8801C0.0037 20.6301 0.4237 21.1201 1.5337 21.7701L12.2337 27.9901C12.8937 28.3701 13.4137 28.5501 13.9737 28.5501Z"
        fillRule="evenodd"
        clipRule="evenodd"
    />
</svg>
        