
<svg
    viewBox="0 0 27.890625 27.890625"
    xmlns="http://www.w3.org/2000/svg"
>
    <path
        fill="inherit"
        d="M13.9427 27.8864C21.6427 27.8864 27.8927 21.6464 27.8927 13.9464C27.8927 6.2464 21.6427 -0.0036 13.9427 -0.0036C6.2527 -0.0036 0.0027 6.2464 0.0027 13.9464C0.0027 21.6464 6.2527 27.8864 13.9427 27.8864ZM13.9427 25.5664C7.5227 25.5664 2.3227 20.3664 2.3227 13.9464C2.3227 7.5164 7.5227 2.3264 13.9427 2.3264C20.3727 2.3264 25.5627 7.5164 25.5627 13.9464C25.5627 20.3664 20.3727 25.5664 13.9427 25.5664ZM8.8727 20.8264H19.0127C20.2627 20.8264 20.8227 20.1564 20.8227 18.7764V8.8464C20.8227 7.6264 20.2627 7.0664 19.0127 7.0664H8.8727C7.7927 7.0664 7.0727 7.7964 7.0727 8.8464V18.7764C7.0727 19.9864 7.7927 20.8264 8.8727 20.8264ZM9.7227 18.8264C9.3427 18.8264 9.0627 18.5564 9.0627 18.1564V9.7364C9.0627 9.3364 9.3427 9.0664 9.7227 9.0664H18.1727C18.5527 9.0664 18.8227 9.3364 18.8227 9.7364V18.1564C18.8227 18.5564 18.5527 18.8264 18.1727 18.8264Z"
        fillRule="evenodd"
        clipRule="evenodd"
    />
</svg>
        