
<svg
    viewBox="0 0 25.169921875 25.169921875"
    xmlns="http://www.w3.org/2000/svg"
>
    <path
        fill="inherit"
        d="M0.0037 24.0929C0.0037 24.7429 0.4337 25.1729 1.0937 25.1729H24.0937C24.7437 25.1729 25.1737 24.7429 25.1737 24.0929V1.0929C25.1737 0.4329 24.7437 0.0029 24.0937 0.0029H1.0937C0.4337 0.0029 0.0037 0.4329 0.0037 1.0929ZM2.2037 2.5929C2.2037 2.3129 2.3137 2.2029 2.5937 2.2029H7.6537V7.6829H2.2037ZM9.8537 7.6829V2.2029H15.3137V7.6829ZM22.5737 2.2029C22.8737 2.2029 22.9737 2.3129 22.9737 2.5929V7.6829H17.5137V2.2029ZM2.2037 15.3429V9.8829H7.6537V15.3429ZM9.8537 15.3429V9.8829H15.3137V15.3429ZM17.5137 15.3429V9.8829H22.9737V15.3429ZM2.2037 22.5729V17.5429H7.6537V22.9729H2.5937C2.3137 22.9729 2.2037 22.8729 2.2037 22.5729ZM9.8537 22.9729V17.5429H15.3137V22.9729ZM22.9737 22.5729C22.9737 22.8729 22.8737 22.9729 22.5737 22.9729H17.5137V17.5429H22.9737Z"
        fillRule="evenodd"
        clipRule="evenodd"
    />
</svg>
        