
<svg
    viewBox="0 0 29.203125 20.97265625"
    xmlns="http://www.w3.org/2000/svg"
>
    <path
        fill="inherit"
        d="M1.1737 4.6337H3.4437C4.3237 4.6337 4.6337 4.3238 4.6337 3.4638V1.1938C4.6337 0.3137 4.3237 0.0038 3.4437 0.0038H1.1737C0.3137 0.0038 0.0037 0.3137 0.0037 1.1938V3.4638C0.0037 4.3238 0.3137 4.6337 1.1737 4.6337ZM9.3537 4.6337H11.6237C12.4837 4.6337 12.7937 4.3238 12.7937 3.4638V1.1938C12.7937 0.3137 12.4837 0.0038 11.6237 0.0038H9.3537C8.4737 0.0038 8.1637 0.3137 8.1637 1.1938V3.4638C8.1637 4.3238 8.4737 4.6337 9.3537 4.6337ZM17.5137 4.6337H19.7837C20.6437 4.6337 20.9637 4.3238 20.9637 3.4638V1.1938C20.9637 0.3137 20.6437 0.0038 19.7837 0.0038H17.5137C16.6537 0.0038 16.3337 0.3137 16.3337 1.1938V3.4638C16.3337 4.3238 16.6537 4.6337 17.5137 4.6337ZM25.6737 4.6337H27.9437C28.8237 4.6337 29.1337 4.3238 29.1337 3.4638V1.1938C29.1337 0.3137 28.8237 0.0038 27.9437 0.0038H25.6737C24.8137 0.0038 24.5037 0.3137 24.5037 1.1938V3.4638C24.5037 4.3238 24.8137 4.6337 25.6737 4.6337ZM1.2437 12.7938H3.5137C4.3937 12.7938 4.7037 12.4838 4.7037 11.6238V9.3538C4.7037 8.4938 4.3937 8.1738 3.5137 8.1738H1.2437C0.3837 8.1738 0.0637 8.4938 0.0637 9.3538V11.6238C0.0637 12.4838 0.3837 12.7938 1.2437 12.7938ZM9.4237 12.7938H11.6937C12.5537 12.7938 12.8637 12.4838 12.8637 11.6238V9.3538C12.8637 8.4938 12.5537 8.1738 11.6937 8.1738H9.4237C8.5437 8.1738 8.2337 8.4938 8.2337 9.3538V11.6238C8.2337 12.4838 8.5437 12.7938 9.4237 12.7938ZM17.5837 12.7938H19.8537C20.7137 12.7938 21.0237 12.4838 21.0237 11.6238V9.3538C21.0237 8.4938 20.7137 8.1738 19.8537 8.1738H17.5837C16.7237 8.1738 16.4037 8.4938 16.4037 9.3538V11.6238C16.4037 12.4838 16.7237 12.7938 17.5837 12.7938ZM25.7537 12.7938H28.0137C28.8937 12.7938 29.2037 12.4838 29.2037 11.6238V9.3538C29.2037 8.4938 28.8937 8.1738 28.0137 8.1738H25.7537C24.8837 8.1738 24.5637 8.4938 24.5637 9.3538V11.6238C24.5637 12.4838 24.8837 12.7938 25.7537 12.7938ZM1.2437 20.9738H3.5137C4.3937 20.9738 4.7037 20.6538 4.7037 19.7838V17.5238C4.7037 16.6538 4.3937 16.3338 3.5137 16.3338H1.2437C0.3837 16.3338 0.0637 16.6538 0.0637 17.5238V19.7838C0.0637 20.6538 0.3837 20.9738 1.2437 20.9738ZM9.4237 20.9738H11.6937C12.5537 20.9738 12.8637 20.6538 12.8637 19.7838V17.5238C12.8637 16.6538 12.5537 16.3338 11.6937 16.3338H9.4237C8.5437 16.3338 8.2337 16.6538 8.2337 17.5238V19.7838C8.2337 20.6538 8.5437 20.9738 9.4237 20.9738ZM17.5837 20.9738H19.8537C20.7137 20.9738 21.0237 20.6538 21.0237 19.7838V17.5238C21.0237 16.6538 20.7137 16.3338 19.8537 16.3338H17.5837C16.7237 16.3338 16.4037 16.6538 16.4037 17.5238V19.7838C16.4037 20.6538 16.7237 20.9738 17.5837 20.9738ZM25.7537 20.9738H28.0137C28.8937 20.9738 29.2037 20.6538 29.2037 19.7838V17.5238C29.2037 16.6538 28.8937 16.3338 28.0137 16.3338H25.7537C24.8837 16.3338 24.5637 16.6538 24.5637 17.5238V19.7838C24.5637 20.6538 24.8837 20.9738 25.7537 20.9738Z"
        fillRule="evenodd"
        clipRule="evenodd"
    />
</svg>
        