
<svg
    viewBox="0 0 30.32421875 27.97265625"
    xmlns="http://www.w3.org/2000/svg"
>
    <path
        fill="inherit"
        d="M14.8109 27.9774C15.3709 27.9774 15.8209 27.5674 16.0109 27.1774L8.6809 14.5074C8.5609 14.3174 8.4809 14.1374 8.4809 13.9874C8.4809 13.8374 8.5609 13.6574 8.6809 13.4674L16.0109 0.7974C15.8209 0.4074 15.3709 -0.0026 14.8109 -0.0026C14.3809 -0.0026 13.9009 0.2474 13.6209 0.7474L6.6709 12.4974C6.3309 13.0674 6.0809 13.4774 6.0809 13.9874C6.0809 14.4774 6.3309 14.8974 6.6709 15.4774L13.6209 27.2174C13.9309 27.7374 14.3809 27.9774 14.8109 27.9774ZM21.6409 27.9574C22.3909 27.9574 22.8909 27.5174 23.5409 26.4274L29.7609 15.7274C30.1509 15.0674 30.3209 14.5374 30.3209 13.9874C30.3209 13.4274 30.1509 12.9074 29.7609 12.2474L23.5409 1.5474C22.8909 0.4474 22.3909 0.0174 21.6409 0.0174C20.8909 0.0174 20.4009 0.4474 19.7509 1.5474L13.5209 12.2474C13.1409 12.9074 12.9609 13.4274 12.9609 13.9874C12.9609 14.5374 13.1409 15.0674 13.5209 15.7274L19.7509 26.4274C20.4009 27.5174 20.8909 27.9574 21.6409 27.9574ZM8.0809 2.2674C8.6109 2.2674 9.0509 1.8274 9.0509 1.2974C9.0509 0.7674 8.6109 0.3274 8.0809 0.3274C7.5509 0.3274 7.1109 0.7674 7.1109 1.2974C7.1109 1.8274 7.5509 2.2674 8.0809 2.2674ZM6.6709 4.7974C7.2009 4.7974 7.6409 4.3774 7.6409 3.8274C7.6409 3.2974 7.2009 2.8574 6.6709 2.8574C6.1409 2.8574 5.7009 3.2974 5.7009 3.8274C5.7009 4.3774 6.1409 4.7974 6.6709 4.7974ZM5.2509 7.3574C5.7809 7.3574 6.2209 6.9174 6.2209 6.3874C6.2209 5.8474 5.7809 5.4174 5.2509 5.4174C4.7209 5.4174 4.2809 5.8474 4.2809 6.3874C4.2809 6.9174 4.7209 7.3574 5.2509 7.3574ZM3.8109 9.8674C4.3509 9.8674 4.7809 9.4374 4.7809 8.8974C4.7809 8.3674 4.3509 7.9274 3.8109 7.9274C3.2809 7.9274 2.8409 8.3674 2.8409 8.8974C2.8409 9.4374 3.2809 9.8674 3.8109 9.8674ZM2.3909 12.4274C2.9209 12.4274 3.3609 11.9874 3.3609 11.4574C3.3609 10.9074 2.9209 10.4774 2.3909 10.4774C1.8609 10.4774 1.4209 10.9074 1.4209 11.4574C1.4209 11.9874 1.8609 12.4274 2.3909 12.4274ZM0.9709 14.9574C1.5009 14.9574 1.9409 14.5174 1.9409 13.9874C1.9409 13.4574 1.5009 13.0174 0.9709 13.0174C0.4409 13.0174 0.0009 13.4574 0.0009 13.9874C0.0009 14.5174 0.4409 14.9574 0.9709 14.9574ZM2.3909 17.4874C2.9209 17.4874 3.3609 17.0474 3.3609 16.5174C3.3609 15.9774 2.9209 15.5474 2.3909 15.5474C1.8609 15.5474 1.4209 15.9774 1.4209 16.5174C1.4209 17.0474 1.8609 17.4874 2.3909 17.4874ZM3.8109 20.0474C4.3509 20.0474 4.7809 19.6074 4.7809 19.0674C4.7809 18.5274 4.3509 18.0974 3.8109 18.0974C3.2809 18.0974 2.8409 18.5274 2.8409 19.0674C2.8409 19.6074 3.2809 20.0474 3.8109 20.0474ZM5.2509 22.5574C5.7809 22.5574 6.2209 22.1174 6.2209 21.5874C6.2209 21.0574 5.7809 20.6174 5.2509 20.6174C4.7209 20.6174 4.2809 21.0574 4.2809 21.5874C4.2809 22.1174 4.7209 22.5574 5.2509 22.5574ZM6.6709 25.0974C7.2009 25.0974 7.6409 24.6674 7.6409 24.1274C7.6409 23.5974 7.2009 23.1574 6.6709 23.1574C6.1409 23.1574 5.7009 23.5974 5.7009 24.1274C5.7009 24.6674 6.1409 25.0974 6.6709 25.0974ZM8.0809 27.6474C8.6109 27.6474 9.0509 27.2074 9.0509 26.6774C9.0509 26.1374 8.6109 25.7074 8.0809 25.7074C7.5509 25.7074 7.1109 26.1374 7.1109 26.6774C7.1109 27.2074 7.5509 27.6474 8.0809 27.6474Z"
        fillRule="evenodd"
        clipRule="evenodd"
    />
</svg>
        