
<svg
    viewBox={0 0 25.18359375 25.2109375}
    xmlns="http://www.w3.org/2000/svg"
>
    <path
        fill="inherit"
        d="M0.0137 9.8055H2.2137V2.5955C2.2137 2.2955 2.3237 2.2055 2.6137 2.2055H19.4237L21.6537 -0.0045H1.1037C0.4537 -0.0045 0.0137 0.4255 0.0137 1.0755ZM24.5237 0.5555C24.2037 0.2055 23.6837 0.2355 23.3637 0.5555L18.4137 5.4255L17.2137 4.1855C16.7737 3.7455 16.1237 3.9955 15.9937 4.6055L15.0537 9.0255C14.9137 9.5955 15.4037 10.0655 15.9837 9.9255L20.3837 9.0055C21.0237 8.8755 21.2437 8.2555 20.8237 7.8155L19.5737 6.5755L24.5237 1.7255C24.8537 1.3955 24.8437 0.8855 24.5237 0.5555ZM15.4037 25.1655H24.1037C24.7637 25.1655 25.1837 24.7355 25.1837 24.0755V3.3055L22.9837 5.4655V22.5755C22.9837 22.8555 22.8837 22.9655 22.5837 22.9655H15.4037ZM1.1737 13.7355C1.8137 13.7355 2.3537 13.2055 2.3537 12.5655C2.3537 11.9255 1.8137 11.3855 1.1737 11.3855C0.5337 11.3855 0.0037 11.9255 0.0037 12.5655C0.0037 13.2055 0.5337 13.7355 1.1737 13.7355ZM5.0037 13.7355C5.6437 13.7355 6.1837 13.2055 6.1837 12.5655C6.1837 11.9255 5.6437 11.3855 5.0037 11.3855C4.3637 11.3855 3.8237 11.9255 3.8237 12.5655C3.8237 13.2055 4.3637 13.7355 5.0037 13.7355ZM8.8137 13.7355C9.4637 13.7355 9.9937 13.2055 9.9937 12.5655C9.9937 11.9255 9.4637 11.3855 8.8137 11.3855C8.1737 11.3855 7.6437 11.9255 7.6437 12.5655C7.6437 13.2055 8.1737 13.7355 8.8137 13.7355ZM12.6437 13.7355C13.2937 13.7355 13.8237 13.2055 13.8237 12.5655C13.8237 11.9255 13.2937 11.3855 12.6437 11.3855C12.0037 11.3855 11.4737 11.9255 11.4737 12.5655C11.4737 13.2055 12.0037 13.7355 12.6437 13.7355ZM1.1737 17.5655C1.8137 17.5655 2.3537 17.0355 2.3537 16.3955C2.3537 15.7455 1.8137 15.2155 1.1737 15.2155C0.5337 15.2155 0.0037 15.7455 0.0037 16.3955C0.0037 17.0355 0.5337 17.5655 1.1737 17.5655ZM12.6437 17.5655C13.2937 17.5655 13.8237 17.0355 13.8237 16.3955C13.8237 15.7455 13.2937 15.2155 12.6437 15.2155C12.0037 15.2155 11.4737 15.7455 11.4737 16.3955C11.4737 17.0355 12.0037 17.5655 12.6437 17.5655ZM1.1737 21.3955C1.8137 21.3955 2.3537 20.8655 2.3537 20.2255C2.3537 19.5655 1.8137 19.0455 1.1737 19.0455C0.5337 19.0455 0.0037 19.5655 0.0037 20.2255C0.0037 20.8655 0.5337 21.3955 1.1737 21.3955ZM12.6437 21.3955C13.2937 21.3955 13.8237 20.8655 13.8237 20.2255C13.8237 19.5655 13.2937 19.0455 12.6437 19.0455C12.0037 19.0455 11.4737 19.5655 11.4737 20.2255C11.4737 20.8655 12.0037 21.3955 12.6437 21.3955ZM1.1737 25.2155C1.8137 25.2155 2.3537 24.6755 2.3537 24.0355C2.3537 23.3955 1.8137 22.8555 1.1737 22.8555C0.5337 22.8555 0.0037 23.3955 0.0037 24.0355C0.0037 24.6755 0.5337 25.2155 1.1737 25.2155ZM12.6437 25.2155C13.2937 25.2155 13.8237 24.6755 13.8237 24.0355C13.8237 23.3955 13.2937 22.8555 12.6437 22.8555C12.0037 22.8555 11.4737 23.3955 11.4737 24.0355C11.4737 24.6755 12.0037 25.2155 12.6437 25.2155ZM8.8137 25.2155C9.4637 25.2155 9.9937 24.6755 9.9937 24.0355C9.9937 23.3955 9.4637 22.8555 8.8137 22.8555C8.1737 22.8555 7.6437 23.3955 7.6437 24.0355C7.6437 24.6755 8.1737 25.2155 8.8137 25.2155ZM5.0037 25.2155C5.6437 25.2155 6.1837 24.6755 6.1837 24.0355C6.1837 23.3955 5.6437 22.8555 5.0037 22.8555C4.3637 22.8555 3.8237 23.3955 3.8237 24.0355C3.8237 24.6755 4.3637 25.2155 5.0037 25.2155Z"
        fillRule="evenodd"
        clipRule="evenodd"
    />
</svg>
        