
<svg
    viewBox="0 0 29.269797111883236 30.3515625"
    xmlns="http://www.w3.org/2000/svg"
>
    <path
        fill="inherit"
        d="M18.8648 15.6924L27.7248 10.5524C28.8348 9.9124 29.2548 9.4024 29.2548 8.6524C29.2548 7.9124 28.8348 7.4124 27.7248 6.7724L17.0348 0.5624C16.3748 0.1824 15.8448 0.0024 15.2948 0.0024C14.7348 0.0024 14.2148 0.1824 13.5448 0.5624L7.3348 4.1524L8.9948 5.8224L14.6848 2.5724C14.9148 2.4424 15.0948 2.3824 15.2948 2.3824C15.4848 2.3824 15.6648 2.4424 15.8948 2.5724L26.3048 8.5324C26.3648 8.5624 26.3948 8.6024 26.3948 8.6524C26.3948 8.7224 26.3648 8.7624 26.3048 8.7924L17.1848 14.0124ZM27.4748 29.5824C27.8748 29.9824 28.5548 29.9924 28.9648 29.5824C29.3648 29.1624 29.3748 28.5024 28.9648 28.0924L1.8048 0.9424C1.3948 0.5324 0.7048 0.5324 0.2948 0.9424C-0.0952 1.3424 -0.0952 2.0324 0.2948 2.4324ZM9.7548 14.5424L2.3448 7.1324C1.5948 7.6524 1.3048 8.0824 1.3048 8.6924C1.3048 9.4024 1.7048 9.8824 2.7548 10.5024ZM15.2948 24.0624C15.7848 24.0624 16.2148 23.8324 16.7848 23.4924L18.2048 22.6424L16.5948 21.0224L15.8148 21.4824C15.6148 21.5924 15.4448 21.6724 15.2948 21.6724C15.1348 21.6724 14.9648 21.5924 14.7648 21.4824L2.1048 14.1624C1.7148 14.3424 1.3048 14.8024 1.3048 15.3624C1.3048 15.7924 1.5548 16.2524 2.0648 16.5524L13.7948 23.4924C14.3748 23.8324 14.7848 24.0624 15.2948 24.0624ZM22.9748 19.8224L28.5348 16.5524C29.0348 16.2424 29.2648 15.7924 29.2648 15.3624C29.2648 14.8024 28.8548 14.3424 28.4748 14.1624L21.4048 18.2424ZM15.2948 30.3524C15.7848 30.3524 16.2148 30.1224 16.7848 29.7724L22.1748 26.6024L20.5748 25.0224L15.8148 27.7824C15.6148 27.8924 15.4448 27.9724 15.2948 27.9724C15.1348 27.9724 14.9648 27.8924 14.7648 27.7824L2.1048 20.4524C1.7148 20.6424 1.3048 21.0924 1.3048 21.6524C1.3048 22.0824 1.5548 22.5624 2.0648 22.8424L13.7948 29.7724C14.3748 30.1224 14.7848 30.3524 15.2948 30.3524ZM26.9448 23.7924L28.5348 22.8424C29.0248 22.5624 29.2648 22.0824 29.2648 21.6524C29.2648 21.0924 28.8548 20.6424 28.4748 20.4524L25.3948 22.2424Z"
        fillRule="evenodd"
        clipRule="evenodd"
    />
</svg>
        