
<svg
    viewBox="0 0 24.267578125 30.70703125"
    xmlns="http://www.w3.org/2000/svg"
>
    <path
        fill="inherit"
        d="M0.0037 26.4719C0.0037 29.3019 1.4337 30.7119 4.2937 30.7119H19.9737C22.8337 30.7119 24.2637 29.2819 24.2637 26.4719V12.9919C24.2637 10.1719 22.8337 8.7519 19.9737 8.7519H13.2237V5.0319L13.1437 2.9919L13.9037 3.8019L16.0137 6.0519C16.2037 6.2719 16.4837 6.3819 16.7437 6.3819C17.3237 6.3819 17.7437 5.9719 17.7437 5.4319C17.7437 5.1319 17.6337 4.9119 17.4337 4.7019L12.9237 0.3519C12.6437 0.0819 12.4137 0.0019 12.1237 0.0019C11.8537 0.0019 11.6237 0.0819 11.3337 0.3519L6.8337 4.7019C6.6337 4.9119 6.5037 5.1319 6.5037 5.4319C6.5037 5.9719 6.9137 6.3819 7.4937 6.3819C7.7537 6.3819 8.0537 6.2719 8.2437 6.0519L10.3637 3.8019L11.1337 2.9919L11.0437 5.0319V8.7519H13.2237V18.9519C13.2237 19.5219 12.7137 20.0019 12.1237 20.0019C11.5437 20.0019 11.0437 19.5219 11.0437 18.9519V8.7519H4.2937C1.4337 8.7519 0.0037 10.1619 0.0037 12.9919Z"
        fillRule="evenodd"
        clipRule="evenodd"
    />
</svg>
        