
<svg
    viewBox="0 0 24.267578125 29.244140625"
    xmlns="http://www.w3.org/2000/svg"
>
    <path
        fill="inherit"
        d="M4.2937 29.2453H19.9737C22.8337 29.2453 24.2637 27.8253 24.2637 25.0053V11.5153C24.2637 8.6953 22.8337 7.2753 19.9737 7.2753H13.2237V1.0553C13.2237 0.4753 12.7237 -0.0047 12.1437 -0.0047C11.5537 -0.0047 11.0437 0.4753 11.0437 1.0553V7.2753H13.2237V14.9553L13.1437 17.0053L13.9037 16.2053L16.0237 13.9453C16.2137 13.7253 16.4837 13.6153 16.7637 13.6153C17.3237 13.6153 17.7637 14.0153 17.7637 14.5753C17.7637 14.8753 17.6337 15.0953 17.4337 15.2953L12.9237 19.6453C12.6437 19.9153 12.4137 20.0053 12.1437 20.0053C11.8537 20.0053 11.6237 19.9153 11.3437 19.6453L6.8337 15.2953C6.6337 15.0953 6.5037 14.8753 6.5037 14.5753C6.5037 14.0153 6.9137 13.6153 7.4937 13.6153C7.7637 13.6153 8.0537 13.7253 8.2437 13.9453L10.3637 16.2053L11.1337 17.0053L11.0437 14.9553V7.2753H4.2937C1.4337 7.2753 0.0037 8.6853 0.0037 11.5153V25.0053C0.0037 27.8353 1.4337 29.2453 4.2937 29.2453Z"
        fillRule="evenodd"
        clipRule="evenodd"
    />
</svg>
        