
<svg
    viewBox={0 0 28.9296875 28.642578125}
    xmlns="http://www.w3.org/2000/svg"
>
    <path
        fill="inherit"
        d="M0.0037 18.0719C0.0037 20.8919 1.4237 22.3119 4.2937 22.3119H4.7537V10.5719C4.7537 6.7019 7.0237 4.4719 10.9237 4.4719H22.3037V4.2419C22.3037 1.4219 20.8637 0.0019 18.0237 0.0019H4.2937C1.4237 0.0019 0.0037 1.4219 0.0037 4.2419ZM10.9237 28.6419H24.6537C27.4937 28.6419 28.9337 27.2219 28.9337 24.4019V10.5719C28.9337 7.7519 27.4937 6.3319 24.6537 6.3319H10.9237C8.0537 6.3319 6.6337 7.7419 6.6337 10.5719V24.4019C6.6337 27.2219 8.0537 28.6419 10.9237 28.6419Z"
        fillRule="evenodd"
        clipRule="evenodd"
    />
</svg>
        