<svg viewBox="0 0 27.890625 27.890625" xmlns="http://www.w3.org/2000/svg"><path d="M13.9427 27.8864C21.6427 27.8864 27.8927 21.6264 27.8927 13.9464C27.8927 6.2464 21.6427 -0.0036 13.9427 -0.0036C6.2627 -0.0036 0.0027 6.2464 0.0027 13.9464C0.0027 21.6264 6.2627 27.8864 13.9427 27.8864ZM13.9427 15.2964C13.5627 15.2964 13.2527 14.9964 13.2527 14.6164V7.4964L13.2727 6.8264L12.6427 7.4964L12.0127 8.1464C11.8927 8.2764 11.7127 8.3364 11.5127 8.3364C11.1527 8.3364 10.8827 8.0964 10.8827 7.7264C10.8827 7.5464 10.9327 7.4064 11.0927 7.2464L13.4427 4.9764C13.6027 4.8164 13.7527 4.7264 13.9427 4.7264C14.1127 4.7264 14.2727 4.7964 14.4327 4.9764L16.8027 7.2564C16.9527 7.3964 17.0227 7.5464 17.0227 7.7264C17.0227 8.0964 16.7527 8.3364 16.3627 8.3364C16.1627 8.3364 15.9827 8.2764 15.8727 8.1464L15.2327 7.4964L14.6127 6.8264L14.6527 7.4964V14.6164C14.6527 14.9964 14.3327 15.2964 13.9427 15.2964ZM9.9527 20.8364C8.4327 20.8364 7.6127 20.0264 7.6127 18.5164V11.5764C7.6127 10.0664 8.4327 9.2664 9.9527 9.2664H12.1727V10.7064H9.9627C9.3527 10.7064 9.0327 11.0064 9.0327 11.6464V18.4664C9.0327 19.1164 9.3527 19.4164 9.9627 19.4164H17.9227C18.5427 19.4164 18.8427 19.0964 18.8427 18.4664V11.6464C18.8427 11.0064 18.5427 10.7064 17.9227 10.7064H15.7227V9.2664H17.9327C19.4727 9.2664 20.2727 10.0464 20.2727 11.5764V18.5164C20.2727 20.0464 19.4727 20.8364 17.9327 20.8364Z" /></svg>