
<svg
    viewBox={0 0 25.169921875 25.169921875}
    xmlns="http://www.w3.org/2000/svg"
>
    <path
        fill="inherit"
        d="M4.2937 25.1692H20.8737C23.7437 25.1692 25.1737 23.7592 25.1737 20.9492V4.2392C25.1737 1.4192 23.7437 -0.0008 20.8737 -0.0008H4.2937C1.4337 -0.0008 0.0037 1.4192 0.0037 4.2392V20.9492C0.0037 23.7592 1.4337 25.1692 4.2937 25.1692ZM4.3237 2.1992H20.8537C21.0437 2.1992 21.2237 2.2192 21.3837 2.2392L12.5937 11.0492L3.7837 2.2392C3.9537 2.2192 4.1337 2.1992 4.3237 2.1992ZM2.2037 20.8192V4.3592C2.2037 4.1592 2.2137 3.9792 2.2437 3.8192L11.0337 12.5892L2.2437 21.3792C2.2137 21.2092 2.2037 21.0292 2.2037 20.8192ZM22.9737 4.3592V20.8192C22.9737 21.0292 22.9537 21.2092 22.9237 21.3792L14.1337 12.5892L22.9237 3.8192C22.9537 3.9792 22.9737 4.1592 22.9737 4.3592ZM4.3237 22.9692C4.1437 22.9692 3.9637 22.9592 3.8037 22.9292L12.5937 14.1492L21.3737 22.9292C21.2037 22.9592 21.0237 22.9692 20.8537 22.9692Z"
        fillRule="evenodd"
        clipRule="evenodd"
    />
</svg>
        