
<svg
    viewBox={0 0 26.33203125 26.345703125}
    xmlns="http://www.w3.org/2000/svg"
>
    <path
        fill="inherit"
        d="M1.0937 26.3408C1.7137 26.3408 2.2037 25.8408 2.2037 25.2408V20.6308H6.9837C7.7637 20.6308 8.3437 20.0608 8.3437 19.2808V14.4908H13.1237C13.9037 14.4908 14.4937 13.9208 14.4937 13.1408V8.3508H19.2637C20.0537 8.3508 20.6337 7.7808 20.6337 7.0008V2.2008H25.2237C25.8437 2.2008 26.3337 1.7108 26.3337 1.1108C26.3337 0.5108 25.8437 0.0008 25.2237 0.0008H19.7837C19.0037 0.0008 18.4337 0.5908 18.4337 1.3708V6.1508H13.6437C12.8637 6.1508 12.2937 6.7308 12.2937 7.5108V12.2908H7.4937C6.7137 12.2908 6.1437 12.8608 6.1437 13.6608V18.4308H1.3537C0.5737 18.4308 0.0037 19.0208 0.0037 19.8008V25.2408C0.0037 25.8408 0.4937 26.3408 1.0937 26.3408Z"
        fillRule="evenodd"
        clipRule="evenodd"
    />
</svg>
        