<svg viewBox="0 0 25.169921875 25.169921875" xmlns="http://www.w3.org/2000/svg"><path d="M4.2937 25.1692H20.8737C23.7437 25.1692 25.1737 23.7592 25.1737 20.9492V4.2392C25.1737 1.4192 23.7437 -0.0008 20.8737 -0.0008H4.2937C1.4337 -0.0008 0.0037 1.4192 0.0037 4.2392V20.9492C0.0037 23.7592 1.4337 25.1692 4.2937 25.1692ZM8.5437 19.8692C7.7237 20.4892 6.8537 19.8492 7.1737 18.8792L8.7637 14.1092L4.6737 11.1992C3.9137 10.6392 4.1737 9.5392 5.2137 9.5592L10.2237 9.5992L11.7537 4.7992C12.0537 3.8592 13.1237 3.8592 13.4237 4.7992L14.9537 9.5992L19.9737 9.5592C21.0237 9.5392 21.2637 10.6492 20.5037 11.1792L16.4237 14.1092L18.0237 18.8792C18.3337 19.8492 17.4737 20.4892 16.6437 19.8692L12.5937 16.9092Z" /></svg>