
<svg
    viewBox={0 0 30.362625643319 29.0165521256913}
    xmlns="http://www.w3.org/2000/svg"
>
    <path
        fill="inherit"
        d="M11.8123 7.2977L22.4123 17.8677L29.3323 12.8877C30.1723 12.2877 30.5123 11.6577 30.3023 10.9777C30.0823 10.3177 29.4323 9.9977 28.3823 10.0077L19.4323 10.0577L16.7123 1.5177C16.3823 0.5077 15.8923 -0.0023 15.1723 -0.0023C14.4823 -0.0023 13.9923 0.5077 13.6623 1.5177ZM27.0023 27.7377C27.4123 28.1477 28.0923 28.1477 28.4923 27.7377C28.8923 27.3177 28.9023 26.6577 28.4923 26.2477L6.3623 4.1877C5.9523 3.7777 5.2623 3.7577 4.8523 4.1877C4.4623 4.5777 4.4623 5.2677 4.8523 5.6777ZM6.9223 10.0377L1.9823 10.0077C0.9323 9.9977 0.2923 10.3177 0.0723 10.9777C-0.1577 11.6577 0.1923 12.2877 1.0423 12.8877L8.3423 18.1377L5.4823 26.6477C5.1423 27.6477 5.2623 28.3377 5.8223 28.7677C6.3823 29.2077 7.0923 29.0577 7.9423 28.4377L15.1723 23.1177L22.4223 28.4377C23.2723 29.0577 23.9723 29.2077 24.5423 28.7677C24.7523 28.6177 24.8823 28.4277 24.8123 27.8677Z"
        fillRule="evenodd"
        clipRule="evenodd"
    />
</svg>
        