
<svg
    viewBox="0 0 25.169921875 25.169921875"
    xmlns="http://www.w3.org/2000/svg"
>
    <path
        fill="inherit"
        d="M4.2937 25.1692H20.8737C23.7437 25.1692 25.1737 23.7592 25.1737 20.9492V4.2392C25.1737 1.4192 23.7437 -0.0008 20.8737 -0.0008H4.2937C1.4337 -0.0008 0.0037 1.4192 0.0037 4.2392V20.9492C0.0037 23.7592 1.4337 25.1692 4.2937 25.1692ZM4.3237 22.9692C2.9537 22.9692 2.2037 22.2392 2.2037 20.8192V4.3592C2.2037 2.9392 2.9537 2.1992 4.3237 2.1992H20.8537C22.2037 2.1992 22.9737 2.9392 22.9737 4.3592V20.8192C22.9737 22.2392 22.2037 22.9692 20.8537 22.9692ZM8.6637 19.6292L12.5937 16.7492L16.5137 19.6292C17.3237 20.2392 18.1537 19.6092 17.8537 18.6792L16.2937 14.0392L20.2637 11.2092C20.9837 10.6792 20.7637 9.6092 19.7537 9.6292L14.8937 9.6692L13.3937 4.9992C13.1137 4.0992 12.0737 4.0992 11.7837 4.9992L10.2937 9.6692L5.4237 9.6292C4.4337 9.6092 4.1837 10.6592 4.9237 11.2092L8.8837 14.0392L7.3437 18.6792C7.0237 19.6092 7.8737 20.2392 8.6637 19.6292Z"
        fillRule="evenodd"
        clipRule="evenodd"
    />
</svg>
        