
<svg
    viewBox="0 0 27.890625 27.890625"
    xmlns="http://www.w3.org/2000/svg"
>
    <path
        fill="inherit"
        d="M13.9427 27.8864C21.6427 27.8864 27.8927 21.6464 27.8927 13.9464C27.8927 6.2464 21.6427 -0.0036 13.9427 -0.0036C6.2527 -0.0036 0.0027 6.2464 0.0027 13.9464C0.0027 21.6464 6.2527 27.8864 13.9427 27.8864ZM13.9427 25.5664C7.5227 25.5664 2.3227 20.3664 2.3227 13.9464C2.3227 7.5164 7.5227 2.3264 13.9427 2.3264C20.3727 2.3264 25.5627 7.5164 25.5627 13.9464C25.5627 20.3664 20.3727 25.5664 13.9427 25.5664ZM10.0127 20.9964L13.9327 18.1164L17.8527 20.9964C18.6627 21.6064 19.4927 20.9764 19.1927 20.0464L17.6327 15.4064L21.6027 12.5764C22.3227 12.0464 22.1027 10.9764 21.0927 10.9964L16.2327 11.0364L14.7427 6.3664C14.4527 5.4664 13.4127 5.4664 13.1227 6.3664L11.6327 11.0364L6.7627 10.9964C5.7727 10.9764 5.5227 12.0264 6.2627 12.5764L10.2227 15.4064L8.6827 20.0464C8.3627 20.9764 9.2127 21.6064 10.0127 20.9964Z"
        fillRule="evenodd"
        clipRule="evenodd"
    />
</svg>
        