
<svg
    viewBox={0 0 30.362625643319 29.0165521256913}
    xmlns="http://www.w3.org/2000/svg"
>
    <path
        fill="inherit"
        d="M22.4123 17.8677L29.3323 12.8877C30.1723 12.2877 30.5123 11.6577 30.3023 10.9777C30.0823 10.3177 29.4323 9.9977 28.3823 10.0077L19.4323 10.0577L16.7123 1.5177C16.3823 0.5077 15.8923 -0.0023 15.1723 -0.0023C14.4823 -0.0023 13.9923 0.5077 13.6623 1.5177L11.8123 7.3177L13.4423 8.9377L15.1123 3.4277C15.1223 3.3477 15.1523 3.3177 15.1723 3.3177C15.2223 3.3177 15.2423 3.3477 15.2623 3.4277L17.6423 11.3477C17.8123 11.9077 18.1723 12.1377 18.7323 12.1277L27.0023 11.9777C27.0823 11.9777 27.1123 11.9777 27.1223 12.0177C27.1423 12.0577 27.1123 12.0877 27.0623 12.1277L20.9023 16.3777ZM27.0023 27.7377C27.4123 28.1477 28.0923 28.1477 28.4923 27.7377C28.8923 27.3177 28.9023 26.6577 28.4923 26.2477L6.3623 4.1877C5.9523 3.7777 5.2623 3.7577 4.8523 4.1877C4.4623 4.5777 4.4623 5.2677 4.8523 5.6777ZM5.8223 28.7677C6.3823 29.2077 7.0923 29.0577 7.9423 28.4377L15.1723 23.1177L22.4223 28.4377C23.2723 29.0577 23.9523 29.1877 24.5423 28.7677C24.7023 28.6377 24.8323 28.4777 25.0323 28.1777L15.8723 21.0177C15.4323 20.6677 14.9323 20.6677 14.4923 21.0177L7.9223 26.0277C7.8623 26.0677 7.8223 26.0977 7.7923 26.0577C7.7623 26.0277 7.7823 26.0177 7.7923 25.9377L10.5123 18.1177C10.7023 17.5777 10.5923 17.1577 10.1223 16.8277L3.3123 12.1277C3.2423 12.0877 3.2323 12.0577 3.2423 12.0177C3.2523 11.9777 3.2823 11.9777 3.3623 11.9777L8.9723 12.0677L6.9223 10.0377L1.9823 10.0077C0.9323 9.9977 0.2923 10.3177 0.0723 10.9777C-0.1577 11.6577 0.1923 12.2877 1.0423 12.8877L8.3423 18.1377L5.4823 26.6477C5.1423 27.6477 5.2623 28.3377 5.8223 28.7677Z"
        fillRule="evenodd"
        clipRule="evenodd"
    />
</svg>
        