
<svg
    viewBox={0 0 28.9296875 28.642578125}
    xmlns="http://www.w3.org/2000/svg"
>
    <path
        fill="inherit"
        d="M0.0037 18.0719C0.0037 20.8919 1.4237 22.3119 4.2937 22.3119H4.7537V10.5719C4.7537 6.7019 7.0237 4.4719 10.9237 4.4719H22.3037V4.2419C22.3037 1.4219 20.8637 0.0019 18.0237 0.0019H4.2937C1.4237 0.0019 0.0037 1.4219 0.0037 4.2419ZM10.9237 28.6419H24.6537C27.4937 28.6419 28.9337 27.2219 28.9337 24.4019V10.5719C28.9337 7.7519 27.4937 6.3319 24.6537 6.3319H10.9237C8.0537 6.3319 6.6337 7.7419 6.6337 10.5719V24.4019C6.6337 27.2219 8.0537 28.6419 10.9237 28.6419ZM14.4137 23.6119C13.7137 24.1419 12.9837 23.6019 13.2637 22.7919L14.6037 18.7819L11.1537 16.3219C10.5137 15.8619 10.7337 14.9319 11.6037 14.9419L15.8337 14.9819L17.1037 10.9519C17.3637 10.1619 18.2637 10.1619 18.5137 10.9519L19.7937 14.9819L24.0037 14.9419C24.8937 14.9319 25.0837 15.8619 24.4637 16.3219L21.0237 18.7819L22.3637 22.7919C22.6437 23.6019 21.9037 24.1419 21.2037 23.6119L17.8137 21.1319Z"
        fillRule="evenodd"
        clipRule="evenodd"
    />
</svg>
        