<svg viewBox="0 0 30.1328125 28.369140625" xmlns="http://www.w3.org/2000/svg"><path d="M8.1237 28.3728C8.6537 28.3728 9.0537 28.0928 9.6937 27.4928L14.6337 22.9828H23.8737C27.9437 22.9828 30.1337 20.7428 30.1337 16.7328V6.2628C30.1337 2.2528 27.9437 0.0028 23.8737 0.0028H6.2637C2.1837 0.0028 0.0037 2.2428 0.0037 6.2628V16.7328C0.0037 20.7528 2.1837 22.9828 6.2637 22.9828H6.9037V26.9628C6.9037 27.8128 7.3437 28.3728 8.1237 28.3728ZM12.0737 16.8128C11.4837 17.2528 10.7837 16.8528 11.0637 16.0828L12.2537 12.5528L9.1637 10.3528C8.5337 9.9028 8.8037 9.1728 9.5137 9.1728H13.3137L14.4537 5.6728C14.6837 4.9728 15.4937 4.9728 15.7137 5.6728L16.8337 9.1728H20.6337C21.3437 9.1728 21.6137 9.9028 20.9837 10.3528L17.9237 12.5528L19.1037 16.0828C19.3637 16.8528 18.6737 17.2528 18.0737 16.8128L15.0837 14.6128Z" /></svg>