
<svg
    viewBox="0 0 27.890625 27.890625"
    xmlns="http://www.w3.org/2000/svg"
>
    <path
        fill="inherit"
        d="M13.9427 27.8927C21.6427 27.8927 27.8927 21.6427 27.8927 13.9427C27.8927 6.2627 21.6427 0.0027 13.9427 0.0027C6.2627 0.0027 0.0027 6.2627 0.0027 13.9427C0.0027 21.6427 6.2627 27.8927 13.9427 27.8927ZM7.3927 10.2427L7.4527 10.1427C7.8927 9.2527 8.3227 9.1627 9.2027 9.6527L12.5927 11.6327V7.6827C12.5927 6.7427 12.9227 6.4227 13.9227 6.4227H14.0127C14.9827 6.4227 15.3127 6.7427 15.3127 7.6827V11.6327L18.7027 9.6527C19.5927 9.1327 20.0327 9.2527 20.4527 10.1427L20.5127 10.2427C20.9427 11.1027 20.8327 11.5227 20.0327 11.9627L16.4727 13.8727L20.0427 15.9427C20.8227 16.3927 20.9227 16.8127 20.4927 17.6727L20.4527 17.7427C20.0127 18.6227 19.5927 18.7427 18.7327 18.2427L15.3127 16.2527V20.2027C15.3127 21.1627 14.9827 21.4827 14.0127 21.4827H13.9227C12.9227 21.4827 12.5927 21.1627 12.5927 20.2027V16.2527L9.1727 18.2427C8.3627 18.7127 7.9327 18.6027 7.4527 17.7427L7.4227 17.6727C6.9427 16.8327 7.0527 16.4227 7.8627 15.9427L11.4327 13.8727L7.8727 11.9627C7.0727 11.5427 6.9627 11.1127 7.3927 10.2427Z"
        fillRule="evenodd"
        clipRule="evenodd"
    />
</svg>
        