
<svg
    viewBox={0 0 27.890625 27.890625}
    xmlns="http://www.w3.org/2000/svg"
>
    <path
        fill="inherit"
        d="M13.9427 27.8864C21.6427 27.8864 27.8927 21.6464 27.8927 13.9464C27.8927 6.2464 21.6427 -0.0036 13.9427 -0.0036C6.2527 -0.0036 0.0027 6.2464 0.0027 13.9464C0.0027 21.6464 6.2527 27.8864 13.9427 27.8864ZM13.9427 25.5664C7.5227 25.5664 2.3227 20.3664 2.3227 13.9464C2.3227 7.5164 7.5227 2.3264 13.9427 2.3264C20.3727 2.3264 25.5627 7.5164 25.5627 13.9464C25.5627 20.3664 20.3727 25.5664 13.9427 25.5664ZM7.5927 10.3464C7.1527 11.1864 7.2727 11.5964 8.0427 12.0164L11.4827 13.8764L8.0227 15.8864C7.2427 16.3364 7.1327 16.7464 7.6027 17.5664L7.6327 17.6264C8.0927 18.4564 8.5127 18.5664 9.2927 18.0864L12.6227 16.1764V20.0164C12.6227 20.9464 12.9327 21.2464 13.9027 21.2464H13.9827C14.9327 21.2464 15.2427 20.9464 15.2427 20.0164V16.1764L18.5627 18.0864C19.3827 18.5964 19.7927 18.4664 20.2327 17.6264L20.2627 17.5664C20.6827 16.7364 20.5927 16.3264 19.8427 15.8864L16.3827 13.8764L19.8227 12.0164C20.6027 11.5964 20.7127 11.1864 20.2727 10.3464L20.2327 10.2564C19.8127 9.4064 19.3827 9.2864 18.5427 9.7864L15.2427 11.7064V7.8564C15.2427 6.9564 14.9327 6.6564 13.9827 6.6564H13.9027C12.9327 6.6564 12.6227 6.9564 12.6227 7.8564V11.7064L9.3227 9.7864C8.4727 9.2964 8.0527 9.4064 7.6327 10.2564Z"
        fillRule="evenodd"
        clipRule="evenodd"
    />
</svg>
        