
<svg
    viewBox={0 0 30.362625643319 29.0165521256913}
    xmlns="http://www.w3.org/2000/svg"
>
    <path
        fill="inherit"
        d="M5.8223 28.7677C6.3823 29.2077 7.0923 29.0577 7.9423 28.4377L15.1723 23.1177L22.4223 28.4377C23.2723 29.0577 23.9723 29.2077 24.5423 28.7677C25.1023 28.3377 25.2223 27.6477 24.8823 26.6477L22.0223 18.1377L29.3323 12.8877C30.1723 12.2877 30.5123 11.6577 30.3023 10.9777C30.0823 10.3177 29.4323 9.9977 28.3823 10.0077L19.4323 10.0577L16.7123 1.5177C16.3823 0.5077 15.8923 -0.0023 15.1723 -0.0023C14.4823 -0.0023 13.9923 0.5077 13.6623 1.5177L10.9423 10.0577L1.9823 10.0077C0.9323 9.9977 0.2923 10.3177 0.0723 10.9777C-0.1577 11.6577 0.1923 12.2877 1.0423 12.8877L8.3423 18.1377L5.4823 26.6477C5.1423 27.6477 5.2623 28.3377 5.8223 28.7677ZM7.7923 26.0577C7.7623 26.0277 7.7823 26.0177 7.7923 25.9377L10.5123 18.1177C10.7023 17.5777 10.5923 17.1577 10.1223 16.8277L3.3123 12.1277C3.2423 12.0877 3.2323 12.0577 3.2423 12.0177C3.2523 11.9777 3.2823 11.9777 3.3623 11.9777L11.6323 12.1277C12.1923 12.1377 12.5523 11.9077 12.7323 11.3477L15.1123 3.4277C15.1223 3.3477 15.1523 3.3177 15.1723 3.3177C15.2223 3.3177 15.2423 3.3477 15.2623 3.4277L17.6423 11.3477C17.8123 11.9077 18.1723 12.1377 18.7323 12.1277L27.0023 11.9777C27.0823 11.9777 27.1123 11.9777 27.1223 12.0177C27.1423 12.0577 27.1123 12.0877 27.0623 12.1277L20.2523 16.8277C19.7723 17.1577 19.6623 17.5777 19.8523 18.1177L22.5723 25.9377C22.5923 26.0177 22.6023 26.0277 22.5723 26.0577C22.5423 26.0977 22.5023 26.0677 22.4523 26.0277L15.8723 21.0177C15.4323 20.6677 14.9323 20.6677 14.4923 21.0177L7.9223 26.0277C7.8623 26.0677 7.8223 26.0977 7.7923 26.0577Z"
        fillRule="evenodd"
        clipRule="evenodd"
    />
</svg>
        