<svg viewBox="0 0 30.1328125 28.287109375" xmlns="http://www.w3.org/2000/svg"><path d="M8.4037 28.2828C9.0737 28.2828 9.5437 27.9328 10.3737 27.1928L15.0937 22.9928H23.8737C27.9437 22.9928 30.1337 20.7428 30.1337 16.7328V6.2628C30.1337 2.2528 27.9437 0.0028 23.8737 0.0028H6.2637C2.1837 0.0028 0.0037 2.2428 0.0037 6.2628V16.7328C0.0037 20.7528 2.1837 22.9928 6.2637 22.9928H6.9137V26.5528C6.9137 27.6028 7.4537 28.2828 8.4037 28.2828ZM8.9737 25.7828V21.8228C8.9737 21.0828 8.6837 20.7928 7.9437 20.7928H6.2637C3.5037 20.7928 2.2037 19.3828 2.2037 16.7228V6.2628C2.2037 3.5928 3.5037 2.2028 6.2637 2.2028H23.8737C26.6237 2.2028 27.9337 3.5928 27.9337 6.2628V16.7228C27.9337 19.3828 26.6237 20.7928 23.8737 20.7928H15.0137C14.2437 20.7928 13.8637 20.9028 13.3437 21.4328ZM12.1637 16.6528L15.0837 14.5228L17.9937 16.6528C18.5537 17.0728 19.2237 16.6928 18.9637 15.9428L17.8237 12.5228L20.8037 10.3728C21.4137 9.9428 21.1537 9.2428 20.4637 9.2428H16.7737L15.6837 5.8428C15.4737 5.1828 14.6837 5.1828 14.4737 5.8428L13.3737 9.2428H9.6837C8.9937 9.2428 8.7237 9.9428 9.3337 10.3728L12.3337 12.5228L11.1837 15.9428C10.9337 16.6928 11.5937 17.0728 12.1637 16.6528Z" /></svg>