
<svg
    viewBox={0 0 27.890625 27.890625}
    xmlns="http://www.w3.org/2000/svg"
>
    <path
        fill="inherit"
        d="M13.9427 27.8864C21.6427 27.8864 27.8927 21.6264 27.8927 13.9464C27.8927 6.2464 21.6427 -0.0036 13.9427 -0.0036C6.2627 -0.0036 0.0027 6.2464 0.0027 13.9464C0.0027 21.6264 6.2627 27.8864 13.9427 27.8864ZM13.9427 22.4664C9.2427 22.4664 5.4327 18.6464 5.4327 13.9464C5.4327 9.2264 9.2427 5.4264 13.9427 5.4264C18.6627 5.4264 22.4627 9.2264 22.4627 13.9464C22.4627 18.6464 18.6627 22.4664 13.9427 22.4664ZM8.3927 10.2164C8.0927 10.6464 8.2427 11.1564 8.7727 11.1564H19.1027C19.6327 11.1564 19.7727 10.6464 19.4727 10.2164C18.2927 8.4364 16.2727 7.2364 13.9327 7.2364C11.6027 7.2364 9.5827 8.4364 8.3927 10.2164ZM13.9427 16.0964C14.9127 16.0964 15.7127 15.3164 15.7127 14.3264C15.7127 13.3464 14.9127 12.5764 13.9427 12.5764C12.9727 12.5764 12.1927 13.3464 12.1927 14.3264C12.1927 15.3164 12.9727 16.0964 13.9427 16.0964ZM20.4027 15.7064C20.5327 15.2164 20.2627 14.9864 19.8627 15.0364C17.5827 15.2964 15.8427 17.2964 15.9127 19.6064C15.9127 20.0164 16.2427 20.2764 16.6627 20.0664C18.5227 19.2364 19.8927 17.6464 20.4027 15.7064ZM7.4827 15.7064C7.9827 17.6464 9.3527 19.2364 11.2227 20.0664C11.6327 20.2764 11.9627 20.0164 11.9627 19.6064C12.0427 17.2764 10.2927 15.2964 8.0127 15.0364C7.6127 14.9864 7.3427 15.2164 7.4827 15.7064Z"
        fillRule="evenodd"
        clipRule="evenodd"
    />
</svg>
        