
<svg
    viewBox="0 0 38.41016728531475 31.44438839776641"
    xmlns="http://www.w3.org/2000/svg"
>
    <path
        fill="inherit"
        d="M33.3386 9.2702C32.7586 9.6102 32.7086 10.2102 33.3986 10.5702L37.0386 12.4102C37.6286 12.7102 38.0886 12.4402 38.1486 11.8002L38.4086 7.7202C38.4586 6.9602 37.8986 6.6702 37.3286 7.0102L36.2586 7.6002C34.4386 4.4802 31.7786 1.8902 28.6186 0.1602C28.0186 -0.1798 27.3686 0.0402 27.1086 0.6002C26.8386 1.1502 27.0586 1.7402 27.6086 2.0502C30.4486 3.5802 32.7986 5.8802 34.3986 8.6702ZM5.0786 9.2702L4.0086 8.6702C5.6086 5.8802 7.9586 3.5802 10.7986 2.0502C11.3486 1.7402 11.5686 1.1502 11.3086 0.6002C11.0386 0.0402 10.3886 -0.1798 9.7886 0.1602C6.6286 1.8902 3.9686 4.4802 2.1486 7.6002L1.0986 7.0102C0.5086 6.6702 -0.0414 6.9602 -0.0014 7.7202L0.2786 11.8002C0.2986 12.4402 0.7986 12.7102 1.3686 12.4102L5.0086 10.5702C5.6986 10.2002 5.6586 9.6102 5.0786 9.2702ZM19.2086 31.4402C26.9086 31.4402 33.1586 25.2002 33.1586 17.5002C33.1586 9.8002 26.9086 3.5502 19.2086 3.5502C11.5186 3.5502 5.2686 9.8002 5.2686 17.5002C5.2686 25.2002 11.5186 31.4402 19.2086 31.4402ZM9.5886 11.0602C11.5986 7.9402 15.1386 5.8802 19.1886 5.8802C23.2186 5.8802 26.7586 7.9402 28.7786 11.0502C29.3286 11.8302 29.0686 12.7002 28.1386 12.7002H10.2286C9.3086 12.7002 9.0386 11.8302 9.5886 11.0602ZM19.1886 21.2202C17.4986 21.2202 16.1486 19.8602 16.1486 18.1702C16.1486 16.5002 17.4986 15.1502 19.1886 15.1502C20.8686 15.1502 22.2186 16.5002 22.2186 18.1702C22.2186 19.8602 20.8686 21.2202 19.1886 21.2202ZM7.9886 20.5502C7.7586 19.7002 8.2286 19.3202 8.9486 19.4102C12.8586 19.8602 15.8886 23.3002 15.7486 27.3202C15.7486 28.0102 15.2186 28.4802 14.4986 28.1202C11.2586 26.6702 8.8886 23.9102 7.9886 20.5502ZM30.3986 20.5502C29.5086 23.9102 27.1286 26.6702 23.8986 28.1202C23.1586 28.4802 22.6386 28.0102 22.6286 27.3202C22.5086 23.3102 25.5286 19.8602 29.4486 19.4102C30.1586 19.3202 30.6286 19.7002 30.3986 20.5502Z"
        fillRule="evenodd"
        clipRule="evenodd"
    />
</svg>
        