
<svg
    viewBox="0 0 38.90391254756449 27.890625"
    xmlns="http://www.w3.org/2000/svg"
>
    <path
        fill="inherit"
        d="M19.4637 -0.0036C14.5737 -0.0036 10.2037 2.6264 7.7137 6.5264C8.2237 7.2464 9.2837 7.4464 9.9437 7.3164C11.4437 4.7964 15.0937 2.3264 19.4437 2.3264C24.2137 2.3264 28.0437 5.4164 28.9837 7.3264C29.7237 7.4764 30.7937 7.1364 31.2137 6.4964C28.7237 2.6064 24.3537 -0.0036 19.4637 -0.0036ZM11.9437 7.0664C10.8437 7.0664 10.3937 8.6364 9.4637 8.6364C8.0037 8.6364 6.2837 7.2964 6.2837 6.5264C6.2837 6.3464 6.3637 6.0964 6.3637 5.9864C6.3637 5.7864 6.1937 5.6464 5.9337 5.6464C4.6537 5.6464 2.0537 6.4264 2.0637 8.2564C1.7137 8.4464 1.0037 8.9164 1.0037 9.9964C1.0037 11.8664 1.7137 12.0564 1.7137 16.9164C1.7137 18.6164 0.9737 20.1264 0.3137 21.1264C-1.4463 23.8164 4.6137 27.3064 6.5237 23.2664L7.5537 21.0864C8.7037 18.6164 10.7737 16.4164 11.5537 15.3964C12.3337 14.3464 13.6237 8.9864 13.6237 8.3364C13.6237 7.6864 13.0737 7.0664 11.9437 7.0664ZM26.9637 7.0664C25.8337 7.0664 25.2837 7.6864 25.2837 8.3364C25.2837 8.9864 26.5637 14.3464 27.3437 15.3964C28.1237 16.4164 30.1937 18.6164 31.3537 21.0864L32.3837 23.2664C34.2937 27.3064 40.3537 23.8164 38.5837 21.1264C37.9337 20.1264 37.1937 18.6164 37.1937 16.9164C37.1937 12.0564 37.8837 11.8664 37.8837 9.9964C37.8837 8.9164 37.1937 8.4464 36.8337 8.2564C36.8537 6.4264 34.2537 5.6464 32.9537 5.6464C32.7037 5.6464 32.5437 5.7864 32.5437 5.9864C32.5437 6.0964 32.6237 6.3464 32.6237 6.5264C32.6237 7.2964 30.9037 8.6364 29.4437 8.6364C28.5137 8.6364 28.0537 7.0664 26.9637 7.0664ZM19.4737 27.8864C23.9437 27.8864 27.9637 25.7264 30.5237 22.3964L30.1637 21.6464C29.9137 21.1364 29.6337 20.6264 29.2937 20.1664C28.0737 22.0664 26.3237 23.5964 24.1637 24.5664C23.4337 24.9264 22.9037 24.4564 22.9037 23.7664C22.8037 20.8364 24.3937 18.2064 26.7737 16.8264C26.5937 16.5864 26.4137 16.3664 26.2937 16.1864C25.4737 15.0764 24.3637 10.9064 24.0637 9.1464H14.8537C14.5537 10.9064 13.4437 15.0764 12.6137 16.1864C12.4837 16.3664 12.3337 16.5664 12.1437 16.8264C14.5337 18.1964 16.1237 20.8264 16.0237 23.7664C16.0137 24.4564 15.4937 24.9264 14.7537 24.5664C12.6137 23.5964 10.8637 22.0664 9.6437 20.1364C9.3037 20.6264 9.0037 21.1264 8.7437 21.6464L8.4137 22.3564C10.9637 25.7064 15.0037 27.8864 19.4737 27.8864ZM19.4637 17.6664C17.7737 17.6664 16.4237 16.3064 16.4237 14.6164C16.4237 12.9464 17.7737 11.5964 19.4637 11.5964C21.1437 11.5964 22.4937 12.9464 22.4937 14.6164C22.4937 16.3064 21.1437 17.6664 19.4637 17.6664Z"
        fillRule="evenodd"
        clipRule="evenodd"
    />
</svg>
        