
<svg
    viewBox={0 0 39.40299900449957 20.466796875}
    xmlns="http://www.w3.org/2000/svg"
>
    <path
        fill="inherit"
        d="M1.1238 20.464H2.8938C3.7238 20.464 4.1338 20.074 4.3638 19.484L11.9038 0.844C12.1038 0.394 11.8838 0.004 11.4038 0.004H10.5138C10.0338 0.004 9.7338 0.234 9.5338 0.644L0.1638 18.954C-0.2162 19.644 0.0538 20.464 1.1238 20.464ZM36.5038 20.464H38.2938C39.3438 20.464 39.6238 19.644 39.2338 18.954L29.8838 0.644C29.6638 0.234 29.3638 0.004 28.8938 0.004H28.0038C27.5238 0.004 27.3138 0.394 27.4938 0.844L35.0438 19.484C35.2738 20.074 35.6838 20.464 36.5038 20.464ZM19.7038 19.274C24.2838 19.274 28.0838 15.494 28.0838 10.914C28.0838 6.314 24.2638 2.534 19.6838 2.534C15.1238 2.534 11.3338 6.314 11.3338 10.914C11.3338 15.494 15.1238 19.274 19.7038 19.274ZM14.1638 7.214C15.3438 5.404 17.3538 4.224 19.6838 4.224C22.0238 4.224 24.0338 5.404 25.2138 7.204C25.4838 7.584 25.4038 7.914 24.9638 7.914H14.4138C14.0038 7.914 13.9038 7.584 14.1638 7.214ZM19.6838 12.934C18.7738 12.934 18.0738 12.234 18.0738 11.324C18.0738 10.394 18.7738 9.694 19.6838 9.694C20.6138 9.694 21.3138 10.394 21.3138 11.324C21.3138 12.234 20.6138 12.934 19.6838 12.934ZM26.1438 12.664C25.6238 14.604 24.2838 16.184 22.4038 17.004C22.0638 17.184 21.8938 17.034 21.8938 16.694C21.8038 14.384 23.5038 12.444 25.7538 12.194C26.0838 12.144 26.2538 12.264 26.1438 12.664ZM13.2638 12.664C13.1538 12.264 13.2938 12.154 13.6338 12.194C15.8838 12.444 17.5838 14.384 17.5038 16.694C17.5038 17.034 17.3338 17.184 16.9938 17.004C15.1238 16.184 13.7638 14.604 13.2638 12.664Z"
        fillRule="evenodd"
        clipRule="evenodd"
    />
</svg>
        