
<svg
    viewBox={0 0 39.39019636459362 20.466796875}
    xmlns="http://www.w3.org/2000/svg"
>
    <path
        fill="inherit"
        d="M9.0233 3.634H10.0033C10.6233 3.634 10.8833 3.404 11.0833 2.884L11.8933 0.844C12.0833 0.394 11.8833 0.004 11.4033 0.004H10.5033C10.0333 0.004 9.7433 0.234 9.5333 0.644L8.4533 2.724C8.2333 3.134 8.4533 3.634 9.0233 3.634ZM29.3833 3.634H30.3633C30.9433 3.634 31.1533 3.134 30.9433 2.724L29.8633 0.644C29.6533 0.234 29.3533 0.004 28.8933 0.004H27.9833C27.5033 0.004 27.3033 0.394 27.4933 0.844L28.3033 2.884C28.5033 3.404 28.7633 3.634 29.3833 3.634ZM19.7133 19.274C24.2933 19.274 28.0933 15.494 28.0933 10.914C28.0933 6.314 24.2833 2.534 19.7033 2.534C15.1333 2.534 11.3333 6.314 11.3333 10.914C11.3333 15.494 15.1333 19.274 19.7133 19.274ZM14.1733 7.214C15.3533 5.404 17.3633 4.224 19.7033 4.224C22.0433 4.224 24.0533 5.404 25.2233 7.204C25.4933 7.584 25.4033 7.914 24.9733 7.914H14.4233C14.0033 7.914 13.9133 7.584 14.1733 7.214ZM5.2733 11.234H6.7933C7.4233 11.234 7.7933 11.024 8.0233 10.434L9.2133 7.504C9.4033 7.024 9.1033 6.564 8.5733 6.564H7.2233C6.7533 6.564 6.3733 6.794 6.1533 7.214L4.6333 10.174C4.3633 10.694 4.6933 11.234 5.2733 11.234ZM32.6033 11.234H34.1133C34.7033 11.234 35.0233 10.694 34.7633 10.174L33.2533 7.214C33.0133 6.794 32.6333 6.564 32.1733 6.564H30.8133C30.2833 6.564 29.9833 7.024 30.1733 7.504L31.3633 10.434C31.6133 11.024 31.9633 11.234 32.6033 11.234ZM19.7033 12.934C18.7733 12.934 18.0833 12.234 18.0833 11.324C18.0833 10.394 18.7733 9.694 19.7033 9.694C20.6133 9.694 21.3133 10.394 21.3133 11.324C21.3133 12.234 20.6133 12.934 19.7033 12.934ZM26.1533 12.664C25.6333 14.604 24.2833 16.184 22.4033 17.004C22.0633 17.184 21.9033 17.034 21.8933 16.694C21.8233 14.384 23.5133 12.444 25.7533 12.194C26.1033 12.144 26.2533 12.274 26.1533 12.664ZM13.2733 12.664C13.1533 12.274 13.3033 12.154 13.6333 12.194C15.8833 12.444 17.5933 14.374 17.5133 16.694C17.5133 17.034 17.3333 17.184 16.9933 17.004C15.1233 16.184 13.7833 14.604 13.2733 12.664ZM1.1033 20.464H2.8933C3.7233 20.464 4.1333 20.074 4.3433 19.484L6.0133 15.394C6.2633 14.794 5.8833 14.204 5.2233 14.204H3.6733C2.8133 14.204 2.3933 14.534 2.0933 15.104L0.1533 18.954C-0.2067 19.644 0.0533 20.464 1.1033 20.464ZM36.4933 20.464H38.2833C39.3433 20.464 39.5933 19.644 39.2333 18.954L37.2933 15.104C36.9933 14.534 36.5733 14.204 35.7133 14.204H34.1833C33.5133 14.204 33.1233 14.794 33.3733 15.394L35.0433 19.484C35.2733 20.074 35.6733 20.464 36.4933 20.464Z"
        fillRule="evenodd"
        clipRule="evenodd"
    />
</svg>
        