
<svg
    viewBox="0 0 29.955078125 30.707709054282716"
    xmlns="http://www.w3.org/2000/svg"
>
    <path
        fill="inherit"
        d="M21.3427 6.9635C21.3427 5.1535 19.7327 4.1535 19.7327 2.9235C19.7327 2.2435 19.9027 1.8735 20.3727 1.2435C21.0227 0.3835 19.8127 -0.5065 19.1427 0.3435C18.5027 1.1635 18.2127 1.9135 18.2127 2.8335C18.2127 4.7035 19.7927 5.6235 19.7927 6.9635C19.7927 8.2735 18.2127 9.2035 18.2127 11.0635C18.2127 11.9935 18.5027 12.7435 19.1427 13.5535C19.7827 14.3835 21.0127 13.5035 20.3527 12.6435C19.9027 12.0335 19.7327 11.6635 19.7327 10.9635C19.7327 9.7535 21.3427 8.7535 21.3427 6.9635ZM25.6527 6.9635C25.6527 5.1535 24.0327 4.1535 24.0327 2.9235C24.0327 2.2435 24.2127 1.8735 24.6827 1.2435C25.3327 0.3835 24.1127 -0.5065 23.4427 0.3435C22.8027 1.1635 22.5127 1.9135 22.5127 2.8335C22.5127 4.7035 24.1027 5.6235 24.1027 6.9635C24.1027 8.2735 22.5127 9.2035 22.5127 11.0635C22.5127 11.9935 22.8027 12.7435 23.4427 13.5535C24.0927 14.3835 25.3227 13.5035 24.6627 12.6435C24.2127 12.0335 24.0327 11.6635 24.0327 10.9635C24.0327 9.7535 25.6527 8.7535 25.6527 6.9635ZM29.9527 6.9635C29.9527 5.1535 28.3427 4.1535 28.3427 2.9235C28.3427 2.2435 28.5227 1.8735 28.9827 1.2435C29.6427 0.3835 28.4227 -0.5065 27.7527 0.3435C27.1127 1.1635 26.8227 1.9135 26.8227 2.8335C26.8227 4.7035 28.4127 5.6235 28.4127 6.9635C28.4127 8.2735 26.8227 9.2035 26.8227 11.0635C26.8227 11.9935 27.1127 12.7435 27.7527 13.5535C28.3927 14.3835 29.6227 13.5035 28.9727 12.6435C28.5227 12.0335 28.3427 11.6635 28.3427 10.9635C28.3427 9.7535 29.9527 8.7535 29.9527 6.9635ZM13.9427 30.7035C21.5727 30.7035 27.8927 24.3735 27.8927 16.7635C27.8927 16.4335 27.8727 16.1235 27.8527 15.8035C27.2027 15.6935 26.6627 15.3435 26.2327 14.7835C25.7127 15.4135 24.8827 15.8435 24.0227 15.8435C23.2127 15.8435 22.4727 15.4935 21.9327 14.7835C21.3527 15.4335 20.5627 15.8435 19.7027 15.8435C17.9927 15.8435 16.6927 14.4135 16.3627 12.4135C16.3427 12.2735 16.3227 12.1135 16.3127 11.9635H4.9627C4.0627 11.9635 3.7727 11.0935 4.3327 10.3235C6.3427 7.2035 9.8827 5.1435 13.9227 5.1435C15.1327 5.1435 16.3227 5.3335 17.4227 5.6735C17.1827 5.0135 16.6127 4.1535 16.3627 3.0535C15.5827 2.9035 14.7627 2.8135 13.9327 2.8135C6.3127 2.8135 0.0027 9.1335 0.0027 16.7635C0.0027 24.3735 6.3327 30.7035 13.9427 30.7035ZM13.9327 20.4835C12.2327 20.4835 10.8927 19.1235 10.8927 17.4335C10.8927 15.7635 12.2327 14.4135 13.9327 14.4135C15.6127 14.4135 16.9627 15.7635 16.9627 17.4335C16.9627 19.1235 15.6127 20.4835 13.9327 20.4835ZM2.7327 19.8135C2.4927 18.9635 2.9627 18.5835 3.6827 18.6735C7.5927 19.1235 10.6227 22.5635 10.5027 26.5835C10.4827 27.2735 9.9627 27.7435 9.2327 27.3835C6.0027 25.9335 3.6227 23.1735 2.7327 19.8135ZM25.1327 19.8135C24.2427 23.1735 21.8727 25.9335 18.6327 27.3835C17.9127 27.7435 17.3727 27.2735 17.3627 26.5835C17.2427 22.5735 20.2627 19.1235 24.1827 18.6735C24.8927 18.5835 25.3727 18.9635 25.1327 19.8135Z"
        fillRule="evenodd"
        clipRule="evenodd"
    />
</svg>
        