
<svg
    viewBox="0 0 27.890625 27.890625"
    xmlns="http://www.w3.org/2000/svg"
>
    <path
        fill="inherit"
        d="M13.9427 27.8864C21.6427 27.8864 27.8927 21.6464 27.8927 13.9464C27.8927 6.2464 21.6427 -0.0036 13.9427 -0.0036C6.2527 -0.0036 0.0027 6.2464 0.0027 13.9464C0.0027 21.6464 6.2527 27.8864 13.9427 27.8864ZM13.9427 25.5664C7.5227 25.5664 2.3227 20.3664 2.3227 13.9464C2.3227 7.5164 7.5227 2.3264 13.9427 2.3264C20.3727 2.3264 25.5627 7.5164 25.5627 13.9464C25.5627 20.3664 20.3727 25.5664 13.9427 25.5664ZM13.9327 22.2064C18.5027 22.2064 22.1927 18.4964 22.1927 13.9464C22.1927 9.3764 18.5027 5.6864 13.9327 5.6864C9.3827 5.6864 5.6727 9.3764 5.6727 13.9464C5.6727 18.4964 9.3827 22.2064 13.9327 22.2064ZM8.5427 10.3364C9.6927 8.5964 11.6627 7.4364 13.9227 7.4364C16.1827 7.4364 18.1527 8.5964 19.2927 10.3364C19.5927 10.7564 19.4527 11.2364 18.9327 11.2364H8.9127C8.3927 11.2364 8.2427 10.7564 8.5427 10.3364ZM13.9327 16.0264C12.9927 16.0264 12.2327 15.2764 12.2327 14.3164C12.2327 13.3664 12.9927 12.6164 13.9327 12.6164C14.8727 12.6164 15.6427 13.3664 15.6427 14.3164C15.6427 15.2764 14.8727 16.0264 13.9327 16.0264ZM7.6527 15.6564C7.5227 15.1764 7.7927 14.9564 8.1727 15.0164C10.3927 15.2564 12.0827 17.1864 12.0027 19.4364C12.0027 19.8364 11.6927 20.0864 11.2927 19.8964C9.4727 19.0864 8.1527 17.5364 7.6527 15.6564ZM20.1927 15.6564C19.7027 17.5364 18.3727 19.0864 16.5727 19.8964C16.1627 20.0864 15.8427 19.8364 15.8427 19.4364C15.7727 17.1964 17.4627 15.2564 19.6727 15.0164C20.0527 14.9564 20.3327 15.1764 20.1927 15.6564Z"
        fillRule="evenodd"
        clipRule="evenodd"
    />
</svg>
        