
<svg
    viewBox="0 0 27.890625 27.890625"
    xmlns="http://www.w3.org/2000/svg"
>
    <path
        fill="inherit"
        d="M13.9427 27.8864C21.6427 27.8864 27.8927 21.6464 27.8927 13.9464C27.8927 6.2464 21.6427 -0.0036 13.9427 -0.0036C6.2527 -0.0036 0.0027 6.2464 0.0027 13.9464C0.0027 21.6464 6.2527 27.8864 13.9427 27.8864ZM4.3327 7.5064C6.3427 4.3864 9.8827 2.3264 13.9227 2.3264C17.9527 2.3264 21.4927 4.3864 23.5127 7.4964C24.0727 8.2764 23.8027 9.1464 22.8827 9.1464H4.9627C4.0627 9.1464 3.7727 8.2764 4.3327 7.5064ZM13.9327 17.6664C12.2327 17.6664 10.8927 16.3064 10.8927 14.6164C10.8927 12.9464 12.2327 11.5964 13.9327 11.5964C15.6127 11.5964 16.9627 12.9464 16.9627 14.6164C16.9627 16.3064 15.6127 17.6664 13.9327 17.6664ZM2.7327 16.9964C2.4927 16.1464 2.9627 15.7664 3.6827 15.8564C7.5927 16.3064 10.6227 19.7464 10.5027 23.7664C10.4827 24.4564 9.9627 24.9264 9.2327 24.5664C6.0027 23.1164 3.6227 20.3564 2.7327 16.9964ZM25.1327 16.9964C24.2427 20.3564 21.8727 23.1164 18.6327 24.5664C17.9127 24.9264 17.3727 24.4564 17.3627 23.7664C17.2427 19.7564 20.2627 16.3064 24.1827 15.8564C24.8927 15.7664 25.3727 16.1464 25.1327 16.9964Z"
        fillRule="evenodd"
        clipRule="evenodd"
    />
</svg>
        