
<svg
    viewBox="0 0 35.79296875 27.890625"
    xmlns="http://www.w3.org/2000/svg"
>
    <path
        fill="inherit"
        d="M13.9437 27.8864C21.6437 27.8864 27.8937 21.6464 27.8937 13.9464C27.8937 6.2464 21.6437 -0.0036 13.9437 -0.0036C6.2437 -0.0036 0.0037 6.2464 0.0037 13.9464C0.0037 21.6464 6.2437 27.8864 13.9437 27.8864ZM4.3337 7.5064C6.3437 4.3864 9.8837 2.3264 13.9137 2.3264C17.9537 2.3264 21.4937 4.3864 23.5137 7.4964C24.0737 8.2764 23.8037 9.1464 22.8837 9.1464H4.9637C4.0637 9.1464 3.7737 8.2764 4.3337 7.5064ZM34.0037 17.0464C34.6737 17.0464 35.1537 16.5864 35.1737 15.8864L35.4637 6.2064C35.4937 5.3364 34.9037 4.7464 34.0037 4.7464C33.1037 4.7464 32.5237 5.3364 32.5537 6.2064L32.8437 15.8864C32.8637 16.5864 33.3337 17.0464 34.0037 17.0464ZM13.9337 17.6664C12.2337 17.6664 10.8937 16.3064 10.8937 14.6164C10.8937 12.9464 12.2337 11.5964 13.9337 11.5964C15.6137 11.5964 16.9637 12.9464 16.9637 14.6164C16.9637 16.3064 15.6137 17.6664 13.9337 17.6664ZM2.7337 16.9964C2.4837 16.1464 2.9637 15.7664 3.6737 15.8564C7.5837 16.3064 10.6237 19.7464 10.5037 23.7664C10.4837 24.4564 9.9637 24.9264 9.2237 24.5664C6.0037 23.1164 3.6237 20.3564 2.7337 16.9964ZM25.1337 16.9964C24.2437 20.3564 21.8737 23.1164 18.6337 24.5664C17.9137 24.9264 17.3737 24.4564 17.3637 23.7664C17.2437 19.7564 20.2637 16.3064 24.1837 15.8564C24.8937 15.7664 25.3737 16.1464 25.1337 16.9964ZM34.0037 23.1164C34.9837 23.1164 35.7937 22.3264 35.7937 21.3964C35.7937 20.4564 35.0037 19.6764 34.0037 19.6764C33.0137 19.6764 32.2137 20.4564 32.2137 21.3964C32.2137 22.3264 33.0337 23.1164 34.0037 23.1164Z"
        fillRule="evenodd"
        clipRule="evenodd"
    />
</svg>
        