
<svg
    viewBox={0 0 28.73828125 33.728515625}
    xmlns="http://www.w3.org/2000/svg"
>
    <path
        fill="inherit"
        d="M14.3537 26.7822C21.7537 26.7822 27.7537 20.7922 27.7537 13.4022C27.7537 6.0022 21.7537 0.0022 14.3537 0.0022C6.9737 0.0022 0.9737 6.0022 0.9737 13.4022C0.9737 20.7922 6.9737 26.7822 14.3537 26.7822ZM5.1037 7.2322C7.0237 4.2122 10.4437 2.2122 14.3237 2.2122C18.2237 2.2122 21.6437 4.2122 23.5837 7.2222C24.1037 7.9522 23.8537 8.7922 22.9737 8.7922H5.7037C4.8437 8.7922 4.5637 7.9522 5.1037 7.2322ZM14.3437 16.9822C12.7237 16.9822 11.4337 15.6822 11.4337 14.0522C11.4337 12.4422 12.7237 11.1522 14.3437 11.1522C15.9537 11.1522 17.2537 12.4422 17.2537 14.0522C17.2537 15.6822 15.9537 16.9822 14.3437 16.9822ZM3.5637 16.3222C3.3537 15.5222 3.8037 15.1522 4.4737 15.2422C8.2437 15.6722 11.1837 18.9722 11.0437 22.8422C11.0337 23.5122 10.5237 23.9522 9.8337 23.6122C6.7137 22.2322 4.4337 19.5622 3.5637 16.3222ZM25.1137 16.3222C24.2637 19.5622 21.9737 22.2322 18.8637 23.6122C18.1537 23.9522 17.6537 23.5122 17.6537 22.8422C17.5137 18.9722 20.4237 15.6722 24.2137 15.2422C24.8937 15.1522 25.3437 15.5222 25.1137 16.3222ZM14.3737 33.7322C18.0837 33.7322 18.6937 30.9522 20.8637 30.9522C23.0737 30.9522 23.4337 33.7322 27.7037 33.7322H27.7637C28.3037 33.7322 28.7337 33.3022 28.7337 32.7722C28.7337 32.2422 28.3037 31.8022 27.7637 31.8022H27.7037C26.2237 31.8022 25.4037 31.2022 24.3737 30.4622C23.4837 29.8222 22.3837 29.0222 20.8637 29.0222C19.2937 29.0222 18.1737 29.8722 17.2837 30.5322C16.3337 31.2522 15.5837 31.8022 14.3737 31.8022C13.1437 31.8022 12.4037 31.2522 11.4537 30.5322C10.5637 29.8722 9.4437 29.0222 7.8737 29.0222C6.3537 29.0222 5.2537 29.8222 4.3637 30.4622C3.3337 31.2022 2.5037 31.8022 1.0437 31.8022H0.9737C0.4237 31.8022 0.0037 32.2422 0.0037 32.7722C0.0037 33.3022 0.4237 33.7322 0.9737 33.7322H1.0437C5.2937 33.7322 5.6637 30.9522 7.8737 30.9522C10.0537 30.9522 10.6337 33.7322 14.3737 33.7322Z"
        fillRule="evenodd"
        clipRule="evenodd"
    />
</svg>
        