
<svg
    viewBox="0 0 40.062077427326685 27.890625"
    xmlns="http://www.w3.org/2000/svg"
>
    <path
        fill="inherit"
        d="M26.119 27.8864C33.819 27.8864 40.059 21.6464 40.059 13.9464C40.059 6.2464 33.819 -0.0036 26.119 -0.0036C18.409 -0.0036 12.169 6.2464 12.169 13.9464C12.169 21.6464 18.409 27.8864 26.119 27.8864ZM16.489 7.5064C18.499 4.3864 22.039 2.3264 26.089 2.3264C30.119 2.3264 33.659 4.3864 35.689 7.4964C36.239 8.2764 35.979 9.1464 35.049 9.1464H17.139C16.219 9.1464 15.949 8.2764 16.489 7.5064ZM0.399 13.2864C-0.121 13.5864 -0.151 14.3164 0.399 14.6264L7.429 18.7764C7.999 19.1164 8.669 18.8364 8.669 18.2564V9.6364C8.669 9.0664 7.959 8.8064 7.429 9.1164ZM26.089 17.6664C24.409 17.6664 23.059 16.3064 23.059 14.6164C23.059 12.9464 24.409 11.5964 26.089 11.5964C27.769 11.5964 29.129 12.9464 29.129 14.6164C29.129 16.3064 27.769 17.6664 26.089 17.6664ZM14.889 16.9964C14.659 16.1464 15.129 15.7664 15.839 15.8564C19.759 16.3064 22.799 19.7464 22.659 23.7664C22.659 24.4564 22.129 24.9264 21.389 24.5664C18.159 23.1164 15.779 20.3564 14.889 16.9964ZM37.299 16.9964C36.409 20.3564 34.029 23.1164 30.809 24.5664C30.069 24.9264 29.539 24.4564 29.539 23.7664C29.399 19.7564 32.419 16.3064 36.359 15.8564C37.069 15.7664 37.529 16.1464 37.299 16.9964Z"
        fillRule="evenodd"
        clipRule="evenodd"
    />
</svg>
        