
<svg
    viewBox={0 0 30.529296875 29.17578125}
    xmlns="http://www.w3.org/2000/svg"
>
    <path
        fill="inherit"
        d="M1.0937 29.179H29.4237C30.0237 29.179 30.5337 28.669 30.5337 28.069C30.5337 27.469 30.0237 26.979 29.4237 26.979H28.7137V25.979C28.7137 25.429 28.3937 25.099 27.8337 25.099H26.9637V9.379H28.1637C28.9137 9.379 29.3537 8.829 29.3537 8.269C29.3537 7.859 29.1237 7.509 28.6137 7.219L16.9437 0.479C16.3937 0.169 15.8137 -0.001 15.2537 -0.001C14.6937 -0.001 14.1137 0.169 13.5937 0.479L1.9137 7.219C1.3937 7.509 1.1737 7.859 1.1737 8.269C1.1737 8.829 1.6137 9.379 2.3637 9.379H3.5637V25.099H2.7037C2.1437 25.099 1.8137 25.429 1.8137 25.979V26.979H1.0937C0.4937 26.979 0.0037 27.469 0.0037 28.069C0.0037 28.669 0.4937 29.179 1.0937 29.179ZM10.7737 21.849C10.3537 21.849 10.0537 21.549 10.0537 21.119C10.0537 20.699 10.3037 20.449 10.7037 20.319C11.9537 19.849 12.6437 18.849 12.6437 17.509C12.6437 17.089 12.5737 16.639 12.4537 16.169H10.6537C10.2937 16.169 10.0337 15.929 10.0337 15.599C10.0337 15.289 10.2937 15.039 10.6537 15.039H12.1537C11.9537 14.369 11.8637 13.849 11.8637 13.299C11.8637 10.799 13.7037 9.309 16.4037 9.309C17.3937 9.309 17.9337 9.379 18.7037 9.679C19.0337 9.799 19.3137 10.019 19.3137 10.409C19.3137 10.789 19.0737 11.009 18.6737 11.009C18.5137 11.009 18.2637 10.969 18.0237 10.909C17.6537 10.819 17.2137 10.729 16.5837 10.729C14.8037 10.729 13.5737 11.649 13.5737 13.259C13.5737 13.779 13.6137 14.209 13.8237 15.039H17.7337C18.0837 15.039 18.3637 15.269 18.3637 15.599C18.3637 15.929 18.0837 16.169 17.7337 16.169H14.1537C14.2337 16.539 14.2737 16.969 14.2737 17.449C14.2737 18.689 13.7537 19.959 12.6337 20.399V20.449H19.1437C19.5637 20.449 19.9037 20.749 19.9037 21.149C19.9037 21.549 19.5637 21.849 19.1437 21.849Z"
        fillRule="evenodd"
        clipRule="evenodd"
    />
</svg>
        