
<svg
    viewBox="0 0 27.890625 27.890625"
    xmlns="http://www.w3.org/2000/svg"
>
    <path
        fill="inherit"
        d="M13.9427 27.8864C21.6427 27.8864 27.8927 21.6464 27.8927 13.9464C27.8927 6.2464 21.6427 -0.0036 13.9427 -0.0036C6.2527 -0.0036 0.0027 6.2464 0.0027 13.9464C0.0027 21.6464 6.2527 27.8864 13.9427 27.8864ZM13.9427 25.5664C7.5227 25.5664 2.3227 20.3664 2.3227 13.9464C2.3227 7.5164 7.5227 2.3264 13.9427 2.3264C20.3727 2.3264 25.5627 7.5164 25.5627 13.9464C25.5627 20.3664 20.3727 25.5664 13.9427 25.5664ZM9.5527 19.9864H17.6827C18.0927 19.9864 18.4127 19.7164 18.4127 19.3164C18.4127 18.9364 18.0927 18.6364 17.6827 18.6364H11.3627V18.5764C12.4427 18.1664 12.9427 16.9264 12.9427 15.7364C12.9427 15.2564 12.9027 14.8464 12.8227 14.4964H16.3127C16.6527 14.4964 16.9127 14.2464 16.9127 13.9364C16.9127 13.6264 16.6527 13.3864 16.3127 13.3864H12.5127C12.3227 12.5964 12.2727 12.1664 12.2727 11.6764C12.2727 10.1064 13.4627 9.2164 15.1927 9.2164C15.8027 9.2164 16.2327 9.2864 16.5827 9.3764C16.8327 9.4364 17.0627 9.4864 17.2227 9.4864C17.6127 9.4864 17.8427 9.2864 17.8427 8.8964C17.8427 8.5264 17.5727 8.3164 17.2427 8.1864C16.5027 7.9064 15.9727 7.8464 15.0227 7.8464C12.4027 7.8464 10.6327 9.2864 10.6327 11.7164C10.6327 12.2364 10.7027 12.7464 10.8927 13.3864H9.4427C9.1027 13.3864 8.8427 13.6264 8.8427 13.9364C8.8427 14.2464 9.1027 14.4964 9.4427 14.4964H11.1927C11.3027 14.9564 11.3927 15.3764 11.3927 15.7864C11.3927 17.0864 10.7027 18.0564 9.4927 18.5164C9.1027 18.6464 8.8627 18.8764 8.8627 19.2864C8.8627 19.6964 9.1427 19.9864 9.5527 19.9864Z"
        fillRule="evenodd"
        clipRule="evenodd"
    />
</svg>
        