
<svg
    viewBox="0 0 32.935546875 27.26189615322232"
    xmlns="http://www.w3.org/2000/svg"
>
    <path
        fill="inherit"
        d="M32.9327 16.3992C32.9327 7.7792 26.3227 0.7192 17.8927 -0.0008C17.4627 -0.0408 17.1327 0.2792 17.1327 0.7192V5.1892C17.1327 5.5592 17.3927 5.8392 17.7627 5.8692C22.9927 6.5092 27.0727 10.9792 27.0727 16.3992C27.0727 18.8592 26.2227 21.1292 24.7327 23.0292C24.5427 23.2592 24.5527 23.5592 24.7627 23.7792L28.0227 27.0292C28.3327 27.3292 28.7927 27.3292 29.0627 27.0092C31.4827 24.1392 32.9327 20.4292 32.9327 16.3992ZM0.0027 16.3992C0.0027 20.4392 1.4527 24.1492 3.8727 27.0192C4.1427 27.3492 4.5927 27.3292 4.9127 27.0292L8.1727 23.7792C8.3827 23.5592 8.3927 23.2592 8.2027 23.0292C6.7027 21.1292 5.8627 18.8592 5.8627 16.3992C5.8627 10.9792 9.9427 6.5092 15.1727 5.8692C15.5427 5.8392 15.8027 5.5592 15.8027 5.1892V0.7192C15.8027 0.2792 15.4727 -0.0408 15.0427 -0.0008C6.6127 0.7192 0.0027 7.7792 0.0027 16.3992ZM12.0727 22.6292H20.2027C20.6127 22.6292 20.9327 22.3392 20.9327 21.9492C20.9327 21.5592 20.6127 21.2592 20.2027 21.2592H13.8727V21.2192C14.9527 20.7992 15.4627 19.5592 15.4627 18.3692C15.4627 17.8992 15.4327 17.4892 15.3427 17.1392H18.8427C19.1827 17.1392 19.4427 16.8892 19.4427 16.5692C19.4427 16.2592 19.1727 16.0092 18.8427 16.0092H15.0427C14.8427 15.2192 14.7927 14.7992 14.7927 14.3092C14.7927 12.7292 15.9827 11.8392 17.7027 11.8392C18.3227 11.8392 18.7427 11.9292 19.1027 12.0092C19.3427 12.0792 19.5827 12.1192 19.7527 12.1192C20.1427 12.1192 20.3527 11.9092 20.3527 11.5292C20.3527 11.1692 20.0927 10.9592 19.7727 10.8192C19.0127 10.5492 18.4827 10.4792 17.5427 10.4792C14.9127 10.4792 13.1527 11.9292 13.1527 14.3492C13.1527 14.8692 13.2227 15.3892 13.4127 16.0092H11.9627C11.6227 16.0092 11.3627 16.2592 11.3627 16.5692C11.3627 16.8892 11.6227 17.1392 11.9627 17.1392H13.7127C13.8327 17.5892 13.9027 18.0192 13.9027 18.4192C13.9027 19.7292 13.2327 20.6892 12.0027 21.1392C11.6227 21.2792 11.3727 21.5192 11.3727 21.9192C11.3727 22.3292 11.6627 22.6292 12.0727 22.6292Z"
        fillRule="evenodd"
        clipRule="evenodd"
    />
</svg>
        