
<svg
    viewBox={0 0 27.890625 27.890625}
    xmlns="http://www.w3.org/2000/svg"
>
    <path
        fill="inherit"
        d="M13.9427 27.8864C21.6427 27.8864 27.8927 21.6464 27.8927 13.9464C27.8927 6.2664 21.6427 -0.0036 13.9427 -0.0036C6.2627 -0.0036 0.0027 6.2664 0.0027 13.9464C0.0027 21.6464 6.2627 27.8864 13.9427 27.8864ZM9.4427 20.1764C9.0227 20.1764 8.7227 19.8764 8.7227 19.4564C8.7227 19.0464 8.9827 18.7964 9.3827 18.6464C10.6227 18.1864 11.3327 17.1964 11.3327 15.8464C11.3327 15.4364 11.2527 14.9864 11.1327 14.5064H9.3227C8.9727 14.5064 8.7127 14.2764 8.7127 13.9464C8.7127 13.6164 8.9727 13.3664 9.3227 13.3664H10.8327C10.6227 12.6964 10.5527 12.1864 10.5527 11.6464C10.5527 9.1464 12.3727 7.6564 15.0827 7.6564C16.0627 7.6564 16.6127 7.7264 17.3727 8.0164C17.7027 8.1364 17.9927 8.3664 17.9927 8.7364C17.9927 9.1364 17.7427 9.3564 17.3527 9.3564C17.1827 9.3564 16.9427 9.2964 16.6927 9.2464C16.3227 9.1564 15.8827 9.0664 15.2627 9.0664C13.4827 9.0664 12.2527 9.9764 12.2527 11.6064C12.2527 12.1164 12.2927 12.5464 12.4927 13.3664H16.4027C16.7627 13.3664 17.0327 13.6164 17.0327 13.9464C17.0327 14.2764 16.7627 14.5064 16.4027 14.5064H12.8227C12.9027 14.8764 12.9427 15.3164 12.9427 15.7864C12.9427 17.0264 12.4327 18.2964 11.3027 18.7464V18.7864H17.8127C18.2427 18.7864 18.5827 19.0864 18.5827 19.4864C18.5827 19.8964 18.2427 20.1764 17.8127 20.1764Z"
        fillRule="evenodd"
        clipRule="evenodd"
    />
</svg>
        