<svg viewBox="0 0 32.935546875 27.33018496744969" xmlns="http://www.w3.org/2000/svg"><path d="M16.4627 5.864C18.9327 5.864 21.2027 6.724 23.0227 8.134C23.2927 8.354 23.6527 8.324 23.9127 8.064L27.0827 4.894C27.4027 4.584 27.3827 4.124 27.0527 3.854C24.2027 1.454 20.4927 0.004 16.4627 0.004C12.4427 0.004 8.7327 1.454 5.8827 3.854C5.5527 4.124 5.5327 4.584 5.8527 4.894L9.0227 8.064C9.2827 8.324 9.6527 8.354 9.9527 8.124C11.7627 6.724 14.0127 5.864 16.4627 5.864ZM0.0027 16.464C0.0027 20.494 1.4527 24.204 3.8727 27.074C4.1427 27.414 4.6027 27.414 4.9127 27.094L8.1627 23.844C8.3627 23.624 8.3927 23.324 8.2027 23.094C6.7127 21.194 5.8627 18.924 5.8627 16.464C5.8627 14.014 6.7027 11.744 8.1227 9.944C8.3427 9.654 8.3427 9.284 8.0827 9.024L4.9127 5.854C4.5927 5.534 4.1427 5.534 3.8727 5.864C1.4527 8.734 0.0027 12.444 0.0027 16.464ZM32.9327 16.464C32.9327 12.444 31.4827 8.734 29.0627 5.864C28.7927 5.534 28.3327 5.534 28.0227 5.854L24.8527 9.024C24.5927 9.284 24.5827 9.654 24.8127 9.944C26.2227 11.744 27.0727 14.014 27.0727 16.464C27.0727 18.924 26.2227 21.194 24.7327 23.094C24.5427 23.324 24.5527 23.624 24.7627 23.844L28.0127 27.094C28.3327 27.414 28.7827 27.414 29.0627 27.074C31.4827 24.204 32.9327 20.494 32.9327 16.464ZM12.0727 22.694H20.2027C20.6127 22.694 20.9327 22.404 20.9327 22.014C20.9327 21.624 20.6127 21.324 20.2027 21.324H13.8727V21.284C14.9527 20.864 15.4627 19.624 15.4627 18.434C15.4627 17.964 15.4327 17.554 15.3427 17.204H18.8427C19.1827 17.204 19.4427 16.954 19.4427 16.634C19.4427 16.324 19.1727 16.074 18.8427 16.074H15.0427C14.8427 15.284 14.7927 14.864 14.7927 14.374C14.7927 12.794 15.9827 11.904 17.7027 11.904C18.3227 11.904 18.7427 11.994 19.1027 12.074C19.3427 12.144 19.5827 12.184 19.7527 12.184C20.1427 12.184 20.3527 11.974 20.3527 11.594C20.3527 11.234 20.0927 11.024 19.7727 10.884C19.0127 10.614 18.4827 10.544 17.5427 10.544C14.9127 10.544 13.1527 11.994 13.1527 14.414C13.1527 14.934 13.2227 15.454 13.4127 16.074H11.9627C11.6227 16.074 11.3627 16.324 11.3627 16.634C11.3627 16.954 11.6227 17.204 11.9627 17.204H13.7127C13.8327 17.654 13.9027 18.084 13.9027 18.484C13.9027 19.794 13.2327 20.754 12.0027 21.204C11.6227 21.344 11.3727 21.584 11.3727 21.984C11.3727 22.394 11.6627 22.694 12.0727 22.694Z" /></svg>