
<svg
    viewBox={0 0 18.9765625 24.28125}
    xmlns="http://www.w3.org/2000/svg"
>
    <path
        fill="inherit"
        d="M1.4753 24.2827H17.7353C18.4253 24.2827 18.9753 23.8427 18.9753 23.1427C18.9753 22.4127 18.3853 21.9727 17.7353 21.9727H4.4753V21.8927C6.7153 21.1227 7.8753 18.5827 7.8753 16.0327C7.8753 14.9527 7.7253 14.0727 7.5153 13.2527H14.7953C15.4053 13.2527 15.8853 12.8427 15.8853 12.2227C15.8853 11.6027 15.4053 11.2127 14.7953 11.2127H6.9553C6.6753 10.1727 6.4153 8.9927 6.4153 7.5427C6.4153 4.1927 8.9653 2.3827 12.4853 2.3827C13.6153 2.3827 14.8353 2.5427 15.7453 2.8427C16.1053 2.9427 16.3953 2.9927 16.6553 2.9927C17.3253 2.9927 17.7153 2.6127 17.7153 1.9527C17.7153 1.2827 17.2553 0.9427 16.6353 0.6727C15.2153 0.1127 13.7353 0.0027 12.2653 0.0027C7.3253 0.0027 3.6353 2.6627 3.6353 7.7227C3.6353 8.8327 3.8553 9.9027 4.1953 11.2127H1.1853C0.5753 11.2127 0.0953 11.6027 0.0953 12.2227C0.0953 12.8627 0.6053 13.2527 1.1853 13.2527H4.7153C5.0753 14.4627 5.1953 15.3227 5.1953 16.1427C5.1953 18.7127 3.7753 20.9627 1.1253 21.7227C0.4553 21.9427 -0.0047 22.3427 -0.0047 23.1027C-0.0047 23.8327 0.5753 24.2827 1.4753 24.2827Z"
        fillRule="evenodd"
        clipRule="evenodd"
    />
</svg>
        