
<svg
    viewBox={0 0 30.529296875 29.17578125}
    xmlns="http://www.w3.org/2000/svg"
>
    <path
        fill="inherit"
        d="M1.8137 25.919H28.7137V25.009C28.7137 24.459 28.3937 24.129 27.8337 24.129H26.9637V9.379H28.1637C28.9137 9.379 29.3537 8.829 29.3537 8.269C29.3537 7.859 29.1237 7.509 28.6137 7.219L16.9437 0.479C16.3937 0.169 15.8137 -0.001 15.2537 -0.001C14.6937 -0.001 14.1137 0.169 13.5937 0.479L1.9137 7.219C1.3937 7.509 1.1737 7.859 1.1737 8.269C1.1737 8.829 1.6137 9.379 2.3637 9.379H3.5637V24.129H2.7037C2.1437 24.129 1.8137 24.459 1.8137 25.009ZM5.6337 24.129V7.629L14.7237 2.529C14.8937 2.429 15.0837 2.379 15.2537 2.379C15.4337 2.379 15.6237 2.429 15.8037 2.529L24.8937 7.629V24.129ZM10.8937 20.439H19.0137C19.4237 20.439 19.7537 20.149 19.7537 19.759C19.7537 19.369 19.4237 19.069 19.0137 19.069H12.7037V19.029C13.7837 18.609 14.2837 17.359 14.2837 16.169C14.2837 15.709 14.2437 15.299 14.1637 14.939H17.6537C17.9937 14.939 18.2537 14.699 18.2537 14.379C18.2537 14.069 17.9937 13.819 17.6537 13.819H13.8537C13.6537 13.029 13.6137 12.609 13.6137 12.109C13.6137 10.539 14.8037 9.649 16.5337 9.649C17.1437 9.649 17.5637 9.739 17.9237 9.819C18.1737 9.869 18.4037 9.929 18.5637 9.929C18.9537 9.929 19.1837 9.719 19.1837 9.339C19.1837 8.979 18.9037 8.759 18.5837 8.629C17.8437 8.349 17.3037 8.289 16.3637 8.289C13.7437 8.289 11.9637 9.739 11.9637 12.159C11.9637 12.669 12.0437 13.179 12.2337 13.819H10.7837C10.4437 13.819 10.1837 14.069 10.1837 14.379C10.1837 14.699 10.4437 14.939 10.7837 14.939H12.5337C12.6437 15.399 12.7137 15.829 12.7137 16.229C12.7137 17.539 12.0437 18.499 10.8237 18.949C10.4437 19.089 10.2037 19.329 10.2037 19.729C10.2037 20.139 10.4837 20.439 10.8937 20.439ZM1.0937 29.179H29.4237C30.0237 29.179 30.5337 28.669 30.5337 28.069C30.5337 27.469 30.0237 26.979 29.4237 26.979H1.0937C0.4937 26.979 0.0037 27.469 0.0037 28.069C0.0037 28.669 0.4937 29.179 1.0937 29.179Z"
        fillRule="evenodd"
        clipRule="evenodd"
    />
</svg>
        