
<svg
    viewBox={0 0 30.544813437289534 27.890625}
    xmlns="http://www.w3.org/2000/svg"
>
    <path
        fill="inherit"
        d="M0.9769 11.3064C-0.0131 11.3064 -0.2531 11.9764 0.2769 12.7464L3.3369 17.0864C3.7869 17.7164 4.4469 17.7064 4.8869 17.0864L7.9269 12.7264C8.4669 11.9764 8.2069 11.3064 7.2469 11.3064H5.2769C6.4669 6.1564 11.0769 2.3264 16.5969 2.3264C23.0269 2.3264 28.2169 7.5164 28.2169 13.9464C28.2169 20.3664 23.0269 25.5664 16.5969 25.5664C12.7169 25.5664 9.2569 23.6564 7.1969 20.7564C6.7669 20.1964 6.1269 20.0164 5.5569 20.3564C5.0069 20.6964 4.8369 21.4664 5.3069 22.0664C7.8369 25.6064 11.9769 27.8864 16.5969 27.8864C24.2969 27.8864 30.5469 21.6464 30.5469 13.9464C30.5469 6.2464 24.2969 -0.0036 16.5969 -0.0036C9.8069 -0.0036 4.1269 4.8664 2.8969 11.3064ZM12.2269 19.9864H20.3469C20.7569 19.9864 21.0869 19.7164 21.0869 19.3164C21.0869 18.9364 20.7569 18.6364 20.3469 18.6364H14.0269V18.5764C15.1069 18.1664 15.6169 16.9264 15.6169 15.7364C15.6169 15.2564 15.5769 14.8464 15.4969 14.4964H18.9769C19.3169 14.4964 19.5769 14.2464 19.5769 13.9364C19.5769 13.6264 19.3169 13.3864 18.9769 13.3864H15.1769C14.9869 12.5964 14.9469 12.1664 14.9469 11.6764C14.9469 10.1064 16.1369 9.2164 17.8569 9.2164C18.4769 9.2164 18.8969 9.2864 19.2469 9.3764C19.4969 9.4364 19.7269 9.4864 19.8969 9.4864C20.2769 9.4864 20.5069 9.2864 20.5069 8.8964C20.5069 8.5264 20.2369 8.3164 19.9069 8.1864C19.1669 7.9064 18.6369 7.8464 17.6969 7.8464C15.0669 7.8464 13.3069 9.2864 13.3069 11.7164C13.3069 12.2364 13.3769 12.7464 13.5669 13.3864H12.1169C11.7769 13.3864 11.5169 13.6264 11.5169 13.9364C11.5169 14.2464 11.7769 14.4964 12.1169 14.4964H13.8669C13.9769 14.9564 14.0569 15.3764 14.0569 15.7864C14.0569 17.0864 13.3769 18.0564 12.1569 18.5164C11.7769 18.6464 11.5269 18.8764 11.5269 19.2864C11.5269 19.6964 11.8169 19.9864 12.2269 19.9864Z"
        fillRule="evenodd"
        clipRule="evenodd"
    />
</svg>
        