
<svg
    viewBox={0 0 27.890625 27.890625}
    xmlns="http://www.w3.org/2000/svg"
>
    <path
        fill="inherit"
        d="M13.9427 27.8927C21.6427 27.8927 27.8927 21.6427 27.8927 13.9427C27.8927 6.2627 21.6427 0.0027 13.9427 0.0027C6.2627 0.0027 0.0027 6.2627 0.0027 13.9427C0.0027 21.6427 6.2627 27.8927 13.9427 27.8927ZM4.8227 9.7227C4.8227 8.1327 5.6627 7.2727 7.1927 7.2727H7.2627C7.4827 6.9827 7.8327 6.7927 8.2327 6.7927C8.9027 6.7927 9.4627 7.3527 9.4627 8.0427C9.4627 8.7127 8.9027 9.2827 8.2327 9.2827C7.8327 9.2827 7.4927 9.1027 7.2727 8.8327H7.1327C6.6127 8.8327 6.3827 9.0927 6.3827 9.7227C6.3827 12.0427 8.4527 15.1927 9.9927 15.1927C11.5227 15.1927 13.6027 12.0427 13.6027 9.7227C13.6027 9.1027 13.3527 8.8327 12.8427 8.8327H12.6827C12.4727 9.1027 12.1227 9.2827 11.7627 9.2827C11.0627 9.2827 10.5127 8.7127 10.5127 8.0427C10.5127 7.3527 11.0627 6.7927 11.7627 6.7927C12.1427 6.7927 12.4927 6.9827 12.7127 7.2727H12.7827C14.3427 7.2727 15.1627 8.1327 15.1627 9.7227C15.1627 12.6027 12.8827 16.0827 10.7627 16.6527C10.8527 18.8927 11.5827 20.1227 12.7527 20.1227C14.1127 20.1227 14.6827 19.0027 15.1627 16.3127C15.7227 13.3327 16.6627 12.1027 18.4427 12.1027C20.2027 12.1027 21.1527 13.4427 21.4527 16.2127C22.4127 16.5027 23.1227 17.4027 23.1227 18.4427C23.1227 19.7427 22.0627 20.7927 20.7527 20.7927C19.4427 20.7927 18.4127 19.7527 18.4127 18.4427C18.4127 17.4427 19.0427 16.5927 19.9227 16.2727C19.7727 14.4527 19.2727 13.6427 18.4427 13.6427C17.5727 13.6427 17.0727 14.4527 16.6927 16.6227C16.1027 20.1127 14.9127 21.6827 12.8127 21.6827C10.6227 21.6827 9.3527 19.8527 9.2127 16.6527C7.0927 16.0627 4.8227 12.5827 4.8227 9.7227ZM19.8227 18.4427C19.8227 18.9627 20.2327 19.4027 20.7527 19.4027C21.2727 19.4027 21.7127 18.9627 21.7127 18.4427C21.7127 17.9227 21.2827 17.5027 20.7527 17.5027C20.2327 17.5027 19.8227 17.9227 19.8227 18.4427Z"
        fillRule="evenodd"
        clipRule="evenodd"
    />
</svg>
        