
<svg
    viewBox={0 0 27.890625 27.890625}
    xmlns="http://www.w3.org/2000/svg"
>
    <path
        fill="inherit"
        d="M13.9427 27.8864C21.6427 27.8864 27.8927 21.6464 27.8927 13.9464C27.8927 6.2464 21.6427 -0.0036 13.9427 -0.0036C6.2527 -0.0036 0.0027 6.2464 0.0027 13.9464C0.0027 21.6464 6.2527 27.8864 13.9427 27.8864ZM13.9427 25.5664C7.5227 25.5664 2.3227 20.3664 2.3227 13.9464C2.3227 7.5164 7.5227 2.3264 13.9427 2.3264C20.3727 2.3264 25.5627 7.5164 25.5627 13.9464C25.5627 20.3664 20.3727 25.5664 13.9427 25.5664ZM10.3227 18.9264H17.5427C18.4027 18.9264 18.9127 18.4164 18.9127 17.5864V10.3064C18.9127 9.4564 18.4027 8.9664 17.5427 8.9664H10.3227C9.4727 8.9664 8.9527 9.4564 8.9527 10.3064V17.5864C8.9527 18.4164 9.4727 18.9264 10.3227 18.9264Z"
        fillRule="evenodd"
        clipRule="evenodd"
    />
</svg>
        