
<svg
    viewBox="0 0 27.890625 30.65234375"
    xmlns="http://www.w3.org/2000/svg"
>
    <path
        fill="inherit"
        d="M13.9427 30.6481C21.5727 30.6481 27.8927 24.3181 27.8927 16.7081C27.8927 13.5181 26.7827 10.5681 24.9327 8.1981L26.0027 7.1181C26.3227 6.8081 26.4927 6.3881 26.4927 6.0181C26.4927 5.2481 25.8827 4.6381 25.0927 4.6381C24.6227 4.6381 24.2927 4.7681 23.9627 5.0881L22.9327 6.0981C20.8527 4.3181 18.2427 3.1481 15.3927 2.8481V1.5081C15.3927 0.6881 14.7527 -0.0019 13.9327 -0.0019C13.1427 -0.0019 12.4727 0.6881 12.4727 1.5081V2.8481C5.5127 3.5781 0.0027 9.5881 0.0027 16.7081C0.0027 24.3181 6.3327 30.6481 13.9427 30.6481ZM13.9427 18.9181C12.7127 18.9181 11.7427 17.9381 11.7427 16.7181C11.7427 15.8581 12.2327 15.1181 12.9927 14.7281V7.9481C12.9927 7.4081 13.4027 6.9981 13.9327 6.9981C14.4627 6.9981 14.8927 7.4081 14.8927 7.9481V14.7381C15.6527 15.1081 16.1427 15.8581 16.1427 16.7181C16.1427 17.9381 15.1627 18.9181 13.9427 18.9181Z"
        fillRule="evenodd"
        clipRule="evenodd"
    />
</svg>
        