
<svg
    viewBox="0 0 31.41796875 29.96875"
    xmlns="http://www.w3.org/2000/svg"
>
    <path
        fill="inherit"
        d="M5.4237 29.9655H25.9937C27.9337 29.9655 29.0637 28.8655 29.0637 26.9455V15.8755C30.4737 15.0655 31.4137 13.5655 31.4137 11.8155V11.5755C31.4137 11.0455 31.2837 10.5655 31.0037 10.1055L27.3837 3.9055V2.7755C27.3837 1.0355 26.3137 -0.0045 24.5537 -0.0045H6.8737C5.1137 -0.0045 4.0337 1.0355 4.0337 2.7755V3.9055L0.4137 10.1055C0.1337 10.5655 0.0037 11.0455 0.0037 11.5755V11.8155C0.0037 13.5655 0.9437 15.0655 2.3537 15.8755V26.9455C2.3537 28.8655 3.4837 29.9655 5.4237 29.9655ZM6.0937 3.4855V3.1555C6.0937 2.4755 6.4937 2.0655 7.1637 2.0655H24.2537C24.9237 2.0655 25.3237 2.4755 25.3237 3.1555V3.4855ZM2.3637 10.7755L5.3337 5.5555H25.9737L29.0237 10.7755ZM2.0537 12.7055H7.3237C7.0237 13.8055 6.0937 14.5455 4.6937 14.5455C3.2837 14.5455 2.3537 13.8055 2.0537 12.7055ZM9.4037 12.7055H14.6737C14.3737 13.8055 13.4437 14.5455 12.0337 14.5455C10.6337 14.5455 9.6937 13.8055 9.4037 12.7055ZM16.7437 12.7055H22.0237C21.7237 13.8055 20.7937 14.5455 19.3837 14.5455C17.9737 14.5455 17.0537 13.8055 16.7437 12.7055ZM24.1037 12.7055H29.3637C29.0637 13.8055 28.1337 14.5455 26.7237 14.5455C25.3337 14.5455 24.3937 13.8055 24.1037 12.7055ZM4.6937 16.4755C6.2037 16.4755 7.5337 15.7755 8.3637 14.6655C9.1837 15.7755 10.5137 16.4755 12.0337 16.4755C13.5637 16.4755 14.8937 15.7755 15.7137 14.6655C16.5337 15.7755 17.8537 16.4755 19.3837 16.4755C20.9137 16.4755 22.2337 15.7755 23.0637 14.6655C23.8837 15.7755 25.2137 16.4755 26.7237 16.4755C26.7837 16.4755 26.8237 16.4755 26.8637 16.4755V26.3855C26.8637 27.2755 26.4037 27.7655 25.5237 27.7655H14.6137V20.0955C14.6137 19.4655 14.2037 19.0555 13.5737 19.0555H7.7837C7.1537 19.0555 6.7237 19.4655 6.7237 20.0955V27.7655H5.9037C5.0337 27.7655 4.5537 27.2755 4.5537 26.3855V16.4755C4.5937 16.4755 4.6437 16.4755 4.6937 16.4755ZM17.1837 19.3755V23.2255C17.1837 23.8755 17.5937 24.2655 18.2337 24.2655H23.7937C24.4137 24.2655 24.8137 23.8755 24.8137 23.2255V19.3755C24.8137 18.7255 24.4137 18.3355 23.7937 18.3355H18.2337C17.5937 18.3355 17.1837 18.7255 17.1837 19.3755Z"
        fillRule="evenodd"
        clipRule="evenodd"
    />
</svg>
        