
<svg
    viewBox={0 0 27.890625 27.890625}
    xmlns="http://www.w3.org/2000/svg"
>
    <path
        fill="inherit"
        d="M13.9427 27.8864C21.6427 27.8864 27.8927 21.6464 27.8927 13.9464C27.8927 6.2464 21.6427 -0.0036 13.9427 -0.0036C6.2527 -0.0036 0.0027 6.2464 0.0027 13.9464C0.0027 21.6464 6.2527 27.8864 13.9427 27.8864ZM13.9427 25.5664C7.5227 25.5664 2.3227 20.3664 2.3227 13.9464C2.3227 7.5164 7.5227 2.3264 13.9427 2.3264C20.3727 2.3264 25.5627 7.5164 25.5627 13.9464C25.5627 20.3664 20.3727 25.5664 13.9427 25.5664ZM6.2627 10.7564H21.4827L19.4927 7.1064C19.1927 6.5464 18.6327 6.2164 18.0027 6.2164H9.7527C9.1027 6.2164 8.5427 6.5464 8.2427 7.1064ZM8.4527 13.7364C9.2027 13.7364 9.8527 13.3964 10.2627 12.8364C10.6527 13.3964 11.3027 13.7364 12.0727 13.7364C12.8227 13.7364 13.4627 13.3964 13.8727 12.8364C14.2827 13.3964 14.9127 13.7364 15.6827 13.7364C16.4427 13.7364 17.0927 13.3964 17.4827 12.8364C17.8927 13.3964 18.5527 13.7364 19.3027 13.7364C20.5727 13.7364 21.6027 12.7464 21.6027 11.8364V11.7064H6.1527V11.9764C6.1527 12.8764 7.1827 13.7364 8.4527 13.7364ZM8.6127 21.6564H19.2227C20.2227 21.6564 20.7927 21.0964 20.7927 20.1064V14.3464C20.3827 14.5564 19.8827 14.7064 19.3427 14.7064C18.6527 14.7064 18.0327 14.4764 17.5427 14.0964C17.0327 14.4764 16.4027 14.7064 15.7227 14.7064C15.0427 14.7064 14.4127 14.4764 13.9227 14.0964C13.4227 14.4764 12.7927 14.7064 12.1127 14.7064C11.4127 14.7064 10.7827 14.4764 10.3127 14.0964C9.8027 14.4764 9.1827 14.7064 8.4927 14.7064C7.9527 14.7064 7.4627 14.5864 7.0227 14.3864V20.1064C7.0227 21.0964 7.6127 21.6564 8.6127 21.6564ZM11.2627 20.2764V16.5964C11.2627 16.2864 11.4827 16.0664 11.8127 16.0664H16.0527C16.3627 16.0664 16.5727 16.2864 16.5727 16.5964V20.2764Z"
        fillRule="evenodd"
        clipRule="evenodd"
    />
</svg>
        