
<svg
    viewBox="0 0 26.837890625 26.837890625"
    xmlns="http://www.w3.org/2000/svg"
>
    <path
        fill="inherit"
        d="M3.9137 26.8369C4.5637 26.8369 5.0037 26.3969 5.0037 25.7469V24.3769H21.8237V25.7469C21.8237 26.3969 22.2737 26.8369 22.9237 26.8369C23.5837 26.8369 24.0237 26.3969 24.0237 25.7469V24.3669C25.7337 24.1869 26.8337 22.9569 26.8337 21.1669V3.2169C26.8337 1.2869 25.5537 -0.0031 23.6137 -0.0031H3.2137C1.2837 -0.0031 0.0037 1.2869 0.0037 3.2169V21.1669C0.0037 22.9569 1.1037 24.1869 2.8037 24.3669V25.7469C2.8037 26.3969 3.2537 26.8369 3.9137 26.8369ZM2.2037 3.3069C2.2037 2.6569 2.6137 2.1969 3.2437 2.1969H23.5937C24.2137 2.1969 24.6337 2.6569 24.6337 3.3069V7.1869H2.2037ZM6.3137 6.0269C7.0537 6.0269 7.6737 5.4269 7.6737 4.6869C7.6737 3.9369 7.0537 3.3369 6.3137 3.3369C5.5637 3.3369 4.9537 3.9369 4.9537 4.6869C4.9537 5.4269 5.5637 6.0269 6.3137 6.0269ZM11.0437 6.0269C11.7837 6.0269 12.4037 5.4269 12.4037 4.6869C12.4037 3.9369 11.7837 3.3369 11.0437 3.3369C10.2937 3.3369 9.6837 3.9369 9.6837 4.6869C9.6837 5.4269 10.2937 6.0269 11.0437 6.0269ZM15.7737 6.0269C16.5137 6.0269 17.1337 5.4269 17.1337 4.6869C17.1337 3.9369 16.5137 3.3369 15.7737 3.3369C15.0237 3.3369 14.4137 3.9369 14.4137 4.6869C14.4137 5.4269 15.0237 6.0269 15.7737 6.0269ZM20.5037 6.0269C21.2637 6.0269 21.8737 5.4269 21.8737 4.6869C21.8737 3.9369 21.2637 3.3369 20.5037 3.3369C19.7737 3.3369 19.1537 3.9369 19.1537 4.6869C19.1537 5.4269 19.7737 6.0269 20.5037 6.0269ZM3.2437 22.1769C2.6137 22.1769 2.2037 21.7369 2.2037 21.0669V8.9869H24.6337V21.0669C24.6337 21.7369 24.2137 22.1769 23.5937 22.1769ZM5.3437 20.5669H21.4937C22.2737 20.5669 22.7737 20.0569 22.7737 19.2869V11.8769C22.7737 11.0969 22.2737 10.5969 21.4937 10.5969H5.3437C4.5637 10.5969 4.0737 11.0969 4.0737 11.8769V19.2869C4.0737 20.0569 4.5637 20.5669 5.3437 20.5669ZM5.9437 19.0469C5.7437 19.0469 5.5937 18.8969 5.5937 18.6869V12.4869C5.5937 12.2769 5.7437 12.1169 5.9437 12.1169H20.9037C21.0937 12.1169 21.2637 12.2769 21.2637 12.4869V18.6869C21.2637 18.8969 21.0937 19.0469 20.9037 19.0469Z"
        fillRule="evenodd"
        clipRule="evenodd"
    />
</svg>
        