
<svg
    viewBox="0 0 26.291015625 26.837890625"
    xmlns="http://www.w3.org/2000/svg"
>
    <path
        fill="inherit"
        d="M0.0037 7.1732H26.2937V2.8532C26.2937 1.1332 25.1837 0.0032 23.5337 0.0032H2.7437C1.1037 0.0032 0.0037 1.1332 0.0037 2.8532ZM5.6037 5.2932C4.8237 5.2932 4.1837 4.6732 4.1837 3.9132C4.1837 3.1332 4.8237 2.5132 5.6037 2.5132C6.3537 2.5132 7.0037 3.1332 7.0037 3.9132C7.0037 4.6732 6.3537 5.2932 5.6037 5.2932ZM10.6237 5.2932C9.8437 5.2932 9.2037 4.6732 9.2037 3.9132C9.2037 3.1332 9.8437 2.5132 10.6237 2.5132C11.3737 2.5132 12.0137 3.1332 12.0137 3.9132C12.0137 4.6732 11.3737 5.2932 10.6237 5.2932ZM15.6237 5.2932C14.8637 5.2932 14.2237 4.6732 14.2237 3.9132C14.2237 3.1332 14.8637 2.5132 15.6237 2.5132C16.3937 2.5132 17.0337 3.1332 17.0337 3.9132C17.0337 4.6732 16.3937 5.2932 15.6237 5.2932ZM20.6437 5.2932C19.8937 5.2932 19.2537 4.6732 19.2537 3.9132C19.2537 3.1332 19.8937 2.5132 20.6437 2.5132C21.4237 2.5132 22.0637 3.1332 22.0637 3.9132C22.0637 4.6732 21.4237 5.2932 20.6437 5.2932ZM2.7437 24.3732H2.8037V25.7432C2.8037 26.4032 3.2537 26.8332 3.9137 26.8332C4.5637 26.8332 5.0037 26.4032 5.0037 25.7432V24.3732H21.2737V25.7432C21.2737 26.4032 21.7237 26.8332 22.3837 26.8332C23.0337 26.8332 23.4737 26.4032 23.4737 25.7432V24.3732H23.5337C25.1837 24.3732 26.2937 23.2432 26.2937 21.5232V8.6932H0.0037V21.5232C0.0037 23.2432 1.1037 24.3732 2.7437 24.3732ZM4.8137 20.9832C4.0237 20.9832 3.5037 20.4632 3.5037 19.6732V12.4132C3.5037 11.6032 4.0237 11.0832 4.8137 11.0832H21.4737C22.2737 11.0832 22.8037 11.6032 22.8037 12.4132V19.6732C22.8037 20.4632 22.2737 20.9832 21.4737 20.9832ZM5.3737 19.4732H20.9337C21.1237 19.4732 21.2837 19.3032 21.2837 19.1032V12.9932C21.2837 12.7732 21.1237 12.6032 20.9337 12.6032H5.3737C5.1637 12.6032 5.0137 12.7732 5.0137 12.9932V19.1032C5.0137 19.3032 5.1637 19.4732 5.3737 19.4732Z"
        fillRule="evenodd"
        clipRule="evenodd"
    />
</svg>
        