
<svg
    viewBox={0 0 22.572265625 20.26171875}
    xmlns="http://www.w3.org/2000/svg"
>
    <path
        fill="inherit"
        d="M0.5637 10.502H8.4937C8.8337 10.612 9.2037 10.722 9.5937 10.802L12.1137 11.402C14.9537 12.082 16.1437 13.012 16.1437 14.652C16.1437 16.622 14.1337 18.062 11.2837 18.062C8.7537 18.062 6.8537 16.902 6.1537 14.962C5.9037 14.372 5.6037 14.112 5.0337 14.112C4.2937 14.112 3.8437 14.562 3.8437 15.272C3.8437 15.522 3.8837 15.782 3.9537 16.042C4.6737 18.622 7.5237 20.262 11.2837 20.262C15.8137 20.262 18.7337 17.922 18.7337 14.352C18.7337 12.642 18.1037 11.412 16.7237 10.502H22.0137C22.3237 10.502 22.5737 10.252 22.5737 9.942C22.5737 9.622 22.3237 9.382 22.0137 9.382H14.1637C13.7837 9.252 13.3737 9.142 12.9437 9.052L10.7237 8.522C7.9437 7.852 6.7637 7.002 6.7637 5.482C6.7637 3.572 8.6537 2.212 11.2637 2.212C13.6137 2.212 15.3037 3.282 15.9737 5.172C16.1837 5.692 16.5137 5.932 17.0637 5.932C17.7737 5.932 18.2137 5.522 18.2137 4.842C18.2137 4.632 18.1837 4.412 18.1337 4.212C17.5137 1.722 14.7837 0.002 11.2637 0.002C7.1537 0.002 4.1837 2.352 4.1837 5.662C4.1837 7.272 4.7837 8.472 6.0737 9.382H0.5637C0.2437 9.382 0.0037 9.622 0.0037 9.942C0.0037 10.252 0.2437 10.502 0.5637 10.502Z"
        fillRule="evenodd"
        clipRule="evenodd"
    />
</svg>
        