
<svg
    viewBox="0 0 29.435546875 29.6953125"
    xmlns="http://www.w3.org/2000/svg"
>
    <path
        fill="inherit"
        d="M15.6137 9.1777H28.1337C27.6337 4.7877 23.8437 -0.0023 17.3737 -0.0023C16.3337 -0.0023 15.6137 0.7477 15.6137 1.8477ZM8.0637 29.6977C9.9437 29.6977 11.4537 28.4377 11.8537 26.6877H21.2237C21.6137 28.2577 23.0337 29.4177 24.7237 29.4177C26.7137 29.4177 28.3237 27.8077 28.3237 25.7977C28.3237 23.7977 26.7137 22.1877 24.7237 22.1877C24.1337 22.1877 23.5737 22.3277 23.0737 22.5877L20.0937 19.6077H20.8537C26.4537 19.6077 27.9737 16.0677 28.1737 12.7377H28.4737C29.0137 12.7377 29.4337 12.3077 29.4337 11.7677C29.4337 11.2377 29.0137 10.8177 28.4737 10.8177H11.3037L5.0837 4.5977C4.7737 4.2777 4.4337 4.1377 3.9937 4.1377H1.0237C0.4637 4.1377 0.0037 4.6077 0.0037 5.1677C0.0037 5.7277 0.4637 6.2077 1.0237 6.2077H3.8037L8.4037 10.8177H4.4737C3.9337 10.8177 3.5137 11.2377 3.5137 11.7677C3.5137 12.3077 3.9337 12.7377 4.4737 12.7377H4.8037L5.3837 15.0477C6.0937 17.8377 8.2737 19.6077 12.1237 19.6077H12.6837L9.9237 22.3777C9.3837 22.0777 8.7537 21.9177 8.0637 21.9177C5.8837 21.9177 4.1837 23.6277 4.1837 25.7977C4.1837 27.9877 5.8837 29.6977 8.0637 29.6977ZM11.8537 24.8977C11.7537 24.5177 11.6037 24.1477 11.4137 23.7977L15.6137 19.6077H17.1837L21.5737 24.0077C21.4237 24.2777 21.3037 24.5777 21.2237 24.8977ZM8.0637 27.9077C6.9037 27.9077 5.9737 26.9777 5.9737 25.7977C5.9737 24.6277 6.9037 23.7077 8.0637 23.7077C9.2437 23.7077 10.1537 24.6277 10.1537 25.7977C10.1537 26.9777 9.2437 27.9077 8.0637 27.9077ZM24.7237 27.9077C23.5537 27.9077 22.6137 26.9777 22.6137 25.7977C22.6137 24.6277 23.5537 23.7077 24.7237 23.7077C25.8937 23.7077 26.8137 24.6277 26.8137 25.7977C26.8137 26.9777 25.8937 27.9077 24.7237 27.9077Z"
        fillRule="evenodd"
        clipRule="evenodd"
    />
</svg>
        