
<svg
    viewBox="0 0 28.328125 29.6953125"
    xmlns="http://www.w3.org/2000/svg"
>
    <path
        fill="inherit"
        d="M8.0637 29.692C9.9437 29.692 11.4537 28.442 11.8537 26.692H21.2237C21.6137 28.262 23.0337 29.422 24.7237 29.422C26.7137 29.422 28.3237 27.812 28.3237 25.802C28.3237 23.802 26.7137 22.192 24.7237 22.192C24.1337 22.192 23.5737 22.322 23.0737 22.582L20.0937 19.602H20.8537C26.9637 19.602 28.1937 14.862 28.1937 10.962C28.1937 4.782 23.8437 0.002 17.3737 0.002C16.3337 0.002 15.6137 0.752 15.6137 1.842V9.992H10.4837L5.0837 4.592C4.7737 4.282 4.4337 4.142 3.9937 4.142H1.0237C0.4637 4.142 0.0037 4.612 0.0037 5.172C0.0037 5.732 0.4637 6.202 1.0237 6.202H3.8037L7.5837 9.992H4.4737C3.9337 9.992 3.5137 10.422 3.5137 10.952C3.5137 11.482 3.9337 11.922 4.4737 11.922H4.8037L5.3837 15.052C5.9037 17.882 8.2737 19.602 12.1237 19.602H12.6837L9.9237 22.372C9.3837 22.082 8.7537 21.912 8.0637 21.912C5.8837 21.912 4.1837 23.622 4.1837 25.802C4.1837 27.982 5.8837 29.692 8.0637 29.692ZM17.5437 2.612C17.5437 2.242 17.8037 1.992 18.1737 1.992C21.1637 1.992 25.7437 4.252 26.2137 9.992H17.5437ZM12.1237 17.682C9.2937 17.682 7.6537 16.542 7.3037 14.702L6.7437 11.922H26.2237C26.0437 14.652 24.9737 17.682 20.8537 17.682ZM11.8537 24.892C11.7537 24.502 11.6037 24.132 11.4137 23.802L15.6137 19.602H17.1837L21.5737 23.992C21.4237 24.282 21.3037 24.582 21.2237 24.892ZM8.0637 27.892C6.9037 27.892 5.9737 26.962 5.9737 25.802C5.9737 24.622 6.9037 23.702 8.0637 23.702C9.2437 23.702 10.1537 24.622 10.1537 25.802C10.1537 26.962 9.2437 27.892 8.0637 27.892ZM24.7237 27.892C23.5537 27.892 22.6137 26.962 22.6137 25.802C22.6137 24.622 23.5537 23.702 24.7237 23.702C25.8937 23.702 26.8137 24.622 26.8137 25.802C26.8137 26.962 25.8937 27.892 24.7237 27.892Z"
        fillRule="evenodd"
        clipRule="evenodd"
    />
</svg>
        