<svg viewBox="0 0 26.291015625 30.26953125" xmlns="http://www.w3.org/2000/svg"><path d="M8.6037 8.4913H17.8737C19.4737 8.4913 20.2437 7.7513 20.2437 6.1813V2.3113C20.2437 0.7413 19.4737 0.0013 17.8737 0.0013H8.6037C6.9837 0.0013 6.2237 0.7413 6.2237 2.3113V6.1813C6.2237 7.7513 6.9837 8.4913 8.6037 8.4913ZM4.6437 30.2713C5.2937 30.2713 5.5537 29.9113 5.7037 29.3213L6.8537 24.9813H19.5237L20.6737 29.3213C20.8337 29.9113 21.1337 30.2713 21.7237 30.2713C22.4337 30.2713 22.7937 29.8613 22.7937 29.2613C22.7937 29.1213 22.7737 28.9813 22.7337 28.8313L20.5537 20.6413H21.3437C22.2337 20.6413 22.9037 20.0813 22.9037 19.3013C22.9037 18.4613 22.3037 17.9113 21.4137 17.9113H5.7937C4.7737 17.9113 4.1837 17.3813 4.1837 16.3913V12.6513H6.2937V13.6613C6.2937 15.2213 7.0537 15.9413 8.6537 15.9413H17.8137C19.4037 15.9413 20.1637 15.2213 20.1637 13.6613V12.6513H25.0837C25.8237 12.6513 26.2937 12.2313 26.2937 11.5913C26.2937 10.9413 25.8437 10.5313 25.1437 10.5313H1.0837C0.4237 10.5313 0.0037 10.9513 0.0037 11.5913C0.0037 12.2313 0.4537 12.6513 1.1437 12.6513H2.0637V17.7713C2.0637 19.5813 3.1737 20.6413 4.9737 20.6413H5.8237L3.6537 28.8313C3.6137 28.9713 3.5837 29.0913 3.5837 29.2713C3.5837 29.8313 3.8937 30.2713 4.6437 30.2713ZM7.4237 22.8413L7.9937 20.6413H18.3737L18.9537 22.8413Z" /></svg>