
<svg
    viewBox="0 0 25.662109375 26.482421875"
    xmlns="http://www.w3.org/2000/svg"
>
    <path
        fill="inherit"
        d="M0.0027 16.284C0.0027 19.534 2.5327 22.064 5.7827 22.064C7.6027 22.064 9.4727 21.464 10.2627 19.864H10.4027C10.4227 21.684 8.4227 23.184 7.6027 24.034C6.6127 25.064 7.2227 26.484 8.4927 26.484H17.1727C18.4427 26.484 19.0327 25.064 18.0627 24.034C17.2427 23.184 15.2427 21.684 15.2627 19.864H15.3927C16.1827 21.464 18.0627 22.064 19.8627 22.064C23.1327 22.064 25.6627 19.534 25.6627 16.284C25.6627 10.154 17.5127 7.574 14.2427 0.984C13.9727 0.424 13.5527 0.004 12.8227 0.004C12.1027 0.004 11.6927 0.424 11.4127 0.984C8.1527 7.574 0.0027 10.154 0.0027 16.284Z"
        fillRule="evenodd"
        clipRule="evenodd"
    />
</svg>
        