
<svg
    viewBox={0 0 31.650390625 26.49609375}
    xmlns="http://www.w3.org/2000/svg"
>
    <path
        fill="inherit"
        d="M4.2237 26.4991H27.4237C30.2537 26.4991 31.6537 25.1291 31.6537 22.3291V9.0191C31.6537 6.2191 30.2537 4.8491 27.4237 4.8491H22.7537V3.7691C22.7537 1.1991 21.3937 -0.0009 18.9237 -0.0009H12.7137C10.3737 -0.0009 8.8837 1.1991 8.8837 3.7691V4.8491H4.2237C1.4037 4.8491 0.0037 6.2191 0.0037 9.0191V22.3291C0.0037 25.1291 1.4037 26.4991 4.2237 26.4991ZM11.0037 3.6191C11.0037 2.5791 11.6237 1.9991 12.6837 1.9991H18.9637C20.0337 1.9991 20.6337 2.5791 20.6337 3.6191V4.8491H11.0037ZM4.2537 24.3091C2.9137 24.3091 2.2037 23.6291 2.2037 22.2191V9.1291C2.2037 7.7391 2.9137 7.0391 4.2537 7.0391H5.7837V24.3091ZM7.9837 24.3091V7.0391H23.6537V24.3091ZM27.3937 7.0391C28.7337 7.0391 29.4537 7.7391 29.4537 9.1291V22.2191C29.4537 23.6291 28.7337 24.3091 27.3937 24.3091H25.8537V7.0391Z"
        fillRule="evenodd"
        clipRule="evenodd"
    />
</svg>
        