
<svg
    viewBox={0 0 31.650390625 26.49609375}
    xmlns="http://www.w3.org/2000/svg"
>
    <path
        fill="inherit"
        d="M4.2237 26.4991C1.4037 26.4991 0.0037 25.1291 0.0037 22.3291V9.0191C0.0037 6.2191 1.4037 4.8491 4.2237 4.8491H8.8837V3.7691C8.8837 1.1991 10.3737 -0.0009 12.7137 -0.0009H18.9237C21.3937 -0.0009 22.7537 1.1991 22.7537 3.7691V4.8491H27.4237C30.2537 4.8491 31.6537 6.2191 31.6537 9.0191V22.3291C31.6537 25.1291 30.2537 26.4991 27.4237 26.4991H26.5337V4.8491H24.3337V26.4991H7.3037V4.8491H5.1037V26.4991ZM11.0037 3.6191V4.8491H20.6337V3.6191C20.6337 2.5791 20.0337 1.9991 18.9637 1.9991H12.6837C11.6237 1.9991 11.0037 2.5791 11.0037 3.6191Z"
        fillRule="evenodd"
        clipRule="evenodd"
    />
</svg>
        