
<svg
    viewBox="0 0 27.15234375 25.1015625"
    xmlns="http://www.w3.org/2000/svg"
>
    <path
        fill="inherit"
        d="M0.0037 8.258C0.0037 14.078 4.8837 19.808 12.5937 24.728C12.8837 24.908 13.2937 25.098 13.5737 25.098C13.8637 25.098 14.2737 24.908 14.5737 24.728C22.2737 19.808 27.1537 14.078 27.1537 8.258C27.1537 3.418 23.8337 -0.002 19.4037 -0.002C16.8737 -0.002 14.8237 1.208 13.5737 3.048C12.3637 1.218 10.2837 -0.002 7.7537 -0.002C3.3237 -0.002 0.0037 3.418 0.0037 8.258ZM2.2037 8.258C2.2037 4.618 4.5537 2.198 7.7237 2.198C10.2937 2.198 11.7737 3.798 12.6437 5.168C13.0137 5.718 13.2437 5.868 13.5737 5.868C13.9037 5.868 14.1137 5.698 14.5037 5.168C15.4537 3.828 16.8737 2.198 19.4237 2.198C22.6037 2.198 24.9537 4.618 24.9537 8.258C24.9537 13.348 19.5737 18.828 13.8637 22.628C13.7237 22.718 13.6337 22.788 13.5737 22.788C13.5237 22.788 13.4237 22.718 13.3037 22.628C7.5737 18.828 2.2037 13.348 2.2037 8.258Z"
        fillRule="evenodd"
        clipRule="evenodd"
    />
</svg>
        