
<svg
    viewBox="0 0 21.68359375 36.544921875"
    xmlns="http://www.w3.org/2000/svg"
>
    <path
        fill="inherit"
        d="M4.5837 36.5475H5.4237C6.1637 36.5475 6.6437 36.0675 6.6437 35.3375V34.5475H15.0437V35.3375C15.0437 36.0675 15.5137 36.5475 16.2537 36.5475H17.1037C17.8237 36.5475 18.3237 36.0675 18.3237 35.3375V34.4975C20.3337 34.2175 21.6837 32.6475 21.6837 30.5175V11.5375C21.6837 9.1575 20.0137 7.5075 17.6537 7.5075H16.9237V3.1075C16.9237 1.2075 15.7337 -0.0025 13.8537 -0.0025H7.9737C6.0037 -0.0025 4.7537 1.2075 4.7537 3.1075V7.5075H4.0337C1.6637 7.5075 0.0037 9.1575 0.0037 11.5375V30.5175C0.0037 32.6475 1.3537 34.2175 3.3637 34.4975V35.3375C3.3637 36.0675 3.8437 36.5475 4.5837 36.5475ZM6.8737 3.0775C6.8737 2.4175 7.3537 1.9975 8.0637 1.9975H13.7537C14.3837 1.9975 14.8037 2.4175 14.8037 3.0775V7.5075H6.8737ZM2.2037 11.6375C2.2037 10.4875 2.9537 9.7075 4.0637 9.7075H17.6237C18.7337 9.7075 19.4837 10.4875 19.4837 11.6375V26.7675H2.2037ZM4.0637 32.3475C2.9537 32.3475 2.2037 31.5575 2.2037 30.4075V28.9675H19.4837V30.4075C19.4837 31.5575 18.7337 32.3475 17.6237 32.3475Z"
        fillRule="evenodd"
        clipRule="evenodd"
    />
</svg>
        