
<svg
    viewBox={0 0 33.5234375 32.3203125}
    xmlns="http://www.w3.org/2000/svg"
>
    <path
        fill="inherit"
        d="M30.3973 20.9013C32.3773 20.9013 33.5273 19.8413 33.5273 17.9613V6.8612C33.5273 5.0012 32.3773 3.9213 30.3973 3.9213H26.6873V3.1213C26.6873 1.0912 25.5773 0.0012 23.5173 0.0012H18.6073C16.4873 0.0012 15.4173 1.0413 15.4173 3.1213V3.9213H11.7273C9.7473 3.9213 8.5973 5.0012 8.5973 6.8612V17.9613C8.5973 19.8413 9.7473 20.9013 11.7273 20.9013ZM17.3473 2.9913C17.3473 2.2413 17.7773 1.8313 18.5673 1.8313H23.5573C24.3473 1.8313 24.7573 2.2413 24.7573 2.9913V3.9213H17.3473ZM32.4173 25.2813C33.0173 25.2813 33.5273 24.7913 33.5273 24.1713C33.5273 23.5613 33.0173 23.0813 32.4173 23.0813H7.9973C6.8673 23.0813 6.2873 22.4913 6.2873 21.3413V7.7512C6.2873 5.2113 5.1173 4.0613 2.5473 4.0613H1.0973C0.5073 4.0613 -0.0027 4.5712 -0.0027 5.1513C-0.0027 5.7512 0.5073 6.2613 1.0973 6.2613H2.3773C3.5173 6.2613 4.0873 6.8513 4.0873 8.0012V21.5913C4.0873 24.1213 5.2673 25.2813 7.8373 25.2813ZM11.7473 18.9213C11.0073 18.9213 10.5973 18.5513 10.5973 17.8813V6.9413C10.5973 6.2913 11.0073 5.9213 11.7473 5.9213H13.0873V18.9213ZM15.0673 18.9213V5.9213H27.0573V18.9213ZM30.3773 18.9213H29.0373V5.9213H30.3773C31.1173 5.9213 31.5273 6.2913 31.5273 6.9413V17.8813C31.5273 18.5513 31.1173 18.9213 30.3773 18.9213ZM27.5773 32.3213C28.9573 32.3213 30.1173 31.1613 30.1173 29.7913C30.1173 28.4013 28.9573 27.2313 27.5773 27.2313C26.2073 27.2313 25.0473 28.4013 25.0473 29.7913C25.0473 31.1613 26.2073 32.3213 27.5773 32.3213ZM12.9173 32.3213C14.2973 32.3213 15.4473 31.1613 15.4473 29.7913C15.4473 28.4013 14.2973 27.2313 12.9173 27.2313C11.5373 27.2313 10.3873 28.4013 10.3873 29.7913C10.3873 31.1613 11.5373 32.3213 12.9173 32.3213Z"
        fillRule="evenodd"
        clipRule="evenodd"
    />
</svg>
        