
<svg
    viewBox={0 0 27.890625 27.890625}
    xmlns="http://www.w3.org/2000/svg"
>
    <path
        fill="inherit"
        d="M13.9427 27.8927C21.6427 27.8927 27.8927 21.6427 27.8927 13.9427C27.8927 6.2627 21.6427 0.0027 13.9427 0.0027C6.2627 0.0027 0.0027 6.2627 0.0027 13.9427C0.0027 21.6427 6.2627 27.8927 13.9427 27.8927ZM13.9327 8.2727C13.4927 8.2727 13.1527 7.8927 13.1527 7.3927V5.5927C13.1527 5.1027 13.5127 4.7427 13.9327 4.7427C14.3527 4.7427 14.7227 5.1027 14.7227 5.5927V7.3927C14.7227 7.8727 14.3727 8.2727 13.9327 8.2727ZM17.6227 10.2427C17.2927 9.9227 17.2927 9.4327 17.6527 9.0927L18.9627 7.7927C19.2927 7.4327 19.8127 7.4327 20.1227 7.7527C20.4127 8.0627 20.4027 8.5327 20.0427 8.9027L18.7727 10.2027C18.4327 10.5427 17.9327 10.5527 17.6227 10.2427ZM10.2527 10.2427C9.9427 10.5727 9.4427 10.5227 9.1027 10.2027L7.8227 8.9027C7.4627 8.5327 7.4527 8.0527 7.7527 7.7527C8.0527 7.4527 8.5427 7.4227 8.9027 7.7927L10.2127 9.0927C10.5527 9.4227 10.5827 9.9227 10.2527 10.2427ZM9.9627 15.2027C9.8327 14.8027 9.7327 14.3727 9.7327 13.9227C9.7327 11.6227 11.6527 9.7027 13.9327 9.7027C16.2327 9.7027 18.1327 11.6227 18.1327 13.9227C18.1327 14.3727 18.0327 14.8027 17.8927 15.2027ZM8.7527 13.7427C8.7527 14.1927 8.3627 14.5327 7.8627 14.5327H6.0527C5.5827 14.5327 5.2127 14.1627 5.2127 13.7427C5.2127 13.3127 5.5827 12.9627 6.0527 12.9627H7.8627C8.3527 12.9627 8.7527 13.2927 8.7527 13.7427ZM19.1227 13.7427C19.1227 13.2927 19.5127 12.9627 20.0027 12.9627H21.8227C22.3027 12.9627 22.6527 13.3127 22.6527 13.7427C22.6527 14.1727 22.3027 14.5327 21.8227 14.5327H20.0027C19.5127 14.5327 19.1227 14.1727 19.1227 13.7427ZM7.0227 17.2227C6.7427 17.2227 6.5327 17.0227 6.5327 16.7327C6.5327 16.4427 6.7427 16.2427 7.0227 16.2427H22.1627C22.4527 16.2427 22.6527 16.4427 22.6527 16.7327C22.6527 17.0227 22.4527 17.2227 22.1627 17.2227ZM5.7127 19.1727C5.4327 19.1727 5.2127 18.9527 5.2127 18.6627C5.2127 18.3927 5.4327 18.1727 5.7127 18.1727H20.8327C21.1227 18.1727 21.3327 18.3927 21.3327 18.6627C21.3327 18.9527 21.1227 19.1727 20.8327 19.1727ZM7.0227 21.0927C6.7427 21.0927 6.5327 20.8927 6.5327 20.6027C6.5327 20.3127 6.7427 20.1127 7.0227 20.1127H22.1627C22.4527 20.1127 22.6527 20.3127 22.6527 20.6027C22.6527 20.8927 22.4527 21.0927 22.1627 21.0927Z"
        fillRule="evenodd"
        clipRule="evenodd"
    />
</svg>
        