
<svg
    viewBox="0 0 27.890625 27.890625"
    xmlns="http://www.w3.org/2000/svg"
>
    <path
        fill="inherit"
        d="M13.9427 27.8927C21.6427 27.8927 27.8927 21.6427 27.8927 13.9427C27.8927 6.2627 21.6427 0.0027 13.9427 0.0027C6.2627 0.0027 0.0027 6.2627 0.0027 13.9427C0.0027 21.6427 6.2627 27.8927 13.9427 27.8927ZM14.7227 9.0227C14.7227 9.5027 14.3727 9.9027 13.9327 9.9027C13.4927 9.9027 13.1527 9.5027 13.1527 9.0227V7.2227C13.1527 6.7127 13.5127 6.3727 13.9327 6.3727C14.3527 6.3727 14.7227 6.7127 14.7227 7.2227ZM17.6227 11.8827C17.2927 11.5527 17.2927 11.0727 17.6527 10.7227L18.9627 9.4027C19.2927 9.0527 19.8127 9.0627 20.1227 9.3827C20.4127 9.7027 20.4027 10.1727 20.0427 10.5227L18.7727 11.8127C18.4327 12.1727 17.9327 12.1727 17.6227 11.8827ZM9.1027 11.8127L7.8227 10.5227C7.4627 10.1727 7.4627 9.7027 7.7527 9.3827C8.0627 9.0927 8.5427 9.0327 8.9027 9.4027L10.2127 10.7227C10.5527 11.0427 10.5827 11.5527 10.2527 11.8827C9.9427 12.1827 9.4327 12.1527 9.1027 11.8127ZM18.1327 15.5427C18.1327 15.9827 18.0327 16.4227 17.8927 16.8427H9.9627C9.8327 16.4227 9.7327 15.9827 9.7327 15.5427C9.7327 13.2327 11.6527 11.3327 13.9327 11.3327C16.2327 11.3327 18.1327 13.2327 18.1327 15.5427ZM6.0527 16.1427C5.5827 16.1427 5.2127 15.7927 5.2127 15.3527C5.2127 14.9327 5.5827 14.5727 6.0527 14.5727H7.8627C8.3527 14.5727 8.7527 14.9127 8.7527 15.3527C8.7527 15.8027 8.3627 16.1427 7.8627 16.1427ZM20.0027 16.1427C19.5127 16.1427 19.1227 15.8027 19.1227 15.3527C19.1227 14.9127 19.5127 14.5727 20.0027 14.5727H21.8227C22.3027 14.5727 22.6527 14.9327 22.6527 15.3527C22.6527 15.7927 22.3027 16.1427 21.8227 16.1427ZM6.0427 19.4027C5.6227 19.4027 5.2127 19.0727 5.2127 18.6227C5.2127 18.1827 5.6027 17.8527 6.0427 17.8527H21.8327C22.2727 17.8527 22.6527 18.1827 22.6527 18.6227C22.6527 19.0727 22.2627 19.4027 21.8327 19.4027Z"
        fillRule="evenodd"
        clipRule="evenodd"
    />
</svg>
        