
<svg
    viewBox="0 0 27.890625 27.890625"
    xmlns="http://www.w3.org/2000/svg"
>
    <path
        fill="inherit"
        d="M13.9427 27.8927C21.6427 27.8927 27.8927 21.6427 27.8927 13.9427C27.8927 6.2627 21.6427 0.0027 13.9427 0.0027C6.2627 0.0027 0.0027 6.2627 0.0027 13.9427C0.0027 21.6427 6.2627 27.8927 13.9427 27.8927ZM13.9427 5.0327C14.4127 5.0327 14.8227 5.4227 14.8227 5.9027V7.5927C14.8227 8.0527 14.4127 8.4527 13.9427 8.4527C13.4927 8.4527 13.0827 8.0527 13.0827 7.5927V5.9027C13.0827 5.4227 13.4927 5.0327 13.9427 5.0327ZM20.2627 7.6427C20.5927 7.9827 20.5927 8.5327 20.2627 8.8627L19.0427 10.0727C18.7127 10.4227 18.1527 10.4227 17.8127 10.0727C17.4827 9.7627 17.4827 9.2327 17.8127 8.8727L19.0327 7.6427C19.3427 7.3127 19.9027 7.3027 20.2627 7.6427ZM7.6527 7.6427C8.0027 7.3127 8.5427 7.3327 8.8727 7.6427L10.0727 8.8727C10.4027 9.1827 10.4027 9.7527 10.0727 10.0727C9.7327 10.4227 9.1827 10.4227 8.8627 10.0727L7.6427 8.8627C7.3127 8.5327 7.3327 7.9827 7.6527 7.6427ZM13.9427 18.2227C11.5827 18.2227 9.6627 16.3127 9.6627 13.9427C9.6627 11.5827 11.5827 9.6627 13.9427 9.6627C16.3127 9.6627 18.2227 11.5827 18.2227 13.9427C18.2227 16.3127 16.3127 18.2227 13.9427 18.2227ZM22.8427 13.9427C22.8427 14.4227 22.4527 14.8227 21.9727 14.8227H20.2927C19.8427 14.8227 19.4327 14.4127 19.4327 13.9427C19.4327 13.4827 19.8427 13.0827 20.2927 13.0827H21.9727C22.4527 13.0827 22.8427 13.4627 22.8427 13.9427ZM5.0627 13.9427C5.0627 13.4627 5.4527 13.0827 5.9227 13.0827H7.6027C8.0627 13.0827 8.4627 13.4827 8.4627 13.9427C8.4627 14.4127 8.0627 14.8227 7.6027 14.8227H5.9227C5.4527 14.8227 5.0627 14.4227 5.0627 13.9427ZM20.2627 20.2627C19.9027 20.5727 19.3627 20.5927 19.0327 20.2627L17.8127 19.0427C17.4827 18.7127 17.4727 18.1527 17.8127 17.8127C18.1527 17.4827 18.7127 17.4827 19.0327 17.8127L20.2627 19.0327C20.5927 19.3427 20.6027 19.9027 20.2627 20.2627ZM7.6427 20.2527C7.3127 19.9027 7.3027 19.3627 7.6427 19.0327L8.8627 17.8127C9.1727 17.4827 9.7527 17.4827 10.0727 17.8127C10.4027 18.1727 10.4027 18.7327 10.0727 19.0427L8.8627 20.2627C8.5327 20.5927 7.9827 20.5727 7.6427 20.2527ZM13.9427 22.8727C13.4927 22.8727 13.0827 22.4627 13.0827 21.9827V20.3027C13.0827 19.8427 13.4927 19.4427 13.9427 19.4427C14.4127 19.4427 14.8227 19.8427 14.8227 20.3027V21.9827C14.8227 22.4627 14.4127 22.8727 13.9427 22.8727Z"
        fillRule="evenodd"
        clipRule="evenodd"
    />
</svg>
        