
<svg
    viewBox={0 0 35.041015625 22.298828125}
    xmlns="http://www.w3.org/2000/svg"
>
    <path
        fill="inherit"
        d="M17.5237 5.8064C18.1337 5.7964 18.6337 5.2764 18.6337 4.5764V1.2164C18.6337 0.5064 18.1337 -0.0036 17.5237 -0.0036C16.9137 -0.0036 16.4037 0.5064 16.4037 1.2164V4.5764C16.4037 5.2764 16.9137 5.8264 17.5237 5.8064ZM24.5637 8.7264C25.0037 9.1464 25.7337 9.1464 26.2237 8.6364L28.6037 6.2664C29.1237 5.7564 29.0937 5.0564 28.6737 4.6164C28.2437 4.1864 27.5337 4.1664 27.0337 4.6864L24.6537 7.0664C24.1437 7.5564 24.1337 8.2964 24.5637 8.7264ZM10.4737 8.7264C10.8937 8.2864 10.8937 7.5564 10.3937 7.0664L8.0137 4.6864C7.5037 4.1664 6.8037 4.1964 6.3737 4.6164C5.9337 5.0464 5.9237 5.7564 6.4437 6.2664L8.8137 8.6364C9.3137 9.1464 10.0537 9.1564 10.4737 8.7264ZM1.1937 22.2964H33.8537C34.4937 22.2964 35.0437 21.8064 35.0437 21.2064C35.0437 20.6064 34.4937 20.1064 33.8537 20.1064H23.5737C24.4737 18.8964 24.9937 17.3864 24.9937 15.7764C24.9937 11.6764 21.6037 8.2864 17.5237 8.2864C13.4437 8.2864 10.0537 11.6764 10.0537 15.7764C10.0537 17.3864 10.5637 18.8964 11.4737 20.1064H1.1937C0.5437 20.1064 0.0037 20.6064 0.0037 21.2064C0.0037 21.8064 0.5437 22.2964 1.1937 22.2964ZM12.2337 15.7764C12.2337 12.8764 14.6337 10.4864 17.5237 10.4864C20.4137 10.4864 22.8037 12.8764 22.8037 15.7764C22.8037 17.5664 21.8637 19.1864 20.4637 20.1064H14.5737C13.1837 19.1864 12.2337 17.5664 12.2337 15.7764ZM2.9637 16.5264H6.3337C7.0437 16.5264 7.5737 16.0364 7.5637 15.4264C7.5437 14.8064 7.0237 14.3164 6.3337 14.3164H2.9637C2.2537 14.3164 1.7537 14.8064 1.7537 15.4264C1.7537 16.0364 2.2537 16.5264 2.9637 16.5264ZM28.7137 16.5264H32.0737C32.7837 16.5264 33.2937 16.0364 33.2937 15.4264C33.2937 14.8064 32.7837 14.3164 32.0737 14.3164H28.7137C28.0137 14.3164 27.4637 14.8064 27.4837 15.4264C27.4937 16.0364 28.0137 16.5264 28.7137 16.5264Z"
        fillRule="evenodd"
        clipRule="evenodd"
    />
</svg>
        