
<svg
    viewBox="0 0 27.890625 27.890625"
    xmlns="http://www.w3.org/2000/svg"
>
    <path
        fill="inherit"
        d="M13.9427 27.8927C21.6427 27.8927 27.8927 21.6427 27.8927 13.9427C27.8927 6.2627 21.6427 0.0027 13.9427 0.0027C6.2627 0.0027 0.0027 6.2627 0.0027 13.9427C0.0027 21.6427 6.2627 27.8927 13.9427 27.8927ZM14.7227 6.6027C14.7227 7.0727 14.3727 7.4627 13.9327 7.4627C13.4927 7.4627 13.1527 7.0827 13.1527 6.6027V4.7827C13.1527 4.2927 13.5127 3.9327 13.9327 3.9327C14.3527 3.9327 14.7227 4.2927 14.7227 4.7827ZM17.6227 9.4327C17.2927 9.1327 17.2927 8.6227 17.6527 8.2727L18.9627 6.9727C19.2927 6.6327 19.8127 6.6327 20.1227 6.9427C20.4127 7.2727 20.4027 7.7427 20.0427 8.0927L18.7727 9.3827C18.4327 9.7327 17.9327 9.7327 17.6227 9.4327ZM9.1027 9.3827L7.8227 8.0927C7.4627 7.7427 7.4627 7.2727 7.7527 6.9427C8.0627 6.6627 8.5427 6.6127 8.9027 6.9727L10.2127 8.2727C10.5527 8.6127 10.5827 9.1327 10.2527 9.4327C9.9427 9.7527 9.4427 9.7227 9.1027 9.3827ZM18.1327 13.1127C18.1327 13.5527 18.0327 14.0027 17.8927 14.4127H9.9627C9.8327 14.0027 9.7327 13.5527 9.7327 13.1127C9.7327 10.8027 11.6527 8.9027 13.9327 8.9027C16.2327 8.9027 18.1327 10.8027 18.1327 13.1127ZM6.0527 13.7127C5.5827 13.7127 5.2127 13.3527 5.2127 12.9327C5.2127 12.5127 5.5827 12.1427 6.0527 12.1427H7.8627C8.3527 12.1427 8.7527 12.4927 8.7527 12.9327C8.7527 13.3727 8.3627 13.7127 7.8627 13.7127ZM20.0027 13.7127C19.5127 13.7127 19.1227 13.3727 19.1227 12.9327C19.1227 12.4927 19.5127 12.1427 20.0027 12.1427H21.8227C22.3027 12.1427 22.6527 12.4927 22.6527 12.9327C22.6527 13.3527 22.3027 13.7127 21.8227 13.7127ZM6.0427 16.9827C5.6227 16.9827 5.2127 16.6427 5.2127 16.1827C5.2127 15.7527 5.6027 15.4227 6.0427 15.4227H21.8327C22.2727 15.4227 22.6527 15.7527 22.6527 16.1827C22.6527 16.6427 22.2627 16.9827 21.8327 16.9827ZM11.2127 23.1627C11.0327 23.4627 10.6527 23.5727 10.3327 23.3927C10.0227 23.2127 9.9127 22.8227 10.0927 22.5027L12.3627 18.6027C12.5327 18.2927 12.9327 18.1927 13.2227 18.3627C13.5527 18.5527 13.6427 18.9327 13.4627 19.2527ZM17.7027 23.1627C17.5127 23.4627 17.1327 23.5727 16.8427 23.3927C16.5127 23.2127 16.4227 22.8227 16.5827 22.5027L18.8527 18.6027C19.0327 18.2927 19.4127 18.1927 19.7127 18.3627C20.0427 18.5527 20.1427 18.9327 19.9727 19.2527ZM9.2127 20.9727C9.0327 21.2827 8.6427 21.3927 8.3427 21.2327C8.0227 21.0427 7.9127 20.6427 8.1027 20.3327L9.1027 18.6027C9.2827 18.3027 9.6627 18.1927 9.9627 18.3627C10.2927 18.5527 10.3927 18.9527 10.2227 19.2527ZM15.7127 20.9727C15.5327 21.2827 15.1527 21.3927 14.8327 21.2327C14.5227 21.0427 14.4127 20.6427 14.6027 20.3327L15.6027 18.6027C15.7727 18.3027 16.1627 18.1927 16.4727 18.3627C16.7927 18.5527 16.9027 18.9527 16.7027 19.2527Z"
        fillRule="evenodd"
        clipRule="evenodd"
    />
</svg>
        