
<svg
    viewBox="0 0 27.890625 27.890625"
    xmlns="http://www.w3.org/2000/svg"
>
    <path
        fill="inherit"
        d="M13.9427 27.8927C21.6427 27.8927 27.8927 21.6427 27.8927 13.9427C27.8927 6.2627 21.6427 0.0027 13.9427 0.0027C6.2627 0.0027 0.0027 6.2627 0.0027 13.9427C0.0027 21.6427 6.2627 27.8927 13.9427 27.8927ZM14.7227 7.3127C14.7227 7.7827 14.3727 8.1727 13.9327 8.1727C13.4927 8.1727 13.1527 7.7927 13.1527 7.3127V5.5127C13.1527 5.0027 13.5127 4.6527 13.9327 4.6527C14.3527 4.6527 14.7227 5.0027 14.7227 5.5127ZM17.6227 10.1427C17.2927 9.8427 17.2927 9.3427 17.6527 8.9927L18.9627 7.6927C19.2927 7.3427 19.8127 7.3427 20.1227 7.6527C20.4127 7.9827 20.4027 8.4527 20.0427 8.8227L18.7727 10.1027C18.4327 10.4427 17.9327 10.4627 17.6227 10.1427ZM9.1027 10.1027L7.8227 8.8227C7.4627 8.4527 7.4627 7.9827 7.7527 7.6527C8.0627 7.3727 8.5427 7.3327 8.9027 7.6927L10.2127 8.9927C10.5527 9.3227 10.5827 9.8427 10.2527 10.1427C9.9427 10.4727 9.4427 10.4327 9.1027 10.1027ZM18.1327 13.8227C18.1327 14.2627 18.0327 14.7127 17.8927 15.1227H9.9627C9.8327 14.7127 9.7327 14.2627 9.7327 13.8227C9.7327 11.5227 11.6527 9.6127 13.9327 9.6127C16.2327 9.6127 18.1327 11.5227 18.1327 13.8227ZM6.0527 14.4327C5.5827 14.4327 5.2127 14.0727 5.2127 13.6427C5.2127 13.2227 5.5827 12.8627 6.0527 12.8627H7.8627C8.3527 12.8627 8.7527 13.2027 8.7527 13.6427C8.7527 14.0927 8.3627 14.4327 7.8627 14.4327ZM20.0027 14.4327C19.5127 14.4327 19.1227 14.0827 19.1227 13.6427C19.1227 13.2027 19.5127 12.8627 20.0027 12.8627H21.8227C22.3027 12.8627 22.6527 13.2227 22.6527 13.6427C22.6527 14.0827 22.3027 14.4327 21.8227 14.4327ZM6.0427 17.6927C5.6227 17.6927 5.2127 17.3527 5.2127 16.9127C5.2127 16.4727 5.6027 16.1427 6.0427 16.1427H21.8327C22.2727 16.1427 22.6527 16.4627 22.6527 16.9127C22.6527 17.3527 22.2627 17.6927 21.8327 17.6927ZM9.2827 22.4627C9.0227 22.4627 8.8827 22.2427 8.9027 22.0227L8.9327 21.1727L8.2127 21.6727C8.0427 21.7827 7.7527 21.7427 7.6527 21.5327C7.5627 21.3427 7.6027 21.0827 7.8427 20.9627L8.5827 20.6027L7.8427 20.2227C7.6027 20.0827 7.5627 19.8227 7.6727 19.6427C7.7827 19.4427 8.0427 19.4127 8.2127 19.5327L8.9327 20.0327L8.8827 19.1727C8.8727 18.9327 9.0227 18.7327 9.2827 18.7327C9.5027 18.7327 9.6827 18.9327 9.6527 19.1827L9.5927 20.0327L10.3127 19.5327C10.4727 19.4127 10.7727 19.4527 10.8727 19.6427C10.9627 19.8527 10.9227 20.0827 10.6927 20.2027L9.9227 20.6027L10.6927 20.9627C10.9327 21.0727 10.9927 21.3727 10.8527 21.5627C10.7627 21.7227 10.4727 21.7827 10.3127 21.6727L9.5927 21.1727L9.6527 22.0227C9.6827 22.2427 9.5027 22.4627 9.2827 22.4627ZM13.9327 22.4627C13.6727 22.4627 13.5327 22.2427 13.5527 22.0227L13.5727 21.1727L12.8827 21.6727C12.6827 21.7827 12.4027 21.7427 12.3027 21.5327C12.2127 21.3427 12.2527 21.0827 12.5127 20.9627L13.2327 20.6027L12.5127 20.2227C12.2527 20.0827 12.2127 19.8227 12.3227 19.6427C12.4327 19.4427 12.6827 19.4127 12.8827 19.5327L13.5727 20.0327L13.5327 19.1727C13.5227 18.9327 13.6727 18.7327 13.9327 18.7327C14.1627 18.7327 14.3327 18.9327 14.3127 19.1827L14.2627 20.0327L14.9527 19.5327C15.1327 19.4127 15.4227 19.4527 15.5327 19.6427C15.6227 19.8527 15.5827 20.0827 15.3427 20.2027L14.5927 20.6027L15.3427 20.9627C15.6027 21.0727 15.6527 21.3727 15.5127 21.5627C15.4127 21.7227 15.1327 21.7827 14.9527 21.6727L14.2627 21.1727L14.3127 22.0227C14.3327 22.2427 14.1627 22.4627 13.9327 22.4627ZM18.5827 22.4627C18.3327 22.4627 18.1827 22.2427 18.1927 22.0227L18.2427 21.1727L17.5227 21.6727C17.3527 21.7827 17.0527 21.7427 16.9627 21.5327C16.8727 21.3427 16.9027 21.0827 17.1427 20.9627L17.8927 20.6027L17.1427 20.2227C16.9127 20.0827 16.8727 19.8227 16.9827 19.6427C17.0727 19.4427 17.3527 19.4127 17.5227 19.5327L18.2427 20.0327L18.1827 19.1727C18.1727 18.9327 18.3327 18.7327 18.5827 18.7327C18.8127 18.7327 18.9627 18.9327 18.9527 19.1827L18.9127 20.0327L19.6227 19.5327C19.7827 19.4127 20.0827 19.4527 20.1827 19.6427C20.2727 19.8527 20.2227 20.0827 20.0027 20.2027L19.2327 20.6027L20.0027 20.9627C20.2327 21.0727 20.3027 21.3727 20.1627 21.5627C20.0727 21.7227 19.7827 21.7827 19.6227 21.6727L18.9127 21.1727L18.9527 22.0227C18.9627 22.2427 18.8127 22.4627 18.5827 22.4627Z"
        fillRule="evenodd"
        clipRule="evenodd"
    />
</svg>
        