
<svg
    viewBox="0 0 27.890625 27.890625"
    xmlns="http://www.w3.org/2000/svg"
>
    <path
        fill="inherit"
        d="M13.9427 27.8864C21.6427 27.8864 27.8927 21.6464 27.8927 13.9464C27.8927 6.2464 21.6427 -0.0036 13.9427 -0.0036C6.2527 -0.0036 0.0027 6.2464 0.0027 13.9464C0.0027 21.6464 6.2527 27.8864 13.9427 27.8864ZM13.9427 25.5664C7.5227 25.5664 2.3227 20.3664 2.3227 13.9464C2.3227 7.5164 7.5227 2.3264 13.9427 2.3264C20.3727 2.3264 25.5627 7.5164 25.5627 13.9464C25.5627 20.3664 20.3727 25.5664 13.9427 25.5664ZM14.6927 9.1464V7.3864C14.6927 6.9064 14.3427 6.5664 13.9327 6.5664C13.5227 6.5664 13.1827 6.9064 13.1827 7.3864V9.1464C13.1827 9.6064 13.5127 9.9764 13.9327 9.9764C14.3527 9.9764 14.6927 9.5964 14.6927 9.1464ZM17.5127 11.8964C17.8127 12.1964 18.2927 12.1964 18.6227 11.8564L19.8627 10.5964C20.2027 10.2564 20.2227 9.7864 19.9327 9.4864C19.6327 9.1764 19.1427 9.1764 18.8127 9.5164L17.5427 10.7864C17.2027 11.1164 17.2027 11.5964 17.5127 11.8964ZM9.2527 11.8564C9.5727 12.1864 10.0627 12.2064 10.3627 11.8964C10.6827 11.5964 10.6527 11.1064 10.3227 10.7864L9.0527 9.5164C8.7127 9.1564 8.2427 9.1964 7.9427 9.4864C7.6527 9.7864 7.6527 10.2564 8.0027 10.5964ZM18.0027 15.4664C18.0027 13.2364 16.1627 11.3764 13.9327 11.3764C11.7127 11.3764 9.8527 13.2364 9.8527 15.4664C9.8527 15.8964 9.9527 16.3264 10.0927 16.7164H17.7727C17.9127 16.3264 18.0027 15.8964 18.0027 15.4664ZM6.2927 16.0464H8.0527C8.5327 16.0464 8.8827 15.7264 8.8827 15.2864C8.8827 14.8564 8.5127 14.5364 8.0527 14.5364H6.2927C5.8227 14.5364 5.4727 14.8764 5.4727 15.2864C5.4727 15.6964 5.8227 16.0464 6.2927 16.0464ZM19.8127 16.0464H21.5927C22.0527 16.0464 22.3927 15.7064 22.3927 15.2864C22.3927 14.8764 22.0527 14.5364 21.5927 14.5364H19.8127C19.3427 14.5364 18.9727 14.8564 18.9727 15.2864C18.9727 15.7064 19.3427 16.0464 19.8127 16.0464ZM6.2727 19.2064H21.6027C22.0127 19.2064 22.3927 18.8764 22.3927 18.4564C22.3927 18.0364 22.0227 17.7164 21.6027 17.7164H6.2727C5.8527 17.7164 5.4727 18.0364 5.4727 18.4564C5.4727 18.8764 5.8627 19.2064 6.2727 19.2064Z"
        fillRule="evenodd"
        clipRule="evenodd"
    />
</svg>
        