
<svg
    viewBox={0 0 27.890625 27.890625}
    xmlns="http://www.w3.org/2000/svg"
>
    <path
        fill="inherit"
        d="M13.9427 27.8864C21.6427 27.8864 27.8927 21.6464 27.8927 13.9464C27.8927 6.2464 21.6427 -0.0036 13.9427 -0.0036C6.2527 -0.0036 0.0027 6.2464 0.0027 13.9464C0.0027 21.6464 6.2527 27.8864 13.9427 27.8864ZM13.9427 25.5664C7.5227 25.5664 2.3227 20.3664 2.3227 13.9464C2.3227 7.5164 7.5227 2.3264 13.9427 2.3264C20.3727 2.3264 25.5627 7.5164 25.5627 13.9464C25.5627 20.3664 20.3727 25.5664 13.9427 25.5664ZM14.6927 6.8064V5.0464C14.6927 4.5664 14.3427 4.2264 13.9327 4.2264C13.5227 4.2264 13.1827 4.5664 13.1827 5.0464V6.8064C13.1827 7.2764 13.5127 7.6564 13.9327 7.6564C14.3527 7.6564 14.6927 7.2764 14.6927 6.8064ZM17.5127 9.5664C17.8127 9.8564 18.2927 9.8564 18.6227 9.5164L19.8627 8.2564C20.2027 7.9164 20.2227 7.4664 19.9327 7.1464C19.6327 6.8464 19.1427 6.8364 18.8127 7.1764L17.5427 8.4464C17.2027 8.7864 17.2027 9.2564 17.5127 9.5664ZM9.2527 9.5164C9.5827 9.8464 10.0627 9.8664 10.3627 9.5664C10.6827 9.2564 10.6527 8.7764 10.3227 8.4464L9.0527 7.1764C8.7127 6.8264 8.2427 6.8764 7.9427 7.1464C7.6527 7.4664 7.6527 7.9164 8.0027 8.2564ZM18.0027 13.1264C18.0027 10.8964 16.1627 9.0464 13.9327 9.0464C11.7127 9.0464 9.8527 10.8964 9.8527 13.1264C9.8527 13.5664 9.9527 13.9864 10.0927 14.3964H17.7727C17.9127 13.9864 18.0027 13.5664 18.0027 13.1264ZM6.2927 13.7164H8.0527C8.5327 13.7164 8.8827 13.3864 8.8827 12.9464C8.8827 12.5264 8.5127 12.1964 8.0527 12.1964H6.2927C5.8227 12.1964 5.4727 12.5364 5.4727 12.9464C5.4727 13.3664 5.8227 13.7164 6.2927 13.7164ZM19.8127 13.7164H21.5927C22.0527 13.7164 22.3927 13.3664 22.3927 12.9464C22.3927 12.5364 22.0527 12.1964 21.5927 12.1964H19.8127C19.3427 12.1964 18.9727 12.5264 18.9727 12.9464C18.9727 13.3864 19.3427 13.7164 19.8127 13.7164ZM6.2727 16.8664H21.6027C22.0127 16.8664 22.3927 16.5464 22.3927 16.1164C22.3927 15.6964 22.0227 15.3764 21.6027 15.3764H6.2727C5.8527 15.3764 5.4727 15.6964 5.4727 16.1164C5.4727 16.5464 5.8627 16.8664 6.2727 16.8664ZM11.2927 22.8564L13.4827 19.0864C13.6627 18.7764 13.5627 18.3864 13.2527 18.2264C12.9627 18.0464 12.5827 18.1464 12.4127 18.4564L10.2127 22.2464C10.0327 22.5464 10.1327 22.9264 10.4427 23.0964C10.7427 23.2664 11.1127 23.1564 11.2927 22.8564ZM17.5827 22.8564L19.7827 19.0864C19.9427 18.7764 19.8527 18.3864 19.5327 18.2264C19.2527 18.0464 18.8827 18.1464 18.7027 18.4564L16.5027 22.2464C16.3427 22.5464 16.4327 22.9264 16.7527 23.0964C17.0327 23.2664 17.4027 23.1564 17.5827 22.8564ZM9.3527 20.7564L10.3327 19.0864C10.5027 18.7864 10.4027 18.3864 10.0927 18.2264C9.8027 18.0464 9.4327 18.1564 9.2527 18.4564L8.2827 20.1364C8.1027 20.4264 8.2027 20.8264 8.5127 20.9864C8.8027 21.1664 9.1827 21.0564 9.3527 20.7564ZM15.6527 20.7564L16.6227 19.0864C16.8027 18.7864 16.6927 18.3864 16.3927 18.2264C16.0927 18.0464 15.7227 18.1564 15.5427 18.4564L14.5727 20.1364C14.3927 20.4264 14.5027 20.8264 14.8027 20.9864C15.1027 21.1664 15.4727 21.0564 15.6527 20.7564Z"
        fillRule="evenodd"
        clipRule="evenodd"
    />
</svg>
        