
<svg
    viewBox="0 0 27.056640625 27.0703125"
    xmlns="http://www.w3.org/2000/svg"
>
    <path
        fill="inherit"
        d="M13.5327 2.8463C14.3127 2.8463 14.9527 2.2162 14.9527 1.4262C14.9527 0.6262 14.3127 -0.0038 13.5327 -0.0038C12.7427 -0.0038 12.1127 0.6262 12.1127 1.4262C12.1127 2.2162 12.7427 2.8463 13.5327 2.8463ZM22.1027 6.3863C22.8827 6.3863 23.5127 5.7563 23.5127 4.9662C23.5127 4.1663 22.8827 3.5362 22.1027 3.5362C21.3127 3.5362 20.6827 4.1663 20.6827 4.9662C20.6827 5.7563 21.3127 6.3863 22.1027 6.3863ZM4.9627 6.3863C5.7527 6.3863 6.3827 5.7563 6.3827 4.9662C6.3827 4.1663 5.7527 3.5362 4.9627 3.5362C4.1727 3.5362 3.5427 4.1663 3.5427 4.9662C3.5427 5.7563 4.1727 6.3863 4.9627 6.3863ZM13.5327 20.4963C17.3727 20.4963 20.4927 17.3763 20.4927 13.5363C20.4927 9.6962 17.3727 6.5663 13.5327 6.5663C9.6927 6.5663 6.5627 9.6962 6.5627 13.5363C6.5627 17.3763 9.6927 20.4963 13.5327 20.4963ZM25.6527 14.9563C26.4327 14.9563 27.0527 14.3263 27.0527 13.5363C27.0527 12.7463 26.4327 12.1163 25.6527 12.1163C24.8527 12.1163 24.2227 12.7463 24.2227 13.5363C24.2227 14.3263 24.8527 14.9563 25.6527 14.9563ZM1.4227 14.9563C2.2127 14.9563 2.8427 14.3263 2.8427 13.5363C2.8427 12.7463 2.2127 12.1163 1.4227 12.1163C0.6327 12.1163 0.0027 12.7463 0.0027 13.5363C0.0027 14.3263 0.6327 14.9563 1.4227 14.9563ZM22.1027 23.5263C22.8827 23.5263 23.5127 22.8962 23.5127 22.1063C23.5127 21.3163 22.8827 20.6863 22.1027 20.6863C21.3127 20.6863 20.6827 21.3163 20.6827 22.1063C20.6827 22.8962 21.3127 23.5263 22.1027 23.5263ZM4.9627 23.5263C5.7527 23.5263 6.3827 22.8962 6.3827 22.1063C6.3827 21.3163 5.7527 20.6863 4.9627 20.6863C4.1727 20.6863 3.5427 21.3163 3.5427 22.1063C3.5427 22.8962 4.1727 23.5263 4.9627 23.5263ZM13.5327 27.0663C14.3127 27.0663 14.9527 26.4463 14.9527 25.6463C14.9527 24.8563 14.3127 24.2263 13.5327 24.2263C12.7427 24.2263 12.1127 24.8563 12.1127 25.6463C12.1127 26.4463 12.7427 27.0663 13.5327 27.0663Z"
        fillRule="evenodd"
        clipRule="evenodd"
    />
</svg>
        