<svg viewBox="0 0 31.5546875 33.796875" xmlns="http://www.w3.org/2000/svg"><path d="M15.7737 5.8084C16.3937 5.8084 16.8837 5.2784 16.8837 4.5784V1.2184C16.8837 0.5084 16.3937 -0.0016 15.7737 -0.0016C15.1637 -0.0016 14.6737 0.5084 14.6737 1.2184V4.5784C14.6737 5.2784 15.1637 5.8084 15.7737 5.8084ZM22.8337 8.7184C23.2537 9.1484 23.9837 9.1484 24.4837 8.6384L26.8637 6.2584C27.3737 5.7584 27.3537 5.0584 26.9237 4.6184C26.5137 4.1884 25.8037 4.1884 25.2837 4.6884L22.9037 7.0684C22.4037 7.5784 22.3937 8.2984 22.8337 8.7184ZM8.7237 8.7184C9.1437 8.2884 9.1437 7.5784 8.6437 7.0684L6.2637 4.6884C5.7537 4.1884 5.0537 4.1984 4.6237 4.6184C4.1837 5.0484 4.1837 5.7584 4.6937 6.2584L7.0637 8.6384C7.5737 9.1484 8.3037 9.1584 8.7237 8.7184ZM1.8637 21.8384H29.6237C30.1237 21.8384 30.4837 21.4684 30.4837 20.9684C30.4837 20.4784 30.1237 20.1084 29.6237 20.1084H21.8337C22.7237 18.8984 23.2537 17.3884 23.2537 15.7784C23.2537 11.6784 19.8537 8.2884 15.7737 8.2884C11.6937 8.2884 8.3037 11.6784 8.3037 15.7784C8.3037 17.3884 8.8337 18.8984 9.7237 20.1084H1.8637C1.3837 20.1084 0.9937 20.4784 0.9937 20.9684C0.9937 21.4684 1.3837 21.8384 1.8637 21.8384ZM10.5037 15.7784C10.5037 12.8784 12.8837 10.4984 15.7737 10.4984C18.6737 10.4984 21.0537 12.8784 21.0537 15.7784C21.0537 17.5784 20.1237 19.1784 18.7137 20.1084H12.8237C11.4337 19.1784 10.5037 17.5784 10.5037 15.7784ZM1.2137 16.5284H4.5837C5.2937 16.5284 5.8237 16.0384 5.8137 15.4184C5.7937 14.8184 5.2937 14.3184 4.5837 14.3184H1.2137C0.5037 14.3184 0.0037 14.8084 0.0037 15.4184C0.0037 16.0384 0.5037 16.5284 1.2137 16.5284ZM26.9737 16.5284H30.3337C31.0537 16.5284 31.5537 16.0384 31.5537 15.4184C31.5537 14.8184 31.0537 14.3184 30.3337 14.3184H26.9737C26.2637 14.3184 25.7337 14.8084 25.7437 15.4184C25.7537 16.0384 26.2637 16.5284 26.9737 16.5284ZM23.3537 28.6684C23.5937 28.6684 23.7737 28.4384 23.7637 28.1784L23.6837 26.8784L24.7637 27.6184C24.9537 27.7584 25.2637 27.6984 25.4037 27.4984C25.5237 27.2884 25.4537 26.9584 25.1837 26.8484L24.0037 26.2784L25.1937 25.6884C25.4537 25.5684 25.5137 25.2684 25.4137 25.0584C25.2937 24.8384 24.9537 24.7984 24.7637 24.9384L23.6837 25.6884L23.7737 24.3784C23.8037 24.1084 23.5937 23.8884 23.3537 23.8884C23.0637 23.8884 22.9037 24.1084 22.9137 24.3784L22.9937 25.6884L21.8937 24.9384C21.6937 24.7984 21.4137 24.8284 21.2737 25.0584C21.1537 25.2684 21.2037 25.5484 21.4637 25.6884L22.6437 26.2784L21.4637 26.8484C21.2037 26.9784 21.1337 27.2784 21.2637 27.4984C21.3837 27.7084 21.6937 27.7584 21.8937 27.6184L22.9937 26.8784L22.9237 28.1784C22.9137 28.4384 23.0637 28.6684 23.3537 28.6684ZM8.2037 28.6684C8.4637 28.6684 8.6237 28.4384 8.6137 28.1784L8.5337 26.8784L9.6137 27.6184C9.8137 27.7584 10.1137 27.6984 10.2537 27.4984C10.3737 27.2884 10.3037 26.9584 10.0337 26.8484L8.8737 26.2784L10.0537 25.6884C10.3037 25.5684 10.3637 25.2684 10.2637 25.0584C10.1437 24.8384 9.8137 24.7984 9.6137 24.9384L8.5337 25.6884L8.6237 24.3784C8.6537 24.1084 8.4637 23.8884 8.2037 23.8884C7.9137 23.8884 7.7537 24.1084 7.7637 24.3784L7.8437 25.6884L6.7537 24.9384C6.5537 24.7984 6.2637 24.8284 6.1237 25.0584C6.0037 25.2684 6.0537 25.5484 6.3137 25.6884L7.5037 26.2784L6.3137 26.8484C6.0537 26.9784 5.9837 27.2784 6.1137 27.4984C6.2337 27.7084 6.5537 27.7584 6.7537 27.6184L7.8437 26.8784L7.7837 28.1784C7.7637 28.4384 7.9137 28.6684 8.2037 28.6684ZM15.7737 28.6684C16.0237 28.6684 16.2037 28.4384 16.1837 28.1784L16.1037 26.8784L17.1837 27.6184C17.3937 27.7584 17.6937 27.6984 17.8237 27.4984C17.9537 27.2884 17.8837 26.9584 17.6137 26.8484L16.4437 26.2784L17.6237 25.6884C17.8837 25.5684 17.9337 25.2684 17.8437 25.0584C17.7237 24.8384 17.3937 24.7984 17.1837 24.9384L16.1037 25.6884L16.2037 24.3784C16.2237 24.1084 16.0237 23.8884 15.7737 23.8884C15.4937 23.8884 15.3237 24.1084 15.3437 24.3784L15.4237 25.6884L14.3237 24.9384C14.1237 24.7984 13.8337 24.8284 13.7037 25.0584C13.5737 25.2684 13.6337 25.5484 13.8937 25.6884L15.0637 26.2784L13.8937 26.8484C13.6337 26.9784 13.5637 27.2784 13.6837 27.4984C13.8037 27.7084 14.1237 27.7584 14.3237 27.6184L15.4237 26.8784L15.3537 28.1784C15.3437 28.4384 15.4937 28.6684 15.7737 28.6684ZM5.2337 33.7984C5.4937 33.7984 5.6637 33.5684 5.6437 33.3084L5.5637 32.0084L6.6437 32.7484C6.8537 32.8784 7.1537 32.8284 7.2837 32.6184C7.4137 32.4184 7.3437 32.0984 7.0637 31.9784L5.9037 31.4084L7.0837 30.8184C7.3437 30.6984 7.3937 30.3884 7.3037 30.1884C7.1737 29.9684 6.8537 29.9284 6.6437 30.0684L5.5637 30.8184L5.6637 29.5084C5.6837 29.2284 5.4937 29.0084 5.2337 29.0084C4.9537 29.0084 4.7837 29.2284 4.8037 29.5084L4.8837 30.8184L3.7837 30.0684C3.5837 29.9284 3.2937 29.9584 3.1537 30.1884C3.0337 30.3884 3.0937 30.6784 3.3537 30.8184L4.5437 31.4084L3.3537 31.9784C3.0937 32.0984 3.0237 32.3984 3.1437 32.6184C3.2637 32.8384 3.5837 32.8784 3.7837 32.7484L4.8837 32.0084L4.8137 33.3084C4.8037 33.5684 4.9537 33.7984 5.2337 33.7984ZM12.8137 33.7984C13.0537 33.7984 13.2337 33.5684 13.2237 33.3084L13.1437 32.0084L14.2237 32.7484C14.4237 32.8784 14.7237 32.8284 14.8637 32.6184C14.9837 32.4184 14.9137 32.0984 14.6437 31.9784L13.4837 31.4084L14.6537 30.8184C14.9137 30.6984 14.9737 30.3884 14.8737 30.1884C14.7537 29.9684 14.4237 29.9284 14.2237 30.0684L13.1437 30.8184L13.2337 29.5084C13.2637 29.2284 13.0537 29.0084 12.8137 29.0084C12.5237 29.0084 12.3637 29.2284 12.3737 29.5084L12.4537 30.8184L11.3637 30.0684C11.1537 29.9284 10.8737 29.9584 10.7337 30.1884C10.6137 30.3884 10.6637 30.6784 10.9237 30.8184L12.1037 31.4084L10.9237 31.9784C10.6637 32.0984 10.5937 32.3984 10.7237 32.6184C10.8437 32.8384 11.1537 32.8784 11.3637 32.7484L12.4537 32.0084L12.3837 33.3084C12.3737 33.5684 12.5237 33.7984 12.8137 33.7984ZM20.3837 33.7984C20.6337 33.7984 20.8037 33.5684 20.7937 33.3084L20.7137 32.0084L21.7937 32.7484C21.9837 32.8784 22.3037 32.8284 22.4337 32.6184C22.5537 32.4184 22.4937 32.0984 22.2137 31.9784L21.0537 31.4084L22.2337 30.8184C22.4937 30.6984 22.5437 30.3884 22.4537 30.1884C22.3237 29.9684 21.9837 29.9284 21.7937 30.0684L20.7137 30.8184L20.8037 29.5084C20.8337 29.2284 20.6337 29.0084 20.3837 29.0084C20.0937 29.0084 19.9337 29.2284 19.9437 29.5084L20.0337 30.8184L18.9337 30.0684C18.7337 29.9284 18.4437 29.9584 18.3037 30.1884C18.1837 30.3884 18.2337 30.6784 18.4937 30.8184L19.6737 31.4084L18.4937 31.9784C18.2337 32.0984 18.1737 32.3984 18.2937 32.6184C18.4137 32.8384 18.7337 32.8784 18.9337 32.7484L20.0337 32.0084L19.9637 33.3084C19.9437 33.5684 20.0937 33.7984 20.3837 33.7984Z" /></svg>