
<svg
    viewBox="0 0 31.5546875 32.34765625"
    xmlns="http://www.w3.org/2000/svg"
>
    <path
        fill="inherit"
        d="M15.7737 5.8084C16.3937 5.7984 16.8837 5.2784 16.8837 4.5784V1.2184C16.8837 0.5084 16.3937 -0.0016 15.7737 -0.0016C15.1637 -0.0016 14.6737 0.5084 14.6737 1.2184V4.5784C14.6737 5.2784 15.1637 5.8284 15.7737 5.8084ZM22.8337 8.7184C23.2537 9.1484 23.9837 9.1484 24.4837 8.6384L26.8637 6.2584C27.3737 5.7584 27.3537 5.0584 26.9237 4.6184C26.5137 4.1884 25.8037 4.1884 25.2837 4.6884L22.9037 7.0684C22.4037 7.5784 22.3937 8.2984 22.8337 8.7184ZM8.7237 8.7184C9.1437 8.2884 9.1437 7.5784 8.6437 7.0684L6.2637 4.6884C5.7537 4.1884 5.0537 4.1984 4.6237 4.6184C4.1837 5.0484 4.1837 5.7584 4.6937 6.2584L7.0637 8.6384C7.5737 9.1484 8.3037 9.1584 8.7237 8.7184ZM2.9237 21.8384H30.6937C31.1737 21.8384 31.5537 21.4684 31.5537 20.9684C31.5537 20.4784 31.1737 20.1084 30.6937 20.1084H21.8337C22.7237 18.8984 23.2537 17.3884 23.2537 15.7784C23.2537 11.6784 19.8537 8.2884 15.7737 8.2884C11.6937 8.2884 8.3037 11.6784 8.3037 15.7784C8.3037 17.3884 8.8337 18.8984 9.7237 20.1084H2.9237C2.4337 20.1084 2.0637 20.4784 2.0637 20.9684C2.0637 21.4684 2.4337 21.8384 2.9237 21.8384ZM10.5037 15.7784C10.5037 12.8784 12.8837 10.4984 15.7737 10.4984C18.6737 10.4984 21.0537 12.8784 21.0537 15.7784C21.0537 17.5784 20.1237 19.1784 18.7137 20.1084H12.8237C11.4337 19.1784 10.5037 17.5784 10.5037 15.7784ZM1.2137 16.5284H4.5837C5.2937 16.5284 5.8237 16.0384 5.8137 15.4184C5.7937 14.8184 5.2937 14.3184 4.5837 14.3184H1.2137C0.5037 14.3184 0.0037 14.8084 0.0037 15.4184C0.0037 16.0384 0.5037 16.5284 1.2137 16.5284ZM26.9737 16.5284H30.3337C31.0537 16.5284 31.5537 16.0384 31.5537 15.4184C31.5537 14.8184 31.0537 14.3184 30.3337 14.3184H26.9737C26.2637 14.3184 25.7337 14.8084 25.7437 15.4184C25.7537 16.0384 26.2637 16.5284 26.9737 16.5284ZM0.8637 27.0984H28.6337C29.1037 27.0984 29.4937 26.7184 29.4937 26.2184C29.4937 25.7284 29.1037 25.3584 28.6337 25.3584H0.8637C0.3837 25.3584 0.0037 25.7284 0.0037 26.2184C0.0037 26.7184 0.3837 27.0984 0.8637 27.0984ZM2.9237 32.3484H30.6937C31.1737 32.3484 31.5537 31.9784 31.5537 31.4884C31.5537 30.9784 31.1737 30.6084 30.6937 30.6084H2.9237C2.4337 30.6084 2.0637 30.9784 2.0637 31.4884C2.0637 31.9784 2.4337 32.3484 2.9237 32.3484Z"
        fillRule="evenodd"
        clipRule="evenodd"
    />
</svg>
        