
<svg
    viewBox={0 0 27.890625 27.890625}
    xmlns="http://www.w3.org/2000/svg"
>
    <path
        fill="inherit"
        d="M13.9427 27.8864C21.6427 27.8864 27.8927 21.6464 27.8927 13.9464C27.8927 6.2464 21.6427 -0.0036 13.9427 -0.0036C6.2527 -0.0036 0.0027 6.2464 0.0027 13.9464C0.0027 21.6464 6.2527 27.8864 13.9427 27.8864ZM13.9427 25.5664C7.5227 25.5664 2.3227 20.3664 2.3227 13.9464C2.3227 7.5164 7.5227 2.3264 13.9427 2.3264C20.3727 2.3264 25.5627 7.5164 25.5627 13.9464C25.5627 20.3664 20.3727 25.5664 13.9427 25.5664ZM13.9327 8.3664C14.3527 8.3664 14.6927 7.9864 14.6927 7.5364V5.7664C14.6927 5.2864 14.3427 4.9464 13.9327 4.9464C13.5227 4.9464 13.1827 5.2864 13.1827 5.7664V7.5364C13.1827 7.9964 13.5127 8.3664 13.9327 8.3664ZM17.5127 10.2764C17.8127 10.5864 18.2927 10.5664 18.6227 10.2364L19.8627 8.9864C20.2027 8.6264 20.2227 8.1764 19.9327 7.8564C19.6327 7.5564 19.1427 7.5564 18.8127 7.9064L17.5427 9.1764C17.2027 9.5064 17.2027 9.9764 17.5127 10.2764ZM10.3627 10.2764C10.6827 9.9764 10.6527 9.4864 10.3227 9.1764L9.0527 7.9064C8.7127 7.5464 8.2327 7.5764 7.9427 7.8564C7.6427 8.1664 7.6527 8.6264 8.0027 8.9864L9.2527 10.2364C9.5827 10.5564 10.0627 10.5964 10.3627 10.2764ZM10.0927 15.1064H17.7727C17.9127 14.7064 18.0027 14.2764 18.0027 13.8464C18.0027 11.6164 16.1627 9.7664 13.9327 9.7664C11.7127 9.7664 9.8527 11.6164 9.8527 13.8464C9.8527 14.2764 9.9527 14.7064 10.0927 15.1064ZM8.8827 13.6764C8.8827 13.2464 8.5127 12.9164 8.0527 12.9164H6.2927C5.8227 12.9164 5.4727 13.2664 5.4727 13.6764C5.4727 14.0864 5.8227 14.4364 6.2927 14.4364H8.0527C8.5327 14.4364 8.8827 14.1064 8.8827 13.6764ZM18.9727 13.6764C18.9727 14.0964 19.3427 14.4364 19.8127 14.4364H21.5927C22.0527 14.4364 22.3927 14.0964 22.3927 13.6764C22.3927 13.2664 22.0527 12.9164 21.5927 12.9164H19.8127C19.3427 12.9164 18.9727 13.2464 18.9727 13.6764ZM6.2727 17.5964H21.6027C22.0127 17.5964 22.3927 17.2664 22.3927 16.8464C22.3927 16.4064 22.0227 16.1064 21.6027 16.1064H6.2727C5.8527 16.1064 5.4727 16.4164 5.4727 16.8464C5.4727 17.2664 5.8627 17.5964 6.2727 17.5964ZM7.2327 20.0264C7.6027 20.0264 7.8927 19.7264 7.8927 19.3764C7.8927 19.0164 7.6027 18.7164 7.2327 18.7164C6.8727 18.7164 6.5927 19.0164 6.5927 19.3764C6.5927 19.7264 6.8727 20.0264 7.2327 20.0264ZM10.5927 20.0264C10.9527 20.0264 11.2527 19.7264 11.2527 19.3764C11.2527 19.0164 10.9527 18.7164 10.5927 18.7164C10.2427 18.7164 9.9427 19.0164 9.9427 19.3764C9.9427 19.7264 10.2427 20.0264 10.5927 20.0264ZM13.9427 20.0264C14.3127 20.0264 14.6027 19.7264 14.6027 19.3764C14.6027 19.0164 14.3127 18.7164 13.9427 18.7164C13.5927 18.7164 13.3027 19.0164 13.3027 19.3764C13.3027 19.7264 13.5927 20.0264 13.9427 20.0264ZM17.3127 20.0264C17.6627 20.0264 17.9527 19.7264 17.9527 19.3764C17.9527 19.0164 17.6627 18.7164 17.3127 18.7164C16.9527 18.7164 16.6527 19.0164 16.6527 19.3764C16.6527 19.7264 16.9527 20.0264 17.3127 20.0264ZM20.6627 20.0264C21.0127 20.0264 21.3127 19.7264 21.3127 19.3764C21.3127 19.0164 21.0127 18.7164 20.6627 18.7164C20.3027 18.7164 20.0027 19.0164 20.0027 19.3764C20.0027 19.7264 20.3027 20.0264 20.6627 20.0264ZM8.9027 21.8564C9.2727 21.8564 9.5527 21.5764 9.5527 21.2164C9.5527 20.8664 9.2727 20.5664 8.9027 20.5664C8.5427 20.5664 8.2627 20.8664 8.2627 21.2164C8.2627 21.5764 8.5427 21.8564 8.9027 21.8564ZM12.2627 21.8564C12.6227 21.8564 12.9227 21.5764 12.9227 21.2164C12.9227 20.8664 12.6227 20.5664 12.2627 20.5664C11.9127 20.5664 11.6027 20.8664 11.6027 21.2164C11.6027 21.5764 11.9127 21.8564 12.2627 21.8564ZM15.6127 21.8564C15.9827 21.8564 16.2727 21.5764 16.2727 21.2164C16.2727 20.8664 15.9827 20.5664 15.6127 20.5664C15.2627 20.5664 14.9727 20.8664 14.9727 21.2164C14.9727 21.5764 15.2627 21.8564 15.6127 21.8564ZM18.9727 21.8564C19.3327 21.8564 19.6227 21.5764 19.6227 21.2164C19.6227 20.8664 19.3327 20.5664 18.9727 20.5664C18.6027 20.5664 18.3227 20.8664 18.3227 21.2164C18.3227 21.5764 18.6027 21.8564 18.9727 21.8564Z"
        fillRule="evenodd"
        clipRule="evenodd"
    />
</svg>
        