
<svg
    viewBox="0 0 35.041015625 22.33984375"
    xmlns="http://www.w3.org/2000/svg"
>
    <path
        fill="inherit"
        d="M17.5237 5.8074C18.1337 5.7974 18.6337 5.2774 18.6337 4.5774V1.2174C18.6337 0.5074 18.1337 -0.0026 17.5237 -0.0026C16.9137 -0.0026 16.4037 0.5074 16.4037 1.2174V4.5774C16.4037 5.2774 16.9137 5.8274 17.5237 5.8074ZM24.5637 8.7274C25.0037 9.1474 25.7337 9.1474 26.2237 8.6374L28.6037 6.2574C29.1237 5.7574 29.0937 5.0574 28.6737 4.6174C28.2437 4.1874 27.5337 4.1674 27.0337 4.6874L24.6537 7.0674C24.1437 7.5574 24.1337 8.2974 24.5637 8.7274ZM8.8137 8.6374C9.3137 9.1474 10.0537 9.1574 10.4737 8.7274C10.8937 8.2874 10.8937 7.5574 10.3937 7.0674L8.0137 4.6874C7.5037 4.1674 6.8037 4.1974 6.3737 4.6174C5.9337 5.0474 5.9237 5.7574 6.4437 6.2574ZM24.9237 15.7474C24.9237 11.7074 21.5737 8.3274 17.5237 8.3274C13.4637 8.3274 10.1137 11.7074 10.1137 15.7474C10.1137 16.7474 10.3237 17.6874 10.7037 18.5574H24.3337C24.7237 17.6874 24.9237 16.7474 24.9237 15.7474ZM2.9637 16.5274H6.3337C7.0437 16.5274 7.5737 16.0374 7.5637 15.4174C7.5437 14.8074 7.0237 14.3174 6.3337 14.3174H2.9637C2.2537 14.3174 1.7537 14.8074 1.7537 15.4174C1.7537 16.0374 2.2537 16.5274 2.9637 16.5274ZM28.7137 16.5274H32.0737C32.7837 16.5274 33.2937 16.0374 33.2937 15.4174C33.2937 14.8074 32.7837 14.3174 32.0737 14.3174H28.7137C28.0137 14.3174 27.4637 14.8074 27.4837 15.4174C27.4937 16.0374 28.0137 16.5274 28.7137 16.5274ZM1.1937 22.3374H33.8537C34.4937 22.3374 35.0437 21.8474 35.0437 21.2474C35.0437 20.6474 34.4937 20.1474 33.8537 20.1474H1.1937C0.5437 20.1474 0.0037 20.6474 0.0037 21.2474C0.0037 21.8474 0.5437 22.3374 1.1937 22.3374Z"
        fillRule="evenodd"
        clipRule="evenodd"
    />
</svg>
        