
<svg
    viewBox="0 0 29.572265625 29.654296875"
    xmlns="http://www.w3.org/2000/svg"
>
    <path
        fill="inherit"
        d="M14.7927 5.3151C15.4327 5.3151 15.9727 4.7851 15.9727 4.1251V1.1851C15.9727 0.5351 15.4327 -0.0049 14.7927 -0.0049C14.1327 -0.0049 13.6027 0.5351 13.6027 1.1851V4.1251C13.6027 4.7851 14.1327 5.3151 14.7927 5.3151ZM21.4927 8.1251C21.9527 8.5751 22.7127 8.5851 23.1727 8.1251L25.2627 6.0251C25.7127 5.5751 25.7127 4.8151 25.2627 4.3451C24.8127 3.8951 24.0527 3.8951 23.5927 4.3451L21.4927 6.4551C21.0427 6.9051 21.0427 7.6651 21.4927 8.1251ZM8.0627 8.1251C8.5127 7.6851 8.5127 6.8951 8.0827 6.4551L5.9927 4.3451C5.5527 3.9151 4.7727 3.8951 4.3227 4.3451C3.8727 4.8151 3.8727 5.5751 4.3027 6.0151L6.4027 8.1251C6.8527 8.5751 7.6027 8.5751 8.0627 8.1251ZM14.7827 21.7951C18.6227 21.7951 21.7427 18.6751 21.7427 14.8351C21.7427 10.9951 18.6227 7.8651 14.7827 7.8651C10.9327 7.8651 7.8227 10.9951 7.8227 14.8351C7.8227 18.6751 10.9327 21.7951 14.7827 21.7951ZM14.7827 19.7151V9.9351C17.4827 9.9351 19.6627 12.1251 19.6627 14.8351C19.6627 17.5451 17.4827 19.7151 14.7827 19.7151ZM24.2627 14.8351C24.2627 15.4751 24.8127 16.0051 25.4527 16.0051H28.3927C29.0427 16.0051 29.5727 15.4751 29.5727 14.8351C29.5727 14.1951 29.0427 13.6451 28.3927 13.6451H25.4527C24.8127 13.6451 24.2627 14.1951 24.2627 14.8351ZM5.3027 14.8351C5.3027 14.1951 4.7627 13.6451 4.1127 13.6451H1.1727C0.5327 13.6451 0.0027 14.1951 0.0027 14.8351C0.0027 15.4751 0.5327 16.0051 1.1727 16.0051H4.1127C4.7627 16.0051 5.3027 15.4751 5.3027 14.8351ZM8.0827 21.5451C7.6127 21.1051 6.8527 21.0951 6.4027 21.5451L4.3027 23.6351C3.8527 24.0851 3.8527 24.8451 4.2927 25.3051C4.7427 25.7451 5.5227 25.7751 5.9727 25.3251L8.0627 23.2151C8.5127 22.7651 8.5127 22.0151 8.0827 21.5451ZM21.4927 21.5451C21.0427 22.0151 21.0427 22.7651 21.4927 23.2151L23.5927 25.3351C24.0527 25.7851 24.8127 25.7551 25.2627 25.3251C25.7127 24.8551 25.7127 24.1051 25.2627 23.6551L23.1627 21.5451C22.7127 21.0951 21.9527 21.1051 21.4927 21.5451ZM14.7927 24.3451C14.1327 24.3451 13.6027 24.8851 13.6027 25.5251V28.4751C13.6027 29.1251 14.1327 29.6551 14.7927 29.6551C15.4327 29.6551 15.9727 29.1251 15.9727 28.4751V25.5251C15.9727 24.8851 15.4327 24.3451 14.7927 24.3451Z"
        fillRule="evenodd"
        clipRule="evenodd"
    />
</svg>
        