
<svg
    viewBox="0 0 27.890625 27.890625"
    xmlns="http://www.w3.org/2000/svg"
>
    <path
        fill="inherit"
        d="M13.9427 27.8864C21.6427 27.8864 27.8927 21.6464 27.8927 13.9464C27.8927 6.2464 21.6427 -0.0036 13.9427 -0.0036C6.2527 -0.0036 0.0027 6.2464 0.0027 13.9464C0.0027 21.6464 6.2527 27.8864 13.9427 27.8864ZM13.9427 25.5664C7.5227 25.5664 2.3227 20.3664 2.3227 13.9464C2.3227 7.5164 7.5227 2.3264 13.9427 2.3264C20.3727 2.3264 25.5627 7.5164 25.5627 13.9464C25.5627 20.3664 20.3727 25.5664 13.9427 25.5664ZM14.6927 7.5064V5.7264C14.6927 5.2664 14.3427 4.9264 13.9327 4.9264C13.5227 4.9264 13.1827 5.2664 13.1827 5.7264V7.5064C13.1827 7.9664 13.5127 8.3364 13.9327 8.3364C14.3527 8.3364 14.6927 7.9564 14.6927 7.5064ZM17.5127 10.2564C17.8127 10.5364 18.2927 10.5364 18.6227 10.1964L19.8627 8.9364C20.2027 8.5964 20.2227 8.1464 19.9327 7.8364C19.6327 7.5364 19.1427 7.5364 18.8127 7.8564L17.5427 9.1364C17.2027 9.4764 17.2027 9.9564 17.5127 10.2564ZM9.2527 10.1964C9.5827 10.5264 10.0627 10.5564 10.3627 10.2564C10.6827 9.9564 10.6527 9.4564 10.3227 9.1364L9.0527 7.8564C8.7127 7.5164 8.2427 7.5564 7.9427 7.8364C7.6527 8.1464 7.6527 8.5964 8.0027 8.9364ZM18.0027 13.8264C18.0027 11.5764 16.1627 9.7364 13.9327 9.7364C11.7127 9.7364 9.8527 11.5764 9.8527 13.8264C9.8527 14.2464 9.9527 14.6864 10.0927 15.0764H17.7727C17.9127 14.6864 18.0027 14.2464 18.0027 13.8264ZM6.2927 14.3964H8.0527C8.5327 14.3964 8.8827 14.0664 8.8827 13.6464C8.8827 13.2164 8.5127 12.8764 8.0527 12.8764H6.2927C5.8227 12.8764 5.4727 13.2364 5.4727 13.6464C5.4727 14.0564 5.8227 14.3964 6.2927 14.3964ZM19.8127 14.3964H21.5927C22.0527 14.3964 22.3927 14.0564 22.3927 13.6464C22.3927 13.2364 22.0527 12.8764 21.5927 12.8764H19.8127C19.3427 12.8764 18.9727 13.2164 18.9727 13.6464C18.9727 14.0664 19.3427 14.3964 19.8127 14.3964ZM6.2727 17.5664H21.6027C22.0127 17.5664 22.3927 17.2364 22.3927 16.8164C22.3927 16.3764 22.0227 16.0664 21.6027 16.0664H6.2727C5.8527 16.0664 5.4727 16.3764 5.4727 16.8164C5.4727 17.2364 5.8627 17.5664 6.2727 17.5664ZM9.4227 22.1864C9.6427 22.1864 9.8027 21.9864 9.7927 21.7664L9.7327 20.9464L10.4227 21.4064C10.5827 21.5364 10.8527 21.4764 10.9527 21.2964C11.0927 21.1364 11.0327 20.8464 10.7827 20.7364L10.0527 20.3864L10.7827 20.0064C11.0227 19.8764 11.0627 19.6564 10.9627 19.4664C10.8727 19.2764 10.5827 19.2364 10.4227 19.3464L9.7327 19.8264L9.7927 19.0164C9.8027 18.7764 9.6427 18.5764 9.4227 18.5764C9.1727 18.5764 9.0227 18.7764 9.0327 19.0064L9.0827 19.8264L8.3927 19.3464C8.2127 19.2364 7.9727 19.2664 7.8627 19.4664C7.7527 19.6364 7.7927 19.8764 8.0427 20.0164L8.7527 20.3864L8.0427 20.7364C7.7927 20.8464 7.7527 21.1064 7.8427 21.2864C7.9427 21.4964 8.2127 21.5364 8.3927 21.4064L9.0827 20.9464L9.0527 21.7664C9.0327 21.9864 9.1727 22.1864 9.4227 22.1864ZM13.9327 22.1864C14.1527 22.1864 14.3127 21.9864 14.3027 21.7664L14.2427 20.9464L14.9327 21.4064C15.0927 21.5364 15.3627 21.4764 15.4627 21.2964C15.6027 21.1364 15.5427 20.8464 15.3027 20.7364L14.5627 20.3864L15.3027 20.0064C15.5327 19.8764 15.5727 19.6564 15.4727 19.4664C15.3827 19.2764 15.0927 19.2364 14.9327 19.3464L14.2427 19.8264L14.3027 19.0164C14.3127 18.7764 14.1527 18.5764 13.9327 18.5764C13.6827 18.5764 13.5327 18.7764 13.5527 19.0064L13.5927 19.8264L12.9027 19.3464C12.7327 19.2364 12.4727 19.2664 12.3727 19.4664C12.2627 19.6364 12.3027 19.8764 12.5527 20.0164L13.2627 20.3864L12.5527 20.7364C12.3027 20.8464 12.2627 21.1064 12.3627 21.2864C12.4427 21.4964 12.7327 21.5364 12.9027 21.4064L13.5927 20.9464L13.5627 21.7664C13.5527 21.9864 13.6827 22.1864 13.9327 22.1864ZM18.4427 22.1864C18.6627 22.1864 18.8127 21.9864 18.8027 21.7664L18.7627 20.9464L19.4427 21.4064C19.6027 21.5364 19.8827 21.4764 19.9727 21.2964C20.1127 21.1364 20.0427 20.8464 19.8127 20.7364L19.0727 20.3864L19.8127 20.0064C20.0327 19.8764 20.0827 19.6564 19.9927 19.4664C19.8927 19.2764 19.6027 19.2364 19.4427 19.3464L18.7627 19.8264L18.8027 19.0164C18.8127 18.7764 18.6627 18.5764 18.4427 18.5764C18.1927 18.5764 18.0427 18.7764 18.0627 19.0064L18.1027 19.8264L17.4227 19.3464C17.2427 19.2364 16.9827 19.2664 16.8827 19.4664C16.7727 19.6364 16.8127 19.8764 17.0527 20.0164L17.7727 20.3864L17.0527 20.7364C16.8027 20.8464 16.7727 21.1064 16.8727 21.2864C16.9527 21.4964 17.2427 21.5364 17.4227 21.4064L18.1027 20.9464L18.0727 21.7664C18.0627 21.9864 18.1927 22.1864 18.4427 22.1864Z"
        fillRule="evenodd"
        clipRule="evenodd"
    />
</svg>
        