
<svg
    viewBox="0 0 31.5546875 32.89453125"
    xmlns="http://www.w3.org/2000/svg"
>
    <path
        fill="inherit"
        d="M15.7737 5.8084C16.3937 5.7984 16.8837 5.2784 16.8837 4.5784V1.2184C16.8837 0.5084 16.3937 -0.0016 15.7737 -0.0016C15.1637 -0.0016 14.6737 0.5084 14.6737 1.2184V4.5784C14.6737 5.2784 15.1637 5.8284 15.7737 5.8084ZM22.8337 8.7184C23.2537 9.1484 23.9837 9.1484 24.4837 8.6384L26.8637 6.2584C27.3737 5.7584 27.3537 5.0584 26.9237 4.6184C26.5137 4.1884 25.8037 4.1884 25.2837 4.6884L22.9037 7.0684C22.4037 7.5784 22.3937 8.2984 22.8337 8.7184ZM8.7237 8.7184C9.1437 8.2884 9.1437 7.5784 8.6437 7.0684L6.2637 4.6884C5.7537 4.1884 5.0537 4.1984 4.6237 4.6184C4.1837 5.0484 4.1837 5.7584 4.6937 6.2584L7.0637 8.6384C7.5737 9.1484 8.3037 9.1584 8.7237 8.7184ZM1.8637 21.8384H29.6237C30.1237 21.8384 30.4837 21.4684 30.4837 20.9684C30.4837 20.4784 30.1237 20.1084 29.6237 20.1084H21.8337C22.7237 18.8984 23.2537 17.3884 23.2537 15.7784C23.2537 11.6784 19.8537 8.2884 15.7737 8.2884C11.6937 8.2884 8.3037 11.6784 8.3037 15.7784C8.3037 17.3884 8.8337 18.8984 9.7237 20.1084H1.8637C1.3837 20.1084 0.9937 20.4784 0.9937 20.9684C0.9937 21.4684 1.3837 21.8384 1.8637 21.8384ZM10.5037 15.7784C10.5037 12.8784 12.8837 10.4984 15.7737 10.4984C18.6737 10.4984 21.0537 12.8784 21.0537 15.7784C21.0537 17.5784 20.1237 19.1784 18.7137 20.1084H12.8237C11.4337 19.1784 10.5037 17.5784 10.5037 15.7784ZM1.2137 16.5284H4.5837C5.2937 16.5284 5.8237 16.0384 5.8137 15.4184C5.7937 14.8184 5.2937 14.3184 4.5837 14.3184H1.2137C0.5037 14.3184 0.0037 14.8084 0.0037 15.4184C0.0037 16.0384 0.5037 16.5284 1.2137 16.5284ZM26.9737 16.5284H30.3337C31.0537 16.5284 31.5537 16.0384 31.5537 15.4184C31.5537 14.8184 31.0537 14.3184 30.3337 14.3184H26.9737C26.2637 14.3184 25.7337 14.8084 25.7437 15.4184C25.7537 16.0384 26.2637 16.5284 26.9737 16.5284ZM3.0937 26.2684C3.4837 26.2684 3.7837 25.9484 3.7837 25.5684C3.7837 25.1684 3.4837 24.8584 3.0937 24.8584C2.6937 24.8584 2.3937 25.1684 2.3937 25.5684C2.3937 25.9484 2.6937 26.2684 3.0937 26.2684ZM8.8637 26.2684C9.2537 26.2684 9.5737 25.9484 9.5737 25.5684C9.5737 25.1684 9.2537 24.8584 8.8637 24.8584C8.4737 24.8584 8.1637 25.1684 8.1637 25.5684C8.1637 25.9484 8.4737 26.2684 8.8637 26.2684ZM14.6437 26.2684C15.0437 26.2684 15.3437 25.9484 15.3437 25.5684C15.3437 25.1684 15.0437 24.8584 14.6437 24.8584C14.2437 24.8584 13.9437 25.1684 13.9437 25.5684C13.9437 25.9484 14.2437 26.2684 14.6437 26.2684ZM20.4137 26.2684C20.8037 26.2684 21.1237 25.9484 21.1237 25.5684C21.1237 25.1684 20.8037 24.8584 20.4137 24.8584C20.0337 24.8584 19.7137 25.1684 19.7137 25.5684C19.7137 25.9484 20.0337 26.2684 20.4137 26.2684ZM26.1937 26.2684C26.5937 26.2684 26.8937 25.9484 26.8937 25.5684C26.8937 25.1684 26.5937 24.8584 26.1937 24.8584C25.8037 24.8584 25.4937 25.1684 25.4937 25.5684C25.4937 25.9484 25.8037 26.2684 26.1937 26.2684ZM1.3437 29.5684C1.7337 29.5684 2.0537 29.2684 2.0537 28.8784C2.0537 28.4784 1.7337 28.1784 1.3437 28.1784C0.9537 28.1784 0.6437 28.4784 0.6437 28.8784C0.6437 29.2684 0.9537 29.5684 1.3437 29.5684ZM7.1237 29.5684C7.5037 29.5684 7.8237 29.2684 7.8237 28.8784C7.8237 28.4784 7.5037 28.1784 7.1237 28.1784C6.7237 28.1784 6.4137 28.4784 6.4137 28.8784C6.4137 29.2684 6.7237 29.5684 7.1237 29.5684ZM12.8937 29.5684C13.2937 29.5684 13.6037 29.2684 13.6037 28.8784C13.6037 28.4784 13.2937 28.1784 12.8937 28.1784C12.5137 28.1784 12.1937 28.4784 12.1937 28.8784C12.1937 29.2684 12.5137 29.5684 12.8937 29.5684ZM18.6737 29.5684C19.0537 29.5684 19.3737 29.2684 19.3737 28.8784C19.3737 28.4784 19.0537 28.1784 18.6737 28.1784C18.2837 28.1784 17.9637 28.4784 17.9637 28.8784C17.9637 29.2684 18.2837 29.5684 18.6737 29.5684ZM24.4437 29.5684C24.8437 29.5684 25.1537 29.2684 25.1537 28.8784C25.1537 28.4784 24.8437 28.1784 24.4437 28.1784C24.0637 28.1784 23.7437 28.4784 23.7437 28.8784C23.7437 29.2684 24.0637 29.5684 24.4437 29.5684ZM30.2237 29.5684C30.6137 29.5684 30.9237 29.2684 30.9237 28.8784C30.9237 28.4784 30.6137 28.1784 30.2237 28.1784C29.8337 28.1784 29.5137 28.4784 29.5137 28.8784C29.5137 29.2684 29.8337 29.5684 30.2237 29.5684ZM5.3737 32.8984C5.7737 32.8984 6.0737 32.5784 6.0737 32.1984C6.0737 31.7984 5.7737 31.4884 5.3737 31.4884C4.9737 31.4884 4.6737 31.7984 4.6737 32.1984C4.6737 32.5784 4.9737 32.8984 5.3737 32.8984ZM11.1537 32.8984C11.5437 32.8984 11.8537 32.5784 11.8537 32.1984C11.8537 31.7984 11.5437 31.4884 11.1537 31.4884C10.7637 31.4884 10.4437 31.7984 10.4437 32.1984C10.4437 32.5784 10.7637 32.8984 11.1537 32.8984ZM16.9237 32.8984C17.3237 32.8984 17.6237 32.5784 17.6237 32.1984C17.6237 31.7984 17.3237 31.4884 16.9237 31.4884C16.5337 31.4884 16.2237 31.7984 16.2237 32.1984C16.2237 32.5784 16.5337 32.8984 16.9237 32.8984ZM22.7137 32.8984C23.0937 32.8984 23.4037 32.5784 23.4037 32.1984C23.4037 31.7984 23.0937 31.4884 22.7137 31.4884C22.3137 31.4884 21.9937 31.7984 21.9937 32.1984C21.9937 32.5784 22.3137 32.8984 22.7137 32.8984ZM28.4737 32.8984C28.8737 32.8984 29.1737 32.5784 29.1737 32.1984C29.1737 31.7984 28.8737 31.4884 28.4737 31.4884C28.0837 31.4884 27.7837 31.7984 27.7837 32.1984C27.7837 32.5784 28.0837 32.8984 28.4737 32.8984Z"
        fillRule="evenodd"
        clipRule="evenodd"
    />
</svg>
        