<svg viewBox="0 0 31.5546875 32.54617243643422" xmlns="http://www.w3.org/2000/svg"><path d="M15.7737 5.8084C16.3937 5.7984 16.8837 5.2784 16.8837 4.5784V1.2184C16.8837 0.5084 16.3937 -0.0016 15.7737 -0.0016C15.1637 -0.0016 14.6737 0.5084 14.6737 1.2184V4.5784C14.6737 5.2784 15.1637 5.8284 15.7737 5.8084ZM22.8337 8.7184C23.2537 9.1484 23.9837 9.1484 24.4837 8.6384L26.8637 6.2584C27.3737 5.7584 27.3537 5.0584 26.9237 4.6184C26.5137 4.1884 25.8037 4.1884 25.2837 4.6884L22.9037 7.0684C22.4037 7.5784 22.3937 8.2984 22.8337 8.7184ZM8.7237 8.7184C9.1437 8.2884 9.1437 7.5784 8.6437 7.0684L6.2637 4.6884C5.7537 4.1884 5.0537 4.1984 4.6237 4.6184C4.1837 5.0484 4.1837 5.7584 4.6937 6.2584L7.0637 8.6384C7.5737 9.1484 8.3037 9.1584 8.7237 8.7184ZM23.1837 15.7484C23.1837 11.7184 19.8237 8.3384 15.7737 8.3384C11.7337 8.3384 8.3637 11.7184 8.3637 15.7484C8.3637 16.7384 8.5837 17.6784 8.9437 18.5084H22.6037C22.9737 17.6784 23.1837 16.7384 23.1837 15.7484ZM1.2137 16.5284H4.5837C5.2937 16.5284 5.8237 16.0384 5.8137 15.4184C5.7937 14.8184 5.2937 14.3184 4.5837 14.3184H1.2137C0.5037 14.3184 0.0037 14.8084 0.0037 15.4184C0.0037 16.0384 0.5037 16.5284 1.2137 16.5284ZM26.9737 16.5284H30.3337C31.0537 16.5384 31.5537 16.0384 31.5537 15.4184C31.5537 14.8184 31.0537 14.3184 30.3337 14.3184H26.9737C26.2637 14.3184 25.7337 14.8084 25.7437 15.4184C25.7537 16.0384 26.2637 16.5284 26.9737 16.5284ZM1.8637 21.8384H29.6237C30.1237 21.8384 30.4837 21.4684 30.4837 20.9684C30.4837 20.4784 30.1237 20.1084 29.6237 20.1084H1.8637C1.3837 20.1084 0.9937 20.4784 0.9937 20.9684C0.9937 21.4684 1.3837 21.8384 1.8637 21.8384ZM18.3237 28.2184L20.1137 25.1384C20.3537 24.7184 20.2237 24.2384 19.8137 23.9984C19.4037 23.7584 18.9337 23.8984 18.6737 24.3084L16.8837 27.4284C16.6537 27.8184 16.7737 28.2984 17.2037 28.5284C17.5937 28.7684 18.0837 28.6284 18.3237 28.2184ZM21.5037 32.1184L25.5437 25.1184C25.7837 24.7184 25.6637 24.2584 25.2637 24.0084C24.8737 23.7784 24.3737 23.8984 24.1337 24.3084L20.1237 31.2784C19.8937 31.7084 20.0037 32.1884 20.4137 32.4184C20.8037 32.6484 21.2737 32.5284 21.5037 32.1184ZM7.4537 28.2284L9.2237 25.1584C9.4737 24.7284 9.3337 24.2584 8.9437 24.0084C8.5137 23.7784 8.0537 23.9084 7.8037 24.3184L6.0137 27.4384C5.7837 27.8384 5.8937 28.3184 6.3137 28.5484C6.7237 28.7784 7.2237 28.6384 7.4537 28.2284ZM10.6237 32.1284L14.6737 25.1284C14.9037 24.7284 14.7837 24.2684 14.3837 24.0184C14.0037 23.7884 13.4937 23.9084 13.2637 24.3184L9.2437 31.2984C9.0137 31.7184 9.1337 32.1984 9.5437 32.4284C9.9237 32.6584 10.3937 32.5384 10.6237 32.1284Z" /></svg>