
<svg
    viewBox={0 0 27.890625 27.890625}
    xmlns="http://www.w3.org/2000/svg"
>
    <path
        fill="inherit"
        d="M13.9427 27.8864C21.6427 27.8864 27.8927 21.6464 27.8927 13.9464C27.8927 6.2464 21.6427 -0.0036 13.9427 -0.0036C6.2527 -0.0036 0.0027 6.2464 0.0027 13.9464C0.0027 21.6464 6.2527 27.8864 13.9427 27.8864ZM13.9427 25.5664C7.5227 25.5664 2.3227 20.3664 2.3227 13.9464C2.3227 7.5164 7.5227 2.3264 13.9427 2.3264C20.3727 2.3264 25.5627 7.5164 25.5627 13.9464C25.5627 20.3664 20.3727 25.5664 13.9427 25.5664ZM13.9327 8.4064C14.3527 8.4064 14.6927 8.0264 14.6927 7.5764V5.7964C14.6927 5.3364 14.3427 4.9864 13.9327 4.9864C13.5227 4.9864 13.1827 5.3364 13.1827 5.7964V7.5764C13.1827 8.0364 13.5127 8.4064 13.9327 8.4064ZM17.5127 10.3264C17.8127 10.6064 18.2927 10.6064 18.6227 10.2664L19.8627 9.0064C20.2027 8.6664 20.2227 8.2164 19.9327 7.9064C19.6327 7.6064 19.1427 7.6064 18.8127 7.9264L17.5427 9.1964C17.2027 9.5464 17.2027 10.0264 17.5127 10.3264ZM10.3627 10.3264C10.6827 10.0264 10.6527 9.5264 10.3227 9.1964L9.0527 7.9264C8.7127 7.5864 8.2327 7.6164 7.9427 7.9064C7.6427 8.2064 7.6527 8.6664 8.0027 9.0064L9.2527 10.2664C9.5827 10.5964 10.0627 10.6264 10.3627 10.3264ZM10.0927 15.1464H17.7727C17.9127 14.7564 18.0027 14.3164 18.0027 13.8864C18.0027 11.6664 16.1627 9.8064 13.9327 9.8064C11.7127 9.8064 9.8527 11.6664 9.8527 13.8864C9.8527 14.3164 9.9527 14.7564 10.0927 15.1464ZM8.8827 13.7164C8.8827 13.2864 8.5127 12.9464 8.0527 12.9464H6.2927C5.8227 12.9464 5.4727 13.3064 5.4727 13.7164C5.4727 14.1264 5.8227 14.4664 6.2927 14.4664H8.0527C8.5327 14.4664 8.8827 14.1364 8.8827 13.7164ZM18.9727 13.7164C18.9727 14.1364 19.3427 14.4664 19.8127 14.4664H21.5927C22.0527 14.4664 22.3927 14.1264 22.3927 13.7164C22.3927 13.3064 22.0527 12.9464 21.5927 12.9464H19.8127C19.3427 12.9464 18.9727 13.2864 18.9727 13.7164ZM7.2327 17.1064H21.9127C22.1927 17.1064 22.3927 16.8964 22.3927 16.6264C22.3927 16.3364 22.1927 16.1364 21.9127 16.1364H7.2327C6.9627 16.1364 6.7527 16.3564 6.7527 16.6264C6.7527 16.8964 6.9627 17.1064 7.2327 17.1064ZM5.9627 18.9764H20.6327C20.9027 18.9764 21.1127 18.7764 21.1127 18.4964C21.1127 18.2064 20.9027 18.0064 20.6327 18.0064H5.9627C5.6827 18.0064 5.4727 18.2264 5.4727 18.4964C5.4727 18.7764 5.6827 18.9764 5.9627 18.9764ZM7.2327 20.8464H21.9127C22.1927 20.8464 22.3927 20.6464 22.3927 20.3664C22.3927 20.0864 22.1927 19.8764 21.9127 19.8764H7.2327C6.9627 19.8764 6.7527 20.0964 6.7527 20.3664C6.7527 20.6464 6.9627 20.8464 7.2327 20.8464Z"
        fillRule="evenodd"
        clipRule="evenodd"
    />
</svg>
        