
<svg
    viewBox="0 0 42.259765625 14.24609375"
    xmlns="http://www.w3.org/2000/svg"
>
    <path
        fill="inherit"
        d="M21.1327 5.1141C21.6027 5.1141 22.0127 5.3841 22.2427 5.8941L23.7227 9.1641C25.3627 12.7241 28.3527 14.2441 31.6527 14.2441C36.4627 14.2441 39.8527 11.2841 40.6327 6.0541L40.8927 4.3641C41.1627 2.5141 42.2627 1.9241 42.2627 1.1341C42.2627 0.4341 41.7527 0.0041 40.8127 0.0041C36.5027 0.0041 32.5927 0.2141 30.2727 0.5641C25.3927 1.2841 23.4727 2.5341 21.1327 2.5341C18.7827 2.5341 16.8727 1.2841 11.9927 0.5641C9.6627 0.2141 5.7527 0.0041 1.4627 0.0041C0.5227 0.0041 0.0027 0.4341 0.0027 1.1341C0.0027 1.9241 1.1027 2.5141 1.3827 4.3641L1.6427 6.0541C2.4027 11.2841 5.7927 14.2441 10.6227 14.2441C13.9227 14.2441 16.9127 12.7241 18.5427 9.1641L20.0327 5.8941C20.2527 5.3841 20.6627 5.1141 21.1327 5.1141Z"
        fillRule="evenodd"
        clipRule="evenodd"
    />
</svg>
        