<svg viewBox="0 0 27.890625 27.890625" xmlns="http://www.w3.org/2000/svg"><path d="M13.9427 27.8927C21.6427 27.8927 27.8927 21.6427 27.8927 13.9427C27.8927 6.2627 21.6427 0.0027 13.9427 0.0027C6.2627 0.0027 0.0027 6.2627 0.0027 13.9427C0.0027 21.6427 6.2627 27.8927 13.9427 27.8927ZM13.9327 11.0727C13.5227 11.0727 13.1927 10.7227 13.1927 10.2927V7.7227L13.2327 7.2427L13.1627 7.3127L12.2127 8.2627C12.0727 8.3827 11.8827 8.4627 11.7027 8.4627C11.3327 8.4627 11.0727 8.2027 11.0727 7.8327C11.0727 7.6527 11.1327 7.4927 11.2927 7.3327L13.4427 5.3227C13.6027 5.1727 13.7627 5.1027 13.9327 5.1027C14.0927 5.1027 14.2627 5.1727 14.4227 5.3227L16.5727 7.3327C16.7527 7.4927 16.7927 7.6527 16.7927 7.8327C16.7927 8.2027 16.5327 8.4627 16.1627 8.4627C15.9827 8.4627 15.7727 8.3927 15.6727 8.2627L14.8027 7.3727L14.6327 7.2027L14.6727 7.7227V10.2927C14.6727 10.7227 14.3427 11.0727 13.9327 11.0727ZM17.3727 12.9227C17.0727 12.6327 17.0927 12.1727 17.4227 11.8427L18.6227 10.6227C18.9527 10.3127 19.4127 10.2927 19.7027 10.5927C19.9727 10.8927 19.9627 11.3327 19.6427 11.6727L18.4427 12.8927C18.1127 13.2027 17.6627 13.2027 17.3727 12.9227ZM9.4327 12.8927L8.2127 11.6727C7.8927 11.3327 7.8927 10.8927 8.1627 10.5927C8.4527 10.3227 8.9127 10.2927 9.2427 10.6227L10.4627 11.8427C10.7627 12.1527 10.8027 12.6327 10.5127 12.9227C10.2227 13.2227 9.7527 13.1927 9.4327 12.8927ZM17.8527 16.3427C17.8527 16.7627 17.7727 17.1827 17.6227 17.5827H10.2427C10.0927 17.1827 10.0127 16.7627 10.0127 16.3427C10.0127 14.2027 11.8027 12.4227 13.9327 12.4227C16.0827 12.4227 17.8527 14.2027 17.8527 16.3427ZM6.5727 16.9127C6.1227 16.9127 5.7827 16.5827 5.7827 16.1827C5.7827 15.7927 6.1227 15.4527 6.5727 15.4527H8.2827C8.7327 15.4527 9.0827 15.7727 9.0827 16.1827C9.0827 16.5927 8.7327 16.9127 8.2827 16.9127ZM19.5927 16.9127C19.1427 16.9127 18.7827 16.5927 18.7827 16.1827C18.7827 15.7727 19.1427 15.4527 19.5927 15.4527H21.2827C21.7527 15.4527 22.0827 15.7727 22.0827 16.1827C22.0827 16.5827 21.7527 16.9127 21.2827 16.9127ZM6.5627 19.8927C6.1627 19.8927 5.7827 19.5827 5.7827 19.1727C5.7827 18.7627 6.1527 18.4427 6.5627 18.4427H21.3027C21.7227 18.4427 22.0827 18.7627 22.0827 19.1727C22.0827 19.5827 21.7127 19.8927 21.3027 19.8927Z" /></svg>