
<svg
    viewBox={0 0 35.041015625 28.533203125}
    xmlns="http://www.w3.org/2000/svg"
>
    <path
        fill="inherit"
        d="M17.5237 11.1545C18.1337 11.1545 18.6337 10.6245 18.6337 9.9545V4.8245L18.4737 2.7645L19.4837 3.9245L21.1937 5.6645C21.3937 5.8545 21.6537 5.9745 21.9137 5.9745C22.4637 5.9745 22.8637 5.5945 22.8637 5.0545C22.8637 4.7745 22.7637 4.5545 22.5337 4.3345L18.2637 0.3545C17.9737 0.0945 17.7737 0.0045 17.5237 0.0045C17.2637 0.0045 17.0637 0.0945 16.7737 0.3545L12.5137 4.3345C12.2737 4.5545 12.1837 4.7745 12.1837 5.0545C12.1837 5.5945 12.5737 5.9745 13.1237 5.9745C13.3837 5.9745 13.6437 5.8545 13.8537 5.6645L15.6937 3.7845L16.5737 2.7645L16.4037 4.8245V9.9545C16.4037 10.6245 16.9137 11.1545 17.5237 11.1545ZM24.5637 14.9545C25.0037 15.3845 25.7337 15.3845 26.2237 14.8745L28.6037 12.4945C29.1237 11.9945 29.0937 11.2945 28.6737 10.8545C28.2437 10.4145 27.5337 10.4145 27.0337 10.9245L24.6537 13.3045C24.1437 13.7945 24.1337 14.5345 24.5637 14.9545ZM10.4737 14.9545C10.8937 14.5145 10.8937 13.7945 10.3937 13.3045L8.0137 10.9245C7.5037 10.4145 6.8037 10.4345 6.3737 10.8545C5.9337 11.2745 5.9237 11.9945 6.4437 12.4945L8.8137 14.8745C9.3137 15.3845 10.0537 15.3945 10.4737 14.9545ZM1.1937 28.5345H33.8537C34.4937 28.5345 35.0437 28.0445 35.0437 27.4345C35.0437 26.8345 34.4937 26.3445 33.8537 26.3445H23.5737C24.4737 25.1245 24.9937 23.6245 24.9937 22.0145C24.9937 17.9145 21.6037 14.5145 17.5237 14.5145C13.4437 14.5145 10.0537 17.9145 10.0537 22.0145C10.0537 23.6245 10.5637 25.1245 11.4737 26.3445H1.1937C0.5437 26.3445 0.0037 26.8345 0.0037 27.4345C0.0037 28.0445 0.5437 28.5345 1.1937 28.5345ZM12.2337 22.0145C12.2337 19.1145 14.6337 16.7245 17.5237 16.7245C20.4137 16.7245 22.8037 19.1145 22.8037 22.0145C22.8037 23.8145 21.8637 25.4145 20.4637 26.3445H14.5737C13.1837 25.4145 12.2337 23.8145 12.2337 22.0145ZM2.9637 22.7645H6.3337C7.0437 22.7645 7.5737 22.2745 7.5637 21.6545C7.5437 21.0445 7.0237 20.5445 6.3337 20.5445H2.9637C2.2537 20.5445 1.7537 21.0445 1.7537 21.6545C1.7537 22.2745 2.2537 22.7645 2.9637 22.7645ZM28.7137 22.7645H32.0737C32.7837 22.7645 33.2937 22.2745 33.2937 21.6545C33.2937 21.0445 32.7837 20.5445 32.0737 20.5445H28.7137C28.0137 20.5445 27.4637 21.0445 27.4837 21.6545C27.4937 22.2745 28.0137 22.7645 28.7137 22.7645Z"
        fillRule="evenodd"
        clipRule="evenodd"
    />
</svg>
        