
<svg
    viewBox="0 0 35.041015625 28.533203125"
    xmlns="http://www.w3.org/2000/svg"
>
    <path
        fill="inherit"
        d="M17.5237 11.1545C18.1337 11.1545 18.6337 10.6245 18.6337 9.9545V4.8245L18.4737 2.7645L19.4837 3.9245L21.1937 5.6645C21.3937 5.8545 21.6537 5.9745 21.9137 5.9745C22.4637 5.9745 22.8637 5.5945 22.8637 5.0545C22.8637 4.7745 22.7637 4.5545 22.5337 4.3345L18.2637 0.3545C17.9737 0.0945 17.7737 0.0045 17.5237 0.0045C17.2637 0.0045 17.0637 0.0945 16.7737 0.3545L12.5137 4.3345C12.2737 4.5545 12.1837 4.7745 12.1837 5.0545C12.1837 5.5945 12.5737 5.9745 13.1237 5.9745C13.3837 5.9745 13.6437 5.8545 13.8537 5.6645L15.6937 3.7845L16.5737 2.7645L16.4037 4.8245V9.9545C16.4037 10.6245 16.9137 11.1545 17.5237 11.1545ZM24.5637 14.9145C25.0037 15.3445 25.7337 15.3445 26.2237 14.8345L28.6037 12.4545C29.1237 11.9445 29.0937 11.2545 28.6737 10.8145C28.2437 10.3745 27.5337 10.3745 27.0337 10.8845L24.6537 13.2645C24.1437 13.7545 24.1337 14.4945 24.5637 14.9145ZM8.8137 14.8345C9.3137 15.3445 10.0537 15.3545 10.4737 14.9145C10.8937 14.4745 10.8937 13.7545 10.3937 13.2645L8.0137 10.8845C7.5037 10.3745 6.8037 10.3945 6.3737 10.8145C5.9337 11.2345 5.9237 11.9445 6.4437 12.4545ZM24.9237 21.9445C24.9237 17.9145 21.5737 14.5345 17.5237 14.5345C13.4637 14.5345 10.1137 17.9145 10.1137 21.9445C10.1137 22.9445 10.3237 23.8945 10.7037 24.7445H24.3337C24.7237 23.8945 24.9237 22.9445 24.9237 21.9445ZM2.9637 22.7245H6.3337C7.0437 22.7245 7.5737 22.2345 7.5637 21.6145C7.5437 21.0045 7.0237 20.5045 6.3337 20.5045H2.9637C2.2537 20.5045 1.7537 21.0045 1.7537 21.6145C1.7537 22.2345 2.2537 22.7245 2.9637 22.7245ZM28.7137 22.7245H32.0737C32.7837 22.7245 33.2937 22.2345 33.2937 21.6145C33.2937 21.0045 32.7837 20.5045 32.0737 20.5045H28.7137C28.0137 20.5045 27.4637 21.0045 27.4837 21.6145C27.4937 22.2345 28.0137 22.7245 28.7137 22.7245ZM1.1937 28.5345H33.8537C34.4937 28.5345 35.0437 28.0445 35.0437 27.4345C35.0437 26.8345 34.4937 26.3445 33.8537 26.3445H1.1937C0.5437 26.3445 0.0037 26.8345 0.0037 27.4345C0.0037 28.0445 0.5437 28.5345 1.1937 28.5345Z"
        fillRule="evenodd"
        clipRule="evenodd"
    />
</svg>
        