
<svg
    viewBox="0 0 27.890625 27.890625"
    xmlns="http://www.w3.org/2000/svg"
>
    <path
        fill="inherit"
        d="M13.9427 27.8927C21.6427 27.8927 27.8927 21.6427 27.8927 13.9427C27.8927 6.2627 21.6427 0.0027 13.9427 0.0027C6.2627 0.0027 0.0027 6.2627 0.0027 13.9427C0.0027 21.6427 6.2627 27.8927 13.9427 27.8927ZM13.9427 5.1027C14.3527 5.1027 14.6827 5.4527 14.6827 5.8827V8.4627L14.6427 8.9827L14.8227 8.8027L15.6827 7.9127C15.7927 7.7927 15.9927 7.7127 16.1727 7.7127C16.5427 7.7127 16.8027 7.9827 16.8027 8.3427C16.8027 8.5327 16.7627 8.6827 16.5827 8.8627L14.4327 10.8527C14.2727 11.0027 14.1127 11.0727 13.9427 11.0727C13.7827 11.0727 13.6127 11.0027 13.4527 10.8527L11.3027 8.8627C11.1427 8.6827 11.0927 8.5327 11.0927 8.3427C11.0927 7.9827 11.3427 7.7127 11.7127 7.7127C11.8927 7.7127 12.0827 7.7927 12.2227 7.9327L13.1827 8.8627L13.2527 8.9427L13.2027 8.4627V5.8827C13.2027 5.4527 13.5327 5.1027 13.9427 5.1027ZM17.3927 12.9227C17.0927 12.6327 17.1027 12.1727 17.4327 11.8427L18.6327 10.6227C18.9627 10.3127 19.4327 10.2927 19.7127 10.5927C19.9927 10.8927 19.9727 11.3327 19.6627 11.6727L18.4527 12.8927C18.1327 13.2027 17.6827 13.2027 17.3927 12.9227ZM9.4427 12.8927L8.2327 11.6727C7.9027 11.3327 7.9027 10.8927 8.1727 10.5927C8.4627 10.3227 8.9327 10.2927 9.2527 10.6227L10.4727 11.8427C10.7727 12.1527 10.8127 12.6327 10.5227 12.9227C10.2427 13.2227 9.7627 13.1927 9.4427 12.8927ZM17.8727 16.3427C17.8727 16.7627 17.7827 17.1827 17.6327 17.5827H10.2527C10.1027 17.1827 10.0227 16.7627 10.0227 16.3427C10.0227 14.2027 11.8127 12.4227 13.9427 12.4227C16.0927 12.4227 17.8727 14.2027 17.8727 16.3427ZM6.5927 16.9127C6.1427 16.9127 5.7927 16.5827 5.7927 16.1827C5.7927 15.7927 6.1427 15.4527 6.5927 15.4527H8.3027C8.7527 15.4527 9.0927 15.7727 9.0927 16.1827C9.0927 16.5927 8.7527 16.9127 8.3027 16.9127ZM19.6027 16.9127C19.1527 16.9127 18.8027 16.5927 18.8027 16.1827C18.8027 15.7727 19.1527 15.4527 19.6027 15.4527H21.3027C21.7627 15.4527 22.0927 15.7727 22.0927 16.1827C22.0927 16.5827 21.7627 16.9127 21.3027 16.9127ZM6.5727 19.8927C6.1827 19.8927 5.7927 19.5827 5.7927 19.1727C5.7927 18.7627 6.1627 18.4427 6.5727 18.4427H21.3127C21.7427 18.4427 22.0927 18.7627 22.0927 19.1727C22.0927 19.5827 21.7227 19.8927 21.3127 19.8927Z"
        fillRule="evenodd"
        clipRule="evenodd"
    />
</svg>
        