
<svg
    viewBox={0 0 11.18359375 31.69140625}
    xmlns="http://www.w3.org/2000/svg"
>
    <path
        fill="inherit"
        d="M0.9737 10.4968H10.2237C10.7637 10.4968 11.1837 10.0668 11.1837 9.5268C11.1837 8.9968 10.7637 8.5768 10.2237 8.5768H7.7537C9.1737 7.8068 10.1437 6.3068 10.1437 4.5568C10.1437 2.0368 8.1037 -0.0032 5.5937 -0.0032C3.0737 -0.0032 1.0437 2.0368 1.0437 4.5568C1.0437 6.2868 2.0137 7.8068 3.4437 8.5768H0.9737C0.4237 8.5768 0.0037 8.9968 0.0037 9.5268C0.0037 10.0668 0.4237 10.4968 0.9737 10.4968ZM5.5937 7.3168C4.0637 7.3168 2.8337 6.0868 2.8337 4.5568C2.8337 3.0168 4.0637 1.7868 5.5937 1.7868C7.1237 1.7868 8.3537 3.0168 8.3537 4.5568C8.3537 6.0868 7.1237 7.3168 5.5937 7.3168ZM0.9737 14.8568H10.2237C10.7637 14.8568 11.1837 14.4268 11.1837 13.8868C11.1837 13.3568 10.7637 12.9368 10.2237 12.9368H0.9737C0.4237 12.9368 0.0037 13.3568 0.0037 13.8868C0.0037 14.4268 0.4237 14.8568 0.9737 14.8568ZM0.9737 19.2768H1.8337V24.6668C1.8337 25.9368 2.3337 26.6968 3.3337 26.9568C2.9237 27.4668 2.6937 28.0968 2.6937 28.7968C2.6937 30.3968 3.9937 31.6868 5.5937 31.6868C7.2037 31.6868 8.5037 30.3968 8.5037 28.7968C8.5037 28.0968 8.2537 27.4668 7.8637 26.9568C8.8437 26.6968 9.3637 25.9368 9.3637 24.6668V19.2768H10.2237C10.7637 19.2768 11.1837 18.8568 11.1837 18.3168C11.1837 17.7868 10.7637 17.3468 10.2237 17.3468H0.9737C0.4237 17.3468 0.0037 17.7868 0.0037 18.3168C0.0037 18.8568 0.4237 19.2768 0.9737 19.2768ZM5.5937 29.9368C4.9637 29.9368 4.4437 29.4268 4.4437 28.7968C4.4437 28.1468 4.9637 27.6268 5.5937 27.6268C6.2337 27.6268 6.7537 28.1468 6.7537 28.7968C6.7537 29.4268 6.2337 29.9368 5.5937 29.9368Z"
        fillRule="evenodd"
        clipRule="evenodd"
    />
</svg>
        