
<svg
    viewBox="0 0 48.494140625 27.750545233337927"
    xmlns="http://www.w3.org/2000/svg"
>
    <path
        fill="inherit"
        d="M3.4837 19.0963H6.4537C7.0837 20.9363 8.7937 22.2163 10.8737 22.2163C12.9437 22.2163 14.6737 20.9363 15.3037 19.0963H34.0737C34.7037 20.9363 36.4037 22.2163 38.4837 22.2163C40.5637 22.2163 42.2837 20.9363 42.9137 19.0963H45.0237C47.4137 19.0963 48.4937 17.8663 48.4937 15.1663V9.3263C48.4937 7.6163 47.8637 5.6563 46.7837 4.1063L46.1737 3.1963C44.5937 0.9163 42.6737 -0.0037 39.4937 -0.0037H28.8237C23.1837 -0.0037 20.9337 0.5463 17.5837 2.6363L12.0737 6.0963L6.9737 6.7263C2.3137 7.2963 0.0037 9.4363 0.0037 13.1763V15.5263C0.0037 17.7563 1.3137 19.0963 3.4837 19.0963ZM38.4837 12.8663C36.0837 12.8663 34.1637 14.5863 33.8537 16.8963H15.5037C15.2037 14.5863 13.2737 12.8663 10.8737 12.8663C8.4637 12.8663 6.5337 14.5863 6.2337 16.8963H3.6137C2.7237 16.8963 2.2037 16.2963 2.2037 15.2563V13.1763C2.2037 10.7363 3.8437 9.3563 7.2637 8.9163L12.8237 8.2163L18.7537 4.5263C21.7837 2.6363 23.5737 2.1963 28.8237 2.1963H39.4937C41.8637 2.1963 43.2337 2.8563 44.3537 4.4563L44.9637 5.3463C45.8037 6.5463 46.2937 8.0263 46.2937 9.3263V15.2963C46.2937 16.3963 45.8737 16.8963 44.8937 16.8963H43.1237C42.8237 14.5863 40.8937 12.8663 38.4837 12.8663ZM21.5737 14.8063H27.6737C28.3937 14.8063 28.7337 14.2163 28.3437 13.5763L25.3637 8.7063C24.9937 8.1063 24.2537 8.0963 23.8837 8.7063L20.9137 13.5663C20.5237 14.2063 20.8337 14.8063 21.5737 14.8063ZM10.8737 20.0163C9.4737 20.0163 8.3937 18.9363 8.3937 17.5363C8.3937 16.1463 9.4737 15.0663 10.8737 15.0663C12.2637 15.0663 13.3437 16.1463 13.3437 17.5363C13.3437 18.9363 12.2637 20.0163 10.8737 20.0163ZM38.4837 20.0163C37.0937 20.0163 36.0137 18.9363 36.0137 17.5363C36.0137 16.1463 37.0937 15.0663 38.4837 15.0663C39.8837 15.0663 40.9637 16.1463 40.9637 17.5363C40.9637 18.9363 39.8837 20.0163 38.4837 20.0163ZM21.5737 21.1963C20.8337 21.1963 20.5237 21.7963 20.9137 22.4363L23.8837 27.2863C24.2537 27.9163 24.9937 27.8863 25.3637 27.2863L28.3437 22.4363C28.7337 21.7963 28.3937 21.1963 27.6737 21.1963Z"
        fillRule="evenodd"
        clipRule="evenodd"
    />
</svg>
        