
<svg
    viewBox={0 0 45.103515625 34.9658203125}
    xmlns="http://www.w3.org/2000/svg"
>
    <path
        fill="inherit"
        d="M22.5437 6.1645H39.3737C40.4737 6.1645 41.0737 5.4545 41.0737 4.3445V2.9945C41.0737 1.0145 40.0537 0.0045 37.7637 0.0045H32.8237C30.3837 0.0045 28.4137 0.6445 25.2537 1.9445L22.1937 3.2245C21.3137 3.5945 21.0437 4.1845 21.0437 4.7745C21.0437 5.6745 21.4937 6.1645 22.5437 6.1645ZM37.9837 34.6545C38.3937 35.0645 39.0737 35.0645 39.4737 34.6545C39.8837 34.2445 39.8837 33.5745 39.4737 33.1645L8.5537 2.2645C8.1337 1.8445 7.4737 1.8445 7.0537 2.2645C6.6537 2.6645 6.6437 3.3345 7.0537 3.7645ZM37.1437 28.6045C38.4437 28.2345 39.4537 27.2445 39.9037 25.9745H41.8637C44.0937 25.9745 45.1037 24.8445 45.1037 22.3145V16.8745C45.1037 15.2945 44.5137 13.4645 43.5137 12.0345L42.9337 11.1845C41.4637 9.0745 39.6937 8.2145 36.7337 8.2145H26.7937C22.6437 8.2145 20.4837 8.5345 18.1837 9.6545L19.8837 11.3445C21.6137 10.6245 23.4237 10.4145 26.7937 10.4145H36.7337C38.8937 10.4145 40.1137 11.0045 41.1137 12.4445L41.7037 13.2745C42.4537 14.3645 42.8937 15.7045 42.8937 16.8745V22.4345C42.8937 23.3945 42.5837 23.7645 41.7537 23.7645H40.0837C39.7337 21.6945 37.9637 20.1845 35.7937 20.1845C33.8237 20.1845 32.2337 21.4345 31.7337 23.1845L33.7737 25.2245C33.7037 25.0045 33.6637 24.7745 33.6637 24.5245C33.6637 23.2945 34.5737 22.3845 35.7937 22.3845C37.0237 22.3845 37.9437 23.2945 37.9437 24.5245C37.9437 25.7445 37.0237 26.6645 35.7937 26.6645C35.5637 26.6645 35.3237 26.6345 35.0937 26.5645ZM3.2437 25.9745H6.0037C6.5937 27.6845 8.1737 28.8745 10.1037 28.8745C12.0337 28.8745 13.6437 27.6845 14.2237 25.9745H27.0337L24.8137 23.7645H14.3937C14.0537 21.6945 12.2937 20.1845 10.1037 20.1845C7.9337 20.1845 6.1837 21.6945 5.8237 23.7645H3.3537C2.6137 23.7645 2.2137 23.3145 2.2137 22.3945V20.4645C2.2137 18.2645 3.6337 17.0445 6.7637 16.6645L11.9937 16.0245L15.1237 14.0845L13.4937 12.4645L11.2337 13.8945L6.4937 14.4645C2.1437 14.9945 0.0037 16.9945 0.0037 20.4645V22.6545C0.0037 24.7345 1.2137 25.9745 3.2437 25.9745ZM10.1037 26.6645C8.8837 26.6645 7.9737 25.7445 7.9737 24.5245C7.9737 23.2945 8.8837 22.3845 10.1037 22.3845C11.3337 22.3845 12.2537 23.2945 12.2537 24.5245C12.2537 25.7445 11.3337 26.6645 10.1037 26.6645Z"
        fillRule="evenodd"
        clipRule="evenodd"
    />
</svg>
        