
<svg
    viewBox="0 0 48.494140625 28.150390625"
    xmlns="http://www.w3.org/2000/svg"
>
    <path
        fill="inherit"
        d="M27.1537 12.2999C27.8237 12.2999 28.3037 11.8299 28.3237 11.1299L28.6137 1.4499C28.6437 0.5699 28.0537 -0.0001 27.1537 -0.0001C26.2537 -0.0001 25.6737 0.5699 25.7037 1.4499L25.9937 11.1299C26.0137 11.8299 26.4837 12.2999 27.1537 12.2999ZM3.4837 25.0299H6.4537C7.0837 26.8699 8.7937 28.1499 10.8737 28.1499C12.9437 28.1499 14.6737 26.8699 15.3037 25.0299H33.9337C34.5637 26.8699 36.2737 28.1499 38.3537 28.1499C40.4237 28.1499 42.1537 26.8699 42.7837 25.0299H45.0237C47.4137 25.0299 48.4937 23.7999 48.4937 21.0999V15.2599C48.4937 13.5499 47.8637 11.5899 46.7837 10.0399L46.1737 9.1299C44.5937 6.8499 42.6737 5.9299 39.4937 5.9299H30.0737L30.0137 8.1299H39.4937C41.8637 8.1299 43.2337 8.7899 44.3537 10.3899L44.9637 11.2799C45.8037 12.4799 46.2937 13.9599 46.2937 15.2599V21.2299C46.2937 22.3299 45.8737 22.8299 44.8937 22.8299H42.9837C42.6837 20.5199 40.7537 18.7999 38.3537 18.7999C35.9437 18.7999 34.0337 20.5199 33.7137 22.8299H15.5037C15.2037 20.5199 13.2737 18.7999 10.8737 18.7999C8.4637 18.7999 6.5337 20.5199 6.2337 22.8299H3.6137C2.7237 22.8299 2.2037 22.2299 2.2037 21.1899V19.1099C2.2037 16.6699 3.8437 15.2899 7.2637 14.8499L12.8237 14.1499L18.7537 10.4599C20.6837 9.2599 22.1337 8.6399 24.3237 8.3499L24.2437 6.1399C21.6037 6.4399 19.8337 7.1499 17.5837 8.5699L12.0737 12.0299L6.9737 12.6599C2.3137 13.2299 0.0037 15.3699 0.0037 19.1099V21.4599C0.0037 23.6899 1.3137 25.0299 3.4837 25.0299ZM27.1537 18.3799C28.1337 18.3799 28.9437 17.5699 28.9437 16.6399C28.9437 15.6999 28.1537 14.9199 27.1537 14.9199C26.1637 14.9199 25.3637 15.6999 25.3637 16.6399C25.3637 17.5699 26.1837 18.3799 27.1537 18.3799ZM10.8737 25.9499C9.4737 25.9499 8.3937 24.8699 8.3937 23.4699C8.3937 22.0799 9.4737 20.9999 10.8737 20.9999C12.2637 20.9999 13.3437 22.0799 13.3437 23.4699C13.3437 24.8699 12.2637 25.9499 10.8737 25.9499ZM38.3537 25.9499C36.9537 25.9499 35.8737 24.8699 35.8737 23.4699C35.8737 22.0799 36.9537 20.9999 38.3537 20.9999C39.7437 20.9999 40.8237 22.0799 40.8237 23.4699C40.8237 24.8699 39.7437 25.9499 38.3537 25.9499Z"
        fillRule="evenodd"
        clipRule="evenodd"
    />
</svg>
        