<svg viewBox="0 0 48.494140625 22.216796875" xmlns="http://www.w3.org/2000/svg"><path d="M10.8737 22.2163C12.9437 22.2163 14.6737 20.9363 15.3037 19.0963H33.9337C34.5637 20.9363 36.2737 22.2163 38.3537 22.2163C40.4237 22.2163 42.1537 20.9363 42.7837 19.0963H45.0237C47.4137 19.0963 48.4937 17.8663 48.4937 15.1663V9.3263C48.4937 7.6163 47.8537 5.6563 46.7837 4.1063L46.1737 3.1963C44.5937 0.9163 42.6737 -0.0037 39.4937 -0.0037H28.8237C23.1837 -0.0037 20.9337 0.5463 17.5837 2.6363L15.3937 4.0163L16.7337 5.7863L18.7537 4.5263C21.7837 2.6363 23.5737 2.1963 28.8237 2.1963H39.4937C41.8637 2.1963 43.2437 2.8463 44.3537 4.4563L44.9637 5.3463C45.8037 6.5463 46.2937 8.0263 46.2937 9.3263V15.2963C46.2937 16.3963 45.8737 16.8963 44.8937 16.8963H42.9837C42.6837 14.5863 40.7537 12.8663 38.3537 12.8663C35.9437 12.8663 34.0337 14.5863 33.7137 16.8963H15.5037C15.2037 14.5863 13.2737 12.8663 10.8737 12.8663C8.4637 12.8663 6.5337 14.5863 6.2337 16.8963H3.6137C2.7237 16.8963 2.2037 16.2963 2.2037 15.2563V13.1763C2.2037 10.7363 3.8437 9.3363 7.2637 8.9163L11.8937 8.3363L10.3537 6.3163L6.9737 6.7263C2.3137 7.2963 0.0037 9.4363 0.0037 13.1763V15.5263C0.0037 17.7563 1.3137 19.0963 3.4837 19.0963H6.4537C7.0837 20.9363 8.7937 22.2163 10.8737 22.2163ZM18.3337 10.6063H21.5237V11.7863C21.5237 12.7463 22.3637 13.0263 23.0737 12.5663L26.5137 10.3463C27.1837 9.9263 27.1937 9.1063 26.5137 8.6663L23.0937 6.4663C22.3637 5.9863 21.5237 6.2763 21.5237 7.2463V8.4063H18.3337C17.0537 8.4063 16.5337 8.1163 15.6837 7.0263L11.9737 2.1963C10.8237 0.6863 9.4737 0.0863 7.3937 0.0863H4.0337C3.4337 0.0863 2.9437 0.5763 2.9437 1.1763C2.9437 1.7763 3.4337 2.2863 4.0337 2.2863H7.3937C8.9137 2.2863 9.4837 2.5463 10.2537 3.5363L13.9337 8.3963C15.1037 9.9363 16.4237 10.6063 18.3337 10.6063ZM10.8737 20.0163C9.4737 20.0163 8.3937 18.9363 8.3937 17.5363C8.3937 16.1463 9.4737 15.0663 10.8737 15.0663C12.2637 15.0663 13.3437 16.1463 13.3437 17.5363C13.3437 18.9363 12.2637 20.0163 10.8737 20.0163ZM38.3537 20.0163C36.9537 20.0163 35.8737 18.9363 35.8737 17.5363C35.8737 16.1463 36.9537 15.0663 38.3537 15.0663C39.7437 15.0663 40.8237 16.1463 40.8237 17.5363C40.8237 18.9363 39.7437 20.0163 38.3537 20.0163Z" /></svg>