
<svg
    viewBox="0 0 48.494140625 21.73828125"
    xmlns="http://www.w3.org/2000/svg"
>
    <path
        fill="inherit"
        d="M46.7837 4.1063L46.1737 3.1963C44.5937 0.9163 42.6737 -0.0037 39.4937 -0.0037H28.8237C23.1837 -0.0037 20.9337 0.5463 17.5837 2.6363L12.0737 6.0963L6.9737 6.7263C2.3137 7.2963 0.0037 9.4363 0.0037 13.1763V15.5263C0.0037 17.7563 1.3137 19.0963 3.4837 19.0963H5.7137C5.6637 18.7763 5.6237 18.4463 5.6237 18.0863C5.6237 15.1763 7.9737 12.8363 10.8737 12.8363C13.7837 12.8363 16.1237 15.1763 16.1237 18.0863C16.1237 18.4463 16.0937 18.7763 16.0237 19.0963H33.2637C33.2137 18.7763 33.1637 18.4463 33.1637 18.0863C33.1637 15.1863 35.5337 12.8363 38.4137 12.8363C41.3337 12.8363 43.6637 15.1763 43.6637 18.0863C43.6637 18.4463 43.6437 18.7763 43.5737 19.0963H45.0237C47.4137 19.0963 48.4937 17.8663 48.4937 15.1663V9.3263C48.4937 7.6163 47.8637 5.6563 46.7837 4.1063ZM10.8737 21.7363C12.9237 21.7363 14.5337 20.1263 14.5337 18.0863C14.5337 16.0463 12.9037 14.4263 10.8737 14.4263C8.8437 14.4263 7.2237 16.0463 7.2237 18.0863C7.2237 20.1063 8.8437 21.7363 10.8737 21.7363ZM38.4137 21.7363C40.4537 21.7363 42.0837 20.1063 42.0837 18.0863C42.0837 16.0463 40.4537 14.4263 38.4137 14.4263C36.4037 14.4263 34.7637 16.0663 34.7637 18.0863C34.7637 20.1063 36.3937 21.7363 38.4137 21.7363Z"
        fillRule="evenodd"
        clipRule="evenodd"
    />
</svg>
        