
<svg
    viewBox="0 0 45.5812834443595 33.93318089327233"
    xmlns="http://www.w3.org/2000/svg"
>
    <path
        fill="inherit"
        d="M4.7762 6.3976L7.6562 1.4176C8.1362 0.5876 7.4662 -0.1424 6.6162 0.0276L2.2162 0.8276C1.6162 0.9376 1.3462 1.4076 1.5562 1.9876L3.0562 6.1876C3.3362 7.0276 4.2962 7.2276 4.7762 6.3976ZM13.0162 15.8276C14.4762 16.6776 16.2062 16.4676 17.3962 15.4276L30.5562 23.0376C30.2562 24.5776 30.9462 26.1776 32.3962 27.0076C33.8562 27.8576 35.5762 27.6576 36.7662 26.6176L38.2462 27.4776C39.9262 28.4476 41.1662 28.0276 42.2762 26.1076L44.6462 22.0176C45.3262 20.8276 45.6762 19.1876 45.5562 17.6576L45.4862 16.7876C45.3062 14.5576 44.3262 13.1176 42.0962 11.8376L34.6162 7.5176C30.6562 5.2276 28.8662 4.6976 25.6662 4.8176L20.3962 5.0176L16.5562 3.3876C13.0562 1.8976 10.5662 2.4576 9.0562 5.0976L8.1062 6.7376C7.2062 8.2976 7.5762 9.7676 9.1062 10.6476L11.1862 11.8476C10.8862 13.3976 11.5662 14.9976 13.0162 15.8276ZM39.0462 25.8776L37.8062 25.1676C38.5262 23.4176 37.8762 21.4376 36.1762 20.4676C34.4962 19.4776 32.4462 19.9176 31.2962 21.4076L18.4362 13.9776C19.1462 12.2276 18.4962 10.2476 16.8062 9.2676C15.1262 8.2976 13.0762 8.7276 11.9262 10.2176L10.0762 9.1576C9.4662 8.7976 9.3362 8.1576 9.7662 7.4376L10.5962 5.9876C11.5962 4.2576 13.3062 3.9576 15.8762 5.0376L20.0562 6.8076L25.7162 6.6176C28.6062 6.5176 30.0362 6.9276 33.7162 9.0576L41.2062 13.3776C42.8662 14.3376 43.5562 15.3476 43.6962 16.9176L43.7762 17.8076C43.8762 18.9876 43.6162 20.2176 43.0962 21.1376L40.6762 25.3176C40.2362 26.0976 39.7162 26.2776 39.0462 25.8776ZM13.9062 14.2876C12.9362 13.7176 12.6262 12.5176 13.1862 11.5476C13.7462 10.5776 14.9462 10.2476 15.9162 10.8076C16.8962 11.3876 17.2162 12.5776 16.6562 13.5576C16.0962 14.5276 14.8962 14.8576 13.9062 14.2876ZM0.1562 11.7976C-0.1638 12.3376 0.0262 13.0076 0.5362 13.3076L35.9962 33.7976C36.5062 34.0776 37.1862 33.9176 37.4762 33.3976C37.7962 32.8476 37.5962 32.1776 37.1062 31.8776L1.6262 11.3976C1.1362 11.1076 0.4362 11.2776 0.1562 11.7976ZM33.2962 25.4776C32.3062 24.9076 31.9962 23.7176 32.5562 22.7276C33.1162 21.7576 34.3162 21.4376 35.2862 21.9976C36.2762 22.5676 36.5862 23.7576 36.0262 24.7376C35.4662 25.7176 34.2662 26.0376 33.2962 25.4776Z"
        fillRule="evenodd"
        clipRule="evenodd"
    />
</svg>
        