
<svg
    viewBox="0 0 43.47150188687153 36.854014494151585"
    xmlns="http://www.w3.org/2000/svg"
>
    <path
        fill="inherit"
        d="M5.5886 29.0728L7.6786 27.8728C8.8586 28.9128 10.5886 29.1128 12.0386 28.2728C13.4986 27.4328 14.1886 25.8328 13.8686 24.2928L27.0486 16.6928C28.2286 17.7228 29.9686 17.9328 31.4086 17.0828C32.8786 16.2528 33.5586 14.6528 33.2586 13.1028L34.7386 12.2628C36.4186 11.2828 36.6786 9.9928 35.5686 8.0728L33.2086 3.9828C32.5186 2.7828 31.2886 1.6628 29.8986 1.0028L29.0986 0.6228C27.0786 -0.3372 25.3586 -0.1972 23.1186 1.0928L15.6386 5.4128C11.6686 7.6928 10.3186 8.9928 8.8286 11.8228L6.3486 16.4828L3.0286 18.9828C-0.0014 21.2828 -0.7614 23.7028 0.7586 26.3428L1.7086 27.9828C2.6086 29.5428 4.0686 29.9528 5.5886 29.0728ZM3.1386 26.9028L2.2886 25.4428C1.3086 23.7328 1.8986 22.0928 4.1086 20.4028L7.7486 17.6628L10.3986 12.6728C11.7486 10.1128 12.8486 9.0828 16.5286 6.9528L24.0186 2.6328C25.6686 1.6728 26.8986 1.5828 28.3186 2.2528L29.1286 2.6228C30.1986 3.1228 31.1386 3.9628 31.6586 4.8728L34.0786 9.0628C34.5286 9.8428 34.4386 10.3728 33.7486 10.7528L32.5086 11.4828C31.3586 9.9728 29.3086 9.5528 27.6286 10.5228C25.9486 11.4928 25.2886 13.4928 26.0086 15.2228L13.1386 22.6628C11.9886 21.1628 9.9386 20.7328 8.2486 21.7028C6.5686 22.6928 5.9186 24.6728 6.6386 26.4128L4.7986 27.4728C4.1686 27.8428 3.5586 27.6228 3.1386 26.9028ZM30.5286 15.5428C29.5386 16.1028 28.3486 15.7828 27.7886 14.8028C27.2186 13.8328 27.5486 12.6228 28.5186 12.0628C29.4986 11.5028 30.6886 11.8228 31.2586 12.8028C31.8186 13.7728 31.4986 14.9828 30.5286 15.5428ZM4.2086 36.1728C4.5386 36.7128 5.2086 36.8828 5.7086 36.6128L41.1886 16.1228C41.6786 15.8428 41.8686 15.1528 41.5886 14.6528C41.2686 14.1028 40.5886 13.9428 40.0786 14.2128L4.5986 34.6928C4.1086 34.9828 3.9186 35.6628 4.2086 36.1728ZM11.1486 26.7228C10.1686 27.2928 8.9786 26.9728 8.3986 26.0028C7.8386 25.0128 8.1686 23.8128 9.1386 23.2528C10.1286 22.6928 11.3186 23.0028 11.8886 23.9928C12.4486 24.9628 12.1186 26.1628 11.1486 26.7228ZM41.0486 36.8528C41.9286 36.8528 42.5586 36.4428 42.9686 35.8028C43.2386 35.3928 43.4686 34.7628 43.4686 34.2928C43.4686 33.8628 43.1586 33.5828 42.7186 33.5828C42.3786 33.5828 42.1086 33.8328 42.0386 34.2128C41.8686 35.0128 41.6286 35.4828 41.0086 35.4828C40.2586 35.4828 39.8186 34.4228 39.8186 32.4528C39.8186 30.4528 40.3286 29.3928 41.0086 29.3928C41.5886 29.3928 41.8986 29.9528 41.9986 30.6628C42.0586 31.0828 42.3486 31.3328 42.7586 31.3328C43.1686 31.3328 43.4286 31.0428 43.4286 30.6028C43.4286 30.0828 43.1686 29.3328 42.7186 28.8128C42.2786 28.3228 41.6686 28.0328 40.9986 28.0328C39.8086 28.0328 39.0786 28.8028 38.6986 29.6928C38.3186 30.5328 38.2386 31.4928 38.2386 32.4528C38.2386 33.5428 38.3486 34.6128 38.8186 35.5128C39.3186 36.4028 40.0486 36.8528 41.0486 36.8528ZM26.5486 36.7828C27.0386 36.7828 27.3386 36.4828 27.3386 35.9928V33.0428H29.4486V35.9928C29.4486 36.4828 29.7586 36.7828 30.2386 36.7828C30.7186 36.7828 31.0286 36.4828 31.0286 35.9928V28.8928C31.0286 28.4228 30.7186 28.1128 30.2386 28.1128C29.7586 28.1128 29.4486 28.4228 29.4486 28.8928V31.7228H27.3386V28.8928C27.3386 28.4228 27.0386 28.1128 26.5486 28.1128C26.0786 28.1128 25.7786 28.4228 25.7786 28.8928V35.9928C25.7786 36.4828 26.0786 36.7828 26.5486 36.7828ZM32.9586 36.7828H34.4786C36.7086 36.7828 37.4586 34.6428 37.4586 32.4228C37.4586 30.0028 36.5986 28.1128 34.4786 28.1128H32.9586C32.5086 28.1128 32.1786 28.3728 32.1786 28.9428V35.9628C32.1786 36.5228 32.5086 36.7828 32.9586 36.7828ZM33.7186 35.4728V29.4328H34.2886C35.6086 29.4328 35.8586 31.1028 35.8586 32.4228C35.8586 33.7828 35.6486 35.4728 34.2886 35.4728Z"
        fillRule="evenodd"
        clipRule="evenodd"
    />
</svg>
        