
<svg
    viewBox={0 0 48.494140625 30.734375}
    xmlns="http://www.w3.org/2000/svg"
>
    <path
        fill="inherit"
        d="M23.4737 13.8624H29.6637C30.8137 13.8624 31.4137 13.2524 31.4137 12.0024V7.2424C31.4137 6.1024 30.9137 5.4924 29.9137 5.4024V3.7724C29.9137 2.3624 30.7637 1.4724 32.0837 1.4724C33.4237 1.4724 34.2637 2.3624 34.2637 3.7724V5.3024C34.2637 5.7124 34.6037 6.0424 35.0137 6.0424C35.4237 6.0424 35.7537 5.7124 35.7537 5.3024V4.0024C35.7537 1.5424 34.3337 0.0024 32.0837 0.0024C29.8637 0.0024 28.4237 1.5424 28.4237 4.0024V5.4024H23.4737C22.3137 5.4024 21.7137 6.0124 21.7137 7.2424V12.0024C21.7137 13.2524 22.3137 13.8624 23.4737 13.8624ZM3.4837 28.0924H5.7137C5.6637 27.7724 5.6237 27.4424 5.6237 27.0824C5.6237 24.1724 7.9737 21.8324 10.8737 21.8324C13.7837 21.8324 16.1237 24.1724 16.1237 27.0824C16.1237 27.4424 16.0937 27.7724 16.0237 28.0924H33.2637C33.2137 27.7724 33.1637 27.4424 33.1637 27.0824C33.1637 24.1824 35.5337 21.8324 38.4137 21.8324C41.3337 21.8324 43.6637 24.1724 43.6637 27.0824C43.6637 27.4424 43.6437 27.7724 43.5737 28.0924H45.0237C47.4137 28.0924 48.4937 26.8624 48.4937 24.1624V18.3224C48.4937 16.6124 47.8637 14.6524 46.7837 13.1024L46.1737 12.1924C44.5937 9.9124 42.6737 8.9924 39.4937 8.9924H33.2537V11.9624C33.2537 14.2324 31.8237 15.6924 29.6237 15.6924H23.4337C21.2337 15.6924 19.8137 14.2324 19.8137 11.9624V10.4224C19.1637 10.7224 18.2637 11.2124 17.5837 11.6324L12.0737 15.0924L6.9737 15.7224C2.3137 16.2924 0.0037 18.4324 0.0037 22.1724V24.5224C0.0037 26.7524 1.3137 28.0924 3.4837 28.0924ZM10.8737 30.7324C12.9237 30.7324 14.5337 29.1224 14.5337 27.0824C14.5337 25.0424 12.9037 23.4224 10.8737 23.4224C8.8437 23.4224 7.2237 25.0424 7.2237 27.0824C7.2237 29.1024 8.8437 30.7324 10.8737 30.7324ZM38.4137 30.7324C40.4537 30.7324 42.0837 29.1024 42.0837 27.0824C42.0837 25.0424 40.4537 23.4224 38.4137 23.4224C36.4037 23.4224 34.7637 25.0624 34.7637 27.0824C34.7637 29.1024 36.3937 30.7324 38.4137 30.7324Z"
        fillRule="evenodd"
        clipRule="evenodd"
    />
</svg>
        