<svg viewBox="0 0 45.5812834443595 33.93318089327233" xmlns="http://www.w3.org/2000/svg"><path d="M4.7762 6.3976L7.6562 1.4176C8.1362 0.5876 7.4662 -0.1424 6.6162 0.0276L2.2162 0.8276C1.6162 0.9376 1.3462 1.4076 1.5562 1.9876L3.0562 6.1876C3.3362 7.0276 4.2962 7.2276 4.7762 6.3976ZM45.5562 17.6576L45.4862 16.7876C45.3062 14.5576 44.3262 13.1176 42.0962 11.8376L34.6162 7.5176C30.6562 5.2276 28.8662 4.6976 25.6662 4.8176L20.3962 5.0176L16.5562 3.3876C13.0562 1.8976 10.5662 2.4576 9.0562 5.0976L8.1062 6.7376C7.2062 8.2976 7.5762 9.7676 9.1062 10.6476L10.6662 11.5576C10.7662 11.3076 10.8762 11.0576 11.0062 10.7976C12.1862 8.7576 14.7862 8.0576 16.8162 9.2476C18.8662 10.4276 19.5562 13.0076 18.3762 15.0576C18.2362 15.3076 18.0762 15.5276 17.8962 15.7276L29.9962 22.7176C30.0762 22.4576 30.1862 22.2176 30.3362 21.9676C31.5162 19.9276 34.1262 19.2276 36.1462 20.4076C38.1862 21.5876 38.8862 24.1776 37.7062 26.2176C37.5562 26.4676 37.4062 26.6876 37.2262 26.8876L38.2462 27.4776C39.9262 28.4476 41.1662 28.0276 42.2762 26.1076L44.6462 22.0176C45.3262 20.8276 45.6762 19.1876 45.5562 17.6576ZM13.2062 15.4976C14.6462 16.3176 16.4362 15.8376 17.2662 14.4076C18.0862 12.9876 17.5962 11.1776 16.1762 10.3576C14.7562 9.5376 12.9462 10.0176 12.1262 11.4576C11.3062 12.8776 11.7862 14.6776 13.2062 15.4976ZM0.1562 11.7976C-0.1638 12.3376 0.0262 13.0076 0.5362 13.3076L35.9962 33.7976C36.5062 34.0776 37.1862 33.9176 37.4762 33.3976C37.7962 32.8476 37.5962 32.1776 37.1062 31.8776L1.6262 11.3976C1.1362 11.1076 0.4362 11.2776 0.1562 11.7976ZM32.5462 26.6576C33.9662 27.4776 35.7662 26.9976 36.5862 25.5776C37.4062 24.1376 36.9262 22.3476 35.5062 21.5176C34.0862 20.7076 32.2662 21.1876 31.4662 22.6076C30.6262 24.0276 31.1162 25.8376 32.5462 26.6576Z" /></svg>