
<svg
    viewBox="0 0 51.693359375 25.78515625"
    xmlns="http://www.w3.org/2000/svg"
>
    <path
        fill="inherit"
        d="M46.7837 8.1532L46.1737 7.2432C45.6637 6.5032 45.1037 5.9032 44.4837 5.4432L47.4537 2.4032C47.7737 2.0932 48.1537 1.9732 48.5937 1.9732H50.6637C51.2937 1.9732 51.6937 1.5632 51.6937 0.9732C51.6937 0.3832 51.2937 0.0032 50.6637 0.0032H48.8237C47.6637 0.0032 46.6437 0.3232 45.8737 1.1232L42.6037 4.4532C41.7137 4.1832 40.6837 4.0432 39.4937 4.0432H28.8237C23.1837 4.0432 20.9337 4.5932 17.5837 6.6832L12.0737 10.1432L6.9737 10.7732C2.3137 11.3432 0.0037 13.4832 0.0037 17.2232V19.5732C0.0037 21.8032 1.3137 23.1432 3.4837 23.1432H5.7137C5.6637 22.8232 5.6237 22.4932 5.6237 22.1332C5.6237 19.2232 7.9737 16.8832 10.8737 16.8832C13.7837 16.8832 16.1237 19.2232 16.1237 22.1332C16.1237 22.4932 16.0937 22.8232 16.0237 23.1432H33.2637C33.2137 22.8232 33.1637 22.4932 33.1637 22.1332C33.1637 19.2332 35.5337 16.8832 38.4137 16.8832C41.3337 16.8832 43.6637 19.2232 43.6637 22.1332C43.6637 22.4932 43.6437 22.8232 43.5737 23.1432H45.0237C47.4137 23.1432 48.4937 21.9132 48.4937 19.2132V13.3732C48.4937 11.6632 47.8637 9.7032 46.7837 8.1532ZM10.8737 25.7832C12.9237 25.7832 14.5337 24.1732 14.5337 22.1332C14.5337 20.0932 12.9037 18.4732 10.8737 18.4732C8.8437 18.4732 7.2237 20.0932 7.2237 22.1332C7.2237 24.1532 8.8437 25.7832 10.8737 25.7832ZM38.4137 25.7832C40.4537 25.7832 42.0837 24.1532 42.0837 22.1332C42.0837 20.0932 40.4537 18.4732 38.4137 18.4732C36.4037 18.4732 34.7637 20.1132 34.7637 22.1332C34.7637 24.1532 36.3937 25.7832 38.4137 25.7832Z"
        fillRule="evenodd"
        clipRule="evenodd"
    />
</svg>
        