
<svg
    viewBox="0 0 25.40234375 24.705078125"
    xmlns="http://www.w3.org/2000/svg"
>
    <path
        fill="inherit"
        d="M12.2237 24.7068C14.5437 24.7068 16.4437 23.2668 17.1037 21.1868H25.4037V18.9868H17.3237C17.0337 16.3968 14.9137 14.4468 12.2237 14.4468C9.5337 14.4468 7.4137 16.3968 7.1337 18.9868H4.0437C2.9637 18.9868 2.3337 18.2268 2.3337 17.0068V14.6668C2.3337 11.8368 4.2337 10.2368 8.1337 9.7468L14.3837 8.9568L21.0237 4.8168C22.5837 3.8368 23.8737 3.2168 25.4037 2.8168V0.5168C23.4337 0.9668 21.8037 1.7268 19.8537 2.9368L14.3037 6.4168L9.0237 1.1368C8.2337 0.3268 7.1737 -0.0032 5.9237 -0.0032H1.0137C0.3837 -0.0032 0.0037 0.3868 0.0037 0.9668C0.0037 1.5568 0.3837 1.9668 1.0137 1.9668H6.1437C6.6837 1.9668 7.0937 2.0868 7.4337 2.4368L12.0437 7.0368L7.8437 7.5468C2.6237 8.1768 0.1237 10.5168 0.1237 14.6668V17.3068C0.1237 19.7568 1.5137 21.1868 3.9137 21.1868H7.3437C7.9937 23.2668 9.8937 24.7068 12.2237 24.7068ZM12.2237 22.4868C10.5837 22.4868 9.2937 21.2168 9.2937 19.5768C9.2937 17.9368 10.5837 16.6568 12.2237 16.6568C13.8637 16.6568 15.1337 17.9368 15.1337 19.5768C15.1337 21.2168 13.8637 22.4868 12.2237 22.4868Z"
        fillRule="evenodd"
        clipRule="evenodd"
    />
</svg>
        