
<svg
    viewBox={0 0 45.103515625 28.396484375}
    xmlns="http://www.w3.org/2000/svg"
>
    <path
        fill="inherit"
        d="M22.5437 6.1645H39.3737C40.4737 6.1645 41.0737 5.4545 41.0737 4.3445V2.9945C41.0737 1.0145 40.0537 0.0045 37.7637 0.0045H32.8237C30.3837 0.0045 28.4137 0.6445 25.2537 1.9445L22.1937 3.2245C21.3137 3.5945 21.0437 4.1845 21.0437 4.7745C21.0437 5.6745 21.4937 6.1645 22.5437 6.1645ZM3.2437 25.9345H5.1437C5.0537 25.5645 5.0537 25.2745 5.0537 24.9545C5.0537 22.1045 7.3137 20.0045 10.0337 20.0045C12.9237 20.0045 15.0437 22.2145 15.0437 24.9945C15.0437 25.4145 14.9937 25.7145 14.9337 25.9345H30.8137C30.7737 25.6445 30.7337 25.4145 30.7337 24.9545C30.7337 22.1045 32.9937 20.0045 35.7237 20.0045C38.6137 20.0045 40.7237 22.2145 40.7237 24.9945C40.7237 25.2745 40.7037 25.6445 40.6437 25.9345H41.8637C44.0937 25.9345 45.1037 24.8045 45.1037 22.2845V16.8445C45.1037 15.2745 44.5337 13.4245 43.5137 11.9945L42.9337 11.1545C41.4537 9.0645 39.6937 8.1745 36.7337 8.1745H26.7937C21.5637 8.1745 19.4737 8.6645 16.3537 10.6345L11.2337 13.8545L6.4937 14.4345C2.1437 14.9845 0.0037 16.9645 0.0037 20.4345V22.6145C0.0037 24.6945 1.2137 25.9345 3.2437 25.9345ZM10.0337 28.3945C11.9337 28.3945 13.4537 26.8945 13.4537 24.9945C13.4537 23.1045 11.9337 21.6045 10.0337 21.6045C8.1437 21.6045 6.6437 23.1045 6.6437 24.9945C6.6437 26.8745 8.1437 28.3945 10.0337 28.3945ZM35.7237 28.3945C37.6237 28.3945 39.1337 26.8745 39.1337 24.9945C39.1337 23.1045 37.6237 21.6045 35.7237 21.6045C33.8537 21.6045 32.3337 23.1145 32.3337 24.9945C32.3337 26.8745 33.8337 28.3945 35.7237 28.3945Z"
        fillRule="evenodd"
        clipRule="evenodd"
    />
</svg>
        