
<svg
    viewBox={0 0 27.849609375 29.09375}
    xmlns="http://www.w3.org/2000/svg"
>
    <path
        fill="inherit"
        d="M0.0037 4.4734V25.9234H7.1637C7.0937 25.5534 7.0637 25.1834 7.0637 24.7734C7.0637 21.5234 9.7237 18.8634 12.9737 18.8634C16.2437 18.8634 18.8837 21.5034 18.8837 24.7734C18.8837 25.1834 18.8437 25.5534 18.7537 25.9234H20.3937C23.0737 25.9234 24.2937 24.5434 24.2937 21.4934V14.9034C24.2937 13.0034 23.5937 10.7834 22.3937 9.0334L21.6837 8.0234C21.0637 7.1334 20.4237 6.4434 19.6737 5.9034L23.1237 2.4234C23.4237 2.1034 23.8037 1.9734 24.2437 1.9734H26.8237C27.4537 1.9734 27.8537 1.5734 27.8537 0.9834C27.8537 0.3934 27.4537 0.0034 26.8237 0.0034H24.4737C23.3137 0.0034 22.3137 0.3434 21.5237 1.1334L17.7737 4.9334C16.7437 4.5934 15.5737 4.4434 14.1737 4.4434H2.1737C1.3937 4.4434 0.6737 4.4534 0.0037 4.4734ZM12.9737 29.0934C15.3637 29.0934 17.2837 27.1634 17.2837 24.7734C17.2837 22.3834 15.3637 20.4634 12.9737 20.4634C10.5937 20.4634 8.6537 22.3934 8.6537 24.7734C8.6537 27.1634 10.5837 29.0934 12.9737 29.0934Z"
        fillRule="evenodd"
        clipRule="evenodd"
    />
</svg>
        