
<svg
    viewBox="0 0 48.494140625 31.212890625"
    xmlns="http://www.w3.org/2000/svg"
>
    <path
        fill="inherit"
        d="M23.4237 13.8624H29.6137C30.7637 13.8624 31.3637 13.2524 31.3637 12.0024V7.2424C31.3637 6.2324 30.9637 5.6324 30.1737 5.4524V4.0024C30.1737 1.5424 28.7537 0.0024 26.5137 0.0024C24.2837 0.0024 22.8437 1.5424 22.8437 4.0024V5.4524C22.0637 5.6324 21.6537 6.2324 21.6537 7.2424V12.0024C21.6537 13.2524 22.2537 13.8624 23.4237 13.8624ZM24.3337 3.7724C24.3337 2.3624 25.1837 1.4724 26.5137 1.4724C27.8537 1.4724 28.6937 2.3624 28.6937 3.7724V5.4024H24.3337ZM3.4837 28.0924H6.4537C7.0837 29.9324 8.7937 31.2124 10.8737 31.2124C12.9437 31.2124 14.6737 29.9324 15.3037 28.0924H34.0737C34.7037 29.9324 36.4037 31.2124 38.4837 31.2124C40.5637 31.2124 42.2837 29.9324 42.9137 28.0924H45.0237C47.4137 28.0924 48.4937 26.8624 48.4937 24.1624V18.3224C48.4937 16.6124 47.8637 14.6524 46.7837 13.1024L46.1737 12.1924C44.5937 9.9124 42.6737 8.9924 39.4937 8.9924H33.2537V11.1924H39.4937C41.8637 11.1924 43.2337 11.8524 44.3537 13.4524L44.9637 14.3424C45.8037 15.5424 46.2937 17.0224 46.2937 18.3224V24.2924C46.2937 25.3924 45.8737 25.8924 44.8937 25.8924H43.1237C42.8237 23.5824 40.8937 21.8624 38.4837 21.8624C36.0837 21.8624 34.1637 23.5824 33.8537 25.8924H15.5037C15.2037 23.5824 13.2737 21.8624 10.8737 21.8624C8.4637 21.8624 6.5337 23.5824 6.2337 25.8924H3.6137C2.7237 25.8924 2.2037 25.2924 2.2037 24.2524V22.1724C2.2037 19.7324 3.8437 18.3524 7.2637 17.9124L12.8237 17.2124L18.7537 13.5224C19.1537 13.2624 19.5337 13.0524 19.8137 12.9224V10.4024C19.0837 10.7424 18.3637 11.1524 17.5837 11.6324L12.0737 15.0924L6.9737 15.7224C2.3137 16.2924 0.0037 18.4324 0.0037 22.1724V24.5224C0.0037 26.7524 1.3137 28.0924 3.4837 28.0924ZM10.8737 29.0124C9.4737 29.0124 8.3937 27.9324 8.3937 26.5324C8.3937 25.1424 9.4737 24.0624 10.8737 24.0624C12.2637 24.0624 13.3437 25.1424 13.3437 26.5324C13.3437 27.9324 12.2637 29.0124 10.8737 29.0124ZM38.4837 29.0124C37.0937 29.0124 36.0137 27.9324 36.0137 26.5324C36.0137 25.1424 37.0937 24.0624 38.4837 24.0624C39.8837 24.0624 40.9637 25.1424 40.9637 26.5324C40.9637 27.9324 39.8837 29.0124 38.4837 29.0124Z"
        fillRule="evenodd"
        clipRule="evenodd"
    />
</svg>
        