
<svg
    viewBox="0 0 46.034532164674026 37.95795857172328"
    xmlns="http://www.w3.org/2000/svg"
>
    <path
        fill="inherit"
        d="M36.3144 1.0033L35.5244 0.6233C33.4944 -0.3367 31.7744 -0.1967 29.5444 1.0933L22.0544 5.4133C18.1044 7.6933 16.7444 8.9733 15.2444 11.8033L12.7844 16.4733L9.4444 18.9733C6.4144 21.2633 5.6644 23.7033 7.1744 26.3233L8.1244 27.9833C9.0244 29.5433 10.4844 29.9533 12.0144 29.0733L13.5944 28.1633C13.4144 27.9633 13.2444 27.7333 13.0944 27.4933C11.9244 25.4533 12.6244 22.8533 14.6544 21.6733C16.6944 20.5033 19.2944 21.2033 20.4644 23.2333C20.6144 23.4833 20.7244 23.7333 20.8044 23.9933L32.9044 17.0033C32.7344 16.8133 32.5644 16.5833 32.4344 16.3333C31.2544 14.3133 31.9544 11.6933 33.9844 10.5233C36.0244 9.3433 38.6244 10.0433 39.8044 12.0833C39.9344 12.3233 40.0544 12.5733 40.1444 12.8333L41.1544 12.2433C42.8344 11.2733 43.0944 9.9733 41.9844 8.0733L39.6344 3.9733C38.9344 2.7833 37.7044 1.6633 36.3144 1.0033ZM37.5944 16.7733C39.0244 15.9533 39.4944 14.1433 38.6744 12.7233C37.8544 11.3033 36.0544 10.8133 34.6344 11.6433C33.2144 12.4533 32.7344 14.2633 33.5544 15.6933C34.3744 17.1133 36.1644 17.5933 37.5944 16.7733ZM8.5144 37.4033C8.8444 37.9433 9.5144 38.0933 10.0244 37.8233L45.5044 17.3433C46.0044 17.0733 46.1844 16.3833 45.8944 15.8633C45.5844 15.3233 44.8944 15.1533 44.3944 15.4433L8.9144 35.9233C8.4244 36.1933 8.2344 36.8833 8.5144 37.4033ZM18.2644 27.9233C19.7044 27.1033 20.1844 25.3133 19.3444 23.8833C18.5244 22.4533 16.7344 21.9833 15.3044 22.8033C13.8744 23.6233 13.3944 25.4233 14.2244 26.8433C15.0444 28.2633 16.8444 28.7433 18.2644 27.9233ZM6.1544 30.7033L3.2944 25.7233C2.8144 24.8733 1.8444 25.0933 1.5744 25.9033L0.0644 30.1233C-0.1356 30.7033 0.1244 31.1633 0.7344 31.2733L5.1244 32.0933C5.9844 32.2633 6.6444 31.5233 6.1544 30.7033Z"
        fillRule="evenodd"
        clipRule="evenodd"
    />
</svg>
        