
<svg
    viewBox="0 0 46.034532164674026 37.95795857172328"
    xmlns="http://www.w3.org/2000/svg"
>
    <path
        fill="inherit"
        d="M12.0144 29.0733L14.0944 27.8733C15.2844 28.8933 17.0044 29.1033 18.4544 28.2633C19.9244 27.4233 20.6044 25.8233 20.3044 24.2933L33.4744 16.6833C34.6544 17.7133 36.3844 17.9233 37.8344 17.0833C39.2944 16.2333 39.9744 14.6333 39.6744 13.1033L41.1544 12.2433C42.8344 11.2733 43.0944 9.9733 41.9844 8.0733L39.6344 3.9733C38.9344 2.7833 37.7044 1.6633 36.3144 1.0033L35.5244 0.6233C33.4944 -0.3367 31.7744 -0.1967 29.5444 1.0933L22.0544 5.4133C18.1044 7.6933 16.7444 8.9733 15.2444 11.8033L12.7844 16.4733L9.4444 18.9733C6.4144 21.2633 5.6644 23.7033 7.1744 26.3233L8.1244 27.9833C9.0244 29.5433 10.4844 29.9533 12.0144 29.0733ZM9.5544 26.8833L8.7244 25.4333C7.7244 23.7133 8.3144 22.0933 10.5444 20.3933L14.1644 17.6433L16.8344 12.6533C18.1844 10.1133 19.2644 9.0733 22.9444 6.9533L30.4344 2.6333C32.0844 1.6733 33.3144 1.5833 34.7544 2.2333L35.5444 2.6233C36.6144 3.1233 37.5544 3.9633 38.0944 4.8633L40.5144 9.0633C40.9444 9.8233 40.8544 10.3533 40.1644 10.7533L38.9344 11.4633C37.7944 9.9733 35.7344 9.5333 34.0444 10.5233C32.3644 11.4933 31.7044 13.4933 32.4344 15.2233L19.5544 22.6533C18.4044 21.1633 16.3644 20.7333 14.6744 21.7033C12.9844 22.6733 12.3344 24.6733 13.0544 26.4133L11.2144 27.4733C10.5944 27.8333 9.9844 27.6133 9.5544 26.8833ZM36.9444 15.5433C35.9744 16.1033 34.7644 15.7833 34.2044 14.8033C33.6444 13.8333 33.9644 12.6233 34.9344 12.0633C35.9144 11.4933 37.1244 11.8233 37.6844 12.7933C38.2444 13.7733 37.9244 14.9633 36.9444 15.5433ZM8.5144 37.4033C8.8444 37.9433 9.5144 38.0933 10.0244 37.8233L45.5044 17.3433C46.0044 17.0733 46.1844 16.3833 45.8944 15.8633C45.5844 15.3233 44.8944 15.1533 44.3944 15.4433L8.9144 35.9233C8.4244 36.1933 8.2344 36.8833 8.5144 37.4033ZM17.5644 26.7233C16.5944 27.2833 15.3944 26.9733 14.8344 25.9833C14.2644 25.0133 14.5844 23.8133 15.5544 23.2533C16.5444 22.6933 17.7444 23.0033 18.3044 23.9733C18.8644 24.9633 18.5544 26.1633 17.5644 26.7233ZM6.1544 30.7033L3.2944 25.7233C2.8144 24.8733 1.8444 25.0933 1.5744 25.9033L0.0644 30.1233C-0.1356 30.7033 0.1244 31.1633 0.7344 31.2733L5.1244 32.0933C5.9844 32.2633 6.6444 31.5233 6.1544 30.7033Z"
        fillRule="evenodd"
        clipRule="evenodd"
    />
</svg>
        