
<svg
    viewBox="0 0 25.40234375 24.541015625"
    xmlns="http://www.w3.org/2000/svg"
>
    <path
        fill="inherit"
        d="M1.0137 1.9707H6.1437C6.6837 1.9707 7.0937 2.0907 7.4337 2.4307L11.9637 6.9607L7.9537 7.4507C2.7237 8.0907 0.1237 10.4907 0.1237 14.7107V17.3507C0.1237 19.8507 1.6037 21.3707 4.0337 21.3707H6.5537C6.4837 21.0007 6.4537 20.6307 6.4537 20.2207C6.4537 16.9507 9.0737 14.3107 12.3637 14.3107C15.6237 14.3107 18.2537 16.9507 18.2537 20.2207C18.2537 20.6307 18.2237 21.0007 18.1437 21.3707H25.4037V0.4507C23.4437 0.8907 21.8437 1.6407 19.9037 2.8607L14.2737 6.3807L9.0237 1.1307C8.2337 0.3307 7.1737 0.0007 5.9237 0.0007H1.0137C0.3837 0.0007 0.0037 0.3807 0.0037 0.9707C0.0037 1.5607 0.3837 1.9707 1.0137 1.9707ZM12.3637 24.5407C14.7637 24.5407 16.6537 22.6307 16.6537 20.2207C16.6537 17.8307 14.7537 15.9107 12.3637 15.9107C9.9537 15.9107 8.0437 17.8307 8.0437 20.2207C8.0437 22.6107 9.9537 24.5407 12.3637 24.5407Z"
        fillRule="evenodd"
        clipRule="evenodd"
    />
</svg>
        