
<svg
    viewBox={0 0 48.494140625 27.671875}
    xmlns="http://www.w3.org/2000/svg"
>
    <path
        fill="inherit"
        d="M27.0137 12.6999C26.3137 12.6999 25.8237 12.2099 25.8037 11.4799L25.6337 6.0199C26.4737 5.9599 27.3737 5.9499 28.3937 5.9299L28.5237 1.4999C28.5437 0.5999 27.9437 -0.0001 27.0137 -0.0001C26.0837 -0.0001 25.4837 0.5999 25.5137 1.4999L25.6337 6.0199C22.1737 6.2299 20.2237 6.9199 17.5837 8.5699L12.0737 12.0299L6.9737 12.6599C2.3137 13.2299 0.0037 15.3699 0.0037 19.1099V21.4599C0.0037 23.6899 1.3137 25.0299 3.4837 25.0299H5.7137C5.6637 24.7099 5.6237 24.3799 5.6237 24.0199C5.6237 21.1099 7.9737 18.7699 10.8737 18.7699C13.7837 18.7699 16.1237 21.1099 16.1237 24.0199C16.1237 24.3799 16.0937 24.7099 16.0237 25.0299H33.2637C33.2137 24.7099 33.1637 24.3799 33.1637 24.0199C33.1637 21.1199 35.5337 18.7699 38.4137 18.7699C41.3337 18.7699 43.6637 21.1099 43.6637 24.0199C43.6637 24.3799 43.6437 24.7099 43.5737 25.0299H45.0237C47.4137 25.0299 48.4937 23.7999 48.4937 21.0999V15.2599C48.4937 13.5499 47.8637 11.5899 46.7837 10.0399L46.1737 9.1299C44.5937 6.8499 42.6737 5.9299 39.4937 5.9299H28.8237C28.6737 5.9299 28.5337 5.9299 28.3937 5.9299L28.2237 11.4799C28.1937 12.2099 27.7137 12.6999 27.0137 12.6999ZM27.0137 18.9799C26.0037 18.9799 25.1537 18.1399 25.1537 17.1699C25.1537 16.1999 25.9737 15.3899 27.0137 15.3899C28.0437 15.3899 28.8737 16.1999 28.8737 17.1699C28.8737 18.1399 28.0237 18.9799 27.0137 18.9799ZM10.8737 27.6699C12.9237 27.6699 14.5337 26.0599 14.5337 24.0199C14.5337 21.9799 12.9037 20.3599 10.8737 20.3599C8.8437 20.3599 7.2237 21.9799 7.2237 24.0199C7.2237 26.0399 8.8437 27.6699 10.8737 27.6699ZM38.4137 27.6699C40.4537 27.6699 42.0837 26.0399 42.0837 24.0199C42.0837 21.9799 40.4537 20.3599 38.4137 20.3599C36.4037 20.3599 34.7637 21.9999 34.7637 24.0199C34.7637 26.0399 36.3937 27.6699 38.4137 27.6699Z"
        fillRule="evenodd"
        clipRule="evenodd"
    />
</svg>
        