
<svg
    viewBox="0 0 30.67337305246211 31.5546875"
    xmlns="http://www.w3.org/2000/svg"
>
    <path
        fill="inherit"
        d="M3.8837 31.5584H9.0537C10.6237 31.5584 11.7037 31.0484 12.2937 30.0684L28.6837 20.6184C30.7737 19.3984 31.2237 17.6484 29.9937 15.5184L27.4137 11.0484C26.6037 9.6384 25.5937 8.8984 24.4337 8.8884C25.0737 7.1684 24.4637 5.7384 22.6237 4.6884L18.1437 2.0884C15.9237 0.8084 14.1637 1.2284 12.9437 3.3384L12.8137 3.5784C12.7737 1.2184 11.4937 -0.0016 9.0537 -0.0016H3.8837C1.3237 -0.0016 0.0037 1.2484 0.0037 3.6784V27.8584C0.0037 30.2984 1.3237 31.5584 3.8837 31.5584ZM2.2037 3.7884C2.2037 2.8684 2.9437 2.1984 3.9137 2.1984H9.0237C9.9437 2.1984 10.6137 2.8684 10.6137 3.7884V9.7884H2.2037ZM14.7937 4.5284C15.2437 3.7284 16.2237 3.5184 17.0737 4.0084L21.5037 6.5584C22.2837 7.0184 22.5137 7.9284 22.0637 8.7384L19.0737 13.9184L12.8137 10.3084V7.9584ZM23.2837 11.4884C24.0737 11.0184 25.0337 11.3184 25.5237 12.1684L28.0837 16.5884C28.5337 17.3784 28.2737 18.3084 27.4937 18.7584L22.3037 21.7484L19.7037 17.2384L22.8837 11.7184ZM2.2037 19.5684V11.9884H10.6137V19.5684ZM12.8137 21.5884V12.8384L17.9637 15.8284L14.1937 22.3984ZM18.4337 19.4384L20.3837 22.8584L14.4937 26.2684ZM3.9137 29.3584C2.9437 29.3584 2.2037 28.6684 2.2037 27.7584V21.7684H10.6137V27.7584C10.6137 28.6684 9.9437 29.3584 9.0237 29.3584ZM12.8137 24.1284L13.0837 24.2984L12.8137 24.7884Z"
        fillRule="evenodd"
        clipRule="evenodd"
    />
</svg>
        