
<svg
    viewBox={0 0 29.59075495824201 31.5546875}
    xmlns="http://www.w3.org/2000/svg"
>
    <path
        fill="inherit"
        d="M0.0037 9.3284H11.7137V3.4084C11.7137 1.3084 10.3737 -0.0016 8.2437 -0.0016H3.6137C1.3937 -0.0016 0.0037 1.3084 0.0037 3.4084ZM13.5737 10.8584L20.1137 14.6284L23.0637 9.4984C24.1037 7.6984 23.6137 5.8784 21.7537 4.8084L17.7637 2.4984C16.2237 1.6084 14.7337 1.7384 13.6837 2.7484C13.6737 3.0584 13.6337 3.3784 13.5737 3.7084ZM22.7137 23.4184L27.8237 20.4684C29.6237 19.4284 30.0937 17.5984 29.0237 15.7384L26.7237 11.7484C26.2337 10.8784 25.5937 10.3384 24.8737 10.0884C24.7837 10.2684 24.6937 10.4184 24.6137 10.5784L19.9637 18.6484ZM0.0037 20.3584H11.7137V11.1884H0.0037ZM13.5737 25.9384L19.1837 16.2384L13.5737 13.0184ZM14.4337 28.1884L21.0837 24.3484L18.8637 20.5084ZM3.6137 31.5584H8.2437C10.3737 31.5584 11.7137 30.2284 11.7137 28.1384V22.2284H0.0037V28.1384C0.0037 30.2284 1.3937 31.5584 3.6137 31.5584Z"
        fillRule="evenodd"
        clipRule="evenodd"
    />
</svg>
        