
<svg
    viewBox="0 0 27.890625 27.890625"
    xmlns="http://www.w3.org/2000/svg"
>
    <path
        fill="inherit"
        d="M13.9427 27.8864C21.6427 27.8864 27.8927 21.6464 27.8927 13.9464C27.8927 6.2464 21.6427 -0.0036 13.9427 -0.0036C6.2527 -0.0036 0.0027 6.2464 0.0027 13.9464C0.0027 21.6464 6.2527 27.8864 13.9427 27.8864ZM13.9427 25.5664C7.5227 25.5664 2.3227 20.3664 2.3227 13.9464C2.3227 7.5164 7.5227 2.3264 13.9427 2.3264C20.3727 2.3264 25.5627 7.5164 25.5627 13.9464C25.5627 20.3664 20.3727 25.5664 13.9427 25.5664ZM9.4027 19.5464C9.8427 19.5464 10.1427 19.2264 10.1427 18.7564V16.4464L10.9527 15.6664L13.4527 19.1664C13.6127 19.3964 13.8327 19.5464 14.1227 19.5464C14.5227 19.5464 14.8427 19.2664 14.8427 18.8764C14.8427 18.6864 14.7527 18.5164 14.6327 18.3464L12.0127 14.7364L14.4527 12.1664C14.6327 11.9764 14.7227 11.8664 14.7227 11.6164C14.7227 11.2764 14.4327 10.9764 14.0527 10.9764C13.8527 10.9764 13.6027 11.1064 13.4627 11.2664L10.1827 14.8464H10.1427V8.5464C10.1427 8.0764 9.8427 7.7364 9.4027 7.7364C8.9527 7.7364 8.6427 8.0664 8.6427 8.5264V18.7564C8.6427 19.2264 8.9527 19.5464 9.4027 19.5464ZM17.1027 19.5464C17.4427 19.5464 17.8327 19.3464 17.8327 18.7564V14.4664C17.8327 13.4964 18.1927 12.4164 19.3727 12.4164C19.6427 12.4164 19.9227 12.3864 20.1227 12.2664C20.3027 12.1664 20.4127 11.9864 20.4127 11.7464C20.4127 11.2564 20.0327 10.9764 19.5227 10.9764C18.6527 10.9764 18.0427 11.7264 17.8427 12.6164H17.7627V11.7264C17.7627 11.3064 17.4627 10.9764 17.0727 10.9764C16.6827 10.9764 16.3827 11.3064 16.3827 11.7264V18.7564C16.3827 19.2364 16.6427 19.5464 17.1027 19.5464Z"
        fillRule="evenodd"
        clipRule="evenodd"
    />
</svg>
        