<svg viewBox="0 0 30.544813437289534 27.890625" xmlns="http://www.w3.org/2000/svg"><path d="M0.9769 11.3064C-0.0131 11.3064 -0.2531 11.9764 0.2769 12.7464L3.3369 17.0864C3.7869 17.7164 4.4469 17.7064 4.8869 17.0864L7.9269 12.7264C8.4669 11.9764 8.2069 11.3064 7.2469 11.3064H5.2769C6.4669 6.1564 11.0769 2.3264 16.5969 2.3264C23.0269 2.3264 28.2169 7.5164 28.2169 13.9464C28.2169 20.3664 23.0269 25.5664 16.5969 25.5664C12.7169 25.5664 9.2569 23.6564 7.1969 20.7564C6.7669 20.1964 6.1269 20.0164 5.5569 20.3564C5.0069 20.6964 4.8369 21.4664 5.3069 22.0664C7.8369 25.6064 11.9769 27.8864 16.5969 27.8864C24.2969 27.8864 30.5469 21.6464 30.5469 13.9464C30.5469 6.2464 24.2969 -0.0036 16.5969 -0.0036C9.8069 -0.0036 4.1269 4.8664 2.8969 11.3064ZM12.0769 19.5464C12.5069 19.5464 12.8169 19.2264 12.8169 18.7564V16.4464L13.6169 15.6664L16.1169 19.1664C16.2869 19.3964 16.5069 19.5464 16.7869 19.5464C17.1869 19.5464 17.5169 19.2664 17.5169 18.8764C17.5169 18.6864 17.4169 18.5164 17.2969 18.3464L14.6869 14.7364L17.1169 12.1664C17.2969 11.9764 17.3969 11.8664 17.3969 11.6164C17.3969 11.2764 17.1069 10.9764 16.7269 10.9764C16.5169 10.9764 16.2669 11.1064 16.1369 11.2664L12.8569 14.8464H12.8169V8.5464C12.8169 8.0764 12.5069 7.7364 12.0769 7.7364C11.6269 7.7364 11.3069 8.0664 11.3069 8.5264V18.7564C11.3069 19.2264 11.6269 19.5464 12.0769 19.5464ZM19.7669 19.5464C20.1169 19.5464 20.4969 19.3464 20.4969 18.7564V14.4664C20.4969 13.4964 20.8669 12.4164 22.0369 12.4164C22.3169 12.4164 22.5869 12.3864 22.7969 12.2664C22.9669 12.1664 23.0769 11.9864 23.0769 11.7464C23.0769 11.2564 22.6969 10.9764 22.1869 10.9764C21.3169 10.9764 20.7169 11.7264 20.5069 12.6164H20.4269V11.7264C20.4269 11.3064 20.1269 10.9764 19.7469 10.9764C19.3469 10.9764 19.0469 11.3064 19.0469 11.7264V18.7564C19.0469 19.2364 19.3069 19.5464 19.7669 19.5464Z" /></svg>