
<svg
    viewBox="0 0 30.5703125 30.5703125"
    xmlns="http://www.w3.org/2000/svg"
>
    <path
        fill="inherit"
        d="M15.2827 30.5663C23.6827 30.5663 30.5727 23.6763 30.5727 15.2863C30.5727 6.8863 23.6827 -0.0038 15.2827 -0.0038C6.8927 -0.0038 0.0027 6.8863 0.0027 15.2863C0.0027 23.6763 6.8927 30.5663 15.2827 30.5663ZM15.2827 25.4862C9.6527 25.4862 5.0827 20.9162 5.0827 15.2863C5.0827 9.6363 9.6527 5.0863 15.2827 5.0863C20.9327 5.0863 25.4827 9.6363 25.4827 15.2863C25.4827 20.9162 20.9327 25.4862 15.2827 25.4862ZM10.7627 20.8863C11.1927 20.8863 11.5027 20.5663 11.5027 20.0963V17.7863L12.3027 17.0063L14.8027 20.5063C14.9727 20.7362 15.1927 20.8863 15.4727 20.8863C15.8727 20.8863 16.2027 20.6063 16.2027 20.2163C16.2027 20.0263 16.1027 19.8563 15.9827 19.6863L13.3727 16.0763L15.8027 13.5063C15.9827 13.3163 16.0827 13.2063 16.0827 12.9563C16.0827 12.6163 15.7927 12.3163 15.4127 12.3163C15.2027 12.3163 14.9527 12.4462 14.8227 12.6063L11.5427 16.1863H11.5027V9.8863C11.5027 9.4163 11.1927 9.0763 10.7627 9.0763C10.3127 9.0763 9.9927 9.4063 9.9927 9.8663V20.0963C9.9927 20.5663 10.3127 20.8863 10.7627 20.8863ZM18.4527 20.8863C18.8027 20.8863 19.1827 20.6863 19.1827 20.0963V15.8063C19.1827 14.8363 19.5527 13.7563 20.7227 13.7563C21.0027 13.7563 21.2727 13.7263 21.4827 13.6063C21.6527 13.5063 21.7627 13.3263 21.7627 13.0863C21.7627 12.5963 21.3827 12.3163 20.8727 12.3163C20.0027 12.3163 19.4027 13.0663 19.1927 13.9563H19.1127V13.0663C19.1127 12.6463 18.8127 12.3163 18.4327 12.3163C18.0327 12.3163 17.7327 12.6463 17.7327 13.0663V20.0963C17.7327 20.5763 17.9927 20.8863 18.4527 20.8863Z"
        fillRule="evenodd"
        clipRule="evenodd"
    />
</svg>
        