
<svg
    viewBox={0 0 30.32421875 27.009820031904162}
    xmlns="http://www.w3.org/2000/svg"
>
    <path
        fill="inherit"
        d="M0.0009 17.3609C2.3009 21.1109 8.2809 26.8809 16.3609 26.8809C21.5009 26.8809 22.9309 24.4909 25.9109 24.4909C28.4009 24.4909 29.3809 26.1509 29.7609 26.8109C29.8709 27.0109 30.0609 27.1509 30.1709 26.7509C30.2409 26.4709 30.3209 26.0909 30.3209 25.6209C30.3209 24.3109 29.9109 21.8109 27.7309 19.0609C28.2009 17.7209 28.2609 16.2309 28.2609 15.3509C28.2609 11.3709 26.0209 4.4609 18.6109 0.0009C20.1509 2.1709 22.2209 5.5009 22.2209 10.0909C22.2209 11.7609 21.7609 13.5909 21.4009 14.5009C17.3609 12.1709 9.6509 5.7409 6.5809 2.4609C9.0509 6.2609 11.9809 9.7109 15.2309 13.3209C10.8509 10.5409 6.7809 7.4509 2.9909 4.0609C6.6309 9.3409 11.2209 14.5309 17.2909 19.4409C15.5609 20.4109 13.7809 21.1609 10.7209 21.1609C7.0109 21.1609 2.4709 19.3709 0.0009 17.3609Z"
        fillRule="evenodd"
        clipRule="evenodd"
    />
</svg>
        