
<svg
    viewBox="0 0 30.32421875 27.009820031904162"
    xmlns="http://www.w3.org/2000/svg"
>
    <path
        fill="inherit"
        d="M23.7909 11.5909C23.7909 7.1209 21.7409 2.9009 18.6109 0.0009C20.1509 2.1709 22.2209 5.5009 22.2209 10.0909C22.2209 11.7609 21.7609 13.5909 21.4009 14.5009C17.3609 12.1709 9.6509 5.7409 6.5809 2.4609C9.0509 6.2609 11.9809 9.7109 15.2309 13.3209C10.8509 10.5409 6.7809 7.4509 2.9909 4.0609C6.6309 9.3409 11.2209 14.5309 17.2909 19.4409C15.5609 20.4109 13.7809 21.1609 10.7209 21.1609C7.0109 21.1609 2.4709 19.3709 0.0009 17.3609C2.9009 20.5209 7.2509 22.9109 11.8909 22.9109C18.2209 22.9109 23.7909 19.0609 23.7909 11.5909ZM20.6709 1.4309C23.0609 4.4409 24.6509 8.2809 24.6509 12.1509C24.6509 18.9809 19.6309 23.7709 12.4809 23.7709C8.2609 23.7709 4.4809 21.8209 2.2409 20.2909C5.2609 23.5009 9.7109 25.5709 13.2109 25.5709C20.4209 25.5709 26.5209 20.6309 26.5209 13.2709C26.5209 8.6309 24.2909 4.3909 20.6709 1.4309ZM28.2609 15.3509C28.2609 13.2109 27.6009 10.2009 25.8509 7.1809C26.6709 9.3109 27.2109 11.7009 27.2109 14.0709C27.2109 21.9609 20.8109 26.2609 13.1809 26.2609C12.6209 26.2609 12.0909 26.2409 11.5709 26.1909C12.8609 26.6209 14.7109 26.8809 16.3609 26.8809C21.5009 26.8809 22.9309 24.4909 25.9109 24.4909C28.4009 24.4909 29.3809 26.1509 29.7609 26.8109C29.8709 27.0109 30.0609 27.1509 30.1709 26.7509C30.2409 26.4709 30.3209 26.0909 30.3209 25.6209C30.3209 24.3109 29.9109 21.8109 27.7309 19.0609C28.2009 17.7209 28.2609 16.2309 28.2609 15.3509Z"
        fillRule="evenodd"
        clipRule="evenodd"
    />
</svg>
        