<svg viewBox="0 0 27.890625 27.890625" xmlns="http://www.w3.org/2000/svg"><path d="M13.9427 27.8864C21.6427 27.8864 27.8927 21.6464 27.8927 13.9464C27.8927 6.2464 21.6427 -0.0036 13.9427 -0.0036C6.2527 -0.0036 0.0027 6.2464 0.0027 13.9464C0.0027 21.6464 6.2527 27.8864 13.9427 27.8864ZM13.9427 25.5664C7.5227 25.5664 2.3227 20.3664 2.3227 13.9464C2.3227 7.9264 6.8727 2.9964 12.7327 2.3764C10.1727 2.9364 8.1027 5.2064 8.1027 8.0964C8.1027 10.6864 10.3627 12.9464 13.9427 13.9464C17.5427 14.9564 19.7927 17.2264 19.7927 19.7964C19.7927 22.5764 17.8527 24.9064 15.2327 25.4964C14.8027 25.5364 14.3827 25.5664 13.9427 25.5664Z" /></svg>