
<svg
    viewBox={0 0 27.890625 27.890625}
    xmlns="http://www.w3.org/2000/svg"
>
    <path
        fill="inherit"
        d="M13.9427 27.8864C21.6427 27.8864 27.8927 21.6464 27.8927 13.9464C27.8927 6.2464 21.6427 -0.0036 13.9427 -0.0036C6.2527 -0.0036 0.0027 6.2464 0.0027 13.9464C0.0027 21.6464 6.2527 27.8864 13.9427 27.8864ZM19.7827 19.7964C19.7827 17.1864 17.5227 14.9464 13.9427 13.9464C10.3527 12.9164 8.0927 10.6664 8.0927 8.0964C8.0927 5.3164 10.0327 2.9664 12.6627 2.3964C13.0827 2.3564 13.5127 2.3264 13.9427 2.3264C20.3727 2.3264 25.5627 7.5164 25.5627 13.9464C25.5627 19.9564 21.0127 24.8964 15.1727 25.4964C17.7227 24.9364 19.7827 22.6864 19.7827 19.7964Z"
        fillRule="evenodd"
        clipRule="evenodd"
    />
</svg>
        