
<svg
    viewBox="0 0 20.04296875 30.2421875"
    xmlns="http://www.w3.org/2000/svg"
>
    <path
        fill="inherit"
        d="M4.2337 30.2422H15.8037C18.6237 30.2422 20.0437 28.8222 20.0437 25.9622V4.2922C20.0437 1.4522 18.6237 0.0022 15.8037 0.0022H4.2337C1.4037 0.0022 0.0037 1.4522 0.0037 4.2922V25.9622C0.0037 28.8222 1.4037 30.2422 4.2337 30.2422ZM5.1237 12.6222C4.2337 12.6222 3.8737 12.2622 3.8737 11.3922V4.9722C3.8737 4.0922 4.2337 3.7422 5.1237 3.7422H14.8437C15.7537 3.7422 16.1237 4.0922 16.1237 4.9722V11.3922C16.1237 12.2622 15.7537 12.6222 14.8437 12.6222ZM5.1237 26.5122C4.2337 26.5122 3.8737 26.1722 3.8737 25.2822V18.8622C3.8737 17.9922 4.2337 17.6322 5.1237 17.6322H14.8437C15.7537 17.6322 16.1237 17.9922 16.1237 18.8622V25.2822C16.1237 26.1722 15.7537 26.5122 14.8437 26.5122Z"
        fillRule="evenodd"
        clipRule="evenodd"
    />
</svg>
        