
<svg
    viewBox={0 0 26.072265625 25.8125}
    xmlns="http://www.w3.org/2000/svg"
>
    <path
        fill="inherit"
        d="M6.4137 12.471H19.6637C23.1837 12.471 26.0737 9.951 26.0737 6.231C26.0737 2.511 23.1837 0.001 19.6637 0.001H6.4137C2.8837 0.001 0.0037 2.511 0.0037 6.231C0.0037 9.951 2.8837 12.471 6.4137 12.471ZM6.4137 10.401C4.1137 10.401 2.0637 8.721 2.0637 6.231C2.0637 3.751 4.1137 2.061 6.4137 2.061H19.6637C21.9537 2.061 24.0037 3.751 24.0037 6.231C24.0037 8.721 21.9537 10.401 19.6637 10.401ZM6.4137 9.471C8.2137 9.491 9.6537 8.011 9.6637 6.211C9.6837 4.411 8.2137 2.981 6.4137 2.981C4.6037 2.981 3.1737 4.431 3.1737 6.221C3.1737 8.021 4.6037 9.461 6.4137 9.471ZM5.8537 25.811H20.2237C23.4637 25.811 26.0737 23.541 26.0737 20.191C26.0737 16.841 23.4637 14.571 20.2237 14.571H5.8537C2.6137 14.571 0.0037 16.841 0.0037 20.191C0.0037 23.541 2.6137 25.811 5.8537 25.811ZM20.5737 23.751C18.5937 23.731 17.0337 22.151 17.0337 20.181C17.0337 18.221 18.6037 16.641 20.5737 16.641C22.5437 16.641 24.1437 18.211 24.1337 20.161C24.1137 22.151 22.5337 23.761 20.5737 23.751Z"
        fillRule="evenodd"
        clipRule="evenodd"
    />
</svg>
        