
<svg
    viewBox={0 0 31.295013369429775 30.85593050556871}
    xmlns="http://www.w3.org/2000/svg"
>
    <path
        fill="inherit"
        d="M0.2856 30.5966C0.6556 30.9566 1.2456 30.9366 1.6156 30.5666L6.9756 25.1966L7.6556 25.8766C9.0556 27.2666 10.9556 27.2166 12.4156 25.7566L25.9356 12.2366L27.4156 13.6966C27.8356 14.1266 28.5356 14.1266 28.9556 13.6966C29.3956 13.2766 29.3956 12.5666 28.9556 12.1366L27.4956 10.6766L28.0556 10.1166C28.4756 9.6966 28.4956 8.9966 28.0556 8.5766L26.0756 6.5866L27.7856 4.8766L29.4256 6.5166C29.8456 6.9466 30.5456 6.9466 30.9656 6.5166C31.4056 6.0866 31.4056 5.3866 30.9656 4.9666L26.3356 0.3266C25.9056 -0.1134 25.2156 -0.1134 24.7756 0.3266C24.3456 0.7566 24.3456 1.4466 24.7756 1.8766L26.4256 3.5166L24.7156 5.2266L22.3656 2.8666C21.9456 2.4466 21.2356 2.4466 20.8056 2.8666L20.2456 3.4266L18.7956 1.9866C18.3456 1.5166 17.6656 1.5466 17.2356 1.9866C16.8156 2.4066 16.7856 3.0766 17.2356 3.5266L18.6756 4.9766L5.1556 18.5166C3.6656 20.0166 3.6256 21.9066 5.0356 23.2866L5.6456 23.8966L0.2856 29.2566C-0.0844 29.6266 -0.1044 30.2266 0.2856 30.5966ZM9.0556 24.1466L6.7556 21.8566C6.1956 21.3166 6.1956 20.5866 6.7356 20.0466L8.4756 18.3166L10.6056 20.4566C10.8856 20.7266 11.2556 20.7166 11.5256 20.4366C11.7556 20.2066 11.7456 19.7966 11.5156 19.5466L9.3656 17.4266L11.3056 15.4766L13.4556 17.6266C13.7156 17.8866 14.0956 17.8866 14.3556 17.6266C14.6056 17.3766 14.5756 16.9766 14.3456 16.7366L12.1956 14.5866L14.1656 12.6366L16.2956 14.7766C16.5556 15.0266 16.9356 15.0366 17.1956 14.7766C17.4456 14.5366 17.4456 14.1366 17.1856 13.8766L15.0556 11.7466L16.9956 9.8066L19.1456 11.9466C19.3956 12.1966 19.7656 12.1966 20.0256 11.9466C20.2756 11.7166 20.2656 11.2966 20.0256 11.0466L17.8856 8.8966L20.2456 6.5466L24.3756 10.6766L10.8656 24.1966C10.3356 24.7366 9.6156 24.7066 9.0556 24.1466Z"
        fillRule="evenodd"
        clipRule="evenodd"
    />
</svg>
        