
<svg
    viewBox={0 0 31.295013369429775 30.85593050556871}
    xmlns="http://www.w3.org/2000/svg"
>
    <path
        fill="inherit"
        d="M17.2356 3.5266L27.4156 13.6966C27.8356 14.1266 28.5356 14.1266 28.9556 13.6966C29.3956 13.2766 29.3956 12.5666 28.9556 12.1366L27.4956 10.6766L28.0556 10.1166C28.4756 9.6966 28.4956 8.9966 28.0556 8.5766L26.0756 6.5866L27.7856 4.8766L29.4256 6.5166C29.8456 6.9466 30.5456 6.9466 30.9656 6.5166C31.4056 6.0866 31.4056 5.3866 30.9656 4.9666L26.3356 0.3266C25.9056 -0.1134 25.2156 -0.1134 24.7756 0.3266C24.3456 0.7566 24.3456 1.4466 24.7756 1.8766L26.4256 3.5166L24.7156 5.2266L22.3656 2.8666C21.9456 2.4466 21.2356 2.4466 20.8056 2.8666L20.2456 3.4266L18.7956 1.9866C18.3456 1.5166 17.6656 1.5466 17.2356 1.9866C16.8156 2.4066 16.7856 3.0766 17.2356 3.5266ZM0.2856 30.5966C0.6556 30.9566 1.2456 30.9366 1.6156 30.5666L6.9556 25.2066L7.8356 26.0866C9.1556 27.4166 10.8156 27.3566 12.2256 25.9466L24.8556 13.3066L17.6056 6.0566L15.8556 7.8066L19.1956 11.1566C19.4456 11.4066 19.4456 11.8266 19.1956 12.0566C18.9356 12.3066 18.5656 12.3066 18.3056 12.0566L14.9556 8.7066L13.0156 10.6466L16.3556 13.9866C16.6156 14.2466 16.6156 14.6466 16.3656 14.8866C16.1056 15.1466 15.7256 15.1366 15.4656 14.8866L12.1256 11.5366L10.1556 13.4966L13.5056 16.8466C13.7556 17.0866 13.7656 17.4866 13.5256 17.7366C13.2656 17.9966 12.8756 17.9966 12.6156 17.7366L9.2656 14.3866L7.3256 16.3366L10.6756 19.6566C10.9056 19.9066 10.9256 20.3066 10.6956 20.5466C10.4356 20.8366 10.0456 20.8366 9.7756 20.5666L6.4356 17.2266L4.9456 18.7066C3.5456 20.1066 3.5256 21.7366 4.8356 23.0766L5.6456 23.8966L0.2856 29.2566C-0.0844 29.6266 -0.1044 30.2266 0.2856 30.5966Z"
        fillRule="evenodd"
        clipRule="evenodd"
    />
</svg>
        