
<svg
    viewBox="0 0 27.890625 27.890625"
    xmlns="http://www.w3.org/2000/svg"
>
    <path
        fill="inherit"
        d="M13.9427 27.8864C21.6427 27.8864 27.8927 21.6464 27.8927 13.9464C27.8927 6.2464 21.6427 -0.0036 13.9427 -0.0036C6.2527 -0.0036 0.0027 6.2464 0.0027 13.9464C0.0027 21.6464 6.2527 27.8864 13.9427 27.8864ZM13.9427 25.5664C7.5227 25.5664 2.3227 20.3664 2.3227 13.9464C2.3227 7.5164 7.5227 2.3264 13.9427 2.3264C20.3727 2.3264 25.5627 7.5164 25.5627 13.9464C25.5627 20.3664 20.3727 25.5664 13.9427 25.5664ZM13.8927 20.2664C14.6127 20.2664 15.0027 19.7864 15.0027 19.0264V9.4364H18.4027C18.9227 9.4364 19.3227 9.0764 19.3227 8.5264C19.3227 7.9664 18.9227 7.6464 18.4027 7.6464H9.4427C8.9327 7.6464 8.5427 7.9664 8.5427 8.5264C8.5427 9.0764 8.9327 9.4364 9.4427 9.4364H12.8227V19.0264C12.8227 19.7564 13.1927 20.2664 13.8927 20.2664Z"
        fillRule="evenodd"
        clipRule="evenodd"
    />
</svg>
        