
<svg
    viewBox={0 0 27.890625 27.890625}
    xmlns="http://www.w3.org/2000/svg"
>
    <path
        fill="inherit"
        d="M13.9427 27.8864C21.6427 27.8864 27.8927 21.6264 27.8927 13.9464C27.8927 6.2464 21.6427 -0.0036 13.9427 -0.0036C6.2627 -0.0036 0.0027 6.2464 0.0027 13.9464C0.0027 21.6264 6.2627 27.8864 13.9427 27.8864ZM13.9027 20.4664C13.1827 20.4664 12.7927 19.9364 12.7927 19.1864V9.2964H9.3227C8.7727 9.2964 8.3827 8.9264 8.3827 8.3664C8.3827 7.7764 8.7727 7.4364 9.3227 7.4364H18.5527C19.1027 7.4364 19.5127 7.7764 19.5127 8.3664C19.5127 8.9264 19.1027 9.2964 18.5527 9.2964H15.0527V19.1864C15.0527 19.9564 14.6527 20.4664 13.9027 20.4664Z"
        fillRule="evenodd"
        clipRule="evenodd"
    />
</svg>
        