
<svg
    viewBox={0 0 25.169921875 25.169921875}
    xmlns="http://www.w3.org/2000/svg"
>
    <path
        fill="inherit"
        d="M4.2937 25.1692H20.8737C23.7437 25.1692 25.1737 23.7592 25.1737 20.9492V4.2392C25.1737 1.4192 23.7437 -0.0008 20.8737 -0.0008H4.2937C1.4337 -0.0008 0.0037 1.4192 0.0037 4.2392V20.9492C0.0037 23.7592 1.4337 25.1692 4.2937 25.1692ZM12.5637 19.0992C11.8237 19.0992 11.4437 18.5692 11.4437 17.8192V7.9292H7.9837C7.4337 7.9292 7.0237 7.5592 7.0237 6.9992C7.0237 6.4092 7.4337 6.0692 7.9837 6.0692H17.2037C17.7437 6.0692 18.1537 6.4092 18.1537 6.9992C18.1537 7.5592 17.7437 7.9292 17.2037 7.9292H13.7037V17.8192C13.7037 18.5892 13.3037 19.0992 12.5637 19.0992Z"
        fillRule="evenodd"
        clipRule="evenodd"
    />
</svg>
        