
<svg
    viewBox="0 0 25.169921875 25.169921875"
    xmlns="http://www.w3.org/2000/svg"
>
    <path
        fill="inherit"
        d="M4.2937 25.1692H20.8737C23.7437 25.1692 25.1737 23.7592 25.1737 20.9492V4.2392C25.1737 1.4192 23.7437 -0.0008 20.8737 -0.0008H4.2937C1.4337 -0.0008 0.0037 1.4192 0.0037 4.2392V20.9492C0.0037 23.7592 1.4337 25.1692 4.2937 25.1692ZM4.3237 22.9692C2.9537 22.9692 2.2037 22.2392 2.2037 20.8192V4.3592C2.2037 2.9392 2.9537 2.1992 4.3237 2.1992H20.8537C22.2037 2.1992 22.9737 2.9392 22.9737 4.3592V20.8192C22.9737 22.2392 22.2037 22.9692 20.8537 22.9692ZM12.5637 18.8992C13.2737 18.8992 13.6537 18.4192 13.6537 17.6592V8.0692H17.0637C17.5837 8.0692 17.9737 7.7092 17.9737 7.1592C17.9737 6.5992 17.5837 6.2792 17.0637 6.2792H8.1237C7.6037 6.2792 7.2037 6.5992 7.2037 7.1592C7.2037 7.7092 7.6037 8.0692 8.1237 8.0692H11.4837V17.6592C11.4837 18.3892 11.8537 18.8992 12.5637 18.8992Z"
        fillRule="evenodd"
        clipRule="evenodd"
    />
</svg>
        