
<svg
    viewBox="0 0 27.78125 24.09326171875"
    xmlns="http://www.w3.org/2000/svg"
>
    <path
        fill="inherit"
        d="M13.9327 0.0034C6.3127 0.0034 0.0027 6.3334 0.0027 13.9434C0.0027 17.7334 1.5727 21.2034 4.0727 23.7334C4.5427 24.2134 5.2527 24.2134 5.7427 23.7334C6.2027 23.2834 6.0827 22.5834 5.5827 22.0434C3.5727 19.9334 2.3427 17.0934 2.3427 13.9434C2.3427 7.5034 7.4827 2.3234 13.9327 2.3234C19.6427 2.3234 24.3327 6.4134 25.2927 11.8234C25.4327 12.4534 25.9327 12.8634 26.5627 12.8134C27.2627 12.7534 27.7427 12.1434 27.5727 11.3934C26.3827 4.9634 20.6827 0.0034 13.9327 0.0034ZM12.5927 15.6934C13.4927 16.5834 14.7827 16.5834 15.6727 15.6934C16.5727 14.7934 16.5727 13.5034 15.6727 12.6034C15.5027 12.4434 15.1527 12.1834 14.9327 12.0334L8.3027 7.4234C7.9727 7.1934 7.6427 7.2634 7.4327 7.4534C7.2427 7.6734 7.1827 7.9834 7.4127 8.3134L12.0127 14.9434C12.1727 15.1634 12.4327 15.5134 12.5927 15.6934ZM26.5327 17.0334C27.2227 17.0334 27.7827 16.4734 27.7827 15.7934C27.7827 15.1034 27.2227 14.5434 26.5327 14.5434C25.8527 14.5434 25.2927 15.1034 25.2927 15.7934C25.2927 16.4734 25.8527 17.0334 26.5327 17.0334ZM25.3227 20.9134C26.0027 20.9134 26.5627 20.3534 26.5627 19.6734C26.5627 18.9934 26.0027 18.4334 25.3227 18.4334C24.6327 18.4334 24.0727 18.9934 24.0727 19.6734C24.0727 20.3534 24.6327 20.9134 25.3227 20.9134ZM22.8827 24.0934C23.5727 24.0934 24.1327 23.5334 24.1327 22.8434C24.1327 22.1634 23.5727 21.6034 22.8827 21.6034C22.2027 21.6034 21.6427 22.1634 21.6427 22.8434C21.6427 23.5334 22.2027 24.0934 22.8827 24.0934Z"
        fillRule="evenodd"
        clipRule="evenodd"
    />
</svg>
        