
<svg
    viewBox={0 0 27.890625 27.890625}
    xmlns="http://www.w3.org/2000/svg"
>
    <path
        fill="inherit"
        d="M13.9427 27.8864C21.6427 27.8864 27.8927 21.6464 27.8927 13.9464C27.8927 6.2464 21.6427 -0.0036 13.9427 -0.0036C6.2527 -0.0036 0.0027 6.2464 0.0027 13.9464C0.0027 21.6464 6.2527 27.8864 13.9427 27.8864ZM13.9427 25.5664C7.5227 25.5664 2.3227 20.3664 2.3227 13.9464C2.3227 7.5164 7.5227 2.3264 13.9427 2.3264C20.3727 2.3264 25.5627 7.5164 25.5627 13.9464C25.5627 20.3664 20.3727 25.5664 13.9427 25.5664ZM11.1127 21.0564C11.9527 21.8764 12.7727 21.8864 13.6127 21.0364L20.2227 14.4764C20.7527 13.9764 21.1327 13.6064 21.1327 12.7664V10.1964C21.1327 9.5864 20.9727 9.2264 20.5627 8.8064L19.3727 7.6264C18.9527 7.2164 18.5927 6.9564 17.9827 6.9564H15.3227C14.5027 6.9564 14.1227 7.3464 13.6027 7.8764L7.0527 14.4964C6.2027 15.3364 6.2227 16.1464 7.0427 16.9664ZM16.3627 11.7264C15.9827 11.3564 15.9827 10.7364 16.3627 10.3464C16.7327 9.9664 17.3627 9.9664 17.7327 10.3464C18.1127 10.7164 18.1127 11.3364 17.7327 11.7164C17.3527 12.1164 16.7527 12.1164 16.3627 11.7264Z"
        fillRule="evenodd"
        clipRule="evenodd"
    />
</svg>
        