
<svg
    viewBox={0 0 27.890625 27.890625}
    xmlns="http://www.w3.org/2000/svg"
>
    <path
        fill="inherit"
        d="M13.9427 27.8927C21.6427 27.8927 27.8927 21.6427 27.8927 13.9427C27.8927 6.2627 21.6427 0.0027 13.9427 0.0027C6.2627 0.0027 0.0027 6.2627 0.0027 13.9427C0.0027 21.6427 6.2627 27.8927 13.9427 27.8927ZM11.0327 21.2727L6.8327 17.0527C5.9927 16.2027 5.9927 15.3627 6.8627 14.4927L13.5927 7.6727C14.1327 7.1327 14.5227 6.7227 15.3627 6.7227H18.1127C18.7627 6.7227 19.1227 7.0027 19.5527 7.4327L20.7827 8.6427C21.2227 9.0627 21.3827 9.4327 21.3827 10.0927V12.7127C21.3827 13.5927 20.9727 13.9627 20.4427 14.5027L13.6127 21.2627C12.7427 22.1227 11.8927 22.1227 11.0327 21.2727ZM16.4627 11.6627C16.8427 12.0427 17.4627 12.0427 17.8727 11.6527C18.2627 11.2527 18.2627 10.6227 17.8727 10.2227C17.4727 9.8327 16.8427 9.8327 16.4627 10.2227C16.0627 10.6327 16.0627 11.2627 16.4627 11.6627Z"
        fillRule="evenodd"
        clipRule="evenodd"
    />
</svg>
        