<svg viewBox="0 0 30.54126420064361 30.541264200643607" xmlns="http://www.w3.org/2000/svg"><path d="M16.1138 29.0653L29.4438 15.7053C30.4738 14.6853 30.5438 14.0953 30.5438 12.6553V7.4653C30.5438 6.0153 30.2038 5.5653 29.1638 4.5253L26.0138 1.3853C24.9938 0.3553 24.5438 -0.0047 23.0938 -0.0047H17.8838C16.4438 -0.0047 15.8738 0.0653 14.8438 1.0953L1.4738 14.4353C-0.4762 16.3953 -0.5062 18.4153 1.4838 20.4153L10.1438 29.0553C12.1538 31.0453 14.1638 31.0253 16.1138 29.0653ZM14.6438 27.4153C13.6738 28.3953 12.6138 28.4053 11.6238 27.3953L3.1438 18.9253C2.1338 17.9253 2.1538 16.8753 3.1338 15.9053L16.3938 2.6553C16.6738 2.3753 16.9538 2.2053 17.4138 2.2053H23.1738C23.6138 2.2053 23.8838 2.3653 24.1838 2.6553L27.9038 6.3753C28.1938 6.6553 28.3438 6.9453 28.3438 7.3653V13.1353C28.3438 13.5853 28.1738 13.8753 27.9038 14.1553ZM21.4938 10.9353C22.5538 10.9353 23.3638 10.1053 23.3638 9.0653C23.3638 8.0153 22.5538 7.1953 21.4938 7.1953C20.4238 7.1953 19.6138 8.0153 19.6138 9.0653C19.6138 10.1053 20.4238 10.9353 21.4938 10.9353Z" /></svg>