
<svg
    viewBox={0 0 30.54640439719805 30.541264200643607}
    xmlns="http://www.w3.org/2000/svg"
>
    <path
        fill="inherit"
        d="M9.8589 6.0653L24.4789 20.6853L29.4489 15.7053C30.4789 14.6853 30.5489 14.0953 30.5489 12.6553V7.4653C30.5489 6.0153 30.2089 5.5653 29.1689 4.5253L26.0189 1.3853C24.9989 0.3553 24.5489 -0.0047 23.0989 -0.0047H17.8889C16.4489 -0.0047 15.8789 0.0653 14.8489 1.0953ZM26.3989 27.8753C26.8289 28.2853 27.4989 28.2853 27.8989 27.8753C28.2889 27.4653 28.3089 26.7953 27.8989 26.3853L4.1589 2.6553C3.7489 2.2453 3.0789 2.2253 2.6589 2.6553C2.2589 3.0453 2.2589 3.7353 2.6589 4.1453ZM20.7989 10.9353C19.7189 10.9353 18.9289 10.1053 18.9289 9.0653C18.9289 8.0153 19.7189 7.1953 20.7989 7.1953C21.8689 7.1953 22.6689 8.0153 22.6689 9.0653C22.6689 10.1053 21.8689 10.9353 20.7989 10.9353ZM20.6889 24.4953L6.0689 9.8553L1.4789 14.4353C-0.4711 16.3953 -0.5111 18.4153 1.4889 20.4153L10.1489 29.0553C12.1589 31.0453 14.1689 31.0253 16.1189 29.0653Z"
        fillRule="evenodd"
        clipRule="evenodd"
    />
</svg>
        