<svg viewBox="0 0 30.54640439719805 30.541264200643607" xmlns="http://www.w3.org/2000/svg"><path d="M22.9189 19.1453L24.4889 20.6953L29.4489 15.7053C30.4789 14.6853 30.5489 14.0953 30.5489 12.6553V7.4653C30.5489 6.0153 30.2089 5.5653 29.1689 4.5253L26.0189 1.3853C24.9989 0.3553 24.5489 -0.0047 23.0989 -0.0047H17.8889C16.4489 -0.0047 15.8789 0.0653 14.8489 1.0953L9.8589 6.0653L11.4189 7.6253L16.3989 2.6553C16.6689 2.3753 16.9589 2.2053 17.4189 2.2053H23.1789C23.5989 2.2053 23.8889 2.3653 24.1789 2.6553L27.9089 6.3753C28.1989 6.6553 28.3489 6.9453 28.3489 7.3653V13.1353C28.3489 13.5853 28.1789 13.8753 27.9089 14.1553ZM26.3989 27.8753C26.8289 28.2853 27.4989 28.2853 27.8989 27.8753C28.2889 27.4653 28.3089 26.7953 27.8989 26.3853L4.1589 2.6553C3.7489 2.2453 3.0789 2.2253 2.6589 2.6553C2.2589 3.0453 2.2589 3.7353 2.6589 4.1453ZM21.4989 10.9353C22.5589 10.9353 23.3689 10.1053 23.3689 9.0653C23.3689 8.0153 22.5589 7.1953 21.4989 7.1953C20.4189 7.1953 19.6189 8.0153 19.6189 9.0653C19.6189 10.1053 20.4189 10.9353 21.4989 10.9353ZM20.6989 24.4853L19.1489 22.9153L14.6489 27.4153C13.6589 28.3953 12.6189 28.4053 11.6289 27.3953L3.1389 18.9253C2.1389 17.9253 2.1489 16.8753 3.1189 15.9053L7.6489 11.3853L6.0989 9.8253L1.4789 14.4353C-0.4711 16.3953 -0.5111 18.4153 1.4889 20.4153L10.1489 29.0553C12.1589 31.0453 14.1689 31.0253 16.1189 29.0653Z" /></svg>