
<svg
    viewBox={0 0 25.169921875 25.169921875}
    xmlns="http://www.w3.org/2000/svg"
>
    <path
        fill="inherit"
        d="M4.2937 25.1692H20.8737C23.7437 25.1692 25.1737 23.7592 25.1737 20.9492V4.2392C25.1737 1.4192 23.7437 -0.0008 20.8737 -0.0008H4.2937C1.4337 -0.0008 0.0037 1.4192 0.0037 4.2392V20.9492C0.0037 23.7592 1.4337 25.1692 4.2937 25.1692ZM4.3237 22.9692C2.9537 22.9692 2.2037 22.2392 2.2037 20.8192V4.3592C2.2037 2.9392 2.9537 2.1992 4.3237 2.1992H20.8537C22.2037 2.1992 22.9737 2.9392 22.9737 4.3592V20.8192C22.9737 22.2392 22.2037 22.9692 20.8537 22.9692ZM9.7737 19.6892C10.6137 20.5092 11.4337 20.5192 12.2737 19.6692L18.8837 13.1092C19.4137 12.6092 19.7937 12.2392 19.7937 11.3992V8.8292C19.7937 8.2192 19.6337 7.8592 19.2237 7.4392L18.0337 6.2592C17.6137 5.8492 17.2537 5.5892 16.6437 5.5892H13.9837C13.1637 5.5892 12.7837 5.9792 12.2637 6.5092L5.7137 13.1292C4.8837 13.9692 4.8837 14.7792 5.7037 15.5992ZM15.0237 10.3592C14.6437 9.9892 14.6437 9.3692 15.0237 8.9792C15.3937 8.5992 16.0237 8.5992 16.3937 8.9792C16.7737 9.3492 16.7737 9.9692 16.3937 10.3492C16.0137 10.7492 15.4037 10.7492 15.0237 10.3592Z"
        fillRule="evenodd"
        clipRule="evenodd"
    />
</svg>
        