<svg viewBox="0 0 36.01171875 24.350383675774495" xmlns="http://www.w3.org/2000/svg"><path d="M27.8537 22.4263C26.7137 23.5363 28.2037 25.0563 29.3837 23.9863C30.8037 22.6463 31.6337 20.6963 31.8237 18.4763H34.9137C35.5037 18.4763 36.0137 17.9863 36.0137 17.3863C36.0137 16.7963 35.5037 16.2763 34.9137 16.2763H31.8137C31.7237 15.2963 31.5137 14.2763 31.1837 13.2663H34.9137C35.5037 13.2663 36.0137 12.7863 36.0137 12.1863C36.0137 11.5963 35.5037 11.0663 34.9137 11.0663H30.3637C30.0137 10.0563 29.7737 9.0563 29.6637 8.0863L34.9137 8.0763C35.4937 8.0763 36.0137 7.5863 36.0137 6.9763C36.0137 6.3763 35.5037 5.8763 34.9137 5.8763H29.6437C29.7937 4.2763 30.3337 2.8763 31.2837 1.9163C32.4437 0.8163 30.9537 -0.7037 29.7637 0.3663C28.3237 1.7163 27.5037 3.6663 27.3137 5.8763H24.1737C24.3237 6.6063 24.4337 7.3663 24.5137 8.0863H27.3437C27.4437 9.0763 27.6437 10.0663 27.9637 11.0663H24.7037C24.7237 11.4763 24.7237 12.8763 24.7037 13.2663H28.7837C29.1437 14.2963 29.3837 15.3063 29.4937 16.2763L24.5137 16.2863C24.4337 17.0063 24.3237 17.7363 24.1737 18.4963L29.5137 18.4763C29.3637 20.0763 28.8037 21.4563 27.8537 22.4263ZM22.8437 12.1763C22.8737 9.5363 22.6537 7.0063 21.9337 4.4063C21.0837 1.5963 19.4937 0.5863 16.1737 0.5863H15.4037C7.2637 0.5863 0.0037 5.9263 0.0037 12.1763C0.0037 18.4263 7.2637 23.7463 15.4037 23.7463H16.1737C19.5137 23.7463 21.0937 22.7463 21.9337 19.9263C22.6537 17.3463 22.8737 14.8163 22.8437 12.1763Z" /></svg>