
<svg
    viewBox="0 0 27.890625 27.890625"
    xmlns="http://www.w3.org/2000/svg"
>
    <path
        fill="inherit"
        d="M13.9427 27.8864C21.6427 27.8864 27.8927 21.6464 27.8927 13.9464C27.8927 6.2464 21.6427 -0.0036 13.9427 -0.0036C6.2527 -0.0036 0.0027 6.2464 0.0027 13.9464C0.0027 21.6464 6.2527 27.8864 13.9427 27.8864ZM13.9427 25.5664C7.5227 25.5664 2.3227 20.3664 2.3227 13.9464C2.3227 7.5164 7.5227 2.3264 13.9427 2.3264C20.3727 2.3264 25.5627 7.5164 25.5627 13.9464C25.5627 20.3664 20.3727 25.5664 13.9427 25.5664ZM13.9427 22.6164C18.7327 22.6164 22.6127 18.7264 22.6127 13.9464C22.6127 9.1564 18.7327 5.2764 13.9427 5.2764C9.1627 5.2764 5.2727 9.1564 5.2727 13.9464C5.2727 18.7264 9.1627 22.6164 13.9427 22.6164ZM13.9427 20.4164C10.3627 20.4164 7.4827 17.5264 7.4827 13.9464C7.4827 10.3664 10.3627 7.4764 13.9427 7.4764C17.5227 7.4764 20.4127 10.3664 20.4127 13.9464C20.4127 17.5264 17.5227 20.4164 13.9427 20.4164ZM13.9427 17.4764C15.9027 17.4764 17.4827 15.8964 17.4827 13.9364C17.4827 11.9764 15.9027 10.3864 13.9427 10.3864C11.9927 10.3864 10.4027 11.9764 10.4027 13.9364C10.4027 15.8964 11.9927 17.4764 13.9427 17.4764Z"
        fillRule="evenodd"
        clipRule="evenodd"
    />
</svg>
        