<svg viewBox="0 0 29.070946913696176 33.44140625" xmlns="http://www.w3.org/2000/svg"><path d="M26.3159 16.8951L22.0459 14.9551C23.1259 13.4351 23.7659 11.5951 23.7659 9.5851C23.7659 9.3951 23.7659 9.2151 23.7459 9.0251C26.0359 8.7951 27.8059 6.8651 27.8059 4.5151C27.8059 2.0251 25.7859 -0.0049 23.2859 -0.0049C21.7859 -0.0049 20.4459 0.7351 19.6259 1.8851C18.1559 0.9051 16.4059 0.3451 14.5259 0.3451C12.6359 0.3451 10.8859 0.9051 9.4259 1.8851C8.6059 0.7351 7.2659 -0.0049 5.7559 -0.0049C3.2559 -0.0049 1.2359 2.0251 1.2359 4.5151C1.2359 6.8651 3.0059 8.7951 5.2959 9.0251C5.2759 9.2151 5.2759 9.3951 5.2759 9.5851C5.2759 11.5951 5.9259 13.4551 7.0159 14.9751L2.7459 16.8951C0.3559 17.9751 -0.6541 20.8351 0.4359 23.2051C0.9959 24.3751 1.9759 25.2251 3.1459 25.6251C3.8759 22.9851 5.8659 21.1051 8.2859 21.1051C11.3459 21.1051 13.7459 24.1151 13.7459 27.8751C13.7459 29.5451 13.2659 31.0651 12.4859 32.2551C13.7659 32.4251 15.2859 32.4151 16.5859 32.2551C15.8059 31.0651 15.3259 29.5451 15.3259 27.8751C15.3259 24.1151 17.7259 21.1051 20.7859 21.1051C23.2059 21.1051 25.1959 22.9851 25.9259 25.6251C27.0959 25.2251 28.0659 24.3751 28.6359 23.2051C29.7259 20.8351 28.7159 17.9751 26.3159 16.8951ZM5.7559 1.9551C6.6559 1.9551 7.4559 2.4151 7.9059 3.1451C6.8559 4.2151 6.0459 5.5651 5.6359 7.0551C5.5359 7.0551 5.4559 7.0451 5.3859 7.0251C4.1459 6.8451 3.2059 5.7951 3.2059 4.5151C3.2059 3.1051 4.3459 1.9551 5.7559 1.9551ZM23.2859 1.9551C24.6959 1.9551 25.8459 3.1051 25.8459 4.5151C25.8459 5.7851 24.8959 6.8651 23.6559 7.0251C23.5759 7.0451 23.4659 7.0551 23.4059 7.0551C22.9959 5.5651 22.1959 4.2151 21.1359 3.1451C21.5859 2.4151 22.3859 1.9551 23.2859 1.9551ZM10.9559 8.9651C10.3259 8.9651 9.7759 8.4351 9.7759 7.7751C9.7759 7.1251 10.3259 6.5851 10.9559 6.5851C11.6059 6.5851 12.1459 7.1251 12.1459 7.7751C12.1459 8.4351 11.6059 8.9651 10.9559 8.9651ZM18.1059 8.9651C17.4459 8.9651 16.9159 8.4351 16.9159 7.7751C16.9159 7.1251 17.4459 6.5851 18.1059 6.5851C18.7359 6.5851 19.2759 7.1251 19.2759 7.7751C19.2759 8.4351 18.7359 8.9651 18.1059 8.9651ZM14.5459 17.6751C12.1959 17.6751 10.3259 15.7951 10.3259 13.4551C10.3259 11.1251 12.2159 9.2251 14.5459 9.2251C16.8759 9.2251 18.7759 11.1151 18.7759 13.4551C18.7759 15.7751 16.8559 17.6751 14.5459 17.6751ZM14.5259 13.9851C15.3459 13.9851 16.6559 12.7551 16.6559 12.4151C16.6559 11.8551 15.7559 11.0751 14.5259 11.0751C13.2959 11.0751 12.3459 11.8551 12.3459 12.4151C12.3459 12.7551 13.7159 13.9851 14.5259 13.9851ZM8.2859 33.4451C10.6559 33.4451 12.4959 30.9551 12.4959 27.8751C12.4959 24.8451 10.6559 22.3551 8.2859 22.3551C5.9259 22.3551 4.0759 24.8451 4.0759 27.8751C4.0759 30.9551 5.9259 33.4451 8.2859 33.4451ZM20.7859 33.4451C23.1459 33.4451 24.9959 30.9551 24.9959 27.8751C24.9959 24.8451 23.1459 22.3551 20.7859 22.3551C18.4159 22.3551 16.5759 24.8451 16.5759 27.8751C16.5759 30.9551 18.4159 33.4451 20.7859 33.4451Z" /></svg>