
<svg
    viewBox={0 0 27.890625 27.890625}
    xmlns="http://www.w3.org/2000/svg"
>
    <path
        fill="inherit"
        d="M13.9427 27.8864C21.6427 27.8864 27.8927 21.6464 27.8927 13.9464C27.8927 6.2464 21.6427 -0.0036 13.9427 -0.0036C6.2527 -0.0036 0.0027 6.2464 0.0027 13.9464C0.0027 21.6464 6.2527 27.8864 13.9427 27.8864ZM13.9427 25.5664C7.5227 25.5664 2.3227 20.3664 2.3227 13.9464C2.3227 7.5164 7.5227 2.3264 13.9427 2.3264C20.3727 2.3264 25.5627 7.5164 25.5627 13.9464C25.5627 20.3664 20.3727 25.5664 13.9427 25.5664ZM13.9327 7.0564C11.2927 7.0564 8.2827 7.5364 6.8227 9.0464C6.2527 9.5964 5.9227 10.3264 5.9227 11.2264C5.9227 11.8364 6.1127 12.7464 6.8227 12.8064C7.0127 12.8764 7.2227 12.8564 7.4627 12.8264L9.4627 12.4864C10.1627 12.3764 10.4727 12.1264 10.6627 11.4564L10.9927 10.2364C11.0727 10.0264 11.1327 9.9264 11.4327 9.8264C11.9627 9.6264 12.8627 9.5164 13.9327 9.5164C15.0027 9.5164 15.9027 9.6264 16.4327 9.8264C16.7527 9.9264 16.7927 10.0264 16.8727 10.2364L17.2027 11.4564C17.3927 12.1264 17.7027 12.3764 18.4027 12.4864L20.4027 12.8264C20.6427 12.8564 20.8527 12.8764 21.0427 12.8064C21.7527 12.7464 21.9427 11.8364 21.9427 11.2264C21.9427 10.3264 21.6127 9.5964 21.0427 9.0464C19.5827 7.5364 16.5827 7.0564 13.9327 7.0564ZM7.6127 17.0264H8.9027C9.4027 17.0264 9.6827 16.7464 9.6827 16.2264V14.9464C9.6827 14.4464 9.4027 14.1464 8.9027 14.1464H7.6127C7.1127 14.1464 6.8227 14.4464 6.8227 14.9464V16.2264C6.8227 16.7464 7.1127 17.0264 7.6127 17.0264ZM11.4027 17.0264H12.6827C13.1827 17.0264 13.4627 16.7464 13.4627 16.2264V14.9464C13.4627 14.4464 13.1827 14.1464 12.6827 14.1464H11.4027C10.8827 14.1464 10.5827 14.4464 10.5827 14.9464V16.2264C10.5827 16.7464 10.8827 17.0264 11.4027 17.0264ZM15.1527 17.0264H16.4427C16.9427 17.0264 17.2427 16.7464 17.2427 16.2264V14.9464C17.2427 14.4464 16.9427 14.1464 16.4427 14.1464H15.1527C14.6527 14.1464 14.3527 14.4464 14.3527 14.9464V16.2264C14.3527 16.7464 14.6527 17.0264 15.1527 17.0264ZM18.9127 17.0264H20.2027C20.7227 17.0264 21.0127 16.7464 21.0127 16.2264V14.9464C21.0127 14.4464 20.7227 14.1464 20.2027 14.1464H18.9127C18.4327 14.1464 18.1327 14.4464 18.1327 14.9464V16.2264C18.1327 16.7464 18.4327 17.0264 18.9127 17.0264ZM7.5927 20.8264H8.8827C9.4027 20.8264 9.6827 20.5264 9.6827 20.0164V18.7164C9.6827 18.2264 9.4027 17.9264 8.8827 17.9264H7.5927C7.0927 17.9264 6.8227 18.2264 6.8227 18.7164V20.0164C6.8227 20.5264 7.0927 20.8264 7.5927 20.8264ZM11.3727 20.8264H16.4627C16.9627 20.8264 17.2527 20.5264 17.2527 20.0164V18.7164C17.2527 18.2264 16.9627 17.9264 16.4627 17.9264H11.3727C10.8727 17.9264 10.5827 18.2264 10.5827 18.7164V20.0164C10.5827 20.5264 10.8727 20.8264 11.3727 20.8264ZM18.9527 20.8264H20.2327C20.7427 20.8264 21.0127 20.5264 21.0127 20.0164V18.7164C21.0127 18.2264 20.7427 17.9264 20.2327 17.9264H18.9527C18.4427 17.9264 18.1427 18.2264 18.1427 18.7164V20.0164C18.1427 20.5264 18.4427 20.8264 18.9527 20.8264Z"
        fillRule="evenodd"
        clipRule="evenodd"
    />
</svg>
        