
<svg
    viewBox={0 0 27.890625 27.890625}
    xmlns="http://www.w3.org/2000/svg"
>
    <path
        fill="inherit"
        d="M13.9427 27.8864C21.6427 27.8864 27.8927 21.6464 27.8927 13.9464C27.8927 6.2464 21.6427 -0.0036 13.9427 -0.0036C6.2527 -0.0036 0.0027 6.2464 0.0027 13.9464C0.0027 21.6464 6.2527 27.8864 13.9427 27.8864ZM13.9427 25.5664C7.5227 25.5664 2.3227 20.3664 2.3227 13.9464C2.3227 7.5164 7.5227 2.3264 13.9427 2.3264C20.3727 2.3264 25.5627 7.5164 25.5627 13.9464C25.5627 20.3664 20.3727 25.5664 13.9427 25.5664ZM8.0027 18.2564C9.8827 20.1564 12.1727 21.6064 14.0127 21.6064C14.8727 21.6064 15.6127 21.2564 16.1027 20.6964C16.5827 20.1764 16.7327 19.7864 16.7327 19.4264C16.7327 19.1564 16.5727 18.9064 16.1427 18.6064L14.5627 17.4864C14.1627 17.1964 14.0027 17.1464 13.7527 17.1464C13.5527 17.1464 13.3827 17.1864 13.0527 17.3764L12.0127 17.9364C11.8927 18.0064 11.8427 18.0164 11.7427 18.0164C11.6227 18.0164 11.5527 17.9964 11.4327 17.9364C10.9227 17.7064 10.2227 17.1764 9.6127 16.5564C9.0127 15.9364 8.5427 15.2964 8.2727 14.8364C8.2627 14.7664 8.2127 14.6564 8.2127 14.5464C8.2127 14.4664 8.2627 14.3964 8.3127 14.3164L8.9127 13.2764C9.0827 12.9764 9.1327 12.8364 9.1327 12.6064C9.1327 12.3464 9.0627 12.0764 8.8027 11.7264L7.7127 10.2164C7.4127 9.7864 7.1627 9.5164 6.8227 9.5164C6.3827 9.5164 5.8827 9.8564 5.4927 10.2164C4.9527 10.7364 4.6627 11.4564 4.6627 12.2664C4.6627 14.1264 6.0827 16.3564 8.0027 18.2564ZM11.3427 12.4164H12.4727C12.9327 12.4164 13.1827 12.1364 13.1827 11.7064V10.5864C13.1827 10.1164 12.9327 9.8964 12.4727 9.8964H11.3427C10.9127 9.8964 10.6527 10.1164 10.6527 10.5864V11.7064C10.6527 12.1364 10.9127 12.4164 11.3427 12.4164ZM14.6827 12.4164H15.8227C16.2527 12.4164 16.4927 12.1364 16.4927 11.7064V10.5864C16.4927 10.1164 16.2527 9.8964 15.8227 9.8964H14.6827C14.2327 9.8964 13.9627 10.1164 13.9627 10.5864V11.7064C13.9627 12.1364 14.2327 12.4164 14.6827 12.4164ZM17.9827 12.4164H19.1127C19.5527 12.4164 19.8227 12.1364 19.8227 11.7064V10.5864C19.8227 10.1164 19.5527 9.8964 19.1127 9.8964H17.9827C17.5427 9.8964 17.2927 10.1164 17.2927 10.5864V11.7064C17.2927 12.1364 17.5427 12.4164 17.9827 12.4164ZM21.3027 12.4164H22.4327C22.9127 12.4164 23.1627 12.1364 23.1627 11.7064V10.5864C23.1627 10.1164 22.9127 9.8964 22.4327 9.8964H21.3027C20.8627 9.8964 20.6127 10.1164 20.6127 10.5864V11.7064C20.6127 12.1364 20.8627 12.4164 21.3027 12.4164ZM11.3327 15.7364H12.4527C12.9327 15.7364 13.1827 15.4864 13.1827 15.0264V13.9064C13.1827 13.4564 12.9327 13.2164 12.4527 13.2164H11.3327C10.8827 13.2164 10.6527 13.4564 10.6527 13.9064V15.0264C10.6527 15.4864 10.8827 15.7364 11.3327 15.7364ZM14.6727 15.7364H19.1427C19.5927 15.7364 19.8427 15.4864 19.8427 15.0264V13.9064C19.8427 13.4564 19.5927 13.2164 19.1427 13.2164H14.6727C14.2227 13.2164 13.9627 13.4564 13.9627 13.9064V15.0264C13.9627 15.4864 14.2227 15.7364 14.6727 15.7364ZM21.3127 15.7364H22.4627C22.9327 15.7364 23.1627 15.4864 23.1627 15.0264V13.9064C23.1627 13.4564 22.9327 13.2164 22.4627 13.2164H21.3127C20.8927 13.2164 20.6327 13.4564 20.6327 13.9064V15.0264C20.6327 15.4864 20.8927 15.7364 21.3127 15.7364Z"
        fillRule="evenodd"
        clipRule="evenodd"
    />
</svg>
        