
<svg
    viewBox="0 0 27.890625 27.890625"
    xmlns="http://www.w3.org/2000/svg"
>
    <path
        fill="inherit"
        d="M13.9427 27.8927C21.6427 27.8927 27.8927 21.6427 27.8927 13.9427C27.8927 6.2627 21.6427 0.0027 13.9427 0.0027C6.2627 0.0027 0.0027 6.2627 0.0027 13.9427C0.0027 21.6427 6.2627 27.8927 13.9427 27.8927ZM7.8327 18.3427C5.8527 16.3827 4.3927 14.0827 4.3927 12.1827C4.3927 11.3327 4.6927 10.5927 5.2527 10.0527C5.6427 9.6827 6.1627 9.3427 6.6127 9.3427C6.9727 9.3427 7.2227 9.6127 7.5327 10.0527L8.6527 11.6027C8.9327 11.9727 8.9927 12.2527 8.9927 12.5127C8.9927 12.7527 8.9427 12.8927 8.7727 13.2027L8.1527 14.2727C8.0927 14.3527 8.0527 14.4327 8.0527 14.5327C8.0527 14.6327 8.0927 14.7427 8.1027 14.8027C8.3927 15.3027 8.8727 15.9527 9.4927 16.5827C10.1327 17.2227 10.8427 17.7727 11.3627 18.0027C11.5027 18.0727 11.5627 18.1127 11.6927 18.1127C11.7827 18.1127 11.8427 18.0927 11.9727 18.0027L13.0427 17.4327C13.3827 17.2427 13.5527 17.2027 13.7627 17.2027C14.0127 17.2027 14.1927 17.2527 14.5927 17.5427L16.2327 18.7027C16.6627 19.0127 16.8327 19.2627 16.8327 19.5527C16.8327 19.9327 16.6827 20.3127 16.1827 20.8727C15.6827 21.4327 14.9127 21.8027 14.0227 21.8027C12.1227 21.8027 9.7727 20.2927 7.8327 18.3427ZM11.2827 12.3227C10.8327 12.3227 10.5727 12.0327 10.5727 11.5827V10.4427C10.5727 9.9627 10.8327 9.7227 11.2827 9.7227H12.4427C12.9227 9.7227 13.1627 9.9627 13.1627 10.4427V11.5827C13.1627 12.0327 12.9227 12.3227 12.4427 12.3227ZM14.7227 12.3227C14.2627 12.3227 13.9727 12.0327 13.9727 11.5827V10.4427C13.9727 9.9627 14.2627 9.7227 14.7227 9.7227H15.8827C16.3427 9.7227 16.5827 9.9627 16.5827 10.4427V11.5827C16.5827 12.0327 16.3427 12.3227 15.8827 12.3227ZM18.1127 12.3227C17.6627 12.3227 17.4227 12.0327 17.4227 11.5827V10.4427C17.4227 9.9627 17.6627 9.7227 18.1127 9.7227H19.2927C19.7427 9.7227 20.0127 9.9627 20.0127 10.4427V11.5827C20.0127 12.0327 19.7427 12.3227 19.2927 12.3227ZM21.5427 12.3227C21.0927 12.3227 20.8327 12.0327 20.8327 11.5827V10.4427C20.8327 9.9627 21.0927 9.7227 21.5427 9.7227H22.7127C23.2027 9.7227 23.4627 9.9627 23.4627 10.4427V11.5827C23.4627 12.0327 23.2027 12.3227 22.7127 12.3227ZM11.2627 15.7327C10.8027 15.7327 10.5727 15.4927 10.5727 15.0227V13.8627C10.5727 13.3827 10.8027 13.1527 11.2627 13.1527H12.4327C12.9227 13.1527 13.1627 13.3827 13.1627 13.8627V15.0227C13.1627 15.4927 12.9227 15.7327 12.4327 15.7327ZM14.7127 15.7327C14.2427 15.7327 13.9727 15.4927 13.9727 15.0227V13.8627C13.9727 13.3827 14.2427 13.1527 14.7127 13.1527H19.3227C19.7827 13.1527 20.0327 13.3827 20.0327 13.8627V15.0227C20.0327 15.4927 19.7827 15.7327 19.3227 15.7327ZM21.5627 15.7327C21.1227 15.7327 20.8527 15.4927 20.8527 15.0227V13.8627C20.8527 13.3827 21.1227 13.1527 21.5627 13.1527H22.7327C23.2327 13.1527 23.4627 13.3827 23.4627 13.8627V15.0227C23.4627 15.4927 23.2327 15.7327 22.7327 15.7327Z"
        fillRule="evenodd"
        clipRule="evenodd"
    />
</svg>
        