
<svg
    viewBox={0 0 27.890625 27.890625}
    xmlns="http://www.w3.org/2000/svg"
>
    <path
        fill="inherit"
        d="M13.9427 27.8927C21.6427 27.8927 27.8927 21.6427 27.8927 13.9427C27.8927 6.2627 21.6427 0.0027 13.9427 0.0027C6.2627 0.0027 0.0027 6.2627 0.0027 13.9427C0.0027 21.6427 6.2627 27.8927 13.9427 27.8927ZM13.9427 6.8527C16.6827 6.8527 19.7727 7.3427 21.2727 8.9027C21.8727 9.4727 22.2027 10.2227 22.2027 11.1527C22.2027 11.7827 22.0127 12.7127 21.2727 12.7827C21.0827 12.8527 20.8627 12.8427 20.6127 12.7927L18.5527 12.4527C17.8427 12.3327 17.5127 12.0727 17.3227 11.3927L16.9827 10.1327C16.9027 9.9027 16.8427 9.8027 16.5327 9.7027C15.9827 9.5027 15.0427 9.3827 13.9427 9.3827C12.8527 9.3827 11.9127 9.5027 11.3627 9.7027C11.0627 9.8027 10.9927 9.9027 10.9127 10.1327L10.5727 11.3927C10.3727 12.0727 10.0527 12.3327 9.3427 12.4527L7.2727 12.7927C7.0227 12.8427 6.8127 12.8527 6.6127 12.7827C5.8827 12.7127 5.6827 11.7827 5.6827 11.1527C5.6827 10.2227 6.0127 9.4727 6.6127 8.9027C8.1227 7.3427 11.2227 6.8527 13.9427 6.8527ZM7.4327 17.1127C6.9027 17.1127 6.6127 16.8327 6.6127 16.3127V14.9727C6.6127 14.4627 6.9027 14.1627 7.4327 14.1627H8.7627C9.2827 14.1627 9.5527 14.4627 9.5527 14.9727V16.3127C9.5527 16.8327 9.2827 17.1127 8.7627 17.1127ZM11.3327 17.1127C10.8027 17.1127 10.4827 16.8327 10.4827 16.3127V14.9727C10.4827 14.4627 10.8027 14.1627 11.3327 14.1627H12.6627C13.1627 14.1627 13.4627 14.4627 13.4627 14.9727V16.3127C13.4627 16.8327 13.1627 17.1127 12.6627 17.1127ZM15.2027 17.1127C14.6927 17.1127 14.3827 16.8327 14.3827 16.3127V14.9727C14.3827 14.4627 14.6927 14.1627 15.2027 14.1627H16.5427C17.0527 14.1627 17.3627 14.4627 17.3627 14.9727V16.3127C17.3627 16.8327 17.0527 17.1127 16.5427 17.1127ZM19.0727 17.1127C18.5827 17.1127 18.2627 16.8327 18.2627 16.3127V14.9727C18.2627 14.4627 18.5827 14.1627 19.0727 14.1627H20.4127C20.9427 14.1627 21.2427 14.4627 21.2427 14.9727V16.3127C21.2427 16.8327 20.9427 17.1127 20.4127 17.1127ZM7.4127 21.0227C6.8927 21.0227 6.6127 20.7227 6.6127 20.1927V18.8827C6.6127 18.3427 6.8927 18.0627 7.4127 18.0627H8.7527C9.2827 18.0627 9.5527 18.3427 9.5527 18.8827V20.1927C9.5527 20.7227 9.2827 21.0227 8.7527 21.0227ZM11.3027 21.0227C10.7827 21.0227 10.4827 20.7227 10.4827 20.1927V18.8827C10.4827 18.3427 10.7827 18.0627 11.3027 18.0627H16.5527C17.0727 18.0627 17.3727 18.3427 17.3727 18.8827V20.1927C17.3727 20.7227 17.0727 21.0227 16.5527 21.0227ZM19.1127 21.0227C18.5927 21.0227 18.2927 20.7227 18.2927 20.1927V18.8827C18.2927 18.3427 18.5927 18.0627 19.1127 18.0627H20.4427C20.9627 18.0627 21.2427 18.3427 21.2427 18.8827V20.1927C21.2427 20.7227 20.9627 21.0227 20.4427 21.0227Z"
        fillRule="evenodd"
        clipRule="evenodd"
    />
</svg>
        