
<svg
    viewBox={0 0 30.693359375 25.6484375}
    xmlns="http://www.w3.org/2000/svg"
>
    <path
        fill="inherit"
        d="M15.3437 -0.0047C10.2837 -0.0047 4.5237 0.9053 1.7237 3.7853C0.6437 4.8853 0.0037 6.2453 0.0037 7.9853C0.0037 9.1553 0.3737 10.9053 1.7637 11.0353C2.1337 11.1453 2.5037 11.1053 2.9637 11.0353L6.7937 10.3953C8.1237 10.1753 8.7337 9.6753 9.0937 8.3953L9.7337 6.1253C9.8537 5.6553 9.9837 5.4953 10.5437 5.2953C11.5837 4.9053 13.3037 4.7053 15.3437 4.7053C17.3937 4.7053 19.1037 4.9053 20.1437 5.2953C20.7037 5.4953 20.8337 5.6553 20.9637 6.1253L21.6037 8.3953C21.9537 9.6753 22.5737 10.1753 23.8937 10.3953L27.7237 11.0353C28.1937 11.1053 28.5437 11.1453 28.9337 11.0353C30.3137 10.9053 30.6937 9.1553 30.6937 7.9853C30.6937 6.2453 30.0337 4.8853 28.9737 3.7853C26.1537 0.9053 20.3937 -0.0047 15.3437 -0.0047ZM3.2537 18.4153H5.7137C6.6737 18.4153 7.2237 17.8653 7.2237 16.8953V14.4253C7.2237 13.4553 6.6737 12.9053 5.7137 12.9053H3.2537C2.2837 12.9053 1.7237 13.4553 1.7237 14.4253V16.8953C1.7237 17.8653 2.2837 18.4153 3.2537 18.4153ZM10.4737 18.4153H12.9437C13.9037 18.4153 14.4537 17.8653 14.4537 16.8953V14.4253C14.4537 13.4553 13.9037 12.9053 12.9437 12.9053H10.4737C9.5037 12.9053 8.9237 13.4553 8.9237 14.4253V16.8953C8.9237 17.8653 9.5037 18.4153 10.4737 18.4153ZM17.6937 18.4153H20.1437C21.1137 18.4153 21.6837 17.8653 21.6837 16.8953V14.4253C21.6837 13.4553 21.1137 12.9053 20.1437 12.9053H17.6937C16.7237 12.9053 16.1737 13.4553 16.1737 14.4253V16.8953C16.1737 17.8653 16.7237 18.4153 17.6937 18.4153ZM24.8937 18.4153H27.3537C28.3237 18.4153 28.9137 17.8653 28.9137 16.8953V14.4253C28.9137 13.4553 28.3237 12.9053 27.3537 12.9053H24.8937C23.9437 12.9053 23.3937 13.4553 23.3937 14.4253V16.8953C23.3937 17.8653 23.9437 18.4153 24.8937 18.4153ZM3.2137 25.6453H5.6837C6.6537 25.6453 7.2237 25.1053 7.2237 24.1353V21.6453C7.2237 20.6853 6.6537 20.1253 5.6837 20.1253H3.2137C2.2737 20.1253 1.7237 20.6853 1.7237 21.6453V24.1353C1.7237 25.1053 2.2737 25.6453 3.2137 25.6453ZM10.4437 25.6453H20.1837C21.1637 25.6453 21.6937 25.1053 21.6937 24.1353V21.6453C21.6937 20.6853 21.1637 20.1253 20.1837 20.1253H10.4437C9.4737 20.1253 8.9237 20.6853 8.9237 21.6453V24.1353C8.9237 25.1053 9.4737 25.6453 10.4437 25.6453ZM24.9537 25.6453H27.4137C28.3837 25.6453 28.9137 25.1053 28.9137 24.1353V21.6453C28.9137 20.6853 28.3837 20.1253 27.4137 20.1253H24.9537C23.9637 20.1253 23.4037 20.6853 23.4037 21.6453V24.1353C23.4037 25.1053 23.9637 25.6453 24.9537 25.6453Z"
        fillRule="evenodd"
        clipRule="evenodd"
    />
</svg>
        