<svg viewBox="0 0 18.67578125 25.07421875" xmlns="http://www.w3.org/2000/svg"><path d="M0.0037 0.9019C0.0037 1.4219 0.3837 1.7919 0.9037 1.7919H17.7737C18.2937 1.7919 18.6737 1.4119 18.6737 0.9019C18.6737 0.3919 18.2937 0.0019 17.7737 0.0019H0.9037C0.3837 0.0019 0.0037 0.3919 0.0037 0.9019ZM9.3837 25.0719C10.2037 25.0719 10.7337 24.5419 10.7337 23.6819V7.2019H17.5037C18.2137 7.2019 18.6737 6.7719 18.6737 6.0819C18.6737 5.4119 18.2137 4.9719 17.5037 4.9719H1.2337C0.5237 4.9719 0.0537 5.4119 0.0537 6.0819C0.0537 6.7719 0.5237 7.2019 1.2337 7.2019H8.0237V23.6819C8.0237 24.5419 8.5437 25.0719 9.3837 25.0719Z" /></svg>