
<svg
    viewBox={0 0 30.5703125 30.5703125}
    xmlns="http://www.w3.org/2000/svg"
>
    <path
        fill="inherit"
        d="M15.2827 30.5663C23.6827 30.5663 30.5727 23.6763 30.5727 15.2863C30.5727 6.8863 23.6827 -0.0038 15.2827 -0.0038C6.8927 -0.0038 0.0027 6.8863 0.0027 15.2863C0.0027 23.6763 6.8927 30.5663 15.2827 30.5663ZM15.2827 25.4862C9.6527 25.4862 5.0827 20.9162 5.0827 15.2863C5.0827 9.6363 9.6527 5.0863 15.2827 5.0863C20.9327 5.0863 25.4827 9.6363 25.4827 15.2863C25.4827 20.9162 20.9327 25.4862 15.2827 25.4862ZM10.5727 9.6163C10.5727 9.8863 10.7727 10.0663 11.0327 10.0663H19.4927C19.7527 10.0663 19.9627 9.8663 19.9627 9.6163C19.9627 9.3663 19.7527 9.1563 19.4927 9.1563H11.0327C10.7727 9.1563 10.5727 9.3663 10.5727 9.6163ZM15.3027 21.6863C15.7627 21.6863 16.0927 21.3463 16.0927 20.8663V12.8363H19.3327C19.7027 12.8363 19.9627 12.5663 19.9627 12.2063C19.9627 11.8663 19.7027 11.5963 19.3327 11.5963H11.2427C10.8727 11.5963 10.6127 11.8663 10.6127 12.2063C10.6127 12.5663 10.8727 12.8363 11.2427 12.8363H14.5027V20.8663C14.5027 21.3463 14.8427 21.6863 15.3027 21.6863Z"
        fillRule="evenodd"
        clipRule="evenodd"
    />
</svg>
        