
<svg
    viewBox="0 0 25.169921875 25.169921875"
    xmlns="http://www.w3.org/2000/svg"
>
    <path
        fill="inherit"
        d="M4.2937 25.1692H20.8737C23.7437 25.1692 25.1737 23.7592 25.1737 20.9492V4.2392C25.1737 1.4192 23.7437 -0.0008 20.8737 -0.0008H4.2937C1.4337 -0.0008 0.0037 1.4192 0.0037 4.2392V20.9492C0.0037 23.7592 1.4337 25.1692 4.2937 25.1692ZM7.7237 6.7292C7.7237 6.4692 7.9437 6.2492 8.2037 6.2492H16.9437C17.2037 6.2492 17.4137 6.4692 17.4137 6.7292C17.4137 6.9892 17.2037 7.2092 16.9437 7.2092H8.2037C7.9437 7.2092 7.7237 6.9992 7.7237 6.7292ZM12.6237 19.1792C12.1437 19.1792 11.7837 18.8292 11.7837 18.3192V10.0492H8.4237C8.0537 10.0492 7.7637 9.7592 7.7637 9.4092C7.7637 9.0492 8.0537 8.7592 8.4237 8.7592H16.7637C17.1437 8.7592 17.4137 9.0492 17.4137 9.4092C17.4137 9.7592 17.1437 10.0492 16.7637 10.0492H13.4237V18.3192C13.4237 18.8292 13.0837 19.1792 12.6237 19.1792Z"
        fillRule="evenodd"
        clipRule="evenodd"
    />
</svg>
        