
<svg
    viewBox={0 0 32.935546875 27.26189615322232}
    xmlns="http://www.w3.org/2000/svg"
>
    <path
        fill="inherit"
        d="M32.9327 16.3992C32.9327 7.7792 26.3227 0.7192 17.8927 -0.0008C17.4627 -0.0408 17.1327 0.2792 17.1327 0.7192V5.1892C17.1327 5.5592 17.3927 5.8392 17.7627 5.8692C22.9927 6.5092 27.0727 10.9792 27.0727 16.3992C27.0727 18.8592 26.2227 21.1292 24.7327 23.0292C24.5427 23.2592 24.5527 23.5592 24.7627 23.7792L28.0227 27.0292C28.3327 27.3292 28.7927 27.3292 29.0627 27.0092C31.4827 24.1392 32.9327 20.4292 32.9327 16.3992ZM0.0027 16.3992C0.0027 20.4392 1.4527 24.1492 3.8727 27.0192C4.1427 27.3492 4.5927 27.3292 4.9127 27.0292L8.1727 23.7792C8.3827 23.5592 8.3927 23.2592 8.2027 23.0292C6.7027 21.1292 5.8627 18.8592 5.8627 16.3992C5.8627 10.9792 9.9427 6.5092 15.1727 5.8692C15.5427 5.8392 15.8027 5.5592 15.8027 5.1892V0.7192C15.8027 0.2792 15.4727 -0.0408 15.0427 -0.0008C6.6127 0.7192 0.0027 7.7792 0.0027 16.3992ZM11.7327 10.9092C11.7327 11.1692 11.9327 11.3692 12.1927 11.3692H20.6627C20.9327 11.3692 21.1327 11.1592 21.1327 10.9092C21.1327 10.6692 20.9327 10.4592 20.6627 10.4592H12.1927C11.9327 10.4592 11.7327 10.6692 11.7327 10.9092ZM16.4727 22.9692C16.9227 22.9692 17.2527 22.6292 17.2527 22.1692V14.1392H20.5127C20.8627 14.1392 21.1327 13.8492 21.1327 13.5092C21.1327 13.1592 20.8627 12.8992 20.5127 12.8992H12.4027C12.0427 12.8992 11.7727 13.1592 11.7727 13.5092C11.7727 13.8492 12.0427 14.1392 12.4027 14.1392H15.6727V22.1692C15.6727 22.6292 16.0127 22.9692 16.4727 22.9692Z"
        fillRule="evenodd"
        clipRule="evenodd"
    />
</svg>
        