
<svg
    viewBox="0 0 30.529296875 29.17578125"
    xmlns="http://www.w3.org/2000/svg"
>
    <path
        fill="inherit"
        d="M1.8137 25.919H28.7137V25.009C28.7137 24.459 28.3937 24.129 27.8337 24.129H26.9637V9.379H28.1637C28.9137 9.379 29.3537 8.829 29.3537 8.269C29.3537 7.859 29.1237 7.509 28.6137 7.219L16.9437 0.479C16.3937 0.169 15.8137 -0.001 15.2537 -0.001C14.6937 -0.001 14.1137 0.169 13.5937 0.479L1.9137 7.219C1.3937 7.509 1.1737 7.859 1.1737 8.269C1.1737 8.829 1.6137 9.379 2.3637 9.379H3.5637V24.129H2.7037C2.1437 24.129 1.8137 24.459 1.8137 25.009ZM5.6337 24.129V7.629L14.7237 2.529C14.8937 2.429 15.0837 2.379 15.2537 2.379C15.4337 2.379 15.6237 2.429 15.8037 2.529L24.8937 7.629V24.129ZM10.5537 8.719C10.5537 8.979 10.7637 9.169 11.0237 9.169H19.4837C19.7437 9.169 19.9437 8.969 19.9437 8.719C19.9437 8.479 19.7437 8.269 19.4837 8.269H11.0237C10.7637 8.269 10.5537 8.479 10.5537 8.719ZM15.2837 20.779C15.7537 20.779 16.0737 20.439 16.0737 19.979V11.949H19.3137C19.6837 11.949 19.9437 11.659 19.9437 11.319C19.9437 10.969 19.6837 10.709 19.3137 10.709H11.2237C10.8537 10.709 10.5937 10.969 10.5937 11.319C10.5937 11.659 10.8537 11.949 11.2237 11.949H14.4937V19.979C14.4937 20.439 14.8337 20.779 15.2837 20.779ZM1.0937 29.179H29.4237C30.0237 29.179 30.5337 28.669 30.5337 28.069C30.5337 27.469 30.0237 26.979 29.4237 26.979H1.0937C0.4937 26.979 0.0037 27.469 0.0037 28.069C0.0037 28.669 0.4937 29.179 1.0937 29.179Z"
        fillRule="evenodd"
        clipRule="evenodd"
    />
</svg>
        