
<svg
    viewBox="0 0 30.544813437289534 27.890625"
    xmlns="http://www.w3.org/2000/svg"
>
    <path
        fill="inherit"
        d="M0.9769 11.3064C-0.0131 11.3064 -0.2531 11.9764 0.2769 12.7464L3.3369 17.0864C3.7869 17.7164 4.4469 17.7064 4.8869 17.0864L7.9269 12.7264C8.4669 11.9764 8.2069 11.3064 7.2469 11.3064H5.2769C6.4669 6.1564 11.0769 2.3264 16.5969 2.3264C23.0269 2.3264 28.2169 7.5164 28.2169 13.9464C28.2169 20.3664 23.0269 25.5664 16.5969 25.5664C12.7169 25.5664 9.2569 23.6564 7.1969 20.7564C6.7669 20.1964 6.1269 20.0164 5.5569 20.3564C5.0069 20.6964 4.8369 21.4664 5.3069 22.0664C7.8369 25.6064 11.9769 27.8864 16.5969 27.8864C24.2969 27.8864 30.5469 21.6464 30.5469 13.9464C30.5469 6.2464 24.2969 -0.0036 16.5969 -0.0036C9.8069 -0.0036 4.1269 4.8664 2.8969 11.3064ZM11.8869 8.2764C11.8869 8.5464 12.0869 8.7264 12.3469 8.7264H20.8069C21.0669 8.7264 21.2769 8.5264 21.2769 8.2764C21.2769 8.0264 21.0669 7.8164 20.8069 7.8164H12.3469C12.0869 7.8164 11.8869 8.0264 11.8869 8.2764ZM16.6169 20.3464C17.0769 20.3464 17.4069 20.0064 17.4069 19.5264V11.4964H20.6469C21.0169 11.4964 21.2769 11.2264 21.2769 10.8664C21.2769 10.5264 21.0169 10.2564 20.6469 10.2564H12.5569C12.1869 10.2564 11.9269 10.5264 11.9269 10.8664C11.9269 11.2264 12.1869 11.4964 12.5569 11.4964H15.8169V19.5264C15.8169 20.0064 16.1669 20.3464 16.6169 20.3464Z"
        fillRule="evenodd"
        clipRule="evenodd"
    />
</svg>
        