
<svg
    viewBox={0 0 30.529296875 29.17578125}
    xmlns="http://www.w3.org/2000/svg"
>
    <path
        fill="inherit"
        d="M1.0937 29.179H29.4237C30.0237 29.179 30.5337 28.669 30.5337 28.069C30.5337 27.469 30.0237 26.979 29.4237 26.979H28.7137V25.979C28.7137 25.429 28.3937 25.099 27.8337 25.099H26.9637V9.379H28.1637C28.9137 9.379 29.3537 8.829 29.3537 8.269C29.3537 7.859 29.1237 7.509 28.6137 7.219L16.9437 0.479C16.3937 0.169 15.8137 -0.001 15.2537 -0.001C14.6937 -0.001 14.1137 0.169 13.5937 0.479L1.9137 7.219C1.3937 7.509 1.1737 7.859 1.1737 8.269C1.1737 8.829 1.6137 9.379 2.3637 9.379H3.5637V25.099H2.7037C2.1437 25.099 1.8137 25.429 1.8137 25.979V26.979H1.0937C0.4937 26.979 0.0037 27.469 0.0037 28.069C0.0037 28.669 0.4937 29.179 1.0937 29.179ZM10.4037 9.759C10.4037 9.499 10.6237 9.279 10.8837 9.279H19.6237C19.8837 9.279 20.0937 9.499 20.0937 9.759C20.0937 10.009 19.8837 10.229 19.6237 10.229H10.8837C10.6237 10.229 10.4037 10.039 10.4037 9.759ZM15.2837 22.219C14.8237 22.219 14.4637 21.849 14.4637 21.359V13.079H11.1037C10.7237 13.079 10.4437 12.799 10.4437 12.439C10.4437 12.069 10.7237 11.799 11.1037 11.799H19.4437C19.8237 11.799 20.0937 12.069 20.0937 12.439C20.0937 12.799 19.8237 13.079 19.4437 13.079H16.1037V21.359C16.1037 21.849 15.7637 22.219 15.2837 22.219Z"
        fillRule="evenodd"
        clipRule="evenodd"
    />
</svg>
        