
<svg
    viewBox={0 0 27.890625 27.890625}
    xmlns="http://www.w3.org/2000/svg"
>
    <path
        fill="inherit"
        d="M13.9427 27.8864C21.6427 27.8864 27.8927 21.6464 27.8927 13.9464C27.8927 6.2464 21.6427 -0.0036 13.9427 -0.0036C6.2527 -0.0036 0.0027 6.2464 0.0027 13.9464C0.0027 21.6464 6.2527 27.8864 13.9427 27.8864ZM13.9427 25.5664C7.5227 25.5664 2.3227 20.3664 2.3227 13.9464C2.3227 7.5164 7.5227 2.3264 13.9427 2.3264C20.3727 2.3264 25.5627 7.5164 25.5627 13.9464C25.5627 20.3664 20.3727 25.5664 13.9427 25.5664ZM9.2127 8.2764C9.2127 8.5464 9.4227 8.7264 9.6827 8.7264H18.1427C18.4027 8.7264 18.6027 8.5264 18.6027 8.2764C18.6027 8.0264 18.4027 7.8164 18.1427 7.8164H9.6827C9.4227 7.8164 9.2127 8.0264 9.2127 8.2764ZM13.9427 20.3464C14.4127 20.3464 14.7427 20.0064 14.7427 19.5264V11.4964H17.9827C18.3427 11.4964 18.6027 11.2264 18.6027 10.8664C18.6027 10.5264 18.3427 10.2564 17.9827 10.2564H9.8827C9.5127 10.2564 9.2527 10.5264 9.2527 10.8664C9.2527 11.2264 9.5127 11.4964 9.8827 11.4964H13.1527V19.5264C13.1527 20.0064 13.4927 20.3464 13.9427 20.3464Z"
        fillRule="evenodd"
        clipRule="evenodd"
    />
</svg>
        