<svg viewBox="0 0 27.890625 27.890625" xmlns="http://www.w3.org/2000/svg"><path d="M13.9427 27.8864C21.6427 27.8864 27.8927 21.6264 27.8927 13.9464C27.8927 6.2464 21.6427 -0.0036 13.9427 -0.0036C6.2627 -0.0036 0.0027 6.2464 0.0027 13.9464C0.0027 21.6264 6.2627 27.8864 13.9427 27.8864ZM20.5627 7.2864C22.3827 9.0964 22.1327 12.2064 20.0427 14.3164C18.8227 15.5164 17.3127 15.9964 15.8227 16.0464C13.8627 16.0964 12.7027 16.2564 11.0627 17.7064C11.1827 18.0064 11.1327 18.3364 10.8727 18.5964L8.0827 21.3964C7.7527 21.7364 7.2327 21.7364 6.9227 21.3964L6.4427 20.9064C6.0927 20.5664 6.1127 20.0964 6.4427 19.7664L9.2427 16.9564C9.5027 16.6764 9.8727 16.6264 10.1727 16.7864C11.6027 15.1364 11.7727 13.9564 11.8027 12.0164C11.8127 10.5564 12.3327 9.0064 13.5227 7.7964C15.6227 5.7164 18.7427 5.4864 20.5627 7.2864ZM16.0527 7.5864L16.9127 8.4364L18.0227 7.3264C17.3927 7.2164 16.7027 7.3164 16.0527 7.5864ZM17.6127 9.1564L18.8027 10.3364L20.2027 8.8964C20.0727 8.6364 19.8927 8.3964 19.6727 8.1664C19.4827 7.9864 19.2727 7.8164 19.0727 7.6964ZM13.8627 9.3364L14.9327 10.4064L16.1827 9.1564L15.1327 8.1064C14.8927 8.2764 14.6427 8.4664 14.4227 8.6864C14.2027 8.8964 14.0227 9.1164 13.8627 9.3364ZM15.6427 11.1264L16.8327 12.3164L18.0927 11.0564L16.9127 9.8864ZM19.5127 11.0564L20.2627 11.8164C20.5127 11.2264 20.6027 10.6064 20.5227 10.0464ZM13.0527 12.2864L14.2227 11.1264L13.3427 10.2664C13.0427 10.9364 12.9427 11.6364 13.0527 12.2864ZM17.5427 13.0264L18.5027 13.9864C18.7127 13.8364 18.9527 13.6464 19.1527 13.4264C19.3727 13.2064 19.5927 12.9564 19.7527 12.7264L18.8127 11.7764ZM13.4427 13.3464C13.5527 13.5664 13.7127 13.7564 13.9027 13.9464C14.1227 14.1764 14.3827 14.3564 14.6727 14.4964L16.1227 13.0264L14.9427 11.8364ZM15.7727 14.7964C16.3627 14.8564 16.9827 14.7664 17.5827 14.5064L16.8327 13.7364Z" /></svg>