<svg viewBox="0 0 27.890625 27.890625" xmlns="http://www.w3.org/2000/svg"><path d="M13.9427 27.8864C14.3527 27.8864 14.7527 27.8664 15.1627 27.8264C14.8327 26.7964 14.6527 25.7164 14.6527 24.5664C14.6527 18.7064 19.3827 13.9764 25.2427 13.9764C26.1527 13.9764 27.0127 14.0864 27.8727 14.3164C27.8927 14.1864 27.8927 14.0664 27.8927 13.9464C27.8927 6.2464 21.6427 -0.0036 13.9427 -0.0036C13.5327 -0.0036 13.1527 0.0264 12.7727 0.0564C13.1127 1.0564 13.2627 2.1364 13.2627 3.2664C13.2627 9.1364 8.5327 13.8664 2.6827 13.8664C1.7727 13.8664 0.8627 13.7364 0.0127 13.5364C0.0027 13.6564 0.0027 13.8064 0.0027 13.9464C0.0027 21.6464 6.2527 27.8864 13.9427 27.8864ZM0.1827 11.6864C0.9827 11.8964 1.8027 12.0064 2.6827 12.0064C7.6427 12.0064 11.4027 8.2464 11.4027 3.2664C11.4027 2.2264 11.2227 1.2264 10.9127 0.3464C5.4327 1.5464 1.0827 6.0464 0.1827 11.6864ZM17.0227 27.5364C22.4927 26.2764 26.7827 21.7564 27.7127 16.1764C26.9227 15.9564 26.1227 15.8364 25.2427 15.8364C20.2727 15.8364 16.5127 19.5964 16.5127 24.5664C16.5127 25.6364 16.6827 26.6364 17.0227 27.5364Z" /></svg>