
<svg
    viewBox="0 0 27.890625 27.890625"
    xmlns="http://www.w3.org/2000/svg"
>
    <path
        fill="inherit"
        d="M13.9427 27.8864C21.6427 27.8864 27.8927 21.6464 27.8927 13.9464C27.8927 6.2464 21.6427 -0.0036 13.9427 -0.0036C6.2527 -0.0036 0.0027 6.2464 0.0027 13.9464C0.0027 21.6464 6.2527 27.8864 13.9427 27.8864ZM13.9427 25.5664C7.5227 25.5664 2.3227 20.3664 2.3227 13.9464C2.3227 7.5164 7.5227 2.3264 13.9427 2.3264C20.3727 2.3264 25.5627 7.5164 25.5627 13.9464C25.5627 20.3664 20.3727 25.5664 13.9427 25.5664ZM6.6427 20.6964L7.1127 21.1764C7.4327 21.5064 7.9127 21.5064 8.2427 21.1764L10.9527 18.4564C11.1927 18.1964 11.2627 17.8664 11.1327 17.5864C12.7327 16.1764 13.8527 16.0364 15.7527 15.9864C17.2027 15.9364 18.6627 15.4764 19.8527 14.2964C21.8727 12.2664 22.1227 9.2264 20.3527 7.4764C18.5927 5.7264 15.5627 5.9564 13.5327 7.9664C12.3727 9.1564 11.8627 10.6464 11.8627 12.0764C11.8427 13.9464 11.6627 15.0964 10.2627 16.6964C9.9627 16.5464 9.6227 16.5964 9.3627 16.8564L6.6427 19.5964C6.3327 19.9164 6.3127 20.3664 6.6427 20.6964ZM15.9727 7.7664C16.6127 7.4964 17.2827 7.4064 17.8927 7.5064L16.8027 8.5964ZM19.4927 8.3264C19.7127 8.5464 19.8927 8.7864 20.0327 9.0464L18.6527 10.4464L17.5027 9.2964L18.9227 7.8764C19.1227 7.9964 19.3227 8.1464 19.4927 8.3264ZM14.4127 8.8364C14.6127 8.6164 14.8427 8.4264 15.0827 8.2564L16.1027 9.2964L14.8927 10.5264L13.8527 9.4864C14.0127 9.2564 14.1927 9.0364 14.4127 8.8364ZM15.5727 11.2064L16.8027 9.9964L17.9527 11.1464L16.7327 12.3764ZM19.3427 11.1464L20.3427 10.1464C20.4027 10.7064 20.3027 11.2964 20.0727 11.8664ZM13.3427 10.3664L14.1927 11.2064L13.0727 12.3364C12.9627 11.7064 13.0527 11.0364 13.3427 10.3664ZM19.0027 13.4364C18.7827 13.6464 18.5827 13.8364 18.3427 13.9864L17.4227 13.0564L18.6527 11.8364L19.5827 12.7664C19.4127 13.0064 19.2227 13.2164 19.0027 13.4364ZM13.8927 13.9464C13.7127 13.7664 13.5627 13.5664 13.4427 13.3564L14.8927 11.9064L16.0327 13.0664L14.6427 14.4764C14.3727 14.3464 14.1127 14.1664 13.8927 13.9464ZM15.6927 14.7764L16.7327 13.7564L17.4627 14.4964C16.8727 14.7364 16.2727 14.8364 15.6927 14.7764Z"
        fillRule="evenodd"
        clipRule="evenodd"
    />
</svg>
        