
<svg
    viewBox="0 0 29.393306025427655 29.346710666865533"
    xmlns="http://www.w3.org/2000/svg"
>
    <path
        fill="inherit"
        d="M0.4789 27.9728L1.3889 28.8828C2.0289 29.5028 2.9589 29.5028 3.5889 28.8828L8.8789 23.5828C9.4089 23.0428 9.5089 22.3228 9.1489 21.7228C12.3089 18.9428 14.5889 18.6728 18.2789 18.5528C21.0989 18.4628 23.8789 17.5928 26.1589 15.3128C30.0589 11.4128 30.4889 5.5928 27.1389 2.2528C23.7889 -1.0972 17.9689 -0.6572 14.0689 3.2228C11.8189 5.4928 10.8689 8.3128 10.8489 11.0828C10.8089 14.7628 10.4589 17.0728 7.6689 20.2328C7.0689 19.8528 6.3189 19.9328 5.7689 20.4628L0.4789 25.7828C-0.1611 26.3928 -0.1611 27.3228 0.4789 27.9728ZM19.2389 2.2828C19.7989 2.0928 20.3489 1.9828 20.8989 1.9228L19.8989 2.9328ZM22.7389 2.0428C23.2289 2.1728 23.7089 2.3328 24.1789 2.5828L23.7289 3.0328ZM20.5789 3.6228L21.7689 2.4328L23.0389 3.7028L21.8489 4.8928ZM16.8289 3.5628C17.3089 3.2128 17.7889 2.9228 18.2789 2.6728L19.2089 3.6228L18.0489 4.7728ZM25.6789 3.7028C25.8989 3.9228 26.0989 4.1528 26.2789 4.3828L25.6789 4.9828L24.4089 3.7028L24.9989 3.1128C25.2389 3.2928 25.4589 3.4828 25.6789 3.7028ZM15.5389 4.6828C15.7089 4.5128 15.8889 4.3428 16.0789 4.1828L17.3689 5.4628L16.3189 6.5228L15.0289 5.2328C15.1889 5.0428 15.3589 4.8628 15.5389 4.6828ZM18.7389 5.4628L19.8989 4.3028L21.1689 5.5728L20.0089 6.7328ZM22.5389 5.5728L23.7289 4.3828L24.9989 5.6728L23.8189 6.8428ZM26.3789 5.6728L26.8189 5.2328C27.0489 5.6828 27.2289 6.1528 27.3289 6.6428ZM13.5289 7.4328C13.7589 6.9428 14.0589 6.4628 14.4089 5.9828L15.6289 7.2028L14.4589 8.3728ZM16.9989 7.2028L18.0489 6.1528L19.3189 7.4228L18.2689 8.4728ZM20.6889 7.4028L21.8489 6.2628L23.1189 7.5428L21.9789 8.6928ZM24.4989 7.5428L25.6889 6.3528L26.9489 7.6228L25.7789 8.8028ZM15.1389 9.0628L16.3189 7.8828L17.5689 9.1728L16.4089 10.3328ZM18.9489 9.1528L19.9889 8.1028L21.2789 9.3928L20.2389 10.4328ZM22.6589 9.3928L23.8089 8.2228L25.0789 9.5028L23.9289 10.6428ZM13.1189 8.3928L13.7889 9.0428L12.7589 10.0728C12.8189 9.5128 12.9189 8.9528 13.1189 8.3928ZM26.4589 9.5028L27.4689 8.4828C27.4189 9.0328 27.3089 9.5928 27.1189 10.1428ZM13.2889 10.9028L14.4689 9.7328L15.7389 11.0028L14.5689 12.1828ZM17.0889 11.0028L18.2589 9.8428L19.5389 11.1228L18.3789 12.2828ZM20.9189 11.1228L21.9589 10.0828L23.2289 11.3428L22.1889 12.3928ZM24.6089 11.3428L25.7589 10.1928L26.7089 11.1428C26.4689 11.6128 26.1689 12.0828 25.8289 12.5428ZM15.2389 12.8628L16.4089 11.6828L17.6989 12.9728L16.5189 14.1428ZM19.0589 12.9828L20.2289 11.8228L21.4989 13.0928L20.3289 14.2428ZM12.8789 11.8928L13.8689 12.8728L13.4189 13.3228C13.1689 12.8628 12.9889 12.3828 12.8789 11.8928ZM24.7089 13.8428C24.5289 14.0228 24.3389 14.2028 24.1589 14.3628L22.8789 13.0828L23.9189 12.0428L25.1989 13.3228C25.0489 13.5028 24.8689 13.6828 24.7089 13.8428ZM14.5489 14.8428C14.3289 14.6228 14.1289 14.3928 13.9489 14.1428L14.5489 13.5628L15.8189 14.8328L15.2389 15.4328C14.9889 15.2528 14.7689 15.0628 14.5489 14.8428ZM17.2189 14.8328L18.3889 13.6528L19.6489 14.9228L18.4889 16.1028ZM21.0189 14.9428L22.1789 13.7828L23.3789 14.9828C22.9189 15.3328 22.4389 15.6228 21.9489 15.8528ZM13.0889 16.3028C13.4689 16.7128 13.9389 17.0428 14.4089 17.3428C13.0689 17.5828 11.8189 18.0328 10.4589 18.9328C11.3689 17.5928 11.8189 16.3228 12.0389 14.9828C12.3189 15.4628 12.6789 15.9128 13.0889 16.3028ZM16.0689 15.9828L16.5189 15.5328L17.4889 16.5028C16.9989 16.3928 16.5189 16.2128 16.0689 15.9828ZM20.3489 15.6128L20.9889 16.2628C20.4289 16.4528 19.8789 16.5628 19.3389 16.6228Z"
        fillRule="evenodd"
        clipRule="evenodd"
    />
</svg>
        