
<svg
    viewBox={0 0 27.890625 27.890625}
    xmlns="http://www.w3.org/2000/svg"
>
    <path
        fill="inherit"
        d="M13.9427 27.8864C21.6427 27.8864 27.8927 21.6464 27.8927 13.9464C27.8927 6.2464 21.6427 -0.0036 13.9427 -0.0036C6.2527 -0.0036 0.0027 6.2464 0.0027 13.9464C0.0027 21.6464 6.2527 27.8864 13.9427 27.8864ZM13.9427 25.5664C7.5227 25.5664 2.3227 20.3664 2.3227 13.9464C2.3227 7.5164 7.5227 2.3264 13.9427 2.3264C20.3727 2.3264 25.5627 7.5164 25.5627 13.9464C25.5627 20.3664 20.3727 25.5664 13.9427 25.5664ZM10.5527 19.6464H21.7527C22.5327 19.6464 22.7527 18.9464 22.4627 18.3564L16.9927 7.4064C16.8027 7.0664 16.5027 6.8464 16.1627 6.8464C15.8027 6.8464 15.4927 7.0564 15.3427 7.3964L12.4127 13.2364L10.0127 8.4364C9.8527 8.1464 9.5827 7.9564 9.3127 7.9564C8.9927 7.9564 8.7327 8.1464 8.5827 8.4364L4.6027 16.4364C4.3627 16.9364 4.5527 17.5564 5.2127 17.5564H10.2627L9.8527 18.3564C9.5527 18.9464 9.7927 19.6464 10.5527 19.6464ZM10.0227 16.5264L9.3127 13.3664L8.5627 16.5264H7.0527L9.0227 12.3864C9.1627 12.0764 9.4927 12.1364 9.5927 12.3864L11.1727 15.7264L10.7727 16.5264ZM13.0327 18.6364L15.7627 12.8764C15.9327 12.5064 16.3527 12.5064 16.5527 12.8764L19.2727 18.6364H17.1627L16.1627 14.2464L15.1527 18.6364Z"
        fillRule="evenodd"
        clipRule="evenodd"
    />
</svg>
        