
<svg
    viewBox={0 0 27.890625 27.890625}
    xmlns="http://www.w3.org/2000/svg"
>
    <path
        fill="inherit"
        d="M13.9427 27.8864C21.6427 27.8864 27.8927 21.6464 27.8927 13.9464C27.8927 6.2464 21.6427 -0.0036 13.9427 -0.0036C6.2527 -0.0036 0.0027 6.2464 0.0027 13.9464C0.0027 21.6464 6.2527 27.8864 13.9427 27.8864ZM13.9427 25.5664C7.5227 25.5664 2.3227 20.3664 2.3227 13.9464C2.3227 7.5164 7.5227 2.3264 13.9427 2.3264C20.3727 2.3264 25.5627 7.5164 25.5627 13.9464C25.5627 20.3664 20.3727 25.5664 13.9427 25.5664ZM7.3027 20.3464H20.5927C21.5227 20.3464 21.7627 19.4964 21.4227 18.8164L15.1027 6.1264C14.5727 5.0764 13.3127 5.0964 12.8227 6.0964L6.4827 18.8164C6.1427 19.4964 6.3827 20.3464 7.3027 20.3464ZM10.2227 19.1664L13.4827 12.3164C13.5727 12.0964 13.7627 11.9864 13.9427 11.9864C14.1327 11.9864 14.3127 12.0964 14.4127 12.3164L17.6627 19.1664H15.1327L13.9427 13.9364L12.7527 19.1664Z"
        fillRule="evenodd"
        clipRule="evenodd"
    />
</svg>
        