<svg viewBox="0 0 27.890625 27.890625" xmlns="http://www.w3.org/2000/svg"><path d="M13.9427 27.8927C21.6427 27.8927 27.8927 21.6427 27.8927 13.9427C27.8927 6.2627 21.6427 0.0027 13.9427 0.0027C6.2627 0.0027 0.0027 6.2627 0.0027 13.9427C0.0027 21.6427 6.2627 27.8927 13.9427 27.8927ZM7.0827 20.5727C6.1527 20.5727 5.8827 19.7127 6.2327 18.9927L12.7727 5.8927C13.2927 4.8527 14.5927 4.8227 15.1327 5.9227L21.6427 18.9927C22.0127 19.7127 21.7427 20.5727 20.7827 20.5727ZM10.0927 19.3627H12.7027L13.9327 13.9627L15.1727 19.3627H17.7827L14.4227 12.2927C14.3127 12.0827 14.1227 11.9627 13.9327 11.9627C13.7627 11.9627 13.5627 12.0827 13.4527 12.2927Z" /></svg>