
<svg
    viewBox={0 0 27.890625 27.890625}
    xmlns="http://www.w3.org/2000/svg"
>
    <path
        fill="inherit"
        d="M13.9427 27.8927C21.6427 27.8927 27.8927 21.6427 27.8927 13.9427C27.8927 6.2627 21.6427 0.0027 13.9427 0.0027C6.2627 0.0027 0.0027 6.2627 0.0027 13.9427C0.0027 21.6427 6.2627 27.8927 13.9427 27.8927ZM10.4627 19.8527C9.6627 19.8527 9.4327 19.1227 9.7527 18.5127L10.1727 17.6927H4.9627C4.2927 17.6927 4.0727 17.0527 4.3327 16.5327L8.4527 8.2827C8.5827 7.9827 8.8727 7.7927 9.1727 7.7927C9.4727 7.7927 9.7527 7.9827 9.9127 8.2827L12.4027 13.2327L15.3927 7.2227C15.5627 6.8627 15.8827 6.6427 16.2427 6.6427C16.6127 6.6427 16.9227 6.8727 17.1027 7.2327L22.7327 18.5127C23.0327 19.1227 22.8227 19.8527 22.0027 19.8527ZM6.8527 16.6227H8.4227L9.1727 13.3727L9.9227 16.6227H10.7027L11.1127 15.8027L9.4727 12.3627C9.4227 12.2127 9.2827 12.1527 9.1727 12.1527C9.0327 12.1527 8.9527 12.2127 8.9027 12.3627ZM13.0127 18.8127H15.2127L16.2427 14.2727L17.2627 18.8127H19.4727L16.6527 12.8627C16.5527 12.6827 16.4027 12.5927 16.2427 12.5927C16.0627 12.5927 15.9127 12.6827 15.8327 12.8627Z"
        fillRule="evenodd"
        clipRule="evenodd"
    />
</svg>
        