
<svg
    viewBox={0 0 45.513671875 20.125}
    xmlns="http://www.w3.org/2000/svg"
>
    <path
        fill="inherit"
        d="M1.1037 20.1126C1.6237 20.1126 2.1337 19.8126 2.3837 19.0826L4.1537 14.2226H12.3037L14.0837 19.0826C14.3437 19.8226 14.8237 20.1126 15.3237 20.1126C15.9237 20.1126 16.4837 19.6726 16.4837 19.0126C16.4837 18.7826 16.4437 18.5826 16.3337 18.2926L9.9237 1.2126C9.6237 0.4126 9.0937 0.0026 8.2337 0.0026C7.3937 0.0026 6.8637 0.3926 6.5637 1.2026L0.1537 18.3026C0.0437 18.5926 0.0037 18.8026 0.0037 19.0326C0.0037 19.7026 0.5337 20.1126 1.1037 20.1126ZM19.5937 20.1126C20.2437 20.1126 20.7437 19.6626 20.7437 18.9526V17.0626H20.7637C21.5337 18.9326 23.3137 20.1226 25.5237 20.1226C29.1637 20.1226 31.5637 17.2126 31.5637 12.7526C31.5637 8.3026 29.1437 5.3826 25.5537 5.3826C23.3937 5.3826 21.6137 6.5726 20.8237 8.4326H20.7937V1.6726C20.7937 0.9326 20.3337 0.4326 19.6337 0.4326C18.9637 0.4326 18.4837 0.9326 18.4837 1.6726V18.9526C18.4837 19.6726 18.9337 20.1126 19.5937 20.1126ZM4.7837 12.2526L8.1437 2.9426H8.3037L11.6637 12.2526ZM39.7437 20.1226C42.3537 20.1226 44.6137 18.6726 45.3937 16.6426C45.4737 16.4026 45.5137 16.1726 45.5137 15.9826C45.5137 15.3926 45.0737 14.9826 44.5037 14.9826C43.9937 14.9826 43.7237 15.1926 43.4037 15.7726C42.7237 17.2826 41.5537 18.1026 39.7537 18.1026C37.1837 18.1026 35.5037 16.0926 35.5037 12.7726C35.5037 9.4726 37.1837 7.4126 39.7537 7.4126C41.4637 7.4126 42.6837 8.2026 43.3837 9.7626C43.6837 10.3226 43.9737 10.5226 44.4637 10.5226C45.0537 10.5226 45.4737 10.1326 45.4737 9.5426C45.4737 9.3826 45.4337 9.1726 45.3737 8.9926C44.6937 6.9326 42.4137 5.3826 39.7037 5.3826C35.7337 5.3826 33.1437 8.3126 33.1437 12.7826C33.1437 17.2626 35.7637 20.1226 39.7437 20.1226ZM25.0337 18.1026C22.5537 18.1026 20.7937 16.0126 20.7937 12.7726C20.7937 9.5326 22.5537 7.4226 25.0337 7.4226C27.5937 7.4226 29.1937 9.4626 29.1937 12.7526C29.1937 16.0626 27.5937 18.1026 25.0337 18.1026Z"
        fillRule="evenodd"
        clipRule="evenodd"
    />
</svg>
        