
<svg
    viewBox="0 0 22.99609375 29.3125"
    xmlns="http://www.w3.org/2000/svg"
>
    <path
        fill="inherit"
        d="M4.2337 29.3173H18.7537C21.5837 29.3173 22.9937 27.8773 22.9937 25.0373V12.6173C22.9937 10.8573 22.7937 10.0873 21.6937 8.9673L14.1637 1.2973C13.1237 0.2373 12.2637 -0.0027 10.7337 -0.0027H4.2337C1.4237 -0.0027 0.0037 1.4473 0.0037 4.2973V25.0373C0.0037 27.8873 1.4037 29.3173 4.2337 29.3173ZM4.3337 27.1073C2.9237 27.1073 2.2037 26.3573 2.2037 24.9873V4.3373C2.2037 2.9773 2.9237 2.1973 4.3437 2.1973H10.4337V10.1473C10.4337 11.8673 11.2937 12.7173 13.0037 12.7173H20.7937V24.9873C20.7937 26.3573 20.0737 27.1073 18.6437 27.1073ZM13.2437 10.6473C12.7037 10.6473 12.4937 10.4273 12.4937 9.8873V2.6273L20.3737 10.6473ZM16.5337 16.4873H6.1537C5.6637 16.4873 5.2937 16.8573 5.2937 17.3173C5.2937 17.7973 5.6637 18.1673 6.1537 18.1673H16.5337C17.0037 18.1673 17.3637 17.7973 17.3637 17.3173C17.3637 16.8573 17.0037 16.4873 16.5337 16.4873ZM16.5337 21.2573H6.1537C5.6637 21.2573 5.2937 21.6473 5.2937 22.1173C5.2937 22.5873 5.6637 22.9373 6.1537 22.9373H16.5337C17.0037 22.9373 17.3637 22.5873 17.3637 22.1173C17.3637 21.6473 17.0037 21.2573 16.5337 21.2573Z"
        fillRule="evenodd"
        clipRule="evenodd"
    />
</svg>
        