
<svg
    viewBox="0 0 27.548828125 23.666015625"
    xmlns="http://www.w3.org/2000/svg"
>
    <path
        fill="inherit"
        d="M1.0937 0.0009C0.4737 0.0009 0.0037 0.4909 0.0037 1.1109C0.0037 1.7209 0.4737 2.2009 1.0937 2.2009H26.4237C27.0437 2.2009 27.5537 1.7209 27.5537 1.1109C27.5537 0.4909 27.0437 0.0009 26.4237 0.0009ZM1.0937 7.1609C0.4737 7.1609 0.0037 7.6409 0.0037 8.2609C0.0037 8.8709 0.4737 9.3609 1.0937 9.3609H26.4237C27.0437 9.3609 27.5537 8.8709 27.5537 8.2609C27.5537 7.6409 27.0437 7.1609 26.4237 7.1609ZM1.5737 13.2909C0.8237 13.2909 0.2237 13.8909 0.2237 14.6309V17.3809C0.2237 19.2509 1.3437 20.2909 3.3237 20.2909H7.3237V22.0409C7.3237 22.9509 8.1437 23.3909 8.9137 22.8009L13.0037 19.6709C13.5337 19.2609 13.5337 18.4809 13.0037 18.0709L8.9137 14.9409C8.1437 14.3709 7.3237 14.7909 7.3237 15.7109V17.6109H3.5137C3.1137 17.6109 2.9137 17.3909 2.9137 17.0109V14.6309C2.9137 13.8909 2.3137 13.2909 1.5737 13.2909ZM17.2137 14.3109C16.5937 14.3109 16.1237 14.7909 16.1237 15.4209C16.1237 16.0409 16.5937 16.5109 17.2137 16.5109H26.4237C27.0437 16.5109 27.5537 16.0409 27.5537 15.4209C27.5537 14.7909 27.0437 14.3109 26.4237 14.3109ZM17.2137 21.4609C16.5937 21.4609 16.1237 21.9609 16.1237 22.5709C16.1237 23.1909 16.5937 23.6709 17.2137 23.6709H26.4237C27.0437 23.6709 27.5537 23.1909 27.5537 22.5709C27.5537 21.9609 27.0437 21.4609 26.4237 21.4609Z"
        fillRule="evenodd"
        clipRule="evenodd"
    />
</svg>
        