
<svg
    viewBox={0 0 36.189453125 26.431018375718224}
    xmlns="http://www.w3.org/2000/svg"
>
    <path
        fill="inherit"
        d="M1.228 7.5959L6.088 4.6259C6.708 4.2559 6.698 3.5159 6.088 3.1459L1.228 0.1659C0.588 -0.2341 -0.002 0.1159 -0.002 0.8359V6.9359C-0.002 7.6759 0.588 7.9859 1.228 7.5959ZM10.378 6.0859H34.468C35.618 6.0859 36.188 5.5259 36.188 4.3759V3.3559C36.188 2.2359 35.618 1.6559 34.468 1.6559H10.378C9.228 1.6559 8.658 2.2359 8.658 3.3559V4.3759C8.658 5.5259 9.228 6.0859 10.378 6.0859ZM9.748 12.1259H35.078C35.698 12.1259 36.188 11.6359 36.188 11.0259C36.188 10.4059 35.698 9.9259 35.078 9.9259H9.748C9.128 9.9259 8.658 10.4059 8.658 11.0259C8.658 11.6359 9.128 12.1259 9.748 12.1259ZM9.748 19.2759H35.078C35.698 19.2759 36.188 18.8059 36.188 18.1859C36.188 17.5559 35.698 17.0759 35.078 17.0759H9.748C9.128 17.0759 8.658 17.5559 8.658 18.1859C8.658 18.8059 9.128 19.2759 9.748 19.2759ZM9.748 26.4359H35.078C35.698 26.4359 36.188 25.9559 36.188 25.3359C36.188 24.7259 35.698 24.2259 35.078 24.2259H9.748C9.128 24.2259 8.658 24.7259 8.658 25.3359C8.658 25.9559 9.128 26.4359 9.748 26.4359Z"
        fillRule="evenodd"
        clipRule="evenodd"
    />
</svg>
        