
<svg
    viewBox="0 0 28.123046875 34.849609375"
    xmlns="http://www.w3.org/2000/svg"
>
    <path
        fill="inherit"
        d="M3.8037 21.9954H24.3237C26.8637 21.9954 28.1237 20.7554 28.1237 18.2654V3.7554C28.1237 1.2754 26.8637 -0.0046 24.3237 -0.0046H3.8037C1.2837 -0.0046 0.0037 1.2854 0.0037 3.7554V18.2654C0.0037 20.7354 1.2737 21.9954 3.8037 21.9954ZM8.9537 11.2954C7.3237 11.2954 6.0037 9.9654 6.0037 8.3354C6.0037 6.7254 7.3237 5.3954 8.9537 5.3954C10.5637 5.3954 11.8937 6.7254 11.8937 8.3354C11.8937 9.9654 10.5637 11.2954 8.9537 11.2954ZM3.9237 19.9354C2.7637 19.9354 2.0737 19.2454 2.0737 18.0754V17.4954L5.5937 14.2754C6.1137 13.8054 6.6837 13.5754 7.2237 13.5754C7.8037 13.5754 8.4037 13.8254 8.9437 14.3054L11.2137 16.3654L16.9437 11.2754C17.5237 10.7754 18.1737 10.5254 18.8637 10.5254C19.5137 10.5254 20.2237 10.7754 20.7537 11.3054L26.1137 16.4054V18.1054C26.1137 19.2454 25.4037 19.9354 24.2637 19.9354ZM1.0237 28.4354H27.0837C27.6537 28.4354 28.1237 27.9854 28.1237 27.3954C28.1237 26.8254 27.6537 26.3754 27.0837 26.3754H1.0237C0.4537 26.3754 0.0037 26.8254 0.0037 27.3954C0.0037 27.9854 0.4537 28.4354 1.0237 28.4354ZM1.0237 34.8454H17.8837C18.4537 34.8454 18.9237 34.3954 18.9237 33.8254C18.9237 33.2454 18.4537 32.7854 17.8837 32.7854H1.0237C0.4537 32.7854 0.0037 33.2454 0.0037 33.8254C0.0037 34.3954 0.4537 34.8454 1.0237 34.8454Z"
        fillRule="evenodd"
        clipRule="evenodd"
    />
</svg>
        