
<svg
    viewBox="0 0 22.99609375 29.3125"
    xmlns="http://www.w3.org/2000/svg"
>
    <path
        fill="inherit"
        d="M0.0037 25.0373C0.0037 27.8873 1.4037 29.3173 4.2337 29.3173H18.7537C21.5837 29.3173 22.9937 27.8873 22.9937 25.0373V4.2973C22.9937 1.4473 21.5837 -0.0027 18.7537 -0.0027H4.2337C1.4037 -0.0027 0.0037 1.4473 0.0037 4.2973ZM6.0837 6.7973C5.5637 6.7973 5.1937 6.4073 5.1937 5.9173C5.1937 5.4273 5.5637 5.0473 6.0837 5.0473H17.4437C17.9537 5.0473 18.3237 5.4273 18.3237 5.9173C18.3237 6.4073 17.9537 6.7973 17.4437 6.7973ZM6.0837 10.8873C5.5637 10.8873 5.1937 10.4973 5.1937 10.0073C5.1937 9.5273 5.5637 9.1473 6.0837 9.1473H12.7437C13.2437 9.1473 13.6337 9.5273 13.6337 10.0073C13.6337 10.4973 13.2437 10.8873 12.7437 10.8873ZM6.3037 24.8273C5.1037 24.8273 4.4137 24.1873 4.4137 22.9373V15.1173C4.4137 13.8773 5.1037 13.2373 6.3037 13.2373H16.7037C17.9537 13.2373 18.5837 13.8773 18.5837 15.1173V22.9373C18.5837 24.1873 17.9537 24.8273 16.7037 24.8273Z"
        fillRule="evenodd"
        clipRule="evenodd"
    />
</svg>
        