
<svg
    viewBox="0 0 28.123046875 34.8359375"
    xmlns="http://www.w3.org/2000/svg"
>
    <path
        fill="inherit"
        d="M3.8037 21.9954H24.3237C26.8637 21.9954 28.1237 20.7554 28.1237 18.2654V3.7554C28.1237 1.2754 26.8637 -0.0046 24.3237 -0.0046H3.8037C1.2837 -0.0046 0.0037 1.2854 0.0037 3.7554V18.2654C0.0037 20.7354 1.2737 21.9954 3.8037 21.9954ZM19.7837 10.9754C19.2537 10.4954 18.6237 10.2554 17.9737 10.2554C17.3337 10.2554 16.7637 10.4854 16.2037 10.9654L10.8437 15.7654L8.6537 13.7654C8.1637 13.3154 7.6137 13.0854 7.0237 13.0854C6.5037 13.0854 6.0137 13.3154 5.5137 13.7654L2.0637 16.8854V3.8654C2.0637 2.7054 2.6837 2.0654 3.8237 2.0654H24.3037C25.4437 2.0654 26.0537 2.6954 26.0537 3.8654V16.8854ZM8.9037 11.1154C10.4337 11.1154 11.7037 9.8454 11.7037 8.2954C11.7037 6.7654 10.4337 5.5054 8.9037 5.5054C7.3537 5.5054 6.1137 6.7654 6.1137 8.2954C6.1137 9.8454 7.3537 11.1154 8.9037 11.1154ZM1.0237 28.4254H27.0837C27.6537 28.4254 28.1237 27.9754 28.1237 27.3854C28.1237 26.8154 27.6537 26.3554 27.0837 26.3554H1.0237C0.4537 26.3554 0.0037 26.8154 0.0037 27.3854C0.0037 27.9754 0.4537 28.4254 1.0237 28.4254ZM1.0237 34.8354H17.8837C18.4537 34.8354 18.9237 34.3854 18.9237 33.8154C18.9237 33.2354 18.4537 32.7754 17.8837 32.7754H1.0237C0.4537 32.7754 0.0037 33.2354 0.0037 33.8154C0.0037 34.3854 0.4537 34.8354 1.0237 34.8354Z"
        fillRule="evenodd"
        clipRule="evenodd"
    />
</svg>
        