
<svg
    viewBox={0 0 30.1328125 28.369140625}
    xmlns="http://www.w3.org/2000/svg"
>
    <path
        fill="inherit"
        d="M8.1237 28.3728C8.6537 28.3728 9.0537 28.0928 9.6937 27.4928L14.6337 22.9828H23.8737C27.9437 22.9828 30.1337 20.7428 30.1337 16.7328V6.2628C30.1337 2.2528 27.9437 0.0028 23.8737 0.0028H6.2637C2.1837 0.0028 0.0037 2.2428 0.0037 6.2628V16.7328C0.0037 20.7528 2.1837 22.9828 6.2637 22.9828H6.9037V26.9628C6.9037 27.8128 7.3437 28.3728 8.1237 28.3728ZM7.8037 7.6028C7.3537 7.6028 6.9837 7.2428 6.9837 6.7828C6.9837 6.3428 7.3537 5.9728 7.8037 5.9728H22.1637C22.6137 5.9728 22.9737 6.3428 22.9737 6.7828C22.9737 7.2428 22.6137 7.6028 22.1637 7.6028ZM7.8037 12.1928C7.3537 12.1928 6.9837 11.8228 6.9837 11.3628C6.9837 10.9228 7.3537 10.5528 7.8037 10.5528H22.1637C22.6137 10.5528 22.9737 10.9228 22.9737 11.3628C22.9737 11.8228 22.6137 12.1928 22.1637 12.1928ZM7.8037 16.7728C7.3537 16.7728 6.9837 16.4228 6.9837 15.9728C6.9837 15.5028 7.3537 15.1328 7.8037 15.1328H17.1437C17.5937 15.1328 17.9537 15.5028 17.9537 15.9728C17.9537 16.4228 17.5937 16.7728 17.1437 16.7728Z"
        fillRule="evenodd"
        clipRule="evenodd"
    />
</svg>
        