
<svg
    viewBox={0 0 31.3359375 20.20703125}
    xmlns="http://www.w3.org/2000/svg"
>
    <path
        fill="inherit"
        d="M1.1437 20.1946C1.8737 20.1946 2.2237 19.9246 2.4837 19.1546L4.2537 14.3246H12.3137L14.0837 19.1546C14.3437 19.9246 14.6937 20.1946 15.4037 20.1946C16.1337 20.1946 16.5937 19.7546 16.5937 19.0746C16.5937 18.8446 16.5537 18.6246 16.4437 18.3346L10.0337 1.2546C9.7237 0.4246 9.1637 0.0046 8.2837 0.0046C7.4337 0.0046 6.8637 0.4146 6.5637 1.2446L0.1537 18.3446C0.0437 18.6346 0.0037 18.8546 0.0037 19.0846C0.0037 19.7646 0.4337 20.1946 1.1437 20.1946ZM4.9237 12.2546L8.2437 3.0446H8.3137L11.6337 12.2546ZM24.1337 20.1946C26.2337 20.1946 28.2037 19.0446 29.0537 17.2646H29.1037V19.0746C29.1037 19.7546 29.5737 20.2046 30.2137 20.2046C30.8737 20.2046 31.3337 19.7546 31.3337 19.0146V9.8846C31.3337 6.9046 29.1437 4.9946 25.6737 4.9946C23.1037 4.9946 20.9637 6.1246 20.1837 7.8846C20.0337 8.2146 19.9237 8.5446 19.9237 8.8446C19.9237 9.4446 20.3737 9.8446 20.9637 9.8446C21.3837 9.8446 21.7137 9.6846 21.9137 9.2946C22.6837 7.7146 23.8437 6.9546 25.6237 6.9546C27.7537 6.9546 29.0237 8.1646 29.0237 10.0746V11.2546L24.6137 11.4946C21.1537 11.6846 19.2237 13.2846 19.2237 15.8346C19.2237 18.4446 21.2337 20.1946 24.1337 20.1946ZM24.6937 18.2946C22.8437 18.2946 21.5837 17.2846 21.5837 15.7746C21.5837 14.3246 22.7537 13.3546 24.8937 13.2246L29.0237 12.9646V14.4146C29.0237 16.5846 27.0937 18.2946 24.6937 18.2946Z"
        fillRule="evenodd"
        clipRule="evenodd"
    />
</svg>
        