
<svg
    viewBox={0 0 32.23828125 25.169921875}
    xmlns="http://www.w3.org/2000/svg"
>
    <path
        fill="inherit"
        d="M0.0037 20.9355C0.0037 23.7655 1.4337 25.1655 4.2937 25.1655H27.9437C30.8137 25.1655 32.2337 23.7455 32.2337 20.9355V4.2355C32.2337 1.4255 30.8137 -0.0045 27.9437 -0.0045H4.2937C1.4337 -0.0045 0.0037 1.4055 0.0037 4.2355ZM4.3337 4.6655C3.6637 4.6655 3.1137 4.0855 3.1137 3.4455C3.1137 2.8055 3.6637 2.2255 4.3337 2.2255C5.0037 2.2255 5.5637 2.8055 5.5637 3.4455C5.5637 4.0855 5.0037 4.6655 4.3337 4.6655ZM8.2537 4.6655C7.5837 4.6655 7.0437 4.0855 7.0437 3.4455C7.0437 2.8055 7.5837 2.2255 8.2537 2.2255C8.9237 2.2255 9.4837 2.8055 9.4837 3.4455C9.4837 4.0855 8.9237 4.6655 8.2537 4.6655ZM12.1837 4.6655C11.5137 4.6655 10.9637 4.0855 10.9637 3.4455C10.9637 2.8055 11.5137 2.2255 12.1837 2.2255C12.8537 2.2255 13.3937 2.8055 13.3937 3.4455C13.3937 4.0855 12.8537 4.6655 12.1837 4.6655ZM2.2037 20.8255V6.8955H30.0337V20.8255C30.0337 22.2455 29.2737 22.9655 27.9137 22.9655H4.3237C2.9537 22.9655 2.2037 22.2455 2.2037 20.8255ZM25.8937 19.3055C27.0437 19.3055 27.7937 18.5355 27.7937 17.3955C27.7937 16.2655 27.0437 15.5155 25.8937 15.5155H25.2137V14.0655H25.8937C27.0437 14.0655 27.7937 13.3255 27.7937 12.2055C27.7937 11.0555 27.0437 10.2955 25.8937 10.2955C24.7637 10.2955 24.0237 11.0555 24.0237 12.2055V12.8955H22.6137V12.2055C22.6137 11.0555 21.8737 10.2955 20.7437 10.2955C19.5937 10.2955 18.8437 11.0555 18.8437 12.2055C18.8437 13.3255 19.5937 14.0655 20.7437 14.0655H21.4137V15.5155H20.7437C19.5937 15.5155 18.8437 16.2655 18.8437 17.3955C18.8437 18.5355 19.5937 19.3055 20.7437 19.3055C21.8737 19.3055 22.6137 18.5355 22.6137 17.3955V16.7255H24.0237V17.3955C24.0237 18.5355 24.7637 19.3055 25.8937 19.3055ZM5.3137 11.4255C5.3137 11.8855 5.6837 12.2355 6.1237 12.2355H14.4637C14.9037 12.2355 15.2537 11.8855 15.2537 11.4255C15.2537 10.9755 14.9037 10.6055 14.4637 10.6055H6.1237C5.6837 10.6055 5.3137 10.9755 5.3137 11.4255ZM25.2137 12.8955V12.2055C25.2137 11.7755 25.4837 11.4855 25.8937 11.4855C26.3337 11.4855 26.6037 11.7755 26.6037 12.2055C26.6037 12.6155 26.3337 12.8955 25.8937 12.8955ZM21.4137 12.8955H20.7437C20.3037 12.8955 20.0337 12.6155 20.0337 12.2055C20.0337 11.7755 20.3037 11.4855 20.7437 11.4855C21.1337 11.4855 21.4137 11.7755 21.4137 12.2055ZM5.3137 14.8055C5.3137 15.2555 5.6837 15.6255 6.1237 15.6255H14.4637C14.9037 15.6255 15.2537 15.2555 15.2537 14.8055C15.2537 14.3555 14.9037 13.9955 14.4637 13.9955H6.1237C5.6837 13.9955 5.3137 14.3555 5.3137 14.8055ZM24.0237 15.5455H22.6137V14.0655H24.0237ZM25.2137 16.6955H25.8937C26.3337 16.6955 26.6037 16.9755 26.6037 17.3955C26.6037 17.8255 26.3337 18.1155 25.8937 18.1155C25.4837 18.1155 25.2137 17.8255 25.2137 17.3955ZM21.4137 16.6955V17.3955C21.4137 17.8055 21.1237 18.1155 20.7437 18.1155C20.3037 18.1155 20.0337 17.8255 20.0337 17.3955C20.0337 16.9755 20.3037 16.6955 20.7437 16.6955ZM5.3137 18.1955C5.3137 18.6455 5.6837 19.0055 6.1237 19.0055H14.4637C14.9037 19.0055 15.2537 18.6455 15.2537 18.1955C15.2537 17.7355 14.9037 17.3755 14.4637 17.3755H6.1237C5.6837 17.3755 5.3137 17.7355 5.3137 18.1955Z"
        fillRule="evenodd"
        clipRule="evenodd"
    />
</svg>
        