
<svg
    viewBox={0 0 27.548828125 23.666015625}
    xmlns="http://www.w3.org/2000/svg"
>
    <path
        fill="inherit"
        d="M1.0937 2.2009H26.4237C27.0437 2.2009 27.5537 1.7209 27.5537 1.1109C27.5537 0.4909 27.0437 0.0009 26.4237 0.0009H1.0937C0.4737 0.0009 0.0037 0.4909 0.0037 1.1109C0.0037 1.7209 0.4737 2.2009 1.0937 2.2009ZM6.3337 9.3609H21.1937C21.8037 9.3609 22.3137 8.8709 22.3137 8.2609C22.3137 7.6409 21.8037 7.1609 21.1937 7.1609H6.3337C5.7137 7.1609 5.2337 7.6409 5.2337 8.2609C5.2337 8.8709 5.7137 9.3609 6.3337 9.3609ZM1.0937 16.5109H26.4237C27.0437 16.5109 27.5537 16.0409 27.5537 15.4209C27.5537 14.7909 27.0437 14.3109 26.4237 14.3109H1.0937C0.4737 14.3109 0.0037 14.7909 0.0037 15.4209C0.0037 16.0409 0.4737 16.5109 1.0937 16.5109ZM6.3337 23.6709H21.1937C21.8037 23.6709 22.3137 23.1909 22.3137 22.5709C22.3137 21.9609 21.8037 21.4609 21.1937 21.4609H6.3337C5.7137 21.4609 5.2337 21.9609 5.2337 22.5709C5.2337 23.1909 5.7137 23.6709 6.3337 23.6709Z"
        fillRule="evenodd"
        clipRule="evenodd"
    />
</svg>
        