
<svg
    viewBox="0 0 27.548828125 23.666015625"
    xmlns="http://www.w3.org/2000/svg"
>
    <path
        fill="inherit"
        d="M1.0937 2.2009H26.4237C27.0437 2.2009 27.5537 1.7209 27.5537 1.1109C27.5537 0.4909 27.0437 0.0009 26.4237 0.0009H1.0937C0.4737 0.0009 0.0037 0.4909 0.0037 1.1109C0.0037 1.7209 0.4737 2.2009 1.0937 2.2009ZM1.0937 9.3609H16.3337C16.9537 9.3609 17.4437 8.8709 17.4437 8.2609C17.4437 7.6409 16.9537 7.1609 16.3337 7.1609H1.0937C0.4737 7.1609 0.0037 7.6409 0.0037 8.2609C0.0037 8.8709 0.4737 9.3609 1.0937 9.3609ZM1.0937 16.5109H26.4237C27.0437 16.5109 27.5537 16.0409 27.5537 15.4209C27.5537 14.7909 27.0437 14.3109 26.4237 14.3109H1.0937C0.4737 14.3109 0.0037 14.7909 0.0037 15.4209C0.0037 16.0409 0.4737 16.5109 1.0937 16.5109ZM1.0937 23.6709H16.3337C16.9537 23.6709 17.4437 23.1909 17.4437 22.5709C17.4437 21.9609 16.9537 21.4609 16.3337 21.4609H1.0937C0.4737 21.4609 0.0037 21.9609 0.0037 22.5709C0.0037 23.1909 0.4737 23.6709 1.0937 23.6709Z"
        fillRule="evenodd"
        clipRule="evenodd"
    />
</svg>
        