
<svg
    viewBox={0 0 12.208984375 14.423828125}
    xmlns="http://www.w3.org/2000/svg"
>
    <path
        fill="inherit"
        d="M1.1337 14.4262C1.6937 14.4262 2.0637 14.1362 2.2837 13.4662L3.4137 10.1162H8.7637L9.8937 13.4662C10.1137 14.1662 10.4837 14.4262 11.0637 14.4262C11.7437 14.4262 12.2137 13.9962 12.2137 13.3862C12.2137 13.1162 12.1437 12.8562 12.0337 12.5662L7.7837 1.2762C7.4637 0.4362 6.8937 -0.0038 6.0837 -0.0038C5.2937 -0.0038 4.7137 0.4062 4.4037 1.2762L0.1537 12.5662C0.0437 12.8262 0.0037 13.0962 0.0037 13.3862C0.0037 14.0162 0.4337 14.4262 1.1337 14.4262ZM4.0237 8.3362L5.9337 2.6362H6.2437L8.1637 8.3362Z"
        fillRule="evenodd"
        clipRule="evenodd"
    />
</svg>
        