
<svg
    viewBox={0 0 27.548828125 23.666015625}
    xmlns="http://www.w3.org/2000/svg"
>
    <path
        fill="inherit"
        d="M1.0937 2.2009H26.4237C27.0437 2.2009 27.5537 1.7209 27.5537 1.1109C27.5537 0.4909 27.0437 0.0009 26.4237 0.0009H1.0937C0.4737 0.0009 0.0037 0.4909 0.0037 1.1109C0.0037 1.7209 0.4737 2.2009 1.0937 2.2009ZM1.0937 9.3609H26.4237C27.0437 9.3609 27.5537 8.8709 27.5537 8.2609C27.5537 7.6409 27.0437 7.1609 26.4237 7.1609H1.0937C0.4737 7.1609 0.0037 7.6409 0.0037 8.2609C0.0037 8.8709 0.4737 9.3609 1.0937 9.3609ZM1.0937 16.5109H26.4237C27.0437 16.5109 27.5537 16.0409 27.5537 15.4209C27.5537 14.7909 27.0437 14.3109 26.4237 14.3109H1.0937C0.4737 14.3109 0.0037 14.7909 0.0037 15.4209C0.0037 16.0409 0.4737 16.5109 1.0937 16.5109ZM1.0937 23.6709H15.5837C16.2037 23.6709 16.6937 23.1909 16.6937 22.5709C16.6937 21.9609 16.2037 21.4609 15.5837 21.4609H1.0937C0.4737 21.4609 0.0037 21.9609 0.0037 22.5709C0.0037 23.1909 0.4737 23.6709 1.0937 23.6709Z"
        fillRule="evenodd"
        clipRule="evenodd"
    />
</svg>
        