
<svg
    viewBox="0 0 27.74365234375 29.3125"
    xmlns="http://www.w3.org/2000/svg"
>
    <path
        fill="inherit"
        d="M6.6155 -0.0027C5.4655 -0.0027 4.5455 0.2773 3.8955 0.7673L5.6555 2.5273C5.9055 2.3273 6.2555 2.1973 6.7355 2.1973H21.0255C22.4455 2.1973 23.1655 2.9673 23.1655 4.3373V20.0473L25.3755 22.2473V4.2973C25.3755 1.4473 23.9655 -0.0027 21.1355 -0.0027ZM25.9455 28.2173C26.3655 28.6273 27.0355 28.6273 27.4355 28.2173C27.8455 27.7973 27.8455 27.1273 27.4355 26.7173L1.8055 1.0973C1.3955 0.6873 0.7255 0.6673 0.2955 1.0973C-0.0945 1.4873 -0.0945 2.1873 0.2955 2.5873ZM11.0555 7.9173H19.0655C19.5455 7.9173 19.9155 7.5473 19.9155 7.0673C19.9155 6.6073 19.5455 6.2373 19.0655 6.2373H9.3655ZM6.6155 29.3173H21.1355C22.3055 29.3173 23.2255 29.0673 23.8655 28.5573L22.1155 26.8073C21.8555 27.0173 21.4855 27.1073 21.0255 27.1073H6.7355C5.3155 27.1073 4.5755 26.3573 4.5755 24.9873V9.2873L2.3755 7.0773V25.0373C2.3755 27.8873 3.7955 29.3173 6.6155 29.3173ZM15.8255 12.6873H19.0655C19.5455 12.6873 19.9155 12.3173 19.9155 11.8373C19.9155 11.3773 19.5455 11.0073 19.0655 11.0073H14.1455ZM8.7055 17.4573H12.7655L11.0855 15.7773H8.7055C8.1955 15.7773 7.8455 16.1473 7.8455 16.6373C7.8455 17.1073 8.1955 17.4573 8.7055 17.4573Z"
        fillRule="evenodd"
        clipRule="evenodd"
    />
</svg>
        