
<svg
    viewBox={0 0 26.76953125 26.755859375}
    xmlns="http://www.w3.org/2000/svg"
>
    <path
        fill="inherit"
        d="M1.0937 8.6985C1.8137 8.6985 2.2037 8.2885 2.2037 7.5785V4.3485C2.2037 2.9285 2.9537 2.1985 4.3237 2.1985H7.6337C8.3537 2.1985 8.7537 1.8085 8.7537 1.0985C8.7537 0.3785 8.3537 -0.0015 7.6337 -0.0015H4.2937C1.4337 -0.0015 0.0037 1.4085 0.0037 4.2285V7.5785C0.0037 8.2885 0.3937 8.6985 1.0937 8.6985ZM25.6637 8.6985C26.3837 8.6985 26.7737 8.2885 26.7737 7.5785V4.2285C26.7737 1.4085 25.3337 -0.0015 22.4737 -0.0015H19.1237C18.4137 -0.0015 18.0237 0.3785 18.0237 1.0985C18.0237 1.8085 18.4137 2.1985 19.1237 2.1985H22.4337C23.7937 2.1985 24.5637 2.9285 24.5637 4.3485V7.5785C24.5637 8.2885 24.9637 8.6985 25.6637 8.6985ZM6.0837 8.1185C6.0837 8.6285 6.4937 9.0385 7.0037 9.0385H19.7837C20.2937 9.0385 20.7037 8.6285 20.7037 8.1185C20.7037 7.6185 20.2937 7.1885 19.7837 7.1885H7.0037C6.4937 7.1885 6.0837 7.6185 6.0837 8.1185ZM6.0837 13.3685C6.0837 13.8785 6.4937 14.2885 7.0037 14.2885H19.7837C20.2937 14.2885 20.7037 13.8785 20.7037 13.3685C20.7037 12.8685 20.2937 12.4385 19.7837 12.4385H7.0037C6.4937 12.4385 6.0837 12.8685 6.0837 13.3685ZM6.0837 18.6185C6.0837 19.1285 6.4937 19.5485 7.0037 19.5485H15.4037C15.9137 19.5485 16.3237 19.1285 16.3237 18.6185C16.3237 18.1185 15.9137 17.7085 15.4037 17.7085H7.0037C6.4937 17.7085 6.0837 18.1185 6.0837 18.6185ZM4.2937 26.7585H7.6337C8.3537 26.7585 8.7537 26.3585 8.7537 25.6585C8.7537 24.9485 8.3537 24.5585 7.6337 24.5585H4.3237C2.9537 24.5585 2.2037 23.8285 2.2037 22.4085V19.1785C2.2037 18.4585 1.8037 18.0585 1.0937 18.0585C0.3837 18.0585 0.0037 18.4585 0.0037 19.1785V22.5185C0.0037 25.3485 1.4337 26.7585 4.2937 26.7585ZM19.1237 26.7585H22.4737C25.3337 26.7585 26.7737 25.3385 26.7737 22.5185V19.1785C26.7737 18.4585 26.3737 18.0585 25.6637 18.0585C24.9537 18.0585 24.5637 18.4585 24.5637 19.1785V22.4085C24.5637 23.8285 23.7937 24.5585 22.4337 24.5585H19.1237C18.4137 24.5585 18.0237 24.9485 18.0237 25.6585C18.0237 26.3585 18.4137 26.7585 19.1237 26.7585Z"
        fillRule="evenodd"
        clipRule="evenodd"
    />
</svg>
        