
<svg
    viewBox="0 0 22.99609375 29.298828125"
    xmlns="http://www.w3.org/2000/svg"
>
    <path
        fill="inherit"
        d="M4.1937 29.3037H21.9037C22.5037 29.3037 22.9937 28.8237 22.9937 28.2037C22.9937 27.7237 22.6637 27.3037 22.2337 27.1537C20.5037 26.4737 20.1537 24.2437 21.8437 22.5337C22.3637 22.0137 22.9937 21.3437 22.9937 19.9737V4.2937C22.9937 1.4537 21.5837 0.0037 18.7537 0.0037H4.2337C1.4037 0.0037 0.0037 1.4337 0.0037 4.2937V25.0737C0.0037 27.8937 1.4237 29.3037 4.1937 29.3037ZM18.6437 2.2037C20.0737 2.2037 20.7937 2.9637 20.7937 4.3337V19.6737C20.7937 20.4137 20.3737 20.8337 19.6037 20.8337H5.6037V2.2037ZM2.2037 21.3937V4.3337C2.2037 3.1437 2.7437 2.4237 3.8137 2.2437V20.8637C3.1837 20.9337 2.6637 21.1137 2.2037 21.3937ZM8.0537 8.7637H18.3037C18.8037 8.7637 19.1937 8.3537 19.1937 7.8637C19.1937 7.3737 18.8037 6.9737 18.3037 6.9737H8.0537C7.5637 6.9737 7.1637 7.3737 7.1637 7.8637C7.1637 8.3537 7.5637 8.7637 8.0537 8.7637ZM8.0537 12.5237H15.8337C16.3237 12.5237 16.7237 12.1137 16.7237 11.6237C16.7237 11.1337 16.3237 10.7337 15.8337 10.7337H8.0537C7.5637 10.7337 7.1637 11.1337 7.1637 11.6237C7.1637 12.1137 7.5637 12.5237 8.0537 12.5237ZM4.3237 27.0937C2.9437 27.0937 2.2037 26.3637 2.2037 25.0637C2.2037 23.8337 3.0737 23.0337 4.4437 23.0337H18.4737C18.6437 23.0337 18.8137 23.0237 18.9537 22.9937C18.3037 24.4137 18.4137 25.9237 19.1437 27.0937Z"
        fillRule="evenodd"
        clipRule="evenodd"
    />
</svg>
        