<svg viewBox="0 0 22.99609375 29.3125" xmlns="http://www.w3.org/2000/svg"><path d="M0.0037 25.0373C0.0037 27.8873 1.4037 29.3173 4.2337 29.3173H18.7537C21.5837 29.3173 22.9937 27.8873 22.9937 25.0373V4.2973C22.9937 1.4473 21.5837 -0.0027 18.7537 -0.0027H4.2337C1.4037 -0.0027 0.0037 1.4473 0.0037 4.2973ZM2.2037 24.9873V4.3373C2.2037 2.9673 2.9237 2.1973 4.3437 2.1973H18.6437C20.0737 2.1973 20.7937 2.9673 20.7937 4.3373V24.9873C20.7937 26.3573 20.0737 27.1073 18.6437 27.1073H4.3437C2.9237 27.1073 2.2037 26.3573 2.2037 24.9873ZM6.2437 7.0273H17.2637C17.7637 7.0273 18.1137 6.6573 18.1137 6.1773C18.1137 5.7173 17.7637 5.3473 17.2637 5.3473H6.2437C5.7437 5.3473 5.3837 5.7173 5.3837 6.1773C5.3837 6.6573 5.7437 7.0273 6.2437 7.0273ZM6.2437 10.9873H12.7137C13.1937 10.9873 13.5637 10.6273 13.5637 10.1473C13.5637 9.6773 13.1937 9.3073 12.7137 9.3073H6.2437C5.7437 9.3073 5.3837 9.6773 5.3837 10.1473C5.3837 10.6273 5.7437 10.9873 6.2437 10.9873ZM6.4537 24.5273H16.5537C17.7637 24.5273 18.3737 23.9073 18.3737 22.7073V15.1073C18.3737 13.9073 17.7637 13.2773 16.5537 13.2773H6.4537C5.2937 13.2773 4.6237 13.9073 4.6237 15.1073V22.7073C4.6237 23.9073 5.2937 24.5273 6.4537 24.5273Z" /></svg>