
<svg
    viewBox="0 0 30.1328125 28.287109375"
    xmlns="http://www.w3.org/2000/svg"
>
    <path
        fill="inherit"
        d="M8.4037 28.2828C9.0737 28.2828 9.5437 27.9328 10.3737 27.1928L15.0937 22.9928H23.8737C27.9437 22.9928 30.1337 20.7428 30.1337 16.7328V6.2628C30.1337 2.2528 27.9437 0.0028 23.8737 0.0028H6.2637C2.1837 0.0028 0.0037 2.2428 0.0037 6.2628V16.7328C0.0037 20.7528 2.1837 22.9928 6.2637 22.9928H6.9137V26.5528C6.9137 27.6028 7.4537 28.2828 8.4037 28.2828ZM8.9737 25.7828V21.8228C8.9737 21.0828 8.6837 20.7928 7.9437 20.7928H6.2637C3.5037 20.7928 2.2037 19.3828 2.2037 16.7228V6.2628C2.2037 3.5928 3.5037 2.2028 6.2637 2.2028H23.8737C26.6237 2.2028 27.9337 3.5928 27.9337 6.2628V16.7228C27.9337 19.3828 26.6237 20.7928 23.8737 20.7928H15.0137C14.2437 20.7928 13.8637 20.9028 13.3437 21.4328ZM8.0237 7.7228H21.9437C22.3837 7.7228 22.7237 7.3828 22.7237 6.9328C22.7237 6.5028 22.3837 6.1528 21.9437 6.1528H8.0237C7.5837 6.1528 7.2337 6.5028 7.2337 6.9328C7.2337 7.3828 7.5837 7.7228 8.0237 7.7228ZM8.0237 12.1828H21.9437C22.3837 12.1828 22.7237 11.8228 22.7237 11.3728C22.7237 10.9528 22.3837 10.5928 21.9437 10.5928H8.0237C7.5837 10.5928 7.2337 10.9528 7.2337 11.3728C7.2337 11.8228 7.5837 12.1828 8.0237 12.1828ZM8.0237 16.6228H17.0737C17.5137 16.6228 17.8537 16.2828 17.8537 15.8428C17.8537 15.3928 17.5137 15.0428 17.0737 15.0428H8.0237C7.5837 15.0428 7.2337 15.3928 7.2337 15.8428C7.2337 16.2828 7.5837 16.6228 8.0237 16.6228Z"
        fillRule="evenodd"
        clipRule="evenodd"
    />
</svg>
        