
<svg
    viewBox="0 0 31.14453125 20.193359375"
    xmlns="http://www.w3.org/2000/svg"
>
    <path
        fill="inherit"
        d="M15.6937 20.1946C16.4037 20.1946 16.7737 19.9246 17.0337 19.1546L18.8037 14.3246H26.8637L28.6337 19.1546C28.8937 19.9246 29.2437 20.1946 29.9537 20.1946C30.6837 20.1946 31.1437 19.7546 31.1437 19.0746C31.1437 18.8446 31.1037 18.6246 30.9937 18.3346L24.5837 1.2546C24.2637 0.4246 23.7037 0.0046 22.8337 0.0046C21.9837 0.0046 21.4137 0.4146 21.1137 1.2446L14.6937 18.3446C14.5837 18.6346 14.5437 18.8546 14.5437 19.0846C14.5437 19.7646 14.9837 20.1946 15.6937 20.1946ZM19.4737 12.2546L22.7937 3.0446H22.8637L26.1837 12.2546ZM1.1337 20.1946C1.6937 20.1946 2.0637 19.9046 2.2837 19.2346L3.4137 15.8846H8.7637L9.8937 19.2346C10.1137 19.9346 10.4837 20.1946 11.0637 20.1946C11.7437 20.1946 12.2137 19.7646 12.2137 19.1546C12.2137 18.8846 12.1437 18.6246 12.0337 18.3346L7.7837 7.0446C7.4637 6.2046 6.8937 5.7646 6.0837 5.7646C5.2937 5.7646 4.7137 6.1846 4.4037 7.0446L0.1537 18.3346C0.0437 18.5946 0.0037 18.8646 0.0037 19.1546C0.0037 19.7846 0.4337 20.1946 1.1337 20.1946ZM4.0237 14.1046L5.9337 8.4046H6.2437L8.1637 14.1046Z"
        fillRule="evenodd"
        clipRule="evenodd"
    />
</svg>
        