
<svg
    viewBox="0 0 27.548828125 23.666015625"
    xmlns="http://www.w3.org/2000/svg"
>
    <path
        fill="inherit"
        d="M17.2137 2.2009H26.4237C27.0437 2.2009 27.5537 1.7209 27.5537 1.1109C27.5537 0.4909 27.0437 0.0009 26.4237 0.0009H17.2137C16.5937 0.0009 16.1237 0.4909 16.1237 1.1109C16.1237 1.7209 16.5937 2.2009 17.2137 2.2009ZM1.5737 10.3909C2.3137 10.3909 2.9137 9.7909 2.9137 9.0409V6.6709C2.9137 6.2709 3.1137 6.0709 3.5137 6.0709H7.3237V7.9609C7.3237 8.8909 8.1437 9.3109 8.9137 8.7209L13.0037 5.6009C13.5337 5.1809 13.5337 4.4209 13.0037 3.9909L8.9137 0.8709C8.1437 0.2909 7.3237 0.7109 7.3237 1.6409V3.3809H3.3237C1.3437 3.3809 0.2237 4.4309 0.2237 6.3009V9.0409C0.2237 9.7909 0.8237 10.3909 1.5737 10.3909ZM17.2137 9.3609H26.4237C27.0437 9.3609 27.5537 8.8709 27.5537 8.2609C27.5537 7.6409 27.0437 7.1609 26.4237 7.1609H17.2137C16.5937 7.1609 16.1237 7.6409 16.1237 8.2609C16.1237 8.8709 16.5937 9.3609 17.2137 9.3609ZM1.0937 16.5109H26.4237C27.0437 16.5109 27.5537 16.0409 27.5537 15.4209C27.5537 14.7909 27.0437 14.3109 26.4237 14.3109H1.0937C0.4737 14.3109 0.0037 14.7909 0.0037 15.4209C0.0037 16.0409 0.4737 16.5109 1.0937 16.5109ZM1.0937 23.6709H26.4237C27.0437 23.6709 27.5537 23.1909 27.5537 22.5709C27.5537 21.9609 27.0437 21.4609 26.4237 21.4609H1.0937C0.4737 21.4609 0.0037 21.9609 0.0037 22.5709C0.0037 23.1909 0.4737 23.6709 1.0937 23.6709Z"
        fillRule="evenodd"
        clipRule="evenodd"
    />
</svg>
        