
<svg
    viewBox="0 0 27.548828125 23.666015625"
    xmlns="http://www.w3.org/2000/svg"
>
    <path
        fill="inherit"
        d="M26.4437 2.2009C27.0537 2.2009 27.5537 1.7209 27.5537 1.1109C27.5537 0.4909 27.0537 0.0009 26.4437 0.0009H1.1037C0.4937 0.0009 0.0037 0.4909 0.0037 1.1109C0.0037 1.7209 0.4937 2.2009 1.1037 2.2009ZM26.4437 9.3609C27.0537 9.3609 27.5537 8.8709 27.5537 8.2609C27.5537 7.6409 27.0537 7.1609 26.4437 7.1609H11.2137C10.5837 7.1609 10.0937 7.6409 10.0937 8.2609C10.0937 8.8709 10.5837 9.3609 11.2137 9.3609ZM26.4437 16.5109C27.0537 16.5109 27.5537 16.0409 27.5537 15.4209C27.5537 14.7909 27.0537 14.3109 26.4437 14.3109H1.1037C0.4937 14.3109 0.0037 14.7909 0.0037 15.4209C0.0037 16.0409 0.4937 16.5109 1.1037 16.5109ZM26.4437 23.6709C27.0537 23.6709 27.5537 23.1909 27.5537 22.5709C27.5537 21.9609 27.0537 21.4609 26.4437 21.4609H11.2137C10.5837 21.4609 10.0937 21.9609 10.0937 22.5709C10.0937 23.1909 10.5837 23.6709 11.2137 23.6709Z"
        fillRule="evenodd"
        clipRule="evenodd"
    />
</svg>
        