
<svg
    viewBox={0 0 27.548828125 23.6796875}
    xmlns="http://www.w3.org/2000/svg"
>
    <path
        fill="inherit"
        d="M1.0937 2.2009H26.4237C27.0437 2.2009 27.5537 1.7209 27.5537 1.1109C27.5537 0.4909 27.0437 0.0009 26.4237 0.0009H1.0937C0.4737 0.0009 0.0037 0.4909 0.0037 1.1109C0.0037 1.7209 0.4737 2.2009 1.0937 2.2009ZM1.7237 10.4709H25.8137C26.9637 10.4709 27.5537 9.9109 27.5537 8.7609V7.7409C27.5537 6.6209 26.9637 6.0409 25.8137 6.0409H1.7237C0.5737 6.0409 0.0037 6.6209 0.0037 7.7409V8.7609C0.0037 9.9109 0.5737 10.4709 1.7237 10.4709ZM1.7237 17.6409H11.9337C13.0837 17.6409 13.6537 17.0609 13.6537 15.9109V14.9009C13.6537 13.7809 13.0837 13.1909 11.9337 13.1909H1.7237C0.5737 13.1909 0.0037 13.7809 0.0037 14.9009V15.9109C0.0037 17.0609 0.5737 17.6409 1.7237 17.6409ZM16.6237 16.5109H26.4237C27.0437 16.5109 27.5537 16.0409 27.5537 15.4209C27.5537 14.7909 27.0437 14.3109 26.4237 14.3109H16.6237C16.0137 14.3109 15.5337 14.7909 15.5337 15.4209C15.5337 16.0409 16.0137 16.5109 16.6237 16.5109ZM1.0937 23.6809H26.4237C27.0437 23.6809 27.5537 23.2009 27.5537 22.5909C27.5537 21.9709 27.0437 21.4809 26.4237 21.4809H1.0937C0.4737 21.4809 0.0037 21.9709 0.0037 22.5909C0.0037 23.2009 0.4737 23.6809 1.0937 23.6809Z"
        fillRule="evenodd"
        clipRule="evenodd"
    />
</svg>
        