
<svg
    viewBox="0 0 36.189453125 26.444363252472264"
    xmlns="http://www.w3.org/2000/svg"
>
    <path
        fill="inherit"
        d="M9.748 0.0009C9.128 0.0009 8.658 0.4909 8.658 1.1109C8.658 1.7209 9.128 2.2009 9.748 2.2009H35.078C35.698 2.2009 36.188 1.7209 36.188 1.1109C36.188 0.4909 35.698 0.0009 35.078 0.0009ZM9.748 7.1609C9.128 7.1609 8.658 7.6409 8.658 8.2609C8.658 8.8709 9.128 9.3609 9.748 9.3609H35.078C35.698 9.3609 36.188 8.8709 36.188 8.2609C36.188 7.6409 35.698 7.1609 35.078 7.1609ZM9.748 14.3109C9.128 14.3109 8.658 14.7909 8.658 15.4209C8.658 16.0409 9.128 16.5109 9.748 16.5109H35.078C35.698 16.5109 36.188 16.0409 36.188 15.4209C36.188 14.7909 35.698 14.3109 35.078 14.3109ZM1.228 18.8509C0.588 18.4609 -0.002 18.7709 -0.002 19.5109V25.5909C-0.002 26.3309 0.588 26.6709 1.228 26.2809L6.088 23.3009C6.698 22.9109 6.708 22.1909 6.088 21.8109ZM10.378 20.3609C9.228 20.3609 8.658 20.9209 8.658 22.0709V23.0909C8.658 24.2109 9.228 24.7909 10.378 24.7909H34.468C35.618 24.7909 36.188 24.2109 36.188 23.0909V22.0709C36.188 20.9209 35.618 20.3609 34.468 20.3609Z"
        fillRule="evenodd"
        clipRule="evenodd"
    />
</svg>
        