
<svg
    viewBox="0 0 20.37109375 22.791015625"
    xmlns="http://www.w3.org/2000/svg"
>
    <path
        fill="inherit"
        d="M19.3737 11.4323C19.9737 11.4323 20.3737 11.0323 20.3737 10.4623V1.1123C20.3737 0.4223 19.9637 0.0023 19.2937 0.0023C18.6937 0.0023 18.3937 0.2323 17.9937 0.5023L15.8037 2.0123C15.4037 2.2723 15.2537 2.5123 15.2537 2.8023C15.2537 3.2723 15.6037 3.6123 16.0237 3.6123C16.2937 3.6123 16.4637 3.5323 16.7337 3.3323L18.3337 2.2723H18.3737V10.4623C18.3737 11.0323 18.7837 11.4323 19.3737 11.4323ZM1.1437 22.7923C1.8737 22.7923 2.2237 22.5223 2.4837 21.7523L4.2537 16.9223H12.3137L14.0837 21.7523C14.3437 22.5223 14.6937 22.7923 15.4037 22.7923C16.1337 22.7923 16.5937 22.3523 16.5937 21.6723C16.5937 21.4423 16.5537 21.2223 16.4437 20.9323L10.0337 3.8523C9.7237 3.0223 9.1637 2.6023 8.2837 2.6023C7.4337 2.6023 6.8637 3.0123 6.5637 3.8423L0.1537 20.9423C0.0437 21.2323 0.0037 21.4523 0.0037 21.6823C0.0037 22.3623 0.4337 22.7923 1.1437 22.7923ZM4.9237 14.8523L8.2437 5.6423H8.3137L11.6337 14.8523Z"
        fillRule="evenodd"
        clipRule="evenodd"
    />
</svg>
        