
<svg
    viewBox={0 0 45.828125 28.642578125}
    xmlns="http://www.w3.org/2000/svg"
>
    <path
        fill="inherit"
        d="M1.287 20.0972C1.787 20.0972 2.297 19.7972 2.557 19.0872L4.337 14.2072H12.487L14.247 19.0872C14.517 19.8072 14.997 20.0972 15.507 20.0972C16.087 20.0972 16.667 19.6572 16.667 19.0072C16.667 18.7672 16.607 18.5772 16.517 18.2772L10.087 1.2172C9.787 0.3972 9.257 -0.0028 8.407 -0.0028C7.557 -0.0028 7.037 0.3972 6.737 1.2072L0.317 18.2972C0.217 18.5972 0.177 18.7872 0.177 19.0172C0.177 19.6872 0.707 20.0972 1.287 20.0972ZM19.767 20.0972C20.417 20.0972 20.907 19.6472 20.907 18.9372V17.0472H20.947C21.707 18.9172 23.477 20.1072 25.687 20.1072C29.337 20.1072 31.747 17.2172 31.747 12.7572C31.747 8.2872 29.327 5.3872 25.717 5.3872C23.557 5.3872 21.777 6.5672 20.997 8.4372H20.957V1.6672C20.957 0.9172 20.497 0.4372 19.807 0.4372C19.127 0.4372 18.647 0.9172 18.647 1.6672V18.9372C18.647 19.6572 19.097 20.0972 19.767 20.0972ZM4.947 12.2472L8.317 2.9372H8.477L11.837 12.2472ZM39.917 20.1072C42.537 20.1072 44.787 18.6572 45.557 16.6272C45.647 16.3972 45.687 16.1572 45.687 15.9672C45.687 15.3772 45.257 14.9672 44.677 14.9672C44.177 14.9672 43.897 15.1772 43.587 15.7672C42.907 17.2672 41.727 18.0972 39.937 18.0972C37.347 18.0972 35.687 16.0772 35.687 12.7572C35.687 9.4572 37.367 7.3972 39.937 7.3972C41.627 7.3972 42.857 8.1872 43.557 9.7572C43.847 10.3272 44.147 10.5172 44.637 10.5172C45.227 10.5172 45.637 10.1172 45.637 9.5472C45.637 9.3672 45.607 9.1572 45.557 8.9872C44.867 6.9172 42.587 5.3872 39.877 5.3872C35.907 5.3872 33.307 8.3172 33.307 12.7672C33.307 17.2572 35.927 20.1072 39.917 20.1072ZM25.207 18.0972C22.727 18.0972 20.977 15.9972 20.977 12.7572C20.977 9.5172 22.727 7.4072 25.207 7.4072C27.767 7.4072 29.357 9.4572 29.357 12.7572C29.357 16.0672 27.757 18.0972 25.207 18.0972ZM1.667 28.6472C2.587 28.6472 3.327 27.9072 3.327 26.9872C3.327 26.0772 2.587 25.3172 1.667 25.3172C0.737 25.3172 -0.003 26.0772 -0.003 26.9872C-0.003 27.9072 0.737 28.6472 1.667 28.6472ZM8.747 28.6472C9.667 28.6472 10.417 27.9072 10.417 26.9872C10.417 26.0772 9.667 25.3172 8.747 25.3172C7.837 25.3172 7.097 26.0772 7.097 26.9872C7.097 27.9072 7.837 28.6472 8.747 28.6472ZM15.847 28.6472C16.757 28.6472 17.497 27.9072 17.497 26.9872C17.497 26.0772 16.757 25.3172 15.847 25.3172C14.927 25.3172 14.177 26.0772 14.177 26.9872C14.177 27.9072 14.927 28.6472 15.847 28.6472ZM22.927 28.6472C23.847 28.6472 24.597 27.9072 24.597 26.9872C24.597 26.0772 23.847 25.3172 22.927 25.3172C22.007 25.3172 21.277 26.0772 21.277 26.9872C21.277 27.9072 22.007 28.6472 22.927 28.6472ZM30.027 28.6472C30.937 28.6472 31.677 27.9072 31.677 26.9872C31.677 26.0772 30.937 25.3172 30.027 25.3172C29.107 25.3172 28.357 26.0772 28.357 26.9872C28.357 27.9072 29.107 28.6472 30.027 28.6472ZM37.107 28.6472C38.017 28.6472 38.777 27.9072 38.777 26.9872C38.777 26.0772 38.017 25.3172 37.107 25.3172C36.187 25.3172 35.447 26.0772 35.447 26.9872C35.447 27.9072 36.187 28.6472 37.107 28.6472ZM44.177 28.6472C45.087 28.6472 45.827 27.9072 45.827 26.9872C45.827 26.0772 45.087 25.3172 44.177 25.3172C43.257 25.3172 42.507 26.0772 42.507 26.9872C42.507 27.9072 43.257 28.6472 44.177 28.6472Z"
        fillRule="evenodd"
        clipRule="evenodd"
    />
</svg>
        