
<svg
    viewBox={0 0 46.5168632595366 30.71362248926494}
    xmlns="http://www.w3.org/2000/svg"
>
    <path
        fill="inherit"
        d="M1.4237 20.0972C1.9237 20.0972 2.4337 19.7972 2.6837 19.0872L4.4537 14.2072H12.6037L14.3837 19.0872C14.6437 19.8072 15.1337 20.0972 15.6437 20.0972C16.2237 20.0972 16.7937 19.6572 16.7937 19.0072C16.7937 18.7672 16.7437 18.5772 16.6437 18.2772L10.2237 1.2172C9.9237 0.3972 9.3937 -0.0028 8.5337 -0.0028C7.6937 -0.0028 7.1637 0.3972 6.8637 1.2072L0.4537 18.2972C0.3437 18.5972 0.3037 18.7872 0.3037 19.0172C0.3037 19.6872 0.8337 20.0972 1.4237 20.0972ZM19.9037 20.0972C20.5537 20.0972 21.0437 19.6472 21.0437 18.9372V17.0472H21.0637C21.8337 18.9172 23.6137 20.1072 25.8237 20.1072C29.4637 20.1072 31.8737 17.2172 31.8737 12.7572C31.8737 8.2872 29.4537 5.3872 25.8537 5.3872C23.6937 5.3872 21.9137 6.5672 21.1237 8.4372H21.0937V1.6672C21.0937 0.9172 20.6337 0.4372 19.9337 0.4372C19.2637 0.4372 18.7837 0.9172 18.7837 1.6672V18.9372C18.7837 19.6572 19.2337 20.0972 19.9037 20.0972ZM5.0837 12.2472L8.4537 2.9372H8.6037L11.9637 12.2472ZM40.0437 20.1072C42.6537 20.1072 44.9137 18.6572 45.6937 16.6272C45.7837 16.3972 45.8137 16.1572 45.8137 15.9672C45.8137 15.3772 45.3737 14.9672 44.8037 14.9672C44.2937 14.9672 44.0237 15.1772 43.7137 15.7672C43.0237 17.2672 41.8537 18.0972 40.0537 18.0972C37.4837 18.0972 35.8037 16.0772 35.8037 12.7572C35.8037 9.4572 37.4837 7.3972 40.0537 7.3972C41.7637 7.3972 42.9837 8.1872 43.6837 9.7572C43.9837 10.3272 44.2737 10.5172 44.7637 10.5172C45.3537 10.5172 45.7737 10.1172 45.7737 9.5472C45.7737 9.3672 45.7337 9.1572 45.6737 8.9872C44.9937 6.9172 42.7137 5.3872 40.0037 5.3872C36.0437 5.3872 33.4437 8.3172 33.4437 12.7672C33.4437 17.2572 36.0637 20.1072 40.0437 20.1072ZM25.3337 18.0972C22.8637 18.0972 21.0937 15.9972 21.0937 12.7572C21.0937 9.5172 22.8637 7.4072 25.3337 7.4072C27.8937 7.4072 29.4937 9.4572 29.4937 12.7572C29.4937 16.0672 27.8937 18.0972 25.3337 18.0972ZM0.3737 27.6972L4.0337 30.4372C4.7737 30.9772 5.7037 30.6972 5.7037 29.7072V27.7772H40.8237V29.7072C40.8237 30.6672 41.7237 31.0072 42.4937 30.4372L46.1437 27.6972C46.6437 27.3172 46.6337 26.6072 46.1437 26.2472L42.4937 23.5272C41.7237 22.9572 40.8237 23.2972 40.8237 24.2372V26.1972H5.7037V24.2372C5.7037 23.2972 4.8137 22.9572 4.0337 23.5272L0.3737 26.2472C-0.1263 26.6172 -0.1263 27.3172 0.3737 27.6972Z"
        fillRule="evenodd"
        clipRule="evenodd"
    />
</svg>
        