
<svg
    viewBox="0 0 27.548828125 23.666015625"
    xmlns="http://www.w3.org/2000/svg"
>
    <path
        fill="inherit"
        d="M1.0937 2.2009H16.3237C16.9437 2.2009 17.4337 1.7209 17.4337 1.1109C17.4337 0.4909 16.9437 0.0009 16.3237 0.0009H1.0937C0.4737 0.0009 0.0037 0.4909 0.0037 1.1109C0.0037 1.7209 0.4737 2.2009 1.0937 2.2009ZM20.5537 2.2009H26.4237C27.0437 2.2009 27.5537 1.7209 27.5537 1.1109C27.5537 0.4909 27.0437 0.0009 26.4237 0.0009H20.5537C19.9337 0.0009 19.4537 0.4909 19.4537 1.1109C19.4537 1.7209 19.9337 2.2009 20.5537 2.2009ZM1.0937 9.3609H4.1137C4.7437 9.3609 5.2337 8.8709 5.2337 8.2609C5.2337 7.6409 4.7437 7.1609 4.1137 7.1609H1.0937C0.4737 7.1609 0.0037 7.6409 0.0037 8.2609C0.0037 8.8709 0.4737 9.3609 1.0937 9.3609ZM8.3537 9.3609H15.2737C15.9037 9.3609 16.3937 8.8709 16.3937 8.2609C16.3937 7.6409 15.9037 7.1609 15.2737 7.1609H8.3537C7.7337 7.1609 7.2637 7.6409 7.2637 8.2609C7.2637 8.8709 7.7337 9.3609 8.3537 9.3609ZM19.5137 9.3609H26.4237C27.0437 9.3609 27.5537 8.8709 27.5537 8.2609C27.5537 7.6409 27.0437 7.1609 26.4237 7.1609H19.5137C18.8937 7.1609 18.4037 7.6409 18.4037 8.2609C18.4037 8.8709 18.8937 9.3609 19.5137 9.3609ZM1.1037 16.4709H6.9837C7.6037 16.4709 8.0937 16.0009 8.0937 15.3809C8.0937 14.7509 7.6037 14.2709 6.9837 14.2709H1.1037C0.4937 14.2709 0.0037 14.7509 0.0037 15.3809C0.0037 16.0009 0.4937 16.4709 1.1037 16.4709ZM11.2237 16.4709H26.4437C27.0537 16.4709 27.5537 16.0009 27.5537 15.3809C27.5537 14.7509 27.0537 14.2709 26.4437 14.2709H11.2237C10.5937 14.2709 10.1037 14.7509 10.1037 15.3809C10.1037 16.0009 10.5937 16.4709 11.2237 16.4709ZM1.0937 23.6709H15.5837C16.2037 23.6709 16.6937 23.1909 16.6937 22.5709C16.6937 21.9609 16.2037 21.4609 15.5837 21.4609H1.0937C0.4737 21.4609 0.0037 21.9609 0.0037 22.5709C0.0037 23.1909 0.4737 23.6709 1.0937 23.6709Z"
        fillRule="evenodd"
        clipRule="evenodd"
    />
</svg>
        