
<svg
    viewBox={0 0 22.99609375 29.3125}
    xmlns="http://www.w3.org/2000/svg"
>
    <path
        fill="inherit"
        d="M0.0037 25.0373C0.0037 27.8873 1.4037 29.3173 4.2337 29.3173H18.7537C21.5837 29.3173 22.9937 27.8873 22.9937 25.0373V4.2973C22.9937 1.4473 21.5837 -0.0027 18.7537 -0.0027H4.2337C1.4037 -0.0027 0.0037 1.4473 0.0037 4.2973ZM6.1537 7.7273C5.6437 7.7273 5.2737 7.3273 5.2737 6.8373C5.2737 6.3573 5.6437 5.9873 6.1537 5.9873H16.8537C17.3537 5.9873 17.7237 6.3573 17.7237 6.8373C17.7237 7.3273 17.3537 7.7273 16.8537 7.7273ZM6.1537 12.6473C5.6437 12.6473 5.2737 12.2473 5.2737 11.7573C5.2737 11.2773 5.6437 10.9073 6.1537 10.9073H16.8537C17.3537 10.9073 17.7237 11.2773 17.7237 11.7573C17.7237 12.2473 17.3537 12.6473 16.8537 12.6473ZM6.1537 17.5673C5.6437 17.5673 5.2737 17.1873 5.2737 16.7073C5.2737 16.2173 5.6437 15.8273 6.1537 15.8273H11.2137C11.7337 15.8273 12.0837 16.2173 12.0837 16.7073C12.0837 17.1873 11.7337 17.5673 11.2137 17.5673Z"
        fillRule="evenodd"
        clipRule="evenodd"
    />
</svg>
        