
<svg
    viewBox={0 0 24.30859375 23.65234375}
    xmlns="http://www.w3.org/2000/svg"
>
    <path
        fill="inherit"
        d="M1.1437 20.1946C1.8737 20.1946 2.2237 19.9246 2.4837 19.1546L4.2537 14.3246H12.3137L14.0837 19.1546C14.3437 19.9246 14.6937 20.1946 15.4037 20.1946C16.1337 20.1946 16.5937 19.7546 16.5937 19.0746C16.5937 18.8446 16.5537 18.6246 16.4437 18.3346L10.0337 1.2546C9.7237 0.4246 9.1637 0.0046 8.2837 0.0046C7.4337 0.0046 6.8637 0.4146 6.5637 1.2446L0.1537 18.3446C0.0437 18.6346 0.0037 18.8546 0.0037 19.0846C0.0037 19.7646 0.4337 20.1946 1.1437 20.1946ZM4.9237 12.2546L8.2437 3.0446H8.3137L11.6337 12.2546ZM23.2937 23.6546C23.9137 23.6546 24.3037 23.2546 24.3037 22.6846V13.3346C24.3037 12.6446 23.8837 12.2346 23.2137 12.2346C22.6137 12.2346 22.3137 12.4546 21.9137 12.7446L19.7237 14.2346C19.3437 14.5046 19.1837 14.7346 19.1837 15.0346C19.1837 15.4946 19.5237 15.8346 19.9437 15.8346C20.2237 15.8346 20.3937 15.7546 20.6737 15.5546L22.2537 14.4946H22.3037V22.6846C22.3037 23.2546 22.7137 23.6546 23.2937 23.6546Z"
        fillRule="evenodd"
        clipRule="evenodd"
    />
</svg>
        