
<svg
    viewBox="0 0 32.52837625872015 33.87631770328255"
    xmlns="http://www.w3.org/2000/svg"
>
    <path
        fill="inherit"
        d="M2.4835 16.6318C3.8035 21.5818 6.9335 24.3818 11.1135 24.5718C11.4335 23.7518 11.8835 22.8518 12.6735 22.1418C13.3035 21.3318 14.1135 20.7118 15.0235 20.3318C15.1335 19.3718 15.3935 18.4418 15.7235 17.6818C15.1035 18.1818 14.3035 18.6018 13.3835 18.8418C11.0335 19.4418 8.6235 18.7518 7.3135 16.6718C7.0035 16.1618 7.3435 15.7118 7.9435 15.7918C9.7335 16.0018 11.4535 15.5918 12.4935 15.2918C13.4635 15.0118 15.1335 14.5118 16.5335 13.5118C17.0635 13.1118 17.5635 13.3318 17.5535 13.9318C17.5435 14.4318 17.4835 14.8618 17.3635 15.2518C18.4735 13.8518 20.0335 11.9218 21.6435 10.0918L19.6735 2.8018C19.0335 0.4718 17.4135 -0.4382 15.0235 0.1918L2.8735 3.4318C0.4935 4.0618 -0.4365 5.6518 0.1935 8.0318ZM28.3835 5.7618C27.6335 6.4118 22.9235 10.9418 19.2935 15.7918C22.4935 16.2218 25.2935 18.1618 26.7935 21.0718C30.0735 15.7618 31.9535 9.7118 32.3035 8.7218C33.3435 5.8318 30.5135 3.9518 28.3835 5.7618ZM14.7135 9.1818C13.8035 9.3918 13.6735 10.0118 13.2735 10.1218C13.0035 10.1918 12.7235 9.9518 12.5935 9.4818C12.2635 8.3518 12.9735 7.2118 14.1235 6.9118C15.2435 6.6018 16.4235 7.2518 16.7035 8.3818C16.8435 8.8318 16.7235 9.1918 16.4335 9.2618C16.0635 9.3518 15.6135 8.9218 14.7135 9.1818ZM7.2035 11.2018C6.3135 11.4418 6.1635 12.0318 5.7835 12.1618C5.5135 12.2218 5.2335 11.9818 5.1035 11.4918C4.7835 10.3818 5.4735 9.2318 6.6335 8.9318C7.7235 8.6018 8.9235 9.2618 9.2135 10.4118C9.3335 10.8818 9.2235 11.2118 8.9235 11.2918C8.5535 11.3918 8.1035 10.9818 7.2035 11.2018ZM20.4635 22.1118C21.6135 22.9218 22.5835 24.0918 22.9535 25.1318C24.0235 24.7518 24.8235 24.0618 25.5235 23.0718C25.6435 22.8918 25.7835 22.7018 25.8935 22.5118C24.7335 19.3618 21.5435 17.1718 18.2535 17.1518C18.1035 17.3218 17.9535 17.5318 17.8135 17.7318C17.1335 18.7318 16.7735 19.7618 16.7935 20.8218C17.8735 20.8118 19.3135 21.3018 20.4635 22.1118ZM9.3135 31.6218C12.1235 34.4518 17.2935 34.6918 20.0935 31.9118C22.4935 29.5318 22.5735 26.4718 20.3035 24.1918C18.2635 22.1418 15.1935 22.0018 13.4935 23.7218C11.5435 25.7018 12.8335 27.7318 11.6335 28.9418C10.6235 29.9718 9.7235 29.6018 9.1735 30.1318C8.7735 30.5018 8.7535 31.0618 9.3135 31.6218Z"
        fillRule="evenodd"
        clipRule="evenodd"
    />
</svg>
        