<svg viewBox="0 0 46.16432036006834 30.735443027680216" xmlns="http://www.w3.org/2000/svg"><path d="M16.5151 26.7153C18.7751 26.0953 20.5951 25.1153 21.9451 23.7953C23.0651 26.9453 25.7151 29.1753 29.6551 30.2353C36.3851 32.0253 41.4951 28.9153 43.3851 21.8853L45.9551 12.3253C46.6351 9.7453 45.6651 8.0653 43.0251 7.3553L29.4951 3.7253C26.8651 3.0353 25.2151 3.9753 24.5051 6.5853L23.5551 10.0453L21.6751 3.0453C20.9751 0.4653 19.2951 -0.4847 16.6651 0.2253L3.1151 3.8253C0.4751 4.5253 -0.4749 6.1753 0.2251 8.8053L2.7651 18.3753C4.6351 25.3953 9.7451 28.5053 16.5151 26.7153ZM15.9251 24.5353C10.5551 25.9453 6.4851 23.4453 4.9651 17.7853L2.4251 8.3053C2.0951 7.0953 2.5351 6.3253 3.7351 5.9853L17.2151 2.3753C18.4151 2.0453 19.2151 2.5153 19.5251 3.7453L22.0551 13.2153C23.5751 18.8953 21.3051 23.1053 15.9251 24.5353ZM30.2151 28.0653C26.4851 27.0353 24.2151 24.6653 23.7651 21.3253C24.7051 19.4553 25.0251 17.1953 24.6651 14.6553L26.6451 7.2553C26.9751 6.0353 27.7451 5.5853 28.9451 5.9153L42.4251 9.5153C43.6451 9.8453 44.0651 10.6153 43.7351 11.8653L41.1951 21.3253C39.6951 26.9953 35.6151 29.4853 30.2151 28.0653ZM16.5951 10.8253C17.5851 10.5653 18.0451 11.0253 18.4751 10.9353C18.7751 10.8553 18.8951 10.4653 18.7551 9.9753C18.4551 8.7653 17.1751 8.0353 15.9751 8.3953C14.7251 8.6953 13.9751 9.9653 14.3151 11.1553C14.4651 11.6553 14.7551 11.9353 15.0551 11.8553C15.4651 11.7253 15.6251 11.0853 16.5951 10.8253ZM8.5051 13.0253C9.4851 12.7653 9.9651 13.2153 10.3751 13.1253C10.6651 13.0553 10.8051 12.6753 10.6651 12.1753C10.3651 10.9653 9.0651 10.2253 7.8651 10.5753C6.6351 10.8753 5.8851 12.1653 6.2251 13.3553C6.3751 13.8553 6.6751 14.1153 6.9651 14.0553C7.3751 13.9253 7.5351 13.2853 8.5051 13.0253ZM29.2151 15.8053C30.2251 16.0853 31.2651 15.4853 31.5551 14.4653C31.8251 13.4353 31.2251 12.3853 30.1851 12.0953C29.1951 11.8253 28.1351 12.4353 27.8551 13.4653C27.5951 14.4853 28.1951 15.5253 29.2151 15.8053ZM37.2451 17.9453C38.2551 18.2053 39.2951 17.6053 39.5851 16.5853C39.8551 15.5553 39.2551 14.5153 38.2251 14.2453C37.2051 13.9553 36.1651 14.5753 35.9051 15.5853C35.6151 16.6053 36.2151 17.6653 37.2451 17.9453ZM15.1951 21.7353C18.0751 20.9453 19.9251 18.7553 20.0151 16.0453C20.0351 15.3553 19.4451 15.0953 18.8551 15.5453C16.9951 16.8553 15.0251 17.3753 14.0951 17.6353C13.1551 17.8753 11.1951 18.4253 8.9051 18.2053C8.1751 18.1153 7.7851 18.6453 8.1651 19.2053C9.6151 21.5253 12.2951 22.4853 15.1951 21.7353ZM31.4851 23.1853C33.0051 23.5853 34.2251 24.2653 35.6451 25.5453C36.1751 26.0553 36.8851 25.7253 36.8451 25.0053C36.7651 22.5953 34.9751 20.6053 32.3451 19.9153C29.7251 19.2053 27.1851 20.0553 25.8951 22.0753C25.5151 22.6653 25.9651 23.3253 26.6851 23.1553C28.5051 22.7653 29.9851 22.7653 31.4851 23.1853Z" /></svg>