
<svg
    viewBox={0 0 32.668029820040616 33.918024815844895}
    xmlns="http://www.w3.org/2000/svg"
>
    <path
        fill="inherit"
        d="M2.4835 16.6318C3.9535 22.1418 7.6335 24.9818 12.5635 24.6018C12.0735 26.0618 12.5235 27.4518 11.7735 28.2618C10.8735 29.1918 9.8435 28.9418 9.2135 29.6418C8.7535 30.1818 8.6935 30.9818 9.4835 31.7218C12.6035 34.6618 18.0035 34.6618 20.8335 31.6518C22.4335 29.9718 22.9935 27.9518 22.4635 26.0918C23.7035 25.6218 24.7335 24.7118 25.7735 23.2318C29.3135 18.1418 32.1335 9.6318 32.4435 8.7218C33.4835 5.8118 30.7235 3.6718 28.2435 5.7618C27.7635 6.1818 24.9935 8.8518 22.1335 12.0618C22.0935 11.8418 22.0435 11.6218 21.9735 11.4018L19.6735 2.8018C19.0335 0.4718 17.4135 -0.4382 15.0235 0.1918L2.8735 3.4318C0.4935 4.0618 -0.4365 5.6518 0.1935 8.0318ZM4.6635 16.0518L2.3835 7.5218C2.1235 6.5218 2.4835 5.8418 3.4835 5.5818L15.5835 2.3318C16.5835 2.0718 17.2535 2.4618 17.5235 3.4918L19.8135 11.9918C20.0335 12.8018 20.1535 13.5818 20.2035 14.3018C19.3035 15.4018 18.4435 16.5218 17.6935 17.5818C16.6635 19.0618 16.1435 20.3318 16.1335 21.6718C15.7735 21.7318 15.4335 21.8118 15.1035 21.9618L15.0935 21.7918C14.7335 21.9318 14.5735 21.9718 14.3835 22.0318C9.5835 23.2818 6.0035 21.0818 4.6635 16.0518ZM29.6135 7.4918C30.0135 7.0718 30.5935 7.4718 30.3535 8.0318C30.1235 8.5518 27.9435 15.3818 24.9935 20.3618C24.0735 18.8318 22.3835 17.6218 20.6435 17.3018C24.2035 12.7318 29.1635 7.9618 29.6135 7.4918ZM15.0135 9.8318C15.8835 9.5918 16.3235 10.0118 16.6835 9.9118C16.9635 9.8518 17.0735 9.5018 16.9535 9.0718C16.6635 7.9618 15.5335 7.3418 14.4335 7.6318C13.3335 7.9318 12.6435 9.0418 12.9635 10.1218C13.0935 10.5818 13.3535 10.8218 13.6135 10.7518C14.0035 10.6418 14.1335 10.0518 15.0135 9.8318ZM7.7335 11.7918C8.6135 11.5818 9.0535 11.9818 9.4035 11.8818C9.6935 11.8118 9.8035 11.4918 9.6835 11.0218C9.4035 9.9118 8.2435 9.2718 7.1735 9.6018C6.0535 9.8918 5.3835 10.9918 5.6835 12.0718C5.8235 12.5518 6.0935 12.7818 6.3535 12.7218C6.7235 12.6118 6.8735 12.0318 7.7335 11.7918ZM13.6535 19.1718C16.0535 18.5118 17.5935 16.7118 17.6635 14.4518C17.6735 13.8818 17.2135 13.6718 16.6935 14.0418C15.3535 15.0018 13.7535 15.4918 12.8135 15.7518C11.8135 16.0418 10.1735 16.4318 8.4535 16.2618C7.8635 16.1818 7.5235 16.6118 7.8335 17.0918C9.0235 18.9918 11.2835 19.8118 13.6535 19.1718ZM20.7535 23.3918C19.9835 22.6718 19.1535 22.1618 18.3235 21.8918C18.2835 21.0318 18.6235 20.1118 19.3735 19.0218C21.0035 18.9418 23.3535 20.5618 23.8335 22.1518C23.0135 23.3018 22.2735 23.8618 21.4235 24.1218C21.2335 23.8718 21.0035 23.6318 20.7535 23.3918ZM12.2135 31.0418C11.9935 30.8718 11.9735 30.6818 12.0735 30.5318C12.2335 30.3318 12.9835 30.1518 13.4635 29.4618C14.5335 27.9318 13.7635 26.1318 15.0635 24.6718C16.1435 23.4618 17.9335 23.5218 19.3735 24.8318C21.0135 26.3118 20.9035 28.4718 19.3335 30.1918C17.5935 32.1418 14.4535 32.6818 12.2135 31.0418Z"
        fillRule="evenodd"
        clipRule="evenodd"
    />
</svg>
        