<svg viewBox="0 0 27.890625 27.890625" xmlns="http://www.w3.org/2000/svg"><path d="M13.9427 27.8927C21.6427 27.8927 27.8927 21.6427 27.8927 13.9427C27.8927 6.2627 21.6427 0.0027 13.9427 0.0027C6.2627 0.0027 0.0027 6.2627 0.0027 13.9427C0.0027 21.6427 6.2627 27.8927 13.9427 27.8927ZM17.8427 8.5427C16.9427 8.5427 16.2027 7.8027 16.2027 6.9027C16.2027 5.9927 16.9427 5.2627 17.8427 5.2627C18.7627 5.2627 19.4827 5.9927 19.4827 6.9027C19.4827 7.8027 18.7627 8.5427 17.8427 8.5427ZM10.2827 22.4227C8.0927 22.4227 6.3427 20.6727 6.3427 18.5027C6.3427 17.3527 6.8127 16.3427 7.7127 15.5327C7.8727 15.4127 7.9027 15.3227 7.9027 15.1227V8.2327C7.9027 6.6827 8.8627 5.6327 10.2827 5.6327C11.6927 5.6327 12.6727 6.6827 12.6727 8.2327L12.6627 15.1227C12.6627 15.3227 12.6827 15.4127 12.8227 15.5327C13.7227 16.3427 14.2027 17.3527 14.2027 18.5027C14.2027 20.6727 12.4527 22.4227 10.2827 22.4227ZM10.2827 21.2627C11.8027 21.2627 13.0327 20.0327 13.0327 18.5027C13.0327 17.5727 12.6027 16.7527 11.8127 16.2327C11.5627 16.0627 11.4827 15.9027 11.4827 15.5827V8.2727C11.4827 7.3927 11.0027 6.8227 10.2827 6.8227C9.5327 6.8227 9.0527 7.3927 9.0527 8.2727V15.5827C9.0527 15.9027 8.9727 16.0627 8.7227 16.2327C7.9427 16.7527 7.5227 17.5727 7.5227 18.5027C7.5227 20.0327 8.7327 21.2627 10.2827 21.2627ZM10.2827 8.8427C9.9627 8.8427 9.7327 8.6027 9.7327 8.2827C9.7327 8.0027 9.9627 7.7527 10.2827 7.7527C10.5827 7.7527 10.8127 8.0027 10.8127 8.2827C10.8127 8.6027 10.5827 8.8427 10.2827 8.8427ZM18.8227 22.0427C18.4127 22.0427 18.1027 21.7227 18.1027 21.3027V15.9727C18.1027 15.8227 17.9827 15.7227 17.8427 15.7227C17.7027 15.7227 17.5827 15.8227 17.5827 15.9727V21.3027C17.5827 21.7227 17.2827 22.0427 16.8527 22.0427C16.4427 22.0427 16.1227 21.7227 16.1227 21.3027V12.5227C16.1227 12.3827 16.0227 12.2727 15.8727 12.2727C15.7527 12.2727 15.6227 12.3827 15.6227 12.5227V15.4127C15.6227 15.7727 15.3227 16.0927 14.9527 16.0927C14.6127 16.0927 14.3027 15.7727 14.3027 15.4127V12.1727C14.3027 10.5127 15.5327 9.4027 17.3127 9.4027H18.3927C20.1627 9.4027 21.3927 10.5127 21.3927 12.1727V15.4127C21.3927 15.7727 21.0827 16.0927 20.7127 16.0927C20.3727 16.0927 20.0527 15.7727 20.0527 15.4127V12.5227C20.0527 12.3827 19.9327 12.2727 19.8127 12.2727C19.6727 12.2727 19.5627 12.3827 19.5627 12.5227V21.3027C19.5627 21.7227 19.2327 22.0427 18.8227 22.0427ZM10.2827 10.7327C9.9627 10.7327 9.7327 10.4827 9.7327 10.1827C9.7327 9.8827 9.9627 9.6527 10.2827 9.6527C10.5827 9.6527 10.8127 9.8827 10.8127 10.1827C10.8127 10.4827 10.5827 10.7327 10.2827 10.7327ZM10.2827 12.6227C9.9627 12.6227 9.7327 12.3627 9.7327 12.0427C9.7327 11.7727 9.9627 11.5127 10.2827 11.5127C10.5827 11.5127 10.8127 11.7727 10.8127 12.0427C10.8127 12.3627 10.5827 12.6227 10.2827 12.6227ZM10.2627 20.3327C9.2527 20.3327 8.4327 19.5127 8.4327 18.4827C8.4327 17.7727 8.8327 17.1727 9.4027 16.8827C9.6527 16.7327 9.7327 16.6627 9.7327 16.3127V13.9427C9.7327 13.6627 9.9627 13.4127 10.2827 13.4127C10.5827 13.4127 10.8127 13.6627 10.8127 13.9427V16.3127C10.8127 16.6627 10.8827 16.7527 11.1127 16.8827C11.7027 17.2027 12.1127 17.7727 12.1127 18.4827C12.1127 19.4927 11.2927 20.3327 10.2627 20.3327Z" /></svg>