
<svg
    viewBox="0 0 27.890625 27.890625"
    xmlns="http://www.w3.org/2000/svg"
>
    <path
        fill="inherit"
        d="M13.9427 27.8864C21.6427 27.8864 27.8927 21.6464 27.8927 13.9464C27.8927 6.2464 21.6427 -0.0036 13.9427 -0.0036C6.2527 -0.0036 0.0027 6.2464 0.0027 13.9464C0.0027 21.6464 6.2527 27.8864 13.9427 27.8864ZM13.9427 25.5664C7.5227 25.5664 2.3227 20.3664 2.3227 13.9464C2.3227 7.5164 7.5227 2.3264 13.9427 2.3264C20.3727 2.3264 25.5627 7.5164 25.5627 13.9464C25.5627 20.3664 20.3727 25.5664 13.9427 25.5664ZM17.7027 8.7064C18.5927 8.7064 19.3027 7.9864 19.3027 7.0964C19.3027 6.2164 18.5927 5.5064 17.7027 5.5064C16.8327 5.5064 16.1227 6.2164 16.1227 7.0964C16.1227 7.9864 16.8327 8.7064 17.7027 8.7064ZM10.3727 22.1464C12.4827 22.1464 14.1827 20.4564 14.1827 18.3564C14.1827 17.2564 13.7127 16.2664 12.8427 15.4864C12.7027 15.3664 12.6727 15.2864 12.6727 15.0764L12.6827 8.3964C12.6827 6.9064 11.7427 5.8764 10.3727 5.8764C8.9927 5.8764 8.0627 6.9064 8.0627 8.3964V15.0764C8.0627 15.2864 8.0427 15.3664 7.8927 15.4864C7.0127 16.2664 6.5627 17.2564 6.5627 18.3564C6.5627 20.4564 8.2627 22.1464 10.3727 22.1464ZM10.3727 21.0364C8.8727 21.0364 7.6927 19.8564 7.6927 18.3564C7.6927 17.4564 8.1027 16.6564 8.8627 16.1464C9.1027 15.9964 9.1827 15.8464 9.1827 15.5264V8.4364C9.1827 7.5764 9.6527 7.0264 10.3727 7.0264C11.0727 7.0264 11.5427 7.5764 11.5427 8.4364V15.5264C11.5427 15.8464 11.6227 15.9964 11.8627 16.1464C12.6327 16.6564 13.0427 17.4564 13.0427 18.3564C13.0427 19.8564 11.8527 21.0364 10.3727 21.0364ZM10.3727 8.9864C10.6627 8.9864 10.8927 8.7464 10.8927 8.4464C10.8927 8.1664 10.6627 7.9264 10.3727 7.9264C10.0727 7.9264 9.8427 8.1664 9.8427 8.4464C9.8427 8.7464 10.0727 8.9864 10.3727 8.9864ZM18.6627 21.7964C19.0627 21.7964 19.3827 21.4964 19.3827 21.0664V12.5664C19.3827 12.4264 19.4827 12.3064 19.6227 12.3064C19.7327 12.3064 19.8527 12.4264 19.8527 12.5664V15.3664C19.8527 15.7264 20.1527 16.0064 20.4927 16.0064C20.8527 16.0064 21.1527 15.7264 21.1527 15.3664V12.2064C21.1527 10.6064 19.9627 9.5464 18.2427 9.5464H17.1827C15.4627 9.5464 14.2727 10.6064 14.2727 12.2064V15.3664C14.2727 15.7264 14.5727 16.0064 14.9127 16.0064C15.2727 16.0064 15.5627 15.7264 15.5627 15.3664V12.5664C15.5627 12.4264 15.6827 12.3064 15.8027 12.3064C15.9427 12.3064 16.0327 12.4264 16.0327 12.5664V21.0664C16.0327 21.4964 16.3527 21.7964 16.7527 21.7964C17.1627 21.7964 17.4627 21.4964 17.4627 21.0664V15.8964C17.4627 15.7664 17.5727 15.6564 17.7027 15.6564C17.8427 15.6564 17.9627 15.7664 17.9627 15.8964V21.0664C17.9627 21.4964 18.2627 21.7964 18.6627 21.7964ZM10.3727 10.8264C10.6627 10.8264 10.8927 10.5864 10.8927 10.2964C10.8927 10.0064 10.6627 9.7664 10.3727 9.7664C10.0727 9.7664 9.8427 10.0064 9.8427 10.2964C9.8427 10.5864 10.0727 10.8264 10.3727 10.8264ZM10.3727 12.6564C10.6627 12.6564 10.8927 12.4164 10.8927 12.1164C10.8927 11.8364 10.6627 11.5964 10.3727 11.5964C10.0727 11.5964 9.8427 11.8364 9.8427 12.1164C9.8427 12.4164 10.0727 12.6564 10.3727 12.6564ZM10.3627 20.1364C11.3627 20.1364 12.1527 19.3364 12.1527 18.3464C12.1527 17.6664 11.7627 17.0864 11.1827 16.7764C10.9627 16.6664 10.8927 16.5664 10.8927 16.2464V13.9564C10.8927 13.6764 10.6627 13.4264 10.3727 13.4264C10.0727 13.4264 9.8427 13.6764 9.8427 13.9564V16.2464C9.8427 16.5664 9.7627 16.6564 9.5327 16.7764C8.9727 17.0764 8.5827 17.6664 8.5827 18.3464C8.5827 19.3464 9.3827 20.1364 10.3627 20.1364Z"
        fillRule="evenodd"
        clipRule="evenodd"
    />
</svg>
        