
<svg
    viewBox="0 0 39.01953125 26.66015625"
    xmlns="http://www.w3.org/2000/svg"
>
    <path
        fill="inherit"
        d="M19.5127 26.6612C26.8827 26.6612 32.8527 20.6812 32.8527 13.3312C32.8527 5.9612 26.8827 0.0012 19.5127 0.0012C12.1527 0.0012 6.1827 5.9612 6.1827 13.3312C6.1827 20.6812 12.1527 26.6612 19.5127 26.6612ZM39.0227 13.3312C39.0227 8.9912 37.6227 5.0012 35.2327 1.7612C34.8127 1.1912 34.0827 1.1212 33.5327 1.5612C33.0327 1.9812 32.9927 2.6512 33.3727 3.1712C35.4627 6.0312 36.6827 9.5312 36.6827 13.3312C36.6827 17.1212 35.4627 20.6312 33.3727 23.4612C32.9927 24.0112 33.0427 24.6612 33.5327 25.0912C34.0827 25.5212 34.8127 25.4712 35.2327 24.8812C37.6227 21.6412 39.0227 17.6612 39.0227 13.3312ZM0.0027 13.3312C0.0027 17.6612 1.4127 21.6412 3.7827 24.8812C4.2127 25.4712 4.9327 25.5212 5.4827 25.0912C5.9727 24.6612 6.0427 24.0112 5.6427 23.4612C3.5727 20.6312 2.3427 17.1212 2.3427 13.3312C2.3427 9.5312 3.5727 6.0312 5.6427 3.1712C6.0427 2.6512 5.9927 1.9812 5.4827 1.5612C4.9327 1.1212 4.2127 1.1912 3.7827 1.7612C1.4127 5.0012 0.0027 8.9912 0.0027 13.3312ZM19.5127 24.3312C13.4427 24.3312 8.5027 19.4012 8.5027 13.3312C8.5027 7.2412 13.4427 2.3112 19.5127 2.3112C25.5927 2.3112 30.5327 7.2412 30.5327 13.3312C30.5327 19.4012 25.5927 24.3312 19.5127 24.3312ZM18.9927 20.7312C20.7227 20.7312 22.1327 19.3312 22.1327 17.5712C22.1327 16.3512 21.4327 15.3512 20.4427 14.8112C20.1227 14.6412 20.0027 14.4412 20.0027 13.9312V7.3312C20.0027 6.7712 19.5527 6.3012 18.9927 6.3012C18.4127 6.3012 17.9627 6.7712 17.9627 7.3312V13.9312C17.9627 14.4412 17.8527 14.6412 17.5227 14.8112C16.5327 15.3512 15.8427 16.3512 15.8427 17.5712C15.8427 19.3312 17.2427 20.7312 18.9927 20.7312ZM22.2827 9.1512H24.7827C25.1527 9.1512 25.4527 8.8412 25.4527 8.4612C25.4527 8.0912 25.1527 7.7912 24.7827 7.7912H22.2827C21.9127 7.7912 21.6027 8.0912 21.6027 8.4612C21.6027 8.8412 21.9127 9.1512 22.2827 9.1512ZM22.2827 11.5712H24.7827C25.1527 11.5712 25.4527 11.2512 25.4527 10.8812C25.4527 10.5112 25.1527 10.2112 24.7827 10.2112H22.2827C21.9127 10.2112 21.6027 10.5112 21.6027 10.8812C21.6027 11.2512 21.9127 11.5712 22.2827 11.5712ZM22.2827 14.0012H24.7827C25.1527 14.0012 25.4527 13.6812 25.4527 13.3012C25.4527 12.9512 25.1527 12.6512 24.7827 12.6512H22.2827C21.9127 12.6512 21.6027 12.9512 21.6027 13.3012C21.6027 13.6812 21.9127 14.0012 22.2827 14.0012Z"
        fillRule="evenodd"
        clipRule="evenodd"
    />
</svg>
        