
<svg
    viewBox="0 0 28.73828125 30.994140625"
    xmlns="http://www.w3.org/2000/svg"
>
    <path
        fill="inherit"
        d="M14.3737 24.815C16.8837 24.815 18.8937 22.805 18.8937 20.285C18.8937 18.535 17.8937 17.145 16.5737 16.405C16.0737 16.135 15.8637 15.735 15.8637 15.025V1.475C15.8637 0.665 15.1937 -0.005 14.3837 -0.005C13.5637 -0.005 12.9037 0.665 12.9037 1.475V15.025C12.9037 15.705 12.6637 16.095 12.1537 16.375C10.8437 17.115 9.8537 18.535 9.8537 20.285C9.8537 22.805 11.8637 24.815 14.3737 24.815ZM19.5737 2.965H22.5437C23.0237 2.965 23.3537 2.595 23.3537 2.175C23.3537 1.745 23.0237 1.365 22.5437 1.365H19.5737C19.1037 1.365 18.7737 1.745 18.7737 2.175C18.7737 2.595 19.1037 2.965 19.5737 2.965ZM19.5737 6.805H22.5437C23.0237 6.805 23.3537 6.425 23.3537 6.005C23.3537 5.575 23.0237 5.205 22.5437 5.205H19.5737C19.1037 5.205 18.7737 5.575 18.7737 6.005C18.7737 6.425 19.1037 6.805 19.5737 6.805ZM19.5737 10.635H22.5437C23.0237 10.635 23.3537 10.265 23.3537 9.845C23.3537 9.415 23.0237 9.055 22.5437 9.055H19.5737C19.1037 9.055 18.7737 9.415 18.7737 9.845C18.7737 10.265 19.1037 10.635 19.5737 10.635ZM19.5737 14.475H22.5437C23.0237 14.475 23.3537 14.105 23.3537 13.685C23.3537 13.265 23.0237 12.895 22.5437 12.895H19.5737C19.1037 12.895 18.7737 13.265 18.7737 13.685C18.7737 14.105 19.1037 14.475 19.5737 14.475ZM0.0037 23.895C0.0037 24.435 0.4237 24.855 0.9737 24.855H1.0437C5.2937 24.855 5.6637 22.085 7.8737 22.085C8.0237 22.085 8.1637 22.125 8.2737 22.185C8.1037 21.665 8.0537 21.025 8.0537 20.245C7.9337 20.205 7.8037 20.165 7.6737 20.165C6.2437 20.165 5.2137 20.985 4.3637 21.585C3.3337 22.325 2.5037 22.925 1.0437 22.925H0.9737C0.4237 22.925 0.0037 23.365 0.0037 23.895ZM28.7337 23.895C28.7337 23.365 28.3037 22.925 27.7637 22.925H27.7037C26.2237 22.925 25.4037 22.325 24.3737 21.585C23.5337 20.985 22.4937 20.165 21.0937 20.165C20.9637 20.165 20.8337 20.205 20.7437 20.245C20.7937 20.685 20.6437 21.665 20.4637 22.185C20.5737 22.125 20.7137 22.085 20.8737 22.085C23.0737 22.105 23.4437 24.855 27.7037 24.855H27.7637C28.3037 24.855 28.7337 24.435 28.7337 23.895ZM0.0037 30.035C0.0037 30.575 0.4237 30.995 0.9737 30.995H1.0437C5.2937 30.995 5.6637 28.215 7.8737 28.215C10.0537 28.215 10.6337 30.995 14.3737 30.995C18.0837 30.995 18.6937 28.215 20.8637 28.215C23.0737 28.215 23.4337 30.995 27.7037 30.995H27.7637C28.3037 30.995 28.7337 30.575 28.7337 30.035C28.7337 29.505 28.3037 29.065 27.7637 29.065H27.7037C26.2237 29.065 25.4037 28.465 24.3737 27.725C23.4837 27.085 22.3837 26.295 20.8637 26.295C19.2937 26.295 18.1737 27.135 17.2837 27.795C16.3337 28.515 15.5837 29.065 14.3737 29.065C13.1437 29.065 12.4037 28.515 11.4537 27.795C10.5637 27.135 9.4437 26.295 7.8737 26.295C6.3537 26.295 5.2537 27.085 4.3637 27.725C3.3337 28.465 2.5037 29.065 1.0437 29.065H0.9737C0.4237 29.065 0.0037 29.505 0.0037 30.035Z"
        fillRule="evenodd"
        clipRule="evenodd"
    />
</svg>
        