
<svg
    viewBox={0 0 28.73828125 32.607421875}
    xmlns="http://www.w3.org/2000/svg"
>
    <path
        fill="inherit"
        d="M7.56 17.1083C8 17.1083 8.31 16.7883 8.31 16.3283V14.8183L9.49 15.4883C9.9 15.7083 10.29 15.6283 10.51 15.2583C10.71 14.9183 10.58 14.4883 10.2 14.2583L8.31 13.2083V12.2483L8.16 9.6083L10.4 11.0483L11.03 11.4283V9.7183L8.75 8.5583L11.03 7.3983V5.6883L10.4 6.0583L8.16 7.4883L8.31 4.8683V3.9083L10.2 2.8583C10.58 2.6283 10.71 2.1983 10.51 1.8583C10.29 1.4883 9.9 1.3983 9.49 1.6283L8.31 2.2983V0.7883C8.31 0.3183 8 -0.0017 7.56 -0.0017C7.14 -0.0017 6.82 0.3283 6.82 0.7883V2.3083L5.63 1.6283C5.21 1.4083 4.83 1.4883 4.61 1.8583C4.42 2.1983 4.55 2.6283 4.92 2.8483L6.82 3.9083V4.8683L6.97 7.4883L4.74 6.0683L3.91 5.5783L3.92 3.4183C3.92 2.9783 3.64 2.6383 3.24 2.6383C2.8 2.6383 2.54 2.9483 2.54 3.4183L2.53 4.7883L1.22 4.0183C0.82 3.7883 0.38 3.9083 0.16 4.2783C-0.05 4.6783 0.07 5.0983 0.46 5.3283L1.78 6.0683L0.62 6.7583C0.21 6.9983 0.07 7.3683 0.27 7.7683C0.48 8.1083 0.93 8.1983 1.31 7.9883L3.17 6.8883L3.99 7.3683L6.37 8.5583L3.99 9.7383L3.17 10.2283L1.31 9.1283C0.93 8.9183 0.48 8.9983 0.29 9.3383C0.08 9.7183 0.19 10.1083 0.62 10.3483L1.78 11.0283L0.46 11.7883C0.07 12.0183 -0.04 12.4383 0.16 12.8383C0.4 13.2183 0.82 13.3183 1.22 13.0883L2.53 12.3283L2.54 13.6983C2.54 14.1683 2.8 14.4683 3.24 14.4683C3.64 14.4683 3.92 14.1383 3.92 13.6983L3.91 11.5283L4.74 11.0483L6.97 9.6083L6.82 12.2483V13.2083L4.92 14.2583C4.55 14.4883 4.42 14.9183 4.61 15.2583C4.83 15.6283 5.21 15.6983 5.63 15.4883L6.82 14.8083V16.3283C6.82 16.7783 7.14 17.1083 7.56 17.1083ZM14.37 26.4283C16.88 26.4283 18.89 24.4183 18.89 21.8983C18.89 20.1483 17.9 18.7583 16.57 18.0183C16.08 17.7483 15.86 17.3483 15.86 16.6383V3.0883C15.86 2.2783 15.19 1.6083 14.38 1.6083C13.56 1.6083 12.91 2.2783 12.91 3.0883V16.6383C12.91 17.3183 12.66 17.7083 12.15 17.9883C10.84 18.7283 9.86 20.1483 9.86 21.8983C9.86 24.4183 11.87 26.4283 14.37 26.4283ZM19.58 4.5783H22.54C23.02 4.5783 23.35 4.2083 23.35 3.7883C23.35 3.3583 23.02 2.9783 22.54 2.9783H19.58C19.1 2.9783 18.77 3.3583 18.77 3.7883C18.77 4.2083 19.1 4.5783 19.58 4.5783ZM19.58 8.4183H22.54C23.02 8.4183 23.35 8.0383 23.35 7.6183C23.35 7.1883 23.02 6.8183 22.54 6.8183H19.58C19.1 6.8183 18.77 7.1883 18.77 7.6183C18.77 8.0383 19.1 8.4183 19.58 8.4183ZM19.58 12.2483H22.54C23.02 12.2483 23.35 11.8783 23.35 11.4583C23.35 11.0283 23.02 10.6683 22.54 10.6683H19.58C19.1 10.6683 18.77 11.0283 18.77 11.4583C18.77 11.8783 19.1 12.2483 19.58 12.2483ZM19.58 16.0883H22.54C23.02 16.0883 23.35 15.7183 23.35 15.2983C23.35 14.8783 23.02 14.5083 22.54 14.5083H19.58C19.1 14.5083 18.77 14.8783 18.77 15.2983C18.77 15.7183 19.1 16.0883 19.58 16.0883ZM0 25.5083C0 26.0483 0.42 26.4683 0.97 26.4683H1.04C5.29 26.4683 5.66 23.6983 7.88 23.6983C8.03 23.6983 8.16 23.7383 8.27 23.7983C8.11 23.2783 8.05 22.6383 8.05 21.8583C7.93 21.8183 7.81 21.7783 7.67 21.7783C6.25 21.7783 5.21 22.5983 4.36 23.1983C3.34 23.9383 2.5 24.5383 1.04 24.5383H0.97C0.42 24.5383 0 24.9783 0 25.5083ZM28.74 25.5083C28.74 24.9783 28.3 24.5383 27.77 24.5383H27.7C26.22 24.5383 25.4 23.9383 24.38 23.1983C23.53 22.5983 22.49 21.7783 21.1 21.7783C20.96 21.7783 20.84 21.8183 20.74 21.8583C20.79 22.2983 20.64 23.2783 20.47 23.7983C20.58 23.7383 20.71 23.6983 20.88 23.6983C23.08 23.7183 23.45 26.4683 27.7 26.4683H27.77C28.3 26.4683 28.74 26.0483 28.74 25.5083ZM0 31.6483C0 32.1883 0.42 32.6083 0.97 32.6083H1.04C5.29 32.6083 5.66 29.8283 7.88 29.8283C10.05 29.8283 10.64 32.6083 14.37 32.6083C18.09 32.6083 18.69 29.8283 20.86 29.8283C23.08 29.8283 23.43 32.6083 27.7 32.6083H27.77C28.3 32.6083 28.74 32.1883 28.74 31.6483C28.74 31.1183 28.3 30.6783 27.77 30.6783H27.7C26.22 30.6783 25.4 30.0783 24.38 29.3383C23.49 28.6983 22.38 27.9083 20.86 27.9083C19.29 27.9083 18.17 28.7483 17.28 29.4083C16.34 30.1283 15.59 30.6783 14.37 30.6783C13.14 30.6783 12.4 30.1283 11.46 29.4083C10.57 28.7483 9.45 27.9083 7.88 27.9083C6.36 27.9083 5.25 28.6983 4.36 29.3383C3.34 30.0783 2.5 30.6783 1.04 30.6783H0.97C0.42 30.6783 0 31.1183 0 31.6483Z"
        fillRule="evenodd"
        clipRule="evenodd"
    />
</svg>
        