
<svg
    viewBox="0 0 17.787109375 30.37890625"
    xmlns="http://www.w3.org/2000/svg"
>
    <path
        fill="inherit"
        d="M7.1637 30.3742C11.1037 30.3742 14.2837 27.1842 14.2837 23.2442C14.2837 21.1642 13.4437 19.3442 11.8037 17.8642C11.5137 17.6142 11.4437 17.4442 11.4437 17.0342V4.6742C11.4437 1.9042 9.7037 0.0042 7.1637 0.0042C4.5937 0.0042 2.8437 1.9042 2.8437 4.6742V17.0342C2.8437 17.4442 2.7937 17.6142 2.4837 17.8642C0.8637 19.3442 0.0037 21.1642 0.0037 23.2442C0.0037 27.1842 3.2037 30.3742 7.1637 30.3742ZM7.1637 28.3942C4.3037 28.3942 2.0137 26.0742 2.0137 23.2442C2.0137 21.5342 2.8137 19.9842 4.2637 19.0142C4.6937 18.7342 4.8537 18.4742 4.8537 17.9142V4.7542C4.8537 3.1142 5.7937 2.0142 7.1637 2.0142C8.5037 2.0142 9.4437 3.1142 9.4437 4.7542V17.9142C9.4437 18.4742 9.6137 18.7342 10.0337 19.0142C11.4837 19.9842 12.2937 21.5342 12.2937 23.2442C12.2937 26.0742 9.9837 28.3942 7.1637 28.3942ZM14.0137 5.0142H16.9837C17.4637 5.0142 17.7837 4.6442 17.7837 4.2242C17.7837 3.8042 17.4637 3.4342 16.9837 3.4342H14.0137C13.5337 3.4342 13.2037 3.8042 13.2037 4.2242C13.2037 4.6442 13.5337 5.0142 14.0137 5.0142ZM14.0137 8.8642H16.9837C17.4637 8.8642 17.7837 8.4942 17.7837 8.0642C17.7837 7.6442 17.4637 7.2742 16.9837 7.2742H14.0137C13.5337 7.2742 13.2037 7.6442 13.2037 8.0642C13.2037 8.4942 13.5337 8.8642 14.0137 8.8642ZM14.0137 12.7042H16.9837C17.4637 12.7042 17.7837 12.3342 17.7837 11.9042C17.7837 11.4842 17.4637 11.1042 16.9837 11.1042H14.0137C13.5337 11.1042 13.2037 11.4842 13.2037 11.9042C13.2037 12.3342 13.5337 12.7042 14.0137 12.7042ZM14.0137 16.5442H16.9837C17.4637 16.5442 17.7837 16.1742 17.7837 15.7542C17.7837 15.3142 17.4637 14.9442 16.9837 14.9442H14.0137C13.5337 14.9442 13.2037 15.3142 13.2037 15.7542C13.2037 16.1742 13.5337 16.5442 14.0137 16.5442ZM7.1537 26.5542C8.9837 26.5542 10.4637 25.0742 10.4637 23.2242C10.4637 21.9442 9.7337 20.8942 8.6837 20.3142C8.2437 20.0842 8.0937 19.9242 8.0937 19.2542V16.7242C8.0937 16.0642 7.6737 15.6442 7.1537 15.6442C6.6137 15.6442 6.2037 16.0642 6.2037 16.7242V19.2542C6.2037 19.9242 6.0537 20.0842 5.6237 20.3142C4.5637 20.8942 3.8437 21.9442 3.8437 23.2242C3.8437 25.0742 5.3137 26.5542 7.1537 26.5542Z"
        fillRule="evenodd"
        clipRule="evenodd"
    />
</svg>
        