
<svg
    viewBox="0 0 27.890625 27.890625"
    xmlns="http://www.w3.org/2000/svg"
>
    <path
        fill="inherit"
        d="M13.9427 27.8864C21.6427 27.8864 27.8927 21.6464 27.8927 13.9464C27.8927 6.2464 21.6427 -0.0036 13.9427 -0.0036C6.2527 -0.0036 0.0027 6.2464 0.0027 13.9464C0.0027 21.6464 6.2527 27.8864 13.9427 27.8864ZM13.9427 25.5664C7.5227 25.5664 2.3227 20.3664 2.3227 13.9464C2.3227 7.5164 7.5227 2.3264 13.9427 2.3264C20.3727 2.3264 25.5627 7.5164 25.5627 13.9464C25.5627 20.3664 20.3727 25.5664 13.9427 25.5664ZM14.8227 7.2764C15.2327 7.2764 15.5327 6.9364 15.5327 6.5664V4.9864C15.5327 4.6064 15.2327 4.2964 14.8227 4.2964C14.4227 4.2964 14.1127 4.6064 14.1127 4.9864V6.5664C14.1127 6.9464 14.4227 7.2764 14.8227 7.2764ZM18.0927 8.6264C18.3427 8.8964 18.8227 8.8964 19.1027 8.6264L20.1927 7.5164C20.4527 7.2464 20.4627 6.7764 20.1827 6.5064C19.9027 6.2364 19.4727 6.2364 19.2127 6.5064L18.0927 7.6264C17.8027 7.9064 17.8127 8.3564 18.0927 8.6264ZM11.3927 23.0264C13.4927 23.0264 15.1927 21.3264 15.1927 19.2364C15.1927 18.1264 14.7227 17.1464 13.8527 16.3664C13.7127 16.2464 13.6827 16.1564 13.6827 15.9564L13.7027 9.4164C13.7027 7.9264 12.7527 6.9064 11.3927 6.9064C10.0127 6.9064 9.0827 7.9264 9.0827 9.4164V15.9564C9.0827 16.1564 9.0527 16.2464 8.8827 16.3664C8.0227 17.1464 7.5727 18.1264 7.5727 19.2364C7.5727 21.3264 9.2727 23.0264 11.3927 23.0264ZM11.3927 21.9164C9.8827 21.9164 8.7127 20.7264 8.7127 19.2364C8.7127 18.3364 9.1227 17.5264 9.8727 17.0264C10.1127 16.8664 10.2027 16.7164 10.2027 16.4064V9.4564C10.2027 8.5964 10.6627 8.0564 11.3927 8.0564C12.0827 8.0564 12.5527 8.5964 12.5527 9.4564V16.4064C12.5527 16.7164 12.6327 16.8664 12.8827 17.0264C13.6327 17.5264 14.0527 18.3364 14.0527 19.2364C14.0527 20.7264 12.8527 21.9164 11.3927 21.9164ZM14.6927 15.4764C16.7627 15.5464 18.4327 13.9564 18.4327 11.8964C18.4327 9.8664 16.8327 8.2764 14.8227 8.2764C14.7227 8.2764 14.6327 8.2764 14.5327 8.2964C14.6527 8.6564 14.7127 9.0264 14.7127 9.4164ZM11.3727 21.0164C12.3727 21.0164 13.1627 20.2064 13.1627 19.2264C13.1627 18.5364 12.7727 17.9664 12.1927 17.6464C11.9727 17.5364 11.9127 17.4464 11.9127 17.1164V10.0764C11.9127 9.7064 11.6727 9.4764 11.3727 9.4764C11.0727 9.4764 10.8527 9.7064 10.8527 10.0764V17.1164C10.8527 17.4464 10.7827 17.5364 10.5427 17.6464C9.9927 17.9664 9.5927 18.5364 9.5927 19.2264C9.5927 20.2164 10.3927 21.0164 11.3727 21.0164ZM20.1227 12.5964H21.6827C22.0827 12.5964 22.3927 12.2464 22.3927 11.8964C22.3927 11.4964 22.0827 11.1664 21.6827 11.1664H20.1227C19.7427 11.1664 19.4327 11.4964 19.4327 11.8964C19.4327 12.2464 19.7427 12.5964 20.1227 12.5964ZM19.2127 17.2664C19.4727 17.5264 19.9027 17.5364 20.1827 17.2664C20.4627 16.9964 20.4627 16.5164 20.1927 16.2664L19.0827 15.1464C18.8127 14.8764 18.3627 14.8764 18.0927 15.1464C17.8127 15.4264 17.8027 15.8864 18.0927 16.1464Z"
        fillRule="evenodd"
        clipRule="evenodd"
    />
</svg>
        