
<svg
    viewBox={0 0 25.45676934452139 31.47265625}
    xmlns="http://www.w3.org/2000/svg"
>
    <path
        fill="inherit"
        d="M24.9937 14.598L23.1337 13.538L24.7837 12.578C25.1437 12.378 25.2837 11.958 25.0837 11.618C24.8837 11.248 24.4637 11.198 24.0737 11.418L21.7537 12.738L17.6737 10.428L21.7937 8.108L24.1137 9.448C24.4837 9.668 24.8937 9.598 25.1337 9.238C25.3037 8.888 25.1737 8.478 24.8237 8.288L23.1737 7.328L25.0037 6.288C25.4337 6.038 25.5837 5.618 25.3437 5.218C25.1437 4.838 24.6737 4.758 24.3037 4.978L22.4537 6.058V4.168C22.4537 3.748 22.1637 3.428 21.7837 3.428C21.3437 3.428 21.0837 3.748 21.0837 4.208L21.0637 6.868L16.9937 9.258L17.0337 4.498L19.3437 3.158C19.7237 2.928 19.8837 2.538 19.6737 2.178C19.4737 1.828 19.0537 1.748 18.7037 1.958L17.0537 2.908L17.0637 0.838C17.0637 0.368 16.7737 -0.002 16.3237 -0.002C15.8637 -0.002 15.5837 0.368 15.5837 0.838L15.6037 2.908L13.9437 1.958C13.5937 1.748 13.1637 1.828 12.9737 2.178C12.7737 2.538 12.9237 2.928 13.3037 3.158L15.6137 4.498L15.6537 9.258L13.0537 7.728V9.338L14.9537 10.428L13.0537 11.508V13.138L15.6537 11.608L15.6137 16.338L13.5237 17.538C13.6837 17.908 14.0437 18.358 14.3837 18.618L15.6037 17.928L15.5837 20.028C15.5837 20.508 15.8637 20.868 16.3237 20.868C16.7737 20.868 17.0637 20.498 17.0637 20.028L17.0537 17.938L18.6937 18.878C19.0437 19.088 19.4537 19.008 19.6637 18.658C19.8837 18.288 19.7137 17.908 19.3337 17.678L17.0337 16.338L16.9937 11.608L21.0437 13.988V16.648C21.0437 17.078 21.3137 17.408 21.7337 17.418C22.1237 17.418 22.4037 17.078 22.4037 16.698L22.4237 14.788L24.2537 15.878C24.6637 16.108 25.1137 16.048 25.3437 15.658C25.5837 15.258 25.4037 14.818 24.9937 14.598ZM7.1637 31.468C11.1037 31.468 14.2837 28.278 14.2837 24.338C14.2837 22.258 13.4437 20.438 11.8037 18.958C11.5137 18.708 11.4437 18.538 11.4437 18.128L11.4537 5.768C11.4537 2.998 9.7037 1.098 7.1637 1.098C4.5937 1.098 2.8337 2.998 2.8337 5.768L2.8437 18.128C2.8437 18.538 2.7937 18.708 2.4837 18.958C0.8637 20.438 0.0037 22.258 0.0037 24.338C0.0037 28.278 3.2037 31.468 7.1637 31.468ZM7.1637 29.488C4.3037 29.488 2.0137 27.168 2.0137 24.338C2.0137 22.628 2.8137 21.078 4.2637 20.108C4.6937 19.828 4.8537 19.568 4.8537 19.008V5.848C4.8537 4.208 5.7937 3.108 7.1637 3.108C8.5037 3.108 9.4437 4.208 9.4437 5.848V19.008C9.4437 19.568 9.6137 19.828 10.0337 20.108C11.4837 21.078 12.2937 22.628 12.2937 24.338C12.2937 27.168 9.9837 29.488 7.1637 29.488ZM7.1537 27.648C8.9837 27.648 10.4637 26.168 10.4637 24.318C10.4637 23.038 9.7337 21.988 8.6837 21.408C8.2437 21.178 8.0937 21.018 8.0937 20.348V17.608C8.0937 16.958 7.6737 16.528 7.1537 16.528C6.6137 16.528 6.2037 16.958 6.2037 17.608V20.348C6.2037 21.018 6.0537 21.178 5.6237 21.408C4.5637 21.988 3.8437 23.038 3.8437 24.318C3.8437 26.168 5.3137 27.648 7.1537 27.648Z"
        fillRule="evenodd"
        clipRule="evenodd"
    />
</svg>
        