
<svg
    viewBox={0 0 28.4375 30.802734375}
    xmlns="http://www.w3.org/2000/svg"
>
    <path
        fill="inherit"
        d="M21.9937 5.958C23.6437 5.958 24.9637 4.638 24.9637 2.978C24.9637 1.328 23.6437 -0.002 21.9937 -0.002C20.3437 -0.002 19.0137 1.328 19.0137 2.978C19.0137 4.638 20.3437 5.958 21.9937 5.958ZM7.1637 30.798C11.0837 30.798 14.2837 27.608 14.2837 23.668C14.2837 21.588 13.4437 19.768 11.8037 18.288C11.4937 18.038 11.4437 17.868 11.4437 17.458V5.098C11.4437 2.328 9.7037 0.428 7.1637 0.428C4.5937 0.428 2.8437 2.328 2.8437 5.098V17.458C2.8437 17.868 2.7937 18.038 2.4837 18.288C0.8437 19.768 0.0037 21.588 0.0037 23.668C0.0037 27.608 3.2037 30.798 7.1637 30.798ZM7.1637 28.818C4.3037 28.818 1.9937 26.498 1.9937 23.668C1.9937 21.958 2.8137 20.408 4.2637 19.438C4.6937 19.158 4.8537 18.898 4.8537 18.338V5.178C4.8537 3.538 5.7837 2.438 7.1637 2.438C8.5037 2.438 9.4337 3.538 9.4337 5.178V18.338C9.4337 18.898 9.5937 19.158 10.0237 19.438C11.4737 20.408 12.2937 21.958 12.2937 23.668C12.2937 26.498 9.9837 28.818 7.1637 28.818ZM7.1537 6.128C7.6537 6.128 8.0837 5.698 8.0837 5.178C8.0837 4.658 7.6537 4.238 7.1537 4.238C6.6337 4.238 6.2037 4.658 6.2037 5.178C6.2037 5.698 6.6337 6.128 7.1537 6.128ZM7.1537 9.378C7.6537 9.378 8.0837 8.958 8.0837 8.438C8.0837 7.918 7.6537 7.488 7.1537 7.488C6.6337 7.488 6.2037 7.918 6.2037 8.438C6.2037 8.958 6.6337 9.378 7.1537 9.378ZM15.5537 18.428C15.5537 19.118 16.0937 19.648 16.7637 19.648C17.4437 19.648 17.9737 19.118 17.9737 18.428V13.168C17.9737 12.918 18.1737 12.728 18.4337 12.728C18.6737 12.728 18.8637 12.918 18.8637 13.168V29.108C18.8637 29.848 19.4537 30.438 20.2037 30.438C20.9437 30.438 21.5337 29.848 21.5337 29.108V19.418C21.5337 19.168 21.7537 18.948 21.9937 18.948C22.2437 18.948 22.4537 19.168 22.4537 19.418V29.108C22.4537 29.848 23.0337 30.438 23.7937 30.438C24.5237 30.438 25.1137 29.848 25.1137 29.108V13.168C25.1137 12.918 25.3237 12.728 25.5637 12.728C25.8137 12.728 26.0037 12.918 26.0037 13.168V18.428C26.0037 19.118 26.5537 19.648 27.2237 19.648C27.8937 19.648 28.4337 19.118 28.4337 18.428V12.548C28.4337 9.528 26.2237 7.538 22.9837 7.538H21.0037C17.7637 7.538 15.5537 9.528 15.5537 12.548ZM7.1537 12.648C7.6537 12.648 8.0837 12.218 8.0837 11.708C8.0837 11.188 7.6537 10.758 7.1537 10.758C6.6337 10.758 6.2037 11.188 6.2037 11.708C6.2037 12.218 6.6337 12.648 7.1537 12.648ZM7.1537 26.978C8.9737 26.978 10.4437 25.498 10.4437 23.648C10.4437 22.368 9.7337 21.318 8.6837 20.738C8.2337 20.508 8.0837 20.348 8.0837 19.678V14.958C8.0837 14.438 7.6537 14.018 7.1537 14.018C6.6337 14.018 6.2037 14.438 6.2037 14.958V19.678C6.2037 20.348 6.0537 20.508 5.6037 20.738C4.5537 21.318 3.8437 22.368 3.8437 23.648C3.8437 25.498 5.3137 26.978 7.1537 26.978Z"
        fillRule="evenodd"
        clipRule="evenodd"
    />
</svg>
        