
<svg
    viewBox={0 0 27.890625 27.890625}
    xmlns="http://www.w3.org/2000/svg"
>
    <path
        fill="inherit"
        d="M13.9427 27.8927C21.6427 27.8927 27.8927 21.6427 27.8927 13.9427C27.8927 6.2627 21.6427 0.0027 13.9427 0.0027C6.2627 0.0027 0.0027 6.2627 0.0027 13.9427C0.0027 21.6427 6.2627 27.8927 13.9427 27.8927ZM16.6827 17.0327C16.3627 17.0327 16.1427 16.7627 16.1427 16.4427V15.3927L15.5627 15.7627C15.3127 15.5827 15.0027 15.2427 14.9427 14.9727L16.1627 14.2627L16.1827 11.7627L14.7227 12.6327V11.4327L15.6927 10.8927L14.7227 10.3527C14.7127 9.9227 14.6827 9.5127 14.6427 9.1027L16.1827 10.0227L16.1627 7.5227L14.8727 6.7627C14.6127 6.6027 14.5027 6.3327 14.6527 6.0727C14.7927 5.8127 15.0927 5.7427 15.3627 5.9027L16.1427 6.3527V5.3427C16.1427 5.0127 16.3627 4.7627 16.6827 4.7627C17.0127 4.7627 17.2127 5.0127 17.2127 5.3427L17.2027 6.3527L17.9927 5.9027C18.2627 5.7527 18.5827 5.7927 18.7127 6.0727C18.8427 6.3327 18.7727 6.6027 18.4727 6.7627L17.2027 7.5227L17.1727 10.0227L19.3227 8.7627L19.3327 7.3027C19.3327 6.9727 19.5327 6.7427 19.8427 6.7427C20.1227 6.7427 20.3127 6.9727 20.3127 7.2627V8.1627L21.2327 7.6427C21.5027 7.4827 21.8327 7.5627 22.0027 7.8327C22.1627 8.1027 22.0527 8.4127 21.7627 8.5827L20.8627 9.0927L21.6327 9.5727C21.8727 9.7227 22.0127 10.0127 21.8427 10.2527C21.6927 10.5227 21.3927 10.5527 21.1227 10.3927L19.8427 9.6827L17.6627 10.8927L19.8227 12.1027L21.1127 11.3727C21.3727 11.2227 21.6727 11.2827 21.8327 11.5527C21.9727 11.7727 21.8627 12.0627 21.6127 12.2127L20.8327 12.6727L21.7527 13.2227C22.0227 13.3827 22.1627 13.6727 22.0027 13.9727C21.8327 14.2427 21.5027 14.2727 21.2027 14.1227L20.3027 13.5927L20.2927 14.5027C20.2927 14.7927 20.0927 15.0527 19.8127 15.0527C19.5127 15.0427 19.3027 14.8027 19.3027 14.4827V13.0127L17.1727 11.7627L17.2027 14.2627L18.4727 15.0027C18.7327 15.1627 18.8527 15.4327 18.7027 15.7227C18.5627 15.9727 18.2627 16.0227 17.9927 15.8627L17.2027 15.4127L17.2127 16.4427C17.2127 16.7527 17.0127 17.0327 16.6827 17.0327ZM11.2927 23.3127C9.1027 23.3127 7.3527 21.5627 7.3527 19.3827C7.3527 18.2527 7.8227 17.2227 8.7127 16.4327C8.8727 16.2927 8.9027 16.2127 8.9027 16.0227V9.2727C8.9027 7.7427 9.8527 6.6727 11.2927 6.6727C12.7027 6.6727 13.6727 7.7427 13.6727 9.2727L13.6627 16.0227C13.6627 16.2127 13.6827 16.2927 13.8227 16.4327C14.7227 17.2227 15.2027 18.2527 15.2027 19.3827C15.2027 21.5627 13.4527 23.3127 11.2927 23.3127ZM11.2927 22.1527C12.7927 22.1527 14.0427 20.9327 14.0427 19.3827C14.0427 18.4527 13.6027 17.6327 12.8227 17.1127C12.5627 16.9527 12.4827 16.8027 12.4827 16.4727V9.3127C12.4827 8.4327 12.0027 7.8627 11.2927 7.8627C10.5427 7.8627 10.0627 8.4327 10.0627 9.3127V16.4727C10.0627 16.8027 9.9827 16.9527 9.7227 17.1127C8.9527 17.6327 8.5327 18.4527 8.5327 19.3827C8.5327 20.9327 9.7327 22.1527 11.2927 22.1527ZM11.2827 21.2227C10.2527 21.2227 9.4427 20.4027 9.4427 19.3727C9.4427 18.6727 9.8527 18.0927 10.4227 17.7727C10.6627 17.6527 10.7327 17.5527 10.7327 17.2127V15.7727C10.7327 15.3927 10.9627 15.1527 11.2827 15.1527C11.5827 15.1527 11.8227 15.3927 11.8227 15.7727V17.2127C11.8227 17.5527 11.8927 17.6527 12.1127 17.7727C12.7027 18.1027 13.1127 18.6727 13.1127 19.3727C13.1127 20.3827 12.3027 21.2227 11.2827 21.2227Z"
        fillRule="evenodd"
        clipRule="evenodd"
    />
</svg>
        