
<svg
    viewBox="0 0 33.810546875 23.666015625"
    xmlns="http://www.w3.org/2000/svg"
>
    <path
        fill="inherit"
        d="M0.0037 18.1409C0.0037 18.7709 0.2437 19.1709 0.7937 19.4309C2.3137 20.1809 3.1537 21.0409 4.1037 22.9009C4.3937 23.4109 4.8137 23.6709 5.3737 23.6709H28.4337C28.9837 23.6709 29.4037 23.4109 29.6937 22.9009C30.6437 21.0409 31.4837 20.1809 33.0137 19.4309C33.5637 19.1709 33.8137 18.7709 33.8137 18.1409V5.5409C33.8137 4.8909 33.5637 4.5009 33.0137 4.2509C31.4837 3.5009 30.6437 2.6209 29.6937 0.7809C29.4037 0.2609 28.9837 0.0009 28.4337 0.0009H5.3737C4.8137 0.0009 4.3937 0.2609 4.1037 0.7809C3.1537 2.6209 2.3137 3.5009 0.7937 4.2509C0.2437 4.5009 0.0037 4.8909 0.0037 5.5409ZM2.2037 17.8309V5.8509C3.8537 5.1709 4.9237 4.0609 5.7837 2.2009H28.0237C28.8737 4.0609 29.9537 5.1709 31.6137 5.8509V17.8309C29.9537 18.5109 28.8737 19.6209 28.0237 21.4609H5.7837C4.9237 19.6209 3.8537 18.5109 2.2037 17.8309ZM5.9637 17.8809C5.9637 18.6109 6.4537 19.0809 7.1637 19.0809H26.6337C27.3537 19.0809 27.8337 18.6109 27.8337 17.8809V5.8009C27.8337 5.0809 27.3537 4.5909 26.6337 4.5909H7.1637C6.4537 4.5909 5.9637 5.0809 5.9637 5.8009ZM7.6137 8.8909V6.5509C7.6137 6.3609 7.7237 6.2509 7.9337 6.2509H9.4237V8.8909ZM24.3937 8.8909V6.2509H25.8837C26.0837 6.2509 26.1837 6.3609 26.1837 6.5509V8.8909ZM11.0737 17.4309V6.2509H22.7337V17.4309ZM7.6137 13.1509V10.5409H9.4237V13.1509ZM24.3937 13.1509V10.5409H26.1837V13.1509ZM7.6137 17.1309V14.8109H9.4237V17.4309H7.9337C7.7237 17.4309 7.6137 17.3309 7.6137 17.1309ZM24.3937 17.4309V14.8109H26.1837V17.1309C26.1837 17.3309 26.0837 17.4309 25.8837 17.4309Z"
        fillRule="evenodd"
        clipRule="evenodd"
    />
</svg>
        