
<svg
    viewBox="0 0 47.017578125 25.169921875"
    xmlns="http://www.w3.org/2000/svg"
>
    <path
        fill="inherit"
        d="M13.2237 25.1655H33.8137C36.6837 25.1655 38.1037 23.7455 38.1037 20.9355V4.2355C38.1037 1.4255 36.6837 -0.0045 33.8137 -0.0045H13.2237C10.3637 -0.0045 8.9237 1.4055 8.9237 4.2355V20.9355C8.9237 23.7655 10.3637 25.1655 13.2237 25.1655ZM15.6237 22.9655V2.2055H31.4037V22.9655ZM11.4537 16.9555V8.2155C11.4537 7.7655 11.8237 7.3955 12.2737 7.3955C12.7237 7.3955 13.1137 7.7655 13.1137 8.2155V16.9555C13.1137 17.4055 12.7237 17.7755 12.2737 17.7755C11.8237 17.7755 11.4537 17.4055 11.4537 16.9555ZM33.9337 16.9555V8.2155C33.9337 7.7655 34.3037 7.3955 34.7537 7.3955C35.2037 7.3955 35.5837 7.7655 35.5837 8.2155V16.9555C35.5837 17.4055 35.2037 17.7755 34.7537 17.7755C34.3037 17.7755 33.9337 17.4055 33.9337 16.9555ZM0.0037 15.6155C0.0037 16.3555 0.6037 16.6655 1.2437 16.2655L6.0937 13.3155C6.7137 12.9355 6.7037 12.2055 6.0937 11.8355L1.2337 8.8555C0.5837 8.4655 0.0037 8.8055 0.0037 9.5255ZM47.0137 15.6155V9.5255C47.0137 8.8055 46.4337 8.4655 45.7837 8.8555L40.9337 11.8355C40.3137 12.2055 40.3037 12.9355 40.9337 13.3155L45.7837 16.2655C46.4337 16.6655 47.0137 16.3555 47.0137 15.6155Z"
        fillRule="evenodd"
        clipRule="evenodd"
    />
</svg>
        