
<svg
    viewBox={0 0 30.830078125 30.830078125}
    xmlns="http://www.w3.org/2000/svg"
>
    <path
        fill="inherit"
        d="M15.4127 -0.0044C14.9527 -0.0044 14.6027 0.3656 14.6027 0.8156V5.8956C14.6027 6.3556 14.9527 6.7156 15.4127 6.7156C15.8727 6.7156 16.2327 6.3556 16.2327 5.8956V0.8156C16.2327 0.3656 15.8727 -0.0044 15.4127 -0.0044ZM11.3727 0.3656C10.9227 0.4656 10.6827 0.8656 10.8127 1.3856L11.2627 3.1056C11.3927 3.5256 11.8127 3.7556 12.3227 3.6056C12.7927 3.4556 12.9927 3.0756 12.8527 2.6356L12.3727 0.9856C12.2327 0.4956 11.8427 0.2856 11.3727 0.3656ZM19.4527 0.4056C19.0127 0.2556 18.5927 0.4756 18.4527 0.9856L17.9927 2.6656C17.8727 3.1056 18.1127 3.5556 18.5527 3.6656C18.9927 3.7756 19.4327 3.5456 19.5527 3.0856L20.0027 1.4056C20.1227 0.9456 19.8927 0.5356 19.4527 0.4056ZM7.7127 2.0556C7.3127 2.2856 7.1927 2.7756 7.4227 3.1756L9.9527 7.5756C10.1827 7.9856 10.6827 8.1056 11.0627 7.8756C11.4527 7.6556 11.5927 7.1656 11.3627 6.7656L8.8227 2.3556C8.5827 1.9656 8.1027 1.8456 7.7127 2.0556ZM23.1327 2.0656C22.7327 1.8456 22.2427 1.9656 22.0127 2.3556L19.4827 6.7656C19.2327 7.1656 19.3727 7.6556 19.7727 7.8756C20.1527 8.1056 20.6627 7.9856 20.8727 7.5756L23.4227 3.1756C23.6427 2.7756 23.5127 2.2956 23.1327 2.0656ZM4.4027 4.4156C4.0727 4.7256 4.1127 5.2456 4.4127 5.5656L5.6327 6.7956C5.9727 7.1356 6.4427 7.1456 6.7927 6.8056C7.1127 6.4956 7.1227 6.0056 6.7827 5.6456L5.5627 4.4256C5.2127 4.0756 4.7427 4.0856 4.4027 4.4156ZM26.4327 4.4256C26.1027 4.1056 25.5827 4.1256 25.2827 4.4256L24.0327 5.6556C23.6927 6.0156 23.6927 6.4756 24.0327 6.8056C24.3627 7.1456 24.8527 7.1456 25.1727 6.8256L26.3827 5.5956C26.7327 5.2356 26.7427 4.7556 26.4327 4.4256ZM2.0827 7.6956C1.8427 8.0956 1.9727 8.5856 2.3627 8.8156L6.7627 11.3656C7.1827 11.5956 7.6527 11.4556 7.8927 11.0756C8.1027 10.6756 7.9827 10.1856 7.5727 9.9556L3.1727 7.4056C2.7727 7.1956 2.2927 7.3156 2.0827 7.6956ZM28.7827 7.7156C28.5427 7.3156 28.0527 7.1956 27.6627 7.4056L23.2527 9.9556C22.8427 10.1856 22.7227 10.6756 22.9527 11.0756C23.1727 11.4556 23.6627 11.5956 24.0627 11.3656L28.4827 8.8156C28.8627 8.5856 28.9827 8.1056 28.7827 7.7156ZM30.4427 11.4056C30.3427 10.9556 29.8727 10.6956 29.4627 10.8156L27.7527 11.2756C27.3127 11.4056 27.0527 11.8256 27.2027 12.3356C27.3127 12.6856 27.7027 12.9756 28.1927 12.8556L29.8427 12.3856C30.3227 12.2656 30.5527 11.8256 30.4427 11.4056ZM0.3727 11.3856C0.2727 11.8256 0.5427 12.2656 0.9527 12.3856L2.6427 12.8656C3.1027 12.9756 3.5427 12.7256 3.6327 12.2756C3.7327 11.8356 3.5227 11.3756 3.0727 11.2656L1.3927 10.8456C0.9027 10.7156 0.4627 10.9656 0.3727 11.3856ZM30.8327 15.4056C30.8327 14.9556 30.4727 14.6056 30.0127 14.6056H24.9327C24.4727 14.6056 24.1127 14.9556 24.1127 15.4056C24.1127 15.8756 24.4727 16.2256 24.9327 16.2256H30.0127C30.4727 16.2256 30.8327 15.8756 30.8327 15.4056ZM0.0027 15.4056C0.0027 15.8756 0.3727 16.2256 0.8227 16.2256H5.8927C6.3727 16.2256 6.7127 15.8756 6.7127 15.4056C6.7127 14.9556 6.3727 14.6056 5.8927 14.6056H0.8227C0.3727 14.6056 0.0027 14.9556 0.0027 15.4056ZM30.4427 19.4856C30.5727 19.0156 30.3627 18.5956 29.8827 18.4556L28.1927 17.9756C27.7227 17.8556 27.3027 18.1156 27.1927 18.5556C27.0827 19.0056 27.3327 19.4656 27.7527 19.5756L29.4327 20.0156C29.9127 20.1356 30.3227 19.8956 30.4427 19.4856ZM0.3827 19.4456C0.4927 19.8756 0.9527 20.1156 1.3827 20.0156L3.0727 19.5956C3.5427 19.4656 3.7727 19.0456 3.6527 18.5956C3.5227 18.1556 3.0927 17.8956 2.6427 18.0056L1.0027 18.4556C0.4927 18.5956 0.2727 19.0156 0.3827 19.4456ZM28.7627 23.1156C28.9827 22.7356 28.8627 22.2456 28.4827 22.0156L24.0627 19.4656C23.6627 19.2356 23.1727 19.3756 22.9527 19.7556C22.7227 20.1556 22.8427 20.6456 23.2527 20.8756L27.6627 23.4156C28.0527 23.6356 28.5327 23.5156 28.7627 23.1156ZM2.0627 23.1156C2.2827 23.5156 2.7727 23.6356 3.1727 23.4156L7.5727 20.8756C7.9827 20.6456 8.1027 20.1556 7.8927 19.7656C7.6527 19.3756 7.1827 19.2356 6.7627 19.4656L2.3627 22.0156C1.9727 22.2456 1.8427 22.7256 2.0627 23.1156ZM7.7127 28.7656C8.0927 28.9856 8.6027 28.8656 8.8227 28.4656L11.3627 24.0656C11.5927 23.6656 11.4527 23.1756 11.0727 22.9456C10.6827 22.7256 10.1827 22.8456 9.9527 23.2556L7.4227 27.6556C7.1927 28.0556 7.3127 28.5356 7.7127 28.7656ZM23.1227 28.7656C23.5127 28.5456 23.6427 28.0556 23.4227 27.6556L20.8727 23.2556C20.6627 22.8456 20.1527 22.7256 19.7727 22.9456C19.3727 23.1756 19.2327 23.6656 19.4827 24.0656L22.0127 28.4656C22.2427 28.8656 22.7227 28.9856 23.1227 28.7656ZM26.4127 26.4256C26.7527 26.0856 26.7327 25.5656 26.4427 25.2656L25.1827 24.0356C24.8527 23.7256 24.3627 23.6756 24.0127 24.0356C23.6927 24.3756 23.7227 24.8456 24.0327 25.1656L25.2627 26.3956C25.6027 26.7456 26.0827 26.7556 26.4127 26.4256ZM4.4127 26.4156C4.7627 26.7456 5.2527 26.7456 5.5527 26.4456L6.7927 25.2156C7.1327 24.8556 7.1527 24.3856 6.8127 24.0656C6.4927 23.7356 5.9727 23.7256 5.6627 24.0456L4.4427 25.2756C4.1027 25.6356 4.0927 26.0856 4.4127 26.4156ZM15.4127 30.8256C15.8727 30.8256 16.2327 30.4656 16.2327 30.0056V24.9356C16.2327 24.4756 15.8727 24.1156 15.4127 24.1156C14.9527 24.1156 14.6027 24.4756 14.6027 24.9356V30.0056C14.6027 30.4656 14.9527 30.8256 15.4127 30.8256ZM19.4527 30.4656C19.9727 30.3356 20.1227 29.8856 20.0127 29.4656L19.5827 27.7356C19.4527 27.3056 18.9927 27.0556 18.5527 27.1756C18.0727 27.3156 17.8727 27.7656 17.9927 28.1756L18.4827 29.8456C18.6227 30.2956 18.9627 30.5556 19.4527 30.4656ZM11.3027 30.4456C11.8127 30.6156 12.2627 30.3056 12.3727 29.8856L12.8427 28.2056C12.9627 27.7656 12.7127 27.3156 12.2727 27.2056C11.8427 27.0956 11.4027 27.3256 11.2827 27.7856L10.8327 29.4656C10.7027 29.9256 10.8527 30.3056 11.3027 30.4456Z"
        fillRule="evenodd"
        clipRule="evenodd"
    />
</svg>
        