
<svg
    viewBox="0 0 27.890625 27.890625"
    xmlns="http://www.w3.org/2000/svg"
>
    <path
        fill="inherit"
        d="M13.9427 27.8864C21.6427 27.8864 27.8927 21.6464 27.8927 13.9464C27.8927 6.2464 21.6427 -0.0036 13.9427 -0.0036C6.2527 -0.0036 0.0027 6.2464 0.0027 13.9464C0.0027 21.6464 6.2527 27.8864 13.9427 27.8864ZM13.9427 25.5664C7.5227 25.5664 2.3227 20.3664 2.3227 13.9464C2.3227 7.5164 7.5227 2.3264 13.9427 2.3264C20.3727 2.3264 25.5627 7.5164 25.5627 13.9464C25.5627 20.3664 20.3727 25.5664 13.9427 25.5664ZM13.9427 21.7064C18.1927 21.7064 21.7127 18.1964 21.7127 13.9464C21.7127 9.6964 18.1927 6.1764 13.9627 6.1764C13.3827 6.1764 13.0927 6.5464 13.0927 7.0564V9.2164C13.0927 9.6764 13.4227 10.0664 13.9227 10.0664C14.3927 10.0664 14.7427 9.6764 14.7427 9.2164V8.0264C17.7027 8.3964 19.9027 10.8564 19.9027 13.9464C19.9027 17.2964 17.3127 19.9164 13.9427 19.9164C10.5927 19.9164 7.9727 17.2964 7.9727 13.9464C7.9727 12.4364 8.5027 11.1264 9.3927 10.0764C9.6927 9.7064 9.7327 9.1864 9.3827 8.8364C9.0127 8.4464 8.4227 8.4864 8.0527 8.9264C6.8927 10.2664 6.1827 12.0464 6.1827 13.9464C6.1827 18.1964 9.6927 21.7064 13.9427 21.7064ZM15.2427 15.1164C15.9027 14.4264 15.7727 13.4964 14.9827 12.9464L11.4127 10.5564C10.8827 10.2164 10.3227 10.7464 10.6827 11.2764L13.0827 14.8464C13.6127 15.6564 14.5627 15.7764 15.2427 15.1164Z"
        fillRule="evenodd"
        clipRule="evenodd"
    />
</svg>
        