
<svg
    viewBox={0 0 25.169921875 25.169921875}
    xmlns="http://www.w3.org/2000/svg"
>
    <path
        fill="inherit"
        d="M4.2937 25.1692H20.8737C23.7437 25.1692 25.1737 23.7592 25.1737 20.9492V4.2392C25.1737 1.4192 23.7437 -0.0008 20.8737 -0.0008H4.2937C1.4337 -0.0008 0.0037 1.4192 0.0037 4.2392V20.9492C0.0037 23.7592 1.4337 25.1692 4.2937 25.1692ZM4.3237 22.9692C2.9537 22.9692 2.2037 22.2392 2.2037 20.8192V4.3592C2.2037 2.9392 2.9537 2.1992 4.3237 2.1992H20.8537C22.2037 2.1992 22.9737 2.9392 22.9737 4.3592V20.8192C22.9737 22.2392 22.2037 22.9692 20.8537 22.9692ZM4.6237 12.5792C4.6237 16.9492 8.2137 20.5592 12.5937 20.5592C16.9637 20.5592 20.5737 16.9492 20.5737 12.5792C20.5737 8.2192 16.9637 4.6092 12.6037 4.6092C12.0137 4.6092 11.6437 4.9892 11.6437 5.5892V8.2192C11.6437 8.7492 12.0437 9.1492 12.5637 9.1492C13.0737 9.1492 13.4537 8.7392 13.4537 8.2192V6.6592C16.3837 7.0592 18.5937 9.5392 18.5937 12.5792C18.5937 15.9092 15.9137 18.5792 12.5937 18.5792C9.2737 18.5792 6.5937 15.9092 6.6037 12.5792C6.6037 11.1392 7.0937 9.7792 8.0437 8.6992C8.3837 8.2392 8.3837 7.7092 8.0237 7.3192C7.6037 6.8792 6.9637 6.9292 6.5537 7.4192C5.3037 8.8592 4.6237 10.7192 4.6237 12.5792ZM13.8737 13.8092C14.5237 13.1392 14.3937 12.1792 13.6137 11.6792L9.9437 9.1992C9.3837 8.8292 8.8837 9.3092 9.2537 9.8692L11.7437 13.5392C12.2737 14.3292 13.2237 14.4492 13.8737 13.8092Z"
        fillRule="evenodd"
        clipRule="evenodd"
    />
</svg>
        