<svg viewBox="0 0 27.890625 27.890625" xmlns="http://www.w3.org/2000/svg"><path d="M13.9427 27.8864C21.6427 27.8864 27.8927 21.6464 27.8927 13.9464C27.8927 6.2464 21.6427 -0.0036 13.9427 -0.0036C6.2527 -0.0036 0.0027 6.2464 0.0027 13.9464C0.0027 21.6464 6.2527 27.8864 13.9427 27.8864ZM13.9427 23.8164C8.4927 23.8164 4.0727 19.3964 4.0727 13.9464C4.0727 8.4864 8.4927 4.0764 13.9427 4.0764C19.4027 4.0764 23.8127 8.4864 23.8127 13.9464C23.8127 19.3964 19.4027 23.8164 13.9427 23.8164ZM12.7527 5.4664C9.9027 5.8564 7.4827 7.6864 6.2727 10.1764L11.4527 12.0864C11.8227 11.5664 12.3627 11.1864 12.9727 10.9964ZM21.6427 10.1764C20.4427 7.6864 18.0227 5.8564 15.1627 5.4664L14.9427 10.9964C15.5627 11.1864 16.0927 11.5664 16.4627 12.0864ZM5.5127 12.4664C5.4327 12.9464 5.3727 13.4364 5.3727 13.9464C5.3727 16.3564 6.3827 18.5364 8.0027 20.0964L11.4127 15.7464C11.0327 15.2464 10.8527 14.6464 10.8327 13.9564ZM19.9227 20.0964C21.5327 18.5364 22.5127 16.3564 22.5127 13.9464C22.5127 13.4364 22.4927 12.9464 22.3827 12.4664L17.0627 13.9564C17.0627 14.6464 16.8527 15.2464 16.5027 15.7464ZM13.9427 15.3364C14.7227 15.3364 15.3427 14.7064 15.3427 13.9464C15.3427 13.1664 14.7227 12.5464 13.9427 12.5464C13.1827 12.5464 12.5627 13.1664 12.5627 13.9464C12.5627 14.7064 13.1827 15.3364 13.9427 15.3364ZM9.9527 21.5064C11.1427 22.1464 12.5127 22.5164 13.9427 22.5164C15.4127 22.5164 16.7727 22.1464 17.9627 21.5064L14.8927 16.9164C14.6027 17.0064 14.2727 17.0664 13.9427 17.0664C13.6127 17.0664 13.3127 17.0064 13.0027 16.9164Z" /></svg>