
<svg
    viewBox="0 0 19.00390625 33.03125"
    xmlns="http://www.w3.org/2000/svg"
>
    <path
        fill="inherit"
        d="M1.1123 2.1994H17.9123C18.5123 2.1994 19.0023 1.6994 19.0023 1.0894C19.0023 0.4894 18.5123 -0.0006 17.9123 -0.0006H1.1123C0.5023 -0.0006 0.0023 0.4894 0.0023 1.0894C0.0023 1.6994 0.5023 2.1994 1.1123 2.1994ZM17.3923 11.2694L17.8923 3.7194H1.1123L1.6123 11.2694C3.5723 10.4594 6.3323 10.0194 9.5123 10.0194C12.6923 10.0194 15.4523 10.4594 17.3923 11.2694ZM9.5123 18.3194C15.0523 18.3194 19.0023 16.9094 19.0023 14.9194C19.0023 12.9294 15.0123 11.5394 9.5123 11.5394C4.0023 11.5394 0.0023 12.9294 0.0023 14.9194C0.0023 16.9094 4.0023 18.3194 9.5123 18.3194ZM9.5123 16.3094C5.5823 16.3094 3.0123 15.7194 3.0123 14.9194C3.0123 14.1394 5.5823 13.5594 9.5123 13.5594C13.4423 13.5594 15.9923 14.1394 15.9923 14.9194C15.9923 15.7194 13.4423 16.3094 9.5123 16.3094ZM9.0323 24.8294H9.9623C14.5623 24.8294 18.0623 22.1494 18.8523 17.6894C17.0123 19.0194 13.6823 19.7694 9.5123 19.7694C5.3623 19.7694 2.0123 19.0194 0.1523 17.6794C0.9323 22.1494 4.4423 24.8294 9.0323 24.8294ZM9.5023 33.0294C11.7323 33.0294 14.6823 32.4294 15.9823 31.1294C16.3223 30.7794 16.3523 30.3094 16.2023 29.8194L14.8623 25.3494C13.3723 25.9994 11.6623 26.3494 9.9623 26.3494H8.9823C7.3123 26.3494 5.6423 26.0194 4.1523 25.3794L2.8023 29.8194C2.6623 30.3094 2.6823 30.7794 3.0323 31.1294C4.3523 32.4294 7.2823 33.0294 9.5023 33.0294Z"
        fillRule="evenodd"
        clipRule="evenodd"
    />
</svg>
        