
<svg
    viewBox="0 0 27.890625 27.890625"
    xmlns="http://www.w3.org/2000/svg"
>
    <path
        fill="inherit"
        d="M13.9427 27.8864C21.6427 27.8864 27.8927 21.6464 27.8927 13.9464C27.8927 6.2464 21.6427 -0.0036 13.9427 -0.0036C6.2527 -0.0036 0.0027 6.2464 0.0027 13.9464C0.0027 21.6464 6.2527 27.8864 13.9427 27.8864ZM13.9427 25.5664C7.5227 25.5664 2.3227 20.3664 2.3227 13.9464C2.3227 7.5164 7.5227 2.3264 13.9427 2.3264C20.3727 2.3264 25.5627 7.5164 25.5627 13.9464C25.5627 20.3664 20.3727 25.5664 13.9427 25.5664ZM9.4927 6.9064H18.3727C18.7027 6.9064 18.9627 6.6264 18.9627 6.3164C18.9627 6.0064 18.7027 5.7264 18.3727 5.7264H9.4927C9.1627 5.7264 8.9027 6.0064 8.9027 6.3164C8.9027 6.6264 9.1727 6.9064 9.4927 6.9064ZM13.9427 10.9764C15.6127 10.9764 17.0527 11.1964 18.0627 11.6164L18.3427 7.7364H9.5127L9.8027 11.6164C10.8327 11.2064 12.2727 10.9764 13.9427 10.9764ZM13.9327 15.3964C16.8527 15.3964 18.9327 14.6464 18.9327 13.5864C18.9327 12.5464 16.8327 11.8164 13.9327 11.8164C11.0427 11.8164 8.9327 12.5464 8.9327 13.5864C8.9327 14.6464 11.0427 15.3964 13.9327 15.3964ZM13.9327 14.2964C11.8627 14.2964 10.5227 13.9964 10.5227 13.5864C10.5227 13.1964 11.8627 12.8964 13.9327 12.8964C16.0127 12.8964 17.3327 13.1964 17.3327 13.5864C17.3327 13.9964 16.0127 14.2964 13.9327 14.2964ZM13.6827 18.7864H14.1827C16.5527 18.7864 18.3727 17.4164 18.8227 15.1164C17.8327 15.8064 16.0927 16.1964 13.9327 16.1964C11.7827 16.1964 10.0327 15.8064 9.0327 15.1064C9.4727 17.4164 11.3027 18.7864 13.6827 18.7864ZM13.9327 23.0964C15.1027 23.0964 16.6527 22.7764 17.3327 22.1164C17.5127 21.9264 17.5127 21.6864 17.4427 21.4064L16.7327 19.0764C15.9727 19.4264 15.0627 19.6164 14.1827 19.6164H13.6627C12.7927 19.6164 11.8927 19.4264 11.1327 19.0864L10.4227 21.4064C10.3527 21.6864 10.3627 21.9264 10.5427 22.1164C11.2127 22.7764 12.7527 23.0964 13.9327 23.0964Z"
        fillRule="evenodd"
        clipRule="evenodd"
    />
</svg>
        