
<svg
    viewBox={0 0 19.455078125 32.990234375}
    xmlns="http://www.w3.org/2000/svg"
>
    <path
        fill="inherit"
        d="M1.3237 2.1994H18.1337C18.7337 2.1994 19.2237 1.6994 19.2237 1.0894C19.2237 0.4894 18.7337 -0.0006 18.1337 -0.0006H1.3237C0.7237 -0.0006 0.2237 0.4894 0.2237 1.0894C0.2237 1.6994 0.7237 2.1994 1.3237 2.1994ZM9.9637 32.9894C12.4737 32.9894 15.4237 32.3894 16.7237 31.0894C17.0637 30.7394 17.0737 30.2694 16.9437 29.7794L15.0537 23.5394C17.7837 21.8994 19.4537 18.7694 19.4537 14.8194C19.4537 13.9694 18.7537 13.2194 17.5237 12.6294L18.1137 3.7194H1.3237L1.9137 12.6494C0.6937 13.2194 0.0037 13.9694 0.0037 14.8194C0.0037 18.9794 1.8437 22.2194 4.8237 23.7794L2.9937 29.7794C2.8537 30.2694 2.8737 30.7394 3.2237 31.0894C4.5437 32.3894 7.4737 32.9894 9.9637 32.9894ZM3.6937 5.6594H15.7637L15.3837 11.9194C13.8337 11.5494 11.9037 11.3494 9.7237 11.3494C7.5437 11.3494 5.6237 11.5494 4.0637 11.9194ZM9.7237 16.5294C5.5237 16.5294 2.7237 15.8494 2.7237 14.8194C2.7237 13.8594 5.5237 13.2094 9.7237 13.2094C13.9337 13.2094 16.7337 13.8594 16.7337 14.8194C16.7337 15.8494 13.9337 16.5294 9.7237 16.5294ZM9.7237 18.3894C12.8237 18.3894 15.4237 17.9694 17.1437 17.2394C16.3237 20.5594 13.7537 22.6994 10.2937 22.6994H9.1637C5.7037 22.6994 3.1337 20.5594 2.3137 17.2394C4.0337 17.9694 6.6337 18.3894 9.7237 18.3894ZM9.1637 24.7894H10.2937C11.2537 24.7894 12.1637 24.6594 13.0137 24.4194L14.6737 29.8694C13.6337 30.4594 11.8137 30.7894 9.9637 30.7894C8.1237 30.7894 6.3037 30.4594 5.2737 29.8694L6.8937 24.5394C7.6137 24.7094 8.3637 24.7894 9.1637 24.7894Z"
        fillRule="evenodd"
        clipRule="evenodd"
    />
</svg>
        