
<svg
    viewBox={0 0 25.94921875 29.915323490152957}
    xmlns="http://www.w3.org/2000/svg"
>
    <path
        fill="inherit"
        d="M12.7527 12.3286C21.1327 12.3286 25.9527 10.2086 25.9527 7.3286C25.9527 4.6686 22.1227 3.0486 16.6527 3.0486C12.5527 3.0486 9.3527 3.8386 6.9327 4.9686C6.2727 5.2886 6.1227 5.9386 6.3727 6.4086C6.6327 6.9286 7.3127 7.0686 7.8627 6.8286C10.0527 5.9186 12.8127 5.0286 16.5327 5.0286C21.1327 5.0286 23.8027 6.1186 23.8027 7.3086C23.8027 8.7086 19.6427 10.2786 12.6627 10.2786C5.7927 10.2786 2.1327 8.9286 2.1327 6.3386C2.1327 4.8186 3.5227 3.2186 7.4927 1.9486C8.1627 1.7286 8.4527 1.1986 8.2627 0.6386C8.0627 0.0786 7.5627 -0.1414 6.8127 0.0886C2.2127 1.4586 0.0027 3.8486 0.0027 6.3986C0.0027 10.2786 4.3927 12.3286 12.7527 12.3286ZM13.1627 16.8386C17.4427 16.8386 21.3827 16.1286 24.1727 14.9986C24.6927 14.7786 24.9527 14.2286 24.6927 13.7486C24.4427 13.2886 23.9527 13.1986 23.3427 13.4386C20.8127 14.4086 17.1327 15.0586 13.1627 15.0586C10.2427 15.0586 6.8727 14.6886 4.2527 13.9286C3.6327 13.7486 3.1327 13.9386 2.9827 14.4586C2.8327 14.9686 3.0927 15.4486 3.7227 15.6386C6.5527 16.4286 10.0927 16.8386 13.1627 16.8386ZM14.0927 21.2986C17.6827 21.2686 21.0427 20.7486 24.1127 19.6986C24.8427 19.4486 24.9527 18.8786 24.7727 18.4486C24.5827 17.9786 24.0927 17.8286 23.3927 18.0586C20.3527 19.0386 17.3327 19.5086 14.0927 19.5086C12.7127 19.5086 11.2827 19.4086 10.1627 19.2586C9.4927 19.1786 9.0827 19.4386 8.9927 19.9286C8.9027 20.4186 9.1627 20.8886 9.8727 21.0086C10.9227 21.1986 12.4027 21.3086 14.0927 21.2986ZM12.8527 25.4986C15.3427 25.7786 18.3327 25.7086 20.9027 25.0186C21.5227 24.8486 21.7527 24.3086 21.6027 23.8286C21.4327 23.3186 20.9627 23.1286 20.3027 23.2886C18.0927 23.8686 15.5327 24.0586 13.1527 23.7586C12.4927 23.6886 12.0427 23.9886 11.9727 24.4986C11.9127 24.9986 12.1727 25.4086 12.8527 25.4986ZM11.9227 29.8286C12.7827 29.9486 13.7927 29.9386 14.6827 29.8286C15.3127 29.7486 15.6027 29.3486 15.5627 28.8486C15.5027 28.3886 15.1527 28.0686 14.4827 28.1486C13.7227 28.2386 12.8427 28.2386 12.0727 28.1586C11.4527 28.0786 11.0727 28.4086 11.0027 28.8486C10.9527 29.3086 11.2427 29.7586 11.9227 29.8286Z"
        fillRule="evenodd"
        clipRule="evenodd"
    />
</svg>
        