
<svg
    viewBox="0 0 27.890625 27.890625"
    xmlns="http://www.w3.org/2000/svg"
>
    <path
        fill="inherit"
        d="M13.9427 27.8864C21.6427 27.8864 27.8927 21.6464 27.8927 13.9464C27.8927 6.2464 21.6427 -0.0036 13.9427 -0.0036C6.2527 -0.0036 0.0027 6.2464 0.0027 13.9464C0.0027 21.6464 6.2527 27.8864 13.9427 27.8864ZM13.9427 25.5664C7.5227 25.5664 2.3227 20.3664 2.3227 13.9464C2.3227 7.5164 7.5227 2.3264 13.9427 2.3264C20.3727 2.3264 25.5627 7.5164 25.5627 13.9464C25.5627 20.3664 20.3727 25.5664 13.9427 25.5664ZM13.8227 12.6964C18.4027 12.6964 21.1327 11.5364 21.1327 9.8464C21.1327 8.2964 18.9627 7.3864 15.9427 7.3864C13.7027 7.3864 11.9227 7.8064 10.5927 8.4364C10.1627 8.6364 10.0627 9.0964 10.2227 9.4064C10.4027 9.7664 10.8527 9.8564 11.2227 9.6964C12.4027 9.1964 13.8627 8.7264 15.8827 8.7264C18.3427 8.7264 19.7027 9.2664 19.7027 9.8264C19.7027 10.4964 17.5227 11.3164 13.7627 11.3164C10.0527 11.3164 8.1927 10.6064 8.1927 9.3064C8.1927 8.5264 8.8827 7.7064 10.9927 7.0564C11.4127 6.9064 11.6327 6.5364 11.5127 6.1564C11.3727 5.7864 11.0327 5.6364 10.5427 5.7664C8.0127 6.5364 6.7427 7.8864 6.7427 9.3364C6.7427 11.5564 9.2427 12.6964 13.8227 12.6964ZM14.0427 15.1464C16.3927 15.1464 18.5627 14.7664 20.0827 14.1264C20.4527 13.9864 20.6127 13.6064 20.4527 13.2664C20.2727 12.9464 19.9227 12.8664 19.5227 13.0164C18.1727 13.5464 16.1827 13.8864 14.0427 13.8864C12.4427 13.8864 10.6527 13.6964 9.2327 13.2864C8.8327 13.1764 8.4727 13.3164 8.3627 13.6764C8.2727 14.0264 8.4627 14.3864 8.8727 14.4964C10.4027 14.9264 12.3727 15.1464 14.0427 15.1464ZM14.5427 17.5564C16.5327 17.5364 18.3727 17.2664 20.0527 16.7064C20.5227 16.5264 20.6127 16.1164 20.4927 15.8364C20.3727 15.4864 20.0127 15.3764 19.5827 15.5264C17.9327 16.0664 16.2927 16.3264 14.5427 16.3264C13.7927 16.3264 13.0327 16.2664 12.4327 16.1864C11.9927 16.1364 11.7127 16.3264 11.6327 16.6564C11.5627 16.9964 11.7627 17.3264 12.2227 17.4164C12.8127 17.5164 13.6327 17.5664 14.5427 17.5564ZM13.8627 19.8564C15.2327 20.0064 16.8827 19.9764 18.3027 19.5764C18.7127 19.4564 18.8827 19.0864 18.7727 18.7764C18.6527 18.4164 18.3227 18.2664 17.8827 18.3864C16.6927 18.7064 15.3227 18.7964 14.0527 18.6164C13.6327 18.5964 13.3127 18.7964 13.2627 19.1564C13.2327 19.4964 13.4127 19.7964 13.8627 19.8564ZM13.3427 22.2064C13.8327 22.2564 14.3827 22.2564 14.8927 22.2064C15.3127 22.1364 15.5027 21.8564 15.4927 21.5164C15.4327 21.2064 15.1927 20.9564 14.7427 21.0164C14.3327 21.0664 13.8927 21.0864 13.4827 21.0164C13.0427 20.9564 12.7827 21.2164 12.7427 21.5064C12.7027 21.8364 12.8827 22.1364 13.3427 22.2064Z"
        fillRule="evenodd"
        clipRule="evenodd"
    />
</svg>
        