
<svg
    viewBox={0 0 46.005859375 23.119140625}
    xmlns="http://www.w3.org/2000/svg"
>
    <path
        fill="inherit"
        d="M4.0237 23.0957C6.6837 23.0957 9.4437 21.9257 11.6037 19.6857C13.1437 20.5057 14.6037 21.2557 16.8037 21.2557C19.2137 21.2557 20.7137 20.6357 22.0637 19.8757C24.1737 21.9757 26.9037 23.1157 29.5137 23.1157C31.6737 23.1157 33.3437 22.2157 33.3437 20.5457C33.3437 18.9657 32.1537 18.3057 30.5537 17.8657C30.1637 17.7557 29.7537 17.6657 29.3437 17.5557C35.3937 17.4357 35.2437 14.3557 39.5537 14.3557C43.2437 14.3557 46.0037 13.0657 46.0037 10.5257C46.0037 5.0857 42.8737 2.1857 39.2637 2.1857C35.5337 2.1857 33.5537 4.5357 32.7537 7.6257C32.3037 9.3057 31.5137 10.3657 30.3137 10.9657L29.4537 9.3757C25.8237 2.7057 22.4937 0.0157 16.9937 -0.0043C11.0637 0.0157 8.0437 2.5957 3.6137 10.9657C2.2737 13.5257 0.0037 14.0857 0.0037 15.6857C0.0037 16.8057 0.8637 17.5557 2.5937 17.5557H4.0037C3.4337 17.7157 2.8437 17.8657 2.3137 18.0557C1.0237 18.5157 0.1937 19.1957 0.1937 20.5057C0.1937 22.1757 1.8437 23.0957 4.0237 23.0957ZM16.9937 2.1757C20.6837 2.1757 23.0337 3.8257 24.9537 6.2757C22.6937 8.1757 19.9637 9.2457 16.8337 9.2457C13.7437 9.2457 11.0637 8.2257 8.8337 6.3757C11.1737 3.2657 13.4837 2.1757 16.9937 2.1757ZM33.2637 14.7557C32.6437 14.2757 31.9137 13.3757 31.4837 12.6057C32.9637 12.0457 33.9637 11.0457 34.5637 8.7057C35.2237 5.8957 36.7137 4.2557 39.2637 4.2557C41.8637 4.2557 44.0337 6.6557 44.0337 10.1957C44.0337 11.5157 42.0437 12.3557 39.9637 12.3557C36.5437 12.3557 35.0137 13.6357 33.2637 14.7557ZM39.7837 9.3257C40.4537 9.3257 41.0137 8.7657 41.0137 8.0957C41.0137 7.4257 40.4537 6.8657 39.7837 6.8657C39.1037 6.8657 38.5437 7.4257 38.5437 8.0957C38.5437 8.7657 39.1037 9.3257 39.7837 9.3257ZM27.6837 10.5557C28.6337 12.2357 29.8337 14.1457 31.0537 15.3557C30.4837 15.3657 29.8437 15.3557 29.1937 15.3557C27.1537 15.3557 25.6337 15.7257 24.3737 16.2257C23.0537 14.4657 22.0837 11.9657 21.8637 10.1057C23.4637 9.5057 24.8437 8.6557 25.9737 7.7157C26.5637 8.5957 27.1237 9.5557 27.6837 10.5557ZM4.8037 15.3557C4.1037 15.3557 3.3937 15.3657 2.7437 15.4057L2.6437 15.2157C3.5637 14.4357 4.7337 13.4557 5.5637 11.8157C6.3537 10.2657 7.0937 8.9557 7.8237 7.8157C8.9737 8.7657 10.3937 9.6257 12.0537 10.2157C11.7837 12.0057 10.8037 14.5157 9.5437 16.2257C8.3037 15.7257 6.7937 15.3557 4.8037 15.3557ZM16.8037 19.0857C14.4137 19.0857 12.9437 17.9657 11.0637 16.9557C12.3337 15.1457 13.2937 12.6557 13.5637 10.6357C14.5737 10.8657 15.6537 11.0057 16.8337 11.0057C18.0837 11.0057 19.2637 10.8457 20.3437 10.5857C20.5537 12.6857 21.5037 15.1757 22.8337 16.9657C20.9337 17.9757 19.4137 19.0857 16.8037 19.0857ZM2.2237 20.2257C2.2237 19.7257 2.5837 19.3957 3.6337 19.1357C4.2837 18.9757 6.0037 18.4457 7.2337 17.8557C8.1637 18.0557 8.9737 18.3657 9.6937 18.7057C7.6037 20.4657 5.7237 21.2557 4.0437 21.2557C2.8437 21.2557 2.2237 20.8757 2.2237 20.2257ZM29.9037 19.1857C30.9437 19.4457 31.3037 19.7657 31.3037 20.2657C31.3037 20.9057 30.6937 21.2857 29.4937 21.2857C27.8237 21.2857 25.9937 20.5257 23.9437 18.8257C24.6337 18.4457 25.3737 18.1157 26.2637 17.8857C27.5037 18.4657 29.2437 19.0057 29.9037 19.1857Z"
        fillRule="evenodd"
        clipRule="evenodd"
    />
</svg>
        