
<svg
    viewBox={0 0 27.890625 27.890625}
    xmlns="http://www.w3.org/2000/svg"
>
    <path
        fill="inherit"
        d="M13.9427 27.8864C21.6427 27.8864 27.8927 21.6464 27.8927 13.9464C27.8927 6.2464 21.6427 -0.0036 13.9427 -0.0036C6.2527 -0.0036 0.0027 6.2464 0.0027 13.9464C0.0027 21.6464 6.2527 27.8864 13.9427 27.8864ZM13.9427 25.5664C7.5227 25.5664 2.3227 20.3664 2.3227 13.9464C2.3227 7.5164 7.5227 2.3264 13.9427 2.3264C20.3727 2.3264 25.5627 7.5164 25.5627 13.9464C25.5627 20.3664 20.3727 25.5664 13.9427 25.5664ZM11.5427 12.8064C13.2227 12.7964 14.6127 12.2264 15.7227 11.0064C14.6027 9.5964 13.4027 8.9264 11.5827 8.9164C9.7627 8.9164 8.5627 9.4864 7.3927 11.0364C8.5327 12.2464 9.9627 12.8264 11.5427 12.8064ZM21.7127 14.9064C23.3127 14.9064 24.3327 14.3164 24.3327 13.4164C24.3327 11.3364 23.2427 9.9164 21.5927 9.9164C20.1427 9.9164 19.2227 10.7764 18.8927 12.1664C18.6527 13.0864 18.3027 13.4564 18.0327 13.7164C18.3627 14.2064 18.8627 15.0764 19.3427 15.7664C20.1627 15.3764 20.5627 14.9064 21.7127 14.9064ZM15.5027 16.5164C16.0327 16.3964 16.5427 16.3064 17.2427 16.3064C17.8127 16.3064 18.4027 16.2264 18.6627 16.0464C17.9927 15.1864 16.8027 12.6464 16.1627 11.6664C15.5427 12.3064 14.5327 12.9464 13.8227 13.2164C13.9327 14.2964 14.5427 15.5764 15.5027 16.5164ZM7.5427 16.5564C8.4527 15.6864 9.1627 14.2964 9.2927 13.2364C8.4927 12.9364 7.4927 12.3464 6.9227 11.7164C6.6327 12.1564 6.3327 12.6364 6.0527 13.1764C5.4827 14.2864 4.8627 14.8464 4.4127 15.2164C4.2627 15.3664 4.1727 15.5564 4.1727 15.7864C4.1727 16.1364 4.5127 16.3364 5.1727 16.3364H5.9327C6.6127 16.3364 7.0827 16.4164 7.5427 16.5564ZM21.7227 12.8064C21.4327 12.8064 21.2027 12.5664 21.2027 12.2764C21.2027 12.0064 21.4327 11.7464 21.7227 11.7464C21.9827 11.7464 22.2427 12.0064 22.2427 12.2764C22.2427 12.5664 21.9827 12.8064 21.7227 12.8064ZM11.5227 17.9764C12.9027 17.9764 13.8927 17.2364 14.7227 16.8464C13.7827 15.9564 13.1827 14.6564 13.0927 13.4664C12.5927 13.6064 12.0727 13.6764 11.5627 13.6764C11.0327 13.6764 10.5227 13.6064 10.0327 13.4764C9.9227 14.5864 9.3227 15.9364 8.4127 16.8564C9.1827 17.1864 10.1327 17.9764 11.5227 17.9764ZM5.8827 19.0064C6.9227 19.0064 7.9827 18.5564 8.5027 17.8564C7.7927 17.4364 7.0827 17.0764 6.2927 17.0664C6.0127 17.1264 5.7027 17.1464 5.4127 17.1864C4.8927 17.3064 4.4027 17.5164 4.4027 18.0164C4.4027 18.6464 5.0627 19.0064 5.8827 19.0064ZM16.9827 19.0264C17.8027 19.0264 18.4427 18.6664 18.4427 18.0364C18.4427 17.5364 17.9627 17.1264 17.4427 17.0864C17.1127 17.0764 16.8527 17.0764 16.5027 17.0664C15.8227 17.0864 14.9027 17.5364 14.3527 17.8864C14.8627 18.5764 15.9327 19.0264 16.9827 19.0264Z"
        fillRule="evenodd"
        clipRule="evenodd"
    />
</svg>
        