<svg viewBox="0 0 27.890625 27.890625" xmlns="http://www.w3.org/2000/svg"><path d="M13.9427 27.8864C21.6427 27.8864 27.8927 21.6264 27.8927 13.9464C27.8927 6.2464 21.6427 -0.0036 13.9427 -0.0036C6.2627 -0.0036 0.0027 6.2464 0.0027 13.9464C0.0027 21.6264 6.2627 27.8864 13.9427 27.8864ZM11.4527 12.7664C9.8327 12.7864 8.3527 12.1964 7.1927 10.9364C8.3827 9.3564 9.6227 8.7464 11.5027 8.7464C13.3727 8.7664 14.6027 9.4564 15.7627 10.9064C14.6327 12.1664 13.1827 12.7564 11.4527 12.7664ZM21.9327 14.9264C20.7527 14.9264 20.3427 15.4264 19.4927 15.8164C19.0027 15.1064 18.4827 14.2064 18.1427 13.6964C18.4327 13.4364 18.7827 13.0564 19.0327 12.1164C19.3727 10.6664 20.3127 9.7864 21.8027 9.7864C23.5127 9.7864 24.6527 11.2564 24.6527 13.3964C24.6527 14.3264 23.5827 14.9264 21.9327 14.9264ZM15.5427 16.5964C14.5427 15.6264 13.9227 14.2964 13.8127 13.1964C14.5327 12.9164 15.5827 12.2464 16.2127 11.5964C16.8827 12.6064 18.1027 15.2264 18.8027 16.1164C18.5227 16.2964 17.9227 16.3764 17.3227 16.3764C16.6127 16.3764 16.0927 16.4564 15.5427 16.5964ZM7.3427 16.6364C6.8627 16.4864 6.3827 16.4064 5.6827 16.4064H4.8927C4.2127 16.4064 3.8527 16.1964 3.8527 15.8464C3.8527 15.5964 3.9627 15.4064 4.1127 15.2464C4.5827 14.8764 5.2127 14.2864 5.8127 13.1564C6.0827 12.5964 6.4027 12.0964 6.6827 11.6464C7.2827 12.2864 8.3127 12.9064 9.1427 13.2064C9.0127 14.3164 8.2727 15.7364 7.3427 16.6364ZM21.9527 12.7664C22.2127 12.7664 22.4927 12.5264 22.4927 12.2264C22.4927 11.9364 22.2127 11.6764 21.9527 11.6764C21.6527 11.6764 21.4127 11.9364 21.4127 12.2264C21.4127 12.5264 21.6527 12.7664 21.9527 12.7664ZM11.4427 18.1064C10.0127 18.1064 9.0327 17.2764 8.2327 16.9364C9.1727 16.0064 9.8027 14.6064 9.9127 13.4664C10.4227 13.5864 10.9327 13.6564 11.4827 13.6564C12.0027 13.6564 12.5327 13.5864 13.0527 13.4564C13.1427 14.6664 13.7627 16.0264 14.7427 16.9264C13.8727 17.3364 12.8627 18.1064 11.4427 18.1064ZM5.6227 19.1664C4.7727 19.1664 4.1027 18.7964 4.1027 18.1464C4.1027 17.6264 4.6027 17.4164 5.1427 17.2764C5.4427 17.2364 5.7527 17.2264 6.0427 17.1564C6.8627 17.1764 7.6027 17.5364 8.3227 17.9764C7.7927 18.7064 6.7027 19.1664 5.6227 19.1664ZM17.0627 19.1964C15.9727 19.1964 14.8727 18.7264 14.3527 18.0064C14.9127 17.6464 15.8627 17.1864 16.5727 17.1564C16.9427 17.1764 17.2027 17.1764 17.5427 17.1864C18.0727 17.2264 18.5627 17.6464 18.5627 18.1564C18.5627 18.8164 17.9127 19.1964 17.0627 19.1964Z" /></svg>