
<svg
    viewBox={0 0 38.869140625 24.103515625}
    xmlns="http://www.w3.org/2000/svg"
>
    <path
        fill="inherit"
        d="M19.4427 24.106C30.2027 24.106 38.8727 18.786 38.8727 12.046C38.8727 5.316 30.1827 -0.004 19.4427 -0.004C8.6827 -0.004 0.0027 5.316 0.0027 12.046C0.0027 18.786 8.6527 24.106 19.4427 24.106ZM19.4427 21.906C9.9527 21.906 2.2027 17.406 2.2027 12.046C2.2027 6.696 9.9627 2.206 19.4427 2.206C28.9027 2.206 36.6727 6.696 36.6727 12.046C36.6727 17.406 28.9127 21.906 19.4427 21.906ZM8.4127 11.306C9.6427 13.676 13.7927 15.096 19.4427 15.096C25.0927 15.096 29.2427 13.676 30.4727 11.306C31.0227 10.176 29.7327 9.676 29.2127 10.266C28.8327 10.716 28.3427 11.086 27.7527 11.406C25.5027 9.706 22.5327 8.746 19.4427 8.746C16.3527 8.746 13.3827 9.706 11.1327 11.406C10.5427 11.086 10.0327 10.716 9.6627 10.266C9.1427 9.676 7.8627 10.176 8.4127 11.306ZM19.4427 10.956C21.5027 10.956 23.4727 11.426 25.1327 12.336C23.3827 12.746 21.3727 12.896 19.4427 12.896C17.5527 12.896 15.5327 12.746 13.7527 12.336C15.4127 11.426 17.3727 10.956 19.4427 10.956Z"
        fillRule="evenodd"
        clipRule="evenodd"
    />
</svg>
        