<svg viewBox="0 0 30.12557507317293 29.632884990995564" xmlns="http://www.w3.org/2000/svg"><path d="M0.9756 11.2914C1.3656 11.4414 1.8756 11.2614 2.0656 10.7414C4.2656 4.5914 9.5356 1.5314 14.8756 1.5314C17.3156 1.5314 19.2256 2.0214 20.8556 2.9514C21.3156 3.2314 21.8356 3.2314 22.0456 2.7714C22.2656 2.3014 22.0156 1.9914 21.6756 1.7814C19.5956 0.4814 17.4856 0.0014 14.8756 0.0014C8.6956 0.0014 3.0956 3.2914 0.5756 9.9914C0.3156 10.6814 0.5756 11.1514 0.9756 11.2914ZM29.4156 16.2514C29.8456 16.2514 30.1656 15.9014 30.1256 15.4214C29.5056 9.8614 27.6756 6.3414 24.5156 3.5814C24.1156 3.2314 23.6456 3.3314 23.4056 3.6114C23.1456 3.9014 23.1256 4.3514 23.5356 4.7214C26.2256 7.2314 28.1856 10.4814 28.6456 15.4514C28.6956 15.9014 28.9756 16.2514 29.4156 16.2514ZM3.1656 23.4014C3.4256 23.7614 3.9356 23.8614 4.3256 23.5314C5.3056 22.6914 5.7956 21.3514 5.7956 19.9614C5.7956 18.0714 4.9756 17.1214 4.9756 14.7614C4.9756 9.4014 9.4356 4.9514 14.7956 4.9514C21.2656 4.9514 25.4356 10.2414 25.4456 18.0514C25.4456 21.0914 24.9356 23.2514 24.4356 24.5014C24.2556 24.9214 24.4256 25.3714 24.7756 25.5714C25.1556 25.7314 25.6956 25.5914 25.8556 25.1414C26.3856 23.6914 26.9756 21.3114 26.9756 18.0314C26.9756 9.3214 22.1756 3.4214 14.7956 3.4214C8.5856 3.4214 3.4456 8.5714 3.4456 14.7614C3.4456 17.0114 4.2956 18.5214 4.3056 19.9514C4.3056 20.8814 3.9656 21.7614 3.3256 22.3214C2.9956 22.6014 2.9456 23.0914 3.1656 23.4014ZM9.3156 18.5414C8.9756 17.6114 8.4156 16.4314 8.4156 14.8514C8.4156 11.2114 11.2456 8.3814 14.8756 8.3814C16.2756 8.3814 16.7056 8.5314 17.9256 9.1214C18.3456 9.3114 18.7356 9.1914 18.8856 8.8914C19.0856 8.5014 18.9756 8.0414 18.5156 7.7614C17.6156 7.2314 16.2356 6.8314 14.8756 6.8314C10.3956 6.8314 6.8656 10.3614 6.8656 14.8514C6.8656 16.5714 7.3356 17.9614 7.8056 19.1314C8.0056 19.5814 8.4156 19.8014 8.9056 19.5914C9.3156 19.4314 9.4656 18.9914 9.3156 18.5414ZM20.0756 10.9514C21.3956 12.8814 22.0556 15.5414 22.0556 18.7714C22.0556 22.2214 21.0956 25.4714 19.6056 27.3314C19.3656 27.6614 19.3356 28.1214 19.6356 28.4214C19.9656 28.7214 20.5256 28.7114 20.7956 28.3414C22.4656 26.0814 23.5556 22.5014 23.5556 18.7214C23.5556 14.5714 22.6756 12.1114 21.4256 10.1314C21.1356 9.6914 20.6656 9.5614 20.2756 9.7614C19.8856 9.9814 19.7556 10.4814 20.0756 10.9514ZM9.2556 27.7514C11.5056 25.9514 12.7356 23.0814 12.7156 19.8914C12.7056 17.4814 11.8456 15.9914 11.8456 14.6814C11.8456 12.9614 13.0556 11.8114 14.8356 11.8114C17.5756 11.8114 18.4556 14.9314 18.5456 18.6214C18.6656 22.8914 17.1156 26.4914 15.0956 28.2714C14.7656 28.5514 14.6956 28.9714 14.9156 29.3114C15.1756 29.6814 15.7156 29.7514 16.0656 29.4214C18.1956 27.4814 20.0056 23.2114 19.9756 18.5114C19.9656 13.9214 18.6656 10.2814 14.8356 10.2814C12.2956 10.2814 10.3356 11.9814 10.3356 14.5514C10.3356 16.0914 11.1556 17.9914 11.1756 19.8914C11.1856 22.6014 10.1756 25.0314 8.3056 26.5514C7.9356 26.8514 7.8756 27.2914 8.1056 27.6314C8.3956 28.0314 8.8856 28.0714 9.2556 27.7514ZM1.5756 19.4414C1.9756 19.3214 2.1656 18.9114 2.0556 18.4414C1.7156 17.0614 1.5056 15.6014 1.5756 13.6814C1.5856 13.1814 1.3156 12.9014 0.9056 12.8814C0.3756 12.8414 0.0856 13.1614 0.0456 13.5914C-0.0744 15.1314 0.0456 16.9814 0.5756 18.8814C0.7156 19.3414 1.1556 19.5814 1.5756 19.4414ZM16.1756 21.3414C16.5556 19.4914 16.4056 17.1314 15.7356 15.0814C15.5656 14.5714 15.1656 14.3514 14.7456 14.4914C14.3456 14.6314 14.0956 15.0014 14.2456 15.4814C14.8756 17.4614 14.9856 19.4114 14.6756 21.1414C14.5956 21.5514 14.7556 21.9414 15.2356 22.0114C15.6756 22.0914 16.0856 21.8314 16.1756 21.3414ZM6.3856 25.9514C7.3956 25.4314 8.7756 23.6514 9.1656 22.2414C9.2756 21.8614 9.0956 21.4014 8.6756 21.2614C8.2856 21.1214 7.8756 21.3514 7.7256 21.7914C7.3556 22.9914 6.7156 23.9014 5.7056 24.5814C5.2156 24.9214 5.1456 25.3514 5.2956 25.6614C5.4556 26.0014 5.8956 26.1914 6.3856 25.9514ZM12.4556 28.8514C13.5356 28.0714 14.8756 26.2814 15.3956 24.5314C15.4956 24.2314 15.4256 23.7214 14.9856 23.5714C14.5256 23.4014 14.1256 23.6414 14.0056 23.9914C13.3056 25.8214 12.4456 26.9014 11.5256 27.6214C11.1856 27.8914 11.0956 28.3414 11.3256 28.7014C11.5456 29.0814 12.0756 29.1314 12.4556 28.8514Z" /></svg>