
<svg
    viewBox="0 0 28.418722893133236 28.42041015625"
    xmlns="http://www.w3.org/2000/svg"
>
    <path
        fill="inherit"
        d="M26.6189 28.0977C27.0289 28.5277 27.7189 28.5277 28.1089 28.0977C28.5189 27.6877 28.5189 27.0377 28.1089 26.6077L1.8089 0.3077C1.3989 -0.1023 0.7289 -0.1023 0.2989 0.3077C-0.0911 0.7177 -0.1111 1.3877 0.2989 1.7977ZM25.8189 21.6777C27.0589 19.7477 28.1089 17.2977 28.1089 14.3077C28.1089 10.8377 26.7689 7.9077 24.9389 5.5677C24.1689 4.5877 24.1289 4.3277 24.1289 3.6877V1.7277C24.1289 1.1577 23.6389 0.6677 23.0689 0.6677C22.4889 0.6677 21.9989 1.1577 21.9989 1.7277V3.8377C21.9989 5.3777 22.2489 5.6077 23.1389 6.7577C24.6789 8.7577 25.9089 11.2177 25.9089 14.3077C25.9089 16.5777 25.2289 18.4477 24.0689 19.9277ZM4.8989 27.8477C5.4689 27.8477 5.9489 27.3477 5.9489 26.7877V26.0277H7.6689V26.7877C7.6689 27.3477 8.1589 27.8477 8.7289 27.8477C9.2989 27.8477 9.7889 27.3477 9.7889 26.7877V26.0277H11.3389V26.7877C11.3389 27.3477 11.8389 27.8477 12.3989 27.8477C12.9789 27.8477 13.4689 27.3477 13.4689 26.7877V26.0277H14.9489V26.7877C14.9489 27.3477 15.4489 27.8477 16.0089 27.8477C16.5689 27.8477 17.0789 27.3477 17.0789 26.7877V26.0277H18.6189V26.7877C18.6189 27.3477 19.1189 27.8477 19.6889 27.8477C20.2589 27.8477 20.7389 27.3477 20.7389 26.7877V26.0277H21.5089L17.8689 22.4177H7.2589C4.4289 20.7877 2.5189 18.0777 2.5189 14.3077C2.5189 12.0277 3.1889 10.0277 4.2089 8.3477L2.6289 6.7577C1.2289 8.8777 0.3189 11.4377 0.3189 14.3077C0.3189 17.4377 1.4889 19.9277 2.7589 21.8777C3.4489 22.9477 3.8289 23.9877 3.8289 24.7777V26.7877C3.8289 27.3477 4.3189 27.8477 4.8989 27.8477ZM18.0989 9.8777C19.0589 9.8777 19.6089 10.6677 19.8089 11.7277C19.9089 12.2177 20.2189 12.4877 20.6889 12.4877C21.2089 12.4877 21.4989 12.0977 21.4989 11.6577C21.4989 11.4477 21.4789 11.2577 21.4289 11.0577C21.1289 9.4577 19.6889 8.2677 18.0889 8.2677C16.4189 8.2677 15.4089 9.3077 14.8789 10.7277L16.2989 12.1577C16.5589 10.7577 17.1289 9.8777 18.0989 9.8777ZM10.3289 20.0377C10.8989 20.0377 11.2489 19.6077 11.2489 19.0277V15.3777L9.4089 13.5277V19.0277C9.4089 19.6077 9.7389 20.0377 10.3289 20.0377Z"
        fillRule="evenodd"
        clipRule="evenodd"
    />
</svg>
        