
<svg
    viewBox="0 0 35.7109375 27.1796875"
    xmlns="http://www.w3.org/2000/svg"
>
    <path
        fill="inherit"
        d="M0.0027 13.6446C0.0027 16.7746 1.1927 19.2646 2.4427 21.2146C3.1327 22.2846 3.5227 23.3246 3.5227 24.1146V26.1246C3.5227 26.6846 4.0027 27.1846 4.5827 27.1846C5.1527 27.1846 5.6427 26.6846 5.6427 26.1246V25.3646H7.3527V26.1246C7.3527 26.6846 7.8427 27.1846 8.4227 27.1846C8.9927 27.1846 9.4727 26.6846 9.4727 26.1246V25.3646H11.0227V26.1246C11.0227 26.6846 11.5227 27.1846 12.1027 27.1846C12.6727 27.1846 13.1527 26.6846 13.1527 26.1246V25.3646H14.6427V26.1246C14.6427 26.6846 15.1327 27.1846 15.6927 27.1846C16.2727 27.1846 16.7727 26.6846 16.7727 26.1246V25.3646H18.3227V26.1246C18.3227 26.6846 18.8027 27.1846 19.3727 27.1846C19.9427 27.1846 20.4427 26.6846 20.4427 26.1246V25.3646H22.1527V26.1246C22.1527 26.6846 22.6427 27.1846 23.2127 27.1846C23.7927 27.1846 24.2827 26.6846 24.2827 26.1246V24.1346C24.2827 23.3946 24.7227 22.2946 25.4827 21.0246C26.6627 19.1146 27.8127 16.6846 27.8127 13.6446C27.8127 10.1746 26.4727 7.2446 24.6227 4.9046C23.8727 3.9246 23.8327 3.6646 23.8327 3.0246V1.0646C23.8327 0.4946 23.3227 0.0046 22.7527 0.0046C22.1727 0.0046 21.6927 0.4946 21.6927 1.0646V3.1746C21.6927 4.7146 21.9327 4.9446 22.8227 6.0946C24.3627 8.0946 25.6027 10.5546 25.6027 13.6446C25.6027 17.4146 23.6827 20.1246 20.8527 21.7546H6.9427C4.1327 20.1246 2.2027 17.4146 2.2027 13.6446C2.2027 10.5546 3.4427 8.0946 4.9727 6.0946C5.8827 4.9446 6.1127 4.7146 6.1127 3.1746V1.0646C6.1127 0.4946 5.6227 0.0046 5.0627 0.0046C4.4827 0.0046 3.9827 0.4946 3.9827 1.0646V3.0246C3.9827 3.6646 3.9327 3.9246 3.1727 4.9046C1.3427 7.2446 0.0027 10.1746 0.0027 13.6446ZM33.9227 16.7046C34.5927 16.7046 35.0727 16.2446 35.0927 15.5446L35.3727 5.8646C35.3927 4.9946 34.8227 4.4046 33.9227 4.4046C33.0127 4.4046 32.4427 4.9946 32.4727 5.8646L32.7627 15.5446C32.7827 16.2446 33.2527 16.7046 33.9227 16.7046ZM17.8427 19.4546C19.6327 19.4546 20.7027 18.1946 21.0527 16.9246C21.1527 16.5846 21.2027 16.3246 21.2027 16.1146C21.2027 15.5446 20.7827 15.2546 20.3427 15.2546C19.8827 15.2546 19.6027 15.5346 19.5227 15.9846C19.3427 16.9946 18.8427 17.8546 17.8127 17.8546C16.2927 17.8546 15.8227 15.7046 15.8227 13.5046C15.8227 10.8846 16.4727 9.2146 17.8027 9.2146C18.7627 9.2146 19.3027 10.0046 19.5127 11.0646C19.5927 11.5546 19.9027 11.8246 20.3727 11.8246C20.9027 11.8246 21.1927 11.4346 21.1927 10.9946C21.1927 10.7846 21.1627 10.5946 21.1227 10.3946C20.8127 8.7946 19.3827 7.6046 17.7827 7.6046C14.9127 7.6046 13.9627 10.6346 13.9627 13.5046C13.9627 16.5746 14.9827 19.4546 17.8427 19.4546ZM10.0127 19.3746C10.5927 19.3746 10.9327 18.9446 10.9327 18.3646V9.4446H12.5927C13.0727 9.4446 13.4427 9.1446 13.4427 8.6446C13.4427 8.1446 13.0927 7.8446 12.5927 7.8446H7.4327C7.0027 7.8446 6.5927 8.0946 6.5927 8.6446C6.5927 9.1346 6.9727 9.4446 7.4327 9.4446H9.0927V18.3646C9.0927 18.9446 9.4327 19.3746 10.0127 19.3746ZM33.9227 22.7746C34.8927 22.7746 35.7127 21.9846 35.7127 21.0546C35.7127 20.1146 34.9027 19.3346 33.9227 19.3346C32.9327 19.3346 32.1327 20.1146 32.1327 21.0546C32.1327 21.9846 32.9527 22.7746 33.9227 22.7746Z"
        fillRule="evenodd"
        clipRule="evenodd"
    />
</svg>
        