
<svg
    viewBox={0 0 34.083984375 21.697265625}
    xmlns="http://www.w3.org/2000/svg"
>
    <path
        fill="inherit"
        d="M0.0037 17.5129C0.0037 20.3029 1.4037 21.6929 4.2337 21.6929H29.8437C32.6737 21.6929 34.0837 20.3029 34.0837 17.5129V4.1829C34.0837 1.3929 32.6737 0.0029 29.8437 0.0029H7.5437C5.2137 0.0029 3.8537 1.3529 3.1537 3.4629L0.4637 11.6329C0.1337 12.5929 0.0037 13.4029 0.0037 14.4829ZM13.3537 10.6129V6.4029C13.3537 5.5829 13.8537 5.1029 14.6537 5.1029H27.3137C28.1337 5.1029 28.6137 5.5829 28.6137 6.4029V10.6129C28.6137 11.3929 28.1337 11.8629 27.3137 11.8629H14.6537C13.8537 11.8629 13.3537 11.3929 13.3537 10.6129ZM4.8937 11.8629C4.1337 11.8629 3.7237 11.2529 4.0337 10.2829L5.4137 6.0829C5.6037 5.4829 5.9037 5.1029 6.8737 5.1029H8.4337C9.2437 5.1029 9.7337 5.5829 9.7337 6.4029V10.6129C9.7337 11.3929 9.2437 11.8629 8.4337 11.8629Z"
        fillRule="evenodd"
        clipRule="evenodd"
    />
</svg>
        