<svg viewBox="0 0 37.501953125 21.697265625" xmlns="http://www.w3.org/2000/svg"><path d="M0.0037 17.5129C0.0037 20.3029 1.4037 21.6929 4.2337 21.6929H30.5937C35.1337 21.6929 37.5037 19.0429 37.5037 15.9129C37.5037 14.0029 36.6437 11.9229 34.7937 10.1029L29.2037 4.5529C25.6637 1.0529 23.3837 0.0029 19.1937 0.0029H4.2337C1.4037 0.0029 0.0037 1.3929 0.0037 4.1829ZM14.4637 11.0229V5.9929C14.4637 5.1729 14.9437 4.6929 15.7637 4.6929H19.5137C23.4037 4.6929 25.2337 5.1929 27.1837 7.1129L30.3237 10.2429C31.1837 11.1029 30.6837 12.2729 29.7537 12.2729H15.7637C14.9437 12.2729 14.4637 11.8029 14.4637 11.0229Z" /></svg>