
<svg
    viewBox={0 0 24.828125 34.31640625}
    xmlns="http://www.w3.org/2000/svg"
>
    <path
        fill="inherit"
        d="M2.9937 34.3177H3.7637C4.1337 34.3177 4.3437 34.1777 4.5537 33.8477L5.3437 32.5977H19.5337L20.3137 33.8477C20.5237 34.1777 20.7437 34.3177 21.1237 34.3177H21.8937C22.5137 34.3177 22.8037 33.6877 22.4637 33.1277L19.8337 28.8777C22.9437 28.8777 24.8237 26.7177 24.8237 23.6477V15.2977C24.8237 11.6377 24.3537 7.8577 23.7337 5.3777C23.0537 2.4777 21.0437 0.5777 18.3237 0.2777C17.4137 0.1777 15.0237 -0.0023 12.4137 -0.0023C9.5337 -0.0023 7.3937 0.1777 6.5037 0.2777C3.7737 0.5777 1.7737 2.4777 1.0937 5.3777C0.4637 7.8577 0.0037 11.5077 0.0037 15.1777V23.6477C0.0037 26.7177 1.8737 28.8777 5.0137 28.8777L2.3837 33.1277C2.0237 33.6977 2.3537 34.3177 2.9937 34.3177ZM5.3337 27.0877C2.8837 27.0877 1.7937 25.6477 1.7937 23.6477V15.1777C1.7937 11.6377 2.2537 8.1377 2.8337 5.7677C3.3537 3.6077 4.7437 2.2677 6.6837 2.0677C7.6137 1.9577 9.6537 1.7877 12.4137 1.7877C14.9037 1.7877 17.2037 1.9577 18.1337 2.0677C20.0837 2.2677 21.4737 3.6077 21.9937 5.7677C22.5737 8.1377 23.0337 11.7577 23.0337 15.2977V23.6477C23.0337 25.6477 21.9437 27.0877 19.4837 27.0877ZM8.9137 5.3877H15.9037C16.4237 5.3877 16.7437 5.0477 16.7437 4.5377C16.7437 4.0377 16.4237 3.7177 15.9037 3.7177H8.9137C8.4037 3.7177 8.0837 4.0377 8.0837 4.5377C8.0837 5.0477 8.4037 5.3877 8.9137 5.3877ZM12.4137 19.2777C15.8437 19.2477 18.4837 19.1177 19.9637 18.9377C20.7837 18.8277 21.0937 18.2977 21.0937 17.5277V14.3877C21.0937 11.6177 20.7937 9.3877 20.5737 8.4177C20.4437 7.8177 20.0537 7.3877 19.4437 7.3177C17.9337 7.1277 16.3137 7.0277 12.4137 7.0177C8.5037 7.0277 6.8737 7.1277 5.3337 7.3177C4.7437 7.3877 4.3737 7.8177 4.2337 8.4177C4.0237 9.3877 3.7237 11.6177 3.7237 14.3877V17.5277C3.7237 18.2977 4.0337 18.8277 4.8537 18.9377C6.3337 19.1177 8.9737 19.2477 12.4137 19.2777ZM18.7437 24.9677C19.7937 24.9677 20.6337 24.1477 20.6337 23.0677C20.6337 21.9977 19.8137 21.1877 18.7437 21.1877C17.6637 21.1877 16.8437 21.9977 16.8437 23.0677C16.8437 24.1477 17.6637 24.9677 18.7437 24.9677ZM6.0537 24.9477C7.1237 24.9477 7.9437 24.1577 7.9437 23.0677C7.9437 21.9877 7.1537 21.2077 6.0537 21.2077C4.9737 21.2077 4.1937 21.9877 4.1937 23.0677C4.1937 24.1577 4.9737 24.9477 6.0537 24.9477ZM6.6137 30.5477L7.6437 28.8777H17.2437L18.2637 30.5477Z"
        fillRule="evenodd"
        clipRule="evenodd"
    />
</svg>
        