
<svg
    viewBox={0 0 22.99609375 33.865234375}
    xmlns="http://www.w3.org/2000/svg"
>
    <path
        fill="inherit"
        d="M3.8237 27.8465H4.4737L1.4637 32.6765C1.1037 33.2465 1.4337 33.8665 2.0737 33.8665H2.8437C3.2237 33.8665 3.4337 33.7265 3.6337 33.3965L4.4337 32.1465H18.6237L19.4037 33.3965C19.6037 33.7265 19.8237 33.8665 20.2037 33.8665H20.9737C21.6037 33.8665 21.8937 33.2365 21.5437 32.6765L18.5837 27.8465H19.1637C21.6037 27.8465 22.9937 26.1865 22.9937 23.8465V14.0365C22.9937 10.4065 22.5337 6.8465 21.9737 4.5965C21.4137 2.2665 19.8337 0.5365 17.4137 0.2765C16.5437 0.1765 14.2637 -0.0035 11.4937 -0.0035C8.7337 -0.0035 6.4437 0.1765 5.5737 0.2765C3.1437 0.5365 1.5837 2.2665 1.0237 4.5965C0.4637 6.8465 0.0037 10.4065 0.0037 14.0365V23.8465C0.0037 26.1865 1.3937 27.8465 3.8237 27.8465ZM7.9937 4.2565C7.4937 4.2565 7.1637 3.9065 7.1637 3.4065C7.1637 2.8965 7.4937 2.5865 7.9937 2.5865H14.9837C15.5037 2.5865 15.8337 2.8965 15.8337 3.4065C15.8337 3.9065 15.5037 4.2565 14.9837 4.2565ZM11.4937 18.8265C8.3237 18.7965 5.4137 18.6665 3.9337 18.4865C3.1137 18.3765 2.8037 17.8465 2.8037 17.0765V13.9365C2.8037 11.1665 3.1037 8.9365 3.3237 7.9665C3.4637 7.3665 3.8237 6.9365 4.4137 6.8665C5.9637 6.6765 7.8637 6.5765 11.4937 6.5665C15.1237 6.5465 17.0237 6.6765 18.5237 6.8665C19.1437 6.9365 19.5237 7.3665 19.6637 7.9665C19.8837 8.9365 20.1837 11.1665 20.1837 13.9365V17.0765C20.1837 17.8565 19.8637 18.3865 19.0437 18.4865C16.8437 18.7165 13.9337 18.8265 11.4937 18.8265ZM17.8237 24.9965C16.7437 24.9965 15.9237 24.1865 15.9237 23.1065C15.9237 22.0365 16.7437 21.2165 17.8237 21.2165C18.8937 21.2165 19.7137 22.0365 19.7137 23.1065C19.7137 24.1865 18.8837 24.9965 17.8237 24.9965ZM5.1437 24.9765C4.0637 24.9765 3.2837 24.1965 3.2837 23.1065C3.2837 22.0265 4.0637 21.2365 5.1437 21.2365C6.2337 21.2365 7.0237 22.0265 7.0237 23.1065C7.0237 24.1965 6.2037 24.9765 5.1437 24.9765ZM5.7037 30.0965L7.0837 27.8465H15.9737L17.3537 30.0965Z"
        fillRule="evenodd"
        clipRule="evenodd"
    />
</svg>
        