
<svg
    viewBox={0 0 27.890625 27.890625}
    xmlns="http://www.w3.org/2000/svg"
>
    <path
        fill="inherit"
        d="M13.9427 27.8927C21.6427 27.8927 27.8927 21.6427 27.8927 13.9427C27.8927 6.2627 21.6427 0.0027 13.9427 0.0027C6.2627 0.0027 0.0027 6.2627 0.0027 13.9427C0.0027 21.6427 6.2627 27.8927 13.9427 27.8927ZM8.1727 17.5827V12.6427C8.1727 10.8427 8.4227 9.0527 8.6927 7.9027C8.9827 6.7527 9.7727 5.8927 10.9827 5.7527C11.4027 5.7027 12.5527 5.6027 13.9427 5.6027C15.3427 5.6027 16.4927 5.7027 16.9127 5.7527C18.1127 5.8927 18.9127 6.7527 19.1927 7.9027C19.4727 9.0527 19.7127 10.8427 19.7127 12.6427V17.5827C19.7127 18.8927 19.0027 19.5827 17.5027 19.5827L18.9727 21.9827C19.1727 22.2727 19.0127 22.6027 18.7027 22.6027H18.3227C18.1127 22.6027 18.0027 22.5327 17.9127 22.3627L17.5027 21.7227H10.4227L10.0127 22.3627C9.9127 22.5327 9.8027 22.6027 9.5927 22.6027H9.2327C8.9027 22.6027 8.7327 22.2727 8.9327 21.9827L10.4327 19.5827C8.9827 19.5627 8.1727 18.9727 8.1727 17.5827ZM11.7727 7.3327C11.7727 7.5627 11.9527 7.7527 12.1927 7.7527H15.6927C15.9427 7.7527 16.1327 7.5627 16.1327 7.3327C16.1327 7.0727 15.9427 6.9227 15.6927 6.9227H12.1927C11.9527 6.9227 11.7727 7.0727 11.7727 7.3327ZM9.5827 14.1727C9.5827 14.5727 9.7527 14.8327 10.1627 14.8727C10.8927 14.9527 12.3427 15.0427 13.9427 15.0527C15.1727 15.0527 16.6227 15.0027 17.7327 14.8727C18.1427 14.8327 18.3027 14.5727 18.3027 14.1727V12.5927C18.3027 11.2127 18.1427 10.1027 18.0427 9.6127C17.9827 9.2927 17.7827 9.0927 17.4727 9.0527C16.7227 8.9727 15.7627 8.8827 13.9427 8.9027C12.1227 8.9027 11.1727 8.9727 10.3927 9.0527C10.1027 9.0927 9.9127 9.2927 9.8427 9.6127C9.7527 10.1027 9.5827 11.2127 9.5827 12.5927ZM16.1727 17.2027C16.1727 17.7327 16.5827 18.1527 17.1127 18.1527C17.6327 18.1527 18.0727 17.7327 18.0727 17.2027C18.0727 16.6527 17.6527 16.2427 17.1127 16.2427C16.5827 16.2427 16.1727 16.6527 16.1727 17.2027ZM9.8327 17.2027C9.8327 17.7427 10.2227 18.1427 10.7627 18.1427C11.2927 18.1427 11.7027 17.7427 11.7027 17.2027C11.7027 16.6527 11.3027 16.2527 10.7627 16.2527C10.2227 16.2527 9.8327 16.6527 9.8327 17.2027ZM11.0427 20.6827H16.8727L16.1827 19.5827H11.7327Z"
        fillRule="evenodd"
        clipRule="evenodd"
    />
</svg>
        