
<svg
    viewBox="0 0 30.7890625 30.34697422018911"
    xmlns="http://www.w3.org/2000/svg"
>
    <path
        fill="inherit"
        d="M15.3927 28.4366C15.7327 28.4366 16.0927 28.4266 16.4327 28.3966L17.2427 29.9266C17.4227 30.2366 17.7027 30.3866 18.0627 30.3366C18.4327 30.2666 18.6527 30.0366 18.7127 29.6566L18.9527 27.9566C19.6227 27.7666 20.2727 27.5366 20.9027 27.2466L22.1627 28.4066C22.4527 28.6566 22.7727 28.6866 23.0927 28.5066C23.4027 28.3266 23.5327 28.0166 23.4627 27.6566L23.0927 25.9766C23.6627 25.5766 24.2127 25.1266 24.7027 24.6366L26.2927 25.2766C26.6327 25.4166 26.9427 25.3566 27.1827 25.0766C27.4127 24.7866 27.4427 24.4666 27.2527 24.1466L26.3427 22.7066C26.7427 22.1366 27.0827 21.5266 27.4027 20.8766L29.0927 20.9466C29.4627 20.9566 29.7327 20.7766 29.8627 20.4366C29.9827 20.0966 29.9027 19.7766 29.6027 19.5466L28.2827 18.5266C28.4627 17.8366 28.5927 17.1466 28.6527 16.4166L30.2427 15.9166C30.5927 15.8066 30.7927 15.5466 30.7927 15.1766C30.7927 14.8066 30.5927 14.5466 30.2427 14.4266L28.6727 13.9266C28.6027 13.2066 28.4827 12.4966 28.3027 11.7966L29.6027 10.7966C29.9027 10.5566 29.9827 10.2566 29.8427 9.9066C29.7327 9.5666 29.4627 9.3766 29.0827 9.3866L27.4627 9.4466C27.1527 8.7866 26.7927 8.1766 26.3727 7.5766L27.2527 6.2066C27.4427 5.8766 27.4127 5.5666 27.1827 5.2766C26.9427 4.9866 26.6327 4.9166 26.2927 5.0566L24.7827 5.6866C24.2627 5.1566 23.7027 4.6766 23.1227 4.2466L23.4627 2.6866C23.5327 2.3266 23.4027 2.0166 23.0927 1.8466C22.7727 1.6566 22.4527 1.6966 22.1627 1.9366L20.9827 3.0166C20.3327 2.7166 19.6427 2.4566 18.9227 2.2566L18.7127 0.6866C18.6527 0.3166 18.4327 0.0766 18.0627 0.0166C17.7027 -0.0434 17.4227 0.0966 17.2227 0.4266L16.4927 1.8266C16.1227 1.8066 15.7627 1.7866 15.3927 1.7866C15.0227 1.7866 14.6727 1.8066 14.3027 1.8266L13.5527 0.4266C13.3727 0.0966 13.0727 -0.0434 12.7327 0.0166C12.3627 0.0666 12.1427 0.3166 12.0727 0.6866L11.8627 2.2566C11.1427 2.4566 10.4627 2.7166 9.8027 3.0166L8.6227 1.9366C8.3427 1.6966 8.0127 1.6566 7.6927 1.8466C7.3827 2.0166 7.2627 2.3266 7.3327 2.6866L7.6727 4.2466C7.0827 4.6766 6.5127 5.1666 5.9927 5.6866L4.5027 5.0566C4.1527 4.9166 3.8427 4.9866 3.6127 5.2766C3.3727 5.5666 3.3527 5.8766 3.5427 6.2066L4.4127 7.5766C3.9927 8.1766 3.6327 8.7866 3.3227 9.4466L1.6927 9.4066C1.3227 9.3766 1.0527 9.5666 0.9327 9.9066C0.8027 10.2566 0.8927 10.5666 1.1927 10.7966L2.4927 11.7966C2.3127 12.4966 2.1827 13.2066 2.1227 13.9266L0.5427 14.4266C0.1927 14.5466 0.0027 14.8066 0.0027 15.1766C0.0027 15.5466 0.1927 15.8066 0.5427 15.9166L2.1327 16.4166C2.2027 17.1466 2.3227 17.8366 2.5027 18.5266L1.1927 19.5466C0.8927 19.7966 0.8027 20.0866 0.9427 20.4366C1.0527 20.7766 1.3227 20.9666 1.6927 20.9466L3.3927 20.8866C3.7027 21.5266 4.0427 22.1366 4.4427 22.7066L3.5427 24.1466C3.3527 24.4666 3.3727 24.7866 3.6127 25.0766C3.8427 25.3566 4.1527 25.4266 4.5027 25.2766L6.0827 24.6366C6.5727 25.1266 7.1227 25.5766 7.6927 25.9766L7.3327 27.6566C7.2627 28.0266 7.3827 28.3166 7.6927 28.5066C8.0127 28.6966 8.3427 28.6566 8.6227 28.4066L9.8827 27.2466C10.5127 27.5366 11.1727 27.7666 11.8427 27.9566L12.0727 29.6566C12.1427 30.0366 12.3627 30.2666 12.7327 30.3366C13.0727 30.3866 13.3727 30.2366 13.5527 29.9166L14.3527 28.3966C14.7127 28.4266 15.0527 28.4366 15.3927 28.4366ZM15.3927 26.2066C9.2727 26.2066 4.2927 21.2266 4.2927 15.1066C4.2927 8.9766 9.2727 4.0066 15.3927 4.0066C21.5227 4.0066 26.4927 8.9766 26.4927 15.1066C26.4927 21.2266 21.5227 26.2066 15.3927 26.2066Z"
        fillRule="evenodd"
        clipRule="evenodd"
    />
</svg>
        