<svg viewBox="0 0 43.025390625 31.28125" xmlns="http://www.w3.org/2000/svg"><path d="M35.2737 31.2817C36.2137 31.2817 36.7337 30.6117 36.7337 29.5717V26.2917H37.3137C40.7437 26.2917 43.0237 24.2117 43.0237 20.6417V12.5617C43.0237 8.9817 40.7437 6.9017 37.3137 6.9017H24.6937V5.6617C24.6937 2.0817 22.5537 0.0017 18.9737 0.0017H5.7137C2.2837 0.0017 0.0037 2.0817 0.0037 5.6617V13.7417C0.0037 17.3217 2.2837 19.3817 5.7137 19.3817H6.2737V22.6717C6.2737 23.7117 6.8037 24.3817 7.7537 24.3817C8.4237 24.3817 8.8737 24.0117 9.6937 23.3017L14.2637 19.3817H18.3337V20.6417C18.3337 24.2217 20.4537 26.2917 24.0537 26.2917H28.7537L33.3337 30.2017C34.1537 30.9117 34.6037 31.2817 35.2737 31.2817ZM8.3237 18.4417C8.3237 17.6817 7.8637 17.3317 7.2737 17.3317H5.8337C3.5637 17.3317 2.2037 16.0917 2.2037 13.6717V5.7317C2.2037 3.3217 3.5537 2.0617 5.8337 2.0617H18.8537C21.1237 2.0617 22.4937 3.3217 22.4937 5.7317V7.0517C19.8537 7.5917 18.3337 9.5317 18.3337 12.5617V17.3317H14.3437C13.6037 17.3317 13.2637 17.4817 12.7237 17.9617L8.3237 21.9017ZM7.5437 13.7817C7.2737 14.5317 7.6837 15.2317 8.4737 15.2317C8.9937 15.2317 9.3237 14.9417 9.5137 14.3717L10.3537 11.9617H14.3737L15.2037 14.3717C15.4037 14.9417 15.7237 15.2317 16.2437 15.2317C17.0537 15.2317 17.4437 14.5317 17.1737 13.7817L13.7937 4.7217C13.5537 4.0517 13.0537 3.6817 12.3437 3.6817C11.6637 3.6817 11.1537 4.0517 10.9137 4.7217ZM10.9137 10.2817L12.3437 6.0817L13.7937 10.2817ZM30.9137 12.9717C30.4337 13.1817 29.8737 12.9917 29.6537 12.4917L28.9937 11.1117C28.7537 10.6117 28.9537 10.0517 29.4237 9.8317C29.9137 9.5517 30.4637 9.7917 30.7037 10.3117L31.3737 11.6717C31.6237 12.1717 31.4137 12.7117 30.9137 12.9717ZM26.3037 13.4517H35.2337C35.7937 13.4517 36.2037 13.8317 36.2037 14.3517C36.2037 14.8917 35.7937 15.2817 35.2337 15.2817H34.1837C33.8137 16.6617 33.1237 17.9217 32.1537 18.9617C33.1137 19.5917 34.1837 20.0417 35.4237 20.3317C36.0137 20.4517 36.2837 20.9217 36.1337 21.5017C35.9837 22.0817 35.4237 22.2817 34.7537 22.1217C33.3737 21.7917 31.9737 21.1617 30.7937 20.2617C29.5437 21.1817 28.1537 21.8017 26.6637 22.1317C26.0737 22.3017 25.5237 22.0517 25.3737 21.5017C25.2637 20.9617 25.5837 20.4517 26.1137 20.3317C27.3537 20.0317 28.4337 19.5817 29.3637 18.9617C28.4137 17.8917 27.7137 16.6217 27.3437 15.2817H26.3037C25.7437 15.2817 25.3337 14.8917 25.3337 14.3517C25.3337 13.8317 25.7437 13.4517 26.3037 13.4517ZM32.2637 15.2817H29.2737C29.5837 16.2017 30.1237 17.0617 30.7937 17.8017C31.4437 17.0517 31.9537 16.1917 32.2637 15.2817Z" /></svg>