
<svg
    viewBox={0 0 27.91792336152243 32.703125}
    xmlns="http://www.w3.org/2000/svg"
>
    <path
        fill="inherit"
        d="M0.1361 23.871C-0.4039 26.061 0.6761 27.421 3.1161 27.421H12.9361V31.611C12.9361 32.281 13.3361 32.701 13.9761 32.701C14.6061 32.701 14.9961 32.281 14.9961 31.611V27.421H24.7861C27.2461 27.421 28.3161 26.061 27.7861 23.871L23.9861 8.431C23.4761 6.371 22.3261 5.281 20.1161 5.281H14.9961V1.091C14.9961 0.411 14.6061 0.001 13.9761 0.001C13.3361 0.001 12.9361 0.411 12.9361 1.091V5.281H7.8061C5.5761 5.281 4.4461 6.371 3.9261 8.431ZM2.2161 23.871L5.8961 8.721C6.1261 7.781 6.6861 7.341 7.7161 7.341H12.9361V25.361H3.3261C2.4461 25.361 1.9961 24.771 2.2161 23.871ZM20.2061 7.341C21.2361 7.341 21.7961 7.781 22.0261 8.721L25.6961 23.871C25.9261 24.771 25.4761 25.361 24.5861 25.361H14.9961V7.341Z"
        fillRule="evenodd"
        clipRule="evenodd"
    />
</svg>
        