
<svg
    viewBox={0 0 27.94839537810389 32.703125}
    xmlns="http://www.w3.org/2000/svg"
>
    <path
        fill="inherit"
        d="M27.8352 24.021L23.9652 8.331C23.4752 6.321 22.2052 5.281 20.2352 5.281H15.0152V1.091C15.0152 0.411 14.6152 0.001 13.9852 0.001C13.3452 0.001 12.9452 0.411 12.9452 1.091V5.281H15.0152V27.421H24.8952C27.1552 27.421 28.3252 26.071 27.8352 24.021ZM3.0352 27.421H12.9452V31.611C12.9452 32.281 13.3452 32.701 13.9852 32.701C14.6152 32.701 15.0152 32.281 15.0152 31.611V27.421H12.9452V5.281H7.7152C5.7252 5.281 4.4552 6.321 3.9652 8.331L0.1152 24.021C-0.3848 26.071 0.7952 27.421 3.0352 27.421Z"
        fillRule="evenodd"
        clipRule="evenodd"
    />
</svg>
        