
<svg
    viewBox="0 0 33.072265625 23.981197995876148"
    xmlns="http://www.w3.org/2000/svg"
>
    <path
        fill="inherit"
        d="M33.0737 12.0025C33.0737 11.3425 32.6637 10.9625 31.9737 10.9625H28.1637V3.6625C28.1637 1.0525 26.3837 -0.3875 23.7237 0.0925L8.9237 2.6925C6.3037 3.1425 4.9037 4.5525 4.9037 6.7625V10.9625H28.1637V13.0225H31.9737C32.6637 13.0225 33.0737 12.6325 33.0737 12.0025ZM1.0937 13.0225H4.9037V17.2225C4.9037 19.4225 6.3037 20.8425 8.9237 21.3125L23.7237 23.8925C26.3837 24.3625 28.1637 22.9325 28.1637 20.3225V13.0225H4.9037V10.9625H1.0937C0.4137 10.9625 0.0037 11.3425 0.0037 12.0025C0.0037 12.6325 0.4137 13.0225 1.0937 13.0225Z"
        fillRule="evenodd"
        clipRule="evenodd"
    />
</svg>
        