
<svg
    viewBox={0 0 25.169921875 25.169921875}
    xmlns="http://www.w3.org/2000/svg"
>
    <path
        fill="inherit"
        d="M4.2937 25.1692H20.8737C23.7437 25.1692 25.1737 23.7592 25.1737 20.9492V4.2392C25.1737 1.4192 23.7437 -0.0008 20.8737 -0.0008H4.2937C1.4337 -0.0008 0.0037 1.4192 0.0037 4.2392V20.9492C0.0037 23.7592 1.4337 25.1692 4.2937 25.1692ZM8.9537 20.8892C7.9937 20.8892 7.4337 20.3592 7.4137 19.3992L6.9137 8.2592H5.7737C5.4437 8.2592 5.1637 7.9992 5.1637 7.6692C5.1637 7.3292 5.4437 7.0592 5.7737 7.0592H9.1637V5.9192C9.1637 4.7392 9.9237 4.0092 11.1737 4.0092H14.0137C15.2437 4.0092 16.0337 4.7392 16.0337 5.9192V7.0592H19.4037C19.7437 7.0592 20.0137 7.3292 20.0037 7.6692C19.9837 7.9992 19.7437 8.2592 19.4037 8.2592H18.2937L17.8137 19.3992C17.7737 20.3592 17.1837 20.8892 16.2437 20.8892ZM10.5937 7.0592H14.5637V5.9892C14.5637 5.6192 14.3037 5.3892 13.9137 5.3892H11.2337C10.8537 5.3892 10.5937 5.6192 10.5937 5.9892ZM10.1737 18.6992C10.4837 18.6992 10.6637 18.4992 10.6637 18.2292L10.3937 9.9892C10.3937 9.6792 10.1737 9.4992 9.8837 9.4992C9.5537 9.4992 9.3637 9.6892 9.3637 9.9892L9.6537 18.2292C9.6537 18.4992 9.8837 18.6992 10.1737 18.6992ZM12.5737 18.6992C12.8937 18.6992 13.0937 18.4992 13.0937 18.2292V9.9892C13.0937 9.6892 12.8937 9.4992 12.5737 9.4992C12.2537 9.4992 12.0537 9.6892 12.0537 9.9892V18.2292C12.0537 18.4992 12.2637 18.6992 12.5737 18.6992ZM14.9737 18.6992C15.2537 18.6992 15.4937 18.4992 15.4937 18.2292L15.7737 9.9892C15.7737 9.6892 15.6037 9.4992 15.2737 9.4992C14.9737 9.4992 14.7637 9.6792 14.7537 9.9892L14.4737 18.2292C14.4737 18.4992 14.6737 18.6992 14.9737 18.6992Z"
        fillRule="evenodd"
        clipRule="evenodd"
    />
</svg>
        