
<svg
    viewBox="0 0 26.46706273688324 30.447265625"
    xmlns="http://www.w3.org/2000/svg"
>
    <path
        fill="inherit"
        d="M23.1548 21.4347L23.8148 7.3447H25.4548C26.0148 7.3447 26.4648 6.8647 26.4648 6.3047C26.4648 5.7447 26.0148 5.2747 25.4548 5.2747H19.2048V3.1947C19.2048 1.2047 17.9248 0.0047 15.8148 0.0047H10.6148C8.5248 0.0047 7.2448 1.2047 7.2448 3.1847V4.9947H6.7048L9.0648 7.3447H21.6148L21.0548 19.3547ZM24.6748 28.2047C25.0848 28.6147 25.7548 28.6147 26.1648 28.2047C26.5648 27.7847 26.5748 27.1247 26.1648 26.7147L1.8048 2.3347C1.3948 1.9247 0.7048 1.9247 0.2948 2.3347C-0.0952 2.7347 -0.0952 3.4347 0.2948 3.8247ZM9.4348 5.2747V3.3347C9.4348 2.5447 9.9648 2.0347 10.7848 2.0347H15.6648C16.4848 2.0347 17.0348 2.5447 17.0348 3.3347V5.2747ZM6.9648 30.4447H19.5048C20.9648 30.4447 22.0048 29.7347 22.5148 28.6147L22.5248 28.3147L20.7348 26.5247L20.7248 26.9747C20.7048 27.7647 20.1048 28.3847 19.2848 28.3847H7.1648C6.3848 28.3847 5.7948 27.7947 5.7548 26.9847L4.9548 10.7347L2.7148 8.4947L3.6048 27.2347C3.7048 29.1847 4.9848 30.4447 6.9648 30.4447ZM14.1148 12.4047V10.6247C14.1148 10.1447 13.7548 9.8147 13.2348 9.8147C12.9848 9.8147 12.7248 9.9147 12.5648 10.1047V10.8447ZM18.3848 16.6647L18.5648 10.6247C18.5748 10.1447 18.2248 9.8147 17.7048 9.8147C17.2248 9.8147 16.8648 10.1347 16.8548 10.6247L16.7348 15.0147ZM9.1848 26.0447C9.7048 26.0447 10.0448 25.7147 10.0348 25.2347L9.7448 15.5447L8.0048 13.7947L8.3248 25.2347C8.3348 25.7347 8.6748 26.0447 9.1848 26.0447ZM13.2348 26.0447C13.7548 26.0447 14.1148 25.7147 14.1148 25.2347V19.9047L12.3548 18.1547V25.2347C12.3548 25.7347 12.7148 26.0447 13.2348 26.0447ZM17.2948 26.0447C17.7848 26.0447 18.1248 25.7347 18.1348 25.2347L18.1848 23.9847L16.5248 22.3247L16.4448 25.2347C16.4348 25.7147 16.7748 26.0447 17.2948 26.0447Z"
        fillRule="evenodd"
        clipRule="evenodd"
    />
</svg>
        