
<svg
    viewBox={0 0 27.890625 27.890625}
    xmlns="http://www.w3.org/2000/svg"
>
    <path
        fill="inherit"
        d="M13.9427 27.8927C21.6427 27.8927 27.8927 21.6427 27.8927 13.9427C27.8927 6.2627 21.6427 0.0027 13.9427 0.0027C6.2627 0.0027 0.0027 6.2627 0.0027 13.9427C0.0027 21.6427 6.2627 27.8927 13.9427 27.8927ZM10.3127 22.2627C9.3527 22.2627 8.7927 21.7227 8.7627 20.7627L8.2727 9.6227H7.1227C6.7927 9.6227 6.5227 9.3627 6.5227 9.0327C6.5227 8.6927 6.7927 8.4227 7.1227 8.4227H10.5127V7.2827C10.5127 6.1227 11.2827 5.3727 12.5127 5.3727H15.3527C16.5927 5.3727 17.3727 6.1227 17.3727 7.2827V8.4227H20.7527C21.0927 8.4227 21.3727 8.6927 21.3527 9.0327C21.3427 9.3627 21.0927 9.6227 20.7527 9.6227H19.6427L19.1727 20.7627C19.1227 21.7227 18.5427 22.2627 17.5927 22.2627ZM11.9527 8.4227H15.9127V7.3727C15.9127 7.0027 15.6527 6.7527 15.2727 6.7527H12.5927C12.2127 6.7527 11.9527 7.0027 11.9527 7.3727ZM11.5227 20.0727C11.8227 20.0727 12.0127 19.8627 12.0127 19.5927L11.7427 11.3627C11.7427 11.0627 11.5227 10.8727 11.2427 10.8727C10.8927 10.8727 10.7227 11.0627 10.7227 11.3627L11.0027 19.5927C11.0027 19.8627 11.2427 20.0727 11.5227 20.0727ZM13.9327 20.0727C14.2427 20.0727 14.4527 19.8627 14.4527 19.5927V11.3627C14.4527 11.0627 14.2427 10.8727 13.9327 10.8727C13.6027 10.8727 13.4127 11.0627 13.4127 11.3627V19.5927C13.4127 19.8627 13.6127 20.0727 13.9327 20.0727ZM16.3227 20.0727C16.6127 20.0727 16.8427 19.8627 16.8427 19.5927L17.1327 11.3627C17.1327 11.0627 16.9527 10.8727 16.6227 10.8727C16.3227 10.8727 16.1227 11.0627 16.1027 11.3627L15.8327 19.5927C15.8327 19.8627 16.0227 20.0727 16.3227 20.0727Z"
        fillRule="evenodd"
        clipRule="evenodd"
    />
</svg>
        