
<svg
    viewBox={0 0 27.890625 27.890625}
    xmlns="http://www.w3.org/2000/svg"
>
    <path
        fill="inherit"
        d="M13.9427 27.8927C21.6427 27.8927 27.8927 21.6427 27.8927 13.9427C27.8927 6.2627 21.6427 0.0027 13.9427 0.0027C6.2627 0.0027 0.0027 6.2627 0.0027 13.9427C0.0027 21.6427 6.2627 27.8927 13.9427 27.8927ZM19.3227 16.8127L16.9927 14.4927L17.1127 11.3627C17.1327 11.0627 16.9227 10.8727 16.6127 10.8727C16.3127 10.8727 16.0927 11.0627 16.0927 11.3627L16.0127 13.5127L14.4527 11.9527V11.3627C14.4527 11.0627 14.2327 10.8727 13.9227 10.8727C13.8227 10.8727 13.7527 10.8927 13.7027 10.9527V11.2127L10.2227 7.7227H10.5027V7.2827C10.5027 6.1227 11.2827 5.3727 12.4927 5.3727H15.3527C16.5927 5.3727 17.3627 6.1227 17.3627 7.2827V8.4227H20.7427C21.0727 8.4227 21.3727 8.6927 21.3527 9.0327C21.3427 9.3527 21.0727 9.6227 20.7427 9.6227H19.6227ZM20.2627 21.1227L6.9627 7.8327C6.7127 7.5727 6.7127 7.1627 6.9627 6.9327C7.2027 6.6727 7.6127 6.6727 7.8627 6.9327L21.1527 20.2027C21.4127 20.4627 21.4127 20.8727 21.1527 21.1127C20.9027 21.3827 20.5127 21.3827 20.2627 21.1227ZM11.9227 8.4227H15.9127V7.3727C15.9127 7.0027 15.6427 6.7527 15.2627 6.7527H12.5827C12.1927 6.7527 11.9227 7.0027 11.9227 7.3727ZM10.2927 22.2627C9.3427 22.2627 8.7927 21.7227 8.7527 20.7627L8.3127 10.7227L10.7727 13.1627L11.0027 19.5927C11.0027 19.8627 11.2227 20.0727 11.5127 20.0727C11.8227 20.0727 12.0027 19.8627 11.9927 19.5927L11.8127 14.2327L13.4027 15.8027V19.5927C13.4027 19.8627 13.6027 20.0727 13.9227 20.0727C14.2227 20.0727 14.4527 19.8627 14.4527 19.5927V16.8527L15.8727 18.2827L15.8327 19.5927C15.8327 19.8627 15.9927 20.0727 16.3227 20.0727C16.5727 20.0727 16.7727 19.9227 16.8127 19.6827L16.8527 19.2727L18.9727 21.3827L18.9327 21.5027C18.7427 21.9527 18.2227 22.2627 17.5927 22.2627Z"
        fillRule="evenodd"
        clipRule="evenodd"
    />
</svg>
        