
<svg
    viewBox={0 0 25.169921875 25.169921875}
    xmlns="http://www.w3.org/2000/svg"
>
    <path
        fill="inherit"
        d="M4.2937 25.1692H20.8737C23.7437 25.1692 25.1737 23.7592 25.1737 20.9492V4.2392C25.1737 1.4192 23.7437 -0.0008 20.8737 -0.0008H4.2937C1.4337 -0.0008 0.0037 1.4192 0.0037 4.2392V20.9492C0.0037 23.7592 1.4337 25.1692 4.2937 25.1692ZM17.9637 15.4492L15.6537 13.1292L15.7737 9.9892C15.7737 9.6892 15.5737 9.4992 15.2537 9.4992C14.9737 9.4992 14.7337 9.6792 14.7337 9.9892L14.6537 12.1392L13.0937 10.5792V9.9892C13.0937 9.6892 12.8837 9.4992 12.5637 9.4992C12.4737 9.4992 12.4037 9.5292 12.3437 9.5792V9.8392L8.8737 6.3592H9.1637V5.9192C9.1637 4.7392 9.9237 4.0092 11.1437 4.0092H14.0037C15.2437 4.0092 16.0137 4.7392 16.0137 5.9192V7.0592H19.3837C19.7137 7.0592 20.0137 7.3292 20.0037 7.6692C19.9837 7.9892 19.7137 8.2592 19.3837 8.2592H18.2637ZM18.9037 19.7592L5.6037 6.4692C5.3637 6.1892 5.3637 5.7992 5.6037 5.5692C5.8637 5.2892 6.2637 5.2892 6.5037 5.5692L19.7937 18.8392C20.0737 19.0992 20.0737 19.4992 19.7937 19.7392C19.5537 19.9992 19.1637 20.0192 18.9037 19.7592ZM10.5637 7.0592H14.5637V5.9892C14.5637 5.6192 14.2837 5.3892 13.9037 5.3892H11.2237C10.8537 5.3892 10.5637 5.6192 10.5637 5.9892ZM8.9437 20.8892C7.9837 20.8892 7.4337 20.3592 7.3937 19.3992L6.9637 9.3492L9.4237 11.7992L9.6537 18.2292C9.6537 18.4992 9.8837 18.6992 10.1537 18.6992C10.4737 18.6992 10.6537 18.4992 10.6537 18.2292L10.4637 12.8692L12.0437 14.4392V18.2292C12.0437 18.4992 12.2537 18.6992 12.5637 18.6992C12.8637 18.6992 13.0937 18.4992 13.0937 18.2292V15.4892L14.5237 16.9092L14.4737 18.2292C14.4737 18.4992 14.6437 18.6992 14.9737 18.6992C15.2137 18.6992 15.4237 18.5492 15.4637 18.3192L15.5037 17.9092L17.6237 19.9992L17.5837 20.1392C17.3937 20.5892 16.8737 20.8892 16.2437 20.8892Z"
        fillRule="evenodd"
        clipRule="evenodd"
    />
</svg>
        