
<svg
    viewBox={0 0 27.890625 27.890625}
    xmlns="http://www.w3.org/2000/svg"
>
    <path
        fill="inherit"
        d="M13.9427 27.8864C21.6427 27.8864 27.8927 21.6464 27.8927 13.9464C27.8927 6.2464 21.6427 -0.0036 13.9427 -0.0036C6.2527 -0.0036 0.0027 6.2464 0.0027 13.9464C0.0027 21.6464 6.2527 27.8864 13.9427 27.8864ZM13.9427 25.5664C7.5227 25.5664 2.3227 20.3664 2.3227 13.9464C2.3227 7.5164 7.5227 2.3264 13.9427 2.3264C20.3727 2.3264 25.5627 7.5164 25.5627 13.9464C25.5627 20.3664 20.3727 25.5664 13.9427 25.5664ZM10.4027 21.9964H17.4727C18.3927 21.9964 18.9527 21.4764 18.9927 20.5664L19.4527 9.7464H20.5327C20.8627 9.7464 21.1127 9.4864 21.1227 9.1764C21.1327 8.8464 20.8627 8.5864 20.5327 8.5864H17.2527V7.4764C17.2527 6.3464 16.5027 5.6364 15.3027 5.6364H12.5327C11.3427 5.6364 10.6127 6.3464 10.6127 7.4764V8.5864H7.3127C7.0027 8.5864 6.7227 8.8464 6.7227 9.1764C6.7227 9.4864 7.0027 9.7464 7.3127 9.7464H8.4327L8.9127 20.5664C8.9427 21.4764 9.4727 21.9964 10.4027 21.9964ZM11.9927 8.5864V7.5464C11.9927 7.1864 12.2527 6.9564 12.6227 6.9564H15.2127C15.5827 6.9564 15.8427 7.1864 15.8427 7.5464V8.5864ZM11.5827 19.8764C11.3027 19.8764 11.0927 19.6864 11.0927 19.4164L10.8027 11.4264C10.8027 11.1464 10.9827 10.9464 11.3027 10.9464C11.5827 10.9464 11.8027 11.1264 11.8027 11.4264L12.0627 19.4164C12.0627 19.6864 11.8827 19.8764 11.5827 19.8764ZM13.9227 19.8764C13.6127 19.8764 13.4127 19.6864 13.4127 19.4164V11.4264C13.4127 11.1464 13.6027 10.9464 13.9227 10.9464C14.2227 10.9464 14.4227 11.1464 14.4227 11.4264V19.4164C14.4227 19.6864 14.2227 19.8764 13.9227 19.8764ZM16.2427 19.8764C15.9427 19.8764 15.7627 19.6864 15.7627 19.4164L16.0227 11.4264C16.0327 11.1264 16.2427 10.9464 16.5327 10.9464C16.8427 10.9464 17.0227 11.1464 17.0227 11.4264L16.7327 19.4164C16.7327 19.6864 16.5127 19.8764 16.2427 19.8764Z"
        fillRule="evenodd"
        clipRule="evenodd"
    />
</svg>
        