
<svg
    viewBox="0 0 27.890625 27.890625"
    xmlns="http://www.w3.org/2000/svg"
>
    <path
        fill="inherit"
        d="M13.9427 27.8864C21.6427 27.8864 27.8927 21.6464 27.8927 13.9464C27.8927 6.2464 21.6427 -0.0036 13.9427 -0.0036C6.2527 -0.0036 0.0027 6.2464 0.0027 13.9464C0.0027 21.6464 6.2527 27.8864 13.9427 27.8864ZM13.9427 25.5664C7.5227 25.5664 2.3227 20.3664 2.3227 13.9464C2.3227 7.5164 7.5227 2.3264 13.9427 2.3264C20.3727 2.3264 25.5627 7.5164 25.5627 13.9464C25.5627 20.3664 20.3727 25.5664 13.9427 25.5664ZM19.1427 16.7364L19.4427 9.7464H20.5227C20.8527 9.7464 21.1127 9.4864 21.1227 9.1764C21.1327 8.8464 20.8527 8.5864 20.5227 8.5864H17.2527V7.4764C17.2527 6.3464 16.5027 5.6364 15.3027 5.6364H12.5327C11.3427 5.6364 10.5927 6.3464 10.5927 7.4764V7.9164H10.3227L13.7027 11.2964V11.0364C13.7527 10.9764 13.8227 10.9464 13.9027 10.9464C14.2227 10.9464 14.4227 11.1464 14.4227 11.4264V12.0164L15.9427 13.5364L16.0227 11.4264C16.0227 11.1264 16.2327 10.9464 16.5327 10.9464C16.8327 10.9464 17.0227 11.1464 17.0127 11.4264L16.9027 14.4764ZM20.0527 20.9064C20.3127 21.1464 20.6827 21.1364 20.9227 20.8864C21.1827 20.6464 21.1827 20.2664 20.9227 20.0164L8.0427 7.1364C7.7927 6.8764 7.3927 6.8764 7.1627 7.1364C6.9227 7.3664 6.9227 7.7564 7.1627 8.0164ZM11.9727 8.5864V7.5464C11.9727 7.1864 12.2327 6.9564 12.6027 6.9564H15.2127C15.5827 6.9564 15.8427 7.1864 15.8427 7.5464V8.5864ZM10.4027 21.9964H17.4727C18.0927 21.9964 18.5927 21.7064 18.7727 21.2764L18.8127 21.1364L16.7627 19.0964L16.7227 19.5064C16.6827 19.7464 16.4727 19.8764 16.2427 19.8764C15.9327 19.8764 15.7627 19.6864 15.7627 19.4164L15.8027 18.1464L14.4227 16.7664V19.4164C14.4227 19.6864 14.2027 19.8764 13.9027 19.8764C13.6027 19.8764 13.4127 19.6864 13.4127 19.4164V15.7364L11.8627 14.2064L12.0427 19.4164C12.0627 19.6864 11.8827 19.8764 11.5827 19.8764C11.2927 19.8764 11.0927 19.6864 11.0927 19.4164L10.8527 13.1764L8.4727 10.7964L8.9027 20.5664C8.9427 21.4764 9.4727 21.9964 10.4027 21.9964Z"
        fillRule="evenodd"
        clipRule="evenodd"
    />
</svg>
        