
<svg
    viewBox={0 0 26.46706273688324 30.447265625}
    xmlns="http://www.w3.org/2000/svg"
>
    <path
        fill="inherit"
        d="M23.1748 21.0847L23.8148 7.3447H25.4548C26.0148 7.3447 26.4648 6.8647 26.4648 6.3047C26.4648 5.7447 26.0148 5.2747 25.4548 5.2747H19.2048V3.1847C19.2048 1.2047 17.9248 0.0047 15.8148 0.0047H10.6148C8.5248 0.0047 7.2448 1.2047 7.2448 3.1847V4.6047H6.7048L12.6248 10.5247V9.7847C12.7648 9.6547 12.9848 9.5747 13.2348 9.5747C13.7648 9.5747 14.1448 9.8947 14.1448 10.4047V12.0447L16.8448 14.7347L16.9648 10.4047C16.9748 9.8847 17.3448 9.5747 17.8348 9.5747C18.3848 9.5747 18.7448 9.8947 18.7248 10.4047L18.5448 16.4647ZM24.6748 28.2047C25.0848 28.6147 25.7548 28.6147 26.1648 28.2047C26.5648 27.7847 26.5748 27.1247 26.1648 26.7147L1.8048 2.3347C1.3948 1.9247 0.7048 1.9247 0.2948 2.3347C-0.0952 2.7347 -0.0952 3.4347 0.2948 3.8247ZM9.4148 5.2747V3.3247C9.4148 2.5447 9.9448 2.0347 10.7748 2.0347H15.6748C16.4848 2.0347 17.0348 2.5447 17.0348 3.3247V5.2747ZM6.9648 30.4447H19.5048C20.8148 30.4447 21.8548 29.8147 22.3548 28.8447L22.3648 28.5447L18.3348 24.5147L18.3048 25.4547C18.3048 25.9747 17.9348 26.2947 17.4148 26.2947C16.8848 26.2947 16.5248 25.9647 16.5348 25.4547L16.6048 22.7747L14.1448 20.3147V25.4547C14.1448 25.9647 13.7648 26.2947 13.2348 26.2947C12.6948 26.2947 12.3248 25.9647 12.3248 25.4547V18.5147L9.6648 15.8347L9.9348 25.4547C9.9448 25.9647 9.5948 26.2947 9.0648 26.2947C8.5248 26.2947 8.1748 25.9747 8.1548 25.4547L7.8548 14.0247L2.7348 8.9147L3.6048 27.2347C3.7048 29.1847 4.9848 30.4447 6.9648 30.4447Z"
        fillRule="evenodd"
        clipRule="evenodd"
    />
</svg>
        