
<svg
    viewBox={0 0 26.46875 30.447265625}
    xmlns="http://www.w3.org/2000/svg"
>
    <path
        fill="inherit"
        d="M6.9682 30.4447H19.5082C21.4682 30.4447 22.7782 29.1747 22.8682 27.2247L23.8182 7.3447H25.4582C26.0182 7.3447 26.4682 6.8647 26.4682 6.3047C26.4682 5.7447 26.0182 5.2747 25.4582 5.2747H19.2082V3.1847C19.2082 1.2047 17.9282 0.0047 15.8182 0.0047H10.6182C8.5182 0.0047 7.2282 1.2047 7.2282 3.1847V5.2747H1.0282C0.4782 5.2747 -0.0018 5.7447 -0.0018 6.3047C-0.0018 6.8747 0.4782 7.3447 1.0282 7.3447H2.6482L3.6082 27.2347C3.7082 29.1847 4.9882 30.4447 6.9682 30.4447ZM9.4082 3.3247C9.4082 2.5447 9.9482 2.0347 10.7782 2.0347H15.6682C16.4882 2.0347 17.0382 2.5447 17.0382 3.3247V5.2747H9.4082ZM9.0682 26.2947C8.5282 26.2947 8.1882 25.9747 8.1582 25.4547L7.7482 10.4047C7.7382 9.8947 8.0782 9.5747 8.6282 9.5747C9.1282 9.5747 9.4882 9.8847 9.4982 10.3947L9.9382 25.4547C9.9482 25.9647 9.5982 26.2947 9.0682 26.2947ZM13.2382 26.2947C12.6982 26.2947 12.3282 25.9647 12.3282 25.4547V10.4047C12.3282 9.8947 12.6982 9.5747 13.2382 9.5747C13.7682 9.5747 14.1482 9.8947 14.1482 10.4047V25.4547C14.1482 25.9647 13.7682 26.2947 13.2382 26.2947ZM17.4182 26.2947C16.8882 26.2947 16.5282 25.9647 16.5382 25.4547L16.9682 10.4047C16.9782 9.8847 17.3382 9.5747 17.8382 9.5747C18.3882 9.5747 18.7282 9.8947 18.7182 10.4047L18.3082 25.4547C18.2782 25.9747 17.9382 26.2947 17.4182 26.2947Z"
        fillRule="evenodd"
        clipRule="evenodd"
    />
</svg>
        