<svg viewBox="0 0 25.169921875 25.169921875" xmlns="http://www.w3.org/2000/svg"><path d="M4.2937 25.1652H20.8737C23.7437 25.1652 25.1737 23.7452 25.1737 20.9352V4.2352C25.1737 1.4252 23.7437 -0.0048 20.8737 -0.0048H4.2937C1.4337 -0.0048 0.0037 1.4052 0.0037 4.2352V20.9352C0.0037 23.7652 1.4337 25.1652 4.2937 25.1652ZM4.3237 22.9652C2.9537 22.9652 2.2037 22.2352 2.2037 20.8252V4.3452C2.2037 2.9252 2.9537 2.2052 4.3237 2.2052H20.8537C22.2037 2.2052 22.9737 2.9252 22.9737 4.3452V20.8252C22.9737 22.2352 22.2037 22.9652 20.8537 22.9652ZM17.8037 15.3652L18.1037 8.3852H19.1837C19.5137 8.3852 19.7737 8.1052 19.7837 7.7952C19.7937 7.4752 19.5137 7.2052 19.1837 7.2052H15.9137V6.0952C15.9137 4.9752 15.1637 4.2652 13.9637 4.2652H11.1937C10.0037 4.2652 9.2737 4.9752 9.2737 6.0952V6.5352H8.9837L12.3637 9.9152V9.6552C12.4137 9.5952 12.4837 9.5752 12.5637 9.5752C12.8837 9.5752 13.0837 9.7652 13.0837 10.0452V10.6552L14.6037 12.1552L14.6837 10.0452C14.6837 9.7652 14.9037 9.5752 15.1937 9.5752C15.4937 9.5752 15.6837 9.7652 15.6837 10.0652L15.5537 13.0952ZM18.7137 19.5252C18.9737 19.7852 19.3437 19.7652 19.5737 19.5052C19.8337 19.2752 19.8337 18.8952 19.5737 18.6352L6.7037 5.7552C6.4537 5.5052 6.0737 5.5052 5.8237 5.7552C5.5737 5.9852 5.5737 6.3852 5.8237 6.6352ZM10.6337 7.2052V6.1752C10.6337 5.8252 10.9137 5.5952 11.2637 5.5952H13.8737C14.2437 5.5952 14.5037 5.8252 14.5037 6.1752V7.2052ZM9.0637 20.6152H16.1337C16.7437 20.6152 17.2537 20.3452 17.4337 19.8952L17.4737 19.7652L15.4237 17.7152L15.3837 18.1452C15.3437 18.3752 15.1337 18.5152 14.9037 18.5152C14.5837 18.5152 14.4237 18.3052 14.4237 18.0352L14.4637 16.7652L13.0837 15.3852V18.0352C13.0837 18.3052 12.8637 18.4952 12.5637 18.4952C12.2637 18.4952 12.0737 18.3052 12.0737 18.0352V14.3652L10.5237 12.8252L10.7237 18.0352C10.7237 18.3052 10.5437 18.5152 10.2437 18.5152C9.9637 18.5152 9.7437 18.3252 9.7437 18.0452L9.5137 11.7952L7.1337 9.4152L7.5637 19.1852C7.6037 20.1152 8.1337 20.6152 9.0637 20.6152Z" /></svg>