
<svg
    viewBox={0 0 32.23828125 31.828125}
    xmlns="http://www.w3.org/2000/svg"
>
    <path
        fill="inherit"
        d="M16.1237 -0.0046C15.5337 -0.0046 15.0437 0.4754 15.0437 1.0554V13.5854L15.1237 15.6454L14.3437 14.8354L12.2337 12.5754C12.0437 12.3554 11.7437 12.2454 11.4837 12.2454C10.9137 12.2454 10.5037 12.6554 10.5037 13.2054C10.5037 13.5054 10.6137 13.7254 10.8137 13.9354L15.3237 18.2754C15.6037 18.5554 15.8437 18.6354 16.1237 18.6354C16.4037 18.6354 16.6437 18.5554 16.9137 18.2754L21.4237 13.9354C21.6337 13.7254 21.7337 13.5054 21.7337 13.2054C21.7337 12.6554 21.3137 12.2454 20.7437 12.2454C20.4837 12.2454 20.1937 12.3554 20.0037 12.5754L17.8937 14.8354L17.1137 15.6454L17.2137 13.5854V1.0554C17.2137 0.4754 16.7037 -0.0046 16.1237 -0.0046ZM19.7737 8.4754V10.4054H22.1637C23.1637 10.4054 23.9237 10.7354 24.5937 11.5754L29.6837 17.9954C29.9037 18.2754 29.8137 18.6654 29.3637 18.6654H20.3437C19.6337 18.6654 19.3037 19.2054 19.3037 19.7654V19.8254C19.3037 21.4054 18.0637 23.0754 16.1237 23.0754C14.1937 23.0754 12.9437 21.4054 12.9437 19.8254V19.7654C12.9437 19.2054 12.6037 18.6654 11.8937 18.6654H2.8837C2.4337 18.6654 2.3337 18.2754 2.5737 17.9954L7.6437 11.5754C8.3137 10.7354 9.0737 10.4054 10.0737 10.4054H12.4737V8.4754H10.2437C7.8037 8.4754 7.1137 9.0754 5.5137 11.0454L0.7837 16.8954C0.1737 17.6354 0.0037 18.2554 0.0037 19.4954V27.5854C0.0037 30.4054 1.4337 31.8254 4.2937 31.8254H27.9437C30.8137 31.8254 32.2337 30.4054 32.2337 27.5854V19.4954C32.2337 18.2554 32.0737 17.6354 31.4637 16.8954L26.7437 11.0454C25.1437 9.0754 24.4337 8.4754 21.9937 8.4754ZM4.3237 29.6254C2.9537 29.6254 2.2037 28.8854 2.2037 27.4654V20.6754H10.8737C11.1937 23.2254 13.3437 25.1154 16.1237 25.1154C18.8937 25.1154 21.0437 23.2154 21.3737 20.6754H30.0337V27.4654C30.0337 28.8854 29.2737 29.6254 27.9137 29.6254Z"
        fillRule="evenodd"
        clipRule="evenodd"
    />
</svg>
        