
<svg
    viewBox="0 0 32.23828125 31.30859375"
    xmlns="http://www.w3.org/2000/svg"
>
    <path
        fill="inherit"
        d="M4.2937 31.3054H27.9437C30.8037 31.3054 32.2337 29.9054 32.2337 27.2654V9.1554C32.2337 7.9154 32.1537 7.0854 31.4637 6.4154L26.6237 1.8354C25.1337 0.4554 24.0637 -0.0046 22.0437 -0.0046H10.2037C8.1937 -0.0046 7.1137 0.4554 5.6337 1.8354L0.7837 6.4154C0.0837 7.0854 0.0037 7.9154 0.0037 9.1554V27.2654C0.0037 29.9054 1.4337 31.3054 4.2937 31.3054ZM16.1237 12.6054C14.1937 12.6054 12.9437 10.9354 12.9437 9.3554V9.2954C12.9437 8.7354 12.6037 8.1854 11.8937 8.1854H2.6837C2.2937 8.1854 2.1837 7.8354 2.4737 7.5654L7.3137 2.9954C8.1437 2.2154 8.6937 1.9254 9.9937 1.9254H22.2437C23.5537 1.9254 24.0937 2.2154 24.9237 2.9954L29.7637 7.5654C30.0537 7.8354 29.9437 8.1854 29.5537 8.1854H20.3437C19.6337 8.1854 19.3037 8.7354 19.3037 9.2954V9.3554C19.3037 10.9354 18.0637 12.6054 16.1237 12.6054ZM16.1237 14.6454C18.8937 14.6454 21.0437 12.7454 21.3737 10.1954H30.0337V16.5854C30.0337 18.0054 29.2737 18.7454 27.9137 18.7454H4.3237C2.9537 18.7454 2.2037 18.0054 2.2037 16.5854V10.1954H10.8737C11.1937 12.7454 13.3437 14.6454 16.1237 14.6454ZM16.1237 23.1554C14.5837 23.1554 13.4837 22.1054 13.0937 20.7554H19.1537C18.7537 22.1054 17.6537 23.1554 16.1237 23.1554ZM16.1237 25.1954C18.8937 25.1954 21.0437 23.2954 21.3737 20.7554H30.0337V27.1354C30.0337 28.5654 29.2837 29.2954 27.9137 29.2954H4.3237C2.9537 29.2954 2.2037 28.5654 2.2037 27.1354V20.7554H10.8737C11.1937 23.2954 13.3437 25.1954 16.1237 25.1954Z"
        fillRule="evenodd"
        clipRule="evenodd"
    />
</svg>
        