<svg viewBox="0 0 32.23828125 23.337890625" xmlns="http://www.w3.org/2000/svg"><path d="M4.2937 23.3395H27.9437C30.8137 23.3395 32.2337 21.9195 32.2337 19.0995V11.5495C32.2337 10.3195 32.0437 9.7495 31.4637 8.9595L26.7437 2.5695C25.2537 0.5295 24.4337 -0.0005 21.9937 -0.0005H10.2437C7.8037 -0.0005 7.0037 0.5295 5.5137 2.5695L0.7837 8.9595C0.2037 9.7495 0.0037 10.3195 0.0037 11.5495V19.0995C0.0037 21.9295 1.4337 23.3395 4.2937 23.3395ZM16.1237 15.4195C14.0637 15.4195 12.7537 13.6395 12.7537 11.9595V11.9195C12.7537 11.3095 12.3837 10.7295 11.6237 10.7295H2.9137C2.4637 10.7295 2.3637 10.3495 2.5837 10.0495L7.6437 3.0995C8.2737 2.2295 9.0737 1.9095 10.0737 1.9095H22.1637C23.1637 1.9095 23.9637 2.2295 24.5937 3.0995L29.6537 10.0495C29.8637 10.3495 29.7737 10.7295 29.3237 10.7295H20.6137C19.8537 10.7295 19.4937 11.3095 19.4937 11.9195V11.9595C19.4937 13.6395 18.1837 15.4195 16.1237 15.4195ZM10.3737 5.1295H21.8637C22.2337 5.1295 22.5137 4.8395 22.5137 4.4595C22.5137 4.0995 22.2337 3.8095 21.8637 3.8095H10.3737C10.0037 3.8095 9.7237 4.0995 9.7237 4.4595C9.7237 4.8395 10.0037 5.1295 10.3737 5.1295ZM8.5537 8.2895H23.6837C24.0637 8.2895 24.3637 7.9795 24.3637 7.6195C24.3637 7.2495 24.0637 6.8995 23.6837 6.8995H8.5537C8.1737 6.8995 7.8737 7.2495 7.8737 7.6195C7.8737 7.9795 8.1737 8.2895 8.5537 8.2895Z" /></svg>