<svg viewBox="0 0 32.23828125 32.251953125" xmlns="http://www.w3.org/2000/svg"><path d="M16.1237 18.6492C16.7037 18.6492 17.2137 18.1692 17.2137 17.5992V5.0492L17.1137 3.0092L17.8937 3.8192L20.0037 6.0692C20.1937 6.2892 20.4837 6.3992 20.7437 6.3992C21.3137 6.3992 21.7337 5.9892 21.7337 5.4292C21.7337 5.1392 21.6337 4.9192 21.4237 4.7192L16.9137 0.3692C16.6437 0.0992 16.4037 -0.0008 16.1237 -0.0008C15.8437 -0.0008 15.6037 0.0992 15.3237 0.3692L10.8137 4.7192C10.6137 4.9192 10.5037 5.1392 10.5037 5.4292C10.5037 5.9892 10.9137 6.3992 11.4837 6.3992C11.7437 6.3992 12.0437 6.2892 12.2337 6.0692L14.3437 3.8192L15.1237 2.9892L15.0437 5.0492V17.5992C15.0437 18.1692 15.5337 18.6492 16.1237 18.6492ZM19.7737 8.8992V10.8292H22.1637C23.1637 10.8292 23.9637 11.1292 24.5937 11.9992L29.6537 18.9592C29.8637 19.2592 29.7737 19.6292 29.3237 19.6292H20.6137C19.8537 19.6292 19.4937 20.2192 19.4937 20.8192V20.8792C19.4937 22.5592 18.1837 24.3192 16.1237 24.3192C14.0637 24.3192 12.7537 22.5592 12.7537 20.8792V20.8192C12.7537 20.2192 12.3837 19.6292 11.6237 19.6292H2.9137C2.4637 19.6292 2.3637 19.2592 2.5837 18.9592L7.6437 11.9992C8.2737 11.1292 9.0737 10.8292 10.0737 10.8292H12.4737V8.8992H10.2437C7.8037 8.8992 7.0037 9.4292 5.5137 11.4692L0.7837 17.8692C0.2037 18.6492 0.0037 19.2192 0.0037 20.4692V28.0092C0.0037 30.8292 1.4337 32.2492 4.2937 32.2492H27.9437C30.8137 32.2492 32.2337 30.8292 32.2337 28.0092V20.4692C32.2337 19.2192 32.0437 18.6492 31.4637 17.8692L26.7437 11.4692C25.2537 9.4292 24.4337 8.8992 21.9937 8.8992Z" /></svg>