
<svg
    viewBox={0 0 27.890625 27.890625}
    xmlns="http://www.w3.org/2000/svg"
>
    <path
        fill="inherit"
        d="M13.9427 27.8927C21.6427 27.8927 27.8927 21.6427 27.8927 13.9427C27.8927 6.2627 21.6427 0.0027 13.9427 0.0027C6.2627 0.0027 0.0027 6.2627 0.0027 13.9427C0.0027 21.6427 6.2627 27.8927 13.9427 27.8927ZM7.9027 19.6627C6.4427 19.6627 5.7027 18.9227 5.7027 17.5027V13.6327C5.7027 12.9727 5.8127 12.7027 6.1127 12.2927L8.5827 8.9427C9.3927 7.8227 9.8827 7.5627 11.1127 7.5627H16.8027C18.0327 7.5627 18.5127 7.8227 19.3327 8.9427L21.8027 12.2927C22.1027 12.7027 22.2127 12.9727 22.2127 13.6327V17.5027C22.2127 18.9227 21.4927 19.6627 20.0127 19.6627ZM7.6827 13.1627H11.7327C12.1027 13.1627 12.3027 13.4527 12.3027 13.7427V13.9227C12.3027 14.8927 12.9327 15.5027 13.9627 15.5027C14.9827 15.5027 15.6527 14.8927 15.6527 13.9227V13.7427C15.6527 13.4527 15.8227 13.1627 16.1827 13.1627H20.2327C20.4527 13.1627 20.5127 12.9627 20.4127 12.8427L17.9627 9.5127C17.6927 9.1327 17.3927 8.9727 16.9027 8.9727H11.0327C10.5427 8.9727 10.2427 9.1227 9.9527 9.5127L7.5227 12.8427C7.4227 12.9927 7.4627 13.1627 7.6827 13.1627Z"
        fillRule="evenodd"
        clipRule="evenodd"
    />
</svg>
        