<svg viewBox="0 0 32.23828125 31.828125" xmlns="http://www.w3.org/2000/svg"><path d="M16.1237 -0.0046C15.5337 -0.0046 15.0437 0.4754 15.0437 1.0554V13.5854L15.1237 15.6454L14.3437 14.8354L12.2337 12.5754C12.0437 12.3554 11.7437 12.2454 11.4837 12.2454C10.9137 12.2454 10.5037 12.6554 10.5037 13.2054C10.5037 13.5054 10.6137 13.7254 10.8137 13.9354L15.3237 18.2754C15.6037 18.5554 15.8437 18.6354 16.1237 18.6354C16.4037 18.6354 16.6437 18.5554 16.9137 18.2754L21.4237 13.9354C21.6337 13.7254 21.7337 13.5054 21.7337 13.2054C21.7337 12.6554 21.3137 12.2454 20.7437 12.2454C20.4837 12.2454 20.1937 12.3554 20.0037 12.5754L17.8937 14.8354L17.1137 15.6454L17.2137 13.5854V1.0554C17.2137 0.4754 16.7037 -0.0046 16.1237 -0.0046ZM19.7737 8.4754V10.4054H22.1637C23.1637 10.4054 23.9637 10.7054 24.5937 11.5754L29.6537 18.5354C29.8637 18.8354 29.7737 19.2054 29.3237 19.2054H20.6137C19.8537 19.2054 19.4937 19.7954 19.4937 20.3954V20.4554C19.4937 22.1354 18.1837 23.8954 16.1237 23.8954C14.0637 23.8954 12.7537 22.1354 12.7537 20.4554V20.3954C12.7537 19.7954 12.3837 19.2054 11.6237 19.2054H2.9137C2.4637 19.2054 2.3637 18.8354 2.5837 18.5354L7.6437 11.5754C8.2737 10.7054 9.0737 10.4054 10.0737 10.4054H12.4737V8.4754H10.2437C7.8037 8.4754 7.0037 9.0054 5.5137 11.0454L0.7837 17.4454C0.2037 18.2254 0.0037 18.7954 0.0037 20.0454V27.5854C0.0037 30.4054 1.4337 31.8254 4.2937 31.8254H27.9437C30.8137 31.8254 32.2337 30.4054 32.2337 27.5854V20.0454C32.2337 18.7954 32.0437 18.2254 31.4637 17.4454L26.7437 11.0454C25.2537 9.0054 24.4337 8.4754 21.9937 8.4754Z" /></svg>