
<svg
    viewBox={0 0 35.3828125 35.68359375}
    xmlns="http://www.w3.org/2000/svg"
>
    <path
        fill="inherit"
        d="M14.3937 28.1372C14.7837 28.1372 15.1937 28.1272 15.6137 28.0672C15.7137 28.5372 15.7637 28.9672 15.7637 29.3672C15.7637 31.3072 15.5137 33.7572 15.5137 34.6172C15.5137 35.2772 16.3837 35.6872 17.6937 35.6872C19.0037 35.6872 19.8637 35.2772 19.8637 34.6172C19.8637 33.7572 19.6237 31.3072 19.6237 29.3672C19.6237 28.9672 19.6737 28.5372 19.7737 28.0672C20.1937 28.1272 20.6037 28.1372 20.9837 28.1372C23.8337 28.1372 25.9337 26.8472 26.7137 26.1772C27.8737 26.7572 28.9537 27.0172 29.9737 27.0172C33.1637 27.0172 35.3837 24.7372 35.3837 21.4372C35.3837 19.7672 34.7037 18.0072 33.1237 16.4372C34.3737 15.1372 34.8737 13.5872 34.8737 12.0772C34.8737 8.8072 32.3637 5.7872 29.2337 5.4172C29.0837 2.2572 25.5637 -0.0028 22.2037 -0.0028C20.4937 -0.0028 18.8837 0.5372 17.6937 1.7672C16.5037 0.5372 14.9037 -0.0028 13.1837 -0.0028C9.8137 -0.0028 6.3037 2.2572 6.1637 5.4172C3.0237 5.7872 0.4937 8.8072 0.4937 12.0772C0.4937 13.5872 1.0137 15.1372 2.2537 16.4372C0.6837 18.0072 0.0037 19.7672 0.0037 21.4372C0.0037 24.7372 2.2137 27.0172 5.4137 27.0172C6.4237 27.0172 7.5037 26.7572 8.6637 26.1772C9.4337 26.8472 11.5537 28.1372 14.3937 28.1372ZM10.4037 21.4872C11.3437 21.4872 12.1537 21.3272 12.8137 21.0372C13.4837 22.2872 14.4337 24.2672 15.0837 26.1372C14.8437 26.1672 14.6337 26.1672 14.3937 26.1672C11.2137 26.1672 9.6237 24.4472 8.9937 23.7372C7.5737 24.7472 6.7437 25.0372 5.4137 25.0372C3.3337 25.0372 1.9837 23.6072 1.9837 21.4372C1.9837 19.9872 2.5037 18.8572 4.4037 17.1172C4.8237 16.7472 4.7737 16.1372 4.4337 15.7772C2.8337 14.2372 2.4637 13.1672 2.4637 11.8172C2.4637 9.1772 4.4937 7.1472 7.6137 7.3572C8.0837 7.3872 8.2337 7.0672 8.1737 6.7572C7.7837 4.0972 10.0237 1.9672 13.3037 1.9672C15.2037 1.9672 16.4837 2.6972 17.6937 3.9772C18.8937 2.6972 20.1837 1.9672 22.0837 1.9672C25.3637 1.9672 27.6037 4.0972 27.2037 6.7572C27.1537 7.0672 27.3037 7.3872 27.7637 7.3572C30.8737 7.1472 32.9037 9.1772 32.9037 11.8172C32.9037 13.1672 32.5537 14.2372 30.9537 15.7772C30.6137 16.1372 30.5537 16.7472 30.9837 17.1172C32.8837 18.8572 33.4037 19.9872 33.4037 21.4372C33.4037 23.6072 32.0337 25.0372 29.9737 25.0372C28.6437 25.0372 27.8037 24.7472 26.3737 23.7372C25.7537 24.4472 24.1737 26.1672 20.9837 26.1672C20.7537 26.1672 20.5337 26.1672 20.3037 26.1372C20.9437 24.2672 21.9037 22.2972 22.5737 21.0372C23.2237 21.3272 24.0337 21.4872 24.9737 21.4872C25.4437 21.4872 25.8437 21.1272 25.8437 20.6472C25.8437 20.1772 25.4437 19.7872 24.9737 19.7872C22.6837 19.7572 21.6837 18.4672 21.6137 16.5572C21.6037 15.8772 20.6537 15.5972 20.2437 16.1872C19.6737 17.0372 18.8537 17.5272 17.6937 17.5272C16.5337 17.5272 15.7137 17.0372 15.1337 16.1872C14.7237 15.5972 13.7837 15.8772 13.7637 16.5572C13.7037 18.4672 12.7037 19.7572 10.4037 19.7872C9.9437 19.7872 9.5437 20.1772 9.5437 20.6472C9.5437 21.1272 9.9437 21.4872 10.4037 21.4872ZM15.0437 18.6072C15.5037 18.9172 16.0137 19.1372 16.5737 19.2672V23.7772C15.7537 21.9572 15.0837 20.6872 14.5237 19.6372C14.7237 19.3172 14.9037 18.9772 15.0437 18.6072ZM20.3437 18.6072C20.4837 18.9772 20.6537 19.3172 20.8637 19.6372C20.3037 20.6872 19.6337 21.9472 18.8137 23.7572V19.2672C19.3737 19.1372 19.8837 18.9172 20.3437 18.6072Z"
        fillRule="evenodd"
        clipRule="evenodd"
    />
</svg>
        