
<svg
    viewBox="0 0 27.890625 27.890625"
    xmlns="http://www.w3.org/2000/svg"
>
    <path
        fill="inherit"
        d="M13.9427 27.8864C21.6427 27.8864 27.8927 21.6264 27.8927 13.9464C27.8927 6.2464 21.6427 -0.0036 13.9427 -0.0036C6.2627 -0.0036 0.0027 6.2464 0.0027 13.9464C0.0027 21.6264 6.2627 27.8864 13.9427 27.8864ZM5.8427 15.9564C5.8427 15.1864 6.1627 14.3864 6.8527 13.6564C6.3027 13.0564 6.0727 12.3764 6.0727 11.6664C6.0727 10.1764 7.2227 8.7764 8.6527 8.6164C8.7227 7.1464 10.3327 6.1264 11.8627 6.1264C12.6627 6.1264 13.3827 6.3864 13.9327 6.9464C14.4827 6.3864 15.2127 6.1264 15.9927 6.1264C17.5427 6.1264 19.1527 7.1464 19.2127 8.6164C20.6427 8.7764 21.7927 10.1764 21.7927 11.6664C21.7927 12.3764 21.5627 13.0564 21.0127 13.6564C21.6927 14.3864 22.0427 15.1864 22.0427 15.9564C22.0427 17.4464 21.0027 18.4864 19.5527 18.4864C19.1027 18.4864 18.5827 18.3764 18.0427 18.1064C17.6527 18.4564 16.6927 18.9464 15.6027 18.9864C15.8227 18.0064 16.5027 16.6264 16.9127 15.8764C16.6427 15.8464 16.4027 15.7864 16.1827 15.7064C15.4227 17.2564 14.8027 18.6464 14.8027 19.5764C14.8027 20.4764 14.9127 21.5864 14.9127 21.9664C14.9127 22.2564 14.5227 22.4664 13.9327 22.4664C13.3427 22.4664 12.9427 22.2564 12.9427 21.9664C12.9427 21.5864 13.0527 20.4764 13.0527 19.5764C13.0527 18.5964 12.3827 17.0764 11.6527 15.7064C11.4527 15.7864 11.2127 15.8464 10.9527 15.8764C11.3627 16.6264 12.0627 18.0064 12.2627 18.9864C11.1727 18.9464 10.2127 18.4564 9.8127 18.1064C9.2827 18.3764 8.7727 18.4864 8.3127 18.4864C6.8627 18.4864 5.8427 17.4464 5.8427 15.9564ZM13.4127 17.0364L13.4027 14.8864C13.1427 14.8164 12.9027 14.6964 12.6827 14.5464C12.6227 14.7264 12.5327 14.9164 12.4327 15.0764C12.8627 15.8164 13.1627 16.4164 13.4127 17.0364ZM14.4527 17.0264C14.6927 16.4364 15.0027 15.8764 15.4227 15.0664C15.3227 14.9064 15.2427 14.7264 15.1727 14.5464C14.9427 14.7064 14.7127 14.8364 14.4227 14.9064Z"
        fillRule="evenodd"
        clipRule="evenodd"
    />
</svg>
        