
<svg
    viewBox={0 0 35.3828125 35.68359375}
    xmlns="http://www.w3.org/2000/svg"
>
    <path
        fill="inherit"
        d="M0.0037 21.4372C0.0037 24.7372 2.2137 27.0172 5.4137 27.0172C6.4237 27.0172 7.5037 26.7572 8.6637 26.1772C9.5137 26.9472 11.5937 28.0272 14.0137 28.1272C13.5337 25.9472 12.0437 22.9372 11.1437 21.2872C11.7337 21.2372 12.2337 21.1072 12.6837 20.9172C14.3237 24.0072 15.7637 27.3072 15.7637 29.3672C15.7637 31.3072 15.5137 33.7572 15.5137 34.6172C15.5137 35.2772 16.3837 35.6872 17.6937 35.6872C19.0037 35.6872 19.8637 35.2772 19.8637 34.6172C19.8637 33.7572 19.6237 31.3072 19.6237 29.3672C19.6237 27.4372 20.8637 24.4572 22.6437 20.9072C23.1037 21.0972 23.6237 21.2372 24.2437 21.2872C23.3337 22.9372 21.8437 25.9472 21.3737 28.1272C23.7937 28.0272 25.8637 26.9472 26.7137 26.1772C27.8737 26.7572 28.9537 27.0172 29.9737 27.0172C33.1637 27.0172 35.3837 24.7372 35.3837 21.4372C35.3837 19.7672 34.7037 18.0072 33.1237 16.4372C34.3737 15.1372 34.8737 13.5872 34.8737 12.0772C34.8737 8.8072 32.3637 5.7872 29.2137 5.4172C29.0837 2.2572 25.5637 -0.0028 22.2037 -0.0028C20.4837 -0.0028 18.8837 0.5372 17.6937 1.7672C16.5037 0.5372 14.9037 -0.0028 13.1837 -0.0028C9.8137 -0.0028 6.3037 2.2572 6.1637 5.4172C3.0237 5.7872 0.4937 8.8072 0.4937 12.0772C0.4937 13.5872 1.0137 15.1372 2.2537 16.4372C0.6837 18.0072 0.0037 19.7672 0.0037 21.4372ZM14.9837 18.4072C15.4537 18.7472 15.9737 18.9872 16.5537 19.1172L16.5737 23.7772C15.9937 22.4672 15.3937 21.2772 14.4137 19.5372C14.6537 19.1972 14.8337 18.8172 14.9837 18.4072ZM20.3937 18.4072C20.5337 18.7972 20.7137 19.1672 20.9437 19.4972C19.9337 21.3872 19.3837 22.4772 18.8137 23.7572L18.7537 19.1372C19.3737 19.0072 19.9037 18.7572 20.3937 18.4072Z"
        fillRule="evenodd"
        clipRule="evenodd"
    />
</svg>
        