
<svg
    viewBox="0 0 28.587890625 25.908203125"
    xmlns="http://www.w3.org/2000/svg"
>
    <path
        fill="inherit"
        d="M0.0009 22.1394C0.0009 24.2394 1.4509 25.9094 3.7709 25.9094H24.8109C27.1409 25.9094 28.5909 24.2394 28.5909 22.1394C28.5909 21.5094 28.4209 20.8794 28.0809 20.2894L17.5409 1.9094C16.8309 0.6694 15.5709 -0.0006 14.2909 -0.0006C13.0109 -0.0006 11.7609 0.6694 11.0509 1.9094L0.5009 20.2794C0.1809 20.8594 0.0009 21.5094 0.0009 22.1394ZM2.2109 22.1394C2.2109 21.8894 2.2709 21.5994 2.4209 21.3294L12.9309 2.9494C13.2309 2.4194 13.7509 2.1894 14.2909 2.1894V23.7594H3.8009C2.8609 23.7594 2.2109 22.9794 2.2109 22.1394Z"
        fillRule="evenodd"
        clipRule="evenodd"
    />
</svg>
        