
<svg
    viewBox={0 0 27.890625 27.890625}
    xmlns="http://www.w3.org/2000/svg"
>
    <path
        fill="inherit"
        d="M13.9427 27.8927C21.6427 27.8927 27.8927 21.6427 27.8927 13.9427C27.8927 6.2627 21.6427 0.0027 13.9427 0.0027C6.2627 0.0027 0.0027 6.2627 0.0027 13.9427C0.0027 21.6427 6.2627 27.8927 13.9427 27.8927ZM9.4427 13.9427C9.4427 8.4527 13.5227 4.8927 18.7127 4.8927C19.1827 4.8927 19.5227 5.2527 19.5227 5.7027C19.5227 6.1427 19.1927 6.5127 18.7127 6.5127C15.7927 6.5127 13.3827 7.7827 12.0727 9.9527C12.6227 9.6127 13.2627 9.4327 13.9427 9.4327C16.3927 9.4327 18.4427 11.4727 18.4427 13.9427C18.4427 19.4427 14.3727 22.9927 9.1827 22.9927C8.6927 22.9927 8.3627 22.6227 8.3627 22.2027C8.3627 21.7527 8.6927 21.3827 9.1827 21.3827C12.1027 21.3827 14.5027 20.1227 15.8227 17.9527C15.2727 18.2827 14.6327 18.4527 13.9427 18.4527C11.5027 18.4527 9.4427 16.4227 9.4427 13.9427ZM11.0627 13.9427C11.0627 15.5427 12.3427 16.8327 13.9427 16.8327C15.5427 16.8327 16.8327 15.5427 16.8327 13.9427C16.8327 12.3427 15.5427 11.0627 13.9427 11.0627C12.3427 11.0627 11.0627 12.3427 11.0627 13.9427ZM12.5527 13.9427C12.5527 13.1827 13.1827 12.5527 13.9427 12.5527C14.7127 12.5527 15.3427 13.1827 15.3427 13.9427C15.3427 14.6927 14.7127 15.3427 13.9427 15.3427C13.1827 15.3427 12.5527 14.7127 12.5527 13.9427Z"
        fillRule="evenodd"
        clipRule="evenodd"
    />
</svg>
        