
<svg
    viewBox="0 0 51.84375 28.023982733337927"
    xmlns="http://www.w3.org/2000/svg"
>
    <path
        fill="inherit"
        d="M3.4837 19.3763H5.1937C5.1037 18.9463 5.0337 18.5363 5.0337 18.0863C5.0337 15.1763 7.3837 12.8363 10.2837 12.8363C13.1937 12.8363 15.5337 15.1763 15.5337 18.0863C15.5337 18.5363 15.4737 18.9663 15.3837 19.3763H34.0537C33.9437 18.9463 33.8937 18.5363 33.8937 18.0863C33.8937 15.1863 36.2437 12.8363 39.1437 12.8363C42.0537 12.8363 44.3937 15.1763 44.3937 18.0863C44.3937 18.5363 44.3337 18.9463 44.2237 19.3763H48.3737C50.5437 19.3763 51.8437 18.0363 51.8437 15.8063V10.4363C51.8437 8.2063 50.5437 6.8663 48.3737 6.8663H37.2237L36.9037 4.0763C36.5837 1.3663 35.0637 -0.0037 32.3737 -0.0037H26.8537C22.4537 -0.0037 19.7437 0.6863 16.7037 2.5963L11.1137 6.0963L6.0137 6.8763C1.8737 7.5063 0.0037 9.2863 0.0037 12.4963V15.8063C0.0037 18.0363 1.3137 19.3763 3.4837 19.3763ZM21.8037 15.3563C21.0637 15.3563 20.7537 14.7563 21.1537 14.1063L24.1037 9.2563C24.4837 8.6363 25.2137 8.6563 25.5937 9.2563L28.5737 14.1263C28.9737 14.7663 28.6337 15.3563 27.9037 15.3563ZM10.2837 21.7363C12.3337 21.7363 13.9437 20.1263 13.9437 18.0863C13.9437 16.0463 12.3137 14.4263 10.2837 14.4263C8.2537 14.4263 6.6337 16.0463 6.6337 18.0863C6.6337 20.1063 8.2537 21.7363 10.2837 21.7363ZM39.1437 21.7363C41.1837 21.7363 42.8037 20.1063 42.8037 18.0863C42.8037 16.0463 41.1837 14.4263 39.1437 14.4263C37.1237 14.4263 35.4737 16.0663 35.4737 18.0863C35.4737 20.1063 37.1037 21.7363 39.1437 21.7363ZM21.8037 21.4663C21.0637 21.4663 20.7537 22.0663 21.1537 22.7063L24.1037 27.5663C24.4837 28.1963 25.2137 28.1663 25.5937 27.5663L28.5737 22.7063C28.9737 22.0663 28.6337 21.4663 27.9037 21.4663Z"
        fillRule="evenodd"
        clipRule="evenodd"
    />
</svg>
        