
<svg
    viewBox="0 0 47.24563003904601 35.55979436384342"
    xmlns="http://www.w3.org/2000/svg"
>
    <path
        fill="inherit"
        d="M4.7762 6.3988L7.6562 1.4188C8.1362 0.5988 7.4662 -0.1412 6.6162 0.0188L2.2162 0.8288C1.6162 0.9388 1.3462 1.4088 1.5562 1.9888L3.0562 6.1988C3.3362 7.0188 4.2962 7.2288 4.7762 6.3988ZM12.6062 15.5988C14.0662 16.4388 15.7962 16.2388 16.9862 15.1988L31.0062 23.3088C30.7062 24.8488 31.3962 26.4388 32.8562 27.2888C34.3062 28.1188 36.0462 27.9088 37.2162 26.8888L40.5962 28.8288C42.1162 29.7088 43.5762 29.2988 44.4762 27.7388L46.7562 23.7888C47.6662 22.2088 47.2962 20.7488 45.7662 19.8588L37.8962 15.3188L38.6262 13.6388C39.5162 11.6188 38.9962 10.0488 37.1062 8.9488L33.2362 6.7188C30.1362 4.9288 27.9762 4.3288 25.0662 4.4288L19.7262 4.6288L15.8362 3.1088C12.6662 1.8688 10.6362 2.3588 9.3362 4.6188L8.1062 6.7388C7.2062 8.2988 7.5762 9.7688 9.1062 10.6488L10.7762 11.6188C10.4762 13.1588 11.1562 14.7588 12.6062 15.5988ZM41.3962 27.2388L38.2562 25.4288C38.9762 23.6888 38.3262 21.6888 36.6462 20.7188C34.9662 19.7488 32.9062 20.1788 31.7662 21.6788L18.0262 13.7388C18.7362 11.9988 18.0862 9.9988 16.3962 9.0288C14.7162 8.0588 12.6662 8.4888 11.5162 9.9888L10.0762 9.1588C9.4662 8.7988 9.3362 8.1588 9.7662 7.4288L10.8762 5.5088C11.6662 4.1388 12.9662 3.9088 15.1362 4.7488L19.3862 6.4188L25.1362 6.2288C27.6862 6.1388 29.5862 6.6788 32.3462 8.2688L36.1262 10.4588C37.1662 11.0388 37.4362 11.8888 36.9762 12.9588L35.6062 16.0588L44.7962 21.3688C45.4062 21.7188 45.5262 22.3488 45.1062 23.0688L43.0462 26.6588C42.6362 27.3788 42.0162 27.5988 41.3962 27.2388ZM13.4962 14.0488C12.5262 13.4888 12.1962 12.2888 12.7762 11.3188C13.3362 10.3288 14.5362 10.0188 15.5062 10.5788C16.4862 11.1388 16.8062 12.3388 16.2462 13.3088C15.6862 14.2988 14.4762 14.6088 13.4962 14.0488ZM0.1562 11.7988C-0.1638 12.3388 0.0262 13.0088 0.5362 13.3088L38.7862 35.4188C39.2862 35.7088 39.9662 35.5388 40.2662 35.0188C40.5762 34.4788 40.3862 33.8088 39.8862 33.5088L1.6262 11.3988C1.1362 11.1088 0.4362 11.2888 0.1562 11.7988ZM33.7462 25.7388C32.7762 25.1788 32.4462 23.9788 33.0062 23.0088C33.5762 22.0188 34.7662 21.7088 35.7562 22.2688C36.7262 22.8288 37.0562 24.0288 36.4762 24.9988C35.9162 25.9888 34.7262 26.2988 33.7462 25.7388Z"
        fillRule="evenodd"
        clipRule="evenodd"
    />
</svg>
        