
<svg
    viewBox={0 0 51.84375 31.212890625}
    xmlns="http://www.w3.org/2000/svg"
>
    <path
        fill="inherit"
        d="M23.5037 13.8624H29.6937C30.8437 13.8624 31.4437 13.2524 31.4437 12.0024V7.2424C31.4437 6.1024 30.9437 5.4924 29.9437 5.4024V3.7724C29.9437 2.3624 30.7937 1.4724 32.1137 1.4724C33.4537 1.4724 34.2937 2.3624 34.2937 3.7724V5.3024C34.2937 5.7124 34.6337 6.0424 35.0437 6.0424C35.4537 6.0424 35.7837 5.7124 35.7837 5.3024V4.0024C35.7837 1.5424 34.3537 0.0024 32.1137 0.0024C29.8837 0.0024 28.4537 1.5424 28.4537 4.0024V5.4024H23.5037C22.3437 5.4024 21.7337 6.0124 21.7337 7.2424V12.0024C21.7337 13.2524 22.3437 13.8624 23.5037 13.8624ZM3.4837 28.0924H5.8637C6.4937 29.9324 8.2037 31.2124 10.2837 31.2124C12.3637 31.2124 14.0837 29.9324 14.7137 28.0924H34.7237C35.3437 29.9324 37.0637 31.2124 39.1437 31.2124C41.2237 31.2124 42.9337 29.9324 43.5537 28.0924H48.3737C50.5437 28.0924 51.8437 26.7524 51.8437 24.5224V18.8824C51.8437 16.6524 50.5437 15.3124 48.3737 15.3124H37.1637L36.9037 13.0724C36.6137 10.6624 35.3837 9.3124 33.5637 9.1024L33.2537 9.0924V11.5224L33.5337 11.5824C34.1837 11.8224 34.5937 12.4524 34.7037 13.3724L35.1537 17.5124H48.2437C49.1237 17.5124 49.6437 18.1324 49.6437 19.1524V24.2524C49.6437 25.2924 49.1237 25.8924 48.2437 25.8924H43.7737C43.4737 23.5824 41.5537 21.8624 39.1437 21.8624C36.7337 21.8624 34.8037 23.5824 34.5037 25.8924H14.9137C14.6137 23.5824 12.6837 21.8624 10.2837 21.8624C7.8737 21.8624 5.9437 23.5824 5.6437 25.8924H3.6137C2.7237 25.8924 2.2037 25.2924 2.2037 24.2524V21.4924C2.2037 19.5324 3.4437 18.5024 6.3037 18.0624L11.8637 17.2124L17.8837 13.4624C18.3737 13.1624 19.2537 12.7024 19.8537 12.4324C19.8337 12.2524 19.8137 12.1224 19.8137 11.9324V10.0224C18.8637 10.3724 17.5837 11.0324 16.7037 11.5924L11.1137 15.0924L6.0137 15.8724C1.8737 16.5024 0.0037 18.2824 0.0037 21.4924V24.5224C0.0037 26.7524 1.3137 28.0924 3.4837 28.0924ZM10.2837 29.0124C8.8837 29.0124 7.8037 27.9324 7.8037 26.5324C7.8037 25.1424 8.8837 24.0624 10.2837 24.0624C11.6737 24.0624 12.7537 25.1424 12.7537 26.5324C12.7537 27.9324 11.6737 29.0124 10.2837 29.0124ZM39.1437 29.0124C37.7437 29.0124 36.6637 27.9324 36.6637 26.5324C36.6637 25.1424 37.7437 24.0624 39.1437 24.0624C40.5337 24.0624 41.6137 25.1424 41.6137 26.5324C41.6137 27.9324 40.5337 29.0124 39.1437 29.0124Z"
        fillRule="evenodd"
        clipRule="evenodd"
    />
</svg>
        