<svg viewBox="0 0 24.595703125 24.52734375" xmlns="http://www.w3.org/2000/svg"><path d="M1.6637 1.9668H6.1637C6.6837 1.9668 7.0837 2.0868 7.3937 2.4168L11.8437 6.8468L6.7637 7.6168C2.1037 8.3368 0.0037 10.3268 0.0037 13.9268V17.6468C0.0037 20.1668 1.4637 21.6668 3.9237 21.6668H5.8537C5.7237 21.2068 5.6437 20.7268 5.6437 20.2168C5.6437 16.9568 8.3037 14.3168 11.5837 14.3168C14.8337 14.3168 17.4737 16.9568 17.4737 20.2168C17.4737 20.7268 17.4037 21.2168 17.3037 21.6668H24.5937V0.3868C22.5037 0.8068 20.7137 1.5868 18.8037 2.7868L13.8037 5.9368L8.9937 1.1168C8.2037 0.3268 7.1637 -0.0032 5.9337 -0.0032H1.6637C1.0437 -0.0032 0.6537 0.3868 0.6537 0.9668C0.6537 1.5568 1.0437 1.9668 1.6637 1.9668ZM11.5837 24.5268C13.9737 24.5268 15.8737 22.6268 15.8737 20.2168C15.8737 17.8268 13.9637 15.8968 11.5837 15.8968C9.1637 15.8968 7.2637 17.8268 7.2637 20.2168C7.2637 22.6168 9.1637 24.5268 11.5837 24.5268Z" /></svg>