
<svg
    viewBox={0 0 39.8125 28.73828125}
    xmlns="http://www.w3.org/2000/svg"
>
    <path
        fill="inherit"
        d="M25.6337 21.1878V3.7178C25.6337 1.2878 24.3637 -0.0022 21.9137 -0.0022H3.7237C1.2737 -0.0022 0.0037 1.2878 0.0037 3.7178V21.6578C0.0037 24.0878 1.2737 25.3578 3.7237 25.3578H4.6437C4.6237 25.1878 4.6037 24.9878 4.6037 24.7978C4.6037 21.7478 7.0937 19.2678 10.1437 19.2678C13.1937 19.2678 15.6637 21.7478 15.6637 24.7978C15.6637 24.9878 15.6537 25.1878 15.6237 25.3578H24.3337C24.3037 25.1678 24.2937 24.9778 24.2937 24.7878C24.2937 23.3878 24.7637 22.1178 25.6337 21.1878ZM27.5037 7.5478V19.8378C28.1637 19.4678 28.9437 19.2478 29.7637 19.2478C32.8137 19.2478 35.3537 21.7378 35.3537 24.7878C35.3537 24.9778 35.3437 25.1678 35.3137 25.3578H36.1437C38.5537 25.3578 39.8137 24.0778 39.8137 21.6578V16.8278C39.8137 15.4878 39.5937 14.8578 38.8437 14.0178L34.1937 8.7678C33.3837 7.8578 32.4837 7.5478 31.1437 7.5478ZM31.0537 16.2678C30.2837 16.2678 29.8037 15.8078 29.8037 15.0278V10.0778H31.0037C31.6337 10.0778 32.0437 10.1878 32.5837 10.7778L36.7537 15.4478C36.9737 15.6978 37.1237 15.9578 37.1737 16.2678ZM29.8137 28.7378C32.0037 28.7378 33.7537 26.9778 33.7537 24.7878C33.7537 22.6178 31.9937 20.8478 29.8137 20.8478C27.6437 20.8478 25.8837 22.6178 25.8837 24.7878C25.8837 26.9578 27.6437 28.7378 29.8137 28.7378ZM10.1437 28.7378C12.3337 28.7378 14.0837 26.9778 14.0837 24.7978C14.0837 22.6278 12.3137 20.8678 10.1437 20.8678C7.9737 20.8678 6.2037 22.6278 6.2037 24.7978C6.2037 26.9578 7.9737 28.7378 10.1437 28.7378Z"
        fillRule="evenodd"
        clipRule="evenodd"
    />
</svg>
        