
<svg
    viewBox="0 0 48.220703125 35.2255859375"
    xmlns="http://www.w3.org/2000/svg"
>
    <path
        fill="inherit"
        d="M20.4537 6.4243H32.1537C33.2537 6.4243 33.8537 5.7143 33.8537 4.6043V3.0643C33.8537 1.0143 32.8437 0.0043 30.5437 0.0043H29.3037C27.0737 0.0043 25.7337 0.3043 23.1237 1.7343L20.0837 3.5443C19.2537 4.0043 18.9337 4.4443 18.9337 5.0343C18.9337 5.9343 19.3837 6.4243 20.4537 6.4243ZM38.9537 34.9143C39.3637 35.3243 40.0437 35.3243 40.4437 34.9143C40.8537 34.5043 40.8537 33.8343 40.4437 33.4243L9.5337 2.5243C9.1037 2.1043 8.4537 2.1043 8.0237 2.5243C7.6337 2.9243 7.6137 3.5943 8.0237 4.0243ZM41.5737 26.2343H44.9837C47.0037 26.2343 48.2237 24.9943 48.2237 22.9143V17.6643C48.2237 15.6043 47.0037 14.3443 44.9837 14.3443H34.5537L34.3137 12.2543C34.0337 9.7343 32.6237 8.4743 30.1037 8.4743H24.9637C22.3837 8.4743 20.4437 8.7243 18.6337 9.3643L20.4537 11.1743C21.7337 10.8243 23.1337 10.6743 24.9637 10.6743H29.9937C31.2937 10.6743 31.9537 11.2643 32.1037 12.5543L32.5537 16.5543H44.8737C45.6137 16.5543 46.0237 17.0043 46.0237 17.9243V22.6543C46.0237 23.5743 45.6137 24.0243 44.8737 24.0243H41.5737ZM3.2437 26.2343H5.4537C6.0437 27.9443 7.6337 29.1343 9.5537 29.1343C11.4837 29.1343 13.0937 27.9443 13.6837 26.2343H28.0137L25.8037 24.0243H13.8637C13.5037 21.9543 11.7437 20.4443 9.5537 20.4443C7.3837 20.4443 5.6337 21.9543 5.2737 24.0243H3.3537C2.6137 24.0243 2.2137 23.5743 2.2137 22.6543V20.0943C2.2137 18.3443 3.2837 17.4443 5.8937 17.0643L11.1037 16.2843L15.3937 13.6143L13.7637 12.0043L10.3337 14.1543L5.6037 14.8743C1.7537 15.4743 0.0037 17.1143 0.0037 20.0943V22.9143C0.0037 24.9943 1.2137 26.2343 3.2437 26.2343ZM38.0037 28.7343C39.6437 28.1743 40.7437 26.6343 40.7437 24.7843C40.7437 22.3443 38.8437 20.4443 36.4037 20.4443C34.5537 20.4443 33.0137 21.6043 32.4737 23.1843L34.3137 25.0443C34.2937 24.9643 34.2637 24.8843 34.2637 24.8043C34.2637 23.5543 35.1737 22.6443 36.4037 22.6443C37.6237 22.6443 38.5437 23.5543 38.5437 24.7843C38.5437 26.0043 37.6237 26.9243 36.4037 26.9243C36.3237 26.9243 36.2337 26.9043 36.1437 26.8743ZM9.5537 26.9243C8.3437 26.9243 7.4237 26.0043 7.4237 24.7843C7.4237 23.5543 8.3437 22.6443 9.5537 22.6443C10.7837 22.6443 11.7037 23.5543 11.7037 24.7843C11.7037 26.0043 10.7837 26.9243 9.5537 26.9243Z"
        fillRule="evenodd"
        clipRule="evenodd"
    />
</svg>
        