
<svg
    viewBox={0 0 51.84375 27.671875}
    xmlns="http://www.w3.org/2000/svg"
>
    <path
        fill="inherit"
        d="M3.4837 25.3099H5.1937C5.1037 24.8799 5.0337 24.4699 5.0337 24.0199C5.0337 21.1099 7.3837 18.7699 10.2837 18.7699C13.1937 18.7699 15.5337 21.1099 15.5337 24.0199C15.5337 24.4699 15.4737 24.8999 15.3837 25.3099H34.0537C33.9437 24.8799 33.8937 24.4699 33.8937 24.0199C33.8937 21.1199 36.2437 18.7699 39.1437 18.7699C42.0537 18.7699 44.3937 21.1099 44.3937 24.0199C44.3937 24.4699 44.3337 24.8799 44.2237 25.3099H48.3737C50.5437 25.3099 51.8437 23.9699 51.8437 21.7399V16.3699C51.8437 14.1399 50.5437 12.7999 48.3737 12.7999H37.2237L36.9037 10.0099C36.5837 7.2999 35.0637 5.9299 32.3737 5.9299H27.5237L27.6537 1.4999C27.6837 0.5999 27.0737 -0.0001 26.1437 -0.0001C25.2137 -0.0001 24.6137 0.5999 24.6337 1.4999L24.7737 5.9999C21.5337 6.1899 19.2337 6.9499 16.7037 8.5299L11.1137 12.0299L6.0137 12.8099C1.8737 13.4399 0.0037 15.2199 0.0037 18.4299V21.7399C0.0037 23.9699 1.3137 25.3099 3.4837 25.3099ZM26.1437 12.6999C25.4437 12.6999 24.9637 12.2099 24.9337 11.4799L24.7737 5.9999C25.4337 5.9599 26.1137 5.9299 26.8537 5.9299H27.5237L27.3537 11.4799C27.3337 12.2099 26.8337 12.6999 26.1437 12.6999ZM26.1437 18.9799C25.1337 18.9799 24.2837 18.1399 24.2837 17.1699C24.2837 16.1999 25.1137 15.3899 26.1437 15.3899C27.1837 15.3899 28.0037 16.1999 28.0037 17.1699C28.0037 18.1399 27.1637 18.9799 26.1437 18.9799ZM10.2837 27.6699C12.3337 27.6699 13.9437 26.0599 13.9437 24.0199C13.9437 21.9799 12.3137 20.3599 10.2837 20.3599C8.2537 20.3599 6.6337 21.9799 6.6337 24.0199C6.6337 26.0399 8.2537 27.6699 10.2837 27.6699ZM39.1437 27.6699C41.1837 27.6699 42.8037 26.0399 42.8037 24.0199C42.8037 21.9799 41.1837 20.3599 39.1437 20.3599C37.1237 20.3599 35.4737 21.9999 35.4737 24.0199C35.4737 26.0399 37.1037 27.6699 39.1437 27.6699Z"
        fillRule="evenodd"
        clipRule="evenodd"
    />
</svg>
        