
<svg
    viewBox="0 0 45.650057343848054 35.411030118999605"
    xmlns="http://www.w3.org/2000/svg"
>
    <path
        fill="inherit"
        d="M5.7833 27.5957L7.4533 26.6357C8.6233 27.6757 10.3633 27.8757 11.8133 27.0257C13.2733 26.1957 13.9633 24.5957 13.6533 23.0557L27.7033 14.9457C28.8733 15.9857 30.5933 16.1857 32.0633 15.3457C33.5133 14.5057 34.1933 12.9057 33.8933 11.3657L37.2733 9.4257C38.7833 8.5457 39.1533 7.0657 38.2633 5.5157L35.9733 1.5457C35.0833 -0.0143 33.6033 -0.4243 32.0833 0.4557L24.2233 4.9957L23.1333 3.5157C21.8233 1.7557 20.2033 1.4057 18.3033 2.5057L14.4333 4.7357C11.3433 6.5257 9.7333 8.0957 8.3633 10.6657L5.8833 15.3857L2.6133 17.9957C-0.0367 20.1257 -0.6467 22.1257 0.6733 24.3757L1.8833 26.4957C2.7933 28.0657 4.2533 28.4757 5.7833 27.5957ZM3.3233 25.4157L2.2133 23.4857C1.4233 22.1057 1.8633 20.8757 3.6933 19.4157L7.2633 16.5757L9.9533 11.4957C11.1733 9.2457 12.5733 7.8657 15.3433 6.2757L19.1133 4.0857C20.1533 3.5057 21.0133 3.6757 21.7133 4.6257L23.7033 7.3457L32.8933 2.0557C33.5133 1.6957 34.1233 1.9057 34.5533 2.6257L36.6133 6.2057C37.0233 6.9357 36.9033 7.5657 36.2833 7.9357L33.1533 9.7357C32.0033 8.2457 29.9533 7.8057 28.2733 8.7757C26.5733 9.7657 25.9333 11.7457 26.6433 13.4957L12.9033 21.4257C11.7533 19.9257 9.7033 19.4957 8.0233 20.4657C6.3433 21.4357 5.6833 23.4357 6.4133 25.1757L4.9733 26.0057C4.3633 26.3557 3.7433 26.1457 3.3233 25.4157ZM31.1733 13.7957C30.1833 14.3657 28.9833 14.0457 28.4233 13.0757C27.8633 12.0857 28.1733 10.8957 29.1633 10.3257C30.1333 9.7657 31.3333 10.0757 31.8933 11.0657C32.4733 12.0357 32.1433 13.2357 31.1733 13.7957ZM4.1833 34.8557C4.5133 35.3857 5.1833 35.5657 5.7033 35.2757L43.9533 13.2057C44.4733 12.9057 44.6633 12.2557 44.3833 11.7357C44.0533 11.1857 43.3633 11.0057 42.8633 11.2957L4.5933 33.3757C4.0833 33.6657 3.8933 34.3357 4.1833 34.8557ZM10.9233 25.4857C9.9533 26.0457 8.7533 25.7357 8.1933 24.7457C7.6133 23.7757 7.9433 22.5757 8.9133 22.0157C9.8933 21.4557 11.0833 21.7657 11.6633 22.7557C12.2233 23.7257 11.8933 24.9257 10.9233 25.4857ZM43.2433 34.2857C44.1033 34.2857 44.7433 33.8657 45.1533 33.2257C45.4133 32.8257 45.6533 32.1857 45.6533 31.7157C45.6533 31.2957 45.3533 31.0057 44.9133 31.0057C44.5733 31.0057 44.2933 31.2657 44.2133 31.6357C44.0633 32.4457 43.8133 32.9057 43.2033 32.9057C42.4533 32.9057 42.0133 31.8457 42.0133 29.8757C42.0133 27.8957 42.5233 26.8257 43.2033 26.8257C43.7633 26.8257 44.0933 27.3857 44.1833 28.0857C44.2533 28.5057 44.5433 28.7657 44.9533 28.7657C45.3633 28.7657 45.6133 28.4657 45.6133 28.0457C45.6133 27.5057 45.3633 26.7557 44.8933 26.2557C44.4733 25.7457 43.8633 25.4557 43.1933 25.4557C42.0033 25.4557 41.2733 26.2357 40.8933 27.1257C40.5133 27.9757 40.4133 28.9157 40.4133 29.8757C40.4133 30.9857 40.5233 32.0357 41.0133 32.9357C41.5033 33.8257 42.2433 34.2857 43.2433 34.2857ZM28.7333 34.2257C29.2133 34.2257 29.5333 33.9057 29.5333 33.4157V30.4657H31.6333V33.4157C31.6333 33.9057 31.9333 34.2257 32.4333 34.2257C32.9033 34.2257 33.2133 33.9057 33.2133 33.4157V26.3357C33.2133 25.8557 32.9033 25.5357 32.4333 25.5357C31.9333 25.5357 31.6333 25.8557 31.6333 26.3357V29.1457H29.5333V26.3357C29.5333 25.8557 29.2133 25.5357 28.7333 25.5357C28.2733 25.5357 27.9633 25.8557 27.9633 26.3357V33.4157C27.9633 33.9057 28.2733 34.2257 28.7333 34.2257ZM35.1533 34.2257H36.6633C38.8933 34.2257 39.6333 32.0757 39.6333 29.8457C39.6333 27.4357 38.7833 25.5357 36.6633 25.5357H35.1533C34.6833 25.5357 34.3533 25.8157 34.3533 26.3557V33.4057C34.3533 33.9457 34.6833 34.2257 35.1533 34.2257ZM35.9033 32.8957V26.8657H36.4733C37.8033 26.8657 38.0533 28.5357 38.0533 29.8557C38.0533 31.1957 37.8433 32.8957 36.4733 32.8957Z"
        fillRule="evenodd"
        clipRule="evenodd"
    />
</svg>
        