
<svg
    viewBox={0 0 47.026880039046006 35.55979436384342}
    xmlns="http://www.w3.org/2000/svg"
>
    <path
        fill="inherit"
        d="M4.7762 6.3988L7.6562 1.4188C8.1362 0.5988 7.4662 -0.1412 6.6162 0.0188L2.2162 0.8288C1.6162 0.9388 1.3462 1.4088 1.5562 1.9888L3.0562 6.1988C3.3362 7.0188 4.2962 7.2288 4.7762 6.3988ZM8.9962 10.8488L10.2062 11.5388C10.2962 11.2088 10.4162 10.8788 10.5962 10.5688C11.7762 8.5288 14.3762 7.8288 16.4062 9.0088C18.4562 10.1788 19.1462 12.7788 17.9662 14.8188C17.7862 15.1488 17.5662 15.4188 17.3362 15.6588L30.4362 23.2288C30.5362 22.8988 30.6662 22.5688 30.8462 22.2488C32.0262 20.2288 34.6362 19.5188 36.6562 20.6988C38.6962 21.8688 39.3962 24.4688 38.2162 26.5088C38.0362 26.8188 37.8162 27.0888 37.5762 27.3388L40.4862 29.0188C42.0062 29.8988 43.4662 29.4888 44.3662 27.9288L46.5462 24.1688C47.4462 22.5988 47.0762 21.1288 45.5462 20.2388L37.7262 15.7288L38.6262 13.6388C39.5162 11.6188 38.9962 10.0488 37.1062 8.9488L33.2362 6.7188C30.1362 4.9288 27.9762 4.3288 25.0662 4.4288L19.7262 4.6288L15.8362 3.1088C12.6662 1.8688 10.6362 2.3588 9.3362 4.6188L7.9962 6.9288C7.0962 8.4888 7.4662 9.9588 8.9962 10.8488ZM12.7962 15.2688C14.2362 16.0888 16.0262 15.6088 16.8562 14.1688C17.6762 12.7488 17.1862 10.9488 15.7662 10.1288C14.3462 9.3088 12.5362 9.7888 11.7162 11.2088C10.8962 12.6388 11.3762 14.4288 12.7962 15.2688ZM0.1562 11.7988C-0.1638 12.3388 0.0262 13.0088 0.5362 13.3088L38.7862 35.4188C39.2862 35.7088 39.9662 35.5388 40.2662 35.0188C40.5762 34.4788 40.3862 33.8088 39.8862 33.5088L1.6262 11.3988C1.1362 11.1088 0.4362 11.2888 0.1562 11.7988ZM33.0462 26.9388C34.4662 27.7788 36.2762 27.2888 37.0962 25.8588C37.9162 24.4388 37.4362 22.6388 36.0162 21.8188C34.5962 20.9988 32.7762 21.4888 31.9662 22.8988C31.1462 24.3188 31.6262 26.1188 33.0462 26.9388Z"
        fillRule="evenodd"
        clipRule="evenodd"
    />
</svg>
        