
<svg
    viewBox="0 0 39.8125 29.17578125"
    xmlns="http://www.w3.org/2000/svg"
>
    <path
        fill="inherit"
        d="M3.7237 25.3578H5.5337C5.9437 27.5378 7.8637 29.1778 10.1437 29.1778C12.4237 29.1778 14.3237 27.5378 14.7237 25.3578H25.2537C25.6437 27.5378 27.5637 29.1778 29.8437 29.1778C32.1337 29.1778 34.0337 27.5378 34.4237 25.3578H36.0937C38.5237 25.3578 39.8137 24.0878 39.8137 21.6578V16.8278C39.8137 15.4878 39.5937 14.8578 38.8437 14.0178L34.1937 8.7678C33.3837 7.8578 32.4837 7.5478 31.1437 7.5478H27.5037V3.7178C27.5037 1.2878 26.2237 -0.0022 23.7937 -0.0022H3.7237C1.2737 -0.0022 0.0037 1.2878 0.0037 3.7178V21.6578C0.0037 24.0878 1.2737 25.3578 3.7237 25.3578ZM10.1437 19.8378C8.0237 19.8378 6.2337 21.2478 5.6637 23.1578H3.7437C2.7237 23.1578 2.2037 22.6378 2.2037 21.6178V3.7578C2.2037 2.7378 2.7237 2.1978 3.7437 2.1978H23.7437C24.7637 2.1978 25.3037 2.7378 25.3037 3.7578V23.1578H14.6137C14.0437 21.2478 12.2537 19.8378 10.1437 19.8378ZM29.8437 19.8378C28.9937 19.8378 28.1937 20.0678 27.5037 20.4678V9.7478H31.0037C31.7037 9.7478 32.1937 9.8678 32.7537 10.4878L37.0537 15.3078C37.4237 15.7178 37.6137 16.2978 37.6137 16.7878V21.6178C37.6137 22.6378 37.0737 23.1578 36.0537 23.1578H34.3137C33.7437 21.2478 31.9637 19.8378 29.8437 19.8378ZM30.0637 16.9578H36.0237C36.0237 16.6278 35.9037 16.4478 35.6937 16.2178L31.6237 11.6378C31.3237 11.3178 30.9637 11.1178 30.5837 11.1178H28.8937V15.7878C28.8937 16.5178 29.3437 16.9578 30.0637 16.9578ZM10.1437 27.3178C8.5837 27.3178 7.3137 26.0578 7.3137 24.4978C7.3137 22.9578 8.5837 21.6878 10.1437 21.6878C11.6937 21.6878 12.9437 22.9578 12.9437 24.4978C12.9437 26.0578 11.6937 27.3178 10.1437 27.3178ZM29.8437 27.3178C28.3037 27.3178 27.0337 26.0578 27.0337 24.4978C27.0337 22.9578 28.3037 21.6878 29.8437 21.6878C31.3737 21.6878 32.6437 22.9578 32.6437 24.4978C32.6437 26.0578 31.4037 27.3178 29.8437 27.3178Z"
        fillRule="evenodd"
        clipRule="evenodd"
    />
</svg>
        