
<svg
    viewBox={0 0 51.84375 28.150390625}
    xmlns="http://www.w3.org/2000/svg"
>
    <path
        fill="inherit"
        d="M26.3337 12.2999C27.0037 12.2999 27.4837 11.8299 27.5037 11.1299L27.7937 1.4499C27.8237 0.5699 27.2337 -0.0001 26.3337 -0.0001C25.4437 -0.0001 24.8537 0.5699 24.8837 1.4499L25.1737 11.1299C25.1937 11.8299 25.6637 12.2999 26.3337 12.2999ZM3.4837 25.0299H5.8637C6.4937 26.8699 8.2037 28.1499 10.2837 28.1499C12.3637 28.1499 14.0837 26.8699 14.7137 25.0299H34.7237C35.3437 26.8699 37.0637 28.1499 39.1437 28.1499C41.2237 28.1499 42.9337 26.8699 43.5537 25.0299H48.3737C50.5437 25.0299 51.8437 23.6899 51.8437 21.4599V15.8199C51.8437 13.5899 50.5437 12.2499 48.3737 12.2499H37.1637L36.9037 10.0099C36.5837 7.2999 35.0637 5.9299 32.3737 5.9299H29.2537L29.1937 8.1299H32.2537C33.7137 8.1299 34.5337 8.8699 34.7037 10.3099L35.1537 14.4499H48.2437C49.1237 14.4499 49.6437 15.0699 49.6437 16.0899V21.1899C49.6437 22.2299 49.1237 22.8299 48.2437 22.8299H43.7737C43.4737 20.5199 41.5537 18.7999 39.1437 18.7999C36.7337 18.7999 34.8037 20.5199 34.5037 22.8299H14.9137C14.6137 20.5199 12.6837 18.7999 10.2837 18.7999C7.8737 18.7999 5.9437 20.5199 5.6437 22.8299H3.6137C2.7237 22.8299 2.2037 22.2299 2.2037 21.1899V18.4299C2.2037 16.4699 3.4437 15.4399 6.3037 14.9999L11.8637 14.1499L17.8837 10.3999C19.7037 9.2699 21.3537 8.6399 23.5037 8.3399L23.4237 6.1299C20.8337 6.4399 18.8637 7.1599 16.7037 8.5299L11.1137 12.0299L6.0137 12.8099C1.8737 13.4399 0.0037 15.2199 0.0037 18.4299V21.4599C0.0037 23.6899 1.3137 25.0299 3.4837 25.0299ZM26.3337 18.3799C27.3137 18.3799 28.1337 17.5699 28.1337 16.6399C28.1337 15.6999 27.3337 14.9199 26.3337 14.9199C25.3437 14.9199 24.5437 15.6999 24.5437 16.6399C24.5437 17.5699 25.3637 18.3799 26.3337 18.3799ZM10.2837 25.9499C8.8837 25.9499 7.8037 24.8699 7.8037 23.4699C7.8037 22.0799 8.8837 20.9999 10.2837 20.9999C11.6737 20.9999 12.7537 22.0799 12.7537 23.4699C12.7537 24.8699 11.6737 25.9499 10.2837 25.9499ZM39.1437 25.9499C37.7437 25.9499 36.6637 24.8699 36.6637 23.4699C36.6637 22.0799 37.7437 20.9999 39.1437 20.9999C40.5337 20.9999 41.6137 22.0799 41.6137 23.4699C41.6137 24.8699 40.5337 25.9499 39.1437 25.9499Z"
        fillRule="evenodd"
        clipRule="evenodd"
    />
</svg>
        