
<svg
    viewBox={0 0 48.220703125 28.65625}
    xmlns="http://www.w3.org/2000/svg"
>
    <path
        fill="inherit"
        d="M19.9337 6.4243H31.6337C32.7337 6.4243 33.3337 5.7143 33.3337 4.6043V3.0643C33.3337 1.0143 32.3237 0.0043 30.0237 0.0043H28.7837C26.5537 0.0043 25.2137 0.3043 22.6037 1.7343L19.5637 3.5443C18.7337 4.0043 18.4137 4.4443 18.4137 5.0343C18.4137 5.9343 18.8637 6.4243 19.9337 6.4243ZM3.2437 26.4543H4.7137C4.6237 26.0043 4.5837 25.6743 4.5837 25.2143C4.5837 22.3643 6.8337 20.2643 9.5537 20.2643C12.4437 20.2643 14.5637 22.4743 14.5637 25.2543C14.5637 25.6743 14.5237 26.0043 14.4137 26.4543H31.5437C31.4737 26.0543 31.4137 25.6743 31.4137 25.2143C31.4137 22.3643 33.6737 20.2643 36.4037 20.2643C39.2937 20.2643 41.4137 22.4743 41.4137 25.2543C41.4137 25.7143 41.3737 26.0443 41.2437 26.4543H44.9837C47.0037 26.4543 48.2237 25.2143 48.2237 23.1343V18.1443C48.2237 16.0743 47.0037 14.8243 44.9837 14.8243H34.6137L34.3137 12.2243C34.0137 9.7043 32.6237 8.4343 30.1037 8.4343H24.9637C20.8737 8.4343 18.3737 9.0643 15.5337 10.8443L10.3337 14.1143L5.6037 14.8343C1.7537 15.4343 0.0037 17.0743 0.0037 20.0543V23.1343C0.0037 25.2143 1.2137 26.4543 3.2437 26.4543ZM9.5537 28.6543C11.4537 28.6543 12.9737 27.1543 12.9737 25.2543C12.9737 23.3643 11.4537 21.8643 9.5537 21.8643C7.6737 21.8643 6.1637 23.3643 6.1637 25.2543C6.1637 27.1343 7.6737 28.6543 9.5537 28.6543ZM36.4037 28.6543C38.3037 28.6543 39.8137 27.1343 39.8137 25.2543C39.8137 23.3643 38.3037 21.8643 36.4037 21.8643C34.5337 21.8643 33.0037 23.3743 33.0037 25.2543C33.0037 27.1343 34.5237 28.6543 36.4037 28.6543Z"
        fillRule="evenodd"
        clipRule="evenodd"
    />
</svg>
        