
<svg
    viewBox={0 0 51.84375 22.216796875}
    xmlns="http://www.w3.org/2000/svg"
>
    <path
        fill="inherit"
        d="M10.2837 22.2163C12.3637 22.2163 14.0837 20.9363 14.7137 19.0963H34.7237C35.3437 20.9363 37.0637 22.2163 39.1437 22.2163C41.2237 22.2163 42.9337 20.9363 43.5537 19.0963H48.3737C50.5437 19.0963 51.8437 17.7563 51.8437 15.5263V9.8863C51.8437 7.6563 50.5437 6.3163 48.3737 6.3163H37.1637L36.9037 4.0763C36.5837 1.3663 35.0637 -0.0037 32.3737 -0.0037H26.8537C22.4537 -0.0037 19.7437 0.6663 16.7037 2.5963L14.4337 4.0163L15.7737 5.7863L17.8837 4.4663C20.5737 2.7863 22.9237 2.1963 26.8537 2.1963H32.2537C33.7137 2.1963 34.5337 2.9363 34.7037 4.3763L35.1537 8.5163H48.2437C49.1237 8.5163 49.6437 9.1363 49.6437 10.1563V15.2563C49.6437 16.2963 49.1237 16.8963 48.2437 16.8963H43.7737C43.4737 14.5863 41.5537 12.8663 39.1437 12.8663C36.7337 12.8663 34.8037 14.5863 34.5037 16.8963H14.9137C14.6137 14.5863 12.6837 12.8663 10.2837 12.8663C7.8737 12.8663 5.9437 14.5863 5.6437 16.8963H3.6137C2.7237 16.8963 2.2037 16.2963 2.2037 15.2563V12.4963C2.2037 10.5363 3.4437 9.5063 6.3037 9.0663L10.9637 8.3563L9.4337 6.3663L6.0137 6.8763C1.8737 7.5063 0.0037 9.2863 0.0037 12.4963V15.5263C0.0037 17.7563 1.3137 19.0963 3.4837 19.0963H5.8637C6.4937 20.9363 8.2037 22.2163 10.2837 22.2163ZM17.3737 10.6063H20.5637V11.7863C20.5637 12.7463 21.4137 13.0263 22.1237 12.5663L25.5637 10.3463C26.2237 9.9263 26.2337 9.1063 25.5537 8.6663L22.1337 6.4663C21.4137 5.9863 20.5637 6.2763 20.5637 7.2463V8.4063H17.3737C16.0937 8.4063 15.5737 8.1163 14.7237 7.0263L11.0337 2.1963C9.8737 0.6863 8.5137 0.0863 6.4437 0.0863H3.0737C2.4737 0.0863 1.9837 0.5763 1.9837 1.1763C1.9837 1.7763 2.4737 2.2863 3.0737 2.2863H6.4437C7.9537 2.2863 8.5337 2.5463 9.3137 3.5363L12.9737 8.3963C14.1537 9.9363 15.4637 10.6063 17.3737 10.6063ZM10.2837 20.0163C8.8837 20.0163 7.8037 18.9363 7.8037 17.5363C7.8037 16.1463 8.8837 15.0663 10.2837 15.0663C11.6737 15.0663 12.7537 16.1463 12.7537 17.5363C12.7537 18.9363 11.6737 20.0163 10.2837 20.0163ZM39.1437 20.0163C37.7437 20.0163 36.6637 18.9363 36.6637 17.5363C36.6637 16.1463 37.7437 15.0663 39.1437 15.0663C40.5337 15.0663 41.6137 16.1463 41.6137 17.5363C41.6137 18.9363 40.5337 20.0163 39.1437 20.0163Z"
        fillRule="evenodd"
        clipRule="evenodd"
    />
</svg>
        