<svg viewBox="0 0 51.84375 30.734375" xmlns="http://www.w3.org/2000/svg"><path d="M23.5037 13.8624H29.6937C30.8437 13.8624 31.4437 13.2524 31.4437 12.0024V7.2424C31.4437 6.1024 30.9437 5.4924 29.9437 5.4024V3.7724C29.9437 2.3624 30.7937 1.4724 32.1137 1.4724C33.4537 1.4724 34.2937 2.3624 34.2937 3.7724V5.3024C34.2937 5.7124 34.6337 6.0424 35.0437 6.0424C35.4537 6.0424 35.7837 5.7124 35.7837 5.3024V4.0024C35.7837 1.5424 34.3537 0.0024 32.1137 0.0024C29.8837 0.0024 28.4537 1.5424 28.4537 4.0024V5.4024H23.5037C22.3437 5.4024 21.7337 6.0124 21.7337 7.2424V12.0024C21.7337 13.2524 22.3437 13.8624 23.5037 13.8624ZM3.4837 28.3724H5.1937C5.1037 27.9424 5.0337 27.5324 5.0337 27.0824C5.0337 24.1724 7.3837 21.8324 10.2837 21.8324C13.1937 21.8324 15.5337 24.1724 15.5337 27.0824C15.5337 27.5324 15.4737 27.9624 15.3837 28.3724H34.0537C33.9437 27.9424 33.8937 27.5324 33.8937 27.0824C33.8937 24.1824 36.2437 21.8324 39.1437 21.8324C42.0537 21.8324 44.3937 24.1724 44.3937 27.0824C44.3937 27.5324 44.3337 27.9424 44.2237 28.3724H48.3737C50.5437 28.3724 51.8437 27.0324 51.8437 24.8024V19.4324C51.8437 17.2024 50.5437 15.8624 48.3737 15.8624H37.2237L36.9037 13.0724C36.5837 10.4824 35.2037 9.3524 33.5337 9.1024L33.2537 9.0924V12.0024C33.2537 14.2724 31.8237 15.7224 29.6237 15.7224H23.4337C21.2337 15.7224 19.8137 14.2724 19.8137 12.0024V9.9424C19.0437 10.3124 17.6637 10.9924 16.7037 11.5924L11.1137 15.0924L6.0137 15.8724C1.8737 16.5024 0.0037 18.2824 0.0037 21.4924V24.8024C0.0037 27.0324 1.3137 28.3724 3.4837 28.3724ZM10.2837 30.7324C12.3337 30.7324 13.9437 29.1224 13.9437 27.0824C13.9437 25.0424 12.3137 23.4224 10.2837 23.4224C8.2537 23.4224 6.6337 25.0424 6.6337 27.0824C6.6337 29.1024 8.2537 30.7324 10.2837 30.7324ZM39.1437 30.7324C41.1837 30.7324 42.8037 29.1024 42.8037 27.0824C42.8037 25.0424 41.1837 23.4224 39.1437 23.4224C37.1237 23.4224 35.4737 25.0624 35.4737 27.0824C35.4737 29.1024 37.1037 30.7324 39.1437 30.7324Z" /></svg>