
<svg
    viewBox="0 0 45.650057343848054 35.028217618999605"
    xmlns="http://www.w3.org/2000/svg"
>
    <path
        fill="inherit"
        d="M5.8933 27.4129L7.0933 26.7129C6.8533 26.4529 6.6333 26.1929 6.4533 25.8729C5.2733 23.8329 5.9733 21.2329 8.0133 20.0529C10.0533 18.8829 12.6433 19.5829 13.8233 21.6129C14.0033 21.9329 14.1333 22.2629 14.2333 22.5829L27.3433 15.0229C27.0933 14.7629 26.8833 14.5029 26.7033 14.1929C25.5233 12.1529 26.2233 9.5429 28.2633 8.3729C30.2933 7.1929 32.8933 7.8929 34.0733 9.9229C34.2433 10.2429 34.3733 10.5729 34.4633 10.9129L37.3833 9.2329C38.8933 8.3529 39.2833 6.8829 38.3733 5.3229L36.2033 1.5429C35.3033 -0.0171 33.8333 -0.4271 32.3033 0.4529L24.4833 4.9629L23.1333 3.1329C21.8233 1.3729 20.2033 1.0229 18.3033 2.1229L14.4333 4.3529C11.3433 6.1429 9.7333 7.7129 8.3633 10.2829L5.8833 15.0029L2.6133 17.6129C-0.0367 19.7429 -0.6467 21.7429 0.6733 23.9929L1.9933 26.3229C2.8933 27.8829 4.3633 28.2929 5.8933 27.4129ZM31.8733 14.6329C33.2933 13.8129 33.7733 12.0029 32.9533 10.5829C32.1333 9.1429 30.3233 8.6729 28.9033 9.4929C27.4833 10.3129 27.0033 12.1329 27.8233 13.5329C28.6433 14.9729 30.4333 15.4529 31.8733 14.6329ZM4.1833 34.4729C4.5133 35.0029 5.1833 35.1829 5.7033 34.8929L43.9533 12.8229C44.4733 12.5229 44.6633 11.8729 44.3833 11.3529C44.0533 10.8029 43.3633 10.6229 42.8633 10.9129L4.5933 32.9929C4.0833 33.2829 3.8933 33.9529 4.1833 34.4729ZM11.6233 26.3229C13.0533 25.4829 13.5333 23.6929 12.7033 22.2629C11.8833 20.8329 10.0733 20.3629 8.6533 21.1829C7.2333 22.0029 6.7533 23.8029 7.5733 25.2229C8.3933 26.6429 10.2033 27.1429 11.6233 26.3229ZM43.2433 33.9029C44.1033 33.9029 44.7433 33.4829 45.1533 32.8429C45.4133 32.4429 45.6533 31.8029 45.6533 31.3329C45.6533 30.9129 45.3533 30.6229 44.9133 30.6229C44.5733 30.6229 44.2933 30.8829 44.2133 31.2529C44.0633 32.0629 43.8133 32.5229 43.2033 32.5229C42.4533 32.5229 42.0133 31.4629 42.0133 29.4929C42.0133 27.5129 42.5233 26.4429 43.2033 26.4429C43.7633 26.4429 44.0933 27.0029 44.1833 27.7029C44.2533 28.1229 44.5433 28.3829 44.9533 28.3829C45.3633 28.3829 45.6133 28.0829 45.6133 27.6629C45.6133 27.1229 45.3633 26.3729 44.8933 25.8729C44.4733 25.3629 43.8633 25.0729 43.1933 25.0729C42.0033 25.0729 41.2733 25.8529 40.8933 26.7429C40.5133 27.5929 40.4133 28.5329 40.4133 29.4929C40.4133 30.6029 40.5233 31.6529 41.0133 32.5529C41.5033 33.4429 42.2433 33.9029 43.2433 33.9029ZM28.7333 33.8429C29.2133 33.8429 29.5333 33.5229 29.5333 33.0329V30.0829H31.6333V33.0329C31.6333 33.5229 31.9333 33.8429 32.4333 33.8429C32.9033 33.8429 33.2133 33.5229 33.2133 33.0329V25.9529C33.2133 25.4729 32.9033 25.1529 32.4333 25.1529C31.9333 25.1529 31.6333 25.4729 31.6333 25.9529V28.7629H29.5333V25.9529C29.5333 25.4729 29.2133 25.1529 28.7333 25.1529C28.2733 25.1529 27.9633 25.4729 27.9633 25.9529V33.0329C27.9633 33.5229 28.2733 33.8429 28.7333 33.8429ZM35.1533 33.8429H36.6633C38.8933 33.8429 39.6333 31.6929 39.6333 29.4629C39.6333 27.0529 38.7833 25.1529 36.6633 25.1529H35.1533C34.6833 25.1529 34.3533 25.4329 34.3533 25.9729V33.0229C34.3533 33.5629 34.6833 33.8429 35.1533 33.8429ZM35.9033 32.5129V26.4829H36.4733C37.8033 26.4829 38.0533 28.1529 38.0533 29.4729C38.0533 30.8129 37.8433 32.5129 36.4733 32.5129Z"
        fillRule="evenodd"
        clipRule="evenodd"
    />
</svg>
        