
<svg
    viewBox="0 0 48.84287569513362 36.117275176211805"
    xmlns="http://www.w3.org/2000/svg"
>
    <path
        fill="inherit"
        d="M12.1244 27.4098L13.3344 26.7198C13.0844 26.4698 12.8644 26.1998 12.6844 25.8798C11.5144 23.8498 12.2144 21.2498 14.2444 20.0698C16.2844 18.8798 18.8844 19.5798 20.0544 21.6298C20.2344 21.9398 20.3744 22.2698 20.4644 22.5898L33.5744 15.0298C33.3344 14.7798 33.1144 14.5098 32.9344 14.1898C31.7644 12.1598 32.4544 9.5398 34.4944 8.3798C36.5344 7.2098 39.1344 7.8998 40.3044 9.9398C40.4844 10.2598 40.6044 10.5698 40.7044 10.9098L43.6144 9.2298C45.1344 8.3498 45.5044 6.8798 44.6144 5.3198L42.4244 1.5498C41.5344 -0.0102 40.0744 -0.4202 38.5444 0.4498L30.7244 4.9598L29.3644 3.1498C28.0544 1.3698 26.4444 1.0298 24.5444 2.1198L20.6744 4.3498C17.5844 6.1398 15.9744 7.7098 14.6044 10.2798L12.1044 15.0098L8.8444 17.6198C6.1944 19.7398 5.5944 21.7398 6.8944 23.9998L8.2344 26.3198C9.1344 27.8798 10.5944 28.2898 12.1244 27.4098ZM38.1044 14.6298C39.5244 13.8098 40.0044 12.0098 39.1844 10.5798C38.3644 9.1598 36.5544 8.6698 35.1344 9.4998C33.7144 10.3098 33.2344 12.1298 34.0444 13.5498C34.8744 14.9698 36.6644 15.4498 38.1044 14.6298ZM8.5144 35.5498C8.8444 36.0998 9.5144 36.2698 10.0344 35.9698L48.2944 13.9098C48.8044 13.6198 49.0044 12.9498 48.7044 12.4298C48.3844 11.8798 47.7044 11.6998 47.1844 12.0098L8.9244 34.0698C8.4244 34.3598 8.2344 35.0398 8.5144 35.5498ZM17.8544 26.3198C19.2944 25.4898 19.7744 23.7098 18.9344 22.2698C18.1144 20.8498 16.3144 20.3598 14.8944 21.1798C13.4644 22.0098 12.9844 23.7998 13.8044 25.2398C14.6344 26.6598 16.4344 27.1398 17.8544 26.3198ZM6.1544 28.8498L3.2844 23.8698C2.8044 23.0198 1.8444 23.2398 1.5744 24.0598L0.0644 28.2698C-0.1356 28.8598 0.1244 29.3098 0.7344 29.4398L5.1244 30.2398C5.9844 30.4098 6.6344 29.6798 6.1544 28.8498Z"
        fillRule="evenodd"
        clipRule="evenodd"
    />
</svg>
        