
<svg
    viewBox={0 0 48.220703125 35.2255859375}
    xmlns="http://www.w3.org/2000/svg"
>
    <path
        fill="inherit"
        d="M19.9337 6.4243H31.6337C32.7337 6.4243 33.3337 5.7143 33.3337 4.6043V3.0643C33.3337 1.0143 32.3237 0.0043 30.0237 0.0043H28.7837C26.5537 0.0043 25.2137 0.3043 22.6037 1.7343L19.5637 3.5443C18.7337 4.0043 18.4137 4.4443 18.4137 5.0343C18.4137 5.9343 18.8637 6.4243 19.9337 6.4243ZM38.9537 34.9143C39.3637 35.3243 40.0437 35.3243 40.4437 34.9143C40.8537 34.5043 40.8537 33.8343 40.4437 33.4243L9.5337 2.5243C9.1037 2.1043 8.4537 2.1043 8.0237 2.5243C7.6337 2.9243 7.6137 3.5943 8.0237 4.0243ZM44.9837 14.8243H34.6137L34.3137 12.2243C34.0137 9.7043 32.6237 8.4343 30.1037 8.4343H24.9637C22.3637 8.4343 20.4237 8.6943 18.6037 9.3343L32.1037 22.8343C32.8937 21.2843 34.5337 20.2643 36.4037 20.2643C39.2937 20.2643 41.4137 22.4743 41.4137 25.2543C41.4137 25.7143 41.3737 26.0443 41.2437 26.4543H44.9837C47.0037 26.4543 48.2237 25.2143 48.2237 23.1343V18.1443C48.2237 16.0743 47.0037 14.8243 44.9837 14.8243ZM13.7437 11.9743L10.3337 14.1143L5.6037 14.8343C1.7537 15.4343 0.0037 17.0743 0.0037 20.0543V23.1343C0.0037 25.2143 1.2137 26.4543 3.2437 26.4543H4.7137C4.6237 26.0043 4.5837 25.6743 4.5837 25.2143C4.5837 22.3643 6.8337 20.2643 9.5537 20.2643C12.4437 20.2643 14.5637 22.4743 14.5637 25.2543C14.5637 25.6743 14.5237 26.0043 14.4137 26.4543H28.2337ZM9.5537 28.6543C11.4537 28.6543 12.9737 27.1543 12.9737 25.2543C12.9737 23.3643 11.4537 21.8643 9.5537 21.8643C7.6737 21.8643 6.1637 23.3643 6.1637 25.2543C6.1637 27.1343 7.6737 28.6543 9.5537 28.6543ZM37.6137 28.3443C38.9237 27.9143 39.8137 26.6843 39.8137 25.2543C39.8137 23.3643 38.3037 21.8643 36.4037 21.8643C34.9837 21.8643 33.7537 22.7643 33.3337 24.0643Z"
        fillRule="evenodd"
        clipRule="evenodd"
    />
</svg>
        