<svg viewBox="0 0 37.720703125 28.23756983740537" xmlns="http://www.w3.org/2000/svg"><path d="M31.1037 27.9253C31.5137 28.3353 32.1937 28.3353 32.5937 27.9253C32.9937 27.5153 33.0137 26.8753 32.5937 26.4353L6.4637 0.3153C6.0437 -0.1147 5.3737 -0.0947 4.9637 0.3153C4.5637 0.7053 4.5637 1.4053 4.9637 1.8053ZM21.9437 10.1653C22.5837 10.1653 23.0137 9.6653 23.0137 9.0253C23.0137 7.2553 21.5337 4.0353 18.0737 4.0353C16.4237 4.0353 15.1737 4.8153 14.4237 6.0153L16.1037 7.6853C16.3937 6.8453 17.0537 6.2453 18.0737 6.2453C19.6437 6.2453 20.5037 7.5153 20.7837 9.1953C20.8937 9.8853 21.3837 10.1653 21.9437 10.1653ZM36.5337 24.9353C37.1837 24.9353 37.7237 24.4553 37.7237 23.7853C37.7237 23.6753 37.7037 23.5253 37.6637 23.4153L33.5537 5.8053C33.2937 4.8253 32.6937 4.1453 31.6337 4.1453C30.5537 4.1453 30.0237 4.7853 29.7737 5.8253L26.8237 18.4153L28.7937 20.3953L29.0237 19.3853H34.2737L35.2737 23.8953C35.4237 24.5853 35.8437 24.9353 36.5337 24.9353ZM5.9037 24.8953C6.7637 24.8953 7.1537 24.2653 7.1537 23.4953V6.6153L4.9537 4.4053H1.2137C0.4937 4.4053 0.0037 4.7953 0.0037 5.4953C0.0037 6.2153 0.4937 6.6153 1.2137 6.6153H4.6337V23.4953C4.6337 24.3253 5.0837 24.8953 5.9037 24.8953ZM29.4637 17.2753L31.6137 7.3253H31.6337L33.8237 17.2753ZM18.1837 25.0353C20.6137 25.0353 22.1237 23.7353 22.8037 21.8853L20.9037 19.9853C20.7237 21.7353 19.7937 22.8153 18.2237 22.8153C16.5137 22.8153 15.5737 21.4353 15.3137 19.6853C15.1737 18.9753 14.6537 18.7053 14.1537 18.7053C13.4837 18.7053 13.0837 19.2653 13.0837 19.9553C13.0837 21.8753 14.5837 25.0353 18.1837 25.0353Z" /></svg>