<svg viewBox="0 0 27.890625 27.890625" xmlns="http://www.w3.org/2000/svg"><path d="M13.9427 27.8864C21.6427 27.8864 27.8927 21.6464 27.8927 13.9464C27.8927 6.2464 21.6427 -0.0036 13.9427 -0.0036C6.2527 -0.0036 0.0027 6.2464 0.0027 13.9464C0.0027 21.6464 6.2527 27.8864 13.9427 27.8864ZM13.9427 25.5664C7.5227 25.5664 2.3227 20.3664 2.3227 13.9464C2.3227 7.5164 7.5227 2.3264 13.9427 2.3264C20.3727 2.3264 25.5627 7.5164 25.5627 13.9464C25.5627 20.3664 20.3727 25.5664 13.9427 25.5664ZM13.6827 18.4564C15.2727 18.4564 16.1427 17.4364 16.1427 15.9164C16.1427 14.5164 15.4127 13.8864 14.4127 13.3964L13.9227 13.1664C13.2627 12.8364 12.8427 12.4864 12.8427 11.7464C12.8427 11.1664 13.0927 10.6864 13.6627 10.6864C14.2327 10.6864 14.4627 11.1564 14.6027 11.7164C14.6727 12.0264 14.9527 12.2264 15.3227 12.2264C15.7227 12.2264 15.9727 11.9464 15.9727 11.5764C15.9727 11.4064 15.9127 11.2064 15.8627 11.0164C15.5427 10.0664 14.7627 9.3964 13.6627 9.3964C12.3727 9.3964 11.3227 10.2664 11.3227 11.8764C11.3227 13.2464 12.1027 13.9064 13.0327 14.3864L13.5127 14.6164C14.1927 14.9664 14.6127 15.2964 14.6127 16.0664C14.6127 16.7064 14.2827 17.1864 13.6827 17.1864C13.1127 17.1864 12.8227 16.7464 12.6827 16.1564C12.5927 15.7864 12.3427 15.5964 11.9627 15.5964C11.5527 15.5964 11.2927 15.8964 11.2927 16.3064C11.2927 16.4464 11.3327 16.5964 11.3627 16.7364C11.6527 17.7964 12.4527 18.4564 13.6827 18.4564ZM17.7727 18.4064C18.2227 18.4064 18.4727 18.1264 18.5527 17.6864L18.8227 16.3064H20.8627L21.1627 17.7064C21.2727 18.2064 21.5327 18.4064 21.9427 18.4064C22.3627 18.4064 22.6827 18.0764 22.6827 17.6664C22.6827 17.5864 22.6227 17.2764 22.6027 17.1564L21.0527 10.4764C20.9027 9.8064 20.4927 9.4764 19.8227 9.4764C19.2127 9.4764 18.8127 9.7864 18.6627 10.4764L17.1127 17.1564C17.0727 17.3364 17.0527 17.4964 17.0527 17.6664C17.0527 18.1664 17.3727 18.4064 17.7727 18.4064ZM7.8627 18.4164C8.3627 18.4164 8.6427 18.0864 8.6427 17.5564V11.1164H9.7327C10.2527 11.1164 10.5527 10.8664 10.5527 10.3464C10.5527 9.8664 10.2527 9.6064 9.7327 9.6064H5.9727C5.4727 9.6064 5.1527 9.8564 5.1527 10.3464C5.1527 10.8664 5.4727 11.1164 5.9727 11.1164H7.0727V17.5564C7.0727 18.0864 7.3327 18.4164 7.8627 18.4164ZM19.0427 15.1164L19.7927 11.3164H19.8527L20.6327 15.1164Z" /></svg>