
<svg
    viewBox={0 0 37.720703125 21}
    xmlns="http://www.w3.org/2000/svg"
>
    <path
        fill="inherit"
        d="M18.1837 21.0038C21.6337 21.0038 23.3637 18.5538 23.3637 15.3038C23.3637 12.3038 22.0137 10.8738 19.3337 9.4738L18.3237 8.9438C16.7337 8.0938 15.6637 7.1638 15.6637 5.2937C15.6637 3.6137 16.4637 2.2138 18.0737 2.2138C19.6437 2.2138 20.5037 3.4838 20.7837 5.1638C20.8937 5.8538 21.3837 6.1337 21.9437 6.1337C22.5837 6.1337 23.0137 5.6337 23.0137 4.9938C23.0137 3.2237 21.5337 0.0038 18.0737 0.0038C15.0937 0.0038 13.2337 2.3837 13.2337 5.4537C13.2337 8.3538 14.7337 9.8837 17.2437 11.1838L18.2637 11.7137C19.9637 12.6038 20.9437 13.5738 20.9437 15.4738C20.9437 17.3238 20.0437 18.7838 18.2237 18.7838C16.5137 18.7838 15.5737 17.4038 15.3137 15.6538C15.1737 14.9438 14.6537 14.6738 14.1537 14.6738C13.4837 14.6738 13.0837 15.2338 13.0837 15.9238C13.0837 17.8438 14.5837 21.0038 18.1837 21.0038ZM26.7837 20.9038C27.4637 20.9038 27.8737 20.5338 28.0237 19.8538L29.0237 15.3538H34.2737L35.2737 19.8638C35.4237 20.5538 35.8437 20.9038 36.5337 20.9038C37.1837 20.9038 37.7237 20.4237 37.7237 19.7538C37.7237 19.6438 37.7037 19.4938 37.6637 19.3838L33.5537 1.7737C33.2937 0.7937 32.6937 0.1137 31.6337 0.1137C30.5537 0.1137 30.0237 0.7538 29.7737 1.7937L25.7037 19.1438C25.6737 19.3337 25.6037 19.5938 25.6037 19.7538C25.6037 20.4938 26.1137 20.9038 26.7837 20.9038ZM5.9037 20.8638C6.7637 20.8638 7.1537 20.2338 7.1537 19.4638V2.5837H10.5537C11.2637 2.5837 11.7737 2.1838 11.7737 1.4638C11.7737 0.7638 11.2637 0.3738 10.5537 0.3738H1.2137C0.4937 0.3738 0.0037 0.7638 0.0037 1.4638C0.0037 2.1838 0.4937 2.5837 1.2137 2.5837H4.6337V19.4638C4.6337 20.2938 5.0837 20.8638 5.9037 20.8638ZM29.4637 13.2438L31.6237 3.3038L33.8237 13.2438Z"
        fillRule="evenodd"
        clipRule="evenodd"
    />
</svg>
        