<svg viewBox="0 0 27.890625 27.890625" xmlns="http://www.w3.org/2000/svg"><path d="M13.9427 27.8864C21.6427 27.8864 27.8927 21.6464 27.8927 13.9464C27.8927 6.2464 21.6427 -0.0036 13.9427 -0.0036C6.2527 -0.0036 0.0027 6.2464 0.0027 13.9464C0.0027 21.6464 6.2527 27.8864 13.9427 27.8864ZM13.9427 25.5664C7.5227 25.5664 2.3227 20.3664 2.3227 13.9464C2.3227 7.5164 7.5227 2.3264 13.9427 2.3264C20.3727 2.3264 25.5627 7.5164 25.5627 13.9464C25.5627 20.3664 20.3727 25.5664 13.9427 25.5664ZM10.5827 21.2064H17.2227C18.4127 21.2064 19.0127 20.6264 19.0327 19.4364L19.1127 13.0164L20.7227 13.3664C21.3127 13.5064 21.7227 13.2664 21.8727 12.6464L22.4627 10.3464C22.6027 9.7364 22.3627 9.2964 21.7927 9.0464L17.1827 7.0864C16.9127 6.9564 16.6927 6.9764 16.4427 7.0864C15.5827 7.4964 14.8727 7.7064 13.9027 7.7064C12.9327 7.7064 12.2127 7.4964 11.3627 7.0864C11.1327 6.9764 10.8927 6.9564 10.6227 7.0864L6.0127 9.0464C5.4427 9.2964 5.1927 9.7364 5.3627 10.3464L5.9427 12.6464C6.0827 13.2664 6.4827 13.5064 7.0727 13.3664L8.6827 13.0164L8.7727 19.4364C8.7927 20.6264 9.3827 21.2064 10.5827 21.2064ZM13.9027 9.6664C12.8827 9.6664 12.1027 9.1964 11.7827 8.3364C12.4327 8.5764 13.1627 8.6864 13.9027 8.6864C14.6427 8.6864 15.3827 8.5764 16.0227 8.3364C15.6927 9.1864 14.9527 9.6664 13.9027 9.6664Z" /></svg>