
<svg
    viewBox={0 0 35.99936889057939 29.791157967190312}
    xmlns="http://www.w3.org/2000/svg"
>
    <path
        fill="inherit"
        d="M11.0417 29.7926H24.9517C27.4817 29.7926 28.7117 28.5726 28.7517 26.0626L28.9317 12.6326L32.2817 13.4026C33.5517 13.6826 34.3717 13.1626 34.6817 11.8526L35.9017 7.0026C36.2317 5.7026 35.7317 4.8026 34.4917 4.2826L24.8717 0.1826C24.3217 -0.0674 23.8117 -0.0574 23.3117 0.1926C21.5017 1.0526 20.0417 1.4926 18.0017 1.4926C15.9517 1.4926 14.4917 1.0526 12.6817 0.1926C12.1817 -0.0574 11.6717 -0.0674 11.1317 0.1826L1.5017 4.2826C0.2617 4.8026 -0.2183 5.7026 0.0917 7.0026L1.3117 11.8526C1.6217 13.1626 2.4417 13.6826 3.7217 13.4026L7.0817 12.6326L7.2417 26.0626C7.2817 28.5726 8.5117 29.7926 11.0417 29.7926ZM18.0017 5.7526C15.6617 5.7526 14.0217 4.5526 13.3317 2.5726C14.7617 3.1126 16.3817 3.4226 18.0017 3.4226C19.6217 3.4226 21.2417 3.1126 22.6617 2.5726C21.9817 4.5226 20.3717 5.7526 18.0017 5.7526Z"
        fillRule="evenodd"
        clipRule="evenodd"
    />
</svg>
        