
<svg
    viewBox={0 0 36.14341737511164 29.936309085960737}
    xmlns="http://www.w3.org/2000/svg"
>
    <path
        fill="inherit"
        d="M11.1353 29.9394H25.0253C27.3753 29.9394 28.8453 28.4694 28.8953 26.1394L29.0653 12.7894L32.3353 13.5394C33.6453 13.8494 34.4953 13.2994 34.8353 11.9394L36.0453 7.0894C36.3853 5.7494 35.8653 4.8194 34.6053 4.2894L25.0853 0.2294C24.3753 -0.0906 23.8953 -0.0606 23.3153 0.2094C21.5353 1.0594 20.0853 1.4994 18.0753 1.4994C16.0553 1.4994 14.6153 1.0594 12.8253 0.2094C12.2553 -0.0606 11.7553 -0.0906 11.0453 0.2294L1.5453 4.2894C0.2753 4.8194 -0.2347 5.7494 0.0953 7.0894L1.3153 11.9394C1.6453 13.2994 2.4853 13.8494 3.8153 13.5394L7.0853 12.7894L7.2653 26.1394C7.2853 28.4694 8.7653 29.9394 11.1353 29.9394ZM11.1553 27.8294C10.0553 27.8294 9.3853 27.1494 9.3653 26.0294L9.1753 10.7794C9.1753 10.4494 8.9153 10.2194 8.5453 10.2994L3.7653 11.3694C3.5053 11.4294 3.3253 11.3194 3.2653 11.0994L2.1853 6.7894C2.1053 6.4494 2.2053 6.3294 2.4753 6.2194L11.4453 2.3694C12.1453 5.4194 14.9353 7.5794 18.0753 7.5794C21.2053 7.5794 23.9953 5.4194 24.7053 2.3694L33.6753 6.2194C33.9353 6.3294 34.0453 6.4494 33.9653 6.7894L32.8653 11.0994C32.8153 11.3194 32.6453 11.4294 32.3953 11.3694L27.6053 10.2994C27.2253 10.2194 26.9753 10.4494 26.9753 10.7794L26.7853 26.0294C26.7753 27.1494 26.1053 27.8294 24.9953 27.8294ZM18.0753 3.4794C19.6453 3.4794 21.0153 3.2194 22.3553 2.6994C21.5853 4.3594 19.9253 5.4794 18.0753 5.4794C16.2153 5.4794 14.5653 4.3594 13.7953 2.6994C15.1353 3.2194 16.5053 3.4794 18.0753 3.4794Z"
        fillRule="evenodd"
        clipRule="evenodd"
    />
</svg>
        