
<svg
    viewBox="0 0 27.890625 27.890625"
    xmlns="http://www.w3.org/2000/svg"
>
    <path
        fill="inherit"
        d="M13.9427 27.8864C21.6427 27.8864 27.8927 21.6264 27.8927 13.9464C27.8927 6.2464 21.6427 -0.0036 13.9427 -0.0036C6.2627 -0.0036 0.0027 6.2464 0.0027 13.9464C0.0027 21.6264 6.2627 27.8864 13.9427 27.8864ZM10.4827 21.4264C9.2527 21.4264 8.6227 20.8364 8.6127 19.6064L8.5327 12.9864L6.8727 13.3564C6.2627 13.4964 5.8427 13.2364 5.7027 12.6064L5.1027 10.2264C4.9327 9.5964 5.1827 9.1464 5.7827 8.8864L10.5227 6.8664C10.8027 6.7364 11.0427 6.7564 11.2827 6.8664C12.1727 7.2864 12.9027 7.5064 13.9027 7.5064C14.9027 7.5064 15.6527 7.2864 16.5327 6.8664C16.7727 6.7564 17.0227 6.7364 17.2827 6.8664L22.0427 8.8864C22.6227 9.1464 22.8827 9.5964 22.7227 10.2264L22.1227 12.6064C21.9727 13.2364 21.5627 13.4964 20.9427 13.3564L19.2927 12.9864L19.1927 19.6064C19.1827 20.8364 18.5627 21.4264 17.3227 21.4264ZM13.9027 9.5264C14.9827 9.5264 15.7627 9.0364 16.0927 8.1664C15.4227 8.4064 14.6727 8.5164 13.9027 8.5164C13.1427 8.5164 12.3827 8.4064 11.7127 8.1664C12.0627 9.0464 12.8527 9.5264 13.9027 9.5264Z"
        fillRule="evenodd"
        clipRule="evenodd"
    />
</svg>
        