
<svg
    viewBox="0 0 27.890625 27.890625"
    xmlns="http://www.w3.org/2000/svg"
>
    <path
        fill="inherit"
        d="M13.9427 27.8864C21.6427 27.8864 27.8927 21.6264 27.8927 13.9464C27.8927 6.2464 21.6427 -0.0036 13.9427 -0.0036C6.2627 -0.0036 0.0027 6.2464 0.0027 13.9464C0.0027 21.6264 6.2627 27.8864 13.9427 27.8864ZM13.9627 20.6564C13.4527 20.6564 13.1227 20.3564 13.1227 19.8364V17.3764L11.1927 18.1464C11.1127 18.1864 11.0227 18.1964 10.9327 18.1964C10.6627 18.1964 10.4727 17.9964 10.4727 17.7364C10.4727 17.5164 10.5827 17.3664 10.8127 17.2664L13.1227 16.3364V14.5864L11.1927 15.3764C11.1127 15.4064 11.0227 15.4264 10.9327 15.4264C10.6627 15.4264 10.4727 15.2164 10.4727 14.9664C10.4727 14.7564 10.5827 14.6064 10.8127 14.4764L13.1227 13.5464V9.3364H9.7227C9.2527 9.3364 8.9427 9.0464 8.9427 8.6164C8.9427 8.1764 9.2427 7.9064 9.7227 7.9064H18.1927C18.6627 7.9064 18.9727 8.1764 18.9727 8.6164C18.9727 9.0264 18.6727 9.3364 18.1927 9.3364H14.7827V12.8964L16.7227 12.1164C16.8127 12.0764 16.9127 12.0564 16.9927 12.0564C17.2227 12.0564 17.4427 12.1964 17.4427 12.5264C17.4427 12.7564 17.3327 12.8964 17.0927 12.9864L14.7827 13.9364V15.6664L16.7227 14.8764C16.8127 14.8464 16.9127 14.8164 16.9927 14.8164C17.2227 14.8164 17.4427 14.9864 17.4427 15.2864C17.4427 15.5164 17.3327 15.6564 17.0927 15.7664L14.7827 16.6964V19.8364C14.7827 20.3564 14.4827 20.6564 13.9627 20.6564Z"
        fillRule="evenodd"
        clipRule="evenodd"
    />
</svg>
        