
<svg
    viewBox="0 0 30.529296875 29.17578125"
    xmlns="http://www.w3.org/2000/svg"
>
    <path
        fill="inherit"
        d="M1.0937 29.179H29.4237C30.0237 29.179 30.5337 28.669 30.5337 28.069C30.5337 27.469 30.0237 26.979 29.4237 26.979H28.7137V25.979C28.7137 25.429 28.3937 25.099 27.8337 25.099H26.9637V9.379H28.1637C28.9137 9.379 29.3537 8.829 29.3537 8.269C29.3537 7.859 29.1237 7.509 28.6137 7.219L16.9437 0.479C16.3937 0.169 15.8137 -0.001 15.2537 -0.001C14.6937 -0.001 14.1137 0.169 13.5937 0.479L1.9137 7.219C1.3937 7.509 1.1737 7.859 1.1737 8.269C1.1737 8.829 1.6137 9.379 2.3637 9.379H3.5637V25.099H2.7037C2.1437 25.099 1.8137 25.429 1.8137 25.979V26.979H1.0937C0.4937 26.979 0.0037 27.469 0.0037 28.069C0.0037 28.669 0.4937 29.179 1.0937 29.179ZM15.2837 22.309C14.7837 22.309 14.4537 22.029 14.4537 21.489V19.029L12.5237 19.809C12.4437 19.839 12.3337 19.869 12.2637 19.869C11.9937 19.869 11.8037 19.659 11.8037 19.399C11.8037 19.179 11.9037 19.029 12.1437 18.939L14.4537 18.009V16.259L12.5237 17.049C12.4437 17.079 12.3337 17.089 12.2637 17.089C11.9937 17.089 11.8037 16.889 11.8037 16.629C11.8037 16.409 11.9037 16.259 12.1437 16.149L14.4537 15.219V11.009H11.0437C10.5837 11.009 10.2637 10.719 10.2637 10.279C10.2637 9.829 10.5637 9.559 11.0437 9.559H19.5237C19.9837 9.559 20.2937 9.829 20.2937 10.279C20.2937 10.689 20.0037 11.009 19.5237 11.009H16.1037V14.559L18.0437 13.769C18.1437 13.739 18.2337 13.729 18.3237 13.729C18.5537 13.729 18.7737 13.859 18.7737 14.189C18.7737 14.409 18.6637 14.559 18.4137 14.659L16.1037 15.599V17.319L18.0437 16.539C18.1437 16.499 18.2337 16.489 18.3237 16.489C18.5537 16.489 18.7737 16.639 18.7737 16.949C18.7737 17.189 18.6637 17.319 18.4137 17.429L16.1037 18.359V21.489C16.1037 22.029 15.8037 22.309 15.2837 22.309Z"
        fillRule="evenodd"
        clipRule="evenodd"
    />
</svg>
        