
<svg
    viewBox={0 0 32.935546875 27.33018496744969}
    xmlns="http://www.w3.org/2000/svg"
>
    <path
        fill="inherit"
        d="M16.4627 5.864C18.9327 5.864 21.2027 6.724 23.0227 8.134C23.2927 8.354 23.6527 8.324 23.9127 8.064L27.0827 4.894C27.4027 4.584 27.3827 4.124 27.0527 3.854C24.2027 1.454 20.4927 0.004 16.4627 0.004C12.4427 0.004 8.7327 1.454 5.8827 3.854C5.5527 4.124 5.5327 4.584 5.8527 4.894L9.0227 8.064C9.2827 8.324 9.6527 8.354 9.9527 8.124C11.7627 6.724 14.0127 5.864 16.4627 5.864ZM0.0027 16.464C0.0027 20.494 1.4527 24.204 3.8727 27.074C4.1427 27.414 4.6027 27.414 4.9127 27.094L8.1627 23.844C8.3627 23.624 8.3927 23.324 8.2027 23.094C6.7127 21.194 5.8627 18.924 5.8627 16.464C5.8627 14.014 6.7027 11.744 8.1227 9.944C8.3427 9.654 8.3427 9.284 8.0827 9.024L4.9127 5.854C4.5927 5.534 4.1427 5.534 3.8727 5.864C1.4527 8.734 0.0027 12.444 0.0027 16.464ZM32.9327 16.464C32.9327 12.444 31.4827 8.734 29.0627 5.864C28.7927 5.534 28.3327 5.534 28.0227 5.854L24.8527 9.024C24.5927 9.284 24.5827 9.654 24.8127 9.944C26.2227 11.744 27.0727 14.014 27.0727 16.464C27.0727 18.924 26.2227 21.194 24.7327 23.094C24.5427 23.324 24.5527 23.624 24.7627 23.844L28.0127 27.094C28.3327 27.414 28.7827 27.414 29.0627 27.074C31.4827 24.204 32.9327 20.494 32.9327 16.464ZM13.5227 20.764C13.6027 20.764 13.6827 20.754 13.7827 20.724L15.6527 19.964V22.364C15.6527 22.874 15.9527 23.164 16.4427 23.164C16.9527 23.164 17.2427 22.874 17.2427 22.364V19.314L19.4927 18.414C19.7127 18.324 19.8227 18.184 19.8227 17.964C19.8227 17.654 19.6227 17.514 19.3827 17.514C19.3027 17.514 19.2227 17.524 19.1227 17.554L17.2427 18.324V16.634L19.4927 15.724C19.7127 15.624 19.8227 15.494 19.8227 15.274C19.8227 14.954 19.6227 14.824 19.3827 14.824C19.3027 14.824 19.2227 14.844 19.1227 14.874L17.2427 15.624V12.194H20.5627C21.0127 12.194 21.3127 11.884 21.3127 11.484C21.3127 11.064 21.0027 10.784 20.5627 10.784H12.3327C11.8827 10.784 11.5827 11.064 11.5827 11.484C11.5827 11.904 11.8927 12.194 12.3327 12.194H15.6527V16.284L13.4027 17.184C13.1827 17.284 13.0727 17.434 13.0727 17.634C13.0727 17.884 13.2527 18.084 13.5227 18.084C13.6027 18.084 13.6827 18.074 13.7827 18.034L15.6527 17.284V18.964L13.4027 19.864C13.1827 19.964 13.0727 20.124 13.0727 20.314C13.0727 20.574 13.2527 20.764 13.5227 20.764Z"
        fillRule="evenodd"
        clipRule="evenodd"
    />
</svg>
        