<svg viewBox="0 0 25.169921875 25.169921875" xmlns="http://www.w3.org/2000/svg"><path d="M4.2937 25.1692H20.8737C23.7437 25.1692 25.1737 23.7592 25.1737 20.9492V4.2392C25.1737 1.4192 23.7437 -0.0008 20.8737 -0.0008H4.2937C1.4337 -0.0008 0.0037 1.4192 0.0037 4.2392V20.9492C0.0037 23.7592 1.4337 25.1692 4.2937 25.1692ZM12.6037 19.2892C12.1037 19.2892 11.7737 18.9892 11.7737 18.4692V16.0092L9.8537 16.7792C9.7637 16.8192 9.6637 16.8292 9.5837 16.8292C9.3137 16.8292 9.1237 16.6292 9.1237 16.3692C9.1237 16.1492 9.2237 15.9992 9.4637 15.8992L11.7737 14.9692V13.2192L9.8537 14.0092C9.7637 14.0392 9.6637 14.0592 9.5837 14.0592C9.3137 14.0592 9.1237 13.8492 9.1237 13.5992C9.1237 13.3892 9.2237 13.2392 9.4637 13.1092L11.7737 12.1792V7.9692H8.3637C7.9037 7.9692 7.5837 7.6792 7.5837 7.2492C7.5837 6.8092 7.8937 6.5392 8.3637 6.5392H16.8437C17.3037 6.5392 17.6237 6.8092 17.6237 7.2492C17.6237 7.6592 17.3237 7.9692 16.8437 7.9692H13.4237V11.5292L15.3637 10.7492C15.4637 10.7092 15.5537 10.6892 15.6437 10.6892C15.8737 10.6892 16.0937 10.8292 16.0937 11.1592C16.0937 11.3892 15.9837 11.5292 15.7337 11.6192L13.4237 12.5692V14.2992L15.3637 13.5092C15.4637 13.4792 15.5537 13.4492 15.6437 13.4492C15.8737 13.4492 16.0937 13.6192 16.0937 13.9192C16.0937 14.1492 15.9837 14.2892 15.7337 14.3992L13.4237 15.3292V18.4692C13.4237 18.9892 13.1237 19.2892 12.6037 19.2892Z" /></svg>