
<svg
    viewBox={0 0 25.169921875 25.169921875}
    xmlns="http://www.w3.org/2000/svg"
>
    <path
        fill="inherit"
        d="M4.2937 25.1692H20.8737C23.7437 25.1692 25.1737 23.7592 25.1737 20.9492V4.2392C25.1737 1.4192 23.7437 -0.0008 20.8737 -0.0008H4.2937C1.4337 -0.0008 0.0037 1.4192 0.0037 4.2392V20.9492C0.0037 23.7592 1.4337 25.1692 4.2937 25.1692ZM4.3237 22.9692C2.9537 22.9692 2.2037 22.2392 2.2037 20.8192V4.3592C2.2037 2.9392 2.9537 2.1992 4.3237 2.1992H20.8537C22.2037 2.1992 22.9737 2.9392 22.9737 4.3592V20.8192C22.9737 22.2392 22.2037 22.9692 20.8537 22.9692ZM9.6637 16.7092C9.7437 16.7092 9.8337 16.6892 9.9237 16.6492L11.7837 15.8992V18.3092C11.7837 18.7992 12.1037 19.0992 12.5937 19.0992C13.0937 19.0992 13.3837 18.7992 13.3837 18.3092V15.2592L15.6237 14.3392C15.8637 14.2492 15.9737 14.1092 15.9737 13.8892C15.9737 13.5892 15.7637 13.4392 15.5337 13.4392C15.4537 13.4392 15.3637 13.4692 15.2737 13.4892L13.3837 14.2592V12.5692L15.6237 11.6592C15.8637 11.5692 15.9737 11.4292 15.9737 11.2092C15.9737 10.8992 15.7637 10.7592 15.5337 10.7592C15.4537 10.7592 15.3637 10.7692 15.2737 10.7992L13.3837 11.5692V8.1192H16.7037C17.1537 8.1192 17.4637 7.8192 17.4637 7.4192C17.4637 6.9992 17.1437 6.7292 16.7037 6.7292H8.4737C8.0237 6.7292 7.7237 6.9992 7.7237 7.4192C7.7237 7.8492 8.0437 8.1192 8.4737 8.1192H11.7837V12.2092L9.5437 13.1092C9.3237 13.2192 9.2137 13.3692 9.2137 13.5792C9.2137 13.8192 9.3937 14.0092 9.6637 14.0092C9.7437 14.0092 9.8337 13.9992 9.9237 13.9692L11.7837 13.2192V14.8992L9.5437 15.8092C9.3237 15.8992 9.2137 16.0492 9.2137 16.2592C9.2137 16.4992 9.3937 16.7092 9.6637 16.7092Z"
        fillRule="evenodd"
        clipRule="evenodd"
    />
</svg>
        