
<svg
    viewBox="0 0 32.935546875 27.26189615322232"
    xmlns="http://www.w3.org/2000/svg"
>
    <path
        fill="inherit"
        d="M32.9327 16.3992C32.9327 7.7792 26.3227 0.7192 17.8927 -0.0008C17.4627 -0.0408 17.1327 0.2792 17.1327 0.7192V5.1892C17.1327 5.5592 17.3927 5.8392 17.7627 5.8692C22.9927 6.5092 27.0727 10.9792 27.0727 16.3992C27.0727 18.8592 26.2227 21.1292 24.7327 23.0292C24.5427 23.2592 24.5527 23.5592 24.7627 23.7792L28.0227 27.0292C28.3327 27.3292 28.7927 27.3292 29.0627 27.0092C31.4827 24.1392 32.9327 20.4292 32.9327 16.3992ZM0.0027 16.3992C0.0027 20.4392 1.4527 24.1492 3.8727 27.0192C4.1427 27.3492 4.5927 27.3292 4.9127 27.0292L8.1727 23.7792C8.3827 23.5592 8.3927 23.2592 8.2027 23.0292C6.7027 21.1292 5.8627 18.8592 5.8627 16.3992C5.8627 10.9792 9.9427 6.5092 15.1727 5.8692C15.5427 5.8392 15.8027 5.5592 15.8027 5.1892V0.7192C15.8027 0.2792 15.4727 -0.0408 15.0427 -0.0008C6.6127 0.7192 0.0027 7.7792 0.0027 16.3992ZM13.5227 20.6992C13.6027 20.6992 13.6827 20.6892 13.7827 20.6592L15.6527 19.8992V22.2992C15.6527 22.8092 15.9527 23.0992 16.4427 23.0992C16.9527 23.0992 17.2427 22.8092 17.2427 22.2992V19.2492L19.4927 18.3492C19.7127 18.2592 19.8227 18.1192 19.8227 17.8992C19.8227 17.5892 19.6227 17.4492 19.3827 17.4492C19.3027 17.4492 19.2227 17.4592 19.1227 17.4892L17.2427 18.2592V16.5692L19.4927 15.6592C19.7127 15.5592 19.8227 15.4292 19.8227 15.2092C19.8227 14.8892 19.6227 14.7592 19.3827 14.7592C19.3027 14.7592 19.2227 14.7792 19.1227 14.8092L17.2427 15.5592V12.1292H20.5627C21.0127 12.1292 21.3127 11.8192 21.3127 11.4192C21.3127 10.9992 21.0027 10.7192 20.5627 10.7192H12.3327C11.8827 10.7192 11.5827 10.9992 11.5827 11.4192C11.5827 11.8392 11.8927 12.1292 12.3327 12.1292H15.6527V16.2192L13.4027 17.1192C13.1827 17.2192 13.0727 17.3692 13.0727 17.5692C13.0727 17.8192 13.2527 18.0192 13.5227 18.0192C13.6027 18.0192 13.6827 18.0092 13.7827 17.9692L15.6527 17.2192V18.8992L13.4027 19.7992C13.1827 19.8992 13.0727 20.0592 13.0727 20.2492C13.0727 20.5092 13.2527 20.6992 13.5227 20.6992Z"
        fillRule="evenodd"
        clipRule="evenodd"
    />
</svg>
        