
<svg
    viewBox={0 0 27.890625 27.890625}
    xmlns="http://www.w3.org/2000/svg"
>
    <path
        fill="inherit"
        d="M13.9427 27.8864C21.6427 27.8864 27.8927 21.6464 27.8927 13.9464C27.8927 6.2464 21.6427 -0.0036 13.9427 -0.0036C6.2527 -0.0036 0.0027 6.2464 0.0027 13.9464C0.0027 21.6464 6.2527 27.8864 13.9427 27.8864ZM13.9427 25.5664C7.5227 25.5664 2.3227 20.3664 2.3227 13.9464C2.3227 7.5164 7.5227 2.3264 13.9427 2.3264C20.3727 2.3264 25.5627 7.5164 25.5627 13.9464C25.5627 20.3664 20.3727 25.5664 13.9427 25.5664ZM11.0027 18.0764C11.0927 18.0764 11.1727 18.0564 11.2527 18.0164L13.1227 17.2664V19.6764C13.1227 20.1664 13.4427 20.4664 13.9327 20.4664C14.4327 20.4664 14.7227 20.1664 14.7227 19.6764V16.6264L16.9627 15.7064C17.2027 15.6164 17.3127 15.4764 17.3127 15.2564C17.3127 14.9564 17.1027 14.8064 16.8727 14.8064C16.7927 14.8064 16.7027 14.8364 16.6127 14.8564L14.7227 15.6264V13.9364L16.9627 13.0264C17.2027 12.9364 17.3127 12.7964 17.3127 12.5764C17.3127 12.2664 17.1027 12.1264 16.8727 12.1264C16.7927 12.1264 16.7027 12.1364 16.6127 12.1664L14.7227 12.9364V9.4864H18.0427C18.5027 9.4864 18.8027 9.1864 18.8027 8.7864C18.8027 8.3664 18.4827 8.0964 18.0427 8.0964H9.8127C9.3627 8.0964 9.0627 8.3664 9.0627 8.7864C9.0627 9.2164 9.3827 9.4864 9.8127 9.4864H13.1227V13.5764L10.8827 14.4764C10.6627 14.5864 10.5527 14.7364 10.5527 14.9464C10.5527 15.1864 10.7327 15.3764 11.0027 15.3764C11.0927 15.3764 11.1727 15.3664 11.2527 15.3364L13.1227 14.5864V16.2664L10.8827 17.1764C10.6627 17.2664 10.5527 17.4164 10.5527 17.6264C10.5527 17.8664 10.7327 18.0764 11.0027 18.0764Z"
        fillRule="evenodd"
        clipRule="evenodd"
    />
</svg>
        