<svg viewBox="0 0 19.140625 24.787109375" xmlns="http://www.w3.org/2000/svg"><path d="M3.8237 19.9305C3.9937 19.9305 4.1537 19.9105 4.3337 19.8205L8.2337 18.2205V23.4205C8.2337 24.2305 8.7737 24.7905 9.5737 24.7905C10.3737 24.7905 10.9237 24.2305 10.9237 23.4205V17.1205L15.5437 15.2005C15.9837 15.0205 16.2037 14.7205 16.2037 14.3105C16.2037 13.8605 15.9037 13.4705 15.3437 13.4705C15.1937 13.4705 15.0137 13.4905 14.8237 13.5805L10.9237 15.1805V11.6905L15.5437 9.7905C15.9837 9.6105 16.2037 9.3105 16.2037 8.8905C16.2037 8.4405 15.9037 8.0405 15.3437 8.0405C15.1937 8.0405 15.0137 8.0805 14.8237 8.1505L10.9237 9.7505V2.4305H17.8537C18.6037 2.4305 19.1437 1.9105 19.1437 1.2005C19.1437 0.5105 18.6037 0.0005 17.8537 0.0005H1.3037C0.5437 0.0005 0.0037 0.5105 0.0037 1.2005C0.0037 1.9105 0.5437 2.4305 1.3037 2.4305H8.2337V10.8505L3.6137 12.7605C3.1837 12.9205 2.9837 13.2205 2.9837 13.6405C2.9837 14.1405 3.3337 14.5105 3.8237 14.5105C3.9937 14.5105 4.1537 14.4805 4.3337 14.4005L8.2337 12.8005V16.2805L3.6137 18.1805C3.1837 18.3505 2.9837 18.6505 2.9837 19.0705C2.9837 19.5605 3.3337 19.9305 3.8237 19.9305Z" /></svg>