
<svg
    viewBox="0 0 30.5703125 30.5703125"
    xmlns="http://www.w3.org/2000/svg"
>
    <path
        fill="inherit"
        d="M15.2827 30.5663C23.6827 30.5663 30.5727 23.6763 30.5727 15.2863C30.5727 6.8863 23.6827 -0.0038 15.2827 -0.0038C6.8927 -0.0038 0.0027 6.8863 0.0027 15.2863C0.0027 23.6763 6.8927 30.5663 15.2827 30.5663ZM15.2827 25.4862C9.6527 25.4862 5.0827 20.9162 5.0827 15.2863C5.0827 9.6363 9.6527 5.0863 15.2827 5.0863C20.9327 5.0863 25.4827 9.6363 25.4827 15.2863C25.4827 20.9162 20.9327 25.4862 15.2827 25.4862ZM12.3627 19.4162C12.4427 19.4162 12.5227 19.3963 12.6227 19.3563L14.4827 18.6063V21.0163C14.4827 21.5063 14.7927 21.8063 15.2827 21.8063C15.7927 21.8063 16.0827 21.5063 16.0827 21.0163V17.9663L18.3227 17.0463C18.5527 16.9563 18.6627 16.8163 18.6627 16.5962C18.6627 16.2963 18.4527 16.1463 18.2227 16.1463C18.1427 16.1463 18.0627 16.1763 17.9627 16.1963L16.0827 16.9663V15.2763L18.3227 14.3663C18.5527 14.2763 18.6627 14.1363 18.6627 13.9163C18.6627 13.6063 18.4527 13.4663 18.2227 13.4663C18.1427 13.4663 18.0627 13.4763 17.9627 13.5063L16.0827 14.2763V10.8263H19.4027C19.8527 10.8263 20.1527 10.5262 20.1527 10.1263C20.1527 9.7063 19.8427 9.4363 19.4027 9.4363H11.1727C10.7227 9.4363 10.4227 9.7063 10.4227 10.1263C10.4227 10.5563 10.7327 10.8263 11.1727 10.8263H14.4827V14.9163L12.2327 15.8163C12.0127 15.9263 11.9127 16.0763 11.9127 16.2863C11.9127 16.5262 12.0827 16.7163 12.3627 16.7163C12.4427 16.7163 12.5227 16.7063 12.6227 16.6763L14.4827 15.9263V17.6063L12.2327 18.5163C12.0127 18.6063 11.9127 18.7563 11.9127 18.9663C11.9127 19.2063 12.0827 19.4162 12.3627 19.4162Z"
        fillRule="evenodd"
        clipRule="evenodd"
    />
</svg>
        