
<svg
    viewBox="0 0 30.529296875 29.17578125"
    xmlns="http://www.w3.org/2000/svg"
>
    <path
        fill="inherit"
        d="M1.8137 25.919H28.7137V25.009C28.7137 24.459 28.3937 24.129 27.8337 24.129H26.9637V9.379H28.1637C28.9137 9.379 29.3537 8.829 29.3537 8.269C29.3537 7.859 29.1237 7.509 28.6137 7.219L16.9437 0.479C16.3937 0.169 15.8137 -0.001 15.2537 -0.001C14.6937 -0.001 14.1137 0.169 13.5937 0.479L1.9137 7.219C1.3937 7.509 1.1737 7.859 1.1737 8.269C1.1737 8.829 1.6137 9.379 2.3637 9.379H3.5637V24.129H2.7037C2.1437 24.129 1.8137 24.459 1.8137 25.009ZM5.6337 24.129V7.629L14.7237 2.529C14.8937 2.429 15.0837 2.379 15.2537 2.379C15.4337 2.379 15.6237 2.429 15.8037 2.529L24.8937 7.629V24.129ZM12.3437 18.509C12.4137 18.509 12.5137 18.499 12.5937 18.469L14.4637 17.709V20.109C14.4637 20.619 14.7837 20.909 15.2737 20.909C15.7737 20.909 16.0637 20.619 16.0637 20.109V17.059L18.3037 16.159C18.5437 16.069 18.6437 15.929 18.6437 15.709C18.6437 15.399 18.4437 15.259 18.2137 15.259C18.1337 15.259 18.0437 15.269 17.9537 15.299L16.0637 16.069V14.379L18.3037 13.469C18.5437 13.369 18.6437 13.239 18.6437 13.019C18.6437 12.699 18.4437 12.569 18.2137 12.569C18.1337 12.569 18.0437 12.589 17.9537 12.619L16.0637 13.369V9.939H19.3837C19.8337 9.939 20.1437 9.629 20.1437 9.229C20.1437 8.809 19.8237 8.529 19.3837 8.529H11.1537C10.7037 8.529 10.4037 8.809 10.4037 9.229C10.4037 9.649 10.7237 9.939 11.1537 9.939H14.4637V14.029L12.2237 14.929C12.0037 15.029 11.8937 15.179 11.8937 15.379C11.8937 15.629 12.0737 15.829 12.3437 15.829C12.4137 15.829 12.5137 15.819 12.5937 15.779L14.4637 15.029V16.709L12.2237 17.609C12.0037 17.709 11.8937 17.869 11.8937 18.059C11.8937 18.319 12.0737 18.509 12.3437 18.509ZM1.0937 29.179H29.4237C30.0237 29.179 30.5337 28.669 30.5337 28.069C30.5337 27.469 30.0237 26.979 29.4237 26.979H1.0937C0.4937 26.979 0.0037 27.469 0.0037 28.069C0.0037 28.669 0.4937 29.179 1.0937 29.179Z"
        fillRule="evenodd"
        clipRule="evenodd"
    />
</svg>
        