
<svg
    viewBox="0 0 28.851139927326685 28.7861328125"
    xmlns="http://www.w3.org/2000/svg"
>
    <path
        fill="inherit"
        d="M2.5555 28.785C3.9755 28.785 5.1255 27.625 5.1255 26.215C5.1255 26.025 5.0955 25.835 5.0755 25.655L9.2955 21.435L14.6855 21.415C15.5555 21.415 16.4855 21.105 17.1355 20.475L28.4555 9.315C28.9955 8.775 28.9755 7.895 28.4555 7.365C27.9155 6.815 27.0255 6.815 26.4955 7.365L15.6155 18.255C15.2155 18.645 14.7355 18.875 14.1755 18.875H10.3655L10.1555 18.625V14.525C10.1555 13.965 10.3755 13.475 10.7555 13.095L21.5055 2.375C22.0355 1.825 22.0255 0.955 21.5055 0.405C20.9755 -0.125 20.0855 -0.145 19.5555 0.415L8.3955 11.735C7.7255 12.425 7.4555 13.295 7.4355 14.185V19.365L3.1155 23.705C2.9255 23.655 2.7455 23.645 2.5555 23.645C1.1455 23.645 -0.0045 24.795 -0.0045 26.215C-0.0045 27.625 1.1455 28.785 2.5555 28.785Z"
        fillRule="evenodd"
        clipRule="evenodd"
    />
</svg>
        