
<svg
    viewBox="0 0 27.890625 27.890625"
    xmlns="http://www.w3.org/2000/svg"
>
    <path
        fill="inherit"
        d="M13.9427 27.8864C21.6427 27.8864 27.8927 21.6264 27.8927 13.9464C27.8927 6.2464 21.6427 -0.0036 13.9427 -0.0036C6.2627 -0.0036 0.0027 6.2464 0.0027 13.9464C0.0027 21.6264 6.2627 27.8864 13.9427 27.8864ZM12.2927 20.1064C11.6327 20.1064 11.1827 19.6964 11.1827 19.0764V14.6864L9.8027 15.2564C9.7227 15.2864 9.5927 15.3164 9.5327 15.3164C9.2727 15.3164 9.0827 15.1064 9.0827 14.8464C9.0827 14.6264 9.1727 14.4964 9.4027 14.3964L11.1827 13.6864V11.9364L9.8027 12.4964C9.7027 12.5364 9.5927 12.5464 9.5327 12.5464C9.2727 12.5464 9.0827 12.3564 9.0827 12.0864C9.0827 11.8664 9.1727 11.7164 9.4027 11.6364L11.1827 10.9064V8.3164C11.1827 7.8164 11.5427 7.4664 12.0327 7.4664C12.5227 7.4664 12.8527 7.8164 12.8527 8.3164V10.2564L15.3827 9.2264C15.4927 9.1864 15.5727 9.1464 15.6527 9.1464C15.9927 9.1464 16.1027 9.4164 16.1027 9.6064C16.1027 9.8264 15.9827 10.0064 15.7527 10.0864L12.8527 11.2664V13.0064L15.3827 11.9764C15.4727 11.9464 15.5627 11.9264 15.6427 11.9264C15.9127 11.9264 16.1027 12.0964 16.1027 12.3964C16.1027 12.5964 15.9827 12.7564 15.7527 12.8564L12.8527 14.0164V18.5264C14.0527 18.5264 15.2327 18.0764 16.0527 17.1864C16.5927 16.6064 16.9827 15.8464 17.1027 14.9564C17.1627 14.4764 17.4027 14.1864 17.8827 14.1864C18.4027 14.1864 18.6527 14.5364 18.6527 14.9864C18.6527 16.1864 17.9527 17.4564 17.0327 18.3864C15.9327 19.4864 14.1327 20.1064 12.4527 20.1064Z"
        fillRule="evenodd"
        clipRule="evenodd"
    />
</svg>
        