
<svg
    viewBox={0 0 25.169921875 25.169921875}
    xmlns="http://www.w3.org/2000/svg"
>
    <path
        fill="inherit"
        d="M4.2937 25.1692H20.8737C23.7437 25.1692 25.1737 23.7592 25.1737 20.9492V4.2392C25.1737 1.4192 23.7437 -0.0008 20.8737 -0.0008H4.2937C1.4337 -0.0008 0.0037 1.4192 0.0037 4.2392V20.9492C0.0037 23.7592 1.4337 25.1692 4.2937 25.1692ZM10.9337 18.7392C10.2937 18.7392 9.8437 18.3292 9.8437 17.7092V13.3192L8.4537 13.8892C8.3637 13.9192 8.2437 13.9492 8.1737 13.9492C7.9137 13.9492 7.7237 13.7392 7.7237 13.4792C7.7237 13.2592 7.8237 13.1292 8.0537 13.0292L9.8437 12.3192V10.5692L8.4537 11.1292C8.3537 11.1692 8.2437 11.1792 8.1737 11.1792C7.9137 11.1792 7.7237 10.9892 7.7237 10.7192C7.7237 10.4992 7.8237 10.3492 8.0537 10.2692L9.8437 9.5392V6.9492C9.8437 6.4492 10.1837 6.0992 10.6737 6.0992C11.1737 6.0992 11.4937 6.4492 11.4937 6.9492V8.8892L14.0237 7.8592C14.1337 7.8192 14.2237 7.7792 14.3037 7.7792C14.6537 7.7792 14.7537 8.0492 14.7537 8.2392C14.7537 8.4592 14.6337 8.6392 14.3937 8.7192L11.4937 9.8992V11.6392L14.0237 10.6092C14.1237 10.5792 14.2037 10.5592 14.2837 10.5592C14.5637 10.5592 14.7537 10.7292 14.7537 11.0292C14.7537 11.2292 14.6337 11.3892 14.3937 11.4892L11.4937 12.6492V17.1592C12.7037 17.1592 13.8937 16.7092 14.6937 15.8192C15.2437 15.2392 15.6237 14.4792 15.7537 13.5892C15.8037 13.1092 16.0637 12.8192 16.5337 12.8192C17.0537 12.8192 17.2937 13.1692 17.2937 13.6192C17.2937 14.8192 16.5937 16.0892 15.6837 17.0192C14.5737 18.1192 12.7837 18.7392 11.1037 18.7392Z"
        fillRule="evenodd"
        clipRule="evenodd"
    />
</svg>
        