
<svg
    viewBox="0 0 30.5703125 30.5703125"
    xmlns="http://www.w3.org/2000/svg"
>
    <path
        fill="inherit"
        d="M15.2827 30.5663C23.6827 30.5663 30.5727 23.6763 30.5727 15.2863C30.5727 6.8863 23.6827 -0.0038 15.2827 -0.0038C6.8927 -0.0038 0.0027 6.8863 0.0027 15.2863C0.0027 23.6763 6.8927 30.5663 15.2827 30.5663ZM15.2827 25.4862C9.6527 25.4862 5.0827 20.9162 5.0827 15.2863C5.0827 9.6363 9.6527 5.0863 15.2827 5.0863C20.9327 5.0863 25.4827 9.6363 25.4827 15.2863C25.4827 20.9162 20.9327 25.4862 15.2827 25.4862ZM13.6727 21.2563H13.8327C15.4627 21.2563 17.2027 20.6463 18.2827 19.5963C19.1727 18.6863 19.8427 17.4563 19.8427 16.2863C19.8427 15.8463 19.6027 15.5163 19.1027 15.5163C18.6527 15.5163 18.4027 15.7863 18.3427 16.2563C18.2227 17.1163 17.8527 17.8663 17.3227 18.4263C16.5427 19.2863 15.3827 19.7263 14.2227 19.7263V15.3563L17.0327 14.2163C17.2527 14.1263 17.3727 13.9763 17.3727 13.7763C17.3727 13.4963 17.1827 13.3163 16.9227 13.3163C16.8427 13.3163 16.7627 13.3463 16.6827 13.3663L14.2227 14.3663V12.6863L17.0327 11.5363C17.2527 11.4563 17.3727 11.2963 17.3727 11.0763C17.3727 10.8963 17.2627 10.6363 16.9427 10.6363C16.8527 10.6363 16.7727 10.6663 16.6827 10.7063L14.2227 11.7063V9.8163C14.2227 9.3363 13.9027 8.9963 13.4227 8.9963C12.9427 8.9963 12.6227 9.3363 12.6227 9.8163V12.3463L10.8827 13.0463C10.6627 13.1263 10.5727 13.2663 10.5727 13.4763C10.5727 13.7363 10.7627 13.9363 11.0027 13.9363C11.0727 13.9363 11.1727 13.9163 11.2627 13.8763L12.6227 13.3263V15.0263L10.8827 15.7263C10.6627 15.8163 10.5727 15.9463 10.5727 16.1563C10.5727 16.4063 10.7627 16.6163 11.0027 16.6163C11.0727 16.6163 11.1827 16.5863 11.2627 16.5563L12.6227 15.9963V20.2463C12.6227 20.8663 13.0527 21.2563 13.6727 21.2563Z"
        fillRule="evenodd"
        clipRule="evenodd"
    />
</svg>
        