
<svg
    viewBox={0 0 25.169921875 25.169921875}
    xmlns="http://www.w3.org/2000/svg"
>
    <path
        fill="inherit"
        d="M4.2937 25.1692H20.8737C23.7437 25.1692 25.1737 23.7592 25.1737 20.9492V4.2392C25.1737 1.4192 23.7437 -0.0008 20.8737 -0.0008H4.2937C1.4337 -0.0008 0.0037 1.4192 0.0037 4.2392V20.9492C0.0037 23.7592 1.4337 25.1692 4.2937 25.1692ZM4.3237 22.9692C2.9537 22.9692 2.2037 22.2392 2.2037 20.8192V4.3592C2.2037 2.9392 2.9537 2.1992 4.3237 2.1992H20.8537C22.2037 2.1992 22.9737 2.9392 22.9737 4.3592V20.8192C22.9737 22.2392 22.2037 22.9692 20.8537 22.9692ZM10.9737 18.5492H11.1437C12.7737 18.5492 14.5037 17.9392 15.5837 16.8892C16.4737 15.9792 17.1437 14.7492 17.1437 13.5792C17.1437 13.1392 16.9137 12.8092 16.4037 12.8092C15.9537 12.8092 15.7137 13.0792 15.6537 13.5492C15.5337 14.4092 15.1637 15.1592 14.6337 15.7192C13.8537 16.5792 12.6837 17.0192 11.5237 17.0192V12.6492L14.3437 11.5092C14.5637 11.4192 14.6837 11.2692 14.6837 11.0692C14.6837 10.7892 14.4937 10.6092 14.2337 10.6092C14.1537 10.6092 14.0637 10.6392 13.9837 10.6592L11.5237 11.6592V9.9792L14.3437 8.8292C14.5637 8.7492 14.6837 8.5892 14.6837 8.3692C14.6837 8.1892 14.5837 7.9292 14.2437 7.9292C14.1637 7.9292 14.0837 7.9592 13.9837 7.9992L11.5237 8.9992V7.1092C11.5237 6.6292 11.2137 6.2892 10.7337 6.2892C10.2537 6.2892 9.9237 6.6292 9.9237 7.1092V9.6392L8.1937 10.3392C7.9737 10.4192 7.8737 10.5592 7.8737 10.7692C7.8737 11.0292 8.0637 11.2292 8.3137 11.2292C8.3837 11.2292 8.4737 11.2092 8.5737 11.1692L9.9237 10.6192V12.3192L8.1937 13.0192C7.9737 13.1092 7.8737 13.2392 7.8737 13.4492C7.8737 13.6992 8.0637 13.9092 8.3137 13.9092C8.3837 13.9092 8.4937 13.8792 8.5737 13.8492L9.9237 13.2892V17.5392C9.9237 18.1592 10.3637 18.5492 10.9737 18.5492Z"
        fillRule="evenodd"
        clipRule="evenodd"
    />
</svg>
        