
<svg
    viewBox="0 0 32.935546875 27.26189615322232"
    xmlns="http://www.w3.org/2000/svg"
>
    <path
        fill="inherit"
        d="M32.9327 16.3992C32.9327 7.7792 26.3227 0.7192 17.8927 -0.0008C17.4627 -0.0408 17.1327 0.2792 17.1327 0.7192V5.1892C17.1327 5.5592 17.3927 5.8392 17.7627 5.8692C22.9927 6.5092 27.0727 10.9792 27.0727 16.3992C27.0727 18.8592 26.2227 21.1292 24.7327 23.0292C24.5427 23.2592 24.5527 23.5592 24.7627 23.7792L28.0227 27.0292C28.3327 27.3292 28.7927 27.3292 29.0627 27.0092C31.4827 24.1392 32.9327 20.4292 32.9327 16.3992ZM0.0027 16.3992C0.0027 20.4392 1.4527 24.1492 3.8727 27.0192C4.1427 27.3492 4.5927 27.3292 4.9127 27.0292L8.1727 23.7792C8.3827 23.5592 8.3927 23.2592 8.2027 23.0292C6.7027 21.1292 5.8627 18.8592 5.8627 16.3992C5.8627 10.9792 9.9427 6.5092 15.1727 5.8692C15.5427 5.8392 15.8027 5.5592 15.8027 5.1892V0.7192C15.8027 0.2792 15.4727 -0.0408 15.0427 -0.0008C6.6127 0.7192 0.0027 7.7792 0.0027 16.3992ZM14.8327 22.5492H15.0027C16.6427 22.5492 18.3627 21.9292 19.4427 20.8792C20.3327 19.9892 21.0027 18.7492 21.0027 17.5692C21.0027 17.1492 20.7827 16.8092 20.2627 16.8092C19.8127 16.8092 19.5627 17.0892 19.5127 17.5492C19.3827 18.4092 19.0127 19.1592 18.4827 19.7292C17.7027 20.5792 16.5527 21.0192 15.3927 21.0192V16.6592L18.1927 15.5092C18.4127 15.4092 18.5427 15.2592 18.5427 15.0692C18.5427 14.7992 18.3427 14.6092 18.0927 14.6092C18.0027 14.6092 17.9327 14.6292 17.8427 14.6692L15.3927 15.6692V13.9792L18.1927 12.8292C18.4327 12.7492 18.5427 12.5792 18.5427 12.3592C18.5427 12.1992 18.4427 11.9292 18.1027 11.9292C18.0227 11.9292 17.9327 11.9492 17.8427 11.9892L15.3927 12.9892V11.1192C15.3927 10.6292 15.0627 10.2992 14.5927 10.2992C14.1127 10.2992 13.7827 10.6292 13.7827 11.1192V13.6392L12.0627 14.3492C11.8227 14.4092 11.7327 14.5592 11.7327 14.7692C11.7327 15.0292 11.9227 15.2292 12.1727 15.2292C12.2327 15.2292 12.3327 15.2092 12.4327 15.1792L13.7827 14.6192V16.3092L12.0627 17.0092C11.8227 17.1092 11.7327 17.2292 11.7327 17.4492C11.7327 17.6992 11.9227 17.8992 12.1727 17.8992C12.2327 17.8992 12.3427 17.8892 12.4427 17.8492L13.7827 17.2992V21.5492C13.7827 22.1492 14.2227 22.5492 14.8327 22.5492Z"
        fillRule="evenodd"
        clipRule="evenodd"
    />
</svg>
        