
<svg
    viewBox={0 0 30.529296875 29.17578125}
    xmlns="http://www.w3.org/2000/svg"
>
    <path
        fill="inherit"
        d="M1.0937 29.179H29.4237C30.0237 29.179 30.5337 28.669 30.5337 28.069C30.5337 27.469 30.0237 26.979 29.4237 26.979H28.7137V25.979C28.7137 25.429 28.3937 25.099 27.8337 25.099H26.9637V9.379H28.1637C28.9137 9.379 29.3537 8.829 29.3537 8.269C29.3537 7.859 29.1237 7.509 28.6137 7.219L16.9437 0.479C16.3937 0.169 15.8137 -0.001 15.2537 -0.001C14.6937 -0.001 14.1137 0.169 13.5937 0.479L1.9137 7.219C1.3937 7.509 1.1737 7.859 1.1737 8.269C1.1737 8.829 1.6137 9.379 2.3637 9.379H3.5637V25.099H2.7037C2.1437 25.099 1.8137 25.429 1.8137 25.979V26.979H1.0937C0.4937 26.979 0.0037 27.469 0.0037 28.069C0.0037 28.669 0.4937 29.179 1.0937 29.179ZM13.6137 21.769C12.9637 21.769 12.5137 21.359 12.5137 20.739V16.349L11.1337 16.929C11.0437 16.949 10.9237 16.969 10.8537 16.969C10.5937 16.969 10.4037 16.779 10.4037 16.519C10.4037 16.299 10.5037 16.149 10.7337 16.049L12.5137 15.339V13.589L11.1337 14.169C11.0337 14.209 10.9237 14.219 10.8537 14.219C10.5937 14.219 10.4037 14.009 10.4037 13.749C10.4037 13.539 10.5037 13.389 10.7337 13.299L12.5137 12.579V9.979C12.5137 9.479 12.8637 9.129 13.3537 9.129C13.8537 9.129 14.1737 9.479 14.1737 9.979V11.919L16.7037 10.879C16.8037 10.859 16.8937 10.819 16.9837 10.819C17.3237 10.819 17.4337 11.089 17.4337 11.279C17.4337 11.499 17.3037 11.679 17.0737 11.759L14.1737 12.919V14.669L16.7037 13.649C16.8037 13.619 16.8837 13.579 16.9637 13.579C17.2437 13.579 17.4337 13.769 17.4337 14.059C17.4337 14.249 17.3037 14.419 17.0737 14.509L14.1737 15.679V20.189C15.3837 20.189 16.5537 19.739 17.3737 18.849C17.9237 18.269 18.3037 17.509 18.4137 16.629C18.4737 16.149 18.7337 15.859 19.2137 15.859C19.7237 15.859 19.9637 16.199 19.9637 16.649C19.9637 17.859 19.2737 19.129 18.3637 20.039C17.2537 21.149 15.4637 21.769 13.7837 21.769Z"
        fillRule="evenodd"
        clipRule="evenodd"
    />
</svg>
        