
<svg
    viewBox={0 0 18.1015625 24.486328125}
    xmlns="http://www.w3.org/2000/svg"
>
    <path
        fill="inherit"
        d="M5.8237 24.4911H6.0837C9.5937 24.4911 12.6437 23.3111 14.9137 21.0911C16.8037 19.2611 18.1037 16.7911 18.1037 14.3111C18.1037 13.6011 17.7337 13.0011 16.8837 13.0011C16.0537 13.0011 15.7137 13.5211 15.5837 14.3111C15.3537 16.2511 14.5037 17.9211 13.2737 19.1911C11.6437 20.8911 9.3937 21.8311 6.8237 21.8311V12.8511L12.6037 10.4011C13.0437 10.2311 13.2437 9.9511 13.2437 9.5311C13.2437 9.0611 12.9437 8.6811 12.3837 8.6811C12.2337 8.6811 12.0837 8.7111 11.8937 8.7911L6.8237 10.9111V7.4211L12.6037 5.0011C13.0437 4.8311 13.2437 4.5411 13.2437 4.1111C13.2437 3.5911 12.9037 3.2511 12.3837 3.2511C12.2337 3.2511 12.0837 3.2911 11.8937 3.3611L6.8237 5.4911V1.3911C6.8237 0.5711 6.2637 0.0011 5.4537 0.0011C4.6637 0.0011 4.1137 0.5711 4.1137 1.3911V6.6011L0.6137 8.0511C0.2037 8.2211 0.0037 8.5211 0.0037 8.9311C0.0037 9.4611 0.3537 9.8011 0.8437 9.8011C0.9937 9.8011 1.1737 9.7711 1.3537 9.6911L4.1137 8.5411V12.0211L0.6137 13.4711C0.2037 13.6411 0.0037 13.9311 0.0037 14.3411C0.0037 14.8711 0.3537 15.2311 0.8437 15.2311C0.9937 15.2311 1.1737 15.1911 1.3537 15.1211L4.1137 13.9411V22.7811C4.1137 23.7711 4.7037 24.4911 5.8237 24.4911Z"
        fillRule="evenodd"
        clipRule="evenodd"
    />
</svg>
        