
<svg
    viewBox="0 0 32.935546875 27.33018496744969"
    xmlns="http://www.w3.org/2000/svg"
>
    <path
        fill="inherit"
        d="M16.4627 5.864C18.9327 5.864 21.2027 6.724 23.0227 8.134C23.2927 8.354 23.6527 8.324 23.9127 8.064L27.0827 4.894C27.4027 4.584 27.3827 4.124 27.0527 3.854C24.2027 1.454 20.4927 0.004 16.4627 0.004C12.4427 0.004 8.7327 1.454 5.8827 3.854C5.5527 4.124 5.5327 4.584 5.8527 4.894L9.0227 8.064C9.2827 8.324 9.6527 8.354 9.9527 8.124C11.7627 6.724 14.0127 5.864 16.4627 5.864ZM0.0027 16.464C0.0027 20.494 1.4527 24.204 3.8727 27.074C4.1427 27.414 4.6027 27.414 4.9127 27.094L8.1627 23.844C8.3627 23.624 8.3927 23.324 8.2027 23.094C6.7127 21.194 5.8627 18.924 5.8627 16.464C5.8627 14.014 6.7027 11.744 8.1227 9.944C8.3427 9.654 8.3427 9.284 8.0827 9.024L4.9127 5.854C4.5927 5.534 4.1427 5.534 3.8727 5.864C1.4527 8.734 0.0027 12.444 0.0027 16.464ZM32.9327 16.464C32.9327 12.444 31.4827 8.734 29.0627 5.864C28.7927 5.534 28.3327 5.534 28.0227 5.854L24.8527 9.024C24.5927 9.284 24.5827 9.654 24.8127 9.944C26.2227 11.744 27.0727 14.014 27.0727 16.464C27.0727 18.924 26.2227 21.194 24.7327 23.094C24.5427 23.324 24.5527 23.624 24.7627 23.844L28.0127 27.094C28.3327 27.414 28.7827 27.414 29.0627 27.074C31.4827 24.204 32.9327 20.494 32.9327 16.464ZM14.8327 22.614H15.0027C16.6427 22.614 18.3627 21.994 19.4427 20.944C20.3327 20.054 21.0027 18.814 21.0027 17.634C21.0027 17.214 20.7827 16.874 20.2627 16.874C19.8127 16.874 19.5627 17.154 19.5127 17.614C19.3827 18.474 19.0127 19.224 18.4827 19.794C17.7027 20.644 16.5527 21.084 15.3927 21.084V16.724L18.1927 15.574C18.4127 15.474 18.5427 15.324 18.5427 15.134C18.5427 14.864 18.3427 14.674 18.0927 14.674C18.0027 14.674 17.9327 14.694 17.8427 14.734L15.3927 15.734V14.044L18.1927 12.894C18.4327 12.814 18.5427 12.644 18.5427 12.424C18.5427 12.264 18.4427 11.994 18.1027 11.994C18.0227 11.994 17.9327 12.014 17.8427 12.054L15.3927 13.054V11.184C15.3927 10.694 15.0627 10.364 14.5927 10.364C14.1127 10.364 13.7827 10.694 13.7827 11.184V13.704L12.0627 14.414C11.8227 14.474 11.7327 14.624 11.7327 14.834C11.7327 15.094 11.9227 15.294 12.1727 15.294C12.2327 15.294 12.3327 15.274 12.4327 15.244L13.7827 14.684V16.374L12.0627 17.074C11.8227 17.174 11.7327 17.294 11.7327 17.514C11.7327 17.764 11.9227 17.964 12.1727 17.964C12.2327 17.964 12.3427 17.954 12.4427 17.914L13.7827 17.364V21.614C13.7827 22.214 14.2227 22.614 14.8327 22.614Z"
        fillRule="evenodd"
        clipRule="evenodd"
    />
</svg>
        