
<svg
    viewBox={0 0 38.841796875 28.587890625}
    xmlns="http://www.w3.org/2000/svg"
>
    <path
        fill="inherit"
        d="M3.5137 22.6808H16.1837V20.4808H3.5537C2.6137 20.4808 2.2037 20.1008 2.2037 19.1408V3.5408C2.2037 2.5708 2.6137 2.2008 3.5537 2.2008H30.6237C31.5637 2.2008 31.9737 2.5708 31.9737 3.5408V15.9708H34.1837V3.5008C34.1837 1.1108 33.0037 0.0008 30.6637 0.0008H3.5137C1.1737 0.0008 0.0037 1.1108 0.0037 3.5008V19.1708C0.0037 21.5708 1.1737 22.6808 3.5137 22.6808ZM20.9637 28.5908H35.9437C37.8537 28.5908 38.8437 27.6208 38.8437 25.6608V20.7708C38.8437 18.8008 37.8537 17.8308 35.9437 17.8308H20.9637C19.0037 17.8308 18.0637 18.8008 18.0637 20.6808V25.6608C18.0637 27.6208 19.0037 28.5908 20.9637 28.5908ZM34.3437 23.9308C33.4737 23.9308 32.7737 23.2108 32.7737 22.3408C32.7737 21.4808 33.4737 20.7808 34.3437 20.7808C35.2037 20.7808 35.9037 21.4808 35.9037 22.3408C35.9037 23.2108 35.2037 23.9308 34.3437 23.9308ZM10.2137 27.3208H16.4037C16.2437 26.7008 16.2037 26.2408 16.2037 25.1008H10.2137C9.6137 25.1008 9.1037 25.5908 9.1037 26.2108C9.1037 26.8208 9.6137 27.3208 10.2137 27.3208Z"
        fillRule="evenodd"
        clipRule="evenodd"
    />
</svg>
        