
<svg
    viewBox={0 0 38.841796875 28.587890625}
    xmlns="http://www.w3.org/2000/svg"
>
    <path
        fill="inherit"
        d="M3.5137 22.6808H22.3037V20.4808H3.5537C2.6137 20.4808 2.2037 20.1008 2.2037 19.1408V3.5408C2.2037 2.5708 2.6137 2.2008 3.5537 2.2008H30.6237C31.5637 2.2008 31.9737 2.5708 31.9737 3.5408V7.6708H34.1837V3.5008C34.1837 1.1108 33.0037 0.0008 30.6637 0.0008H3.5137C1.1737 0.0008 0.0037 1.1108 0.0037 3.5008V19.1708C0.0037 21.5708 1.1737 22.6808 3.5137 22.6808ZM27.0537 28.5908H35.9437C37.8537 28.5908 38.8437 27.6208 38.8437 25.6608V12.4708C38.8437 10.5108 37.8537 9.5308 35.9437 9.5308H27.0537C25.1037 9.5308 24.1537 10.5108 24.1537 12.4708V25.6608C24.1537 27.6208 25.1037 28.5908 27.0537 28.5908ZM31.5037 16.5008C30.1837 16.5008 29.1337 15.4508 29.1437 14.1208C29.1637 12.8108 30.1837 11.7808 31.5037 11.7808C32.8137 11.7808 33.8537 12.8108 33.8537 14.1208C33.8537 15.4508 32.8137 16.5008 31.5037 16.5008ZM31.4837 15.3008C32.1337 15.3008 32.6437 14.7808 32.6437 14.1208C32.6437 13.4708 32.1337 12.9708 31.4837 12.9708C30.8537 12.9708 30.3337 13.4908 30.3337 14.1208C30.3337 14.7808 30.8437 15.3008 31.4837 15.3008ZM31.4837 26.2208C29.1637 26.2208 27.3137 24.3508 27.3137 22.0208C27.3137 19.6908 29.1637 17.8308 31.4837 17.8108C33.7937 17.8008 35.6837 19.6908 35.6837 22.0208C35.6837 24.3508 33.7937 26.2208 31.4837 26.2208ZM31.4837 23.7708C32.4737 23.7708 33.2637 23.0008 33.2637 22.0208C33.2637 21.0008 32.4837 20.2308 31.4837 20.2308C30.5137 20.2308 29.7337 21.0008 29.7337 22.0208C29.7337 23.0008 30.5137 23.7708 31.4837 23.7708ZM10.2137 27.3208H22.5037C22.3837 26.8508 22.3037 26.3308 22.3037 25.1008H10.2137C9.6137 25.1008 9.1037 25.5908 9.1037 26.2108C9.1037 26.8208 9.6137 27.3208 10.2137 27.3208Z"
        fillRule="evenodd"
        clipRule="evenodd"
    />
</svg>
        