
<svg
    viewBox={0 0 27.890625 27.890625}
    xmlns="http://www.w3.org/2000/svg"
>
    <path
        fill="inherit"
        d="M13.9427 27.8864C21.6427 27.8864 27.8927 21.6264 27.8927 13.9464C27.8927 6.2464 21.6427 -0.0036 13.9427 -0.0036C6.2627 -0.0036 0.0027 6.2464 0.0027 13.9464C0.0027 21.6264 6.2627 27.8864 13.9427 27.8864ZM7.6327 18.8364C6.4827 18.8364 5.6627 18.0364 5.6627 16.8864V9.6264C5.6627 8.4664 6.4827 7.6464 7.6327 7.6464H20.2327C21.3827 7.6464 22.2127 8.4664 22.2127 9.6264V16.8864C22.2127 18.0364 21.3827 18.8364 20.2327 18.8364ZM7.8027 17.4164H20.0727C20.4527 17.4164 20.7227 17.1464 20.7227 16.7464V9.7464C20.7227 9.3364 20.4527 9.0764 20.0727 9.0764H7.8027C7.4227 9.0764 7.1527 9.3364 7.1527 9.7464V16.7464C7.1527 17.1464 7.4227 17.4164 7.8027 17.4164ZM10.2927 21.7064C9.9027 21.7064 9.5727 21.3964 9.5727 20.9964C9.5727 20.6064 9.9027 20.2764 10.2927 20.2764H17.6227C18.0227 20.2764 18.3427 20.6064 18.3427 20.9964C18.3427 21.3964 18.0227 21.7064 17.6227 21.7064Z"
        fillRule="evenodd"
        clipRule="evenodd"
    />
</svg>
        