
<svg
    viewBox={0 0 27.890625 27.890625}
    xmlns="http://www.w3.org/2000/svg"
>
    <path
        fill="inherit"
        d="M13.9427 27.8864C21.6427 27.8864 27.8927 21.6264 27.8927 13.9464C27.8927 6.2464 21.6427 -0.0036 13.9427 -0.0036C6.2627 -0.0036 0.0027 6.2464 0.0027 13.9464C0.0027 21.6264 6.2627 27.8864 13.9427 27.8864ZM13.9427 20.5664C10.6327 20.5664 8.4227 18.6664 8.4227 15.6964V8.4864C8.4227 7.6964 8.8327 7.2164 9.5327 7.2164C10.2627 7.2164 10.6827 7.6964 10.6827 8.4864V15.4764C10.6827 17.4564 11.9727 18.6864 13.9427 18.6864C15.9127 18.6864 17.2027 17.4564 17.2027 15.4764V8.4864C17.2027 7.6964 17.6227 7.2164 18.3227 7.2164C19.0627 7.2164 19.4727 7.6964 19.4727 8.4864V15.6964C19.4727 18.6664 17.2527 20.5664 13.9427 20.5664Z"
        fillRule="evenodd"
        clipRule="evenodd"
    />
</svg>
        