
<svg
    viewBox="0 0 27.890625 27.890625"
    xmlns="http://www.w3.org/2000/svg"
>
    <path
        fill="inherit"
        d="M13.9427 27.8864C21.6427 27.8864 27.8927 21.6464 27.8927 13.9464C27.8927 6.2464 21.6427 -0.0036 13.9427 -0.0036C6.2527 -0.0036 0.0027 6.2464 0.0027 13.9464C0.0027 21.6464 6.2527 27.8864 13.9427 27.8864ZM13.9427 25.5664C7.5227 25.5664 2.3227 20.3664 2.3227 13.9464C2.3227 7.5164 7.5227 2.3264 13.9427 2.3264C20.3727 2.3264 25.5627 7.5164 25.5627 13.9464C25.5627 20.3664 20.3727 25.5664 13.9427 25.5664ZM13.9327 20.3564C17.1327 20.3564 19.2727 18.5164 19.2727 15.6364V8.6564C19.2727 7.8864 18.8827 7.4264 18.1727 7.4264C17.5027 7.4264 17.0927 7.8864 17.0927 8.6564V15.4364C17.0927 17.3464 15.8427 18.5564 13.9327 18.5564C12.0127 18.5564 10.7627 17.3464 10.7627 15.4364V8.6564C10.7627 7.8864 10.3627 7.4264 9.6527 7.4264C8.9827 7.4264 8.5827 7.8864 8.5827 8.6564V15.6364C8.5827 18.5164 10.7327 20.3564 13.9327 20.3564Z"
        fillRule="evenodd"
        clipRule="evenodd"
    />
</svg>
        