<svg viewBox="0 0 25.169921875 25.169921875" xmlns="http://www.w3.org/2000/svg"><path d="M4.2937 25.1692H20.8737C23.7437 25.1692 25.1737 23.7592 25.1737 20.9492V4.2392C25.1737 1.4192 23.7437 -0.0008 20.8737 -0.0008H4.2937C1.4337 -0.0008 0.0037 1.4192 0.0037 4.2392V20.9492C0.0037 23.7592 1.4337 25.1692 4.2937 25.1692ZM12.5937 19.1992C9.2837 19.1992 7.0637 17.2992 7.0637 14.3292V7.1192C7.0637 6.3292 7.4737 5.8492 8.1937 5.8492C8.9137 5.8492 9.3237 6.3292 9.3237 7.1192V14.1092C9.3237 16.0892 10.6237 17.3192 12.5937 17.3192C14.5637 17.3192 15.8437 16.0892 15.8437 14.1092V7.1192C15.8437 6.3292 16.2737 5.8492 16.9637 5.8492C17.7037 5.8492 18.1137 6.3292 18.1137 7.1192V14.3292C18.1137 17.2992 15.9037 19.1992 12.5937 19.1992Z" /></svg>