<svg viewBox="0 0 25.169921875 25.169921875" xmlns="http://www.w3.org/2000/svg"><path d="M4.2937 25.1692H20.8737C23.7437 25.1692 25.1737 23.7592 25.1737 20.9492V4.2392C25.1737 1.4192 23.7437 -0.0008 20.8737 -0.0008H4.2937C1.4337 -0.0008 0.0037 1.4192 0.0037 4.2392V20.9492C0.0037 23.7592 1.4337 25.1692 4.2937 25.1692ZM4.3237 22.9692C2.9537 22.9692 2.2037 22.2392 2.2037 20.8192V4.3592C2.2037 2.9392 2.9537 2.1992 4.3237 2.1992H20.8537C22.2037 2.1992 22.9737 2.9392 22.9737 4.3592V20.8192C22.9737 22.2392 22.2037 22.9692 20.8537 22.9692ZM12.5937 18.9892C15.7937 18.9892 17.9337 17.1492 17.9337 14.2692V7.2892C17.9337 6.5192 17.5437 6.0592 16.8337 6.0592C16.1637 6.0592 15.7537 6.5192 15.7537 7.2892V14.0692C15.7537 15.9792 14.5037 17.1892 12.5937 17.1892C10.6737 17.1892 9.4237 15.9792 9.4237 14.0692V7.2892C9.4237 6.5192 9.0237 6.0592 8.3237 6.0592C7.6437 6.0592 7.2437 6.5192 7.2437 7.2892V14.2692C7.2437 17.1492 9.3937 18.9892 12.5937 18.9892Z" /></svg>