
<svg
    viewBox={0 0 27.26171875 31.609375}
    xmlns="http://www.w3.org/2000/svg"
>
    <path
        fill="inherit"
        d="M1.1337 17.3513C1.5337 17.3513 1.9137 17.0913 2.2137 16.6413C3.1337 15.2613 4.0837 14.6813 5.3837 14.6813C6.6537 14.6813 7.5237 15.2613 8.3037 16.6213C8.6037 17.1313 8.8837 17.3513 9.2737 17.3513C9.6637 17.3513 9.9637 17.1313 10.2437 16.6213C10.7637 15.7413 11.5837 15.0913 12.4937 14.7913V27.2513C12.4937 28.4413 11.6337 29.3013 10.4137 29.3013C9.2237 29.3013 8.3837 28.4413 8.3837 27.2513C8.3837 26.4513 7.9037 25.9213 7.2037 25.9213C6.5237 25.9213 6.0737 26.4513 6.0737 27.2513C6.0737 29.7413 7.9537 31.6113 10.4137 31.6113C12.8937 31.6113 14.7637 29.7413 14.7637 27.2513V14.7913C15.6637 15.0913 16.5037 15.7413 17.0237 16.6213C17.2937 17.1313 17.5837 17.3513 17.9937 17.3513C18.3737 17.3513 18.6637 17.1313 18.9537 16.6213C19.7437 15.2613 20.6037 14.6813 21.8737 14.6813C23.1737 14.6813 24.1337 15.2613 25.0337 16.6413C25.3337 17.0913 25.7137 17.3513 26.1237 17.3513C26.8137 17.3513 27.2637 16.7912 27.2637 16.0513C27.2637 10.8513 23.3237 3.6412 14.7637 3.0512V1.1513C14.7637 0.5212 14.2637 0.0012 13.6337 0.0012C13.0037 0.0012 12.4937 0.5212 12.4937 1.1513V3.0512C3.9337 3.6412 0.0037 10.8513 0.0037 16.0513C0.0037 16.7912 0.4537 17.3513 1.1337 17.3513Z"
        fillRule="evenodd"
        clipRule="evenodd"
    />
</svg>
        