<svg viewBox="0 0 15.927734375 24.458984375" xmlns="http://www.w3.org/2000/svg"><path d="M7.9537 20.262C12.8837 20.262 15.9237 17.312 15.9237 13.012V1.272C15.9237 0.502 15.4237 0.002 14.6437 0.002C13.8737 0.002 13.3937 0.502 13.3937 1.272V12.812C13.3937 15.862 11.3937 17.942 7.9537 17.942C4.5437 17.942 2.5337 15.862 2.5337 12.812V1.272C2.5337 0.502 2.0237 0.002 1.2437 0.002C0.4737 0.002 0.0037 0.502 0.0037 1.272V13.012C0.0037 17.312 3.0337 20.262 7.9537 20.262ZM0.8037 24.462H15.1037C15.5537 24.462 15.9237 24.122 15.9237 23.652C15.9237 23.192 15.5537 22.832 15.1037 22.832H0.8037C0.3737 22.832 0.0037 23.192 0.0037 23.652C0.0037 24.122 0.3737 24.462 0.8037 24.462Z" /></svg>