
<svg
    viewBox="0 0 27.890625 27.890625"
    xmlns="http://www.w3.org/2000/svg"
>
    <path
        fill="inherit"
        d="M13.9427 27.8864C21.6427 27.8864 27.8927 21.6264 27.8927 13.9464C27.8927 6.2464 21.6427 -0.0036 13.9427 -0.0036C6.2627 -0.0036 0.0027 6.2464 0.0027 13.9464C0.0027 21.6264 6.2627 27.8864 13.9427 27.8864ZM13.9627 20.5464C13.0927 20.5464 12.6427 20.1764 12.2727 19.2264L8.3127 8.8964C8.2427 8.6864 8.2027 8.5164 8.2027 8.3164C8.2027 7.6864 8.6827 7.2364 9.3527 7.2364C9.9827 7.2364 10.3227 7.5364 10.5527 8.2064L13.8927 17.8464H13.9827L17.3227 8.2064C17.5727 7.5364 17.8927 7.2364 18.5227 7.2364C19.1927 7.2364 19.6727 7.6664 19.6727 8.3164C19.6727 8.5164 19.6427 8.6864 19.5627 8.8964L15.6227 19.1964C15.2727 20.1264 14.7627 20.5464 13.9627 20.5464Z"
        fillRule="evenodd"
        clipRule="evenodd"
    />
</svg>
        