
<svg
    viewBox={0 0 25.169921875 25.169921875}
    xmlns="http://www.w3.org/2000/svg"
>
    <path
        fill="inherit"
        d="M4.2937 25.1692H20.8737C23.7437 25.1692 25.1737 23.7592 25.1737 20.9492V4.2392C25.1737 1.4192 23.7437 -0.0008 20.8737 -0.0008H4.2937C1.4337 -0.0008 0.0037 1.4192 0.0037 4.2392V20.9492C0.0037 23.7592 1.4337 25.1692 4.2937 25.1692ZM12.6037 19.1792C11.7437 19.1792 11.2937 18.8092 10.9237 17.8592L6.9637 7.5292C6.8937 7.3192 6.8537 7.1492 6.8537 6.9492C6.8537 6.3192 7.3437 5.8692 7.9937 5.8692C8.6237 5.8692 8.9737 6.1692 9.2037 6.8392L12.5337 16.4792H12.6337L15.9837 6.8392C16.2137 6.1692 16.5537 5.8692 17.1837 5.8692C17.8437 5.8692 18.3237 6.2992 18.3237 6.9492C18.3237 7.1492 18.2937 7.3192 18.2237 7.5292L14.2737 17.8292C13.9137 18.7592 13.4137 19.1792 12.6037 19.1792Z"
        fillRule="evenodd"
        clipRule="evenodd"
    />
</svg>
        