
<svg
    viewBox={0 0 35.87158203125 29.098897962405378}
    xmlns="http://www.w3.org/2000/svg"
>
    <path
        fill="inherit"
        d="M27.3148 28.7953C27.7248 29.2053 28.4048 29.2053 28.8048 28.7953C29.1948 28.3653 29.2148 27.7153 28.8048 27.3053L1.8048 0.3153C1.3948 -0.0947 0.7048 -0.1147 0.2948 0.3153C-0.0952 0.7053 -0.0952 1.4053 0.2948 1.8053ZM21.6648 3.2653H7.0748L9.1248 5.3153H21.2848C23.5148 5.3153 24.7948 6.4753 24.7948 8.8553V20.0453C24.7948 20.3653 24.7548 20.6053 24.6748 20.8653L26.5848 22.7753C26.8448 22.1653 26.9948 21.3953 26.9948 20.6453V18.5953L32.1648 22.9653C32.7148 23.4153 33.3148 23.7353 33.8748 23.7353C35.0748 23.7353 35.8748 22.8453 35.8748 21.5753V7.4353C35.8748 6.1653 35.0748 5.2753 33.8748 5.2753C33.3148 5.2753 32.7148 5.5853 32.1648 6.0453L26.9948 10.4153V8.5253C26.9948 5.2053 25.0048 3.2653 21.6648 3.2653ZM7.3748 25.7453H21.9148L19.8648 23.6753H7.7648C5.5248 23.6753 4.2448 22.5153 4.2448 20.1553V8.1753L2.0448 5.9553V20.4653C2.0448 23.8053 4.0448 25.7453 7.3748 25.7453ZM33.1948 21.1053L26.9948 15.9953V13.0153L33.1948 7.9053C33.3148 7.8053 33.3948 7.7353 33.5248 7.7353C33.6848 7.7353 33.7548 7.8753 33.7548 8.0653V20.9453C33.7548 21.1353 33.6848 21.2553 33.5248 21.2553C33.3948 21.2553 33.3148 21.1853 33.1948 21.1053Z"
        fillRule="evenodd"
        clipRule="evenodd"
    />
</svg>
        