
<svg
    viewBox={0 0 30.1328125 28.369140625}
    xmlns="http://www.w3.org/2000/svg"
>
    <path
        fill="inherit"
        d="M8.1237 28.3728C8.6537 28.3728 9.0537 28.0928 9.6937 27.4928L14.6337 22.9828H23.8737C27.9437 22.9828 30.1337 20.7428 30.1337 16.7328V6.2628C30.1337 2.2528 27.9437 0.0028 23.8737 0.0028H6.2637C2.1837 0.0028 0.0037 2.2428 0.0037 6.2628V16.7328C0.0037 20.7528 2.1837 22.9828 6.2637 22.9828H6.9037V26.9628C6.9037 27.8128 7.3437 28.3728 8.1237 28.3728ZM9.1837 17.1728C7.7937 17.1728 6.9437 16.3528 6.9437 14.9528V8.0228C6.9437 6.6128 7.8437 5.8128 9.1837 5.8128H16.7037C18.1337 5.8128 18.8837 6.6128 18.8837 8.0228V14.9528C18.8837 16.3528 18.0437 17.1728 16.6437 17.1728ZM19.6737 13.4128V9.5728L22.4237 7.2028C22.6537 7.0128 22.9537 6.8928 23.2037 6.8928C23.7437 6.8928 24.1037 7.2728 24.1037 7.8428V15.1228C24.1037 15.7128 23.7437 16.1028 23.2037 16.1028C22.9537 16.1028 22.6837 15.9828 22.4237 15.7628Z"
        fillRule="evenodd"
        clipRule="evenodd"
    />
</svg>
        