
<svg
    viewBox="0 0 40.783203125 18.716796875"
    xmlns="http://www.w3.org/2000/svg"
>
    <path
        fill="inherit"
        d="M20.3737 16.9424C21.4337 16.9424 22.4337 16.7524 23.3637 16.4224H30.6537V17.5924C30.6537 18.2624 31.0937 18.7124 31.7737 18.7124H36.6137C37.2937 18.7124 37.7437 18.2624 37.7437 17.5924V16.3124C39.7437 15.9524 40.7837 14.5724 40.7837 12.2524V4.6724C40.7837 1.9124 39.3437 0.5024 36.5437 0.5024H23.3137C22.4037 0.1824 21.4137 0.0024 20.3737 0.0024C19.3337 0.0024 18.3437 0.1824 17.4437 0.5024H4.2237C1.4537 0.5024 0.0037 1.9124 0.0037 4.6724V12.2524C0.0037 14.5724 1.0437 15.9424 3.0337 16.3124V17.5924C3.0337 18.2624 3.4837 18.7124 4.1537 18.7124H9.0137C9.6937 18.7124 10.1337 18.2624 10.1337 17.5924V16.4224H17.3937C18.3237 16.7524 19.3137 16.9424 20.3737 16.9424ZM20.3737 14.8724C16.7737 14.8724 13.9837 12.0824 13.9837 8.4724C13.9837 4.8524 16.7737 2.0624 20.3737 2.0624C23.9937 2.0624 26.7837 4.8524 26.7837 8.4724C26.7837 12.0824 23.9937 14.8724 20.3737 14.8724ZM28.8437 8.4724C28.8437 6.2224 28.0237 4.2124 26.6437 2.7024H36.5437C37.7937 2.7024 38.5837 3.4724 38.5837 4.6724V12.2524C38.5837 13.4624 37.7937 14.2224 36.5437 14.2224H26.6637C28.0237 12.7324 28.8437 10.7224 28.8437 8.4724ZM4.2237 14.2224C2.9837 14.2224 2.2037 13.4624 2.2037 12.2524V4.6724C2.2037 3.4724 2.9837 2.7024 4.2237 2.7024H14.1137C12.7437 4.2124 11.9237 6.2224 11.9237 8.4724C11.9237 10.7224 12.7437 12.7324 14.0937 14.2224ZM20.3737 13.4124C23.1437 13.4124 25.3237 11.2424 25.3237 8.4724C25.3237 5.7124 23.1437 3.5224 20.3737 3.5224C17.6137 3.5224 15.4337 5.7124 15.4337 8.4724C15.4337 11.2424 17.6137 13.4124 20.3737 13.4124ZM30.7337 5.7024C30.7337 6.2624 31.1337 6.6624 31.6937 6.6624H35.1237C35.6837 6.6624 36.0937 6.2624 36.0937 5.7024C36.0937 5.1424 35.6837 4.7324 35.1237 4.7324H31.6937C31.1337 4.7324 30.7337 5.1424 30.7337 5.7024ZM20.3737 11.6224C18.6037 11.6224 17.2237 10.2424 17.2237 8.4724C17.2237 6.7124 18.6037 5.3224 20.3737 5.3224C22.1337 5.3224 23.5337 6.7124 23.5337 8.4724C23.5337 10.2424 22.1337 11.6224 20.3737 11.6224ZM30.7337 9.0224C30.7337 9.5824 31.1337 9.9924 31.6937 9.9924H35.1237C35.6837 9.9924 36.0937 9.5824 36.0937 9.0224C36.0937 8.4624 35.6837 8.0624 35.1237 8.0624H31.6937C31.1337 8.0624 30.7337 8.4624 30.7337 9.0224Z"
        fillRule="evenodd"
        clipRule="evenodd"
    />
</svg>
        