
<svg
    viewBox="0 0 35.74853515625 29.098897962405374"
    xmlns="http://www.w3.org/2000/svg"
>
    <path
        fill="inherit"
        d="M27.3148 28.7916C27.7248 29.2016 28.4048 29.2016 28.8048 28.7916C29.1948 28.3716 29.2148 27.7116 28.8048 27.3016L1.8048 0.3116C1.3948 -0.0984 0.7048 -0.1084 0.2948 0.3116C-0.0952 0.7116 -0.0952 1.4016 0.2948 1.8016ZM21.3948 3.3916H7.1648L25.4948 21.7216C25.5948 21.2616 25.6448 20.6316 25.6448 20.0416V7.7116C25.6448 4.9716 24.1448 3.3916 21.3948 3.3916ZM27.5048 18.5216L32.4848 22.8316C32.9448 23.2416 33.4948 23.5016 33.9848 23.5016C35.0548 23.5016 35.7448 22.7216 35.7448 21.6016V7.3816C35.7448 6.2616 35.0548 5.4816 33.9848 5.4816C33.4948 5.4816 32.9448 5.7416 32.4848 6.1516L27.5048 10.4416ZM6.5748 25.5916H21.8148L2.4448 6.2216C2.2948 6.5616 2.1948 7.1916 2.1948 7.7616V21.2316C2.1948 23.9816 3.8248 25.5916 6.5748 25.5916Z"
        fillRule="evenodd"
        clipRule="evenodd"
    />
</svg>
        