
<svg
    viewBox={0 0 27.890625 27.890625}
    xmlns="http://www.w3.org/2000/svg"
>
    <path
        fill="inherit"
        d="M13.9427 27.8927C21.6427 27.8927 27.8927 21.6427 27.8927 13.9427C27.8927 6.2627 21.6427 0.0027 13.9427 0.0027C6.2627 0.0027 0.0027 6.2627 0.0027 13.9427C0.0027 21.6427 6.2627 27.8927 13.9427 27.8927ZM20.2727 21.2227L6.6327 7.5727C6.4027 7.3427 6.4027 6.9327 6.6327 6.6727C6.8927 6.4227 7.3027 6.4227 7.5427 6.6727L21.1827 20.3127C21.4527 20.5627 21.4527 20.9427 21.1827 21.2227C20.9327 21.4527 20.5227 21.4527 20.2727 21.2227ZM17.6927 15.4227L10.5727 8.2827H15.5127C16.9427 8.2827 17.6927 9.0927 17.6927 10.5027ZM5.7527 10.5027C5.7527 9.7527 6.0027 9.1727 6.4627 8.8227L16.8827 19.2327C16.5127 19.5127 16.0327 19.6427 15.4527 19.6427H8.0027C6.6027 19.6427 5.7527 18.8227 5.7527 17.4327ZM18.4827 12.0427L21.2327 9.6827C21.4827 9.4927 21.7627 9.3527 22.0127 9.3527C22.5627 9.3527 22.9127 9.7627 22.9127 10.3227V17.5927C22.9127 18.1827 22.5627 18.5827 22.0127 18.5827C21.7627 18.5827 21.4927 18.4327 21.2327 18.2427L18.4827 15.8827Z"
        fillRule="evenodd"
        clipRule="evenodd"
    />
</svg>
        