
<svg
    viewBox={0 0 33.564453125 22.203125}
    xmlns="http://www.w3.org/2000/svg"
>
    <path
        fill="inherit"
        d="M4.3907 22.2027H19.0707C21.8207 22.2027 23.4607 20.6127 23.4607 17.8727V4.3227C23.4607 1.5827 21.9607 0.0027 19.2107 0.0027H4.3907C1.7607 0.0027 0.0007 1.5827 0.0007 4.3227V17.8727C0.0007 20.6127 1.6407 22.2027 4.3907 22.2027ZM25.3207 15.1327L30.3007 19.4427C30.7607 19.8527 31.3107 20.1127 31.8007 20.1127C32.8707 20.1127 33.5607 19.3327 33.5607 18.2127V3.9927C33.5607 2.8727 32.8707 2.0927 31.8007 2.0927C31.3107 2.0927 30.7607 2.3527 30.3007 2.7627L25.3207 7.0527Z"
        fillRule="evenodd"
        clipRule="evenodd"
    />
</svg>
        