
<svg
    viewBox={0 0 40.783203125 18.2109375}
    xmlns="http://www.w3.org/2000/svg"
>
    <path
        fill="inherit"
        d="M10.8537 7.9666C10.8537 4.5966 12.5237 1.6866 15.0937 -0.0034H4.2237C1.4537 -0.0034 0.0037 1.4066 0.0037 4.1666V11.7466C0.0037 14.0666 1.0437 15.4366 3.0337 15.8066V17.0866C3.0337 17.7566 3.4837 18.2066 4.1537 18.2066H9.0137C9.6937 18.2066 10.1337 17.7566 10.1337 17.0866V15.9166H15.0537C12.5137 14.2166 10.8537 11.3166 10.8537 7.9666ZM36.5437 -0.0034H25.6737C28.2337 1.6866 29.9137 4.5966 29.9137 7.9666C29.9137 11.3166 28.2637 14.2166 25.7037 15.9166H30.6537V17.0866C30.6537 17.7566 31.0937 18.2066 31.7737 18.2066H36.6137C37.2937 18.2066 37.7437 17.7566 37.7437 17.0866V15.8066C39.7437 15.4466 40.7837 14.0666 40.7837 11.7466V4.1666C40.7837 1.4066 39.3437 -0.0034 36.5437 -0.0034ZM20.3737 15.8966C24.8537 15.8966 28.3137 12.4266 28.3137 7.9666C28.3137 3.4966 24.8537 0.0266 20.3737 0.0266C15.9137 0.0266 12.4537 3.4966 12.4537 7.9666C12.4537 12.4266 15.9137 15.8966 20.3737 15.8966ZM20.3737 13.6066C17.2237 13.6066 14.7337 11.1166 14.7337 7.9666C14.7337 4.8166 17.2237 2.3266 20.3737 2.3266C23.5437 2.3266 26.0137 4.8166 26.0137 7.9666C26.0137 11.1166 23.5437 13.6066 20.3737 13.6066ZM20.3737 12.4566C22.8837 12.4566 24.8737 10.4866 24.8737 7.9666C24.8737 5.4566 22.8837 3.4766 20.3737 3.4766C17.8537 3.4766 15.8837 5.4566 15.8837 7.9666C15.8837 10.4866 17.8537 12.4566 20.3737 12.4566ZM32.3937 5.1966C32.3937 4.6366 32.7837 4.2266 33.3437 4.2266H36.7737C37.3337 4.2266 37.7437 4.6366 37.7437 5.1966C37.7437 5.7566 37.3337 6.1566 36.7737 6.1566H33.3437C32.7837 6.1566 32.3937 5.7566 32.3937 5.1966ZM32.3937 8.5166C32.3937 7.9566 32.7837 7.5566 33.3437 7.5566H36.7737C37.3337 7.5566 37.7437 7.9566 37.7437 8.5166C37.7437 9.0766 37.3337 9.4866 36.7737 9.4866H33.3437C32.7837 9.4866 32.3937 9.0766 32.3937 8.5166Z"
        fillRule="evenodd"
        clipRule="evenodd"
    />
</svg>
        