
<svg
    viewBox="0 0 17.96484375 31.2265625"
    xmlns="http://www.w3.org/2000/svg"
>
    <path
        fill="inherit"
        d="M8.9837 31.2244C14.2637 31.2244 17.9637 27.6844 17.9637 22.6644V8.5544C17.9637 3.5244 14.2637 0.0044 8.9837 0.0044C3.7237 0.0044 0.0037 3.5244 0.0037 8.5544V22.6644C0.0037 27.6844 3.7237 31.2244 8.9837 31.2244ZM8.9737 29.0244C4.9937 29.0244 2.1837 26.4044 2.1837 22.6644V8.5544C2.1837 4.8244 4.9937 2.2044 8.9737 2.2044C12.9737 2.2044 15.7737 4.8244 15.7737 8.5544V22.6644C15.7737 26.4044 12.9737 29.0244 8.9737 29.0244ZM8.9837 14.4144C11.8137 14.4144 14.0437 12.1844 14.0437 9.3544C14.0437 6.5044 11.8137 4.2744 8.9837 4.2744C6.1537 4.2744 3.9137 6.5044 3.9137 9.3544C3.9137 12.1844 6.1537 14.4144 8.9837 14.4144ZM8.9837 11.2244C7.9337 11.2244 7.1137 10.4044 7.1137 9.3544C7.1137 8.2844 7.9337 7.4644 8.9837 7.4644C10.0337 7.4644 10.8437 8.2844 10.8437 9.3544C10.8437 10.4044 10.0337 11.2244 8.9837 11.2244ZM8.9837 26.9044C11.8137 26.9044 14.0437 24.6744 14.0437 21.8344C14.0437 19.0044 11.8137 16.7744 8.9837 16.7744C6.1537 16.7744 3.9137 19.0044 3.9137 21.8344C3.9137 24.6744 6.1537 26.9044 8.9837 26.9044ZM8.9837 25.1144C7.1237 25.1144 5.7037 23.6944 5.7037 21.8344C5.7037 19.9744 7.1237 18.5644 8.9837 18.5644C10.8237 18.5644 12.2537 19.9744 12.2537 21.8344C12.2537 23.6944 10.8237 25.1144 8.9837 25.1144Z"
        fillRule="evenodd"
        clipRule="evenodd"
    />
</svg>
        