<svg viewBox="0 0 25.169921875 25.169921875" xmlns="http://www.w3.org/2000/svg"><path d="M4.2937 25.1692H20.8737C23.7437 25.1692 25.1737 23.7592 25.1737 20.9492V4.2392C25.1737 1.4192 23.7437 -0.0008 20.8737 -0.0008H4.2937C1.4337 -0.0008 0.0037 1.4192 0.0037 4.2392V20.9492C0.0037 23.7592 1.4337 25.1692 4.2937 25.1692ZM6.7137 18.2692C5.3137 18.2692 4.4737 17.4492 4.4737 16.0492V9.1192C4.4737 7.7092 5.3737 6.9092 6.7137 6.9092H14.2337C15.6537 6.9092 16.4037 7.7092 16.4037 9.1192V16.0492C16.4037 17.4492 15.5737 18.2692 14.1637 18.2692ZM17.2037 14.5092V10.6592L19.9437 8.2992C20.1637 8.1092 20.4837 7.9892 20.7237 7.9892C21.2637 7.9892 21.6337 8.3692 21.6337 8.9392V16.2192C21.6337 16.7992 21.2637 17.1992 20.7237 17.1992C20.4837 17.1992 20.1937 17.0792 19.9437 16.8592Z" /></svg>