
<svg
    viewBox="0 0 27.890625 27.890625"
    xmlns="http://www.w3.org/2000/svg"
>
    <path
        fill="inherit"
        d="M13.9427 27.8927C21.6427 27.8927 27.8927 21.6427 27.8927 13.9427C27.8927 6.2627 21.6427 0.0027 13.9427 0.0027C6.2627 0.0027 0.0027 6.2627 0.0027 13.9427C0.0027 21.6427 6.2627 27.8927 13.9427 27.8927ZM8.0627 19.6327C6.6627 19.6327 5.8227 18.8127 5.8227 17.4327V10.4827C5.8227 9.0827 6.7127 8.2727 8.0627 8.2727H15.5827C17.0127 8.2727 17.7427 9.0827 17.7427 10.4827V17.4327C17.7427 18.8127 16.9227 19.6327 15.5127 19.6327ZM18.5427 15.8727V12.0327L21.3027 9.6827C21.5227 9.4727 21.8327 9.3527 22.0827 9.3527C22.6127 9.3527 22.9727 9.7327 22.9727 10.3227V17.5827C22.9727 18.1827 22.6127 18.5627 22.0827 18.5627C21.8327 18.5627 21.5427 18.4427 21.3027 18.2227Z"
        fillRule="evenodd"
        clipRule="evenodd"
    />
</svg>
        