
<svg
    viewBox="0 0 33.82421875 22.4765625"
    xmlns="http://www.w3.org/2000/svg"
>
    <path
        fill="inherit"
        d="M5.3274 22.4794H19.6174C22.9574 22.4794 24.9474 20.5394 24.9474 17.1994V15.3294L30.1174 19.6994C30.6674 20.1494 31.2674 20.4694 31.8274 20.4694C33.0274 20.4694 33.8274 19.5794 33.8274 18.3094V4.1694C33.8274 2.8994 33.0274 2.0094 31.8274 2.0094C31.2674 2.0094 30.6674 2.3194 30.1174 2.7794L24.9474 7.1494V5.2594C24.9474 1.9394 22.9574 -0.0006 19.6174 -0.0006H5.3274C2.1474 -0.0006 -0.0026 1.9394 -0.0026 5.2594V17.1994C-0.0026 20.5394 1.9974 22.4794 5.3274 22.4794ZM5.7174 20.4094C3.4774 20.4094 2.1974 19.2494 2.1974 16.8894V5.5894C2.1974 3.2094 3.4774 2.0494 5.7174 2.0494H19.2374C21.4674 2.0494 22.7474 3.2094 22.7474 5.5894V16.8894C22.7474 19.2494 21.4674 20.4094 19.2374 20.4094ZM31.1474 17.8394L24.9474 12.7294V9.7494L31.1474 4.6394C31.2674 4.5394 31.3474 4.4694 31.4774 4.4694C31.6374 4.4694 31.7074 4.6094 31.7074 4.7994V17.6794C31.7074 17.8694 31.6374 17.9894 31.4774 17.9894C31.3474 17.9894 31.2674 17.9194 31.1474 17.8394Z"
        fillRule="evenodd"
        clipRule="evenodd"
    />
</svg>
        