<svg viewBox="0 0 27.890625 27.890625" xmlns="http://www.w3.org/2000/svg"><path d="M13.9427 27.8864C21.6427 27.8864 27.8927 21.6464 27.8927 13.9464C27.8927 6.2464 21.6427 -0.0036 13.9427 -0.0036C6.2527 -0.0036 0.0027 6.2464 0.0027 13.9464C0.0027 21.6464 6.2527 27.8864 13.9427 27.8864ZM13.9427 25.5664C7.5227 25.5664 2.3227 20.3664 2.3227 13.9464C2.3227 7.5164 7.5227 2.3264 13.9427 2.3264C20.3727 2.3264 25.5627 7.5164 25.5627 13.9464C25.5627 20.3664 20.3727 25.5664 13.9427 25.5664ZM20.0927 20.9964C20.3427 21.2364 20.7427 21.2364 20.9727 20.9964C21.2327 20.7364 21.2327 20.3664 20.9727 20.1264L7.7527 6.8864C7.5027 6.6464 7.1127 6.6464 6.8627 6.8864C6.6327 7.1264 6.6327 7.5364 6.8627 7.7664ZM17.5927 15.3664V10.5964C17.5927 9.2464 16.8527 8.4664 15.4927 8.4664H10.6827ZM6.0127 10.5964V17.3264C6.0127 18.6764 6.8327 19.4664 8.1927 19.4664H15.4227C15.9827 19.4664 16.4427 19.3364 16.8127 19.0764L6.7127 8.9664C6.2627 9.3264 6.0127 9.8664 6.0127 10.5964ZM18.3627 12.0864V15.8364L21.0227 18.0864C21.2727 18.2964 21.5327 18.4264 21.7827 18.4264C22.3127 18.4264 22.6527 18.0464 22.6527 17.4764V10.4364C22.6527 9.8664 22.3127 9.4864 21.7827 9.4864C21.5327 9.4864 21.2627 9.6264 21.0227 9.8164Z" /></svg>