
<svg
    viewBox="0 0 17.96484375 31.2265625"
    xmlns="http://www.w3.org/2000/svg"
>
    <path
        fill="inherit"
        d="M8.9837 31.2244C14.2637 31.2244 17.9637 27.6844 17.9637 22.6644V8.5544C17.9637 3.5244 14.2637 0.0044 8.9837 0.0044C3.7237 0.0044 0.0037 3.5244 0.0037 8.5544V22.6644C0.0037 27.6844 3.7237 31.2244 8.9837 31.2244ZM8.9837 14.3644C6.0537 14.3644 3.7437 12.0744 3.7437 9.1444C3.7437 6.2244 6.0537 3.9144 8.9837 3.9144C11.9037 3.9144 14.2037 6.2244 14.2037 9.1444C14.2037 12.0744 11.9037 14.3644 8.9837 14.3644ZM8.9837 11.0844C10.0637 11.0844 10.8937 10.2444 10.8937 9.1444C10.8937 8.0544 10.0637 7.2044 8.9837 7.2044C7.9037 7.2044 7.0537 8.0544 7.0537 9.1444C7.0537 10.2444 7.9037 11.0844 8.9837 11.0844ZM8.9837 27.2744C6.0537 27.2744 3.7437 24.9644 3.7437 22.0344C3.7437 19.1144 6.0537 16.8144 8.9837 16.8144C11.9037 16.8144 14.2037 19.1144 14.2037 22.0344C14.2037 24.9644 11.9037 27.2744 8.9837 27.2744ZM8.9837 25.4144C10.8837 25.4144 12.3437 23.9544 12.3437 22.0344C12.3437 20.1244 10.8837 18.6644 8.9837 18.6644C7.0637 18.6644 5.6037 20.1244 5.6037 22.0344C5.6037 23.9544 7.0637 25.4144 8.9837 25.4144Z"
        fillRule="evenodd"
        clipRule="evenodd"
    />
</svg>
        