
<svg
    viewBox="0 0 25.169921875 25.169921875"
    xmlns="http://www.w3.org/2000/svg"
>
    <path
        fill="inherit"
        d="M4.2937 25.1692H20.8737C23.7437 25.1692 25.1737 23.7592 25.1737 20.9492V4.2392C25.1737 1.4192 23.7437 -0.0008 20.8737 -0.0008H4.2937C1.4337 -0.0008 0.0037 1.4192 0.0037 4.2392V20.9492C0.0037 23.7592 1.4337 25.1692 4.2937 25.1692ZM4.3237 22.9692C2.9537 22.9692 2.2037 22.2392 2.2037 20.8192V4.3592C2.2037 2.9392 2.9537 2.1992 4.3237 2.1992H20.8537C22.2037 2.1992 22.9737 2.9392 22.9737 4.3592V20.8192C22.9737 22.2392 22.2037 22.9692 20.8537 22.9692ZM6.8637 18.0992H14.0937C15.4637 18.0992 16.2737 17.3092 16.2737 15.9592V9.2292C16.2737 7.8792 15.5337 7.0992 14.1637 7.0992H6.8637C5.5637 7.0992 4.6937 7.8792 4.6937 9.2292V15.9592C4.6937 17.3092 5.5137 18.0992 6.8637 18.0992ZM17.0337 14.4692L19.7137 16.7192C19.9437 16.9292 20.2037 17.0592 20.4537 17.0592C20.9837 17.0592 21.3237 16.6792 21.3237 16.1092V9.0692C21.3237 8.4992 20.9837 8.1192 20.4537 8.1192C20.2037 8.1192 19.9337 8.2592 19.7137 8.4492L17.0337 10.7192Z"
        fillRule="evenodd"
        clipRule="evenodd"
    />
</svg>
        