
<svg
    viewBox="0 0 27.890625 27.890625"
    xmlns="http://www.w3.org/2000/svg"
>
    <path
        fill="inherit"
        d="M13.9427 27.8864C21.6427 27.8864 27.8927 21.6464 27.8927 13.9464C27.8927 6.2464 21.6427 -0.0036 13.9427 -0.0036C6.2527 -0.0036 0.0027 6.2464 0.0027 13.9464C0.0027 21.6464 6.2527 27.8864 13.9427 27.8864ZM13.9427 25.5664C7.5227 25.5664 2.3227 20.3664 2.3227 13.9464C2.3227 7.5164 7.5227 2.3264 13.9427 2.3264C20.3727 2.3264 25.5627 7.5164 25.5627 13.9464C25.5627 20.3664 20.3727 25.5664 13.9427 25.5664ZM9.6227 7.1464C7.9127 7.1464 7.0227 8.0364 7.0227 9.7164V11.5364C7.0227 12.1264 7.4227 12.5364 8.0127 12.5364C8.6127 12.5364 8.9927 12.1364 8.9927 11.5364V10.0464C8.9927 9.4164 9.2827 9.1164 9.9127 9.1164H11.4327C12.0327 9.1164 12.4327 8.7264 12.4327 8.1464C12.4327 7.5464 12.0327 7.1464 11.4327 7.1464ZM18.0327 7.1464H16.2327C15.6227 7.1464 15.2327 7.5464 15.2327 8.1464C15.2327 8.7264 15.6227 9.1164 16.2327 9.1164H17.7427C18.3727 9.1164 18.6627 9.4164 18.6627 10.0464V11.5364C18.6627 12.1364 19.0427 12.5364 19.6427 12.5364C20.2327 12.5364 20.6327 12.1264 20.6327 11.5364V9.7164C20.6327 8.0364 19.7427 7.1464 18.0327 7.1464ZM9.6227 20.7664H11.4327C12.0327 20.7664 12.4327 20.3564 12.4327 19.7664C12.4327 19.1964 12.0327 18.7864 11.4327 18.7864H9.9127C9.2827 18.7864 8.9927 18.4964 8.9927 17.8564V16.3764C8.9927 15.7664 8.6127 15.3764 8.0127 15.3764C7.4227 15.3764 7.0227 15.7764 7.0227 16.3764V18.1964C7.0227 19.8764 7.9127 20.7664 9.6227 20.7664ZM18.0327 20.7664C19.7427 20.7664 20.6327 19.8764 20.6327 18.1964V16.3764C20.6327 15.7764 20.2327 15.3764 19.6427 15.3764C19.0427 15.3764 18.6627 15.7664 18.6627 16.3764V17.8564C18.6627 18.4964 18.3727 18.7864 17.7427 18.7864H16.2327C15.6227 18.7864 15.2327 19.1964 15.2327 19.7664C15.2327 20.3564 15.6227 20.7664 16.2327 20.7664Z"
        fillRule="evenodd"
        clipRule="evenodd"
    />
</svg>
        