
<svg
    viewBox={0 0 32.142578125 19.892578125}
    xmlns="http://www.w3.org/2000/svg"
>
    <path
        fill="inherit"
        d="M1.2037 19.8909H12.5637C13.2437 19.8909 13.6837 19.4509 13.6837 18.7809C13.6837 18.1309 13.2437 17.6909 12.5637 17.6909H3.4637V17.6209L8.7937 12.4309C12.0437 9.2709 13.0137 7.6309 13.0137 5.5209C13.0137 2.3909 10.2237 0.0009 6.5237 0.0009C3.6237 0.0009 1.1237 1.5709 0.3037 3.9809C0.1337 4.4409 0.0637 4.8309 0.0637 5.1709C0.0637 5.8509 0.4637 6.3009 1.1337 6.3009C1.7737 6.3009 2.0537 6.0009 2.2537 5.3209C2.3637 4.8909 2.5137 4.5109 2.7337 4.1609C3.4737 2.9409 4.8137 2.1609 6.5237 2.1609C8.7337 2.1609 10.5037 3.7209 10.5037 5.6609C10.5037 7.2309 9.8737 8.3009 7.1637 10.9609L0.7637 17.3209C0.1937 17.9009 0.0037 18.2409 0.0037 18.7409C0.0037 19.4509 0.4737 19.8909 1.2037 19.8909ZM17.6337 19.8609H23.0537C28.5437 19.8609 32.1437 15.9409 32.1437 10.0509C32.1437 4.2009 28.5437 0.3109 23.0537 0.3109H17.6337C16.8837 0.3109 16.4037 0.8109 16.4037 1.5709V18.5909C16.4037 19.3709 16.8837 19.8609 17.6337 19.8609ZM18.8837 17.6209V2.5309H22.8837C26.9737 2.5309 29.6137 5.5409 29.6137 10.0609C29.6137 14.6009 26.9737 17.6209 22.8837 17.6209Z"
        fillRule="evenodd"
        clipRule="evenodd"
    />
</svg>
        