
<svg
    viewBox={0 0 32.525390625 20.220703125}
    xmlns="http://www.w3.org/2000/svg"
>
    <path
        fill="inherit"
        d="M6.9437 20.2246C11.1337 20.2246 14.1337 17.7746 14.1337 14.4346C14.1337 11.7346 12.1937 9.9546 9.0737 9.7446V9.6946C11.6737 9.2546 13.2937 7.5146 13.2937 5.0846C13.2937 2.1346 10.6137 0.0046 6.8737 0.0046C4.0637 0.0046 1.7937 1.2346 0.8237 3.2646C0.5637 3.7746 0.4537 4.2346 0.4537 4.7746C0.4537 5.4146 0.8937 5.8346 1.5137 5.8346C2.1337 5.8346 2.4237 5.6046 2.6137 4.9646C3.2137 3.1746 4.7137 2.1446 6.7937 2.1446C9.2437 2.1446 10.8137 3.4346 10.8137 5.4146C10.8137 7.4546 9.1337 8.8046 6.6837 8.8046H5.1837C4.5437 8.8046 4.1037 9.2046 4.1037 9.8346C4.1037 10.4446 4.5437 10.8546 5.1837 10.8546H6.7137C9.7437 10.8546 11.5537 12.1446 11.5537 14.4246C11.5537 16.5246 9.6637 18.0146 6.9637 18.0146C4.6037 18.0146 2.9137 16.9646 2.2937 15.1646C2.0737 14.5746 1.7537 14.3146 1.1637 14.3146C0.4637 14.3146 0.0037 14.7546 0.0037 15.4646C0.0037 15.9446 0.1237 16.3746 0.3837 16.8546C1.5137 19.0146 3.8937 20.2246 6.9437 20.2246ZM18.0337 19.8746H23.4437C28.9437 19.8746 32.5237 15.9546 32.5237 10.0646C32.5237 4.2146 28.9437 0.3246 23.4437 0.3246H18.0337C17.2837 0.3246 16.7937 0.8246 16.7937 1.5846V18.6046C16.7937 19.3846 17.2837 19.8746 18.0337 19.8746ZM19.2737 17.6346V2.5446H23.2737C27.3537 2.5446 29.9937 5.5546 29.9937 10.0746C29.9937 14.6146 27.3537 17.6346 23.2737 17.6346Z"
        fillRule="evenodd"
        clipRule="evenodd"
    />
</svg>
        