
<svg
    viewBox={0 0 27.890625 27.890625}
    xmlns="http://www.w3.org/2000/svg"
>
    <path
        fill="inherit"
        d="M13.9427 27.8864C21.6427 27.8864 27.8927 21.6464 27.8927 13.9464C27.8927 6.2464 21.6427 -0.0036 13.9427 -0.0036C6.2527 -0.0036 0.0027 6.2464 0.0027 13.9464C0.0027 21.6464 6.2527 27.8864 13.9427 27.8864ZM13.9427 25.5664C7.5227 25.5664 2.3227 20.3664 2.3227 13.9464C2.3227 7.5164 7.5227 2.3264 13.9427 2.3264C20.3727 2.3264 25.5627 7.5164 25.5627 13.9464C25.5627 20.3664 20.3727 25.5664 13.9427 25.5664ZM13.9327 16.9964C15.0527 16.9964 16.3127 19.0564 18.8427 19.0564C21.3327 19.0564 23.1727 16.7864 23.1727 13.8864C23.1727 9.1064 18.9627 8.5764 13.9327 8.5764C8.9027 8.5764 4.6927 9.1064 4.6927 13.8864C4.6927 16.7864 6.5327 19.0564 9.0227 19.0564C11.5527 19.0564 12.8227 16.9964 13.9327 16.9964ZM13.9327 15.5064C11.9127 15.5064 11.0627 17.5664 9.0227 17.5664C7.2427 17.5664 6.1627 16.2464 6.1627 13.8864C6.1627 10.4164 9.0627 10.0664 13.9327 10.0664C18.8027 10.0664 21.6927 10.4164 21.6927 13.8864C21.6927 16.2464 20.6127 17.5664 18.8427 17.5664C16.8027 17.5664 15.9727 15.5064 13.9327 15.5064Z"
        fillRule="evenodd"
        clipRule="evenodd"
    />
</svg>
        