
<svg
    viewBox="0 0 43.28515625 21.546875"
    xmlns="http://www.w3.org/2000/svg"
>
    <path
        fill="inherit"
        d="M23.9091 0.0006C14.3391 0.0006 6.3891 0.8706 4.8091 8.1206H7.1091C8.6291 2.8206 14.8891 2.2006 23.9091 2.2006C34.3691 2.2006 41.0791 3.0106 41.0791 10.9506C41.0791 16.1506 38.4691 19.3506 34.4391 19.3506C29.6691 19.3506 27.8491 14.9406 23.9091 14.9406C19.9791 14.9406 18.1591 19.3506 13.3691 19.3506C10.3191 19.3506 8.0491 17.4706 7.1791 14.3306H4.9591C6.0791 18.5806 9.3391 21.5506 13.3691 21.5506C18.5791 21.5506 21.2891 17.1406 23.9091 17.1406C26.5191 17.1406 29.2491 21.5506 34.4391 21.5506C39.4891 21.5506 43.2891 16.9706 43.2891 10.9506C43.2891 1.0906 34.6191 0.0006 23.9091 0.0006ZM1.0491 12.3006H12.4391L14.2991 12.2206L13.5091 12.9706L11.6491 14.6806C11.4291 14.8706 11.3191 15.1606 11.3191 15.4206C11.3191 15.9806 11.7291 16.4206 12.2791 16.4206C12.5791 16.4206 12.7991 16.3006 12.9991 16.0906L16.9391 12.0206C17.1991 11.7406 17.2991 11.5006 17.2991 11.2206C17.2991 10.9406 17.1991 10.7006 16.9391 10.4306L12.9991 6.3406C12.7991 6.1406 12.5791 6.0306 12.2791 6.0306C11.7291 6.0306 11.3191 6.4506 11.3191 7.0106C11.3191 7.2906 11.4291 7.5706 11.6491 7.7606L13.5091 9.4706L14.2991 10.2306L12.4391 10.1406L1.0491 10.1306C0.4791 10.1306 -0.0009 10.6406 -0.0009 11.2206C-0.0009 11.8106 0.4791 12.3006 1.0491 12.3006Z"
        fillRule="evenodd"
        clipRule="evenodd"
    />
</svg>
        