
<svg
    viewBox="0 0 27.890625 27.890625"
    xmlns="http://www.w3.org/2000/svg"
>
    <path
        fill="inherit"
        d="M13.9427 27.8864C21.6427 27.8864 27.8927 21.6264 27.8927 13.9464C27.8927 6.2464 21.6427 -0.0036 13.9427 -0.0036C6.2627 -0.0036 0.0027 6.2464 0.0027 13.9464C0.0027 21.6264 6.2627 27.8864 13.9427 27.8864ZM13.9427 17.0864C12.8127 17.0864 11.5027 19.2264 8.8827 19.2264C6.3127 19.2264 4.4127 16.8864 4.4127 13.8864C4.4127 8.9564 8.7727 8.4064 13.9427 8.4064C19.1227 8.4064 23.4727 8.9564 23.4727 13.8864C23.4727 16.8864 21.5727 19.2264 19.0027 19.2264C16.3927 19.2264 15.0927 17.0864 13.9427 17.0864ZM13.9427 15.5464C16.0527 15.5464 16.9027 17.6764 19.0027 17.6764C20.8327 17.6764 21.9427 16.3064 21.9427 13.8864C21.9427 10.3264 18.9627 9.9564 13.9427 9.9564C8.9327 9.9564 5.9427 10.3264 5.9427 13.8864C5.9427 16.3064 7.0527 17.6764 8.8827 17.6764C10.9927 17.6764 11.8527 15.5464 13.9427 15.5464Z"
        fillRule="evenodd"
        clipRule="evenodd"
    />
</svg>
        