
<svg
    viewBox="0 0 38.759765625 29.50048828125"
    xmlns="http://www.w3.org/2000/svg"
>
    <path
        fill="inherit"
        d="M32.3037 29.1825C32.7137 29.6025 33.4037 29.6025 33.7937 29.1825C34.2037 28.7725 34.2237 28.1125 33.8137 27.6925L6.4437 0.3125C6.0337 -0.1075 5.3637 -0.1075 4.9337 0.3125C4.5437 0.7225 4.5437 1.4025 4.9337 1.8025ZM38.7637 14.6625C38.7637 4.8025 30.0737 3.7125 19.3837 3.7125C16.9137 3.7125 14.5437 3.7625 12.3737 3.9825L14.4237 6.0525C15.9537 5.9425 17.6137 5.9125 19.3837 5.9125C29.8437 5.9125 36.5537 6.7225 36.5537 14.6625C36.5537 19.2325 34.5237 22.2825 31.2937 22.9225L32.9937 24.6125C36.4237 23.1925 38.7637 19.3625 38.7637 14.6625ZM0.0037 14.6625C0.0037 20.6825 3.8037 25.2625 8.8437 25.2625C14.0437 25.2625 16.7637 20.8525 19.3837 20.8525C20.7937 20.8525 22.2137 22.1925 24.1037 23.2525L20.1637 19.3025C19.6437 19.0425 19.2337 18.6925 18.7537 18.7125C15.2537 19.1025 13.3737 23.0625 8.8437 23.0625C4.8137 23.0625 2.2037 19.8625 2.2037 14.6625C2.2037 10.2725 4.2537 8.0725 7.8437 6.9825L6.1837 5.3025C2.3837 6.7625 0.0037 9.5125 0.0037 14.6625Z"
        fillRule="evenodd"
        clipRule="evenodd"
    />
</svg>
        