
<svg
    viewBox="0 0 27.890625 27.890625"
    xmlns="http://www.w3.org/2000/svg"
>
    <path
        fill="inherit"
        d="M13.9427 27.8864C21.6427 27.8864 27.8927 21.6464 27.8927 13.9464C27.8927 6.2464 21.6427 -0.0036 13.9427 -0.0036C6.2527 -0.0036 0.0027 6.2464 0.0027 13.9464C0.0027 21.6464 6.2527 27.8864 13.9427 27.8864ZM13.9427 25.5664C7.5227 25.5664 2.3227 20.3664 2.3227 13.9464C2.3227 7.5164 7.5227 2.3264 13.9427 2.3264C20.3727 2.3264 25.5627 7.5164 25.5627 13.9464C25.5627 20.3664 20.3727 25.5664 13.9427 25.5664ZM20.1227 20.9964C20.3527 21.2364 20.7627 21.2364 21.0027 20.9964C21.2427 20.7364 21.2427 20.3664 21.0027 20.1264L7.7627 6.8864C7.5227 6.6464 7.1327 6.6464 6.8727 6.8864C6.6427 7.1264 6.6427 7.5364 6.8727 7.7664ZM13.9327 8.5764C12.8827 8.5764 11.8527 8.5964 10.9227 8.6864L12.3327 10.0864C12.8427 10.0764 13.3827 10.0664 13.9327 10.0664C18.8027 10.0664 21.6927 10.4164 21.6927 13.8864C21.6927 15.8464 20.9427 17.0864 19.6727 17.4464L20.7627 18.5264C22.2327 17.7164 23.1727 15.9864 23.1727 13.8864C23.1727 9.1064 18.9627 8.5764 13.9327 8.5764ZM9.0227 19.0564C11.5527 19.0564 12.8227 16.9964 13.9327 16.9964C14.3927 16.9964 14.8727 17.4064 15.5027 17.7564L13.4527 15.6964C13.2527 15.6964 13.0527 15.7064 12.8527 15.7664C11.5527 16.1964 10.6627 17.5664 9.0227 17.5664C7.2427 17.5664 6.1627 16.2464 6.1627 13.8864C6.1627 12.0864 6.9427 11.1264 8.3627 10.6264L7.2727 9.5164C5.6727 10.2564 4.6927 11.5764 4.6927 13.8864C4.6927 16.7864 6.5327 19.0564 9.0227 19.0564Z"
        fillRule="evenodd"
        clipRule="evenodd"
    />
</svg>
        