
<svg
    viewBox={0 0 43.28515625 21.546875}
    xmlns="http://www.w3.org/2000/svg"
>
    <path
        fill="inherit"
        d="M23.9091 17.1406C21.2891 17.1406 18.5791 21.5506 13.3691 21.5506C8.7191 21.5506 5.1291 17.6506 4.5891 12.3006H12.4391L14.2991 12.2206L13.5091 12.9706L11.6491 14.6806C11.4291 14.8706 11.3191 15.1606 11.3191 15.4206C11.3191 15.9806 11.7291 16.4206 12.2791 16.4206C12.5791 16.4206 12.7991 16.3006 12.9991 16.0906L16.9391 12.0206C17.1991 11.7406 17.2991 11.5006 17.2991 11.2206C17.2991 10.9406 17.1991 10.7006 16.9391 10.4306L12.9991 6.3406C12.7991 6.1406 12.5791 6.0306 12.2791 6.0306C11.7291 6.0306 11.3191 6.4506 11.3191 7.0106C11.3191 7.2906 11.4291 7.5706 11.6491 7.7606L13.5091 9.4706L14.2991 10.2306L12.4391 10.1406L4.5491 10.1306C5.0191 1.0406 13.5091 0.0006 23.9091 0.0006C34.6191 0.0006 43.2891 1.0906 43.2891 10.9506C43.2891 16.9706 39.4891 21.5506 34.4391 21.5506C29.2491 21.5506 26.5191 17.1406 23.9091 17.1406ZM1.0491 12.3006C0.4791 12.3006 -0.0009 11.8106 -0.0009 11.2206C-0.0009 10.6406 0.4791 10.1306 1.0491 10.1306H4.5491C4.5391 10.4006 4.5291 10.6606 4.5291 10.9506C4.5291 11.4006 4.5491 11.8706 4.5891 12.3006Z"
        fillRule="evenodd"
        clipRule="evenodd"
    />
</svg>
        