<svg viewBox="0 0 33.072265625 28.041015625" xmlns="http://www.w3.org/2000/svg"><path d="M19.1244 27.8864C26.7444 27.8864 33.0744 21.5564 33.0744 13.9464C33.0744 6.3164 26.7244 -0.0036 19.1144 -0.0036C11.9944 -0.0036 6.0244 5.4964 5.2744 12.4264C5.9444 12.3064 6.9144 12.2364 7.6444 12.3364C8.3944 6.6564 13.2044 2.3264 19.1144 2.3264C25.5544 2.3264 30.7344 7.4964 30.7444 13.9464C30.7644 20.3964 25.5644 25.5664 19.1244 25.5664C17.6244 25.5664 16.2144 25.2764 14.9144 24.7764C14.5844 25.4864 14.1744 26.1564 13.6744 26.7564C15.3444 27.4964 17.1844 27.8864 19.1244 27.8864ZM19.1044 8.4364C20.0844 8.4364 20.8744 7.6264 20.8744 6.6564C20.8744 5.6764 20.0844 4.8764 19.1044 4.8764C18.1144 4.8764 17.3244 5.6764 17.3244 6.6564C17.3244 7.6264 18.1144 8.4364 19.1044 8.4364ZM19.1044 9.3264C17.1744 9.3264 14.4144 9.0064 13.0844 8.8064C12.9644 8.7864 12.8344 8.7464 12.7144 8.7464C12.3644 8.7464 12.0144 9.0364 12.0144 9.5264C12.0144 9.8964 12.2344 10.2164 12.5944 10.2964C13.0244 10.4364 16.1444 10.7864 16.5244 10.8664C16.9244 10.9464 17.1544 11.2664 17.1744 11.7464C17.1744 12.4564 17.1744 14.7264 16.9944 15.7464C16.8344 16.7764 15.6444 21.7264 15.5844 21.9264C15.4344 22.4664 15.7644 22.9364 16.2944 22.9364C16.6844 22.9364 16.9444 22.7264 17.0744 22.2164C17.3244 21.2164 18.1744 17.7964 18.4544 16.9664C18.6244 16.3764 18.7744 16.1564 19.1044 16.1564C19.4444 16.1564 19.5744 16.3764 19.7844 16.9664C20.0144 17.7964 20.8944 21.2164 21.1344 22.2164C21.2744 22.7264 21.5344 22.9364 21.9144 22.9364C22.4444 22.9364 22.7644 22.4664 22.6244 21.9264C22.5844 21.7264 21.3644 16.7764 21.2144 15.7464C21.0544 14.7264 21.0544 12.4564 21.0544 11.7464C21.0544 11.2664 21.2844 10.9464 21.6744 10.8664C22.0644 10.7864 25.1844 10.4464 25.6244 10.2964C25.9744 10.1964 26.1944 9.8964 26.1944 9.5264C26.1944 9.0364 25.8244 8.7464 25.4944 8.7464C25.3744 8.7464 25.2544 8.7864 25.1244 8.8064C23.8044 9.0064 21.0544 9.3264 19.1044 9.3264ZM6.9444 28.0364C10.7044 28.0364 13.8944 24.8964 13.8944 21.0964C13.8944 17.2764 10.7644 14.1464 6.9444 14.1464C3.1444 14.1464 0.0044 17.2964 0.0044 21.0964C0.0044 24.9264 3.1444 28.0364 6.9444 28.0364ZM2.9444 21.7664V20.4264C2.9444 19.8964 3.1944 19.6464 3.6944 19.6464H4.7144C4.7444 19.6464 4.7844 19.6164 4.8144 19.6064L6.3444 18.1264C6.5244 17.9764 6.6544 17.9064 6.8244 17.9064C7.0644 17.9064 7.2444 18.0764 7.2444 18.3164V23.8564C7.2444 24.0864 7.0644 24.2664 6.8244 24.2664C6.6544 24.2664 6.5244 24.1964 6.3444 24.0464L4.8144 22.5864C4.7844 22.5564 4.7444 22.5464 4.7144 22.5464H3.6944C3.1944 22.5464 2.9444 22.2864 2.9444 21.7664ZM9.8144 23.6764C9.6244 23.5264 9.6144 23.2564 9.7444 23.0664C10.1044 22.5164 10.3244 21.8164 10.3244 21.0864C10.3244 20.3564 10.1144 19.6764 9.7344 19.1264C9.5844 18.9064 9.6244 18.6364 9.8344 18.4964C10.0244 18.3864 10.2544 18.4164 10.4144 18.6064C10.9144 19.2664 11.1744 20.1564 11.1744 21.0864C11.1744 22.0164 10.9144 22.8964 10.4344 23.5664C10.2644 23.7664 10.0044 23.8064 9.8144 23.6764ZM8.4244 22.7264C8.2144 22.5764 8.1944 22.3164 8.3544 22.1064C8.5344 21.8364 8.6244 21.4964 8.6244 21.0864C8.6244 20.6964 8.5144 20.3164 8.3544 20.0664C8.1944 19.8764 8.2144 19.5664 8.4344 19.4364C8.6444 19.3164 8.8844 19.3564 9.0344 19.5664C9.3244 19.9564 9.5044 20.5264 9.5044 21.0864C9.5044 21.6564 9.3244 22.2164 9.0244 22.6164C8.8744 22.8364 8.6144 22.8764 8.4244 22.7264Z" /></svg>