<svg viewBox="0 0 27.890625 27.890625" xmlns="http://www.w3.org/2000/svg"><path d="M13.9427 27.8864C21.6427 27.8864 27.8927 21.6264 27.8927 13.9464C27.8927 6.2464 21.6427 -0.0036 13.9427 -0.0036C6.2627 -0.0036 0.0027 6.2464 0.0027 13.9464C0.0027 21.6264 6.2627 27.8864 13.9427 27.8864ZM16.4327 10.1864C14.6027 8.7764 11.1327 7.7564 8.4627 8.7464C9.8427 7.2964 11.8027 6.3664 13.9427 6.3664C14.9827 6.3664 15.9727 6.6064 16.8827 6.9764C17.2927 7.8764 17.1027 8.9864 16.4327 10.1864ZM15.0827 18.0564C14.5227 17.0264 14.1527 15.7464 14.1127 14.5864C16.5027 12.4364 18.3027 9.8064 18.0427 7.6264C18.9227 8.1864 19.6727 8.9264 20.2527 9.8064C20.4627 10.9264 19.4127 14.6464 15.0827 18.0564ZM13.4427 13.8064C11.1027 12.8564 8.1627 12.1964 6.3827 13.3664C6.4527 12.3964 6.7227 11.4564 7.1527 10.6264C9.5327 8.4364 13.8327 9.4764 15.8827 11.0864C15.2727 11.9864 14.4227 12.9064 13.4427 13.8064ZM17.7327 20.4964C16.9827 20.4264 16.2327 19.8264 15.6127 18.9464C18.9927 16.3564 20.5527 13.4564 21.0727 11.4564C21.3427 12.2264 21.5027 13.0664 21.5027 13.9464C21.5027 16.7064 19.9627 19.1664 17.7327 20.4964ZM8.8027 13.7364C8.8727 16.7364 10.2827 19.5264 11.6627 21.1464C8.8027 20.2464 6.6727 17.6764 6.4027 14.6164C6.9227 13.9564 7.7827 13.7164 8.8027 13.7364ZM13.0827 14.7964C13.2027 17.0864 14.5627 20.0064 16.3927 21.0964C15.6127 21.3664 14.8027 21.5164 13.7827 21.5164C12.5527 21.0964 9.9927 17.7764 9.8427 13.8364C10.8827 13.9764 12.0327 14.3264 13.0827 14.7964Z" /></svg>