
<svg
    viewBox="0 0 27.849609375 27.892412808467824"
    xmlns="http://www.w3.org/2000/svg"
>
    <path
        fill="inherit"
        d="M18.5427 7.1064C19.7527 4.8964 20.1627 2.8464 19.4327 1.1664C17.7227 0.4264 15.8427 -0.0036 13.8927 -0.0036C9.9127 -0.0036 6.2727 1.7364 3.7427 4.4864C8.6527 2.5564 15.2127 4.4964 18.5427 7.1064ZM15.9827 21.6164C24.0227 15.3264 25.9927 8.4664 25.5927 6.3964C24.5027 4.7464 23.0827 3.3264 21.4127 2.2464C21.9127 6.2364 18.5827 11.1064 14.1527 15.0964C14.2327 17.2764 14.9327 19.6364 15.9827 21.6164ZM12.9927 13.7564C14.8427 12.0564 16.4027 10.3464 17.5727 8.6664C13.8127 5.6864 5.9927 3.7164 1.5127 7.6164C0.6527 9.2164 0.1227 11.0164 0.0027 12.9464C3.2627 10.7464 8.6727 11.9464 12.9927 13.7564ZM20.8227 26.0164C24.9927 23.5964 27.8527 19.0564 27.8527 13.9464C27.8527 12.2864 27.5327 10.6864 26.9927 9.2164C26.0827 12.9064 23.2727 18.2964 16.9127 23.1464C18.0627 24.7864 19.4427 25.9064 20.8227 26.0164ZM4.5027 13.4764C2.5927 13.4264 0.9827 13.8864 0.0027 15.0964C0.4827 20.7764 4.5027 25.5764 9.8127 27.2164C7.2727 24.2664 4.6027 19.0864 4.5027 13.4764ZM12.3827 15.4464C10.3727 14.5864 8.2427 13.9164 6.2927 13.6764C6.5527 20.9464 11.2427 27.0864 13.4927 27.8864C15.3227 27.9164 17.0127 27.6264 18.5027 27.0864C15.1327 25.0864 12.5827 19.6964 12.3827 15.4464Z"
        fillRule="evenodd"
        clipRule="evenodd"
    />
</svg>
        