
<svg
    viewBox="0 0 27.890625 27.890625"
    xmlns="http://www.w3.org/2000/svg"
>
    <path
        fill="inherit"
        d="M13.9427 -0.0036C6.2527 -0.0036 0.0027 6.2464 0.0027 13.9464C0.0027 21.6464 6.2527 27.8864 13.9427 27.8864C21.6427 27.8864 27.8927 21.6464 27.8927 13.9464C27.8927 6.2464 21.6427 -0.0036 13.9427 -0.0036ZM13.9427 1.8564C15.8827 1.8564 17.7227 2.3064 19.3427 3.1264C20.2027 3.8464 19.7127 5.6364 18.2627 7.8464C15.1527 5.8064 10.0327 4.0364 5.4027 5.3964C7.5927 3.2164 10.6127 1.8564 13.9427 1.8564ZM14.2027 15.0964C18.0927 11.5764 21.1327 7.3964 21.4327 4.4564C22.5127 5.3164 23.4627 6.3564 24.2027 7.5364C24.6127 9.3964 23.4227 15.2964 15.5627 20.1764C14.8927 18.5964 14.4327 16.7764 14.2027 15.0964ZM13.0427 13.7564C8.8627 12.0164 4.6327 11.1864 1.9127 12.7264C2.0927 11.0564 2.5927 9.4864 3.3727 8.0764C7.8627 5.3464 13.5927 7.0264 17.2427 9.2864C16.1327 10.7064 14.6927 12.2464 13.0427 13.7564ZM19.8827 24.4564C18.4527 24.4464 17.2627 23.3364 16.3427 21.7564C22.1327 18.1964 24.7227 13.9764 25.6227 10.8164C25.8927 11.8164 26.0327 12.8664 26.0327 13.9464C26.0327 18.4564 23.5527 22.3964 19.8827 24.4764ZM1.8827 14.7964C2.5727 14.0664 3.5827 13.6964 4.8227 13.6264C5.0327 18.8264 7.2627 22.7864 9.5427 25.1964C5.2927 23.5464 2.2127 19.5364 1.8827 14.7964ZM12.4427 15.4464C12.9627 19.0764 14.6327 23.7764 17.4427 25.5164C16.3427 25.8564 15.1627 26.0264 13.9427 26.0264C13.8627 26.0264 13.7927 26.0264 13.7127 26.0264C11.5127 25.3064 7.0127 20.9964 6.6327 13.7264C8.3427 13.9464 10.3227 14.5564 12.4427 15.4464Z"
        fillRule="evenodd"
        clipRule="evenodd"
    />
</svg>
        