
<svg
    viewBox={0 0 27.890625 27.890625}
    xmlns="http://www.w3.org/2000/svg"
>
    <path
        fill="inherit"
        d="M13.9427 27.8864C21.6427 27.8864 27.8927 21.6264 27.8927 13.9464C27.8927 6.2464 21.6427 -0.0036 13.9427 -0.0036C6.2627 -0.0036 0.0027 6.2464 0.0027 13.9464C0.0027 21.6264 6.2627 27.8864 13.9427 27.8864ZM10.1427 20.5464C9.4227 20.5464 8.9327 20.1564 8.7527 19.4264L5.9627 8.7364C5.9227 8.5864 5.9027 8.4364 5.9027 8.3164C5.9027 7.6664 6.3327 7.2364 6.9827 7.2364C7.6527 7.2364 7.9527 7.5464 8.1327 8.3564L10.2427 17.3064H10.3327L12.6827 8.1864C12.8427 7.5564 13.2627 7.2564 13.9327 7.2564C14.6027 7.2564 15.0027 7.5564 15.1627 8.1864L17.5227 17.3064H17.6227L19.7327 8.3564C19.9027 7.5464 20.2227 7.2364 20.8927 7.2364C21.5327 7.2364 21.9727 7.6664 21.9727 8.3164C21.9727 8.4364 21.9527 8.5864 21.9027 8.7364L19.1127 19.4264C18.9327 20.1564 18.4427 20.5464 17.6927 20.5464C16.9527 20.5464 16.4327 20.1664 16.2727 19.4564L13.9727 10.5864H13.8727L11.5927 19.4564C11.4327 20.1664 10.9127 20.5464 10.1427 20.5464Z"
        fillRule="evenodd"
        clipRule="evenodd"
    />
</svg>
        