
<svg
    viewBox={0 0 25.169921875 25.169921875}
    xmlns="http://www.w3.org/2000/svg"
>
    <path
        fill="inherit"
        d="M4.2937 25.1692H20.8737C23.7437 25.1692 25.1737 23.7592 25.1737 20.9492V4.2392C25.1737 1.4192 23.7437 -0.0008 20.8737 -0.0008H4.2937C1.4337 -0.0008 0.0037 1.4192 0.0037 4.2392V20.9492C0.0037 23.7592 1.4337 25.1692 4.2937 25.1692ZM4.3237 22.9692C2.9537 22.9692 2.2037 22.2392 2.2037 20.8192V4.3592C2.2037 2.9392 2.9537 2.1992 4.3237 2.1992H20.8537C22.2037 2.1992 22.9737 2.9392 22.9737 4.3592V20.8192C22.9737 22.2392 22.2037 22.9692 20.8537 22.9692ZM8.9237 18.9792C9.6537 18.9792 10.1437 18.6092 10.3037 17.9192L12.5237 9.2992H12.6337L14.8437 17.9192C15.0137 18.6092 15.5037 18.9792 16.2237 18.9792C16.9537 18.9792 17.4137 18.5892 17.5937 17.8992L20.3137 7.5192C20.3537 7.3692 20.3737 7.2292 20.3737 7.1092C20.3737 6.4892 19.9637 6.0692 19.3137 6.0692C18.6737 6.0692 18.3737 6.3692 18.2137 7.1492L16.1637 15.8492H16.0637L13.7637 6.9992C13.6037 6.3892 13.2237 6.0992 12.5737 6.0992C11.9337 6.0992 11.5437 6.3892 11.3937 6.9992L9.0937 15.8492H8.9937L6.9637 7.1492C6.7937 6.3692 6.4937 6.0692 5.8537 6.0692C5.2137 6.0692 4.8037 6.4892 4.8037 7.1092C4.8037 7.2292 4.8137 7.3692 4.8537 7.5192L7.5637 17.8992C7.7337 18.5892 8.2037 18.9792 8.9237 18.9792Z"
        fillRule="evenodd"
        clipRule="evenodd"
    />
</svg>
        