
<svg
    viewBox={0 0 25.169921875 25.169921875}
    xmlns="http://www.w3.org/2000/svg"
>
    <path
        fill="inherit"
        d="M4.2937 25.1692H20.8737C23.7437 25.1692 25.1737 23.7592 25.1737 20.9492V4.2392C25.1737 1.4192 23.7437 -0.0008 20.8737 -0.0008H4.2937C1.4337 -0.0008 0.0037 1.4192 0.0037 4.2392V20.9492C0.0037 23.7592 1.4337 25.1692 4.2937 25.1692ZM8.8037 19.1792C8.0637 19.1792 7.5737 18.7892 7.3937 18.0592L4.6037 7.3692C4.5637 7.2192 4.5537 7.0692 4.5537 6.9492C4.5537 6.2992 4.9737 5.8692 5.6337 5.8692C6.3037 5.8692 6.6137 6.1792 6.7837 6.9892L8.8837 15.9392H8.9837L11.3437 6.8192C11.4937 6.1892 11.9037 5.8892 12.5737 5.8892C13.2437 5.8892 13.6437 6.1892 13.8037 6.8192L16.1737 15.9392H16.2737L18.3937 6.9892C18.5537 6.1792 18.8637 5.8692 19.5337 5.8692C20.1937 5.8692 20.6137 6.2992 20.6137 6.9492C20.6137 7.0692 20.6037 7.2192 20.5637 7.3692L17.7637 18.0592C17.5837 18.7892 17.0937 19.1792 16.3337 19.1792C15.6037 19.1792 15.0837 18.7992 14.9137 18.0892L12.6337 9.2192H12.5237L10.2437 18.0892C10.0737 18.7992 9.5537 19.1792 8.8037 19.1792Z"
        fillRule="evenodd"
        clipRule="evenodd"
    />
</svg>
        