
<svg
    viewBox="0 0 27.890625 27.890625"
    xmlns="http://www.w3.org/2000/svg"
>
    <path
        fill="inherit"
        d="M13.9427 27.8864C21.6427 27.8864 27.8927 21.6464 27.8927 13.9464C27.8927 6.2464 21.6427 -0.0036 13.9427 -0.0036C6.2527 -0.0036 0.0027 6.2464 0.0027 13.9464C0.0027 21.6464 6.2527 27.8864 13.9427 27.8864ZM13.9427 25.5664C7.5227 25.5664 2.3227 20.3664 2.3227 13.9464C2.3227 7.5164 7.5227 2.3264 13.9427 2.3264C20.3727 2.3264 25.5627 7.5164 25.5627 13.9464C25.5627 20.3664 20.3727 25.5664 13.9427 25.5664ZM13.9427 5.5064C9.2827 5.5064 5.5127 9.2864 5.5127 13.9464C5.5127 18.6064 9.2827 22.3764 13.9427 22.3764C18.6027 22.3764 22.3827 18.6064 22.3827 13.9464C22.3827 9.2864 18.6027 5.5064 13.9427 5.5064ZM8.8827 9.9364C10.0527 8.4364 11.8927 7.4664 13.9627 7.4664C16.0227 7.4664 17.8727 8.4364 19.0427 9.9364ZM7.4827 13.9464C7.4827 13.1764 7.6127 12.4264 7.8627 11.7464H20.0527C20.3027 12.4264 20.4427 13.1764 20.4427 13.9464C20.4427 17.5264 17.5427 20.4264 13.9627 20.4264C10.3727 20.4264 7.4827 17.5264 7.4827 13.9464Z"
        fillRule="evenodd"
        clipRule="evenodd"
    />
</svg>
        