
<svg
    viewBox={0 0 27.890625 27.890625}
    xmlns="http://www.w3.org/2000/svg"
>
    <path
        fill="inherit"
        d="M13.9427 27.8864C21.6427 27.8864 27.8927 21.6464 27.8927 13.9464C27.8927 6.2464 21.6427 -0.0036 13.9427 -0.0036C6.2527 -0.0036 0.0027 6.2464 0.0027 13.9464C0.0027 21.6464 6.2527 27.8864 13.9427 27.8864ZM13.9427 2.3264C18.0327 2.3264 21.6327 4.4264 23.6927 7.6064H4.1927C6.2727 4.4264 9.8527 2.3264 13.9427 2.3264ZM13.9427 25.5664C7.5227 25.5664 2.3227 20.3664 2.3227 13.9464C2.3227 12.4264 2.6127 10.9964 3.1327 9.6664H24.7627C25.2827 10.9964 25.5627 12.4264 25.5627 13.9464C25.5627 20.3664 20.3727 25.5664 13.9427 25.5664Z"
        fillRule="evenodd"
        clipRule="evenodd"
    />
</svg>
        