
<svg
    viewBox={0 0 32.1015625 27.685212030483804}
    xmlns="http://www.w3.org/2000/svg"
>
    <path
        fill="inherit"
        d="M9.1037 3.5859H25.6037V3.2659C25.4737 0.3459 23.3637 -0.5341 20.4937 0.2959ZM4.0737 27.6859H26.1937C28.9137 27.6859 30.2737 26.3159 30.2737 23.6659V21.6259H25.2137C21.9037 21.6259 19.8537 19.5459 19.8537 16.5559C19.8537 13.5659 21.9037 11.4859 25.2137 11.4859H30.2737V9.4759C30.2737 6.8059 28.9137 5.4559 26.1937 5.4559H4.0737C1.3637 5.4559 0.0037 6.7959 0.0037 9.4759V23.6659C0.0037 26.3359 1.3637 27.6859 4.0737 27.6859ZM25.2137 19.8559H30.0737C31.3337 19.8559 32.1037 18.9659 32.1037 17.8559V15.2559C32.1037 14.1359 31.3337 13.2459 30.0737 13.2459H25.2137C23.0537 13.2459 21.6337 14.3859 21.6337 16.5559C21.6337 18.7259 23.0537 19.8559 25.2137 19.8559ZM24.9737 17.9459C24.2037 17.9459 23.5837 17.3259 23.5837 16.5559C23.5837 15.7759 24.2037 15.1659 24.9737 15.1659C25.7537 15.1659 26.3837 15.7759 26.3837 16.5559C26.3837 17.3259 25.7537 17.9459 24.9737 17.9459Z"
        fillRule="evenodd"
        clipRule="evenodd"
    />
</svg>
        