<svg viewBox="0 0 32.607421875 27.67957832687273" xmlns="http://www.w3.org/2000/svg"><path d="M4.1437 27.6776H26.1237C28.8737 27.6776 30.2537 26.2976 30.2537 23.6076V20.7776C31.7237 20.5876 32.6037 19.4676 32.6037 18.0276V14.9876C32.6037 13.5576 31.7237 12.4376 30.2537 12.2576V9.4576C30.2537 6.7576 28.8737 5.3676 26.1237 5.3676H25.7137V3.6576C25.7137 0.4276 23.5037 -0.5624 20.5037 0.2976L2.9837 5.3976C0.9337 6.0076 0.0037 7.2576 0.0037 9.4576V23.6076C0.0037 26.3076 1.4037 27.6776 4.1437 27.6776ZM10.9337 5.3676C10.7037 5.3676 10.6737 5.1476 10.9237 5.0976L21.4937 2.1676C22.8037 1.7876 23.4837 2.2676 23.4837 3.4676V5.3676ZM24.7737 20.7976H28.0437V23.4776C28.0437 24.8076 27.3337 25.4676 26.0837 25.4676H4.1737C2.9137 25.4676 2.2237 24.8076 2.2237 23.4776V9.5776C2.2237 8.2676 2.9137 7.5776 4.1737 7.5776H26.0837C27.3337 7.5776 28.0437 8.2676 28.0437 9.5776V12.2276H24.7737C22.0137 12.2276 20.1637 13.6476 20.1637 16.5076C20.1637 19.3776 22.0137 20.7976 24.7737 20.7976ZM24.9137 18.9676C22.9937 18.9676 22.0937 18.0376 22.0937 16.5076C22.0937 14.9776 22.9937 14.0476 24.9137 14.0476H29.3537C30.2937 14.0476 30.7937 14.5776 30.7937 15.4676V17.5476C30.7937 18.4376 30.2937 18.9676 29.3537 18.9676ZM24.9137 17.8776C25.6737 17.8776 26.2937 17.2576 26.2937 16.4976C26.2937 15.7276 25.6737 15.1176 24.9137 15.1176C24.1437 15.1176 23.5337 15.7276 23.5337 16.4976C23.5337 17.2576 24.1437 17.8776 24.9137 17.8776Z" /></svg>