
<svg
    viewBox="0 0 22.99609375 29.3125"
    xmlns="http://www.w3.org/2000/svg"
>
    <path
        fill="inherit"
        d="M4.2337 29.3173H18.7537C21.5737 29.3173 22.9937 27.8773 22.9937 25.0373V4.2973C22.9937 1.4373 21.5837 -0.0027 18.7537 -0.0027H15.2837C14.8237 -0.0027 14.5037 0.3273 14.5037 0.8173V1.0073C14.5037 2.7873 13.3037 3.8573 11.4937 3.8573C9.6937 3.8573 8.4937 2.7873 8.4937 1.0073V0.8173C8.4937 0.3273 8.1737 -0.0027 7.7137 -0.0027H4.2337C1.4037 -0.0027 0.0037 1.4373 0.0037 4.2973V25.0373C0.0037 27.8773 1.4237 29.3173 4.2337 29.3173ZM6.3137 10.1873C5.8237 10.1873 5.4737 9.8173 5.4737 9.3273C5.4737 8.8573 5.8237 8.4873 6.3137 8.4873H16.6937C17.1737 8.4873 17.5237 8.8573 17.5237 9.3273C17.5237 9.8173 17.1737 10.1873 16.6937 10.1873ZM6.3137 15.0373C5.8237 15.0373 5.4737 14.6673 5.4737 14.2073C5.4737 13.7273 5.8237 13.3573 6.3137 13.3573H11.2237C11.7137 13.3573 12.0737 13.7273 12.0737 14.2073C12.0737 14.6673 11.7137 15.0373 11.2237 15.0373Z"
        fillRule="evenodd"
        clipRule="evenodd"
    />
</svg>
        