
<svg
    viewBox="0 0 22.99609375 29.3125"
    xmlns="http://www.w3.org/2000/svg"
>
    <path
        fill="inherit"
        d="M4.2337 29.3173H18.7537C21.5737 29.3173 22.9937 27.8773 22.9937 25.0373V4.2973C22.9937 1.4373 21.5837 -0.0027 18.7537 -0.0027H14.6937C14.2337 -0.0027 13.9337 0.3273 13.9337 0.8173C13.9337 2.2373 12.9437 3.2373 11.4937 3.2373C10.0537 3.2373 9.0537 2.2373 9.0537 0.8173C9.0537 0.3273 8.7537 -0.0027 8.2837 -0.0027H4.2337C1.4037 -0.0027 0.0037 1.4373 0.0037 4.2973V25.0373C0.0037 27.8773 1.4237 29.3173 4.2337 29.3173ZM4.3437 27.1073C2.9237 27.1073 2.2037 26.3473 2.2037 24.9873V4.3373C2.2037 2.9673 2.9237 2.1973 4.3437 2.1973H7.1137C7.6337 4.1573 9.2837 5.3773 11.4937 5.3773C13.7137 5.3773 15.3637 4.1573 15.8837 2.1973H18.6437C20.0737 2.1973 20.7937 2.9673 20.7937 4.3373V24.9873C20.7937 26.3473 20.0737 27.1073 18.6437 27.1073ZM6.3137 10.1873H16.6937C17.1737 10.1873 17.5237 9.8173 17.5237 9.3273C17.5237 8.8573 17.1737 8.4873 16.6937 8.4873H6.3137C5.8237 8.4873 5.4737 8.8573 5.4737 9.3273C5.4737 9.8173 5.8237 10.1873 6.3137 10.1873ZM6.3137 15.0373H11.2237C11.7137 15.0373 12.0737 14.6673 12.0737 14.2073C12.0737 13.7273 11.7137 13.3573 11.2237 13.3573H6.3137C5.8237 13.3573 5.4737 13.7273 5.4737 14.2073C5.4737 14.6673 5.8237 15.0373 6.3137 15.0373Z"
        fillRule="evenodd"
        clipRule="evenodd"
    />
</svg>
        