
<svg
    viewBox={0 0 35.41015625 32.826171875}
    xmlns="http://www.w3.org/2000/svg"
>
    <path
        fill="inherit"
        d="M17.6927 25.2922C23.2427 25.2922 27.8627 20.6722 27.8627 15.1222C27.8627 11.3922 25.7827 8.0822 22.7327 6.3122V2.7622C22.7327 1.0422 21.6927 0.0022 19.9727 0.0022H15.4627C13.7427 0.0022 12.7027 1.0422 12.7027 2.7622V6.2922C9.6227 8.0522 7.5227 11.3722 7.5227 15.1222C7.5227 20.6722 12.1427 25.2922 17.6927 25.2922ZM17.7027 4.9522C16.6927 4.9522 15.7127 5.1022 14.7827 5.3822V2.9422C14.7827 2.3822 15.0827 2.0822 15.6527 2.0822H19.7827C20.3527 2.0822 20.6627 2.3822 20.6627 2.9422V5.4022C19.7327 5.1122 18.7327 4.9522 17.7027 4.9522ZM28.1327 6.3622L30.2127 4.2622C30.6627 3.8122 30.6627 3.0522 30.2127 2.6022C29.7627 2.1422 29.0127 2.1422 28.5627 2.6022L26.4527 4.6922C26.0027 5.1222 26.0027 5.9022 26.4527 6.3622C26.9027 6.8122 27.6827 6.8122 28.1327 6.3622ZM7.2727 6.3622C7.7227 6.8122 8.4927 6.8122 8.9427 6.3622C9.3927 5.9022 9.3927 5.1222 8.9427 4.6922L6.8527 2.6022C6.4027 2.1422 5.6327 2.1422 5.1827 2.6022C4.7327 3.0522 4.7327 3.8122 5.1827 4.2622ZM17.7227 23.0922C13.3727 23.0922 9.7527 19.4722 9.7527 15.1222C9.7527 10.7822 13.3727 7.1522 17.7027 7.1522C22.0527 7.1522 25.6927 10.7722 25.6927 15.1222C25.6927 19.4722 22.0627 23.0922 17.7227 23.0922ZM31.2827 16.2922H34.2227C34.8627 16.2922 35.4127 15.7622 35.4127 15.1222C35.4127 14.4822 34.8627 13.9322 34.2227 13.9322H31.2827C30.6427 13.9322 30.0927 14.4822 30.0927 15.1222C30.0927 15.7622 30.6427 16.2922 31.2827 16.2922ZM4.1327 16.2922C4.7727 16.2922 5.3227 15.7622 5.3227 15.1222C5.3227 14.4822 4.7727 13.9322 4.1327 13.9322H1.1727C0.5327 13.9322 0.0027 14.4822 0.0027 15.1222C0.0027 15.7622 0.5327 16.2922 1.1727 16.2922ZM26.4527 25.5522L28.5627 27.6322C29.0127 28.0822 29.7627 28.0822 30.2127 27.6322C30.6627 27.1822 30.6627 26.4122 30.2127 25.9722L28.1327 23.8722C27.6827 23.4222 26.9027 23.4222 26.4527 23.8722C26.0027 24.3222 26.0027 25.1022 26.4527 25.5522ZM8.9427 25.5522C9.3927 25.1022 9.3927 24.3222 8.9427 23.8722C8.4927 23.4222 7.7227 23.4222 7.2727 23.8722L5.1827 25.9722C4.7327 26.4122 4.7327 27.1822 5.1827 27.6322C5.6327 28.0822 6.4027 28.0822 6.8527 27.6322ZM18.9127 28.7022C18.9127 28.0522 18.3627 27.5222 17.7227 27.5222C17.0727 27.5222 16.5427 28.0522 16.5427 28.7022V31.6522C16.5427 32.2922 17.0727 32.8222 17.7227 32.8222C18.3627 32.8222 18.9127 32.2922 18.9127 31.6522Z"
        fillRule="evenodd"
        clipRule="evenodd"
    />
</svg>
        