
<svg
    viewBox={0 0 27.890625 27.890625}
    xmlns="http://www.w3.org/2000/svg"
>
    <path
        fill="inherit"
        d="M13.9427 27.8927C21.6427 27.8927 27.8927 21.6427 27.8927 13.9427C27.8927 6.2627 21.6427 0.0027 13.9427 0.0027C6.2627 0.0027 0.0027 6.2627 0.0027 13.9427C0.0027 21.6427 6.2627 27.8927 13.9427 27.8927ZM18.5627 6.2027C19.5927 6.2027 20.2627 6.9027 20.2627 7.9527V9.9027H7.5227V7.9527C7.5227 6.9027 8.1927 6.2027 9.2127 6.2027ZM10.1727 9.0627C10.5427 9.0627 10.8327 8.7627 10.8327 8.4127C10.8327 8.0227 10.5427 7.7127 10.1727 7.7127C9.8027 7.7127 9.5027 8.0227 9.5027 8.4127C9.5027 8.7627 9.8027 9.0627 10.1727 9.0627ZM12.1127 9.0627C12.4827 9.0627 12.7827 8.7627 12.7827 8.4127C12.7827 8.0227 12.4827 7.7127 12.1127 7.7127C11.7327 7.7127 11.4527 8.0227 11.4527 8.4127C11.4527 8.7627 11.7327 9.0627 12.1127 9.0627ZM16.2127 8.8027H18.0327C18.2827 8.8027 18.4427 8.6427 18.4427 8.4127C18.4427 8.1527 18.2827 7.9827 18.0327 7.9827H16.2127C15.9827 7.9827 15.8027 8.1527 15.8027 8.4127C15.8027 8.6427 15.9827 8.8027 16.2127 8.8027ZM9.2127 21.6427C8.1927 21.6427 7.5227 20.9327 7.5227 19.8827V10.9527H20.2627V19.8827C20.2627 20.9327 19.5927 21.6427 18.5627 21.6427ZM13.8927 19.9727C16.0927 19.9727 17.8727 18.1827 17.8727 16.0127C17.8727 13.8127 16.0927 12.0327 13.8927 12.0327C11.6927 12.0327 9.9127 13.8127 9.9127 16.0127C9.9127 18.1827 11.6927 19.9727 13.8927 19.9727ZM13.8927 18.9627C12.2227 18.9627 10.9227 17.6627 10.9227 16.0127C10.9227 14.3427 12.2227 13.0327 13.8927 13.0327C15.5627 13.0327 16.8527 14.3427 16.8527 16.0127C16.8527 17.6627 15.5627 18.9627 13.8927 18.9627Z"
        fillRule="evenodd"
        clipRule="evenodd"
    />
</svg>
        