
<svg
    viewBox="0 0 27.890625 27.890625"
    xmlns="http://www.w3.org/2000/svg"
>
    <path
        fill="inherit"
        d="M13.9427 27.8864C21.6427 27.8864 27.8927 21.6464 27.8927 13.9464C27.8927 6.2464 21.6427 -0.0036 13.9427 -0.0036C6.2527 -0.0036 0.0027 6.2464 0.0027 13.9464C0.0027 21.6464 6.2527 27.8864 13.9427 27.8864ZM13.9427 25.5664C7.5227 25.5664 2.3227 20.3664 2.3227 13.9464C2.3227 7.5164 7.5227 2.3264 13.9427 2.3264C20.3727 2.3264 25.5627 7.5164 25.5627 13.9464C25.5627 20.3664 20.3727 25.5664 13.9427 25.5664ZM18.4327 6.4264H9.3527C8.3627 6.4264 7.7127 7.1064 7.7127 8.1364V10.0664H20.0727V8.1364C20.0727 7.1064 19.4127 6.4264 18.4327 6.4264ZM10.2827 9.2164C9.9227 9.2164 9.6427 8.9164 9.6427 8.5564C9.6427 8.1864 9.9227 7.9064 10.2827 7.9064C10.6327 7.9064 10.9227 8.1864 10.9227 8.5564C10.9227 8.9164 10.6327 9.2164 10.2827 9.2164ZM12.1727 9.2164C11.8027 9.2164 11.5227 8.9164 11.5227 8.5564C11.5227 8.1864 11.8027 7.9064 12.1727 7.9064C12.5227 7.9064 12.8127 8.1864 12.8127 8.5564C12.8127 8.9164 12.5227 9.2164 12.1727 9.2164ZM16.1427 8.9564C15.9127 8.9564 15.7527 8.7864 15.7527 8.5564C15.7527 8.3264 15.9127 8.1664 16.1427 8.1664H17.9127C18.1427 8.1664 18.3027 8.3264 18.3027 8.5564C18.3027 8.7864 18.1427 8.9564 17.9127 8.9564ZM9.3527 21.3964H18.4327C19.4127 21.3964 20.0727 20.7264 20.0727 19.6964V11.0364H7.7127V19.6964C7.7127 20.7264 8.3627 21.3964 9.3527 21.3964ZM13.8927 19.7864C11.7627 19.7864 10.0327 18.0464 10.0327 15.9264C10.0327 13.8064 11.7627 12.0764 13.8927 12.0764C16.0227 12.0764 17.7427 13.8064 17.7427 15.9264C17.7427 18.0464 16.0227 19.7864 13.8927 19.7864ZM13.8927 18.8164C15.5027 18.8164 16.7727 17.5564 16.7727 15.9264C16.7727 14.3264 15.5027 13.0464 13.8927 13.0464C12.2727 13.0464 11.0027 14.3264 11.0027 15.9264C11.0027 17.5564 12.2727 18.8164 13.8927 18.8164Z"
        fillRule="evenodd"
        clipRule="evenodd"
    />
</svg>
        