
<svg
    viewBox="0 0 26.78832578863162 28.73828125"
    xmlns="http://www.w3.org/2000/svg"
>
    <path
        fill="inherit"
        d="M3.1737 28.707H13.6137C13.5337 28.557 13.4537 28.407 13.3837 28.237L12.7437 26.507H3.2637C2.6437 26.507 2.2037 26.087 2.2037 25.427V8.927H21.5237V17.717C22.2737 17.527 23.0637 17.537 23.7237 17.757V3.267C23.7237 1.317 22.4537 -0.003 20.5637 -0.003H3.1737C1.2737 -0.003 0.0037 1.317 0.0037 3.267V25.457C0.0037 27.417 1.2737 28.707 3.1737 28.707ZM2.2037 3.297C2.2037 2.637 2.6437 2.197 3.2637 2.197H20.4537C21.0937 2.197 21.5237 2.637 21.5237 3.297V7.137H2.2037ZM5.1537 5.877C5.8237 5.877 6.3537 5.337 6.3537 4.667C6.3537 4.007 5.8237 3.457 5.1537 3.457C4.4937 3.457 3.9537 4.007 3.9537 4.667C3.9537 5.337 4.4937 5.877 5.1537 5.877ZM8.6437 5.877C9.3137 5.877 9.8437 5.337 9.8437 4.667C9.8437 4.007 9.3137 3.457 8.6437 3.457C7.9837 3.457 7.4537 4.007 7.4537 4.667C7.4537 5.337 7.9837 5.877 8.6437 5.877ZM15.7937 5.357H19.0537C19.4737 5.357 19.7437 5.087 19.7437 4.667C19.7437 4.247 19.4737 3.977 19.0537 3.977H15.7937C15.3837 3.977 15.1037 4.247 15.1037 4.667C15.1037 5.087 15.3837 5.357 15.7937 5.357ZM4.7037 17.717C4.7037 21.667 7.9037 24.867 11.8637 24.867C11.9637 24.867 12.0337 24.867 12.1237 24.867C11.9537 24.377 11.7837 23.887 11.6037 23.397C11.5837 23.397 11.5237 23.397 11.4937 23.397C9.1437 23.397 6.1837 21.097 6.1837 17.717C6.1837 14.557 8.7137 12.027 11.8637 12.027C14.9937 12.027 17.5437 14.557 17.5437 17.667C17.5437 17.737 17.5437 17.817 17.5237 17.887C18.0837 18.017 18.6337 18.247 18.9937 18.427C19.0137 18.197 19.0137 17.947 19.0137 17.717C19.0137 13.767 15.8137 10.557 11.8637 10.557C7.9037 10.557 4.7037 13.767 4.7037 17.717ZM16.4237 28.737H22.3637C23.0637 28.737 23.6637 28.337 23.9437 27.617L26.7137 20.137C26.9337 19.527 26.6337 19.077 26.2237 18.917C25.8037 18.767 25.2637 18.907 25.0337 19.507L24.8537 19.997C24.1537 19.687 23.5537 19.177 22.5337 19.177C20.9837 19.177 20.4837 20.207 19.4037 20.207C18.3237 20.207 17.8037 19.177 16.2537 19.177C15.2337 19.177 14.6437 19.687 13.9437 19.997L13.7537 19.507C13.5337 18.907 12.9837 18.767 12.5737 18.917C12.1537 19.077 11.8637 19.527 12.0837 20.137L14.8637 27.617C15.1237 28.337 15.7337 28.737 16.4237 28.737ZM19.4037 21.497C20.9637 21.497 21.3137 20.467 22.5337 20.467C23.2937 20.467 23.7237 20.887 24.4037 21.187L22.3937 26.577C22.3037 26.837 22.1337 26.947 21.9137 26.947H16.8737C16.6537 26.947 16.4837 26.837 16.3937 26.577L14.3837 21.187C15.0637 20.887 15.4937 20.467 16.2537 20.467C17.4737 20.467 17.8237 21.497 19.4037 21.497Z"
        fillRule="evenodd"
        clipRule="evenodd"
    />
</svg>
        