<svg viewBox="0 0 26.78832578863162 28.73828125" xmlns="http://www.w3.org/2000/svg"><path d="M20.5637 -0.003H3.1737C1.2737 -0.003 0.0037 1.317 0.0037 3.267V6.907H23.7237V3.267C23.7237 1.317 22.4537 -0.003 20.5637 -0.003ZM4.9537 5.347C4.2637 5.347 3.7037 4.767 3.7037 4.097C3.7037 3.407 4.2637 2.847 4.9537 2.847C5.6337 2.847 6.1837 3.407 6.1837 4.097C6.1837 4.767 5.6337 5.347 4.9537 5.347ZM8.5437 5.347C7.8637 5.347 7.3137 4.767 7.3137 4.097C7.3137 3.407 7.8637 2.847 8.5437 2.847C9.2237 2.847 9.7737 3.407 9.7737 4.097C9.7737 4.767 9.2237 5.347 8.5437 5.347ZM16.1837 4.817C15.7637 4.817 15.4937 4.527 15.4937 4.097C15.4937 3.667 15.7637 3.377 16.1837 3.377H19.5537C19.9837 3.377 20.2637 3.667 20.2637 4.097C20.2637 4.527 19.9837 4.817 19.5537 4.817ZM3.1737 28.707H13.6137C13.5237 28.547 13.4237 28.367 13.3537 28.177L12.4037 25.607C12.2337 25.617 12.0437 25.617 11.8637 25.617C7.7837 25.617 4.4737 22.317 4.4737 18.237C4.4737 14.167 7.7837 10.837 11.8637 10.837C15.9437 10.837 19.2537 14.167 19.2537 18.237C19.2537 18.337 19.2537 18.447 19.2337 18.557C19.2937 18.567 19.3137 18.567 19.4037 18.567C19.8937 18.567 21.0137 17.587 22.5437 17.587C23.0337 17.587 23.4437 17.667 23.7237 17.757V8.767H0.0037V25.457C0.0037 27.417 1.2737 28.707 3.1737 28.707ZM6.0037 18.237C6.0037 21.657 8.9037 24.117 11.8437 24.087L10.5837 20.697C10.0637 19.287 10.7437 17.887 12.0137 17.417C12.8937 17.107 13.8737 17.297 14.5637 17.927C14.9937 17.747 15.5437 17.587 16.2437 17.587C16.7337 17.587 17.2137 17.717 17.6737 17.907C17.6737 17.707 17.6637 17.497 17.6337 17.297C17.2037 14.497 14.7837 12.377 11.8637 12.377C8.6137 12.377 6.0037 14.987 6.0037 18.237ZM16.4237 28.737H22.3637C23.0637 28.737 23.6637 28.337 23.9437 27.617L26.7137 20.137C26.9337 19.527 26.6337 19.077 26.2237 18.917C25.8037 18.767 25.2637 18.907 25.0337 19.507L24.8537 19.997C24.1537 19.687 23.5537 19.177 22.5337 19.177C20.9837 19.177 20.4837 20.207 19.4037 20.207C18.3237 20.207 17.8037 19.177 16.2537 19.177C15.2337 19.177 14.6437 19.687 13.9437 19.997L13.7537 19.507C13.5337 18.907 12.9837 18.767 12.5737 18.917C12.1537 19.077 11.8637 19.527 12.0837 20.137L14.8637 27.617C15.1237 28.337 15.7337 28.737 16.4237 28.737ZM19.4037 21.497C20.9637 21.497 21.3137 20.467 22.5337 20.467C23.2937 20.467 23.7237 20.887 24.4037 21.187L22.3937 26.577C22.3037 26.837 22.1337 26.947 21.9137 26.947H16.8737C16.6537 26.947 16.4837 26.837 16.3937 26.577L14.3837 21.187C15.0637 20.887 15.4937 20.467 16.2537 20.467C17.4737 20.467 17.8237 21.497 19.4037 21.497Z" /></svg>