<svg viewBox="0 0 22.845703125 32.34765625" xmlns="http://www.w3.org/2000/svg"><path d="M6.7537 32.3313L14.7537 32.3513C15.6437 32.3513 16.2537 31.7613 16.2537 30.9113V25.4313C18.8537 23.9113 20.7237 21.3113 21.3137 18.2213H22.1637C22.5537 18.2213 22.8437 17.9413 22.8437 17.5313V14.7613C22.8437 14.3713 22.5537 14.0713 22.1637 14.0713H21.3137C20.7237 10.9913 18.8537 8.4112 16.2537 6.8813V1.4312C16.2537 0.5712 15.6437 0.0012 14.7537 0.0012L6.7537 0.0113C5.8837 0.0113 5.2537 0.5912 5.2537 1.4513V6.8813C2.0937 8.7413 0.0037 12.1713 0.0037 16.1613C0.0037 20.1513 2.0937 23.5813 5.2537 25.4313V30.9013C5.2537 31.7413 5.8837 32.3313 6.7537 32.3313ZM10.7637 24.8413C5.6037 24.8413 2.0637 21.3113 2.0637 16.1613C2.0637 11.0013 5.6037 7.4613 10.7637 7.4613C15.9037 7.4613 19.4437 11.0013 19.4437 16.1613C19.4437 21.3113 15.9037 24.8413 10.7637 24.8413ZM11.6237 16.9213L15.9937 13.1113C16.3837 12.7713 16.3837 12.1813 16.0137 11.8013C15.6637 11.4613 15.1037 11.4713 14.7137 11.8013L10.7637 15.2313L8.2737 13.1413C7.9037 12.8212 7.3237 12.8813 6.9837 13.2613C6.6537 13.6413 6.7137 14.2313 7.1137 14.5713L9.9137 16.9213C10.4837 17.4313 11.0637 17.4313 11.6237 16.9213Z" /></svg>