
<svg
    viewBox={0 0 28.73828125 21.232421875}
    xmlns="http://www.w3.org/2000/svg"
>
    <path
        fill="inherit"
        d="M14.3737 4.7078C18.0837 4.7078 18.6937 1.9278 20.8637 1.9278C23.0737 1.9278 23.4337 4.7078 27.7037 4.7078H27.7637C28.3037 4.7078 28.7337 4.2678 28.7337 3.7278C28.7337 3.1978 28.3037 2.7778 27.7637 2.7778H27.7037C26.2237 2.7778 25.4037 2.1578 24.3737 1.4378C23.4837 0.7978 22.3837 -0.0022 20.8637 -0.0022C19.2937 -0.0022 18.1737 0.8378 17.2837 1.5078C16.3337 2.2178 15.5837 2.7778 14.3737 2.7778C13.1437 2.7778 12.4037 2.2178 11.4537 1.5078C10.5637 0.8378 9.4437 -0.0022 7.8737 -0.0022C6.3537 -0.0022 5.2537 0.7978 4.3637 1.4378C3.3337 2.1578 2.5037 2.7778 1.0437 2.7778H0.9737C0.4237 2.7778 0.0037 3.1978 0.0037 3.7278C0.0037 4.2678 0.4237 4.7078 0.9737 4.7078H1.0437C5.2937 4.7078 5.6637 1.9278 7.8737 1.9278C10.0537 1.9278 10.6337 4.7078 14.3737 4.7078ZM14.3737 12.9578C18.0837 12.9578 18.6937 10.1878 20.8637 10.1878C23.0737 10.1878 23.4337 12.9578 27.7037 12.9578H27.7637C28.3037 12.9578 28.7337 12.5378 28.7337 12.0078C28.7337 11.4678 28.3037 11.0378 27.7637 11.0378H27.7037C26.2237 11.0378 25.4037 10.4278 24.3737 9.6978C23.4837 9.0478 22.3837 8.2578 20.8637 8.2578C19.2937 8.2578 18.1737 9.1078 17.2837 9.7578C16.3337 10.4678 15.5837 11.0378 14.3737 11.0378C13.1437 11.0378 12.4037 10.4678 11.4537 9.7578C10.5637 9.1078 9.4437 8.2578 7.8737 8.2578C6.3537 8.2578 5.2537 9.0478 4.3637 9.6978C3.3337 10.4278 2.5037 11.0378 1.0437 11.0378H0.9737C0.4237 11.0378 0.0037 11.4678 0.0037 12.0078C0.0037 12.5378 0.4237 12.9578 0.9737 12.9578H1.0437C5.2937 12.9578 5.6637 10.1878 7.8737 10.1878C10.0537 10.1878 10.6337 12.9578 14.3737 12.9578ZM14.3737 21.2278C18.0837 21.2278 18.6937 18.4578 20.8637 18.4578C23.0737 18.4578 23.4337 21.2278 27.7037 21.2278H27.7637C28.3037 21.2278 28.7337 20.7978 28.7337 20.2578C28.7337 19.7278 28.3037 19.3078 27.7637 19.3078H27.7037C26.2237 19.3078 25.4037 18.6878 24.3737 17.9678C23.4837 17.3078 22.3837 16.5278 20.8637 16.5278C19.2937 16.5278 18.1737 17.3678 17.2837 18.0178C16.3337 18.7478 15.5837 19.3078 14.3737 19.3078C13.1437 19.3078 12.4037 18.7478 11.4537 18.0178C10.5637 17.3678 9.4437 16.5278 7.8737 16.5278C6.3537 16.5278 5.2537 17.3078 4.3637 17.9678C3.3337 18.6878 2.5037 19.3078 1.0437 19.3078H0.9737C0.4237 19.3078 0.0037 19.7278 0.0037 20.2578C0.0037 20.7978 0.4237 21.2278 0.9737 21.2278H1.0437C5.2937 21.2278 5.6637 18.4578 7.8737 18.4578C10.0537 18.4578 10.6337 21.2278 14.3737 21.2278Z"
        fillRule="evenodd"
        clipRule="evenodd"
    />
</svg>
        