
<svg
    viewBox="0 0 28.73828125 26.446554212405378"
    xmlns="http://www.w3.org/2000/svg"
>
    <path
        fill="inherit"
        d="M25.7437 26.1438C26.1537 26.5538 26.8337 26.5538 27.2337 26.1438C27.6337 25.7138 27.6437 25.0638 27.2337 24.6438L2.8937 0.3138C2.4837 -0.0962 1.8037 -0.1062 1.3937 0.3138C0.9937 0.7138 0.9937 1.4038 1.3937 1.8038ZM14.3737 7.3038C18.0837 7.3038 18.6937 4.5238 20.8637 4.5238C23.0737 4.5238 23.4337 7.3038 27.7037 7.3038H27.7637C28.3037 7.3038 28.7337 6.8638 28.7337 6.3238C28.7337 5.7938 28.3037 5.3738 27.7637 5.3738H27.7037C26.2237 5.3738 25.4037 4.7538 24.3737 4.0338C23.4837 3.3938 22.3837 2.5938 20.8637 2.5938C19.2937 2.5938 18.1737 3.4338 17.2837 4.1038C16.3337 4.8138 15.5837 5.3738 14.3737 5.3738C13.1437 5.3738 12.4037 4.8138 11.4537 4.1038C10.5637 3.4338 9.4437 2.5938 7.8737 2.5938C7.7237 2.5938 7.5837 2.6138 7.4637 2.6338L11.3037 6.4638C12.3837 6.5638 13.0337 7.3038 14.3737 7.3038ZM20.8637 12.7838C23.0737 12.7838 23.4337 15.5538 27.7037 15.5538H27.7637C28.3037 15.5538 28.7337 15.1338 28.7337 14.6038C28.7337 14.0638 28.3037 13.6338 27.7637 13.6338H27.7037C26.2237 13.6338 25.4037 13.0238 24.3737 12.2938C23.4837 11.6438 22.3837 10.8538 20.8637 10.8538C19.2637 10.8538 18.1937 11.7138 17.2237 12.3838L18.6337 13.8038C19.3337 13.2838 19.9337 12.7838 20.8637 12.7838ZM0.0037 14.6038C0.0037 15.1338 0.4237 15.5538 0.9737 15.5538H1.0437C5.2937 15.5538 5.6637 12.7838 7.8737 12.7838C9.5137 12.7838 10.2537 14.3938 12.1537 15.1638L7.9537 10.9538C7.6837 10.9038 7.4137 10.8838 7.1137 10.9238C6.0937 11.0838 5.1537 11.7138 4.3637 12.2938C3.3337 13.0238 2.5037 13.6338 1.0437 13.6338H0.9737C0.4237 13.6338 0.0037 14.0638 0.0037 14.6038ZM14.3737 23.8238C16.8537 23.8238 17.9337 22.5538 19.1037 21.7638L17.6737 20.3438C16.6837 21.0438 15.7537 21.9038 14.3737 21.9038C13.1437 21.9038 12.4037 21.3438 11.4537 20.6138C10.5637 19.9638 9.4437 19.1238 7.8737 19.1238C6.3537 19.1238 5.2537 19.9038 4.3637 20.5638C3.3337 21.2838 2.5037 21.9038 1.0437 21.9038H0.9737C0.4237 21.9038 0.0037 22.3238 0.0037 22.8538C0.0037 23.3938 0.4237 23.8238 0.9737 23.8238H1.0437C5.2937 23.8238 5.6637 21.0538 7.8737 21.0538C10.0537 21.0538 10.6337 23.8238 14.3737 23.8238Z"
        fillRule="evenodd"
        clipRule="evenodd"
    />
</svg>
        