
<svg
    viewBox="0 0 28.73828125 23.4609375"
    xmlns="http://www.w3.org/2000/svg"
>
    <path
        fill="inherit"
        d="M0.0037 3.7312C0.0037 4.2613 0.4237 4.7013 0.9737 4.7013H1.0437C5.2937 4.7013 5.6637 1.9312 7.8737 1.9312C10.0537 1.9312 10.6337 4.7013 14.3737 4.7013C18.0837 4.7013 18.6937 1.9312 20.8637 1.9312C23.0737 1.9312 23.4337 4.7013 27.7037 4.7013H27.7637C28.3037 4.7013 28.7337 4.2613 28.7337 3.7312C28.7337 3.2013 28.3037 2.7712 27.7637 2.7712H27.7037C26.2237 2.7712 25.4037 2.1612 24.3737 1.4312C23.4837 0.7913 22.3837 0.0012 20.8637 0.0012C19.2937 0.0012 18.1737 0.8313 17.2837 1.5012C16.3337 2.2112 15.5837 2.7712 14.3737 2.7712C13.1437 2.7712 12.4037 2.2112 11.4537 1.5012C10.5637 0.8313 9.4437 0.0012 7.8737 0.0012C6.3537 0.0012 5.2537 0.7913 4.3637 1.4312C3.3337 2.1612 2.5037 2.7712 1.0437 2.7712H0.9737C0.4237 2.7712 0.0037 3.2013 0.0037 3.7312ZM10.7637 13.9413H13.2737V22.3913C13.2737 22.9713 13.7637 23.4613 14.3537 23.4613C14.9437 23.4613 15.4537 22.9713 15.4537 22.3913V13.9413H17.9537C18.8137 13.9413 19.1637 13.1013 18.6737 12.4513L15.1637 7.8513C14.6737 7.2213 14.0537 7.2013 13.5537 7.8513L10.0337 12.4413C9.5337 13.1013 9.8837 13.9413 10.7637 13.9413ZM7.8737 8.5313C6.3537 8.5313 5.2537 9.3212 4.3637 9.9713C3.3337 10.7013 2.5037 11.3113 1.0437 11.3113H0.9737C0.4237 11.3113 0.0037 11.7413 0.0037 12.2813C0.0037 12.8113 0.4237 13.2313 0.9737 13.2313H1.0437C5.2937 13.2313 5.6637 10.4613 7.8737 10.4613C8.3137 10.4613 8.6437 10.6113 8.9537 10.7713L10.1737 9.2013C9.5137 8.8313 8.7737 8.5313 7.8737 8.5313ZM27.7637 11.3113H27.7037C26.2237 11.3113 25.4037 10.7013 24.3737 9.9713C23.4837 9.3212 22.3837 8.5313 20.8637 8.5313C19.9437 8.5313 19.2137 8.8313 18.5437 9.2113L19.7537 10.7913C20.0837 10.5913 20.4137 10.4613 20.8637 10.4613C23.0737 10.4613 23.4337 13.2313 27.7037 13.2313H27.7637C28.3037 13.2313 28.7337 12.8113 28.7337 12.2813C28.7337 11.7413 28.3037 11.3113 27.7637 11.3113Z"
        fillRule="evenodd"
        clipRule="evenodd"
    />
</svg>
        