
<svg
    viewBox="0 0 15.6953125 32.484375"
    xmlns="http://www.w3.org/2000/svg"
>
    <path
        fill="inherit"
        d="M15.6937 27.8133V10.7433C15.6937 8.8833 15.4237 7.5733 14.4337 6.1933L12.4237 3.3733C12.7937 3.1833 13.0437 2.7933 13.0437 2.2933V1.2133C13.0437 0.5033 12.5237 0.0033 11.8237 0.0033H3.8737C3.1437 0.0033 2.6537 0.5033 2.6537 1.2133V2.2933C2.6537 2.7933 2.8837 3.1733 3.2537 3.3733L1.2337 6.1933C0.2437 7.5733 0.0037 8.8833 0.0037 10.7433V27.8133C0.0037 30.8133 1.5037 32.4833 4.2337 32.4833H11.4437C14.1637 32.4833 15.6937 30.8133 15.6937 27.8133ZM3.1137 7.3433L5.8137 3.5133H9.8537L12.5637 7.3433C13.3037 8.4033 13.4637 9.0933 13.4937 10.4433H2.2037C2.2137 9.0933 2.3637 8.4033 3.1137 7.3433ZM2.2037 25.5833V12.1633H13.4937V25.5833ZM7.8337 23.3133C9.7637 23.3133 11.0037 22.0833 11.0037 20.2433C11.0037 19.2733 10.6137 18.5133 10.3637 18.0333C9.8837 16.9233 9.0337 15.5333 8.3237 14.4633C8.1937 14.2433 8.0237 14.1333 7.8337 14.1333C7.6537 14.1333 7.4937 14.2433 7.3437 14.4633C6.6337 15.5333 5.8137 16.9233 5.3037 18.0333C5.0837 18.5133 4.6637 19.2733 4.6637 20.2433C4.6637 22.0833 5.9237 23.3133 7.8337 23.3133ZM4.2337 30.2833C2.8937 30.2833 2.2037 29.4333 2.2037 27.8133V27.3033H13.4937V27.8133C13.4937 29.4333 12.7837 30.2833 11.4437 30.2833Z"
        fillRule="evenodd"
        clipRule="evenodd"
    />
</svg>
        