
<svg
    viewBox={0 0 27.890625 27.890625}
    xmlns="http://www.w3.org/2000/svg"
>
    <path
        fill="inherit"
        d="M13.9427 27.8864C21.6427 27.8864 27.8927 21.6464 27.8927 13.9464C27.8927 6.2464 21.6427 -0.0036 13.9427 -0.0036C6.2527 -0.0036 0.0027 6.2464 0.0027 13.9464C0.0027 21.6464 6.2527 27.8864 13.9427 27.8864ZM13.9427 25.5664C7.5227 25.5664 2.3227 20.3664 2.3227 13.9464C2.3227 7.5164 7.5227 2.3264 13.9427 2.3264C20.3727 2.3264 25.5627 7.5164 25.5627 13.9464C25.5627 20.3664 20.3727 25.5664 13.9427 25.5664ZM13.9327 8.1664C10.8027 8.1664 7.7527 9.0964 5.3627 10.7564C4.9127 11.1064 4.8027 11.6664 5.0827 12.0864C5.4027 12.5264 5.9727 12.5964 6.4227 12.2664C8.4927 10.8264 11.1827 9.9964 13.9327 9.9964C16.7027 9.9964 19.3827 10.8164 21.4327 12.2664C21.9027 12.5964 22.4627 12.5264 22.7727 12.0864C23.0927 11.6464 22.9727 11.0864 22.5127 10.7564C20.0827 9.0964 17.0627 8.1664 13.9327 8.1664ZM13.9327 12.4364C11.6527 12.4364 9.4427 13.1064 7.7427 14.3264C7.3027 14.6564 7.1927 15.2064 7.5027 15.6364C7.7827 16.0464 8.3627 16.1464 8.8427 15.8164C10.1827 14.8464 12.0327 14.2964 13.9327 14.2964C15.8427 14.2964 17.6827 14.8464 19.0327 15.8164C19.5127 16.1464 20.0827 16.0464 20.3727 15.6364C20.6727 15.2064 20.5727 14.6564 20.1227 14.3264C18.4727 13.1064 16.2527 12.4364 13.9327 12.4364ZM13.9327 16.7164C12.4927 16.7164 11.0927 17.1464 10.1327 17.8664C9.7027 18.1664 9.5827 18.7464 9.8727 19.1664C10.2027 19.6364 10.7827 19.7164 11.2827 19.3564C11.9327 18.8664 12.9327 18.5764 13.9327 18.5764C14.9527 18.5764 15.9527 18.8664 16.5927 19.3564C17.0927 19.7264 17.6827 19.6464 18.0027 19.1664C18.2827 18.7464 18.1727 18.1864 17.7427 17.8664C16.7527 17.1464 15.3227 16.7164 13.9327 16.7164Z"
        fillRule="evenodd"
        clipRule="evenodd"
    />
</svg>
        