
<svg
    viewBox={0 0 27.890625 27.890625}
    xmlns="http://www.w3.org/2000/svg"
>
    <path
        fill="inherit"
        d="M13.9427 27.8927C21.6427 27.8927 27.8927 21.6427 27.8927 13.9427C27.8927 6.2627 21.6427 0.0027 13.9427 0.0027C6.2627 0.0027 0.0027 6.2627 0.0027 13.9427C0.0027 21.6427 6.2627 27.8927 13.9427 27.8927ZM19.8627 13.9427C19.8627 17.1727 18.9227 20.3127 17.1827 22.7727C16.8427 23.2527 16.2527 23.3627 15.8327 23.0627C15.3827 22.7227 15.3027 22.1527 15.6227 21.6827C17.1327 19.5527 17.9627 16.7727 17.9627 13.9427C17.9627 11.0727 17.1427 8.3227 15.6227 6.2027C15.3027 5.7327 15.3827 5.1527 15.8327 4.8227C16.2727 4.5027 16.8527 4.6027 17.1827 5.1027C18.9227 7.6027 19.8627 10.7227 19.8627 13.9427ZM15.4627 13.9427C15.4627 16.2827 14.7627 18.5627 13.5127 20.3327C13.1627 20.7827 12.6027 20.9027 12.1727 20.5727C11.7327 20.2727 11.6227 19.6727 11.9627 19.1827C12.9627 17.8027 13.5327 15.9027 13.5327 13.9427C13.5327 11.9727 12.9627 10.0727 11.9627 8.6927C11.6227 8.2027 11.7327 7.6027 12.1727 7.3027C12.6027 6.9827 13.1627 7.0927 13.5127 7.5627C14.7627 9.2727 15.4627 11.5527 15.4627 13.9427ZM11.0427 13.9427C11.0427 15.4227 10.6127 16.8827 9.8727 17.8727C9.5527 18.3027 8.9727 18.4327 8.5327 18.1327C8.0527 17.7727 7.9527 17.1827 8.3127 16.6827C8.8227 15.9827 9.1227 14.9727 9.1227 13.9427C9.1227 12.8827 8.8227 11.8627 8.3127 11.1927C7.9427 10.6927 8.0427 10.0727 8.5327 9.7327C8.9727 9.4427 9.5427 9.5727 9.8727 9.9927C10.6127 11.0427 11.0427 12.5127 11.0427 13.9427Z"
        fillRule="evenodd"
        clipRule="evenodd"
    />
</svg>
        