
<svg
    viewBox={0 0 51.84375 21.73828125}
    xmlns="http://www.w3.org/2000/svg"
>
    <path
        fill="inherit"
        d="M3.4837 19.3763H5.1937C5.1037 18.9463 5.0337 18.5363 5.0337 18.0863C5.0337 15.1763 7.3837 12.8363 10.2837 12.8363C13.1937 12.8363 15.5337 15.1763 15.5337 18.0863C15.5337 18.5363 15.4737 18.9663 15.3837 19.3763H34.0537C33.9437 18.9463 33.8937 18.5363 33.8937 18.0863C33.8937 15.1863 36.2437 12.8363 39.1437 12.8363C42.0537 12.8363 44.3937 15.1763 44.3937 18.0863C44.3937 18.5363 44.3337 18.9463 44.2237 19.3763H48.3737C50.5437 19.3763 51.8437 18.0363 51.8437 15.8063V10.4363C51.8437 8.2063 50.5437 6.8663 48.3737 6.8663H37.2237L36.9037 4.0763C36.5837 1.3663 35.0637 -0.0037 32.3737 -0.0037H26.8537C22.4537 -0.0037 19.7437 0.6863 16.7037 2.5963L11.1137 6.0963L6.0137 6.8763C1.8737 7.5063 0.0037 9.2863 0.0037 12.4963V15.8063C0.0037 18.0363 1.3137 19.3763 3.4837 19.3763ZM25.1037 7.5363C23.9137 7.5363 22.7337 7.1763 21.9437 6.5763C21.5737 6.3263 21.4937 5.8363 21.7337 5.4663C22.0237 5.0963 22.5037 5.0163 22.9137 5.3063C23.4637 5.7163 24.2837 5.9563 25.1037 5.9563C25.9537 5.9563 26.7537 5.7163 27.2937 5.3063C27.7037 5.0063 28.2037 5.0863 28.4637 5.4663C28.6937 5.8363 28.6137 6.3163 28.2637 6.5763C27.4237 7.1763 26.2637 7.5363 25.1037 7.5363ZM25.1037 11.0563C23.2137 11.0563 21.3837 10.4963 19.9837 9.4863C19.6037 9.2163 19.5237 8.7663 19.7737 8.3963C20.0137 8.0563 20.5037 7.9463 20.9137 8.2263C22.0137 9.0263 23.5337 9.4863 25.1037 9.4863C26.6637 9.4863 28.1737 9.0263 29.2837 8.2263C29.6937 7.9463 30.1837 8.0563 30.4237 8.3963C30.6837 8.7663 30.5837 9.2163 30.2137 9.4863C28.8437 10.4963 27.0137 11.0563 25.1037 11.0563ZM25.1037 14.5763C22.5037 14.5763 19.9837 13.8263 18.0237 12.4463C17.6337 12.1563 17.5437 11.6663 17.8037 11.3163C18.0637 10.9463 18.5237 10.8963 18.9237 11.1663C20.6137 12.3563 22.8437 13.0263 25.1037 13.0263C27.3837 13.0263 29.5837 12.3763 31.2837 11.1663C31.6637 10.8963 32.1437 10.9663 32.4037 11.3163C32.6637 11.6863 32.5837 12.1663 32.1737 12.4463C30.1737 13.8263 27.6737 14.5763 25.1037 14.5763ZM10.2837 21.7363C12.3337 21.7363 13.9437 20.1263 13.9437 18.0863C13.9437 16.0463 12.3137 14.4263 10.2837 14.4263C8.2537 14.4263 6.6337 16.0463 6.6337 18.0863C6.6337 20.1063 8.2537 21.7363 10.2837 21.7363ZM39.1437 21.7363C41.1837 21.7363 42.8037 20.1063 42.8037 18.0863C42.8037 16.0463 41.1837 14.4263 39.1437 14.4263C37.1237 14.4263 35.4737 16.0663 35.4737 18.0863C35.4737 20.1063 37.1037 21.7363 39.1437 21.7363Z"
        fillRule="evenodd"
        clipRule="evenodd"
    />
</svg>
        