<svg viewBox="0 0 33.537109375 31.1513671875" xmlns="http://www.w3.org/2000/svg"><path d="M0.9809 17.9123H4.9909C5.3609 17.9123 5.7009 17.6923 5.8009 17.3023L6.1909 15.5323L8.1209 24.4623C8.3009 25.2823 9.6409 25.2823 9.7609 24.4523L11.4309 13.4823L13.3809 30.3923C13.5109 31.4123 14.9609 31.3923 15.0409 30.3923L16.8309 10.2323L18.6309 30.3823C18.7209 31.4123 20.1709 31.4123 20.2909 30.3823L22.2409 13.4823L23.9109 24.4623C24.0309 25.2923 25.3709 25.2923 25.5509 24.4623L27.4509 15.6423L27.8809 17.3023C28.0009 17.7523 28.3109 17.9123 28.6809 17.9123H32.5709C33.1109 17.9123 33.5409 17.4923 33.5409 16.9523C33.5409 16.4223 33.1109 15.9823 32.5709 15.9823H29.2809L28.1909 11.7523C27.9409 10.8323 26.7509 10.8323 26.5509 11.7523L24.8709 19.7323L22.9409 7.1423C22.7909 6.1423 21.4109 6.1723 21.2909 7.1523L19.5609 22.0923L17.6809 0.7723C17.5809 -0.2577 16.0909 -0.2577 16.0009 0.7723L14.1109 22.0923L12.3909 7.1523C12.2609 6.1423 10.8809 6.1423 10.7309 7.1423L8.8009 19.7323L7.1209 11.7523C6.9309 10.9023 5.7109 10.9023 5.4809 11.7523L4.3909 15.9823H0.9809C0.4209 15.9823 0.0009 16.4223 0.0009 16.9523C0.0009 17.4923 0.4209 17.9123 0.9809 17.9123Z" /></svg>