
<svg
    viewBox="0 0 48.494140625 22.216796875"
    xmlns="http://www.w3.org/2000/svg"
>
    <path
        fill="inherit"
        d="M3.4837 19.0963H6.4537C7.0837 20.9363 8.7937 22.2163 10.8737 22.2163C12.9437 22.2163 14.6737 20.9363 15.3037 19.0963H34.0737C34.7037 20.9363 36.4037 22.2163 38.4837 22.2163C40.5637 22.2163 42.2837 20.9363 42.9137 19.0963H45.0237C47.4137 19.0963 48.4937 17.8663 48.4937 15.1663V9.3263C48.4937 7.6163 47.8637 5.6563 46.7837 4.1063L46.1737 3.1963C44.5937 0.9163 42.6737 -0.0037 39.4937 -0.0037H28.8237C23.1837 -0.0037 20.9337 0.5463 17.5837 2.6363L12.0737 6.0963L6.9737 6.7263C2.3137 7.2963 0.0037 9.4363 0.0037 13.1763V15.5263C0.0037 17.7563 1.3137 19.0963 3.4837 19.0963ZM38.4837 12.8663C36.0837 12.8663 34.1637 14.5863 33.8537 16.8963H15.5037C15.2037 14.5863 13.2737 12.8663 10.8737 12.8663C8.4637 12.8663 6.5337 14.5863 6.2337 16.8963H3.6137C2.7237 16.8963 2.2037 16.2963 2.2037 15.2563V13.1763C2.2037 10.7363 3.8437 9.3563 7.2637 8.9163L12.8237 8.2163L18.7537 4.5263C21.7837 2.6363 23.5737 2.1963 28.8237 2.1963H39.4937C41.8637 2.1963 43.2337 2.8563 44.3537 4.4563L44.9637 5.3463C45.8037 6.5463 46.2937 8.0263 46.2937 9.3263V15.2963C46.2937 16.3963 45.8737 16.8963 44.8937 16.8963H43.1237C42.8237 14.5863 40.8937 12.8663 38.4837 12.8663ZM25.5237 7.6163C26.6337 7.6163 27.7837 7.2563 28.5837 6.6863C28.9337 6.4363 29.0237 5.9763 28.7937 5.6163C28.5337 5.2363 28.0537 5.1663 27.6437 5.4663C27.1437 5.8663 26.3437 6.0963 25.5237 6.0963C24.7337 6.0963 23.9237 5.8663 23.4037 5.4663C23.0137 5.1863 22.5337 5.2463 22.2537 5.6163C22.0237 5.9763 22.1037 6.4363 22.4637 6.6863C23.2437 7.2563 24.3737 7.6163 25.5237 7.6163ZM25.5237 11.0363C27.3837 11.0363 29.1637 10.4963 30.4837 9.5063C30.8437 9.2563 30.9437 8.8063 30.6837 8.4463C30.4637 8.1163 29.9737 8.0263 29.6037 8.2963C28.5037 9.0663 27.0437 9.5163 25.5237 9.5163C24.0037 9.5163 22.5337 9.0663 21.4637 8.2963C21.0637 8.0263 20.6037 8.1163 20.3737 8.4463C20.1237 8.8063 20.1937 9.2563 20.5637 9.5063C21.9137 10.4963 23.7037 11.0363 25.5237 11.0363ZM25.5237 14.4463C28.0237 14.4463 30.4437 13.7163 32.3937 12.3763C32.7737 12.0963 32.8537 11.6463 32.6237 11.2963C32.3637 10.9463 31.8837 10.8863 31.5237 11.1463C29.8837 12.3063 27.7437 12.9563 25.5237 12.9563C23.3337 12.9563 21.1737 12.3063 19.5337 11.1463C19.1537 10.8863 18.7037 10.9363 18.4437 11.2963C18.1937 11.6163 18.2837 12.0963 18.6437 12.3763C20.5737 13.7163 23.0137 14.4463 25.5237 14.4463ZM10.8737 20.0163C9.4737 20.0163 8.3937 18.9363 8.3937 17.5363C8.3937 16.1463 9.4737 15.0663 10.8737 15.0663C12.2637 15.0663 13.3437 16.1463 13.3437 17.5363C13.3437 18.9363 12.2637 20.0163 10.8737 20.0163ZM38.4837 20.0163C37.0937 20.0163 36.0137 18.9363 36.0137 17.5363C36.0137 16.1463 37.0937 15.0663 38.4837 15.0663C39.8837 15.0663 40.9637 16.1463 40.9637 17.5363C40.9637 18.9363 39.8837 20.0163 38.4837 20.0163Z"
        fillRule="evenodd"
        clipRule="evenodd"
    />
</svg>
        