
<svg
    viewBox="0 0 27.890625 27.890625"
    xmlns="http://www.w3.org/2000/svg"
>
    <path
        fill="inherit"
        d="M13.9427 27.8927C21.6427 27.8927 27.8927 21.6427 27.8927 13.9427C27.8927 6.2627 21.6427 0.0027 13.9427 0.0027C6.2627 0.0027 0.0027 6.2627 0.0027 13.9427C0.0027 21.6427 6.2627 27.8927 13.9427 27.8927ZM12.5227 21.7427C12.0327 21.7427 11.6627 21.3827 11.6627 20.8927V6.9827C11.6627 6.5127 12.0427 6.1427 12.5227 6.1427C12.9927 6.1427 13.3527 6.5127 13.3527 6.9827V20.8927C13.3527 21.3727 12.9927 21.7427 12.5227 21.7427ZM18.2427 19.7727C17.7427 19.7727 17.3727 19.4027 17.3727 18.9327V8.9427C17.3727 8.4727 17.7427 8.0927 18.2427 8.0927C18.7127 8.0927 19.0827 8.4727 19.0827 8.9427V18.9327C19.0827 19.4027 18.7127 19.7727 18.2427 19.7727ZM9.6527 18.4327C9.1727 18.4327 8.8027 18.0627 8.8027 17.5527V10.2927C8.8027 9.8127 9.1727 9.4427 9.6527 9.4427C10.1427 9.4427 10.5127 9.8127 10.5127 10.2927V17.5527C10.5127 18.0627 10.1427 18.4327 9.6527 18.4327ZM15.3627 17.1427C14.9027 17.1427 14.5227 16.7727 14.5227 16.2927V11.5627C14.5227 11.1027 14.9027 10.7327 15.3627 10.7327C15.8427 10.7327 16.2127 11.1027 16.2127 11.5627V16.2927C16.2127 16.7727 15.8427 17.1427 15.3627 17.1427ZM21.1127 16.5827C20.6127 16.5827 20.2527 16.2127 20.2527 15.7327V12.1427C20.2527 11.6627 20.6127 11.2827 21.1127 11.2827C21.5927 11.2827 21.9427 11.6527 21.9427 12.1427V15.7327C21.9427 16.2327 21.5927 16.5827 21.1127 16.5827ZM6.7827 16.0227C6.3327 16.0227 5.9427 15.6527 5.9427 15.1627V12.6827C5.9427 12.2227 6.3127 11.8527 6.7827 11.8527C7.2727 11.8527 7.6427 12.2227 7.6427 12.6827V15.1627C7.6427 15.6527 7.2727 16.0227 6.7827 16.0227Z"
        fillRule="evenodd"
        clipRule="evenodd"
    />
</svg>
        