
<svg
    viewBox={0 0 19.73758015109814 32.48481839788968}
    xmlns="http://www.w3.org/2000/svg"
>
    <path
        fill="inherit"
        d="M0.0027 16.2337C0.0027 22.0037 1.8027 27.3937 5.0027 31.8637C6.0427 33.2837 7.9827 32.0137 6.9427 30.5937C3.9527 26.4737 2.3527 21.5237 2.3527 16.2337C2.3527 10.9437 3.9527 5.9837 6.9427 1.8637C8.0127 0.4337 5.9927 -0.7763 5.0027 0.6137C1.8027 5.0637 0.0027 10.4537 0.0027 16.2337ZM7.4527 16.2337C7.4527 20.5337 8.8027 24.5537 11.2427 27.8137C12.3227 29.2937 14.2327 27.8837 13.1927 26.5437C10.9827 23.6237 9.7927 20.0537 9.7927 16.2337C9.7927 12.4237 10.9827 8.8537 13.1927 5.9237C14.2327 4.5837 12.3227 3.1837 11.2427 4.6437C8.8027 7.9137 7.4527 11.9437 7.4527 16.2337ZM14.8727 16.2337C14.8727 19.0537 15.8427 21.6737 17.5727 23.7137C18.6927 25.0437 20.3427 23.5337 19.5127 22.4537C17.8527 20.3837 17.2127 18.6437 17.2127 16.2337C17.2127 13.8337 17.8527 12.0937 19.5127 10.0137C20.3427 8.9237 18.7027 7.4037 17.5727 8.7437C15.8427 10.7937 14.8727 13.4237 14.8727 16.2337Z"
        fillRule="evenodd"
        clipRule="evenodd"
    />
</svg>
        