
<svg
    viewBox={0 0 27.890625 27.890625}
    xmlns="http://www.w3.org/2000/svg"
>
    <path
        fill="inherit"
        d="M13.9427 27.8864C21.6427 27.8864 27.8927 21.6464 27.8927 13.9464C27.8927 6.2464 21.6427 -0.0036 13.9427 -0.0036C6.2527 -0.0036 0.0027 6.2464 0.0027 13.9464C0.0027 21.6464 6.2527 27.8864 13.9427 27.8864ZM13.9427 25.5664C7.5227 25.5664 2.3227 20.3664 2.3227 13.9464C2.3227 7.5164 7.5227 2.3264 13.9427 2.3264C20.3727 2.3264 25.5627 7.5164 25.5627 13.9464C25.5627 20.3664 20.3727 25.5664 13.9427 25.5664ZM12.5527 21.5064C13.0027 21.5064 13.3527 21.1464 13.3527 20.6764V7.1864C13.3527 6.7264 13.0027 6.3664 12.5527 6.3664C12.0827 6.3664 11.7127 6.7264 11.7127 7.1864V20.6764C11.7127 21.1664 12.0727 21.5064 12.5527 21.5064ZM18.0927 19.5964C18.5527 19.5964 18.9127 19.2364 18.9127 18.7764V9.0964C18.9127 8.6264 18.5527 8.2764 18.0927 8.2764C17.6227 8.2764 17.2627 8.6264 17.2627 9.0964V18.7764C17.2627 19.2364 17.6227 19.5964 18.0927 19.5964ZM9.7727 18.2964C10.2427 18.2964 10.5927 17.9264 10.5927 17.4564V10.3864C10.5927 9.9264 10.2427 9.5664 9.7727 9.5664C9.3127 9.5664 8.9527 9.9264 8.9527 10.3864V17.4564C8.9527 17.9264 9.3127 18.2964 9.7727 18.2964ZM15.3127 17.0364C15.7727 17.0364 16.1327 16.6764 16.1327 16.2264V11.6364C16.1327 11.1864 15.7727 10.8164 15.3127 10.8164C14.8627 10.8164 14.4927 11.1864 14.4927 11.6364V16.2264C14.4927 16.6764 14.8627 17.0364 15.3127 17.0364ZM20.8727 16.5064C21.3427 16.5064 21.6827 16.1564 21.6827 15.6864V12.1864C21.6827 11.7064 21.3427 11.3564 20.8727 11.3564C20.4027 11.3564 20.0427 11.7164 20.0427 12.1864V15.6864C20.0427 16.1464 20.4027 16.5064 20.8727 16.5064ZM6.9827 15.9564C7.4627 15.9564 7.8227 15.5864 7.8227 15.1364V12.7264C7.8227 12.2764 7.4627 11.9064 6.9827 11.9064C6.5327 11.9064 6.1827 12.2764 6.1827 12.7264V15.1364C6.1827 15.5864 6.5527 15.9564 6.9827 15.9564Z"
        fillRule="evenodd"
        clipRule="evenodd"
    />
</svg>
        