
<svg
    viewBox="0 0 32.23828125 25.169921875"
    xmlns="http://www.w3.org/2000/svg"
>
    <path
        fill="inherit"
        d="M7.3837 6.0392L4.9337 12.0292H0.0037V4.2392C0.0037 1.4192 1.4337 -0.0008 4.2937 -0.0008H27.9437C30.8137 -0.0008 32.2337 1.4192 32.2337 4.2392V12.0292H26.8237C26.2737 12.0292 25.9937 12.2892 25.8137 12.7692L24.8037 15.6292L21.6137 5.9992C21.3837 5.2592 20.2637 5.2492 19.9437 6.0392L17.4837 12.0292H14.2737C13.7137 12.0292 13.4237 12.2892 13.2637 12.7692L12.2337 15.6292L9.0637 5.9992C8.8137 5.2592 7.7137 5.2492 7.3837 6.0392ZM4.2937 25.1692C1.4337 25.1692 0.0037 23.7592 0.0037 20.9492V13.7992H5.2237C6.0437 13.7992 6.3037 13.5392 6.5037 13.0592L8.2337 8.8592L11.4137 19.0492C11.6437 19.7992 12.8537 19.7692 13.0937 18.9992L14.7537 13.7992H17.9737C18.5437 13.7992 18.8037 13.5392 18.9937 13.0592L20.7937 8.8592L23.9637 19.0492C24.2037 19.7992 25.4137 19.7692 25.6637 18.9992L27.3137 13.7992H32.2337V20.9492C32.2337 23.7592 30.8137 25.1692 27.9437 25.1692Z"
        fillRule="evenodd"
        clipRule="evenodd"
    />
</svg>
        