<svg viewBox="0 0 32.482086585375384 19.736382643111376" xmlns="http://www.w3.org/2000/svg"><path d="M16.2519 -0.0006C10.4719 -0.0006 5.0819 1.8094 0.6319 4.9994C-0.8081 6.0394 0.4819 7.9794 1.8819 6.9494C6.0019 3.9494 10.9619 2.3394 16.2519 2.3394C21.5419 2.3394 26.4919 3.9494 30.6119 6.9494C32.0419 7.9994 33.2519 5.9894 31.8819 4.9994C27.4119 1.8094 22.0219 -0.0006 16.2519 -0.0006ZM16.2519 7.4494C11.9619 7.4494 7.9319 8.7894 4.6619 11.2294C3.2019 12.3194 4.6019 14.2294 5.9419 13.1894C8.8719 10.9794 12.4319 9.7894 16.2519 9.7894C20.0719 9.7894 23.6419 10.9794 26.5619 13.1894C27.9019 14.2294 29.3119 12.3194 27.8319 11.2294C24.5719 8.7894 20.5519 7.4494 16.2519 7.4494ZM16.2519 14.8794C13.4419 14.8794 10.8019 15.8494 8.7619 17.5694C7.4319 18.6794 8.9419 20.3394 10.0219 19.4994C12.1019 17.8594 13.8319 17.2094 16.2519 17.2094C18.6619 17.2094 20.3819 17.8594 22.4719 19.5094C23.5519 20.3394 25.0919 18.6894 23.7319 17.5694C21.6919 15.8494 19.0719 14.8794 16.2519 14.8794Z" /></svg>