
<svg
    viewBox="0 0 50.39453125 22.19955604478853"
    xmlns="http://www.w3.org/2000/svg"
>
    <path
        fill="inherit"
        d="M2.9837 19.4556L5.8237 19.7756C6.6537 21.2456 8.2137 22.1956 10.0637 22.1956C12.1137 22.1956 13.8337 20.9856 14.5637 19.2156H35.8437C36.5537 20.9856 38.2837 22.1956 40.3437 22.1956C42.5637 22.1956 44.3937 20.7956 44.9937 18.7956L46.4837 18.6356C49.1237 18.3556 50.3937 16.8956 50.3937 14.1756V11.7956C50.3937 8.5556 49.1937 7.1856 46.1037 6.5956L38.1037 5.0556C37.3137 4.9056 36.5737 4.8456 35.8237 4.9056L20.3837 5.8356L26.0537 2.0156C27.3037 1.1856 26.0837 -0.6644 24.7437 0.2456L15.9837 6.0956L6.6737 7.8456C2.2237 8.6756 0.0037 10.7256 0.0037 14.3356V16.1556C0.0037 18.2056 0.9137 19.2356 2.9837 19.4556ZM3.5037 17.2956C2.6137 17.1956 2.2037 16.7856 2.2037 15.9956V14.3356C2.2037 11.9856 3.7837 10.5956 6.9637 9.9856L15.7737 8.3256H15.8337L36.3637 7.0656L45.7037 8.8656C47.5237 9.2156 48.1937 10.0056 48.1937 11.7956V14.1756C48.1937 15.5856 47.5537 16.3356 46.2137 16.4756L45.1437 16.5756C44.7937 14.2256 42.8037 12.4756 40.3437 12.4756C37.7237 12.4756 35.6537 14.4456 35.4937 17.0156H14.9037C14.7537 14.4456 12.6737 12.4756 10.0637 12.4756C7.3237 12.4756 5.1937 14.6156 5.1937 17.3456C5.1937 17.3856 5.1937 17.4456 5.1937 17.4856ZM25.1137 12.1056C26.8937 12.1056 28.6037 11.5856 29.8737 10.6356C30.2137 10.3856 30.3137 9.9456 30.0637 9.6056C29.8337 9.2756 29.3537 9.1856 28.9837 9.4756C27.9637 10.1956 26.5537 10.6156 25.1137 10.6156C23.6637 10.6156 22.2537 10.1956 21.2437 9.4756C20.8637 9.1856 20.3937 9.2756 20.1637 9.6056C19.9337 9.9456 20.0137 10.3856 20.3437 10.6356C21.6537 11.5856 23.3637 12.1056 25.1137 12.1056ZM25.1137 15.3656C27.5037 15.3656 29.8337 14.6556 31.6937 13.3956C32.0437 13.1256 32.1537 12.6656 31.9137 12.3256C31.6537 11.9756 31.2037 11.9156 30.8337 12.1756C29.2537 13.2856 27.2237 13.9056 25.1137 13.9056C23.0237 13.9056 20.9637 13.2756 19.4037 12.1756C19.0337 11.9156 18.5837 11.9756 18.3237 12.3256C18.0737 12.6556 18.1837 13.1056 18.5237 13.3956C20.3537 14.6556 22.7137 15.3656 25.1137 15.3656ZM10.0637 20.1356C8.4937 20.1356 7.2637 18.9056 7.2637 17.3456C7.2637 15.7756 8.4937 14.5456 10.0637 14.5456C11.6237 14.5456 12.8537 15.7756 12.8537 17.3456C12.8537 18.9056 11.6237 20.1356 10.0637 20.1356ZM40.3437 20.1356C38.7737 20.1356 37.5437 18.9056 37.5437 17.3456C37.5437 15.7756 38.7737 14.5456 40.3437 14.5456C41.9037 14.5456 43.1337 15.7756 43.1337 17.3456C43.1337 18.9056 41.9037 20.1356 40.3437 20.1356Z"
        fillRule="evenodd"
        clipRule="evenodd"
    />
</svg>
        