
<svg
    viewBox={0 0 27.890625 27.890625}
    xmlns="http://www.w3.org/2000/svg"
>
    <path
        fill="inherit"
        d="M13.9427 27.8864C21.6427 27.8864 27.8927 21.6464 27.8927 13.9464C27.8927 6.2464 21.6427 -0.0036 13.9427 -0.0036C6.2527 -0.0036 0.0027 6.2464 0.0027 13.9464C0.0027 21.6464 6.2527 27.8864 13.9427 27.8864ZM13.9427 25.5664C7.5227 25.5664 2.3227 20.3664 2.3227 13.9464C2.3227 7.5164 7.5227 2.3264 13.9427 2.3264C20.3727 2.3264 25.5627 7.5164 25.5627 13.9464C25.5627 20.3664 20.3727 25.5664 13.9427 25.5664ZM8.2427 13.9364C8.2427 17.0764 9.1727 20.1064 10.8427 22.5164C11.1827 22.9564 11.7427 23.0764 12.1727 22.7764C12.6027 22.4664 12.6727 21.9064 12.3427 21.4364C10.9127 19.3864 10.0727 16.6764 10.0727 13.9364C10.0727 11.1564 10.8927 8.4864 12.3427 6.4264C12.6727 5.9764 12.6027 5.3964 12.1727 5.0864C11.7327 4.7864 11.1727 4.8964 10.8427 5.3564C9.1727 7.7764 8.2427 10.8164 8.2427 13.9364ZM12.5227 13.9364C12.5227 16.2164 13.1927 18.4264 14.4127 20.1264C14.7427 20.5764 15.2827 20.6764 15.7227 20.3664C16.1327 20.0864 16.2327 19.5064 15.9027 19.0264C14.9327 17.6864 14.3827 15.8464 14.3827 13.9364C14.3827 12.0264 14.9327 10.1864 15.9027 8.8464C16.2327 8.3664 16.1327 7.7964 15.7227 7.5064C15.2827 7.1864 14.7427 7.2964 14.4127 7.7364C13.1927 9.4064 12.5227 11.6064 12.5227 13.9364ZM16.8027 13.9364C16.8027 15.3664 17.2227 16.7864 17.9527 17.7464C18.2527 18.1664 18.8227 18.2964 19.2527 18.0064C19.7127 17.6664 19.7927 17.0864 19.4427 16.5964C18.9527 15.9264 18.6627 14.9264 18.6627 13.9364C18.6627 12.9064 18.9527 11.9064 19.4427 11.2764C19.8127 10.7864 19.7327 10.1864 19.2527 9.8564C18.8227 9.5864 18.2627 9.7064 17.9527 10.1164C17.2227 11.1264 16.8027 12.5364 16.8027 13.9364Z"
        fillRule="evenodd"
        clipRule="evenodd"
    />
</svg>
        