
<svg
    viewBox={0 0 48.494140625 21.73828125}
    xmlns="http://www.w3.org/2000/svg"
>
    <path
        fill="inherit"
        d="M46.7837 4.1063L46.1737 3.1963C44.5937 0.9163 42.6737 -0.0037 39.4937 -0.0037H28.8237C23.1837 -0.0037 20.9337 0.5463 17.5837 2.6363L12.0737 6.0963L6.9737 6.7263C2.3137 7.2963 0.0037 9.4363 0.0037 13.1763V15.5263C0.0037 17.7563 1.3137 19.0963 3.4837 19.0963H5.7137C5.6637 18.7763 5.6237 18.4463 5.6237 18.0863C5.6237 15.1763 7.9737 12.8363 10.8737 12.8363C13.7837 12.8363 16.1237 15.1763 16.1237 18.0863C16.1237 18.4463 16.0937 18.7763 16.0237 19.0963H33.2637C33.2137 18.7763 33.1637 18.4463 33.1637 18.0863C33.1637 15.1863 35.5337 12.8363 38.4137 12.8363C41.3337 12.8363 43.6637 15.1763 43.6637 18.0863C43.6637 18.4463 43.6437 18.7763 43.5737 19.0963H45.0237C47.4137 19.0963 48.4937 17.8663 48.4937 15.1663V9.3263C48.4937 7.6163 47.8637 5.6563 46.7837 4.1063ZM25.5137 7.5363C24.3237 7.5363 23.1437 7.1763 22.3537 6.5763C21.9837 6.3263 21.9037 5.8363 22.1437 5.4663C22.4237 5.0963 22.9137 5.0163 23.3237 5.3063C23.8737 5.7163 24.6937 5.9563 25.5137 5.9563C26.3637 5.9563 27.1637 5.7163 27.7037 5.3063C28.1137 5.0063 28.6137 5.0863 28.8737 5.4663C29.1037 5.8363 29.0237 6.3163 28.6737 6.5763C27.8337 7.1763 26.6637 7.5363 25.5137 7.5363ZM25.5137 11.0563C23.6237 11.0563 21.7937 10.4963 20.3937 9.4863C20.0137 9.2163 19.9337 8.7663 20.1837 8.3963C20.4237 8.0563 20.9137 7.9463 21.3237 8.2263C22.4237 9.0263 23.9437 9.4863 25.5137 9.4863C27.0737 9.4863 28.5837 9.0263 29.6937 8.2263C30.0937 7.9463 30.5937 8.0563 30.8337 8.3963C31.0937 8.7663 30.9937 9.2163 30.6237 9.4863C29.2537 10.4963 27.4237 11.0563 25.5137 11.0563ZM25.5137 14.5763C22.9137 14.5763 20.3937 13.8263 18.4337 12.4463C18.0437 12.1563 17.9537 11.6663 18.2137 11.3163C18.4737 10.9463 18.9337 10.8963 19.3337 11.1663C21.0237 12.3563 23.2537 13.0263 25.5137 13.0263C27.7937 13.0263 29.9937 12.3763 31.6937 11.1663C32.0737 10.8963 32.5537 10.9663 32.8137 11.3163C33.0737 11.6863 32.9937 12.1663 32.5837 12.4463C30.5837 13.8263 28.0837 14.5763 25.5137 14.5763ZM10.8737 21.7363C12.9237 21.7363 14.5337 20.1263 14.5337 18.0863C14.5337 16.0463 12.9037 14.4263 10.8737 14.4263C8.8437 14.4263 7.2237 16.0463 7.2237 18.0863C7.2237 20.1063 8.8437 21.7363 10.8737 21.7363ZM38.4137 21.7363C40.4537 21.7363 42.0837 20.1063 42.0837 18.0863C42.0837 16.0463 40.4537 14.4263 38.4137 14.4263C36.4037 14.4263 34.7637 16.0663 34.7637 18.0863C34.7637 20.1063 36.3937 21.7363 38.4137 21.7363Z"
        fillRule="evenodd"
        clipRule="evenodd"
    />
</svg>
        