
<svg
    viewBox={0 0 32.48208658537538 19.729034618540584}
    xmlns="http://www.w3.org/2000/svg"
>
    <path
        fill="inherit"
        d="M16.2519 4.8499C19.0719 4.8499 21.6919 3.8999 23.7319 2.1699C25.0919 1.0399 23.5519 -0.6101 22.4719 0.2299C20.3819 1.8699 18.6619 2.5199 16.2519 2.5199C13.8319 2.5199 12.1019 1.8699 10.0219 0.2299C8.9419 -0.6101 7.4319 1.0499 8.7619 2.1699C10.8019 3.8999 13.4419 4.8499 16.2519 4.8499ZM16.2519 12.2899C20.5519 12.2899 24.5719 10.9399 27.8319 8.4999C29.3119 7.4099 27.9019 5.5099 26.5619 6.5399C23.6419 8.7599 20.0719 9.9399 16.2519 9.9399C12.4319 9.9399 8.8719 8.7599 5.9419 6.5399C4.6019 5.5099 3.2019 7.4099 4.6619 8.4999C7.9319 10.9399 11.9619 12.2899 16.2519 12.2899ZM16.2519 19.7299C22.0219 19.7299 27.4119 17.9399 31.8819 14.7299C33.2519 13.7399 32.0419 11.7299 30.6119 12.7799C26.4919 15.7799 21.5419 17.3899 16.2519 17.3899C10.9619 17.3899 6.0019 15.7799 1.8819 12.7799C0.4819 11.7399 -0.8081 13.6999 0.6319 14.7299C5.0819 17.9199 10.4719 19.7299 16.2519 19.7299Z"
        fillRule="evenodd"
        clipRule="evenodd"
    />
</svg>
        