
<svg
    viewBox="0 0 27.890625 27.890625"
    xmlns="http://www.w3.org/2000/svg"
>
    <path
        fill="inherit"
        d="M13.9427 27.8864C21.6427 27.8864 27.8927 21.6464 27.8927 13.9464C27.8927 6.2464 21.6427 -0.0036 13.9427 -0.0036C6.2527 -0.0036 0.0027 6.2464 0.0027 13.9464C0.0027 21.6464 6.2527 27.8864 13.9427 27.8864ZM13.9427 25.5664C7.5227 25.5664 2.3227 20.3664 2.3227 13.9464C2.3227 7.5164 7.5227 2.3264 13.9427 2.3264C20.3727 2.3264 25.5627 7.5164 25.5627 13.9464C25.5627 20.3664 20.3727 25.5664 13.9427 25.5664ZM13.9327 11.0364C15.3227 11.0364 16.7527 10.6064 17.7427 9.8964C18.1727 9.5664 18.2827 9.0264 18.0027 8.5964C17.6827 8.1164 17.0927 8.0364 16.5927 8.3964C15.9527 8.8864 14.9527 9.1764 13.9327 9.1764C12.9327 9.1764 11.9327 8.8864 11.2827 8.3964C10.7827 8.0564 10.2027 8.1364 9.8727 8.5964C9.5827 9.0264 9.7027 9.5864 10.1327 9.8964C11.0927 10.6064 12.4927 11.0364 13.9327 11.0364ZM13.9327 15.3164C16.2527 15.3164 18.4727 14.6464 20.1227 13.4264C20.5727 13.0964 20.6727 12.5464 20.3727 12.1264C20.0827 11.7064 19.5127 11.6064 19.0327 11.9364C17.6827 12.9064 15.8427 13.4564 13.9327 13.4564C12.0327 13.4564 10.1827 12.9064 8.8427 11.9364C8.3627 11.6064 7.7827 11.7064 7.5027 12.1264C7.1927 12.5464 7.3027 13.0964 7.7427 13.4264C9.4427 14.6464 11.6527 15.3164 13.9327 15.3164ZM13.9327 19.5964C17.0627 19.5964 20.0827 18.6764 22.5127 16.9964C22.9727 16.6664 23.0927 16.1064 22.7727 15.6864C22.4627 15.2464 21.9027 15.1664 21.4327 15.4864C19.3827 16.9564 16.7027 17.7564 13.9327 17.7564C11.1827 17.7564 8.4927 16.9364 6.4227 15.4864C5.9727 15.1664 5.4027 15.2464 5.0827 15.6864C4.8027 16.0964 4.9127 16.6564 5.3627 16.9964C7.7527 18.6764 10.8027 19.5964 13.9327 19.5964Z"
        fillRule="evenodd"
        clipRule="evenodd"
    />
</svg>
        