<svg viewBox="0 0 48.712890625 21.998046875" xmlns="http://www.w3.org/2000/svg"><path d="M4.3437 19.1853H5.2137C5.1237 18.7553 5.0737 18.3353 5.0737 17.8953C5.0737 14.7153 7.5737 12.2053 10.7737 12.2053C13.9737 12.2053 16.4737 14.7153 16.4737 17.8953C16.4737 18.3353 16.4237 18.7553 16.3237 19.1853H32.3637C32.2837 18.7553 32.2237 18.3353 32.2237 17.8953C32.2237 14.7153 34.7437 12.2053 37.9237 12.2053C41.1237 12.2053 43.6437 14.7153 43.6437 17.8953C43.6437 18.3353 43.5837 18.7553 43.4937 19.1853H44.3637C47.3637 19.1853 48.7137 17.7553 48.7137 14.5853V10.8053C48.7137 8.2553 47.4837 6.6753 44.8837 5.8253L42.7137 5.0953C39.9537 2.7453 36.1437 -0.0047 31.0237 -0.0047H28.9437C23.3637 -0.0047 21.0137 0.5653 17.6637 2.6653L12.1237 6.1353L6.0737 6.8753C2.2837 7.3453 0.0037 9.6953 0.0037 12.9153V14.6653C0.0037 17.7853 1.3837 19.1853 4.3437 19.1853ZM24.8437 7.6153C23.6537 7.6153 22.4737 7.2553 21.6837 6.6553C21.3137 6.4153 21.2337 5.9153 21.4737 5.5553C21.7537 5.1853 22.2437 5.0953 22.6537 5.3853C23.2037 5.7953 24.0237 6.0453 24.8437 6.0453C25.6937 6.0453 26.4937 5.7953 27.0337 5.3853C27.4237 5.0853 27.9437 5.1653 28.2037 5.5553C28.4337 5.9153 28.3537 6.3953 28.0037 6.6553C27.1637 7.2553 25.9937 7.6153 24.8437 7.6153ZM24.8437 11.1453C22.9537 11.1453 21.1237 10.5853 19.7137 9.5653C19.3437 9.2853 19.2537 8.8453 19.5137 8.4753C19.7537 8.1353 20.2437 8.0253 20.6537 8.3153C21.7537 9.1053 23.2737 9.5653 24.8437 9.5653C26.4037 9.5653 27.9137 9.1053 29.0237 8.3153C29.4237 8.0253 29.9237 8.1353 30.1637 8.4753C30.4037 8.8453 30.3237 9.2853 29.9537 9.5653C28.5837 10.5853 26.7537 11.1453 24.8437 11.1453ZM24.8437 14.6553C22.2437 14.6553 19.7237 13.9053 17.7637 12.5253C17.3637 12.2353 17.2837 11.7453 17.5237 11.4053C17.7837 11.0353 18.2637 10.9753 18.6437 11.2553C20.3537 12.4453 22.5837 13.1153 24.8437 13.1153C27.1237 13.1153 29.3137 12.4553 31.0237 11.2553C31.4037 10.9753 31.8837 11.0353 32.1437 11.4053C32.4037 11.7753 32.3037 12.2453 31.9137 12.5253C29.9137 13.9053 27.4137 14.6553 24.8437 14.6553ZM10.7737 21.9953C13.0837 21.9953 14.8937 20.1953 14.8937 17.8953C14.8937 15.5953 13.0837 13.7953 10.7737 13.7953C8.4737 13.7953 6.6737 15.5953 6.6737 17.8953C6.6737 20.1953 8.4737 21.9953 10.7737 21.9953ZM37.9237 21.9953C40.2337 21.9953 42.0437 20.1953 42.0437 17.8953C42.0437 15.5953 40.2337 13.7953 37.9237 13.7953C35.6337 13.7953 33.8237 15.5953 33.8237 17.8953C33.8237 20.1953 35.6337 21.9953 37.9237 21.9953Z" /></svg>