
<svg
    viewBox={0 0 27.890625 27.890625}
    xmlns="http://www.w3.org/2000/svg"
>
    <path
        fill="inherit"
        d="M13.9427 27.8864C21.6427 27.8864 27.8927 21.6464 27.8927 13.9464C27.8927 6.2464 21.6427 -0.0036 13.9427 -0.0036C6.2527 -0.0036 0.0027 6.2464 0.0027 13.9464C0.0027 21.6464 6.2527 27.8864 13.9427 27.8864ZM13.9427 25.5664C7.5227 25.5664 2.3227 20.3664 2.3227 13.9464C2.3227 7.5164 7.5227 2.3264 13.9427 2.3264C20.3727 2.3264 25.5627 7.5164 25.5627 13.9464C25.5627 20.3664 20.3727 25.5664 13.9427 25.5664ZM19.6727 13.9364C19.6727 10.8164 18.7427 7.7764 17.0727 5.3564C16.7527 4.8964 16.1827 4.7864 15.7527 5.0864C15.3127 5.3964 15.2427 5.9764 15.5727 6.4264C17.0227 8.4864 17.8427 11.1564 17.8427 13.9364C17.8427 16.6764 17.0127 19.3864 15.5727 21.4364C15.2427 21.9064 15.3127 22.4664 15.7527 22.7764C16.1727 23.0764 16.7327 22.9564 17.0727 22.5164C18.7427 20.1064 19.6727 17.0764 19.6727 13.9364ZM15.3927 13.9364C15.3927 11.6064 14.7227 9.4064 13.5127 7.7364C13.1827 7.2964 12.6327 7.1864 12.1927 7.5064C11.7827 7.7964 11.6927 8.3664 12.0127 8.8464C12.9927 10.1864 13.5327 12.0264 13.5327 13.9364C13.5327 15.8464 12.9927 17.6864 12.0127 19.0264C11.6927 19.5064 11.7827 20.0864 12.1927 20.3664C12.6327 20.6764 13.1827 20.5764 13.5127 20.1264C14.7227 18.4264 15.3927 16.2164 15.3927 13.9364ZM11.1127 13.9364C11.1127 12.5364 10.6927 11.1264 9.9627 10.1164C9.6527 9.7064 9.0927 9.5864 8.6727 9.8564C8.1927 10.1864 8.1027 10.7864 8.4727 11.2764C8.9727 11.9064 9.2527 12.9064 9.2527 13.9364C9.2527 14.9264 8.9727 15.9264 8.4727 16.5964C8.1227 17.0864 8.2027 17.6664 8.6727 18.0064C9.0927 18.2964 9.6627 18.1664 9.9627 17.7464C10.6927 16.7864 11.1127 15.3664 11.1127 13.9364Z"
        fillRule="evenodd"
        clipRule="evenodd"
    />
</svg>
        