
<svg
    viewBox={0 0 50.39453125 22.19955604478853}
    xmlns="http://www.w3.org/2000/svg"
>
    <path
        fill="inherit"
        d="M38.1037 5.0556C37.3137 4.9056 36.5737 4.8356 35.8237 4.9056L20.2737 5.9156L26.0537 2.0156C27.3037 1.1856 26.0837 -0.6644 24.7437 0.2456L15.9837 6.0956L6.6737 7.8456C2.2237 8.6756 0.0037 10.7256 0.0037 14.3356V16.1556C0.0037 18.2056 0.9137 19.2156 2.9837 19.4556L5.7137 19.7756C5.6037 19.3456 5.5337 18.5756 5.5337 18.0956C5.5337 14.9256 8.0537 12.4056 11.2337 12.4056C14.4237 12.4056 16.9437 14.9256 16.9437 18.0956C16.9437 18.4956 16.9137 18.9456 16.8437 19.2156H33.7837C33.6837 18.9156 33.6437 18.5056 33.6437 18.0956C33.6437 14.9256 36.1637 12.4056 39.3437 12.4056C42.5337 12.4056 45.0537 15.1956 45.0537 18.3756C45.0537 18.5456 45.0537 18.6156 45.0337 18.7856L46.4837 18.6356C49.1237 18.3556 50.3937 16.8956 50.3937 14.1756V11.7956C50.3937 8.5556 49.2037 7.2056 46.1037 6.5956ZM25.1137 12.1056C23.3137 12.1056 21.5437 11.5656 20.1937 10.5756C19.8537 10.3356 19.7737 9.8856 20.0137 9.5256C20.2437 9.1856 20.7237 9.0856 21.1237 9.3756C22.1737 10.1256 23.6237 10.5656 25.1137 10.5656C26.5937 10.5656 28.0437 10.1256 29.1037 9.3756C29.4937 9.0856 29.9837 9.1856 30.2137 9.5256C30.4737 9.8856 30.3837 10.3356 30.0237 10.5756C28.7137 11.5656 26.9437 12.1056 25.1137 12.1056ZM25.1137 15.4556C22.6237 15.4556 20.2037 14.7356 18.3237 13.4356C17.9637 13.1356 17.8537 12.6656 18.1037 12.3256C18.3737 11.9556 18.8437 11.9056 19.2237 12.1756C20.8337 13.2956 22.9537 13.9456 25.1137 13.9456C27.2937 13.9456 29.3837 13.3156 31.0037 12.1756C31.3937 11.9056 31.8537 11.9556 32.1337 12.3256C32.3737 12.6856 32.2637 13.1456 31.8937 13.4356C29.9837 14.7356 27.5937 15.4556 25.1137 15.4556ZM11.2337 22.1956C13.5537 22.1956 15.3537 20.3956 15.3537 18.0956C15.3537 15.8056 13.5537 13.9956 11.2337 13.9956C8.9437 13.9956 7.1337 15.8056 7.1337 18.0956C7.1337 20.3956 8.9437 22.1956 11.2337 22.1956ZM39.3437 22.1956C41.6537 22.1956 43.4637 20.3956 43.4637 18.0956C43.4637 15.8056 41.6537 13.9956 39.3437 13.9956C37.0337 13.9956 35.2337 15.8056 35.2337 18.0956C35.2337 20.3956 37.0337 22.1956 39.3437 22.1956Z"
        fillRule="evenodd"
        clipRule="evenodd"
    />
</svg>
        