<svg viewBox="0 0 25.197265625 28.560546875" xmlns="http://www.w3.org/2000/svg"><path d="M10.2837 28.5645C10.9137 28.5645 11.4037 28.0645 11.4037 27.4545V1.1045C11.4037 0.4945 10.9137 0.0045 10.2837 0.0045C9.6637 0.0045 9.2037 0.4945 9.2037 1.1045V27.4545C9.2037 28.0645 9.6637 28.5645 10.2837 28.5645ZM19.4937 25.5245C20.1137 25.5245 20.5937 25.0345 20.5937 24.4345V4.1245C20.5937 3.5245 20.1137 3.0245 19.4937 3.0245C18.8537 3.0245 18.3937 3.5245 18.3937 4.1245V24.4345C18.3937 25.0345 18.8537 25.5245 19.4937 25.5245ZM5.6837 23.0545C6.3137 23.0545 6.7937 22.5545 6.7937 21.9445V6.6145C6.7937 6.0045 6.3137 5.4945 5.6837 5.4945C5.0737 5.4945 4.5937 6.0045 4.5937 6.6145V21.9445C4.5937 22.5545 5.0737 23.0545 5.6837 23.0545ZM14.8937 21.3845C15.5137 21.3845 15.9937 20.9045 15.9937 20.2845V8.2745C15.9937 7.6545 15.5137 7.1645 14.8937 7.1645C14.2637 7.1645 13.7937 7.6545 13.7937 8.2745V20.2845C13.7937 20.9045 14.2637 21.3845 14.8937 21.3845ZM24.0937 18.6345C24.7037 18.6345 25.1937 18.1445 25.1937 17.5445V11.0145C25.1937 10.4145 24.7037 9.9145 24.0937 9.9145C23.4637 9.9145 22.9937 10.4145 22.9937 11.0145V17.5445C22.9937 18.1445 23.4637 18.6345 24.0937 18.6345ZM1.0837 17.4545C1.7237 17.4545 2.2037 16.9645 2.2037 16.3545V12.2045C2.2037 11.5945 1.7237 11.0845 1.0837 11.0845C0.4637 11.0845 0.0037 11.5945 0.0037 12.2045V16.3545C0.0037 16.9645 0.4637 17.4545 1.0837 17.4545Z" /></svg>