
<svg
    viewBox="0 0 19.742706493540584 32.48481839788968"
    xmlns="http://www.w3.org/2000/svg"
>
    <path
        fill="inherit"
        d="M19.7433 16.2337C19.7433 10.4537 17.9333 5.0637 14.7233 0.6137C13.7433 -0.7763 11.7333 0.4337 12.7933 1.8637C15.7933 5.9837 17.3933 10.9437 17.3933 16.2337C17.3933 21.5237 15.7733 26.4737 12.7933 30.5937C11.7633 32.0137 13.7033 33.2837 14.7233 31.8637C17.9333 27.3937 19.7433 22.0037 19.7433 16.2337ZM12.2933 16.2337C12.2933 11.9437 10.9333 7.9137 8.5033 4.6437C7.4133 3.1837 5.5133 4.5837 6.5333 5.9237C8.7633 8.8537 9.9533 12.4237 9.9533 16.2337C9.9533 20.0537 8.7633 23.6237 6.5333 26.5437C5.5133 27.8837 7.4133 29.2937 8.5033 27.8137C10.9333 24.5537 12.2933 20.5337 12.2933 16.2337ZM4.8633 16.2337C4.8633 13.4237 3.8933 10.7937 2.1733 8.7437C1.0433 7.4037 -0.6167 8.9237 0.2333 10.0137C1.8833 12.0937 2.5133 13.8337 2.5133 16.2337C2.5133 18.6437 1.8833 20.3837 0.2333 22.4537C-0.5967 23.5337 1.0533 25.0437 2.1733 23.7137C3.8933 21.6737 4.8633 19.0537 4.8633 16.2337Z"
        fillRule="evenodd"
        clipRule="evenodd"
    />
</svg>
        