
<svg
    viewBox="0 0 21.970703125 27.548828125"
    xmlns="http://www.w3.org/2000/svg"
>
    <path
        fill="inherit"
        d="M6.2037 27.5523H15.7737C16.3837 27.5523 16.8737 27.0523 16.8737 26.4523C16.8737 25.8523 16.3837 25.3523 15.7737 25.3523H12.1037V21.9423C17.6337 21.3823 21.9737 16.7023 21.9737 10.9923C21.9737 4.9223 17.0537 0.0023 10.9937 0.0023C4.9237 0.0023 0.0037 4.9223 0.0037 10.9923C0.0037 16.7023 4.3337 21.3823 9.8937 21.9423V25.3523H6.2237C5.6237 25.3523 5.1137 25.8523 5.1137 26.4523C5.1137 27.0523 5.6037 27.5523 6.2037 27.5523ZM10.9937 17.5823C7.3237 17.5823 4.4137 14.6723 4.4137 10.9923C4.4137 7.3323 7.3237 4.4123 10.9937 4.4123C14.6737 4.4123 17.5537 7.3323 17.5537 10.9923C17.5537 14.6723 14.6737 17.5823 10.9937 17.5823ZM10.9937 14.0523C12.7037 14.0523 14.0437 12.7023 14.0437 10.9923C14.0437 9.2823 12.7037 7.9323 10.9937 7.9323C9.2837 7.9323 7.9337 9.2823 7.9337 10.9923C7.9337 12.7023 9.2837 14.0523 10.9937 14.0523Z"
        fillRule="evenodd"
        clipRule="evenodd"
    />
</svg>
        