
<svg
    viewBox="0 0 21.970703125 27.548828125"
    xmlns="http://www.w3.org/2000/svg"
>
    <path
        fill="inherit"
        d="M6.2037 27.5523H15.7737C16.3837 27.5523 16.8737 27.0523 16.8737 26.4523C16.8737 25.8523 16.3837 25.3523 15.7737 25.3523H12.1037V21.9423C17.6337 21.3823 21.9737 16.7023 21.9737 10.9923C21.9737 4.9223 17.0537 0.0023 10.9937 0.0023C4.9237 0.0023 0.0037 4.9223 0.0037 10.9923C0.0037 16.7023 4.3337 21.3823 9.8937 21.9423V25.3523H6.2237C5.6237 25.3523 5.1137 25.8523 5.1137 26.4523C5.1137 27.0523 5.6037 27.5523 6.2037 27.5523ZM10.9937 19.7923C6.0737 19.7923 2.2037 15.9323 2.2037 10.9923C2.2037 6.0523 6.0737 2.2023 10.9937 2.2023C15.9137 2.2023 19.7737 6.0523 19.7737 10.9923C19.7737 15.9323 15.9137 19.7923 10.9937 19.7923ZM10.9937 17.3723C14.5637 17.3723 17.3537 14.5623 17.3537 10.9923C17.3537 7.4423 14.5637 4.6223 10.9937 4.6223C7.4337 4.6223 4.6237 7.4423 4.6237 10.9923C4.6237 14.5623 7.4337 17.3723 10.9937 17.3723ZM10.9937 13.9623C9.3337 13.9623 8.0237 12.6423 8.0237 10.9923C8.0237 9.3423 9.3337 8.0223 10.9937 8.0223C12.6437 8.0223 13.9437 9.3423 13.9437 10.9923C13.9437 12.6423 12.6437 13.9623 10.9937 13.9623Z"
        fillRule="evenodd"
        clipRule="evenodd"
    />
</svg>
        