
<svg
    viewBox={0 0 31.28125 27.439453125}
    xmlns="http://www.w3.org/2000/svg"
>
    <path
        fill="inherit"
        d="M8.9237 27.444C13.8637 27.444 17.8537 23.424 17.8537 18.514C17.8537 18.474 17.8537 18.434 17.8537 18.404H21.0537L22.1937 21.284C21.5637 21.944 21.1637 22.834 21.1637 23.804C21.1637 25.814 22.8037 27.444 24.7837 27.444C26.4137 27.444 27.7937 26.364 28.2437 24.874H30.2137C30.8037 24.874 31.2837 24.394 31.2837 23.804C31.2837 23.214 30.8037 22.754 30.2137 22.754H28.2437C27.7937 21.274 26.4137 20.194 24.7837 20.194C24.5237 20.194 24.2837 20.224 24.0337 20.274L23.2537 18.254C24.6937 17.814 25.6737 16.504 25.6737 14.944C25.6737 12.984 24.1837 11.444 22.2137 11.444H14.3937C13.4237 10.694 12.2937 10.134 11.0437 9.834L10.3937 6.564H20.0537C20.6037 6.564 21.0437 6.124 21.0437 5.594C21.0437 5.034 20.6037 4.594 20.0537 4.594H9.9937L9.2937 1.094C9.1637 0.384 8.9437 0.004 8.1937 0.004H3.8137C3.2237 0.004 2.7637 0.474 2.7637 1.064C2.7637 1.654 3.2237 2.124 3.8137 2.124H7.0837C7.2037 2.124 7.2437 2.144 7.2637 2.214L8.8037 9.584C3.9137 9.654 0.0037 13.614 0.0037 18.514C0.0037 23.434 3.9737 27.444 8.9237 27.444ZM8.9137 25.404C5.0737 25.404 2.0337 22.344 2.0337 18.494C2.0337 14.684 5.0837 11.604 8.9137 11.604C12.7737 11.604 15.8137 14.684 15.8137 18.494C15.8137 22.344 12.7737 25.404 8.9137 25.404ZM21.9037 13.414C22.7937 13.414 23.4237 14.064 23.4237 14.934C23.4237 15.794 22.7937 16.434 21.9037 16.434H17.6137C17.3537 15.344 16.8837 14.314 16.2737 13.414ZM8.9237 20.654C10.1137 20.654 11.1137 19.704 11.1137 18.514C11.1137 17.264 10.1337 16.324 8.9237 16.324C7.7337 16.324 6.7637 17.254 6.7637 18.514C6.7637 19.704 7.7237 20.654 8.9237 20.654ZM24.7837 25.494C23.8337 25.494 23.1037 24.774 23.1037 23.804C23.1037 22.844 23.8337 22.134 24.7837 22.134C25.7537 22.134 26.4737 22.844 26.4737 23.804C26.4737 24.774 25.7537 25.494 24.7837 25.494Z"
        fillRule="evenodd"
        clipRule="evenodd"
    />
</svg>
        