<svg viewBox="0 0 34.658203125 32.921875" xmlns="http://www.w3.org/2000/svg"><path d="M7.2837 32.922H27.3737C29.6937 32.922 31.6637 32.702 33.0537 31.292C34.4537 29.902 34.6537 27.962 34.6537 25.622V7.292C34.6537 4.962 34.4537 3.012 33.0537 1.612C31.6637 0.222 29.6937 0.002 27.3737 0.002H7.2637C4.9637 0.002 2.9937 0.222 1.6037 1.622C0.2037 3.022 0.0037 4.962 0.0037 7.262V25.622C0.0037 27.962 0.2037 29.912 1.6037 31.292C2.9937 32.702 4.9637 32.922 7.2837 32.922ZM6.9137 30.722C5.5137 30.722 4.0337 30.532 3.2037 29.692C2.3837 28.862 2.2037 27.412 2.2037 26.002V6.962C2.2037 5.512 2.3837 4.042 3.2037 3.212C4.0337 2.392 5.5237 2.202 6.9637 2.202H27.7437C29.1437 2.202 30.6237 2.392 31.4637 3.222C32.2837 4.042 32.4537 5.512 32.4537 6.922V26.002C32.4537 27.412 32.2837 28.862 31.4637 29.692C30.6237 30.532 29.1437 30.722 27.7437 30.722ZM6.6737 10.512H9.6437C10.8137 10.512 11.6337 9.692 11.6337 8.502V6.412C11.6337 5.222 10.8137 4.402 9.6437 4.402H6.6737C5.4837 4.402 4.6637 5.222 4.6637 6.412V8.502C4.6637 9.692 5.4837 10.512 6.6737 10.512ZM6.0137 20.622H28.6437C29.1237 20.622 29.5037 20.252 29.5037 19.772C29.5037 19.302 29.1237 18.922 28.6437 18.922H6.0137C5.5537 18.922 5.1537 19.302 5.1537 19.772C5.1537 20.252 5.5537 20.622 6.0137 20.622ZM6.0137 24.362H28.6437C29.1237 24.362 29.5037 23.982 29.5037 23.502C29.5037 23.042 29.1237 22.672 28.6437 22.672H6.0137C5.5537 22.672 5.1537 23.042 5.1537 23.502C5.1537 23.982 5.5537 24.362 6.0137 24.362ZM6.0137 28.092H19.9337C20.4137 28.092 20.7937 27.722 20.7937 27.252C20.7937 26.782 20.4137 26.402 19.9337 26.402H6.0137C5.5537 26.402 5.1537 26.782 5.1537 27.252C5.1537 27.722 5.5537 28.092 6.0137 28.092Z" /></svg>