<svg viewBox="0 0 41.64453125 25.78515625" xmlns="http://www.w3.org/2000/svg"><path d="M7.2837 25.79H34.3437C36.6837 25.79 38.6537 25.57 40.0437 24.17C41.4437 22.78 41.6437 20.84 41.6437 18.5V7.29C41.6437 4.95 41.4437 3.01 40.0437 1.61C38.6537 0.22 36.6837 0 34.3437 0H7.2837C4.9637 0 2.9937 0.22 1.6037 1.61C0.2037 2.99 0.0037 4.95 0.0037 7.29V18.5C0.0037 20.84 0.2037 22.78 1.6037 24.17C2.9937 25.57 4.9637 25.79 7.2837 25.79ZM6.9137 23.58C5.5137 23.58 4.0337 23.39 3.2037 22.57C2.3837 21.74 2.2037 20.28 2.2037 18.87V6.9C2.2037 5.5 2.3837 4.05 3.2037 3.21C4.0337 2.39 5.5137 2.2 6.9137 2.2H34.7237C36.1337 2.2 37.6137 2.38 38.4337 3.21C39.2637 4.05 39.4437 5.5 39.4437 6.9V18.87C39.4437 20.28 39.2637 21.74 38.4337 22.57C37.6137 23.39 36.1337 23.58 34.7237 23.58ZM6.6737 10.5H9.6437C10.8137 10.5 11.6337 9.69 11.6337 8.5V6.41C11.6337 5.22 10.8137 4.4 9.6437 4.4H6.6737C5.4837 4.4 4.6637 5.22 4.6637 6.41V8.5C4.6637 9.69 5.4837 10.5 6.6737 10.5ZM5.8237 21.08H35.8237C36.3037 21.08 36.6637 20.71 36.6637 20.23C36.6637 19.77 36.3037 19.39 35.8237 19.39H5.8237C5.3637 19.39 4.9637 19.77 4.9637 20.23C4.9637 20.71 5.3637 21.08 5.8237 21.08Z" /></svg>