<svg viewBox="0 0 44.775390625 32.921875" xmlns="http://www.w3.org/2000/svg"><path d="M7.2837 32.922H37.4837C39.8237 32.922 41.7937 32.702 43.1937 31.292C44.5837 29.902 44.7737 27.962 44.7737 25.622V7.292C44.7737 4.962 44.5837 3.012 43.1937 1.612C41.7837 0.222 39.8237 0.002 37.4837 0.002H7.2637C4.9637 0.002 2.9937 0.222 1.6037 1.622C0.2037 3.022 0.0037 4.962 0.0037 7.262V25.622C0.0037 27.962 0.2037 29.912 1.6037 31.292C2.9937 32.702 4.9637 32.922 7.2837 32.922ZM6.9137 30.722C5.5137 30.722 4.0337 30.532 3.2037 29.692C2.3837 28.862 2.2037 27.412 2.2037 26.002V6.962C2.2037 5.512 2.3837 4.042 3.2037 3.212C4.0337 2.392 5.5237 2.202 6.9637 2.202H37.8737C39.2637 2.202 40.7537 2.392 41.5737 3.222C42.4137 4.042 42.5737 5.512 42.5737 6.922V26.002C42.5737 27.412 42.3937 28.862 41.5737 29.692C40.7537 30.532 39.2637 30.722 37.8737 30.722ZM6.6737 10.512H9.6437C10.8137 10.512 11.6337 9.692 11.6337 8.502V6.412C11.6337 5.222 10.8137 4.402 9.6437 4.402H6.6737C5.4837 4.402 4.6637 5.222 4.6637 6.412V8.502C4.6637 9.692 5.4837 10.512 6.6737 10.512ZM6.0137 20.622H38.7737C39.2537 20.622 39.6237 20.252 39.6237 19.772C39.6237 19.302 39.2537 18.922 38.7737 18.922H6.0137C5.5537 18.922 5.1537 19.302 5.1537 19.772C5.1537 20.252 5.5537 20.622 6.0137 20.622ZM6.0137 24.362H38.7737C39.2537 24.362 39.6237 23.982 39.6237 23.502C39.6237 23.042 39.2537 22.672 38.7737 22.672H6.0137C5.5537 22.672 5.1537 23.042 5.1537 23.502C5.1537 23.982 5.5537 24.362 6.0137 24.362ZM6.0137 28.092H30.0637C30.5437 28.092 30.9137 27.722 30.9137 27.252C30.9137 26.782 30.5437 26.402 30.0637 26.402H6.0137C5.5537 26.402 5.1537 26.782 5.1537 27.252C5.1537 27.722 5.5537 28.092 6.0137 28.092Z" /></svg>