<svg viewBox="0 0 25.908203125 25.89453125" xmlns="http://www.w3.org/2000/svg"><path d="M24.3037 1.6084C22.9137 0.2184 20.9437 -0.0016 18.6037 -0.0016H7.2637C4.9637 -0.0016 2.9937 0.2184 1.6037 1.6084C0.2037 3.0084 0.0037 4.9484 0.0037 7.2484V18.6084C0.0037 20.9484 0.2037 22.8884 1.6037 24.2784C2.9937 25.6784 4.9637 25.8984 7.2837 25.8984H18.6037C20.9437 25.8984 22.9137 25.6784 24.3037 24.2784C25.7037 22.8884 25.9037 20.9484 25.9037 18.6084V7.2884C25.9037 4.9484 25.7037 2.9984 24.3037 1.6084ZM23.7037 6.9084V18.9784C23.7037 20.3884 23.5337 21.8484 22.6937 22.6784C21.8737 23.4984 20.3937 23.6984 18.9937 23.6984H6.9137C5.5137 23.6984 4.0337 23.4984 3.2037 22.6784C2.3837 21.8484 2.2037 20.3884 2.2037 18.9784V6.9484C2.2037 5.5084 2.3837 4.0284 3.2037 3.2084C4.0337 2.3784 5.5237 2.1984 6.9637 2.1984H18.9937C20.3937 2.1984 21.8737 2.3884 22.6937 3.2084C23.5337 4.0484 23.7037 5.4984 23.7037 6.9084ZM6.6737 10.5684H9.6437C10.8137 10.5684 11.6337 9.7584 11.6337 8.5684V6.4784C11.6337 5.2884 10.8137 4.4684 9.6437 4.4684H6.6737C5.4837 4.4684 4.6637 5.2884 4.6637 6.4784V8.5684C4.6637 9.7584 5.4837 10.5684 6.6737 10.5684ZM5.5237 20.8784H20.3737C20.8537 20.8784 21.2337 20.5084 21.2337 20.0284C21.2337 19.5684 20.8537 19.1784 20.3737 19.1784H5.5237C5.0537 19.1784 4.6737 19.5684 4.6737 20.0284C4.6737 20.5084 5.0537 20.8784 5.5237 20.8784Z" /></svg>