
<svg
    viewBox={0 0 27.890625 27.890625}
    xmlns="http://www.w3.org/2000/svg"
>
    <path
        fill="inherit"
        d="M13.9427 27.8927C21.6427 27.8927 27.8927 21.6427 27.8927 13.9427C27.8927 6.2627 21.6427 0.0027 13.9427 0.0027C6.2627 0.0027 0.0027 6.2627 0.0027 13.9427C0.0027 21.6427 6.2627 27.8927 13.9427 27.8927ZM13.9427 16.7227C13.5227 16.7227 13.2327 16.4327 13.2227 16.0127C13.1927 13.1227 13.1627 10.2127 13.1227 7.3427C13.1227 6.8527 13.5127 6.5527 13.9327 6.5527C14.3527 6.5527 14.7527 6.8527 14.7527 7.3427C14.7127 10.2127 14.6927 13.1227 14.6727 16.0127C14.6527 16.4327 14.3527 16.7227 13.9427 16.7227ZM5.0127 11.3427C6.5727 9.4427 9.1727 8.0527 11.9627 7.5927V7.7427C11.9727 8.5427 11.9727 9.3827 11.9927 10.1827C9.9927 10.5527 8.2427 11.5427 6.8327 13.0327C6.6127 13.2627 6.2927 13.2627 6.1127 13.0427L5.0627 11.9627C4.8927 11.7827 4.8627 11.5527 5.0127 11.3427ZM22.8627 11.3427C23.0127 11.5527 22.9927 11.7827 22.8227 11.9627L21.7627 13.0327C21.5727 13.2227 21.2827 13.2327 21.0827 13.0427C19.6727 11.5227 17.8827 10.5527 15.8627 10.1827C15.8727 9.3827 15.8827 8.5627 15.8827 7.7527V7.5927C18.6927 8.0427 21.3027 9.4427 22.8627 11.3427ZM8.1027 14.4627C9.0227 13.3527 10.4327 12.5527 12.0027 12.1727C12.0127 12.9427 12.0127 13.7027 12.0427 14.4627V14.9027C11.2827 15.1927 10.6127 15.6727 10.0627 16.2427C9.8327 16.4927 9.5327 16.4927 9.3227 16.2527L8.1527 15.0627C7.9527 14.8927 7.9427 14.6527 8.1027 14.4627ZM19.7827 14.4627C19.9327 14.6427 19.9227 14.9027 19.7427 15.0627L18.5527 16.2527C18.3427 16.4627 18.0727 16.4927 17.8427 16.2527C17.3127 15.6527 16.5927 15.1727 15.8227 14.8927V14.4327C15.8227 13.6727 15.8427 12.9227 15.8427 12.1727C17.4327 12.5227 18.8527 13.3527 19.7827 14.4627ZM13.9327 20.4827C13.2727 20.4827 12.7027 19.9327 12.7027 19.2727C12.7027 18.5927 13.2727 18.0627 13.9327 18.0627C14.6127 18.0627 15.1627 18.5927 15.1627 19.2727C15.1627 19.9327 14.6127 20.4827 13.9327 20.4827Z"
        fillRule="evenodd"
        clipRule="evenodd"
    />
</svg>
        