<svg viewBox="0 0 27.890625 27.890625" xmlns="http://www.w3.org/2000/svg"><path d="M13.9427 27.8864C21.6427 27.8864 27.8927 21.6464 27.8927 13.9464C27.8927 6.2464 21.6427 -0.0036 13.9427 -0.0036C6.2527 -0.0036 0.0027 6.2464 0.0027 13.9464C0.0027 21.6464 6.2527 27.8864 13.9427 27.8864ZM13.9427 25.5664C7.5227 25.5664 2.3227 20.3664 2.3227 13.9464C2.3227 7.5164 7.5227 2.3264 13.9427 2.3264C20.3727 2.3264 25.5627 7.5164 25.5627 13.9464C25.5627 20.3664 20.3727 25.5664 13.9427 25.5664ZM6.3427 13.0564C6.5227 13.2664 6.8327 13.2464 7.0427 13.0264C8.8227 11.1164 11.2227 10.0864 13.9327 10.0864C16.6427 10.0864 19.0727 11.1164 20.8627 13.0464C21.0527 13.2364 21.3427 13.2464 21.5227 13.0464L22.5427 11.9864C22.7127 11.8264 22.7227 11.5964 22.5827 11.4064C20.7227 9.1364 17.3127 7.6064 13.9327 7.6064C10.5727 7.6064 7.1327 9.1364 5.2927 11.4064C5.1427 11.5964 5.1727 11.8264 5.3227 11.9864ZM9.4627 16.1764C9.6627 16.3964 9.9427 16.3764 10.1727 16.1464C11.0927 15.1164 12.5327 14.4664 13.9327 14.4764C15.3227 14.4664 16.7727 15.1164 17.7327 16.1564C17.9327 16.3964 18.2127 16.3964 18.4027 16.1764L19.5627 15.0264C19.7327 14.8564 19.7527 14.6164 19.5927 14.4364C18.3427 12.9364 16.1727 11.9764 13.9327 11.9764C11.7027 11.9764 9.5127 12.9364 8.2827 14.4364C8.1227 14.6264 8.1327 14.8464 8.3227 15.0264ZM13.9327 20.3064C14.1327 20.3064 14.2727 20.2164 14.6127 19.9164L16.4427 18.1564C16.5927 17.9964 16.6227 17.7564 16.4927 17.5864C15.9427 16.8464 14.9327 16.3564 13.9327 16.3564C12.9227 16.3564 11.9227 16.8564 11.3627 17.6464C11.2427 17.7964 11.2827 17.9964 11.4427 18.1564L13.2627 19.9164C13.5927 20.2064 13.7227 20.3064 13.9327 20.3064Z" /></svg>