
<svg
    viewBox={0 0 31.483656340754823 26.0107421875}
    xmlns="http://www.w3.org/2000/svg"
>
    <path
        fill="inherit"
        d="M27.2661 24.7968C27.6761 25.2068 28.3561 25.2068 28.7561 24.7968C29.1461 24.3668 29.1661 23.7168 28.7561 23.3068L5.7761 0.3068C5.3661 -0.1032 4.6761 -0.1032 4.2661 0.3068C3.8561 0.7068 3.8561 1.4168 4.2661 1.7968ZM15.1461 7.4468C15.3561 7.4068 15.5761 7.3868 15.7761 7.3868C20.8961 7.4668 25.1561 9.4268 28.5261 12.8568C28.7861 13.1068 29.1461 13.0868 29.4061 12.8268L31.2961 10.9468C31.5461 10.6968 31.5261 10.3968 31.3561 10.1668C28.0561 6.2568 22.0861 3.2868 15.7361 3.2868C14.3561 3.2868 12.9861 3.4268 11.4461 3.7368ZM5.8761 5.7168C3.5861 6.8968 1.5861 8.4268 0.1361 10.1668C-0.0539 10.3968 -0.0539 10.6968 0.1761 10.9468L2.0761 12.8268C2.3361 13.0868 2.7261 13.0868 2.9861 12.8168C4.7061 10.9968 6.6561 9.6168 8.8861 8.7268ZM11.9761 11.7968C9.3161 12.5168 7.0461 13.9568 5.5761 15.6868C5.3861 15.9368 5.4061 16.2168 5.6361 16.4568L7.7561 18.5568C8.0461 18.8368 8.4061 18.8068 8.6861 18.5068C10.3061 16.6968 12.8961 15.4468 15.5761 15.3968ZM25.0061 17.2968L25.8561 16.4568C26.1061 16.2068 26.1061 15.9368 25.9061 15.6868C24.5261 13.9768 22.1261 12.4668 19.5261 11.8168ZM15.7561 19.2568C13.7961 19.2568 12.0861 20.2968 11.2161 21.4868C11.0761 21.7068 11.1261 21.9468 11.3361 22.1568L14.6561 25.3568C15.1961 25.8768 15.4561 26.0068 15.7561 26.0068C16.0561 26.0068 16.3161 25.8568 16.8561 25.3568L20.1661 22.1568C20.3861 21.9468 20.4461 21.6468 20.2461 21.4068C19.3461 20.2568 17.6761 19.2568 15.7561 19.2568Z"
        fillRule="evenodd"
        clipRule="evenodd"
    />
</svg>
        