
<svg
    viewBox={0 0 39.033203125 26.05859375}
    xmlns="http://www.w3.org/2000/svg"
>
    <path
        fill="inherit"
        d="M19.4937 0.0041C16.3637 0.0041 13.3137 0.9341 10.9237 2.5941C10.4737 2.9441 10.3637 3.5041 10.6537 3.9241C10.9737 4.3641 11.5437 4.4341 11.9937 4.1041C14.0537 2.6641 16.7437 1.8341 19.4937 1.8341C22.2837 1.8341 24.9537 2.6541 27.0137 4.1041C27.4637 4.4341 28.0237 4.3641 28.3437 3.9241C28.6537 3.4841 28.5437 2.9241 28.0837 2.5941C25.6637 0.9341 22.6237 0.0041 19.4937 0.0041ZM19.5137 4.2841C17.2437 4.2841 15.0237 4.9541 13.3137 6.1641C12.8837 6.4941 12.7737 7.0441 13.0837 7.4741C13.3737 7.8841 13.9437 7.9841 14.4237 7.6541C15.7637 6.7041 17.6137 6.1341 19.5137 6.1341C21.4237 6.1341 23.2737 6.7041 24.6137 7.6541C25.0837 7.9841 25.6637 7.8841 25.9537 7.4741C26.2637 7.0441 26.1537 6.4941 25.7037 6.1641C24.0537 4.9541 21.8337 4.2841 19.5137 4.2841ZM19.4937 8.5541C18.0737 8.5541 16.6537 8.9841 15.6937 9.7041C15.2737 10.0041 15.1437 10.5841 15.4337 11.0041C15.7737 11.4741 16.3537 11.5541 16.8437 11.2141C17.5137 10.7041 18.4937 10.4141 19.4937 10.4141C20.5337 10.4141 21.5237 10.7041 22.1637 11.2141C22.6537 11.5641 23.2437 11.4841 23.5837 11.0041C23.8537 10.5841 23.7337 10.0241 23.3237 9.7041C22.3137 8.9841 20.8937 8.5541 19.4937 8.5541ZM3.8037 26.0541H35.2337C37.5737 26.0541 39.0337 24.6241 39.0337 22.3141V17.9541C39.0337 15.6441 37.5737 14.2041 35.2337 14.2041H3.8037C1.4637 14.2041 0.0037 15.6441 0.0037 17.9541V22.3141C0.0037 24.6241 1.4637 26.0541 3.8037 26.0541ZM3.8037 23.8541C2.8137 23.8541 2.2037 23.2741 2.2037 22.3141V17.9541C2.2037 16.9941 2.8137 16.4041 3.8037 16.4041H35.2337C36.2137 16.4041 36.8337 16.9941 36.8337 17.9541V22.3141C36.8337 23.2741 36.2137 23.8541 35.2337 23.8541ZM17.1837 21.9041C18.1437 21.9041 18.9537 21.0941 18.9537 20.1141C18.9537 19.1541 18.1437 18.3441 17.1837 18.3441C16.2037 18.3441 15.3937 19.1541 15.3937 20.1141C15.3937 21.0941 16.2037 21.9041 17.1837 21.9041ZM22.3537 21.9041C23.3137 21.9041 24.1137 21.0941 24.1137 20.1141C24.1137 19.1541 23.3137 18.3441 22.3537 18.3441C21.3737 18.3441 20.5637 19.1541 20.5637 20.1141C20.5637 21.0941 21.3737 21.9041 22.3537 21.9041ZM27.5237 21.9041C28.4737 21.9041 29.2837 21.0941 29.2837 20.1141C29.2837 19.1541 28.4737 18.3441 27.5237 18.3441C26.5337 18.3441 25.7337 19.1541 25.7337 20.1141C25.7337 21.0941 26.5337 21.9041 27.5237 21.9041ZM32.6937 21.9041C33.6637 21.9041 34.4637 21.0941 34.4637 20.1241C34.4637 19.1541 33.6637 18.3441 32.6937 18.3441C31.7037 18.3441 30.8937 19.1541 30.8937 20.1241C30.8937 21.0941 31.7037 21.9041 32.6937 21.9041ZM5.6237 20.5241H10.2537C10.8137 20.5241 11.2237 20.1241 11.2237 19.5641C11.2237 19.0041 10.8137 18.5941 10.2537 18.5941H5.6237C5.0537 18.5941 4.6637 19.0041 4.6637 19.5641C4.6637 20.1241 5.0537 20.5241 5.6237 20.5241Z"
        fillRule="evenodd"
        clipRule="evenodd"
    />
</svg>
        