
<svg
    viewBox={0 0 31.481734403911457 24.267578125}
    xmlns="http://www.w3.org/2000/svg"
>
    <path
        fill="inherit"
        d="M15.7561 17.6737C16.4761 17.6737 16.9661 17.2037 16.9861 16.4437C17.0261 11.4137 17.0661 6.3537 17.1061 1.3137C17.1061 0.5337 16.4761 0.0037 15.7361 0.0037C14.9961 0.0037 14.3761 0.5337 14.3761 1.3137C14.4261 6.3537 14.4661 11.4137 14.5261 16.4437C14.5361 17.2037 15.0261 17.6737 15.7561 17.6737ZM12.3461 1.8137C7.3461 2.6537 2.8161 5.1237 0.1361 8.4237C-0.0539 8.6437 -0.0539 8.9537 0.1761 9.2037L2.0661 11.1137C2.3361 11.3737 2.7261 11.3737 2.9861 11.1037C5.5661 8.3537 8.8061 6.6037 12.4061 5.9737ZM19.1161 1.8337L19.0761 5.9837C22.6661 6.5937 25.8861 8.3637 28.5261 11.1137C28.7661 11.3637 29.1361 11.3437 29.4061 11.0837L31.2961 9.2037C31.5461 8.9537 31.5261 8.6437 31.3361 8.4237C28.6261 5.1537 24.1761 2.6137 19.1161 1.8337ZM19.0561 9.9237L19.0161 14.2837C20.5261 14.8337 21.8661 15.7337 22.8661 16.8137C23.1061 17.0937 23.4461 17.0737 23.7461 16.8037L25.8561 14.7137C26.0761 14.4737 26.1061 14.1737 25.8961 13.9437C24.3761 12.1037 21.9161 10.5537 19.0561 9.9237ZM12.4461 9.9237C9.5861 10.5937 7.1561 12.0537 5.5961 13.9437C5.3861 14.1737 5.4061 14.4637 5.6361 14.7137L7.7561 16.8337C8.0561 17.1137 8.4261 17.0737 8.6961 16.7637C9.6661 15.6837 10.9961 14.8037 12.4861 14.2637ZM15.7361 24.2637C16.8961 24.2637 17.8161 23.3237 17.8161 22.1737C17.8161 21.0137 16.8961 20.0937 15.7361 20.0937C14.5861 20.0937 13.6561 21.0137 13.6561 22.1737C13.6561 23.3237 14.5861 24.2637 15.7361 24.2637Z"
        fillRule="evenodd"
        clipRule="evenodd"
    />
</svg>
        