
<svg
    viewBox="0 0 31.481734403911457 22.72265625"
    xmlns="http://www.w3.org/2000/svg"
>
    <path
        fill="inherit"
        d="M2.0661 9.5688C2.3361 9.8288 2.7261 9.8288 2.9861 9.5588C6.3461 5.9887 10.7761 4.0987 15.7361 4.0987C20.7261 4.0987 25.1861 5.9987 28.5261 9.5688C28.7661 9.8188 29.1361 9.7988 29.4061 9.5388L31.2961 7.6588C31.5461 7.4088 31.5261 7.1088 31.3361 6.8788C28.1261 2.9088 22.0861 -0.0012 15.7361 -0.0012C9.4061 -0.0012 3.3361 2.9088 0.1361 6.8788C-0.0539 7.1088 -0.0539 7.4088 0.1761 7.6588ZM7.7361 15.2888C8.0461 15.5688 8.4061 15.5288 8.6861 15.2288C10.3261 13.4088 13.0061 12.0887 15.7361 12.0988C18.4961 12.0887 21.1761 13.4488 22.8461 15.2688C23.0961 15.5588 23.4361 15.5488 23.7361 15.2688L25.8561 13.1688C26.0761 12.9488 26.1061 12.6488 25.8961 12.3988C23.8361 9.8688 20.0061 7.9688 15.7361 7.9688C11.4761 7.9688 7.6461 9.8688 5.5761 12.3988C5.3761 12.6488 5.3861 12.9188 5.6261 13.1688ZM15.7361 22.7188C16.0361 22.7188 16.2961 22.5888 16.8361 22.0688L20.1661 18.8688C20.3761 18.6588 20.4261 18.3588 20.2361 18.1188C19.3461 16.9688 17.6661 15.9688 15.7361 15.9688C13.7561 15.9688 12.0761 17.0088 11.1861 18.1988C11.0461 18.4188 11.1061 18.6588 11.3261 18.8688L14.6461 22.0688C15.1761 22.5688 15.4361 22.7188 15.7361 22.7188Z"
        fillRule="evenodd"
        clipRule="evenodd"
    />
</svg>
        