
<svg
    viewBox="0 0 25.169921875 25.169921875"
    xmlns="http://www.w3.org/2000/svg"
>
    <path
        fill="inherit"
        d="M4.2937 25.1692H20.8737C23.7437 25.1692 25.1737 23.7592 25.1737 20.9492V4.2392C25.1737 1.4192 23.7437 -0.0008 20.8737 -0.0008H4.2937C1.4337 -0.0008 0.0037 1.4192 0.0037 4.2392V20.9492C0.0037 23.7592 1.4337 25.1692 4.2937 25.1692ZM4.3237 22.9692C2.9537 22.9692 2.2037 22.2392 2.2037 20.8192V4.3592C2.2037 2.9392 2.9537 2.1992 4.3237 2.1992H20.8537C22.2037 2.1992 22.9737 2.9392 22.9737 4.3592V20.8192C22.9737 22.2392 22.2037 22.9692 20.8537 22.9692ZM5.0037 11.6892C5.1837 11.8992 5.4937 11.8792 5.7037 11.6592C7.4737 9.7492 9.8837 8.7192 12.5937 8.7192C15.3137 8.7192 17.7337 9.7492 19.5237 11.6792C19.7137 11.8692 20.0137 11.8792 20.1937 11.6792L21.2037 10.6192C21.3737 10.4592 21.3837 10.2292 21.2437 10.0392C19.4037 7.7692 15.9737 6.2392 12.5937 6.2392C9.2237 6.2392 5.7937 7.7692 3.9537 10.0392C3.8037 10.2292 3.8237 10.4592 3.9737 10.6192ZM8.1237 14.8092C8.3237 15.0292 8.6037 15.0092 8.8337 14.7792C9.7437 13.7492 11.1937 13.0992 12.5937 13.1092C13.9837 13.0992 15.4337 13.7492 16.3937 14.7892C16.5937 15.0292 16.8737 15.0292 17.0637 14.8092L18.2237 13.6592C18.3937 13.4892 18.4137 13.2492 18.2537 13.0692C17.0037 11.5692 14.8337 10.6092 12.5937 10.6092C10.3637 10.6092 8.1937 11.5692 6.9437 13.0692C6.7837 13.2592 6.7937 13.4792 6.9837 13.6592ZM12.5937 18.9392C12.7937 18.9392 12.9337 18.8492 13.2737 18.5492L15.1037 16.7892C15.2537 16.6292 15.2837 16.3892 15.1437 16.2192C14.6037 15.4792 13.5937 14.9892 12.5937 14.9892C11.5837 14.9892 10.5937 15.4892 10.0237 16.2792C9.8937 16.4292 9.9437 16.6292 10.1037 16.7892L11.9237 18.5492C12.2537 18.8392 12.3837 18.9392 12.5937 18.9392Z"
        fillRule="evenodd"
        clipRule="evenodd"
    />
</svg>
        