
<svg
    viewBox="0 0 27.890625 27.890625"
    xmlns="http://www.w3.org/2000/svg"
>
    <path
        fill="inherit"
        d="M13.9427 27.8864C21.6427 27.8864 27.8927 21.6464 27.8927 13.9464C27.8927 6.2464 21.6427 -0.0036 13.9427 -0.0036C6.2527 -0.0036 0.0027 6.2464 0.0027 13.9464C0.0027 21.6464 6.2527 27.8864 13.9427 27.8864ZM13.9427 25.5664C7.5227 25.5664 2.3227 20.3664 2.3227 13.9464C2.3227 7.5164 7.5227 2.3264 13.9427 2.3264C20.3727 2.3264 25.5627 7.5164 25.5627 13.9464C25.5627 20.3664 20.3727 25.5664 13.9427 25.5664ZM13.9327 16.6364C14.3427 16.6364 14.6127 16.3564 14.6327 15.9364C14.6527 13.1364 14.6727 10.3064 14.7127 7.5064C14.7127 7.0564 14.3327 6.7564 13.9227 6.7564C13.5127 6.7564 13.1427 7.0564 13.1427 7.5064C13.1827 10.3064 13.2027 13.1364 13.2327 15.9364C13.2527 16.3564 13.5227 16.6364 13.9327 16.6364ZM5.2727 11.4064C5.1227 11.5964 5.1527 11.8264 5.3027 11.9864L6.3327 13.0564C6.5127 13.2664 6.8227 13.2464 7.0227 13.0264C8.3927 11.5764 10.1027 10.6364 12.0427 10.2664C12.0327 9.4864 12.0327 8.6964 12.0127 7.9164V7.7664C9.3127 8.2164 6.7827 9.5564 5.2727 11.4064ZM22.5827 11.4064C21.0727 9.5564 18.5227 8.2064 15.8027 7.7664V7.9264C15.8027 8.7064 15.7927 9.4864 15.7727 10.2664C17.7427 10.6364 19.4927 11.5764 20.8627 13.0464C21.0527 13.2364 21.3327 13.2364 21.5227 13.0464L22.5427 11.9864C22.7127 11.8264 22.7227 11.5964 22.5827 11.4064ZM8.2727 14.4364C8.1027 14.6264 8.1227 14.8464 8.3127 15.0264L9.4427 16.1764C9.6527 16.3964 9.9427 16.3964 10.1627 16.1464C10.6927 15.5964 11.3427 15.1364 12.0827 14.8564V14.4364C12.0727 13.6964 12.0727 12.9564 12.0627 12.1964C10.5227 12.5664 9.1627 13.3564 8.2727 14.4364ZM19.5927 14.4364C18.6927 13.3564 17.3127 12.5464 15.7627 12.1964C15.7627 12.9364 15.7527 13.6764 15.7527 14.4064V14.8464C16.5027 15.1164 17.2027 15.5864 17.7327 16.1564C17.9327 16.3964 18.1927 16.3764 18.4027 16.1764L19.5627 15.0264C19.7327 14.8564 19.7427 14.6164 19.5927 14.4364ZM13.9227 20.2764C14.5727 20.2764 15.1027 19.7464 15.1027 19.0864C15.1027 18.4464 14.5727 17.9064 13.9227 17.9064C13.2927 17.9064 12.7427 18.4264 12.7427 19.0864C12.7427 19.7464 13.2927 20.2764 13.9227 20.2764Z"
        fillRule="evenodd"
        clipRule="evenodd"
    />
</svg>
        