
<svg
    viewBox="0 0 27.890625 27.890625"
    xmlns="http://www.w3.org/2000/svg"
>
    <path
        fill="inherit"
        d="M13.9427 27.8864C21.6427 27.8864 27.8927 21.6464 27.8927 13.9464C27.8927 6.2464 21.6427 -0.0036 13.9427 -0.0036C6.2527 -0.0036 0.0027 6.2464 0.0027 13.9464C0.0027 21.6464 6.2527 27.8864 13.9427 27.8864ZM13.9427 25.5664C7.5227 25.5664 2.3227 20.3664 2.3227 13.9464C2.3227 7.5164 7.5227 2.3264 13.9427 2.3264C20.3727 2.3264 25.5627 7.5164 25.5627 13.9464C25.5627 20.3664 20.3727 25.5664 13.9427 25.5664ZM19.1427 9.0764C19.3627 9.0764 19.5127 8.8764 19.4927 8.6564L19.4527 7.8364L20.1227 8.2964C20.2927 8.4264 20.5627 8.3664 20.6727 8.1864C20.8127 8.0264 20.7427 7.7364 20.4927 7.6264L19.7727 7.2764L20.4927 6.8864C20.7227 6.7664 20.7827 6.5464 20.6827 6.3564C20.5927 6.1664 20.3027 6.1264 20.1227 6.2364L19.4527 6.7164L19.4927 5.9064C19.5127 5.6564 19.3627 5.4664 19.1427 5.4664C18.8927 5.4664 18.7327 5.6564 18.7427 5.8964L18.8027 6.7164L18.1027 6.2364C17.9227 6.1264 17.6827 6.1564 17.5827 6.3564C17.4727 6.5264 17.5127 6.7664 17.7427 6.9064L18.4727 7.2764L17.7427 7.6264C17.5027 7.7364 17.4727 7.9964 17.5527 8.1764C17.6527 8.3764 17.9227 8.4264 18.1027 8.2964L18.8027 7.8364L18.7627 8.6564C18.7427 8.8764 18.8927 9.0764 19.1427 9.0764ZM5.8527 12.3764C7.0227 11.9764 8.2327 11.7964 9.3927 11.7964C10.9227 11.7964 12.0427 12.0264 13.4927 12.0264C15.0527 12.0264 16.0627 10.9664 16.0627 9.5664C16.0627 8.1364 14.9427 7.1064 13.6027 7.1064C12.5827 7.1064 11.6927 7.7564 11.3427 8.5864C11.1827 8.9164 11.2527 9.3364 11.6527 9.5164C11.9727 9.6764 12.3727 9.5664 12.5827 9.1564C12.7527 8.7664 13.1227 8.4764 13.6027 8.4764C14.2227 8.4764 14.6827 8.8764 14.6827 9.5664C14.6827 10.2564 14.2327 10.6764 13.4927 10.6764C12.1227 10.6764 10.9927 10.4164 9.3927 10.4164C8.0527 10.4164 6.6627 10.6764 5.4327 11.0564C4.9927 11.1864 4.8227 11.5664 4.9527 11.9264C5.0427 12.2864 5.4127 12.5064 5.8527 12.3764ZM18.7427 16.2464C20.7527 16.2464 22.1927 14.9564 22.1927 13.1564C22.1927 11.3864 20.8227 10.0864 19.1227 10.0864C17.5727 10.0864 16.3827 11.1964 16.1827 12.6364C16.1027 13.0664 16.3827 13.4264 16.7327 13.4664C17.1127 13.5264 17.4627 13.2764 17.5527 12.8064C17.6827 12.0064 18.3027 11.4664 19.1227 11.4664C20.0827 11.4664 20.8127 12.1364 20.8127 13.1564C20.8127 14.2064 20.0327 14.8564 18.7427 14.8564C16.2527 14.8564 13.5327 13.4164 10.1827 13.4164C8.4927 13.4164 6.9027 13.7164 5.4127 14.2164C5.0027 14.3664 4.8227 14.7564 4.9527 15.1064C5.0427 15.4764 5.4127 15.6864 5.8627 15.5264C7.1927 15.0264 8.5727 14.7964 10.1827 14.7964C13.4627 14.7964 15.9327 16.2464 18.7427 16.2464ZM13.5127 22.0564C14.8427 22.0564 15.9127 21.0564 15.9127 19.6164C15.9127 17.5564 13.8227 16.4364 10.0927 16.4364C8.5627 16.4364 6.8527 16.7364 5.4127 17.2264C5.0127 17.3764 4.8127 17.7464 4.9527 18.0864C5.0427 18.4564 5.4127 18.6864 5.8627 18.5364C7.1627 18.0764 8.6127 17.7964 10.0927 17.7964C13.0727 17.7964 14.5327 18.5164 14.5327 19.6164C14.5327 20.3164 14.0827 20.6864 13.5127 20.6864C12.9027 20.6864 12.5927 20.3464 12.4827 19.6764C12.4327 19.3164 12.1427 18.9864 11.7027 19.0264C11.2227 19.0564 11.0327 19.4864 11.0927 19.8764C11.2427 21.0864 12.1527 22.0564 13.5127 22.0564ZM18.8627 20.1764C19.0027 20.1764 19.1127 20.0464 19.1027 19.9064L19.0727 19.5364L19.3727 19.7664C19.4727 19.8564 19.6727 19.7964 19.7327 19.6964C19.8227 19.5964 19.7927 19.3764 19.6327 19.3064L19.2727 19.1564L19.6327 18.9764C19.7827 18.8964 19.7927 18.7464 19.7427 18.6364C19.6827 18.4964 19.4827 18.4564 19.3727 18.5264L19.0727 18.7864L19.1027 18.4064C19.1127 18.2364 19.0027 18.1264 18.8627 18.1264C18.7027 18.1264 18.5827 18.2364 18.5927 18.3864L18.6327 18.7864L18.3027 18.5264C18.2127 18.4564 18.0327 18.4864 17.9627 18.6364C17.9127 18.7164 17.8927 18.8964 18.0727 18.9864L18.4127 19.1564L18.0727 19.3064C17.8927 19.3864 17.9127 19.5664 17.9527 19.6764C17.9927 19.8064 18.2127 19.8564 18.3027 19.7664L18.6327 19.5364L18.6027 19.9064C18.5927 20.0464 18.7027 20.1764 18.8627 20.1764Z"
        fillRule="evenodd"
        clipRule="evenodd"
    />
</svg>
        