<svg viewBox="0 0 46.43386692920081 28.094787140636132" xmlns="http://www.w3.org/2000/svg"><path d="M19.8269 20.0328C22.5169 20.0328 25.6669 20.8328 28.0069 22.0628C28.6369 22.3928 29.3269 22.2728 29.7369 21.7328L39.0369 9.8728C39.9669 8.6928 39.8169 7.4528 38.6569 6.5528C34.8269 3.5928 27.5169 1.3128 19.8269 1.3128C15.7169 1.3128 11.7169 1.9628 8.3169 3.0228L6.8769 0.5428C6.5769 0.0428 5.9469 -0.1672 5.3469 0.1528C4.7869 0.4228 4.6569 1.1328 4.9669 1.6528L6.1869 3.7428C4.1069 4.5528 2.3269 5.5128 0.9869 6.5528C-0.1731 7.4528 -0.3231 8.6928 0.6069 9.8728L9.9069 21.7328C10.3169 22.2728 11.0069 22.3928 11.6369 22.0628C12.8969 21.4128 14.3869 20.8628 15.9369 20.5028L17.4269 23.0728C16.9969 23.6128 16.7369 24.2828 16.7369 25.0228C16.7369 26.7128 18.1169 28.0928 19.8269 28.0928C21.4969 28.0928 22.9069 26.7028 22.9069 25.0228C22.9069 23.3128 21.5069 21.9328 19.8269 21.9328C19.6469 21.9328 19.4869 21.9428 19.3369 21.9528L18.2569 20.1128C18.7869 20.0528 19.3069 20.0328 19.8269 20.0328ZM19.8269 17.8228C18.9369 17.8228 18.0069 17.9128 17.0669 18.0628L9.5369 5.1128C12.7769 4.0728 16.2769 3.5128 19.8269 3.5128C25.9769 3.5128 31.9969 5.1928 36.6969 8.1628C37.0669 8.4228 37.1069 8.7328 36.8469 9.0928L28.7569 19.3828C28.4969 19.7228 28.3369 19.7528 27.9869 19.6228C25.1969 18.4828 22.3169 17.8228 19.8269 17.8228ZM44.6469 17.0728C45.3169 17.0728 45.7769 16.6128 45.8069 15.9128L46.0969 6.2328C46.1169 5.3628 45.5469 4.7728 44.6469 4.7728C43.7369 4.7728 43.1569 5.3628 43.1769 6.2328L43.4669 15.9128C43.4969 16.6128 43.9769 17.0728 44.6469 17.0728ZM10.8869 19.3828L2.7969 9.0928C2.5369 8.7328 2.5769 8.4228 2.9469 8.1628C4.3269 7.2828 5.8269 6.5228 7.4169 5.8828L14.7969 18.5528C13.7469 18.8428 12.6869 19.1928 11.6569 19.6228C11.3069 19.7528 11.1469 19.7228 10.8869 19.3828ZM44.6469 23.1428C45.6169 23.1428 46.4369 22.3528 46.4369 21.4228C46.4369 20.4828 45.6269 19.7028 44.6469 19.7028C43.6469 19.7028 42.8469 20.4828 42.8469 21.4228C42.8469 22.3528 43.6569 23.1428 44.6469 23.1428ZM19.8269 26.2728C19.1169 26.2728 18.5569 25.7028 18.5569 25.0228C18.5569 24.3028 19.1169 23.7228 19.8269 23.7228C20.5169 23.7228 21.0969 24.3028 21.0969 25.0228C21.0969 25.7028 20.5169 26.2728 19.8269 26.2728Z" /></svg>