
<svg
    viewBox="0 0 29.844093690488545 27.056640625"
    xmlns="http://www.w3.org/2000/svg"
>
    <path
        fill="inherit"
        d="M2.5829 27.0589H21.0929C22.4029 27.0589 23.2929 26.3189 23.6229 25.0989L29.6929 3.2389C30.2429 1.2889 29.2529 -0.0011 27.2629 -0.0011H8.7529C7.4329 -0.0011 6.5629 0.7389 6.2229 1.9389L0.1529 23.8189C-0.3971 25.7589 0.5829 27.0589 2.5829 27.0589ZM5.6029 12.2489L8.1729 3.0789C8.3229 2.5189 8.6829 2.2189 9.2229 2.2189H16.9129L14.1129 12.2489ZM16.3529 12.2489L19.1629 2.2189H26.8329C27.4129 2.2189 27.6529 2.4989 27.5029 3.0489L24.9329 12.2489ZM2.3329 24.0089L5.0129 14.4189H13.5029L10.5929 24.8389H3.0029C2.4329 24.8389 2.1829 24.5589 2.3329 24.0089ZM12.8629 24.8389L15.7629 14.4189H24.3329L21.6729 23.9789C21.5229 24.5289 21.1629 24.8389 20.6129 24.8389Z"
        fillRule="evenodd"
        clipRule="evenodd"
    />
</svg>
        