<svg viewBox="0 0 39.64558556644723 29.53125" xmlns="http://www.w3.org/2000/svg"><path d="M27.5769 14.0093C30.4469 14.0093 32.3969 12.1393 32.3969 9.3493C32.3969 7.9593 31.8069 6.7393 31.3769 5.8093C30.6269 4.1693 29.3869 2.1193 28.3069 0.4693C28.0869 0.1493 27.8569 -0.0007 27.5769 -0.0007C27.3069 -0.0007 27.0769 0.1493 26.8569 0.4693C25.7769 2.1193 24.5269 4.1693 23.7769 5.8093C23.3569 6.7393 22.7669 7.9593 22.7669 9.3493C22.7669 12.1393 24.7069 14.0093 27.5769 14.0093ZM19.8269 21.4693C22.5169 21.4693 25.6669 22.2693 28.0069 23.4993C28.6369 23.8293 29.3269 23.7093 29.7369 23.1693L39.0469 11.3093C39.9669 10.1293 39.8169 8.8893 38.6569 7.9893C37.2369 6.8893 35.3369 5.8793 33.0869 5.0493C33.4069 5.7793 33.9669 6.8393 34.1269 8.1893C35.0269 8.6293 35.9069 9.0893 36.7169 9.5993C37.0869 9.8593 37.1269 10.1693 36.8469 10.5293L28.7669 20.8193C28.4969 21.1593 28.3469 21.1893 28.0069 21.0593C25.2169 19.9193 22.3169 19.2593 19.8269 19.2593C18.9569 19.2593 18.0269 19.3493 17.0669 19.4993L9.5369 6.5493C12.7769 5.5093 16.2769 4.9493 19.8269 4.9493C20.5669 4.9493 21.3369 4.9893 22.0869 5.0493C22.4169 4.3093 22.7769 3.6093 23.1869 2.9093C22.0869 2.7993 20.9469 2.7493 19.8269 2.7493C15.7269 2.7493 11.7369 3.3993 8.3169 4.4593L6.8769 1.9793C6.5969 1.4793 5.9669 1.2693 5.3469 1.5893C4.7869 1.8593 4.6669 2.5693 4.9669 3.0893L6.1869 5.1793C4.1169 5.9893 2.3469 6.9493 0.9869 7.9893C-0.1731 8.8893 -0.3231 10.1293 0.6069 11.3093L9.9169 23.1693C10.3269 23.7093 11.0069 23.8293 11.6369 23.4993C12.8969 22.8493 14.3969 22.2993 15.9369 21.9393L17.4269 24.5093C16.9969 25.0493 16.7569 25.7193 16.7569 26.4593C16.7569 28.1493 18.1169 29.5293 19.8269 29.5293C21.4969 29.5293 22.9069 28.1393 22.9069 26.4593C22.9069 24.7493 21.5069 23.3693 19.8269 23.3693C19.6669 23.3693 19.4969 23.3793 19.3369 23.3893L18.2569 21.5493C18.7869 21.4893 19.3269 21.4693 19.8269 21.4693ZM10.8869 20.8193L2.7969 10.5293C2.5369 10.1693 2.5769 9.8593 2.9469 9.5993C4.3369 8.7193 5.8469 7.9593 7.4269 7.3193L14.7969 19.9893C13.7469 20.2793 12.6869 20.6293 11.6569 21.0593C11.3069 21.1893 11.1569 21.1593 10.8869 20.8193ZM19.8269 27.7093C19.1169 27.7093 18.5569 27.1393 18.5569 26.4593C18.5569 25.7393 19.1169 25.1593 19.8269 25.1593C20.5169 25.1593 21.1169 25.7393 21.1169 26.4593C21.1169 27.1393 20.5169 27.7093 19.8269 27.7093Z" /></svg>