
<svg
    viewBox={0 0 39.64558556644723 29.246624120699362}
    xmlns="http://www.w3.org/2000/svg"
>
    <path
        fill="inherit"
        d="M13.7306 27.7934C13.0706 26.9034 12.8306 26.3634 12.8306 25.3634C12.8306 23.2934 14.5106 22.0434 14.9606 19.7034C16.5906 19.2234 18.3106 18.9334 19.8306 18.9334C20.2106 18.9334 20.6106 18.9634 21.0206 18.9934C20.7806 21.3934 18.7906 22.5334 18.7906 25.4934C18.7906 26.7834 19.2006 27.7634 20.0506 28.8634C20.8006 29.8034 22.2806 28.8434 21.5006 27.7934C20.8306 26.9034 20.5806 26.3634 20.5806 25.3634C20.5806 23.1634 22.4806 21.8734 22.7906 19.2534C24.6006 19.5934 26.4206 20.2034 27.8406 20.9734C27.9206 21.0234 28.0006 21.0534 28.1006 21.0834C27.4306 22.3534 26.5506 23.5134 26.5506 25.4934C26.5506 26.7834 26.9506 27.7634 27.8006 28.8634C28.5506 29.8034 30.0406 28.8434 29.2506 27.7934C28.5806 26.9034 28.3506 26.3634 28.3506 25.3634C28.3506 23.2134 30.1506 21.9434 30.5206 19.4234L39.0506 8.5634C39.9706 7.3834 39.8206 6.1434 38.6506 5.2334C34.8306 2.2834 27.5306 0.0034 19.8306 0.0034C12.1306 0.0034 4.8206 2.2834 0.9906 5.2334C-0.1694 6.1434 -0.3194 7.3834 0.6106 8.5634L10.0806 20.6434C10.4906 21.1734 11.1706 21.3134 11.8006 20.9734C12.1406 20.7934 12.5006 20.6134 12.8806 20.4534C12.2306 21.9934 11.0406 23.2034 11.0406 25.4934C11.0406 26.7834 11.4306 27.7634 12.2906 28.8634C13.0306 29.8034 14.5206 28.8434 13.7306 27.7934ZM9.1506 10.7334C8.8506 11.1734 9.1106 11.7834 9.7106 11.7834H11.1706C11.2306 15.5034 12.9506 16.2434 13.2506 17.9934C12.7506 18.1734 12.2406 18.3634 11.7506 18.5634C11.4706 18.6734 11.3406 18.6634 11.1306 18.4034L2.7906 7.7834C2.5306 7.4234 2.5706 7.1134 2.9406 6.8534C7.6506 3.8834 13.6606 2.2034 19.8306 2.2034C25.9806 2.2034 32.0106 3.8834 36.7106 6.8534C37.0706 7.1134 37.1206 7.4234 36.8506 7.7834L30.1206 16.3634C29.5206 15.0234 28.5406 13.9834 28.4806 11.7834H29.9306C30.5306 11.7834 30.8106 11.1734 30.4906 10.7334L28.2106 7.3434C28.0406 7.0934 27.8406 6.9734 27.5806 6.9734C27.3206 6.9734 27.1106 7.0934 26.9506 7.3434L24.6706 10.7334C24.3706 11.1734 24.6306 11.7834 25.2306 11.7834H26.6906C26.7506 15.5734 28.5206 16.2734 28.7706 18.0734L28.5906 18.3034C28.3306 18.6434 28.1706 18.6734 27.8306 18.5434C26.1006 17.8134 24.3106 17.2834 22.6006 16.9934C22.0706 15.3034 20.7806 14.3134 20.7206 11.7834H22.1806C22.7806 11.7834 23.0406 11.1734 22.7406 10.7334L20.4606 7.3434C20.2906 7.0934 20.0906 6.9734 19.8306 6.9734C19.5706 6.9734 19.3606 7.0934 19.2006 7.3434L16.9006 10.7334C16.6006 11.1734 16.8606 11.7834 17.4606 11.7834H18.9306C18.9806 14.5334 19.9206 15.6534 20.5406 16.7634C20.2906 16.7434 20.0606 16.7334 19.8306 16.7334C18.3506 16.7334 16.6806 16.9834 14.9706 17.4434C14.5506 15.4634 13.0306 14.5334 12.9606 11.7834H14.4306C15.0306 11.7834 15.2906 11.1734 14.9906 10.7334L12.6906 7.3434C12.5306 7.0934 12.3206 6.9734 12.0606 6.9734C11.8006 6.9734 11.6006 7.0934 11.4306 7.3434Z"
        fillRule="evenodd"
        clipRule="evenodd"
    />
</svg>
        