
<svg
    viewBox="0 0 38.27464564512997 32.34765625"
    xmlns="http://www.w3.org/2000/svg"
>
    <path
        fill="inherit"
        d="M1.985 1.0949C1.985 1.6949 2.495 2.2049 3.095 2.2049H10.575C11.175 2.2049 11.665 1.6949 11.665 1.0949C11.665 0.4949 11.175 0.0049 10.575 0.0049H3.095C2.495 0.0049 1.985 0.4949 1.985 1.0949ZM14.285 1.0949C14.285 1.6949 14.795 2.2049 15.395 2.2049H22.875C23.475 2.2049 23.985 1.6949 23.985 1.0949C23.985 0.4949 23.475 0.0049 22.875 0.0049H15.395C14.795 0.0049 14.285 0.4949 14.285 1.0949ZM26.605 1.0949C26.605 1.6949 27.095 2.2049 27.705 2.2049H35.185C35.785 2.2049 36.285 1.6949 36.285 1.0949C36.285 0.4949 35.785 0.0049 35.185 0.0049H27.705C27.095 0.0049 26.605 0.4949 26.605 1.0949ZM19.145 24.3049C21.725 24.3049 24.705 25.1049 26.965 26.2649C27.605 26.6149 28.315 26.4649 28.755 25.9049L37.695 14.5349C38.595 13.3849 38.435 12.1249 37.285 11.2249C33.565 8.3549 26.485 6.1649 19.145 6.1649C15.175 6.1649 11.295 6.7949 7.955 7.8349L6.745 5.7449C6.445 5.2249 5.815 5.0349 5.215 5.3349C4.655 5.6149 4.525 6.3349 4.825 6.8449L5.845 8.5849C3.915 9.3549 2.255 10.2549 0.985 11.2249C-0.165 12.1249 -0.325 13.3849 0.595 14.5349L9.515 25.9049C9.965 26.4649 10.665 26.6149 11.305 26.2649C12.485 25.6649 13.865 25.1549 15.285 24.8049L16.755 27.3349C16.325 27.8649 16.065 28.5349 16.065 29.2549C16.065 30.9549 17.445 32.3449 19.155 32.3449C20.825 32.3449 22.235 30.9549 22.235 29.2549C22.235 27.5649 20.835 26.1649 19.155 26.1649C18.995 26.1649 18.825 26.1849 18.665 26.2049L17.615 24.4049C18.135 24.3349 18.635 24.3049 19.145 24.3049ZM19.145 22.0249C18.255 22.0249 17.325 22.1049 16.365 22.2749L9.215 9.9949C12.415 8.9449 15.835 8.3949 19.145 8.3949C24.745 8.3949 30.695 9.9849 35.315 12.9149C35.635 13.1349 35.685 13.3749 35.435 13.6749L27.665 23.5849C27.425 23.8849 27.335 23.8849 27.045 23.7749C24.355 22.6549 21.545 22.0249 19.145 22.0249ZM10.625 23.5849L2.835 13.6749C2.595 13.3749 2.645 13.1349 2.965 12.9149C4.255 12.0949 5.645 11.3749 7.115 10.7749L14.115 22.7749C13.155 23.0549 12.185 23.3749 11.245 23.7749C10.955 23.8849 10.855 23.8849 10.625 23.5849ZM19.155 30.5149C18.445 30.5149 17.885 29.9549 17.885 29.2549C17.885 28.5649 18.445 27.9749 19.155 27.9749C19.845 27.9749 20.445 28.5649 20.445 29.2549C20.445 29.9549 19.845 30.5149 19.155 30.5149Z"
        fillRule="evenodd"
        clipRule="evenodd"
    />
</svg>
        