
<svg
    viewBox="0 0 31.242286031343312 27.056640625"
    xmlns="http://www.w3.org/2000/svg"
>
    <path
        fill="inherit"
        d="M0.4713 14.7089C-0.6487 16.6489 0.3013 18.6189 2.4213 18.9189L2.8313 18.9389L1.4713 23.8189C0.9313 25.7589 1.9113 27.0589 3.9113 27.0589H22.4313C23.6913 27.0589 24.6113 26.3189 24.9513 25.0989L31.0613 3.8589C31.6913 1.6689 30.6613 -0.0011 28.3813 -0.0011H10.7813C8.9813 -0.0011 8.4913 0.6989 7.6713 2.1189ZM6.6313 8.2989L9.7413 2.8589C10.0313 2.3689 10.2913 2.1989 10.8213 2.1989H18.7113L15.2413 8.2989ZM17.7313 8.2989L21.1913 2.1989H27.9013C28.8913 2.1989 29.2113 2.8189 28.7213 3.6789L26.0813 8.2989ZM2.5913 15.2989L5.4013 10.4289H14.0013L10.3913 16.7589H3.4313C2.4313 16.7589 2.1013 16.1689 2.5913 15.2989ZM12.8913 16.7589L16.5013 10.4289H24.8413L21.5813 16.1189C21.3113 16.6089 21.0413 16.7589 20.4913 16.7589ZM23.6513 16.8589L26.5713 11.6889L23.1013 23.6489L21.1213 18.9389C22.4713 18.7989 22.9213 18.0989 23.6513 16.8589ZM3.6613 24.0089L5.0713 18.9589H18.7413L21.2013 24.8389H4.3313C3.7713 24.8389 3.5113 24.5589 3.6613 24.0089Z"
        fillRule="evenodd"
        clipRule="evenodd"
    />
</svg>
        