
<svg
    viewBox="0 0 32.306640625 32.607421875"
    xmlns="http://www.w3.org/2000/svg"
>
    <path
        fill="inherit"
        d="M1.0937 2.2016H7.7137C8.3137 2.2016 8.8137 1.7116 8.8137 1.1116C8.8137 0.5016 8.3137 0.0016 7.7137 0.0016H1.0937C0.4937 0.0016 0.0037 0.5016 0.0037 1.1116C0.0037 1.7116 0.4937 2.2016 1.0937 2.2016ZM12.8337 2.2016H19.4537C20.0537 2.2016 20.5537 1.7116 20.5537 1.1116C20.5537 0.5016 20.0537 0.0016 19.4537 0.0016H12.8337C12.2337 0.0016 11.7437 0.5016 11.7437 1.1116C11.7437 1.7116 12.2337 2.2016 12.8337 2.2016ZM24.5937 2.2016H31.2037C31.8037 2.2016 32.3037 1.7116 32.3037 1.1116C32.3037 0.5016 31.8037 0.0016 31.2037 0.0016H24.5937C23.9837 0.0016 23.4837 0.5016 23.4837 1.1116C23.4837 1.7116 23.9837 2.2016 24.5937 2.2016ZM4.1937 25.4016H12.4137L13.7837 27.7516C13.3837 28.2616 13.1437 28.9016 13.1437 29.6016C13.1437 31.2516 14.4937 32.6116 16.1337 32.6116C17.7737 32.6116 19.1537 31.2416 19.1537 29.6016C19.1537 27.9616 17.7837 26.5916 16.1337 26.5916C15.9837 26.5916 15.8337 26.6016 15.6937 26.6216L14.9837 25.4016H28.1337C30.9137 25.4016 32.3037 24.0216 32.3037 21.2916V11.8516C32.3037 9.1316 30.9137 7.7416 28.1337 7.7416H4.6937L3.9237 6.4216C3.6337 5.9216 3.0237 5.7316 2.4037 6.0116C1.8437 6.3316 1.7237 7.0116 2.0237 7.5316L2.3137 8.0216C0.7937 8.5616 0.0237 9.8416 0.0237 11.8516V21.2916C0.0237 24.0316 1.4337 25.4016 4.1937 25.4016ZM28.1137 9.9416C29.3837 9.9416 30.1037 10.6216 30.1037 11.9716V21.1816C30.1037 22.5216 29.3837 23.2016 28.1137 23.2016H13.7037L5.9737 9.9416ZM4.2237 23.2016C2.9237 23.2016 2.2237 22.5216 2.2237 21.1816V11.9716C2.2237 10.9116 2.6637 10.2716 3.4837 10.0316L11.1437 23.2016ZM16.1337 30.7616C15.4937 30.7616 14.9737 30.2516 14.9737 29.6016C14.9737 28.9416 15.4937 28.4116 16.1337 28.4116C16.7937 28.4116 17.3237 28.9616 17.3237 29.6016C17.3237 30.2516 16.7937 30.7616 16.1337 30.7616Z"
        fillRule="evenodd"
        clipRule="evenodd"
    />
</svg>
        