
<svg
    viewBox={0 0 39.64558556644723 27.308629202424466}
    xmlns="http://www.w3.org/2000/svg"
>
    <path
        fill="inherit"
        d="M34.8169 4.4346C35.3769 4.0946 35.5469 3.3646 35.0569 2.7646C34.0469 1.5246 32.7169 0.5746 31.3169 0.0946C30.5069 -0.1754 29.8369 0.1346 29.6969 0.8246C29.5669 1.4346 29.9469 1.9446 30.5369 2.1646C31.6169 2.5446 32.5569 3.2146 33.2969 4.1046C33.7069 4.5846 34.2969 4.7346 34.8169 4.4346ZM4.8469 4.4346C5.3669 4.7346 5.9469 4.5846 6.3469 4.1046C7.0969 3.2146 8.0469 2.5446 9.1269 2.1646C9.7069 1.9446 10.0769 1.4346 9.9569 0.8246C9.8069 0.1346 9.1369 -0.1754 8.3269 0.0946C6.9369 0.5746 5.6069 1.5246 4.5969 2.7646C4.1069 3.3646 4.2869 4.0946 4.8469 4.4346ZM18.2669 4.4046C18.8269 4.0646 18.9669 3.3546 18.4869 2.7546C17.4769 1.5046 16.1469 0.5746 14.7669 0.1146C13.9069 -0.1854 13.2669 0.1946 13.1469 0.8546C13.0469 1.4546 13.3869 1.9446 13.9769 2.1646C15.0469 2.5446 15.9869 3.2146 16.7269 4.0946C17.1669 4.6146 17.7369 4.7046 18.2669 4.4046ZM21.3869 4.4046C21.9169 4.7046 22.4769 4.6146 22.9369 4.0946C23.6569 3.2146 24.5969 2.5446 25.6669 2.1646C26.2669 1.9446 26.6069 1.4546 26.4969 0.8546C26.3869 0.1946 25.7469 -0.1854 24.8869 0.1146C23.5069 0.5746 22.1669 1.5046 21.1569 2.7546C20.6869 3.3546 20.8169 4.0646 21.3869 4.4046ZM19.8269 12.0346C20.4269 12.0346 20.9269 11.5446 20.9269 10.9446V7.4446C20.9269 6.8346 20.4269 6.3446 19.8269 6.3446C19.2269 6.3446 18.7169 6.8346 18.7169 7.4446V10.9446C18.7169 11.5446 19.2269 12.0346 19.8269 12.0346ZM19.8269 25.0946C22.5169 25.0946 25.6669 25.8946 28.0069 27.1246C28.6369 27.4546 29.3269 27.3346 29.7369 26.7946L39.0469 14.9346C39.9669 13.7546 39.8169 12.5146 38.6569 11.6146C35.3469 9.0646 29.4369 7.0046 22.9469 6.5146V8.7246C27.9769 9.1746 32.8069 10.7646 36.7169 13.2346C37.0869 13.4846 37.1269 13.7946 36.8469 14.1546L28.7669 24.4446C28.4969 24.7946 28.3469 24.8146 28.0069 24.6846C25.2169 23.5446 22.3169 22.8846 19.8269 22.8846C17.3269 22.8846 14.4369 23.5446 11.6569 24.6846C11.3069 24.8146 11.1569 24.7946 10.8869 24.4446L2.7969 14.1546C2.5369 13.7946 2.5769 13.4846 2.9469 13.2346C6.8369 10.7646 11.6769 9.1746 16.7069 8.7246V6.4946C10.2169 7.0046 4.2969 9.0546 0.9869 11.6146C-0.1731 12.5146 -0.3231 13.7546 0.6069 14.9346L9.9169 26.7946C10.3269 27.3346 11.0069 27.4546 11.6369 27.1246C13.9769 25.8946 17.1369 25.0946 19.8269 25.0946ZM19.8269 19.5646C20.4269 19.5646 20.9269 19.0646 20.9269 18.4646V14.9746C20.9269 14.3746 20.4269 13.8646 19.8269 13.8646C19.2269 13.8646 18.7169 14.3746 18.7169 14.9746V18.4646C18.7169 19.0646 19.2269 19.5646 19.8269 19.5646Z"
        fillRule="evenodd"
        clipRule="evenodd"
    />
</svg>
        