
<svg
    viewBox="0 0 28.06678185096154 24.25390625"
    xmlns="http://www.w3.org/2000/svg"
>
    <path
        fill="inherit"
        d="M1.2384 8.2144C3.2084 7.5844 5.2484 7.2644 7.1884 7.2644C9.7084 7.2644 11.5484 7.6744 13.9284 7.6744C16.3884 7.6744 17.9184 6.0044 17.9184 3.8244C17.9184 1.6044 16.2084 0.0044 14.1084 0.0044C12.5484 0.0044 11.1784 0.9844 10.6084 2.2844C10.3884 2.7344 10.4684 3.2544 10.9484 3.5044C11.3884 3.7144 11.9184 3.5844 12.2084 3.0344C12.5084 2.3344 13.2484 1.7944 14.1084 1.7944C15.2384 1.7944 16.1284 2.5844 16.1284 3.8244C16.1284 5.0744 15.2684 5.8944 13.9284 5.8944C11.6584 5.8944 9.7884 5.4844 7.1884 5.4844C4.9584 5.4844 2.7084 5.8744 0.6984 6.5244C0.1184 6.6844 -0.1016 7.1744 0.0384 7.6444C0.1784 8.1244 0.6284 8.3944 1.2384 8.2144ZM22.6284 14.6144C25.8084 14.6144 28.0684 12.5944 28.0684 9.7644C28.0684 6.9744 25.9184 4.9444 23.2584 4.9444C20.7784 4.9444 18.9484 6.6744 18.6184 8.9244C18.5384 9.5044 18.8484 9.9544 19.3484 10.0244C19.8484 10.0944 20.2884 9.7744 20.3984 9.1344C20.6284 7.6944 21.8184 6.7244 23.2584 6.7244C24.9184 6.7244 26.2784 7.9744 26.2784 9.7644C26.2784 11.5844 24.8384 12.8344 22.6284 12.8344C18.4584 12.8344 13.9584 10.4544 8.4884 10.4544C5.6684 10.4544 3.0984 10.9144 0.6984 11.7544C0.1384 11.9644 -0.1016 12.4444 0.0384 12.9044C0.1784 13.3844 0.6384 13.6744 1.2384 13.4644C3.4684 12.6144 5.7984 12.2544 8.4884 12.2544C13.9484 12.2544 18.0184 14.6144 22.6284 14.6144ZM13.9484 24.2544C16.0484 24.2544 17.6784 22.6944 17.6784 20.4644C17.6784 17.2444 14.3784 15.4344 8.3084 15.4344C5.7684 15.4344 3.0184 15.9244 0.6984 16.7244C0.1384 16.9244 -0.1016 17.4044 0.0384 17.8644C0.1784 18.3444 0.6384 18.6344 1.2384 18.4344C3.4184 17.6544 5.8484 17.2244 8.3084 17.2244C13.2784 17.2244 15.8984 18.4744 15.8984 20.4644C15.8984 21.7144 15.0284 22.4744 13.9484 22.4744C12.8684 22.4744 12.2084 21.7544 12.0184 20.6044C11.9384 20.0944 11.5684 19.6744 10.9784 19.7144C10.3584 19.7544 10.1184 20.2744 10.1984 20.8344C10.4484 22.7344 11.8484 24.2544 13.9484 24.2544Z"
        fillRule="evenodd"
        clipRule="evenodd"
    />
</svg>
        