
<svg
    viewBox={0 0 33.49609375 27.81383357253251}
    xmlns="http://www.w3.org/2000/svg"
>
    <path
        fill="inherit"
        d="M4.2937 18.7992H9.8937C9.2737 20.4492 7.9537 21.6592 7.9537 24.0792C7.9537 25.3592 8.3537 26.3292 9.2137 27.4292C9.9637 28.3692 11.4437 27.4292 10.6637 26.3692C9.9937 25.4892 9.7437 24.9192 9.7437 23.9392C9.7437 22.0292 11.1837 20.8092 11.7537 18.7992H17.6537C17.0337 20.4492 15.7237 21.6592 15.7237 24.0792C15.7237 25.3592 16.1237 26.3292 16.9637 27.4292C17.7237 28.3692 19.2137 27.4292 18.4137 26.3692C17.7437 25.4892 17.5137 24.9192 17.5137 23.9392C17.5137 22.0292 18.9337 20.8092 19.5237 18.7992H25.4037C24.7837 20.4492 23.4737 21.6592 23.4737 24.0792C23.4737 25.3592 23.8737 26.3292 24.7337 27.4292C25.4737 28.3692 26.9637 27.4292 26.1637 26.3692C25.5137 25.4892 25.2637 24.9192 25.2637 23.9392C25.2637 22.0292 26.7037 20.8092 27.2737 18.7992H29.2037C32.0737 18.7992 33.4937 17.3792 33.4937 14.5592V4.2392C33.4937 1.4192 32.0737 -0.0008 29.2037 -0.0008H4.2937C1.4337 -0.0008 0.0037 1.4092 0.0037 4.2392V14.5592C0.0037 17.3892 1.4337 18.7992 4.2937 18.7992ZM4.3237 16.5992C2.9537 16.5992 2.2037 15.8592 2.2037 14.4492V4.3492C2.2037 2.9292 2.9537 2.1992 4.3237 2.1992H29.1637C30.5137 2.1992 31.2937 2.9292 31.2937 4.3492V14.4492C31.2937 15.8592 30.5137 16.5992 29.1637 16.5992H27.4937C27.2737 14.1892 25.4837 13.3592 25.4037 10.3492H26.8637C27.4637 10.3492 27.7237 9.7392 27.4237 9.2992L25.1337 5.9192C24.9637 5.6692 24.7637 5.5492 24.5037 5.5492C24.2437 5.5492 24.0337 5.6692 23.8737 5.9192L21.5837 9.2992C21.2837 9.7392 21.5437 10.3492 22.1437 10.3492H23.6137C23.6637 14.0992 25.4137 14.8192 25.6937 16.5992H19.7437C19.5237 14.1892 17.7237 13.3592 17.6537 10.3492H19.1037C19.7037 10.3492 19.9637 9.7392 19.6637 9.2992L17.3737 5.9192C17.2137 5.6692 17.0037 5.5492 16.7437 5.5492C16.4837 5.5492 16.2837 5.6692 16.1237 5.9192L13.8237 9.2992C13.5237 9.7392 13.7937 10.3492 14.3937 10.3492H15.8637C15.9137 14.0992 17.6537 14.8192 17.9337 16.5992H11.9737C11.7537 14.1892 9.9637 13.3592 9.8837 10.3492H11.3437C11.9537 10.3492 12.2137 9.7392 11.9037 9.2992L9.6137 5.9192C9.4637 5.6692 9.2537 5.5492 8.9937 5.5492C8.7337 5.5492 8.5337 5.6692 8.3637 5.9192L6.0737 9.2992C5.7737 9.7392 6.0337 10.3492 6.6337 10.3492H8.0937C8.1637 14.0992 9.8937 14.8192 10.1737 16.5992Z"
        fillRule="evenodd"
        clipRule="evenodd"
    />
</svg>
        