
<svg
    viewBox={0 0 32.279296875 32.52007491211289}
    xmlns="http://www.w3.org/2000/svg"
>
    <path
        fill="inherit"
        d="M1.7237 4.3296C2.2437 4.6596 2.8337 4.5096 3.2237 4.0296C3.9537 3.1796 4.8437 2.5196 5.8637 2.1796C6.4537 1.9396 6.8237 1.4296 6.7037 0.8296C6.5537 0.1496 5.8837 -0.1804 5.0837 0.0996C3.7337 0.5396 2.4437 1.4696 1.4737 2.6696C0.9737 3.2596 1.1637 3.9996 1.7237 4.3296ZM30.5537 4.3296C31.1137 3.9996 31.3037 3.2596 30.8037 2.6696C29.8337 1.4696 28.5437 0.5396 27.1937 0.0996C26.4037 -0.1804 25.7337 0.1496 25.5837 0.8296C25.4437 1.4296 25.8237 1.9396 26.4137 2.1796C27.4437 2.5196 28.3237 3.1796 29.0537 4.0296C29.4537 4.5096 30.0337 4.6596 30.5537 4.3296ZM14.6737 4.2996C15.2337 3.9696 15.3537 3.2496 14.9037 2.6596C13.9137 1.4596 12.6337 0.5396 11.2937 0.1196C10.4437 -0.2004 9.8037 0.1996 9.6637 0.8596C9.5837 1.4396 9.9137 1.9396 10.5137 2.1796C11.5137 2.5196 12.4137 3.1796 13.1237 4.0096C13.5537 4.5296 14.1237 4.6196 14.6737 4.2996ZM17.6137 4.2996C18.1437 4.6196 18.7137 4.5296 19.1537 4.0096C19.8537 3.1796 20.7537 2.5196 21.7637 2.1796C22.3637 1.9396 22.6937 1.4396 22.6137 0.8596C22.4737 0.1996 21.8337 -0.2004 20.9837 0.1196C19.6437 0.5396 18.3437 1.4596 17.3737 2.6596C16.9237 3.2496 17.0337 3.9696 17.6137 4.2996ZM4.1737 25.3196H12.3837L13.7537 27.6496C13.3537 28.1696 13.1137 28.8196 13.1137 29.5096C13.1137 31.1696 14.4637 32.5196 16.1037 32.5196C17.7437 32.5196 19.1237 31.1496 19.1237 29.5096C19.1237 27.8596 17.7637 26.4996 16.1037 26.4996C15.9537 26.4996 15.8037 26.4996 15.6637 26.5296L14.9537 25.3196H28.1137C30.8837 25.3196 32.2837 23.9296 32.2837 21.1996V11.7696C32.2837 9.0496 30.8837 7.6496 28.1137 7.6496H19.0737V9.8496H28.0837C29.3537 9.8496 30.0737 10.5396 30.0737 11.8896V21.0796C30.0737 22.4296 29.3537 23.1096 28.0837 23.1096H13.6737L5.9437 9.8496H13.2037V7.6496H4.6637L3.8937 6.3396C3.6137 5.8296 2.9937 5.6396 2.3837 5.9296C1.8137 6.2296 1.6937 6.9296 1.9937 7.4496L2.2837 7.9396C0.7637 8.4696 0.0037 9.7596 0.0037 11.7696V21.1996C0.0037 23.9296 1.4037 25.3196 4.1737 25.3196ZM16.1337 11.4196C16.7337 11.4196 17.2437 10.9296 17.2437 10.3296V6.9696C17.2437 6.3696 16.7337 5.8596 16.1337 5.8596C15.5437 5.8596 15.0237 6.3696 15.0237 6.9696V10.3296C15.0237 10.9296 15.5437 11.4196 16.1337 11.4196ZM4.1937 23.1096C2.8937 23.1096 2.2037 22.4296 2.2037 21.0796V11.8896C2.2037 10.8196 2.6437 10.1696 3.4637 9.9496L11.1137 23.1096ZM16.1337 18.6596C16.7337 18.6596 17.2437 18.1496 17.2437 17.5496V14.1996C17.2437 13.5996 16.7337 13.0796 16.1337 13.0796C15.5437 13.0796 15.0237 13.5996 15.0237 14.1996V17.5496C15.0237 18.1496 15.5437 18.6596 16.1337 18.6596ZM16.1037 30.6696C15.4637 30.6696 14.9437 30.1596 14.9437 29.5096C14.9437 28.8596 15.4637 28.3196 16.1037 28.3196C16.7637 28.3196 17.2937 28.8596 17.2937 29.5096C17.2937 30.1596 16.7637 30.6696 16.1037 30.6696Z"
        fillRule="evenodd"
        clipRule="evenodd"
    />
</svg>
        