
<svg
    viewBox="0 0 40.947265625 29.01171875"
    xmlns="http://www.w3.org/2000/svg"
>
    <path
        fill="inherit"
        d="M7.2437 27.877C7.2437 28.497 7.7537 29.007 8.3837 29.007H32.5937C33.2237 29.007 33.7437 28.497 33.7437 27.877C33.7437 27.687 33.6837 27.507 33.6237 27.357L39.0237 27.807C40.3137 27.927 40.9437 27.057 40.9437 25.937V2.407C40.9437 1.287 40.3137 0.427 39.0237 0.537L31.5537 1.167L31.5237 0.917C31.2237 0.337 30.5537 -0.003 29.7637 -0.003H11.1837C10.3637 -0.003 9.7237 0.337 9.4237 0.917L9.3937 1.167L1.9137 0.537C0.6337 0.427 0.0037 1.287 0.0037 2.407V25.937C0.0037 27.057 0.6337 27.927 1.9137 27.807L7.3737 27.357C7.2837 27.507 7.2437 27.687 7.2437 27.877ZM11.2837 2.567C11.2837 2.347 11.4337 2.197 11.6337 2.197H19.8637V26.747H11.2837ZM29.3137 2.197C29.5137 2.197 29.6537 2.347 29.6537 2.567V26.747H21.6537V2.197ZM2.0937 8.527V2.887C2.0937 2.707 2.2137 2.637 2.3837 2.657L9.0737 3.117V8.927L2.3237 8.767C2.1837 8.767 2.0937 8.657 2.0937 8.527ZM31.8737 8.927V3.117L38.5637 2.657C38.7337 2.637 38.8537 2.707 38.8537 2.887V8.527C38.8537 8.657 38.7637 8.767 38.6237 8.767ZM2.0937 17.237V11.117C2.0937 10.977 2.1837 10.887 2.3237 10.887L9.0737 11.047V17.307L2.3237 17.477C2.1837 17.477 2.0937 17.367 2.0937 17.237ZM31.8737 17.307V11.047L38.6137 10.887C38.7637 10.887 38.8537 10.977 38.8537 11.117V17.237C38.8537 17.367 38.7637 17.477 38.6137 17.477ZM2.0937 25.457V19.827C2.0937 19.697 2.1837 19.587 2.3237 19.587L9.0737 19.427V25.237L2.3837 25.707C2.2137 25.717 2.0937 25.647 2.0937 25.457ZM31.8737 25.237V19.427L38.6237 19.587C38.7637 19.587 38.8537 19.697 38.8537 19.827V25.457C38.8537 25.647 38.7337 25.717 38.5637 25.707Z"
        fillRule="evenodd"
        clipRule="evenodd"
    />
</svg>
        