<svg viewBox="0 0 33.49609375 29.4765625" xmlns="http://www.w3.org/2000/svg"><path d="M22.6537 14.0109C25.5237 14.0109 27.4537 12.1409 27.4537 9.3509C27.4537 7.9609 26.8637 6.7409 26.4537 5.8109C25.7037 4.1709 24.4637 2.1209 23.3837 0.4609C23.1437 0.1509 22.9237 0.0009 22.6537 0.0009C22.3637 0.0009 22.1437 0.1509 21.9137 0.4609C20.8337 2.1209 19.5937 4.1709 18.8437 5.8109C18.4337 6.7409 17.8437 7.9609 17.8437 9.3509C17.8437 12.1409 19.7737 14.0109 22.6537 14.0109ZM4.2937 22.1209H12.9637L14.3237 24.4609C13.9037 24.9909 13.6437 25.6609 13.6437 26.4009C13.6437 28.0909 15.0237 29.4809 16.7237 29.4809C18.4037 29.4809 19.8137 28.0809 19.8137 26.4009C19.8137 24.6909 18.4137 23.3109 16.7237 23.3109C16.5537 23.3109 16.3937 23.3209 16.2237 23.3409L15.5137 22.1209H29.2037C32.0737 22.1209 33.4937 20.7009 33.4937 17.8809V7.6309C33.4937 4.8109 32.0737 3.3909 29.2037 3.3909H27.3137C27.7537 4.1809 28.1537 5.0209 28.3937 5.5909H29.1637C30.5137 5.5909 31.2937 6.3309 31.2937 7.7509V17.7609C31.2937 19.1809 30.5137 19.9209 29.1637 19.9209H14.2437L5.9037 5.5909H16.8837C17.1337 5.0309 17.5137 4.2009 17.9637 3.3909H4.6237L3.7637 1.9109C3.4737 1.4109 2.8437 1.2009 2.2237 1.5209C1.6637 1.7909 1.5437 2.5009 1.8637 3.0209L2.2537 3.7209C0.7537 4.2809 0.0037 5.5809 0.0037 7.6309V17.8809C0.0037 20.7009 1.4337 22.1209 4.2937 22.1209ZM4.3237 19.9209C2.9537 19.9209 2.2037 19.1809 2.2037 17.7609V7.7509C2.2037 6.6709 2.6237 6.0009 3.4337 5.7309L11.6737 19.9209ZM16.7237 27.6609C16.0237 27.6609 15.4537 27.0809 15.4537 26.4009C15.4537 25.6909 16.0237 25.1009 16.7237 25.1009C17.4137 25.1009 18.0037 25.6909 18.0037 26.4009C18.0037 27.0809 17.4137 27.6609 16.7237 27.6609Z" /></svg>