
<svg
    viewBox="0 0 27.890625 27.890625"
    xmlns="http://www.w3.org/2000/svg"
>
    <path
        fill="inherit"
        d="M13.9427 27.8927C21.6427 27.8927 27.8927 21.6427 27.8927 13.9427C27.8927 6.2627 21.6427 0.0027 13.9427 0.0027C6.2627 0.0027 0.0027 6.2627 0.0027 13.9427C0.0027 21.6427 6.2627 27.8927 13.9427 27.8927ZM6.1527 11.6627C5.7027 11.8127 5.3027 11.5827 5.2127 11.2127C5.0727 10.8427 5.2627 10.4427 5.7127 10.3227C6.9827 9.9127 8.4127 9.6427 9.8027 9.6427C11.4427 9.6427 12.6027 9.9127 14.0227 9.9127C14.7827 9.9127 15.2327 9.4927 15.2327 8.7727C15.2327 8.0627 14.7527 7.6527 14.1327 7.6527C13.6327 7.6527 13.2527 7.9527 13.0727 8.3527C12.8627 8.7927 12.4427 8.9027 12.1027 8.7227C11.7027 8.5427 11.6327 8.0927 11.8127 7.7627C12.1727 6.8927 13.0827 6.2527 14.1327 6.2527C15.5127 6.2527 16.6627 7.3027 16.6627 8.7727C16.6627 10.2127 15.6227 11.3227 14.0227 11.3227C12.5227 11.3227 11.3627 11.0727 9.8027 11.0727C8.5827 11.0727 7.3527 11.2627 6.1527 11.6627ZM19.4327 15.6527C16.5127 15.6527 13.9827 14.1727 10.6227 14.1727C8.9427 14.1727 7.5227 14.3927 6.1527 14.9327C5.7027 15.0927 5.3027 14.8627 5.2127 14.4827C5.0727 14.1227 5.2727 13.7227 5.7027 13.5727C7.2227 13.0527 8.8627 12.7427 10.6227 12.7427C14.0727 12.7427 16.8527 14.2227 19.4327 14.2227C20.7527 14.2227 21.5627 13.5527 21.5627 12.4827C21.5627 11.4327 20.7927 10.7427 19.8227 10.7427C18.9927 10.7427 18.3327 11.2927 18.1927 12.1227C18.1127 12.6027 17.7427 12.8527 17.3627 12.7927C16.9927 12.7427 16.7027 12.3827 16.7927 11.9227C16.9827 10.4427 18.2127 9.3227 19.8227 9.3227C21.5627 9.3227 22.9827 10.6527 22.9827 12.4827C22.9827 14.3327 21.5027 15.6527 19.4327 15.6527ZM14.0227 21.6427C12.6327 21.6427 11.6927 20.6627 11.5427 19.4027C11.4727 19.0027 11.6627 18.5527 12.1827 18.5227C12.6327 18.4827 12.9227 18.8427 12.9927 19.1927C13.0927 19.8827 13.4227 20.2327 14.0227 20.2327C14.6327 20.2327 15.0927 19.8527 15.0927 19.1427C15.0927 17.9927 13.5727 17.2627 10.5127 17.2627C8.9827 17.2627 7.4927 17.5427 6.1527 18.0227C5.7027 18.1827 5.3027 17.9327 5.2127 17.5527C5.0727 17.2127 5.2727 16.8327 5.7027 16.6627C7.1627 16.1627 8.9327 15.8427 10.5127 15.8427C14.3727 15.8427 16.5127 17.0227 16.5127 19.1427C16.5127 20.6127 15.4127 21.6427 14.0227 21.6427Z"
        fillRule="evenodd"
        clipRule="evenodd"
    />
</svg>
        