
<svg
    viewBox="0 0 41.412109375 28.108459015636132"
    xmlns="http://www.w3.org/2000/svg"
>
    <path
        fill="inherit"
        d="M4.2937 20.7528H12.9637L14.3237 23.0928C13.9037 23.6228 13.6437 24.2928 13.6437 25.0328C13.6437 26.7228 15.0237 28.1128 16.7237 28.1128C18.4037 28.1128 19.8137 26.7128 19.8137 25.0328C19.8137 23.3228 18.4137 21.9428 16.7237 21.9428C16.5537 21.9428 16.3937 21.9528 16.2237 21.9728L15.5137 20.7528H29.2037C32.0737 20.7528 33.4937 19.3328 33.4937 16.5128V6.2628C33.4937 3.4428 32.0737 2.0228 29.2037 2.0228H4.6237L3.7637 0.5428C3.4737 0.0428 2.8437 -0.1672 2.2237 0.1528C1.6637 0.4228 1.5437 1.1328 1.8637 1.6528L2.2537 2.3528C0.7537 2.9128 0.0037 4.2128 0.0037 6.2628V16.5128C0.0037 19.3328 1.4337 20.7528 4.2937 20.7528ZM29.1637 4.2228C30.5137 4.2228 31.2937 4.9628 31.2937 6.3828V16.3928C31.2937 17.8128 30.5137 18.5528 29.1637 18.5528H14.2437L5.9037 4.2228ZM4.3237 18.5528C2.9537 18.5528 2.2037 17.8128 2.2037 16.3928V6.3828C2.2037 5.3028 2.6237 4.6328 3.4337 4.3628L11.6737 18.5528ZM39.6237 17.0728C40.2937 17.0728 40.7537 16.6128 40.7837 15.9128L41.0737 6.2328C41.0937 5.3628 40.5137 4.7728 39.6237 4.7728C38.7237 4.7728 38.1337 5.3628 38.1537 6.2328L38.4437 15.9128C38.4737 16.6128 38.9537 17.0728 39.6237 17.0728ZM39.6237 23.1428C40.5937 23.1428 41.4137 22.3528 41.4137 21.4228C41.4137 20.4828 40.6037 19.7028 39.6237 19.7028C38.6237 19.7028 37.8137 20.4828 37.8137 21.4228C37.8137 22.3528 38.6337 23.1428 39.6237 23.1428ZM16.7237 26.2928C16.0237 26.2928 15.4537 25.7128 15.4537 25.0328C15.4537 24.3228 16.0237 23.7328 16.7237 23.7328C17.4137 23.7328 18.0037 24.3228 18.0037 25.0328C18.0037 25.7128 17.4137 26.2928 16.7237 26.2928Z"
        fillRule="evenodd"
        clipRule="evenodd"
    />
</svg>
        