<svg viewBox="0 0 27.890625 27.890625" xmlns="http://www.w3.org/2000/svg"><path d="M13.9427 27.8927C21.6427 27.8927 27.8927 21.6427 27.8927 13.9427C27.8927 6.2627 21.6427 0.0027 13.9427 0.0027C6.2627 0.0027 0.0027 6.2627 0.0027 13.9427C0.0027 21.6427 6.2627 27.8927 13.9427 27.8927ZM19.3027 8.9227C19.0627 8.9227 18.9127 8.7327 18.9227 8.5027L18.9627 7.6427L18.2527 8.1527C18.0727 8.2627 17.7727 8.2127 17.6927 8.0027C17.5927 7.8227 17.6227 7.5627 17.8727 7.4327L18.6227 7.0827L17.8727 6.6827C17.6327 6.5627 17.5927 6.2927 17.7027 6.1227C17.8027 5.9027 18.0727 5.8827 18.2527 6.0127L18.9627 6.5127L18.9127 5.6427C18.8927 5.4027 19.0627 5.2127 19.3027 5.2127C19.5327 5.2127 19.6827 5.4027 19.6727 5.6627L19.6327 6.5127L20.3427 6.0127C20.5127 5.8827 20.8127 5.9327 20.9027 6.1227C21.0027 6.3127 20.9427 6.5627 20.7127 6.6727L19.9627 7.0827L20.7127 7.4327C20.9627 7.5427 21.0227 7.8427 20.8927 8.0227C20.7927 8.2027 20.5127 8.2627 20.3427 8.1527L19.6327 7.6427L19.6727 8.5027C19.6827 8.7327 19.5327 8.9227 19.3027 8.9227ZM5.6227 12.3327C5.1727 12.4727 4.7827 12.2527 4.6927 11.8827C4.5527 11.5127 4.7427 11.1127 5.1927 10.9827C6.4627 10.5827 7.8927 10.3127 9.2827 10.3127C10.9127 10.3127 12.0827 10.5827 13.4927 10.5827C14.2627 10.5827 14.7127 10.1627 14.7127 9.4427C14.7127 8.7327 14.2327 8.3127 13.6127 8.3127C13.1127 8.3127 12.7327 8.6227 12.5527 9.0227C12.3427 9.4427 11.9227 9.5727 11.5827 9.3927C11.1827 9.2127 11.1127 8.7627 11.2827 8.4327C11.6527 7.5627 12.5627 6.9027 13.6127 6.9027C15.0027 6.9027 16.1427 7.9727 16.1427 9.4427C16.1427 10.8827 15.0927 11.9927 13.4927 11.9927C12.0027 11.9927 10.8427 11.7427 9.2827 11.7427C8.0627 11.7427 6.8327 11.9327 5.6227 12.3327ZM18.9127 16.3227C15.9927 16.3227 13.4627 14.8427 10.1027 14.8427C8.4227 14.8427 7.0027 15.0627 5.6327 15.6027C5.1727 15.7627 4.7827 15.5327 4.6927 15.1527C4.5527 14.7827 4.7627 14.3927 5.1827 14.2427C6.7027 13.7127 8.3427 13.4127 10.1027 13.4127C13.5527 13.4127 16.3427 14.8927 18.9127 14.8927C20.2227 14.8927 21.0427 14.2227 21.0427 13.1527C21.0427 12.1027 20.2727 11.4027 19.2927 11.4027C18.4727 11.4027 17.8127 11.9627 17.6827 12.7927C17.5927 13.2727 17.2227 13.5227 16.8327 13.4627C16.4627 13.4127 16.1827 13.0427 16.2727 12.5927C16.4627 11.1127 17.6927 9.9827 19.2927 9.9827C21.0427 9.9827 22.4627 11.3227 22.4627 13.1527C22.4627 15.0027 20.9827 16.3227 18.9127 16.3227ZM13.5127 22.3127C12.1127 22.3127 11.1727 21.3127 11.0227 20.0727C10.9527 19.6627 11.1427 19.2227 11.6627 19.1927C12.1127 19.1527 12.4027 19.4927 12.4727 19.8627C12.5827 20.5527 12.8927 20.8927 13.5127 20.8927C14.1127 20.8927 14.5627 20.5227 14.5627 19.8127C14.5627 18.6627 13.0527 17.9327 9.9827 17.9327C8.4627 17.9327 6.9727 18.2127 5.6327 18.6927C5.1727 18.8427 4.7827 18.6027 4.6927 18.2227C4.5527 17.8827 4.7627 17.5027 5.1727 17.3327C6.6427 16.8327 8.4127 16.5127 9.9827 16.5127C13.8527 16.5127 15.9827 17.6727 15.9827 19.8127C15.9827 21.2827 14.8927 22.3127 13.5127 22.3127ZM19.0327 20.4127C18.8527 20.4127 18.7427 20.2727 18.7627 20.1427L18.7827 19.7327L18.4427 19.9727C18.3327 20.0527 18.1127 20.0127 18.0627 19.8927C18.0227 19.7527 18.0027 19.5627 18.1827 19.4827L18.5527 19.3327L18.1827 19.1527C18.0027 19.0627 18.0227 18.8627 18.0727 18.7727C18.1427 18.6227 18.3327 18.5927 18.4427 18.6727L18.7827 18.9527L18.7427 18.5127C18.7327 18.3727 18.8527 18.2427 19.0327 18.2427C19.1727 18.2427 19.2927 18.3727 19.2727 18.5227L19.2327 18.9527L19.5627 18.6727C19.6727 18.5927 19.8927 18.6327 19.9627 18.7727C20.0027 18.8927 20.0027 19.0627 19.8427 19.1427L19.4527 19.3327L19.8427 19.4827C20.0027 19.5627 20.0327 19.7827 19.9427 19.9027C19.8827 20.0027 19.6727 20.0527 19.5627 19.9727L19.2327 19.7327L19.2727 20.1427C19.2927 20.2727 19.1727 20.4127 19.0327 20.4127Z" /></svg>