
<svg
    viewBox="0 0 23.392578125 29.01171875"
    xmlns="http://www.w3.org/2000/svg"
>
    <path
        fill="inherit"
        d="M0.0037 26.227C0.0037 27.887 1.1437 29.007 2.8537 29.007H20.5337C22.2537 29.007 23.3937 27.887 23.3937 26.227V2.787C23.3937 1.117 22.2537 -0.003 20.5337 -0.003H2.8537C1.1437 -0.003 0.0037 1.117 0.0037 2.787ZM2.2037 26.087V2.927C2.2037 2.487 2.4837 2.197 2.8937 2.197H20.4937C20.9137 2.197 21.1937 2.487 21.1937 2.927V26.087C21.1937 26.527 20.9137 26.807 20.4937 26.807H2.8937C2.4837 26.807 2.2037 26.527 2.2037 26.087ZM4.2637 25.227H19.1437C19.4037 25.227 19.6037 25.007 19.6037 24.757V4.247C19.6037 3.997 19.4037 3.787 19.1437 3.787H4.2637C4.0037 3.787 3.8037 3.997 3.8037 4.247V24.757C3.8037 25.007 4.0037 25.227 4.2637 25.227ZM9.5037 23.547C9.1237 23.547 8.8437 23.267 8.8437 22.887C8.8437 22.487 9.1237 22.217 9.5037 22.217H13.6737C14.0537 22.217 14.3237 22.487 14.3237 22.887C14.3237 23.267 14.0537 23.547 13.6737 23.547Z"
        fillRule="evenodd"
        clipRule="evenodd"
    />
</svg>
        