
<svg
    viewBox={0 0 39.64558556644723 28.094787140636132}
    xmlns="http://www.w3.org/2000/svg"
>
    <path
        fill="inherit"
        d="M19.8269 20.0328C22.5169 20.0328 25.6669 20.8328 28.0069 22.0628C28.6369 22.3928 29.3269 22.2728 29.7369 21.7328L39.0469 9.8728C39.9669 8.6928 39.8169 7.4528 38.6569 6.5528C34.8369 3.5928 27.5269 1.3128 19.8269 1.3128C15.7269 1.3128 11.7369 1.9628 8.3169 3.0228L6.8769 0.5428C6.5969 0.0428 5.9669 -0.1672 5.3469 0.1528C4.7869 0.4228 4.6669 1.1328 4.9669 1.6528L6.1869 3.7428C4.1169 4.5528 2.3469 5.5128 0.9869 6.5528C-0.1731 7.4528 -0.3231 8.6928 0.6069 9.8728L9.9169 21.7328C10.3269 22.2728 11.0069 22.3928 11.6369 22.0628C12.8969 21.4128 14.3969 20.8628 15.9369 20.5028L17.4269 23.0728C16.9969 23.6128 16.7569 24.2828 16.7569 25.0228C16.7569 26.7128 18.1169 28.0928 19.8269 28.0928C21.4969 28.0928 22.9069 26.7028 22.9069 25.0228C22.9069 23.3128 21.5069 21.9328 19.8269 21.9328C19.6669 21.9328 19.4969 21.9428 19.3369 21.9528L18.2569 20.1128C18.7869 20.0528 19.3269 20.0328 19.8269 20.0328ZM19.8269 17.8228C18.9569 17.8228 18.0269 17.9128 17.0669 18.0628L9.5369 5.1128C12.7769 4.0728 16.2769 3.5128 19.8269 3.5128C25.9769 3.5128 32.0069 5.1928 36.7169 8.1628C37.0869 8.4228 37.1269 8.7328 36.8469 9.0928L28.7669 19.3828C28.4969 19.7228 28.3469 19.7528 28.0069 19.6228C25.2169 18.4828 22.3169 17.8228 19.8269 17.8228ZM10.8869 19.3828L2.7969 9.0928C2.5369 8.7328 2.5769 8.4228 2.9469 8.1628C4.3369 7.2828 5.8469 6.5228 7.4269 5.8828L14.7969 18.5528C13.7469 18.8428 12.6869 19.1928 11.6569 19.6228C11.3069 19.7528 11.1569 19.7228 10.8869 19.3828ZM19.8269 26.2728C19.1169 26.2728 18.5569 25.7028 18.5569 25.0228C18.5569 24.3028 19.1169 23.7228 19.8269 23.7228C20.5169 23.7228 21.1169 24.3028 21.1169 25.0228C21.1169 25.7028 20.5169 26.2728 19.8269 26.2728Z"
        fillRule="evenodd"
        clipRule="evenodd"
    />
</svg>
        