
<svg
    viewBox={0 0 27.931640625 29.01171875}
    xmlns="http://www.w3.org/2000/svg"
>
    <path
        fill="inherit"
        d="M0.0037 27.877C0.0037 28.497 0.5237 29.007 1.1337 29.007H26.7937C27.4137 29.007 27.9337 28.497 27.9337 27.877C27.9337 27.247 27.4137 26.747 26.7937 26.747H26.0537V2.037C26.0537 0.817 25.2137 -0.003 23.9537 -0.003H3.9337C2.6837 -0.003 1.8337 0.817 1.8337 2.037V26.747H1.1337C0.5237 26.747 0.0037 27.247 0.0037 27.877ZM4.0437 13.367V2.567C4.0437 2.347 4.1837 2.197 4.3937 2.197H13.0537V13.367ZM14.8437 13.367V2.197H23.5037C23.7037 2.197 23.8437 2.347 23.8437 2.567V13.367ZM4.0437 26.747V15.637H23.8437V26.747Z"
        fillRule="evenodd"
        clipRule="evenodd"
    />
</svg>
        