
<svg
    viewBox="0 0 38.266420198997665 33.498722899223985"
    xmlns="http://www.w3.org/2000/svg"
>
    <path
        fill="inherit"
        d="M34.1093 4.4351C34.6693 4.0951 34.8493 3.3651 34.3693 2.7651C33.3393 1.5251 32.0293 0.5751 30.6193 0.0951C29.8193 -0.1749 29.1493 0.1351 28.9993 0.8251C28.8693 1.4351 29.2393 1.9451 29.8393 2.1651C30.9093 2.5351 31.8493 3.2151 32.5993 4.1051C33.0093 4.5851 33.5893 4.7351 34.1093 4.4351ZM4.1493 4.4351C4.6693 4.7351 5.2493 4.5851 5.6593 4.1051C6.3993 3.2151 7.3393 2.5351 8.4193 2.1651C9.0193 1.9451 9.3893 1.4351 9.2493 0.8251C9.1193 0.1351 8.4493 -0.1749 7.6393 0.0951C6.2293 0.5751 4.9093 1.5251 3.8893 2.7651C3.4193 3.3651 3.5793 4.0951 4.1493 4.4351ZM17.5793 4.4051C18.1393 4.0651 18.2793 3.3551 17.7993 2.7551C16.7893 1.5051 15.4493 0.5751 14.0693 0.1151C13.1993 -0.1849 12.5793 0.1951 12.4493 0.8551C12.3393 1.4551 12.6993 1.9451 13.2893 2.1651C14.3493 2.5351 15.2993 3.2151 16.0193 4.0951C16.4693 4.6051 17.0493 4.7051 17.5793 4.4051ZM20.6793 4.4051C21.2193 4.7051 21.7893 4.6051 22.2293 4.0951C22.9693 3.2151 23.9093 2.5351 24.9793 2.1651C25.5593 1.9451 25.9193 1.4551 25.8093 0.8551C25.6893 0.1951 25.0393 -0.1849 24.1793 0.1151C22.8193 0.5751 21.4793 1.5051 20.4593 2.7551C19.9893 3.3551 20.1193 4.0651 20.6793 4.4051ZM19.1193 12.0351C19.7293 12.0351 20.2293 11.5251 20.2293 10.9251V7.4451C20.2293 6.8351 19.7293 6.3451 19.1193 6.3451C18.5193 6.3451 18.0293 6.8351 18.0293 7.4451V10.9251C18.0293 11.5251 18.5193 12.0351 19.1193 12.0351ZM19.1193 25.4751C21.7093 25.4751 24.7193 26.2551 26.9593 27.4251C27.5993 27.7751 28.2993 27.6351 28.7493 27.0751L37.6793 15.6851C38.5893 14.5351 38.4293 13.2751 37.2793 12.3751C34.0693 9.9151 28.2993 7.9351 22.0193 7.4451V9.7551C26.8893 10.1851 31.5493 11.6951 35.2993 14.0851C35.6293 14.3051 35.6793 14.5251 35.4293 14.8351L27.6393 24.7451C27.4093 25.0351 27.3093 25.0351 27.0293 24.9451C24.3293 23.8151 21.5393 23.1951 19.1193 23.1951C18.2493 23.1951 17.3093 23.2751 16.3493 23.4351L9.2093 11.1751C11.4493 10.4451 13.8193 9.9651 16.2393 9.7551V7.4451C13.2993 7.6751 10.4593 8.2351 7.9493 9.0151L6.7193 6.8951C6.4193 6.3851 5.7893 6.1851 5.1893 6.4951C4.6293 6.7851 4.4993 7.4851 4.8093 8.0051L5.8193 9.7551C3.8893 10.5151 2.2393 11.4051 0.9793 12.3851C-0.1707 13.2751 -0.3207 14.5351 0.5893 15.6851L9.5093 27.0751C9.9493 27.6351 10.6593 27.7751 11.2993 27.4251C12.4793 26.8151 13.8493 26.3051 15.2693 25.9651L16.7293 28.4951C16.3093 29.0151 16.0493 29.6951 16.0493 30.4251C16.0493 32.1151 17.4293 33.4951 19.1193 33.4951C20.8093 33.4951 22.2093 32.1051 22.2093 30.4251C22.2093 28.7251 20.8193 27.3351 19.1193 27.3351C18.9593 27.3351 18.7993 27.3451 18.6493 27.3751L17.5793 25.5551C18.1093 25.5051 18.6293 25.4751 19.1193 25.4751ZM10.6193 24.7451L2.8293 14.8351C2.5793 14.5251 2.6393 14.3051 2.9493 14.0851C4.2393 13.2651 5.6293 12.5551 7.0893 11.9551L14.0793 23.9451C13.1393 24.2151 12.1793 24.5451 11.2393 24.9451C10.9493 25.0351 10.8493 25.0351 10.6193 24.7451ZM19.1193 19.5551C19.7293 19.5551 20.2293 19.0651 20.2293 18.4551V14.9751C20.2293 14.3751 19.7293 13.8651 19.1193 13.8651C18.5193 13.8651 18.0293 14.3751 18.0293 14.9751V18.4551C18.0293 19.0651 18.5193 19.5551 19.1193 19.5551ZM19.1193 31.6851C18.4293 31.6851 17.8693 31.1151 17.8693 30.4251C17.8693 29.7151 18.4293 29.1251 19.1193 29.1251C19.8193 29.1251 20.4093 29.7251 20.4093 30.4251C20.4093 31.1151 19.8193 31.6851 19.1193 31.6851Z"
        fillRule="evenodd"
        clipRule="evenodd"
    />
</svg>
        