
<svg
    viewBox={0 0 33.49609375 26.436090537112886}
    xmlns="http://www.w3.org/2000/svg"
>
    <path
        fill="inherit"
        d="M31.7337 4.4208C32.2937 4.1008 32.4737 3.3608 31.9737 2.7708C30.9637 1.5308 29.6437 0.5708 28.2337 0.1008C27.4437 -0.1792 26.7537 0.1408 26.6237 0.8308C26.4837 1.4308 26.8637 1.9408 27.4537 2.1508C28.5337 2.5408 29.4737 3.2108 30.2237 4.1108C30.6237 4.5908 31.2137 4.7408 31.7337 4.4208ZM1.7637 4.4208C2.2837 4.7408 2.8737 4.5908 3.2637 4.1108C4.0237 3.2108 4.9637 2.5408 6.0437 2.1508C6.6337 1.9408 7.0037 1.4308 6.8737 0.8308C6.7237 0.1408 6.0537 -0.1792 5.2537 0.1008C3.8537 0.5708 2.5337 1.5308 1.5137 2.7708C1.0237 3.3608 1.2037 4.1008 1.7637 4.4208ZM15.1937 4.4008C15.7537 4.0708 15.8837 3.3408 15.4037 2.7608C14.3937 1.5108 13.0737 0.5708 11.6937 0.1208C10.8237 -0.1992 10.1837 0.2008 10.0637 0.8608C9.9637 1.4408 10.3037 1.9408 10.8937 2.1508C11.9637 2.5408 12.9037 3.2108 13.6437 4.1008C14.0837 4.6108 14.6537 4.7108 15.1937 4.4008ZM18.3037 4.4008C18.8437 4.7108 19.4037 4.6108 19.8537 4.1008C20.5737 3.2108 21.5337 2.5408 22.5837 2.1508C23.1837 1.9408 23.5337 1.4408 23.4237 0.8608C23.3137 0.2008 22.6637 -0.1992 21.8037 0.1208C20.4237 0.5708 19.0837 1.5108 18.0737 2.7608C17.6137 3.3408 17.7337 4.0708 18.3037 4.4008ZM16.7437 11.8108C17.3537 11.8108 17.8437 11.3008 17.8437 10.7008V7.2108C17.8437 6.6108 17.3537 6.1208 16.7437 6.1208C16.1437 6.1208 15.6437 6.6108 15.6437 7.2108V10.7008C15.6437 11.3008 16.1437 11.8108 16.7437 11.8108ZM4.2937 26.4408H29.2037C32.0737 26.4408 33.4937 25.0108 33.4937 22.2008V11.9408C33.4937 9.1308 32.0737 7.7008 29.2037 7.7008H19.8637V9.9108H29.1637C30.5137 9.9108 31.2937 10.6308 31.2937 12.0508V22.0708C31.2937 23.5008 30.5137 24.2308 29.1637 24.2308H4.3237C2.9537 24.2308 2.2037 23.5008 2.2037 22.0708V12.0508C2.2037 10.6308 2.9537 9.9108 4.3237 9.9108H13.6337V7.7008H4.2937C1.4337 7.7008 0.0037 9.1108 0.0037 11.9408V22.2008C0.0037 25.0108 1.4337 26.4408 4.2937 26.4408ZM16.7437 19.3308C17.3537 19.3308 17.8437 18.8308 17.8437 18.2308V14.7508C17.8437 14.1408 17.3537 13.6408 16.7437 13.6408C16.1437 13.6408 15.6437 14.1408 15.6437 14.7508V18.2308C15.6437 18.8308 16.1437 19.3308 16.7437 19.3308Z"
        fillRule="evenodd"
        clipRule="evenodd"
    />
</svg>
        