
<svg
    viewBox="0 0 27.890625 27.890625"
    xmlns="http://www.w3.org/2000/svg"
>
    <path
        fill="inherit"
        d="M13.9427 27.8864C21.6427 27.8864 27.8927 21.6464 27.8927 13.9464C27.8927 6.2464 21.6427 -0.0036 13.9427 -0.0036C6.2527 -0.0036 0.0027 6.2464 0.0027 13.9464C0.0027 21.6464 6.2527 27.8864 13.9427 27.8864ZM13.9427 25.5664C7.5227 25.5664 2.3227 20.3664 2.3227 13.9464C2.3227 7.5164 7.5227 2.3264 13.9427 2.3264C20.3727 2.3264 25.5627 7.5164 25.5627 13.9464C25.5627 20.3664 20.3727 25.5664 13.9427 25.5664ZM6.3727 11.7264C7.5427 11.3464 8.7527 11.1564 9.9227 11.1564C11.4427 11.1564 12.5627 11.3864 14.0127 11.3864C15.5727 11.3864 16.5827 10.3264 16.5827 8.9264C16.5827 7.5064 15.4727 6.4664 14.1227 6.4664C13.1127 6.4664 12.2227 7.1064 11.8627 7.9464C11.7127 8.2764 11.7727 8.6964 12.1727 8.8764C12.4927 9.0364 12.8927 8.9264 13.0927 8.5164C13.2727 8.1164 13.6427 7.8364 14.1227 7.8364C14.7427 7.8364 15.2027 8.2264 15.2027 8.9264C15.2027 9.6064 14.7527 10.0364 14.0127 10.0364C12.6427 10.0364 11.5127 9.7764 9.9227 9.7764C8.5727 9.7764 7.1827 10.0364 5.9627 10.4164C5.5227 10.5564 5.3427 10.9364 5.4727 11.2764C5.5627 11.6464 5.9327 11.8664 6.3727 11.7264ZM19.2627 15.5964C21.2727 15.5964 22.7127 14.3164 22.7127 12.5064C22.7127 10.7464 21.3427 9.4464 19.6427 9.4464C18.0927 9.4464 16.9027 10.5564 16.7027 11.9864C16.6227 12.4264 16.9027 12.7864 17.2527 12.8264C17.6327 12.8764 17.9927 12.6464 18.0727 12.1664C18.1927 11.3764 18.8427 10.8264 19.6427 10.8264C20.6027 10.8264 21.3327 11.4964 21.3327 12.5064C21.3327 13.5664 20.5527 14.2164 19.2627 14.2164C16.7727 14.2164 14.0727 12.7864 10.7227 12.7864C9.0127 12.7864 7.4227 13.0664 5.9427 13.5864C5.5327 13.7364 5.3427 14.1064 5.4727 14.4664C5.5627 14.8364 5.9327 15.0564 6.3827 14.8864C7.7127 14.3864 9.0927 14.1664 10.7227 14.1664C13.9827 14.1664 16.4427 15.5964 19.2627 15.5964ZM14.0227 21.4064C15.3627 21.4064 16.4327 20.4164 16.4327 18.9864C16.4327 16.9164 14.3527 15.7864 10.6127 15.7864C9.0827 15.7864 7.3727 16.0964 5.9327 16.5864C5.5327 16.7464 5.3327 17.1164 5.4727 17.4464C5.5627 17.8164 5.9327 18.0464 6.3827 17.8964C7.6827 17.4364 9.1327 17.1564 10.6127 17.1564C13.5927 17.1564 15.0527 17.8664 15.0527 18.9864C15.0527 19.6764 14.6127 20.0464 14.0227 20.0464C13.4227 20.0464 13.1127 19.6964 13.0027 19.0464C12.9427 18.6864 12.6727 18.3464 12.2327 18.3864C11.7427 18.4164 11.5527 18.8364 11.6027 19.2364C11.7727 20.4364 12.6727 21.4064 14.0227 21.4064Z"
        fillRule="evenodd"
        clipRule="evenodd"
    />
</svg>
        