<svg viewBox="0 0 19.98828125 32.56640625" xmlns="http://www.w3.org/2000/svg"><path d="M9.9837 32.5643C14.9337 32.5643 17.9137 31.3343 17.9137 29.2343C17.9137 27.3043 15.3437 26.1043 11.0237 25.9243V20.0543C16.4437 19.6743 19.9837 16.2043 19.9837 11.1143C19.9837 8.2943 18.8037 4.5943 17.0737 1.9543C16.2737 0.6943 13.6537 0.0043 9.9937 0.0043C6.3037 0.0043 3.7037 0.6943 2.8837 1.9543C1.1637 4.5943 0.0037 8.2943 0.0037 11.1143C0.0037 16.2143 3.5437 19.6743 8.9737 20.0543V25.9243C4.6337 26.0843 2.0637 27.3043 2.0637 29.2343C2.0637 31.3343 5.0337 32.5643 9.9837 32.5643ZM9.9937 3.3743C6.8737 3.3743 4.7837 3.0243 4.7837 2.6143C4.7837 2.2143 6.8937 1.8743 9.9937 1.8743C13.0937 1.8743 15.2037 2.2143 15.2037 2.6143C15.2037 3.0243 13.0937 3.3743 9.9937 3.3743Z" /></svg>