
<svg
    viewBox="0 0 30.5703125 30.5703125"
    xmlns="http://www.w3.org/2000/svg"
>
    <path
        fill="inherit"
        d="M15.2827 30.5663C23.6827 30.5663 30.5727 23.6763 30.5727 15.2863C30.5727 6.8863 23.6827 -0.0038 15.2827 -0.0038C6.8927 -0.0038 0.0027 6.8863 0.0027 15.2863C0.0027 23.6763 6.8927 30.5663 15.2827 30.5663ZM15.2827 25.4862C9.6527 25.4862 5.0827 20.9162 5.0827 15.2863C5.0827 9.6363 9.6527 5.0863 15.2827 5.0863C20.9327 5.0863 25.4827 9.6363 25.4827 15.2863C25.4827 20.9162 20.9327 25.4862 15.2827 25.4862ZM7.5227 15.2863C7.5227 15.5563 7.7227 15.7663 8.0027 15.7663H9.7027L10.7227 20.7563C10.8327 21.2863 11.2127 21.6263 11.7827 21.6263C12.2927 21.6263 12.6727 21.2963 12.8127 20.7763L14.1527 15.7663H16.4327L17.7627 20.7763C17.8927 21.3263 18.2627 21.6263 18.8127 21.6263C19.3727 21.6263 19.7727 21.3163 19.8627 20.7563L20.8927 15.7663H22.5827C22.8627 15.7663 23.0627 15.5563 23.0627 15.2863C23.0627 15.0263 22.8627 14.8363 22.5827 14.8363H21.0727L22.0127 10.1863C22.0427 10.0863 22.0527 9.9363 22.0527 9.8063C22.0527 9.3263 21.6727 9.0763 21.2627 9.0763C20.9227 9.0763 20.5627 9.3063 20.4927 9.7163L19.5927 14.8363H17.4427L16.1327 9.7863C16.0127 9.3363 15.7527 9.1063 15.3027 9.1063C14.8727 9.1063 14.5927 9.3563 14.4627 9.8163L13.1427 14.8363H10.9927L10.0927 9.7163C10.0327 9.3363 9.7027 9.0763 9.3127 9.0763C8.8427 9.0763 8.5327 9.3563 8.5327 9.8063C8.5327 9.8963 8.5427 10.0463 8.5727 10.1962L9.5127 14.8363H8.0027C7.7227 14.8363 7.5227 15.0263 7.5227 15.2863ZM15.2427 11.6063H15.3427L16.1827 14.8363H14.3927ZM11.8227 19.5463L11.1527 15.7663H12.9027L11.9127 19.5463ZM18.6727 19.5463L17.6927 15.7663H19.4327L18.7627 19.5463Z"
        fillRule="evenodd"
        clipRule="evenodd"
    />
</svg>
        