
<svg
    viewBox={0 0 25.169921875 25.169921875}
    xmlns="http://www.w3.org/2000/svg"
>
    <path
        fill="inherit"
        d="M4.2937 25.1692H20.8737C23.7437 25.1692 25.1737 23.7592 25.1737 20.9492V4.2392C25.1737 1.4192 23.7437 -0.0008 20.8737 -0.0008H4.2937C1.4337 -0.0008 0.0037 1.4192 0.0037 4.2392V20.9492C0.0037 23.7592 1.4337 25.1692 4.2937 25.1692ZM4.3237 22.9692C2.9537 22.9692 2.2037 22.2392 2.2037 20.8192V4.3592C2.2037 2.9392 2.9537 2.1992 4.3237 2.1992H20.8537C22.2037 2.1992 22.9737 2.9392 22.9737 4.3592V20.8192C22.9737 22.2392 22.2037 22.9692 20.8537 22.9692ZM4.8237 12.5792C4.8237 12.8492 5.0337 13.0592 5.3037 13.0592H7.0137L8.0237 18.0492C8.1337 18.5792 8.5137 18.9192 9.0937 18.9192C9.5937 18.9192 9.9837 18.5892 10.1137 18.0692L11.4537 13.0592H13.7437L15.0637 18.0692C15.2037 18.6192 15.5737 18.9192 16.1237 18.9192C16.6837 18.9192 17.0737 18.6092 17.1737 18.0492L18.1937 13.0592H19.8937C20.1637 13.0592 20.3737 12.8492 20.3737 12.5792C20.3737 12.3192 20.1637 12.1292 19.8937 12.1292H18.3737L19.3137 7.4792C19.3437 7.3792 19.3637 7.2292 19.3637 7.0992C19.3637 6.6192 18.9937 6.3692 18.5637 6.3692C18.2237 6.3692 17.8837 6.5992 17.8037 7.0092L16.8937 12.1292H14.7537L13.4437 7.0792C13.3137 6.6292 13.0537 6.3992 12.6037 6.3992C12.1837 6.3992 11.8937 6.6492 11.7737 7.1092L10.4437 12.1292H8.3037L7.3937 7.0092C7.3437 6.6292 7.0137 6.3692 6.6137 6.3692C6.1537 6.3692 5.8337 6.6492 5.8337 7.0992C5.8337 7.1892 5.8537 7.3392 5.8837 7.4892L6.8237 12.1292H5.3037C5.0337 12.1292 4.8237 12.3192 4.8237 12.5792ZM12.5537 8.8992H12.6437L13.4937 12.1292H11.7037ZM9.1337 16.8392L8.4637 13.0592H10.2137L9.2137 16.8392ZM15.9837 16.8392L14.9937 13.0592H16.7337L16.0637 16.8392Z"
        fillRule="evenodd"
        clipRule="evenodd"
    />
</svg>
        