
<svg
    viewBox="0 0 30.544813437289534 27.890625"
    xmlns="http://www.w3.org/2000/svg"
>
    <path
        fill="inherit"
        d="M0.9769 11.3064C-0.0131 11.3064 -0.2531 11.9764 0.2769 12.7464L3.3369 17.0864C3.7869 17.7164 4.4469 17.7064 4.8869 17.0864L7.9269 12.7264C8.4669 11.9764 8.2069 11.3064 7.2469 11.3064H5.2769C6.4669 6.1564 11.0769 2.3264 16.5969 2.3264C23.0269 2.3264 28.2169 7.5164 28.2169 13.9464C28.2169 20.3664 23.0269 25.5664 16.5969 25.5664C12.7169 25.5664 9.2569 23.6564 7.1969 20.7564C6.7669 20.1964 6.1269 20.0164 5.5569 20.3564C5.0069 20.6964 4.8369 21.4664 5.3069 22.0664C7.8369 25.6064 11.9769 27.8864 16.5969 27.8864C24.2969 27.8864 30.5469 21.6464 30.5469 13.9464C30.5469 6.2464 24.2969 -0.0036 16.5969 -0.0036C9.8069 -0.0036 4.1269 4.8664 2.8969 11.3064ZM8.8369 13.9464C8.8369 14.2164 9.0369 14.4264 9.3169 14.4264H11.0069L12.0369 19.4164C12.1269 19.9464 12.5269 20.2864 13.0969 20.2864C13.6069 20.2864 13.9869 19.9564 14.1269 19.4364L15.4669 14.4264H17.7469L19.0769 19.4364C19.2069 19.9864 19.5669 20.2864 20.1269 20.2864C20.6869 20.2864 21.0669 19.9764 21.1769 19.4164L22.1869 14.4264H23.8969C24.1769 14.4264 24.3769 14.2164 24.3769 13.9464C24.3769 13.6864 24.1769 13.4964 23.8969 13.4964H22.3869L23.3269 8.8464C23.3369 8.7464 23.3569 8.5964 23.3569 8.4664C23.3569 7.9864 22.9869 7.7364 22.5769 7.7364C22.2169 7.7364 21.8769 7.9664 21.8069 8.3764L20.9069 13.4964H18.7569L17.4369 8.4464C17.3269 7.9964 17.0669 7.7664 16.6169 7.7664C16.1869 7.7664 15.9069 8.0164 15.7769 8.4764L14.4569 13.4964H12.3069L11.4069 8.3764C11.3469 7.9964 11.0169 7.7364 10.6269 7.7364C10.1569 7.7364 9.8369 8.0164 9.8369 8.4664C9.8369 8.5564 9.8469 8.7064 9.8869 8.8564L10.8269 13.4964H9.3169C9.0369 13.4964 8.8369 13.6864 8.8369 13.9464ZM16.5569 10.2664H16.6569L17.4969 13.4964H15.7069ZM13.1369 18.2064L12.4669 14.4264H14.2169L13.2269 18.2064ZM19.9869 18.2064L18.9969 14.4264H20.7469L20.0769 18.2064Z"
        fillRule="evenodd"
        clipRule="evenodd"
    />
</svg>
        