
<svg
    viewBox="0 0 32.935546875 27.26189615322232"
    xmlns="http://www.w3.org/2000/svg"
>
    <path
        fill="inherit"
        d="M32.9327 16.3992C32.9327 7.7792 26.3227 0.7192 17.8927 -0.0008C17.4627 -0.0408 17.1327 0.2792 17.1327 0.7192V5.1892C17.1327 5.5592 17.3927 5.8392 17.7627 5.8692C22.9927 6.5092 27.0727 10.9792 27.0727 16.3992C27.0727 18.8592 26.2227 21.1292 24.7327 23.0292C24.5427 23.2592 24.5527 23.5592 24.7627 23.7792L28.0227 27.0292C28.3327 27.3292 28.7927 27.3292 29.0627 27.0092C31.4827 24.1392 32.9327 20.4292 32.9327 16.3992ZM0.0027 16.3992C0.0027 20.4392 1.4527 24.1492 3.8727 27.0192C4.1427 27.3492 4.5927 27.3292 4.9127 27.0292L8.1727 23.7792C8.3827 23.5592 8.3927 23.2592 8.2027 23.0292C6.7027 21.1292 5.8627 18.8592 5.8627 16.3992C5.8627 10.9792 9.9427 6.5092 15.1727 5.8692C15.5427 5.8392 15.8027 5.5592 15.8027 5.1892V0.7192C15.8027 0.2792 15.4727 -0.0408 15.0427 -0.0008C6.6127 0.7192 0.0027 7.7792 0.0027 16.3992ZM8.6827 16.5692C8.6827 16.8492 8.8827 17.0492 9.1627 17.0492H10.8727L11.8827 22.0592C11.9927 22.5892 12.3827 22.9192 12.9427 22.9192C13.4527 22.9192 13.8527 22.5992 13.9827 22.0792L15.3127 17.0492H17.5927L18.9227 22.0792C19.0627 22.6192 19.4327 22.9192 19.9727 22.9192C20.5327 22.9192 20.9327 22.6192 21.0427 22.0592L22.0527 17.0492H23.7627C24.0227 17.0492 24.2227 16.8492 24.2227 16.5692C24.2227 16.3092 24.0227 16.1192 23.7627 16.1192H22.2327L23.1727 11.4892C23.2027 11.3792 23.2127 11.2292 23.2127 11.1092C23.2127 10.6092 22.8427 10.3792 22.4227 10.3792C22.0827 10.3792 21.7427 10.5992 21.6527 11.0192L20.7527 16.1192H18.6027L17.2927 11.0792C17.1827 10.6392 16.9127 10.3892 16.4627 10.3892C16.0527 10.3892 15.7527 10.6492 15.6227 11.1092L14.3127 16.1192H12.1727L11.2627 11.0192C11.1927 10.6292 10.8827 10.3792 10.4827 10.3792C10.0127 10.3792 9.6927 10.6392 9.6927 11.0892C9.6927 11.1892 9.7027 11.3392 9.7327 11.4892L10.6827 16.1192H9.1627C8.8827 16.1192 8.6827 16.3092 8.6827 16.5692ZM16.4227 12.8992H16.5027L17.3527 16.1192H15.5627ZM13.0027 20.8492L12.3327 17.0492H14.0727L13.0727 20.8492ZM19.8427 20.8492L18.8527 17.0492H20.5927L19.9227 20.8492Z"
        fillRule="evenodd"
        clipRule="evenodd"
    />
</svg>
        