
<svg
    viewBox="0 0 30.529296875 29.17578125"
    xmlns="http://www.w3.org/2000/svg"
>
    <path
        fill="inherit"
        d="M1.8137 25.919H28.7137V25.009C28.7137 24.459 28.3937 24.129 27.8337 24.129H26.9637V9.379H28.1637C28.9137 9.379 29.3537 8.829 29.3537 8.269C29.3537 7.859 29.1237 7.509 28.6137 7.219L16.9437 0.479C16.3937 0.169 15.8137 -0.001 15.2537 -0.001C14.6937 -0.001 14.1137 0.169 13.5937 0.479L1.9137 7.219C1.3937 7.509 1.1737 7.859 1.1737 8.269C1.1737 8.829 1.6137 9.379 2.3637 9.379H3.5637V24.129H2.7037C2.1437 24.129 1.8137 24.459 1.8137 25.009ZM5.6337 24.129V7.629L14.7237 2.529C14.8937 2.429 15.0837 2.379 15.2537 2.379C15.4337 2.379 15.6237 2.429 15.8037 2.529L24.8937 7.629V24.129ZM7.5037 14.379C7.5037 14.659 7.7137 14.859 7.9837 14.859H9.6837L10.7037 19.869C10.8037 20.399 11.1937 20.729 11.7737 20.729C12.2637 20.729 12.6637 20.409 12.7937 19.889L14.1337 14.859H16.4237L17.7337 19.889C17.8837 20.429 18.2337 20.729 18.7837 20.729C19.3637 20.729 19.7437 20.429 19.8537 19.869L20.8637 14.859H22.5737C22.8437 14.859 23.0537 14.659 23.0537 14.379C23.0537 14.119 22.8437 13.929 22.5737 13.929H21.0537L21.9937 9.299C22.0137 9.189 22.0237 9.039 22.0237 8.919C22.0237 8.419 21.6537 8.189 21.2437 8.189C20.8937 8.189 20.5537 8.409 20.4837 8.829L19.5637 13.929H17.4337L16.1037 8.889C15.9937 8.449 15.7337 8.199 15.2837 8.199C14.8637 8.199 14.5737 8.459 14.4537 8.919L13.1237 13.929H10.9737L10.0737 8.829C10.0037 8.439 9.6937 8.189 9.2937 8.189C8.8337 8.189 8.5037 8.449 8.5037 8.899C8.5037 8.999 8.5137 9.149 8.5537 9.299L9.5037 13.929H7.9837C7.7137 13.929 7.5037 14.119 7.5037 14.379ZM15.2337 10.709H15.3237L16.1737 13.929H14.3837ZM11.8137 18.659L11.1437 14.859H12.8937L11.8937 18.659ZM18.6637 18.659L17.6637 14.859H19.4137L18.7337 18.659ZM1.0937 29.179H29.4237C30.0237 29.179 30.5337 28.669 30.5337 28.069C30.5337 27.469 30.0237 26.979 29.4237 26.979H1.0937C0.4937 26.979 0.0037 27.469 0.0037 28.069C0.0037 28.669 0.4937 29.179 1.0937 29.179Z"
        fillRule="evenodd"
        clipRule="evenodd"
    />
</svg>
        