<svg viewBox="0 0 27.890625 27.890625" xmlns="http://www.w3.org/2000/svg"><path d="M13.9427 27.8864C21.6427 27.8864 27.8927 21.6264 27.8927 13.9464C27.8927 6.2464 21.6427 -0.0036 13.9427 -0.0036C6.2627 -0.0036 0.0027 6.2464 0.0027 13.9464C0.0027 21.6264 6.2627 27.8864 13.9427 27.8864ZM10.3327 20.4964C9.7327 20.4964 9.3227 20.1364 9.2327 19.5764L8.1727 14.4364H6.4227C6.1427 14.4364 5.9327 14.2364 5.9327 13.9464C5.9327 13.6764 6.1427 13.4764 6.4227 13.4764H7.9827L7.0127 8.6964C6.9827 8.5464 6.9727 8.3764 6.9727 8.2864C6.9727 7.8164 7.3027 7.5364 7.7827 7.5364C8.1927 7.5364 8.5327 7.8064 8.5827 8.2064L9.5127 13.4764H11.7327L13.0927 8.2964C13.2227 7.8164 13.5227 7.5564 13.9627 7.5564C14.4227 7.5564 14.6927 7.8064 14.8027 8.2764L16.1727 13.4764H18.3727L19.3227 8.2064C19.3827 7.7764 19.7427 7.5364 20.1127 7.5364C20.5327 7.5364 20.9227 7.7964 20.9227 8.2864C20.9227 8.4364 20.9027 8.5864 20.8927 8.6864L19.9227 13.4764H21.4827C21.7627 13.4764 21.9727 13.6764 21.9727 13.9464C21.9727 14.2364 21.7627 14.4364 21.4827 14.4364H19.7327L18.6727 19.5764C18.5627 20.1664 18.1727 20.4964 17.5827 20.4964C17.0127 20.4964 16.6427 20.1764 16.4927 19.6064L15.1227 14.4364H12.7727L11.4027 19.6064C11.2527 20.1564 10.8527 20.4964 10.3327 20.4964ZM13.0127 13.4764H14.8727L14.0027 10.1564H13.9027ZM9.6827 14.4364L10.3727 18.3364H10.4627L11.5027 14.4364ZM16.4227 14.4364L17.4427 18.3364H17.5227L18.2127 14.4364Z" /></svg>