<svg viewBox="0 0 30.857421875 25.087890625" xmlns="http://www.w3.org/2000/svg"><path d="M0.0037 12.4319C0.0037 12.9519 0.3937 13.3319 0.9337 13.3319H4.3337L6.4637 23.6119C6.6537 24.5319 7.3537 25.0919 8.3237 25.0919C9.2237 25.0919 9.9237 24.5519 10.1537 23.6619L12.9637 13.3319H17.8837L20.7037 23.6619C20.9337 24.5519 21.6337 25.0919 22.5037 25.0919C23.4837 25.0919 24.1837 24.5319 24.3737 23.6119L26.5137 13.3319H29.9237C30.4637 13.3319 30.8537 12.9519 30.8537 12.4319C30.8537 11.9119 30.4637 11.5219 29.9237 11.5219H26.8837L28.8637 1.9819C28.9137 1.7219 28.9437 1.5019 28.9437 1.2319C28.9437 0.4619 28.3237 0.0019 27.5737 0.0019C26.8637 0.0019 26.3437 0.4119 26.2237 1.1219L24.2837 11.5219H19.6437L16.8537 1.2019C16.6537 0.4519 16.1737 0.0519 15.4537 0.0519C14.6737 0.0519 14.1637 0.4619 13.9737 1.2619L11.1937 11.5219H6.5637L4.6037 1.1119C4.4837 0.3519 3.9237 0.0019 3.2837 0.0019C2.5037 0.0019 1.9037 0.4819 1.9037 1.2119C1.9037 1.4219 1.9437 1.7619 1.9837 1.9919L3.9637 11.5219H0.9337C0.3937 11.5219 0.0037 11.9119 0.0037 12.4319ZM15.3437 4.5919H15.5037L17.3937 11.5219H13.4537ZM8.3937 21.3919L6.8937 13.3319H10.7237L8.5337 21.3919ZM22.3137 21.3919L20.1237 13.3319H23.9537L22.4537 21.3919Z" /></svg>