<svg viewBox="0 0 32.935546875 27.33018496744969" xmlns="http://www.w3.org/2000/svg"><path d="M16.4627 5.864C18.9327 5.864 21.2027 6.724 23.0227 8.134C23.2927 8.354 23.6527 8.324 23.9127 8.064L27.0827 4.894C27.4027 4.584 27.3827 4.124 27.0527 3.854C24.2027 1.454 20.4927 0.004 16.4627 0.004C12.4427 0.004 8.7327 1.454 5.8827 3.854C5.5527 4.124 5.5327 4.584 5.8527 4.894L9.0227 8.064C9.2827 8.324 9.6527 8.354 9.9527 8.124C11.7627 6.724 14.0127 5.864 16.4627 5.864ZM0.0027 16.464C0.0027 20.494 1.4527 24.204 3.8727 27.074C4.1427 27.414 4.6027 27.414 4.9127 27.094L8.1627 23.844C8.3627 23.624 8.3927 23.324 8.2027 23.094C6.7127 21.194 5.8627 18.924 5.8627 16.464C5.8627 14.014 6.7027 11.744 8.1227 9.944C8.3427 9.654 8.3427 9.284 8.0827 9.024L4.9127 5.854C4.5927 5.534 4.1427 5.534 3.8727 5.864C1.4527 8.734 0.0027 12.444 0.0027 16.464ZM32.9327 16.464C32.9327 12.444 31.4827 8.734 29.0627 5.864C28.7927 5.534 28.3327 5.534 28.0227 5.854L24.8527 9.024C24.5927 9.284 24.5827 9.654 24.8127 9.944C26.2227 11.744 27.0727 14.014 27.0727 16.464C27.0727 18.924 26.2227 21.194 24.7327 23.094C24.5427 23.324 24.5527 23.624 24.7627 23.844L28.0127 27.094C28.3327 27.414 28.7827 27.414 29.0627 27.074C31.4827 24.204 32.9327 20.494 32.9327 16.464ZM8.6827 16.634C8.6827 16.914 8.8827 17.114 9.1627 17.114H10.8727L11.8827 22.124C11.9927 22.654 12.3827 22.984 12.9427 22.984C13.4527 22.984 13.8527 22.664 13.9827 22.144L15.3127 17.114H17.5927L18.9227 22.144C19.0627 22.684 19.4327 22.984 19.9727 22.984C20.5327 22.984 20.9327 22.684 21.0427 22.124L22.0527 17.114H23.7627C24.0227 17.114 24.2227 16.914 24.2227 16.634C24.2227 16.374 24.0227 16.184 23.7627 16.184H22.2327L23.1727 11.554C23.2027 11.444 23.2127 11.294 23.2127 11.174C23.2127 10.674 22.8427 10.444 22.4227 10.444C22.0827 10.444 21.7427 10.664 21.6527 11.084L20.7527 16.184H18.6027L17.2927 11.144C17.1827 10.704 16.9127 10.454 16.4627 10.454C16.0527 10.454 15.7527 10.714 15.6227 11.174L14.3127 16.184H12.1727L11.2627 11.084C11.1927 10.694 10.8827 10.444 10.4827 10.444C10.0127 10.444 9.6927 10.704 9.6927 11.154C9.6927 11.254 9.7027 11.404 9.7327 11.554L10.6827 16.184H9.1627C8.8827 16.184 8.6827 16.374 8.6827 16.634ZM16.4227 12.964H16.5027L17.3527 16.184H15.5627ZM13.0027 20.914L12.3327 17.114H14.0727L13.0727 20.914ZM19.8427 20.914L18.8527 17.114H20.5927L19.9227 20.914Z" /></svg>