
<svg
    viewBox={0 0 30.529296875 29.17578125}
    xmlns="http://www.w3.org/2000/svg"
>
    <path
        fill="inherit"
        d="M1.0937 29.179H29.4237C30.0237 29.179 30.5337 28.669 30.5337 28.069C30.5337 27.469 30.0237 26.979 29.4237 26.979H28.7137V25.979C28.7137 25.429 28.3937 25.099 27.8337 25.099H26.9637V9.379H28.1637C28.9137 9.379 29.3537 8.829 29.3537 8.269C29.3537 7.859 29.1237 7.509 28.6137 7.219L16.9437 0.479C16.3937 0.169 15.8137 -0.001 15.2537 -0.001C14.6937 -0.001 14.1137 0.169 13.5937 0.479L1.9137 7.219C1.3937 7.509 1.1737 7.859 1.1737 8.269C1.1737 8.829 1.6137 9.379 2.3637 9.379H3.5637V25.099H2.7037C2.1437 25.099 1.8137 25.429 1.8137 25.979V26.979H1.0937C0.4937 26.979 0.0037 27.469 0.0037 28.069C0.0037 28.669 0.4937 29.179 1.0937 29.179ZM11.6637 22.149C11.0637 22.149 10.6537 21.809 10.5537 21.249L9.5037 16.089H7.7537C7.4637 16.089 7.2637 15.889 7.2637 15.609C7.2637 15.329 7.4637 15.149 7.7537 15.149H9.3137L8.3437 10.359C8.3037 10.199 8.2837 10.039 8.2837 9.939C8.2837 9.489 8.6237 9.199 9.1037 9.199C9.5137 9.199 9.8437 9.479 9.9137 9.869L10.8437 15.149H13.0537L14.4237 9.969C14.5437 9.489 14.8437 9.219 15.2837 9.219C15.7537 9.219 16.0237 9.479 16.1337 9.939L17.5037 15.149H19.7037L20.6337 9.869C20.7137 9.429 21.0637 9.199 21.4337 9.199C21.8637 9.199 22.2437 9.459 22.2437 9.949C22.2437 10.099 22.2337 10.239 22.2137 10.349L21.2437 15.149H22.8037C23.0937 15.149 23.2937 15.329 23.2937 15.609C23.2937 15.889 23.0937 16.089 22.8037 16.089H21.0537L20.0037 21.249C19.8937 21.829 19.4937 22.149 18.8937 22.149C18.3337 22.149 17.9637 21.829 17.8037 21.269L16.4437 16.089H14.0937L12.7237 21.269C12.5737 21.819 12.1637 22.149 11.6637 22.149ZM14.3437 15.149H16.2037L15.3237 11.809H15.2337ZM11.0037 16.089L11.7037 19.999H11.7837L12.8237 16.089ZM17.7437 16.089L18.7737 19.999H18.8437L19.5337 16.089Z"
        fillRule="evenodd"
        clipRule="evenodd"
    />
</svg>
        