
<svg
    viewBox="0 0 25.169921875 25.169921875"
    xmlns="http://www.w3.org/2000/svg"
>
    <path
        fill="inherit"
        d="M4.2937 25.1692H20.8737C23.7437 25.1692 25.1737 23.7592 25.1737 20.9492V4.2392C25.1737 1.4192 23.7437 -0.0008 20.8737 -0.0008H4.2937C1.4337 -0.0008 0.0037 1.4192 0.0037 4.2392V20.9492C0.0037 23.7592 1.4337 25.1692 4.2937 25.1692ZM8.9837 19.1292C8.3837 19.1292 7.9837 18.7692 7.8737 18.2092L6.8237 13.0692H5.0737C4.7837 13.0692 4.5837 12.8692 4.5837 12.5792C4.5837 12.3092 4.7837 12.1092 5.0737 12.1092H6.6337L5.6637 7.3292C5.6337 7.1792 5.6237 7.0092 5.6237 6.9192C5.6237 6.4492 5.9437 6.1692 6.4237 6.1692C6.8337 6.1692 7.1737 6.4392 7.2337 6.8392L8.1737 12.1092H10.3737L11.7437 6.9292C11.8637 6.4492 12.1637 6.1892 12.6037 6.1892C13.0737 6.1892 13.3437 6.4392 13.4637 6.9092L14.8237 12.1092H17.0337L17.9637 6.8392C18.0437 6.4092 18.4037 6.1692 18.7537 6.1692C19.1837 6.1692 19.5737 6.4292 19.5737 6.9192C19.5737 7.0692 19.5637 7.2192 19.5337 7.3192L18.5637 12.1092H20.1237C20.4137 12.1092 20.6137 12.3092 20.6137 12.5792C20.6137 12.8692 20.4137 13.0692 20.1237 13.0692H18.3737L17.3237 18.2092C17.2237 18.7992 16.8137 19.1292 16.2237 19.1292C15.6637 19.1292 15.2837 18.8092 15.1337 18.2392L13.7637 13.0692H11.4137L10.0537 18.2392C9.8937 18.7892 9.5037 19.1292 8.9837 19.1292ZM11.6737 12.1092H13.5337L12.6437 8.7892H12.5537ZM8.3437 13.0692L9.0337 16.9692H9.1037L10.1437 13.0692ZM15.0637 13.0692L16.0937 16.9692H16.1737L16.8737 13.0692Z"
        fillRule="evenodd"
        clipRule="evenodd"
    />
</svg>
        