<svg viewBox="0 0 27.890625 27.890625" xmlns="http://www.w3.org/2000/svg"><path d="M13.9427 27.8864C21.6427 27.8864 27.8927 21.6464 27.8927 13.9464C27.8927 6.2464 21.6427 -0.0036 13.9427 -0.0036C6.2527 -0.0036 0.0027 6.2464 0.0027 13.9464C0.0027 21.6464 6.2527 27.8864 13.9427 27.8864ZM13.9427 25.5664C7.5227 25.5664 2.3227 20.3664 2.3227 13.9464C2.3227 7.5164 7.5227 2.3264 13.9427 2.3264C20.3727 2.3264 25.5627 7.5164 25.5627 13.9464C25.5627 20.3664 20.3727 25.5664 13.9427 25.5664ZM6.1627 13.9464C6.1627 14.2164 6.3727 14.4264 6.6427 14.4264H8.3427L9.3627 19.4164C9.4627 19.9464 9.8527 20.2864 10.4327 20.2864C10.9327 20.2864 11.3227 19.9564 11.4527 19.4364L12.7927 14.4264H15.0827L16.4027 19.4364C16.5427 19.9864 16.9027 20.2864 17.4627 20.2864C18.0227 20.2864 18.4027 19.9764 18.5127 19.4164L19.5227 14.4264H21.2327C21.5027 14.4264 21.7127 14.2164 21.7127 13.9464C21.7127 13.6864 21.5027 13.4964 21.2327 13.4964H19.7127L20.6627 8.8464C20.6727 8.7464 20.6827 8.5964 20.6827 8.4664C20.6827 7.9864 20.3127 7.7364 19.9027 7.7364C19.5527 7.7364 19.2127 7.9664 19.1427 8.3764L18.2427 13.4964H16.0927L14.7627 8.4464C14.6527 7.9964 14.3927 7.7664 13.9427 7.7664C13.5227 7.7664 13.2327 8.0164 13.1127 8.4764L11.7827 13.4964H9.6427L8.7327 8.3764C8.6827 7.9964 8.3527 7.7364 7.9527 7.7364C7.4927 7.7364 7.1627 8.0164 7.1627 8.4664C7.1627 8.5564 7.1827 8.7064 7.2227 8.8564L8.1627 13.4964H6.6427C6.3727 13.4964 6.1627 13.6864 6.1627 13.9464ZM13.8927 10.2664H13.9827L14.8327 13.4964H13.0427ZM10.4727 18.2064L9.8027 14.4264H11.5527L10.5527 18.2064ZM17.3227 18.2064L16.3227 14.4264H18.0727L17.4027 18.2064Z" /></svg>