<svg viewBox="0 0 32.48574798528134 32.11836868684613" xmlns="http://www.w3.org/2000/svg"><path d="M2.1388 30.3421C4.5188 32.6921 7.6988 32.7221 10.0388 30.3721C12.3088 28.0721 12.5588 25.5521 16.6888 20.3221L22.8088 26.4421L22.8788 27.8921C22.8888 28.3221 23.1788 28.7921 23.6488 29.0321L28.2288 31.5321C28.6388 31.7321 28.9588 31.8021 29.2388 31.5321L30.8388 29.9321C31.0988 29.6721 31.0388 29.3421 30.8088 28.9021L28.3288 24.3521C28.0888 23.9021 27.6188 23.6021 27.1688 23.5821L25.7188 23.5221L19.3788 17.1721C20.0088 16.4821 20.7088 15.7421 21.4788 14.9621C24.4088 16.3421 27.9488 15.8721 30.2988 13.5421C32.7588 11.0821 33.1888 7.1921 31.3588 4.0521L30.0288 5.3921L27.6388 7.7721C27.2688 8.1421 26.7988 8.1621 26.4088 7.7721L24.7388 6.0821C24.3388 5.6721 24.2988 5.2021 24.6688 4.8321L27.0588 2.4621L28.3988 1.1221C25.2888 -0.6979 21.4188 -0.2879 18.9588 2.1921C16.7688 4.3821 16.2088 7.5921 17.2588 10.3921L9.0688 2.1521C7.1388 0.2321 5.0888 0.2321 3.2188 2.1121L1.3988 3.9221C-0.4712 5.8021 -0.4712 7.8521 1.4388 9.7621L9.4488 17.7621C5.9688 20.0821 3.9588 20.5921 2.1088 22.4221C-0.2512 24.7621 -0.2312 27.9621 2.1388 30.3421ZM23.2888 7.1821L25.3088 9.1921C26.3188 10.2021 27.6188 10.2321 28.5788 9.2621L30.5988 7.2221C30.8888 9.0721 30.3388 10.9221 29.0188 12.2621C26.7088 14.5821 22.8788 14.4721 20.4288 12.0521C17.9988 9.6121 17.8988 5.7621 20.2288 3.4621C21.5488 2.1521 23.4088 1.5921 25.2188 1.8621L23.2188 3.8721C22.2088 4.8721 22.2388 6.1521 23.2888 7.1821ZM11.4088 11.1221L5.9888 5.6621C5.7888 5.4621 5.7788 5.1321 5.9888 4.9121C6.1888 4.7021 6.5388 4.6921 6.7588 4.9121L12.1888 10.3221C12.3888 10.5321 12.3888 10.8721 12.1688 11.1221C11.9988 11.3121 11.6088 11.3321 11.4088 11.1221ZM9.6188 12.8821L4.1888 7.4821C3.9688 7.2621 3.9788 6.9221 4.1888 6.6921C4.4088 6.4821 4.7588 6.5121 4.9588 6.6921L10.3988 12.1321C10.6188 12.3521 10.5988 12.6721 10.3988 12.8821C10.1888 13.1021 9.8388 13.1021 9.6188 12.8821ZM19.1488 13.3221C19.4188 13.5821 19.6888 13.8421 19.9888 14.0621C10.5288 23.7621 11.9388 25.7221 8.6488 29.0021C7.1288 30.5321 5.0788 30.5421 3.4888 28.9921C1.9188 27.3921 1.9488 25.3521 3.4488 23.8321C6.7588 20.5421 8.7188 21.9421 18.4188 12.4821C18.6388 12.7721 18.8888 13.0421 19.1488 13.3221ZM6.0388 28.1721C6.9688 28.1721 7.7288 27.4021 7.7288 26.4721C7.7288 25.5421 6.9688 24.7921 6.0388 24.7921C5.1088 24.7921 4.3488 25.5421 4.3488 26.4721C4.3488 27.4021 5.1088 28.1721 6.0388 28.1721Z" /></svg>