
<svg
    viewBox={0 0 31.815909053798233 32.50911276855624}
    xmlns="http://www.w3.org/2000/svg"
>
    <path
        fill="inherit"
        d="M1.6814 30.8469C3.9414 33.0969 7.2214 33.1269 9.5114 30.5269C11.9714 27.7169 14.8514 22.3569 18.7714 18.4269C21.8214 15.3669 25.2814 18.3469 29.4714 14.3269C31.1614 12.7269 32.0914 10.4369 31.7414 8.7669L26.4914 10.1969C25.6114 10.4369 24.9914 9.8769 24.7214 8.9269L24.3214 7.5469C24.0514 6.6069 24.3814 5.8069 25.2514 5.5769L30.4914 4.1569C30.3414 3.6769 29.8814 3.0269 29.3214 2.4469C26.1714 -0.7931 20.8814 -0.7331 17.8314 2.1469C13.2614 6.4769 16.7214 11.0569 13.7214 14.0569C10.1414 17.6269 4.7814 20.5469 1.9814 23.0069C-0.6286 25.2969 -0.5886 28.5769 1.6814 30.8469ZM2.9814 29.5369C1.5014 28.0269 1.5214 25.7969 3.2414 24.2869C6.0714 21.8069 11.8014 18.5969 15.0414 15.3569C18.5614 11.8269 14.8314 7.4269 19.1514 3.4469C21.3314 1.4369 25.0614 1.2869 27.5714 3.2169L24.8814 3.9069C22.8814 4.4469 22.0114 5.9769 22.6114 8.0569L22.9914 9.3769L24.5114 14.9469C22.1514 15.2869 19.7114 14.8769 17.4614 17.1169C13.9014 20.6769 10.7214 26.4269 8.2414 29.2769C6.7014 31.0469 4.4614 31.0469 2.9814 29.5369ZM18.6114 10.4069L21.5514 9.6269C21.8014 9.5569 21.9614 9.2969 21.8714 9.0069C21.8214 8.7469 21.5514 8.5969 21.3014 8.6669L18.3314 9.4569C18.0714 9.5269 17.9414 9.8069 18.0014 10.0469C18.0714 10.3369 18.3214 10.4869 18.6114 10.4069ZM18.9714 11.9069L21.9014 11.1269C22.1614 11.0569 22.3214 10.7969 22.2414 10.5169C22.1714 10.2569 21.9014 10.1169 21.6514 10.1769L18.7014 10.9769C18.4414 11.0369 18.2914 11.3069 18.3614 11.5569C18.4414 11.8369 18.6914 11.9869 18.9714 11.9069ZM26.8414 11.8369L29.6714 11.0769C29.3514 11.8169 28.9014 12.5469 28.2414 13.1969C27.4214 13.9769 26.5914 14.4069 25.7414 14.6669L24.9814 11.8769C25.5214 12.0469 26.1514 12.0369 26.8414 11.8369ZM19.3314 13.4169L22.3014 12.6169C22.5414 12.5469 22.6914 12.2769 22.6314 12.0169C22.5714 11.7769 22.3114 11.6069 22.0414 11.6869L19.0814 12.4869C18.8214 12.5469 18.6914 12.8069 18.7414 13.0569C18.7814 13.3569 19.0714 13.4769 19.3314 13.4169ZM5.5514 28.6669C6.4814 28.6669 7.2314 27.9169 7.2314 26.9869C7.2314 26.0569 6.4814 25.2969 5.5514 25.2969C4.6214 25.2969 3.8514 26.0569 3.8514 26.9869C3.8514 27.9169 4.6214 28.6669 5.5514 28.6669Z"
        fillRule="evenodd"
        clipRule="evenodd"
    />
</svg>
        