
<svg
    viewBox="0 0 31.80970931200477 32.571095892798155"
    xmlns="http://www.w3.org/2000/svg"
>
    <path
        fill="inherit"
        d="M1.6817 30.8836C3.9417 33.1436 7.2917 33.2236 9.5017 30.5836C11.1317 28.6336 15.2417 21.9936 18.7717 18.4736C21.1217 16.1236 23.7217 17.3636 26.3317 16.2936L24.0117 7.8236C23.7217 6.7636 24.1417 5.8936 25.3617 5.5636L30.4917 4.1936C30.3217 3.7236 29.8717 3.0636 29.3117 2.4836C26.1517 -0.7564 20.9317 -0.7964 17.8117 2.1636C13.2617 6.4936 16.7217 11.0736 13.7217 14.0736C9.9517 17.8236 4.7617 20.5636 1.9817 23.0536C-0.6183 25.3636 -0.5983 28.6036 1.6817 30.8836ZM18.4017 10.4336C18.1017 10.5136 17.8417 10.3636 17.7417 10.0336C17.6617 9.7936 17.8317 9.4836 18.1117 9.4036L21.3117 8.5436C21.5717 8.4736 21.8717 8.6436 21.9417 8.9236C22.0417 9.2436 21.8617 9.5136 21.5717 9.5936ZM27.8317 15.6436C28.3717 15.3236 28.9117 14.9136 29.4717 14.3836C31.2017 12.8236 32.0917 10.4736 31.7317 8.8036L27.5917 9.9436C27.1217 10.0636 26.7317 10.0936 26.3017 10.0236ZM18.8117 12.0636C18.5117 12.1436 18.2517 11.9936 18.1417 11.6636C18.0617 11.4136 18.2417 11.1136 18.5217 11.0436L21.7117 10.1736C21.9717 10.1136 22.2717 10.2636 22.3517 10.5536C22.4517 10.8736 22.2617 11.1436 21.9717 11.2236ZM19.2117 13.6836C18.9217 13.7636 18.6217 13.6136 18.5617 13.2936C18.5017 13.0136 18.6517 12.7536 18.9517 12.6736L22.1217 11.8236C22.4217 11.7336 22.7117 11.9036 22.7617 12.1836C22.8317 12.4536 22.6717 12.7536 22.4117 12.8236ZM5.5517 28.6936C4.6217 28.6936 3.8517 27.9436 3.8517 27.0136C3.8517 26.0836 4.6217 25.3236 5.5517 25.3236C6.4817 25.3236 7.2317 26.0836 7.2317 27.0136C7.2317 27.9436 6.4817 28.6936 5.5517 28.6936Z"
        fillRule="evenodd"
        clipRule="evenodd"
    />
</svg>
        