<svg viewBox="0 0 27.890625 27.890625" xmlns="http://www.w3.org/2000/svg"><path d="M13.9427 27.8864C21.6427 27.8864 27.8927 21.6464 27.8927 13.9464C27.8927 6.2464 21.6427 -0.0036 13.9427 -0.0036C6.2527 -0.0036 0.0027 6.2464 0.0027 13.9464C0.0027 21.6464 6.2527 27.8864 13.9427 27.8864ZM13.9427 25.5664C7.5227 25.5664 2.3227 20.3664 2.3227 13.9464C2.3227 7.5164 7.5227 2.3264 13.9427 2.3264C20.3727 2.3264 25.5627 7.5164 25.5627 13.9464C25.5627 20.3664 20.3727 25.5664 13.9427 25.5664ZM7.0527 17.0664H20.8327C21.5627 17.0664 22.0927 16.5264 22.0927 15.8064V12.0564C22.0927 11.3364 21.5627 10.7964 20.8327 10.7964H7.0527C6.3327 10.7964 5.8127 11.3364 5.8127 12.0564V15.8164C5.8127 16.5464 6.3327 17.0664 7.0527 17.0664Z" /></svg>