
<svg
    viewBox={0 0 25.169921875 25.169921875}
    xmlns="http://www.w3.org/2000/svg"
>
    <path
        fill="inherit"
        d="M4.2937 25.1692H20.8737C23.7437 25.1692 25.1737 23.7592 25.1737 20.9492V4.2392C25.1737 1.4192 23.7437 -0.0008 20.8737 -0.0008H4.2937C1.4337 -0.0008 0.0037 1.4192 0.0037 4.2392V20.9492C0.0037 23.7592 1.4337 25.1692 4.2937 25.1692ZM8.4037 19.0492C7.8037 19.0492 7.3537 18.6192 7.3537 18.0592C7.3537 17.7692 7.4237 17.5792 7.6137 17.3192L11.1837 12.3692L7.8037 7.7292C7.5837 7.4092 7.5037 7.2192 7.5037 6.9092C7.5037 6.3292 8.0137 5.8492 8.6137 5.8492C9.0937 5.8492 9.3637 6.0292 9.6937 6.4792L12.6837 10.8292H12.7737L15.7137 6.4892C16.0137 6.0292 16.2937 5.8492 16.7337 5.8492C17.3337 5.8492 17.8137 6.2892 17.8137 6.8492C17.8137 7.1092 17.7337 7.3392 17.5237 7.5992L13.9737 12.4392L17.5037 17.2692C17.6937 17.5092 17.7737 17.7192 17.7737 18.0092C17.7737 18.6192 17.3037 19.0492 16.6637 19.0492C16.2137 19.0492 15.9537 18.8792 15.6037 18.3892L12.5637 14.0592H12.5137L9.4637 18.3892C9.1037 18.8792 8.8637 19.0492 8.4037 19.0492Z"
        fillRule="evenodd"
        clipRule="evenodd"
    />
</svg>
        