<svg viewBox="0 0 29.599609375 24.541015625" xmlns="http://www.w3.org/2000/svg"><path d="M5.1837 24.5391C6.4637 24.5391 7.1337 23.6391 7.5037 22.4591L13.7237 2.4291H28.2837C29.0637 2.4291 29.6037 1.9591 29.6037 1.1991C29.6037 0.4791 29.0637 -0.0009 28.2837 -0.0009H13.7037C12.3037 -0.0009 11.6737 0.5191 11.3037 1.7191L5.3337 21.3391H5.1037L2.5337 12.2791C2.3137 11.5291 1.9037 11.1691 1.2537 11.1691C0.5337 11.1691 0.0037 11.6891 0.0037 12.3591C0.0037 12.6291 0.0637 12.8791 0.1237 13.0791L3.0237 22.6091C3.3637 23.7191 3.9737 24.5391 5.1837 24.5391ZM16.3237 21.7491C16.8337 21.7491 17.0937 21.5791 17.4737 21.0391L20.7137 16.4591H20.7637L23.9837 21.0391C24.3737 21.5791 24.6337 21.7491 25.1337 21.7491C25.8137 21.7491 26.3137 21.2891 26.3137 20.6491C26.3137 20.3391 26.2537 20.0991 26.0437 19.8391L22.2837 14.7291L26.0737 9.5791C26.2737 9.2991 26.3637 9.0491 26.3637 8.7791C26.3637 8.1791 25.8637 7.7091 25.2137 7.7091C24.7337 7.7091 24.4437 7.8791 24.0937 8.3791L20.9837 12.9891H20.9137L17.7237 8.3691C17.3737 7.8791 17.0737 7.7091 16.5737 7.7091C15.9137 7.7091 15.3637 8.2191 15.3637 8.8291C15.3637 9.1691 15.4537 9.3891 15.6937 9.7091L19.2937 14.6591L15.4737 19.9191C15.2737 20.1891 15.2137 20.3891 15.2137 20.6991C15.2137 21.2891 15.6937 21.7491 16.3237 21.7491Z" /></svg>