
<svg
    viewBox="0 0 22.72265625 27.6171875"
    xmlns="http://www.w3.org/2000/svg"
>
    <path
        fill="inherit"
        d="M11.3637 27.6205C11.5837 27.6205 11.9337 27.5305 12.2737 27.3405C20.0537 22.9805 22.7237 21.1405 22.7237 16.1505V5.6905C22.7237 4.2505 22.1037 3.8005 20.9437 3.3105C19.3337 2.6405 14.1237 0.7705 12.5137 0.2005C12.1437 0.0805 11.7437 0.0005 11.3637 0.0005C10.9737 0.0005 10.5837 0.1105 10.2237 0.2005C8.6137 0.6705 3.3937 2.6505 1.7737 3.3105C0.6337 3.7905 0.0037 4.2505 0.0037 5.6905V16.1505C0.0037 21.1405 2.6837 22.9705 10.4437 27.3405C10.8037 27.5305 11.1437 27.6205 11.3637 27.6205ZM11.3637 25.1405C11.1437 25.1405 10.9237 25.0605 10.5137 24.8105C4.1937 20.9905 2.1737 19.8605 2.1737 15.6405V6.1105C2.1737 5.6505 2.2537 5.4705 2.6437 5.3205C4.7137 4.5005 8.7537 3.1405 10.8137 2.3205C11.0337 2.2305 11.2137 2.2005 11.3637 2.2005C11.5137 2.2005 11.6937 2.2405 11.9037 2.3205C13.9737 3.1405 17.9737 4.5905 20.0937 5.3205C20.4637 5.4505 20.5537 5.6505 20.5537 6.1105V15.6405C20.5537 19.8605 18.5237 20.9705 12.2137 24.8105C11.8137 25.0605 11.5837 25.1405 11.3637 25.1405ZM6.7137 18.9305C7.0137 18.9305 7.2837 18.8105 7.4937 18.5905L11.3737 14.7105L15.2537 18.5905C15.4637 18.8005 15.7337 18.9305 16.0537 18.9305C16.6537 18.9305 17.1437 18.4305 17.1437 17.8305C17.1437 17.5105 17.0237 17.2705 16.8137 17.0505L12.9337 13.1705L16.8337 9.2605C17.0537 9.0205 17.1537 8.7905 17.1537 8.4905C17.1537 7.8905 16.6637 7.4005 16.0637 7.4005C15.7737 7.4005 15.5337 7.5105 15.3037 7.7405L11.3737 11.6305L7.4637 7.7505C7.2637 7.5305 7.0137 7.4205 6.7137 7.4205C6.0937 7.4205 5.6237 7.9005 5.6237 8.5005C5.6237 8.8005 5.7237 9.0605 5.9437 9.2705L9.8337 13.1705L5.9437 17.0605C5.7237 17.2705 5.6237 17.5305 5.6237 17.8305C5.6237 18.4305 6.0937 18.9305 6.7137 18.9305Z"
        fillRule="evenodd"
        clipRule="evenodd"
    />
</svg>
        