<svg viewBox="0 0 31.006281888857306 31.006281888857306" xmlns="http://www.w3.org/2000/svg"><path d="M1.5328 18.5268L12.4828 29.4768C14.5028 31.5068 16.5028 31.5168 18.5128 29.5168L29.5228 18.4968C31.5128 16.5068 31.5028 14.4968 29.4828 12.4668L18.5428 1.5368C16.5128 -0.4932 14.5228 -0.5132 12.5128 1.4968L1.4928 12.4968C-0.5172 14.5068 -0.4872 16.5068 1.5328 18.5268ZM3.1228 17.0068C2.1328 16.0268 2.1228 14.9968 3.1328 13.9868L13.9928 3.1368C15.0028 2.1168 16.0228 2.1368 17.0128 3.1168L27.8928 13.9968C28.8628 14.9768 28.8928 16.0068 27.8828 17.0268L17.0228 27.8768C16.0128 28.8868 14.9728 28.8668 14.0028 27.9068ZM10.8528 21.2868C11.1628 21.2868 11.4328 21.1668 11.6328 20.9468L15.5228 17.0668L19.4028 20.9468C19.6028 21.1568 19.8828 21.2868 20.1928 21.2868C20.7928 21.2868 21.2928 20.7968 21.2928 20.1768C21.2928 19.8668 21.1628 19.6168 20.9628 19.4068L17.0828 15.5168L20.9728 11.6068C21.1928 11.3768 21.3028 11.1468 21.3028 10.8468C21.3028 10.2468 20.8128 9.7468 20.2128 9.7468C19.9228 9.7468 19.6728 9.8568 19.4428 10.0868L15.5228 13.9868L11.6128 10.1068C11.4028 9.8868 11.1628 9.7768 10.8528 9.7768C10.2428 9.7768 9.7628 10.2568 9.7628 10.8568C9.7628 11.1568 9.8728 11.4168 10.0928 11.6268L13.9728 15.5168L10.0928 19.4168C9.8728 19.6168 9.7628 19.8768 9.7628 20.1768C9.7628 20.7968 10.2428 21.2868 10.8528 21.2868Z" /></svg>