
<svg
    viewBox="0 0 32.525390625 25.169921875"
    xmlns="http://www.w3.org/2000/svg"
>
    <path
        fill="inherit"
        d="M2.3237 6.2255H30.2037C31.7437 6.2255 32.5237 5.3055 32.5237 3.7755V2.4455C32.5237 0.9155 31.7437 -0.0045 30.2037 -0.0045H2.3237C0.8637 -0.0045 0.0037 0.9155 0.0037 2.4455V3.7755C0.0037 5.3055 0.7837 6.2255 2.3237 6.2255ZM9.0737 25.1655H23.4337C26.1237 25.1655 27.2037 23.7455 27.6037 21.0955L29.5437 8.0755H2.9637L4.9237 21.0955C5.3137 23.7655 6.3937 25.1655 9.0737 25.1655ZM12.1837 21.3855C11.5837 21.3855 11.0737 20.8655 11.0737 20.2755C11.0737 19.9655 11.2237 19.7155 11.4137 19.5255L14.7237 16.1855L11.4137 12.8355C11.2237 12.6455 11.0737 12.3955 11.0737 12.0855C11.0737 11.4955 11.5837 11.0155 12.1837 11.0155C12.4737 11.0155 12.6837 11.1555 12.9237 11.3455L16.2537 14.6655L19.6237 11.3355C19.8537 11.1255 20.0837 10.9955 20.3537 10.9955C20.9737 10.9955 21.4637 11.4855 21.4637 12.0855C21.4637 12.3855 21.3237 12.5955 21.1237 12.8255L17.8037 16.1855L21.1137 19.5055C21.3037 19.7155 21.4537 19.9455 21.4537 20.2755C21.4537 20.8655 20.9437 21.3855 20.3537 21.3855C20.0437 21.3855 19.7937 21.2155 19.5937 21.0455L16.2537 17.7055L12.9337 21.0455C12.7237 21.2355 12.4737 21.3855 12.1837 21.3855Z"
        fillRule="evenodd"
        clipRule="evenodd"
    />
</svg>
        