
<svg
    viewBox="0 0 22.99609375 29.3125"
    xmlns="http://www.w3.org/2000/svg"
>
    <path
        fill="inherit"
        d="M0.0037 25.0373C0.0037 27.8873 1.4037 29.3173 4.2337 29.3173H18.7537C21.5837 29.3173 22.9937 27.8873 22.9937 25.0373V4.2973C22.9937 1.4473 21.5837 -0.0027 18.7537 -0.0027H4.2337C1.4037 -0.0027 0.0037 1.4473 0.0037 4.2973ZM2.2037 24.9873V4.3373C2.2037 2.9673 2.9237 2.1973 4.3437 2.1973H18.6437C20.0737 2.1973 20.7937 2.9673 20.7937 4.3373V24.9873C20.7937 26.3573 20.0737 27.1073 18.6437 27.1073H4.3437C2.9237 27.1073 2.2037 26.3573 2.2037 24.9873ZM6.8537 20.4373C7.1537 20.4373 7.4237 20.3173 7.6337 20.0973L11.5137 16.2173L15.3937 20.0973C15.6037 20.3073 15.8737 20.4373 16.1737 20.4373C16.7937 20.4373 17.2837 19.9473 17.2837 19.3273C17.2837 19.0173 17.1537 18.7673 16.9537 18.5573L13.0537 14.6673L16.9637 10.7573C17.1837 10.5273 17.2937 10.2973 17.2937 9.9973C17.2937 9.3973 16.8037 8.8973 16.1837 8.8973C15.9137 8.8973 15.6637 9.0073 15.4337 9.2373L11.5137 13.1373L7.6037 9.2573C7.3937 9.0373 7.1537 8.9273 6.8537 8.9273C6.2337 8.9273 5.7537 9.4073 5.7537 10.0073C5.7537 10.3073 5.8637 10.5673 6.0837 10.7773L9.9637 14.6673L6.0837 18.5673C5.8637 18.7673 5.7537 19.0273 5.7537 19.3273C5.7537 19.9473 6.2337 20.4373 6.8537 20.4373Z"
        fillRule="evenodd"
        clipRule="evenodd"
    />
</svg>
        