
<svg
    viewBox={0 0 32.23828125 25.169921875}
    xmlns="http://www.w3.org/2000/svg"
>
    <path
        fill="inherit"
        d="M4.2937 25.1692H27.9437C30.8137 25.1692 32.2337 23.7592 32.2337 20.9492V4.2392C32.2337 1.4192 30.8137 -0.0008 27.9437 -0.0008H4.2937C1.4337 -0.0008 0.0037 1.4192 0.0037 4.2392V20.9492C0.0037 23.7592 1.4337 25.1692 4.2937 25.1692ZM11.5437 18.3292C10.9137 18.3292 10.4037 17.8292 10.4037 17.1992C10.4037 16.8992 10.5237 16.6092 10.7337 16.4092L14.5337 12.6092L10.7337 8.8192C10.5237 8.5992 10.4037 8.3292 10.4037 8.0292C10.4037 7.3792 10.9137 6.9092 11.5437 6.9092C11.8537 6.9092 12.1037 7.0092 12.3137 7.2192L16.1337 11.0192L19.9737 7.2092C20.2037 6.9692 20.4537 6.8792 20.7537 6.8792C21.3837 6.8792 21.8737 7.3692 21.8737 7.9992C21.8737 8.3092 21.7937 8.5592 21.5437 8.8092L17.7437 12.6092L21.5337 16.3892C21.7637 16.5992 21.8637 16.8892 21.8637 17.1992C21.8637 17.8292 21.3737 18.3292 20.7237 18.3292C20.4137 18.3292 20.1237 18.2292 19.9237 18.0092L16.1337 14.2092L12.3637 18.0092C12.1437 18.2292 11.8537 18.3292 11.5437 18.3292Z"
        fillRule="evenodd"
        clipRule="evenodd"
    />
</svg>
        