
<svg
    viewBox="0 0 25.38994887090534 24.94323100964245"
    xmlns="http://www.w3.org/2000/svg"
>
    <path
        fill="inherit"
        d="M2.2037 10.3325L5.8837 6.6625L9.5537 10.3325C9.9237 10.7125 10.5237 10.6725 10.8837 10.3025C11.2537 9.9325 11.2937 9.3425 10.9237 8.9725L7.2437 5.2925L10.9337 1.6225C11.2937 1.2625 11.2537 0.6525 10.8937 0.2925C10.5437 -0.0775 9.9237 -0.1075 9.5737 0.2525L5.8837 3.9425L2.1837 0.2525C1.8337 -0.1075 1.2337 -0.0775 0.8637 0.2925C0.5037 0.6525 0.4637 1.2625 0.8237 1.6225L4.5137 5.2925L0.8337 8.9725C0.4637 9.3425 0.5037 9.9325 0.8737 10.3025C1.2437 10.6725 1.8337 10.7125 2.2037 10.3325ZM15.2137 10.6325H24.0037C25.2337 10.6325 25.7337 9.5925 25.1437 8.5325L20.8337 0.8825C20.2237 -0.2175 18.9937 -0.1975 18.3937 0.8825L14.0937 8.5325C13.5237 9.5625 13.9737 10.6325 15.2137 10.6325ZM16.3237 8.8425C16.1337 8.8425 16.0537 8.7125 16.1437 8.5325L19.4237 2.6625C19.5337 2.4825 19.6837 2.4825 19.7837 2.6625L23.0737 8.5325C23.1737 8.7125 23.0937 8.8425 22.9037 8.8425ZM5.8937 24.9425C9.1437 24.9425 11.7737 22.3025 11.7737 19.0525C11.7737 15.7925 9.1437 13.1725 5.8937 13.1725C2.6437 13.1725 0.0037 15.7925 0.0037 19.0525C0.0037 22.3025 2.6437 24.9425 5.8937 24.9425ZM16.5037 24.7525H22.7237C24.4637 24.7525 25.3337 23.8925 25.3337 22.0825V15.9725C25.3337 14.1725 24.4637 13.3125 22.7237 13.3125H16.5037C14.7637 13.3125 13.8937 14.1725 13.8937 15.9725V22.0825C13.8937 23.8925 14.7637 24.7525 16.5037 24.7525ZM5.8937 23.0125C3.7037 23.0125 1.9237 21.2425 1.9237 19.0525C1.9237 16.8625 3.7037 15.1025 5.8937 15.1025C8.0837 15.1025 9.8437 16.8625 9.8437 19.0525C9.8437 21.2425 8.0837 23.0125 5.8937 23.0125ZM16.5337 22.8225C16.0537 22.8225 15.8137 22.5825 15.8137 22.0825V15.9725C15.8137 15.4725 16.0537 15.2325 16.5337 15.2325H22.7137C23.1737 15.2325 23.4037 15.4725 23.4037 15.9725V22.0825C23.4037 22.5825 23.1737 22.8225 22.7137 22.8225Z"
        fillRule="evenodd"
        clipRule="evenodd"
    />
</svg>
        