
<svg
    viewBox="0 0 32.798828125 25.169921875"
    xmlns="http://www.w3.org/2000/svg"
>
    <path
        fill="inherit"
        d="M9.2137 25.1655H23.5737C26.2637 25.1655 27.4537 23.9155 27.8637 21.2355L29.8837 7.5155H30.2037C31.8837 7.5155 32.8037 6.4655 32.8037 4.7955V2.7255C32.8037 1.0555 31.8837 -0.0045 30.2037 -0.0045H2.5937C0.9937 -0.0045 0.0037 1.0555 0.0037 2.7255V4.7955C0.0037 6.4655 0.9137 7.5155 2.5937 7.5155H2.8937L4.9337 21.2355C5.3337 23.9255 6.5337 25.1655 9.2137 25.1655ZM3.1537 5.4555C2.4737 5.4555 2.2037 5.1655 2.2037 4.4855V3.0355C2.2037 2.3555 2.4737 2.0655 3.1537 2.0655H29.6537C30.3337 2.0655 30.5937 2.3555 30.5937 3.0355V4.4855C30.5937 5.1655 30.3337 5.4555 29.6537 5.4555ZM9.2537 23.1055C8.0237 23.1055 7.3137 22.5555 7.1237 21.2055L5.0837 7.5155H27.7137L25.6737 21.2055C25.4737 22.5555 24.7437 23.1055 23.5437 23.1055ZM12.4437 20.2455C12.7137 20.2455 12.9637 20.1155 13.1637 19.9155L16.3937 16.6755L19.6337 19.9155C19.8237 20.0955 20.0737 20.2455 20.3737 20.2455C20.9437 20.2455 21.4237 19.7555 21.4237 19.1855C21.4237 18.8655 21.2837 18.6455 21.0937 18.4455L17.8837 15.2155L21.1137 11.9455C21.3137 11.7255 21.4337 11.5255 21.4337 11.2355C21.4337 10.6455 20.9737 10.1855 20.3737 10.1855C20.1137 10.1855 19.8837 10.2955 19.6637 10.5155L16.3937 13.7555L13.1537 10.5255C12.9337 10.3255 12.7137 10.2155 12.4437 10.2155C11.8537 10.2155 11.3737 10.6655 11.3737 11.2355C11.3737 11.5355 11.5137 11.7755 11.7037 11.9655L14.9137 15.2155L11.7037 18.4555C11.5137 18.6455 11.3737 18.8855 11.3737 19.1855C11.3737 19.7555 11.8537 20.2455 12.4437 20.2455Z"
        fillRule="evenodd"
        clipRule="evenodd"
    />
</svg>
        