
<svg
    viewBox="0 0 28.095703125 27.04296875"
    xmlns="http://www.w3.org/2000/svg"
>
    <path
        fill="inherit"
        d="M9.8937 27.0426H18.1937C19.9337 27.0426 20.7537 26.4826 21.6537 25.5126L26.9637 19.6626C27.8537 18.6726 28.0937 18.0026 28.0937 16.6526V10.4026C28.0937 9.0326 27.8537 8.3826 26.9637 7.3926L21.6537 1.5426C20.7537 0.5726 19.9337 0.0026 18.1937 0.0026H9.8937C8.1637 0.0026 7.3237 0.5726 6.4437 1.5426L1.1337 7.3926C0.2337 8.3826 0.0037 9.0326 0.0037 10.4026V16.6526C0.0037 18.0026 0.2337 18.6726 1.1337 19.6626L6.4437 25.5126C7.3237 26.4826 8.1637 27.0426 9.8937 27.0426ZM9.4637 19.2626C8.8337 19.2626 8.3237 18.7626 8.3237 18.1326C8.3237 17.8326 8.4537 17.5426 8.6637 17.3326L12.4537 13.5326L8.6637 9.7526C8.4537 9.5326 8.3237 9.2526 8.3237 8.9526C8.3237 8.3126 8.8337 7.8326 9.4637 7.8326C9.7737 7.8326 10.0237 7.9426 10.2437 8.1526L14.0537 11.9526L17.8937 8.1326C18.1337 7.9026 18.3737 7.8026 18.6737 7.8026C19.3037 7.8026 19.7937 8.3026 19.7937 8.9326C19.7937 9.2426 19.7137 9.4926 19.4737 9.7326L15.6637 13.5326L19.4537 17.3226C19.6837 17.5226 19.7837 17.8126 19.7837 18.1326C19.7837 18.7626 19.2937 19.2626 18.6437 19.2626C18.3337 19.2626 18.0437 19.1526 17.8437 18.9326L14.0537 15.1326L10.2837 18.9326C10.0637 19.1526 9.7737 19.2626 9.4637 19.2626Z"
        fillRule="evenodd"
        clipRule="evenodd"
    />
</svg>
        