
<svg
    viewBox={0 0 34.37109375 23.76171875}
    xmlns="http://www.w3.org/2000/svg"
>
    <path
        fill="inherit"
        d="M27.0127 23.7594C31.1427 23.7594 34.3727 20.7394 34.3727 16.9794C34.3727 14.1094 32.7127 11.6194 30.0527 10.4994C30.0827 4.3994 25.6927 -0.0006 20.0927 -0.0006C16.3927 -0.0006 13.7527 1.9794 12.1127 4.3794C8.7527 3.3894 5.0827 5.9494 5.0127 9.7794C1.9327 10.2694 0.0027 13.0294 0.0027 16.3694C0.0027 20.3894 3.5127 23.7594 8.1927 23.7594ZM14.3727 17.9194C13.9327 18.3494 13.3127 18.2694 12.9027 17.8794C12.5127 17.5094 12.4527 16.8894 12.8827 16.4494L15.6827 13.6194L12.8827 10.7894C12.4527 10.3494 12.5327 9.7494 12.9227 9.3394C13.2927 8.9394 13.9327 8.8894 14.3727 9.3094L17.1827 12.1094L20.0027 9.3094C20.4527 8.8694 21.0727 8.9694 21.4627 9.3394C21.8727 9.7194 21.9327 10.3494 21.5027 10.7894L18.6927 13.6194L21.5027 16.4494C21.9327 16.8894 21.8327 17.4894 21.4627 17.8994C21.0827 18.2894 20.4527 18.3494 20.0027 17.9194L17.1827 15.1194Z"
        fillRule="evenodd"
        clipRule="evenodd"
    />
</svg>
        