<svg viewBox="0 0 31.045420288489282 31.05909216348928" xmlns="http://www.w3.org/2000/svg"><path d="M7.241 27.3806H10.201C10.481 27.3806 10.691 27.4606 10.891 27.6706L13.001 29.7606C14.721 31.5006 16.321 31.4806 18.041 29.7606L20.151 27.6706C20.351 27.4606 20.561 27.3806 20.851 27.3806H23.801C26.251 27.3806 27.381 26.2606 27.381 23.8006V20.8506C27.381 20.5606 27.461 20.3706 27.671 20.1506L29.751 18.0406C31.481 16.3206 31.471 14.7406 29.751 13.0006L27.671 10.8906C27.461 10.6906 27.381 10.4806 27.381 10.2106V7.2406C27.381 4.8106 26.261 3.6606 23.801 3.6606H20.851C20.561 3.6606 20.351 3.5906 20.151 3.3906L18.041 1.3006C16.321 -0.4394 14.721 -0.4294 13.001 1.3006L10.891 3.3906C10.691 3.5906 10.481 3.6606 10.201 3.6606H7.241C4.801 3.6606 3.661 4.7806 3.661 7.2406V10.2106C3.661 10.4806 3.591 10.6906 3.391 10.8906L1.301 13.0006C-0.439 14.7406 -0.429 16.3206 1.301 18.0406L3.391 20.1506C3.591 20.3706 3.661 20.5606 3.661 20.8506V23.8006C3.661 26.2506 4.801 27.3806 7.241 27.3806ZM7.241 25.2106C6.031 25.2106 5.841 25.0206 5.841 23.8006V20.1206C5.841 19.7106 5.711 19.4006 5.411 19.1006L2.831 16.5306C1.971 15.6506 1.971 15.4106 2.831 14.5306L5.411 11.9606C5.711 11.6606 5.841 11.3506 5.841 10.9206V7.2406C5.841 6.0106 6.011 5.8406 7.241 5.8406H10.921C11.341 5.8406 11.661 5.7306 11.961 5.4106L14.531 2.8306C15.411 1.9706 15.651 1.9706 16.511 2.8306L19.101 5.4106C19.381 5.7306 19.711 5.8406 20.121 5.8406H23.801C25.021 5.8406 25.211 6.0306 25.211 7.2406V10.9206C25.211 11.3506 25.341 11.6606 25.651 11.9606L28.231 14.5306C29.091 15.4106 29.091 15.6506 28.231 16.5306L25.651 19.1006C25.341 19.4006 25.211 19.7106 25.211 20.1206V23.8006C25.211 25.0206 25.021 25.2106 23.801 25.2106H20.121C19.711 25.2106 19.381 25.3306 19.101 25.6506L16.511 28.2306C15.651 29.0906 15.411 29.0906 14.531 28.2306L11.961 25.6506C11.661 25.3306 11.341 25.2106 10.921 25.2106ZM10.871 21.3106C11.181 21.3106 11.451 21.1906 11.661 20.9706L15.531 17.0906L19.431 20.9706C19.631 21.1806 19.891 21.3106 20.201 21.3106C20.811 21.3106 21.301 20.8106 21.301 20.2006C21.301 19.8906 21.191 19.6406 20.971 19.4306L17.091 15.5406L20.981 11.6306C21.221 11.4006 21.311 11.1706 21.311 10.8706C21.311 10.2506 20.821 9.7706 20.221 9.7706C19.931 9.7706 19.701 9.8806 19.471 10.1106L15.531 14.0106L11.631 10.1306C11.431 9.9106 11.181 9.8006 10.871 9.8006C10.261 9.8006 9.771 10.2706 9.771 10.8806C9.771 11.1806 9.901 11.4406 10.101 11.6506L13.981 15.5406L10.101 19.4406C9.901 19.6406 9.771 19.9006 9.771 20.2006C9.771 20.8106 10.261 21.3106 10.871 21.3106Z" /></svg>