
<svg
    viewBox="0 0 21.680212929183472 21.676794437328404"
    xmlns="http://www.w3.org/2000/svg"
>
    <path
        fill="inherit"
        d="M0.352 21.3241C0.832 21.7841 1.622 21.7841 2.092 21.3241L10.842 12.5741L19.592 21.3241C20.052 21.7841 20.862 21.8041 21.322 21.3241C21.792 20.8441 21.792 20.0641 21.322 19.6041L12.572 10.8341L21.322 2.0841C21.792 1.6241 21.802 0.8241 21.322 0.3641C20.852 -0.1159 20.052 -0.1159 19.592 0.3641L10.842 9.1141L2.092 0.3641C1.622 -0.1159 0.822 -0.1259 0.352 0.3641C-0.108 0.8441 -0.108 1.6241 0.352 2.0841L9.102 10.8341L0.352 19.6041C-0.108 20.0641 -0.128 20.8541 0.352 21.3241Z"
        fillRule="evenodd"
        clipRule="evenodd"
    />
</svg>
        