
<svg
    viewBox="0 0 31.059092163489282 31.05909216348928"
    xmlns="http://www.w3.org/2000/svg"
>
    <path
        fill="inherit"
        d="M7.241 27.3806H10.211C10.481 27.3806 10.691 27.4606 10.891 27.6706L13.001 29.7606C14.721 31.5006 16.321 31.4806 18.041 29.7606L20.151 27.6706C20.371 27.4606 20.561 27.3806 20.851 27.3806H23.801C26.251 27.3806 27.381 26.2606 27.381 23.8006V20.8506C27.381 20.5606 27.461 20.3706 27.671 20.1506L29.761 18.0406C31.501 16.3206 31.481 14.7206 29.761 13.0006L27.671 10.8906C27.461 10.6906 27.381 10.4806 27.381 10.2106V7.2406C27.381 4.8106 26.261 3.6606 23.801 3.6606H20.851C20.561 3.6606 20.371 3.5906 20.151 3.3906L18.041 1.3006C16.321 -0.4394 14.721 -0.4294 13.001 1.3006L10.891 3.3906C10.691 3.5906 10.481 3.6606 10.211 3.6606H7.241C4.801 3.6606 3.661 4.7806 3.661 7.2406V10.2106C3.661 10.4806 3.591 10.6906 3.391 10.8906L1.301 13.0006C-0.439 14.7206 -0.429 16.3206 1.301 18.0406L3.391 20.1506C3.591 20.3706 3.661 20.5606 3.661 20.8506V23.8006C3.661 26.2506 4.801 27.3806 7.241 27.3806ZM10.931 21.2706C10.311 21.2706 9.811 20.7706 9.811 20.1206C9.811 19.8206 9.921 19.5506 10.141 19.3306L13.931 15.5406L10.141 11.7406C9.921 11.5406 9.811 11.2506 9.811 10.9506C9.811 10.3206 10.311 9.8406 10.931 9.8406C11.251 9.8406 11.501 9.9506 11.711 10.1606L15.531 13.9606L19.371 10.1406C19.601 9.9106 19.851 9.8106 20.151 9.8106C20.781 9.8106 21.281 10.3106 21.281 10.9206C21.281 11.2406 21.191 11.5006 20.961 11.7306L17.141 15.5406L20.941 19.3206C21.161 19.5306 21.271 19.8106 21.271 20.1206C21.271 20.7706 20.761 21.2706 20.121 21.2706C19.811 21.2706 19.521 21.1606 19.321 20.9406L15.531 17.1406L11.761 20.9406C11.541 21.1606 11.251 21.2706 10.931 21.2706Z"
        fillRule="evenodd"
        clipRule="evenodd"
    />
</svg>
        