
<svg
    viewBox="0 0 32.23828125 25.169921875"
    xmlns="http://www.w3.org/2000/svg"
>
    <path
        fill="inherit"
        d="M4.2937 25.1692H27.9437C30.8137 25.1692 32.2337 23.7592 32.2337 20.9492V4.2392C32.2337 1.4192 30.8137 -0.0008 27.9437 -0.0008H4.2937C1.4337 -0.0008 0.0037 1.4192 0.0037 4.2392V20.9492C0.0037 23.7592 1.4337 25.1692 4.2937 25.1692ZM4.3237 22.9692C2.9537 22.9692 2.2037 22.2392 2.2037 20.8192V4.3592C2.2037 2.9392 2.9537 2.1992 4.3237 2.1992H27.9137C29.2737 2.1992 30.0337 2.9392 30.0337 4.3592V20.8192C30.0337 22.2392 29.2737 22.9692 27.9137 22.9692ZM11.4737 18.3592C11.7737 18.3592 12.0437 18.2392 12.2537 18.0192L16.1337 14.1392L20.0137 18.0192C20.2237 18.2292 20.4937 18.3592 20.8037 18.3592C21.4137 18.3592 21.9037 17.8692 21.9037 17.2492C21.9037 16.9392 21.7837 16.6892 21.5737 16.4792L17.6937 12.5892L21.5837 8.6792C21.8037 8.4492 21.9137 8.2192 21.9137 7.9192C21.9137 7.3192 21.4237 6.8192 20.8237 6.8192C20.5337 6.8192 20.2937 6.9292 20.0537 7.1592L16.1337 11.0592L12.2237 7.1792C12.0137 6.9592 11.7737 6.8492 11.4737 6.8492C10.8537 6.8492 10.3737 7.3292 10.3737 7.9292C10.3737 8.2292 10.4837 8.4892 10.7037 8.6992L14.5837 12.5892L10.7037 16.4892C10.4837 16.6892 10.3737 16.9492 10.3737 17.2492C10.3737 17.8692 10.8537 18.3592 11.4737 18.3592Z"
        fillRule="evenodd"
        clipRule="evenodd"
    />
</svg>
        