<svg viewBox="0 0 22.3671875 27.1796875" xmlns="http://www.w3.org/2000/svg"><path d="M11.1837 27.1822C11.4037 27.1822 11.7437 27.1022 12.0837 26.9222C19.8637 22.8422 22.3637 20.8122 22.3637 15.9022V5.5922C22.3637 4.1822 21.7637 3.7322 20.6137 3.2522C19.0137 2.6022 13.9037 0.7422 12.3137 0.1922C11.9537 0.0722 11.5637 0.0022 11.1837 0.0022C10.8037 0.0022 10.4137 0.0822 10.0637 0.1922C8.4637 0.7122 3.3537 2.6122 1.7537 3.2522C0.6137 3.7222 0.0037 4.1822 0.0037 5.5922V15.9022C0.0037 20.8122 2.6437 22.6122 10.2837 26.9222C10.6337 27.1122 10.9637 27.1822 11.1837 27.1822ZM6.6037 18.8222C5.9737 18.8222 5.4737 18.3222 5.4737 17.6822C5.4737 17.3722 5.5937 17.1022 5.7937 16.8822L9.5937 13.1022L5.7937 9.2922C5.5937 9.0922 5.4737 8.8022 5.4737 8.5022C5.4737 7.8722 5.9737 7.3922 6.6037 7.3922C6.9137 7.3922 7.1637 7.5022 7.3837 7.7122L11.1937 11.5122L15.0437 7.7022C15.2737 7.4622 15.5137 7.3722 15.8137 7.3722C16.4437 7.3722 16.9437 7.8622 16.9437 8.4722C16.9437 8.7922 16.8537 9.0522 16.6137 9.2822L12.8137 13.1022L16.5937 16.8722C16.8337 17.0922 16.9237 17.3622 16.9237 17.6822C16.9237 18.3222 16.4337 18.8222 15.7937 18.8222C15.4737 18.8222 15.1937 18.7122 14.9837 18.5022L11.1937 14.7022L7.4237 18.5022C7.2037 18.7122 6.9137 18.8222 6.6037 18.8222Z" /></svg>