
<svg
    viewBox={0 0 27.890625 27.890625}
    xmlns="http://www.w3.org/2000/svg"
>
    <path
        fill="inherit"
        d="M13.9427 27.8917C21.6427 27.8917 27.8927 21.6417 27.8927 13.9417C27.8927 6.2517 21.6427 0.0017 13.9427 0.0017C6.2527 0.0017 0.0027 6.2517 0.0027 13.9417C0.0027 21.6417 6.2527 27.8917 13.9427 27.8917ZM13.9427 25.5617C7.5227 25.5617 2.3227 20.3717 2.3227 13.9417C2.3227 7.5217 7.5227 2.3217 13.9427 2.3217C20.3727 2.3217 25.5627 7.5217 25.5627 13.9417C25.5627 20.3717 20.3727 25.5617 13.9427 25.5617ZM6.5627 11.5417H21.3027C22.1227 11.5417 22.5427 11.0517 22.5427 10.2417V9.5417C22.5427 8.7217 22.1227 8.2417 21.3027 8.2417H6.5627C5.7827 8.2417 5.3227 8.7217 5.3227 9.5417V10.2417C5.3227 11.0517 5.7427 11.5417 6.5627 11.5417ZM10.1327 21.5717H17.7327C19.1527 21.5717 19.7327 20.8217 19.9327 19.4117L20.9227 12.6417H6.9627L7.9327 19.4117C8.1327 20.8217 8.7227 21.5717 10.1327 21.5717ZM11.8527 19.6017C11.5127 19.6017 11.2527 19.3317 11.2527 19.0217C11.2527 18.8517 11.3227 18.7217 11.4427 18.6117L13.0927 16.9417L11.4427 15.2617C11.3227 15.1517 11.2527 15.0117 11.2527 14.8517C11.2527 14.5317 11.5127 14.2617 11.8527 14.2617C12.0027 14.2617 12.1427 14.3317 12.2527 14.4417L13.9227 16.1017L15.6127 14.4417C15.7227 14.3317 15.8627 14.2417 16.0127 14.2417C16.3527 14.2417 16.6127 14.5217 16.6127 14.8517C16.6127 15.0017 16.5527 15.1317 16.4327 15.2617L14.7627 16.9417L16.4327 18.6117C16.5327 18.7217 16.5927 18.8517 16.5927 19.0217C16.5927 19.3317 16.3427 19.6017 16.0127 19.6017C15.8427 19.6017 15.7127 19.5217 15.6027 19.4317L13.9227 17.7717L12.2627 19.4317C12.1527 19.5417 12.0027 19.6017 11.8527 19.6017Z"
        fillRule="evenodd"
        clipRule="evenodd"
    />
</svg>
        