
<svg
    viewBox={0 0 32.23828125 19.46875}
    xmlns="http://www.w3.org/2000/svg"
>
    <path
        fill="inherit"
        d="M4.2937 19.4718H27.9437C30.8037 19.4718 32.2337 18.0618 32.2337 15.2318V10.8718C32.2337 8.9918 31.8037 7.7918 30.6637 6.6418L26.1237 1.9518C24.8037 0.6018 23.6837 0.0018 21.8637 0.0018H10.3737C8.5737 0.0018 7.4337 0.6018 6.1237 1.9518L1.5737 6.6418C0.4537 7.7918 0.0037 8.9918 0.0037 10.8718V15.2318C0.0037 18.0618 1.4337 19.4718 4.2937 19.4718ZM3.2237 9.2118C2.7437 9.2118 2.6137 8.7818 2.8937 8.4918L7.9137 3.1718C8.7637 2.2818 9.3637 1.9918 10.4837 1.9918H21.7537C22.8737 1.9918 23.4737 2.2818 24.3237 3.1718L29.3537 8.4918C29.6237 8.7818 29.5037 9.2118 29.0137 9.2118ZM4.3237 17.2718C2.9537 17.2718 2.2037 16.5418 2.2037 15.1218V12.4518C2.2037 11.6118 2.5837 11.2118 3.4137 11.2118H28.8237C29.6537 11.2118 30.0337 11.6118 30.0337 12.4518V15.1218C30.0337 16.5418 29.2837 17.2718 27.9137 17.2718ZM8.9937 15.9418C9.4237 15.9418 9.7937 15.6118 9.7937 15.2018V13.2918C9.7937 12.8618 9.4237 12.5418 8.9937 12.5418C8.5837 12.5418 8.2537 12.8618 8.2537 13.2918V15.2018C8.2537 15.6118 8.5837 15.9418 8.9937 15.9418ZM11.6237 15.9418C12.0437 15.9418 12.4137 15.6118 12.4137 15.2018V13.2918C12.4137 12.8618 12.0437 12.5418 11.6237 12.5418C11.2137 12.5418 10.8837 12.8618 10.8837 13.2918V15.2018C10.8837 15.6118 11.2137 15.9418 11.6237 15.9418ZM17.4337 15.9418C17.8437 15.9418 18.1737 15.6118 18.1737 15.2018V13.2918C18.1737 12.8618 17.8437 12.5418 17.4337 12.5418C17.0037 12.5418 16.6437 12.8618 16.6437 13.2918V15.2018C16.6437 15.6118 17.0037 15.9418 17.4337 15.9418ZM20.0537 15.9418C20.4837 15.9418 20.7937 15.6118 20.7937 15.2018V13.2918C20.7937 12.8618 20.4837 12.5418 20.0537 12.5418C19.6337 12.5418 19.2737 12.8618 19.2737 13.2918V15.2018C19.2737 15.6118 19.6337 15.9418 20.0537 15.9418ZM5.2637 15.5318C5.9837 15.5318 6.6037 14.9318 6.6037 14.1918C6.6037 13.4618 5.9837 12.8618 5.2637 12.8618C4.5237 12.8618 3.9237 13.4618 3.9237 14.1918C3.9237 14.9318 4.5237 15.5318 5.2637 15.5318ZM14.5237 15.0218C14.9737 15.0218 15.3437 14.6518 15.3437 14.1918C15.3437 13.7418 14.9737 13.3718 14.5237 13.3718C14.0637 13.3718 13.7037 13.7418 13.7037 14.1918C13.7037 14.6518 14.0637 15.0218 14.5237 15.0218ZM23.2537 15.0118H27.6737C28.0937 15.0118 28.4237 14.6418 28.4237 14.2218C28.4237 13.8118 28.0937 13.4818 27.6737 13.4818H23.2537C22.8437 13.4818 22.5137 13.8118 22.5137 14.2218C22.5137 14.6418 22.8437 15.0118 23.2537 15.0118Z"
        fillRule="evenodd"
        clipRule="evenodd"
    />
</svg>
        