
<svg
    viewBox={0 0 32.23828125 23.337890625}
    xmlns="http://www.w3.org/2000/svg"
>
    <path
        fill="inherit"
        d="M4.2937 23.3395H27.9437C30.8037 23.3395 32.2337 21.9295 32.2337 19.0995V10.8595C32.2337 8.9795 31.8037 7.7795 30.6637 6.6395L26.1237 1.9595C24.8037 0.5895 23.6837 -0.0005 21.8637 -0.0005H10.3737C8.5737 -0.0005 7.4337 0.5895 6.1237 1.9595L1.5737 6.6395C0.4537 7.7795 0.0037 8.9795 0.0037 10.8595V19.0995C0.0037 21.9295 1.4337 23.3395 4.2937 23.3395ZM3.2237 9.2195C2.7437 9.2195 2.6137 8.7795 2.8937 8.4795L7.9137 3.1695C8.7637 2.2695 9.3637 1.9795 10.4837 1.9795H21.7537C22.8737 1.9795 23.4837 2.2695 24.3237 3.1695L29.3537 8.4795C29.6237 8.7795 29.5037 9.2195 29.0137 9.2195ZM4.3237 21.1395C2.9537 21.1395 2.2037 20.4095 2.2037 18.9895V12.4595C2.2037 11.5895 2.5837 11.1995 3.4137 11.1995H28.8237C29.6537 11.1995 30.0337 11.5895 30.0337 12.4595V18.9895C30.0337 20.4095 29.2837 21.1395 27.9137 21.1395ZM16.1337 14.5195C16.6837 14.5195 17.1337 14.0695 17.1337 13.5095C17.1337 12.9795 16.6837 12.5195 16.1337 12.5195C15.5837 12.5195 15.1337 12.9795 15.1337 13.5095C15.1337 14.0695 15.5837 14.5195 16.1337 14.5195ZM5.5537 19.8095C5.9637 19.8095 6.3337 19.4995 6.3337 19.0695V13.2895C6.3337 12.8795 5.9637 12.5395 5.5537 12.5395C5.1237 12.5395 4.8037 12.8795 4.8037 13.2895V19.0695C4.8037 19.4995 5.1237 19.8095 5.5537 19.8095ZM8.7637 19.8095C9.1837 19.8095 9.5437 19.4995 9.5437 19.0695V13.2895C9.5437 12.8795 9.1837 12.5395 8.7637 12.5395C8.3437 12.5395 8.0237 12.8795 8.0237 13.2895V19.0695C8.0237 19.4995 8.3437 19.8095 8.7637 19.8095ZM11.9737 19.8095C12.4037 19.8095 12.7537 19.4995 12.7537 19.0695V13.2895C12.7537 12.8795 12.4037 12.5395 11.9737 12.5395C11.5537 12.5395 11.2337 12.8795 11.2337 13.2895V19.0695C11.2337 19.4995 11.5537 19.8095 11.9737 19.8095ZM20.1237 19.8095C20.5537 19.8095 20.9037 19.4995 20.9037 19.0695V13.2895C20.9037 12.8795 20.5537 12.5395 20.1237 12.5395C19.7037 12.5395 19.3837 12.8795 19.3837 13.2895V19.0695C19.3837 19.4995 19.7037 19.8095 20.1237 19.8095ZM23.3337 19.8095C23.7637 19.8095 24.1337 19.4995 24.1337 19.0695V13.2895C24.1337 12.8795 23.7637 12.5395 23.3337 12.5395C22.9237 12.5395 22.6037 12.8795 22.6037 13.2895V19.0695C22.6037 19.4995 22.9237 19.8095 23.3337 19.8095ZM26.5637 19.8095C26.9737 19.8095 27.3437 19.4995 27.3437 19.0695V13.2895C27.3437 12.8795 26.9737 12.5395 26.5637 12.5395C26.1437 12.5395 25.8137 12.8795 25.8137 13.2895V19.0695C25.8137 19.4995 26.1437 19.8095 26.5637 19.8095ZM16.1337 17.1595C16.6837 17.1595 17.1337 16.7095 17.1337 16.1595C17.1337 15.6095 16.6837 15.1595 16.1337 15.1595C15.5837 15.1595 15.1337 15.6095 15.1337 16.1595C15.1337 16.7095 15.5837 17.1595 16.1337 17.1595ZM16.1337 19.7995C16.6837 19.7995 17.1337 19.3495 17.1337 18.7995C17.1337 18.2495 16.6837 17.8095 16.1337 17.8095C15.5837 17.8095 15.1337 18.2495 15.1337 18.7995C15.1337 19.3495 15.5837 19.7995 16.1337 19.7995Z"
        fillRule="evenodd"
        clipRule="evenodd"
    />
</svg>
        