<svg viewBox="0 0 27.890625 27.890625" xmlns="http://www.w3.org/2000/svg"><path d="M13.9427 27.8864C21.6427 27.8864 27.8927 21.6264 27.8927 13.9464C27.8927 6.2464 21.6427 -0.0036 13.9427 -0.0036C6.2627 -0.0036 0.0027 6.2464 0.0027 13.9464C0.0027 21.6264 6.2627 27.8864 13.9427 27.8864ZM13.9427 20.4164C13.2227 20.4164 12.8227 19.8964 12.8227 19.1264V15.4864L8.8427 8.8764C8.7127 8.6364 8.6527 8.4264 8.6527 8.2164C8.6527 7.6664 9.1027 7.2164 9.6927 7.2164C10.2027 7.2164 10.4727 7.3964 10.7727 7.9264L13.9227 13.3464H14.0027L17.1727 7.9264C17.4627 7.4064 17.7227 7.2164 18.2127 7.2164C18.8127 7.2164 19.2327 7.6564 19.2327 8.2464C19.2327 8.4364 19.1827 8.6664 19.0427 8.8764L15.0927 15.4664V19.1264C15.0927 19.9364 14.6827 20.4164 13.9427 20.4164Z" /></svg>