
<svg
    viewBox={0 0 27.890625 27.890625}
    xmlns="http://www.w3.org/2000/svg"
>
    <path
        fill="inherit"
        d="M13.9427 27.8864C21.6427 27.8864 27.8927 21.6464 27.8927 13.9464C27.8927 6.2464 21.6427 -0.0036 13.9427 -0.0036C6.2527 -0.0036 0.0027 6.2464 0.0027 13.9464C0.0027 21.6464 6.2527 27.8864 13.9427 27.8864ZM13.9427 25.5664C7.5227 25.5664 2.3227 20.3664 2.3227 13.9464C2.3227 7.5164 7.5227 2.3264 13.9427 2.3264C20.3727 2.3264 25.5627 7.5164 25.5627 13.9464C25.5627 20.3664 20.3727 25.5664 13.9427 25.5664ZM13.9327 20.2064C14.6427 20.2064 15.0427 19.7464 15.0427 18.9764V15.4064L18.8827 9.0064C19.0027 8.8164 19.0627 8.5964 19.0627 8.4064C19.0627 7.8464 18.6527 7.4264 18.0727 7.4264C17.5927 7.4264 17.3527 7.6064 17.0627 8.1064L13.9827 13.3564H13.9027L10.8427 8.1064C10.5527 7.5864 10.2927 7.4264 9.8027 7.4264C9.2427 7.4264 8.8027 7.8564 8.8027 8.3764C8.8027 8.5864 8.8627 8.7864 8.9827 9.0064L12.8527 15.4364V18.9764C12.8527 19.7164 13.2327 20.2064 13.9327 20.2064Z"
        fillRule="evenodd"
        clipRule="evenodd"
    />
</svg>
        