
<svg
    viewBox={0 0 25.169921875 25.169921875}
    xmlns="http://www.w3.org/2000/svg"
>
    <path
        fill="inherit"
        d="M4.2937 25.1692H20.8737C23.7437 25.1692 25.1737 23.7592 25.1737 20.9492V4.2392C25.1737 1.4192 23.7437 -0.0008 20.8737 -0.0008H4.2937C1.4337 -0.0008 0.0037 1.4192 0.0037 4.2392V20.9492C0.0037 23.7592 1.4337 25.1692 4.2937 25.1692ZM4.3237 22.9692C2.9537 22.9692 2.2037 22.2392 2.2037 20.8192V4.3592C2.2037 2.9392 2.9537 2.1992 4.3237 2.1992H20.8537C22.2037 2.1992 22.9737 2.9392 22.9737 4.3592V20.8192C22.9737 22.2392 22.2037 22.9692 20.8537 22.9692ZM12.5937 18.8392C13.3037 18.8392 13.7037 18.3792 13.7037 17.6092V14.0392L17.5437 7.6392C17.6637 7.4492 17.7237 7.2292 17.7237 7.0392C17.7237 6.4792 17.3037 6.0592 16.7337 6.0592C16.2737 6.0592 16.0137 6.2392 15.7237 6.7392L12.6637 11.9892H12.5637L9.5037 6.7392C9.2137 6.2192 8.9537 6.0592 8.4637 6.0592C7.9037 6.0592 7.4637 6.4892 7.4637 7.0092C7.4637 7.2192 7.5237 7.4192 7.6437 7.6392L11.5137 14.0692V17.6092C11.5137 18.3492 11.8937 18.8392 12.5937 18.8392Z"
        fillRule="evenodd"
        clipRule="evenodd"
    />
</svg>
        