
<svg
    viewBox={0 0 25.169921875 25.169921875}
    xmlns="http://www.w3.org/2000/svg"
>
    <path
        fill="inherit"
        d="M4.2937 25.1692H20.8737C23.7437 25.1692 25.1737 23.7592 25.1737 20.9492V4.2392C25.1737 1.4192 23.7437 -0.0008 20.8737 -0.0008H4.2937C1.4337 -0.0008 0.0037 1.4192 0.0037 4.2392V20.9492C0.0037 23.7592 1.4337 25.1692 4.2937 25.1692ZM12.5937 19.0492C11.8637 19.0492 11.4737 18.5292 11.4737 17.7592V14.1192L7.4937 7.5092C7.3537 7.2692 7.3037 7.0592 7.3037 6.8492C7.3037 6.2992 7.7537 5.8492 8.3437 5.8492C8.8437 5.8492 9.1237 6.0292 9.4237 6.5592L12.5637 11.9792H12.6637L15.8137 6.5592C16.1037 6.0392 16.3837 5.8492 16.8537 5.8492C17.4637 5.8492 17.8837 6.2892 17.8837 6.8792C17.8837 7.0692 17.8237 7.2992 17.6937 7.5092L13.7437 14.0992V17.7592C13.7437 18.5692 13.3337 19.0492 12.5937 19.0492Z"
        fillRule="evenodd"
        clipRule="evenodd"
    />
</svg>
        