
<svg
    viewBox={0 0 27.890625 27.890625}
    xmlns="http://www.w3.org/2000/svg"
>
    <path
        fill="inherit"
        d="M13.9427 27.8864C21.6427 27.8864 27.8927 21.6264 27.8927 13.9464C27.8927 6.2464 21.6427 -0.0036 13.9427 -0.0036C6.2627 -0.0036 0.0027 6.2464 0.0027 13.9464C0.0027 21.6264 6.2627 27.8864 13.9427 27.8864ZM13.9427 20.5664C13.4627 20.5664 13.1227 20.2064 13.1227 19.7164V17.7064H10.3727C10.1027 17.7064 9.9027 17.4864 9.9027 17.2264C9.9027 16.9564 10.1027 16.7364 10.3727 16.7364H13.1227V15.2564H10.3727C10.1027 15.2564 9.9027 15.0564 9.9027 14.7764C9.9027 14.4964 10.1027 14.2964 10.3727 14.2964H12.6327L9.1227 8.6264C8.9927 8.4364 8.9427 8.2464 8.9427 8.0764C8.9427 7.6264 9.2827 7.3264 9.7627 7.3264C10.1327 7.3264 10.3327 7.4964 10.5127 7.7964L13.9327 13.6064H13.9827L17.3927 7.7964C17.5827 7.4964 17.8427 7.3464 18.1327 7.3464C18.5927 7.3464 18.9527 7.6464 18.9527 8.0764C18.9527 8.3164 18.9127 8.4264 18.7827 8.6264L15.2727 14.2964H17.5527C17.8327 14.2964 18.0327 14.4964 18.0327 14.7764C18.0327 15.0564 17.8327 15.2564 17.5527 15.2564H14.7627V16.7364H17.5527C17.8327 16.7364 18.0327 16.9564 18.0327 17.2264C18.0327 17.4864 17.8327 17.7064 17.5527 17.7064H14.7627V19.7164C14.7627 20.2064 14.4227 20.5664 13.9427 20.5664Z"
        fillRule="evenodd"
        clipRule="evenodd"
    />
</svg>
        