
<svg
    viewBox={0 0 32.935546875 27.26189615322232}
    xmlns="http://www.w3.org/2000/svg"
>
    <path
        fill="inherit"
        d="M32.9327 16.3992C32.9327 7.7792 26.3227 0.7192 17.8927 -0.0008C17.4627 -0.0408 17.1327 0.2792 17.1327 0.7192V5.1892C17.1327 5.5592 17.3927 5.8392 17.7627 5.8692C22.9927 6.5092 27.0727 10.9792 27.0727 16.3992C27.0727 18.8592 26.2227 21.1292 24.7327 23.0292C24.5427 23.2592 24.5527 23.5592 24.7627 23.7792L28.0227 27.0292C28.3327 27.3292 28.7927 27.3292 29.0627 27.0092C31.4827 24.1392 32.9327 20.4292 32.9327 16.3992ZM0.0027 16.3992C0.0027 20.4392 1.4527 24.1492 3.8727 27.0192C4.1427 27.3492 4.5927 27.3292 4.9127 27.0292L8.1727 23.7792C8.3827 23.5592 8.3927 23.2592 8.2027 23.0292C6.7027 21.1292 5.8627 18.8592 5.8627 16.3992C5.8627 10.9792 9.9427 6.5092 15.1727 5.8692C15.5427 5.8392 15.8027 5.5592 15.8027 5.1892V0.7192C15.8027 0.2792 15.4727 -0.0408 15.0427 -0.0008C6.6127 0.7192 0.0027 7.7792 0.0027 16.3992ZM12.5227 19.7492C12.5227 20.0092 12.7327 20.2092 12.9927 20.2092H15.6727V22.1692C15.6727 22.6592 15.9827 22.9892 16.4427 22.9892C16.9227 22.9892 17.2427 22.6592 17.2427 22.1692V20.2092H19.9427C20.2027 20.2092 20.4127 20.0092 20.4127 19.7492C20.4127 19.4892 20.2027 19.2792 19.9427 19.2792H17.2427V17.8492H19.9427C20.2027 17.8492 20.4127 17.6392 20.4127 17.3792C20.4127 17.1192 20.2027 16.9192 19.9427 16.9192H17.7327L21.1327 11.4192C21.2627 11.2192 21.3027 11.1192 21.3027 10.8992C21.3027 10.4592 20.9627 10.1792 20.5227 10.1792C20.2227 10.1792 19.9727 10.3392 19.7927 10.6292L16.4927 16.2492H16.4327L13.1227 10.6292C12.9427 10.3392 12.7527 10.1592 12.3827 10.1592C11.9527 10.1592 11.6027 10.4492 11.6027 10.8992C11.6027 11.0492 11.6527 11.2292 11.7727 11.4292L15.1727 16.9192H12.9927C12.7327 16.9192 12.5227 17.1192 12.5227 17.3792C12.5227 17.6392 12.7327 17.8492 12.9927 17.8492H15.6727V19.2792H12.9927C12.7327 19.2792 12.5227 19.4892 12.5227 19.7492Z"
        fillRule="evenodd"
        clipRule="evenodd"
    />
</svg>
        