
<svg
    viewBox="0 0 30.544813437289534 27.890625"
    xmlns="http://www.w3.org/2000/svg"
>
    <path
        fill="inherit"
        d="M0.9769 11.3064C-0.0131 11.3064 -0.2531 11.9764 0.2769 12.7464L3.3369 17.0864C3.7869 17.7164 4.4469 17.7064 4.8869 17.0864L7.9269 12.7264C8.4669 11.9764 8.2069 11.3064 7.2469 11.3064H5.2769C6.4669 6.1564 11.0769 2.3264 16.5969 2.3264C23.0269 2.3264 28.2169 7.5164 28.2169 13.9464C28.2169 20.3664 23.0269 25.5664 16.5969 25.5664C12.7169 25.5664 9.2569 23.6564 7.1969 20.7564C6.7669 20.1964 6.1269 20.0164 5.5569 20.3564C5.0069 20.6964 4.8369 21.4664 5.3069 22.0664C7.8369 25.6064 11.9769 27.8864 16.5969 27.8864C24.2969 27.8864 30.5469 21.6464 30.5469 13.9464C30.5469 6.2464 24.2969 -0.0036 16.5969 -0.0036C9.8069 -0.0036 4.1269 4.8664 2.8969 11.3064ZM12.6769 17.1164C12.6769 17.3764 12.8769 17.5864 13.1369 17.5864H15.8069V19.5364C15.8069 20.0264 16.1369 20.3564 16.5969 20.3564C17.0669 20.3564 17.3969 20.0264 17.3969 19.5364V17.5864H20.0969C20.3569 17.5864 20.5669 17.3764 20.5669 17.1164C20.5669 16.8564 20.3569 16.6564 20.0969 16.6564H17.3969V15.2164H20.0969C20.3569 15.2164 20.5669 15.0164 20.5669 14.7564C20.5669 14.4764 20.3569 14.2864 20.0969 14.2864H17.8869L21.2869 8.7864C21.4169 8.5864 21.4569 8.4864 21.4569 8.2564C21.4569 7.8364 21.0969 7.5464 20.6569 7.5464C20.3769 7.5464 20.1269 7.6964 19.9469 7.9864L16.6369 13.6164H16.5869L13.2669 7.9864C13.0969 7.6964 12.8969 7.5364 12.5369 7.5364C12.0869 7.5364 11.7469 7.8164 11.7469 8.2564C11.7469 8.4264 11.7969 8.5964 11.9269 8.7864L15.3269 14.2864H13.1369C12.8769 14.2864 12.6769 14.4764 12.6769 14.7564C12.6769 15.0164 12.8769 15.2164 13.1369 15.2164H15.8069V16.6564H13.1369C12.8769 16.6564 12.6769 16.8564 12.6769 17.1164Z"
        fillRule="evenodd"
        clipRule="evenodd"
    />
</svg>
        