
<svg
    viewBox={0 0 27.890625 27.890625}
    xmlns="http://www.w3.org/2000/svg"
>
    <path
        fill="inherit"
        d="M13.9427 27.8864C21.6427 27.8864 27.8927 21.6464 27.8927 13.9464C27.8927 6.2464 21.6427 -0.0036 13.9427 -0.0036C6.2527 -0.0036 0.0027 6.2464 0.0027 13.9464C0.0027 21.6464 6.2527 27.8864 13.9427 27.8864ZM13.9427 25.5664C7.5227 25.5664 2.3227 20.3664 2.3227 13.9464C2.3227 7.5164 7.5227 2.3264 13.9427 2.3264C20.3727 2.3264 25.5627 7.5164 25.5627 13.9464C25.5627 20.3664 20.3727 25.5664 13.9427 25.5664ZM10.0127 17.1164C10.0127 17.3764 10.2127 17.5864 10.4727 17.5864H13.1427V19.5364C13.1427 20.0264 13.4627 20.3564 13.9327 20.3564C14.3927 20.3564 14.7227 20.0264 14.7227 19.5364V17.5864H17.4327C17.6927 17.5864 17.8927 17.3764 17.8927 17.1164C17.8927 16.8564 17.6927 16.6564 17.4327 16.6564H14.7227V15.2164H17.4327C17.6927 15.2164 17.8927 15.0164 17.8927 14.7564C17.8927 14.4764 17.6927 14.2864 17.4327 14.2864H15.2127L18.6227 8.7864C18.7427 8.5864 18.7827 8.4864 18.7827 8.2564C18.7827 7.8364 18.4327 7.5464 17.9927 7.5464C17.7027 7.5464 17.4627 7.6964 17.2827 7.9864L13.9727 13.6164H13.9227L10.5927 7.9864C10.4327 7.6964 10.2227 7.5364 9.8727 7.5364C9.4227 7.5364 9.0827 7.8164 9.0827 8.2564C9.0827 8.4264 9.1327 8.5964 9.2527 8.7864L12.6627 14.2864H10.4727C10.2127 14.2864 10.0127 14.4764 10.0127 14.7564C10.0127 15.0164 10.2127 15.2164 10.4727 15.2164H13.1427V16.6564H10.4727C10.2127 16.6564 10.0127 16.8564 10.0127 17.1164Z"
        fillRule="evenodd"
        clipRule="evenodd"
    />
</svg>
        