
<svg
    viewBox="0 0 30.5703125 30.5703125"
    xmlns="http://www.w3.org/2000/svg"
>
    <path
        fill="inherit"
        d="M15.2827 30.5663C23.6827 30.5663 30.5727 23.6763 30.5727 15.2863C30.5727 6.8863 23.6827 -0.0038 15.2827 -0.0038C6.8927 -0.0038 0.0027 6.8863 0.0027 15.2863C0.0027 23.6763 6.8927 30.5663 15.2827 30.5663ZM15.2827 25.4862C9.6527 25.4862 5.0827 20.9162 5.0827 15.2863C5.0827 9.6363 9.6527 5.0863 15.2827 5.0863C20.9327 5.0863 25.4827 9.6363 25.4827 15.2863C25.4827 20.9162 20.9327 25.4862 15.2827 25.4862ZM11.3627 18.4563C11.3627 18.7163 11.5627 18.9263 11.8227 18.9263H14.4927V20.8763C14.4927 21.3663 14.8227 21.6963 15.2827 21.6963C15.7627 21.6963 16.0827 21.3663 16.0827 20.8763V18.9263H18.7827C19.0427 18.9263 19.2527 18.7163 19.2527 18.4563C19.2527 18.1963 19.0427 17.9963 18.7827 17.9963H16.0827V16.5563H18.7827C19.0427 16.5563 19.2527 16.3563 19.2527 16.0962C19.2527 15.8163 19.0427 15.6263 18.7827 15.6263H16.5727L19.9727 10.1263C20.0927 9.9263 20.1427 9.8263 20.1427 9.5963C20.1427 9.1763 19.7927 8.8863 19.3427 8.8863C19.0627 8.8863 18.8127 9.0362 18.6327 9.3263L15.3227 14.9563H15.2727L11.9527 9.3263C11.7827 9.0362 11.5827 8.8762 11.2227 8.8762C10.7827 8.8762 10.4327 9.1563 10.4327 9.5963C10.4327 9.7663 10.4827 9.9363 10.6127 10.1263L14.0127 15.6263H11.8227C11.5627 15.6263 11.3627 15.8163 11.3627 16.0962C11.3627 16.3563 11.5627 16.5563 11.8227 16.5563H14.4927V17.9963H11.8227C11.5627 17.9963 11.3627 18.1963 11.3627 18.4563Z"
        fillRule="evenodd"
        clipRule="evenodd"
    />
</svg>
        