<svg viewBox="0 0 28.65625 25.9765625" xmlns="http://www.w3.org/2000/svg"><path d="M3.7309 -0.0023C1.4109 -0.0023 0.0009 1.6277 0.0009 3.7177C0.0009 4.3477 0.1609 5.0077 0.5309 5.6377L11.1409 24.1177C11.8409 25.3477 13.0709 25.9777 14.3309 25.9777C15.5909 25.9777 16.8009 25.3477 17.5109 24.1177L28.1209 5.6377C28.4609 5.0177 28.6609 4.3477 28.6609 3.7177C28.6609 1.6277 27.2509 -0.0023 24.9209 -0.0023ZM3.7509 2.1577H24.9009C25.8409 2.1577 26.4409 2.8977 26.4409 3.7177C26.4409 3.9877 26.3709 4.2977 26.2209 4.5777L15.6309 23.0777C15.3409 23.5877 14.8309 23.8077 14.3309 23.8077C13.8209 23.8077 13.3009 23.5877 13.0109 23.0777L2.4209 4.5977C2.2709 4.3077 2.2109 3.9877 2.2109 3.7177C2.2109 2.8977 2.7909 2.1577 3.7509 2.1577ZM5.7009 4.1677C5.1409 4.1677 4.8109 4.6877 5.1109 5.2077L13.7309 20.2577C14.0109 20.7677 14.6309 20.7677 14.9209 20.2577L23.5309 5.2077C23.8209 4.7077 23.5009 4.1677 22.9409 4.1677Z" /></svg>