
<svg
    viewBox={0 0 28.65625 25.9765625}
    xmlns="http://www.w3.org/2000/svg"
>
    <path
        fill="inherit"
        d="M3.7309 -0.0023C1.4109 -0.0023 0.0009 1.6277 0.0009 3.7177C0.0009 4.3477 0.1609 5.0077 0.5309 5.6377L11.1409 24.1177C11.8409 25.3477 13.0709 25.9777 14.3309 25.9777C15.5909 25.9777 16.8009 25.3477 17.5109 24.1177L28.1209 5.6377C28.4609 5.0177 28.6609 4.3477 28.6609 3.7177C28.6609 1.6277 27.2509 -0.0023 24.9209 -0.0023ZM5.4409 3.9277H23.2009C23.7709 3.9277 24.0909 4.4677 23.8009 4.9877L14.9309 20.4777C14.6409 21.0177 14.0009 21.0177 13.7109 20.4777L4.8409 4.9877C4.5409 4.4577 4.8709 3.9277 5.4409 3.9277Z"
        fillRule="evenodd"
        clipRule="evenodd"
    />
</svg>
        