<svg viewBox="0 0 27.890625 27.890625" xmlns="http://www.w3.org/2000/svg"><path d="M13.9427 27.8864C21.6427 27.8864 27.8927 21.6464 27.8927 13.9464C27.8927 6.2464 21.6427 -0.0036 13.9427 -0.0036C6.2527 -0.0036 0.0027 6.2464 0.0027 13.9464C0.0027 21.6464 6.2527 27.8864 13.9427 27.8864ZM13.9427 25.5664C7.5227 25.5664 2.3227 20.3664 2.3227 13.9464C2.3227 7.5164 7.5227 2.3264 13.9427 2.3264C20.3727 2.3264 25.5627 7.5164 25.5627 13.9464C25.5627 20.3664 20.3727 25.5664 13.9427 25.5664ZM9.9927 20.0464H18.0027C18.5227 20.0464 18.9227 19.6964 18.9227 19.1564C18.9227 18.5964 18.5227 18.2564 18.0027 18.2564H11.8627V18.1464L18.1427 9.4364C18.4127 9.0664 18.4727 8.8764 18.4727 8.5564C18.4727 7.9864 18.0627 7.5864 17.4627 7.5864H9.8727C9.3527 7.5864 8.9727 7.9264 8.9727 8.4764C8.9727 9.0364 9.3527 9.3764 9.8727 9.3764H15.6727V9.4864L9.3827 18.1964C9.0827 18.6164 9.0127 18.8164 9.0127 19.1164C9.0127 19.6564 9.4027 20.0464 9.9927 20.0464Z" /></svg>