
<svg
    viewBox={0 0 25.169921875 25.169921875}
    xmlns="http://www.w3.org/2000/svg"
>
    <path
        fill="inherit"
        d="M4.2937 25.1692H20.8737C23.7437 25.1692 25.1737 23.7592 25.1737 20.9492V4.2392C25.1737 1.4192 23.7437 -0.0008 20.8737 -0.0008H4.2937C1.4337 -0.0008 0.0037 1.4192 0.0037 4.2392V20.9492C0.0037 23.7592 1.4337 25.1692 4.2937 25.1692ZM4.3237 22.9692C2.9537 22.9692 2.2037 22.2392 2.2037 20.8192V4.3592C2.2037 2.9392 2.9537 2.1992 4.3237 2.1992H20.8537C22.2037 2.1992 22.9737 2.9392 22.9737 4.3592V20.8192C22.9737 22.2392 22.2037 22.9692 20.8537 22.9692ZM8.6537 18.6792H16.6637C17.2037 18.6792 17.5837 18.3292 17.5837 17.7892C17.5837 17.2292 17.2037 16.8892 16.6637 16.8892H10.5237V16.7792L16.8037 8.0692C17.0737 7.6992 17.1337 7.5092 17.1337 7.1892C17.1337 6.6192 16.7237 6.2192 16.1337 6.2192H8.5437C8.0137 6.2192 7.6337 6.5592 7.6337 7.1092C7.6337 7.6692 8.0137 8.0092 8.5437 8.0092H14.3237V8.1192L8.0437 16.8292C7.7537 17.2492 7.6737 17.4492 7.6737 17.7492C7.6737 18.2892 8.0837 18.6792 8.6537 18.6792Z"
        fillRule="evenodd"
        clipRule="evenodd"
    />
</svg>
        