
<svg
    viewBox={0 0 25.169921875 25.169921875}
    xmlns="http://www.w3.org/2000/svg"
>
    <path
        fill="inherit"
        d="M4.2937 25.1692H20.8737C23.7437 25.1692 25.1737 23.7592 25.1737 20.9492V4.2392C25.1737 1.4192 23.7437 -0.0008 20.8737 -0.0008H4.2937C1.4337 -0.0008 0.0037 1.4192 0.0037 4.2392V20.9492C0.0037 23.7592 1.4337 25.1692 4.2937 25.1692ZM8.5337 18.8692C7.9337 18.8692 7.5037 18.4692 7.5037 17.9092C7.5037 17.5992 7.6037 17.4092 7.8937 16.9692L14.3737 7.9992V7.8792H8.4237C7.8637 7.8792 7.4637 7.5292 7.4637 6.9492C7.4637 6.3892 7.8637 6.0292 8.4237 6.0292H16.2437C16.8537 6.0292 17.2837 6.4392 17.2837 7.0292C17.2837 7.3592 17.2137 7.5492 16.9437 7.9292L10.4737 16.8992V17.0192H16.7937C17.3537 17.0192 17.7437 17.3592 17.7437 17.9492C17.7437 18.5092 17.3537 18.8692 16.7937 18.8692Z"
        fillRule="evenodd"
        clipRule="evenodd"
    />
</svg>
        