
<svg
    viewBox={0 0 22.99609375 30.638671875}
    xmlns="http://www.w3.org/2000/svg"
>
    <path
        fill="inherit"
        d="M0.0037 26.3635C0.0037 29.2135 1.4037 30.6435 4.2337 30.6435H18.7537C21.5837 30.6435 22.9937 29.2135 22.9937 26.3635V5.6235C22.9937 2.7735 21.5837 1.3235 18.7537 1.3235H13.5237L13.3937 0.7935C13.2737 0.3135 12.8637 0.0035 12.3637 0.0035H10.6337C10.1337 0.0035 9.7237 0.3135 9.5937 0.7935L9.4737 1.3235H4.2337C1.4037 1.3235 0.0037 2.7735 0.0037 5.6235ZM2.2037 26.3135V5.6635C2.2037 4.2935 2.9237 3.5235 4.3437 3.5235H8.9737L8.3137 6.3935C8.2337 6.7835 8.1937 7.1635 8.1937 7.5435C8.1937 9.2435 9.0937 10.3635 10.6537 10.6535V14.0835H8.2737C7.7937 14.0835 7.4237 14.4335 7.4237 14.9035C7.4237 15.3835 7.7937 15.7635 8.2737 15.7635H10.6537V17.7835H8.2737C7.7937 17.7835 7.4237 18.1435 7.4237 18.6035C7.4237 19.0835 7.7937 19.4735 8.2737 19.4735H10.6537V21.4935H8.2737C7.7937 21.4935 7.4237 21.8435 7.4237 22.3135C7.4237 22.7935 7.7937 23.1735 8.2737 23.1735H10.6537V25.1935H8.2737C7.7937 25.1935 7.4237 25.5635 7.4237 26.0335C7.4237 26.5135 7.7937 26.8835 8.2737 26.8835H10.6537V28.4335H4.3437C2.9237 28.4335 2.2037 27.6835 2.2037 26.3135ZM14.7237 25.0235C15.2037 25.0235 15.5737 24.6535 15.5737 24.1735C15.5737 23.7035 15.2037 23.3335 14.7237 23.3335H12.3437V21.3135H14.7237C15.2037 21.3135 15.5737 20.9435 15.5737 20.4635C15.5737 20.0035 15.2037 19.6335 14.7237 19.6335H12.3437V17.6135H14.7237C15.2037 17.6135 15.5737 17.2435 15.5737 16.7635C15.5737 16.2935 15.2037 15.9235 14.7237 15.9235H12.3437V13.9035H14.7237C15.2037 13.9035 15.5737 13.5335 15.5737 13.0535C15.5737 12.5935 15.2037 12.2235 14.7237 12.2235H12.3437V10.6535C13.9037 10.3635 14.8037 9.2435 14.8037 7.5435C14.8037 7.1635 14.7637 6.7835 14.6837 6.3935L14.0237 3.5235H18.6437C20.0737 3.5235 20.7937 4.2935 20.7937 5.6635V26.3135C20.7937 27.6835 20.0737 28.4335 18.6437 28.4335H12.3437V25.0235ZM11.4937 8.9135C10.6537 8.9135 10.0037 8.2535 10.0037 7.4135C10.0037 6.5735 10.6637 5.9235 11.4937 5.9235C12.3337 5.9235 12.9837 6.5735 12.9837 7.4135C12.9837 8.2535 12.3637 8.9135 11.4937 8.9135Z"
        fillRule="evenodd"
        clipRule="evenodd"
    />
</svg>
        