
<svg
    viewBox="0 0 31.541015625 23.84375"
    xmlns="http://www.w3.org/2000/svg"
>
    <path
        fill="inherit"
        d="M11.4737 0.003C3.5437 0.003 0.0037 3.653 0.0037 11.113V19.683C0.0037 22.453 1.4237 23.843 4.1937 23.843H27.3437C30.1237 23.843 31.5437 22.433 31.5437 19.683V11.113C31.5437 3.653 28.0037 0.003 20.0737 0.003ZM11.4737 2.203H20.0537C26.5237 2.203 29.3437 5.003 29.3437 10.963V19.583C29.3437 20.943 28.6037 21.643 27.2937 21.643H4.2537C2.9137 21.643 2.2037 20.943 2.2037 19.583V10.963C2.2037 5.003 5.0137 2.203 11.4737 2.203ZM18.3437 17.473H22.2737C22.7337 17.473 23.1037 17.093 23.1037 16.643C23.1037 16.183 22.7337 15.803 22.2737 15.803H19.3437V7.233C19.3437 6.683 18.8937 6.233 18.3637 6.233C17.8237 6.233 17.3737 6.683 17.3737 7.233V16.433C17.3737 17.073 17.7237 17.473 18.3437 17.473ZM9.8837 17.513H14.7837C15.2337 17.513 15.6137 17.133 15.6137 16.683C15.6137 16.233 15.2337 15.843 14.7837 15.843H11.1137V15.763L15.2037 8.203C15.3437 7.943 15.4337 7.723 15.4337 7.393C15.4337 6.823 15.0437 6.423 14.4337 6.423H9.7237C9.2737 6.423 8.8837 6.813 8.8837 7.263C8.8837 7.713 9.2737 8.093 9.7237 8.093H13.2337V8.173L9.1037 15.753C8.9437 16.033 8.8837 16.253 8.8837 16.573C8.8837 17.173 9.2937 17.513 9.8837 17.513Z"
        fillRule="evenodd"
        clipRule="evenodd"
    />
</svg>
        