
<svg
    viewBox="0 0 31.541015625 23.84375"
    xmlns="http://www.w3.org/2000/svg"
>
    <path
        fill="inherit"
        d="M11.4737 0.003C3.5437 0.003 0.0037 3.653 0.0037 11.113V19.683C0.0037 22.453 1.4237 23.843 4.1937 23.843H27.3437C30.1237 23.843 31.5437 22.433 31.5437 19.683V11.113C31.5437 3.653 28.0037 0.003 20.0737 0.003ZM18.3337 17.433C17.7237 17.433 17.3637 17.033 17.3637 16.393V7.283C17.3637 6.743 17.8137 6.293 18.3637 6.293C18.8837 6.293 19.3337 6.743 19.3337 7.283V15.763H22.2337C22.6837 15.763 23.0637 16.143 23.0637 16.593C23.0637 17.053 22.6837 17.433 22.2337 17.433ZM9.9437 17.473C9.3537 17.473 8.9437 17.133 8.9437 16.533C8.9437 16.233 9.0137 15.993 9.1637 15.723L13.2437 8.213V8.153H9.7937C9.3237 8.153 8.9437 7.763 8.9437 7.313C8.9437 6.863 9.3237 6.493 9.7937 6.493H14.4537C15.0537 6.493 15.4537 6.873 15.4537 7.453C15.4537 7.783 15.3437 7.983 15.2037 8.243L11.1537 15.723V15.823H14.7937C15.2437 15.823 15.6237 16.203 15.6237 16.643C15.6237 17.093 15.2437 17.473 14.7937 17.473Z"
        fillRule="evenodd"
        clipRule="evenodd"
    />
</svg>
        