
<svg
    viewBox="0 0 31.541015625 23.84375"
    xmlns="http://www.w3.org/2000/svg"
>
    <path
        fill="inherit"
        d="M11.4737 0.003C3.5437 0.003 0.0037 3.653 0.0037 11.113V19.683C0.0037 22.453 1.4237 23.843 4.1937 23.843H27.3437C30.1237 23.843 31.5437 22.433 31.5437 19.683V11.113C31.5437 3.653 28.0037 0.003 20.0737 0.003ZM17.5037 17.593C16.8537 17.593 16.4837 17.183 16.4837 16.553V7.493C16.4837 6.853 16.8537 6.463 17.4837 6.463H19.7937C21.9037 6.463 23.2137 7.643 23.2137 9.843C23.2137 11.073 22.7537 12.263 21.6537 12.823L22.9437 15.883C23.0737 16.203 23.1637 16.493 23.1637 16.623C23.1637 17.323 22.6637 17.593 22.2137 17.593C21.6837 17.593 21.3837 17.293 21.1737 16.793L19.7837 13.233H18.4937V16.553C18.4937 17.203 18.1137 17.593 17.5037 17.593ZM9.0637 17.473C8.4737 17.473 8.0637 17.133 8.0637 16.533C8.0637 16.213 8.1237 15.993 8.2837 15.723L12.3837 8.213V8.153H8.9037C8.4537 8.153 8.0637 7.763 8.0637 7.303C8.0637 6.853 8.4537 6.483 8.9037 6.483H13.5737C14.1637 6.483 14.5637 6.863 14.5637 7.453C14.5637 7.783 14.4637 7.983 14.3437 8.243L10.2937 15.723V15.803H13.9337C14.3737 15.803 14.7537 16.183 14.7537 16.623C14.7537 17.093 14.3737 17.473 13.9337 17.473ZM18.4937 11.773H19.6037C20.7137 11.773 21.2037 10.983 21.2037 9.883C21.2037 8.803 20.6437 8.043 19.6037 8.043H18.4937Z"
        fillRule="evenodd"
        clipRule="evenodd"
    />
</svg>
        