
<svg
    viewBox={0 0 23.146484375 28.587890625}
    xmlns="http://www.w3.org/2000/svg"
>
    <path
        fill="inherit"
        d="M1.3505 13.6419H10.0505C10.7005 13.6419 11.0705 13.2919 11.0705 12.6719C11.0705 12.0819 10.7005 11.7419 10.0505 11.7419H2.7505V11.6919L10.4005 2.4619C10.8405 1.9319 10.9505 1.6319 10.9505 1.2119C10.9505 0.4619 10.4305 0.0019 9.5305 0.0019H1.0205C0.3805 0.0019 0.0005 0.3419 0.0005 0.9419C0.0005 1.5419 0.3805 1.9019 1.0205 1.9019H8.3305V1.9419L0.4905 11.4119C0.1805 11.7819 0.1005 12.0619 0.1005 12.4519C0.1005 13.1619 0.5905 13.6419 1.3505 13.6419ZM15.2405 21.0019H22.1505C22.7805 21.0019 23.1505 20.6619 23.1505 20.0719C23.1505 19.4919 22.7805 19.1719 22.1505 19.1719H16.5305V19.1119L22.3805 12.0619C22.8505 11.5019 23.0005 11.1819 23.0005 10.8019C23.0005 10.0619 22.5205 9.6119 21.6405 9.6119H14.9205C14.2905 9.6119 13.9305 9.9519 13.9305 10.5319C13.9305 11.1119 14.2905 11.4419 14.9205 11.4419H20.5205V11.5019L14.5105 18.7719C14.1505 19.1919 14.0105 19.4719 14.0105 19.8519C14.0105 20.5319 14.4905 21.0019 15.2405 21.0019ZM5.3705 28.5919H10.9105C11.4805 28.5919 11.8305 28.2719 11.8305 27.7219C11.8305 27.1919 11.4805 26.8919 10.9105 26.8919H6.5805V26.8419L11.1105 21.3019C11.5505 20.7719 11.6905 20.4419 11.6905 20.0519C11.6905 19.3819 11.2505 19.0219 10.5105 19.0219H5.0305C4.4405 19.0219 4.1105 19.3419 4.1105 19.8819C4.1105 20.4219 4.4405 20.7219 5.0305 20.7219H9.4205V20.7819L4.6805 26.5219C4.3305 26.9319 4.2405 27.1519 4.2405 27.5519C4.2405 28.1519 4.6805 28.5919 5.3705 28.5919Z"
        fillRule="evenodd"
        clipRule="evenodd"
    />
</svg>
        