<svg viewBox="0 0 25.169921875 25.169921875" xmlns="http://www.w3.org/2000/svg"><path d="M4.2937 25.1692H20.8737C23.7437 25.1692 25.1737 23.7592 25.1737 20.9492V4.2392C25.1737 1.4192 23.7437 -0.0008 20.8737 -0.0008H4.2937C1.4337 -0.0008 0.0037 1.4192 0.0037 4.2392V20.9492C0.0037 23.7592 1.4337 25.1692 4.2937 25.1692ZM8.1237 18.5692C5.3037 18.5692 4.4537 15.4192 4.4537 12.5792C4.4537 9.7392 5.3037 6.5892 8.1237 6.5892C10.9237 6.5892 11.7737 9.7392 11.7737 12.5792C11.7737 15.4192 10.9237 18.5692 8.1237 18.5692ZM17.0637 18.5692C14.2637 18.5692 13.4137 15.4192 13.4137 12.5792C13.4137 9.7392 14.2637 6.5892 17.0637 6.5892C19.8937 6.5892 20.7237 9.7392 20.7237 12.5792C20.7237 15.4192 19.8937 18.5692 17.0637 18.5692ZM8.1237 16.8892C9.2737 16.8892 9.7037 15.0292 9.7037 12.5792C9.7037 10.1192 9.2737 8.2692 8.1237 8.2692C6.9737 8.2692 6.5337 10.1192 6.5337 12.5792C6.5337 15.0292 6.9737 16.8892 8.1237 16.8892ZM17.0637 16.8892C18.2137 16.8892 18.6437 15.0292 18.6437 12.5792C18.6437 10.1192 18.2137 8.2692 17.0637 8.2692C15.9137 8.2692 15.4737 10.1192 15.4737 12.5792C15.4737 15.0292 15.9137 16.8892 17.0637 16.8892Z" /></svg>