<svg viewBox="0 0 27.890625 27.890625" xmlns="http://www.w3.org/2000/svg"><path d="M13.9427 27.8864C21.6427 27.8864 27.8927 21.6264 27.8927 13.9464C27.8927 6.2464 21.6427 -0.0036 13.9427 -0.0036C6.2627 -0.0036 0.0027 6.2464 0.0027 13.9464C0.0027 21.6264 6.2627 27.8864 13.9427 27.8864ZM9.6627 19.9364C6.8527 19.9364 6.0127 16.7864 6.0127 13.9464C6.0127 11.1064 6.8527 7.9564 9.6627 7.9564C12.4827 7.9564 13.3127 11.1064 13.3127 13.9464C13.3127 16.7864 12.4827 19.9364 9.6627 19.9364ZM15.7927 19.6464C15.1527 19.6464 14.8327 19.3064 14.8327 18.8264C14.8327 18.3764 15.1027 18.0164 15.3627 17.6864L17.8127 14.5564C18.5527 13.6164 19.3427 12.4664 19.3427 11.3364C19.3427 10.3364 18.8627 9.5964 18.0327 9.5964C17.2127 9.5964 16.8727 10.1864 16.6127 11.1264C16.4627 11.5964 16.1727 11.7964 15.7127 11.7964C15.1627 11.7964 14.8427 11.4464 14.8427 10.9064C14.8427 9.4464 16.2327 7.9564 18.0327 7.9564C19.9727 7.9564 21.2727 9.3364 21.2727 11.2364C21.2727 12.4864 20.7927 13.5264 19.4027 15.2764L17.3527 17.8664V17.9764H20.6827C21.1827 17.9764 21.4927 18.2764 21.4927 18.8264C21.4927 19.3164 21.1927 19.6464 20.6827 19.6464ZM9.6627 18.2564C10.8127 18.2564 11.2527 16.3964 11.2527 13.9464C11.2527 11.4864 10.8127 9.6364 9.6627 9.6364C8.5127 9.6364 8.0827 11.4864 8.0827 13.9464C8.0827 16.3964 8.5127 18.2564 9.6627 18.2564Z" /></svg>