<svg viewBox="0 0 27.890625 27.890625" xmlns="http://www.w3.org/2000/svg"><path d="M13.9427 27.8864C21.6427 27.8864 27.8927 21.6464 27.8927 13.9464C27.8927 6.2464 21.6427 -0.0036 13.9427 -0.0036C6.2527 -0.0036 0.0027 6.2464 0.0027 13.9464C0.0027 21.6464 6.2527 27.8864 13.9427 27.8864ZM13.9427 25.5664C7.5227 25.5664 2.3227 20.3664 2.3227 13.9464C2.3227 7.5164 7.5227 2.3264 13.9427 2.3264C20.3727 2.3264 25.5627 7.5164 25.5627 13.9464C25.5627 20.3664 20.3727 25.5664 13.9427 25.5664ZM9.7727 19.7564C12.5127 19.7564 13.3127 16.6964 13.3127 13.9464C13.3127 11.1964 12.5127 8.1364 9.7727 8.1364C7.0527 8.1364 6.2527 11.1964 6.2527 13.9464C6.2527 16.6964 7.0527 19.7564 9.7727 19.7564ZM15.7127 19.4664H20.4527C20.9427 19.4664 21.2327 19.1564 21.2327 18.6764C21.2327 18.1564 20.9327 17.8664 20.4527 17.8664H17.2127V17.7564L19.2127 15.2264C20.5727 13.5364 21.0227 12.5264 21.0227 11.3164C21.0227 9.4764 19.7727 8.1364 17.8827 8.1364C16.1327 8.1364 14.8027 9.5864 14.8027 11.0064C14.8027 11.5164 15.1027 11.8664 15.6227 11.8664C16.0827 11.8664 16.3527 11.6664 16.5027 11.2064C16.7527 10.2964 17.0927 9.7164 17.8827 9.7164C18.7027 9.7164 19.1727 10.4464 19.1727 11.4164C19.1727 12.5064 18.4027 13.6164 17.6827 14.5464L15.3027 17.5864C15.0527 17.9064 14.7927 18.2564 14.7927 18.6764C14.7927 19.1364 15.0927 19.4664 15.7127 19.4664ZM9.7727 18.1264C8.6527 18.1264 8.2327 16.3064 8.2327 13.9464C8.2327 11.5664 8.6527 9.7464 9.7727 9.7464C10.8927 9.7464 11.3227 11.5664 11.3227 13.9464C11.3227 16.3064 10.8927 18.1264 9.7727 18.1264Z" /></svg>