<svg viewBox="0 0 27.890625 27.890625" xmlns="http://www.w3.org/2000/svg"><path d="M13.9427 27.8901C21.6427 27.8901 27.8927 21.6301 27.8927 13.9501C27.8927 6.2501 21.6427 0.0001 13.9427 0.0001C6.2627 0.0001 0.0027 6.2501 0.0027 13.9501C0.0027 21.6301 6.2627 27.8901 13.9427 27.8901ZM9.4627 19.9301C6.6427 19.9301 5.8127 16.7901 5.8127 13.9501C5.8127 11.1001 6.6427 7.9601 9.4627 7.9601C12.2727 7.9601 13.1127 11.1001 13.1127 13.9501C13.1127 16.7901 12.2727 19.9301 9.4627 19.9301ZM18.1727 19.8901C16.6527 19.8901 15.2027 19.1701 14.8027 17.8601C14.7427 17.6201 14.6927 17.3801 14.6927 17.1201C14.6927 16.5601 15.0627 16.2301 15.6127 16.2301C16.0827 16.2301 16.3827 16.4601 16.5127 16.9301C16.6927 17.5701 17.1427 18.2501 18.1727 18.2501C19.2127 18.2501 19.7327 17.4201 19.7327 16.4601C19.7327 15.2301 19.0727 14.5701 17.8727 14.5701H17.5227C17.0627 14.5701 16.7527 14.2901 16.7527 13.8201C16.7527 13.3701 17.0527 13.0701 17.5227 13.0701H17.8527C18.9127 13.0701 19.4827 12.3201 19.4827 11.2901C19.4827 10.3601 19.0427 9.6501 18.1127 9.6501C17.3227 9.6501 16.8727 10.1701 16.6527 11.0101C16.5127 11.5001 16.2327 11.6801 15.7527 11.6801C15.1927 11.6801 14.8727 11.3101 14.8727 10.8401C14.8727 10.6101 14.9027 10.3501 14.9827 10.0801C15.3927 8.8301 16.6627 8.0101 18.1127 8.0101C19.9427 8.0101 21.4127 9.1201 21.4127 11.0701C21.4127 12.2501 20.7827 13.4001 19.5127 13.7401V13.7801C20.7027 13.9001 21.7427 14.7701 21.7427 16.5201C21.7427 18.6201 20.1927 19.8901 18.1727 19.8901ZM9.4627 18.2501C10.5927 18.2501 11.0327 16.3901 11.0327 13.9501C11.0327 11.4801 10.5927 9.6201 9.4627 9.6201C8.3127 9.6201 7.8727 11.4801 7.8727 13.9501C7.8727 16.3901 8.3127 18.2501 9.4627 18.2501Z" /></svg>