<svg viewBox="0 0 25.169921875 25.169921875" xmlns="http://www.w3.org/2000/svg"><path d="M4.2937 25.1692H20.8737C23.7437 25.1692 25.1737 23.7592 25.1737 20.9492V4.2392C25.1737 1.4192 23.7437 -0.0008 20.8737 -0.0008H4.2937C1.4337 -0.0008 0.0037 1.4192 0.0037 4.2392V20.9492C0.0037 23.7592 1.4337 25.1692 4.2937 25.1692ZM8.0937 18.5692C5.2637 18.5692 4.4337 15.4192 4.4337 12.5792C4.4337 9.7392 5.2637 6.5892 8.0937 6.5892C10.8937 6.5892 11.7337 9.7392 11.7337 12.5792C11.7337 15.4192 10.8937 18.5692 8.0937 18.5692ZM18.5537 18.4592C18.1037 18.4592 17.5837 18.1992 17.5837 17.4592V16.0492H14.4237C13.7437 16.0492 13.2637 15.5892 13.2637 14.8992C13.2637 14.4692 13.3537 14.0992 13.5737 13.5492L16.0937 8.0792C16.4837 7.2092 16.9537 6.6992 17.9637 6.6992C18.8837 6.6992 19.5237 7.2492 19.5237 8.2292V14.4092H20.0337C20.5937 14.4092 20.8337 14.7692 20.8337 15.2192C20.8337 15.6992 20.5737 16.0492 20.0337 16.0492H19.5237V17.4592C19.5237 18.1292 19.1037 18.4592 18.5537 18.4592ZM8.0937 16.8892C9.2437 16.8892 9.6837 15.0292 9.6837 12.5792C9.6837 10.1192 9.2437 8.2692 8.0937 8.2692C6.9437 8.2692 6.5037 10.1192 6.5037 12.5792C6.5037 15.0292 6.9437 16.8892 8.0937 16.8892ZM17.6237 14.4492V8.4792H17.5637L15.0137 14.3592V14.4492Z" /></svg>