<svg viewBox="0 0 27.890625 27.890625" xmlns="http://www.w3.org/2000/svg"><path d="M13.9427 27.8864C21.6427 27.8864 27.8927 21.6464 27.8927 13.9464C27.8927 6.2464 21.6427 -0.0036 13.9427 -0.0036C6.2527 -0.0036 0.0027 6.2464 0.0027 13.9464C0.0027 21.6464 6.2527 27.8864 13.9427 27.8864ZM13.9427 25.5664C7.5227 25.5664 2.3227 20.3664 2.3227 13.9464C2.3227 7.5164 7.5227 2.3264 13.9427 2.3264C20.3727 2.3264 25.5627 7.5164 25.5627 13.9464C25.5627 20.3664 20.3727 25.5664 13.9427 25.5664ZM9.6527 19.7564C12.3727 19.7564 13.1927 16.6964 13.1927 13.9464C13.1927 11.1964 12.3727 8.1364 9.6527 8.1364C6.9327 8.1364 6.1127 11.1964 6.1127 13.9464C6.1127 16.6964 6.9327 19.7564 9.6527 19.7564ZM18.1027 19.7564C20.2327 19.7564 21.3927 17.9664 21.3927 15.8064C21.3927 13.9164 20.4927 12.1964 18.7327 12.1964C17.9227 12.1964 17.1827 12.5664 16.8327 13.3564H16.7727L16.9927 10.0364H20.2027C20.6727 10.0364 20.9727 9.7064 20.9727 9.2264C20.9727 8.7764 20.6627 8.4264 20.2027 8.4264H16.4427C15.7327 8.4264 15.4127 8.8864 15.3627 9.5964L15.1327 13.3464C15.1227 13.5464 15.1227 13.7664 15.1227 13.9464C15.1227 14.4664 15.3827 14.9264 16.0127 14.9264C16.3927 14.9264 16.5927 14.7764 16.8827 14.4064C17.2027 13.9564 17.5427 13.6264 18.1027 13.6264C19.1027 13.6264 19.4827 14.8464 19.4827 15.8564C19.4827 16.9964 19.0827 18.1564 18.0727 18.1564C17.3127 18.1564 16.8727 17.6064 16.6227 16.8564C16.4627 16.4164 16.1627 16.2164 15.7927 16.2164C15.3027 16.2164 14.9727 16.5264 14.9727 17.0364C14.9727 17.3464 15.0527 17.6464 15.1727 17.9264C15.6527 19.0264 16.8527 19.7564 18.1027 19.7564ZM9.6527 18.1264C8.5327 18.1264 8.1027 16.3064 8.1027 13.9464C8.1027 11.5664 8.5327 9.7464 9.6527 9.7464C10.7727 9.7464 11.1927 11.5664 11.1927 13.9464C11.1927 16.3064 10.7727 18.1264 9.6527 18.1264Z" /></svg>