<svg viewBox="0 0 27.890625 30.544813437289534" xmlns="http://www.w3.org/2000/svg"><path d="M13.9427 30.5406C21.6427 30.5406 27.8927 24.3006 27.8927 16.6006C27.8927 11.9106 25.6027 7.8506 22.0827 5.3106C21.4827 4.8406 20.7027 5.0106 20.3527 5.5506C20.0127 6.1306 20.1927 6.7706 20.7527 7.1906C23.6527 9.2706 25.5627 12.7006 25.5627 16.6006C25.5627 23.0206 20.3727 28.2206 13.9427 28.2206C7.5227 28.2206 2.3227 23.0206 2.3227 16.6006C2.3227 11.0506 6.1627 6.4706 11.3027 5.2806V7.2506C11.3027 8.2206 11.9727 8.4606 12.7327 7.9406L17.0927 4.8806C17.7027 4.4406 17.7227 3.7906 17.0927 3.3406L12.7427 0.2706C11.9727 -0.2594 11.3027 -0.0094 11.3027 0.9706V2.9106C4.9127 4.1206 0.0027 9.7806 0.0027 16.6006C0.0027 24.3006 6.2527 30.5406 13.9427 30.5406ZM17.2027 22.3006C19.8927 22.3006 20.8327 19.5406 20.8327 16.8406C20.8327 14.1506 19.8927 11.4006 17.2027 11.4006C14.4927 11.4006 13.5627 14.1706 13.5627 16.8406C13.5627 19.5506 14.5227 22.3006 17.2027 22.3006ZM10.2927 22.2206C10.8927 22.2206 11.2527 21.7906 11.2527 21.2106V12.5706C11.2527 11.9006 10.8327 11.5006 10.1627 11.5006C9.6127 11.5006 9.2127 11.7506 8.7927 12.0706L7.2427 13.2206C6.9727 13.4106 6.8127 13.6506 6.8127 13.9706C6.8127 14.3706 7.0927 14.6706 7.4827 14.6706C7.6827 14.6706 7.8227 14.6206 7.9727 14.4906L9.3227 13.4806H9.3527V21.2106C9.3527 21.7906 9.7027 22.2206 10.2927 22.2206ZM17.2027 20.7606C16.0627 20.7606 15.4927 19.0706 15.4927 16.8406C15.4927 14.6306 16.0627 12.9606 17.2027 12.9606C18.3427 12.9606 18.9127 14.6406 18.9127 16.8406C18.9127 19.0706 18.3427 20.7606 17.2027 20.7606Z" /></svg>