<svg viewBox="0 0 27.890625 27.890625" xmlns="http://www.w3.org/2000/svg"><path d="M13.9427 27.8864C21.6427 27.8864 27.8927 21.6264 27.8927 13.9464C27.8927 6.2464 21.6427 -0.0036 13.9427 -0.0036C6.2627 -0.0036 0.0027 6.2464 0.0027 13.9464C0.0027 21.6264 6.2627 27.8864 13.9427 27.8864ZM17.1427 19.9364C14.3427 19.9364 13.4927 16.7864 13.4927 13.9464C13.4927 11.1064 14.3427 7.9564 17.1427 7.9564C19.9427 7.9564 20.7927 11.1064 20.7927 13.9464C20.7927 16.7864 19.9427 19.9364 17.1427 19.9364ZM10.2227 19.7964C9.6527 19.7964 9.1827 19.3364 9.1827 18.7564V10.2164L7.9027 11.2564C7.7527 11.3564 7.6127 11.4264 7.3827 11.4264C6.9627 11.4264 6.6727 11.1164 6.6727 10.6764C6.6727 10.3064 6.8627 10.0364 7.1127 9.8464L8.6527 8.6364C8.9927 8.3964 9.4727 8.0664 10.0727 8.0664C10.7827 8.0664 11.2527 8.4864 11.2527 9.2164V18.7564C11.2527 19.3364 10.7727 19.7964 10.2227 19.7964ZM17.1427 18.2564C18.2927 18.2564 18.7327 16.3964 18.7327 13.9464C18.7327 11.4864 18.2927 9.6364 17.1427 9.6364C15.9927 9.6364 15.5627 11.4864 15.5627 13.9464C15.5627 16.3964 15.9927 18.2564 17.1427 18.2564Z" /></svg>