<svg viewBox="0 0 25.169921875 25.169921875" xmlns="http://www.w3.org/2000/svg"><path d="M4.2937 25.1692H20.8737C23.7437 25.1692 25.1737 23.7592 25.1737 20.9492V4.2392C25.1737 1.4192 23.7437 -0.0008 20.8737 -0.0008H4.2937C1.4337 -0.0008 0.0037 1.4192 0.0037 4.2392V20.9492C0.0037 23.7592 1.4337 25.1692 4.2937 25.1692ZM9.8037 18.4292C9.2237 18.4292 8.7637 17.9692 8.7637 17.3892V8.8492L7.4637 9.8892C7.3237 9.9892 7.1737 10.0592 6.9737 10.0592C6.5337 10.0592 6.2437 9.7492 6.2437 9.3092C6.2437 8.9392 6.4237 8.6692 6.6837 8.4792L8.2337 7.2692C8.5537 7.0292 9.0537 6.6992 9.6437 6.6992C10.3737 6.6992 10.8237 7.1192 10.8237 7.8492V17.3892C10.8237 17.9692 10.3637 18.4292 9.8037 18.4292ZM16.3137 18.4292C15.7337 18.4292 15.2737 17.9692 15.2737 17.3892V8.8492L13.9737 9.8892C13.8337 9.9892 13.6837 10.0592 13.4837 10.0592C13.0437 10.0592 12.7437 9.7492 12.7437 9.3092C12.7437 8.9392 12.9437 8.6692 13.1937 8.4792L14.7337 7.2692C15.0637 7.0292 15.5437 6.6992 16.1437 6.6992C16.8837 6.6992 17.3337 7.1192 17.3337 7.8492V17.3892C17.3337 17.9692 16.8737 18.4292 16.3137 18.4292Z" /></svg>