<svg viewBox="0 0 27.890625 27.890625" xmlns="http://www.w3.org/2000/svg"><path d="M13.9427 27.8864C21.6427 27.8864 27.8927 21.6264 27.8927 13.9464C27.8927 6.2464 21.6427 -0.0036 13.9427 -0.0036C6.2627 -0.0036 0.0027 6.2464 0.0027 13.9464C0.0027 21.6264 6.2627 27.8864 13.9427 27.8864ZM14.4127 19.6464C13.7627 19.6464 13.4527 19.3064 13.4527 18.8264C13.4527 18.3864 13.7227 18.0364 13.9827 17.6864L16.4327 14.5764C17.1727 13.6164 17.9627 12.4664 17.9627 11.3364C17.9627 10.3364 17.4827 9.5964 16.6527 9.5964C15.8327 9.5964 15.4727 10.1864 15.2327 11.1264C15.0627 11.5964 14.7927 11.8164 14.3127 11.8164C13.7827 11.8164 13.4627 11.4464 13.4627 10.9064C13.4627 9.4464 14.8327 7.9564 16.6527 7.9564C18.5927 7.9564 19.8927 9.3364 19.8927 11.2364C19.8927 12.4864 19.4327 13.5264 18.0227 15.2764L15.9727 17.8664V17.9964H19.3027C19.7927 17.9964 20.1127 18.2764 20.1127 18.8264C20.1127 19.3164 19.8127 19.6464 19.3027 19.6464ZM10.2827 19.7964C9.7027 19.7964 9.2427 19.3364 9.2427 18.7764V10.2164L7.9527 11.2664C7.8027 11.3564 7.6727 11.4264 7.4327 11.4264C7.0127 11.4264 6.7127 11.1164 6.7127 10.6764C6.7127 10.3064 6.9227 10.0364 7.1627 9.8464L8.7127 8.6564C9.0527 8.3964 9.5327 8.0664 10.1127 8.0664C10.8527 8.0664 11.3027 8.4864 11.3027 9.2164V18.7764C11.3027 19.3364 10.8427 19.7964 10.2827 19.7964Z" /></svg>