<svg viewBox="0 0 27.890625 27.890625" xmlns="http://www.w3.org/2000/svg"><path d="M13.9427 27.8864C21.6427 27.8864 27.8927 21.6464 27.8927 13.9464C27.8927 6.2464 21.6427 -0.0036 13.9427 -0.0036C6.2527 -0.0036 0.0027 6.2464 0.0027 13.9464C0.0027 21.6464 6.2527 27.8864 13.9427 27.8864ZM13.9427 25.5664C7.5227 25.5664 2.3227 20.3664 2.3227 13.9464C2.3227 7.5164 7.5227 2.3264 13.9427 2.3264C20.3727 2.3264 25.5627 7.5164 25.5627 13.9464C25.5627 20.3664 20.3727 25.5664 13.9427 25.5664ZM16.7627 19.7164C18.7127 19.7164 20.2327 18.4864 20.2327 16.4364C20.2327 14.7364 19.2127 13.9064 18.0627 13.7764V13.7364C19.3027 13.4164 19.9027 12.3064 19.9027 11.1564C19.9027 9.2664 18.4827 8.1864 16.7027 8.1864C15.3027 8.1864 14.0727 8.9864 13.6827 10.1964C13.6027 10.4564 13.5727 10.7064 13.5727 10.9364C13.5727 11.3864 13.8727 11.7464 14.4227 11.7464C14.8927 11.7464 15.1527 11.5664 15.2827 11.0864C15.5027 10.2764 15.9427 9.7764 16.7027 9.7764C17.6127 9.7764 18.0427 10.4764 18.0427 11.3764C18.0427 12.3764 17.4827 13.0964 16.4627 13.0964H16.1327C15.6727 13.0964 15.3827 13.3864 15.3827 13.8364C15.3827 14.2864 15.6827 14.5464 16.1327 14.5464H16.4727C17.6327 14.5464 18.2827 15.1864 18.2827 16.3764C18.2827 17.3264 17.7827 18.1264 16.7627 18.1264C15.7627 18.1264 15.3227 17.4564 15.1627 16.8264C15.0227 16.3964 14.7427 16.1564 14.2827 16.1564C13.7527 16.1564 13.4027 16.4864 13.4027 17.0264C13.4027 17.2664 13.4427 17.5164 13.5127 17.7364C13.9027 19.0064 15.2827 19.7164 16.7627 19.7164ZM10.2527 19.6164C10.7827 19.6164 11.2427 19.1664 11.2427 18.6164V9.3564C11.2427 8.6564 10.8027 8.2464 10.0927 8.2464C9.5127 8.2464 9.0527 8.5564 8.7327 8.8064L7.2327 9.9664C6.9827 10.1564 6.7927 10.4164 6.7927 10.7764C6.7927 11.1964 7.0827 11.4964 7.5027 11.4964C7.7127 11.4964 7.8427 11.4264 7.9827 11.3364L9.2427 10.3264V18.6164C9.2427 19.1664 9.6927 19.6164 10.2527 19.6164Z" /></svg>