<svg viewBox="0 0 27.890625 27.890625" xmlns="http://www.w3.org/2000/svg"><path d="M13.9427 27.8864C21.6427 27.8864 27.8927 21.6264 27.8927 13.9464C27.8927 6.2464 21.6427 -0.0036 13.9427 -0.0036C6.2627 -0.0036 0.0027 6.2464 0.0027 13.9464C0.0027 21.6264 6.2627 27.8864 13.9427 27.8864ZM16.8827 19.8964C15.3527 19.8964 13.9327 19.1664 13.5227 17.8564C13.4527 17.6264 13.4127 17.3764 13.4127 17.1164C13.4127 16.5664 13.7827 16.2264 14.3327 16.2264C14.7927 16.2264 15.0927 16.4564 15.2327 16.9264C15.4127 17.5664 15.8627 18.2564 16.8827 18.2564C17.9327 18.2564 18.4427 17.4164 18.4427 16.4464C18.4427 15.2264 17.7827 14.5764 16.5827 14.5764H16.2427C15.7627 14.5764 15.4627 14.2964 15.4627 13.8364C15.4627 13.3664 15.7527 13.0664 16.2427 13.0664H16.5727C17.6227 13.0664 18.1927 12.3164 18.1927 11.2964C18.1927 10.3664 17.7627 9.6564 16.8327 9.6564C16.0327 9.6564 15.5827 10.1764 15.3627 11.0064C15.2127 11.4964 14.9527 11.6764 14.4627 11.6764C13.9027 11.6764 13.5927 11.3064 13.5927 10.8464C13.5927 10.5964 13.6127 10.3464 13.7027 10.0764C14.0927 8.8364 15.3627 8.0164 16.8327 8.0164C18.6627 8.0164 20.1227 9.1164 20.1227 11.0764C20.1227 12.2464 19.5127 13.3964 18.2227 13.7364V13.7764C19.4127 13.9064 20.4627 14.7664 20.4627 16.5164C20.4627 18.6164 18.8927 19.8964 16.8827 19.8964ZM10.1627 19.7964C9.5827 19.7964 9.1227 19.3364 9.1227 18.7564V10.2164L7.8227 11.2564C7.6827 11.3564 7.5327 11.4264 7.3327 11.4264C6.8927 11.4264 6.5927 11.1164 6.5927 10.6764C6.5927 10.3064 6.7827 10.0364 7.0427 9.8464L8.5827 8.6364C8.9127 8.3964 9.3927 8.0664 9.9927 8.0664C10.7327 8.0664 11.1827 8.4864 11.1827 9.2164V18.7564C11.1827 19.3364 10.7227 19.7964 10.1627 19.7964Z" /></svg>