<svg viewBox="0 0 25.169921875 25.169921875" xmlns="http://www.w3.org/2000/svg"><path d="M4.2937 25.1692H20.8737C23.7437 25.1692 25.1737 23.7592 25.1737 20.9492V4.2392C25.1737 1.4192 23.7437 -0.0008 20.8737 -0.0008H4.2937C1.4337 -0.0008 0.0037 1.4192 0.0037 4.2392V20.9492C0.0037 23.7592 1.4337 25.1692 4.2937 25.1692ZM4.3237 22.9692C2.9537 22.9692 2.2037 22.2392 2.2037 20.8192V4.3592C2.2037 2.9392 2.9537 2.1992 4.3237 2.1992H20.8537C22.2037 2.1992 22.9737 2.9392 22.9737 4.3592V20.8192C22.9737 22.2392 22.2037 22.9692 20.8537 22.9692ZM8.6037 18.2492C9.1337 18.2492 9.5837 17.7992 9.5837 17.2492V7.9892C9.5837 7.2892 9.1437 6.8792 8.4337 6.8792C7.8637 6.8792 7.3937 7.1892 7.0837 7.4392L5.5737 8.5992C5.3337 8.7892 5.1437 9.0492 5.1437 9.4092C5.1437 9.8292 5.4237 10.1292 5.8337 10.1292C6.0537 10.1292 6.1937 10.0592 6.3337 9.9692L7.5837 8.9592V17.2492C7.5837 17.7992 8.0437 18.2492 8.6037 18.2492ZM16.7637 18.2792C17.2637 18.2792 17.6937 17.9692 17.6937 17.3092V15.9392H18.1737C18.7037 15.9392 18.9537 15.5992 18.9537 15.1392C18.9537 14.6992 18.7137 14.3592 18.1737 14.3592H17.6937V8.3492C17.6937 7.4092 17.0637 6.8792 16.1737 6.8792C15.2137 6.8792 14.7637 7.3692 14.3837 8.2192L11.9337 13.5192C11.7037 14.0592 11.6237 14.4092 11.6237 14.8292C11.6237 15.4892 12.0837 15.9392 12.7437 15.9392H15.8037V17.3092C15.8037 18.0292 16.3237 18.2792 16.7637 18.2792ZM15.8437 14.3992H13.3037V14.2992L15.7937 8.5992H15.8437Z" /></svg>