<svg viewBox="0 0 25.169921875 25.169921875" xmlns="http://www.w3.org/2000/svg"><path d="M4.2937 25.1692H20.8737C23.7437 25.1692 25.1737 23.7592 25.1737 20.9492V4.2392C25.1737 1.4192 23.7437 -0.0008 20.8737 -0.0008H4.2937C1.4337 -0.0008 0.0037 1.4192 0.0037 4.2392V20.9492C0.0037 23.7592 1.4337 25.1692 4.2937 25.1692ZM8.4937 18.4292C7.9037 18.4292 7.4337 17.9692 7.4337 17.3892V8.8492L6.1537 9.8892C6.0037 9.9892 5.8637 10.0592 5.6337 10.0592C5.2137 10.0592 4.9037 9.7492 4.9037 9.3092C4.9037 8.9392 5.1137 8.6692 5.3737 8.4792L6.9137 7.2692C7.2437 7.0292 7.7237 6.6992 8.3137 6.6992C9.0537 6.6992 9.5037 7.1192 9.5037 7.8492V17.3892C9.5037 17.9692 9.0337 18.4292 8.4937 18.4292ZM16.9137 18.4592C16.4637 18.4592 15.9237 18.1992 15.9237 17.4592V16.0492H12.7737C12.0837 16.0492 11.6037 15.5892 11.6037 14.8992C11.6037 14.4692 11.6937 14.0992 11.9337 13.5492L14.4537 8.0792C14.8437 7.2092 15.3137 6.6992 16.3137 6.6992C17.2237 6.6992 17.8837 7.2492 17.8837 8.2292V14.4092H18.3737C18.9337 14.4092 19.1837 14.7692 19.1837 15.2192C19.1837 15.6992 18.9237 16.0492 18.3737 16.0492H17.8837V17.4592C17.8837 18.1292 17.4437 18.4592 16.9137 18.4592ZM15.9737 14.4492V8.4792H15.9137L13.3537 14.3592V14.4492Z" /></svg>