<svg viewBox="0 0 27.890625 27.890625" xmlns="http://www.w3.org/2000/svg"><path d="M13.9427 27.8864C21.6427 27.8864 27.8927 21.6464 27.8927 13.9464C27.8927 6.2464 21.6427 -0.0036 13.9427 -0.0036C6.2527 -0.0036 0.0027 6.2464 0.0027 13.9464C0.0027 21.6464 6.2527 27.8864 13.9427 27.8864ZM13.9427 25.5664C7.5227 25.5664 2.3227 20.3664 2.3227 13.9464C2.3227 7.5164 7.5227 2.3264 13.9427 2.3264C20.3727 2.3264 25.5627 7.5164 25.5627 13.9464C25.5627 20.3664 20.3727 25.5664 13.9427 25.5664ZM16.8327 19.7564C18.9127 19.7564 20.1127 18.0064 20.1127 15.8564C20.1127 14.0164 19.2227 12.2664 17.4027 12.2664C16.2927 12.2664 15.4627 13.0064 15.1527 14.1764H15.0927V14.0264C15.0927 12.5064 15.2827 9.7664 16.8027 9.7664C17.4327 9.7664 17.8427 10.1964 18.0727 10.7764C18.2627 11.1964 18.5227 11.3864 18.9627 11.3864C19.5227 11.3864 19.7527 11.0164 19.7527 10.5664C19.7527 10.4164 19.7327 10.2564 19.6827 10.0764C19.4027 8.8964 18.2127 8.1664 16.8427 8.1664C14.0427 8.1664 13.2327 11.3064 13.2327 14.0864C13.2327 16.6664 14.0527 19.7564 16.8327 19.7564ZM10.0327 19.6164C10.5827 19.6164 11.0327 19.1664 11.0327 18.6164V9.3564C11.0327 8.6564 10.5927 8.2464 9.8827 8.2464C9.3127 8.2464 8.8427 8.5564 8.5327 8.8064L7.0227 9.9664C6.7827 10.1564 6.5927 10.4164 6.5927 10.7764C6.5927 11.1964 6.8727 11.4964 7.2827 11.4964C7.5027 11.4964 7.6427 11.4264 7.7827 11.3364L9.0327 10.3264V18.6164C9.0327 19.1664 9.4927 19.6164 10.0327 19.6164ZM16.8027 18.1564C15.7627 18.1564 15.3527 16.8664 15.3527 15.8864C15.3527 14.8864 15.8027 13.7564 16.8027 13.7564C17.8127 13.7564 18.2227 14.9264 18.1927 15.9364C18.1927 16.9364 17.7627 18.1564 16.8027 18.1564Z" /></svg>