<svg viewBox="0 0 27.890625 27.890625" xmlns="http://www.w3.org/2000/svg"><path d="M13.9427 27.8864C21.6427 27.8864 27.8927 21.6464 27.8927 13.9464C27.8927 6.2464 21.6427 -0.0036 13.9427 -0.0036C6.2527 -0.0036 0.0027 6.2464 0.0027 13.9464C0.0027 21.6464 6.2527 27.8864 13.9427 27.8864ZM13.9427 25.5664C7.5227 25.5664 2.3227 20.3664 2.3227 13.9464C2.3227 7.5164 7.5227 2.3264 13.9427 2.3264C20.3727 2.3264 25.5627 7.5164 25.5627 13.9464C25.5627 20.3664 20.3727 25.5664 13.9427 25.5664ZM16.0227 15.6564C17.1327 15.6564 17.9627 14.9164 18.2827 13.7364H18.3327V13.8864C18.3327 15.4064 18.1427 18.1464 16.6127 18.1464C16.0127 18.1464 15.5827 17.7164 15.3527 17.1264C15.1527 16.6764 14.8727 16.5064 14.4627 16.5064C13.9027 16.5064 13.6627 16.8864 13.6627 17.3364C13.6627 17.4964 13.6827 17.6664 13.7227 17.8264C14.0227 19.0164 15.2127 19.7464 16.5827 19.7464C19.3827 19.7464 20.1927 16.6364 20.1927 13.8364C20.1927 11.2564 19.3727 8.1664 16.5927 8.1664C14.5227 8.1664 13.3127 9.9164 13.3127 12.0564C13.3127 13.9064 14.2027 15.6564 16.0227 15.6564ZM10.2227 19.6164C10.7727 19.6164 11.2227 19.1664 11.2227 18.6164V9.3564C11.2227 8.6564 10.7827 8.2464 10.0727 8.2464C9.5027 8.2464 9.0327 8.5564 8.7227 8.8064L7.2227 9.9664C6.9727 10.1564 6.7827 10.4164 6.7827 10.7764C6.7827 11.1964 7.0727 11.4964 7.4827 11.4964C7.6927 11.4964 7.8327 11.4264 7.9727 11.3364L9.2327 10.3264V18.6164C9.2327 19.1664 9.6827 19.6164 10.2227 19.6164ZM16.6227 14.1464C15.6127 14.1464 15.2127 12.9864 15.2127 11.9764C15.2127 10.9464 15.6727 9.7464 16.6227 9.7464C17.6627 9.7464 18.0727 10.9464 18.0727 11.9764C18.0727 13.0264 17.6227 14.1464 16.6227 14.1464Z" /></svg>