<svg viewBox="0 0 25.169921875 25.169921875" xmlns="http://www.w3.org/2000/svg"><path d="M4.2937 25.1692H20.8737C23.7437 25.1692 25.1737 23.7592 25.1737 20.9492V4.2392C25.1737 1.4192 23.7437 -0.0008 20.8737 -0.0008H4.2937C1.4337 -0.0008 0.0037 1.4192 0.0037 4.2392V20.9492C0.0037 23.7592 1.4337 25.1692 4.2937 25.1692ZM4.3237 22.9692C2.9537 22.9692 2.2037 22.2392 2.2037 20.8192V4.3592C2.2037 2.9392 2.9537 2.1992 4.3237 2.1992H20.8537C22.2037 2.1992 22.9737 2.9392 22.9737 4.3592V20.8192C22.9737 22.2392 22.2037 22.9692 20.8537 22.9692ZM14.6837 14.2892C15.7937 14.2892 16.6437 13.5492 16.9437 12.3692H16.9937V12.5192C16.9937 14.0392 16.8137 16.7792 15.2837 16.7792C14.6737 16.7792 14.2637 16.3492 14.0137 15.7592C13.8037 15.3092 13.5337 15.1392 13.1237 15.1392C12.5637 15.1392 12.3137 15.5192 12.3137 15.9692C12.3137 16.1292 12.3437 16.2992 12.3837 16.4592C12.6837 17.6492 13.8737 18.3792 15.2437 18.3792C18.0437 18.3792 18.8637 15.2692 18.8637 12.4692C18.8637 9.8892 18.0337 6.7992 15.2537 6.7992C13.1837 6.7992 11.9737 8.5492 11.9737 10.6892C11.9737 12.5392 12.8637 14.2892 14.6837 14.2892ZM8.9037 18.2492C9.4337 18.2492 9.8837 17.7992 9.8837 17.2492V7.9892C9.8837 7.2892 9.4437 6.8792 8.7337 6.8792C8.1637 6.8792 7.6937 7.1892 7.3837 7.4392L5.8837 8.5992C5.6337 8.7892 5.4437 9.0492 5.4437 9.4092C5.4437 9.8292 5.7237 10.1292 6.1437 10.1292C6.3537 10.1292 6.4937 10.0592 6.6337 9.9692L7.8937 8.9592V17.2492C7.8937 17.7992 8.3437 18.2492 8.9037 18.2492ZM15.2837 12.7792C14.2837 12.7792 13.8737 11.6192 13.8737 10.6092C13.8737 9.5792 14.3437 8.3792 15.2837 8.3792C16.3237 8.3792 16.7337 9.5792 16.7337 10.6092C16.7337 11.6592 16.2837 12.7792 15.2837 12.7792Z" /></svg>