<svg viewBox="0 0 27.890625 27.890625" xmlns="http://www.w3.org/2000/svg"><path d="M13.9427 27.8864C21.6427 27.8864 27.8927 21.6264 27.8927 13.9464C27.8927 6.2464 21.6427 -0.0036 13.9427 -0.0036C6.2627 -0.0036 0.0027 6.2464 0.0027 13.9464C0.0027 21.6264 6.2627 27.8864 13.9427 27.8864ZM7.3427 19.6464C6.7027 19.6464 6.3827 19.3064 6.3827 18.8264C6.3827 18.3764 6.6427 18.0164 6.9227 17.6864L9.3627 14.5564C10.1027 13.6164 10.8827 12.4664 10.8827 11.3364C10.8827 10.3364 10.4227 9.5964 9.5727 9.5964C8.7627 9.5964 8.4127 10.1864 8.1527 11.1264C8.0027 11.5964 7.7227 11.7964 7.2427 11.7964C6.7127 11.7964 6.4027 11.4464 6.4027 10.9064C6.4027 9.4464 7.7827 7.9564 9.5827 7.9564C11.5227 7.9564 12.8227 9.3364 12.8227 11.2364C12.8227 12.4864 12.3627 13.5264 10.9527 15.2764L8.9027 17.8664V17.9764H12.2327C12.7327 17.9764 13.0427 18.2764 13.0427 18.8264C13.0427 19.3164 12.7427 19.6464 12.2327 19.6464ZM18.1527 19.9364C15.3527 19.9364 14.5227 16.7864 14.5227 13.9464C14.5227 11.1064 15.3527 7.9564 18.1527 7.9564C20.9827 7.9564 21.8227 11.1064 21.8227 13.9464C21.8227 16.7864 20.9827 19.9364 18.1527 19.9364ZM18.1527 18.2564C19.3027 18.2564 19.7427 16.3964 19.7427 13.9464C19.7427 11.4864 19.3027 9.6364 18.1527 9.6364C17.0227 9.6364 16.5827 11.4864 16.5827 13.9464C16.5827 16.3964 17.0227 18.2564 18.1527 18.2564Z" /></svg>