<svg viewBox="0 0 25.169921875 25.169921875" xmlns="http://www.w3.org/2000/svg"><path d="M4.2937 25.1692H20.8737C23.7437 25.1692 25.1737 23.7592 25.1737 20.9492V4.2392C25.1737 1.4192 23.7437 -0.0008 20.8737 -0.0008H4.2937C1.4337 -0.0008 0.0037 1.4192 0.0037 4.2392V20.9492C0.0037 23.7592 1.4337 25.1692 4.2937 25.1692ZM5.9837 18.2792C5.3437 18.2792 5.0337 17.9392 5.0337 17.4592C5.0337 17.0092 5.2937 16.6492 5.5637 16.3192L8.0137 13.1892C8.7537 12.2492 9.5337 11.0992 9.5337 9.9692C9.5337 8.9692 9.0637 8.2292 8.2137 8.2292C7.4137 8.2292 7.0537 8.8192 6.8037 9.7592C6.6437 10.2292 6.3737 10.4292 5.8937 10.4292C5.3637 10.4292 5.0437 10.0792 5.0437 9.5392C5.0437 8.0792 6.4237 6.5892 8.2337 6.5892C10.1737 6.5892 11.4737 7.9692 11.4737 9.8692C11.4737 11.1192 11.0037 12.1592 9.5937 13.9092L7.5437 16.4992V16.6092H10.8837C11.3737 16.6092 11.6937 16.9092 11.6937 17.4592C11.6937 17.9492 11.3937 18.2792 10.8837 18.2792ZM16.8137 18.5692C14.0037 18.5692 13.1637 15.4192 13.1637 12.5792C13.1637 9.7392 14.0037 6.5892 16.8137 6.5892C19.6337 6.5892 20.4637 9.7392 20.4637 12.5792C20.4637 15.4192 19.6337 18.5692 16.8137 18.5692ZM16.8137 16.8892C17.9637 16.8892 18.3937 15.0292 18.3937 12.5792C18.3937 10.1192 17.9637 8.2692 16.8137 8.2692C15.6637 8.2692 15.2337 10.1192 15.2337 12.5792C15.2337 15.0292 15.6637 16.8892 16.8137 16.8892Z" /></svg>