<svg viewBox="0 0 25.169921875 25.169921875" xmlns="http://www.w3.org/2000/svg"><path d="M4.2937 25.1692H20.8737C23.7437 25.1692 25.1737 23.7592 25.1737 20.9492V4.2392C25.1737 1.4192 23.7437 -0.0008 20.8737 -0.0008H4.2937C1.4337 -0.0008 0.0037 1.4192 0.0037 4.2392V20.9492C0.0037 23.7592 1.4337 25.1692 4.2937 25.1692ZM4.3237 22.9692C2.9537 22.9692 2.2037 22.2392 2.2037 20.8192V4.3592C2.2037 2.9392 2.9537 2.1992 4.3237 2.1992H20.8537C22.2037 2.1992 22.9737 2.9392 22.9737 4.3592V20.8192C22.9737 22.2392 22.2037 22.9692 20.8537 22.9692ZM6.4637 18.0992H11.2137C11.6937 18.0992 11.9737 17.7892 11.9737 17.3092C11.9737 16.7892 11.6737 16.4992 11.2137 16.4992H7.9537V16.3892L9.9537 13.8592C11.3237 12.1692 11.7737 11.1592 11.7737 9.9492C11.7737 8.1092 10.5137 6.7692 8.6237 6.7692C6.8737 6.7692 5.5537 8.2192 5.5537 9.6392C5.5537 10.1492 5.8537 10.4992 6.3737 10.4992C6.8237 10.4992 7.0937 10.2992 7.2437 9.8392C7.5037 8.9292 7.8337 8.3492 8.6237 8.3492C9.4437 8.3492 9.9137 9.0792 9.9137 10.0492C9.9137 11.1392 9.1437 12.2492 8.4237 13.1792L6.0437 16.2192C5.7937 16.5392 5.5337 16.8892 5.5337 17.3092C5.5337 17.7692 5.8337 18.0992 6.4637 18.0992ZM14.3037 18.0992H19.0437C19.5237 18.0992 19.8237 17.7892 19.8237 17.3092C19.8237 16.7892 19.5137 16.4992 19.0437 16.4992H15.7937V16.3892L17.7837 13.8592C19.1637 12.1692 19.6037 11.1592 19.6037 9.9492C19.6037 8.1092 18.3637 6.7692 16.4737 6.7692C14.7237 6.7692 13.3937 8.2192 13.3937 9.6392C13.3937 10.1492 13.6837 10.4992 14.2037 10.4992C14.6537 10.4992 14.9437 10.2992 15.0837 9.8392C15.3437 8.9292 15.6837 8.3492 16.4637 8.3492C17.2837 8.3492 17.7437 9.0792 17.7437 10.0492C17.7437 11.1392 16.9837 12.2492 16.2537 13.1792L13.8937 16.2192C13.6337 16.5392 13.3737 16.8892 13.3737 17.3092C13.3737 17.7692 13.6737 18.0992 14.3037 18.0992Z" /></svg>