<svg viewBox="0 0 27.890625 27.890625" xmlns="http://www.w3.org/2000/svg"><path d="M13.9427 27.8864C21.6427 27.8864 27.8927 21.6264 27.8927 13.9464C27.8927 6.2464 21.6427 -0.0036 13.9427 -0.0036C6.2627 -0.0036 0.0027 6.2464 0.0027 13.9464C0.0027 21.6264 6.2627 27.8864 13.9427 27.8864ZM7.3527 19.6464C6.7127 19.6464 6.4127 19.3064 6.4127 18.8264C6.4127 18.3764 6.6727 18.0364 6.9327 17.6864L9.3827 14.5564C10.1327 13.6164 10.9227 12.4664 10.9227 11.3364C10.9227 10.3364 10.4427 9.5964 9.5827 9.5964C8.7727 9.5964 8.4327 10.1864 8.1727 11.1264C8.0227 11.5964 7.7427 11.8164 7.2727 11.8164C6.7227 11.8164 6.4227 11.4464 6.4227 10.9064C6.4227 9.4464 7.7927 7.9564 9.5927 7.9564C11.5427 7.9564 12.8527 9.3364 12.8527 11.2364C12.8527 12.4864 12.3727 13.5264 10.9627 15.2764L8.9127 17.8664V17.9764H12.2527C12.7427 17.9764 13.0527 18.2764 13.0527 18.8264C13.0527 19.3164 12.7527 19.6464 12.2527 19.6464ZM18.0027 19.8964C16.5027 19.8964 15.0527 19.1664 14.6427 17.8564C14.5727 17.6264 14.5327 17.3764 14.5327 17.1164C14.5327 16.5664 14.9127 16.2264 15.4727 16.2264C15.9327 16.2264 16.2127 16.4564 16.3627 16.9264C16.5327 17.5664 16.9927 18.2564 18.0227 18.2564C19.0627 18.2564 19.5827 17.4364 19.5827 16.4564C19.5827 15.2264 18.9227 14.5764 17.7227 14.5764H17.3727C16.9027 14.5764 16.5827 14.2964 16.5827 13.8364C16.5827 13.3664 16.9027 13.0664 17.3727 13.0664H17.6927C18.7627 13.0664 19.3327 12.3164 19.3327 11.2964C19.3327 10.3664 18.8927 9.6564 17.9627 9.6564C17.1627 9.6564 16.7327 10.1764 16.5027 11.0064C16.3627 11.4964 16.0827 11.6764 15.6027 11.6764C15.0227 11.6764 14.7427 11.3064 14.7427 10.8464C14.7427 10.6064 14.7627 10.3464 14.8327 10.0764C15.2427 8.8364 16.5027 8.0164 17.9627 8.0164C19.7927 8.0164 21.2627 9.1164 21.2627 11.0764C21.2627 12.2464 20.6327 13.3964 19.3427 13.7364V13.7764C20.5527 13.9064 21.5927 14.7664 21.5927 16.5164C21.5927 18.6364 20.0427 19.8964 18.0027 19.8964Z" /></svg>