<svg viewBox="0 0 25.169921875 25.169921875" xmlns="http://www.w3.org/2000/svg"><path d="M4.2937 25.1692H20.8737C23.7437 25.1692 25.1737 23.7592 25.1737 20.9492V4.2392C25.1737 1.4192 23.7437 -0.0008 20.8737 -0.0008H4.2937C1.4337 -0.0008 0.0037 1.4192 0.0037 4.2392V20.9492C0.0037 23.7592 1.4337 25.1692 4.2937 25.1692ZM5.9837 18.2792C5.3337 18.2792 5.0137 17.9392 5.0137 17.4592C5.0137 17.0192 5.2937 16.6692 5.5537 16.3192L7.9937 13.2092C8.7337 12.2492 9.5337 11.0992 9.5337 9.9692C9.5337 8.9692 9.0537 8.2292 8.2137 8.2292C7.3937 8.2292 7.0537 8.8192 6.7937 9.7592C6.6437 10.2292 6.3537 10.4492 5.8837 10.4492C5.3437 10.4492 5.0337 10.0792 5.0337 9.5392C5.0337 8.0792 6.4237 6.5892 8.2137 6.5892C10.1537 6.5892 11.4537 7.9692 11.4537 9.8692C11.4537 11.1192 10.9937 12.1592 9.5837 13.9092L7.5337 16.4992V16.6292H10.8837C11.3637 16.6292 11.6737 16.9092 11.6737 17.4592C11.6737 17.9492 11.3737 18.2792 10.8837 18.2792ZM18.1837 18.4592C17.7337 18.4592 17.2037 18.2092 17.2037 17.4592V16.0492H14.0537C13.3737 16.0492 12.8837 15.5892 12.8837 14.8992C12.8837 14.4692 12.9737 14.0992 13.2037 13.5492L15.7237 8.0892C16.1237 7.2092 16.5837 6.6992 17.5837 6.6992C18.5137 6.6992 19.1537 7.2592 19.1537 8.2292V14.4092H19.6437C20.2037 14.4092 20.4537 14.7692 20.4537 15.2192C20.4537 15.6992 20.1937 16.0492 19.6437 16.0492H19.1537V17.4592C19.1537 18.1292 18.7137 18.4592 18.1837 18.4592ZM17.2437 14.4492V8.4792H17.2037L14.6437 14.3592V14.4492Z" /></svg>