<svg viewBox="0 0 27.890625 27.890625" xmlns="http://www.w3.org/2000/svg"><path d="M13.9427 27.8864C21.6427 27.8864 27.8927 21.6464 27.8927 13.9464C27.8927 6.2464 21.6427 -0.0036 13.9427 -0.0036C6.2527 -0.0036 0.0027 6.2464 0.0027 13.9464C0.0027 21.6464 6.2527 27.8864 13.9427 27.8864ZM13.9427 25.5664C7.5227 25.5664 2.3227 20.3664 2.3227 13.9464C2.3227 7.5164 7.5227 2.3264 13.9427 2.3264C20.3727 2.3264 25.5627 7.5164 25.5627 13.9464C25.5627 20.3664 20.3727 25.5664 13.9427 25.5664ZM7.4227 19.4664H12.1727C12.6427 19.4664 12.9427 19.1564 12.9427 18.6764C12.9427 18.1564 12.6327 17.8664 12.1727 17.8664H8.9327V17.7564L10.9127 15.2264C12.2927 13.5364 12.7327 12.5264 12.7327 11.3164C12.7327 9.4764 11.4827 8.1364 9.5927 8.1364C7.8427 8.1364 6.5227 9.5864 6.5227 11.0064C6.5227 11.5164 6.8127 11.8664 7.3327 11.8664C7.7927 11.8664 8.0627 11.6664 8.2027 11.2064C8.4627 10.2964 8.8027 9.7164 9.5827 9.7164C10.4027 9.7164 10.8727 10.4464 10.8727 11.4164C10.8727 12.5064 10.1027 13.6164 9.3827 14.5464L7.0127 17.5864C6.7527 17.9064 6.4927 18.2564 6.4927 18.6764C6.4927 19.1364 6.7927 19.4664 7.4227 19.4664ZM17.8927 19.7164C20.0727 19.7164 21.4527 18.3564 21.4527 16.4864C21.4527 14.9964 20.4927 13.9164 19.4127 13.6764V13.6264C20.3327 13.3464 21.1327 12.4564 21.1327 11.1564C21.1327 9.3964 19.8227 8.1864 17.8927 8.1864C16.2027 8.1864 14.6827 9.2264 14.6827 11.1464C14.6827 12.5364 15.5427 13.3564 16.4227 13.6264V13.6764C15.2627 13.9364 14.3727 15.0164 14.3727 16.4864C14.3727 18.5164 15.9027 19.7164 17.8927 19.7164ZM17.8927 13.0064C17.0327 13.0064 16.5827 12.1564 16.5827 11.3464C16.5827 10.4764 17.0527 9.6564 17.8927 9.6564C18.7827 9.6564 19.2227 10.4764 19.2227 11.3464C19.2227 12.2464 18.7727 13.0064 17.8927 13.0064ZM17.8927 18.2364C16.9127 18.2364 16.4227 17.3464 16.4227 16.3364C16.4227 15.3564 16.9127 14.4764 17.8927 14.4764C18.8627 14.4764 19.4027 15.2964 19.4027 16.3364C19.4027 17.3464 18.9127 18.2364 17.8927 18.2364Z" /></svg>