<svg viewBox="0 0 25.169921875 25.169921875" xmlns="http://www.w3.org/2000/svg"><path d="M4.2937 25.1692H20.8737C23.7437 25.1692 25.1737 23.7592 25.1737 20.9492V4.2392C25.1737 1.4192 23.7437 -0.0008 20.8737 -0.0008H4.2937C1.4337 -0.0008 0.0037 1.4192 0.0037 4.2392V20.9492C0.0037 23.7592 1.4337 25.1692 4.2937 25.1692ZM5.8837 18.2792C5.2237 18.2792 4.9237 17.9392 4.9237 17.4592C4.9237 17.0092 5.1837 16.6692 5.4537 16.3192L7.8937 13.1892C8.6437 12.2492 9.4237 11.0992 9.4237 9.9692C9.4237 8.9692 8.9437 8.2292 8.1037 8.2292C7.3037 8.2292 6.9437 8.8192 6.6837 9.7592C6.5337 10.2292 6.2637 10.4492 5.7837 10.4492C5.2537 10.4492 4.9337 10.0792 4.9337 9.5392C4.9337 8.0792 6.3137 6.5892 8.1237 6.5892C10.0637 6.5892 11.3637 7.9692 11.3637 9.8692C11.3637 11.1192 10.8937 12.1592 9.4837 13.9092L7.4337 16.4992V16.6092H10.7737C11.2537 16.6092 11.5837 16.9092 11.5837 17.4592C11.5837 17.9492 11.2637 18.2792 10.7737 18.2792ZM16.6837 18.5292C14.6337 18.5292 13.0437 17.2992 13.0437 15.1992C13.0437 13.6692 13.9637 12.5692 15.1637 12.2892V12.2492C14.2637 11.9792 13.3737 11.1292 13.3737 9.6892C13.3737 7.7092 14.9437 6.6492 16.6837 6.6492C18.6737 6.6492 20.0337 7.8892 20.0337 9.7092C20.0337 11.0492 19.1937 11.9592 18.2537 12.2492V12.2892C19.3737 12.5492 20.3537 13.6592 20.3537 15.1992C20.3537 17.1292 18.9237 18.5292 16.6837 18.5292ZM16.6937 11.6092C17.5837 11.6092 18.0437 10.8292 18.0437 9.8992C18.0437 8.9992 17.5937 8.1592 16.6937 8.1592C15.8137 8.1592 15.3437 8.9992 15.3437 9.8992C15.3437 10.7292 15.7937 11.6092 16.6937 11.6092ZM16.6937 16.9892C17.7237 16.9892 18.2237 16.0892 18.2237 15.0392C18.2237 13.9692 17.6937 13.1392 16.6937 13.1392C15.6637 13.1392 15.1637 14.0292 15.1637 15.0392C15.1637 16.0892 15.6637 16.9892 16.6937 16.9892Z" /></svg>