<svg viewBox="0 0 25.169921875 25.169921875" xmlns="http://www.w3.org/2000/svg"><path d="M4.2937 25.1692H20.8737C23.7437 25.1692 25.1737 23.7592 25.1737 20.9492V4.2392C25.1737 1.4192 23.7437 -0.0008 20.8737 -0.0008H4.2937C1.4337 -0.0008 0.0037 1.4192 0.0037 4.2392V20.9492C0.0037 23.7592 1.4337 25.1692 4.2937 25.1692ZM4.3237 22.9692C2.9537 22.9692 2.2037 22.2392 2.2037 20.8192V4.3592C2.2037 2.9392 2.9537 2.1992 4.3237 2.1992H20.8537C22.2037 2.1992 22.9737 2.9392 22.9737 4.3592V20.8192C22.9737 22.2392 22.2037 22.9692 20.8537 22.9692ZM6.0837 18.0992H10.8237C11.3037 18.0992 11.6037 17.7892 11.6037 17.3092C11.6037 16.7892 11.2937 16.4992 10.8237 16.4992H7.5837V16.3892L9.5837 13.8592C10.9537 12.1692 11.4037 11.1592 11.4037 9.9492C11.4037 8.1092 10.1437 6.7692 8.2537 6.7692C6.5037 6.7692 5.1837 8.2192 5.1837 9.6392C5.1837 10.1492 5.4737 10.4992 6.0037 10.4992C6.4537 10.4992 6.7237 10.2992 6.8637 9.8392C7.1237 8.9292 7.4637 8.3492 8.2437 8.3492C9.0637 8.3492 9.5337 9.0792 9.5337 10.0492C9.5337 11.1392 8.7737 12.2492 8.0437 13.1792L5.6737 16.2192C5.4137 16.5392 5.1637 16.8892 5.1637 17.3092C5.1637 17.7692 5.4537 18.0992 6.0837 18.0992ZM16.5537 18.3492C18.7337 18.3492 20.1137 16.9892 20.1137 15.1192C20.1137 13.6292 19.1637 12.5492 18.0737 12.3092V12.2592C18.9937 11.9792 19.7937 11.0892 19.7937 9.7892C19.7937 8.0292 18.4837 6.8192 16.5537 6.8192C14.8737 6.8192 13.3437 7.8592 13.3437 9.7792C13.3437 11.1692 14.2037 11.9892 15.0837 12.2592V12.3092C13.9137 12.5692 13.0337 13.6492 13.0337 15.1192C13.0337 17.1492 14.5637 18.3492 16.5537 18.3492ZM16.5737 11.6392C15.6937 11.6392 15.2437 10.7892 15.2437 9.9792C15.2437 9.1092 15.7237 8.2892 16.5737 8.2892C17.4437 8.2892 17.8837 9.1092 17.8837 9.9792C17.8837 10.8792 17.4337 11.6392 16.5737 11.6392ZM16.5737 16.8692C15.5737 16.8692 15.0837 15.9792 15.0837 14.9692C15.0837 13.9892 15.5737 13.1092 16.5737 13.1092C17.5437 13.1092 18.0637 13.9292 18.0637 14.9692C18.0637 15.9792 17.5637 16.8692 16.5737 16.8692Z" /></svg>