<svg viewBox="0 0 25.169921875 25.169921875" xmlns="http://www.w3.org/2000/svg"><path d="M4.2937 25.1692H20.8737C23.7437 25.1692 25.1737 23.7592 25.1737 20.9492V4.2392C25.1737 1.4192 23.7437 -0.0008 20.8737 -0.0008H4.2937C1.4337 -0.0008 0.0037 1.4192 0.0037 4.2392V20.9492C0.0037 23.7592 1.4337 25.1692 4.2937 25.1692ZM16.9437 18.5492C14.1137 18.5492 13.2737 15.4092 13.2737 12.5692C13.2737 9.7192 14.1137 6.5792 16.9437 6.5792C19.7437 6.5792 20.5737 9.7192 20.5737 12.5692C20.5737 15.4092 19.7437 18.5492 16.9437 18.5492ZM8.2137 18.5092C6.7037 18.5092 5.2637 17.7892 4.8537 16.4792C4.7837 16.2392 4.7437 15.9992 4.7437 15.7392C4.7437 15.1792 5.1137 14.8492 5.6737 14.8492C6.1237 14.8492 6.4237 15.0792 6.5737 15.5492C6.7437 16.1692 7.2037 16.8592 8.2137 16.8592C9.2737 16.8592 9.7737 16.0392 9.7737 15.0792C9.7737 13.8392 9.1237 13.1892 7.9137 13.1892H7.5737C7.0937 13.1892 6.7937 12.9092 6.7937 12.4392C6.7937 11.9892 7.0837 11.6892 7.5737 11.6892H7.9037C8.9537 11.6892 9.5337 10.9392 9.5337 9.9092C9.5337 8.9792 9.0937 8.2692 8.1637 8.2692C7.3737 8.2692 6.9137 8.7892 6.7037 9.6292C6.5637 10.0992 6.2937 10.2992 5.7937 10.2992C5.2337 10.2992 4.9237 9.9092 4.9237 9.4592C4.9237 9.2292 4.9537 8.9692 5.0337 8.6992C5.4437 7.4492 6.7037 6.6292 8.1637 6.6292C10.0037 6.6292 11.4537 7.7392 11.4537 9.6892C11.4537 10.8692 10.8437 11.9992 9.5537 12.3492V12.3992C10.7637 12.5192 11.8037 13.3892 11.8037 15.1392C11.8037 17.2392 10.2537 18.5092 8.2137 18.5092ZM16.9437 16.8692C18.0837 16.8692 18.5137 15.0092 18.5137 12.5692C18.5137 10.0992 18.0837 8.2392 16.9437 8.2392C15.7937 8.2392 15.3537 10.0992 15.3537 12.5692C15.3537 15.0092 15.7937 16.8692 16.9437 16.8692Z" /></svg>