<svg viewBox="0 0 25.169921875 25.169921875" xmlns="http://www.w3.org/2000/svg"><path d="M4.2937 25.1692H20.8737C23.7437 25.1692 25.1737 23.7592 25.1737 20.9492V4.2392C25.1737 1.4192 23.7437 -0.0008 20.8737 -0.0008H4.2937C1.4337 -0.0008 0.0037 1.4192 0.0037 4.2392V20.9492C0.0037 23.7592 1.4337 25.1692 4.2937 25.1692ZM8.3437 18.5292C6.8237 18.5292 5.3837 17.7992 4.9737 16.4892C4.9037 16.2592 4.8637 16.0092 4.8637 15.7492C4.8637 15.1992 5.2337 14.8592 5.7937 14.8592C6.2637 14.8592 6.5537 15.0892 6.7037 15.5592C6.8637 16.1992 7.3137 16.8892 8.3437 16.8892C9.3937 16.8892 9.8937 16.0492 9.8937 15.0792C9.8937 13.8592 9.2437 13.2092 8.0437 13.2092H7.6937C7.2337 13.2092 6.9137 12.9292 6.9137 12.4692C6.9137 11.9992 7.2237 11.6992 7.6937 11.6992H8.0237C9.0937 11.6992 9.6637 10.9492 9.6637 9.9292C9.6637 8.9992 9.2137 8.2892 8.2837 8.2892C7.4937 8.2892 7.0537 8.8092 6.8237 9.6392C6.6837 10.1292 6.4137 10.3092 5.9337 10.3092C5.3637 10.3092 5.0537 9.9392 5.0537 9.4792C5.0537 9.2292 5.0837 8.9792 5.1637 8.7092C5.5637 7.4692 6.8337 6.6492 8.2837 6.6492C10.1137 6.6492 11.5937 7.7492 11.5937 9.7092C11.5937 10.8792 10.9637 12.0292 9.6837 12.3692V12.4092C10.8737 12.5392 11.9237 13.3992 11.9237 15.1492C11.9237 17.2492 10.3637 18.5292 8.3437 18.5292ZM16.8837 18.5292C15.3637 18.5292 13.9337 17.7992 13.5237 16.4892C13.4537 16.2592 13.4137 16.0092 13.4137 15.7492C13.4137 15.1992 13.7937 14.8592 14.3437 14.8592C14.7937 14.8592 15.1037 15.0892 15.2337 15.5592C15.4037 16.1992 15.8737 16.8892 16.8937 16.8892C17.9337 16.8892 18.4537 16.0492 18.4537 15.0792C18.4537 13.8592 17.7837 13.2092 16.5937 13.2092H16.2437C15.7637 13.2092 15.4537 12.9292 15.4537 12.4692C15.4537 11.9992 15.7637 11.6992 16.2437 11.6992H16.5737C17.6237 11.6992 18.1937 10.9492 18.1937 9.9292C18.1937 8.9992 17.7637 8.2892 16.8337 8.2892C16.0337 8.2892 15.6037 8.8092 15.3837 9.6392C15.2337 10.1292 14.9437 10.3092 14.4637 10.3092C13.9037 10.3092 13.6037 9.9392 13.6037 9.4792C13.6037 9.2292 13.6337 8.9792 13.7037 8.7092C14.1137 7.4692 15.3637 6.6492 16.8337 6.6492C18.6737 6.6492 20.1237 7.7492 20.1237 9.7092C20.1237 10.8792 19.5137 12.0292 18.2237 12.3692V12.4092C19.4137 12.5392 20.4637 13.3992 20.4637 15.1492C20.4637 17.2492 18.9037 18.5292 16.8837 18.5292Z" /></svg>