<svg viewBox="0 0 25.169921875 25.169921875" xmlns="http://www.w3.org/2000/svg"><path d="M4.2937 25.1692H20.8737C23.7437 25.1692 25.1737 23.7592 25.1737 20.9492V4.2392C25.1737 1.4192 23.7437 -0.0008 20.8737 -0.0008H4.2937C1.4337 -0.0008 0.0037 1.4192 0.0037 4.2392V20.9492C0.0037 23.7592 1.4337 25.1692 4.2937 25.1692ZM4.3237 22.9692C2.9537 22.9692 2.2037 22.2392 2.2037 20.8192V4.3592C2.2037 2.9392 2.9537 2.1992 4.3237 2.1992H20.8537C22.2037 2.1992 22.9737 2.9392 22.9737 4.3592V20.8192C22.9737 22.2392 22.2037 22.9692 20.8537 22.9692ZM8.4737 18.3492C10.4337 18.3492 11.9537 17.1192 11.9537 15.0692C11.9537 13.3692 10.9237 12.5392 9.7737 12.4092V12.3692C11.0237 12.0492 11.6237 10.9392 11.6237 9.7892C11.6237 7.8992 10.2037 6.8192 8.4237 6.8192C7.0137 6.8192 5.7837 7.6192 5.4037 8.8292C5.3137 9.0892 5.2937 9.3392 5.2937 9.5692C5.2937 10.0192 5.5937 10.3792 6.1237 10.3792C6.6037 10.3792 6.8637 10.1992 7.0037 9.7192C7.2237 8.9092 7.6537 8.4092 8.4237 8.4092C9.3237 8.4092 9.7637 9.1092 9.7637 10.0092C9.7637 11.0092 9.2037 11.7292 8.1737 11.7292H7.8437C7.3837 11.7292 7.0937 12.0192 7.0937 12.4692C7.0937 12.9192 7.3937 13.1792 7.8437 13.1792H8.1937C9.3537 13.1792 9.9937 13.8192 9.9937 15.0092C9.9937 15.9592 9.4837 16.7592 8.4737 16.7592C7.4737 16.7592 7.0437 16.0892 6.8737 15.4592C6.7437 15.0292 6.4537 14.7892 6.0037 14.7892C5.4737 14.7892 5.1137 15.1192 5.1137 15.6592C5.1137 15.8992 5.1537 16.1492 5.2237 16.3692C5.6237 17.6392 7.0037 18.3492 8.4737 18.3492ZM16.7437 18.3492C18.7137 18.3492 20.2237 17.1192 20.2237 15.0692C20.2237 13.3692 19.2137 12.5392 18.0437 12.4092V12.3692C19.2937 12.0492 19.8937 10.9392 19.8937 9.7892C19.8937 7.8992 18.4837 6.8192 16.7037 6.8192C15.2837 6.8192 14.0637 7.6192 13.6737 8.8292C13.6037 9.0892 13.5737 9.3392 13.5737 9.5692C13.5737 10.0192 13.8637 10.3792 14.4137 10.3792C14.8737 10.3792 15.1437 10.1992 15.2837 9.7192C15.5037 8.9092 15.9237 8.4092 16.7037 8.4092C17.6137 8.4092 18.0337 9.1092 18.0337 10.0092C18.0337 11.0092 17.4737 11.7292 16.4437 11.7292H16.1337C15.6637 11.7292 15.3637 12.0192 15.3637 12.4692C15.3637 12.9192 15.6637 13.1792 16.1337 13.1792H16.4737C17.6337 13.1792 18.2837 13.8192 18.2837 15.0092C18.2837 15.9592 17.7737 16.7592 16.7637 16.7592C15.7637 16.7592 15.3137 16.0892 15.1437 15.4592C15.0237 15.0292 14.7237 14.7892 14.2837 14.7892C13.7537 14.7892 13.3837 15.1192 13.3837 15.6592C13.3837 15.8992 13.4237 16.1492 13.4937 16.3692C13.8937 17.6392 15.2837 18.3492 16.7437 18.3492Z" /></svg>