<svg viewBox="0 0 27.890625 27.890625" xmlns="http://www.w3.org/2000/svg"><path d="M13.9427 27.8864C21.6427 27.8864 27.8927 21.6464 27.8927 13.9464C27.8927 6.2464 21.6427 -0.0036 13.9427 -0.0036C6.2527 -0.0036 0.0027 6.2464 0.0027 13.9464C0.0027 21.6464 6.2527 27.8864 13.9427 27.8864ZM13.9427 25.5664C7.5227 25.5664 2.3227 20.3664 2.3227 13.9464C2.3227 7.5164 7.5227 2.3264 13.9427 2.3264C20.3727 2.3264 25.5627 7.5164 25.5627 13.9464C25.5627 20.3664 20.3727 25.5664 13.9427 25.5664ZM9.5027 19.7164C11.4727 19.7164 12.9727 18.4864 12.9727 16.4364C12.9727 14.7364 11.9627 13.9064 10.8027 13.7764V13.7364C12.0427 13.4164 12.6427 12.3064 12.6427 11.1564C12.6427 9.2664 11.2427 8.1864 9.4427 8.1864C8.0427 8.1864 6.8227 8.9864 6.4227 10.1964C6.3527 10.4564 6.3127 10.7064 6.3127 10.9364C6.3127 11.3864 6.6127 11.7464 7.1627 11.7464C7.6327 11.7464 7.9027 11.5664 8.0427 11.0864C8.2427 10.2764 8.6827 9.7764 9.4427 9.7764C10.3527 9.7764 10.7827 10.4764 10.7827 11.3764C10.7827 12.3764 10.2227 13.0964 9.2027 13.0964H8.8727C8.4127 13.0964 8.1227 13.3864 8.1227 13.8364C8.1227 14.2864 8.4227 14.5464 8.8727 14.5464H9.2327C10.3727 14.5464 11.0227 15.1864 11.0227 16.3764C11.0227 17.3264 10.5227 18.1264 9.5027 18.1264C8.5127 18.1264 8.0627 17.4564 7.9027 16.8264C7.7627 16.3964 7.4827 16.1564 7.0427 16.1564C6.4927 16.1564 6.1427 16.4864 6.1427 17.0264C6.1427 17.2664 6.1827 17.5164 6.2527 17.7364C6.6427 19.0064 8.0427 19.7164 9.5027 19.7164ZM19.4827 19.6464C19.9927 19.6464 20.4127 19.3364 20.4127 18.6764V17.3064H20.9027C21.4227 17.3064 21.6727 16.9664 21.6727 16.5064C21.6727 16.0664 21.4527 15.7264 20.9027 15.7264H20.4127V9.7164C20.4127 8.7764 19.7927 8.2464 18.8927 8.2464C17.9327 8.2464 17.4827 8.7364 17.1027 9.5864L14.6527 14.8864C14.4227 15.4264 14.3527 15.7764 14.3527 16.1964C14.3527 16.8564 14.8027 17.3064 15.4727 17.3064H18.5427V18.6764C18.5427 19.3964 19.0427 19.6464 19.4827 19.6464ZM18.5827 15.7664H16.0327V15.6664L18.5227 9.9664H18.5827Z" /></svg>