<svg viewBox="0 0 25.169921875 25.169921875" xmlns="http://www.w3.org/2000/svg"><path d="M4.2937 25.1692H20.8737C23.7437 25.1692 25.1737 23.7592 25.1737 20.9492V4.2392C25.1737 1.4192 23.7437 -0.0008 20.8737 -0.0008H4.2937C1.4337 -0.0008 0.0037 1.4192 0.0037 4.2392V20.9492C0.0037 23.7592 1.4337 25.1692 4.2937 25.1692ZM16.9837 18.5692C14.1237 18.5692 13.2637 15.3792 13.2637 12.7192C13.2637 9.8592 14.1137 6.6192 16.9937 6.6192C18.4037 6.6192 19.6337 7.3692 19.9337 8.5892C19.9737 8.7592 20.0037 8.9392 20.0037 9.0892C20.0037 9.5592 19.7437 9.9392 19.1837 9.9392C18.7337 9.9392 18.4537 9.7492 18.2637 9.3092C18.0037 8.7192 17.5837 8.2692 16.9537 8.2692C15.3837 8.2692 15.2037 11.0992 15.2037 12.6592V12.8092H15.2537C15.5537 11.6092 16.4337 10.8392 17.5837 10.8392C19.4437 10.8392 20.3737 12.6492 20.3737 14.5492C20.3737 16.7592 19.1237 18.5692 16.9837 18.5692ZM8.1737 18.5292C6.6537 18.5292 5.2137 17.7992 4.8137 16.4892C4.7337 16.2592 4.7037 16.0092 4.7037 15.7492C4.7037 15.1992 5.0737 14.8592 5.6237 14.8592C6.0837 14.8592 6.3837 15.0892 6.5237 15.5592C6.6837 16.1992 7.1537 16.8892 8.1737 16.8892C9.2137 16.8892 9.7337 16.0492 9.7337 15.0792C9.7337 13.8592 9.0737 13.2092 7.8737 13.2092H7.5337C7.0637 13.2092 6.7437 12.9292 6.7437 12.4692C6.7437 11.9992 7.0537 11.6992 7.5337 11.6992H7.8637C8.9237 11.6992 9.4837 10.9492 9.4837 9.9292C9.4837 8.9992 9.0537 8.2892 8.1237 8.2892C7.3137 8.2892 6.8937 8.8092 6.6537 9.6392C6.5237 10.1292 6.2337 10.3092 5.7537 10.3092C5.1937 10.3092 4.8837 9.9392 4.8837 9.4792C4.8837 9.2292 4.9237 8.9792 4.9937 8.7092C5.4037 7.4692 6.6537 6.6492 8.1237 6.6492C9.9537 6.6492 11.4137 7.7492 11.4137 9.7092C11.4137 10.8792 10.7837 12.0292 9.5137 12.3692V12.4092C10.7037 12.5392 11.7437 13.3992 11.7437 15.1492C11.7437 17.2492 10.2037 18.5292 8.1737 18.5292ZM16.9537 16.9092C17.9237 16.9092 18.3937 15.6692 18.3937 14.6392C18.4137 13.5992 17.9737 12.3892 16.9437 12.3892C15.9237 12.3892 15.4637 13.5492 15.4637 14.5692C15.4637 15.5892 15.8837 16.9092 16.9537 16.9092Z" /></svg>