<svg viewBox="0 0 25.169921875 25.169921875" xmlns="http://www.w3.org/2000/svg"><path d="M4.2937 25.1692H20.8737C23.7437 25.1692 25.1737 23.7592 25.1737 20.9492V4.2392C25.1737 1.4192 23.7437 -0.0008 20.8737 -0.0008H4.2937C1.4337 -0.0008 0.0037 1.4192 0.0037 4.2392V20.9492C0.0037 23.7592 1.4337 25.1692 4.2937 25.1692ZM8.7937 18.5292C7.2837 18.5292 5.8337 17.7992 5.4437 16.4892C5.3637 16.2592 5.3337 16.0092 5.3337 15.7492C5.3337 15.1992 5.7037 14.8592 6.2437 14.8592C6.7137 14.8592 7.0137 15.0892 7.1537 15.5592C7.3137 16.1992 7.7837 16.8892 8.8037 16.8892C9.8437 16.8892 10.3637 16.0492 10.3637 15.0792C10.3637 13.8592 9.7037 13.2092 8.5037 13.2092H8.1637C7.6937 13.2092 7.3737 12.9292 7.3737 12.4692C7.3737 11.9992 7.6837 11.6992 8.1637 11.6992H8.4937C9.5437 11.6992 10.1137 10.9492 10.1137 9.9292C10.1137 8.9992 9.6837 8.2892 8.7537 8.2892C7.9437 8.2892 7.5237 8.8092 7.2837 9.6392C7.1537 10.1292 6.8637 10.3092 6.3837 10.3092C5.8237 10.3092 5.5137 9.9392 5.5137 9.4792C5.5137 9.2292 5.5537 8.9792 5.6237 8.7092C6.0337 7.4692 7.2837 6.6492 8.7537 6.6492C10.5837 6.6492 12.0437 7.7492 12.0437 9.7092C12.0437 10.8792 11.4137 12.0292 10.1437 12.3692V12.4092C11.3337 12.5392 12.3737 13.3992 12.3737 15.1492C12.3737 17.2492 10.8237 18.5292 8.7937 18.5292ZM15.6937 18.4692C15.0137 18.4692 14.7637 18.0092 14.7637 17.5992C14.7637 17.2492 14.8237 17.0792 14.9337 16.7592L18.0637 8.6792V8.5592H14.4337C13.9637 8.5592 13.6137 8.1992 13.6137 7.7092C13.6137 7.2292 13.9637 6.8792 14.4337 6.8792H18.9937C19.6237 6.8792 20.1237 7.3192 20.1237 7.9692C20.1237 8.3792 20.0137 8.7192 19.8537 9.1592L16.6437 17.7492C16.4437 18.2692 16.2137 18.4692 15.6937 18.4692Z" /></svg>