<svg viewBox="0 0 25.169921875 25.169921875" xmlns="http://www.w3.org/2000/svg"><path d="M4.2937 25.1692H20.8737C23.7437 25.1692 25.1737 23.7592 25.1737 20.9492V4.2392C25.1737 1.4192 23.7437 -0.0008 20.8737 -0.0008H4.2937C1.4337 -0.0008 0.0037 1.4192 0.0037 4.2392V20.9492C0.0037 23.7592 1.4337 25.1692 4.2937 25.1692ZM16.8837 18.5292C14.8237 18.5292 13.2337 17.2992 13.2337 15.1992C13.2337 13.6692 14.1537 12.5692 15.3537 12.2892V12.2492C14.4537 11.9792 13.5637 11.1292 13.5637 9.6892C13.5637 7.7092 15.1437 6.6492 16.8837 6.6492C18.8637 6.6492 20.2237 7.8792 20.2237 9.7092C20.2237 11.0492 19.3837 11.9592 18.4437 12.2492V12.2892C19.5737 12.5492 20.5537 13.6592 20.5537 15.1992C20.5537 17.1292 19.1237 18.5292 16.8837 18.5292ZM8.1637 18.5292C6.6437 18.5292 5.2137 17.7992 4.8037 16.4892C4.7337 16.2592 4.7037 16.0092 4.7037 15.7492C4.7037 15.1992 5.0737 14.8592 5.6237 14.8592C6.0737 14.8592 6.3837 15.0892 6.5037 15.5592C6.6837 16.1992 7.1537 16.8892 8.1737 16.8892C9.2137 16.8892 9.7337 16.0492 9.7337 15.0792C9.7337 13.8592 9.0737 13.2092 7.8737 13.2092H7.5337C7.0537 13.2092 6.7437 12.9292 6.7437 12.4692C6.7437 11.9992 7.0437 11.6992 7.5337 11.6992H7.8637C8.9037 11.6992 9.4737 10.9492 9.4737 9.9292C9.4737 8.9992 9.0537 8.2892 8.1237 8.2892C7.3137 8.2892 6.8737 8.8092 6.6537 9.6392C6.5037 10.1292 6.2337 10.3092 5.7437 10.3092C5.1937 10.3092 4.8837 9.9392 4.8837 9.4792C4.8837 9.2292 4.9037 8.9792 4.9737 8.7092C5.3837 7.4692 6.6437 6.6492 8.1237 6.6492C9.9537 6.6492 11.4037 7.7492 11.4037 9.7092C11.4037 10.8792 10.7837 12.0292 9.5137 12.3692V12.4092C10.7037 12.5392 11.7437 13.3992 11.7437 15.1492C11.7437 17.2492 10.1837 18.5292 8.1637 18.5292ZM16.8937 11.6092C17.7837 11.6092 18.2337 10.8292 18.2337 9.8992C18.2337 8.9992 17.8037 8.1592 16.8937 8.1592C16.0237 8.1592 15.5337 8.9992 15.5337 9.8992C15.5337 10.7292 15.9937 11.6092 16.8937 11.6092ZM16.8937 16.9892C17.9237 16.9892 18.4337 16.0792 18.4337 15.0392C18.4337 13.9692 17.8937 13.1292 16.8937 13.1292C15.8737 13.1292 15.3637 14.0292 15.3637 15.0392C15.3637 16.0792 15.8737 16.9892 16.8937 16.9892Z" /></svg>