<svg viewBox="0 0 27.890625 27.890625" xmlns="http://www.w3.org/2000/svg"><path d="M13.9427 27.8864C21.6427 27.8864 27.8927 21.6264 27.8927 13.9464C27.8927 6.2464 21.6427 -0.0036 13.9427 -0.0036C6.2627 -0.0036 0.0027 6.2464 0.0027 13.9464C0.0027 21.6264 6.2627 27.8864 13.9427 27.8864ZM18.1127 19.9364C15.3127 19.9364 14.4627 16.7864 14.4627 13.9464C14.4627 11.1064 15.3127 7.9564 18.1127 7.9564C20.9327 7.9564 21.7827 11.1064 21.7827 13.9464C21.7827 16.7864 20.9327 19.9364 18.1127 19.9364ZM10.7427 19.8264C10.2927 19.8264 9.7727 19.5664 9.7727 18.8264V17.4164H6.6127C5.9327 17.4164 5.4527 16.9564 5.4527 16.2664C5.4527 15.8364 5.5527 15.4664 5.7727 14.9164L8.2827 9.4464C8.6827 8.5764 9.1427 8.0664 10.1627 8.0664C11.0727 8.0664 11.7127 8.6164 11.7127 9.5964V15.7764H12.2227C12.7827 15.7764 13.0327 16.1364 13.0327 16.5864C13.0327 17.0664 12.7527 17.4164 12.2227 17.4164H11.7127V18.8264C11.7127 19.4964 11.2827 19.8264 10.7427 19.8264ZM18.1127 18.2564C19.2627 18.2564 19.7027 16.3964 19.7027 13.9464C19.7027 11.4864 19.2627 9.6364 18.1127 9.6364C16.9627 9.6364 16.5327 11.4864 16.5327 13.9464C16.5327 16.3964 16.9627 18.2564 18.1127 18.2564ZM9.8127 15.8164V9.8464H9.7627L7.2027 15.7264V15.8164Z" /></svg>