<svg viewBox="0 0 25.169921875 25.169921875" xmlns="http://www.w3.org/2000/svg"><path d="M4.2937 25.1692H20.8737C23.7437 25.1692 25.1737 23.7592 25.1737 20.9492V4.2392C25.1737 1.4192 23.7437 -0.0008 20.8737 -0.0008H4.2937C1.4337 -0.0008 0.0037 1.4192 0.0037 4.2392V20.9492C0.0037 23.7592 1.4337 25.1692 4.2937 25.1692ZM16.7637 18.5692C13.9637 18.5692 13.1137 15.4192 13.1137 12.5792C13.1137 9.7392 13.9637 6.5892 16.7637 6.5892C19.5737 6.5892 20.4237 9.7392 20.4237 12.5792C20.4237 15.4192 19.5737 18.5692 16.7637 18.5692ZM9.3937 18.4592C8.9437 18.4592 8.4237 18.1992 8.4237 17.4592V16.0492H5.2637C4.5837 16.0492 4.1037 15.5892 4.1037 14.8992C4.1037 14.4692 4.1937 14.0992 4.4337 13.5492L6.9337 8.0792C7.3237 7.2092 7.7937 6.6992 8.8037 6.6992C9.7237 6.6992 10.3637 7.2492 10.3637 8.2292V14.4092H10.8737C11.4337 14.4092 11.6737 14.7692 11.6737 15.2192C11.6737 15.6992 11.4137 16.0492 10.8737 16.0492H10.3637V17.4592C10.3637 18.1292 9.9437 18.4592 9.3937 18.4592ZM16.7637 16.8892C17.9137 16.8892 18.3437 15.0292 18.3437 12.5792C18.3437 10.1192 17.9137 8.2692 16.7637 8.2692C15.6137 8.2692 15.1737 10.1192 15.1737 12.5792C15.1737 15.0292 15.6137 16.8892 16.7637 16.8892ZM8.4637 14.4492V8.4792H8.4037L5.8537 14.3592V14.4492Z" /></svg>