<svg viewBox="0 0 25.169921875 25.169921875" xmlns="http://www.w3.org/2000/svg"><path d="M4.2937 25.1692H20.8737C23.7437 25.1692 25.1737 23.7592 25.1737 20.9492V4.2392C25.1737 1.4192 23.7437 -0.0008 20.8737 -0.0008H4.2937C1.4337 -0.0008 0.0037 1.4192 0.0037 4.2392V20.9492C0.0037 23.7592 1.4337 25.1692 4.2937 25.1692ZM17.3237 18.4292C16.7337 18.4292 16.2737 17.9692 16.2737 17.3892V8.8492L14.9737 9.8892C14.8337 9.9892 14.6937 10.0592 14.4737 10.0592C14.0437 10.0592 13.7437 9.7492 13.7437 9.3092C13.7437 8.9392 13.9437 8.6692 14.1937 8.4792L15.7537 7.2692C16.0637 7.0292 16.5537 6.6992 17.1437 6.6992C17.8837 6.6992 18.3337 7.1192 18.3337 7.8492V17.3892C18.3337 17.9692 17.8737 18.4292 17.3237 18.4292ZM10.4637 18.4592C10.0037 18.4592 9.4737 18.1992 9.4737 17.4592V16.0492H6.3337C5.6337 16.0492 5.1637 15.5892 5.1637 14.8992C5.1637 14.4692 5.2337 14.0992 5.4837 13.5492L7.9937 8.0792C8.3937 7.2092 8.8637 6.6992 9.8437 6.6992C10.7837 6.6992 11.4137 7.2492 11.4137 8.2292V14.4092H11.9237C12.4937 14.4092 12.7137 14.7692 12.7137 15.2192C12.7137 15.6992 12.4737 16.0492 11.9237 16.0492H11.4137V17.4592C11.4137 18.1292 10.9737 18.4592 10.4637 18.4592ZM9.5137 14.4492V8.4792H9.4637L6.9037 14.3592V14.4492Z" /></svg>