<svg viewBox="0 0 25.169921875 25.169921875" xmlns="http://www.w3.org/2000/svg"><path d="M4.2937 25.1692H20.8737C23.7437 25.1692 25.1737 23.7592 25.1737 20.9492V4.2392C25.1737 1.4192 23.7437 -0.0008 20.8737 -0.0008H4.2937C1.4337 -0.0008 0.0037 1.4192 0.0037 4.2392V20.9492C0.0037 23.7592 1.4337 25.1692 4.2937 25.1692ZM14.2737 18.2792C13.6137 18.2792 13.3337 17.9392 13.3337 17.4592C13.3337 17.0192 13.5737 16.6692 13.8537 16.3192L16.2837 13.2092C17.0337 12.2492 17.8137 11.0992 17.8137 9.9692C17.8137 8.9692 17.3537 8.2292 16.5037 8.2292C15.6937 8.2292 15.3537 8.8192 15.0837 9.7592C14.9437 10.2292 14.6537 10.4492 14.1937 10.4492C13.6437 10.4492 13.3437 10.0792 13.3437 9.5392C13.3437 8.0792 14.7137 6.5892 16.5137 6.5892C18.4537 6.5892 19.7537 7.9692 19.7537 9.8692C19.7537 11.1192 19.2937 12.1592 17.8837 13.9092L15.8337 16.4992V16.6292H19.1637C19.6437 16.6292 19.9737 16.9092 19.9737 17.4592C19.9737 17.9492 19.6637 18.2792 19.1637 18.2792ZM9.6637 18.4592C9.2137 18.4592 8.6837 18.2092 8.6837 17.4592V16.0492H5.5237C4.8437 16.0492 4.3637 15.5892 4.3637 14.8992C4.3637 14.4692 4.4437 14.0992 4.6937 13.5492L7.2037 8.0892C7.6037 7.2092 8.0637 6.6992 9.0637 6.6992C9.9837 6.6992 10.6337 7.2592 10.6337 8.2292V14.4092H11.1337C11.6937 14.4092 11.9337 14.7692 11.9337 15.2192C11.9337 15.6992 11.6737 16.0492 11.1337 16.0492H10.6337V17.4592C10.6337 18.1292 10.2037 18.4592 9.6637 18.4592ZM8.7237 14.4492V8.4792H8.6637L6.1137 14.3592V14.4492Z" /></svg>