<svg viewBox="0 0 27.890625 27.890625" xmlns="http://www.w3.org/2000/svg"><path d="M13.9427 27.8864C21.6427 27.8864 27.8927 21.6264 27.8927 13.9464C27.8927 6.2464 21.6427 -0.0036 13.9427 -0.0036C6.2627 -0.0036 0.0027 6.2464 0.0027 13.9464C0.0027 21.6264 6.2627 27.8864 13.9427 27.8864ZM10.7427 19.8264C10.2927 19.8264 9.7627 19.5664 9.7627 18.8164V17.4164H6.6127C5.9227 17.4164 5.4527 16.9564 5.4527 16.2664C5.4527 15.8364 5.5227 15.4664 5.7727 14.9164L8.2827 9.4464C8.6827 8.5764 9.1427 8.0664 10.1427 8.0664C11.0727 8.0664 11.7127 8.6164 11.7127 9.5964V15.7764H12.2127C12.7827 15.7764 13.0127 16.1364 13.0127 16.5864C13.0127 17.0664 12.7527 17.4164 12.2127 17.4164H11.7127V18.8164C11.7127 19.4964 11.2827 19.8264 10.7427 19.8264ZM19.6627 19.8264C19.1927 19.8264 18.6727 19.5664 18.6727 18.8164V17.4164H15.5127C14.8327 17.4164 14.3527 16.9564 14.3527 16.2664C14.3527 15.8364 14.4327 15.4664 14.6727 14.9164L17.1827 9.4464C17.5827 8.5764 18.0427 8.0664 19.0427 8.0664C19.9727 8.0664 20.6127 8.6164 20.6127 9.5964V15.7764H21.1227C21.6827 15.7764 21.9127 16.1364 21.9127 16.5864C21.9127 17.0664 21.6527 17.4164 21.1227 17.4164H20.6127V18.8164C20.6127 19.4964 20.1827 19.8264 19.6627 19.8264ZM9.8027 15.8164V9.8464H9.7627L7.2027 15.7264V15.8164ZM18.7027 15.8164V9.8464H18.6627L16.1027 15.7264V15.8164Z" /></svg>