<svg viewBox="0 0 25.169921875 25.169921875" xmlns="http://www.w3.org/2000/svg"><path d="M4.2937 25.1692H20.8737C23.7437 25.1692 25.1737 23.7592 25.1737 20.9492V4.2392C25.1737 1.4192 23.7437 -0.0008 20.8737 -0.0008H4.2937C1.4337 -0.0008 0.0037 1.4192 0.0037 4.2392V20.9492C0.0037 23.7592 1.4337 25.1692 4.2937 25.1692ZM4.3237 22.9692C2.9537 22.9692 2.2037 22.2392 2.2037 20.8192V4.3592C2.2037 2.9392 2.9537 2.1992 4.3237 2.1992H20.8537C22.2037 2.1992 22.9737 2.9392 22.9737 4.3592V20.8192C22.9737 22.2392 22.2037 22.9692 20.8537 22.9692ZM9.7437 18.2792C10.2537 18.2792 10.6737 17.9692 10.6737 17.3092V15.9392H11.1537C11.6937 15.9392 11.9337 15.5992 11.9337 15.1392C11.9337 14.6992 11.7037 14.3592 11.1537 14.3592H10.6737V8.3492C10.6737 7.4092 10.0537 6.8792 9.1637 6.8792C8.2037 6.8792 7.7537 7.3692 7.3737 8.2192L4.9237 13.5192C4.6937 14.0592 4.6037 14.4092 4.6037 14.8292C4.6037 15.4892 5.0737 15.9392 5.7237 15.9392H8.7937V17.3092C8.7937 18.0292 9.3137 18.2792 9.7437 18.2792ZM16.6937 18.3892C18.8237 18.3892 20.0037 16.5992 20.0037 14.4392C20.0037 12.5492 19.1037 10.8292 17.3337 10.8292C16.5337 10.8292 15.7737 11.1992 15.4337 11.9892H15.3637L15.6037 8.6692H18.8037C19.2737 8.6692 19.5637 8.3392 19.5637 7.8592C19.5637 7.4092 19.2637 7.0592 18.8037 7.0592H15.0537C14.3237 7.0592 14.0137 7.5192 13.9637 8.2292L13.7437 11.9792C13.7237 12.1792 13.7137 12.3992 13.7137 12.5792C13.7137 13.0992 13.9837 13.5592 14.6137 13.5592C14.9837 13.5592 15.2037 13.4092 15.4937 13.0392C15.8037 12.5892 16.1437 12.2592 16.6937 12.2592C17.7037 12.2592 18.0837 13.4792 18.0837 14.4892C18.0837 15.6292 17.6737 16.7892 16.6637 16.7892C15.9037 16.7892 15.4737 16.2392 15.2137 15.4892C15.0637 15.0492 14.7537 14.8492 14.3937 14.8492C13.8937 14.8492 13.5737 15.1592 13.5737 15.6692C13.5737 15.9792 13.6537 16.2792 13.7637 16.5592C14.2437 17.6592 15.4637 18.3892 16.6937 18.3892ZM8.8337 14.3992H6.3037V14.2992L8.7737 8.5992H8.8337Z" /></svg>