<svg viewBox="0 0 27.890625 27.890625" xmlns="http://www.w3.org/2000/svg"><path d="M13.9427 27.8864C21.6427 27.8864 27.8927 21.6264 27.8927 13.9464C27.8927 6.2464 21.6427 -0.0036 13.9427 -0.0036C6.2627 -0.0036 0.0027 6.2464 0.0027 13.9464C0.0027 21.6264 6.2627 27.8864 13.9427 27.8864ZM17.4027 15.7064C15.5427 15.7064 14.6327 13.9064 14.6327 12.0064C14.6327 9.7864 15.8727 7.9864 18.0227 7.9864C20.8727 7.9864 21.7227 11.1664 21.7227 13.8364C21.7227 16.7164 20.8727 19.9164 17.9927 19.9164C16.5827 19.9164 15.3527 19.1864 15.0527 17.9464C15.0127 17.7864 14.9727 17.6064 14.9727 17.4464C14.9727 16.9764 15.2327 16.5864 15.8227 16.5864C16.2427 16.5864 16.5327 16.7664 16.7227 17.2264C16.9827 17.8264 17.4027 18.2664 18.0327 18.2664C19.6027 18.2664 19.7927 15.4464 19.7927 13.8864V13.7364H19.7427C19.4327 14.9464 18.5627 15.7064 17.4027 15.7064ZM10.9627 19.8264C10.5227 19.8264 9.9827 19.5664 9.9827 18.8164V17.4164H6.8327C6.1427 17.4164 5.6727 16.9564 5.6727 16.2664C5.6727 15.8364 5.7527 15.4664 5.9927 14.9164L8.4927 9.4464C8.8827 8.5764 9.3627 8.0664 10.3627 8.0664C11.2927 8.0664 11.9227 8.6164 11.9227 9.5964V15.7764H12.4327C12.9927 15.7764 13.2327 16.1364 13.2327 16.5864C13.2327 17.0664 12.9727 17.4164 12.4327 17.4164H11.9227V18.8164C11.9227 19.4964 11.5027 19.8264 10.9627 19.8264ZM18.0427 14.1464C19.0627 14.1464 19.5327 13.0064 19.5327 11.9064C19.5327 10.8564 19.1027 9.6364 18.0427 9.6364C17.0627 9.6364 16.5827 10.8564 16.5827 11.9064C16.5827 12.9464 17.0127 14.1464 18.0427 14.1464ZM10.0227 15.8164V9.8464H9.9627L7.4127 15.7264V15.8164Z" /></svg>