<svg viewBox="0 0 25.169921875 25.169921875" xmlns="http://www.w3.org/2000/svg"><path d="M4.2937 25.1692H20.8737C23.7437 25.1692 25.1737 23.7592 25.1737 20.9492V4.2392C25.1737 1.4192 23.7437 -0.0008 20.8737 -0.0008H4.2937C1.4337 -0.0008 0.0037 1.4192 0.0037 4.2392V20.9492C0.0037 23.7592 1.4337 25.1692 4.2937 25.1692ZM16.0637 14.3392C14.1937 14.3392 13.2737 12.5392 13.2737 10.6392C13.2737 8.4192 14.5237 6.6192 16.6637 6.6192C19.5237 6.6192 20.3737 9.7992 20.3737 12.4692C20.3737 15.3492 19.5337 18.5492 16.6537 18.5492C15.2337 18.5492 14.0137 17.8192 13.7037 16.5792C13.6537 16.4192 13.6137 16.2392 13.6137 16.0792C13.6137 15.6092 13.8737 15.2192 14.4637 15.2192C14.8937 15.2192 15.1737 15.3992 15.3637 15.8592C15.6237 16.4592 16.0537 16.8992 16.6837 16.8992C18.2537 16.8992 18.4437 14.0792 18.4437 12.5192V12.3692H18.3937C18.0737 13.5792 17.2137 14.3392 16.0637 14.3392ZM9.6237 18.4592C9.1737 18.4592 8.6237 18.1992 8.6237 17.4492V16.0492H5.4837C4.8037 16.0492 4.3237 15.5892 4.3237 14.8992C4.3237 14.4692 4.4037 14.0992 4.6337 13.5492L7.1537 8.0792C7.5437 7.2092 8.0237 6.6992 9.0137 6.6992C9.9437 6.6992 10.5837 7.2492 10.5837 8.2292V14.4092H11.0737C11.6337 14.4092 11.8837 14.7692 11.8837 15.2192C11.8837 15.6992 11.6237 16.0492 11.0737 16.0492H10.5837V17.4492C10.5837 18.1292 10.1437 18.4592 9.6237 18.4592ZM16.6937 12.7792C17.7037 12.7792 18.1837 11.6392 18.1837 10.5392C18.1837 9.4892 17.7437 8.2692 16.6937 8.2692C15.7137 8.2692 15.2337 9.4892 15.2337 10.5392C15.2337 11.5792 15.6537 12.7792 16.6937 12.7792ZM8.6637 14.4492V8.4792H8.6137L6.0537 14.3592V14.4492Z" /></svg>