<svg viewBox="0 0 34.31640625 20.193359375" xmlns="http://www.w3.org/2000/svg"><path d="M18.8637 20.1946C19.5937 20.1946 19.9437 19.9246 20.2037 19.1546L21.9737 14.3246H30.0337L31.8037 19.1546C32.0637 19.9246 32.4137 20.1946 33.1237 20.1946C33.8537 20.1946 34.3137 19.7546 34.3137 19.0746C34.3137 18.8446 34.2737 18.6246 34.1637 18.3346L27.7537 1.2546C27.4437 0.4246 26.8837 0.0046 26.0037 0.0046C25.1537 0.0046 24.5837 0.4146 24.2837 1.2446L17.8737 18.3446C17.7637 18.6346 17.7237 18.8546 17.7237 19.0846C17.7237 19.7646 18.1537 20.1946 18.8637 20.1946ZM10.8737 20.1946C11.5437 20.1946 12.0337 19.6746 12.0337 18.9646V15.7046H13.8337C14.4737 15.7046 14.9137 15.3246 14.9137 14.6846C14.9137 14.0846 14.4637 13.6546 13.8337 13.6546H12.0337V1.9146C12.0337 0.8046 11.2137 0.0146 10.0637 0.0146C8.8337 0.0146 8.1237 0.9146 7.4737 1.9246L0.5037 12.6146C0.1737 13.1346 0.0037 13.6846 0.0037 14.1746C0.0037 15.0546 0.5737 15.7046 1.6637 15.7046H9.7037V18.9646C9.7037 19.8146 10.3037 20.1946 10.8737 20.1946ZM9.7237 13.6846H2.2837V13.5646L9.5937 2.4446H9.7237ZM22.6437 12.2546L25.9637 3.0446H26.0337L29.3537 12.2546Z" /></svg>