<svg viewBox="0 0 27.890625 27.890625" xmlns="http://www.w3.org/2000/svg"><path d="M13.9427 27.8864C21.6427 27.8864 27.8927 21.6264 27.8927 13.9464C27.8927 6.2464 21.6427 -0.0036 13.9427 -0.0036C6.2627 -0.0036 0.0027 6.2464 0.0027 13.9464C0.0027 21.6264 6.2627 27.8864 13.9427 27.8864ZM15.2027 19.8264C14.6427 19.8264 14.1827 19.3564 14.1827 18.7764V9.0964C14.1827 8.5164 14.6427 8.0564 15.2027 8.0564C15.7727 8.0564 16.2427 8.5164 16.2427 9.0964V12.9864H19.7127V9.0964C19.7127 8.5164 20.1827 8.0564 20.7527 8.0564C21.3027 8.0564 21.7827 8.5164 21.7827 9.0964V18.7764C21.7827 19.3564 21.3027 19.8264 20.7527 19.8264C20.1827 19.8264 19.7127 19.3564 19.7127 18.7764V14.7064H16.2427V18.7764C16.2427 19.3564 15.7727 19.8264 15.2027 19.8264ZM10.1727 19.8264C9.7227 19.8264 9.1827 19.5664 9.1827 18.8264V17.4164H6.0427C5.3427 17.4164 4.8827 16.9564 4.8827 16.2664C4.8827 15.8364 4.9627 15.4664 5.1927 14.9164L7.6927 9.4464C8.0927 8.5764 8.5727 8.0664 9.5727 8.0664C10.5027 8.0664 11.1327 8.6164 11.1327 9.5964V15.7764H11.6327C12.2127 15.7764 12.4427 16.1364 12.4427 16.5864C12.4427 17.0664 12.1827 17.4164 11.6327 17.4164H11.1327V18.8264C11.1327 19.4964 10.7027 19.8264 10.1727 19.8264ZM9.2327 15.8164V9.8464H9.1727L6.6127 15.7264V15.8164Z" /></svg>