<svg viewBox="0 0 27.890625 27.890625" xmlns="http://www.w3.org/2000/svg"><path d="M13.9427 27.8864C21.6427 27.8864 27.8927 21.6264 27.8927 13.9464C27.8927 6.2464 21.6427 -0.0036 13.9427 -0.0036C6.2627 -0.0036 0.0027 6.2464 0.0027 13.9464C0.0027 21.6264 6.2627 27.8864 13.9427 27.8864ZM13.9827 20.6564C11.0427 20.6564 9.0627 18.7964 9.0627 16.0964C9.0627 14.5564 9.6827 13.0164 11.1327 11.0864C11.8627 10.1164 12.7127 9.0364 13.6427 7.8164C13.8627 7.5464 14.1327 7.2464 14.5927 7.2464C15.2727 7.2464 15.5627 7.6864 15.5627 8.1064C15.5627 8.3764 15.4327 8.5964 15.2127 8.8864C14.5327 9.7764 13.6027 10.9264 12.8927 11.8564C12.4527 12.4264 12.2627 12.6764 12.1227 12.9164L12.2627 12.9564C12.7327 12.4864 13.7127 12.1164 14.6727 12.1164C17.1327 12.1164 18.8827 13.8464 18.8827 16.1764C18.8827 18.7964 16.8827 20.6564 13.9827 20.6564ZM13.9827 18.8764C15.6527 18.8764 16.9027 17.7464 16.9027 16.2864C16.9027 14.7964 15.6527 13.7164 13.9727 13.7164C12.3027 13.7164 11.0627 14.7964 11.0627 16.2564C11.0627 17.7464 12.3227 18.8764 13.9827 18.8764Z" /></svg>