<svg viewBox="0 0 25.169921875 25.169921875" xmlns="http://www.w3.org/2000/svg"><path d="M4.2937 25.1692H20.8737C23.7437 25.1692 25.1737 23.7592 25.1737 20.9492V4.2392C25.1737 1.4192 23.7437 -0.0008 20.8737 -0.0008H4.2937C1.4337 -0.0008 0.0037 1.4192 0.0037 4.2392V20.9492C0.0037 23.7592 1.4337 25.1692 4.2937 25.1692ZM12.6337 19.2892C9.6937 19.2892 7.7137 17.4292 7.7137 14.7292C7.7137 13.1892 8.3237 11.6492 9.7737 9.7192C10.5137 8.7492 11.3637 7.6692 12.2937 6.4492C12.5137 6.1792 12.7837 5.8792 13.2337 5.8792C13.9137 5.8792 14.2037 6.3192 14.2037 6.7392C14.2037 7.0092 14.0837 7.2292 13.8737 7.5192C13.1837 8.4092 12.2537 9.5592 11.5437 10.4892C11.1037 11.0592 10.9137 11.3092 10.7737 11.5492L10.9137 11.5892C11.3937 11.1192 12.3637 10.7492 13.3137 10.7492C15.7737 10.7492 17.5237 12.4792 17.5237 14.8092C17.5237 17.4292 15.5337 19.2892 12.6337 19.2892ZM12.6337 17.5092C14.3037 17.5092 15.5437 16.3792 15.5437 14.9192C15.5437 13.4292 14.3037 12.3492 12.6237 12.3492C10.9537 12.3492 9.7037 13.4292 9.7037 14.8892C9.7037 16.3792 10.9637 17.5092 12.6337 17.5092Z" /></svg>