<svg viewBox="0 0 25.169921875 25.169921875" xmlns="http://www.w3.org/2000/svg"><path d="M4.2937 25.1692H20.8737C23.7437 25.1692 25.1737 23.7592 25.1737 20.9492V4.2392C25.1737 1.4192 23.7437 -0.0008 20.8737 -0.0008H4.2937C1.4337 -0.0008 0.0037 1.4192 0.0037 4.2392V20.9492C0.0037 23.7592 1.4337 25.1692 4.2937 25.1692ZM4.3237 22.9692C2.9537 22.9692 2.2037 22.2392 2.2037 20.8192V4.3592C2.2037 2.9392 2.9537 2.1992 4.3237 2.1992H20.8537C22.2037 2.1992 22.9737 2.9392 22.9737 4.3592V20.8192C22.9737 22.2392 22.2037 22.9692 20.8537 22.9692ZM7.8437 10.4192C7.8437 12.7192 9.5837 14.3792 11.9637 14.3792C12.8637 14.3792 13.8337 14.0592 14.3037 13.5792H14.4637C14.3537 13.7792 14.1537 14.0692 13.8637 14.4392C13.0937 15.3992 12.1937 16.4892 11.3937 17.4892C11.1537 17.7492 11.0437 18.0092 11.0437 18.2692C11.0437 18.6792 11.4037 19.0692 11.9537 19.0692C12.4837 19.0692 12.6837 18.7592 13.0837 18.2692C13.7937 17.3792 14.8337 16.0492 15.5537 15.0792C16.8137 13.3992 17.4137 11.9992 17.4137 10.5292C17.4137 7.8792 15.4637 6.0692 12.6337 6.0692C9.8037 6.0692 7.8437 7.8592 7.8437 10.4192ZM9.7737 10.3392C9.7737 8.8892 11.0037 7.8092 12.6337 7.8092C14.2437 7.8092 15.4737 8.8992 15.4737 10.3392C15.4737 11.7992 14.2637 12.8492 12.6437 12.8492C11.0037 12.8492 9.7737 11.7892 9.7737 10.3392Z" /></svg>