<svg viewBox="0 0 39.01953125 26.66015625" xmlns="http://www.w3.org/2000/svg"><path d="M19.5127 26.6612C26.8827 26.6612 32.8527 20.6812 32.8527 13.3312C32.8527 5.9612 26.8827 0.0012 19.5127 0.0012C12.1527 0.0012 6.1827 5.9612 6.1827 13.3312C6.1827 20.6812 12.1527 26.6612 19.5127 26.6612ZM39.0227 13.3312C39.0227 8.9912 37.6227 5.0012 35.2327 1.7612C34.8127 1.1912 34.0827 1.1212 33.5327 1.5612C33.0327 1.9812 32.9927 2.6512 33.3727 3.1712C35.4627 6.0312 36.6827 9.5312 36.6827 13.3312C36.6827 17.1212 35.4627 20.6312 33.3727 23.4612C32.9927 24.0112 33.0427 24.6612 33.5327 25.0912C34.0827 25.5212 34.8127 25.4712 35.2327 24.8812C37.6227 21.6412 39.0227 17.6612 39.0227 13.3312ZM0.0027 13.3312C0.0027 17.6612 1.4127 21.6412 3.7827 24.8812C4.2127 25.4712 4.9327 25.5212 5.4827 25.0912C5.9727 24.6612 6.0427 24.0112 5.6427 23.4612C3.5727 20.6312 2.3427 17.1212 2.3427 13.3312C2.3427 9.5312 3.5727 6.0312 5.6427 3.1712C6.0427 2.6512 5.9927 1.9812 5.4827 1.5612C4.9327 1.1212 4.2127 1.1912 3.7827 1.7612C1.4127 5.0012 0.0027 8.9912 0.0027 13.3312ZM19.5127 24.3312C13.4427 24.3312 8.5027 19.4012 8.5027 13.3312C8.5027 7.2412 13.4427 2.3112 19.5127 2.3112C25.5927 2.3112 30.5327 7.2412 30.5327 13.3312C30.5327 19.4012 25.5927 24.3312 19.5127 24.3312ZM25.8427 17.8412C27.4427 17.8412 28.3027 16.8212 28.3027 15.3012C28.3027 13.9012 27.5627 13.2712 26.5627 12.7812L26.0727 12.5512C25.4327 12.2212 24.9927 11.8712 24.9927 11.1312C24.9927 10.5512 25.2627 10.0712 25.8127 10.0712C26.3827 10.0712 26.6227 10.5412 26.7527 11.1012C26.8427 11.4112 27.1227 11.6112 27.4827 11.6112C27.8727 11.6112 28.1227 11.3312 28.1227 10.9612C28.1227 10.7912 28.0827 10.5912 28.0127 10.4012C27.7027 9.4512 26.9227 8.7812 25.8127 8.7812C24.5227 8.7812 23.4727 9.6512 23.4727 11.2612C23.4727 12.6312 24.2627 13.2912 25.1827 13.7712L25.6627 14.0012C26.3427 14.3512 26.7727 14.6812 26.7727 15.4512C26.7727 16.0912 26.4427 16.5712 25.8527 16.5712C25.2627 16.5712 24.9927 16.1312 24.8527 15.5412C24.7427 15.1712 24.5127 14.9812 24.1327 14.9812C23.7027 14.9812 23.4627 15.2812 23.4627 15.6912C23.4627 15.8312 23.4927 15.9812 23.5127 16.1212C23.8027 17.1812 24.6227 17.8412 25.8427 17.8412ZM11.4027 17.7912C11.8527 17.7912 12.1027 17.5112 12.1727 17.0712L12.4527 15.6912H14.4927L14.7827 17.0912C14.8927 17.5912 15.1627 17.7912 15.5727 17.7912C15.9827 17.7912 16.2927 17.4612 16.2927 17.0512C16.2927 16.9712 16.2527 16.6612 16.2327 16.5412L14.6727 9.8612C14.5227 9.1912 14.1227 8.8612 13.4527 8.8612C12.8227 8.8612 12.4427 9.1712 12.2727 9.8612L10.7427 16.5412C10.7027 16.7212 10.6627 16.8812 10.6627 17.0512C10.6627 17.5512 11.0027 17.7912 11.4027 17.7912ZM18.2127 17.6512H20.2627C21.7227 17.6512 22.4527 16.5412 22.4527 15.2012C22.4527 14.2212 21.8627 13.1612 20.9327 13.1012V13.0412C21.8027 12.8412 22.2027 11.9212 22.2027 11.1412C22.2027 9.8612 21.4927 8.9912 20.2027 8.9912H18.2127C17.7627 8.9912 17.4427 9.2412 17.4427 9.8212V16.8312C17.4427 17.3512 17.7027 17.6512 18.2127 17.6512ZM18.9927 12.6612V10.1812H19.7427C20.4627 10.1812 20.7227 10.6612 20.7227 11.3712C20.7227 12.1412 20.4027 12.6612 19.6427 12.6612ZM12.6727 14.5012L13.4227 10.7012H13.4827L14.2627 14.5012ZM18.9927 16.4612V13.7312H19.7327C20.5227 13.7312 20.8927 14.2912 20.8927 15.0812C20.8927 15.8712 20.5727 16.4612 19.7527 16.4612Z" /></svg>