<svg viewBox="0 0 50.39453125 22.19955604478853" xmlns="http://www.w3.org/2000/svg"><path d="M38.1037 5.0556C37.3137 4.9056 36.5737 4.8356 35.8237 4.9056L20.2737 5.9156L26.0537 2.0156C27.3037 1.1856 26.0837 -0.6644 24.7437 0.2456L15.9837 6.0956L6.6737 7.8456C2.2237 8.6756 0.0037 10.7256 0.0037 14.3356V16.1556C0.0037 18.2056 0.9137 19.2156 2.9837 19.4556L5.7137 19.7756C5.6037 19.3456 5.5337 18.5756 5.5337 18.0956C5.5337 14.9256 8.0537 12.4056 11.2337 12.4056C14.4237 12.4056 16.9437 14.9256 16.9437 18.0956C16.9437 18.4956 16.9137 18.9456 16.8437 19.2156H33.7837C33.6837 18.9156 33.6437 18.5056 33.6437 18.0956C33.6437 14.9256 36.1637 12.4056 39.3437 12.4056C42.5337 12.4056 45.0537 15.1956 45.0537 18.3756C45.0537 18.5456 45.0537 18.6156 45.0337 18.7856L46.4837 18.6356C49.1237 18.3556 50.3937 16.8956 50.3937 14.1756V11.7956C50.3937 8.5556 49.2037 7.2056 46.1037 6.5956ZM19.5637 15.6056C19.1837 15.6056 18.8537 15.3756 18.8537 14.8756C18.8537 14.6956 18.8637 14.5556 18.9037 14.3656L20.0837 9.3656C20.2237 8.7156 20.6337 8.4156 21.2437 8.4156C21.9137 8.4156 22.3237 8.7056 22.4637 9.3656L23.6537 14.3656C23.6937 14.5456 23.7437 14.6956 23.7437 14.8756C23.7437 15.2856 23.4437 15.6056 22.9837 15.6056C22.5837 15.6056 22.3237 15.3756 22.2337 14.9156L22.0237 14.0956H20.5037L20.3137 14.8956C20.2437 15.3656 20.0337 15.6056 19.5637 15.6056ZM25.4137 15.6056C24.9337 15.6056 24.6337 15.2956 24.6337 14.7856V9.2356C24.6337 8.7356 24.9337 8.4156 25.4137 8.4156C25.9037 8.4156 26.2137 8.7356 26.2137 9.2356V14.7856C26.2137 15.2956 25.9037 15.6056 25.4137 15.6056ZM28.1237 15.6056C27.6337 15.6056 27.3437 15.2956 27.3437 14.7856V9.3456C27.3437 8.8256 27.6137 8.5256 28.1237 8.5256H29.4637C31.0037 8.5256 31.6937 9.4456 31.6937 10.7556C31.6937 11.4656 31.4637 12.2456 30.8537 12.6156L31.5237 14.3956C31.5937 14.5856 31.6337 14.7756 31.6337 14.9156C31.6337 15.3256 31.3237 15.6056 30.8837 15.6056C30.4737 15.6056 30.2737 15.3656 30.1037 14.9656L29.4037 12.9456H28.8937V14.7856C28.8937 15.2956 28.6037 15.6056 28.1237 15.6056ZM28.8937 11.8756H29.3437C29.8737 11.8656 30.1237 11.3256 30.1237 10.7856C30.1237 10.2456 29.8637 9.7056 29.3437 9.7056H28.8937ZM20.6837 12.9556H21.8337L21.2737 10.1956H21.2337ZM11.2337 22.1956C13.5537 22.1956 15.3537 20.3956 15.3537 18.0956C15.3537 15.8056 13.5537 13.9956 11.2337 13.9956C8.9437 13.9956 7.1337 15.8056 7.1337 18.0956C7.1337 20.3956 8.9437 22.1956 11.2337 22.1956ZM39.3437 22.1956C41.6537 22.1956 43.4637 20.3956 43.4637 18.0956C43.4637 15.8056 41.6537 13.9956 39.3437 13.9956C37.0337 13.9956 35.2337 15.8056 35.2337 18.0956C35.2337 20.3956 37.0337 22.1956 39.3437 22.1956Z" /></svg>