<svg viewBox="0 0 51.84375 22.216796875" xmlns="http://www.w3.org/2000/svg"><path d="M3.4837 19.0963H5.8637C6.4937 20.9363 8.2037 22.2163 10.2837 22.2163C12.3637 22.2163 14.0837 20.9363 14.7137 19.0963H34.7237C35.3437 20.9363 37.0637 22.2163 39.1437 22.2163C41.2237 22.2163 42.9337 20.9363 43.5537 19.0963H48.3737C50.5437 19.0963 51.8437 17.7563 51.8437 15.5263V9.8863C51.8437 7.6563 50.5437 6.3163 48.3737 6.3163H37.1637L36.9037 4.0763C36.5837 1.3663 35.0637 -0.0037 32.3737 -0.0037H26.8537C22.4537 -0.0037 19.7437 0.6863 16.7037 2.5963L11.1137 6.0963L6.0137 6.8763C1.8737 7.5063 0.0037 9.2863 0.0037 12.4963V15.5263C0.0037 17.7563 1.3137 19.0963 3.4837 19.0963ZM39.1437 12.8663C36.7337 12.8663 34.8037 14.5863 34.5037 16.8963H14.9137C14.6137 14.5863 12.6837 12.8663 10.2837 12.8663C7.8737 12.8663 5.9437 14.5863 5.6437 16.8963H3.6137C2.7237 16.8963 2.2037 16.2963 2.2037 15.2563V12.4963C2.2037 10.5363 3.4437 9.5063 6.3037 9.0663L11.8637 8.2163L17.8837 4.4663C20.5737 2.8063 22.9237 2.1963 26.8537 2.1963H32.2537C33.7137 2.1963 34.5337 2.9363 34.7037 4.3763L35.1537 8.5163H48.2437C49.1237 8.5163 49.6437 9.1363 49.6437 10.1563V15.2563C49.6437 16.2963 49.1237 16.8963 48.2437 16.8963H43.7737C43.4737 14.5863 41.5537 12.8663 39.1437 12.8663ZM18.5937 13.9463C19.1137 13.9463 19.3637 13.6563 19.4437 13.1363L19.6337 12.2863H21.2837L21.4937 13.1663C21.6037 13.6863 21.8737 13.9463 22.3237 13.9463C22.8337 13.9463 23.1637 13.5863 23.1637 13.1263C23.1637 12.9363 23.1237 12.7663 23.0737 12.5663L21.7937 7.1363C21.6337 6.4163 21.1737 6.0863 20.4437 6.0863C19.7537 6.0863 19.3037 6.4263 19.1437 7.1363L17.8737 12.5663C17.8237 12.7663 17.8037 12.9363 17.8037 13.1263C17.8037 13.6963 18.1737 13.9463 18.5937 13.9463ZM25.0037 13.9463C25.5437 13.9463 25.8837 13.5863 25.8837 13.0463V6.9863C25.8837 6.4363 25.5437 6.0863 25.0037 6.0863C24.4737 6.0863 24.1437 6.4363 24.1437 6.9863V13.0463C24.1437 13.5863 24.4737 13.9463 25.0037 13.9463ZM27.9737 13.9363C28.4937 13.9363 28.8337 13.5863 28.8337 13.0463V11.0463H29.3837L30.1337 13.2163C30.2837 13.6763 30.5437 13.9363 30.9937 13.9363C31.4837 13.9363 31.8237 13.6163 31.8237 13.1663C31.8237 13.0063 31.7737 12.7963 31.7037 12.5963L30.9837 10.6763C31.6337 10.2663 31.8837 9.4163 31.8837 8.6563C31.8837 7.2063 31.1437 6.2063 29.4537 6.2063H27.9737C27.4237 6.2063 27.1137 6.5363 27.1137 7.1063V13.0463C27.1137 13.5863 27.4437 13.9363 27.9737 13.9363ZM28.8337 9.8463V7.5063H29.3037C29.8637 7.5063 30.1337 8.1063 30.1337 8.6863C30.1337 9.2663 29.8637 9.8463 29.3037 9.8463ZM19.8337 11.0363L20.4137 8.0363H20.4637L21.0637 11.0363ZM10.2837 20.0163C8.8837 20.0163 7.8037 18.9363 7.8037 17.5363C7.8037 16.1463 8.8837 15.0663 10.2837 15.0663C11.6737 15.0663 12.7537 16.1463 12.7537 17.5363C12.7537 18.9363 11.6737 20.0163 10.2837 20.0163ZM39.1437 20.0163C37.7437 20.0163 36.6637 18.9363 36.6637 17.5363C36.6637 16.1463 37.7437 15.0663 39.1437 15.0663C40.5337 15.0663 41.6137 16.1463 41.6137 17.5363C41.6137 18.9363 40.5337 20.0163 39.1437 20.0163Z" /></svg>