<svg viewBox="0 0 48.712890625 21.998046875" xmlns="http://www.w3.org/2000/svg"><path d="M4.3437 19.1853H5.2137C5.1237 18.7553 5.0737 18.3353 5.0737 17.8953C5.0737 14.7153 7.5737 12.2053 10.7737 12.2053C13.9737 12.2053 16.4737 14.7153 16.4737 17.8953C16.4737 18.3353 16.4237 18.7553 16.3237 19.1853H32.3637C32.2837 18.7553 32.2237 18.3353 32.2237 17.8953C32.2237 14.7153 34.7437 12.2053 37.9237 12.2053C41.1237 12.2053 43.6437 14.7153 43.6437 17.8953C43.6437 18.3353 43.5837 18.7553 43.4937 19.1853H44.3637C47.3637 19.1853 48.7137 17.7553 48.7137 14.5853V10.8053C48.7137 8.2553 47.4837 6.6753 44.8837 5.8253L42.7137 5.0953C39.9537 2.7453 36.1437 -0.0047 31.0237 -0.0047H28.9437C23.3637 -0.0047 21.0137 0.5653 17.6637 2.6653L12.1237 6.1353L6.0737 6.8753C2.2837 7.3453 0.0037 9.6953 0.0037 12.9153V14.6653C0.0037 17.7853 1.3837 19.1853 4.3437 19.1853ZM18.0737 13.7553C17.6337 13.7553 17.2537 13.4953 17.2537 12.9053C17.2537 12.7153 17.2837 12.5553 17.3537 12.3153L18.6437 6.7353C18.8037 6.0053 19.2737 5.6553 20.0037 5.6553C20.7437 5.6553 21.2237 5.9853 21.3837 6.7353L22.7137 12.3153C22.7537 12.5353 22.7937 12.7053 22.7937 12.9053C22.7937 13.3853 22.4537 13.7553 21.9337 13.7553C21.4537 13.7553 21.1737 13.4853 21.0537 12.9453L20.8637 12.0553H19.1537L18.9737 12.9153C18.8637 13.4653 18.6337 13.7553 18.0737 13.7553ZM24.6937 13.7553C24.1437 13.7553 23.8037 13.3953 23.8037 12.8253V6.5853C23.8037 6.0153 24.1437 5.6553 24.6937 5.6553C25.2637 5.6553 25.6037 6.0153 25.6037 6.5853V12.8253C25.6037 13.3953 25.2637 13.7553 24.6937 13.7553ZM27.7637 13.7553C27.2037 13.7553 26.8637 13.3853 26.8637 12.8253V6.7153C26.8637 6.1253 27.1937 5.7653 27.7637 5.7653H29.2837C31.0337 5.7653 31.8137 6.8053 31.8137 8.2953C31.8137 9.1053 31.5437 9.9653 30.8737 10.4053L31.6137 12.3453C31.6737 12.5653 31.7437 12.7953 31.7437 12.9653C31.7437 13.4253 31.4037 13.7553 30.8737 13.7553C30.4037 13.7553 30.1437 13.4653 29.9937 13.0053L29.2337 10.7753H28.6537V12.8253C28.6537 13.3953 28.3137 13.7553 27.7637 13.7553ZM28.6537 9.5453L29.1337 9.5253C29.7237 9.5253 29.9937 8.9453 29.9937 8.3253C29.9937 7.7353 29.7137 7.1353 29.1337 7.1353H28.6537ZM19.3637 10.7453H20.6337L20.0337 7.6653H19.9437ZM10.7737 21.9953C13.0837 21.9953 14.8937 20.1953 14.8937 17.8953C14.8937 15.5953 13.0837 13.7953 10.7737 13.7953C8.4737 13.7953 6.6737 15.5953 6.6737 17.8953C6.6737 20.1953 8.4737 21.9953 10.7737 21.9953ZM37.9237 21.9953C40.2337 21.9953 42.0437 20.1953 42.0437 17.8953C42.0437 15.5953 40.2337 13.7953 37.9237 13.7953C35.6337 13.7953 33.8237 15.5953 33.8237 17.8953C33.8237 20.1953 35.6337 21.9953 37.9237 21.9953Z" /></svg>