<svg viewBox="0 0 28.1640625 24.1171875" xmlns="http://www.w3.org/2000/svg"><path d="M0.0037 7.8597H7.0537C7.2737 7.2497 7.8737 6.8497 8.5837 6.8497H19.5537C20.2637 6.8497 20.8537 7.2497 21.0637 7.8597H28.1237V7.4197C28.1237 2.4297 25.1537 -0.0003 19.8337 -0.0003H8.2837C2.9637 -0.0003 0.0037 2.4297 0.0037 7.4197ZM8.2837 24.1197H19.8837C25.4537 24.1197 28.1637 21.4197 28.1637 15.8597V9.1097H21.0937C20.8637 9.7197 20.2937 10.1197 19.5637 10.1197H8.6137C7.9037 10.1197 7.3037 9.7197 7.0837 9.1097H0.0037V15.8597C0.0037 21.4197 2.7037 24.1197 8.2837 24.1197ZM14.0837 15.3297C13.3937 15.3497 12.8237 14.7697 12.8237 14.0997C12.8237 13.4097 13.3937 12.8397 14.0837 12.8397C14.7637 12.8397 15.3437 13.4097 15.3437 14.0997C15.3437 14.7397 14.7637 15.3097 14.0837 15.3297Z" /></svg>