<svg viewBox="0 0 56.259765625 23.84375" xmlns="http://www.w3.org/2000/svg"><path d="M20.9427 23.843H35.3127C40.9027 23.843 43.6127 21.163 43.6127 15.603V8.243C43.6127 2.683 40.9027 0.003 35.3127 0.003H20.9427C15.3527 0.003 12.6427 2.683 12.6427 8.243V15.603C12.6427 21.163 15.3527 23.843 20.9427 23.843ZM50.9827 21.273C51.4227 21.783 52.1827 21.783 52.7227 21.203C54.9927 18.733 56.2627 15.463 56.2627 11.923C56.2627 8.383 54.9927 5.103 52.7227 2.643C52.1827 2.063 51.4227 2.053 50.9827 2.573C50.5427 3.063 50.6827 3.703 51.1727 4.263C53.0027 6.303 54.0327 8.983 54.0327 11.923C54.0327 14.863 53.0027 17.543 51.1727 19.583C50.6827 20.143 50.5427 20.783 50.9827 21.273ZM5.2727 21.273C5.7127 20.783 5.5827 20.143 5.0827 19.583C3.2527 17.543 2.2327 14.863 2.2327 11.923C2.2327 8.983 3.2527 6.303 5.0827 4.263C5.5827 3.703 5.7127 3.063 5.2727 2.573C4.8427 2.053 4.0727 2.063 3.5527 2.643C1.2827 5.103 0.0027 8.383 0.0027 11.923C0.0027 15.463 1.2827 18.733 3.5527 21.203C4.0727 21.783 4.8427 21.783 5.2727 21.273ZM33.6027 6.853H22.6527C21.9727 6.853 21.3927 7.223 21.1527 7.793H14.8627C15.0027 3.933 16.9027 2.203 20.9427 2.203H35.3127C39.3727 2.203 41.2627 3.933 41.4027 7.793H35.1227C34.8727 7.223 34.3127 6.853 33.6027 6.853ZM9.1027 17.373C9.5427 16.883 9.3627 16.273 8.9327 15.683C8.1027 14.653 7.7127 13.343 7.7127 11.923C7.7127 10.503 8.1027 9.173 8.9327 8.163C9.3627 7.573 9.5427 6.963 9.1027 6.463C8.6527 5.943 7.8327 5.943 7.3527 6.563C6.1627 8.043 5.4827 9.913 5.4827 11.923C5.4827 13.933 6.1627 15.803 7.3527 17.283C7.8327 17.893 8.6527 17.883 9.1027 17.373ZM47.1527 17.373C47.6027 17.883 48.4227 17.893 48.9027 17.283C50.0927 15.803 50.7927 13.933 50.7927 11.923C50.7927 9.913 50.0927 8.043 48.9027 6.563C48.4227 5.943 47.6027 5.943 47.1527 6.463C46.7127 6.963 46.8927 7.573 47.3327 8.163C48.1527 9.173 48.5627 10.503 48.5627 11.923C48.5627 13.343 48.1527 14.653 47.3327 15.683C46.8927 16.273 46.7127 16.883 47.1527 17.373ZM20.9427 21.643C16.7327 21.643 14.8427 19.773 14.8427 15.603V9.173H21.1527C21.3927 9.753 21.9727 10.113 22.6527 10.113H33.6027C34.3127 10.113 34.8727 9.753 35.1227 9.173H41.4127V15.603C41.4127 19.773 39.5227 21.643 35.3127 21.643ZM28.1327 14.783C28.8627 14.763 29.4527 14.163 29.4527 13.483C29.4527 12.753 28.8627 12.153 28.1327 12.153C27.4027 12.153 26.8127 12.753 26.8127 13.483C26.8127 14.193 27.4027 14.793 28.1327 14.783Z" /></svg>