<svg viewBox="0 0 27.890625 27.890625" xmlns="http://www.w3.org/2000/svg"><path d="M13.9427 27.8864C21.6427 27.8864 27.8927 21.6464 27.8927 13.9464C27.8927 6.2464 21.6427 -0.0036 13.9427 -0.0036C6.2527 -0.0036 0.0027 6.2464 0.0027 13.9464C0.0027 21.6464 6.2527 27.8864 13.9427 27.8864ZM13.9427 25.5664C7.5227 25.5664 2.3227 20.3664 2.3227 13.9464C2.3227 7.5164 7.5227 2.3264 13.9427 2.3264C20.3727 2.3264 25.5627 7.5164 25.5627 13.9464C25.5627 20.3664 20.3727 25.5664 13.9427 25.5664ZM13.9427 6.9464C10.1027 6.9464 6.9727 10.1064 6.9727 13.9464C6.9727 15.8064 7.6827 17.5664 9.0127 18.8664L9.7527 18.0464C8.6827 16.9364 8.0827 15.4664 8.0827 13.9464C8.0827 10.7164 10.7327 8.0564 13.9427 8.0564C17.1727 8.0564 19.8427 10.7164 19.8427 13.9464C19.8427 15.4664 19.2227 16.9364 18.1427 18.0464L18.8827 18.8664C20.2027 17.5664 20.9427 15.8064 20.9427 13.9464C20.9427 10.1064 17.7827 6.9464 13.9427 6.9464ZM13.9427 8.8864C11.1727 8.8864 8.9127 11.1664 8.9127 13.9464C8.9127 15.2464 9.3927 16.4564 10.2927 17.4164L11.0327 16.5664C10.3727 15.8464 10.0327 14.9164 10.0327 13.9464C10.0327 11.7864 11.8027 10.0064 13.9427 10.0064C16.0927 10.0064 17.8727 11.7864 17.8727 13.9464C17.8727 14.9164 17.5127 15.8564 16.8427 16.5564L17.5927 17.4164C18.5127 16.4464 18.9927 15.2464 18.9927 13.9464C18.9927 11.1664 16.7227 8.8864 13.9427 8.8864ZM13.9427 10.8264C12.2527 10.8264 10.8427 12.2464 10.8427 13.9464C10.8427 14.7064 11.1127 15.3964 11.5927 15.9564L12.3627 15.0964C12.1027 14.7564 11.9627 14.3464 11.9627 13.9464C11.9627 12.8564 12.8527 11.9464 13.9427 11.9464C15.0427 11.9464 15.9427 12.8564 15.9427 13.9464C15.9427 14.3464 15.7927 14.7564 15.5327 15.0764L16.2927 15.9364C16.7727 15.3964 17.0627 14.6964 17.0627 13.9464C17.0627 12.2464 15.6427 10.8264 13.9427 10.8264ZM9.9527 20.8064H17.9327C18.3927 20.8064 18.5927 20.3164 18.2927 19.9864L14.3527 15.5264C14.1627 15.2964 13.7627 15.2964 13.5527 15.5264L9.5927 19.9864C9.2927 20.3164 9.5327 20.8064 9.9527 20.8064Z" /></svg>