<svg viewBox="0 0 18.361328125 31.513671875" xmlns="http://www.w3.org/2000/svg"><path d="M0.0037 27.2764C0.0037 30.1064 1.4337 31.5164 4.2937 31.5164H14.0837C16.9237 31.5164 18.3637 30.1064 18.3637 27.2764V6.7264C18.3637 5.6564 18.1337 4.9664 17.4837 4.1864L15.3637 1.5964C14.4937 0.5364 13.5937 -0.0036 12.4837 -0.0036H5.8837C4.7737 -0.0036 3.8837 0.5364 2.9937 1.5964L0.8737 4.1864C0.2337 4.9664 0.0037 5.6564 0.0037 6.7264ZM2.8737 4.9464L4.5937 2.8464C5.2137 2.1164 5.5337 1.7264 6.4537 1.7264H11.9037C12.8337 1.7264 13.1637 2.1164 13.7637 2.8464L15.4937 4.9464C15.7737 5.2864 15.7237 5.9464 14.9837 5.9464H3.3737C2.6437 5.9464 2.5937 5.2864 2.8737 4.9464ZM2.2037 27.1664V7.8764C2.5737 8.0764 2.9637 8.1464 3.4437 8.1464H14.9137C15.4037 8.1464 15.8037 8.0764 16.1637 7.8764V27.1664C16.1637 28.5864 15.4037 29.3164 14.0437 29.3164H4.3237C2.9537 29.3164 2.2037 28.5864 2.2037 27.1664ZM13.2437 27.5764C13.8937 27.5764 14.4237 27.0464 14.4237 26.3764C14.4237 25.7264 13.8937 25.1964 13.2437 25.1964C12.5737 25.1964 12.0537 25.7264 12.0537 26.3764C12.0537 27.0464 12.5737 27.5764 13.2437 27.5764Z" /></svg>