<svg viewBox="0 0 30.953125 23.84375" xmlns="http://www.w3.org/2000/svg"><path d="M8.2837 23.843H22.6637C28.2637 23.843 30.9537 21.163 30.9537 15.603V8.243C30.9537 2.683 28.2637 0.003 22.6637 0.003H8.2837C2.7037 0.003 0.0037 2.683 0.0037 8.243V15.603C0.0037 21.163 2.7037 23.843 8.2837 23.843ZM20.9637 6.853H10.0037C9.3237 6.853 8.7537 7.223 8.5037 7.793H2.2137C2.3337 3.933 4.2337 2.203 8.2837 2.203H22.6637C26.7137 2.203 28.6137 3.933 28.7537 7.793H22.4637C22.2137 7.223 21.6537 6.853 20.9637 6.853ZM8.2837 21.643C4.0837 21.643 2.2037 19.773 2.2037 15.603V9.173H8.5037C8.7537 9.753 9.3237 10.113 10.0037 10.113H20.9637C21.6537 10.113 22.2137 9.753 22.4637 9.173H28.7537V15.603C28.7537 19.773 26.8837 21.643 22.6637 21.643ZM15.4737 14.783C16.2037 14.763 16.8037 14.163 16.8037 13.483C16.8037 12.753 16.2037 12.153 15.4737 12.153C14.7537 12.153 14.1637 12.753 14.1637 13.483C14.1637 14.193 14.7537 14.793 15.4737 14.783Z" /></svg>