<svg viewBox="0 0 27.890625 27.890625" xmlns="http://www.w3.org/2000/svg"><path d="M13.9427 27.8864C21.6427 27.8864 27.8927 21.6464 27.8927 13.9464C27.8927 6.2464 21.6427 -0.0036 13.9427 -0.0036C6.2527 -0.0036 0.0027 6.2464 0.0027 13.9464C0.0027 21.6464 6.2527 27.8864 13.9427 27.8864ZM13.9427 25.5664C7.5227 25.5664 2.3227 20.3664 2.3227 13.9464C2.3227 7.5164 7.5227 2.3264 13.9427 2.3264C20.3727 2.3264 25.5627 7.5164 25.5627 13.9464C25.5627 20.3664 20.3727 25.5664 13.9427 25.5664ZM19.7727 8.1864H8.0627C6.9327 8.1864 6.1527 8.9864 6.1527 10.1064V16.5264C6.1527 17.6464 6.9327 18.4264 8.0627 18.4264H9.5127L10.7427 17.0464H8.2327C7.8627 17.0464 7.6027 16.7864 7.6027 16.4064V10.2264C7.6027 9.8264 7.8627 9.5664 8.2327 9.5664H19.6227C20.0027 9.5664 20.2627 9.8264 20.2627 10.2264V16.4064C20.2627 16.7864 20.0027 17.0464 19.6227 17.0464H17.1027L18.3227 18.4264H19.7727C20.9027 18.4264 21.7127 17.6464 21.7127 16.5264V10.1064C21.7127 8.9864 20.9027 8.1864 19.7727 8.1864ZM17.9127 20.8664C18.3627 20.8664 18.5627 20.3664 18.2627 20.0464L14.3327 15.5864C14.1327 15.3564 13.7427 15.3564 13.5227 15.5864L9.5727 20.0464C9.2727 20.3664 9.5027 20.8664 9.9227 20.8664Z" /></svg>