<svg viewBox="0 0 36.462890625 23.994140625" xmlns="http://www.w3.org/2000/svg"><path d="M12.0027 23.995C18.6227 23.995 23.9927 18.635 23.9927 12.005C23.9927 5.375 18.6227 -0.005 12.0027 -0.005C5.3727 -0.005 0.0027 5.375 0.0027 12.005C0.0027 18.635 5.3727 23.995 12.0027 23.995ZM12.0027 21.795C6.5927 21.795 2.2027 17.415 2.2027 12.005C2.2027 6.585 6.5927 2.205 12.0027 2.205C17.4027 2.205 21.7927 6.585 21.7927 12.005C21.7927 17.415 17.4027 21.795 12.0027 21.795ZM31.1727 21.355C31.6227 21.865 32.3727 21.865 32.9127 21.285C35.1827 18.815 36.4627 15.545 36.4627 12.005C36.4627 8.465 35.1827 5.185 32.9127 2.725C32.3727 2.145 31.6227 2.135 31.1727 2.655C30.7327 3.145 30.8727 3.785 31.3727 4.345C33.2127 6.385 34.2327 9.065 34.2327 12.005C34.2327 14.945 33.2127 17.625 31.3727 19.665C30.8727 20.225 30.7327 20.865 31.1727 21.355ZM13.3127 7.665C13.6327 7.285 13.8627 6.765 13.8627 6.225C13.8627 6.155 13.8627 6.085 13.8527 6.025C13.3127 6.045 12.7027 6.375 12.3327 6.805C12.0427 7.155 11.7627 7.665 11.7627 8.215C11.7627 8.285 11.7727 8.365 11.7727 8.395C11.8127 8.395 11.8527 8.405 11.9127 8.405C12.3827 8.405 12.9727 8.095 13.3127 7.665ZM27.3427 17.455C27.7927 17.965 28.6127 17.975 29.1027 17.365C30.2927 15.885 30.9827 14.015 30.9827 12.005C30.9827 9.995 30.2927 8.125 29.1027 6.645C28.6127 6.025 27.7927 6.025 27.3427 6.545C26.9027 7.045 27.0927 7.655 27.5227 8.245C28.3427 9.255 28.7527 10.585 28.7527 12.005C28.7527 13.425 28.3427 14.735 27.5227 15.765C27.0927 16.355 26.9027 16.965 27.3427 17.455ZM11.9927 15.945C12.7927 15.945 12.9727 16.355 13.6727 16.355C14.3827 16.355 14.8427 15.705 15.3027 15.085C15.7927 14.355 15.9927 13.645 15.9927 13.615C15.9527 13.605 14.6127 13.055 14.6127 11.525C14.6127 10.185 15.6727 9.595 15.7227 9.545C15.0427 8.545 13.9727 8.535 13.6727 8.535C12.9027 8.535 12.2727 8.995 11.8527 8.995C11.4327 8.995 10.8727 8.545 10.1827 8.545C8.8827 8.545 7.5927 9.625 7.5927 11.625C7.5927 12.875 8.0827 14.205 8.6727 15.055C9.1727 15.775 9.6227 16.365 10.2827 16.365C10.9127 16.365 11.1927 15.945 11.9927 15.945Z" /></svg>