<svg viewBox="0 0 49.041015625 28.341796875" xmlns="http://www.w3.org/2000/svg"><path d="M13.2927 5.7099C13.4927 5.7099 13.6427 5.6699 13.8327 5.5199L18.4127 2.0799C18.6327 1.8999 18.7627 1.6999 18.7627 1.4599C18.7627 1.1799 18.6227 0.9399 18.3927 0.7199C17.8727 0.2499 16.9427 -0.0001 16.1327 -0.0001C13.9827 -0.0001 12.2727 1.7099 12.2727 3.8299C12.2727 4.3499 12.3727 4.8499 12.5127 5.1699C12.6627 5.4999 12.9427 5.7099 13.2927 5.7099ZM35.7527 5.7099C36.0827 5.7099 36.3627 5.4799 36.5327 5.1699C36.6827 4.8699 36.7527 4.3499 36.7527 3.8299C36.7527 1.7099 35.0527 -0.0001 32.9127 -0.0001C32.0927 -0.0001 31.1727 0.2499 30.6527 0.7199C30.4027 0.9399 30.2727 1.1799 30.2727 1.4599C30.2727 1.6999 30.3927 1.8999 30.6227 2.0799L35.2027 5.5199C35.3927 5.6699 35.5427 5.7099 35.7527 5.7099ZM13.0827 27.9599C13.4927 28.3699 14.1627 28.3699 14.5927 27.9499L16.7527 25.7899C18.9227 27.3999 21.6127 28.3399 24.5127 28.3399C27.4227 28.3399 30.1027 27.3999 32.2827 25.7899L34.4427 27.9499C34.8627 28.3699 35.5327 28.3699 35.9527 27.9599C36.3527 27.5599 36.3627 26.8899 35.9427 26.4799L33.8627 24.4199C36.1627 22.0499 37.5827 18.8299 37.5827 15.2699C37.5827 8.0499 31.7427 2.1999 24.5127 2.1999C17.2927 2.1999 11.4427 8.0499 11.4427 15.2699C11.4427 18.8299 12.8627 22.0499 15.1727 24.4199L13.0927 26.4799C12.6727 26.8899 12.6827 27.5599 13.0827 27.9599ZM43.7527 24.6499C44.2027 25.1599 44.9527 25.1599 45.4827 24.5799C47.7527 22.1099 49.0427 18.8399 49.0427 15.2999C49.0427 11.7599 47.7527 8.4799 45.4827 6.0199C44.9527 5.4399 44.2027 5.4299 43.7527 5.9499C43.3227 6.4399 43.4527 7.0799 43.9527 7.6399C45.7827 9.6799 46.8127 12.3599 46.8127 15.2999C46.8127 18.2399 45.7827 20.9199 43.9527 22.9599C43.4527 23.5199 43.3227 24.1599 43.7527 24.6499ZM5.2727 24.6499C5.7127 24.1599 5.5827 23.5199 5.0827 22.9599C3.2527 20.9199 2.2327 18.2399 2.2327 15.2999C2.2327 12.3599 3.2527 9.6799 5.0827 7.6399C5.5827 7.0799 5.7127 6.4399 5.2727 5.9499C4.8427 5.4299 4.0727 5.4399 3.5527 6.0199C1.2827 8.4799 0.0027 11.7599 0.0027 15.2999C0.0027 18.8399 1.2827 22.1099 3.5527 24.5799C4.0727 25.1599 4.8427 25.1599 5.2727 24.6499ZM18.2927 16.7899C17.7627 16.7899 17.3527 16.3699 17.3527 15.8299C17.3527 15.2999 17.7627 14.8899 18.2927 14.8899H23.5527V7.5499C23.5527 7.0099 23.9827 6.5999 24.5027 6.5999C25.0427 6.5999 25.4527 7.0099 25.4527 7.5499V15.8299C25.4527 16.3699 25.0427 16.7899 24.5027 16.7899ZM9.1027 20.7499C9.5427 20.2599 9.3627 19.6499 8.9327 19.0599C8.1027 18.0299 7.7127 16.7199 7.7127 15.2999C7.7127 13.8799 8.1027 12.5499 8.9327 11.5399C9.3627 10.9499 9.5427 10.3399 9.1027 9.8399C8.6527 9.3199 7.8327 9.3199 7.3527 9.9399C6.1627 11.4199 5.4827 13.2899 5.4827 15.2999C5.4827 17.3099 6.1627 19.1799 7.3527 20.6599C7.8327 21.2699 8.6527 21.2599 9.1027 20.7499ZM39.9227 20.7499C40.3727 21.2599 41.1927 21.2699 41.6827 20.6599C42.8727 19.1799 43.5627 17.3099 43.5627 15.2999C43.5627 13.2899 42.8727 11.4199 41.6827 9.9399C41.1927 9.3199 40.3727 9.3199 39.9227 9.8399C39.4827 10.3399 39.6727 10.9499 40.1027 11.5399C40.9227 12.5499 41.3327 13.8799 41.3327 15.2999C41.3327 16.7199 40.9227 18.0299 40.1027 19.0599C39.6727 19.6499 39.4827 20.2599 39.9227 20.7499Z" /></svg>