<svg viewBox="0 0 30.7890625 31.69140625" xmlns="http://www.w3.org/2000/svg"><path d="M29.7937 31.6905C30.3237 31.6905 30.7937 31.2805 30.7937 30.7505V0.9405C30.7937 0.4105 30.3237 0.0005 29.7937 0.0005C29.2537 0.0005 28.7837 0.4105 28.7837 0.9405V30.7505C28.7837 31.2805 29.2537 31.6905 29.7937 31.6905ZM23.1337 14.5305C25.1537 14.5305 26.2637 13.4505 26.2637 11.4605V6.7005C26.2637 4.7005 25.1537 3.6205 23.1337 3.6205H12.8137C10.7737 3.6205 9.6837 4.7005 9.6837 6.7005V11.4605C9.6837 13.4505 10.7737 14.5305 12.8137 14.5305ZM23.1337 28.0805C25.1537 28.0805 26.2637 27.0005 26.2637 25.0105V20.2505C26.2637 18.2705 25.1537 17.1705 23.1337 17.1705H3.1337C1.0937 17.1705 0.0037 18.2705 0.0037 20.2505V25.0105C0.0037 27.0005 1.0937 28.0805 3.1337 28.0805Z" /></svg>