<svg viewBox="0 0 31.69140625 30.830078125" xmlns="http://www.w3.org/2000/svg"><path d="M6.7037 26.2656H11.4537C13.4537 26.2656 14.5337 25.1656 14.5337 23.1356V3.1356C14.5337 1.0956 13.4537 -0.0044 11.4537 -0.0044H6.7037C4.7037 -0.0044 3.6237 1.0956 3.6237 3.1356V23.1356C3.6237 25.1656 4.7037 26.2656 6.7037 26.2656ZM6.8237 24.1956C6.0837 24.1956 5.6837 23.8056 5.6837 23.0956V3.1756C5.6837 2.4656 6.0837 2.0656 6.8237 2.0656H11.3337C12.0737 2.0656 12.4737 2.4656 12.4737 3.1756V23.0956C12.4737 23.8056 12.0737 24.1956 11.3337 24.1956ZM20.2637 26.2656H25.0237C27.0037 26.2656 28.0937 25.1656 28.0937 23.1356V12.8056C28.0937 10.7856 27.0037 9.6756 25.0237 9.6756H20.2637C18.2637 9.6756 17.1737 10.7856 17.1737 12.8056V23.1356C17.1737 25.1656 18.2637 26.2656 20.2637 26.2656ZM20.3737 24.1956C19.6437 24.1956 19.2337 23.8056 19.2337 23.0956V12.8556C19.2337 12.1356 19.6437 11.7456 20.3737 11.7456H24.8937C25.6237 11.7456 26.0337 12.1356 26.0337 12.8556V23.0956C26.0337 23.8056 25.6237 24.1956 24.8937 24.1956ZM0.9537 30.8256H30.7437C31.2837 30.8256 31.6937 30.3656 31.6937 29.8356C31.6937 29.2956 31.2837 28.8156 30.7437 28.8156H0.9537C0.4137 28.8156 0.0037 29.2956 0.0037 29.8356C0.0037 30.3656 0.4137 30.8256 0.9537 30.8256Z" /></svg>