<svg viewBox="0 0 31.69140625 30.830078125" xmlns="http://www.w3.org/2000/svg"><path d="M0.9537 2.0056H30.7437C31.2837 2.0056 31.6937 1.5456 31.6937 1.0156C31.6937 0.4756 31.2837 -0.0044 30.7437 -0.0044H0.9537C0.4137 -0.0044 0.0037 0.4756 0.0037 1.0156C0.0037 1.5456 0.4137 2.0056 0.9537 2.0056ZM6.7037 30.8256H11.4537C13.4537 30.8256 14.5337 29.7356 14.5337 27.6956V7.6956C14.5337 5.6756 13.4537 4.5656 11.4537 4.5656H6.7037C4.7037 4.5656 3.6237 5.6756 3.6237 7.6956V27.6956C3.6237 29.7356 4.7037 30.8256 6.7037 30.8256ZM20.2637 21.1456H25.0237C27.0037 21.1456 28.0937 20.0556 28.0937 18.0156V7.6956C28.0937 5.6756 27.0037 4.5656 25.0237 4.5656H20.2637C18.2637 4.5656 17.1737 5.6756 17.1737 7.6956V18.0156C17.1737 20.0556 18.2637 21.1456 20.2637 21.1456Z" /></svg>