<svg viewBox="0 0 27.63941770074279 27.63502329992038" xmlns="http://www.w3.org/2000/svg"><path d="M27.0163 3.0574C26.5563 1.5574 26.0863 1.0874 24.5863 0.6274C22.0763 -0.1126 19.2763 -0.1926 16.4663 0.3774L27.2663 11.1774C27.8363 8.3574 27.7563 5.5574 27.0163 3.0574ZM21.6063 21.5974C23.8563 19.3674 25.4863 16.7274 26.4663 13.9974L13.6463 1.1674C10.9063 2.1574 8.2863 3.7774 6.0263 6.0374C3.7763 8.2674 2.1563 10.9074 1.1663 13.6374L13.9863 26.4674C16.7363 25.4774 19.3563 23.8474 21.6063 21.5974ZM11.9063 19.4074C11.6663 19.6374 11.2763 19.6374 11.0363 19.3974L8.2363 16.5874C7.9963 16.3574 7.9963 15.9774 8.2363 15.7274C8.4763 15.4674 8.8763 15.4674 9.1063 15.7174L10.0763 16.6874L11.0863 15.6574L10.1163 14.7074C9.8863 14.4774 9.8863 14.0774 10.1163 13.8274C10.3663 13.5874 10.7563 13.5874 11.0063 13.8174L11.9663 14.7974L12.9763 13.7774L12.0063 12.8174C11.7763 12.5874 11.7563 12.1874 12.0063 11.9474C12.2463 11.6974 12.6563 11.6974 12.8763 11.9274L13.8463 12.8974L14.8763 11.8874L13.8963 10.9274C13.6563 10.6974 13.6463 10.3074 13.8963 10.0574C14.1363 9.8074 14.5363 9.8074 14.7663 10.0474L15.7363 11.0174L16.7663 9.9974L15.7963 9.0274C15.5463 8.7974 15.5363 8.4174 15.7963 8.1674C16.0263 7.9374 16.4163 7.9374 16.6563 8.1574L19.4663 10.9774C19.7063 11.2174 19.7063 11.5974 19.4663 11.8474C19.2263 12.0974 18.8263 12.0774 18.5763 11.8374L17.6263 10.8774L16.6163 11.8874L17.5863 12.8574C17.8263 13.1074 17.8263 13.4874 17.5863 13.7474C17.3263 13.9774 16.9363 13.9674 16.7063 13.7374L15.7363 12.7774L14.7263 13.7774L15.6963 14.7474C15.9463 14.9774 15.9463 15.3774 15.6963 15.6374C15.4363 15.8774 15.0563 15.8674 14.8163 15.6174L13.8463 14.6674L12.8363 15.6574L13.7963 16.6374C14.0463 16.8674 14.0463 17.2774 13.7963 17.5174C13.5463 17.7574 13.1663 17.7574 12.9363 17.5074L11.9663 16.5474L10.9563 17.5574L11.9063 18.5174C12.1563 18.7674 12.1563 19.1574 11.9063 19.4074ZM3.0663 27.0074C5.5663 27.7474 8.3663 27.8274 11.1863 27.2674L0.3663 16.4574C-0.1937 19.2674 -0.1237 22.0774 0.6263 24.5774C1.0763 26.0774 1.5563 26.5574 3.0663 27.0074Z" /></svg>