<svg viewBox="0 0 30.556640625 22.91748046875" xmlns="http://www.w3.org/2000/svg"><path d="M0.0037 21.8269C0.0037 22.4269 0.5037 22.9169 1.0937 22.9169H29.4537C30.0537 22.9169 30.5537 22.4269 30.5537 21.8269C30.5537 21.2269 30.0537 20.7169 29.4537 20.7169H18.1037C17.8737 16.8469 16.3237 13.3069 13.9037 10.5669L22.6037 1.8769C23.0237 1.4569 23.0237 0.7369 22.6037 0.3169C22.1737 -0.1031 21.4737 -0.1031 21.0437 0.3169L0.3137 21.0469C0.1337 21.2369 0.0037 21.5269 0.0037 21.8269ZM3.7637 20.7169L12.3437 12.1269C14.3737 14.4669 15.6637 17.4469 15.9037 20.7169Z" /></svg>