<svg viewBox="0 0 29.025390625 28.7724609375" xmlns="http://www.w3.org/2000/svg"><path d="M26.4527 26.3281C26.8627 26.7381 27.5327 26.7381 27.9427 26.3281C28.3427 25.8981 28.3527 25.2481 27.9427 24.8381L3.4227 0.3081C3.0127 -0.1019 2.3227 -0.1019 1.9127 0.3081C1.5127 0.7081 1.5127 1.3981 1.9127 1.7981ZM26.6227 20.9481C28.1627 18.6981 29.0227 15.9881 29.0227 13.0881C29.0227 9.5481 27.7427 6.2681 25.4727 3.8081C24.9527 3.2381 24.1827 3.2381 23.7527 3.7381C23.3127 4.2281 23.4427 4.8781 23.9427 5.4381C25.7727 7.4681 26.7927 10.1481 26.7927 13.0881C26.7927 15.3981 26.1527 17.5181 24.9927 19.3281ZM5.2727 22.4381C5.7127 21.9481 5.5827 21.3081 5.0827 20.7481C3.2527 18.7081 2.2327 16.0281 2.2327 13.0881C2.2327 10.6681 2.9227 8.4581 4.1827 6.6081L2.5827 5.0081C0.9127 7.2781 0.0027 10.0781 0.0027 13.0881C0.0027 16.6281 1.2827 19.9081 3.5527 22.3781C4.0727 22.9481 4.8427 22.9481 5.2727 22.4381ZM22.4327 16.7581C22.9827 15.6481 23.2727 14.4081 23.2727 13.0881C23.2727 11.0781 22.5827 9.2081 21.3927 7.7281C20.9227 7.0981 20.0927 7.1181 19.6427 7.6381C19.2127 8.1281 19.4027 8.7281 19.8227 9.3281C20.6027 10.3881 21.0427 11.6681 21.0427 13.0881C21.0427 13.7781 20.9327 14.4281 20.6827 15.0181ZM9.3827 18.5481C9.8127 18.0581 9.6427 17.4381 9.2027 16.8481C8.3827 15.8381 7.9827 14.5081 7.9827 13.0881C7.9827 12.2981 8.1527 11.5481 8.4327 10.8481L6.7227 9.1381C6.0827 10.3281 5.7527 11.6781 5.7527 13.0881C5.7527 15.0981 6.4427 16.9781 7.6327 18.4481C8.1027 19.0781 8.9327 19.0681 9.3827 18.5481ZM14.5227 28.7681C15.1627 28.7681 15.5627 28.3081 15.5627 27.5981V17.9881L13.4627 15.8981V27.5981C13.4627 28.2981 13.8927 28.7681 14.5227 28.7681Z" /></svg>