<svg viewBox="0 0 32.23828125 25.169921875" xmlns="http://www.w3.org/2000/svg"><path d="M4.2937 25.1692H27.9437C30.8137 25.1692 32.2337 23.7592 32.2337 20.9492V4.2392C32.2337 1.4192 30.8137 -0.0008 27.9437 -0.0008H4.2937C1.4337 -0.0008 0.0037 1.4192 0.0037 4.2392V20.9492C0.0037 23.7592 1.4337 25.1692 4.2937 25.1692ZM5.6837 10.6192L9.0737 8.5592L5.6837 6.5192C4.5637 5.8392 5.5137 4.1692 6.7437 4.9392L10.7837 7.4692C11.5537 7.9592 11.5937 9.1592 10.7837 9.6692L6.7437 12.2092C5.5137 12.9792 4.5837 11.2792 5.6837 10.6192ZM11.6337 12.1792C11.6337 11.6792 12.0337 11.2692 12.5337 11.2692H17.9137C18.4337 11.2692 18.8237 11.6792 18.8237 12.1792C18.8237 12.6892 18.4337 13.0992 17.9137 13.0992H12.5337C12.0337 13.0992 11.6337 12.6892 11.6337 12.1792Z" /></svg>