<svg viewBox="0 0 12.619140625 30.201171875" xmlns="http://www.w3.org/2000/svg"><path d="M3.5637 30.2059H9.0637C11.2337 30.2059 12.6237 28.8659 12.6237 26.7959V3.4059C12.6237 1.3359 11.2337 -0.0041 9.0637 -0.0041H3.5637C1.3837 -0.0041 0.0037 1.3359 0.0037 3.4059V26.7959C0.0037 28.8659 1.3837 30.2059 3.5637 30.2059ZM3.8037 28.2059C2.7037 28.2059 2.0237 27.5459 2.0237 26.5059V3.7059C2.0237 2.6559 2.7037 1.9959 3.8037 1.9959H8.8137C9.9137 1.9959 10.5937 2.6559 10.5937 3.7059V26.5059C10.5937 27.5459 9.9137 28.2059 8.8137 28.2059ZM6.3137 11.6759C8.4337 11.6759 10.1537 9.9759 10.1537 7.8459C10.1537 5.7259 8.4337 4.0359 6.3137 4.0359C4.1937 4.0359 2.4737 5.7259 2.4737 7.8459C2.4737 9.9759 4.1937 11.6759 6.3137 11.6759ZM4.4137 15.4459C5.1837 15.4459 5.8137 14.8159 5.8137 14.0559C5.8137 13.3059 5.1937 12.6759 4.4137 12.6759C3.6337 12.6759 3.0337 13.3059 3.0337 14.0559C3.0337 14.8159 3.6337 15.4459 4.4137 15.4459ZM8.2337 15.4459C8.9837 15.4459 9.5937 14.8159 9.5937 14.0559C9.5937 13.3059 8.9837 12.6759 8.2337 12.6759C7.4537 12.6759 6.8037 13.3059 6.8037 14.0559C6.8037 14.8159 7.4537 15.4459 8.2337 15.4459ZM4.4137 19.1159C5.1937 19.1159 5.8137 18.4959 5.8137 17.7159C5.8137 16.9559 5.1937 16.3259 4.4137 16.3259C3.6337 16.3259 3.0337 16.9659 3.0337 17.7159C3.0337 18.4959 3.6337 19.1159 4.4137 19.1159ZM8.2037 22.7759C8.9237 22.7759 9.5337 22.1859 9.5337 21.4959V17.6459C9.5337 16.9259 8.9237 16.3259 8.2037 16.3259C7.4737 16.3259 6.9137 16.9159 6.9137 17.6459V21.4959C6.9137 22.1859 7.4937 22.7759 8.2037 22.7759ZM4.4137 22.7759C5.1937 22.7759 5.8137 22.1659 5.8137 21.3959C5.8137 20.6159 5.1837 19.9859 4.4137 19.9859C3.6337 19.9859 3.0337 20.6159 3.0337 21.3959C3.0337 22.1659 3.6337 22.7759 4.4137 22.7759Z" /></svg>