<svg viewBox="0 0 24.647217633706102 21.883175996820736" xmlns="http://www.w3.org/2000/svg"><path d="M5.1268 5.1191C6.2068 4.0191 6.8668 2.6691 7.0268 1.1691C7.1268 0.5091 6.6268 -0.0409 5.9768 -0.0009C5.4168 0.0391 5.1368 0.4091 5.0068 1.1691C4.8968 2.0691 4.4568 2.9591 3.7168 3.7091C2.9968 4.4291 2.1168 4.8691 1.1468 4.9891C0.4368 5.1191 0.0568 5.4191 -0.0032 5.9491C-0.0132 6.6091 0.5468 7.0991 1.1868 7.0191C2.6568 6.8691 4.0568 6.1791 5.1268 5.1191ZM8.1868 8.1691C10.0868 6.2791 11.1568 3.8391 11.2768 1.2191C11.3368 0.5591 10.8568 0.0691 10.2268 0.1091C9.6668 0.1691 9.3068 0.5891 9.2468 1.2691C9.1568 3.3091 8.2968 5.2291 6.7768 6.7591C5.2468 8.2891 3.3068 9.1391 1.2968 9.2191C0.6068 9.2691 0.1768 9.6591 0.1268 10.2191C0.0968 10.8191 0.6068 11.2791 1.2568 11.2691C3.8568 11.1491 6.2868 10.0691 8.1868 8.1691ZM4.6668 18.1191L6.6968 20.1691L7.5068 19.7491L24.1468 3.1891C24.8168 2.5191 24.8168 1.4391 24.1468 0.7791C23.4868 0.1091 22.4068 0.1091 21.7568 0.7691L5.0968 17.3391ZM2.9268 21.2591C2.7168 21.6591 3.1468 22.0091 3.4768 21.8391L5.5268 20.7691L4.0368 19.2791Z" /></svg>