<svg viewBox="0 0 27.890625 27.890625" xmlns="http://www.w3.org/2000/svg"><path d="M13.9427 27.8864C21.6427 27.8864 27.8927 21.6464 27.8927 13.9464C27.8927 6.2464 21.6427 -0.0036 13.9427 -0.0036C6.2527 -0.0036 0.0027 6.2464 0.0027 13.9464C0.0027 21.6464 6.2527 27.8864 13.9427 27.8864ZM13.9427 25.5664C7.5227 25.5664 2.3227 20.3664 2.3227 13.9464C2.3227 7.5164 7.5227 2.3264 13.9427 2.3264C20.3727 2.3264 25.5627 7.5164 25.5627 13.9464C25.5627 20.3664 20.3727 25.5664 13.9427 25.5664ZM8.0227 20.2164H19.8427C21.2727 20.2164 21.9727 19.5364 21.9727 18.1264V9.7864C21.9727 8.3764 21.2727 7.6964 19.8427 7.6964H8.0227C6.6027 7.6964 5.8927 8.3764 5.8927 9.7864V18.1264C5.8927 19.5364 6.6027 20.2164 8.0227 20.2164ZM8.7127 12.9364L10.3627 11.9464L8.7127 10.9464C8.1227 10.5964 8.6127 9.7064 9.2527 10.1064L11.2827 11.3764C11.6927 11.6164 11.6927 12.2464 11.2827 12.5064L9.2527 13.7764C8.6127 14.1764 8.1227 13.2864 8.7127 12.9364ZM11.6627 13.7564C11.6627 13.4764 11.8627 13.2664 12.1227 13.2664H14.8027C15.0927 13.2664 15.3027 13.4764 15.3027 13.7564C15.3027 14.0164 15.0927 14.2364 14.8027 14.2364H12.1227C11.8627 14.2364 11.6627 14.0164 11.6627 13.7564Z" /></svg>