<svg viewBox="0 0 38.724775548852264 24.595703125" xmlns="http://www.w3.org/2000/svg"><path d="M5.6698 24.5921H33.0498C37.0698 24.5921 39.1698 22.0121 38.6498 17.7221L37.1698 5.4021C36.7598 1.9121 34.7498 0.0021 31.5598 0.0021H7.1598C3.9698 0.0021 1.9698 1.9121 1.5498 5.4021L0.0798 17.7221C-0.4402 22.0121 1.6498 24.5921 5.6698 24.5921ZM10.0898 16.2821C9.5498 16.2821 9.1298 16.0321 9.1298 15.6821V11.7421C7.6398 11.3021 6.5298 9.9421 6.5298 8.3121C6.5298 6.3721 8.1198 4.7721 10.0898 4.7721C12.0298 4.7721 13.6298 6.3621 13.6298 8.3121C13.6298 9.9221 12.5198 11.3021 11.0398 11.7021V15.6821C11.0398 16.0321 10.6098 16.2821 10.0898 16.2821ZM18.3198 11.4121C17.1798 11.4121 16.2698 10.5021 16.2698 9.3621C16.2698 8.2121 17.1798 7.3021 18.3198 7.3021C19.4698 7.3021 20.3798 8.2121 20.3798 9.3621C20.3798 10.5021 19.4698 11.4121 18.3198 11.4121ZM24.2798 11.4121C23.1398 11.4121 22.2298 10.5021 22.2298 9.3621C22.2298 8.2121 23.1398 7.3021 24.2798 7.3021C25.4098 7.3021 26.3398 8.2121 26.3398 9.3621C26.3398 10.5021 25.4098 11.4121 24.2798 11.4121ZM30.2198 11.4121C29.0898 11.4121 28.1598 10.5021 28.1598 9.3621C28.1598 8.2121 29.0898 7.3021 30.2198 7.3021C31.3498 7.3021 32.2798 8.2121 32.2798 9.3621C32.2798 10.5021 31.3498 11.4121 30.2198 11.4121ZM10.0898 19.2821C7.2198 19.2821 5.1898 17.7421 5.1898 15.5721C5.1898 14.0421 6.1798 12.8421 7.7598 12.2521V14.0921C7.2298 14.4521 6.9098 14.9521 6.9098 15.5721C6.9098 16.8621 8.2098 17.7621 10.0898 17.7621C11.9498 17.7621 13.2298 16.8621 13.2298 15.5721C13.2298 14.9721 12.9298 14.4621 12.4098 14.1121V12.2521C13.9698 12.8521 14.9498 14.0421 14.9498 15.5721C14.9498 17.7421 12.9398 19.2821 10.0898 19.2821ZM20.3098 17.3521C19.1598 17.3521 18.2498 16.4321 18.2498 15.3021C18.2498 14.1621 19.1598 13.2321 20.3098 13.2321C21.4298 13.2321 22.3498 14.1621 22.3498 15.3021C22.3498 16.4321 21.4298 17.3521 20.3098 17.3521ZM26.2598 17.3521C25.1298 17.3521 24.2098 16.4321 24.2098 15.3021C24.2098 14.1621 25.1298 13.2321 26.2598 13.2321C27.3898 13.2321 28.3198 14.1621 28.3198 15.3021C28.3198 16.4321 27.3898 17.3521 26.2598 17.3521ZM32.2098 17.3521C31.0698 17.3521 30.1598 16.4321 30.1598 15.3021C30.1598 14.1621 31.0698 13.2321 32.2098 13.2321C33.3598 13.2321 34.2698 14.1621 34.2698 15.3021C34.2698 16.4321 33.3598 17.3521 32.2098 17.3521Z" /></svg>