<svg viewBox="0 0 26.022722634536596 28.765625" xmlns="http://www.w3.org/2000/svg"><path d="M7.9137 23.3639C8.7737 23.3639 9.4837 22.9539 9.4837 22.3839V11.5239C11.9637 10.8439 13.7637 8.5539 13.7637 5.8539C13.7637 2.6239 11.1337 0.0039 7.9137 0.0039C4.6737 0.0039 2.0237 2.6539 2.0237 5.8539C2.0237 8.5839 3.8737 10.8739 6.3737 11.5439V22.3839C6.3737 22.9539 7.0537 23.3639 7.9137 23.3639ZM15.3037 12.1239C15.3037 12.7239 15.7737 13.2039 16.3837 13.2039H20.1637V15.0439C20.1637 15.9839 21.0837 16.3239 21.8337 15.7539L25.6437 12.8739C26.1537 12.4939 26.1437 11.7939 25.6437 11.4339L21.8337 8.5439C21.1137 7.9939 20.1637 8.2839 20.1637 9.2539V11.0739H16.3837C15.7737 11.0739 15.3037 11.5439 15.3037 12.1239ZM7.9737 28.7639C12.4437 28.7639 15.9137 25.8239 15.9137 22.0539C15.9137 19.2139 13.9637 16.8439 11.0737 15.8639V18.2639C12.6837 19.0439 13.7137 20.4139 13.7137 22.0539C13.7137 24.5939 11.2237 26.5639 7.9737 26.5639C4.7137 26.5639 2.2037 24.5939 2.2037 22.0539C2.2037 20.4439 3.2137 19.0839 4.7737 18.3239V15.8839C1.9237 16.8939 0.0037 19.2239 0.0037 22.0539C0.0037 25.8239 3.4737 28.7639 7.9737 28.7639Z" /></svg>