<svg viewBox="0 0 32.23828125 25.169921875" xmlns="http://www.w3.org/2000/svg"><path d="M4.2937 25.1692H27.9437C30.8137 25.1692 32.2337 23.7592 32.2337 20.9492V4.2392C32.2337 1.4192 30.8137 -0.0008 27.9437 -0.0008H4.2937C1.4337 -0.0008 0.0037 1.4192 0.0037 4.2392V20.9492C0.0037 23.7592 1.4337 25.1692 4.2937 25.1692ZM4.3237 22.9692C2.9537 22.9692 2.2037 22.2392 2.2037 20.8192V4.3592C2.2037 2.9392 2.9537 2.1992 4.3237 2.1992H27.9137C29.2737 2.1992 30.0337 2.9392 30.0337 4.3592V20.8192C30.0337 22.2392 29.2737 22.9692 27.9137 22.9692ZM12.9637 19.7192C13.5637 19.7192 13.9737 19.2492 13.9737 18.6192V12.3592C13.9737 11.5492 13.5237 11.2392 12.8237 11.2392H6.5337C5.8937 11.2392 5.4837 11.6392 5.4837 12.2392C5.4837 12.8392 5.9037 13.2392 6.5637 13.2392H8.8637L10.8837 13.0192L8.7537 14.9992L4.6237 19.1292C4.4337 19.3192 4.2937 19.5892 4.2937 19.8692C4.2937 20.4792 4.6937 20.8792 5.3037 20.8792C5.6337 20.8792 5.8837 20.7492 6.0737 20.5592L10.2037 16.4492L12.1637 14.3392L11.9637 16.4592V18.6492C11.9637 19.2892 12.3637 19.7192 12.9637 19.7192Z" /></svg>