<svg viewBox="0 0 22.99609375 29.3125" xmlns="http://www.w3.org/2000/svg"><path d="M4.2337 29.3173H18.7537C21.5837 29.3173 22.9937 27.8773 22.9937 25.0373V12.6173H13.0937C11.3437 12.6173 10.5137 11.7873 10.5137 10.0373V-0.0027H4.2337C1.4237 -0.0027 0.0037 1.4473 0.0037 4.2973V25.0373C0.0037 27.8873 1.4037 29.3173 4.2337 29.3173ZM13.1437 10.7473H22.8337C22.7537 10.1873 22.3537 9.6373 21.6937 8.9673L14.1637 1.2973C13.5237 0.6473 12.9637 0.2473 12.3837 0.1473V10.0073C12.3837 10.4973 12.6337 10.7473 13.1437 10.7473ZM11.4937 25.7573C10.9537 25.7573 10.5037 25.3173 10.5037 24.7873V19.9473L10.5837 17.7873L9.4337 18.9673L8.2437 20.1773C8.0537 20.3673 7.7837 20.4773 7.5337 20.4773C6.9837 20.4773 6.6037 20.0973 6.6037 19.5773C6.6037 19.2773 6.7237 19.0473 6.9337 18.8673L10.7637 15.3373C11.0337 15.0973 11.2537 14.9973 11.4937 14.9973C11.7437 14.9973 11.9637 15.0973 12.2337 15.3373L16.0637 18.8673C16.2737 19.0473 16.3937 19.2773 16.3937 19.5773C16.3937 20.0973 15.9937 20.4773 15.4637 20.4773C15.2037 20.4773 14.9437 20.3673 14.7537 20.1773L13.5637 18.9673L12.4137 17.7873L12.5137 19.9473V24.7873C12.5137 25.3173 12.0437 25.7573 11.4937 25.7573Z" /></svg>