<svg viewBox="0 0 27.166015625 25.1015625" xmlns="http://www.w3.org/2000/svg"><path d="M13.5737 25.1031C13.8637 25.1031 14.2737 24.9131 14.5737 24.7331C22.2837 19.8131 27.1637 14.0831 27.1637 8.2531C27.1637 3.4131 23.8437 0.0031 19.5337 0.0031C16.8737 0.0031 14.8237 1.4731 13.5737 3.7331C12.3637 1.4931 10.2937 0.0031 7.6137 0.0031C3.3237 0.0031 0.0037 3.4131 0.0037 8.2531C0.0037 14.0831 4.8837 19.8131 12.5937 24.7331C12.8837 24.9131 13.3037 25.1031 13.5737 25.1031ZM8.6037 13.4231C8.6037 11.0631 10.3737 9.0231 12.5937 8.6931V7.5431C12.5937 7.0131 13.1637 6.8231 13.5637 7.1631L15.8437 9.1031C16.2237 9.4331 16.2237 9.8831 15.8437 10.2231L13.5637 12.1931C13.1637 12.5331 12.5937 12.3331 12.5937 11.8131V10.4631C11.2937 10.8431 10.3337 12.0331 10.3337 13.4531C10.3337 15.1931 11.7337 16.5831 13.4637 16.5831C15.2037 16.5831 16.5937 15.1931 16.5937 13.4531C16.5937 12.9731 16.9937 12.5731 17.4737 12.5731C17.9337 12.5731 18.3337 12.9731 18.3337 13.4531C18.3337 16.1631 16.1737 18.3431 13.4637 18.3431C10.7637 18.3431 8.6037 16.1631 8.6037 13.4231Z" /></svg>