<svg viewBox="0 0 25.2109375 25.2109375" xmlns="http://www.w3.org/2000/svg"><path d="M23.6137 1.6166C22.2137 0.2166 20.2437 -0.0034 17.9137 -0.0034H7.2637C4.9637 -0.0034 2.9937 0.2166 1.6037 1.6166C0.2037 3.0066 0.0037 4.9666 0.0037 7.2566V17.9066C0.0037 20.2466 0.2037 22.2066 1.6037 23.5966C2.9937 24.9966 4.9637 25.2066 7.2837 25.2066H17.9137C20.2437 25.2066 22.2137 24.9966 23.6137 23.5966C25.0037 22.2066 25.2137 20.2466 25.2137 17.9066V7.2866C25.2137 4.9466 25.0037 3.0066 23.6137 1.6166ZM23.0137 6.9166V18.2966C23.0137 19.6966 22.8337 21.1666 21.9937 21.9866C21.1737 22.8166 19.7037 23.0066 18.2937 23.0066H6.9137C5.5137 23.0066 4.0337 22.8166 3.2037 21.9866C2.3837 21.1666 2.2037 19.6966 2.2037 18.2966V6.9566C2.2037 5.5066 2.3837 4.0466 3.2037 3.2166C4.0337 2.3966 5.5237 2.1966 6.9637 2.1966H18.2937C19.7037 2.1966 21.1737 2.3966 21.9937 3.2266C22.8337 4.0466 23.0137 5.5066 23.0137 6.9166ZM12.6237 19.4966C12.9037 19.4966 13.1437 19.4166 13.4137 19.1366L17.9237 14.7966C18.1337 14.5866 18.2337 14.3666 18.2337 14.0666C18.2337 13.5066 17.8137 13.1066 17.2537 13.1066C16.9837 13.1066 16.7037 13.2166 16.5037 13.4366L14.4237 15.6566L13.6337 16.5066L13.7137 14.4466V6.7666C13.7137 6.1966 13.2037 5.7166 12.6237 5.7166C12.0337 5.7166 11.5437 6.1966 11.5437 6.7666V14.4466L11.6237 16.5066L10.8237 15.6566L8.7337 13.4366C8.5437 13.2166 8.2437 13.1066 7.9837 13.1066C7.4137 13.1066 7.0037 13.5066 7.0037 14.0666C7.0037 14.3666 7.1237 14.5866 7.3237 14.7966L11.8437 19.1366C12.1137 19.4166 12.3437 19.4966 12.6237 19.4966Z" /></svg>