<svg viewBox="0 0 27.890625 27.890625" xmlns="http://www.w3.org/2000/svg"><path d="M13.9427 27.8864C21.6427 27.8864 27.8927 21.6464 27.8927 13.9464C27.8927 6.2464 21.6427 -0.0036 13.9427 -0.0036C6.2527 -0.0036 0.0027 6.2464 0.0027 13.9464C0.0027 21.6464 6.2527 27.8864 13.9427 27.8864ZM13.9427 25.5664C7.5227 25.5664 2.3227 20.3664 2.3227 13.9464C2.3227 7.5164 7.5227 2.3264 13.9427 2.3264C20.3727 2.3264 25.5627 7.5164 25.5627 13.9464C25.5627 20.3664 20.3727 25.5664 13.9427 25.5664ZM7.0427 13.9364C7.0427 14.2064 7.1227 14.4464 7.4127 14.7264L11.7427 19.2364C11.9527 19.4364 12.1827 19.5464 12.4727 19.5464C13.0327 19.5464 13.4227 19.1364 13.4227 18.5664C13.4227 18.3064 13.3127 18.0064 13.0927 17.8164L10.8827 15.7364L10.0327 14.9264L12.0827 15.0164H19.7727C20.3427 15.0164 20.8327 14.5164 20.8327 13.9364C20.8327 13.3464 20.3427 12.8364 19.7727 12.8364H12.0827L10.0327 12.9364L10.8827 12.1264L13.0927 10.0464C13.3127 9.8564 13.4227 9.5664 13.4227 9.3064C13.4227 8.7364 13.0327 8.3164 12.4727 8.3164C12.1827 8.3164 11.9527 8.4264 11.7427 8.6264L7.4127 13.1364C7.1227 13.4164 7.0427 13.6464 7.0427 13.9364Z" /></svg>