<svg viewBox="0 0 37.337890625 28.587890625" xmlns="http://www.w3.org/2000/svg"><path d="M18.6591 28.5845C19.1991 28.5845 19.6691 28.1645 19.6691 27.6345V0.9445C19.6691 0.4145 19.1991 0.0045 18.6591 0.0045C18.1291 0.0045 17.6591 0.4145 17.6591 0.9445V27.6345C17.6591 28.1645 18.1291 28.5845 18.6591 28.5845ZM34.5791 22.2445C35.8791 23.0345 37.3391 22.4745 37.3391 20.8045V7.7645C37.3391 6.1345 35.8991 5.5345 34.5791 6.3445L24.2091 12.6845C22.8491 13.5245 22.8691 15.0645 24.2091 15.9045ZM13.1091 15.9045C14.4491 15.0645 14.4891 13.5245 13.1091 12.6845L2.7491 6.3445C1.4391 5.5345 -0.0009 6.1345 -0.0009 7.7645V20.8045C-0.0009 22.4745 1.4591 23.0345 2.7491 22.2445ZM11.6491 14.5745L2.4791 20.2645C2.3091 20.3545 1.9791 20.3745 1.9791 20.0245V8.5545C1.9791 8.1845 2.3391 8.2345 2.4791 8.3245L11.6391 14.0045C11.9791 14.2145 11.8491 14.4545 11.6491 14.5745ZM34.8491 20.2645L25.6891 14.5745C25.4691 14.4545 25.3591 14.2145 25.6891 14.0045L34.8491 8.3245C34.9991 8.2345 35.3391 8.1845 35.3391 8.5545V20.0245C35.3391 20.3745 35.0291 20.3545 34.8491 20.2645Z" /></svg>