<svg viewBox="0 0 26.646484375 27.2890625" xmlns="http://www.w3.org/2000/svg"><path d="M24.2037 12.2673C24.9237 12.2673 25.4837 11.7273 25.4837 11.0073C25.4737 10.2673 24.9237 9.7573 24.2037 9.7573H23.0537L18.2637 10.0373L22.0537 6.4373L26.2737 2.2273C26.5237 1.9873 26.6437 1.6373 26.6437 1.2873C26.6437 0.5173 26.0737 -0.0027 25.3037 -0.0027C24.9637 -0.0027 24.6637 0.1273 24.4337 0.3673L20.2337 4.6073L16.6237 8.3973L16.8937 3.6273V2.4773C16.8937 1.7473 16.3837 1.2073 15.6637 1.2073C14.9337 1.2073 14.3937 1.7673 14.3937 2.4773V10.0473C14.3937 11.4473 15.2037 12.2673 16.5937 12.2673ZM11.0737 26.1373C11.8137 26.1373 12.3437 25.5973 12.3437 24.8673V17.1473C12.3437 15.7473 11.5437 14.9473 10.1437 14.9473H2.3937C1.6637 14.9473 1.1037 15.4673 1.1037 16.1973C1.1237 16.9273 1.6637 17.4273 2.3937 17.4273H3.6937L8.4737 17.1573L4.6937 20.7573L0.3837 25.0573C0.1337 25.3073 0.0037 25.6473 0.0037 26.0073C0.0037 26.7673 0.5737 27.2873 1.3537 27.2873C1.6837 27.2873 1.9937 27.1673 2.2237 26.9173L6.5037 22.5973L10.1137 18.8173L9.8437 23.5673V24.8673C9.8437 25.6073 10.3637 26.1373 11.0737 26.1373Z" /></svg>