<svg viewBox="0 0 26.05859375 26.0859375" xmlns="http://www.w3.org/2000/svg"><path d="M1.2537 11.0641C1.9837 11.0641 2.5037 10.5141 2.5037 9.7841V8.6441L2.2237 3.8741L5.8237 7.6541L10.0337 11.8941C10.2637 12.1441 10.5637 12.2541 10.8937 12.2541C11.6737 12.2541 12.2537 11.7441 12.2537 10.9741C12.2537 10.6141 12.1237 10.2841 11.8837 10.0341L7.6537 5.8241L3.8737 2.2241L8.6537 2.5041H9.7937C10.5137 2.5041 11.0737 1.9941 11.0737 1.2541C11.0737 0.5241 10.5237 0.0041 9.7937 0.0041H2.2037C0.8037 0.0041 0.0037 0.8041 0.0037 2.2041V9.7841C0.0037 10.5041 0.5337 11.0641 1.2537 11.0641ZM16.2537 26.0841H23.8437C25.2337 26.0841 26.0537 25.2841 26.0537 23.8841V16.2941C26.0537 15.5841 25.5237 15.0241 24.7837 15.0241C24.0737 15.0241 23.5437 15.5741 23.5437 16.2941V17.4441L23.8337 22.2141L20.2237 18.4341L16.0237 14.1941C15.7937 13.9441 15.4737 13.8341 15.1437 13.8341C14.3837 13.8341 13.7937 14.3441 13.7937 15.1041C13.7937 15.4741 13.9337 15.8041 14.1737 16.0541L18.3937 20.2641L22.1937 23.8541L17.4037 23.5841H16.2537C15.5337 23.5841 14.9737 24.0941 14.9737 24.8241C14.9737 25.5641 15.5337 26.0841 16.2537 26.0841Z" /></svg>