<svg viewBox="0 0 25.498046875 32.56640625" xmlns="http://www.w3.org/2000/svg"><path d="M12.7537 0.0004C12.0437 0.0004 11.5237 0.4904 11.5237 1.2004V6.9904L11.6237 9.8204L7.9937 5.9304C7.7637 5.6904 7.4537 5.5904 7.1237 5.5904C6.4437 5.5904 5.9337 6.1104 5.9337 6.7804C5.9337 7.1204 6.0737 7.4204 6.3437 7.7104L11.8437 13.2204C12.1037 13.4904 12.4137 13.6404 12.7537 13.6404C13.0837 13.6404 13.4137 13.4904 13.6737 13.2204L19.1637 7.7104C19.4437 7.4204 19.5737 7.1204 19.5737 6.7804C19.5737 6.1104 19.0737 5.5904 18.3937 5.5904C18.0637 5.5904 17.7437 5.6904 17.5137 5.9304L13.8937 9.8204L13.9737 6.9904V1.2004C13.9737 0.4904 13.4637 0.0004 12.7537 0.0004ZM0.0037 16.2804C0.0037 16.9904 0.4937 17.5004 1.2037 17.5004H24.3037C25.0037 17.5004 25.4937 16.9904 25.4937 16.2804C25.4937 15.5704 25.0037 15.0504 24.3037 15.0504H1.2037C0.4937 15.0504 0.0037 15.5704 0.0037 16.2804ZM12.7537 32.5704C13.4637 32.5704 13.9737 32.0704 13.9737 31.3504V25.5704L13.8937 22.7504L17.5137 26.6204C17.7437 26.8604 18.0637 26.9604 18.3937 26.9604C19.0737 26.9604 19.5737 26.4404 19.5737 25.7704C19.5737 25.4304 19.4437 25.1304 19.1637 24.8404L13.6737 19.3304C13.4137 19.0604 13.0837 18.9104 12.7537 18.9104C12.4137 18.9104 12.1037 19.0604 11.8437 19.3304L6.3437 24.8404C6.0737 25.1304 5.9337 25.4304 5.9337 25.7704C5.9337 26.4404 6.4437 26.9604 7.1237 26.9604C7.4537 26.9604 7.7637 26.8604 7.9937 26.6204L11.6237 22.7504L11.5237 25.5704V31.3504C11.5237 32.0704 12.0437 32.5704 12.7537 32.5704Z" /></svg>