<svg viewBox="0 0 34.37109375 23.76171875" xmlns="http://www.w3.org/2000/svg"><path d="M27.0127 23.7594C31.1427 23.7594 34.3727 20.7394 34.3727 16.9794C34.3727 14.1094 32.7127 11.6194 30.0527 10.4994C30.0827 4.3994 25.6927 -0.0006 20.0927 -0.0006C16.3927 -0.0006 13.7527 1.9794 12.1127 4.3794C8.7527 3.3894 5.0827 5.9494 5.0127 9.7794C1.9327 10.2694 0.0027 13.0294 0.0027 16.3694C0.0027 20.3894 3.5127 23.7594 8.1927 23.7594ZM27.0127 21.5594H8.1927C4.7427 21.5594 2.2027 19.1494 2.2027 16.3694C2.2027 13.6294 3.8527 11.4594 6.7527 11.4594C6.9427 11.4594 7.0127 11.3594 7.0127 11.1794C7.0127 6.9694 10.0527 5.7294 12.8527 6.6494C13.0127 6.6994 13.1127 6.6594 13.1927 6.5094C14.5227 4.1394 16.5527 2.1994 20.0927 2.1994C24.5827 2.1994 27.6827 5.7594 27.9227 9.8194C27.9627 10.4494 27.9227 11.1794 27.8627 11.8294C27.8527 11.9994 27.9227 12.0994 28.0827 12.1394C30.5727 12.6894 32.1727 14.5094 32.1727 16.9794C32.1727 19.5194 29.9327 21.5594 27.0127 21.5594ZM13.9427 9.9894C14.3127 10.3794 14.8027 10.3194 15.2327 10.0094C16.0127 9.3794 16.7927 9.0694 17.8327 9.0694C19.9627 9.0694 21.7227 10.4994 22.2027 12.3994H21.0227C20.5227 12.3994 20.3827 12.8794 20.6827 13.2794L22.4227 15.6994C22.7127 16.0894 23.2327 16.1194 23.5327 15.6994L25.2527 13.2794C25.5227 12.8794 25.4027 12.3994 24.9127 12.3994H23.8427C23.3127 9.4194 20.8927 7.3594 17.8327 7.3594C16.4927 7.3594 15.1327 7.8294 14.2027 8.6094C13.7027 9.0194 13.5627 9.5794 13.9427 9.9894ZM10.3627 13.5094C10.0927 13.8994 10.2127 14.3794 10.7027 14.3794H11.8427C12.3727 17.3494 14.7927 19.4094 17.8427 19.4094C19.1927 19.4094 20.5327 18.9494 21.4827 18.1694C21.9827 17.7594 22.1227 17.1994 21.7427 16.7794C21.3527 16.3894 20.8727 16.4494 20.4227 16.7594C19.6627 17.3794 18.8927 17.7094 17.8427 17.7094C15.7227 17.7094 13.9427 16.2794 13.4627 14.3794H14.5927C15.0927 14.3794 15.2327 13.8894 14.9327 13.5094L13.1927 11.0694C12.9027 10.6794 12.3827 10.6494 12.0827 11.0694Z" /></svg>