<svg viewBox="0 0 25.169921875 25.169921875" xmlns="http://www.w3.org/2000/svg"><path d="M4.2937 25.1692H20.8737C23.7437 25.1692 25.1737 23.7592 25.1737 20.9492V4.2392C25.1737 1.4192 23.7437 -0.0008 20.8737 -0.0008H4.2937C1.4337 -0.0008 0.0037 1.4192 0.0037 4.2392V20.9492C0.0037 23.7592 1.4337 25.1692 4.2937 25.1692ZM4.4737 13.7792L4.5237 8.8492C4.5237 8.5992 4.6337 8.3292 4.8037 8.1592C5.1637 7.7792 5.7037 7.7792 6.0837 8.1592C6.2637 8.3392 6.3737 8.5692 6.3537 8.8192L6.3337 10.9092L6.2937 11.6592L6.7237 11.1792L13.1837 4.7292C13.5637 4.3592 14.1237 4.3592 14.4737 4.7292C14.8637 5.1092 14.8437 5.6592 14.4737 6.0292L8.0437 12.4792L7.5337 12.9292L8.3237 12.9092L10.4037 12.8792C10.6537 12.8792 10.8737 12.9592 11.0637 13.1492C11.4337 13.5192 11.4337 14.0392 11.0437 14.4092C10.8937 14.5692 10.6537 14.6792 10.3937 14.6992L5.4237 14.7492C4.9237 14.7692 4.4737 14.3192 4.4737 13.7792ZM20.7237 11.3892L20.6737 16.3492C20.6537 16.6092 20.5737 16.8692 20.4137 17.0192C20.0437 17.3892 19.4937 17.3892 19.1237 17.0192C18.9537 16.8292 18.8637 16.6092 18.8637 16.3692L18.8937 14.2692L18.9537 13.4892L18.4837 13.9992L12.0137 20.4392C11.6437 20.8192 11.1037 20.8092 10.7337 20.4392C10.3537 20.0592 10.3537 19.5192 10.7337 19.1592L17.1837 12.6892L17.6937 12.2492L16.8937 12.2792L14.7937 12.3192C14.5637 12.3192 14.3437 12.2192 14.1537 12.0492C13.7837 11.6792 13.7837 11.1592 14.1637 10.7592C14.3237 10.6092 14.6037 10.4892 14.8237 10.4892L19.7837 10.4492C20.3037 10.4492 20.7237 10.8392 20.7237 11.3892Z" /></svg>