<svg viewBox="0 0 25.169921875 25.169921875" xmlns="http://www.w3.org/2000/svg"><path d="M4.2937 25.1692H20.8737C23.7437 25.1692 25.1737 23.7592 25.1737 20.9492V4.2392C25.1737 1.4192 23.7437 -0.0008 20.8737 -0.0008H4.2937C1.4337 -0.0008 0.0037 1.4192 0.0037 4.2392V20.9492C0.0037 23.7592 1.4337 25.1692 4.2937 25.1692ZM18.8837 18.8092C18.3437 18.8092 17.9537 18.4292 17.9537 17.8792V7.2892C17.9537 6.7392 18.3437 6.3392 18.8837 6.3392C19.4437 6.3392 19.8537 6.7392 19.8537 7.2892V17.8792C19.8537 18.4292 19.4437 18.8092 18.8837 18.8092ZM4.0837 12.5892C4.0837 12.0592 4.4937 11.6592 5.0437 11.6592H11.4937L14.0837 11.7992L11.2137 9.2592L10.3337 8.4092C10.1337 8.2192 10.0537 7.9692 10.0537 7.7092C10.0537 7.1792 10.4637 6.8092 10.9937 6.8092C11.2337 6.8092 11.4837 6.8792 11.6737 7.0992L16.5437 11.8792C16.7437 12.0892 16.8737 12.3292 16.8737 12.5892C16.8737 12.8692 16.7737 13.0992 16.5437 13.2992L11.6937 18.0492C11.5137 18.2392 11.2137 18.3592 10.9737 18.3592C10.4337 18.3592 10.0537 17.9792 10.0537 17.4492C10.0537 17.1592 10.1337 16.9292 10.3337 16.7592L11.2237 15.9392L14.0937 13.3892L11.4937 13.5592H5.0437C4.4937 13.5592 4.0837 13.1692 4.0837 12.5892Z" /></svg>