<svg viewBox="0 0 33.46875 25.087890625" xmlns="http://www.w3.org/2000/svg"><path d="M20.1137 25.0919C20.7837 25.0919 21.3237 24.8119 21.9837 24.2019L32.7737 14.0119C33.3037 13.5219 33.4737 13.0019 33.4737 12.5519C33.4737 12.0819 33.3037 11.5619 32.7737 11.0719L21.9837 0.9819C21.2637 0.3019 20.8037 0.0019 20.1437 0.0019C19.1837 0.0019 18.5137 0.7619 18.5137 1.6819V6.9819H9.6437C7.2737 6.9819 6.2637 7.9719 6.2637 10.2919V13.1519H3.3737C1.0137 13.1519 0.0037 14.1219 0.0037 16.4519V21.7019C0.0037 24.0219 1.0137 25.0019 3.3737 25.0019H11.6237C13.9837 25.0019 14.9937 24.0219 14.9937 21.7019V18.5819H18.5137V23.4919C18.5137 24.4019 19.1837 25.0919 20.1137 25.0919ZM13.4437 21.8219L7.9137 19.5119C6.5737 18.9519 6.0837 18.3619 6.0137 17.2819C6.0037 17.0119 6.2937 16.9519 6.4137 17.2119C6.8237 18.1119 7.7537 18.5819 9.1237 18.5819H13.6137V21.7419C13.6137 21.8219 13.5237 21.8619 13.4437 21.8219Z" /></svg>