<svg viewBox="0 0 29.4765625 25.07421875" xmlns="http://www.w3.org/2000/svg"><path d="M16.1198 25.0782C16.7898 25.0782 17.3398 24.7982 17.9898 24.1882L28.7798 13.9982C29.2998 13.5082 29.4798 12.9882 29.4798 12.5382C29.4798 12.0682 29.3098 11.5682 28.7798 11.0582L17.9898 0.9682C17.2698 0.2882 16.8198 -0.0018 16.1498 -0.0018C15.1898 -0.0018 14.5098 0.7482 14.5098 1.6682V6.8382H14.1098C4.2798 6.8382 -0.0002 13.1382 -0.0002 23.2382C-0.0002 24.4182 0.6698 25.0782 1.4098 25.0782C1.9798 25.0782 2.6098 24.9382 3.0898 24.0582C5.4698 19.5882 8.8198 18.2482 14.1098 18.2482H14.5098V23.4782C14.5098 24.3882 15.1898 25.0782 16.1198 25.0782ZM16.8998 22.1382C16.7898 22.1382 16.7098 22.0482 16.7098 21.9282V16.6382C16.7098 16.3282 16.5698 16.1882 16.2598 16.1882H14.4198C7.9298 16.1882 3.7898 18.4482 2.1698 21.8782C2.1298 21.9682 2.1098 22.0082 2.0398 22.0082C1.9798 22.0082 1.9398 21.9682 1.9398 21.8582C2.2198 15.4082 5.0298 8.8982 14.4198 8.8982H16.2598C16.5698 8.8982 16.7098 8.7682 16.7098 8.4482V3.0182C16.7098 2.9082 16.7898 2.8282 16.9098 2.8282C16.9898 2.8282 17.0798 2.8882 17.1398 2.9382L26.8798 12.2782C26.9698 12.3682 27.0198 12.4582 27.0198 12.5382C27.0198 12.6182 26.9898 12.6882 26.8798 12.7982L17.1298 22.0082C17.0598 22.0982 16.9798 22.1382 16.8998 22.1382Z" /></svg>