<svg viewBox="0 0 28.587890625 29.91756311856828" xmlns="http://www.w3.org/2000/svg"><path d="M20.8409 12.1783C21.3009 12.3083 21.6609 12.3083 22.0109 12.0883C22.3709 11.8683 22.5609 11.5783 22.6809 11.1183L23.8209 6.5583C23.9809 5.9883 23.6709 5.4383 23.0909 5.3083C22.5309 5.1583 21.9409 5.4683 21.8209 6.0583L21.2309 8.5083L17.5409 1.8983C16.8409 0.6383 15.5709 -0.0017 14.3009 -0.0017C13.0109 -0.0017 11.7609 0.6583 11.0509 1.8983L7.2709 8.6383C6.9209 9.2583 7.1109 9.8483 7.6409 10.1583C8.1909 10.4583 8.8309 10.2683 9.1509 9.7183L12.9209 2.9483C13.2309 2.4083 13.7709 2.1783 14.3009 2.1783C14.8309 2.1783 15.3509 2.4083 15.6509 2.9483L19.4109 9.6683L16.8709 8.9183C16.3109 8.7383 15.7509 9.0683 15.5909 9.6383C15.4309 10.1883 15.7409 10.7483 16.3209 10.9083ZM3.7709 26.3483H11.1009C11.7409 26.3483 12.2209 25.8983 12.2209 25.2783C12.2209 24.6683 11.7409 24.1983 11.1009 24.1983H3.7909C2.8409 24.1983 2.2109 23.4183 2.2109 22.5683C2.2109 22.3283 2.2509 22.0283 2.4109 21.7683L5.9109 15.5083L6.4809 17.9483C6.6009 18.5383 7.1909 18.8583 7.7509 18.6983C8.3309 18.5683 8.6509 18.0183 8.4909 17.4483L7.3409 12.8883C7.2209 12.4383 7.0309 12.1283 6.6709 11.9183C6.3209 11.6983 5.9609 11.6883 5.5009 11.8283L1.0009 13.0983C0.4009 13.2583 0.0909 13.8183 0.2609 14.3683C0.4109 14.9483 0.9709 15.2883 1.5409 15.0983L4.0709 14.3383L0.5009 20.7083C0.1809 21.3183 0.0009 21.9583 0.0009 22.5683C0.0009 24.6883 1.4509 26.3483 3.7709 26.3483ZM18.0909 29.5983C18.5109 30.0383 19.1509 30.0083 19.5509 29.5983C19.9709 29.1983 19.9709 28.5483 19.5409 28.1183L17.6609 26.3483H24.8109C27.1409 26.3483 28.5909 24.6883 28.5909 22.5683C28.5909 21.9583 28.4209 21.3283 28.0809 20.7083L24.4609 14.2483C24.1409 13.6583 23.5009 13.5183 22.9809 13.8383C22.4509 14.1483 22.2709 14.7883 22.5709 15.3383L26.1709 21.7683C26.3209 22.0283 26.3909 22.3283 26.3909 22.5683C26.3909 23.4183 25.7309 24.1983 24.7909 24.1983H17.6609L19.5409 22.4383C19.9709 22.0083 19.9709 21.3583 19.5509 20.9583C19.1509 20.5383 18.5109 20.5183 18.0909 20.9583L14.7209 24.2083C14.3809 24.5383 14.2309 24.8683 14.2309 25.2783C14.2309 25.6883 14.3809 26.0083 14.7209 26.3283Z" /></svg>