<svg viewBox="0 0 31.0078125 28.505859375" xmlns="http://www.w3.org/2000/svg"><path d="M5.4127 28.5072C7.0527 28.5072 11.1427 26.7172 13.4627 25.0472C13.7027 24.8872 13.8927 24.8172 14.0827 24.8172C14.2627 24.8272 14.4327 24.8372 14.6127 24.8372C24.4727 24.8372 31.0127 19.2372 31.0127 12.4272C31.0127 5.5472 24.1127 -0.0028 15.5027 -0.0028C6.8927 -0.0028 0.0027 5.5472 0.0027 12.4272C0.0027 16.8072 2.6927 20.6472 7.0827 22.9972C7.2827 23.1072 7.3527 23.3072 7.2427 23.5172C6.4827 24.7772 5.1127 26.2772 4.5927 26.9572C4.0627 27.6472 4.3627 28.5072 5.4127 28.5072ZM15.5127 19.6772C15.2327 19.6772 14.9827 19.5772 14.6927 19.2872L10.0527 14.8072C9.8327 14.5972 9.7227 14.3672 9.7227 14.0672C9.7227 13.4972 10.1427 13.0872 10.7327 13.0872C11.0027 13.0872 11.3227 13.1772 11.5127 13.4272L13.6627 15.6972L14.4827 16.5672L14.3927 14.4472V6.5472C14.3927 5.9472 14.9027 5.4372 15.5127 5.4372C16.1327 5.4372 16.6527 5.9472 16.6527 6.5472V14.4472L16.5527 16.5572L17.3727 15.6972L19.5227 13.4272C19.7127 13.1772 20.0127 13.0872 20.2927 13.0872C20.8727 13.0872 21.3127 13.4972 21.3127 14.0672C21.3127 14.3672 21.2027 14.5972 20.9827 14.8072L16.3427 19.2872C16.0527 19.5772 15.8227 19.6772 15.5127 19.6772Z" /></svg>