<svg viewBox="0 0 37.1328125 28.587890625" xmlns="http://www.w3.org/2000/svg"><path d="M18.5634 28.5845C19.1034 28.5845 19.5734 28.1645 19.5734 27.6345V0.9445C19.5734 0.4145 19.1034 0.0045 18.5634 0.0045C18.0334 0.0045 17.5634 0.4145 17.5634 0.9445V27.6345C17.5634 28.1645 18.0334 28.5845 18.5634 28.5845ZM35.1934 22.1345C36.0634 22.6445 37.1334 22.1345 37.1334 21.1945V7.4645C37.1334 6.5045 36.0534 5.9645 35.1934 6.4645L23.6234 13.2445C22.8434 13.6945 22.8134 14.9545 23.6234 15.4345ZM1.9534 22.1345L13.5234 15.4345C14.3134 14.9545 14.3034 13.6945 13.5234 13.2445L1.9534 6.4645C1.0934 5.9645 0.0034 6.5045 0.0034 7.4645V21.1945C0.0034 22.1345 1.0834 22.6445 1.9534 22.1345Z" /></svg>