<svg viewBox="0 0 14.761270031035643 26.415785568560732" xmlns="http://www.w3.org/2000/svg"><path d="M4.1155 26.4137C4.8855 26.4137 5.3055 25.9637 5.3055 25.1837V16.6437C6.8655 19.0037 9.6155 20.9237 13.0355 22.0537C13.8055 22.3437 14.4355 21.9437 14.6555 21.4137C14.9055 20.8737 14.7255 20.2137 13.9455 19.8537C8.8755 17.7737 5.3055 14.5437 5.3055 9.5837V6.2537H7.2455C8.2155 6.2537 8.4655 5.5837 7.9455 4.8237L4.8855 0.4637C4.4455 -0.1463 3.7855 -0.1663 3.3355 0.4637L0.2755 4.8137C-0.2545 5.5837 -0.0145 6.2537 0.9755 6.2537H2.9155V25.1837C2.9155 25.9637 3.3355 26.4137 4.1155 26.4137Z" /></svg>