<svg viewBox="0 0 25.2109375 25.2109375" xmlns="http://www.w3.org/2000/svg"><path d="M23.6137 1.6166C22.2137 0.2166 20.2437 -0.0034 17.9137 -0.0034H7.2637C4.9637 -0.0034 2.9937 0.2166 1.6037 1.6166C0.2037 3.0066 0.0037 4.9666 0.0037 7.2566V17.9066C0.0037 20.2466 0.2037 22.2066 1.6037 23.5966C2.9937 24.9966 4.9637 25.2066 7.2837 25.2066H17.9137C20.2437 25.2066 22.2137 24.9966 23.6137 23.5966C25.0037 22.2066 25.2137 20.2466 25.2137 17.9066V7.2866C25.2137 4.9466 25.0037 3.0066 23.6137 1.6166ZM17.0037 16.1066C16.3637 16.1066 15.9537 15.6666 15.9537 14.9966V12.5766L16.1637 10.3766L14.1237 12.5466L8.9737 17.7166C8.7637 17.9266 8.4937 18.0466 8.1437 18.0466C7.5337 18.0466 7.1237 17.6366 7.1237 16.9966C7.1237 16.7166 7.2637 16.4366 7.4637 16.2266L12.6337 11.0566L14.8337 9.0066L12.7437 9.2266H10.2037C9.5137 9.2266 9.0737 8.8166 9.0737 8.2066C9.0737 7.5766 9.5037 7.1666 10.1737 7.1666H16.8537C17.5837 7.1666 18.0337 7.4966 18.0337 8.3266V14.9666C18.0337 15.6266 17.6237 16.1066 17.0037 16.1066Z" /></svg>