<svg viewBox="0 0 36.28515625 25.279296875" xmlns="http://www.w3.org/2000/svg"><path d="M12.0037 25.2819C12.6237 25.2819 12.9837 24.9819 13.1237 24.4319C14.6037 19.8619 16.9537 18.2519 20.8337 18.2519L21.3237 18.2619V23.4919C21.3237 24.4019 21.9937 25.0919 22.9237 25.0919C23.5937 25.0919 24.1437 24.8119 24.8037 24.2019L35.6037 14.0119C36.1237 13.5219 36.2837 13.0019 36.2837 12.5519C36.2837 12.0819 36.1237 11.5619 35.6037 11.0719L24.8037 0.9819C24.0737 0.3019 23.6237 0.0019 22.9537 0.0019C21.9937 0.0019 21.3237 0.7619 21.3237 1.6819V6.8519H20.9337C16.6437 6.8519 12.9037 9.3919 12.0537 14.5019H11.9037C10.9637 8.8419 7.0837 6.8519 3.4037 6.8519H2.6437C0.7537 6.8519 0.0037 7.5619 0.0037 9.6019V16.1319C0.0037 17.6819 0.7337 18.3319 2.5137 18.3319H3.7237C7.4537 18.3319 9.9137 20.8219 10.8937 24.4219C11.0237 24.9819 11.3737 25.2819 12.0037 25.2819Z" /></svg>