<svg viewBox="0 0 55.2890625 22.626953125" xmlns="http://www.w3.org/2000/svg"><path d="M0.0037 11.3214C0.0037 11.8214 0.2237 12.3214 0.6537 12.7314L10.2437 21.7814C10.8837 22.3814 11.3937 22.6314 12.0337 22.6314C12.9437 22.6314 13.6137 21.9414 13.6137 21.0414V16.4214H22.7337C24.7337 16.4214 25.9337 15.2014 25.9337 13.2614V9.3914C25.9337 7.4214 24.7437 6.2514 22.7337 6.2514H13.6137V1.6514C13.6137 0.7414 12.9237 0.0014 12.0137 0.0014C11.4137 0.0014 11.0037 0.2214 10.2437 0.9114L0.6537 9.9014C0.1937 10.3314 0.0037 10.8114 0.0037 11.3214ZM55.2937 11.3214C55.2937 10.8314 55.0937 10.3314 54.6337 9.9014L45.0337 0.9114C44.2837 0.2314 43.8837 0.0114 43.2737 0.0114C42.3737 0.0114 41.6737 0.7414 41.6737 1.6514V6.2514H32.5537C30.5437 6.2514 29.3537 7.4214 29.3537 9.3914V13.2614C29.3537 15.2014 30.5537 16.4214 32.5537 16.4214H41.6737V21.0414C41.6737 21.9414 42.3437 22.6114 43.2537 22.6114C43.9037 22.6114 44.3937 22.3714 45.0337 21.7814L54.6337 12.7314C55.0737 12.3214 55.2937 11.8114 55.2937 11.3214Z" /></svg>