<svg viewBox="0 0 25.19825202442188 24.43396386596083" xmlns="http://www.w3.org/2000/svg"><path d="M3.2002 6.6231L4.4502 4.9831C7.7602 7.0931 11.4102 11.8531 11.4102 15.1331V22.9831C11.4102 23.9331 11.8402 24.4331 12.6002 24.4331C13.3702 24.4331 13.7902 23.9331 13.7902 22.9831V15.1331C13.8002 11.8931 17.3602 7.1931 20.6802 5.0231L21.8402 6.6031C22.4202 7.4031 23.1202 7.2231 23.4002 6.3331L25.1302 1.3031C25.3702 0.5631 24.9702 0.0431 24.2202 0.0531L18.8902 0.1431C17.9702 0.1531 17.5902 0.7531 18.1502 1.5331L19.2602 3.0531C16.0502 5.3031 13.0302 9.3231 12.6202 11.3931H12.5702C12.1602 9.3131 9.1602 5.3031 5.9402 3.0531L7.0202 1.6531C7.6102 0.8931 7.2402 0.2731 6.3302 0.2331L1.0102 0.0031C0.2402 -0.0369 -0.1698 0.4631 0.0602 1.2231L1.6402 6.2931C1.9102 7.1931 2.5902 7.4031 3.2002 6.6231Z" /></svg>