<svg viewBox="0 0 27.890625 27.890625" xmlns="http://www.w3.org/2000/svg"><path d="M13.9427 27.8864C21.6427 27.8864 27.8927 21.6464 27.8927 13.9464C27.8927 6.2464 21.6427 -0.0036 13.9427 -0.0036C6.2527 -0.0036 0.0027 6.2464 0.0027 13.9464C0.0027 21.6464 6.2527 27.8864 13.9427 27.8864ZM13.9427 25.5664C7.5227 25.5664 2.3227 20.3664 2.3227 13.9464C2.3227 7.5164 7.5227 2.3264 13.9427 2.3264C20.3727 2.3264 25.5627 7.5164 25.5627 13.9464C25.5627 20.3664 20.3727 25.5664 13.9427 25.5664ZM15.2127 6.9164C11.9227 6.9164 9.9427 9.2864 9.9427 12.4864V16.5564L9.9827 18.1864L9.1327 17.1064L7.7627 15.6864C7.5927 15.5064 7.3427 15.3764 7.0527 15.3764C6.4927 15.3764 6.0527 15.8064 6.0527 16.3564C6.0527 16.6364 6.1527 16.8664 6.3527 17.0664L10.0527 20.6864C10.2827 20.9164 10.5727 21.0564 10.8827 21.0564C11.2127 21.0564 11.4827 20.9164 11.7127 20.6864L15.4327 17.0464C15.6227 16.8564 15.7227 16.6264 15.7227 16.3364C15.7227 15.8064 15.3027 15.3764 14.7227 15.3764C14.4627 15.3764 14.2027 15.4764 14.0227 15.6664L12.3727 17.3864L11.7827 18.1864L11.8527 16.5564V12.4864C11.8527 10.4764 13.0027 8.9264 15.1027 8.9264C17.2627 8.9264 18.5927 10.4364 18.5927 12.4964V14.3964C18.5927 14.9664 18.9327 15.4264 19.5627 15.4264C20.2027 15.4264 20.5527 14.9664 20.5527 14.3664V12.4964C20.5527 9.2964 18.5027 6.9164 15.2127 6.9164Z" /></svg>