<svg viewBox="0 0 29.4765625 25.07421875" xmlns="http://www.w3.org/2000/svg"><path d="M16.1198 25.0782C16.7898 25.0782 17.3398 24.7982 17.9898 24.1882L28.7798 13.9982C29.2998 13.5082 29.4798 12.9882 29.4798 12.5382C29.4798 12.0682 29.3098 11.5682 28.7798 11.0582L17.9898 0.9682C17.2698 0.2882 16.8198 -0.0018 16.1498 -0.0018C15.1898 -0.0018 14.5098 0.7482 14.5098 1.6682V6.8382H14.1098C4.2798 6.8382 -0.0002 13.1382 -0.0002 23.2382C-0.0002 24.4182 0.6698 25.0782 1.4098 25.0782C1.9798 25.0782 2.6098 24.9382 3.0898 24.0582C5.4698 19.5882 8.8198 18.2482 14.1098 18.2482H14.5098V23.4782C14.5098 24.3882 15.1898 25.0782 16.1198 25.0782Z" /></svg>