<svg viewBox="0 0 27.890625 27.890625" xmlns="http://www.w3.org/2000/svg"><path d="M13.9427 27.8864C21.6427 27.8864 27.8927 21.6464 27.8927 13.9464C27.8927 6.2464 21.6427 -0.0036 13.9427 -0.0036C6.2527 -0.0036 0.0027 6.2464 0.0027 13.9464C0.0027 21.6464 6.2527 27.8864 13.9427 27.8864ZM13.9427 25.5664C7.5227 25.5664 2.3227 20.3664 2.3227 13.9464C2.3227 7.5164 7.5227 2.3264 13.9427 2.3264C20.3727 2.3264 25.5627 7.5164 25.5627 13.9464C25.5627 20.3664 20.3727 25.5664 13.9427 25.5664ZM8.8027 8.5764H19.0727C19.6027 8.5764 19.9727 8.1864 19.9727 7.6664C19.9727 7.1264 19.6027 6.7364 19.0727 6.7364H8.8027C8.2727 6.7364 7.8927 7.1264 7.8927 7.6664C7.8927 8.1864 8.2727 8.5764 8.8027 8.5764ZM13.9227 22.0164C14.4327 22.0164 14.8327 21.6164 14.8327 21.0964V14.8164L14.6827 12.3164L17.0927 15.0564L17.9827 15.9564C18.1727 16.1464 18.4127 16.2264 18.6627 16.2264C19.1727 16.2264 19.5227 15.8164 19.5227 15.3264C19.5227 15.0764 19.4527 14.8464 19.2327 14.6264L14.6027 9.9364C14.4127 9.7364 14.1627 9.6264 13.9227 9.6264C13.6727 9.6264 13.4227 9.7164 13.2327 9.9364L8.6127 14.6464C8.4527 14.8364 8.3427 15.1064 8.3427 15.3264C8.3427 15.8464 8.6927 16.2264 9.2127 16.2264C9.5027 16.2264 9.7027 16.1464 9.8827 15.9564L10.6627 15.0964L13.1527 12.3064L13.0027 14.8164V21.0964C13.0027 21.6164 13.3727 22.0164 13.9227 22.0164Z" /></svg>