<svg viewBox="0 0 20.7265625 25.826171875" xmlns="http://www.w3.org/2000/svg"><path d="M10.3637 25.8273C11.0737 25.8273 11.5837 25.3373 11.5837 24.6273V6.6173L11.4837 3.7073L15.5737 8.1873L18.6937 11.2473C18.9037 11.4673 19.2237 11.5773 19.5537 11.5773C20.2337 11.5773 20.7237 11.0573 20.7237 10.3873C20.7237 10.0673 20.6137 9.7773 20.3537 9.4973L11.2837 0.4073C11.0237 0.1373 10.7037 -0.0027 10.3637 -0.0027C10.0237 -0.0027 9.7037 0.1373 9.4437 0.4073L0.3837 9.4973C0.1237 9.7773 0.0037 10.0673 0.0037 10.3873C0.0037 11.0573 0.4937 11.5773 1.1737 11.5773C1.5037 11.5773 1.8337 11.4673 2.0337 11.2473L5.1537 8.1873L9.2537 3.6873L9.1437 6.6173V24.6273C9.1437 25.3373 9.6537 25.8273 10.3637 25.8273Z" /></svg>