<svg viewBox="0 0 27.890625 27.890625" xmlns="http://www.w3.org/2000/svg"><path d="M13.9427 27.8864C21.6427 27.8864 27.8927 21.6464 27.8927 13.9464C27.8927 6.2464 21.6427 -0.0036 13.9427 -0.0036C6.2527 -0.0036 0.0027 6.2464 0.0027 13.9464C0.0027 21.6464 6.2527 27.8864 13.9427 27.8864ZM13.9427 25.5664C7.5227 25.5664 2.3227 20.3664 2.3227 13.9464C2.3227 7.5164 7.5227 2.3264 13.9427 2.3264C20.3727 2.3264 25.5627 7.5164 25.5627 13.9464C25.5627 20.3664 20.3727 25.5664 13.9427 25.5664ZM7.1327 19.8264C7.4527 19.8264 7.7927 19.7464 8.0427 19.2764C9.3227 16.8664 11.1127 16.1464 13.9727 16.1464H14.1927V18.9664C14.1927 19.4564 14.5427 19.8264 15.0427 19.8264C15.4127 19.8264 15.6927 19.6564 16.0327 19.3464L21.8427 13.8764C22.1327 13.6164 22.2327 13.3264 22.2327 13.0864C22.2327 12.8364 22.1327 12.5464 21.8427 12.2864L16.0327 6.8664C15.6527 6.5064 15.4227 6.3464 15.0527 6.3464C14.5427 6.3464 14.1927 6.7564 14.1927 7.2464V10.0364H13.9727C8.7127 10.0364 6.3827 13.3964 6.3827 18.8364C6.3827 19.4864 6.7527 19.8264 7.1327 19.8264Z" /></svg>