<svg viewBox="0 0 27.890625 27.890625" xmlns="http://www.w3.org/2000/svg"><path d="M13.9427 27.8864C21.6427 27.8864 27.8927 21.6464 27.8927 13.9464C27.8927 6.2464 21.6427 -0.0036 13.9427 -0.0036C6.2527 -0.0036 0.0027 6.2464 0.0027 13.9464C0.0027 21.6464 6.2527 27.8864 13.9427 27.8864ZM13.9427 25.5664C7.5227 25.5664 2.3227 20.3664 2.3227 13.9464C2.3227 7.5164 7.5227 2.3264 13.9427 2.3264C20.3727 2.3264 25.5627 7.5164 25.5627 13.9464C25.5627 20.3664 20.3727 25.5664 13.9427 25.5664ZM18.2127 10.5564C17.6127 10.5564 17.2127 10.9664 17.2127 11.6164V13.9864L17.4227 16.1164L15.4527 14.0164L10.4227 8.9864C10.2127 8.7864 9.9627 8.6664 9.6427 8.6664C9.0327 8.6664 8.6227 9.0664 8.6227 9.6764C8.6227 9.9564 8.7627 10.2264 8.9527 10.4164L14.0027 15.4464L16.1327 17.4464L14.1127 17.2264H11.6227C10.9627 17.2264 10.5427 17.6264 10.5427 18.2264C10.5427 18.8264 10.9527 19.2264 11.5927 19.2264H18.0727C18.7727 19.2264 19.2227 18.9064 19.2227 18.1064V11.6464C19.2227 11.0064 18.8127 10.5564 18.2127 10.5564Z" /></svg>