<svg viewBox="0 0 27.890625 27.890625" xmlns="http://www.w3.org/2000/svg"><path d="M13.9427 27.8864C21.6427 27.8864 27.8927 21.6464 27.8927 13.9464C27.8927 6.2464 21.6427 -0.0036 13.9427 -0.0036C6.2527 -0.0036 0.0027 6.2464 0.0027 13.9464C0.0027 21.6464 6.2527 27.8864 13.9427 27.8864ZM13.9427 25.5664C7.5227 25.5664 2.3227 20.3664 2.3227 13.9464C2.3227 7.5164 7.5227 2.3264 13.9427 2.3264C20.3727 2.3264 25.5627 7.5164 25.5627 13.9464C25.5627 20.3664 20.3727 25.5664 13.9427 25.5664ZM8.1927 19.9764C8.7127 19.9764 9.0927 19.6064 9.0927 19.0764V8.8064C9.0927 8.2764 8.7127 7.9064 8.1927 7.9064C7.6527 7.9064 7.2627 8.2764 7.2627 8.8064V19.0764C7.2627 19.6064 7.6527 19.9764 8.1927 19.9764ZM22.5327 13.9564C22.5327 13.4264 22.1327 13.0464 21.6127 13.0464H15.3427L12.8427 13.1964L15.6127 10.7364L16.4727 9.8864C16.6627 9.7064 16.7527 9.4564 16.7527 9.2164C16.7527 8.6964 16.3527 8.3364 15.8427 8.3364C15.6027 8.3364 15.3627 8.4264 15.1727 8.6264L10.4627 13.2664C10.2527 13.4664 10.1427 13.6964 10.1427 13.9564C10.1427 14.2064 10.2427 14.4464 10.4627 14.6464L15.1627 19.2364C15.3427 19.4164 15.6227 19.5364 15.8627 19.5364C16.3827 19.5364 16.7527 19.1864 16.7527 18.6464C16.7527 18.3764 16.6627 18.1564 16.4727 17.9964L15.6027 17.1864L12.8227 14.7264L15.3427 14.8764H21.6127C22.1327 14.8764 22.5327 14.5064 22.5327 13.9564Z" /></svg>