<svg viewBox="0 0 27.890625 27.890625" xmlns="http://www.w3.org/2000/svg"><path d="M13.9427 27.8864C21.6427 27.8864 27.8927 21.6464 27.8927 13.9464C27.8927 6.2464 21.6427 -0.0036 13.9427 -0.0036C6.2527 -0.0036 0.0027 6.2464 0.0027 13.9464C0.0027 21.6464 6.2527 27.8864 13.9427 27.8864ZM13.9427 25.5664C7.5227 25.5664 2.3227 20.3664 2.3227 13.9464C2.3227 7.5164 7.5227 2.3264 13.9427 2.3264C20.3727 2.3264 25.5627 7.5164 25.5627 13.9464C25.5627 20.3664 20.3727 25.5664 13.9427 25.5664ZM20.8327 13.9364C20.8327 13.6464 20.7427 13.4164 20.4627 13.1364L16.1227 8.6264C15.9127 8.4264 15.6927 8.3164 15.4127 8.3164C14.8427 8.3164 14.4527 8.7364 14.4527 9.3064C14.4527 9.5664 14.5427 9.8564 14.7827 10.0464L16.9927 12.1264L17.8427 12.9364L15.7927 12.8364H8.1027C7.5327 12.8364 7.0427 13.3464 7.0427 13.9364C7.0427 14.5164 7.5327 15.0164 8.1027 15.0164H15.7927L17.8427 14.9264L16.9927 15.7364L14.7827 17.8164C14.5427 18.0064 14.4527 18.3064 14.4527 18.5664C14.4527 19.1364 14.8427 19.5464 15.4127 19.5464C15.6927 19.5464 15.9127 19.4364 16.1227 19.2364L20.4627 14.7264C20.7427 14.4464 20.8327 14.2064 20.8327 13.9364Z" /></svg>