<svg viewBox="0 0 32.23828125 25.169921875" xmlns="http://www.w3.org/2000/svg"><path d="M4.2937 25.1692H27.9437C30.8137 25.1692 32.2337 23.7592 32.2337 20.9492V4.2392C32.2337 1.4192 30.8137 -0.0008 27.9437 -0.0008H4.2937C1.4337 -0.0008 0.0037 1.4192 0.0037 4.2392V20.9492C0.0037 23.7592 1.4337 25.1692 4.2937 25.1692ZM19.1537 19.8392C18.5437 19.8392 18.1337 19.3592 18.1337 18.6992V12.2492C18.1337 11.4192 18.5837 11.0892 19.3037 11.0892H25.8037C26.4537 11.0892 26.8837 11.4992 26.8837 12.1092C26.8837 12.7392 26.4437 13.1492 25.7737 13.1492H23.4037L21.3137 12.9292L23.5137 14.9892L27.7537 19.2092C27.9637 19.4092 28.0937 19.6992 28.0937 19.9792C28.0937 20.6192 27.6837 21.0292 27.0737 21.0292C26.7137 21.0292 26.4537 20.9092 26.2537 20.6992L22.0237 16.4792L19.9837 14.2992L20.1937 16.4892V18.7292C20.1937 19.3992 19.7837 19.8392 19.1537 19.8392Z" /></svg>