<svg viewBox="0 0 25.169921875 25.169921875" xmlns="http://www.w3.org/2000/svg"><path d="M4.2937 25.1706H20.8737C23.7437 25.1706 25.1737 23.7606 25.1737 20.9406V4.2406C25.1737 1.4206 23.7437 0.0006 20.8737 0.0006H4.2937C1.4337 0.0006 0.0037 1.4206 0.0037 4.2406V20.9406C0.0037 23.7606 1.4337 25.1706 4.2937 25.1706ZM14.0637 5.4106C17.3337 5.4106 19.4737 7.6306 19.4737 10.9206V12.7706C19.4737 13.4306 19.0537 13.8606 18.4537 13.8606C17.8437 13.8606 17.4337 13.4406 17.4337 12.8006V10.9206C17.4337 8.8606 16.0937 7.4506 14.0637 7.4506C12.1937 7.4506 10.9537 8.8306 10.9537 10.9106V14.9206L10.8937 16.3106L11.3437 15.6706L12.9437 14.0106C13.1437 13.8106 13.3937 13.6806 13.7037 13.6806C14.2837 13.6806 14.7537 14.1406 14.7537 14.7006C14.7537 15.0106 14.6437 15.2606 14.4537 15.4506L10.7837 19.0306C10.5237 19.2906 10.2237 19.4006 9.9237 19.4006C9.6137 19.4006 9.3137 19.2806 9.0537 19.0306L5.4237 15.4606C5.2237 15.2606 5.1237 15.0206 5.1237 14.7106C5.1237 14.1406 5.5937 13.6806 6.1837 13.6806C6.4537 13.6806 6.7237 13.8106 6.9037 14.0106L8.2437 15.3906L8.9837 16.3206L8.9137 14.9206V10.9106C8.9137 7.6106 10.9737 5.4106 14.0637 5.4106Z" /></svg>