<svg viewBox="0 0 27.890625 27.890625" xmlns="http://www.w3.org/2000/svg"><path d="M13.9427 27.8864C21.6427 27.8864 27.8927 21.6264 27.8927 13.9464C27.8927 6.2464 21.6427 -0.0036 13.9427 -0.0036C6.2627 -0.0036 0.0027 6.2464 0.0027 13.9464C0.0027 21.6264 6.2627 27.8864 13.9427 27.8864ZM22.7127 13.9464C22.7127 14.2464 22.5827 14.4764 22.3127 14.7664L18.2427 18.8564C18.0627 19.0464 17.8027 19.1364 17.5027 19.1364C16.9227 19.1364 16.4927 18.7064 16.4927 18.1164C16.4927 17.7964 16.6127 17.5564 16.7927 17.3664L17.8527 16.3064L19.5527 14.8864L16.5727 15.0164H11.2927L8.3127 14.8864L10.0227 16.3064L11.0927 17.3664C11.2627 17.5564 11.3927 17.7964 11.3927 18.1164C11.3927 18.7064 10.9527 19.1364 10.3727 19.1364C10.0727 19.1364 9.8127 19.0464 9.6427 18.8564L5.5627 14.7664C5.2927 14.4764 5.1727 14.2464 5.1727 13.9464C5.1727 13.6264 5.2927 13.3964 5.5627 13.1064L9.6427 9.0364C9.8127 8.8464 10.0727 8.7364 10.3727 8.7364C10.9527 8.7364 11.3927 9.1964 11.3927 9.7764C11.3927 10.0864 11.2827 10.3364 11.0927 10.5364L10.0227 11.5764L8.3027 13.0064L11.2927 12.8964H16.5727L19.5627 13.0064L17.8527 11.5764L16.7927 10.5364C16.5927 10.3364 16.4927 10.0864 16.4927 9.7764C16.4927 9.1964 16.9227 8.7364 17.5027 8.7364C17.8027 8.7364 18.0627 8.8464 18.2427 9.0364L22.3127 13.1064C22.5827 13.3964 22.7127 13.6264 22.7127 13.9464Z" /></svg>