<svg viewBox="0 0 26.126953125 26.126953125" xmlns="http://www.w3.org/2000/svg"><path d="M0.0037 18.7414V24.8714C0.0037 25.5914 0.4737 26.1314 1.2437 26.1314H7.3837C8.5837 26.1314 8.9037 24.8514 8.1037 24.0614L5.9437 21.9014L13.0537 14.7914L20.1637 21.9014L18.0037 24.0614C17.2237 24.8514 17.5437 26.1314 18.7437 26.1314H24.8837C25.6437 26.1314 26.1237 25.5914 26.1237 24.8714V18.7414C26.1237 17.5314 24.8437 17.2414 24.0637 18.0014L21.9037 20.1814L14.7937 13.0614L21.9037 5.9514L24.0637 8.1114C24.8437 8.8914 26.1237 8.5814 26.1237 7.3814V1.2614C26.1237 0.5214 25.6437 0.0014 24.8837 0.0014H18.7437C17.5437 0.0014 17.2237 1.2714 18.0037 2.0514L20.1837 4.2214L13.0537 11.3314L5.9437 4.2114L8.1037 2.0514C8.9037 1.2714 8.5837 0.0014 7.3837 0.0014H1.2437C0.4737 0.0014 0.0037 0.5214 0.0037 1.2614V7.3814C0.0037 8.5814 1.2837 8.8914 2.0537 8.1114L4.2237 5.9514L11.3337 13.0614L4.2237 20.1814L2.0537 18.0014C1.2837 17.2414 0.0037 17.5314 0.0037 18.7414Z" /></svg>