<svg viewBox="0 0 25.169921875 25.169921875" xmlns="http://www.w3.org/2000/svg"><path d="M4.2937 25.1692H20.8737C23.7437 25.1692 25.1737 23.7592 25.1737 20.9492V4.2392C25.1737 1.4192 23.7437 -0.0008 20.8737 -0.0008H4.2937C1.4337 -0.0008 0.0037 1.4192 0.0037 4.2392V20.9492C0.0037 23.7592 1.4337 25.1692 4.2937 25.1692ZM6.3037 13.2192C6.3037 9.7592 9.1437 7.0392 12.3137 7.0392C12.4437 7.0392 12.5937 7.0692 12.7037 7.0692L11.7137 6.0592C11.5637 5.9092 11.4537 5.6592 11.4537 5.4092C11.4537 4.9092 11.8537 4.5092 12.3637 4.5092C12.6037 4.5092 12.8537 4.6192 13.0037 4.7992L15.7137 7.5492C16.0337 7.8892 16.0637 8.5192 15.7137 8.8592L12.9737 11.5892C12.8237 11.7292 12.5937 11.8492 12.3637 11.8492C11.8537 11.8492 11.4537 11.4692 11.4537 10.9692C11.4537 10.7092 11.5637 10.4892 11.7337 10.3092L13.0937 8.9692C12.9637 8.9392 12.7737 8.9292 12.5937 8.9292C10.1837 8.9292 8.2537 10.8692 8.2537 13.2792C8.2537 15.6992 10.1837 17.6192 12.5937 17.6192C14.9937 17.6192 16.9237 15.6792 16.9237 13.2792C16.9237 12.7392 17.3737 12.3092 17.9137 12.3092C18.4337 12.3092 18.8837 12.7392 18.8837 13.2792C18.8837 16.7492 16.0737 19.5792 12.5937 19.5792C9.1037 19.5792 6.3037 16.7492 6.3037 13.2192Z" /></svg>