<svg viewBox="0 0 27.890625 27.890625" xmlns="http://www.w3.org/2000/svg"><path d="M13.9427 27.8864C21.6427 27.8864 27.8927 21.6464 27.8927 13.9464C27.8927 6.2664 21.6427 -0.0036 13.9427 -0.0036C6.2627 -0.0036 0.0027 6.2664 0.0027 13.9464C0.0027 21.6464 6.2627 27.8864 13.9427 27.8864ZM13.9827 6.0164C18.0027 6.0164 21.1827 8.7064 21.8727 12.6364H23.2827C23.9527 12.6364 24.0727 13.2664 23.7227 13.7664L21.4627 16.9364C21.0527 17.4964 20.4027 17.4564 20.0127 16.9364L17.7327 13.7664C17.3727 13.2664 17.5127 12.6364 18.1727 12.6364H19.7427C19.1127 10.1264 16.7927 8.2464 13.9827 8.2464C12.6227 8.2464 11.6027 8.6864 10.5927 9.4564C10.0327 9.8664 9.3827 9.9664 8.9027 9.4364C8.4127 8.9164 8.5627 8.1764 9.2427 7.6264C10.4627 6.6264 12.2227 6.0164 13.9827 6.0164ZM14.0127 21.8164C9.9927 21.8164 6.8127 19.1264 6.1227 15.2064H4.6327C3.9627 15.2064 3.8427 14.5764 4.1927 14.0664L6.4527 10.8864C6.8627 10.3364 7.5227 10.3664 7.8927 10.8864L10.1827 14.0664C10.5427 14.5764 10.4027 15.2064 9.7327 15.2064H8.2627C8.8827 17.6864 11.2127 19.5764 14.0127 19.5764C15.3827 19.5764 16.3927 19.1564 17.4027 18.3764C17.9627 17.9464 18.6027 17.8664 19.1027 18.4064C19.6027 18.9264 19.4427 19.6564 18.7627 20.1964C17.5427 21.2064 15.7727 21.8164 14.0127 21.8164Z" /></svg>