<svg viewBox="0 0 27.890625 27.890625" xmlns="http://www.w3.org/2000/svg"><path d="M13.9427 27.8864C21.6427 27.8864 27.8927 21.6264 27.8927 13.9464C27.8927 6.2464 21.6427 -0.0036 13.9427 -0.0036C6.2627 -0.0036 0.0027 6.2464 0.0027 13.9464C0.0027 21.6264 6.2627 27.8864 13.9427 27.8864ZM18.3627 10.4464C18.9727 10.4464 19.4027 10.9064 19.4027 11.5764V18.2264C19.4027 19.0564 18.9327 19.3864 18.2127 19.3864H11.5427C10.8727 19.3864 10.4427 18.9764 10.4427 18.3464C10.4427 17.7364 10.8827 17.3264 11.5627 17.3264H14.1127L16.2027 17.5364L14.0027 15.4764L8.8227 10.3264C8.6127 10.1164 8.4727 9.8264 8.4727 9.5564C8.4727 8.9164 8.9027 8.5064 9.5127 8.5064C9.8527 8.5064 10.1127 8.6264 10.3327 8.8364L15.4927 13.9964L17.5227 16.1764L17.3227 13.9764V11.5564C17.3227 10.8664 17.7327 10.4464 18.3627 10.4464Z" /></svg>