<svg viewBox="0 0 25.169921875 25.169921875" xmlns="http://www.w3.org/2000/svg"><path d="M4.2937 25.1692H20.8737C23.7437 25.1692 25.1737 23.7592 25.1737 20.9492V4.2392C25.1737 1.4192 23.7437 -0.0008 20.8737 -0.0008H4.2937C1.4337 -0.0008 0.0037 1.4192 0.0037 4.2392V20.9492C0.0037 23.7592 1.4337 25.1692 4.2937 25.1692ZM4.3237 22.9692C2.9537 22.9692 2.2037 22.2392 2.2037 20.8192V4.3592C2.2037 2.9392 2.9537 2.1992 4.3237 2.1992H20.8537C22.2037 2.1992 22.9737 2.9392 22.9737 4.3592V20.8192C22.9737 22.2392 22.2037 22.9692 20.8537 22.9692ZM17.4837 18.9892L20.8337 15.5592C21.0037 15.3792 21.1237 15.1392 21.1237 14.9192C21.1237 14.3992 20.7637 14.0392 20.2437 14.0392C20.0037 14.0392 19.7737 14.1392 19.6237 14.2992L18.2137 15.7492L17.6937 16.3092L17.7237 15.6692V6.7992C17.7237 6.2892 17.3337 5.9192 16.8337 5.9192C16.3237 5.9192 15.9437 6.2892 15.9437 6.7992V15.6792L15.9737 16.3192L15.4537 15.7492L14.0437 14.2992C13.8637 14.1192 13.6537 14.0392 13.4137 14.0392C12.8937 14.0392 12.5537 14.3992 12.5537 14.9192C12.5537 15.1192 12.6437 15.3692 12.8137 15.5592L16.1737 18.9892C16.4837 19.3192 17.1137 19.3692 17.4837 18.9892ZM7.7137 6.1892L4.3337 9.6392C4.1837 9.8192 4.0637 10.0792 4.0637 10.2692C4.0637 10.7692 4.4437 11.1592 4.9537 11.1592C5.1837 11.1592 5.4037 11.0492 5.5637 10.8792L6.9737 9.4192L7.4937 8.8592L7.4637 9.5292V18.3892C7.4637 18.8792 7.8437 19.2492 8.3537 19.2492C8.8737 19.2492 9.2537 18.8792 9.2537 18.3892V9.5192L9.2137 8.8592L9.7437 9.4192L11.1537 10.8992C11.3237 11.0592 11.5437 11.1592 11.7737 11.1592C12.2737 11.1592 12.6437 10.7892 12.6437 10.2692C12.6437 10.0492 12.5237 9.7892 12.3737 9.6392L9.0137 6.1892C8.6837 5.8492 8.1037 5.7992 7.7137 6.1892Z" /></svg>