<svg viewBox="0 0 27.890625 27.890625" xmlns="http://www.w3.org/2000/svg"><path d="M13.9427 27.8864C21.6427 27.8864 27.8927 21.6264 27.8927 13.9464C27.8927 6.2464 21.6427 -0.0036 13.9427 -0.0036C6.2627 -0.0036 0.0027 6.2464 0.0027 13.9464C0.0027 21.6264 6.2627 27.8864 13.9427 27.8864ZM20.9227 15.4764C20.9227 18.7464 18.7027 20.8764 15.3927 20.8764H13.5627C12.9027 20.8764 12.4727 20.4664 12.4727 19.8564C12.4727 19.2464 12.8927 18.8364 13.5327 18.8364H15.3927C17.4727 18.8364 18.8827 17.4964 18.8827 15.4764C18.8827 13.6064 17.5027 12.3564 15.4127 12.3564H11.4127L10.0227 12.3064L10.6627 12.7564L12.3227 14.3564C12.5227 14.5564 12.6327 14.8064 12.6327 15.1064C12.6327 15.6964 12.1927 16.1564 11.6327 16.1564C11.3227 16.1564 11.0727 16.0464 10.8827 15.8564L7.3027 12.1964C7.0427 11.9364 6.9327 11.6364 6.9327 11.3364C6.9327 11.0164 7.0527 10.7164 7.3027 10.4564L10.8727 6.8364C11.0727 6.6264 11.3027 6.5364 11.6227 6.5364C12.2127 6.5364 12.6327 6.9864 12.6327 7.5864C12.6327 7.8564 12.5227 8.1364 12.3227 8.3164L10.9327 9.6564L10.0127 10.3864L11.4127 10.3264H15.4127C18.7127 10.3264 20.9227 12.3764 20.9227 15.4764Z" /></svg>