<svg viewBox="0 0 25.169921875 25.169921875" xmlns="http://www.w3.org/2000/svg"><path d="M4.2937 25.1692H20.8737C23.7437 25.1692 25.1737 23.7592 25.1737 20.9492V4.2392C25.1737 1.4192 23.7437 -0.0008 20.8737 -0.0008H4.2937C1.4337 -0.0008 0.0037 1.4192 0.0037 4.2392V20.9492C0.0037 23.7592 1.4337 25.1692 4.2937 25.1692ZM6.3937 18.8092C5.8237 18.8092 5.4237 18.4292 5.4237 17.8792V7.2892C5.4237 6.7392 5.8237 6.3392 6.3937 6.3392C6.9337 6.3392 7.3237 6.7392 7.3237 7.2892V17.8792C7.3237 18.4292 6.9337 18.8092 6.3937 18.8092ZM21.1937 12.5892C21.1937 13.1692 20.7837 13.5592 20.2337 13.5592H13.7837L11.1837 13.3892L14.0537 15.9392L14.9437 16.7592C15.1437 16.9292 15.2337 17.1592 15.2337 17.4492C15.2337 17.9792 14.8337 18.3592 14.2837 18.3592C14.0637 18.3592 13.7637 18.2392 13.5737 18.0492L8.7337 13.2992C8.5037 13.0992 8.4037 12.8692 8.4037 12.5892C8.4037 12.3292 8.5337 12.0892 8.7337 11.8792L13.6037 7.0992C13.7937 6.8792 14.0437 6.8092 14.2837 6.8092C14.8037 6.8092 15.2337 7.1792 15.2337 7.7092C15.2337 7.9692 15.1437 8.2192 14.9437 8.4092L14.0637 9.2592L11.1937 11.7992L13.7837 11.6592H20.2337C20.7837 11.6592 21.1937 12.0592 21.1937 12.5892Z" /></svg>