<svg viewBox="0 0 27.890625 27.890625" xmlns="http://www.w3.org/2000/svg"><path d="M13.9427 27.8864C21.6427 27.8864 27.8927 21.6464 27.8927 13.9464C27.8927 6.2464 21.6427 -0.0036 13.9427 -0.0036C6.2527 -0.0036 0.0027 6.2464 0.0027 13.9464C0.0027 21.6464 6.2527 27.8864 13.9427 27.8864ZM13.9427 25.5664C7.5227 25.5664 2.3227 20.3664 2.3227 13.9464C2.3227 7.5164 7.5227 2.3264 13.9427 2.3264C20.3727 2.3264 25.5627 7.5164 25.5627 13.9464C25.5627 20.3664 20.3727 25.5664 13.9427 25.5664ZM18.2127 17.3364C18.8127 17.3364 19.2227 16.8664 19.2227 16.2464V9.7864C19.2227 8.9864 18.7727 8.6664 18.0727 8.6664H11.5927C10.9527 8.6664 10.5427 9.0664 10.5427 9.6664C10.5427 10.2664 10.9627 10.6664 11.6227 10.6664H14.1127L16.1327 10.4464L14.0027 12.4264L8.9527 17.4764C8.7627 17.6664 8.6227 17.9364 8.6227 18.2064C8.6227 18.8264 9.0327 19.2264 9.6427 19.2264C9.9627 19.2264 10.2127 19.0964 10.4227 18.9064L15.4527 13.8764L17.4227 11.7764L17.2127 13.9064V16.2664C17.2127 16.9164 17.6127 17.3364 18.2127 17.3364Z" /></svg>