<svg viewBox="0 0 27.890625 27.890625" xmlns="http://www.w3.org/2000/svg"><path d="M13.9427 27.8864C21.6427 27.8864 27.8927 21.6464 27.8927 13.9464C27.8927 6.2464 21.6427 -0.0036 13.9427 -0.0036C6.2527 -0.0036 0.0027 6.2464 0.0027 13.9464C0.0027 21.6464 6.2527 27.8864 13.9427 27.8864ZM13.9427 25.5664C7.5227 25.5664 2.3227 20.3664 2.3227 13.9464C2.3227 7.5164 7.5227 2.3264 13.9427 2.3264C20.3727 2.3264 25.5627 7.5164 25.5627 13.9464C25.5627 20.3664 20.3727 25.5664 13.9427 25.5664ZM13.9427 21.9564C14.1927 21.9564 14.4827 21.8564 14.7527 21.5864L20.2327 15.6964C20.6027 15.3164 20.7527 15.0664 20.7527 14.7064C20.7527 14.1864 20.3527 13.8264 19.8627 13.8264H16.8727V7.6464C16.8727 6.5664 16.2527 5.9364 15.2027 5.9364H12.6727C11.6227 5.9364 11.0227 6.5664 11.0227 7.6464V13.8264H8.0027C7.4927 13.8264 7.1327 14.1864 7.1327 14.6864C7.1327 15.0564 7.2827 15.3564 7.6027 15.6964L13.1527 21.5864C13.4127 21.8564 13.7127 21.9564 13.9427 21.9564Z" /></svg>