<svg viewBox="0 0 27.890625 27.890625" xmlns="http://www.w3.org/2000/svg"><path d="M13.9427 27.8864C21.6427 27.8864 27.8927 21.6464 27.8927 13.9464C27.8927 6.2464 21.6427 -0.0036 13.9427 -0.0036C6.2527 -0.0036 0.0027 6.2464 0.0027 13.9464C0.0027 21.6464 6.2527 27.8864 13.9427 27.8864ZM13.9427 25.5664C7.5227 25.5664 2.3227 20.3664 2.3227 13.9464C2.3227 7.5164 7.5227 2.3264 13.9427 2.3264C20.3727 2.3264 25.5627 7.5164 25.5627 13.9464C25.5627 20.3664 20.3727 25.5664 13.9427 25.5664ZM6.8527 15.6164C6.8527 18.8964 9.2427 20.9464 12.4327 20.9464H14.3027C14.9127 20.9464 15.3627 20.6064 15.3627 19.9764C15.3627 19.3364 14.9127 18.9864 14.3327 18.9864H12.4327C10.3627 18.9864 8.8627 17.6664 8.8627 15.5064C8.8627 13.3964 10.4027 12.2464 12.4127 12.2464H16.5027L18.1127 12.1864L17.3227 12.7864L15.6127 14.4264C15.4127 14.6064 15.3127 14.8764 15.3127 15.1164C15.3127 15.6964 15.7327 16.1164 16.2827 16.1164C16.5727 16.1164 16.7927 16.0264 16.9827 15.8364L20.6327 12.1164C20.8527 11.8764 21.0027 11.6064 21.0027 11.2764C21.0027 10.9664 20.8527 10.6764 20.6327 10.4464L16.9927 6.7564C16.8027 6.5464 16.5827 6.4664 16.2927 6.4664C15.7327 6.4664 15.3127 6.8864 15.3127 7.4464C15.3127 7.7364 15.4327 7.9964 15.6227 8.1664L17.0327 9.5264L18.1127 10.3764L16.5027 10.3364H12.4127C9.2327 10.3364 6.8527 12.3364 6.8527 15.6164Z" /></svg>