<svg viewBox="0 0 28.35546875 29.09375" xmlns="http://www.w3.org/2000/svg"><path d="M0.0027 14.6138C0.0027 23.6238 6.0927 29.0938 14.4927 29.0938C16.7627 29.0938 18.9227 28.7838 20.2627 28.3438C21.2027 28.0438 21.5027 27.5538 21.5027 27.0438C21.5027 26.5338 21.1127 26.1538 20.6027 26.1538C20.4427 26.1538 20.2227 26.1838 19.9627 26.2538C18.2927 26.6638 16.8527 26.9338 14.9327 26.9338C7.4527 26.9338 2.3527 22.4237 2.3527 14.6938C2.3527 7.3038 7.1627 2.1438 14.4127 2.1438C20.8227 2.1438 26.1827 6.0938 26.1827 13.1938C26.1827 17.3338 24.7827 20.1238 22.5327 20.1238C21.0227 20.1238 20.1827 19.2538 20.1827 17.7638V8.4938C20.1827 7.7538 19.7727 7.3038 19.0727 7.3038C18.3927 7.3038 17.9627 7.7538 17.9627 8.4938V10.0538H17.8427C17.1427 8.3638 15.4327 7.3038 13.4027 7.3038C9.8527 7.3038 7.3727 10.3238 7.3727 14.6538C7.3727 19.0338 9.8427 22.0837 13.4527 22.0837C15.5727 22.0837 17.2127 20.9338 18.0027 18.9938H18.1327C18.3927 20.9138 20.0127 22.0938 22.1727 22.0938C25.9927 22.0938 28.3527 18.3438 28.3527 13.0938C28.3527 5.1537 22.5127 0.0038 14.4327 0.0038C5.9427 0.0038 0.0027 5.8137 0.0027 14.6138ZM13.8227 19.9237C11.3727 19.9237 9.8127 17.8838 9.8127 14.6438C9.8127 11.4538 11.3927 9.4238 13.8327 9.4238C16.3527 9.4238 17.9327 11.4138 17.9327 14.5838C17.9327 17.8238 16.3127 19.9237 13.8227 19.9237Z" /></svg>