<svg viewBox="0 0 27.819277316939917 27.819447870236594" xmlns="http://www.w3.org/2000/svg"><path d="M6.0758 6.062C1.7658 10.372 -0.2842 16.152 0.0358 20.582C0.2958 25.132 2.6558 27.542 7.1258 27.792C11.6658 28.102 17.4458 26.062 21.7558 21.742C26.0658 17.442 28.1158 11.672 27.7858 7.112C27.5558 2.662 25.1358 0.292 20.5958 0.032C16.1658 -0.298 10.3858 1.752 6.0758 6.062ZM7.6858 7.672C11.5958 3.762 16.5058 1.932 20.5558 2.302C23.6258 2.552 25.2958 4.162 25.5158 7.172C25.8858 11.322 24.0558 16.222 20.1558 20.142C16.2358 24.052 11.3358 25.872 7.1858 25.502C4.1758 25.282 2.5458 23.632 2.3058 20.542C1.9458 16.492 3.7658 11.582 7.6858 7.672ZM8.0558 16.832L10.9958 19.762C11.2558 20.012 11.6658 20.012 11.9258 19.762C12.1758 19.492 12.1758 19.082 11.9258 18.822L10.9258 17.822L11.9758 16.782L12.9758 17.782C13.2358 18.022 13.6458 18.042 13.8858 17.782C14.1558 17.532 14.1358 17.092 13.8958 16.852L12.8958 15.852L13.9458 14.802L14.9458 15.812C15.1958 16.072 15.6158 16.072 15.8658 15.812C16.1358 15.552 16.1258 15.132 15.8758 14.882L14.8658 13.872L15.9058 12.832L16.9158 13.842C17.1658 14.092 17.5858 14.072 17.8458 13.842C18.1058 13.572 18.1058 13.172 17.8458 12.912L16.8358 11.912L17.8858 10.862L18.8858 11.862C19.1358 12.102 19.5658 12.122 19.8258 11.862C20.0758 11.582 20.0858 11.172 19.8258 10.932L16.8858 7.992C16.6458 7.732 16.2358 7.742 15.9558 7.992C15.7158 8.262 15.7158 8.692 15.9558 8.952L16.9558 9.942L15.9158 11.002L14.9058 9.992C14.6558 9.712 14.2458 9.712 13.9758 9.992C13.7558 10.232 13.7458 10.652 13.9858 10.912L14.9858 11.912L13.9458 12.952L12.9258 11.942C12.6958 11.712 12.2558 11.692 12.0058 11.952C11.7458 12.202 11.7658 12.622 12.0258 12.872L13.0358 13.882L11.9758 14.922L10.9858 13.922C10.7258 13.682 10.2858 13.662 10.0358 13.942C9.7758 14.172 9.7958 14.582 10.0358 14.842L11.0558 15.852L9.9958 16.892L8.9958 15.892C8.7358 15.652 8.3258 15.652 8.0558 15.892C7.8058 16.152 7.8058 16.562 8.0558 16.832Z" /></svg>