<svg viewBox="0 0 30.529296875 29.17578125" xmlns="http://www.w3.org/2000/svg"><path d="M1.8137 25.919H28.7137V25.009C28.7137 24.459 28.3937 24.129 27.8337 24.129H26.9637V9.379H28.1637C28.9137 9.379 29.3537 8.829 29.3537 8.269C29.3537 7.859 29.1237 7.509 28.6137 7.219L16.9437 0.479C16.3937 0.169 15.8137 -0.001 15.2537 -0.001C14.6937 -0.001 14.1137 0.169 13.5937 0.479L1.9137 7.219C1.3937 7.509 1.1737 7.859 1.1737 8.269C1.1737 8.829 1.6137 9.379 2.3637 9.379H3.5637V24.129H2.7037C2.1437 24.129 1.8137 24.459 1.8137 25.009ZM5.6337 24.129V7.629L14.7237 2.529C14.8937 2.429 15.0837 2.379 15.2537 2.379C15.4337 2.379 15.6237 2.429 15.8037 2.529L24.8937 7.629V24.129ZM11.3337 20.739C11.7537 20.739 11.9737 20.539 12.1037 20.139L12.8837 17.609H17.6537L18.4337 20.149C18.5437 20.509 18.7537 20.739 19.2137 20.739C19.6337 20.739 19.9837 20.499 19.9837 20.039C19.9837 19.889 19.9637 19.739 19.9037 19.609L19.2537 17.609H20.0937C20.3437 17.609 20.5537 17.409 20.5537 17.159C20.5537 16.899 20.3437 16.709 20.0937 16.709H18.9537L18.4437 15.139H20.0937C20.3437 15.139 20.5537 14.929 20.5537 14.679C20.5537 14.439 20.3437 14.229 20.0937 14.229H18.1437L16.3537 8.809C16.1737 8.269 15.8437 7.989 15.2737 7.989C14.6937 7.989 14.3237 8.289 14.1637 8.809L12.3837 14.229H10.4337C10.1837 14.229 9.9837 14.439 9.9837 14.679C9.9837 14.929 10.1837 15.139 10.4337 15.139H12.1037L11.5837 16.709H10.4337C10.1837 16.709 9.9837 16.899 9.9837 17.159C9.9837 17.409 10.1837 17.609 10.4337 17.609H11.2837L10.6137 19.659C10.5637 19.799 10.5437 19.919 10.5437 20.039C10.5437 20.479 10.8937 20.739 11.3337 20.739ZM15.2337 9.909H15.3037L16.6137 14.229H13.9137ZM13.1537 16.709L13.6337 15.139H16.8937L17.3737 16.709ZM1.0937 29.179H29.4237C30.0237 29.179 30.5337 28.669 30.5337 28.069C30.5337 27.469 30.0237 26.979 29.4237 26.979H1.0937C0.4937 26.979 0.0037 27.469 0.0037 28.069C0.0037 28.669 0.4937 29.179 1.0937 29.179Z" /></svg>