<svg viewBox="0 0 32.935546875 27.26189615322232" xmlns="http://www.w3.org/2000/svg"><path d="M32.9327 16.3992C32.9327 7.7792 26.3227 0.7192 17.8927 -0.0008C17.4627 -0.0408 17.1327 0.2792 17.1327 0.7192V5.1892C17.1327 5.5592 17.3927 5.8392 17.7627 5.8692C22.9927 6.5092 27.0727 10.9792 27.0727 16.3992C27.0727 18.8592 26.2227 21.1292 24.7327 23.0292C24.5427 23.2592 24.5527 23.5592 24.7627 23.7792L28.0227 27.0292C28.3327 27.3292 28.7927 27.3292 29.0627 27.0092C31.4827 24.1392 32.9327 20.4292 32.9327 16.3992ZM0.0027 16.3992C0.0027 20.4392 1.4527 24.1492 3.8727 27.0192C4.1427 27.3492 4.5927 27.3292 4.9127 27.0292L8.1727 23.7792C8.3827 23.5592 8.3927 23.2592 8.2027 23.0292C6.7027 21.1292 5.8627 18.8592 5.8627 16.3992C5.8627 10.9792 9.9427 6.5092 15.1727 5.8692C15.5427 5.8392 15.8027 5.5592 15.8027 5.1892V0.7192C15.8027 0.2792 15.4727 -0.0408 15.0427 -0.0008C6.6127 0.7192 0.0027 7.7792 0.0027 16.3992ZM20.3727 22.8592C20.5627 22.8592 20.7227 22.6992 20.7227 22.5092V21.4992C22.3027 21.3892 23.4627 20.4692 23.4627 18.8392C23.4627 17.2992 22.5627 16.7092 21.2227 16.0692L20.7227 15.8392V12.6192C21.4227 12.7592 21.7627 13.2892 21.9527 14.0892C22.0527 14.4092 22.2627 14.6192 22.6027 14.6192C23.0127 14.6192 23.2827 14.3692 23.2827 13.9592C23.2827 13.8292 23.2527 13.6492 23.2027 13.4592C22.9027 12.2492 22.0027 11.5592 20.7227 11.4492V10.4492C20.7227 10.2592 20.5627 10.0792 20.3727 10.0792C20.1627 10.0792 20.0027 10.2592 20.0027 10.4492V11.4492C18.5027 11.5692 17.3927 12.4892 17.3927 14.0192C17.3927 15.4292 18.1827 16.1492 19.5627 16.7892L20.0027 16.9992V20.3092C19.1527 20.1692 18.7727 19.5792 18.6227 18.8592C18.5127 18.4292 18.2827 18.2592 17.9527 18.2592C17.5727 18.2592 17.2627 18.4992 17.2627 18.9292C17.2627 19.0792 17.2827 19.2092 17.3227 19.3492C17.5527 20.5092 18.6027 21.3592 20.0027 21.4992V22.5092C20.0027 22.6992 20.1627 22.8592 20.3727 22.8592ZM9.7727 21.8192C10.1427 21.8192 10.3927 21.6192 10.4827 21.2092L11.0627 18.9792H14.3127L14.9027 21.2092C15.0127 21.6192 15.2327 21.8192 15.6527 21.8192C16.0127 21.8192 16.3427 21.6092 16.3427 21.1392C16.3427 20.9992 16.3227 20.8692 16.2727 20.6892L13.7927 12.0092C13.6127 11.4192 13.3027 11.1192 12.7027 11.1192C12.1027 11.1192 11.7627 11.4492 11.5927 12.0192L9.1327 20.6892C9.0927 20.8392 9.0627 20.9892 9.0627 21.1392C9.0627 21.6092 9.3927 21.8192 9.7727 21.8192ZM18.7827 13.9392C18.7827 13.1692 19.2927 12.7292 20.0027 12.6192V15.4792C19.3427 15.1392 18.7827 14.6892 18.7827 13.9392ZM11.3627 17.7892L12.6227 12.8992H12.7327L14.0127 17.7892ZM22.0627 18.9692C22.0627 19.7892 21.5627 20.2292 20.7227 20.3192V17.3492C21.4627 17.7092 22.0627 18.1292 22.0627 18.9692Z" /></svg>