<svg viewBox="0 0 15.61328125 32.033203125" xmlns="http://www.w3.org/2000/svg"><path d="M3.5637 32.0309H12.0437C14.2337 32.0309 15.6137 30.6909 15.6137 28.6309V3.3909C15.6137 1.3309 14.2337 0.0009 12.0437 0.0009H3.5637C1.3837 0.0009 0.0037 1.3309 0.0037 3.3909V28.6309C0.0037 30.6909 1.3837 32.0309 3.5637 32.0309ZM3.8037 30.0409C2.7037 30.0409 2.0237 29.3809 2.0237 28.3409V3.6909C2.0237 2.6509 2.7037 2.0009 3.8037 2.0009H11.8137C12.9037 2.0009 13.5937 2.6509 13.5937 3.6909V28.3409C13.5937 29.3809 12.9037 30.0409 11.8137 30.0409ZM8.6437 5.2509H11.5537C12.0337 5.2509 12.4137 4.8809 12.4137 4.4009C12.4137 3.9109 12.0337 3.5409 11.5537 3.5409H8.6437C8.1637 3.5409 7.7837 3.9109 7.7837 4.4009C7.7837 4.8809 8.1637 5.2509 8.6437 5.2509ZM4.4737 10.3409C5.2137 10.3409 5.7937 9.7609 5.7937 9.0109C5.7937 8.2809 5.2137 7.6809 4.4737 7.6809C3.7337 7.6809 3.1437 8.2809 3.1437 9.0109C3.1437 9.7609 3.7337 10.3409 4.4737 10.3409ZM7.8037 10.3409C8.5437 10.3409 9.1337 9.7609 9.1337 9.0109C9.1337 8.2809 8.5437 7.6809 7.8037 7.6809C7.0637 7.6809 6.4837 8.2809 6.4837 9.0109C6.4837 9.7609 7.0637 10.3409 7.8037 10.3409ZM11.1537 10.3409C11.8937 10.3409 12.4837 9.7609 12.4837 9.0109C12.4837 8.2809 11.8937 7.6809 11.1537 7.6809C10.4137 7.6809 9.8337 8.2809 9.8337 9.0109C9.8337 9.7609 10.4137 10.3409 11.1537 10.3409ZM4.4737 14.1609C5.2137 14.1609 5.7937 13.5809 5.7937 12.8409C5.7937 12.1109 5.2137 11.5109 4.4737 11.5109C3.7337 11.5109 3.1437 12.1109 3.1437 12.8409C3.1437 13.5809 3.7337 14.1609 4.4737 14.1609ZM7.8037 14.1609C8.5437 14.1609 9.1337 13.5809 9.1337 12.8409C9.1337 12.1109 8.5437 11.5109 7.8037 11.5109C7.0637 11.5109 6.4837 12.1109 6.4837 12.8409C6.4837 13.5809 7.0637 14.1609 7.8037 14.1609ZM11.1537 14.1609C11.8937 14.1609 12.4837 13.5809 12.4837 12.8409C12.4837 12.1109 11.8937 11.5109 11.1537 11.5109C10.4137 11.5109 9.8337 12.1109 9.8337 12.8409C9.8337 13.5809 10.4137 14.1609 11.1537 14.1609ZM4.4737 17.9809C5.2137 17.9809 5.7937 17.4009 5.7937 16.6509C5.7937 15.9309 5.2137 15.3309 4.4737 15.3309C3.7337 15.3309 3.1437 15.9309 3.1437 16.6509C3.1437 17.4009 3.7337 17.9809 4.4737 17.9809ZM7.8037 17.9809C8.5437 17.9809 9.1337 17.3809 9.1337 16.6509C9.1337 15.9109 8.5437 15.3309 7.8037 15.3309C7.0637 15.3309 6.4837 15.9109 6.4837 16.6509C6.4837 17.3809 7.0637 17.9809 7.8037 17.9809ZM11.1537 17.9809C11.8937 17.9809 12.4837 17.3809 12.4837 16.6509C12.4837 15.9109 11.8937 15.3309 11.1537 15.3309C10.4137 15.3309 9.8337 15.9109 9.8337 16.6509C9.8337 17.3809 10.4137 17.9809 11.1537 17.9809ZM4.1737 27.0609C4.7437 27.0609 5.1937 26.5909 5.1937 26.0309V21.1909C5.1937 20.6209 4.7437 20.1709 4.1737 20.1709C3.6137 20.1709 3.1437 20.6209 3.1437 21.1909V26.0309C3.1437 26.5909 3.6137 27.0609 4.1737 27.0609ZM11.4537 27.0609C12.0137 27.0609 12.4837 26.5909 12.4837 26.0309V21.1909C12.4837 20.6209 12.0137 20.1709 11.4537 20.1709C10.8837 20.1709 10.4337 20.6209 10.4337 21.1909V26.0309C10.4337 26.5909 10.8837 27.0609 11.4537 27.0609ZM7.1337 23.0909H8.4637C8.9237 23.0909 9.1837 22.8209 9.1837 22.3809V21.4909C9.1837 21.0409 8.9237 20.7709 8.4637 20.7709H7.1337C6.7037 20.7709 6.4237 21.0409 6.4237 21.4909V22.3809C6.4237 22.8209 6.7037 23.0909 7.1337 23.0909ZM7.1337 26.4409H8.4637C8.9237 26.4409 9.1837 26.1809 9.1837 25.7309V24.8409C9.1837 24.3909 8.9237 24.1309 8.4637 24.1309H7.1337C6.7037 24.1309 6.4237 24.3909 6.4237 24.8409V25.7309C6.4237 26.1809 6.7037 26.4409 7.1337 26.4409Z" /></svg>