<svg viewBox="0 0 27.890625 27.890625" xmlns="http://www.w3.org/2000/svg"><path d="M13.9427 27.8864C21.6427 27.8864 27.8927 21.6264 27.8927 13.9464C27.8927 6.2464 21.6427 -0.0036 13.9427 -0.0036C6.2627 -0.0036 0.0027 6.2464 0.0027 13.9464C0.0027 21.6264 6.2627 27.8864 13.9427 27.8864ZM10.5827 20.2664C9.7927 20.2664 9.3127 19.7864 9.3127 19.0064V8.6364C9.3127 7.8364 9.7927 7.3664 10.5827 7.3664H14.7227C17.1427 7.3664 18.7127 8.6164 18.7127 10.5564C18.7127 11.9664 17.8527 13.0564 16.4627 13.3964V13.4764C18.3327 13.7164 19.4927 14.9164 19.4927 16.6364C19.4927 18.8564 17.6127 20.2664 14.6927 20.2664ZM11.5127 12.8564H13.6327C15.5127 12.8564 16.5427 12.1364 16.5427 10.9064C16.5427 9.7464 15.6927 9.0364 14.2727 9.0364H11.5127ZM11.5127 18.5964H13.7927C16.1427 18.5964 17.2227 17.9464 17.2227 16.5464C17.2227 15.1864 16.2327 14.4064 14.5027 14.4064H11.5127Z" /></svg>