<svg viewBox="0 0 20.876953125 20.890625" xmlns="http://www.w3.org/2000/svg"><path d="M1.1637 20.8864C1.8337 20.8864 2.3337 20.3864 2.3337 19.7464V10.8964C2.4837 11.3464 2.9137 11.7164 3.6937 12.1864L18.0637 20.5464C18.4537 20.7664 18.8537 20.8864 19.2537 20.8864C20.1237 20.8864 20.8737 20.2764 20.8737 18.9864V1.8864C20.8737 0.6064 20.1237 -0.0036 19.2537 -0.0036C18.8537 -0.0036 18.4537 0.1064 18.0637 0.3464L3.6937 8.7064C2.9137 9.1564 2.4837 9.5264 2.3337 9.9964V1.1464C2.3337 0.5064 1.8337 -0.0036 1.1637 -0.0036C0.5037 -0.0036 0.0037 0.5064 0.0037 1.1464V19.7464C0.0037 20.3864 0.5037 20.8864 1.1637 20.8864ZM18.6737 17.9064C18.6737 18.0564 18.5637 18.1864 18.4337 18.1864C18.3737 18.1864 18.3237 18.1564 18.2637 18.1264L5.5137 10.6464C5.4037 10.5964 5.3737 10.5164 5.3737 10.4464C5.3737 10.3664 5.4037 10.2964 5.5137 10.2364L18.2637 2.7664C18.3237 2.7164 18.3737 2.7064 18.4337 2.7064C18.5637 2.7064 18.6737 2.8164 18.6737 2.9764Z" /></svg>