<svg viewBox="0 0 29.599609375 20.890625" xmlns="http://www.w3.org/2000/svg"><path d="M18.5973 18.9864V1.8864C18.5973 0.6064 17.8573 -0.0036 16.9673 -0.0036C16.5873 -0.0036 16.1773 0.1064 15.7773 0.3464L1.4173 8.7064C0.3873 9.3064 -0.0027 9.7664 -0.0027 10.4464C-0.0027 11.1264 0.3873 11.5764 1.4173 12.1864L15.7773 20.5464C16.1773 20.7664 16.5873 20.8864 16.9673 20.8864C17.8573 20.8864 18.5973 20.2764 18.5973 18.9864ZM27.7673 20.8064C28.9673 20.8064 29.5973 20.1764 29.5973 18.9764V1.8964C29.5973 0.6964 28.9673 0.0664 27.7673 0.0664H24.6673C23.4573 0.0664 22.8473 0.6464 22.8473 1.8964V18.9764C22.8473 20.1764 23.4573 20.8064 24.6673 20.8064Z" /></svg>