<svg viewBox="0 0 27.890625 27.890625" xmlns="http://www.w3.org/2000/svg"><path d="M13.9427 27.8927C21.6427 27.8927 27.8927 21.6427 27.8927 13.9427C27.8927 6.2627 21.6427 0.0027 13.9427 0.0027C6.2627 0.0027 0.0027 6.2627 0.0027 13.9427C0.0027 21.6427 6.2627 27.8927 13.9427 27.8927ZM11.7327 22.5327C9.2527 22.5327 8.0227 21.2727 8.0427 18.7427C8.0827 15.8627 8.0927 13.7627 8.1627 12.2127C8.3227 8.5727 9.1627 6.9627 11.6027 6.4527C11.7627 5.3327 12.6727 4.5427 13.9327 4.5427C15.1927 4.5427 16.1027 5.3327 16.2527 6.4527C18.7027 6.9627 19.5327 8.5727 19.7027 12.2127C19.7727 13.7627 19.7827 15.8627 19.8227 18.7427C19.8427 21.2727 18.6027 22.5327 16.1327 22.5327ZM12.7527 6.2927C13.1227 6.2627 13.5127 6.2527 13.9327 6.2527C14.3527 6.2527 14.7427 6.2627 15.1027 6.2927C14.9027 5.8827 14.4827 5.6027 13.9327 5.6027C13.3827 5.6027 12.9627 5.8827 12.7527 6.2927ZM10.5227 15.9027H17.3327V14.9827C17.3327 14.3827 16.9527 13.9827 16.3227 13.9827H11.5527C10.9227 13.9827 10.5227 14.3827 10.5227 14.9827ZM11.5527 19.6827H16.3227C16.9527 19.6827 17.3327 19.2927 17.3327 18.6727V16.7927H10.5227V18.6727C10.5227 19.2927 10.9227 19.6827 11.5527 19.6827Z" /></svg>