<svg viewBox="0 0 22.491289045281246 34.2890625" xmlns="http://www.w3.org/2000/svg"><path d="M7.0642 34.2929H15.4242C20.1842 34.2929 22.5342 31.8829 22.4942 27.0729C22.4342 21.5729 22.4042 17.5829 22.2742 14.5829C21.9542 7.6429 20.3442 4.5629 15.6842 3.5829C15.3942 1.4929 13.6342 0.0029 11.2542 0.0029C8.8642 0.0029 7.1142 1.4929 6.8242 3.5829C2.1442 4.5629 0.5342 7.6329 0.2242 14.5829C0.0842 17.5829 0.0542 21.5729 0.0042 27.0729C-0.0358 31.8829 2.3142 34.2929 7.0642 34.2929ZM11.2542 3.2029C10.4042 3.2029 9.6242 3.2229 8.8842 3.2829C9.2542 2.4629 10.1342 1.9229 11.2542 1.9229C12.3742 1.9229 13.2442 2.4629 13.6042 3.2829C12.8842 3.2229 12.0842 3.2029 11.2542 3.2029ZM4.7442 19.8929C4.7442 18.7329 5.4942 17.9629 6.6742 17.9629H15.8342C16.9942 17.9629 17.7442 18.7329 17.7442 19.8929V21.6029H4.7442ZM4.7442 23.2329H17.7442V26.9429C17.7442 28.0929 16.9942 28.8629 15.8342 28.8629H6.6742C5.4942 28.8629 4.7442 28.0929 4.7442 26.9429Z" /></svg>