<svg viewBox="0 0 17.650390625 37.201171875" xmlns="http://www.w3.org/2000/svg"><path d="M8.6537 37.2005C9.1837 37.2005 9.6237 36.7505 9.6237 36.2205C9.6237 33.2205 12.3437 32.5205 12.3437 29.4905C12.3437 26.5905 10.0737 25.8805 9.7737 23.6005H10.5437C11.2337 23.6005 11.5437 23.0105 11.3937 22.4605L10.8937 20.6305C14.8237 19.4005 17.6537 14.7105 17.6537 9.0805C17.6537 3.9005 14.0437 0.0005 8.8137 0.0005C3.5937 0.0005 0.0037 3.9005 0.0037 9.0805C0.0037 14.7105 2.8337 19.3905 6.7437 20.6305L6.2637 22.4605C6.0937 23.0105 6.4137 23.6005 7.1137 23.6005H7.8237C8.0537 26.8405 10.4137 27.4705 10.4137 29.4905C10.4137 31.6605 7.6837 31.9905 7.6837 36.2205C7.6837 36.7505 8.1237 37.2005 8.6537 37.2005ZM8.8137 18.8905C5.0037 18.8905 2.0637 14.4405 2.0637 9.0805C2.0637 5.1705 4.8437 2.0605 8.8137 2.0605C12.7737 2.0605 15.6037 5.1705 15.6037 9.0805C15.6037 14.4405 12.6237 18.8905 8.8137 18.8905Z" /></svg>