<svg viewBox="0 0 27.890625 27.890625" xmlns="http://www.w3.org/2000/svg"><path d="M13.9427 27.8864C21.6427 27.8864 27.8927 21.6264 27.8927 13.9464C27.8927 6.2464 21.6427 -0.0036 13.9427 -0.0036C6.2627 -0.0036 0.0027 6.2464 0.0027 13.9464C0.0027 21.6264 6.2627 27.8864 13.9427 27.8864ZM13.9627 21.5164C13.6127 21.5164 13.2927 21.4964 12.9427 21.4364C13.1427 20.8664 13.2527 20.2664 13.3327 19.6564L13.6727 19.6764C13.9427 19.6764 14.1527 19.4564 14.1527 19.1964C14.1527 18.9364 13.9627 18.6864 13.6827 18.6764H13.3527C13.3427 18.2764 13.3027 17.8564 13.2327 17.4564L13.5527 17.3764C13.7927 17.3064 13.9427 17.0364 13.8927 16.7664C13.8227 16.5164 13.5627 16.3564 13.3027 16.4164L13.0027 16.5164C12.8627 16.1064 12.7127 15.7064 12.5227 15.3264L12.8427 15.1464C13.0827 15.0164 13.1527 14.6964 13.0127 14.4764C12.8827 14.2464 12.6027 14.1364 12.3627 14.2864L12.0327 14.4664C11.7827 14.0864 11.5027 13.7564 11.1927 13.4264L11.4727 13.1364C11.6627 12.9564 11.6627 12.6564 11.4527 12.4864C11.2427 12.2864 10.9827 12.2764 10.7827 12.4664L10.4827 12.7464C10.2027 12.5064 9.8827 12.2664 9.5427 12.0764L9.6927 11.8164C9.8327 11.5764 9.7327 11.2664 9.5027 11.1564C9.2727 11.0364 8.9827 11.1064 8.8427 11.3464L8.6927 11.6064C8.1527 11.3464 7.5927 11.1564 7.0027 11.0164C8.1527 8.3264 10.8527 6.3664 13.9427 6.3664C14.2627 6.3664 14.5927 6.3964 14.9027 6.4364C14.7227 7.0364 14.5927 7.6264 14.5327 8.2264L14.2427 8.2164C13.9627 8.2164 13.7427 8.4464 13.7427 8.6964C13.7427 8.9664 13.9327 9.1964 14.2027 9.2164H14.5227C14.5327 9.5964 14.5627 9.9964 14.6427 10.3764L14.2427 10.4764C13.9627 10.5364 13.8327 10.8164 13.9027 11.0564C13.9727 11.3164 14.2227 11.4864 14.4827 11.4064L14.8627 11.3064C14.9827 11.7264 15.1627 12.1364 15.3527 12.5464L15.0427 12.7264C14.8227 12.8364 14.7627 13.1364 14.8727 13.3864C15.0027 13.6064 15.2827 13.6964 15.5327 13.5664L15.8327 13.3864C16.0827 13.7364 16.3427 14.0864 16.6427 14.4064L16.4027 14.6264C16.2327 14.8164 16.2527 15.1164 16.4427 15.2964C16.6427 15.4664 16.9427 15.4864 17.1127 15.3164L17.3527 15.0764C17.6627 15.3364 18.0027 15.5964 18.3627 15.8064L18.1927 16.0764C18.0727 16.3064 18.1527 16.6064 18.3927 16.7464C18.6227 16.8864 18.9227 16.7764 19.0427 16.5464L19.2127 16.2564C19.7527 16.5164 20.3327 16.7064 20.9427 16.8264C19.7827 19.5664 17.0627 21.5164 13.9627 21.5164ZM21.5327 13.9464C21.5327 14.6564 21.4327 15.3364 21.2327 15.9864C20.6827 15.8864 20.1527 15.7264 19.6327 15.4764L19.7727 15.2164C19.9027 14.9664 19.8227 14.6964 19.5827 14.5564C19.3727 14.4264 19.0627 14.5364 18.9327 14.7664L18.8027 15.0164C18.5127 14.8464 18.2527 14.6464 17.9927 14.4264L18.1927 14.2164C18.4027 14.0164 18.3627 13.6964 18.1927 13.5364C17.9827 13.3464 17.7227 13.3164 17.5027 13.5364L17.2927 13.7364C17.0627 13.4764 16.8527 13.2064 16.6527 12.9164L16.8527 12.7964C17.0927 12.6764 17.1627 12.4164 17.0327 12.1564C16.9127 11.9264 16.6127 11.8264 16.3827 11.9664L16.1827 12.0764C16.0127 11.7464 15.8827 11.4164 15.7627 11.0864L15.9727 11.0164C16.2127 10.9464 16.3827 10.7064 16.2927 10.4464C16.2327 10.1764 15.9827 10.0264 15.7127 10.0864L15.5327 10.1264C15.4727 9.8264 15.4527 9.5264 15.4227 9.2464L15.7327 9.2564C16.0127 9.2564 16.2127 9.0364 16.2127 8.7464C16.2327 8.5064 16.0227 8.2764 15.7627 8.2564L15.4327 8.2464C15.5027 7.6964 15.6127 7.1464 15.7927 6.6064C19.0427 7.4664 21.5327 10.4564 21.5327 13.9464ZM6.4027 13.9464C6.4027 13.2364 6.5127 12.5264 6.7027 11.8664C7.2327 11.9864 7.7527 12.1564 8.2627 12.4164L8.1227 12.6764C7.9727 12.9364 8.0627 13.2364 8.3127 13.3464C8.5327 13.4664 8.8227 13.3964 8.9527 13.1564L9.1027 12.8764C9.3627 13.0264 9.6127 13.2164 9.8427 13.4164L9.6927 13.5464C9.5127 13.7364 9.5327 14.0564 9.7027 14.2364C9.9127 14.4064 10.2027 14.4264 10.3927 14.2464L10.5427 14.0964C10.8027 14.3564 11.0027 14.6464 11.2227 14.9264L11.0227 15.0564C10.7827 15.1764 10.7027 15.4864 10.8427 15.7064C10.9827 15.9564 11.2627 16.0264 11.4827 15.8964L11.6927 15.7764C11.8527 16.0964 11.9727 16.4064 12.1027 16.7364L11.8127 16.8064C11.5627 16.8664 11.4127 17.1464 11.4827 17.4164C11.5427 17.6464 11.8027 17.8264 12.0627 17.7564L12.3427 17.6764C12.3827 18.0164 12.4327 18.3364 12.4427 18.6464L12.1727 18.6364C11.8827 18.6364 11.6927 18.8764 11.6727 19.1364C11.6727 19.3864 11.8627 19.6164 12.1427 19.6364L12.4327 19.6464C12.3627 20.1964 12.2627 20.7264 12.0827 21.2564C8.8427 20.3964 6.4027 17.4164 6.4027 13.9464Z" /></svg>