<svg viewBox="0 0 27.890625 27.890625" xmlns="http://www.w3.org/2000/svg"><path d="M13.9427 27.8864C21.6427 27.8864 27.8927 21.6264 27.8927 13.9464C27.8927 6.2464 21.6427 -0.0036 13.9427 -0.0036C6.2627 -0.0036 0.0027 6.2464 0.0027 13.9464C0.0027 21.6264 6.2627 27.8864 13.9427 27.8864ZM11.0327 9.9564C10.8827 8.5164 11.0427 7.4964 11.1927 6.9064C11.9327 6.6264 12.7027 6.4364 13.5227 6.3964C12.6427 7.0264 12.1127 7.9664 12.1127 9.0664C12.1127 9.2264 12.1127 9.3764 12.1227 9.5064C11.7627 9.6364 11.3727 9.7864 11.0327 9.9564ZM13.0527 9.2564C13.0127 7.7664 13.8227 7.0364 15.3527 6.5064C17.3127 6.8864 19.0127 8.0564 20.1227 9.6364C18.8527 9.1364 17.4227 8.8864 15.9727 8.8864C14.9727 8.8864 13.9827 8.9964 13.0527 9.2564ZM9.4927 10.7864C9.3427 10.0864 8.9427 9.1964 8.2827 8.9664C8.8627 8.3264 9.5127 7.7964 10.2527 7.3664C10.0927 8.0964 10.0327 9.1164 10.1827 10.3764C9.9427 10.4964 9.7227 10.6464 9.4927 10.7864ZM6.4027 13.6064C6.4227 12.3464 6.9627 10.7864 7.7427 9.6664C8.2827 9.8264 8.6227 10.7864 8.6427 11.3864C7.7927 12.0464 7.0527 12.7664 6.4027 13.6064ZM13.2927 10.1264C14.1527 9.9164 15.0527 9.8064 15.9727 9.8064C17.7427 9.8064 19.3427 10.1964 20.8927 10.9964C21.2827 11.9064 21.5227 12.9064 21.5227 13.9464C21.5227 15.0664 21.2627 16.1064 20.8227 17.0664C19.5627 13.6464 14.4827 12.5364 13.2927 10.1264ZM11.1427 10.9064C11.5527 10.7164 11.9627 10.5364 12.3727 10.4064C13.7627 13.5664 19.8627 14.6964 20.1427 18.2564C19.1527 19.6564 17.7227 20.7164 16.0527 21.2064C13.0427 17.5864 11.6027 13.7264 11.1427 10.9064ZM9.5727 11.8364C9.8127 11.6764 10.0627 11.5164 10.3227 11.3564C10.8427 14.2564 12.2527 17.9464 15.0627 21.4364C14.6927 21.4964 14.3327 21.5064 13.9627 21.5064C12.9727 21.5064 12.0427 21.2764 11.2227 20.8764C8.1227 18.9764 9.5827 15.1864 9.5727 11.8364ZM6.4827 15.0964C7.0927 14.1464 7.8027 13.3264 8.6227 12.5964C8.5027 14.7564 7.9527 17.2564 8.6527 19.2864C7.5327 18.1864 6.7427 16.7064 6.4827 15.0964Z" /></svg>