<svg viewBox="0 0 40.46875 18.498046875" xmlns="http://www.w3.org/2000/svg"><path d="M7.2837 18.4933H28.7837C31.1137 18.4933 33.0837 18.2833 34.4837 16.8833C35.8737 15.4933 36.0837 13.5533 36.0837 11.2133V7.2833C36.0837 4.9533 35.8737 3.0033 34.4837 1.6133C33.0837 0.2233 31.1137 0.0033 28.7837 0.0033H7.2637C4.9637 0.0033 2.9937 0.2233 1.6037 1.6133C0.2037 3.0033 0.0037 4.9633 0.0037 7.2433V11.2133C0.0037 13.5533 0.2037 15.4933 1.6037 16.8833C2.9937 18.2833 4.9637 18.4933 7.2837 18.4933ZM6.9137 16.2933C5.5137 16.2933 4.0337 16.1033 3.2037 15.2833C2.3837 14.4533 2.2037 12.9833 2.2037 11.5833V6.9433C2.2037 5.5133 2.3837 4.0433 3.2037 3.2133C4.0337 2.3833 5.5237 2.2033 6.9637 2.2033H29.1637C30.5737 2.2033 32.0437 2.3933 32.8637 3.2133C33.7037 4.0433 33.8837 5.4933 33.8837 6.9033V11.5833C33.8837 12.9833 33.7037 14.4533 32.8637 15.2833C32.0437 16.1033 30.5737 16.2933 29.1637 16.2933ZM6.1937 14.7133H29.8837C30.8337 14.7133 31.3737 14.5733 31.7637 14.1933C32.1337 13.8133 32.2837 13.2633 32.2837 12.3233V6.1833C32.2837 5.2333 32.1337 4.6933 31.7637 4.3033C31.3737 3.9233 30.8137 3.7833 29.8837 3.7833H6.2337C5.2537 3.7833 4.6937 3.9233 4.3237 4.3033C3.9337 4.6933 3.8037 5.2533 3.8037 6.2033V12.3233C3.8037 13.2633 3.9337 13.8133 4.3237 14.1933C4.7037 14.5733 5.2637 14.7133 6.1937 14.7133ZM37.9437 12.7833C39.0237 12.7133 40.4737 11.3333 40.4737 9.2433C40.4737 7.1633 39.0237 5.7833 37.9437 5.7133Z" /></svg>