<svg viewBox="0 0 22.025390625 21.564145916249156" xmlns="http://www.w3.org/2000/svg"><path d="M3.6537 7.6296L6.0737 11.8696C7.4937 14.3296 10.5937 15.1496 13.0437 13.7296C15.4937 12.3196 16.3137 9.2296 14.9137 6.7896L12.4837 2.5596C11.0737 0.0996 7.9537 -0.7204 5.5337 0.6896C3.0637 2.1096 2.2237 5.1696 3.6537 7.6296ZM8.7537 19.4596C13.5237 19.4596 17.5037 16.2896 17.5037 11.7896C17.5037 10.7596 17.2837 9.7396 16.8837 8.7296C17.1137 11.1496 15.9437 13.5796 13.7037 14.8696C10.6237 16.6596 6.6837 15.6196 4.9237 12.5296L2.4837 8.2796C2.0737 7.5496 1.8137 6.7896 1.7137 6.0196C0.6137 7.6896 0.0037 9.1096 0.0037 11.1896C0.0037 16.1896 3.9737 19.4596 8.7537 19.4596ZM10.7437 12.0896C9.3337 12.0896 8.2137 10.9796 8.2137 9.5596C8.2137 8.1696 9.3337 7.0296 10.7437 7.0296C12.1437 7.0296 13.2637 8.1696 13.2637 9.5596C13.2637 10.9796 12.1537 12.0896 10.7437 12.0896ZM10.7437 11.0396C11.5837 11.0396 12.2137 10.3896 12.2137 9.5596C12.2137 8.7496 11.5837 8.0796 10.7437 8.0796C9.8937 8.0796 9.2737 8.7496 9.2737 9.5596C9.2737 10.3896 9.8937 11.0396 10.7437 11.0396ZM18.8237 11.7796C18.8237 15.8196 16.1037 18.9896 12.3137 20.2196C13.3437 21.0596 14.6537 21.5596 16.0737 21.5596C19.4137 21.5596 22.0237 18.8596 22.0237 15.6196C22.0237 13.2796 20.6837 11.2396 18.7037 10.2696C18.7737 10.7596 18.8237 11.2696 18.8237 11.7796Z" /></svg>