<svg viewBox="0 0 23.554768620727682 21.91815326718895" xmlns="http://www.w3.org/2000/svg"><path d="M13.5018 13.5783C15.4318 12.7483 16.3518 10.5283 15.5118 8.6183L12.7718 2.3283C11.9018 0.3883 9.7018 -0.5217 7.7818 0.2983C5.8618 1.1383 4.9518 3.3783 5.7818 5.2783L8.5418 11.5683C9.3818 13.4583 11.5918 14.3983 13.5018 13.5783ZM0.3018 9.5583C-0.7282 13.0883 0.9418 16.3383 4.4518 17.7183L7.0418 18.7483C11.3318 20.4283 15.6918 19.5283 17.4118 14.7283C18.3618 12.1283 18.0718 9.8283 16.8118 8.3283C17.7818 10.8483 16.5518 13.6883 14.0418 14.7983C11.4518 15.8783 8.4718 14.6883 7.3418 12.0983L4.5818 5.8083C4.4318 5.4883 4.3218 5.1683 4.2518 4.8283C2.7418 6.0883 0.9918 7.2083 0.3018 9.5583ZM12.1218 12.4583C10.8018 12.4583 9.7618 11.4183 9.7618 10.1083C9.7618 8.8083 10.8018 7.7583 12.1218 7.7583C13.4218 7.7583 14.4618 8.8083 14.4618 10.1083C14.4618 11.4183 13.4418 12.4583 12.1218 12.4583ZM12.1218 11.4883C12.9018 11.4883 13.4918 10.8683 13.4918 10.1083C13.4918 9.3583 12.9018 8.7283 12.1218 8.7283C11.3218 8.7283 10.7318 9.3583 10.7318 10.1083C10.7318 10.8683 11.3218 11.4883 12.1218 11.4883ZM18.6618 15.1783C17.6918 17.8883 15.8718 19.6783 13.5618 20.4283C14.6118 21.3683 15.9918 21.9183 17.5118 21.9183C20.8518 21.9183 23.5518 19.2083 23.5518 15.8583C23.5518 13.0583 21.6518 10.7083 19.0818 10.0083C19.4418 11.7083 19.3018 13.4283 18.6618 15.1783Z" /></svg>