<svg viewBox="0 0 16.98046875 28.46484375" xmlns="http://www.w3.org/2000/svg"><path d="M15.1637 28.4635V23.6935C16.2037 22.6635 16.9837 18.9235 16.9837 15.5035C16.9837 6.9635 11.9937 0.0035 5.9237 0.0035C2.0137 0.0035 0.0037 2.8835 0.0037 7.4335V10.3235C0.0037 13.5635 0.8237 15.1035 3.1137 16.3835L8.4037 19.2735C9.7437 20.0035 10.4037 20.2435 11.3637 20.2435C13.3137 20.2435 14.9337 18.6335 14.9337 16.6835C14.9337 15.3435 14.2337 14.0835 12.7037 13.2935L2.2237 7.8235C2.2237 4.1835 3.4137 2.2135 6.0537 2.2135C10.4337 2.2135 14.2637 7.3935 14.6937 13.2735C15.6237 14.2035 16.1337 15.3635 16.1337 16.6835C16.1337 18.8435 14.6537 20.6835 12.6637 21.2735C12.7237 22.3035 13.2237 23.3135 13.9037 23.7435V28.4635ZM11.4437 18.9235C10.2137 18.9235 9.1837 17.8935 9.1837 16.6635C9.1837 15.4235 10.2137 14.4135 11.4437 14.4135C12.7037 14.4135 13.7137 15.4235 13.7137 16.6635C13.7137 17.8935 12.7037 18.9235 11.4437 18.9235ZM11.4437 18.0435C12.2137 18.0435 12.8237 17.4135 12.8237 16.6635C12.8237 15.9135 12.2137 15.2835 11.4437 15.2835C10.6937 15.2835 10.0637 15.9135 10.0637 16.6635C10.0637 17.4135 10.6937 18.0435 11.4437 18.0435Z" /></svg>