<svg viewBox="0 0 46.388671875 18.880859375" xmlns="http://www.w3.org/2000/svg"><path d="M9.4327 0.0033C4.2127 0.0033 0.0027 4.2233 0.0027 9.4433C0.0027 14.6733 4.2127 18.8833 9.4327 18.8833H36.9527C42.1827 18.8833 46.3927 14.6733 46.3927 9.4433C46.3927 4.2233 42.1827 0.0033 36.9527 0.0033ZM9.4327 2.2033H36.9527C41.1127 2.2033 44.1827 5.2933 44.1827 9.4433C44.1827 13.6033 41.1127 16.6833 36.9527 16.6833H9.4327C5.2727 16.6833 2.2027 13.6033 2.2027 9.4433C2.2027 5.2933 5.2727 2.2033 9.4327 2.2033ZM23.2027 12.3833C24.7227 12.3833 25.9927 11.1433 25.9927 9.6633C25.9927 8.1033 24.7027 6.8333 23.2027 6.8333C22.6427 6.8333 22.1327 6.9833 21.6827 7.3233V5.1133L20.4227 5.6633V9.6633C20.4227 11.1833 21.6327 12.3833 23.2027 12.3833ZM23.2027 11.1433C22.3627 11.1433 21.6827 10.4633 21.6827 9.6633C21.6827 8.8333 22.3827 8.1333 23.2027 8.1333C24.0227 8.1333 24.7027 8.8433 24.7027 9.6633C24.7027 10.4633 24.0227 11.1433 23.2027 11.1433Z" /></svg>