<svg viewBox="0 0 46.552734375 20.871188679262886" xmlns="http://www.w3.org/2000/svg"><path d="M36.9937 12.9309C38.8137 12.1309 39.7037 10.0309 38.9137 8.2009L36.2837 2.2109C35.4637 0.3609 33.3737 -0.4891 31.5437 0.2809C29.7137 1.0709 28.8337 3.2209 29.6237 5.0209L32.2637 11.0109C33.0537 12.8209 35.1637 13.7109 36.9937 12.9309ZM9.5537 12.9309C11.3937 13.7109 13.4937 12.8209 14.2837 11.0109L16.9237 5.0209C17.7237 3.2209 16.8437 1.0709 15.0137 0.2809C13.1837 -0.4891 11.0837 0.3609 10.2637 2.2109L7.6437 8.2009C6.8537 10.0309 7.7237 12.1309 9.5537 12.9309ZM22.1337 9.1009C21.4637 6.8609 19.7937 5.7909 18.3737 4.5909C18.3037 4.9209 18.2137 5.2209 18.0737 5.5309L15.4337 11.5209C14.3537 13.9709 11.5137 15.1109 9.0537 14.0909C6.6537 13.0209 5.4937 10.3209 6.4137 7.9209C5.2237 9.3609 4.9537 11.5509 5.8337 14.0209C7.4737 18.5909 11.6337 19.4509 15.7237 17.8509L18.1837 16.8809C21.5237 15.5509 23.1237 12.4509 22.1337 9.1009ZM24.4037 9.1009C23.4337 12.4509 25.0237 15.5509 28.3737 16.8809L30.8337 17.8509C34.9137 19.4509 39.0737 18.5909 40.7037 14.0209C41.6037 11.5509 41.3337 9.3609 40.1437 7.9209C41.0537 10.3209 39.8937 13.0209 37.4837 14.0909C35.0437 15.1109 32.1937 13.9709 31.1137 11.5209L28.4737 5.5309C28.3437 5.2209 28.2437 4.9209 28.1737 4.5909C26.7437 5.7909 25.0837 6.8609 24.4037 9.1009ZM10.8837 11.8609C9.6437 11.8609 8.6537 10.8809 8.6537 9.6209C8.6537 8.3709 9.6537 7.3809 10.8837 7.3809C12.1437 7.3809 13.1237 8.3709 13.1237 9.6209C13.1237 10.8809 12.1437 11.8609 10.8837 11.8609ZM35.6737 11.8609C34.4137 11.8609 33.4237 10.8809 33.4237 9.6209C33.4237 8.3709 34.4137 7.3809 35.6737 7.3809C36.9037 7.3809 37.8937 8.3709 37.8937 9.6209C37.8937 10.8809 36.9137 11.8609 35.6737 11.8609ZM10.8837 10.9309C11.6437 10.9309 12.1937 10.3609 12.1937 9.6209C12.1937 8.9109 11.6437 8.3109 10.8837 8.3109C10.1437 8.3109 9.5837 8.9109 9.5837 9.6209C9.5837 10.3609 10.1437 10.9309 10.8837 10.9309ZM35.6737 10.9309C36.4037 10.9309 36.9737 10.3609 36.9737 9.6209C36.9737 8.9109 36.4037 8.3109 35.6737 8.3109C34.9037 8.3109 34.3437 8.9109 34.3437 9.6209C34.3437 10.3609 34.9037 10.9309 35.6737 10.9309ZM4.6637 14.4409C4.0437 12.7809 3.9137 11.1409 4.2537 9.5209C1.8137 10.1909 0.0037 12.4309 0.0037 15.0909C0.0037 18.2909 2.5737 20.8709 5.7437 20.8709C7.1937 20.8709 8.5037 20.3409 9.5137 19.4509C7.3137 18.7209 5.5737 17.0109 4.6637 14.4409ZM41.8937 14.4409C40.9637 17.0109 39.2337 18.7209 37.0337 19.4509C38.0537 20.3409 39.3637 20.8709 40.8137 20.8709C43.9837 20.8709 46.5537 18.2909 46.5537 15.0909C46.5537 12.4309 44.7337 10.1909 42.3037 9.5209C42.6437 11.1409 42.4937 12.7809 41.8937 14.4409Z" /></svg>