<svg viewBox="0 0 43.61328125 20.483090751628783" xmlns="http://www.w3.org/2000/svg"><path d="M26.1437 7.2438L28.4537 11.2638C29.8037 13.6038 32.7437 14.3838 35.0637 13.0338C37.3937 11.7038 38.1837 8.7638 36.8437 6.4438L34.5337 2.4238C33.1937 0.0938 30.2437 -0.6762 27.9337 0.6438C25.5937 1.9938 24.8037 4.9138 26.1437 7.2438ZM17.4737 7.2438C18.8137 4.9138 18.0237 1.9938 15.6837 0.6438C13.3737 -0.6762 10.4137 0.0938 9.0737 2.4238L6.7637 6.4438C5.4237 8.7638 6.2037 11.7038 8.5437 13.0338C10.8737 14.3838 13.8037 13.6038 15.1637 11.2638ZM12.6237 18.4838C17.1437 18.4838 20.9337 15.3738 20.9337 10.6238C20.9337 8.6538 20.3437 7.3038 19.3037 5.7138C19.1937 6.4438 18.9637 7.1638 18.5637 7.8638L16.2537 11.8938C14.5737 14.8338 10.8237 15.8238 7.9137 14.1238C5.7837 12.8938 4.6637 10.5838 4.8937 8.2838C4.5137 9.2438 4.3037 10.2338 4.3037 11.2038C4.3037 15.4638 8.0837 18.4838 12.6237 18.4838ZM30.9937 18.4838C35.5237 18.4838 39.2937 15.4638 39.2937 11.2038C39.2937 10.2338 39.1037 9.2438 38.7237 8.2838C38.9337 10.5838 37.8337 12.8938 35.6937 14.1238C32.7737 15.8238 29.0437 14.8338 27.3537 11.8938L25.0437 7.8638C24.6537 7.1638 24.4037 6.4438 24.2937 5.7138C23.2737 7.3038 22.6837 8.6538 22.6837 10.6238C22.6837 15.3738 26.4537 18.4838 30.9937 18.4838ZM10.7237 11.4838C9.3837 11.4838 8.3237 10.4238 8.3237 9.0838C8.3237 7.7538 9.3937 6.6738 10.7237 6.6738C12.0537 6.6738 13.1237 7.7538 13.1237 9.0838C13.1237 10.4238 12.0537 11.4838 10.7237 11.4838ZM32.8937 11.4838C31.5437 11.4838 30.4837 10.4238 30.4837 9.0838C30.4837 7.7538 31.5437 6.6738 32.8937 6.6738C34.2237 6.6738 35.2737 7.7538 35.2737 9.0838C35.2737 10.4238 34.2337 11.4838 32.8937 11.4838ZM10.7237 10.4938C11.5237 10.4938 12.1237 9.8638 12.1237 9.0838C12.1237 8.3138 11.5237 7.6738 10.7237 7.6738C9.9237 7.6738 9.3237 8.3138 9.3237 9.0838C9.3237 9.8638 9.9237 10.4938 10.7237 10.4938ZM32.8937 10.4938C33.6837 10.4938 34.2737 9.8638 34.2737 9.0838C34.2737 8.3138 33.6837 7.6738 32.8937 7.6738C32.0737 7.6738 31.4837 8.3138 31.4837 9.0838C31.4837 9.8638 32.0737 10.4938 32.8937 10.4938ZM3.0537 11.1838C3.0537 10.7038 3.0937 10.2138 3.1537 9.7538C1.2737 10.6838 0.0037 12.6038 0.0037 14.8238C0.0037 17.9138 2.4837 20.4838 5.6437 20.4838C7.0037 20.4838 8.2537 20.0038 9.2237 19.2138C5.6337 18.0338 3.0537 15.0238 3.0537 11.1838ZM40.5637 11.1838C40.5637 15.0238 37.9837 18.0338 34.3837 19.2138C35.3537 20.0038 36.6037 20.4838 37.9537 20.4838C41.1137 20.4838 43.6137 17.9138 43.6137 14.8238C43.6137 12.6038 42.3237 10.6838 40.4437 9.7538C40.5137 10.2138 40.5637 10.7038 40.5637 11.1838Z" /></svg>