<svg viewBox="0 0 22.43846101839619 24.212890625" xmlns="http://www.w3.org/2000/svg"><path d="M5.0066 17.6344C7.7566 17.6344 9.8066 15.2744 9.2966 12.2244L8.4066 6.8544C8.2866 6.0944 8.5566 5.5944 9.2966 5.2544C11.1566 4.3744 12.9066 3.9144 15.2066 3.5544C16.6266 3.3544 17.3566 2.2944 17.3566 0.8844C17.3566 0.3144 17.0666 0.0044 16.1766 0.0044C13.2666 0.0044 10.3766 0.4644 7.4266 1.4944C2.4466 3.2144 -0.6434 6.2644 0.1166 10.3544L0.8366 14.2744C1.2566 16.5744 3.2066 17.6344 5.0066 17.6344ZM5.0066 18.9644C2.8966 18.9644 1.0966 17.8944 0.1566 16.2144C0.4366 20.7644 4.5566 23.0344 9.2166 23.0344C10.4466 23.0344 11.3466 22.8744 12.2166 22.4344C13.9766 19.3544 15.2166 16.1444 16.0166 12.6744C15.1066 10.7744 12.9866 9.5244 10.0666 8.7744L10.6166 12.0044C11.2366 15.7744 8.6566 18.9644 5.0066 18.9644ZM5.0066 15.5444C3.7266 15.5444 2.7066 14.5444 2.7066 13.2644C2.7066 11.9744 3.7266 10.9744 5.0066 10.9744C6.2766 10.9744 7.2766 11.9944 7.2766 13.2644C7.2766 14.5344 6.2766 15.5444 5.0066 15.5444ZM5.0066 14.5744C5.7266 14.5744 6.3066 14.0044 6.3066 13.2644C6.3066 12.5344 5.7266 11.9444 5.0066 11.9444C4.2566 11.9444 3.6766 12.5344 3.6766 13.2644C3.6766 14.0044 4.2566 14.5744 5.0066 14.5744ZM22.4366 18.3844C22.4366 15.2044 19.9266 13.0844 17.3366 12.8244C16.5066 16.5144 15.1666 19.9844 13.2666 23.2244C14.0266 23.7644 15.2766 24.2144 16.6566 24.2144C20.1266 24.2144 22.4366 21.8744 22.4366 18.3844Z" /></svg>