<svg viewBox="0 0 27.890625 27.890625" xmlns="http://www.w3.org/2000/svg"><path d="M13.9427 27.8927C21.6427 27.8927 27.8927 21.6427 27.8927 13.9427C27.8927 6.2627 21.6427 0.0027 13.9427 0.0027C6.2627 0.0027 0.0027 6.2627 0.0027 13.9427C0.0027 21.6427 6.2627 27.8927 13.9427 27.8927ZM7.0527 12.0727V10.1627C7.0527 8.9227 7.7127 8.2827 8.9127 8.2827H18.9727C20.1827 8.2827 20.8527 8.9227 20.8527 10.1627V12.0727H19.1427V11.1327C19.1427 10.5027 18.8027 10.1427 18.1027 10.1427H15.7627C15.0927 10.1427 14.7527 10.5027 14.7527 11.1327V12.0727H13.2227V11.1327C13.2227 10.5027 12.8827 10.1427 12.2527 10.1427H9.7527C9.0927 10.1427 8.7627 10.5027 8.7627 11.1327V12.0727ZM5.4327 19.0127V15.0227C5.4327 13.7527 6.1527 13.0327 7.4327 13.0327H20.4527C21.7427 13.0327 22.4627 13.7527 22.4627 15.0227V19.0127C22.4627 19.3727 22.2327 19.5927 21.8727 19.5927H21.4927C21.1527 19.5927 20.9227 19.3727 20.9227 19.0127V18.0327C20.8327 18.0427 20.6127 18.0427 20.4527 18.0427H7.4327C7.2727 18.0427 7.0527 18.0427 6.9727 18.0327V19.0127C6.9727 19.3727 6.7427 19.5927 6.4027 19.5927H6.0127C5.6727 19.5927 5.4327 19.3727 5.4327 19.0127Z" /></svg>