<svg viewBox="0 0 25.798828125 28.779296875" xmlns="http://www.w3.org/2000/svg"><path d="M2.0616 23.2939H23.7316C25.0216 23.2939 25.8016 22.6439 25.8016 21.6439C25.8016 20.2739 24.4016 19.0439 23.2316 17.8239C22.3216 16.8839 22.0816 14.9439 21.9716 13.3739C21.8716 8.1239 20.4816 4.5139 16.8416 3.2039C16.3216 1.4039 14.9116 0.0039 12.8916 0.0039C10.8816 0.0039 9.4616 1.4039 8.9516 3.2039C5.3216 4.5139 3.9216 8.1239 3.8316 13.3739C3.7216 14.9439 3.4716 16.8839 2.5716 17.8239C1.3816 19.0439 0.0016 20.2739 0.0016 21.6439C0.0016 22.6439 0.7616 23.2939 2.0616 23.2939ZM12.8916 28.7839C15.2216 28.7839 16.9116 27.0839 17.0916 25.1739H8.7116C8.8916 27.0839 10.5816 28.7839 12.8916 28.7839Z" /></svg>