<svg viewBox="0 0 25.169921875 25.169921875" xmlns="http://www.w3.org/2000/svg"><path d="M4.2937 25.1692H20.8737C23.7437 25.1692 25.1737 23.7592 25.1737 20.9492V4.2392C25.1737 1.4192 23.7437 -0.0008 20.8737 -0.0008H4.2937C1.4337 -0.0008 0.0037 1.4192 0.0037 4.2392V20.9492C0.0037 23.7592 1.4337 25.1692 4.2937 25.1692ZM4.3237 22.9692C2.9537 22.9692 2.2037 22.2392 2.2037 20.8192V4.3592C2.2037 2.9392 2.9537 2.1992 4.3237 2.1992H20.8537C22.2037 2.1992 22.9737 2.9392 22.9737 4.3592V20.8192C22.9737 22.2392 22.2037 22.9692 20.8537 22.9692ZM6.5937 17.5092H18.6337C19.3337 17.5092 19.7437 17.1492 19.7437 16.6092C19.7437 15.8492 18.9937 15.1792 18.3237 14.4892C17.8037 13.9592 17.7037 12.8792 17.6537 12.0192C17.5937 9.1092 16.8037 7.1092 14.8037 6.3692C14.5037 5.3992 13.7137 4.6092 12.6037 4.6092C11.4937 4.6092 10.7237 5.3992 10.4037 6.3692C8.4037 7.1092 7.6337 9.1092 7.5737 12.0192C7.5237 12.8792 7.3937 13.9592 6.8937 14.4892C6.2437 15.1892 5.4737 15.8492 5.4737 16.6092C5.4737 17.1492 5.8837 17.5092 6.5937 17.5092ZM12.6037 20.6692C13.8937 20.6692 14.8337 19.7592 14.9337 18.6492H10.2937C10.3937 19.7592 11.3237 20.6692 12.6037 20.6692Z" /></svg>