<svg viewBox="0 0 32.11918368728541 35.809851420839365" xmlns="http://www.w3.org/2000/svg"><path d="M20.9708 7.36C19.2108 4.22 16.9608 1.92 14.0808 0.27C13.0308 -0.33 11.9608 0.12 11.6708 1.25C11.2808 2.66 11.0308 4.08 10.9508 5.49C13.4108 6.69 15.6608 8.2 17.5808 9.84C18.5208 8.54 19.6708 7.73 20.9708 7.36ZM22.7308 8.99C20.6808 8.99 19.1508 10.12 18.0708 12.83C14.1208 8.8 7.8208 5.2 1.5308 4.72C0.2608 4.64 0.0508 5.59 0.0208 6.38C-0.4092 13.34 5.0708 19.34 12.3108 19.86C10.3308 24.56 7.1908 28.21 4.0808 31.11C3.5908 31.56 3.7208 32.18 4.0408 32.67C5.6308 35.1 10.5908 36.57 13.9608 35.4C14.6908 35.13 14.8308 34.77 14.8308 34.16V28.96C18.5108 28.8 24.4608 26.42 23.4808 18.85L23.3308 17.77C25.0008 17.37 26.3408 16.59 27.1608 15.65L31.1708 16.22C32.1008 16.36 32.5408 14.98 31.5908 14.58L28.0108 13.06C27.7208 11.03 25.4708 8.99 22.7308 8.99ZM24.1708 13.73C23.7008 13.73 23.3208 13.36 23.3208 12.9C23.3208 12.45 23.7008 12.05 24.1708 12.05C24.6208 12.05 25.0008 12.45 25.0008 12.9C25.0008 13.36 24.6208 13.73 24.1708 13.73Z" /></svg>