<svg viewBox="0 0 27.890625 27.890625" xmlns="http://www.w3.org/2000/svg"><path d="M13.9427 27.8927C21.6427 27.8927 27.8927 21.6427 27.8927 13.9427C27.8927 6.2627 21.6427 0.0027 13.9427 0.0027C6.2627 0.0027 0.0027 6.2627 0.0027 13.9427C0.0027 21.6427 6.2627 27.8927 13.9427 27.8927ZM4.8227 16.6127L9.5727 10.4727C9.8727 10.1127 10.1627 9.9527 10.4727 9.9527C10.7227 9.9527 10.9827 10.0527 11.2527 10.2027L17.3727 13.4827L22.0827 10.9527C22.9127 10.5027 23.6627 11.3227 23.0827 12.0827L18.3027 18.2527C18.0227 18.6227 17.7027 18.7727 17.3927 18.7727C17.1627 18.7727 16.9027 18.6727 16.6227 18.5227L10.4827 15.2427L5.8227 17.7727C5.0127 18.2127 4.1827 17.4627 4.8227 16.6127Z" /></svg>