<svg viewBox="0 0 27.166015625 25.1015625" xmlns="http://www.w3.org/2000/svg"><path d="M0.0037 8.258C0.0037 14.078 4.8837 19.808 12.5937 24.728C12.8837 24.908 13.3037 25.098 13.5737 25.098C13.8637 25.098 14.2737 24.908 14.5737 24.728C22.2837 19.808 27.1637 14.078 27.1637 8.258C27.1637 3.418 23.8437 -0.002 19.4037 -0.002C16.8737 -0.002 14.8237 1.208 13.5737 3.048C12.3637 1.218 10.2937 -0.002 7.7537 -0.002C3.3237 -0.002 0.0037 3.418 0.0037 8.258ZM2.2037 8.258C2.2037 4.618 4.5537 2.198 7.7237 2.198C10.3037 2.198 11.7737 3.798 12.6637 5.168C13.0337 5.718 13.2637 5.868 13.5737 5.868C13.9037 5.868 14.1137 5.698 14.5037 5.168C15.4537 3.828 16.8737 2.198 19.4237 2.198C22.6137 2.198 24.9637 4.618 24.9637 8.258C24.9637 13.348 19.5937 18.828 13.8637 22.628C13.7237 22.718 13.6337 22.788 13.5737 22.788C13.5337 22.788 13.4437 22.718 13.3037 22.628C7.5737 18.828 2.2037 13.348 2.2037 8.258ZM9.1337 13.888C9.1337 14.138 9.3337 14.318 9.5937 14.318H12.9837L11.1737 19.168C10.9337 19.808 11.6237 20.168 12.0437 19.648L17.5137 12.768C17.6237 12.648 17.6937 12.498 17.6937 12.368C17.6937 12.128 17.4737 11.938 17.2137 11.938H13.8337L15.6437 7.098C15.8737 6.438 15.1937 6.098 14.7837 6.618L9.2937 13.498C9.2037 13.628 9.1337 13.758 9.1337 13.888Z" /></svg>