<svg viewBox="0 0 27.890625 27.890625" xmlns="http://www.w3.org/2000/svg"><path d="M13.9427 27.8864C21.6427 27.8864 27.8927 21.6264 27.8927 13.9464C27.8927 6.2464 21.6427 -0.0036 13.9427 -0.0036C6.2627 -0.0036 0.0027 6.2464 0.0027 13.9464C0.0027 21.6264 6.2627 27.8864 13.9427 27.8864ZM9.7727 21.4264C9.3127 21.4264 9.0127 21.0864 9.0127 20.5064V8.6364C9.0127 7.2764 9.7227 6.5464 11.0927 6.5464H16.8027C18.1727 6.5464 18.8827 7.2764 18.8827 8.6364V20.5064C18.8827 21.0864 18.5827 21.4264 18.1127 21.4264C17.7427 21.4264 17.5427 21.2064 16.9027 20.5664L14.0127 17.7464C13.9727 17.7064 13.9227 17.7064 13.8727 17.7464L11.0027 20.5664C10.3527 21.2064 10.1427 21.4264 9.7727 21.4264Z" /></svg>