<svg viewBox="0 0 33.93597116735041 25.42505300381861" xmlns="http://www.w3.org/2000/svg"><path d="M1.0937 25.0719C1.4037 25.0719 1.7237 24.9819 1.9837 24.7419C3.6937 23.2719 5.9837 22.5019 8.2537 22.5019C10.3037 22.5019 12.2737 23.1319 13.9737 24.5419C12.9037 22.6119 13.2437 20.3319 14.8437 18.7019V3.8919C14.8437 3.5419 14.8237 3.4619 14.5637 3.0919C13.2237 1.1619 10.5937 0.0019 7.7237 0.0019C4.7037 0.0019 1.5737 1.3919 0.1637 3.8119C0.0137 4.0919 0.0037 4.2619 0.0037 4.7719V24.0619C0.0037 24.6919 0.4137 25.0719 1.0937 25.0719ZM16.6437 17.2419C18.3337 16.0219 20.3837 14.7919 21.6737 13.4919C22.9537 12.2319 21.3137 9.1019 24.3637 6.1919C26.2637 4.3919 29.1037 3.9419 31.4837 4.9119C31.4837 4.2619 31.4837 4.0719 31.3337 3.8119C29.9137 1.3919 26.7937 0.0019 23.7737 0.0019C20.8937 0.0019 18.2837 1.1619 16.9437 3.0919C16.6637 3.4619 16.6437 3.5419 16.6437 3.8919ZM16.1837 24.4319C17.5137 25.7619 19.4937 25.8119 20.7937 24.2519C21.7537 23.1019 24.1537 19.1919 26.2237 17.1319C27.3737 15.9819 28.9137 15.8419 29.7737 15.8419C33.0037 15.8419 34.2637 13.2519 33.8637 11.4619L29.7737 12.5419L29.3137 10.8719C29.1437 10.2519 29.4037 9.7319 30.1037 9.5419L33.1237 8.7319C33.0137 8.4619 32.7537 8.0619 32.4337 7.7219C30.5737 5.8419 27.4937 5.7919 25.6637 7.5419C22.9937 10.0719 25.0337 12.7819 23.2737 14.5419C21.0537 16.7519 17.9937 18.3619 16.3637 19.8119C14.8337 21.1819 14.8437 23.0919 16.1837 24.4319ZM24.2937 22.5719C26.2137 22.7819 28.0837 23.5119 29.5137 24.7419C29.7737 24.9819 30.0737 25.0719 30.4037 25.0719C31.0937 25.0719 31.4837 24.6919 31.4837 24.0619V17.5519C29.6637 18.3019 28.3437 17.6519 27.3937 18.5919C26.4937 19.5119 25.3037 21.1219 24.2937 22.5719ZM18.4537 23.1419C17.9137 23.1419 17.4637 22.6919 17.4637 22.1519C17.4637 21.6019 17.9137 21.1619 18.4537 21.1619C19.0137 21.1619 19.4537 21.6019 19.4537 22.1519C19.4537 22.6919 19.0137 23.1419 18.4537 23.1419Z" /></svg>