<svg viewBox="0 0 32.707209660264304 30.344508556692784" xmlns="http://www.w3.org/2000/svg"><path d="M19.7237 30.2607H23.1037C24.2037 30.2607 24.7837 29.6407 24.7837 28.5707V8.1507L27.1837 28.8307C27.3037 29.9007 27.9437 30.4607 29.0237 30.3207L31.2237 30.0107C32.2937 29.8707 32.8137 29.2207 32.6937 28.1407L30.0737 5.4507C29.9537 4.3907 29.3137 3.8307 28.2237 3.9807L26.0337 4.2907C25.4437 4.3607 25.0337 4.5907 24.7837 4.9507V1.6907C24.7837 0.6107 24.2037 0.0007 23.1037 0.0007H19.7237C18.6337 0.0007 18.0437 0.6107 18.0437 1.6907V28.5707C18.0437 29.6407 18.6337 30.2607 19.7237 30.2607ZM1.6837 30.2607H4.2637C5.3437 30.2607 5.9437 29.6407 5.9437 28.5707V5.4807C5.9437 4.4007 5.3437 3.7907 4.2637 3.7907H1.6837C0.5837 3.7907 0.0037 4.4007 0.0037 5.4807V28.5707C0.0037 29.6407 0.5837 30.2607 1.6837 30.2607ZM9.2237 30.2607H14.7637C15.8637 30.2607 16.4437 29.6407 16.4437 28.5707V10.1407C16.4437 9.0807 15.8637 8.4607 14.7637 8.4607H9.2237C8.1337 8.4607 7.5337 9.0807 7.5337 10.1407V28.5707C7.5337 29.6407 8.1337 30.2607 9.2237 30.2607ZM10.5237 13.3407C10.0337 13.3407 9.6637 12.9707 9.6637 12.5007C9.6637 12.0307 10.0337 11.6607 10.5237 11.6607H13.4937C13.9737 11.6607 14.3237 12.0307 14.3237 12.5007C14.3237 12.9707 13.9737 13.3407 13.4937 13.3407ZM10.5237 27.0707C10.0337 27.0707 9.6637 26.7007 9.6637 26.2207C9.6637 25.7607 10.0337 25.3907 10.5237 25.3907H13.4937C13.9737 25.3907 14.3237 25.7607 14.3237 26.2207C14.3237 26.7007 13.9737 27.0707 13.4937 27.0707Z" /></svg>