<svg viewBox="0 0 25.169921875 25.169921875" xmlns="http://www.w3.org/2000/svg"><path d="M4.2937 25.1692H20.8737C23.7437 25.1692 25.1737 23.7592 25.1737 20.9492V4.2392C25.1737 1.4192 23.7437 -0.0008 20.8737 -0.0008H4.2937C1.4337 -0.0008 0.0037 1.4192 0.0037 4.2392V20.9492C0.0037 23.7592 1.4337 25.1692 4.2937 25.1692ZM8.4237 20.0592C7.9537 20.0592 7.6537 19.7192 7.6537 19.1392V7.2692C7.6537 5.9092 8.3637 5.1792 9.7337 5.1792H15.4537C16.8337 5.1792 17.5437 5.9092 17.5437 7.2692V19.1392C17.5437 19.7192 17.2437 20.0592 16.7637 20.0592C16.3937 20.0592 16.1837 19.8392 15.5437 19.1992L12.6637 16.3792C12.6237 16.3392 12.5637 16.3392 12.5237 16.3792L9.6537 19.1992C8.9937 19.8392 8.7937 20.0592 8.4237 20.0592Z" /></svg>