<svg viewBox="0 0 27.890625 27.890625" xmlns="http://www.w3.org/2000/svg"><path d="M13.9427 27.8927C21.6427 27.8927 27.8927 21.6427 27.8927 13.9427C27.8927 6.2627 21.6427 0.0027 13.9427 0.0027C6.2627 0.0027 0.0027 6.2627 0.0027 13.9427C0.0027 21.6427 6.2627 27.8927 13.9427 27.8927ZM10.0727 7.9027C11.4527 7.9027 12.7027 8.4627 13.3527 9.3927C13.4827 9.5727 13.4927 9.5927 13.4927 9.7727V19.5827C13.4927 19.7427 13.3727 19.8527 13.2227 19.8527C13.1427 19.8527 13.0827 19.8227 13.0027 19.7527C12.2227 19.1027 11.2927 18.7827 10.3227 18.7827C9.1827 18.7827 8.0927 19.1827 7.3027 19.8627C7.1627 19.9727 7.0127 20.0327 6.8327 20.0327C6.5327 20.0327 6.3327 19.8427 6.3327 19.5527V10.2027C6.3327 9.9527 6.3327 9.8727 6.4127 9.7527C7.0827 8.5727 8.6127 7.9027 10.0727 7.9027ZM17.8327 7.9027C19.2927 7.9027 20.8227 8.5727 21.4927 9.7527C21.5727 9.8527 21.5927 9.9527 21.5927 10.2027V19.5527C21.5927 19.8427 21.3727 20.0327 21.0727 20.0327C20.8927 20.0327 20.7527 19.9727 20.6027 19.8627C19.8227 19.1827 18.7327 18.7827 17.5827 18.7827C16.6227 18.7827 15.6827 19.1027 14.9027 19.7527C14.8327 19.8227 14.7627 19.8527 14.6827 19.8527C14.5327 19.8527 14.4227 19.7427 14.4227 19.5827V9.7727C14.4227 9.5927 14.4227 9.5727 14.5427 9.3927C15.2127 8.4627 16.4427 7.9027 17.8327 7.9027Z" /></svg>