<svg viewBox="0 0 33.37542429235041 25.57544362881861" xmlns="http://www.w3.org/2000/svg"><path d="M1.5437 24.6823C2.0137 24.6823 2.4237 24.4023 2.9437 24.0923C4.4437 23.0623 6.2937 22.4323 8.1937 22.4523C9.9637 22.4623 11.7137 23.0323 13.1837 24.2423C12.7837 23.3423 12.6737 22.3523 12.9037 21.3923C11.5937 20.7023 9.9537 20.2523 8.2437 20.2523C5.8637 20.2523 3.6537 20.9223 2.2037 21.9523V4.8823C3.3037 3.2823 5.7137 2.2023 8.2437 2.2023C10.8437 2.2023 13.1137 3.2923 14.0837 4.9623V19.0823C14.5237 18.5523 15.7137 17.6523 16.2837 17.2523V4.9623C17.2637 3.2923 19.5337 2.2023 22.1337 2.2023C24.4637 2.2023 26.7037 3.1323 27.8737 4.5223C28.7137 4.4323 29.5537 4.5023 30.3637 4.7423C30.3637 4.3323 30.3537 4.1423 30.2137 3.9123C28.9837 1.7923 25.9037 0.0023 22.1337 0.0023C19.1537 0.0023 16.5737 1.1923 15.1937 2.8723C13.8037 1.1923 11.2237 0.0023 8.2437 0.0023C4.4737 0.0023 1.3937 1.7923 0.1637 3.9123C0.0237 4.1423 0.0037 4.3323 0.0037 4.5623V23.1223C0.0037 24.2423 0.7337 24.6823 1.5437 24.6823ZM15.6237 24.5823C16.9537 25.9123 18.9337 25.9623 20.2337 24.4023C21.1937 23.2523 23.5937 19.3423 25.6637 17.2823C26.8137 16.1323 28.3537 15.9923 29.2137 15.9923C32.4437 15.9923 33.7037 13.4023 33.3037 11.6123L29.2137 12.6923L28.7537 11.0223C28.5837 10.4023 28.8437 9.8823 29.5437 9.6923L32.5637 8.8823C32.4537 8.6123 32.1937 8.2123 31.8737 7.8723C30.0137 5.9923 26.9337 5.9423 25.1037 7.6923C22.4337 10.2223 24.4737 12.9323 22.7137 14.6923C20.4937 16.9023 17.4337 18.5123 15.8037 19.9623C14.2737 21.3323 14.2837 23.2423 15.6237 24.5823ZM28.8337 24.6823C29.6437 24.6823 30.3637 24.2423 30.3637 23.1223V17.8923C29.4637 18.1523 28.6937 18.1023 28.1637 18.2423V21.9523C27.4437 21.3923 26.4137 20.9323 25.2137 20.7023C24.7337 21.3323 24.2437 22.0023 23.8037 22.6423C25.1537 22.8323 26.4237 23.3523 27.4437 24.0923C27.9637 24.4023 28.3537 24.6823 28.8337 24.6823ZM17.8937 23.2923C17.3537 23.2923 16.8937 22.8423 16.8937 22.3023C16.8937 21.7523 17.3537 21.3123 17.8937 21.3123C18.4537 21.3123 18.8937 21.7523 18.8937 22.3023C18.8937 22.8423 18.4537 23.2923 17.8937 23.2923Z" /></svg>