<svg viewBox="0 0 32.935546875 27.26189615322232" xmlns="http://www.w3.org/2000/svg"><path d="M32.9327 16.3992C32.9327 7.7792 26.3227 0.7192 17.8927 -0.0008C17.4627 -0.0408 17.1327 0.2792 17.1327 0.7192V5.1892C17.1327 5.5592 17.3927 5.8392 17.7627 5.8692C22.9927 6.5092 27.0727 10.9792 27.0727 16.3992C27.0727 18.8592 26.2227 21.1292 24.7327 23.0292C24.5427 23.2592 24.5527 23.5592 24.7627 23.7792L28.0227 27.0292C28.3327 27.3292 28.7927 27.3292 29.0627 27.0092C31.4827 24.1392 32.9327 20.4292 32.9327 16.3992ZM0.0027 16.3992C0.0027 20.4392 1.4527 24.1492 3.8727 27.0192C4.1427 27.3492 4.5927 27.3292 4.9127 27.0292L8.1727 23.7792C8.3827 23.5592 8.3927 23.2592 8.2027 23.0292C6.7027 21.1292 5.8627 18.8592 5.8627 16.3992C5.8627 10.9792 9.9427 6.5092 15.1727 5.8692C15.5427 5.8392 15.8027 5.5592 15.8027 5.1892V0.7192C15.8027 0.2792 15.4727 -0.0408 15.0427 -0.0008C6.6127 0.7192 0.0027 7.7792 0.0027 16.3992ZM20.5127 23.1392C20.7427 23.1392 20.8727 22.9892 20.8727 22.7692V21.6992C22.6227 21.5792 23.7727 20.5492 23.7727 18.8992C23.7727 17.2692 22.7727 16.6292 21.4227 15.9892L20.8727 15.7292V12.3592C21.6927 12.4992 22.0527 13.1592 22.1927 13.8892C22.2427 14.1692 22.4727 14.4592 22.9027 14.4592C23.3127 14.4592 23.5827 14.1992 23.5827 13.7892C23.5827 13.6792 23.5527 13.4792 23.5327 13.3792C23.2027 11.8392 22.1527 11.2192 20.8727 11.1092V10.0692C20.8727 9.8492 20.7427 9.6992 20.5127 9.6992C20.2927 9.6992 20.1427 9.8492 20.1427 10.0692V11.1092C18.5227 11.2392 17.3727 12.2392 17.3727 13.8292C17.3727 15.2892 18.2127 16.0592 19.6827 16.7492L20.1427 16.9692V20.4392C19.2727 20.3192 18.8427 19.7892 18.6727 18.8592C18.6027 18.4792 18.3027 18.2792 17.9927 18.2792C17.5527 18.2792 17.2627 18.5292 17.2627 18.9692C17.2627 19.0792 17.2927 19.2392 17.3227 19.3792C17.6627 20.9192 18.8027 21.5892 20.1427 21.6992V22.7692C20.1427 22.9892 20.2927 23.1392 20.5127 23.1392ZM10.3727 22.0292C10.8727 22.0292 11.1527 21.7192 11.1527 21.2192V17.5192H12.8527L14.5327 21.4592C14.6927 21.8392 14.9127 22.0292 15.3227 22.0292C15.7627 22.0292 16.0627 21.7392 16.0627 21.3092C16.0627 21.0992 15.9827 20.9092 15.9027 20.7292L14.3527 17.1892C15.5627 16.6592 16.0927 15.4492 16.0927 14.1992C16.0927 12.0892 14.7827 10.9292 12.7727 10.9292H10.3627C9.8827 10.9292 9.5927 11.2292 9.5927 11.7192V21.2192C9.5927 21.6892 9.8427 22.0292 10.3727 22.0292ZM11.1527 16.2692V12.2092H12.6227C13.8627 12.2092 14.5327 13.0092 14.5327 14.2192C14.5327 15.4292 13.9427 16.2692 12.6327 16.2692ZM18.8427 13.7392C18.8427 12.9192 19.3727 12.4592 20.1427 12.3492V15.3692C19.3827 14.9792 18.8427 14.5092 18.8427 13.7392ZM22.3027 19.0392C22.3027 19.9092 21.7827 20.3792 20.8727 20.4592V17.3292C21.6727 17.7192 22.3027 18.1492 22.3027 19.0392Z" /></svg>