<svg viewBox="0 0 34.220703125 30.830078125" xmlns="http://www.w3.org/2000/svg"><path d="M26.5537 30.833C27.0737 30.833 27.4537 30.463 27.4537 29.943V27.533C31.2837 27.273 34.2237 25.073 34.2237 21.133C34.2237 17.393 31.6337 15.863 28.3937 14.573L27.4537 14.193V5.593C29.5537 5.893 30.8337 7.303 31.2637 9.493C31.4337 10.183 31.8937 10.613 32.6037 10.613C33.3637 10.613 33.8537 10.103 33.8537 9.363C33.8537 9.163 33.8237 8.773 33.7537 8.463C33.0437 5.263 30.5437 3.513 27.4537 3.243V0.903C27.4537 0.383 27.0737 0.003 26.5537 0.003C26.0137 0.003 25.6437 0.383 25.6437 0.903V3.243C22.1637 3.553 19.3137 5.733 19.3137 9.433C19.3137 12.893 21.7237 14.673 24.9337 15.923L25.6437 16.213V25.153C23.3237 24.873 21.9337 23.543 21.4737 21.123C21.3237 20.413 20.8737 19.973 20.1637 19.973C19.4037 19.973 18.9037 20.463 18.9037 21.233C18.9037 21.523 18.9337 21.763 18.9937 22.013C19.6637 25.403 22.3237 27.223 25.6437 27.523V29.943C25.6437 30.463 26.0137 30.833 26.5537 30.833ZM1.3637 28.243C2.2137 28.243 2.7337 27.703 2.7337 26.853V17.633H7.4337C7.5737 17.633 7.7237 17.633 7.8337 17.623L12.4537 27.383C12.7537 28.013 13.1537 28.243 13.8237 28.243C14.5837 28.243 15.1337 27.713 15.1337 27.003C15.1337 26.743 15.0437 26.413 14.8737 26.063L10.5237 17.063C13.5537 15.993 15.1437 13.343 15.1437 10.133C15.1437 5.583 12.0737 2.803 7.4637 2.803H1.3437C0.5237 2.803 0.0037 3.353 0.0037 4.213V26.853C0.0037 27.703 0.5237 28.243 1.3637 28.243ZM2.7337 15.253V5.223H7.1537C10.3637 5.223 12.3837 7.003 12.3837 10.213C12.3837 13.303 10.6137 15.253 7.2337 15.253ZM21.9337 9.283C21.9337 7.153 23.5837 5.893 25.6437 5.603V13.463C23.6637 12.623 21.9337 11.473 21.9337 9.283ZM31.5937 21.373C31.5937 23.763 29.8637 24.983 27.4537 25.183V16.923C29.7237 17.833 31.5937 18.893 31.5937 21.373Z" /></svg>