<svg viewBox="0 0 30.544813437289534 27.890625" xmlns="http://www.w3.org/2000/svg"><path d="M0.9769 11.3064C-0.0131 11.3064 -0.2531 11.9764 0.2769 12.7464L3.3369 17.0864C3.7869 17.7164 4.4469 17.7064 4.8869 17.0864L7.9269 12.7264C8.4669 11.9764 8.2069 11.3064 7.2469 11.3064H5.2769C6.4669 6.1564 11.0769 2.3264 16.5969 2.3264C23.0269 2.3264 28.2169 7.5164 28.2169 13.9464C28.2169 20.3664 23.0269 25.5664 16.5969 25.5664C12.7169 25.5664 9.2569 23.6564 7.1969 20.7564C6.7669 20.1964 6.1269 20.0164 5.5569 20.3564C5.0069 20.6964 4.8369 21.4664 5.3069 22.0664C7.8369 25.6064 11.9769 27.8864 16.5969 27.8864C24.2969 27.8864 30.5469 21.6464 30.5469 13.9464C30.5469 6.2464 24.2969 -0.0036 16.5969 -0.0036C9.8069 -0.0036 4.1269 4.8664 2.8969 11.3064ZM20.6569 20.4964C20.8769 20.4964 21.0269 20.3564 21.0269 20.1264V19.0764C22.7769 18.9464 23.9269 17.9264 23.9269 16.2664C23.9269 14.6464 22.9169 13.9864 21.5669 13.3464L21.0269 13.0964V9.7164C21.8469 9.8664 22.1869 10.5164 22.3269 11.2664C22.3969 11.5264 22.6269 11.8164 23.0369 11.8164C23.4669 11.8164 23.7369 11.5664 23.7369 11.1464C23.7369 11.0464 23.7069 10.8564 23.6769 10.7364C23.3569 9.2164 22.2869 8.5764 21.0269 8.4764V7.4364C21.0269 7.2064 20.8769 7.0664 20.6569 7.0664C20.4269 7.0664 20.2869 7.2064 20.2869 7.4364V8.4764C18.6769 8.6164 17.5269 9.5964 17.5269 11.1964C17.5269 12.6464 18.3469 13.4164 19.8269 14.1064L20.2869 14.3264V17.8164C19.4169 17.6864 18.9969 17.1464 18.8269 16.2164C18.7469 15.8464 18.4569 15.6564 18.1269 15.6564C17.7069 15.6564 17.4169 15.8964 17.4169 16.3264C17.4169 16.4464 17.4469 16.6064 17.4769 16.7364C17.8169 18.2964 18.9369 18.9664 20.2869 19.0764V20.1264C20.2869 20.3564 20.4269 20.4964 20.6569 20.4964ZM10.5269 19.3864C11.0169 19.3864 11.3069 19.0764 11.3069 18.5764V14.8764H13.0069L14.6669 18.8264C14.8469 19.2064 15.0669 19.3864 15.4669 19.3864C15.9169 19.3864 16.2169 19.0964 16.2169 18.6664C16.2169 18.4564 16.1369 18.2764 16.0569 18.1064L14.5069 14.5464C15.7069 14.0264 16.2469 12.8064 16.2469 11.5564C16.2469 9.4464 14.9169 8.2864 12.9069 8.2864H10.5169C10.0369 8.2864 9.7469 8.5964 9.7469 9.0764V18.5764C9.7469 19.0464 9.9869 19.3864 10.5269 19.3864ZM11.3069 13.6264V9.5864H12.7569C13.9969 9.5864 14.6869 10.3664 14.6869 11.5964C14.6869 12.7964 14.0869 13.6264 12.7869 13.6264ZM18.9969 11.1064C18.9969 10.2964 19.5269 9.8264 20.2869 9.7164V12.7264C19.5369 12.3464 18.9969 11.8764 18.9969 11.1064ZM22.4469 16.3964C22.4469 17.2764 21.9269 17.7364 21.0269 17.8264V14.6964C21.8069 15.0764 22.4469 15.5164 22.4469 16.3964Z" /></svg>