<svg viewBox="0 0 27.890625 27.890625" xmlns="http://www.w3.org/2000/svg"><path d="M13.9427 27.8927C21.6427 27.8927 27.8927 21.6427 27.8927 13.9427C27.8927 6.2627 21.6427 0.0027 13.9427 0.0027C6.2627 0.0027 0.0027 6.2627 0.0027 13.9427C0.0027 21.6427 6.2627 27.8927 13.9427 27.8927ZM5.9327 11.5827V11.0227C5.9327 9.5427 6.6727 8.8227 8.1527 8.8227H9.6527V8.1027C9.6527 6.9827 10.3927 6.3027 11.5427 6.3027H16.3827C17.5227 6.3027 18.2627 6.9827 18.2627 8.1027V8.8227H19.7727C21.2427 8.8227 22.0027 9.5427 22.0027 11.0227V11.5827C19.3327 12.6627 16.7627 13.0427 13.9627 13.0427C11.1527 13.0427 8.5827 12.6627 5.9327 11.5827ZM11.0027 8.8227H16.9127V8.1727C16.9127 7.8027 16.6627 7.5927 16.2827 7.5927H11.6327C11.2427 7.5927 11.0027 7.8027 11.0027 8.1727ZM5.9327 18.0327V12.8427C8.0427 13.6027 10.0227 13.9727 12.0427 14.1127V14.6827C12.0427 15.1927 12.3327 15.4927 12.8227 15.4927H15.0927C15.5827 15.4927 15.8727 15.1927 15.8727 14.6827V14.1127C17.8927 13.9727 19.8827 13.6027 22.0027 12.8427V18.0327C22.0027 19.5227 21.2427 20.2527 19.7727 20.2527H8.1527C6.6727 20.2527 5.9327 19.5227 5.9327 18.0327Z" /></svg>