<svg viewBox="0 0 39.265625 31.28125" xmlns="http://www.w3.org/2000/svg"><path d="M0.0037 16.7444C0.0037 20.7544 2.1837 22.9944 6.2637 22.9944H6.9137V26.5644C6.9137 27.6144 7.4537 28.2844 8.4037 28.2844C9.0737 28.2844 9.5437 27.9344 10.3737 27.2044L13.5637 24.3744C13.0037 23.2444 12.7037 21.8744 12.7037 20.3044V12.9044C12.7037 8.0144 15.5737 5.0444 20.5637 5.0444H29.9937V4.7744C29.5137 1.7244 27.3937 0.0044 23.8737 0.0044H6.2637C2.1837 0.0044 0.0037 2.2544 0.0037 6.2644ZM20.5637 26.2944H24.9937L29.5537 30.2044C30.3937 30.9144 30.8437 31.2844 31.5037 31.2844C32.4437 31.2844 32.9737 30.6144 32.9737 29.5744V26.2944H33.2637C37.2037 26.2944 39.2637 24.1744 39.2637 20.3044V12.9044C39.2637 9.0244 37.2037 6.9044 33.2637 6.9044H20.5637C16.6237 6.9044 14.5637 9.0244 14.5637 12.9044V20.3044C14.5637 24.1844 16.6237 26.2944 20.5637 26.2944ZM26.9237 18.1144C26.3037 18.1144 25.9737 17.7744 25.9637 17.1444L25.8037 12.6744C25.7737 12.0044 26.2537 11.5344 26.9037 11.5344C27.5637 11.5344 28.0537 12.0144 28.0237 12.6844L27.8637 17.1444C27.8337 17.7844 27.5037 18.1144 26.9237 18.1144ZM26.9037 22.0144C26.2137 22.0144 25.5937 21.4344 25.5937 20.7444C25.5937 20.0444 26.1937 19.4644 26.9037 19.4644C27.6337 19.4644 28.2337 20.0244 28.2337 20.7444C28.2337 21.4544 27.6137 22.0144 26.9037 22.0144Z" /></svg>