<svg viewBox="0 0 30.1328125 28.423828125" xmlns="http://www.w3.org/2000/svg"><path d="M15.0437 -0.0011C14.4237 -0.0011 13.8537 0.2589 13.3037 1.1989L10.7737 5.4289H6.2637C2.1837 5.4289 0.0037 7.6689 0.0037 11.6889V22.1589C0.0037 26.1789 2.1837 28.4189 6.2637 28.4189H23.8737C27.9437 28.4189 30.1337 26.1689 30.1337 22.1589V11.6889C30.1337 7.6789 27.9437 5.4289 23.8737 5.4289H19.3037L16.7737 1.1989C16.2237 0.2589 15.6537 -0.0011 15.0437 -0.0011ZM15.0437 2.2389L17.3237 6.5189C17.7737 7.4089 18.1037 7.6289 19.0737 7.6289H23.8737C26.6237 7.6289 27.9337 9.0189 27.9337 11.6889V22.1489C27.9337 24.8189 26.6237 26.2189 23.8737 26.2189H6.2637C3.5037 26.2189 2.2037 24.8189 2.2037 22.1489V11.6889C2.2037 9.0189 3.5037 7.6289 6.2637 7.6289H11.0037C11.9737 7.6289 12.3037 7.4089 12.7537 6.5189Z" /></svg>