<svg viewBox="0 0 27.890625 27.890625" xmlns="http://www.w3.org/2000/svg"><path d="M0.0027 13.9464C0.0027 21.5564 6.3327 27.8864 13.9427 27.8864C21.5727 27.8864 27.8927 21.5564 27.8927 13.9464C27.8927 6.3164 21.5627 -0.0036 13.9327 -0.0036C6.3127 -0.0036 0.0027 6.3164 0.0027 13.9464ZM2.3427 13.9464H13.9227L8.1227 3.8664C9.8127 2.8664 11.8127 2.3264 13.9327 2.3264C16.0527 2.3264 18.0427 2.8664 19.7427 3.8664L13.9227 13.9464H25.5627C25.5827 18.2764 23.2427 22.0364 19.7527 24.0264L13.9227 13.9464L8.1227 24.0064C4.6527 22.0164 2.3427 18.2664 2.3427 13.9464Z" /></svg>