<svg viewBox="0 0 30.43359375 31.896484375" xmlns="http://www.w3.org/2000/svg"><path d="M15.2137 26.3362C11.1937 26.3362 7.7937 26.1562 5.2737 25.8562C4.1137 25.7162 3.7037 25.1162 3.7037 24.0662V4.0562C3.7037 3.0262 4.2537 2.3962 5.2737 2.2662C7.7337 1.9662 11.3737 1.7862 15.2137 1.7862C19.0137 1.7862 22.6537 1.9662 25.1537 2.2662C26.3137 2.4062 26.7437 3.0062 26.7437 4.0562V24.0662C26.7437 25.1162 26.3137 25.7162 25.1537 25.8562C22.6037 26.1562 19.1937 26.3362 15.2137 26.3362ZM6.3737 18.6662C11.7037 19.4962 18.7037 19.5062 24.0737 18.6662C24.9337 18.5162 25.3437 18.0362 25.3437 17.1162V5.3562C25.3437 4.3362 24.8837 3.7762 23.8937 3.6762C18.4937 3.1262 11.9737 3.1462 6.5637 3.6762C5.5937 3.7762 5.1037 4.3362 5.1037 5.3562V17.1162C5.1037 18.0362 5.5237 18.5162 6.3737 18.6662ZM1.9137 24.6062C1.9137 25.4562 2.1637 26.1362 2.6137 26.6362V30.0962C2.6137 31.1062 3.3937 31.8962 4.4137 31.8962H6.0337C7.0537 31.8962 7.8437 31.1062 7.8437 30.0962V27.8862C10.1037 28.0362 12.5737 28.1262 15.2137 28.1262C17.8537 28.1262 20.3437 28.0362 22.6037 27.8862V30.0962C22.6037 31.1062 23.3837 31.8962 24.4037 31.8962H26.0137C27.0437 31.8962 27.8337 31.1062 27.8337 30.0962V26.6362C28.2837 26.1362 28.5337 25.4562 28.5337 24.6062V13.0662H29.1337C29.9037 13.0662 30.4337 12.6062 30.4337 11.8762V6.2662C30.4337 5.5362 29.9037 5.0562 29.1337 5.0562H28.5337V3.5162C28.5337 1.7462 27.4937 0.7362 25.6337 0.5162C22.7737 0.1762 18.9737 -0.0038 15.2137 -0.0038C11.4537 -0.0038 7.6437 0.1962 4.8037 0.5162C2.9437 0.7362 1.9137 1.7462 1.9137 3.5162V5.0562H1.3037C0.5337 5.0562 0.0037 5.5362 0.0037 6.2662V11.8762C0.0037 12.6062 0.5337 13.0662 1.3037 13.0662H1.9137ZM7.4137 24.2162C8.3537 24.2162 9.0637 23.4862 9.0637 22.5562C9.0637 21.6162 8.3537 20.9062 7.4137 20.9062C6.4637 20.9062 5.7537 21.6162 5.7537 22.5562C5.7537 23.4862 6.4637 24.2162 7.4137 24.2162ZM23.0237 24.2162C23.9637 24.2162 24.6937 23.4862 24.6937 22.5562C24.6937 21.6162 23.9637 20.9062 23.0237 20.9062C22.0937 20.9062 21.3837 21.6162 21.3837 22.5562C21.3837 23.4862 22.0937 24.2162 23.0237 24.2162ZM11.9637 23.7162H18.4537C19.1537 23.7162 19.6437 23.2262 19.6437 22.5362C19.6437 21.8162 19.1537 21.3462 18.4537 21.3462H11.9637C11.2537 21.3462 10.7637 21.8162 10.7637 22.5362C10.7637 23.2262 11.2537 23.7162 11.9637 23.7162Z" /></svg>