<svg viewBox="0 0 29.12109375 33.03125" xmlns="http://www.w3.org/2000/svg"><path d="M4.4137 33.0309H6.0337C7.0537 33.0309 7.8437 32.2409 7.8437 31.2309V29.0109C10.0537 29.1709 12.4537 29.2609 14.5637 29.2609C16.6637 29.2609 19.0737 29.1709 21.2737 29.0109V31.2309C21.2737 32.2409 22.0637 33.0309 23.0937 33.0309H24.6937C25.7137 33.0309 26.5137 32.2409 26.5137 31.2309V27.7709C26.9637 27.2709 27.2037 26.6009 27.2037 25.7409V16.3109H27.8237C28.5837 16.3109 29.1237 15.8309 29.1237 15.1209V10.4609C29.1237 9.7309 28.5837 9.2509 27.8237 9.2509H27.2037V3.5009C27.2037 1.7509 26.1637 0.7209 24.3237 0.5209C21.5337 0.1909 17.6937 0.0009 14.5637 0.0009C11.4137 0.0009 7.5737 0.1909 4.8037 0.5209C2.9437 0.7209 1.9137 1.7509 1.9137 3.5009V9.2509H1.3037C0.5337 9.2509 0.0037 9.7309 0.0037 10.4609V15.1209C0.0037 15.8309 0.5337 16.3109 1.3037 16.3109H1.9137V25.7409C1.9137 26.6009 2.1437 27.2709 2.6137 27.7709V31.2309C2.6137 32.2409 3.3937 33.0309 4.4137 33.0309ZM14.5637 27.4709C11.2937 27.4709 7.6537 27.2709 5.2737 26.9909C4.1137 26.8509 3.7037 26.2509 3.7037 25.2009V4.0509C3.7037 3.0109 4.1137 2.4109 5.2737 2.2709C7.6537 1.9709 11.2937 1.7909 14.5637 1.7909C17.7737 1.7909 21.4137 1.9709 23.8437 2.2709C25.0037 2.4109 25.4137 3.0109 25.4137 4.0509V25.2009C25.4137 26.2509 25.0037 26.8509 23.8437 26.9909C21.4137 27.2709 17.7737 27.4709 14.5637 27.4709ZM5.1137 11.0909H24.0037V5.5009C24.0037 4.4609 23.5337 3.9109 22.4237 3.7709C17.7037 3.2709 11.4137 3.2709 6.7137 3.7709C5.6037 3.9109 5.1137 4.4609 5.1137 5.5009ZM5.1137 12.9509V18.3909C5.1137 19.3009 5.5337 19.7709 6.3837 19.9209C10.5437 20.6309 18.4337 20.6709 22.7337 19.9209C23.4837 19.7809 24.0037 19.3009 24.0037 18.3909V12.9509ZM7.2337 25.3509C8.1037 25.3509 8.7737 24.6609 8.7737 23.8009C8.7737 22.9309 8.1037 22.2609 7.2337 22.2609C6.3737 22.2609 5.6837 22.9309 5.6837 23.8009C5.6837 24.6609 6.3737 25.3509 7.2337 25.3509ZM21.8937 25.3509C22.7537 25.3509 23.4337 24.6609 23.4337 23.8009C23.4337 22.9309 22.7537 22.2609 21.8937 22.2609C21.0137 22.2609 20.3437 22.9309 20.3437 23.8009C20.3437 24.6609 21.0137 25.3509 21.8937 25.3509ZM11.9037 24.9409H17.1837C17.8437 24.9409 18.3337 24.4409 18.3337 23.7909C18.3337 23.1209 17.8537 22.6409 17.1837 22.6409H11.9037C11.2337 22.6409 10.7637 23.1209 10.7637 23.7909C10.7637 24.4409 11.2537 24.9409 11.9037 24.9409Z" /></svg>