<svg viewBox="0 0 29.9140625 33.373046875" xmlns="http://www.w3.org/2000/svg"><path d="M29.9137 7.3281C29.9137 2.8581 26.9437 -0.0019 22.3137 -0.0019H18.4937C14.4337 -0.0019 11.8437 3.0581 11.8437 7.3281V10.8381L14.0437 12.7881V7.3281C14.0437 4.4181 15.7737 2.1981 18.4937 2.1981C21.2037 2.1981 22.9437 4.4181 22.9437 7.3281V26.0581C22.9437 28.9681 21.2037 31.1681 18.4937 31.1681C15.7737 31.1681 14.0437 28.9681 14.0437 26.0581V20.6081L11.8437 22.5481V26.0581C11.8437 30.3081 14.4337 33.3681 18.4937 33.3681H22.3137C26.9437 33.3681 29.9137 30.5181 29.9137 26.0581ZM25.1437 7.3281C25.1437 5.3181 24.5637 3.5781 23.5437 2.3081C26.1137 2.7481 27.7137 4.6181 27.7137 7.3281V26.0581C27.7137 28.7681 26.1137 30.6381 23.5437 31.0781C24.5637 29.7881 25.1437 28.0581 25.1437 26.0581ZM14.6737 17.5281C15.2437 17.0181 15.2337 16.3381 14.6737 15.8481L10.5237 12.1681C9.6937 11.4281 8.5537 11.9081 8.5537 13.0281V15.5281H1.1737C0.5037 15.5281 0.0037 16.0381 0.0037 16.7081C0.0037 17.3481 0.5037 17.8681 1.1737 17.8681H8.5537V20.3481C8.5537 21.5081 9.7337 21.9181 10.5237 21.1881Z" /></svg>