<svg viewBox="0 0 27.890625 27.890625" xmlns="http://www.w3.org/2000/svg"><path class="base" fill="var(--dark-grey-color, #606060)" d="M13.9427 27.8864C21.6427 27.8864 27.8927 21.6464 27.8927 13.9464C27.8927 6.2464 21.6427 -0.0036 13.9427 -0.0036C6.2527 -0.0036 0.0027 6.2464 0.0027 13.9464C0.0027 21.6464 6.2527 27.8864 13.9427 27.8864ZM13.9427 25.5664C7.5227 25.5664 2.3227 20.3664 2.3227 13.9464C2.3227 7.5164 7.5227 2.3264 13.9427 2.3264C20.3727 2.3264 25.5627 7.5164 25.5627 13.9464C25.5627 20.3664 20.3727 25.5664 13.9427 25.5664Z" /><path class="badge" fill="var(--red-color, #f44336)" d="M13.9327 23.4864C19.2127 23.4864 23.4727 19.2264 23.4727 13.9464C23.4727 8.6664 19.2127 4.4064 13.9327 4.4064C8.6527 4.4064 4.3927 8.6664 4.3927 13.9464C4.3927 19.2264 8.6527 23.4864 13.9327 23.4864Z" /></svg>