<svg viewBox="0 0 25.169921875 25.169921875" xmlns="http://www.w3.org/2000/svg"><path d="M4.2937 25.1692H20.8737C23.7437 25.1692 25.1737 23.7592 25.1737 20.9492V4.2392C25.1737 1.4192 23.7437 -0.0008 20.8737 -0.0008H4.2937C1.4337 -0.0008 0.0037 1.4192 0.0037 4.2392V20.9492C0.0037 23.7592 1.4337 25.1692 4.2937 25.1692ZM12.6237 19.1992C8.9437 19.1992 6.6137 16.5692 6.6137 12.4592C6.6137 8.3392 8.9537 5.6992 12.6237 5.6992C15.1037 5.6992 17.1037 6.8892 17.7837 8.7792C17.8837 9.0392 17.9137 9.1992 17.9137 9.4292C17.9137 10.0392 17.5237 10.4092 16.9437 10.4092C16.5037 10.4092 16.2237 10.1992 15.9937 9.7192C15.4037 8.3292 14.2337 7.5692 12.6437 7.5692C10.4037 7.5692 8.9037 9.5392 8.9037 12.4592C8.9037 15.3692 10.4037 17.3192 12.6437 17.3192C14.2337 17.3192 15.4037 16.5692 15.9937 15.1892C16.2237 14.7092 16.5037 14.4892 16.9437 14.4892C17.5237 14.4892 17.9137 14.8592 17.9137 15.4592C17.9137 15.6692 17.8837 15.8592 17.7837 16.1192C17.1037 18.0192 15.1237 19.1992 12.6237 19.1992Z" /></svg>