<svg viewBox="0 0 23.013268995556203 31.19921875" xmlns="http://www.w3.org/2000/svg"><path d="M8.8449 4.6807H14.1849V1.6807C14.1849 0.4807 13.6949 0.0007 12.4949 0.0007H10.5349C9.3349 0.0007 8.8449 0.4807 8.8449 1.6807ZM21.2149 26.8507C21.6349 27.2607 22.3049 27.2607 22.7049 26.8507C23.1049 26.4407 23.1249 25.7707 22.7049 25.3607L1.8049 4.4707C1.3949 4.0607 0.7049 4.0507 0.2949 4.4707C-0.0951 4.8707 -0.0951 5.5507 0.2949 5.9607ZM15.9749 16.3607V7.9607C15.9749 6.7707 15.5049 6.2707 14.2949 6.2707H8.7349C7.8749 6.2707 7.3749 6.5507 7.2049 7.1207V7.6007ZM10.3749 31.2007H12.6749V20.8807H12.9749L7.0549 14.9607V18.4707C7.0549 19.6707 7.5249 20.1507 8.7349 20.1507H10.3749Z" /></svg>