<svg viewBox="0 0 32.23828125 25.169921875" xmlns="http://www.w3.org/2000/svg"><path d="M30.0337 11.6592H32.2337V4.2392C32.2337 1.4192 30.8137 -0.0008 27.9437 -0.0008H17.0737V2.1992H27.9137C29.2737 2.1992 30.0337 2.9392 30.0337 4.3592ZM0.0037 11.6592H2.2037V4.3592C2.2037 2.9392 2.9537 2.1992 4.3237 2.1992H15.2037V-0.0008H4.2937C1.4337 -0.0008 0.0037 1.4192 0.0037 4.2392ZM16.1437 20.1892C20.3537 20.1892 23.7637 16.7792 23.7637 12.5792C23.7637 8.3692 20.3537 4.9492 16.1437 4.9492C11.9337 4.9492 8.5337 8.3692 8.5337 12.5792C8.5337 16.7792 11.9337 20.1892 16.1437 20.1892ZM16.1437 18.4292C12.9237 18.4292 10.2937 15.8092 10.2937 12.5792C10.2937 9.3492 12.9237 6.7292 16.1437 6.7292C19.3737 6.7292 21.9937 9.3492 21.9937 12.5792C21.9937 15.8092 19.3737 18.4292 16.1437 18.4292ZM16.1437 16.4592C18.3037 16.4592 20.0437 14.7292 20.0437 12.5792C20.0437 10.4192 18.3037 8.6792 16.1437 8.6792C14.0037 8.6792 12.2537 10.4192 12.2537 12.5792C12.2537 14.7292 14.0037 16.4592 16.1437 16.4592ZM4.2937 25.1692H15.2037V22.9692H4.3237C2.9537 22.9692 2.2037 22.2392 2.2037 20.8192V13.5192H0.0037V20.9492C0.0037 23.7592 1.4337 25.1692 4.2937 25.1692ZM17.0737 25.1692H27.9437C30.8137 25.1692 32.2337 23.7592 32.2337 20.9492V13.5192H30.0337V20.8192C30.0337 22.2392 29.2737 22.9692 27.9137 22.9692H17.0737Z" /></svg>