<svg viewBox="0 0 27.890625 27.890625" xmlns="http://www.w3.org/2000/svg"><path d="M13.9427 27.8927C21.6427 27.8927 27.8927 21.6427 27.8927 13.9427C27.8927 6.2627 21.6427 0.0027 13.9427 0.0027C6.2627 0.0027 0.0027 6.2627 0.0027 13.9427C0.0027 21.6427 6.2627 27.8927 13.9427 27.8927ZM7.6527 20.3127C6.1627 20.3127 5.4127 19.5827 5.4127 18.1127V10.6627C5.4127 9.1727 6.1627 8.4527 7.6527 8.4527H9.4327C9.9827 8.4527 10.1427 8.3127 10.4627 7.9827L11.0427 7.3427C11.4027 6.9427 11.7727 6.7427 12.4927 6.7427H15.3427C16.0827 6.7427 16.4427 6.9427 16.7927 7.3427L17.3627 7.9827C17.6827 8.3427 17.8727 8.4527 18.4127 8.4527H20.2327C21.7127 8.4527 22.4727 9.1727 22.4727 10.6627V18.1127C22.4727 19.5827 21.7127 20.3127 20.2327 20.3127ZM13.9627 18.5427C16.2927 18.5427 18.1727 16.7227 18.1727 14.3127C18.1727 11.9727 16.2927 10.0927 13.9627 10.0927C11.6227 10.0927 9.7327 11.9727 9.7327 14.3127C9.7327 16.6827 11.6227 18.5427 13.9627 18.5427ZM19.8527 12.0827C20.3727 12.0827 20.8127 11.6527 20.8127 11.1327C20.8127 10.5927 20.3727 10.1627 19.8527 10.1627C19.3327 10.1627 18.8927 10.5927 18.8927 11.1327C18.8927 11.6527 19.3327 12.0827 19.8527 12.0827ZM13.9427 17.3227C12.2927 17.3227 10.9327 15.9827 10.9327 14.3127C10.9327 12.6427 12.2927 11.3027 13.9427 11.3027C15.6027 11.3027 16.9527 12.6427 16.9527 14.3127C16.9527 15.9827 15.6027 17.3227 13.9427 17.3227Z" /></svg>