<svg viewBox="0 0 31.6534266031654 30.9189453125" xmlns="http://www.w3.org/2000/svg"><path d="M18.3243 14.201C22.3543 13.221 24.8843 9.691 24.8843 5.481C24.8843 3.981 24.5743 2.431 23.9143 0.891C23.6143 0.231 22.8443 0.141 22.3143 0.671L19.2543 3.791L16.6443 0.411C16.2143 -0.139 15.5143 -0.139 15.0943 0.411L12.4843 3.791L9.4043 0.671C8.8843 0.141 8.0943 0.231 7.8243 0.891C7.5043 1.631 7.2843 2.351 7.1543 3.081ZM29.4743 30.611C29.8843 31.021 30.5743 31.021 30.9643 30.611C31.3743 30.191 31.3743 29.531 30.9643 29.121L2.5043 0.701C2.0943 0.291 1.4143 0.271 1.0043 0.701C0.6043 1.091 0.6043 1.791 1.0043 2.191ZM28.3343 24.241C29.7543 22.721 30.8743 20.961 31.5443 19.021C31.8443 18.181 31.5243 17.651 30.6443 17.651C27.9343 17.651 25.5143 18.281 23.4443 19.331ZM12.9943 29.261C12.9243 29.021 12.8843 28.751 12.8843 28.481V23.251C10.3143 19.921 6.1943 17.651 1.0143 17.651C0.1243 17.651 -0.1857 18.181 0.1143 19.021C1.9443 24.321 7.0243 28.311 12.9943 29.261ZM15.8443 29.501C18.7743 29.501 21.5943 28.761 24.0243 27.441L19.2343 22.651C18.5043 23.411 17.5743 24.751 16.9543 26.151V20.381L14.7543 18.181V28.481C14.7543 29.091 15.2343 29.501 15.8443 29.501Z" /></svg>