<svg viewBox="0 0 35.423828125 28.642578125" xmlns="http://www.w3.org/2000/svg"><path d="M4.2937 22.3119H6.9037V24.4019C6.9037 27.2219 8.3237 28.6419 11.1937 28.6419H31.1437C34.0037 28.6419 35.4237 27.2219 35.4237 24.4019V11.8519C35.4237 9.0419 34.0037 7.6319 31.1437 7.6319H29.3837C29.0237 7.6319 28.7537 7.6019 28.5237 7.5619V4.2419C28.5237 1.4219 27.0837 0.0019 24.2437 0.0019H4.2937C1.4237 0.0019 0.0037 1.4219 0.0037 4.2419V18.0719C0.0037 20.8919 1.4237 22.3119 4.2937 22.3119ZM4.3237 20.1119C2.9537 20.1119 2.2037 19.3719 2.2037 17.9519V4.3619C2.2037 2.9419 2.9537 2.2019 4.3237 2.2019H24.2037C25.5537 2.2019 26.3137 2.9419 26.3137 4.3619V5.6319C25.6737 4.9719 25.0337 4.6719 24.0337 4.6719H18.3037C17.2237 4.6719 16.5737 5.0319 15.8637 5.7919L14.8937 6.8619C14.2837 7.5019 13.9737 7.6319 12.9437 7.6319H11.1937C8.3237 7.6319 6.9037 9.0419 6.9037 11.8519V20.1119ZM11.2237 26.4419C9.8537 26.4419 9.1037 25.7019 9.1037 24.2819V11.9719C9.1037 10.5519 9.8537 9.8319 11.2237 9.8319H13.4837C14.6537 9.8319 15.3837 9.5819 16.0737 8.8319L17.2537 7.5319C17.6937 7.0819 18.1037 6.8819 18.8437 6.8819H23.4837C24.2437 6.8819 24.6337 7.0819 25.0737 7.5319L26.2637 8.8319C26.9637 9.5819 27.6737 9.8319 28.8437 9.8319H31.1037C32.4737 9.8319 33.2237 10.5519 33.2237 11.9719V24.2819C33.2237 25.7019 32.4737 26.4419 31.1037 26.4419ZM21.1737 24.5919C24.8237 24.5919 27.7937 21.6419 27.7937 17.9619C27.7937 14.3119 24.8237 11.3519 21.1737 11.3519C17.5137 11.3519 14.5637 14.3119 14.5637 17.9619C14.5637 21.6419 17.5137 24.5919 21.1737 24.5919ZM30.0637 14.6519C30.8937 14.6519 31.5537 13.9819 31.5537 13.1619C31.5537 12.3419 30.8937 11.6619 30.0637 11.6619C29.2437 11.6619 28.5637 12.3419 28.5637 13.1619C28.5637 13.9819 29.2437 14.6519 30.0637 14.6519ZM21.1737 22.5019C18.6937 22.5019 16.6537 20.4619 16.6537 17.9619C16.6537 15.4719 18.6937 13.4519 21.1737 13.4519C23.6637 13.4519 25.6937 15.4719 25.6937 17.9619C25.6937 20.4619 23.6637 22.5019 21.1737 22.5019Z" /></svg>