<svg viewBox="0 0 35.3828125 27.80859375" xmlns="http://www.w3.org/2000/svg"><path d="M0.0037 10.7491C0.0037 15.0291 1.9537 18.3291 5.2137 20.0791C5.0037 19.1391 4.8837 18.1291 4.8837 17.0791C4.8837 9.5391 10.2237 4.4691 17.9537 4.4691H24.1837C25.1537 4.4691 26.1037 4.5491 26.9837 4.6991C25.1137 1.7491 21.7337 -0.0009 17.4337 -0.0009H11.1937C4.4737 -0.0009 0.0037 4.2691 0.0037 10.7491ZM6.7537 17.0791C6.7537 23.5691 11.2237 27.8091 17.9537 27.8091H24.1837C30.8937 27.8091 35.3837 23.5691 35.3837 17.0791C35.3837 10.5991 30.8937 6.3291 24.1837 6.3291H17.9537C11.2237 6.3291 6.7537 10.5991 6.7537 17.0791Z" /></svg>