<svg viewBox="0 0 48.712890625 22.134765625" xmlns="http://www.w3.org/2000/svg"><path d="M10.0637 22.1353C12.1137 22.1353 13.8237 20.9453 14.5437 19.1853H34.1637C34.8937 20.9453 36.6037 22.1353 38.6537 22.1353C40.7037 22.1353 42.4137 20.9453 43.1337 19.1853H44.3637C47.3637 19.1853 48.7137 17.7553 48.7137 14.5853V10.8053C48.7137 8.2553 47.4837 6.6753 44.8837 5.8253L42.7137 5.0953C39.9537 2.7453 36.1437 -0.0047 31.0237 -0.0047H28.9437C23.3637 -0.0047 21.0137 0.5653 17.6637 2.6653L15.4337 4.0453L16.7937 5.8353L18.8437 4.5353C21.8637 2.6553 23.7737 2.2053 28.9437 2.2053H31.0237C34.6037 2.2053 37.4437 3.5253 40.9737 6.6153C41.6137 7.1753 41.9637 7.3253 42.7837 7.5853L44.2237 8.0553C45.7837 8.5553 46.5137 9.3653 46.5137 10.8053V14.5853C46.5137 16.2253 45.8437 16.9853 44.3637 16.9853H43.4937C43.3537 14.4353 41.3037 12.4153 38.6537 12.4153C35.9937 12.4153 33.9437 14.4353 33.8137 16.9853H14.9037C14.7637 14.4353 12.7137 12.4153 10.0637 12.4153C7.3937 12.4153 5.3637 14.4353 5.2137 16.9853H4.3437C2.8737 16.9853 2.2037 16.2253 2.2037 14.5853V12.9153C2.2037 10.8953 3.7037 9.3653 6.3437 9.0553L11.9337 8.3653L10.4037 6.3453L6.0737 6.8753C2.2837 7.3453 0.0037 9.6953 0.0037 12.9153V14.6653C0.0037 17.7853 1.3837 19.1853 4.3437 19.1853H5.5737C6.2937 20.9453 7.9937 22.1353 10.0637 22.1353ZM18.3337 10.5653H21.3237V11.7453C21.3237 12.7053 22.1737 12.9853 22.8837 12.5253L26.3337 10.3053C26.9837 9.8853 27.0037 9.0653 26.3137 8.6253L22.9037 6.4253C22.1737 5.9453 21.3237 6.2353 21.3237 7.2053V8.3653H18.3337C17.0537 8.3653 16.5337 8.0753 15.6837 6.9853L11.9737 2.1553C10.8237 0.6453 9.4737 0.0453 7.3937 0.0453H4.0337C3.4337 0.0453 2.9437 0.5353 2.9437 1.1353C2.9437 1.7353 3.4337 2.2453 4.0337 2.2453H7.3937C8.9137 2.2453 9.4837 2.5053 10.2537 3.4953L13.9337 8.3553C15.1037 9.8953 16.4237 10.5653 18.3337 10.5653ZM10.0637 20.0653C8.4937 20.0653 7.2637 18.8353 7.2637 17.2853C7.2637 15.7053 8.4937 14.4753 10.0637 14.4753C11.6237 14.4753 12.8537 15.7053 12.8537 17.2853C12.8537 18.8353 11.6237 20.0653 10.0637 20.0653ZM38.6537 20.0653C37.0937 20.0653 35.8437 18.8353 35.8437 17.2853C35.8437 15.7053 37.0937 14.4753 38.6537 14.4753C40.2137 14.4753 41.4537 15.7053 41.4537 17.2853C41.4537 18.8353 40.2137 20.0653 38.6537 20.0653Z" /></svg>