<svg viewBox="0 0 39.40299900449957 20.466796875" xmlns="http://www.w3.org/2000/svg"><path d="M1.1238 20.464H2.8938C3.7238 20.464 4.1338 20.074 4.3638 19.484L11.9038 0.844C12.1038 0.394 11.8838 0.004 11.4038 0.004H10.5138C10.0338 0.004 9.7338 0.234 9.5338 0.644L0.1638 18.954C-0.2162 19.644 0.0538 20.464 1.1238 20.464ZM36.5038 20.464H38.2938C39.3438 20.464 39.6238 19.644 39.2338 18.954L29.8838 0.644C29.6638 0.234 29.3638 0.004 28.8938 0.004H28.0038C27.5238 0.004 27.3138 0.394 27.4938 0.844L35.0438 19.484C35.2738 20.074 35.6838 20.464 36.5038 20.464ZM11.0238 15.944C11.0238 16.474 11.4438 16.894 11.9738 16.894H12.8338C13.3838 16.894 13.7938 16.474 13.7938 15.944V14.884H25.4138V15.944C25.4138 16.474 25.8438 16.894 26.3838 16.894H27.2338C27.7838 16.894 28.2038 16.474 28.2038 15.944V11.084C28.2038 9.874 28.0238 9.134 27.2738 8.314L26.5538 7.524L25.7838 5.334C25.3738 4.144 24.5638 3.654 23.5538 3.524C23.0738 3.474 21.4938 3.434 19.6038 3.434C17.7338 3.434 16.1438 3.474 15.6538 3.524C14.6438 3.654 13.8538 4.144 13.4238 5.334L12.6738 7.524L11.9338 8.314C11.1838 9.134 11.0238 9.874 11.0238 11.084ZM14.6538 7.564C14.3138 7.564 14.1938 7.304 14.3038 6.984L14.7538 5.634C14.9138 5.124 15.1938 4.964 15.6238 4.904C16.1338 4.844 17.5438 4.784 19.6038 4.784C21.6838 4.784 23.0738 4.844 23.5838 4.904C24.0238 4.964 24.2938 5.124 24.4638 5.634L24.9238 6.984C25.0338 7.304 24.8938 7.564 24.5538 7.564ZM13.6438 12.104C13.1938 12.104 12.8638 11.774 12.8638 11.324V10.184C12.8638 9.744 13.1938 9.424 13.6438 9.424C14.0938 9.424 14.4238 9.734 14.4238 10.184V11.324C14.4238 11.774 14.0938 12.104 13.6438 12.104ZM25.6338 12.104C25.2138 12.104 24.8738 11.754 24.8738 11.324V10.184C24.8738 9.744 25.2138 9.424 25.6338 9.424C26.0838 9.424 26.4138 9.734 26.4138 10.184V11.324C26.4138 11.774 26.0838 12.104 25.6338 12.104ZM17.9538 11.744C17.5938 11.744 17.3638 11.514 17.3638 11.124V10.394C17.3638 10.004 17.5938 9.774 17.9538 9.774H21.2338C21.6038 9.774 21.8338 10.004 21.8338 10.394V11.124C21.8338 11.514 21.6038 11.744 21.2338 11.744Z" /></svg>