<svg viewBox="0 0 42.42535261459362 28.615234375" xmlns="http://www.w3.org/2000/svg"><path d="M13.6033 11.0755C13.6033 11.5555 13.9733 11.9255 14.4533 11.9255H15.2033C15.6933 11.9255 16.0633 11.5555 16.0633 11.0755V10.1455H26.3433V11.0755C26.3433 11.5555 26.7133 11.9255 27.1933 11.9255H27.9633C28.4333 11.9255 28.8033 11.5555 28.8033 11.0755V6.7855C28.8033 5.7055 28.6533 5.0455 28.0033 4.3155L27.3433 3.6255L26.6733 1.6955C26.3033 0.6455 25.5933 0.1955 24.7033 0.0955C24.2633 0.0455 22.8633 -0.0045 21.2033 -0.0045C19.5333 -0.0045 18.1333 0.0455 17.7033 0.0955C16.8133 0.1955 16.1033 0.6455 15.7333 1.6955L15.0533 3.6255L14.4133 4.3155C13.7533 5.0455 13.6033 5.7055 13.6033 6.7855ZM16.8133 3.6655C16.5133 3.6655 16.4033 3.4355 16.5033 3.1455L16.8933 1.9555C17.0533 1.5055 17.2833 1.3655 17.6733 1.3155C18.1333 1.2455 19.3733 1.2055 21.2033 1.2055C23.0333 1.2055 24.2833 1.2455 24.7233 1.3155C25.1133 1.3655 25.3433 1.5055 25.4933 1.9555L25.9033 3.1455C26.0033 3.4355 25.8933 3.6655 25.5833 3.6655ZM15.9233 7.6655C15.5333 7.6655 15.2433 7.3855 15.2433 6.9955V5.9855C15.2433 5.5955 15.5333 5.3155 15.9233 5.3155C16.3233 5.3155 16.6133 5.5955 16.6133 5.9855V6.9955C16.6133 7.3955 16.3233 7.6655 15.9233 7.6655ZM26.5533 7.6655C26.1533 7.6655 25.8633 7.3855 25.8633 6.9955V5.9855C25.8633 5.6055 26.1533 5.3155 26.5533 5.3155C26.9433 5.3155 27.2333 5.5955 27.2333 5.9855V6.9955C27.2333 7.3955 26.9433 7.6655 26.5533 7.6655ZM19.7433 7.3655C19.4233 7.3655 19.2233 7.1655 19.2233 6.8255V6.1655C19.2233 5.8255 19.4233 5.6155 19.7433 5.6155H22.6433C22.9733 5.6155 23.1733 5.8255 23.1733 6.1655V6.8255C23.1733 7.1655 22.9733 7.3655 22.6433 7.3655ZM1.1033 28.6155H2.9533C3.7733 28.6155 4.1733 28.2355 4.4133 27.6355L11.3633 10.9355C11.5633 10.4555 11.3433 10.0855 10.8733 10.0855H9.4333C8.9733 10.0855 8.6633 10.2955 8.4533 10.7155L0.1533 27.0855C-0.2067 27.7955 0.0533 28.6155 1.1033 28.6155ZM39.4833 28.6155H41.3133C42.3833 28.6155 42.6333 27.8055 42.2733 27.0955L33.9733 10.7355C33.7533 10.3055 33.4733 10.0855 33.0033 10.0855H31.5633C31.0933 10.0855 30.8733 10.4755 31.0633 10.9355L38.0233 27.6355C38.2633 28.2355 38.6633 28.6155 39.4833 28.6155ZM11.2633 15.1255H31.1433L30.3633 13.1255H12.0733ZM9.9133 18.5155H32.4933L31.7233 16.5055H10.7333Z" /></svg>