<svg viewBox="0 0 39.39019636459362 30.96351737645684" xmlns="http://www.w3.org/2000/svg"><path d="M32.7033 29.2787C33.1233 29.6887 33.7933 29.7087 34.1933 29.2787C34.6033 28.8687 34.6133 28.1987 34.1933 27.7887L6.7033 0.3087C6.2933 -0.1013 5.6033 -0.1113 5.1933 0.3087C4.8033 0.7087 4.8033 1.3887 5.1933 1.7987ZM20.9333 11.9587H24.8433V12.9187C24.8433 13.3787 25.1933 13.7487 25.7033 13.7487H26.4533C26.9333 13.7487 27.3033 13.3787 27.3033 12.9187V8.6087C27.3033 7.5287 27.1533 6.8787 26.4833 6.1487L25.8433 5.4487L25.1733 3.5087C24.7833 2.4587 24.0933 2.0187 23.1833 1.9087C22.7633 1.8587 21.3533 1.8187 19.6833 1.8187C18.0333 1.8187 16.6233 1.8587 16.2033 1.9087C15.3033 2.0187 14.5733 2.4587 14.2033 3.5087L13.7633 4.7987L17.7033 8.7387V7.9787C17.7033 7.6587 17.9133 7.4487 18.2333 7.4487H21.1333C21.4533 7.4487 21.6733 7.6587 21.6733 7.9787V8.6387C21.6733 8.9787 21.4533 9.1887 21.1333 9.1887H18.1533ZM15.3133 5.4787C14.9933 5.4787 14.8933 5.2587 14.9833 4.9787L15.3833 3.7687C15.5333 3.3387 15.7633 3.1887 16.1633 3.1287C16.6133 3.0787 17.8533 3.0187 19.6833 3.0187C21.5333 3.0187 22.7733 3.0787 23.2133 3.1287C23.5933 3.1887 23.8433 3.3387 23.9933 3.7687L24.3933 4.9787C24.4833 5.2587 24.3933 5.4787 24.0733 5.4787ZM25.0333 9.4987C24.6533 9.4987 24.3633 9.2087 24.3633 8.8187V7.8187C24.3633 7.4187 24.6533 7.1387 25.0333 7.1387C25.4433 7.1387 25.7133 7.4187 25.7133 7.8187V8.8187C25.7133 9.2287 25.4433 9.4987 25.0333 9.4987ZM6.9733 10.4187L0.1533 23.9087C-0.2067 24.6087 0.0533 25.4287 1.1033 25.4287H2.8933C3.7233 25.4287 4.1333 25.0287 4.3433 24.4387L9.8833 10.6387C10.0733 10.1687 9.8533 9.7887 9.3833 9.7887H7.9433C7.4733 9.7887 7.1933 10.0087 6.9733 10.4187ZM32.4133 10.4187C32.1933 10.0087 31.9133 9.7887 31.4433 9.7887H30.0133C29.5333 9.7887 29.3233 10.1687 29.5033 10.6387L35.0433 24.4387C35.2733 25.0287 35.6733 25.4287 36.4933 25.4287H38.2833C39.3433 25.4287 39.5933 24.6087 39.2333 23.9087ZM27.0933 29.9487L24.0633 24.2487L24.6933 24.0587L17.0233 16.4187L18.1733 19.7987L16.5533 19.0687C16.1833 18.9087 15.9133 19.1787 16.1833 19.5387L17.0933 20.7087L12.9333 20.1187C12.4533 20.0587 12.3433 20.5287 12.7133 20.7487L16.6433 23.1187L14.2733 23.9887C13.8733 24.1387 13.9433 24.5987 14.3733 24.6187L16.9933 24.8087L13.4433 27.2187C13.1133 27.4387 13.2333 27.9687 13.7133 27.8487L18.2133 26.8387L18.2533 30.6387C18.2533 31.0187 18.6233 31.0587 18.7833 30.7887L21.6833 26.0287L26.5333 30.4087C26.8933 30.7187 27.3333 30.3887 27.0933 29.9487Z" /></svg>