<svg viewBox="0 0 37.32421875 33.587186947912485" xmlns="http://www.w3.org/2000/svg"><path d="M18.2237 12.6838L20.2637 9.3338L24.6237 13.2538C24.9537 13.5438 25.3437 13.2438 25.1337 12.8438L22.5537 8.0138L25.1937 7.2238C25.4137 7.1538 25.4137 6.8538 25.1937 6.7738L22.8637 5.8138L24.5437 1.0738C24.6337 0.7738 24.3337 0.4938 24.0737 0.7538L21.3737 3.3238L20.7037 0.8138C20.6137 0.4538 20.2437 0.4538 20.1637 0.8138L19.5637 3.3138L16.4637 0.1238C16.2037 -0.1462 15.8637 0.0438 15.9837 0.4338L17.0937 3.6938L15.6437 3.0538C15.3037 2.8938 15.0537 3.1538 15.3037 3.4738L16.1037 4.5138L12.3837 3.9938C11.9537 3.9338 11.8437 4.3638 12.1837 4.5838L15.6837 6.7038L13.6137 7.4538C13.5637 7.4838 13.4937 7.5238 13.4537 7.5638L13.9837 8.0838L16.0137 8.2338L14.6837 9.1238L15.8637 10.3238L17.1137 10.0438L17.1437 11.6038ZM33.2737 33.2738C33.6837 33.6938 34.3537 33.6938 34.7537 33.2738C35.1637 32.8638 35.1737 32.2038 34.7537 31.7838L5.9037 2.9138C5.4837 2.4938 4.8237 2.5038 4.4037 2.9138C4.0037 3.3138 3.9737 3.9838 4.4037 4.4038ZM0.0037 26.2738V28.2538H3.5437C4.1937 29.8338 5.7437 30.9338 7.6037 30.9338C9.4437 30.9338 10.9937 29.8338 11.6437 28.2538H12.7437C15.4637 28.2538 16.6637 26.9838 16.6637 24.0938V20.6938C16.6637 20.0938 16.5837 19.5538 16.4237 19.0938L13.7537 16.4238C13.0837 16.1838 12.4137 15.9338 11.2637 15.5638C8.6837 13.3638 5.3637 10.9538 0.9437 10.9538H0.0037V12.9538H0.9437C4.0637 12.9538 6.5737 14.1838 9.6937 16.9138C10.2837 17.4238 10.5837 17.5438 11.3237 17.7838L12.6237 18.2138C14.0437 18.6638 14.6837 19.4038 14.6837 20.6938V24.0938C14.6837 25.6038 14.0837 26.2738 12.7437 26.2738H11.9637C11.8437 23.9338 9.9637 22.1538 7.6037 22.1538C5.2237 22.1538 3.3537 23.9438 3.2137 26.2738ZM25.3437 19.1038L30.2837 18.5038C31.0337 18.4238 31.5237 18.2438 32.0437 17.9338L37.3237 14.6338V12.3538C36.7537 12.6338 36.1637 12.9538 35.5637 13.3338L30.5737 16.4838L25.1037 17.1638C24.3037 17.2638 23.5837 17.4538 22.9537 17.7238L24.5137 19.2838C24.7737 19.2038 25.0437 19.1438 25.3437 19.1038ZM23.5537 28.2538H25.9937L23.9937 26.2538H23.2537C22.2737 26.1738 21.7337 25.6538 21.6437 24.6138V24.0938L19.6237 22.0738V24.1738C19.6237 26.9938 20.8637 28.2538 23.5537 28.2538ZM7.6037 29.0538C6.1837 29.0538 5.0537 27.9538 5.0537 26.5438C5.0537 25.1238 6.1837 24.0138 7.6037 24.0138C8.9937 24.0138 10.1137 25.1238 10.1137 26.5438C10.1137 27.9538 8.9937 29.0538 7.6037 29.0538ZM33.4837 28.2538H37.3237V26.2738H31.5137Z" /></svg>