<svg viewBox="0 0 43.55872490866249 33.9391420367173" xmlns="http://www.w3.org/2000/svg"><path d="M6.2438 25.9371L6.8538 25.5871C6.6138 25.3271 6.4138 25.0571 6.2338 24.7371C4.9538 22.5071 5.6838 19.7371 7.9338 18.4371C10.1738 17.1471 12.9438 17.8871 14.2338 20.1171C14.4138 20.4271 14.5438 20.7471 14.6538 21.0871L25.8938 14.5971C25.6738 14.3371 25.4538 14.0471 25.2838 13.7471C23.9938 11.5071 24.7338 8.7271 26.9738 7.4471C29.2138 6.1471 31.9938 6.8871 33.2738 9.1271C33.4738 9.4271 33.5938 9.7571 33.7038 10.0771L34.3138 9.7271C36.4238 8.5071 36.7938 6.9671 35.5038 4.7471L33.9738 2.0871C32.9338 0.3071 31.4338 -0.3129 29.2738 0.1471L27.4538 0.5271C24.5638 -0.0129 20.7938 -0.3929 17.1838 1.6871L15.7338 2.5171C11.8238 4.7771 10.3938 6.1271 8.9038 8.9571L6.4238 13.6371L2.4638 16.6171C0.0038 18.4771 -0.6462 21.0371 0.6538 23.3071L1.3638 24.5371C2.6238 26.7171 4.1538 27.1471 6.2438 25.9371ZM30.9538 14.3071C32.5638 13.3771 33.1038 11.3771 32.1738 9.7671C31.2438 8.1571 29.2438 7.6171 27.6338 8.5671C26.0038 9.4971 25.4738 11.4871 26.4038 13.0871C27.3338 14.7171 29.3238 15.2471 30.9538 14.3071ZM4.2838 33.2571C4.5938 33.8071 5.2738 33.9671 5.7738 33.6971L41.2638 13.2171C41.7538 12.9071 41.9438 12.2371 41.6538 11.7371C41.3438 11.1871 40.6438 11.0071 40.1538 11.2971L4.6738 31.7771C4.1738 32.0671 3.9738 32.7471 4.2838 33.2571ZM11.8938 25.3171C13.5238 24.3871 14.0538 22.3871 13.1138 20.7571C12.1838 19.1571 10.2038 18.6271 8.5738 19.5571C6.9638 20.4871 6.4238 22.4771 7.3538 24.0971C8.2838 25.7071 10.2838 26.2371 11.8938 25.3171ZM41.1538 33.9371C42.0238 33.9371 42.6538 33.5271 43.0638 32.8871C43.3438 32.4771 43.5538 31.8471 43.5538 31.3871C43.5538 30.9471 43.2538 30.6671 42.8238 30.6671C42.4738 30.6671 42.2038 30.9171 42.1238 31.2971C41.9738 32.0971 41.7238 32.5671 41.1138 32.5671C40.3638 32.5671 39.9238 31.5071 39.9238 29.5371C39.9238 27.5371 40.4238 26.4771 41.1138 26.4771C41.6738 26.4771 42.0038 27.0371 42.0938 27.7471C42.1638 28.1671 42.4538 28.4171 42.8638 28.4171C43.2738 28.4171 43.5138 28.1271 43.5138 27.6871C43.5138 27.1671 43.2738 26.4171 42.8038 25.8971C42.3838 25.4071 41.7638 25.1171 41.0938 25.1171C39.9038 25.1171 39.1838 25.8871 38.8038 26.7771C38.4138 27.6271 38.3238 28.5771 38.3238 29.5371C38.3238 30.6271 38.4338 31.6971 38.9238 32.5971C39.4138 33.4871 40.1538 33.9371 41.1538 33.9371ZM26.6438 33.8671C27.1238 33.8671 27.4438 33.5671 27.4438 33.0771V30.1271H29.5438V33.0771C29.5438 33.5671 29.8438 33.8671 30.3338 33.8671C30.8138 33.8671 31.1338 33.5671 31.1338 33.0771V25.9771C31.1338 25.5071 30.8138 25.2071 30.3338 25.2071C29.8438 25.2071 29.5438 25.5071 29.5438 25.9771V28.8171H27.4438V25.9771C27.4438 25.5071 27.1238 25.2071 26.6438 25.2071C26.1838 25.2071 25.8838 25.5071 25.8838 25.9771V33.0771C25.8838 33.5671 26.1838 33.8671 26.6438 33.8671ZM33.0538 33.8671H34.5738C36.8038 33.8671 37.5538 31.7271 37.5538 29.5071C37.5538 27.0871 36.6938 25.2071 34.5738 25.2071H33.0538C32.5938 25.2071 32.2638 25.4671 32.2638 26.0271V33.0471C32.2638 33.6071 32.5938 33.8671 33.0538 33.8671ZM33.8138 32.5571V26.5171H34.3838C35.7138 26.5171 35.9538 28.1871 35.9538 29.5071C35.9538 30.8671 35.7538 32.5571 34.3838 32.5571Z" /></svg>