<svg viewBox="0 0 37.32421875 31.4068603515625" xmlns="http://www.w3.org/2000/svg"><path d="M19.5137 5.6093C17.7837 8.1493 16.8737 11.1193 16.9137 13.9893C16.9537 14.5493 17.3637 14.9493 17.8737 14.9493C18.4037 14.9193 18.7737 14.5093 18.7737 13.9493C18.7337 11.4893 19.5237 8.8493 21.0237 6.6293C22.5437 4.4093 24.6537 2.6793 26.9637 1.8093C27.4837 1.6193 27.7437 1.0793 27.5537 0.5793C27.3737 0.0893 26.8337 -0.1207 26.3037 0.0693C23.6237 1.1193 21.2237 3.0793 19.5137 5.6093ZM22.9737 7.9593C21.7137 9.7893 21.0537 11.9493 21.1137 13.9993C21.1337 14.5593 21.5437 14.9293 22.0637 14.9493C22.5737 14.9293 22.9737 14.5193 22.9737 13.9293C22.9237 12.3093 23.4737 10.5393 24.5237 8.9693C25.5537 7.4493 27.0037 6.2593 28.5337 5.6993C29.0637 5.4893 29.3037 4.9493 29.1237 4.4893C28.9137 3.9993 28.4137 3.7793 27.8937 3.9493C26.0037 4.6393 24.2437 6.0693 22.9737 7.9593ZM26.4437 10.2793C25.6437 11.4493 25.2237 12.8293 25.2937 13.9993C25.2937 14.5193 25.7037 14.9493 26.2237 14.9293C26.7937 14.9293 27.1837 14.4793 27.1837 13.8893C27.1437 13.0893 27.4437 12.1293 27.9837 11.3193C28.5437 10.4993 29.3237 9.8593 30.0537 9.6093C30.6137 9.4093 30.8937 8.8793 30.6937 8.3293C30.4837 7.8593 29.9737 7.6493 29.4637 7.8193C28.3137 8.2493 27.1937 9.1493 26.4437 10.2793ZM0.0037 26.7493V28.7293H3.5437C4.1937 30.3093 5.7437 31.4093 7.6037 31.4093C9.4437 31.4093 10.9937 30.3093 11.6437 28.7293H12.7437C15.4637 28.7293 16.6637 27.4593 16.6637 24.5693V21.1693C16.6637 18.8693 15.5537 17.4193 13.2237 16.6693L11.2637 16.0393C8.7137 13.8393 5.3637 11.4293 0.9437 11.4293H0.0037V13.4293H0.9437C4.0637 13.4293 6.5737 14.6593 9.6937 17.3893C10.2837 17.8993 10.5837 18.0393 11.3237 18.2593L12.6237 18.6893C14.0437 19.1293 14.6837 19.8793 14.6837 21.1693V24.5693C14.6837 26.0793 14.0837 26.7493 12.7437 26.7493H11.9637C11.8437 24.4093 9.9637 22.6293 7.6037 22.6293C5.2237 22.6293 3.3537 24.4193 3.2137 26.7493ZM28.6937 31.4093C30.5437 31.4093 32.1037 30.3093 32.7537 28.7293H37.3237V26.7493H33.0837C32.9537 24.4093 31.0737 22.6293 28.6937 22.6293C26.3137 22.6293 24.4637 24.4093 24.3237 26.7493H23.5537C22.2137 26.7493 21.6037 26.0793 21.6037 24.5693V23.0793C21.6037 21.2493 22.9737 19.8793 25.3437 19.5793L30.2837 18.9793C31.0337 18.8993 31.5237 18.7193 32.0437 18.4093L36.6237 15.5193C36.8637 15.3693 37.0937 15.2293 37.3237 15.1093V12.8293C36.7537 13.1093 36.1637 13.4293 35.5637 13.8093L30.5737 16.9593L25.1037 17.6393C21.6837 18.0493 19.6237 20.1693 19.6237 23.0793V24.6493C19.6237 27.4693 20.8637 28.7293 23.5537 28.7293H24.6537C25.3037 30.3093 26.8537 31.4093 28.6937 31.4093ZM28.6937 29.5293C27.3037 29.5293 26.1837 28.4293 26.1837 27.0193C26.1837 25.5993 27.3037 24.4893 28.6937 24.4893C30.1237 24.4893 31.2437 25.5993 31.2437 27.0193C31.2437 28.4293 30.1237 29.5293 28.6937 29.5293ZM7.6037 29.5293C6.1837 29.5293 5.0537 28.4293 5.0537 27.0193C5.0537 25.5993 6.1837 24.4893 7.6037 24.4893C8.9937 24.4893 10.1137 25.5993 10.1137 27.0193C10.1137 28.4293 8.9937 29.5293 7.6037 29.5293Z" /></svg>