<svg viewBox="0 0 24.7734375 35.30078125" xmlns="http://www.w3.org/2000/svg"><path d="M1.1437 28.7815C1.8637 28.7815 2.2937 28.3415 2.2937 27.6215V19.2215H5.0837V30.0615C5.0837 33.7815 8.0237 35.3015 14.9337 35.3015C21.8337 35.3015 24.7737 33.7815 24.7737 30.0615V6.3315C24.7737 2.3415 21.1537 0.0015 14.9337 0.0015C8.7137 0.0015 5.0837 2.3415 5.0837 6.3315V17.4315H2.2937V15.7915C2.2937 15.0615 1.8637 14.6315 1.1437 14.6315C0.4537 14.6315 0.0037 15.0615 0.0037 15.7815V27.6315C0.0037 28.3415 0.4537 28.7815 1.1437 28.7815ZM14.9337 14.5615C13.5937 14.5615 11.5437 14.6515 10.8237 14.6515C9.7637 14.6515 9.3137 14.2415 9.2037 13.1515L8.9737 10.5015C8.7937 8.4615 10.2237 7.6415 14.9337 7.6415C19.6337 7.6415 21.0837 8.4615 20.8937 10.5015L20.6537 13.1515C20.5637 14.2415 20.0937 14.6515 19.0437 14.6515C18.3237 14.6515 16.2037 14.5615 14.9337 14.5615ZM14.9337 29.6115C10.1837 29.6115 8.7337 28.9015 9.0337 26.8215L9.2137 25.5415C9.4437 23.8615 10.8537 23.2815 14.9337 23.2815C19.0137 23.2815 20.4237 23.8615 20.6537 25.5415L20.8337 26.8215C21.1237 28.9015 19.6837 29.6115 14.9337 29.6115Z" /></svg>