<svg viewBox="0 0 39.40299900449956 26.98828125" xmlns="http://www.w3.org/2000/svg"><path d="M19.7302 1.6955C21.7502 1.6955 23.5802 2.4455 24.9902 3.7055C25.4702 4.1255 25.9802 4.1555 26.3202 3.8155C26.6702 3.4555 26.6602 2.9155 26.2802 2.5055C24.5702 0.7955 22.2002 -0.0045 19.7302 -0.0045C17.2502 -0.0045 14.9002 0.7955 13.1902 2.5055C12.8002 2.9155 12.7802 3.4555 13.1502 3.8155C13.4902 4.1555 13.9902 4.1255 14.4802 3.7055C15.8902 2.4455 17.7202 1.6955 19.7302 1.6955ZM19.7302 5.7055C20.7302 5.7055 21.6202 6.0155 22.3002 6.5755C22.8602 6.9755 23.3402 6.9555 23.6702 6.6355C24.0102 6.2855 23.9902 5.7955 23.6302 5.4155C22.9102 4.7155 21.3802 4.0055 19.7302 4.0055C18.0702 4.0055 16.5402 4.7155 15.8302 5.4155C15.4602 5.7955 15.4602 6.2855 15.8002 6.6355C16.1302 6.9555 16.6102 6.9755 17.1702 6.5755C17.8402 6.0155 18.7302 5.7055 19.7302 5.7055ZM1.1202 26.9855H2.9002C3.7202 26.9855 4.1302 26.5955 4.3602 26.0055L11.9102 7.3655C12.1002 6.9155 11.8802 6.5255 11.4002 6.5255H10.5102C10.0402 6.5255 9.7302 6.7555 9.5302 7.1655L0.1602 25.4755C-0.2198 26.1655 0.0502 26.9855 1.1202 26.9855ZM36.5002 26.9855H38.2902C39.3502 26.9855 39.6202 26.1655 39.2402 25.4755L29.8902 7.1655C29.6702 6.7555 29.3702 6.5255 28.8902 6.5255H28.0002C27.5202 6.5255 27.3202 6.9155 27.4902 7.3655L35.0402 26.0055C35.2702 26.5955 35.6802 26.9855 36.5002 26.9855ZM11.0202 22.4655C11.0202 22.9955 11.4402 23.4155 11.9802 23.4155H12.8402C13.3802 23.4155 13.7902 22.9955 13.7902 22.4655V21.4055H25.4202V22.4655C25.4202 22.9955 25.8402 23.4155 26.3902 23.4155H27.2302C27.7802 23.4155 28.2102 22.9955 28.2102 22.4655V17.6055C28.2102 16.3955 28.0302 15.6555 27.2802 14.8355L26.5502 14.0455L25.7902 11.8555C25.3802 10.6655 24.5702 10.1755 23.5602 10.0455C23.0802 9.9955 21.4902 9.9555 19.6102 9.9555C17.7302 9.9555 16.1502 9.9955 15.6502 10.0455C14.6402 10.1755 13.8502 10.6655 13.4302 11.8555L12.6702 14.0455L11.9402 14.8355C11.1802 15.6555 11.0202 16.3955 11.0202 17.6055ZM14.6602 14.0855C14.3102 14.0855 14.1902 13.8255 14.3002 13.5055L14.7502 12.1555C14.9202 11.6455 15.1902 11.4855 15.6302 11.4255C16.1302 11.3655 17.5402 11.3055 19.6102 11.3055C21.6802 11.3055 23.0802 11.3655 23.5802 11.4255C24.0202 11.4855 24.2902 11.6455 24.4602 12.1555L24.9202 13.5055C25.0302 13.8255 24.9002 14.0855 24.5502 14.0855ZM13.6402 18.6255C13.1902 18.6255 12.8702 18.2955 12.8702 17.8455V16.7055C12.8702 16.2655 13.1902 15.9455 13.6402 15.9455C14.1002 15.9455 14.4202 16.2555 14.4202 16.7055V17.8455C14.4202 18.2955 14.1002 18.6255 13.6402 18.6255ZM25.6302 18.6255C25.2102 18.6255 24.8702 18.2755 24.8702 17.8455V16.7055C24.8702 16.2655 25.2102 15.9455 25.6302 15.9455C26.0902 15.9455 26.4102 16.2555 26.4102 16.7055V17.8455C26.4102 18.2955 26.0902 18.6255 25.6302 18.6255ZM17.9502 18.2655C17.6002 18.2655 17.3602 18.0355 17.3602 17.6455V16.9155C17.3602 16.5255 17.6002 16.2955 17.9502 16.2955H21.2302C21.6002 16.2955 21.8302 16.5255 21.8302 16.9155V17.6455C21.8302 18.0355 21.6002 18.2655 21.2302 18.2655Z" /></svg>