<svg viewBox="0 0 46.04060527636922 35.09623799405522" xmlns="http://www.w3.org/2000/svg"><path d="M12.6744 25.9408L13.2744 25.6008C13.0444 25.3208 12.8344 25.0508 12.6644 24.7508C11.3744 22.5108 12.1144 19.7308 14.3544 18.4508C16.5944 17.1508 19.3744 17.8908 20.6544 20.1308C20.8344 20.4308 20.9744 20.7608 21.0844 21.0908L32.3244 14.5908C32.1044 14.3308 31.8844 14.0608 31.7044 13.7408C30.4244 11.5108 31.1544 8.7408 33.4044 7.4408C35.6444 6.1608 38.4144 6.8908 39.7144 9.1208C39.8944 9.4408 40.0344 9.7508 40.1244 10.0908L40.7444 9.7408C42.8444 8.5208 43.2144 6.9808 41.9344 4.7508L40.4044 2.0908C39.3644 0.3208 37.8544 -0.3092 35.6944 0.1408L33.8944 0.5208C30.9944 -0.0092 27.2244 -0.3892 23.6144 1.6808L22.1644 2.5308C18.2544 4.7908 16.8144 6.1308 15.3244 8.9608L12.8544 13.6308L8.9044 16.6108C6.4244 18.4708 5.7844 21.0408 7.0944 23.3108L7.7944 24.5308C9.0544 26.7208 10.5844 27.1408 12.6744 25.9408ZM37.3844 14.3208C38.9944 13.3908 39.5244 11.3908 38.5944 9.7608C37.6644 8.1708 35.6744 7.6308 34.0544 8.5608C32.4344 9.4908 31.8944 11.4908 32.8244 13.1008C33.7544 14.7108 35.7544 15.2508 37.3844 14.3208ZM8.5144 34.5408C8.8444 35.0908 9.5144 35.2408 10.0244 34.9608L45.5044 14.4808C46.0044 14.2108 46.1944 13.5208 45.8944 13.0108C45.5844 12.4608 44.8944 12.2908 44.3944 12.5808L8.9144 33.0608C8.4244 33.3408 8.2344 34.0208 8.5144 34.5408ZM18.3244 25.3108C19.9444 24.3808 20.4844 22.3808 19.5344 20.7708C18.6244 19.1608 16.6244 18.6208 14.9944 19.5508C13.3844 20.5008 12.8544 22.4908 13.7844 24.0908C14.7144 25.7208 16.7044 26.2508 18.3244 25.3108ZM6.1544 27.8408L3.2944 22.8508C2.8144 22.0108 1.8444 22.2308 1.5744 23.0408L0.0644 27.2508C-0.1356 27.8408 0.1244 28.3008 0.7344 28.4108L5.1244 29.2308C5.9844 29.4008 6.6444 28.6608 6.1544 27.8408Z" /></svg>