<svg viewBox="0 0 24.7734375 35.30078125" xmlns="http://www.w3.org/2000/svg"><path d="M9.8437 35.3015C16.7437 35.3015 19.6837 33.7815 19.6837 30.0615V19.2215H22.4737V27.6215C22.4737 28.3415 22.9237 28.7815 23.6237 28.7815C24.3237 28.7815 24.7737 28.3415 24.7737 27.6315V15.7815C24.7737 15.0615 24.3237 14.6315 23.6237 14.6315C22.9237 14.6315 22.4737 15.0615 22.4737 15.7915V17.4315H19.6837V6.3315C19.6837 2.3415 16.0637 0.0015 9.8437 0.0015C3.6237 0.0015 0.0037 2.3415 0.0037 6.3315V30.0615C0.0037 33.7815 2.9437 35.3015 9.8437 35.3015ZM9.8437 33.0315C4.5537 33.0315 2.2837 32.1415 2.2837 29.9515V6.3315C2.2837 3.7715 5.0537 2.2815 9.8437 2.2815C14.6137 2.2815 17.4037 3.7715 17.4037 6.3315V29.9515C17.4037 32.1415 15.1237 33.0315 9.8437 33.0315ZM9.8437 14.6815C11.0637 14.6815 13.1437 14.7815 13.8337 14.7815C14.8637 14.7815 15.3137 14.3815 15.3937 13.3115L15.6237 10.7415C15.7937 8.7815 14.4137 7.9815 9.8437 7.9815C5.2737 7.9815 3.8937 8.7815 4.0637 10.7415L4.2937 13.3115C4.3737 14.3815 4.8237 14.7815 5.8637 14.7815C6.5537 14.7815 8.5437 14.6815 9.8437 14.6815ZM9.8437 29.2715C14.4337 29.2715 15.8437 28.5915 15.5537 26.5815L15.3937 25.3315C15.1737 23.6915 13.8037 23.1415 9.8437 23.1415C5.8837 23.1415 4.5237 23.6915 4.2937 25.3315L4.1337 26.5815C3.8437 28.5915 5.2537 29.2715 9.8437 29.2715Z" /></svg>