<svg viewBox="0 0 32.8671875 25.826171875" xmlns="http://www.w3.org/2000/svg"><path d="M21.9537 3.591C22.9437 3.591 23.7437 2.791 23.7437 1.801C23.7437 0.821 22.9437 0.001 21.9537 0.001C20.9737 0.001 20.1637 0.821 20.1637 1.801C20.1637 2.791 20.9737 3.591 21.9537 3.591ZM27.7137 8.331C29.1937 8.331 30.3837 7.141 30.3837 5.631C30.3837 4.141 29.1937 2.951 27.7137 2.951C26.2137 2.951 25.0037 4.141 25.0037 5.631C25.0037 7.141 26.2137 8.331 27.7137 8.331ZM6.8937 25.831H24.6937C29.3037 25.831 32.8637 22.341 32.8637 17.881C32.8637 13.381 29.2337 9.991 24.2537 9.991C22.4337 6.381 19.1037 4.181 15.0537 4.181C9.7437 4.181 5.2537 8.301 4.7737 13.751C2.0337 14.531 0.1937 16.831 0.1937 19.731C0.1937 23.101 2.6437 25.831 6.8937 25.831ZM1.9137 12.441C2.9637 12.441 3.8137 11.591 3.8137 10.531C3.8137 9.471 2.9637 8.631 1.9137 8.631C0.8437 8.631 0.0037 9.471 0.0037 10.531C0.0037 11.591 0.8437 12.441 1.9137 12.441ZM12.8137 21.251C10.3737 21.251 9.4237 19.141 9.4237 16.731C9.4237 14.291 10.4637 12.281 12.7737 12.281C14.6137 12.281 15.7337 13.591 15.7937 15.021C15.8037 15.531 15.5037 15.861 15.0537 15.861C14.6337 15.861 14.4137 15.631 14.2837 15.131C14.1337 14.421 13.7537 13.681 12.7937 13.681C11.4437 13.681 10.9737 15.221 10.9737 16.731C10.9737 18.351 11.4337 19.841 12.8137 19.841C13.7637 19.841 14.1737 19.081 14.3237 18.371C14.4537 17.881 14.6737 17.651 15.0937 17.651C15.5437 17.651 15.8437 17.991 15.8337 18.481C15.7737 19.921 14.6537 21.251 12.8137 21.251ZM19.7737 21.251C17.7237 21.251 16.4037 19.501 16.4037 16.761C16.4037 14.011 17.7237 12.281 19.7737 12.281C21.8237 12.281 23.1237 14.011 23.1237 16.761C23.1237 19.501 21.8237 21.251 19.7737 21.251ZM19.7737 19.841C20.8737 19.841 21.5637 18.701 21.5637 16.761C21.5637 14.821 20.8737 13.681 19.7737 13.681C18.6637 13.681 17.9637 14.821 17.9637 16.761C17.9637 18.701 18.6637 19.841 19.7737 19.841Z" /></svg>