<svg viewBox="0 0 31.46873318247074 31.383984203078256" xmlns="http://www.w3.org/2000/svg"><path d="M3.8859 30.9309L22.0659 19.5209C26.2259 16.9109 27.3459 13.0009 25.0459 9.6609C27.8359 10.0409 31.8959 9.1409 31.4359 7.1809C31.1559 6.0209 29.6459 5.9009 27.9559 6.3109C29.9659 4.6709 31.3259 2.5809 30.1059 1.3509C28.8859 0.1309 26.7959 1.4809 25.1559 3.4909C25.5659 1.8309 25.4459 0.3209 24.3059 0.0309C22.3359 -0.4191 21.4359 3.5609 21.7959 6.3509C18.4859 3.9909 14.5059 5.1209 11.8559 9.3309L0.4359 27.4709C-0.3241 28.7009 -0.0141 29.8009 0.7959 30.6009C1.4859 31.3209 2.5559 31.7709 3.8859 30.9309ZM8.5759 23.2209C8.2159 23.5809 8.2159 24.1409 8.5859 24.4909L9.2259 25.1409L2.8459 29.1409C2.3959 29.4309 1.9259 28.9809 2.2159 28.5409L11.5359 13.7209L12.7959 14.9509C13.1659 15.3209 13.6959 15.3109 14.0659 14.9509C14.4259 14.5909 14.4259 14.0509 14.0559 13.6809L12.5059 12.1609L13.4659 10.6409L15.8959 13.0409C16.2659 13.4109 16.8159 13.3909 17.1759 13.0209C17.5159 12.6709 17.5159 12.1309 17.1459 11.7609L14.5059 9.1709C16.6759 6.5609 19.1659 6.4609 21.4559 8.7609L22.6159 9.9509C25.1959 12.5709 24.7359 15.3909 20.9959 17.7409L13.8659 22.2209L12.2759 20.6709C11.9259 20.3109 11.3759 20.3209 11.0059 20.6809C10.6659 21.0309 10.6459 21.5809 11.0159 21.9509L12.3059 23.1909L10.7859 24.1509L9.8459 23.2209C9.4759 22.8509 8.9259 22.8709 8.5759 23.2209Z" /></svg>