<svg viewBox="0 0 30.68974449281546 28.943359375" xmlns="http://www.w3.org/2000/svg"><path d="M30.4626 23.1296C31.5826 19.0496 28.6126 17.2696 21.2826 17.2696C17.9926 17.2696 14.5626 17.5696 11.8226 18.0996C12.3026 12.7296 10.6726 8.2896 7.2426 6.0596C7.9526 2.2796 5.4026 -0.0004 3.0526 -0.0004C1.0826 -0.0004 -0.6174 1.5296 0.2226 4.9396L5.3626 25.7996C5.8626 27.8496 7.2226 28.9396 9.2426 28.9396H25.1926C28.0126 28.9396 29.2526 27.5896 30.4626 23.1296ZM20.9626 12.7296H27.5026C28.0226 12.7296 28.3826 12.3696 28.3826 11.8796C28.3826 11.3796 28.0126 11.0196 27.5026 11.0196H22.8726V10.9796L25.8426 7.7796C26.8926 6.6596 27.6826 5.6696 27.6826 4.2696C27.6826 2.3196 26.1626 1.0396 23.8026 1.0396C22.0226 1.0396 20.4526 2.1096 20.0426 3.5596C20.0026 3.7596 19.9626 3.8996 19.9626 4.0696C19.9626 4.5796 20.2926 4.9196 20.8226 4.9196C21.2826 4.9196 21.5226 4.6396 21.7526 4.2496C22.0626 3.4996 22.7226 2.7196 23.8826 2.7196C25.0426 2.7196 25.8226 3.3996 25.8226 4.3996C25.8226 5.2896 25.0626 6.0396 24.3526 6.8196L20.3726 11.0996C20.1426 11.3296 20.0126 11.5796 20.0126 11.8796C20.0126 12.3996 20.3726 12.7296 20.9626 12.7296Z" /></svg>