<svg viewBox="0 0 30.94503997721202 39.3015625668079" xmlns="http://www.w3.org/2000/svg"><path d="M0.2305 23.1506C1.4305 27.6006 2.6805 28.9706 5.4905 28.9706H21.7205C23.7405 28.9706 25.1005 27.8606 25.6005 25.8106L30.7405 4.9506C31.5005 1.9306 30.0705 0.0006 27.4105 0.0006C24.4405 0.0006 22.0105 2.6006 22.6205 6.3406C19.9205 8.6006 18.4305 12.8606 18.6205 17.9806C15.8005 17.5306 12.5905 17.2806 9.4005 17.2806C2.0905 17.2806 -0.8895 19.0606 0.2305 23.1506ZM2.3305 22.5706C1.7305 20.3706 3.4005 19.4806 9.4005 19.4806C14.2705 19.4806 17.7705 20.1406 19.3305 20.2506C20.1605 20.2606 20.6805 19.7406 20.6705 18.9106C20.5705 13.7506 21.9305 9.6106 24.3205 7.8206C24.8405 7.4006 24.9505 7.1206 24.8005 6.1906C24.4305 3.6206 25.8505 2.2006 27.4105 2.2006C28.4205 2.2006 28.9705 3.0306 28.6405 4.3706L23.4605 25.2806C23.2205 26.2406 22.6405 26.7706 21.7205 26.7706H5.4905C3.9605 26.7706 3.3305 26.2606 2.3305 22.5706ZM16.9905 38.4706C16.9905 39.2106 17.5905 39.5206 18.2305 39.1306L23.0905 36.1806C23.7005 35.7906 23.6905 35.0706 23.0905 34.7006L18.2205 31.7206C17.5805 31.3206 16.9905 31.6606 16.9905 32.3906ZM9.8905 38.4706V32.3906C9.8905 31.6606 9.3105 31.3206 8.6605 31.7206L3.8105 34.7006C3.2005 35.0706 3.1805 35.7906 3.8105 36.1806L8.6605 39.1306C9.3105 39.5206 9.8905 39.2106 9.8905 38.4706Z" /></svg>