<svg viewBox="0 0 30.68974449281546 31.135184652558387" xmlns="http://www.w3.org/2000/svg"><path d="M11.1526 4.7714C11.0726 5.1814 11.2326 5.5114 11.6026 5.6614C12.0526 5.8114 12.5226 5.5814 12.6026 5.1014C12.9026 3.0514 11.8926 0.9514 10.2126 0.1114C9.6826 -0.1586 9.2526 0.1014 9.1026 0.4714C8.9826 0.8214 9.0726 1.2214 9.4626 1.4214C10.7026 2.0014 11.3426 3.3414 11.1526 4.7714ZM30.4626 25.3214C31.5826 21.2414 28.6126 19.4614 21.2826 19.4614C17.9926 19.4614 14.5626 19.7614 11.8226 20.2914C12.3026 14.9214 10.6726 10.4814 7.2426 8.2514C7.9526 4.4714 5.4026 2.1914 3.0526 2.1914C1.0826 2.1914 -0.6174 3.7214 0.2226 7.1314L5.3626 27.9914C5.8626 30.0414 7.2226 31.1314 9.2426 31.1314H25.1926C28.0126 31.1314 29.2526 29.7814 30.4626 25.3214ZM14.9026 15.2114C14.7526 15.7414 15.0226 16.0814 15.3826 16.1814C15.7626 16.2714 16.2226 16.0914 16.3526 15.6314C17.0526 13.0214 15.9526 9.1914 13.0926 7.8414C12.5726 7.5914 12.1826 7.7814 12.0026 8.1014C11.8426 8.4214 11.8826 8.8914 12.3726 9.1514C14.7926 10.4314 15.4526 13.2114 14.9026 15.2114Z" /></svg>