<svg viewBox="0 0 30.688220505474618 28.943359375" xmlns="http://www.w3.org/2000/svg"><path d="M0.2296 23.1296C1.4296 27.5896 2.6796 28.9396 5.4896 28.9396H21.4496C23.4696 28.9396 24.8196 27.8496 25.3296 25.7996L30.4696 4.9396C31.2996 1.5296 29.6096 -0.0004 27.6396 -0.0004C25.2896 -0.0004 22.7296 2.2796 23.4396 6.0596C20.0096 8.2896 18.3896 12.7296 18.8596 18.0996C17.7996 17.8996 16.6196 17.7196 15.3996 17.5996C15.7596 17.0096 16.0996 16.3496 16.0996 15.5196C16.0996 13.7296 14.4896 12.7296 14.4896 11.4996C14.4896 10.8096 14.6696 10.4296 15.1296 9.8196C15.7896 8.9396 14.5696 8.0696 13.8996 8.9096C13.2596 9.7296 12.9696 10.4896 12.9696 11.3996C12.9696 13.2596 14.5596 14.1796 14.5596 15.5196C14.5596 16.1996 14.1296 16.7796 13.7196 17.4296C14.2996 17.4696 14.8596 17.5296 15.3996 17.5996C14.9696 18.2796 14.4896 18.8696 14.4896 19.5196C14.4896 20.2296 14.6696 20.5996 15.1196 21.2096C15.7696 22.0796 14.5596 22.9596 13.8996 22.1196C13.2596 21.3096 12.9696 20.5596 12.9696 19.6196C12.9696 18.7296 13.3396 18.0496 13.7196 17.4296C12.8896 17.3796 12.0396 17.3196 11.1896 17.2996C11.4796 16.7896 11.7296 16.2196 11.7296 15.5196C11.7296 13.7296 10.1096 12.7296 10.1096 11.4996C10.1096 10.8096 10.2896 10.4296 10.7596 9.8196C11.3996 8.9396 10.1796 8.0696 9.5296 8.9096C8.8696 9.7296 8.5996 10.4896 8.5996 11.3996C8.5996 13.2596 10.1796 14.1796 10.1796 15.5196C10.1796 16.1496 9.8296 16.6796 9.4596 17.2696C10.0296 17.2696 10.6096 17.2796 11.1896 17.2996C10.7296 18.1196 10.1096 18.7896 10.1096 19.5196C10.1096 20.2296 10.2896 20.5996 10.7396 21.2096C11.3996 22.0796 10.1696 22.9596 9.5096 22.1196C8.8696 21.3096 8.5996 20.5596 8.5996 19.6196C8.5996 18.6496 9.0296 17.9196 9.4596 17.2696C9.4296 17.2696 9.4196 17.2696 9.3996 17.2696C8.4596 17.2696 7.5796 17.2996 6.7796 17.3596C6.3096 18.1596 5.7196 18.7996 5.7196 19.5196C5.7196 20.2296 5.8996 20.5996 6.3496 21.2096C7.0096 22.0796 5.7796 22.9596 5.1396 22.1196C4.4896 21.3096 4.2096 20.5596 4.2096 19.6196C4.2096 18.7996 4.5196 18.1596 4.8796 17.5796C5.4496 17.4896 6.0896 17.3996 6.7796 17.3596C7.0796 16.8296 7.3396 16.2396 7.3396 15.5196C7.3396 13.7296 5.7196 12.7296 5.7196 11.4996C5.7196 10.8096 5.8996 10.4296 6.3696 9.8196C7.0196 8.9396 5.8096 8.0696 5.1396 8.9096C4.4896 9.7296 4.2096 10.4896 4.2096 11.3996C4.2096 13.2596 5.7896 14.1796 5.7896 15.5196C5.7896 16.2596 5.2996 16.8696 4.8796 17.5796C0.8896 18.2496 -0.6204 20.0296 0.2296 23.1296Z" /></svg>