<svg viewBox="0 0 30.94503997721202 28.95703125" xmlns="http://www.w3.org/2000/svg"><path d="M0.2305 23.1433C1.4305 27.6033 2.6805 28.9533 5.4905 28.9533H21.7205C23.7405 28.9533 25.1005 27.8633 25.6005 25.8133L30.7405 4.9533C31.5005 1.9133 30.0705 0.0033 27.4105 0.0033C24.4405 0.0033 22.0105 2.5933 22.6205 6.3433C19.9205 8.6033 18.4305 12.8633 18.6205 17.9833C15.8005 17.5233 12.5905 17.2833 9.4005 17.2833C2.0905 17.2833 -0.8895 19.0633 0.2305 23.1433ZM3.5805 12.7433H10.1405C10.6505 12.7433 11.0205 12.3833 11.0205 11.8933C11.0205 11.3933 10.6505 11.0333 10.1405 11.0333H5.5105V10.9933L8.4705 7.7933C9.5305 6.6733 10.3205 5.6833 10.3205 4.2833C10.3205 2.3333 8.8005 1.0533 6.4205 1.0533C4.6605 1.0533 3.0705 2.1233 2.6605 3.5733C2.6205 3.7733 2.5905 3.9133 2.5905 4.0833C2.5905 4.5933 2.9205 4.9333 3.4405 4.9333C3.9105 4.9333 4.1405 4.6533 4.3705 4.2633C4.7005 3.5133 5.3605 2.7333 6.5005 2.7333C7.6705 2.7333 8.4605 3.4133 8.4605 4.4133C8.4605 5.3033 7.6905 6.0533 6.9705 6.8333L2.9905 11.1133C2.7705 11.3433 2.6505 11.5933 2.6505 11.8933C2.6505 12.4133 3.0005 12.7433 3.5805 12.7433ZM2.3305 22.5633C1.7305 20.3733 3.4005 19.4833 9.4005 19.4833C14.2705 19.4833 17.7705 20.1433 19.3305 20.2433C20.1605 20.2633 20.6805 19.7333 20.6705 18.8933C20.5705 13.7533 21.9305 9.6133 24.3205 7.8233C24.8405 7.3933 24.9505 7.1233 24.8005 6.1933C24.4305 3.6233 25.8505 2.2033 27.4105 2.2033C28.4205 2.2033 28.9705 3.0333 28.6405 4.3733L23.4605 25.2833C23.2205 26.2333 22.6405 26.7533 21.7205 26.7533H5.4905C3.9605 26.7533 3.3305 26.2633 2.3305 22.5633Z" /></svg>