<svg viewBox="0 0 30.946136928502817 28.95703125" xmlns="http://www.w3.org/2000/svg"><path d="M17.6889 15.5333C17.6889 13.7433 16.0689 12.7433 16.0689 11.5133C16.0689 10.8233 16.2489 10.4433 16.7189 9.8333C17.3689 8.9533 16.1389 8.0833 15.4889 8.9233C14.8289 9.7433 14.5589 10.5033 14.5589 11.4133C14.5589 13.2733 16.1389 14.1933 16.1389 15.5333C16.1389 16.2733 15.6489 16.8833 15.2089 17.5933C14.2189 17.7033 13.2389 17.8233 12.3289 17.9833C12.5189 12.8633 11.0289 8.6033 8.3189 6.3433C8.9389 2.5933 6.4889 0.0033 3.5189 0.0033C0.8689 0.0033 -0.5511 1.9133 0.1989 4.9533L5.3389 25.8133C5.8489 27.8633 7.1989 28.9533 9.2089 28.9533H25.4489C28.2689 28.9533 29.5089 27.6033 30.7189 23.1433C31.5889 19.9633 29.9789 18.1833 25.7789 17.5533C26.1389 16.9833 26.4489 16.3333 26.4489 15.5333C26.4489 13.7433 24.8389 12.7433 24.8389 11.5133C24.8389 10.8233 25.0189 10.4433 25.4789 9.8333C26.1389 8.9533 24.9089 8.0833 24.2489 8.9233C23.5889 9.7433 23.3189 10.5033 23.3189 11.4133C23.3189 13.2733 24.9089 14.1933 24.9089 15.5333C24.9089 16.1833 24.5189 16.7433 24.1289 17.3633C23.3289 17.3133 22.4889 17.2833 21.5589 17.2833C21.8389 16.7733 22.0589 16.2133 22.0589 15.5333C22.0589 13.7433 20.4489 12.7433 20.4489 11.5133C20.4489 10.8233 20.6389 10.4433 21.0889 9.8333C21.7489 8.9533 20.5289 8.0833 19.8789 8.9233C19.2189 9.7433 18.9289 10.5033 18.9289 11.4133C18.9289 13.2733 20.5189 14.1933 20.5189 15.5333C20.5189 16.1633 20.1589 16.7033 19.7789 17.3133C18.8789 17.3333 17.9689 17.3733 17.0889 17.4333C17.4089 16.9033 17.6889 16.2833 17.6889 15.5333ZM28.6089 22.5633C27.6089 26.2633 26.9789 26.7533 25.4489 26.7533H9.2089C8.3089 26.7533 7.7189 26.2333 7.4889 25.2833L2.3089 4.3733C1.9789 3.0333 2.5289 2.2033 3.5389 2.2033C5.0989 2.2033 6.5189 3.6233 6.1389 6.1933C5.9989 7.1233 6.0889 7.3933 6.6089 7.8233C9.0189 9.6133 10.3689 13.7533 10.2589 18.8933C10.2589 19.7333 10.7789 20.2633 11.6189 20.2433C12.2689 20.2033 13.2689 20.0533 14.5589 19.9033C14.6089 20.7233 14.8989 21.4133 15.4689 22.1333C16.1289 22.9733 17.3589 22.0933 16.6989 21.2233C16.3089 20.6833 16.1189 20.3333 16.0689 19.7533C16.9389 19.6733 17.8889 19.5933 18.9289 19.5333C18.9289 19.5633 18.9289 19.6033 18.9289 19.6333C18.9289 20.5733 19.2189 21.3233 19.8589 22.1333C20.5189 22.9733 21.7289 22.0933 21.0889 21.2233C20.6389 20.6133 20.4489 20.2433 20.4489 19.5333V19.4933C20.7989 19.4833 21.1689 19.4833 21.5389 19.4833C22.1889 19.4833 22.7689 19.4933 23.3189 19.5133C23.3189 19.5533 23.3189 19.5933 23.3189 19.6333C23.3189 20.5733 23.5889 21.3233 24.2489 22.1333C24.8889 22.9733 26.1189 22.0933 25.4689 21.2233C25.0289 20.6433 24.8489 20.2733 24.8389 19.6033C28.1489 19.9233 29.0789 20.8333 28.6089 22.5633Z" /></svg>