<svg viewBox="0 0 30.94503997721202 37.60796710833793" xmlns="http://www.w3.org/2000/svg"><path d="M0.2305 23.143C1.4305 27.603 2.6805 28.953 5.4905 28.953H21.7205C23.7405 28.953 25.1005 27.863 25.6005 25.803L30.7405 4.933C31.5005 1.913 30.0705 0.003 27.4105 0.003C24.4405 0.003 22.0105 2.593 22.6205 6.343C19.9205 8.603 18.4305 12.863 18.6205 17.983C15.8005 17.513 12.5905 17.283 9.4005 17.283C2.0905 17.283 -0.8895 19.063 0.2305 23.143ZM2.3305 22.563C1.7305 20.353 3.4005 19.483 9.4005 19.483C14.2705 19.483 17.7705 20.143 19.3305 20.253C20.1605 20.263 20.6805 19.733 20.6705 18.893C20.5705 13.753 21.9305 9.593 24.3205 7.803C24.8405 7.383 24.9505 7.123 24.8005 6.183C24.4305 3.623 25.8505 2.203 27.4105 2.203C28.4205 2.203 28.9705 3.023 28.6405 4.363L23.4605 25.263C23.2205 26.233 22.6405 26.753 21.7205 26.753H5.4905C3.9605 26.753 3.3305 26.263 2.3305 22.563ZM7.4205 15.203H13.5005C14.2305 15.203 14.5705 14.613 14.1705 13.973L11.1905 9.123C10.8205 8.503 10.1005 8.493 9.7205 9.123L6.7605 13.973C6.3705 14.613 6.6805 15.203 7.4205 15.203ZM7.4205 31.053C6.6805 31.053 6.3805 31.653 6.7605 32.293L9.7205 37.143C10.1105 37.773 10.8205 37.753 11.1905 37.143L14.1705 32.293C14.5705 31.653 14.2305 31.053 13.5005 31.053Z" /></svg>