<svg viewBox="0 0 30.945119618324398 39.3015625668079" xmlns="http://www.w3.org/2000/svg"><path d="M30.7189 23.1506C31.8389 19.0606 28.8589 17.2806 21.5389 17.2806C18.3589 17.2806 15.1389 17.5306 12.3289 17.9806C12.5189 12.8606 11.0289 8.6006 8.3189 6.3406C8.9389 2.6006 6.4889 0.0006 3.5189 0.0006C0.8689 0.0006 -0.5511 1.9306 0.1989 4.9506L5.3389 25.8106C5.8489 27.8606 7.1989 28.9706 9.2089 28.9706H25.4489C28.2689 28.9706 29.5089 27.6006 30.7189 23.1506ZM28.6089 22.5706C27.6089 26.2606 26.9789 26.7706 25.4489 26.7706H9.2089C8.3089 26.7706 7.7189 26.2406 7.4889 25.2806L2.3089 4.3706C1.9789 3.0306 2.5289 2.2006 3.5389 2.2006C5.0989 2.2006 6.5189 3.6206 6.1389 6.1906C5.9989 7.1206 6.0889 7.4006 6.6089 7.8206C9.0189 9.6106 10.3689 13.7506 10.2589 18.9106C10.2589 19.7406 10.7789 20.2606 11.6189 20.2506C13.1789 20.1406 16.6789 19.4806 21.5389 19.4806C27.5489 19.4806 29.1989 20.3706 28.6089 22.5706ZM21.0389 38.4706C21.0389 39.2106 21.6289 39.5206 22.2689 39.1306L27.1189 36.1806C27.7489 35.7906 27.7389 35.0706 27.1189 34.7006L22.2689 31.7206C21.6289 31.3206 21.0389 31.6606 21.0389 32.3906ZM13.9389 38.4706V32.3906C13.9389 31.6606 13.3489 31.3206 12.7089 31.7206L7.8389 34.7006C7.2389 35.0706 7.2289 35.7906 7.8389 36.1806L12.6989 39.1306C13.3389 39.5206 13.9389 39.2106 13.9389 38.4706Z" /></svg>