<svg viewBox="0 0 25.169921875 25.169921875" xmlns="http://www.w3.org/2000/svg"><path d="M4.2937 25.1692H20.8737C23.7437 25.1692 25.1737 23.7592 25.1737 20.9492V4.2392C25.1737 1.4192 23.7437 -0.0008 20.8737 -0.0008H4.2937C1.4337 -0.0008 0.0037 1.4192 0.0037 4.2392V20.9492C0.0037 23.7592 1.4337 25.1692 4.2937 25.1692ZM12.5937 20.1692C12.3337 20.1692 12.1237 19.9792 12.1237 19.6992V18.5492C8.9837 18.2792 7.3237 15.7192 7.3237 12.4592C7.3237 9.1492 9.0737 6.6492 12.1237 6.3892V5.2592C12.1237 4.9992 12.3337 4.7992 12.5937 4.7992C12.8637 4.7992 13.0437 4.9992 13.0437 5.2592V6.3692C14.8237 6.4692 16.4037 7.3592 17.1037 8.9292C17.2137 9.1692 17.3037 9.4292 17.3037 9.7492C17.3037 10.1992 17.0037 10.4692 16.5737 10.4692C16.1437 10.4692 15.9437 10.2492 15.8037 9.8392C15.4637 8.7392 14.3437 7.9192 13.0437 7.7892V17.1592C14.3937 17.0392 15.5137 16.2792 15.9037 15.1192C16.0237 14.7292 16.2437 14.4892 16.6637 14.4892C17.1137 14.4892 17.4037 14.7692 17.4037 15.2192C17.4037 15.4492 17.3637 15.6392 17.2837 15.8592C16.6637 17.5692 14.9737 18.4892 13.0437 18.5692V19.6992C13.0437 19.9892 12.8637 20.1692 12.5937 20.1692ZM8.9937 12.4592C8.9937 14.7392 9.9637 16.7992 12.1237 17.1192V7.8192C10.0337 8.1192 8.9937 10.1592 8.9937 12.4592Z" /></svg>