<svg viewBox="0 0 30.529296875 29.17578125" xmlns="http://www.w3.org/2000/svg"><path d="M1.0937 29.179H29.4237C30.0237 29.179 30.5337 28.669 30.5337 28.069C30.5337 27.469 30.0237 26.979 29.4237 26.979H28.7137V25.979C28.7137 25.429 28.3937 25.099 27.8337 25.099H26.9637V9.379H28.1637C28.9137 9.379 29.3537 8.829 29.3537 8.269C29.3537 7.859 29.1237 7.509 28.6137 7.219L16.9437 0.479C16.3937 0.169 15.8137 -0.001 15.2537 -0.001C14.6937 -0.001 14.1137 0.169 13.5937 0.479L1.9137 7.219C1.3937 7.509 1.1737 7.859 1.1737 8.269C1.1737 8.829 1.6137 9.379 2.3637 9.379H3.5637V25.099H2.7037C2.1437 25.099 1.8137 25.429 1.8137 25.979V26.979H1.0937C0.4937 26.979 0.0037 27.469 0.0037 28.069C0.0037 28.669 0.4937 29.179 1.0937 29.179ZM15.2737 23.199C15.0137 23.199 14.8037 22.999 14.8037 22.739V21.589C11.6637 21.319 10.0037 18.759 10.0037 15.489C10.0037 12.169 11.7537 9.679 14.8037 9.419V8.299C14.8037 8.029 15.0137 7.829 15.2737 7.829C15.5437 7.829 15.7237 8.029 15.7237 8.299V9.409C17.5037 9.499 19.0837 10.389 19.7837 11.959C19.8937 12.209 19.9837 12.469 19.9837 12.779C19.9837 13.239 19.6837 13.509 19.2537 13.509C18.8137 13.509 18.6237 13.289 18.4837 12.879C18.1337 11.769 17.0237 10.949 15.7237 10.819V20.179C17.0737 20.069 18.1937 19.319 18.5637 18.159C18.7037 17.749 18.9237 17.509 19.3437 17.509C19.7837 17.509 20.0837 17.799 20.0837 18.239C20.0837 18.489 20.0437 18.679 19.9637 18.879C19.3437 20.599 17.6537 21.509 15.7237 21.599V22.739C15.7237 23.009 15.5437 23.199 15.2737 23.199ZM11.6737 15.489C11.6737 17.769 12.6437 19.839 14.8037 20.149V10.859C12.7037 11.159 11.6737 13.189 11.6737 15.489Z" /></svg>