<svg viewBox="0 0 27.193359375 23.994140625" xmlns="http://www.w3.org/2000/svg"><path d="M0.0037 17.935C0.0037 19.905 1.3037 21.205 3.2437 21.205H3.7637V22.795C3.7637 23.525 4.2337 23.995 4.9737 23.995H5.8237C6.5637 23.995 7.0437 23.525 7.0437 22.795V21.205H20.1537V22.795C20.1537 23.525 20.6337 23.995 21.3737 23.995H22.2037C22.9437 23.995 23.4237 23.525 23.4237 22.795V21.205H23.9537C25.8837 21.205 27.1937 19.905 27.1937 17.935V9.625C27.1937 7.665 25.8837 6.355 23.9537 6.355H23.1437V3.405C23.1437 1.355 21.8237 -0.005 19.8637 -0.005H7.3237C5.3637 -0.005 4.0337 1.355 4.0337 3.405V6.355H3.2437C1.3037 6.355 0.0037 7.665 0.0037 9.625ZM8.0837 13.195V9.625C8.0837 8.235 7.4137 7.165 6.3337 6.675V3.415C6.3337 2.735 6.7837 2.295 7.4337 2.295H19.7437C20.4137 2.295 20.8537 2.735 20.8537 3.415V6.675C19.7737 7.165 19.1137 8.235 19.1137 9.625V13.195ZM2.3237 17.915V9.655C2.3237 9.055 2.7337 8.655 3.3537 8.655H4.7337C5.3437 8.655 5.7537 9.055 5.7537 9.655V15.495H21.4337V9.655C21.4337 9.055 21.8437 8.655 22.4637 8.655H23.8437C24.4637 8.655 24.8737 9.055 24.8737 9.655V17.915C24.8737 18.515 24.4637 18.905 23.8437 18.905H3.3537C2.7337 18.905 2.3237 18.515 2.3237 17.915Z" /></svg>