<svg viewBox="0 0 42.13671875 34.8359375" xmlns="http://www.w3.org/2000/svg"><path d="M21.0837 34.8401C22.9937 34.8401 24.5837 33.2601 24.5837 31.3401C24.5837 29.7201 23.4637 28.3601 21.9737 27.9501V24.9501C22.3237 24.8801 22.6537 24.7901 22.9837 24.6601C25.5537 26.6501 28.6937 26.4401 30.5837 24.8101C33.8837 27.5501 39.1037 25.5801 39.7837 21.7701C41.1137 21.5301 42.1337 20.3401 42.1337 18.9501C42.1337 17.3801 40.8537 16.0901 39.2837 16.0901C37.6937 16.0901 36.4237 17.3801 36.4237 18.9501C36.4237 20.0801 37.0637 21.0501 38.0037 21.5201C37.5137 24.0401 33.8937 25.3101 31.6637 23.4601C31.9337 22.9401 32.1337 22.3501 32.1937 21.7001C33.7137 21.3101 34.8337 19.9201 34.8337 18.2901C34.8337 16.3501 33.2537 14.7501 31.3237 14.7501C29.3837 14.7501 27.7837 16.3501 27.7837 18.2901C27.7837 19.9101 28.8937 21.2701 30.3937 21.6801C29.9737 24.1301 27.0437 25.1301 24.5937 23.6101C25.5437 22.7001 26.1237 21.4101 26.1237 19.9901C26.1237 17.5001 24.3337 15.4401 21.9737 15.0101V7.6001C24.9937 7.2501 27.7637 5.1301 27.7637 2.4701C27.7637 1.5701 27.2737 0.9601 26.1137 0.6001C24.6637 0.1801 22.8737 0.0001 21.0637 0.0001C19.2737 0.0001 17.4837 0.1801 16.0337 0.6001C14.8737 0.9601 14.3837 1.5701 14.3837 2.4701C14.3837 5.1301 17.1537 7.2501 20.1837 7.6001V15.0101C17.8137 15.4401 16.0237 17.5001 16.0237 19.9901C16.0237 21.4101 16.6137 22.6801 17.5537 23.6001C15.0937 25.1301 12.1637 24.1301 11.7437 21.6801C13.2437 21.2701 14.3537 19.9101 14.3537 18.2901C14.3537 16.3501 12.7537 14.7501 10.8137 14.7501C8.8837 14.7501 7.3037 16.3501 7.3037 18.2901C7.3037 19.9201 8.4237 21.3101 9.9437 21.7001C10.0037 22.3501 10.2037 22.9401 10.4737 23.4601C8.2437 25.3101 4.6237 24.0401 4.1337 21.5201C5.0737 21.0501 5.7137 20.0801 5.7137 18.9501C5.7137 17.3801 4.4437 16.0901 2.8537 16.0901C1.2837 16.0901 0.0037 17.3801 0.0037 18.9501C0.0037 20.3401 1.0237 21.5301 2.3537 21.7701C3.0337 25.5801 8.2537 27.5501 11.5537 24.8101C13.4437 26.4401 16.5837 26.6501 19.1537 24.6501C19.4837 24.7901 19.8237 24.8801 20.1837 24.9501V27.9501C18.6937 28.3601 17.5637 29.7201 17.5637 31.3401C17.5637 33.2601 19.1537 34.8401 21.0837 34.8401Z" /></svg>