<svg viewBox="0 0 29.39453125 25.279296875" xmlns="http://www.w3.org/2000/svg"><path d="M1.0937 25.2819H28.2837C28.8937 25.2819 29.3937 24.8019 29.3937 24.1819C29.3937 23.5819 28.8937 23.0919 28.2837 23.0919H2.5837C2.2937 23.0919 2.2037 22.9919 2.2037 22.7119V1.0919C2.2037 0.5019 1.7137 0.0019 1.1037 0.0019C0.4937 0.0019 0.0037 0.5019 0.0037 1.0919V24.2019C0.0037 24.8519 0.4337 25.2819 1.0937 25.2819ZM25.3037 7.5619C26.4837 7.5619 27.4837 6.5519 27.4837 5.3819C27.4837 4.2419 26.4837 3.2119 25.3037 3.2119C24.1137 3.2119 23.1237 4.2419 23.1237 5.3819C23.1237 6.5519 24.1137 7.5619 25.3037 7.5619ZM13.7237 9.6519C14.9037 9.6519 15.9037 8.6419 15.9037 7.4819C15.9037 6.3319 14.9037 5.3019 13.7237 5.3019C12.5337 5.3019 11.5437 6.3319 11.5437 7.4819C11.5437 8.6419 12.5337 9.6519 13.7237 9.6519ZM20.0737 16.2819C21.2437 16.2819 22.2437 15.2719 22.2437 14.1119C22.2437 12.9619 21.2437 11.9319 20.0737 11.9319C18.8837 11.9319 17.8837 12.9619 17.8837 14.1119C17.8837 15.2719 18.8837 16.2819 20.0737 16.2819ZM8.4937 18.3919C9.6837 18.3919 10.6637 17.3819 10.6637 16.2119C10.6637 15.0619 9.6837 14.0419 8.4937 14.0419C7.3037 14.0419 6.3037 15.0619 6.3037 16.2119C6.3037 17.3819 7.3037 18.3919 8.4937 18.3919Z" /></svg>