<svg viewBox="0 0 27.890625 27.890625" xmlns="http://www.w3.org/2000/svg"><path d="M13.9427 27.8864C21.6427 27.8864 27.8927 21.6464 27.8927 13.9464C27.8927 6.2464 21.6427 -0.0036 13.9427 -0.0036C6.2527 -0.0036 0.0027 6.2464 0.0027 13.9464C0.0027 21.6464 6.2527 27.8864 13.9427 27.8864ZM13.9427 25.5664C7.5227 25.5664 2.3227 20.3664 2.3227 13.9464C2.3227 7.5164 7.5227 2.3264 13.9427 2.3264C20.3727 2.3264 25.5627 7.5164 25.5627 13.9464C25.5627 20.3664 20.3727 25.5664 13.9427 25.5664ZM6.5127 19.0964C6.5127 19.7464 6.9327 20.1664 7.5727 20.1664H20.6027C21.0127 20.1664 21.3727 19.8264 21.3727 19.4164C21.3727 19.0064 21.0127 18.6664 20.6027 18.6664H8.0427C8.0127 18.6664 8.0227 18.6464 8.0227 18.6364V15.7464L10.6927 13.0664C10.7727 12.9764 10.8427 12.9764 10.9127 13.0664L13.3027 15.5164C13.6427 15.8364 13.9727 15.9964 14.3527 15.9964C14.7527 15.9964 15.1027 15.8364 15.4227 15.5164L18.0027 12.8764L18.9727 13.8764C19.3227 14.2164 19.8127 14.0264 19.9427 13.5364L20.9427 9.5964C21.0727 9.1564 20.6627 8.7764 20.2027 8.8864L16.2927 9.8564C15.8027 9.9764 15.6027 10.5164 15.9427 10.8264L16.9227 11.8164L14.4627 14.2864C14.3927 14.3864 14.3427 14.3864 14.2727 14.2964L11.8527 11.8164C11.5427 11.4864 11.1927 11.3364 10.8027 11.3364C10.3927 11.3364 10.0627 11.4864 9.7527 11.8164L8.0227 13.5764V8.0764C8.0227 7.6664 7.6727 7.3264 7.2627 7.3264C6.8527 7.3264 6.5127 7.6664 6.5127 8.0764Z" /></svg>