<svg viewBox="0 0 27.466796875 18.56640625" xmlns="http://www.w3.org/2000/svg"><path d="M6.3837 18.5706C9.5037 18.5706 11.9537 16.9906 13.2737 14.3806H13.4137C14.5737 17.0106 16.9837 18.5706 20.1937 18.5706C23.5437 18.5706 26.1037 17.1306 27.1837 14.5606C27.2937 14.2906 27.3737 14.0006 27.3737 13.7806C27.3737 13.1106 26.9237 12.6706 26.2337 12.6706C25.8237 12.6706 25.5237 12.8506 25.2837 13.2206C24.0337 15.3906 22.4737 16.3506 20.0937 16.3506C16.6837 16.3506 14.4937 13.8206 14.4937 10.0606V9.8806H26.0037C26.9237 9.8806 27.4637 9.3206 27.4637 8.3706C27.4637 3.4406 24.4637 0.0006 20.0737 0.0006C17.1037 0.0006 14.9037 1.4506 13.7437 3.8806H13.6337C12.9337 1.4506 10.5637 0.0006 7.4637 0.0006C4.5137 0.0006 1.9537 1.3806 1.0137 3.4906C0.7937 3.9006 0.6837 4.3206 0.6837 4.6806C0.6837 5.3606 1.1437 5.8106 1.8037 5.8106C2.3137 5.8106 2.6537 5.6006 2.8737 5.1506C3.8037 3.1206 5.3037 2.2406 7.5037 2.2406C10.1737 2.2406 11.9637 3.9406 11.9637 6.3806V7.8906L6.6137 8.1806C2.3337 8.3906 0.0037 10.2306 0.0037 13.2706C0.0037 16.4706 2.5037 18.5706 6.3837 18.5706ZM14.4937 7.8906C14.6937 4.5406 16.8337 2.2106 19.8837 2.2106C22.8837 2.2106 24.8037 4.4806 24.8537 7.8906ZM6.4637 16.3806C4.1137 16.3806 2.5837 15.0706 2.5837 13.2306C2.5837 11.4006 4.1037 10.3406 6.8937 10.1706L11.9637 9.8806V11.4706C11.9637 14.1806 9.5537 16.3806 6.4637 16.3806Z" /></svg>