<svg viewBox="0 0 22.99609375 29.3125" xmlns="http://www.w3.org/2000/svg"><path d="M0.0037 25.0373C0.0037 27.8873 1.4037 29.3173 4.2337 29.3173H18.7537C21.5837 29.3173 22.9937 27.8873 22.9937 25.0373V4.2973C22.9937 1.4473 21.5837 -0.0027 18.7537 -0.0027H4.2337C1.4037 -0.0027 0.0037 1.4473 0.0037 4.2973ZM5.0437 4.5373H13.4237C13.9737 4.5373 14.3037 4.8973 14.3037 5.4673V7.7473C14.3037 8.3173 13.9737 8.6773 13.4237 8.6773H5.0437C4.4837 8.6773 4.1537 8.3173 4.1537 7.7473V5.4673C4.1537 4.8973 4.4837 4.5373 5.0437 4.5373ZM5.0437 9.8973H17.9737C18.5237 9.8973 18.8537 10.2573 18.8537 10.8273V13.1073C18.8537 13.6873 18.5237 14.0373 17.9737 14.0373H5.0437C4.4837 14.0373 4.1537 13.6873 4.1537 13.1073V10.8273C4.1537 10.2573 4.4837 9.8973 5.0437 9.8973ZM5.0437 15.2873H15.7237C16.2737 15.2873 16.5937 15.6273 16.5937 16.1873V18.4873C16.5937 19.0573 16.2737 19.3973 15.7237 19.3973H5.0437C4.4837 19.3973 4.1537 19.0573 4.1537 18.4873V16.1873C4.1537 15.6273 4.4837 15.2873 5.0437 15.2873ZM5.0437 20.6473H11.2237C11.7537 20.6473 12.1037 20.9973 12.1037 21.5773V23.8573C12.1037 24.4173 11.7537 24.7873 11.2237 24.7873H5.0437C4.4837 24.7873 4.1537 24.4173 4.1537 23.8573V21.5773C4.1537 20.9973 4.4837 20.6473 5.0437 20.6473Z" /></svg>