<svg viewBox="0 0 27.890625 27.890625" xmlns="http://www.w3.org/2000/svg"><path d="M13.9427 27.8864C21.6427 27.8864 27.8927 21.6464 27.8927 13.9464C27.8927 6.2464 21.6427 -0.0036 13.9427 -0.0036C6.2527 -0.0036 0.0027 6.2464 0.0027 13.9464C0.0027 21.6464 6.2527 27.8864 13.9427 27.8864ZM13.9327 11.7064C11.2827 11.7064 9.2327 9.6664 9.2327 7.0264C9.2327 4.3864 11.2827 2.3364 13.9027 2.3264H13.9327C16.5827 2.3264 18.6527 4.3764 18.6527 7.0264C18.6527 9.6664 16.5827 11.7064 13.9327 11.7064ZM13.9427 25.5664C7.5227 25.5664 2.3227 20.3664 2.3227 13.9464C2.3227 9.9164 4.3727 6.3564 7.4827 4.2764C7.1227 5.1264 6.9227 6.0564 6.9227 7.0264C6.9227 10.8464 10.1127 14.0164 13.9327 14.0164C17.7627 14.0164 20.9627 10.8464 20.9627 7.0264C20.9627 6.0464 20.7527 5.1164 20.3827 4.2664C23.5127 6.3464 25.5627 9.8964 25.5627 13.9464C25.5627 20.3664 20.3727 25.5664 13.9427 25.5664Z" /></svg>