<svg viewBox="0 0 27.890625 27.890625" xmlns="http://www.w3.org/2000/svg"><path d="M13.9427 27.8864C21.6427 27.8864 27.8927 21.6464 27.8927 13.9464C27.8927 6.2464 21.6427 -0.0036 13.9427 -0.0036C6.2527 -0.0036 0.0027 6.2464 0.0027 13.9464C0.0027 21.6464 6.2527 27.8864 13.9427 27.8864ZM13.9427 25.5664C7.5227 25.5664 2.3227 20.3664 2.3227 13.9464C2.3227 7.5164 7.5227 2.3264 13.9427 2.3264C20.3727 2.3264 25.5627 7.5164 25.5627 13.9464C25.5627 20.3664 20.3727 25.5664 13.9427 25.5664ZM16.6427 20.7164C17.0627 20.2864 17.0527 19.6364 16.6527 19.2464L11.0327 13.9464L16.6527 8.6664C17.0627 8.2864 17.0527 7.6064 16.6227 7.2064C16.2427 6.8364 15.6127 6.8464 15.1927 7.2464L9.5027 12.6164C8.7227 13.3264 8.7227 14.5864 9.5027 15.2964L15.1927 20.6764C15.5727 21.0264 16.2827 21.0564 16.6427 20.7164Z" /></svg>