<svg viewBox="0 0 25.169921875 25.169921875" xmlns="http://www.w3.org/2000/svg"><path d="M4.2937 25.1692H20.8737C23.7437 25.1692 25.1737 23.7592 25.1737 20.9492V4.2392C25.1737 1.4192 23.7437 -0.0008 20.8737 -0.0008H4.2937C1.4337 -0.0008 0.0037 1.4192 0.0037 4.2392V20.9492C0.0037 23.7592 1.4337 25.1692 4.2937 25.1692ZM4.3237 22.9692C2.9537 22.9692 2.2037 22.2392 2.2037 20.8192V4.3592C2.2037 2.9392 2.9537 2.1992 4.3237 2.1992H20.8537C22.2037 2.1992 22.9737 2.9392 22.9737 4.3592V20.8192C22.9737 22.2392 22.2037 22.9692 20.8537 22.9692ZM13.9637 16.9792L19.3137 11.2892C19.7237 10.8592 19.7437 10.2292 19.3637 9.8392C18.9537 9.4192 18.2837 9.4092 17.8937 9.8192L12.6037 15.4192L7.3137 9.8192C6.9137 9.4092 6.2437 9.4092 5.8337 9.8392C5.4837 10.2392 5.4837 10.8592 5.8837 11.2892L11.2537 16.9792C12.1037 17.8992 13.0937 17.8992 13.9637 16.9792Z" /></svg>