<svg viewBox="0 0 27.890625 27.890625" xmlns="http://www.w3.org/2000/svg"><path d="M13.9427 27.8864C21.6427 27.8864 27.8927 21.6264 27.8927 13.9464C27.8927 6.2464 21.6427 -0.0036 13.9427 -0.0036C6.2627 -0.0036 0.0027 6.2464 0.0027 13.9464C0.0027 21.6264 6.2627 27.8864 13.9427 27.8864ZM10.7027 20.9364C10.2827 20.4964 10.2827 19.8064 10.7027 19.4164L16.5027 13.9564L10.7027 8.5164C10.2627 8.1064 10.2827 7.4064 10.7227 6.9964C11.1327 6.6064 11.7827 6.6464 12.2227 7.0564L18.0927 12.5664C18.8927 13.3164 18.8827 14.6164 18.0927 15.3564L12.2227 20.8764C11.8227 21.2564 11.0927 21.2864 10.7027 20.9364Z" /></svg>