<svg viewBox="0 0 25.169921875 25.169921875" xmlns="http://www.w3.org/2000/svg"><path d="M4.2937 25.1692H20.8737C23.7437 25.1692 25.1737 23.7592 25.1737 20.9492V4.2392C25.1737 1.4192 23.7437 -0.0008 20.8737 -0.0008H4.2937C1.4337 -0.0008 0.0037 1.4192 0.0037 4.2392V20.9492C0.0037 23.7592 1.4337 25.1692 4.2937 25.1692ZM15.3037 19.3492C14.9437 19.6892 14.2337 19.6592 13.8537 19.3092L8.1637 13.9292C7.3837 13.2192 7.3837 11.9592 8.1637 11.2492L13.8537 5.8792C14.2737 5.4792 14.9037 5.4692 15.2837 5.8392C15.7137 6.2392 15.7237 6.9192 15.3137 7.2992L9.6937 12.5792L15.3137 17.8792C15.7137 18.2692 15.7237 18.9192 15.3037 19.3492Z" /></svg>