<svg viewBox="0 0 30.529296875 29.17578125" xmlns="http://www.w3.org/2000/svg"><path d="M1.0937 29.179H29.4237C30.0237 29.179 30.5337 28.669 30.5337 28.069C30.5337 27.469 30.0237 26.979 29.4237 26.979H28.7137V25.979C28.7137 25.429 28.3937 25.099 27.8337 25.099H26.9637V9.379H28.1637C28.9137 9.379 29.3537 8.829 29.3537 8.269C29.3537 7.859 29.1237 7.509 28.6137 7.219L16.9437 0.479C16.3937 0.169 15.8137 -0.001 15.2537 -0.001C14.6937 -0.001 14.1137 0.169 13.5937 0.479L1.9137 7.219C1.3937 7.509 1.1737 7.859 1.1737 8.269C1.1737 8.829 1.6137 9.379 2.3637 9.379H3.5637V25.099H2.7037C2.1437 25.099 1.8137 25.429 1.8137 25.979V26.979H1.0937C0.4937 26.979 0.0037 27.469 0.0037 28.069C0.0037 28.669 0.4937 29.179 1.0937 29.179ZM15.2737 22.229C14.7937 22.229 14.4537 21.879 14.4537 21.379V19.369H11.7037C11.4337 19.369 11.2237 19.159 11.2237 18.899C11.2237 18.609 11.4337 18.389 11.7037 18.389H14.4537V16.929H11.7037C11.4337 16.929 11.2237 16.719 11.2237 16.429C11.2237 16.159 11.4337 15.959 11.7037 15.959H13.9637L10.4437 10.299C10.3237 10.099 10.2637 9.899 10.2637 9.749C10.2637 9.299 10.6137 8.979 11.0837 8.979C11.4537 8.979 11.6637 9.159 11.8437 9.459L15.2437 15.259H15.3137L18.7137 9.459C18.8937 9.159 19.1637 8.999 19.4537 8.999C19.9237 8.999 20.2737 9.309 20.2737 9.749C20.2737 9.969 20.2337 10.079 20.1137 10.279L16.5937 15.959H18.8837C19.1537 15.959 19.3637 16.159 19.3637 16.429C19.3637 16.719 19.1537 16.929 18.8837 16.929H16.0937V18.389H18.8837C19.1537 18.389 19.3637 18.609 19.3637 18.899C19.3637 19.159 19.1537 19.369 18.8837 19.369H16.0937V21.379C16.0937 21.879 15.7537 22.229 15.2737 22.229Z" /></svg>