<svg viewBox="0 0 27.890625 27.890625" xmlns="http://www.w3.org/2000/svg"><path d="M13.9427 27.8864C21.6427 27.8864 27.8927 21.6464 27.8927 13.9464C27.8927 6.2464 21.6427 -0.0036 13.9427 -0.0036C6.2527 -0.0036 0.0027 6.2464 0.0027 13.9464C0.0027 21.6464 6.2527 27.8864 13.9427 27.8864ZM6.5327 21.3564V22.8964C3.9627 20.7664 2.3227 17.5564 2.3227 13.9464C2.3227 7.5164 7.5227 2.3264 13.9427 2.3264C17.5527 2.3264 20.7827 3.9664 22.9127 6.5464H21.3427V8.3964H23.2027V6.9064C23.5527 7.3664 23.8827 7.8764 24.1627 8.3964H23.2027V10.2364H24.9627C24.9927 10.3264 25.0227 10.4064 25.0427 10.4964V12.0964H25.4127C25.5127 12.6964 25.5627 13.3164 25.5627 13.9464H25.0427V15.8064H25.4127C25.3327 16.3564 25.2127 16.8664 25.0427 17.3864V15.8064H23.2027V17.6464H24.9627C24.7427 18.2964 24.4727 18.9264 24.1627 19.5064H23.2027V20.9864C23.1027 21.1064 22.9927 21.2364 22.9027 21.3564H21.3427V22.9164C21.2227 23.0064 21.0927 23.1164 20.9627 23.2164H19.4927V24.1564C18.9127 24.4864 18.2927 24.7464 17.6327 24.9664V23.2164H15.7927V25.0564H17.3527C16.8427 25.2064 16.3227 25.3364 15.7927 25.4164V25.0564H13.9427V25.5664C13.3127 25.5664 12.6827 25.5164 12.0827 25.4164V25.0564H10.5427C10.4327 25.0364 10.3327 24.9964 10.2427 24.9664V23.2164H8.3827V24.1564C7.8727 23.8664 7.3827 23.5564 6.9327 23.2164H8.3827V21.3564ZM19.4927 8.3964V10.2364H21.3427V8.3964ZM17.6327 10.2364V12.0964H19.4927V10.2364ZM21.3427 10.2364V12.0964H23.2027V10.2364ZM15.7927 12.0964V13.9464H17.6327V12.0964ZM23.2027 12.0964V13.9464H25.0427V12.0964ZM19.4927 12.0964V13.9464H21.3427V12.0964ZM21.3427 13.9464V15.8064H23.2027V13.9464ZM17.6327 13.9464V15.8064H19.4927V13.9464ZM13.9427 13.9464V15.8064H15.7927V13.9464ZM15.7927 15.8064V17.6464H17.6327V15.8064ZM19.4927 15.8064V17.6464H21.3427V15.8064ZM12.0827 15.8064V17.6464H13.9427V15.8064ZM13.9427 17.6464V19.5064H15.7927V17.6464ZM10.2427 17.6464V19.5064H12.0827V17.6464ZM21.3427 17.6464V19.5064H23.2027V17.6464ZM17.6327 17.6464V19.5064H19.4927V17.6464ZM8.3827 19.5064V21.3564H10.2427V19.5064ZM12.0827 19.5064V21.3564H13.9427V19.5064ZM15.7927 19.5064V21.3564H17.6327V19.5064ZM19.4927 19.5064V21.3564H21.3427V19.5064ZM10.2427 21.3564V23.2164H12.0827V21.3564ZM13.9427 21.3564V23.2164H15.7927V21.3564ZM17.6327 21.3564V23.2164H19.4927V21.3564ZM12.0827 23.2164V25.0564H13.9427V23.2164Z" /></svg>