<svg viewBox="0 0 22.845703125 30.802734375" xmlns="http://www.w3.org/2000/svg"><path d="M0.0037 27.1893C0.0037 29.3493 1.5137 30.7993 3.7837 30.7993H19.0537C21.3237 30.7993 22.8437 29.3493 22.8437 27.1893V3.6193C22.8437 1.4593 21.3237 -0.0007 19.0537 -0.0007H3.7837C1.5137 -0.0007 0.0037 1.4593 0.0037 3.6193ZM2.2037 26.8193V3.9893C2.2037 2.8693 2.8837 2.1993 4.0637 2.1993H18.7837C19.9437 2.1993 20.6437 2.8693 20.6437 3.9893V26.8193C20.6437 27.9493 19.9437 28.5993 18.7837 28.5993H4.0637C2.8837 28.5993 2.2037 27.9493 2.2037 26.8193ZM11.4137 22.1893C15.1637 22.1893 18.2137 19.1493 18.2137 15.3993C18.2137 11.6593 15.1637 8.6293 11.4137 8.6293C7.6837 8.6293 4.6337 11.6593 4.6337 15.3993C4.6337 19.1493 7.6837 22.1893 11.4137 22.1893Z" /></svg>