<svg viewBox="0 0 28.095703125 26.810546875" xmlns="http://www.w3.org/2000/svg"><path d="M3.9937 7.9695C6.1937 7.9695 7.9837 6.1795 7.9837 3.9895C7.9837 1.7895 6.1937 -0.0005 3.9937 -0.0005C1.7937 -0.0005 0.0137 1.7895 0.0137 3.9895C0.0137 6.1795 1.7937 7.9695 3.9937 7.9695ZM14.0537 7.9695C16.2537 7.9695 18.0337 6.1795 18.0337 3.9895C18.0337 1.7895 16.2537 -0.0005 14.0537 -0.0005C11.8537 -0.0005 10.0737 1.7895 10.0737 3.9895C10.0737 6.1795 11.8537 7.9695 14.0537 7.9695ZM24.1137 7.9695C26.3137 7.9695 28.0937 6.1795 28.0937 3.9895C28.0937 1.7895 26.3137 -0.0005 24.1137 -0.0005C21.9137 -0.0005 20.1437 1.7895 20.1437 3.9895C20.1437 6.1795 21.9137 7.9695 24.1137 7.9695ZM3.9737 17.3895C6.1837 17.3895 7.9737 15.6095 7.9737 13.4095C7.9737 11.2095 6.1837 9.4295 3.9737 9.4295C1.7737 9.4295 0.0037 11.2095 0.0037 13.4095C0.0037 15.6095 1.7737 17.3895 3.9737 17.3895ZM14.0437 17.3895C16.2437 17.3895 18.0237 15.6095 18.0237 13.4095C18.0237 11.2095 16.2437 9.4295 14.0437 9.4295C11.8437 9.4295 10.0637 11.2095 10.0637 13.4095C10.0637 15.6095 11.8437 17.3895 14.0437 17.3895ZM24.1037 17.3895C26.3037 17.3895 28.0837 15.6095 28.0837 13.4095C28.0837 11.2095 26.3037 9.4295 24.1037 9.4295C21.9037 9.4295 20.1237 11.2095 20.1237 13.4095C20.1237 15.6095 21.9037 17.3895 24.1037 17.3895ZM3.9737 26.8095C6.1837 26.8095 7.9737 25.0295 7.9737 22.8295C7.9737 20.6295 6.1837 18.8495 3.9737 18.8495C1.7737 18.8495 0.0037 20.6295 0.0037 22.8295C0.0037 25.0295 1.7737 26.8095 3.9737 26.8095ZM14.0437 26.8095C16.2437 26.8095 18.0237 25.0295 18.0237 22.8295C18.0237 20.6295 16.2437 18.8495 14.0437 18.8495C11.8437 18.8495 10.0637 20.6295 10.0637 22.8295C10.0637 25.0295 11.8437 26.8095 14.0437 26.8095ZM24.1037 26.8095C26.3037 26.8095 28.0837 25.0295 28.0837 22.8295C28.0837 20.6295 26.3037 18.8495 24.1037 18.8495C21.9037 18.8495 20.1237 20.6295 20.1237 22.8295C20.1237 25.0295 21.9037 26.8095 24.1037 26.8095Z" /></svg>