<svg viewBox="0 0 27.890625 27.890625" xmlns="http://www.w3.org/2000/svg"><path d="M13.9427 27.8864C21.6427 27.8864 27.8927 21.6464 27.8927 13.9464C27.8927 6.2464 21.6427 -0.0036 13.9427 -0.0036C6.2527 -0.0036 0.0027 6.2464 0.0027 13.9464C0.0027 21.6464 6.2527 27.8864 13.9427 27.8864ZM13.9427 25.5664C7.5227 25.5664 2.3227 20.3664 2.3227 13.9464C2.3227 7.5164 7.5227 2.3264 13.9427 2.3264C20.3727 2.3264 25.5627 7.5164 25.5627 13.9464C25.5627 20.3664 20.3727 25.5664 13.9427 25.5664ZM13.9327 8.8064C14.4927 8.8064 14.9027 8.3964 14.9027 7.8364C14.9027 7.2764 14.4927 6.8664 13.9327 6.8664C13.3727 6.8664 12.9627 7.2764 12.9627 7.8364C12.9627 8.3964 13.3727 8.8064 13.9327 8.8064ZM16.9927 9.6264C17.5727 9.6264 17.9827 9.2164 17.9827 8.6564C17.9827 8.0964 17.5727 7.6864 16.9927 7.6864C16.4327 7.6864 16.0227 8.0964 16.0227 8.6564C16.0227 9.2164 16.4327 9.6264 16.9927 9.6264ZM10.8727 9.6264C11.4327 9.6264 11.8427 9.2164 11.8427 8.6564C11.8427 8.0964 11.4327 7.6864 10.8727 7.6864C10.3127 7.6864 9.9027 8.0964 9.9027 8.6564C9.9027 9.2164 10.3127 9.6264 10.8727 9.6264ZM19.2327 11.8664C19.7927 11.8664 20.2027 11.4564 20.2027 10.8964C20.2027 10.3364 19.7927 9.9264 19.2327 9.9264C18.6727 9.9264 18.2627 10.3364 18.2627 10.8964C18.2627 11.4564 18.6727 11.8664 19.2327 11.8664ZM8.6227 11.8664C9.1827 11.8664 9.5927 11.4564 9.5927 10.8964C9.5927 10.3364 9.1827 9.9264 8.6227 9.9264C8.0627 9.9264 7.6527 10.3364 7.6527 10.8964C7.6527 11.4564 8.0627 11.8664 8.6227 11.8664ZM20.0527 14.9264C20.6127 14.9264 21.0227 14.5164 21.0227 13.9564C21.0227 13.3964 20.6127 12.9864 20.0527 12.9864C19.4927 12.9864 19.0827 13.3964 19.0827 13.9564C19.0827 14.5164 19.4927 14.9264 20.0527 14.9264ZM7.8027 14.9264C8.3627 14.9264 8.7727 14.5164 8.7727 13.9564C8.7727 13.3964 8.3627 12.9864 7.8027 12.9864C7.2427 12.9864 6.8327 13.3964 6.8327 13.9564C6.8327 14.5164 7.2427 14.9264 7.8027 14.9264ZM19.2327 18.0064C19.7927 18.0064 20.2027 17.5964 20.2027 17.0364C20.2027 16.4564 19.7927 16.0464 19.2327 16.0464C18.6727 16.0464 18.2627 16.4564 18.2627 17.0364C18.2627 17.5964 18.6727 18.0064 19.2327 18.0064ZM8.6227 18.0064C9.1827 18.0064 9.5927 17.5964 9.5927 17.0364C9.5927 16.4564 9.1827 16.0464 8.6227 16.0464C8.0627 16.0464 7.6527 16.4564 7.6527 17.0364C7.6527 17.5964 8.0627 18.0064 8.6227 18.0064ZM16.9927 20.2364C17.5727 20.2364 17.9827 19.8264 17.9827 19.2664C17.9827 18.7064 17.5727 18.2964 16.9927 18.2964C16.4327 18.2964 16.0227 18.7064 16.0227 19.2664C16.0227 19.8264 16.4327 20.2364 16.9927 20.2364ZM10.8727 20.2364C11.4327 20.2364 11.8427 19.8264 11.8427 19.2664C11.8427 18.7064 11.4327 18.2964 10.8727 18.2964C10.3127 18.2964 9.9027 18.7064 9.9027 19.2664C9.9027 19.8264 10.3127 20.2364 10.8727 20.2364ZM13.9327 21.0564C14.4927 21.0564 14.9027 20.6464 14.9027 20.0864C14.9027 19.5264 14.4927 19.1164 13.9327 19.1164C13.3727 19.1164 12.9627 19.5264 12.9627 20.0864C12.9627 20.6464 13.3727 21.0564 13.9327 21.0564Z" /></svg>