<svg viewBox="0 0 38.30859375 27.890625" xmlns="http://www.w3.org/2000/svg"><path d="M0.0037 13.9464C0.0037 14.5364 0.4737 15.0364 1.0537 15.0364H5.2637C5.8237 22.2264 11.8237 27.8864 19.1637 27.8864C26.4937 27.8864 32.5137 22.2264 33.0537 15.0364H37.2537C37.8337 15.0364 38.3037 14.5364 38.3037 13.9464C38.3037 13.3564 37.8337 12.8664 37.2537 12.8664H33.0737C32.5137 5.6764 26.4937 -0.0036 19.1637 -0.0036C11.8237 -0.0036 5.8137 5.6764 5.2637 12.8664H1.0537C0.4737 12.8664 0.0037 13.3564 0.0037 13.9464ZM19.1637 2.3264C25.2237 2.3264 30.1837 6.9464 30.7337 12.8664H7.5837C8.1337 6.9464 13.0937 2.3264 19.1637 2.3264ZM19.1637 25.5664C13.1137 25.5664 8.1337 20.9464 7.5837 15.0364H30.7337C30.1837 20.9464 25.2237 25.5664 19.1637 25.5664Z" /></svg>