<svg viewBox="0 0 26.9609375 26.00390625" xmlns="http://www.w3.org/2000/svg"><path d="M5.9637 11.923C9.2537 11.923 11.9237 9.253 11.9237 5.963C11.9237 2.663 9.2537 0.003 5.9637 0.003C2.6637 0.003 0.0037 2.663 0.0037 5.963C0.0037 9.253 2.6637 11.923 5.9637 11.923ZM21.0037 11.923C24.2937 11.923 26.9637 9.253 26.9637 5.963C26.9637 2.663 24.2937 0.003 21.0037 0.003C17.7037 0.003 15.0437 2.663 15.0437 5.963C15.0437 9.253 17.7037 11.923 21.0037 11.923ZM5.9637 9.793C3.8437 9.793 2.1337 8.083 2.1337 5.963C2.1337 3.843 3.8437 2.133 5.9637 2.133C8.0837 2.133 9.7937 3.843 9.7937 5.963C9.7937 8.083 8.0837 9.793 5.9637 9.793ZM21.0037 9.793C18.8837 9.793 17.1737 8.083 17.1737 5.963C17.1737 3.843 18.8837 2.133 21.0037 2.133C23.1237 2.133 24.8237 3.843 24.8237 5.963C24.8237 8.083 23.1237 9.793 21.0037 9.793ZM5.9637 26.003C9.2537 26.003 11.9237 23.333 11.9237 20.043C11.9237 16.743 9.2537 14.083 5.9637 14.083C2.6637 14.083 0.0037 16.743 0.0037 20.043C0.0037 23.333 2.6637 26.003 5.9637 26.003ZM21.0037 26.003C24.2937 26.003 26.9637 23.333 26.9637 20.043C26.9637 16.743 24.2937 14.083 21.0037 14.083C17.7037 14.083 15.0437 16.743 15.0437 20.043C15.0437 23.333 17.7037 26.003 21.0037 26.003ZM5.9637 23.873C3.8437 23.873 2.1337 22.163 2.1337 20.043C2.1337 17.923 3.8437 16.213 5.9637 16.213C8.0837 16.213 9.7937 17.923 9.7937 20.043C9.7937 22.163 8.0837 23.873 5.9637 23.873ZM21.0037 23.873C18.8837 23.873 17.1737 22.163 17.1737 20.043C17.1737 17.923 18.8837 16.213 21.0037 16.213C23.1237 16.213 24.8237 17.923 24.8237 20.043C24.8237 22.163 23.1237 23.873 21.0037 23.873Z" /></svg>