<svg viewBox="0 0 27.890625 27.890625" xmlns="http://www.w3.org/2000/svg"><path d="M13.9427 27.8864C21.6427 27.8864 27.8927 21.6464 27.8927 13.9464C27.8927 6.2464 21.6427 -0.0036 13.9427 -0.0036C6.2527 -0.0036 0.0027 6.2464 0.0027 13.9464C0.0027 21.6464 6.2527 27.8864 13.9427 27.8864ZM13.9627 23.6364H7.5327C6.7527 23.1364 6.0527 22.5264 5.4327 21.8464H13.9627V20.4364H4.2927C3.9827 19.9464 3.6927 19.4364 3.4327 18.9264H13.9627V17.4964H2.8727C2.7227 17.0064 2.5927 16.5064 2.5027 15.9864H13.9627V14.5564H2.3427C2.3227 14.3564 2.3227 14.1464 2.3227 13.9464C2.3227 13.6464 2.3427 13.3464 2.3527 13.0464H13.9627V11.6364H2.5527C2.6527 11.1164 2.8027 10.6064 2.9627 10.1164H13.9627V8.6964H3.5727C3.8427 8.1664 4.1427 7.6564 4.4827 7.1764H13.9627V5.7664H5.6827C6.2527 5.1964 6.8627 4.6864 7.5327 4.2564H13.9627V2.8264H10.5227C11.6027 2.5064 12.7527 2.3264 13.9427 2.3264C20.3727 2.3264 25.5627 7.5164 25.5627 13.9464C25.5627 20.3664 20.3727 25.5664 13.9427 25.5664C12.7527 25.5664 11.6027 25.3864 10.5227 25.0564H13.9627Z" /></svg>