<svg viewBox="0 0 27.890625 27.890625" xmlns="http://www.w3.org/2000/svg"><path d="M25.4527 21.7364C26.9927 19.5064 27.8927 16.8164 27.8927 13.9464C27.8927 6.3164 21.5627 -0.0036 13.9327 -0.0036C11.0627 -0.0036 8.3927 0.9064 6.1627 2.4164ZM25.7327 27.2464C26.1427 27.6564 26.8227 27.6464 27.2227 27.2364C27.6327 26.8064 27.6327 26.1564 27.2227 25.7464L2.1427 0.6564C1.7327 0.2464 1.0627 0.2464 0.6427 0.6564C0.2427 1.0564 0.2427 1.7464 0.6427 2.1464ZM2.4327 6.1664C0.8927 8.3764 0.0027 11.0764 0.0027 13.9464C0.0027 21.5564 6.3327 27.8864 13.9427 27.8864C16.8127 27.8864 19.4727 26.9864 21.7127 25.4664Z" /></svg>