<svg viewBox="0 0 22.99609375 33.126953125" xmlns="http://www.w3.org/2000/svg"><path d="M7.2737 6.9407H15.7237C16.5137 6.9407 16.9937 6.4407 16.9937 5.5907V4.1607C16.9937 3.3107 16.5137 2.8007 15.7237 2.8007H14.4637C14.3737 1.2607 13.0837 0.0007 11.4937 0.0007C9.9137 0.0007 8.6237 1.2607 8.5337 2.8007H7.2737C6.4837 2.8007 6.0037 3.3107 6.0037 4.1607V5.5907C6.0037 6.4407 6.4837 6.9407 7.2737 6.9407ZM11.4937 4.1007C10.8437 4.1007 10.3037 3.5507 10.3037 2.9107C10.3037 2.2407 10.8437 1.7107 11.4937 1.7107C12.1537 1.7107 12.6837 2.2407 12.6837 2.9107C12.6837 3.5507 12.1537 4.1007 11.4937 4.1007ZM4.2337 33.1307H18.7537C21.5837 33.1307 22.9937 31.7007 22.9937 28.8307V8.0907C22.9937 5.2207 21.5837 3.8007 18.8937 3.8007H18.5837V5.5907C18.5837 7.3107 17.4137 8.5307 15.7237 8.5307H7.2737C5.5737 8.5307 4.4137 7.3107 4.4137 5.5907V3.8007H4.1037C1.4037 3.8007 0.0037 5.2207 0.0037 8.0907V28.8307C0.0037 31.7007 1.4037 33.1307 4.2337 33.1307Z" /></svg>