<svg viewBox="0 0 33.19140073970796 27.890625" xmlns="http://www.w3.org/2000/svg"><path d="M16.5969 -0.0036C9.8769 -0.0036 4.1569 4.9064 2.9169 11.3064H0.9769C-0.0131 11.3064 -0.2531 11.9764 0.2769 12.7464L3.3369 17.0864C3.7869 17.7164 4.4469 17.7064 4.8869 17.0864L7.9469 12.7264C8.4669 11.9764 8.2169 11.3064 7.2469 11.3064H5.2769C6.4569 6.1364 11.0469 2.3364 16.5969 2.3364C20.4969 2.3564 23.9169 4.2264 26.0069 7.1364C26.4169 7.6964 27.0769 7.8764 27.6369 7.5164C28.1969 7.1864 28.3469 6.4364 27.8769 5.8364C25.3069 2.3264 21.2069 -0.0036 16.5969 -0.0036ZM16.5969 5.9464C15.9669 5.9464 15.4669 6.4364 15.4669 7.0664V14.7964C15.4669 15.1164 15.5769 15.3964 15.8069 15.7064L19.1169 20.0664C19.5969 20.6964 20.2669 20.7964 20.8369 20.3964C21.3469 20.0464 21.3969 19.3564 20.9769 18.7764L17.7169 14.3664V7.0664C17.7169 6.4364 17.2169 5.9464 16.5969 5.9464ZM16.5969 27.8864C23.3269 27.8864 29.0369 22.9664 30.2869 16.5864H32.2169C33.1969 16.5864 33.4569 15.9164 32.9069 15.1464L29.8569 10.7964C29.4069 10.1764 28.7569 10.1864 28.3169 10.7964L25.2569 15.1664C24.7169 15.9164 24.9769 16.5864 25.9469 16.5864H27.9369C26.7469 21.7364 22.1369 25.5664 16.5969 25.5664C12.7069 25.5564 9.2869 23.6664 7.1969 20.7564C6.7669 20.1964 6.1269 20.0164 5.5569 20.3564C5.0069 20.6964 4.8569 21.4464 5.3169 22.0564C7.8869 25.5664 11.9969 27.8864 16.5969 27.8864Z" /></svg>