<svg viewBox="0 0 27.890625 27.890625" xmlns="http://www.w3.org/2000/svg"><path d="M13.9427 27.8927C21.6427 27.8927 27.8927 21.6427 27.8927 13.9427C27.8927 6.2627 21.6427 0.0027 13.9427 0.0027C6.2627 0.0027 0.0027 6.2627 0.0027 13.9427C0.0027 21.6427 6.2627 27.8927 13.9427 27.8927ZM16.7327 7.2827C16.3927 7.2827 16.0927 7.0027 16.0927 6.6627V5.2527C16.0927 4.8927 16.3927 4.6027 16.7327 4.6027C17.1027 4.6027 17.3927 4.8927 17.3927 5.2527V6.6627C17.3927 7.0027 17.1027 7.2827 16.7327 7.2827ZM19.6327 8.5027C19.4127 8.2627 19.3827 7.8327 19.6327 7.6027L20.6427 6.6027C20.9027 6.3427 21.3027 6.3527 21.5427 6.6027C21.7827 6.8227 21.7927 7.2427 21.5427 7.5027L20.5627 8.5127C20.3127 8.7627 19.8827 8.7327 19.6327 8.5027ZM12.9327 8.5127L11.9327 7.5027C11.7027 7.2427 11.7027 6.8227 11.9327 6.6027C12.1927 6.3527 12.5927 6.3527 12.8527 6.6027L13.8627 7.6027C14.1127 7.8327 14.0827 8.2627 13.8627 8.5027C13.6127 8.7327 13.1927 8.7627 12.9327 8.5127ZM20.0427 11.3927C20.0427 12.4927 19.4927 13.4927 18.5927 14.1327C18.3927 12.1827 16.8327 10.7027 14.8027 10.4627C14.5727 10.1027 14.3427 9.8027 14.0427 9.5327C14.6127 8.6727 15.6227 8.1027 16.7327 8.1027C18.5827 8.1027 20.0427 9.5527 20.0427 11.3927ZM7.3027 17.9227C5.6327 17.9227 4.5127 16.8427 4.5127 15.3627C4.5127 14.1627 5.2627 13.2327 6.3127 12.8627C6.5627 10.7427 8.3627 9.0827 10.5027 9.0827C12.1227 9.0827 13.4627 9.9627 14.2227 11.3727C16.1827 11.4127 17.6527 12.8127 17.6527 14.6127C17.6527 16.4727 16.2027 17.9227 14.3027 17.9227ZM21.4827 12.0327C21.1527 12.0327 20.8527 11.7427 20.8527 11.3927C20.8527 11.0227 21.1527 10.7427 21.4827 10.7427H22.8727C23.2427 10.7427 23.5327 11.0227 23.5327 11.3927C23.5327 11.7427 23.2427 12.0327 22.8727 12.0327ZM20.6427 16.2327L19.6327 15.2327C19.3827 14.9727 19.4127 14.5427 19.6327 14.3027C19.8927 14.0727 20.3127 14.0727 20.5627 14.3027L21.5427 15.2827C21.7927 15.5127 21.7827 15.9427 21.5427 16.2127C21.3027 16.4327 20.9027 16.4627 20.6427 16.2327ZM12.4127 20.9027C12.2727 21.1527 11.9727 21.2227 11.7027 21.0927C11.4527 20.9627 11.4027 20.6327 11.5227 20.3827L12.3027 19.0027C12.4527 18.7727 12.7727 18.7027 13.0127 18.8427C13.2627 18.9927 13.3527 19.2927 13.2227 19.5527ZM7.8627 20.9227C7.7227 21.1527 7.4127 21.2327 7.1627 21.0927C6.9227 20.9727 6.8327 20.6427 6.9727 20.4027L7.7627 19.0327C7.9127 18.7827 8.2127 18.6927 8.4627 18.8427C8.7327 18.9727 8.8227 19.2927 8.6527 19.5327ZM9.6627 22.4127C9.5327 22.6527 9.2027 22.7527 8.9527 22.6127C8.7127 22.4627 8.6027 22.1527 8.7527 21.9027L9.5027 20.6027C9.6627 20.3527 9.9527 20.2727 10.2127 20.4127C10.4827 20.5527 10.5427 20.8727 10.4027 21.1127ZM14.2027 22.4227C14.0727 22.6527 13.7527 22.7527 13.5127 22.6127C13.2527 22.4627 13.1527 22.1527 13.3027 21.9027L14.0527 20.6027C14.2227 20.3727 14.5227 20.2727 14.7527 20.4127C15.0127 20.5327 15.0927 20.8727 14.9727 21.1127Z" /></svg>