<svg viewBox="0 0 27.890625 27.890625" xmlns="http://www.w3.org/2000/svg"><path d="M13.9427 27.8864C21.6427 27.8864 27.8927 21.6464 27.8927 13.9464C27.8927 6.2464 21.6427 -0.0036 13.9427 -0.0036C6.2527 -0.0036 0.0027 6.2464 0.0027 13.9464C0.0027 21.6464 6.2527 27.8864 13.9427 27.8864ZM13.9427 25.5664C7.5227 25.5664 2.3227 20.3664 2.3227 13.9464C2.3227 7.5164 7.5227 2.3264 13.9427 2.3264C20.3727 2.3264 25.5627 7.5164 25.5627 13.9464C25.5627 20.3664 20.3727 25.5664 13.9427 25.5664ZM9.5427 15.9164H17.6927C19.8127 15.9164 21.4327 14.2764 21.4327 12.2664C21.4327 10.1764 19.7327 8.6364 17.5127 8.6364C16.6827 7.0264 15.1627 5.9764 13.2727 5.9764C10.8127 5.9764 8.7727 7.9164 8.5427 10.3664C7.3727 10.7064 6.4627 11.7264 6.4627 13.1064C6.4627 14.6564 7.5927 15.9164 9.5427 15.9164ZM9.1027 21.1464C9.3227 21.1464 9.4727 20.9464 9.4627 20.7264L9.4227 19.9064L10.0927 20.3664C10.2627 20.4964 10.5227 20.4264 10.6327 20.2664C10.7727 20.0964 10.7027 19.8064 10.4627 19.6964L9.7327 19.3464L10.4627 18.9664C10.6927 18.8364 10.7427 18.6164 10.6527 18.4264C10.5527 18.2364 10.2627 18.1964 10.0927 18.3064L9.4227 18.7864L9.4627 17.9664C9.4727 17.7164 9.3227 17.5364 9.1027 17.5364C8.8627 17.5364 8.6927 17.7164 8.7127 17.9464L8.7627 18.7864L8.0627 18.3064C7.9027 18.1964 7.6427 18.2264 7.5427 18.4264C7.4327 18.5964 7.4827 18.8364 7.7127 18.9764L8.4327 19.3464L7.7127 19.6964C7.4627 19.8064 7.4327 20.0664 7.5227 20.2464C7.6127 20.4564 7.8927 20.4964 8.0627 20.3664L8.7627 19.9064L8.7227 20.7264C8.7127 20.9464 8.8627 21.1464 9.1027 21.1464ZM13.6127 21.1464C13.8327 21.1464 13.9827 20.9464 13.9727 20.7264L13.9327 19.9064L14.6027 20.3664C14.7627 20.4964 15.0427 20.4264 15.1527 20.2664C15.2827 20.0964 15.2127 19.8064 14.9727 19.6964L14.2427 19.3464L14.9727 18.9664C15.2027 18.8364 15.2627 18.6164 15.1627 18.4264C15.0627 18.2364 14.7827 18.1964 14.6027 18.3064L13.9327 18.7864L13.9727 17.9664C13.9827 17.7164 13.8327 17.5364 13.6127 17.5364C13.3727 17.5364 13.2027 17.7164 13.2227 17.9464L13.2727 18.7864L12.5827 18.3064C12.4127 18.1964 12.1527 18.2264 12.0627 18.4264C11.9527 18.5964 11.9927 18.8364 12.2227 18.9764L12.9427 19.3464L12.2227 19.6964C11.9727 19.8064 11.9527 20.0664 12.0327 20.2464C12.1227 20.4564 12.4027 20.4964 12.5827 20.3664L13.2727 19.9064L13.2327 20.7264C13.2227 20.9464 13.3727 21.1464 13.6127 21.1464ZM18.1127 21.1464C18.3427 21.1464 18.5027 20.9464 18.4827 20.7264L18.4427 19.9064L19.1127 20.3664C19.2727 20.4964 19.5527 20.4264 19.6627 20.2664C19.7827 20.0964 19.7327 19.8064 19.4827 19.6964L18.7627 19.3464L19.4827 18.9664C19.7127 18.8364 19.7727 18.6164 19.6727 18.4264C19.5627 18.2364 19.2927 18.1964 19.1127 18.3064L18.4427 18.7864L18.4827 17.9664C18.5027 17.7164 18.3427 17.5364 18.1127 17.5364C17.8827 17.5364 17.7227 17.7164 17.7327 17.9464L17.7827 18.7864L17.0927 18.3064C16.9227 18.1964 16.6627 18.2264 16.5527 18.4264C16.4627 18.5964 16.4927 18.8364 16.7327 18.9764L17.4627 19.3464L16.7327 19.6964C16.4927 19.8064 16.4627 20.0664 16.5427 20.2464C16.6427 20.4564 16.9127 20.4964 17.0927 20.3664L17.7827 19.9064L17.7427 20.7264C17.7327 20.9464 17.8827 21.1464 18.1127 21.1464Z" /></svg>