<svg viewBox="0 0 31.212890625 32.82195612860575" xmlns="http://www.w3.org/2000/svg"><path d="M6.4227 20.7154H23.3927C27.8727 20.7154 31.2127 17.3054 31.2127 13.0954C31.2127 8.7354 27.6627 5.5554 23.0227 5.5554C21.3127 2.1754 18.1427 -0.0046 14.1927 -0.0046C9.0527 -0.0046 4.8127 4.0354 4.3627 9.1054C1.8827 9.8254 0.0027 11.9754 0.0027 14.8654C0.0027 18.1054 2.3527 20.7154 6.4227 20.7154ZM6.4027 18.5254C3.5927 18.5254 2.1827 16.9554 2.1827 14.9254C2.1827 13.2854 3.1427 11.8154 5.4727 11.1954C6.2227 10.9954 6.4927 10.6354 6.5627 9.8754C6.8727 5.3954 10.2227 2.1854 14.1927 2.1854C17.2627 2.1854 19.6827 3.8854 21.1627 6.9054C21.4827 7.5754 21.8927 7.8054 22.6927 7.8054C26.7427 7.8054 29.0227 10.2354 29.0227 13.1554C29.0227 16.1354 26.6427 18.5254 23.5327 18.5254ZM18.8927 25.7854H16.0927L17.4327 23.2054C17.5927 22.8954 17.4727 22.6654 17.1727 22.6654H14.2027C13.8127 22.6654 13.6727 22.8054 13.5527 23.0954L11.6927 27.3254C11.5427 27.6754 11.6927 27.8754 12.0427 27.8754H14.4227L12.5527 32.4154C12.4827 32.5954 12.5227 32.7454 12.6427 32.7954C12.7727 32.8554 12.9227 32.8154 13.0727 32.6654L19.1127 26.4654C19.4027 26.1654 19.2927 25.7854 18.8927 25.7854Z" /></svg>