<svg viewBox="0 0 27.890625 27.890625" xmlns="http://www.w3.org/2000/svg"><path d="M13.9427 27.8927C21.6427 27.8927 27.8927 21.6427 27.8927 13.9427C27.8927 6.2627 21.6427 0.0027 13.9427 0.0027C6.2627 0.0027 0.0027 6.2627 0.0027 13.9427C0.0027 21.6427 6.2627 27.8927 13.9427 27.8927ZM9.4027 15.9827C7.3927 15.9827 6.2327 14.6827 6.2327 13.0927C6.2327 11.6727 7.1627 10.6127 8.3827 10.2627C8.6127 7.7427 10.7227 5.7427 13.2527 5.7427C15.2027 5.7427 16.7627 6.8327 17.6227 8.5027C19.9027 8.5027 21.6727 10.0627 21.6727 12.2227C21.6727 14.3127 19.9927 15.9827 17.8027 15.9827ZM8.9527 21.3827C8.6927 21.3827 8.5627 21.1727 8.5727 20.9427L8.6027 20.1127L7.8927 20.6027C7.6927 20.7127 7.4127 20.6727 7.3127 20.4527C7.2327 20.2727 7.2627 20.0127 7.5227 19.8927L8.2627 19.5227L7.5227 19.1427C7.2727 19.0127 7.2327 18.7427 7.3427 18.5827C7.4327 18.3727 7.7127 18.3427 7.8927 18.4527L8.6027 18.9527L8.5627 18.1027C8.5427 17.8727 8.6927 17.6627 8.9527 17.6627C9.1727 17.6627 9.3427 17.8727 9.3227 18.1127L9.2827 18.9527L9.9627 18.4527C10.1427 18.3427 10.4427 18.3927 10.5427 18.5827C10.6527 18.7827 10.5927 19.0127 10.3527 19.1227L9.5927 19.5227L10.3527 19.8927C10.6127 20.0027 10.6827 20.3027 10.5227 20.4627C10.4227 20.6627 10.1427 20.7127 9.9627 20.6027L9.2827 20.1127L9.3227 20.9427C9.3427 21.1727 9.1727 21.3827 8.9527 21.3827ZM13.6027 21.3827C13.3527 21.3827 13.1927 21.1727 13.2027 20.9427L13.2527 20.1127L12.5327 20.6027C12.3627 20.7127 12.0727 20.6727 11.9727 20.4527C11.8827 20.2727 11.9127 20.0127 12.1727 19.8927L12.9227 19.5227L12.1727 19.1427C11.9227 19.0127 11.8827 18.7427 12.0027 18.5827C12.1027 18.3727 12.3727 18.3427 12.5327 18.4527L13.2527 18.9527L13.1927 18.1027C13.1827 17.8727 13.3527 17.6627 13.6027 17.6627C13.8327 17.6627 13.9827 17.8727 13.9727 18.1127L13.9327 18.9527L14.6127 18.4527C14.8027 18.3427 15.1027 18.3927 15.2027 18.5827C15.3027 18.7827 15.2427 19.0127 15.0027 19.1227L14.2627 19.5227L15.0027 19.8927C15.2627 20.0027 15.3227 20.3027 15.1927 20.4627C15.0827 20.6627 14.7927 20.7127 14.6127 20.6027L13.9327 20.1127L13.9727 20.9427C13.9827 21.1727 13.8327 21.3827 13.6027 21.3827ZM18.2527 21.3827C18.0027 21.3827 17.8527 21.1727 17.8727 20.9427L17.9127 20.1127L17.1827 20.6027C17.0127 20.7127 16.7227 20.6727 16.6227 20.4527C16.5427 20.2727 16.5727 20.0127 16.8127 19.8927L17.5727 19.5227L16.8127 19.1427C16.5727 19.0127 16.5427 18.7427 16.6427 18.5827C16.7527 18.3727 17.0227 18.3427 17.1827 18.4527L17.9127 18.9527L17.8527 18.1027C17.8427 17.8727 18.0027 17.6627 18.2527 17.6627C18.4827 17.6627 18.6527 17.8727 18.6327 18.1127L18.5827 18.9527L19.2727 18.4527C19.4527 18.3427 19.7427 18.3927 19.8527 18.5827C19.9427 18.7827 19.8927 19.0127 19.6627 19.1227L18.9127 19.5227L19.6627 19.8927C19.9027 20.0027 19.9627 20.3027 19.8427 20.4627C19.7327 20.6627 19.4427 20.7127 19.2727 20.6027L18.5827 20.1127L18.6327 20.9427C18.6527 21.1727 18.4827 21.3827 18.2527 21.3827Z" /></svg>