<svg viewBox="0 0 27.890625 27.890625" xmlns="http://www.w3.org/2000/svg"><path d="M13.9427 27.8864C21.6427 27.8864 27.8927 21.6464 27.8927 13.9464C27.8927 6.2464 21.6427 -0.0036 13.9427 -0.0036C6.2527 -0.0036 0.0027 6.2464 0.0027 13.9464C0.0027 21.6464 6.2527 27.8864 13.9427 27.8864ZM13.9427 25.5664C7.5227 25.5664 2.3227 20.3664 2.3227 13.9464C2.3227 7.5164 7.5227 2.3264 13.9427 2.3264C20.3727 2.3264 25.5627 7.5164 25.5627 13.9464C25.5627 20.3664 20.3727 25.5664 13.9427 25.5664ZM22.5827 10.5364C22.5827 10.2964 22.4727 10.1264 22.2727 10.1264C21.9727 10.1264 21.4627 10.5164 20.5927 10.5164C18.9927 10.5164 17.9827 9.5864 17.9827 8.1064C17.9827 7.2564 18.4527 6.6464 18.4527 6.2864C18.4527 6.0964 18.2927 5.9564 18.0427 5.9764C16.7527 6.0264 15.1327 7.5564 14.9127 9.4464C15.0627 9.6064 15.1927 9.7864 15.3227 9.9664C17.3527 10.2164 18.8427 11.7164 19.0327 13.6564C21.2327 13.4264 22.5827 11.6864 22.5827 10.5364ZM8.0527 17.2364H14.8327C16.6827 17.2364 18.0927 15.8364 18.0927 14.0264C18.0927 12.2664 16.6627 10.9264 14.7827 10.8864C14.0427 9.5064 12.7327 8.6564 11.1527 8.6564C9.0827 8.6564 7.3327 10.2664 7.1127 12.3364C6.0727 12.6864 5.3427 13.5864 5.3427 14.7564C5.3427 16.1864 6.4427 17.2364 8.0527 17.2364ZM9.8027 20.2764C9.7227 20.4364 9.8027 20.5764 9.9827 20.5764H11.1527L10.2427 22.7864C10.1727 22.9664 10.3727 23.0764 10.5227 22.9264L13.5527 19.8564C13.6827 19.6964 13.6127 19.4964 13.4127 19.4964H12.0327L12.6827 18.2564C12.7727 18.1064 12.7127 17.9664 12.5327 17.9664H11.0627C10.8727 17.9664 10.7727 18.0364 10.7027 18.1864Z" /></svg>