<svg viewBox="0 0 39.552734375 38.33050104585869" xmlns="http://www.w3.org/2000/svg"><path d="M25.4034 5.2237C26.0334 5.2237 26.5334 4.7037 26.5334 4.0837V1.1337C26.5334 0.5237 26.0334 0.0038 25.4034 0.0038C24.7734 0.0038 24.2634 0.5237 24.2634 1.1337V4.0837C24.2634 4.7037 24.7734 5.2237 25.4034 5.2237ZM17.4734 7.8638C17.9234 8.3137 18.6634 8.3038 19.0834 7.8638C19.5134 7.4237 19.5234 6.7138 19.0834 6.2738L16.9834 4.1737C16.5434 3.7138 15.8334 3.7338 15.3934 4.1737C14.9534 4.6038 14.9434 5.3337 15.3934 5.7738ZM31.7234 7.8638C32.1434 8.3038 32.8834 8.3137 33.3334 7.8638L35.4234 5.7738C35.8634 5.3337 35.8634 4.6038 35.4234 4.1737C34.9834 3.7338 34.2734 3.7138 33.8334 4.1737L31.7234 6.2738C31.2834 6.7138 31.2934 7.4237 31.7234 7.8638ZM28.9134 20.0438C30.9234 18.6737 32.1534 16.5938 32.1534 14.1738C32.1534 10.4138 29.1634 7.3938 25.4034 7.3938C22.9234 7.3938 20.7834 8.7338 19.6434 10.7038C20.2234 11.3038 20.7134 11.9338 21.1234 12.7237C25.6334 13.0938 28.5434 15.9038 28.9134 20.0438ZM5.6634 27.4838H20.4534C24.3334 27.4838 27.3434 24.5438 27.3434 20.7538C27.3434 16.9938 24.2834 14.1538 20.1934 14.1238C18.5934 11.0637 15.7534 9.2938 12.4434 9.2938C7.9934 9.2938 4.2234 12.7437 3.8134 17.2438C1.4734 17.9338 0.0034 19.9038 0.0034 22.3138C0.0034 25.3738 2.2934 27.4838 5.6634 27.4838ZM35.4634 15.3138H38.4334C39.0434 15.3138 39.5534 14.8038 39.5534 14.1738C39.5534 13.5538 39.0434 13.0438 38.4334 13.0438H35.4634C34.8634 13.0438 34.3334 13.5538 34.3334 14.1738C34.3334 14.8038 34.8634 15.3138 35.4634 15.3138ZM33.8334 24.2138C34.2734 24.6538 34.9834 24.6338 35.4234 24.2038C35.8634 23.7638 35.8634 23.0338 35.4234 22.6138L33.3034 20.5238C32.8634 20.0938 32.1534 20.0838 31.7234 20.5238C31.2834 20.9438 31.2834 21.6838 31.7234 22.1238ZM16.4034 34.0438L18.1834 30.9638C18.4334 30.5438 18.2934 30.0638 17.8834 29.8138C17.4734 29.5838 17.0034 29.7238 16.7634 30.1338L14.9734 33.2537C14.7334 33.6338 14.8434 34.1238 15.2734 34.3538C15.6834 34.5938 16.1734 34.4538 16.4034 34.0438ZM5.5234 34.0538L7.3034 30.9838C7.5434 30.5538 7.4234 30.0738 7.0134 29.8338C6.5934 29.6038 6.1234 29.7338 5.8834 30.1438L4.0834 33.2638C3.8534 33.6438 3.9834 34.1338 4.3934 34.3738C4.8034 34.6038 5.2934 34.4638 5.5234 34.0538ZM20.6734 37.8938L22.4634 34.8038C22.7134 34.3938 22.5734 33.9038 22.1634 33.6738C21.7534 33.4238 21.2834 33.5638 21.0234 33.9838L19.2334 37.0938C19.0034 37.4838 19.1234 37.9638 19.5534 38.2138C19.9434 38.4338 20.4534 38.2938 20.6734 37.8938ZM9.8034 37.9138L11.5834 34.8238C11.8234 34.4138 11.6934 33.9238 11.2934 33.6838C10.8734 33.4438 10.4034 33.5738 10.1534 34.0037L8.3634 37.1038C8.1334 37.5037 8.2534 37.9838 8.6634 38.2238C9.0734 38.4438 9.5734 38.3038 9.8034 37.9138Z" /></svg>