<svg viewBox="0 0 31.212890625 32.82195612860575" xmlns="http://www.w3.org/2000/svg"><path d="M6.4227 20.7154H23.3927C27.8727 20.7154 31.2127 17.3054 31.2127 13.0954C31.2127 8.7354 27.6627 5.5554 23.0227 5.5554C21.3127 2.1754 18.1427 -0.0046 14.1927 -0.0046C9.0527 -0.0046 4.8127 4.0354 4.3627 9.1054C1.8827 9.8254 0.0027 11.9754 0.0027 14.8654C0.0027 18.1054 2.3527 20.7154 6.4227 20.7154ZM18.8927 25.7854H16.0927L17.4327 23.2054C17.5927 22.8954 17.4727 22.6654 17.1727 22.6654H14.2027C13.8127 22.6654 13.6727 22.8054 13.5527 23.0954L11.6927 27.3254C11.5427 27.6754 11.6927 27.8754 12.0427 27.8754H14.4227L12.5527 32.4154C12.4827 32.5954 12.5227 32.7454 12.6427 32.7954C12.7727 32.8554 12.9227 32.8154 13.0727 32.6654L19.1127 26.4654C19.4027 26.1654 19.2927 25.7854 18.8927 25.7854ZM3.5727 27.4254C3.9827 27.6554 4.4727 27.5254 4.7027 27.1154L6.4827 24.0354C6.7227 23.6154 6.5927 23.1354 6.1827 22.8854C5.7727 22.6554 5.3027 22.7954 5.0627 23.2054L3.2627 26.3154C3.0327 26.7154 3.1427 27.1954 3.5727 27.4254ZM22.5727 27.4254C22.9827 27.6554 23.4727 27.5254 23.7027 27.1154L25.4827 24.0354C25.7327 23.6154 25.5927 23.1354 25.1927 22.8854C24.7727 22.6554 24.3127 22.7954 24.0627 23.2054L22.2727 26.3154C22.0427 26.7154 22.1527 27.1954 22.5727 27.4254ZM6.2227 31.2554C6.6327 31.4754 7.1227 31.3354 7.3527 30.9354L9.1327 27.8454C9.3827 27.4354 9.2427 26.9654 8.8327 26.7154C8.4227 26.4654 7.9527 26.6054 7.7127 27.0254L5.9027 30.1354C5.6827 30.5254 5.7927 31.0054 6.2227 31.2554ZM25.2227 31.2554C25.6327 31.4754 26.1227 31.3354 26.3627 30.9354L28.1327 27.8454C28.3827 27.4354 28.2427 26.9654 27.8527 26.7154C27.4227 26.4654 26.9627 26.6054 26.7127 27.0254L24.9227 30.1354C24.6927 30.5254 24.8027 31.0054 25.2227 31.2554Z" /></svg>