<svg viewBox="0 0 27.890625 27.890625" xmlns="http://www.w3.org/2000/svg"><path d="M13.9427 27.8927C21.6427 27.8927 27.8927 21.6427 27.8927 13.9427C27.8927 6.2627 21.6427 0.0027 13.9427 0.0027C6.2627 0.0027 0.0027 6.2627 0.0027 13.9427C0.0027 21.6427 6.2627 27.8927 13.9427 27.8927ZM9.4027 15.3427C7.3927 15.3427 6.2327 14.0427 6.2327 12.4527C6.2327 11.0027 7.1627 9.9627 8.3827 9.5927C8.6127 7.0927 10.7227 5.0827 13.2527 5.0827C15.2027 5.0827 16.7627 6.1827 17.6227 7.8327C19.9027 7.8327 21.6727 9.4227 21.6727 11.5827C21.6727 13.6427 19.9927 15.3427 17.8027 15.3427ZM11.5627 19.3427L12.7127 16.6927C12.7927 16.5027 12.9027 16.4327 13.1527 16.4327H15.0427C15.2427 16.4327 15.3027 16.5827 15.2127 16.7727L14.3827 18.3627H16.1027C16.3827 18.3627 16.4427 18.6027 16.2727 18.8127L12.4527 22.6827C12.3627 22.8027 12.2627 22.8227 12.1827 22.8027C12.1027 22.7327 12.0727 22.6427 12.1227 22.5127L13.2627 19.7127H11.8027C11.5527 19.7127 11.4527 19.5327 11.5627 19.3427Z" /></svg>