<svg viewBox="0 0 50.97297974644666 28.950545684104853" xmlns="http://www.w3.org/2000/svg"><path d="M35.6537 7.0166L35.6037 5.0566C38.3537 4.8566 41.8337 5.1066 44.7937 6.4166L44.0737 8.2066C43.7337 9.1166 44.2837 9.6066 45.1837 9.3766L50.2037 8.0966C50.9737 7.9066 51.1837 7.2766 50.7537 6.6666L47.8337 2.3866C47.3437 1.6566 46.6337 1.6466 46.2837 2.5366L45.6137 4.2366C42.2637 2.7966 38.4137 2.5466 35.5337 2.7266L35.4737 0.9466C35.4337 -0.0334 34.7637 -0.2434 34.0437 0.2666L29.8737 3.3266C29.2337 3.7766 29.2537 4.4366 29.9037 4.8566L34.2237 7.7766C35.0137 8.2666 35.6737 7.9866 35.6537 7.0166ZM2.9837 26.2066L5.8237 26.5266C6.6537 27.9966 8.2337 28.9466 10.0637 28.9466C12.1237 28.9466 13.8337 27.7366 14.5637 25.9666H35.8437C36.5737 27.7366 38.2837 28.9466 40.3437 28.9466C42.5737 28.9466 44.3937 27.5466 44.9937 25.5466L46.4937 25.3866C49.1237 25.1066 50.4037 23.6466 50.4037 20.9266V18.5466C50.4037 15.3066 49.1937 13.9366 46.1037 13.3466L38.1137 11.8066C37.3237 11.6566 36.5837 11.5966 35.8237 11.6566L20.3837 12.5866L26.0537 8.7666C27.3037 7.9366 26.0837 6.0866 24.7637 6.9966L15.9937 12.8466L6.6737 14.5966C2.2437 15.4266 0.0037 17.4766 0.0037 21.0866V22.9066C0.0037 24.9566 0.9137 25.9866 2.9837 26.2066ZM3.5037 24.0466C2.6137 23.9466 2.2037 23.5366 2.2037 22.7466V21.0866C2.2037 18.7366 3.8037 17.3466 6.9637 16.7366L15.7737 15.0766H15.8437L36.3637 13.8166L45.7237 15.6166C47.5237 15.9666 48.2037 16.7566 48.2037 18.5466V20.9266C48.2037 22.3366 47.5537 23.0866 46.2137 23.2266L45.1437 23.3266C44.8037 20.9766 42.8237 19.2266 40.3437 19.2266C37.7237 19.2266 35.6537 21.1966 35.4937 23.7666H14.9137C14.7537 21.1966 12.6837 19.2266 10.0637 19.2266C7.3237 19.2266 5.1937 21.3666 5.1937 24.0966C5.1937 24.1366 5.1937 24.1966 5.2137 24.2366ZM10.0637 26.8866C8.5037 26.8866 7.2637 25.6566 7.2637 24.0966C7.2637 22.5266 8.5037 21.2966 10.0637 21.2966C11.6237 21.2966 12.8637 22.5266 12.8637 24.0966C12.8637 25.6566 11.6237 26.8866 10.0637 26.8866ZM40.3437 26.8866C38.7837 26.8866 37.5437 25.6566 37.5437 24.0966C37.5437 22.5266 38.7837 21.2966 40.3437 21.2966C41.9037 21.2966 43.1437 22.5266 43.1437 24.0966C43.1437 25.6566 41.9037 26.8866 40.3437 26.8866Z" /></svg>