<svg viewBox="0 0 43.67866774736062 33.82769375811327" xmlns="http://www.w3.org/2000/svg"><path d="M4.887 26.8704L7.027 25.9404C8.197 26.6204 9.687 26.6804 10.977 25.9204C12.427 25.0904 13.137 23.5504 12.917 22.0104L27.847 13.3904C29.077 14.3404 30.777 14.5004 32.217 13.6604C33.777 12.7604 34.487 11.0404 34.097 9.3804L35.077 8.6704C36.817 7.4104 37.127 5.8704 36.027 3.9504L35.067 2.2904C33.757 0.0204 32.347 -0.4496 29.937 0.3904L23.707 2.5304C23.087 2.7504 22.557 3.0104 22.037 3.3504L11.587 10.2704L14.027 5.2904C14.557 4.2004 12.957 3.4104 12.387 4.5704L8.607 12.2304L2.787 17.2304C0.007 19.6104 -0.723 21.9504 0.737 24.4904L1.477 25.7604C2.307 27.2004 3.347 27.5404 4.887 26.8704ZM2.947 24.7504L2.277 23.5904C1.327 21.9504 1.887 20.3204 3.857 18.6104L9.367 13.8804L9.407 13.8404L23.297 4.6504L30.577 2.1404C31.987 1.6404 32.797 1.9304 33.517 3.1704L34.477 4.8404C35.047 5.8304 34.897 6.6204 34.017 7.2804L33.317 7.7704C32.117 6.2604 30.007 5.8404 28.287 6.8404C26.437 7.9104 25.787 10.1204 26.707 11.9904L12.277 20.3204C11.127 18.5804 8.867 18.0504 7.037 19.1004C5.127 20.2104 4.497 22.5804 5.587 24.4904C5.617 24.5204 5.627 24.5404 5.657 24.5904L4.387 25.1304C3.717 25.4304 3.267 25.3104 2.947 24.7504ZM31.387 12.2104C30.277 12.8404 28.927 12.4904 28.287 11.3804C27.657 10.2804 28.027 8.9204 29.117 8.2904C30.207 7.6604 31.577 8.0304 32.207 9.1204C32.837 10.2204 32.477 11.5804 31.387 12.2104ZM4.397 33.1404C4.717 33.6904 5.397 33.8704 5.887 33.5804L41.377 13.1004C41.877 12.8004 42.067 12.1304 41.777 11.6204C41.467 11.0804 40.767 10.9004 40.277 11.1904L4.797 31.6704C4.287 31.9704 4.097 32.6404 4.397 33.1404ZM10.137 24.4804C9.047 25.1204 7.677 24.7504 7.037 23.6604C6.407 22.5504 6.777 21.1904 7.877 20.5504C8.967 19.9204 10.337 20.2904 10.957 21.3904C11.607 22.4804 11.237 23.8504 10.137 24.4804ZM41.277 33.8304C42.147 33.8304 42.777 33.4204 43.187 32.7704C43.457 32.3604 43.677 31.7404 43.677 31.2704C43.677 30.8304 43.377 30.5604 42.937 30.5604C42.597 30.5604 42.327 30.8104 42.247 31.1904C42.097 31.9804 41.847 32.4604 41.227 32.4604C40.477 32.4604 40.037 31.3904 40.037 29.4304C40.037 27.4304 40.547 26.3604 41.227 26.3604C41.787 26.3604 42.117 26.9204 42.217 27.6304C42.287 28.0604 42.567 28.3004 42.977 28.3004C43.387 28.3004 43.637 28.0204 43.637 27.5804C43.637 27.0604 43.387 26.3104 42.927 25.7904C42.507 25.3004 41.887 25.0104 41.217 25.0104C40.027 25.0104 39.307 25.7704 38.917 26.6604C38.537 27.5104 38.447 28.4704 38.447 29.4304C38.447 30.5204 38.547 31.5904 39.047 32.4904C39.537 33.3804 40.277 33.8304 41.277 33.8304ZM26.767 33.7604C27.247 33.7604 27.557 33.4604 27.557 32.9704V30.0104H29.667V32.9704C29.667 33.4604 29.967 33.7604 30.457 33.7604C30.937 33.7604 31.247 33.4604 31.247 32.9704V25.8704C31.247 25.3904 30.937 25.0904 30.457 25.0904C29.967 25.0904 29.667 25.3904 29.667 25.8704V28.7004H27.557V25.8704C27.557 25.3904 27.247 25.0904 26.767 25.0904C26.297 25.0904 25.997 25.3904 25.997 25.8704V32.9704C25.997 33.4604 26.297 33.7604 26.767 33.7604ZM33.177 33.7604H34.697C36.927 33.7604 37.677 31.6104 37.677 29.4004C37.677 26.9804 36.817 25.0904 34.697 25.0904H33.177C32.717 25.0904 32.387 25.3504 32.387 25.9104V32.9404C32.387 33.5004 32.717 33.7604 33.177 33.7604ZM33.927 32.4504V26.4004H34.507C35.827 26.4004 36.077 28.0704 36.077 29.4004C36.077 30.7504 35.877 32.4504 34.507 32.4504Z" /></svg>