<svg viewBox="0 0 47.28902709231453 35.805114583427255" xmlns="http://www.w3.org/2000/svg"><path d="M30.6944 2.5321C30.0744 2.7521 29.5344 3.0121 29.0244 3.3521L18.5444 10.3621L21.0144 5.2921C21.5444 4.2021 19.9444 3.4121 19.3744 4.5721L15.6044 12.2221L9.7644 17.2321C7.0044 19.6121 6.2644 21.9421 7.7244 24.4921L8.4544 25.7621C9.2844 27.1921 10.3344 27.5421 11.8844 26.8721L13.9344 25.9921C13.6744 25.7221 13.3144 25.2121 13.1244 24.8721C11.8444 22.6621 12.5944 19.8721 14.8244 18.5721C17.0544 17.2821 19.8344 18.0321 21.1244 20.2521C21.2844 20.5221 21.4544 20.8621 21.5044 21.0821L33.3844 14.2221C33.2144 14.0421 33.0044 13.7721 32.8444 13.5021C31.5544 11.2721 32.3044 8.4821 34.5344 7.1921C36.7744 5.8921 39.6744 6.8421 40.9644 9.0721C41.0344 9.1921 41.0544 9.2421 41.1144 9.3721L42.0644 8.6721C43.8044 7.4121 44.1244 5.8721 43.0144 3.9521L42.0444 2.2821C40.7244 0.0221 39.3444 -0.4479 36.9244 0.3821ZM38.5144 14.0621C40.1244 13.1321 40.6644 11.1321 39.7344 9.5221C38.8044 7.9021 36.8044 7.3721 35.1944 8.3021C33.5644 9.2421 33.0344 11.2421 33.9644 12.8421C34.8944 14.4721 36.8844 15.0021 38.5144 14.0621ZM8.5144 35.2321C8.8444 35.7821 9.5144 35.9621 10.0244 35.6621L46.7444 14.4821C47.2544 14.1921 47.4444 13.5121 47.1544 13.0021C46.8244 12.4621 46.1444 12.2821 45.6544 12.5821L8.9144 33.7621C8.4244 34.0621 8.2344 34.7421 8.5144 35.2321ZM18.7844 25.4421C20.4144 24.5221 20.9444 22.5221 20.0144 20.9121C19.0844 19.2921 17.0944 18.7621 15.4644 19.6921C13.8544 20.6221 13.3144 22.6121 14.2444 24.2321C15.1744 25.8421 17.1744 26.3721 18.7844 25.4421ZM6.1544 28.5321L3.2944 23.5621C2.8144 22.7121 1.8444 22.9321 1.5744 23.7521L0.0644 27.9621C-0.1356 28.5521 0.1244 29.0121 0.7344 29.1221L5.1244 29.9321C5.9844 30.1121 6.6444 29.3721 6.1544 28.5321Z" /></svg>