<svg viewBox="0 0 32.990234375 26.8515625" xmlns="http://www.w3.org/2000/svg"><path d="M4.0737 26.8532H28.9137C31.6237 26.8532 32.9937 25.4732 32.9937 22.8232V4.0332C32.9937 1.3832 31.6237 0.0032 28.9137 0.0032H4.0737C1.3837 0.0032 0.0037 1.3832 0.0037 4.0332V22.8232C0.0037 25.4732 1.3837 26.8532 4.0737 26.8532ZM4.0837 24.6532C2.8837 24.6532 2.2037 23.9632 2.2037 22.7132V4.1432C2.2037 2.8832 2.8837 2.2032 4.0837 2.2032H28.9037C30.1037 2.2032 30.7937 2.8832 30.7937 4.1432V22.7132C30.7937 23.9632 30.1037 24.6532 28.9037 24.6532ZM8.8037 12.3832C11.0637 12.3832 12.9037 10.5432 12.9037 8.2832C12.9037 6.0332 11.0637 4.1832 8.8037 4.1832C6.5537 4.1832 4.7037 6.0332 4.7037 8.2832C4.7037 10.5432 6.5537 12.3832 8.8037 12.3832ZM19.4037 12.3832C21.6537 12.3832 23.4837 10.5432 23.4837 8.2832C23.4837 6.0332 21.6537 4.1832 19.4037 4.1832C17.1337 4.1832 15.3037 6.0332 15.3037 8.2832C15.3037 10.5432 17.1337 12.3832 19.4037 12.3832ZM8.8037 11.0832C7.2637 11.0832 6.0137 9.8332 6.0137 8.2832C6.0137 6.7432 7.2637 5.4832 8.8037 5.4832C10.3537 5.4832 11.6037 6.7432 11.6037 8.2832C11.6037 9.8332 10.3537 11.0832 8.8037 11.0832ZM19.4037 11.0832C17.8537 11.0832 16.5937 9.8332 16.5937 8.2832C16.5937 6.7432 17.8537 5.4832 19.4037 5.4832C20.9437 5.4832 22.1937 6.7432 22.1937 8.2832C22.1937 9.8332 20.9437 11.0832 19.4037 11.0832ZM8.8037 10.4432C10.0237 10.4432 10.9537 9.5032 10.9537 8.2832C10.9537 7.0732 10.0237 6.1432 8.8037 6.1432C7.6037 6.1432 6.6537 7.0732 6.6537 8.2832C6.6537 9.5032 7.6037 10.4432 8.8037 10.4432ZM19.4037 10.4432C20.6037 10.4432 21.5437 9.5032 21.5437 8.2832C21.5437 7.0732 20.6037 6.1432 19.4037 6.1432C18.1837 6.1432 17.2437 7.0732 17.2437 8.2832C17.2437 9.5032 18.1837 10.4432 19.4037 10.4432ZM27.6837 8.7232C28.3537 8.7232 28.8737 8.1932 28.8737 7.5232C28.8737 6.8632 28.3537 6.3332 27.6837 6.3332C27.0137 6.3332 26.4837 6.8632 26.4837 7.5232C26.4837 8.1932 27.0137 8.7232 27.6837 8.7232ZM27.6837 12.6432C28.3537 12.6432 28.8737 12.1232 28.8737 11.4432C28.8737 10.7832 28.3537 10.2532 27.6837 10.2532C27.0137 10.2532 26.4837 10.7832 26.4837 11.4432C26.4837 12.1232 27.0137 12.6432 27.6837 12.6432ZM27.6837 16.5832C28.3537 16.5832 28.8737 16.0532 28.8737 15.3832C28.8737 14.7132 28.3537 14.1932 27.6837 14.1932C27.0137 14.1932 26.4837 14.7132 26.4837 15.3832C26.4837 16.0532 27.0137 16.5832 27.6837 16.5832ZM8.8037 22.6232C11.0637 22.6232 12.9037 20.7932 12.9037 18.5232C12.9037 16.2732 11.0637 14.4332 8.8037 14.4332C6.5537 14.4332 4.7037 16.2732 4.7037 18.5232C4.7037 20.7932 6.5537 22.6232 8.8037 22.6232ZM19.4037 22.6232C21.6537 22.6232 23.4837 20.7932 23.4837 18.5232C23.4837 16.2732 21.6537 14.4332 19.4037 14.4332C17.1337 14.4332 15.3037 16.2732 15.3037 18.5232C15.3037 20.7932 17.1337 22.6232 19.4037 22.6232ZM8.8037 21.3232C7.2637 21.3232 6.0137 20.0832 6.0137 18.5232C6.0137 16.9832 7.2637 15.7332 8.8037 15.7332C10.3537 15.7332 11.6037 16.9832 11.6037 18.5232C11.6037 20.0832 10.3537 21.3232 8.8037 21.3232ZM19.4037 21.3232C17.8537 21.3232 16.5937 20.0832 16.5937 18.5232C16.5937 16.9832 17.8537 15.7332 19.4037 15.7332C20.9437 15.7332 22.1937 16.9832 22.1937 18.5232C22.1937 20.0832 20.9437 21.3232 19.4037 21.3232ZM8.8037 20.6832C10.0237 20.6832 10.9537 19.7432 10.9537 18.5232C10.9537 17.3232 10.0237 16.3832 8.8037 16.3832C7.6037 16.3832 6.6537 17.3232 6.6537 18.5232C6.6537 19.7432 7.6037 20.6832 8.8037 20.6832ZM19.4037 20.6832C20.6037 20.6832 21.5437 19.7432 21.5437 18.5232C21.5437 17.3232 20.6037 16.3832 19.4037 16.3832C18.1837 16.3832 17.2437 17.3232 17.2437 18.5232C17.2437 19.7432 18.1837 20.6832 19.4037 20.6832ZM27.6837 20.5032C28.3537 20.5032 28.8737 19.9732 28.8737 19.3032C28.8737 18.6532 28.3537 18.1132 27.6837 18.1132C27.0137 18.1132 26.4837 18.6532 26.4837 19.3032C26.4837 19.9732 27.0137 20.5032 27.6837 20.5032Z" /></svg>