<svg viewBox="0 0 27.890625 27.890625" xmlns="http://www.w3.org/2000/svg"><path d="M13.9427 27.8864C21.6427 27.8864 27.8927 21.6264 27.8927 13.9464C27.8927 6.2464 21.6427 -0.0036 13.9427 -0.0036C6.2627 -0.0036 0.0027 6.2464 0.0027 13.9464C0.0027 21.6264 6.2627 27.8864 13.9427 27.8864ZM18.1427 7.7364C18.3927 7.8864 18.6227 8.0764 18.8527 8.2764L8.2427 18.8564C8.0427 18.6364 7.8627 18.4164 7.7127 18.1564L9.1327 16.7364C9.3427 16.5464 9.3227 16.2564 9.1327 16.0664C8.9427 15.8864 8.6727 15.8864 8.4927 16.0664L7.2027 17.3064C6.6827 16.2964 6.3827 15.1664 6.3827 13.9564C6.3827 9.8464 9.8127 6.3964 13.9327 6.3964C15.1327 6.3964 16.2827 6.7164 17.3127 7.2364L16.0527 8.4864C15.8827 8.6864 15.8727 8.9564 16.0527 9.1364C16.2527 9.3364 16.5327 9.3364 16.7027 9.1364ZM20.6627 10.5964C21.1827 11.6064 21.4927 12.7564 21.4927 13.9564C21.4927 18.0764 18.0427 21.5164 13.9327 21.5164C12.7327 21.5164 11.5927 21.2064 10.5727 20.6864L11.8427 19.3864C12.0127 19.2064 12.0127 18.9364 11.8427 18.7464C11.6527 18.5564 11.3727 18.5564 11.1827 18.7464L9.7227 20.1764C9.4727 20.0164 9.2427 19.8364 9.0327 19.6464L19.6227 9.0464C19.8227 9.2864 20.0027 9.5164 20.1627 9.7664L18.7727 11.1564C18.5627 11.3364 18.5627 11.6164 18.7727 11.8164C18.9527 12.0064 19.2227 12.0064 19.4127 11.8164ZM15.5727 10.2764C15.7627 10.0864 15.7627 9.8164 15.5727 9.6264C15.3927 9.4464 15.1027 9.4464 14.9327 9.6264L13.9227 10.6364C13.7127 10.8464 13.7127 11.1264 13.9227 11.2964C14.0927 11.4664 14.3727 11.4664 14.5427 11.2964ZM13.4427 12.4164C13.6027 12.2464 13.6027 11.9464 13.4427 11.7864C13.2527 11.5764 12.9627 11.5764 12.7827 11.7864L11.7627 12.7964C11.5827 12.9864 11.5827 13.2664 11.7627 13.4664C11.9227 13.6264 12.2327 13.6264 12.4027 13.4664ZM18.2827 12.9464C18.4527 12.7664 18.4527 12.4664 18.2827 12.2764C18.0927 12.1164 17.8027 12.0964 17.6227 12.2764L16.6127 13.3264C16.4427 13.5064 16.4327 13.7764 16.6127 13.9564C16.8027 14.1664 17.0627 14.1664 17.2627 13.9564ZM11.2827 14.5564C11.4427 14.3864 11.4527 14.1064 11.2827 13.9364C11.1027 13.7264 10.8327 13.7264 10.6227 13.9364L9.6127 14.9464C9.4327 15.1164 9.4327 15.4264 9.6127 15.5864C9.8027 15.7764 10.0927 15.7864 10.2627 15.5864ZM16.1227 15.0964C16.3227 14.9164 16.3227 14.6264 16.1227 14.4364C15.9527 14.2764 15.6527 14.2764 15.4927 14.4364L14.4327 15.4664C14.2727 15.6364 14.2727 15.9564 14.4327 16.1164C14.6427 16.2964 14.9127 16.2964 15.1027 16.1164ZM13.9727 17.2564C14.1627 17.0464 14.1627 16.7664 13.9727 16.5964C13.7927 16.4164 13.5227 16.4164 13.3427 16.5964L12.3327 17.6064C12.1227 17.7964 12.1227 18.0764 12.3327 18.2664C12.4827 18.4464 12.7827 18.4464 12.9627 18.2664Z" /></svg>