<svg viewBox="0 0 35.068359375 26.7421875" xmlns="http://www.w3.org/2000/svg"><path d="M5.4037 20.0035H29.6937L31.5937 12.1935C31.6637 12.2135 31.7337 12.2135 31.8037 12.2135C33.5937 12.2135 35.0637 10.7435 35.0637 8.9235C35.0637 7.1335 33.6037 5.6735 31.8037 5.6735C30.0137 5.6735 28.5437 7.1535 28.5437 8.9235C28.5437 9.4835 28.6837 10.0035 28.9137 10.4635L24.8437 13.4235C24.3737 13.7535 24.0637 13.6335 23.8037 13.2635L19.0837 6.1235C20.0937 5.5735 20.7937 4.4935 20.7937 3.2535C20.7937 1.4735 19.3337 0.0035 17.5437 0.0035C15.7237 0.0035 14.2737 1.4635 14.2737 3.2535C14.2737 4.4935 14.9737 5.5735 15.9837 6.1235L11.2237 13.3035C10.9937 13.6535 10.7237 13.7635 10.2537 13.4435L6.1537 10.4435C6.3937 9.9935 6.5237 9.4835 6.5237 8.9235C6.5237 7.1535 5.0737 5.6735 3.2637 5.6735C1.4637 5.6735 0.0037 7.1335 0.0037 8.9235C0.0037 10.7435 1.4737 12.2135 3.2637 12.2135C3.3337 12.2135 3.4037 12.2135 3.4737 12.1935ZM5.8537 21.8735L6.2637 23.5135C6.7837 25.6435 7.9137 26.7435 10.1737 26.7435H24.8937C27.1637 26.7435 28.2837 25.6735 28.8237 23.5135L29.2337 21.8735Z" /></svg>