<svg viewBox="0 0 27.890625 27.890625" xmlns="http://www.w3.org/2000/svg"><path d="M13.9427 27.8864C21.6427 27.8864 27.8927 21.6464 27.8927 13.9464C27.8927 6.2464 21.6427 -0.0036 13.9427 -0.0036C6.2527 -0.0036 0.0027 6.2464 0.0027 13.9464C0.0027 21.6464 6.2527 27.8864 13.9427 27.8864ZM13.9427 25.5664C7.5227 25.5664 2.3227 20.3664 2.3227 13.9464C2.3227 7.5164 7.5227 2.3264 13.9427 2.3264C20.3727 2.3264 25.5627 7.5164 25.5627 13.9464C25.5627 20.3664 20.3727 25.5664 13.9427 25.5664ZM13.9827 20.1064C16.0627 20.1064 17.9527 19.0964 18.5527 17.2964C18.6527 17.0864 18.6627 16.9164 18.6627 16.7064C18.6627 16.2664 18.3727 16.0064 17.9327 16.0064C17.5127 16.0064 17.2927 16.2464 17.1627 16.6364C16.7327 17.9964 15.4927 18.6764 14.1627 18.7264V16.6764C14.1627 15.3964 15.0827 14.5064 16.3627 14.5064C16.5827 14.5064 16.7927 14.5564 16.9027 14.5564C17.1727 14.5564 17.3627 14.4364 17.3627 14.1064C17.3627 13.9364 17.2627 13.7664 17.0927 13.6564C16.9227 13.5364 16.5927 13.4964 16.3527 13.4964C15.3027 13.4964 14.4527 14.1464 14.1827 15.0264H14.1527V13.9864C14.1527 13.7164 13.9627 13.5064 13.7027 13.5064C13.4127 13.5064 13.2327 13.7164 13.2327 13.9864V18.6464C11.2227 18.2364 10.3127 16.1964 10.3127 13.9864C10.3127 11.4864 11.5027 9.2964 14.0027 9.2964C15.4327 9.2964 16.6627 10.1164 17.0727 11.3864C17.2227 11.7964 17.4327 12.0164 17.8327 12.0164C18.2427 12.0164 18.5627 11.7264 18.5627 11.3064C18.5627 11.1564 18.5427 10.9264 18.4527 10.7064C17.8027 8.9364 16.0127 7.8764 13.9827 7.8764C10.6127 7.8764 8.6227 10.4464 8.6227 13.9864C8.6227 17.3764 10.4427 20.1064 13.9827 20.1064Z" /></svg>