<svg viewBox="0 0 35.51953125 26.55078125" xmlns="http://www.w3.org/2000/svg"><path d="M17.2137 19.9991H18.4437C23.2237 19.9991 26.9037 17.7591 28.6937 13.9591H29.4937C32.5437 13.9591 34.3737 12.3591 34.3737 9.7091C34.3737 7.1791 32.6737 5.6091 29.8837 5.4691C29.8837 2.2191 25.0237 -0.0009 17.8237 -0.0009C10.6337 -0.0009 5.7737 2.2191 5.7737 5.4691V8.2391C5.7737 15.1491 10.3637 19.9991 17.2137 19.9991ZM17.8237 8.8091C12.1137 8.8091 7.9037 7.3591 7.9037 5.4691C7.9037 3.5991 12.1137 2.1291 17.8237 2.1291C23.5537 2.1291 27.7637 3.5991 27.7637 5.4691C27.7637 7.3591 23.5537 8.8091 17.8237 8.8091ZM29.8837 8.2391V7.5891C31.3737 7.6991 32.2337 8.4791 32.2337 9.7091C32.2337 11.0291 31.2237 11.8391 29.4937 11.8391H29.4537C29.7337 10.7291 29.8837 9.5291 29.8837 8.2391ZM17.7637 26.5491C28.1537 26.5491 35.5237 23.5991 35.5237 19.3091C35.5237 17.6391 34.3837 16.1691 32.3937 14.9991C31.5637 15.3391 30.6637 15.5291 29.6437 15.5591C27.4637 19.3491 23.4837 21.5991 18.4437 21.5991H17.2137C11.5937 21.5991 7.2037 18.6191 5.2537 13.9591C1.9237 15.2391 0.0037 17.0991 0.0037 19.3091C0.0037 23.5991 7.3837 26.5491 17.7637 26.5491Z" /></svg>