<svg viewBox="0 0 34.466796875 28.943359375" xmlns="http://www.w3.org/2000/svg"><path d="M6.0337 28.9455H15.3237C15.8837 28.9455 16.2937 28.5355 16.2937 27.9555V3.4455H18.1737V27.9555C18.1737 28.5355 18.5837 28.9455 19.1437 28.9455H28.4337C28.9937 28.9455 29.4037 28.5355 29.4037 27.9555V3.4455H30.5537C30.9137 4.0655 31.5937 4.4755 32.3437 4.4755C33.5137 4.4755 34.4637 3.5155 34.4637 2.3355C34.4637 1.1755 33.5137 0.2155 32.3437 0.2155C31.5937 0.2155 30.9137 0.6455 30.5537 1.2455H29.4037V0.9955C29.4037 0.4255 28.9937 -0.0045 28.4337 -0.0045H19.1437C18.5837 -0.0045 18.1737 0.4255 18.1737 0.9955V1.2455H16.2937V0.9955C16.2937 0.4255 15.8837 -0.0045 15.3237 -0.0045H6.0337C5.4737 -0.0045 5.0537 0.4255 5.0537 0.9955V1.2455H3.9137C3.5537 0.6455 2.8737 0.2155 2.1237 0.2155C0.9537 0.2155 0.0037 1.1755 0.0037 2.3355C0.0037 3.5155 0.9537 4.4755 2.1237 4.4755C2.8737 4.4755 3.5537 4.0655 3.9137 3.4455H5.0537V27.9555C5.0537 28.5355 5.4737 28.9455 6.0337 28.9455Z" /></svg>