<svg viewBox="0 0 23.515625 28.806640625" xmlns="http://www.w3.org/2000/svg"><path d="M11.7537 28.8113C18.8137 28.8113 23.5137 26.1413 23.5137 22.3713V5.8212C23.5137 2.3813 18.8137 0.0012 11.7537 0.0012C4.7037 0.0012 0.0037 2.3813 0.0037 5.8212V22.3713C0.0037 26.1413 4.7037 28.8113 11.7537 28.8113ZM11.7537 9.5712C6.0337 9.5712 2.2037 8.0212 2.2037 5.8212C2.2037 3.5313 6.0337 1.9312 11.7537 1.9312C17.4837 1.9312 21.3137 3.5313 21.3137 5.8212C21.3137 8.0212 17.4837 9.5712 11.7537 9.5712ZM11.7537 11.6313C15.9237 11.6313 19.2737 10.8113 21.3137 9.4213V22.3713C21.3137 24.9013 17.4837 26.7413 11.7537 26.7413C6.0337 26.7413 2.2037 24.9013 2.2037 22.3713V9.4213C4.2337 10.8113 7.5837 11.6313 11.7537 11.6313Z" /></svg>