<svg viewBox="0 0 27.890625 27.890625" xmlns="http://www.w3.org/2000/svg"><path d="M13.9427 27.8864C21.6427 27.8864 27.8927 21.6264 27.8927 13.9464C27.8927 6.2464 21.6427 -0.0036 13.9427 -0.0036C6.2627 -0.0036 0.0027 6.2464 0.0027 13.9464C0.0027 21.6264 6.2627 27.8864 13.9427 27.8864ZM10.2527 20.2364C9.5327 20.2364 9.1427 19.7264 9.1427 18.9664V8.6664C9.1427 7.9064 9.5327 7.3964 10.2527 7.3964H13.8527C17.8927 7.3964 20.1227 9.6664 20.1227 13.7764C20.1227 17.9464 17.8527 20.2364 13.8527 20.2364ZM11.3327 18.4864H13.6027C16.3627 18.4864 17.8527 16.9264 17.8527 13.8264C17.8527 10.7864 16.3527 9.1464 13.6027 9.1464H11.3327Z" /></svg>