<svg viewBox="0 0 25.169921875 25.169921875" xmlns="http://www.w3.org/2000/svg"><path d="M4.2937 25.1692H20.8737C23.7437 25.1692 25.1737 23.7592 25.1737 20.9492V4.2392C25.1737 1.4192 23.7437 -0.0008 20.8737 -0.0008H4.2937C1.4337 -0.0008 0.0037 1.4192 0.0037 4.2392V20.9492C0.0037 23.7592 1.4337 25.1692 4.2937 25.1692ZM8.9037 18.8692C8.1737 18.8692 7.7937 18.3592 7.7937 17.5992V7.2992C7.7937 6.5392 8.1737 6.0292 8.9037 6.0292H12.4937C16.5437 6.0292 18.7737 8.2992 18.7737 12.4092C18.7737 16.5792 16.5037 18.8692 12.4937 18.8692ZM9.9837 17.1192H12.2537C15.0137 17.1192 16.5037 15.5592 16.5037 12.4592C16.5037 9.4192 14.9937 7.7792 12.2537 7.7792H9.9837Z" /></svg>