<svg viewBox="0 0 27.890625 27.890625" xmlns="http://www.w3.org/2000/svg"><path d="M13.9427 27.8864C21.6427 27.8864 27.8927 21.6264 27.8927 13.9464C27.8927 6.2464 21.6427 -0.0036 13.9427 -0.0036C6.2627 -0.0036 0.0027 6.2464 0.0027 13.9464C0.0027 21.6264 6.2627 27.8864 13.9427 27.8864ZM8.6127 19.7164C8.1527 19.7164 7.8327 19.3864 7.8327 18.8964V8.3664C7.8327 7.8764 8.1527 7.5464 8.6127 7.5464C9.0827 7.5464 9.3927 7.8864 9.3927 8.3764V14.8564H9.4327L12.8127 11.1864C12.9427 11.0064 13.1927 10.8864 13.4127 10.8864C13.7927 10.8864 14.1127 11.1964 14.1127 11.5564C14.1127 11.7964 14.0127 11.9264 13.8227 12.1164L11.3227 14.7564L14.0127 18.4664C14.1327 18.6464 14.2227 18.8264 14.2227 19.0264C14.2227 19.4264 13.9027 19.7164 13.4827 19.7164C13.1827 19.7164 12.9627 19.5664 12.7927 19.3164L10.2027 15.7264L9.3927 16.5264V18.8964C9.3927 19.3864 9.0827 19.7164 8.6127 19.7164ZM16.5727 19.7164C16.0827 19.7164 15.8227 19.3964 15.8227 18.8964V11.6664C15.8227 11.2264 16.1227 10.8864 16.5427 10.8864C16.9427 10.8864 17.2427 11.2264 17.2427 11.6664V12.5764H17.3227C17.5227 11.6664 18.1427 10.8864 19.0627 10.8864C19.5827 10.8864 19.9627 11.1664 19.9627 11.6764C19.9627 11.9264 19.8627 12.1164 19.6827 12.2064C19.4727 12.3464 19.1927 12.3764 18.8927 12.3764C17.6927 12.3764 17.2927 13.4764 17.2927 14.4764V18.8964C17.2927 19.5064 16.9027 19.7164 16.5727 19.7164ZM20.3827 19.5464C19.7827 19.5464 19.3727 19.1264 19.3727 18.5564C19.3727 17.9664 19.7827 17.5564 20.3827 17.5564C20.9627 17.5564 21.3727 17.9664 21.3727 18.5564C21.3727 19.1264 20.9627 19.5464 20.3827 19.5464Z" /></svg>