<svg viewBox="0 0 30.529296875 29.17578125" xmlns="http://www.w3.org/2000/svg"><path d="M1.8137 25.919H28.7137V25.009C28.7137 24.459 28.3937 24.129 27.8337 24.129H26.9637V9.379H28.1637C28.9137 9.379 29.3537 8.829 29.3537 8.269C29.3537 7.859 29.1237 7.509 28.6137 7.219L16.9437 0.479C16.3937 0.169 15.8137 -0.001 15.2537 -0.001C14.6937 -0.001 14.1137 0.169 13.5937 0.479L1.9137 7.219C1.3937 7.509 1.1737 7.859 1.1737 8.269C1.1737 8.829 1.6137 9.379 2.3637 9.379H3.5637V24.129H2.7037C2.1437 24.129 1.8137 24.459 1.8137 25.009ZM5.6337 24.129V7.629L14.7237 2.529C14.8937 2.429 15.0837 2.379 15.2537 2.379C15.4337 2.379 15.6237 2.429 15.8037 2.529L24.8937 7.629V24.129ZM10.5237 19.549C10.9337 19.549 11.2137 19.259 11.2137 18.829V16.689L11.9537 15.969L14.2637 19.199C14.4137 19.419 14.6137 19.549 14.8737 19.549C15.2437 19.549 15.5437 19.289 15.5437 18.939C15.5437 18.759 15.4637 18.609 15.3437 18.439L12.9437 15.119L15.1937 12.759C15.3537 12.579 15.4337 12.479 15.4337 12.249C15.4337 11.939 15.1637 11.649 14.8237 11.649C14.6137 11.649 14.3937 11.769 14.2737 11.919L11.2537 15.229H11.2137V9.419C11.2137 8.979 10.9337 8.669 10.5237 8.669C10.1137 8.669 9.8337 8.969 9.8337 9.409V18.829C9.8337 19.259 10.1137 19.549 10.5237 19.549ZM17.6237 19.549C17.9337 19.549 18.2937 19.359 18.2937 18.829V14.879C18.2937 13.969 18.6337 12.989 19.7137 12.989C19.9737 12.989 20.2237 12.959 20.4137 12.839C20.5737 12.759 20.6737 12.589 20.6737 12.359C20.6737 11.909 20.3137 11.649 19.8537 11.649C19.0437 11.649 18.4837 12.349 18.3037 13.169H18.2237V12.349C18.2237 11.959 17.9537 11.649 17.5937 11.649C17.2437 11.649 16.9537 11.959 16.9537 12.349V18.829C16.9537 19.259 17.2037 19.549 17.6237 19.549ZM21.0437 19.399C21.5637 19.399 21.9337 19.029 21.9337 18.529C21.9337 18.009 21.5637 17.619 21.0437 17.619C20.5237 17.619 20.1437 18.009 20.1437 18.529C20.1437 19.029 20.5237 19.399 21.0437 19.399ZM1.0937 29.179H29.4237C30.0237 29.179 30.5337 28.669 30.5337 28.069C30.5337 27.469 30.0237 26.979 29.4237 26.979H1.0937C0.4937 26.979 0.0037 27.469 0.0037 28.069C0.0037 28.669 0.4937 29.179 1.0937 29.179Z" /></svg>