<svg viewBox="0 0 31.609500315483928 23.666015625" xmlns="http://www.w3.org/2000/svg"><path d="M18.2337 2.2009C18.8537 2.2009 19.3337 1.7209 19.3337 1.1109C19.3337 0.4909 18.8537 0.0009 18.2337 0.0009H1.1037C0.4937 0.0009 0.0037 0.4909 0.0037 1.1109C0.0037 1.7209 0.4937 2.2009 1.1037 2.2009ZM18.2337 9.3609C18.8537 9.3609 19.3337 8.8709 19.3337 8.2609C19.3337 7.6409 18.8537 7.1609 18.2337 7.1609H1.1037C0.4937 7.1609 0.0037 7.6409 0.0037 8.2609C0.0037 8.8709 0.4937 9.3609 1.1037 9.3609ZM29.4637 16.0009C30.4737 16.6509 31.6237 16.2809 31.6137 15.0709V8.5809C31.6237 7.3309 30.5137 6.9309 29.4637 7.6409L24.9337 10.7209C24.1537 11.2609 24.1337 12.4309 24.9337 12.9709ZM18.2337 16.5109C18.8537 16.5109 19.3337 16.0409 19.3337 15.4209C19.3337 14.7909 18.8537 14.3109 18.2337 14.3109H1.1037C0.4937 14.3109 0.0037 14.7909 0.0037 15.4209C0.0037 16.0409 0.4937 16.5109 1.1037 16.5109ZM11.2537 23.6709C11.8637 23.6709 12.3437 23.1909 12.3437 22.5709C12.3437 21.9609 11.8637 21.4609 11.2537 21.4609H1.1037C0.4937 21.4609 0.0037 21.9609 0.0037 22.5709C0.0037 23.1909 0.4937 23.6709 1.1037 23.6709Z" /></svg>