<svg viewBox="0 0 25.169921875 25.169921875" xmlns="http://www.w3.org/2000/svg"><path d="M4.2937 25.1692H20.8737C23.7437 25.1692 25.1737 23.7592 25.1737 20.9492V4.2392C25.1737 1.4192 23.7437 -0.0008 20.8737 -0.0008H4.2937C1.4337 -0.0008 0.0037 1.4192 0.0037 4.2392V20.9492C0.0037 23.7592 1.4337 25.1692 4.2937 25.1692ZM4.3237 22.9692C2.9537 22.9692 2.2037 22.2392 2.2037 20.8192V4.3592C2.2037 2.9392 2.9537 2.1992 4.3237 2.1992H20.8537C22.2037 2.1992 22.9737 2.9392 22.9737 4.3592V20.8192C22.9737 22.2392 22.2037 22.9692 20.8537 22.9692ZM6.4537 8.6692C7.6537 8.6792 8.6637 7.6692 8.6637 6.4292C8.6637 5.2092 7.6537 4.2292 6.4537 4.2292C5.2237 4.2292 4.2237 5.2092 4.2237 6.4292C4.2237 7.6692 5.2237 8.6392 6.4537 8.6692ZM18.7437 8.6692C19.9437 8.6792 20.9437 7.6692 20.9437 6.4292C20.9437 5.2092 19.9437 4.2292 18.7437 4.2292C17.5137 4.2292 16.5037 5.2092 16.5037 6.4292C16.5037 7.6692 17.5137 8.6392 18.7437 8.6692ZM12.5937 14.8192C13.7937 14.8192 14.8037 13.8192 14.8037 12.5792C14.8037 11.3592 13.7937 10.3792 12.5937 10.3792C11.3637 10.3792 10.3737 11.3592 10.3737 12.5792C10.3737 13.8192 11.3637 14.8192 12.5937 14.8192ZM6.4537 20.9692C7.6537 20.9692 8.6637 19.9792 8.6637 18.7392C8.6637 17.5092 7.6537 16.5292 6.4537 16.5292C5.2237 16.5292 4.2337 17.5092 4.2337 18.7392C4.2337 19.9792 5.2237 20.9692 6.4537 20.9692ZM18.7437 20.9692C19.9437 20.9692 20.9437 19.9792 20.9437 18.7392C20.9437 17.5092 19.9437 16.5292 18.7437 16.5292C17.5137 16.5292 16.5337 17.5092 16.5337 18.7392C16.5337 19.9792 17.5137 20.9692 18.7437 20.9692Z" /></svg>