<svg viewBox="0 0 27.64453125 31.841796875" xmlns="http://www.w3.org/2000/svg"><path d="M14.6537 14.6579L18.3237 10.5279C19.0437 9.7179 18.6337 8.5579 17.4737 8.5579H14.9937V1.1579C14.9937 0.5079 14.4737 -0.0021 13.8337 -0.0021C13.1637 -0.0021 12.6637 0.5079 12.6637 1.1579V8.5579H10.1537C9.0337 8.5579 8.5537 9.6779 9.2937 10.5279L12.9737 14.6579C13.4637 15.2279 14.1537 15.2279 14.6537 14.6579ZM13.8237 31.8379C22.4237 31.8379 27.6437 29.4379 27.6437 23.7179V18.2679C27.6437 15.2879 24.5037 13.0279 19.4237 12.1179L17.7037 14.0379C22.4537 14.5779 25.4437 16.1279 25.4437 18.2679C25.4437 20.9179 20.7937 22.7179 13.8237 22.7179C6.8537 22.7179 2.2037 20.9179 2.2037 18.2679C2.2037 16.1479 5.1837 14.5779 9.9437 14.0379L8.2037 12.1179C3.1337 13.0279 0.0037 15.2879 0.0037 18.2679V23.7179C0.0037 29.4379 5.2137 31.8379 13.8237 31.8379ZM5.8237 25.3379V23.8679C6.5637 24.1079 7.3737 24.2979 8.2337 24.4479V26.2679C8.2337 26.7579 8.6237 27.1679 9.1237 27.1679C9.6137 27.1679 10.0237 26.7579 10.0237 26.2679V24.7179C10.8837 24.8179 11.8037 24.8679 12.7537 24.8979V26.6179C12.7537 27.1079 13.1637 27.5079 13.6537 27.5079C14.1537 27.5079 14.5437 27.1079 14.5437 26.6179V24.9079C15.5037 24.8979 16.4237 24.8379 17.2937 24.7479V26.2679C17.2937 26.7579 17.7037 27.1679 18.1937 27.1679C18.6937 27.1679 19.0837 26.7579 19.0837 26.2679V24.5179C19.9437 24.3679 20.7437 24.1879 21.4937 23.9679V25.3379C21.4937 25.8279 21.8937 26.2379 22.3837 26.2379C22.8737 26.2379 23.2837 25.8279 23.2837 25.3379V23.3379C24.1037 22.9979 24.8237 22.5879 25.4437 22.1379V23.7179C25.4437 28.0679 21.0537 29.6379 13.8237 29.6379C6.5937 29.6379 2.2037 28.0679 2.2037 23.7179V22.1379C2.7337 22.5279 3.3337 22.8879 4.0337 23.1979V25.3379C4.0337 25.8279 4.4437 26.2379 4.9337 26.2379C5.4237 26.2379 5.8237 25.8279 5.8237 25.3379Z" /></svg>