<svg viewBox="0 0 30.309417154113152 27.64453125" xmlns="http://www.w3.org/2000/svg"><path d="M10.4425 13.8234C10.4425 22.4234 12.8325 27.6434 18.5625 27.6434H20.1125C18.9625 26.6334 18.0025 25.1534 17.3025 23.2834H15.4625C14.9725 23.2834 14.5625 22.8734 14.5625 22.3834C14.5625 21.8934 14.9725 21.4934 15.4625 21.4934H16.7325C16.5125 20.7034 16.3525 19.8534 16.2225 19.0834H14.5325C14.0425 19.0834 13.6325 18.6934 13.6325 18.1934C13.6325 17.7034 14.0425 17.2934 14.5325 17.2934H16.0125C15.9125 16.4034 15.8625 15.3934 15.8425 14.5434H14.1725C13.6825 14.5434 13.2925 14.1534 13.2925 13.6534C13.2925 13.1634 13.6825 12.7534 14.1725 12.7534H15.8625C15.8725 11.8534 15.9225 10.9134 16.0325 10.0234H14.5325C14.0425 10.0234 13.6325 9.6134 13.6325 9.1234C13.6325 8.6234 14.0425 8.2334 14.5325 8.2334H16.2825C16.4225 7.3834 16.5925 6.5934 16.8325 5.8234H15.4625C14.9725 5.8234 14.5625 5.4234 14.5625 4.9334C14.5625 4.4434 14.9725 4.0334 15.4625 4.0334H17.4325C18.1125 2.3134 19.0325 0.9434 20.1125 0.0034H18.5625C12.8325 0.0034 10.4425 5.2134 10.4425 13.8234ZM17.7025 13.8234C17.7025 21.9034 20.2625 27.2934 24.0025 27.2934C27.7525 27.2934 30.3125 21.9034 30.3125 13.8234C30.3125 5.7434 27.7525 0.3434 24.0025 0.3434C20.2625 0.3434 17.7025 5.7434 17.7025 13.8234ZM4.2325 24.7734C4.8825 24.7734 5.4925 24.2434 5.1825 23.4034C4.2325 20.8334 3.7625 18.0834 3.7625 15.0634C3.7625 12.7734 4.0425 10.6334 4.5925 8.6134L6.5325 9.3234C7.4225 9.6434 8.0825 8.7634 7.8325 8.0234L6.2325 3.2534C6.0325 2.6134 5.3725 2.3634 4.7825 2.7234L0.4725 5.3834C-0.1975 5.7934 -0.1775 6.8734 0.6525 7.1734L2.6425 7.9034C2.0225 10.1534 1.6925 12.5334 1.6925 15.0634C1.6925 18.3234 2.2425 21.3134 3.2425 24.1034C3.4025 24.5834 3.8225 24.7734 4.2325 24.7734Z" /></svg>