<svg viewBox="0 0 27.20703125 8.96875" xmlns="http://www.w3.org/2000/svg"><path d="M0.0037 1.1755C0.0037 1.8155 0.5237 2.3355 1.1637 2.3355H26.0337C26.6737 2.3355 27.2037 1.8155 27.2037 1.1755C27.2037 0.5355 26.6737 -0.0045 26.0337 -0.0045H1.1637C0.5237 -0.0045 0.0037 0.5355 0.0037 1.1755ZM0.0037 7.7955C0.0037 8.4355 0.5237 8.9655 1.1637 8.9655H5.9837C6.6337 8.9655 7.1537 8.4355 7.1537 7.7955C7.1537 7.1455 6.6337 6.6355 5.9837 6.6355H1.1637C0.5237 6.6355 0.0037 7.1455 0.0037 7.7955ZM10.0237 7.7955C10.0237 8.4355 10.5537 8.9655 11.1937 8.9655H15.9937C16.6437 8.9655 17.1537 8.4355 17.1537 7.7955C17.1537 7.1455 16.6437 6.6355 15.9937 6.6355H11.1937C10.5537 6.6355 10.0237 7.1455 10.0237 7.7955ZM20.0337 7.7955C20.0337 8.4355 20.5537 8.9655 21.1937 8.9655H25.9237C26.5637 8.9655 27.0937 8.4355 27.0937 7.7955C27.0937 7.1455 26.5637 6.6355 25.9237 6.6355H21.1937C20.5537 6.6355 20.0337 7.1455 20.0337 7.7955Z" /></svg>