<svg viewBox="0 0 32.59375 27.548828125" xmlns="http://www.w3.org/2000/svg"><path d="M3.1437 22.7002H11.9737V25.3302H11.8937C11.2937 25.3302 10.7837 25.8302 10.7837 26.4402C10.7837 27.0602 11.2937 27.5502 11.8937 27.5502H20.7037C21.3037 27.5502 21.7937 27.0602 21.7937 26.4402C21.7937 25.8302 21.3037 25.3302 20.7037 25.3302H20.6137V22.7002H29.4337C31.4037 22.7002 32.5937 21.5102 32.5937 19.5402V3.1402C32.5937 1.1802 31.4037 0.0002 29.4337 0.0002H3.1437C1.1937 0.0002 0.0037 1.1802 0.0037 3.1402V19.5402C0.0037 21.5102 1.1937 22.7002 3.1437 22.7002ZM3.1837 20.4902C2.5837 20.4902 2.2037 20.1102 2.2037 19.5102V3.1902C2.2037 2.5702 2.5837 2.2002 3.1837 2.2002H29.4037C30.0137 2.2002 30.3937 2.5702 30.3937 3.1902V19.5102C30.3937 20.1102 30.0137 20.4902 29.4037 20.4902Z" /></svg>