<svg viewBox="0 0 32.59375 31.951171875" xmlns="http://www.w3.org/2000/svg"><path d="M16.2937 0.0025C15.7137 0.0025 15.2137 0.4925 15.2137 1.0625V12.9025L15.3037 14.9425L14.5237 14.1325L12.4137 11.8825C12.2237 11.6625 11.9237 11.5525 11.6637 11.5525C11.0837 11.5525 10.6737 11.9625 10.6737 12.5225C10.6737 12.8125 10.7837 13.0325 10.9937 13.2325L15.5037 17.5825C15.7737 17.8525 16.0237 17.9525 16.2937 17.9525C16.5737 17.9525 16.8137 17.8525 17.0937 17.5825L21.5837 13.2325C21.8037 13.0325 21.9137 12.8125 21.9137 12.5225C21.9137 11.9625 21.4937 11.5525 20.9137 11.5525C20.6537 11.5525 20.3737 11.6625 20.1837 11.8825L18.0637 14.1325L17.2937 14.9425L17.3937 12.9025V1.0625C17.3937 0.4925 16.8837 0.0025 16.2937 0.0025ZM3.1437 27.1025H11.9737V29.7325H11.8937C11.2937 29.7325 10.7837 30.2325 10.7837 30.8425C10.7837 31.4625 11.2937 31.9525 11.8937 31.9525H20.7037C21.3037 31.9525 21.7937 31.4625 21.7937 30.8425C21.7937 30.2325 21.3037 29.7325 20.7037 29.7325H20.6137V27.1025H29.4337C31.4037 27.1025 32.5937 25.9125 32.5937 23.9425V7.5425C32.5937 5.5825 31.4037 4.4025 29.4337 4.4025H19.9437V6.6025H29.4037C30.0137 6.6025 30.3937 6.9725 30.3937 7.5925V23.9125C30.3937 24.5125 30.0137 24.8925 29.4037 24.8925H3.1837C2.5837 24.8925 2.2037 24.5125 2.2037 23.9125V7.5925C2.2037 6.9725 2.5837 6.6025 3.1837 6.6025H12.6437V4.4025H3.1437C1.1937 4.4025 0.0037 5.5825 0.0037 7.5425V23.9425C0.0037 25.9125 1.1937 27.1025 3.1437 27.1025Z" /></svg>