<svg viewBox="0 0 35.02734375 31.69140625" xmlns="http://www.w3.org/2000/svg"><path d="M14.1637 31.6868C14.6937 31.6868 15.1637 31.2768 15.1637 30.7468V0.9468C15.1637 0.4068 14.6937 -0.0032 14.1637 -0.0032C13.6337 -0.0032 13.1537 0.4068 13.1537 0.9468V30.7468C13.1537 31.2768 13.6337 31.6868 14.1637 31.6868ZM34.0137 31.6868C34.5537 31.6868 35.0237 31.2768 35.0237 30.7468V0.9468C35.0237 0.4068 34.5537 -0.0032 34.0137 -0.0032C33.4837 -0.0032 33.0137 0.4068 33.0137 0.9468V30.7468C33.0137 31.2768 33.4837 31.6868 34.0137 31.6868ZM3.0737 28.9868H7.8337C9.8337 28.9868 10.9137 27.8768 10.9137 25.8368V5.8468C10.9137 3.8168 9.8337 2.7168 7.8337 2.7168H3.0737C1.0837 2.7168 0.0037 3.8168 0.0037 5.8468V25.8368C0.0037 27.8768 1.0837 28.9868 3.0737 28.9868ZM22.9437 24.1268H27.6837C29.6837 24.1268 30.7737 23.0368 30.7737 20.9968V10.6868C30.7737 8.6568 29.6837 7.5568 27.6837 7.5568H22.9437C20.9437 7.5568 19.8537 8.6568 19.8537 10.6868V20.9968C19.8537 23.0368 20.9437 24.1268 22.9437 24.1268Z" /></svg>