<svg viewBox="0 0 25.169921875 25.169921875" xmlns="http://www.w3.org/2000/svg"><path d="M4.2937 25.1692H20.8737C23.7437 25.1692 25.1737 23.7592 25.1737 20.9492V4.2392C25.1737 1.4192 23.7437 -0.0008 20.8737 -0.0008H4.2937C1.4337 -0.0008 0.0037 1.4192 0.0037 4.2392V20.9492C0.0037 23.7592 1.4337 25.1692 4.2937 25.1692ZM12.5937 20.4292C12.3337 20.4292 12.1237 20.2092 12.1237 19.9592V18.7292C10.4137 18.5892 8.6437 17.7892 8.1437 16.0892C8.0937 15.9292 8.0637 15.7892 8.0637 15.6392C8.0637 15.1892 8.4037 14.8992 8.8337 14.8992C9.2037 14.8992 9.4337 15.0892 9.6137 15.5192C10.0537 16.7092 10.9137 17.2292 12.1237 17.3392V13.0692L11.8037 12.9792C10.0637 12.5692 8.2837 11.7692 8.2837 9.6692C8.2837 7.6392 10.0637 6.4092 12.1237 6.2392V5.0292C12.1237 4.7892 12.3337 4.5692 12.5937 4.5692C12.8537 4.5692 13.0537 4.7892 13.0537 5.0292V6.2392C14.9437 6.4092 16.9137 7.6292 16.9137 9.3092C16.9137 9.7992 16.5137 10.0392 16.1437 10.0392C15.7637 10.0392 15.4937 9.8192 15.3537 9.3892C15.0237 8.3392 14.2037 7.7492 13.0537 7.6292V11.7192L13.4937 11.8092C15.4037 12.2592 17.1137 13.0792 17.1137 15.1992C17.1137 17.4892 15.2537 18.5892 13.0537 18.7292V19.9592C13.0537 20.2092 12.8537 20.4292 12.5937 20.4292ZM9.8737 9.5392C9.8737 10.6592 10.8537 11.1792 12.0337 11.4692L12.1237 11.4992V7.6292C10.9737 7.7792 9.8737 8.3792 9.8737 9.5392ZM13.0537 17.3492C14.3537 17.2492 15.5437 16.7192 15.5437 15.3292C15.5437 14.0692 14.4337 13.6192 13.1937 13.3192L13.0537 13.2792Z" /></svg>