<svg viewBox="0 0 30.544813437289534 27.890625" xmlns="http://www.w3.org/2000/svg"><path d="M0.9769 11.3064C-0.0131 11.3064 -0.2531 11.9764 0.2769 12.7464L3.3369 17.0864C3.7869 17.7164 4.4469 17.7064 4.8869 17.0864L7.9269 12.7264C8.4669 11.9764 8.2069 11.3064 7.2469 11.3064H5.2769C6.4669 6.1564 11.0769 2.3264 16.5969 2.3264C23.0269 2.3264 28.2169 7.5164 28.2169 13.9464C28.2169 20.3664 23.0269 25.5664 16.5969 25.5664C12.7169 25.5664 9.2569 23.6564 7.1969 20.7564C6.7669 20.1964 6.1269 20.0164 5.5569 20.3564C5.0069 20.6964 4.8369 21.4664 5.3069 22.0664C7.8369 25.6064 11.9769 27.8864 16.5969 27.8864C24.2969 27.8864 30.5469 21.6464 30.5469 13.9464C30.5469 6.2464 24.2969 -0.0036 16.5969 -0.0036C9.8069 -0.0036 4.1269 4.8664 2.8969 11.3064ZM15.5969 18.4864C16.7869 18.4864 17.8869 18.0064 18.4269 16.9364H18.4869V17.8864C18.4869 18.3064 18.7969 18.6364 19.2269 18.6364C19.6469 18.6364 19.9669 18.3064 19.9669 17.8864V9.1464H20.9769C21.2169 9.1464 21.4269 8.9564 21.4269 8.6964C21.4269 8.4464 21.2169 8.2564 20.9769 8.2564H19.9669V7.7064C19.9669 7.2364 19.6669 6.9364 19.1969 6.9364C18.7369 6.9364 18.4269 7.2364 18.4269 7.7064V8.2564H15.8169C15.5769 8.2564 15.3669 8.4464 15.3669 8.6964C15.3669 8.9664 15.5769 9.1464 15.8169 9.1464H18.4269V11.9364H18.3769C17.8869 10.8864 16.7869 10.4064 15.5969 10.4064C13.5769 10.4064 11.9269 11.9664 11.9269 14.4364C11.9269 16.6764 13.3769 18.4864 15.5969 18.4864ZM15.9969 17.1764C14.4169 17.1764 13.4969 15.9664 13.4969 14.4364C13.4969 12.8064 14.5369 11.7064 15.9969 11.7064C17.5469 11.7064 18.4469 12.9764 18.4469 14.4364C18.4469 16.0064 17.4169 17.1764 15.9969 17.1764ZM12.6169 19.9464C12.6169 20.2064 12.8369 20.4164 13.1169 20.4164H19.8769C20.1369 20.4164 20.3569 20.2064 20.3569 19.9464C20.3569 19.6764 20.1369 19.4864 19.8769 19.4864H13.1169C12.8369 19.4864 12.6169 19.6764 12.6169 19.9464Z" /></svg>