<svg viewBox="0 0 27.890625 27.890625" xmlns="http://www.w3.org/2000/svg"><path d="M13.9427 27.8864C21.6427 27.8864 27.8927 21.6264 27.8927 13.9464C27.8927 6.2464 21.6427 -0.0036 13.9427 -0.0036C6.2627 -0.0036 0.0027 6.2464 0.0027 13.9464C0.0027 21.6264 6.2627 27.8864 13.9427 27.8864ZM12.9027 18.6364C10.6127 18.6364 9.1227 16.7764 9.1227 14.4664C9.1227 11.9064 10.8327 10.2964 12.9027 10.2964C14.1327 10.2964 15.2727 10.7864 15.7727 11.8764H15.8327V9.0064H13.1427C12.8827 9.0064 12.6727 8.8164 12.6727 8.5264C12.6727 8.2864 12.8827 8.0764 13.1427 8.0764H15.8327V7.5164C15.8327 7.0264 16.1427 6.7164 16.6227 6.7164C17.1027 6.7164 17.4227 7.0264 17.4227 7.5164V8.0764H18.4527C18.7127 8.0764 18.9227 8.2864 18.9227 8.5264C18.9227 8.8064 18.7127 9.0064 18.4527 9.0064H17.4227V18.0164C17.4227 18.4564 17.0927 18.7964 16.6527 18.7964C16.2127 18.7964 15.8827 18.4564 15.8827 18.0164V17.0464H15.8327C15.2727 18.1464 14.1327 18.6364 12.9027 18.6364ZM13.3127 17.2764C14.7927 17.2764 15.8427 16.0764 15.8427 14.4664C15.8427 12.9564 14.9127 11.6464 13.3127 11.6464C11.8127 11.6464 10.7427 12.7864 10.7427 14.4664C10.7427 16.0364 11.6927 17.2764 13.3127 17.2764ZM9.8427 20.1564C9.8427 19.8664 10.0627 19.6564 10.3527 19.6564H17.3327C17.5927 19.6564 17.8327 19.8664 17.8327 20.1564C17.8327 20.4164 17.5927 20.6264 17.3327 20.6264H10.3527C10.0627 20.6264 9.8427 20.4164 9.8427 20.1564Z" /></svg>