<svg viewBox="0 0 20.8359375 29.01171875" xmlns="http://www.w3.org/2000/svg"><path d="M20.8337 27.917V2.787C20.8337 1.117 19.7037 -0.003 17.9737 -0.003H2.8537C1.1437 -0.003 0.0037 1.117 0.0037 2.787V27.917C0.0037 28.517 0.4937 29.007 1.0937 29.007C1.7137 29.007 2.2037 28.517 2.2037 27.917V2.927C2.2037 2.487 2.4837 2.197 2.8937 2.197H17.9337C18.3437 2.197 18.6337 2.487 18.6337 2.927V27.917C18.6337 28.517 19.1237 29.007 19.7437 29.007C20.3437 29.007 20.8337 28.517 20.8337 27.917ZM17.0337 28.237V4.087C17.0337 3.817 16.8137 3.677 16.5537 3.787L12.2537 5.697C11.9237 5.837 11.7837 5.957 11.7837 6.307V26.007C11.7837 26.357 11.9237 26.467 12.2637 26.617L16.5537 28.517C16.8137 28.627 17.0337 28.497 17.0337 28.237Z" /></svg>