<svg viewBox="0 0 33.25 33.25" xmlns="http://www.w3.org/2000/svg"><path d="M0.9827 17.6124H3.7627C4.2427 23.9424 9.3127 29.0024 15.6527 29.4724V32.2624C15.6527 32.8124 16.0827 33.2524 16.6227 33.2524C17.1827 33.2524 17.6127 32.8124 17.6127 32.2624V29.4724C23.9427 29.0024 29.0127 23.9424 29.5027 17.6124H32.2627C32.8127 17.6124 33.2527 17.1724 33.2527 16.6224C33.2527 16.0824 32.8127 15.6524 32.2627 15.6524H29.5027C29.0427 9.2924 23.9627 4.1924 17.6127 3.7224V0.9824C17.6127 0.4424 17.1827 0.0024 16.6227 0.0024C16.0827 0.0024 15.6527 0.4424 15.6527 0.9824V3.7224C9.2927 4.1924 4.2127 9.2924 3.7427 15.6524H0.9827C0.4327 15.6524 0.0027 16.0824 0.0027 16.6224C0.0027 17.1724 0.4327 17.6124 0.9827 17.6124ZM16.6227 11.2224C17.1827 11.2224 17.6127 10.7824 17.6127 10.2424V5.9424C22.7527 6.4124 26.8427 10.5124 27.2927 15.6524H23.0127C22.4627 15.6524 22.0227 16.0824 22.0227 16.6224C22.0227 17.1724 22.4627 17.6124 23.0127 17.6124H27.2727C26.8127 22.7224 22.7227 26.7924 17.6127 27.2524V23.0124C17.6127 22.4624 17.1827 22.0424 16.6227 22.0424C16.0827 22.0424 15.6527 22.4624 15.6527 23.0124V27.2524C10.5227 26.7924 6.4527 22.7224 5.9727 17.6124H10.2427C10.7827 17.6124 11.2227 17.1724 11.2227 16.6224C11.2227 16.0824 10.7827 15.6524 10.2427 15.6524H5.9727C6.4227 10.5124 10.5127 6.4124 15.6527 5.9424V10.2424C15.6527 10.7824 16.0827 11.2224 16.6227 11.2224ZM16.6227 18.9524C17.9127 18.9524 18.9527 17.9124 18.9527 16.6224C18.9527 15.3424 17.9127 14.3024 16.6227 14.3024C15.3427 14.3024 14.3027 15.3424 14.3027 16.6224C14.3027 17.9124 15.3427 18.9524 16.6227 18.9524Z" /></svg>