<svg viewBox="0 0 27.890625 27.890625" xmlns="http://www.w3.org/2000/svg"><path d="M13.9427 27.8927C21.6427 27.8927 27.8927 21.6427 27.8927 13.9427C27.8927 6.2627 21.6427 0.0027 13.9427 0.0027C6.2627 0.0027 0.0027 6.2627 0.0027 13.9427C0.0027 21.6427 6.2627 27.8927 13.9427 27.8927ZM18.5627 6.2027C19.5927 6.2027 20.2627 6.9027 20.2627 7.9527V9.9427H7.5227V7.9527C7.5227 6.9027 8.1927 6.2027 9.2127 6.2027ZM10.1727 9.0627C10.5427 9.0627 10.8327 8.7627 10.8327 8.4127C10.8327 8.0227 10.5427 7.7127 10.1727 7.7127C9.8027 7.7127 9.5027 8.0227 9.5027 8.4127C9.5027 8.7627 9.8027 9.0627 10.1727 9.0627ZM12.1127 9.0627C12.4827 9.0627 12.7827 8.7627 12.7827 8.4127C12.7827 8.0227 12.4827 7.7127 12.1127 7.7127C11.7327 7.7127 11.4527 8.0227 11.4527 8.4127C11.4527 8.7627 11.7327 9.0627 12.1127 9.0627ZM16.2127 8.8027H18.0327C18.2827 8.8027 18.4427 8.6427 18.4427 8.4127C18.4427 8.1527 18.2827 7.9827 18.0327 7.9827H16.2127C15.9827 7.9827 15.8027 8.1527 15.8027 8.4127C15.8027 8.6427 15.9827 8.8027 16.2127 8.8027ZM9.2127 21.6427C8.1927 21.6427 7.5227 20.9327 7.5227 19.8827V10.9527H20.2627V19.8827C20.2627 20.9327 19.5927 21.6427 18.5627 21.6427ZM11.0327 19.4927H16.7527C17.3627 19.4927 17.7727 19.0827 17.7727 18.4827V13.4827C17.7727 12.8827 17.3627 12.4527 16.7527 12.4527H11.0327C10.4227 12.4527 10.0127 12.8827 10.0127 13.4827V18.4827C10.0127 19.0827 10.4227 19.4927 11.0327 19.4927ZM11.1527 18.6327C10.9827 18.6327 10.8827 18.5227 10.8827 18.3627V13.6027C10.8827 13.4427 10.9827 13.3327 11.1527 13.3327H16.6227C16.8027 13.3327 16.9027 13.4427 16.9027 13.6027V18.3627C16.9027 18.5227 16.8027 18.6327 16.6227 18.6327Z" /></svg>