<svg viewBox="0 0 37.966796875 27.2890625" xmlns="http://www.w3.org/2000/svg"><path d="M4.5637 27.292H33.4037C36.2037 27.292 37.9637 25.552 37.9637 22.792V15.012C37.9637 10.942 35.1237 8.132 31.0037 8.132H28.0837V5.712C28.0837 2.192 25.5437 0.002 21.5237 0.002H16.4437C12.4437 0.002 9.8937 2.192 9.8937 5.712V8.132H6.9637C2.8437 8.132 0.0037 10.942 0.0037 15.012V22.792C0.0037 25.552 1.7637 27.292 4.5637 27.292ZM12.1037 5.712C12.1037 3.532 13.7937 2.202 16.4437 2.202H21.5237C24.1837 2.202 25.8837 3.532 25.8837 5.712V8.132H12.1037ZM4.5937 25.092C3.1137 25.092 2.2037 24.162 2.2037 22.682V15.122C2.2037 12.282 4.1437 10.332 6.9837 10.332H8.0237V25.092ZM9.8137 25.092V10.332H12.1637V25.092ZM13.9637 15.602V10.332H24.0237V15.602ZM25.8137 25.092V10.332H28.1637V25.092ZM30.9837 10.332C33.8237 10.332 35.7637 12.282 35.7637 15.122V22.682C35.7637 24.162 34.8537 25.092 33.3737 25.092H29.9537V10.332ZM13.9637 25.092V17.392H24.0237V25.092Z" /></svg>