<svg viewBox="0 0 22.99609375 29.3125" xmlns="http://www.w3.org/2000/svg"><path d="M0.0037 25.0373C0.0037 27.8873 1.4037 29.3173 4.2337 29.3173H18.7537C21.5837 29.3173 22.9937 27.8873 22.9937 25.0373V4.2973C22.9937 1.4473 21.5837 -0.0027 18.7537 -0.0027H4.2337C1.4037 -0.0027 0.0037 1.4473 0.0037 4.2973ZM6.0137 11.0373C5.6037 11.0373 5.2737 10.6873 5.2737 10.2973C5.2737 9.8973 5.6037 9.5673 6.0137 9.5673H7.9137L9.0637 4.8273C9.2537 4.0473 10.2837 4.0573 10.4637 4.8373L11.7337 11.0573L13.0537 6.7673C13.3037 6.0173 14.2837 5.9973 14.4737 6.7373L15.2037 9.5673H16.9837C17.4037 9.5673 17.7237 9.8873 17.7237 10.2973C17.7237 10.6873 17.3937 11.0373 16.9837 11.0373H14.7637C14.3437 11.0373 14.0537 10.7873 13.9737 10.3773L13.7237 9.3973L12.3737 14.0573C12.1237 14.8173 11.1037 14.8173 10.9337 14.0373L9.7337 8.2273L9.1837 10.4173C9.0937 10.7873 8.8137 11.0373 8.3937 11.0373ZM6.1237 19.1973C5.6237 19.1973 5.2337 18.7973 5.2337 18.3073C5.2337 17.8273 5.6237 17.4573 6.1237 17.4573H16.8937C17.4037 17.4573 17.7737 17.8273 17.7737 18.3073C17.7737 18.7973 17.4037 19.1973 16.8937 19.1973ZM6.1237 23.4173C5.6237 23.4173 5.2337 23.0473 5.2337 22.5673C5.2337 22.0773 5.6237 21.6873 6.1237 21.6873H11.2137C11.7337 21.6873 12.0837 22.0773 12.0837 22.5673C12.0837 23.0473 11.7337 23.4173 11.2137 23.4173Z" /></svg>