<svg viewBox="0 0 27.890625 27.890625" xmlns="http://www.w3.org/2000/svg"><path d="M13.9427 27.8864C21.6427 27.8864 27.8927 21.6264 27.8927 13.9464C27.8927 6.2464 21.6427 -0.0036 13.9427 -0.0036C6.2627 -0.0036 0.0027 6.2464 0.0027 13.9464C0.0027 21.6264 6.2627 27.8864 13.9427 27.8864ZM8.0927 14.4664C7.5027 14.4664 7.2327 14.1664 7.1927 13.6464C7.1827 13.3964 7.2827 13.1564 7.5027 12.9364L13.0527 6.8264C13.2727 6.5764 13.5927 6.3664 13.9427 6.3664C14.3027 6.3664 14.6027 6.5364 14.8327 6.8264L20.3727 12.9364C20.5727 13.1664 20.7027 13.3964 20.7027 13.6464C20.7027 14.1664 20.3527 14.4664 19.7827 14.4664ZM8.4327 19.7864C7.5627 19.7864 7.0527 19.3164 7.0527 18.4564V17.5664C7.0527 16.7064 7.5627 16.2464 8.4327 16.2464H19.4527C20.3327 16.2464 20.8327 16.7064 20.8327 17.5664V18.4564C20.8327 19.3164 20.3327 19.7864 19.4527 19.7864Z" /></svg>