<svg viewBox="0 0 30.1328125 28.287109375" xmlns="http://www.w3.org/2000/svg"><path d="M8.4037 28.2828C9.0737 28.2828 9.5437 27.9328 10.3737 27.1928L15.0937 22.9928H23.8737C27.9437 22.9928 30.1337 20.7428 30.1337 16.7328V6.2628C30.1337 2.2528 27.9437 0.0028 23.8737 0.0028H6.2637C2.1837 0.0028 0.0037 2.2428 0.0037 6.2628V16.7328C0.0037 20.7528 2.1837 22.9928 6.2637 22.9928H6.9137V26.5528C6.9137 27.6028 7.4537 28.2828 8.4037 28.2828ZM8.9737 25.7828V21.8228C8.9737 21.0828 8.6837 20.7928 7.9437 20.7928H6.2637C3.5037 20.7928 2.2037 19.3828 2.2037 16.7228V6.2628C2.2037 3.5928 3.5037 2.2028 6.2637 2.2028H23.8737C26.6237 2.2028 27.9337 3.5928 27.9337 6.2628V16.7228C27.9337 19.3828 26.6237 20.7928 23.8737 20.7928H15.0137C14.2437 20.7928 13.8637 20.9028 13.3437 21.4328ZM15.0837 7.7228C16.1237 7.7228 16.9537 6.8728 16.9537 5.8528C16.9537 4.8128 16.1237 3.9628 15.0837 3.9628C14.0437 3.9628 13.2037 4.8128 13.2037 5.8528C13.2037 6.8728 14.0437 7.7228 15.0837 7.7228ZM15.0837 13.3728C16.1237 13.3728 16.9537 12.5328 16.9537 11.5028C16.9537 10.4628 16.1237 9.6228 15.0837 9.6228C14.0437 9.6228 13.2037 10.4628 13.2037 11.5028C13.2037 12.5328 14.0437 13.3728 15.0837 13.3728ZM15.0837 19.0128C16.1237 19.0128 16.9537 18.1828 16.9537 17.1428C16.9537 16.1028 16.1237 15.2728 15.0837 15.2728C14.0437 15.2728 13.2037 16.1028 13.2037 17.1428C13.2037 18.1828 14.0437 19.0128 15.0837 19.0128Z" /></svg>