<svg viewBox="0 0 30.1328125 28.369140625" xmlns="http://www.w3.org/2000/svg"><path d="M8.1237 28.3728C8.6537 28.3728 9.0537 28.0928 9.6937 27.4928L14.6337 22.9828H23.8737C27.9437 22.9828 30.1337 20.7428 30.1337 16.7328V6.2628C30.1337 2.2528 27.9437 0.0028 23.8737 0.0028H6.2637C2.1837 0.0028 0.0037 2.2428 0.0037 6.2628V16.7328C0.0037 20.7528 2.1837 22.9828 6.2637 22.9828H6.9037V26.9628C6.9037 27.8128 7.3437 28.3728 8.1237 28.3728ZM8.1637 13.5028C7.0537 13.5028 6.1437 12.6028 6.1437 11.4828C6.1437 10.3628 7.0537 9.4628 8.1637 9.4628C9.2837 9.4628 10.1837 10.3628 10.1837 11.4828C10.1837 12.6028 9.2837 13.5028 8.1637 13.5028ZM15.0837 13.5028C13.9637 13.5028 13.0437 12.6028 13.0437 11.4828C13.0437 10.3628 13.9637 9.4628 15.0837 9.4628C16.1837 9.4628 17.1037 10.3628 17.1037 11.4828C17.1037 12.6028 16.1837 13.5028 15.0837 13.5028ZM21.9837 13.5028C20.8637 13.5028 19.9637 12.6028 19.9637 11.4828C19.9637 10.3628 20.8637 9.4628 21.9837 9.4628C23.1037 9.4628 24.0037 10.3628 24.0037 11.4828C24.0037 12.6028 23.1037 13.5028 21.9837 13.5028Z" /></svg>