<svg viewBox="0 0 27.890625 27.890625" xmlns="http://www.w3.org/2000/svg"><path d="M13.9427 27.8864C21.6427 27.8864 27.8927 21.6464 27.8927 13.9464C27.8927 6.2464 21.6427 -0.0036 13.9427 -0.0036C6.2527 -0.0036 0.0027 6.2464 0.0027 13.9464C0.0027 21.6464 6.2527 27.8864 13.9427 27.8864ZM13.9427 25.5664C7.5227 25.5664 2.3227 20.3664 2.3227 13.9464C2.3227 7.5164 7.5227 2.3264 13.9427 2.3264C20.3727 2.3264 25.5627 7.5164 25.5627 13.9464C25.5627 20.3664 20.3727 25.5664 13.9427 25.5664ZM7.5627 15.9164C8.6427 15.9164 9.5327 15.0264 9.5327 13.9364C9.5327 12.8364 8.6227 11.9464 7.5627 11.9464C6.4627 11.9464 5.5827 12.8364 5.5827 13.9364C5.5827 15.0264 6.4627 15.9164 7.5627 15.9164ZM13.9327 15.9164C15.0227 15.9164 15.9127 15.0264 15.9127 13.9364C15.9127 12.8364 15.0227 11.9464 13.9327 11.9464C12.8427 11.9464 11.9527 12.8364 11.9527 13.9364C11.9527 15.0264 12.8427 15.9164 13.9327 15.9164ZM20.3127 15.9164C21.3927 15.9164 22.3027 15.0264 22.3027 13.9364C22.3027 12.8364 21.3927 11.9464 20.3127 11.9464C19.2227 11.9464 18.3327 12.8364 18.3327 13.9364C18.3327 15.0264 19.2227 15.9164 20.3127 15.9164Z" /></svg>