<svg viewBox="0 0 22.271484375 28.669921875" xmlns="http://www.w3.org/2000/svg"><path d="M19.1937 23.4866H16.9937V24.3266C16.9937 25.7466 16.2237 26.4666 14.8737 26.4666H4.3337C2.9637 26.4666 2.2037 25.7466 2.2037 24.3266V4.3466C2.2037 2.9266 2.9637 2.1966 4.3337 2.1966H14.8737C16.2237 2.1966 16.9937 2.9266 16.9937 4.3466V18.2966H19.1937V4.2366C19.1937 1.4266 17.7737 -0.0034 14.9137 -0.0034H4.2937C1.4537 -0.0034 0.0037 1.4066 0.0037 4.2366V24.4366C0.0037 27.2666 1.4537 28.6666 4.2937 28.6666H14.9137C17.7737 28.6666 19.1937 27.2466 19.1937 24.4366ZM5.4437 6.9866C6.3437 6.9866 7.0637 6.2466 7.0637 5.3766C7.0637 4.4566 6.3437 3.7366 5.4437 3.7366C4.5437 3.7366 3.8137 4.4566 3.8137 5.3766C3.8137 6.2466 4.5437 6.9866 5.4437 6.9866ZM9.5937 6.9866C10.5237 6.9866 11.2337 6.2466 11.2337 5.3766C11.2337 4.4566 10.5237 3.7366 9.5937 3.7366C8.6937 3.7366 7.9837 4.4566 7.9837 5.3766C7.9837 6.2466 8.6937 6.9866 9.5937 6.9866ZM13.7837 6.9866C14.6837 6.9866 15.3937 6.2466 15.3937 5.3766C15.3937 4.4566 14.6837 3.7366 13.7837 3.7366C12.8637 3.7366 12.1537 4.4566 12.1537 5.3766C12.1537 6.2466 12.8637 6.9866 13.7837 6.9866ZM5.4437 10.9966C6.3437 10.9966 7.0637 10.2666 7.0637 9.3666C7.0637 8.4466 6.3437 7.7266 5.4437 7.7266C4.5437 7.7266 3.8137 8.4466 3.8137 9.3666C3.8137 10.2666 4.5437 10.9966 5.4437 10.9966ZM9.5937 10.9966C10.5237 10.9966 11.2337 10.2666 11.2337 9.3666C11.2337 8.4466 10.5237 7.7266 9.5937 7.7266C8.6937 7.7266 7.9837 8.4466 7.9837 9.3666C7.9837 10.2666 8.6937 10.9966 9.5937 10.9966ZM13.7837 10.9966C14.6837 10.9966 15.3937 10.2666 15.3937 9.3666C15.3937 8.4466 14.6837 7.7266 13.7837 7.7266C12.8637 7.7266 12.1537 8.4466 12.1537 9.3666C12.1537 10.2666 12.8637 10.9966 13.7837 10.9966ZM5.4437 15.0166C6.3437 15.0166 7.0637 14.2866 7.0637 13.3666C7.0637 12.4866 6.3437 11.7466 5.4437 11.7466C4.5437 11.7466 3.8137 12.4866 3.8137 13.3666C3.8137 14.2866 4.5437 15.0166 5.4437 15.0166ZM9.5937 15.0166C10.5237 15.0166 11.2337 14.2866 11.2337 13.3666C11.2337 12.4866 10.5237 11.7466 9.5937 11.7466C8.6937 11.7466 7.9837 12.4866 7.9837 13.3666C7.9837 14.2866 8.6937 15.0166 9.5937 15.0166ZM13.7837 15.0166C14.6837 15.0166 15.3937 14.2866 15.3937 13.3666C15.3937 12.4866 14.6837 11.7466 13.7837 11.7466C12.8637 11.7466 12.1537 12.4866 12.1537 13.3666C12.1537 14.2866 12.8637 15.0166 13.7837 15.0166ZM9.5937 24.9066C11.2837 24.9066 12.7037 23.8966 13.3137 22.4666H20.7037C21.5437 22.4666 22.2737 21.7666 22.2737 20.8866C22.2737 20.0166 21.5437 19.3166 20.7037 19.3166H13.3037C12.7037 17.8866 11.2637 16.8866 9.5937 16.8866C7.3737 16.8866 5.5737 18.6766 5.5737 20.8866C5.5737 23.1166 7.3737 24.9066 9.5937 24.9066Z" /></svg>