<svg viewBox="0 0 32.9765625 31.3837890625" xmlns="http://www.w3.org/2000/svg"><path d="M0.2037 28.8165L10.3537 19.6665L2.8837 12.2165C2.5037 11.8365 2.5337 11.2765 3.0037 10.9565L15.1637 2.5765C16.1337 1.9065 16.8437 1.9065 17.8137 2.5765L29.9737 10.9565C30.4437 11.2765 30.4637 11.8465 30.0937 12.2165L22.6237 19.6665L32.7737 28.8165C32.9037 28.3165 32.9737 27.7765 32.9737 27.1565V13.2965C32.9737 11.3265 32.6337 10.3865 31.2637 9.4265L19.2737 1.0865C17.2137 -0.3635 15.7637 -0.3635 13.7037 1.0865L1.7137 9.4265C0.3537 10.3865 0.0037 11.3265 0.0037 13.2965V27.1565C0.0037 27.7765 0.0837 28.3165 0.2037 28.8165ZM4.2937 31.3865H28.6937C30.1737 31.3865 31.1037 31.0165 31.7737 30.4265L18.3337 18.3265C17.7337 17.7765 17.1137 17.5365 16.4837 17.5365C15.8637 17.5365 15.2437 17.7765 14.6437 18.3265L1.2137 30.4165C1.8837 31.0165 2.8137 31.3865 4.2937 31.3865Z" /></svg>