<svg viewBox="0 0 35.35533891392978 26.9301704921928" xmlns="http://www.w3.org/2000/svg"><path d="M4.1553 11.3511L15.5953 22.7911L26.0453 12.3411C27.2653 11.1311 27.2353 9.4111 25.9853 8.1611L18.7853 0.9411C17.5453 -0.2989 15.8153 -0.3189 14.6053 0.9011ZM1.5953 20.4011L6.5353 25.3511C8.5953 27.3811 10.9053 27.4711 12.8553 25.5211L14.2853 24.1011L2.8253 12.6611L1.4053 14.0711C-0.5347 16.0211 -0.4647 18.3511 1.5953 20.4011ZM14.6853 26.3311H23.3753C23.9853 26.3311 24.4753 25.8411 24.4753 25.2411C24.4753 24.6411 23.9853 24.1311 23.3753 24.1311H16.8953ZM27.4553 26.3311H34.2453C34.8453 26.3311 35.3553 25.8411 35.3553 25.2411C35.3553 24.6411 34.8453 24.1311 34.2453 24.1311H27.4553C26.8553 24.1311 26.3553 24.6411 26.3553 25.2411C26.3553 25.8411 26.8553 26.3311 27.4553 26.3311Z" /></svg>