<svg viewBox="0 0 32.935546875 27.33018496744969" xmlns="http://www.w3.org/2000/svg"><path d="M16.4627 5.864C18.9327 5.864 21.2027 6.724 23.0227 8.134C23.2927 8.354 23.6527 8.324 23.9127 8.064L27.0827 4.894C27.4027 4.584 27.3827 4.124 27.0527 3.854C24.2027 1.454 20.4927 0.004 16.4627 0.004C12.4427 0.004 8.7327 1.454 5.8827 3.854C5.5527 4.124 5.5327 4.584 5.8527 4.894L9.0227 8.064C9.2827 8.324 9.6527 8.354 9.9527 8.124C11.7627 6.724 14.0127 5.864 16.4627 5.864ZM0.0027 16.464C0.0027 20.494 1.4527 24.204 3.8727 27.074C4.1427 27.414 4.6027 27.414 4.9127 27.094L8.1627 23.844C8.3627 23.624 8.3927 23.324 8.2027 23.094C6.7127 21.194 5.8627 18.924 5.8627 16.464C5.8627 14.014 6.7027 11.744 8.1227 9.944C8.3427 9.654 8.3427 9.284 8.0827 9.024L4.9127 5.854C4.5927 5.534 4.1427 5.534 3.8727 5.864C1.4527 8.734 0.0027 12.444 0.0027 16.464ZM32.9327 16.464C32.9327 12.444 31.4827 8.734 29.0627 5.864C28.7927 5.534 28.3327 5.534 28.0227 5.854L24.8527 9.024C24.5927 9.284 24.5827 9.654 24.8127 9.944C26.2227 11.744 27.0727 14.014 27.0727 16.464C27.0727 18.924 26.2227 21.194 24.7327 23.094C24.5427 23.324 24.5527 23.624 24.7627 23.844L28.0127 27.094C28.3327 27.414 28.7827 27.414 29.0627 27.074C31.4827 24.204 32.9327 20.494 32.9327 16.464ZM9.9627 17.784C9.9627 18.034 10.1727 18.234 10.4227 18.234H11.9927C12.6327 21.094 14.9727 22.654 18.1327 22.654C18.5127 22.654 18.9727 22.644 19.3627 22.554C19.7727 22.454 20.0927 22.244 20.0927 21.834C20.0927 21.394 19.7927 21.194 19.3627 21.194C18.9127 21.194 18.7427 21.244 18.2127 21.244C15.8627 21.244 14.2327 20.194 13.6727 18.234H17.9827C18.2227 18.234 18.4327 18.034 18.4327 17.784C18.4327 17.544 18.2227 17.334 17.9827 17.334H13.4927C13.4627 17.094 13.4527 16.844 13.4527 16.584C13.4527 16.314 13.4827 16.034 13.5127 15.794H17.9827C18.2227 15.794 18.4327 15.584 18.4327 15.344C18.4327 15.084 18.2227 14.874 17.9827 14.874H13.6827C14.2327 12.984 15.7927 11.904 18.1727 11.904C18.6527 11.904 19.0727 11.964 19.3627 11.964C19.7927 11.964 20.0927 11.744 20.0927 11.304C20.0927 10.924 19.8527 10.694 19.3627 10.564C19.0327 10.504 18.6027 10.474 18.1327 10.474C15.2027 10.474 12.6727 11.894 11.9927 14.874H10.4227C10.1727 14.874 9.9627 15.084 9.9627 15.344C9.9627 15.584 10.1727 15.794 10.4227 15.794H11.8527C11.8227 16.034 11.8127 16.294 11.8127 16.574C11.8127 16.834 11.8227 17.094 11.8527 17.334H10.4227C10.1727 17.334 9.9627 17.544 9.9627 17.784Z" /></svg>