<svg viewBox="0 0 30.529296875 29.17578125" xmlns="http://www.w3.org/2000/svg"><path d="M1.0937 29.179H29.4237C30.0237 29.179 30.5337 28.669 30.5337 28.069C30.5337 27.469 30.0237 26.979 29.4237 26.979H28.7137V25.979C28.7137 25.429 28.3937 25.099 27.8337 25.099H26.9637V9.379H28.1637C28.9137 9.379 29.3537 8.829 29.3537 8.269C29.3537 7.859 29.1237 7.509 28.6137 7.219L16.9437 0.479C16.3937 0.169 15.8137 -0.001 15.2537 -0.001C14.6937 -0.001 14.1137 0.169 13.5937 0.479L1.9137 7.219C1.3937 7.509 1.1737 7.859 1.1737 8.269C1.1737 8.829 1.6137 9.379 2.3637 9.379H3.5637V25.099H2.7037C2.1437 25.099 1.8137 25.429 1.8137 25.979V26.979H1.0937C0.4937 26.979 0.0037 27.469 0.0037 28.069C0.0037 28.669 0.4937 29.179 1.0937 29.179ZM17.0337 21.809C13.7837 21.809 11.3737 20.209 10.7237 17.249H9.0937C8.8337 17.249 8.6137 17.039 8.6137 16.789C8.6137 16.529 8.8337 16.329 9.0937 16.329H10.5637C10.5437 16.079 10.5237 15.809 10.5237 15.529C10.5237 15.259 10.5437 14.989 10.5637 14.729H9.0937C8.8337 14.729 8.6137 14.519 8.6137 14.259C8.6137 13.999 8.8337 13.799 9.0937 13.799H10.7237C11.4137 10.709 14.0237 9.239 17.0337 9.239C17.5237 9.239 17.9637 9.279 18.3037 9.349C18.8237 9.459 19.0737 9.719 19.0737 10.099C19.0737 10.559 18.7737 10.789 18.3237 10.789C18.0237 10.789 17.5837 10.729 17.0737 10.729C14.6437 10.729 13.0337 11.839 12.4737 13.799H16.8937C17.1437 13.799 17.3637 13.999 17.3637 14.259C17.3637 14.519 17.1437 14.729 16.8937 14.729H12.2737C12.2337 14.989 12.2337 15.269 12.2337 15.549C12.2337 15.819 12.2337 16.079 12.2737 16.329H16.8937C17.1437 16.329 17.3637 16.529 17.3637 16.789C17.3637 17.039 17.1437 17.249 16.8937 17.249H12.4537C13.0437 19.259 14.7137 20.369 17.1137 20.369C17.6937 20.369 17.8537 20.299 18.3237 20.299C18.7737 20.299 19.0737 20.509 19.0737 20.969C19.0737 21.399 18.7437 21.599 18.3037 21.709C17.9137 21.789 17.4337 21.809 17.0337 21.809Z" /></svg>