<svg viewBox="0 0 32.935546875 27.33018496744969" xmlns="http://www.w3.org/2000/svg"><path d="M16.4627 5.864C18.9327 5.864 21.2027 6.724 23.0227 8.134C23.2927 8.354 23.6527 8.324 23.9127 8.064L27.0827 4.894C27.4027 4.584 27.3827 4.124 27.0527 3.854C24.2027 1.454 20.4927 0.004 16.4627 0.004C12.4427 0.004 8.7327 1.454 5.8827 3.854C5.5527 4.124 5.5327 4.584 5.8527 4.894L9.0227 8.064C9.2827 8.324 9.6527 8.354 9.9527 8.124C11.7627 6.724 14.0127 5.864 16.4627 5.864ZM0.0027 16.464C0.0027 20.494 1.4527 24.204 3.8727 27.074C4.1427 27.414 4.6027 27.414 4.9127 27.094L8.1627 23.844C8.3627 23.624 8.3927 23.324 8.2027 23.094C6.7127 21.194 5.8627 18.924 5.8627 16.464C5.8627 14.014 6.7027 11.744 8.1227 9.944C8.3427 9.654 8.3427 9.284 8.0827 9.024L4.9127 5.854C4.5927 5.534 4.1427 5.534 3.8727 5.864C1.4527 8.734 0.0027 12.444 0.0027 16.464ZM32.9327 16.464C32.9327 12.444 31.4827 8.734 29.0627 5.864C28.7927 5.534 28.3327 5.534 28.0227 5.854L24.8527 9.024C24.5927 9.284 24.5827 9.654 24.8127 9.944C26.2227 11.744 27.0727 14.014 27.0727 16.464C27.0727 18.924 26.2227 21.194 24.7327 23.094C24.5427 23.324 24.5527 23.624 24.7627 23.844L28.0127 27.094C28.3327 27.414 28.7827 27.414 29.0627 27.074C31.4827 24.204 32.9327 20.494 32.9327 16.464ZM10.7727 21.874H14.8427C15.2427 21.874 15.5027 21.624 15.5027 21.234C15.5027 20.824 15.2427 20.594 14.8427 20.594H11.5227V17.174H14.6927C15.0627 17.174 15.3127 16.914 15.3127 16.554C15.3127 16.184 15.0627 15.954 14.6927 15.954H11.5227V12.714H14.8427C15.2427 12.714 15.5027 12.484 15.5027 12.074C15.5027 11.674 15.2427 11.454 14.8427 11.454H10.7727C10.3127 11.454 10.0527 11.744 10.0527 12.204V21.094C10.0527 21.574 10.2927 21.874 10.7727 21.874ZM17.7427 21.874H22.7527C23.1327 21.874 23.3627 21.604 23.3627 21.234C23.3627 20.854 23.1327 20.594 22.7527 20.594H18.7127V20.524L23.0127 12.824C23.1327 12.624 23.2327 12.424 23.2327 12.164C23.2327 11.774 22.9727 11.454 22.4627 11.454H17.7027C17.3127 11.454 17.0327 11.694 17.0327 12.074C17.0327 12.464 17.3127 12.714 17.7027 12.714H21.5627V12.784L17.2027 20.504C17.0927 20.714 17.0127 20.914 17.0127 21.154C17.0127 21.624 17.3627 21.874 17.7427 21.874Z" /></svg>