<svg viewBox="0 0 30.544813437289534 27.890625" xmlns="http://www.w3.org/2000/svg"><path d="M0.9769 11.3064C-0.0131 11.3064 -0.2531 11.9764 0.2769 12.7464L3.3369 17.0864C3.7869 17.7164 4.4469 17.7064 4.8869 17.0864L7.9269 12.7264C8.4669 11.9764 8.2069 11.3064 7.2469 11.3064H5.2769C6.4669 6.1564 11.0769 2.3264 16.5969 2.3264C23.0269 2.3264 28.2169 7.5164 28.2169 13.9464C28.2169 20.3664 23.0269 25.5664 16.5969 25.5664C12.7169 25.5664 9.2569 23.6564 7.1969 20.7564C6.7669 20.1964 6.1269 20.0164 5.5569 20.3564C5.0069 20.6964 4.8369 21.4664 5.3069 22.0664C7.8369 25.6064 11.9769 27.8864 16.5969 27.8864C24.2969 27.8864 30.5469 21.6464 30.5469 13.9464C30.5469 6.2464 24.2969 -0.0036 16.5969 -0.0036C9.8069 -0.0036 4.1269 4.8664 2.8969 11.3064ZM10.1069 15.0964C10.1069 15.3364 10.3069 15.5464 10.5669 15.5464H12.1469C12.7869 18.4064 15.1069 19.9564 18.2669 19.9564C18.6469 19.9564 19.1269 19.9364 19.4969 19.8564C19.9169 19.7464 20.2369 19.5464 20.2369 19.1364C20.2369 18.7064 19.9469 18.4964 19.5069 18.4964C19.0569 18.4964 18.8969 18.5564 18.3469 18.5564C16.0069 18.5564 14.3869 17.4864 13.8269 15.5464H18.1269C18.3769 15.5464 18.5869 15.3364 18.5869 15.0964C18.5869 14.8364 18.3769 14.6264 18.1269 14.6264H13.6469C13.6169 14.3964 13.6069 14.1464 13.6069 13.8864C13.6069 13.6064 13.6169 13.3464 13.6469 13.0864H18.1269C18.3769 13.0864 18.5869 12.8764 18.5869 12.6364C18.5869 12.3864 18.3769 12.1864 18.1269 12.1864H13.8369C14.3869 10.2764 15.9469 9.1964 18.3069 9.1964C18.7969 9.1964 19.2269 9.2564 19.5069 9.2564C19.9469 9.2564 20.2369 9.0364 20.2369 8.5964C20.2369 8.2264 20.0069 7.9964 19.4969 7.8764C19.1869 7.8064 18.7469 7.7664 18.2669 7.7664C15.3569 7.7664 12.8269 9.1864 12.1469 12.1864H10.5669C10.3069 12.1864 10.1069 12.3864 10.1069 12.6364C10.1069 12.8764 10.3069 13.0864 10.5669 13.0864H12.0069C11.9769 13.3464 11.9669 13.6064 11.9669 13.8764C11.9669 14.1364 11.9769 14.3864 12.0069 14.6264H10.5669C10.3069 14.6264 10.1069 14.8364 10.1069 15.0964Z" /></svg>