<svg viewBox="0 0 27.890625 27.890625" xmlns="http://www.w3.org/2000/svg"><path d="M13.9427 27.8864C21.6427 27.8864 27.8927 21.6264 27.8927 13.9464C27.8927 6.2464 21.6427 -0.0036 13.9427 -0.0036C6.2627 -0.0036 0.0027 6.2464 0.0027 13.9464C0.0027 21.6264 6.2627 27.8864 13.9427 27.8864ZM7.7627 19.6064C7.2427 19.6064 6.9827 19.3064 6.9827 18.7764V9.1364C6.9827 8.6264 7.2627 8.3164 7.7627 8.3164H12.1827C12.6327 8.3164 12.9027 8.5464 12.9027 8.9864C12.9027 9.4164 12.6327 9.6964 12.1827 9.6964H8.5827V13.1964H12.0327C12.4327 13.1964 12.7027 13.4564 12.7027 13.8464C12.7027 14.2464 12.4327 14.5064 12.0327 14.5064H8.5827V18.2264H12.1827C12.6327 18.2264 12.9027 18.4864 12.9027 18.9264C12.9027 19.3564 12.6327 19.6064 12.1827 19.6064ZM15.3527 19.6064C14.9327 19.6064 14.5427 19.3564 14.5427 18.8264C14.5427 18.5764 14.6327 18.3464 14.7527 18.1464L19.4727 9.7664V9.6964H15.3027C14.8727 9.6964 14.5727 9.4064 14.5727 8.9864C14.5727 8.5564 14.8727 8.3164 15.3027 8.3164H20.4627C21.0127 8.3164 21.2827 8.6664 21.2827 9.0964C21.2827 9.3664 21.1927 9.5864 21.0527 9.8064L16.3927 18.1564V18.2264H20.7827C21.1927 18.2264 21.4327 18.5164 21.4327 18.9264C21.4327 19.3364 21.1927 19.6064 20.7827 19.6064Z" /></svg>