<svg viewBox="0 0 32.935546875 27.26189615322232" xmlns="http://www.w3.org/2000/svg"><path d="M32.9327 16.3992C32.9327 7.7792 26.3227 0.7192 17.8927 -0.0008C17.4627 -0.0408 17.1327 0.2792 17.1327 0.7192V5.1892C17.1327 5.5592 17.3927 5.8392 17.7627 5.8692C22.9927 6.5092 27.0727 10.9792 27.0727 16.3992C27.0727 18.8592 26.2227 21.1292 24.7327 23.0292C24.5427 23.2592 24.5527 23.5592 24.7627 23.7792L28.0227 27.0292C28.3327 27.3292 28.7927 27.3292 29.0627 27.0092C31.4827 24.1392 32.9327 20.4292 32.9327 16.3992ZM0.0027 16.3992C0.0027 20.4392 1.4527 24.1492 3.8727 27.0192C4.1427 27.3492 4.5927 27.3292 4.9127 27.0292L8.1727 23.7792C8.3827 23.5592 8.3927 23.2592 8.2027 23.0292C6.7027 21.1292 5.8627 18.8592 5.8627 16.3992C5.8627 10.9792 9.9427 6.5092 15.1727 5.8692C15.5427 5.8392 15.8027 5.5592 15.8027 5.1892V0.7192C15.8027 0.2792 15.4727 -0.0408 15.0427 -0.0008C6.6127 0.7192 0.0027 7.7792 0.0027 16.3992ZM10.7727 21.8092H14.8427C15.2427 21.8092 15.5027 21.5592 15.5027 21.1692C15.5027 20.7592 15.2427 20.5292 14.8427 20.5292H11.5227V17.1092H14.6927C15.0627 17.1092 15.3127 16.8492 15.3127 16.4892C15.3127 16.1192 15.0627 15.8892 14.6927 15.8892H11.5227V12.6492H14.8427C15.2427 12.6492 15.5027 12.4192 15.5027 12.0092C15.5027 11.6092 15.2427 11.3892 14.8427 11.3892H10.7727C10.3127 11.3892 10.0527 11.6792 10.0527 12.1392V21.0292C10.0527 21.5092 10.2927 21.8092 10.7727 21.8092ZM17.7427 21.8092H22.7527C23.1327 21.8092 23.3627 21.5392 23.3627 21.1692C23.3627 20.7892 23.1327 20.5292 22.7527 20.5292H18.7127V20.4592L23.0127 12.7592C23.1327 12.5592 23.2327 12.3592 23.2327 12.0992C23.2327 11.7092 22.9727 11.3892 22.4627 11.3892H17.7027C17.3127 11.3892 17.0327 11.6292 17.0327 12.0092C17.0327 12.3992 17.3127 12.6492 17.7027 12.6492H21.5627V12.7192L17.2027 20.4392C17.0927 20.6492 17.0127 20.8492 17.0127 21.0892C17.0127 21.5592 17.3627 21.8092 17.7427 21.8092Z" /></svg>