<svg viewBox="0 0 28.560546875 25.142578125" xmlns="http://www.w3.org/2000/svg"><path d="M14.2727 25.1392C22.2727 25.1392 28.5627 18.8692 28.5627 11.3292C28.5627 7.3592 26.8127 3.7592 24.3327 1.4092C23.2927 0.4392 22.1627 -0.0008 20.6127 -0.0008H7.9327C6.4027 -0.0008 5.2627 0.4392 4.2227 1.4092C1.7327 3.7592 0.0027 7.3592 0.0027 11.3292C0.0027 18.8692 6.2927 25.1392 14.2727 25.1392ZM14.2727 22.8092C7.2427 22.8092 2.3427 17.8992 2.3427 11.3292C2.3427 7.8992 3.6527 5.1692 5.8227 3.1192C6.5127 2.4592 6.8527 2.3392 7.9327 2.3392H20.6127C21.6927 2.3392 22.0427 2.4592 22.7227 3.1192C24.8927 5.1692 26.2227 7.8992 26.2227 11.3292C26.2227 17.8992 21.3027 22.8092 14.2727 22.8092ZM10.6827 8.1492C11.8827 8.1492 12.8627 7.1592 12.8627 5.9592C12.8627 4.7392 11.8827 3.7592 10.6827 3.7592C9.4627 3.7592 8.4727 4.7392 8.4727 5.9592C8.4727 7.1592 9.4627 8.1492 10.6827 8.1492ZM17.8827 8.1492C19.1027 8.1492 20.0827 7.1592 20.0827 5.9592C20.0827 4.7392 19.1027 3.7592 17.8827 3.7592C16.6627 3.7592 15.6827 4.7392 15.6827 5.9592C15.6827 7.1592 16.6627 8.1492 17.8827 8.1492ZM7.0727 14.4092C8.7627 14.4092 10.1327 13.0292 10.1327 11.3292C10.1327 9.6392 8.7627 8.2592 7.0727 8.2592C5.3627 8.2592 3.9927 9.6392 3.9927 11.3292C3.9927 13.0292 5.3627 14.4092 7.0727 14.4092ZM14.2727 14.4092C15.9827 14.4092 17.3527 13.0292 17.3527 11.3292C17.3527 9.6392 15.9827 8.2592 14.2727 8.2592C12.5827 8.2592 11.2127 9.6392 11.2127 11.3292C11.2127 13.0292 12.5827 14.4092 14.2727 14.4092ZM21.4927 14.4092C23.1827 14.4092 24.5727 13.0292 24.5727 11.3292C24.5727 9.6392 23.1827 8.2592 21.4927 8.2592C19.7927 8.2592 18.4127 9.6392 18.4127 11.3292C18.4127 13.0292 19.7927 14.4092 21.4927 14.4092ZM10.6627 20.7392C12.3727 20.7392 13.7427 19.3592 13.7427 17.6592C13.7427 15.9692 12.3727 14.5892 10.6627 14.5892C8.9727 14.5892 7.6027 15.9692 7.6027 17.6592C7.6027 19.3592 8.9727 20.7392 10.6627 20.7392ZM17.8827 20.7392C19.5927 20.7392 20.9627 19.3592 20.9627 17.6592C20.9627 15.9692 19.5927 14.5892 17.8827 14.5892C16.1827 14.5892 14.8027 15.9692 14.8027 17.6592C14.8027 19.3592 16.1827 20.7392 17.8827 20.7392Z" /></svg>