<svg viewBox="0 0 23.365234375 33.16796875" xmlns="http://www.w3.org/2000/svg"><path d="M11.6927 18.4248C17.5227 18.4248 22.1327 13.8348 22.1327 8.3148C22.1327 5.4248 20.8627 2.7748 19.0427 1.0548C18.2827 0.3248 17.4227 0.0048 16.2727 0.0048H7.0927C5.9627 0.0048 5.1027 0.3248 4.3327 1.0548C2.5027 2.7748 1.2427 5.4248 1.2427 8.3148C1.2427 13.8348 5.8427 18.4248 11.6927 18.4248ZM11.6927 16.4348C6.6827 16.4348 3.2227 12.9848 3.2227 8.3148C3.2227 5.8948 4.1427 3.9548 5.6827 2.5148C6.1827 2.0648 6.3327 1.9948 7.0927 1.9948H16.2727C17.0327 1.9948 17.2027 2.0648 17.6827 2.5148C19.2227 3.9548 20.1527 5.8948 20.1527 8.3148C20.1527 12.9848 16.6927 16.4348 11.6927 16.4348ZM9.0527 5.9648C9.9227 5.9648 10.6227 5.2648 10.6227 4.3848C10.6227 3.5148 9.9227 2.8148 9.0527 2.8148C8.1727 2.8148 7.4827 3.5148 7.4827 4.3848C7.4827 5.2648 8.1727 5.9648 9.0527 5.9648ZM14.3327 5.9648C15.1927 5.9648 15.8827 5.2648 15.8827 4.3848C15.8827 3.5148 15.1927 2.8148 14.3327 2.8148C13.4527 2.8148 12.7527 3.5148 12.7527 4.3848C12.7527 5.2648 13.4527 5.9648 14.3327 5.9648ZM6.4127 10.5548C7.6527 10.5548 8.6727 9.5548 8.6727 8.2948C8.6727 7.0548 7.6527 6.0548 6.4127 6.0548C5.1727 6.0548 4.1527 7.0548 4.1527 8.2948C4.1527 9.5548 5.1727 10.5548 6.4127 10.5548ZM11.6927 10.5548C12.9327 10.5548 13.9327 9.5548 13.9327 8.2948C13.9327 7.0548 12.9327 6.0548 11.6927 6.0548C10.4327 6.0548 9.4327 7.0548 9.4327 8.2948C9.4327 9.5548 10.4327 10.5548 11.6927 10.5548ZM16.9527 10.5548C18.2127 10.5548 19.2127 9.5548 19.2127 8.2948C19.2127 7.0548 18.2127 6.0548 16.9527 6.0548C15.7127 6.0548 14.7127 7.0548 14.7127 8.2948C14.7127 9.5548 15.7127 10.5548 16.9527 10.5548ZM9.0527 15.1048C10.2927 15.1048 11.2927 14.1048 11.2927 12.8548C11.2927 11.6048 10.2927 10.6048 9.0527 10.6048C7.8027 10.6048 6.7927 11.6048 6.7927 12.8548C6.7927 14.1048 7.8027 15.1048 9.0527 15.1048ZM14.3327 15.1048C15.5727 15.1048 16.5727 14.1048 16.5727 12.8548C16.5727 11.6048 15.5727 10.6048 14.3327 10.6048C13.0727 10.6048 12.0727 11.6048 12.0727 12.8548C12.0727 14.1048 13.0727 15.1048 14.3327 15.1048ZM6.9327 33.1648H16.4227C20.3427 33.1648 23.3627 30.1048 23.3627 26.2248C23.3627 22.3448 20.3427 19.2748 16.4227 19.2748H6.9327C3.0227 19.2748 0.0027 22.3448 0.0027 26.2248C0.0027 30.1048 3.0227 33.1648 6.9327 33.1648ZM6.9327 31.1748C4.1327 31.1748 1.9727 29.0248 1.9727 26.2248C1.9727 23.4248 4.1327 21.2748 6.9327 21.2748H16.4227C19.2327 21.2748 21.3927 23.4248 21.3927 26.2248C21.3927 29.0248 19.2327 31.1748 16.4227 31.1748ZM6.9227 29.8748C8.9427 29.8748 10.5827 28.2448 10.5827 26.2248C10.5827 24.1948 8.9427 22.5548 6.9227 22.5548C4.8927 22.5548 3.2627 24.1948 3.2627 26.2248C3.2627 28.2448 4.8927 29.8748 6.9227 29.8748ZM16.4327 29.8748C18.4727 29.8748 20.0927 28.2448 20.0927 26.2248C20.0927 24.1948 18.4727 22.5548 16.4327 22.5548C14.4127 22.5548 12.7827 24.1948 12.7827 26.2248C12.7827 28.2448 14.4127 29.8748 16.4327 29.8748Z" /></svg>