<svg viewBox="0 0 34.37109375 23.76171875" xmlns="http://www.w3.org/2000/svg"><path d="M27.0127 23.7594C31.1427 23.7594 34.3727 20.7394 34.3727 16.9794C34.3727 14.1094 32.7127 11.6194 30.0527 10.4994C30.0827 4.3994 25.6927 -0.0006 20.0927 -0.0006C16.3927 -0.0006 13.7527 1.9794 12.1127 4.3794C8.7527 3.3894 5.0827 5.9494 5.0127 9.7794C1.9327 10.2694 0.0027 13.0294 0.0027 16.3694C0.0027 20.3894 3.5127 23.7594 8.1927 23.7594ZM27.0127 21.5594H8.1927C4.7427 21.5594 2.2027 19.1494 2.2027 16.3694C2.2027 13.6294 3.8527 11.4594 6.7527 11.4594C6.9427 11.4594 7.0127 11.3594 7.0127 11.1794C7.0127 6.9694 10.0527 5.7294 12.8527 6.6494C13.0127 6.6994 13.1127 6.6594 13.1927 6.5094C14.5227 4.1394 16.5527 2.1994 20.0927 2.1994C24.5827 2.1994 27.6827 5.7594 27.9227 9.8194C27.9627 10.4494 27.9227 11.1794 27.8627 11.8294C27.8527 11.9994 27.9227 12.0994 28.0827 12.1394C30.5727 12.6894 32.1727 14.5094 32.1727 16.9794C32.1727 19.5194 29.9327 21.5594 27.0127 21.5594ZM17.2027 14.4094C17.8527 14.4094 18.2227 14.0294 18.2527 13.3194L18.4427 8.2994C18.4727 7.5494 17.9127 7.0294 17.1827 7.0294C16.4427 7.0294 15.9127 7.5294 15.9427 8.2894L16.1327 13.3194C16.1627 14.0094 16.5127 14.4094 17.2027 14.4094ZM17.1827 18.7694C17.9827 18.7694 18.6627 18.1394 18.6627 17.3494C18.6627 16.5594 17.9927 15.9294 17.1827 15.9294C16.3827 15.9294 15.7127 16.5694 15.7127 17.3494C15.7127 18.1294 16.3927 18.7694 17.1827 18.7694Z" /></svg>