<svg viewBox="0 0 27.890625 27.890625" xmlns="http://www.w3.org/2000/svg"><path d="M13.9427 27.8864C21.6427 27.8864 27.8927 21.6464 27.8927 13.9464C27.8927 6.2464 21.6427 -0.0036 13.9427 -0.0036C6.2527 -0.0036 0.0027 6.2464 0.0027 13.9464C0.0027 21.6464 6.2527 27.8864 13.9427 27.8864ZM13.9427 25.5664C7.5227 25.5664 2.3227 20.3664 2.3227 13.9464C2.3227 7.5164 7.5227 2.3264 13.9427 2.3264C20.3727 2.3264 25.5627 7.5164 25.5627 13.9464C25.5627 20.3664 20.3727 25.5664 13.9427 25.5664ZM10.5127 21.8364C10.7827 21.8364 10.9627 21.7064 11.2827 21.4264L13.7227 19.2064H18.2927C20.2727 19.2064 21.3727 18.1064 21.3727 16.1164V10.9664C21.3727 9.0064 20.2727 7.8864 18.2927 7.8864H9.5927C7.6127 7.8864 6.5227 8.9964 6.5227 10.9664V16.1164C6.5227 18.1064 7.6127 19.2064 9.5927 19.2064H9.9227V21.1664C9.9227 21.5764 10.1427 21.8364 10.5127 21.8364ZM13.9427 14.8164C13.5927 14.8164 13.4027 14.6164 13.3827 14.2564L13.3027 10.5964C13.2927 10.2264 13.5627 9.9364 13.9327 9.9364C14.3127 9.9364 14.6027 10.2264 14.5927 10.5964L14.4927 14.2564C14.4927 14.6164 14.2827 14.8164 13.9427 14.8164ZM13.9427 17.0664C13.5327 17.0664 13.1627 16.7364 13.1627 16.3264C13.1627 15.9164 13.5227 15.5764 13.9427 15.5764C14.3727 15.5764 14.7227 15.8964 14.7227 16.3264C14.7227 16.7364 14.3527 17.0664 13.9427 17.0664Z" /></svg>