<svg viewBox="0 0 27.890625 27.890625" xmlns="http://www.w3.org/2000/svg"><path d="M13.9427 27.8864C21.6427 27.8864 27.8927 21.6464 27.8927 13.9464C27.8927 6.2464 21.6427 -0.0036 13.9427 -0.0036C6.2527 -0.0036 0.0027 6.2464 0.0027 13.9464C0.0027 21.6464 6.2527 27.8864 13.9427 27.8864ZM13.9427 25.5664C7.5227 25.5664 2.3227 20.3664 2.3227 13.9464C2.3227 7.5164 7.5227 2.3264 13.9427 2.3264C20.3727 2.3264 25.5627 7.5164 25.5627 13.9464C25.5627 20.3664 20.3727 25.5664 13.9427 25.5664ZM13.9327 16.4064C14.5727 16.4064 14.9527 16.0364 14.9727 15.3264L15.1727 8.1064C15.1927 7.4064 14.6427 6.8864 13.9227 6.8864C13.1827 6.8864 12.6627 7.3964 12.6727 8.0964L12.8527 15.3264C12.8627 16.0264 13.2527 16.4064 13.9327 16.4064ZM13.9327 20.8464C14.7127 20.8464 15.3927 20.2164 15.3927 19.4264C15.3927 18.6364 14.7227 18.0064 13.9327 18.0064C13.1227 18.0064 12.4527 18.6464 12.4527 19.4264C12.4527 20.2064 13.1427 20.8464 13.9327 20.8464Z" /></svg>