<svg viewBox="0 0 28.095703125 27.04296875" xmlns="http://www.w3.org/2000/svg"><path d="M9.8937 27.0426H18.1937C19.9337 27.0426 20.7537 26.4826 21.6537 25.5126L26.9637 19.6626C27.8537 18.6726 28.0937 18.0026 28.0937 16.6526V10.4026C28.0937 9.0326 27.8537 8.3826 26.9637 7.3926L21.6537 1.5426C20.7537 0.5726 19.9337 0.0026 18.1937 0.0026H9.8937C8.1637 0.0026 7.3237 0.5726 6.4437 1.5426L1.1337 7.3926C0.2337 8.3826 0.0037 9.0326 0.0037 10.4026V16.6526C0.0037 18.0026 0.2337 18.6726 1.1337 19.6626L6.4437 25.5126C7.3237 26.4826 8.1637 27.0426 9.8937 27.0426ZM10.6337 24.8526C9.2737 24.8526 8.8737 24.5526 8.1237 23.7326L3.1837 18.3326C2.6537 17.7326 2.5337 17.3926 2.5337 16.3926V10.6626C2.5337 9.6626 2.6537 9.3226 3.1837 8.7226L8.1237 3.3226C8.8737 2.4926 9.2737 2.2026 10.6337 2.2026H17.4637C18.8237 2.2026 19.2137 2.4926 19.9737 3.3226L24.8937 8.7226C25.4437 9.3226 25.5637 9.6626 25.5637 10.6626V16.3926C25.5637 17.3926 25.4437 17.7326 24.8937 18.3326L19.9737 23.7326C19.2137 24.5526 18.8237 24.8526 17.4637 24.8526ZM14.0437 15.9826C14.6937 15.9826 15.0837 15.6126 15.0937 14.9026L15.2837 7.6826C15.3037 6.9826 14.7537 6.4626 14.0237 6.4626C13.2937 6.4626 12.7737 6.9726 12.7837 7.6726L12.9737 14.9026C12.9837 15.6026 13.3737 15.9826 14.0437 15.9826ZM14.0437 20.4226C14.8337 20.4226 15.5137 19.7926 15.5137 19.0026C15.5137 18.2126 14.8437 17.5826 14.0437 17.5826C13.2437 17.5826 12.5737 18.2226 12.5737 19.0026C12.5737 19.7826 13.2637 20.4226 14.0437 20.4226Z" /></svg>