<svg viewBox="0 0 27.890625 27.890625" xmlns="http://www.w3.org/2000/svg"><path d="M13.9427 27.8927C21.6427 27.8927 27.8927 21.6427 27.8927 13.9427C27.8927 6.2627 21.6427 0.0027 13.9427 0.0027C6.2627 0.0027 0.0027 6.2627 0.0027 13.9427C0.0027 21.6427 6.2627 27.8927 13.9427 27.8927ZM10.4227 22.0627C10.0327 22.0627 9.8027 21.7827 9.8027 21.3527V19.3427H9.4627C7.4227 19.3427 6.2927 18.1927 6.2927 16.1627V10.8427C6.2927 8.8327 7.4227 7.6827 9.4627 7.6827H18.4327C20.4627 7.6827 21.6027 8.8327 21.6027 10.8427V16.1627C21.6027 18.1927 20.4627 19.3427 18.4327 19.3427H13.7227L11.2127 21.6327C10.8827 21.9427 10.6927 22.0627 10.4227 22.0627ZM13.9427 14.8227C14.3027 14.8227 14.5027 14.6027 14.5027 14.2327L14.6127 10.4627C14.6327 10.0727 14.3327 9.8027 13.9327 9.8027C13.5527 9.8027 13.2627 10.0727 13.2727 10.4627L13.3727 14.2327C13.3827 14.6027 13.5727 14.8227 13.9427 14.8227ZM13.9427 17.1427C14.3727 17.1427 14.7527 16.8027 14.7527 16.3827C14.7527 15.9427 14.3827 15.6027 13.9427 15.6027C13.5127 15.6027 13.1427 15.9527 13.1427 16.3827C13.1427 16.8027 13.5227 17.1427 13.9427 17.1427Z" /></svg>