<svg viewBox="0 0 31.96484375 24.923828125" xmlns="http://www.w3.org/2000/svg"><path d="M7.4927 24.9262C11.6527 24.9262 14.9727 19.8662 14.9727 12.4562C14.9727 5.0362 11.6527 -0.0038 7.4927 -0.0038C3.3227 -0.0038 0.0027 5.0362 0.0027 12.4562C0.0027 19.8662 3.3227 24.9262 7.4927 24.9262ZM24.4727 24.9262C28.6427 24.9262 31.9627 19.8662 31.9627 12.4562C31.9627 5.0362 28.6427 -0.0038 24.4727 -0.0038C20.3127 -0.0038 16.9927 5.0362 16.9927 12.4562C16.9927 19.8662 20.3127 24.9262 24.4727 24.9262ZM4.5427 17.2862C6.8227 17.2862 8.3427 15.6962 8.3427 13.2862C8.3427 10.9262 6.8227 9.3262 4.5427 9.3262C3.5527 9.3262 2.7227 9.6162 2.0927 10.1262C2.6227 5.1962 4.8827 1.9562 7.4927 1.9262C10.5127 1.9162 13.0427 6.1962 13.0427 12.4562C13.0427 18.6762 10.5127 22.9662 7.4927 22.9962C5.2327 22.9962 3.2427 20.5762 2.3927 16.6962C2.9827 17.0762 3.7027 17.2862 4.5427 17.2862ZM21.5027 17.2862C23.7927 17.2862 25.3327 15.6962 25.3327 13.2862C25.3327 10.9262 23.7927 9.3262 21.5027 9.3262C20.5327 9.3262 19.6827 9.6162 19.0427 10.1262C19.5927 5.1962 21.8427 1.9562 24.4727 1.9462C27.4627 1.9462 30.0127 6.2162 30.0127 12.4562C30.0127 18.6862 27.4627 22.9662 24.4727 22.9862C22.2027 22.9862 20.2027 20.5462 19.3627 16.6962C19.9427 17.0662 20.6827 17.2862 21.5027 17.2862ZM3.4627 12.8262C2.9627 12.7562 2.6627 12.1662 2.7727 11.5662C2.9027 10.9762 3.3627 10.5362 3.8327 10.6362C4.3227 10.7362 4.6227 11.2962 4.5027 11.8762C4.3927 12.4862 3.9327 12.9062 3.4627 12.8262ZM20.4227 12.8262C19.9427 12.7462 19.6327 12.1662 19.7527 11.5662C19.8827 10.9762 20.3327 10.5362 20.8127 10.6362C21.3027 10.7162 21.5927 11.2962 21.4627 11.8762C21.3527 12.4862 20.9027 12.9062 20.4227 12.8262Z" /></svg>