<svg viewBox="0 0 27.890625 27.890625" xmlns="http://www.w3.org/2000/svg"><path d="M13.9427 27.8864C21.6427 27.8864 27.8927 21.6464 27.8927 13.9464C27.8927 6.2464 21.6427 -0.0036 13.9427 -0.0036C6.2527 -0.0036 0.0027 6.2464 0.0027 13.9464C0.0027 21.6464 6.2527 27.8864 13.9427 27.8864ZM13.9427 25.5664C7.5227 25.5664 2.3227 20.3664 2.3227 13.9464C2.3227 7.5164 7.5227 2.3264 13.9427 2.3264C20.3727 2.3264 25.5627 7.5164 25.5627 13.9464C25.5627 20.3664 20.3727 25.5664 13.9427 25.5664ZM8.2027 20.5664C8.2027 21.3164 8.9927 21.6964 10.5127 21.6964C12.6827 21.6964 14.0427 20.4264 14.3727 18.0564L14.8927 14.3164H18.5127C19.1027 14.3164 19.5227 13.9064 19.5227 13.3564C19.5227 12.7864 19.0827 12.3764 18.5027 12.3764H15.1727L15.4727 10.1464C15.6727 8.7064 16.2127 8.1164 17.2627 8.1164C18.1127 8.1164 18.3727 8.2164 18.7727 8.2164C19.3227 8.2164 19.6827 7.8464 19.6827 7.3164C19.6827 6.5664 18.8627 6.1764 17.3727 6.1764C15.2027 6.1764 13.8527 7.4664 13.5327 9.8064L13.1827 12.3764H10.0627C9.5027 12.3764 9.0627 12.7864 9.0627 13.3564C9.0627 13.9064 9.5027 14.3164 10.0727 14.3164H12.9027L12.4327 17.7364C12.2327 19.1564 11.6927 19.7464 10.6227 19.7464C9.8027 19.7464 9.5527 19.6364 9.1227 19.6364C8.5727 19.6364 8.2027 20.0164 8.2027 20.5664Z" /></svg>