<svg viewBox="0 0 21.8203125 31.841796875" xmlns="http://www.w3.org/2000/svg"><path d="M4.7737 31.8452H17.0637C17.5637 31.8452 17.8937 31.4752 17.8937 30.9352C17.8937 29.9152 17.0637 29.1852 15.7637 29.1852H12.0137V21.7652C17.5237 21.2052 21.8237 16.5752 21.8237 10.9052C21.8237 4.8952 16.9437 -0.0048 10.9137 -0.0048C4.8837 -0.0048 0.0037 4.8952 0.0037 10.9052C0.0037 16.5752 4.3037 21.2152 9.8137 21.7652V29.1852H6.0537C4.7537 29.1852 3.9237 29.9152 3.9237 30.9352C3.9237 31.4752 4.2537 31.8452 4.7737 31.8452ZM10.9237 19.8252C6.0037 19.8252 2.0237 15.8352 2.0237 10.9052C2.0237 6.0052 6.0037 2.0052 10.9237 2.0052C15.8437 2.0052 19.8237 6.0052 19.8237 10.9052C19.8237 15.8352 15.8437 19.8252 10.9237 19.8252ZM13.9837 10.9052C13.9837 10.7352 13.9737 10.5552 13.9337 10.3952H16.2537C17.4437 10.3952 18.1137 9.7752 18.1137 8.5952C18.1137 6.4152 16.1637 4.2352 14.3037 4.2352C12.7237 4.2352 11.9237 5.5252 11.0337 7.8652C10.9937 7.8652 10.9637 7.8652 10.9237 7.8652C10.7437 7.8652 10.5637 7.8752 10.4037 7.9052V5.5952C10.4037 4.3852 9.7937 3.7152 8.6137 3.7152C6.4237 3.7152 4.2337 5.6852 4.2337 7.5352C4.2337 9.1052 5.5337 9.9252 7.8737 10.8052C7.8737 10.8452 7.8637 10.8652 7.8637 10.9052C7.8637 11.0852 7.8937 11.2652 7.9137 11.4452H5.6037C4.4037 11.4452 3.7337 12.0452 3.7337 13.2352C3.7337 15.4052 5.6837 17.5952 7.5437 17.5952C9.1237 17.5952 9.9437 16.2952 10.8137 13.9752C10.8537 13.9752 10.8837 13.9752 10.9237 13.9752C11.1037 13.9752 11.2837 13.9552 11.4437 13.9352V16.2452C11.4437 17.4352 12.0537 18.1052 13.2437 18.1052C15.4237 18.1052 17.6137 16.1452 17.6137 14.3052C17.6137 12.7252 16.3137 11.9052 13.9837 11.0152C13.9837 10.9952 13.9837 10.9552 13.9837 10.9052ZM10.9237 12.4252C10.0937 12.4252 9.4037 11.7452 9.4037 10.9052C9.4037 10.0752 10.0937 9.3952 10.9237 9.3952C11.7537 9.3952 12.4437 10.0752 12.4437 10.9052C12.4437 11.7452 11.7537 12.4252 10.9237 12.4252Z" /></svg>