<svg viewBox="0 0 30.884765625 29.44921875" xmlns="http://www.w3.org/2000/svg"><path d="M4.0737 25.3933H5.5137V26.8333C5.5137 28.6533 6.3837 29.4533 8.1237 29.4533H22.7637C24.5037 29.4533 25.3737 28.6533 25.3737 26.8333V25.3933H26.8237C29.4737 25.3933 30.8837 24.0533 30.8837 21.3833V8.5833C30.8837 5.9333 29.4737 4.5833 26.8237 4.5833H25.4737V3.8533C25.4737 1.1933 24.1437 0.0033 21.6037 0.0033H9.2837C6.8737 0.0033 5.4137 1.1933 5.4137 3.8533V4.5833H4.0737C1.5437 4.5833 0.0037 5.9333 0.0037 8.5833V21.3833C0.0037 24.0533 1.4037 25.3933 4.0737 25.3933ZM7.5337 3.7033C7.5337 2.5533 8.1237 1.9933 9.2537 1.9933H21.6337C22.7737 1.9933 23.3537 2.5533 23.3537 3.7033V4.5833H7.5337ZM22.7637 18.4733H8.1237C6.4637 18.4733 5.5137 19.2733 5.5137 21.0833V23.3233H4.0437C2.8337 23.3233 2.2137 22.6933 2.2137 21.4933V8.4733C2.2137 7.2733 2.8337 6.6433 4.0437 6.6433H26.8537C28.0537 6.6433 28.6837 7.2733 28.6837 8.4733V21.4933C28.6837 22.6933 28.0537 23.3233 26.8537 23.3233H25.3737V21.0833C25.3737 19.2733 24.5037 18.4733 22.7637 18.4733ZM8.0837 11.4933H9.3337C9.7237 11.4933 9.9537 11.2633 9.9537 10.8833V9.6433C9.9537 9.2533 9.7237 9.0233 9.3337 9.0233H8.0837C7.7137 9.0233 7.4737 9.2533 7.4737 9.6433V10.8833C7.4737 11.2633 7.7137 11.4933 8.0837 11.4933ZM12.5737 11.4933H13.8237C14.2037 11.4933 14.4337 11.2633 14.4337 10.8833V9.6433C14.4337 9.2533 14.2037 9.0233 13.8237 9.0233H12.5737C12.1937 9.0233 11.9637 9.2533 11.9637 9.6433V10.8833C11.9637 11.2633 12.1937 11.4933 12.5737 11.4933ZM17.0637 11.4933H18.3237C18.6937 11.4933 18.9237 11.2633 18.9237 10.8833V9.6433C18.9237 9.2533 18.6937 9.0233 18.3237 9.0233H17.0637C16.6837 9.0233 16.4437 9.2533 16.4437 9.6433V10.8833C16.4437 11.2633 16.6837 11.4933 17.0637 11.4933ZM21.5437 11.4933H22.8037C23.1837 11.4933 23.4237 11.2633 23.4237 10.8833V9.6433C23.4237 9.2533 23.1837 9.0233 22.8037 9.0233H21.5437C21.1737 9.0233 20.9437 9.2533 20.9437 9.6433V10.8833C20.9437 11.2633 21.1737 11.4933 21.5437 11.4933ZM8.0837 16.1033H9.3337C9.7237 16.1033 9.9537 15.8733 9.9537 15.4933V14.2333C9.9537 13.8533 9.7237 13.6133 9.3337 13.6133H8.0837C7.7137 13.6133 7.4737 13.8533 7.4737 14.2333V15.4933C7.4737 15.8733 7.7137 16.1033 8.0837 16.1033ZM12.5737 16.1033H13.8237C14.2037 16.1033 14.4337 15.8733 14.4337 15.4933V14.2333C14.4337 13.8533 14.2037 13.6133 13.8237 13.6133H12.5737C12.1937 13.6133 11.9637 13.8533 11.9637 14.2333V15.4933C11.9637 15.8733 12.1937 16.1033 12.5737 16.1033ZM17.0637 16.1033H18.3237C18.6937 16.1033 18.9237 15.8733 18.9237 15.4933V14.2333C18.9237 13.8533 18.6937 13.6133 18.3237 13.6133H17.0637C16.6837 13.6133 16.4437 13.8533 16.4437 14.2333V15.4933C16.4437 15.8733 16.6837 16.1033 17.0637 16.1033ZM21.5437 16.1033H22.8037C23.1837 16.1033 23.4237 15.8733 23.4237 15.4933V14.2333C23.4237 13.8533 23.1837 13.6133 22.8037 13.6133H21.5437C21.1737 13.6133 20.9437 13.8533 20.9437 14.2333V15.4933C20.9437 15.8733 21.1737 16.1033 21.5437 16.1033ZM8.8037 27.3833C8.0837 27.3833 7.7137 27.0333 7.7137 26.2933V21.6133C7.7137 20.8933 8.0837 20.5333 8.8037 20.5333H22.0937C22.8337 20.5333 23.1737 20.8933 23.1737 21.6133V26.2933C23.1737 27.0333 22.8337 27.3833 22.0937 27.3833ZM9.7437 23.9433C9.7437 24.5233 10.2037 24.9933 10.7837 24.9933H20.1137C20.6837 24.9933 21.1337 24.5233 21.1337 23.9433C21.1337 23.3833 20.6837 22.9133 20.1137 22.9133H10.7837C10.2037 22.9133 9.7437 23.3833 9.7437 23.9433Z" /></svg>