<svg viewBox="0 0 40.49406700860869 23.48828125" xmlns="http://www.w3.org/2000/svg"><path d="M1.2999 13.785L17.2899 22.435C18.5499 23.115 19.3399 23.485 20.2499 23.485C21.1499 23.485 21.9399 23.115 23.1999 22.435L39.1999 13.785C40.4999 13.085 40.9099 11.515 40.0299 10.245C35.6099 4.015 28.3099 -0.005 20.2499 -0.005C12.1799 -0.005 4.8799 4.015 0.4599 10.245C-0.4101 11.515 -0.0001 13.085 1.2999 13.785ZM2.6799 12.055C2.3399 11.855 2.2499 11.515 2.5299 11.145C6.5899 5.595 12.9199 2.205 20.2499 2.205C27.5899 2.205 33.9499 5.605 37.9899 11.165C38.2399 11.525 38.1599 11.855 37.8199 12.055L21.9299 20.635C21.2499 20.995 20.7799 21.195 20.2499 21.195C19.7099 21.195 19.2499 20.995 18.5699 20.635Z" /></svg>