<svg viewBox="0 0 27.890625 27.890625" xmlns="http://www.w3.org/2000/svg"><path d="M13.9427 27.8864C21.6427 27.8864 27.8927 21.6464 27.8927 13.9464C27.8927 6.2464 21.6427 -0.0036 13.9427 -0.0036C6.2527 -0.0036 0.0027 6.2464 0.0027 13.9464C0.0027 21.6464 6.2527 27.8864 13.9427 27.8864ZM13.9427 25.5664C7.5227 25.5664 2.3227 20.3664 2.3227 13.9464C2.3227 7.5164 7.5227 2.3264 13.9427 2.3264C20.3727 2.3264 25.5627 7.5164 25.5627 13.9464C25.5627 20.3664 20.3727 25.5664 13.9427 25.5664ZM11.5427 8.4364C12.4427 8.4364 13.1827 7.6964 13.1827 6.7764C13.1827 5.8764 12.4427 5.1364 11.5427 5.1364C10.6127 5.1364 9.8827 5.8764 9.8827 6.7764C9.8827 7.6964 10.6127 8.4364 11.5427 8.4364ZM11.4127 18.7464L18.5627 10.5664C18.7427 10.3764 18.8227 10.2164 18.8227 9.9964C18.8227 9.5464 18.4827 9.2264 18.0327 9.2264H11.3727C9.8527 9.2264 8.6127 10.1064 8.2727 11.3864L7.5427 14.1764C7.2027 15.4264 8.0027 16.1964 8.9727 16.1964C9.2827 16.1964 9.5927 16.1164 9.9127 15.9564L13.3427 14.1764L13.3827 14.1864L14.8927 12.4864L14.5227 12.2764C14.2227 12.1164 13.8627 12.0964 13.5327 12.2464L10.4727 13.5864L11.0927 11.4264C11.1827 11.0464 11.5427 10.7764 11.9327 10.7764H17.2527L10.2627 18.7564C10.6127 18.7164 11.0927 18.6864 11.4127 18.7464ZM15.8427 14.6964L18.5527 16.0464C19.1127 16.3264 19.5527 16.1064 19.7127 15.7464C19.8927 15.4264 19.7827 14.9264 19.2627 14.6664L16.9027 13.4764ZM10.2627 17.7364H7.2827C7.0427 17.7364 6.8227 17.9464 6.8227 18.2064C6.8227 18.4564 7.0427 18.6764 7.2827 18.6764H9.4427ZM20.5727 17.7364H13.1827L12.3627 18.6764H20.5727C20.8227 18.6764 21.0427 18.4564 21.0427 18.2064C21.0427 17.9464 20.8227 17.7364 20.5727 17.7364ZM13.9327 21.3564C15.5327 21.3564 15.9727 20.3664 17.0327 20.3664C18.0927 20.3664 18.5227 21.3564 20.1127 21.3564H20.4827C20.7127 21.3564 20.8927 21.1764 20.8927 20.9564C20.8927 20.7264 20.7127 20.5364 20.4827 20.5364H20.1127C19.0827 20.5364 18.6327 19.5364 17.0327 19.5364C15.4927 19.5364 15.0227 20.5364 13.9327 20.5364C12.8427 20.5364 12.3727 19.5364 10.8427 19.5364C9.2327 19.5364 8.7727 20.5364 7.7527 20.5364H7.3927C7.1527 20.5364 6.9827 20.7264 6.9827 20.9564C6.9827 21.1764 7.1527 21.3564 7.3927 21.3564H7.7527C9.3427 21.3564 9.7727 20.3664 10.8427 20.3664C11.9127 20.3664 12.3327 21.3564 13.9327 21.3564Z" /></svg>