<svg viewBox="0 0 27.890625 27.890625" xmlns="http://www.w3.org/2000/svg"><path d="M13.9427 27.8864C21.6427 27.8864 27.8927 21.6464 27.8927 13.9464C27.8927 6.2464 21.6427 -0.0036 13.9427 -0.0036C6.2527 -0.0036 0.0027 6.2464 0.0027 13.9464C0.0027 21.6464 6.2527 27.8864 13.9427 27.8864ZM13.9427 25.5664C7.5227 25.5664 2.3227 20.3664 2.3227 13.9464C2.3227 7.5164 7.5227 2.3264 13.9427 2.3264C20.3727 2.3264 25.5627 7.5164 25.5627 13.9464C25.5627 20.3664 20.3727 25.5664 13.9427 25.5664ZM18.1527 8.5264C19.0627 8.5264 19.7827 7.7964 19.7827 6.8764C19.7827 5.9764 19.0627 5.2364 18.1527 5.2364C17.2227 5.2364 16.5027 5.9764 16.5027 6.8764C16.5027 7.7964 17.2227 8.5264 18.1527 8.5264ZM7.7627 13.5064C8.6927 13.5064 9.4627 12.7264 9.4627 11.7964C9.4627 11.4564 9.3627 11.1564 9.2027 10.8864H13.7527C14.0127 10.8864 14.1327 11.1664 13.9427 11.3464L12.4427 12.8664C11.7627 13.5364 11.8527 14.5464 12.3027 14.9064L16.1627 17.8264L14.9527 21.5064C14.7927 22.0364 15.1227 22.4064 15.5127 22.5064C15.8827 22.5864 16.2827 22.4364 16.4627 21.9464L17.7827 17.8164C17.8927 17.5164 17.8327 17.1864 17.6227 16.9964L15.0527 14.4064L18.0027 11.4264C18.1327 11.3064 18.3227 11.3064 18.4727 11.4264L19.4927 12.4564L18.0927 13.8464C17.7727 14.1664 17.7827 14.6564 18.0927 14.9564C18.3627 15.2464 18.8627 15.2764 19.1827 14.9564L21.1327 13.0164C21.4527 12.6964 21.4327 12.2064 21.1327 11.8964L19.2527 9.9964C18.8027 9.5464 18.2527 9.3264 17.6127 9.3264H8.5427C8.1227 9.3264 7.7627 9.6664 7.7627 10.1064C6.8327 10.1064 6.0727 10.8664 6.0727 11.7964C6.0727 12.7264 6.8327 13.5064 7.7627 13.5064ZM12.1027 15.5564L11.7127 17.9264H8.0927C7.6527 17.9264 7.3027 18.2764 7.3027 18.7064C7.3027 19.1364 7.6527 19.4864 8.0927 19.4864H12.3327C12.7427 19.4864 13.0327 19.2764 13.1227 18.9264L13.7527 16.8264Z" /></svg>