<svg viewBox="0 0 27.890625 27.890625" xmlns="http://www.w3.org/2000/svg"><path d="M13.9427 27.8864C21.6427 27.8864 27.8927 21.6464 27.8927 13.9464C27.8927 6.2464 21.6427 -0.0036 13.9427 -0.0036C6.2527 -0.0036 0.0027 6.2464 0.0027 13.9464C0.0027 21.6464 6.2527 27.8864 13.9427 27.8864ZM13.9427 25.5664C7.5227 25.5664 2.3227 20.3664 2.3227 13.9464C2.3227 7.5164 7.5227 2.3264 13.9427 2.3264C20.3727 2.3264 25.5627 7.5164 25.5627 13.9464C25.5627 20.3664 20.3727 25.5664 13.9427 25.5664ZM11.1127 18.5764C11.4427 18.8164 11.9527 18.7264 12.1827 18.4064L13.9727 15.8964L15.6427 16.1964L13.9827 18.6764C13.7527 19.0264 13.8527 19.5364 14.2027 19.7464C14.6427 20.0064 15.0627 19.8664 15.2827 19.5364L17.5227 16.1464C17.8327 15.6964 17.6627 15.0164 17.0227 14.8564L13.9327 14.1064C13.6127 14.0364 13.5227 13.7764 13.6827 13.5264L15.0027 11.5664C15.0827 11.4264 15.2627 11.4064 15.3927 11.4864L17.2827 12.7964C17.3927 12.8664 17.4727 12.9064 17.5927 12.9164L21.8327 13.6864C22.2127 13.7564 22.6527 13.5264 22.7327 13.0564C22.8027 12.6464 22.5327 12.2364 22.1227 12.1664L18.0327 11.4264L11.7427 7.1364L13.5327 5.8364C13.9027 5.5764 13.9727 5.1164 13.7227 4.7564C13.4827 4.4164 12.9927 4.3164 12.6627 4.5664L9.9527 6.5064C9.5027 6.8264 9.5027 7.4664 9.9627 7.7764L12.2627 9.3564C12.4027 9.4464 12.4327 9.6064 12.3327 9.7464L10.4227 12.5364C9.6127 13.6964 10.1127 15.2864 11.6927 15.5264L12.2627 15.6264L10.9327 17.4864C10.6927 17.8464 10.7427 18.3364 11.1127 18.5764ZM16.2327 8.8364C17.1427 8.8364 17.8827 8.0764 17.8827 7.1764C17.8827 6.2664 17.1427 5.5364 16.2327 5.5364C15.3227 5.5364 14.5727 6.2664 14.5727 7.1764C14.5727 8.0764 15.3227 8.8364 16.2327 8.8364ZM5.4827 19.3564C6.0527 19.3564 6.8727 19.1564 7.6327 18.7064C10.5927 20.5464 14.4927 21.9964 18.7827 22.4864C19.0827 22.5264 19.2727 22.2864 19.2727 22.0564C19.2727 21.8764 19.1527 21.6964 18.8827 21.6564C13.6827 21.1064 8.5627 18.7864 5.5627 16.1164C5.3627 15.9264 5.1427 15.9664 4.9927 16.1064C4.8227 16.2664 4.7727 16.5564 5.0127 16.7764C5.4127 17.1264 5.8527 17.4764 6.3027 17.8164C6.0127 18.1164 5.7527 18.3064 5.3227 18.5364C5.0827 18.6864 5.0027 18.8664 5.0627 19.0764C5.1027 19.2264 5.2527 19.3564 5.4827 19.3564Z" /></svg>