<svg viewBox="0 0 17.53777873220482 33.578125" xmlns="http://www.w3.org/2000/svg"><path d="M1.9937 33.5777C2.7937 33.5777 3.3737 32.9777 3.3737 32.2377V25.6877L7.2037 21.6177C7.2737 21.5477 7.3937 21.5477 7.4637 21.6277L11.1337 26.5377L14.2437 32.7277C15.1037 34.4677 17.5437 33.2277 16.7037 31.5677L10.3037 18.7477C9.7337 17.5977 9.4437 16.0477 9.3137 14.4777C9.2737 13.9677 9.5937 13.7277 10.0337 13.9477L12.5637 15.2277L14.9037 19.9077C15.7337 21.5577 18.2337 20.4377 17.3537 18.6777L14.8037 13.6077C14.6737 13.3277 14.4637 13.1277 14.1937 12.9877L10.5537 11.1677C9.4737 10.6277 8.3637 10.4177 7.3437 10.1577C6.1637 9.8677 5.1137 9.4977 4.4037 8.4877L2.7437 6.0877V1.3577C2.7437 0.6177 2.1237 -0.0023 1.3637 -0.0023C0.6137 -0.0023 0.0037 0.6177 0.0037 1.3577V6.5177C0.0037 6.8177 0.0637 7.0277 0.2437 7.2877L3.1437 11.4677C3.4037 11.8577 3.5637 12.0977 3.6237 12.7377C3.7337 14.2577 4.0637 17.0777 4.6737 19.1177L0.9037 24.3477C0.7237 24.6277 0.6537 24.8877 0.6537 25.1377V32.2377C0.6537 32.9777 1.2437 33.5777 1.9937 33.5777ZM8.2837 8.6777C9.9237 8.6777 11.2537 7.3577 11.2537 5.6877C11.2537 4.0477 9.9237 2.7177 8.2837 2.7177C6.6137 2.7177 5.2937 4.0477 5.2937 5.6877C5.2937 7.3577 6.6137 8.6777 8.2837 8.6777Z" /></svg>