<svg viewBox="0 0 22.55059279970851 33.564453125" xmlns="http://www.w3.org/2000/svg"><path d="M8.0135 5.9765C9.6535 5.9765 11.0035 4.6365 11.0035 2.9965C11.0035 1.3565 9.6535 -0.0035 8.0135 -0.0035C6.3735 -0.0035 5.0335 1.3565 5.0335 2.9965C5.0335 4.6365 6.3735 5.9765 8.0135 5.9765ZM10.0735 26.8365C10.7035 26.9465 11.3935 26.6465 11.6335 25.8165L13.4835 19.6365C13.7235 18.7865 13.3735 18.0565 12.5735 17.7765L7.7935 16.0465L8.5035 11.1065C8.5435 10.8265 8.7635 10.7465 9.0235 10.8565L11.4335 11.9465C11.7435 12.0965 11.9935 12.1365 12.4035 12.1865L18.4435 12.7965C19.2135 12.8765 19.8935 12.3365 19.9435 11.5765C20.0135 10.8465 19.4735 10.1565 18.7135 10.0865L12.5535 9.4865L7.8935 7.3465C5.8935 6.4365 3.8235 7.4465 3.5635 9.4465L2.8035 15.2665C2.5835 16.9765 3.6535 18.5265 5.3135 18.9265L10.5135 20.1065L9.0135 25.0365C8.7135 26.0265 9.3535 26.7165 10.0735 26.8365ZM22.4735 8.6665C22.2735 8.2565 21.8335 8.1065 21.4335 8.2965C20.7935 8.6165 20.3335 8.8565 19.8635 9.1065C20.3535 9.3665 20.7535 9.7765 20.9835 10.2665C21.3035 10.0865 21.6335 9.9265 22.1235 9.6665C22.5035 9.4765 22.6535 9.0365 22.4735 8.6665ZM3.9335 33.5665H9.0235C9.4435 33.5665 9.7935 33.2365 9.7935 32.8165V30.3565H14.1235C14.5335 30.3565 14.8735 29.9965 14.8735 29.5765V27.1065H17.6735C18.0835 27.1065 18.4335 26.7865 18.4435 26.3565L18.9235 14.0565C18.7835 14.0565 18.7035 14.0665 18.5935 14.0665C18.1935 14.0965 17.7735 14.0565 17.4035 13.9965L16.9435 25.5765H14.1235C13.6835 25.5765 13.3535 25.8965 13.3535 26.3365V28.8165H9.0235C8.6035 28.8165 8.2735 29.1465 8.2735 29.5765V32.0465H3.9335C3.5135 32.0465 3.1535 32.4065 3.1535 32.8165C3.1535 33.2265 3.5235 33.5665 3.9335 33.5665ZM0.6735 31.1465C1.2435 31.4565 2.0535 31.3765 2.5735 30.5965L6.2735 25.0565C6.4235 24.8465 6.5035 24.5865 6.5635 24.2565L7.1335 20.7165L5.0435 20.2365C4.7135 20.1665 4.4035 20.0565 4.0835 19.9065L3.8235 23.8165L0.3135 29.0765C-0.2865 29.9965 0.0535 30.8065 0.6735 31.1465Z" /></svg>