<svg viewBox="0 0 26.387782949213957 32.357750030808084" xmlns="http://www.w3.org/2000/svg"><path d="M3.0037 5.9696C4.6337 5.9696 5.9737 4.6396 5.9737 2.9696C5.9737 1.3296 4.6337 -0.0004 3.0037 -0.0004C1.3437 -0.0004 0.0037 1.3296 0.0037 2.9696C0.0037 4.6396 1.3437 5.9696 3.0037 5.9696ZM1.4337 17.0996H7.0937L7.4337 17.4496C8.1237 18.1296 9.0537 18.4696 9.9537 18.4696C10.7037 18.4696 11.4337 18.2396 12.0737 17.7596L18.9037 12.6496L25.7037 8.5596C26.3637 8.1796 26.5737 7.3296 26.2137 6.6696C25.8037 6.0196 24.9537 5.8096 24.2937 6.2096L11.3437 13.9596L7.7537 10.3496C7.6537 10.2696 7.7137 10.1396 7.8337 10.1396H11.1337C11.8937 10.1396 12.5237 9.5296 12.5237 8.7596V4.6596C13.3337 4.3896 13.9137 3.6196 13.9137 2.7196C13.9137 1.5596 12.9737 0.6396 11.8237 0.6396C10.6937 0.6396 9.7637 1.5496 9.7437 2.7096V2.7196V7.3996H2.8037C1.3037 7.3996 0.0537 8.6296 0.0537 10.1396V15.7196C0.0537 16.4596 0.6537 17.0996 1.4337 17.0996ZM2.7037 14.3996V13.0796C2.7037 12.8896 2.9237 12.7996 3.0637 12.9296L4.5237 14.3996ZM10.1537 32.3296C10.8737 32.4696 11.6637 32.0096 11.8137 31.2396L13.1937 24.3096C13.2337 24.1296 13.2337 23.9896 13.2037 23.7996L12.9437 18.7596C12.0037 19.4696 10.9637 19.7796 9.9537 19.7796C9.8337 19.7796 9.6937 19.7796 9.5537 19.7696L10.4037 24.0396L9.0737 30.6896C8.9237 31.4496 9.4237 32.1796 10.1537 32.3296Z" /></svg>