<svg viewBox="0 0 39.78515625 27.603515625" xmlns="http://www.w3.org/2000/svg"><path d="M5.8337 5.4017C7.3437 5.4017 8.5437 4.2017 8.5437 2.6917C8.5437 1.2017 7.3437 0.0017 5.8337 0.0017C4.3437 0.0017 3.1437 1.2017 3.1437 2.6917C3.1437 4.2017 4.3437 5.4017 5.8337 5.4017ZM33.9337 5.4017C35.4337 5.4017 36.6437 4.2017 36.6437 2.6917C36.6437 1.2017 35.4337 0.0017 33.9337 0.0017C32.4437 0.0017 31.2437 1.2017 31.2437 2.6917C31.2437 4.2017 32.4437 5.4017 33.9337 5.4017ZM0.0037 16.7217C0.0037 17.3217 0.4937 17.8117 1.0937 17.8117C1.7137 17.8117 2.2037 17.3217 2.2037 16.7217V11.9317C2.2037 11.7217 2.3837 11.5417 2.5937 11.5417C2.8337 11.5417 3.0037 11.7217 3.0037 11.9317V26.4017C3.0037 27.0717 3.5437 27.6017 4.2137 27.6017C4.8937 27.6017 5.4237 27.0717 5.4237 26.4017V17.5917C5.4237 17.3817 5.6237 17.1817 5.8337 17.1817C6.0737 17.1817 6.2637 17.3817 6.2637 17.5917V26.4017C6.2637 27.0717 6.7937 27.6017 7.4637 27.6017C8.1337 27.6017 8.6837 27.0717 8.6837 26.4017V11.9317C8.6837 11.7217 8.8637 11.5417 9.0737 11.5417C9.2937 11.5417 9.4837 11.7217 9.4837 11.9317V16.7217C9.4837 17.3217 9.9637 17.8117 10.5837 17.8117C11.1937 17.8117 11.6737 17.3217 11.6737 16.7217V11.3717C11.6737 8.6317 9.6837 6.8217 6.7437 6.8217H4.9537C2.0137 6.8217 0.0037 8.6317 0.0037 11.3717ZM28.0937 16.7217C28.0937 17.3217 28.5837 17.8117 29.1937 17.8117C29.8037 17.8117 30.2937 17.3217 30.2937 16.7217V11.9317C30.2937 11.7217 30.4737 11.5417 30.7037 11.5417C30.9237 11.5417 31.1037 11.7217 31.1037 11.9317V26.4017C31.1037 27.0717 31.6337 27.6017 32.3037 27.6017C32.9937 27.6017 33.5237 27.0717 33.5237 26.4017V17.5917C33.5237 17.3817 33.7137 17.1817 33.9337 17.1817C34.1637 17.1817 34.3537 17.3817 34.3537 17.5917V26.4017C34.3537 27.0717 34.8937 27.6017 35.5637 27.6017C36.2337 27.6017 36.7737 27.0717 36.7737 26.4017V11.9317C36.7737 11.7217 36.9537 11.5417 37.1737 11.5417C37.3937 11.5417 37.5837 11.7217 37.5837 11.9317V16.7217C37.5837 17.3217 38.0637 17.8117 38.6737 17.8117C39.2937 17.8117 39.7837 17.3217 39.7837 16.7217V11.3717C39.7837 8.6317 37.7737 6.8217 34.8337 6.8217H33.0437C30.1037 6.8217 28.0937 8.6317 28.0937 11.3717ZM15.3637 15.0617C16.0137 15.0617 16.5437 14.5317 16.5437 13.8917C16.5437 13.2517 16.0137 12.7117 15.3637 12.7117C14.7237 12.7117 14.1937 13.2517 14.1937 13.8917C14.1937 14.5317 14.7237 15.0617 15.3637 15.0617ZM19.8937 15.0617C20.5337 15.0617 21.0637 14.5317 21.0637 13.8917C21.0637 13.2517 20.5337 12.7117 19.8937 12.7117C19.2537 12.7117 18.7137 13.2517 18.7137 13.8917C18.7137 14.5317 19.2537 15.0617 19.8937 15.0617ZM24.4037 15.0617C25.0437 15.0617 25.5837 14.5317 25.5837 13.8917C25.5837 13.2517 25.0437 12.7117 24.4037 12.7117C23.7637 12.7117 23.2237 13.2517 23.2237 13.8917C23.2237 14.5317 23.7637 15.0617 24.4037 15.0617Z" /></svg>