<svg viewBox="0 0 27.890625 27.890625" xmlns="http://www.w3.org/2000/svg"><path d="M13.9427 27.8864C21.6427 27.8864 27.8927 21.6264 27.8927 13.9464C27.8927 6.2464 21.6427 -0.0036 13.9427 -0.0036C6.2627 -0.0036 0.0027 6.2464 0.0027 13.9464C0.0027 21.6264 6.2627 27.8864 13.9427 27.8864ZM9.7027 6.0564L12.5827 4.0064C12.9327 3.7364 13.4527 3.8264 13.7227 4.1964C13.9727 4.5764 13.9027 5.0764 13.5127 5.3464L11.6027 6.7264L18.3027 11.2964L22.6527 12.0864C23.0927 12.1564 23.4027 12.5964 23.3127 13.0264C23.2127 13.5264 22.7527 13.7764 22.3427 13.6864L17.8427 12.8964C17.7027 12.8764 17.6227 12.8364 17.5127 12.7464L15.5027 11.3464C15.3527 11.2664 15.1627 11.2964 15.0827 11.4464L13.7027 13.5264C13.4927 13.8064 13.6327 14.0664 13.9327 14.1364L17.2227 14.9464C17.9127 15.1064 18.0927 15.8364 17.7727 16.3064L15.3827 19.9164C15.1527 20.2764 14.7127 20.4264 14.2427 20.1364C13.8527 19.9164 13.7527 19.3864 13.9827 19.0064L15.7627 16.3664L13.9727 16.0664L12.0827 18.7164C11.8427 19.0564 11.2927 19.1564 10.9527 18.9064C10.5527 18.6464 10.5027 18.1164 10.7427 17.7464L12.1727 15.7664L11.5527 15.6664C9.8827 15.3964 9.3427 13.6964 10.2027 12.4864L12.2527 9.5064C12.3427 9.3664 12.3227 9.1864 12.1727 9.0764L9.7227 7.4064C9.2327 7.0864 9.2327 6.3964 9.7027 6.0564ZM16.3927 8.5264C15.4327 8.5264 14.6327 7.7364 14.6327 6.7664C14.6327 5.7964 15.4327 5.0264 16.3927 5.0264C17.3627 5.0264 18.1427 5.7964 18.1427 6.7664C18.1427 7.7364 17.3627 8.5264 16.3927 8.5264ZM4.4427 16.2664C4.5827 16.1364 4.8427 16.0764 5.0327 16.2864C8.2327 19.1264 13.6827 21.5864 19.2227 22.1764C19.5127 22.2264 19.6627 22.4064 19.6627 22.5964C19.6627 22.8464 19.4427 23.1164 19.1127 23.0764C14.5627 22.5264 10.4027 20.9964 7.2327 19.0464C6.4227 19.5064 5.5627 19.7464 4.9527 19.7464C4.7127 19.7464 4.5427 19.5964 4.5027 19.4264C4.4427 19.2064 4.5227 19.0164 4.7827 18.8564C5.2327 18.6064 5.5227 18.4064 5.8127 18.0864C5.3327 17.7364 4.8627 17.3764 4.4527 16.9964C4.1827 16.7464 4.2527 16.4464 4.4427 16.2664Z" /></svg>