<svg viewBox="0 0 27.890625 27.890625" xmlns="http://www.w3.org/2000/svg"><path d="M13.9427 27.8864C21.6427 27.8864 27.8927 21.6264 27.8927 13.9464C27.8927 6.2464 21.6427 -0.0036 13.9427 -0.0036C6.2627 -0.0036 0.0027 6.2464 0.0027 13.9464C0.0027 21.6264 6.2627 27.8864 13.9427 27.8864ZM16.9527 7.7764C16.0227 7.7764 15.2627 6.9964 15.2627 6.0664C15.2627 5.1264 16.0227 4.3764 16.9527 4.3764C17.8927 4.3764 18.6627 5.1264 18.6627 6.0664C18.6627 6.9964 17.8927 7.7764 16.9527 7.7764ZM10.7027 21.8864C9.8327 21.8864 9.1027 21.7064 8.5327 21.2164C8.2727 20.9964 8.3127 20.6964 8.4627 20.5064C8.6227 20.3264 8.9027 20.2864 9.1627 20.4664C9.5827 20.7764 9.9827 20.9164 10.7027 20.9164H14.4627V16.8464L11.5527 13.9464C11.0227 13.3964 10.9527 12.5364 11.3427 11.9264L12.7027 9.8964C12.7727 9.8064 12.7027 9.6964 12.5927 9.6964H11.2827L9.9227 11.7464C9.6927 12.1164 9.1827 12.2064 8.8227 11.9664C8.4527 11.7264 8.3627 11.2264 8.6027 10.8664L10.1827 8.4764C10.3327 8.2264 10.6127 8.1064 10.8527 8.1064H15.1327C15.9027 8.1064 16.5727 8.5464 16.9127 9.1964L17.7627 10.8964H20.4627C20.9227 10.8964 21.2627 11.2664 21.2627 11.7164C21.2627 12.1564 20.9227 12.5064 20.4627 12.5064H17.2627C16.9527 12.5064 16.6827 12.3164 16.5527 12.0764L15.9927 10.9464C15.9127 10.7564 15.6727 10.7564 15.5727 10.9364L13.8927 13.4964L15.8427 15.9564C15.9927 16.1764 16.0627 16.3764 16.0627 16.6264V20.9164C16.8727 20.9164 17.2627 20.7764 17.6827 20.4664C17.9527 20.2664 18.2627 20.3264 18.4027 20.5264C18.5427 20.7264 18.5527 20.9964 18.3027 21.2164C17.7327 21.7064 17.0127 21.8864 16.1327 21.8864ZM6.6627 13.9764C6.9627 13.6264 7.4527 13.6164 7.7927 13.9064L10.2127 16.0264L11.0327 14.3564L11.0727 14.4064L12.4127 15.7464L11.1727 17.6764C10.9227 18.0564 10.3627 18.2964 9.8727 17.8664L6.7227 15.1064C6.3827 14.8164 6.3727 14.3164 6.6627 13.9764ZM10.0227 22.9564C10.0227 22.5864 10.3327 22.2764 10.7027 22.2764C11.0727 22.2764 11.3927 22.5864 11.3927 22.9564C11.3927 23.3264 11.0727 23.6264 10.7027 23.6264C10.3327 23.6264 10.0227 23.3264 10.0227 22.9564ZM15.4627 22.9564C15.4627 22.5864 15.7727 22.2764 16.1327 22.2764C16.5127 22.2764 16.8027 22.5864 16.8027 22.9564C16.8027 23.3264 16.5127 23.6264 16.1327 23.6264C15.7727 23.6264 15.4627 23.3264 15.4627 22.9564Z" /></svg>