<svg viewBox="0 0 33.007193749329 30.8984375" xmlns="http://www.w3.org/2000/svg"><path d="M16.4737 5.5103C18.0037 5.5103 19.2537 4.2903 19.2537 2.7803C19.2537 1.2303 18.0037 0.0003 16.4737 0.0003C14.9537 0.0003 13.7237 1.2303 13.7237 2.7803C13.7237 4.2903 14.9537 5.5103 16.4737 5.5103ZM12.1637 16.5403L16.9937 19.2503L13.8937 21.9303C13.2037 22.5203 13.2337 23.2603 13.6137 23.7103C14.0537 24.1703 14.8037 24.2803 15.4937 23.6903L19.8537 19.9703C20.4537 19.4503 20.3537 18.3903 19.6337 17.9103L14.9037 14.7903L15.8337 11.5303C15.9737 11.0603 16.5037 10.9803 16.7937 11.4003L18.1737 13.4303C18.4937 13.9203 19.0837 14.0703 19.6337 13.8403L23.6537 12.0403C24.3637 11.7303 24.6237 11.1103 24.3037 10.4703C24.0237 9.8303 23.3937 9.6403 22.6837 9.9703L19.5137 11.3603L17.3237 8.3403C16.1737 6.7803 14.7637 6.1203 12.4537 6.2903L7.9837 6.6203C7.2737 6.6703 6.8037 7.1403 6.7137 7.8603L6.1137 12.3603C6.0137 13.1503 6.3837 13.7003 7.0937 13.7803C7.8037 13.8403 8.2337 13.4303 8.3437 12.6503L8.9037 8.9703L10.6937 8.8303C11.0737 8.8003 11.4737 9.0803 11.3337 9.5703L10.2937 13.1903C9.6837 15.3103 11.0637 15.9303 12.1637 16.5403ZM25.8637 26.6203L27.1137 26.5403C27.2437 26.5403 27.3137 26.5203 27.4137 26.5403L29.5837 14.0803L32.5637 12.7003C32.9537 12.5103 33.1137 12.0603 32.9337 11.6603C32.7737 11.3103 32.3237 11.1403 31.9137 11.3303L25.5437 14.3003C25.1537 14.4903 24.9737 14.9403 25.1737 15.3303C25.3237 15.6803 25.7837 15.8603 26.1937 15.6703L27.9337 14.8603ZM3.6937 27.4403C4.1737 27.8603 4.8837 27.9203 5.5237 27.2903L9.6437 23.2103C9.9837 22.8903 10.0537 22.8003 10.2537 22.2703L11.9337 17.9203L11.5137 17.6803C10.6637 17.2003 9.9637 16.7503 9.4637 16.1103L7.9837 21.3003L3.7237 25.5403C3.0537 26.2103 3.1737 27.0003 3.6937 27.4403ZM0.7137 30.9003H27.6137C28.4637 30.9003 29.1337 30.2303 29.1337 29.3503C29.1337 28.3603 28.3737 27.7903 27.3137 27.8603L0.7137 29.4503C0.3137 29.4903 0.0037 29.7803 0.0037 30.1903C0.0037 30.5803 0.3137 30.9003 0.7137 30.9003Z" /></svg>