<svg viewBox="0 0 27.890625 27.890625" xmlns="http://www.w3.org/2000/svg"><path d="M13.9427 27.8864C21.6427 27.8864 27.8927 21.6464 27.8927 13.9464C27.8927 6.2464 21.6427 -0.0036 13.9427 -0.0036C6.2527 -0.0036 0.0027 6.2464 0.0027 13.9464C0.0027 21.6464 6.2527 27.8864 13.9427 27.8864ZM13.9427 25.5664C7.5227 25.5664 2.3227 20.3664 2.3227 13.9464C2.3227 7.5164 7.5227 2.3264 13.9427 2.3264C20.3727 2.3264 25.5627 7.5164 25.5627 13.9464C25.5627 20.3664 20.3727 25.5664 13.9427 25.5664ZM16.0827 7.9264C16.9127 7.9264 17.5927 7.2564 17.5927 6.4164C17.5927 5.5764 16.9127 4.8964 16.0827 4.8964C15.2327 4.8964 14.5427 5.5764 14.5427 6.4164C14.5427 7.2564 15.2327 7.9264 16.0827 7.9264ZM8.3927 5.3964C8.3927 5.6164 8.5727 5.7864 8.7927 5.7864C9.4027 5.7864 9.8027 5.9064 10.2027 6.3464C10.3527 6.5064 10.5027 6.5764 10.6527 6.5764C10.8027 6.5764 10.9527 6.5064 11.1027 6.3464C11.5127 5.9064 11.9127 5.7864 12.5227 5.7864C12.7427 5.7864 12.9027 5.6164 12.9027 5.3964C12.9027 5.1964 12.7427 5.0264 12.5227 5.0264C11.7427 5.0264 11.2227 5.2064 10.6527 5.7464C10.0727 5.2064 9.5727 5.0264 8.7927 5.0264C8.5727 5.0264 8.3927 5.1964 8.3927 5.3964ZM9.0927 13.0064C9.5127 13.1964 9.9127 13.0064 10.0727 12.6764L11.3427 10.1264H12.8827C13.0327 10.1264 13.1227 10.2764 13.0527 10.4364L11.7127 13.0864C11.2127 14.0664 11.8427 15.3164 13.1227 15.2264L16.7327 14.9964L15.3927 17.9664C15.2327 18.3364 15.3927 18.7964 15.7627 18.9364C16.1727 19.0864 16.5527 18.9664 16.7327 18.5564L18.5927 14.5064C18.7827 14.0564 18.5027 13.4564 17.9227 13.4564H14.6727L16.1027 10.5564C16.1727 10.4364 16.3227 10.3864 16.4227 10.4964L18.1427 12.1264C18.5027 12.4664 19.0827 12.4164 19.3227 11.9364L20.7827 8.9864C20.9727 8.6164 20.8627 8.1664 20.4627 7.9864C20.1127 7.8064 19.6727 7.9564 19.4827 8.3264L18.4427 10.3664L17.6127 9.5164C17.0327 8.9564 16.4427 8.6564 15.5127 8.6564H10.8927C10.6127 8.6564 10.3627 8.8164 10.2427 9.0664L8.7527 12.0164C8.5727 12.3964 8.7127 12.8264 9.0927 13.0064ZM7.0927 20.1664C7.3327 20.6464 7.8227 20.6564 8.0627 20.5464L11.7627 18.9464C11.8927 18.8664 12.0327 18.7564 12.1127 18.5964L13.4627 15.8564L13.1827 15.8764C12.5827 15.9164 12.0827 15.7364 11.7027 15.4464L10.8527 17.7164L7.4627 19.1664C7.0927 19.3364 6.9027 19.7664 7.0927 20.1664ZM19.2527 20.8464C20.1127 20.8464 20.7827 20.1764 20.7827 19.3164C20.7827 18.4864 20.1127 17.7964 19.2527 17.7964C18.4127 17.7964 17.7427 18.4864 17.7427 19.3164C17.7427 20.1764 18.4127 20.8464 19.2527 20.8464ZM8.1927 22.6964C8.4227 22.6964 8.6027 22.5164 8.6027 22.2864C8.6027 22.0664 8.4227 21.8764 8.1927 21.8764C7.9527 21.8764 7.7827 22.0664 7.7827 22.2864C7.7827 22.5164 7.9527 22.6964 8.1927 22.6964ZM9.4627 22.6964C9.6927 22.6964 9.8727 22.5164 9.8727 22.2864C9.8727 22.0664 9.6927 21.8764 9.4627 21.8764C9.2327 21.8764 9.0527 22.0664 9.0527 22.2864C9.0527 22.5164 9.2327 22.6964 9.4627 22.6964ZM10.7327 22.6964C10.9627 22.6964 11.1427 22.5164 11.1427 22.2864C11.1427 22.0664 10.9627 21.8764 10.7327 21.8764C10.5127 21.8764 10.3227 22.0664 10.3227 22.2864C10.3227 22.5164 10.5127 22.6964 10.7327 22.6964ZM12.0127 22.6964C12.2327 22.6964 12.4127 22.5164 12.4127 22.2864C12.4127 22.0664 12.2327 21.8764 12.0127 21.8764C11.7827 21.8764 11.6027 22.0664 11.6027 22.2864C11.6027 22.5164 11.7827 22.6964 12.0127 22.6964ZM13.2927 22.6964C13.5127 22.6964 13.7027 22.5164 13.7027 22.2864C13.7027 22.0664 13.5127 21.8764 13.2927 21.8764C13.0527 21.8764 12.8827 22.0664 12.8827 22.2864C12.8827 22.5164 13.0527 22.6964 13.2927 22.6964ZM14.5627 22.6964C14.7927 22.6964 14.9727 22.5164 14.9727 22.2864C14.9727 22.0664 14.7927 21.8764 14.5627 21.8764C14.3327 21.8764 14.1527 22.0664 14.1527 22.2864C14.1527 22.5164 14.3327 22.6964 14.5627 22.6964ZM15.8327 22.6964C16.0627 22.6964 16.2427 22.5164 16.2427 22.2864C16.2427 22.0664 16.0627 21.8764 15.8327 21.8764C15.6027 21.8764 15.4227 22.0664 15.4227 22.2864C15.4227 22.5164 15.6027 22.6964 15.8327 22.6964ZM17.1027 22.6964C17.3327 22.6964 17.5127 22.5164 17.5127 22.2864C17.5127 22.0664 17.3327 21.8764 17.1027 21.8764C16.8727 21.8764 16.6927 22.0664 16.6927 22.2864C16.6927 22.5164 16.8727 22.6964 17.1027 22.6964ZM18.3727 22.6964C18.6027 22.6964 18.7827 22.5164 18.7827 22.2864C18.7827 22.0664 18.6027 21.8764 18.3727 21.8764C18.1527 21.8764 17.9627 22.0664 17.9627 22.2864C17.9627 22.5164 18.1527 22.6964 18.3727 22.6964ZM19.6627 22.6964C19.8827 22.6964 20.0727 22.5164 20.0727 22.2864C20.0727 22.0664 19.8827 21.8764 19.6627 21.8764C19.4327 21.8764 19.2527 22.0664 19.2527 22.2864C19.2527 22.5164 19.4327 22.6964 19.6627 22.6964Z" /></svg>