<svg viewBox="0 0 29.45094317588426 24.36328125" xmlns="http://www.w3.org/2000/svg"><path d="M22.5754 5.9748C24.2254 5.9748 25.5654 4.6448 25.5654 2.9948C25.5654 1.3448 24.2254 0.0048 22.5754 0.0048C20.9154 0.0048 19.5954 1.3448 19.5954 2.9948C19.5954 4.6448 20.9154 5.9748 22.5754 5.9748ZM13.0954 24.3648C13.9154 24.3648 14.5454 23.6948 14.5454 22.9048V16.5248C14.5454 15.9248 14.2754 15.5048 13.9154 15.1448L9.6954 10.9148L14.8054 9.6148C15.0654 9.5448 15.2854 9.7348 15.2854 9.9948V12.7148C15.2854 13.0948 15.4354 13.4648 15.7154 13.7448L20.0554 18.1148C20.6354 18.6748 21.5654 18.6748 22.1354 18.1148C22.6954 17.5548 22.7154 16.6148 22.1354 16.0548L18.1854 12.1248V9.3648L20.3754 11.8548C20.6554 12.1648 21.0554 12.3548 21.4654 12.3548H28.0154C28.8254 12.3548 29.4554 11.7148 29.4554 10.8948C29.4554 10.0948 28.8254 9.4648 28.0154 9.4648H22.1354L18.6454 5.4448C17.5654 4.1948 15.9054 3.7048 14.3054 4.1048L6.8554 5.9748C3.9254 6.7148 3.4154 10.3348 5.7454 12.2248L11.6454 17.0348V22.9048C11.6454 23.6948 12.2954 24.3648 13.0954 24.3648ZM0.4254 23.9348C0.9854 24.5048 1.9254 24.5048 2.5054 23.9348L7.5854 18.8548C7.8454 18.5848 7.9354 18.3348 8.0154 17.8948L8.3454 16.0548L5.1054 13.4148V17.2148L0.4254 21.8748C-0.1446 22.4348 -0.1346 23.3748 0.4254 23.9348Z" /></svg>