<svg viewBox="0 0 27.890625 27.890625" xmlns="http://www.w3.org/2000/svg"><path d="M13.9437 27.8864C21.6437 27.8864 27.8937 21.6464 27.8937 13.9464C27.8937 6.2464 21.6437 -0.0036 13.9437 -0.0036C6.2437 -0.0036 0.0037 6.2464 0.0037 13.9464C0.0037 21.6464 6.2437 27.8864 13.9437 27.8864ZM13.9437 25.5664C7.5237 25.5664 2.3237 20.3664 2.3237 13.9464C2.3237 7.5164 7.5237 2.3264 13.9437 2.3264C20.3737 2.3264 25.5637 7.5164 25.5637 13.9464C25.5637 20.3664 20.3737 25.5664 13.9437 25.5664ZM12.0537 19.5964C12.4537 19.3564 12.8637 19.1564 13.2737 18.9764V15.9964C13.2737 15.8864 13.3537 15.8064 13.4637 15.8064H14.4237C14.8337 15.8064 15.1937 15.4464 15.1937 15.0364V10.7864L15.7137 10.2564V13.4764C15.7137 13.9164 16.0637 14.2464 16.4837 14.2464C16.9137 14.2464 17.2637 13.9164 17.2637 13.4764V8.7064L19.7137 6.2364C19.8937 6.0564 19.9037 5.7664 19.7137 5.6064C19.5537 5.4164 19.2637 5.4164 19.0737 5.6064L13.8537 10.8164C13.7037 10.9764 13.6437 11.1664 13.6437 11.4164V14.2764H10.9337C10.2637 14.2764 9.8037 14.7364 9.8037 15.4264V17.0064C10.6237 17.6264 11.4037 18.4664 12.0537 19.5964ZM11.3037 13.6564C12.2137 13.6564 12.9437 12.9164 12.9437 11.9864C12.9437 11.0864 12.2137 10.3464 11.3037 10.3464C10.3737 10.3464 9.6437 11.0864 9.6437 11.9864C9.6437 12.9164 10.3737 13.6564 11.3037 13.6564ZM4.7737 17.3864C7.0537 17.3864 9.5737 18.2364 11.0237 21.9964C11.1837 22.4364 11.6737 22.4864 11.9537 22.2164C13.6437 20.5364 15.5737 19.9764 18.3637 20.7664C18.6237 20.8364 18.8237 20.7164 18.9337 20.4664C19.5137 19.1564 20.7037 18.4864 22.1337 18.4864C22.3837 18.4864 22.6037 18.2664 22.6037 18.0164C22.6037 17.7564 22.3837 17.5564 22.1337 17.5564C20.5237 17.5564 19.0137 18.3364 18.2337 19.7664C15.5437 19.1264 13.4237 19.6564 11.7037 21.1764C10.0237 17.3864 7.1537 16.4564 4.7737 16.4564C4.5237 16.4564 4.3037 16.6564 4.3037 16.9264C4.3037 17.1864 4.5237 17.3864 4.7737 17.3864Z" /></svg>