<svg viewBox="0 0 23.748046875 30.146484375" xmlns="http://www.w3.org/2000/svg"><path d="M11.8637 5.9448C13.5237 5.9448 14.8437 4.6248 14.8437 2.9848C14.8437 1.3248 13.5237 0.0048 11.8637 0.0048C10.2137 0.0048 8.8837 1.3248 8.8837 2.9848C8.8837 4.6248 10.2137 5.9448 11.8637 5.9448ZM11.8637 18.7848C12.4437 18.7848 12.6837 19.1448 12.9837 20.1548C13.4237 21.5048 14.8737 27.2448 15.2837 28.9448C15.4737 29.7948 15.9437 30.1448 16.5837 30.1448C17.4637 30.1448 17.9737 29.3548 17.7437 28.4948C17.6537 28.1248 15.6537 19.8348 15.3937 18.1248C15.1337 16.3748 15.1237 12.5648 15.1237 11.3848C15.1237 10.5648 15.5037 10.0448 16.1737 9.8948C16.8137 9.7448 22.0437 9.1848 22.7537 8.9548C23.3337 8.7748 23.7437 8.2948 23.7437 7.6748C23.7437 6.8748 23.1437 6.3948 22.5837 6.3948C22.3537 6.3948 22.1337 6.4548 21.8937 6.5048C19.7537 6.8948 15.1437 7.3848 11.8637 7.3848C8.6137 7.3848 3.9737 6.9148 1.8437 6.5048C1.6137 6.4548 1.3837 6.3948 1.1637 6.3948C0.5737 6.3948 0.0037 6.8748 0.0037 7.6748C0.0037 8.2948 0.3837 8.8348 0.9837 8.9548C1.7337 9.1148 6.9137 9.7748 7.5637 9.8948C8.2337 10.0248 8.6237 10.5648 8.6437 11.3848C8.6537 12.5648 8.6137 16.3748 8.3437 18.1248C8.0637 19.8348 6.0837 28.1248 5.9837 28.4948C5.7437 29.3548 6.2737 30.1448 7.1537 30.1448C7.7937 30.1448 8.2337 29.7948 8.4637 28.9448C8.9237 27.2648 10.3037 21.5348 10.7737 20.1548C11.0837 19.1648 11.3037 18.7848 11.8637 18.7848Z" /></svg>