<svg viewBox="0 0 27.890625 27.890625" xmlns="http://www.w3.org/2000/svg"><path d="M13.9427 27.8864C21.6427 27.8864 27.8927 21.6464 27.8927 13.9464C27.8927 6.2464 21.6427 -0.0036 13.9427 -0.0036C6.2527 -0.0036 0.0027 6.2464 0.0027 13.9464C0.0027 21.6464 6.2527 27.8864 13.9427 27.8864ZM13.9427 25.5664C7.5227 25.5664 2.3227 20.3664 2.3227 13.9464C2.3227 7.5164 7.5227 2.3264 13.9427 2.3264C20.3727 2.3264 25.5627 7.5164 25.5627 13.9464C25.5627 20.3664 20.3727 25.5664 13.9427 25.5664ZM11.9527 23.6264C12.3327 23.6264 12.6727 23.2864 12.6727 22.8764V19.3164L14.4127 16.7664C14.4627 16.6664 14.6327 16.6964 14.6427 16.8264L14.9127 19.0964C14.9327 19.2364 14.9427 19.3064 15.0027 19.4364L16.3927 23.1364C16.5827 23.5964 17.0127 23.6964 17.3527 23.5664C17.7027 23.4364 17.9827 23.0964 17.8027 22.6164L16.4227 18.9364V11.8964C16.4227 11.1164 16.0827 10.2964 15.3227 9.9764L14.8427 9.7764C14.0027 9.4164 13.1927 9.5464 12.4727 10.0464L10.7227 11.3064L8.7927 10.5164L12.6727 5.0964H13.9327C14.2727 5.0964 14.5427 4.8364 14.5427 4.5164C14.5427 4.1564 14.2727 3.9064 13.9327 3.9064H12.7127C12.5927 3.9064 12.4427 3.9764 12.3627 4.0864L7.6027 10.6664C7.3427 11.0164 7.4127 11.5264 7.8327 11.7164L10.5127 12.8664C10.6327 12.9164 10.7227 12.9164 10.8827 12.9164H12.6627C12.9427 12.9164 13.0427 13.1064 13.0427 13.3164V15.3564L11.2627 18.7464C11.1927 18.8564 11.1827 18.9664 11.1827 19.0964V22.8764C11.1827 23.2864 11.5227 23.6264 11.9527 23.6264ZM15.6527 9.1164C16.5427 9.1164 17.2527 8.3964 17.2527 7.4964C17.2527 6.6064 16.5427 5.8964 15.6527 5.8964C14.7527 5.8964 14.0427 6.6064 14.0427 7.4964C14.0427 8.3964 14.7527 9.1164 15.6527 9.1164Z" /></svg>