<svg viewBox="0 0 27.890625 27.890625" xmlns="http://www.w3.org/2000/svg"><path d="M13.9427 27.8864C21.6427 27.8864 27.8927 21.6264 27.8927 13.9464C27.8927 6.2464 21.6427 -0.0036 13.9427 -0.0036C6.2627 -0.0036 0.0027 6.2464 0.0027 13.9464C0.0027 21.6264 6.2627 27.8864 13.9427 27.8864ZM12.5227 15.5264C11.7727 15.2964 11.4027 14.8064 11.4027 13.9864V11.4964C11.4027 11.3564 11.3227 11.2664 11.0727 11.3564L9.7627 11.8964H5.8427C5.9627 11.7564 6.1227 11.6364 6.4427 11.4964L16.2527 7.4964L18.3927 5.0164C18.6927 4.6864 19.1827 4.6364 19.5127 4.9364C19.8527 5.2064 19.8927 5.7264 19.6227 6.0564L17.3727 8.6564C17.2227 8.8064 17.2127 8.8764 16.9627 8.9864L14.8227 9.8464C14.6127 9.9264 14.5327 9.9664 14.5327 10.2664V14.0564L21.5727 17.2364C22.5727 17.6864 21.9527 19.1664 20.9227 18.7064L16.8027 16.8464ZM12.0027 8.2164C11.0627 8.2164 10.2927 7.4664 10.2927 6.5264C10.2927 5.5964 11.0627 4.8364 12.0027 4.8364C12.9327 4.8364 13.7027 5.5964 13.7027 6.5264C13.7027 7.4664 12.9327 8.2164 12.0027 8.2164ZM4.6027 13.5364C4.3627 13.5364 4.1327 13.3264 4.1327 13.0564C4.1327 12.7964 4.3627 12.5764 4.6027 12.5764H10.7327V13.5364ZM15.2127 13.5364V12.5764H22.3627C22.6127 12.5764 22.8427 12.7964 22.8427 13.0564C22.8427 13.3264 22.6127 13.5364 22.3627 13.5364ZM11.8027 22.3164L12.9027 18.3364L12.6627 16.2864L14.5327 16.8564V18.3864C14.5327 18.4464 14.5227 18.5164 14.4927 18.5964L13.3727 22.7264C13.2627 23.1364 12.9227 23.3064 12.5927 23.3064C12.1227 23.3064 11.6527 22.9264 11.8027 22.3164Z" /></svg>