<svg viewBox="0 0 33.76891918851909 27.48891105007346" xmlns="http://www.w3.org/2000/svg"><path d="M7.9331 6.0987C9.6131 6.0987 10.9531 4.6887 10.9531 3.0587C10.9531 1.3787 9.6131 -0.0013 7.9331 -0.0013C6.2331 -0.0013 4.9031 1.3787 4.9031 3.0587C4.9031 4.7187 6.2331 6.0987 7.9331 6.0987ZM24.2831 5.0587H29.6831C30.0931 5.0587 30.1731 4.6187 29.8631 4.3987L27.3931 2.7387C27.1231 2.5587 26.8331 2.5587 26.5631 2.7387L24.1031 4.3987C23.7931 4.6187 23.8731 5.0587 24.2831 5.0587ZM12.5331 8.6787L15.1331 5.7987C15.5831 5.2887 15.5431 4.7287 15.1031 4.3787C14.6831 4.0087 14.1631 3.9887 13.6831 4.5287L10.7731 7.7787C11.4131 8.0287 12.0131 8.3387 12.5331 8.6787ZM24.0231 8.7487V12.0587C24.0231 13.0187 24.7331 13.7287 25.6931 13.7287H28.3031C29.2431 13.7287 29.9531 13.0187 29.9531 12.0587V8.7487C29.9531 7.7887 29.2431 7.0787 28.3031 7.0787H25.6931C24.7331 7.0787 24.0231 7.7887 24.0231 8.7487ZM2.1031 17.4087L10.7731 7.7787C9.9231 7.4487 8.9831 7.3187 7.9331 7.3187C4.0031 7.3187 1.7131 9.1987 1.7131 12.3587C1.7131 13.1287 1.7231 14.1387 1.8431 15.1787ZM13.7531 17.4087L14.0031 15.1787C14.1231 14.1387 14.1631 13.1287 14.1631 12.3587C14.1631 10.7987 13.6031 9.5387 12.5331 8.6987L5.6431 16.3487C6.4231 16.2287 7.1731 16.1787 7.9331 16.1787C9.8531 16.1787 11.7831 16.4287 13.7531 17.4087ZM27.0031 11.8287C26.2231 11.8287 25.5631 11.1787 25.5631 10.3887C25.5631 9.6287 26.2231 8.9987 27.0031 8.9987C27.7531 8.9987 28.4131 9.6287 28.4131 10.3887C28.4131 11.1787 27.7531 11.8287 27.0031 11.8287ZM20.1931 18.4687V21.7887C20.1931 22.7487 20.9031 23.4587 21.8631 23.4587H24.4731C25.4331 23.4587 26.1431 22.7487 26.1431 21.7887V18.4687C26.1431 17.5087 25.4331 16.8187 24.4731 16.8187H21.8631C20.9031 16.8187 20.1931 17.5087 20.1931 18.4687ZM27.8331 18.4687V21.7887C27.8331 22.7487 28.5331 23.4587 29.4931 23.4587H32.1031C33.0531 23.4587 33.7731 22.7487 33.7731 21.7887V18.4687C33.7731 17.5087 33.0531 16.8187 32.1031 16.8187H29.4931C28.5331 16.8187 27.8331 17.5087 27.8331 18.4687ZM0.4131 18.4187C-0.0669 18.7687 -0.0869 19.3487 0.1331 19.7187C0.3831 20.1087 0.8731 20.2987 1.4031 19.9887C1.7231 19.7787 2.0131 19.6087 2.3331 19.4287L2.1031 17.4087C1.4931 17.6787 0.9431 17.9887 0.4131 18.4187ZM4.5831 27.4787C5.3731 27.3687 5.9231 26.7987 5.8131 25.7987L5.2631 20.7587H10.5931L10.0531 25.7987C9.9431 26.7987 10.4631 27.3687 11.2831 27.4787C12.1031 27.5587 12.7231 27.0387 12.8231 26.0887L13.5331 19.4287C13.8531 19.6087 14.1331 19.7787 14.4331 19.9887C14.9731 20.2987 15.4531 20.1287 15.6931 19.7387C15.9431 19.3587 15.9431 18.7887 15.4331 18.4187C14.9131 17.9887 14.3731 17.6787 13.7531 17.4087L13.5231 19.4187C11.7731 18.3987 9.8131 18.0087 7.9331 18.0087C6.0431 18.0087 4.0731 18.3987 2.3331 19.4287L3.0331 26.0887C3.1331 27.0387 3.7631 27.5587 4.5831 27.4787ZM23.1831 21.5587C22.3931 21.5587 21.7531 20.9187 21.7531 20.1287C21.7531 19.3587 22.3931 18.7187 23.1831 18.7187C23.9531 18.7187 24.6131 19.3587 24.6131 20.1287C24.6131 20.9187 23.9531 21.5587 23.1831 21.5587ZM30.8031 21.5587C30.0231 21.5587 29.3631 20.9187 29.3631 20.1287C29.3631 19.3587 30.0231 18.7187 30.8031 18.7187C31.5631 18.7187 32.2231 19.3587 32.2231 20.1287C32.2231 20.9187 31.5631 21.5587 30.8031 21.5587Z" /></svg>