<svg viewBox="0 0 27.890625 27.890625" xmlns="http://www.w3.org/2000/svg"><path d="M13.9427 27.8864C21.6427 27.8864 27.8927 21.6464 27.8927 13.9464C27.8927 6.2464 21.6427 -0.0036 13.9427 -0.0036C6.2527 -0.0036 0.0027 6.2464 0.0027 13.9464C0.0027 21.6464 6.2527 27.8864 13.9427 27.8864ZM13.9427 25.5664C7.5227 25.5664 2.3227 20.3664 2.3227 13.9464C2.3227 7.5164 7.5227 2.3264 13.9427 2.3264C20.3727 2.3264 25.5627 7.5164 25.5627 13.9464C25.5627 20.3664 20.3727 25.5664 13.9427 25.5664ZM12.5127 7.7264C13.4227 7.7264 14.1627 6.9864 14.1627 6.0864C14.1627 5.1864 13.4227 4.4264 12.5127 4.4264C11.6027 4.4264 10.8727 5.1864 10.8727 6.0864C10.8727 6.9864 11.6027 7.7264 12.5127 7.7264ZM16.4427 19.7164C16.7627 19.5464 16.9627 19.1864 16.7627 18.6764L15.4227 15.3564C15.3927 15.2464 15.3127 15.1664 15.1527 15.0364L12.7127 13.2364L12.9027 10.5564C12.9327 10.4164 13.0327 10.3664 13.1827 10.4164L14.7427 10.9464C14.9027 10.9964 15.0827 11.0064 15.2627 10.9964L18.1827 10.6664C19.2227 10.5364 19.0327 9.0264 18.0027 9.1464L15.1627 9.4764L12.2627 8.5064C11.2227 8.1664 10.3127 8.7464 10.2227 9.8064L9.9927 12.4364C9.9227 13.2364 10.3527 14.0164 11.0327 14.4064L14.1227 16.1964L15.3427 19.2364C15.5427 19.7664 16.0827 19.8964 16.4427 19.7164ZM15.2427 22.1364L18.1927 21.1464C18.4327 21.0664 18.5527 20.9064 18.5527 20.6164V11.2664C18.4127 11.2964 18.3627 11.3064 18.2227 11.3164L17.6227 11.3864V20.3564L14.9527 21.2464C14.6327 21.3564 14.5627 21.6564 14.6427 21.8764C14.7227 22.0664 14.9427 22.2464 15.2427 22.1364ZM9.3927 21.0564C9.6927 21.2164 10.0727 21.1664 10.3527 20.7664L12.3427 17.7864C12.4027 17.6864 12.4527 17.5564 12.4827 17.3864L12.5627 16.0664L10.8327 15.0564L10.9327 17.1464L9.0927 19.9064C8.7527 20.3964 8.9927 20.8864 9.3927 21.0564ZM9.1327 22.8164H12.2327C12.4927 22.8164 12.7327 22.5864 12.7327 22.3564C12.7327 22.0964 12.4927 21.8864 12.2327 21.8864H9.1327C8.8727 21.8864 8.6827 22.1064 8.6827 22.3564C8.6827 22.5864 8.8727 22.8164 9.1327 22.8164Z" /></svg>