<svg viewBox="0 0 27.890625 27.890625" xmlns="http://www.w3.org/2000/svg"><path d="M13.9427 27.8864C21.6427 27.8864 27.8927 21.6464 27.8927 13.9464C27.8927 6.2464 21.6427 -0.0036 13.9427 -0.0036C6.2527 -0.0036 0.0027 6.2464 0.0027 13.9464C0.0027 21.6464 6.2527 27.8864 13.9427 27.8864ZM13.9427 25.5664C7.5227 25.5664 2.3227 20.3664 2.3227 13.9464C2.3227 7.5164 7.5227 2.3264 13.9427 2.3264C20.3727 2.3264 25.5627 7.5164 25.5627 13.9464C25.5627 20.3664 20.3727 25.5664 13.9427 25.5664ZM13.6627 7.4764C14.5727 7.4764 15.3127 6.7364 15.3127 5.8364C15.3127 4.9264 14.5727 4.1864 13.6627 4.1864C12.7527 4.1864 12.0127 4.9264 12.0127 5.8364C12.0127 6.7364 12.7527 7.4764 13.6627 7.4764ZM7.7427 13.2464C8.1227 13.3164 8.5327 13.1264 8.6427 12.6764L9.2827 9.8164H10.4227C10.5727 9.8164 10.6627 9.9364 10.6327 10.0764L9.8727 13.0064C9.5727 14.1864 10.3527 15.3664 11.8427 14.9964L14.6027 14.3164L14.0827 16.9764C14.0027 17.4064 14.2627 17.7964 14.6727 17.8964C15.0227 17.9764 15.4927 17.7464 15.5827 17.2964L16.3527 13.4364C16.4627 12.8764 15.9927 12.4364 15.5327 12.4964L13.0727 12.7464L13.7827 9.9964C13.8227 9.8864 13.9427 9.8064 14.0527 9.8564L16.8727 10.9064C17.3927 11.1064 17.9227 10.8264 17.9227 10.2764V6.7264C17.9227 6.3064 17.5727 5.9564 17.1327 5.9564C16.7027 5.9564 16.3627 6.3064 16.3627 6.7264V9.0764L14.9127 8.5264C14.4527 8.3564 13.9427 8.2564 13.4127 8.2564H8.6527C8.3027 8.2564 7.9827 8.5164 7.9027 8.8764L7.1327 12.3364C7.0427 12.7564 7.3127 13.1764 7.7427 13.2464ZM11.2127 22.5264C11.5627 22.5964 12.0127 22.3564 12.1127 21.9164L12.8927 18.0564C12.9027 17.9964 12.8927 17.9064 12.8927 17.8564V15.4264L12.0027 15.6364C11.5127 15.7464 11.2127 15.7664 11.0427 15.7064L11.3427 17.8664L10.6127 21.6064C10.5227 22.0264 10.7827 22.4464 11.2127 22.5264ZM14.1527 21.0564H18.1327C18.4027 21.0564 18.5927 20.8464 18.5927 20.6064C18.5927 20.3264 18.3927 20.1264 18.1327 20.1264H14.1527C13.9027 20.1264 13.6827 20.3164 13.6827 20.6064C13.6827 20.8464 13.9027 21.0564 14.1527 21.0564ZM13.3827 22.7464H18.8927C19.1427 22.7464 19.3627 22.5464 19.3627 22.2864C19.3627 22.0364 19.1427 21.8164 18.8927 21.8164H13.3827C13.0927 21.8164 12.9227 22.0364 12.9227 22.2864C12.9227 22.5464 13.0927 22.7464 13.3827 22.7464Z" /></svg>