<svg viewBox="0 0 22.60913266141967 33.140625" xmlns="http://www.w3.org/2000/svg"><path d="M18.2937 13.8734H22.0637C22.5137 13.8734 22.7137 13.4934 22.5537 13.0834C22.3037 12.3034 21.6937 11.7034 20.9437 11.4534V0.7534C20.9437 0.3234 20.6037 0.0034 20.1837 0.0034C19.7537 0.0034 19.4237 0.3234 19.4237 0.7534V11.4534C18.6637 11.7034 18.0637 12.3034 17.8037 13.0834C17.6537 13.4934 17.8437 13.8734 18.2937 13.8734ZM10.9337 6.7834C12.5737 6.7834 13.9137 5.4534 13.9137 3.7734C13.9137 2.1434 12.5737 0.8034 10.9337 0.8034C9.2737 0.8034 7.9437 2.1434 7.9437 3.7734C7.9437 5.4534 9.2737 6.7834 10.9337 6.7834ZM1.3937 32.9734C1.9937 33.2934 2.8737 33.1634 3.2837 32.4334L6.7237 26.2234L8.7637 21.6434C8.8037 21.5434 8.9437 21.5034 9.0237 21.5834L14.4937 25.5534V31.7434C14.4937 32.5234 15.1037 33.1434 15.8737 33.1434C16.6537 33.1434 17.2537 32.5234 17.2537 31.7434V24.9334C17.2537 24.5434 17.1437 24.1334 16.8337 23.8434L11.1337 18.4534L11.6637 14.1234C11.6737 13.9634 11.8937 13.9434 11.9537 14.0834L13.2237 17.1034C13.4437 17.6334 13.9337 17.9534 14.4937 17.9534H20.3537C21.1237 17.9534 21.7337 17.3334 21.7337 16.5734C21.7337 15.8034 21.1237 15.1934 20.3537 15.1934H15.3937L13.4237 10.5534C12.9037 9.3534 12.1437 8.6634 10.3937 8.1934L9.5937 7.9734C7.6937 7.4334 6.3937 7.3534 4.8637 8.0234L2.7637 8.9234V3.8034C2.7637 3.0534 2.1337 2.4334 1.3837 2.4334C0.6137 2.4334 0.0037 3.0534 0.0037 3.8034V11.1934C0.0037 12.1834 1.0237 12.7134 1.9237 12.3134L5.8337 10.6134C6.0137 10.5434 6.1837 10.6534 6.1537 10.8434L4.1837 25.1134L0.8437 31.1034C0.4937 31.7434 0.7237 32.6334 1.3937 32.9734Z" /></svg>