<svg viewBox="0 0 27.890625 27.890625" xmlns="http://www.w3.org/2000/svg"><path d="M13.9427 27.8864C21.6427 27.8864 27.8927 21.6264 27.8927 13.9464C27.8927 6.2464 21.6427 -0.0036 13.9427 -0.0036C6.2627 -0.0036 0.0027 6.2464 0.0027 13.9464C0.0027 21.6264 6.2627 27.8864 13.9427 27.8864ZM10.2427 17.7564L7.8027 14.8464L5.4827 17.1564C5.1827 17.4364 4.7127 17.4864 4.3427 17.1564C4.0227 16.8464 4.0227 16.3564 4.3427 16.0064L7.2327 13.1264C7.5927 12.7564 8.0927 12.7864 8.4327 13.0664L10.7727 15.0964L11.6927 13.6864C12.0327 13.1764 11.8627 13.0664 11.6927 12.8064L7.9427 7.1864C7.6927 6.8264 7.7827 6.3164 8.1627 6.0564C8.5427 5.8064 9.0327 5.9164 9.2927 6.3064L12.3327 10.8664C12.7827 11.5364 13.5327 11.8664 14.2327 11.8664C14.9027 11.8664 15.5127 11.5964 15.9027 11.0164L19.0427 6.3064C19.3027 5.9164 19.8127 5.8064 20.1827 6.0564C20.5527 6.3164 20.6627 6.8264 20.4027 7.1864L13.4627 17.5864C12.7027 18.7164 11.1727 18.8964 10.2427 17.7564ZM6.5927 6.8764C6.3427 6.8764 6.1527 6.6864 6.1527 6.4264C6.1527 6.1764 6.3427 5.9764 6.5927 5.9764H7.3327C7.1827 6.2664 7.1227 6.5864 7.1327 6.8764ZM10.4827 6.8764L10.0127 6.1664C9.9827 6.0964 9.9527 6.0564 9.9027 5.9764H18.4327C18.3927 6.0464 18.3727 6.0864 18.3327 6.1664L17.8327 6.8764ZM21.2027 6.8764C21.2327 6.5664 21.1627 6.2364 21.0127 5.9764H21.5727C21.8027 5.9764 22.0127 6.1764 22.0127 6.4264C22.0127 6.6864 21.8227 6.8764 21.5727 6.8764ZM14.2327 11.0564C13.2927 11.0564 12.5227 10.3064 12.5227 9.3664C12.5227 8.4264 13.2927 7.6564 14.2327 7.6564C15.1627 7.6564 15.9327 8.4264 15.9327 9.3664C15.9327 10.3064 15.1627 11.0564 14.2327 11.0564ZM11.8627 23.5664C11.6527 23.9264 11.1527 24.0464 10.7627 23.8064L7.4127 21.5864C7.0227 21.3464 6.9327 20.8264 7.1927 20.4564L9.1627 17.5364L9.7027 18.1964C10.0127 18.5564 10.3627 18.8264 10.7227 18.9764L9.0827 20.7664L11.6527 22.4764C12.0427 22.7264 12.1227 23.1864 11.8627 23.5664Z" /></svg>