<svg viewBox="0 0 40.26342940203161 33.06287017518445" xmlns="http://www.w3.org/2000/svg"><path d="M22.3437 9.5388C22.8337 9.5688 23.2037 9.1588 23.2037 8.6688L23.2137 4.9488H25.1137C25.9937 4.9488 26.3137 4.0588 25.7737 3.4688L22.9737 0.3288C22.5837 -0.1112 22.0837 -0.1112 21.6837 0.3288L18.9337 3.4688C18.3637 4.1188 18.7037 4.9488 19.5637 4.9488H21.4737V8.6688C21.4737 9.1588 21.8637 9.5388 22.3437 9.5388ZM3.6937 12.9888C5.7537 12.9888 7.4137 11.3388 7.4137 9.2988C7.4137 7.2288 5.7537 5.5688 3.6937 5.5688C1.6437 5.5688 0.0037 7.2288 0.0037 9.2988C0.0037 11.2788 1.6437 12.9888 3.6937 12.9888ZM28.8037 17.4888C29.2737 18.0588 30.1337 17.4288 29.6837 16.8388C29.3637 16.4088 29.2837 16.1988 29.2837 15.8488C29.2837 15.2988 29.6837 14.9888 29.9837 14.5488C30.6937 14.2688 31.5237 14.0988 32.2537 14.0588C32.3737 13.8788 32.4537 13.6988 32.4537 13.4788C32.4537 12.7188 31.4337 12.3988 31.4337 11.0788C31.4337 10.5288 31.6137 10.0088 32.0237 9.4588C32.4937 8.8888 33.3737 9.4988 32.9037 10.0988C32.5937 10.5288 32.5137 10.7588 32.5137 11.0788C32.5137 12.0088 33.5537 12.2588 33.5537 13.4788C33.5537 13.7388 33.5137 13.9488 33.4237 14.1388C34.0037 14.2188 34.5737 14.3788 35.0837 14.5888C34.8637 14.8988 34.6537 15.2888 34.6537 15.8488C34.6537 16.4088 34.8337 16.9288 35.2737 17.4888C35.7337 18.0588 36.5837 17.4288 36.1337 16.8388C35.8437 16.4088 35.7537 16.1988 35.7537 15.8488C35.7537 15.2888 36.1637 14.9688 36.4637 14.5088L40.0337 9.9688C40.3837 9.4888 40.3337 9.0088 39.8837 8.6588C38.3637 7.4888 35.5037 6.5988 32.4737 6.5988C29.4737 6.5988 26.5937 7.4888 25.0837 8.6588C24.6337 9.0088 24.5837 9.4888 24.9537 9.9688L28.6037 14.6288C28.3837 14.9288 28.2037 15.3088 28.2037 15.8488C28.2037 16.4088 28.3837 16.9288 28.8037 17.4888ZM19.7937 10.9488C19.7937 10.4888 19.4137 10.0888 18.9237 10.0888H15.2137V8.1888C15.2137 7.3288 14.3137 6.9988 13.7137 7.5488L10.5937 10.3488C10.1737 10.7188 10.1437 11.2288 10.5937 11.6088L13.7137 14.3788C14.3437 14.9588 15.2137 14.5888 15.2137 13.7388V11.8388H18.9237C19.4037 11.8388 19.7937 11.4688 19.7937 10.9488ZM28.6537 14.7088L28.6037 14.6288C28.8937 14.2088 29.2437 13.9188 29.2437 13.4788C29.2437 12.7188 28.2037 12.3988 28.2037 11.0788C28.2037 10.5288 28.3837 10.0088 28.8037 9.4588C29.2837 8.8888 30.1437 9.4988 29.6837 10.0988C29.3637 10.5288 29.2837 10.7588 29.2837 11.0788C29.2837 12.0088 30.3237 12.2588 30.3237 13.4788C30.3237 13.9488 30.1737 14.2688 29.9837 14.5488C29.7537 14.6288 29.5137 14.7388 29.3237 14.8388C29.0837 14.9688 28.8337 14.9288 28.6537 14.7088ZM35.6337 14.8388C35.4637 14.7488 35.2737 14.6688 35.0837 14.5888C35.3737 14.1888 35.6937 13.9088 35.6937 13.4788C35.6937 12.7188 34.6537 12.3988 34.6537 11.0788C34.6537 10.5288 34.8337 10.0088 35.2737 9.4588C35.7337 8.8888 36.6037 9.4988 36.1337 10.0988C35.8437 10.5288 35.7537 10.7588 35.7537 11.0788C35.7537 12.0088 36.7737 12.2588 36.7737 13.4788C36.7737 13.9188 36.6437 14.2488 36.4637 14.5088L36.3037 14.7088C36.1437 14.9288 35.8737 14.9688 35.6337 14.8388ZM22.3537 12.3688C21.8937 12.3888 21.4737 12.7688 21.4737 13.2588V16.9688H19.5637C18.7137 16.9688 18.3937 17.7988 18.9337 18.4288L21.6937 21.5988C22.0837 22.0388 22.5737 21.9988 22.9537 21.5888L25.7837 18.4588C26.3337 17.8588 26.0137 16.9688 25.1137 16.9688H23.2137V13.2588C23.2137 12.7588 22.8437 12.3688 22.3537 12.3688ZM32.0237 17.4888C32.4837 18.0588 33.3637 17.4288 32.9037 16.8388C32.5937 16.4088 32.5137 16.1988 32.5137 15.8488C32.5137 15.1488 33.1537 14.8188 33.4237 14.1388C33.1037 14.0788 32.7737 14.0588 32.4737 14.0588C32.4037 14.0588 32.3237 14.0588 32.2537 14.0588C31.9537 14.5088 31.4337 14.9288 31.4337 15.8488C31.4337 16.4088 31.6137 16.9288 32.0237 17.4888ZM25.7137 32.5488C26.3637 31.8988 26.4437 30.7988 25.5937 29.9288L19.4837 23.6088C18.1937 22.2688 16.8437 22.0788 15.2337 22.6688L11.9737 23.8588L8.1337 16.8688C6.9737 14.7288 4.9737 13.9288 3.0337 14.9888C1.0537 16.0488 0.6837 18.2088 1.8337 20.2988L4.7837 25.6788C6.0837 28.0288 8.8637 28.9988 11.8137 27.8588L16.4037 26.1288C16.7037 26.0088 16.8437 26.0588 17.0337 26.2588L22.9237 32.3388C23.7937 33.2388 25.0037 33.2888 25.7137 32.5488Z" /></svg>