<svg viewBox="0 0 26.209174523436246 27.7103271484375" xmlns="http://www.w3.org/2000/svg"><path d="M6.9639 13.8801C10.8239 13.8801 13.8339 10.6901 13.8339 6.9901C13.8339 3.1201 10.8239 0.0001 6.9639 0.0001C3.1039 0.0001 0.0039 3.1201 0.0039 6.9901C0.0039 10.6901 3.1039 13.8801 6.9639 13.8801ZM22.5139 7.6601C24.5639 7.6601 26.2139 5.9501 26.2139 3.9601C26.2139 1.9001 24.5639 0.2201 22.5139 0.2201C20.4539 0.2201 18.8039 1.9001 18.8039 3.9601C18.8039 5.9901 20.4539 7.6601 22.5139 7.6601ZM20.1439 21.8201C20.7439 21.3401 21.3139 20.5401 21.8639 19.5201L24.3739 14.9601C25.5439 12.8501 25.1539 10.7001 23.1739 9.6401C21.2439 8.5701 19.2539 9.3901 18.0739 11.5301L15.4739 16.2101ZM0.4939 27.1901C1.2039 27.9501 2.4239 27.8801 3.2939 26.9901L9.1739 20.9201C9.3839 20.7101 9.5039 20.6601 9.8039 20.7801L14.7639 22.6501C15.8439 23.0601 17.0239 22.9801 17.8839 22.8201L14.4639 18.5901L10.9739 17.3201C9.3639 16.7301 8.0239 16.9301 6.7239 18.2701L0.6139 24.5801C-0.2161 25.4601 -0.1461 26.5501 0.4939 27.1901ZM23.0939 27.3601C23.6539 26.9201 23.6939 26.2401 23.1639 25.5901L20.1439 21.8201C19.4439 22.3101 18.6739 22.6501 17.8839 22.8201L21.3739 27.1001C21.8739 27.7101 22.5139 27.8401 23.0939 27.3601Z" /></svg>