<svg viewBox="0 0 22.88381819815796 34.574516585838694" xmlns="http://www.w3.org/2000/svg"><path d="M18.8537 5.2954C20.3137 5.2954 21.4937 4.1154 21.4937 2.6554C21.4937 1.2054 20.3137 -0.0046 18.8537 -0.0046C17.3737 -0.0046 16.2037 1.2054 16.2037 2.6554C16.2037 4.1154 17.3737 5.2954 18.8537 5.2954ZM7.9037 11.1554C9.5437 11.1554 10.8937 9.8154 10.8937 8.1454C10.8937 6.5054 9.5437 5.1854 7.9037 5.1854C6.2437 5.1854 4.9237 6.5054 4.9237 8.1454C4.9237 9.8154 6.2437 11.1554 7.9037 11.1554ZM0.0037 17.8154C0.0037 18.8854 1.1037 19.3854 1.9737 18.9454L6.7537 16.5454C6.9837 16.4154 7.2437 16.5554 7.3037 16.8054L8.6937 22.3854L6.5037 27.8454H1.3537C0.6137 27.8454 0.0037 28.4554 0.0037 29.1854C0.0037 29.9254 0.6137 30.5254 1.3537 30.5254H7.3437C7.9537 30.5254 8.3437 30.2854 8.6437 29.7354L11.5537 24.3454L13.1837 28.6454L8.0137 32.1154C7.3937 32.5254 7.2237 33.3854 7.6337 33.9754C8.0437 34.5754 8.8137 34.7854 9.4837 34.3254L15.6037 30.2654C16.0637 29.9654 16.2837 29.5154 16.0737 28.6954L12.4737 14.2754C12.3837 13.9754 12.4737 13.6954 12.8137 13.5254L22.1337 8.8554C22.8037 8.5454 23.0737 7.7254 22.7337 7.0554C22.3937 6.3854 21.6037 6.1254 20.9337 6.4554L2.6937 15.5754V11.0154C2.6937 10.2854 2.1037 9.6754 1.3537 9.6754C0.6137 9.6754 0.0037 10.2854 0.0037 11.0154Z" /></svg>