<svg viewBox="0 0 41.44481504273915 27.48891105007346" xmlns="http://www.w3.org/2000/svg"><path d="M7.949 6.0987C9.599 6.0987 10.959 4.6887 10.959 3.0587C10.959 1.3787 9.599 -0.0013 7.949 -0.0013C6.239 -0.0013 4.909 1.3787 4.909 3.0587C4.909 4.7187 6.239 6.0987 7.949 6.0987ZM12.559 8.6787L15.139 5.7987C15.579 5.2887 15.549 4.7287 15.109 4.3787C14.699 4.0087 14.169 3.9887 13.689 4.5287L10.789 7.7787C11.419 8.0287 12.019 8.3387 12.559 8.6787ZM28.129 8.4787H33.529C33.939 8.4787 34.019 8.0387 33.709 7.8387L31.259 6.1487C30.969 5.9787 30.689 5.9787 30.409 6.1487L27.969 7.8387C27.649 8.0387 27.719 8.4787 28.129 8.4787ZM2.109 17.4087L10.789 7.7787C9.929 7.4487 8.999 7.3187 7.949 7.3187C4.029 7.3187 1.719 9.1987 1.719 12.3587C1.719 13.1287 1.739 14.1387 1.869 15.1787ZM13.759 17.4087L14.009 15.1787C14.129 14.1387 14.169 13.1287 14.169 12.3587C14.169 10.7987 13.609 9.5387 12.559 8.6987L5.669 16.3487C6.429 16.2287 7.179 16.1787 7.949 16.1787C9.859 16.1787 11.789 16.4287 13.759 17.4087ZM20.249 12.1687V15.4887C20.249 16.4487 20.969 17.1487 21.909 17.1487H24.529C25.479 17.1487 26.189 16.4487 26.189 15.4887V12.1687C26.189 11.2087 25.479 10.4987 24.529 10.4987H21.909C20.969 10.4987 20.249 11.2087 20.249 12.1687ZM27.879 12.1687V15.4887C27.879 16.4487 28.589 17.1487 29.549 17.1487H32.159C33.119 17.1487 33.799 16.4487 33.799 15.4887V12.1687C33.799 11.2087 33.119 10.4987 32.159 10.4987H29.549C28.589 10.4987 27.879 11.2087 27.879 12.1687ZM35.499 12.1687V15.4887C35.499 16.4487 36.209 17.1487 37.169 17.1487H39.779C40.729 17.1487 41.449 16.4487 41.449 15.4887V12.1687C41.449 11.2087 40.729 10.4987 39.779 10.4987H37.169C36.209 10.4987 35.499 11.2087 35.499 12.1687ZM23.229 15.2287C22.459 15.2287 21.799 14.6187 21.799 13.8087C21.799 13.0387 22.459 12.3987 23.229 12.3987C23.999 12.3987 24.639 13.0387 24.639 13.8087C24.639 14.6187 23.999 15.2287 23.229 15.2287ZM30.849 15.2287C30.069 15.2287 29.409 14.6187 29.409 13.8087C29.409 13.0387 30.069 12.3987 30.849 12.3987C31.619 12.3987 32.269 13.0387 32.269 13.8087C32.269 14.6187 31.619 15.2287 30.849 15.2287ZM38.479 15.2287C37.699 15.2287 37.029 14.6187 37.029 13.8087C37.029 13.0387 37.699 12.3987 38.479 12.3987C39.239 12.3987 39.889 13.0387 39.889 13.8087C39.889 14.6187 39.239 15.2287 38.479 15.2287ZM0.429 18.4187C-0.081 18.7687 -0.091 19.3487 0.159 19.7187C0.379 20.1087 0.879 20.2987 1.399 19.9887C1.729 19.7787 2.019 19.6087 2.339 19.4287L2.109 17.4087C1.499 17.6787 0.949 17.9887 0.429 18.4187ZM4.589 27.4787C5.379 27.3687 5.939 26.7987 5.819 25.7987L5.269 20.7587H10.589L10.059 25.7987C9.959 26.7987 10.479 27.3687 11.269 27.4787C12.089 27.5587 12.719 27.0387 12.829 26.0887L13.539 19.4287C13.859 19.6087 14.139 19.7787 14.459 19.9887C14.979 20.2987 15.469 20.1287 15.699 19.7387C15.949 19.3587 15.949 18.7887 15.459 18.4187C14.919 17.9887 14.379 17.6787 13.759 17.4087L13.529 19.4187C11.759 18.3987 9.819 18.0087 7.949 18.0087C6.049 18.0087 4.089 18.3987 2.339 19.4287L3.039 26.0887C3.139 27.0387 3.769 27.5587 4.589 27.4787Z" /></svg>