<svg viewBox="0 0 27.890625 27.890625" xmlns="http://www.w3.org/2000/svg"><path d="M13.9427 27.8864C21.6427 27.8864 27.8927 21.6464 27.8927 13.9464C27.8927 6.2464 21.6427 -0.0036 13.9427 -0.0036C6.2527 -0.0036 0.0027 6.2464 0.0027 13.9464C0.0027 21.6464 6.2527 27.8864 13.9427 27.8864ZM13.9427 25.5664C7.5227 25.5664 2.3227 20.3664 2.3227 13.9464C2.3227 7.5164 7.5227 2.3264 13.9427 2.3264C20.3727 2.3264 25.5627 7.5164 25.5627 13.9464C25.5627 20.3664 20.3727 25.5664 13.9427 25.5664ZM15.1227 7.2964C15.9527 7.2964 16.6427 6.6464 16.6427 5.7964C16.6427 4.9464 15.9527 4.2664 15.1227 4.2664C14.2727 4.2664 13.6027 4.9464 13.6027 5.7964C13.6027 6.6464 14.2727 7.2964 15.1227 7.2964ZM12.7427 13.4164L15.3927 14.8864L13.6827 16.3764C13.3127 16.7164 13.3127 17.1164 13.5327 17.3664C13.7627 17.6264 14.1927 17.6664 14.5627 17.3464L16.9827 15.2964C17.3127 15.0164 17.2527 14.4264 16.8527 14.1664L14.2427 12.4364L14.7627 10.6264C14.8327 10.3664 15.1227 10.3264 15.2827 10.5564L16.0527 11.6764C16.2327 11.9464 16.5527 12.0264 16.8527 11.9064L19.0727 10.9264C19.4727 10.7464 19.6027 10.4064 19.4427 10.0464C19.2727 9.6964 18.9327 9.5864 18.5427 9.7664L16.7927 10.5364L15.5727 8.8764C14.9427 8.0164 14.1627 7.6564 12.8927 7.7564L10.4227 7.9164C10.0327 7.9564 9.7727 8.2164 9.7227 8.6164L9.3927 11.0864C9.3427 11.5364 9.5327 11.8264 9.9227 11.8764C10.3227 11.9064 10.5527 11.6764 10.6227 11.2564L10.9227 9.2164L11.9227 9.1464C12.1227 9.1364 12.3627 9.2864 12.2727 9.5564L11.6927 11.5664C11.3627 12.7264 12.1227 13.0564 12.7427 13.4164ZM19.7427 19.0464L20.4827 18.9864C20.5927 18.9864 20.6327 18.9864 20.7127 18.9864L21.9127 12.0864L23.5327 11.3464C23.7727 11.2264 23.8527 10.9364 23.7727 10.7064C23.6627 10.4764 23.3827 10.3664 23.1327 10.4864L19.6227 12.1264C19.3627 12.2464 19.2727 12.5264 19.3827 12.7564C19.4827 12.9864 19.7727 13.0964 20.0127 12.9764L20.8727 12.5764ZM8.0527 19.4264C8.3127 19.6564 8.7127 19.6864 9.0827 19.3364L11.3327 17.0864C11.5127 16.9164 11.5527 16.8564 11.6727 16.5564L12.6027 14.0964L12.4127 13.9864C12.0727 13.7964 11.5827 13.4664 11.2927 12.9564L10.4327 16.0264L8.0627 18.3764C7.6927 18.7464 7.7627 19.1864 8.0527 19.4264ZM6.4127 21.3264H20.7627C21.2427 21.3264 21.6127 20.9564 21.6127 20.4764C21.6127 19.9164 21.1927 19.6164 20.6127 19.6464L6.4127 20.5364C6.1927 20.5464 6.0327 20.7164 6.0327 20.9464C6.0327 21.1464 6.1927 21.3264 6.4127 21.3264Z" /></svg>