<svg viewBox="0 0 27.890625 27.890625" xmlns="http://www.w3.org/2000/svg"><path d="M13.9427 27.8864C21.6427 27.8864 27.8927 21.6264 27.8927 13.9464C27.8927 6.2464 21.6427 -0.0036 13.9427 -0.0036C6.2627 -0.0036 0.0027 6.2464 0.0027 13.9464C0.0027 21.6264 6.2627 27.8864 13.9427 27.8864ZM13.8527 8.2164C12.8927 8.2164 12.1227 7.4464 12.1227 6.4964C12.1227 5.5464 12.8927 4.7864 13.8527 4.7864C14.7927 4.7864 15.5627 5.5464 15.5627 6.4964C15.5627 7.4464 14.7927 8.2164 13.8527 8.2164ZM8.5727 21.2164L10.8727 18.5264L11.5927 15.7364C11.2827 15.2564 11.1527 14.9064 11.1427 14.3464H10.1427C9.5127 14.3464 9.0827 13.8864 9.0827 13.2764V9.3364C9.0827 8.4364 9.6227 7.8864 10.5227 7.8864H11.3227C11.9727 7.8864 12.4527 8.3664 12.4527 8.9664C12.5627 8.9564 12.7027 8.9264 12.8227 8.9264C13.3727 8.9264 13.8327 9.1464 14.2027 9.5464L16.5827 12.1364H18.5927C19.0727 12.1364 19.4027 12.4264 19.4027 12.8664C19.4027 13.3264 19.0727 13.6164 18.5927 13.6164H16.7027C16.2327 13.6164 16.0227 13.5364 15.7327 13.2664L14.5027 12.1164L14.4127 13.3464C14.3527 14.3664 14.2727 14.9264 13.8127 15.8964L12.4327 18.8964C12.2327 19.2464 12.1527 19.4164 11.8927 19.6864L9.7327 22.2964C9.0827 23.0664 7.7927 22.1664 8.5727 21.2164ZM18.1727 11.4064V10.2364C18.1727 10.0064 18.3427 9.8464 18.5927 9.8464C18.8127 9.8464 19.0027 10.0064 19.0027 10.2364V11.4564C18.8127 11.4164 18.6927 11.4064 18.5927 11.4064ZM18.1727 22.1764V14.3564H18.5927C18.6927 14.3564 18.8427 14.3264 19.0027 14.2864V22.1764C19.0027 22.3964 18.8127 22.5864 18.5927 22.5864C18.3427 22.5864 18.1727 22.3964 18.1727 22.1764ZM13.5527 18.2264L14.3527 16.5064L14.9527 17.3364C15.1227 17.5664 15.3027 17.8464 15.4227 18.1164L17.0227 21.3264C17.5727 22.4264 16.0327 23.0964 15.5127 22.0564L13.9027 18.7464C13.8227 18.5964 13.7427 18.4664 13.5527 18.2264Z" /></svg>