<svg viewBox="0 0 23.972632052133058 27.802758735638854" xmlns="http://www.w3.org/2000/svg"><path d="M12.9487 26.8287H20.8987C22.9087 26.8287 23.9687 25.7287 23.9687 23.5687V14.1487C23.9687 12.2487 23.1387 11.1787 21.5787 10.9687V7.6387C21.5787 2.4987 18.2187 -0.0013 14.6387 -0.0013C11.3987 -0.0013 8.3487 2.0487 7.7887 6.2487C8.6187 6.4087 9.3487 6.8387 9.8887 7.4487C9.9587 3.8187 12.1487 2.0687 14.6387 2.0687C17.1887 2.0687 19.4187 3.8987 19.4187 7.3387V10.9087H11.0487C10.9887 11.3087 10.8587 11.6887 10.6787 12.0487L13.8987 13.3687C15.4387 13.9987 16.1087 15.5087 15.6987 16.8887C15.2487 18.4187 13.6187 19.2887 11.8687 18.6187L11.2887 18.3887C11.2887 18.9387 11.2887 19.3587 11.3487 19.6987L12.8487 25.8687C12.9287 26.1987 12.9687 26.5187 12.9487 26.8287ZM6.9787 12.5387C8.2487 12.5387 9.2387 11.5387 9.2387 10.2987C9.2387 9.0487 8.2487 8.0387 6.9787 8.0387C5.7487 8.0387 4.7187 9.0487 4.7187 10.2987C4.7187 11.5387 5.7487 12.5387 6.9787 12.5387ZM6.9787 20.5787C7.2687 20.5787 7.5087 20.7587 7.6087 21.0987L9.1387 27.0187C9.4787 28.3287 11.2887 27.8587 11.1087 26.6187C11.0087 26.1287 9.6987 21.1187 9.5087 19.9987C9.3687 19.1787 9.4387 17.0887 9.4387 16.1487C9.4387 15.8887 9.6687 15.7087 9.9487 15.8287L12.5587 16.8887C13.2687 17.1687 13.7587 16.8287 13.8987 16.3687C14.0487 15.8987 13.8387 15.3487 13.1887 15.0987L10.3787 13.9287C9.7087 13.6587 9.1387 13.5187 8.4787 13.4287C8.0187 13.6487 7.5287 13.7787 6.9787 13.7787C6.4187 13.7787 5.9287 13.6487 5.4587 13.4287C4.8087 13.5187 4.2187 13.6587 3.5587 13.9287L0.7587 15.0987C0.0987 15.3487 -0.1013 15.8987 0.0487 16.3687C0.1787 16.8287 0.6787 17.1687 1.3887 16.8887L3.9987 15.8287C4.2687 15.7087 4.5087 15.8887 4.5087 16.1487C4.5087 17.0887 4.5687 19.1787 4.4387 19.9987C4.2487 21.1187 2.9287 26.1287 2.8387 26.6187C2.6587 27.8587 4.4587 28.3287 4.8087 27.0187L6.3387 21.0987C6.4287 20.7587 6.6787 20.5787 6.9787 20.5787Z" /></svg>