<svg viewBox="0 0 33.007193749329 30.8984375" xmlns="http://www.w3.org/2000/svg"><path d="M13.4837 5.5003C15.0137 5.5003 16.2437 4.2803 16.2437 2.7603C16.2437 1.2203 15.0137 0.0003 13.4837 0.0003C11.9637 0.0003 10.7337 1.2203 10.7337 2.7603C10.7337 4.2803 11.9637 5.5003 13.4837 5.5003ZM15.9737 26.0903C16.7437 27.6703 19.0537 26.7003 18.2237 24.9903L16.0237 20.5103C15.8337 20.1103 15.5537 19.6903 15.3137 19.3503L13.6837 17.0303L13.7937 16.6903C14.2237 15.3903 14.4137 14.6003 14.4937 13.3203L14.7337 9.6803C14.8637 7.9403 13.8537 6.6303 12.0737 6.6303C10.7437 6.6303 9.8437 7.3003 8.6137 8.5203L6.7037 10.4003C6.0737 11.0203 5.8837 11.5303 5.8137 12.3303L5.5737 15.3103C5.5137 16.0803 5.9337 16.5803 6.6137 16.6203C7.3237 16.6803 7.7537 16.2603 7.8237 15.4603L8.0937 12.1903L9.0337 11.3603C9.3637 11.0703 9.8037 11.2503 9.7937 11.5903L9.5837 14.3603C9.4737 15.7603 9.8037 16.4303 10.7437 17.6203L13.3137 20.8203C13.5637 21.1403 13.5937 21.2703 13.7037 21.4803ZM20.7237 11.5503H17.8137L15.9937 9.5403L15.7637 12.5603L16.4837 13.2903C16.8937 13.7003 17.2537 13.8203 18.0037 13.8203H20.7237C21.4937 13.8203 21.9937 13.3803 21.9937 12.6903C21.9937 11.9903 21.4737 11.5503 20.7237 11.5503ZM25.8637 26.6203L27.1137 26.5403C27.2437 26.5403 27.3137 26.5203 27.4137 26.5403L29.5837 14.0803L32.5637 12.7003C32.9537 12.5103 33.1137 12.0603 32.9337 11.6603C32.7737 11.3103 32.3237 11.1403 31.9137 11.3303L25.5437 14.3003C25.1537 14.4903 24.9737 14.9403 25.1737 15.3303C25.3237 15.6803 25.7837 15.8603 26.1937 15.6703L27.9337 14.8603ZM7.0137 27.3003L10.9137 22.6803C11.2837 22.2403 11.3237 22.1503 11.4737 21.6703L11.7137 20.9303L9.6937 18.4203L9.1237 21.1403L5.2737 25.6503C4.0837 27.0703 6.0137 28.4603 7.0137 27.3003ZM0.7137 30.9003H27.6137C28.4637 30.9003 29.1337 30.2303 29.1337 29.3503C29.1337 28.3603 28.3737 27.7903 27.3137 27.8603L0.7137 29.4503C0.3137 29.4903 0.0037 29.7803 0.0037 30.1903C0.0037 30.5803 0.3137 30.9003 0.7137 30.9003Z" /></svg>