<svg viewBox="0 0 25.59375 24.431640625" xmlns="http://www.w3.org/2000/svg"><path d="M8.4337 5.9737C10.1037 5.9737 11.4337 4.6337 11.4337 2.9838C11.4337 1.3238 10.1037 0.0038 8.4337 0.0038C6.7837 0.0038 5.4537 1.3238 5.4537 2.9838C5.4537 4.6337 6.7837 5.9737 8.4337 5.9737ZM1.2037 16.3638C0.6037 18.6238 2.0337 20.0538 3.8037 20.0538C4.3637 20.0538 4.9537 19.9237 5.5237 19.6037L12.9437 15.6538L21.1637 19.7738C22.1637 20.2638 22.9737 19.8638 23.2837 19.2238C23.5837 18.5938 23.3937 17.7338 22.4337 17.2538L13.8337 12.9338C13.2737 12.6438 12.6637 12.6238 12.0737 12.8837L6.5237 15.2838L7.6437 11.3738C7.8437 10.7038 8.4637 10.2137 9.1737 10.2137H20.2337C21.0137 10.2137 21.6437 9.5838 21.6437 8.8038C21.6437 8.0438 21.0137 7.3938 20.2337 7.3938H8.1437C5.4137 7.3938 3.1837 8.9637 2.5537 11.3338ZM0.7637 24.4338H24.8237C25.2537 24.4338 25.5937 24.1037 25.5937 23.6838C25.5937 23.2538 25.2537 22.9138 24.8237 22.9138H0.7637C0.3237 22.9138 0.0037 23.2538 0.0037 23.6838C0.0037 24.1037 0.3237 24.4338 0.7637 24.4338Z" /></svg>