<svg viewBox="0 0 27.890625 27.890625" xmlns="http://www.w3.org/2000/svg"><path d="M13.9427 27.8864C21.6427 27.8864 27.8927 21.6464 27.8927 13.9464C27.8927 6.2464 21.6427 -0.0036 13.9427 -0.0036C6.2527 -0.0036 0.0027 6.2464 0.0027 13.9464C0.0027 21.6464 6.2527 27.8864 13.9427 27.8864ZM13.9427 25.5664C7.5227 25.5664 2.3227 20.3664 2.3227 13.9464C2.3227 7.5164 7.5227 2.3264 13.9427 2.3264C20.3727 2.3264 25.5627 7.5164 25.5627 13.9464C25.5627 20.3664 20.3727 25.5664 13.9427 25.5664ZM18.6927 10.1064C19.5927 10.1064 20.3327 9.3664 20.3327 8.4664C20.3327 7.5364 19.5927 6.8064 18.6927 6.8064C17.7627 6.8064 17.0327 7.5364 17.0327 8.4664C17.0327 9.3664 17.7627 10.1064 18.6927 10.1064ZM13.4527 20.2464C13.9027 20.2464 14.2627 19.8764 14.2627 19.4364V15.9264C14.2627 15.5964 14.0927 15.3664 13.9027 15.1664L11.5627 12.8264L14.3927 12.0964C14.5327 12.0764 14.6527 12.1664 14.6527 12.3164V13.8364C14.6527 14.0264 14.7427 14.2364 14.9027 14.3964L17.2927 16.8064C17.6127 17.1164 18.1327 17.1164 18.4427 16.8064C18.7627 16.4864 18.7627 15.9664 18.4427 15.6564L16.2727 13.4964V11.9664L17.4727 13.3464C17.6227 13.5264 17.8527 13.6164 18.0727 13.6164H21.6827C22.1327 13.6164 22.4927 13.2764 22.4927 12.8264C22.4927 12.3564 22.1327 12.0164 21.6827 12.0164H18.4427L16.5327 9.8064C15.9327 9.1164 15.0027 8.8464 14.1227 9.0664L10.0127 10.1064C8.3927 10.4964 8.1227 12.5064 9.3927 13.5464L12.6427 16.1964V19.4364C12.6427 19.8764 13.0127 20.2464 13.4527 20.2464ZM6.4627 20.0164C6.7827 20.3164 7.3027 20.3164 7.6027 20.0164L10.4027 17.2164C10.5527 17.0664 10.5927 16.9264 10.6527 16.6764L10.8427 15.5764L9.0527 14.1064V16.3064L6.4627 18.8664C6.1527 19.1864 6.1527 19.6964 6.4627 20.0164Z" /></svg>