<svg viewBox="0 0 27.890625 27.890625" xmlns="http://www.w3.org/2000/svg"><path d="M13.9427 27.8864C21.6427 27.8864 27.8927 21.6464 27.8927 13.9464C27.8927 6.2464 21.6427 -0.0036 13.9427 -0.0036C6.2527 -0.0036 0.0027 6.2464 0.0027 13.9464C0.0027 21.6464 6.2527 27.8864 13.9427 27.8864ZM13.9427 25.5664C7.5227 25.5664 2.3227 20.3664 2.3227 13.9464C2.3227 7.5164 7.5227 2.3264 13.9427 2.3264C20.3727 2.3264 25.5627 7.5164 25.5627 13.9464C25.5627 20.3664 20.3727 25.5664 13.9427 25.5664ZM16.0227 9.2864C16.9427 9.2864 17.6827 8.5264 17.6827 7.6264C17.6827 6.7364 16.9427 5.9864 16.0227 5.9864C15.1227 5.9864 14.3827 6.7364 14.3827 7.6264C14.3827 8.5264 15.1227 9.2864 16.0227 9.2864ZM8.0427 6.2464C7.2627 6.2464 6.6327 6.8764 6.6327 7.6864C6.6327 8.2764 7.0427 8.9564 7.6127 9.2864V9.8964H7.3927C6.9727 9.8964 6.6327 10.2364 6.6327 10.6664C6.6327 11.0764 6.9727 11.4164 7.3927 11.4164H12.5327C12.7727 11.4164 12.9727 11.5964 12.8627 11.8964L11.9727 14.5364C11.6527 15.4864 12.1127 16.4764 13.0127 16.8664L16.0827 18.2264L17.1427 21.8464C17.3127 22.3664 17.7727 22.5064 18.1427 22.3664C18.4727 22.2264 18.7127 21.8864 18.5927 21.4364L17.4627 17.4564C17.4027 17.2664 17.2927 17.1264 17.1127 17.0264L14.7427 15.6264L15.8627 12.2664C15.9427 12.0064 16.2327 11.9764 16.4227 12.1664L18.0927 13.8364C18.2427 13.9864 18.4127 14.0664 18.6227 14.0664C18.8127 14.0664 19.0127 13.9964 19.1727 13.8364L21.4327 11.5664C21.7427 11.2664 21.7527 10.7964 21.4327 10.4964C21.1327 10.1964 20.6827 10.1864 20.3727 10.4964L18.6227 12.2464L17.1627 10.7364C16.5027 10.0364 15.7927 9.8964 14.3827 9.8964H8.4727V9.2864C9.0627 8.9364 9.4727 8.2764 9.4727 7.6864C9.4727 6.8764 8.8427 6.2464 8.0427 6.2464ZM18.9927 15.8164H23.4327V14.8764H18.9927C18.7427 14.8764 18.5227 15.1064 18.5227 15.3364C18.5227 15.5964 18.7427 15.8164 18.9927 15.8164ZM8.5127 22.0964C8.7227 22.3764 9.1027 22.5464 9.5327 22.3164L12.9027 20.4264C13.0827 20.3464 13.2027 20.1964 13.2727 19.9864L13.9327 18.0064L12.7527 17.4864C12.4827 17.3664 12.3627 17.2964 12.3327 17.2564L11.8927 19.2664L8.7927 20.9864C8.3127 21.2464 8.2827 21.7664 8.5127 22.0964Z" /></svg>