<svg viewBox="0 0 19.345689048198395 31.22344717191489" xmlns="http://www.w3.org/2000/svg"><path d="M9.6637 6.0178C11.3337 6.0178 12.6737 4.6778 12.6737 3.0078C12.6737 1.3378 11.3337 -0.0022 9.6637 -0.0022C7.9937 -0.0022 6.6537 1.3378 6.6537 3.0078C6.6537 4.6778 7.9937 6.0178 9.6637 6.0178ZM12.9237 30.2978C13.7937 32.0978 16.4437 30.9978 15.4937 29.0478L12.5637 23.1178C12.3437 22.6678 12.0137 22.1878 11.7537 21.8078L9.8837 19.1578L10.0237 18.7678C10.5437 17.2978 10.7037 16.3878 10.8137 14.9178L11.1037 10.7778C11.2537 8.8078 10.0937 7.2978 8.0637 7.2978C6.5537 7.2978 5.5237 8.0678 4.1337 9.4378L1.9437 11.5978C1.2137 12.3078 0.9837 12.8778 0.9137 13.8078L0.6537 17.1978C0.5837 18.0478 1.0637 18.6578 1.8637 18.6878C2.6537 18.7478 3.1337 18.2778 3.2237 17.3678L3.5437 13.6478L4.5937 12.6878C4.9737 12.3478 5.4837 12.5778 5.4537 12.9578L5.2137 16.1178C5.0837 17.7078 5.4737 18.4578 6.5637 19.8278L9.4637 23.4778C9.7637 23.8478 9.7937 23.9978 9.9137 24.2178ZM17.9137 12.9178H14.5837L12.4237 10.5178L12.2137 13.9978L13.0937 14.8778C13.5637 15.3578 13.9737 15.4878 14.8237 15.4878H17.9137C18.7737 15.4878 19.3437 14.9978 19.3437 14.1878C19.3437 13.4278 18.7537 12.9178 17.9137 12.9178ZM2.4237 30.7178L6.7237 25.5978C7.1537 25.0978 7.2037 24.9678 7.3837 24.4478L7.7237 23.3878L5.4137 20.4978L4.6937 23.8178L0.4337 28.8578C-0.9463 30.4778 1.2837 32.0578 2.4237 30.7178Z" /></svg>