<svg viewBox="0 0 27.890625 27.890625" xmlns="http://www.w3.org/2000/svg"><path d="M13.9427 27.8864C21.6427 27.8864 27.8927 21.6264 27.8927 13.9464C27.8927 6.2464 21.6427 -0.0036 13.9427 -0.0036C6.2627 -0.0036 0.0027 6.2464 0.0027 13.9464C0.0027 21.6264 6.2627 27.8864 13.9427 27.8864ZM10.2127 9.5164C9.3927 9.5164 8.7227 8.8564 8.7227 8.0264C8.7227 7.2164 9.3927 6.5664 10.2127 6.5664C11.0627 6.5664 11.7027 7.2164 11.7027 8.0264C11.7027 8.8564 11.0427 9.5164 10.2127 9.5164ZM17.6327 9.5164C16.8127 9.5164 16.1627 8.8564 16.1627 8.0264C16.1627 7.2164 16.8027 6.5664 17.6327 6.5664C18.4527 6.5664 19.1427 7.2164 19.1427 8.0264C19.1427 8.8464 18.4527 9.5164 17.6327 9.5164ZM13.9327 11.4264C13.4027 11.4164 12.7827 11.4564 12.4127 11.5264C12.0327 11.5964 11.8827 11.7864 11.8627 12.1964C11.8527 12.6964 11.8527 14.5564 11.9727 15.3764C12.1127 16.2264 13.0727 20.2364 13.1127 20.3964C13.2627 20.8464 12.9627 21.2564 12.4927 21.2564C12.1227 21.2564 11.8927 21.0564 11.8127 20.6564C11.6327 19.8264 10.9127 17.0364 10.7227 16.3964C10.5727 15.9164 10.4427 15.7764 10.2127 15.7764C10.0127 15.7764 9.9127 15.9164 9.7627 16.4164C9.5127 17.0464 8.8627 19.8364 8.6427 20.6564C8.5027 21.0664 8.3027 21.2564 7.9327 21.2564C7.4827 21.2564 7.1827 20.8364 7.3027 20.3864C7.3527 20.2364 8.3127 16.2264 8.4627 15.3764C8.6027 14.5564 8.6027 12.6964 8.6027 12.1564C8.6027 11.7964 8.4227 11.5664 8.1327 11.4964C7.8327 11.4264 5.3227 11.1264 4.9527 11.0364C4.6527 10.9964 4.4427 10.7064 4.4427 10.3464C4.4427 9.9664 4.7127 9.6764 5.0427 9.6764C5.1727 9.6764 5.2727 9.7064 5.3627 9.7364C6.4427 9.9364 8.6527 10.0864 10.2127 10.1764C11.5527 10.1964 13.0427 10.2364 13.9727 10.2364C14.8727 10.2364 16.3427 10.1964 17.6327 10.1764C19.2227 10.0664 21.4127 9.9164 22.4727 9.7364C22.5827 9.7064 22.6927 9.6764 22.8227 9.6764C23.1327 9.6764 23.4327 9.9764 23.4327 10.3464C23.4327 10.6764 23.2427 10.9364 22.9327 11.0364C22.5627 11.1664 20.0327 11.4164 19.7127 11.4964C19.4327 11.5664 19.2727 11.8164 19.2727 12.1564C19.2727 12.6964 19.2627 14.5564 19.3827 15.3764C19.5227 16.2264 20.4827 20.2364 20.5327 20.3964C20.6627 20.8364 20.3727 21.2564 19.9227 21.2564C19.5527 21.2564 19.3327 21.0664 19.2227 20.6564C19.0327 19.8264 18.3427 17.0364 18.1127 16.4164C17.9627 15.9164 17.8527 15.7764 17.6327 15.7764C17.4327 15.7764 17.3327 15.8964 17.1627 16.4164C16.9427 17.0464 16.2727 19.8364 16.0627 20.6564C15.9527 21.0564 15.7127 21.2564 15.3527 21.2564C14.8927 21.2564 14.5927 20.8464 14.7427 20.3864C14.7927 20.2364 15.7327 16.2264 15.8827 15.3764C16.0127 14.5564 16.0327 12.6964 16.0127 12.1964C15.9927 11.7864 15.8327 11.5964 15.4527 11.5264C15.1527 11.4664 14.6327 11.4264 13.9327 11.4264Z" /></svg>