<svg viewBox="0 0 27.890625 27.890625" xmlns="http://www.w3.org/2000/svg"><path d="M13.9427 27.8864C21.6427 27.8864 27.8927 21.6264 27.8927 13.9464C27.8927 6.2464 21.6427 -0.0036 13.9427 -0.0036C6.2627 -0.0036 0.0027 6.2464 0.0027 13.9464C0.0027 21.6264 6.2627 27.8864 13.9427 27.8864ZM5.8427 7.2464C5.8427 6.0964 6.7227 5.1664 7.8727 5.1664C9.0227 5.1664 9.9127 6.0964 9.9127 7.2464C9.9127 8.1464 9.2527 9.1364 8.3127 9.6564V11.0364C8.4527 11.0464 8.5827 11.0764 8.7327 11.1964L10.5227 12.6364L14.9727 10.7764C15.3527 10.5964 15.6127 10.3764 15.7927 10.0264L18.1127 5.3864C18.3027 5.0064 18.7827 4.8564 19.1727 5.0464C19.5627 5.2464 19.7127 5.7164 19.5127 6.1064L17.1627 10.8164C17.0127 11.1464 16.9527 11.4564 17.0227 11.7964L17.6227 15.0764L20.6827 17.5964C20.8927 17.7564 21.0227 17.9964 21.0227 18.2664V22.0664C21.0227 22.4864 20.6827 22.8564 20.2527 22.8564C19.8127 22.8564 19.4527 22.4864 19.4527 22.0664V18.6864L17.0927 17.1064C16.8327 16.9164 16.4627 17.1164 16.4927 17.4564L16.6927 20.5264C16.7027 20.8664 16.5527 21.2164 16.2027 21.3564L12.2527 22.9264C11.8827 23.0664 11.4127 22.9564 11.2227 22.5064C11.0727 22.0964 11.2827 21.6264 11.6727 21.4664L15.0227 20.1364L13.8227 13.4764C13.7827 13.2364 13.5927 13.0664 13.2627 13.2064L10.8127 14.2064C10.4827 14.3564 10.1827 14.3864 9.9127 14.1664L7.7127 12.4164C7.5227 12.2464 7.4327 12.0464 7.4327 11.7764V9.6564C6.5127 9.1464 5.8427 8.1664 5.8427 7.2464ZM6.7127 7.2564C6.7127 7.9264 7.1927 8.6364 7.8727 8.8864C8.5627 8.6364 9.0327 7.9264 9.0327 7.2564C9.0327 6.5764 8.5327 6.0664 7.8727 6.0664C7.2227 6.0664 6.7127 6.5764 6.7127 7.2564ZM13.3727 10.3864C12.4327 10.3864 11.6627 9.6264 11.6627 8.6964C11.6627 7.7564 12.4327 6.9864 13.3727 6.9864C14.3027 6.9864 15.0627 7.7564 15.0627 8.6964C15.0627 9.6264 14.3027 10.3864 13.3727 10.3864Z" /></svg>