<svg viewBox="0 0 26.837534200393762 32.8125" xmlns="http://www.w3.org/2000/svg"><path d="M12.7133 5.961C14.3533 5.961 15.6833 4.631 15.6833 2.971C15.6833 1.331 14.3533 0.001 12.7133 0.001C11.0433 0.001 9.7233 1.331 9.7233 2.971C9.7233 4.631 11.0433 5.961 12.7133 5.961ZM0.4933 32.461C1.0633 32.951 1.9533 32.921 2.4833 32.321L7.3533 26.751C7.6133 26.451 7.7633 26.131 7.8033 25.741L8.4233 19.751C8.4333 19.551 8.6533 19.471 8.7933 19.631L12.7133 24.161V31.391C12.7133 32.171 13.3433 32.811 14.1333 32.811C14.9033 32.811 15.5533 32.171 15.5533 31.391V23.691C15.5533 23.311 15.4333 23.051 15.2533 22.791L11.1033 16.721L13.1233 10.681C13.2333 10.351 13.4533 10.231 13.7833 10.231H22.6833C22.9833 11.061 23.7733 11.661 24.7233 11.661C25.8833 11.661 26.8333 10.701 26.8333 9.511C26.8333 8.351 25.8833 7.401 24.7233 7.401H8.2433C7.0933 7.401 6.1633 7.721 5.2333 8.641L2.5433 11.361C1.6433 12.281 2.1333 13.771 3.3733 13.771H5.9233L5.3733 15.391C5.0833 16.271 4.9533 17.171 4.9533 18.061V25.221L0.3533 30.461C-0.1667 31.051 -0.1067 31.941 0.4933 32.461Z" /></svg>