<svg viewBox="0 0 23.98046875 31.732421875" xmlns="http://www.w3.org/2000/svg"><path d="M5.3637 1.7668H18.6237C18.5437 0.5968 17.8737 -0.0032 16.6137 -0.0032H7.3537C6.0937 -0.0032 5.4437 0.5968 5.3637 1.7668ZM2.9837 5.5468H20.9837C20.7837 4.3068 20.1937 3.6268 18.8237 3.6268H5.1437C3.7737 3.6268 3.1837 4.3068 2.9837 5.5468ZM4.2937 31.7368H20.0937C22.5437 31.7368 23.9837 30.3068 23.9837 27.4968V11.9868C23.9837 9.1768 22.5337 7.7568 19.6837 7.7568H4.2937C1.4337 7.7568 0.0037 9.1568 0.0037 11.9868V27.4968C0.0037 30.3068 1.4337 31.7368 4.2937 31.7368ZM4.3237 29.5268C2.9537 29.5268 2.2037 28.7968 2.2037 27.3668V12.0968C2.2037 10.6868 2.9537 9.9568 4.3237 9.9568H19.6437C21.0037 9.9568 21.7837 10.6868 21.7837 12.0968V27.3668C21.7837 28.7968 21.0037 29.5268 20.0537 29.5268ZM13.9837 14.9568C14.8637 14.9568 15.5537 14.2468 15.5537 13.3868C15.5537 12.5268 14.8637 11.8268 13.9837 11.8268C13.1237 11.8268 12.4237 12.5268 12.4237 13.3868C12.4237 14.2468 13.1237 14.9568 13.9837 14.9568ZM11.5437 21.1868L14.2737 22.7368L12.5137 24.2568C12.1437 24.5668 12.1437 24.9968 12.3737 25.2568C12.6037 25.5268 13.0337 25.5768 13.4237 25.2568L15.9037 23.1468C16.2437 22.8468 16.1737 22.2468 15.7737 21.9668L13.0837 20.2068L13.6137 18.3468C13.6837 18.0868 14.0037 18.0468 14.1537 18.2768L14.9437 19.4368C15.1237 19.6968 15.4737 19.7968 15.7737 19.6768L18.0437 18.6468C18.4437 18.4668 18.5937 18.1168 18.4337 17.7568C18.2537 17.4068 17.9137 17.2768 17.5037 17.4568L15.6937 18.2668L14.4637 16.5468C13.8237 15.6668 13.0137 15.3168 11.7037 15.4068L9.1737 15.5768C8.7737 15.5968 8.5037 15.8568 8.4537 16.2868L8.1037 18.8368C8.0537 19.2768 8.2737 19.5868 8.6637 19.6368C9.0537 19.6768 9.3137 19.4368 9.3837 18.9868L9.6837 16.8968L10.7037 16.8268C10.9237 16.8168 11.1437 16.9668 11.0637 17.2368L10.4837 19.2868C10.1337 20.5168 10.9237 20.8468 11.5437 21.1868ZM6.7437 27.3868C7.0137 27.6168 7.4137 27.6468 7.7837 27.2868L10.1037 24.9768C10.2937 24.7868 10.3537 24.7468 10.4637 24.4468L11.4837 21.8868L11.2237 21.7368C10.7337 21.4668 10.3037 21.1868 10.0537 20.8268L9.1737 23.8968L6.7437 26.2868C6.3737 26.6568 6.4537 27.1268 6.7437 27.3868Z" /></svg>