<svg viewBox="0 0 31.824516297266875 27.48891105007346" xmlns="http://www.w3.org/2000/svg"><path d="M7.9301 6.0987C9.6101 6.0987 10.9301 4.6887 10.9301 3.0587C10.9301 1.3787 9.6101 -0.0013 7.9301 -0.0013C6.2301 -0.0013 4.9001 1.3787 4.9001 3.0587C4.9001 4.7187 6.2301 6.0987 7.9301 6.0987ZM23.1701 3.7887H28.5801C28.9901 3.7887 29.0601 3.3487 28.7501 3.1287L26.3001 1.4587C26.0301 1.2887 25.7401 1.2887 25.4501 1.4587L23.0101 3.1287C22.6901 3.3487 22.7701 3.7887 23.1701 3.7887ZM12.5301 8.6787L15.1201 5.7987C15.5801 5.2887 15.5401 4.7287 15.0901 4.3787C14.6801 4.0087 14.1501 3.9887 13.6801 4.5287L10.7701 7.7787C11.4101 8.0287 12.0101 8.3387 12.5301 8.6787ZM20.1901 6.9587V9.9687C20.1901 10.7887 20.8001 11.3887 21.6301 11.3887H23.8501C24.6901 11.3887 25.3001 10.7887 25.3001 9.9687V6.9587C25.3001 6.1387 24.6901 5.5187 23.8501 5.5187H21.6301C20.8001 5.5187 20.1901 6.1387 20.1901 6.9587ZM26.7201 6.9587V9.9687C26.7201 10.7887 27.3301 11.3887 28.1601 11.3887H30.3901C31.2401 11.3887 31.8201 10.7887 31.8201 9.9687V6.9587C31.8201 6.1387 31.2401 5.5187 30.3901 5.5187H28.1601C27.3301 5.5187 26.7201 6.1387 26.7201 6.9587ZM2.1001 17.4087L10.7701 7.7787C9.9201 7.4487 8.9801 7.3187 7.9301 7.3187C4.0001 7.3187 1.7101 9.1987 1.7101 12.3587C1.7101 13.1287 1.7201 14.1387 1.8401 15.1787ZM13.7401 17.4087L14.0001 15.1787C14.1101 14.1387 14.1501 13.1287 14.1501 12.3587C14.1501 10.7987 13.6001 9.5387 12.5301 8.6987L5.6401 16.3487C6.4201 16.2287 7.1601 16.1787 7.9301 16.1787C9.8501 16.1787 11.7801 16.4287 13.7401 17.4087ZM20.1901 14.7887V17.7987C20.1901 18.6187 20.8001 19.2087 21.6401 19.2087H23.8701C24.7201 19.2087 25.3001 18.6187 25.3001 17.7987V14.7887C25.3001 13.9687 24.7201 13.3587 23.8701 13.3587H21.6401C20.8001 13.3587 20.1901 13.9687 20.1901 14.7887ZM26.7201 14.7887V17.7987C26.7201 18.6187 27.3301 19.2087 28.1601 19.2087H30.3901C31.2201 19.2087 31.8101 18.6187 31.8101 17.7987V14.7887C31.8101 13.9687 31.2201 13.3587 30.3901 13.3587H28.1601C27.3301 13.3587 26.7201 13.9687 26.7201 14.7887ZM0.4101 18.4187C-0.0699 18.7687 -0.0899 19.3487 0.1501 19.7187C0.3801 20.1087 0.8601 20.2987 1.4001 19.9887C1.7201 19.7787 1.9901 19.6087 2.3201 19.4287L2.1001 17.4087C1.4901 17.6787 0.9301 17.9887 0.4101 18.4187ZM4.5801 27.4787C5.3801 27.3687 5.9001 26.7987 5.8101 25.7987L5.2601 20.7587H10.5801L10.0501 25.7987C9.9401 26.7987 10.4601 27.3687 11.2601 27.4787C12.1001 27.5587 12.7101 27.0387 12.8201 26.0887L13.5301 19.4287C13.8501 19.6087 14.1201 19.7787 14.4501 19.9887C14.9701 20.2987 15.4501 20.1287 15.6901 19.7387C15.9401 19.3587 15.9401 18.7887 15.4301 18.4187C14.9101 17.9887 14.3701 17.6787 13.7401 17.4087L13.5201 19.4187C11.7701 18.3987 9.8001 18.0087 7.9301 18.0087C6.0401 18.0087 4.0701 18.3987 2.3201 19.4287L3.0201 26.0887C3.1301 27.0387 3.7401 27.5587 4.5801 27.4787ZM20.1901 22.5987V25.6087C20.1901 26.4287 20.8001 27.0287 21.6301 27.0287H23.8501C24.6901 27.0287 25.3001 26.4287 25.3001 25.6087V22.5987C25.3001 21.7787 24.6901 21.1787 23.8501 21.1787H21.6301C20.8001 21.1787 20.1901 21.7787 20.1901 22.5987ZM26.7201 22.5987V25.6087C26.7201 26.4287 27.3301 27.0287 28.1601 27.0287H30.3901C31.2401 27.0287 31.8201 26.4287 31.8201 25.6087V22.5987C31.8201 21.7787 31.2401 21.1787 30.3901 21.1787H28.1601C27.3301 21.1787 26.7201 21.7787 26.7201 22.5987Z" /></svg>