<svg viewBox="0 0 27.890625 27.890625" xmlns="http://www.w3.org/2000/svg"><path d="M13.9427 27.8864C21.6427 27.8864 27.8927 21.6264 27.8927 13.9464C27.8927 6.2464 21.6427 -0.0036 13.9427 -0.0036C6.2627 -0.0036 0.0027 6.2464 0.0027 13.9464C0.0027 21.6264 6.2627 27.8864 13.9427 27.8864ZM14.6327 8.1164C13.6727 8.1164 12.8927 7.3464 12.8927 6.3964C12.8927 5.4564 13.6727 4.6864 14.6327 4.6864C15.5627 4.6864 16.3427 5.4564 16.3427 6.3964C16.3427 7.3464 15.5627 8.1164 14.6327 8.1164ZM16.4627 21.9564L14.7527 18.4864C14.6827 18.3464 14.6727 18.2564 14.5027 18.0564L12.8527 15.9864C12.2327 15.2164 12.0127 14.7664 12.0827 13.8764L12.2227 12.0864C12.2327 11.8364 11.9527 11.7264 11.7327 11.9264L11.1327 12.4364L10.9527 14.5764C10.8927 15.0964 10.6227 15.3664 10.1727 15.3264C9.7227 15.3164 9.4627 14.9664 9.5027 14.4964L9.6427 12.5464C9.6827 12.0464 9.8027 11.7064 10.2127 11.2964L11.4527 10.0664C12.2627 9.2864 12.8427 8.8464 13.7027 8.8464C14.8627 8.8464 15.5127 9.6964 15.4327 10.8464L15.2727 13.1764C15.2127 14.0264 15.1227 14.5364 14.8227 15.3764L14.7427 15.5864L15.8227 17.1164C15.9727 17.3264 16.1327 17.6064 16.2727 17.8464L17.9227 21.2364C18.4827 22.3364 16.9627 22.9664 16.4627 21.9564ZM19.3227 12.0564C19.8127 12.0564 20.1227 12.3364 20.1227 12.7864C20.1227 13.2364 19.8127 13.5064 19.3227 13.5064H17.5527C17.0627 13.5064 16.8427 13.4364 16.5727 13.1664L16.0927 12.6864L16.2427 10.7364L17.4227 12.0564ZM10.5027 22.1764C9.8427 22.9564 8.5827 22.0564 9.3627 21.1364L11.7827 18.2564L12.1927 16.3964L13.4827 18.0564L13.3127 18.6064C13.2227 18.9064 13.1827 18.9764 12.9427 19.2664Z" /></svg>