<svg viewBox="0 0 27.789379205560493 31.223447171914895" xmlns="http://www.w3.org/2000/svg"><path d="M0.0037 30.0478C0.0037 30.6778 0.5237 31.1978 1.1337 31.1978C1.7637 31.1978 2.2837 30.6778 2.2837 30.0478V1.1378C2.2837 0.5078 1.7637 -0.0022 1.1337 -0.0022C0.5237 -0.0022 0.0037 0.5078 0.0037 1.1378ZM18.1337 6.0178C19.7937 6.0178 21.1337 4.6778 21.1337 3.0078C21.1337 1.3378 19.7937 -0.0022 18.1337 -0.0022C16.4637 -0.0022 15.1237 1.3378 15.1237 3.0078C15.1237 4.6778 16.4637 6.0178 18.1337 6.0178ZM14.8737 30.2978L17.8837 24.2178C18.0037 23.9978 18.0337 23.8478 18.3337 23.4778L21.2337 19.8278C22.3237 18.4578 22.7137 17.7078 22.5837 16.1178L22.3437 12.9578C22.3137 12.5778 22.8137 12.3478 23.2037 12.6878L24.2537 13.6478L24.5637 17.3678C24.6537 18.2778 25.1437 18.7478 25.9337 18.6878C26.7237 18.6578 27.2037 18.0478 27.1437 17.1978L26.8837 13.8078C26.8137 12.8778 26.5737 12.3078 25.8537 11.5978L23.6637 9.4378C22.2537 8.0678 21.2437 7.2978 19.7237 7.2978C17.7037 7.2978 16.5437 8.8078 16.6937 10.7778L16.9837 14.9178C17.0737 16.3878 17.2537 17.2978 17.7737 18.7678L17.8937 19.1578L16.0337 21.8078C15.7637 22.1878 15.4537 22.6678 15.2337 23.1178L12.3037 29.0478C11.3337 30.9978 13.9837 32.0978 14.8737 30.2978ZM9.8837 12.9178C9.0337 12.9178 8.4337 13.4278 8.4337 14.1878C8.4337 14.9978 9.0237 15.4878 9.8837 15.4878H12.9737C13.8237 15.4878 14.2337 15.3578 14.6937 14.8778L15.5837 13.9978L15.3637 10.5178L13.2037 12.9178ZM25.3737 30.7178C26.5137 32.0578 28.7237 30.4778 27.3537 28.8578L23.1037 23.8178L22.3837 20.4978L20.0737 23.3878L20.4137 24.4478C20.5937 24.9678 20.6437 25.0978 21.0637 25.5978Z" /></svg>