<svg viewBox="0 0 27.890625 27.890625" xmlns="http://www.w3.org/2000/svg"><path d="M13.9427 27.8864C21.6427 27.8864 27.8927 21.6464 27.8927 13.9464C27.8927 6.2464 21.6427 -0.0036 13.9427 -0.0036C6.2527 -0.0036 0.0027 6.2464 0.0027 13.9464C0.0027 21.6464 6.2527 27.8864 13.9427 27.8864ZM13.9427 25.5664C7.5227 25.5664 2.3227 20.3664 2.3227 13.9464C2.3227 7.5164 7.5227 2.3264 13.9427 2.3264C20.3727 2.3264 25.5627 7.5164 25.5627 13.9464C25.5627 20.3664 20.3727 25.5664 13.9427 25.5664ZM6.2327 12.6064H9.9927L12.3227 14.6964C12.4027 14.7764 12.3427 14.9164 12.2227 14.9164H9.5827C9.3527 14.9164 9.1327 14.9664 8.9727 15.1364L6.1827 17.9364C5.8627 18.2564 5.8627 18.7164 6.1827 19.0264C6.4827 19.3364 6.9627 19.3364 7.2627 19.0264L9.7927 16.5164L12.5327 16.9764V18.3864C12.5327 19.6364 13.4227 20.4164 14.5327 20.4164C14.9427 20.4164 15.3127 20.2864 15.6227 20.0964V23.6064C15.6227 23.8664 15.8427 24.0764 16.0927 24.0764C16.3427 24.0764 16.5527 23.8664 16.5527 23.6064V19.0164C16.5827 18.9864 16.6127 18.9664 16.6527 18.9364L18.9627 16.6064C19.1127 16.4764 19.1927 16.2664 19.1927 16.0764V12.6164C19.1927 12.1264 19.0327 11.7164 18.7427 11.4264L14.1227 6.8364V9.0364L16.1227 11.0164C16.2827 11.1564 16.2527 11.3064 16.1227 11.4564L14.0727 13.5064L13.4627 13.0864V4.1264C13.4627 3.8664 13.2327 3.6664 13.0027 3.6664C12.7527 3.6664 12.5327 3.8864 12.5327 4.1264V12.4264L10.7327 11.1664C10.5927 11.0764 10.4827 11.0464 10.2627 11.0464H6.2327C5.7927 11.0464 5.4527 11.4064 5.4527 11.8164C5.4527 12.2364 5.7927 12.6064 6.2327 12.6064ZM19.6227 10.5264C20.5327 10.5264 21.2727 9.7864 21.2727 8.8564C21.2727 7.9664 20.5327 7.2364 19.6227 7.2364C18.7127 7.2364 17.9827 7.9664 17.9827 8.8564C17.9827 9.7864 18.7127 10.5264 19.6227 10.5264ZM17.2927 14.4364C17.4427 14.2864 17.6327 14.3564 17.6327 14.5764V15.7664L16.5527 16.8464V15.1664ZM13.4627 18.3864V17.0664C14.2427 17.0364 14.9827 16.7164 15.5427 16.1564L15.6227 16.0964V17.7764L15.5427 17.8464C15.2627 18.1464 15.2627 18.5964 15.5027 18.8964C15.3427 19.2464 14.9827 19.4864 14.5327 19.4864C13.9227 19.4864 13.4627 19.0964 13.4627 18.3864Z" /></svg>