<svg viewBox="0 0 29.99440725341516 33.22822074173594" xmlns="http://www.w3.org/2000/svg"><path d="M0.2893 8.7142C0.6793 9.1042 1.3293 9.1042 1.7193 8.7142L5.4993 4.9242L7.0093 6.4442C7.6793 7.1142 8.6793 6.7242 8.7193 5.7542L9.0193 1.0242C9.0493 0.3842 8.6493 -0.0258 7.9993 0.0042L3.2493 0.2842C2.3393 0.3442 1.8893 1.2842 2.5793 1.9942L4.0893 3.5142L0.2993 7.2842C-0.1007 7.6842 -0.1007 8.3242 0.2893 8.7142ZM26.3193 13.1542C28.3493 13.1542 29.9993 11.4442 29.9993 9.4642C29.9993 7.3942 28.3493 5.7342 26.3193 5.7342C24.2393 5.7342 22.5993 7.3942 22.5993 9.4642C22.5993 11.5042 24.2393 13.1542 26.3193 13.1542ZM5.1493 11.1842C5.1493 11.7542 5.5893 12.2142 6.1693 12.2142H11.5193V14.3442C11.5193 15.3042 12.4993 15.7242 13.2193 15.0842L16.7593 11.9342C17.2393 11.4842 17.2393 10.9242 16.7593 10.4842L13.2193 7.3442C12.5193 6.7242 11.5193 7.0742 11.5193 8.0842V10.2042H6.1693C5.5893 10.2042 5.1493 10.6342 5.1493 11.1842ZM0.2893 13.6742C-0.1007 14.0542 -0.1007 14.6842 0.2993 15.0942L4.0893 18.8642L2.5793 20.3842C1.8893 21.0942 2.3393 22.0442 3.2493 22.0942L7.9993 22.3642C8.6493 22.4142 9.0493 22.0042 9.0193 21.3542L8.7193 16.6242C8.6793 15.6542 7.6793 15.2742 7.0093 15.9442L5.4993 17.4642L1.7193 13.6742C1.3293 13.2742 0.6793 13.2742 0.2893 13.6742ZM4.2793 32.7142C4.9893 33.4542 6.2093 33.4042 7.0793 32.5042L12.9593 26.4242C13.1493 26.2242 13.2893 26.1742 13.5993 26.2942L18.1793 28.0242C21.1393 29.1642 23.9193 28.1942 25.2093 25.8442L28.1593 20.4642C29.3093 18.3742 28.9593 16.2142 26.9593 15.1542C25.0293 14.0942 23.0193 14.8942 21.8593 17.0342L18.0293 24.0242L14.7593 22.8342C13.1493 22.2442 11.7993 22.4342 10.5093 23.7742L4.3993 30.0942C3.5493 30.9642 3.6393 32.0642 4.2793 32.7142Z" /></svg>