<svg viewBox="0 0 27.890625 27.890625" xmlns="http://www.w3.org/2000/svg"><path d="M13.9427 27.8864C21.6427 27.8864 27.8927 21.6464 27.8927 13.9464C27.8927 6.2464 21.6427 -0.0036 13.9427 -0.0036C6.2527 -0.0036 0.0027 6.2464 0.0027 13.9464C0.0027 21.6464 6.2527 27.8864 13.9427 27.8864ZM13.9427 25.5664C7.5227 25.5664 2.3227 20.3664 2.3227 13.9464C2.3227 7.5164 7.5227 2.3264 13.9427 2.3264C20.3727 2.3264 25.5627 7.5164 25.5627 13.9464C25.5627 20.3664 20.3727 25.5664 13.9427 25.5664ZM16.0227 8.8364C16.9427 8.8364 17.6627 8.0964 17.6627 7.1764C17.6627 6.2764 16.9427 5.5364 16.0227 5.5364C15.1227 5.5364 14.3827 6.2764 14.3827 7.1764C14.3827 8.0964 15.1227 8.8364 16.0227 8.8364ZM13.4427 15.3964L16.3227 17.0264L14.4627 18.6164C14.0727 18.9464 14.0827 19.3964 14.3327 19.6764C14.5727 19.9564 15.0227 20.0164 15.4227 19.6564L18.0327 17.4464C18.3927 17.1464 18.3227 16.5064 17.9127 16.2264L15.0627 14.3664L15.6227 12.3964C15.7127 12.1264 16.0327 12.0964 16.1827 12.3364L17.0327 13.5464C17.2227 13.8264 17.5827 13.9364 17.9127 13.7964L20.2927 12.7264C20.7127 12.5364 20.8727 12.1664 20.7027 11.7864C20.5127 11.4064 20.1527 11.2964 19.7127 11.4664L17.8327 12.3164L16.5127 10.5164C15.8427 9.5864 15.0027 9.2164 13.6127 9.2964L10.9627 9.4864C10.5427 9.5164 10.2527 9.7864 10.2027 10.2264L9.8327 12.9164C9.7727 13.3864 10.0127 13.7164 10.4227 13.7564C10.8327 13.7964 11.1027 13.5464 11.1727 13.0864L11.5027 10.8864L12.5627 10.7964C12.7927 10.7864 13.0327 10.9464 12.9427 11.2364L12.3327 13.3964C11.9627 14.6864 12.7927 15.0364 13.4427 15.3964ZM8.3927 21.9164C8.6827 22.1464 9.0927 22.1864 9.4927 21.8164L11.9327 19.3864C12.1427 19.1864 12.1827 19.1364 12.3027 18.8164L13.3827 16.1164L13.1127 15.9864C12.5927 15.6864 12.1427 15.3964 11.8827 15.0164L10.9527 18.2564L8.3927 20.7664C8.0127 21.1464 8.0927 21.6464 8.3927 21.9164Z" /></svg>