<svg viewBox="0 0 27.890625 27.890625" xmlns="http://www.w3.org/2000/svg"><path d="M13.9427 27.8864C21.6427 27.8864 27.8927 21.6464 27.8927 13.9464C27.8927 6.2464 21.6427 -0.0036 13.9427 -0.0036C6.2527 -0.0036 0.0027 6.2464 0.0027 13.9464C0.0027 21.6464 6.2527 27.8864 13.9427 27.8864ZM13.9427 25.5664C7.5227 25.5664 2.3227 20.3664 2.3227 13.9464C2.3227 7.5164 7.5227 2.3264 13.9427 2.3264C20.3727 2.3264 25.5627 7.5164 25.5627 13.9464C25.5627 20.3664 20.3727 25.5664 13.9427 25.5664ZM16.6427 9.2564C17.5427 9.2564 18.2827 8.5264 18.2827 7.6164C18.2827 6.6964 17.5427 5.9564 16.6427 5.9564C15.7127 5.9564 14.9827 6.6964 14.9827 7.6164C14.9827 8.5264 15.7127 9.2564 16.6427 9.2564ZM10.7227 19.1564C11.0927 19.3564 11.5927 19.2464 11.8227 18.8964L13.6727 15.9264L15.6927 16.0264L14.4227 18.0464C14.1927 18.4164 14.3027 18.9364 14.6827 19.1564C15.0627 19.3564 15.5127 19.2664 15.7627 18.8964L17.7227 15.7664C18.0427 15.2464 17.7727 14.6064 17.0527 14.5064L13.7527 14.1464C13.4427 14.1064 13.3127 13.7764 13.4827 13.5364L14.8327 11.4664C14.9327 11.3464 15.1027 11.3164 15.2127 11.3864L20.2327 14.3964C20.5927 14.6164 21.1127 14.5064 21.3127 14.1464C21.5327 13.7364 21.4127 13.2764 21.0427 13.0464L11.1527 7.1064C11.0227 7.0164 10.8927 7.0164 10.7627 7.0164H7.5927C7.1527 7.0164 6.7827 7.3564 6.7827 7.7764C6.7827 8.2164 7.1527 8.5864 7.5927 8.5864H10.5227L11.9127 9.4064C12.0627 9.4864 12.1027 9.6664 12.0127 9.8164L10.2927 12.3864C9.3627 13.7664 10.1327 15.6164 11.8527 15.8164L10.4627 18.0464C10.2427 18.4164 10.3327 18.9264 10.7227 19.1564ZM8.6927 20.9764H19.1427C19.9927 20.9764 20.7027 20.8064 21.2427 20.3264C21.4927 20.1064 21.4827 19.8364 21.3127 19.6564C21.1927 19.4664 20.9227 19.3964 20.6427 19.5964C20.2627 19.9064 19.8427 20.0464 19.1427 20.0464H8.6927C8.0027 20.0464 7.5927 19.8964 7.2027 19.5964C6.9427 19.4264 6.7027 19.4664 6.5327 19.6164C6.3727 19.7964 6.3327 20.1064 6.6027 20.3264C7.1527 20.8064 7.8627 20.9764 8.6927 20.9764Z" /></svg>