<svg viewBox="0 0 27.890625 27.890625" xmlns="http://www.w3.org/2000/svg"><path d="M13.9427 27.8864C21.6427 27.8864 27.8927 21.6464 27.8927 13.9464C27.8927 6.2464 21.6427 -0.0036 13.9427 -0.0036C6.2527 -0.0036 0.0027 6.2464 0.0027 13.9464C0.0027 21.6464 6.2527 27.8864 13.9427 27.8864ZM13.9427 25.5664C7.5227 25.5664 2.3227 20.3664 2.3227 13.9464C2.3227 7.5164 7.5227 2.3264 13.9427 2.3264C20.3727 2.3264 25.5627 7.5164 25.5627 13.9464C25.5627 20.3664 20.3727 25.5664 13.9427 25.5664ZM11.5427 9.8064C12.4427 9.8064 13.1827 9.0664 13.1827 8.1364C13.1827 7.2364 12.4427 6.4964 11.5427 6.4964C10.6127 6.4964 9.8827 7.2364 9.8827 8.1364C9.8827 9.0664 10.6127 9.8064 11.5427 9.8064ZM7.5427 15.5264C7.2027 16.7764 8.0027 17.5664 8.9727 17.5664C9.2827 17.5664 9.5927 17.4864 9.9127 17.3264L14.0127 15.1364L18.5527 17.4064C19.1127 17.6864 19.5527 17.4764 19.7127 17.1164C19.8927 16.7764 19.7827 16.2964 19.2627 16.0264L14.5227 13.6464C14.2027 13.4764 13.8627 13.4664 13.5327 13.6164L10.4727 14.9464L11.0927 12.7864C11.1927 12.3964 11.5427 12.1364 11.9327 12.1364H18.0427C18.4727 12.1364 18.8227 11.7964 18.8227 11.3564C18.8227 10.9364 18.4727 10.5964 18.0427 10.5964H11.3727C9.8527 10.5964 8.6227 11.4564 8.2727 12.7564ZM7.3027 20.0264H20.5727C20.8527 20.0264 21.0427 19.8364 21.0427 19.5664C21.0427 19.3064 20.8527 19.0964 20.5727 19.0964H7.3027C7.0227 19.0964 6.8327 19.3064 6.8327 19.5664C6.8327 19.8364 7.0227 20.0264 7.3027 20.0264Z" /></svg>