<svg viewBox="0 0 27.890625 27.890625" xmlns="http://www.w3.org/2000/svg"><path d="M13.9427 27.8864C21.6427 27.8864 27.8927 21.6264 27.8927 13.9464C27.8927 6.2464 21.6427 -0.0036 13.9427 -0.0036C6.2627 -0.0036 0.0027 6.2464 0.0027 13.9464C0.0027 21.6264 6.2627 27.8864 13.9427 27.8864ZM18.2927 8.3664C17.3327 8.3664 16.5827 7.6064 16.5827 6.6564C16.5827 5.7264 17.3327 4.9664 18.2927 4.9664C19.2227 4.9664 19.9727 5.7264 19.9727 6.6564C19.9727 7.6064 19.2227 8.3664 18.2927 8.3664ZM5.8227 11.7264C5.8227 10.7764 6.6127 9.9764 7.5727 9.9764C7.5727 9.5264 7.9427 9.1764 8.3827 9.1764H17.7327C18.3927 9.1764 18.9627 9.4064 19.4327 9.8664L21.3727 11.8264C21.6827 12.1564 21.6927 12.6564 21.3727 12.9864L19.3627 14.9864C19.0327 15.3164 18.5127 15.2864 18.2227 14.9864C17.9127 14.6864 17.8927 14.1764 18.2227 13.8464L19.6727 12.4164L18.6227 11.3464C18.4727 11.2264 18.2627 11.2264 18.1427 11.3464L15.0927 14.4264L17.7427 17.0864C17.9527 17.2964 18.0327 17.6264 17.9127 17.9364L16.5427 22.1864C16.3627 22.7064 15.9527 22.8564 15.5727 22.7764C15.1627 22.6864 14.8227 22.2964 15.0027 21.7364L16.2427 17.9464L12.2627 14.9264C11.8027 14.5564 11.6927 13.5264 12.4027 12.8364L13.9627 11.2664C14.1527 11.0864 14.0227 10.7864 13.7527 10.7864H9.0527C9.2327 11.0564 9.3227 11.3764 9.3227 11.7264C9.3227 12.6864 8.5327 13.4964 7.5727 13.4964C6.6127 13.4964 5.8227 12.6864 5.8227 11.7264ZM7.0927 18.8564C7.0927 18.4164 7.4627 18.0464 7.9127 18.0464H11.6527L12.0427 15.6164L13.7527 16.9264L13.1127 19.0864C13.0027 19.4364 12.7127 19.6564 12.2927 19.6564H7.9127C7.4627 19.6564 7.0927 19.3064 7.0927 18.8564Z" /></svg>