<svg viewBox="0 0 27.890625 27.890625" xmlns="http://www.w3.org/2000/svg"><path d="M13.9437 27.8864C21.6437 27.8864 27.8937 21.6264 27.8937 13.9464C27.8937 6.2464 21.6437 -0.0036 13.9437 -0.0036C6.2637 -0.0036 0.0037 6.2464 0.0037 13.9464C0.0037 21.6264 6.2637 27.8864 13.9437 27.8864ZM15.0237 8.0364C14.0837 8.0364 13.3137 7.2764 13.3137 6.3264C13.3137 5.3864 14.0837 4.6364 15.0237 4.6364C15.9737 4.6364 16.7337 5.3864 16.7337 6.3264C16.7337 7.2764 15.9737 8.0364 15.0237 8.0364ZM14.1337 19.4964C13.8037 19.4964 13.6337 19.3364 13.6337 19.0264V15.8864L10.8237 15.1764C9.4037 14.8164 8.8837 13.6164 9.5737 12.2464L10.0737 11.2364L9.1637 10.7464C8.5537 10.4364 8.4337 9.6064 9.1737 9.3064L11.6337 8.2964C12.4737 7.9564 13.3537 8.1064 14.0837 8.6264L17.4137 11.1464C17.7037 11.3464 17.7737 11.4864 17.7737 11.7764V15.1664C17.7737 15.2264 17.7637 15.2764 17.7437 15.3264L20.5237 17.8864H23.1037C23.3237 17.8864 23.5437 18.1064 23.5437 18.3164V18.7164C23.5437 18.9464 23.3237 19.1564 23.1037 19.1564H20.7637C20.6137 19.1564 20.5237 19.1264 20.3837 18.9864L17.0737 15.9264C16.6437 15.9564 16.2137 15.6664 16.2237 15.1364L13.1237 12.2664L12.5237 13.4264L14.6737 14.4264C14.9837 14.5564 15.1937 14.8464 15.1937 15.1664V18.1864L16.3637 18.5564C16.8437 18.7164 16.8337 19.4964 16.2737 19.4964ZM16.2237 13.9364V12.2364L14.1137 10.8664C13.9837 10.7864 13.8337 10.8464 13.7837 10.9664L13.5237 11.4664ZM6.0337 19.1264V16.9764C6.0337 16.6764 6.1837 16.4864 6.4937 16.4864H9.1637L9.5437 15.3764C9.8137 15.5864 10.2137 15.7764 10.6537 15.8864L11.2337 16.0364L10.4337 17.6264C10.3037 17.8564 10.0637 18.0564 9.7437 18.0564H7.3237L6.9637 19.2064C6.8037 19.6764 6.0337 19.6764 6.0337 19.1264ZM4.8037 19.7264V16.6964C4.8037 16.5064 4.9637 16.3564 5.1437 16.3564C5.3337 16.3564 5.4937 16.5064 5.4937 16.6964V19.7264C5.4937 19.9364 5.3337 20.0864 5.1437 20.0864C4.9637 20.0864 4.8037 19.9364 4.8037 19.7264ZM18.5437 21.2764V20.6064C18.5437 20.2764 19.0837 20.0264 19.7837 20.0264C20.4837 20.0264 21.0437 20.2764 21.0437 20.6064V21.2764C21.0437 21.6064 20.4837 21.8564 19.7837 21.8564C19.0837 21.8564 18.5437 21.6064 18.5437 21.2764ZM13.8237 20.7264C13.6437 20.7264 13.4837 20.5664 13.4837 20.3664C13.4837 20.1964 13.6437 20.0264 13.8237 20.0264H16.8737C17.0737 20.0264 17.2237 20.1964 17.2237 20.3664C17.2237 20.5664 17.0637 20.7264 16.8737 20.7264Z" /></svg>