<svg viewBox="0 0 26.214217280287755 27.498417050184447" xmlns="http://www.w3.org/2000/svg"><path d="M3.68 7.4244C5.76 7.4244 7.4 5.7744 7.4 3.7344C7.4 1.6644 5.76 0.0044 3.68 0.0044C1.64 0.0044 0 1.6644 0 3.7344C0 5.7144 1.64 7.4244 3.68 7.4244ZM25.72 26.9844C26.36 26.3344 26.44 25.2344 25.59 24.3644L19.48 18.0444C18.2 16.7044 16.84 16.5144 15.23 17.1044L11.96 18.2944L8.13 11.3044C6.97 9.1644 4.96 8.3644 3.04 9.4244C1.04 10.4844 0.68 12.6444 1.83 14.7344L4.79 20.1144C6.07 22.4644 8.86 23.4344 11.81 22.2944L16.41 20.5644C16.71 20.4444 16.84 20.4944 17.04 20.6944L22.91 26.7744C23.79 27.6744 25.01 27.7244 25.72 26.9844Z" /></svg>