<svg viewBox="0 0 27.890625 27.890625" xmlns="http://www.w3.org/2000/svg"><path d="M13.9427 27.8864C21.6427 27.8864 27.8927 21.6264 27.8927 13.9464C27.8927 6.2464 21.6427 -0.0036 13.9427 -0.0036C6.2627 -0.0036 0.0027 6.2464 0.0027 13.9464C0.0027 21.6264 6.2627 27.8864 13.9427 27.8864ZM14.5927 8.7264C13.6627 8.7264 12.8827 7.9564 12.8827 7.0164C12.8827 6.0864 13.6627 5.3064 14.5927 5.3064C15.5127 5.3064 16.2827 6.0864 16.2827 7.0164C16.2827 7.9564 15.5127 8.7264 14.5927 8.7264ZM12.0827 18.8364C11.7827 18.5364 11.7827 18.0364 12.0827 17.7364L14.0127 15.8064L10.3227 15.6164C8.6727 15.5264 7.9327 13.8064 8.7727 12.5264L10.6327 9.7664C10.7627 9.5564 10.7027 9.3264 10.5227 9.2164L9.2427 8.3664H6.2527C5.8227 8.3664 5.4827 7.9964 5.4827 7.5564C5.4827 7.1364 5.8227 6.7664 6.2527 6.7664H9.4927C9.6427 6.7664 9.7927 6.8064 9.9227 6.9064L16.8527 11.5264H19.8527C20.2627 11.5264 20.6127 11.8964 20.6127 12.3464C20.6127 12.7664 20.2627 13.1264 19.8527 13.1264H16.6127C16.4627 13.1264 16.3227 13.0564 16.1827 12.9764L13.9227 11.4664C13.7427 11.3464 13.4927 11.3864 13.3727 11.5764L12.0827 13.5264C11.9627 13.7164 12.0027 13.8764 12.3027 13.9164L15.9027 14.3164C16.5727 14.3864 16.8527 15.1864 16.4227 15.6264L13.2027 18.8364C12.8927 19.1564 12.4027 19.1564 12.0827 18.8364ZM19.8527 10.1464C19.8527 9.5964 20.7227 9.1464 21.8227 9.1464C22.9027 9.1464 23.7927 9.5964 23.7927 10.1464C23.7927 10.6764 22.9027 11.1264 21.8227 11.1264C20.7227 11.1264 19.8527 10.6764 19.8527 10.1464ZM9.1227 15.9864C9.4727 16.1564 9.8527 16.2664 10.2827 16.2864L11.1527 16.3564L10.7227 19.0464C10.6927 19.2064 10.6527 19.3764 10.5227 19.5464L8.2827 22.1764C8.0427 22.4664 7.5427 22.5764 7.1527 22.2764C6.8227 21.9864 6.7827 21.4464 7.0727 21.1364L9.1227 18.7264Z" /></svg>