<svg viewBox="0 0 27.890625 27.890625" xmlns="http://www.w3.org/2000/svg"><path d="M13.9427 27.8864C21.6427 27.8864 27.8927 21.6264 27.8927 13.9464C27.8927 6.2464 21.6427 -0.0036 13.9427 -0.0036C6.2627 -0.0036 0.0027 6.2464 0.0027 13.9464C0.0027 21.6264 6.2627 27.8864 13.9427 27.8864ZM6.8327 13.9164L8.0627 10.2564C8.1927 9.8964 8.4527 9.6764 8.8227 9.6764H13.9327C14.5227 9.6764 15.1027 9.9264 15.4927 10.3064L17.3927 12.2064L19.2527 10.3464C19.2727 10.3264 19.3227 10.2964 19.3727 10.2664V9.4364L18.6327 9.0664C18.3727 8.9364 18.2127 8.6864 18.2127 8.3764V5.9564C18.2127 5.5264 18.5427 5.1664 18.9727 5.1664H20.7127C21.1527 5.1664 21.4527 5.5264 21.4527 5.9564V8.3764C21.4527 8.6864 21.3027 8.9364 21.0427 9.0664L20.3327 9.4364V10.2564C20.7027 10.5664 20.7827 11.0864 20.4127 11.4564L17.9627 13.9164C17.6627 14.2364 17.1127 14.2364 16.8127 13.9164L14.8427 11.9264C14.7127 11.7764 14.5027 11.8564 14.4527 12.0064L13.0827 16.1764L15.6727 17.3064C15.9127 17.4364 16.0227 17.5964 16.0927 17.8164L17.2927 21.9464C17.4427 22.4764 17.1127 22.8164 16.7327 22.9264C16.3527 23.0264 15.9127 22.8864 15.7627 22.3764L14.6727 18.6364L11.3427 17.1764C10.2127 16.6664 9.9027 15.7064 10.2527 14.6864L11.2927 11.5664C11.3427 11.4164 11.2427 11.2764 11.0727 11.2764H9.3827L8.3227 14.4064C8.1627 14.9164 7.7427 15.0664 7.3527 14.9564C6.9627 14.8764 6.6427 14.4764 6.8327 13.9164ZM13.9327 8.8764C12.9727 8.8764 12.2327 8.1064 12.2327 7.1764C12.2327 6.2364 12.9727 5.4664 13.9327 5.4664C14.8727 5.4664 15.6227 6.2364 15.6227 7.1764C15.6227 8.1064 14.8727 8.8764 13.9327 8.8764ZM6.9627 22.5064C6.7527 22.1464 6.7427 21.6664 7.2427 21.3864L10.1327 19.7864L10.5127 17.5364C10.6627 17.6364 10.8427 17.7364 11.0627 17.8264L12.3327 18.3864L11.6327 20.4764C11.5527 20.7264 11.4727 20.8664 11.2627 20.9864L8.0427 22.7764C7.5727 23.0464 7.1827 22.8164 6.9627 22.5064Z" /></svg>