<svg viewBox="0 0 27.890625 27.890625" xmlns="http://www.w3.org/2000/svg"><path d="M13.9427 27.8864C21.6427 27.8864 27.8927 21.6264 27.8927 13.9464C27.8927 6.2464 21.6427 -0.0036 13.9427 -0.0036C6.2627 -0.0036 0.0027 6.2464 0.0027 13.9464C0.0027 21.6264 6.2627 27.8864 13.9427 27.8864ZM7.4327 16.5864L9.9127 10.2164C10.0727 9.8064 10.5227 9.5964 10.9827 9.7464C11.3927 9.9264 11.5927 10.3864 11.4327 10.7964L9.6127 15.4464C9.5327 15.6864 9.5827 15.8464 9.8027 15.9564C10.5227 16.4064 11.0727 16.6764 12.0127 16.6764H13.4827L12.3427 13.4564C12.3327 13.3664 12.3027 13.2764 12.3027 13.1764V7.4264C12.3027 6.9564 12.6627 6.6264 13.0927 6.6264C13.5727 6.6264 13.9327 6.9564 13.9327 7.4264V12.9864L15.9427 16.8464C16.5927 18.1064 16.0827 19.5964 14.1527 19.5964H11.6927C10.1127 19.5964 9.1327 19.3364 8.0827 18.6064C7.4227 18.1464 7.1327 17.3364 7.4327 16.5864ZM5.5827 16.0264C4.6327 16.0264 3.8827 15.2564 3.8827 14.3264C3.8827 13.3964 4.6327 12.6164 5.5827 12.6164C6.5227 12.6164 7.2727 13.3964 7.2727 14.3264C7.2727 15.2564 6.5227 16.0264 5.5827 16.0264ZM16.9627 18.3564C17.0727 17.7564 16.9627 17.1164 16.6427 16.4764L16.5827 16.3564L19.3727 15.8564L23.3227 15.1164C23.7727 15.0364 24.2027 15.3264 24.2827 15.7764C24.3727 16.2464 24.0727 16.6564 23.6427 16.7364L19.8827 17.3864Z" /></svg>