<svg viewBox="0 0 24.433669120751592 32.552941694181214" xmlns="http://www.w3.org/2000/svg"><path d="M9.7957 5.9763C11.4357 5.9763 12.7557 4.6363 12.7557 2.9663C12.7557 1.3263 11.4357 -0.0037 9.7957 -0.0037C8.1257 -0.0037 6.7857 1.3263 6.7857 2.9663C6.7857 4.6363 8.1257 5.9763 9.7957 5.9763ZM16.0557 32.5563C16.8457 32.5563 17.4657 31.9263 17.4657 31.1563V23.3963C17.4657 23.0663 17.2857 22.5963 16.8457 22.3163L11.8557 18.9863V10.5363C11.8557 10.3663 12.0057 10.1963 12.1957 10.1963H23.0357C23.8157 10.1963 24.4357 9.5663 24.4357 8.8063C24.4357 8.0363 23.8157 7.4063 23.0357 7.4063H7.6157C6.3057 7.4063 5.5957 7.8763 4.9257 8.7063L1.2857 13.1763C0.4157 14.2463 1.1257 15.7863 2.2557 15.7863H6.2757V17.7163C6.2757 18.9863 6.9857 20.1763 8.1357 20.7963L14.6557 24.3063V31.1563C14.6557 31.9263 15.2857 32.5563 16.0557 32.5563ZM4.8557 13.0863L6.3557 11.2063V13.0863ZM0.3257 32.0763C0.8657 32.6763 1.7357 32.7063 2.3257 32.1963L7.8057 27.3963C8.0857 27.1563 8.1957 27.0463 8.2857 26.7863L9.7457 23.1463L7.5057 21.9463C7.2857 21.8163 7.0657 21.6863 6.8657 21.5363L5.7557 25.4863L0.4657 30.1063C-0.0943 30.5963 -0.1643 31.5163 0.3257 32.0763Z" /></svg>