<svg viewBox="0 0 27.890625 27.890625" xmlns="http://www.w3.org/2000/svg"><path d="M13.9427 27.8864C21.6427 27.8864 27.8927 21.6464 27.8927 13.9464C27.8927 6.2464 21.6427 -0.0036 13.9427 -0.0036C6.2527 -0.0036 0.0027 6.2464 0.0027 13.9464C0.0027 21.6464 6.2527 27.8864 13.9427 27.8864ZM13.9427 25.5664C7.5227 25.5664 2.3227 20.3664 2.3227 13.9464C2.3227 7.5164 7.5227 2.3264 13.9427 2.3264C20.3727 2.3264 25.5627 7.5164 25.5627 13.9464C25.5627 20.3664 20.3727 25.5664 13.9427 25.5664ZM13.9327 16.7064L14.3027 19.6564V23.4564C14.3027 23.8564 14.6327 24.1864 15.0427 24.1864C15.4227 24.1864 15.7527 23.8564 15.7527 23.4564V13.0664C15.7527 12.9864 15.8727 12.9764 15.9127 13.0464C16.8327 14.7564 17.3727 16.2664 17.5927 16.9364C17.7327 17.3264 18.1527 17.5264 18.5227 17.3864C18.8127 17.2964 19.0027 17.0064 19.0027 16.7064V11.4464C19.0027 6.5864 17.2127 3.7764 13.9327 3.7764C10.6627 3.7764 8.8627 6.5864 8.8627 11.4464V16.7064C8.8627 17.0064 9.0527 17.2964 9.3427 17.3864C9.7027 17.5264 10.1327 17.3264 10.2627 16.9364C10.5027 16.2664 11.0327 14.7564 11.9627 13.0464C11.9927 12.9764 12.1127 12.9864 12.1127 13.0664V23.4564C12.1127 23.8564 12.4527 24.1864 12.8427 24.1864C13.2327 24.1864 13.5627 23.8564 13.5627 23.4564V19.6564ZM13.9327 4.7064C16.6127 4.7064 18.0727 7.1664 18.0727 11.4464V14.1464C17.5727 12.9864 16.8727 11.6364 16.0927 10.7564C15.7627 10.3864 15.2727 10.1764 14.7427 10.1764H13.1227C12.5927 10.1764 12.1027 10.3864 11.7727 10.7564C10.9927 11.6364 10.3127 12.9864 9.7927 14.1464V11.4464C9.7927 7.1664 11.2527 4.7064 13.9327 4.7064ZM13.9327 9.3764C14.8227 9.3764 15.5427 8.6564 15.5427 7.7564C15.5427 6.8464 14.8227 6.1264 13.9327 6.1264C13.0127 6.1264 12.3027 6.8464 12.3027 7.7564C12.3027 8.6564 13.0127 9.3764 13.9327 9.3764Z" /></svg>