<svg viewBox="0 0 27.890625 27.890625" xmlns="http://www.w3.org/2000/svg"><path d="M13.9427 27.8864C21.6427 27.8864 27.8927 21.6264 27.8927 13.9464C27.8927 6.2464 21.6427 -0.0036 13.9427 -0.0036C6.2627 -0.0036 0.0027 6.2464 0.0027 13.9464C0.0027 21.6264 6.2627 27.8864 13.9427 27.8864ZM13.6627 19.1164L11.4827 23.0664C11.2527 23.5164 10.7727 23.5964 10.4027 23.3964C10.0227 23.1964 9.9027 22.6964 10.0927 22.3164L12.2227 18.3864L12.2927 18.2564L14.2327 14.6964H10.5527C9.9427 14.6964 9.5327 14.0864 9.8527 13.4964L12.5627 8.8864C12.6027 8.7864 12.5927 8.6664 12.5127 8.5564C11.8627 7.9064 11.1327 7.2864 10.2927 6.6964H7.6427C7.2227 6.6964 6.8627 6.3264 6.8627 5.8764C6.8627 5.4364 7.2227 5.0864 7.6427 5.0864H10.3527C10.6327 5.0864 10.8827 5.1664 11.1327 5.3364C16.4027 8.8464 18.2427 14.8364 19.1127 18.0064L19.1527 18.1464C19.7027 20.1564 19.7527 22.0564 19.7527 22.6864C19.7527 23.1464 19.4327 23.5064 18.9727 23.5064C18.5227 23.5064 18.1527 23.1464 18.1527 22.6564C18.1527 22.3764 18.1027 20.9864 17.6127 18.5964L16.0627 15.7864ZM9.4027 10.9664C8.4527 10.9664 7.7127 10.1964 7.7127 9.2564C7.7127 8.3264 8.4527 7.5564 9.4027 7.5564C10.3527 7.5564 11.0927 8.3264 11.0927 9.2564C11.0927 10.1964 10.3527 10.9664 9.4027 10.9664ZM11.9527 13.0964H13.5927L12.9027 12.0564C12.8227 11.9364 12.6427 11.9264 12.5327 12.0764Z" /></svg>