<svg viewBox="0 0 25.862081556155378 29.4697265625" xmlns="http://www.w3.org/2000/svg"><path d="M24.0546 25.545C24.4846 25.955 25.1546 25.955 25.5446 25.545C25.9546 25.125 25.9746 24.465 25.5446 24.055L1.8046 0.305C1.3946 -0.105 0.7046 -0.105 0.2946 0.305C-0.0954 0.705 -0.0954 1.405 0.2946 1.795ZM6.4546 2.645L24.6346 20.815C24.8646 20.485 24.9746 20.075 24.9746 19.585V5.705C24.9746 4.965 24.3446 4.545 23.5546 4.545C22.8846 4.545 21.6246 5.125 19.2746 5.125C14.5546 5.125 11.4146 2.725 6.4546 2.645ZM0.6946 28.445C0.6946 29.005 1.1746 29.465 1.7346 29.465C2.3046 29.465 2.7746 29.015 2.7746 28.445V20.845C3.1146 20.695 4.3946 20.205 6.4046 20.205C11.2646 20.205 14.2846 22.455 18.8646 22.665L0.9646 4.795C0.8046 5.055 0.6946 5.355 0.6946 5.725Z" /></svg>