<svg viewBox="0 0 24.28125 26.82421875" xmlns="http://www.w3.org/2000/svg"><path d="M1.0407 26.8195C1.6107 26.8195 2.0807 26.3695 2.0807 25.7995V18.1995C2.4207 18.0495 3.7007 17.5595 5.7107 17.5595C10.7707 17.5595 13.9407 20.0295 18.7607 20.0295C20.8907 20.0295 21.6807 19.7995 22.7207 19.3295C23.6707 18.9095 24.2807 18.1995 24.2807 16.9395V3.0595C24.2807 2.3195 23.6507 1.8995 22.8607 1.8995C22.1907 1.8995 20.9307 2.4795 18.5807 2.4795C13.7707 2.4795 10.6107 -0.0005 5.5407 -0.0005C3.4007 -0.0005 2.6007 0.2295 1.5607 0.6995C0.6107 1.1195 0.0007 1.8295 0.0007 3.0795V25.7995C0.0007 26.3595 0.4807 26.8195 1.0407 26.8195ZM18.7607 17.9695C14.2007 17.9695 10.9807 15.4895 5.7107 15.4895C4.2107 15.4895 2.8407 15.6695 2.0807 15.9795V3.1395C2.2707 2.6895 3.4007 2.0595 5.5407 2.0595C10.3507 2.0595 13.5607 4.5395 18.5807 4.5395C20.0707 4.5395 21.3007 4.3595 22.2207 4.0995V16.8895C22.0207 17.3395 20.8907 17.9695 18.7607 17.9695Z" /></svg>