<svg viewBox="0 0 48.833435945967004 28.25271837657862" xmlns="http://www.w3.org/2000/svg"><path d="M25.3638 11.7077L26.5538 13.7577L27.0338 12.9177C27.6738 13.1677 28.6738 13.5077 29.7938 14.1377C33.1038 16.0677 34.3938 19.0977 37.8138 21.0877C38.8038 21.6677 39.8638 22.0977 40.6738 22.1877C41.6538 22.2877 42.5238 21.9877 43.1338 20.9177L48.6438 11.3877C49.0638 10.6377 48.7438 9.9577 48.0438 9.5477C47.4438 9.2077 46.1738 8.8877 44.7238 8.0577C41.3938 6.1377 40.1138 3.0877 36.6938 1.1077C35.7138 0.5377 34.6338 0.1077 33.8338 0.0177C32.8538 -0.0823 31.9938 0.2377 31.3738 1.2977ZM31.7638 28.1077C32.2338 27.8277 32.4138 27.1777 32.1438 26.6877L17.4638 1.2977C16.8438 0.2377 15.9838 -0.0823 14.9938 0.0177C14.1938 0.1077 13.1238 0.5377 12.1438 1.1077C8.7238 3.0877 7.4238 6.1377 4.1038 8.0577C2.6538 8.8877 1.3938 9.2077 0.7938 9.5477C0.0838 9.9577 -0.2362 10.6377 0.1938 11.3877L5.6838 20.9177C6.3038 21.9877 7.1738 22.2877 8.1438 22.1877C8.9538 22.0977 10.0338 21.6677 11.0038 21.0877C14.4338 19.0977 15.7238 16.0677 19.0438 14.1377C20.1538 13.5077 21.1638 13.1677 21.8038 12.9177L30.3538 27.7277C30.6438 28.2377 31.2538 28.3977 31.7638 28.1077ZM13.6838 6.4877L12.0538 3.6277C12.4038 3.3777 12.7838 3.1377 13.1638 2.8977C13.5238 2.6977 14.5438 2.1077 15.5338 2.0677L17.2538 5.0577C16.7638 4.9677 15.8638 5.1477 14.7238 5.7977C14.4338 5.9777 14.0238 6.2477 13.6838 6.4877ZM31.5838 5.0577L33.3038 2.0677C34.2938 2.1077 35.3038 2.6977 35.6538 2.8977C36.0538 3.1377 36.4238 3.3777 36.7638 3.6277L35.1338 6.4877C34.8038 6.2477 34.3938 5.9777 34.0938 5.7977C32.9638 5.1477 32.0738 4.9677 31.5838 5.0577ZM12.4838 12.6077L10.6138 9.3677C11.6038 8.3377 12.4538 7.3677 13.6838 6.4877L15.5738 9.6977C14.3538 10.5977 13.5338 11.5177 12.4838 12.6077ZM33.2638 9.6977L35.1338 6.4877C36.3838 7.3677 37.2238 8.3377 38.2138 9.3677L36.3538 12.6077C35.3038 11.5177 34.4838 10.5977 33.2638 9.6977ZM7.5038 12.2277L5.8838 9.3977C7.1538 8.5477 8.1038 7.5777 9.0138 6.6077L10.6138 9.3677C9.6538 10.4177 8.7138 11.3777 7.5038 12.2277ZM38.2138 9.3677L39.8238 6.6077C40.7238 7.5777 41.6838 8.5477 42.9538 9.3977L41.3338 12.2277C40.1238 11.3777 39.1838 10.4177 38.2138 9.3677ZM28.1138 11.0677L29.7238 8.2877C30.2038 8.2077 31.0938 8.3877 32.2338 9.0377C32.6938 9.2877 32.9238 9.4477 33.2638 9.6977L31.4838 12.7577C31.2638 12.6077 31.0538 12.4877 30.8138 12.3477C30.0538 11.9077 28.9938 11.3077 28.1138 11.0677ZM17.3338 12.7577L15.5738 9.6977C15.9138 9.4477 16.1438 9.2877 16.5838 9.0377C17.7438 8.3877 18.6338 8.2077 19.1138 8.2877L20.7238 11.0677C19.8338 11.3077 18.7838 11.9077 18.0038 12.3477C17.7738 12.4877 17.5538 12.6077 17.3338 12.7577ZM5.8838 17.1177L4.0238 13.8977C4.5838 13.7477 5.5538 13.3977 6.6438 12.7577C6.9438 12.5977 7.2238 12.3877 7.5038 12.2277L9.3638 15.4477C9.1038 15.6477 8.8438 15.7977 8.5038 15.9877C7.5038 16.5577 6.6338 16.9277 5.8838 17.1177ZM39.4738 15.4477L41.3338 12.2277C41.6138 12.3877 41.8938 12.5977 42.1938 12.7577C43.2838 13.3977 44.2538 13.7477 44.8138 13.8977L42.9538 17.1177C42.2038 16.9277 41.3138 16.5577 40.3338 15.9877C39.9938 15.7977 39.7338 15.6477 39.4738 15.4477ZM11.1438 18.5277L9.3638 15.4477C10.5638 14.5677 11.4938 13.6977 12.4838 12.6077L14.1738 15.5577C13.2238 16.5977 12.3038 17.6577 11.1438 18.5277ZM34.6438 15.5577L36.3538 12.6077C37.3338 13.6977 38.2538 14.5677 39.4738 15.4477L37.6938 18.5277C36.5338 17.6577 35.6138 16.5977 34.6438 15.5577ZM17.0738 28.1077C17.5838 28.3977 18.1938 28.2377 18.4738 27.7277L23.4738 19.0877L22.2738 17.0277L16.6938 26.6877C16.4038 27.1777 16.5938 27.8277 17.0738 28.1077Z" /></svg>