<svg viewBox="0 0 27.890625 27.890625" xmlns="http://www.w3.org/2000/svg"><path d="M13.9427 27.8864C21.6427 27.8864 27.8927 21.6464 27.8927 13.9464C27.8927 6.2464 21.6427 -0.0036 13.9427 -0.0036C6.2527 -0.0036 0.0027 6.2464 0.0027 13.9464C0.0027 21.6464 6.2527 27.8864 13.9427 27.8864ZM13.9427 25.5664C7.5227 25.5664 2.3227 20.3664 2.3227 13.9464C2.3227 7.5164 7.5227 2.3264 13.9427 2.3264C20.3727 2.3264 25.5627 7.5164 25.5627 13.9464C25.5627 20.3664 20.3727 25.5664 13.9427 25.5664ZM8.7327 21.2964C9.1027 21.2964 9.3527 21.0164 9.3527 20.6764V16.6364C9.6127 16.5264 10.1427 16.3664 10.9927 16.3664C13.4227 16.3664 14.9527 17.5664 17.3227 17.5664C18.3627 17.5664 18.7827 17.4564 19.3027 17.2164C19.8827 16.9564 20.1427 16.5564 20.1427 15.9364V9.1964C20.1427 8.8064 19.9327 8.5164 19.3727 8.5164C18.9727 8.5164 18.3727 8.8064 17.2527 8.8064C14.9327 8.8064 13.3827 7.5864 10.9227 7.5864C9.8527 7.5864 9.4327 7.7064 8.9427 7.9264C8.3827 8.1764 8.0927 8.6164 8.0927 9.1964V20.6764C8.0927 20.9964 8.3927 21.2964 8.7327 21.2964ZM9.1427 13.5264V11.2364C9.2527 11.0164 9.8127 10.7064 10.8727 10.7064C11.0927 10.7064 11.3727 10.7164 11.6027 10.7464V8.6964C12.5227 8.7764 13.3327 9.0364 14.1527 9.2964V11.3464C14.9827 11.6064 15.7727 11.8164 16.6927 11.8964V9.8464C16.8827 9.8564 17.0927 9.8564 17.3127 9.8564C18.0327 9.8564 18.6527 9.7864 19.1127 9.6564V11.7064C18.7627 11.7964 18.1027 11.9264 17.3127 11.9264C17.0727 11.9264 16.8727 11.9064 16.6927 11.8964V14.1864C16.8727 14.2064 17.0627 14.2164 17.3127 14.2164C18.0327 14.2164 18.6527 14.1364 19.1127 13.9964V15.9564C19.0027 16.1864 18.4427 16.5064 17.3927 16.5064C17.1327 16.5064 16.9027 16.4864 16.6927 16.4464V14.1864C15.7727 14.0964 15.0127 13.9164 14.1527 13.6264V15.8464C13.3727 15.5964 12.5527 15.3664 11.6027 15.2964V13.0464C11.3727 13.0164 11.1927 12.9864 10.8727 12.9864C9.8127 12.9864 9.2527 13.3064 9.1427 13.5264ZM11.6027 13.0464C12.5527 13.1364 13.2527 13.3664 14.1527 13.6264V11.3464C13.3027 11.0864 12.5527 10.8464 11.6027 10.7464Z" /></svg>