<svg viewBox="0 0 27.890625 27.890625" xmlns="http://www.w3.org/2000/svg"><path d="M13.9427 27.8927C21.6427 27.8927 27.8927 21.6427 27.8927 13.9427C27.8927 6.2627 21.6427 0.0027 13.9427 0.0027C6.2627 0.0027 0.0027 6.2627 0.0027 13.9427C0.0027 21.6427 6.2627 27.8927 13.9427 27.8927ZM7.9827 17.4327C7.9827 14.6827 9.2927 13.6727 9.2927 11.9627C9.2927 11.6027 9.2427 11.1427 9.2427 10.9527C9.2427 10.6127 9.4427 10.3727 9.7627 10.3727C10.4427 10.3727 11.2427 10.9527 11.6627 11.8127C11.7127 11.6327 11.7427 11.4727 11.7427 11.2827C11.7327 9.7727 10.8027 8.4927 9.9127 7.4127C9.7627 7.2327 9.6827 7.0227 9.6827 6.8327C9.6827 6.3427 10.1327 6.0827 10.8427 6.0827C14.8927 6.0827 20.7227 8.9427 20.7227 15.8027C20.7227 19.9027 18.0327 22.6527 13.9827 22.6527C10.3627 22.6527 7.9827 20.5727 7.9827 17.4327ZM11.7727 18.3427C11.7727 19.6327 12.7427 20.5127 14.1827 20.5127C15.9927 20.5127 16.8727 19.1727 16.8727 17.6327C16.8727 16.1627 16.0227 14.4827 14.3327 13.7027C14.2627 13.6727 14.2227 13.7027 14.2327 13.8127C14.3527 15.0227 14.1827 16.2027 13.7627 16.7527C13.5527 16.2927 13.3427 15.9027 12.9927 15.6127C12.9327 15.5427 12.8827 15.5727 12.8827 15.6727C12.7427 16.5127 11.7727 16.9927 11.7727 18.3427Z" /></svg>