<svg viewBox="0 0 22.23388671875 32.3203125" xmlns="http://www.w3.org/2000/svg"><path d="M4.3889 3.1612H17.7989V2.6913C17.7989 0.8712 16.9189 0.0012 15.1689 0.0012H7.0289C5.2789 0.0012 4.3889 0.8712 4.3889 2.6913ZM15.0089 16.3113V13.7713C15.0089 12.2513 15.3489 11.2213 15.8989 10.3813L16.6789 9.1612C17.3489 8.1112 17.7989 7.2013 17.7989 5.9913V4.7413H4.3889V5.6913L11.4789 12.8013C12.3389 12.8513 13.1889 13.4113 13.3789 14.3513L13.4189 14.7113ZM0.2989 6.8513L20.4389 26.9613C20.8489 27.3713 21.5289 27.3713 21.9289 26.9613C22.3389 26.5413 22.3389 25.8813 21.9289 25.4713L1.7989 5.3612C1.3889 4.9513 0.7089 4.9312 0.2989 5.3612C-0.1011 5.7512 -0.1011 6.4413 0.2989 6.8513ZM9.8089 32.3213H12.3689C14.0889 32.3213 15.0089 31.4013 15.0089 29.6313V23.8013L12.3689 21.1613C12.0289 21.4413 11.5889 21.6013 11.0989 21.6013C9.7489 21.6013 8.6789 20.5513 8.6789 19.1913V17.4712L7.1889 15.9813V29.6313C7.1889 31.4013 8.0889 32.3213 9.8089 32.3213Z" /></svg>