<svg viewBox="0 0 27.890625 27.890625" xmlns="http://www.w3.org/2000/svg"><path d="M13.9427 27.8864C21.6427 27.8864 27.8927 21.6464 27.8927 13.9464C27.8927 6.2464 21.6427 -0.0036 13.9427 -0.0036C6.2527 -0.0036 0.0027 6.2464 0.0027 13.9464C0.0027 21.6464 6.2527 27.8864 13.9427 27.8864ZM13.9427 25.5664C7.5227 25.5664 2.3227 20.3664 2.3227 13.9464C2.3227 7.5164 7.5227 2.3264 13.9427 2.3264C20.3727 2.3264 25.5627 7.5164 25.5627 13.9464C25.5627 20.3664 20.3727 25.5664 13.9427 25.5664ZM10.6227 20.0664C12.7727 20.0664 13.8127 18.9664 14.1527 16.8664L14.5927 14.2164H17.5227C17.8727 14.2164 18.1127 13.9964 18.1127 13.6764C18.1127 13.3564 17.8727 13.1264 17.5227 13.1264H14.7627L15.1027 11.1064C15.3227 9.8164 15.9827 9.1864 17.2627 9.1864C17.7727 9.1864 18.1027 9.2964 18.4127 9.2964C18.8227 9.2964 19.0427 9.0964 19.0427 8.7264C19.0427 8.3764 18.7727 8.1664 18.4427 8.0364C18.0727 7.8764 17.5127 7.8164 17.1427 7.8164C15.0527 7.8164 13.9027 8.9164 13.5627 10.9764L13.1927 13.1264H10.4327C10.1027 13.1264 9.8527 13.3564 9.8527 13.6764C9.8527 13.9964 10.1027 14.2164 10.4327 14.2164H13.0327L12.6027 16.6964C12.3827 18.0164 11.8227 18.7164 10.4727 18.7164C9.9227 18.7164 9.7627 18.6364 9.2727 18.6364C8.9327 18.6364 8.7127 18.8664 8.7127 19.1664C8.7127 19.5364 8.9327 19.7464 9.2727 19.8764C9.6627 20.0564 10.2027 20.0664 10.6227 20.0664Z" /></svg>