<svg viewBox="0 0 29.39453125 31.93408203125" xmlns="http://www.w3.org/2000/svg"><path d="M3.2637 24.0674H13.7037V25.9474H11.5637C10.5637 25.9474 10.1837 26.9174 10.8137 27.6874L13.9737 31.5574C14.3837 32.0574 15.0637 32.0574 15.4737 31.5574L18.6037 27.6874C19.2137 26.9374 18.8437 25.9474 17.8737 25.9474H15.7137V24.0674H26.1237C28.1737 24.0674 29.3937 22.8574 29.3937 20.8474V16.2274C29.3937 14.2174 28.1737 13.0174 26.1237 13.0174H15.7137V11.0474H26.1237C28.1737 11.0474 29.3937 9.8474 29.3937 7.8374V3.2174C29.3937 1.2074 28.1737 -0.0026 26.1237 -0.0026H3.2637C1.2137 -0.0026 0.0037 1.2074 0.0037 3.2174V7.8374C0.0037 9.8474 1.2137 11.0474 3.2637 11.0474H13.7137V13.0174H3.2637C1.2137 13.0174 0.0037 14.2174 0.0037 16.2274V20.8474C0.0037 22.8574 1.2137 24.0674 3.2637 24.0674ZM3.3037 8.9774C2.5337 8.9774 2.0637 8.5074 2.0637 7.7074V3.3174C2.0637 2.5474 2.5337 2.0674 3.3037 2.0674H26.0837C26.8637 2.0674 27.3337 2.5474 27.3337 3.3174V7.7074C27.3337 8.5074 26.8637 8.9774 26.0837 8.9774ZM3.3037 21.9974C2.5337 21.9974 2.0637 21.5174 2.0637 20.7374V16.3474C2.0637 15.5574 2.5337 15.0774 3.3037 15.0774H26.0837C26.8637 15.0774 27.3337 15.5574 27.3337 16.3474V20.7374C27.3337 21.5174 26.8637 21.9974 26.0837 21.9974Z" /></svg>