<svg viewBox="0 0 27.890625 27.890625" xmlns="http://www.w3.org/2000/svg"><path d="M13.9427 27.8864C21.6427 27.8864 27.8927 21.6464 27.8927 13.9464C27.8927 6.2464 21.6427 -0.0036 13.9427 -0.0036C6.2527 -0.0036 0.0027 6.2464 0.0027 13.9464C0.0027 21.6464 6.2527 27.8864 13.9427 27.8864ZM13.9427 25.5664C7.5227 25.5664 2.3227 20.3664 2.3227 13.9464C2.3227 7.5164 7.5227 2.3264 13.9427 2.3264C20.3727 2.3264 25.5627 7.5164 25.5627 13.9464C25.5627 20.3664 20.3727 25.5664 13.9427 25.5664ZM6.2927 11.2664H21.6027V10.7564C21.6027 9.4064 20.8927 8.7064 19.5127 8.7064H13.0027C12.5227 8.7064 12.2727 8.5864 11.9527 8.3164L11.5227 7.9864C11.0727 7.6264 10.7427 7.5064 10.1127 7.5064H8.1027C6.9627 7.5064 6.2927 8.1764 6.2927 9.4864ZM8.3827 20.1564H19.7127C20.9027 20.1564 21.6027 19.4564 21.6027 18.1064V12.3764H6.2927V18.1064C6.2927 19.4564 7.0027 20.1564 8.3827 20.1564Z" /></svg>