<svg viewBox="0 0 27.890625 27.890625" xmlns="http://www.w3.org/2000/svg"><path d="M13.9427 27.8864C21.6427 27.8864 27.8927 21.6264 27.8927 13.9464C27.8927 6.2464 21.6427 -0.0036 13.9427 -0.0036C6.2627 -0.0036 0.0027 6.2464 0.0027 13.9464C0.0027 21.6264 6.2627 27.8864 13.9427 27.8864ZM10.8927 23.1764C10.2427 23.1764 9.8127 22.8164 9.8327 22.1664L9.9927 13.2164C9.9927 12.9464 9.8727 12.7264 9.6227 12.6164C8.5627 12.1664 8.1027 11.6864 8.1727 10.2764L8.3927 5.3964C8.4127 5.0464 8.6127 4.8364 8.9327 4.8364C9.2527 4.8364 9.4427 5.0564 9.4427 5.4164L9.3827 10.1864C9.3827 10.4464 9.5727 10.6364 9.8127 10.6364C10.1027 10.6364 10.2827 10.4464 10.2827 10.1964L10.3627 5.2864C10.3627 4.9364 10.5827 4.7464 10.8927 4.7464C11.2127 4.7464 11.4427 4.9364 11.4427 5.2864L11.5027 10.1964C11.5027 10.4464 11.6927 10.6364 11.9627 10.6364C12.2327 10.6364 12.4327 10.4464 12.4327 10.1864L12.3627 5.4164C12.3627 5.0564 12.5527 4.8364 12.8627 4.8364C13.1927 4.8364 13.3727 5.0464 13.4027 5.3964L13.6327 10.2764C13.7027 11.6864 13.2327 12.1664 12.1827 12.6164C11.9327 12.7264 11.8227 12.9464 11.8227 13.2164L11.9627 22.1664C11.9927 22.8164 11.5627 23.1764 10.8927 23.1764ZM16.5927 16.4064C16.6127 16.1064 16.4727 15.8864 16.1827 15.6964L15.7327 15.3664C15.3427 15.0764 15.1227 14.6964 15.1227 14.1364V13.6064C15.1227 10.4364 15.9727 7.0664 17.2527 5.2764C17.5027 4.9064 17.7227 4.7464 18.0027 4.7464C18.2927 4.7464 18.5827 4.9264 18.5827 5.3364V22.2064C18.5827 22.8464 18.1727 23.1764 17.4827 23.1764C16.8427 23.1764 16.4027 22.8164 16.4227 22.1164Z" /></svg>