<svg viewBox="0 0 18.781548891334573 31.705078125" xmlns="http://www.w3.org/2000/svg"><path d="M4.6901 31.7085C5.8301 31.7085 6.5501 31.0585 6.5301 29.9385L6.2601 14.5885C6.2601 14.1085 6.4601 13.7585 6.8901 13.5585C8.6901 12.7685 9.4701 11.9385 9.3801 9.5385L8.9901 1.1485C8.9701 0.5485 8.6101 0.2085 8.0501 0.2085C7.5201 0.2085 7.1901 0.5585 7.1901 1.1785L7.2801 9.3385C7.2801 9.8185 6.9801 10.1185 6.5301 10.1185C6.0701 10.1185 5.7401 9.8285 5.7401 9.3785L5.6001 0.9285C5.5901 0.3385 5.2501 -0.0015 4.6901 -0.0015C4.1301 -0.0015 3.8001 0.3385 3.7801 0.9285L3.6501 9.3785C3.6501 9.8285 3.3201 10.1185 2.8501 10.1185C2.4001 10.1185 2.0901 9.8185 2.0901 9.3385L2.1801 1.1785C2.1801 0.5585 1.8701 0.2085 1.3201 0.2085C0.7601 0.2085 0.4101 0.5485 0.3801 1.1485L0.0101 9.5385C-0.0999 11.9385 0.6801 12.7685 2.4801 13.5585C2.9101 13.7585 3.1101 14.1085 3.1101 14.5885L2.8501 29.9385C2.8401 31.0585 3.5401 31.7085 4.6901 31.7085ZM15.3801 19.7785L15.0901 29.8685C15.0501 31.0585 15.7701 31.7085 16.9101 31.7085C18.0701 31.7085 18.7801 31.1185 18.7801 30.0185V1.0285C18.7801 0.3285 18.3001 -0.0015 17.8101 -0.0015C17.2901 -0.0015 16.9501 0.2685 16.5101 0.9185C14.3101 4.0085 12.8601 9.7885 12.8601 15.2585V15.9285C12.8601 16.8685 13.2001 17.5685 13.8901 18.0185L14.6901 18.5685C15.1901 18.9085 15.4001 19.2885 15.3801 19.7785Z" /></svg>