<svg viewBox="0 0 20.876953125 20.890625" xmlns="http://www.w3.org/2000/svg"><path d="M0.0037 18.9864C0.0037 20.2764 0.7337 20.8864 1.6237 20.8864C2.0137 20.8864 2.4237 20.7664 2.8137 20.5464L17.1737 12.1864C17.9637 11.7164 18.3737 11.3464 18.5437 10.8964V19.7464C18.5437 20.3864 19.0437 20.8864 19.7037 20.8864C20.3537 20.8864 20.8737 20.3864 20.8737 19.7464V1.1464C20.8737 0.5064 20.3537 -0.0036 19.7037 -0.0036C19.0437 -0.0036 18.5437 0.5064 18.5437 1.1464V9.9964C18.3737 9.5264 17.9637 9.1564 17.1737 8.7064L2.8137 0.3464C2.4237 0.1064 2.0137 -0.0036 1.6237 -0.0036C0.7337 -0.0036 0.0037 0.6064 0.0037 1.8864ZM2.2037 17.9064V2.9764C2.2037 2.8164 2.2937 2.7064 2.4437 2.7064C2.5037 2.7064 2.5537 2.7164 2.5937 2.7664L15.3637 10.2364C15.4637 10.2964 15.5037 10.3664 15.5037 10.4464C15.5037 10.5164 15.4637 10.5964 15.3637 10.6464L2.5937 18.1264C2.5537 18.1564 2.5037 18.1864 2.4437 18.1864C2.2937 18.1864 2.2037 18.0564 2.2037 17.9064Z" /></svg>