<svg viewBox="0 0 27.890625 27.890625" xmlns="http://www.w3.org/2000/svg"><path d="M13.9427 27.8864C21.6427 27.8864 27.8927 21.6264 27.8927 13.9464C27.8927 6.2464 21.6427 -0.0036 13.9427 -0.0036C6.2627 -0.0036 0.0027 6.2464 0.0027 13.9464C0.0027 21.6264 6.2627 27.8864 13.9427 27.8864ZM20.0527 18.4464C20.0527 19.0264 19.7427 19.3164 19.1827 19.3164H17.6627C17.1027 19.3164 16.7927 19.0264 16.7927 18.4464V14.3664C16.6927 14.5864 16.5127 14.7764 16.2327 14.9464L9.5027 18.8964C9.2527 19.0464 9.0127 19.1264 8.7627 19.1264C8.2327 19.1264 7.8027 18.7564 7.8027 18.0164V9.9164C7.8027 9.1864 8.2327 8.8064 8.7627 8.8064C9.0127 8.8064 9.2527 8.8864 9.5027 9.0364L16.2327 12.9864C16.5127 13.1564 16.6927 13.3464 16.7927 13.5664V9.4464C16.7927 8.8564 17.1027 8.5764 17.6627 8.5764H19.1827C19.7427 8.5764 20.0527 8.8764 20.0527 9.4464Z" /></svg>