<svg viewBox="0 0 37.146484375 20.890625" xmlns="http://www.w3.org/2000/svg"><path d="M0.0037 18.9864C0.0037 20.2764 0.7537 20.8864 1.6237 20.8864C2.0237 20.8864 2.4237 20.7664 2.8137 20.5464L17.1837 12.1864C17.9637 11.7164 18.3937 11.3464 18.5437 10.8964V18.9864C18.5437 20.2764 19.2737 20.8864 20.1637 20.8864C20.5537 20.8864 20.9637 20.7664 21.3537 20.5464L35.7137 12.1864C36.7537 11.5764 37.1437 11.1264 37.1437 10.4464C37.1437 9.7664 36.7537 9.3064 35.7137 8.7064L21.3537 0.3464C20.9637 0.1064 20.5537 -0.0036 20.1637 -0.0036C19.2737 -0.0036 18.5437 0.6064 18.5437 1.8864V9.9964C18.3937 9.5264 17.9637 9.1564 17.1837 8.7064L2.8137 0.3464C2.4237 0.1064 2.0237 -0.0036 1.6237 -0.0036C0.7537 -0.0036 0.0037 0.6064 0.0037 1.8864Z" /></svg>