<svg viewBox="0 0 37.037109375 30.501953125" xmlns="http://www.w3.org/2000/svg"><path d="M0.0037 29.3852C0.0037 29.9952 0.4737 30.5052 1.0837 30.5052H21.7137C22.3137 30.5052 22.8037 29.9952 22.8037 29.3852C22.8037 28.7952 22.3137 28.3052 21.7137 28.3052H20.6437V13.0152C21.8937 13.7552 22.4037 14.8352 22.4037 16.1052C22.4037 18.2952 22.0837 20.9552 22.0837 23.2252C22.0837 25.5952 23.5437 27.0752 25.8137 27.0752C28.3037 27.0752 29.7137 25.4052 29.7137 22.4452C29.7137 19.0152 29.0437 15.0652 27.7537 8.8452L27.4637 7.4052C27.1837 6.0552 26.7737 4.9652 25.9637 3.9552L24.4137 2.0252C23.7237 1.1452 22.3637 2.1552 23.1237 3.1052L25.0637 5.5252C25.1837 5.6852 25.1937 5.9052 25.0737 6.0952L23.9237 8.2352C23.6237 8.8052 23.6937 9.1852 24.1737 9.7252L26.7137 12.4252C27.5737 16.3152 28.0537 19.7552 28.0537 22.4452C28.0537 24.3452 27.2437 25.4052 25.8137 25.4052C24.5537 25.4052 23.7337 24.5852 23.7337 23.2252C23.7337 21.2152 24.0637 18.5552 24.0637 16.1052C24.0637 13.9052 23.0637 12.1852 20.6437 11.1652V3.4752C20.6437 1.2352 19.4137 -0.0048 17.1837 -0.0048H5.6237C3.3637 -0.0048 2.1737 1.2352 2.1737 3.4752V28.3052H1.0837C0.4937 28.3052 0.0037 28.7752 0.0037 29.3852ZM4.3637 3.4952C4.3637 2.6552 4.7837 2.2052 5.6437 2.2052H17.1437C17.9937 2.2052 18.4337 2.6352 18.4337 3.4952L18.4437 28.3052H4.3637ZM6.4937 12.3852H16.3137C16.7737 12.3852 17.1137 12.0452 17.1137 11.5752V4.3352C17.1137 3.8652 16.7637 3.5252 16.3137 3.5252H6.4937C6.0337 3.5252 5.6837 3.8652 5.6837 4.3352V11.5752C5.6837 12.0452 6.0337 12.3852 6.4937 12.3852ZM35.2437 18.3452C35.9137 18.3452 36.3837 17.8852 36.4037 17.1852L36.6937 7.5052C36.7237 6.6352 36.1337 6.0452 35.2437 6.0452C34.3437 6.0452 33.7537 6.6352 33.7837 7.5052L34.0737 17.1852C34.0937 17.8852 34.5737 18.3452 35.2437 18.3452ZM35.2437 24.4152C36.2137 24.4152 37.0337 23.6252 37.0337 22.6952C37.0337 21.7552 36.2337 20.9752 35.2437 20.9752C34.2437 20.9752 33.4437 21.7552 33.4437 22.6952C33.4437 23.6252 34.2637 24.4152 35.2437 24.4152Z" /></svg>