<svg viewBox="0 0 32.07080078125 32.2861328125" xmlns="http://www.w3.org/2000/svg"><path d="M23.006 19.8352V13.0052C24.236 13.7552 24.766 14.8352 24.766 16.1052C24.766 17.7152 24.596 19.6052 24.496 21.3452L26.106 22.9252C26.106 21.0652 26.426 18.3852 26.426 16.1052C26.426 13.9052 25.426 12.1852 23.006 11.1652V3.4752C23.006 1.2352 21.776 -0.0048 19.546 -0.0048H8.546C6.796 -0.0048 5.696 0.7552 5.316 2.1452L7.376 4.2252V3.7852C7.376 2.8552 7.976 2.2952 8.976 2.2952H19.106C20.106 2.2952 20.706 2.8552 20.706 3.7852V10.9252C20.706 11.8352 20.106 12.3852 19.106 12.3852H15.556ZM29.906 31.9752C30.336 32.3852 31.006 32.3852 31.396 31.9752C31.816 31.5552 31.826 30.8852 31.396 30.4752L1.806 0.9052C1.396 0.4952 0.726 0.4952 0.296 0.9052C-0.104 1.2952 -0.104 1.9952 0.296 2.3952ZM32.066 22.4452C32.066 19.0152 31.396 15.0652 30.116 8.8452L29.826 7.4052C29.546 6.0552 29.136 4.9652 28.326 3.9552L26.776 2.0252C26.086 1.1452 24.726 2.1552 25.476 3.1052L27.426 5.5252C27.546 5.6852 27.556 5.9052 27.446 6.0952L26.286 8.2352C25.986 8.8052 26.056 9.1852 26.536 9.7252L29.076 12.4252C29.936 16.3152 30.416 19.7552 30.416 22.4452C30.416 24.1152 29.786 25.1952 28.526 25.3652L29.856 26.6852C31.296 26.0952 32.066 24.6352 32.066 22.4452ZM4.006 30.4852H24.266C24.636 30.4852 24.976 30.2652 25.166 29.9652L5.096 9.9252V28.2852H4.006C3.426 28.2852 2.926 28.7652 2.926 29.3652C2.926 29.9852 3.416 30.4852 4.006 30.4852Z" /></svg>