<svg viewBox="0 0 27.890625 27.890625" xmlns="http://www.w3.org/2000/svg"><path d="M13.9427 27.8864C21.6427 27.8864 27.8927 21.6464 27.8927 13.9464C27.8927 6.2464 21.6427 -0.0036 13.9427 -0.0036C6.2527 -0.0036 0.0027 6.2464 0.0027 13.9464C0.0027 21.6464 6.2527 27.8864 13.9427 27.8864ZM13.9427 25.5664C7.5227 25.5664 2.3227 20.3664 2.3227 13.9464C2.3227 7.5164 7.5227 2.3264 13.9427 2.3264C20.3727 2.3264 25.5627 7.5164 25.5627 13.9464C25.5627 20.3664 20.3727 25.5664 13.9427 25.5664ZM13.9427 16.1464C15.1727 16.1464 16.1627 15.1664 16.1627 13.9464C16.1627 13.1964 15.7927 12.5464 15.2127 12.1364L8.3627 7.2964C7.6927 6.8264 7.0027 7.5164 7.4627 8.2164L12.0127 15.0264C12.4527 15.6964 13.1427 16.1464 13.9427 16.1464Z" /></svg>