<svg viewBox="0 0 27.890625 27.890625" xmlns="http://www.w3.org/2000/svg"><path d="M13.9427 27.8927C21.6427 27.8927 27.8927 21.6427 27.8927 13.9427C27.8927 6.2627 21.6427 0.0027 13.9427 0.0027C6.2627 0.0027 0.0027 6.2627 0.0027 13.9427C0.0027 21.6427 6.2627 27.8927 13.9427 27.8927ZM13.9427 21.8727C13.7627 21.8727 13.5927 21.8627 13.4227 21.8427L13.0427 22.6127C12.8927 22.8727 12.6227 22.9827 12.3327 22.9527C12.0727 22.8827 11.8627 22.7127 11.8227 22.4127L11.7327 21.5627C11.3927 21.4627 11.0727 21.3327 10.7627 21.1927L10.1427 21.7927C9.9227 21.9827 9.6127 21.9827 9.3627 21.8627C9.1227 21.7127 8.9927 21.4827 9.0627 21.1727L9.2727 20.3327C8.9827 20.1427 8.7127 19.8927 8.4627 19.6627L7.6827 20.0027C7.3927 20.1227 7.1327 20.0327 6.9227 19.8127C6.7527 19.5927 6.7127 19.3327 6.8927 19.0627L7.3727 18.3427C7.1627 18.0627 7.0027 17.7427 6.8327 17.4427L5.9927 17.5027C5.7027 17.5127 5.4727 17.3227 5.3427 17.0627C5.2527 16.7927 5.3327 16.5427 5.5627 16.3527L6.2627 15.8327C6.1827 15.4927 6.1227 15.1627 6.0827 14.8227L5.2627 14.5427C4.9727 14.4627 4.8127 14.2427 4.8127 13.9427C4.8127 13.6627 4.9727 13.4227 5.2627 13.3427L6.0827 13.0827C6.1227 12.7327 6.1827 12.4127 6.2627 12.0727L5.5627 11.5527C5.3427 11.3727 5.2627 11.1027 5.3727 10.8127C5.4527 10.5527 5.7027 10.3727 5.9927 10.3927L6.8327 10.4427C7.0027 10.1127 7.1627 9.8327 7.3527 9.5427L6.8927 8.8327C6.7427 8.6027 6.7627 8.2827 6.9427 8.0627C7.1327 7.8427 7.4127 7.7827 7.6827 7.8927L8.4727 8.2127C8.7127 7.9827 8.9927 7.7627 9.2727 7.5627L9.0627 6.7227C8.9927 6.4427 9.1327 6.1927 9.3927 6.0327C9.6227 5.8927 9.9227 5.9027 10.1427 6.1127L10.7627 6.7027C11.0727 6.5627 11.4027 6.4427 11.7427 6.3427L11.8227 5.4927C11.8627 5.1927 12.0827 5.0027 12.3727 4.9527C12.6427 4.9127 12.9027 5.0127 13.0427 5.2727L13.4227 6.0427C13.6027 6.0327 13.7627 6.0327 13.9427 6.0327C14.1227 6.0327 14.3027 6.0327 14.4627 6.0427L14.8427 5.2727C15.0027 5.0127 15.2627 4.9127 15.5427 4.9527C15.8327 5.0027 16.0127 5.1927 16.0827 5.4927L16.1627 6.3427C16.5027 6.4227 16.8327 6.5727 17.1627 6.7027L17.7627 6.1127C17.9827 5.9027 18.2827 5.8927 18.5227 6.0427C18.7827 6.1927 18.8827 6.4427 18.8427 6.7427L18.6327 7.5627C18.9227 7.7827 19.1827 8.0027 19.4327 8.2327L20.2027 7.8727C20.4927 7.7827 20.7627 7.8627 20.9627 8.0827C21.1327 8.3127 21.1527 8.5727 21.0127 8.8427L20.5527 9.5427C20.7227 9.8427 20.8927 10.1427 21.0527 10.4627L21.9027 10.3727C22.2027 10.3927 22.4327 10.5527 22.5327 10.8427C22.6127 11.1127 22.5627 11.3627 22.3427 11.5627L21.6427 12.0727C21.7127 12.4027 21.7827 12.7327 21.8027 13.0827L22.6427 13.3427C22.9127 13.4227 23.0827 13.6627 23.0827 13.9427C23.0827 14.2427 22.9327 14.4627 22.6427 14.5427L21.8027 14.8227C21.7827 15.1627 21.7127 15.4927 21.6427 15.8327L22.3227 16.3427C22.5427 16.5327 22.6227 16.8027 22.5327 17.0727C22.4227 17.3527 22.1927 17.5127 21.9027 17.5027L21.0527 17.4627C20.8927 17.7727 20.7227 18.0627 20.5327 18.3427L21.0027 19.0627C21.1627 19.2927 21.1227 19.6227 20.9427 19.8227C20.7527 20.0527 20.4927 20.1227 20.2227 20.0027L19.4127 19.6727C19.1827 19.9027 18.9127 20.1427 18.6227 20.3327L18.8227 21.1627C18.8927 21.4527 18.7627 21.7127 18.5027 21.8627C18.2527 22.0127 17.9827 21.9827 17.7627 21.7927L17.1427 21.1927C16.8127 21.3327 16.5027 21.4627 16.1627 21.5627L16.0627 22.3927C16.0227 22.6927 15.8027 22.9027 15.5327 22.9527C15.2327 22.9927 15.0027 22.8727 14.8427 22.6127L14.4627 21.8427C14.2827 21.8627 14.1227 21.8727 13.9427 21.8727ZM11.3627 8.1527L13.4827 11.7427C13.6127 11.7127 13.7827 11.6927 13.9427 11.6927C14.9427 11.6927 15.7927 12.3427 16.0827 13.2327H20.2527C19.8927 10.0627 17.2127 7.6027 13.9427 7.6027C13.0327 7.6027 12.1527 7.7927 11.3627 8.1527ZM7.6027 13.9427C7.6027 15.9927 8.5627 17.8127 10.0727 18.9727L12.2527 15.4327C11.8927 15.0427 11.6927 14.5027 11.6927 13.9427C11.6927 13.3827 11.9127 12.8627 12.2527 12.4727L10.1327 8.8727C8.6027 10.0227 7.6027 11.8627 7.6027 13.9427ZM13.1227 13.9427C13.1227 14.3927 13.4927 14.7627 13.9427 14.7627C14.3927 14.7627 14.7627 14.3927 14.7627 13.9427C14.7627 13.4927 14.3927 13.1227 13.9427 13.1227C13.4927 13.1227 13.1227 13.4927 13.1227 13.9427ZM11.3027 19.7127C12.1127 20.0927 13.0027 20.3027 13.9427 20.3027C17.2127 20.3027 19.9227 17.8127 20.2527 14.6427H16.1027C15.8027 15.5427 14.9427 16.2027 13.9427 16.2027C13.7927 16.2027 13.6327 16.1827 13.4827 16.1427Z" /></svg>