<svg viewBox="0 0 37.529296875 29.791015625" xmlns="http://www.w3.org/2000/svg"><path d="M9.7527 21.4934H11.7427C12.6027 21.4934 13.2727 20.9634 13.4627 20.1534L13.8527 18.4034C13.8927 18.3934 13.9427 18.3734 13.9827 18.3634L15.5327 19.2734C16.2327 19.7034 17.0927 19.6234 17.6827 19.0134L19.0727 17.6234C19.6827 17.0034 19.7727 16.1634 19.3327 15.4634L18.3927 13.9734C18.4027 13.9134 18.4327 13.8734 18.4427 13.8234L20.1527 13.4134C20.9627 13.2034 21.4927 12.5234 21.4927 11.6734V9.8134C21.4927 8.9734 20.9727 8.2834 20.1527 8.0834L18.4427 7.6734C18.4327 7.6134 18.4027 7.5734 18.3927 7.5234L19.3327 6.0334C19.7727 5.3134 19.6827 4.4834 19.0727 3.8734L17.6827 2.4734C17.0927 1.8734 16.2327 1.7934 15.5327 2.2134L13.9827 3.1334C13.9327 3.1134 13.8927 3.1034 13.8327 3.0934L13.4627 1.3434C13.2927 0.5334 12.6027 0.0034 11.7427 0.0034H9.7527C8.8827 0.0034 8.2127 0.5334 8.0227 1.3434L7.6427 3.0934C7.5927 3.1034 7.5427 3.1134 7.4927 3.1334L5.9627 2.2134C5.2627 1.7934 4.4027 1.8734 3.8127 2.4734L2.4227 3.8734C1.8027 4.4834 1.7327 5.3334 2.1627 6.0334L3.1027 7.5234C3.0927 7.5734 3.0627 7.6134 3.0527 7.6734L1.3227 8.0834C0.5227 8.2834 0.0027 8.9734 0.0027 9.8134V11.6734C0.0027 12.5234 0.5227 13.2034 1.3227 13.4134L3.0527 13.8234C3.0627 13.8734 3.0927 13.9134 3.1027 13.9734L2.1627 15.4634C1.7227 16.1634 1.8027 17.0034 2.4227 17.6234L3.8127 19.0134C4.4027 19.6234 5.2527 19.7034 5.9427 19.2734L7.5027 18.3634C7.5427 18.3734 7.6027 18.3934 7.6427 18.4034L8.0227 20.1534C8.2127 20.9634 8.8827 21.4934 9.7527 21.4934ZM10.0127 19.5734C9.8727 19.5734 9.8027 19.5134 9.7627 19.3634L9.1727 16.9234C8.5127 16.7734 7.9127 16.4734 7.4327 16.2134L5.3027 17.5134C5.1727 17.5834 5.0727 17.5834 4.9727 17.4834L3.9327 16.4634C3.8427 16.3634 3.8327 16.2734 3.9127 16.1434L5.1927 14.0234C5.0327 13.6134 4.6727 13.0034 4.5127 12.2934L2.1027 11.7134C1.9727 11.6734 1.9027 11.6034 1.9027 11.4734V10.0234C1.9027 9.8834 1.9727 9.8134 2.1027 9.7734L4.5127 9.2034C4.6727 8.4934 5.0327 7.8734 5.1927 7.4634L3.9127 5.3434C3.8327 5.2234 3.8427 5.1234 3.9327 5.0334L4.9727 4.0034C5.0727 3.9134 5.1727 3.9134 5.3027 3.9834L7.4327 5.2734C7.9127 5.0134 8.5127 4.7134 9.1727 4.5634L9.7627 2.1334C9.8027 1.9834 9.8727 1.9134 10.0127 1.9134H11.4827C11.6227 1.9134 11.6927 1.9834 11.7327 2.1334L12.3227 4.5634C12.9727 4.7134 13.5727 5.0134 14.0527 5.2734L16.1827 3.9834C16.3127 3.9134 16.4227 3.9134 16.5127 4.0034L17.5527 5.0334C17.6527 5.1234 17.6627 5.2234 17.5827 5.3434L16.2927 7.4634C16.4627 7.8734 16.8127 8.4934 16.9827 9.2034L19.3827 9.7734C19.5227 9.8134 19.5927 9.8834 19.5927 10.0234V11.4734C19.5927 11.6034 19.5227 11.6734 19.3827 11.7134L16.9827 12.2934C16.8127 13.0034 16.4627 13.6134 16.2927 14.0234L17.5827 16.1434C17.6627 16.2734 17.6527 16.3634 17.5527 16.4634L16.5127 17.4834C16.4227 17.5834 16.3127 17.5834 16.1827 17.5134L14.0527 16.2134C13.5727 16.4734 12.9727 16.7734 12.3227 16.9234L11.7327 19.3634C11.6927 19.5134 11.6227 19.5734 11.4827 19.5734ZM10.7427 14.8734C13.0127 14.8734 14.8727 13.0334 14.8727 10.7434C14.8727 8.4634 13.0127 6.6134 10.7427 6.6134C8.4627 6.6134 6.6027 8.4634 6.6027 10.7434C6.6027 13.0334 8.4627 14.8734 10.7427 14.8734ZM10.7427 12.9034C9.5427 12.9034 8.5727 11.9534 8.5727 10.7434C8.5727 9.5434 9.5427 8.5834 10.7427 8.5834C11.9327 8.5834 12.9027 9.5434 12.9027 10.7434C12.9027 11.9534 11.9327 12.9034 10.7427 12.9034ZM27.7027 29.7934H29.2727C30.0527 29.7934 30.7027 29.3434 30.8327 28.6334L31.0927 27.2434C31.1627 27.2334 31.2027 27.2234 31.2427 27.2034L32.4027 27.9334C33.0327 28.3234 33.8127 28.2434 34.3527 27.6734L35.4627 26.5634C36.0127 26.0034 36.1227 25.2234 35.6927 24.5934L34.9627 23.4734C34.9727 23.4234 34.9827 23.3934 35.0127 23.3334L36.3627 23.0534C37.0627 22.9034 37.5327 22.2734 37.5327 21.4934V19.9634C37.5327 19.1934 37.0627 18.5534 36.3627 18.4034L35.0127 18.1334C34.9827 18.0734 34.9727 18.0334 34.9627 17.9834L35.6927 16.8534C36.1227 16.2334 36.0127 15.4634 35.4627 14.9034L34.3527 13.7834C33.8127 13.2234 33.0327 13.1234 32.4027 13.5234L31.2427 14.2434C31.2027 14.2334 31.1627 14.2234 31.0927 14.2034L30.8327 12.8334C30.7027 12.1134 30.0527 11.6634 29.2727 11.6634H27.7027C26.9227 11.6634 26.2627 12.1134 26.1227 12.8334L25.8627 14.2034C25.8127 14.2234 25.7727 14.2334 25.7127 14.2434L24.5527 13.5234C23.9227 13.1234 23.1627 13.2234 22.6127 13.7834L21.5027 14.9034C20.9627 15.4634 20.8527 16.2334 21.2627 16.8534L22.0027 17.9834C21.9827 18.0334 21.9727 18.0734 21.9527 18.1334L20.6027 18.4034C19.8927 18.5534 19.4327 19.1934 19.4327 19.9634V21.4934C19.4327 22.2734 19.8927 22.9034 20.6027 23.0534L21.9527 23.3334C21.9727 23.3934 21.9827 23.4234 22.0027 23.4734L21.2627 24.5934C20.8527 25.2234 20.9627 26.0034 21.5027 26.5634L22.6127 27.6734C23.1627 28.2434 23.9227 28.3234 24.5527 27.9334L25.7127 27.2034C25.7727 27.2234 25.8127 27.2334 25.8627 27.2434L26.1227 28.6334C26.2627 29.3434 26.9227 29.7934 27.7027 29.7934ZM28.0527 27.9734C27.8927 27.9734 27.8127 27.8934 27.7627 27.7534L27.2927 25.7834C26.7427 25.6634 26.2527 25.4734 25.7327 25.1334L24.0127 26.2134C23.9027 26.2734 23.7627 26.2634 23.6527 26.1634L23.0327 25.5234C22.9127 25.4034 22.9027 25.2934 22.9827 25.1734L24.0227 23.4834C23.9127 23.1634 23.5427 22.5734 23.4027 21.9034L21.4527 21.4534C21.3127 21.4234 21.2327 21.3134 21.2327 21.1734V20.2734C21.2327 20.1434 21.3127 20.0334 21.4527 20.0034L23.4027 19.5534C23.5427 18.8834 23.9127 18.3034 24.0227 17.9634L22.9827 16.2834C22.9027 16.1734 22.9127 16.0534 23.0327 15.9234L23.6527 15.3034C23.7627 15.1934 23.9027 15.1734 24.0127 15.2534L25.7327 16.3234C26.2527 15.9934 26.7427 15.7934 27.2927 15.6634L27.7627 13.7034C27.8127 13.5634 27.8927 13.4834 28.0527 13.4834H28.9027C29.0627 13.4834 29.1527 13.5634 29.1927 13.7034L29.6727 15.6634C30.2127 15.7934 30.7027 15.9934 31.2227 16.3234L32.9527 15.2534C33.0727 15.1734 33.1927 15.1934 33.3027 15.3034L33.9327 15.9234C34.0427 16.0534 34.0527 16.1734 33.9927 16.2834L32.9327 17.9634C33.0627 18.3034 33.4127 18.8834 33.5527 19.5534L35.5027 20.0034C35.6427 20.0334 35.7227 20.1434 35.7227 20.2734V21.1734C35.7227 21.3134 35.6427 21.4234 35.5027 21.4534L33.5527 21.9034C33.4127 22.5734 33.0627 23.1634 32.9327 23.4834L33.9927 25.1734C34.0527 25.2934 34.0427 25.4034 33.9327 25.5234L33.3027 26.1634C33.1927 26.2634 33.0727 26.2734 32.9527 26.2134L31.2227 25.1334C30.7027 25.4734 30.2127 25.6634 29.6727 25.7834L29.1927 27.7534C29.1527 27.8934 29.0627 27.9734 28.9027 27.9734ZM28.4627 23.9434C30.2327 23.9434 31.6827 22.4934 31.6827 20.7234C31.6827 18.9634 30.2327 17.5234 28.4627 17.5234C26.7027 17.5234 25.2627 18.9634 25.2627 20.7234C25.2627 22.4934 26.7027 23.9434 28.4627 23.9434ZM28.4627 22.2034C27.6627 22.2034 27.0027 21.5334 27.0027 20.7234C27.0027 19.9234 27.6627 19.2634 28.4627 19.2634C29.2727 19.2634 29.9427 19.9234 29.9427 20.7234C29.9427 21.5334 29.2727 22.2034 28.4627 22.2034Z" /></svg>