<svg viewBox="0 0 26.263671875 28.65625" xmlns="http://www.w3.org/2000/svg"><path d="M0.0037 12.8748C0.0037 14.3448 0.8237 14.9148 2.2937 14.9148H12.0037V7.5148H9.8737C7.7237 7.5148 6.4637 6.1648 6.4637 4.6648C6.4637 3.1548 7.5637 2.2848 9.0637 2.2848C10.6937 2.2848 12.0037 3.5148 12.0037 5.5348V7.5148H14.2437V14.9148H23.9637C25.4437 14.9148 26.2637 14.3448 26.2637 12.8748V9.5548C26.2637 8.0948 25.4437 7.5148 23.9637 7.5148H20.7937C21.5837 6.7648 22.0637 5.7448 22.0637 4.5348C22.0637 1.8848 19.9737 0.0048 17.3237 0.0048C15.4037 0.0048 13.8237 1.0548 13.1237 2.8848C12.4237 1.0548 10.8537 0.0048 8.9237 0.0048C6.2937 0.0048 4.1837 1.8848 4.1837 4.5348C4.1837 5.7448 4.6637 6.7648 5.4737 7.5148H2.2937C0.8937 7.5148 0.0037 8.0948 0.0037 9.5548ZM17.1837 2.2848C18.6937 2.2848 19.7837 3.1548 19.7837 4.6648C19.7837 6.1648 18.5437 7.5148 16.3837 7.5148H14.2437V5.5348C14.2437 3.5148 15.5537 2.2848 17.1837 2.2848ZM1.9537 25.1848C1.9537 27.4648 3.2937 28.6548 5.5737 28.6548H12.0037V16.3748H1.9537ZM14.2437 28.6548H20.6837C22.9537 28.6548 24.3037 27.4648 24.3037 25.1848V16.3748H14.2437Z" /></svg>