<svg viewBox="0 0 27.890625 27.890625" xmlns="http://www.w3.org/2000/svg"><path d="M13.9427 27.8864C21.6427 27.8864 27.8927 21.6464 27.8927 13.9464C27.8927 6.2464 21.6427 -0.0036 13.9427 -0.0036C6.2527 -0.0036 0.0027 6.2464 0.0027 13.9464C0.0027 21.6464 6.2527 27.8864 13.9427 27.8864ZM5.7427 5.0764C7.1227 3.7964 8.7927 2.8464 10.6527 2.3064C9.7027 3.2664 8.9027 4.6364 8.2827 6.3064C7.3027 5.9864 6.4427 5.5764 5.7427 5.0764ZM17.2427 2.3064C19.1027 2.8464 20.7627 3.7964 22.1527 5.0764C21.4527 5.5764 20.5927 5.9864 19.6027 6.3064C19.0027 4.6364 18.1827 3.2664 17.2427 2.3064ZM10.0527 6.7564C10.8127 4.6664 11.8827 3.1564 13.0527 2.6364V7.0664C11.9727 7.0264 10.9827 6.9164 10.0527 6.7564ZM14.8427 2.6364C16.0127 3.1564 17.0727 4.6664 17.8427 6.7564C16.9127 6.9164 15.9127 7.0264 14.8427 7.0664ZM1.8827 13.0464C2.0827 10.5264 3.0327 8.2164 4.5227 6.3664C5.3727 7.0164 6.4827 7.5564 7.7627 7.9664C7.3727 9.5064 7.1227 11.2064 7.0527 13.0464ZM20.8327 13.0464C20.7627 11.2064 20.5227 9.5064 20.1227 7.9664C21.4127 7.5564 22.5127 7.0164 23.3627 6.3664C24.8527 8.2164 25.8127 10.5264 26.0027 13.0464ZM14.8427 13.0464V8.8564C16.0827 8.8164 17.2527 8.6664 18.3627 8.4364C18.7127 9.8464 18.9327 11.4064 19.0027 13.0464ZM8.8827 13.0464C8.9527 11.4064 9.1827 9.8464 9.5327 8.4364C10.6327 8.6664 11.8127 8.8164 13.0527 8.8564V13.0464ZM1.8827 14.8364H7.0527C7.1227 16.7064 7.3727 18.4264 7.7627 19.9764C6.4927 20.3864 5.4027 20.9164 4.5627 21.5564C3.0527 19.6964 2.0827 17.3764 1.8827 14.8364ZM8.8827 14.8364H13.0527V19.0964C11.8227 19.1364 10.6527 19.2864 9.5527 19.5064C9.1827 18.0864 8.9427 16.5064 8.8827 14.8364ZM14.8427 19.0964V14.8364H19.0027C18.9527 16.5064 18.7027 18.0864 18.3327 19.5064C17.2527 19.2864 16.0627 19.1364 14.8427 19.0964ZM20.1227 19.9764C20.5227 18.4264 20.7627 16.7064 20.8327 14.8364H26.0027C25.8127 17.3764 24.8427 19.6964 23.3227 21.5564C22.4927 20.9164 21.3927 20.3864 20.1227 19.9764ZM14.8427 20.8864C15.9027 20.9364 16.9027 21.0264 17.8127 21.2064C17.0527 23.2464 15.9927 24.7464 14.8427 25.2664ZM10.0727 21.2064C10.9927 21.0264 11.9927 20.9364 13.0527 20.8864V25.2664C11.8927 24.7464 10.8427 23.2464 10.0727 21.2064ZM19.5927 21.6464C20.5627 21.9564 21.4127 22.3664 22.1027 22.8564C20.7427 24.1064 19.0827 25.0464 17.2527 25.5664C18.1827 24.6264 18.9927 23.2864 19.5927 21.6464ZM5.7827 22.8564C6.4827 22.3664 7.3327 21.9564 8.3027 21.6464C8.9027 23.2864 9.7027 24.6264 10.6327 25.5664C8.8027 25.0464 7.1527 24.1064 5.7827 22.8564Z" /></svg>