<svg viewBox="0 0 27.890625 27.890625" xmlns="http://www.w3.org/2000/svg"><path d="M13.9427 27.8864C21.6427 27.8864 27.8927 21.6464 27.8927 13.9464C27.8927 6.2464 21.6427 -0.0036 13.9427 -0.0036C6.2527 -0.0036 0.0027 6.2464 0.0027 13.9464C0.0027 21.6464 6.2527 27.8864 13.9427 27.8864ZM7.7827 4.9864C7.7827 5.4964 6.7927 5.6564 6.6327 6.5464C6.5227 7.0964 6.1427 7.4964 5.6727 7.4964C5.2727 7.4964 4.7727 7.1764 4.4827 6.4264C5.2627 5.4564 6.1927 4.5964 7.2327 3.8964C7.6827 4.5264 7.7827 4.6664 7.7827 4.9864ZM13.9427 26.0264C9.7227 26.0264 5.9927 23.8564 3.8327 20.5664C5.5127 20.1064 6.0827 19.2464 6.0827 17.7464C6.0827 16.0664 7.4127 16.0064 7.4127 14.6264C7.4127 14.0364 6.8227 13.6064 5.6827 12.6464L4.7827 11.8964C4.6227 11.7564 4.5527 11.5764 4.5527 11.3864C4.5527 11.0364 4.8127 10.6864 5.2127 10.6864C5.4727 10.6864 5.6327 10.8564 6.3127 11.4464C7.2827 12.2664 7.7427 12.6564 8.2827 12.6564C8.8627 12.6564 9.1027 12.2764 9.4927 12.2764C9.8027 12.2764 9.9927 12.4664 10.1327 12.8364L10.5927 14.0964C11.1327 15.6364 12.3727 15.4364 12.6627 17.0864C13.3327 21.1364 13.9327 22.4264 15.1927 22.4264C16.3827 22.4264 17.1027 21.3264 17.1027 18.7564C17.1027 16.6064 19.4727 14.7264 20.3527 14.7264C21.4927 14.7264 21.8227 18.1164 25.0427 18.7464C23.1827 23.0264 18.9127 26.0264 13.9427 26.0264Z" /></svg>