<svg viewBox="0 0 27.890625 27.890625" xmlns="http://www.w3.org/2000/svg"><path d="M13.9427 27.8864C21.6427 27.8864 27.8927 21.6464 27.8927 13.9464C27.8927 6.2464 21.6427 -0.0036 13.9427 -0.0036C6.2527 -0.0036 0.0027 6.2464 0.0027 13.9464C0.0027 21.6464 6.2527 27.8864 13.9427 27.8864ZM13.9427 25.5664C7.5227 25.5664 2.3227 20.3664 2.3227 13.9464C2.3227 7.5164 7.5227 2.3264 13.9427 2.3264C20.3727 2.3264 25.5627 7.5164 25.5627 13.9464C25.5627 20.3664 20.3727 25.5664 13.9427 25.5664ZM21.9327 10.7764L15.6427 7.9164C15.0027 7.6264 14.4627 7.4764 13.9327 7.4964C13.4027 7.4764 12.8827 7.6264 12.2227 7.9164L5.9427 10.7764C5.5327 10.9664 5.3327 11.3064 5.3327 11.6164C5.3327 11.9464 5.5327 12.2664 5.9427 12.4564L8.5627 13.6464L12.5927 11.7764C12.5627 11.7164 12.5527 11.6764 12.5527 11.6164C12.5527 11.1864 13.2627 10.8864 13.9627 10.8864C14.6527 10.8864 15.3527 11.1864 15.3527 11.6164C15.3527 12.0764 14.6527 12.3864 13.9627 12.3864C13.7427 12.3864 13.5327 12.3564 13.3427 12.3064L9.5327 14.0964L12.2227 15.3264C12.8827 15.6364 13.4027 15.7664 13.9327 15.7464C14.4627 15.7664 15.0027 15.6364 15.6427 15.3264L21.9327 12.4564C22.3427 12.2664 22.5327 11.9464 22.5327 11.6164C22.5327 11.3064 22.3427 10.9664 21.9327 10.7764ZM13.9327 19.9564C17.7227 19.9564 20.1227 18.3364 20.1227 16.4364V14.2764L16.0127 16.1564C15.2627 16.5064 14.5727 16.6764 13.9327 16.6564C13.2927 16.6764 12.6027 16.5064 11.8527 16.1564L9.4927 15.0764V18.9264C10.5727 19.5664 12.0827 19.9564 13.9327 19.9564ZM7.7427 14.2764V16.4364C7.7427 16.9764 8.0527 17.6464 8.5827 18.2264V14.6564ZM8.1327 20.1564V21.5364C8.1327 22.0264 8.4527 22.3564 8.9527 22.3564H9.1227C9.6227 22.3564 9.9527 22.0264 9.9527 21.5364V20.1564C9.9527 19.7864 9.7727 19.5264 9.4927 19.3964V18.9264C9.1427 18.7164 8.8627 18.4864 8.5827 18.2264V19.3964C8.3027 19.5064 8.1327 19.7864 8.1327 20.1564Z" /></svg>