<svg viewBox="0 0 27.890625 27.890625" xmlns="http://www.w3.org/2000/svg"><path d="M13.9427 27.8864C21.6427 27.8864 27.8927 21.6264 27.8927 13.9464C27.8927 6.2464 21.6427 -0.0036 13.9427 -0.0036C6.2627 -0.0036 0.0027 6.2464 0.0027 13.9464C0.0027 21.6264 6.2627 27.8864 13.9427 27.8864ZM13.9727 21.8164C13.6827 21.8164 13.4827 21.6164 13.4827 21.3464V20.1664C10.3227 19.9064 8.5027 17.3464 8.5027 13.8764C8.5027 10.5164 10.2427 7.8564 13.4827 7.6064V6.4564C13.4827 6.1664 13.6827 5.9564 13.9727 5.9564C14.2427 5.9564 14.4527 6.1664 14.4527 6.4564V7.6064C16.2127 7.7364 17.9827 8.6864 18.6227 10.3864C18.7327 10.6364 18.7427 10.8664 18.7427 11.0464C18.7427 11.4864 18.4527 11.7764 18.0227 11.7764C17.5527 11.7764 17.3627 11.5764 17.2027 11.1564C16.8427 9.9764 15.7327 9.1964 14.4527 9.0464V13.6064H18.1727C18.6627 13.6064 18.9927 13.9464 18.9927 14.4764V15.0964C18.9927 18.1664 17.3227 20.0164 14.4527 20.1764V21.3464C14.4527 21.6164 14.2427 21.8164 13.9727 21.8164ZM10.2427 13.8664C10.2427 16.3064 11.3227 18.3764 13.4827 18.6864V9.0764C11.2227 9.3664 10.2427 11.5564 10.2427 13.8664ZM14.4527 18.7064C16.3127 18.5664 17.3727 17.2764 17.3727 15.4464V14.9664H14.4527Z" /></svg>