<svg viewBox="0 0 27.890625 27.890625" xmlns="http://www.w3.org/2000/svg"><path d="M13.9427 27.8864C21.6427 27.8864 27.8927 21.6464 27.8927 13.9464C27.8927 10.4764 26.6327 7.3164 24.5227 4.8664L27.2527 2.1564C27.6427 1.7464 27.6427 1.0664 27.2527 0.6664C26.8227 0.2464 26.1527 0.2564 25.7427 0.6664L23.0327 3.3764C20.5927 1.2764 17.4227 -0.0036 13.9427 -0.0036C6.2527 -0.0036 0.0027 6.2464 0.0027 13.9464C0.0027 17.4164 1.2727 20.5864 3.3727 23.0364L0.6727 25.7464C0.2427 26.1564 0.2627 26.8264 0.6727 27.2364C1.0627 27.6464 1.7327 27.6564 2.1627 27.2464L4.8627 24.5264C7.3127 26.6164 10.4827 27.8864 13.9427 27.8864ZM13.9427 2.3264C16.4427 2.3264 18.7727 3.1164 20.6627 4.4564C18.8827 4.1164 16.5327 4.8964 13.9427 6.6764C11.3627 4.8964 9.0127 4.1164 7.2227 4.4564C9.1227 3.1164 11.4427 2.3264 13.9427 2.3264ZM6.8727 6.8864C7.8327 5.9164 9.7927 6.3664 12.2227 7.9664C11.4827 8.5864 10.7427 9.2564 9.9927 10.0064C9.2527 10.7464 8.5727 11.4964 7.9727 12.2264C6.3727 9.8064 5.9227 7.8464 6.8727 6.8864ZM17.8827 9.9964C17.1427 9.2564 16.4027 8.5764 15.6727 7.9664C18.1027 6.3664 20.0527 5.9164 21.0127 6.8864C21.9727 7.8464 21.5227 9.7864 19.9227 12.2264C19.3227 11.4864 18.6327 10.7464 17.8827 9.9964ZM2.3227 13.9464C2.3227 11.4464 3.1127 9.1164 4.4527 7.2364C4.1327 8.9964 4.9127 11.3464 6.6727 13.9364C4.8927 16.5164 4.1127 18.8664 4.4527 20.6564C3.1127 18.7564 2.3227 16.4464 2.3227 13.9464ZM25.5627 13.9464C25.5627 16.4464 24.7727 18.7564 23.4327 20.6564C23.7727 18.8764 22.9927 16.5264 21.2227 13.9464C22.9827 11.3564 23.7727 8.9964 23.4327 7.2364C24.7727 9.1164 25.5627 11.4464 25.5627 13.9464ZM11.4727 16.3964C10.6227 15.5564 9.8827 14.7364 9.2427 13.9464C9.8827 13.1564 10.6327 12.3364 11.4727 11.4964C12.3227 10.6464 13.1427 9.8964 13.9427 9.2564C14.7427 9.8964 15.5627 10.6364 16.3927 11.4864C17.2427 12.3364 17.9927 13.1564 18.6327 13.9464C17.9927 14.7564 17.2427 15.5764 16.3927 16.4164C15.5627 17.2664 14.7427 18.0064 13.9427 18.6464C13.1527 17.9964 12.3227 17.2364 11.4727 16.3964ZM6.8927 21.0164C5.9227 20.0464 6.3727 18.0864 7.9827 15.6564C8.5827 16.3964 9.2527 17.1464 10.0127 17.8864C10.7627 18.6364 11.5027 19.3064 12.2327 19.9164C9.8127 21.5164 7.8427 21.9664 6.8927 21.0164ZM21.0027 21.0164C20.0427 21.9664 18.0927 21.5164 15.6727 19.9164C16.4027 19.3164 17.1427 18.6464 17.8827 17.8964C18.6327 17.1464 19.3027 16.4064 19.9227 15.6664C21.5227 18.0864 21.9727 20.0464 21.0027 21.0164ZM13.9427 25.5664C11.4427 25.5664 9.1327 24.7764 7.2427 23.4464C9.0127 23.7664 11.3727 22.9864 13.9627 21.2064C16.5327 22.9864 18.8827 23.7664 20.6627 23.4364C18.7627 24.7764 16.4427 25.5664 13.9427 25.5664Z" /></svg>