<svg viewBox="0 0 25.169921875 25.169921875" xmlns="http://www.w3.org/2000/svg"><path d="M4.2937 25.1692H20.8737C23.7437 25.1692 25.1737 23.7592 25.1737 20.9492V4.2392C25.1737 1.4192 23.7437 -0.0008 20.8737 -0.0008H4.2937C1.4337 -0.0008 0.0037 1.4192 0.0037 4.2392V20.9492C0.0037 23.7592 1.4337 25.1692 4.2937 25.1692ZM4.3237 22.9692C2.9537 22.9692 2.2037 22.2392 2.2037 20.8192V4.3592C2.2037 2.9392 2.9537 2.1992 4.3237 2.1992H20.8537C22.2037 2.1992 22.9737 2.9392 22.9737 4.3592V20.8192C22.9737 22.2392 22.2037 22.9692 20.8537 22.9692ZM8.2737 18.8392C8.9837 18.8392 9.3837 18.3892 9.3837 17.6192V13.1092H15.7737V17.6192C15.7737 18.3792 16.1837 18.8392 16.8537 18.8392C17.5637 18.8392 17.9637 18.3892 17.9637 17.6192V7.2692C17.9637 6.5092 17.5637 6.0592 16.8537 6.0592C16.1837 6.0592 15.7737 6.5192 15.7737 7.2692V11.3992H9.3837V7.2692C9.3837 6.5092 8.9837 6.0592 8.2737 6.0592C7.6037 6.0592 7.2037 6.5192 7.2037 7.2692V17.6192C7.2037 18.3792 7.6037 18.8392 8.2737 18.8392Z" /></svg>