<svg viewBox="0 0 27.890625 27.890625" xmlns="http://www.w3.org/2000/svg"><path d="M13.9427 27.8864C21.6427 27.8864 27.8927 21.6464 27.8927 13.9464C27.8927 6.2464 21.6427 -0.0036 13.9427 -0.0036C6.2527 -0.0036 0.0027 6.2464 0.0027 13.9464C0.0027 21.6464 6.2527 27.8864 13.9427 27.8864ZM13.9427 25.5664C7.5227 25.5664 2.3227 20.3664 2.3227 13.9464C2.3227 7.5164 7.5227 2.3264 13.9427 2.3264C20.3727 2.3264 25.5627 7.5164 25.5627 13.9464C25.5627 20.3664 20.3727 25.5664 13.9427 25.5664ZM19.9727 15.0964C20.2627 15.3664 20.5727 15.3964 20.8627 15.1164L22.9027 13.0964C23.1727 12.8364 23.1627 12.4964 22.8827 12.2064L22.3827 11.7164C22.1027 11.4464 21.9527 11.4064 21.6527 11.4264L20.8727 11.5164L20.3527 11.0164L20.5927 10.0664C20.7127 9.5964 20.5327 9.1164 20.0427 8.6164L18.6727 7.2764C16.7927 5.3964 13.3127 5.1964 11.4027 7.1264C11.0627 7.4464 11.1127 7.7964 11.3227 8.0364C11.5027 8.1864 11.7427 8.2764 11.9727 8.1764C13.2927 7.7964 14.4327 7.7264 15.4227 8.3164L14.9027 9.6764C14.6827 10.2664 14.7927 10.6764 15.1627 11.0464L16.6627 12.5464C16.9527 12.8364 17.2527 12.9064 17.6927 12.8264L18.7727 12.5964L19.2927 13.1264L19.2127 13.8864C19.1827 14.1864 19.2127 14.3864 19.4727 14.6264ZM7.9127 20.9364C8.5327 21.5464 9.2327 21.4964 9.8327 20.8064L16.1227 13.6564L14.1127 11.6464L6.9427 17.8964C6.2327 18.5164 6.1927 19.1964 6.8127 19.8064Z" /></svg>