<svg viewBox="0 0 25.169921875 25.169921875" xmlns="http://www.w3.org/2000/svg"><path d="M4.2937 25.1652H20.8737C23.7437 25.1652 25.1737 23.7452 25.1737 20.9352V4.2352C25.1737 1.4252 23.7437 -0.0048 20.8737 -0.0048H4.2937C1.4337 -0.0048 0.0037 1.4052 0.0037 4.2352V20.9352C0.0037 23.7652 1.4337 25.1652 4.2937 25.1652ZM4.3237 22.9652C2.9537 22.9652 2.2037 22.2352 2.2037 20.8252V4.3452C2.2037 2.9252 2.9537 2.2052 4.3237 2.2052H20.8537C22.2037 2.2052 22.9737 2.9252 22.9737 4.3452V20.8252C22.9737 22.2352 22.2037 22.9652 20.8537 22.9652ZM6.8037 15.1352C6.8037 18.6252 9.0637 20.7452 12.2737 20.7452C14.6937 20.7452 16.3537 19.7652 17.4637 17.4952C18.0637 16.3252 18.5237 14.9152 19.0137 13.2852C19.2237 12.6152 19.5137 11.7852 19.5137 11.4152C19.5137 10.9752 19.1837 10.6752 18.7337 10.6752C18.2137 10.6752 17.9137 10.9952 17.5437 11.7452L16.4337 14.0852C16.3237 14.3252 16.2137 14.4052 16.0937 14.4052C15.9237 14.4052 15.8337 14.3052 15.8337 14.0652V5.7452C15.8337 5.2652 15.4337 4.8652 14.9537 4.8652C14.4737 4.8652 14.0937 5.2652 14.0937 5.7452V11.6452C13.8737 11.5952 13.6537 11.5152 13.4237 11.4752V4.5752C13.4237 4.1152 13.0437 3.7052 12.5537 3.7052C12.0737 3.7052 11.6737 4.1152 11.6737 4.5752V11.3752C11.4437 11.4052 11.2137 11.4252 10.9737 11.4752V5.2652C10.9737 4.7852 10.5837 4.4052 10.1037 4.4052C9.6237 4.4052 9.2237 4.7852 9.2237 5.2652V12.0352C8.9837 12.1452 8.7737 12.2752 8.5537 12.4052V7.7552C8.5537 7.2752 8.1637 6.8652 7.6937 6.8652C7.2037 6.8652 6.8037 7.2752 6.8037 7.7552Z" /></svg>