<svg viewBox="0 0 25.2109375 25.2109375" xmlns="http://www.w3.org/2000/svg"><path d="M23.6137 1.6166C22.2137 0.2166 20.2437 -0.0034 17.9137 -0.0034H7.2637C4.9637 -0.0034 2.9937 0.2166 1.6037 1.6166C0.2037 3.0066 0.0037 4.9666 0.0037 7.2566V17.9066C0.0037 20.2466 0.2037 22.2066 1.6037 23.5966C2.9937 24.9966 4.9637 25.2066 7.2837 25.2066H17.9137C20.2437 25.2066 22.2137 24.9966 23.6137 23.5966C25.0037 22.2066 25.2137 20.2466 25.2137 17.9066V7.2866C25.2137 4.9466 25.0037 3.0066 23.6137 1.6166ZM6.7937 15.2666V7.6566C6.7937 7.1666 7.2037 6.7366 7.7237 6.7366C8.2037 6.7366 8.6237 7.1666 8.6237 7.6566V12.4366C8.8337 12.3166 9.0337 12.1866 9.2937 12.0766V5.0866C9.2937 4.5966 9.7037 4.1966 10.2037 4.1966C10.6937 4.1966 11.1137 4.5966 11.1137 5.0866V11.4866C11.3437 11.4466 11.5837 11.4166 11.8237 11.3866V4.3866C11.8237 3.9066 12.2237 3.4866 12.7237 3.4866C13.2337 3.4866 13.6337 3.9066 13.6337 4.3866V11.4666C13.8637 11.5366 14.0937 11.6166 14.3137 11.6766V5.5766C14.3137 5.0866 14.7137 4.6766 15.2137 4.6766C15.6937 4.6766 16.1037 5.0866 16.1037 5.5766V14.1666C16.1037 14.4066 16.2037 14.5166 16.3837 14.5166C16.5037 14.5166 16.6237 14.4366 16.7237 14.1766L17.8737 11.7666C18.2537 10.9966 18.5537 10.6666 19.1037 10.6666C19.5737 10.6666 19.9237 10.9766 19.9237 11.4266C19.9237 11.8166 19.6037 12.6766 19.3837 13.3666C18.8837 15.0566 18.4037 16.5066 17.7737 17.7166C16.6437 20.0466 14.9337 21.0366 12.4437 21.0366C9.1237 21.0366 6.7937 18.8366 6.7937 15.2666Z" /></svg>