<svg viewBox="0 0 22.326171875 28.765625" xmlns="http://www.w3.org/2000/svg"><path d="M9.6527 -0.0045C3.8727 -0.0045 0.0027 3.8855 0.0027 10.2855V13.2655C0.0027 16.4155 1.4927 18.2655 4.0327 18.2955C4.3427 19.2955 5.1727 19.9055 6.3127 19.9055C6.7227 19.9055 7.1227 19.8355 7.5027 19.7055C7.8627 20.8055 8.7627 21.4755 9.9527 21.4755C10.2627 21.4755 10.5927 21.4355 10.9227 21.3455V25.8955C10.9227 27.6155 12.0727 28.7655 13.6827 28.7655C15.3127 28.7655 16.4627 27.6155 16.4627 25.8955V14.4755C16.4627 14.4055 16.5027 14.3555 16.5727 14.3555C16.6227 14.3555 16.6627 14.3955 16.6827 14.4555L17.5927 16.6355C18.0627 17.7055 18.8527 18.2755 19.8227 18.2755C21.1527 18.2755 22.3227 17.4355 22.3227 15.9255C22.3227 15.5155 22.2427 14.9755 22.0827 14.4955L19.6727 7.7255C17.8527 2.5955 14.4827 -0.0045 9.6527 -0.0045ZM9.5827 1.8855C13.4127 1.8855 16.3427 3.6455 18.0027 8.3155L20.4227 15.0655C20.4927 15.2755 20.5327 15.4455 20.5327 15.6855C20.5327 16.1555 20.1827 16.5655 19.6327 16.5655C19.1727 16.5655 18.8927 16.2855 18.6927 15.8155L16.8327 11.6655C16.5327 10.9755 16.1027 10.7555 15.6227 10.7555C15.0527 10.7555 14.6427 11.2155 14.6427 11.8355V26.0155C14.6427 26.5955 14.2427 27.0055 13.6827 27.0055C13.1227 27.0055 12.7427 26.5955 12.7427 26.0155V15.8955C12.7427 15.4255 12.3327 15.0555 11.8527 15.0555C11.3927 15.0555 11.0027 15.4255 11.0027 15.8955V19.5355C10.7727 19.6455 10.4627 19.7155 10.1827 19.7155C9.5027 19.7155 9.0927 19.2755 9.0927 18.5555V15.3855C9.0927 14.8755 8.6827 14.5355 8.2127 14.5355C7.7627 14.5355 7.3527 14.8755 7.3527 15.3855V17.9655C7.1227 18.0755 6.8127 18.1455 6.5527 18.1455C5.8527 18.1455 5.4527 17.7055 5.4527 16.9755V14.8455C5.4527 14.3555 5.0327 14.0155 4.5627 14.0155C4.1127 14.0155 3.7227 14.3555 3.7227 14.8455V16.4155C2.5027 16.4155 1.8027 15.1755 1.8027 12.9855V10.4955C1.8027 5.0055 4.7627 1.8855 9.5827 1.8855Z" /></svg>