<svg viewBox="0 0 26.273667813398603 30.12964067942439" xmlns="http://www.w3.org/2000/svg"><path d="M6.8327 -0.002C3.0627 -0.002 0.0027 3.058 0.0027 6.838C0.0027 8.458 0.5727 9.968 1.5127 11.138C1.7527 11.428 2.0227 11.538 2.2827 11.538C2.9527 11.538 3.5227 10.748 2.9527 10.058C2.2127 9.188 1.7927 8.068 1.7927 6.838C1.7927 4.048 4.0427 1.788 6.8327 1.788C9.6227 1.788 11.8627 4.048 11.8627 6.838V7.118C11.8827 7.738 12.3027 8.008 12.7427 8.008C13.1627 8.008 13.6027 7.708 13.6427 7.228C13.6627 7.138 13.6627 7.018 13.6627 6.838C13.6627 3.058 10.6127 -0.002 6.8327 -0.002ZM20.1227 29.458C25.7027 27.438 27.5627 22.808 25.3927 16.828L24.5027 14.368C23.6627 12.118 22.0927 11.128 20.8627 11.568C20.5727 11.678 20.4827 11.878 20.5727 12.138L20.9727 13.238C21.1627 13.758 21.0027 14.098 20.6827 14.218C20.3527 14.328 20.0027 14.178 19.8127 13.658L19.5527 12.948C19.0627 11.608 17.8927 11.048 16.7527 11.468C16.2327 11.658 16.0627 11.958 16.2327 12.398L16.7727 13.888C16.9527 14.408 16.7927 14.748 16.4927 14.878C16.1427 14.998 15.7927 14.838 15.6027 14.318L15.1027 12.948C14.5627 11.448 13.4427 11.058 12.3227 11.468C11.8227 11.648 11.6527 11.978 11.8027 12.398L12.8627 15.308C13.0527 15.828 12.8827 16.178 12.5827 16.298C12.2327 16.418 11.8827 16.258 11.6927 15.738L8.1527 5.988C7.8027 5.028 6.9627 4.648 6.1527 4.938C5.2927 5.248 4.9227 6.088 5.2627 7.038L10.4627 21.318C10.5827 21.668 10.4327 21.928 10.2127 22.008C9.9927 22.098 9.7627 22.028 9.4927 21.728L5.9727 17.948C5.4527 17.408 4.9127 17.268 4.3327 17.488C3.4627 17.798 3.1127 18.608 3.3727 19.348C3.4827 19.628 3.6327 19.848 3.7727 20.028L8.1227 25.488C11.7827 30.078 16.0227 30.958 20.1227 29.458Z" /></svg>