<svg viewBox="0 0 27.890625 27.890625" xmlns="http://www.w3.org/2000/svg"><path d="M13.9427 27.8864C21.6427 27.8864 27.8927 21.6264 27.8927 13.9464C27.8927 6.2464 21.6427 -0.0036 13.9427 -0.0036C6.2627 -0.0036 0.0027 6.2464 0.0027 13.9464C0.0027 21.6264 6.2627 27.8864 13.9427 27.8864ZM9.6127 16.1864C9.6427 14.3864 10.1127 13.2864 11.0927 12.0064C12.2327 10.4564 13.7527 8.6564 14.8927 6.4564C15.1727 5.8764 15.4527 5.5064 15.9927 5.5064C16.5827 5.5064 17.0527 5.9364 17.0527 6.6264C17.0527 7.9564 15.7727 9.8264 15.7727 10.8564C15.7727 11.4264 16.2127 11.7864 16.9227 11.7864H19.6027C20.3427 11.7864 20.9227 12.3864 20.9227 13.1364C20.9227 13.5364 20.7627 13.9064 20.5527 14.1264C20.4127 14.2164 20.3827 14.2864 20.5127 14.3864C20.7127 14.5764 20.8127 14.9664 20.8127 15.3164C20.8127 15.8364 20.5927 16.2264 20.2227 16.4464C20.0927 16.5164 20.0827 16.6264 20.1627 16.7464C20.3427 16.9564 20.4527 17.2664 20.4527 17.6064C20.4527 18.2064 20.0427 18.6664 19.5927 18.8364C19.4927 18.8664 19.4927 18.9464 19.5527 19.0564C19.6327 19.2064 19.7127 19.4564 19.7127 19.7264C19.7127 20.4564 19.1227 20.7964 18.5127 20.9564C18.1027 21.0564 17.3727 21.1264 16.4027 21.1264L15.3527 21.1064C11.8127 21.0864 9.5727 18.9764 9.6127 16.1864ZM5.8927 16.2464C5.8927 13.9164 7.1827 12.0764 8.9027 12.0764H9.9927C9.3527 12.9164 8.6127 14.2564 8.5827 16.1764C8.5627 17.9064 9.1427 19.4164 10.5427 20.4264H9.1727C7.2727 20.4264 5.8927 18.5264 5.8927 16.2464Z" /></svg>