<svg viewBox="0 0 23.45244468521053 29.23046875" xmlns="http://www.w3.org/2000/svg"><path d="M11.0209 29.2348C15.3709 29.2348 18.0609 27.4148 19.8709 23.7648C20.9109 21.7348 21.7209 19.3048 22.5809 16.4848C22.9309 15.3348 23.4509 13.8748 23.4509 13.2248C23.4509 12.4848 22.9009 11.9948 22.1409 11.9948C21.2609 11.9948 20.7609 12.5348 20.1209 13.8348L18.2309 17.8248C18.0209 18.2648 17.8109 18.4248 17.5909 18.4248C17.3109 18.4248 17.0509 18.2648 17.1209 17.7848L18.7809 3.5248C18.8709 2.6248 18.2809 2.1048 17.6109 1.9648C16.8909 1.8348 16.0709 2.1848 15.9209 3.0748L14.1809 13.6948C13.8109 13.5648 13.4009 13.4548 12.9709 13.3748V1.4248C12.9709 0.6448 12.3109 0.0048 11.5009 0.0048C10.7009 0.0048 10.0409 0.6448 10.0409 1.4248V13.2248C9.6009 13.2448 9.1609 13.3148 8.7409 13.3848L7.3309 2.8848C7.2109 1.9248 6.4309 1.5748 5.6909 1.6948C4.9909 1.8048 4.3409 2.3948 4.4509 3.2948L5.8109 14.3148C5.3609 14.5348 4.9709 14.7648 4.5809 15.0148L2.8509 6.5448C2.6609 5.6148 1.8909 5.2748 1.1909 5.3848C0.5109 5.5048 -0.1191 6.0948 0.0209 7.0448L1.6609 19.6348C2.4409 25.6348 5.6009 29.2348 11.0209 29.2348Z" /></svg>