<svg viewBox="0 0 30.902053626732254 24.580381705101342" xmlns="http://www.w3.org/2000/svg"><path d="M3.4466 0.3842C1.9066 2.1442 0.7166 4.3042 0.0466 6.5642C-0.2934 7.7442 1.4566 8.3642 1.8666 6.9942C2.4466 5.0242 3.5066 3.1642 4.8666 1.6142C5.7766 0.5842 4.3466 -0.6358 3.4466 0.3842ZM24.4666 23.8842C29.8866 21.9242 31.8766 16.1442 30.4666 10.9242L29.3566 6.7742C28.5866 3.9342 26.9266 3.1842 24.7066 3.7142C23.2466 1.9942 20.9766 1.8542 19.3766 2.5142C17.8766 1.3342 16.0966 0.9042 13.9466 1.5442L8.9466 3.0442C5.6466 4.0342 6.7666 9.2542 11.0466 8.2042L14.3566 7.3942C15.1966 7.1842 15.6666 7.2542 16.0666 7.7642C16.9966 9.0242 17.8266 11.1842 17.8266 12.2342C17.8266 13.7742 16.9666 14.7942 14.9466 14.7942C13.9666 14.7942 13.1866 14.2742 12.0366 13.3042L9.3266 11.0142C6.9666 9.0042 2.8466 11.9642 5.6366 14.9442L10.2966 19.9142C14.0866 23.9742 19.5966 25.6442 24.4666 23.8842ZM24.3666 6.2042C24.6266 7.0642 26.0766 6.8742 25.7466 5.7342C25.7066 5.5842 25.6466 5.4242 25.5966 5.2742C26.7966 5.1642 27.3366 6.1042 27.5566 6.8742L28.6866 11.2942C29.8366 15.6942 28.3866 20.4242 23.8766 22.0742C20.0166 23.4742 15.2366 22.5542 11.6766 18.8142L6.9466 13.8042C5.8866 12.6842 7.1366 11.4142 8.4066 12.4342L10.7366 14.2942C12.4466 15.6642 13.7266 16.4942 15.2866 16.4942C18.0866 16.4942 19.5966 14.6542 19.5966 12.1142C19.5966 10.5742 18.6766 8.0742 17.6566 6.7242C16.7066 5.4642 15.5566 5.2842 13.6366 5.7642L10.3366 6.5842C8.9466 6.9142 8.2866 4.9442 9.7366 4.5242L14.4966 3.1842C17.5266 2.3242 19.1166 4.1442 20.7666 6.8442C21.3066 7.7242 22.7566 7.1242 22.2066 6.0942C21.7366 5.2442 21.2466 4.4842 20.7066 3.8242C22.0266 3.5942 23.7466 4.1142 24.3666 6.2042ZM3.4466 19.9342C4.3466 20.9542 5.7766 19.7342 4.8666 18.7042C3.5066 17.1542 2.4466 15.2942 1.8666 13.3242C1.4566 11.9442 -0.2934 12.5642 0.0466 13.7642C0.7166 16.0242 1.9066 18.1842 3.4466 19.9342Z" /></svg>