<svg viewBox="0 0 32.4396834383986 26.982321534792323" xmlns="http://www.w3.org/2000/svg"><path d="M0.9337 1.841H9.7637C10.1037 1.021 10.7637 0.351 11.8037 0.001H0.9337C0.4137 0.001 0.0037 0.411 0.0037 0.911C0.0037 1.421 0.4137 1.841 0.9337 1.841ZM26.2937 26.321C31.8737 24.281 33.7237 19.651 31.5537 13.681L30.6637 11.211C29.8337 8.951 28.2637 7.971 27.0337 8.421C26.7437 8.521 26.6437 8.721 26.7437 8.981L27.1437 10.081C27.3337 10.591 27.1637 10.951 26.8537 11.061C26.5237 11.181 26.1637 11.021 25.9737 10.501L25.7137 9.791C25.2237 8.461 24.0637 7.901 22.9137 8.311C22.3937 8.501 22.2337 8.801 22.3937 9.241L22.9437 10.731C23.1237 11.251 22.9537 11.591 22.6537 11.721C22.3137 11.841 21.9537 11.671 21.7637 11.161L21.2737 9.791C20.7237 8.301 19.6037 7.901 18.4837 8.311C17.9937 8.491 17.8137 8.821 17.9637 9.241L19.0337 12.151C19.2237 12.671 19.0437 13.031 18.7437 13.141C18.4037 13.261 18.0437 13.101 17.8537 12.581L14.3137 2.831C13.9737 1.891 13.1237 1.491 12.3137 1.781C11.4537 2.091 11.0837 2.921 11.4337 3.881L16.6237 18.161C16.7437 18.511 16.5937 18.781 16.3837 18.871C16.1637 18.931 15.9237 18.871 15.6537 18.581L12.1437 14.811C11.6037 14.251 11.0737 14.121 10.5037 14.331C9.6237 14.641 9.2837 15.451 9.5437 16.191C9.6537 16.471 9.8037 16.691 9.9437 16.881L14.2837 22.331C17.9537 26.921 22.1937 27.811 26.2937 26.321ZM0.9337 6.971H10.5537C10.3337 6.371 10.1137 5.741 9.8937 5.131H0.9337C0.4137 5.131 0.0037 5.551 0.0037 6.061C0.0037 6.561 0.4137 6.971 0.9337 6.971ZM0.9337 12.111H8.2737C8.7737 12.111 9.1837 11.701 9.1837 11.201C9.1837 10.681 8.7737 10.271 8.2737 10.271H0.9337C0.4137 10.271 0.0037 10.681 0.0037 11.201C0.0037 11.701 0.4137 12.111 0.9337 12.111Z" /></svg>