<svg viewBox="0 0 26.93359375 27.973596274119434" xmlns="http://www.w3.org/2000/svg"><path d="M20.2716 8.832C20.3616 3.842 16.3116 0.072 9.9516 0.012L8.1116 0.002C6.3316 -0.008 5.0216 0.122 4.2816 0.332C3.2116 0.592 2.1916 1.232 2.1916 2.532C2.1916 3.052 2.3216 3.442 2.4916 3.732C2.6016 3.902 2.5816 4.052 2.4016 4.112C1.5716 4.462 0.8616 5.262 0.8616 6.332C0.8616 6.962 1.0416 7.492 1.3516 7.872C1.5016 8.082 1.4816 8.262 1.2316 8.412C0.6116 8.762 0.1816 9.532 0.1816 10.422C0.1816 11.062 0.3816 11.732 0.7416 12.062C0.9716 12.252 0.9316 12.392 0.7016 12.592C0.2716 12.952 0.0016 13.562 0.0016 14.342C0.0016 15.652 1.0216 16.732 2.3816 16.732H7.1916C8.4116 16.732 9.2116 17.362 9.2116 18.372C9.2116 20.192 6.9416 23.542 6.9416 25.952C6.9416 27.232 7.7516 27.972 8.8316 27.972C9.8016 27.972 10.2816 27.302 10.8016 26.282C12.8416 22.332 15.5416 19.132 17.6116 16.382C19.3616 14.052 20.2216 12.062 20.2716 8.832ZM26.9316 8.742C26.9316 4.692 24.3916 1.302 21.0116 1.302H18.6116C21.0716 3.092 22.1616 5.802 22.1116 8.872C22.0616 12.292 20.7416 14.742 19.5516 16.212H21.5216C24.5716 16.212 26.9316 12.932 26.9316 8.742Z" /></svg>