<svg viewBox="0 0 28.9296875 28.642578125" xmlns="http://www.w3.org/2000/svg"><path d="M0.0037 18.0719C0.0037 20.8919 1.4237 22.3119 4.2937 22.3119H4.7537V10.5719C4.7537 6.7019 7.0237 4.4719 10.9237 4.4719H22.3037V4.2419C22.3037 1.4219 20.8637 0.0019 18.0237 0.0019H4.2937C1.4237 0.0019 0.0037 1.4219 0.0037 4.2419ZM10.9237 28.6419H24.6537C27.4937 28.6419 28.9337 27.2219 28.9337 24.4019V10.5719C28.9337 7.7519 27.4937 6.3319 24.6537 6.3319H10.9237C8.0537 6.3319 6.6337 7.7419 6.6337 10.5719V24.4019C6.6337 27.2219 8.0537 28.6419 10.9237 28.6419ZM12.6237 19.8419V13.0819C12.6237 12.6619 12.9737 12.2919 13.4437 12.2919C13.8637 12.2919 14.2337 12.6619 14.2337 13.0819V17.3219C14.4137 17.2119 14.5737 17.0919 14.8337 17.0119V10.8319C14.8337 10.3819 15.2037 10.0219 15.6237 10.0219C16.0637 10.0219 16.4237 10.3819 16.4237 10.8319V16.4919C16.6437 16.4519 16.8537 16.4219 17.0637 16.4019V10.2019C17.0637 9.7619 17.4137 9.4019 17.8737 9.4019C18.3037 9.4019 18.6637 9.7619 18.6637 10.2019V16.4719C18.8637 16.5419 19.0837 16.6019 19.2537 16.6519V11.2419C19.2537 10.8119 19.6237 10.4619 20.0737 10.4619C20.4837 10.4619 20.8637 10.8119 20.8637 11.2419V18.8419C20.8637 19.0619 20.9337 19.1719 21.0937 19.1719C21.2237 19.1719 21.3137 19.0719 21.3937 18.8519L22.4237 16.7319C22.7637 16.0519 23.0237 15.7519 23.5037 15.7519C23.9237 15.7519 24.2137 16.0219 24.2137 16.4319C24.2137 16.7719 23.9537 17.5419 23.7437 18.1519C23.3137 19.6319 22.9037 20.9319 22.3237 22.0119C21.3237 24.0719 19.8237 24.9519 17.6237 24.9519C14.6737 24.9519 12.6237 23.0119 12.6237 19.8419Z" /></svg>