<svg viewBox="0 0 27.890625 27.890625" xmlns="http://www.w3.org/2000/svg"><path d="M13.9427 27.8864C21.6427 27.8864 27.8927 21.6464 27.8927 13.9464C27.8927 6.2464 21.6427 -0.0036 13.9427 -0.0036C6.2527 -0.0036 0.0027 6.2464 0.0027 13.9464C0.0027 21.6464 6.2527 27.8864 13.9427 27.8864ZM13.9427 25.5664C7.5227 25.5664 2.3227 20.3664 2.3227 13.9464C2.3227 7.5164 7.5227 2.3264 13.9427 2.3264C20.3727 2.3264 25.5627 7.5164 25.5627 13.9464C25.5627 20.3664 20.3727 25.5664 13.9427 25.5664ZM9.7027 16.0964C9.6627 18.7964 11.8427 20.8464 15.2827 20.8664L16.2927 20.8764C17.2427 20.8864 17.9527 20.8264 18.3427 20.7264C18.9327 20.5664 19.5127 20.2364 19.5127 19.5264C19.5127 19.2664 19.4327 19.0164 19.3427 18.8764C19.2927 18.7864 19.2927 18.7064 19.3827 18.6664C19.8227 18.4964 20.2227 18.0464 20.2227 17.4764C20.2227 17.1264 20.1227 16.8264 19.9427 16.6364C19.8627 16.5264 19.8827 16.4064 20.0027 16.3364C20.3527 16.1364 20.5727 15.7364 20.5727 15.2464C20.5727 14.9164 20.4827 14.5364 20.2727 14.3564C20.1627 14.2464 20.1827 14.1864 20.3127 14.0864C20.5327 13.8764 20.6727 13.5364 20.6727 13.1364C20.6727 12.3964 20.1227 11.8164 19.4027 11.8164H16.8027C16.1227 11.8164 15.6927 11.4864 15.6927 10.9264C15.6927 9.9364 16.9227 8.1164 16.9227 6.8264C16.9227 6.1364 16.4727 5.7464 15.9027 5.7464C15.3627 5.7464 15.1027 6.0964 14.8327 6.6564C13.7227 8.7864 12.2527 10.5264 11.1427 12.0264C10.2027 13.2764 9.7327 14.3564 9.7027 16.0964ZM6.1127 16.1464C6.1127 18.3564 7.4527 20.1964 9.2827 20.1964H10.6227C9.2727 19.2264 8.6927 17.7564 8.7227 16.0764C8.7527 14.2164 9.4627 12.9164 10.0927 12.1164H9.0227C7.3527 12.1164 6.1127 13.8864 6.1127 16.1464Z" /></svg>