<svg viewBox="0 0 22.326171875 29.763671875" xmlns="http://www.w3.org/2000/svg"><path d="M9.6669 29.7597C14.4669 29.7597 17.8569 27.1697 19.6769 22.0397L22.0769 15.2697C22.2469 14.8097 22.3269 14.3597 22.3269 13.9497C22.3269 12.4997 21.2369 11.4797 19.8369 11.4797C18.8969 11.4797 18.0469 12.0497 17.5869 13.1297L16.6969 15.3097C16.6669 15.3697 16.6269 15.4097 16.5669 15.4097C16.5069 15.4097 16.4769 15.3497 16.4769 15.2897V4.3197C16.4769 2.7197 15.4769 1.7097 13.9469 1.7097C13.3869 1.7097 12.8769 1.9097 12.4969 2.2697C12.3169 0.8597 11.4169 -0.0003 10.0669 -0.0003C8.7369 -0.0003 7.8069 0.8897 7.5969 2.2397C7.2569 1.8997 6.7669 1.7097 6.2769 1.7097C4.8569 1.7097 3.9069 2.7097 3.9069 4.2197V5.7397C3.5369 5.3597 2.9769 5.1497 2.4069 5.1497C0.9869 5.1497 -0.0031 6.1897 -0.0031 7.7397V19.4797C-0.0031 25.8797 3.8869 29.7597 9.6669 29.7597ZM9.5969 27.8797C4.7569 27.8797 1.8069 24.7597 1.8069 19.2597V7.9297C1.8069 7.3397 2.1769 6.9497 2.7469 6.9497C3.3069 6.9497 3.7169 7.3397 3.7169 7.9297V14.9197C3.7169 15.4197 4.1269 15.7597 4.5669 15.7597C5.0269 15.7597 5.4569 15.4197 5.4569 14.9197V4.4697C5.4569 3.8797 5.8269 3.4697 6.3869 3.4697C6.9569 3.4697 7.3569 3.8797 7.3569 4.4697V14.2197C7.3569 14.7197 7.7669 15.0697 8.2169 15.0697C8.6769 15.0697 9.0869 14.7197 9.0869 14.2197V2.7797C9.0869 2.1897 9.4869 1.7597 10.0669 1.7597C10.6069 1.7597 11.0069 2.1897 11.0069 2.7797V14.2197C11.0069 14.6997 11.3869 15.0697 11.8669 15.0697C12.3369 15.0697 12.7469 14.6997 12.7469 14.2197V4.4697C12.7469 3.8797 13.1369 3.4697 13.6969 3.4697C14.2569 3.4697 14.6569 3.8797 14.6569 4.4697V17.9197C14.6569 18.6097 15.0569 18.9997 15.6269 18.9997C16.1169 18.9997 16.5269 18.7897 16.8469 18.0997L18.8169 13.7097C19.0769 13.1297 19.5769 12.9197 20.0569 13.0997C20.5869 13.2897 20.7569 13.7997 20.5069 14.4697L18.0069 21.4497C16.3369 26.1097 13.4169 27.8797 9.5969 27.8797Z" /></svg>