<svg viewBox="0 0 37.57565152831049 21.2346473789962" xmlns="http://www.w3.org/2000/svg"><path d="M1.5814 18.925C8.9214 18.505 23.9114 15.315 27.9714 11.585C24.5514 3.625 20.5214 0.695 12.8814 1.545L12.7714 0.955C12.6314 0.245 11.8614 -0.135 11.0314 0.045L10.0314 0.245C9.1814 0.425 8.7514 1.135 8.8714 1.865L8.9514 2.295C1.9714 4.445 -1.1886 10.805 0.4114 18.035C0.5414 18.675 0.9514 18.955 1.5814 18.925ZM30.9214 21.235C34.1114 21.235 36.4914 18.635 37.3114 16.685C37.8514 15.345 37.5114 14.755 36.7314 14.535L29.8314 12.495C27.6514 14.635 23.5814 16.355 18.9314 17.445C22.2314 19.085 26.9214 21.235 30.9214 21.235Z" /></svg>