<svg viewBox="0 0 37.912109375 24.158203125" xmlns="http://www.w3.org/2000/svg"><path d="M18.9637 24.1611C30.3237 24.1611 37.9137 20.2311 37.9137 14.9011C37.9137 10.8811 33.7137 8.0211 28.3137 7.0711C27.1937 2.5411 23.9437 0.0011 18.9637 0.0011C13.9737 0.0011 10.7237 2.5411 9.6137 7.0711C4.1937 8.0211 0.0037 10.8811 0.0037 14.9011C0.0037 20.2311 7.6037 24.1611 18.9637 24.1611ZM18.9637 12.6511C15.6037 12.6511 12.9737 11.7411 11.4137 10.6811C11.2537 5.1311 14.1637 2.1311 18.9637 2.1311C23.7437 2.1311 26.6737 5.1311 26.5337 10.6611C24.9537 11.7411 22.3137 12.6511 18.9637 12.6511ZM18.9637 17.0611C22.7537 17.0611 25.8937 16.0111 27.8737 14.5211C28.3537 14.1511 28.5737 13.7411 28.6337 13.1011C28.7637 11.7011 28.7837 10.4011 28.6737 9.2011C32.3437 9.9511 35.7337 12.1011 35.7337 14.7611C35.7337 18.8811 28.6837 22.0211 18.9637 22.0211C9.2437 22.0211 2.1837 18.8811 2.1837 14.7611C2.1837 12.1011 5.5637 9.9511 9.2537 9.2011C9.1437 10.4011 9.1437 11.7011 9.2837 13.1011C9.3537 13.7411 9.5737 14.1611 10.0637 14.5311C12.0537 16.0211 15.1737 17.0611 18.9637 17.0611Z" /></svg>