<svg viewBox="0 0 25.169921875 25.169921875" xmlns="http://www.w3.org/2000/svg"><path d="M4.2937 25.1692H20.8737C23.7437 25.1692 25.1737 23.7592 25.1737 20.9492V4.2392C25.1737 1.4192 23.7437 -0.0008 20.8737 -0.0008H4.2937C1.4337 -0.0008 0.0037 1.4192 0.0037 4.2392V20.9492C0.0037 23.7592 1.4337 25.1692 4.2937 25.1692ZM9.2037 6.3392C10.7237 6.3392 11.8837 7.2092 12.5937 8.4892C13.3037 7.2092 14.4737 6.3392 15.9837 6.3392C18.3637 6.3392 20.0937 8.1492 20.0937 10.6492C20.0937 14.3392 16.1637 17.7192 13.2937 19.5892C13.0737 19.7592 12.8137 19.9292 12.6237 19.9292C12.4437 19.9292 12.1237 19.7392 11.8837 19.5892C8.9937 17.7592 5.0837 14.3392 5.0837 10.6492C5.0837 8.1492 6.8037 6.3392 9.2037 6.3392Z" /></svg>