<svg viewBox="0 0 27.890625 27.890625" xmlns="http://www.w3.org/2000/svg"><path d="M13.9427 27.8864C21.6427 27.8864 27.8927 21.6464 27.8927 13.9464C27.8927 6.2464 21.6427 -0.0036 13.9427 -0.0036C6.2527 -0.0036 0.0027 6.2464 0.0027 13.9464C0.0027 21.6464 6.2527 27.8864 13.9427 27.8864ZM13.9427 25.5664C7.5227 25.5664 2.3227 20.3664 2.3227 13.9464C2.3227 7.5164 7.5227 2.3264 13.9427 2.3264C20.3727 2.3264 25.5627 7.5164 25.5627 13.9464C25.5627 20.3664 20.3727 25.5664 13.9427 25.5664ZM10.6627 7.9164C8.3427 7.9164 6.6727 9.6664 6.6727 12.0864C6.6727 15.6864 10.4627 18.9864 13.2627 20.7664C13.5127 20.9064 13.7927 21.0964 13.9727 21.0964C14.1527 21.0964 14.4227 20.9164 14.6327 20.7664C17.4027 18.9464 21.2227 15.6864 21.2227 12.0864C21.2227 9.6664 19.5527 7.9164 17.2227 7.9164C15.7727 7.9164 14.6327 8.7464 13.9427 9.9964C13.2627 8.7464 12.1227 7.9164 10.6627 7.9164Z" /></svg>