<svg viewBox="0 0 27.890625 27.890625" xmlns="http://www.w3.org/2000/svg"><path d="M13.9427 27.8864C21.6427 27.8864 27.8927 21.6264 27.8927 13.9464C27.8927 6.2464 21.6427 -0.0036 13.9427 -0.0036C6.2627 -0.0036 0.0027 6.2464 0.0027 13.9464C0.0027 21.6264 6.2627 27.8864 13.9427 27.8864ZM20.3827 21.2564L6.6027 7.4764C6.3727 7.2464 6.3727 6.8464 6.6027 6.6064C6.8527 6.3564 7.2427 6.3564 7.4927 6.6064L21.2627 20.3864C21.5227 20.6264 21.5227 21.0164 21.2627 21.2564C21.0227 21.4964 20.6327 21.4964 20.3827 21.2564ZM10.3327 7.9564C10.4427 7.9264 10.5527 7.9164 10.6627 7.9164C12.1227 7.9164 13.2627 8.7464 13.9427 9.9964C14.6127 8.7464 15.7727 7.9164 17.2227 7.9164C19.5327 7.9164 21.2227 9.6664 21.2227 12.0864C21.2227 13.7764 20.3427 15.3664 19.1527 16.7864ZM16.7727 19.1164C16.0327 19.7464 15.2727 20.3064 14.6127 20.7664C14.4127 20.9164 14.1327 21.0964 13.9727 21.0964C13.7927 21.0964 13.4927 20.9064 13.2627 20.7664C10.4227 19.0464 6.6727 15.6864 6.6727 12.0864C6.6727 11.1664 6.9227 10.3464 7.3427 9.6964Z" /></svg>