<svg viewBox="0 0 21 29.1484375" xmlns="http://www.w3.org/2000/svg"><path d="M0.0037 22.9661C0.0037 26.7561 2.3537 29.1461 6.0337 29.1461C8.7737 29.1461 10.8237 27.9461 12.1237 25.6261L13.3537 23.4161C16.2437 18.1561 21.0037 17.4561 21.0037 10.6961C21.0037 4.2761 16.8537 -0.0039 10.6537 -0.0039C4.2937 -0.0039 0.0037 4.3061 0.0037 10.7361ZM4.0037 19.1861C4.0037 16.5461 6.9037 16.8661 6.9037 15.3561C6.9037 13.9861 4.0037 12.9861 4.0037 9.9361C4.0037 6.4561 6.6737 3.9561 10.6337 3.9561C14.6137 3.9561 17.2637 6.6161 17.2637 10.5861C17.2637 11.1661 16.7737 11.6661 16.1837 11.6661C15.6137 11.6661 15.1237 11.1661 15.1237 10.5861C15.1237 7.8761 13.3737 6.0961 10.6337 6.0961C7.9437 6.0961 6.1537 7.7261 6.1537 9.9361C6.1537 12.7961 10.3537 13.4561 10.3537 17.5261C10.3537 19.7961 8.9037 21.6161 6.7637 21.6261C5.1137 21.6261 4.0037 20.6461 4.0037 19.1861Z" /></svg>