<svg viewBox="0 0 31.1171875 31.47265625" xmlns="http://www.w3.org/2000/svg"><path d="M3.0737 22.8274H9.2737V19.8774C9.0937 19.9074 8.9537 19.9174 8.7237 19.9174C6.1837 19.9174 4.0737 17.8574 4.0737 15.2674C4.0737 12.7174 6.1637 10.6274 8.7237 10.6274C8.9537 10.6274 9.1037 10.6474 9.2737 10.6674V8.4074C9.1237 8.4374 8.9537 8.4474 8.7237 8.4474C7.3237 8.4474 6.2237 7.3374 6.2237 5.9474C6.2237 4.5074 7.3737 3.4574 8.7237 3.4774C9.5037 3.4874 10.1837 3.8174 10.5937 4.3074C11.4737 3.3674 12.7837 2.6674 14.7937 2.6674H16.8837C16.8837 2.5974 16.8737 2.4774 16.8537 2.3674C16.6437 0.8174 15.6137 -0.0026 13.8537 -0.0026H3.0737C1.0537 -0.0026 0.0037 1.0574 0.0037 3.0774V19.7274C0.0037 21.7774 1.0537 22.8274 3.0737 22.8274ZM11.1437 8.2274V27.7774C11.1437 30.2374 12.3737 31.4774 14.7937 31.4774H27.4537C29.9037 31.4774 31.1137 30.2374 31.1137 27.7774V8.2274C31.1137 5.7574 29.9037 4.5274 27.4537 4.5274H14.7937C12.3637 4.5274 11.1437 5.7574 11.1437 8.2274ZM7.4337 5.9474C7.4337 6.6874 7.9937 7.2474 8.7237 7.2474C9.0337 7.2474 9.3137 7.1274 9.3937 7.0374C9.4637 6.4074 9.5537 6.0174 9.8737 5.4374C9.7237 4.9874 9.3137 4.6474 8.7237 4.6474C8.0137 4.6474 7.4337 5.1674 7.4337 5.9474ZM21.1237 14.3874C19.4437 14.3874 18.0737 13.0474 18.0737 11.3374C18.0737 9.6374 19.4437 8.2974 21.1237 8.2974C22.8137 8.3174 24.1537 9.6374 24.1737 11.3374C24.2037 13.0274 22.8137 14.3874 21.1237 14.3874ZM21.1237 12.8974C21.9937 12.8974 22.6837 12.1774 22.6837 11.3374C22.6837 10.4774 21.9737 9.7874 21.1237 9.7874C20.2437 9.7874 19.5737 10.4474 19.5737 11.3374C19.5737 12.1774 20.2637 12.8974 21.1237 12.8974ZM6.7437 15.2674C6.7437 16.3674 7.6137 17.2674 8.7237 17.2674C8.9537 17.2674 9.1737 17.2274 9.2737 17.1974V13.3574C9.1737 13.3274 8.9737 13.2874 8.7537 13.2874C7.6337 13.2874 6.7437 14.1674 6.7437 15.2674ZM21.1237 27.6974C18.1037 27.6974 15.6537 25.2774 15.6537 22.2274C15.6537 19.1674 18.1037 16.7374 21.1237 16.7474C24.1537 16.7574 26.6037 19.1674 26.6037 22.2274C26.6037 25.2774 24.1537 27.6974 21.1237 27.6974ZM21.1237 24.5574C22.4537 24.5574 23.4437 23.5174 23.4437 22.2274C23.4437 20.9074 22.4537 19.8974 21.1237 19.8974C19.8237 19.8974 18.8037 20.9074 18.8037 22.2274C18.8037 23.5174 19.8537 24.5574 21.1237 24.5574Z" /></svg>