<svg viewBox="0 0 33.126953125 31.896484375" xmlns="http://www.w3.org/2000/svg"><path d="M3.8237 23.9109H9.2737V21.8309H3.9337C2.7337 21.8309 2.0737 21.1609 2.0737 20.0009V3.9109C2.0737 2.7509 2.7337 2.0809 3.9337 2.0809H14.6337C15.0137 2.0809 15.3037 2.2409 15.4237 2.5109C15.5037 2.5709 15.5037 2.6709 15.5437 2.8209C16.3237 2.5109 17.1737 2.2809 18.1137 2.1009C18.0737 1.9009 18.0237 1.7409 17.9637 1.6409C17.4337 0.5909 16.3237 0.0009 14.7337 0.0009H3.8237C1.3037 0.0009 0.0037 1.3309 0.0037 3.8709V20.0409C0.0037 22.6009 1.3037 23.9109 3.8237 23.9109ZM6.5737 6.4009C6.5737 8.0709 7.9437 9.3509 9.6637 9.2509C9.8137 8.6909 9.9937 8.1509 10.2037 7.6609C9.9837 7.8109 9.7237 7.8909 9.4237 7.8909C8.6037 7.8909 7.9337 7.2209 7.9337 6.4009C7.9337 5.5909 8.6137 4.9109 9.4237 4.9109C10.2837 4.9109 10.9337 5.6609 10.8537 6.4709C11.1537 5.9709 11.4937 5.5409 11.8837 5.1309C11.4837 4.1809 10.5437 3.5309 9.4237 3.5409C7.8337 3.5509 6.5737 4.8009 6.5737 6.4009ZM22.1237 7.3309C25.6337 7.3309 28.4537 6.5609 28.4537 5.5809C28.4537 4.5709 25.6337 3.8109 22.1237 3.8109C18.6237 3.8109 15.8037 4.5709 15.8037 5.5809C15.8037 6.5609 18.6237 7.3309 22.1237 7.3309ZM22.1237 31.9009C29.6637 31.9009 33.1237 29.2209 33.1237 23.1209V12.7109C33.1237 10.1409 32.5137 8.4109 31.5437 7.1809C31.2137 6.7709 30.6937 6.7409 30.2837 7.0709C28.9737 8.2209 25.5537 9.2009 22.1237 9.2009C18.7037 9.2009 15.2837 8.2209 13.9737 7.0709C13.5637 6.7409 13.0437 6.7709 12.7137 7.1809C11.7437 8.4109 11.1337 10.1409 11.1337 12.7109V23.1209C11.1337 29.2209 14.5837 31.9009 22.1237 31.9009ZM22.1237 29.6909C15.8037 29.6909 13.3337 27.5809 13.3337 22.9009V12.8409C13.3337 11.6309 13.5337 10.5109 14.0437 9.5409C15.6637 10.8109 18.7437 11.4009 22.1237 11.4009C25.5137 11.4009 28.5837 10.8109 30.2137 9.5409C30.7237 10.5109 30.9237 11.6309 30.9237 12.8409V22.9009C30.9237 27.5809 28.4537 29.6909 22.1237 29.6909ZM4.3037 15.3009C4.3037 18.0909 6.5637 20.2709 9.2737 20.2909V17.3909C8.1937 17.3809 7.1737 16.5409 7.1737 15.2809C7.1737 14.1809 8.0537 13.2209 9.2737 13.1809C9.2737 11.9209 9.3137 11.1609 9.4437 10.3209C6.6137 10.2409 4.3037 12.5009 4.3037 15.3009Z" /></svg>