<svg viewBox="0 0 28.328125 28.854737612858518" xmlns="http://www.w3.org/2000/svg"><path d="M1.3637 23.9743H3.0237C3.4037 23.9743 3.5637 23.9043 3.8737 23.6643L4.7837 22.9643L4.8137 22.9943C5.3137 23.4943 6.0037 23.5943 6.7037 23.2943L11.2337 21.4143C11.5837 21.2843 11.7437 21.1543 11.9537 20.9643L25.0337 7.9643C26.3137 6.6943 26.3037 5.2043 25.0037 3.8943L22.1337 0.9943C20.8237 -0.3057 19.3337 -0.3357 18.0437 0.9343L4.9537 13.9243C4.7437 14.1143 4.6237 14.2843 4.4837 14.6043L2.5737 19.1443C2.2837 19.8143 2.3537 20.4843 2.8537 21.0043L0.9737 23.0043C0.5637 23.4443 0.7637 23.9743 1.3637 23.9743ZM19.4237 2.4843C19.8237 2.0943 20.2937 2.0843 20.6537 2.4543L23.5437 5.3643C23.9137 5.7343 23.8837 6.2043 23.5037 6.5843L22.4737 7.5943L18.4037 3.4943ZM7.0637 14.7443L17.1137 4.7643L21.1937 8.8643L11.1437 18.8643ZM6.4937 21.1743C6.2237 21.2643 6.0137 21.2843 5.7737 21.0243L4.8437 20.0943C4.5937 19.8443 4.5937 19.6443 4.7037 19.3843L6.0337 16.2743L9.5937 19.8743ZM1.0937 28.8543H27.2237C27.8237 28.8543 28.3237 28.3643 28.3237 27.7443C28.3237 27.1443 27.8237 26.6543 27.2237 26.6543H1.0937C0.4937 26.6543 0.0037 27.1443 0.0037 27.7443C0.0037 28.3643 0.4937 28.8543 1.0937 28.8543Z" /></svg>