<svg viewBox="0 0 27.890625 27.890625" xmlns="http://www.w3.org/2000/svg"><path d="M13.9427 27.8864C21.6427 27.8864 27.8927 21.6464 27.8927 13.9464C27.8927 6.2464 21.6427 -0.0036 13.9427 -0.0036C6.2527 -0.0036 0.0027 6.2464 0.0027 13.9464C0.0027 21.6464 6.2527 27.8864 13.9427 27.8864ZM13.9427 25.5664C7.5227 25.5664 2.3227 20.3664 2.3227 13.9464C2.3227 7.5164 7.5227 2.3264 13.9427 2.3264C20.3727 2.3264 25.5627 7.5164 25.5627 13.9464C25.5627 20.3664 20.3727 25.5664 13.9427 25.5664ZM13.9427 14.9964C18.0627 14.9964 21.2827 13.5064 21.2827 11.6164C21.2827 9.7864 18.0627 8.3364 13.9427 8.3364C9.8327 8.3364 6.6027 9.7864 6.6027 11.6164C6.6027 13.5064 9.8327 14.9964 13.9427 14.9964ZM13.9427 19.5364C18.0927 19.5364 21.2827 17.6764 21.2827 15.4064V13.7564C19.8827 15.1464 17.0327 15.9664 13.9427 15.9664C10.8727 15.9664 8.0227 15.1464 6.6027 13.7564V15.4064C6.6027 17.6764 9.7927 19.5364 13.9427 19.5364Z" /></svg>