<svg viewBox="0 0 26.919921875 24.58203125" xmlns="http://www.w3.org/2000/svg"><path d="M13.4637 3.4864C17.2637 3.4864 19.9237 2.7164 19.9237 1.7364C19.9237 0.7364 17.2637 -0.0036 13.4637 -0.0036C9.6537 -0.0036 7.0037 0.7364 7.0037 1.7364C7.0037 2.7164 9.6537 3.4864 13.4637 3.4864ZM13.4637 24.5864C18.4337 24.5864 20.5237 23.9564 22.5037 22.1064C25.2937 19.5664 26.9237 15.8864 26.9237 11.9764C26.9237 8.8164 25.8637 5.8064 23.8937 3.6064C23.3637 2.9264 22.4637 2.8064 21.6937 3.2764C20.0137 4.5164 17.7637 5.3464 13.4637 5.3464C9.1637 5.3464 6.9037 4.5164 5.2337 3.2764C4.4737 2.8064 3.5537 2.9264 3.0237 3.6064C1.0637 5.8064 0.0037 8.8164 0.0037 11.9764C0.0037 15.8864 1.6237 19.5664 4.4137 22.1064C6.3937 23.9564 8.4937 24.5864 13.4637 24.5864ZM13.4637 22.3764C9.1237 22.3764 7.4637 21.9464 5.9037 20.4964C3.5437 18.3164 2.2037 15.2464 2.2037 11.9764C2.2037 9.6364 2.8837 7.3864 4.3237 5.4964C6.5337 6.9464 9.7937 7.5464 13.4637 7.5464C17.1337 7.5464 20.3837 6.9464 22.6037 5.4964C24.0337 7.3864 24.7237 9.6364 24.7237 11.9764C24.7237 15.2464 23.3837 18.3164 21.0137 20.4964C19.4737 21.9464 17.8037 22.3764 13.4637 22.3764Z" /></svg>