<svg viewBox="0 0 43.58510384067758 30.091796875" xmlns="http://www.w3.org/2000/svg"><path d="M1.2028 30.0875H39.3028C39.8828 30.0875 40.3428 29.5975 40.3428 29.0275C40.3428 28.4475 39.8828 27.9875 39.3028 27.9875H34.7928V8.0075C34.9328 7.9875 35.1128 7.9675 35.3128 7.9675C37.5328 7.9675 38.9128 9.0475 41.0428 9.0475C41.9828 9.0475 42.3728 8.9575 42.8328 8.7375C43.3528 8.4875 43.5828 8.1375 43.5828 7.5475V1.4775C43.5828 1.1075 43.4028 0.8475 42.8928 0.8475C42.5228 0.8475 42.0028 1.1075 40.9828 1.1075C38.8928 1.1075 37.4828 -0.0025 35.2628 -0.0025C34.3028 -0.0025 33.9228 0.1275 33.4728 0.3175C32.9628 0.5375 32.7028 0.9275 32.7028 1.4775V27.9875H26.7428C26.7928 27.7375 26.8228 27.4675 26.8228 27.1775V16.5575C26.5928 16.4475 26.3828 16.3375 26.1528 16.2175L15.1628 10.5975L4.1428 16.2275C3.9328 16.3375 3.7428 16.4375 3.5228 16.5475V27.1775C3.5228 27.4675 3.5528 27.7375 3.6128 27.9875H1.2028C0.6328 27.9875 0.1528 28.4475 0.1528 29.0275C0.1528 29.5975 0.6328 30.0875 1.2028 30.0875ZM1.7528 15.4475L14.6928 8.8275C14.9828 8.6775 15.3428 8.6775 15.6528 8.8275L28.6028 15.4475C30.1728 16.2375 30.9928 14.3575 29.7128 13.6875L16.7228 6.8675C15.6128 6.2875 14.7228 6.2875 13.6328 6.8675L0.6128 13.6875C-0.6472 14.3575 0.1728 16.2375 1.7528 15.4475ZM11.1828 27.9875V19.2875C11.1828 18.6875 11.5828 18.2975 12.1828 18.2975H18.1528C18.7528 18.2975 19.1528 18.6875 19.1528 19.2875V27.9875Z" /></svg>