<svg viewBox="0 0 30.5703125 30.5703125" xmlns="http://www.w3.org/2000/svg"><path d="M15.2827 30.5663C23.6827 30.5663 30.5727 23.6763 30.5727 15.2863C30.5727 6.8863 23.6827 -0.0038 15.2827 -0.0038C6.8927 -0.0038 0.0027 6.8863 0.0027 15.2863C0.0027 23.6763 6.8927 30.5663 15.2827 30.5663ZM15.2827 25.4862C9.6527 25.4862 5.0827 20.9162 5.0827 15.2863C5.0827 9.6363 9.6527 5.0863 15.2827 5.0863C20.9327 5.0863 25.4827 9.6363 25.4827 15.2863C25.4827 20.9162 20.9327 25.4862 15.2827 25.4862ZM10.3527 13.9163C10.3527 14.1763 10.5427 14.3663 10.7827 14.3663H19.7727C20.0327 14.3663 20.2227 14.1763 20.2227 13.9163C20.2227 13.6463 20.0327 13.4563 19.7727 13.4563H18.5827C18.9527 13.0663 19.1927 12.5763 19.1927 12.0063C19.1927 9.9563 17.2027 9.0063 15.2127 9.0063C14.0827 9.0063 12.6727 9.3263 11.8027 10.6263C11.6027 10.9063 11.5227 11.1663 11.5227 11.4963C11.5227 11.8963 11.7827 12.1563 12.2127 12.1563C12.5627 12.1563 12.7527 12.0063 12.9227 11.6863C13.3827 10.7463 14.2727 10.3663 15.2427 10.3663C16.4427 10.3663 17.6327 10.9063 17.6327 12.1163C17.6327 12.5663 17.4327 13.1363 16.9127 13.4563H10.7827C10.5427 13.4563 10.3527 13.6463 10.3527 13.9163ZM10.3527 16.1363C10.3527 16.3963 10.5427 16.5863 10.7827 16.5863H11.9627C11.4727 17.0363 11.1527 17.6463 11.1527 18.3163C11.1527 20.3663 13.3027 21.3663 15.2827 21.3663C16.8827 21.3663 18.3327 20.7963 19.0427 19.5463C19.2127 19.2863 19.3427 18.9463 19.3427 18.6763C19.3427 18.2663 19.0427 18.0063 18.6227 18.0063C18.2627 18.0063 18.0627 18.1662 17.8927 18.4963C17.4327 19.5663 16.4627 20.0063 15.2827 20.0063C13.9727 20.0063 12.7327 19.3563 12.7327 18.2362C12.7327 17.4763 13.0927 16.9263 13.7227 16.5863H19.7727C20.0327 16.5863 20.2227 16.3963 20.2227 16.1363C20.2227 15.8563 20.0327 15.6663 19.7727 15.6663H10.7827C10.5427 15.6663 10.3527 15.8563 10.3527 16.1363Z" /></svg>