<svg viewBox="0 0 22.09375 31.458984375" xmlns="http://www.w3.org/2000/svg"><path d="M11.0737 1.9574C11.6037 1.9574 12.0437 1.5174 12.0437 0.9874C12.0437 0.4374 11.6037 -0.0026 11.0737 -0.0026C10.5437 -0.0026 10.1037 0.4374 10.1037 0.9874C10.1037 1.5174 10.5437 1.9574 11.0737 1.9574ZM3.5637 3.3374C4.1037 3.3374 4.5437 2.8974 4.5437 2.3674C4.5437 1.8274 4.1037 1.3974 3.5637 1.3974C3.0337 1.3974 2.5937 1.8274 2.5937 2.3674C2.5937 2.8974 3.0337 3.3374 3.5637 3.3374ZM18.5837 3.3374C19.1137 3.3374 19.5537 2.8974 19.5537 2.3674C19.5537 1.8274 19.1137 1.3974 18.5837 1.3974C18.0437 1.3974 17.6137 1.8274 17.6137 2.3674C17.6137 2.8974 18.0437 3.3374 18.5837 3.3374ZM11.0737 6.0274C11.6037 6.0274 12.0437 5.5874 12.0437 5.0574C12.0437 4.5274 11.6037 4.0874 11.0737 4.0874C10.5437 4.0874 10.1037 4.5274 10.1037 5.0574C10.1037 5.5874 10.5437 6.0274 11.0737 6.0274ZM6.0837 6.5374C6.6137 6.5374 7.0537 6.0974 7.0537 5.5674C7.0537 5.0274 6.6137 4.5974 6.0837 4.5974C5.5337 4.5974 5.1037 5.0274 5.1037 5.5674C5.1037 6.0974 5.5337 6.5374 6.0837 6.5374ZM16.0737 6.5374C16.6137 6.5374 17.0537 6.0974 17.0537 5.5674C17.0537 5.0274 16.6137 4.5974 16.0737 4.5974C15.5337 4.5974 15.1037 5.0274 15.1037 5.5674C15.1037 6.0974 15.5337 6.5374 16.0737 6.5374ZM8.0837 31.4574H14.0137C19.3637 31.4574 22.0937 28.6274 22.0937 23.7874C22.0937 20.0274 18.8637 15.0374 15.0837 9.9974C14.3437 9.0274 13.8637 8.4774 12.5237 8.4774H9.5737C8.2437 8.4774 7.7637 9.0274 7.0137 9.9974C3.2237 15.0374 0.0037 20.0274 0.0037 23.7874C0.0037 28.6274 2.7337 31.4574 8.0837 31.4574ZM8.7737 11.1174C9.0537 10.7474 9.2037 10.6474 9.5937 10.6474H12.4937C12.8937 10.6474 13.0437 10.7474 13.3137 11.1174C14.0937 12.1774 14.8037 13.1774 15.4637 14.1374H6.6337C7.2837 13.1774 7.9937 12.1774 8.7737 11.1174ZM11.0637 20.4374C9.6537 20.4374 8.5037 21.2974 8.0637 22.5274H2.2937C2.6537 20.7774 3.6637 18.7274 5.1937 16.2974H16.8937C18.4337 18.7274 19.4537 20.7974 19.7937 22.5274H14.0237C13.6037 21.2974 12.4437 20.4374 11.0637 20.4374ZM11.0637 24.8274C10.3337 24.8274 9.8337 24.3074 9.8337 23.5974C9.8337 22.8974 10.3337 22.3674 11.0637 22.3674C11.7537 22.3674 12.2737 22.8974 12.2737 23.5974C12.2737 24.3074 11.7537 24.8274 11.0637 24.8274ZM11.0637 26.7674C12.4237 26.7674 13.5737 25.9074 14.0237 24.6874H19.8937C19.5737 27.6274 17.6637 29.2974 14.0137 29.2974H8.0837C4.4337 29.2974 2.5137 27.6274 2.2137 24.6874H8.0837C8.5137 25.9074 9.6637 26.7674 11.0637 26.7674Z" /></svg>