<svg viewBox="0 0 34.37109375 27.5419921875" xmlns="http://www.w3.org/2000/svg"><path d="M28.6427 23.5294C32.0327 22.8494 34.3727 20.1894 34.3727 16.9794C34.3727 14.1094 32.7127 11.6194 30.0527 10.4994C30.0827 4.3994 25.6927 -0.0006 20.0927 -0.0006C16.3927 -0.0006 13.7527 1.9794 12.1127 4.3794C11.2627 4.1394 10.3327 4.1394 9.4727 4.3794L11.5627 6.4694C11.9727 6.4494 12.4327 6.5194 12.8527 6.6494C13.0127 6.6994 13.1127 6.6594 13.1927 6.5094C14.5227 4.1394 16.5527 2.1994 20.0927 2.1994C24.5827 2.1994 27.6827 5.7594 27.9227 9.8194C27.9627 10.4494 27.9227 11.1794 27.8627 11.8294C27.8527 11.9994 27.9227 12.0994 28.0827 12.1394C30.5727 12.6894 32.1727 14.5094 32.1727 16.9794C32.1727 19.5194 29.9327 21.5594 27.0127 21.5594H26.6727ZM27.0427 27.2394C27.4527 27.6494 28.1227 27.6494 28.5327 27.2394C28.9427 26.8194 28.9427 26.1494 28.5327 25.7394L5.7127 2.9394C5.3027 2.5194 4.6227 2.5394 4.2127 2.9394C3.8127 3.3394 3.8327 4.0494 4.2127 4.4294ZM8.1927 23.7594H21.2727L19.0627 21.5594H8.1927C4.7427 21.5594 2.2027 19.1494 2.2027 16.3694C2.2027 13.6294 3.8527 11.4594 6.7527 11.4594C6.9427 11.4594 7.0127 11.3594 7.0127 11.1794C7.0127 10.6494 7.0827 10.1594 7.2327 9.7494L5.4127 7.9294C5.1527 8.4794 5.0327 9.1094 5.0127 9.7794C1.9327 10.2694 0.0027 13.0294 0.0027 16.3694C0.0027 20.3894 3.5127 23.7594 8.1927 23.7594Z" /></svg>