<svg viewBox="0 0 28.157270753804713 25.634765625" xmlns="http://www.w3.org/2000/svg"><path d="M1.0937 25.6327C1.7237 25.6327 2.2037 25.1327 2.2037 24.5127V1.1027C2.2037 0.4927 1.7237 0.0027 1.0937 0.0027C0.4737 0.0027 0.0037 0.4927 0.0037 1.1027V24.5127C0.0037 25.1327 0.4737 25.6327 1.0937 25.6327ZM7.9137 25.6327C8.5437 25.6327 9.0237 25.1327 9.0237 24.5127V1.1027C9.0237 0.4927 8.5437 0.0027 7.9137 0.0027C7.3037 0.0027 6.8237 0.4927 6.8237 1.1027V24.5127C6.8237 25.1327 7.3037 25.6327 7.9137 25.6327ZM14.7337 25.6327C15.3637 25.6327 15.8437 25.1327 15.8437 24.5127V1.1027C15.8437 0.4927 15.3637 0.0027 14.7337 0.0027C14.1237 0.0027 13.6437 0.4927 13.6437 1.1027V24.5127C13.6437 25.1327 14.1237 25.6327 14.7337 25.6327ZM23.0337 17.0127L27.5637 13.9827C28.3737 13.4427 28.3437 12.2727 27.5637 11.7327L23.0337 8.6527C21.9837 7.9427 20.8737 8.3427 20.8937 9.5927V16.0827C20.8737 17.2927 22.0237 17.6627 23.0337 17.0127Z" /></svg>