<svg viewBox="0 0 32.935546875 27.26189615322232" xmlns="http://www.w3.org/2000/svg"><path d="M32.9327 16.3992C32.9327 7.7792 26.3227 0.7192 17.8927 -0.0008C17.4627 -0.0408 17.1327 0.2792 17.1327 0.7192V5.1892C17.1327 5.5592 17.3927 5.8392 17.7627 5.8692C22.9927 6.5092 27.0727 10.9792 27.0727 16.3992C27.0727 18.8592 26.2227 21.1292 24.7327 23.0292C24.5427 23.2592 24.5527 23.5592 24.7627 23.7792L28.0227 27.0292C28.3327 27.3292 28.7927 27.3292 29.0627 27.0092C31.4827 24.1392 32.9327 20.4292 32.9327 16.3992ZM0.0027 16.3992C0.0027 20.4392 1.4527 24.1492 3.8727 27.0192C4.1427 27.3492 4.5927 27.3292 4.9127 27.0292L8.1727 23.7792C8.3827 23.5592 8.3927 23.2592 8.2027 23.0292C6.7027 21.1292 5.8627 18.8592 5.8627 16.3992C5.8627 10.9792 9.9427 6.5092 15.1727 5.8692C15.5427 5.8392 15.8027 5.5592 15.8027 5.1892V0.7192C15.8027 0.2792 15.4727 -0.0408 15.0427 -0.0008C6.6127 0.7192 0.0027 7.7792 0.0027 16.3992ZM15.0127 17.7492C17.1627 17.7492 18.8127 16.6192 19.1027 14.5192H20.1627C20.4227 14.5192 20.6327 14.3192 20.6327 14.0692C20.6327 13.8292 20.4227 13.6192 20.1627 13.6192H19.1227C19.0427 12.7192 18.6727 11.8892 17.9627 11.3192H20.1627C20.4227 11.3192 20.6327 11.1192 20.6327 10.8692C20.6327 10.5992 20.4227 10.4092 20.1627 10.4092H12.5927C12.2527 10.4092 12.0327 10.6392 12.0327 11.0192V11.1192C12.0327 11.4992 12.2527 11.7292 12.5927 11.7292H14.8327C16.1827 11.7292 17.2627 12.2792 17.4727 13.6192H12.5227C12.2627 13.6192 12.0627 13.8292 12.0627 14.0692C12.0627 14.3192 12.2627 14.5192 12.5227 14.5192H17.4627C17.2627 15.9192 16.2027 16.4092 14.8227 16.4092H12.9227C12.4027 16.4092 12.0727 16.7392 12.0727 17.1792V17.2292C12.0727 17.6092 12.2527 17.8492 12.5527 18.1192L17.2227 22.5092C17.4627 22.7292 17.6527 22.8892 17.9927 22.8892C18.4027 22.8892 18.6927 22.5592 18.6927 22.1792C18.6927 21.9192 18.5627 21.7392 18.3727 21.5492L14.3027 17.7492Z" /></svg>