<svg viewBox="0 0 30.529296875 29.17578125" xmlns="http://www.w3.org/2000/svg"><path d="M1.0937 29.179H29.4237C30.0237 29.179 30.5337 28.669 30.5337 28.069C30.5337 27.469 30.0237 26.979 29.4237 26.979H28.7137V25.979C28.7137 25.429 28.3937 25.099 27.8337 25.099H26.9637V9.379H28.1637C28.9137 9.379 29.3537 8.829 29.3537 8.269C29.3537 7.859 29.1237 7.509 28.6137 7.219L16.9437 0.479C16.3937 0.169 15.8137 -0.001 15.2537 -0.001C14.6937 -0.001 14.1137 0.169 13.5937 0.479L1.9137 7.219C1.3937 7.509 1.1737 7.859 1.1737 8.269C1.1737 8.829 1.6137 9.379 2.3637 9.379H3.5637V25.099H2.7037C2.1437 25.099 1.8137 25.429 1.8137 25.979V26.979H1.0937C0.4937 26.979 0.0037 27.469 0.0037 28.069C0.0037 28.669 0.4937 29.179 1.0937 29.179ZM13.7837 16.819H13.0537L17.2537 20.739C17.4637 20.929 17.5937 21.119 17.5937 21.399C17.5937 21.779 17.2837 22.119 16.8737 22.119C16.5037 22.119 16.3137 21.939 16.0737 21.729L11.2537 17.199C10.9237 16.909 10.7637 16.679 10.7637 16.269V16.229C10.7637 15.759 11.0837 15.419 11.6237 15.419H13.5937C15.0237 15.419 16.1237 14.919 16.3137 13.499H11.2137C10.9537 13.499 10.7337 13.289 10.7337 13.029C10.7337 12.759 10.9537 12.549 11.2137 12.549H16.3137C16.1037 11.169 14.9837 10.609 13.5937 10.609H11.2937C10.9237 10.609 10.7237 10.359 10.7237 9.969V9.869C10.7237 9.489 10.9237 9.239 11.2937 9.239H19.1037C19.3737 9.239 19.5737 9.429 19.5737 9.719C19.5737 9.969 19.3737 10.189 19.1037 10.189H16.8437C17.5637 10.769 17.9537 11.639 18.0337 12.549H19.1037C19.3737 12.549 19.5737 12.759 19.5737 13.029C19.5737 13.289 19.3737 13.499 19.1037 13.499H18.0037C17.7037 15.659 16.0137 16.819 13.7837 16.819Z" /></svg>