<svg viewBox="0 0 25.169921875 25.169921875" xmlns="http://www.w3.org/2000/svg"><path d="M4.2937 25.1692H20.8737C23.7437 25.1692 25.1737 23.7592 25.1737 20.9492V4.2392C25.1737 1.4192 23.7437 -0.0008 20.8737 -0.0008H4.2937C1.4337 -0.0008 0.0037 1.4192 0.0037 4.2392V20.9492C0.0037 23.7592 1.4337 25.1692 4.2937 25.1692ZM4.3237 22.9692C2.9537 22.9692 2.2037 22.2392 2.2037 20.8192V4.3592C2.2037 2.9392 2.9537 2.1992 4.3237 2.1992H20.8537C22.2037 2.1992 22.9737 2.9392 22.9737 4.3592V20.8192C22.9737 22.2392 22.2037 22.9692 20.8537 22.9692ZM11.1537 13.7392C13.3037 13.7392 14.9537 12.6192 15.2337 10.5292H16.2937C16.5737 10.5292 16.7737 10.3192 16.7737 10.0792C16.7737 9.8292 16.5737 9.6292 16.2937 9.6292H15.2737C15.1937 8.7192 14.8037 7.8892 14.1137 7.3192H16.2937C16.5737 7.3192 16.7737 7.1092 16.7737 6.8592C16.7737 6.5992 16.5737 6.4092 16.2937 6.4092H8.7337C8.3837 6.4092 8.1737 6.6492 8.1737 7.0292V7.1192C8.1737 7.4892 8.3837 7.7292 8.7337 7.7292H10.9737C12.3337 7.7292 13.4137 8.2892 13.6137 9.6292H8.6637C8.3937 9.6292 8.1937 9.8292 8.1937 10.0792C8.1937 10.3192 8.3937 10.5292 8.6637 10.5292H13.6037C13.4137 11.9092 12.3437 12.4092 10.9537 12.4092H9.0637C8.5437 12.4092 8.2137 12.7292 8.2137 13.1792V13.2192C8.2137 13.6192 8.3837 13.8492 8.6937 14.1192L13.3737 18.4992C13.6037 18.7192 13.7837 18.8792 14.1337 18.8792C14.5337 18.8792 14.8337 18.5692 14.8337 18.1792C14.8337 17.9192 14.7137 17.7292 14.5237 17.5592L10.4437 13.7392Z" /></svg>