<svg viewBox="0 0 35.642578125 16.296875" xmlns="http://www.w3.org/2000/svg"><path d="M0.0027 8.1495C0.0027 13.0995 3.1027 16.2995 7.6527 16.2995C10.1327 16.2995 12.1827 15.2395 14.4327 13.0695L17.8327 9.8195L21.2027 13.0695C23.4727 15.2395 25.5227 16.2995 27.9827 16.2995C32.5427 16.2995 35.6427 13.0995 35.6427 8.1495C35.6427 3.1995 32.5427 -0.0005 27.9827 -0.0005C25.5227 -0.0005 23.4727 1.0495 21.2027 3.2295L17.8327 6.4795L14.4327 3.2295C12.1827 1.0495 10.1327 -0.0005 7.6527 -0.0005C3.1027 -0.0005 0.0027 3.1995 0.0027 8.1495ZM2.4727 8.1495C2.4727 4.6895 4.5927 2.4795 7.6527 2.4795C9.4027 2.4795 10.9327 3.3195 12.7027 4.9795L16.0927 8.1495L12.6827 11.3195C10.9227 12.9595 9.4027 13.8195 7.6527 13.8195C4.5927 13.8195 2.4727 11.6095 2.4727 8.1495ZM19.5527 8.1495L22.9427 4.9795C24.7027 3.3195 26.2327 2.4795 27.9827 2.4795C31.0627 2.4795 33.1727 4.6895 33.1727 8.1495C33.1727 11.6095 31.0627 13.8195 27.9827 13.8195C26.2327 13.8195 24.7227 12.9595 22.9527 11.3195Z" /></svg>