<svg viewBox="0 0 27.890625 27.890625" xmlns="http://www.w3.org/2000/svg"><path d="M13.9427 27.8864C21.6427 27.8864 27.8927 21.6464 27.8927 13.9464C27.8927 6.2464 21.6427 -0.0036 13.9427 -0.0036C6.2527 -0.0036 0.0027 6.2464 0.0027 13.9464C0.0027 21.6464 6.2527 27.8864 13.9427 27.8864ZM13.9427 25.5664C7.5227 25.5664 2.3227 20.3664 2.3227 13.9464C2.3227 7.5164 7.5227 2.3264 13.9427 2.3264C20.3727 2.3264 25.5627 7.5164 25.5627 13.9464C25.5627 20.3664 20.3727 25.5664 13.9427 25.5664ZM13.8227 9.2164C14.8227 9.2164 15.6027 8.4264 15.6027 7.4264C15.6027 6.4264 14.8227 5.6364 13.8227 5.6364C12.8427 5.6364 12.0427 6.4264 12.0427 7.4264C12.0427 8.4264 12.8427 9.2164 13.8227 9.2164ZM11.5527 21.6064H17.1127C17.6827 21.6064 18.1127 21.1864 18.1127 20.6264C18.1127 20.0964 17.6827 19.6764 17.1127 19.6764H15.4227V12.7164C15.4227 11.9764 15.0527 11.4864 14.3527 11.4864H11.7827C11.2227 11.4864 10.7827 11.9064 10.7827 12.4364C10.7827 13.0064 11.2227 13.4164 11.7827 13.4164H13.2527V19.6764H11.5527C10.9927 19.6764 10.5527 20.0964 10.5527 20.6264C10.5527 21.1864 10.9927 21.6064 11.5527 21.6064Z" /></svg>