<svg viewBox="0 0 32.23828125 25.169921875" xmlns="http://www.w3.org/2000/svg"><path d="M4.2937 25.1692H27.9437C30.8137 25.1692 32.2337 23.7592 32.2337 20.9492V4.2392C32.2337 1.4192 30.8137 -0.0008 27.9437 -0.0008H4.2937C1.4337 -0.0008 0.0037 1.4192 0.0037 4.2392V20.9492C0.0037 23.7592 1.4337 25.1692 4.2937 25.1692ZM4.3237 22.9692C2.9537 22.9692 2.2037 22.2392 2.2037 20.8192V4.3592C2.2037 2.9392 2.9537 2.1992 4.3237 2.1992H27.9137C29.2737 2.1992 30.0337 2.9392 30.0337 4.3592V20.8192C30.0337 22.2392 29.2737 22.9692 27.9137 22.9692ZM8.6237 18.8292H23.6137C24.5637 18.8292 24.9637 18.4292 24.9637 17.4492V7.7392C24.9637 6.7492 24.5637 6.3392 23.6137 6.3392H8.6237C7.6837 6.3392 7.2737 6.7492 7.2737 7.7392V17.4492C7.2737 18.4292 7.6837 18.8292 8.6237 18.8292Z" /></svg>