<svg viewBox="0 0 32.23828125 25.169921875" xmlns="http://www.w3.org/2000/svg"><path d="M4.2937 25.1692H27.9437C30.8137 25.1692 32.2337 23.7592 32.2337 20.9492V4.2392C32.2337 1.4192 30.8137 -0.0008 27.9437 -0.0008H4.2937C1.4337 -0.0008 0.0037 1.4192 0.0037 4.2392V20.9492C0.0037 23.7592 1.4337 25.1692 4.2937 25.1692ZM4.3237 22.9692C2.9537 22.9692 2.2037 22.2392 2.2037 20.8192V4.3592C2.2037 2.9392 2.9537 2.1992 4.3237 2.1992H27.9137C29.2737 2.1992 30.0337 2.9392 30.0337 4.3592V20.8192C30.0337 22.2392 29.2737 22.9692 27.9137 22.9692ZM5.2637 4.0692C4.4137 4.0692 4.0737 4.4292 4.0737 5.3092V10.4192C4.0737 11.2892 4.4137 11.6492 5.2637 11.6492H13.9837C14.8437 11.6492 15.1937 11.2892 15.1937 10.4292V5.3092C15.1937 4.4292 14.8437 4.0692 13.9837 4.0692ZM18.2537 4.0692C17.3937 4.0692 17.0537 4.4292 17.0537 5.3092V10.4192C17.0537 11.2892 17.3937 11.6492 18.2537 11.6492H26.9737C27.8337 11.6492 28.1737 11.2892 28.1737 10.4292V5.3092C28.1737 4.4292 27.8337 4.0692 26.9737 4.0692ZM5.2937 13.5392C4.4337 13.5392 4.0737 13.8792 4.0737 14.7392V19.8792C4.0737 20.7492 4.4137 21.1092 5.2637 21.1092H26.9737C27.8337 21.1092 28.1737 20.7492 28.1737 19.8892V14.7392C28.1737 13.8792 27.8237 13.5392 26.9437 13.5392Z" /></svg>