<svg viewBox="0 0 34.8359375 30.958272962405378" xmlns="http://www.w3.org/2000/svg"><path d="M31.0937 30.6523C31.5037 31.0623 32.1737 31.0623 32.5837 30.6523C32.9737 30.2423 33.0037 29.5723 32.5937 29.1623L3.7437 0.3123C3.3337 -0.0977 2.6637 -0.1077 2.2437 0.3123C1.8437 0.7123 1.8437 1.3923 2.2437 1.8023ZM10.8537 5.1023H27.9137C29.2737 5.1023 30.0337 5.8223 30.0337 7.2423V7.7323C30.8337 7.7323 31.5237 7.7323 32.2337 7.7323V7.1323C32.2337 4.3223 30.8137 2.8923 27.9437 2.8923H8.6637ZM4.2937 28.0623H26.1637L23.9637 25.8623H4.3237C2.9537 25.8623 2.2037 25.1423 2.2037 23.7223V7.2423C2.2037 6.2023 2.6237 5.5323 3.4137 5.2923L1.6937 3.5623C0.5637 4.1923 0.0037 5.3823 0.0037 7.1323V23.8323C0.0037 26.6623 1.4337 28.0623 4.2937 28.0623ZM23.2737 17.5023L25.0637 19.3023V12.0723C25.0637 11.4423 25.3737 11.1123 25.9737 11.1123H32.1337C32.7337 11.1123 33.0437 11.4423 33.0437 12.0723V25.3323C33.0437 25.9323 32.7737 26.2323 32.2237 26.2723H32.0237L33.4737 27.7123H33.5237C34.3837 27.3723 34.8337 26.6223 34.8337 25.5123V11.8923C34.8337 10.2623 33.8537 9.3223 32.1737 9.3223H25.9337C24.2537 9.3223 23.2737 10.2623 23.2737 11.8923ZM27.9637 13.0723H30.1037C30.4637 13.0723 30.7337 12.7923 30.7337 12.4223C30.7337 12.0823 30.4637 11.8123 30.1037 11.8123H27.9637C27.6037 11.8123 27.3337 12.0823 27.3337 12.4223C27.3337 12.7923 27.6037 13.0723 27.9637 13.0723ZM10.8437 24.8123H22.5437L21.2737 23.5423H10.8437C10.4737 23.5423 10.2037 23.8023 10.2037 24.1823C10.2037 24.5623 10.4737 24.8123 10.8437 24.8123Z" /></svg>