<svg viewBox="0 0 34.8359375 25.169921875" xmlns="http://www.w3.org/2000/svg"><path d="M4.2937 25.1655H22.4537C22.1237 24.7155 21.8937 24.1755 21.7937 23.5455C21.7637 23.3655 21.7537 23.1755 21.7337 22.9655H4.3237C2.9537 22.9655 2.2037 22.2455 2.2037 20.8255V4.3455C2.2037 2.9255 2.9537 2.2055 4.3237 2.2055H27.9137C29.2737 2.2055 30.0337 2.9255 30.0337 4.3455V4.8355C30.8337 4.8355 31.5237 4.8355 32.2337 4.8355V4.2355C32.2337 1.4255 30.8137 -0.0045 27.9437 -0.0045H4.2937C1.4337 -0.0045 0.0037 1.4055 0.0037 4.2355V20.9355C0.0037 23.7655 1.4337 25.1655 4.2937 25.1655ZM25.9337 25.1655H32.1737C33.8637 25.1655 34.8337 24.2355 34.8337 22.6155V8.9955C34.8337 7.3655 33.8537 6.4255 32.1737 6.4255H25.9337C24.2537 6.4255 23.2737 7.3655 23.2737 8.9955V22.6155C23.2737 24.2355 24.2437 25.1655 25.9337 25.1655ZM25.9737 23.3755C25.3737 23.3755 25.0637 23.0655 25.0637 22.4355V9.1755C25.0637 8.5455 25.3737 8.2155 25.9737 8.2155H32.1337C32.7337 8.2155 33.0437 8.5455 33.0437 9.1755V22.4355C33.0437 23.0655 32.7337 23.3755 32.1337 23.3755ZM27.9637 10.1755H30.1037C30.4637 10.1755 30.7337 9.8955 30.7337 9.5255C30.7337 9.1855 30.4637 8.9155 30.1037 8.9155H27.9637C27.6037 8.9155 27.3337 9.1855 27.3337 9.5255C27.3337 9.8955 27.6037 10.1755 27.9637 10.1755ZM10.8437 21.9155H21.6837V20.6455H10.8437C10.4737 20.6455 10.2037 20.9055 10.2037 21.2855C10.2037 21.6655 10.4737 21.9155 10.8437 21.9155ZM27.1837 22.6855H30.8937C31.1737 22.6855 31.3737 22.4855 31.3737 22.2055C31.3737 21.9455 31.1737 21.7355 30.8937 21.7355H27.1837C26.9037 21.7355 26.7237 21.9455 26.7237 22.2055C26.7237 22.5055 26.8937 22.6855 27.1837 22.6855Z" /></svg>