<svg viewBox="0 0 27.890625 27.890625" xmlns="http://www.w3.org/2000/svg"><path d="M13.9427 27.8864C21.6427 27.8864 27.8927 21.6464 27.8927 13.9464C27.8927 6.2464 21.6427 -0.0036 13.9427 -0.0036C6.2527 -0.0036 0.0027 6.2464 0.0027 13.9464C0.0027 21.6464 6.2527 27.8864 13.9427 27.8864ZM22.0127 10.7864C22.0127 8.8164 20.6427 7.5064 18.5927 7.5064H9.2727C7.2227 7.5064 5.8627 8.8164 5.8627 10.7864V22.3164C3.6827 20.1964 2.3227 17.2264 2.3227 13.9464C2.3227 7.5164 7.5227 2.3264 13.9427 2.3264C20.3727 2.3264 25.5627 7.5164 25.5627 13.9464C25.5627 17.2364 24.2027 20.2064 22.0127 22.3164ZM13.9427 25.5664C11.7127 25.5664 9.6427 24.9364 7.8627 23.8564V11.1064C7.8627 10.0864 8.4627 9.5064 9.5327 9.5064H18.3327C19.4027 9.5064 20.0127 10.0864 20.0127 11.1064V23.8564C18.2527 24.9364 16.1727 25.5664 13.9427 25.5664ZM12.4327 12.1564H15.4627C15.9427 12.1564 16.3427 11.7764 16.3427 11.2764C16.3427 10.7864 15.9427 10.4064 15.4627 10.4064H12.4327C11.9227 10.4064 11.5227 10.7864 11.5227 11.2764C11.5227 11.7764 11.9227 12.1564 12.4327 12.1564Z" /></svg>