<svg viewBox="0 0 17.568359375 28.943359375" xmlns="http://www.w3.org/2000/svg"><path d="M3.7237 28.9396H13.8537C16.0737 28.9396 17.5637 27.5196 17.5637 25.3896V3.5596C17.5637 1.4196 16.0737 -0.0004 13.8537 -0.0004H3.7237C1.4937 -0.0004 0.0037 1.4196 0.0037 3.5596V25.3896C0.0037 27.5196 1.4937 28.9396 3.7237 28.9396ZM4.0037 26.7396C2.8437 26.7396 2.2037 26.1296 2.2037 25.0296V3.9096C2.2037 2.8196 2.8437 2.1996 4.0037 2.1996H13.5737C14.7237 2.1996 15.3637 2.8196 15.3637 3.9096V25.0296C15.3637 26.1296 14.7237 26.7396 13.5737 26.7396H10.9137V26.2796C10.9137 25.7196 10.5437 25.3296 9.9837 25.3296H7.6137C7.0437 25.3296 6.6737 25.7196 6.6737 26.2796V26.7396Z" /></svg>