<svg viewBox="0 0 27.890625 27.890625" xmlns="http://www.w3.org/2000/svg"><path d="M13.9427 27.8911C21.6427 27.8911 27.8927 21.6411 27.8927 13.9411C27.8927 6.2511 21.6427 0.0011 13.9427 0.0011C6.2527 0.0011 0.0027 6.2511 0.0027 13.9411C0.0027 21.6411 6.2527 27.8911 13.9427 27.8911ZM13.9427 25.5711C7.5227 25.5711 2.3227 20.3711 2.3227 13.9411C2.3227 7.5211 7.5227 2.3211 13.9427 2.3211C20.3727 2.3211 25.5627 7.5211 25.5627 13.9411C25.5627 20.3711 20.3727 25.5711 13.9427 25.5711ZM11.2427 21.7611H16.6527C17.8727 21.7611 18.6927 20.9911 18.6927 19.8111V8.0711C18.6927 6.8911 17.8727 6.1111 16.6527 6.1111H11.2427C10.0227 6.1111 9.2027 6.8911 9.2027 8.0711V19.8111C9.2027 20.9911 10.0227 21.7611 11.2427 21.7611ZM11.3927 20.5511C10.7627 20.5511 10.4227 20.2211 10.4227 19.6311V8.2411C10.4227 7.6611 10.7627 7.3311 11.3927 7.3311H16.5027C17.1327 7.3311 17.4727 7.6611 17.4727 8.2411V19.6311C17.4727 20.2211 17.1327 20.5511 16.5027 20.5511ZM13.0327 8.9811H14.8327C15.1327 8.9811 15.3627 8.7411 15.3627 8.4511C15.3627 8.1611 15.1327 7.9111 14.8327 7.9111H13.0327C12.7327 7.9111 12.5127 8.1611 12.5127 8.4511C12.5127 8.7411 12.7327 8.9811 13.0327 8.9811ZM5.9727 18.0011C6.1627 17.7711 6.1127 17.5011 5.8927 17.2411C5.0827 16.3411 4.6627 15.1911 4.6627 13.9411C4.6627 12.7011 5.0827 11.5511 5.8927 10.6511C6.1127 10.3911 6.1627 10.1011 5.9727 9.8811C5.7927 9.6411 5.4427 9.6411 5.1827 9.9011C4.1827 10.9811 3.6527 12.4111 3.6527 13.9411C3.6527 15.4611 4.1827 16.9011 5.1827 17.9911C5.4427 18.2511 5.7927 18.2511 5.9727 18.0011ZM21.8727 18.0011C22.0627 18.2511 22.4227 18.2511 22.6727 17.9911C23.6627 16.9011 24.2127 15.4611 24.2127 13.9411C24.2127 12.4111 23.6627 10.9811 22.6727 9.9011C22.4227 9.6411 22.0627 9.6411 21.8727 9.8811C21.6827 10.1011 21.7427 10.3911 21.9727 10.6511C22.7627 11.5511 23.2027 12.7011 23.2027 13.9411C23.2027 15.1911 22.7627 16.3411 21.9727 17.2411C21.7427 17.5011 21.6827 17.7711 21.8727 18.0011ZM7.9427 16.3211C8.1327 16.0911 8.0627 15.8311 7.8627 15.5611C7.5227 15.1211 7.3527 14.5611 7.3527 13.9411C7.3527 13.3311 7.5227 12.7511 7.8627 12.3311C8.0627 12.0611 8.1327 11.8011 7.9427 11.5711C7.7427 11.3211 7.3727 11.3211 7.1327 11.5911C6.6127 12.2511 6.3127 13.0611 6.3127 13.9411C6.3127 14.8211 6.6127 15.6411 7.1327 16.2811C7.3727 16.5611 7.7427 16.5711 7.9427 16.3211ZM19.9027 16.3211C20.1127 16.5711 20.4927 16.5611 20.7127 16.2811C21.2327 15.6411 21.5427 14.8211 21.5427 13.9411C21.5427 13.0611 21.2327 12.2511 20.7127 11.5911C20.4927 11.3211 20.1127 11.3211 19.9027 11.5711C19.7127 11.8011 19.7827 12.0611 19.9927 12.3311C20.3327 12.7511 20.5127 13.3311 20.5127 13.9411C20.5127 14.5611 20.3327 15.1211 19.9927 15.5611C19.7827 15.8311 19.7127 16.0911 19.9027 16.3211ZM12.4027 20.0311H15.5027C15.7227 20.0311 15.8627 19.8811 15.8627 19.6711C15.8627 19.4411 15.7227 19.2911 15.5027 19.2911H12.4027C12.1827 19.2911 12.0327 19.4411 12.0327 19.6711C12.0327 19.8811 12.1827 20.0311 12.4027 20.0311Z" /></svg>