<svg viewBox="0 0 23.283203125 18.169921875" xmlns="http://www.w3.org/2000/svg"><path d="M0.0037 14.8592C0.0037 16.8892 1.2337 18.1692 3.1337 18.1692H20.1537C22.0537 18.1692 23.2837 16.8892 23.2837 14.8592V3.3092C23.2837 1.2892 22.0537 -0.0008 20.1537 -0.0008H3.1337C1.2337 -0.0008 0.0037 1.2892 0.0037 3.3092ZM2.2037 14.5892V3.5792C2.2037 2.7192 2.6937 2.1992 3.5037 2.1992H19.7937C20.5937 2.1992 21.0837 2.7192 21.0837 3.5792V14.5892C21.0837 15.4492 20.5937 15.9692 19.7937 15.9692H3.5037C2.6937 15.9692 2.2037 15.4492 2.2037 14.5892ZM13.9837 14.3792C16.9237 14.3792 19.2937 11.9992 19.2937 9.0792C19.2937 6.1492 16.9237 3.7692 13.9837 3.7692C11.0637 3.7692 8.6937 6.1492 8.6937 9.0792C8.6937 11.9992 11.0637 14.3792 13.9837 14.3792ZM13.9837 12.6292C12.0037 12.6292 10.4437 11.0592 10.4437 9.0792C10.4437 7.0992 12.0037 5.5192 13.9837 5.5192C15.9837 5.5192 17.5437 7.0992 17.5437 9.0792C17.5437 11.0592 15.9837 12.6292 13.9837 12.6292Z" /></svg>