<svg viewBox="0 0 27.890625 27.890625" xmlns="http://www.w3.org/2000/svg"><path d="M13.9427 27.8864C21.6427 27.8864 27.8927 21.6264 27.8927 13.9464C27.8927 6.2464 21.6427 -0.0036 13.9427 -0.0036C6.2627 -0.0036 0.0027 6.2464 0.0027 13.9464C0.0027 21.6264 6.2627 27.8864 13.9427 27.8864ZM13.2727 20.5464C11.3227 20.5464 9.8027 19.5964 9.3127 18.1264C9.2327 17.9064 9.1827 17.7064 9.1827 17.4564C9.1827 16.8464 9.6127 16.4064 10.2427 16.4064C10.7227 16.4064 11.0327 16.6364 11.2827 17.1764C11.6227 18.0864 12.3327 18.6064 13.3827 18.6064C14.5427 18.6064 15.2727 17.7564 15.2727 16.3564V8.4864C15.2727 7.7364 15.6727 7.2164 16.3927 7.2164C17.1327 7.2164 17.5427 7.7064 17.5427 8.4864V16.3764C17.5427 19.0764 16.0327 20.5464 13.2727 20.5464Z" /></svg>