<svg viewBox="0 0 25.169921875 25.169921875" xmlns="http://www.w3.org/2000/svg"><path d="M4.2937 25.1692H20.8737C23.7437 25.1692 25.1737 23.7592 25.1737 20.9492V4.2392C25.1737 1.4192 23.7437 -0.0008 20.8737 -0.0008H4.2937C1.4337 -0.0008 0.0037 1.4192 0.0037 4.2392V20.9492C0.0037 23.7592 1.4337 25.1692 4.2937 25.1692ZM8.9137 19.0492C8.2137 19.0492 7.7937 18.5692 7.7937 17.7592V7.1392C7.7937 6.3292 8.2137 5.8492 8.9137 5.8492C9.6537 5.8492 10.0637 6.3292 10.0637 7.1392V11.9592H10.1437L15.6937 6.2992C16.0237 5.9892 16.2737 5.8492 16.6137 5.8492C17.2037 5.8492 17.6537 6.2892 17.6537 6.8192C17.6537 7.1392 17.5537 7.3692 17.3037 7.6392L13.4437 11.6092L17.6537 17.1192C17.8437 17.3892 17.9637 17.6892 17.9637 17.9792C17.9637 18.5892 17.5137 19.0492 16.8737 19.0492C16.4737 19.0492 16.1737 18.8692 15.8837 18.4892L11.7837 13.0692L10.0637 14.8492V17.7592C10.0637 18.5692 9.6537 19.0492 8.9137 19.0492Z" /></svg>