<svg viewBox="0 0 25.169921875 25.169921875" xmlns="http://www.w3.org/2000/svg"><path d="M4.2937 25.1692H20.8737C23.7437 25.1692 25.1737 23.7592 25.1737 20.9492V4.2392C25.1737 1.4192 23.7437 -0.0008 20.8737 -0.0008H4.2937C1.4337 -0.0008 0.0037 1.4192 0.0037 4.2392V20.9492C0.0037 23.7592 1.4337 25.1692 4.2937 25.1692ZM4.3237 22.9692C2.9537 22.9692 2.2037 22.2392 2.2037 20.8192V4.3592C2.2037 2.9392 2.9537 2.1992 4.3237 2.1992H20.8537C22.2037 2.1992 22.9737 2.9392 22.9737 4.3592V20.8192C22.9737 22.2392 22.2037 22.9692 20.8537 22.9692ZM9.0237 18.8392C9.7337 18.8392 10.1337 18.3792 10.1337 17.6092V14.7692L11.8037 13.0392L15.7937 18.3092C16.0637 18.6792 16.3537 18.8392 16.7337 18.8392C17.3537 18.8392 17.7837 18.3992 17.7837 17.8192C17.7837 17.5392 17.6737 17.2392 17.4837 16.9792L13.3937 11.6392L17.1537 7.7792C17.3937 7.5192 17.4837 7.2892 17.4837 6.9892C17.4837 6.4792 17.0537 6.0592 16.4837 6.0592C16.1437 6.0592 15.9137 6.1792 15.6037 6.4892L10.2137 11.9892H10.1337V7.2892C10.1337 6.5192 9.7337 6.0592 9.0237 6.0592C8.3537 6.0592 7.9437 6.5192 7.9437 7.2892V17.6092C7.9437 18.3792 8.3537 18.8392 9.0237 18.8392Z" /></svg>