<svg viewBox="0 0 14.73828125 20.20703125" xmlns="http://www.w3.org/2000/svg"><path d="M1.2437 20.2073C2.0237 20.2073 2.5337 19.7173 2.5337 18.9373V13.2573L4.8537 10.7873L12.2937 19.5273C12.7237 20.0273 13.0337 20.2073 13.4937 20.2073C14.2237 20.2073 14.7337 19.7173 14.7337 19.0473C14.7337 18.7073 14.5737 18.3573 14.2437 17.9773L6.6437 8.9973L13.5037 1.9373C13.7837 1.6573 13.9037 1.3973 13.9037 1.0973C13.9037 0.4773 13.3937 -0.0027 12.7737 -0.0027C12.4037 -0.0027 12.1137 0.1073 11.7537 0.4773L2.6537 10.0173H2.5337V1.2573C2.5337 0.4873 2.0237 -0.0027 1.2437 -0.0027C0.4737 -0.0027 0.0037 0.4873 0.0037 1.2573V18.9373C0.0037 19.7173 0.4737 20.2073 1.2437 20.2073Z" /></svg>