<svg viewBox="0 0 38.63671875 22.23705998926494" xmlns="http://www.w3.org/2000/svg"><path d="M0.9837 20.263C1.5337 20.263 1.9237 19.853 1.9237 19.273V10.113C1.9237 8.573 2.4637 8.343 3.7437 8.153L4.8037 7.983C5.7037 9.253 7.4737 10.393 9.7437 10.393C11.5537 10.393 13.0437 9.613 13.5937 8.083C14.3137 9.493 15.7637 10.393 18.4437 10.393H24.3537C27.0837 10.393 28.2037 9.653 29.2737 8.173C30.2437 9.393 32.0737 10.393 34.2437 10.393C36.8737 10.393 38.6337 8.763 38.6337 5.743C38.6337 2.883 36.8837 0.003 34.3137 0.003C32.3937 0.003 31.0737 1.193 29.9137 3.503L29.1337 5.033C28.1937 6.913 27.2937 7.953 24.6537 7.953H18.7437C15.4537 7.953 14.7837 6.783 14.1337 4.543C13.4637 2.283 12.1637 0.003 9.7637 0.003C7.0237 0.003 5.2237 2.803 4.5437 5.823L3.6237 5.993C1.1337 6.403 0.0037 7.223 0.0037 10.113L0.0137 19.293C0.0137 19.863 0.4237 20.263 0.9837 20.263ZM9.6237 2.313C11.2237 2.313 12.1137 3.913 12.3637 5.303C12.6737 7.263 11.4137 8.083 9.9837 8.083C8.4237 8.083 7.0437 7.383 6.2037 6.403C6.8537 3.813 8.1937 2.313 9.6237 2.313ZM30.5337 6.013C31.5937 3.553 32.5137 2.313 34.1137 2.313C35.7137 2.313 36.8037 4.063 36.8037 5.773C36.8037 7.393 35.8637 8.023 34.3937 8.023C32.7737 8.023 31.3037 7.313 30.3537 6.353ZM7.1337 19.213L10.8037 21.953C11.5237 22.503 12.4537 22.213 12.4537 21.233V19.303H31.3237V21.233C31.3237 22.193 32.2337 22.533 32.9937 21.953L36.6537 19.213C37.1637 18.843 37.1437 18.133 36.6537 17.773L32.9937 15.053C32.2337 14.483 31.3237 14.823 31.3237 15.763V17.723H12.4537V15.763C12.4537 14.823 11.5537 14.483 10.8037 15.053L7.1337 17.773C6.6337 18.143 6.6337 18.843 7.1337 19.213Z" /></svg>