<svg viewBox="0 0 17.759765625 29.3125" xmlns="http://www.w3.org/2000/svg"><path d="M0.0037 25.1673C0.0037 27.3273 1.3537 29.3173 4.6437 29.3173H13.1137C16.4037 29.3173 17.7637 27.3273 17.7637 25.1673V4.1573C17.7637 1.9973 16.4037 -0.0027 13.1137 -0.0027H4.6437C1.3537 -0.0027 0.0037 1.9973 0.0037 4.1573ZM3.8737 5.2273C3.6737 5.2273 3.5137 5.0473 3.5137 4.8573V4.3873C3.5137 3.8273 3.9937 3.3673 4.5437 3.3673H13.2237C13.7637 3.3673 14.2437 3.8273 14.2437 4.3873V4.8573C14.2437 5.0473 14.0837 5.2273 13.8937 5.2273ZM8.9037 9.0673C11.1537 9.0673 12.9837 10.8973 12.9837 13.1473C12.9837 14.8773 11.9237 16.3273 10.0337 17.1173L11.6237 18.7173C11.7737 18.8773 11.7737 19.1273 11.6237 19.2773L10.0037 20.9173L11.1737 22.0573C11.3337 22.2473 11.3637 22.4773 11.1737 22.6573L9.1737 24.6373C8.9937 24.7873 8.7337 24.7573 8.6037 24.6373L7.5637 23.5673C7.4237 23.4373 7.3737 23.2973 7.3737 23.1173V16.9673C5.7837 16.3473 4.7837 14.8473 4.7837 13.1473C4.7837 10.8873 6.6037 9.0673 8.9037 9.0673ZM8.8837 12.9773C9.5037 12.9773 10.0037 12.4573 10.0037 11.8373C10.0037 11.2073 9.5037 10.7073 8.8837 10.7073C8.2337 10.7073 7.7337 11.2073 7.7337 11.8373C7.7337 12.4573 8.2437 12.9773 8.8837 12.9773Z" /></svg>