<svg viewBox="0 0 34.37109375 23.76171875" xmlns="http://www.w3.org/2000/svg"><path d="M27.0127 23.7594C31.1427 23.7594 34.3727 20.7394 34.3727 16.9794C34.3727 14.1094 32.7127 11.6194 30.0527 10.4994C30.0827 4.3994 25.6927 -0.0006 20.0927 -0.0006C16.3927 -0.0006 13.7527 1.9794 12.1127 4.3794C8.7527 3.3894 5.0827 5.9494 5.0127 9.7794C1.9327 10.2694 0.0027 13.0294 0.0027 16.3694C0.0027 20.3894 3.5127 23.7594 8.1927 23.7594ZM27.0127 21.5594H8.1927C4.7427 21.5594 2.2027 19.1494 2.2027 16.3694C2.2027 13.6294 3.8527 11.4594 6.7527 11.4594C6.9427 11.4594 7.0127 11.3594 7.0127 11.1794C7.0127 6.9694 10.0527 5.7294 12.8527 6.6494C13.0127 6.6994 13.1127 6.6594 13.1927 6.5094C14.5227 4.1394 16.5527 2.1994 20.0927 2.1994C24.5827 2.1994 27.6827 5.7594 27.9227 9.8194C27.9627 10.4494 27.9227 11.1794 27.8627 11.8294C27.8527 11.9994 27.9227 12.0994 28.0827 12.1394C30.5727 12.6894 32.1727 14.5094 32.1727 16.9794C32.1727 19.5194 29.9327 21.5594 27.0127 21.5594ZM24.6927 13.4694C24.6927 11.1994 22.8727 9.3894 20.6327 9.3894C18.9227 9.3894 17.4227 10.3994 16.8027 11.9994H10.5127C10.3627 11.9994 10.2427 12.0494 10.1027 12.1794L9.0527 13.2494C8.9327 13.3594 8.9127 13.5594 9.0527 13.6894L11.0427 15.7094C11.1827 15.8494 11.3927 15.8494 11.5127 15.7094L12.7527 14.4494L14.4827 16.1894C14.5927 16.3094 14.7827 16.2994 14.9127 16.1594L16.6427 14.4694C17.4327 16.4294 18.8827 17.5294 20.6327 17.5294C22.8727 17.5294 24.6927 15.7194 24.6927 13.4694ZM22.7327 13.4494C22.7327 14.1394 22.1727 14.6994 21.4927 14.6994C20.7827 14.6994 20.2227 14.1394 20.2227 13.4494C20.2227 12.7694 20.7827 12.2094 21.4927 12.2094C22.1727 12.2094 22.7327 12.7594 22.7327 13.4494Z" /></svg>