<svg viewBox="0 0 34.07091817555575 18.279296875" xmlns="http://www.w3.org/2000/svg"><path d="M0.3943 8.2076C-0.0957 8.7676 -0.1657 9.5576 0.3843 10.0876L4.5943 14.3176C5.1443 14.8576 5.9743 14.8376 6.4943 14.2976L8.6043 12.1976L11.6943 15.2676C12.2143 15.8076 13.0443 15.7876 13.5743 15.2576L16.4643 12.3976C18.2543 16.1576 21.3243 18.2776 24.9543 18.2776C30.0143 18.2776 34.0743 14.2076 34.0743 9.1476C34.0743 4.0776 30.0243 -0.0024 24.9543 -0.0024C21.3043 -0.0024 18.0343 2.1076 16.5843 5.4276H3.6643C3.2143 5.4276 2.6943 5.5676 2.3543 5.9776ZM2.5443 9.1476L4.0643 7.6376H18.1543C18.8943 4.4176 21.6543 2.1876 24.9543 2.1876C28.7843 2.1876 31.8743 5.2876 31.8743 9.1476C31.8743 12.9876 28.7943 16.0776 24.9543 16.0776C21.6943 16.0776 18.8943 13.8376 18.0743 10.4076H15.3043L12.6243 13.0876L9.7443 10.1876H7.4943L5.5643 12.1276ZM25.3643 9.1476C25.3643 10.3776 26.3643 11.3776 27.5943 11.3776C28.8243 11.3776 29.8043 10.3776 29.8043 9.1476C29.8043 7.8976 28.8243 6.9276 27.5943 6.9276C26.3643 6.9276 25.3643 7.9176 25.3643 9.1476Z" /></svg>