<svg viewBox="0 0 30.529296875 29.17578125" xmlns="http://www.w3.org/2000/svg"><path d="M1.0937 29.179H29.4237C30.0237 29.179 30.5337 28.669 30.5337 28.069C30.5337 27.469 30.0237 26.979 29.4237 26.979H28.7137V25.979C28.7137 25.429 28.3937 25.099 27.8337 25.099H26.9637V9.379H28.1637C28.9137 9.379 29.3537 8.829 29.3537 8.269C29.3537 7.859 29.1237 7.509 28.6137 7.219L16.9437 0.479C16.3937 0.169 15.8137 -0.001 15.2537 -0.001C14.6937 -0.001 14.1137 0.169 13.5937 0.479L1.9137 7.219C1.3937 7.509 1.1737 7.859 1.1737 8.269C1.1737 8.829 1.6137 9.379 2.3637 9.379H3.5637V25.099H2.7037C2.1437 25.099 1.8137 25.429 1.8137 25.979V26.979H1.0937C0.4937 26.979 0.0037 27.469 0.0037 28.069C0.0037 28.669 0.4937 29.179 1.0937 29.179ZM12.1037 22.089C11.5837 22.089 11.2637 21.769 11.2637 21.249V15.979H10.2937C10.0037 15.979 9.8137 15.789 9.8137 15.519C9.8137 15.229 10.0037 15.039 10.2937 15.039H11.2637V9.929C11.2637 9.409 11.5837 9.089 12.1037 9.089C12.5937 9.089 12.9237 9.409 12.9237 9.929V15.039H13.8237L18.1837 9.499C18.3637 9.299 18.6037 9.089 18.8937 9.089C19.3037 9.089 19.6437 9.409 19.6437 9.819C19.6437 9.999 19.5637 10.189 19.4237 10.349L15.6437 15.039H19.4937C19.7837 15.039 20.0037 15.229 20.0037 15.499C20.0037 15.759 19.7837 15.979 19.4937 15.979H15.6137L19.4237 20.779C19.5737 20.969 19.6637 21.149 19.6637 21.369C19.6637 21.679 19.4237 22.089 18.8937 22.089C18.5637 22.089 18.3637 21.929 18.1537 21.669L13.8037 15.979H12.9237V21.249C12.9237 21.769 12.5937 22.089 12.1037 22.089Z" /></svg>