<svg viewBox="0 0 37.748046875 20.78125" xmlns="http://www.w3.org/2000/svg"><path d="M1.2537 20.7844C2.0237 20.7844 2.5137 20.3344 2.5137 19.4644V13.9844L4.1537 11.3344L8.6837 19.7844C9.0137 20.4144 9.3137 20.7144 9.9537 20.7144C10.6237 20.7144 11.1137 20.2244 11.1137 19.5644C11.1137 19.2244 10.9137 18.8444 10.7637 18.5544L5.7537 9.3144L10.1437 2.1644C10.3037 1.8844 10.4637 1.6144 10.4637 1.2444C10.4637 0.5244 9.9237 0.0544 9.3137 0.0544C8.7137 0.0544 8.4037 0.4144 8.1037 0.9044L2.5437 10.2644H2.5137V1.2944C2.5137 0.4744 2.0337 0.0044 1.2137 0.0044C0.5837 0.0044 0.0037 0.3644 0.0037 1.2944V19.4644C0.0037 20.3344 0.5437 20.7844 1.2537 20.7844ZM28.0037 20.7844C28.8737 20.7844 29.2437 20.1544 29.2437 19.3844V11.2744H35.2337V19.3844C35.2337 20.2044 35.6537 20.7844 36.4737 20.7844C37.2937 20.7844 37.7437 20.2044 37.7437 19.3844V1.3944C37.7437 0.5744 37.2937 0.0044 36.4737 0.0044C35.6537 0.0044 35.2337 0.5744 35.2337 1.3944V9.0544H29.2437V1.3944C29.2437 0.6244 28.8737 0.0044 28.0037 0.0044C27.1837 0.0044 26.7437 0.5744 26.7437 1.3944V19.3844C26.7437 20.2044 27.1837 20.7844 28.0037 20.7844ZM14.8637 20.7144C15.5537 20.7144 16.1237 20.3144 16.1237 19.4044V13.1944H18.6037C21.9837 13.1944 23.8137 10.2444 23.8137 6.7244C23.8137 3.4044 22.1237 0.2744 18.7037 0.2744H14.8437C14.0537 0.2744 13.6137 0.8044 13.6137 1.5844V19.4044C13.6137 20.2244 14.0537 20.7144 14.8637 20.7144ZM16.1237 11.0244V2.4644H18.1137C20.3937 2.4644 21.3437 4.2944 21.3437 6.7244C21.3437 9.0944 20.4237 11.0244 18.1137 11.0244Z" /></svg>