<svg viewBox="0 0 34.27711669769996 31.4453125" xmlns="http://www.w3.org/2000/svg"><path d="M18.5409 -0.0026C11.7209 -0.0026 5.8909 4.3774 3.7509 10.4474C4.5109 10.3474 5.2909 10.5574 5.8709 11.0374C7.7909 5.8674 12.7209 2.1974 18.5409 2.1974C26.0309 2.1974 32.0809 8.2474 32.0809 15.7374C32.0809 23.2274 26.0309 29.2474 18.5409 29.2474C12.7409 29.2474 7.8109 25.6074 5.8809 20.4574C5.2909 20.9174 4.5409 21.1474 3.7509 21.0374C5.9209 27.1074 11.7309 31.4474 18.5409 31.4474C27.2209 31.4474 34.2809 24.4174 34.2809 15.7374C34.2809 7.0574 27.2209 -0.0026 18.5409 -0.0026ZM18.5409 26.6474C24.5709 26.6474 29.4609 21.7674 29.4609 15.7374C29.4609 9.6974 24.5709 4.8174 18.5409 4.8174C12.5109 4.8174 7.6309 9.6974 7.6309 15.7374C7.6309 21.7674 12.5109 26.6474 18.5409 26.6474ZM16.4609 21.1374C15.7909 21.1374 15.4209 20.6574 15.4209 19.9574V11.3374C15.4209 10.6374 15.7909 10.1474 16.4609 10.1474C17.1309 10.1474 17.5709 10.6274 17.5709 11.3374V19.3274H21.5909C22.0909 19.3274 22.5209 19.7174 22.5209 20.2474C22.5209 20.7774 22.0909 21.1374 21.5909 21.1374ZM3.6609 12.5474L0.3809 14.9974C-0.1391 15.3774 -0.1191 16.0874 0.3809 16.4774L3.6809 18.9374C4.4009 19.4774 5.3709 19.1774 5.3709 18.2074V13.2774C5.3709 12.3274 4.4209 11.9874 3.6609 12.5474Z" /></svg>