<svg viewBox="0 0 25.169921875 25.169921875" xmlns="http://www.w3.org/2000/svg"><path d="M4.2937 25.1692H20.8737C23.7437 25.1692 25.1737 23.7592 25.1737 20.9492V4.2392C25.1737 1.4192 23.7437 -0.0008 20.8737 -0.0008H4.2937C1.4337 -0.0008 0.0037 1.4192 0.0037 4.2392V20.9492C0.0037 23.7592 1.4337 25.1692 4.2937 25.1692ZM4.3237 22.9692C2.9537 22.9692 2.2037 22.2392 2.2037 20.8192V4.3592C2.2037 2.9392 2.9537 2.1992 4.3237 2.1992H20.8537C22.2037 2.1992 22.9737 2.9392 22.9737 4.3592V20.8192C22.9737 22.2392 22.2037 22.9692 20.8537 22.9692ZM10.0537 18.6792H16.3537C16.8737 18.6792 17.2537 18.3292 17.2537 17.7892C17.2537 17.2292 16.8737 16.8892 16.3537 16.8892H11.1537V7.2892C11.1537 6.5392 10.7737 6.0592 10.0537 6.0592C9.3537 6.0592 8.9737 6.5592 8.9737 7.2892V17.4592C8.9737 18.1792 9.3537 18.6792 10.0537 18.6792Z" /></svg>