<svg viewBox="0 0 25.169921875 25.169921875" xmlns="http://www.w3.org/2000/svg"><path d="M4.2937 25.1692H20.8737C23.7437 25.1692 25.1737 23.7592 25.1737 20.9492V4.2392C25.1737 1.4192 23.7437 -0.0008 20.8737 -0.0008H4.2937C1.4337 -0.0008 0.0037 1.4192 0.0037 4.2392V20.9492C0.0037 23.7592 1.4337 25.1692 4.2937 25.1692ZM9.9637 18.8692C9.2437 18.8692 8.8437 18.3492 8.8437 17.5992V7.1192C8.8437 6.3692 9.2437 5.8392 9.9637 5.8392C10.7237 5.8392 11.1137 6.3392 11.1137 7.1192V17.0092H16.4637C17.0037 17.0092 17.4037 17.3592 17.4037 17.9392C17.4037 18.5092 17.0037 18.8692 16.4637 18.8692Z" /></svg>