<svg viewBox="0 0 31.541015625 23.84375" xmlns="http://www.w3.org/2000/svg"><path d="M11.4737 23.843H20.0737C28.0037 23.843 31.5437 20.193 31.5437 12.733V4.143C31.5437 1.393 30.1237 0.003 27.3437 0.003H4.1937C1.4237 0.003 0.0037 1.393 0.0037 4.143V12.733C0.0037 20.193 3.5437 23.843 11.4737 23.843ZM19.8637 17.553C19.3137 17.553 18.8637 17.103 18.8637 16.543V8.343L17.6337 9.333C17.4837 9.443 17.3537 9.503 17.1337 9.503C16.7237 9.503 16.4437 9.213 16.4437 8.793C16.4437 8.433 16.6437 8.163 16.8737 8.003L18.3637 6.823C18.6937 6.593 19.1437 6.273 19.7037 6.273C20.4137 6.273 20.8637 6.683 20.8637 7.383V16.543C20.8637 17.103 20.3937 17.553 19.8637 17.553ZM11.5237 17.413C10.8937 17.413 10.5437 17.033 10.5437 16.393V7.283C10.5437 6.743 11.0037 6.293 11.5437 6.293C12.0837 6.293 12.5237 6.743 12.5237 7.283V15.763H15.4237C15.8737 15.763 16.2437 16.133 16.2437 16.593C16.2437 17.053 15.8737 17.413 15.4237 17.413Z" /></svg>