<svg viewBox="0 0 31.541015625 23.84375" xmlns="http://www.w3.org/2000/svg"><path d="M11.4737 0.003C3.5437 0.003 0.0037 3.653 0.0037 11.113V19.683C0.0037 22.453 1.4237 23.843 4.1937 23.843H27.3437C30.1237 23.843 31.5437 22.433 31.5437 19.683V11.113C31.5437 3.653 28.0037 0.003 20.0737 0.003ZM17.2637 17.633C16.6137 17.633 16.2937 17.283 16.2937 16.803C16.2937 16.363 16.5737 16.013 16.8437 15.683L19.2737 12.553C20.0137 11.593 20.8037 10.443 20.8037 9.323C20.8037 8.323 20.3337 7.573 19.4937 7.573C18.6937 7.573 18.3437 8.173 18.0737 9.123C17.9237 9.573 17.6537 9.793 17.1837 9.793C16.6237 9.793 16.3237 9.423 16.3237 8.913C16.3237 7.423 17.7037 5.933 19.5137 5.933C21.4537 5.933 22.7337 7.313 22.7337 9.233C22.7337 10.473 22.2837 11.503 20.8637 13.263L18.8237 15.843V15.973H22.1637C22.6437 15.973 22.9737 16.283 22.9737 16.803C22.9737 17.293 22.6537 17.633 22.1637 17.633ZM10.2637 17.653C9.6137 17.653 9.2537 17.243 9.2537 16.573V7.093C9.2537 6.523 9.7237 6.053 10.2837 6.053C10.8437 6.053 11.3237 6.523 11.3237 7.093V15.923H14.3237C14.7937 15.923 15.1737 16.323 15.1737 16.793C15.1737 17.253 14.7937 17.653 14.3237 17.653Z" /></svg>