<svg viewBox="0 0 27.890625 27.890625" xmlns="http://www.w3.org/2000/svg"><path d="M13.9427 27.8864C21.6427 27.8864 27.8927 21.6264 27.8927 13.9464C27.8927 6.2464 21.6427 -0.0036 13.9427 -0.0036C6.2627 -0.0036 0.0027 6.2464 0.0027 13.9464C0.0027 21.6264 6.2627 27.8864 13.9427 27.8864ZM15.4327 19.6464C14.7827 19.6464 14.4627 19.3064 14.4627 18.8264C14.4627 18.3864 14.7427 18.0364 15.0127 17.6864L17.4427 14.5764C18.1827 13.6164 18.9727 12.4664 18.9727 11.3464C18.9727 10.3364 18.5027 9.5964 17.6627 9.5964C16.8527 9.5964 16.5127 10.1864 16.2427 11.1264C16.0927 11.5964 15.8227 11.8164 15.3527 11.8164C14.7927 11.8164 14.4927 11.4464 14.4927 10.9264C14.4927 9.4464 15.8727 7.9564 17.6827 7.9564C19.6227 7.9564 20.9227 9.3364 20.9227 11.2364C20.9227 12.4864 20.4527 13.5264 19.0327 15.2864L16.9927 17.8664V17.9964H20.3327C20.8127 17.9964 21.1327 18.2964 21.1327 18.8264C21.1327 19.3164 20.8227 19.6464 20.3327 19.6464ZM8.4327 19.6564C7.7827 19.6564 7.4227 19.2664 7.4227 18.5964V9.1064C7.4227 8.5464 7.8927 8.0764 8.4527 8.0764C9.0127 8.0764 9.4927 8.5464 9.4927 9.1064V17.9464H12.4927C12.9627 17.9464 13.3427 18.3364 13.3427 18.7964C13.3427 19.2764 12.9627 19.6564 12.4927 19.6564Z" /></svg>