<svg viewBox="0 0 27.890625 27.890625" xmlns="http://www.w3.org/2000/svg"><path d="M13.9427 27.8864C21.6427 27.8864 27.8927 21.6464 27.8927 13.9464C27.8927 6.2464 21.6427 -0.0036 13.9427 -0.0036C6.2527 -0.0036 0.0027 6.2464 0.0027 13.9464C0.0027 21.6464 6.2527 27.8864 13.9427 27.8864ZM13.9427 25.5664C7.5227 25.5664 2.3227 20.3664 2.3227 13.9464C2.3227 7.5164 7.5227 2.3264 13.9427 2.3264C20.3727 2.3264 25.5627 7.5164 25.5627 13.9464C25.5627 20.3664 20.3727 25.5664 13.9427 25.5664ZM13.9327 10.5964C15.2027 10.5964 16.4327 10.3664 17.2527 9.9964C17.7327 9.7764 17.8827 9.4764 17.8827 9.0664C17.8827 8.0964 17.3327 7.2364 16.3627 6.7164L16.3427 6.5064C16.2927 6.2364 16.3827 6.0664 16.7027 5.9764L17.2227 5.7864C17.9627 5.5964 17.5927 4.4564 16.8427 4.7164L16.2427 4.9664C15.6027 5.1964 15.2127 5.6164 15.2427 6.2064L15.2627 6.2864C14.8427 6.1764 14.3927 6.1264 13.9327 6.1264C13.4627 6.1264 13.0327 6.1764 12.6227 6.2864V6.2064C12.6427 5.6364 12.2627 5.1964 11.6227 4.9664L11.0227 4.7164C10.2627 4.4564 9.9027 5.5964 10.6327 5.7864L11.1527 5.9764C11.4827 6.0664 11.5827 6.2364 11.5227 6.5064L11.5027 6.7164C10.5227 7.2364 9.9827 8.0964 9.9827 9.0664C9.9827 9.4764 10.1427 9.7764 10.6127 9.9964C11.4327 10.3664 12.6627 10.5964 13.9327 10.5964ZM13.9327 12.7664C14.2027 12.7664 14.4127 12.9764 14.4127 13.2364V21.7064C14.4127 22.0964 14.6727 22.2764 15.1727 22.2164C16.7327 22.0264 18.0227 21.2864 18.9327 20.1964L19.9627 21.0364C20.2527 21.2864 20.6127 21.2964 20.8527 21.0164C21.0827 20.7364 21.0027 20.3664 20.7127 20.1364L19.6027 19.1964C20.1227 18.2364 20.4227 17.0764 20.4527 15.7864H21.7527C22.1327 15.7864 22.3627 15.5564 22.3627 15.2064C22.3627 14.8564 22.1327 14.6264 21.7527 14.6264L20.3827 14.6164C20.2627 13.6264 19.9627 12.6064 19.5327 11.8164L20.6827 10.8464C20.9727 10.5964 21.0527 10.2264 20.8227 9.9364C20.5927 9.6564 20.2327 9.6764 19.9327 9.9364L18.8027 10.8964C18.3927 10.5564 18.1127 10.5364 17.8727 10.6464C16.7627 11.1464 15.3527 11.4564 13.9327 11.4564C12.5127 11.4564 11.1027 11.1464 10.0127 10.6464C9.7527 10.5364 9.4727 10.5564 9.0627 10.8964L7.9327 9.9364C7.6327 9.6764 7.2727 9.6664 7.0427 9.9364C6.8127 10.2264 6.8927 10.6064 7.1827 10.8464L8.3427 11.8164C7.9027 12.6064 7.6027 13.6264 7.4827 14.6164L6.1227 14.6264C5.7327 14.6264 5.4927 14.8564 5.4927 15.2064C5.4927 15.5564 5.7327 15.7864 6.1227 15.7864H7.4127C7.4327 17.0764 7.7427 18.2364 8.2627 19.1964L7.1527 20.1364C6.8627 20.3664 6.7827 20.7364 7.0127 21.0164C7.2427 21.2964 7.6127 21.2864 7.9027 21.0364L8.9327 20.1964C9.8427 21.2864 11.1327 22.0264 12.6827 22.2164C13.1927 22.2764 13.4527 22.0964 13.4527 21.7064V13.2364C13.4527 12.9764 13.6627 12.7664 13.9327 12.7664ZM9.5727 14.2164C9.5727 13.6064 10.0927 13.0864 10.7027 13.0864C11.3227 13.0864 11.8427 13.6164 11.8427 14.2164C11.8427 14.8364 11.3227 15.3564 10.7027 15.3564C10.0927 15.3564 9.5727 14.8364 9.5727 14.2164ZM18.2927 14.2164C18.2927 14.8364 17.7827 15.3564 17.1727 15.3564C16.5427 15.3564 16.0327 14.8364 16.0327 14.2164C16.0327 13.6164 16.5427 13.0864 17.1727 13.0864C17.7827 13.0864 18.2927 13.6064 18.2927 14.2164ZM9.5927 18.0464C9.5927 17.3464 10.1727 16.7664 10.8827 16.7664C11.5627 16.7664 12.1727 17.3464 12.1727 18.0464C12.1727 18.7564 11.5627 19.3364 10.8827 19.3364C10.1727 19.3364 9.5927 18.7564 9.5927 18.0464ZM18.2827 18.0464C18.2827 18.7564 17.6927 19.3364 16.9927 19.3364C16.2927 19.3364 15.6927 18.7564 15.6927 18.0464C15.6927 17.3464 16.2927 16.7664 16.9927 16.7664C17.6927 16.7664 18.2827 17.3464 18.2827 18.0464Z" /></svg>