<svg viewBox="0 0 31.580343986883236 33.17701882308967" xmlns="http://www.w3.org/2000/svg"><path d="M15.7974 10.8308C18.1274 10.8308 20.4074 10.4108 21.9174 9.7108C22.7774 9.3108 23.0574 8.7408 23.0574 8.0008C23.0574 6.1908 22.0174 4.6108 20.2574 3.6408L20.1874 3.3108C20.0674 2.8308 20.2974 2.5208 20.8974 2.3108L21.8174 1.9708C23.1474 1.5708 22.4874 -0.3992 21.1374 0.0708L20.0574 0.5108C18.8674 0.9308 18.2374 1.7508 18.2174 2.8608C17.4874 2.6808 16.6674 2.6008 15.7974 2.6008C14.9374 2.6008 14.1174 2.6908 13.3774 2.8708C13.3674 1.7508 12.7374 0.9308 11.5474 0.5108L10.4574 0.0708C9.0974 -0.3992 8.4574 1.5708 9.7674 1.9708L10.6974 2.3108C11.3074 2.5208 11.5174 2.8308 11.4174 3.3108L11.3474 3.6708C10.0574 4.3908 9.1674 5.4408 8.8174 6.7108L12.5974 10.5008C13.5574 10.7108 14.6674 10.8308 15.7974 10.8308ZM0.2974 3.4508L29.7874 32.8708C30.1974 33.2808 30.8674 33.2808 31.2774 32.8708C31.6774 32.4608 31.6874 31.7908 31.2774 31.3808L1.7974 1.9608C1.3874 1.5508 0.7074 1.5308 0.2974 1.9608C-0.1026 2.3508 -0.1026 3.0508 0.2974 3.4508ZM22.5874 19.2408C23.7274 19.2408 24.6474 20.1508 24.6474 21.2708C24.6474 21.6308 24.4874 21.9408 24.2374 22.1108L26.9974 24.8608C27.5074 23.5008 27.7774 21.9708 27.8074 20.3008L30.1674 20.3208C30.8574 20.3208 31.2874 19.8908 31.2874 19.2708C31.2874 18.6508 30.8574 18.2308 30.1674 18.2308L27.6774 18.2108C27.4374 16.3908 26.8574 14.4508 26.0574 13.0208L28.2174 11.2008C28.7074 10.7908 28.8674 10.1208 28.4474 9.6308C28.0374 9.1208 27.3774 9.1808 26.8774 9.6008L24.7574 11.3808C23.9774 10.7308 23.4974 10.7308 23.0174 10.9408C20.9974 11.8408 18.4374 12.4208 15.7974 12.4208C15.3674 12.4208 14.8974 12.4008 14.4374 12.3208L21.7774 19.6308C21.9274 19.4208 22.2374 19.2408 22.5874 19.2408ZM9.1474 14.5508L6.3174 11.7308L3.8374 9.3508C3.5874 9.3408 3.3474 9.4508 3.1574 9.6808C2.7274 10.1908 2.8974 10.8408 3.3874 11.2708L5.5374 13.0608C4.7374 14.4908 4.1674 16.4108 3.9174 18.2108L1.4274 18.2308C0.7474 18.2308 0.2974 18.6508 0.2974 19.2708C0.2974 19.8908 0.7474 20.3208 1.4274 20.3208L3.7974 20.3008C3.8274 22.7108 4.3874 24.8708 5.3574 26.6808L3.3474 28.3608C2.8574 28.7708 2.6874 29.4208 3.1174 29.9308C3.5274 30.4408 4.1774 30.3808 4.6874 29.9608L6.5174 28.4108C8.1974 30.4908 10.6074 31.8408 13.5074 32.2108C14.4374 32.3208 14.8974 31.9908 14.8974 31.2808V20.3008L11.6174 17.0408C11.3074 17.3008 10.9074 17.4608 10.4674 17.4608C9.5074 17.4608 8.7374 16.6408 8.7374 15.7008C8.7374 15.2608 8.8874 14.8608 9.1474 14.5508ZM21.1174 17.4608C20.1674 17.4608 19.3674 16.6508 19.3674 15.7008C19.3674 14.7308 20.1674 13.9308 21.1174 13.9308C22.0874 13.9308 22.8674 14.7308 22.8674 15.7008C22.8674 16.6408 22.0874 17.4608 21.1174 17.4608ZM9.0074 23.3408C7.8674 23.3408 6.9574 22.4208 6.9574 21.2708C6.9574 20.1508 7.8674 19.2408 9.0074 19.2408C10.1274 19.2408 11.0674 20.1508 11.0674 21.2708C11.0674 22.4208 10.1274 23.3408 9.0074 23.3408ZM20.8474 28.3408C20.0074 28.3408 19.3374 27.6708 19.3374 26.8408C19.3374 26.2708 19.6474 25.8008 20.1374 25.5308L16.6874 22.1008V31.2808C16.6874 31.9908 17.1674 32.3208 18.0874 32.2108C20.4474 31.9108 22.4974 30.9508 24.0874 29.4608L22.1574 27.5508C21.9274 28.0308 21.4374 28.3408 20.8474 28.3408ZM10.7474 28.3408C9.9274 28.3408 9.2374 27.6708 9.2374 26.8408C9.2374 26.0108 9.9274 25.3408 10.7474 25.3408C11.5874 25.3408 12.2574 26.0108 12.2574 26.8408C12.2574 27.6708 11.5874 28.3408 10.7474 28.3408Z" /></svg>