<svg viewBox="0 0 30.994140625 32.23376753123227" xmlns="http://www.w3.org/2000/svg"><path d="M8.2337 8.0008C8.2337 8.7408 8.5137 9.3108 9.3937 9.7108C10.8937 10.4108 13.1637 10.8308 15.4937 10.8308C17.8237 10.8308 20.0937 10.4108 21.6037 9.7108C22.4737 9.3108 22.7637 8.7408 22.7637 8.0008C22.7637 6.1908 21.7237 4.6108 19.9437 3.6408L19.8837 3.3108C19.7737 2.8308 20.0037 2.5208 20.5937 2.3108L21.5237 1.9708C22.8337 1.5708 22.1937 -0.3992 20.8337 0.0708L19.7537 0.5108C18.5637 0.9308 17.9337 1.7508 17.9137 2.8608C17.1737 2.6808 16.3637 2.6008 15.4937 2.6008C14.6337 2.6008 13.8237 2.6808 13.0737 2.8608C13.0537 1.7508 12.4237 0.9308 11.2337 0.5108L10.1537 0.0708C8.8037 -0.3992 8.1637 1.5708 9.4737 1.9708L10.4037 2.3108C10.9937 2.5208 11.2237 2.8308 11.1137 3.3108L11.0337 3.6408C9.2737 4.6108 8.2337 6.1908 8.2337 8.0008ZM17.7837 32.2108C20.6837 31.8408 23.0937 30.4908 24.7837 28.4108L26.6037 29.9608C27.1137 30.3808 27.7637 30.4408 28.1937 29.9308C28.6037 29.4208 28.4537 28.7708 27.9437 28.3608L25.9537 26.6808C26.9237 24.8708 27.4637 22.7108 27.5037 20.3008L29.8637 20.3208C30.5437 20.3208 30.9937 19.8908 30.9937 19.2708C30.9937 18.6508 30.5437 18.2308 29.8737 18.2308L27.3737 18.2108C27.1437 16.3908 26.5637 14.4508 25.7437 13.0208L27.9037 11.2008C28.3937 10.7908 28.5637 10.1208 28.1537 9.6308C27.7437 9.1208 27.0737 9.1808 26.5637 9.6008L24.4637 11.3808C23.6837 10.7308 23.1837 10.7308 22.7137 10.9408C20.6837 11.8408 18.1337 12.4208 15.4937 12.4208C12.8637 12.4208 10.3037 11.8408 8.2837 10.9408C7.8037 10.7308 7.3137 10.7308 6.5337 11.3808L4.4337 9.6008C3.9237 9.1808 3.2537 9.1208 2.8437 9.6308C2.4337 10.1208 2.5937 10.7908 3.0937 11.2008L5.2537 13.0208C4.4337 14.4508 3.8537 16.3908 3.6137 18.2108L1.1237 18.2308C0.4337 18.2308 0.0037 18.6508 0.0037 19.2708C0.0037 19.8908 0.4337 20.3208 1.1337 20.3208L3.4837 20.3008C3.5237 22.7108 4.0737 24.8708 5.0437 26.6808L3.0337 28.3608C2.5437 28.7708 2.3937 29.4208 2.8037 29.9308C3.2237 30.4408 3.8737 30.3808 4.3937 29.9608L6.2037 28.4108C7.9037 30.4908 10.3037 31.8408 13.2037 32.2108C14.1337 32.3208 14.6037 31.9908 14.6037 31.2808V15.7208C14.6037 15.2308 14.9937 14.8408 15.4937 14.8408C15.9837 14.8408 16.3937 15.2308 16.3937 15.7208V31.2808C16.3937 31.9908 16.8537 32.3208 17.7837 32.2108ZM10.1737 17.4608C9.2037 17.4608 8.4237 16.6408 8.4237 15.7008C8.4237 14.7308 9.2037 13.9308 10.1737 13.9308C11.1437 13.9308 11.9337 14.7308 11.9337 15.7008C11.9337 16.6508 11.1437 17.4608 10.1737 17.4608ZM20.8237 17.4608C19.8537 17.4608 19.0537 16.6508 19.0537 15.7008C19.0537 14.7308 19.8537 13.9308 20.8237 13.9308C21.7937 13.9308 22.5737 14.7308 22.5737 15.7008C22.5737 16.6408 21.7937 17.4608 20.8237 17.4608ZM8.7137 23.3408C7.5737 23.3408 6.6537 22.4208 6.6537 21.2708C6.6537 20.1508 7.5737 19.2408 8.7137 19.2408C9.8337 19.2408 10.7637 20.1508 10.7637 21.2708C10.7637 22.4208 9.8337 23.3408 8.7137 23.3408ZM22.2837 23.3408C21.1637 23.3408 20.2337 22.4208 20.2337 21.2708C20.2337 20.1508 21.1637 19.2408 22.2837 19.2408C23.4237 19.2408 24.3337 20.1508 24.3337 21.2708C24.3337 22.4208 23.4237 23.3408 22.2837 23.3408ZM10.4437 28.3408C9.6137 28.3408 8.9437 27.6708 8.9437 26.8408C8.9437 26.0108 9.6137 25.3408 10.4437 25.3408C11.2937 25.3408 11.9637 26.0108 11.9637 26.8408C11.9637 27.6708 11.2937 28.3408 10.4437 28.3408ZM20.5537 28.3408C19.7037 28.3408 19.0337 27.6708 19.0337 26.8408C19.0337 26.0108 19.7037 25.3408 20.5537 25.3408C21.3837 25.3408 22.0537 26.0108 22.0537 26.8408C22.0537 27.6708 21.3837 28.3408 20.5537 28.3408Z" /></svg>