<svg viewBox="0 0 27.890625 27.890625" xmlns="http://www.w3.org/2000/svg"><path d="M13.9427 27.8864C21.6427 27.8864 27.8927 21.6464 27.8927 13.9464C27.8927 6.2464 21.6427 -0.0036 13.9427 -0.0036C6.2527 -0.0036 0.0027 6.2464 0.0027 13.9464C0.0027 21.6464 6.2527 27.8864 13.9427 27.8864ZM13.9427 25.5664C7.5227 25.5664 2.3227 20.3664 2.3227 13.9464C2.3227 7.5164 7.5227 2.3264 13.9427 2.3264C20.3727 2.3264 25.5627 7.5164 25.5627 13.9464C25.5627 20.3664 20.3727 25.5664 13.9427 25.5664ZM13.9327 10.5964C15.2027 10.5964 16.4327 10.3664 17.2527 9.9964C17.7327 9.7764 17.8827 9.4764 17.8827 9.0664C17.8827 8.0964 17.3327 7.2364 16.3627 6.7164L16.3427 6.5064C16.2927 6.2364 16.3827 6.0664 16.7027 5.9764L17.2227 5.7864C17.9627 5.5964 17.5927 4.4564 16.8427 4.7164L16.2427 4.9664C15.6027 5.1964 15.2127 5.6164 15.2427 6.2064L15.2627 6.2864C14.8427 6.1764 14.3927 6.1264 13.9327 6.1264C13.4627 6.1264 13.0327 6.1764 12.6227 6.2864V6.2064C12.6427 5.6364 12.2627 5.1964 11.6227 4.9664L11.0227 4.7164C10.2627 4.4564 9.9027 5.5964 10.6327 5.7864L11.1527 5.9764C11.4827 6.0664 11.5827 6.2364 11.5227 6.5064L11.5027 6.7164C10.9127 7.0264 10.4827 7.4764 10.2427 8.0164L12.7527 10.5164C13.1227 10.5664 13.5327 10.5964 13.9327 10.5964ZM20.1227 20.9964C20.3527 21.2364 20.7627 21.2364 21.0027 20.9964C21.2427 20.7364 21.2427 20.3664 21.0027 20.1264L7.7627 6.8864C7.5227 6.6464 7.1327 6.6464 6.8727 6.8864C6.6427 7.1264 6.6427 7.5364 6.8727 7.7664ZM12.6827 22.2164C13.1927 22.2764 13.4527 22.0964 13.4527 21.7064V15.6864L7.4627 9.7064C7.3327 9.7064 7.1927 9.7664 7.0827 9.8864C6.8527 10.1764 6.9327 10.5564 7.2227 10.7864L8.3827 11.7564C7.9027 12.5764 7.6027 13.6264 7.4827 14.6164L6.1227 14.6264C5.7327 14.6264 5.4927 14.8564 5.4927 15.2064C5.4927 15.5564 5.7327 15.7864 6.1227 15.7864H7.4127C7.4327 17.0764 7.7427 18.2364 8.2627 19.1964L7.1527 20.1364C6.8627 20.3664 6.7827 20.7364 7.0127 21.0164C7.2427 21.2964 7.6127 21.2864 7.9027 21.0364L8.9327 20.1964C9.8427 21.2864 11.1327 22.0264 12.6827 22.2164ZM21.7527 14.6264L20.3827 14.6164C20.2627 13.6264 19.9627 12.6064 19.5327 11.8164L20.6827 10.8464C20.9727 10.5964 21.0527 10.2264 20.8227 9.9364C20.5927 9.6564 20.2327 9.6764 19.9327 9.9364L18.8027 10.8964C18.3927 10.5564 18.1127 10.5364 17.8727 10.6464C16.8727 11.1064 15.6427 11.3864 14.3827 11.4464C14.1527 11.4564 13.9227 11.4564 13.6827 11.4464L16.0527 13.8064C16.2127 13.3864 16.6227 13.0664 17.1027 13.0664C17.7327 13.0664 18.2627 13.6164 18.2627 14.2464C18.2627 14.7264 17.9627 15.1364 17.5527 15.3164L20.1227 17.8864C20.3327 17.2564 20.4427 16.5464 20.4527 15.7864H21.7527C22.1327 15.7864 22.3627 15.5564 22.3627 15.2064C22.3627 14.8564 22.1327 14.6264 21.7527 14.6264ZM15.1727 22.2164C16.4727 22.0564 17.5927 21.5164 18.4527 20.6864L14.4127 16.6564V21.7064C14.4127 22.0964 14.6727 22.2764 15.1727 22.2164ZM9.5927 18.0464C9.5927 17.3464 10.1727 16.7664 10.8827 16.7664C11.5627 16.7664 12.1727 17.3464 12.1727 18.0464C12.1727 18.7564 11.5627 19.3364 10.8827 19.3364C10.1727 19.3364 9.5927 18.7564 9.5927 18.0464Z" /></svg>