<svg viewBox="0 0 21.24609375 29.3125" xmlns="http://www.w3.org/2000/svg"><path d="M0.0037 25.0373C0.0037 27.8873 1.4037 29.3173 4.2337 29.3173H17.0237C19.8337 29.3173 21.2437 27.8873 21.2437 25.0373V4.2973C21.2437 1.4473 19.8337 -0.0027 17.0237 -0.0027H4.2337C1.4037 -0.0027 0.0037 1.4473 0.0037 4.2973ZM2.2037 24.9873V4.3373C2.2037 2.9673 2.9237 2.1973 4.3437 2.1973H16.8937C18.3237 2.1973 19.0437 2.9673 19.0437 4.3373V24.9873C19.0437 26.3573 18.3237 27.1073 16.8937 27.1073H4.3437C2.9237 27.1073 2.2037 26.3573 2.2037 24.9873ZM7.3737 5.5373H13.8937C14.3837 5.5373 14.7837 5.1373 14.7837 4.6473C14.7837 4.1573 14.3837 3.7573 13.8937 3.7573H7.3737C6.8937 3.7573 6.4837 4.1573 6.4837 4.6473C6.4837 5.1373 6.8937 5.5373 7.3737 5.5373Z" /></svg>