<svg viewBox="0 0 25.169921875 25.169921875" xmlns="http://www.w3.org/2000/svg"><path d="M4.2937 25.1692H20.8737C23.7437 25.1692 25.1737 23.7592 25.1737 20.9492V4.2392C25.1737 1.4192 23.7437 -0.0008 20.8737 -0.0008H4.2937C1.4337 -0.0008 0.0037 1.4192 0.0037 4.2392V20.9492C0.0037 23.7592 1.4337 25.1692 4.2937 25.1692ZM7.3037 18.8792C6.8937 18.8792 6.6037 18.5892 6.6037 18.1992C6.6037 17.7992 6.8937 17.5392 7.3037 17.5392H9.8437V17.4992C7.7237 16.4592 6.6137 14.2292 6.6137 11.9792C6.6137 9.2992 8.3437 7.2692 10.8037 6.5892V5.1592C10.8037 4.8792 10.9937 4.6892 11.2637 4.6892C11.5537 4.6892 11.7437 4.8792 11.7437 5.1592V6.3992C12.0537 6.3592 12.3637 6.3392 12.6737 6.3392C13.0037 6.3392 13.3337 6.3592 13.6437 6.3992V5.1592C13.6437 4.8792 13.8537 4.6892 14.1137 4.6892C14.4137 4.6892 14.6037 4.8792 14.6037 5.1592V6.6192C16.8737 7.3292 18.5937 9.2392 18.6037 11.6192C18.6037 12.0992 18.3037 12.4392 17.8437 12.4392C17.3737 12.4392 17.0937 12.1092 17.0737 11.6192C17.0237 10.0592 16.0337 8.7792 14.6037 8.1792V11.7892C14.6037 12.0692 14.4137 12.2592 14.1137 12.2592C13.8537 12.2592 13.6437 12.0692 13.6437 11.7892V7.8792C13.3337 7.8192 13.0137 7.7792 12.6737 7.7792C12.3637 7.7792 12.0537 7.8192 11.7437 7.8592V11.7892C11.7437 12.0692 11.5537 12.2592 11.2637 12.2592C10.9937 12.2592 10.8037 12.0692 10.8037 11.7892V8.1392C9.2737 8.7392 8.2437 10.1692 8.2437 12.2392C8.2437 15.0692 10.4837 17.5292 13.8237 17.5292H16.9837C17.3937 17.5292 17.6937 17.7992 17.6937 18.1992C17.6937 18.5892 17.3937 18.8792 16.9837 18.8792Z" /></svg>