<svg viewBox="0 0 32.56640625 32.56640625" xmlns="http://www.w3.org/2000/svg"><path d="M0.9737 15.3143C0.4237 15.3143 0.0037 15.7543 0.0037 16.2843C0.0037 16.8143 0.4237 17.2443 0.9737 17.2443H11.4137L3.1037 20.6843C2.6437 20.8943 2.4037 21.4343 2.6137 21.9443C2.7937 22.4343 3.3537 22.6543 3.8537 22.4643L12.1537 19.0343L2.8337 28.3443C2.4737 28.7243 2.4837 29.3243 2.8537 29.7043C3.2437 30.0743 3.8437 30.0643 4.2137 29.7043L13.5237 20.4143L10.0737 28.7143C9.8837 29.2143 10.1337 29.7743 10.5937 29.9643C11.1137 30.1643 11.6637 29.9243 11.8837 29.4443L15.3137 21.1343V31.5943C15.3137 32.1243 15.7537 32.5643 16.2837 32.5643C16.8137 32.5643 17.2437 32.1243 17.2437 31.5943V21.1343L20.6837 29.4643C20.8937 29.9443 21.4637 30.1643 21.9437 29.9543C22.4337 29.7743 22.6537 29.2043 22.4637 28.7243L19.0137 20.3843L28.3537 29.7243C28.7237 30.0743 29.3237 30.0743 29.7137 29.7043C30.0737 29.3243 30.0737 28.7543 29.7137 28.3643L20.3837 19.0343L28.7137 22.4943C29.2137 22.6843 29.7637 22.4343 29.9737 21.9443C30.1637 21.4343 29.9437 20.9043 29.4337 20.6943L21.1137 17.2443H31.6137C32.1537 17.2443 32.5637 16.8143 32.5637 16.2843C32.5637 15.7543 32.1537 15.3143 31.6137 15.3143H21.1337L29.4637 11.8643C29.9237 11.6643 30.1637 11.1143 29.9537 10.6243C29.7737 10.1343 29.2137 9.8943 28.7137 10.0943L20.3937 13.5343L29.7337 4.2143C30.0737 3.8443 30.0737 3.2443 29.7137 2.8543C29.3237 2.4843 28.7237 2.5043 28.3537 2.8543L19.0437 12.1543L22.4937 3.8543C22.6837 3.3543 22.4337 2.7843 21.9737 2.5943C21.4537 2.4043 20.8937 2.6343 20.6837 3.1043L17.2437 11.4143V0.9543C17.2437 0.4143 16.8137 0.0043 16.2837 0.0043C15.7537 0.0043 15.3137 0.4143 15.3137 0.9543V11.4343L11.8837 3.1043C11.6637 2.6243 11.1037 2.4043 10.6237 2.6143C10.1337 2.7843 9.8937 3.3343 10.1037 3.8443L13.5537 12.1843L4.2137 2.8343C3.8437 2.4743 3.2437 2.4843 2.8537 2.8543C2.4837 3.2443 2.4837 3.8143 2.8537 4.1943L12.1837 13.5343L3.8537 10.0743C3.3537 9.8843 2.8037 10.1343 2.5937 10.6243C2.4037 11.1143 2.6237 11.6443 3.1337 11.8543L11.4537 15.3143Z" /></svg>