<svg viewBox="0 0 27.890625 30.544813437289534" xmlns="http://www.w3.org/2000/svg"><path d="M13.9427 30.5406C21.6427 30.5406 27.8927 24.3006 27.8927 16.6006C27.8927 11.9106 25.6027 7.8506 22.0827 5.3106C21.4827 4.8406 20.7027 5.0106 20.3527 5.5506C20.0127 6.1306 20.1927 6.7706 20.7527 7.1906C23.6527 9.2706 25.5627 12.7006 25.5627 16.6006C25.5627 23.0206 20.3727 28.2206 13.9427 28.2206C7.5227 28.2206 2.3227 23.0206 2.3227 16.6006C2.3227 11.0506 6.1627 6.4706 11.3027 5.2806V7.2506C11.3027 8.2206 11.9727 8.4606 12.7327 7.9406L17.0927 4.8806C17.7027 4.4406 17.7227 3.7906 17.0927 3.3406L12.7427 0.2706C11.9727 -0.2594 11.3027 -0.0094 11.3027 0.9706V2.9106C4.9127 4.1206 0.0027 9.7806 0.0027 16.6006C0.0027 24.3006 6.2527 30.5406 13.9427 30.5406ZM7.2827 12.0506C7.1627 12.6806 7.0827 13.5006 7.0827 14.0406C7.0827 18.6606 9.8327 21.7306 14.0227 21.7306C16.1327 21.7306 17.3627 20.7806 17.9527 20.1006C18.4727 20.8006 18.7727 21.5806 19.1027 22.6306C19.1827 22.9006 19.4027 23.0206 19.6027 23.0206C20.0527 23.0206 20.4427 22.6306 20.4427 22.0806C20.4427 21.2206 19.2227 19.7406 18.5627 19.1406C15.8427 16.6706 11.7427 18.1206 10.6827 15.3706C10.5927 15.1506 10.8127 14.9706 11.0427 15.1606C13.2527 17.1006 15.8827 15.5306 18.5627 17.9706C18.7827 18.1606 19.0127 18.0606 19.0727 17.8406C19.1027 17.6706 19.1127 17.3806 19.1127 17.1006C19.1127 14.0806 17.0127 12.6306 14.0527 12.6306C13.0527 12.6306 11.9227 12.8806 11.0027 12.8806C10.0127 12.8806 8.9027 12.7706 8.0027 11.8506C7.7427 11.5806 7.3727 11.6106 7.2827 12.0506Z" /></svg>