<svg viewBox="0 0 27.890625 27.890625" xmlns="http://www.w3.org/2000/svg"><path d="M13.9427 27.8864C21.6427 27.8864 27.8927 21.6264 27.8927 13.9464C27.8927 6.2464 21.6427 -0.0036 13.9427 -0.0036C6.2627 -0.0036 0.0027 6.2464 0.0027 13.9464C0.0027 21.6264 6.2627 27.8864 13.9427 27.8864ZM17.1827 16.5664C17.0227 16.5664 16.8527 16.5264 16.5327 16.3764L9.5427 13.2664C8.8627 12.9764 8.6227 12.5364 8.6227 11.9264C8.6227 11.3764 8.8727 10.9064 9.5427 10.5964L16.5327 7.4764C16.8527 7.3464 17.0227 7.3164 17.1827 7.3164C17.8027 7.3164 18.2427 7.7964 18.2427 8.3164C18.2427 8.7264 17.9927 9.1064 17.5827 9.3064L11.6927 11.9064V11.9464L17.5827 14.5764C17.9927 14.7364 18.2427 15.1164 18.2427 15.5464C18.2427 16.0664 17.8027 16.5664 17.1827 16.5664ZM8.4627 19.7564C8.4627 19.1964 8.9327 18.7264 9.5127 18.7264H17.6627C18.2527 18.7264 18.7027 19.1964 18.7027 19.7564C18.7027 20.2764 18.2527 20.7764 17.6627 20.7764H9.5127C8.9327 20.7764 8.4627 20.2764 8.4627 19.7564Z" /></svg>