<svg viewBox="0 0 33.44151535057519 14.8203125" xmlns="http://www.w3.org/2000/svg"><path d="M3.7237 14.8176H5.5737V-0.0024H3.6937C1.2537 -0.0024 0.0037 1.2576 0.0037 3.6776L0.0137 11.1376C0.0137 13.5776 1.2537 14.8176 3.7237 14.8176ZM6.8937 14.8176H26.5537V-0.0024H24.2037C23.8937 3.9076 20.8537 6.4776 16.7337 6.4776C12.6237 6.4776 9.5737 3.9076 9.2537 -0.0024H6.8937ZM27.8637 14.8176H29.7237C32.1737 14.8176 33.4037 13.5776 33.4137 11.1376L33.4437 3.6776C33.4537 1.2576 32.1837 -0.0024 29.7337 -0.0024H27.8637ZM16.7337 5.2276C20.0437 5.2276 22.5037 3.1576 22.7337 -0.0024H20.6137C20.4437 2.0376 18.8637 3.3776 16.7337 3.3776C14.5837 3.3776 13.0337 2.0376 12.8537 -0.0024H10.7237C10.9537 3.1576 13.4137 5.2276 16.7337 5.2276Z" /></svg>