<svg viewBox="0 0 22.55859375 36.01171875" xmlns="http://www.w3.org/2000/svg"><path d="M3.8823 31.4133H4.1723L2.0523 34.8333C1.6923 35.3933 2.0223 36.0133 2.6623 36.0133H3.4323C3.8023 36.0133 4.0223 35.8933 4.2223 35.5633L6.7923 31.4133H15.7923L18.3523 35.5633C18.5523 35.8933 18.7723 36.0133 19.1523 36.0133H19.9223C20.5523 36.0133 20.8323 35.3833 20.4923 34.8333L18.3923 31.4133H18.6723C20.8523 31.4133 22.2723 29.9033 22.2723 27.6033V18.5433C22.2723 15.3533 21.9023 12.1233 21.3723 9.9133C20.8223 7.4633 19.2123 5.6833 16.7223 5.4233C16.4623 5.4033 15.9523 5.3633 15.2623 5.3233L18.0723 1.8833C19.4023 1.9433 20.1523 2.3233 20.8523 3.2033C21.0823 3.4833 21.3723 3.6233 21.6423 3.6233C22.1523 3.6233 22.5623 3.2833 22.5623 2.7233C22.5623 2.3133 22.2723 1.8833 21.8923 1.5133C20.7123 0.3833 19.3723 0.0033 17.6923 0.0033H4.8823C3.2023 0.0033 1.8423 0.3833 0.6823 1.5133C0.2823 1.8833 0.0023 2.3133 0.0023 2.7233C0.0023 3.2833 0.4123 3.6233 0.9323 3.6233C1.2023 3.6233 1.4723 3.4833 1.7123 3.2033C2.4023 2.3233 3.1723 1.9433 4.4823 1.8833L7.3023 5.3233C6.6023 5.3633 6.1023 5.4033 5.8423 5.4233C3.3523 5.6833 1.7523 7.4633 1.1923 9.9133C0.6523 12.1433 0.3023 15.3233 0.3023 18.4933V27.6033C0.3023 29.9033 1.7123 31.4133 3.8823 31.4133ZM11.2823 5.1833C10.7423 5.1833 10.2223 5.1933 9.7323 5.2133L7.0123 1.8733H15.5623L12.8223 5.2133C12.3323 5.1933 11.8123 5.1833 11.2823 5.1833ZM7.9523 9.2733C7.4823 9.2733 7.1523 8.9533 7.1523 8.4733C7.1523 7.9833 7.4823 7.6833 7.9523 7.6833H14.6123C15.0823 7.6833 15.4123 7.9833 15.4123 8.4733C15.4123 8.9533 15.0823 9.2733 14.6123 9.2733ZM11.2823 22.4233C8.2423 22.4033 5.4423 22.2733 4.0223 22.0933C3.2223 21.9933 2.9223 21.4933 2.9223 20.7533V18.3033C2.9223 15.6833 3.1823 13.7433 3.3923 12.8533C3.5323 12.2733 3.8823 11.8533 4.4823 11.7833C5.9323 11.6233 7.8023 11.5133 11.2823 11.4933C14.7523 11.4833 16.6223 11.6233 18.0723 11.7833C18.6723 11.8533 19.0423 12.2733 19.1723 12.8533C19.3723 13.7433 19.6323 15.6833 19.6323 18.3033V20.7533C19.6323 21.5033 19.3323 22.0133 18.5423 22.0933C16.4223 22.3133 13.6323 22.4333 11.2823 22.4233ZM17.2523 28.2633C16.2023 28.2633 15.4223 27.4633 15.4223 26.4233C15.4223 25.4033 16.2023 24.6133 17.2523 24.6133C18.2823 24.6133 19.0423 25.4033 19.0423 26.4233C19.0423 27.4633 18.2623 28.2633 17.2523 28.2633ZM5.2823 28.2433C4.2423 28.2433 3.5023 27.4833 3.5023 26.4233C3.5023 25.3933 4.2423 24.6233 5.2823 24.6233C6.3323 24.6233 7.0923 25.3933 7.0923 26.4233C7.0923 27.4833 6.3023 28.2433 5.2823 28.2433Z" /></svg>