<svg viewBox="0 0 44.611328125 26.71484375" xmlns="http://www.w3.org/2000/svg"><path d="M10.5237 13.0664C16.5037 13.0664 21.0237 10.2764 21.0237 6.5464C21.0237 2.8064 16.5037 -0.0036 10.5237 -0.0036C4.5437 -0.0036 0.0037 2.7864 0.0037 6.5464C0.0037 10.2964 4.5437 13.0664 10.5237 13.0664ZM34.0837 13.0664C40.0537 13.0664 44.6137 10.2964 44.6137 6.5464C44.6137 2.7864 40.0537 -0.0036 34.0837 -0.0036C28.1137 -0.0036 23.5837 2.8064 23.5837 6.5464C23.5837 10.2764 28.1137 13.0664 34.0837 13.0664ZM10.5237 11.3464C5.4937 11.3464 1.7537 9.2264 1.7537 6.5464C1.7537 3.8664 5.5137 1.7064 10.5237 1.7064C15.5537 1.7064 19.3337 3.8664 19.3337 6.5464C19.3337 9.2264 15.5537 11.3464 10.5237 11.3464ZM34.0837 11.3464C29.0537 11.3464 25.2837 9.2264 25.2837 6.5464C25.2837 3.8664 29.0637 1.7064 34.0837 1.7064C39.0837 1.7064 42.8637 3.8664 42.8637 6.5464C42.8637 9.2264 39.1037 11.3464 34.0837 11.3464ZM10.5237 10.5964C14.4137 10.5964 17.3037 8.9664 17.3037 6.7564C17.3037 4.4964 14.4137 2.8664 10.5237 2.8664C6.6737 2.8664 3.7837 4.4964 3.7837 6.7564C3.7837 8.9664 6.6737 10.5964 10.5237 10.5964ZM34.0837 10.5964C37.9437 10.5964 40.8337 8.9664 40.8337 6.7564C40.8337 4.4964 37.9437 2.8664 34.0837 2.8664C30.2037 2.8664 27.3137 4.4964 27.3137 6.7564C27.3137 8.9664 30.2037 10.5964 34.0837 10.5964ZM10.5237 9.1164C7.5237 9.1164 5.2637 8.0264 5.2637 6.7564C5.2637 6.3064 5.5137 5.8964 5.9637 5.5464C6.8937 6.6464 8.6137 7.3564 10.5237 7.3564C12.4437 7.3564 14.1637 6.6264 15.0837 5.5064C15.5537 5.8764 15.8137 6.3064 15.8137 6.7564C15.8137 8.0264 13.5537 9.1164 10.5237 9.1164ZM34.0837 9.1164C31.0637 9.1164 28.8037 8.0264 28.8037 6.7564C28.8037 6.3064 29.0637 5.8764 29.5337 5.5264C30.4437 6.6264 32.1737 7.3564 34.0837 7.3564C35.9937 7.3564 37.7337 6.6464 38.6637 5.5364C39.1037 5.8964 39.3637 6.3064 39.3637 6.7564C39.3637 8.0264 37.0937 9.1164 34.0837 9.1164ZM22.3037 26.7164C28.3037 26.7164 32.8237 23.9264 32.8237 20.1764C32.8237 16.4164 28.3037 13.6464 22.3037 13.6464C16.3337 13.6464 11.8037 16.4364 11.8037 20.1764C11.8037 23.9164 16.3337 26.7164 22.3037 26.7164ZM22.3037 24.9964C17.2837 24.9964 13.4937 22.8564 13.4937 20.1764C13.4937 17.4864 17.2937 15.3564 22.3037 15.3564C27.3137 15.3564 31.0937 17.4864 31.0937 20.1764C31.0937 22.8564 27.3337 24.9964 22.3037 24.9964ZM22.3037 24.2164C26.1637 24.2164 29.0537 22.5964 29.0537 20.3564C29.0537 18.1264 26.1637 16.5064 22.3037 16.5064C18.4437 16.5064 15.5537 18.1264 15.5537 20.3564C15.5537 22.5864 18.4437 24.2164 22.3037 24.2164ZM22.3037 20.9864C24.2237 20.9864 25.9537 20.2664 26.8937 19.1664C27.3337 19.5264 27.5737 19.9364 27.5737 20.3564C27.5737 21.6564 25.3237 22.7364 22.3037 22.7364C19.2937 22.7364 17.0237 21.6564 17.0237 20.3564C17.0237 19.9164 17.2937 19.4964 17.7637 19.1364C18.6737 20.2464 20.3937 20.9864 22.3037 20.9864Z" /></svg>