<svg viewBox="0 0 23.802734375 34.138671875" xmlns="http://www.w3.org/2000/svg"><path d="M0.0037 28.3173C0.0037 30.1373 1.0237 31.1573 2.8337 31.1573H7.5237C9.3237 31.1573 10.3637 30.1373 10.3637 28.2973V5.8073C10.3637 4.2273 9.5837 3.2373 8.2037 3.0073V0.9073C8.2037 0.3973 7.8037 -0.0027 7.3037 -0.0027C6.7937 -0.0027 6.3937 0.3973 6.3937 0.9073V2.9573H3.9637V0.9073C3.9637 0.3973 3.5537 -0.0027 3.0537 -0.0027C2.5437 -0.0027 2.1637 0.3973 2.1637 0.9073V3.0073C0.7637 3.2373 0.0037 4.2273 0.0037 5.7973ZM13.4237 28.3573C13.4237 29.9273 14.2037 30.9073 15.5837 31.1473V33.2473C15.5837 33.7573 15.9837 34.1373 16.4837 34.1373C16.9937 34.1373 17.3937 33.7573 17.3937 33.2473V31.1973H19.8337V33.2473C19.8337 33.7573 20.2237 34.1373 20.7237 34.1373C21.2337 34.1373 21.6437 33.7573 21.6437 33.2473V31.1473C23.0237 30.8973 23.8037 29.9273 23.8037 28.3373V5.8473C23.8037 4.0173 22.7637 2.9973 20.9437 2.9973H16.2737C14.4537 2.9973 13.4237 4.0173 13.4237 5.8373ZM5.1837 9.3673C4.4737 9.3673 3.9137 8.7873 3.9137 8.0773C3.9137 7.3673 4.4737 6.7973 5.1837 6.7973C5.8937 6.7973 6.4637 7.3673 6.4637 8.0773C6.4637 8.7873 5.8937 9.3673 5.1837 9.3673ZM18.6037 9.3773C17.8937 9.3773 17.3337 8.8073 17.3337 8.0973C17.3337 7.3873 17.8937 6.8073 18.6037 6.8073C19.3337 6.8073 19.8937 7.3873 19.8937 8.0973C19.8937 8.8073 19.3337 9.3773 18.6037 9.3773ZM5.1837 13.8473C4.4737 13.8473 3.9137 13.2873 3.9137 12.5773C3.9137 11.8573 4.4737 11.2973 5.1837 11.2973C5.8937 11.2973 6.4637 11.8573 6.4637 12.5773C6.4637 13.2873 5.8937 13.8473 5.1837 13.8473ZM18.6037 13.8773C17.8937 13.8773 17.3337 13.3073 17.3337 12.5873C17.3337 11.8773 17.8937 11.3073 18.6037 11.3073C19.3337 11.3073 19.8937 11.8773 19.8937 12.5873C19.8937 13.3073 19.3337 13.8773 18.6037 13.8773ZM5.1837 18.3373C4.4737 18.3373 3.9137 17.7773 3.9137 17.0673C3.9137 16.3473 4.4737 15.7873 5.1837 15.7873C5.8937 15.7873 6.4637 16.3473 6.4637 17.0673C6.4637 17.7773 5.8937 18.3373 5.1837 18.3373ZM18.6037 18.3573C17.8937 18.3573 17.3337 17.7973 17.3337 17.0873C17.3337 16.3773 17.8937 15.8073 18.6037 15.8073C19.3337 15.8073 19.8937 16.3773 19.8937 17.0873C19.8937 17.7973 19.3337 18.3573 18.6037 18.3573ZM5.1837 22.8473C4.4737 22.8473 3.9137 22.2673 3.9137 21.5573C3.9137 20.8473 4.4737 20.2773 5.1837 20.2773C5.8937 20.2773 6.4637 20.8473 6.4637 21.5573C6.4637 22.2673 5.8937 22.8473 5.1837 22.8473ZM18.6037 22.8573C17.8937 22.8573 17.3337 22.2873 17.3337 21.5773C17.3337 20.8673 17.8937 20.3073 18.6037 20.3073C19.3337 20.3073 19.8937 20.8673 19.8937 21.5773C19.8937 22.2873 19.3337 22.8573 18.6037 22.8573ZM5.1837 27.3273C4.4737 27.3273 3.9137 26.7673 3.9137 26.0473C3.9137 25.3373 4.4737 24.7773 5.1837 24.7773C5.8937 24.7773 6.4637 25.3373 6.4637 26.0473C6.4637 26.7673 5.8937 27.3273 5.1837 27.3273ZM18.6037 27.3573C17.8937 27.3573 17.3337 26.7873 17.3337 26.0673C17.3337 25.3573 17.8937 24.7873 18.6037 24.7873C19.3337 24.7873 19.8937 25.3573 19.8937 26.0673C19.8937 26.7873 19.3337 27.3573 18.6037 27.3573Z" /></svg>