<svg viewBox="0 0 25.169921875 25.169921875" xmlns="http://www.w3.org/2000/svg"><path d="M4.2937 25.1692H20.8737C23.7437 25.1692 25.1737 23.7592 25.1737 20.9492V4.2392C25.1737 1.4192 23.7437 -0.0008 20.8737 -0.0008H4.2937C1.4337 -0.0008 0.0037 1.4192 0.0037 4.2392V20.9492C0.0037 23.7592 1.4337 25.1692 4.2937 25.1692ZM4.3237 22.9692C2.9537 22.9692 2.2037 22.2392 2.2037 20.8192V4.3592C2.2037 2.9392 2.9537 2.1992 4.3237 2.1992H20.8537C22.2037 2.1992 22.9737 2.9392 22.9737 4.3592V20.8192C22.9737 22.2392 22.2037 22.9692 20.8537 22.9692ZM8.9437 19.7192H16.2237C16.8037 19.7192 17.2237 19.2892 17.2237 18.7192V6.4792C17.2237 5.8792 16.8037 5.4692 16.2237 5.4692H8.9437C8.3637 5.4692 7.9437 5.8792 7.9437 6.4792V18.7192C7.9437 19.2892 8.3637 19.7192 8.9437 19.7192ZM9.9437 11.3292C9.6837 11.3292 9.4837 11.1292 9.4837 10.8592V7.4792C9.4837 7.1892 9.6837 7.0092 9.9437 7.0092H15.2337C15.5037 7.0092 15.6837 7.1892 15.6837 7.4792V10.8592C15.6837 11.1292 15.5037 11.3292 15.2337 11.3292Z" /></svg>