<svg viewBox="0 0 33.600524879283334 23.43359375" xmlns="http://www.w3.org/2000/svg"><path d="M1.0537 2.1462H3.8937C4.3037 7.7663 8.4237 11.6063 14.2637 11.6063C20.1137 11.6063 24.2137 7.7663 24.6137 2.1363H27.4837C28.0537 2.1363 28.5337 1.6563 28.5337 1.0763C28.5337 0.5063 28.0537 -0.0038 27.4837 -0.0038L1.0537 0.0162C0.4637 0.0162 0.0037 0.5162 0.0037 1.0763C0.0037 1.6563 0.4737 2.1363 1.0537 2.1462ZM25.2637 6.6863L31.7637 13.1763C32.2137 13.6263 32.8237 13.6163 33.2937 13.1663C33.7137 12.7263 33.7037 12.1163 33.2637 11.6663L26.0137 4.4063C25.8437 5.2263 25.5937 5.9763 25.2637 6.6863ZM22.4637 10.4863L28.4537 16.4862C28.9037 16.9563 29.5037 16.9263 29.9737 16.4763C30.4037 16.0363 30.3937 15.4263 29.9537 14.9663L23.8937 8.9163C23.4737 9.4863 22.9937 10.0262 22.4637 10.4863ZM18.1537 12.8063L25.1437 19.7963C25.5937 20.2362 26.1937 20.2362 26.6637 19.7963C27.0937 19.3363 27.0837 18.7263 26.6637 18.2763L20.3137 11.9462C19.6437 12.3063 18.9237 12.5963 18.1537 12.8063ZM11.8937 13.1663L21.8237 23.1063C22.2837 23.5463 22.8837 23.5463 23.3337 23.1063C23.7737 22.6563 23.7937 22.0363 23.3337 21.6063L15.0537 13.3463C13.6337 13.3463 13.0937 13.3863 11.8937 13.1663Z" /></svg>