<svg viewBox="0 0 26.728515625 28.21875" xmlns="http://www.w3.org/2000/svg"><path d="M13.3537 13.9605C19.5237 13.9605 24.2837 15.4805 26.7237 18.1105V7.4005C26.7237 2.9405 21.4537 0.0005 13.3537 0.0005C5.2737 0.0005 0.0037 2.9405 0.0037 7.4005V18.1105C2.4437 15.4805 7.1937 13.9605 13.3537 13.9605ZM13.3537 28.2205C21.0137 28.2205 26.6737 25.7805 26.6737 22.0205C26.6737 18.2705 21.0137 15.8305 13.3537 15.8305C5.7137 15.8305 0.0537 18.2705 0.0537 22.0205C0.0537 25.7805 5.7137 28.2205 13.3537 28.2205ZM13.3537 21.5905C10.3537 21.5905 7.8637 20.0405 7.6837 18.1305C9.3237 17.7705 11.2537 17.5705 13.3537 17.5705C15.4737 17.5705 17.3937 17.7705 19.0437 18.1305C18.8637 20.0405 16.3637 21.5905 13.3537 21.5905Z" /></svg>