<svg viewBox="0 0 27.890625 27.8359375" xmlns="http://www.w3.org/2000/svg"><path d="M11.7327 27.6891C12.2227 27.7691 12.7327 27.8191 13.2527 27.8391V-0.0009C12.7327 0.0091 12.2227 0.0691 11.7327 0.1491ZM14.6427 27.8391C15.1627 27.8191 15.6727 27.7691 16.1627 27.6891V0.1591C15.6727 0.0691 15.1627 0.0091 14.6427 -0.0009ZM8.7927 26.8491C9.2827 27.0591 9.8027 27.2191 10.3127 27.3691V0.4691C9.8027 0.5991 9.2827 0.7791 8.7927 0.9691ZM17.5827 27.3691C18.0927 27.2191 18.6027 27.0591 19.1027 26.8491V0.9891C18.6027 0.7791 18.0927 0.6191 17.5827 0.4791ZM5.8627 25.2391C6.3527 25.5791 6.8527 25.9091 7.3827 26.1791V1.6391C6.8527 1.9091 6.3527 2.2391 5.8627 2.5791ZM20.5127 26.1791C21.0427 25.9091 21.5427 25.5791 22.0227 25.2391V2.5991C21.5427 2.2591 21.0427 1.9291 20.5127 1.6591ZM2.9227 22.4091C3.3927 22.9991 3.8927 23.5591 4.4427 24.0591V3.7591C3.8927 4.2691 3.3927 4.8391 2.9227 5.4291ZM23.4427 24.0591C23.9927 23.5591 24.5027 22.9991 24.9627 22.4091V5.4391C24.5027 4.8491 23.9927 4.2791 23.4427 3.7691ZM0.0027 13.9191C0.0027 16.1291 0.5427 18.2491 1.5127 20.1091V7.7291C0.5427 9.5791 0.0027 11.6891 0.0027 13.9191ZM27.8927 13.9191C27.8927 11.6891 27.3427 9.5991 26.3727 7.7391V20.1091C27.3427 18.2491 27.8927 16.1291 27.8927 13.9191Z" /></svg>