<svg viewBox="0 0 27.890625 27.890625" xmlns="http://www.w3.org/2000/svg"><path d="M13.9427 27.8864C21.6427 27.8864 27.8927 21.6264 27.8927 13.9464C27.8927 6.2464 21.6427 -0.0036 13.9427 -0.0036C6.2627 -0.0036 0.0027 6.2464 0.0027 13.9464C0.0027 21.6264 6.2627 27.8864 13.9427 27.8864ZM8.9927 9.8464C8.9927 7.2864 11.1727 5.3464 13.9327 5.3464C16.7027 5.3464 18.8927 7.3564 18.8927 9.9164C18.8927 12.7464 16.9927 13.3564 16.7227 18.2664C16.7027 18.5364 16.5327 18.7164 16.2427 18.7164H11.6227C11.3627 18.7164 11.1927 18.5364 11.1727 18.2664C10.8727 13.3564 8.9927 12.6764 8.9927 9.8464ZM11.7827 20.6064C11.4727 20.6064 11.2127 20.3464 11.2127 20.0264C11.2127 19.7164 11.4727 19.4564 11.7827 19.4564H16.1027C16.4227 19.4564 16.6927 19.7164 16.6927 20.0264C16.6927 20.3464 16.4227 20.6064 16.1027 20.6064ZM13.9427 22.5264C12.9227 22.5264 12.1527 22.0564 12.0827 21.3264H15.8027C15.7227 22.0564 14.9727 22.5264 13.9427 22.5264Z" /></svg>