<svg viewBox="0 0 27.890625 27.890625" xmlns="http://www.w3.org/2000/svg"><path d="M13.9427 27.8864C21.6427 27.8864 27.8927 21.6464 27.8927 13.9464C27.8927 6.2464 21.6427 -0.0036 13.9427 -0.0036C6.2527 -0.0036 0.0027 6.2464 0.0027 13.9464C0.0027 21.6464 6.2527 27.8864 13.9427 27.8864ZM16.9527 9.4564C16.3627 10.4464 15.6927 11.2064 14.6927 11.9364C14.5327 10.4464 14.1327 9.1464 13.3827 7.8464C12.2527 5.8964 10.5927 4.4864 8.5127 3.6664C10.1327 2.8064 11.9727 2.3264 13.9427 2.3264C15.1727 2.3264 16.3527 2.5164 17.4627 2.8564C18.2827 5.2764 18.0927 7.4964 16.9527 9.4564ZM18.8527 10.5364C20.0127 8.5464 20.3827 6.3164 20.0027 4.0164C22.7127 5.6764 24.6827 8.4064 25.3327 11.6164C23.6627 13.5864 21.5927 14.6064 19.2527 14.6064C17.9927 14.6064 16.9227 14.3564 15.8027 13.8664C17.0927 12.9464 18.0627 11.9264 18.8527 10.5364ZM11.4727 8.9264C12.0427 9.9364 12.3727 10.8964 12.5127 12.1264C11.1427 11.5264 9.8027 11.2064 8.2827 11.2064C6.0827 11.2064 4.0727 11.9364 2.3427 13.2864C2.5127 10.0864 3.9927 7.2364 6.2327 5.2364C8.5827 5.7664 10.3627 7.0164 11.4727 8.9264ZM8.2827 13.4164C9.3827 13.4164 10.3627 13.5864 11.4327 14.0364C10.2227 14.9164 9.3127 15.9264 8.5327 17.2364C7.4227 19.1564 7.0127 21.2864 7.3127 23.4864C4.8527 21.7764 3.0727 19.1264 2.5127 16.0664C4.1427 14.3164 6.0927 13.4164 8.2827 13.4164ZM15.9327 19.0164C15.3227 17.9764 15.0127 16.9764 14.8727 15.8464C16.2827 16.4764 17.6827 16.8064 19.2527 16.8064C21.5927 16.8064 23.7227 16.0064 25.5527 14.5164C25.3927 17.8464 23.8427 20.7964 21.4827 22.8064C18.9727 22.2964 17.0927 21.0264 15.9327 19.0164ZM13.9427 25.5664C12.5127 25.5664 11.1327 25.3064 9.8527 24.8264C9.1227 22.4864 9.2927 20.2864 10.4427 18.3364C11.0427 17.3064 11.7427 16.5464 12.6627 15.8464C12.8227 17.3864 13.2327 18.7464 14.0127 20.0964C15.1727 22.1064 16.9027 23.5564 19.0627 24.3864C17.5127 25.1464 15.7727 25.5664 13.9427 25.5664Z" /></svg>