<svg viewBox="0 0 27.890625 27.890625" xmlns="http://www.w3.org/2000/svg"><path d="M13.9427 27.8864C21.6427 27.8864 27.8927 21.6264 27.8927 13.9464C27.8927 6.2464 21.6427 -0.0036 13.9427 -0.0036C6.2627 -0.0036 0.0027 6.2464 0.0027 13.9464C0.0027 21.6264 6.2627 27.8864 13.9427 27.8864ZM6.2927 11.1464C5.6627 11.1464 5.2127 10.7464 5.2127 10.1464C5.2127 9.5464 5.6627 9.1464 6.2927 9.1464H21.6527C22.2727 9.1464 22.7327 9.5464 22.7327 10.1464C22.7327 10.7464 22.2727 11.1464 21.6527 11.1464ZM8.3827 15.8164C7.7427 15.8164 7.3027 15.4264 7.3027 14.8064C7.3027 14.2064 7.7427 13.8064 8.3827 13.8064H19.5627C20.1927 13.8064 20.6327 14.2064 20.6327 14.8064C20.6327 15.4264 20.1927 15.8164 19.5627 15.8164ZM10.5527 20.4964C9.9227 20.4964 9.4927 20.0864 9.4927 19.4864C9.4927 18.8964 9.9227 18.4964 10.5527 18.4964H17.3727C18.0027 18.4964 18.4527 18.8964 18.4527 19.4864C18.4527 20.0864 18.0027 20.4964 17.3727 20.4964Z" /></svg>