<svg viewBox="0 0 27.890625 27.890625" xmlns="http://www.w3.org/2000/svg"><path d="M13.9427 27.8864C21.6427 27.8864 27.8927 21.6264 27.8927 13.9464C27.8927 6.2464 21.6427 -0.0036 13.9427 -0.0036C6.2627 -0.0036 0.0027 6.2464 0.0027 13.9464C0.0027 21.6264 6.2627 27.8864 13.9427 27.8864ZM9.6827 20.0564C9.2927 20.0564 8.9527 19.8064 8.9527 19.3164C8.9527 18.8764 9.2127 18.6664 9.6127 18.5164C10.4727 18.2364 11.2927 17.4564 11.4727 16.2664C11.5127 16.0764 11.5227 15.8564 11.5227 15.6964H9.4727C9.1727 15.6964 8.9427 15.4664 8.9427 15.1664C8.9427 14.8464 9.1727 14.6264 9.4727 14.6264H11.4027C11.2627 14.0964 11.0927 13.5864 10.9527 13.0064H9.4727C9.1727 13.0064 8.9427 12.7864 8.9427 12.4664C8.9427 12.1664 9.1727 11.9464 9.4727 11.9464H10.7827C10.7727 11.7964 10.7727 11.6664 10.7727 11.5164C10.7727 8.9664 12.6227 7.5364 15.3027 7.5364C16.0227 7.5364 16.8827 7.5764 17.6127 7.8764C17.9527 8.0264 18.1927 8.2264 18.1927 8.6164C18.1927 8.9364 18.0327 9.2164 17.5727 9.2164C17.4327 9.2164 17.2427 9.1864 17.0327 9.1364C16.6427 9.0464 16.0127 8.9364 15.4727 8.9364C13.7927 8.9364 12.4527 9.8064 12.4527 11.4664C12.4527 11.6364 12.4527 11.7964 12.4827 11.9464H16.6427C16.9527 11.9464 17.2027 12.1664 17.2027 12.4664C17.2027 12.7864 16.9527 13.0064 16.6427 13.0064H12.6627C12.7827 13.5364 12.9627 14.0564 13.0727 14.6264H16.6427C16.9527 14.6264 17.2027 14.8464 17.2027 15.1664C17.2027 15.4664 16.9527 15.6964 16.6427 15.6964H13.1627C13.1627 15.8464 13.1527 15.9864 13.1427 16.1164C13.0127 17.2364 12.4827 18.2364 11.5127 18.6064V18.6764H18.0927C18.5027 18.6764 18.7827 18.9664 18.7827 19.3464C18.7827 19.7564 18.5027 20.0564 18.0927 20.0564Z" /></svg>