<svg viewBox="0 0 30.529296875 29.17578125" xmlns="http://www.w3.org/2000/svg"><path d="M1.8137 25.919H28.7137V25.009C28.7137 24.459 28.3937 24.129 27.8337 24.129H26.9637V9.379H28.1637C28.9137 9.379 29.3537 8.829 29.3537 8.269C29.3537 7.859 29.1237 7.509 28.6137 7.219L16.9437 0.479C16.3937 0.169 15.8137 -0.001 15.2537 -0.001C14.6937 -0.001 14.1137 0.169 13.5937 0.479L1.9137 7.219C1.3937 7.509 1.1737 7.859 1.1737 8.269C1.1737 8.829 1.6137 9.379 2.3637 9.379H3.5637V24.129H2.7037C2.1437 24.129 1.8137 24.459 1.8137 25.009ZM5.6337 24.129V7.629L14.7237 2.529C14.8937 2.429 15.0837 2.379 15.2537 2.379C15.4337 2.379 15.6237 2.429 15.8037 2.529L24.8937 7.629V24.129ZM11.1337 20.299H19.2737C19.6737 20.299 19.9637 20.019 19.9637 19.629C19.9637 19.249 19.6737 18.959 19.2737 18.959H12.9037V18.899C13.8537 18.539 14.3737 17.579 14.4737 16.489C14.4937 16.349 14.5037 16.229 14.5037 16.079H17.8837C18.1837 16.079 18.4137 15.859 18.4137 15.559C18.4137 15.269 18.1837 15.049 17.8837 15.049H14.4137C14.3137 14.489 14.1337 13.999 14.0137 13.469H17.8837C18.1837 13.469 18.4137 13.249 18.4137 12.959C18.4137 12.659 18.1837 12.439 17.8837 12.439H13.8537C13.8237 12.309 13.8237 12.139 13.8237 11.989C13.8237 10.359 15.1237 9.529 16.7437 9.529C17.2637 9.529 17.8837 9.629 18.2637 9.709C18.4437 9.759 18.6437 9.799 18.7837 9.799C19.2237 9.799 19.3837 9.529 19.3837 9.229C19.3837 8.859 19.1537 8.639 18.8137 8.499C18.1137 8.199 17.2837 8.159 16.5837 8.159C13.9837 8.159 12.1937 9.559 12.1937 12.019C12.1937 12.169 12.1937 12.309 12.2137 12.439H10.9337C10.6537 12.439 10.4137 12.659 10.4137 12.959C10.4137 13.249 10.6537 13.469 10.9337 13.469H12.3637C12.4937 14.029 12.6737 14.519 12.7937 15.049H10.9337C10.6537 15.049 10.4137 15.269 10.4137 15.559C10.4137 15.859 10.6537 16.079 10.9337 16.079H12.9237C12.9237 16.229 12.9037 16.449 12.8837 16.629C12.7037 17.799 11.9037 18.539 11.0637 18.829C10.6737 18.949 10.4337 19.169 10.4337 19.609C10.4337 20.059 10.7637 20.299 11.1337 20.299ZM1.0937 29.179H29.4237C30.0237 29.179 30.5337 28.669 30.5337 28.069C30.5337 27.469 30.0237 26.979 29.4237 26.979H1.0937C0.4937 26.979 0.0037 27.469 0.0037 28.069C0.0037 28.669 0.4937 29.179 1.0937 29.179Z" /></svg>