<svg viewBox="0 0 22.99609375 29.3125" xmlns="http://www.w3.org/2000/svg"><path d="M0.0037 25.0373C0.0037 27.8873 1.4037 29.3173 4.2337 29.3173H18.7537C21.5837 29.3173 22.9937 27.8873 22.9937 25.0373V4.2973C22.9937 1.4473 21.5837 -0.0027 18.7537 -0.0027H4.2337C1.4037 -0.0027 0.0037 1.4473 0.0037 4.2973ZM5.3737 7.3973C4.6637 7.3973 4.0637 6.8073 4.0637 6.0873C4.0637 5.3873 4.6637 4.7673 5.3737 4.7673C6.0937 4.7673 6.6837 5.3773 6.6837 6.0873C6.6837 6.8173 6.0937 7.3973 5.3737 7.3973ZM9.3537 6.9873C8.8637 6.9873 8.4637 6.5873 8.4637 6.0873C8.4637 5.6073 8.8637 5.2073 9.3537 5.2073H18.0637C18.5437 5.2073 18.9337 5.6073 18.9337 6.0873C18.9337 6.5873 18.5437 6.9873 18.0637 6.9873ZM5.3737 11.7173C4.6437 11.7173 4.0637 11.1173 4.0637 10.4073C4.0637 9.6773 4.6437 9.1073 5.3737 9.1073C6.0937 9.1073 6.6837 9.6673 6.6837 10.4073C6.6837 11.1173 6.0937 11.7173 5.3737 11.7173ZM9.3537 11.2773C8.8437 11.2773 8.4637 10.8973 8.4637 10.4073C8.4637 9.8973 8.8437 9.5173 9.3537 9.5173H18.0637C18.5537 9.5173 18.9337 9.8973 18.9337 10.4073C18.9337 10.8973 18.5537 11.2773 18.0637 11.2773ZM5.3737 16.2273C4.6637 16.2273 4.0637 15.6173 4.0637 14.9173C4.0637 14.1873 4.6637 13.6073 5.3737 13.6073C6.0937 13.6073 6.6837 14.1773 6.6837 14.9173C6.6837 15.6273 6.0937 16.2273 5.3737 16.2273ZM9.3537 15.7873C8.8637 15.7873 8.4637 15.3973 8.4637 14.9173C8.4637 14.4273 8.8437 14.0273 9.3537 14.0273H18.0637C18.5537 14.0273 18.9337 14.4273 18.9337 14.9173C18.9337 15.3973 18.5437 15.7873 18.0637 15.7873Z" /></svg>