<svg viewBox="0 0 26.16796875 25.224609375" xmlns="http://www.w3.org/2000/svg"><path d="M3.7837 0.0025C0.9937 0.0025 0.0037 1.2125 0.0037 3.8725V10.2225C0.0037 12.8825 0.9937 14.0925 3.7837 14.0925H22.3837C25.1737 14.0925 26.1637 12.8825 26.1637 10.2225V3.8725C26.1637 1.2125 25.1737 0.0025 22.3837 0.0025ZM2.2037 10.2925V3.8025C2.2037 2.5825 2.5937 2.0525 3.8037 2.0525H22.3637C23.5737 2.0525 23.9637 2.5825 23.9637 3.8025V10.2925C23.9637 11.5125 23.5737 12.0425 22.3637 12.0425H3.8037C2.5937 12.0425 2.2037 11.5125 2.2037 10.2925ZM3.2237 18.3925C3.2237 17.5825 2.5737 16.9125 1.7337 16.9125C0.9337 16.9125 0.2737 17.5825 0.2737 18.3925C0.2737 19.2125 0.9337 19.8525 1.7337 19.8525C2.5737 19.8525 3.2237 19.2125 3.2237 18.3925ZM25.6737 18.3925C25.6737 17.7825 25.1837 17.3325 24.5137 17.3325H6.1137C5.4437 17.3325 4.9537 17.7825 4.9537 18.3925C4.9537 18.9925 5.4437 19.4525 6.1137 19.4525H24.5137C25.1837 19.4525 25.6737 18.9925 25.6737 18.3925ZM3.2237 23.7525C3.2237 22.9425 2.5737 22.2625 1.7337 22.2625C0.9337 22.2625 0.2737 22.9425 0.2737 23.7525C0.2737 24.5725 0.9337 25.2225 1.7337 25.2225C2.5737 25.2225 3.2237 24.5725 3.2237 23.7525ZM25.6737 23.7525C25.6737 23.1425 25.1837 22.6925 24.5137 22.6925H6.1137C5.4437 22.6925 4.9537 23.1425 4.9537 23.7525C4.9537 24.3525 5.4437 24.8125 6.1137 24.8125H24.5137C25.1837 24.8125 25.6737 24.3525 25.6737 23.7525Z" /></svg>