<svg viewBox="0 0 22.99609375 33.126953125" xmlns="http://www.w3.org/2000/svg"><path d="M7.2737 6.9407H15.7237C16.5137 6.9407 16.9937 6.4407 16.9937 5.5907V4.1607C16.9937 3.3107 16.5137 2.8007 15.7237 2.8007H14.4637C14.3737 1.2607 13.0837 0.0007 11.4937 0.0007C9.9137 0.0007 8.6237 1.2607 8.5337 2.8007H7.2737C6.4837 2.8007 6.0037 3.3107 6.0037 4.1607V5.5907C6.0037 6.4407 6.4837 6.9407 7.2737 6.9407ZM11.4937 4.1007C10.8437 4.1007 10.3037 3.5507 10.3037 2.9107C10.3037 2.2407 10.8437 1.7107 11.4937 1.7107C12.1537 1.7107 12.6837 2.2407 12.6837 2.9107C12.6837 3.5507 12.1537 4.1007 11.4937 4.1007ZM4.2337 33.1307H18.7537C21.5837 33.1307 22.9937 31.7007 22.9937 28.8307V8.1107C22.9937 5.3007 21.6437 3.8107 18.9037 3.8107H18.5837C18.5937 3.9207 18.5937 4.0507 18.5937 4.1607V5.3907C18.5937 5.6007 18.5837 5.8207 18.5437 6.0107H18.8637C20.1537 6.0107 20.7937 6.8507 20.7937 8.1307V28.8107C20.7937 30.1707 20.0737 30.9307 18.6437 30.9307H4.3437C2.9237 30.9307 2.2037 30.1707 2.2037 28.8107V8.1307C2.2037 6.8507 2.8437 6.0107 4.1337 6.0107H4.4537C4.4137 5.8207 4.4037 5.6007 4.4037 5.3907V4.1607C4.4037 4.0507 4.4037 3.9207 4.4137 3.8107H4.0837C1.3537 3.8107 0.0037 5.3007 0.0037 8.1107V28.8307C0.0037 31.7007 1.4037 33.1307 4.2337 33.1307ZM5.7237 14.8907C6.3737 14.8907 6.8937 14.3707 6.8937 13.7307C6.8937 13.0807 6.3737 12.5607 5.7237 12.5607C5.1037 12.5607 4.5637 13.1007 4.5637 13.7307C4.5637 14.3507 5.1037 14.8907 5.7237 14.8907ZM9.3837 14.5707H17.5837C18.0437 14.5707 18.4337 14.1907 18.4337 13.7307C18.4337 13.2607 18.0437 12.8607 17.5837 12.8607H9.3837C8.9137 12.8607 8.5137 13.2607 8.5137 13.7307C8.5137 14.1907 8.9137 14.5707 9.3837 14.5707ZM5.7237 19.7307C6.3737 19.7307 6.8937 19.2107 6.8937 18.5707C6.8937 17.9207 6.3737 17.4207 5.7237 17.4207C5.0837 17.4207 4.5637 17.9407 4.5637 18.5707C4.5637 19.2107 5.0837 19.7307 5.7237 19.7307ZM9.3837 19.4307H17.5837C18.0637 19.4307 18.4337 19.0407 18.4337 18.5707C18.4337 18.1007 18.0637 17.7307 17.5837 17.7307H9.3837C8.9037 17.7307 8.5137 18.1007 8.5137 18.5707C8.5137 19.0407 8.9037 19.4307 9.3837 19.4307ZM5.7237 24.8507C6.3737 24.8507 6.8937 24.3407 6.8937 23.6907C6.8937 23.0507 6.3737 22.5307 5.7237 22.5307C5.1037 22.5307 4.5637 23.0607 4.5637 23.6907C4.5637 24.3207 5.1037 24.8507 5.7237 24.8507ZM9.3837 24.5407H17.5837C18.0437 24.5407 18.4337 24.1607 18.4337 23.6907C18.4337 23.2307 18.0637 22.8407 17.5837 22.8407H9.3837C8.9037 22.8407 8.5137 23.2307 8.5137 23.6907C8.5137 24.1607 8.9137 24.5407 9.3837 24.5407Z" /></svg>