<svg viewBox="0 0 27.890625 27.890625" xmlns="http://www.w3.org/2000/svg"><path d="M13.9427 27.8864C21.6427 27.8864 27.8927 21.6464 27.8927 13.9464C27.8927 6.2464 21.6427 -0.0036 13.9427 -0.0036C6.2527 -0.0036 0.0027 6.2464 0.0027 13.9464C0.0027 21.6464 6.2527 27.8864 13.9427 27.8864ZM13.9427 25.5664C7.5227 25.5664 2.3227 20.3664 2.3227 13.9464C2.3227 7.5164 7.5227 2.3264 13.9427 2.3264C20.3727 2.3264 25.5627 7.5164 25.5627 13.9464C25.5627 20.3664 20.3727 25.5664 13.9427 25.5664ZM15.0527 21.4264C19.4827 21.4264 21.6727 17.4364 21.6727 15.2564C21.6727 14.4964 20.7427 14.4664 20.6427 15.1764C20.3127 17.7964 18.2527 19.6564 15.9427 19.6564C14.5427 19.6564 13.3027 19.0564 12.5227 18.1164L13.2727 16.9164L14.1627 17.2264L14.2327 18.4564C14.2827 18.9764 15.1027 18.9064 14.9827 18.2764C14.9127 17.9764 15.2427 17.7964 15.5027 17.9964C15.9427 18.3364 16.3527 17.5364 15.8827 17.3364C15.6027 17.2164 15.6527 16.8464 15.9727 16.7364C16.4727 16.5664 16.2027 15.8064 15.7127 16.0464L14.7127 16.5064L13.4527 15.6964C13.1127 15.4664 12.6627 15.5264 12.4127 15.8564L11.7627 16.7464C11.6627 16.3964 11.5927 16.0064 11.5927 15.6264C11.5927 14.4464 12.0127 13.2664 12.7327 12.3864L12.7427 13.1764C12.7427 13.6164 13.0727 13.9064 13.4827 13.9364L14.9527 13.9964L15.4927 14.9864C15.7627 15.4764 16.4327 15.0164 16.1327 14.5764C15.9327 14.2964 16.1227 13.9864 16.4227 14.0564C16.9127 14.1464 17.0327 13.2764 16.4727 13.2864C16.1627 13.2864 16.0127 12.9564 16.2427 12.7264C16.7227 12.3064 16.0827 11.7764 15.7627 12.1664L14.9427 13.1064L14.0427 12.8564L14.1627 11.2964C14.5327 11.1564 14.9127 11.0764 15.3427 11.0764C16.0227 11.0764 16.0127 11.4864 16.7727 11.4864C17.8527 11.4864 20.2027 9.8464 20.2027 8.6264C20.2027 7.8464 18.9927 7.3564 17.0327 7.3564C15.6227 7.3564 15.1227 7.7264 15.0227 8.3664C14.9727 8.8564 14.6927 9.1164 14.2227 9.1164C13.8727 9.1164 13.5327 9.1464 13.2027 9.1864L11.6727 8.4464L11.8627 7.5364L13.1127 7.3164C13.6127 7.2364 13.4627 6.3964 12.8627 6.6064C12.5527 6.6964 12.3427 6.4164 12.4927 6.1364C12.7827 5.6564 11.9627 5.3164 11.8127 5.7964C11.7127 6.0964 11.3427 6.0864 11.2127 5.7864C10.9927 5.3064 10.2527 5.6464 10.5527 6.1364L11.1127 7.0864L10.4627 8.3964C10.2627 8.7464 10.3527 9.1964 10.7327 9.4064L11.3627 9.7864C9.4227 10.7864 8.0927 12.7564 8.0927 15.1064C8.0927 15.5064 8.1327 15.8564 8.2027 16.2264L7.8727 16.0364C7.5027 15.8364 7.0827 15.9564 6.8527 16.3264L6.0527 17.5364L4.9527 17.5264C4.3627 17.5164 4.4427 18.3364 4.9727 18.2764C5.3027 18.2364 5.4927 18.5664 5.2727 18.7864C4.9227 19.1864 5.6427 19.7464 5.9327 19.2264C6.0727 18.9464 6.4427 18.9764 6.5127 19.2764C6.6427 19.9464 7.4527 19.6564 7.2627 19.1564L6.8327 17.9964L7.5227 17.3364L8.9427 18.3064C10.0627 20.2364 12.2727 21.4264 15.0527 21.4264Z" /></svg>