<svg viewBox="0 0 37.88658317612354 35.73332873875779" xmlns="http://www.w3.org/2000/svg"><path d="M5.1255 23.8145L3.3555 26.5445L0.9055 26.4945C-0.3945 26.4645 -0.2145 28.3145 0.9455 28.1845C1.6555 28.1345 2.0955 28.8045 1.6555 29.2945C0.8455 30.1545 2.4455 31.4245 3.0955 30.2745C3.4355 29.6645 4.2155 29.7445 4.3655 30.4045C4.7055 31.8945 6.4555 31.2345 6.0555 30.1145L5.1155 27.5345L6.6055 26.0945L8.6555 27.5045C11.0755 32.5445 16.4455 35.7345 23.2855 35.7345C33.4855 35.7345 37.8855 26.5845 37.8855 21.4845C37.8855 19.7945 35.8455 19.7545 35.6555 21.2945C34.9755 26.8845 30.1355 30.5945 25.2655 30.5945C22.2455 30.5945 19.6655 29.3445 18.0455 27.3545L19.4055 25.1245L21.3555 25.8345L21.5355 28.5845C21.6355 29.7345 23.5155 29.5845 23.2055 28.1545C23.0655 27.5045 23.7655 27.1045 24.3055 27.5345C25.3255 28.2845 26.2555 26.4945 25.1955 26.0445C24.5855 25.7645 24.6655 24.8045 25.3755 24.7545C26.5555 24.7145 25.8955 22.6345 24.7255 23.1945L22.5455 24.2245L19.8155 22.4445C19.0155 21.9345 18.0455 22.0645 17.4755 22.8245L16.4855 24.1645C16.3555 23.5545 16.2755 22.9245 16.2755 22.2545C16.2755 20.1045 17.0055 17.8645 18.1855 16.0545V17.1845C18.1855 18.1345 18.9255 18.8045 19.8555 18.8445L23.1055 19.0245L24.2855 21.1445C24.8955 22.2845 26.5255 21.1145 25.7055 20.2445C25.2355 19.7245 25.6955 18.9845 26.3355 19.1245C27.4555 19.3545 27.7255 17.3745 26.4755 17.3845C25.7855 17.3845 25.4555 16.6745 25.9555 16.2245C27.0455 15.2345 25.6055 14.0545 24.8555 14.9145L23.0755 17.0145L21.0955 16.4445L21.3755 12.9545C22.1355 12.5545 22.9455 12.3245 23.7655 12.3245C24.6655 12.3245 25.0855 14.0545 27.3855 14.0545C29.9155 14.0545 35.9455 9.7245 35.4755 6.7745C35.0955 4.4545 32.1555 3.0445 26.9855 3.0445C24.1055 3.0445 22.7555 4.4545 22.7155 6.1045C22.6655 6.9645 22.2455 7.2245 21.4355 7.2245C20.3455 7.2245 19.2755 7.3545 18.2355 7.5645L15.8055 6.4245L16.2955 4.3845L19.0155 3.9045C20.1455 3.7045 19.8155 1.8545 18.4355 2.2945C17.7855 2.4945 17.3255 1.8545 17.6755 1.2845C18.3055 0.2045 16.4755 -0.5555 16.1255 0.5245C15.9055 1.1545 15.1955 1.2545 14.8755 0.5645C14.3255 -0.5755 12.6655 0.1845 13.3355 1.3045L14.5655 3.3545L13.0955 6.2745C12.6755 7.1045 12.8955 8.0745 13.7155 8.5545L14.4555 8.9945C10.1555 11.3445 7.2655 15.8445 7.2655 21.1345C7.2655 21.8445 7.3055 22.5245 7.3955 23.1945C6.5755 22.7345 5.6355 23.0145 5.1255 23.8145ZM23.2855 33.6645C14.7655 33.6645 9.3255 28.7245 9.3255 21.1345C9.3255 14.2845 14.5055 9.2945 21.4355 9.2945C23.2155 9.2945 24.6755 8.1845 24.7355 6.3945C24.7655 5.7645 25.1355 5.0845 26.9855 5.0845C30.9555 5.0845 33.1955 5.7345 33.4155 6.7745C33.8155 8.6745 29.1755 11.9845 27.3855 11.9845C25.9955 11.9845 25.8055 10.3945 23.8055 10.3945C18.2155 10.3945 14.2055 16.6345 14.2055 22.2545C14.2055 28.1045 19.1155 32.6545 25.2655 32.6545C27.6455 32.6545 29.9155 31.7045 31.5555 30.1245C29.7655 31.9845 27.0555 33.6645 23.2855 33.6645Z" /></svg>