<svg viewBox="0 0 37.96861442612354 35.16028677770186" xmlns="http://www.w3.org/2000/svg"><path d="M5.1255 23.8157L3.3555 26.5457L0.9055 26.4957C-0.3945 26.4657 -0.2145 28.3157 0.9455 28.1857C1.6555 28.1357 2.0955 28.8057 1.6555 29.2957C0.8455 30.1557 2.4655 31.4257 3.0955 30.2757C3.4355 29.6657 4.2155 29.7457 4.3655 30.4057C4.6955 31.8957 6.4555 31.2357 6.0555 30.1157L5.1155 27.5357L6.6055 26.0957L9.7455 28.2557C12.2655 32.5057 17.1455 35.1557 23.2955 35.1557C33.1155 35.1557 37.9655 26.3057 37.9655 21.4857C37.9655 19.7757 35.8755 19.7257 35.6855 21.3057C34.9855 27.1357 30.3855 31.2257 25.2855 31.2257C22.1955 31.2257 19.4755 29.9257 17.7355 27.8557L19.4055 25.1257L21.3555 25.8357L21.5355 28.5857C21.6355 29.7357 23.5155 29.5857 23.2055 28.1557C23.0655 27.5057 23.7655 27.1057 24.3055 27.5357C25.3255 28.2857 26.2555 26.4957 25.1955 26.0457C24.5855 25.7657 24.6655 24.8057 25.3755 24.7557C26.5555 24.7157 25.8955 22.6357 24.7655 23.1857L22.5455 24.2257L19.8155 22.4457C19.0155 21.9357 18.0455 22.0657 17.4755 22.8257L16.0355 24.7657C15.8055 23.9757 15.6855 23.1457 15.6855 22.2857C15.6855 19.7157 16.5955 17.0857 18.1755 15.1757L18.1855 16.9057C18.1855 17.8657 18.9255 18.5357 19.8555 18.5757L23.1055 18.7657L24.2955 20.8957C24.8955 22.0057 26.5255 20.8557 25.7055 19.9757C25.2355 19.4557 25.6955 18.7157 26.3355 18.8457C27.4555 19.0857 27.7255 17.0957 26.4755 17.1157C25.7855 17.1157 25.4555 16.4057 25.9555 15.9557C27.0455 14.9657 25.6055 13.7757 24.8555 14.6357L23.0755 16.7457L21.0955 16.1657L21.3755 12.7357C22.1655 12.4057 23.0355 12.2357 23.9655 12.2357C25.4355 12.2357 25.4155 13.1357 27.1455 13.1357C29.5355 13.1357 34.7555 9.4857 34.7555 6.8057C34.7555 5.0557 32.0455 3.9857 27.6855 3.9857C24.5655 3.9857 23.4455 4.7657 23.2455 6.2157C23.0755 7.2857 22.5055 7.8557 21.4555 7.8557C20.6855 7.8557 19.9455 7.9157 19.2255 8.0357L15.8055 6.4257L16.2955 4.3857L19.0155 3.9057C20.1455 3.7057 19.8155 1.8557 18.4355 2.2957C17.7855 2.4957 17.3255 1.8557 17.6755 1.2857C18.3055 0.2057 16.4755 -0.5543 16.1255 0.5257C15.9055 1.1557 15.1955 1.2557 14.8755 0.5657C14.3255 -0.5743 12.6655 0.1857 13.3155 1.2857L14.5655 3.3557L13.0955 6.2757C12.6755 7.1057 12.8955 8.0757 13.7155 8.5557L15.1055 9.3757C10.8055 11.5757 7.8755 15.9657 7.8755 21.1557C7.8755 21.9957 7.9455 22.8057 8.0655 23.5757L7.4255 23.2157C6.5755 22.7357 5.6355 23.0157 5.1255 23.8157Z" /></svg>