<svg viewBox="0 0 27.890625 27.890625" xmlns="http://www.w3.org/2000/svg"><path d="M13.9427 27.8864C21.6427 27.8864 27.8927 21.6464 27.8927 13.9464C27.8927 6.2464 21.6427 -0.0036 13.9427 -0.0036C6.2527 -0.0036 0.0027 6.2464 0.0027 13.9464C0.0027 21.6464 6.2527 27.8864 13.9427 27.8864ZM13.9427 25.5664C7.5227 25.5664 2.3227 20.3664 2.3227 13.9464C2.3227 7.5164 7.5227 2.3264 13.9427 2.3264C20.3727 2.3264 25.5627 7.5164 25.5627 13.9464C25.5627 20.3664 20.3727 25.5664 13.9427 25.5664ZM17.4027 15.0364L20.3727 8.7264C20.8627 7.6664 19.9627 6.7664 18.8927 7.2764L12.6027 10.2564ZM19.6227 20.4964C19.8527 20.7264 20.2627 20.7264 20.4927 20.4964C20.7427 20.2364 20.7427 19.8664 20.4927 19.6164L8.2727 7.3864C8.0127 7.1364 7.6327 7.1364 7.3827 7.3864C7.1327 7.6264 7.1327 8.0264 7.3827 8.2564ZM6.4427 15.0964H12.6027V21.2064C12.6027 22.4264 13.8927 22.5464 14.3027 21.6664L15.9027 18.2564L12.7527 15.0964L9.4327 11.7564L5.9727 13.3964C5.1027 13.8264 5.2327 15.0964 6.4427 15.0964Z" /></svg>