<svg viewBox="0 0 21.642578125 28.4375" xmlns="http://www.w3.org/2000/svg"><path d="M1.4909 28.4337C2.1609 28.4337 2.6109 28.1937 3.2809 27.5337L10.6409 20.2437C10.7009 20.1837 10.7609 20.1237 10.8309 20.1237C10.8809 20.1237 10.9509 20.1837 11.0209 20.2437L18.3609 27.5337C19.0409 28.1937 19.4809 28.4337 20.1509 28.4337C21.0809 28.4337 21.6409 27.7237 21.6409 26.7937C21.6409 26.2737 21.4409 25.6637 21.2309 25.1037L12.6909 1.7537C12.2509 0.5437 11.6109 0.0037 10.8309 0.0037C10.0309 0.0037 9.4109 0.5437 8.9709 1.7537L0.4109 25.1037C0.2209 25.6637 0.0009 26.2737 0.0009 26.7937C0.0009 27.7237 0.5609 28.4337 1.4909 28.4337Z" /></svg>