<svg viewBox="0 0 27.890625 27.890625" xmlns="http://www.w3.org/2000/svg"><path d="M13.9427 27.8864C21.6427 27.8864 27.8927 21.6264 27.8927 13.9464C27.8927 6.2464 21.6427 -0.0036 13.9427 -0.0036C6.2627 -0.0036 0.0027 6.2464 0.0027 13.9464C0.0027 21.6264 6.2627 27.8864 13.9427 27.8864ZM17.6927 15.0364L12.5927 9.9564L19.2527 6.7964C20.4027 6.2464 21.3527 7.2364 20.8327 8.3564ZM20.0327 20.8664L7.0227 7.8564C6.7527 7.5864 6.7527 7.1764 7.0227 6.9364C7.2827 6.6464 7.6827 6.6564 7.9727 6.9364L20.9727 19.9164C21.2427 20.1764 21.2327 20.5864 20.9727 20.8664C20.7227 21.1064 20.2927 21.1264 20.0327 20.8664ZM6.0327 15.1364C4.7327 15.1364 4.5827 13.7664 5.5227 13.3064L9.0327 11.6364L12.5327 15.1364ZM14.3827 22.1064C13.9427 23.0464 12.5627 22.9164 12.5627 21.6164V15.1664L16.0127 18.6164Z" /></svg>