<svg viewBox="0 0 34.015625 27.69921875" xmlns="http://www.w3.org/2000/svg"><path d="M4.2937 21.3707H6.7537V23.4607C6.7537 26.2907 8.1737 27.7007 11.0437 27.7007H29.7237C32.5637 27.7007 34.0137 26.2807 34.0137 23.4607V10.5707C34.0137 7.7507 32.5637 6.3307 29.7237 6.3307H27.2637V4.2407C27.2637 1.4207 25.8137 0.0007 22.9737 0.0007H4.2937C1.4237 0.0007 0.0037 1.4207 0.0037 4.2407V17.1307C0.0037 19.9607 1.4237 21.3707 4.2937 21.3707ZM4.3237 19.1707C2.9537 19.1707 2.2037 18.4407 2.2037 17.0207V4.3607C2.2037 2.9407 2.9537 2.2007 4.3237 2.2007H22.9237C24.2837 2.2007 25.0637 2.9407 25.0637 4.3607V6.3307H11.0437C8.1737 6.3307 6.7537 7.7507 6.7537 10.5707V19.1707ZM11.0737 25.5007C9.7037 25.5007 8.9537 24.7707 8.9537 23.3507V10.6907C8.9537 9.2707 9.7037 8.5307 11.0737 8.5307H29.6837C31.0337 8.5307 31.8137 9.2707 31.8137 10.6907V23.3507C31.8137 24.7707 31.0337 25.5007 29.6837 25.5007ZM15.4537 22.4107C15.4537 23.4307 15.9037 23.9107 16.8437 23.9107H23.9237C24.8837 23.9107 25.3337 23.4307 25.3337 22.4107V16.9707C25.3337 16.0107 24.9337 15.5307 24.1137 15.4807V13.8607C24.1137 11.3507 22.6137 9.6707 20.3837 9.6707C18.1737 9.6707 16.6537 11.3507 16.6537 13.8607V15.4807C15.8437 15.5307 15.4537 16.0107 15.4537 16.9707ZM18.0737 15.4607V13.7107C18.0737 12.1007 19.0037 11.0507 20.3837 11.0507C21.7837 11.0507 22.6937 12.1007 22.6937 13.7107V15.4607Z" /></svg>