<svg viewBox="0 0 39.4296875 22.244140625" xmlns="http://www.w3.org/2000/svg"><path d="M0.0037 20.6827C0.0037 21.5427 0.6937 22.2427 1.5437 22.2427H37.8837C38.7337 22.2427 39.4337 21.5427 39.4337 20.6827C39.4337 19.8227 38.7337 19.1227 37.8837 19.1227H34.8937V2.9027C34.8937 0.9827 33.8637 0.0027 31.9637 0.0027H7.4637C5.6637 0.0027 4.5437 0.9827 4.5437 2.9027V19.1227H1.5437C0.6937 19.1227 0.0037 19.8227 0.0037 20.6827ZM6.7437 19.1227V3.5127C6.7437 2.6427 7.1737 2.2027 8.0537 2.2027H31.3737C32.2537 2.2027 32.6937 2.6427 32.6937 3.5127V19.1227ZM17.3937 15.4527H22.0537C22.8037 15.4527 23.1837 15.0427 23.1837 14.2427V10.6227C23.1837 9.9927 22.9237 9.6127 22.4637 9.4627V8.6227C22.4637 6.8127 21.3537 5.5627 19.7137 5.5627C18.0837 5.5627 16.9937 6.8127 16.9937 8.6227V9.4927C16.5137 9.6127 16.2537 9.9927 16.2537 10.6227V14.2427C16.2537 15.0427 16.6437 15.4527 17.3937 15.4527ZM18.3437 9.4227V8.5027C18.3437 7.5027 18.8837 6.8627 19.7137 6.8627C20.5537 6.8627 21.1137 7.5027 21.1137 8.5027V9.4227Z" /></svg>