<svg viewBox="0 0 27.890625 27.890625" xmlns="http://www.w3.org/2000/svg"><path d="M13.9427 27.8927C21.6427 27.8927 27.8927 21.6427 27.8927 13.9427C27.8927 6.2627 21.6427 0.0027 13.9427 0.0027C6.2627 0.0027 0.0027 6.2627 0.0027 13.9427C0.0027 21.6427 6.2627 27.8927 13.9427 27.8927ZM8.8627 19.5327V13.9227C8.8627 12.9227 9.2727 12.4427 10.0927 12.3827V10.7227C10.0927 8.1227 11.6527 6.3827 13.9427 6.3827C16.2427 6.3827 17.8027 8.1227 17.8027 10.7227V12.3827C18.6227 12.4427 19.0327 12.9227 19.0327 13.9227V19.5327C19.0327 20.5927 18.5627 21.0727 17.5927 21.0727H10.2927C9.3227 21.0727 8.8627 20.5927 8.8627 19.5327ZM11.5627 12.3727H16.3227V10.5527C16.3227 8.9127 15.3627 7.8027 13.9427 7.8027C12.5227 7.8027 11.5627 8.9127 11.5627 10.5527Z" /></svg>