<svg viewBox="0 0 22.99609375 29.3125" xmlns="http://www.w3.org/2000/svg"><path d="M4.2337 29.3173H18.7537C21.5837 29.3173 22.9937 27.8773 22.9937 25.0373V12.6173C22.9937 10.8573 22.7937 10.0873 21.6937 8.9673L14.1637 1.2973C13.1237 0.2373 12.2637 -0.0027 10.7337 -0.0027H4.2337C1.4237 -0.0027 0.0037 1.4473 0.0037 4.2973V25.0373C0.0037 27.8873 1.4037 29.3173 4.2337 29.3173ZM4.3337 27.1073C2.9237 27.1073 2.2037 26.3573 2.2037 24.9873V4.3373C2.2037 2.9773 2.9237 2.1973 4.3437 2.1973H10.4337V10.1473C10.4337 11.8673 11.2937 12.7173 13.0037 12.7173H20.7937V24.9873C20.7937 26.3573 20.0737 27.1073 18.6437 27.1073ZM13.2437 10.6473C12.7037 10.6473 12.4937 10.4273 12.4937 9.8873V2.6273L20.3737 10.6473ZM8.6137 25.6073H14.4237C15.2037 25.6073 15.5837 25.1973 15.5837 24.3473V19.8973C15.5837 19.0973 15.2537 18.7073 14.5837 18.6473V17.3373C14.5837 15.2673 13.3437 13.8773 11.5137 13.8773C9.6837 13.8773 8.4337 15.2673 8.4337 17.3373V18.6473C7.7837 18.7073 7.4337 19.0973 7.4337 19.8973V24.3473C7.4337 25.1973 7.8237 25.6073 8.6137 25.6073ZM9.6237 18.6373V17.2173C9.6237 15.8973 10.3737 15.0373 11.5137 15.0373C12.6437 15.0373 13.3937 15.8973 13.3937 17.2173V18.6373Z" /></svg>