<svg viewBox="0 0 28.095703125 29.72265625" xmlns="http://www.w3.org/2000/svg"><path d="M5.4237 1.7624H22.6837C22.6037 0.6024 21.9437 0.0024 20.6737 0.0024H7.4237C6.1637 0.0024 5.5137 0.6024 5.4237 1.7624ZM2.6137 5.5524H25.4937C25.2937 4.3024 24.7037 3.6224 23.3337 3.6224H4.7737C3.4037 3.6224 2.8137 4.3024 2.6137 5.5524ZM4.1537 29.7224H23.9437C26.6837 29.7224 28.0937 28.3324 28.0937 25.6124V11.8524C28.0937 9.1324 26.6837 7.7524 23.9437 7.7524H4.1537C1.3837 7.7524 0.0037 9.1324 0.0037 11.8524V25.6124C0.0037 28.3324 1.3837 29.7224 4.1537 29.7224ZM8.9737 24.3124V18.7024C8.9737 17.7024 9.3837 17.2124 10.2037 17.1624V15.5024C10.2037 12.9024 11.7537 11.1524 14.0537 11.1524C16.3537 11.1524 17.9137 12.9024 17.9137 15.5024V17.1624C18.7337 17.2124 19.1437 17.7024 19.1437 18.7024V24.3124C19.1437 25.3624 18.6737 25.8524 17.7037 25.8524H10.4037C9.4337 25.8524 8.9737 25.3624 8.9737 24.3124ZM11.6737 17.1424H16.4337V15.3424C16.4337 13.6824 15.4737 12.5824 14.0537 12.5824C12.6337 12.5824 11.6737 13.6824 11.6737 15.3424Z" /></svg>