<svg viewBox="0 0 25.323613819327157 25.59375" xmlns="http://www.w3.org/2000/svg"><path d="M0.3532 17.2106C-1.3768 22.1806 3.3332 25.5906 12.6632 25.5906C21.9832 25.5906 26.7132 22.1806 24.9632 17.2106L21.9032 8.4206V3.8006C21.9032 1.6506 18.2132 0.0006 12.6632 0.0006C7.1232 0.0006 3.4432 1.6506 3.4432 3.8006V8.3706ZM5.6432 3.8006C5.6432 2.9106 8.4632 2.0606 12.6632 2.0606C16.8832 2.0606 19.7032 2.9106 19.7032 3.8006C19.7032 4.6806 16.8832 5.5406 12.6632 5.5406C8.4632 5.5406 5.6432 4.6806 5.6432 3.8006ZM2.4432 17.9006L4.8432 11.1306C6.2932 12.3306 9.0532 13.0806 12.6632 13.0806C16.2132 13.0806 19.0132 12.3306 20.4932 11.1406L22.8732 17.9006C24.0032 21.1406 20.1532 23.3806 12.6632 23.3806C5.1632 23.3806 1.3132 21.1406 2.4432 17.9006Z" /></svg>