<svg viewBox="0 0 32.23828125 24.541015625" xmlns="http://www.w3.org/2000/svg"><path d="M10.7737 24.5384H21.4637C29.3937 24.5384 32.2337 21.5984 32.2337 14.2884V10.2684C32.2337 2.9484 29.3937 -0.0016 21.4637 -0.0016H10.7737C2.8437 -0.0016 0.0037 2.9484 0.0037 10.2684V14.2884C0.0037 21.5984 2.8437 24.5384 10.7737 24.5384ZM19.6437 17.9784C18.9937 17.9784 18.6937 17.6384 18.6937 17.1584C18.6937 16.7084 18.9537 16.3684 19.2137 16.0184L21.6537 12.9084C22.3937 11.9484 23.1837 10.7984 23.1837 9.6684C23.1837 8.6684 22.7137 7.9284 21.8737 7.9284C21.0537 7.9284 20.7237 8.5184 20.4537 9.4584C20.3037 9.9284 20.0137 10.1484 19.5537 10.1484C19.0037 10.1484 18.7037 9.7784 18.7037 9.2384C18.7037 7.7784 20.0737 6.2884 21.8737 6.2884C23.8137 6.2884 25.1137 7.6684 25.1137 9.5684C25.1137 10.8184 24.6537 11.8584 23.2437 13.6084L21.1937 16.1984V16.3284H24.5437C25.0237 16.3284 25.3337 16.6084 25.3337 17.1584C25.3337 17.6484 25.0337 17.9784 24.5437 17.9784ZM8.0237 18.1884C7.4637 18.1884 7.1137 17.7984 7.1137 17.1984V7.8584C7.1137 6.9584 7.6837 6.4084 8.5737 6.4084C9.3537 6.4084 9.8137 6.8084 10.0237 7.5984L11.9537 15.2684H12.0137L13.9137 7.5984C14.1237 6.8084 14.5737 6.4084 15.3937 6.4084C16.2837 6.4084 16.8537 6.9284 16.8537 7.8584V17.1984C16.8537 17.7984 16.5337 18.1884 15.9237 18.1884C15.3537 18.1884 15.0137 17.7984 15.0137 17.1984V9.5984H14.9437L13.0337 17.0184C12.8837 17.5984 12.5737 17.9784 11.9937 17.9784C11.4337 17.9784 11.0737 17.5784 10.9537 17.0384L9.0337 9.5984H8.9537V17.1984C8.9537 17.7984 8.6037 18.1884 8.0237 18.1884Z" /></svg>