<svg viewBox="0 0 32.23828125 24.541015625" xmlns="http://www.w3.org/2000/svg"><path d="M10.7737 24.5384H21.4637C29.3937 24.5384 32.2337 21.5984 32.2337 14.2884V10.2684C32.2337 2.9484 29.3937 -0.0016 21.4637 -0.0016H10.7737C2.8437 -0.0016 0.0037 2.9484 0.0037 10.2684V14.2884C0.0037 21.5984 2.8437 24.5384 10.7737 24.5384ZM10.7737 22.3384C4.3237 22.3384 2.2037 20.2484 2.2037 14.2884V10.2684C2.2037 4.3084 4.3237 2.1984 10.7737 2.1984H21.4637C27.9137 2.1984 30.0337 4.3084 30.0337 10.2684V14.2884C30.0337 20.2484 27.9137 22.3384 21.4637 22.3384ZM23.3537 17.9784C23.8737 17.9784 24.2837 17.6684 24.2837 17.0084V15.6384H24.7737C25.3037 15.6384 25.5537 15.2984 25.5537 14.8384C25.5537 14.3984 25.3237 14.0584 24.7737 14.0584H24.2837V8.0484C24.2837 7.1084 23.6637 6.5784 22.7737 6.5784C21.8037 6.5784 21.3537 7.0684 20.9737 7.9184L18.5437 13.2184C18.3037 13.7584 18.2237 14.1084 18.2237 14.5284C18.2237 15.1884 18.6737 15.6384 19.3437 15.6384H22.4037V17.0084C22.4037 17.7284 22.9237 17.9784 23.3537 17.9784ZM7.9437 18.0084C8.4737 18.0084 8.8337 17.6384 8.8337 17.0484V9.6684H8.9137L10.7737 16.8984C10.8937 17.4184 11.2237 17.7984 11.7837 17.7984C12.3437 17.7984 12.6337 17.4284 12.7737 16.8884L14.6337 9.6684H14.7137V17.0484C14.7137 17.6384 15.0437 18.0084 15.5837 18.0084C16.1737 18.0084 16.4737 17.6384 16.4737 17.0484V7.9884C16.4737 7.0984 15.9437 6.5884 15.0837 6.5884C14.2837 6.5884 13.8537 6.9684 13.6537 7.7384L11.8037 15.1884H11.7437L9.8537 7.7384C9.6637 6.9684 9.2037 6.5884 8.4637 6.5884C7.5837 6.5884 7.0537 7.1184 7.0537 7.9884V17.0484C7.0537 17.6384 7.3937 18.0084 7.9437 18.0084ZM22.4537 14.0984H19.9037V13.9984L22.3937 8.2984H22.4537Z" /></svg>