<svg viewBox="0 0 33.482421875 16.1328125" xmlns="http://www.w3.org/2000/svg"><path d="M4.2937 16.1359H29.1937C32.0437 16.1359 33.4837 14.7159 33.4837 11.8959V4.2259C33.4837 1.4259 32.0437 -0.0041 29.1937 -0.0041H4.2937C1.4237 -0.0041 0.0037 1.4059 0.0037 4.2259V11.8959C0.0037 14.7259 1.4237 16.1359 4.2937 16.1359ZM4.3237 13.9359C2.9537 13.9359 2.2037 13.2059 2.2037 11.7859V4.3459C2.2037 2.9259 2.9537 2.2059 4.3237 2.2059H29.1637C30.5137 2.2059 31.2837 2.9259 31.2837 4.3459V11.7859C31.2837 13.2059 30.5137 13.9359 29.1637 13.9359ZM26.8837 11.5359C27.8237 11.5159 28.6137 10.7359 28.6137 9.7859C28.6137 8.8359 27.8237 8.0259 26.8837 8.0259C25.9537 8.0259 25.1437 8.8359 25.1437 9.7859C25.1437 10.7359 25.9537 11.5559 26.8837 11.5359Z" /></svg>