<svg viewBox="0 0 19.87890625 32.375" xmlns="http://www.w3.org/2000/svg"><path d="M9.9437 3.5149C13.0537 3.5149 15.5837 2.7349 15.5837 1.7549C15.5837 0.7949 13.0537 0.0049 9.9437 0.0049C6.8237 0.0049 4.2937 0.7949 4.2937 1.7549C4.2937 2.7349 6.8237 3.5149 9.9437 3.5149ZM0.0037 25.9749C0.0037 29.9949 3.6937 32.3749 9.9437 32.3749C16.1837 32.3749 19.8837 29.9949 19.8837 25.9749V6.3949C19.8837 4.8149 19.3037 3.5249 18.3437 2.6249C17.8537 2.1049 17.2437 2.0949 16.9637 2.5849C16.2537 4.1549 13.2937 5.0949 9.9437 5.0949C6.5937 5.0949 3.6137 4.1549 2.8937 2.5849C2.6237 2.0949 2.0137 2.1049 1.5337 2.6249C0.5737 3.5249 0.0037 4.8149 0.0037 6.3949Z" /></svg>