<svg viewBox="0 0 33.482421875 18.15625" xmlns="http://www.w3.org/2000/svg"><path d="M4.2937 18.1576H29.1937C32.0437 18.1576 33.4837 16.7376 33.4837 13.9176V4.2376C33.4837 1.4176 32.0437 -0.0024 29.1937 -0.0024H4.2937C1.4237 -0.0024 0.0037 1.4076 0.0037 4.2376V13.9176C0.0037 16.7476 1.4237 18.1576 4.2937 18.1576ZM4.3237 15.9576C2.9537 15.9576 2.2037 15.2176 2.2037 13.8076V4.3476C2.2037 2.9276 2.9537 2.1976 4.3237 2.1976H29.1637C30.5137 2.1976 31.2837 2.9276 31.2837 4.3476V13.8076C31.2837 15.2176 30.5137 15.9576 29.1637 15.9576ZM5.2637 13.9176C5.7737 13.9076 6.1637 13.5076 6.1637 13.0276V10.8276C6.1637 10.3176 5.7537 9.9276 5.2637 9.9376C4.7737 9.9276 4.3737 10.3176 4.3737 10.8276V13.0176C4.3737 13.5176 4.7537 13.9076 5.2637 13.9176ZM8.5737 13.9176C9.0737 13.9076 9.4637 13.5076 9.4637 13.0276V10.8276C9.4637 10.3176 9.0637 9.9276 8.5737 9.9376C8.0837 9.9276 7.6737 10.3176 7.6737 10.8276V13.0176C7.6737 13.5176 8.0637 13.9076 8.5737 13.9176ZM27.6837 13.5376C28.5337 13.5176 29.2537 12.7976 29.2537 11.9376C29.2537 11.0576 28.5337 10.3176 27.6837 10.3176C26.8137 10.3176 26.0737 11.0576 26.0737 11.9376C26.0737 12.7976 26.8137 13.5476 27.6837 13.5376ZM12.1037 12.8276H17.6337C18.1337 12.8276 18.5437 12.4176 18.5437 11.9176C18.5437 11.4276 18.1337 11.0376 17.6337 11.0376H12.1037C11.6037 11.0376 11.1937 11.4276 11.1937 11.9176C11.1937 12.4176 11.6037 12.8276 12.1037 12.8276Z" /></svg>