<svg viewBox="0 0 33.482421875 18.15625" xmlns="http://www.w3.org/2000/svg"><path d="M4.2937 18.1576H29.1937C32.0437 18.1576 33.4837 16.7376 33.4837 13.9176V4.2376C33.4837 1.4176 32.0437 -0.0024 29.1937 -0.0024H4.2937C1.4237 -0.0024 0.0037 1.4076 0.0037 4.2376V13.9176C0.0037 16.7476 1.4237 18.1576 4.2937 18.1576ZM4.9037 13.9876C4.3737 13.9776 3.9737 13.5776 3.9737 13.0476V10.7976C3.9737 10.2676 4.3937 9.8576 4.9037 9.8676C5.4137 9.8576 5.8337 10.2676 5.8337 10.7976V13.0576C5.8337 13.5576 5.4237 13.9776 4.9037 13.9876ZM8.3237 13.9876C7.7937 13.9776 7.3837 13.5776 7.3837 13.0476V10.7976C7.3837 10.2676 7.8037 9.8576 8.3237 9.8676C8.8337 9.8576 9.2437 10.2676 9.2437 10.7976V13.0576C9.2437 13.5576 8.8437 13.9776 8.3237 13.9876ZM28.0237 13.5876C27.1237 13.6076 26.3637 12.8276 26.3637 11.9376C26.3637 11.0376 27.1237 10.2676 28.0237 10.2676C28.9037 10.2676 29.6537 11.0376 29.6537 11.9376C29.6537 12.8276 28.9037 13.5776 28.0237 13.5876ZM11.9637 12.8476C11.4537 12.8476 11.0337 12.4276 11.0337 11.9176C11.0337 11.4176 11.4537 11.0076 11.9637 11.0076H17.6737C18.1837 11.0076 18.6037 11.4176 18.6037 11.9176C18.6037 12.4276 18.1837 12.8476 17.6737 12.8476Z" /></svg>