<svg viewBox="0 0 32.23828125 25.169921875" xmlns="http://www.w3.org/2000/svg"><path d="M0.0037 20.9355C0.0037 23.7655 1.4337 25.1655 4.2937 25.1655H27.9437C30.8137 25.1655 32.2337 23.7455 32.2337 20.9355V4.2355C32.2337 1.4255 30.8137 -0.0045 27.9437 -0.0045H4.2937C1.4337 -0.0045 0.0037 1.4055 0.0037 4.2355ZM4.3337 4.6655C3.6637 4.6655 3.1137 4.0855 3.1137 3.4455C3.1137 2.8055 3.6637 2.2255 4.3337 2.2255C5.0037 2.2255 5.5637 2.8055 5.5637 3.4455C5.5637 4.0855 5.0037 4.6655 4.3337 4.6655ZM8.2537 4.6655C7.5837 4.6655 7.0437 4.0855 7.0437 3.4455C7.0437 2.8055 7.5837 2.2255 8.2537 2.2255C8.9237 2.2255 9.4837 2.8055 9.4837 3.4455C9.4837 4.0855 8.9237 4.6655 8.2537 4.6655ZM12.1837 4.6655C11.5137 4.6655 10.9637 4.0855 10.9637 3.4455C10.9637 2.8055 11.5137 2.2255 12.1837 2.2255C12.8537 2.2255 13.3937 2.8055 13.3937 3.4455C13.3937 4.0855 12.8537 4.6655 12.1837 4.6655ZM2.2037 20.8255V6.8955H30.0337V20.8255C30.0337 22.2455 29.2737 22.9655 27.9137 22.9655H4.3237C2.9537 22.9655 2.2037 22.2455 2.2037 20.8255Z" /></svg>