<svg viewBox="0 0 30.529296875 29.17578125" xmlns="http://www.w3.org/2000/svg"><path d="M1.0937 29.179H29.4237C30.0237 29.179 30.5337 28.669 30.5337 28.069C30.5337 27.469 30.0237 26.979 29.4237 26.979H28.7137V25.979C28.7137 25.429 28.3937 25.099 27.8337 25.099H26.9637V9.379H28.1637C28.9137 9.379 29.3537 8.829 29.3537 8.269C29.3537 7.859 29.1237 7.509 28.6137 7.219L16.9437 0.479C16.3937 0.169 15.8137 -0.001 15.2537 -0.001C14.6937 -0.001 14.1137 0.169 13.5937 0.479L1.9137 7.219C1.3937 7.509 1.1737 7.859 1.1737 8.269C1.1737 8.829 1.6137 9.379 2.3637 9.379H3.5637V25.099H2.7037C2.1437 25.099 1.8137 25.429 1.8137 25.979V26.979H1.0937C0.4937 26.979 0.0037 27.469 0.0037 28.069C0.0037 28.669 0.4937 29.179 1.0937 29.179ZM11.1837 21.749C10.6637 21.749 10.3637 21.419 10.3637 20.909V16.559C10.3637 13.329 11.7337 10.869 14.6737 10.579V9.009C14.6737 8.659 14.9037 8.439 15.2737 8.439C15.6237 8.439 15.8437 8.659 15.8437 9.009V10.579C18.8137 10.839 20.2337 13.289 20.2337 16.559V20.909C20.2337 21.419 19.9237 21.749 19.4037 21.749C18.8937 21.749 18.5837 21.419 18.5837 20.909V16.639C18.5837 14.339 17.8737 12.369 15.8437 12.089V21.169C15.8437 21.529 15.6237 21.749 15.2737 21.749C14.9037 21.749 14.6737 21.529 14.6737 21.169V12.099C12.7437 12.429 12.0137 14.359 12.0137 16.639V20.909C12.0137 21.419 11.7037 21.749 11.1837 21.749Z" /></svg>