<svg viewBox="0 0 32.935546875 27.33018496744969" xmlns="http://www.w3.org/2000/svg"><path d="M16.4627 5.864C18.9327 5.864 21.2027 6.724 23.0227 8.134C23.2927 8.354 23.6527 8.324 23.9127 8.064L27.0827 4.894C27.4027 4.584 27.3827 4.124 27.0527 3.854C24.2027 1.454 20.4927 0.004 16.4627 0.004C12.4427 0.004 8.7327 1.454 5.8827 3.854C5.5527 4.124 5.5327 4.584 5.8527 4.894L9.0227 8.064C9.2827 8.324 9.6527 8.354 9.9527 8.124C11.7627 6.724 14.0127 5.864 16.4627 5.864ZM0.0027 16.464C0.0027 20.494 1.4527 24.204 3.8727 27.074C4.1427 27.414 4.6027 27.414 4.9127 27.094L8.1627 23.844C8.3627 23.624 8.3927 23.324 8.2027 23.094C6.7127 21.194 5.8627 18.924 5.8627 16.464C5.8627 14.014 6.7027 11.744 8.1227 9.944C8.3427 9.654 8.3427 9.284 8.0827 9.024L4.9127 5.854C4.5927 5.534 4.1427 5.534 3.8727 5.864C1.4527 8.734 0.0027 12.444 0.0027 16.464ZM32.9327 16.464C32.9327 12.444 31.4827 8.734 29.0627 5.864C28.7927 5.534 28.3327 5.534 28.0227 5.854L24.8527 9.024C24.5927 9.284 24.5827 9.654 24.8127 9.944C26.2227 11.744 27.0727 14.014 27.0727 16.464C27.0727 18.924 26.2227 21.194 24.7327 23.094C24.5427 23.324 24.5527 23.624 24.7627 23.844L28.0127 27.094C28.3327 27.414 28.7827 27.414 29.0627 27.074C31.4827 24.204 32.9327 20.494 32.9327 16.464ZM12.4827 22.604C12.9927 22.604 13.2927 22.284 13.2927 21.784V17.634C13.2927 15.424 14.0027 13.544 15.8727 13.234V22.024C15.8727 22.384 16.0927 22.604 16.4427 22.604C16.7927 22.604 17.0127 22.384 17.0127 22.024V13.224C18.9727 13.504 19.6627 15.404 19.6627 17.634V21.784C19.6627 22.284 19.9627 22.604 20.4627 22.604C20.9627 22.604 21.2627 22.284 21.2627 21.784V17.554C21.2627 14.394 19.8927 12.014 17.0127 11.754V10.244C17.0127 9.894 16.7927 9.684 16.4427 9.684C16.0927 9.684 15.8727 9.894 15.8727 10.244V11.754C13.0327 12.044 11.6927 14.434 11.6927 17.554V21.784C11.6927 22.284 12.0027 22.604 12.4827 22.604Z" /></svg>