<svg viewBox="0 0 25.169921875 25.169921875" xmlns="http://www.w3.org/2000/svg"><path d="M4.2937 25.1692H20.8737C23.7437 25.1692 25.1737 23.7592 25.1737 20.9492V4.2392C25.1737 1.4192 23.7437 -0.0008 20.8737 -0.0008H4.2937C1.4337 -0.0008 0.0037 1.4192 0.0037 4.2392V20.9492C0.0037 23.7592 1.4337 25.1692 4.2937 25.1692ZM4.3237 22.9692C2.9537 22.9692 2.2037 22.2392 2.2037 20.8192V4.3592C2.2037 2.9392 2.9537 2.1992 4.3237 2.1992H20.8537C22.2037 2.1992 22.9737 2.9392 22.9737 4.3592V20.8192C22.9737 22.2392 22.2037 22.9692 20.8537 22.9692ZM8.6237 18.5392C9.1337 18.5392 9.4337 18.2092 9.4337 17.7192V13.5792C9.4337 11.3492 10.1337 9.4792 12.0137 9.1592V17.9692C12.0137 18.3192 12.2337 18.5392 12.5937 18.5392C12.9337 18.5392 13.1537 18.3192 13.1537 17.9692V9.1492C15.1237 9.4292 15.8037 11.3492 15.8037 13.5792V17.7192C15.8037 18.2092 16.1037 18.5392 16.6137 18.5392C17.0937 18.5392 17.4037 18.2092 17.4037 17.7192V13.4892C17.4037 10.3192 16.0337 7.9592 13.1537 7.6992V6.1792C13.1537 5.8392 12.9337 5.6192 12.5937 5.6192C12.2337 5.6192 12.0137 5.8392 12.0137 6.1792V7.6992C9.1737 7.9892 7.8337 10.3792 7.8337 13.4892V17.7192C7.8337 18.2092 8.1437 18.5392 8.6237 18.5392Z" /></svg>