<svg viewBox="0 0 27.890625 27.890625" xmlns="http://www.w3.org/2000/svg"><path d="M13.9427 27.8927C21.6427 27.8927 27.8927 21.6427 27.8927 13.9427C27.8927 6.2627 21.6427 0.0027 13.9427 0.0027C6.2627 0.0027 0.0027 6.2627 0.0027 13.9427C0.0027 21.6427 6.2627 27.8927 13.9427 27.8927ZM10.7227 8.6727C10.7227 6.8927 12.1827 5.4527 13.9427 5.4527C15.7227 5.4527 17.1727 6.8927 17.1727 8.6727C17.1727 10.1327 16.2127 11.3327 14.9127 11.7127V18.7827C14.9127 20.8927 14.6027 22.7127 13.9427 22.7127C13.3027 22.7127 12.9627 20.8527 12.9627 18.7827V11.7127C11.6727 11.3227 10.7227 10.1127 10.7227 8.6727ZM12.1027 7.8427C12.1027 8.3927 12.5827 8.8727 13.1127 8.8727C13.6727 8.8727 14.1327 8.3927 14.1327 7.8427C14.1327 7.2827 13.6727 6.8127 13.1127 6.8127C12.5827 6.8127 12.0827 7.2827 12.1027 7.8427Z" /></svg>