<svg viewBox="0 0 26.01958444117693 30.84375" xmlns="http://www.w3.org/2000/svg"><path d="M9.9396 7.383H16.0696L20.2396 0.003H5.7696ZM4.6696 15.653C6.0096 13.963 7.8396 12.673 9.9796 12.043L3.7796 0.913L0.1896 6.403C-0.0404 6.753 -0.0604 7.153 0.1296 7.503ZM16.0296 12.043C18.1696 12.673 19.9796 13.963 21.3396 15.653L25.8796 7.503C26.0796 7.153 26.0696 6.753 25.8196 6.403L22.2296 0.913ZM12.9996 30.843C17.8096 30.843 21.6896 26.963 21.6896 22.163C21.6896 17.353 17.8096 13.463 12.9996 13.463C8.1996 13.463 4.3196 17.353 4.3196 22.163C4.3196 26.963 8.1996 30.843 12.9996 30.843ZM10.5196 26.633C9.9996 27.013 9.4596 26.623 9.6596 26.013L10.6496 23.083L8.1296 21.283C7.6496 20.933 7.7996 20.263 8.4596 20.263L11.5496 20.293L12.4896 17.333C12.6796 16.733 13.3396 16.733 13.5296 17.333L14.4696 20.293L17.5596 20.263C18.2296 20.263 18.3596 20.943 17.8796 21.273L15.3796 23.083L16.3596 26.013C16.5496 26.623 16.0296 27.013 15.4996 26.633L13.0096 24.813Z" /></svg>