<svg viewBox="0 0 19.701171875 31.422026300218334" xmlns="http://www.w3.org/2000/svg"><path d="M5.1037 0.0025H2.2537C0.9437 0.0025 0.0037 0.9425 0.0037 2.2525V10.3625C0.0037 11.5025 0.3437 12.1425 1.1937 12.7325L5.1037 15.4325ZM12.4437 0.0025H7.2437V16.3225L7.4937 16.5025L7.6037 16.1725C8.3837 14.0425 11.2837 14.0525 12.1137 16.1725L12.1937 16.4425L12.4437 16.2825ZM17.4437 0.0025H14.5837V15.4525L18.5137 12.7325C19.3737 12.1425 19.7037 11.4825 19.7037 10.3625V2.2525C19.7037 0.9425 18.7437 0.0025 17.4437 0.0025ZM5.9337 31.1825L9.8537 28.3025L13.7837 31.1825C14.5737 31.7825 15.4237 31.1625 15.1237 30.2325L13.5637 25.5925L17.5237 22.7625C18.2537 22.2325 18.0337 21.1625 17.0237 21.1825L12.1537 21.2225L10.6637 16.5525C10.3737 15.6525 9.3337 15.6525 9.0537 16.5525L7.5637 21.2225L2.6937 21.1825C1.6837 21.1625 1.4537 22.2125 2.1837 22.7625L6.1537 25.5925L4.5937 30.2325C4.2937 31.1625 5.1437 31.7825 5.9337 31.1825Z" /></svg>