<svg viewBox="0 0 36.28515625 14.041015625" xmlns="http://www.w3.org/2000/svg"><path d="M4.5937 14.0421H24.2137C27.7037 14.0421 28.8037 12.3621 28.8037 7.0321C28.8037 1.6821 27.7137 0.0021 24.2137 0.0021H4.5937C1.0937 0.0021 0.0037 1.6821 0.0037 7.0321C0.0037 12.3621 1.0937 14.0421 4.5937 14.0421ZM30.3537 10.8821H33.6737C35.2437 10.8821 36.2837 9.8721 36.2837 8.4121V5.6221C36.2837 4.1721 35.2437 3.1421 33.6737 3.1421H30.3537C30.5737 4.2221 30.6637 5.5121 30.6637 7.0321C30.6637 8.5221 30.5537 9.8021 30.3537 10.8821ZM4.5937 6.0421C3.8037 6.0421 3.1737 5.4121 3.1737 4.6221C3.1737 3.8421 3.8037 3.2221 4.5937 3.2221C5.3737 3.2221 5.9837 3.8421 5.9837 4.6221C5.9837 5.4121 5.3737 6.0421 4.5937 6.0421Z" /></svg>