<svg viewBox="0 0 27.890625 27.890625" xmlns="http://www.w3.org/2000/svg"><path d="M13.9427 27.8864C21.6427 27.8864 27.8927 21.6264 27.8927 13.9464C27.8927 6.2464 21.6427 -0.0036 13.9427 -0.0036C6.2627 -0.0036 0.0027 6.2464 0.0027 13.9464C0.0027 21.6264 6.2627 27.8864 13.9427 27.8864ZM13.9427 16.6664C12.5627 16.6664 11.6027 15.5864 11.6027 14.1464V8.1064C11.6027 6.6864 12.5627 5.6364 13.9427 5.6364C15.3227 5.6364 16.2827 6.6864 16.2827 8.1064V14.1464C16.2827 15.5864 15.3227 16.6664 13.9427 16.6664ZM10.3627 22.4064C9.9527 22.4064 9.5927 22.0664 9.5927 21.6564C9.5927 21.2464 9.9527 20.8864 10.3627 20.8864H13.1927V19.4664C10.3927 19.1564 8.5027 17.0264 8.5027 14.1464V12.3364C8.5027 11.9364 8.8427 11.5964 9.2427 11.5964C9.6527 11.5964 9.9927 11.9364 9.9927 12.3364V14.1464C9.9927 16.4564 11.6227 18.0864 13.9427 18.0864C16.2727 18.0864 17.9127 16.4564 17.9127 14.1464V12.3364C17.9127 11.9364 18.2427 11.5964 18.6527 11.5964C19.0427 11.5964 19.4027 11.9364 19.4027 12.3364V14.1464C19.4027 17.0264 17.5127 19.1364 14.7227 19.4664V20.8864H17.5427C17.9527 20.8864 18.2927 21.2464 18.2927 21.6564C18.2927 22.0564 17.9327 22.4064 17.5427 22.4064Z" /></svg>