<svg viewBox="0 0 27.890625 27.890625" xmlns="http://www.w3.org/2000/svg"><path d="M13.9427 27.8864C21.6427 27.8864 27.8927 21.6464 27.8927 13.9464C27.8927 6.2464 21.6427 -0.0036 13.9427 -0.0036C6.2527 -0.0036 0.0027 6.2464 0.0027 13.9464C0.0027 21.6464 6.2527 27.8864 13.9427 27.8864ZM13.9427 25.5664C7.5227 25.5664 2.3227 20.3664 2.3227 13.9464C2.3227 7.5164 7.5227 2.3264 13.9427 2.3264C20.3727 2.3264 25.5627 7.5164 25.5627 13.9464C25.5627 20.3664 20.3727 25.5664 13.9427 25.5664ZM13.9327 16.5864C15.2727 16.5864 16.2027 15.5464 16.2027 14.1464V8.2864C16.2027 6.9064 15.2727 5.8764 13.9327 5.8764C12.5927 5.8764 11.6627 6.9064 11.6627 8.2864V14.1464C11.6627 15.5464 12.5927 16.5864 13.9327 16.5864ZM10.4627 22.1664H17.4227C17.8027 22.1664 18.1427 21.8064 18.1427 21.4264C18.1427 21.0264 17.8127 20.6864 17.4227 20.6864H14.6827V19.3064C17.3927 18.9864 19.2227 16.9264 19.2227 14.1464V12.3864C19.2227 12.0064 18.8827 11.6764 18.5027 11.6764C18.1027 11.6764 17.7727 12.0064 17.7727 12.3864V14.1464C17.7727 16.3964 16.1827 17.9664 13.9327 17.9664C11.6727 17.9664 10.1027 16.3964 10.1027 14.1464V12.3864C10.1027 12.0064 9.7627 11.6764 9.3627 11.6764C8.9827 11.6764 8.6527 12.0064 8.6527 12.3864V14.1464C8.6527 16.9264 10.4827 19.0064 13.2027 19.3064V20.6864H10.4627C10.0627 20.6864 9.7227 21.0264 9.7227 21.4264C9.7227 21.8164 10.0627 22.1664 10.4627 22.1664Z" /></svg>