<svg viewBox="0 0 27.890625 27.890625" xmlns="http://www.w3.org/2000/svg"><path d="M13.9427 27.8864C21.6427 27.8864 27.8927 21.6464 27.8927 13.9464C27.8927 6.2464 21.6427 -0.0036 13.9427 -0.0036C6.2527 -0.0036 0.0027 6.2464 0.0027 13.9464C0.0027 21.6464 6.2527 27.8864 13.9427 27.8864ZM13.9427 25.5664C7.5227 25.5664 2.3227 20.3664 2.3227 13.9464C2.3227 7.5164 7.5227 2.3264 13.9427 2.3264C20.3727 2.3264 25.5627 7.5164 25.5627 13.9464C25.5627 20.3664 20.3727 25.5664 13.9427 25.5664ZM16.2027 13.4164V8.2864C16.2027 6.9064 15.2727 5.8764 13.9327 5.8764C12.5927 5.8764 11.6627 6.9064 11.6627 8.2864V8.8564ZM20.5527 20.9864C20.8127 21.2464 21.1827 21.2464 21.4127 20.9864C21.6727 20.7564 21.6727 20.3664 21.4127 20.1064L7.6827 6.3864C7.4327 6.1364 7.0427 6.1364 6.8127 6.3864C6.5627 6.6164 6.5627 7.0264 6.8127 7.2564ZM15.6427 17.5864C15.1627 17.8264 14.5927 17.9664 13.9327 17.9664C11.6727 17.9664 10.1027 16.3964 10.1027 14.1464V12.3864C10.1027 12.0064 9.7727 11.6764 9.3827 11.6764C8.9827 11.6764 8.6527 12.0064 8.6527 12.3864V14.1464C8.6527 16.9264 10.4827 19.0064 13.2027 19.3064V20.6864H10.4627C10.0627 20.6864 9.7227 21.0264 9.7227 21.4264C9.7227 21.8164 10.0627 22.1664 10.4627 22.1664H17.4227C17.8027 22.1664 18.1527 21.8064 18.1527 21.4264C18.1527 21.0264 17.8127 20.6864 17.4227 20.6864H14.6827V19.3064C15.4327 19.2264 16.1227 18.9864 16.7027 18.6464ZM18.8827 16.0964C19.1027 15.4864 19.2227 14.8464 19.2227 14.1464V12.3864C19.2227 12.0064 18.8827 11.6764 18.5027 11.6764C18.1027 11.6764 17.7727 12.0064 17.7727 12.3864V14.1464C17.7727 14.4064 17.7327 14.6564 17.6827 14.8864ZM11.6627 13.6064V14.1464C11.6627 15.5464 12.5927 16.5864 13.9327 16.5864C14.1627 16.5864 14.3527 16.5264 14.5327 16.4564Z" /></svg>