<svg viewBox="0 0 30.544813437289534 27.890625" xmlns="http://www.w3.org/2000/svg"><path d="M0.9769 11.3064C-0.0131 11.3064 -0.2531 11.9764 0.2769 12.7464L3.3369 17.0864C3.7869 17.7164 4.4469 17.7064 4.8869 17.0864L7.9269 12.7264C8.4669 11.9764 8.2069 11.3064 7.2469 11.3064H5.2769C6.4669 6.1564 11.0769 2.3264 16.5969 2.3264C23.0269 2.3264 28.2169 7.5164 28.2169 13.9464C28.2169 20.3664 23.0269 25.5664 16.5969 25.5664C12.7169 25.5664 9.2569 23.6564 7.1969 20.7564C6.7669 20.1964 6.1269 20.0164 5.5569 20.3564C5.0069 20.6964 4.8369 21.4664 5.3069 22.0664C7.8369 25.6064 11.9769 27.8864 16.5969 27.8864C24.2969 27.8864 30.5469 21.6464 30.5469 13.9464C30.5469 6.2464 24.2969 -0.0036 16.5969 -0.0036C9.8069 -0.0036 4.1269 4.8664 2.8969 11.3064ZM12.6869 21.8464C12.9169 21.8464 13.0269 21.7364 13.1369 21.4964L15.9269 15.1164V17.6664C15.9269 18.0864 16.2169 18.4064 16.6169 18.4064C17.0469 18.4064 17.3369 18.0864 17.3369 17.6664V12.6064C17.3369 11.6064 17.8269 10.6464 18.8669 10.6464C19.8769 10.6464 20.2469 11.4264 20.2469 12.4364V17.6664C20.2469 18.0864 20.5369 18.4064 20.9569 18.4064C21.3969 18.4064 21.6869 18.0864 21.6869 17.6664V12.0864C21.6869 10.5864 20.9469 9.3564 19.2969 9.3564C18.9669 9.3564 18.6469 9.4064 18.3769 9.5164L19.5969 6.7264C19.6369 6.6464 19.6469 6.5464 19.6469 6.4664C19.6469 6.2064 19.4669 6.0464 19.2069 6.0464C18.9769 6.0464 18.8569 6.1964 18.7569 6.3964L16.8969 10.6464C16.5969 9.8064 15.9469 9.3564 14.9769 9.3564C13.9069 9.3564 13.2369 10.0264 13.0069 10.9964H12.9469V10.0864C12.9469 9.6564 12.6869 9.3664 12.2669 9.3664C11.8369 9.3664 11.5869 9.6564 11.5869 10.0864V17.6664C11.5869 18.0764 11.8269 18.4064 12.2969 18.4064C12.7669 18.4064 13.0169 18.0764 13.0169 17.6664V12.6964C13.0169 11.6664 13.4969 10.6464 14.5669 10.6464C15.5369 10.6464 15.9269 11.3864 15.9269 12.3164V12.8964L12.3069 21.1664C12.2669 21.2564 12.2469 21.3464 12.2469 21.4364C12.2469 21.6864 12.4269 21.8464 12.6869 21.8464Z" /></svg>