<svg viewBox="0 0 30.529296875 29.17578125" xmlns="http://www.w3.org/2000/svg"><path d="M1.0937 29.179H29.4237C30.0237 29.179 30.5337 28.669 30.5337 28.069C30.5337 27.469 30.0237 26.979 29.4237 26.979H28.7137V25.979C28.7137 25.429 28.3937 25.099 27.8337 25.099H26.9637V9.379H28.1637C28.9137 9.379 29.3537 8.829 29.3537 8.269C29.3537 7.859 29.1237 7.509 28.6137 7.219L16.9437 0.479C16.3937 0.169 15.8137 -0.001 15.2537 -0.001C14.6937 -0.001 14.1137 0.169 13.5937 0.479L1.9137 7.219C1.3937 7.509 1.1737 7.859 1.1737 8.269C1.1737 8.829 1.6137 9.379 2.3637 9.379H3.5637V25.099H2.7037C2.1437 25.099 1.8137 25.429 1.8137 25.979V26.979H1.0937C0.4937 26.979 0.0037 27.469 0.0037 28.069C0.0037 28.669 0.4937 29.179 1.0937 29.179ZM10.8237 20.209C10.3537 20.209 10.0937 19.879 10.0937 19.459V11.639C10.0937 11.169 10.3637 10.879 10.8037 10.879C11.2337 10.879 11.5137 11.169 11.5137 11.639V12.569H11.5637C11.8037 11.569 12.4937 10.859 13.5937 10.859C14.6037 10.859 15.2837 11.349 15.5837 12.219L17.5037 7.819C17.5937 7.619 17.7337 7.469 17.9637 7.469C18.2337 7.469 18.4137 7.629 18.4137 7.889C18.4137 7.989 18.4037 8.069 18.3637 8.159L17.1137 11.029C17.3937 10.939 17.7037 10.859 18.0437 10.859C19.7537 10.859 20.5237 12.139 20.5237 13.699V19.459C20.5237 19.889 20.2237 20.209 19.7737 20.209C19.3337 20.209 19.0337 19.889 19.0337 19.459V14.059C19.0337 13.019 18.6437 12.219 17.6137 12.219C16.5437 12.219 16.0337 13.209 16.0337 14.229V19.459C16.0337 19.889 15.7337 20.209 15.2837 20.209C14.8737 20.209 14.5737 19.889 14.5737 19.459V16.799L11.7037 23.409C11.5837 23.639 11.4737 23.749 11.2337 23.749C10.9637 23.749 10.7737 23.599 10.7737 23.339C10.7737 23.229 10.7837 23.149 10.8437 23.069L14.5737 14.509V13.929C14.5737 12.959 14.1637 12.219 13.1637 12.219C12.0737 12.219 11.5837 13.259 11.5837 14.329V19.459C11.5837 19.879 11.3037 20.209 10.8237 20.209Z" /></svg>