<svg viewBox="0 0 39.34765625 34.42578125" xmlns="http://www.w3.org/2000/svg"><path d="M16.0337 14.9319C16.7437 14.9319 17.2537 14.4119 17.2837 13.6819L17.5837 1.5319C17.6137 0.6119 16.9937 0.0019 16.0337 0.0019C15.0937 0.0019 14.4737 0.6119 14.5037 1.5319L14.8037 13.6819C14.8337 14.4119 15.3437 14.9319 16.0337 14.9319ZM4.2937 26.9319H27.5537C30.8737 26.9319 31.8437 25.9919 31.8437 22.6919V11.6519C31.8437 8.8319 30.3837 7.4119 27.5337 7.4119H27.1437V5.8819C27.1437 4.9519 26.6037 4.4019 25.6637 4.4019H22.9737C22.0237 4.4019 21.4937 4.9519 21.4937 5.8819V7.4119H19.3037L19.2337 9.6119H27.4937C28.8437 9.6119 29.6237 10.3519 29.6237 11.7619V22.5819C29.6237 24.2419 29.1437 24.7319 27.5037 24.7319H4.3237C2.9537 24.7319 2.2037 23.9919 2.2037 22.5819V11.7619C2.2037 10.3519 2.9837 9.6119 4.3237 9.6119H12.8637L12.7937 7.4119H10.3037V5.8819C10.3037 4.9519 9.7737 4.4019 8.8337 4.4019H6.1237C5.1937 4.4019 4.6637 4.9519 4.6637 5.8819V7.4119H4.2937C1.4337 7.4119 0.0037 8.8319 0.0037 11.6519V22.6919C0.0037 25.5219 1.4337 26.9319 4.2937 26.9319ZM6.1137 30.9419H33.7237C35.0637 30.9419 35.8437 30.2419 35.8437 29.0119V14.7119C35.8437 13.7419 35.3437 12.9319 33.8937 12.9019V28.2919C33.8937 28.7619 33.6337 29.0019 33.1637 29.0019H4.1037C4.1337 30.5519 5.0437 30.9419 6.1137 30.9419ZM23.9937 20.3719C24.4637 20.3719 24.8237 20.0119 24.8237 19.5419V17.9819H26.3837C26.8537 17.9819 27.2337 17.5919 27.2337 17.1319C27.2337 16.6819 26.8537 16.3119 26.3837 16.3119H24.8237V14.7519C24.8237 14.2719 24.4637 13.9019 23.9937 13.9019C23.5337 13.9019 23.1737 14.2719 23.1737 14.7519V16.3119H21.6037C21.1237 16.3119 20.7537 16.6819 20.7537 17.1319C20.7537 17.5919 21.1337 17.9819 21.6037 17.9819H23.1737V19.5419C23.1737 20.0119 23.5337 20.3719 23.9937 20.3719ZM5.4737 17.9819H9.7937C10.2437 17.9819 10.6237 17.5919 10.6237 17.1319C10.6237 16.6819 10.2437 16.3119 9.7937 16.3119H5.4737C5.0037 16.3119 4.6437 16.6819 4.6437 17.1319C4.6437 17.5919 5.0037 17.9819 5.4737 17.9819ZM16.0337 20.8819C17.0737 20.8819 17.9337 20.0319 17.9337 19.0619C17.9337 18.0419 17.0937 17.2419 16.0337 17.2419C14.9937 17.2419 14.1537 18.0419 14.1537 19.0619C14.1537 20.0319 15.0137 20.8819 16.0337 20.8819ZM10.4837 34.4219H37.2237C38.5637 34.4219 39.3437 33.7319 39.3437 32.5019V19.6319C39.3437 18.5419 38.6937 17.8819 37.5537 17.8119V31.9419C37.5537 32.4119 37.2937 32.6519 36.8337 32.6519H8.4937C8.5137 34.1119 9.5737 34.4219 10.4837 34.4219Z" /></svg>