<svg viewBox="0 0 38.1171875 20.882170479240457" xmlns="http://www.w3.org/2000/svg"><path d="M38.1137 11.3731C38.1137 5.2731 34.6037 1.4731 28.3937 0.7131C23.8437 0.1731 15.9037 0.0131 11.6037 0.0031C7.8937 0.0031 5.9837 2.0231 6.3137 5.3631L6.7237 9.3631C6.8537 10.4331 6.2937 10.9231 5.1437 10.9231H1.6137C0.6737 10.9231 0.0037 11.6031 0.0037 12.5331V19.0831C0.0037 20.5531 1.1237 21.1331 2.5537 20.7831C4.2337 20.3531 6.0337 20.1531 8.1337 20.1531H28.9037C34.7037 20.1531 38.1137 17.0731 38.1137 11.3731ZM35.9137 11.3731C35.9137 15.6431 33.2937 17.9531 28.9437 17.9531H13.3337C10.8237 17.9531 9.8437 17.1131 9.5837 14.8231L8.4937 5.1131C8.2837 3.1631 9.2237 2.2031 11.6037 2.2031C15.9037 2.2031 23.7237 2.4231 28.2037 2.9231C33.1637 3.5031 35.9137 6.5531 35.9137 11.3731Z" /></svg>