<svg viewBox="0 0 27.890625 27.890625" xmlns="http://www.w3.org/2000/svg"><path d="M13.9427 27.8864C21.6427 27.8864 27.8927 21.6464 27.8927 13.9464C27.8927 6.2464 21.6427 -0.0036 13.9427 -0.0036C6.2527 -0.0036 0.0027 6.2464 0.0027 13.9464C0.0027 21.6464 6.2527 27.8864 13.9427 27.8864ZM13.9427 25.5664C7.5227 25.5664 2.3227 20.3664 2.3227 13.9464C2.3227 7.5164 7.5227 2.3264 13.9427 2.3264C20.3727 2.3264 25.5627 7.5164 25.5627 13.9464C25.5627 20.3664 20.3727 25.5664 13.9427 25.5664ZM9.2927 15.1464H19.0327C19.3027 14.8164 19.4927 14.4664 19.6727 14.0664C19.7927 13.7664 19.7727 13.5064 19.6027 13.3264C19.4727 13.2064 19.2527 13.1764 18.9727 13.2764C18.4527 13.4964 17.8127 13.5864 17.0727 13.5864C14.0427 13.5864 12.1127 11.7164 12.1127 8.7464C12.1127 7.9664 12.2327 7.1364 12.4727 6.6964C12.6227 6.4164 12.5927 6.1664 12.4727 5.9864C12.3227 5.8064 12.0327 5.7664 11.7027 5.9064C9.5827 6.7764 8.1527 8.9864 8.1527 11.5364C8.1527 12.9164 8.5727 14.1464 9.2927 15.1464ZM7.2327 17.1064H21.9127C22.1927 17.1064 22.3927 16.8964 22.3927 16.6264C22.3927 16.3364 22.1927 16.1364 21.9127 16.1364H7.2327C6.9627 16.1364 6.7527 16.3564 6.7527 16.6264C6.7527 16.8964 6.9627 17.1064 7.2327 17.1064ZM5.9627 18.9764H20.6327C20.9027 18.9764 21.1127 18.7764 21.1127 18.4964C21.1127 18.2064 20.9027 18.0064 20.6327 18.0064H5.9627C5.6827 18.0064 5.4727 18.2264 5.4727 18.4964C5.4727 18.7764 5.6827 18.9764 5.9627 18.9764ZM7.2327 20.8464H21.9127C22.1927 20.8464 22.3927 20.6464 22.3927 20.3664C22.3927 20.0864 22.1927 19.8764 21.9127 19.8764H7.2327C6.9627 19.8764 6.7527 20.0964 6.7527 20.3664C6.7527 20.6464 6.9627 20.8464 7.2327 20.8464Z" /></svg>