<svg viewBox="0 0 27.890625 27.890625" xmlns="http://www.w3.org/2000/svg"><path d="M13.9427 27.8864C21.6427 27.8864 27.8927 21.6464 27.8927 13.9464C27.8927 6.2464 21.6427 -0.0036 13.9427 -0.0036C6.2527 -0.0036 0.0027 6.2464 0.0027 13.9464C0.0027 21.6464 6.2527 27.8864 13.9427 27.8864ZM13.9427 25.5664C7.5227 25.5664 2.3227 20.3664 2.3227 13.9464C2.3227 7.5164 7.5227 2.3264 13.9427 2.3264C20.3727 2.3264 25.5627 7.5164 25.5627 13.9464C25.5627 20.3664 20.3727 25.5664 13.9427 25.5664ZM14.0527 21.9164C17.3527 21.9164 19.9927 19.8664 21.0727 17.4164C21.1327 17.2364 21.1527 17.0764 21.1527 17.0064C21.1527 16.7164 20.9227 16.5264 20.7027 16.5264C20.5927 16.5264 20.4627 16.5664 20.2727 16.6264C19.6727 16.7864 18.8227 16.9764 17.9227 16.9764C13.9227 16.9764 11.3727 14.4664 11.3727 10.5864C11.3727 9.6264 11.5927 8.6364 11.9527 7.7264C12.0027 7.6164 12.0327 7.5064 12.0327 7.4064C12.0327 7.1364 11.8227 6.9564 11.5527 6.9564C11.4127 6.9564 11.2627 6.9864 11.1527 7.0364C8.3127 8.2164 6.3327 10.9964 6.3327 14.2064C6.3327 18.4564 9.7927 21.9164 14.0527 21.9164Z" /></svg>