<svg viewBox="0 0 27.890625 27.890625" xmlns="http://www.w3.org/2000/svg"><path d="M13.9427 27.8864C21.6427 27.8864 27.8927 21.6464 27.8927 13.9464C27.8927 6.2464 21.6427 -0.0036 13.9427 -0.0036C6.2527 -0.0036 0.0027 6.2464 0.0027 13.9464C0.0027 21.6464 6.2527 27.8864 13.9427 27.8864ZM13.9427 25.5664C7.5227 25.5664 2.3227 20.3664 2.3227 13.9464C2.3227 7.5164 7.5227 2.3264 13.9427 2.3264C20.3727 2.3264 25.5627 7.5164 25.5627 13.9464C25.5627 20.3664 20.3727 25.5664 13.9427 25.5664ZM8.5427 15.3564H18.8427C19.1127 15.0164 19.3027 14.6464 19.4927 14.2364C19.6327 13.9064 19.6027 13.6264 19.4327 13.4364C19.2927 13.3164 19.0627 13.2864 18.7627 13.3864C18.2227 13.6164 17.5427 13.7164 16.7627 13.7164C13.5527 13.7164 11.5427 11.7464 11.5427 8.6264C11.5427 7.7964 11.6627 6.9164 11.9127 6.4564C12.0627 6.1564 12.0327 5.8964 11.9127 5.6964C11.7627 5.5064 11.4327 5.4664 11.1027 5.6164C8.8627 6.5364 7.3427 8.8564 7.3427 11.5664C7.3427 13.0164 7.7627 14.2964 8.5427 15.3564ZM6.2627 17.8464H21.5927C22.0127 17.8464 22.3927 17.5164 22.3927 17.0864C22.3927 16.6564 22.0227 16.3364 21.5927 16.3364H6.2627C5.8427 16.3364 5.4727 16.6664 5.4727 17.0864C5.4727 17.5164 5.8527 17.8464 6.2627 17.8464ZM7.2327 20.2664C7.5927 20.2664 7.8927 19.9764 7.8927 19.6164C7.8927 19.2464 7.5927 18.9664 7.2327 18.9664C6.8727 18.9664 6.5727 19.2464 6.5727 19.6164C6.5727 19.9764 6.8727 20.2664 7.2327 20.2664ZM10.5927 20.2664C10.9527 20.2664 11.2427 19.9764 11.2427 19.6164C11.2427 19.2464 10.9527 18.9664 10.5927 18.9664C10.2427 18.9664 9.9427 19.2464 9.9427 19.6164C9.9427 19.9764 10.2427 20.2664 10.5927 20.2664ZM13.9427 20.2664C14.3027 20.2664 14.6027 19.9764 14.6027 19.6164C14.6027 19.2464 14.3027 18.9664 13.9427 18.9664C13.5927 18.9664 13.2927 19.2464 13.2927 19.6164C13.2927 19.9764 13.5927 20.2664 13.9427 20.2664ZM17.2927 20.2664C17.6527 20.2664 17.9527 19.9764 17.9527 19.6164C17.9527 19.2464 17.6527 18.9664 17.2927 18.9664C16.9427 18.9664 16.6527 19.2464 16.6527 19.6164C16.6527 19.9764 16.9427 20.2664 17.2927 20.2664ZM20.6627 20.2664C21.0127 20.2664 21.3027 19.9764 21.3027 19.6164C21.3027 19.2464 21.0127 18.9664 20.6627 18.9664C20.3027 18.9664 20.0027 19.2464 20.0027 19.6164C20.0027 19.9764 20.3027 20.2664 20.6627 20.2664ZM8.9027 22.1064C9.2527 22.1064 9.5527 21.8164 9.5527 21.4464C9.5527 21.0964 9.2527 20.8064 8.9027 20.8064C8.5427 20.8064 8.2427 21.0964 8.2427 21.4464C8.2427 21.8164 8.5427 22.1064 8.9027 22.1064ZM12.2627 22.1064C12.6227 22.1064 12.9027 21.8164 12.9027 21.4464C12.9027 21.0964 12.6227 20.8064 12.2627 20.8064C11.9127 20.8064 11.6027 21.0964 11.6027 21.4464C11.6027 21.8164 11.9127 22.1064 12.2627 22.1064ZM15.6127 22.1064C15.9727 22.1064 16.2727 21.8164 16.2727 21.4464C16.2727 21.0964 15.9727 20.8064 15.6127 20.8064C15.2627 20.8064 14.9527 21.0964 14.9527 21.4464C14.9527 21.8164 15.2627 22.1064 15.6127 22.1064ZM18.9627 22.1064C19.3227 22.1064 19.6227 21.8164 19.6227 21.4464C19.6227 21.0964 19.3227 20.8064 18.9627 20.8064C18.6027 20.8064 18.3027 21.0964 18.3027 21.4464C18.3027 21.8164 18.6027 22.1064 18.9627 22.1064Z" /></svg>