<svg viewBox="0 0 35.041015625 28.533203125" xmlns="http://www.w3.org/2000/svg"><path d="M24.4437 0.0045C23.8437 0.0045 23.3237 0.5445 23.3237 1.2145V8.1245L23.4837 10.1845L22.6137 9.1445L20.7637 7.2845C20.5737 7.0945 20.3037 6.9745 20.0437 6.9745C19.4937 6.9745 19.1037 7.3545 19.1037 7.8845C19.1037 8.1745 19.1937 8.3945 19.4237 8.6145L23.6937 12.5945C23.9937 12.8545 24.1837 12.9445 24.4437 12.9445C24.6937 12.9445 24.8937 12.8545 25.1837 12.5945L29.4537 8.6145C29.6837 8.3945 29.7737 8.1745 29.7737 7.8845C29.7737 7.3545 29.3837 6.9745 28.8337 6.9745C28.5737 6.9745 28.3137 7.0945 28.1137 7.2845L26.4037 9.0145L25.3937 10.1845L25.5537 8.1245V1.2145C25.5537 0.5445 25.0437 0.0045 24.4437 0.0045ZM7.7237 24.7445H26.1137C26.7037 24.0645 27.1937 23.2845 27.5537 22.4645C27.9737 21.3945 27.1237 20.6045 26.0737 21.0645C25.2237 21.4345 23.6137 21.7345 22.1437 21.7345C16.3337 21.7345 12.9237 18.3045 12.9237 12.5145C12.9237 11.0345 13.1937 9.4045 13.5937 8.5745C14.1737 7.3445 13.2937 6.6545 12.2137 7.0945C8.1637 8.7645 5.4237 12.9845 5.4237 17.8245C5.4237 20.5045 6.2637 22.8845 7.7237 24.7445ZM1.1937 28.5345H33.8537C34.4937 28.5345 35.0437 28.0445 35.0437 27.4345C35.0437 26.8345 34.4937 26.3445 33.8537 26.3445H1.1937C0.5437 26.3445 0.0037 26.8345 0.0037 27.4345C0.0037 28.0445 0.5437 28.5345 1.1937 28.5345Z" /></svg>