<svg viewBox="0 0 25.169921875 25.18359375" xmlns="http://www.w3.org/2000/svg"><path d="M20.8737 -0.0008C23.7437 -0.0008 25.1737 1.4192 25.1737 4.2392V6.9592H18.2237V0.0092H16.0237V16.0392H0.0037V4.2392C0.0037 1.4192 1.4337 -0.0008 4.2937 -0.0008ZM16.0237 18.2392V25.1692H18.2237V25.1792H16.0237V25.1692H9.1437V18.2392ZM18.2237 9.1592H25.1737V16.0392H18.2237ZM20.8737 25.1692H18.2237V18.2392H25.1737V20.9492C25.1737 23.7592 23.7437 25.1692 20.8737 25.1692ZM0.0037 18.2392H6.9437V25.1692H9.1437V25.1792H6.9437V25.1692H4.2937C1.4337 25.1692 0.0037 23.7592 0.0037 20.9492Z" /></svg>