<svg viewBox="0 0 27.890625 27.890625" xmlns="http://www.w3.org/2000/svg"><path d="M13.9427 27.8927C21.6427 27.8927 27.8927 21.6427 27.8927 13.9427C27.8927 6.2627 21.6427 0.0027 13.9427 0.0027C6.2627 0.0027 0.0027 6.2627 0.0027 13.9427C0.0027 21.6427 6.2627 27.8927 13.9427 27.8927ZM12.4427 11.8027L14.9727 8.4927C15.5727 7.7127 16.4427 7.7227 17.0327 8.4927L19.5527 11.8027C18.8827 11.9927 18.4327 12.4927 18.0027 12.4927C17.4727 12.4927 16.9927 11.7027 15.9927 11.7027C15.0027 11.7027 14.5027 12.4927 13.9727 12.4927C13.5327 12.4927 13.0927 11.9927 12.4427 11.8027ZM5.4327 18.4827C4.3027 18.4827 4.0327 17.4027 4.6627 16.6127L9.1727 10.9927C9.7927 10.2527 10.5927 10.2527 11.1927 10.9927L11.5027 11.3427L7.8427 16.0927C7.2827 16.8427 7.2427 17.7827 7.6127 18.4827ZM9.5027 18.4827C8.4227 18.4827 8.1527 17.4327 8.6927 16.7227L11.8227 12.6227C12.3327 12.3627 13.0127 13.3127 13.9727 13.3127C15.0427 13.3127 15.4327 12.5227 15.9927 12.5227C16.5527 12.5227 16.9527 13.3127 18.0027 13.3127C18.9527 13.3127 19.6627 12.3627 20.1527 12.6227L23.2727 16.7227C23.8327 17.4327 23.5527 18.4827 22.4927 18.4827Z" /></svg>