<svg viewBox="0 0 31.927740303118227 30.819647979956738" xmlns="http://www.w3.org/2000/svg"><path d="M0.2139 11.0413L1.2339 14.7913V26.7713C1.2339 29.4613 2.6139 30.8213 5.3539 30.8213H27.8239C30.5739 30.8213 31.9239 29.4513 31.9239 26.7713V14.0213C31.9239 12.5013 30.9439 11.5113 29.3939 11.5113H13.4039L28.4139 7.4913C29.9139 7.1013 30.6039 5.8513 30.2339 4.4213L29.8739 3.0813C29.2039 0.4713 27.4739 -0.4787 24.8439 0.2213L3.1339 6.0613C0.5239 6.7713 -0.4761 8.4513 0.2139 11.0413ZM20.9739 7.4113L21.9739 3.2113L25.2739 2.3113C25.6239 2.2213 25.9639 2.1513 26.2939 2.0813L25.3239 6.2513ZM12.2939 9.7413L13.2839 5.5413L17.9439 4.2913L16.9539 8.5113ZM3.8839 11.9913L4.9139 7.7913L9.2339 6.6213L8.2439 10.8213ZM4.5439 17.4513L6.4939 13.8113L10.0639 13.6513H11.0939L9.0439 17.4513ZM13.2239 17.4513L15.2639 13.6513H20.1039L18.0539 17.4513ZM22.2339 17.4513L24.2739 13.6513H28.7739L26.7139 17.4513Z" /></svg>