<svg viewBox="0 0 32.6484375 28.751953125" xmlns="http://www.w3.org/2000/svg"><path d="M1.1737 14.6039C1.5537 14.6039 1.8737 14.3939 2.1637 14.1639L15.8437 2.6639C15.9937 2.5439 16.1737 2.4739 16.3237 2.4739C16.4837 2.4739 16.6537 2.5439 16.8037 2.6639L30.5037 14.1639C30.7737 14.3939 31.0937 14.6039 31.4737 14.6039C32.2137 14.6039 32.6437 14.0639 32.6437 13.5039C32.6437 13.1939 32.5237 12.8639 32.2137 12.6239L28.6537 9.6239V4.0739C28.6537 3.4739 28.2737 3.0939 27.6737 3.0939H26.2137C25.6237 3.0939 25.2237 3.4739 25.2237 4.0739V6.7439L17.9637 0.6539C17.4437 0.2139 16.8837 0.0039 16.3237 0.0039C15.7637 0.0039 15.2037 0.2139 14.6837 0.6539L0.4337 12.6239C0.1337 12.8639 0.0037 13.1939 0.0037 13.5039C0.0037 14.0639 0.4337 14.6039 1.1737 14.6039ZM4.2637 25.7439C4.2637 27.6439 5.4137 28.7539 7.3437 28.7539H25.3237C27.2437 28.7539 28.3837 27.6439 28.3837 25.7439V14.8839L17.1437 5.4639C16.6237 5.0339 16.0137 5.0439 15.5037 5.4639L4.2637 14.8839ZM19.8337 15.9039L16.7237 16.6539C16.4237 16.7239 16.3137 16.8439 16.3137 17.3339V21.9039C16.3137 23.8339 15.0237 25.1939 13.1437 25.1939C11.8037 25.1939 10.9537 24.3739 10.9537 23.2439C10.9537 21.9439 11.9537 21.2339 13.1637 20.9139L14.3837 20.5939C15.0537 20.4239 15.1037 20.3039 15.1037 19.7039V13.7139C15.1037 12.9339 15.2537 12.7939 15.9137 12.6239L19.7837 11.6639C20.4937 11.4939 20.6737 11.7139 20.6737 12.2239V14.8339C20.6737 15.6039 20.4637 15.7339 19.8337 15.9039Z" /></svg>