<svg viewBox="0 0 34.1796875 27.330078125" xmlns="http://www.w3.org/2000/svg"><path d="M3.5137 22.693H30.6637C33.0037 22.693 34.1837 21.563 34.1837 19.183V3.513C34.1837 1.133 33.0037 0.003 30.6637 0.003H3.5137C1.1937 0.003 0.0037 1.133 0.0037 3.513V19.183C0.0037 21.563 1.1937 22.693 3.5137 22.693ZM21.4237 8.693L18.0637 9.513C17.7337 9.583 17.6137 9.723 17.6137 10.253V15.173C17.6137 17.253 16.2137 18.713 14.1637 18.713C12.7237 18.713 11.8137 17.833 11.8137 16.613C11.8137 15.203 12.9037 14.423 14.2037 14.093L15.5337 13.743C16.2437 13.563 16.2937 13.423 16.2937 12.783V6.333C16.2937 5.483 16.4637 5.343 17.1537 5.163L21.3737 4.113C22.1337 3.923 22.3137 4.173 22.3137 4.713V7.543C22.3137 8.383 22.1237 8.533 21.4237 8.693ZM10.2137 27.333H23.9637C24.5637 27.333 25.0737 26.833 25.0737 26.223C25.0737 25.603 24.5637 25.113 23.9637 25.113H10.2137C9.6137 25.113 9.1037 25.603 9.1037 26.223C9.1037 26.833 9.6137 27.333 10.2137 27.333Z" /></svg>