<svg viewBox="0 0 38.841796875 13.1796875" xmlns="http://www.w3.org/2000/svg"><path d="M0.0027 5.39C0.0027 9.83 4.5827 13.18 10.2027 13.18C14.2327 13.18 17.5027 11.77 19.4127 9.16C21.3427 11.77 24.5927 13.18 28.6327 13.18C34.2627 13.18 38.8427 9.83 38.8427 5.39C38.8427 3.86 38.3927 2.9 37.4727 2.9C37.1627 2.9 36.8227 3.09 36.6027 3.42C35.8927 4.44 34.7027 5 33.2227 5C29.1027 5 27.9327 0 22.9927 0C21.4627 0 20.2327 0.53 19.4127 1.49C18.6027 0.53 17.3627 0 15.8327 0C10.9127 0 9.7327 5 5.6227 5C4.2427 5 3.0527 4.46 2.2127 3.4C1.9727 3.09 1.6727 2.9 1.3527 2.9C0.4327 2.9 0.0027 3.86 0.0027 5.39Z" /></svg>