<svg viewBox="0 0 27.890625 27.890625" xmlns="http://www.w3.org/2000/svg"><path d="M13.9427 27.8864C21.6427 27.8864 27.8927 21.6464 27.8927 13.9464C27.8927 6.2464 21.6427 -0.0036 13.9427 -0.0036C6.2527 -0.0036 0.0027 6.2464 0.0027 13.9464C0.0027 21.6464 6.2527 27.8864 13.9427 27.8864ZM13.9427 25.5664C7.5227 25.5664 2.3227 20.3664 2.3227 13.9464C2.3227 7.5164 7.5227 2.3264 13.9427 2.3264C20.3727 2.3264 25.5627 7.5164 25.5627 13.9464C25.5627 20.3664 20.3727 25.5664 13.9427 25.5664ZM9.8027 20.2064C10.4627 20.2064 10.8427 19.8064 10.8427 19.1164V11.1564H10.9227L16.8827 19.5464C17.2527 20.0564 17.5227 20.2064 17.9827 20.2064C18.6527 20.2064 19.0627 19.7964 19.0627 19.0764V8.5164C19.0627 7.8364 18.6727 7.4264 18.0227 7.4264C17.3727 7.4264 17.0127 7.8564 17.0127 8.5164V16.6264H16.9127L10.9627 8.0764C10.6127 7.5864 10.3127 7.4264 9.8527 7.4264C9.1827 7.4264 8.8027 7.8764 8.8027 8.5764V19.1164C8.8027 19.7864 9.1727 20.2064 9.8027 20.2064Z" /></svg>