<svg viewBox="0 0 25.169921875 25.169921875" xmlns="http://www.w3.org/2000/svg"><path d="M4.2937 25.1692H20.8737C23.7437 25.1692 25.1737 23.7592 25.1737 20.9492V4.2392C25.1737 1.4192 23.7437 -0.0008 20.8737 -0.0008H4.2937C1.4337 -0.0008 0.0037 1.4192 0.0037 4.2392V20.9492C0.0037 23.7592 1.4337 25.1692 4.2937 25.1692ZM8.9737 19.0892C8.5037 19.0892 8.1637 18.7392 8.1637 18.2492V13.0692H7.4537C7.1737 13.0692 6.9637 12.8692 6.9637 12.5892C6.9637 12.3192 7.1737 12.1092 7.4537 12.1092H8.1637V7.1192C8.1637 6.4892 8.6037 6.0592 9.2537 6.0592C9.8337 6.0592 10.2237 6.3892 10.4637 6.8892L13.0437 12.1092H15.1637V6.8792C15.1637 6.3892 15.4737 6.0592 15.9537 6.0592C16.4437 6.0592 16.7637 6.3892 16.7637 6.8792V12.1092H17.4837C17.7737 12.1092 17.9937 12.3192 17.9937 12.5892C17.9937 12.8692 17.7737 13.0692 17.4837 13.0692H16.7637V18.0192C16.7637 18.5392 16.4437 19.0892 15.6637 19.0892C15.0937 19.0892 14.7237 18.7592 14.4737 18.2692L11.9037 13.0692H9.7737V18.2492C9.7737 18.7392 9.4437 19.0892 8.9737 19.0892ZM9.7737 12.1092H11.4337L9.8537 8.9692H9.7737ZM13.5037 13.0692L15.0837 16.2192H15.1637V13.0692Z" /></svg>