<svg viewBox="0 0 27.890625 27.890625" xmlns="http://www.w3.org/2000/svg"><path d="M13.9427 27.8864C21.6427 27.8864 27.8927 21.6464 27.8927 13.9464C27.8927 6.2464 21.6427 -0.0036 13.9427 -0.0036C6.2527 -0.0036 0.0027 6.2464 0.0027 13.9464C0.0027 21.6464 6.2527 27.8864 13.9427 27.8864ZM13.9427 25.5664C7.5227 25.5664 2.3227 20.3664 2.3227 13.9464C2.3227 7.5164 7.5227 2.3264 13.9427 2.3264C20.3727 2.3264 25.5627 7.5164 25.5627 13.9464C25.5627 20.3664 20.3727 25.5664 13.9427 25.5664ZM10.4227 20.2464C10.8727 20.2464 11.1927 19.9164 11.1927 19.4364V14.4264H13.2627L15.7527 19.4564C15.9927 19.9464 16.3627 20.2464 16.9127 20.2464C17.6627 20.2464 17.9627 19.7264 17.9627 19.2264V14.4264H18.6727C18.9327 14.4264 19.1427 14.2164 19.1427 13.9564C19.1427 13.6964 18.9327 13.4964 18.6727 13.4964H17.9627V8.4264C17.9627 7.9464 17.6627 7.6264 17.1827 7.6264C16.7227 7.6264 16.4227 7.9464 16.4227 8.4264V13.4964H14.3527L11.8527 8.4364C11.6227 7.9264 11.2427 7.6264 10.6927 7.6264C10.0727 7.6264 9.6427 8.0564 9.6427 8.6564V13.4964H8.9427C8.6827 13.4964 8.4727 13.6964 8.4727 13.9564C8.4727 14.2164 8.6827 14.4264 8.9427 14.4264H9.6427V19.4364C9.6427 19.9164 9.9627 20.2464 10.4227 20.2464ZM11.1927 10.4364H11.2827L12.7927 13.4964H11.1927ZM16.3427 17.4764L14.8227 14.4264H16.4227V17.4764Z" /></svg>