<svg viewBox="0 0 27.890625 27.890625" xmlns="http://www.w3.org/2000/svg"><path d="M13.9427 27.8927C21.6427 27.8927 27.8927 21.6427 27.8927 13.9427C27.8927 6.2627 21.6427 0.0027 13.9427 0.0027C6.2627 0.0027 0.0027 6.2627 0.0027 13.9427C0.0027 21.6427 6.2627 27.8927 13.9427 27.8927ZM8.8227 20.9627C9.3427 20.6727 9.5027 20.3027 9.5027 19.6027V8.9727C9.5027 7.6127 10.1727 6.9427 11.5427 6.9427H19.1827C20.5527 6.9427 21.2327 7.6127 21.2327 8.9727V18.9327C21.2327 20.3027 20.5527 20.9627 19.1827 20.9627ZM12.1527 10.8727H18.5627C18.8427 10.8727 19.0127 10.6727 19.0127 10.4227C19.0127 10.1827 18.8427 10.0127 18.5627 10.0127H12.1527C11.8927 10.0127 11.7127 10.1827 11.7127 10.4227C11.7127 10.6727 11.8927 10.8727 12.1527 10.8727ZM6.6127 13.3127C6.6127 12.5527 7.1127 12.0827 7.9027 12.0827H8.2327V19.1527C8.2327 19.6327 7.8727 19.9427 7.4227 19.9427C6.9627 19.9427 6.6127 19.6427 6.6127 19.1527ZM12.1527 13.1827H18.5627C18.8427 13.1827 19.0127 12.9927 19.0127 12.7427C19.0127 12.4827 18.8427 12.3027 18.5627 12.3027H12.1527C11.8927 12.3027 11.7127 12.4827 11.7127 12.7427C11.7127 12.9927 11.8927 13.1827 12.1527 13.1827ZM16.2127 15.5127H18.5627C18.8427 15.5127 19.0127 15.3227 19.0127 15.0927C19.0127 14.8427 18.8427 14.6527 18.5627 14.6527H16.2127C15.9527 14.6527 15.7727 14.8427 15.7727 15.0927C15.7727 15.3227 15.9527 15.5127 16.2127 15.5127ZM12.4527 17.8427H14.0927C14.5927 17.8427 14.8927 17.5527 14.8927 17.0627V15.4327C14.8927 14.9427 14.5927 14.6527 14.0927 14.6527H12.4527C11.9927 14.6527 11.7027 14.9427 11.7027 15.4327V17.0627C11.7027 17.5527 11.9927 17.8427 12.4527 17.8427ZM16.2127 17.8427H18.5627C18.8427 17.8427 19.0127 17.6627 19.0127 17.4027C19.0127 17.1627 18.8427 16.9627 18.5627 16.9627H16.2127C15.9527 16.9627 15.7727 17.1627 15.7727 17.4027C15.7727 17.6627 15.9527 17.8427 16.2127 17.8427Z" /></svg>