<svg viewBox="0 0 30.529296875 29.17578125" xmlns="http://www.w3.org/2000/svg"><path d="M1.8137 25.919H28.7137V25.009C28.7137 24.459 28.3937 24.129 27.8337 24.129H26.9637V9.379H28.1637C28.9137 9.379 29.3537 8.829 29.3537 8.269C29.3537 7.859 29.1237 7.509 28.6137 7.219L16.9437 0.479C16.3937 0.169 15.8137 -0.001 15.2537 -0.001C14.6937 -0.001 14.1137 0.169 13.5937 0.479L1.9137 7.219C1.3937 7.509 1.1737 7.859 1.1737 8.269C1.1737 8.829 1.6137 9.379 2.3637 9.379H3.5637V24.129H2.7037C2.1437 24.129 1.8137 24.459 1.8137 25.009ZM5.6337 24.129V7.629L14.7237 2.529C14.8937 2.429 15.0837 2.379 15.2537 2.379C15.4337 2.379 15.6237 2.429 15.8037 2.529L24.8937 7.629V24.129ZM10.7437 19.989C11.1837 19.989 11.4837 19.669 11.4837 19.199V16.889L12.2937 16.109L14.7937 19.609C14.9537 19.839 15.1737 19.989 15.4637 19.989C15.8637 19.989 16.1737 19.699 16.1737 19.319C16.1737 19.129 16.0937 18.959 15.9737 18.789L13.3537 15.179L15.7937 12.619C15.9737 12.419 16.0637 12.309 16.0637 12.069C16.0637 11.719 15.7737 11.419 15.3937 11.419C15.1737 11.419 14.9437 11.549 14.8037 11.699L11.5237 15.299H11.4837V8.999C11.4837 8.519 11.1837 8.189 10.7437 8.189C10.2937 8.189 9.9837 8.499 9.9837 8.979V19.199C9.9837 19.669 10.2937 19.989 10.7437 19.989ZM18.4437 19.989C18.7837 19.989 19.1637 19.779 19.1637 19.199V14.919C19.1637 13.929 19.5337 12.869 20.7137 12.869C20.9837 12.869 21.2637 12.829 21.4637 12.699C21.6437 12.609 21.7537 12.439 21.7537 12.199C21.7537 11.689 21.3737 11.419 20.8637 11.419C19.9837 11.419 19.3837 12.179 19.1837 13.059H19.1037V12.179C19.1037 11.749 18.8037 11.419 18.4137 11.419C18.0237 11.419 17.7237 11.749 17.7237 12.179V19.199C17.7237 19.669 17.9737 19.989 18.4437 19.989ZM1.0937 29.179H29.4237C30.0237 29.179 30.5337 28.669 30.5337 28.069C30.5337 27.469 30.0237 26.979 29.4237 26.979H1.0937C0.4937 26.979 0.0037 27.469 0.0037 28.069C0.0037 28.669 0.4937 29.179 1.0937 29.179Z" /></svg>