<svg viewBox="0 0 25.2109375 25.2109375" xmlns="http://www.w3.org/2000/svg"><path d="M23.6137 1.6166C22.2137 0.2166 20.2437 -0.0034 17.9137 -0.0034H7.2637C4.9637 -0.0034 2.9937 0.2166 1.6037 1.6166C0.2037 3.0066 0.0037 4.9666 0.0037 7.2566V17.9066C0.0037 20.2466 0.2037 22.2066 1.6037 23.5966C2.9937 24.9966 4.9637 25.2066 7.2837 25.2066H17.9137C20.2437 25.2066 22.2137 24.9966 23.6137 23.5966C25.0037 22.2066 25.2137 20.2466 25.2137 17.9066V7.2866C25.2137 4.9466 25.0037 3.0066 23.6137 1.6166ZM12.5737 20.1666C8.4037 20.1666 5.0337 16.7766 5.0337 12.6066C5.0337 8.4366 8.4037 5.0466 12.5737 5.0466C16.7637 5.0466 20.1437 8.4366 20.1437 12.6066C20.1437 16.7766 16.7637 20.1666 12.5737 20.1666ZM9.5437 8.0566L17.1437 15.6566C17.7437 14.7966 18.1037 13.7366 18.1037 12.6066C18.1037 9.5666 15.6437 7.1066 12.5937 7.1066C11.4737 7.1066 10.4037 7.4466 9.5437 8.0566ZM7.1137 12.6066C7.1137 15.6366 9.5537 18.0966 12.5937 18.0966C13.7237 18.0966 14.7637 17.7566 15.6237 17.1566L8.0437 9.5666C7.4537 10.4366 7.1137 11.4666 7.1137 12.6066Z" /></svg>