<svg viewBox="0 0 27.248046875 25.169921875" xmlns="http://www.w3.org/2000/svg"><path d="M4.2937 25.1655H22.9737C25.8237 25.1655 27.2437 23.7455 27.2437 20.9355V4.2355C27.2437 1.4255 25.8237 -0.0045 22.9737 -0.0045H4.2937C1.4337 -0.0045 0.0037 1.4055 0.0037 4.2355V20.9355C0.0037 23.7655 1.4337 25.1655 4.2937 25.1655ZM4.0837 22.9655C2.8737 22.9655 2.2037 22.3255 2.2037 21.0555V8.1655C2.2037 6.9055 2.8737 6.2455 4.0837 6.2455H23.1437C24.3637 6.2455 25.0437 6.9055 25.0437 8.1655V21.0555C25.0437 22.3255 24.3637 22.9655 23.1437 22.9655ZM6.4637 11.3355H20.8237C21.3037 11.3355 21.6737 10.9555 21.6737 10.4755C21.6737 10.0055 21.3037 9.6555 20.8237 9.6555H6.4637C5.9637 9.6555 5.6037 10.0055 5.6037 10.4755C5.6037 10.9555 5.9637 11.3355 6.4637 11.3355ZM6.4637 15.4455H20.8237C21.3037 15.4455 21.6737 15.0955 21.6737 14.6255C21.6737 14.1355 21.3037 13.7655 20.8237 13.7655H6.4637C5.9637 13.7655 5.6037 14.1355 5.6037 14.6255C5.6037 15.0955 5.9637 15.4455 6.4637 15.4455ZM6.4637 19.5655H15.5837C16.0637 19.5655 16.4337 19.2055 16.4337 18.7455C16.4337 18.2655 16.0637 17.8855 15.5837 17.8855H6.4637C5.9637 17.8855 5.6037 18.2655 5.6037 18.7455C5.6037 19.2055 5.9637 19.5655 6.4637 19.5655Z" /></svg>