<svg viewBox="0 0 32.23828125 25.169921875" xmlns="http://www.w3.org/2000/svg"><path d="M4.2937 25.1692H27.9437C30.8137 25.1692 32.2337 23.7592 32.2337 20.9492V4.2392C32.2337 1.4192 30.8137 -0.0008 27.9437 -0.0008H4.2937C1.4337 -0.0008 0.0037 1.4192 0.0037 4.2392V20.9492C0.0037 23.7592 1.4337 25.1692 4.2937 25.1692ZM24.0337 18.3592C22.0437 18.3592 20.3737 17.3592 20.0737 15.9292C20.0437 15.7592 20.0337 15.6792 20.0337 15.4992C20.0337 15.0092 20.3437 14.6592 20.8737 14.6592C21.3037 14.6592 21.5637 14.8592 21.7337 15.2892C22.0637 16.2392 22.8837 16.7792 24.0637 16.7792C25.4837 16.7792 26.4237 16.0392 26.4237 14.9592C26.4237 13.8492 25.4937 13.1292 24.1337 13.1292H23.2737C22.8337 13.1292 22.5037 12.7992 22.5037 12.3492C22.5037 11.8792 22.8337 11.5792 23.2737 11.5792H24.0537C25.1937 11.5792 26.0537 10.8392 26.0537 9.8392C26.0537 8.8692 25.2937 8.2692 24.1037 8.2692C23.0237 8.2692 22.2137 8.8092 21.9437 9.7492C21.8037 10.1892 21.5337 10.3892 21.0937 10.3892C20.5937 10.3892 20.2437 10.0492 20.2437 9.5792C20.2437 9.3792 20.2637 9.2692 20.2937 9.0892C20.6337 7.6292 22.1337 6.6692 24.1337 6.6692C26.3137 6.6692 27.8737 7.9192 27.8737 9.6392C27.8737 10.9392 26.9337 12.0592 25.7137 12.2492V12.2792C27.1937 12.4392 28.2737 13.5792 28.2737 15.0292C28.2737 17.0392 26.5637 18.3592 24.0337 18.3592ZM11.8237 18.1692C11.2837 18.1692 10.9237 17.8592 10.9237 17.3492C10.9237 17.0592 11.0437 16.8292 11.2537 16.6092L15.2037 12.3892C15.9137 11.6192 16.6537 10.8692 16.6537 9.9892C16.6537 8.9792 15.8737 8.2992 14.7237 8.2992C13.5537 8.2992 12.8937 9.0892 12.5937 9.8392C12.3737 10.1992 12.1437 10.4692 11.6937 10.4692C11.1837 10.4692 10.8737 10.1492 10.8737 9.6692C10.8737 9.4892 10.8937 9.3692 10.9537 9.1692C11.3437 7.7492 12.9037 6.6892 14.6437 6.6892C16.9237 6.6892 18.4337 7.9392 18.4337 9.8392C18.4337 11.1992 17.6537 12.1792 16.5537 13.3592L13.6437 16.4792V16.5292H18.1437C18.6337 16.5292 18.9737 16.8592 18.9737 17.3392C18.9737 17.8192 18.6337 18.1692 18.1437 18.1692ZM7.8037 18.3492C7.2237 18.3492 6.8637 17.9392 6.8637 17.2792V8.7892H6.7437L5.1437 9.8392C4.8437 10.0492 4.7037 10.0792 4.5137 10.0792C4.1737 10.0792 3.8537 9.7492 3.8537 9.3692C3.8537 9.0892 3.9537 8.8892 4.2237 8.7092L6.4637 7.1792C7.0037 6.8192 7.2837 6.6992 7.7637 6.6992C8.4037 6.6992 8.7737 7.0792 8.7737 7.7792V17.2792C8.7737 17.9492 8.4237 18.3492 7.8037 18.3492Z" /></svg>