<svg viewBox="0 0 27.890625 27.890625" xmlns="http://www.w3.org/2000/svg"><path d="M13.9427 27.8864C21.6427 27.8864 27.8927 21.6464 27.8927 13.9464C27.8927 6.2464 21.6427 -0.0036 13.9427 -0.0036C6.2527 -0.0036 0.0027 6.2464 0.0027 13.9464C0.0027 21.6464 6.2527 27.8864 13.9427 27.8864ZM13.9427 25.5664C7.5227 25.5664 2.3227 20.3664 2.3227 13.9464C2.3227 7.5164 7.5227 2.3264 13.9427 2.3264C20.3727 2.3264 25.5627 7.5164 25.5627 13.9464C25.5627 20.3664 20.3727 25.5664 13.9427 25.5664ZM6.9027 19.6864C7.5227 20.3164 8.2627 20.4564 8.6727 20.0264L11.5427 17.1464C12.0127 16.6764 12.2327 16.2564 12.3227 15.7864L12.4727 14.7964L13.9227 13.3464L15.3527 14.7964L15.5127 15.7864C15.6027 16.2564 15.8227 16.6764 16.2927 17.1464L19.1727 20.0264C19.5827 20.4564 20.3027 20.3164 20.9327 19.6864C21.5427 19.0764 21.6827 18.3364 21.2627 17.9264L18.3727 15.0564C17.9127 14.5864 17.4827 14.3564 17.0227 14.2764L16.0127 14.1064L14.5927 12.6864L18.8027 8.4664L19.1227 8.7864C19.3227 8.9964 19.6027 8.9864 19.7927 8.7864C19.9927 8.5964 20.0027 8.3264 19.7927 8.1464L18.4527 6.7964C18.2627 6.6064 17.9927 6.6164 17.8027 6.7964C17.6127 6.9864 17.5927 7.2764 17.8027 7.4664L18.1327 7.7964L13.9227 12.0164L9.7027 7.7964L10.0327 7.4664C10.2227 7.2764 10.2127 6.9864 10.0327 6.7964C9.8427 6.6164 9.5727 6.6064 9.3827 6.7964L8.0427 8.1464C7.8327 8.3264 7.8427 8.5964 8.0427 8.7864C8.2327 8.9864 8.5127 8.9964 8.6927 8.7864L9.0327 8.4664L13.2527 12.6864L11.8227 14.1064L10.8127 14.2764C10.3527 14.3564 9.9127 14.5864 9.4427 15.0564L6.5727 17.9264C6.1527 18.3364 6.2727 19.0764 6.9027 19.6864Z" /></svg>