<svg viewBox="0 0 32.23828125 24.541015625" xmlns="http://www.w3.org/2000/svg"><path d="M10.7737 24.5384H21.4637C29.3937 24.5384 32.2337 21.5984 32.2337 14.2884V10.2684C32.2337 2.9484 29.3937 -0.0016 21.4637 -0.0016H10.7737C2.8437 -0.0016 0.0037 2.9484 0.0037 10.2684V14.2884C0.0037 21.5984 2.8437 24.5384 10.7737 24.5384ZM21.0937 18.1284C20.5237 18.1284 20.0437 17.6684 20.0437 17.0884V8.5484L18.7537 9.5884C18.6237 9.6884 18.4737 9.7584 18.2537 9.7584C17.8237 9.7584 17.5237 9.4484 17.5237 9.0084C17.5237 8.6384 17.7237 8.3684 17.9737 8.1784L19.5237 6.9684C19.8537 6.7284 20.3337 6.3984 20.9337 6.3984C21.6737 6.3984 22.1237 6.8184 22.1237 7.5484V17.0884C22.1237 17.6684 21.6537 18.1284 21.0937 18.1284ZM10.4637 18.1184C9.7937 18.1184 9.4237 17.7184 9.4237 17.0484V7.6384C9.4237 6.9484 9.8437 6.5484 10.4437 6.5484H13.0937C15.1637 6.5484 16.3637 8.2484 16.3637 10.3884C16.3637 12.5684 15.1337 14.2084 12.9737 14.2084H11.4937V17.0484C11.4937 17.7084 11.1437 18.1184 10.4637 18.1184ZM11.4937 12.5784H12.5637C13.8037 12.5784 14.3137 11.6484 14.3137 10.3884C14.3137 9.0684 13.7537 8.2284 12.5737 8.2284H11.4937Z" /></svg>