<svg viewBox="0 0 20.75390625 36.27061732538322" xmlns="http://www.w3.org/2000/svg"><path d="M20.7537 21.1186C20.7537 15.4186 18.5137 7.5086 12.8937 1.6186C11.6937 0.3586 9.8937 -0.5014 7.8037 0.3186L6.4837 0.8386C4.0037 1.8086 3.2937 3.5086 4.3037 5.8486C6.4637 10.7286 7.0037 14.2686 7.0037 17.3186C7.0037 18.5586 6.3737 19.3086 5.0737 19.3086H1.7137C0.7237 19.3086 0.0037 20.0686 0.0037 21.0986V24.3886C0.0037 25.3186 0.6337 26.0286 1.4937 26.0286H4.0337C4.9037 26.0286 5.4137 26.4786 5.4137 27.2186C5.4137 27.8386 5.0737 28.5786 5.0737 29.5386C5.0737 31.6686 6.2337 33.2286 8.6637 34.4086L11.3937 35.7186C13.7237 36.8486 15.9937 36.2086 17.3237 34.0486C19.7237 30.0986 20.7537 26.1486 20.7537 21.1186ZM18.5537 21.1186C18.5537 25.8786 17.6737 29.2286 15.4537 32.8986C14.7137 34.0786 13.4837 34.4086 12.1537 33.7486L9.7037 32.5086C7.7137 31.5086 7.1537 30.7286 7.1537 29.1586C7.1537 27.3486 9.2237 22.6986 9.2237 16.5386C9.2237 14.2986 8.7537 10.3386 6.3437 4.9686C5.9037 4.0086 6.1537 3.2986 7.1137 2.9486L8.4637 2.4286C9.8537 1.9086 10.4337 2.2386 11.2337 3.0386C16.6237 8.6886 18.5537 15.8986 18.5537 21.1186Z" /></svg>