<svg viewBox="0 0 29.080454061445828 32.50409914328745" xmlns="http://www.w3.org/2000/svg"><path d="M1.7273 30.7769C4.0073 33.0569 6.6773 33.0869 8.9173 30.8369C10.5673 29.1869 12.3073 25.2869 13.5873 23.7569L16.5073 26.6869C17.5673 27.7669 18.8573 27.7669 19.8973 26.7269L21.6573 24.9469C22.4873 24.0969 22.6573 23.1469 22.1473 22.2369L27.9573 16.4269C29.4773 14.9169 29.4473 13.0969 27.8973 11.5369L17.1573 0.7869C15.7273 -0.6431 13.2373 -0.0831 12.7273 2.1469C11.6273 6.9669 11.4273 8.0769 10.0073 10.2369C9.1873 9.8869 8.3173 10.0869 7.5473 10.8369L5.7873 12.6169C4.7473 13.6569 4.7373 14.9269 5.8173 16.0069L8.7373 18.9169C7.2173 20.2069 3.3273 21.9269 1.6673 23.5769C-0.5727 25.8269 -0.5627 28.5069 1.7273 30.7769ZM19.3073 15.1369C20.0073 15.8269 23.7373 13.7969 25.2373 12.0969L26.2273 13.0769C26.8573 13.7069 26.8573 14.4769 26.2673 15.0669L20.6973 20.6369L11.7173 11.6569C13.3273 9.2369 13.6173 7.5169 14.7673 3.2769C14.9473 2.5769 15.5173 2.4069 15.9873 2.8569L22.3573 9.2169C22.0273 11.4769 20.8073 13.1469 19.3473 14.6169C19.1673 14.7869 19.1873 15.0069 19.3073 15.1369ZM7.6873 13.8369L8.7973 12.7569C9.1473 12.3969 9.5273 12.3869 9.8873 12.7369L19.7673 22.6069C20.1173 22.9669 20.1173 23.3469 19.7473 23.7169L18.6773 24.7969C18.3173 25.1769 17.9073 25.1969 17.5573 24.8069L14.2873 21.5269C13.7873 21.0269 13.1273 21.0769 12.5573 21.6369C11.4873 22.6969 9.6173 27.1869 7.4373 29.3469C6.1273 30.6769 4.5373 30.6769 3.1773 29.3269C1.8373 27.9669 1.8173 26.3669 3.1473 25.0569C5.3173 22.8969 9.8173 21.0269 10.8673 19.9569C11.4173 19.3669 11.4873 18.7169 10.9773 18.2169L7.6873 14.9369C7.3273 14.5869 7.3273 14.1869 7.6873 13.8369ZM5.2673 28.9569C6.1973 28.9569 6.9473 28.1869 6.9473 27.2569C6.9473 26.3269 6.1973 25.5769 5.2673 25.5769C4.3373 25.5769 3.5673 26.3269 3.5673 27.2569C3.5673 28.1869 4.3373 28.9569 5.2673 28.9569Z" /></svg>