<svg viewBox="0 0 23.21484375 29.3671875" xmlns="http://www.w3.org/2000/svg"><path d="M7.9537 29.3647H19.0437C21.6437 29.3647 23.2037 27.8347 23.2037 25.2647L23.2137 4.1447C23.2137 1.6847 21.5637 0.0047 19.0837 0.0047H5.9037C2.2737 0.0047 0.0037 2.2947 0.0037 5.9247V8.0147C0.0037 11.6647 0.8637 14.1047 2.8437 16.6747L3.8037 17.9347V25.2647C3.8037 27.8347 5.3637 29.3647 7.9537 29.3647ZM5.6737 8.4247C5.1637 8.4247 4.7537 8.0147 4.7537 7.5047C4.7537 6.9847 5.1637 6.5647 5.6737 6.5647H18.0037C18.5137 6.5647 18.9237 6.9847 18.9237 7.5047C18.9237 8.0147 18.5137 8.4247 18.0037 8.4247ZM6.9437 13.6547C6.4437 13.6547 6.0137 13.2347 6.0137 12.7147C6.0137 12.2047 6.4437 11.7947 6.9437 11.7947H18.0037C18.5137 11.7947 18.9237 12.2047 18.9237 12.7147C18.9237 13.2347 18.5137 13.6547 18.0037 13.6547ZM9.1037 18.8447C8.5837 18.8447 8.1637 18.4247 8.1637 17.9247C8.1637 17.4047 8.5837 16.9847 9.1037 16.9847H18.0037C18.5137 16.9847 18.9237 17.4047 18.9237 17.9247C18.9237 18.4247 18.5137 18.8447 18.0037 18.8447ZM9.1037 24.0747C8.5837 24.0747 8.1637 23.6547 8.1637 23.1347C8.1637 22.6247 8.5837 22.2147 9.1037 22.2147H18.0037C18.5137 22.2147 18.9237 22.6247 18.9237 23.1347C18.9237 23.6547 18.5137 24.0747 18.0037 24.0747Z" /></svg>