<svg viewBox="0 0 32.826171875 29.01171875" xmlns="http://www.w3.org/2000/svg"><path d="M1.1037 29.007C1.7137 29.007 2.2037 28.517 2.2037 27.917V1.097C2.2037 0.497 1.7137 -0.003 1.1037 -0.003C0.4937 -0.003 0.0037 0.497 0.0037 1.097V27.917C0.0037 28.517 0.4937 29.007 1.1037 29.007ZM14.5837 23.937L28.0537 26.917C28.6437 27.047 29.0237 26.547 29.0237 25.967V25.127H30.6237V27.917C30.6237 28.517 31.1137 29.007 31.7337 29.007C32.3337 29.007 32.8237 28.517 32.8237 27.917V1.097C32.8237 0.497 32.3337 -0.003 31.7337 -0.003C31.1137 -0.003 30.6237 0.497 30.6237 1.097V3.927H29.0237V3.117C29.0237 2.527 28.6437 2.027 28.0537 2.157L14.5837 5.137C14.0437 5.267 13.7937 5.617 13.7937 6.047V8.147C13.7937 8.767 14.1237 9.087 14.7637 9.007L28.0537 7.447C28.6437 7.387 29.0237 7.067 29.0237 6.497V5.717H30.6237V10.407H29.0237V9.607C29.0237 9.027 28.6537 8.587 28.0537 8.657L14.5837 10.227C14.0937 10.277 13.7937 10.647 13.7937 11.157V13.057C13.7937 13.607 14.1237 13.947 14.5837 13.947H28.0537C28.6437 13.947 29.0237 13.567 29.0237 12.987V12.197H30.6237V16.867H29.0237V16.087C29.0237 15.517 28.6437 15.137 28.0537 15.137H14.5837C14.1237 15.137 13.7937 15.477 13.7937 16.027V17.927C13.7937 18.427 14.0937 18.787 14.5837 18.857L28.0537 20.427C28.6537 20.497 29.0237 20.057 29.0237 19.467V18.667H30.6237V23.337H29.0237V22.577C29.0237 22.007 28.6437 21.697 28.0537 21.627L14.7637 20.067C14.1237 19.987 13.7937 20.317 13.7937 20.927V23.037C13.7937 23.457 14.0437 23.817 14.5837 23.937Z" /></svg>