<svg viewBox="0 0 27.181414537623755 33.126953125" xmlns="http://www.w3.org/2000/svg"><path d="M7.2837 6.9407H15.7237C16.5337 6.9407 17.0037 6.4407 17.0037 5.5907V4.1607C17.0037 3.3107 16.5337 2.8007 15.7237 2.8007H14.4637C14.3737 1.2607 13.0837 0.0007 11.4937 0.0007C9.9137 0.0007 8.6237 1.2607 8.5337 2.8007H7.2837C6.4837 2.8007 6.0037 3.3107 6.0037 4.1607V5.5907C6.0037 6.4407 6.4837 6.9407 7.2837 6.9407ZM11.4937 4.1007C10.8437 4.1007 10.3037 3.5507 10.3037 2.9107C10.3037 2.2407 10.8437 1.7107 11.4937 1.7107C12.1637 1.7107 12.6837 2.2407 12.6837 2.9107C12.6837 3.5507 12.1637 4.1007 11.4937 4.1007ZM4.2337 33.1307H18.7537C21.5837 33.1307 22.9937 31.7007 22.9937 28.8307V17.0907L20.7937 19.2907V28.8107C20.7937 30.1707 20.0737 30.9307 18.6437 30.9307H4.3637C2.9437 30.9307 2.2037 30.1707 2.2037 28.8107V8.1307C2.2037 6.8507 2.8537 6.0107 4.1437 6.0107H4.4537C4.4137 5.8207 4.4037 5.6007 4.4037 5.3907V4.1607C4.4037 4.0507 4.4037 3.9207 4.4137 3.8107H4.0837C1.3637 3.8107 0.0037 5.3007 0.0037 8.1107V28.8307C0.0037 31.7007 1.4237 33.1307 4.2337 33.1307ZM20.7937 10.2307L22.9937 8.0207V7.5707C22.9937 5.1807 21.5637 3.8107 18.9037 3.8107H18.5837C18.5937 3.9207 18.5937 4.0507 18.5937 4.1607V5.3907C18.5937 5.6007 18.5837 5.8207 18.5437 6.0107H18.8637C20.1537 6.0107 20.7937 6.8507 20.7937 8.1307ZM25.7837 11.6907L26.8137 10.6507C27.3037 10.1607 27.3037 9.4907 26.8237 9.0107L26.4937 8.6807C26.0537 8.2407 25.3737 8.3007 24.9137 8.7507L23.8837 9.7707ZM10.4637 25.4607L13.2437 24.2107L24.7737 12.7107L22.8437 10.8107L11.3437 22.3107L10.0337 25.0107C9.9137 25.2507 10.2037 25.5707 10.4637 25.4607ZM4.6037 13.7307C4.6037 14.1907 5.0037 14.5707 5.4737 14.5707H16.4437L18.0337 12.9907C17.8937 12.9107 17.7237 12.8607 17.5437 12.8607H5.4737C5.0037 12.8607 4.6037 13.2607 4.6037 13.7307ZM4.6037 18.5707C4.6037 19.0407 4.9937 19.4307 5.4737 19.4307H11.5937L13.2937 17.7307H5.4737C4.9937 17.7307 4.6037 18.1007 4.6037 18.5707ZM5.4737 24.5407H7.3737C7.8337 24.5407 8.2337 24.1607 8.2337 23.6907C8.2337 23.2307 7.8437 22.8407 7.3737 22.8407H5.4737C4.9937 22.8407 4.6037 23.2307 4.6037 23.6907C4.6037 24.1607 5.0037 24.5407 5.4737 24.5407Z" /></svg>