<svg viewBox="0 0 29.606378862632724 28.91259765625" xmlns="http://www.w3.org/2000/svg"><path d="M0.2626 13.4248L4.2926 25.9548C4.9126 27.9148 6.2626 28.9148 8.3426 28.9148H21.2726C23.3526 28.9148 24.7026 27.9148 25.3226 25.9548L29.3326 13.4748C29.9826 11.4548 29.4826 9.8548 27.8426 8.6548L17.3626 0.9548C15.6526 -0.3152 13.9626 -0.3152 12.2526 0.9548L1.7826 8.6548C0.1426 9.8548 -0.3674 11.4448 0.2626 13.4248ZM2.3426 12.7548C2.0126 11.7148 2.2126 11.0848 3.1226 10.4148L13.5826 2.7048C14.4826 2.0348 15.1326 2.0348 16.0426 2.7048L26.5026 10.4148C27.4026 11.0848 27.6026 11.7248 27.2626 12.7948L26.3926 15.5148H3.2326Z" /></svg>