<svg viewBox="0 0 38.076171875 30.97194483740537" xmlns="http://www.w3.org/2000/svg"><path d="M33.6637 30.6665C34.0737 31.0765 34.7537 31.0765 35.1537 30.6665C35.5437 30.2365 35.5737 29.5965 35.1537 29.1765L6.2937 0.3165C5.8637 -0.1135 5.1937 -0.0935 4.7837 0.3165C4.3937 0.7065 4.3937 1.4065 4.7837 1.8065ZM26.1437 14.4665C29.3937 14.4665 32.0437 11.5765 32.0437 8.0465C32.0437 4.5465 29.4037 1.8065 26.1437 1.8065C22.8837 1.8065 20.2337 4.6065 20.2337 8.0765C20.2337 11.5965 22.8837 14.4665 26.1437 14.4665ZM26.1437 12.3965C24.1437 12.3965 22.4337 10.4965 22.4337 8.0765C22.4337 5.6965 24.1037 3.8665 26.1437 3.8665C28.1737 3.8665 29.8437 5.6565 29.8437 8.0465C29.8437 10.4665 28.1537 12.3965 26.1437 12.3965ZM10.3937 14.5865C11.7137 14.5865 12.9337 14.0265 13.8237 13.1065L12.4037 11.6565C11.8537 12.2165 11.1537 12.5465 10.3937 12.5465C8.7137 12.5465 7.3037 10.9465 7.3037 8.9765C7.3037 8.2865 7.4937 7.6265 7.8237 7.0965L6.3437 5.6265C5.6737 6.5465 5.2637 7.7065 5.2637 8.9765C5.2637 12.0665 7.5737 14.5865 10.3937 14.5865ZM2.7737 27.1265H13.5037C12.8537 26.7565 12.3637 25.9365 12.4537 25.0965H2.4437C2.1637 25.0965 2.0337 24.9865 2.0337 24.7165C2.0337 21.3265 5.9037 18.1665 10.3737 18.1665C12.0837 18.1665 13.6437 18.5765 14.9737 19.3565C15.3937 18.8065 15.9037 18.3365 16.5137 17.8965C14.7537 16.7465 12.6337 16.1465 10.3737 16.1465C4.6437 16.1465 0.0037 20.2965 0.0037 24.8365C0.0037 26.3665 0.9337 27.1265 2.7737 27.1265ZM38.0737 24.9365C38.0737 21.3565 33.5537 16.1765 26.1237 16.1765C25.5637 16.1765 25.0437 16.2265 24.5437 16.3065L26.6337 18.3965C26.8937 18.3465 27.1237 18.3165 27.4537 18.3365C32.8837 18.8565 35.8737 22.5665 35.8737 24.6765C35.8737 24.9665 35.7237 25.0565 35.3737 25.0565H33.2937L35.2437 27.0165L36.2337 26.9565C37.4837 26.7265 38.0737 26.0465 38.0737 24.9365ZM17.5437 27.1265H27.8637L25.8037 25.0565H16.8837C16.5337 25.0565 16.3937 24.9665 16.3937 24.6765C16.3937 23.2565 17.7737 21.0665 20.3737 19.6265L18.8637 18.1265C15.8837 19.9765 14.1937 22.7465 14.1937 24.9365C14.1937 26.4365 15.2737 27.1265 17.5437 27.1265Z" /></svg>