<svg viewBox="0 0 29.61328125 25.6484375" xmlns="http://www.w3.org/2000/svg"><path d="M24.8437 9.8285C25.5237 9.8285 25.9337 9.3885 25.9337 8.8485V8.6785C25.9337 7.9185 26.3837 7.4385 27.3437 6.8085C28.6737 5.9385 29.6137 5.1285 29.6137 3.4985C29.6137 1.2285 27.5937 -0.0015 25.2637 -0.0015C22.9137 -0.0015 21.3737 1.1185 21.0037 2.3685C20.9337 2.5985 20.8937 2.8185 20.8937 3.0485C20.8937 3.6685 21.3737 3.9885 21.8237 3.9885C22.2837 3.9885 22.5837 3.7685 22.8337 3.4485L23.0737 3.1185C23.5537 2.3085 24.2637 1.8585 25.1837 1.8585C26.4237 1.8585 27.2337 2.5685 27.2337 3.6085C27.2337 4.5385 26.6637 4.9885 25.4537 5.8285C24.4837 6.5085 23.7437 7.2285 23.7437 8.5685V8.7385C23.7437 9.4585 24.1437 9.8285 24.8437 9.8285ZM11.5137 12.9885C14.4337 12.9885 16.9837 10.3585 16.9837 6.9485C16.9837 3.5685 14.4337 1.0685 11.5137 1.0685C8.5837 1.0685 6.0437 3.6185 6.0437 6.9685C6.0437 10.3585 8.5737 12.9885 11.5137 12.9885ZM24.8137 13.9085C25.5937 13.9085 26.2937 13.2785 26.2937 12.4785C26.2937 11.6885 25.6037 11.0585 24.8137 11.0585C24.0037 11.0585 23.3337 11.6985 23.3337 12.4785C23.3337 13.2585 24.0237 13.9085 24.8137 13.9085ZM2.3337 25.6485H20.6737C22.1337 25.6485 23.0137 24.9685 23.0137 23.8285C23.0137 20.2985 18.5937 15.4385 11.4937 15.4385C4.4137 15.4385 0.0037 20.2985 0.0037 23.8285C0.0037 24.9685 0.8737 25.6485 2.3337 25.6485Z" /></svg>