<svg viewBox="0 0 38.076171875 25.3203125" xmlns="http://www.w3.org/2000/svg"><path d="M26.1437 12.6613C29.3937 12.6613 32.0437 9.7713 32.0437 6.2512C32.0437 2.7512 29.4037 0.0012 26.1437 0.0012C22.8837 0.0012 20.2337 2.8012 20.2337 6.2712C20.2337 9.7913 22.8837 12.6613 26.1437 12.6613ZM10.3937 12.7813C13.2037 12.7813 15.5137 10.2513 15.5137 7.1512C15.5137 4.1112 13.2337 1.6713 10.3937 1.6713C7.5737 1.6713 5.2637 4.1513 5.2637 7.1813C5.2637 10.2713 7.5737 12.7813 10.3937 12.7813ZM26.1437 10.5913C24.1437 10.5913 22.4337 8.6913 22.4337 6.2712C22.4337 3.9013 24.1037 2.0613 26.1437 2.0613C28.1737 2.0613 29.8437 3.8513 29.8437 6.2512C29.8437 8.6713 28.1537 10.5913 26.1437 10.5913ZM10.3937 10.7413C8.7137 10.7413 7.3037 9.1512 7.3037 7.1813C7.3037 5.2512 8.6937 3.7013 10.3937 3.7013C12.1137 3.7013 13.4937 5.2213 13.4937 7.1512C13.4937 9.1512 12.0737 10.7413 10.3937 10.7413ZM2.7737 25.3213H13.5037C12.8537 24.9513 12.3637 24.1313 12.4537 23.3013H2.4437C2.1637 23.3013 2.0337 23.1913 2.0337 22.9113C2.0337 19.5213 5.9037 16.3612 10.3737 16.3612C12.0837 16.3612 13.6437 16.7713 14.9737 17.5513C15.3937 17.0113 15.9037 16.5313 16.5137 16.0913C14.7537 14.9413 12.6337 14.3413 10.3737 14.3413C4.6437 14.3413 0.0037 18.5013 0.0037 23.0413C0.0037 24.5713 0.9337 25.3213 2.7737 25.3213ZM17.5437 25.3213H34.7137C36.9937 25.3213 38.0737 24.6413 38.0737 23.1313C38.0737 19.5513 33.5537 14.3713 26.1237 14.3713C18.7137 14.3713 14.1937 19.5513 14.1937 23.1313C14.1937 24.6413 15.2737 25.3213 17.5437 25.3213ZM16.8837 23.2513C16.5337 23.2513 16.3937 23.1613 16.3937 22.8713C16.3937 20.6213 19.8637 16.4313 26.1237 16.4313C32.4037 16.4313 35.8737 20.6213 35.8737 22.8713C35.8737 23.1613 35.7237 23.2513 35.3737 23.2513Z" /></svg>