<svg viewBox="0 0 48.521484375 22.44921875" xmlns="http://www.w3.org/2000/svg"><path d="M10.1337 11.2257C13.0037 11.2257 15.3837 8.6657 15.3837 5.5357C15.3837 2.4457 13.0337 -0.0043 10.1337 -0.0043C7.2437 -0.0043 4.8937 2.4857 4.8937 5.5557C4.8937 8.6857 7.2637 11.2257 10.1337 11.2257ZM38.4137 11.2957C41.2937 11.2957 43.6537 8.7357 43.6537 5.6057C43.6537 2.5157 41.3137 0.0657 38.4137 0.0657C35.5337 0.0657 33.1637 2.5557 33.1637 5.6157C33.1637 8.7457 35.5337 11.2957 38.4137 11.2957ZM10.1337 9.1557C8.4637 9.1557 7.0837 7.6057 7.0837 5.5557C7.0837 3.5657 8.4337 2.0657 10.1337 2.0657C11.8237 2.0657 13.1937 3.5457 13.1937 5.5357C13.1937 7.5757 11.8137 9.1557 10.1337 9.1557ZM38.4137 9.2257C36.7337 9.2257 35.3537 7.6657 35.3537 5.6157C35.3537 3.6357 36.7237 2.1357 38.4137 2.1357C40.1037 2.1357 41.4637 3.6057 41.4637 5.6057C41.4637 7.6457 40.1037 9.2257 38.4137 9.2257ZM19.7237 11.3457C20.3737 11.3457 20.9037 10.8157 20.9037 10.1757C20.9037 9.5257 20.3737 8.9957 19.7237 8.9957C19.0837 8.9957 18.5537 9.5257 18.5537 10.1757C18.5537 10.8157 19.0837 11.3457 19.7237 11.3457ZM24.2637 11.3457C24.9137 11.3457 25.4437 10.8157 25.4437 10.1757C25.4437 9.5257 24.9137 8.9957 24.2637 8.9957C23.6237 8.9957 23.0937 9.5257 23.0937 10.1757C23.0937 10.8157 23.6237 11.3457 24.2637 11.3457ZM28.7837 11.3457C29.4237 11.3457 29.9537 10.8157 29.9537 10.1757C29.9537 9.5257 29.4237 8.9957 28.7837 8.9957C28.1337 8.9957 27.6037 9.5257 27.6037 10.1757C27.6037 10.8157 28.1337 11.3457 28.7837 11.3457ZM3.0037 22.3857H17.2437C19.2237 22.3857 20.2437 21.7357 20.2437 20.3457C20.2437 17.1957 16.5937 12.6357 10.1137 12.6357C3.6537 12.6357 0.0037 17.1957 0.0037 20.3457C0.0037 21.7357 1.0137 22.3857 3.0037 22.3857ZM31.2937 22.4457H45.5137C47.5137 22.4457 48.5237 21.8057 48.5237 20.4157C48.5237 17.2657 44.8837 12.7057 38.4037 12.7057C31.9237 12.7057 28.2837 17.2657 28.2837 20.4157C28.2837 21.8057 29.3037 22.4457 31.2937 22.4457ZM2.4737 20.3157C2.2737 20.3157 2.1837 20.2357 2.1837 20.0657C2.1837 18.2657 4.7737 14.6957 10.1137 14.6957C15.4637 14.6957 18.0437 18.2657 18.0437 20.0657C18.0437 20.2357 17.9637 20.3157 17.7737 20.3157ZM30.7637 20.3857C30.5537 20.3857 30.4737 20.3057 30.4737 20.1357C30.4737 18.3357 33.0537 14.7657 38.4037 14.7657C43.7537 14.7657 46.3337 18.3357 46.3337 20.1357C46.3337 20.3057 46.2537 20.3857 46.0437 20.3857Z" /></svg>