<svg viewBox="0 0 33.38671875 24.58203125" xmlns="http://www.w3.org/2000/svg"><path d="M11.5137 11.9221C14.4337 11.9221 16.9837 9.2921 16.9837 5.8821C16.9837 2.5021 14.4337 0.0021 11.5137 0.0021C8.5837 0.0021 6.0437 2.5521 6.0437 5.9021C6.0437 9.2921 8.5737 11.9221 11.5137 11.9221ZM22.9437 11.7121C23.2537 11.7121 23.5337 11.5921 23.7337 11.3721L27.6037 7.4921L31.5037 11.3721C31.7037 11.5821 31.9637 11.7121 32.2837 11.7121C32.8937 11.7121 33.3737 11.2121 33.3737 10.6121C33.3737 10.2921 33.2637 10.0521 33.0437 9.8321L29.1637 5.9521L33.0537 2.0321C33.2937 1.8021 33.3837 1.5721 33.3837 1.2721C33.3837 0.6721 32.9037 0.1821 32.2937 0.1821C32.0037 0.1821 31.7737 0.2821 31.5437 0.5221L27.6037 4.4121L23.7037 0.5321C23.5037 0.3121 23.2537 0.2021 22.9437 0.2021C22.3437 0.2021 21.8437 0.6821 21.8437 1.2821C21.8437 1.5821 21.9737 1.8421 22.1737 2.0521L26.0537 5.9521L22.1737 9.8421C21.9737 10.0521 21.8437 10.3121 21.8437 10.6121C21.8437 11.2121 22.3437 11.7121 22.9437 11.7121ZM2.3337 24.5821H20.6737C22.1337 24.5821 23.0137 23.9021 23.0137 22.7621C23.0137 19.2321 18.5937 14.3721 11.4937 14.3721C4.4137 14.3721 0.0037 19.2321 0.0037 22.7621C0.0037 23.9021 0.8737 24.5821 2.3337 24.5821Z" /></svg>