<svg viewBox="0 0 35.91259765625 24.58203125" xmlns="http://www.w3.org/2000/svg"><path d="M17.9609 11.9221C20.9009 11.9221 23.4309 9.2921 23.4309 5.8821C23.4309 2.5021 20.8909 0.0021 17.9609 0.0021C15.0509 0.0021 12.5009 2.5521 12.5009 5.9021C12.5009 9.2921 15.0409 11.9221 17.9609 11.9221ZM25.6109 5.9021C25.6109 6.5121 26.0709 6.9721 26.6709 6.9721H30.2009V8.6521C30.2009 9.6021 31.1209 9.9421 31.8709 9.3621L35.5309 6.6421C36.0409 6.2721 36.0409 5.5821 35.5309 5.1921L31.8709 2.4621C31.1409 1.9121 30.2009 2.2021 30.2009 3.1821V4.8421H26.6709C26.0709 4.8421 25.6109 5.3221 25.6109 5.9021ZM0.3709 6.6421L4.0309 9.3621C4.8009 9.9421 5.7009 9.6021 5.7009 8.6521V6.9721H9.2309C9.8309 6.9721 10.3109 6.5121 10.3109 5.9021C10.3109 5.3221 9.8309 4.8421 9.2309 4.8421H5.7009V3.1821C5.7009 2.2021 4.7709 1.9121 4.0309 2.4621L0.3709 5.1921C-0.1191 5.5821 -0.1191 6.2721 0.3709 6.6421ZM8.7909 24.5821H27.1209C28.5909 24.5821 29.4609 23.9021 29.4609 22.7621C29.4609 19.2321 25.0509 14.3721 17.9609 14.3721C10.8709 14.3721 6.4509 19.2321 6.4509 22.7621C6.4509 23.9021 7.3309 24.5821 8.7909 24.5821Z" /></svg>