<svg viewBox="0 0 32.23828125 25.169921875" xmlns="http://www.w3.org/2000/svg"><path d="M4.2937 25.1692H27.9437C30.8137 25.1692 32.2337 23.7592 32.2337 20.9492V4.2392C32.2337 1.4192 30.8137 -0.0008 27.9437 -0.0008H4.2937C1.4337 -0.0008 0.0037 1.4192 0.0037 4.2392V20.9492C0.0037 23.7592 1.4337 25.1692 4.2937 25.1692ZM16.1337 14.8592C13.5237 14.8292 11.4737 12.6692 11.4537 9.7492C11.4437 6.9992 13.5237 4.7292 16.1337 4.7292C18.7437 4.7292 20.8037 6.9992 20.8037 9.7492C20.8037 12.6692 18.7437 14.8892 16.1337 14.8592ZM6.9137 23.1192C7.9537 19.6492 11.6437 17.1592 16.1337 17.1592C20.6037 17.1592 24.2937 19.6492 25.3437 23.1192Z" /></svg>