<svg viewBox="0 0 39.279296875 22.2578125" xmlns="http://www.w3.org/2000/svg"><path d="M7.9427 15.9016H9.0527C8.9727 15.1916 8.9027 14.4116 8.9927 13.7016H8.0927C4.7327 13.7016 2.3427 11.3316 2.3427 7.9416C2.3427 4.5816 4.7427 2.2016 8.0927 2.2016H20.2227C23.5727 2.2016 25.9727 4.5816 25.9727 7.9416C25.9727 11.3316 23.5727 13.7016 20.2227 13.7016H15.4227C15.2327 14.2316 15.3027 15.2716 15.7227 15.9016H20.3727C25.0027 15.9016 28.3127 12.6416 28.3127 7.9416C28.3127 3.2516 25.0027 0.0016 20.3727 0.0016H7.9427C3.3127 0.0016 0.0027 3.2516 0.0027 7.9416C0.0027 12.6416 3.3127 15.9016 7.9427 15.9016ZM18.9127 22.2616H31.3327C35.9727 22.2616 39.2827 19.0016 39.2827 14.3016C39.2827 9.6116 35.9727 6.3616 31.3327 6.3616H30.2127C30.2927 7.0516 30.3627 7.8516 30.2827 8.5616H31.1727C34.5327 8.5616 36.9427 10.9216 36.9427 14.3016C36.9427 17.6816 34.5327 20.0516 31.1727 20.0516H19.0627C15.7127 20.0516 13.3027 17.6816 13.3027 14.3016C13.3027 10.9216 15.6927 8.5616 19.0627 8.5616H23.8527C24.0527 8.0216 23.9827 6.9816 23.5427 6.3616H18.9127C14.2627 6.3616 10.9627 9.6116 10.9627 14.3016C10.9627 19.0016 14.2627 22.2616 18.9127 22.2616Z" /></svg>