<svg viewBox="0 0 23.98046875 31.732421875" xmlns="http://www.w3.org/2000/svg"><path d="M5.3637 1.7668H18.6237C18.5437 0.5968 17.8737 -0.0032 16.6137 -0.0032H7.3537C6.0937 -0.0032 5.4437 0.5968 5.3637 1.7668ZM2.9837 5.5468H20.9837C20.7837 4.3068 20.1937 3.6268 18.8237 3.6268H5.1437C3.7737 3.6268 3.1837 4.3068 2.9837 5.5468ZM4.2937 31.7368H20.0937C22.5437 31.7368 23.9837 30.3068 23.9837 27.4968V11.9868C23.9837 9.1768 22.5337 7.7568 19.6837 7.7568H4.2937C1.4337 7.7568 0.0037 9.1568 0.0037 11.9868V27.4968C0.0037 30.3068 1.4337 31.7368 4.2937 31.7368ZM7.6137 23.4368C4.8237 23.4368 2.8337 25.1168 2.2037 26.9468V12.0968C2.2037 10.6868 2.9537 9.9568 4.3237 9.9568H19.6437C21.0037 9.9568 21.7837 10.6868 21.7837 12.0968V26.0068C20.7437 24.5968 18.8637 23.4568 16.3537 23.4568C12.4137 23.4568 9.9537 26.2868 9.9537 28.5068C9.9537 28.9568 10.0537 29.2968 10.2137 29.5268H8.4937C8.4037 29.2068 8.3637 28.8568 8.3637 28.5068C8.3637 26.8468 9.1637 25.3068 10.4437 24.1268C9.6937 23.6668 8.7537 23.4368 7.6137 23.4368ZM16.3537 21.8068C17.9737 21.8068 19.3737 20.3468 19.3737 18.4568C19.3737 16.5868 17.9737 15.2068 16.3537 15.2068C14.7237 15.2068 13.3037 16.6268 13.3137 18.4868C13.3137 20.3468 14.7237 21.8068 16.3537 21.8068ZM7.6137 21.9968C9.0337 21.9968 10.2537 20.7268 10.2537 19.0568C10.2537 17.4268 9.0237 16.2268 7.6137 16.2268C6.1937 16.2268 4.9637 17.4568 4.9637 19.0768C4.9737 20.7268 6.1937 21.9968 7.6137 21.9968Z" /></svg>