<svg viewBox="0 0 22.99609375 29.3125" xmlns="http://www.w3.org/2000/svg"><path d="M0.0037 28.2373C0.0037 28.8873 0.4337 29.3173 1.0937 29.3173H21.9037C22.5537 29.3173 22.9937 28.8873 22.9937 28.2373V1.0973C22.9937 0.4373 22.5537 -0.0027 21.9037 -0.0027H1.0937C0.4337 -0.0027 0.0037 0.4373 0.0037 1.0973ZM2.2037 26.7173V2.6073C2.2037 2.3073 2.3137 2.1973 2.5937 2.1973H20.3937C20.6837 2.1973 20.7937 2.3073 20.7937 2.6073V26.7173C20.7937 27.0173 20.6837 27.1073 20.3937 27.1073H2.5937C2.3137 27.1073 2.2037 27.0173 2.2037 26.7173ZM3.6737 24.8373C3.6737 25.3473 3.9637 25.6473 4.4737 25.6473H18.5237C19.0337 25.6473 19.3137 25.3473 19.3137 24.8373V4.4873C19.3137 3.9773 19.0337 3.6773 18.5237 3.6773H4.4737C3.9637 3.6773 3.6737 3.9773 3.6737 4.4873ZM11.4837 18.4273C8.2537 18.4273 6.1437 20.1273 5.0537 21.7373V5.3773C5.0537 5.1673 5.1537 5.0573 5.3637 5.0573H17.6337C17.8437 5.0573 17.9337 5.1673 17.9337 5.3773V21.7773C16.8537 20.1473 14.7337 18.4273 11.4837 18.4273ZM11.4837 17.2673C13.5037 17.2773 15.1237 15.5673 15.1237 13.3073C15.1237 11.1673 13.5037 9.4073 11.4837 9.4073C9.4737 9.4073 7.8437 11.1673 7.8437 13.3073C7.8437 15.5673 9.4737 17.2573 11.4837 17.2673Z" /></svg>