<svg viewBox="0 0 24.048828125 29.380859375" xmlns="http://www.w3.org/2000/svg"><path d="M12.0137 10.0057C14.5837 10.0357 16.6237 7.8357 16.6237 4.9457C16.6237 2.2557 14.5837 -0.0043 12.0137 -0.0043C9.4737 -0.0043 7.4137 2.2557 7.4137 4.9457C7.4137 7.8357 9.4637 9.9957 12.0137 10.0057ZM3.9337 19.9057H20.1137C20.9437 19.9057 21.3937 19.3557 21.3937 18.6257C21.3937 16.4657 18.2637 11.6457 12.0137 11.6457C5.7537 11.6457 2.6437 16.4657 2.6437 18.6257C2.6437 19.3557 3.1037 19.9057 3.9337 19.9057ZM1.0937 29.3857H22.9537C23.5537 29.3857 24.0537 28.8857 24.0537 28.2857C24.0537 27.6857 23.5537 27.1757 22.9537 27.1757H22.1037V23.9957C22.1037 22.5557 21.4337 21.7757 19.8937 21.7757H4.1537C2.6237 21.7757 1.9437 22.5557 1.9437 23.9957V27.1757H1.0937C0.4937 27.1757 0.0037 27.6857 0.0037 28.2857C0.0037 28.8857 0.4937 29.3857 1.0937 29.3857ZM9.3337 26.4157C8.8737 26.4157 8.5437 26.0557 8.5437 25.5957C8.5437 25.1457 8.8737 24.8057 9.3337 24.8057H14.7337C15.1937 24.8057 15.5337 25.1457 15.5337 25.5957C15.5337 26.0557 15.1937 26.4157 14.7337 26.4157Z" /></svg>