<svg viewBox="0 0 28.095703125 29.72265625" xmlns="http://www.w3.org/2000/svg"><path d="M5.4237 1.7624H22.6837C22.6037 0.6024 21.9437 0.0024 20.6737 0.0024H7.4237C6.1637 0.0024 5.5137 0.6024 5.4237 1.7624ZM2.6137 5.5524H25.4937C25.2937 4.3024 24.7037 3.6224 23.3337 3.6224H4.7737C3.4037 3.6224 2.8137 4.3024 2.6137 5.5524ZM4.1537 29.7224H23.9437C26.6837 29.7224 28.0937 28.3324 28.0937 25.6124V11.8524C28.0937 9.1324 26.6837 7.7524 23.9437 7.7524H4.1537C1.3837 7.7524 0.0037 9.1324 0.0037 11.8524V25.6124C0.0037 28.3324 1.3837 29.7224 4.1537 29.7224ZM14.0437 20.7024C11.7737 20.6724 9.9837 18.7824 9.9637 16.2424C9.9537 13.8224 11.7737 11.8524 14.0437 11.8524C16.3237 11.8524 18.1337 13.8224 18.1337 16.2424C18.1337 18.7824 16.3237 20.7224 14.0437 20.7024ZM6.1437 27.4924C7.2237 24.6924 10.3037 22.6924 14.0437 22.6924C17.7837 22.6924 20.8737 24.6924 21.9537 27.4924Z" /></svg>