<svg viewBox="0 0 32.935546875 27.33018496744969" xmlns="http://www.w3.org/2000/svg"><path d="M16.4627 5.864C18.9327 5.864 21.2027 6.724 23.0227 8.134C23.2927 8.354 23.6527 8.324 23.9127 8.064L27.0827 4.894C27.4027 4.584 27.3827 4.124 27.0527 3.854C24.2027 1.454 20.4927 0.004 16.4627 0.004C12.4427 0.004 8.7327 1.454 5.8827 3.854C5.5527 4.124 5.5327 4.584 5.8527 4.894L9.0227 8.064C9.2827 8.324 9.6527 8.354 9.9527 8.124C11.7627 6.724 14.0127 5.864 16.4627 5.864ZM0.0027 16.464C0.0027 20.494 1.4527 24.204 3.8727 27.074C4.1427 27.414 4.6027 27.414 4.9127 27.094L8.1627 23.844C8.3627 23.624 8.3927 23.324 8.2027 23.094C6.7127 21.194 5.8627 18.924 5.8627 16.464C5.8627 14.014 6.7027 11.744 8.1227 9.944C8.3427 9.654 8.3427 9.284 8.0827 9.024L4.9127 5.854C4.5927 5.534 4.1427 5.534 3.8727 5.864C1.4527 8.734 0.0027 12.444 0.0027 16.464ZM32.9327 16.464C32.9327 12.444 31.4827 8.734 29.0627 5.864C28.7927 5.534 28.3327 5.534 28.0227 5.854L24.8527 9.024C24.5927 9.284 24.5827 9.654 24.8127 9.944C26.2227 11.744 27.0727 14.014 27.0727 16.464C27.0727 18.924 26.2227 21.194 24.7327 23.094C24.5427 23.324 24.5527 23.624 24.7627 23.844L28.0127 27.094C28.3327 27.414 28.7827 27.414 29.0627 27.074C31.4827 24.204 32.9327 20.494 32.9327 16.464ZM13.2927 21.784C15.5727 21.784 16.6527 20.374 16.6527 18.584C16.6527 16.724 15.5127 16.014 14.0527 15.464L13.2727 15.164C12.3027 14.794 11.6327 14.344 11.6327 13.294C11.6327 12.364 12.1827 11.664 13.2327 11.664C14.1327 11.664 14.7627 12.184 15.0127 13.184C15.1027 13.564 15.3627 13.724 15.7327 13.724C16.1327 13.724 16.3927 13.454 16.3927 13.044C16.3927 12.934 16.3827 12.794 16.3527 12.664C16.0127 11.224 14.8027 10.334 13.2527 10.334C11.2127 10.334 10.0927 11.734 10.0927 13.394C10.0927 15.044 11.0727 15.954 12.6227 16.514L13.4127 16.794C14.4127 17.144 15.1027 17.674 15.1027 18.734C15.1027 19.684 14.4827 20.454 13.3327 20.454C12.2927 20.454 11.6327 19.894 11.3927 18.864C11.2927 18.484 11.0427 18.304 10.6827 18.304C10.2627 18.304 9.9927 18.624 9.9927 19.044C9.9927 19.204 10.0227 19.414 10.0627 19.564C10.5127 20.984 11.6727 21.784 13.2927 21.784ZM17.6927 24.354C18.1127 24.354 18.3227 24.114 18.4027 23.664L20.5127 11.434C20.5227 11.344 20.5527 11.184 20.5527 11.004C20.5527 10.624 20.2927 10.354 19.8927 10.354C19.4827 10.354 19.2627 10.584 19.1927 11.034L17.0927 23.274C17.0727 23.354 17.0327 23.514 17.0327 23.694C17.0327 24.074 17.2927 24.354 17.6927 24.354ZM22.3527 21.654C22.9127 21.654 23.3427 21.244 23.3427 20.704C23.3427 20.164 22.9127 19.744 22.3527 19.744C21.8227 19.744 21.4127 20.164 21.4127 20.704C21.4127 21.244 21.8227 21.654 22.3527 21.654Z" /></svg>