<svg viewBox="0 0 30.529296875 29.17578125" xmlns="http://www.w3.org/2000/svg"><path d="M1.8137 25.919H28.7137V25.009C28.7137 24.459 28.3937 24.129 27.8337 24.129H26.9637V9.379H28.1637C28.9137 9.379 29.3537 8.829 29.3537 8.269C29.3537 7.859 29.1237 7.509 28.6137 7.219L16.9437 0.479C16.3937 0.169 15.8137 -0.001 15.2537 -0.001C14.6937 -0.001 14.1137 0.169 13.5937 0.479L1.9137 7.219C1.3937 7.509 1.1737 7.859 1.1737 8.269C1.1737 8.829 1.6137 9.379 2.3637 9.379H3.5637V24.129H2.7037C2.1437 24.129 1.8137 24.459 1.8137 25.009ZM5.6337 24.129V7.629L14.7237 2.529C14.8937 2.429 15.0837 2.379 15.2537 2.379C15.4337 2.379 15.6237 2.429 15.8037 2.529L24.8937 7.629V24.129ZM12.1137 19.519C14.3937 19.519 15.4637 18.119 15.4637 16.329C15.4637 14.469 14.3437 13.749 12.8837 13.189L12.1037 12.909C11.1137 12.539 10.4437 12.089 10.4437 11.029C10.4437 10.099 11.0037 9.409 12.0437 9.409C12.9637 9.409 13.5937 9.929 13.8337 10.919C13.9337 11.309 14.1937 11.469 14.5637 11.469C14.9537 11.469 15.2137 11.199 15.2137 10.789C15.2137 10.679 15.2037 10.539 15.1637 10.409C14.8237 8.969 13.6337 8.079 12.0537 8.079C10.0237 8.079 8.9137 9.479 8.9137 11.139C8.9137 12.779 9.8837 13.699 11.4437 14.259L12.2237 14.529C13.2237 14.889 13.9337 15.419 13.9337 16.479C13.9337 17.429 13.3037 18.199 12.1437 18.199C11.1137 18.199 10.4437 17.639 10.2137 16.609C10.1037 16.229 9.8737 16.049 9.4837 16.049C9.0937 16.049 8.8037 16.369 8.8037 16.789C8.8037 16.949 8.8337 17.159 8.8837 17.309C9.3337 18.729 10.5037 19.519 12.1137 19.519ZM16.5137 22.089C16.9237 22.089 17.1437 21.859 17.2137 21.409L19.3137 9.169C19.3437 9.089 19.3737 8.929 19.3737 8.749C19.3737 8.369 19.1137 8.089 18.7137 8.089C18.2937 8.089 18.0837 8.329 18.0037 8.779L15.9037 21.009C15.8837 21.099 15.8637 21.259 15.8637 21.439C15.8637 21.819 16.1237 22.089 16.5137 22.089ZM21.1737 19.399C21.7337 19.399 22.1637 18.989 22.1637 18.439C22.1637 17.909 21.7337 17.489 21.1737 17.489C20.6437 17.489 20.2337 17.909 20.2337 18.439C20.2337 18.989 20.6437 19.399 21.1737 19.399ZM1.0937 29.179H29.4237C30.0237 29.179 30.5337 28.669 30.5337 28.069C30.5337 27.469 30.0237 26.979 29.4237 26.979H1.0937C0.4937 26.979 0.0037 27.469 0.0037 28.069C0.0037 28.669 0.4937 29.179 1.0937 29.179Z" /></svg>