<svg viewBox="0 0 30.544813437289534 27.890625" xmlns="http://www.w3.org/2000/svg"><path d="M0.9769 11.3064C-0.0131 11.3064 -0.2531 11.9764 0.2769 12.7464L3.3369 17.0864C3.7869 17.7164 4.4469 17.7064 4.8869 17.0864L7.9269 12.7264C8.4669 11.9764 8.2069 11.3064 7.2469 11.3064H5.2769C6.4669 6.1564 11.0769 2.3264 16.5969 2.3264C23.0269 2.3264 28.2169 7.5164 28.2169 13.9464C28.2169 20.3664 23.0269 25.5664 16.5969 25.5664C12.7169 25.5664 9.2569 23.6564 7.1969 20.7564C6.7669 20.1964 6.1269 20.0164 5.5569 20.3564C5.0069 20.6964 4.8369 21.4664 5.3069 22.0664C7.8369 25.6064 11.9769 27.8864 16.5969 27.8864C24.2969 27.8864 30.5469 21.6464 30.5469 13.9464C30.5469 6.2464 24.2969 -0.0036 16.5969 -0.0036C9.8069 -0.0036 4.1269 4.8664 2.8969 11.3064ZM13.4369 19.0764C15.7269 19.0764 16.7869 17.6664 16.7869 15.8864C16.7869 14.0164 15.6669 13.3164 14.2069 12.7564L13.4269 12.4564C12.4469 12.0864 11.7769 11.6464 11.7769 10.5964C11.7769 9.6664 12.3369 8.9564 13.3769 8.9564C14.2869 8.9564 14.9169 9.4864 15.1669 10.4864C15.2569 10.8664 15.5169 11.0364 15.8869 11.0364C16.2869 11.0364 16.5469 10.7464 16.5469 10.3464C16.5469 10.2364 16.5269 10.0864 16.4869 9.9664C16.1469 8.5264 14.9569 7.6464 13.3969 7.6464C11.3469 7.6464 10.2469 9.0264 10.2469 10.6864C10.2469 12.3464 11.2169 13.2464 12.7669 13.8064L13.5469 14.0964C14.5469 14.4464 15.2569 14.9664 15.2569 16.0364C15.2569 16.9964 14.6269 17.7564 13.4669 17.7564C12.4469 17.7564 11.7769 17.1964 11.5369 16.1764C11.4269 15.7864 11.1969 15.6164 10.8169 15.6164C10.4169 15.6164 10.1369 15.9164 10.1369 16.3364C10.1369 16.5164 10.1769 16.7164 10.2169 16.8564C10.6669 18.2964 11.8269 19.0764 13.4369 19.0764ZM17.8469 21.6564C18.2569 21.6564 18.4769 21.4264 18.5369 20.9764L20.6469 8.7364C20.6769 8.6364 20.6969 8.4864 20.6969 8.2964C20.6969 7.9164 20.4369 7.6464 20.0469 7.6464C19.6169 7.6464 19.4169 7.8864 19.3369 8.3364L17.2269 20.5664C17.2169 20.6564 17.1869 20.8064 17.1869 20.9964C17.1869 21.3864 17.4469 21.6564 17.8469 21.6564ZM22.5069 18.9464C23.0669 18.9464 23.4869 18.5364 23.4869 18.0064C23.4869 17.4764 23.0669 17.0464 22.5069 17.0464C21.9769 17.0464 21.5669 17.4764 21.5669 18.0064C21.5669 18.5364 21.9769 18.9464 22.5069 18.9464Z" /></svg>