<svg viewBox="0 0 25.169921875 25.169921875" xmlns="http://www.w3.org/2000/svg"><path d="M4.2937 25.1692H20.8737C23.7437 25.1692 25.1737 23.7592 25.1737 20.9492V4.2392C25.1737 1.4192 23.7437 -0.0008 20.8737 -0.0008H4.2937C1.4337 -0.0008 0.0037 1.4192 0.0037 4.2392V20.9492C0.0037 23.7592 1.4337 25.1692 4.2937 25.1692ZM9.7937 19.0492C9.2737 19.0492 8.9737 18.7292 8.9737 18.1992V12.0692H8.0237C7.7537 12.0692 7.5337 11.8792 7.5337 11.6092C7.5337 11.3492 7.7537 11.1392 8.0237 11.1392H8.9737V9.8392H8.0237C7.7537 9.8392 7.5337 9.6392 7.5337 9.3692C7.5337 9.1092 7.7537 8.8992 8.0237 8.8992H8.9737V7.0592C8.9737 6.5192 9.2737 6.1892 9.7937 6.1892H13.2237C15.2137 6.1892 16.5837 7.3292 17.1337 8.8992H18.0237C18.2937 8.8992 18.5137 9.1092 18.5137 9.3692C18.5137 9.6292 18.2937 9.8392 18.0237 9.8392H17.3337C17.3637 10.0392 17.3737 10.2492 17.3737 10.4592C17.3737 10.7092 17.3637 10.9192 17.3337 11.1392H18.0237C18.2937 11.1392 18.5137 11.3492 18.5137 11.6092C18.5137 11.8492 18.2937 12.0692 18.0237 12.0692H17.1137C16.5537 13.6692 15.1437 14.7692 13.1937 14.7692H10.6237V18.1992C10.6237 18.7292 10.2937 19.0492 9.7937 19.0492ZM10.6237 8.8992H15.3437C14.8937 8.0392 14.0037 7.5692 12.8237 7.5692H10.6237ZM10.6237 11.1392H15.6437C15.6837 10.9192 15.6937 10.7092 15.6937 10.4592C15.6937 10.2392 15.6837 10.0392 15.6437 9.8392H10.6237ZM10.6237 13.3992H12.8237C14.0037 13.3992 14.8737 12.9192 15.3237 12.0692H10.6237Z" /></svg>