<svg viewBox="0 0 32.306640625 11.701134273661683" xmlns="http://www.w3.org/2000/svg"><path d="M16.1427 -0.0037C10.8327 -0.0037 4.7727 0.9563 1.8227 4.0063C0.6827 5.1563 0.0027 6.5863 0.0027 8.4063C0.0027 9.6563 0.3927 11.4963 1.8427 11.6363C2.2427 11.7463 2.6227 11.7063 3.1127 11.6163L7.1527 10.9463C8.5427 10.7163 9.2027 10.1963 9.5727 8.8563L10.2427 6.4563C10.3727 5.9563 10.5127 5.7963 11.1027 5.5763C12.1927 5.1863 14.0027 4.9663 16.1427 4.9663C18.3027 4.9663 20.1127 5.1863 21.2027 5.5763C21.7927 5.7963 21.9327 5.9563 22.0527 6.4563L22.7327 8.8563C23.1027 10.1963 23.7627 10.7163 25.1527 10.9463L29.1927 11.6163C29.6727 11.7063 30.0527 11.7463 30.4427 11.6363C31.9127 11.4963 32.3027 9.6563 32.3027 8.4063C32.3027 6.5863 31.6227 5.1563 30.4927 4.0063C27.5327 0.9563 21.4827 -0.0037 16.1427 -0.0037Z" /></svg>