<svg viewBox="0 0 25.935546875 25.51171875" xmlns="http://www.w3.org/2000/svg"><path d="M6.9955 18.417C11.0155 22.447 15.8355 25.507 19.7055 25.507C21.5155 25.507 23.1055 24.787 24.1455 23.627C25.1455 22.507 25.4855 21.667 25.4855 20.927C25.4855 20.357 25.1255 19.827 24.2255 19.197L20.8955 16.807C20.0555 16.217 19.6855 16.107 19.1955 16.107C18.7755 16.107 18.4155 16.187 17.7055 16.567L15.5155 17.777C15.2555 17.927 15.1455 17.947 14.9555 17.947C14.6955 17.947 14.5155 17.887 14.2555 17.777C13.2255 17.297 11.7555 16.147 10.4555 14.847C9.1555 13.547 8.1455 12.227 7.6255 11.197C7.5655 11.057 7.4755 10.837 7.4755 10.627C7.4755 10.447 7.5755 10.297 7.6855 10.107L8.9655 7.907C9.3255 7.297 9.4155 6.977 9.4155 6.507C9.4155 5.977 9.2455 5.397 8.7355 4.677L6.4355 1.477C5.7855 0.557 5.2955 -0.003 4.5555 -0.003C3.6355 -0.003 2.5255 0.697 1.7355 1.467C0.6055 2.557 -0.0045 4.087 -0.0045 5.807C-0.0045 9.707 2.9955 14.427 6.9955 18.417ZM15.5055 11.727C15.7955 11.727 16.0055 11.637 16.2155 11.427L22.1055 5.527L24.1955 3.257L23.9855 7.257V9.297C23.9855 9.827 24.3755 10.257 24.9055 10.277C25.4555 10.307 25.9355 9.857 25.9355 9.297V1.377C25.9355 0.667 25.5755 0.297 24.8555 0.297H16.9155C16.3555 0.297 15.8955 0.747 15.9255 1.317C15.9555 1.847 16.3755 2.247 16.9155 2.247H18.9755L22.9955 2.027L20.6955 4.127L14.8155 10.017C14.5855 10.257 14.4955 10.487 14.4955 10.787C14.4955 11.317 14.9255 11.727 15.5055 11.727Z" /></svg>