<svg viewBox="0 0 32.23828125 25.169921875" xmlns="http://www.w3.org/2000/svg"><path d="M1.0937 -0.0008C0.4337 -0.0008 0.0037 0.4392 0.0037 1.0892V24.0892C0.0037 24.7492 0.4337 25.1692 1.0937 25.1692H31.1537C31.8137 25.1692 32.2337 24.7492 32.2337 24.0892V1.0892C32.2337 0.4392 31.8137 -0.0008 31.1537 -0.0008ZM2.5937 2.1992H29.6437C29.9437 2.1992 30.0337 2.3092 30.0337 2.5992V22.5692C30.0337 22.8692 29.9437 22.9692 29.6437 22.9692H2.5937C2.3137 22.9692 2.2037 22.8692 2.2037 22.5692V2.5992C2.2037 2.3092 2.3137 2.1992 2.5937 2.1992ZM4.4837 3.6792C3.9637 3.6792 3.6737 3.9692 3.6737 4.4692V20.7092C3.6737 21.2092 3.9637 21.5092 4.4837 21.5092H27.7637C28.2737 21.5092 28.5737 21.2092 28.5737 20.7092V4.4692C28.5737 3.9692 28.2737 3.6792 27.7637 3.6792ZM5.3637 5.0592H26.8837C27.0837 5.0592 27.1937 5.1692 27.1937 5.3692V17.9692L21.2237 12.3892C20.7437 11.9392 20.1937 11.7292 19.6237 11.7292C19.0137 11.7292 18.4837 11.9092 18.0037 12.3592L13.1837 16.6792L11.2137 14.8892C10.7737 14.4792 10.2637 14.2892 9.7637 14.2892C9.2937 14.2892 8.8437 14.4792 8.3937 14.8792L5.0537 17.8992V5.3692C5.0537 5.1692 5.1537 5.0592 5.3637 5.0592ZM11.4437 12.4792C12.8237 12.4792 13.9637 11.3492 13.9637 9.9692C13.9637 8.5892 12.8237 7.4492 11.4437 7.4492C10.0637 7.4492 8.9237 8.5892 8.9237 9.9692C8.9237 11.3492 10.0637 12.4792 11.4437 12.4792Z" /></svg>