<svg viewBox="0 0 32.23828125 25.169921875" xmlns="http://www.w3.org/2000/svg"><path d="M4.2937 25.1692H27.9437C30.8137 25.1692 32.2337 23.7592 32.2337 20.9492V4.2392C32.2337 1.4192 30.8137 -0.0008 27.9437 -0.0008H4.2937C1.4337 -0.0008 0.0037 1.4192 0.0037 4.2392V20.9492C0.0037 23.7592 1.4337 25.1692 4.2937 25.1692ZM10.2537 12.9292C8.3937 12.9292 6.8737 11.4192 6.8737 9.5592C6.8737 7.7092 8.3937 6.1792 10.2537 6.1792C12.1037 6.1792 13.6137 7.7092 13.6137 9.5592C13.6137 11.4192 12.1037 12.9292 10.2537 12.9292ZM4.3237 22.9792C2.9937 22.9792 2.2037 22.1892 2.2037 20.8492V20.0192L6.3937 16.3492C7.0037 15.8192 7.6537 15.5492 8.2537 15.5492C8.9237 15.5492 9.6237 15.8192 10.2237 16.3792L12.8337 18.7292L19.3737 12.9292C20.0437 12.3292 20.7937 12.0592 21.5737 12.0592C22.3237 12.0592 23.1037 12.3492 23.7437 12.9492L30.0337 18.7692V20.8792C30.0337 22.1892 29.2337 22.9792 27.9337 22.9792Z" /></svg>