<svg viewBox="0 0 27.890625 27.890625" xmlns="http://www.w3.org/2000/svg"><path d="M13.9427 27.8864C21.6427 27.8864 27.8927 21.6464 27.8927 13.9464C27.8927 6.2464 21.6427 -0.0036 13.9427 -0.0036C6.2527 -0.0036 0.0027 6.2464 0.0027 13.9464C0.0027 21.6464 6.2527 27.8864 13.9427 27.8864ZM13.9427 25.5664C7.5227 25.5664 2.3227 20.3664 2.3227 13.9464C2.3227 7.5164 7.5227 2.3264 13.9427 2.3264C20.3727 2.3264 25.5627 7.5164 25.5627 13.9464C25.5627 20.3664 20.3727 25.5664 13.9427 25.5664ZM6.4127 7.5164C6.0427 7.5164 5.7927 7.7964 5.7927 8.1664V19.7564C5.7927 20.1264 6.0427 20.3864 6.4127 20.3864H21.4527C21.8327 20.3864 22.0827 20.1264 22.0827 19.7564V8.1664C22.0827 7.7964 21.8327 7.5164 21.4527 7.5164ZM6.9027 19.1164V8.7864C6.9027 8.6864 6.9327 8.6664 7.0427 8.6664H20.8227C20.9427 8.6664 20.9627 8.6864 20.9627 8.7864V19.1164C20.9627 19.2364 20.9427 19.2464 20.8227 19.2464H7.0427C6.9327 19.2464 6.9027 19.2364 6.9027 19.1164ZM7.7227 17.9364C7.7227 18.2564 7.9127 18.4464 8.2127 18.4464H19.6427C19.9627 18.4464 20.1427 18.2564 20.1427 17.9364V9.9664C20.1427 9.6664 19.9627 9.4764 19.6427 9.4764H8.2127C7.9127 9.4764 7.7227 9.6664 7.7227 9.9664ZM8.6027 16.3564V10.4064C8.6027 10.3464 8.6127 10.3464 8.6427 10.3464H19.2227C19.2727 10.3464 19.2627 10.3464 19.2627 10.4064V16.3664L16.5027 13.7764C16.2527 13.5664 15.9527 13.4364 15.6527 13.4364C15.3227 13.4364 15.0527 13.5364 14.7927 13.7564L12.4927 15.8364L11.5827 15.0164C11.3627 14.8064 11.0727 14.6864 10.8127 14.6864C10.5427 14.6864 10.3127 14.8064 10.0727 14.9964ZM10.2927 12.6764C10.2927 13.3964 10.8927 13.9964 11.6327 13.9964C12.3727 13.9964 12.9727 13.3964 12.9727 12.6764C12.9727 11.9264 12.3727 11.3364 11.6327 11.3364C10.8927 11.3364 10.2927 11.9264 10.2927 12.6764Z" /></svg>