<svg viewBox="0 0 32.23828125 25.18359375" xmlns="http://www.w3.org/2000/svg"><path d="M4.2937 25.1692C1.4337 25.1692 0.0037 23.7592 0.0037 20.9492V4.2392C0.0037 1.4192 1.4337 -0.0008 4.2937 -0.0008H27.9437C30.8137 -0.0008 32.2337 1.4192 32.2337 4.2392V20.9492C32.2337 23.7592 30.8137 25.1692 27.9437 25.1692H24.5537V14.7092H24.9137C25.5637 14.7092 26.1837 14.3292 26.1837 13.3292V0.0092H21.6437V13.3292C21.6437 14.3292 22.2537 14.7092 22.9137 14.7092H23.2837V25.1692H24.5537V25.1792H23.2837V25.1692H16.7637V14.7092H17.1137C17.7737 14.7092 18.3937 14.3292 18.3937 13.3292V0.0092H13.8537V13.3292C13.8537 14.3292 14.4737 14.7092 15.1237 14.7092H15.4937V25.1692H16.7637V25.1792H15.4937V25.1692H8.9737V14.7092H9.3237C9.9837 14.7092 10.5937 14.3292 10.5937 13.3292V0.0092H6.0537V13.3292C6.0537 14.3292 6.6837 14.7092 7.3437 14.7092H7.6937V25.1692H8.9737V25.1792H7.6937V25.1692Z" /></svg>