<svg viewBox="0 0 27.890625 27.890625" xmlns="http://www.w3.org/2000/svg"><path d="M13.9427 27.8864C21.6427 27.8864 27.8927 21.6464 27.8927 13.9464C27.8927 6.2464 21.6427 -0.0036 13.9427 -0.0036C6.2527 -0.0036 0.0027 6.2464 0.0027 13.9464C0.0027 21.6464 6.2527 27.8864 13.9427 27.8864ZM13.9427 25.5664C7.5227 25.5664 2.3227 20.3664 2.3227 13.9464C2.3227 7.5164 7.5227 2.3264 13.9427 2.3264C20.3727 2.3264 25.5627 7.5164 25.5627 13.9464C25.5627 20.3664 20.3727 25.5664 13.9427 25.5664ZM13.7427 14.0364L15.9827 11.8264C17.3227 10.5164 17.3327 8.7764 16.0527 7.5364C14.7627 6.2464 13.0527 6.2764 11.7427 7.6064L9.5327 9.8164ZM12.9627 14.8364L8.7327 10.6064L6.5127 12.8564C5.1927 14.1864 5.1527 15.8964 6.4127 17.1764C7.6927 18.4264 9.4027 18.3864 10.7227 17.0764ZM21.9027 16.6364C21.6527 14.8464 20.0927 13.4564 18.1927 13.4564C16.3227 13.4564 14.7627 14.8464 14.5027 16.6364ZM21.9027 17.7464H14.5027C14.7627 19.5264 16.3227 20.9164 18.1927 20.9164C20.1127 20.9164 21.6527 19.5264 21.9027 17.7464Z" /></svg>