<svg viewBox="0 0 21.232421875 31.869140625" xmlns="http://www.w3.org/2000/svg"><path d="M0.0023 19.725C0.0023 20.895 0.7823 21.655 2.0123 21.655H9.4023V28.045C9.4023 30.135 10.2823 31.865 10.6223 31.865C10.9523 31.865 11.8223 30.135 11.8223 28.045V21.655H19.2223C20.4523 21.655 21.2323 20.895 21.2323 19.725C21.2323 16.845 18.9223 13.795 15.0823 12.405L14.6323 6.125C16.6223 4.995 18.2623 3.705 18.9723 2.785C19.3323 2.325 19.5123 1.855 19.5123 1.445C19.5123 0.615 18.8623 -0.005 17.9123 -0.005H3.3323C2.3623 -0.005 1.7323 0.615 1.7323 1.445C1.7323 1.855 1.9023 2.325 2.2523 2.785C2.9623 3.705 4.6123 4.995 6.6023 6.125L6.1523 12.405C2.3123 13.795 0.0023 16.845 0.0023 19.725Z" /></svg>