<svg viewBox="0 0 33.00390625 26.181640625" xmlns="http://www.w3.org/2000/svg"><path d="M2.5337 14.6251H4.8037C6.4137 14.6251 7.3137 13.7551 7.3137 12.1851V11.3351H12.0337L13.5237 8.5451C14.1937 7.2751 15.2137 6.6051 16.5137 6.6051C17.8037 6.6051 18.8137 7.2751 19.4937 8.5451L21.0137 11.3351H25.6937V12.1851C25.6937 13.7551 26.5937 14.6251 28.2237 14.6251H30.4737C32.1137 14.6251 33.0037 13.7551 33.0037 12.1851V2.4451C33.0037 0.8751 32.1137 -0.0049 30.4737 -0.0049H28.2237C26.5937 -0.0049 25.6937 0.8751 25.6937 2.4451V3.2151H7.3137V2.4451C7.3137 0.8751 6.4137 -0.0049 4.8037 -0.0049H2.5337C0.9037 -0.0049 0.0037 0.8751 0.0037 2.4451V12.1851C0.0037 13.7551 0.9037 14.6251 2.5337 14.6251ZM16.5137 26.1851C19.9237 26.1851 22.6237 23.5251 22.6237 20.2051C22.6237 18.3851 21.7137 16.5851 20.9437 15.1651L17.8737 9.4351C17.5137 8.7751 17.1137 8.4751 16.5137 8.4751C15.9137 8.4751 15.5137 8.7751 15.1637 9.4151L12.1037 15.1651C11.3337 16.5851 10.4137 18.3851 10.4137 20.2051C10.4137 23.5251 13.1237 26.1851 16.5137 26.1851Z" /></svg>