<svg viewBox="0 0 17.568359375 28.943359375" xmlns="http://www.w3.org/2000/svg"><path d="M0.0037 25.3896C0.0037 27.5196 1.4937 28.9396 3.7237 28.9396H13.8537C16.0737 28.9396 17.5637 27.5196 17.5637 25.3896V3.5596C17.5637 1.4196 16.0737 -0.0004 13.8537 -0.0004H3.7237C1.4937 -0.0004 0.0037 1.4196 0.0037 3.5596ZM2.2037 25.0296V3.9096C2.2037 2.8196 2.8437 2.1996 4.0037 2.1996H13.5737C14.7237 2.1996 15.3637 2.8196 15.3637 3.9096V25.0296C15.3637 26.1296 14.7237 26.7396 13.5737 26.7396H4.0037C2.8437 26.7396 2.2037 26.1296 2.2037 25.0296ZM5.1637 11.6096H12.4237C13.1537 11.6096 13.6437 11.1196 13.6437 10.3596V7.8096C13.6437 7.0596 13.1537 6.5596 12.4237 6.5596H5.1637C4.4337 6.5596 3.9537 7.0596 3.9537 7.8096V10.3596C3.9537 11.1196 4.4337 11.6096 5.1637 11.6096ZM5.1637 22.3396H12.4237C13.1537 22.3396 13.6437 21.8596 13.6437 21.0996V18.5496C13.6437 17.7896 13.1537 17.3096 12.4237 17.3096H5.1637C4.4337 17.3096 3.9537 17.7896 3.9537 18.5496V21.0996C3.9537 21.8596 4.4337 22.3396 5.1637 22.3396Z" /></svg>