<svg viewBox="0 0 32.6484375 28.751953125" xmlns="http://www.w3.org/2000/svg"><path d="M1.1737 14.6039C1.5537 14.6039 1.8737 14.3939 2.1637 14.1639L15.8437 2.6639C15.9937 2.5439 16.1737 2.4739 16.3237 2.4739C16.4837 2.4739 16.6537 2.5439 16.8037 2.6639L30.5037 14.1639C30.7737 14.3939 31.0937 14.6039 31.4737 14.6039C32.2137 14.6039 32.6437 14.0639 32.6437 13.5039C32.6437 13.1939 32.5237 12.8639 32.2137 12.6239L28.6537 9.6239V4.0739C28.6537 3.4739 28.2737 3.0939 27.6737 3.0939H26.2137C25.6237 3.0939 25.2237 3.4739 25.2237 4.0739V6.7439L17.9637 0.6539C17.4437 0.2139 16.8837 0.0039 16.3237 0.0039C15.7637 0.0039 15.2037 0.2139 14.6837 0.6539L0.4337 12.6239C0.1337 12.8639 0.0037 13.1939 0.0037 13.5039C0.0037 14.0639 0.4337 14.6039 1.1737 14.6039ZM4.2637 25.7439C4.2637 27.6439 5.4137 28.7539 7.3437 28.7539H25.3237C27.2437 28.7539 28.3837 27.6439 28.3837 25.7439V14.8839L17.1437 5.4639C16.6237 5.0339 16.0137 5.0439 15.5037 5.4639L4.2637 14.8839ZM12.7237 23.7039V13.8239C12.7237 13.1839 13.4137 12.9439 13.9137 13.2639L22.2037 18.1439C22.6937 18.4139 22.7137 19.1039 22.2137 19.4039L13.9137 24.2839C13.4137 24.5939 12.7237 24.3539 12.7237 23.7039Z" /></svg>