<svg viewBox="0 0 27.890625 27.890625" xmlns="http://www.w3.org/2000/svg"><path d="M13.9427 27.8864C21.6427 27.8864 27.8927 21.6264 27.8927 13.9464C27.8927 6.2464 21.6427 -0.0036 13.9427 -0.0036C6.2627 -0.0036 0.0027 6.2464 0.0027 13.9464C0.0027 21.6264 6.2627 27.8864 13.9427 27.8864ZM6.3327 19.2464C5.7027 19.6464 4.9627 19.3364 4.9627 18.6664V9.2564C4.9627 8.5964 5.7427 8.2864 6.3327 8.6564L13.3527 13.2364C13.9027 13.5864 13.9027 14.3164 13.3527 14.6964ZM15.7727 19.2364C15.1027 19.2364 14.7927 18.8664 14.7927 18.3464V9.5464C14.7927 9.0064 15.1027 8.6564 15.7727 8.6564H17.1027C17.7727 8.6564 18.0727 9.0064 18.0727 9.5464V18.3464C18.0727 18.8664 17.7727 19.2364 17.1027 19.2364ZM20.6727 19.2364C20.0027 19.2364 19.6727 18.8664 19.6727 18.3464V9.5464C19.6727 9.0064 20.0027 8.6564 20.6727 8.6564H22.0027C22.6427 8.6564 22.9527 9.0064 22.9527 9.5464V18.3464C22.9527 18.8664 22.6427 19.2364 22.0027 19.2364Z" /></svg>