<svg viewBox="0 0 32.6484375 28.751953125" xmlns="http://www.w3.org/2000/svg"><path d="M1.1737 14.6039C1.5537 14.6039 1.8737 14.3939 2.1637 14.1639L3.9937 12.6039V25.7339C3.9937 27.6539 5.1237 28.7539 7.0837 28.7539H25.5837C27.5237 28.7539 28.6537 27.6439 28.6537 25.7339V12.6039L30.5037 14.1639C30.7737 14.3939 31.0937 14.6039 31.4737 14.6039C32.2137 14.6039 32.6437 14.0639 32.6437 13.5039C32.6437 13.1939 32.5237 12.8639 32.2137 12.6239L28.6537 9.6239V4.0739C28.6537 3.4739 28.2737 3.0939 27.6737 3.0939H26.2137C25.6237 3.0939 25.2237 3.4739 25.2237 4.0739V6.7439L17.9637 0.6539C17.4437 0.2139 16.8837 0.0039 16.3237 0.0039C15.7637 0.0039 15.2037 0.2139 14.6837 0.6539L0.4337 12.6239C0.1337 12.8639 0.0037 13.1939 0.0037 13.5039C0.0037 14.0639 0.4337 14.6039 1.1737 14.6039ZM7.5437 26.5539C6.6737 26.5539 6.1937 26.0739 6.1937 25.1839V10.7639L15.8437 2.6639C15.9937 2.5439 16.1737 2.4739 16.3237 2.4739C16.4837 2.4739 16.6537 2.5439 16.8037 2.6639L26.4537 10.7639V25.1839C26.4537 26.0739 25.9737 26.5539 25.1137 26.5539ZM12.4137 22.4239C12.4137 23.0739 13.1137 23.3339 13.6537 23.0239L22.3437 17.9139C22.8637 17.5939 22.8437 16.8839 22.3237 16.5839L13.6537 11.4839C13.1137 11.1539 12.4137 11.4039 12.4137 12.0839Z" /></svg>