<svg viewBox="0 0 39.4296875 22.244140625" xmlns="http://www.w3.org/2000/svg"><path d="M0.0037 20.6827C0.0037 21.5427 0.6937 22.2427 1.5437 22.2427H37.8837C38.7337 22.2427 39.4337 21.5427 39.4337 20.6827C39.4337 19.8227 38.7337 19.1227 37.8837 19.1227H34.8937V2.9027C34.8937 0.9827 33.8637 0.0027 31.9637 0.0027H7.4637C5.6637 0.0027 4.5437 0.9827 4.5437 2.9027V19.1227H1.5437C0.6937 19.1227 0.0037 19.8227 0.0037 20.6827ZM6.7437 19.1227V3.5127C6.7437 2.6427 7.1737 2.2027 8.0537 2.2027H31.3737C32.2537 2.2027 32.6937 2.6427 32.6937 3.5127V19.1227ZM16.3637 15.1227C16.3637 15.6727 16.9537 15.8827 17.4037 15.6227L24.6537 11.3627C25.0837 11.0927 25.0837 10.5027 24.6337 10.2527L17.4037 5.9927C16.9537 5.7127 16.3637 5.9227 16.3637 6.4927Z" /></svg>