<svg viewBox="0 0 27.890625 27.890625" xmlns="http://www.w3.org/2000/svg"><path d="M13.9427 27.8864C21.6427 27.8864 27.8927 21.6464 27.8927 13.9464C27.8927 6.2464 21.6427 -0.0036 13.9427 -0.0036C6.2527 -0.0036 0.0027 6.2464 0.0027 13.9464C0.0027 21.6464 6.2527 27.8864 13.9427 27.8864ZM13.9427 25.5664C7.5227 25.5664 2.3227 20.3664 2.3227 13.9464C2.3227 7.5164 7.5227 2.3264 13.9427 2.3264C20.3727 2.3264 25.5627 7.5164 25.5627 13.9464C25.5627 20.3664 20.3727 25.5664 13.9427 25.5664ZM7.6027 13.9464C7.6027 14.6164 8.0627 15.0664 8.7627 15.0664H12.7827V19.0964C12.7827 19.7864 13.2527 20.2664 13.9227 20.2664C14.6027 20.2664 15.0827 19.7964 15.0827 19.0964V15.0664H19.1127C19.7927 15.0664 20.2727 14.6164 20.2727 13.9464C20.2727 13.2664 19.7927 12.7864 19.1127 12.7864H15.0827V8.7664C15.0827 8.0664 14.6027 7.5864 13.9227 7.5864C13.2527 7.5864 12.7827 8.0664 12.7827 8.7664V12.7864H8.7627C8.0627 12.7864 7.6027 13.2664 7.6027 13.9464Z" /></svg>