<svg viewBox="0 0 25.8671875 25.826171875" xmlns="http://www.w3.org/2000/svg"><path d="M13.8737 13.4673L21.8037 1.7373C21.9937 1.4773 22.0637 1.2473 22.0637 0.9673C22.0637 0.4273 21.5837 -0.0027 21.0237 -0.0027C20.5537 -0.0027 20.2937 0.1473 19.9037 0.7073L12.0537 12.3573L4.1137 24.0673C3.9337 24.3173 3.8437 24.5373 3.8437 24.8373C3.8437 25.4273 4.3337 25.8273 4.9337 25.8273C5.3837 25.8273 5.6437 25.6373 6.0037 25.1273ZM0.0037 6.8673C0.0037 7.3973 0.4237 7.8173 0.9737 7.8173H3.7437V10.6073C3.7437 11.1573 4.1837 11.5673 4.7037 11.5673C5.2537 11.5673 5.6737 11.1473 5.6737 10.6073V7.8173H8.4637C8.9937 7.8173 9.4337 7.3973 9.4337 6.8673C9.4337 6.3273 8.9937 5.8973 8.4637 5.8973H5.6737V3.1073C5.6737 2.5673 5.2337 2.1373 4.7037 2.1373C4.1737 2.1373 3.7437 2.5673 3.7437 3.1073V5.8973H0.9737C0.4237 5.8973 0.0037 6.3273 0.0037 6.8673ZM16.4337 19.9073C16.4337 20.4373 16.8537 20.8773 17.3937 20.8773H24.8937C25.4337 20.8773 25.8637 20.4373 25.8637 19.9073C25.8637 19.3773 25.4337 18.9473 24.8937 18.9473H17.3937C16.8537 18.9473 16.4337 19.3773 16.4337 19.9073Z" /></svg>