<svg viewBox="0 0 27.890625 27.890625" xmlns="http://www.w3.org/2000/svg"><path d="M13.9427 27.8864C21.6427 27.8864 27.8927 21.6264 27.8927 13.9464C27.8927 6.2464 21.6427 -0.0036 13.9427 -0.0036C6.2627 -0.0036 0.0027 6.2464 0.0027 13.9464C0.0027 21.6264 6.2627 27.8864 13.9427 27.8864ZM7.2727 13.9564C7.2727 13.2464 7.7627 12.7564 8.4727 12.7564H12.7527V8.4764C12.7527 7.7664 13.2327 7.2564 13.9327 7.2564C14.6427 7.2564 15.1327 7.7664 15.1327 8.4764V12.7564H19.4327C20.1227 12.7564 20.6327 13.2464 20.6327 13.9564C20.6327 14.6564 20.1227 15.1164 19.4327 15.1164H15.1327V19.4164C15.1327 20.1264 14.6427 20.6164 13.9327 20.6164C13.2327 20.6164 12.7527 20.1064 12.7527 19.4164V15.1164H8.4727C7.7627 15.1164 7.2727 14.6564 7.2727 13.9564Z" /></svg>