<svg viewBox="0 0 25.169921875 25.169921875" xmlns="http://www.w3.org/2000/svg"><path d="M4.2937 25.1692H20.8737C23.7437 25.1692 25.1737 23.7592 25.1737 20.9492V4.2392C25.1737 1.4192 23.7437 -0.0008 20.8737 -0.0008H4.2937C1.4337 -0.0008 0.0037 1.4192 0.0037 4.2392V20.9492C0.0037 23.7592 1.4337 25.1692 4.2937 25.1692ZM5.9237 12.5892C5.9237 11.8792 6.4137 11.3892 7.1237 11.3892H11.4037V7.1092C11.4037 6.3992 11.8837 5.8892 12.5737 5.8892C13.2937 5.8892 13.7837 6.3992 13.7837 7.1092V11.3892H18.0737C18.7737 11.3892 19.2737 11.8792 19.2737 12.5892C19.2737 13.2892 18.7737 13.7492 18.0737 13.7492H13.7837V18.0492C13.7837 18.7592 13.2937 19.2492 12.5737 19.2492C11.8837 19.2492 11.4037 18.7392 11.4037 18.0492V13.7492H7.1237C6.4137 13.7492 5.9237 13.2892 5.9237 12.5892Z" /></svg>