<svg viewBox="0 0 28.9296875 28.62890625" xmlns="http://www.w3.org/2000/svg"><path d="M0.0037 18.0719C0.0037 20.8919 1.4237 22.3019 4.2937 22.3019H4.7537V10.5719C4.7537 6.7019 7.0237 4.4619 10.9237 4.4619H22.3037V4.2419C22.3037 1.4219 20.8637 0.0019 18.0237 0.0019H4.2937C1.4237 0.0019 0.0037 1.4119 0.0037 4.2419ZM10.9237 28.6319H24.6537C27.4937 28.6319 28.9337 27.2119 28.9337 24.3919V10.5719C28.9337 7.7519 27.4937 6.3319 24.6537 6.3319H10.9237C8.0537 6.3319 6.6337 7.7419 6.6337 10.5719V24.3919C6.6337 27.2219 8.0537 28.6319 10.9237 28.6319ZM11.1137 17.5019C11.1137 16.7719 11.6037 16.2919 12.3337 16.2919H16.6137V12.0219C16.6137 11.3019 17.0737 10.8019 17.7737 10.8019C18.4837 10.8019 18.9737 11.2919 18.9737 12.0219V16.2919H23.2737C23.9637 16.2919 24.4737 16.7719 24.4737 17.5019C24.4737 18.1819 23.9637 18.6619 23.2737 18.6619H18.9737V22.9519C18.9737 23.6519 18.4837 24.1619 17.7737 24.1619C17.0737 24.1619 16.6137 23.6519 16.6137 22.9519V18.6619H12.3337C11.6237 18.6619 11.1137 18.1819 11.1137 17.5019Z" /></svg>