<svg viewBox="0 0 25.2109375 25.2109375" xmlns="http://www.w3.org/2000/svg"><path d="M23.6137 1.6166C22.2137 0.2166 20.2437 -0.0034 17.9137 -0.0034H7.2637C4.9637 -0.0034 2.9937 0.2166 1.6037 1.6166C0.2037 3.0066 0.0037 4.9666 0.0037 7.2566V17.9066C0.0037 20.2466 0.2037 22.2066 1.6037 23.5966C2.9937 24.9966 4.9637 25.2066 7.2837 25.2066H17.9137C20.2437 25.2066 22.2137 24.9966 23.6137 23.5966C25.0037 22.2066 25.2137 20.2466 25.2137 17.9066V7.2866C25.2137 4.9466 25.0037 3.0066 23.6137 1.6166ZM5.9037 12.6166C5.9037 11.9066 6.3937 11.4166 7.1237 11.4166H11.4037V7.1366C11.4037 6.4266 11.8637 5.9166 12.5637 5.9166C13.2737 5.9166 13.7637 6.4266 13.7637 7.1366V11.4166H18.0637C18.7537 11.4166 19.2637 11.9066 19.2637 12.6166C19.2637 13.3166 18.7537 13.7766 18.0637 13.7766H13.7637V18.0766C13.7637 18.7866 13.2737 19.2766 12.5637 19.2766C11.8637 19.2766 11.4037 18.7666 11.4037 18.0766V13.7766H7.1237C6.4137 13.7766 5.9037 13.3166 5.9037 12.6166Z" /></svg>