<svg viewBox="0 0 30.5703125 30.5703125" xmlns="http://www.w3.org/2000/svg"><path d="M15.2827 30.5663C23.6827 30.5663 30.5727 23.6763 30.5727 15.2863C30.5727 6.8863 23.6827 -0.0038 15.2827 -0.0038C6.8927 -0.0038 0.0027 6.8863 0.0027 15.2863C0.0027 23.6763 6.8927 30.5663 15.2827 30.5663ZM15.2827 25.4862C9.6527 25.4862 5.0827 20.9162 5.0827 15.2863C5.0827 9.6363 9.6527 5.0863 15.2827 5.0863C20.9327 5.0863 25.4827 9.6363 25.4827 15.2863C25.4827 20.9162 20.9327 25.4862 15.2827 25.4862ZM18.4727 21.0263C18.9327 21.0263 19.2227 20.7163 19.2227 20.2163V15.2263L20.4027 14.6163C20.6827 14.4663 20.7927 14.2463 20.7927 14.0263C20.7927 13.6263 20.3727 13.2463 19.8927 13.4963L19.2227 13.8463V10.0262C19.2227 9.5163 18.9327 9.1962 18.4727 9.1962C17.9927 9.1962 17.7027 9.5163 17.7027 10.0063V14.6563L16.6427 15.2263C16.3827 15.3663 16.2427 15.5963 16.2427 15.8163C16.2427 16.2263 16.6627 16.5863 17.2027 16.3063L17.7027 16.0363V20.2163C17.7027 20.7163 17.9927 21.0263 18.4727 21.0263ZM10.7727 20.8763H15.1227C15.4727 20.8763 15.7527 20.6163 15.7527 20.2763C15.7527 19.9363 15.4727 19.6763 15.1227 19.6763H12.0027V19.5263L15.4227 14.0363C15.5727 13.7763 15.6927 13.5863 15.6927 13.3263C15.6927 12.9462 15.4727 12.6063 14.9327 12.6063H10.6927C10.3527 12.6063 10.0727 12.8563 10.0727 13.1963C10.0727 13.5463 10.3527 13.7963 10.6927 13.7963H13.8927V13.9463L10.3127 19.5763C10.1727 19.7963 10.0727 19.9763 10.0727 20.1963C10.0727 20.6063 10.3627 20.8763 10.7727 20.8763Z" /></svg>