<svg viewBox="0 0 24.7734375 34.576171875" xmlns="http://www.w3.org/2000/svg"><path d="M0.6027 9.976C1.3927 9.546 2.3227 9.306 3.2427 9.306C4.6927 9.306 6.1127 9.876 7.0527 11.036C8.0227 9.626 9.7327 8.846 11.4327 8.846C13.1427 8.846 14.8327 9.626 15.8027 11.036C16.7627 9.876 18.1927 9.306 19.6627 9.306C20.5527 9.306 21.4327 9.526 22.2127 9.956C22.6927 9.266 22.9827 8.466 22.9827 7.556C22.9827 5.206 21.4827 3.556 19.3027 3.496C18.7327 2.176 17.6627 1.286 16.1827 1.286C15.2627 1.286 14.3827 1.616 13.7227 2.216C13.4027 2.116 12.9327 2.096 12.5327 2.176C11.9327 0.846 10.6527 -0.004 9.1827 -0.004C7.2427 -0.004 5.9627 1.186 5.7327 2.376C4.6927 2.286 3.8127 3.236 3.8127 4.166C1.7227 4.106 0.0027 5.826 0.0027 7.916C0.0027 8.636 0.1827 9.306 0.6027 9.976ZM9.7527 32.386H12.0427V32.316C11.4027 31.486 11.0427 30.446 11.0427 29.336C11.0427 27.386 12.0827 25.626 13.8127 24.716L14.7527 14.136C14.9727 11.676 12.9227 10.706 11.4327 10.706C9.9527 10.706 7.8927 11.676 8.1027 14.136ZM6.0727 32.386H7.9527L6.2927 14.016C6.1227 12.086 4.6527 11.156 3.1727 11.156C1.4127 11.156 -0.3973 12.506 0.1127 15.136L2.7927 29.316C3.1627 31.256 4.1127 32.386 6.0727 32.386ZM18.8927 21.246C19.8527 21.246 20.7227 21.496 21.4827 21.926L22.7627 15.136C23.2727 12.506 21.4627 11.156 19.6827 11.156C18.2227 11.156 16.7527 12.086 16.5727 14.016L15.8227 22.396C16.6027 21.686 17.6927 21.246 18.8927 21.246ZM18.8927 34.576C20.2227 34.576 21.4527 33.826 22.0427 32.676C23.8527 32.266 24.7727 30.826 24.7727 29.356C24.7727 27.836 23.8027 26.396 22.0227 26.116C21.9727 24.376 20.6627 23.116 18.8927 23.116C17.1727 23.116 15.8627 24.336 15.7727 26.016C13.9427 26.306 12.9027 27.796 12.9027 29.336C12.9027 30.876 13.9227 32.316 15.7727 32.706C16.3227 33.826 17.5427 34.576 18.8927 34.576Z" /></svg>