<svg viewBox="0 0 26.03125 25.169921875" xmlns="http://www.w3.org/2000/svg"><path d="M4.2937 25.1655H21.7337C24.5937 25.1655 26.0337 23.7455 26.0337 20.9355V4.2355C26.0337 1.4255 24.5937 -0.0045 21.7337 -0.0045H4.2937C1.4337 -0.0045 0.0037 1.4055 0.0037 4.2355V20.9355C0.0037 23.7655 1.4337 25.1655 4.2937 25.1655ZM12.4437 10.9055C11.9737 10.9055 11.6437 10.5855 11.6437 10.1055V5.9855C11.6437 5.5055 11.9737 5.1955 12.4437 5.1955H13.5737C14.0537 5.1955 14.3737 5.5055 14.3737 5.9855V10.1055C14.3737 10.5855 14.0537 10.9055 13.5737 10.9055ZM6.2437 19.2255C5.7537 19.2255 5.4537 18.9255 5.4537 18.4455V17.2955C5.4537 16.8255 5.7537 16.5055 6.2437 16.5055H9.9137C10.3937 16.5055 10.7037 16.8155 10.7037 17.2955V18.4455C10.7037 18.9255 10.3937 19.2255 9.9137 19.2255ZM16.1237 19.2255C15.6437 19.2255 15.3137 18.9255 15.3137 18.4455V17.2955C15.3137 16.8155 15.6437 16.5055 16.1237 16.5055H19.7737C20.2637 16.5055 20.5737 16.8255 20.5737 17.2955V18.4455C20.5737 18.9255 20.2737 19.2255 19.7737 19.2255Z" /></svg>