<svg viewBox="0 0 27.890625 27.890625" xmlns="http://www.w3.org/2000/svg"><path d="M13.9427 27.8864C21.6427 27.8864 27.8927 21.6464 27.8927 13.9464C27.8927 6.2464 21.6427 -0.0036 13.9427 -0.0036C6.2527 -0.0036 0.0027 6.2464 0.0027 13.9464C0.0027 21.6464 6.2527 27.8864 13.9427 27.8864ZM13.9427 25.5664C7.5227 25.5664 2.3227 20.3664 2.3227 13.9464C2.3227 7.5164 7.5227 2.3264 13.9427 2.3264C20.3727 2.3264 25.5627 7.5164 25.5627 13.9464C25.5627 20.3664 20.3727 25.5664 13.9427 25.5664ZM13.9427 14.2464C14.4827 14.2464 14.8627 13.8464 14.8627 13.3064V7.3264C14.8627 6.7764 14.4827 6.3964 13.9427 6.3964C13.4127 6.3964 13.0427 6.7764 13.0427 7.3264V13.3064C13.0427 13.8464 13.4127 14.2464 13.9427 14.2464ZM13.9427 21.0864C17.8527 21.0864 21.1127 17.8264 21.1127 13.9364C21.1127 11.9764 20.2327 10.0264 18.7727 8.6864C17.8327 7.8064 16.5527 9.1464 17.5127 10.0464C18.5927 11.0464 19.2127 12.4264 19.2227 13.9364C19.2227 16.8664 16.8827 19.2064 13.9427 19.2064C11.0027 19.2064 8.6827 16.8664 8.6827 13.9364C8.6827 12.4264 9.2827 11.0464 10.3727 10.0364C11.3327 9.1364 10.0627 7.7964 9.1327 8.6864C7.6527 10.0064 6.7827 11.9464 6.7827 13.9364C6.7827 17.8264 10.0327 21.0864 13.9427 21.0864Z" /></svg>