<svg viewBox="0 0 33.27734375 23.37890625" xmlns="http://www.w3.org/2000/svg"><path d="M0.0037 23.3805H11.2937C14.4937 23.3805 16.5537 21.4005 16.5537 18.6205C16.5537 15.8305 14.4937 13.8205 11.2937 13.8205H5.1137C3.2837 13.8205 2.2037 12.7405 2.2037 11.2205C2.2037 9.7205 3.3037 8.6705 5.1137 8.6705H11.1137V9.5805C11.1137 10.8005 12.0437 11.6605 13.3537 11.6605H16.4437C17.2237 11.6605 17.3737 11.7705 17.9537 12.4305C19.4237 14.2605 21.4137 15.1605 23.5537 15.1605H26.7737C27.4237 15.1605 27.8537 14.7405 27.8537 14.1005V11.7605H31.9737C32.7037 11.7605 33.2737 11.1705 33.2737 10.4605C33.2737 9.7205 32.7037 9.1505 31.9737 9.1505H27.8537V6.0005H31.9737C32.7037 6.0005 33.2737 5.4405 33.2737 4.7005C33.2737 3.9805 32.7037 3.4005 31.9737 3.4005H27.8537V1.0505C27.8537 0.4205 27.4237 0.0005 26.7737 0.0005H23.5537C21.3937 0.0005 19.4137 0.8905 17.9537 2.7105C17.3737 3.3905 17.2237 3.5005 16.4437 3.5005H13.3537C12.0437 3.5005 11.1137 4.3505 11.1137 5.5805V6.4705H5.2637C2.0537 6.4705 0.0037 8.4505 0.0037 11.2205C0.0037 14.0105 2.0537 16.0205 5.2637 16.0205H11.4437C13.2737 16.0205 14.3537 17.1005 14.3537 18.6205C14.3537 20.1205 13.2437 21.1805 11.4437 21.1805H0.0037ZM23.5537 13.1005C21.9337 13.1005 20.7037 12.5205 19.5637 11.1605C18.6437 10.0305 17.8437 9.6005 16.4437 9.6005H13.7637C13.4137 9.6005 13.1837 9.3805 13.1837 9.0405V6.0405C13.1837 5.7405 13.3537 5.5605 13.6837 5.5605H16.4437C17.8437 5.5605 18.6437 5.1405 19.5637 3.9905C20.7037 2.6205 21.9137 2.0605 23.5537 2.0605H25.2937C25.6037 2.0605 25.7837 2.2305 25.7837 2.5205V12.6205C25.7837 12.9205 25.6037 13.1005 25.2937 13.1005Z" /></svg>