<svg viewBox="0 0 25.169921875 25.169921875" xmlns="http://www.w3.org/2000/svg"><path d="M4.2937 25.1692H20.8737C23.7437 25.1692 25.1737 23.7592 25.1737 20.9492V4.2392C25.1737 1.4192 23.7437 -0.0008 20.8737 -0.0008H4.2937C1.4337 -0.0008 0.0037 1.4192 0.0037 4.2392V20.9492C0.0037 23.7592 1.4337 25.1692 4.2937 25.1692ZM4.5237 13.8892V11.2792C4.5237 10.7492 4.8937 10.3892 5.4237 10.3892H6.0437V9.7092C6.0437 7.2892 9.1837 5.0592 12.5937 5.0592C15.9837 5.0592 19.1237 7.2892 19.1237 9.7092V10.3892H19.7437C20.2737 10.3892 20.6437 10.7492 20.6437 11.2792V13.8892C20.6437 14.4192 20.2737 14.7792 19.7437 14.7792H19.1237V15.4492C19.1237 17.8792 15.9837 20.1092 12.5937 20.1092C9.1837 20.1092 6.0437 17.8792 6.0437 15.4492V14.7792H5.4237C4.8937 14.7792 4.5237 14.4192 4.5237 13.8892ZM9.0737 14.2292C9.9937 14.2292 10.7337 13.4892 10.7337 12.5792C10.7337 11.6792 9.9937 10.9392 9.0737 10.9392C8.1737 10.9392 7.4237 11.6792 7.4237 12.5792C7.4237 13.4892 8.1737 14.2292 9.0737 14.2292ZM16.0937 14.2292C16.9937 14.2292 17.7437 13.4892 17.7437 12.5792C17.7437 11.6792 16.9937 10.9392 16.0937 10.9392C15.1937 10.9392 14.4337 11.6792 14.4337 12.5792C14.4337 13.4892 15.1937 14.2292 16.0937 14.2292Z" /></svg>