<svg viewBox="0 0 25.169921875 25.169921875" xmlns="http://www.w3.org/2000/svg"><path d="M4.2937 25.1692H20.8737C23.7437 25.1692 25.1737 23.7592 25.1737 20.9492V4.2392C25.1737 1.4192 23.7437 -0.0008 20.8737 -0.0008H4.2937C1.4337 -0.0008 0.0037 1.4192 0.0037 4.2392V20.9492C0.0037 23.7592 1.4337 25.1692 4.2937 25.1692ZM4.3237 22.9692C2.9537 22.9692 2.2037 22.2392 2.2037 20.8192V4.3592C2.2037 2.9392 2.9537 2.1992 4.3237 2.1992H20.8537C22.2037 2.1992 22.9737 2.9392 22.9737 4.3592V20.8192C22.9737 22.2392 22.2037 22.9692 20.8537 22.9692ZM7.3737 18.9992H17.8837C18.6237 18.9992 19.1637 18.4592 19.1637 17.7192V7.4692C19.1637 6.7292 18.6237 6.1792 17.8837 6.1792H7.3737C6.6337 6.1792 6.0837 6.7292 6.0837 7.4692V17.7192C6.0837 18.4592 6.6337 18.9992 7.3737 18.9992ZM12.3037 11.5892C11.9737 11.5892 11.7437 11.3892 11.7437 11.0492V8.8092C11.7437 8.4792 11.9737 8.2392 12.3037 8.2392H12.9237C13.2437 8.2392 13.5037 8.4792 13.5037 8.8092V11.0492C13.5037 11.3892 13.2437 11.5892 12.9237 11.5892ZM8.6537 16.8192C8.3137 16.8192 8.0937 16.5792 8.0937 16.2592V15.6292C8.0937 15.2992 8.3137 15.0492 8.6537 15.0492H10.7837C11.1137 15.0492 11.3337 15.2992 11.3337 15.6292V16.2592C11.3337 16.5792 11.1137 16.8192 10.7837 16.8192ZM14.4737 16.8192C14.1337 16.8192 13.9137 16.5792 13.9137 16.2592V15.6292C13.9137 15.2992 14.1337 15.0492 14.4737 15.0492H16.5937C16.9437 15.0492 17.1537 15.2992 17.1537 15.6292V16.2592C17.1537 16.5792 16.9437 16.8192 16.5937 16.8192Z" /></svg>