<svg viewBox="0 0 26.03125 25.169921875" xmlns="http://www.w3.org/2000/svg"><path d="M4.2937 25.1655H21.7337C24.5937 25.1655 26.0337 23.7455 26.0337 20.9355V4.2355C26.0337 1.4255 24.5937 -0.0045 21.7337 -0.0045H4.2937C1.4337 -0.0045 0.0037 1.4055 0.0037 4.2355V20.9355C0.0037 23.7655 1.4337 25.1655 4.2937 25.1655ZM4.3237 22.9655C2.9537 22.9655 2.2037 22.2455 2.2037 20.8255V4.3455C2.2037 2.9255 2.9537 2.2055 4.3237 2.2055H21.6937C23.0537 2.2055 23.8337 2.9255 23.8337 4.3455V20.8255C23.8337 22.2455 23.0537 22.9655 21.6937 22.9655ZM8.2737 12.4455C8.9437 12.4455 9.4837 11.9255 9.4837 11.2255V6.9855C9.4837 6.3155 8.9437 5.7655 8.2737 5.7655C7.5837 5.7655 7.0637 6.3155 7.0637 6.9855V11.2255C7.0637 11.9255 7.5837 12.4455 8.2737 12.4455ZM17.7337 12.4455C18.4137 12.4455 18.9637 11.9255 18.9637 11.2255V6.9855C18.9637 6.3155 18.4137 5.7655 17.7337 5.7655C17.0537 5.7655 16.5337 6.3155 16.5337 6.9855V11.2255C16.5337 11.9255 17.0537 12.4455 17.7337 12.4455ZM11.3937 20.1655H14.6437C15.0637 20.1655 15.2837 19.9655 15.2837 19.5355V17.9955C15.2837 16.7255 14.2837 15.7055 13.0137 15.7055C11.7337 15.7055 10.7437 16.7255 10.7437 17.9955V19.5355C10.7437 19.9655 10.9637 20.1655 11.3937 20.1655Z" /></svg>