<svg viewBox="0 0 27.166015625 28.396484375" xmlns="http://www.w3.org/2000/svg"><path d="M13.5927 2.8398C14.3727 2.8398 15.0027 2.1998 15.0027 1.4198C15.0027 0.6298 14.3727 -0.0002 13.5927 -0.0002C12.7927 -0.0002 12.1727 0.6298 12.1727 1.4198C12.1727 2.1998 12.7927 2.8398 13.5927 2.8398ZM4.0327 8.4898C4.8227 8.4898 5.4527 7.8598 5.4527 7.0698C5.4527 6.2898 4.8227 5.6598 4.0327 5.6598C3.2427 5.6598 2.6127 6.2898 2.6127 7.0698C2.6127 7.8598 3.2427 8.4898 4.0327 8.4898ZM23.1327 8.4898C23.9227 8.4898 24.5527 7.8598 24.5527 7.0698C24.5527 6.2898 23.9227 5.6598 23.1327 5.6598C22.3427 5.6598 21.7127 6.2898 21.7127 7.0698C21.7127 7.8598 22.3427 8.4898 23.1327 8.4898ZM13.5927 9.1898C14.3727 9.1898 15.0027 8.5598 15.0027 7.7798C15.0027 6.9898 14.3727 6.3598 13.5927 6.3598C12.7927 6.3598 12.1727 6.9898 12.1727 7.7798C12.1727 8.5598 12.7927 9.1898 13.5927 9.1898ZM1.4227 14.7498C2.2127 14.7498 2.8427 14.1198 2.8427 13.3398C2.8427 12.5498 2.2127 11.9198 1.4227 11.9198C0.6327 11.9198 0.0027 12.5498 0.0027 13.3398C0.0027 14.1198 0.6327 14.7498 1.4227 14.7498ZM25.7427 14.7498C26.5327 14.7498 27.1627 14.1198 27.1627 13.3398C27.1627 12.5498 26.5327 11.9198 25.7427 11.9198C24.9627 11.9198 24.3227 12.5498 24.3227 13.3398C24.3227 14.1198 24.9627 14.7498 25.7427 14.7498ZM13.5927 15.5598C14.3727 15.5598 15.0027 14.9198 15.0027 14.1398C15.0027 13.3398 14.3727 12.7098 13.5927 12.7098C12.7927 12.7098 12.1727 13.3398 12.1727 14.1398C12.1727 14.9198 12.7927 15.5598 13.5927 15.5598ZM2.4627 21.1198C3.2527 21.1198 3.8827 20.4898 3.8827 19.7098C3.8827 18.9198 3.2527 18.2898 2.4627 18.2898C1.6727 18.2898 1.0427 18.9198 1.0427 19.7098C1.0427 20.4898 1.6727 21.1198 2.4627 21.1198ZM24.7027 21.1198C25.5027 21.1198 26.1227 20.4898 26.1227 19.7098C26.1227 18.9198 25.5027 18.2898 24.7027 18.2898C23.9127 18.2898 23.2827 18.9198 23.2827 19.7098C23.2827 20.4898 23.9127 21.1198 24.7027 21.1198ZM6.8327 26.3898C7.6127 26.3898 8.2627 25.7598 8.2627 24.9798C8.2627 24.1898 7.6127 23.5598 6.8327 23.5598C6.0427 23.5598 5.4127 24.1898 5.4127 24.9798C5.4127 25.7598 6.0427 26.3898 6.8327 26.3898ZM20.3327 26.3898C21.1227 26.3898 21.7527 25.7598 21.7527 24.9798C21.7527 24.1898 21.1227 23.5598 20.3327 23.5598C19.5527 23.5598 18.9227 24.1898 18.9227 24.9798C18.9227 25.7598 19.5527 26.3898 20.3327 26.3898ZM13.5927 28.3998C14.3727 28.3998 15.0027 27.7698 15.0027 26.9698C15.0027 26.1798 14.3727 25.5498 13.5927 25.5498C12.7927 25.5498 12.1727 26.1798 12.1727 26.9698C12.1727 27.7698 12.7927 28.3998 13.5927 28.3998Z" /></svg>