<svg viewBox="0 0 34.09765625 21.3828125" xmlns="http://www.w3.org/2000/svg"><path d="M0.0037 12.4709C0.0037 14.3309 1.0437 15.3509 2.8937 15.3509H8.8137C10.3037 15.3509 11.0737 16.0909 12.1237 17.5109C14.0037 20.0609 16.8937 21.3809 19.9237 21.3809H23.6637C25.5137 21.3809 26.2737 20.3709 26.2737 18.5109V17.1609H32.1837C33.2537 17.1609 34.0937 16.3109 34.0937 15.2709C34.0937 14.1909 33.2537 13.3409 32.1837 13.3409H26.2737V8.0409H32.1837C33.2537 8.0409 34.0937 7.1809 34.0937 6.1409C34.0937 5.0909 33.2537 4.2209 32.1837 4.2209H26.2737V2.8409C26.2737 0.9809 25.5137 0.0009 23.6637 0.0009H19.9237C16.8937 0.0009 14.0037 1.3009 12.1237 3.8709C11.0737 5.3009 10.3037 6.0309 8.8137 6.0309H2.8937C1.0537 6.0309 0.0037 7.0109 0.0037 8.9109ZM2.2037 12.4709V8.9109C2.2037 8.5209 2.5037 8.2309 2.8937 8.2309H8.8137C11.0437 8.2309 12.4137 7.1809 13.9037 5.1809C15.4037 3.1009 17.3937 2.2009 19.9237 2.2009H23.3937C23.7937 2.2009 24.0737 2.4709 24.0737 2.8409V18.5109C24.0737 18.8909 23.7937 19.1809 23.3937 19.1809H19.9237C17.4037 19.1809 15.4037 18.2609 13.9037 16.2009C12.4237 14.2009 11.0637 13.1509 8.8137 13.1509H2.8937C2.5037 13.1509 2.2037 12.8609 2.2037 12.4709Z" /></svg>