<svg viewBox="0 0 27.890625 27.890625" xmlns="http://www.w3.org/2000/svg"><path d="M13.9427 27.8864C21.6427 27.8864 27.8927 21.6264 27.8927 13.9464C27.8927 6.2464 21.6427 -0.0036 13.9427 -0.0036C6.2627 -0.0036 0.0027 6.2464 0.0027 13.9464C0.0027 21.6264 6.2627 27.8864 13.9427 27.8864ZM13.9627 14.2564C13.4127 14.2564 13.0327 13.8664 13.0327 13.3064V7.1364C13.0327 6.5664 13.4127 6.1664 13.9627 6.1664C14.5027 6.1664 14.9027 6.5664 14.9027 7.1364V13.3064C14.9027 13.8664 14.5027 14.2564 13.9627 14.2564ZM13.9627 21.3264C9.9227 21.3264 6.5627 17.9664 6.5627 13.9464C6.5627 11.9064 7.4627 9.8864 8.9927 8.5264C9.9527 7.6164 11.2827 8.9964 10.2827 9.9264C9.1627 10.9664 8.5327 12.3864 8.5327 13.9464C8.5327 16.9664 10.9327 19.3864 13.9627 19.3864C16.9827 19.3864 19.4027 16.9664 19.4027 13.9464C19.3827 12.3864 18.7427 10.9664 17.6327 9.9364C16.6427 9.0064 17.9627 7.6264 18.9327 8.5264C20.4527 9.9164 21.3527 11.9264 21.3527 13.9464C21.3527 17.9664 17.9927 21.3264 13.9627 21.3264Z" /></svg>