<svg viewBox="0 0 26.03125 25.169921875" xmlns="http://www.w3.org/2000/svg"><path d="M4.2937 25.1655H21.7337C24.5937 25.1655 26.0337 23.7455 26.0337 20.9355V4.2355C26.0337 1.4255 24.5937 -0.0045 21.7337 -0.0045H4.2937C1.4337 -0.0045 0.0037 1.4055 0.0037 4.2355V20.9355C0.0037 23.7655 1.4337 25.1655 4.2937 25.1655ZM8.1237 12.4255C7.4137 12.4255 6.8737 11.8955 6.8737 11.1655V6.8055C6.8737 6.1155 7.4137 5.5355 8.1237 5.5355C8.8137 5.5355 9.3837 6.1155 9.3837 6.8055V11.1655C9.3837 11.8955 8.8137 12.4255 8.1237 12.4255ZM17.8837 12.4255C17.1737 12.4255 16.6437 11.8955 16.6437 11.1655V6.8055C16.6437 6.1155 17.1737 5.5355 17.8837 5.5355C18.5937 5.5355 19.1537 6.1155 19.1537 6.8055V11.1655C19.1537 11.8955 18.5937 12.4255 17.8837 12.4255ZM11.3337 20.3955C10.8937 20.3955 10.6737 20.1755 10.6737 19.7455V18.1555C10.6737 16.8455 11.6937 15.7955 13.0137 15.7955C14.3237 15.7955 15.3537 16.8455 15.3537 18.1555V19.7455C15.3537 20.1755 15.1337 20.3955 14.6937 20.3955Z" /></svg>