<svg viewBox="0 0 25.169921875 25.169921875" xmlns="http://www.w3.org/2000/svg"><path d="M4.2937 25.1692H20.8737C23.7437 25.1692 25.1737 23.7592 25.1737 20.9492V4.2392C25.1737 1.4192 23.7437 -0.0008 20.8737 -0.0008H4.2937C1.4337 -0.0008 0.0037 1.4192 0.0037 4.2392V20.9492C0.0037 23.7592 1.4337 25.1692 4.2937 25.1692ZM7.0837 19.1992C6.3137 19.1992 5.7537 18.6392 5.7537 17.8692V7.2892C5.7537 6.5192 6.3137 5.9592 7.0837 5.9592H18.0837C18.8537 5.9592 19.4137 6.5192 19.4137 7.2892V17.8692C19.4137 18.6392 18.8537 19.1992 18.0837 19.1992ZM12.6037 11.5492C13.5337 11.5492 14.3037 10.7892 14.3037 9.8392C14.3037 8.8992 13.5337 8.1392 12.6037 8.1392C11.6637 8.1392 10.8937 8.8992 10.8937 9.8392C10.8937 10.7892 11.6637 11.5492 12.6037 11.5492ZM9.5137 16.9892C10.3037 16.9892 10.9537 16.3692 10.9537 15.5692C10.9537 14.7792 10.3037 14.1392 9.5137 14.1392C8.7337 14.1392 8.0937 14.7792 8.0937 15.5692C8.0937 16.3692 8.7337 16.9892 9.5137 16.9892ZM15.6837 16.9892C16.4737 16.9892 17.1037 16.3692 17.1037 15.5692C17.1037 14.7792 16.4737 14.1392 15.6837 14.1392C14.8937 14.1392 14.2437 14.7792 14.2437 15.5692C14.2437 16.3692 14.8937 16.9892 15.6837 16.9892Z" /></svg>