<svg viewBox="0 0 27.727154045651613 24.09326171875" xmlns="http://www.w3.org/2000/svg"><path d="M21.9833 23.7334C22.4733 24.2134 23.1733 24.2134 23.6533 23.7334C26.1533 21.2034 27.7233 17.7334 27.7233 13.9434C27.7233 6.3334 21.4133 0.0034 13.7933 0.0034C7.0533 0.0034 1.3533 4.9634 0.1633 11.3934C-0.0167 12.1434 0.4633 12.7534 1.1633 12.8134C1.7933 12.8634 2.2933 12.4534 2.4333 11.8234C3.3933 6.4134 8.0833 2.3234 13.7933 2.3234C20.2533 2.3234 25.3933 7.5034 25.3933 13.9434C25.3933 17.0934 24.1433 19.9334 22.1533 22.0434C21.6433 22.5834 21.5233 23.2834 21.9833 23.7334ZM12.4533 15.6934C13.3433 16.5834 14.6433 16.5834 15.5333 15.6934C16.4333 14.7934 16.4333 13.5034 15.5333 12.6034C15.3633 12.4434 15.0133 12.1834 14.7933 12.0334L8.1633 7.4234C7.8333 7.1934 7.5033 7.2634 7.3033 7.4534C7.1133 7.6734 7.0433 7.9834 7.2733 8.3134L11.8633 14.9434C12.0333 15.1634 12.2933 15.5134 12.4533 15.6934ZM3.9533 23.7334C4.4133 24.2134 5.1133 24.2134 5.6233 23.7334C6.0833 23.2834 5.9633 22.5834 5.4433 22.0434C3.8033 20.3134 2.6833 18.0834 2.3233 15.5834C2.2433 14.9534 1.7733 14.5234 1.1533 14.5234C0.4333 14.5334 -0.0967 15.1234 0.0133 15.9034C0.4333 18.9034 1.8733 21.6534 3.9533 23.7334Z" /></svg>