<svg viewBox="0 0 25.169921875 25.169921875" xmlns="http://www.w3.org/2000/svg"><path d="M4.2937 25.1692H20.8737C23.7437 25.1692 25.1737 23.7592 25.1737 20.9492V4.2392C25.1737 1.4192 23.7437 -0.0008 20.8737 -0.0008H4.2937C1.4337 -0.0008 0.0037 1.4192 0.0037 4.2392V20.9492C0.0037 23.7592 1.4337 25.1692 4.2937 25.1692ZM8.1237 19.0292C7.7137 19.0292 7.3137 18.9092 7.0137 18.6192C5.4537 17.1492 4.3937 14.9192 4.3937 12.5892C4.3937 10.2492 5.4737 8.0092 7.0437 6.5392C7.3237 6.2792 7.7137 6.1692 8.1237 6.1692H17.0537C17.4637 6.1692 17.8537 6.2892 18.1537 6.5792C19.7137 8.0392 20.7837 10.2692 20.7837 12.5892C20.7837 14.9192 19.7137 17.1492 18.1537 18.6192C17.8537 18.9092 17.4637 19.0292 17.0537 19.0292ZM9.1437 15.8892C9.5937 15.8892 9.9537 15.5292 9.9537 15.0792V10.0892C9.9537 9.6392 9.5937 9.2992 9.1437 9.2992C8.7137 9.2992 8.3537 9.6392 8.3537 10.0892V15.0792C8.3537 15.5292 8.7137 15.8892 9.1437 15.8892ZM16.0237 15.8892C16.4737 15.8892 16.8137 15.5292 16.8137 15.0792V10.0892C16.8137 9.6392 16.4737 9.2992 16.0237 9.2992C15.5737 9.2992 15.2337 9.6392 15.2337 10.0892V15.0792C15.2337 15.5292 15.5737 15.8892 16.0237 15.8892Z" /></svg>