<svg viewBox="0 0 30.884765625 29.44921875" xmlns="http://www.w3.org/2000/svg"><path d="M4.0737 25.3933H5.5137V26.8333C5.5137 28.6533 6.3837 29.4533 8.1237 29.4533H22.7637C24.5037 29.4533 25.3737 28.6533 25.3737 26.8333V25.3933H26.8237C29.4737 25.3933 30.8837 24.0533 30.8837 21.3833V8.5833C30.8837 5.9333 29.4737 4.5833 26.8237 4.5833H25.4737V3.8533C25.4737 1.1933 24.1437 0.0033 21.6037 0.0033H9.2837C6.8737 0.0033 5.4137 1.1933 5.4137 3.8533V4.5833H4.0737C1.5437 4.5833 0.0037 5.9333 0.0037 8.5833V21.3833C0.0037 24.0533 1.4037 25.3933 4.0737 25.3933ZM7.5337 3.7033C7.5337 2.5533 8.1237 1.9933 9.2537 1.9933H21.6337C22.7737 1.9933 23.3537 2.5533 23.3537 3.7033V4.5833H7.5337ZM22.7637 13.0733H8.1237C6.4637 13.0733 5.5137 13.8633 5.5137 15.6833V23.3233H4.0437C2.8337 23.3233 2.2137 22.6933 2.2137 21.4933V8.4733C2.2137 7.2733 2.8337 6.6433 4.0437 6.6433H26.8537C28.0537 6.6433 28.6837 7.2733 28.6837 8.4733V21.4933C28.6837 22.6933 28.0537 23.3233 26.8537 23.3233H25.3737V15.6833C25.3737 13.8633 24.5037 13.0733 22.7637 13.0733ZM24.4437 11.5133C25.3737 11.5133 26.1437 10.7433 26.1437 9.8133C26.1437 8.8733 25.3737 8.1233 24.4437 8.1233C23.5037 8.1233 22.7537 8.8733 22.7537 9.8133C22.7537 10.7433 23.5037 11.5133 24.4437 11.5133ZM8.8037 27.3833C8.0837 27.3833 7.7137 27.0333 7.7137 26.2933V16.2133C7.7137 15.4733 8.0837 15.1333 8.8037 15.1333H22.0937C22.8337 15.1333 23.1737 15.4733 23.1737 16.2133V26.2933C23.1737 27.0333 22.8337 27.3833 22.0937 27.3833ZM10.7037 19.7133H20.2237C20.7037 19.7133 21.0537 19.3433 21.0537 18.8533C21.0537 18.3933 20.7037 18.0333 20.2237 18.0333H10.7037C10.2137 18.0333 9.8437 18.3933 9.8437 18.8533C9.8437 19.3433 10.2137 19.7133 10.7037 19.7133ZM10.7037 24.4833H20.2237C20.7037 24.4833 21.0537 24.1133 21.0537 23.6533C21.0537 23.1733 20.7037 22.8033 20.2237 22.8033H10.7037C10.2137 22.8033 9.8437 23.1733 9.8437 23.6533C9.8437 24.1133 10.2137 24.4833 10.7037 24.4833Z" /></svg>