<svg viewBox="0 0 27.890625 27.890625" xmlns="http://www.w3.org/2000/svg"><path d="M13.9427 27.8864C21.6427 27.8864 27.8927 21.6464 27.8927 13.9464C27.8927 6.2464 21.6427 -0.0036 13.9427 -0.0036C6.2527 -0.0036 0.0027 6.2464 0.0027 13.9464C0.0027 21.6464 6.2527 27.8864 13.9427 27.8864ZM13.9427 25.5664C7.5227 25.5664 2.3227 20.3664 2.3227 13.9464C2.3227 7.5164 7.5227 2.3264 13.9427 2.3264C20.3727 2.3264 25.5627 7.5164 25.5627 13.9464C25.5627 20.3664 20.3727 25.5664 13.9427 25.5664ZM7.9427 17.7364C7.9427 17.9364 8.0527 18.1664 8.2127 18.3464L10.8527 20.9764C11.1727 21.2564 11.4827 21.4064 11.7827 21.4064C12.1027 21.4064 12.4127 21.2764 12.7127 20.9764L15.3627 18.3364C15.5427 18.1464 15.6427 17.9364 15.6427 17.7364C15.6427 17.2764 15.2827 16.9264 14.8427 16.9264C14.5727 16.9264 14.3827 17.0064 14.1927 17.1964L13.5227 17.8964L12.5827 18.9664L12.6427 16.8064V11.2564C12.6427 9.1864 13.6427 8.0364 15.4727 8.0364C17.1627 8.0364 18.2927 9.1964 18.2827 10.9264C18.2627 12.6064 17.1727 13.7664 15.6027 13.7664C15.2127 13.7664 15.0227 13.6764 14.7827 13.6764C14.3427 13.6764 14.0127 13.9864 14.0127 14.3964C14.0127 14.6464 14.1127 14.8464 14.2627 14.9964C14.5327 15.2764 15.0227 15.4064 15.5427 15.4064C18.1927 15.4064 19.9427 13.6164 19.9427 10.9264C19.9427 8.1864 18.1327 6.3264 15.4727 6.3264C12.7027 6.3264 10.9227 8.1864 10.9227 11.1164V16.8164L10.9927 18.9664L10.0627 17.9064L9.3827 17.2164C9.1827 17.0064 8.9727 16.9264 8.7227 16.9264C8.2827 16.9264 7.9427 17.2764 7.9427 17.7364Z" /></svg>