<svg viewBox="0 0 19.82421875 26.03125" xmlns="http://www.w3.org/2000/svg"><path d="M0.0037 20.0667C0.0037 20.3967 0.1537 20.6967 0.3737 20.9167L4.8437 25.3767C5.2737 25.8267 5.7537 26.0267 6.2437 26.0267C6.7237 26.0267 7.1937 25.8167 7.6337 25.3767L12.1137 20.9067C12.3437 20.6767 12.4837 20.3667 12.4837 20.0567C12.4837 19.4367 11.9937 18.9767 11.4437 18.9767C11.0337 18.9767 10.7737 19.1267 10.5437 19.3467L9.3637 20.5167L7.2737 22.9167L7.4137 18.4967V8.1167C7.4137 4.6667 9.3237 2.3367 12.4937 2.3367C15.4637 2.3367 17.5237 4.4067 17.5237 7.5067C17.5237 10.4967 15.5037 12.6067 12.7137 12.6067C11.7437 12.6067 11.4937 12.3967 11.0237 12.3967C10.4337 12.3967 9.9537 12.7967 9.9537 13.4167C9.9537 13.8267 10.1537 14.1367 10.4637 14.3667C10.9737 14.7767 11.8537 14.9267 12.6437 14.9267C16.9937 14.9267 19.8237 11.8967 19.8237 7.5067C19.8237 2.9967 16.8437 -0.0033 12.4937 -0.0033C8.0637 -0.0033 5.0537 2.9567 5.0537 8.2167V18.5067L5.1937 22.9167L3.1037 20.5367L1.9237 19.3567C1.7137 19.1367 1.4537 18.9867 1.0437 18.9867C0.4737 18.9867 0.0037 19.4567 0.0037 20.0667Z" /></svg>