<svg viewBox="0 0 27.890625 27.890625" xmlns="http://www.w3.org/2000/svg"><path d="M13.9427 27.8864C21.6427 27.8864 27.8927 21.6264 27.8927 13.9464C27.8927 6.2464 21.6427 -0.0036 13.9427 -0.0036C6.2627 -0.0036 0.0027 6.2464 0.0027 13.9464C0.0027 21.6264 6.2627 27.8864 13.9427 27.8864ZM7.7627 17.8564C7.7627 17.3864 8.1227 17.0264 8.5727 17.0264C8.8327 17.0264 9.0527 17.1064 9.2527 17.3264L9.9527 18.0364L10.9127 19.1164L10.8427 16.9164V11.0164C10.8427 8.0164 12.6727 6.0864 15.5427 6.0864C18.2827 6.0864 20.1527 8.0164 20.1527 10.8264C20.1527 13.6064 18.3427 15.4664 15.6127 15.4664C15.0627 15.4664 14.5627 15.3164 14.2827 15.0364C14.1227 14.8764 14.0227 14.6664 14.0227 14.4064C14.0227 13.9864 14.3727 13.6564 14.8227 13.6564C15.0827 13.6564 15.2727 13.7564 15.6727 13.7564C17.2827 13.7564 18.4127 12.5664 18.4327 10.8264C18.4327 9.0464 17.2627 7.8564 15.5427 7.8564C13.6627 7.8564 12.6227 9.0364 12.6227 11.1664V16.8964L12.5527 19.1164L13.5227 18.0164L14.2027 17.2964C14.4127 17.1064 14.6027 17.0264 14.8927 17.0264C15.3427 17.0264 15.7127 17.3864 15.7127 17.8564C15.7127 18.0564 15.6127 18.2764 15.4327 18.4864L12.7027 21.1864C12.3827 21.5064 12.0627 21.6564 11.7327 21.6564C11.4127 21.6564 11.1027 21.4964 10.7727 21.1864L8.0527 18.4964C7.8727 18.3064 7.7627 18.0564 7.7627 17.8564Z" /></svg>