<svg viewBox="0 0 25.169921875 25.169921875" xmlns="http://www.w3.org/2000/svg"><path d="M4.2937 25.1692H20.8737C23.7437 25.1692 25.1737 23.7592 25.1737 20.9492V4.2392C25.1737 1.4192 23.7437 -0.0008 20.8737 -0.0008H4.2937C1.4337 -0.0008 0.0037 1.4192 0.0037 4.2392V20.9492C0.0037 23.7592 1.4337 25.1692 4.2937 25.1692ZM12.5937 19.1992C8.9837 19.1992 6.4837 16.4092 6.4837 12.4392C6.4837 8.4592 8.9837 5.6892 12.5937 5.6892C16.2037 5.6892 18.7037 8.4592 18.7037 12.4392C18.7037 14.7892 17.8237 16.7092 16.3837 17.8692L17.2237 18.9992C17.4837 19.3592 17.5637 19.5192 17.5637 19.7792C17.5637 20.2792 17.2237 20.6192 16.7237 20.6192C16.3637 20.6192 16.1037 20.4792 15.8337 20.0992L14.8437 18.7892C14.1737 19.0492 13.4137 19.1992 12.5937 19.1992ZM12.5937 17.4092C13.0037 17.4092 13.3737 17.3492 13.7137 17.2392L13.0337 16.2992C12.8337 16.0392 12.7537 15.8292 12.7537 15.5892C12.7537 15.1392 13.1437 14.7792 13.6037 14.7792C13.9337 14.7792 14.1537 14.8892 14.3737 15.1792L15.1737 16.2592C15.9837 15.4092 16.4437 14.0792 16.4437 12.4392C16.4437 9.4292 14.9337 7.4792 12.5937 7.4792C10.2637 7.4792 8.7537 9.4292 8.7537 12.4392C8.7537 15.4492 10.2637 17.4092 12.5937 17.4092Z" /></svg>