<svg viewBox="0 0 26.76953125 26.755859375" xmlns="http://www.w3.org/2000/svg"><path d="M1.0937 8.6985C1.8137 8.6985 2.2037 8.2885 2.2037 7.5785V4.3485C2.2037 2.9285 2.9537 2.1985 4.3237 2.1985H7.6337C8.3537 2.1985 8.7537 1.8085 8.7537 1.0985C8.7537 0.3785 8.3537 -0.0015 7.6337 -0.0015H4.2937C1.4337 -0.0015 0.0037 1.4085 0.0037 4.2285V7.5785C0.0037 8.2885 0.3937 8.6985 1.0937 8.6985ZM25.6637 8.6985C26.3837 8.6985 26.7737 8.2885 26.7737 7.5785V4.2285C26.7737 1.4085 25.3337 -0.0015 22.4737 -0.0015H19.1237C18.4137 -0.0015 18.0237 0.3785 18.0237 1.0985C18.0237 1.8085 18.4137 2.1985 19.1237 2.1985H22.4337C23.7937 2.1985 24.5637 2.9285 24.5637 4.3485V7.5785C24.5637 8.2885 24.9637 8.6985 25.6637 8.6985ZM7.4237 12.7785H12.1837C12.5237 12.7785 12.7837 12.5185 12.7837 12.1985V7.4285C12.7837 7.0985 12.5237 6.8185 12.1837 6.8185H7.4237C7.0837 6.8185 6.8237 7.0985 6.8237 7.4285V12.1985C6.8237 12.5185 7.0837 12.7785 7.4237 12.7785ZM14.5637 12.7785H19.3137C19.6637 12.7785 19.9237 12.5185 19.9237 12.1985V7.4285C19.9237 7.0985 19.6637 6.8185 19.3137 6.8185H14.5637C14.2237 6.8185 13.9637 7.0985 13.9637 7.4285V12.1985C13.9637 12.5185 14.2237 12.7785 14.5637 12.7785ZM8.0137 11.5985V8.0085H11.5937V11.5985ZM15.1437 11.5985V8.0085H18.7337V11.5985ZM9.0537 10.5585H10.5537V9.0485H9.0537ZM16.2037 10.5585H17.6937V9.0485H16.2037ZM7.4237 19.9385H12.1837C12.5237 19.9385 12.7837 19.6785 12.7837 19.3285V14.5785C12.7837 14.2285 12.5237 13.9685 12.1837 13.9685H7.4237C7.0837 13.9685 6.8237 14.2285 6.8237 14.5785V19.3285C6.8237 19.6785 7.0837 19.9385 7.4237 19.9385ZM14.1337 15.6285H15.6237V14.1385H14.1337ZM18.2537 15.6285H19.7437V14.1385H18.2537ZM8.0137 18.7485V15.1585H11.5937V18.7485ZM9.0537 17.6885H10.5537V16.1985H9.0537ZM16.1837 17.6885H17.6937V16.1985H16.1837ZM4.2937 26.7585H7.6337C8.3537 26.7585 8.7537 26.3585 8.7537 25.6585C8.7537 24.9485 8.3537 24.5585 7.6337 24.5585H4.3237C2.9537 24.5585 2.2037 23.8285 2.2037 22.4085V19.1785C2.2037 18.4585 1.8037 18.0585 1.0937 18.0585C0.3837 18.0585 0.0037 18.4585 0.0037 19.1785V22.5185C0.0037 25.3485 1.4337 26.7585 4.2937 26.7585ZM19.1237 26.7585H22.4737C25.3337 26.7585 26.7737 25.3385 26.7737 22.5185V19.1785C26.7737 18.4585 26.3737 18.0585 25.6637 18.0585C24.9537 18.0585 24.5637 18.4585 24.5637 19.1785V22.4085C24.5637 23.8285 23.7937 24.5585 22.4337 24.5585H19.1237C18.4137 24.5585 18.0237 24.9485 18.0237 25.6585C18.0237 26.3585 18.4137 26.7585 19.1237 26.7585ZM14.1337 19.7585H15.6237V18.2685H14.1337ZM18.2537 19.7585H19.7437V18.2685H18.2537Z" /></svg>