<svg viewBox="0 0 37.091796875 26.044921875" xmlns="http://www.w3.org/2000/svg"><path d="M6.7637 18.5684C7.7237 18.5684 8.1637 17.9084 8.1637 17.0384V16.5684C8.1937 14.7684 8.8337 14.0184 11.0237 12.5084C13.3737 10.9284 14.8637 9.0884 14.8637 6.4484C14.8637 2.3484 11.5237 -0.0016 7.3737 -0.0016C4.2837 -0.0016 1.5737 1.4584 0.4137 4.0984C0.1237 4.7484 0.0037 5.3684 0.0037 5.8884C0.0037 6.6684 0.4537 7.2184 1.2837 7.2184C1.9837 7.2184 2.4437 6.8084 2.6537 6.1384C3.3537 3.5384 5.0737 2.5584 7.2737 2.5584C9.9437 2.5584 12.0337 4.0584 12.0337 6.4384C12.0337 8.3984 10.8137 9.4884 9.0637 10.7184C6.9137 12.2084 5.3437 13.8084 5.3437 16.2184V17.0784C5.3437 17.9484 5.8237 18.5684 6.7637 18.5684ZM37.0937 12.9384C37.0937 9.7984 34.5937 7.2984 31.4737 7.2984C29.1337 7.2984 27.0737 8.6684 26.2237 10.8284H17.8137C17.5637 10.8284 17.3637 10.9084 17.1737 11.0984L15.7237 12.5384C15.5137 12.7284 15.4937 13.1084 15.7237 13.3484L18.4437 16.0784C18.6737 16.3284 19.0337 16.3084 19.2737 16.0784L20.8337 14.4884L23.0637 16.7084C23.2837 16.9384 23.6237 16.9384 23.8737 16.6884L26.0437 14.5584C27.1237 17.1184 29.1037 18.5784 31.4737 18.5784C34.5737 18.5784 37.0937 16.0484 37.0937 12.9384ZM32.0337 13.2084C32.0337 12.3584 32.7337 11.6484 33.5937 11.6484C34.4637 11.6484 35.1537 12.3284 35.1537 13.2084C35.1537 14.0684 34.4537 14.7684 33.5937 14.7684C32.7337 14.7684 32.0337 14.0684 32.0337 13.2084ZM6.7637 26.0484C7.8637 26.0484 8.7237 25.1684 8.7237 24.1084C8.7237 23.0284 7.8637 22.1584 6.7637 22.1584C5.7037 22.1584 4.8237 23.0284 4.8237 24.1084C4.8237 25.1684 5.7037 26.0484 6.7637 26.0484Z" /></svg>