<svg viewBox="0 0 27.890625 27.890625" xmlns="http://www.w3.org/2000/svg"><path d="M13.9427 27.8864C21.6427 27.8864 27.8927 21.6264 27.8927 13.9464C27.8927 6.2464 21.6427 -0.0036 13.9427 -0.0036C6.2627 -0.0036 0.0027 6.2464 0.0027 13.9464C0.0027 21.6264 6.2627 27.8864 13.9427 27.8864ZM13.6627 16.8664C12.9327 16.8664 12.5227 16.4864 12.5227 15.7464V15.5764C12.5227 14.1764 13.2927 13.4364 14.3027 12.7264C15.5327 11.8664 16.1227 11.4064 16.1227 10.4464C16.1227 9.3764 15.2827 8.6564 14.0127 8.6564C13.0727 8.6564 12.3427 9.1164 11.8427 9.9364L11.5927 10.2764C11.3327 10.6064 11.0227 10.8464 10.5427 10.8464C10.0727 10.8464 9.5727 10.4964 9.5727 9.8664C9.5727 9.6264 9.6227 9.3964 9.6927 9.1764C10.0727 7.8764 11.6627 6.7364 14.0927 6.7364C16.5027 6.7364 18.5927 7.9864 18.5927 10.3364C18.5927 12.0264 17.6127 12.8564 16.2427 13.7564C15.2627 14.3964 14.8027 14.9064 14.8027 15.6964V15.8564C14.8027 16.4164 14.3727 16.8664 13.6627 16.8664ZM13.6327 21.0664C12.8127 21.0664 12.1027 20.4164 12.1027 19.6064C12.1027 18.7964 12.7927 18.1264 13.6327 18.1264C14.4627 18.1264 15.1627 18.7864 15.1627 19.6064C15.1627 20.4264 14.4527 21.0664 13.6327 21.0664Z" /></svg>