<svg viewBox="0 0 31.006281888857306 31.006281888857306" xmlns="http://www.w3.org/2000/svg"><path d="M1.5328 18.5268L12.4828 29.4768C14.5028 31.5068 16.5028 31.5168 18.5128 29.5168L29.5228 18.4968C31.5128 16.5068 31.5028 14.4968 29.4828 12.4668L18.5428 1.5368C16.5128 -0.4932 14.5228 -0.5132 12.5128 1.4968L1.4928 12.4968C-0.5172 14.5068 -0.4872 16.5068 1.5328 18.5268ZM3.1228 17.0068C2.1328 16.0268 2.1228 14.9968 3.1328 13.9868L13.9928 3.1368C15.0028 2.1168 16.0228 2.1368 17.0128 3.1168L27.8928 13.9968C28.8628 14.9768 28.8928 16.0068 27.8828 17.0268L17.0228 27.8768C16.0128 28.8868 14.9728 28.8668 14.0028 27.9068ZM15.2428 18.3368C15.9328 18.3368 16.3428 17.8968 16.3428 17.3668V17.1968C16.3428 16.4368 16.7928 15.9468 17.7528 15.3168C19.0728 14.4368 20.0128 13.6468 20.0128 12.0068C20.0128 9.7368 17.9928 8.5068 15.6728 8.5068C13.3228 8.5068 11.7728 9.6268 11.4028 10.8868C11.3228 11.1068 11.2828 11.3268 11.2828 11.5568C11.2828 12.1668 11.7628 12.4968 12.2228 12.4968C12.6928 12.4968 12.9928 12.2768 13.2328 11.9468L13.4828 11.6268C13.9628 10.8268 14.6728 10.3668 15.5728 10.3668C16.8328 10.3668 17.6428 11.0768 17.6428 12.1168C17.6428 13.0468 17.0628 13.4968 15.8628 14.3268C14.8928 15.0168 14.1528 15.7368 14.1528 17.0768V17.2568C14.1528 17.9668 14.5328 18.3368 15.2428 18.3368ZM15.2028 22.4068C16.0028 22.4068 16.6828 21.7768 16.6828 20.9868C16.6828 20.1968 16.0128 19.5668 15.2028 19.5668C14.4128 19.5668 13.7428 20.2068 13.7428 20.9868C13.7428 21.7668 14.4228 22.4068 15.2028 22.4068Z" /></svg>