<svg viewBox="0 0 30.1328125 28.369140625" xmlns="http://www.w3.org/2000/svg"><path d="M8.1237 28.3728C8.6537 28.3728 9.0537 28.0928 9.6937 27.4928L14.6337 22.9828H23.8737C27.9437 22.9828 30.1337 20.7428 30.1337 16.7328V6.2628C30.1337 2.2528 27.9437 0.0028 23.8737 0.0028H6.2637C2.1837 0.0028 0.0037 2.2428 0.0037 6.2628V16.7328C0.0037 20.7528 2.1837 22.9828 6.2637 22.9828H6.9037V26.9628C6.9037 27.8128 7.3437 28.3728 8.1237 28.3728ZM14.7937 14.4128C14.0537 14.4128 13.6537 14.0228 13.6537 13.2928V13.1128C13.6537 11.7128 14.4237 10.9828 15.4237 10.2628C16.6637 9.4028 17.2537 8.9428 17.2537 7.9828C17.2537 6.9228 16.4237 6.1928 15.1337 6.1928C14.2037 6.1928 13.4637 6.6628 12.9637 7.4828L12.7137 7.8228C12.4537 8.1528 12.1537 8.3828 11.6737 8.3828C11.1937 8.3828 10.6937 8.0428 10.6937 7.4128C10.6937 7.1628 10.7437 6.9328 10.8137 6.7128C11.2137 5.4128 12.7937 4.2828 15.2337 4.2828C17.6337 4.2828 19.7237 5.5228 19.7237 7.8728C19.7237 9.5728 18.7437 10.3928 17.3737 11.2928C16.3937 11.9328 15.9237 12.4428 15.9237 13.2328V13.4028C15.9237 13.9628 15.5037 14.4128 14.7937 14.4128ZM14.7537 18.6028C13.9437 18.6028 13.2337 17.9628 13.2337 17.1428C13.2337 16.3428 13.9337 15.6828 14.7537 15.6828C15.5837 15.6828 16.2837 16.3228 16.2837 17.1428C16.2837 17.9828 15.5737 18.6028 14.7537 18.6028Z" /></svg>