<svg viewBox="0 0 25.169921875 25.169921875" xmlns="http://www.w3.org/2000/svg"><path d="M4.2937 25.1692H20.8737C23.7437 25.1692 25.1737 23.7592 25.1737 20.9492V4.2392C25.1737 1.4192 23.7437 -0.0008 20.8737 -0.0008H4.2937C1.4337 -0.0008 0.0037 1.4192 0.0037 4.2392V20.9492C0.0037 23.7592 1.4337 25.1692 4.2937 25.1692ZM12.3037 15.4992C11.5837 15.4992 11.1837 15.1192 11.1837 14.3792V14.2092C11.1837 12.8092 11.9337 12.0692 12.9437 11.3592C14.1737 10.4992 14.7637 10.0392 14.7637 9.0792C14.7637 8.0092 13.9337 7.2892 12.6637 7.2892C11.7337 7.2892 10.9937 7.7492 10.4837 8.5692L10.2437 8.9092C9.9837 9.2392 9.6837 9.4792 9.1837 9.4792C8.7237 9.4792 8.2137 9.1292 8.2137 8.4992C8.2137 8.2592 8.2737 8.0292 8.3437 7.8092C8.7337 6.5092 10.3237 5.3692 12.7437 5.3692C15.1437 5.3692 17.2437 6.6192 17.2437 8.9692C17.2437 10.6592 16.2537 11.4892 14.8937 12.3892C13.9137 13.0292 13.4537 13.5392 13.4537 14.3292V14.4892C13.4537 15.0492 13.0337 15.4992 12.3037 15.4992ZM12.2737 19.6992C11.4537 19.6992 10.7437 19.0492 10.7437 18.2392C10.7437 17.4292 11.4437 16.7592 12.2737 16.7592C13.1137 16.7592 13.8037 17.4192 13.8037 18.2392C13.8037 19.0592 13.0937 19.6992 12.2737 19.6992Z" /></svg>