<svg viewBox="0 0 30.1328125 28.369140625" xmlns="http://www.w3.org/2000/svg"><path d="M8.1237 28.3728C8.6537 28.3728 9.0537 28.0928 9.6937 27.4928L14.6337 22.9828H23.8737C27.9437 22.9828 30.1337 20.7428 30.1337 16.7328V6.2628C30.1337 2.2528 27.9437 0.0028 23.8737 0.0028H6.2637C2.1837 0.0028 0.0037 2.2428 0.0037 6.2628V16.7328C0.0037 20.7528 2.1837 22.9828 6.2637 22.9828H6.9037V26.9628C6.9037 27.8128 7.3437 28.3728 8.1237 28.3728ZM8.2537 10.0028C8.2537 8.3228 9.5337 7.1528 11.2237 7.1528C13.0537 7.1528 14.2837 8.6128 14.2837 10.5228C14.2837 14.1128 11.4337 15.8028 10.0037 15.8028C9.6137 15.8028 9.3137 15.5028 9.3137 15.1528C9.3137 14.8028 9.4637 14.5928 9.9937 14.4528C10.9137 14.2028 11.9937 13.4528 12.5137 12.2928H12.4037C12.0337 12.7528 11.4437 12.8528 10.8537 12.8528C9.2537 12.8528 8.2537 11.6028 8.2537 10.0028ZM15.8737 10.0028C15.8737 8.3228 17.1337 7.1528 18.8237 7.1528C20.6537 7.1528 21.9037 8.6128 21.9037 10.5228C21.9037 14.1128 19.0437 15.8028 17.6237 15.8028C17.2237 15.8028 16.9237 15.5028 16.9237 15.1528C16.9237 14.8028 17.0937 14.5928 17.5937 14.4528C18.5237 14.2028 19.6037 13.4528 20.1237 12.2928H20.0137C19.6437 12.7528 19.0537 12.8528 18.4537 12.8528C16.8737 12.8528 15.8737 11.6028 15.8737 10.0028Z" /></svg>