<svg viewBox="0 0 28.19140625 24.240234375" xmlns="http://www.w3.org/2000/svg"><path d="M14.0927 18.4466C22.6227 18.4466 28.1927 14.6666 28.1927 9.2166C28.1927 3.7766 22.6127 -0.0034 14.0827 -0.0034C5.5627 -0.0034 0.0027 3.7766 0.0027 9.2166C0.0027 14.6666 5.5627 18.4466 14.0927 18.4466ZM14.0927 16.0966C7.1327 16.0966 2.4727 13.3066 2.4727 9.2166C2.4727 5.1266 7.1327 2.3466 14.0827 2.3466C21.0427 2.3466 25.7127 5.1266 25.7127 9.2166C25.7127 13.3066 21.0527 16.0966 14.0927 16.0966ZM11.8127 13.3066C12.3327 13.3066 12.6627 12.9466 12.6627 12.3866V10.3466H14.0527L15.5627 12.7966C15.7927 13.1766 16.0127 13.3166 16.3527 13.3166C16.7727 13.3166 17.1327 13.0166 17.1327 12.5766C17.1327 12.3566 17.0627 12.1866 16.9427 12.0066L15.7127 10.0766C16.7027 9.6766 17.3127 8.7666 17.3127 7.6866C17.3127 6.0466 16.1227 4.9866 14.3127 4.9866H11.8127C11.3227 4.9866 11.0027 5.3466 11.0027 5.9166V12.3866C11.0027 12.9466 11.3227 13.3066 11.8127 13.3066ZM12.6627 9.0466V6.3266H14.1327C15.0927 6.3266 15.6727 6.8666 15.6727 7.7066C15.6727 8.5566 15.1027 9.0466 14.1127 9.0466ZM14.0927 24.2366C17.4227 24.2366 19.3827 22.6866 19.3827 20.0566V19.5066C17.7627 19.8466 15.9927 20.0266 14.0927 20.0266C12.1927 20.0266 10.4327 19.8466 8.8227 19.5066V20.0566C8.8227 22.6866 10.7827 24.2366 14.0927 24.2366Z" /></svg>