<svg viewBox="0 0 34.268622124069026 31.4453125" xmlns="http://www.w3.org/2000/svg"><path d="M15.7227 -0.0026C7.0527 -0.0026 0.0027 7.0574 0.0027 15.7374C0.0027 24.4174 7.0527 31.4474 15.7227 31.4474C22.5427 31.4474 28.3427 27.1074 30.5327 21.0374C29.7327 21.1474 28.9827 20.9174 28.3927 20.4574C26.4727 25.6074 21.5327 29.2474 15.7227 29.2474C8.2327 29.2474 2.2027 23.2274 2.2027 15.7374C2.2027 8.2474 8.2427 2.1974 15.7227 2.1974C21.5427 2.1974 26.4827 5.8674 28.4127 11.0374C28.9827 10.5574 29.7527 10.3474 30.5327 10.4474C28.3727 4.3774 22.5627 -0.0026 15.7227 -0.0026ZM15.7227 26.6474C21.7627 26.6474 26.6327 21.7674 26.6327 15.7374C26.6327 9.6974 21.7627 4.8174 15.7227 4.8174C9.7027 4.8174 4.8027 9.6974 4.8027 15.7374C4.8027 21.7674 9.7027 26.6474 15.7227 26.6474ZM12.8227 21.1374C12.1427 21.1374 11.7627 20.6674 11.7627 19.9774V11.3474C11.7627 10.6474 12.1227 10.1474 12.8127 10.1474H16.1327C18.5627 10.1474 20.1427 11.5674 20.1427 13.7274C20.1427 15.1474 19.2727 16.3974 17.9827 16.8974L19.6027 19.4374C19.7727 19.6874 19.8627 19.9374 19.8627 20.2074C19.8627 20.7374 19.4327 21.1374 18.8227 21.1374C18.3627 21.1374 18.0427 20.9474 17.7427 20.4674L15.8327 17.2574H13.9427V19.9774C13.9427 20.6874 13.5227 21.1374 12.8227 21.1374ZM13.9427 15.5574H15.8727C17.2127 15.5574 17.9827 14.9574 17.9827 13.7674C17.9827 12.5674 17.1727 11.8774 15.9127 11.8774H13.9427ZM30.5927 12.5474C29.8427 11.9874 28.9027 12.3274 28.9027 13.2774V18.2074C28.9027 19.1774 29.8627 19.4774 30.5827 18.9374L33.8827 16.4774C34.3827 16.0874 34.4127 15.3774 33.8827 14.9974Z" /></svg>