<svg viewBox="0 0 34.27711669769996 31.4453125" xmlns="http://www.w3.org/2000/svg"><path d="M18.5409 -0.0026C11.7209 -0.0026 5.8909 4.3774 3.7509 10.4474C4.5109 10.3474 5.2909 10.5574 5.8709 11.0374C7.7909 5.8674 12.7209 2.1974 18.5409 2.1974C26.0309 2.1974 32.0809 8.2474 32.0809 15.7374C32.0809 23.2274 26.0309 29.2474 18.5409 29.2474C12.7409 29.2474 7.8109 25.6074 5.8809 20.4574C5.2909 20.9174 4.5409 21.1474 3.7509 21.0374C5.9209 27.1074 11.7309 31.4474 18.5409 31.4474C27.2209 31.4474 34.2809 24.4174 34.2809 15.7374C34.2809 7.0574 27.2209 -0.0026 18.5409 -0.0026ZM18.5409 26.6474C24.5709 26.6474 29.4609 21.7674 29.4609 15.7374C29.4609 9.6974 24.5709 4.8174 18.5409 4.8174C12.5109 4.8174 7.6309 9.6974 7.6309 15.7374C7.6309 21.7674 12.5109 26.6474 18.5409 26.6474ZM18.5409 24.4474C13.7109 24.4474 9.8309 20.5674 9.8309 15.7374C9.8309 10.8974 13.7109 7.0174 18.5409 7.0174C23.3809 7.0174 27.2609 10.8974 27.2609 15.7374C27.2609 20.5674 23.3809 24.4474 18.5409 24.4474ZM15.7409 20.9774C16.4109 20.9774 16.8209 20.5374 16.8209 19.8474V17.1974H18.6509L20.5209 20.3174C20.8109 20.7774 21.1109 20.9774 21.5609 20.9774C22.1409 20.9774 22.5609 20.5874 22.5609 20.0674C22.5609 19.8074 22.4609 19.5774 22.3109 19.3274L20.7309 16.8574C21.9909 16.3674 22.8209 15.1574 22.8209 13.7774C22.8209 11.6874 21.3009 10.3074 18.9509 10.3074H15.7209C15.0709 10.3074 14.7109 10.7974 14.7109 11.4674V19.8474C14.7109 20.5174 15.0809 20.9774 15.7409 20.9774ZM16.8209 15.5574V11.9874H18.7309C19.9609 11.9874 20.7409 12.6474 20.7409 13.8174C20.7409 14.9674 19.9909 15.5574 18.6909 15.5574ZM3.6609 12.5474L0.3809 14.9974C-0.1391 15.3774 -0.1191 16.0874 0.3809 16.4774L3.6809 18.9374C4.4009 19.4774 5.3709 19.1774 5.3709 18.2074V13.2774C5.3709 12.3274 4.4209 11.9874 3.6609 12.5474Z" /></svg>