<svg viewBox="0 0 31.4453125 34.27711669769996" xmlns="http://www.w3.org/2000/svg"><path d="M31.4427 15.7374C31.4427 7.0574 24.4027 -0.0026 15.7227 -0.0026C7.0427 -0.0026 0.0027 7.0574 0.0027 15.7374C0.0027 22.5474 4.3427 28.3574 10.4227 30.5274C10.3127 29.7474 10.5227 28.9874 10.9927 28.3974C5.8527 26.4674 2.2027 21.5474 2.2027 15.7374C2.2027 8.2474 8.2327 2.1974 15.7227 2.1974C23.2127 2.1974 29.2427 8.2474 29.2427 15.7374C29.2427 21.5574 25.5827 26.4874 20.4227 28.4074C20.8927 28.9874 21.1127 29.7674 21.0027 30.5274C27.0727 28.3874 31.4427 22.5574 31.4427 15.7374ZM4.8127 15.7374C4.8127 21.7774 9.6927 26.6474 15.7227 26.6474C21.7527 26.6474 26.6327 21.7774 26.6327 15.7374C26.6327 9.7074 21.7527 4.8174 15.7227 4.8174C9.6927 4.8174 4.8127 9.7074 4.8127 15.7374ZM7.0127 15.7374C7.0127 10.8974 10.8827 7.0174 15.7227 7.0174C20.5527 7.0174 24.4327 10.8974 24.4327 15.7374C24.4327 20.5674 20.5527 24.4474 15.7227 24.4474C10.8827 24.4474 7.0127 20.5674 7.0127 15.7374ZM12.9027 20.9774C13.5727 20.9774 13.9827 20.5374 13.9827 19.8474V17.1974H15.8227L17.6927 20.3174C17.9827 20.7774 18.2827 20.9774 18.7327 20.9774C19.3027 20.9774 19.7327 20.5874 19.7327 20.0674C19.7327 19.8074 19.6327 19.5774 19.4827 19.3274L17.8927 16.8574C19.1527 16.3674 19.9927 15.1574 19.9927 13.7774C19.9927 11.6874 18.4727 10.3074 16.1227 10.3074H12.8927C12.2327 10.3074 11.8827 10.7974 11.8827 11.4674V19.8474C11.8827 20.5174 12.2527 20.9774 12.9027 20.9774ZM13.9827 15.5574V11.9874H15.9027C17.1327 11.9874 17.9127 12.6474 17.9127 13.8174C17.9127 14.9674 17.1627 15.5574 15.8627 15.5574ZM18.8927 30.6074C19.4727 29.8574 19.1227 28.8974 18.1727 28.8974H13.2527C12.2627 28.8974 11.9727 29.8774 12.5127 30.5974L14.9827 33.8974C15.3627 34.3974 16.0627 34.4074 16.4627 33.8974Z" /></svg>