<svg viewBox="0 0 28.19140625 31.048828125" xmlns="http://www.w3.org/2000/svg"><path d="M10.6527 1.6652L13.3727 5.3352C13.7427 5.8352 14.4327 5.8352 14.8027 5.3352L17.5527 1.6652C18.1027 0.9452 17.8127 -0.0048 16.8327 -0.0048H11.3427C10.4227 -0.0048 10.0727 0.9152 10.6527 1.6652ZM14.0927 25.2552C22.6227 25.2552 28.1927 21.4752 28.1927 16.0252C28.1927 10.5852 22.6127 6.8052 14.0827 6.8052C5.5627 6.8052 0.0027 10.5852 0.0027 16.0252C0.0027 21.4752 5.5627 25.2552 14.0927 25.2552ZM14.0927 22.9052C7.1327 22.9052 2.4727 20.1152 2.4727 16.0252C2.4727 11.9352 7.1327 9.1552 14.0827 9.1552C21.0427 9.1552 25.7127 11.9352 25.7127 16.0252C25.7127 20.1152 21.0527 22.9052 14.0927 22.9052ZM11.8127 20.1152C12.3327 20.1152 12.6627 19.7552 12.6627 19.1952V17.1552H14.0527L15.5627 19.6052C15.7927 19.9852 16.0127 20.1252 16.3527 20.1252C16.7727 20.1252 17.1327 19.8252 17.1327 19.3852C17.1327 19.1652 17.0627 18.9952 16.9427 18.8152L15.7127 16.8852C16.7027 16.4852 17.3127 15.5752 17.3127 14.4952C17.3127 12.8552 16.1227 11.7952 14.3127 11.7952H11.8127C11.3227 11.7952 11.0027 12.1552 11.0027 12.7252V19.1952C11.0027 19.7552 11.3227 20.1152 11.8127 20.1152ZM12.6627 15.8552V13.1352H14.1327C15.0927 13.1352 15.6727 13.6752 15.6727 14.5152C15.6727 15.3652 15.1027 15.8552 14.1127 15.8552ZM14.0927 31.0452C17.4227 31.0452 19.3827 29.4952 19.3827 26.8652V26.3152C17.7627 26.6552 15.9927 26.8352 14.0927 26.8352C12.1927 26.8352 10.4327 26.6552 8.8227 26.3152V26.8652C8.8227 29.4952 10.7827 31.0452 14.0927 31.0452Z" /></svg>