<svg viewBox="0 0 28.9296875 28.62890625" xmlns="http://www.w3.org/2000/svg"><path d="M18.0237 0.0019H4.2937C1.4337 0.0019 0.0037 1.4219 0.0037 4.2419V18.0619C0.0037 20.8819 1.4337 22.3019 4.2937 22.3019H18.0237C20.8737 22.3019 22.3037 20.8919 22.3037 18.0619V4.2419C22.3037 1.4119 20.8737 0.0019 18.0237 0.0019ZM7.5337 17.6119C6.8237 17.6119 6.4237 17.1019 6.4237 16.3519V5.8819C6.4237 5.1119 6.8037 4.5819 7.5337 4.5819H11.5937C14.4537 4.5819 16.2537 6.2119 16.2537 8.7519C16.2537 10.5019 15.1937 11.9719 13.5537 12.5219L15.6537 15.8319C15.8137 16.1019 15.9037 16.3419 15.9037 16.6419C15.9037 17.2219 15.4737 17.6119 14.8737 17.6119C14.3737 17.6119 14.0937 17.4019 13.7537 16.8719L11.3037 12.8519H8.6837V16.3519C8.6837 17.1319 8.2837 17.6119 7.5337 17.6119ZM8.6837 11.2019H11.2537C12.9437 11.2019 14.0237 10.3319 14.0237 8.8019C14.0237 7.2219 12.9237 6.3119 11.3037 6.3119H8.6837ZM28.9337 10.5519C28.9337 7.7419 27.5037 6.3319 24.6537 6.3319H24.1737V18.0619C24.1737 21.9319 21.9037 24.1719 18.0237 24.1719H6.6337V24.3919C6.6337 27.2119 8.0637 28.6319 10.9237 28.6319H24.6537C27.5037 28.6319 28.9337 27.2219 28.9337 24.3919Z" /></svg>