<svg viewBox="0 0 31.541015625 23.84375" xmlns="http://www.w3.org/2000/svg"><path d="M11.4737 23.843H20.0737C28.0037 23.843 31.5437 20.193 31.5437 12.733V4.143C31.5437 1.393 30.1237 0.003 27.3437 0.003H4.1937C1.4237 0.003 0.0037 1.393 0.0037 4.143V12.733C0.0037 20.193 3.5437 23.843 11.4737 23.843ZM11.4737 21.643C5.0137 21.643 2.2037 18.843 2.2037 12.863V4.263C2.2037 2.903 2.9137 2.203 4.2537 2.203H27.2937C28.6037 2.203 29.3437 2.903 29.3437 4.263V12.863C29.3437 18.843 26.5237 21.643 20.0537 21.643ZM20.9137 17.613C21.4637 17.613 21.9137 17.163 21.9137 16.593V7.343C21.9137 6.633 21.4737 6.223 20.7637 6.223C20.1937 6.223 19.7237 6.533 19.4037 6.783L17.9137 7.953C17.6637 8.133 17.4737 8.393 17.4737 8.763C17.4737 9.183 17.7637 9.473 18.1737 9.473C18.3937 9.473 18.5237 9.423 18.6637 9.313L19.9237 8.303V16.593C19.9237 17.163 20.3737 17.613 20.9137 17.613ZM10.4637 17.653C11.0737 17.653 11.4537 17.243 11.4537 16.593V13.233H12.7437L14.1737 16.813C14.3537 17.333 14.6737 17.653 15.2137 17.653C15.6637 17.653 16.1637 17.373 16.1637 16.683C16.1637 16.513 16.0737 16.243 15.9437 15.923L14.6437 12.823C15.7537 12.253 16.2137 11.073 16.2137 9.833C16.2137 7.603 14.8937 6.413 12.7737 6.413H10.4437C9.8037 6.413 9.4437 6.813 9.4437 7.453V16.593C9.4437 17.223 9.8137 17.653 10.4637 17.653ZM11.4537 11.773V8.003H12.5737C13.6337 8.003 14.1937 8.773 14.1937 9.873C14.1937 10.963 13.7037 11.773 12.5737 11.773Z" /></svg>