<svg viewBox="0 0 31.541015625 23.84375" xmlns="http://www.w3.org/2000/svg"><path d="M11.4737 0.003C3.5437 0.003 0.0037 3.653 0.0037 11.113V19.683C0.0037 22.453 1.4237 23.843 4.1937 23.843H27.3437C30.1237 23.843 31.5437 22.433 31.5437 19.683V11.113C31.5437 3.653 28.0037 0.003 20.0737 0.003ZM11.4737 2.203H20.0537C26.5237 2.203 29.3437 5.003 29.3437 10.963V19.583C29.3437 20.943 28.6037 21.643 27.2937 21.643H4.2537C2.9137 21.643 2.2037 20.943 2.2037 19.583V10.963C2.2037 5.003 5.0137 2.203 11.4737 2.203ZM17.8837 17.463H22.6237C23.1237 17.463 23.4037 17.133 23.4037 16.653C23.4037 16.143 23.1037 15.843 22.6237 15.843H19.3837V15.733L21.3837 13.203C22.7537 11.513 23.2037 10.513 23.2037 9.313C23.2037 7.453 21.9437 6.113 20.0537 6.113C18.3037 6.113 16.9837 7.563 16.9837 8.993C16.9837 9.493 17.2837 9.843 17.8037 9.843C18.2537 9.843 18.5237 9.643 18.6737 9.203C18.9237 8.283 19.2637 7.693 20.0437 7.693C20.8737 7.693 21.3237 8.433 21.3237 9.393C21.3237 10.483 20.5737 11.593 19.8537 12.523L17.4737 15.573C17.2137 15.883 16.9637 16.233 16.9637 16.653C16.9637 17.113 17.2637 17.463 17.8837 17.463ZM9.7237 17.653C10.3337 17.653 10.7237 17.243 10.7237 16.593V13.233H12.0037L13.4437 16.813C13.6337 17.333 13.9337 17.653 14.4737 17.653C14.9337 17.653 15.4237 17.373 15.4237 16.683C15.4237 16.513 15.3237 16.243 15.2037 15.923L13.9037 12.823C14.9937 12.253 15.4737 11.073 15.4737 9.833C15.4737 7.603 14.1537 6.413 12.0137 6.413H9.7037C9.0637 6.413 8.7137 6.813 8.7137 7.453V16.593C8.7137 17.223 9.0637 17.653 9.7237 17.653ZM10.7237 11.773V8.003H11.8437C12.8937 8.003 13.4537 8.773 13.4537 9.873C13.4537 10.963 12.9637 11.773 11.8437 11.773Z" /></svg>