<svg viewBox="0 0 24.322265625 29.3671875" xmlns="http://www.w3.org/2000/svg"><path d="M16.1737 29.3647C21.1237 29.3647 24.3237 26.1847 24.3237 21.2347V14.4947C24.3237 12.6147 23.7337 11.1147 22.5737 10.0447L13.9437 2.1047C12.2537 0.5647 10.4637 0.0047 8.3237 0.0047H4.1037C1.6437 0.0047 0.0037 1.6647 0.0037 4.1447V25.2647C0.0037 27.8347 1.5537 29.3647 4.1437 29.3647ZM13.9137 23.1747C13.2937 23.1747 12.9737 22.8147 12.9737 22.3547C12.9737 21.9047 13.2437 21.5647 13.4937 21.2147L15.9437 18.1047C16.6937 17.1447 17.4837 15.9947 17.4837 14.8647C17.4837 13.8647 17.0037 13.1147 16.1637 13.1147C15.3537 13.1147 14.9937 13.7147 14.7537 14.6547C14.5837 15.1247 14.3037 15.3447 13.8337 15.3447C13.3037 15.3447 12.9837 14.9747 12.9837 14.4347C12.9837 12.9747 14.3537 11.4847 16.1637 11.4847C18.1137 11.4847 19.4137 12.8647 19.4137 14.7647C19.4137 16.0147 18.9537 17.0447 17.5437 18.7947L15.4737 21.3947V21.5147H18.8237C19.3137 21.5147 19.6237 21.8047 19.6237 22.3547C19.6237 22.8447 19.3337 23.1747 18.8237 23.1747ZM5.5137 23.3647C4.8437 23.3647 4.4537 22.9247 4.4537 22.2847V12.8647C4.4537 12.2047 4.8237 11.7947 5.4837 11.7947H7.8937C10.0937 11.7947 11.4437 13.0147 11.4437 15.3247C11.4437 16.5847 10.9637 17.8147 9.8137 18.4047L11.1537 21.6047C11.2937 21.9247 11.3937 22.2047 11.3937 22.3647C11.3937 23.0947 10.8737 23.3647 10.4037 23.3647C9.8437 23.3647 9.5337 23.0547 9.3237 22.5147L7.8637 18.8247H6.5337V22.2847C6.5337 22.9447 6.1437 23.3647 5.5137 23.3647ZM6.5337 17.3247H7.6837C8.8337 17.3247 9.3337 16.4747 9.3337 15.3647C9.3337 14.2347 8.7637 13.4347 7.6837 13.4347H6.5337Z" /></svg>