<svg viewBox="0 0 24.322265625 29.3671875" xmlns="http://www.w3.org/2000/svg"><path d="M16.1737 29.3647C21.1237 29.3647 24.3237 26.1847 24.3237 21.2347V14.4947C24.3237 12.6147 23.7337 11.1147 22.5737 10.0447L13.9437 2.1047C12.2537 0.5647 10.4637 0.0047 8.3237 0.0047H4.1037C1.6437 0.0047 0.0037 1.6647 0.0037 4.1447V25.2647C0.0037 27.8347 1.5537 29.3647 4.1437 29.3647ZM16.1337 27.1647H4.1937C2.7637 27.1647 2.2037 26.6747 2.2037 25.2247V4.1747C2.2037 2.9947 2.9637 2.2047 4.1537 2.2047H8.2737C9.9637 2.2047 11.2137 2.6147 12.4237 3.7147L21.0437 11.6347C21.7937 12.3147 22.1237 13.1547 22.1237 14.5147V21.1947C22.1237 25.0147 19.9437 27.1647 16.1337 27.1647ZM13.7437 22.5747H18.1137C18.5537 22.5747 18.8237 22.2747 18.8237 21.8347C18.8237 21.3547 18.5437 21.0947 18.1137 21.0947H15.1237V20.9847L16.9537 18.6647C18.2237 17.0947 18.6337 16.1747 18.6337 15.0547C18.6337 13.3547 17.4837 12.1147 15.7337 12.1147C14.1237 12.1147 12.9037 13.4547 12.9037 14.7647C12.9037 15.2347 13.1837 15.5547 13.6537 15.5547C14.0837 15.5547 14.3237 15.3647 14.4637 14.9547C14.6937 14.1047 15.0137 13.5747 15.7337 13.5747C16.4837 13.5747 16.9137 14.2647 16.9137 15.1347C16.9137 16.1447 16.2137 17.1747 15.5437 18.0147L13.3537 20.8347C13.1237 21.1247 12.8937 21.4347 12.8937 21.8347C12.8937 22.2547 13.1637 22.5747 13.7437 22.5747ZM6.2237 22.7547C6.7837 22.7547 7.1237 22.3647 7.1237 21.7747V18.6847H8.3237L9.6437 21.9847C9.8137 22.4647 10.0937 22.7547 10.5937 22.7547C11.0237 22.7547 11.4537 22.4947 11.4537 21.8447C11.4537 21.7147 11.3937 21.4547 11.2637 21.1647L10.0637 18.3047C11.0837 17.7747 11.5237 16.6747 11.5237 15.5447C11.5237 13.4947 10.2937 12.4047 8.3437 12.4047H6.1937C5.6037 12.4047 5.2737 12.7547 5.2737 13.3547V21.7747C5.2737 22.3547 5.6037 22.7547 6.2237 22.7547ZM7.1237 17.3347V13.8447H8.1637C9.1337 13.8447 9.6537 14.5747 9.6537 15.5847C9.6537 16.5847 9.2037 17.3347 8.1637 17.3347Z" /></svg>