<svg viewBox="0 0 31.541015625 23.84375" xmlns="http://www.w3.org/2000/svg"><path d="M11.4737 23.843H20.0737C28.0037 23.843 31.5437 20.193 31.5437 12.733V4.143C31.5437 1.393 30.1237 0.003 27.3437 0.003H4.1937C1.4237 0.003 0.0037 1.393 0.0037 4.143V12.733C0.0037 20.193 3.5437 23.843 11.4737 23.843ZM17.8737 17.413C17.2537 17.413 16.8937 17.003 16.8937 16.393V7.503C16.8937 6.903 17.2437 6.453 17.8737 6.453H20.6737C22.2737 6.453 23.4437 7.453 23.4437 9.183C23.4437 10.263 22.7237 11.413 21.6937 11.593V11.663C22.9837 11.783 23.7737 13.003 23.7737 14.333C23.7737 16.143 22.6837 17.413 20.7537 17.413ZM9.3837 17.593C8.7337 17.593 8.3837 17.173 8.3837 16.543V7.493C8.3837 6.853 8.7337 6.463 9.3637 6.463H11.6737C13.7837 6.463 15.0937 7.643 15.0937 9.843C15.0937 11.073 14.6337 12.253 13.5237 12.823L14.8237 15.873C14.9437 16.183 15.0437 16.473 15.0437 16.623C15.0437 17.323 14.5437 17.593 14.0937 17.593C13.5637 17.593 13.2637 17.293 13.0537 16.773L11.6437 13.233H10.3737V16.543C10.3737 17.183 9.9937 17.593 9.3837 17.593ZM18.8537 11.113H19.9437C20.9437 11.113 21.5337 10.483 21.5337 9.493C21.5337 8.613 21.1337 7.973 20.1137 7.973H18.8537ZM10.3737 11.753H11.4837C12.5737 11.753 13.0737 10.963 13.0737 9.883C13.0737 8.803 12.5237 8.043 11.4837 8.043H10.3737ZM18.8537 15.913H20.1637C21.2437 15.913 21.7837 15.253 21.7837 14.163C21.7837 12.973 21.0937 12.443 20.1137 12.443H18.8537Z" /></svg>