<svg viewBox="0 0 31.541015625 23.84375" xmlns="http://www.w3.org/2000/svg"><path d="M11.4737 23.843H20.0737C28.0037 23.843 31.5437 20.193 31.5437 12.733V4.143C31.5437 1.393 30.1237 0.003 27.3437 0.003H4.1937C1.4237 0.003 0.0037 1.393 0.0037 4.143V12.733C0.0037 20.193 3.5437 23.843 11.4737 23.843ZM11.4737 21.643C5.0137 21.643 2.2037 18.843 2.2037 12.863V4.263C2.2037 2.903 2.9137 2.203 4.2537 2.203H27.2937C28.6037 2.203 29.3437 2.903 29.3437 4.263V12.863C29.3437 18.843 26.5237 21.643 20.0537 21.643ZM17.8937 17.473H20.7937C22.7237 17.473 23.8437 16.183 23.8437 14.353C23.8437 13.013 23.0337 11.803 21.7337 11.663V11.593C22.7737 11.413 23.5037 10.253 23.5037 9.173C23.5037 7.413 22.3237 6.413 20.7137 6.413H17.8937C17.2537 6.413 16.9137 6.863 16.9137 7.453V16.433C16.9137 17.063 17.2637 17.473 17.8937 17.473ZM9.3237 17.653C9.9437 17.653 10.3237 17.243 10.3237 16.593V13.233H11.6037L13.0437 16.813C13.2337 17.333 13.5337 17.653 14.0837 17.653C14.5337 17.653 15.0237 17.373 15.0237 16.683C15.0237 16.513 14.9337 16.243 14.8037 15.923L13.5037 12.823C14.6037 12.253 15.0837 11.073 15.0837 9.833C15.0837 7.603 13.7537 6.413 11.6237 6.413H9.3137C8.6637 6.413 8.3137 6.813 8.3137 7.453V16.593C8.3137 17.223 8.6637 17.653 9.3237 17.653ZM18.8637 11.103V7.933H20.1437C21.1737 7.933 21.5837 8.583 21.5837 9.473C21.5837 10.483 21.0037 11.103 19.9837 11.103ZM10.3237 11.773V8.003H11.4437C12.4937 8.003 13.0537 8.773 13.0537 9.873C13.0537 10.963 12.5637 11.773 11.4437 11.773ZM18.8637 15.953V12.443H20.1437C21.1337 12.443 21.8337 12.993 21.8337 14.193C21.8337 15.303 21.2837 15.953 20.1937 15.953Z" /></svg>