<svg viewBox="0 0 27.890625 27.890625" xmlns="http://www.w3.org/2000/svg"><path d="M13.9427 27.8864C21.6427 27.8864 27.8927 21.6464 27.8927 13.9464C27.8927 6.2464 21.6427 -0.0036 13.9427 -0.0036C6.2527 -0.0036 0.0027 6.2464 0.0027 13.9464C0.0027 21.6464 6.2527 27.8864 13.9427 27.8864ZM13.9427 25.5664C7.5227 25.5664 2.3227 20.3664 2.3227 13.9464C2.3227 7.5164 7.5227 2.3264 13.9427 2.3264C20.3727 2.3264 25.5627 7.5164 25.5627 13.9464C25.5627 20.3664 20.3727 25.5664 13.9427 25.5664ZM16.0527 19.4964H18.9527C20.8727 19.4964 22.0027 18.2064 22.0027 16.3664C22.0027 15.0364 21.1927 13.8064 19.8927 13.6864V13.6164C20.9327 13.4264 21.6527 12.2764 21.6527 11.1864C21.6527 9.4364 20.4827 8.4364 18.8627 8.4364H16.0527C15.4127 8.4364 15.0627 8.8764 15.0627 9.4764V18.4564C15.0627 19.0864 15.4227 19.4964 16.0527 19.4964ZM7.4827 19.6564C8.0927 19.6564 8.4727 19.2664 8.4727 18.6164V15.2564H9.7627L11.1927 18.8364C11.3927 19.3564 11.6927 19.6564 12.2327 19.6564C12.6827 19.6564 13.1827 19.3964 13.1827 18.6864C13.1827 18.5364 13.0827 18.2664 12.9627 17.9464L11.6627 14.8464C12.7727 14.2764 13.2327 13.0864 13.2327 11.8564C13.2327 9.6264 11.9127 8.4364 9.7727 8.4364H7.4627C6.8227 8.4364 6.4627 8.8364 6.4627 9.4764V18.6164C6.4627 19.2464 6.8327 19.6564 7.4827 19.6564ZM17.0227 13.1264V9.9564H18.2927C19.3327 9.9564 19.7427 10.6064 19.7427 11.4964C19.7427 12.5064 19.1527 13.1264 18.1427 13.1264ZM8.4727 13.7964V10.0264H9.5927C10.6527 10.0264 11.2127 10.7964 11.2127 11.8964C11.2127 12.9764 10.7227 13.7964 9.5927 13.7964ZM17.0227 17.9764V14.4664H18.2927C19.2927 14.4664 19.9927 14.9964 19.9927 16.2164C19.9927 17.3064 19.4527 17.9764 18.3427 17.9764Z" /></svg>