<svg viewBox="0 0 27.890625 27.890625" xmlns="http://www.w3.org/2000/svg"><path d="M13.9427 27.8864C21.6427 27.8864 27.8927 21.6264 27.8927 13.9464C27.8927 6.2464 21.6427 -0.0036 13.9427 -0.0036C6.2627 -0.0036 0.0027 6.2464 0.0027 13.9464C0.0027 21.6264 6.2627 27.8864 13.9427 27.8864ZM4.9327 13.9464C4.9327 11.6764 6.7527 9.8264 9.0227 9.8264C11.3027 9.8264 13.1427 11.6764 13.1427 13.9464C13.1427 14.8864 12.8227 15.7864 12.2227 16.4864H15.6527C15.0527 15.7864 14.7427 14.8864 14.7427 13.9464C14.7427 11.6764 16.5827 9.8264 18.8527 9.8264C21.1227 9.8264 22.9527 11.6764 22.9527 13.9464C22.9527 16.2164 21.1227 18.0564 18.8527 18.0564H9.0227C6.7527 18.0564 4.9327 16.2164 4.9327 13.9464ZM6.4927 13.9364C6.4927 15.3364 7.6327 16.4864 9.0327 16.4864C10.4427 16.4864 11.5627 15.3564 11.5627 13.9364C11.5627 12.5364 10.4327 11.4064 9.0327 11.4064C7.6427 11.4064 6.4927 12.5364 6.4927 13.9364ZM16.3127 13.9364C16.3127 15.3564 17.4327 16.4864 18.8427 16.4864C20.2527 16.4864 21.3827 15.3364 21.3827 13.9364C21.3827 12.5364 20.2327 11.4064 18.8427 11.4064C17.4427 11.4064 16.3127 12.5364 16.3127 13.9364Z" /></svg>