<svg viewBox="0 0 24.322265625 29.3671875" xmlns="http://www.w3.org/2000/svg"><path d="M8.1337 29.3647H20.1537C22.7537 29.3647 24.3037 27.8347 24.3037 25.2647L24.3237 4.1447C24.3237 1.6647 22.6537 0.0047 20.1937 0.0047H15.9937C13.8537 0.0047 12.0537 0.5647 10.3737 2.1047L1.7337 10.0447C0.5737 11.1147 0.0037 12.6147 0.0037 14.4947V21.2347C0.0037 26.1847 3.1837 29.3647 8.1337 29.3647ZM5.3637 19.9047V14.2447C5.3637 13.1247 5.9337 12.5747 7.0237 12.5747H15.1737C16.2837 12.5747 16.8337 13.1147 16.8537 14.1647V14.2147H9.7037C8.0637 14.2147 7.1237 15.1847 7.1237 16.7747V21.5647H7.0237C5.9337 21.5647 5.3637 21.0047 5.3637 19.9047ZM9.7037 24.1347C8.5837 24.1347 8.0237 23.5847 8.0237 22.4647V16.7747C8.0237 15.6847 8.5837 15.1247 9.7037 15.1247H17.8737C18.9637 15.1247 19.5537 15.6847 19.5537 16.7747V22.4647C19.5537 23.5847 18.9637 24.1347 17.8737 24.1347Z" /></svg>