<svg viewBox="0 0 34.5010050473305 26.564453125" xmlns="http://www.w3.org/2000/svg"><path d="M12.6084 26.5665H21.8884C24.7084 26.5665 26.1284 25.1465 26.1284 22.2665V4.2965C26.1284 1.4265 24.7184 -0.0035 21.8884 -0.0035H12.6084C9.7884 -0.0035 8.3684 1.4265 8.3684 4.2965V22.2665C8.3684 25.1465 9.7884 26.5665 12.6084 26.5665ZM12.7284 24.3665C11.3084 24.3665 10.5684 23.5865 10.5684 22.2465V4.3165C10.5684 2.9565 11.3084 2.1965 12.7284 2.1965H21.7784C23.1984 2.1965 23.9284 2.9565 23.9284 4.3165V22.2465C23.9284 23.5865 23.1984 24.3665 21.7784 24.3665ZM27.9484 16.3265C27.9484 17.0665 28.5484 17.3765 29.1884 16.9765L34.0484 14.0265C34.6584 13.6465 34.6484 12.9165 34.0484 12.5465L29.1784 9.5665C28.5384 9.1765 27.9484 9.5165 27.9484 10.2365ZM6.5484 16.3265V10.2365C6.5484 9.5165 5.9584 9.1765 5.3184 9.5665L0.4684 12.5465C-0.1516 12.9165 -0.1616 13.6465 0.4684 14.0265L5.3184 16.9765C5.9584 17.3765 6.5484 17.0665 6.5484 16.3265Z" /></svg>