<svg viewBox="0 0 25.169921875 25.169921875" xmlns="http://www.w3.org/2000/svg"><path d="M4.2937 25.1652H20.8737C23.7437 25.1652 25.1737 23.7452 25.1737 20.9352V4.2352C25.1737 1.4252 23.7437 -0.0048 20.8737 -0.0048H4.2937C1.4337 -0.0048 0.0037 1.4052 0.0037 4.2352V20.9352C0.0037 23.7652 1.4337 25.1652 4.2937 25.1652ZM4.3237 22.9652C2.9537 22.9652 2.2037 22.2352 2.2037 20.8252V4.3452C2.2037 2.9252 2.9537 2.2052 4.3237 2.2052H20.8537C22.2037 2.2052 22.9737 2.9252 22.9737 4.3452V20.8252C22.9737 22.2352 22.2037 22.9652 20.8537 22.9652ZM6.8237 10.5952C6.8237 8.9052 7.7137 7.9952 9.4337 7.9952L17.5237 8.0152V7.8652C17.5237 6.6152 16.9137 5.9852 15.6537 5.9852H6.5037C5.2637 5.9852 4.6337 6.6052 4.6337 7.8652V14.2052C4.6337 15.4352 5.2637 16.0552 6.5037 16.0552H6.8237ZM9.5137 18.9352H18.6437C19.9037 18.9352 20.5337 18.3352 20.5337 17.0752V10.6752C20.5337 9.4652 19.9037 8.8352 18.6437 8.8352H9.5137C8.2537 8.8352 7.6337 9.4652 7.6337 10.6752V17.0752C7.6337 18.3352 8.2537 18.9352 9.5137 18.9352Z" /></svg>