<svg viewBox="0 0 25.8671875 34.439453125" xmlns="http://www.w3.org/2000/svg"><path d="M9.8837 0.004C9.1437 0.004 8.8337 0.604 9.2237 1.244L12.1937 6.094C12.5637 6.714 13.3037 6.704 13.6737 6.094L16.6537 1.234C17.0537 0.584 16.7037 0.004 15.9837 0.004ZM4.2937 26.164H21.5737C24.4437 26.164 25.8637 24.744 25.8637 21.934V12.514C25.8637 9.694 24.4437 8.274 21.5737 8.274H4.2937C1.4237 8.274 0.0037 9.684 0.0037 12.514V21.934C0.0037 24.764 1.4237 26.164 4.2937 26.164ZM4.3237 23.964C2.9537 23.964 2.2037 23.224 2.2037 21.824V12.624C2.2037 11.194 2.9537 10.474 4.3237 10.474H21.5437C22.9037 10.474 23.6637 11.194 23.6637 12.624V21.824C23.6637 23.224 22.9037 23.964 21.5437 23.964ZM9.8837 34.444H15.9837C16.7037 34.444 17.0537 33.834 16.6537 33.194L13.6737 28.344C13.3037 27.744 12.5637 27.714 12.1937 28.344L9.2237 33.194C8.8337 33.834 9.1437 34.444 9.8837 34.444Z" /></svg>