<svg viewBox="0 0 29.462890625 25.169921875" xmlns="http://www.w3.org/2000/svg"><path d="M2.6137 11.4555H5.7037C7.4337 11.4555 8.3137 10.5855 8.3137 8.7755V2.6655C8.3137 0.8655 7.4337 -0.0045 5.7037 -0.0045H2.6137C0.8737 -0.0045 0.0037 0.8655 0.0037 2.6655V8.7755C0.0037 10.5855 0.8737 11.4555 2.6137 11.4555ZM13.1937 11.4555H16.2837C18.0237 11.4555 18.8937 10.5855 18.8937 8.7755V2.6655C18.8937 0.8655 18.0237 -0.0045 16.2837 -0.0045H13.1937C11.4537 -0.0045 10.5837 0.8655 10.5837 2.6655V8.7755C10.5837 10.5855 11.4537 11.4555 13.1937 11.4555ZM23.7737 11.4555H26.8537C28.5837 11.4555 29.4637 10.5855 29.4637 8.7755V2.6655C29.4637 0.8655 28.5837 -0.0045 26.8537 -0.0045H23.7737C22.0237 -0.0045 21.1537 0.8655 21.1537 2.6655V8.7755C21.1537 10.5855 22.0237 11.4555 23.7737 11.4555ZM2.6137 25.1655H5.7037C7.4337 25.1655 8.3137 24.3055 8.3137 22.5055V16.3755C8.3137 14.5855 7.4337 13.7155 5.7037 13.7155H2.6137C0.8737 13.7155 0.0037 14.5855 0.0037 16.3755V22.5055C0.0037 24.3055 0.8737 25.1655 2.6137 25.1655ZM13.1937 25.1655H16.2837C18.0237 25.1655 18.8937 24.3055 18.8937 22.5055V16.3755C18.8937 14.5855 18.0237 13.7155 16.2837 13.7155H13.1937C11.4537 13.7155 10.5837 14.5855 10.5837 16.3755V22.5055C10.5837 24.3055 11.4537 25.1655 13.1937 25.1655ZM23.7737 25.1655H26.8537C28.5837 25.1655 29.4637 24.3055 29.4637 22.5055V16.3755C29.4637 14.5855 28.5837 13.7155 26.8537 13.7155H23.7737C22.0237 13.7155 21.1537 14.5855 21.1537 16.3755V22.5055C21.1537 24.3055 22.0237 25.1655 23.7737 25.1655Z" /></svg>