<svg viewBox="0 0 28.917428998390946 34.27139725918506" xmlns="http://www.w3.org/2000/svg"><path d="M11.7851 5.1547H21.4151L21.1551 3.6047C20.6751 0.7747 19.0051 -0.3753 16.2251 0.1047L3.5451 2.3347C0.7651 2.8247 -0.3849 4.4847 0.1151 7.3147L3.3551 25.6947C3.6651 27.4947 4.4551 28.5847 5.6851 29.0347V11.3047C5.6851 7.4047 7.9151 5.1547 11.7851 5.1547ZM28.9151 11.3047C28.9151 8.4447 27.5051 7.0047 24.6751 7.0047H11.7851C8.9551 7.0047 7.5451 8.4447 7.5451 11.3047V29.9747C7.5451 32.8347 8.9751 34.2747 11.7851 34.2747H24.6751C27.4951 34.2747 28.9151 32.8347 28.9151 29.9747Z" /></svg>