<svg viewBox="0 0 28.917428998390946 34.27139725918506" xmlns="http://www.w3.org/2000/svg"><path d="M28.9151 11.3047C28.9151 8.4447 27.5051 7.0047 24.6751 7.0047H21.7351L21.1551 3.6047C20.6551 0.7747 19.0051 -0.3753 16.2251 0.1047L3.5451 2.3347C0.7651 2.8247 -0.3849 4.4847 0.1151 7.3147L3.3551 25.6947C3.8051 28.2547 5.2251 29.4747 7.5451 29.2847V29.9747C7.5451 32.8347 8.9751 34.2747 11.7851 34.2747H24.6751C27.4951 34.2747 28.9151 32.8347 28.9151 29.9747ZM5.5151 25.2747L2.2851 6.9547C2.0551 5.6047 2.6251 4.7447 4.0351 4.4947L16.5051 2.2947C17.8951 2.0447 18.7451 2.6647 18.9751 4.0147L19.5251 7.0047H11.7851C8.9751 7.0047 7.5451 8.4447 7.5451 11.3047V27.0547C6.4151 27.1047 5.7151 26.4647 5.5151 25.2747ZM26.7151 11.3447V29.9547C26.7151 31.2947 25.9951 32.0747 24.5651 32.0747H11.9051C10.4851 32.0747 9.7451 31.2947 9.7451 29.9547V11.3447C9.7451 9.9747 10.4851 9.2147 11.9051 9.2147H24.5651C25.9951 9.2147 26.7151 9.9747 26.7151 11.3447Z" /></svg>