<svg viewBox="0 0 33.072265625 33.374083046548286" xmlns="http://www.w3.org/2000/svg"><path d="M32.3037 10.695C32.7037 10.695 33.0737 10.335 33.0737 9.915V8.235C33.0737 4.775 30.7937 2.485 27.3337 2.485H27.0837V0.875C27.0837 -0.045 26.3837 -0.235 25.7037 0.275L22.6037 2.545C22.0837 2.925 22.0637 3.365 22.6037 3.745L25.7037 6.015C26.3837 6.525 27.0837 6.315 27.0837 5.445V3.925H27.3137C29.8437 3.925 31.5137 5.645 31.5137 8.245V9.915C31.5137 10.335 31.8837 10.695 32.3037 10.695ZM8.4937 25.025H24.7337C26.3137 25.025 27.4637 23.805 27.4637 22.145V11.225C27.4637 9.575 26.3137 8.365 24.7337 8.365H8.4937C6.9037 8.365 5.7737 9.575 5.7737 11.225V22.145C5.7737 23.805 6.9037 25.025 8.4937 25.025ZM8.7337 22.965C8.2037 22.965 7.8337 22.555 7.8337 21.955V11.415C7.8337 10.845 8.2037 10.435 8.7337 10.435H24.4837C25.0337 10.435 25.4137 10.845 25.4137 11.415V21.955C25.4137 22.555 25.0337 22.965 24.4837 22.965ZM0.7837 22.535C0.3737 22.535 0.0037 22.885 0.0037 23.315V24.975C0.0037 28.505 2.3537 30.885 5.9037 30.885H6.1437V32.495C6.1437 33.415 6.8337 33.605 7.5237 33.105L10.6237 30.815C11.1437 30.445 11.1537 30.015 10.6237 29.615L7.5237 27.355C6.8337 26.855 6.1437 27.055 6.1437 27.935V29.445H5.9237C3.2437 29.445 1.5537 27.575 1.5537 24.975V23.315C1.5537 22.885 1.2037 22.535 0.7837 22.535Z" /></svg>