<svg viewBox="0 0 40.930249013475624 26.47340934889382" xmlns="http://www.w3.org/2000/svg"><path d="M39.5437 3.31L40.5637 2.27C41.0437 1.77 41.0537 1.1 40.5737 0.63L40.2537 0.31C39.8137 -0.13 39.1337 -0.09 38.6637 0.37L37.6437 1.39ZM23.6937 17.6L26.4837 16.37L38.5237 4.34L36.6037 2.44L24.5837 14.47L23.2737 17.16C23.1437 17.4 23.4337 17.72 23.6937 17.6ZM3.9937 26.47H30.9137C33.4837 26.47 34.9037 25.12 34.9037 22.54V10.89L32.7037 13.09V22.65C32.7037 23.78 32.0637 24.42 30.9237 24.42H3.9737C2.8437 24.42 2.2037 23.78 2.2037 22.65V11.15C2.2037 10.01 2.8437 9.37 3.9737 9.37H26.7037L28.7637 7.32H3.9937C1.4237 7.32 0.0037 8.67 0.0037 11.26V22.54C0.0037 25.12 1.4237 26.47 3.9937 26.47ZM7.2637 18.84C8.3437 18.84 9.2137 17.97 9.2137 16.89C9.2137 15.81 8.3437 14.93 7.2637 14.93C6.1837 14.93 5.3037 15.81 5.3037 16.89C5.3037 17.97 6.1837 18.84 7.2637 18.84ZM13.1537 18.84C14.2337 18.84 15.1037 17.97 15.1037 16.89C15.1037 15.81 14.2337 14.93 13.1537 14.93C12.0737 14.93 11.1937 15.81 11.1937 16.89C11.1937 17.97 12.0737 18.84 13.1537 18.84ZM19.0437 18.84C20.1237 18.84 21.0037 17.97 21.0037 16.89C21.0037 15.81 20.1237 14.93 19.0437 14.93C17.9637 14.93 17.0937 15.81 17.0937 16.89C17.0937 17.97 17.9637 18.84 19.0437 18.84Z" /></svg>