<svg viewBox="0 0 31.74609375 29.3125" xmlns="http://www.w3.org/2000/svg"><path d="M4.2337 29.3173H18.7537C21.5837 29.3173 22.9937 27.8873 22.9937 25.0373V18.3073H20.7937V24.9873C20.7937 26.3573 20.0737 27.1073 18.6437 27.1073H4.3437C2.9237 27.1073 2.2037 26.3573 2.2037 24.9873V4.3373C2.2037 2.9673 2.9237 2.1973 4.3437 2.1973H18.6437C20.0737 2.1973 20.7937 2.9673 20.7937 4.3373V11.0073H22.9937V4.2973C22.9937 1.4473 21.5837 -0.0027 18.7537 -0.0027H4.2337C1.4037 -0.0027 0.0037 1.4473 0.0037 4.2973V25.0373C0.0037 27.8873 1.4037 29.3173 4.2337 29.3173ZM11.7437 14.6573C11.7437 15.2473 12.2237 15.7373 12.7937 15.7373H26.7037L28.7537 15.6573L27.9437 16.4173L25.6937 18.5373C25.4737 18.7273 25.3637 19.0173 25.3637 19.2773C25.3637 19.8373 25.7737 20.2773 26.3137 20.2773C26.6237 20.2773 26.8337 20.1473 27.0437 19.9473L31.3937 15.4473C31.6637 15.1773 31.7437 14.9273 31.7437 14.6573C31.7437 14.3673 31.6637 14.1373 31.3937 13.8673L27.0437 9.3473C26.8337 9.1473 26.6237 9.0373 26.3137 9.0373C25.7737 9.0373 25.3637 9.4473 25.3637 10.0173C25.3637 10.2773 25.4737 10.5773 25.6937 10.7773L27.9437 12.8773L28.7537 13.6573L26.7037 13.5673H12.7937C12.2237 13.5673 11.7437 14.0673 11.7437 14.6573Z" /></svg>