<svg viewBox="0 0 34.015625 32.287863518133236" xmlns="http://www.w3.org/2000/svg"><path d="M31.9637 31.982C32.3737 32.392 33.0537 32.392 33.4537 31.982C33.8637 31.552 33.8637 30.902 33.4537 30.492L3.2937 0.302C2.8837 -0.098 2.2137 -0.108 1.7937 0.302C1.3937 0.712 1.3937 1.392 1.7937 1.792ZM7.5037 2.272L11.9637 6.742H27.1137V6.512C27.1137 3.692 25.6637 2.272 22.8137 2.272ZM0.0037 19.402C0.0037 22.232 1.4237 23.642 4.2937 23.642H4.8837V12.842C4.8837 11.022 5.3837 9.582 6.3337 8.592L1.1437 3.392C0.3837 4.052 0.0037 5.092 0.0037 6.512ZM13.8337 8.602L33.3437 28.112C33.7837 27.532 34.0137 26.742 34.0137 25.732V12.842C34.0137 10.022 32.5637 8.602 29.7237 8.602ZM6.7537 25.732C6.7537 28.562 8.1737 29.972 11.0437 29.972H27.7137L7.6737 9.912C7.0637 10.582 6.7537 11.572 6.7537 12.842Z" /></svg>