<svg viewBox="0 0 34.26171875 26.263671875" xmlns="http://www.w3.org/2000/svg"><path d="M2.3637 7.7534H7.8737C9.3637 7.7534 10.2437 6.8734 10.2437 5.3334V2.4234C10.2437 0.8734 9.3637 0.0034 7.8737 0.0034H2.3637C0.8737 0.0034 0.0037 0.8734 0.0037 2.4234V5.3334C0.0037 6.8734 0.8737 7.7534 2.3637 7.7534ZM14.3737 7.7534H19.8837C21.3737 7.7534 22.2337 6.8734 22.2337 5.3334V2.4234C22.2337 0.8734 21.3737 0.0034 19.8837 0.0034H14.3737C12.8637 0.0034 12.0037 0.8734 12.0037 2.4234V5.3334C12.0037 6.8734 12.8637 7.7534 14.3737 7.7534ZM26.3837 7.7534H31.8937C33.3837 7.7534 34.2637 6.8734 34.2637 5.3334V2.4234C34.2637 0.8734 33.3837 0.0034 31.8937 0.0034H26.3837C24.8937 0.0034 24.0237 0.8734 24.0237 2.4234V5.3334C24.0237 6.8734 24.8937 7.7534 26.3837 7.7534ZM2.6237 5.8634C2.1337 5.8634 1.8837 5.6034 1.8837 5.0834V2.6434C1.8837 2.1334 2.1337 1.8734 2.6237 1.8734H7.6037C8.0937 1.8734 8.3637 2.1334 8.3637 2.6434V5.0834C8.3637 5.6034 8.0937 5.8634 7.6037 5.8634ZM14.6137 5.8634C14.1237 5.8634 13.8737 5.6034 13.8737 5.0834V2.6434C13.8737 2.1334 14.1237 1.8734 14.6137 1.8734H19.6237C20.0937 1.8734 20.3537 2.1334 20.3537 2.6434V5.0834C20.3537 5.6034 20.0937 5.8634 19.6237 5.8634ZM26.6437 5.8634C26.1537 5.8634 25.8937 5.6034 25.8937 5.0834V2.6434C25.8937 2.1334 26.1537 1.8734 26.6437 1.8734H31.6237C32.1137 1.8734 32.3737 2.1334 32.3737 2.6434V5.0834C32.3737 5.6034 32.1137 5.8634 31.6237 5.8634ZM2.3637 17.0034H7.8737C9.3637 17.0034 10.2437 16.1434 10.2437 14.6034V11.6734C10.2437 10.1334 9.3637 9.2534 7.8737 9.2534H2.3637C0.8737 9.2534 0.0037 10.1334 0.0037 11.6734V14.6034C0.0037 16.1434 0.8737 17.0034 2.3637 17.0034ZM14.3737 17.0034H19.8837C21.3737 17.0034 22.2337 16.1434 22.2337 14.6034V11.6734C22.2337 10.1334 21.3737 9.2534 19.8837 9.2534H14.3737C12.8637 9.2534 12.0037 10.1334 12.0037 11.6734V14.6034C12.0037 16.1434 12.8637 17.0034 14.3737 17.0034ZM26.3837 17.0034H31.8937C33.3837 17.0034 34.2637 16.1434 34.2637 14.6034V11.6734C34.2637 10.1334 33.3837 9.2534 31.8937 9.2534H26.3837C24.8937 9.2534 24.0237 10.1334 24.0237 11.6734V14.6034C24.0237 16.1434 24.8937 17.0034 26.3837 17.0034ZM2.6237 15.1334C2.1337 15.1334 1.8837 14.8734 1.8837 14.3534V11.8934C1.8837 11.3934 2.1337 11.1334 2.6237 11.1334H7.6037C8.0937 11.1334 8.3637 11.3934 8.3637 11.8934V14.3534C8.3637 14.8734 8.0937 15.1334 7.6037 15.1334ZM14.6137 15.1334C14.1237 15.1334 13.8737 14.8734 13.8737 14.3534V11.8934C13.8737 11.3934 14.1237 11.1334 14.6137 11.1334H19.6237C20.0937 11.1334 20.3537 11.3934 20.3537 11.8934V14.3534C20.3537 14.8734 20.0937 15.1334 19.6237 15.1334ZM26.6437 15.1334C26.1537 15.1334 25.8937 14.8734 25.8937 14.3534V11.8934C25.8937 11.3934 26.1537 11.1334 26.6437 11.1334H31.6237C32.1137 11.1334 32.3737 11.3934 32.3737 11.8934V14.3534C32.3737 14.8734 32.1137 15.1334 31.6237 15.1334ZM2.3637 26.2634H7.8737C9.3637 26.2634 10.2437 25.3934 10.2437 23.8434V20.9334C10.2437 19.3834 9.3637 18.5134 7.8737 18.5134H2.3637C0.8737 18.5134 0.0037 19.3834 0.0037 20.9334V23.8434C0.0037 25.3934 0.8737 26.2634 2.3637 26.2634ZM14.3737 26.2634H19.8837C21.3737 26.2634 22.2337 25.3934 22.2337 23.8434V20.9334C22.2337 19.3834 21.3737 18.5134 19.8837 18.5134H14.3737C12.8637 18.5134 12.0037 19.3834 12.0037 20.9334V23.8434C12.0037 25.3934 12.8637 26.2634 14.3737 26.2634ZM26.3837 26.2634H31.8937C33.3837 26.2634 34.2637 25.3934 34.2637 23.8434V20.9334C34.2637 19.3834 33.3837 18.5134 31.8937 18.5134H26.3837C24.8937 18.5134 24.0237 19.3834 24.0237 20.9334V23.8434C24.0237 25.3934 24.8937 26.2634 26.3837 26.2634ZM2.6237 24.3734C2.1337 24.3734 1.8837 24.1134 1.8837 23.6134V21.1634C1.8837 20.6434 2.1337 20.3834 2.6237 20.3834H7.6037C8.0937 20.3834 8.3637 20.6434 8.3637 21.1634V23.6134C8.3637 24.1134 8.0937 24.3734 7.6037 24.3734ZM14.6137 24.3734C14.1237 24.3734 13.8737 24.1134 13.8737 23.6134V21.1634C13.8737 20.6434 14.1237 20.3834 14.6137 20.3834H19.6237C20.0937 20.3834 20.3537 20.6434 20.3537 21.1634V23.6134C20.3537 24.1134 20.0937 24.3734 19.6237 24.3734ZM26.6437 24.3734C26.1537 24.3734 25.8937 24.1134 25.8937 23.6134V21.1634C25.8937 20.6434 26.1537 20.3834 26.6437 20.3834H31.6237C32.1137 20.3834 32.3737 20.6434 32.3737 21.1634V23.6134C32.3737 24.1134 32.1137 24.3734 31.6237 24.3734Z" /></svg>