<svg viewBox="0 0 27.890625 27.890625" xmlns="http://www.w3.org/2000/svg"><path d="M13.9427 27.8864C21.6427 27.8864 27.8927 21.6264 27.8927 13.9464C27.8927 6.2464 21.6427 -0.0036 13.9427 -0.0036C6.2627 -0.0036 0.0027 6.2464 0.0027 13.9464C0.0027 21.6264 6.2627 27.8864 13.9427 27.8864ZM8.0027 11.9264V17.5364H7.6727C6.3827 17.5364 5.7427 16.8964 5.7427 15.6264V9.0764C5.7427 7.7964 6.3827 7.1664 7.6727 7.1664H17.1027C18.4027 7.1664 19.0327 7.7964 19.0327 9.0764V9.2464H10.6927C8.9127 9.2464 8.0027 10.1564 8.0027 11.9264ZM10.7727 20.5264C9.4727 20.5264 8.8327 19.8964 8.8327 18.6064V12.0064C8.8327 10.7464 9.4727 10.0864 10.7727 10.0864H20.1927C21.4927 10.0864 22.1227 10.7464 22.1227 12.0064V18.6064C22.1227 19.8964 21.4927 20.5264 20.1927 20.5264Z" /></svg>