<svg viewBox="0 0 27.890625 27.890625" xmlns="http://www.w3.org/2000/svg"><path d="M13.9427 27.8864C21.6427 27.8864 27.8927 21.6464 27.8927 13.9464C27.8927 6.2464 21.6427 -0.0036 13.9427 -0.0036C6.2527 -0.0036 0.0027 6.2464 0.0027 13.9464C0.0027 21.6464 6.2527 27.8864 13.9427 27.8864ZM13.9427 25.5664C7.5227 25.5664 2.3227 20.3664 2.3227 13.9464C2.3227 7.5164 7.5227 2.3264 13.9427 2.3264C20.3727 2.3264 25.5627 7.5164 25.5627 13.9464C25.5627 20.3664 20.3727 25.5664 13.9427 25.5664ZM5.3727 12.6964V13.5464C5.3727 14.0364 5.7827 14.4464 6.2727 14.4464C6.7927 14.4464 7.1927 14.0364 7.1927 13.5464V12.7964C7.1927 11.5264 8.0927 10.6764 9.4327 10.6764H14.7927V12.3764C14.7927 12.8364 15.0927 13.1264 15.5327 13.1264C15.7227 13.1264 15.9327 13.0464 16.1027 12.9164L19.1927 10.3464C19.5827 10.0364 19.5827 9.5464 19.1927 9.2264L16.1027 6.6464C15.9327 6.5264 15.7227 6.4364 15.5327 6.4364C15.0927 6.4364 14.7927 6.7264 14.7927 7.1764V8.8764H9.5727C7.0227 8.8764 5.3727 10.3864 5.3727 12.6964ZM22.5027 15.2264V14.3964C22.5027 13.8764 22.1227 13.4964 21.6027 13.4964C21.0727 13.4964 20.6827 13.8764 20.6827 14.3964V15.1364C20.6827 16.4164 19.7827 17.2664 18.4427 17.2664H13.0827V15.5764C13.0827 15.1164 12.7927 14.8364 12.3427 14.8364C12.1527 14.8364 11.9527 14.9164 11.7827 15.0364L8.6827 17.5964C8.3027 17.9064 8.2827 18.4264 8.6827 18.7264L11.7827 21.3164C11.9527 21.4364 12.1527 21.5164 12.3427 21.5164C12.7927 21.5164 13.0827 21.2364 13.0827 20.7664V19.0764H18.3027C20.8527 19.0764 22.5027 17.5564 22.5027 15.2264Z" /></svg>