<svg viewBox="0 0 28.84765625 25.1015625" xmlns="http://www.w3.org/2000/svg"><path d="M9.3237 25.0981C10.0637 25.0981 10.5437 24.6081 10.5437 23.8981C10.5437 23.5381 10.4137 23.2881 10.2137 23.0681L6.2637 19.2181L3.6737 17.0081L6.8737 17.1481H24.3337C27.5237 17.1481 28.8437 15.6781 28.8437 12.5881V4.5081C28.8437 1.3281 27.5237 -0.0019 24.3337 -0.0019H16.6837C15.9237 -0.0019 15.4337 0.5481 15.4337 1.2181C15.4337 1.8881 15.9237 2.4381 16.6837 2.4381H24.3337C25.7837 2.4381 26.4037 3.0581 26.4037 4.5081V12.5881C26.4037 14.0781 25.7837 14.7081 24.3337 14.7081H6.8737L3.6737 14.8481L6.2637 12.6281L10.2137 8.7881C10.4137 8.5681 10.5437 8.2981 10.5437 7.9481C10.5437 7.2481 10.0637 6.7381 9.3237 6.7381C9.0337 6.7381 8.6837 6.8881 8.4537 7.1181L0.4137 15.0081C0.1337 15.2681 0.0037 15.5881 0.0037 15.9281C0.0037 16.2581 0.1337 16.5881 0.4137 16.8481L8.4537 24.7281C8.6837 24.9681 9.0337 25.0981 9.3237 25.0981Z" /></svg>