<svg viewBox="0 0 22.99609375 29.3125" xmlns="http://www.w3.org/2000/svg"><path d="M0.0037 25.0373C0.0037 27.8873 1.4037 29.3173 4.2337 29.3173H18.7537C21.5837 29.3173 22.9937 27.8873 22.9937 25.0373V4.2973C22.9937 1.4473 21.5837 -0.0027 18.7537 -0.0027H4.2337C1.4037 -0.0027 0.0037 1.4473 0.0037 4.2973ZM4.7837 12.5073C4.3337 12.5073 4.0637 12.2473 4.0637 11.8173C4.0637 11.7173 4.0837 11.5273 4.1537 11.3573L6.1637 5.7973C6.3737 5.2273 6.7037 4.9473 7.2437 4.9473C7.8337 4.9473 8.1737 5.2273 8.3837 5.7973L10.3937 11.3573C10.4437 11.5373 10.4737 11.7173 10.4737 11.8173C10.4737 12.2473 10.2137 12.5073 9.7437 12.5073C9.3937 12.5073 9.1637 12.3073 9.0337 11.8573L8.5437 10.4973H5.9737L5.5137 11.8573C5.3837 12.3173 5.1537 12.5073 4.7837 12.5073ZM13.3937 7.3173C12.8937 7.3173 12.5337 6.9473 12.5337 6.4673C12.5337 5.9973 12.8937 5.6373 13.3937 5.6373H18.1137C18.5937 5.6373 18.9637 5.9973 18.9637 6.4673C18.9637 6.9473 18.5937 7.3173 18.1137 7.3173ZM6.2937 9.3673H8.2437L7.3037 6.4973H7.2237ZM13.3937 12.0873C12.8937 12.0873 12.5337 11.7173 12.5337 11.2373C12.5337 10.7773 12.8937 10.4073 13.3937 10.4073H18.1137C18.5937 10.4073 18.9637 10.7773 18.9637 11.2373C18.9637 11.7173 18.5937 12.0873 18.1137 12.0873ZM3.9937 23.9373V17.2673C3.9937 16.0673 4.6737 15.4473 5.8337 15.4473H17.1737C18.3737 15.4473 19.0037 16.0673 19.0037 17.2673V23.8073H17.5037L14.7637 20.6573C14.5237 20.3673 14.1637 20.2573 13.8237 20.2573C13.5037 20.2573 13.1837 20.3873 12.8637 20.6573L10.0637 23.1473L8.9437 22.1173C8.6837 21.8873 8.3837 21.7773 8.1037 21.7773C7.8337 21.7773 7.5637 21.8773 7.3037 22.1173L5.4937 23.9373ZM9.0537 20.6573C9.8537 20.6573 10.5237 19.9773 10.5237 19.1773C10.5237 18.3573 9.8537 17.7373 9.0537 17.7073C8.2337 17.6773 7.5737 18.3573 7.5737 19.1773C7.5737 19.9773 8.2337 20.6573 9.0537 20.6573Z" /></svg>