<svg viewBox="0 0 32.23828125 24.541015625" xmlns="http://www.w3.org/2000/svg"><path d="M10.7737 24.5384H21.4637C29.3937 24.5384 32.2337 21.5984 32.2337 14.2884V10.2684C32.2337 2.9484 29.3937 -0.0016 21.4637 -0.0016H10.7737C2.8437 -0.0016 0.0037 2.9484 0.0037 10.2684V14.2884C0.0037 21.5984 2.8437 24.5384 10.7737 24.5384ZM10.7737 22.3384C4.3237 22.3384 2.2037 20.2484 2.2037 14.2884V10.2684C2.2037 4.3084 4.3237 2.1984 10.7737 2.1984H21.4637C27.9137 2.1984 30.0337 4.3084 30.0337 10.2684V14.2884C30.0337 20.2484 27.9137 22.3384 21.4637 22.3384ZM16.4737 18.0084C17.0037 18.0084 17.3637 17.6384 17.3637 17.0484V9.6684H17.4437L19.3037 16.8984C19.4437 17.4184 19.7537 17.7984 20.3037 17.7984C20.8737 17.7984 21.1637 17.4284 21.3037 16.8884L23.1637 9.6684H23.2437V17.0484C23.2437 17.6384 23.5737 18.0084 24.1137 18.0084C24.7037 18.0084 25.0037 17.6384 25.0037 17.0484V7.9884C25.0037 7.0984 24.4737 6.5884 23.6137 6.5884C22.8137 6.5884 22.3637 6.9684 22.1937 7.7384L20.3337 15.1884H20.2737L18.3737 7.7384C18.2137 6.9684 17.7337 6.5884 16.9937 6.5884C16.1237 6.5884 15.5837 7.1184 15.5837 7.9884V17.0484C15.5837 17.6384 15.9237 18.0084 16.4737 18.0084ZM8.0137 17.9884C8.6237 17.9884 9.0137 17.5984 9.0137 16.9484V13.5884H10.3037L11.7337 17.1684C11.9237 17.6884 12.2237 17.9884 12.7737 17.9884C13.2237 17.9884 13.7137 17.7284 13.7137 17.0184C13.7137 16.8684 13.6137 16.5984 13.4937 16.2784L12.1937 13.1784C13.3037 12.6084 13.7637 11.4184 13.7637 10.1884C13.7637 7.9584 12.4537 6.7684 10.3237 6.7684H7.9937C7.3537 6.7684 7.0037 7.1684 7.0037 7.8084V16.9484C7.0037 17.5784 7.3737 17.9884 8.0137 17.9884ZM9.0137 12.1284V8.3584H10.1337C11.1837 8.3584 11.7437 9.1284 11.7437 10.2284C11.7437 11.3084 11.2537 12.1284 10.1337 12.1284Z" /></svg>