<svg viewBox="0 0 39.40299900449957 20.466796875" xmlns="http://www.w3.org/2000/svg"><path d="M1.1238 20.464H2.8938C3.7238 20.464 4.1338 20.074 4.3638 19.484C6.8638 13.274 9.3938 7.054 11.9038 0.844C12.1038 0.394 11.8838 0.004 11.4038 0.004H10.5138C10.0338 0.004 9.7338 0.234 9.5338 0.644C6.3938 6.744 3.2938 12.834 0.1638 18.954C-0.2162 19.644 0.0538 20.464 1.1238 20.464ZM36.5038 20.464H38.2938C39.3438 20.464 39.6238 19.644 39.2338 18.954C36.1338 12.834 33.0038 6.744 29.8838 0.644C29.6638 0.234 29.3638 0.004 28.8938 0.004H28.0038C27.5238 0.004 27.3138 0.394 27.4938 0.844C30.0138 7.054 32.5438 13.274 35.0438 19.484C35.2738 20.074 35.6838 20.464 36.5038 20.464ZM19.3838 3.734H19.9838C20.5538 3.734 20.9838 3.304 20.9838 2.734V0.994C20.9838 0.424 20.5538 0.004 19.9838 0.004H19.3838C18.8238 0.004 18.3938 0.424 18.3938 0.994V2.734C18.3938 3.304 18.8238 3.734 19.3838 3.734ZM19.3838 11.524H19.9838C20.5538 11.524 20.9838 11.114 20.9838 10.544V7.644C20.9838 7.064 20.5538 6.654 19.9838 6.654H19.3838C18.8238 6.654 18.3938 7.064 18.3938 7.644V10.544C18.3938 11.114 18.8238 11.524 19.3838 11.524ZM19.3838 20.464H19.9838C20.5538 20.464 20.9838 20.044 20.9838 19.464V15.544C20.9838 14.974 20.5538 14.564 19.9838 14.564H19.3838C18.8238 14.564 18.3938 14.974 18.3938 15.544V19.464C18.3938 20.044 18.8238 20.464 19.3838 20.464Z" /></svg>