<svg viewBox="0 0 31.5 24.040523096843252" xmlns="http://www.w3.org/2000/svg"><path d="M8.7627 23.9234L15.7327 19.9734L22.7327 23.9234C23.1427 24.1734 23.6827 24.0034 23.9127 23.5734C24.1427 23.1834 23.9927 22.6434 23.5827 22.4234L18.9727 19.8334C26.0827 19.2634 31.5027 16.7934 31.5027 13.1634V6.7634V6.7534C31.5027 2.6434 24.4827 0.0034 15.7327 0.0034C7.0027 0.0034 0.0027 2.6434 0.0027 6.7534V6.7634V13.1634C0.0027 16.7934 5.4027 19.2634 12.5127 19.8334L7.9027 22.4234C7.4927 22.6434 7.3427 23.1834 7.5727 23.5734C7.8027 24.0034 8.3427 24.1734 8.7627 23.9234ZM15.7327 11.3034C9.0227 11.3034 2.5027 9.5034 2.5027 6.7534C2.5027 4.2134 7.4627 2.0334 15.7327 2.0334C24.0227 2.0334 28.9827 4.2134 28.9827 6.7534C28.9827 9.5034 22.4627 11.3034 15.7327 11.3034ZM15.7327 6.9634C18.4327 6.9634 19.9327 6.2434 19.9327 5.2134C19.9327 4.1934 18.4527 3.4434 15.7327 3.4434C13.0327 3.4434 11.5627 4.1934 11.5627 5.2134C11.5627 6.2434 13.0527 6.9634 15.7327 6.9634ZM15.7327 5.9034C14.0427 5.9034 13.1427 5.6034 13.1427 5.2134C13.1427 4.8234 13.9827 4.4934 15.7327 4.4934C17.4827 4.4934 18.3227 4.8234 18.3227 5.2134C18.3227 5.6034 17.4327 5.9034 15.7327 5.9034ZM11.0727 9.8034C11.8427 9.8034 12.4827 9.5034 12.4827 9.1034C12.4827 8.7334 11.8427 8.4234 11.0727 8.4234C10.3127 8.4234 9.6827 8.7334 9.6827 9.1034C9.6827 9.5034 10.3127 9.8034 11.0727 9.8034ZM20.4127 9.8034C21.1827 9.8034 21.8227 9.5034 21.8227 9.1034C21.8227 8.7334 21.1827 8.4234 20.4127 8.4234C19.6427 8.4234 19.0127 8.7334 19.0127 9.1034C19.0127 9.5034 19.6427 9.8034 20.4127 9.8034ZM15.7327 10.3534C16.5027 10.3534 17.1427 10.0234 17.1427 9.6534C17.1427 9.2734 16.5027 8.9534 15.7327 8.9534C14.9827 8.9534 14.3527 9.2734 14.3527 9.6534C14.3527 10.0234 14.9827 10.3534 15.7327 10.3534ZM15.7327 13.4834C21.3127 13.4834 26.1827 12.4034 28.9827 10.5634V13.1634C28.9827 15.9134 22.6027 17.7834 15.7327 17.7834C8.8827 17.7834 2.5327 15.9134 2.5327 13.1634V10.5834C5.3327 12.4034 10.1827 13.4834 15.7327 13.4834Z" /></svg>