<svg viewBox="0 0 29.4765625 27.91796875" xmlns="http://www.w3.org/2000/svg"><path d="M5.8937 5.2001H26.8837C28.3137 5.2001 29.4737 4.0301 29.4737 2.6001C29.4737 1.1601 28.3137 0.0001 26.8837 0.0001H5.8937C6.4537 0.7101 6.7937 1.6101 6.7937 2.6001C6.7937 3.5801 6.4537 4.4801 5.8937 5.2001ZM2.5937 5.2001C4.0337 5.2001 5.1937 4.0301 5.1937 2.6001C5.1937 1.1601 4.0337 0.0001 2.5937 0.0001C1.1637 0.0001 0.0037 1.1601 0.0037 2.6001C0.0037 4.0301 1.1637 5.2001 2.5937 5.2001ZM2.5937 8.3801C3.1137 8.3801 3.5437 7.9601 3.5437 7.4501C3.5437 6.9501 3.1137 6.5201 2.5937 6.5201C2.0937 6.5201 1.6637 6.9501 1.6637 7.4501C1.6637 7.9601 2.0937 8.3801 2.5937 8.3801ZM2.5937 11.5801C3.1137 11.5801 3.5437 11.1601 3.5437 10.6501C3.5437 10.1301 3.1137 9.7201 2.5937 9.7201C2.0937 9.7201 1.6637 10.1301 1.6637 10.6501C1.6637 11.1601 2.0937 11.5801 2.5937 11.5801ZM2.5937 14.7801C3.1137 14.7801 3.5437 14.3401 3.5437 13.8501C3.5437 13.3301 3.1137 12.9101 2.5937 12.9101C2.0937 12.9101 1.6637 13.3301 1.6637 13.8501C1.6637 14.3401 2.0937 14.7801 2.5937 14.7801ZM2.5937 17.9801C3.1137 17.9801 3.5437 17.5401 3.5437 17.0501C3.5437 16.5301 3.1137 16.1101 2.5937 16.1101C2.0937 16.1101 1.6637 16.5301 1.6637 17.0501C1.6637 17.5401 2.0937 17.9801 2.5937 17.9801ZM2.5937 21.1801C3.1137 21.1801 3.5437 20.7401 3.5437 20.2301C3.5437 19.7301 3.1137 19.3001 2.5937 19.3001C2.0937 19.3001 1.6637 19.7301 1.6637 20.2301C1.6637 20.7401 2.0937 21.1801 2.5937 21.1801ZM2.5937 27.9201C3.2037 27.9201 3.7037 27.4301 3.7037 26.8201V23.6001C3.7037 23.0001 3.2037 22.5001 2.5937 22.5001C1.9937 22.5001 1.5037 23.0001 1.5037 23.6001V26.8201C1.5037 27.4301 2.0137 27.9201 2.5937 27.9201Z" /></svg>