<svg viewBox="0 0 27.890625 27.890625" xmlns="http://www.w3.org/2000/svg"><path d="M13.9427 27.8927C21.6427 27.8927 27.8927 21.6427 27.8927 13.9427C27.8927 6.2627 21.6427 0.0027 13.9427 0.0027C6.2627 0.0027 0.0027 6.2627 0.0027 13.9427C0.0027 21.6427 6.2627 27.8927 13.9427 27.8927ZM12.2527 15.6427C12.2327 15.0927 12.2227 14.5327 12.2227 13.9427C12.2227 9.1027 12.9427 5.7827 13.9327 5.7727C18.4027 5.7727 22.1227 9.4727 22.1227 13.9427C22.1027 14.9327 18.7827 15.6727 13.9427 15.6727C13.3527 15.6727 12.7827 15.6527 12.2527 15.6427ZM10.9327 15.5727C7.7627 15.3427 5.7727 14.7227 5.7727 13.9427C5.7827 10.0527 8.5827 6.7427 12.2527 5.9327C11.4127 7.5627 10.8927 10.4227 10.8927 13.9427C10.8927 14.5027 10.9127 15.0427 10.9327 15.5727ZM11.0227 16.8527C11.2227 19.0427 11.6727 20.8227 12.2527 21.9527C9.1227 21.2727 6.6127 18.7727 5.9327 15.6227C7.0827 16.2127 8.8427 16.6527 11.0227 16.8527ZM12.3227 16.9427C12.8427 16.9627 13.3827 16.9827 13.9427 16.9827C17.4727 16.9827 20.3427 16.4627 21.9527 15.6227C21.1527 19.3027 17.8527 22.1227 13.9427 22.1227C13.1627 22.1227 12.5327 20.1127 12.3227 16.9427Z" /></svg>