<svg viewBox="0 0 30.5703125 30.5703125" xmlns="http://www.w3.org/2000/svg"><path d="M15.2827 30.5663C23.6827 30.5663 30.5727 23.6763 30.5727 15.2863C30.5727 6.8863 23.6827 -0.0038 15.2827 -0.0038C6.8927 -0.0038 0.0027 6.8863 0.0027 15.2863C0.0027 23.6763 6.8927 30.5663 15.2827 30.5663ZM15.2827 25.4862C9.6527 25.4862 5.0827 20.9162 5.0827 15.2863C5.0827 9.6363 9.6527 5.0863 15.2827 5.0863C20.9327 5.0863 25.4827 9.6363 25.4827 15.2863C25.4827 20.9162 20.9327 25.4862 15.2827 25.4862ZM12.9427 21.5763C13.4527 21.5763 13.7527 21.2563 13.7527 20.7563V19.4162H17.0327C17.2927 19.4162 17.4727 19.2362 17.4727 18.9463C17.4727 18.6763 17.2927 18.5163 17.0327 18.5163H13.7527V16.7362H16.2027C18.7727 16.7362 20.1827 15.0263 20.1827 12.9563C20.1827 10.8263 18.7127 9.1563 16.2427 9.1563H12.9627C12.4927 9.1563 12.1527 9.5163 12.1527 10.0063V15.8163H10.7427C10.4627 15.8163 10.2827 16.0063 10.2827 16.2863C10.2827 16.5563 10.4627 16.7362 10.7427 16.7362H12.1527V18.5163H10.7427C10.4627 18.5163 10.2827 18.6763 10.2827 18.9463C10.2827 19.2362 10.4627 19.4162 10.7427 19.4162H12.1527V20.7563C12.1527 21.2563 12.4727 21.5763 12.9427 21.5763ZM13.7527 15.4063V10.5363H15.8227C17.7627 10.5363 18.5427 11.6163 18.5427 12.9563C18.5427 14.5463 17.4827 15.4063 15.8227 15.4063Z" /></svg>