<svg viewBox="0 0 25.169921875 25.169921875" xmlns="http://www.w3.org/2000/svg"><path d="M4.2937 25.1692H20.8737C23.7437 25.1692 25.1737 23.7592 25.1737 20.9492V4.2392C25.1737 1.4192 23.7437 -0.0008 20.8737 -0.0008H4.2937C1.4337 -0.0008 0.0037 1.4192 0.0037 4.2392V20.9492C0.0037 23.7592 1.4337 25.1692 4.2937 25.1692ZM10.1837 19.0592C9.6837 19.0592 9.3637 18.7392 9.3637 18.2092V16.8392H7.9037C7.6137 16.8392 7.4237 16.6492 7.4237 16.3492C7.4237 16.0792 7.6137 15.8992 7.9037 15.8992H9.3637V14.0692H7.9037C7.6137 14.0692 7.4237 13.8892 7.4237 13.5992C7.4237 13.3192 7.6137 13.1292 7.9037 13.1292H9.3637V7.1392C9.3637 6.6192 9.7237 6.2492 10.2037 6.2492H13.5737C16.1337 6.2492 17.6537 7.9892 17.6537 10.1692C17.6537 12.3092 16.1837 14.0692 13.5337 14.0692H11.0237V15.8992H14.3937C14.6737 15.8992 14.8437 16.0792 14.8437 16.3492C14.8437 16.6492 14.6737 16.8392 14.3937 16.8392H11.0237V18.2092C11.0237 18.7392 10.7037 19.0592 10.1837 19.0592ZM11.0237 12.6992H13.1437C14.8637 12.6992 15.9437 11.8092 15.9437 10.1692C15.9437 8.8092 15.1437 7.6792 13.1437 7.6792H11.0237Z" /></svg>