<svg viewBox="0 0 32.935546875 27.26189615322232" xmlns="http://www.w3.org/2000/svg"><path d="M32.9327 16.3992C32.9327 7.7792 26.3227 0.7192 17.8927 -0.0008C17.4627 -0.0408 17.1327 0.2792 17.1327 0.7192V5.1892C17.1327 5.5592 17.3927 5.8392 17.7627 5.8692C22.9927 6.5092 27.0727 10.9792 27.0727 16.3992C27.0727 18.8592 26.2227 21.1292 24.7327 23.0292C24.5427 23.2592 24.5527 23.5592 24.7627 23.7792L28.0227 27.0292C28.3327 27.3292 28.7927 27.3292 29.0627 27.0092C31.4827 24.1392 32.9327 20.4292 32.9327 16.3992ZM0.0027 16.3992C0.0027 20.4392 1.4527 24.1492 3.8727 27.0192C4.1427 27.3492 4.5927 27.3292 4.9127 27.0292L8.1727 23.7792C8.3827 23.5592 8.3927 23.2592 8.2027 23.0292C6.7027 21.1292 5.8627 18.8592 5.8627 16.3992C5.8627 10.9792 9.9427 6.5092 15.1727 5.8692C15.5427 5.8392 15.8027 5.5592 15.8027 5.1892V0.7192C15.8027 0.2792 15.4727 -0.0408 15.0427 -0.0008C6.6127 0.7192 0.0027 7.7792 0.0027 16.3992ZM14.1127 22.8792C14.6127 22.8792 14.9127 22.5492 14.9127 22.0592V20.6992H18.1927C18.4727 20.6992 18.6327 20.5392 18.6327 20.2492C18.6327 19.9792 18.4727 19.7992 18.1927 19.7992H14.9127V18.0392H17.3627C19.9327 18.0392 21.3427 16.3092 21.3427 14.2592C21.3427 12.1292 19.8827 10.4592 17.4027 10.4592H14.1227C13.6627 10.4592 13.3327 10.8092 13.3327 11.2992V17.1092H11.9127C11.6227 17.1092 11.4527 17.2992 11.4527 17.5692C11.4527 17.8592 11.6227 18.0392 11.9127 18.0392H13.3327V19.7992H11.9127C11.6227 19.7992 11.4527 19.9792 11.4527 20.2492C11.4527 20.5392 11.6227 20.6992 11.9127 20.6992H13.3327V22.0592C13.3327 22.5492 13.6327 22.8792 14.1127 22.8792ZM14.9127 16.6992V11.8292H16.9827C18.9227 11.8292 19.7027 12.9092 19.7027 14.2592C19.7027 15.8392 18.6527 16.6992 16.9827 16.6992Z" /></svg>