<svg viewBox="0 0 30.544813437289534 27.890625" xmlns="http://www.w3.org/2000/svg"><path d="M0.9769 11.3064C-0.0131 11.3064 -0.2531 11.9764 0.2769 12.7464L3.3369 17.0864C3.7869 17.7164 4.4469 17.7064 4.8869 17.0864L7.9269 12.7264C8.4669 11.9764 8.2069 11.3064 7.2469 11.3064H5.2769C6.4669 6.1564 11.0769 2.3264 16.5969 2.3264C23.0269 2.3264 28.2169 7.5164 28.2169 13.9464C28.2169 20.3664 23.0269 25.5664 16.5969 25.5664C12.7169 25.5664 9.2569 23.6564 7.1969 20.7564C6.7669 20.1964 6.1269 20.0164 5.5569 20.3564C5.0069 20.6964 4.8369 21.4664 5.3069 22.0664C7.8369 25.6064 11.9769 27.8864 16.5969 27.8864C24.2969 27.8864 30.5469 21.6464 30.5469 13.9464C30.5469 6.2464 24.2969 -0.0036 16.5969 -0.0036C9.8069 -0.0036 4.1269 4.8664 2.8969 11.3064ZM11.2969 19.5264C11.7869 19.5264 12.0769 19.2064 12.0769 18.7164V15.0164H13.7569L15.4269 18.9664C15.5769 19.3364 15.8069 19.5264 16.2069 19.5264C16.6369 19.5264 16.9869 19.2364 16.9869 18.7964C16.9869 18.6064 16.8969 18.4464 16.8069 18.2264L15.2569 14.6864C16.4469 14.1664 17.0069 12.9764 17.0069 11.6864C17.0069 9.8564 15.9569 8.4264 13.6869 8.4264H11.2769C10.8069 8.4264 10.5169 8.7364 10.5169 9.2164V18.7164C10.5169 19.2064 10.8069 19.5264 11.2969 19.5264ZM12.0769 13.7664V9.7164H13.5369C14.7669 9.7164 15.4469 10.4964 15.4469 11.7164C15.4469 12.9564 14.7969 13.7664 13.5469 13.7664ZM21.0269 19.5364C22.6169 19.5364 23.9569 18.6464 23.9569 17.0264C23.9569 15.6964 23.1769 15.1364 21.8669 14.7764L20.7669 14.4764C20.1369 14.3164 19.6369 13.9864 19.6369 13.3464C19.6369 12.5964 20.2369 12.1264 20.9869 12.1264C21.7769 12.1264 22.2769 12.5664 22.5569 13.2064C22.6569 13.3964 22.8569 13.5364 23.0969 13.5364C23.5169 13.5364 23.6769 13.2764 23.6769 12.9864C23.6769 12.8964 23.6569 12.7464 23.6169 12.6164C23.3269 11.6464 22.2769 10.9964 21.0269 10.9964C19.3069 10.9964 18.1669 11.9464 18.1669 13.4164C18.1669 14.6864 19.0069 15.3664 20.2369 15.6864L21.3469 15.9664C22.0269 16.1464 22.4669 16.4864 22.4669 17.1764C22.4669 17.9064 21.9169 18.4064 21.0969 18.4064C20.1969 18.4064 19.7269 18.1064 19.2969 17.3064C19.1269 17.0064 18.8869 16.8864 18.6469 16.8864C18.2969 16.8864 18.0369 17.1264 18.0369 17.4864C18.0369 17.5864 18.0769 17.7064 18.1069 17.8464C18.4769 19.0064 19.7669 19.5364 21.0269 19.5364Z" /></svg>