<svg viewBox="0 0 30.05078125 37.720703125" xmlns="http://www.w3.org/2000/svg"><path d="M3.6637 26.5683C6.6137 26.8883 9.8137 26.9183 12.7937 26.6483L12.5637 29.2683C9.4837 29.3383 6.4137 29.3383 3.4437 29.3383C2.2137 29.3383 1.5737 30.2683 1.9837 31.3883L2.7937 33.6183C2.9837 33.5083 3.1837 33.3483 3.4337 33.1683C5.0437 32.0183 6.2937 31.4283 7.8737 31.4283C9.4737 31.4283 10.7637 32.0483 12.4137 33.2483C13.3537 33.9783 13.7037 34.2083 14.3737 34.2083C15.0437 34.2083 15.3837 33.9783 16.3237 33.2483C17.9637 32.0483 19.2537 31.4283 20.8637 31.4283C22.4337 31.4283 23.6937 32.0183 25.2937 33.1683C25.5437 33.3583 25.7537 33.5083 25.9337 33.6183C27.0537 32.3183 28.0537 30.5383 28.0537 29.6183C28.0537 28.8083 27.5037 28.1783 26.3637 28.3283C22.6537 28.8483 18.6637 29.1083 14.6437 29.2183L14.8637 26.5883C18.7437 26.9583 22.5837 26.8383 25.0737 26.4383C27.0737 26.1383 28.0437 25.3483 28.6937 23.5883C29.4237 21.6683 29.7337 19.5683 29.7337 17.3183C29.7337 11.4283 27.1237 4.7883 19.1037 0.5483C18.4137 0.1783 17.7337 -0.0017 17.1437 -0.0017C15.9537 -0.0017 15.0837 0.7283 14.9737 2.0683L14.4637 7.7783L2.7237 24.1483C1.8737 25.3183 2.3237 26.4283 3.6637 26.5683ZM16.9537 2.3683C16.9837 2.1983 17.1837 2.1783 17.2437 2.3283C18.4737 5.3083 19.2137 8.8283 19.2137 12.3083C19.2137 16.7383 18.0237 21.0583 15.0837 24.0183ZM14.3737 37.7183C18.0837 37.7183 18.6937 34.9483 20.8637 34.9483C23.0737 34.9483 23.4337 37.7183 27.7037 37.7183H29.0937C29.6237 37.7183 30.0537 37.2983 30.0537 36.7683C30.0537 36.2283 29.6237 35.7883 29.0937 35.7883H27.7037C26.2237 35.7883 25.4037 35.1883 24.3737 34.4483C23.4837 33.8083 22.3837 33.0183 20.8637 33.0183C19.2937 33.0183 18.1737 33.8683 17.2837 34.5183C16.3337 35.2483 15.5837 35.7883 14.3737 35.7883C13.1437 35.7883 12.4037 35.2483 11.4537 34.5183C10.5637 33.8683 9.4437 33.0183 7.8737 33.0183C6.3537 33.0183 5.2537 33.8083 4.3637 34.4483C3.3337 35.1883 2.5037 35.7883 1.0437 35.7883H0.9737C0.4237 35.7883 0.0037 36.2283 0.0037 36.7683C0.0037 37.2983 0.4237 37.7183 0.9737 37.7183H1.0437C5.2937 37.7183 5.6637 34.9483 7.8737 34.9483C10.0537 34.9483 10.6337 37.7183 14.3737 37.7183Z" /></svg>