<svg viewBox="0 0 35.041015625 26.6328125" xmlns="http://www.w3.org/2000/svg"><path d="M5.4937 11.071C8.0537 11.071 8.4637 10.021 9.5937 10.021C9.8537 10.021 10.0537 10.081 10.3937 10.241L12.7037 11.471C12.9837 11.621 13.2237 11.761 13.3937 11.881H13.4837C13.7937 10.731 14.3137 9.991 15.1737 9.451V9.361L12.0737 7.711C11.1037 7.191 11.0237 6.771 11.0237 5.551C11.0237 2.461 8.5537 0.001 5.4937 0.001C2.4437 0.001 0.0037 2.471 0.0037 5.551C0.0037 8.611 2.4437 11.071 5.4937 11.071ZM5.4937 8.841C3.6937 8.841 2.2437 7.351 2.2437 5.551C2.2437 3.701 3.6937 2.241 5.4937 2.241C7.3237 2.241 8.7937 3.701 8.7937 5.551C8.7937 7.351 7.3237 8.841 5.4937 8.841ZM5.4937 26.631C8.5537 26.631 11.0237 24.171 11.0237 21.081C11.0237 19.951 11.0737 19.501 11.9037 19.041L35.0437 6.751C34.4837 4.701 32.2537 4.361 28.8437 5.561L17.1737 9.761C15.5337 10.351 14.7937 11.141 14.3837 12.671L14.1137 13.671C13.9137 14.381 13.5937 14.741 12.5137 15.281L10.3937 16.411C10.0537 16.581 9.8537 16.641 9.5937 16.641C8.4537 16.641 8.0437 15.571 5.4937 15.571C2.4437 15.571 0.0037 18.031 0.0037 21.081C0.0037 24.161 2.4437 26.631 5.4937 26.631ZM17.4737 13.731C16.8737 13.731 16.3337 13.221 16.3337 12.591C16.3337 11.931 16.8737 11.441 17.4737 11.441C18.1137 11.441 18.6437 11.931 18.6437 12.591C18.6437 13.221 18.1137 13.731 17.4737 13.731ZM28.8437 21.111C32.2837 22.381 34.4837 21.971 35.0437 19.861L23.9137 13.991L18.2637 16.951V17.121ZM5.4937 24.391C3.6937 24.391 2.2437 22.931 2.2437 21.081C2.2437 19.281 3.6937 17.801 5.4937 17.801C7.3237 17.801 8.7937 19.281 8.7937 21.081C8.7937 22.931 7.3237 24.391 5.4937 24.391Z" /></svg>