<svg viewBox="0 0 34.37206330385511 34.36196109454545" xmlns="http://www.w3.org/2000/svg"><path d="M3.3483 25.9225L0.2083 30.6025C-0.0417 30.9525 -0.0817 31.3125 0.1783 31.5725L2.7883 34.1925C3.0483 34.4425 3.4083 34.4025 3.7683 34.1725L8.4483 31.0225C8.8583 30.7525 9.1283 30.3225 9.1983 29.8725L9.4183 28.4425L17.9183 19.9625L19.0883 21.1425C19.7783 21.8325 20.6683 21.8225 21.3983 21.1125L23.6083 18.9125C23.0783 18.2925 23.0883 17.4225 23.6883 16.8225C24.2683 16.2425 25.1383 16.2025 25.7583 16.7325L32.8083 9.6925C34.8783 7.6425 34.8883 5.4425 32.8683 3.4325L30.9383 1.5025C28.8983 -0.5275 26.7283 -0.4875 24.6783 1.5625L17.6383 8.6125C18.1683 9.2325 18.1383 10.1225 17.5583 10.6825C16.9383 11.2725 16.0883 11.2925 15.4583 10.7625L13.2583 12.9725C12.5383 13.6825 12.5483 14.6025 13.2483 15.2825L14.4083 16.4625L5.9183 24.9425L4.4983 25.1725C4.0283 25.2425 3.6083 25.5125 3.3483 25.9225ZM15.0083 13.6725L15.8583 12.8125C16.8683 13.0325 17.7983 12.7025 18.6183 11.8925C19.4583 11.0725 19.7583 10.1225 19.5183 9.1525L26.0183 2.6725C27.1883 1.5025 28.4883 1.5025 29.6583 2.6725L31.7083 4.7225C32.8683 5.8625 32.8683 7.1825 31.6883 8.3525L25.2283 14.8625C24.2383 14.6325 23.3083 14.9325 22.4783 15.7525C21.6683 16.5725 21.3283 17.4925 21.5483 18.5225L20.6983 19.3725C20.4083 19.6625 20.0583 19.6725 19.7583 19.3925L14.9983 14.6125C14.6983 14.3325 14.7283 13.9725 15.0083 13.6725ZM22.4383 9.3525C22.1983 9.6025 22.1883 9.9425 22.4483 10.1825C22.6283 10.3625 23.0083 10.3925 23.2183 10.1725L27.8183 5.5225C28.0283 5.3225 28.0383 4.9825 27.8183 4.7625C27.6183 4.5525 27.2583 4.5425 27.0383 4.7625ZM24.2083 11.1725C23.9983 11.3925 23.9983 11.7425 24.2083 11.9525C24.4283 12.1525 24.7883 12.1525 25.0083 11.9325L29.6283 7.3325C29.8583 7.1125 29.8483 6.7825 29.6083 6.5525C29.4083 6.3225 29.0483 6.3425 28.8483 6.5525ZM1.8583 30.9025L4.8983 26.9125L6.5883 26.6025L15.5883 17.6225L16.7383 18.7825L7.7483 27.7825L7.4483 29.4625L3.4683 32.5025Z" /></svg>