<svg viewBox="0 0 33.71302212461598 33.6691122755605" xmlns="http://www.w3.org/2000/svg"><path d="M13.2067 12.8186C12.5367 13.4886 12.5367 14.3486 13.1967 15.0386L18.6767 20.5586C19.3567 21.2186 20.2467 21.1486 20.8967 20.5186L22.3967 18.9686C21.8867 18.2486 21.9267 17.2786 22.6267 16.6186C23.2867 15.9686 24.2367 15.9086 24.9967 16.4186L32.3867 8.9886C34.1267 7.2586 34.1567 5.2486 32.4767 3.5586L30.1467 1.2486C28.4567 -0.4414 26.4567 -0.4114 24.7167 1.3186L17.2967 8.7086C17.8067 9.4686 17.7467 10.4586 17.0767 11.0986C16.4167 11.7486 15.4667 11.8086 14.6967 11.3186ZM20.9167 9.8786L26.5667 4.2086C26.7867 3.9986 27.1567 4.0286 27.3867 4.2186C27.6167 4.4086 27.5867 4.7786 27.3767 5.0086L21.6667 10.6586C21.4367 10.8886 21.1267 10.8786 20.9367 10.6886C20.6967 10.4386 20.6767 10.1286 20.9167 9.8786ZM23.0667 12.0086L28.7167 6.3886C28.9467 6.1486 29.2767 6.1486 29.4867 6.3786C29.6967 6.6086 29.6967 6.9386 29.5067 7.1286L23.8467 12.8186C23.6167 13.0486 23.2567 13.0386 23.0567 12.8486C22.7967 12.5886 22.8067 12.2686 23.0667 12.0086ZM2.7267 26.4786L0.1967 31.0886C-0.0233 31.5086 -0.0933 31.8386 0.1767 32.0786L1.5767 33.5086C1.8567 33.7686 2.2067 33.6786 2.5867 33.4886L7.2167 30.9486C7.6667 30.7186 7.9767 30.2386 7.9867 29.8286L8.0367 28.3486L15.9667 20.4086L13.2667 17.7186L5.3367 25.6286L3.8867 25.7086C3.4367 25.7286 2.9667 26.0086 2.7267 26.4786Z" /></svg>