<svg viewBox="0 0 22.99609375 29.3125" xmlns="http://www.w3.org/2000/svg"><path d="M4.2337 29.3137H18.7537C21.5837 29.3137 22.9937 27.8937 22.9937 25.0337V4.2937C22.9937 1.4537 21.5737 0.0037 18.7537 0.0037H9.6237C8.3937 0.0037 7.6137 0.3037 6.8237 1.1037L1.0137 6.9037C0.2437 7.6837 0.0037 8.3537 0.0037 9.7037V25.0337C0.0037 27.8737 1.4037 29.3137 4.2337 29.3137ZM8.7337 5.5537C8.7337 5.0437 9.1337 4.6437 9.6437 4.6437C10.1337 4.6437 10.5137 5.0337 10.5137 5.5537V9.9937C10.5137 10.5037 10.1337 10.8937 9.6437 10.8937C9.1337 10.8937 8.7337 10.5037 8.7337 9.9937ZM11.6237 5.5537C11.6237 5.0437 12.0137 4.6437 12.5337 4.6437C13.0337 4.6437 13.4237 5.0437 13.4237 5.5537V9.9937C13.4237 10.5037 13.0137 10.8937 12.5337 10.8937C12.0337 10.8937 11.6237 10.5037 11.6237 9.9937ZM14.5337 5.5537C14.5337 5.0437 14.9337 4.6437 15.4237 4.6437C15.9237 4.6437 16.3137 5.0337 16.3137 5.5537L16.3237 9.9937C16.3237 10.4837 15.9137 10.8937 15.4237 10.8937C14.9437 10.8937 14.5337 10.5037 14.5337 9.9937ZM17.4437 5.5537C17.4437 5.0437 17.8237 4.6437 18.3337 4.6437C18.8237 4.6437 19.2137 5.0337 19.2137 5.5537V9.9837C19.2137 10.5037 18.8237 10.8937 18.3337 10.8937C17.8437 10.8937 17.4437 10.5037 17.4437 9.9837Z" /></svg>