<svg viewBox="0 0 27.890625 27.890625" xmlns="http://www.w3.org/2000/svg"><path d="M13.9427 27.8927C21.6427 27.8927 27.8927 21.6427 27.8927 13.9427C27.8927 6.2627 21.6427 0.0027 13.9427 0.0027C6.2627 0.0027 0.0027 6.2627 0.0027 13.9427C0.0027 21.6427 6.2627 27.8927 13.9427 27.8927ZM12.8427 8.0127C12.8127 8.0427 10.6927 10.0327 9.5927 11.2827C9.0827 11.8427 8.8027 12.5827 8.8727 13.3427C8.9327 14.1527 9.2927 14.9027 9.9427 15.4927C10.8327 16.2327 12.5327 16.3927 13.6027 15.4327C14.2727 14.8627 15.0127 14.0127 15.0427 14.0127C15.5727 13.4127 16.4927 13.3827 17.0627 13.9427C17.6227 14.4627 17.6627 15.3627 17.1327 15.9527C17.1027 15.9727 16.2527 16.8827 15.5027 17.5427C14.4827 18.5027 13.1227 18.9527 11.7427 18.9527C10.4227 18.9527 9.0927 18.5127 8.0927 17.6327C6.8327 16.5527 6.0927 15.0927 5.9927 13.5227C5.8927 11.9727 6.4127 10.4827 7.4927 9.3227C8.6527 8.0427 10.7627 6.0427 10.8327 5.9327C11.4027 5.4027 12.3027 5.4527 12.8527 6.0027C13.4227 6.5627 13.4027 7.4327 12.8427 8.0127ZM15.0427 20.1627C15.0527 20.1427 17.1827 18.1527 18.2627 16.9427C18.7827 16.3527 19.0727 15.6127 18.9927 14.8627C18.9527 14.0427 18.5627 13.2927 17.9227 12.7027C17.0327 11.9727 15.3227 11.8027 14.2727 12.7527C13.6027 13.3027 12.8527 14.1727 12.8427 14.1927C12.3027 14.7627 11.3927 14.8027 10.8127 14.2427C10.2427 13.7427 10.2027 12.8427 10.7427 12.2327C10.7627 12.2227 11.6027 11.3027 12.3627 10.6527C13.4027 9.6927 14.7427 9.2427 16.1227 9.2427C17.4627 9.2427 18.7727 9.6827 19.8127 10.5527C21.0427 11.6027 21.7827 13.0927 21.8927 14.6727C21.9727 16.2327 21.4527 17.7027 20.3827 18.8627C19.2227 20.1427 17.1327 22.1527 17.0327 22.2627C16.4627 22.7927 15.5727 22.7627 15.0127 22.1927C14.4527 21.6327 14.4627 20.7527 15.0427 20.1627Z" /></svg>