<svg viewBox="0 0 25.169921875 25.169921875" xmlns="http://www.w3.org/2000/svg"><path d="M4.2937 25.1692H20.8737C23.7437 25.1692 25.1737 23.7592 25.1737 20.9492V4.2392C25.1737 1.4192 23.7437 -0.0008 20.8737 -0.0008H4.2937C1.4337 -0.0008 0.0037 1.4192 0.0037 4.2392V20.9492C0.0037 23.7592 1.4337 25.1692 4.2937 25.1692ZM11.1837 18.7892C10.5837 18.7892 10.1437 18.4192 10.1437 17.7592V10.7292C10.1437 10.2792 10.4337 9.9892 10.8737 9.9892C11.2937 9.9892 11.5637 10.2792 11.5637 10.7292V17.2292H14.8937C16.6937 17.2292 17.0937 16.7792 17.0937 14.9592V7.0292C17.0937 6.5492 17.3737 6.2592 17.8137 6.2592C18.2537 6.2592 18.5237 6.5492 18.5237 7.0292V15.0292C18.5237 17.4592 17.7237 18.7892 15.2737 18.7892ZM7.3937 18.9092C6.9437 18.9092 6.6737 18.6392 6.6737 18.1692V7.4692C6.6737 6.7992 7.0637 6.3892 7.7337 6.3892H11.6737C14.0137 6.3892 15.0437 7.5692 15.0437 9.8992V14.4192C15.0437 14.8792 14.7637 15.1792 14.3437 15.1792C13.9037 15.1792 13.6337 14.8792 13.6337 14.4192V10.1892C13.6337 8.3492 12.8137 7.9292 11.2137 7.9292H8.0837V18.1692C8.0837 18.6392 7.8037 18.9092 7.3937 18.9092Z" /></svg>