<svg viewBox="0 0 27.890625 27.890625" xmlns="http://www.w3.org/2000/svg"><path d="M13.9427 27.8864C21.6427 27.8864 27.8927 21.6464 27.8927 13.9464C27.8927 6.2464 21.6427 -0.0036 13.9427 -0.0036C6.2527 -0.0036 0.0027 6.2464 0.0027 13.9464C0.0027 21.6464 6.2527 27.8864 13.9427 27.8864ZM13.9427 25.5664C7.5227 25.5664 2.3227 20.3664 2.3227 13.9464C2.3227 7.5164 7.5227 2.3264 13.9427 2.3264C20.3727 2.3264 25.5627 7.5164 25.5627 13.9464C25.5627 20.3664 20.3727 25.5664 13.9427 25.5664ZM12.5627 19.9564H16.5327C18.8927 19.9564 19.6727 18.6764 19.6727 16.3264V8.5564C19.6727 8.1064 19.4127 7.8164 18.9927 7.8164C18.5627 7.8164 18.2927 8.1064 18.2927 8.5564V16.2564C18.2927 18.0164 17.9127 18.4564 16.1627 18.4564H12.9327V12.1564C12.9327 11.7164 12.6727 11.4464 12.2627 11.4464C11.8427 11.4464 11.5627 11.7164 11.5627 12.1564V18.9764C11.5627 19.6064 11.9727 19.9564 12.5627 19.9564ZM8.8827 20.0864C9.2927 20.0864 9.5527 19.8064 9.5527 19.3764V9.4364H12.5927C14.1527 9.4364 14.9427 9.8464 14.9427 11.6164V15.7364C14.9427 16.1764 15.1927 16.4564 15.6227 16.4564C16.0327 16.4564 16.2927 16.1764 16.2927 15.7364V11.3464C16.2927 9.0964 15.3127 7.9464 13.0427 7.9464H9.2327C8.5827 7.9464 8.1927 8.3364 8.1927 8.9864V19.3764C8.1927 19.8064 8.4627 20.0864 8.8827 20.0864Z" /></svg>