<svg viewBox="0 0 29.408203125 25.375" xmlns="http://www.w3.org/2000/svg"><path d="M10.4909 25.3706H18.9209C20.8409 25.3706 21.8609 24.2506 21.8609 22.4506V16.3206H27.4109C28.5309 16.3206 29.4109 15.6406 29.4109 14.6006C29.4109 13.9606 29.0809 13.4806 28.5909 12.9906L16.3909 0.8306C15.8609 0.3006 15.3109 0.0006 14.7009 0.0006C14.0909 0.0006 13.5309 0.3006 13.0109 0.8306L0.8209 12.9906C0.2909 13.5106 0.0009 13.9606 0.0009 14.6006C0.0009 15.6406 0.8709 16.3206 1.9809 16.3206H7.5509V22.4506C7.5509 24.2506 8.5709 25.3706 10.4909 25.3706ZM10.7009 23.2606C10.1809 23.2606 9.8309 22.9006 9.8309 22.3906V14.7206C9.8309 14.3806 9.7109 14.2606 9.3809 14.2606H3.0609C2.9709 14.2606 2.9109 14.2206 2.9109 14.1506C2.9109 14.1006 2.9409 14.0506 2.9909 13.9906L14.4109 2.6406C14.5209 2.5306 14.6109 2.5006 14.7009 2.5006C14.7909 2.5006 14.8909 2.5306 14.9809 2.6406L26.4009 13.9906C26.4709 14.0506 26.4809 14.1006 26.4809 14.1506C26.4809 14.2206 26.4409 14.2606 26.3309 14.2606H20.0309C19.7009 14.2606 19.5809 14.3806 19.5809 14.7206V22.3906C19.5809 22.8906 19.2109 23.2606 18.7009 23.2606Z" /></svg>