<svg viewBox="0 0 27.890625 27.890625" xmlns="http://www.w3.org/2000/svg"><path d="M13.9427 27.8864C21.6427 27.8864 27.8927 21.6264 27.8927 13.9464C27.8927 6.2464 21.6427 -0.0036 13.9427 -0.0036C6.2627 -0.0036 0.0027 6.2464 0.0027 13.9464C0.0027 21.6264 6.2627 27.8864 13.9427 27.8864ZM18.1127 11.1564L11.1127 7.1764L12.6227 6.3264C13.0727 6.0664 13.5227 5.9364 13.9427 5.9364C14.3827 5.9364 14.8327 6.0664 15.2827 6.3264L20.4627 9.2964C20.6327 9.3764 20.7827 9.4764 20.8727 9.5864ZM13.9427 13.5264L7.0127 9.5864C7.1127 9.4764 7.2427 9.3764 7.4227 9.2964L10.1327 7.7564L17.0927 11.7264ZM14.4527 21.9564V14.3964L21.3527 10.4464C21.4127 10.6064 21.4227 10.7964 21.4227 11.0064V16.7464C21.4227 17.8164 21.0227 18.1964 20.3727 18.5964L14.5927 21.8864C14.5427 21.9164 14.5027 21.9464 14.4527 21.9564ZM13.4427 21.9564C13.3827 21.9464 13.3427 21.9164 13.2927 21.8864L7.5227 18.5964C6.8527 18.1964 6.4927 17.8164 6.4927 16.7464V11.0064C6.4927 10.7964 6.4927 10.6064 6.5327 10.4464L13.4427 14.3964Z" /></svg>