<svg viewBox="0 0 27.740234375 29.75" xmlns="http://www.w3.org/2000/svg"><path d="M21.6137 9.692L26.7537 6.772C26.5537 6.562 26.3037 6.402 26.0037 6.232L16.3537 0.742C15.5137 0.262 14.6837 0.002 13.8737 0.002C13.0537 0.002 12.2237 0.262 11.3937 0.742L8.6137 2.312ZM13.8737 14.082L19.7137 10.772L6.7637 3.372L1.7537 6.232C1.4537 6.402 1.2037 6.562 0.9837 6.772ZM14.8037 29.752C14.9037 29.722 14.9837 29.682 15.0837 29.622L25.7837 23.532C27.0537 22.802 27.7437 22.062 27.7437 20.082V9.432C27.7437 9.022 27.7137 8.692 27.6337 8.392L14.8037 15.722ZM12.9337 29.752V15.722L0.1137 8.392C0.0237 8.692 0.0037 9.022 0.0037 9.432V20.082C0.0037 22.062 0.6937 22.802 1.9537 23.532L12.6737 29.622C12.7537 29.682 12.8337 29.722 12.9337 29.752Z" /></svg>