<svg viewBox="0 0 27.890625 27.890625" xmlns="http://www.w3.org/2000/svg"><path d="M13.9427 27.8864C21.6427 27.8864 27.8927 21.6464 27.8927 13.9464C27.8927 6.2464 21.6427 -0.0036 13.9427 -0.0036C6.2527 -0.0036 0.0027 6.2464 0.0027 13.9464C0.0027 21.6464 6.2527 27.8864 13.9427 27.8864ZM13.9427 25.5664C7.5227 25.5664 2.3227 20.3664 2.3227 13.9464C2.3227 7.5164 7.5227 2.3264 13.9427 2.3264C20.3727 2.3264 25.5627 7.5164 25.5627 13.9464C25.5627 20.3664 20.3727 25.5664 13.9427 25.5664ZM5.7727 16.5264L17.0527 16.5164C18.6627 16.5164 19.3727 16.3364 20.3027 15.8564L22.2027 14.8764C23.2527 14.3164 23.5527 13.6264 23.0827 13.1064C22.7227 12.6864 22.0827 12.2864 21.1927 12.2764C20.4827 12.2764 18.9127 12.5364 18.2927 12.5364C17.8927 12.5464 17.7027 12.5364 17.4027 12.3864L16.3127 13.8764C16.1727 14.0564 15.9327 14.0864 15.7527 13.9364C15.5827 13.7964 15.5627 13.5764 15.6927 13.3864L16.7027 12.0064L15.9327 11.5564L14.7927 13.1264C14.6527 13.3264 14.4227 13.3464 14.2327 13.1964C14.0727 13.0564 14.0127 12.8264 14.1627 12.6364L15.2427 11.1664L14.4927 10.7064L13.2727 12.3864C13.1527 12.5664 12.8827 12.5764 12.7327 12.4364C12.5527 12.3164 12.5327 12.0464 12.6427 11.8964L13.7927 10.3064L13.2227 9.9764C12.1227 9.3564 11.1127 9.5164 10.3627 10.4964C9.4327 11.6864 8.6827 12.0964 7.8727 12.0964C7.1627 12.0964 6.7027 11.9064 6.1827 11.6364C5.0327 11.0064 4.1127 11.5964 4.1127 12.6764L4.1327 15.8164C4.1327 15.8564 4.1127 15.9164 4.1127 15.9364C4.5427 16.4164 4.9627 16.5264 5.7727 16.5264ZM6.6627 18.5764H16.9627C19.0327 18.5764 20.2227 18.2664 21.8327 17.3664C23.1327 16.6664 23.7227 15.7764 23.7027 14.7564C23.7227 14.6264 23.7027 14.4964 23.6927 14.3964C23.5727 14.8764 23.2827 15.2064 22.5627 15.5864L20.6627 16.5564C19.5927 17.1164 18.7127 17.3264 17.0527 17.3264H5.7827C5.1827 17.3264 4.7327 17.2364 4.2427 16.8864C4.6027 18.1864 5.6427 18.5764 6.6627 18.5764Z" /></svg>