<svg viewBox="0 0 25.3377568993721 31.345753137628925" xmlns="http://www.w3.org/2000/svg"><path d="M5.6437 -0.0012C2.6937 -0.0012 0.0037 4.4988 0.0037 7.9888C0.0037 9.6488 0.5637 12.9288 1.8737 15.5688H9.4337C10.7337 12.9288 11.3037 9.6488 11.3037 7.9888C11.3037 4.4988 8.6137 -0.0012 5.6437 -0.0012ZM22.2537 8.9788C19.4737 7.9688 15.4237 11.2688 14.2237 14.5488C13.6537 16.1188 13.0537 19.3988 13.3737 22.3288L20.4837 24.9088C22.6137 22.8688 24.2637 19.9988 24.8437 18.3988C26.0337 15.1388 25.0437 10.0088 22.2537 8.9788ZM5.6637 23.6088C7.7937 23.6088 8.9437 21.4888 8.9437 18.4888C8.9437 18.1988 8.9137 17.7688 8.8637 17.4488H2.4637C2.4037 17.7688 2.3837 18.1988 2.3837 18.4888C2.3837 21.4888 3.5237 23.6088 5.6637 23.6088ZM14.1937 31.1688C16.2037 31.8988 18.0037 30.2988 19.0337 27.4788C19.1237 27.2088 19.2337 26.7988 19.3137 26.4688L13.3037 24.2688C13.1437 24.5688 12.9637 24.9488 12.8637 25.2288C11.8437 28.0588 12.1937 30.4288 14.1937 31.1688Z" /></svg>