<svg viewBox="0 0 31.41796875 24.759765625" xmlns="http://www.w3.org/2000/svg"><path d="M0.0037 19.3905C0.0037 20.0705 0.5037 20.5205 1.2537 20.5205H4.3737C6.6437 20.5205 7.9437 19.8805 9.5937 17.9605L12.9237 14.1005L16.2437 17.9805C17.8837 19.8805 19.1937 20.5205 21.4737 20.5205H24.3337V23.9105C24.3337 24.4605 24.6537 24.7605 25.2137 24.7605C25.4737 24.7605 25.7137 24.6805 25.9237 24.5105L31.0937 20.2305C31.5237 19.8605 31.5237 19.3205 31.0937 18.9405L25.9237 14.6405C25.7137 14.4805 25.4737 14.3805 25.2137 14.3805C24.6537 14.3805 24.3337 14.7005 24.3337 15.2405V18.2505H21.5437C20.0437 18.2505 19.0537 17.7505 17.8837 16.3605L14.4237 12.3305L17.8837 8.3005C19.0537 6.9305 20.0437 6.4305 21.5437 6.4305H24.3337V9.5205C24.3337 10.0605 24.6537 10.3805 25.2137 10.3805C25.4737 10.3805 25.7137 10.2805 25.9237 10.1205L31.0937 5.8405C31.5237 5.4805 31.5237 4.9205 31.0937 4.5405L25.9237 0.2505C25.7137 0.0805 25.4737 0.0005 25.2137 0.0005C24.6537 0.0005 24.3337 0.3005 24.3337 0.8505V4.1405H21.4737C19.1937 4.1405 17.8837 4.7805 16.2437 6.7005L12.9237 10.5805L9.5937 6.7005C7.9437 4.8005 6.6437 4.1605 4.3737 4.1605H1.2537C0.5037 4.1605 0.0037 4.6105 0.0037 5.2905C0.0037 5.9605 0.5237 6.4305 1.2537 6.4305H4.4437C5.8537 6.4305 6.7937 6.9305 7.9737 8.3105L11.4137 12.3305L7.9737 16.3605C6.7837 17.7505 5.8337 18.2505 4.4437 18.2505H1.2537C0.5237 18.2505 0.0037 18.7005 0.0037 19.3905Z" /></svg>