<svg viewBox="0 0 27.890625 27.890625" xmlns="http://www.w3.org/2000/svg"><path d="M13.9427 27.8864C21.6427 27.8864 27.8927 21.6264 27.8927 13.9464C27.8927 6.2464 21.6427 -0.0036 13.9427 -0.0036C6.2627 -0.0036 0.0027 6.2464 0.0027 13.9464C0.0027 21.6264 6.2627 27.8864 13.9427 27.8864ZM5.2327 17.7164C5.2327 17.2564 5.6327 16.8864 6.1427 16.8864H7.8327C8.5327 16.8864 8.9727 16.6664 9.5527 15.9564L11.2827 13.9464L9.5527 11.9364C8.9827 11.2364 8.5327 11.0064 7.8327 11.0064H6.1427C5.6327 11.0064 5.2327 10.6364 5.2327 10.1764C5.2327 9.6764 5.6027 9.3364 6.1427 9.3364H7.8027C9.0627 9.3364 9.8527 9.6964 10.7827 10.7764L12.3827 12.6464L13.9827 10.7764C14.9327 9.6964 15.7127 9.3364 16.9827 9.3364H18.2927V7.7764C18.2927 7.3564 18.5527 7.0964 18.9727 7.0964C19.1727 7.0964 19.3627 7.1664 19.4927 7.2764L22.3027 9.5864C22.6227 9.8664 22.6127 10.3664 22.2827 10.6364L19.5127 12.9064C19.4027 13.0464 19.1827 13.1064 18.9727 13.1064C18.5627 13.1064 18.2927 12.8364 18.2927 12.4164V11.0064H17.0327C16.2527 11.0064 15.8227 11.2364 15.2327 11.9364L13.5127 13.9464L15.2327 15.9564C15.8227 16.6564 16.2527 16.8864 17.0327 16.8864H18.2927V15.5164C18.2927 15.0964 18.5627 14.8164 18.9727 14.8164C19.1827 14.8164 19.4027 14.8864 19.5127 15.0264L22.3027 17.3264C22.6227 17.5964 22.6227 18.0764 22.2827 18.3564L19.4927 20.6564C19.3627 20.7664 19.1727 20.8364 18.9727 20.8364C18.5527 20.8364 18.2927 20.5764 18.2927 20.1564V18.5564H16.9827C15.7127 18.5564 14.9327 18.1964 13.9827 17.1164L12.3827 15.2464L10.7827 17.1164C9.8527 18.1964 9.0627 18.5564 7.8027 18.5564H6.1427C5.6027 18.5564 5.2327 18.1964 5.2327 17.7164Z" /></svg>