<svg viewBox="0 0 27.890625 27.890625" xmlns="http://www.w3.org/2000/svg"><path d="M13.9427 27.8927C21.6427 27.8927 27.8927 21.6427 27.8927 13.9427C27.8927 6.2627 21.6427 0.0027 13.9427 0.0027C6.2627 0.0027 0.0027 6.2627 0.0027 13.9427C0.0027 21.6427 6.2627 27.8927 13.9427 27.8927ZM6.8927 14.0427V9.2327C6.8927 8.1727 7.4827 7.6027 8.5327 7.6027H13.1527V6.3127C13.1527 5.8927 13.5127 5.5327 13.9327 5.5327C14.3527 5.5327 14.7227 5.8927 14.7227 6.3127V7.6027H19.3327C20.3827 7.6027 20.9827 8.1727 20.9827 9.2327V14.0427C20.9827 15.0627 20.3827 15.6527 19.3327 15.6527H14.7227V20.7827H16.9527C17.3727 20.7827 17.7427 21.1527 17.7427 21.5727C17.7427 22.0027 17.3727 22.3527 16.9527 22.3527H10.9127C10.4827 22.3527 10.1127 22.0027 10.1127 21.5727C10.1127 21.1527 10.4827 20.7827 10.9127 20.7827H13.1527V15.6527H8.5327C7.4827 15.6527 6.8927 15.0627 6.8927 14.0427ZM11.6327 12.5327C11.3227 12.9927 11.4727 13.3727 12.0627 13.3727H15.8427C16.3927 13.3727 16.5527 12.9927 16.2427 12.5327L14.3927 9.9027C14.1527 9.5427 13.7427 9.5427 13.4927 9.9027Z" /></svg>