<svg viewBox="0 0 24.6640625 28.779296875" xmlns="http://www.w3.org/2000/svg"><path d="M5.9637 27.6876C5.9637 28.2876 6.4637 28.7776 7.0637 28.7776H17.5937C18.2137 28.7776 18.7037 28.2876 18.7037 27.6876C18.7037 27.0876 18.2137 26.5776 17.5937 26.5776H13.4237V17.4276H21.7637C23.6237 17.4276 24.6637 16.4076 24.6637 14.5776V6.1376C24.6637 4.3076 23.6237 3.2976 21.7637 3.2976H13.4237V1.1076C13.4237 0.5076 12.9337 -0.0024 12.3337 -0.0024C11.7337 -0.0024 11.2237 0.5076 11.2237 1.1076V3.2976H2.8937C1.0437 3.2976 0.0037 4.3076 0.0037 6.1376V14.5776C0.0037 16.4076 1.0437 17.4276 2.8937 17.4276H11.2237V26.5776H7.0637C6.4637 26.5776 5.9637 27.0876 5.9637 27.6876ZM9.0537 13.4376C8.0137 13.4376 7.7337 12.7376 8.3237 11.9376L11.5437 7.3576C11.9937 6.6976 12.6837 6.6976 13.1537 7.3576L16.3637 11.9476C16.9237 12.7376 16.6437 13.4376 15.6437 13.4376Z" /></svg>