<svg viewBox="0 0 27.890625 27.890625" xmlns="http://www.w3.org/2000/svg"><path d="M13.9427 27.8927C21.6427 27.8927 27.8927 21.6427 27.8927 13.9427C27.8927 6.2627 21.6427 0.0027 13.9427 0.0027C6.2627 0.0027 0.0027 6.2627 0.0027 13.9427C0.0027 21.6427 6.2627 27.8927 13.9427 27.8927ZM11.5227 12.1427C10.8827 12.1427 10.5127 11.7727 10.5127 11.1327V8.2727C10.5127 7.6127 10.8827 7.2627 11.5227 7.2627H13.1427V6.0927C13.1427 5.6727 13.4927 5.3227 13.9327 5.3227C14.3727 5.3227 14.7127 5.6727 14.7127 6.0927V7.2627H18.2227C18.6327 7.2627 18.9227 7.3727 19.1727 7.6127L20.5327 8.9427C21.0927 9.4627 21.0927 9.9527 20.5527 10.4427L19.1727 11.7627C18.9227 12.0327 18.6227 12.1427 18.2227 12.1427H14.7127V13.2727H16.3227C16.9627 13.2727 17.3527 13.6427 17.3527 14.2827V17.1327C17.3527 17.7827 16.9627 18.1427 16.3227 18.1427H14.7127V20.4227H16.4327C16.8727 20.4227 17.2127 20.7827 17.2127 21.2227C17.2127 21.6427 16.8727 22.0027 16.4327 22.0027H11.4127C10.9927 22.0027 10.6327 21.6427 10.6327 21.2227C10.6327 20.7827 10.9927 20.4227 11.4127 20.4227H13.1427V18.1427H9.6227C9.2327 18.1427 8.9327 18.0327 8.6827 17.7727L7.3027 16.4627C6.7527 15.9527 6.7627 15.4727 7.3127 14.9527L8.6827 13.6327C8.9327 13.3827 9.2127 13.2727 9.6227 13.2727H13.1427V12.1427Z" /></svg>