<svg viewBox="0 0 28.01369517772765 28.779296875" xmlns="http://www.w3.org/2000/svg"><path d="M2.8937 17.4276L11.5437 17.4176V26.5776H7.3837C6.7837 26.5776 6.2737 27.0876 6.2737 27.6876C6.2737 28.2876 6.7837 28.7776 7.3837 28.7776H17.9137C18.5137 28.7776 19.0137 28.2876 19.0137 27.6876C19.0137 27.0876 18.5137 26.5776 17.9137 26.5776H13.7437V17.4176H20.7437C21.9837 17.4176 22.5437 17.0476 23.2437 16.3776L26.8937 12.8876C28.3737 11.4876 28.4137 10.1076 26.8837 8.6276L23.2437 5.1676C22.5437 4.4876 21.9837 4.1176 20.7537 4.1176H13.7437V1.1076C13.7437 0.5076 13.2337 -0.0024 12.6337 -0.0024C12.0337 -0.0024 11.5437 0.5076 11.5437 1.1076V4.1176H2.8937C1.0437 4.1176 0.0037 5.1276 0.0037 6.9576V14.5776C0.0037 16.4076 1.0437 17.4276 2.8937 17.4276Z" /></svg>