<svg viewBox="0 0 22.99609375 29.3125" xmlns="http://www.w3.org/2000/svg"><path d="M0.0037 25.0337C0.0037 27.8937 1.4037 29.3137 4.2337 29.3137H18.7537C21.5837 29.3137 22.9937 27.8737 22.9937 25.0337V9.7037C22.9937 8.3537 22.7537 7.6837 21.9837 6.9037L16.1737 1.1037C15.3837 0.3037 14.6037 0.0037 13.3737 0.0037H4.2337C1.4237 0.0037 0.0037 1.4537 0.0037 4.2937ZM2.2037 24.9937V4.3337C2.2037 2.9837 2.9237 2.2037 4.3437 2.2037H13.2937C14.0637 2.2037 14.5837 2.4037 15.0837 2.9237L20.1637 8.0637C20.6437 8.5437 20.7937 8.9837 20.7937 9.8737V24.9937C20.7937 26.3637 20.0737 27.1137 18.6437 27.1137H4.3337C2.9237 27.1137 2.2037 26.3637 2.2037 24.9937ZM4.9737 16.2937H9.4237C9.9437 16.2937 10.2437 16.6137 10.2437 17.1137V24.8037H12.8637V12.6737H6.8637C5.7037 12.6737 4.9737 13.3937 4.9737 14.5837ZM14.3837 24.8037H16.1437C17.3037 24.8037 18.0437 24.0737 18.0437 22.9037V14.5837C18.0437 13.3937 17.3037 12.6737 16.1437 12.6737H14.3837ZM4.9737 22.9037C4.9737 24.0737 5.7037 24.8037 6.8637 24.8037H8.7237V18.0237C8.7237 17.8837 8.6437 17.8137 8.5037 17.8137H4.9737Z" /></svg>