<svg viewBox="0 0 27.80859375 29.4765625" xmlns="http://www.w3.org/2000/svg"><path d="M0.0037 21.9177C0.0037 24.4677 1.3037 25.7977 3.8237 25.7977H5.6437V21.7977H4.6737C3.6337 21.7977 2.9637 21.1277 2.9637 20.0677V15.9377H5.6437V14.5577H2.9637V12.9877C2.9637 11.9077 3.6337 11.2477 4.6737 11.2477H5.6437V7.5777C5.6437 3.9677 7.7637 1.8177 11.3437 1.8177H15.1237L14.3137 0.9977C13.6037 0.2877 12.8937 -0.0023 11.7737 -0.0023H3.8237C1.3037 -0.0023 0.0037 1.3277 0.0037 3.8977ZM7.5037 25.5977C7.5037 28.1477 8.8137 29.4777 11.3437 29.4777H23.9837C26.5137 29.4777 27.8037 28.1477 27.8037 25.5977V12.2677C27.8037 11.0477 27.5737 10.4277 26.8837 9.7377L21.8237 4.6777C21.1137 3.9677 20.3937 3.6777 19.2937 3.6777H11.3437C8.8137 3.6777 7.5037 5.0077 7.5037 7.5777ZM11.8937 18.2377V16.6677C11.8937 15.5877 12.5737 14.9277 13.6137 14.9277H18.9537V25.4677H16.6437V18.9877C16.6437 18.5277 16.3637 18.2377 15.8737 18.2377ZM20.3337 25.4677V14.9277H21.6737C22.7237 14.9277 23.3837 15.5877 23.3837 16.6677V23.7477C23.3837 24.7977 22.7237 25.4677 21.6737 25.4677ZM11.8937 23.7477V19.6177H15.0537C15.1937 19.6177 15.2537 19.6877 15.2537 19.8077V25.4677H13.6137C12.5737 25.4677 11.8937 24.7977 11.8937 23.7477Z" /></svg>