<svg viewBox="0 0 27.80859375 29.4765625" xmlns="http://www.w3.org/2000/svg"><path d="M11.3437 29.4777H23.9837C26.5137 29.4777 27.8037 28.1477 27.8037 25.5977V12.2677C27.8037 11.0477 27.5737 10.4277 26.8837 9.7377L21.8237 4.6777C21.1137 3.9677 20.3937 3.6777 19.2937 3.6777H16.9837L14.3137 0.9977C13.6037 0.2877 12.8937 -0.0023 11.7737 -0.0023H3.8237C1.3037 -0.0023 0.0037 1.3277 0.0037 3.8977V21.9177C0.0037 24.4677 1.3037 25.7977 3.8237 25.7977H7.5237C7.5837 28.2177 8.8837 29.4777 11.3437 29.4777ZM7.5037 21.7977V23.5977H3.9137C2.7737 23.5977 2.2037 23.0277 2.2037 21.8877V3.8977C2.2037 2.7877 2.7737 2.1977 3.9237 2.1977H11.7037C12.3137 2.1977 12.7237 2.3677 13.1537 2.7877L14.0437 3.6777H11.3437C8.8137 3.6777 7.5037 5.0077 7.5037 7.5777V11.0977H6.0937C5.0537 11.0977 4.3937 11.7577 4.3937 12.8277V14.3977H7.5037V15.7777H4.3937V20.0677C4.3937 21.1277 5.0537 21.7977 6.0937 21.7977ZM11.4137 27.2777C10.2837 27.2777 9.7037 26.6977 9.7037 25.5677V7.5777C9.7037 6.4677 10.2937 5.8777 11.4337 5.8777H19.2237C19.8337 5.8777 20.2437 6.0477 20.6737 6.4677L25.1137 10.9377C25.4837 11.3177 25.6037 11.6577 25.6037 12.4177V25.5677C25.6037 26.6977 25.0237 27.2777 23.8837 27.2777ZM11.8937 18.0777H15.8737C16.3637 18.0777 16.6437 18.3577 16.6437 18.8277V25.4677H18.9537V14.7777H13.6137C12.5737 14.7777 11.8937 15.4377 11.8937 16.4977ZM20.3337 25.4677H21.6737C22.7237 25.4677 23.3837 24.7977 23.3837 23.7477V16.4977C23.3837 15.4377 22.7237 14.7777 21.6737 14.7777H20.3337ZM11.8937 23.7477C11.8937 24.7977 12.5737 25.4677 13.6137 25.4677H15.2537V19.6477C15.2537 19.5277 15.1937 19.4577 15.0537 19.4577H11.8937Z" /></svg>