<svg viewBox="0 0 32.416015625 30.1875" xmlns="http://www.w3.org/2000/svg"><path d="M0.0037 20.5375C0.0037 22.2175 1.3837 23.5975 3.0637 23.5975C4.2537 23.5975 5.3037 22.8875 5.7937 21.8775L26.4137 27.9075C26.7437 29.2175 27.9437 30.1875 29.3637 30.1875C31.0337 30.1875 32.4137 28.8175 32.4137 27.1375C32.4137 25.8675 31.6237 24.7775 30.5337 24.3175L29.9437 10.5375C31.1137 10.1275 31.9637 9.0075 31.9637 7.6875C31.9637 5.9975 30.5937 4.6375 28.9337 4.6375C27.8037 4.6375 26.8337 5.2375 26.2937 6.1075L14.9037 2.9975C14.8637 1.3375 13.5037 -0.0025 11.8637 -0.0025C10.1837 -0.0025 8.8037 1.3775 8.8037 3.0575C8.8037 3.9675 9.2037 4.7675 9.8337 5.3475L3.4837 17.5375C3.3337 17.4975 3.2037 17.4875 3.0637 17.4875C1.3837 17.4875 0.0037 18.8575 0.0037 20.5375ZM5.2737 18.4575L11.6337 6.0675C12.7037 6.2075 13.7237 5.6975 14.2737 4.8575L25.9337 8.0575C26.0337 9.2375 26.8937 10.2675 28.0237 10.6075L28.5037 24.1975C27.6037 24.4575 26.8637 25.1275 26.5337 25.9875L6.0137 19.9575C5.9337 19.3775 5.6837 18.8975 5.2737 18.4575Z" /></svg>