<svg viewBox="0 0 33.359375 24.923828125" xmlns="http://www.w3.org/2000/svg"><path d="M12.3437 15.5964C14.4637 15.5964 15.6837 14.3964 15.6837 12.3164V3.2964C15.6837 1.2064 14.4637 -0.0036 12.3437 -0.0036H3.3337C1.2137 -0.0036 0.0037 1.2064 0.0037 3.2964V12.3164C0.0037 14.3964 1.2137 15.5964 3.3337 15.5964ZM30.1037 15.4264C32.1737 15.4264 33.3637 14.2564 33.3637 12.2064V3.3864C33.3637 1.3364 32.1737 0.1764 30.1037 0.1764H21.3037C19.2337 0.1764 18.0337 1.3564 18.0337 3.3864V12.2064C18.0337 14.2464 19.2337 15.4264 21.3037 15.4264ZM12.3137 13.4364H3.3637C2.5437 13.4364 2.1637 13.0464 2.1637 12.2264V3.3764C2.1637 2.5564 2.5437 2.1564 3.3637 2.1564H12.3137C13.1237 2.1564 13.5237 2.5564 13.5237 3.3764V12.2264C13.5237 13.0464 13.1237 13.4364 12.3137 13.4364ZM1.0437 20.5364C0.4737 20.5364 0.0037 21.0264 0.0037 21.6464C0.0037 22.2564 0.4737 22.7364 1.0437 22.7364H4.7437C5.1937 24.0064 6.4137 24.9264 7.8337 24.9264C9.2537 24.9264 10.4737 24.0064 10.9237 22.7364H32.2537C32.8637 22.7364 33.3637 22.2564 33.3637 21.6464C33.3637 21.0264 32.8637 20.5364 32.2537 20.5364H10.9237C10.4737 19.2664 9.2537 18.3464 7.8337 18.3464C6.4137 18.3464 5.1937 19.2664 4.7437 20.5364ZM7.8337 23.2464C6.9337 23.2464 6.2337 22.5264 6.2337 21.6264C6.2337 20.7264 6.9337 20.0264 7.8337 20.0264C8.7237 20.0264 9.4337 20.7264 9.4337 21.6264C9.4337 22.5264 8.7237 23.2464 7.8337 23.2464Z" /></svg>