<svg viewBox="0 0 26.0859375 25.73046875" xmlns="http://www.w3.org/2000/svg"><path d="M4.0637 17.243H22.0137C24.6737 17.243 26.0837 15.883 26.0837 13.233V4.003C26.0837 1.353 24.6737 0.003 22.0137 0.003H4.0637C1.5437 0.003 0.0037 1.353 0.0037 4.003V13.233C0.0037 15.883 1.4037 17.243 4.0637 17.243ZM4.0337 15.173C2.8337 15.173 2.2037 14.543 2.2037 13.343V3.893C2.2037 2.693 2.8337 2.063 4.0337 2.063H22.0437C23.2537 2.063 23.8837 2.693 23.8837 3.893V13.343C23.8837 14.543 23.2537 15.173 22.0437 15.173ZM18.2537 25.733C19.6737 25.733 20.8937 24.813 21.3437 23.543H25.0337C25.5937 23.543 26.0837 23.063 26.0837 22.453C26.0837 21.833 25.5937 21.343 25.0337 21.343H21.3437C20.8937 20.073 19.6737 19.153 18.2537 19.153C16.8337 19.153 15.6137 20.073 15.1437 21.343H1.0937C0.4737 21.343 0.0037 21.833 0.0037 22.453C0.0037 23.063 0.4737 23.543 1.0937 23.543H15.1437C15.6137 24.813 16.8337 25.733 18.2537 25.733ZM18.2537 24.053C17.3537 24.053 16.6537 23.333 16.6537 22.433C16.6537 21.533 17.3537 20.833 18.2537 20.833C19.1537 20.833 19.8537 21.533 19.8537 22.433C19.8537 23.333 19.1537 24.053 18.2537 24.053Z" /></svg>