<svg viewBox="0 0 27.890625 27.890625" xmlns="http://www.w3.org/2000/svg"><path d="M13.9427 27.8864C21.6427 27.8864 27.8927 21.6464 27.8927 13.9464C27.8927 6.2464 21.6427 -0.0036 13.9427 -0.0036C6.2527 -0.0036 0.0027 6.2464 0.0027 13.9464C0.0027 21.6464 6.2527 27.8864 13.9427 27.8864ZM13.9427 25.5664C7.5227 25.5664 2.3227 20.3664 2.3227 13.9464C2.3227 7.5164 7.5227 2.3264 13.9427 2.3264C20.3727 2.3264 25.5627 7.5164 25.5627 13.9464C25.5627 20.3664 20.3727 25.5664 13.9427 25.5664ZM13.9327 19.1664C16.8027 19.1664 19.1527 16.8164 19.1527 13.9464C19.1527 11.0764 16.8027 8.7264 13.9327 8.7264C11.0627 8.7264 8.7127 11.0764 8.7127 13.9464C8.7127 16.8164 11.0627 19.1664 13.9327 19.1664ZM13.9327 17.0064C12.2527 17.0064 10.8727 15.6264 10.8727 13.9464C10.8727 12.2464 12.2527 10.8864 13.9327 10.8864C15.6227 10.8864 16.9927 12.2464 16.9927 13.9464C16.9927 15.6264 15.6227 17.0064 13.9327 17.0064Z" /></svg>