<svg viewBox="0 0 27.890625 27.890625" xmlns="http://www.w3.org/2000/svg"><path d="M13.9427 27.8927C21.6427 27.8927 27.8927 21.6427 27.8927 13.9427C27.8927 6.2627 21.6427 0.0027 13.9427 0.0027C6.2627 0.0027 0.0027 6.2627 0.0027 13.9427C0.0027 21.6427 6.2627 27.8927 13.9427 27.8927ZM4.3427 13.1427C4.3427 11.6327 5.4127 10.3727 6.8727 10.0927C6.9727 8.2127 8.5427 6.7027 10.4427 6.7027C11.6627 6.7027 12.7427 7.3127 13.4027 8.3127C13.7227 8.2027 14.0227 8.1227 14.3827 8.1227C15.6827 8.1227 16.4927 8.8227 16.6927 9.5527C15.4627 9.6127 14.3527 10.1327 13.5727 11.0027C13.3827 10.9827 13.1827 10.9627 12.9927 10.9627C11.2627 10.9627 9.8327 12.0427 9.2727 13.5927C8.0027 13.8927 6.9627 14.8327 6.5527 16.0627C5.1727 15.6127 4.3427 14.4827 4.3427 13.1427ZM10.2427 20.0727C8.5127 20.0727 7.3527 18.8427 7.3527 17.2527C7.3527 15.7627 8.5627 14.5227 10.0727 14.4827C10.3127 13.0427 11.5127 11.9727 12.9927 11.9727C13.3327 11.9727 13.6127 12.0127 13.9627 12.1227C14.6027 11.1527 15.6927 10.5427 16.9427 10.5427C18.8527 10.5427 20.3827 12.0727 20.4927 13.9327C21.9327 14.2227 23.0127 15.4727 23.0127 16.9827C23.0127 18.7127 21.6927 20.0727 19.7727 20.0727Z" /></svg>