<svg viewBox="0 0 27.890625 27.890625" xmlns="http://www.w3.org/2000/svg"><path d="M13.9427 27.8927C21.6427 27.8927 27.8927 21.6427 27.8927 13.9427C27.8927 6.2627 21.6427 0.0027 13.9427 0.0027C6.2627 0.0027 0.0027 6.2627 0.0027 13.9427C0.0027 21.6427 6.2627 27.8927 13.9427 27.8927ZM13.9327 22.7627C13.4927 22.7627 13.1627 22.4327 13.1627 21.9527V20.4027L11.9527 21.0927C11.5127 21.3327 11.1127 21.2327 10.8827 20.8527C10.6827 20.5127 10.8327 20.0527 11.2127 19.8427L13.1627 18.7427V17.7627L13.3027 15.0527L11.0227 16.5127L10.1727 17.0227L10.1827 19.2527C10.1827 19.7027 9.8827 20.0527 9.4727 20.0527C9.0227 20.0527 8.7327 19.7327 8.7327 19.2527L8.7227 17.8427L7.3827 18.6327C6.9827 18.8627 6.5527 18.7627 6.3027 18.3627C6.0727 17.9527 6.2027 17.5127 6.6127 17.2627L7.9527 16.5127L6.7527 15.8027C6.3327 15.5627 6.2227 15.1627 6.4227 14.7627C6.6327 14.4127 7.0927 14.3127 7.4927 14.5327L9.4027 15.6827L10.2427 15.1727L12.7027 13.9427L10.2427 12.7327L9.4027 12.2327L7.4927 13.3527C7.0927 13.5727 6.6327 13.4927 6.4127 13.1427C6.2027 12.7327 6.3427 12.3427 6.7527 12.1027L7.9527 11.3927L6.6127 10.6227C6.2027 10.3727 6.0527 9.9427 6.3027 9.5327C6.5327 9.1427 6.9827 9.0327 7.3827 9.2727L8.7227 10.0527L8.7327 8.6427C8.7327 8.1627 9.0227 7.8427 9.4727 7.8427C9.8827 7.8427 10.1827 8.1927 10.1827 8.6427L10.1727 10.8827L11.0227 11.3727L13.3027 12.8527L13.1627 10.1327V9.1427L11.2127 8.0627C10.8327 7.8327 10.6827 7.3827 10.8827 7.0427C11.1127 6.6627 11.5127 6.5727 11.9527 6.7927L13.1627 7.4927V5.9327C13.1627 5.4727 13.4927 5.1227 13.9327 5.1227C14.3827 5.1227 14.7127 5.4527 14.7127 5.9327V7.4827L15.9027 6.7927C16.3427 6.5627 16.7527 6.6627 16.9827 7.0427C17.1727 7.3827 17.0327 7.8327 16.6427 8.0627L14.6927 9.1427V10.1327L14.5627 12.8527L16.8727 11.3627L17.6927 10.8827L17.6827 8.6427C17.6827 8.1927 17.9827 7.8427 18.4027 7.8427C18.8227 7.8427 19.1227 8.1727 19.1227 8.6427L19.1427 10.0627L20.4827 9.2727C20.8727 9.0327 21.3327 9.1327 21.5627 9.5327C21.7827 9.9527 21.6527 10.3727 21.2427 10.6227L19.9027 11.3927L21.0927 12.1027C21.5027 12.3427 21.6527 12.7427 21.4527 13.1227C21.2327 13.4827 20.7627 13.5727 20.3727 13.3527L18.4527 12.2227L17.6227 12.7327L15.1627 13.9427L17.6227 15.1727L18.4527 15.6827L20.3727 14.5327C20.7627 14.3327 21.2227 14.4127 21.4527 14.7827C21.6527 15.1627 21.5027 15.5427 21.0927 15.8027L19.9027 16.5127L21.2427 17.2627C21.6527 17.5127 21.7827 17.9527 21.5627 18.3627C21.3027 18.7627 20.8727 18.8527 20.4827 18.6327L19.1427 17.8327L19.1227 19.2527C19.1227 19.7327 18.8227 20.0527 18.3927 20.0527C17.9827 20.0527 17.6827 19.7027 17.6827 19.2527L17.6927 17.0227L16.8727 16.5127L14.5627 15.0527L14.6927 17.7627V18.7427L16.6427 19.8227C17.0327 20.0527 17.1727 20.5127 16.9827 20.8527C16.7527 21.2327 16.3427 21.3427 15.9027 21.0927L14.7127 20.4127V21.9527C14.7127 22.4527 14.3827 22.7627 13.9327 22.7627Z" /></svg>