<svg viewBox="0 0 27.890625 27.890625" xmlns="http://www.w3.org/2000/svg"><path d="M13.9427 27.8864C21.6427 27.8864 27.8927 21.6464 27.8927 13.9464C27.8927 6.2464 21.6427 -0.0036 13.9427 -0.0036C6.2527 -0.0036 0.0027 6.2464 0.0027 13.9464C0.0027 21.6464 6.2527 27.8864 13.9427 27.8864ZM10.5727 25.5364C7.7627 24.7164 5.3627 22.8864 3.8027 20.4764L8.4227 20.4164L10.3327 17.9664L8.8727 13.4564L5.3227 12.0164L1.8327 13.9864C1.8427 11.0464 2.8727 8.4064 4.5827 6.3264L5.8827 10.6064L9.3227 12.0064L13.1627 9.0464V5.4564L9.6927 2.6364C11.0227 2.1364 12.4527 1.8564 13.9327 1.8564C15.4127 1.8564 16.8427 2.1364 18.1727 2.6364L14.7127 5.4564V9.0464L18.5527 12.0064L21.9827 10.6064L23.2827 6.3264C24.9927 8.4064 26.0127 11.0464 26.0327 13.9864L22.5427 12.0164L18.9927 13.4564L17.5227 17.9664L19.4427 20.4164L24.0627 20.4764C22.5027 22.8864 20.0927 24.7164 17.2927 25.5364L18.2627 21.3564L16.5127 19.1264H11.3427L9.6127 21.3564Z" /></svg>