<svg viewBox="0 0 42.287109375 23.994140625" xmlns="http://www.w3.org/2000/svg"><path d="M0.0037 17.935C0.0037 19.905 1.3037 21.205 3.2437 21.205H3.7637V22.795C3.7637 23.525 4.2337 23.995 4.9737 23.995H5.8237C6.5637 23.995 7.0437 23.525 7.0437 22.795V21.205H35.2437V22.795C35.2437 23.525 35.7337 23.995 36.4637 23.995H37.3137C38.0537 23.995 38.5237 23.525 38.5237 22.795V21.205H39.0437C40.9837 21.205 42.2837 19.905 42.2837 17.935V9.625C42.2837 7.665 40.9837 6.355 39.0437 6.355H38.4137V3.405C38.4137 1.355 37.0937 -0.005 35.1137 -0.005H23.2837C22.4337 -0.005 21.6937 0.245 21.1537 0.695C20.5937 0.245 19.8537 -0.005 19.0037 -0.005H7.4737C5.4937 -0.005 4.1737 1.355 4.1737 3.405V6.355H3.2437C1.3037 6.355 0.0037 7.665 0.0037 9.625ZM8.3637 12.905V9.625C8.3637 8.175 7.6437 7.085 6.4837 6.605V3.415C6.4837 2.735 6.9337 2.295 7.5737 2.295H18.8937C19.5537 2.295 19.9837 2.735 19.9837 3.415V12.905ZM22.3037 3.415C22.3037 2.735 22.7337 2.295 23.3937 2.295H35.0137C35.6537 2.295 36.1037 2.735 36.1037 3.415V6.505C34.7637 6.895 33.9337 8.055 33.9337 9.625V12.905H22.3037ZM2.3237 17.915V9.655C2.3237 9.055 2.7337 8.655 3.3537 8.655H5.0037C5.6337 8.655 6.0437 9.055 6.0437 9.655V15.205H36.2437V9.655C36.2437 9.055 36.6637 8.655 37.2837 8.655H38.9337C39.5537 8.655 39.9737 9.055 39.9737 9.655V17.915C39.9737 18.515 39.5537 18.905 38.9337 18.905H3.3537C2.7337 18.905 2.3237 18.515 2.3237 17.915Z" /></svg>