<svg viewBox="0 0 27.890625 27.890625" xmlns="http://www.w3.org/2000/svg"><path d="M13.9427 27.8864C21.6427 27.8864 27.8927 21.6464 27.8927 13.9464C27.8927 6.2464 21.6427 -0.0036 13.9427 -0.0036C6.2527 -0.0036 0.0027 6.2464 0.0027 13.9464C0.0027 21.6464 6.2527 27.8864 13.9427 27.8864ZM13.9427 25.5664C7.5227 25.5664 2.3227 20.3664 2.3227 13.9464C2.3227 7.5164 7.5227 2.3264 13.9427 2.3264C20.3727 2.3264 25.5627 7.5164 25.5627 13.9464C25.5627 20.3664 20.3727 25.5664 13.9427 25.5664ZM7.6127 18.4264C9.3127 18.4264 10.3227 17.3864 10.3227 15.8564C10.3227 14.5864 9.8027 13.9964 8.4227 13.2464L7.9027 12.9564C7.1227 12.5364 6.8727 12.2364 6.8727 11.7564C6.8727 11.3364 7.1827 11.0364 7.6127 11.0364C8.0527 11.0364 8.2827 11.3364 8.4127 11.9364C8.4527 12.1264 8.5327 12.2264 8.7127 12.2264H9.8827C10.0727 12.2264 10.2027 12.0964 10.2027 11.9064C10.1827 10.4764 9.3527 9.4064 7.6127 9.4064C5.9427 9.4064 4.9627 10.4564 4.9627 11.9464C4.9627 13.2064 5.4927 13.9064 6.8127 14.6064L7.3127 14.8764C8.1527 15.3164 8.4127 15.5264 8.4127 16.0464C8.4127 16.5664 8.1727 16.8064 7.6327 16.8064C7.0827 16.8064 6.7927 16.5064 6.7127 15.8764C6.6827 15.6964 6.5727 15.5964 6.4127 15.5964H5.1727C4.9727 15.5964 4.8427 15.7364 4.8527 15.9264C4.8627 17.4864 5.8127 18.4264 7.6127 18.4264ZM20.3027 18.4264C22.0027 18.4264 23.0127 17.3864 23.0127 15.8564C23.0127 14.5864 22.5027 13.9964 21.1127 13.2464L20.5927 12.9564C19.8127 12.5364 19.5627 12.2364 19.5627 11.7564C19.5627 11.3364 19.8627 11.0364 20.3027 11.0364C20.7427 11.0364 20.9827 11.3364 21.0927 11.9364C21.1327 12.1264 21.2227 12.2264 21.3927 12.2264H22.5727C22.7627 12.2264 22.8827 12.0964 22.8827 11.9064C22.8727 10.4764 22.0427 9.4064 20.3027 9.4064C18.6327 9.4064 17.6527 10.4564 17.6527 11.9464C17.6527 13.2064 18.1827 13.9064 19.4927 14.6064L20.0027 14.8764C20.8327 15.3264 21.0927 15.5264 21.0927 16.0464C21.0927 16.5664 20.8727 16.8064 20.3127 16.8064C19.7727 16.8064 19.4827 16.5064 19.4027 15.8764C19.3727 15.6964 19.2627 15.5964 19.1027 15.5964H17.8427C17.6627 15.5964 17.5227 15.7364 17.5227 15.9264C17.5527 17.4864 18.5027 18.4264 20.3027 18.4264ZM13.9427 18.4264C15.9727 18.4264 17.0527 16.9164 17.0527 13.9464C17.0527 11.0064 15.9827 9.4064 13.9427 9.4064C11.8827 9.4064 10.8127 11.0064 10.8127 13.9464C10.8127 16.9164 11.8927 18.4264 13.9427 18.4264ZM13.9427 16.7364C13.1627 16.7364 12.7827 15.9364 12.7827 13.9464C12.7827 11.9464 13.1627 11.1264 13.9427 11.1264C14.6827 11.1264 15.0527 11.9464 15.0527 13.9464C15.0527 15.9364 14.6827 16.7364 13.9427 16.7364Z" /></svg>