<svg viewBox="0 0 34.1796875 27.330078125" xmlns="http://www.w3.org/2000/svg"><path d="M3.5137 22.693H30.6637C33.0037 22.693 34.1837 21.563 34.1837 19.183V3.513C34.1837 1.133 33.0037 0.003 30.6637 0.003H3.5137C1.1937 0.003 0.0037 1.133 0.0037 3.513V19.183C0.0037 21.563 1.1937 22.693 3.5137 22.693ZM17.8037 17.023C17.5037 17.023 17.3037 16.833 17.2637 16.553C16.6637 12.423 16.1337 11.513 11.8137 11.073C11.5237 11.033 11.3437 10.843 11.3437 10.573C11.3437 10.313 11.5237 10.093 11.8137 10.053C16.1237 9.463 16.4837 8.723 17.2637 4.563C17.3337 4.293 17.5237 4.113 17.8037 4.113C18.0637 4.113 18.2637 4.303 18.3037 4.583C18.9237 8.653 19.4837 9.463 23.7737 10.053C24.0537 10.093 24.2437 10.313 24.2437 10.573C24.2437 10.843 24.0537 11.043 23.7737 11.073C19.4737 11.663 19.0837 12.423 18.3037 16.573C18.2537 16.833 18.0637 17.023 17.8037 17.023ZM12.2537 19.333C12.0337 19.333 11.9237 19.183 11.8537 18.963C11.4437 16.953 11.6237 16.853 9.4037 16.533C9.1737 16.493 9.0537 16.353 9.0537 16.133C9.0537 15.943 9.1737 15.773 9.3837 15.753C11.6237 15.383 11.4437 15.283 11.8537 13.293C11.9237 13.053 12.0437 12.923 12.2537 12.923C12.4537 12.923 12.5937 13.073 12.6437 13.293C13.0337 15.283 12.8937 15.383 15.1337 15.753C15.3237 15.773 15.4637 15.943 15.4637 16.133C15.4637 16.323 15.3237 16.493 15.1337 16.533C12.8937 16.853 13.0337 16.953 12.6437 19.003C12.5937 19.193 12.4437 19.333 12.2537 19.333ZM10.2137 27.333H23.9637C24.5637 27.333 25.0737 26.833 25.0737 26.223C25.0737 25.603 24.5637 25.113 23.9637 25.113H10.2137C9.6137 25.113 9.1037 25.603 9.1037 26.223C9.1037 26.833 9.6137 27.333 10.2137 27.333Z" /></svg>