<svg viewBox="0 0 34.1796875 27.34375" xmlns="http://www.w3.org/2000/svg"><path d="M3.5137 22.713H30.6637C32.8537 22.713 34.1837 21.373 34.1837 19.193V3.513C34.1837 1.343 32.8537 0.003 30.6637 0.003H3.5137C1.3437 0.003 0.0037 1.343 0.0037 3.513V19.193C0.0037 21.373 1.3437 22.713 3.5137 22.713ZM3.5537 20.503C2.7037 20.503 2.2037 20.003 2.2037 19.163V3.543C2.2037 2.703 2.7037 2.203 3.5537 2.203H30.6237C31.4737 2.203 31.9737 2.703 31.9737 3.543V19.163C31.9737 20.003 31.4737 20.503 30.6237 20.503ZM17.7637 16.883C18.0237 16.883 18.1937 16.693 18.2537 16.443C19.0037 12.413 19.3737 11.673 23.5537 11.103C23.8337 11.073 24.0037 10.883 24.0037 10.623C24.0037 10.363 23.8337 10.163 23.5537 10.113C19.3837 9.543 18.8537 8.763 18.2537 4.813C18.2137 4.543 18.0237 4.363 17.7637 4.363C17.5037 4.363 17.3037 4.523 17.2537 4.803C16.4837 8.833 16.1337 9.543 11.9537 10.113C11.6737 10.163 11.4937 10.363 11.4937 10.623C11.4937 10.883 11.6737 11.063 11.9537 11.103C16.1437 11.523 16.6637 12.413 17.2537 16.433C17.2937 16.693 17.4737 16.883 17.7637 16.883ZM12.3737 19.113C12.5637 19.113 12.7137 18.993 12.7537 18.803C13.1437 16.813 13.0037 16.723 15.1737 16.393C15.3637 16.363 15.4937 16.203 15.4937 16.013C15.4937 15.833 15.3637 15.663 15.1737 15.643C13.0037 15.283 13.1437 15.193 12.7537 13.263C12.7137 13.043 12.5737 12.903 12.3737 12.903C12.1837 12.903 12.0537 13.033 12.0037 13.263C11.6037 15.193 11.7737 15.283 9.5937 15.643C9.3937 15.663 9.2837 15.833 9.2837 16.013C9.2837 16.233 9.3937 16.363 9.6237 16.393C11.7737 16.723 11.6037 16.813 12.0037 18.753C12.0537 18.973 12.1637 19.113 12.3737 19.113ZM10.2137 27.343H23.9637C24.5637 27.343 25.0737 26.853 25.0737 26.233C25.0737 25.623 24.5637 25.133 23.9637 25.133H10.2137C9.6137 25.133 9.1037 25.623 9.1037 26.233C9.1037 26.853 9.6137 27.343 10.2137 27.343Z" /></svg>