<svg viewBox="0 0 24.30859375 24.1171875" xmlns="http://www.w3.org/2000/svg"><path d="M14.7401 24.116C15.6401 24.116 16.2801 23.476 16.2801 22.586V1.616C16.2801 0.726 15.6401 -0.004 14.7101 -0.004C14.0701 -0.004 13.6301 0.276 12.9501 0.946L7.1101 6.416C7.0301 6.496 6.9001 6.536 6.7701 6.536H2.8601C1.0001 6.536 0.0001 7.556 0.0001 9.526V14.616C0.0001 16.596 1.0001 17.606 2.8601 17.606H6.7701C6.9001 17.606 7.0301 17.646 7.1101 17.736L12.9501 23.256C13.5601 23.856 14.1001 24.116 14.7401 24.116ZM21.1601 17.866C21.6201 18.186 22.2601 18.086 22.6301 17.556C23.6801 16.176 24.3101 14.136 24.3101 12.046C24.3101 9.956 23.6801 7.926 22.6301 6.536C22.2601 6.006 21.6201 5.896 21.1601 6.216C20.6001 6.606 20.5201 7.286 20.9501 7.846C21.7401 8.946 22.1901 10.456 22.1901 12.046C22.1901 13.626 21.7201 15.136 20.9501 16.246C20.5401 16.816 20.6001 17.476 21.1601 17.866Z" /></svg>