<svg viewBox="0 0 33.82421875 24.1171875" xmlns="http://www.w3.org/2000/svg"><path d="M2.7737 17.606H6.7037C6.8237 17.606 6.9337 17.646 7.0237 17.736L13.1937 23.256C13.8537 23.846 14.3537 24.116 15.0137 24.116C15.8837 24.116 16.5537 23.476 16.5537 22.586V1.616C16.5537 0.726 15.8837 -0.004 14.9837 -0.004C14.3237 -0.004 13.9037 0.296 13.1937 0.946L7.0237 6.416C6.9337 6.496 6.8237 6.536 6.7037 6.536H2.7737C0.9137 6.536 0.0037 7.476 0.0037 9.456V14.696C0.0037 16.676 0.9337 17.606 2.7737 17.606ZM2.8737 15.616C2.3637 15.616 2.1337 15.376 2.1337 14.876V9.286C2.1337 8.766 2.3637 8.536 2.8737 8.536H7.2437C7.6037 8.536 7.8737 8.466 8.1937 8.176L14.0137 2.886C14.0837 2.816 14.1537 2.776 14.2437 2.776C14.3437 2.776 14.4237 2.846 14.4237 2.966V21.136C14.4237 21.256 14.3437 21.346 14.2437 21.346C14.1737 21.346 14.0937 21.296 14.0137 21.236L8.1937 15.966C7.8737 15.696 7.6037 15.616 7.2437 15.616ZM21.8037 13.196H32.5237C33.2937 13.196 33.8237 12.786 33.8237 12.056C33.8237 11.316 33.3337 10.896 32.5237 10.896H21.8037C21.0137 10.896 20.4937 11.316 20.4937 12.056C20.4937 12.786 21.0437 13.196 21.8037 13.196Z" /></svg>