<svg viewBox="0 0 36.6953125 26.407467372755637" xmlns="http://www.w3.org/2000/svg"><path d="M31.3601 26.2166C31.8301 26.5666 32.5001 26.4266 32.8701 25.8766C35.2601 22.4166 36.7001 18.0366 36.7001 13.2066C36.7001 8.3666 35.2201 4.0066 32.8701 0.5366C32.5001 -0.0334 31.8301 -0.1534 31.3601 0.1866C30.8401 0.5466 30.7801 1.1866 31.1401 1.7466C33.2601 4.8766 34.6001 8.8166 34.6001 13.2066C34.6001 17.5766 33.2601 21.5466 31.1401 24.6666C30.7801 25.2266 30.8401 25.8666 31.3601 26.2166ZM14.7401 25.2766C15.6401 25.2766 16.2801 24.6366 16.2801 23.7466V2.7766C16.2801 1.8866 15.6401 1.1566 14.7101 1.1566C14.0701 1.1566 13.6301 1.4366 12.9501 2.1066L7.1101 7.5766C7.0301 7.6566 6.9001 7.6966 6.7701 7.6966H2.8601C1.0001 7.6966 0.0001 8.7166 0.0001 10.6866V15.7766C0.0001 17.7566 1.0001 18.7666 2.8601 18.7666H6.7701C6.9001 18.7666 7.0301 18.8066 7.1101 18.8966L12.9501 24.4166C13.5601 25.0166 14.1001 25.2766 14.7401 25.2766ZM26.2401 22.5966C26.7401 22.9366 27.3701 22.8166 27.7401 22.2966C29.4901 19.8866 30.5201 16.5866 30.5201 13.2066C30.5201 9.8266 29.5001 6.4966 27.7401 4.1166C27.3701 3.5966 26.7401 3.4666 26.2401 3.8166C25.7301 4.1566 25.6501 4.7966 26.0401 5.3566C27.5401 7.4666 28.4001 10.2966 28.4001 13.2066C28.4001 16.1166 27.5101 18.9166 26.0401 21.0566C25.6601 21.6166 25.7301 22.2566 26.2401 22.5966ZM21.1601 19.0266C21.6201 19.3466 22.2601 19.2466 22.6301 18.7166C23.6801 17.3366 24.3101 15.2966 24.3101 13.2066C24.3101 11.1166 23.6801 9.0866 22.6301 7.6966C22.2601 7.1666 21.6201 7.0566 21.1601 7.3766C20.6001 7.7666 20.5201 8.4466 20.9501 9.0066C21.7401 10.1066 22.1901 11.6166 22.1901 13.2066C22.1901 14.7866 21.7201 16.2966 20.9501 17.4066C20.5401 17.9766 20.6001 18.6366 21.1601 19.0266Z" /></svg>