<svg viewBox="0 0 27.890625 27.890625" xmlns="http://www.w3.org/2000/svg"><path d="M13.9427 27.8864C21.6427 27.8864 27.8927 21.6464 27.8927 13.9464C27.8927 6.2464 21.6427 -0.0036 13.9427 -0.0036C6.2527 -0.0036 0.0027 6.2464 0.0027 13.9464C0.0027 21.6464 6.2527 27.8864 13.9427 27.8864ZM13.9427 25.5664C7.5227 25.5664 2.3227 20.3664 2.3227 13.9464C2.3227 7.5164 7.5227 2.3264 13.9427 2.3264C20.3727 2.3264 25.5627 7.5164 25.5627 13.9464C25.5627 20.3664 20.3727 25.5664 13.9427 25.5664ZM20.3827 21.2564C20.6127 21.4964 21.0227 21.4964 21.2627 21.2564C21.5027 21.0164 21.5027 20.6264 21.2627 20.3864L7.4927 6.6064C7.2427 6.3564 6.8527 6.3564 6.6027 6.6064C6.3527 6.8464 6.3727 7.2464 6.6027 7.4764ZM12.9727 10.6064L17.1627 14.7964V8.5964C17.1627 8.1464 16.8327 7.7764 16.3627 7.7764C16.0327 7.7764 15.8227 7.9264 15.4627 8.2564ZM10.2927 16.7664H12.3027C12.3727 16.7664 12.4327 16.7864 12.4827 16.8264L15.4627 19.6764C15.7727 19.9564 16.0527 20.0964 16.3827 20.0964C16.6127 20.0964 16.7727 19.9864 16.9027 19.8364L17.0527 19.3764L9.3427 11.6664H9.2327C9.0127 11.8564 8.8427 12.2264 8.8427 12.6464V15.2564C8.8427 16.2464 9.3627 16.7664 10.2927 16.7664Z" /></svg>