<svg viewBox="0 0 30.1328125 28.369140625" xmlns="http://www.w3.org/2000/svg"><path d="M8.1237 28.3728C8.6537 28.3728 9.0537 28.0928 9.6937 27.4928L14.6337 22.9828H23.8737C27.9437 22.9828 30.1337 20.7428 30.1337 16.7328V6.2628C30.1337 2.2528 27.9437 0.0028 23.8737 0.0028H6.2637C2.1837 0.0028 0.0037 2.2428 0.0037 6.2628V16.7328C0.0037 20.7528 2.1837 22.9828 6.2637 22.9828H6.9037V26.9628C6.9037 27.8128 7.3437 28.3728 8.1237 28.3728ZM14.6337 17.8328C14.2737 17.8328 14.0037 17.7028 13.6737 17.3928L10.6137 14.4628C10.5537 14.4228 10.4837 14.4128 10.4137 14.4128H8.3537C7.3837 14.4128 6.8337 13.8628 6.8337 12.8428V10.1428C6.8337 9.1228 7.3837 8.5728 8.3537 8.5728H10.4137C10.4837 8.5728 10.5537 8.5628 10.6137 8.5128L13.6737 5.6228C14.0437 5.2728 14.2637 5.1228 14.6037 5.1228C15.0837 5.1228 15.4337 5.5128 15.4337 5.9728V17.0228C15.4337 17.4828 15.0837 17.8328 14.6337 17.8328ZM20.3137 16.5128C19.9437 16.2928 19.8937 15.8328 20.1537 15.4628C20.9337 14.4328 21.3537 12.9628 21.3537 11.4728C21.3537 9.9628 20.9337 8.5428 20.1637 7.4628C19.9037 7.1128 19.9737 6.6728 20.3137 6.4128C20.6437 6.1828 21.0837 6.2628 21.3237 6.6128C22.3037 7.9828 22.8137 9.7028 22.8137 11.4728C22.8137 13.2728 22.2737 15.0028 21.3137 16.3428C21.0937 16.6628 20.6737 16.7528 20.3137 16.5128ZM17.8137 14.6528C17.4637 14.3828 17.3937 13.9628 17.6537 13.5728C18.0237 13.0428 18.2537 12.2628 18.2537 11.4728C18.2537 10.6528 18.0337 9.8728 17.6537 9.3828C17.3937 9.0128 17.4637 8.5728 17.8137 8.3028C18.1337 8.0528 18.5837 8.1528 18.8237 8.4728C19.3837 9.2528 19.7237 10.3628 19.7237 11.4728C19.7237 12.6328 19.4037 13.7228 18.8237 14.4828C18.5637 14.7928 18.1337 14.9028 17.8137 14.6528Z" /></svg>