<svg viewBox="0 0 36.94140625 25.169921875" xmlns="http://www.w3.org/2000/svg"><path d="M5.1937 25.1692H17.4737V19.1692C14.2437 18.6892 11.8037 15.9292 11.8037 12.5792C11.8037 9.2292 14.2437 6.4492 17.4737 5.9892V-0.0008H5.1937C1.8637 -0.0008 0.0037 1.8592 0.0037 5.1992V5.9592H3.3637C5.6737 5.9592 6.9337 7.2192 6.9337 9.5192V15.6692C6.9337 17.9692 5.6737 19.2192 3.3637 19.2192H0.0037V19.9792C0.0037 23.3092 1.8637 25.1692 5.1937 25.1692ZM19.4837 25.1692H31.7437C35.0837 25.1692 36.9437 23.3092 36.9437 19.9792V19.2192H33.5737C31.2637 19.2192 30.0237 17.9692 30.0237 15.6692V9.5192C30.0237 7.2192 31.2637 5.9592 33.5737 5.9592H36.9437V5.1992C36.9437 1.8592 35.0837 -0.0008 31.7437 -0.0008H19.4837V5.9892C22.6937 6.4492 25.1537 9.2292 25.1537 12.5792C25.1537 15.9292 22.6937 18.6892 19.4837 19.1692ZM17.4737 17.2692V14.6192C16.7237 14.2492 16.2037 13.4692 16.2037 12.5792C16.2037 11.6792 16.7237 10.9092 17.4737 10.5392V7.8892C15.2837 8.3292 13.6537 10.2492 13.6537 12.5792C13.6537 14.8992 15.2837 16.8192 17.4737 17.2692ZM19.4837 17.2692C21.6537 16.8192 23.2937 14.8992 23.2937 12.5792C23.2937 10.2492 21.6537 8.3292 19.4837 7.8892V10.5392C20.2337 10.9092 20.7437 11.6792 20.7437 12.5792C20.7437 13.4692 20.2337 14.2492 19.4837 14.6192ZM0.0037 17.2992H3.3737C4.4337 17.2992 5.0037 16.7192 5.0037 15.6692V9.5192C5.0037 8.4592 4.4337 7.8892 3.3737 7.8892H0.0037ZM36.9437 17.2992V7.8892H33.5637C32.5137 7.8892 31.9537 8.4592 31.9537 9.5192V15.6692C31.9537 16.7192 32.5137 17.2992 33.5637 17.2992Z" /></svg>