<svg viewBox="0 0 28.765625 22.3125" xmlns="http://www.w3.org/2000/svg"><path d="M1.0937 22.3137H27.6537C28.2637 22.3137 28.7637 21.8237 28.7637 21.2037C28.7637 20.6037 28.2637 20.1137 27.6537 20.1137H17.0637V13.7437H17.5237C18.5437 13.7437 19.2337 13.0437 19.2337 12.0137V9.5437C19.2337 8.5337 18.5437 7.8337 17.5237 7.8337H17.0637V5.7837H17.5237C18.5437 5.7837 19.2337 5.0737 19.2337 4.0637V2.8937C19.2337 1.1937 18.0037 0.0037 16.2037 0.0037H12.5537C10.7437 0.0037 9.5137 1.1937 9.5137 2.8937V4.0637C9.5137 5.0737 10.2137 5.7837 11.2237 5.7837H11.7037V7.8337H11.2337C10.2237 7.8337 9.5137 8.5337 9.5137 9.5437V12.0137C9.5137 13.0437 10.2237 13.7437 11.2337 13.7437H11.7037V20.1137H1.0937C0.4937 20.1137 0.0037 20.6037 0.0037 21.2037C0.0037 21.8237 0.4937 22.3137 1.0937 22.3137ZM11.6937 3.8437C11.5437 3.8437 11.4437 3.7637 11.4437 3.6137V2.8937C11.4437 2.2537 11.8437 1.9237 12.5537 1.9237H16.2037C16.9137 1.9237 17.3037 2.2537 17.3037 2.8937V3.6137C17.3037 3.7637 17.2137 3.8437 17.0737 3.8437ZM13.6337 7.8337V5.7837H15.1337V7.8337ZM11.6937 11.8137C11.5437 11.8137 11.4437 11.7137 11.4437 11.5637V9.9937C11.4437 9.8537 11.5437 9.7637 11.6937 9.7637H17.0737C17.2137 9.7637 17.3037 9.8537 17.3037 9.9937V11.5637C17.3037 11.7137 17.2137 11.8137 17.0737 11.8137ZM13.6337 20.1137V13.7437H15.1337V20.1137Z" /></svg>