<svg viewBox="0 0 28.765625 22.3125" xmlns="http://www.w3.org/2000/svg"><path d="M0.0037 21.2037C0.0037 21.8237 0.4937 22.3137 1.0937 22.3137H27.6537C28.2637 22.3137 28.7637 21.8237 28.7637 21.2037C28.7637 20.6037 28.2637 20.1137 27.6537 20.1137H16.4837V13.7437H17.5237C18.5437 13.7437 19.2337 13.0437 19.2337 12.0137V9.5437C19.2337 8.5337 18.5437 7.8337 17.5237 7.8337H16.4837V5.7837H17.5237C18.5437 5.7837 19.2337 5.0737 19.2337 4.0637V2.8937C19.2337 1.1937 18.0037 0.0037 16.2037 0.0037H12.5537C10.7437 0.0037 9.5137 1.1937 9.5137 2.8937V4.0637C9.5137 5.0737 10.2137 5.7837 11.2237 5.7837H12.2737V7.8337H11.2337C10.2237 7.8337 9.5137 8.5337 9.5137 9.5437V12.0137C9.5137 13.0437 10.2237 13.7437 11.2337 13.7437H12.2737V20.1137H1.0937C0.4937 20.1137 0.0037 20.6037 0.0037 21.2037Z" /></svg>