<svg viewBox="0 0 25.169921875 25.169921875" xmlns="http://www.w3.org/2000/svg"><path d="M0.0037 4.2755V20.8755C0.0037 23.7355 1.4237 25.1655 4.2337 25.1655H20.9337C23.7437 25.1655 25.1737 23.7355 25.1737 20.8755V4.2755C25.1737 1.4355 23.7637 -0.0045 20.9337 -0.0045H4.2337C1.4037 -0.0045 0.0037 1.4355 0.0037 4.2755ZM2.2037 4.3155C2.2037 2.9555 2.9237 2.2055 4.3437 2.2055H20.8237C22.2437 2.2055 22.9737 2.9555 22.9737 4.3155V11.4855H2.2037ZM4.3437 22.9655C2.9237 22.9655 2.2037 22.1855 2.2037 20.8355V13.6855H22.9737V20.8355C22.9737 22.1855 22.2437 22.9655 20.8237 22.9655Z" /></svg>