<svg viewBox="0 0 27.890625 27.890625" xmlns="http://www.w3.org/2000/svg"><path d="M13.9427 27.8864C21.6427 27.8864 27.8927 21.6464 27.8927 13.9464C27.8927 6.2464 21.6427 -0.0036 13.9427 -0.0036C6.2527 -0.0036 0.0027 6.2464 0.0027 13.9464C0.0027 21.6464 6.2527 27.8864 13.9427 27.8864ZM13.9427 25.5664C7.5227 25.5664 2.3227 20.3664 2.3227 13.9464C2.3227 7.5164 7.5227 2.3264 13.9427 2.3264C20.3727 2.3264 25.5627 7.5164 25.5627 13.9464C25.5627 20.3664 20.3727 25.5664 13.9427 25.5664ZM20.5927 8.5164L21.1627 7.8764C21.4627 7.5564 21.4527 7.1464 21.1927 6.8764L21.0127 6.7264C20.7427 6.4364 20.3027 6.4664 20.0027 6.7564L19.4127 7.3264ZM9.7627 20.4564H17.8727C19.1827 20.4564 19.9727 19.6764 19.9727 18.1664V11.0464L18.5627 12.4664V18.1064C18.5627 18.7264 18.2527 19.0264 17.8527 19.0264H9.7727C9.1827 19.0264 8.8727 18.7264 8.8727 18.1064V10.2664C8.8727 9.6364 9.1827 9.3264 9.7727 9.3264H15.5027L16.9227 7.9064H9.7627C8.2427 7.9064 7.4527 8.7064 7.4527 10.2164V18.1664C7.4527 19.6764 8.2427 20.4564 9.7627 20.4564ZM12.3427 15.9564L13.7227 15.3764L20.0027 9.1064L18.8127 7.9464L12.5527 14.2164L11.9227 15.5164C11.8027 15.7864 12.0827 16.0464 12.3427 15.9564Z" /></svg>