<svg viewBox="0 0 25.169921875 25.169921875" xmlns="http://www.w3.org/2000/svg"><path d="M4.2937 25.1692H20.8737C23.7437 25.1692 25.1737 23.7592 25.1737 20.9492V4.2392C25.1737 1.4192 23.7437 -0.0008 20.8737 -0.0008H4.2937C1.4337 -0.0008 0.0037 1.4192 0.0037 4.2392V20.9492C0.0037 23.7592 1.4337 25.1692 4.2937 25.1692ZM2.2037 4.3592C2.2037 2.9392 2.9537 2.1992 4.3237 2.1992H11.4837V11.4992H2.2037ZM20.8537 2.1992C22.2037 2.1992 22.9737 2.9392 22.9737 4.3592V11.4992H13.6837V2.1992ZM4.3237 22.9692C2.9537 22.9692 2.2037 22.2392 2.2037 20.8192V13.6992H11.4837V22.9692ZM22.9737 20.8192C22.9737 22.2392 22.2037 22.9692 20.8537 22.9692H13.6837V13.6992H22.9737Z" /></svg>