<svg viewBox="0 0 29.490234375 28.806640625" xmlns="http://www.w3.org/2000/svg"><path d="M0.9537 2.0623H28.5337C29.0937 2.0623 29.4937 1.6223 29.4937 1.0223C29.4937 0.4223 29.0937 0.0023 28.5337 0.0023H0.9537C0.3837 0.0023 0.0037 0.4223 0.0037 1.0223C0.0037 1.6223 0.3837 2.0623 0.9537 2.0623ZM2.6137 13.1123H5.7037C7.4337 13.1123 8.3137 12.2323 8.3137 10.4323V7.4623C8.3137 5.6623 7.4337 4.8023 5.7037 4.8023H2.6137C0.8737 4.8023 0.0037 5.6623 0.0037 7.4623V10.4323C0.0037 12.2323 0.8737 13.1123 2.6137 13.1123ZM13.1937 13.1123H16.2837C18.0237 13.1123 18.8937 12.2323 18.8937 10.4323V7.4623C18.8937 5.6623 18.0237 4.8023 16.2837 4.8023H13.1937C11.4537 4.8023 10.5837 5.6623 10.5837 7.4623V10.4323C10.5837 12.2323 11.4537 13.1123 13.1937 13.1123ZM23.7737 13.1123H26.8537C28.5837 13.1123 29.4637 12.2323 29.4637 10.4323V7.4623C29.4637 5.6623 28.5837 4.8023 26.8537 4.8023H23.7737C22.0237 4.8023 21.1537 5.6623 21.1537 7.4623V10.4323C21.1537 12.2323 22.0237 13.1123 23.7737 13.1123ZM2.6437 11.1823C2.1637 11.1823 1.9237 10.9423 1.9237 10.4323V7.4523C1.9237 6.9723 2.1637 6.7223 2.6437 6.7223H5.6637C6.1437 6.7223 6.3837 6.9723 6.3837 7.4523V10.4323C6.3837 10.9423 6.1437 11.1823 5.6637 11.1823ZM13.2237 11.1823C12.7437 11.1823 12.5137 10.9423 12.5137 10.4323V7.4523C12.5137 6.9723 12.7437 6.7223 13.2237 6.7223H16.2537C16.7337 6.7223 16.9637 6.9723 16.9637 7.4523V10.4323C16.9637 10.9423 16.7337 11.1823 16.2537 11.1823ZM23.7937 11.1823C23.3137 11.1823 23.0737 10.9423 23.0737 10.4323V7.4523C23.0737 6.9723 23.3137 6.7223 23.7937 6.7223H26.8237C27.3037 6.7223 27.5337 6.9723 27.5337 7.4523V10.4323C27.5337 10.9423 27.3037 11.1823 26.8237 11.1823ZM0.9537 17.7623H28.5337C29.0937 17.7623 29.4937 17.3323 29.4937 16.7323C29.4937 16.1323 29.0937 15.6923 28.5337 15.6923H0.9537C0.3837 15.6923 0.0037 16.1323 0.0037 16.7323C0.0037 17.3323 0.3837 17.7623 0.9537 17.7623ZM2.6237 28.8023H5.7137C7.4537 28.8023 8.3237 27.9423 8.3237 26.1423V23.1623C8.3237 21.3523 7.4537 20.4923 5.7137 20.4923H2.6237C0.8937 20.4923 0.0137 21.3523 0.0137 23.1623V26.1423C0.0137 27.9423 0.8937 28.8023 2.6237 28.8023ZM13.2037 28.8023H16.2937C18.0337 28.8023 18.9037 27.9423 18.9037 26.1423V23.1623C18.9037 21.3523 18.0337 20.4923 16.2937 20.4923H13.2037C11.4737 20.4923 10.5937 21.3523 10.5937 23.1623V26.1423C10.5937 27.9423 11.4737 28.8023 13.2037 28.8023ZM23.7937 28.8023H26.8637C28.6137 28.8023 29.4937 27.9423 29.4937 26.1423V23.1623C29.4937 21.3523 28.6137 20.4923 26.8637 20.4923H23.7937C22.0537 20.4923 21.1737 21.3523 21.1737 23.1623V26.1423C21.1737 27.9423 22.0537 28.8023 23.7937 28.8023ZM2.6537 26.8823C2.1737 26.8823 1.9437 26.6323 1.9437 26.1423V23.1723C1.9437 22.6723 2.1737 22.4223 2.6537 22.4223H5.6737C6.1537 22.4223 6.3937 22.6723 6.3937 23.1723V26.1423C6.3937 26.6323 6.1537 26.8823 5.6737 26.8823ZM13.2437 26.8823C12.7537 26.8823 12.5237 26.6323 12.5237 26.1423V23.1723C12.5237 22.6723 12.7537 22.4223 13.2437 22.4223H16.2737C16.7437 22.4223 16.9837 22.6723 16.9837 23.1723V26.1423C16.9837 26.6323 16.7437 26.8823 16.2737 26.8823ZM23.8037 26.8823C23.3337 26.8823 23.1037 26.6323 23.1037 26.1423V23.1723C23.1037 22.6723 23.3337 22.4223 23.8037 22.4223H26.8337C27.3337 22.4223 27.5637 22.6723 27.5637 23.1723V26.1423C27.5637 26.6323 27.3337 26.8823 26.8337 26.8823Z" /></svg>