<svg viewBox="0 0 25.169921875 25.169921875" xmlns="http://www.w3.org/2000/svg"><path d="M12.5937 11.0355L23.1737 0.4555C22.5537 0.1355 21.7937 -0.0045 20.8737 -0.0045H4.2937C3.3737 -0.0045 2.6237 0.1355 1.9937 0.4355ZM11.0337 12.5755L0.4537 1.9955C0.1537 2.5955 0.0037 3.3455 0.0037 4.2355V20.9355C0.0037 21.8155 0.1537 22.5555 0.4537 23.1755ZM14.1337 12.5755L24.7237 23.1755C25.0337 22.5555 25.1737 21.8155 25.1737 20.9355V4.2355C25.1737 3.3455 25.0337 2.5955 24.7237 1.9955ZM12.5937 14.1355L1.9937 24.7155C2.6237 25.0155 3.3737 25.1655 4.2937 25.1655H20.8737C21.7937 25.1655 22.5537 25.0155 23.1737 24.7155Z" /></svg>