<svg viewBox="0 0 27.72998046875 27.718038587405374" xmlns="http://www.w3.org/2000/svg"><path d="M25.9317 27.4127C26.3417 27.8227 27.0217 27.8227 27.4217 27.4127C27.8317 27.0027 27.8317 26.3327 27.4217 25.9227L1.8017 0.3127C1.3917 -0.0973 0.7217 -0.1073 0.3017 0.3127C-0.0983 0.7127 -0.0983 1.3927 0.3017 1.8027ZM22.1617 1.2927H5.5717C5.4017 1.2927 5.2317 1.3127 5.0817 1.3427L7.2517 3.5127C7.3517 3.5027 7.4617 3.5027 7.5717 3.5027H22.1317C23.4717 3.5027 24.2517 4.2227 24.2517 5.6427V20.1627C24.2517 20.2627 24.2517 20.3827 24.2417 20.4827L26.4117 22.6527C26.4417 22.5127 26.4517 22.3827 26.4517 22.2327V5.5327C26.4517 2.7227 25.0317 1.2927 22.1617 1.2927ZM5.5717 26.4627H22.1617C22.3517 26.4627 22.5117 26.4527 22.6917 26.4227L20.5217 24.2527C20.4217 24.2627 20.3017 24.2627 20.2017 24.2627H5.6017C4.2317 24.2627 3.4817 23.5427 3.4817 22.1227V7.5727C3.4817 7.4627 3.4817 7.3527 3.4917 7.2627L1.3217 5.0827C1.2917 5.2227 1.2817 5.3527 1.2817 5.5327V22.2327C1.2817 25.0627 2.7217 26.4627 5.5717 26.4627Z" /></svg>