<svg viewBox="0 0 25.169921875 25.169921875" xmlns="http://www.w3.org/2000/svg"><path d="M0.0037 24.0929C0.0037 24.7429 0.4337 25.1729 1.0937 25.1729H24.0937C24.7437 25.1729 25.1737 24.7429 25.1737 24.0929V1.0929C25.1737 0.4329 24.7437 0.0029 24.0937 0.0029H1.0937C0.4337 0.0029 0.0037 0.4329 0.0037 1.0929ZM2.5937 2.2029H11.4837V11.5129H2.2037V2.5929C2.2037 2.3129 2.3137 2.2029 2.5937 2.2029ZM13.6837 11.5129V2.2029H22.5737C22.8737 2.2029 22.9737 2.3129 22.9737 2.5929V11.5129ZM22.5737 22.9729H13.6837V13.7129H22.9737V22.5729C22.9737 22.8729 22.8737 22.9729 22.5737 22.9729ZM2.2037 22.5729V13.7129H11.4837V22.9729H2.5937C2.3137 22.9729 2.2037 22.8729 2.2037 22.5729Z" /></svg>