<svg viewBox="0 0 27.890625 27.890625" xmlns="http://www.w3.org/2000/svg"><path d="M13.9427 27.8864C21.6427 27.8864 27.8927 21.6264 27.8927 13.9464C27.8927 6.2464 21.6427 -0.0036 13.9427 -0.0036C6.2627 -0.0036 0.0027 6.2464 0.0027 13.9464C0.0027 21.6264 6.2627 27.8864 13.9427 27.8864ZM9.9027 21.2364C9.0827 21.8564 8.2027 21.2164 8.5327 20.2464L10.1127 15.4764L6.0327 12.5664C5.2627 12.0064 5.5227 10.9064 6.5627 10.9264L11.5827 10.9664L13.1127 6.1664C13.4127 5.2264 14.4827 5.2264 14.7827 6.1664L16.3127 10.9664L21.3327 10.9264C22.3827 10.9064 22.6127 12.0164 21.8627 12.5464L17.7727 15.4764L19.3727 20.2464C19.6827 21.2164 18.8227 21.8564 17.9927 21.2364L13.9427 18.2764Z" /></svg>