<svg viewBox="0 0 26.796875 28.916015625" xmlns="http://www.w3.org/2000/svg"><path d="M12.9427 28.9123H13.8327C16.0627 28.9123 17.1427 27.9323 17.1427 25.8523V20.9223L21.3927 23.3923C22.0427 23.7623 22.6227 23.9423 23.1627 23.9423C24.1427 23.9423 24.9827 23.3223 25.7027 22.0823L26.1527 21.3023C26.5827 20.5623 26.7927 19.8923 26.7927 19.2923C26.7927 18.3323 26.2327 17.5423 25.1427 16.9123L20.8727 14.4523L25.1327 11.9923C26.2327 11.3623 26.7827 10.5723 26.7827 9.6123C26.7827 9.0223 26.5627 8.3523 26.1427 7.6123L25.7027 6.8523C24.9627 5.5923 24.1327 4.9723 23.1327 4.9723C22.6027 4.9723 22.0227 5.1523 21.3827 5.5223L17.1427 7.9723V3.0623C17.1427 0.9823 16.0627 0.0023 13.8327 0.0023H12.9427C10.7227 0.0023 9.6527 0.9823 9.6527 3.0623V7.9723L5.4127 5.5223C4.7827 5.1523 4.1927 4.9723 3.6627 4.9723C2.6627 4.9723 1.8327 5.5923 1.0927 6.8523L0.6527 7.6123C0.2327 8.3523 0.0127 9.0223 0.0127 9.6123C0.0127 10.5723 0.5727 11.3623 1.6727 11.9923L5.9227 14.4523L1.6727 16.9123C0.5627 17.5423 0.0027 18.3323 0.0027 19.2923C0.0027 19.8923 0.2227 20.5623 0.6427 21.3023L1.0927 22.0823C1.8227 23.3223 2.6527 23.9423 3.6327 23.9423C4.1727 23.9423 4.7727 23.7623 5.4027 23.3923L9.6527 20.9223V25.8523C9.6527 27.9323 10.7227 28.9123 12.9427 28.9123ZM13.3127 26.8623C12.1927 26.8623 11.8227 26.5323 11.8227 25.4523V17.7323C11.8227 17.5323 11.7027 17.3923 11.5227 17.3923C11.4727 17.3923 11.4127 17.4023 11.3427 17.4423L4.6627 21.3123C4.3027 21.5223 4.0227 21.6123 3.7627 21.6123C3.3527 21.6123 3.0527 21.3323 2.7027 20.7223L2.6127 20.5923C2.3927 20.1923 2.2727 19.8823 2.2727 19.6023C2.2727 19.2123 2.5127 18.9123 3.0927 18.5923L9.8827 14.6523C10.0127 14.5923 10.0727 14.4823 10.0727 14.3723C10.0727 14.2423 10.0127 14.1323 9.8727 14.0723L3.1027 10.3223C2.5427 9.9923 2.2827 9.6923 2.2827 9.2923C2.2827 9.0323 2.3927 8.7223 2.6127 8.3223L2.7027 8.1723C3.0527 7.5623 3.3627 7.2823 3.7727 7.2823C4.0327 7.2823 4.3227 7.3823 4.6727 7.5923L11.3227 11.4423C11.3927 11.4823 11.4427 11.5023 11.5127 11.5023C11.7027 11.5023 11.8227 11.3623 11.8227 11.1423V3.4623C11.8227 2.3823 12.1927 2.0523 13.3127 2.0523H13.4827C14.6027 2.0523 14.9727 2.3823 14.9727 3.4623V11.1423C14.9727 11.3523 15.0927 11.5023 15.2727 11.5023C15.3427 11.5023 15.3927 11.4823 15.4627 11.4423L22.1327 7.5923C22.4927 7.3823 22.7727 7.2823 23.0227 7.2823C23.4327 7.2823 23.7527 7.5623 24.1027 8.1723L24.1827 8.3223C24.4027 8.7223 24.5227 9.0323 24.5227 9.2923C24.5227 9.6923 24.2627 9.9923 23.7027 10.3223L16.9427 14.0723C16.8027 14.1323 16.7227 14.2423 16.7227 14.3723C16.7227 14.4823 16.8027 14.5723 16.9227 14.6523L23.7227 18.5923C24.2827 18.9123 24.5427 19.2123 24.5427 19.6023C24.5427 19.8823 24.4027 20.1923 24.1827 20.5923L24.1027 20.7223C23.7527 21.3323 23.4427 21.6123 23.0327 21.6123C22.7727 21.6123 22.4927 21.5023 22.1527 21.3123L15.4527 17.4423C15.3827 17.4023 15.3427 17.3923 15.2727 17.3923C15.0927 17.3923 14.9727 17.5323 14.9727 17.7323V25.4523C14.9727 26.5323 14.6027 26.8623 13.4827 26.8623Z" /></svg>