<svg viewBox="0 0 26.11328125 28.642578125" xmlns="http://www.w3.org/2000/svg"><path d="M12.9427 28.6455H13.1227C15.0227 28.6455 15.7527 28.0455 15.7527 26.1555V18.9355L21.9827 22.5455C22.5827 22.8555 23.0627 23.0655 23.5027 23.0655C24.2527 23.0655 24.7727 22.5455 25.4027 21.6055L25.5027 21.4555C25.9127 20.8355 26.1127 20.2755 26.1127 19.8055C26.1127 19.0455 25.5827 18.4755 24.6327 17.9555L18.2127 14.2355L24.6227 10.6955C25.5827 10.1855 26.0727 9.6255 26.0727 8.8555C26.0727 8.3955 25.8627 7.8655 25.5227 7.2455L25.4327 7.0655C24.8127 6.0655 24.2527 5.5655 23.5127 5.5655C23.0827 5.5655 22.5727 5.7655 21.9727 6.0855L15.7527 9.6955V2.4855C15.7527 0.6055 15.0227 -0.0045 13.1227 -0.0045H12.9427C11.0427 -0.0045 10.3227 0.6055 10.3227 2.4855V9.6755L4.1127 6.0855C3.5127 5.7455 2.9527 5.5255 2.4927 5.5255C1.7327 5.5255 1.1227 6.0455 0.6427 7.0955L0.5627 7.2455C0.2627 7.8755 0.0727 8.4255 0.0727 8.8855C0.0727 9.6155 0.5227 10.1755 1.4727 10.7055L7.8927 14.2355L1.4627 17.9555C0.5227 18.4755 0.0027 19.0355 0.0027 19.7855C0.0027 20.2455 0.2227 20.8055 0.5727 21.4355L0.6527 21.5555C1.2327 22.5555 1.7727 23.0755 2.5527 23.0755C2.9927 23.0755 3.5127 22.8555 4.1027 22.5455L10.3227 18.9455V26.1555C10.3227 28.0455 11.0427 28.6455 12.9427 28.6455Z" /></svg>