<svg viewBox="0 0 30.775390625 27.890625" xmlns="http://www.w3.org/2000/svg"><path d="M13.9427 27.8864C15.8027 27.8864 17.6227 27.5064 19.2927 26.8064C19.2127 26.4464 19.1927 26.1964 19.1927 25.7964V24.3064C19.0327 24.3864 18.8227 24.4864 18.6327 24.5664C17.8927 24.9264 17.3727 24.4564 17.3627 23.7664C17.2827 21.1764 18.5027 18.8364 20.4127 17.3764C20.6027 14.1264 22.8427 12.0064 25.9227 12.0064C26.5827 12.0064 27.2027 12.1264 27.7627 12.3364C26.9727 5.4564 21.0027 -0.0036 13.9327 -0.0036C6.3027 -0.0036 0.0027 6.3164 0.0027 13.9464C0.0027 21.5564 6.3127 27.8864 13.9427 27.8864ZM4.3227 7.5064C6.3327 4.3864 9.8727 2.3264 13.9227 2.3264C17.9527 2.3264 21.4927 4.3864 23.5127 7.4964C24.0627 8.2764 23.8027 9.1464 22.8727 9.1464H4.9627C4.0427 9.1464 3.7727 8.2764 4.3227 7.5064ZM13.9227 17.6664C12.2327 17.6664 10.8827 16.3064 10.8827 14.6164C10.8827 12.9464 12.2327 11.5964 13.9227 11.5964C15.6027 11.5964 16.9527 12.9464 16.9527 14.6164C16.9527 16.3064 15.6027 17.6664 13.9227 17.6664ZM22.8227 27.6964H29.0127C30.1727 27.6964 30.7727 27.0864 30.7727 25.8364V21.0864C30.7727 20.0664 30.3627 19.4664 29.5827 19.2864V17.8464C29.5827 15.3764 28.1627 13.8364 25.9227 13.8364C23.6927 13.8364 22.2627 15.3764 22.2627 17.8464V19.2864C21.4627 19.4664 21.0727 20.0664 21.0727 21.0864V25.8364C21.0727 27.0864 21.6727 27.6964 22.8227 27.6964ZM23.7527 17.6064C23.7527 16.1964 24.5927 15.3164 25.9227 15.3164C27.2527 15.3164 28.1127 16.1964 28.1127 17.6064V19.2364H23.7527ZM2.7227 16.9964C2.4927 16.1464 2.9627 15.7664 3.6827 15.8564C7.5927 16.3064 10.6227 19.7464 10.4827 23.7664C10.4827 24.4564 9.9527 24.9264 9.2327 24.5664C5.9927 23.1164 3.6227 20.3564 2.7227 16.9964Z" /></svg>