<svg viewBox="0 0 30.5703125 30.5703125" xmlns="http://www.w3.org/2000/svg"><path d="M15.2827 30.5663C23.6827 30.5663 30.5727 23.6763 30.5727 15.2863C30.5727 6.8863 23.6827 -0.0038 15.2827 -0.0038C6.8927 -0.0038 0.0027 6.8863 0.0027 15.2863C0.0027 23.6763 6.8927 30.5663 15.2827 30.5663ZM15.2827 25.4862C9.6527 25.4862 5.0827 20.9162 5.0827 15.2863C5.0827 9.6363 9.6527 5.0863 15.2827 5.0863C20.9327 5.0863 25.4827 9.6363 25.4827 15.2863C25.4827 20.9162 20.9327 25.4862 15.2827 25.4862ZM10.9127 21.3263H19.0327C19.4427 21.3263 19.7727 21.0563 19.7727 20.6563C19.7727 20.2763 19.4427 19.9763 19.0327 19.9763H12.7127V19.9162C13.7927 19.5063 14.3027 18.2663 14.3027 17.0763C14.3027 16.5962 14.2727 16.1863 14.1827 15.8363H17.6627C18.0027 15.8363 18.2627 15.5863 18.2627 15.2763C18.2627 14.9663 18.0027 14.7263 17.6627 14.7263H13.8727C13.6827 13.9363 13.6327 13.5063 13.6327 13.0163C13.6327 11.4462 14.8227 10.5563 16.5427 10.5563C17.1627 10.5563 17.5827 10.6263 17.9327 10.7163C18.1827 10.7762 18.4127 10.8263 18.5827 10.8263C18.9627 10.8263 19.1927 10.6263 19.1927 10.2363C19.1927 9.8663 18.9227 9.6563 18.5927 9.5262C17.8527 9.2463 17.3227 9.1863 16.3827 9.1863C13.7527 9.1863 11.9927 10.6263 11.9927 13.0563C11.9927 13.5763 12.0627 14.0863 12.2527 14.7263H10.8027C10.4627 14.7263 10.2027 14.9663 10.2027 15.2763C10.2027 15.5863 10.4627 15.8363 10.8027 15.8363H12.5527C12.6627 16.2963 12.7427 16.7163 12.7427 17.1263C12.7427 18.4263 12.0727 19.3963 10.8427 19.8563C10.4627 19.9862 10.2127 20.2163 10.2127 20.6263C10.2127 21.0363 10.5027 21.3263 10.9127 21.3263Z" /></svg>