<svg viewBox="0 0 25.169921875 25.169921875" xmlns="http://www.w3.org/2000/svg"><path d="M4.2937 25.1692H20.8737C23.7437 25.1692 25.1737 23.7592 25.1737 20.9492V4.2392C25.1737 1.4192 23.7437 -0.0008 20.8737 -0.0008H4.2937C1.4337 -0.0008 0.0037 1.4192 0.0037 4.2392V20.9492C0.0037 23.7592 1.4337 25.1692 4.2937 25.1692ZM8.0937 18.8092C7.6737 18.8092 7.3737 18.5092 7.3737 18.0892C7.3737 17.6592 7.6337 17.4292 8.0237 17.2792C9.2837 16.8192 9.9837 15.8192 9.9837 14.4792C9.9837 14.0592 9.8937 13.6192 9.7737 13.1392H7.9737C7.6137 13.1392 7.3537 12.8892 7.3537 12.5692C7.3537 12.2492 7.6137 11.9992 7.9737 11.9992H9.4737C9.2737 11.3292 9.2037 10.8192 9.2037 10.2792C9.2037 7.7692 11.0237 6.2892 13.7237 6.2892C14.7137 6.2892 15.2537 6.3592 16.0237 6.6492C16.3537 6.7692 16.6437 6.9892 16.6437 7.3692C16.6437 7.7692 16.3937 7.9892 15.9937 7.9892C15.8337 7.9892 15.5837 7.9292 15.3437 7.8792C14.9737 7.7792 14.5337 7.6992 13.9037 7.6992C12.1237 7.6992 10.8937 8.6092 10.8937 10.2392C10.8937 10.7492 10.9537 11.1792 11.1537 11.9992H15.0537C15.4037 11.9992 15.6837 12.2492 15.6837 12.5692C15.6837 12.8892 15.4037 13.1392 15.0537 13.1392H11.4737C11.5637 13.5092 11.5937 13.9292 11.5937 14.4192C11.5937 15.6592 11.0737 16.9292 9.9537 17.3592V17.4192H16.4637C16.8837 17.4192 17.2237 17.7192 17.2237 18.1192C17.2237 18.5292 16.8837 18.8092 16.4637 18.8092Z" /></svg>