<svg viewBox="0 0 36.5859375 29.5859375" xmlns="http://www.w3.org/2000/svg"><path d="M0.0037 5.5516C0.0037 10.8316 4.4937 18.5016 8.9837 19.3416C9.1737 25.9316 11.6637 29.5816 15.9237 29.5816C20.0837 29.5816 22.2437 26.2816 23.3937 19.6016C24.2637 14.6316 25.4737 13.0716 27.4637 13.0716C29.6137 13.0716 30.7337 15.1216 31.0337 19.2916C29.2337 19.8116 27.9337 21.4816 27.9337 23.4316C27.9337 25.8416 29.8737 27.7716 32.2637 27.7716C34.6437 27.7716 36.5837 25.8416 36.5837 23.4316C36.5837 21.3816 35.1337 19.6616 33.2137 19.2216C32.6937 13.6616 30.9637 10.8716 27.4637 10.8716C24.1337 10.8716 22.3237 13.1416 21.2337 19.1116C20.2637 24.4816 19.0437 27.3816 15.7937 27.3816C12.9737 27.3816 11.3437 24.4816 11.1837 19.3616C15.6937 18.5416 20.2237 10.8416 20.2237 5.5516C20.2237 2.5316 18.7337 0.9816 15.8437 0.9816H15.4537C15.0837 0.3916 14.4337 0.0016 13.7037 0.0016C12.5737 0.0016 11.6437 0.9316 11.6437 2.0616C11.6437 3.2016 12.5737 4.1316 13.7037 4.1316C14.4237 4.1316 15.0637 3.7416 15.4237 3.1816H15.9537C17.3337 3.1816 18.0237 4.0016 18.0237 5.5216C18.0237 9.8616 14.0037 17.2216 10.1037 17.2216C6.2037 17.2216 2.2037 9.8616 2.2037 5.5216C2.2037 4.0016 2.8837 3.1816 4.2537 3.1816H4.7537C5.1237 3.7416 5.7737 4.1316 6.4937 4.1316C7.6137 4.1316 8.5437 3.2016 8.5437 2.0616C8.5437 0.9316 7.6137 0.0016 6.4937 0.0016C5.7537 0.0016 5.1037 0.3916 4.7437 0.9816H4.3637C1.4937 0.9816 0.0037 2.5316 0.0037 5.5516ZM32.2637 25.8416C30.9437 25.8416 29.8437 24.7616 29.8437 23.4316C29.8437 22.0916 30.9437 21.0316 32.2637 21.0316C33.5937 21.0316 34.6737 22.0916 34.6737 23.4316C34.6737 24.7616 33.5937 25.8416 32.2637 25.8416Z" /></svg>