<svg viewBox="0 0 27.890625 27.890625" xmlns="http://www.w3.org/2000/svg"><path d="M13.9427 27.8864C21.6427 27.8864 27.8927 21.6264 27.8927 13.9464C27.8927 6.2464 21.6427 -0.0036 13.9427 -0.0036C6.2627 -0.0036 0.0027 6.2464 0.0027 13.9464C0.0027 21.6264 6.2627 27.8864 13.9427 27.8864ZM6.0427 10.6464L8.0827 6.8864C8.3927 6.3164 8.9727 5.9764 9.6427 5.9764H18.1427C18.8027 5.9764 19.3727 6.3164 19.6827 6.8864L21.7227 10.6464ZM8.3027 13.7264C6.9827 13.7264 5.9327 12.8364 5.9327 11.9064V11.6164H21.8427V11.7764C21.8427 12.6964 20.7927 13.7264 19.4827 13.7264C18.7027 13.7264 18.0327 13.3664 17.6127 12.7964C17.2027 13.3664 16.5427 13.7264 15.7527 13.7264C14.9527 13.7264 14.3127 13.3664 13.8927 12.7964C13.4627 13.3664 12.8127 13.7264 12.0327 13.7264C11.2427 13.7264 10.5727 13.3664 10.1727 12.7964C9.7527 13.3664 9.0827 13.7264 8.3027 13.7264ZM8.4627 21.9064C7.4327 21.9064 6.8227 21.3164 6.8227 20.3064V14.3964C7.2727 14.6064 7.7927 14.7364 8.3427 14.7364C9.0527 14.7364 9.6927 14.4964 10.2127 14.0964C10.7027 14.4964 11.3427 14.7364 12.0727 14.7364C12.7727 14.7364 13.4227 14.4964 13.9327 14.0964C14.4327 14.4964 15.0927 14.7364 15.7927 14.7364C16.5027 14.7364 17.1427 14.4964 17.6627 14.0964C18.1727 14.4964 18.8127 14.7364 19.5227 14.7364C20.0727 14.7364 20.6027 14.5764 21.0227 14.3564V20.3064C21.0227 21.3164 20.4227 21.9064 19.4027 21.9064ZM11.1927 20.4664H16.6627V16.6764C16.6627 16.3564 16.4627 16.1364 16.1327 16.1364H11.7627C11.4127 16.1364 11.1927 16.3564 11.1927 16.6764Z" /></svg>