<svg viewBox="0 0 25.662109375 26.236328125" xmlns="http://www.w3.org/2000/svg"><path d="M0.0027 16.0279C0.0027 19.4979 2.3227 21.8179 5.8127 21.8179C7.3127 21.8179 8.7327 21.2979 9.7227 20.5079C9.1627 21.9879 8.1527 23.1079 7.5627 23.7879C6.7127 24.8379 7.1227 26.2379 8.6027 26.2379H17.0627C18.5427 26.2379 18.9527 24.8379 18.0927 23.7879C17.5127 23.1079 16.4927 21.9879 15.9427 20.5079C16.9227 21.2979 18.3427 21.8179 19.8527 21.8179C23.3427 21.8179 25.6627 19.4979 25.6627 16.0279C25.6627 10.2579 17.4827 7.4279 14.1627 0.9979C13.8727 0.4379 13.5627 -0.0021 12.8227 -0.0021C12.0827 -0.0021 11.7827 0.4379 11.5027 0.9979C8.1727 7.4279 0.0027 10.2579 0.0027 16.0279ZM2.0127 15.9979C2.0127 11.3879 9.6127 9.1279 12.8227 2.2279C16.0327 9.1279 23.6527 11.3879 23.6527 15.9979C23.6527 18.3579 22.0827 19.9179 19.7127 19.9179C18.0627 19.9179 16.7227 19.2079 15.8327 18.3879C15.0027 17.6679 13.8227 18.0079 13.8727 19.2479C14.0127 20.6579 14.9727 22.7679 15.9327 23.9279C16.1327 24.1579 16.0127 24.3479 15.8027 24.3479H9.8527C9.6527 24.3479 9.5327 24.1579 9.7327 23.9279C10.6927 22.7679 11.6327 20.6579 11.7827 19.2479C11.8427 18.0079 10.6627 17.6679 9.8327 18.3879C8.9327 19.2079 7.6027 19.9179 5.9427 19.9179C3.5827 19.9179 2.0127 18.3579 2.0127 15.9979Z" /></svg>