<svg viewBox="0 0 26.072265625 25.689453125" xmlns="http://www.w3.org/2000/svg"><path d="M0.0027 15.351C0.0027 18.891 2.3627 21.261 5.9027 21.261C7.4227 21.261 8.9427 20.751 9.9227 19.951C9.3627 21.441 8.3527 22.541 7.7627 23.241C6.9227 24.291 7.3327 25.691 8.8027 25.691H17.2627C18.7427 25.691 19.1527 24.291 18.2927 23.241C17.7027 22.541 16.6927 21.441 16.1427 19.951C17.1327 20.751 18.6527 21.261 20.1627 21.261C23.7027 21.261 26.0727 18.891 26.0727 15.351C26.0727 12.081 23.4227 9.431 20.1827 9.431C19.1827 9.431 18.1727 9.691 17.2527 10.141C18.4427 8.871 18.9327 7.301 18.9327 5.921C18.9327 2.651 16.2827 0.001 13.0327 0.001C9.7927 0.001 7.1327 2.651 7.1327 5.921C7.1327 7.311 7.6327 8.861 8.8227 10.141C7.9027 9.691 6.8927 9.431 5.8927 9.431C2.6527 9.431 0.0027 12.081 0.0027 15.351ZM1.9427 15.391C1.9427 13.191 3.7227 11.431 5.8927 11.431C7.5727 11.431 8.7327 11.981 9.6627 12.341C10.0927 12.481 10.4327 12.591 10.7727 12.591C11.2627 12.591 11.7427 12.261 11.7427 11.631C11.7427 11.281 11.6027 10.921 11.3627 10.641C10.1427 9.211 9.0827 8.091 9.0827 5.961C9.0827 3.761 10.8427 2.001 13.0327 2.001C15.2327 2.001 16.9927 3.761 16.9927 5.961C16.9927 8.091 15.9327 9.211 14.7127 10.641C14.4627 10.921 14.3327 11.281 14.3327 11.631C14.3327 12.261 14.8027 12.591 15.3027 12.591C15.6427 12.591 15.9727 12.481 16.3927 12.341C17.3227 11.991 18.4827 11.431 20.1827 11.431C22.3527 11.431 24.1327 13.191 24.1327 15.391C24.1327 17.761 22.5427 19.321 20.1627 19.321C18.5127 19.321 16.9227 18.661 16.0227 17.841C15.2027 17.121 14.0227 17.461 14.0827 18.701C14.2227 20.111 15.1727 22.221 16.1327 23.381C16.3427 23.611 16.2127 23.801 16.0127 23.801H10.0627C9.8527 23.801 9.7327 23.611 9.9427 23.381C10.8927 22.221 11.8427 20.111 11.9927 18.701C12.0427 17.461 10.8727 17.121 10.0327 17.841C9.1327 18.661 7.5627 19.321 5.9027 19.321C3.5227 19.321 1.9427 17.761 1.9427 15.391Z" /></svg>