<svg viewBox="0 0 25.771484375 25.62109375" xmlns="http://www.w3.org/2000/svg"><path d="M0.0027 15.4127C0.0027 18.6727 2.5827 21.2027 5.8427 21.2027C7.6527 21.2027 9.5327 20.6027 10.3227 19.0027H10.4627C10.4727 20.8227 8.4727 22.3227 7.6527 23.1727C6.6727 24.2027 7.2727 25.6227 8.5427 25.6227H17.2227C18.5027 25.6227 19.0827 24.2027 18.1127 23.1727C17.2927 22.3227 15.3027 20.8227 15.3127 19.0027H15.4527C16.2427 20.6027 18.1127 21.2027 19.9227 21.2027C23.1827 21.2027 25.7727 18.6727 25.7727 15.4127C25.7727 12.1227 23.2927 9.3527 20.0327 9.3527C18.7727 9.3527 17.4827 9.7727 16.4927 10.5727C18.1827 9.1827 18.7727 7.4527 18.7727 5.8927C18.7727 2.6227 16.1327 0.0027 12.8827 0.0027C9.6427 0.0027 7.0027 2.6227 7.0027 5.8927C7.0027 7.4527 7.5927 9.1827 9.2827 10.5727C8.2827 9.7727 7.0027 9.3527 5.7427 9.3527C2.4727 9.3527 0.0027 12.1227 0.0027 15.4127Z" /></svg>