<svg viewBox="0 0 15.8046875 25.169921875" xmlns="http://www.w3.org/2000/svg"><path d="M1.8337 25.1692H14.5637C15.2537 25.1692 15.7937 24.7292 15.7937 24.0192C15.7937 23.3292 15.2537 22.8592 14.5637 22.8592H2.8837V22.7392L10.2837 13.7692C10.6337 13.3292 10.8237 12.8892 10.8237 12.4592C10.8237 11.9992 10.6337 11.5492 10.2637 11.1292L2.8937 2.4292V2.3092H14.5637C15.2737 2.3092 15.8037 1.8492 15.8037 1.1492C15.8037 0.4392 15.2737 -0.0008 14.5637 -0.0008H1.8437C0.6737 -0.0008 0.0137 0.8092 0.0137 1.7092C0.0137 2.1692 0.1937 2.6692 0.5437 3.0792L8.4337 12.3692V12.5192L0.5237 22.0892C0.1737 22.4992 0.0037 22.9992 0.0037 23.4592C0.0037 24.3592 0.6537 25.1692 1.8337 25.1692Z" /></svg>