<svg viewBox="0 0 27.890625 27.890625" xmlns="http://www.w3.org/2000/svg"><path d="M13.9427 27.8927C21.6427 27.8927 27.8927 21.6427 27.8927 13.9427C27.8927 6.2627 21.6427 0.0027 13.9427 0.0027C6.2627 0.0027 0.0027 6.2627 0.0027 13.9427C0.0027 21.6427 6.2627 27.8927 13.9427 27.8927ZM13.9427 8.2127C13.5127 8.2127 13.1627 7.8227 13.1627 7.3427V5.5327C13.1627 5.0427 13.5227 4.6927 13.9427 4.6927C14.3727 4.6927 14.7427 5.0427 14.7427 5.5327V7.3427C14.7427 7.8227 14.3827 8.2127 13.9427 8.2127ZM17.6327 10.2027C17.3127 9.8727 17.3127 9.3927 17.6627 9.0327L18.9727 7.7227C19.3027 7.3827 19.8227 7.3827 20.1427 7.6927C20.4227 8.0227 20.4127 8.4927 20.0527 8.8427L18.7827 10.1427C18.4427 10.4827 17.9527 10.4827 17.6327 10.2027ZM10.2627 10.2027C9.9527 10.5127 9.4627 10.4727 9.1227 10.1427L7.8327 8.8427C7.4827 8.4927 7.4627 8.0127 7.7627 7.6927C8.0627 7.3927 8.5627 7.3727 8.9127 7.7227L10.2227 9.0327C10.5727 9.3827 10.5927 9.8727 10.2627 10.2027ZM9.9827 15.1627C9.8427 14.7427 9.7527 14.3127 9.7527 13.8627C9.7527 11.5627 11.6627 9.6527 13.9427 9.6527C16.2427 9.6527 18.1427 11.5627 18.1427 13.8627C18.1427 14.3127 18.0427 14.7427 17.9127 15.1627ZM8.7627 13.6727C8.7627 14.1227 8.3827 14.4627 7.8727 14.4627H6.0727C5.5927 14.4627 5.2227 14.1127 5.2227 13.6727C5.2227 13.2527 5.5927 12.8927 6.0727 12.8927H7.8727C8.3627 12.8927 8.7627 13.2327 8.7627 13.6727ZM19.1427 13.6727C19.1427 13.2327 19.5227 12.8927 20.0127 12.8927H21.8327C22.3127 12.8927 22.6727 13.2527 22.6727 13.6727C22.6727 14.1127 22.3127 14.4627 21.8327 14.4627H20.0127C19.5227 14.4627 19.1427 14.1227 19.1427 13.6727ZM6.0527 17.7327C5.6327 17.7327 5.2227 17.3927 5.2227 16.9527C5.2227 16.5027 5.6227 16.1827 6.0527 16.1827H21.8427C22.2827 16.1827 22.6727 16.5027 22.6727 16.9527C22.6727 17.3927 22.2727 17.7327 21.8427 17.7327ZM7.0427 20.2327C6.6727 20.2327 6.3727 19.9227 6.3727 19.5627C6.3727 19.1927 6.6727 18.8827 7.0427 18.8827C7.4227 18.8827 7.7127 19.1927 7.7127 19.5627C7.7127 19.9227 7.4227 20.2327 7.0427 20.2327ZM10.5027 20.2327C10.1327 20.2327 9.8327 19.9227 9.8327 19.5627C9.8327 19.1927 10.1327 18.8827 10.5027 18.8827C10.8727 18.8827 11.1827 19.1927 11.1827 19.5627C11.1827 19.9227 10.8727 20.2327 10.5027 20.2327ZM13.9627 20.2327C13.5927 20.2327 13.2927 19.9227 13.2927 19.5627C13.2927 19.1927 13.5927 18.8827 13.9627 18.8827C14.3427 18.8827 14.6427 19.1927 14.6427 19.5627C14.6427 19.9227 14.3427 20.2327 13.9627 20.2327ZM17.4327 20.2327C17.0627 20.2327 16.7527 19.9227 16.7527 19.5627C16.7527 19.1927 17.0627 18.8827 17.4327 18.8827C17.8027 18.8827 18.0927 19.1927 18.0927 19.5627C18.0927 19.9227 17.8027 20.2327 17.4327 20.2327ZM20.8727 20.2327C20.5227 20.2327 20.2027 19.9227 20.2027 19.5627C20.2027 19.1927 20.5227 18.8827 20.8727 18.8827C21.2427 18.8827 21.5627 19.1927 21.5627 19.5627C21.5627 19.9227 21.2427 20.2327 20.8727 20.2327ZM8.7527 22.1327C8.3927 22.1327 8.0927 21.8327 8.0927 21.4627C8.0927 21.0927 8.3927 20.7827 8.7527 20.7827C9.1327 20.7827 9.4327 21.0927 9.4327 21.4627C9.4327 21.8327 9.1327 22.1327 8.7527 22.1327ZM12.2227 22.1327C11.8527 22.1327 11.5527 21.8327 11.5527 21.4627C11.5527 21.0927 11.8527 20.7827 12.2227 20.7827C12.5927 20.7827 12.9027 21.0927 12.9027 21.4627C12.9027 21.8327 12.5927 22.1327 12.2227 22.1327ZM15.6827 22.1327C15.3127 22.1327 15.0127 21.8327 15.0127 21.4627C15.0127 21.0927 15.3127 20.7827 15.6827 20.7827C16.0627 20.7827 16.3527 21.0927 16.3527 21.4627C16.3527 21.8327 16.0627 22.1327 15.6827 22.1327ZM19.1527 22.1327C18.7727 22.1327 18.4727 21.8327 18.4727 21.4627C18.4727 21.0927 18.7727 20.7827 19.1527 20.7827C19.5127 20.7827 19.8127 21.0927 19.8127 21.4627C19.8127 21.8327 19.5127 22.1327 19.1527 22.1327Z" /></svg>