<svg viewBox="0 0 27.890625 27.890625" xmlns="http://www.w3.org/2000/svg"><path d="M13.9427 27.8864C21.6427 27.8864 27.8927 21.6464 27.8927 13.9464C27.8927 6.2464 21.6427 -0.0036 13.9427 -0.0036C6.2527 -0.0036 0.0027 6.2464 0.0027 13.9464C0.0027 21.6464 6.2527 27.8864 13.9427 27.8864ZM13.9427 25.5664C7.5227 25.5664 2.3227 20.3664 2.3227 13.9464C2.3227 7.5164 7.5227 2.3264 13.9427 2.3264C20.3727 2.3264 25.5627 7.5164 25.5627 13.9464C25.5627 20.3664 20.3727 25.5664 13.9427 25.5664ZM13.9327 5.2864C13.4927 5.2864 13.0927 5.6864 13.0927 6.1364V7.7764C13.0927 8.2264 13.4927 8.6164 13.9327 8.6164C14.3827 8.6164 14.7827 8.2264 14.7827 7.7764V6.1364C14.7827 5.6864 14.3827 5.2864 13.9327 5.2864ZM20.0527 7.8164C19.7127 7.5064 19.1727 7.5064 18.8627 7.8164L17.6927 9.0064C17.3727 9.3564 17.3727 9.8864 17.6927 10.1864C18.0227 10.5164 18.5527 10.5164 18.8827 10.1864L20.0527 9.0064C20.3727 8.6964 20.3727 8.1464 20.0527 7.8164ZM7.8327 7.8164C7.5227 8.1464 7.5027 8.6964 7.8227 9.0064L8.9927 10.1864C9.3227 10.5164 9.8427 10.5164 10.1727 10.1864C10.4827 9.8664 10.4827 9.3364 10.1727 9.0064L9.0127 7.8164C8.6927 7.5164 8.1627 7.5164 7.8327 7.8164ZM13.9327 18.0864C16.2327 18.0864 18.0727 16.2464 18.0727 13.9464C18.0727 11.6464 16.2327 9.8064 13.9327 9.8064C11.6327 9.8064 9.7927 11.6464 9.7927 13.9464C9.7927 16.2464 11.6327 18.0864 13.9327 18.0864ZM22.5627 13.9464C22.5627 13.4764 22.1727 13.0964 21.7227 13.0964H20.0827C19.6427 13.0964 19.2527 13.4964 19.2527 13.9464C19.2527 14.3964 19.6427 14.7764 20.0827 14.7764H21.7227C22.1727 14.7764 22.5627 14.4064 22.5627 13.9464ZM5.3227 13.9464C5.3227 14.4064 5.7027 14.7764 6.1427 14.7764H7.7827C8.2327 14.7764 8.6127 14.3964 8.6127 13.9464C8.6127 13.4964 8.2327 13.0964 7.7827 13.0964H6.1427C5.7027 13.0964 5.3227 13.4764 5.3227 13.9464ZM7.8227 20.0464C8.1527 20.3664 8.6827 20.3664 8.9927 20.0564L10.1727 18.8964C10.4827 18.5764 10.4827 18.0464 10.1727 17.7064C9.8527 17.3864 9.3127 17.3864 8.9927 17.7064L7.8227 18.8764C7.4927 19.1964 7.5027 19.7164 7.8227 20.0464ZM20.0527 20.0564C20.3827 19.7164 20.3727 19.1864 20.0527 18.8764L18.8627 17.7064C18.5527 17.3864 18.0227 17.3864 17.6927 17.7064C17.3627 18.0364 17.3727 18.5564 17.6927 18.8764L18.8627 20.0564C19.1827 20.3664 19.7127 20.3664 20.0527 20.0564ZM13.9327 22.5864C14.3827 22.5864 14.7827 22.2064 14.7827 21.7564V20.1064C14.7827 19.6564 14.3827 19.2764 13.9327 19.2764C13.4927 19.2764 13.0927 19.6564 13.0927 20.1064V21.7564C13.0927 22.2064 13.4927 22.5864 13.9327 22.5864Z" /></svg>