<svg viewBox="0 0 27.890625 27.890625" xmlns="http://www.w3.org/2000/svg"><path d="M13.9427 27.8864C21.6427 27.8864 27.8927 21.6464 27.8927 13.9464C27.8927 6.2464 21.6427 -0.0036 13.9427 -0.0036C6.2527 -0.0036 0.0027 6.2464 0.0027 13.9464C0.0027 21.6464 6.2527 27.8864 13.9427 27.8864ZM13.9427 25.5664C7.5227 25.5664 2.3227 20.3664 2.3227 13.9464C2.3227 7.5164 7.5227 2.3264 13.9427 2.3264C20.3727 2.3264 25.5627 7.5164 25.5627 13.9464C25.5627 20.3664 20.3727 25.5664 13.9427 25.5664ZM13.9327 11.1164C14.3327 11.1164 14.6427 10.7764 14.6427 10.3664V7.8464L14.6027 7.3464L14.7827 7.5164L15.6127 8.3764C15.7227 8.5064 15.9327 8.5864 16.0927 8.5864C16.4427 8.5864 16.7027 8.3164 16.7027 7.9664C16.7027 7.7964 16.6627 7.6464 16.4927 7.4764L14.4127 5.5364C14.2427 5.3864 14.0927 5.3164 13.9327 5.3164C13.7627 5.3164 13.6127 5.3864 13.4527 5.5364L11.3727 7.4764C11.2127 7.6464 11.1527 7.7964 11.1527 7.9664C11.1527 8.3164 11.4127 8.5864 11.7727 8.5864C11.9327 8.5864 12.1227 8.5064 12.2627 8.3764L13.1927 7.4664L13.2627 7.3864L13.2227 7.8464V10.3664C13.2227 10.7764 13.5327 11.1164 13.9327 11.1164ZM17.2827 12.9064C17.5527 13.1764 17.9927 13.1764 18.3027 12.8664L19.4827 11.6764C19.7827 11.3564 19.7927 10.9364 19.5227 10.6464C19.2527 10.3664 18.8027 10.3764 18.4827 10.6764L17.3127 11.8664C16.9927 12.1864 16.9827 12.6164 17.2827 12.9064ZM9.5727 12.8664C9.8727 13.1664 10.3327 13.1964 10.6127 12.9064C10.8927 12.6164 10.8527 12.1664 10.5727 11.8664L9.3827 10.6764C9.0627 10.3664 8.6127 10.3864 8.3427 10.6464C8.0627 10.9364 8.0627 11.3564 8.3827 11.6764ZM17.7327 16.2264C17.7327 14.1464 16.0127 12.4164 13.9327 12.4164C11.8627 12.4164 10.1327 14.1464 10.1327 16.2264C10.1327 16.6364 10.2127 17.0364 10.3527 17.4364H17.5127C17.6527 17.0364 17.7327 16.6364 17.7327 16.2264ZM6.7927 16.7764H8.4627C8.8827 16.7764 9.2327 16.4764 9.2327 16.0664C9.2327 15.6664 8.8827 15.3664 8.4627 15.3664H6.7927C6.3527 15.3664 6.0327 15.6864 6.0327 16.0664C6.0327 16.4464 6.3527 16.7764 6.7927 16.7764ZM19.4127 16.7764H21.0727C21.5227 16.7764 21.8327 16.4564 21.8327 16.0664C21.8327 15.6864 21.5227 15.3664 21.0727 15.3664H19.4127C18.9927 15.3664 18.6327 15.6664 18.6327 16.0664C18.6327 16.4764 18.9927 16.7764 19.4127 16.7764ZM6.7827 19.6564H21.0827C21.4827 19.6564 21.8327 19.3564 21.8327 18.9664C21.8327 18.5664 21.4927 18.2664 21.0827 18.2664H6.7827C6.3827 18.2664 6.0327 18.5664 6.0327 18.9664C6.0327 19.3564 6.4027 19.6564 6.7827 19.6564Z" /></svg>