<svg viewBox="0 0 45.103515625 28.875" xmlns="http://www.w3.org/2000/svg"><path d="M22.5437 6.1645H39.3737C40.4737 6.1645 41.0737 5.4545 41.0737 4.3445V2.9945C41.0737 1.0145 40.0537 0.0045 37.7637 0.0045H32.8237C30.3837 0.0045 28.4137 0.6445 25.2537 1.9445L22.1937 3.2245C21.3137 3.5945 21.0437 4.1845 21.0437 4.7745C21.0437 5.6745 21.4937 6.1645 22.5437 6.1645ZM3.2437 25.9745H6.0037C6.5937 27.6845 8.1737 28.8745 10.1037 28.8745C12.0337 28.8745 13.6437 27.6845 14.2237 25.9745H31.6937C32.2837 27.6845 33.8637 28.8745 35.7937 28.8745C37.7237 28.8745 39.3237 27.6845 39.9037 25.9745H41.8637C44.0937 25.9745 45.1037 24.8445 45.1037 22.3145V16.8745C45.1037 15.2945 44.5137 13.4645 43.5137 12.0345L42.9337 11.1845C41.4637 9.0745 39.6937 8.2145 36.7337 8.2145H26.7937C21.5637 8.2145 19.4837 8.7045 16.3537 10.6745L11.2337 13.8945L6.4937 14.4645C2.1437 14.9945 0.0037 16.9945 0.0037 20.4645V22.6545C0.0037 24.7345 1.2137 25.9745 3.2437 25.9745ZM35.7937 20.1845C33.6237 20.1845 31.8537 21.6945 31.5137 23.7645H14.3937C14.0537 21.6945 12.2937 20.1845 10.1037 20.1845C7.9337 20.1845 6.1837 21.6945 5.8237 23.7645H3.3537C2.6137 23.7645 2.2137 23.3145 2.2137 22.3945V20.4645C2.2137 18.2645 3.6337 17.0445 6.7637 16.6645L11.9937 16.0245L17.5437 12.5545C20.3137 10.8245 21.9337 10.4145 26.7937 10.4145H36.7337C38.8937 10.4145 40.1137 11.0045 41.1137 12.4445L41.7037 13.2745C42.4537 14.3645 42.8937 15.7045 42.8937 16.8745V22.4345C42.8937 23.3945 42.5837 23.7645 41.7537 23.7645H40.0837C39.7337 21.6945 37.9637 20.1845 35.7937 20.1845ZM10.1037 26.6645C8.8837 26.6645 7.9737 25.7445 7.9737 24.5245C7.9737 23.2945 8.8837 22.3845 10.1037 22.3845C11.3337 22.3845 12.2537 23.2945 12.2537 24.5245C12.2537 25.7445 11.3337 26.6645 10.1037 26.6645ZM35.7937 26.6645C34.5737 26.6645 33.6637 25.7445 33.6637 24.5245C33.6637 23.2945 34.5737 22.3845 35.7937 22.3845C37.0237 22.3845 37.9437 23.2945 37.9437 24.5245C37.9437 25.7445 37.0237 26.6645 35.7937 26.6645Z" /></svg>