<svg viewBox="0 0 51.693359375 26.263671875" xmlns="http://www.w3.org/2000/svg"><path d="M3.4837 23.1432H6.4537C7.0837 24.9832 8.7937 26.2632 10.8737 26.2632C12.9437 26.2632 14.6737 24.9832 15.3037 23.1432H34.0737C34.7037 24.9832 36.4037 26.2632 38.4837 26.2632C40.5637 26.2632 42.2837 24.9832 42.9137 23.1432H45.0237C47.4137 23.1432 48.4937 21.9132 48.4937 19.2132V13.3732C48.4937 11.6632 47.8637 9.7032 46.7837 8.1532L46.1737 7.2432C45.6637 6.5032 45.1037 5.9032 44.4837 5.4432L47.4537 2.4032C47.7737 2.0932 48.1537 1.9732 48.5937 1.9732H50.6637C51.2937 1.9732 51.6937 1.5632 51.6937 0.9732C51.6937 0.3832 51.2937 0.0032 50.6637 0.0032H48.8237C47.6637 0.0032 46.6437 0.3232 45.8737 1.1232L42.6037 4.4532C41.7137 4.1832 40.6837 4.0432 39.4937 4.0432H28.8237C23.1837 4.0432 20.9337 4.5932 17.5837 6.6832L12.0737 10.1432L6.9737 10.7732C2.3137 11.3432 0.0037 13.4832 0.0037 17.2232V19.5732C0.0037 21.8032 1.3137 23.1432 3.4837 23.1432ZM38.4837 16.9132C36.0837 16.9132 34.1637 18.6332 33.8537 20.9432H15.5037C15.2037 18.6332 13.2737 16.9132 10.8737 16.9132C8.4637 16.9132 6.5337 18.6332 6.2337 20.9432H3.6137C2.7237 20.9432 2.2037 20.3432 2.2037 19.3032V17.2232C2.2037 14.7832 3.8437 13.4032 7.2637 12.9632L12.8237 12.2632L18.7537 8.5732C21.7837 6.6832 23.5737 6.2432 28.8237 6.2432H39.4937C41.8637 6.2432 43.2337 6.9032 44.3537 8.5032L44.9637 9.3932C45.8037 10.5932 46.2937 12.0732 46.2937 13.3732V19.3432C46.2937 20.4432 45.8737 20.9432 44.8937 20.9432H43.1237C42.8237 18.6332 40.8937 16.9132 38.4837 16.9132ZM10.8737 24.0632C9.4737 24.0632 8.3937 22.9832 8.3937 21.5832C8.3937 20.1932 9.4737 19.1132 10.8737 19.1132C12.2637 19.1132 13.3437 20.1932 13.3437 21.5832C13.3437 22.9832 12.2637 24.0632 10.8737 24.0632ZM38.4837 24.0632C37.0937 24.0632 36.0137 22.9832 36.0137 21.5832C36.0137 20.1932 37.0937 19.1132 38.4837 19.1132C39.8837 19.1132 40.9637 20.1932 40.9637 21.5832C40.9637 22.9832 39.8837 24.0632 38.4837 24.0632Z" /></svg>