<svg viewBox="0 0 27.86328125 29.3125" xmlns="http://www.w3.org/2000/svg"><path d="M0.0137 25.7942H8.3137C8.9737 27.8742 10.8837 29.3142 13.2037 29.3142C15.5137 29.3142 17.4337 27.8742 18.0837 25.7942H20.5537C23.1837 25.7942 24.3237 24.5142 24.3237 21.4942V14.9342C24.3237 13.0342 23.6137 10.8842 22.4337 9.1442L21.7337 8.1242C21.1237 7.1942 20.4437 6.4842 19.6637 5.9342L23.1337 2.4042C23.4437 2.0942 23.8137 1.9642 24.2637 1.9642H26.8537C27.4837 1.9642 27.8637 1.5542 27.8637 0.9742C27.8637 0.3842 27.4837 0.0042 26.8537 0.0042H24.5037C23.3337 0.0042 22.3237 0.3242 21.5437 1.1242L17.7237 5.0142C16.7437 4.7142 15.6237 4.5842 14.3237 4.5842H2.3237C1.4737 4.5842 0.7137 4.6042 0.0037 4.6242V6.8342C0.6937 6.8242 1.4637 6.7942 2.3237 6.7942H14.3237C17.0537 6.7942 18.6037 7.5842 19.8937 9.3942L20.6037 10.3942C21.5637 11.7442 22.1037 13.4542 22.1037 14.9342V21.6542C22.1037 22.9442 21.5737 23.5942 20.4137 23.5942H18.3037C18.0237 21.0042 15.8837 19.0742 13.2037 19.0742C10.5137 19.0742 8.3837 21.0042 8.1037 23.5942H0.0137ZM13.2037 27.0942C11.5637 27.0942 10.2837 25.8242 10.2837 24.1842C10.2837 22.5442 11.5637 21.2742 13.2037 21.2742C14.8337 21.2742 16.1237 22.5442 16.1237 24.1842C16.1237 25.8242 14.8337 27.0942 13.2037 27.0942Z" /></svg>