<svg viewBox="0 0 32.935546875 27.26189615322232" xmlns="http://www.w3.org/2000/svg"><path d="M32.9327 16.3992C32.9327 7.7792 26.3227 0.7192 17.8927 -0.0008C17.4627 -0.0408 17.1327 0.2792 17.1327 0.7192V5.1892C17.1327 5.5592 17.3927 5.8392 17.7627 5.8692C22.9927 6.5092 27.0727 10.9792 27.0727 16.3992C27.0727 18.8592 26.2227 21.1292 24.7327 23.0292C24.5427 23.2592 24.5527 23.5592 24.7627 23.7792L28.0227 27.0292C28.3327 27.3292 28.7927 27.3292 29.0627 27.0092C31.4827 24.1392 32.9327 20.4292 32.9327 16.3992ZM0.0027 16.3992C0.0027 20.4392 1.4527 24.1492 3.8727 27.0192C4.1427 27.3492 4.5927 27.3292 4.9127 27.0292L8.1727 23.7792C8.3827 23.5592 8.3927 23.2592 8.2027 23.0292C6.7027 21.1292 5.8627 18.8592 5.8627 16.3992C5.8627 10.9792 9.9427 6.5092 15.1727 5.8692C15.5427 5.8392 15.8027 5.5592 15.8027 5.1892V0.7192C15.8027 0.2792 15.4727 -0.0408 15.0427 -0.0008C6.6127 0.7192 0.0027 7.7792 0.0027 16.3992ZM11.9227 22.1792C12.3627 22.1792 12.6627 21.8692 12.6627 21.3892V19.0792L13.4627 18.2992L15.9727 21.7992C16.1327 22.0292 16.3527 22.1792 16.6527 22.1792C17.0527 22.1792 17.3627 21.8892 17.3627 21.5092C17.3627 21.3192 17.2827 21.1492 17.1427 20.9792L14.5427 17.3692L16.9827 14.8092C17.1627 14.6092 17.2427 14.4992 17.2427 14.2592C17.2427 13.9092 16.9527 13.6092 16.5727 13.6092C16.3627 13.6092 16.1227 13.7392 15.9827 13.8892L12.7127 17.4892H12.6627V11.1892C12.6627 10.7092 12.3627 10.3792 11.9227 10.3792C11.4827 10.3792 11.1527 10.6992 11.1527 11.1692V21.3892C11.1527 21.8692 11.4827 22.1792 11.9227 22.1792ZM19.6327 22.1792C19.9627 22.1792 20.3427 21.9792 20.3427 21.3892V17.1092C20.3427 16.1192 20.7127 15.0592 21.8927 15.0592C22.1727 15.0592 22.4327 15.0192 22.6427 14.8892C22.8227 14.7992 22.9327 14.6292 22.9327 14.3892C22.9327 13.8792 22.5427 13.6092 22.0427 13.6092C21.1627 13.6092 20.5627 14.3692 20.3527 15.2492H20.2727V14.3692C20.2727 13.9392 19.9727 13.6092 19.5927 13.6092C19.1927 13.6092 18.8927 13.9392 18.8927 14.3692V21.3892C18.8927 21.8692 19.1527 22.1792 19.6327 22.1792Z" /></svg>