<svg viewBox="0 0 25.169921875 25.169921875" xmlns="http://www.w3.org/2000/svg"><path d="M4.2937 25.1692H20.8737C23.7437 25.1692 25.1737 23.7592 25.1737 20.9492V4.2392C25.1737 1.4192 23.7437 -0.0008 20.8737 -0.0008H4.2937C1.4337 -0.0008 0.0037 1.4192 0.0037 4.2392V20.9492C0.0037 23.7592 1.4337 25.1692 4.2937 25.1692ZM8.8337 19.9492C8.2337 19.9492 7.7937 19.5092 7.7937 18.9092V6.2892C7.7937 5.6692 8.2337 5.2392 8.8337 5.2392H16.3337C16.9437 5.2392 17.3737 5.6692 17.3737 6.2892V18.9092C17.3737 19.5092 16.9437 19.9492 16.3337 19.9492ZM9.8537 11.2892H15.3137C15.5837 11.2892 15.7737 11.0892 15.7737 10.7992V7.3192C15.7737 7.0292 15.5837 6.8392 15.3137 6.8392H9.8537C9.5837 6.8392 9.3937 7.0292 9.3937 7.3192V10.7992C9.3937 11.0892 9.5837 11.2892 9.8537 11.2892ZM9.8537 18.3492H15.3137C15.5837 18.3492 15.7737 18.1592 15.7737 17.8692V14.3792C15.7737 14.0992 15.5837 13.9092 15.3137 13.9092H9.8537C9.5837 13.9092 9.3937 14.0992 9.3937 14.3792V17.8692C9.3937 18.1592 9.5837 18.3492 9.8537 18.3492Z" /></svg>