<svg viewBox="0 0 32.23828125 25.169921875" xmlns="http://www.w3.org/2000/svg"><path d="M4.2937 25.1692H27.9437C30.8137 25.1692 32.2337 23.7592 32.2337 20.9492V4.2392C32.2337 1.4192 30.8137 -0.0008 27.9437 -0.0008H4.2937C1.4337 -0.0008 0.0037 1.4192 0.0037 4.2392V20.9492C0.0037 23.7592 1.4337 25.1692 4.2937 25.1692ZM2.2037 4.3592C2.2037 2.9392 2.9537 2.1992 4.3237 2.1992H15.0237V7.6592H2.2037ZM27.9137 2.1992C29.2737 2.1992 30.0337 2.9392 30.0337 4.3592V7.6592H17.2237V2.1992ZM2.2037 15.3292V9.8592H15.0237V15.3292ZM17.2237 15.3292V9.8592H30.0337V15.3292ZM4.3237 22.9692C2.9537 22.9692 2.2037 22.2392 2.2037 20.8192V17.5292H15.0237V22.9692ZM30.0337 20.8192C30.0337 22.2392 29.2737 22.9692 27.9137 22.9692H17.2237V17.5292H30.0337Z" /></svg>