<svg viewBox="0 0 33.00390625 21.369140625" xmlns="http://www.w3.org/2000/svg"><path d="M1.2137 21.3652H5.7037C6.4537 21.3652 6.9137 20.9052 6.9137 20.1652V6.9152H26.0737V20.1652C26.0737 20.9052 26.5537 21.3652 27.2937 21.3652H31.7837C32.5237 21.3652 33.0037 20.9052 33.0037 20.1652V1.2152C33.0037 0.4752 32.5237 -0.0048 31.7837 -0.0048H1.2137C0.4737 -0.0048 0.0037 0.4752 0.0037 1.2152V20.1652C0.0037 20.9052 0.4737 21.3652 1.2137 21.3652ZM2.2037 2.5752C2.2037 2.3652 2.3637 2.2052 2.5737 2.2052H30.4337C30.6437 2.2052 30.8037 2.3652 30.8037 2.5752V4.3452C30.8037 4.5552 30.6437 4.7152 30.4337 4.7152H2.5737C2.3637 4.7152 2.2037 4.5552 2.2037 4.3452ZM2.5737 19.2052C2.3637 19.2052 2.2037 19.0452 2.2037 18.8552V6.9152H4.7337V18.8552C4.7337 19.0452 4.5537 19.2052 4.3437 19.2052ZM28.6437 19.2052C28.4337 19.2052 28.2737 19.0452 28.2737 18.8552V6.9152H30.8037V18.8552C30.8037 19.0452 30.6437 19.2052 30.4337 19.2052Z" /></svg>