<svg viewBox="0 0 34.446441645349104 31.80078125" xmlns="http://www.w3.org/2000/svg"><path d="M4.1737 29.4752H19.0537C19.0437 29.3352 19.0337 29.2352 19.0137 29.0952L17.5937 14.2052C17.4137 12.3752 18.7037 10.8852 20.5537 10.8852H24.2537C24.2437 10.0352 24.1137 9.6352 23.6937 9.0652L21.0837 5.6052V3.0052C21.0837 1.0652 19.9437 -0.0048 17.8837 -0.0048H6.3737C4.3237 -0.0048 3.1737 1.0652 3.1737 3.0052V5.6052L0.5737 9.0652C0.1237 9.6652 0.0037 10.0752 0.0037 11.0352V25.3652C0.0037 28.0952 1.3937 29.4752 4.1737 29.4752ZM8.4237 5.3452C7.9437 5.3452 7.5437 4.9452 7.5437 4.4552C7.5437 3.9752 7.9437 3.5552 8.4237 3.5552H15.7937C16.2737 3.5552 16.6637 3.9752 16.6637 4.4552C16.6637 4.9452 16.2737 5.3452 15.7937 5.3452ZM23.7737 31.8052H30.1037C31.9137 31.8052 32.8137 30.8852 33.0037 28.9152L34.4437 14.0252C34.5037 13.2652 34.0737 12.7552 33.3137 12.7552H27.9737L28.0137 12.1652C28.0637 11.4852 28.2737 11.0852 28.7837 10.7152L33.3437 7.4352C34.3837 6.6952 33.2937 5.1252 32.1837 5.9352L27.7837 9.1152C26.7237 9.8852 26.2737 10.7152 26.1537 12.0552L26.1037 12.7552H20.5537C19.8137 12.7552 19.3737 13.2752 19.4437 14.0252L20.8737 28.9152C21.0637 30.8852 21.9537 31.8052 23.7737 31.8052Z" /></svg>