<svg viewBox="0 0 29.070946913696176 34.04296875" xmlns="http://www.w3.org/2000/svg"><path d="M8.4259 34.0385C9.7059 34.0385 10.8859 33.4385 11.7759 32.4285C13.6459 32.7485 15.3959 32.7485 17.2859 32.4185C18.1859 33.4285 19.3459 34.0385 20.6459 34.0385C23.5059 34.0385 25.7459 31.0885 25.7459 27.3985C25.7459 26.9185 25.7059 26.4585 25.6359 26.0085C26.9259 25.6485 28.0259 24.7585 28.6359 23.4785C29.7259 21.1085 28.7159 18.2485 26.3159 17.1685L22.2859 15.3385C23.3859 13.7985 24.0359 11.8985 24.0359 9.8585C24.0359 9.7085 24.0259 9.4885 24.0059 9.2985C26.2959 9.0185 28.0059 7.0585 28.0059 4.6985C28.0059 2.1185 25.8859 -0.0015 23.2859 -0.0015C21.8259 -0.0015 20.4559 0.6885 19.5959 1.8185C18.0759 0.8585 16.3159 0.3385 14.5259 0.3385C12.7259 0.3385 10.9659 0.8585 9.4459 1.8185C8.5859 0.6885 7.2259 -0.0015 5.7559 -0.0015C3.1559 -0.0015 1.0459 2.1185 1.0459 4.6985C1.0459 7.0585 2.7459 9.0185 5.0359 9.2985C5.0159 9.4885 5.0059 9.7085 5.0059 9.8585C5.0059 11.9085 5.6659 13.7985 6.7659 15.3485L2.7459 17.1685C0.3559 18.2485 -0.6541 21.1085 0.4359 23.4785C1.0459 24.7585 2.1459 25.6485 3.4359 26.0085C3.3659 26.4585 3.3259 26.9185 3.3259 27.3985C3.3259 31.0885 5.5659 34.0385 8.4259 34.0385ZM6.9759 9.8585C6.9759 9.3885 7.0059 8.6985 7.3259 7.5185L7.1759 7.3785C6.7059 7.5085 6.2059 7.5485 5.7559 7.5485C4.2159 7.5485 2.9659 6.2885 2.9659 4.7485C2.9659 3.2085 4.2159 1.9685 5.7559 1.9685C7.2059 1.9685 8.4059 3.0985 8.5059 4.5085C8.5159 4.6385 8.5059 4.7885 8.4959 4.9085L8.7759 4.9885C10.2659 3.2585 12.2959 2.2985 14.5259 2.2985C16.7459 2.2985 18.7759 3.2585 20.2659 4.9885L20.5559 4.9085C20.5359 4.7885 20.5259 4.6385 20.5359 4.5085C20.6359 3.0985 21.8359 1.9685 23.2859 1.9685C24.8259 1.9685 26.0759 3.2085 26.0759 4.7485C26.0759 6.2885 24.8259 7.5485 23.2859 7.5485C22.8359 7.5485 22.3459 7.5085 21.8659 7.3785L21.7159 7.5185C22.0459 8.6985 22.0659 9.3885 22.0659 9.8585C22.0659 12.3885 20.8059 14.6385 18.8859 16.0085C19.0859 15.4885 19.1959 14.9285 19.1959 14.3385C19.1959 11.7885 17.1059 9.6885 14.5459 9.6885C11.9959 9.6885 9.8959 11.7985 9.8959 14.3385C9.8959 14.9385 10.0059 15.5185 10.2159 16.0485C8.2559 14.6885 6.9759 12.4185 6.9759 9.8585ZM11.2259 9.2385C11.8859 9.2385 12.4159 8.7085 12.4159 8.0485C12.4159 7.3985 11.8859 6.8585 11.2259 6.8585C10.5959 6.8585 10.0559 7.3985 10.0559 8.0485C10.0559 8.7085 10.5959 9.2385 11.2259 9.2385ZM17.8259 9.2385C18.4559 9.2385 19.0059 8.7085 19.0059 8.0485C19.0059 7.3985 18.4559 6.8585 17.8259 6.8585C17.1759 6.8585 16.6459 7.3985 16.6459 8.0485C16.6459 8.7085 17.1759 9.2385 17.8259 9.2385ZM14.5459 17.2985C12.9259 17.2985 11.5959 15.9685 11.5959 14.3385C11.5959 12.7285 12.9259 11.3985 14.5459 11.3985C16.1659 11.3985 17.4859 12.7285 17.4859 14.3385C17.4859 15.9685 16.1659 17.2985 14.5459 17.2985ZM14.5259 14.7685C15.2759 14.7685 16.5059 13.6285 16.5059 13.3285C16.5059 12.8085 15.6559 12.0885 14.5259 12.0885C13.3759 12.0885 12.4959 12.8085 12.4959 13.3285C12.4959 13.6285 13.7659 14.7685 14.5259 14.7685ZM14.5259 19.3685C16.9859 19.3685 19.2359 18.4285 20.9359 16.8685L25.4859 18.9585C26.9259 19.6185 27.4859 21.2285 26.8559 22.6385C26.5159 23.4085 25.8559 23.9285 25.1059 24.1485C24.2259 22.1385 22.5759 20.7785 20.6459 20.7785C17.8059 20.7785 15.5459 23.7485 15.5459 27.3985C15.5459 28.5585 15.7759 29.6585 16.1759 30.5985C15.0859 30.7385 13.9859 30.7385 12.8959 30.6085C13.2959 29.6585 13.5259 28.5585 13.5259 27.3985C13.5259 23.7485 11.2659 20.7785 8.4259 20.7785C6.4959 20.7785 4.8459 22.1385 3.9659 24.1485C3.2159 23.9285 2.5559 23.4085 2.2159 22.6385C1.5859 21.2285 2.1459 19.6185 3.5859 18.9585L8.1259 16.8885C9.8159 18.4285 12.0559 19.3685 14.5259 19.3685ZM8.4259 31.9785C6.7859 31.9785 5.3859 29.9185 5.3859 27.3985C5.3859 24.8985 6.7859 22.8485 8.4259 22.8485C10.0659 22.8485 11.4559 24.8985 11.4559 27.3985C11.4559 29.9185 10.0659 31.9785 8.4259 31.9785ZM20.6459 31.9785C19.0059 31.9785 17.6159 29.9185 17.6159 27.3985C17.6159 24.8985 19.0059 22.8485 20.6459 22.8485C22.2859 22.8485 23.6859 24.8985 23.6859 27.3985C23.6859 29.9185 22.2859 31.9785 20.6459 31.9785Z" /></svg>