<svg viewBox="0 0 39.01953125 25.51171875" xmlns="http://www.w3.org/2000/svg"><path d="M6.9855 18.417C11.0155 22.447 15.8355 25.507 19.7055 25.507C21.5155 25.507 23.1055 24.787 24.1455 23.627C25.1455 22.507 25.4855 21.667 25.4855 20.927C25.4855 20.357 25.1155 19.827 24.2255 19.197L20.8955 16.807C20.0555 16.217 19.6855 16.107 19.1955 16.107C18.7755 16.107 18.4155 16.187 17.7055 16.567L15.5155 17.777C15.2555 17.927 15.1355 17.947 14.9555 17.947C14.6955 17.947 14.5155 17.887 14.2555 17.777C13.2055 17.297 11.7455 16.147 10.4555 14.847C9.1555 13.547 8.1455 12.227 7.6255 11.197C7.5655 11.057 7.4755 10.837 7.4755 10.627C7.4755 10.447 7.5755 10.297 7.6855 10.107L8.9655 7.907C9.3155 7.297 9.4155 6.977 9.4155 6.507C9.4155 5.977 9.2455 5.397 8.7255 4.677L6.4355 1.477C5.7855 0.557 5.2955 -0.003 4.5355 -0.003C3.6255 -0.003 2.5255 0.697 1.7355 1.467C0.6055 2.557 -0.0045 4.087 -0.0045 5.807C-0.0045 9.707 2.9955 14.427 6.9855 18.417ZM14.6555 6.047H16.9855C17.9055 6.047 18.4155 5.507 18.4155 4.597V2.257C18.4155 1.327 17.9055 0.807 16.9855 0.807H14.6555C13.7355 0.807 13.1955 1.327 13.1955 2.257V4.597C13.1955 5.507 13.7355 6.047 14.6555 6.047ZM21.5155 6.047H23.8555C24.7755 6.047 25.2955 5.507 25.2955 4.597V2.257C25.2955 1.327 24.7755 0.807 23.8555 0.807H21.5155C20.5855 0.807 20.0455 1.327 20.0455 2.257V4.597C20.0455 5.507 20.5855 6.047 21.5155 6.047ZM28.3655 6.047H30.6955C31.6055 6.047 32.1455 5.507 32.1455 4.597V2.257C32.1455 1.327 31.6055 0.807 30.6955 0.807H28.3655C27.4355 0.807 26.9155 1.327 26.9155 2.257V4.597C26.9155 5.507 27.4355 6.047 28.3655 6.047ZM35.2055 6.047H37.5555C38.4755 6.047 39.0155 5.507 39.0155 4.597V2.257C39.0155 1.327 38.4755 0.807 37.5555 0.807H35.2055C34.3055 0.807 33.7955 1.327 33.7955 2.257V4.597C33.7955 5.507 34.3055 6.047 35.2055 6.047ZM14.6255 12.907H16.9655C17.8955 12.907 18.4155 12.397 18.4155 11.457V9.107C18.4155 8.187 17.8955 7.667 16.9655 7.667H14.6255C13.7155 7.667 13.1955 8.187 13.1955 9.107V11.457C13.1955 12.397 13.7155 12.907 14.6255 12.907ZM21.4755 12.907H30.7355C31.6655 12.907 32.1655 12.397 32.1655 11.457V9.107C32.1655 8.187 31.6655 7.667 30.7355 7.667H21.4755C20.5655 7.667 20.0455 8.187 20.0455 9.107V11.457C20.0455 12.397 20.5655 12.907 21.4755 12.907ZM35.2555 12.907H37.5955C38.5255 12.907 39.0155 12.397 39.0155 11.457V9.107C39.0155 8.187 38.5255 7.667 37.5955 7.667H35.2555C34.3255 7.667 33.8155 8.187 33.8155 9.107V11.457C33.8155 12.397 34.3255 12.907 35.2555 12.907Z" /></svg>