<svg viewBox="0 0 27.890625 27.890625" xmlns="http://www.w3.org/2000/svg"><path d="M13.9427 27.8864C21.6427 27.8864 27.8927 21.6264 27.8927 13.9464C27.8927 6.2464 21.6427 -0.0036 13.9427 -0.0036C6.2627 -0.0036 0.0027 6.2464 0.0027 13.9464C0.0027 21.6264 6.2627 27.8864 13.9427 27.8864ZM9.0827 8.0964C9.0827 7.8364 9.2927 7.6164 9.5527 7.6164H18.2927C18.5527 7.6164 18.7727 7.8364 18.7727 8.0964C18.7727 8.3564 18.5527 8.5764 18.2927 8.5764H9.5527C9.2927 8.5764 9.0827 8.3664 9.0827 8.0964ZM13.9627 20.5464C13.4927 20.5464 13.1427 20.1964 13.1427 19.6864V11.4164H9.7727C9.3927 11.4164 9.1227 11.1264 9.1227 10.7764C9.1227 10.4164 9.3927 10.1264 9.7727 10.1264H18.1127C18.5027 10.1264 18.7727 10.4164 18.7727 10.7764C18.7727 11.1264 18.5027 11.4164 18.1127 11.4164H14.7827V19.6864C14.7827 20.1964 14.4327 20.5464 13.9627 20.5464Z" /></svg>