<svg viewBox="0 0 27.890625 27.890625" xmlns="http://www.w3.org/2000/svg"><path d="M13.9427 -0.0036C6.2527 -0.0036 0.0027 6.2464 0.0027 13.9464C0.0027 21.6464 6.2527 27.8864 13.9427 27.8864C21.6427 27.8864 27.8927 21.6464 27.8927 13.9464C27.8927 6.2464 21.6427 -0.0036 13.9427 -0.0036ZM13.9427 1.8564C20.6127 1.8564 26.0327 7.2764 26.0327 13.9464C26.0327 14.0264 26.0327 14.0364 26.0327 14.0564C25.6627 14.0164 25.2827 13.9864 24.8927 13.9864C19.2227 13.9864 14.6427 18.5664 14.6427 24.2564C14.6427 24.8564 14.6927 25.4264 14.7927 26.0064C14.5027 26.0164 14.2327 26.0264 13.9427 26.0264C7.2727 26.0264 1.8627 20.6164 1.8627 13.9464C1.8627 13.8464 1.8627 13.8264 1.8627 13.7964C2.2427 13.8364 2.6227 13.8664 3.0227 13.8664C8.6927 13.8664 13.2727 9.2864 13.2727 3.5964C13.2727 3.0064 13.2327 2.4364 13.1427 1.8864C13.4027 1.8564 13.6727 1.8564 13.9427 1.8564ZM11.4827 3.5964C11.4827 8.4264 7.8327 12.0764 3.0227 12.0764C2.6827 12.0764 2.3427 12.0564 2.0127 12.0164C2.8027 7.1064 6.5527 3.1864 11.3627 2.1364C11.4427 2.5964 11.4827 3.0864 11.4827 3.5964ZM16.4327 24.2564C16.4327 19.4264 20.0827 15.7764 24.8927 15.7764C25.2427 15.7764 25.5627 15.8064 25.8827 15.8364C25.1127 20.7564 21.3727 24.6764 16.5527 25.7464C16.4727 25.2664 16.4327 24.7764 16.4327 24.2564Z" /></svg>