<svg viewBox="0 0 27.890625 27.890625" xmlns="http://www.w3.org/2000/svg"><path d="M13.9427 27.8864C21.6427 27.8864 27.8927 21.6264 27.8927 13.9464C27.8927 6.2464 21.6427 -0.0036 13.9427 -0.0036C6.2627 -0.0036 0.0027 6.2464 0.0027 13.9464C0.0027 21.6264 6.2627 27.8864 13.9427 27.8864ZM13.9227 21.5464C9.7927 21.5464 6.3527 18.1164 6.3527 13.9864C6.3527 13.9164 6.3527 13.8464 6.3527 13.7764C6.8227 13.9064 7.3127 13.9564 7.8027 13.9564C11.0027 13.9564 13.5727 11.3764 13.5727 8.1864C13.5727 7.5764 13.4927 6.9864 13.3127 6.4364C13.5227 6.4264 13.7127 6.4164 13.9227 6.4164C18.0427 6.4164 21.4927 9.8464 21.4927 13.9864V14.1464C21.0127 14.0264 20.5527 13.9564 20.0527 13.9564C16.8427 13.9564 14.2827 16.5564 14.2827 19.7464C14.2827 20.3564 14.3727 20.9564 14.5627 21.5164C14.3527 21.5464 14.1227 21.5464 13.9227 21.5464ZM6.4627 12.7164C7.0027 9.7164 9.2927 7.2864 12.2327 6.6164C12.4327 7.1064 12.5127 7.6264 12.5127 8.1864C12.5127 10.8664 10.4727 12.8964 7.8027 12.8964C7.3327 12.8964 6.8727 12.8264 6.4627 12.7164ZM15.6427 21.3464C15.4327 20.8464 15.3527 20.3164 15.3527 19.7464C15.3527 17.0664 17.3727 15.0264 20.0527 15.0264C20.5327 15.0264 20.9627 15.0964 21.3827 15.2264C20.8927 18.2064 18.5627 20.6464 15.6427 21.3464Z" /></svg>