<svg viewBox="0 0 41.029296875 27.89407113712146" xmlns="http://www.w3.org/2000/svg"><path d="M8.3409 27.8921H32.6709C34.3809 27.8921 34.8609 26.3521 34.2109 25.0521L27.3609 11.3121L38.7309 27.2121C39.0709 27.6921 39.5009 27.8521 39.8909 27.8521C40.4809 27.8521 41.0309 27.5121 41.0309 26.7021V22.6121C41.0309 22.1121 40.6009 21.6821 40.1009 21.6821C39.5909 21.6821 39.1809 22.1121 39.1809 22.6121V24.7121L22.1609 0.9321C21.2709 -0.3279 19.7409 -0.2979 18.8509 0.9321L1.8409 24.7121V22.6121C1.8409 22.1121 1.4309 21.6821 0.9309 21.6821C0.4109 21.6821 0.0009 22.1121 0.0009 22.6121V26.7021C0.0009 27.5121 0.5509 27.8521 1.1309 27.8521C1.5309 27.8521 1.9509 27.6921 2.3009 27.2121L13.6709 11.3121L6.8209 25.0521C6.1709 26.3521 6.6309 27.8921 8.3409 27.8921ZM13.6209 25.8021L19.6309 13.1521C19.8209 12.7621 20.1709 12.5721 20.5109 12.5721C20.8509 12.5721 21.1909 12.7621 21.3709 13.1521L27.4009 25.8021H22.7109L20.5109 16.1221L18.2909 25.8021Z" /></svg>