<svg viewBox="0 0 39.343421022864376 27.86328125" xmlns="http://www.w3.org/2000/svg"><path d="M13.1814 27.8603H37.5314C39.2414 27.8603 39.7214 26.3203 39.0614 25.0203L27.2114 1.2603C26.8114 0.4803 26.1014 0.0003 25.3614 0.0003C24.6114 0.0003 23.9114 0.4503 23.5414 1.2203L17.2314 13.8603L12.0314 3.4603C11.7014 2.8303 11.1114 2.4103 10.4614 2.4103C9.8014 2.4103 9.2114 2.8303 8.8914 3.4603L0.2314 20.8103C-0.3286 21.9203 0.1214 23.2803 1.5914 23.2803H12.5214L11.6614 25.0203C11.0014 26.3203 11.4814 27.8603 13.1814 27.8603ZM12.0914 21.1903L10.4614 14.1603L8.8314 21.1903H5.4514L9.8414 12.0003C9.9814 11.7003 10.2114 11.5703 10.4614 11.5703C10.7214 11.5703 10.9614 11.7003 11.1014 12.0003L14.5514 19.2503L13.5814 21.1903ZM18.4714 25.7603L24.4914 13.1103C24.6814 12.7103 25.0014 12.5203 25.3614 12.5203C25.7014 12.5203 26.0314 12.7103 26.2214 13.1103L32.2414 25.7603H27.5614L25.3614 16.0803L23.1514 25.7603Z" /></svg>