<svg viewBox="0 0 39.33006883201048 27.86328125" xmlns="http://www.w3.org/2000/svg"><path d="M1.5914 23.2803H12.5214L11.6614 25.0203C11.0014 26.3203 11.4814 27.8603 13.1814 27.8603H37.5314C39.2214 27.8603 39.7014 26.3203 39.0514 25.0203L27.1814 1.2203C26.8014 0.4503 26.1014 0.0003 25.3614 0.0003C24.6114 0.0003 23.9114 0.4503 23.5414 1.2203L17.2314 13.8603L12.0314 3.4603C11.7014 2.8303 11.1114 2.4103 10.4614 2.4103C9.8014 2.4103 9.2114 2.8303 8.8914 3.4603L0.2314 20.8103C-0.3286 21.9203 0.1214 23.2803 1.5914 23.2803ZM14.0814 25.7703C13.7914 25.7703 13.7414 25.5503 13.8614 25.2903L25.1714 2.6203C25.2514 2.4603 25.4614 2.4603 25.5414 2.6203L36.8414 25.2903C36.9814 25.5703 36.9314 25.7703 36.6714 25.7703H32.2514L26.2214 13.1103C26.0314 12.7103 25.7014 12.5203 25.3614 12.5203C25.0014 12.5203 24.6814 12.7103 24.4914 13.1103L18.4714 25.7703ZM2.5714 21.1903C2.4514 21.1903 2.4214 21.1003 2.4714 21.0003L10.3514 5.1703C10.3914 5.0703 10.5314 5.0703 10.5714 5.1703L16.0614 16.1903L14.5514 19.2503L11.1014 12.0003C10.9614 11.7003 10.7214 11.5703 10.4614 11.5703C10.2114 11.5703 9.9814 11.7003 9.8414 12.0003L5.4514 21.1903ZM10.4614 14.1603L12.0914 21.1903H8.8314ZM25.3614 16.0803L27.5914 25.7703H23.1214Z" /></svg>