<svg viewBox="0 0 28 28.642578125" xmlns="http://www.w3.org/2000/svg"><path d="M6.4637 28.6429C9.5837 28.6429 11.6437 26.5829 11.6437 23.4629V2.2929H11.7437C12.3737 2.2929 12.9037 1.7629 12.9037 1.1329C12.9037 0.5029 12.3737 0.0029 11.7437 0.0029H1.1437C0.4637 0.0029 0.0037 0.5029 0.0037 1.1329C0.0037 1.7629 0.4637 2.2929 1.1437 2.2929H1.2437V23.4629C1.2437 26.5829 3.3237 28.6429 6.4637 28.6429ZM21.5637 28.6429C24.6737 28.6429 26.7537 26.5829 26.7537 23.4629V2.2929H26.8537C27.4837 2.2929 28.0037 1.7629 28.0037 1.1329C28.0037 0.5029 27.4837 0.0029 26.8537 0.0029H16.2537C15.5737 0.0029 15.0937 0.5029 15.0937 1.1329C15.0937 1.7629 15.5737 2.2929 16.2537 2.2929H16.3337V23.4629C16.3337 26.5829 18.4337 28.6429 21.5637 28.6429ZM21.5237 19.2229C21.9937 19.2229 22.3237 18.8829 22.3137 18.4129C22.3137 17.9929 21.9537 17.6229 21.5237 17.6229H18.5437V14.7829H21.5337C21.9837 14.7829 22.3237 14.4329 22.3237 13.9729C22.3237 13.5529 21.9737 13.1829 21.5337 13.1829H18.5437V10.3529H21.5337C21.9837 10.3529 22.3237 9.9929 22.3237 9.5329C22.3237 9.1029 21.9537 8.7529 21.5237 8.7529H18.5437V2.2929H24.5637V22.0029H18.5437V19.2229ZM3.4437 5.9029V2.2929H9.4637V5.9029ZM3.4437 10.3529V8.7529H6.4137C6.8537 8.7529 7.2337 9.1029 7.2337 9.5329C7.2337 9.9929 6.8737 10.3529 6.4237 10.3529ZM3.4437 14.7829V13.1829H6.4237C6.8637 13.1829 7.2337 13.5529 7.2337 13.9729C7.2337 14.4329 6.8737 14.7829 6.4237 14.7829ZM3.4437 19.2229V17.6229H6.4137C6.8537 17.6229 7.2237 17.9929 7.2237 18.4129C7.2337 18.8829 6.8937 19.2229 6.4137 19.2229Z" /></svg>