<svg viewBox="0 0 22.99609375 29.3125" xmlns="http://www.w3.org/2000/svg"><path d="M4.2337 29.3173H18.7537C21.5837 29.3173 22.9937 27.8773 22.9937 25.0373V12.6173H13.0937C11.3437 12.6173 10.5137 11.7873 10.5137 10.0373V-0.0027H4.2337C1.4237 -0.0027 0.0037 1.4473 0.0037 4.2973V25.0373C0.0037 27.8873 1.4037 29.3173 4.2337 29.3173ZM13.1437 10.7473H22.8337C22.7537 10.1873 22.3537 9.6373 21.6937 8.9673L14.1637 1.2973C13.5237 0.6473 12.9637 0.2473 12.3837 0.1473V10.0073C12.3837 10.4973 12.6337 10.7473 13.1437 10.7473ZM6.1437 18.5673C5.6037 18.5673 5.2137 18.1873 5.2137 17.6773C5.2137 17.1673 5.6037 16.7773 6.1437 16.7773H16.8937C17.4137 16.7773 17.8137 17.1673 17.8137 17.6773C17.8137 18.1873 17.4137 18.5673 16.8937 18.5673ZM6.1437 23.7473C5.6037 23.7473 5.2137 23.3673 5.2137 22.8573C5.2137 22.3573 5.6037 21.9573 6.1437 21.9573H16.8937C17.4137 21.9573 17.8137 22.3573 17.8137 22.8573C17.8137 23.3673 17.4137 23.7473 16.8937 23.7473Z" /></svg>