<svg viewBox="0 0 16.59765625 20.193359375" xmlns="http://www.w3.org/2000/svg"><path d="M1.1437 20.1946C1.8737 20.1946 2.2237 19.9246 2.4837 19.1546L4.2537 14.3246H12.3137L14.0837 19.1546C14.3437 19.9246 14.6937 20.1946 15.4037 20.1946C16.1337 20.1946 16.5937 19.7546 16.5937 19.0746C16.5937 18.8446 16.5537 18.6246 16.4437 18.3346L10.0337 1.2546C9.7237 0.4246 9.1637 0.0046 8.2837 0.0046C7.4337 0.0046 6.8637 0.4146 6.5637 1.2446L0.1537 18.3446C0.0437 18.6346 0.0037 18.8546 0.0037 19.0846C0.0037 19.7646 0.4337 20.1946 1.1437 20.1946ZM4.9237 12.2546L8.2437 3.0446H8.3137L11.6337 12.2546Z" /></svg>