<svg viewBox="0 0 22.99609375 29.3125" xmlns="http://www.w3.org/2000/svg"><path d="M0.0037 25.0373C0.0037 27.8873 1.4037 29.3173 4.2337 29.3173H18.7537C21.5837 29.3173 22.9937 27.8873 22.9937 25.0373V4.2973C22.9937 1.4473 21.5837 -0.0027 18.7537 -0.0027H4.2337C1.4037 -0.0027 0.0037 1.4473 0.0037 4.2973ZM2.2037 24.9873V4.3373C2.2037 2.9673 2.9237 2.1973 4.3437 2.1973H18.6437C20.0737 2.1973 20.7937 2.9673 20.7937 4.3373V24.9873C20.7937 26.3573 20.0737 27.1073 18.6437 27.1073H4.3437C2.9237 27.1073 2.2037 26.3573 2.2037 24.9873ZM6.3137 7.9173H16.6937C17.1737 7.9173 17.5237 7.5473 17.5237 7.0673C17.5237 6.6073 17.1737 6.2373 16.6937 6.2373H6.3137C5.8237 6.2373 5.4737 6.6073 5.4737 7.0673C5.4737 7.5473 5.8237 7.9173 6.3137 7.9173ZM6.3137 12.6873H16.6937C17.1737 12.6873 17.5237 12.3173 17.5237 11.8373C17.5237 11.3773 17.1737 11.0073 16.6937 11.0073H6.3137C5.8237 11.0073 5.4737 11.3773 5.4737 11.8373C5.4737 12.3173 5.8237 12.6873 6.3137 12.6873ZM6.3137 17.4573H11.2237C11.7137 17.4573 12.0737 17.1073 12.0737 16.6373C12.0737 16.1473 11.7137 15.7773 11.2237 15.7773H6.3137C5.8237 15.7773 5.4737 16.1473 5.4737 16.6373C5.4737 17.1073 5.8237 17.4573 6.3137 17.4573Z" /></svg>