<svg viewBox="0 0 29.44921875 24.9921875" xmlns="http://www.w3.org/2000/svg"><path d="M4.44 2.1972H25.01C25.62 2.1972 26.11 1.7072 26.11 1.0972C26.11 0.4772 25.62 -0.0028 25.01 -0.0028H4.44C3.81 -0.0028 3.34 0.4772 3.34 1.0972C3.34 1.7072 3.81 2.1972 4.44 2.1972ZM4.44 14.2872H25.02C27.51 14.2872 29.45 12.3272 29.45 9.8472C29.45 7.3572 27.51 5.3972 25.02 5.3972H4.44C1.96 5.3972 0 7.3572 0 9.8472C0 12.3272 1.96 14.2872 4.44 14.2872ZM4.44 12.7672C2.8 12.7672 1.52 11.4872 1.52 9.8472C1.52 8.2172 2.8 6.9172 4.44 6.9172H25.02C26.65 6.9172 27.93 8.2172 27.93 9.8472C27.93 11.4872 26.65 12.7672 25.02 12.7672ZM4.44 10.9872H25.01C25.62 10.9872 26.11 10.4972 26.11 9.8872C26.11 9.2672 25.62 8.7872 25.01 8.7872H4.44C3.83 8.7872 3.34 9.2672 3.34 9.8872C3.34 10.4972 3.83 10.9872 4.44 10.9872ZM4.44 19.6972H25.01C25.62 19.6972 26.11 19.2272 26.11 18.5972C26.11 17.9772 25.62 17.4972 25.01 17.4972H4.44C3.81 17.4972 3.34 17.9772 3.34 18.5972C3.34 19.2272 3.81 19.6972 4.44 19.6972ZM4.44 24.9972H25.01C25.62 24.9972 26.11 24.5172 26.11 23.8972C26.11 23.2672 25.62 22.7872 25.01 22.7872H4.44C3.81 22.7872 3.34 23.2672 3.34 23.8972C3.34 24.5172 3.81 24.9972 4.44 24.9972Z" /></svg>