<svg viewBox="0 0 27.890625 27.890625" xmlns="http://www.w3.org/2000/svg"><path d="M13.9427 27.8927C21.6427 27.8927 27.8927 21.6427 27.8927 13.9427C27.8927 6.2627 21.6427 0.0027 13.9427 0.0027C6.2627 0.0027 0.0027 6.2627 0.0027 13.9427C0.0027 21.6427 6.2627 27.8927 13.9427 27.8927ZM12.1927 19.0427C9.2127 19.8427 6.9627 18.4727 6.1227 15.3627L5.0127 11.1327C4.7027 9.9627 5.1127 9.2327 6.2727 8.9227L12.2727 7.3327C13.4127 7.0427 14.1627 7.4527 14.4827 8.5827L15.6127 12.8127C16.4627 15.9227 15.1627 18.2427 12.1927 19.0427ZM21.9727 10.5127C23.1227 10.8027 23.5427 11.5527 23.2327 12.6827L22.1027 16.9127C21.2727 20.0127 19.0127 21.3827 16.0327 20.6027C15.1927 20.3727 14.4527 20.0027 13.9027 19.5227C14.9427 18.9927 15.7327 18.2227 16.2327 17.2927C16.4327 17.3227 16.6527 17.3627 16.8527 17.4327C17.5027 17.6127 18.0327 17.8827 18.6227 18.4127C18.7827 18.6027 19.0127 18.5027 19.0127 18.2427C18.9727 17.2827 18.2527 16.4627 17.1827 16.2027C17.0527 16.1627 16.8727 16.1427 16.7327 16.1227C17.0227 15.0527 17.0127 13.8327 16.6427 12.5327L15.6427 8.8227C15.7327 8.8327 15.8627 8.8427 15.9727 8.9027ZM12.2627 11.9227C12.6727 11.7827 12.8927 12.0327 13.1227 11.9727C13.1927 11.9227 13.2727 11.7827 13.2027 11.6227C13.0827 11.0727 12.5327 10.8027 12.0027 10.9127C11.4827 11.0327 11.1527 11.6227 11.2927 12.1127C11.3627 12.2627 11.4727 12.3827 11.5527 12.3627C11.7627 12.3327 11.8227 12.0327 12.2627 11.9227ZM8.5727 12.9227C8.9827 12.7827 9.2027 13.0327 9.4327 12.9627C9.5327 12.9227 9.5727 12.7727 9.5327 12.5927C9.3527 12.1027 8.8427 11.7827 8.3127 11.9227C7.7927 12.0427 7.4527 12.5927 7.6327 13.1227C7.6827 13.2727 7.7827 13.4027 7.8627 13.3727C8.0827 13.3427 8.1227 13.0427 8.5727 12.9227ZM19.4127 15.0927C19.8227 15.2127 20.2527 14.9527 20.3727 14.5427C20.4827 14.1327 20.2527 13.7127 19.8227 13.6027C19.4027 13.4927 18.9727 13.7227 18.8827 14.1327C18.7627 14.5627 19.0027 15.0127 19.4127 15.0927ZM11.6227 16.8727C12.8927 16.5427 13.7227 15.5627 13.7627 14.3527C13.7927 14.1127 13.6027 14.0027 13.3827 14.1327C12.7127 14.6027 11.8427 14.9527 11.1527 15.1327C10.4727 15.3227 9.5327 15.4627 8.7127 15.3927C8.4727 15.3827 8.3527 15.5427 8.4927 15.7627C9.1327 16.7727 10.3627 17.2127 11.6227 16.8727Z" /></svg>