<svg viewBox="0 0 27.890625 27.890625" xmlns="http://www.w3.org/2000/svg"><path d="M13.9427 27.8864C21.6427 27.8864 27.8927 21.6464 27.8927 13.9464C27.8927 6.2464 21.6427 -0.0036 13.9427 -0.0036C6.2527 -0.0036 0.0027 6.2464 0.0027 13.9464C0.0027 21.6464 6.2527 27.8864 13.9427 27.8864ZM13.9427 25.5664C7.5227 25.5664 2.3227 20.3664 2.3227 13.9464C2.3227 7.5164 7.5227 2.3264 13.9427 2.3264C20.3727 2.3264 25.5627 7.5164 25.5627 13.9464C25.5627 20.3664 20.3727 25.5664 13.9427 25.5664ZM12.2527 18.8964C15.1327 18.1064 16.3927 15.8764 15.5727 12.8564L14.4627 8.7464C14.1627 7.6464 13.4427 7.2464 12.3327 7.5364L6.5127 9.0764C5.3827 9.3764 4.9727 10.0864 5.2727 11.2064L6.3727 15.3264C7.1627 18.3364 9.3627 19.6464 12.2527 18.8964ZM21.7227 10.6064L15.9027 9.0364C15.7927 9.0064 15.6727 8.9964 15.5727 8.9864L16.5527 12.5764C16.9027 13.8364 16.9127 15.0264 16.6427 16.0464C16.7927 16.0764 16.9427 16.0964 17.0927 16.1364C18.1327 16.3964 18.8227 17.1864 18.8627 18.1164C18.8627 18.3464 18.6527 18.4664 18.4727 18.2964C17.8927 17.7564 17.3927 17.4964 16.7627 17.3264C16.5727 17.2664 16.3527 17.2164 16.1627 17.1964C15.6827 18.1064 14.9127 18.8364 13.8927 19.3564C14.4327 19.8064 15.1327 20.1764 15.9827 20.3964C18.8527 21.1664 21.0527 19.8364 21.8427 16.8264L22.9527 12.7264C23.2527 11.6164 22.8427 10.8964 21.7227 10.6064ZM12.3027 11.9864C11.8827 12.0864 11.8127 12.3864 11.6327 12.3964C11.5527 12.4364 11.4427 12.3164 11.3727 12.1664C11.2527 11.6764 11.5627 11.1264 12.0627 11.0064C12.5927 10.8864 13.0927 11.1564 13.2227 11.6764C13.2927 11.8564 13.2227 11.9864 13.1427 12.0164C12.9327 12.0864 12.7127 11.8564 12.3027 11.9864ZM8.7327 12.9464C8.3027 13.0664 8.2427 13.3464 8.0527 13.3864C7.9527 13.3964 7.8627 13.3064 7.8027 13.1564C7.6527 12.6364 7.9827 12.0964 8.4927 11.9864C8.9927 11.8564 9.5027 12.1564 9.6527 12.6364C9.7027 12.8064 9.6627 12.9464 9.5527 12.9864C9.3427 13.0464 9.1327 12.8264 8.7327 12.9464ZM19.2527 15.0664C18.8527 14.9864 18.6027 14.5464 18.7327 14.1364C18.8127 13.7364 19.2327 13.5064 19.6427 13.6164C20.0427 13.7164 20.2927 14.1364 20.1827 14.5364C20.0527 14.9264 19.6427 15.1764 19.2527 15.0664ZM11.6927 16.7864C10.4727 17.1064 9.2827 16.6764 8.6427 15.6964C8.5127 15.5064 8.6427 15.3364 8.8727 15.3364C9.6627 15.4064 10.5727 15.2764 11.2427 15.1064C11.8927 14.9264 12.7527 14.5864 13.4127 14.1364C13.6027 13.9964 13.8127 14.0964 13.7827 14.3264C13.7427 15.5064 12.9327 16.4564 11.6927 16.7864Z" /></svg>