<svg viewBox="0 0 46.161513711305425 30.709474624892128" xmlns="http://www.w3.org/2000/svg"><path d="M16.5037 26.683C23.2437 24.863 26.1237 19.643 24.2237 12.603L21.6737 3.033C20.9737 0.463 19.2737 -0.467 16.6637 0.213L3.1137 3.813C0.4937 4.523 -0.4763 6.163 0.2237 8.793L2.7637 18.343C4.6337 25.373 9.7637 28.493 16.5037 26.683ZM43.0237 7.353L29.4937 3.733C27.0837 3.093 25.3937 3.803 24.6937 5.933L24.5237 6.523L26.0337 12.123C27.5337 17.713 26.3037 22.443 22.8037 25.513C24.1437 27.723 26.5237 29.383 29.6637 30.213C36.3837 32.003 41.4837 28.883 43.3637 21.863L45.9537 12.313C46.6337 9.733 45.6537 8.053 43.0237 7.353ZM16.6637 10.553C15.6437 10.853 15.5037 11.523 15.0637 11.583C14.8637 11.623 14.6137 11.383 14.4937 11.003C14.1637 9.853 14.9037 8.593 16.0737 8.313C17.2837 7.993 18.4837 8.703 18.7837 9.843C18.9037 10.263 18.8037 10.563 18.5837 10.653C18.0837 10.823 17.5937 10.293 16.6637 10.553ZM8.3237 12.813C7.3037 13.093 7.1637 13.783 6.7237 13.843C6.5237 13.893 6.2737 13.653 6.1537 13.263C5.8237 12.093 6.5637 10.853 7.7337 10.563C8.9237 10.283 10.1437 10.973 10.4437 12.093C10.5637 12.503 10.4637 12.823 10.2437 12.903C9.7337 13.083 9.2537 12.563 8.3237 12.813ZM29.2437 15.643C28.3037 15.403 27.7437 14.453 28.0037 13.483C28.2637 12.533 29.2137 11.973 30.1637 12.233C31.1037 12.493 31.6637 13.463 31.4137 14.413C31.1537 15.353 30.2037 15.903 29.2437 15.643ZM37.2737 17.783C36.3437 17.543 35.7837 16.573 36.0437 15.613C36.2837 14.673 37.2437 14.123 38.1837 14.383C39.1437 14.613 39.6937 15.583 39.4437 16.543C39.1837 17.483 38.2237 18.043 37.2737 17.783ZM15.2137 21.793C12.3637 22.533 9.5837 21.563 8.1237 19.233C7.8337 18.813 8.0837 18.383 8.6237 18.423C10.4437 18.583 12.6037 18.263 14.1637 17.843C15.6937 17.443 17.6937 16.653 19.2137 15.593C19.6637 15.273 20.1137 15.503 20.0837 16.063C19.9837 18.793 18.0837 21.003 15.2137 21.793ZM31.5137 23.033C30.0937 22.643 28.7237 22.623 26.9737 23.003C26.4237 23.133 26.1037 22.683 26.3837 22.233C27.5637 20.383 29.9437 19.613 32.2537 20.263C34.6437 20.863 36.2737 22.693 36.3537 24.883C36.3837 25.423 35.8737 25.663 35.4637 25.293C34.1137 24.063 32.9537 23.403 31.5137 23.033Z" /></svg>