<svg viewBox="0 0 27.794921875 35.21875" xmlns="http://www.w3.org/2000/svg"><path d="M13.6737 5.2204C14.3037 5.2204 14.8037 4.7004 14.8037 4.0904V1.1304C14.8037 0.5104 14.3037 0.0004 13.6737 0.0004C13.0437 0.0004 12.5337 0.5104 12.5337 1.1304V4.0904C12.5337 4.7004 13.0437 5.2204 13.6737 5.2204ZM19.9837 7.8604C20.4137 8.3004 21.1537 8.3104 21.6037 7.8604L23.6837 5.7604C24.1337 5.3204 24.1137 4.5904 23.6837 4.1604C23.2537 3.7204 22.5437 3.7204 22.0937 4.1604L19.9837 6.2704C19.5537 6.7104 19.5637 7.4204 19.9837 7.8604ZM7.1637 35.2204C11.1037 35.2204 14.2837 32.0204 14.2837 28.0804C14.2837 26.0004 13.4437 24.1904 11.8037 22.7104C11.5137 22.4404 11.4437 22.2804 11.4437 21.8704L11.4537 9.5204C11.4537 6.7404 9.7037 4.8404 7.1637 4.8404C4.5937 4.8404 2.8337 6.7404 2.8337 9.5204L2.8437 21.8704C2.8437 22.2804 2.7937 22.4404 2.4837 22.7104C0.8637 24.1904 0.0037 26.0004 0.0037 28.0804C0.0037 32.0204 3.2037 35.2204 7.1637 35.2204ZM7.1637 33.2404C4.3037 33.2404 2.0137 30.9104 2.0137 28.0804C2.0137 26.3704 2.8137 24.8304 4.2637 23.8604C4.6937 23.5704 4.8537 23.3104 4.8537 22.7504V9.6004C4.8537 7.9604 5.7937 6.8504 7.1637 6.8504C8.5037 6.8504 9.4437 7.9604 9.4437 9.6004V22.7504C9.4437 23.3104 9.6137 23.5704 10.0337 23.8604C11.4837 24.8304 12.2937 26.3704 12.2937 28.0804C12.2937 30.9104 9.9837 33.2404 7.1637 33.2404ZM13.6737 20.9404C17.4337 20.9404 20.4237 17.9404 20.4237 14.1804C20.4237 10.4004 17.4337 7.4004 13.6737 7.4004C13.3537 7.4004 13.0737 7.4404 12.7737 7.5104C12.9637 8.1504 13.0537 8.8504 13.0537 9.6004L13.0437 20.8804C13.2437 20.9304 13.4537 20.9404 13.6737 20.9404ZM7.1537 31.3904C8.9837 31.3904 10.4637 29.9004 10.4637 28.0704C10.4637 26.7804 9.7337 25.7304 8.6837 25.1604C8.2437 24.9204 8.0937 24.7604 8.0937 24.0904V10.7604C8.0937 10.1004 7.6737 9.6804 7.1537 9.6804C6.6137 9.6804 6.2037 10.1004 6.2037 10.7604V24.0904C6.2037 24.7604 6.0537 24.9204 5.6237 25.1604C4.5637 25.7304 3.8437 26.7804 3.8437 28.0704C3.8437 29.9104 5.3137 31.3904 7.1537 31.3904ZM23.7237 15.3104H26.6737C27.2937 15.3104 27.7937 14.7904 27.7937 14.1804C27.7937 13.5504 27.2937 13.0404 26.6737 13.0404H23.7237C23.1037 13.0404 22.5837 13.5504 22.5837 14.1804C22.5837 14.7904 23.1037 15.3104 23.7237 15.3104ZM22.0937 24.2104C22.5437 24.6504 23.2537 24.6404 23.6837 24.2004C24.1137 23.7604 24.1337 23.0404 23.6837 22.6104L21.5737 20.5104C21.1337 20.0804 20.4237 20.0704 19.9837 20.5104C19.5537 20.9404 19.5537 21.6704 19.9837 22.1104Z" /></svg>