<svg viewBox="0 0 27.890625 27.890625" xmlns="http://www.w3.org/2000/svg"><path d="M13.9427 27.8927C21.6427 27.8927 27.8927 21.6427 27.8927 13.9427C27.8927 6.2627 21.6427 0.0027 13.9427 0.0027C6.2627 0.0027 0.0027 6.2627 0.0027 13.9427C0.0027 21.6427 6.2627 27.8927 13.9427 27.8927ZM14.8227 7.0827C14.4127 7.0827 14.0827 6.7427 14.0827 6.3427V4.7327C14.0827 4.3427 14.4127 4.0027 14.8227 4.0027C15.2427 4.0027 15.5627 4.3427 15.5627 4.7327V6.3427C15.5627 6.7427 15.2427 7.0827 14.8227 7.0827ZM18.1827 8.4727C17.8927 8.1927 17.8827 7.7227 18.1827 7.4327L19.3327 6.2927C19.6027 6.0027 20.0527 6.0027 20.3427 6.2927C20.6427 6.5727 20.6327 7.0527 20.3527 7.3327L19.2327 8.4727C18.9527 8.7527 18.4527 8.7527 18.1827 8.4727ZM11.2827 23.3227C9.0927 23.3227 7.3427 21.5727 7.3427 19.4027C7.3427 18.2627 7.8027 17.2527 8.6927 16.4427C8.8627 16.3227 8.8827 16.2327 8.8827 16.0327V9.2827C8.8827 7.7527 9.8427 6.6827 11.2827 6.6827C12.6827 6.6827 13.6627 7.7527 13.6627 9.2827L13.6427 16.0327C13.6427 16.2327 13.6727 16.3227 13.8227 16.4427C14.7227 17.2527 15.2027 18.2627 15.2027 19.4027C15.2027 21.5727 13.4527 23.3227 11.2827 23.3227ZM11.2827 22.1627C12.7827 22.1627 14.0227 20.9427 14.0227 19.4027C14.0227 18.4727 13.5927 17.6627 12.8127 17.1327C12.5527 16.9627 12.4727 16.8127 12.4727 16.4927V9.3427C12.4727 8.4627 11.9927 7.8727 11.2827 7.8727C10.5227 7.8727 10.0527 8.4627 10.0527 9.3427V16.4927C10.0527 16.8127 9.9627 16.9627 9.7027 17.1327C8.9427 17.6627 8.5127 18.4727 8.5127 19.4027C8.5127 20.9427 9.7227 22.1627 11.2827 22.1627ZM14.6927 15.5427L14.7127 9.2827C14.7127 8.8827 14.6527 8.5027 14.5227 8.1327C14.6327 8.1227 14.7227 8.1027 14.8227 8.1027C16.8827 8.1027 18.5427 9.7727 18.5427 11.8427C18.5427 13.9727 16.8127 15.6027 14.6927 15.5427ZM11.2627 21.2327C10.2527 21.2327 9.4327 20.4227 9.4327 19.3827C9.4327 18.6927 9.8427 18.1027 10.4027 17.7827C10.6627 17.6627 10.7327 17.5827 10.7327 17.2227V9.9627C10.7327 9.5827 10.9527 9.3527 11.2627 9.3527C11.5627 9.3527 11.8127 9.5827 11.8127 9.9627V17.2227C11.8127 17.5827 11.8827 17.6627 12.1027 17.7827C12.7027 18.1127 13.1127 18.6927 13.1127 19.3827C13.1127 20.4127 12.2927 21.2327 11.2627 21.2327ZM20.2927 12.5827C19.8927 12.5827 19.5627 12.2227 19.5627 11.8427C19.5627 11.4427 19.8927 11.0927 20.2927 11.0927H21.8927C22.3027 11.0927 22.6227 11.4427 22.6227 11.8427C22.6227 12.2227 22.3027 12.5827 21.8927 12.5827ZM19.3327 17.3927L18.1827 16.2427C17.8827 15.9727 17.8927 15.4927 18.1827 15.2127C18.4727 14.9327 18.9327 14.9327 19.2227 15.2127L20.3527 16.3527C20.6427 16.6127 20.6427 17.1027 20.3427 17.3927C20.0527 17.6627 19.6027 17.6527 19.3327 17.3927Z" /></svg>