<svg viewBox="0 0 23.58744578626647 30.37890625" xmlns="http://www.w3.org/2000/svg"><path d="M10.1322 0.0042C7.9022 0.0042 6.2622 1.4242 5.9222 3.6142L5.9122 4.5142L7.8222 6.4242V4.7542C7.8222 3.1142 8.7522 2.0142 10.1322 2.0142C11.4722 2.0142 12.4122 3.1142 12.4122 4.7542V11.0242L14.4122 13.0342V4.7542C14.4122 1.9142 12.6722 0.0042 10.1322 0.0042ZM21.7922 25.6342C22.2022 26.0442 22.8922 26.0442 23.2822 25.6342C23.6822 25.2242 23.6922 24.5542 23.2822 24.1442L1.8022 2.6842C1.3922 2.2742 0.7222 2.2542 0.3022 2.6842C-0.0978 3.0742 -0.1078 3.7742 0.3022 4.1742ZM16.9822 5.0142H19.9522C20.4322 5.0142 20.7522 4.6442 20.7522 4.2242C20.7522 3.8042 20.4322 3.4342 19.9522 3.4342H16.9822C16.5022 3.4342 16.1722 3.8042 16.1722 4.2242C16.1722 4.6442 16.5022 5.0142 16.9822 5.0142ZM16.9822 8.8642H19.9522C20.4322 8.8642 20.7522 8.4942 20.7522 8.0642C20.7522 7.6442 20.4322 7.2742 19.9522 7.2742H16.9822C16.5022 7.2742 16.1722 7.6442 16.1722 8.0642C16.1722 8.4942 16.5022 8.8642 16.9822 8.8642ZM16.9822 12.7042H19.9522C20.4322 12.7042 20.7522 12.3342 20.7522 11.9042C20.7522 11.4842 20.4322 11.1042 19.9522 11.1042H16.9822C16.5022 11.1042 16.1722 11.4842 16.1722 11.9042C16.1722 12.3342 16.5022 12.7042 16.9822 12.7042ZM10.1322 30.3742C13.7022 30.3742 16.6422 27.7542 17.1422 24.3342C17.1922 24.0242 17.2022 23.7042 17.1922 23.4042L14.6822 20.9042C15.0522 21.6142 15.2622 22.4042 15.2622 23.2442C15.2622 26.0742 12.9522 28.3942 10.1322 28.3942C7.2722 28.3942 4.9822 26.0742 4.9822 23.2442C4.9822 21.5342 5.7822 19.9842 7.2322 19.0142C7.6622 18.7342 7.8222 18.4742 7.8222 17.9142V13.9342L5.8122 11.9242V17.0342C5.8122 17.4442 5.7622 17.6142 5.4522 17.8642C3.8322 19.3442 2.9722 21.1642 2.9722 23.2442C2.9722 27.1842 6.1722 30.3742 10.1322 30.3742ZM10.1222 26.5542C11.9522 26.5542 13.4322 25.0742 13.4322 23.2242C13.4322 21.9442 12.7022 20.8942 11.6522 20.3142C11.2122 20.0842 11.0622 19.9242 11.0622 19.2542V17.1542L9.1722 15.2742V19.2542C9.1722 19.9242 9.0222 20.0842 8.5922 20.3142C7.5322 20.8942 6.8122 21.9442 6.8122 23.2242C6.8122 25.0742 8.2822 26.5542 10.1222 26.5542Z" /></svg>