<svg viewBox="0 0 27.890625 27.890625" xmlns="http://www.w3.org/2000/svg"><path d="M13.9427 27.8864C21.5727 27.8864 27.8927 21.5564 27.8927 13.9464C27.8927 6.3164 21.5927 -0.0036 13.9627 -0.0036C13.2327 -0.0036 12.8827 0.4364 12.8827 1.1464V6.4364C12.8827 7.0364 13.2927 7.5064 13.8727 7.5064C14.4827 7.5064 14.8927 7.0364 14.8927 6.4364V2.3664C20.9027 2.8464 25.5527 7.8064 25.5527 13.9464C25.5527 20.3964 20.4027 25.5664 13.9427 25.5664C7.4927 25.5664 2.3127 20.3964 2.3227 13.9464C2.3427 11.0564 3.3627 8.4464 5.0827 6.4364C5.4927 5.9064 5.5227 5.2664 5.0727 4.7864C4.6227 4.3064 3.8727 4.3464 3.3627 4.9464C1.2827 7.3864 0.0027 10.5364 0.0027 13.9464C0.0027 21.5564 6.3327 27.8864 13.9427 27.8864ZM13.9427 16.1464C15.1727 16.1464 16.1627 15.1664 16.1627 13.9464C16.1627 13.1964 15.7927 12.5464 15.2127 12.1364L8.3627 7.2964C7.6927 6.8264 7.0027 7.5164 7.4627 8.2164L12.0127 15.0264C12.4527 15.6964 13.1427 16.1464 13.9427 16.1464Z" /></svg>