<svg viewBox="0 0 27.890625 27.890625" xmlns="http://www.w3.org/2000/svg"><path d="M13.9427 27.8927C21.6427 27.8927 27.8927 21.6427 27.8927 13.9427C27.8927 6.2627 21.6427 0.0027 13.9427 0.0027C6.2627 0.0027 0.0027 6.2627 0.0027 13.9427C0.0027 21.6427 6.2627 27.8927 13.9427 27.8927ZM13.8227 12.6627C9.0927 12.6627 6.5227 11.4827 6.5227 9.1827C6.5227 7.6927 7.8227 6.3027 10.4327 5.5127C10.9527 5.3727 11.3027 5.5227 11.4427 5.9227C11.5627 6.3127 11.3427 6.7027 10.9127 6.8527C8.7327 7.5327 8.0127 8.3827 8.0127 9.1627C8.0127 10.5027 9.9227 11.2427 13.7627 11.2427C17.6327 11.2427 19.8827 10.3927 19.8827 9.7027C19.8827 9.1227 18.4827 8.5627 15.9427 8.5627C13.8627 8.5627 12.3627 9.0527 11.1427 9.5527C10.7627 9.7327 10.2927 9.6427 10.1127 9.2727C9.9427 8.9527 10.0327 8.4927 10.4827 8.2727C11.8527 7.6127 13.6827 7.1727 16.0127 7.1727C19.1127 7.1727 21.3527 8.1227 21.3527 9.7227C21.3527 11.4527 18.5427 12.6627 13.8227 12.6627ZM14.0427 15.1927C12.3327 15.1927 10.2927 14.9527 8.7227 14.5027C8.3027 14.3927 8.0927 14.0227 8.1927 13.6727C8.3127 13.2927 8.6827 13.1527 9.0927 13.2727C10.5527 13.7027 12.4027 13.9027 14.0427 13.9027C16.2527 13.9027 18.2927 13.5327 19.6827 13.0027C20.0927 12.8427 20.4627 12.9027 20.6627 13.2527C20.8227 13.6027 20.6627 13.9827 20.2727 14.1327C18.7027 14.7927 16.4727 15.1927 14.0427 15.1927ZM14.5627 17.6727C13.6127 17.6927 12.7727 17.6327 12.1727 17.5227C11.6927 17.4327 11.5027 17.0927 11.5627 16.7527C11.6527 16.4027 11.9327 16.2127 12.3827 16.2527C13.0027 16.3427 13.7927 16.4027 14.5627 16.4027C16.3627 16.4027 18.0627 16.1327 19.7527 15.5727C20.2027 15.4327 20.5727 15.5427 20.7027 15.8827C20.8227 16.1827 20.7227 16.6227 20.2527 16.7927C18.5127 17.3727 16.6127 17.6627 14.5627 17.6727ZM13.8627 20.0527C13.4027 19.9727 13.2027 19.6727 13.2327 19.3227C13.2927 18.9527 13.6127 18.7327 14.0527 18.7727C15.3627 18.9527 16.7727 18.8527 18.0027 18.5227C18.4527 18.4127 18.8027 18.5527 18.9227 18.9227C19.0327 19.2527 18.8627 19.6327 18.4427 19.7727C16.9827 20.1627 15.2727 20.2027 13.8627 20.0527ZM13.3327 22.4727C12.8527 22.4127 12.6627 22.0827 12.7027 21.7527C12.7427 21.4327 13.0127 21.1727 13.4627 21.2427C13.8927 21.3027 14.3427 21.2827 14.7627 21.2327C15.2327 21.1727 15.4927 21.4227 15.5427 21.7527C15.5627 22.1027 15.3527 22.4127 14.9127 22.4627C14.3927 22.5127 13.8327 22.5327 13.3327 22.4727Z" /></svg>