<svg viewBox="0 0 45.048828125 22.558699346427726" xmlns="http://www.w3.org/2000/svg"><path d="M16.4637 8.7673C20.2337 8.7473 23.3637 7.4273 25.8437 4.7173C23.3237 1.5173 20.6437 0.0173 16.5537 -0.0027C12.4837 -0.0127 9.8437 1.2973 7.1737 4.7673C9.6937 7.4873 12.9437 8.7773 16.4637 8.7673ZM33.7137 15.3573C35.6437 14.4673 36.5337 13.3573 39.1537 13.3573C42.7237 13.3573 45.0537 12.0773 45.0537 10.0473C45.0537 5.3873 42.5737 2.2173 38.8537 2.2173C35.6337 2.2173 33.6237 4.1473 32.8437 7.2473C32.2637 9.3973 31.5137 10.1873 30.8137 10.7873C31.4737 11.7473 32.5937 13.7173 33.7137 15.3573ZM25.2137 16.9973C26.4537 16.6973 27.5537 16.5173 29.1437 16.5173C30.4637 16.5173 31.7337 16.3073 32.3637 15.9573C30.8537 13.9973 28.1637 8.2273 26.7537 6.0473C25.3437 7.5073 23.0637 8.9273 21.4937 9.5473C21.7337 12.0073 23.0937 14.8573 25.2137 16.9973ZM7.5837 17.0673C9.6437 15.0973 11.3037 11.9873 11.5637 9.5873C9.7337 8.8973 7.4937 7.5873 6.1837 6.1773C5.5337 7.1773 4.8537 8.2573 4.2537 9.4573C2.9837 12.0073 1.5337 13.1773 0.6037 14.0573C0.2337 14.3973 0.0037 14.7973 0.0037 15.3273C0.0037 16.1173 0.8437 16.5573 2.3337 16.5573H3.9737C5.5237 16.5573 6.5737 16.7473 7.5837 17.0673ZM39.1837 8.6773C38.5237 8.6773 38.0037 8.1473 38.0037 7.5073C38.0037 6.8773 38.5237 6.3473 39.1837 6.3473C39.8137 6.3473 40.3437 6.8773 40.3437 7.5073C40.3437 8.1473 39.8137 8.6773 39.1837 8.6773ZM16.4337 20.2073C19.5637 20.2073 21.7637 18.5673 23.6137 17.6473C21.5237 15.6673 20.1837 12.7373 19.9737 10.0473C18.8437 10.3673 17.6937 10.5173 16.5037 10.5173C15.3137 10.5273 14.1637 10.3673 13.0537 10.0773C12.8337 12.5873 11.4737 15.6373 9.3837 17.7173C11.1537 18.4173 13.3037 20.2073 16.4337 20.2073ZM3.8237 22.5273C6.2037 22.5273 8.6437 21.4773 9.7937 19.8773C8.4537 18.9873 6.7537 18.1573 5.1437 18.0873C4.4137 18.2773 3.6137 18.3173 2.7737 18.4873C1.6037 18.7073 0.5337 19.1773 0.5337 20.3173C0.5337 21.7473 1.9737 22.5273 3.8237 22.5273ZM28.5737 22.5573C30.4337 22.5573 31.8737 21.7773 31.8737 20.3473C31.8737 19.2273 30.8037 18.3373 29.6237 18.2373C28.7837 18.1973 28.1237 18.1873 27.2637 18.1273C25.6937 18.2073 23.9937 19.0473 22.6137 19.9073C23.7637 21.5173 26.1937 22.5573 28.5737 22.5573Z" /></svg>