<svg viewBox="0 0 37.40625 28.4375" xmlns="http://www.w3.org/2000/svg"><path d="M23.5737 17.9362H29.0437V14.4362H29.7937C30.2437 14.4362 30.6837 14.2962 31.0337 14.0362C32.8937 12.5762 34.1537 10.3462 34.1537 7.8362C34.1537 3.5662 30.5937 -0.0038 26.3337 -0.0038C22.0837 -0.0038 18.5437 3.5662 18.5437 7.8362C18.5437 10.3462 19.7537 12.5762 21.6037 14.0262C21.9737 14.3162 22.4237 14.4362 22.8637 14.4362H23.5737ZM0.0037 9.7762C0.0037 11.2362 1.1737 12.3962 2.6237 12.3962H5.7037C6.3937 12.3962 6.8037 12.6562 7.2337 13.3462L12.4237 21.5862C13.7537 23.6762 15.1037 24.4362 18.0637 24.4362H34.7837C36.2437 24.4362 37.4037 23.2662 37.4037 21.8062C37.4037 20.3562 36.2437 19.1862 34.7837 19.1862H17.9737C17.2237 19.1862 16.7737 19.0062 16.4837 18.5162L11.1737 9.8162C10.0737 8.0362 8.5137 7.1462 6.6437 7.1462H2.6237C1.1737 7.1462 0.0037 8.3262 0.0037 9.7762ZM26.3337 28.4362C27.9137 28.4362 29.0437 27.3062 29.0437 25.7062V25.6762H23.5737V25.7062C23.5737 27.3062 24.7337 28.4362 26.3337 28.4362Z" /></svg>