<svg viewBox="0 0 45.41796875 28.2734375" xmlns="http://www.w3.org/2000/svg"><path d="M0.0037 9.8062C0.0037 11.7162 1.4037 13.0862 3.3037 13.0862H5.0137C6.3937 13.0862 6.8637 13.3662 7.4337 14.2862L12.7437 22.7262C13.5637 24.0362 14.9337 25.1162 17.3737 25.1162H23.5737V25.5362C23.5737 27.1362 24.7337 28.2762 26.3337 28.2762C27.9137 28.2762 29.0437 27.1362 29.0437 25.5362V25.1162H34.5037C36.4237 25.1162 37.8137 23.7062 37.8137 21.7762C37.8137 19.8762 36.4237 18.4962 34.5037 18.4962H29.0437V15.0262H29.9237C30.4037 15.0262 30.8537 14.8862 31.2237 14.6062C33.1637 13.0962 34.4637 10.7762 34.4637 8.1662C34.4637 3.7162 30.7737 -0.0038 26.3337 -0.0038C21.9037 -0.0038 18.2137 3.7162 18.2137 8.1662C18.2137 10.7762 19.4837 13.0962 21.4137 14.6062C21.7937 14.9062 22.2537 15.0262 22.7237 15.0262H23.5737V18.4962H18.6637C18.1537 18.4962 17.6237 18.4162 17.3637 17.9762L12.2237 9.5662C10.8737 7.3562 9.2137 6.4662 6.9137 6.4662H3.3037C1.4037 6.4662 0.0037 7.8862 0.0037 9.8062ZM23.4637 12.9162C22.9137 12.9162 22.4937 12.8062 22.0937 12.4162C21.0537 11.3362 20.4237 9.8662 20.4237 8.1662C20.4237 4.7162 22.9737 2.2162 26.3437 2.2162C29.7337 2.2162 32.2237 4.7162 32.2237 8.1662C32.2237 9.8562 31.6237 11.3362 30.5837 12.3762C30.1737 12.8062 29.7737 12.9162 29.2137 12.9162ZM43.6137 17.3062C44.2837 17.3062 44.7637 16.8462 44.7937 16.1462L45.0737 6.4662C45.1037 5.5962 44.5137 5.0062 43.6137 5.0062C42.7237 5.0062 42.1337 5.5962 42.1637 6.4662L42.4537 16.1462C42.4737 16.8462 42.9437 17.3062 43.6137 17.3062ZM2.0637 9.7862C2.0637 9.0362 2.5737 8.5362 3.3037 8.5362L6.3037 8.5462C8.4537 8.5562 9.3937 9.0062 10.3937 10.6262L15.7237 19.1862C16.3337 20.1562 17.0737 20.5662 18.4437 20.5662H34.5037C35.2437 20.5662 35.7537 21.0662 35.7537 21.7962C35.7537 22.5562 35.2437 23.0462 34.5037 23.0462H17.8037C15.8437 23.0462 15.0237 22.5462 14.1637 21.1762L8.8637 12.7262C8.0437 11.4062 7.2737 11.0162 5.4837 11.0162H3.3037C2.5737 11.0162 2.0637 10.5162 2.0637 9.7862ZM43.6137 23.3762C44.5937 23.3762 45.4137 22.5862 45.4137 21.6562C45.4137 20.7162 44.6137 19.9362 43.6137 19.9362C42.6337 19.9362 41.8237 20.7162 41.8237 21.6562C41.8237 22.5862 42.6437 23.3762 43.6137 23.3762Z" /></svg>