<svg viewBox="0 0 31.513671875 36.626953125" xmlns="http://www.w3.org/2000/svg"><path d="M0.0037 35.5318C0.0037 36.1318 0.4937 36.6318 1.0937 36.6318C1.7137 36.6318 2.2037 36.1318 2.2037 35.5318V14.1118C2.2037 6.3618 6.9337 2.2018 15.7637 2.2018C24.5837 2.2018 29.3137 6.3618 29.3137 14.1118V35.5318C29.3137 36.1318 29.8137 36.6318 30.4237 36.6318C31.0237 36.6318 31.5137 36.1318 31.5137 35.5318V14.1118C31.5137 4.9218 26.0337 0.0018 15.7637 0.0018C5.4837 0.0018 0.0037 4.9218 0.0037 14.1118ZM9.3537 30.3518H9.7037L7.3137 34.2118C7.0037 34.7118 7.3037 35.2918 7.8737 35.2918H8.5137C8.8637 35.2918 9.0537 35.1618 9.2537 34.8618L9.8837 33.8418H21.6737L22.3037 34.8618C22.4937 35.1618 22.7137 35.2918 23.0537 35.2918H23.6837C24.2437 35.2918 24.5437 34.7018 24.2437 34.2118L21.8437 30.3518H22.1637C24.2837 30.3518 25.5137 28.8918 25.5137 26.8518V18.6618C25.5137 15.6018 25.1037 12.6018 24.6537 10.7318C24.1437 8.6318 22.6937 7.2418 20.7237 7.0118C19.9837 6.9318 18.0737 6.7718 15.7637 6.7718C13.4537 6.7718 11.5237 6.9318 10.7837 7.0118C8.8137 7.2418 7.3737 8.6318 6.8637 10.7318C6.4137 12.6018 6.0037 15.6018 6.0037 18.6618V26.8518C6.0037 28.8918 7.2337 30.3518 9.3537 30.3518ZM12.9037 10.6218C12.4137 10.6218 12.0837 10.2918 12.0837 9.8018C12.0837 9.3118 12.4137 8.9818 12.9037 8.9818H18.6037C19.1037 8.9818 19.4237 9.3118 19.4237 9.8018C19.4237 10.2918 19.1037 10.6218 18.6037 10.6218ZM15.7637 22.5318C13.1237 22.5218 10.6937 22.3918 9.4737 22.2418C8.9137 22.1718 8.6437 21.8318 8.6437 21.2018V18.5618C8.6437 16.2818 8.8837 14.4418 9.0637 13.6018C9.1637 13.1218 9.4437 12.8518 9.8737 12.8018C11.1537 12.6318 12.7237 12.5518 15.7637 12.5518C18.7737 12.5518 20.3537 12.6318 21.6037 12.7818C22.0537 12.8518 22.3537 13.1218 22.4537 13.6018C22.6237 14.4418 22.8737 16.2818 22.8737 18.5618V21.2018C22.8737 21.8518 22.6037 22.1718 22.0437 22.2418C20.2037 22.4918 17.8037 22.5218 15.7637 22.5318ZM10.4437 27.9018C9.4837 27.9018 8.7937 27.1918 8.7937 26.2218C8.7937 25.2618 9.4837 24.5718 10.4437 24.5718C11.4137 24.5718 12.1237 25.2618 12.1237 26.2218C12.1237 27.1918 11.3937 27.9018 10.4437 27.9018ZM21.0537 27.9018C20.0937 27.9018 19.3837 27.1918 19.3837 26.2218C19.3837 25.2618 20.0937 24.5718 21.0537 24.5718C22.0237 24.5718 22.7237 25.2618 22.7237 26.2218C22.7237 27.1918 21.9937 27.9018 21.0537 27.9018ZM11.0337 32.0018L12.0537 30.3518H19.4937L20.5237 32.0018Z" /></svg>