<svg viewBox="0 0 27.890625 27.890625" xmlns="http://www.w3.org/2000/svg"><path d="M13.9427 27.8864C21.6427 27.8864 27.8927 21.6464 27.8927 13.9464C27.8927 6.2464 21.6427 -0.0036 13.9427 -0.0036C6.2527 -0.0036 0.0027 6.2464 0.0027 13.9464C0.0027 21.6464 6.2527 27.8864 13.9427 27.8864ZM13.9427 25.5664C7.5227 25.5664 2.3227 20.3664 2.3227 13.9464C2.3227 7.5164 7.5227 2.3264 13.9427 2.3264C20.3727 2.3264 25.5627 7.5164 25.5627 13.9464C25.5627 20.3664 20.3727 25.5664 13.9427 25.5664ZM9.3527 22.3264H9.7227C9.9127 22.3264 10.0227 22.2564 10.1127 22.1064L10.5027 21.4764H17.3927L17.7727 22.1064C17.8727 22.2564 17.9827 22.3264 18.1727 22.3264H18.5427C18.8527 22.3264 18.9927 22.0264 18.8127 21.7364L17.3727 19.3964H17.6527C18.8427 19.3964 19.5227 18.5964 19.5227 17.4564V12.6964C19.5227 10.9264 19.2927 9.1864 19.0127 8.0964C18.7427 6.9564 17.9827 6.1264 16.8127 6.0064C16.3927 5.9464 15.2827 5.8564 13.9327 5.8564C12.5827 5.8564 11.4727 5.9464 11.0427 6.0064C9.8827 6.1264 9.1227 6.9564 8.8427 8.0964C8.5727 9.1864 8.3427 10.9264 8.3427 12.6964V17.4564C8.3427 18.5964 9.0227 19.3964 10.2127 19.3964H10.5127L9.0627 21.7364C8.8827 22.0264 9.0327 22.3264 9.3527 22.3264ZM12.2327 7.9264C11.9927 7.9264 11.8227 7.7664 11.8227 7.5164C11.8227 7.2864 11.9927 7.1264 12.2327 7.1264H15.6227C15.8727 7.1264 16.0527 7.2864 16.0527 7.5164C16.0527 7.7664 15.8727 7.9264 15.6227 7.9264ZM13.9327 15.0164C12.3827 14.9964 10.9827 14.9264 10.2627 14.8464C9.8527 14.8064 9.7027 14.5464 9.7027 14.1664V12.6364C9.7027 11.3064 9.8527 10.2164 9.9527 9.7364C10.0227 9.4364 10.2127 9.2264 10.4827 9.1864C11.2427 9.1064 12.1727 9.0464 13.9327 9.0464C15.6927 9.0364 16.6227 9.1064 17.3527 9.1864C17.6527 9.2264 17.8427 9.4364 17.9127 9.7364C18.0027 10.2164 18.1527 11.3064 18.1527 12.6364V14.1664C18.1527 14.5464 18.0027 14.8064 17.5927 14.8464C16.5327 14.9564 15.1227 15.0164 13.9327 15.0164ZM17.0127 18.0164C16.4927 18.0164 16.0927 17.6264 16.0927 17.0864C16.0927 16.5664 16.4927 16.1764 17.0127 16.1764C17.5227 16.1764 17.9327 16.5664 17.9327 17.0864C17.9327 17.6264 17.5127 18.0164 17.0127 18.0164ZM10.8427 18.0064C10.3227 18.0064 9.9427 17.6364 9.9427 17.0864C9.9427 16.5664 10.3227 16.1864 10.8427 16.1864C11.3727 16.1864 11.7627 16.5664 11.7627 17.0864C11.7627 17.6364 11.3627 18.0064 10.8427 18.0064ZM11.1127 20.4764L11.7827 19.3964H16.1027L16.7727 20.4764Z" /></svg>