<svg viewBox="0 0 33.072265625 24.077024089672985" xmlns="http://www.w3.org/2000/svg"><path d="M1.0937 13.0728H4.9037V17.2728C4.9037 19.5528 6.3537 20.9128 9.0737 21.3828L23.9937 24.0028C26.6037 24.4628 28.1637 22.8228 28.1637 19.8928V13.0728H31.9737C32.6637 13.0728 33.0737 12.6828 33.0737 12.0528C33.0737 11.3928 32.6637 11.0128 31.9737 11.0128H28.1637V4.2028C28.1637 1.1228 26.7137 -0.3872 23.9937 0.0828L9.0737 2.7128C6.3537 3.1928 4.9037 4.5128 4.9037 6.8128V11.0128H1.0937C0.4137 11.0128 0.0037 11.3928 0.0037 12.0528C0.0037 12.6828 0.4137 13.0728 1.0937 13.0728ZM6.9737 6.7828C6.9737 5.6328 7.6737 4.9828 8.9737 4.7628L24.1037 2.1528C25.4037 1.9328 26.1037 2.6528 26.1037 4.1728V11.0128H6.9737ZM8.9737 19.3228C7.6737 19.1028 6.9737 18.4528 6.9737 17.3028V13.0728H26.1037V19.9228C26.1037 21.3728 25.3637 22.1528 24.1037 21.9528Z" /></svg>