<svg viewBox="0 0 25.169921875 25.169921875" xmlns="http://www.w3.org/2000/svg"><path d="M4.2937 25.1652H20.8737C23.7437 25.1652 25.1737 23.7452 25.1737 20.9352V4.2352C25.1737 1.4252 23.7437 -0.0048 20.8737 -0.0048H4.2937C1.4337 -0.0048 0.0037 1.4052 0.0037 4.2352V20.9352C0.0037 23.7652 1.4337 25.1652 4.2937 25.1652ZM4.3237 22.9652C2.9537 22.9652 2.2037 22.2352 2.2037 20.8252V4.3452C2.2037 2.9252 2.9537 2.2052 4.3237 2.2052H20.8537C22.2037 2.2052 22.9737 2.9252 22.9737 4.3452V20.8252C22.9737 22.2352 22.2037 22.9652 20.8537 22.9652ZM9.0637 20.6152H16.1337C17.0537 20.6152 17.6137 20.1152 17.6537 19.1852L18.1137 8.3852H19.1937C19.5237 8.3852 19.7737 8.1052 19.7837 7.7952C19.7937 7.4752 19.5237 7.2052 19.1937 7.2052H15.9237V6.0952C15.9237 4.9752 15.1637 4.2652 13.9737 4.2652H11.2137C10.0037 4.2652 9.2737 4.9752 9.2737 6.0952V7.2052H5.9737C5.6637 7.2052 5.3837 7.4752 5.3837 7.7952C5.3837 8.1052 5.6637 8.3852 5.9737 8.3852H7.0937L7.5737 19.1852C7.6037 20.1152 8.1337 20.6152 9.0637 20.6152ZM10.6537 7.2052V6.1752C10.6537 5.8252 10.9137 5.5952 11.2837 5.5952H13.8737C14.2437 5.5952 14.5037 5.8252 14.5037 6.1752V7.2052ZM10.2437 18.5152C9.9637 18.5152 9.7437 18.3252 9.7437 18.0452L9.4637 10.0652C9.4637 9.7652 9.6537 9.5752 9.9637 9.5752C10.2437 9.5752 10.4637 9.7652 10.4637 10.0452L10.7237 18.0352C10.7237 18.3052 10.5537 18.5152 10.2437 18.5152ZM12.5737 18.4952C12.2737 18.4952 12.0737 18.3052 12.0737 18.0352V10.0452C12.0737 9.7652 12.2637 9.5752 12.5737 9.5752C12.8837 9.5752 13.0837 9.7652 13.0837 10.0452V18.0352C13.0837 18.3052 12.8837 18.4952 12.5737 18.4952ZM14.9037 18.5152C14.6037 18.5152 14.4237 18.3052 14.4237 18.0352L14.6837 10.0452C14.6937 9.7652 14.9037 9.5752 15.1937 9.5752C15.5037 9.5752 15.6837 9.7652 15.6837 10.0652L15.3937 18.0452C15.3937 18.3252 15.1737 18.5152 14.9037 18.5152Z" /></svg>