<svg viewBox="0 0 26.46875 30.447265625" xmlns="http://www.w3.org/2000/svg"><path d="M6.9682 30.4447H19.5082C21.4682 30.4447 22.7782 29.1747 22.8682 27.2247L23.8182 7.3447H25.4582C26.0182 7.3447 26.4682 6.8647 26.4682 6.3047C26.4682 5.7447 26.0182 5.2747 25.4582 5.2747H19.2082V3.1847C19.2082 1.2047 17.9282 0.0047 15.8182 0.0047H10.6182C8.5182 0.0047 7.2282 1.2047 7.2282 3.1847V5.2747H1.0282C0.4782 5.2747 -0.0018 5.7447 -0.0018 6.3047C-0.0018 6.8747 0.4782 7.3447 1.0282 7.3447H2.6482L3.6082 27.2347C3.7082 29.1847 4.9882 30.4447 6.9682 30.4447ZM9.4082 3.3247C9.4082 2.5447 9.9482 2.0347 10.7782 2.0347H15.6682C16.4882 2.0347 17.0382 2.5447 17.0382 3.3247V5.2747H9.4082ZM7.1682 28.3847C6.3882 28.3847 5.7982 27.7947 5.7582 26.9847L4.7982 7.3447H21.6182L20.7082 26.9847C20.6882 27.8047 20.0982 28.3847 19.2882 28.3847ZM9.1882 26.0447C9.7082 26.0447 10.0482 25.7147 10.0382 25.2347L9.6082 10.6047C9.5982 10.1347 9.2582 9.8147 8.7682 9.8147C8.2482 9.8147 7.8982 10.1447 7.9182 10.6247L8.3282 25.2347C8.3382 25.7347 8.6782 26.0447 9.1882 26.0447ZM13.2382 26.0447C13.7582 26.0447 14.1182 25.7147 14.1182 25.2347V10.6247C14.1182 10.1447 13.7582 9.8147 13.2382 9.8147C12.7182 9.8147 12.3582 10.1447 12.3582 10.6247V25.2347C12.3582 25.7147 12.7182 26.0447 13.2382 26.0447ZM17.2982 26.0447C17.7882 26.0447 18.1282 25.7347 18.1382 25.2347L18.5482 10.6247C18.5682 10.1447 18.2282 9.8147 17.7082 9.8147C17.2082 9.8147 16.8682 10.1347 16.8582 10.6247L16.4482 25.2347C16.4382 25.7147 16.7782 26.0447 17.2982 26.0447Z" /></svg>