<svg viewBox="0 0 27.890625 27.890625" xmlns="http://www.w3.org/2000/svg"><path d="M13.9427 27.8864C21.6427 27.8864 27.8927 21.6464 27.8927 13.9464C27.8927 6.2464 21.6427 -0.0036 13.9427 -0.0036C6.2527 -0.0036 0.0027 6.2464 0.0027 13.9464C0.0027 21.6464 6.2527 27.8864 13.9427 27.8864ZM13.9427 25.5664C7.5227 25.5664 2.3227 20.3664 2.3227 13.9464C2.3227 7.5164 7.5227 2.3264 13.9427 2.3264C20.3727 2.3264 25.5627 7.5164 25.5627 13.9464C25.5627 20.3664 20.3727 25.5664 13.9427 25.5664ZM8.0627 19.4664H19.8227C21.2427 19.4664 21.9527 18.7564 21.9527 17.3664V13.6264C21.9527 13.0064 21.8427 12.7264 21.5627 12.3364L19.1527 9.0764C18.3627 7.9964 17.8927 7.7364 16.7027 7.7364H11.1827C9.9927 7.7364 9.5127 7.9964 8.7327 9.0764L6.3327 12.3364C6.0427 12.7264 5.9327 13.0064 5.9327 13.6264V17.3664C5.9327 18.7564 6.6627 19.4664 8.0627 19.4664ZM7.8427 13.1764C7.6427 13.1764 7.6027 13.0064 7.6927 12.8664L10.0627 9.6364C10.3327 9.2564 10.6227 9.1064 11.1027 9.1064H16.8027C17.2827 9.1064 17.5727 9.2664 17.8327 9.6364L20.2027 12.8664C20.3027 12.9864 20.2527 13.1764 20.0427 13.1764H16.1027C15.7527 13.1764 15.5827 13.4564 15.5827 13.7364V13.9064C15.5827 14.8464 14.9427 15.4464 13.9427 15.4464C12.9427 15.4464 12.3327 14.8464 12.3327 13.9064V13.7364C12.3327 13.4564 12.1427 13.1764 11.7827 13.1764Z" /></svg>