<svg viewBox="0 0 32.23828125 32.251953125" xmlns="http://www.w3.org/2000/svg"><path d="M16.1237 18.6492C16.7037 18.6492 17.2137 18.1692 17.2137 17.5992V5.0492L17.1137 3.0092L17.8937 3.8192L20.0037 6.0692C20.1937 6.2892 20.4837 6.3992 20.7437 6.3992C21.3137 6.3992 21.7337 5.9892 21.7337 5.4292C21.7337 5.1392 21.6337 4.9192 21.4237 4.7192L16.9137 0.3692C16.6437 0.0992 16.4037 -0.0008 16.1237 -0.0008C15.8437 -0.0008 15.6037 0.0992 15.3237 0.3692L10.8137 4.7192C10.6137 4.9192 10.5037 5.1392 10.5037 5.4292C10.5037 5.9892 10.9137 6.3992 11.4837 6.3992C11.7437 6.3992 12.0437 6.2892 12.2337 6.0692L14.3437 3.8192L15.1237 2.9892L15.0437 5.0492V17.5992C15.0437 18.1692 15.5337 18.6492 16.1237 18.6492ZM19.7737 8.8992V10.8292H22.1637C23.1637 10.8292 23.9237 11.1592 24.5937 11.9992L29.6837 18.4192C29.9037 18.6992 29.8137 19.0892 29.3637 19.0892H20.3437C19.6337 19.0892 19.3037 19.6292 19.3037 20.1892V20.2492C19.3037 21.8292 18.0637 23.4992 16.1237 23.4992C14.1937 23.4992 12.9437 21.8292 12.9437 20.2492V20.1892C12.9437 19.6292 12.6037 19.0892 11.8937 19.0892H2.8837C2.4337 19.0892 2.3337 18.6992 2.5737 18.4192L7.6437 11.9992C8.3137 11.1592 9.0737 10.8292 10.0737 10.8292H12.4737V8.8992H10.2437C7.8037 8.8992 7.1137 9.4992 5.5137 11.4692L0.7837 17.3192C0.1737 18.0592 0.0037 18.6792 0.0037 19.9192V28.0092C0.0037 30.8292 1.4337 32.2492 4.2937 32.2492H27.9437C30.8137 32.2492 32.2337 30.8292 32.2337 28.0092V19.9192C32.2337 18.6792 32.0737 18.0592 31.4637 17.3192L26.7437 11.4692C25.1437 9.4992 24.4337 8.8992 21.9937 8.8992ZM4.3237 30.0492C2.9537 30.0492 2.2037 29.3092 2.2037 27.8892V21.0992H10.8737C11.1937 23.6492 13.3437 25.5392 16.1237 25.5392C18.8937 25.5392 21.0437 23.6392 21.3737 21.0992H30.0337V27.8892C30.0337 29.3092 29.2737 30.0492 27.9137 30.0492Z" /></svg>