<svg viewBox="0 0 27.890625 27.890625" xmlns="http://www.w3.org/2000/svg"><path d="M13.9427 27.8864C21.6427 27.8864 27.8927 21.6464 27.8927 13.9464C27.8927 6.2464 21.6427 -0.0036 13.9427 -0.0036C6.2527 -0.0036 0.0027 6.2464 0.0027 13.9464C0.0027 21.6464 6.2527 27.8864 13.9427 27.8864ZM13.9427 25.5664C7.5227 25.5664 2.3227 20.3664 2.3227 13.9464C2.3227 7.5164 7.5227 2.3264 13.9427 2.3264C20.3727 2.3264 25.5627 7.5164 25.5627 13.9464C25.5627 20.3664 20.3727 25.5664 13.9427 25.5664ZM6.0827 15.8964C6.0827 17.3464 7.0727 18.3564 8.4727 18.3564C8.9127 18.3564 9.4227 18.2564 9.9427 17.9964C10.3227 18.3364 11.2527 18.8164 12.3227 18.8564C12.1127 17.8964 11.4427 16.5564 11.0427 15.8364C11.3027 15.8064 11.5227 15.7464 11.7127 15.6664C12.4427 17.0364 13.0827 18.4864 13.0827 19.4264C13.0827 20.3064 12.9727 21.3664 12.9727 21.7364C12.9727 22.0264 13.3527 22.2164 13.9327 22.2164C14.5027 22.2164 14.8927 22.0264 14.8927 21.7364C14.8927 21.3664 14.7827 20.3064 14.7827 19.4264C14.7827 18.5564 15.3427 17.2264 16.1027 15.6564C16.3127 15.7464 16.5427 15.8064 16.8127 15.8364C16.4227 16.5564 15.7627 17.8964 15.5427 18.8564C16.6127 18.8164 17.5427 18.3364 17.9227 17.9964C18.4427 18.2564 18.9527 18.3564 19.3827 18.3564C20.7927 18.3564 21.7927 17.3464 21.7927 15.8964C21.7927 15.1664 21.4627 14.3864 20.7927 13.6764C21.3327 13.0964 21.5627 12.4264 21.5627 11.7464C21.5627 10.2964 20.4427 8.9364 19.0427 8.7864C19.0027 7.3664 17.4327 6.3664 15.9427 6.3664C15.1727 6.3664 14.4627 6.6164 13.9327 7.1664C13.4027 6.6164 12.7027 6.3664 11.9227 6.3664C10.4427 6.3664 8.8727 7.3664 8.8227 8.7864C7.4227 8.9364 6.3027 10.2964 6.3027 11.7464C6.3027 12.4264 6.5327 13.0964 7.0727 13.6764C6.4027 14.3864 6.0827 15.1664 6.0827 15.8964ZM12.7327 14.5464C12.9327 14.6964 13.1627 14.8064 13.4227 14.8764V16.9564C13.1827 16.3664 12.9027 15.8364 12.4827 15.0564C12.5827 14.9064 12.6627 14.7264 12.7327 14.5464ZM15.1327 14.5464C15.2027 14.7264 15.2827 14.8864 15.3827 15.0364C14.9327 15.8764 14.6827 16.3764 14.4327 16.9364L14.4127 14.8764C14.6827 14.8164 14.9127 14.6964 15.1327 14.5464Z" /></svg>