<svg viewBox="0 0 27.890625 27.890625" xmlns="http://www.w3.org/2000/svg"><path d="M13.9427 27.8864C21.6427 27.8864 27.8927 21.6464 27.8927 13.9464C27.8927 6.2464 21.6427 -0.0036 13.9427 -0.0036C6.2527 -0.0036 0.0027 6.2464 0.0027 13.9464C0.0027 21.6464 6.2527 27.8864 13.9427 27.8864ZM13.9427 25.5664C7.5227 25.5664 2.3227 20.3664 2.3227 13.9464C2.3227 7.5164 7.5227 2.3264 13.9427 2.3264C20.3727 2.3264 25.5627 7.5164 25.5627 13.9464C25.5627 20.3664 20.3727 25.5664 13.9427 25.5664ZM7.0427 16.6064C6.1527 18.1564 6.8527 19.6564 8.6027 19.6564H19.3027C21.0427 19.6564 21.7527 18.1564 20.8527 16.6064L15.6727 7.6064C14.8227 6.1264 13.0927 6.0864 12.2127 7.6164ZM8.8327 17.3364L13.7127 8.8164C13.8227 8.6164 14.0527 8.6264 14.1627 8.8164L19.0727 17.3364C19.1927 17.5364 19.1427 17.7564 18.8527 17.7564H9.0327C8.7627 17.7564 8.6927 17.5364 8.8327 17.3364Z" /></svg>