<svg viewBox="0 0 30.064453125 26.33203125" xmlns="http://www.w3.org/2000/svg"><path d="M1.8909 26.3289H28.1809C29.5009 26.3289 30.0609 25.6189 30.0609 24.7989C30.0609 24.4589 29.9709 24.0889 29.7809 23.7389L16.5609 0.8389C16.2409 0.2689 15.6409 -0.0011 15.0409 -0.0011C14.4209 -0.0011 13.8409 0.2689 13.5109 0.8389L0.3009 23.7389C0.1109 24.0889 0.0009 24.4589 0.0009 24.7989C0.0009 25.6189 0.5609 26.3289 1.8909 26.3289ZM3.0909 24.1889C2.8709 24.1889 2.7509 24.0789 2.7509 23.9089C2.7509 23.8389 2.7609 23.7789 2.8209 23.6889L14.7609 2.9489C14.8509 2.8289 14.9309 2.7789 15.0409 2.7789C15.1309 2.7789 15.2209 2.8289 15.3009 2.9489L27.2609 23.6889C27.3009 23.7789 27.3309 23.8389 27.3309 23.9089C27.3309 24.0789 27.1909 24.1889 26.9709 24.1889Z" /></svg>