<svg viewBox="0 0 28.587890625 25.908203125" xmlns="http://www.w3.org/2000/svg"><path d="M0.0009 22.1394C0.0009 24.2394 1.4509 25.9094 3.7709 25.9094H24.8109C27.1409 25.9094 28.5909 24.2394 28.5909 22.1394C28.5909 21.5094 28.4209 20.8794 28.0809 20.2894L17.5409 1.9094C16.8309 0.6694 15.5709 -0.0006 14.2909 -0.0006C13.0109 -0.0006 11.7609 0.6694 11.0509 1.9094L0.5009 20.2794C0.1809 20.8594 0.0009 21.5094 0.0009 22.1394ZM14.2909 23.7594V2.1894C14.8209 2.1894 15.3709 2.4294 15.6709 2.9494L26.1909 21.3194C26.3309 21.5994 26.3709 21.8894 26.3709 22.1394C26.3709 22.9794 25.7409 23.7594 24.8009 23.7594Z" /></svg>