<svg viewBox="0 0 28.587890625 25.908203125" xmlns="http://www.w3.org/2000/svg"><path d="M0.0009 22.1394C0.0009 24.2394 1.4509 25.9094 3.7709 25.9094H24.8109C27.1409 25.9094 28.5909 24.2394 28.5909 22.1394C28.5909 21.5094 28.4209 20.8594 28.0809 20.2794L17.5409 1.9094C16.8309 0.6694 15.5709 -0.0006 14.3009 -0.0006C13.0109 -0.0006 11.7609 0.6694 11.0509 1.9094L0.5009 20.2894C0.1609 20.8794 0.0009 21.5094 0.0009 22.1394ZM6.4509 14.2194L12.9209 2.9494C13.2209 2.4294 13.7709 2.1894 14.3009 2.1894C14.8309 2.1894 15.3509 2.4194 15.6509 2.9494L22.0909 14.2194Z" /></svg>