<svg viewBox="0 0 27.890625 27.890625" xmlns="http://www.w3.org/2000/svg"><path d="M13.9427 27.888C21.6427 27.888 27.8927 21.628 27.8927 13.948C27.8927 6.248 21.6427 -0.002 13.9427 -0.002C6.2627 -0.002 0.0027 6.248 0.0027 13.948C0.0027 21.628 6.2627 27.888 13.9427 27.888ZM6.8327 16.698L12.1727 7.408C13.0827 5.838 14.8627 5.888 15.7327 7.398L21.0827 16.698C22.0127 18.308 21.2827 19.848 19.4827 19.848H8.4527C6.6327 19.848 5.9227 18.308 6.8327 16.698ZM8.6927 17.448C8.5427 17.668 8.6227 17.868 8.9027 17.868H19.0127C19.3027 17.868 19.3727 17.668 19.2327 17.448L14.1827 8.668C14.0727 8.458 13.8327 8.448 13.7227 8.668Z" /></svg>