<svg viewBox="0 0 27.890625 27.890625" xmlns="http://www.w3.org/2000/svg"><path d="M13.9427 27.8864C21.6427 27.8864 27.8927 21.6464 27.8927 13.9464C27.8927 6.2464 21.6427 -0.0036 13.9427 -0.0036C6.2527 -0.0036 0.0027 6.2464 0.0027 13.9464C0.0027 21.6464 6.2527 27.8864 13.9427 27.8864ZM13.9427 25.5664C7.5227 25.5664 2.3227 20.3664 2.3227 13.9464C2.3227 7.5164 7.5227 2.3264 13.9427 2.3264C20.3727 2.3264 25.5627 7.5164 25.5627 13.9464C25.5627 20.3664 20.3727 25.5664 13.9427 25.5664ZM9.5827 13.9464C9.5827 16.3364 11.5627 18.3164 13.9427 18.3164C14.6127 18.3164 15.2427 18.1464 15.7727 17.8264C14.5027 19.9364 12.1527 21.1664 9.3227 21.1664C8.8627 21.1664 8.5327 21.5164 8.5327 21.9464C8.5327 22.3664 8.8627 22.7264 9.3227 22.7264C14.3527 22.7264 18.3027 19.2764 18.3027 13.9464C18.3027 11.5564 16.3227 9.5664 13.9427 9.5664C13.2727 9.5664 12.6427 9.7464 12.1127 10.0664C13.3827 7.9564 15.7327 6.7264 18.5827 6.7264C19.0327 6.7264 19.3627 6.3664 19.3627 5.9364C19.3627 5.5064 19.0127 5.1664 18.5827 5.1664C13.5327 5.1664 9.5827 8.6164 9.5827 13.9464ZM11.1427 13.9464C11.1427 12.3864 12.3827 11.1464 13.9427 11.1464C15.5027 11.1464 16.7527 12.3864 16.7527 13.9464C16.7527 15.5064 15.5027 16.7464 13.9427 16.7464C12.3827 16.7464 11.1427 15.5064 11.1427 13.9464ZM12.5927 13.9464C12.5927 14.6864 13.2027 15.2964 13.9427 15.2964C14.6827 15.2964 15.3027 14.6664 15.3027 13.9464C15.3027 13.2064 14.6827 12.5964 13.9427 12.5964C13.2027 12.5964 12.5927 13.2064 12.5927 13.9464Z" /></svg>