<svg viewBox="0 0 24.732421875 24.705078125" xmlns="http://www.w3.org/2000/svg"><path d="M11.5637 24.7068C13.8737 24.7068 15.7737 23.2668 16.4337 21.1868H24.7337V18.9868H16.6537C16.3637 16.3968 14.2437 14.4668 11.5637 14.4668C8.8637 14.4668 6.7437 16.3968 6.4637 18.9868H4.0437C2.9637 18.9868 2.3337 18.2268 2.3337 17.0068V13.9068C2.3337 11.6368 3.7837 10.4068 7.0537 9.9168L13.2937 8.9668L20.0337 4.7668C21.5837 3.7968 23.0637 3.1268 24.7337 2.7168V0.4368C22.6237 0.8868 20.7937 1.6668 18.8537 2.8868L13.4837 6.2568L8.3437 1.1168C7.5437 0.3268 6.5037 -0.0032 5.2737 -0.0032H1.0137C0.3837 -0.0032 0.0037 0.3868 0.0037 0.9668C0.0037 1.5568 0.3837 1.9668 1.0137 1.9668H5.5137C6.0337 1.9668 6.4237 2.0868 6.7437 2.4168L11.3637 7.0268L6.7637 7.7068C2.1237 8.4068 0.1237 10.3368 0.1237 13.9068V17.3068C0.1237 19.7568 1.5137 21.1868 3.9137 21.1868H6.6737C7.3237 23.2668 9.2237 24.7068 11.5637 24.7068ZM11.5637 22.4868C9.9237 22.4868 8.6437 21.2168 8.6437 19.5768C8.6437 17.9368 9.9237 16.6668 11.5637 16.6668C13.1937 16.6668 14.4737 17.9368 14.4737 19.5768C14.4737 21.2168 13.1937 22.4868 11.5637 22.4868Z" /></svg>