<svg viewBox="0 0 51.84375 22.216796875" xmlns="http://www.w3.org/2000/svg"><path d="M3.4837 19.0963H5.8637C6.4937 20.9363 8.2037 22.2163 10.2837 22.2163C12.3637 22.2163 14.0837 20.9363 14.7137 19.0963H34.7237C35.3437 20.9363 37.0637 22.2163 39.1437 22.2163C41.2237 22.2163 42.9337 20.9363 43.5537 19.0963H48.3737C50.5437 19.0963 51.8437 17.7563 51.8437 15.5263V9.8863C51.8437 7.6563 50.5437 6.3163 48.3737 6.3163H37.1637L36.9037 4.0763C36.5837 1.3663 35.0637 -0.0037 32.3737 -0.0037H26.8537C22.4537 -0.0037 19.7437 0.6863 16.7037 2.5963L11.1137 6.0963L6.0137 6.8763C1.8737 7.5063 0.0037 9.2863 0.0037 12.4963V15.5263C0.0037 17.7563 1.3137 19.0963 3.4837 19.0963ZM39.1437 12.8663C36.7337 12.8663 34.8037 14.5863 34.5037 16.8963H14.9137C14.6137 14.5863 12.6837 12.8663 10.2837 12.8663C7.8737 12.8663 5.9437 14.5863 5.6437 16.8963H3.6137C2.7237 16.8963 2.2037 16.2963 2.2037 15.2563V12.4963C2.2037 10.5363 3.4437 9.5063 6.3037 9.0663L11.8637 8.2163L17.8837 4.4663C20.5737 2.8063 22.9237 2.1963 26.8537 2.1963H32.2537C33.7137 2.1963 34.5337 2.9363 34.7037 4.3763L35.1537 8.5163H48.2437C49.1237 8.5163 49.6437 9.1363 49.6437 10.1563V15.2563C49.6437 16.2963 49.1237 16.8963 48.2437 16.8963H43.7737C43.4737 14.5863 41.5537 12.8663 39.1437 12.8663ZM18.2637 9.1963C18.2637 11.5263 19.9737 13.0663 22.4937 13.0663H27.9337V14.3263C27.9337 15.0963 28.4737 15.3663 29.1437 14.9263L32.3337 12.8363C32.8437 12.5063 32.8637 11.8763 32.3337 11.5163L29.1637 9.4363C28.4937 8.9863 27.9337 9.2463 27.9337 10.0363V11.2263H22.4937C21.0937 11.2263 20.1837 10.4563 20.1837 9.3063C20.1837 8.0263 21.1137 7.1463 22.5037 7.1463H30.4737C31.0537 7.1463 31.4437 6.7763 31.4437 6.2363C31.4437 5.6863 31.0537 5.2863 30.4637 5.2863H22.5037C19.9737 5.2863 18.2637 6.8763 18.2637 9.1963ZM10.2837 20.0163C8.8837 20.0163 7.8037 18.9363 7.8037 17.5363C7.8037 16.1463 8.8837 15.0663 10.2837 15.0663C11.6737 15.0663 12.7537 16.1463 12.7537 17.5363C12.7537 18.9363 11.6737 20.0163 10.2837 20.0163ZM39.1437 20.0163C37.7437 20.0163 36.6637 18.9363 36.6637 17.5363C36.6637 16.1463 37.7437 15.0663 39.1437 15.0663C40.5337 15.0663 41.6137 16.1463 41.6137 17.5363C41.6137 18.9363 40.5337 20.0163 39.1437 20.0163Z" /></svg>