<svg viewBox="0 0 27.890625 27.890625" xmlns="http://www.w3.org/2000/svg"><path d="M13.9427 27.8864C21.6427 27.8864 27.8927 21.6264 27.8927 13.9464C27.8927 6.2464 21.6427 -0.0036 13.9427 -0.0036C6.2627 -0.0036 0.0027 6.2464 0.0027 13.9464C0.0027 21.6264 6.2627 27.8864 13.9427 27.8864ZM13.6827 18.5964C12.4327 18.5964 11.5927 17.9264 11.2927 16.8264C11.2627 16.6764 11.2227 16.5264 11.2227 16.3764C11.2227 15.9564 11.4827 15.6564 11.9227 15.6564C12.3227 15.6564 12.5627 15.8464 12.6627 16.2264C12.8127 16.8264 13.0927 17.2764 13.6827 17.2764C14.3127 17.2764 14.6427 16.7864 14.6427 16.1364C14.6427 15.3364 14.2027 15.0164 13.5127 14.6464L13.0127 14.3964C12.0627 13.9064 11.2527 13.2364 11.2527 11.8164C11.2527 10.1564 12.3327 9.2564 13.6627 9.2564C14.8027 9.2564 15.6127 9.9364 15.9427 10.9264C15.9927 11.1264 16.0527 11.3164 16.0527 11.5164C16.0527 11.8964 15.7927 12.1664 15.3827 12.1664C15.0027 12.1664 14.6927 11.9764 14.6327 11.6464C14.4927 11.0764 14.2427 10.5964 13.6627 10.5964C13.0827 10.5964 12.8227 11.0864 12.8227 11.6764C12.8227 12.4364 13.2627 12.7964 13.9327 13.1364L14.4327 13.3864C15.4727 13.8864 16.2327 14.5364 16.2327 15.9664C16.2327 17.5364 15.3227 18.5964 13.6827 18.5964ZM17.9127 18.5364C17.5027 18.5364 17.1627 18.3064 17.1627 17.7764C17.1627 17.6064 17.1827 17.4364 17.2227 17.2564L18.8227 10.3664C18.9727 9.6664 19.3827 9.3364 20.0327 9.3364C20.7227 9.3364 21.1527 9.6764 21.3027 10.3664L22.8827 17.2564C22.9127 17.3764 22.9827 17.6864 22.9827 17.7764C22.9827 18.1964 22.6427 18.5364 22.2127 18.5364C21.7927 18.5364 21.5227 18.3464 21.4127 17.8164L21.0927 16.3964H19.0027L18.7127 17.7964C18.6327 18.2564 18.3727 18.5364 17.9127 18.5364ZM7.6827 18.5564C7.1227 18.5564 6.8627 18.2064 6.8627 17.6664V11.0364H5.7427C5.2127 11.0364 4.8827 10.7764 4.8827 10.2364C4.8827 9.7364 5.2127 9.4764 5.7427 9.4764H9.6127C10.1427 9.4764 10.4627 9.7464 10.4627 10.2364C10.4627 10.7764 10.1427 11.0364 9.6127 11.0364H8.4927V17.6664C8.4927 18.2064 8.2027 18.5564 7.6827 18.5564ZM19.2227 15.1664H20.8527L20.0527 11.2564H20.0027Z" /></svg>