<svg viewBox="0 0 30.544813437289534 27.890625" xmlns="http://www.w3.org/2000/svg"><path d="M0.9769 11.3064C-0.0131 11.3064 -0.2531 11.9764 0.2769 12.7464L3.3369 17.0864C3.7869 17.7164 4.4469 17.7064 4.8869 17.0864L7.9269 12.7264C8.4669 11.9764 8.2069 11.3064 7.2469 11.3064H5.2769C6.4669 6.1564 11.0769 2.3264 16.5969 2.3264C23.0269 2.3264 28.2169 7.5164 28.2169 13.9464C28.2169 20.3664 23.0269 25.5664 16.5969 25.5664C12.7169 25.5664 9.2569 23.6564 7.1969 20.7564C6.7669 20.1964 6.1269 20.0164 5.5569 20.3564C5.0069 20.6964 4.8369 21.4664 5.3069 22.0664C7.8369 25.6064 11.9769 27.8864 16.5969 27.8864C24.2969 27.8864 30.5469 21.6464 30.5469 13.9464C30.5469 6.2464 24.2969 -0.0036 16.5969 -0.0036C9.8069 -0.0036 4.1269 4.8664 2.8969 11.3064ZM13.6769 18.0764C13.7569 18.0764 13.8369 18.0564 13.9169 18.0164L15.7969 17.2664V19.6764C15.7969 20.1664 16.1069 20.4664 16.5969 20.4664C17.1069 20.4664 17.3969 20.1664 17.3969 19.6764V16.6264L19.6369 15.7064C19.8669 15.6164 19.9769 15.4764 19.9769 15.2564C19.9769 14.9564 19.7669 14.8064 19.5369 14.8064C19.4569 14.8064 19.3769 14.8364 19.2769 14.8564L17.3969 15.6264V13.9364L19.6369 13.0264C19.8669 12.9364 19.9769 12.7964 19.9769 12.5764C19.9769 12.2664 19.7669 12.1264 19.5369 12.1264C19.4569 12.1264 19.3769 12.1364 19.2769 12.1664L17.3969 12.9364V9.4864H20.7169C21.1669 9.4864 21.4669 9.1864 21.4669 8.7864C21.4669 8.3664 21.1569 8.0964 20.7169 8.0964H12.4869C12.0369 8.0964 11.7369 8.3664 11.7369 8.7864C11.7369 9.2164 12.0469 9.4864 12.4869 9.4864H15.7969V13.5764L13.5469 14.4764C13.3369 14.5864 13.2269 14.7364 13.2269 14.9464C13.2269 15.1864 13.3969 15.3764 13.6769 15.3764C13.7569 15.3764 13.8369 15.3664 13.9169 15.3364L15.7969 14.5864V16.2664L13.5469 17.1764C13.3369 17.2664 13.2269 17.4164 13.2269 17.6264C13.2269 17.8664 13.3969 18.0764 13.6769 18.0764Z" /></svg>