<svg viewBox="0 0 30.544813437289534 27.890625" xmlns="http://www.w3.org/2000/svg"><path d="M0.9769 11.3064C-0.0131 11.3064 -0.2531 11.9764 0.2769 12.7464L3.3369 17.0864C3.7869 17.7164 4.4469 17.7064 4.8869 17.0864L7.9269 12.7264C8.4669 11.9764 8.2069 11.3064 7.2469 11.3064H5.2769C6.4669 6.1564 11.0769 2.3264 16.5969 2.3264C23.0269 2.3264 28.2169 7.5164 28.2169 13.9464C28.2169 20.3664 23.0269 25.5664 16.5969 25.5664C12.7169 25.5664 9.2569 23.6564 7.1969 20.7564C6.7669 20.1964 6.1269 20.0164 5.5569 20.3564C5.0069 20.6964 4.8369 21.4664 5.3069 22.0664C7.8369 25.6064 11.9769 27.8864 16.5969 27.8864C24.2969 27.8864 30.5469 21.6464 30.5469 13.9464C30.5469 6.2464 24.2969 -0.0036 16.5969 -0.0036C9.8069 -0.0036 4.1269 4.8664 2.8969 11.3064ZM14.9869 19.9164H15.1469C16.7769 19.9164 18.5169 19.3064 19.5969 18.2564C20.4869 17.3464 21.1569 16.1164 21.1569 14.9464C21.1569 14.5064 20.9169 14.1764 20.4169 14.1764C19.9469 14.1764 19.7169 14.4464 19.6669 14.9164C19.5369 15.7764 19.1669 16.5264 18.6369 17.0864C17.8469 17.9464 16.6969 18.3864 15.5369 18.3864V14.0164L18.3469 12.8764C18.5669 12.7864 18.6869 12.6364 18.6869 12.4364C18.6869 12.1564 18.4969 11.9764 18.2369 11.9764C18.1569 11.9764 18.0769 12.0064 17.9969 12.0264L15.5369 13.0264V11.3464L18.3469 10.1964C18.5669 10.1164 18.6869 9.9564 18.6869 9.7364C18.6869 9.5564 18.5869 9.2964 18.2569 9.2964C18.1669 9.2964 18.0869 9.3264 17.9969 9.3664L15.5369 10.3664V8.4764C15.5369 7.9964 15.2169 7.6564 14.7369 7.6564C14.2569 7.6564 13.9169 7.9964 13.9169 8.4764V11.0064L12.1969 11.7064C11.9769 11.7864 11.8869 11.9264 11.8869 12.1364C11.8869 12.3964 12.0769 12.5964 12.3169 12.5964C12.3869 12.5964 12.4869 12.5764 12.5769 12.5364L13.9169 11.9864V13.6864L12.1969 14.3864C11.9769 14.4764 11.8869 14.6064 11.8869 14.8164C11.8869 15.0664 12.0769 15.2764 12.3169 15.2764C12.3869 15.2764 12.4969 15.2464 12.5769 15.2164L13.9169 14.6564V18.9064C13.9169 19.5264 14.3569 19.9164 14.9869 19.9164Z" /></svg>