<svg viewBox="0 0 30.529296875 29.17578125" xmlns="http://www.w3.org/2000/svg"><path d="M1.8137 25.919H28.7137V25.009C28.7137 24.459 28.3937 24.129 27.8337 24.129H26.9637V9.379H28.1637C28.9137 9.379 29.3537 8.829 29.3537 8.269C29.3537 7.859 29.1237 7.509 28.6137 7.219L16.9437 0.479C16.3937 0.169 15.8137 -0.001 15.2537 -0.001C14.6937 -0.001 14.1137 0.169 13.5937 0.479L1.9137 7.219C1.3937 7.509 1.1737 7.859 1.1737 8.269C1.1737 8.829 1.6137 9.379 2.3637 9.379H3.5637V24.129H2.7037C2.1437 24.129 1.8137 24.459 1.8137 25.009ZM5.6337 24.129V7.629L14.7237 2.529C14.8937 2.429 15.0837 2.379 15.2537 2.379C15.4337 2.379 15.6237 2.429 15.8037 2.529L24.8937 7.629V24.129ZM13.6537 20.359H13.8237C15.4537 20.359 17.1837 19.739 18.2637 18.689C19.1537 17.799 19.8137 16.559 19.8137 15.379C19.8137 14.959 19.5937 14.619 19.0837 14.619C18.6237 14.619 18.3737 14.899 18.3237 15.349C18.2137 16.219 17.8437 16.969 17.3037 17.539C16.5137 18.389 15.3637 18.829 14.2037 18.829V14.469L17.0237 13.319C17.2437 13.219 17.3637 13.069 17.3637 12.879C17.3637 12.609 17.1737 12.419 16.9137 12.419C16.8337 12.419 16.7437 12.439 16.6637 12.479L14.2037 13.479V11.789L17.0237 10.639C17.2437 10.559 17.3637 10.389 17.3637 10.169C17.3637 10.009 17.2537 9.739 16.9237 9.739C16.8437 9.739 16.7437 9.759 16.6637 9.799L14.2037 10.799V8.929C14.2037 8.439 13.8937 8.109 13.4137 8.109C12.9337 8.109 12.5937 8.439 12.5937 8.929V11.439L10.8737 12.159C10.6537 12.219 10.5537 12.369 10.5537 12.579C10.5537 12.839 10.7437 13.039 10.9937 13.039C11.0637 13.039 11.1537 13.019 11.2537 12.989L12.5937 12.429V14.119L10.8737 14.819C10.6537 14.919 10.5537 15.039 10.5537 15.259C10.5537 15.499 10.7437 15.709 10.9937 15.709C11.0637 15.709 11.1737 15.699 11.2537 15.659L12.5937 15.109V19.359C12.5937 19.959 13.0337 20.359 13.6537 20.359ZM1.0937 29.179H29.4237C30.0237 29.179 30.5337 28.669 30.5337 28.069C30.5337 27.469 30.0237 26.979 29.4237 26.979H1.0937C0.4937 26.979 0.0037 27.469 0.0037 28.069C0.0037 28.669 0.4937 29.179 1.0937 29.179Z" /></svg>