<svg viewBox="0 0 27.890625 27.890625" xmlns="http://www.w3.org/2000/svg"><path d="M13.9427 27.8864C21.6427 27.8864 27.8927 21.6464 27.8927 13.9464C27.8927 6.2464 21.6427 -0.0036 13.9427 -0.0036C6.2527 -0.0036 0.0027 6.2464 0.0027 13.9464C0.0027 21.6464 6.2527 27.8864 13.9427 27.8864ZM13.9427 25.5664C7.5227 25.5664 2.3227 20.3664 2.3227 13.9464C2.3227 7.5164 7.5227 2.3264 13.9427 2.3264C20.3727 2.3264 25.5627 7.5164 25.5627 13.9464C25.5627 20.3664 20.3727 25.5664 13.9427 25.5664ZM7.8027 18.7164H20.0327C21.1527 18.7164 21.9527 17.9364 21.9527 16.8164V9.7764C21.9527 8.6564 21.1527 7.8564 20.0327 7.8564H7.8027C6.6827 7.8564 5.8927 8.6564 5.8927 9.7764V16.8164C5.8927 17.9364 6.6827 18.7164 7.8027 18.7164ZM7.9727 17.3364C7.6027 17.3364 7.3427 17.0764 7.3427 16.6964V9.8964C7.3427 9.5064 7.6027 9.2464 7.9727 9.2464H19.8827C20.2527 9.2464 20.5127 9.5064 20.5127 9.8964V16.6964C20.5127 17.0764 20.2527 17.3364 19.8827 17.3364ZM10.3927 21.4964H17.5027C17.8827 21.4964 18.1927 21.1864 18.1927 20.8064C18.1927 20.4264 17.8827 20.1064 17.5027 20.1064H10.3927C10.0127 20.1064 9.6927 20.4264 9.6927 20.8064C9.6927 21.1864 10.0127 21.4964 10.3927 21.4964Z" /></svg>