<svg viewBox="0 0 34.1796875 29.816671399905378" xmlns="http://www.w3.org/2000/svg"><path d="M29.5337 28.1775C29.9437 28.5875 30.6137 28.5875 31.0237 28.1775C31.4137 27.7675 31.4337 27.0975 31.0237 26.6875L4.6437 0.3175C4.2537 -0.0925 3.5637 -0.1125 3.1437 0.3175C2.7437 0.7075 2.7437 1.4075 3.1437 1.8075ZM30.6637 2.4875H9.5337L11.7337 4.6875H30.6237C31.4837 4.6875 31.9737 5.1675 31.9737 6.0275V21.6375C31.9737 22.4875 31.4837 22.9775 30.6237 22.9775H30.0237L31.9537 24.9075H32.0437C33.4137 24.4675 34.1837 23.3475 34.1837 21.6675V5.9875C34.1837 3.7975 32.8537 2.4875 30.6637 2.4875ZM3.5137 25.1775H23.8337L21.6337 22.9775H3.5537C2.6937 22.9775 2.2037 22.4875 2.2037 21.6375V6.0275C2.2037 5.3075 2.5437 4.8775 3.1737 4.7575H3.3937L1.7137 3.0475H1.6237C0.5737 3.5375 0.0037 4.5475 0.0037 5.9875V21.6675C0.0037 23.8675 1.3237 25.1775 3.5137 25.1775ZM10.2137 29.8175H23.9637C24.5637 29.8175 25.0737 29.3275 25.0737 28.7075C25.0737 28.0975 24.5637 27.5975 23.9637 27.5975H10.2137C9.6137 27.5975 9.1037 28.0975 9.1037 28.7075C9.1037 29.3275 9.6137 29.8175 10.2137 29.8175Z" /></svg>