<svg viewBox="0 0 27.890625 27.890625" xmlns="http://www.w3.org/2000/svg"><path d="M13.9427 27.8864C21.6427 27.8864 27.8927 21.6464 27.8927 13.9464C27.8927 6.2464 21.6427 -0.0036 13.9427 -0.0036C6.2527 -0.0036 0.0027 6.2464 0.0027 13.9464C0.0027 21.6464 6.2527 27.8864 13.9427 27.8864ZM13.9427 25.5664C7.5227 25.5664 2.3227 20.3664 2.3227 13.9464C2.3227 7.5164 7.5227 2.3264 13.9427 2.3264C20.3727 2.3264 25.5627 7.5164 25.5627 13.9464C25.5627 20.3664 20.3727 25.5664 13.9427 25.5664ZM13.9427 20.3464C14.7227 20.3464 15.2127 19.9364 15.5627 19.0464L19.3727 9.0464C19.4527 8.8364 19.4827 8.6864 19.4827 8.4764C19.4827 7.8564 19.0127 7.4364 18.3727 7.4364C17.7727 7.4364 17.4427 7.7264 17.2127 8.3664L13.9727 17.7364H13.8727L10.6327 8.3664C10.4227 7.7264 10.0727 7.4364 9.4727 7.4364C8.8327 7.4364 8.3627 7.8764 8.3627 8.4764C8.3627 8.6864 8.4127 8.8364 8.4727 9.0464L12.3227 19.0564C12.6727 19.9864 13.1127 20.3464 13.9427 20.3464Z" /></svg>