<svg viewBox="0 0 25.169921875 25.169921875" xmlns="http://www.w3.org/2000/svg"><path d="M4.2937 25.1692H20.8737C23.7437 25.1692 25.1737 23.7592 25.1737 20.9492V4.2392C25.1737 1.4192 23.7437 -0.0008 20.8737 -0.0008H4.2937C1.4337 -0.0008 0.0037 1.4192 0.0037 4.2392V20.9492C0.0037 23.7592 1.4337 25.1692 4.2937 25.1692ZM4.3237 22.9692C2.9537 22.9692 2.2037 22.2392 2.2037 20.8192V4.3592C2.2037 2.9392 2.9537 2.1992 4.3237 2.1992H20.8537C22.2037 2.1992 22.9737 2.9392 22.9737 4.3592V20.8192C22.9737 22.2392 22.2037 22.9692 20.8537 22.9692ZM12.6037 18.9792C13.3837 18.9792 13.8737 18.5692 14.2237 17.6792L18.0437 7.6792C18.1137 7.4692 18.1437 7.3192 18.1437 7.1092C18.1437 6.4892 17.6737 6.0692 17.0537 6.0692C16.4437 6.0692 16.1037 6.3592 15.8837 6.9992L12.6337 16.3692H12.5337L9.2937 6.9992C9.0737 6.3592 8.7337 6.0692 8.1337 6.0692C7.5037 6.0692 7.0237 6.5092 7.0237 7.1092C7.0237 7.3192 7.0637 7.4692 7.1337 7.6792L10.9737 17.6892C11.3337 18.6192 11.7737 18.9792 12.6037 18.9792Z" /></svg>