<svg viewBox="0 0 30.1328125 28.287109375" xmlns="http://www.w3.org/2000/svg"><path d="M8.4037 28.2828C9.0737 28.2828 9.5437 27.9328 10.3737 27.1928L15.0937 22.9928H23.8737C27.9437 22.9928 30.1337 20.7428 30.1337 16.7328V6.2628C30.1337 2.2528 27.9437 0.0028 23.8737 0.0028H6.2637C2.1837 0.0028 0.0037 2.2428 0.0037 6.2628V16.7328C0.0037 20.7528 2.1837 22.9928 6.2637 22.9928H6.9137V26.5528C6.9137 27.6028 7.4537 28.2828 8.4037 28.2828ZM8.9737 25.7828V21.8228C8.9737 21.0828 8.6837 20.7928 7.9437 20.7928H6.2637C3.5037 20.7928 2.2037 19.3828 2.2037 16.7228V6.2628C2.2037 3.5928 3.5037 2.2028 6.2637 2.2028H23.8737C26.6237 2.2028 27.9337 3.5928 27.9337 6.2628V16.7228C27.9337 19.3828 26.6237 20.7928 23.8737 20.7928H15.0137C14.2437 20.7928 13.8637 20.9028 13.3437 21.4328ZM9.3537 17.0228H16.5837C17.9537 17.0228 18.7537 16.2328 18.7537 14.8728V8.1528C18.7537 6.7928 18.0237 6.0128 16.6537 6.0128H9.3537C8.0537 6.0128 7.1737 6.7928 7.1737 8.1528V14.8728C7.1737 16.2328 7.9937 17.0228 9.3537 17.0228ZM19.5237 13.3828L22.1937 15.6428C22.4337 15.8428 22.6937 15.9828 22.9437 15.9828C23.4637 15.9828 23.8137 15.6028 23.8137 15.0428V7.9828C23.8137 7.4228 23.4637 7.0428 22.9437 7.0428C22.6937 7.0428 22.4237 7.1728 22.1937 7.3728L19.5237 9.6528Z" /></svg>