<svg viewBox="0 0 27.890625 27.890625" xmlns="http://www.w3.org/2000/svg"><path d="M13.9427 27.8864C21.6427 27.8864 27.8927 21.6264 27.8927 13.9464C27.8927 6.2464 21.6427 -0.0036 13.9427 -0.0036C6.2627 -0.0036 0.0027 6.2464 0.0027 13.9464C0.0027 21.6264 6.2627 27.8864 13.9427 27.8864ZM9.5127 6.9364H11.3727C11.9927 6.9364 12.4027 7.3464 12.4027 7.9664C12.4027 8.5564 11.9927 8.9864 11.3727 8.9864H9.8027C9.1627 8.9864 8.8727 9.2864 8.8727 9.9264V11.4564C8.8727 12.0864 8.4727 12.4964 7.8427 12.4964C7.2327 12.4964 6.8227 12.0764 6.8227 11.4564V9.5864C6.8227 7.8464 7.7427 6.9364 9.5127 6.9364ZM18.1727 6.9364C19.9427 6.9364 20.8627 7.8464 20.8627 9.5864V11.4564C20.8627 12.0764 20.4527 12.4964 19.8427 12.4964C19.2127 12.4964 18.8127 12.0864 18.8127 11.4564V9.9264C18.8127 9.2864 18.5227 8.9864 17.8827 8.9864H16.3127C15.6927 8.9864 15.2827 8.5564 15.2827 7.9664C15.2827 7.3464 15.6927 6.9364 16.3127 6.9364ZM9.5127 20.9764C7.7427 20.9764 6.8227 20.0664 6.8227 18.3364V16.4564C6.8227 15.8364 7.2327 15.4264 7.8427 15.4264C8.4727 15.4264 8.8727 15.8164 8.8727 16.4564V17.9764C8.8727 18.6364 9.1627 18.9264 9.8027 18.9264H11.3727C11.9927 18.9264 12.4027 19.3564 12.4027 19.9464C12.4027 20.5664 11.9927 20.9764 11.3727 20.9764ZM18.1727 20.9764H16.3127C15.6927 20.9764 15.2827 20.5664 15.2827 19.9464C15.2827 19.3564 15.6927 18.9264 16.3127 18.9264H17.8827C18.5227 18.9264 18.8127 18.6364 18.8127 17.9764V16.4564C18.8127 15.8164 19.2127 15.4264 19.8427 15.4264C20.4527 15.4264 20.8627 15.8364 20.8627 16.4564V18.3364C20.8627 20.0664 19.9427 20.9764 18.1727 20.9764Z" /></svg>