<svg viewBox="0 0 32.23828125 25.169921875" xmlns="http://www.w3.org/2000/svg"><path d="M1.0937 8.6992C1.8137 8.6992 2.2037 8.2992 2.2037 7.5892V4.3592C2.2037 2.9392 2.9537 2.1992 4.3237 2.1992H7.6337C8.3537 2.1992 8.7537 1.8092 8.7537 1.1092C8.7537 0.3992 8.3537 -0.0008 7.6337 -0.0008H4.2937C1.4337 -0.0008 0.0037 1.4192 0.0037 4.2392V7.5892C0.0037 8.2992 0.3937 8.6992 1.0937 8.6992ZM31.1437 8.6992C31.8537 8.6992 32.2337 8.2992 32.2337 7.5892V4.2392C32.2337 1.4192 30.8137 -0.0008 27.9437 -0.0008H24.6137C23.8837 -0.0008 23.4837 0.3992 23.4837 1.1092C23.4837 1.8092 23.8837 2.1992 24.6137 2.1992H27.9137C29.2837 2.1992 30.0337 2.9392 30.0337 4.3592V7.5892C30.0337 8.2992 30.4337 8.6992 31.1437 8.6992ZM1.0937 16.4792C0.3837 16.4792 0.0037 16.8892 0.0037 17.5992V20.9492C0.0037 23.7592 1.4337 25.1692 4.2937 25.1692H7.6337C8.3537 25.1692 8.7537 24.7892 8.7537 24.0792C8.7537 23.3692 8.3537 22.9692 7.6337 22.9692H4.3237C2.9537 22.9692 2.2037 22.2392 2.2037 20.8192V17.5992C2.2037 16.8892 1.8037 16.4792 1.0937 16.4792ZM31.1437 16.4792C30.4237 16.4792 30.0337 16.8892 30.0337 17.5992V20.8192C30.0337 22.2392 29.2837 22.9692 27.9137 22.9692H24.6137C23.8837 22.9692 23.4837 23.3692 23.4837 24.0792C23.4837 24.7892 23.8837 25.1692 24.6137 25.1692H27.9437C30.8137 25.1692 32.2337 23.7592 32.2337 20.9492V17.5992C32.2337 16.8892 31.8437 16.4792 31.1437 16.4792Z" /></svg>