<svg viewBox="0 0 27.890625 27.890625" xmlns="http://www.w3.org/2000/svg"><path d="M13.9427 27.8864C21.6427 27.8864 27.8927 21.6264 27.8927 13.9464C27.8927 6.2464 21.6427 -0.0036 13.9427 -0.0036C6.2627 -0.0036 0.0027 6.2464 0.0027 13.9464C0.0027 21.6264 6.2627 27.8864 13.9427 27.8864ZM20.3327 21.2164L6.6727 7.5764C6.4427 7.3464 6.4427 6.9164 6.6727 6.6764C6.9427 6.4264 7.3427 6.4264 7.5927 6.6764L21.2327 20.3164C21.4927 20.5664 21.4927 20.9464 21.2327 21.2164C20.9827 21.4464 20.5627 21.4464 20.3327 21.2164ZM13.9427 8.4064C19.1227 8.4064 23.4727 8.9564 23.4727 13.8864C23.4727 16.0364 22.5027 17.8264 21.0027 18.6664L19.8627 17.5364C21.1827 17.1864 21.9427 15.8964 21.9427 13.8864C21.9427 10.3064 18.9627 9.9564 13.9427 9.9564C13.3827 9.9564 12.8227 9.9664 12.3027 9.9764L10.8527 8.5164C11.8127 8.4364 12.8627 8.4064 13.9427 8.4064ZM8.8827 19.2264C6.3127 19.2264 4.4127 16.8664 4.4127 13.8864C4.4127 11.5164 5.4327 10.1464 7.0727 9.3764L8.2027 10.5264C6.7427 11.0464 5.9427 12.0264 5.9427 13.8864C5.9427 16.3064 7.0527 17.6764 8.8827 17.6764C10.5727 17.6764 11.4827 16.2664 12.8227 15.8164C13.0327 15.7664 13.2227 15.7464 13.4427 15.7364L15.5427 17.8664C14.9127 17.4964 14.4227 17.0864 13.9427 17.0864C12.8127 17.0864 11.5027 19.2264 8.8827 19.2264Z" /></svg>