<svg viewBox="0 0 27.890625 27.890625" xmlns="http://www.w3.org/2000/svg"><path d="M13.9427 27.8864C21.6427 27.8864 27.8927 21.6464 27.8927 13.9464C27.8927 6.2464 21.6427 -0.0036 13.9427 -0.0036C6.2527 -0.0036 0.0027 6.2464 0.0027 13.9464C0.0027 21.6464 6.2527 27.8864 13.9427 27.8864ZM13.9427 25.5664C7.5227 25.5664 2.3227 20.3664 2.3227 13.9464C2.3227 7.5164 7.5227 2.3264 13.9427 2.3264C20.3727 2.3264 25.5627 7.5164 25.5627 13.9464C25.5627 20.3664 20.3727 25.5664 13.9427 25.5664ZM16.3627 10.3064C17.0127 9.1364 17.2027 8.0664 16.8027 7.1864C15.9127 6.8264 14.9527 6.6064 13.9427 6.6064C11.8627 6.6064 9.9627 7.5064 8.6227 8.9164C11.2127 7.9464 14.5927 8.9364 16.3627 10.3064ZM15.0427 17.9364C19.2527 14.6264 20.2627 11.0164 20.0527 9.9264C19.4927 9.0764 18.7727 8.3664 17.9227 7.8164C18.1727 9.9264 16.4227 12.4864 14.1127 14.5764C14.1527 15.6964 14.5027 16.9264 15.0427 17.9364ZM13.4527 13.8064C14.4127 12.9364 15.2327 12.0464 15.8327 11.1664C13.8327 9.6064 9.6627 8.5964 7.3527 10.7164C6.9427 11.5364 6.6827 12.4564 6.6127 13.3964C8.3427 12.2464 11.1827 12.8764 13.4527 13.8064ZM17.6227 20.2864C19.7827 19.0064 21.2727 16.6264 21.2727 13.9464C21.2727 13.0964 21.1127 12.2764 20.8527 11.5264C20.3427 13.4664 18.8427 16.2664 15.5627 18.7964C16.1627 19.6464 16.8827 20.2164 17.6227 20.2864ZM8.9527 13.7364C7.9727 13.7264 7.1327 13.9564 6.6327 14.6064C6.8927 17.5664 8.9727 20.0564 11.7427 20.9364C10.4027 19.3564 9.0227 16.6564 8.9527 13.7364ZM13.1127 14.7664C12.0827 14.3164 10.9827 13.9764 9.9627 13.8364C10.1127 17.6664 12.5927 20.8764 13.7827 21.2864C14.7827 21.2864 15.5727 21.1364 16.3227 20.8764C14.5427 19.8064 13.2327 16.9964 13.1127 14.7664Z" /></svg>