<svg viewBox="0 0 27.890625 27.890625" xmlns="http://www.w3.org/2000/svg"><path d="M13.9427 27.8927C21.6427 27.8927 27.8927 21.6427 27.8927 13.9427C27.8927 6.2627 21.6427 0.0027 13.9427 0.0027C6.2627 0.0027 0.0027 6.2627 0.0027 13.9427C0.0027 21.6427 6.2627 27.8927 13.9427 27.8927ZM13.9627 5.2327C18.7727 5.2327 22.6727 9.1327 22.6727 13.9427C22.6727 18.7627 18.7727 22.6527 13.9627 22.6527C9.1427 22.6527 5.2527 18.7627 5.2527 13.9427C5.2527 9.1327 9.1427 5.2327 13.9627 5.2327ZM8.7527 9.8127H19.2127C17.9927 8.2727 16.0927 7.2727 13.9727 7.2727C11.8527 7.2727 9.9527 8.2727 8.7527 9.8127ZM7.3027 13.9427C7.3027 17.6327 10.2827 20.6127 13.9727 20.6127C17.6627 20.6127 20.6427 17.6327 20.6427 13.9427C20.6427 13.1527 20.5127 12.4027 20.2627 11.6927H7.6827C7.4327 12.4027 7.3027 13.1527 7.3027 13.9427Z" /></svg>