<svg viewBox="0 0 29.134765625 29.134765625" xmlns="http://www.w3.org/2000/svg"><path d="M15.7627 1.1863C15.7627 0.5463 15.2127 -0.0037 14.5627 -0.0037C13.9227 -0.0037 13.3727 0.5463 13.3727 1.1863V5.3963C13.3727 6.0563 13.9227 6.6063 14.5627 6.6063C15.2127 6.6063 15.7627 6.0563 15.7627 5.3963ZM20.1627 7.2863C19.7027 7.7363 19.7027 8.5063 20.1627 8.9663C20.6127 9.4163 21.3927 9.4163 21.8627 8.9663L24.8327 5.9863C25.2927 5.5263 25.2927 4.7563 24.8327 4.2963C24.3727 3.8463 23.6127 3.8463 23.1627 4.2963ZM7.2727 8.9663C7.7227 9.4163 8.4927 9.4163 8.9527 8.9663C9.4027 8.5063 9.4027 7.7363 8.9527 7.2863L5.9927 4.3063C5.5327 3.8563 4.7727 3.8463 4.3027 4.2963C3.8527 4.7463 3.8527 5.5063 4.3027 5.9763ZM27.7227 27.8463C28.3027 27.2463 28.3027 26.3163 27.7227 25.7463L14.7427 12.6963C14.1627 12.1263 13.1827 12.1263 12.6327 12.6963C12.0627 13.3063 12.0727 14.2463 12.6327 14.8163L25.6227 27.8463C26.2127 28.4363 27.1927 28.4363 27.7227 27.8463ZM1.1927 13.3663C0.5427 13.3663 0.0027 13.9163 0.0027 14.5563C0.0027 15.2063 0.5427 15.7463 1.1927 15.7463H5.4327C6.0727 15.7463 6.6127 15.2063 6.6127 14.5563C6.6127 13.9163 6.0727 13.3663 5.4327 13.3663ZM27.9327 15.7463C28.5927 15.7463 29.1327 15.2063 29.1327 14.5563C29.1327 13.9163 28.5927 13.3663 27.9327 13.3663H23.7227C23.0827 13.3663 22.5327 13.9163 22.5327 14.5563C22.5327 15.2063 23.0827 15.7463 23.7227 15.7463ZM26.8627 27.0163C26.6627 27.2163 26.3727 27.1763 26.1227 26.9363L17.6827 18.4663L18.3627 17.7963L26.7927 26.2663C27.0327 26.4963 27.0927 26.7863 26.8627 27.0163ZM4.2927 23.1363C3.8427 23.5863 3.8427 24.3663 4.2827 24.8163C4.7327 25.2663 5.5127 25.2763 5.9727 24.8263L8.9527 21.8463C9.4027 21.3963 9.4027 20.6263 8.9527 20.1763C8.5127 19.7163 7.7227 19.7163 7.2727 20.1763ZM15.7627 23.7363C15.7627 23.0763 15.2127 22.5263 14.5627 22.5263C13.9227 22.5263 13.3727 23.0763 13.3727 23.7363V27.9463C13.3727 28.5863 13.9227 29.1363 14.5627 29.1363C15.2127 29.1363 15.7627 28.5863 15.7627 27.9463Z" /></svg>