<svg viewBox="0 0 26.81227059232334 26.952406978769776" xmlns="http://www.w3.org/2000/svg"><path d="M19.1265 9.8986C19.3165 9.8986 19.4665 9.7586 19.5065 9.5586C20.1065 6.4786 20.5265 5.8086 23.7065 5.3486C23.9265 5.3186 24.0665 5.1586 24.0665 4.9586C24.0665 4.7486 23.9265 4.5786 23.7065 4.5486C20.5265 4.0886 19.9765 3.3486 19.5065 0.3686C19.4665 0.1386 19.3165 -0.0014 19.1265 -0.0014C18.9065 -0.0014 18.7565 0.1386 18.7165 0.3586C18.1165 3.4086 17.7065 4.0886 14.5365 4.5486C14.2965 4.5786 14.1665 4.7486 14.1665 4.9586C14.1665 5.1586 14.2965 5.3086 14.5365 5.3486C17.7065 5.8086 18.2365 6.4786 18.7165 9.5386C18.7465 9.7586 18.8765 9.8986 19.1265 9.8986ZM24.1965 26.4986C24.7965 27.1086 25.7965 27.0986 26.3765 26.4986C26.9565 25.8786 26.9565 24.9486 26.3565 24.3186L8.8865 6.8486C8.2865 6.2386 7.2865 6.2386 6.7165 6.8486C6.1265 7.4686 6.1265 8.3986 6.7265 9.0086ZM12.3565 13.1686L7.6565 8.4486C7.4665 8.2586 7.4665 7.9686 7.6565 7.7786C7.8365 7.5986 8.1365 7.5886 8.3265 7.7786L13.0465 12.5086ZM3.8865 21.1086C4.0865 21.1086 4.2265 20.9686 4.2565 20.7786C4.6665 18.2086 4.6665 18.0186 7.4465 17.5786C7.6465 17.5586 7.7765 17.4286 7.7765 17.2286C7.7765 17.0186 7.6465 16.8986 7.4465 16.8686C4.6665 16.4286 4.6665 16.2386 4.2565 13.6686C4.2265 13.4786 4.0865 13.3486 3.8865 13.3486C3.6865 13.3486 3.5565 13.4786 3.5265 13.6686C3.1165 16.2386 3.1165 16.4286 0.3265 16.8686C0.1365 16.8986 -0.0035 17.0186 -0.0035 17.2286C-0.0035 17.4286 0.1365 17.5586 0.3265 17.5786C3.1165 18.0186 3.1165 18.2086 3.5265 20.7786C3.5565 20.9686 3.6865 21.1086 3.8865 21.1086ZM8.4465 24.9686C8.6165 24.9686 8.7265 24.8386 8.7665 24.6786C9.0065 23.1586 8.9365 23.0886 10.6765 22.7786C10.8465 22.7386 10.9465 22.6086 10.9465 22.4586C10.9465 22.3086 10.8465 22.1786 10.6765 22.1486C8.9565 21.8386 9.0365 21.7886 8.7665 20.2386C8.7265 20.0886 8.5965 19.9586 8.4465 19.9586C8.2865 19.9586 8.1765 20.0886 8.1365 20.2586C7.8065 21.7886 7.9465 21.8786 6.2365 22.1486C6.0565 22.1786 5.9465 22.2986 5.9465 22.4586C5.9465 22.6086 6.0565 22.7386 6.2165 22.7786C7.9465 23.0886 7.8065 23.1586 8.1365 24.6786C8.1765 24.8386 8.2865 24.9686 8.4465 24.9686Z" /></svg>