<svg viewBox="0 0 14.998046875 32.388671875" xmlns="http://www.w3.org/2000/svg"><path d="M3.7737 3.5123H11.2337C11.9337 3.5123 12.4537 3.0223 12.4537 2.2923V1.2123C12.4537 0.5023 11.9337 0.0023 11.2337 0.0023H3.7737C3.0537 0.0023 2.5537 0.5023 2.5537 1.2123V2.2923C2.5537 3.0223 3.0537 3.5123 3.7737 3.5123ZM0.0137 10.1423H14.9837C14.9337 8.5823 14.6737 7.4523 13.7637 6.2523L13.4637 5.8223C13.0937 5.3323 12.4837 4.9723 11.8637 4.9723H3.1137C2.5037 4.9723 1.9037 5.3323 1.5337 5.8223L1.2137 6.2523C0.3137 7.4523 0.0637 8.5823 0.0137 10.1423ZM0.0037 11.9323V25.8123H14.9937V11.9323ZM7.4937 23.5823C5.5137 23.5823 4.2137 22.3223 4.2137 20.4123C4.2137 19.4323 4.6637 18.6323 4.8837 18.1123C5.4037 17.0123 6.2637 15.5623 6.9837 14.4523C7.1337 14.2323 7.3137 14.1123 7.4937 14.1123C7.6837 14.1123 7.8637 14.2323 7.9937 14.4523C8.7237 15.5623 9.6137 17.0123 10.1037 18.1123C10.3537 18.6323 10.7837 19.4323 10.7837 20.4123C10.7837 22.3223 9.4837 23.5823 7.4937 23.5823ZM0.0037 27.6023V27.8323C0.0037 30.7923 1.4637 32.3923 4.1437 32.3923H10.8537C13.5237 32.3923 14.9937 30.7923 14.9937 27.8323V27.6023Z" /></svg>