<svg viewBox="0 0 27.2138671875 28.560546875" xmlns="http://www.w3.org/2000/svg"><path d="M10.2837 0.0045C9.6637 0.0045 9.2037 0.4945 9.2037 1.1045V5.4245L11.4037 7.6245V1.1045C11.4037 0.4945 10.9237 0.0045 10.2837 0.0045ZM25.4137 27.2745C25.8237 27.6845 26.5137 27.6845 26.9037 27.2745C27.3137 26.8545 27.3137 26.1945 26.9037 25.7845L2.3937 1.2545C1.9837 0.8445 1.3037 0.8445 0.8937 1.2545C0.4737 1.6545 0.4737 2.3545 0.8937 2.7445ZM19.4937 3.0245C18.8637 3.0245 18.4037 3.5245 18.4037 4.1245V14.6245L20.6037 16.8345V4.1245C20.6037 3.5245 20.1137 3.0245 19.4937 3.0245ZM14.9037 7.1645C14.2637 7.1645 13.7937 7.6545 13.7937 8.2745V10.0345L15.9937 12.2345V8.2745C15.9937 7.6545 15.5137 7.1645 14.9037 7.1645ZM5.6837 23.0545C6.3137 23.0545 6.8037 22.5545 6.8037 21.9445V11.3045L4.6037 9.1045V21.9445C4.6037 22.5545 5.0737 23.0545 5.6837 23.0545ZM24.0937 9.9145C23.4637 9.9145 22.9937 10.4145 22.9937 11.0145V17.5445C22.9937 18.1445 23.4637 18.6345 24.0937 18.6345C24.7237 18.6345 25.1937 18.1445 25.1937 17.5445V11.0145C25.1937 10.4145 24.7237 9.9145 24.0937 9.9145ZM1.0937 17.4545C1.7237 17.4545 2.2037 16.9645 2.2037 16.3545V12.2045C2.2037 11.5945 1.7237 11.0845 1.0937 11.0845C0.4637 11.0845 0.0037 11.5945 0.0037 12.2045V16.3545C0.0037 16.9645 0.4637 17.4545 1.0937 17.4545ZM10.2837 28.5645C10.9237 28.5645 11.4037 28.0645 11.4037 27.4545V15.9045L9.2037 13.7145V27.4545C9.2037 28.0645 9.6637 28.5645 10.2837 28.5645ZM14.9037 22.5745C15.5337 22.5745 15.9937 22.0845 15.9937 21.4645V20.4945L13.7937 18.2945V21.4645C13.7937 22.0845 14.2737 22.5745 14.9037 22.5745Z" /></svg>