<svg viewBox="0 0 27.890625 27.890625" xmlns="http://www.w3.org/2000/svg"><path d="M13.9427 27.8927C21.6427 27.8927 27.8927 21.6427 27.8927 13.9427C27.8927 6.2627 21.6427 0.0027 13.9427 0.0027C6.2627 0.0027 0.0027 6.2627 0.0027 13.9427C0.0027 21.6427 6.2627 27.8927 13.9427 27.8927ZM8.0827 13.9427C8.0827 10.7227 9.0327 7.6027 10.7627 5.1027C11.0927 4.6027 11.6727 4.5027 12.1227 4.8227C12.5827 5.1527 12.6427 5.7327 12.3227 6.2027C10.8127 8.3227 9.9827 11.0727 9.9827 13.9427C9.9827 16.7727 10.8327 19.5527 12.3227 21.6827C12.6427 22.1527 12.5827 22.7227 12.1227 23.0627C11.6927 23.3627 11.1027 23.2527 10.7627 22.7727C9.0327 20.3127 8.0827 17.1727 8.0827 13.9427ZM12.4827 13.9427C12.4827 11.5527 13.1827 9.2727 14.4327 7.5627C14.7827 7.0927 15.3427 6.9827 15.7927 7.3027C16.2127 7.6027 16.3227 8.2027 15.9827 8.6927C14.9827 10.0727 14.4127 11.9727 14.4127 13.9427C14.4127 15.9027 14.9827 17.8027 15.9827 19.1827C16.3227 19.6727 16.2127 20.2727 15.7927 20.5727C15.3427 20.9027 14.7827 20.7827 14.4327 20.3327C13.1827 18.5627 12.4827 16.2827 12.4827 13.9427ZM16.9027 13.9427C16.9027 12.5127 17.3327 11.0427 18.0927 9.9927C18.4027 9.5727 18.9927 9.4427 19.4327 9.7327C19.9227 10.0727 20.0127 10.6927 19.6327 11.1927C19.1227 11.8627 18.8227 12.8827 18.8227 13.9427C18.8227 14.9727 19.1227 15.9827 19.6327 16.6827C20.0027 17.1827 19.9027 17.7727 19.4327 18.1327C18.9927 18.4327 18.3927 18.3027 18.0927 17.8727C17.3327 16.8827 16.9027 15.4227 16.9027 13.9427Z" /></svg>