<svg viewBox="0 0 34.86328125 29.9140625" xmlns="http://www.w3.org/2000/svg"><path d="M10.2837 28.5645C10.9237 28.5645 11.4037 28.0645 11.4037 27.4545V1.1045C11.4037 0.4945 10.9237 0.0045 10.2837 0.0045C9.6637 0.0045 9.2037 0.4945 9.2037 1.1045V27.4545C9.2037 28.0645 9.6637 28.5645 10.2837 28.5645ZM18.4037 24.1945C18.9737 23.4845 19.7237 22.8445 20.6037 22.3145V4.1245C20.6037 3.5245 20.1137 3.0245 19.4937 3.0245C18.8637 3.0245 18.4037 3.5245 18.4037 4.1245ZM5.6837 23.0545C6.3137 23.0545 6.8037 22.5545 6.8037 21.9445V6.6145C6.8037 6.0045 6.3137 5.4945 5.6837 5.4945C5.0737 5.4945 4.6037 6.0045 4.6037 6.6145V21.9445C4.6037 22.5545 5.0737 23.0545 5.6837 23.0545ZM14.9037 21.3845C15.5137 21.3845 15.9937 20.9045 15.9937 20.2845V8.2745C15.9937 7.6545 15.5137 7.1645 14.9037 7.1645C14.2637 7.1645 13.7937 7.6545 13.7937 8.2745V20.2845C13.7937 20.9045 14.2637 21.3845 14.9037 21.3845ZM1.0937 17.4545C1.7237 17.4545 2.2037 16.9645 2.2037 16.3545V12.2045C2.2037 11.5945 1.7237 11.0845 1.0937 11.0845C0.4637 11.0845 0.0037 11.5945 0.0037 12.2045V16.3545C0.0037 16.9645 0.4637 17.4545 1.0937 17.4545ZM26.6037 20.8045C28.7137 20.8045 30.5337 18.9345 30.5337 16.4745C30.5337 14.0545 28.6937 12.2645 26.6037 12.2645C24.5137 12.2645 22.6637 14.0845 22.6637 16.5045C22.6637 18.9345 24.5037 20.8045 26.6037 20.8045ZM20.0037 29.9145H33.1937C34.2337 29.9145 34.8637 29.4245 34.8637 28.6145C34.8637 26.0745 31.7037 22.5745 26.6037 22.5745C21.4937 22.5745 18.3337 26.0745 18.3337 28.6145C18.3337 29.4245 18.9637 29.9145 20.0037 29.9145Z" /></svg>