<svg viewBox="0 0 27.890625 27.890625" xmlns="http://www.w3.org/2000/svg"><path d="M13.9427 27.8927C21.6427 27.8927 27.8927 21.6427 27.8927 13.9427C27.8927 6.2627 21.6427 0.0027 13.9427 0.0027C6.2627 0.0027 0.0027 6.2627 0.0027 13.9427C0.0027 21.6427 6.2627 27.8927 13.9427 27.8927ZM13.9327 8.0027C17.1427 8.0027 20.2727 8.9427 22.7627 10.6627C23.2527 10.9927 23.3827 11.5827 23.0527 12.0327C22.7227 12.4827 22.1327 12.5527 21.6727 12.2327C19.5327 10.7227 16.7927 9.9027 13.9327 9.9027C11.1027 9.9027 8.3127 10.7327 6.1927 12.2327C5.7127 12.5527 5.1427 12.4827 4.8127 12.0327C4.5027 11.5927 4.6227 11.0027 5.0827 10.6627C7.5627 8.9427 10.6927 8.0027 13.9327 8.0027ZM13.9327 12.3827C16.3227 12.3827 18.5927 13.0827 20.3127 14.3527C20.7627 14.6927 20.8927 15.2627 20.5627 15.6927C20.2727 16.1227 19.6627 16.2427 19.1827 15.9027C17.7827 14.9027 15.8827 14.3127 13.9327 14.3127C11.9727 14.3127 10.0727 14.9027 8.6827 15.9027C8.1927 16.2427 7.5927 16.1227 7.2827 15.6927C6.9727 15.2627 7.0827 14.6927 7.5427 14.3527C9.2927 13.0827 11.5827 12.3827 13.9327 12.3827ZM13.9327 16.8027C15.3627 16.8027 16.8127 17.2427 17.8727 17.9927C18.3027 18.3027 18.4127 18.8927 18.1327 19.3327C17.8027 19.8227 17.1727 19.9227 16.6627 19.5527C16.0127 19.0427 14.9827 18.7327 13.9327 18.7327C12.9027 18.7327 11.8827 19.0427 11.1827 19.5527C10.6827 19.9027 10.0927 19.8127 9.7527 19.3327C9.4427 18.8927 9.5527 18.2927 10.0127 17.9927C10.9827 17.2427 12.4527 16.8027 13.9327 16.8027Z" /></svg>