<svg viewBox="0 0 32.23828125 25.169921875" xmlns="http://www.w3.org/2000/svg"><path d="M4.2937 25.1692H27.9437C30.8137 25.1692 32.2337 23.7592 32.2337 20.9492V4.2392C32.2337 1.4192 30.8137 -0.0008 27.9437 -0.0008H4.2937C1.4337 -0.0008 0.0037 1.4192 0.0037 4.2392V20.9492C0.0037 23.7592 1.4337 25.1692 4.2937 25.1692ZM4.3237 22.9692C2.9537 22.9692 2.2037 22.2392 2.2037 20.8192V4.3592C2.2037 2.9392 2.9537 2.1992 4.3237 2.1992H27.9137C29.2737 2.1992 30.0337 2.9392 30.0337 4.3592V12.0192H26.8337C26.2737 12.0192 25.9937 12.2892 25.8237 12.7592L24.8137 15.6092L21.6337 5.9892C21.3837 5.2492 20.2737 5.2492 19.9637 6.0292L17.5037 12.0192H14.2737C13.7237 12.0192 13.4437 12.2892 13.2637 12.7592L12.2537 15.6092L9.0637 5.9892C8.8337 5.2492 7.7137 5.2492 7.3937 6.0292L4.9337 12.0192H2.2137V13.7792H5.4937C6.0537 13.7792 6.3137 13.5192 6.5037 13.0392L8.2437 8.8492L11.4137 19.0292C11.6437 19.7792 12.8637 19.7692 13.1137 18.9892L14.7637 13.7792H17.9937C18.5537 13.7792 18.8037 13.5192 19.0037 13.0392L20.7937 8.8492L23.9837 19.0292C24.2137 19.7792 25.4337 19.7692 25.6637 18.9892L27.3337 13.7792H30.0337V20.8192C30.0337 22.2392 29.2737 22.9692 27.9137 22.9692Z" /></svg>