<svg viewBox="0 0 25.169921875 25.169921875" xmlns="http://www.w3.org/2000/svg"><path d="M4.2937 25.1692H20.8737C23.7437 25.1692 25.1737 23.7592 25.1737 20.9492V4.2392C25.1737 1.4192 23.7437 -0.0008 20.8737 -0.0008H4.2937C1.4337 -0.0008 0.0037 1.4192 0.0037 4.2392V20.9492C0.0037 23.7592 1.4337 25.1692 4.2937 25.1692ZM4.7837 11.6592L3.7337 10.5792C3.5537 10.4092 3.5237 10.1692 3.6737 9.9692C5.5937 7.6192 9.1237 6.0592 12.6037 6.0592C16.0737 6.0592 19.6037 7.6192 21.5237 9.9692C21.6837 10.1692 21.6537 10.4092 21.4737 10.5792L20.4237 11.6492C20.2237 11.8492 19.9337 11.8692 19.7237 11.6592C17.8937 9.6692 15.3937 8.6292 12.6037 8.6292C9.8137 8.6292 7.3437 9.6792 5.4937 11.6492C5.2737 11.8792 4.9637 11.8792 4.7837 11.6592ZM7.9937 14.8892L6.8037 13.6892C6.6437 13.5092 6.6137 13.2792 6.7637 13.0992C8.0537 11.5392 10.2937 10.5392 12.6037 10.5392C14.9037 10.5392 17.1537 11.5392 18.4337 13.0992C18.5937 13.2592 18.5837 13.5192 18.4037 13.6892L17.2137 14.8892C16.9937 15.1092 16.7237 15.1092 16.5037 14.8792C15.5337 13.7992 14.0237 13.1092 12.6037 13.1392C11.1537 13.1092 9.6837 13.7992 8.7237 14.8592C8.4937 15.1192 8.2137 15.1092 7.9937 14.8892ZM12.6037 19.1392C12.3837 19.1392 12.2237 19.0592 11.9037 18.7292L10.0237 16.9092C9.8737 16.7592 9.8337 16.5592 9.9437 16.3892C10.5237 15.5892 11.5637 15.0492 12.6037 15.0492C13.6337 15.0492 14.6737 15.5692 15.2337 16.3192C15.3837 16.4992 15.3537 16.7592 15.1937 16.9092L13.3137 18.7292C12.9737 19.0692 12.8237 19.1392 12.6037 19.1392Z" /></svg>