<svg viewBox="0 0 27.890625 27.890625" xmlns="http://www.w3.org/2000/svg"><path d="M13.9427 27.8927C21.6427 27.8927 27.8927 21.6427 27.8927 13.9427C27.8927 6.2627 21.6427 0.0027 13.9427 0.0027C6.2627 0.0027 0.0027 6.2627 0.0027 13.9427C0.0027 21.6427 6.2627 27.8927 13.9427 27.8927ZM6.1227 13.0327L5.0827 11.9527C4.9127 11.7727 4.8827 11.5427 5.0327 11.3327C6.9427 8.9827 10.4727 7.4227 13.9627 7.4227C17.4327 7.4227 20.9627 8.9927 22.8727 11.3327C23.0327 11.5427 23.0127 11.7727 22.8327 11.9527L21.7827 13.0127C21.5727 13.2327 21.2827 13.2327 21.0827 13.0327C19.2327 11.0327 16.7527 9.9927 13.9627 9.9927C11.1527 9.9927 8.6927 11.0427 6.8527 13.0127C6.6327 13.2527 6.3027 13.2627 6.1227 13.0327ZM9.3527 16.2527L8.1627 15.0527C8.0027 14.8727 7.9727 14.6527 8.1227 14.4627C9.4027 12.9227 11.6527 11.9227 13.9627 11.9227C16.2527 11.9227 18.5027 12.9027 19.7827 14.4627C19.9427 14.6427 19.9327 14.8927 19.7527 15.0527L18.5527 16.2527C18.3427 16.4727 18.0727 16.4927 17.8527 16.2427C16.8827 15.1727 15.3827 14.4927 13.9627 14.5027C12.5127 14.4927 11.0327 15.1727 10.0727 16.2327C9.8427 16.5027 9.5727 16.4727 9.3527 16.2527ZM13.9627 20.5127C13.7427 20.5127 13.5727 20.4227 13.2627 20.1127L11.3727 18.2827C11.2227 18.1327 11.1827 17.9327 11.2927 17.7627C11.8827 16.9527 12.9227 16.4327 13.9627 16.4327C14.9827 16.4327 16.0227 16.9427 16.5827 17.6927C16.7327 17.8827 16.6927 18.1327 16.5427 18.2827L14.6727 20.1127C14.3327 20.4427 14.1827 20.5127 13.9627 20.5127Z" /></svg>