<svg viewBox="0 0 23.392578125 29.01171875" xmlns="http://www.w3.org/2000/svg"><path d="M0.0037 26.227C0.0037 27.887 1.1437 29.007 2.8537 29.007H20.5337C22.2537 29.007 23.3937 27.887 23.3937 26.227V2.787C23.3937 1.117 22.2537 -0.003 20.5337 -0.003H2.8537C1.1437 -0.003 0.0037 1.117 0.0037 2.787ZM2.2037 26.087V2.927C2.2037 2.487 2.4837 2.197 2.8937 2.197H20.4937C20.9137 2.197 21.1937 2.487 21.1937 2.927V26.087C21.1937 26.527 20.9137 26.807 20.4937 26.807H2.8937C2.4837 26.807 2.2037 26.527 2.2037 26.087ZM4.2637 8.467H19.1437C19.4037 8.467 19.6037 8.257 19.6037 8.007V4.247C19.6037 3.997 19.4037 3.787 19.1437 3.787H4.2637C4.0037 3.787 3.8037 3.997 3.8037 4.247V8.007C3.8037 8.257 4.0037 8.467 4.2637 8.467ZM9.6237 6.777C9.2237 6.777 8.9537 6.517 8.9537 6.127C8.9537 5.727 9.2237 5.467 9.6237 5.467H13.7837C14.1737 5.467 14.4337 5.727 14.4337 6.127C14.4337 6.517 14.1737 6.777 13.7837 6.777Z" /></svg>