<svg viewBox="0 0 28.06678185096154 26.578125" xmlns="http://www.w3.org/2000/svg"><path d="M23.8184 4.9486C24.0984 4.9486 24.3384 4.6886 24.3084 4.3786L24.2284 3.2386L25.1784 3.8786C25.3984 4.0286 25.7584 3.9786 25.9184 3.7286C26.0984 3.4686 25.9784 3.0986 25.6784 2.9786L24.6584 2.4786L25.6984 1.9586C25.9584 1.8186 26.0884 1.4886 25.9384 1.2186C25.7984 0.9686 25.4184 0.8886 25.1684 1.0686L24.2284 1.7086L24.3184 0.5886C24.3484 0.2686 24.1184 -0.0014 23.8184 -0.0014C23.4884 -0.0014 23.2584 0.2486 23.2784 0.5786L23.3684 1.7186L22.3884 1.0686C22.1484 0.8986 21.8084 0.9586 21.6684 1.2186C21.5084 1.4886 21.6184 1.8186 21.8884 1.9586L22.9084 2.4786L21.8984 2.9786C21.6184 3.0986 21.4884 3.4486 21.6584 3.7286C21.7884 3.9786 22.1484 4.0486 22.3884 3.8786L23.3684 3.2386L23.2984 4.3786C23.2784 4.6986 23.4984 4.9486 23.8184 4.9486ZM1.2384 10.5386C3.2084 9.9086 5.2484 9.5886 7.1884 9.5886C9.7084 9.5886 11.5484 9.9986 13.9284 9.9986C16.3884 9.9986 17.9184 8.3286 17.9184 6.1486C17.9184 3.9286 16.2084 2.3286 14.1084 2.3286C12.5484 2.3286 11.1784 3.3086 10.6084 4.6086C10.3884 5.0586 10.4684 5.5786 10.9484 5.8286C11.3884 6.0386 11.9184 5.9086 12.2084 5.3586C12.5084 4.6586 13.2484 4.1186 14.1084 4.1186C15.2384 4.1186 16.1284 4.9086 16.1284 6.1486C16.1284 7.3986 15.2684 8.2186 13.9284 8.2186C11.6584 8.2186 9.7884 7.8086 7.1884 7.8086C4.9584 7.8086 2.7084 8.1986 0.6984 8.8486C0.1184 9.0086 -0.1016 9.4986 0.0384 9.9686C0.1784 10.4486 0.6284 10.7186 1.2384 10.5386ZM22.6284 16.9386C25.8084 16.9386 28.0684 14.9186 28.0684 12.0886C28.0684 9.2986 25.9184 7.2686 23.2584 7.2686C20.7784 7.2686 18.9484 8.9986 18.6184 11.2486C18.5384 11.8286 18.8484 12.2786 19.3484 12.3486C19.8484 12.4186 20.2884 12.0986 20.3984 11.4586C20.6284 10.0186 21.8184 9.0486 23.2584 9.0486C24.9184 9.0486 26.2784 10.2986 26.2784 12.0886C26.2784 13.9086 24.8384 15.1586 22.6284 15.1586C18.4584 15.1586 13.9584 12.7786 8.4884 12.7786C5.6684 12.7786 3.0984 13.2386 0.6984 14.0786C0.1384 14.2886 -0.1016 14.7686 0.0384 15.2286C0.1784 15.7086 0.6384 15.9986 1.2384 15.7886C3.4684 14.9386 5.7984 14.5786 8.4884 14.5786C13.9484 14.5786 18.0184 16.9386 22.6284 16.9386ZM13.9484 26.5786C16.0484 26.5786 17.6784 25.0186 17.6784 22.7886C17.6784 19.5686 14.3784 17.7586 8.3084 17.7586C5.7684 17.7586 3.0184 18.2486 0.6984 19.0486C0.1384 19.2486 -0.1016 19.7286 0.0384 20.1886C0.1784 20.6686 0.6384 20.9586 1.2384 20.7586C3.4184 19.9786 5.8484 19.5486 8.3084 19.5486C13.2784 19.5486 15.8984 20.7986 15.8984 22.7886C15.8984 24.0386 15.0284 24.7986 13.9484 24.7986C12.8684 24.7986 12.2084 24.0786 12.0184 22.9286C11.9384 22.4186 11.5684 21.9986 10.9784 22.0386C10.3584 22.0786 10.1184 22.5986 10.1984 23.1586C10.4484 25.0586 11.8484 26.5786 13.9484 26.5786ZM23.8184 24.5586C24.0984 24.5586 24.3384 24.2986 24.3084 23.9986L24.2284 22.8586L25.1784 23.4986C25.3984 23.6486 25.7584 23.5986 25.9184 23.3386C26.0984 23.0786 25.9784 22.7086 25.6784 22.5986L24.6584 22.0786L25.6984 21.5586C25.9584 21.4386 26.0884 21.1086 25.9384 20.8186C25.7984 20.5786 25.4184 20.4986 25.1684 20.6686L24.2284 21.3186L24.3184 20.1886C24.3484 19.8886 24.1184 19.6186 23.8184 19.6186C23.4884 19.6186 23.2584 19.8686 23.2784 20.1786L23.3684 21.3286L22.3884 20.6686C22.1484 20.5086 21.8084 20.5586 21.6684 20.8186C21.5084 21.1086 21.6184 21.4286 21.8884 21.5586L22.9084 22.0786L21.8984 22.5886C21.6184 22.7086 21.4884 23.0486 21.6584 23.3386C21.7884 23.5886 22.1484 23.6486 22.3884 23.4886L23.3684 22.8486L23.2984 23.9986C23.2784 24.3086 23.4984 24.5586 23.8184 24.5586Z" /></svg>