<svg viewBox="0 0 28.116474331036553 29.01171875" xmlns="http://www.w3.org/2000/svg"><path d="M0.0094 27.877C0.0094 28.497 0.5194 29.007 1.1494 29.007H26.7894C27.4194 29.007 27.9394 28.497 27.9394 27.877C27.9394 27.247 27.4194 26.747 26.7894 26.747H26.0594V17.457H26.3294C27.5494 17.457 28.2994 16.497 28.0794 15.077L26.1494 2.077C25.9594 0.837 25.2494 -0.003 23.9594 -0.003H4.1494C2.8694 -0.003 2.1594 0.837 1.9694 2.077L0.0394 15.077C-0.1806 16.497 0.5694 17.457 1.7894 17.457H1.8394V26.747H1.1494C0.5194 26.747 0.0094 27.247 0.0094 27.877ZM3.4294 7.747L4.1694 2.627C4.2094 2.367 4.3494 2.197 4.5894 2.197H13.0394L12.9894 7.747ZM15.0394 2.197H23.5294C23.7694 2.197 23.9094 2.367 23.9494 2.627L24.6894 7.747H15.0794ZM2.4194 14.767L3.1694 9.607H12.9694L12.9394 15.257H2.8494C2.5694 15.257 2.3794 15.037 2.4194 14.767ZM15.0894 9.607H24.9494L25.6994 14.767C25.7394 15.037 25.5494 15.257 25.2594 15.257H15.1294ZM4.0394 26.747V17.457H23.8494V26.747Z" /></svg>