<svg viewBox="0 0 32.48574798528134 32.181571304884876" xmlns="http://www.w3.org/2000/svg"><path d="M2.1388 30.3421C4.5188 32.6921 7.6988 32.7221 10.0388 30.3721C12.2588 28.1221 12.5388 25.6621 16.4088 20.6721L22.3888 26.6321L22.5788 27.8621C22.6488 28.3621 22.9588 28.7921 23.3688 29.0721L27.6488 31.9721C28.0888 32.2521 28.5088 32.2521 28.8088 31.9521L31.2588 29.5021C31.5488 29.2021 31.5188 28.7721 31.2288 28.3421L28.3788 24.0821C28.0888 23.6521 27.6488 23.3521 27.1588 23.2821L25.9288 23.0921L19.6788 16.8421C20.2388 16.2421 20.8288 15.6121 21.4788 14.9621C24.4088 16.3421 27.9488 15.8721 30.2988 13.5421C32.7588 11.0821 33.1888 7.1921 31.3588 4.0521L30.0288 5.3921L27.6388 7.7721C27.2688 8.1421 26.7988 8.1621 26.4088 7.7721L24.7388 6.0821C24.3388 5.6721 24.2988 5.2021 24.6688 4.8321L27.0588 2.4621L28.3988 1.1221C25.2888 -0.6979 21.4188 -0.2879 18.9588 2.1921C16.7688 4.3821 16.2088 7.5921 17.2588 10.3921L9.0688 2.1521C7.1388 0.2321 5.0888 0.2321 3.2188 2.1121L1.3988 3.9221C-0.4712 5.8021 -0.4712 7.8521 1.4388 9.7621L9.4488 17.7621C5.9688 20.0821 3.9588 20.5921 2.1088 22.4221C-0.2512 24.7621 -0.2312 27.9621 2.1388 30.3421ZM23.2888 7.1821L25.3088 9.1921C26.3188 10.2021 27.6188 10.2321 28.5788 9.2621L30.5988 7.2221C30.8888 9.0721 30.3388 10.9221 29.0188 12.2621C26.7088 14.5821 22.8788 14.4721 20.4288 12.0521C17.9988 9.6121 17.8988 5.7621 20.2288 3.4621C21.5488 2.1521 23.4088 1.5921 25.2188 1.8621L23.2188 3.8721C22.2088 4.8721 22.2388 6.1521 23.2888 7.1821ZM2.6688 8.3421C1.6688 7.3421 1.6888 6.3021 2.6688 5.3121L4.5988 3.3621C5.5688 2.3821 6.6388 2.3921 7.6388 3.3821L16.3688 12.1121C14.2688 14.1021 12.4988 15.5621 10.9688 16.6821ZM11.2188 10.9821C11.4088 11.1821 11.7588 11.1621 11.9388 10.9821C12.1488 10.7521 12.1488 10.4321 11.9588 10.2421L6.8388 5.1421C6.6388 4.9421 6.3088 4.9521 6.1288 5.1421C5.9288 5.3521 5.9388 5.6621 6.1288 5.8521ZM9.5388 12.6521C9.7388 12.8521 10.0688 12.8521 10.2588 12.6521C10.4488 12.4621 10.4688 12.1421 10.2588 11.9421L5.1488 6.8221C4.9688 6.6621 4.6288 6.6321 4.4188 6.8221C4.2288 7.0421 4.2188 7.3721 4.4188 7.5621ZM19.1488 13.3221C19.4188 13.5821 19.6888 13.8421 19.9888 14.0621C10.5288 23.7621 11.9388 25.7221 8.6488 29.0021C7.1288 30.5321 5.0788 30.5421 3.4888 28.9921C1.9188 27.3921 1.9488 25.3521 3.4488 23.8321C6.7588 20.5421 8.7188 21.9421 18.4188 12.4821C18.6388 12.7721 18.8888 13.0421 19.1488 13.3221ZM24.5688 27.3721L24.2988 25.8421L17.6288 19.1721C17.8788 18.8821 18.1188 18.5821 18.3988 18.2821L25.1388 25.0121L26.6688 25.2721L29.2788 28.7421L28.0288 29.9821ZM6.0388 28.1721C6.9688 28.1721 7.7288 27.4021 7.7288 26.4721C7.7288 25.5421 6.9688 24.7921 6.0388 24.7921C5.1088 24.7921 4.3488 25.5421 4.3488 26.4721C4.3488 27.4021 5.1088 28.1721 6.0388 28.1721Z" /></svg>