<svg viewBox="0 0 27.890625 27.890625" xmlns="http://www.w3.org/2000/svg"><path d="M13.9427 27.8864C21.6427 27.8864 27.8927 21.6264 27.8927 13.9464C27.8927 6.2464 21.6427 -0.0036 13.9427 -0.0036C6.2627 -0.0036 0.0027 6.2464 0.0027 13.9464C0.0027 21.6264 6.2627 27.8864 13.9427 27.8864ZM9.7627 20.4164C9.1627 20.4164 8.7127 19.9864 8.7127 19.4264C8.7127 19.1364 8.7727 18.9464 8.9527 18.6864L12.5327 13.7364L9.1627 9.0964C8.9327 8.7764 8.8627 8.5864 8.8627 8.2764C8.8627 7.6964 9.3627 7.2164 9.9627 7.2164C10.4427 7.2164 10.7227 7.3964 11.0427 7.8464L14.0427 12.1964H14.1127L17.0627 7.8564C17.3627 7.3964 17.6527 7.2164 18.0927 7.2164C18.6927 7.2164 19.1527 7.6564 19.1527 8.2164C19.1527 8.4764 19.0827 8.7064 18.8827 8.9664L15.3227 13.8064L18.8527 18.6364C19.0427 18.8764 19.1227 19.0864 19.1227 19.3764C19.1227 19.9864 18.6527 20.4164 18.0027 20.4164C17.5727 20.4164 17.3127 20.2464 16.9527 19.7564L13.9227 15.4264H13.8627L10.8127 19.7564C10.4427 20.2464 10.2127 20.4164 9.7627 20.4164Z" /></svg>