<svg viewBox="0 0 27.890625 27.890625" xmlns="http://www.w3.org/2000/svg"><path d="M13.9427 27.8864C21.6427 27.8864 27.8927 21.6464 27.8927 13.9464C27.8927 6.2464 21.6427 -0.0036 13.9427 -0.0036C6.2527 -0.0036 0.0027 6.2464 0.0027 13.9464C0.0027 21.6464 6.2527 27.8864 13.9427 27.8864ZM13.9427 25.5664C7.5227 25.5664 2.3227 20.3664 2.3227 13.9464C2.3227 7.5164 7.5227 2.3264 13.9427 2.3264C20.3727 2.3264 25.5627 7.5164 25.5627 13.9464C25.5627 20.3664 20.3727 25.5664 13.9427 25.5664ZM9.8727 20.2064C10.3127 20.2064 10.5427 20.0564 10.8927 19.5764L13.8527 15.3664H13.9027L16.8527 19.5764C17.2027 20.0564 17.4427 20.2064 17.8727 20.2064C18.4827 20.2064 18.9527 19.7964 18.9527 19.2064C18.9527 18.9364 18.8627 18.7264 18.6927 18.4964L15.2627 13.8064L18.7127 9.1064C18.9127 8.8564 18.9727 8.6364 18.9727 8.3764C18.9727 7.8464 18.5227 7.4264 17.9527 7.4264C17.5227 7.4264 17.2527 7.5864 16.9527 8.0364L14.0927 12.2464H14.0227L11.1127 8.0264C10.8027 7.5864 10.5427 7.4264 10.0727 7.4264C9.4927 7.4264 9.0127 7.8864 9.0127 8.4364C9.0127 8.7364 9.0827 8.9264 9.2927 9.2264L12.5827 13.7364L9.0927 18.5564C8.9327 18.7964 8.8627 18.9864 8.8627 19.2664C8.8627 19.7964 9.2927 20.2064 9.8727 20.2064Z" /></svg>