<svg viewBox="0 0 25.169921875 25.169921875" xmlns="http://www.w3.org/2000/svg"><path d="M4.2937 25.1692H20.8737C23.7437 25.1692 25.1737 23.7592 25.1737 20.9492V4.2392C25.1737 1.4192 23.7437 -0.0008 20.8737 -0.0008H4.2937C1.4337 -0.0008 0.0037 1.4192 0.0037 4.2392V20.9492C0.0037 23.7592 1.4337 25.1692 4.2937 25.1692ZM4.3237 22.9692C2.9537 22.9692 2.2037 22.2392 2.2037 20.8192V4.3592C2.2037 2.9392 2.9537 2.1992 4.3237 2.1992H20.8537C22.2037 2.1992 22.9737 2.9392 22.9737 4.3592V20.8192C22.9737 22.2392 22.2037 22.9692 20.8537 22.9692ZM8.5337 18.8392C8.9737 18.8392 9.2137 18.6892 9.5537 18.2092L12.5137 13.9992H12.5637L15.5137 18.2092C15.8637 18.6892 16.1037 18.8392 16.5437 18.8392C17.1537 18.8392 17.6137 18.4292 17.6137 17.8392C17.6137 17.5692 17.5237 17.3592 17.3537 17.1292L13.9137 12.4392L17.3737 7.7392C17.5637 7.4892 17.6537 7.2692 17.6537 7.0092C17.6537 6.4792 17.1837 6.0592 16.6137 6.0592C16.1837 6.0592 15.9137 6.2192 15.6137 6.6692L12.7737 10.8792H12.6837L9.7737 6.6592C9.4637 6.2192 9.2037 6.0592 8.7337 6.0592C8.1437 6.0592 7.6737 6.5192 7.6737 7.0692C7.6737 7.3692 7.7537 7.5592 7.9537 7.8592L11.2337 12.3692L7.7637 17.1892C7.5837 17.4292 7.5237 17.6192 7.5237 17.8992C7.5237 18.4292 7.9537 18.8392 8.5337 18.8392Z" /></svg>