<svg viewBox="0 0 25.2109375 25.2109375" xmlns="http://www.w3.org/2000/svg"><path d="M23.6137 1.6166C22.2137 0.2166 20.2437 -0.0034 17.9137 -0.0034H7.2637C4.9637 -0.0034 2.9937 0.2166 1.6037 1.6166C0.2037 3.0066 0.0037 4.9666 0.0037 7.2566V17.9066C0.0037 20.2466 0.2037 22.2066 1.6037 23.5966C2.9937 24.9966 4.9637 25.2066 7.2837 25.2066H17.9137C20.2437 25.2066 22.2137 24.9966 23.6137 23.5966C25.0037 22.2066 25.2137 20.2466 25.2137 17.9066V7.2866C25.2137 4.9466 25.0037 3.0066 23.6137 1.6166ZM23.0137 6.9166V18.2966C23.0137 19.6966 22.8337 21.1666 21.9937 21.9866C21.1737 22.8166 19.7037 23.0066 18.2937 23.0066H6.9137C5.5137 23.0066 4.0337 22.8166 3.2037 21.9866C2.3837 21.1666 2.2037 19.6966 2.2037 18.2966V6.9566C2.2037 5.5066 2.3837 4.0466 3.2037 3.2166C4.0337 2.3966 5.5237 2.1966 6.9637 2.1966H18.2937C19.7037 2.1966 21.1737 2.3966 21.9937 3.2266C22.8337 4.0466 23.0137 5.5066 23.0137 6.9166ZM7.9537 18.3866C8.2537 18.3866 8.5337 18.2666 8.7337 18.0466L12.6037 14.1666L16.5037 18.0466C16.7037 18.2566 16.9637 18.3866 17.2837 18.3866C17.8937 18.3866 18.3937 17.8966 18.3937 17.2766C18.3937 16.9666 18.2637 16.7166 18.0437 16.5066L14.1637 12.6166L18.0637 8.7066C18.2937 8.4766 18.4037 8.2466 18.4037 7.9466C18.4037 7.3466 17.9137 6.8466 17.2937 6.8466C17.0037 6.8466 16.7737 6.9566 16.5437 7.1866L12.6037 11.0866L8.7137 7.2066C8.5037 6.9866 8.2537 6.8766 7.9537 6.8766C7.3437 6.8766 6.8537 7.3566 6.8537 7.9566C6.8537 8.2566 6.9737 8.5166 7.1937 8.7266L11.0737 12.6166L7.1937 16.5166C6.9737 16.7166 6.8537 16.9766 6.8537 17.2766C6.8537 17.8966 7.3437 18.3866 7.9537 18.3866Z" /></svg>