<svg viewBox="0 0 25.2109375 25.2109375" xmlns="http://www.w3.org/2000/svg"><path d="M23.6137 1.6166C22.2137 0.2166 20.2437 -0.0034 17.9137 -0.0034H7.2637C4.9637 -0.0034 2.9937 0.2166 1.6037 1.6166C0.2037 3.0066 0.0037 4.9666 0.0037 7.2566V17.9066C0.0037 20.2466 0.2037 22.2066 1.6037 23.5966C2.9937 24.9966 4.9637 25.2066 7.2837 25.2066H17.9137C20.2437 25.2066 22.2137 24.9966 23.6137 23.5966C25.0037 22.2066 25.2137 20.2466 25.2137 17.9066V7.2866C25.2137 4.9466 25.0037 3.0066 23.6137 1.6166ZM7.9837 18.3466C7.3737 18.3466 6.8637 17.8466 6.8637 17.2166C6.8637 16.9166 6.9737 16.6266 7.1937 16.4166L10.9937 12.6166L7.1937 8.8366C6.9737 8.6166 6.8637 8.3366 6.8637 8.0366C6.8637 7.3966 7.3737 6.9166 7.9837 6.9166C8.3037 6.9166 8.5537 7.0266 8.7637 7.2366L12.5737 11.0366L16.4237 7.2166C16.6537 6.9866 16.9137 6.8866 17.2137 6.8866C17.8237 6.8866 18.3337 7.3866 18.3337 8.0166C18.3337 8.3266 18.2337 8.5766 18.0037 8.8166L14.1937 12.6166L17.9937 16.4066C18.2137 16.6066 18.3237 16.8966 18.3237 17.2166C18.3237 17.8466 17.8137 18.3466 17.1837 18.3466C16.8737 18.3466 16.5737 18.2366 16.3637 18.0166L12.5737 14.2166L8.8037 18.0166C8.6037 18.2366 8.3037 18.3466 7.9837 18.3466Z" /></svg>