<svg viewBox="0 0 27.890625 27.890625" xmlns="http://www.w3.org/2000/svg"><path d="M13.9427 27.8864C21.6427 27.8864 27.8927 21.6264 27.8927 13.9464C27.8927 6.2464 21.6427 -0.0036 13.9427 -0.0036C6.2627 -0.0036 0.0027 6.2464 0.0027 13.9464C0.0027 21.6264 6.2627 27.8864 13.9427 27.8864ZM9.8827 20.2364C9.2727 20.2364 8.8627 19.8364 8.8627 19.2764C8.8627 18.9664 8.9427 18.7764 9.2427 18.3364L15.7227 9.3664V9.2464H9.7627C9.2127 9.2464 8.8227 8.8964 8.8227 8.3164C8.8227 7.7564 9.2127 7.3964 9.7627 7.3964H17.5827C18.2127 7.3964 18.6327 7.8064 18.6327 8.3964C18.6327 8.7264 18.5627 8.9164 18.2927 9.2964L11.8227 18.2664V18.3864H18.1427C18.6927 18.3864 19.1027 18.7264 19.1027 19.3164C19.1027 19.8764 18.6927 20.2364 18.1427 20.2364Z" /></svg>